pid,taskRunCount,taskID,taskName,i,channel,pitch,velocity,microseconds
78,1,1,Ticks_Pract_5,0,5,42,127,374077708
78,1,1,Ticks_Pract_5,1,5,42,127,374577796
78,1,1,Ticks_Pract_5,2,5,42,127,375078336
78,1,1,Ticks_Pract_5,3,5,42,127,375577976
78,1,1,Ticks_Pract_5,4,1,48,42,376012772
78,1,1,Ticks_Pract_5,5,5,42,127,376077812
78,1,1,Ticks_Pract_5,6,1,48,38,376569168
78,1,1,Ticks_Pract_5,7,5,42,127,376578404
78,1,1,Ticks_Pract_5,8,5,42,127,377078104
78,1,1,Ticks_Pract_5,9,1,48,40,377085856
78,1,1,Ticks_Pract_5,10,1,48,34,377568780
78,1,1,Ticks_Pract_5,11,5,42,127,377577716
78,1,1,Ticks_Pract_5,12,5,42,127,378077788
78,1,1,Ticks_Pract_5,13,1,48,38,378087492
78,1,1,Ticks_Pract_5,14,5,42,127,378578156
78,1,1,Ticks_Pract_5,15,1,48,41,378601844
78,1,1,Ticks_Pract_5,16,1,48,40,379051704
78,1,1,Ticks_Pract_5,17,5,42,127,379077992
78,1,1,Ticks_Pract_5,18,5,42,127,379577696
78,1,1,Ticks_Pract_5,19,1,48,38,379587696
78,1,1,Ticks_Pract_5,20,5,42,127,380077688
78,1,1,Ticks_Pract_5,21,1,48,42,380095988
78,1,1,Ticks_Pract_5,22,1,48,43,380561856
78,1,1,Ticks_Pract_5,23,5,42,127,380578048
78,1,1,Ticks_Pract_5,24,5,42,127,381077824
78,1,1,Ticks_Pract_5,25,1,48,42,381080792
78,1,1,Ticks_Pract_5,26,5,42,127,381577668
78,1,1,Ticks_Pract_5,27,1,48,39,381590504
78,1,1,Ticks_Pract_5,28,1,48,43,382072308
78,1,1,Ticks_Pract_5,29,5,42,127,382078476
78,1,1,Ticks_Pract_5,30,1,48,39,382572604
78,1,1,Ticks_Pract_5,31,5,42,127,382578024
78,1,1,Ticks_Pract_5,32,1,48,47,383074764
78,1,1,Ticks_Pract_5,33,5,42,127,383077716
78,1,1,Ticks_Pract_5,34,1,48,43,383574160
78,1,1,Ticks_Pract_5,35,5,42,127,383577636
78,1,1,Ticks_Pract_5,36,5,42,127,384078232
78,1,1,Ticks_Pract_5,37,1,48,45,384082772
78,1,1,Ticks_Pract_5,38,1,48,41,384560464
78,1,1,Ticks_Pract_5,39,5,42,127,384578000
78,1,1,Ticks_Pract_5,40,5,42,127,385077700
78,1,1,Ticks_Pract_5,41,1,48,43,385080376
78,1,1,Ticks_Pract_5,42,5,42,127,385578444
78,1,1,Ticks_Pract_5,43,1,48,45,385590236
78,1,1,Ticks_Pract_5,44,1,48,46,386076544
78,1,1,Ticks_Pract_5,45,5,42,127,386078056
78,1,1,Ticks_Pract_5,46,5,42,127,386577732
78,1,1,Ticks_Pract_5,47,1,48,45,386582892
78,1,1,Ticks_Pract_5,48,1,48,41,387066088
78,1,1,Ticks_Pract_5,49,5,42,127,387077568
78,1,1,Ticks_Pract_5,50,1,48,42,387570644
78,1,1,Ticks_Pract_5,51,5,42,127,387578160
78,1,1,Ticks_Pract_5,52,5,42,127,388077864
78,1,1,Ticks_Pract_5,53,1,48,48,388078752
78,1,1,Ticks_Pract_5,54,1,48,43,388571080
78,1,1,Ticks_Pract_5,55,5,42,127,388577552
78,1,1,Ticks_Pract_5,56,5,42,127,389078372
78,1,1,Ticks_Pract_5,57,1,48,45,389082464
78,1,1,Ticks_Pract_5,58,1,48,46,389560972
78,1,1,Ticks_Pract_5,59,5,42,127,389578284
78,1,1,Ticks_Pract_5,60,5,42,127,390077688
78,1,1,Ticks_Pract_5,61,1,48,45,390096584
78,1,1,Ticks_Pract_5,62,5,42,127,390577384
78,1,1,Ticks_Pract_5,63,1,48,46,390590368
78,1,1,Ticks_Pract_5,64,1,48,42,391057360
78,1,1,Ticks_Pract_5,65,5,42,127,391078336
78,1,1,Ticks_Pract_5,66,1,48,47,391577740
78,1,1,Ticks_Pract_5,67,5,42,127,391579376
78,1,1,Ticks_Pract_5,68,5,42,127,392077660
78,1,1,Ticks_Pract_5,69,1,48,46,392084516
78,1,1,Ticks_Pract_5,70,1,48,43,392548140
78,1,1,Ticks_Pract_5,71,5,42,127,392578468
78,1,1,Ticks_Pract_5,72,1,48,46,393069080
78,1,1,Ticks_Pract_5,73,5,42,127,393078240
78,1,1,Ticks_Pract_5,74,5,42,127,393577792
78,1,1,Ticks_Pract_5,75,1,48,42,393586068
78,1,1,Ticks_Pract_5,76,1,48,46,394070340
78,1,1,Ticks_Pract_5,0,9999,9999,9999,374075492
78,1,1,Ticks_Pract_5,1,9999,9999,9999,374575208
78,1,1,Ticks_Pract_5,2,9999,9999,9999,375075896
78,1,1,Ticks_Pract_5,3,9999,9999,9999,375575612
78,1,1,Ticks_Pract_5,4,9999,9999,9999,376075372
78,1,1,Ticks_Pract_5,5,9999,9999,9999,376576116
78,1,1,Ticks_Pract_5,6,9999,9999,9999,377075812
78,1,1,Ticks_Pract_5,7,9999,9999,9999,377575500
78,1,1,Ticks_Pract_5,8,9999,9999,9999,378075200
78,1,1,Ticks_Pract_5,9,9999,9999,9999,378575944
78,1,1,Ticks_Pract_5,10,9999,9999,9999,379075704
78,1,1,Ticks_Pract_5,11,9999,9999,9999,379575404
78,1,1,Ticks_Pract_5,12,9999,9999,9999,380075100
78,1,1,Ticks_Pract_5,13,9999,9999,9999,380575832
78,1,1,Ticks_Pract_5,14,9999,9999,9999,381075536
78,1,1,Ticks_Pract_5,15,9999,9999,9999,381575228
78,1,1,Ticks_Pract_5,16,9999,9999,9999,382075964
78,1,1,Ticks_Pract_5,17,9999,9999,9999,382575732
78,1,1,Ticks_Pract_5,18,9999,9999,9999,383075428
78,1,1,Ticks_Pract_5,19,9999,9999,9999,383575124
78,1,1,Ticks_Pract_5,20,9999,9999,9999,384075868
78,1,1,Ticks_Pract_5,21,9999,9999,9999,384575560
78,1,1,Ticks_Pract_5,22,9999,9999,9999,385075260
78,1,1,Ticks_Pract_5,23,9999,9999,9999,385576004
78,1,1,Ticks_Pract_5,24,9999,9999,9999,386075700
78,1,1,Ticks_Pract_5,25,9999,9999,9999,386575444
78,1,1,Ticks_Pract_5,26,9999,9999,9999,387075128
78,1,1,Ticks_Pract_5,27,9999,9999,9999,387575872
78,1,1,Ticks_Pract_5,28,9999,9999,9999,388075572
78,1,1,Ticks_Pract_5,29,9999,9999,9999,388575336
78,1,1,Ticks_Pract_5,30,9999,9999,9999,389076084
78,1,1,Ticks_Pract_5,31,9999,9999,9999,389575772
78,1,1,Ticks_Pract_5,32,9999,9999,9999,390075472
78,1,1,Ticks_Pract_5,33,9999,9999,9999,390575168
78,1,1,Ticks_Pract_5,34,9999,9999,9999,391075900
78,1,1,Ticks_Pract_5,35,9999,9999,9999,391575600
78,1,1,Ticks_Pract_5,36,9999,9999,9999,392075368
78,1,1,Ticks_Pract_5,37,9999,9999,9999,392576108
78,1,1,Ticks_Pract_5,38,9999,9999,9999,393075800
78,1,1,Ticks_Pract_5,39,9999,9999,9999,393575500
78,2,0,Ticks_Pract_8,0,5,42,127,428064068
78,2,0,Ticks_Pract_8,1,5,42,127,428863972
78,2,0,Ticks_Pract_8,2,5,42,127,429663728
78,2,0,Ticks_Pract_8,3,5,42,127,430464380
78,2,0,Ticks_Pract_8,4,5,42,127,431264064
78,2,0,Ticks_Pract_8,5,1,48,37,431305328
78,2,0,Ticks_Pract_8,6,1,48,40,432053956
78,2,0,Ticks_Pract_8,7,5,42,127,432063788
78,2,0,Ticks_Pract_8,8,5,42,127,432863680
78,2,0,Ticks_Pract_8,9,1,48,40,432881984
78,2,0,Ticks_Pract_8,10,5,42,127,433664460
78,2,0,Ticks_Pract_8,11,1,48,44,433705300
78,2,0,Ticks_Pract_8,12,5,42,127,434464068
78,2,0,Ticks_Pract_8,13,1,48,43,434490452
78,2,0,Ticks_Pract_8,14,1,48,34,435261216
78,2,0,Ticks_Pract_8,15,5,42,127,435263944
78,2,0,Ticks_Pract_8,16,5,42,127,436063536
78,2,0,Ticks_Pract_8,17,1,48,41,436083184
78,2,0,Ticks_Pract_8,18,5,42,127,436864536
78,2,0,Ticks_Pract_8,19,1,48,47,436900272
78,2,0,Ticks_Pract_8,20,5,42,127,437664048
78,2,0,Ticks_Pract_8,21,1,48,44,437673672
78,2,0,Ticks_Pract_8,22,5,42,127,438463932
78,2,0,Ticks_Pract_8,23,1,48,47,438499888
78,2,0,Ticks_Pract_8,24,1,48,44,439260708
78,2,0,Ticks_Pract_8,25,5,42,127,439263732
78,2,0,Ticks_Pract_8,26,5,42,127,440064592
78,2,0,Ticks_Pract_8,27,1,48,46,440081656
78,2,0,Ticks_Pract_8,28,5,42,127,440864056
78,2,0,Ticks_Pract_8,29,1,48,41,440873084
78,2,0,Ticks_Pract_8,30,1,48,44,441636520
78,2,0,Ticks_Pract_8,31,5,42,127,441663784
78,2,0,Ticks_Pract_8,32,1,48,44,442450468
78,2,0,Ticks_Pract_8,33,5,42,127,442463516
78,2,0,Ticks_Pract_8,34,1,48,39,443237788
78,2,0,Ticks_Pract_8,35,5,42,127,443264520
78,2,0,Ticks_Pract_8,36,1,48,31,444030264
78,2,0,Ticks_Pract_8,37,5,42,127,444063956
78,2,0,Ticks_Pract_8,38,1,48,50,444833656
78,2,0,Ticks_Pract_8,39,5,42,127,444863836
78,2,0,Ticks_Pract_8,40,5,42,127,445663580
78,2,0,Ticks_Pract_8,41,1,48,50,445667672
78,2,0,Ticks_Pract_8,42,5,42,127,446464432
78,2,0,Ticks_Pract_8,43,1,48,42,446500488
78,2,0,Ticks_Pract_8,44,1,48,46,447262676
78,2,0,Ticks_Pract_8,45,5,42,127,447264036
78,2,0,Ticks_Pract_8,46,5,42,127,448063848
78,2,0,Ticks_Pract_8,47,1,48,42,448071756
78,2,0,Ticks_Pract_8,48,1,48,43,448859128
78,2,0,Ticks_Pract_8,49,5,42,127,448863800
78,2,0,Ticks_Pract_8,50,5,42,127,449664288
78,2,0,Ticks_Pract_8,51,1,48,42,449674292
78,2,0,Ticks_Pract_8,52,1,48,48,450454632
78,2,0,Ticks_Pract_8,53,5,42,127,450464312
78,2,0,Ticks_Pract_8,54,5,42,127,451263832
78,2,0,Ticks_Pract_8,55,1,48,47,451267472
78,2,0,Ticks_Pract_8,0,9999,9999,9999,428061780
78,2,0,Ticks_Pract_8,1,9999,9999,9999,428861536
78,2,0,Ticks_Pract_8,2,9999,9999,9999,429661292
78,2,0,Ticks_Pract_8,3,9999,9999,9999,430462020
78,2,0,Ticks_Pract_8,4,9999,9999,9999,431261776
78,2,0,Ticks_Pract_8,5,9999,9999,9999,432061500
78,2,0,Ticks_Pract_8,6,9999,9999,9999,432861240
78,2,0,Ticks_Pract_8,7,9999,9999,9999,433662020
78,2,0,Ticks_Pract_8,8,9999,9999,9999,434461780
78,2,0,Ticks_Pract_8,9,9999,9999,9999,435261508
78,2,0,Ticks_Pract_8,10,9999,9999,9999,436061248
78,2,0,Ticks_Pract_8,11,9999,9999,9999,436862028
78,2,0,Ticks_Pract_8,12,9999,9999,9999,437661760
78,2,0,Ticks_Pract_8,13,9999,9999,9999,438461492
78,2,0,Ticks_Pract_8,14,9999,9999,9999,439261296
78,2,0,Ticks_Pract_8,15,9999,9999,9999,440062008
78,2,0,Ticks_Pract_8,16,9999,9999,9999,440861764
78,2,0,Ticks_Pract_8,17,9999,9999,9999,441661496
78,2,0,Ticks_Pract_8,18,9999,9999,9999,442461304
78,2,0,Ticks_Pract_8,19,9999,9999,9999,443262008
78,2,0,Ticks_Pract_8,20,9999,9999,9999,444061740
78,2,0,Ticks_Pract_8,21,9999,9999,9999,444861548
78,2,0,Ticks_Pract_8,22,9999,9999,9999,445661288
78,2,0,Ticks_Pract_8,23,9999,9999,9999,446462068
78,2,0,Ticks_Pract_8,24,9999,9999,9999,447261752
78,2,0,Ticks_Pract_8,25,9999,9999,9999,448061484
78,2,0,Ticks_Pract_8,26,9999,9999,9999,448861288
78,2,0,Ticks_Pract_8,27,9999,9999,9999,449662000
78,2,0,Ticks_Pract_8,28,9999,9999,9999,450461800
78,2,0,Ticks_Pract_8,29,9999,9999,9999,451261544
78,3,4,T1_SMS_5,0,5,42,127,567117280
78,3,4,T1_SMS_5,1,5,42,127,567616848
78,3,4,T1_SMS_5,2,5,42,127,568116564
78,3,4,T1_SMS_5,3,5,42,127,568617252
78,3,4,T1_SMS_5,4,1,48,34,569063496
78,3,4,T1_SMS_5,5,5,42,127,569116888
78,3,4,T1_SMS_5,6,1,48,34,569581668
78,3,4,T1_SMS_5,7,5,42,127,569616732
78,3,4,T1_SMS_5,8,1,48,37,570104248
78,3,4,T1_SMS_5,9,5,42,127,570116400
78,3,4,T1_SMS_5,10,1,48,35,570594740
78,3,4,T1_SMS_5,11,5,42,127,570617292
78,3,4,T1_SMS_5,12,1,48,38,571088232
78,3,4,T1_SMS_5,13,5,42,127,571116764
78,3,4,T1_SMS_5,14,1,48,39,571602808
78,3,4,T1_SMS_5,15,5,42,127,571616608
78,3,4,T1_SMS_5,16,1,48,38,572098620
78,3,4,T1_SMS_5,17,5,42,127,572117352
78,3,4,T1_SMS_5,18,1,48,38,572613344
78,3,4,T1_SMS_5,19,5,42,127,572617120
78,3,4,T1_SMS_5,20,5,42,127,573116672
78,3,4,T1_SMS_5,21,1,48,39,573123380
78,3,4,T1_SMS_5,22,1,48,38,573591644
78,3,4,T1_SMS_5,23,5,42,127,573616436
78,3,4,T1_SMS_5,24,1,48,35,574108464
78,3,4,T1_SMS_5,25,5,42,127,574117104
78,3,4,T1_SMS_5,26,1,48,37,574609356
78,3,4,T1_SMS_5,27,5,42,127,574616948
78,3,4,T1_SMS_5,28,1,48,37,575090648
78,3,4,T1_SMS_5,29,5,42,127,575116716
78,3,4,T1_SMS_5,30,1,48,38,575614508
78,3,4,T1_SMS_5,31,5,42,127,575617312
78,3,4,T1_SMS_5,32,1,48,43,576115040
78,3,4,T1_SMS_5,33,5,42,127,576117232
78,3,4,T1_SMS_5,34,1,48,39,576612552
78,3,4,T1_SMS_5,35,5,42,127,576617000
78,3,4,T1_SMS_5,36,5,42,127,577116404
78,3,4,T1_SMS_5,37,1,48,35,577131112
78,3,4,T1_SMS_5,38,1,48,37,577603936
78,3,4,T1_SMS_5,39,5,42,127,577617360
78,3,4,T1_SMS_5,40,1,48,37,578092116
78,3,4,T1_SMS_5,41,5,42,127,578116908
78,3,4,T1_SMS_5,42,1,48,38,578600112
78,3,4,T1_SMS_5,43,5,42,127,578616676
78,3,4,T1_SMS_5,44,1,48,41,579090304
78,3,4,T1_SMS_5,45,5,42,127,579117492
78,3,4,T1_SMS_5,46,1,48,38,579601368
78,3,4,T1_SMS_5,47,5,42,127,579617116
78,3,4,T1_SMS_5,48,5,42,127,580116892
78,3,4,T1_SMS_5,49,1,48,40,580141180
78,3,4,T1_SMS_5,50,1,48,39,580591912
78,3,4,T1_SMS_5,51,5,42,127,580616508
78,3,4,T1_SMS_5,52,1,48,36,581091304
78,3,4,T1_SMS_5,53,5,42,127,581117148
78,3,4,T1_SMS_5,54,1,48,36,581607008
78,3,4,T1_SMS_5,55,5,42,127,581616992
78,3,4,T1_SMS_5,56,1,48,44,582106780
78,3,4,T1_SMS_5,57,5,42,127,582116612
78,3,4,T1_SMS_5,58,1,48,42,582598996
78,3,4,T1_SMS_5,59,5,42,127,582616532
78,3,4,T1_SMS_5,60,1,48,37,583108336
78,3,4,T1_SMS_5,61,5,42,127,583117124
78,3,4,T1_SMS_5,62,1,48,40,583604740
78,3,4,T1_SMS_5,63,5,42,127,583616896
78,3,4,T1_SMS_5,64,1,48,43,584100396
78,3,4,T1_SMS_5,65,5,42,127,584116516
78,3,4,T1_SMS_5,66,1,48,37,584602860
78,3,4,T1_SMS_5,67,5,42,127,584617256
78,3,4,T1_SMS_5,68,5,42,127,585117032
78,3,4,T1_SMS_5,69,1,48,41,585122020
78,3,4,T1_SMS_5,70,5,42,127,585616876
78,3,4,T1_SMS_5,71,1,48,43,585629720
78,3,4,T1_SMS_5,72,1,48,41,586106280
78,3,4,T1_SMS_5,73,5,42,127,586116492
78,3,4,T1_SMS_5,74,1,48,46,586606728
78,3,4,T1_SMS_5,75,5,42,127,586617156
78,3,4,T1_SMS_5,76,5,42,127,587116860
78,3,4,T1_SMS_5,77,1,48,35,587120948
78,3,4,T1_SMS_5,78,1,48,43,587610456
78,3,4,T1_SMS_5,79,5,42,127,587616696
78,3,4,T1_SMS_5,80,5,42,127,588117224
78,3,4,T1_SMS_5,81,1,48,38,588124972
78,3,4,T1_SMS_5,82,1,48,43,588612984
78,3,4,T1_SMS_5,83,5,42,127,588617208
78,3,4,T1_SMS_5,84,1,48,40,589098840
78,3,4,T1_SMS_5,85,5,42,127,589116828
78,3,4,T1_SMS_5,86,1,48,39,589592324
78,3,4,T1_SMS_5,87,5,42,127,589616448
78,3,4,T1_SMS_5,88,1,48,36,590086760
78,3,4,T1_SMS_5,89,5,42,127,590117188
78,3,4,T1_SMS_5,90,1,48,41,590590868
78,3,4,T1_SMS_5,91,5,42,127,590616960
78,3,4,T1_SMS_5,92,1,48,43,591074252
78,3,4,T1_SMS_5,93,5,42,127,591116504
78,3,4,T1_SMS_5,94,1,48,40,591589512
78,3,4,T1_SMS_5,95,5,42,127,591617368
78,3,4,T1_SMS_5,96,1,48,40,592092120
78,3,4,T1_SMS_5,97,5,42,127,592117140
78,3,4,T1_SMS_5,98,1,48,40,592598104
78,3,4,T1_SMS_5,99,5,42,127,592617056
78,3,4,T1_SMS_5,100,5,42,127,593116612
78,3,4,T1_SMS_5,101,1,48,42,593133716
78,3,4,T1_SMS_5,102,5,42,127,593617200
78,3,4,T1_SMS_5,103,1,48,43,593620840
78,3,4,T1_SMS_5,104,1,48,40,594104212
78,3,4,T1_SMS_5,105,5,42,127,594117116
78,3,4,T1_SMS_5,106,1,48,41,594603832
78,3,4,T1_SMS_5,107,5,42,127,594616960
78,3,4,T1_SMS_5,108,1,48,41,595097848
78,3,4,T1_SMS_5,109,5,42,127,595117328
78,3,4,T1_SMS_5,110,1,48,38,595594248
78,3,4,T1_SMS_5,111,5,42,127,595617172
78,3,4,T1_SMS_5,112,1,48,36,596105388
78,3,4,T1_SMS_5,113,5,42,127,596116940
78,3,4,T1_SMS_5,114,1,48,32,596604632
78,3,4,T1_SMS_5,115,5,42,127,596616712
78,3,4,T1_SMS_5,116,1,48,45,597089820
78,3,4,T1_SMS_5,117,5,42,127,597117156
78,3,4,T1_SMS_5,118,1,48,46,597599760
78,3,4,T1_SMS_5,119,5,42,127,597617072
78,3,4,T1_SMS_5,120,1,48,42,598113664
78,3,4,T1_SMS_5,121,5,42,127,598116916
78,3,4,T1_SMS_5,122,1,48,38,598612984
78,3,4,T1_SMS_5,123,5,42,127,598616388
78,3,4,T1_SMS_5,124,5,42,127,599117136
78,3,4,T1_SMS_5,125,1,48,45,599128032
78,3,4,T1_SMS_5,126,5,42,127,599616832
78,3,4,T1_SMS_5,127,1,48,44,599624656
78,3,4,T1_SMS_5,128,5,42,127,600116748
78,3,4,T1_SMS_5,129,1,48,40,600143128
78,3,4,T1_SMS_5,130,1,48,43,600616436
78,3,4,T1_SMS_5,131,5,42,127,600618012
78,3,4,T1_SMS_5,132,1,48,39,601095824
78,3,4,T1_SMS_5,133,5,42,127,601117032
78,3,4,T1_SMS_5,134,1,48,38,601603352
78,3,4,T1_SMS_5,135,5,42,127,601616872
78,3,4,T1_SMS_5,136,1,48,40,602081428
78,3,4,T1_SMS_5,137,5,42,127,602116764
78,3,4,T1_SMS_5,138,1,48,39,602596684
78,3,4,T1_SMS_5,139,5,42,127,602617212
78,3,4,T1_SMS_5,140,1,48,38,603074528
78,3,4,T1_SMS_5,141,5,42,127,603116904
78,3,4,T1_SMS_5,142,5,42,127,603616832
78,3,4,T1_SMS_5,143,1,48,44,603621072
78,3,4,T1_SMS_5,144,5,42,127,604117424
78,3,4,T1_SMS_5,145,1,48,38,604119364
78,3,4,T1_SMS_5,146,5,42,127,604616972
78,3,4,T1_SMS_5,147,1,48,39,604626368
78,3,4,T1_SMS_5,148,1,48,43,605111232
78,3,4,T1_SMS_5,149,5,42,127,605116808
78,3,4,T1_SMS_5,150,5,42,127,605616656
78,3,4,T1_SMS_5,151,1,48,44,605626204
78,3,4,T1_SMS_5,152,1,48,45,606117396
78,3,4,T1_SMS_5,153,5,42,127,606118732
78,3,4,T1_SMS_5,154,5,42,127,606616944
78,3,4,T1_SMS_5,155,1,48,41,606617908
78,3,4,T1_SMS_5,156,1,48,48,607114196
78,3,4,T1_SMS_5,157,5,42,127,607116856
78,3,4,T1_SMS_5,158,1,48,44,607588840
78,3,4,T1_SMS_5,159,5,42,127,607617448
78,3,4,T1_SMS_5,160,1,48,36,608113588
78,3,4,T1_SMS_5,161,5,42,127,608117144
78,3,4,T1_SMS_5,162,5,42,127,608616772
78,3,4,T1_SMS_5,163,1,48,44,608627220
78,3,4,T1_SMS_5,164,1,48,43,609101988
78,3,4,T1_SMS_5,165,5,42,127,609116532
78,3,4,T1_SMS_5,166,1,48,40,609599432
78,3,4,T1_SMS_5,167,5,42,127,609617272
78,3,4,T1_SMS_5,168,5,42,127,610116900
78,3,4,T1_SMS_5,169,1,48,45,610122188
78,3,4,T1_SMS_5,170,5,42,127,610616672
78,3,4,T1_SMS_5,171,1,48,43,610620836
78,3,4,T1_SMS_5,172,1,48,46,611117036
78,3,4,T1_SMS_5,173,5,42,127,611118604
78,3,4,T1_SMS_5,174,1,48,42,611602708
78,3,4,T1_SMS_5,175,5,42,127,611617176
78,3,4,T1_SMS_5,176,5,42,127,612116956
78,3,4,T1_SMS_5,177,1,48,38,612128672
78,3,4,T1_SMS_5,178,1,48,40,612615440
78,3,4,T1_SMS_5,179,5,42,127,612617012
78,3,4,T1_SMS_5,180,1,48,45,613107672
78,3,4,T1_SMS_5,181,5,42,127,613117360
78,3,4,T1_SMS_5,182,5,42,127,613616984
78,3,4,T1_SMS_5,183,1,48,42,613621224
78,3,4,T1_SMS_5,184,1,48,38,614098092
78,3,4,T1_SMS_5,185,5,42,127,614116748
78,3,4,T1_SMS_5,186,5,42,127,614616452
78,3,4,T1_SMS_5,187,1,48,40,614618316
78,3,4,T1_SMS_5,188,1,48,41,615107656
78,3,4,T1_SMS_5,189,5,42,127,615117184
78,3,4,T1_SMS_5,190,5,42,127,615616740
78,3,4,T1_SMS_5,191,1,48,44,615644612
78,3,4,T1_SMS_5,192,5,42,127,616116508
78,3,4,T1_SMS_5,193,1,48,38,616125380
78,3,4,T1_SMS_5,194,1,48,35,616597836
78,3,4,T1_SMS_5,195,5,42,127,616617464
78,3,4,T1_SMS_5,196,1,48,38,617089000
78,3,4,T1_SMS_5,197,5,42,127,617116936
78,3,4,T1_SMS_5,198,1,48,33,617613076
78,3,4,T1_SMS_5,199,5,42,127,617616704
78,3,4,T1_SMS_5,200,1,48,39,618090564
78,3,4,T1_SMS_5,201,5,42,127,618116400
78,3,4,T1_SMS_5,202,1,48,37,618614560
78,3,4,T1_SMS_5,203,5,42,127,618617144
78,3,4,T1_SMS_5,204,1,48,45,619116992
78,3,4,T1_SMS_5,205,5,42,127,619118328
78,3,4,T1_SMS_5,206,5,42,127,619616540
78,3,4,T1_SMS_5,207,1,48,41,619619584
78,3,4,T1_SMS_5,208,1,48,40,620112524
78,3,4,T1_SMS_5,209,5,42,127,620117796
78,3,4,T1_SMS_5,210,1,48,38,620592400
78,3,4,T1_SMS_5,211,5,42,127,620617044
78,3,4,T1_SMS_5,212,1,48,37,621076236
78,3,4,T1_SMS_5,213,5,42,127,621116664
78,3,4,T1_SMS_5,214,1,48,37,621613184
78,3,4,T1_SMS_5,215,5,42,127,621616508
78,3,4,T1_SMS_5,216,5,42,127,622117408
78,3,4,T1_SMS_5,217,1,48,42,622129052
78,3,4,T1_SMS_5,218,1,48,40,622613020
78,3,4,T1_SMS_5,219,5,42,127,622616800
78,3,4,T1_SMS_5,220,1,48,35,623111068
78,3,4,T1_SMS_5,221,5,42,127,623116644
78,3,4,T1_SMS_5,222,1,48,40,623596228
78,3,4,T1_SMS_5,223,5,42,127,623617580
78,3,4,T1_SMS_5,224,5,42,127,624117136
78,3,4,T1_SMS_5,225,1,48,40,624126236
78,3,4,T1_SMS_5,226,5,42,127,624616756
78,3,4,T1_SMS_5,227,1,48,47,624646600
78,3,4,T1_SMS_5,228,1,48,38,625111100
78,3,4,T1_SMS_5,229,5,42,127,625116520
78,3,4,T1_SMS_5,230,5,42,127,625617488
78,3,4,T1_SMS_5,231,1,48,40,625618528
78,3,4,T1_SMS_5,232,1,48,36,626110188
78,3,4,T1_SMS_5,233,5,42,127,626116956
78,3,4,T1_SMS_5,234,5,42,127,626616584
78,3,4,T1_SMS_5,235,1,48,36,626617548
78,3,4,T1_SMS_5,236,1,48,36,627101644
78,3,4,T1_SMS_5,237,5,42,127,627117464
78,3,4,T1_SMS_5,238,1,48,38,627604184
78,3,4,T1_SMS_5,239,5,42,127,627617308
78,3,4,T1_SMS_5,240,1,48,37,628110164
78,3,4,T1_SMS_5,241,5,42,127,628116784
78,3,4,T1_SMS_5,242,1,48,41,628592500
78,3,4,T1_SMS_5,243,5,42,127,628616552
78,3,4,T1_SMS_5,244,1,48,37,629057344
78,3,4,T1_SMS_5,245,5,42,127,629117516
78,3,4,T1_SMS_5,246,5,42,127,629617364
78,3,4,T1_SMS_5,247,1,48,27,629631404
78,3,4,T1_SMS_5,248,1,48,35,630101312
78,3,4,T1_SMS_5,249,5,42,127,630116684
78,3,4,T1_SMS_5,250,1,48,39,630593608
78,3,4,T1_SMS_5,251,5,42,127,630616380
78,3,4,T1_SMS_5,252,1,48,36,631089488
78,3,4,T1_SMS_5,253,5,42,127,631117344
78,3,4,T1_SMS_5,254,1,48,33,631613640
78,3,4,T1_SMS_5,255,5,42,127,631616964
78,3,4,T1_SMS_5,256,1,48,39,632100840
78,3,4,T1_SMS_5,0,9999,9999,9999,567114840
78,3,4,T1_SMS_5,1,9999,9999,9999,567614556
78,3,4,T1_SMS_5,2,9999,9999,9999,568114272
78,3,4,T1_SMS_5,3,9999,9999,9999,568614960
78,3,4,T1_SMS_5,4,9999,9999,9999,569114672
78,3,4,T1_SMS_5,5,9999,9999,9999,569614440
78,3,4,T1_SMS_5,6,9999,9999,9999,570114112
78,3,4,T1_SMS_5,7,9999,9999,9999,570614852
78,3,4,T1_SMS_5,8,9999,9999,9999,571114548
78,3,4,T1_SMS_5,9,9999,9999,9999,571614320
78,3,4,T1_SMS_5,10,9999,9999,9999,572115060
78,3,4,T1_SMS_5,11,9999,9999,9999,572614756
78,3,4,T1_SMS_5,12,9999,9999,9999,573114456
78,3,4,T1_SMS_5,13,9999,9999,9999,573614148
78,3,4,T1_SMS_5,14,9999,9999,9999,574114888
78,3,4,T1_SMS_5,15,9999,9999,9999,574614584
78,3,4,T1_SMS_5,16,9999,9999,9999,575114352
78,3,4,T1_SMS_5,17,9999,9999,9999,575615096
78,3,4,T1_SMS_5,18,9999,9999,9999,576114756
78,3,4,T1_SMS_5,19,9999,9999,9999,576614488
78,3,4,T1_SMS_5,20,9999,9999,9999,577114188
78,3,4,T1_SMS_5,21,9999,9999,9999,577614920
78,3,4,T1_SMS_5,22,9999,9999,9999,578114616
78,3,4,T1_SMS_5,23,9999,9999,9999,578614388
78,3,4,T1_SMS_5,24,9999,9999,9999,579115128
78,3,4,T1_SMS_5,25,9999,9999,9999,579614824
78,3,4,T1_SMS_5,26,9999,9999,9999,580114528
78,3,4,T1_SMS_5,27,9999,9999,9999,580614192
78,3,4,T1_SMS_5,28,9999,9999,9999,581114932
78,3,4,T1_SMS_5,29,9999,9999,9999,581614700
78,3,4,T1_SMS_5,30,9999,9999,9999,582114396
78,3,4,T1_SMS_5,31,9999,9999,9999,582614092
78,3,4,T1_SMS_5,32,9999,9999,9999,583114836
78,3,4,T1_SMS_5,33,9999,9999,9999,583614528
78,3,4,T1_SMS_5,34,9999,9999,9999,584114224
78,3,4,T1_SMS_5,35,9999,9999,9999,584614964
78,3,4,T1_SMS_5,36,9999,9999,9999,585114740
78,3,4,T1_SMS_5,37,9999,9999,9999,585614436
78,3,4,T1_SMS_5,38,9999,9999,9999,586114128
78,3,4,T1_SMS_5,39,9999,9999,9999,586614868
78,3,4,T1_SMS_5,40,9999,9999,9999,587114568
78,3,4,T1_SMS_5,41,9999,9999,9999,587614260
78,3,4,T1_SMS_5,42,9999,9999,9999,588115008
78,3,4,T1_SMS_5,43,9999,9999,9999,588614768
78,3,4,T1_SMS_5,44,9999,9999,9999,589114464
78,3,4,T1_SMS_5,45,9999,9999,9999,589614156
78,3,4,T1_SMS_5,46,9999,9999,9999,590114900
78,3,4,T1_SMS_5,47,9999,9999,9999,590614596
78,3,4,T1_SMS_5,48,9999,9999,9999,591114288
78,3,4,T1_SMS_5,49,9999,9999,9999,591615080
78,3,4,T1_SMS_5,50,9999,9999,9999,592114776
78,3,4,T1_SMS_5,51,9999,9999,9999,592614468
78,3,4,T1_SMS_5,52,9999,9999,9999,593114172
78,3,4,T1_SMS_5,53,9999,9999,9999,593614912
78,3,4,T1_SMS_5,54,9999,9999,9999,594114676
78,3,4,T1_SMS_5,55,9999,9999,9999,594614372
78,3,4,T1_SMS_5,56,9999,9999,9999,595115112
78,3,4,T1_SMS_5,57,9999,9999,9999,595614808
78,3,4,T1_SMS_5,58,9999,9999,9999,596114504
78,3,4,T1_SMS_5,59,9999,9999,9999,596614196
78,3,4,T1_SMS_5,60,9999,9999,9999,597114940
78,3,4,T1_SMS_5,61,9999,9999,9999,597614708
78,3,4,T1_SMS_5,62,9999,9999,9999,598114404
78,3,4,T1_SMS_5,63,9999,9999,9999,598614100
78,3,4,T1_SMS_5,64,9999,9999,9999,599114844
78,3,4,T1_SMS_5,65,9999,9999,9999,599614540
78,3,4,T1_SMS_5,66,9999,9999,9999,600114236
78,3,4,T1_SMS_5,67,9999,9999,9999,600614976
78,3,4,T1_SMS_5,68,9999,9999,9999,601114740
78,3,4,T1_SMS_5,69,9999,9999,9999,601614436
78,3,4,T1_SMS_5,70,9999,9999,9999,602114104
78,3,4,T1_SMS_5,71,9999,9999,9999,602614848
78,3,4,T1_SMS_5,72,9999,9999,9999,603114616
78,3,4,T1_SMS_5,73,9999,9999,9999,603614316
78,3,4,T1_SMS_5,74,9999,9999,9999,604115060
78,3,4,T1_SMS_5,75,9999,9999,9999,604614756
78,3,4,T1_SMS_5,76,9999,9999,9999,605114444
78,3,4,T1_SMS_5,77,9999,9999,9999,605614144
78,3,4,T1_SMS_5,78,9999,9999,9999,606114884
78,3,4,T1_SMS_5,79,9999,9999,9999,606614580
78,3,4,T1_SMS_5,80,9999,9999,9999,607114340
78,3,4,T1_SMS_5,81,9999,9999,9999,607615084
78,3,4,T1_SMS_5,82,9999,9999,9999,608114780
78,3,4,T1_SMS_5,83,9999,9999,9999,608614480
78,3,4,T1_SMS_5,84,9999,9999,9999,609114168
78,3,4,T1_SMS_5,85,9999,9999,9999,609614908
78,3,4,T1_SMS_5,86,9999,9999,9999,610114612
78,3,4,T1_SMS_5,87,9999,9999,9999,610614380
78,3,4,T1_SMS_5,88,9999,9999,9999,611115124
78,3,4,T1_SMS_5,89,9999,9999,9999,611614812
78,3,4,T1_SMS_5,90,9999,9999,9999,612114516
78,3,4,T1_SMS_5,91,9999,9999,9999,612614208
78,3,4,T1_SMS_5,92,9999,9999,9999,613114992
78,3,4,T1_SMS_5,93,9999,9999,9999,613614696
78,3,4,T1_SMS_5,94,9999,9999,9999,614114384
78,3,4,T1_SMS_5,95,9999,9999,9999,614614088
78,3,4,T1_SMS_5,96,9999,9999,9999,615114820
78,3,4,T1_SMS_5,97,9999,9999,9999,615614520
78,3,4,T1_SMS_5,98,9999,9999,9999,616114292
78,3,4,T1_SMS_5,99,9999,9999,9999,616615024
78,3,4,T1_SMS_5,100,9999,9999,9999,617114720
78,3,4,T1_SMS_5,101,9999,9999,9999,617614416
78,3,4,T1_SMS_5,102,9999,9999,9999,618114112
78,3,4,T1_SMS_5,103,9999,9999,9999,618614852
78,3,4,T1_SMS_5,104,9999,9999,9999,619114552
78,3,4,T1_SMS_5,105,9999,9999,9999,619614324
78,3,4,T1_SMS_5,106,9999,9999,9999,620115056
78,3,4,T1_SMS_5,107,9999,9999,9999,620614752
78,3,4,T1_SMS_5,108,9999,9999,9999,621114448
78,3,4,T1_SMS_5,109,9999,9999,9999,621614144
78,3,4,T1_SMS_5,110,9999,9999,9999,622114892
78,3,4,T1_SMS_5,111,9999,9999,9999,622614584
78,3,4,T1_SMS_5,112,9999,9999,9999,623114352
78,3,4,T1_SMS_5,113,9999,9999,9999,623615068
78,3,4,T1_SMS_5,114,9999,9999,9999,624114772
78,3,4,T1_SMS_5,115,9999,9999,9999,624614464
78,3,4,T1_SMS_5,116,9999,9999,9999,625114228
78,3,4,T1_SMS_5,117,9999,9999,9999,625614900
78,3,4,T1_SMS_5,118,9999,9999,9999,626114664
78,3,4,T1_SMS_5,119,9999,9999,9999,626614368
78,3,4,T1_SMS_5,120,9999,9999,9999,627115100
78,3,4,T1_SMS_5,121,9999,9999,9999,627614796
78,3,4,T1_SMS_5,122,9999,9999,9999,628114492
78,3,4,T1_SMS_5,123,9999,9999,9999,628614260
78,3,4,T1_SMS_5,124,9999,9999,9999,629114928
78,3,4,T1_SMS_5,125,9999,9999,9999,629614704
78,3,4,T1_SMS_5,126,9999,9999,9999,630114392
78,3,4,T1_SMS_5,127,9999,9999,9999,630614088
78,3,4,T1_SMS_5,128,9999,9999,9999,631114832
78,3,4,T1_SMS_5,129,9999,9999,9999,631614528
78,4,2,T1_SMS_8,0,5,42,127,721737064
78,4,2,T1_SMS_8,1,5,42,127,722536892
78,4,2,T1_SMS_8,2,5,42,127,723336648
78,4,2,T1_SMS_8,3,5,42,127,724137672
78,4,2,T1_SMS_8,4,1,48,40,724932676
78,4,2,T1_SMS_8,5,5,42,127,724937048
78,4,2,T1_SMS_8,6,1,48,40,725731440
78,4,2,T1_SMS_8,7,5,42,127,725736708
78,4,2,T1_SMS_8,8,5,42,127,726536696
78,4,2,T1_SMS_8,9,1,48,40,726550812
78,4,2,T1_SMS_8,10,5,42,127,727337256
78,4,2,T1_SMS_8,11,1,48,43,727358700
78,4,2,T1_SMS_8,12,5,42,127,728137060
78,4,2,T1_SMS_8,13,1,48,40,728143840
78,4,2,T1_SMS_8,14,5,42,127,728936720
78,4,2,T1_SMS_8,15,1,48,39,728947096
78,4,2,T1_SMS_8,16,5,42,127,729736752
78,4,2,T1_SMS_8,17,1,48,43,729748320
78,4,2,T1_SMS_8,18,5,42,127,730537532
78,4,2,T1_SMS_8,19,1,48,38,730544012
78,4,2,T1_SMS_8,20,5,42,127,731337040
78,4,2,T1_SMS_8,21,1,48,38,731343376
78,4,2,T1_SMS_8,22,5,42,127,732136776
78,4,2,T1_SMS_8,23,1,48,35,732154700
78,4,2,T1_SMS_8,24,1,48,36,732934784
78,4,2,T1_SMS_8,25,5,42,127,732936600
78,4,2,T1_SMS_8,26,1,48,41,733735948
78,4,2,T1_SMS_8,27,5,42,127,733737528
78,4,2,T1_SMS_8,28,5,42,127,734537044
78,4,2,T1_SMS_8,29,1,48,39,734540684
78,4,2,T1_SMS_8,30,1,48,35,735289988
78,4,2,T1_SMS_8,31,5,42,127,735336772
78,4,2,T1_SMS_8,32,1,48,42,736131460
78,4,2,T1_SMS_8,33,5,42,127,736136432
78,4,2,T1_SMS_8,34,5,42,127,736937440
78,4,2,T1_SMS_8,35,1,48,43,736942948
78,4,2,T1_SMS_8,36,5,42,127,737737024
78,4,2,T1_SMS_8,37,1,48,44,737747176
78,4,2,T1_SMS_8,38,5,42,127,738536756
78,4,2,T1_SMS_8,39,1,48,41,738562192
78,4,2,T1_SMS_8,40,5,42,127,739336440
78,4,2,T1_SMS_8,41,1,48,38,739337780
78,4,2,T1_SMS_8,42,1,48,39,740134264
78,4,2,T1_SMS_8,43,5,42,127,740137440
78,4,2,T1_SMS_8,44,1,48,41,740929132
78,4,2,T1_SMS_8,45,5,42,127,740937020
78,4,2,T1_SMS_8,46,5,42,127,741736764
78,4,2,T1_SMS_8,47,1,48,38,741744288
78,4,2,T1_SMS_8,48,1,48,40,742517904
78,4,2,T1_SMS_8,49,5,42,127,742536488
78,4,2,T1_SMS_8,50,1,48,40,743333344
78,4,2,T1_SMS_8,51,5,42,127,743337640
78,4,2,T1_SMS_8,52,5,42,127,744137084
78,4,2,T1_SMS_8,53,1,48,38,744144988
78,4,2,T1_SMS_8,54,1,48,42,744936740
78,4,2,T1_SMS_8,55,5,42,127,744938080
78,4,2,T1_SMS_8,56,5,42,127,745736500
78,4,2,T1_SMS_8,57,1,48,37,745740368
78,4,2,T1_SMS_8,58,1,48,40,746536448
78,4,2,T1_SMS_8,59,5,42,127,746537944
78,4,2,T1_SMS_8,60,1,48,41,747324932
78,4,2,T1_SMS_8,61,5,42,127,747336936
78,4,2,T1_SMS_8,62,5,42,127,748136824
78,4,2,T1_SMS_8,63,1,48,39,748145028
78,4,2,T1_SMS_8,64,1,48,40,748934588
78,4,2,T1_SMS_8,65,5,42,127,748936404
78,4,2,T1_SMS_8,66,5,42,127,749737412
78,4,2,T1_SMS_8,67,1,48,42,749743448
78,4,2,T1_SMS_8,68,1,48,39,750526032
78,4,2,T1_SMS_8,69,5,42,127,750537288
78,4,2,T1_SMS_8,70,5,42,127,751336808
78,4,2,T1_SMS_8,71,1,48,42,751351740
78,4,2,T1_SMS_8,72,1,48,38,752131288
78,4,2,T1_SMS_8,73,5,42,127,752136484
78,4,2,T1_SMS_8,74,1,48,30,752937196
78,4,2,T1_SMS_8,75,5,42,127,752938680
78,4,2,T1_SMS_8,76,5,42,127,753737300
78,4,2,T1_SMS_8,77,1,48,43,753751416
78,4,2,T1_SMS_8,78,1,48,37,754523676
78,4,2,T1_SMS_8,79,5,42,127,754536728
78,4,2,T1_SMS_8,80,5,42,127,755336472
78,4,2,T1_SMS_8,81,1,48,44,755344368
78,4,2,T1_SMS_8,82,5,42,127,756137252
78,4,2,T1_SMS_8,83,1,48,38,756148072
78,4,2,T1_SMS_8,84,1,48,36,756933572
78,4,2,T1_SMS_8,85,5,42,127,756937272
78,4,2,T1_SMS_8,86,5,42,127,757736864
78,4,2,T1_SMS_8,87,1,48,39,757752252
78,4,2,T1_SMS_8,88,5,42,127,758536696
78,4,2,T1_SMS_8,89,1,48,36,758556344
78,4,2,T1_SMS_8,90,5,42,127,759337256
78,4,2,T1_SMS_8,91,1,48,33,759348972
78,4,2,T1_SMS_8,92,5,42,127,760137212
78,4,2,T1_SMS_8,93,1,48,23,760146684
78,4,2,T1_SMS_8,94,1,48,47,760933684
78,4,2,T1_SMS_8,95,5,42,127,760937232
78,4,2,T1_SMS_8,96,5,42,127,761736528
78,4,2,T1_SMS_8,97,1,48,48,761742860
78,4,2,T1_SMS_8,98,5,42,127,762537236
78,4,2,T1_SMS_8,99,1,48,46,762575728
78,4,2,T1_SMS_8,100,5,42,127,763337192
78,4,2,T1_SMS_8,101,1,48,44,763352132
78,4,2,T1_SMS_8,102,1,48,37,764119680
78,4,2,T1_SMS_8,103,5,42,127,764136696
78,4,2,T1_SMS_8,104,1,48,40,764932972
78,4,2,T1_SMS_8,105,5,42,127,764936600
78,4,2,T1_SMS_8,106,5,42,127,765737388
78,4,2,T1_SMS_8,107,1,48,43,765744916
78,4,2,T1_SMS_8,108,1,48,42,766526008
78,4,2,T1_SMS_8,109,5,42,127,766536964
78,4,2,T1_SMS_8,110,1,48,42,767326716
78,4,2,T1_SMS_8,111,5,42,127,767336924
78,4,2,T1_SMS_8,112,5,42,127,768136440
78,4,2,T1_SMS_8,113,1,48,41,768138376
78,4,2,T1_SMS_8,114,5,42,127,768937368
78,4,2,T1_SMS_8,115,1,48,39,768947520
78,4,2,T1_SMS_8,116,5,42,127,769737100
78,4,2,T1_SMS_8,117,1,48,39,769747548
78,4,2,T1_SMS_8,118,5,42,127,770536908
78,4,2,T1_SMS_8,119,1,48,40,770556628
78,4,2,T1_SMS_8,120,5,42,127,771336516
78,4,2,T1_SMS_8,121,1,48,48,771350780
78,4,2,T1_SMS_8,122,1,48,47,772118860
78,4,2,T1_SMS_8,123,5,42,127,772137216
78,4,2,T1_SMS_8,124,5,42,127,772937032
78,4,2,T1_SMS_8,125,1,48,48,772944936
78,4,2,T1_SMS_8,126,5,42,127,773736840
78,4,2,T1_SMS_8,127,1,48,43,773769280
78,4,2,T1_SMS_8,128,1,48,49,774524188
78,4,2,T1_SMS_8,129,5,42,127,774536564
78,4,2,T1_SMS_8,130,1,48,39,775336748
78,4,2,T1_SMS_8,131,5,42,127,775338244
78,4,2,T1_SMS_8,132,1,48,39,776136632
78,4,2,T1_SMS_8,133,5,42,127,776138128
78,4,2,T1_SMS_8,134,5,42,127,776936748
78,4,2,T1_SMS_8,135,1,48,49,776945028
78,4,2,T1_SMS_8,136,1,48,48,777731976
78,4,2,T1_SMS_8,137,5,42,127,777736500
78,4,2,T1_SMS_8,138,5,42,127,778537364
78,4,2,T1_SMS_8,139,1,48,44,778551624
78,4,2,T1_SMS_8,140,1,48,50,779334284
78,4,2,T1_SMS_8,141,5,42,127,779336940
78,4,2,T1_SMS_8,142,1,48,43,780108736
78,4,2,T1_SMS_8,143,5,42,127,780136748
78,4,2,T1_SMS_8,144,1,48,43,780909672
78,4,2,T1_SMS_8,145,5,42,127,780936632
78,4,2,T1_SMS_8,146,1,48,46,781722944
78,4,2,T1_SMS_8,147,5,42,127,781737412
78,4,2,T1_SMS_8,148,5,42,127,782537004
78,4,2,T1_SMS_8,149,1,48,44,782545504
78,4,2,T1_SMS_8,150,1,48,39,783335528
78,4,2,T1_SMS_8,151,5,42,127,783337028
78,4,2,T1_SMS_8,152,5,42,127,784136644
78,4,2,T1_SMS_8,153,1,48,45,784165564
78,4,2,T1_SMS_8,154,1,48,50,784926460
78,4,2,T1_SMS_8,155,5,42,127,784937344
78,4,2,T1_SMS_8,156,1,48,48,785717300
78,4,2,T1_SMS_8,157,5,42,127,785737076
78,4,2,T1_SMS_8,158,1,48,37,786532512
78,4,2,T1_SMS_8,159,5,42,127,786536884
78,4,2,T1_SMS_8,160,5,42,127,787336772
78,4,2,T1_SMS_8,161,1,48,49,787348796
78,4,2,T1_SMS_8,162,1,48,49,788131304
78,4,2,T1_SMS_8,163,5,42,127,788137252
78,4,2,T1_SMS_8,164,5,42,127,788936988
78,4,2,T1_SMS_8,165,1,48,42,788944816
78,4,2,T1_SMS_8,166,5,42,127,789736872
78,4,2,T1_SMS_8,167,1,48,43,789761184
78,4,2,T1_SMS_8,168,5,42,127,790536776
78,4,2,T1_SMS_8,169,1,48,49,790566448
78,4,2,T1_SMS_8,170,5,42,127,791337336
78,4,2,T1_SMS_8,171,1,48,45,791350552
78,4,2,T1_SMS_8,172,5,42,127,792136996
78,4,2,T1_SMS_8,173,1,48,42,792150732
78,4,2,T1_SMS_8,174,5,42,127,792936728
78,4,2,T1_SMS_8,175,1,48,46,792945228
78,4,2,T1_SMS_8,176,5,42,127,793736832
78,4,2,T1_SMS_8,177,1,48,43,793753560
78,4,2,T1_SMS_8,178,1,48,46,794516780
78,4,2,T1_SMS_8,179,5,42,127,794537232
78,4,2,T1_SMS_8,180,1,48,46,795332672
78,4,2,T1_SMS_8,181,5,42,127,795337040
78,4,2,T1_SMS_8,182,5,42,127,796136708
78,4,2,T1_SMS_8,183,1,48,43,796161540
78,4,2,T1_SMS_8,184,5,42,127,796936764
78,4,2,T1_SMS_8,185,1,48,48,796950952
78,4,2,T1_SMS_8,186,5,42,127,797737320
78,4,2,T1_SMS_8,187,1,48,47,797748592
78,4,2,T1_SMS_8,188,5,42,127,798537128
78,4,2,T1_SMS_8,189,1,48,37,798548324
78,4,2,T1_SMS_8,190,5,42,127,799336860
78,4,2,T1_SMS_8,191,1,48,34,799352616
78,4,2,T1_SMS_8,192,5,42,127,800136520
78,4,2,T1_SMS_8,193,1,48,43,800153400
78,4,2,T1_SMS_8,194,5,42,127,800937424
78,4,2,T1_SMS_8,195,1,48,39,800954380
78,4,2,T1_SMS_8,196,5,42,127,801736936
78,4,2,T1_SMS_8,197,1,48,45,801745288
78,4,2,T1_SMS_8,198,5,42,127,802536668
78,4,2,T1_SMS_8,199,1,48,42,802543752
78,4,2,T1_SMS_8,200,5,42,127,803336576
78,4,2,T1_SMS_8,201,1,48,43,803355548
78,4,2,T1_SMS_8,202,5,42,127,804137360
78,4,2,T1_SMS_8,203,1,48,33,804150948
78,4,2,T1_SMS_8,204,1,48,32,804935572
78,4,2,T1_SMS_8,205,5,42,127,804937012
78,4,2,T1_SMS_8,206,5,42,127,805736752
78,4,2,T1_SMS_8,207,1,48,36,805762828
78,4,2,T1_SMS_8,208,1,48,48,806531360
78,4,2,T1_SMS_8,209,5,42,127,806536628
78,4,2,T1_SMS_8,210,1,48,47,807317852
78,4,2,T1_SMS_8,211,5,42,127,807337556
78,4,2,T1_SMS_8,212,5,42,127,808137000
78,4,2,T1_SMS_8,213,1,48,42,808146696
78,4,2,T1_SMS_8,214,5,42,127,808936880
78,4,2,T1_SMS_8,215,1,48,38,808962464
78,4,2,T1_SMS_8,216,5,42,127,809736492
78,4,2,T1_SMS_8,217,1,48,20,809771768
78,4,2,T1_SMS_8,218,1,48,50,810520548
78,4,2,T1_SMS_8,219,5,42,127,810537488
78,4,2,T1_SMS_8,220,1,48,44,811311976
78,4,2,T1_SMS_8,221,5,42,127,811336996
78,4,2,T1_SMS_8,222,1,48,42,812131012
78,4,2,T1_SMS_8,223,5,42,127,812136808
78,4,2,T1_SMS_8,224,5,42,127,812936472
78,4,2,T1_SMS_8,225,1,48,46,812948116
78,4,2,T1_SMS_8,226,5,42,127,813737476
78,4,2,T1_SMS_8,227,1,48,45,813749572
78,4,2,T1_SMS_8,228,1,48,45,814536376
78,4,2,T1_SMS_8,229,5,42,127,814538028
78,4,2,T1_SMS_8,230,5,42,127,815336720
78,4,2,T1_SMS_8,231,1,48,43,815364324
78,4,2,T1_SMS_8,232,5,42,127,816136480
78,4,2,T1_SMS_8,233,1,48,45,816144684
78,4,2,T1_SMS_8,234,1,48,47,816922256
78,4,2,T1_SMS_8,235,5,42,127,816937252
78,4,2,T1_SMS_8,0,9999,9999,9999,721734772
78,4,2,T1_SMS_8,1,9999,9999,9999,722534452
78,4,2,T1_SMS_8,2,9999,9999,9999,723334208
78,4,2,T1_SMS_8,3,9999,9999,9999,724135008
78,4,2,T1_SMS_8,4,9999,9999,9999,724934756
78,4,2,T1_SMS_8,5,9999,9999,9999,725734492
78,4,2,T1_SMS_8,6,9999,9999,9999,726534256
78,4,2,T1_SMS_8,7,9999,9999,9999,727334964
78,4,2,T1_SMS_8,8,9999,9999,9999,728134772
78,4,2,T1_SMS_8,9,9999,9999,9999,728934504
78,4,2,T1_SMS_8,10,9999,9999,9999,729734236
78,4,2,T1_SMS_8,11,9999,9999,9999,730535016
78,4,2,T1_SMS_8,12,9999,9999,9999,731334748
78,4,2,T1_SMS_8,13,9999,9999,9999,732134484
78,4,2,T1_SMS_8,14,9999,9999,9999,732934256
78,4,2,T1_SMS_8,15,9999,9999,9999,733735020
78,4,2,T1_SMS_8,16,9999,9999,9999,734534752
78,4,2,T1_SMS_8,17,9999,9999,9999,735334480
78,4,2,T1_SMS_8,18,9999,9999,9999,736134212
78,4,2,T1_SMS_8,19,9999,9999,9999,736935000
78,4,2,T1_SMS_8,20,9999,9999,9999,737734732
78,4,2,T1_SMS_8,21,9999,9999,9999,738534464
78,4,2,T1_SMS_8,22,9999,9999,9999,739334224
78,4,2,T1_SMS_8,23,9999,9999,9999,740135000
78,4,2,T1_SMS_8,24,9999,9999,9999,740934732
78,4,2,T1_SMS_8,25,9999,9999,9999,741734472
78,4,2,T1_SMS_8,26,9999,9999,9999,742534196
78,4,2,T1_SMS_8,27,9999,9999,9999,743334976
78,4,2,T1_SMS_8,28,9999,9999,9999,744134716
78,4,2,T1_SMS_8,29,9999,9999,9999,744934448
78,4,2,T1_SMS_8,30,9999,9999,9999,745734208
78,4,2,T1_SMS_8,31,9999,9999,9999,746534988
78,4,2,T1_SMS_8,32,9999,9999,9999,747334716
78,4,2,T1_SMS_8,33,9999,9999,9999,748134460
78,4,2,T1_SMS_8,34,9999,9999,9999,748934216
78,4,2,T1_SMS_8,35,9999,9999,9999,749734972
78,4,2,T1_SMS_8,36,9999,9999,9999,750534772
78,4,2,T1_SMS_8,37,9999,9999,9999,751334516
78,4,2,T1_SMS_8,38,9999,9999,9999,752134192
78,4,2,T1_SMS_8,39,9999,9999,9999,752934976
78,4,2,T1_SMS_8,40,9999,9999,9999,753734712
78,4,2,T1_SMS_8,41,9999,9999,9999,754534512
78,4,2,T1_SMS_8,42,9999,9999,9999,755334252
78,4,2,T1_SMS_8,43,9999,9999,9999,756134960
78,4,2,T1_SMS_8,44,9999,9999,9999,756934760
78,4,2,T1_SMS_8,45,9999,9999,9999,757734500
78,4,2,T1_SMS_8,46,9999,9999,9999,758534256
78,4,2,T1_SMS_8,47,9999,9999,9999,759334964
78,4,2,T1_SMS_8,48,9999,9999,9999,760134772
78,4,2,T1_SMS_8,49,9999,9999,9999,760934496
78,4,2,T1_SMS_8,50,9999,9999,9999,761734236
78,4,2,T1_SMS_8,51,9999,9999,9999,762535016
78,4,2,T1_SMS_8,52,9999,9999,9999,763334752
78,4,2,T1_SMS_8,53,9999,9999,9999,764134480
78,4,2,T1_SMS_8,54,9999,9999,9999,764934236
78,4,2,T1_SMS_8,55,9999,9999,9999,765735024
78,4,2,T1_SMS_8,56,9999,9999,9999,766534748
78,4,2,T1_SMS_8,57,9999,9999,9999,767334480
78,4,2,T1_SMS_8,58,9999,9999,9999,768134220
78,4,2,T1_SMS_8,59,9999,9999,9999,768935000
78,4,2,T1_SMS_8,60,9999,9999,9999,769734736
78,4,2,T1_SMS_8,61,9999,9999,9999,770534468
78,4,2,T1_SMS_8,62,9999,9999,9999,771334224
78,4,2,T1_SMS_8,63,9999,9999,9999,772135000
78,4,2,T1_SMS_8,64,9999,9999,9999,772934740
78,4,2,T1_SMS_8,65,9999,9999,9999,773734472
78,4,2,T1_SMS_8,66,9999,9999,9999,774534200
78,4,2,T1_SMS_8,67,9999,9999,9999,775334988
78,4,2,T1_SMS_8,68,9999,9999,9999,776134724
78,4,2,T1_SMS_8,69,9999,9999,9999,776934456
78,4,2,T1_SMS_8,70,9999,9999,9999,777734208
78,4,2,T1_SMS_8,71,9999,9999,9999,778534996
78,4,2,T1_SMS_8,72,9999,9999,9999,779334724
78,4,2,T1_SMS_8,73,9999,9999,9999,780134460
78,4,2,T1_SMS_8,74,9999,9999,9999,780934192
78,4,2,T1_SMS_8,75,9999,9999,9999,781734972
78,4,2,T1_SMS_8,76,9999,9999,9999,782534712
78,4,2,T1_SMS_8,77,9999,9999,9999,783334444
78,4,2,T1_SMS_8,78,9999,9999,9999,784134204
78,4,2,T1_SMS_8,79,9999,9999,9999,784934976
78,4,2,T1_SMS_8,80,9999,9999,9999,785734712
78,4,2,T1_SMS_8,81,9999,9999,9999,786534516
78,4,2,T1_SMS_8,82,9999,9999,9999,787334260
78,4,2,T1_SMS_8,83,9999,9999,9999,788134960
78,4,2,T1_SMS_8,84,9999,9999,9999,788934772
78,4,2,T1_SMS_8,85,9999,9999,9999,789734508
78,4,2,T1_SMS_8,86,9999,9999,9999,790534264
78,4,2,T1_SMS_8,87,9999,9999,9999,791334968
78,4,2,T1_SMS_8,88,9999,9999,9999,792134704
78,4,2,T1_SMS_8,89,9999,9999,9999,792934508
78,4,2,T1_SMS_8,90,9999,9999,9999,793734244
78,4,2,T1_SMS_8,91,9999,9999,9999,794535016
78,4,2,T1_SMS_8,92,9999,9999,9999,795334752
78,4,2,T1_SMS_8,93,9999,9999,9999,796134492
78,4,2,T1_SMS_8,94,9999,9999,9999,796934248
78,4,2,T1_SMS_8,95,9999,9999,9999,797735028
78,4,2,T1_SMS_8,96,9999,9999,9999,798534760
78,4,2,T1_SMS_8,97,9999,9999,9999,799334496
78,4,2,T1_SMS_8,98,9999,9999,9999,800134228
78,4,2,T1_SMS_8,99,9999,9999,9999,800934984
78,4,2,T1_SMS_8,100,9999,9999,9999,801734716
78,4,2,T1_SMS_8,101,9999,9999,9999,802534452
78,4,2,T1_SMS_8,102,9999,9999,9999,803334212
78,4,2,T1_SMS_8,103,9999,9999,9999,804134992
78,4,2,T1_SMS_8,104,9999,9999,9999,804934724
78,4,2,T1_SMS_8,105,9999,9999,9999,805734460
78,4,2,T1_SMS_8,106,9999,9999,9999,806534260
78,4,2,T1_SMS_8,107,9999,9999,9999,807334968
78,4,2,T1_SMS_8,108,9999,9999,9999,808134708
78,4,2,T1_SMS_8,109,9999,9999,9999,808934516
78,4,2,T1_SMS_8,110,9999,9999,9999,809734200
78,4,2,T1_SMS_8,111,9999,9999,9999,810534972
78,4,2,T1_SMS_8,112,9999,9999,9999,811334708
78,4,2,T1_SMS_8,113,9999,9999,9999,812134516
78,4,2,T1_SMS_8,114,9999,9999,9999,812934252
78,4,2,T1_SMS_8,115,9999,9999,9999,813734960
78,4,2,T1_SMS_8,116,9999,9999,9999,814534768
78,4,2,T1_SMS_8,117,9999,9999,9999,815334504
78,4,2,T1_SMS_8,118,9999,9999,9999,816134264
78,4,2,T1_SMS_8,119,9999,9999,9999,816934964
78,5,23,Ticks_Phase_5,0,5,42,127,829819360
78,5,23,Ticks_Phase_5,1,5,42,127,830319148
78,5,23,Ticks_Phase_5,2,5,42,127,830818636
78,5,23,Ticks_Phase_5,3,5,42,127,831319392
78,5,23,Ticks_Phase_5,4,1,48,44,831750768
78,5,23,Ticks_Phase_5,5,5,42,127,831819092
78,5,23,Ticks_Phase_5,6,1,48,41,832289620
78,5,23,Ticks_Phase_5,7,5,42,127,832319080
78,5,23,Ticks_Phase_5,8,5,42,127,832818552
78,5,23,Ticks_Phase_5,9,1,48,38,832825328
78,5,23,Ticks_Phase_5,10,5,42,127,833319212
78,5,23,Ticks_Phase_5,11,1,48,40,833348024
78,5,23,Ticks_Phase_5,12,5,42,127,833819124
78,5,23,Ticks_Phase_5,13,1,48,40,833829584
78,5,23,Ticks_Phase_5,14,5,42,127,834318660
78,5,23,Ticks_Phase_5,15,1,48,43,834336744
78,5,23,Ticks_Phase_5,16,1,48,45,834805028
78,5,23,Ticks_Phase_5,17,5,42,127,834818416
78,5,23,Ticks_Phase_5,18,1,48,43,835304188
78,5,23,Ticks_Phase_5,19,5,42,127,835319200
78,5,23,Ticks_Phase_5,20,1,48,45,835793540
78,5,23,Ticks_Phase_5,21,5,42,127,835819184
78,5,23,Ticks_Phase_5,22,1,48,45,836313824
78,5,23,Ticks_Phase_5,23,5,42,127,836318876
78,5,23,Ticks_Phase_5,24,5,42,127,836819392
78,5,23,Ticks_Phase_5,25,1,48,43,836824528
78,5,23,Ticks_Phase_5,26,5,42,127,837319008
78,5,23,Ticks_Phase_5,27,1,48,42,837333728
78,5,23,Ticks_Phase_5,28,5,42,127,837818992
78,5,23,Ticks_Phase_5,29,1,48,45,837822564
78,5,23,Ticks_Phase_5,30,1,48,44,838313028
78,5,23,Ticks_Phase_5,31,5,42,127,838318452
78,5,23,Ticks_Phase_5,32,1,48,44,838807104
78,5,23,Ticks_Phase_5,33,5,42,127,838819112
78,5,23,Ticks_Phase_5,34,1,48,45,839308588
78,5,23,Ticks_Phase_5,35,5,42,127,839319096
78,5,23,Ticks_Phase_5,36,5,42,127,839818496
78,5,23,Ticks_Phase_5,37,1,48,46,839826788
78,5,23,Ticks_Phase_5,38,5,42,127,840319380
78,5,23,Ticks_Phase_5,39,1,48,48,840322500
78,5,23,Ticks_Phase_5,40,1,48,47,840809676
78,5,23,Ticks_Phase_5,41,5,42,127,840819136
78,5,23,Ticks_Phase_5,42,5,42,127,841318980
78,5,23,Ticks_Phase_5,43,1,48,49,841332356
78,5,23,Ticks_Phase_5,44,5,42,127,841818372
78,5,23,Ticks_Phase_5,45,1,48,46,841823956
78,5,23,Ticks_Phase_5,46,1,48,43,842314796
78,5,23,Ticks_Phase_5,47,5,42,127,842319100
78,5,23,Ticks_Phase_5,48,5,42,127,842819020
78,5,23,Ticks_Phase_5,49,1,48,48,842868496
78,5,23,Ticks_Phase_5,50,5,42,127,843318856
78,5,23,Ticks_Phase_5,51,1,48,51,843321676
78,5,23,Ticks_Phase_5,52,5,42,127,843819368
78,5,23,Ticks_Phase_5,53,1,48,49,843836408
78,5,23,Ticks_Phase_5,54,1,48,43,844297832
78,5,23,Ticks_Phase_5,55,5,42,127,844319124
78,5,23,Ticks_Phase_5,56,5,42,127,844808784
78,5,23,Ticks_Phase_5,57,1,48,51,844820820
78,5,23,Ticks_Phase_5,58,5,42,127,845309300
78,5,23,Ticks_Phase_5,59,1,48,48,845334132
78,5,23,Ticks_Phase_5,60,5,42,127,845809040
78,5,23,Ticks_Phase_5,61,1,48,52,845821616
78,5,23,Ticks_Phase_5,62,5,42,127,846308800
78,5,23,Ticks_Phase_5,63,1,48,45,846320456
78,5,23,Ticks_Phase_5,64,5,42,127,846808488
78,5,23,Ticks_Phase_5,65,1,48,51,846820292
78,5,23,Ticks_Phase_5,66,5,42,127,847309220
78,5,23,Ticks_Phase_5,67,1,48,48,847320284
78,5,23,Ticks_Phase_5,68,5,42,127,847808984
78,5,23,Ticks_Phase_5,69,1,48,48,847815316
78,5,23,Ticks_Phase_5,70,5,42,127,848308672
78,5,23,Ticks_Phase_5,71,1,48,52,848326236
78,5,23,Ticks_Phase_5,72,5,42,127,848809332
78,5,23,Ticks_Phase_5,73,1,48,46,848814172
78,5,23,Ticks_Phase_5,74,5,42,127,849309020
78,5,23,Ticks_Phase_5,75,1,48,49,849311688
78,5,23,Ticks_Phase_5,76,1,48,51,849801032
78,5,23,Ticks_Phase_5,77,5,42,127,849808780
78,5,23,Ticks_Phase_5,78,5,42,127,850308324
78,5,23,Ticks_Phase_5,79,1,48,50,850309292
78,5,23,Ticks_Phase_5,80,5,42,127,850809060
78,5,23,Ticks_Phase_5,81,1,48,47,850822660
78,5,23,Ticks_Phase_5,82,5,42,127,851308896
78,5,23,Ticks_Phase_5,83,1,48,51,851318608
78,5,23,Ticks_Phase_5,84,1,48,45,851807760
78,5,23,Ticks_Phase_5,85,5,42,127,851809248
78,5,23,Ticks_Phase_5,86,1,48,51,852297532
78,5,23,Ticks_Phase_5,87,5,42,127,852309388
78,5,23,Ticks_Phase_5,88,5,42,127,852809012
78,5,23,Ticks_Phase_5,89,1,48,46,852824852
78,5,23,Ticks_Phase_5,90,5,42,127,853308848
78,5,23,Ticks_Phase_5,91,1,48,50,853322828
78,5,23,Ticks_Phase_5,92,1,48,48,853813212
78,5,23,Ticks_Phase_5,93,5,42,127,853818716
78,5,23,Ticks_Phase_5,94,1,48,44,854318632
78,5,23,Ticks_Phase_5,95,5,42,127,854319820
78,5,23,Ticks_Phase_5,96,1,48,47,854819444
78,5,23,Ticks_Phase_5,97,5,42,127,854820704
78,5,23,Ticks_Phase_5,98,5,42,127,855318760
78,5,23,Ticks_Phase_5,99,1,48,54,855338804
78,5,23,Ticks_Phase_5,100,1,48,51,855803652
78,5,23,Ticks_Phase_5,101,5,42,127,855818664
78,5,23,Ticks_Phase_5,102,1,48,46,856315544
78,5,23,Ticks_Phase_5,103,5,42,127,856319248
78,5,23,Ticks_Phase_5,104,5,42,127,856819068
78,5,23,Ticks_Phase_5,105,1,48,52,856829180
78,5,23,Ticks_Phase_5,106,5,42,127,857318904
78,5,23,Ticks_Phase_5,107,1,48,37,857336172
78,5,23,Ticks_Phase_5,108,5,42,127,857818668
78,5,23,Ticks_Phase_5,109,1,48,36,857822760
78,5,23,Ticks_Phase_5,110,1,48,54,858306400
78,5,23,Ticks_Phase_5,111,5,42,127,858319320
78,5,23,Ticks_Phase_5,112,1,48,52,858810068
78,5,23,Ticks_Phase_5,113,5,42,127,858818788
78,5,23,Ticks_Phase_5,114,1,48,48,859303908
78,5,23,Ticks_Phase_5,115,5,42,127,859318624
78,5,23,Ticks_Phase_5,116,1,48,54,859818840
78,5,23,Ticks_Phase_5,117,5,42,127,859820408
78,5,23,Ticks_Phase_5,118,5,42,127,860319056
78,5,23,Ticks_Phase_5,119,1,48,47,860326064
78,5,23,Ticks_Phase_5,120,1,48,51,860799908
78,5,23,Ticks_Phase_5,121,5,42,127,860818736
78,5,23,Ticks_Phase_5,122,5,42,127,861318508
78,5,23,Ticks_Phase_5,123,1,48,51,861319472
78,5,23,Ticks_Phase_5,124,1,48,39,861754872
78,5,23,Ticks_Phase_5,125,1,48,28,861818588
78,5,23,Ticks_Phase_5,126,5,42,127,861838760
78,5,23,Ticks_Phase_5,127,1,48,39,862262028
78,5,23,Ticks_Phase_5,128,5,42,127,862338520
78,5,23,Ticks_Phase_5,129,1,48,40,862793020
78,5,23,Ticks_Phase_5,130,5,42,127,862839032
78,5,23,Ticks_Phase_5,131,1,48,41,863333292
78,5,23,Ticks_Phase_5,132,5,42,127,863338724
78,5,23,Ticks_Phase_5,133,5,42,127,863838492
78,5,23,Ticks_Phase_5,134,1,48,38,863868124
78,5,23,Ticks_Phase_5,135,5,42,127,864339524
78,5,23,Ticks_Phase_5,136,1,48,40,864341536
78,5,23,Ticks_Phase_5,137,5,42,127,864839136
78,5,23,Ticks_Phase_5,138,1,48,47,864844948
78,5,23,Ticks_Phase_5,139,1,48,44,865328460
78,5,23,Ticks_Phase_5,140,5,42,127,865338744
78,5,23,Ticks_Phase_5,141,5,42,127,865838440
78,5,23,Ticks_Phase_5,142,1,48,48,865842528
78,5,23,Ticks_Phase_5,143,5,42,127,866339320
78,5,23,Ticks_Phase_5,144,1,48,51,866349260
78,5,23,Ticks_Phase_5,145,1,48,48,866835672
78,5,23,Ticks_Phase_5,146,5,42,127,866838928
78,5,23,Ticks_Phase_5,147,1,48,46,867337568
78,5,23,Ticks_Phase_5,148,5,42,127,867339136
78,5,23,Ticks_Phase_5,149,5,42,127,867839356
78,5,23,Ticks_Phase_5,150,1,48,48,867846308
78,5,23,Ticks_Phase_5,151,5,42,127,868339024
78,5,23,Ticks_Phase_5,152,1,48,41,868349136
78,5,23,Ticks_Phase_5,153,1,48,46,868822420
78,5,23,Ticks_Phase_5,154,5,42,127,868838704
78,5,23,Ticks_Phase_5,155,5,42,127,869338400
78,5,23,Ticks_Phase_5,156,1,48,25,869366912
78,5,23,Ticks_Phase_5,157,5,42,127,869839356
78,5,23,Ticks_Phase_5,158,1,48,49,869842400
78,5,23,Ticks_Phase_5,159,5,42,127,870318528
78,5,23,Ticks_Phase_5,160,1,48,50,870338424
78,5,23,Ticks_Phase_5,161,1,48,47,870804464
78,5,23,Ticks_Phase_5,162,5,42,127,870819404
78,5,23,Ticks_Phase_5,163,1,48,48,871314864
78,5,23,Ticks_Phase_5,164,5,42,127,871318872
78,5,23,Ticks_Phase_5,165,1,48,47,871809616
78,5,23,Ticks_Phase_5,166,5,42,127,871818708
78,5,23,Ticks_Phase_5,167,1,48,46,872317784
78,5,23,Ticks_Phase_5,168,5,42,127,872319444
78,5,23,Ticks_Phase_5,169,1,48,48,872812136
78,5,23,Ticks_Phase_5,170,5,42,127,872818984
78,5,23,Ticks_Phase_5,171,1,48,43,873310628
78,5,23,Ticks_Phase_5,172,5,42,127,873318748
78,5,23,Ticks_Phase_5,173,1,48,49,873803420
78,5,23,Ticks_Phase_5,174,5,42,127,873818508
78,5,23,Ticks_Phase_5,175,5,42,127,874319252
78,5,23,Ticks_Phase_5,176,1,48,45,874338700
78,5,23,Ticks_Phase_5,177,5,42,127,874819016
78,5,23,Ticks_Phase_5,178,1,48,45,874850372
78,5,23,Ticks_Phase_5,179,1,48,45,875298900
78,5,23,Ticks_Phase_5,180,5,42,127,875318768
78,5,23,Ticks_Phase_5,181,1,48,51,875791468
78,5,23,Ticks_Phase_5,182,5,42,127,875819432
78,5,23,Ticks_Phase_5,183,1,48,47,876312124
78,5,23,Ticks_Phase_5,184,5,42,127,876319044
78,5,23,Ticks_Phase_5,185,1,48,47,876813228
78,5,23,Ticks_Phase_5,186,5,42,127,876818736
78,5,23,Ticks_Phase_5,187,1,48,50,877317528
78,5,23,Ticks_Phase_5,188,5,42,127,877319092
78,5,23,Ticks_Phase_5,189,1,48,49,877783752
78,5,23,Ticks_Phase_5,190,5,42,127,877819308
78,5,23,Ticks_Phase_5,191,5,42,127,878268804
78,5,23,Ticks_Phase_5,192,1,48,46,878324636
78,5,23,Ticks_Phase_5,193,5,42,127,878768564
78,5,23,Ticks_Phase_5,194,1,48,51,878815712
78,5,23,Ticks_Phase_5,195,5,42,127,879269376
78,5,23,Ticks_Phase_5,196,1,48,47,879275488
78,5,23,Ticks_Phase_5,197,1,48,49,879761016
78,5,23,Ticks_Phase_5,198,5,42,127,879768984
78,5,23,Ticks_Phase_5,199,1,48,48,880268308
78,5,23,Ticks_Phase_5,200,5,42,127,880269868
78,5,23,Ticks_Phase_5,201,1,48,46,880768356
78,5,23,Ticks_Phase_5,202,5,42,127,880769928
78,5,23,Ticks_Phase_5,203,1,48,43,881266360
78,5,23,Ticks_Phase_5,204,5,42,127,881269172
78,5,23,Ticks_Phase_5,205,1,48,43,881746956
78,5,23,Ticks_Phase_5,206,5,42,127,881768860
78,5,23,Ticks_Phase_5,207,5,42,127,882268628
78,5,23,Ticks_Phase_5,208,1,48,38,882283348
78,5,23,Ticks_Phase_5,209,1,48,44,882755768
78,5,23,Ticks_Phase_5,210,5,42,127,882769284
78,5,23,Ticks_Phase_5,211,1,48,48,883249324
78,5,23,Ticks_Phase_5,212,5,42,127,883269120
78,5,23,Ticks_Phase_5,213,1,48,43,883744812
78,5,23,Ticks_Phase_5,214,5,42,127,883768584
78,5,23,Ticks_Phase_5,215,1,48,46,884265388
78,5,23,Ticks_Phase_5,216,5,42,127,884269616
78,5,23,Ticks_Phase_5,217,5,42,127,884779496
78,5,23,Ticks_Phase_5,218,1,48,45,884782688
78,5,23,Ticks_Phase_5,219,1,48,42,885262600
78,5,23,Ticks_Phase_5,220,5,42,127,885279252
78,5,23,Ticks_Phase_5,221,5,42,127,885778876
78,5,23,Ticks_Phase_5,222,1,48,49,885786868
78,5,23,Ticks_Phase_5,223,5,42,127,886278564
78,5,23,Ticks_Phase_5,224,1,48,46,886281832
78,5,23,Ticks_Phase_5,225,1,48,46,886767560
78,5,23,Ticks_Phase_5,226,5,42,127,886829392
78,5,23,Ticks_Phase_5,227,1,48,39,887319692
78,5,23,Ticks_Phase_5,228,5,42,127,887339416
78,5,23,Ticks_Phase_5,229,1,48,41,887831060
78,5,23,Ticks_Phase_5,230,5,42,127,887839028
78,5,23,Ticks_Phase_5,231,5,42,127,888338800
78,5,23,Ticks_Phase_5,232,1,48,42,888343336
78,5,23,Ticks_Phase_5,233,5,42,127,888838488
78,5,23,Ticks_Phase_5,234,1,48,41,888846928
78,5,23,Ticks_Phase_5,235,1,48,41,889325900
78,5,23,Ticks_Phase_5,236,5,42,127,889339216
78,5,23,Ticks_Phase_5,237,1,48,46,889829336
78,5,23,Ticks_Phase_5,238,5,42,127,889838952
78,5,23,Ticks_Phase_5,239,1,48,43,890322060
78,5,23,Ticks_Phase_5,240,5,42,127,890338788
78,5,23,Ticks_Phase_5,241,1,48,40,890838932
78,5,23,Ticks_Phase_5,242,5,42,127,890840272
78,5,23,Ticks_Phase_5,243,1,48,46,891330048
78,5,23,Ticks_Phase_5,244,5,42,127,891339064
78,5,23,Ticks_Phase_5,245,1,48,46,891837168
78,5,23,Ticks_Phase_5,246,5,42,127,891838752
78,5,23,Ticks_Phase_5,247,1,48,40,892318344
78,5,23,Ticks_Phase_5,248,5,42,127,892338664
78,5,23,Ticks_Phase_5,249,1,48,41,892831132
78,5,23,Ticks_Phase_5,250,5,42,127,892839176
78,5,23,Ticks_Phase_5,251,5,42,127,893339096
78,5,23,Ticks_Phase_5,252,1,48,46,893360112
78,5,23,Ticks_Phase_5,253,1,48,43,893824292
78,5,23,Ticks_Phase_5,254,5,42,127,893838852
78,5,23,Ticks_Phase_5,255,1,48,46,894321284
78,5,23,Ticks_Phase_5,256,5,42,127,894338464
78,5,23,Ticks_Phase_5,257,5,42,127,894839060
78,5,23,Ticks_Phase_5,258,1,48,45,894843076
78,5,23,Ticks_Phase_5,259,1,48,45,895333912
78,5,23,Ticks_Phase_5,260,5,42,127,895439224
78,5,23,Ticks_Phase_5,261,1,48,32,895927292
78,5,23,Ticks_Phase_5,262,5,42,127,895939224
78,5,23,Ticks_Phase_5,263,1,48,43,896419788
78,5,23,Ticks_Phase_5,264,5,42,127,896438616
78,5,23,Ticks_Phase_5,265,1,48,51,896928464
78,5,23,Ticks_Phase_5,266,5,42,127,896939352
78,5,23,Ticks_Phase_5,267,1,48,49,897433240
78,5,23,Ticks_Phase_5,268,5,42,127,897439116
78,5,23,Ticks_Phase_5,269,1,48,44,897910384
78,5,23,Ticks_Phase_5,270,5,42,127,897939096
78,5,23,Ticks_Phase_5,271,1,48,42,898433208
78,5,23,Ticks_Phase_5,272,5,42,127,898438484
78,5,23,Ticks_Phase_5,273,1,48,43,898935512
78,5,23,Ticks_Phase_5,274,5,42,127,898939292
78,5,23,Ticks_Phase_5,275,5,42,127,899439136
78,5,23,Ticks_Phase_5,276,1,48,46,899455580
78,5,23,Ticks_Phase_5,277,1,48,40,899908536
78,5,23,Ticks_Phase_5,278,5,42,127,899938668
78,5,23,Ticks_Phase_5,279,5,42,127,900439340
78,5,23,Ticks_Phase_5,280,1,48,43,900440304
78,5,23,Ticks_Phase_5,281,5,42,127,900939176
78,5,23,Ticks_Phase_5,282,1,48,46,900940292
78,5,23,Ticks_Phase_5,283,1,48,48,901432980
78,5,23,Ticks_Phase_5,284,5,42,127,901439080
78,5,23,Ticks_Phase_5,285,1,48,48,901934764
78,5,23,Ticks_Phase_5,286,5,42,127,901938472
78,5,23,Ticks_Phase_5,287,1,48,44,902432508
78,5,23,Ticks_Phase_5,288,5,42,127,902439356
78,5,23,Ticks_Phase_5,289,5,42,127,902938976
78,5,23,Ticks_Phase_5,290,1,48,43,902947048
78,5,23,Ticks_Phase_5,291,1,48,48,903438664
78,5,23,Ticks_Phase_5,292,5,42,127,903440076
78,5,23,Ticks_Phase_5,293,1,48,43,903936232
78,5,23,Ticks_Phase_5,294,5,42,127,903938344
78,5,23,Ticks_Phase_5,295,5,42,127,904439212
78,5,23,Ticks_Phase_5,296,1,48,47,904454008
78,5,23,Ticks_Phase_5,297,5,42,127,904838452
78,5,23,Ticks_Phase_5,298,1,48,48,904919084
78,5,23,Ticks_Phase_5,299,5,42,127,905339260
78,5,23,Ticks_Phase_5,300,1,48,48,905352416
78,5,23,Ticks_Phase_5,301,1,48,45,905832920
78,5,23,Ticks_Phase_5,302,5,42,127,905838868
78,5,23,Ticks_Phase_5,303,5,42,127,906338712
78,5,23,Ticks_Phase_5,304,1,48,42,906342728
78,5,23,Ticks_Phase_5,305,5,42,127,906839300
78,5,23,Ticks_Phase_5,306,1,48,48,906840264
78,5,23,Ticks_Phase_5,307,1,48,42,907327944
78,5,23,Ticks_Phase_5,308,5,42,127,907339128
78,5,23,Ticks_Phase_5,309,1,48,46,907818048
78,5,23,Ticks_Phase_5,310,5,42,127,907838816
78,5,23,Ticks_Phase_5,311,1,48,43,908309868
78,5,23,Ticks_Phase_5,312,5,42,127,908338728
78,5,23,Ticks_Phase_5,313,5,42,127,908839244
78,5,23,Ticks_Phase_5,314,1,48,44,908846268
78,5,23,Ticks_Phase_5,315,5,42,127,909339008
78,5,23,Ticks_Phase_5,316,1,48,46,909342128
78,5,23,Ticks_Phase_5,317,5,42,127,909838848
78,5,23,Ticks_Phase_5,318,1,48,41,909867048
78,5,23,Ticks_Phase_5,319,1,48,48,910333696
78,5,23,Ticks_Phase_5,320,5,42,127,910338600
78,5,23,Ticks_Phase_5,321,1,48,46,910830676
78,5,23,Ticks_Phase_5,322,5,42,127,910839088
78,5,23,Ticks_Phase_5,323,5,42,127,911339060
78,5,23,Ticks_Phase_5,324,1,48,44,911351712
78,5,23,Ticks_Phase_5,325,1,48,43,911814588
78,5,23,Ticks_Phase_5,326,5,42,127,911838816
78,5,23,Ticks_Phase_5,327,5,42,127,912339260
78,5,23,Ticks_Phase_5,328,1,48,45,912367624
78,5,23,Ticks_Phase_5,329,5,42,127,912839092
78,5,23,Ticks_Phase_5,330,1,48,35,912854416
78,5,23,Ticks_Phase_5,331,1,48,46,913325780
78,5,23,Ticks_Phase_5,332,5,42,127,913338924
78,5,23,Ticks_Phase_5,333,5,42,127,913838844
78,5,23,Ticks_Phase_5,334,1,48,46,913848484
78,5,23,Ticks_Phase_5,335,5,42,127,914339056
78,5,23,Ticks_Phase_5,0,9999,9999,9999,829816924
78,5,23,Ticks_Phase_5,1,9999,9999,9999,830316636
78,5,23,Ticks_Phase_5,2,9999,9999,9999,830816348
78,5,23,Ticks_Phase_5,3,9999,9999,9999,831317104
78,5,23,Ticks_Phase_5,4,9999,9999,9999,831816808
78,5,23,Ticks_Phase_5,5,9999,9999,9999,832316496
78,5,23,Ticks_Phase_5,6,9999,9999,9999,832816188
78,5,23,Ticks_Phase_5,7,9999,9999,9999,833316924
78,5,23,Ticks_Phase_5,8,9999,9999,9999,833816688
78,5,23,Ticks_Phase_5,9,9999,9999,9999,834316376
78,5,23,Ticks_Phase_5,10,9999,9999,9999,834816056
78,5,23,Ticks_Phase_5,11,9999,9999,9999,835316840
78,5,23,Ticks_Phase_5,12,9999,9999,9999,835816528
78,5,23,Ticks_Phase_5,13,9999,9999,9999,836316216
78,5,23,Ticks_Phase_5,14,9999,9999,9999,836816956
78,5,23,Ticks_Phase_5,15,9999,9999,9999,837316720
78,5,23,Ticks_Phase_5,16,9999,9999,9999,837816408
78,5,23,Ticks_Phase_5,17,9999,9999,9999,838316088
78,5,23,Ticks_Phase_5,18,9999,9999,9999,838816824
78,5,23,Ticks_Phase_5,19,9999,9999,9999,839316588
78,5,23,Ticks_Phase_5,20,9999,9999,9999,839816284
78,5,23,Ticks_Phase_5,21,9999,9999,9999,840317020
78,5,23,Ticks_Phase_5,22,9999,9999,9999,840816700
78,5,23,Ticks_Phase_5,23,9999,9999,9999,841316468
78,5,23,Ticks_Phase_5,24,9999,9999,9999,841816160
78,5,23,Ticks_Phase_5,25,9999,9999,9999,842316888
78,5,23,Ticks_Phase_5,26,9999,9999,9999,842816584
78,5,23,Ticks_Phase_5,27,9999,9999,9999,843316344
78,5,23,Ticks_Phase_5,28,9999,9999,9999,843817080
78,5,23,Ticks_Phase_5,29,9999,9999,9999,844316764
78,5,23,Ticks_Phase_5,30,9999,9999,9999,844806272
78,5,23,Ticks_Phase_5,31,9999,9999,9999,845306936
78,5,23,Ticks_Phase_5,32,9999,9999,9999,845806676
78,5,23,Ticks_Phase_5,33,9999,9999,9999,846306364
78,5,23,Ticks_Phase_5,34,9999,9999,9999,846806128
78,5,23,Ticks_Phase_5,35,9999,9999,9999,847306860
78,5,23,Ticks_Phase_5,36,9999,9999,9999,847806548
78,5,23,Ticks_Phase_5,37,9999,9999,9999,848306240
78,5,23,Ticks_Phase_5,38,9999,9999,9999,848806972
78,5,23,Ticks_Phase_5,39,9999,9999,9999,849306736
78,5,23,Ticks_Phase_5,40,9999,9999,9999,849806416
78,5,23,Ticks_Phase_5,41,9999,9999,9999,850306112
78,5,23,Ticks_Phase_5,42,9999,9999,9999,850806848
78,5,23,Ticks_Phase_5,43,9999,9999,9999,851306608
78,5,23,Ticks_Phase_5,44,9999,9999,9999,851806300
78,5,23,Ticks_Phase_5,45,9999,9999,9999,852307028
78,5,23,Ticks_Phase_5,46,9999,9999,9999,852806724
78,5,23,Ticks_Phase_5,47,9999,9999,9999,853306488
78,5,23,Ticks_Phase_5,48,9999,9999,9999,853816428
78,5,23,Ticks_Phase_5,49,9999,9999,9999,854316124
78,5,23,Ticks_Phase_5,50,9999,9999,9999,854816860
78,5,23,Ticks_Phase_5,51,9999,9999,9999,855316548
78,5,23,Ticks_Phase_5,52,9999,9999,9999,855816304
78,5,23,Ticks_Phase_5,53,9999,9999,9999,856317036
78,5,23,Ticks_Phase_5,54,9999,9999,9999,856816708
78,5,23,Ticks_Phase_5,55,9999,9999,9999,857316468
78,5,23,Ticks_Phase_5,56,9999,9999,9999,857816156
78,5,23,Ticks_Phase_5,57,9999,9999,9999,858316884
78,5,23,Ticks_Phase_5,58,9999,9999,9999,858816576
78,5,23,Ticks_Phase_5,59,9999,9999,9999,859316336
78,5,23,Ticks_Phase_5,60,9999,9999,9999,859817080
78,5,23,Ticks_Phase_5,61,9999,9999,9999,860316768
78,5,23,Ticks_Phase_5,62,9999,9999,9999,860816452
78,5,23,Ticks_Phase_5,63,9999,9999,9999,861316220
78,5,23,Ticks_Phase_5,64,9999,9999,9999,861836400
78,5,23,Ticks_Phase_5,65,9999,9999,9999,862336088
78,5,23,Ticks_Phase_5,66,9999,9999,9999,862836820
78,5,23,Ticks_Phase_5,67,9999,9999,9999,863336508
78,5,23,Ticks_Phase_5,68,9999,9999,9999,863836276
78,5,23,Ticks_Phase_5,69,9999,9999,9999,864337012
78,5,23,Ticks_Phase_5,70,9999,9999,9999,864836700
78,5,23,Ticks_Phase_5,71,9999,9999,9999,865336384
78,5,23,Ticks_Phase_5,72,9999,9999,9999,865836152
78,5,23,Ticks_Phase_5,73,9999,9999,9999,866336884
78,5,23,Ticks_Phase_5,74,9999,9999,9999,866836568
78,5,23,Ticks_Phase_5,75,9999,9999,9999,867336264
78,5,23,Ticks_Phase_5,76,9999,9999,9999,867836996
78,5,23,Ticks_Phase_5,77,9999,9999,9999,868336736
78,5,23,Ticks_Phase_5,78,9999,9999,9999,868836416
78,5,23,Ticks_Phase_5,79,9999,9999,9999,869336184
78,5,23,Ticks_Phase_5,80,9999,9999,9999,869836920
78,5,23,Ticks_Phase_5,81,9999,9999,9999,870316092
78,5,23,Ticks_Phase_5,82,9999,9999,9999,870816896
78,5,23,Ticks_Phase_5,83,9999,9999,9999,871316584
78,5,23,Ticks_Phase_5,84,9999,9999,9999,871816272
78,5,23,Ticks_Phase_5,85,9999,9999,9999,872317012
78,5,23,Ticks_Phase_5,86,9999,9999,9999,872816696
78,5,23,Ticks_Phase_5,87,9999,9999,9999,873316460
78,5,23,Ticks_Phase_5,88,9999,9999,9999,873816148
78,5,23,Ticks_Phase_5,89,9999,9999,9999,874316888
78,5,23,Ticks_Phase_5,90,9999,9999,9999,874816580
78,5,23,Ticks_Phase_5,91,9999,9999,9999,875316336
78,5,23,Ticks_Phase_5,92,9999,9999,9999,875817068
78,5,23,Ticks_Phase_5,93,9999,9999,9999,876316760
78,5,23,Ticks_Phase_5,94,9999,9999,9999,876816448
78,5,23,Ticks_Phase_5,95,9999,9999,9999,877316216
78,5,23,Ticks_Phase_5,96,9999,9999,9999,877816944
78,5,23,Ticks_Phase_5,97,9999,9999,9999,878266440
78,5,23,Ticks_Phase_5,98,9999,9999,9999,878766204
78,5,23,Ticks_Phase_5,99,9999,9999,9999,879266940
78,5,23,Ticks_Phase_5,100,9999,9999,9999,879766624
78,5,23,Ticks_Phase_5,101,9999,9999,9999,880266316
78,5,23,Ticks_Phase_5,102,9999,9999,9999,880767052
78,5,23,Ticks_Phase_5,103,9999,9999,9999,881266808
78,5,23,Ticks_Phase_5,104,9999,9999,9999,881766500
78,5,23,Ticks_Phase_5,105,9999,9999,9999,882266192
78,5,23,Ticks_Phase_5,106,9999,9999,9999,882766920
78,5,23,Ticks_Phase_5,107,9999,9999,9999,883266684
78,5,23,Ticks_Phase_5,108,9999,9999,9999,883766372
78,5,23,Ticks_Phase_5,109,9999,9999,9999,884267108
78,5,23,Ticks_Phase_5,110,9999,9999,9999,884777060
78,5,23,Ticks_Phase_5,111,9999,9999,9999,885276744
78,5,23,Ticks_Phase_5,112,9999,9999,9999,885776512
78,5,23,Ticks_Phase_5,113,9999,9999,9999,886276200
78,5,23,Ticks_Phase_5,114,9999,9999,9999,886827104
78,5,23,Ticks_Phase_5,115,9999,9999,9999,887337056
78,5,23,Ticks_Phase_5,116,9999,9999,9999,887836740
78,5,23,Ticks_Phase_5,117,9999,9999,9999,888336512
78,5,23,Ticks_Phase_5,118,9999,9999,9999,888836200
78,5,23,Ticks_Phase_5,119,9999,9999,9999,889336928
78,5,23,Ticks_Phase_5,120,9999,9999,9999,889836664
78,5,23,Ticks_Phase_5,121,9999,9999,9999,890336356
78,5,23,Ticks_Phase_5,122,9999,9999,9999,890837096
78,5,23,Ticks_Phase_5,123,9999,9999,9999,891336776
78,5,23,Ticks_Phase_5,124,9999,9999,9999,891836480
78,5,23,Ticks_Phase_5,125,9999,9999,9999,892336228
78,5,23,Ticks_Phase_5,126,9999,9999,9999,892836964
78,5,23,Ticks_Phase_5,127,9999,9999,9999,893336660
78,5,23,Ticks_Phase_5,128,9999,9999,9999,893836416
78,5,23,Ticks_Phase_5,129,9999,9999,9999,894336104
78,5,23,Ticks_Phase_5,130,9999,9999,9999,894836844
78,5,23,Ticks_Phase_5,131,9999,9999,9999,895436864
78,5,23,Ticks_Phase_5,132,9999,9999,9999,895936640
78,5,23,Ticks_Phase_5,133,9999,9999,9999,896436332
78,5,23,Ticks_Phase_5,134,9999,9999,9999,896937064
78,5,23,Ticks_Phase_5,135,9999,9999,9999,897436752
78,5,23,Ticks_Phase_5,136,9999,9999,9999,897936512
78,5,23,Ticks_Phase_5,137,9999,9999,9999,898436196
78,5,23,Ticks_Phase_5,138,9999,9999,9999,898936932
78,5,23,Ticks_Phase_5,139,9999,9999,9999,899436628
78,5,23,Ticks_Phase_5,140,9999,9999,9999,899936384
78,5,23,Ticks_Phase_5,141,9999,9999,9999,900437052
78,5,23,Ticks_Phase_5,142,9999,9999,9999,900936816
78,5,23,Ticks_Phase_5,143,9999,9999,9999,901436496
78,5,23,Ticks_Phase_5,144,9999,9999,9999,901936184
78,5,23,Ticks_Phase_5,145,9999,9999,9999,902436992
78,5,23,Ticks_Phase_5,146,9999,9999,9999,902936688
78,5,23,Ticks_Phase_5,147,9999,9999,9999,903436380
78,5,23,Ticks_Phase_5,148,9999,9999,9999,903936096
78,5,23,Ticks_Phase_5,149,9999,9999,9999,904436848
78,5,23,Ticks_Phase_5,150,9999,9999,9999,904836164
78,5,23,Ticks_Phase_5,151,9999,9999,9999,905336900
78,5,23,Ticks_Phase_5,152,9999,9999,9999,905836656
78,5,23,Ticks_Phase_5,153,9999,9999,9999,906336348
78,5,23,Ticks_Phase_5,154,9999,9999,9999,906837084
78,5,23,Ticks_Phase_5,155,9999,9999,9999,907336768
78,5,23,Ticks_Phase_5,156,9999,9999,9999,907836528
78,5,23,Ticks_Phase_5,157,9999,9999,9999,908336216
78,5,23,Ticks_Phase_5,158,9999,9999,9999,908836960
78,5,23,Ticks_Phase_5,159,9999,9999,9999,909336648
78,5,23,Ticks_Phase_5,160,9999,9999,9999,909836412
78,5,23,Ticks_Phase_5,161,9999,9999,9999,910336092
78,5,23,Ticks_Phase_5,162,9999,9999,9999,910836804
78,5,23,Ticks_Phase_5,163,9999,9999,9999,911336548
78,5,23,Ticks_Phase_5,164,9999,9999,9999,911836232
78,5,23,Ticks_Phase_5,165,9999,9999,9999,912336972
78,5,23,Ticks_Phase_5,166,9999,9999,9999,912836732
78,5,23,Ticks_Phase_5,167,9999,9999,9999,913336416
78,5,23,Ticks_Phase_5,168,9999,9999,9999,913836108
78,5,23,Ticks_Phase_5,169,9999,9999,9999,914336844
78,6,22,Ticks_Phase_8,0,5,42,127,926352748
78,6,22,Ticks_Phase_8,1,5,42,127,927152556
78,6,22,Ticks_Phase_8,2,5,42,127,927953408
78,6,22,Ticks_Phase_8,3,5,42,127,928753068
78,6,22,Ticks_Phase_8,4,5,42,127,929552680
78,6,22,Ticks_Phase_8,5,1,48,43,929554016
78,6,22,Ticks_Phase_8,6,5,42,127,930352464
78,6,22,Ticks_Phase_8,7,1,48,38,930378948
78,6,22,Ticks_Phase_8,8,5,42,127,931153372
78,6,22,Ticks_Phase_8,9,1,48,36,931165332
78,6,22,Ticks_Phase_8,10,5,42,127,931953084
78,6,22,Ticks_Phase_8,11,1,48,43,931970128
78,6,22,Ticks_Phase_8,12,5,42,127,932752796
78,6,22,Ticks_Phase_8,13,1,48,40,932756964
78,6,22,Ticks_Phase_8,14,5,42,127,933552432
78,6,22,Ticks_Phase_8,15,1,48,37,933563492
78,6,22,Ticks_Phase_8,16,5,42,127,934353488
78,6,22,Ticks_Phase_8,17,1,48,40,934367468
78,6,22,Ticks_Phase_8,18,1,48,40,935143208
78,6,22,Ticks_Phase_8,19,5,42,127,935152972
78,6,22,Ticks_Phase_8,20,5,42,127,935952860
78,6,22,Ticks_Phase_8,21,1,48,38,935957476
78,6,22,Ticks_Phase_8,22,5,42,127,936752424
78,6,22,Ticks_Phase_8,23,1,48,39,936769840
78,6,22,Ticks_Phase_8,24,5,42,127,937553628
78,6,22,Ticks_Phase_8,25,1,48,40,937556820
78,6,22,Ticks_Phase_8,26,5,42,127,938353116
78,6,22,Ticks_Phase_8,27,1,48,40,938374808
78,6,22,Ticks_Phase_8,28,5,42,127,939152608
78,6,22,Ticks_Phase_8,29,1,48,39,939153572
78,6,22,Ticks_Phase_8,30,5,42,127,939952540
78,6,22,Ticks_Phase_8,31,1,48,43,939955212
78,6,22,Ticks_Phase_8,32,5,42,127,940753524
78,6,22,Ticks_Phase_8,33,1,48,43,940775216
78,6,22,Ticks_Phase_8,34,1,48,41,941549676
78,6,22,Ticks_Phase_8,35,5,42,127,941553004
78,6,22,Ticks_Phase_8,36,1,48,43,942343052
78,6,22,Ticks_Phase_8,37,5,42,127,942352892
78,6,22,Ticks_Phase_8,38,1,48,40,943144708
78,6,22,Ticks_Phase_8,39,5,42,127,943152528
78,6,22,Ticks_Phase_8,40,1,48,45,943949360
78,6,22,Ticks_Phase_8,41,5,42,127,943953360
78,6,22,Ticks_Phase_8,42,5,42,127,944753304
78,6,22,Ticks_Phase_8,43,1,48,41,944771632
78,6,22,Ticks_Phase_8,44,5,42,127,945552716
78,6,22,Ticks_Phase_8,45,1,48,44,945566316
78,6,22,Ticks_Phase_8,46,5,42,127,946352352
78,6,22,Ticks_Phase_8,47,1,48,39,946385648
78,6,22,Ticks_Phase_8,48,5,42,127,947153260
78,6,22,Ticks_Phase_8,49,1,48,43,947172332
78,6,22,Ticks_Phase_8,50,5,42,127,947953192
78,6,22,Ticks_Phase_8,51,1,48,46,947974984
78,6,22,Ticks_Phase_8,52,1,48,42,948742640
78,6,22,Ticks_Phase_8,53,5,42,127,948752924
78,6,22,Ticks_Phase_8,54,1,48,43,949551516
78,6,22,Ticks_Phase_8,55,5,42,127,949553236
78,6,22,Ticks_Phase_8,56,5,42,127,950332812
78,6,22,Ticks_Phase_8,57,1,48,40,950394192
78,6,22,Ticks_Phase_8,58,5,42,127,951132448
78,6,22,Ticks_Phase_8,59,1,48,44,951141864
78,6,22,Ticks_Phase_8,60,1,48,44,951905984
78,6,22,Ticks_Phase_8,61,5,42,127,951933424
78,6,22,Ticks_Phase_8,62,1,48,44,952729356
78,6,22,Ticks_Phase_8,63,5,42,127,952733064
78,6,22,Ticks_Phase_8,64,5,42,127,953532928
78,6,22,Ticks_Phase_8,65,1,48,40,953549224
78,6,22,Ticks_Phase_8,66,5,42,127,954332564
78,6,22,Ticks_Phase_8,67,1,48,37,954364020
78,6,22,Ticks_Phase_8,68,1,48,47,955120324
78,6,22,Ticks_Phase_8,69,5,42,127,955133268
78,6,22,Ticks_Phase_8,70,5,42,127,955932984
78,6,22,Ticks_Phase_8,71,1,48,40,955946584
78,6,22,Ticks_Phase_8,72,5,42,127,956732920
78,6,22,Ticks_Phase_8,73,1,48,41,956756632
78,6,22,Ticks_Phase_8,74,1,48,40,957530892
78,6,22,Ticks_Phase_8,75,5,42,127,957532476
78,6,22,Ticks_Phase_8,76,5,42,127,958333316
78,6,22,Ticks_Phase_8,77,1,48,39,958335980
78,6,22,Ticks_Phase_8,78,1,48,38,959115016
78,6,22,Ticks_Phase_8,79,5,42,127,959133020
78,6,22,Ticks_Phase_8,80,5,42,127,959932960
78,6,22,Ticks_Phase_8,81,1,48,55,960697308
78,6,22,Ticks_Phase_8,82,5,42,127,960732464
78,6,22,Ticks_Phase_8,83,1,48,54,961477324
78,6,22,Ticks_Phase_8,84,5,42,127,961533248
78,6,22,Ticks_Phase_8,85,1,48,46,962329780
78,6,22,Ticks_Phase_8,86,5,42,127,962333184
78,6,22,Ticks_Phase_8,87,1,48,46,963116540
78,6,22,Ticks_Phase_8,88,5,42,127,963132896
78,6,22,Ticks_Phase_8,89,1,48,46,963921052
78,6,22,Ticks_Phase_8,90,5,42,127,963932608
78,6,22,Ticks_Phase_8,91,1,48,51,964729212
78,6,22,Ticks_Phase_8,92,5,42,127,964752688
78,6,22,Ticks_Phase_8,93,1,48,48,965546600
78,6,22,Ticks_Phase_8,94,5,42,127,965552400
78,6,22,Ticks_Phase_8,95,5,42,127,966353168
78,6,22,Ticks_Phase_8,96,1,48,46,966370968
78,6,22,Ticks_Phase_8,97,5,42,127,967152952
78,6,22,Ticks_Phase_8,98,1,48,43,967156616
78,6,22,Ticks_Phase_8,99,5,42,127,967952688
78,6,22,Ticks_Phase_8,100,1,48,47,967964344
78,6,22,Ticks_Phase_8,101,5,42,127,968752476
78,6,22,Ticks_Phase_8,102,1,48,48,968761288
78,6,22,Ticks_Phase_8,103,1,48,43,969543312
78,6,22,Ticks_Phase_8,104,5,42,127,969553152
78,6,22,Ticks_Phase_8,105,1,48,49,970340400
78,6,22,Ticks_Phase_8,106,5,42,127,970353012
78,6,22,Ticks_Phase_8,107,5,42,127,971152880
78,6,22,Ticks_Phase_8,108,1,48,50,971158096
78,6,22,Ticks_Phase_8,109,1,48,48,971949704
78,6,22,Ticks_Phase_8,110,5,42,127,971952364
78,6,22,Ticks_Phase_8,111,5,42,127,972753200
78,6,22,Ticks_Phase_8,112,1,48,50,972758936
78,6,22,Ticks_Phase_8,113,1,48,48,973549652
78,6,22,Ticks_Phase_8,114,5,42,127,973552980
78,6,22,Ticks_Phase_8,115,5,42,127,974352872
78,6,22,Ticks_Phase_8,116,1,48,43,974373740
78,6,22,Ticks_Phase_8,117,5,42,127,975152436
78,6,22,Ticks_Phase_8,118,1,48,45,975167984
78,6,22,Ticks_Phase_8,119,1,48,51,975944996
78,6,22,Ticks_Phase_8,120,5,42,127,975953260
78,6,22,Ticks_Phase_8,121,5,42,127,976752904
78,6,22,Ticks_Phase_8,122,1,48,42,976758044
78,6,22,Ticks_Phase_8,123,1,48,50,977537896
78,6,22,Ticks_Phase_8,124,5,42,127,977592676
78,6,22,Ticks_Phase_8,125,1,48,42,978390500
78,6,22,Ticks_Phase_8,126,5,42,127,978392460
78,6,22,Ticks_Phase_8,127,5,42,127,979193104
78,6,22,Ticks_Phase_8,128,1,48,40,979212100
78,6,22,Ticks_Phase_8,129,1,48,50,979988580
78,6,22,Ticks_Phase_8,130,5,42,127,979992880
78,6,22,Ticks_Phase_8,131,5,42,127,980792676
78,6,22,Ticks_Phase_8,132,1,48,46,980802384
78,6,22,Ticks_Phase_8,133,5,42,127,981592384
78,6,22,Ticks_Phase_8,134,1,48,43,981600680
78,6,22,Ticks_Phase_8,135,1,48,47,982380072
78,6,22,Ticks_Phase_8,136,5,42,127,982393288
78,6,22,Ticks_Phase_8,137,5,42,127,983192856
78,6,22,Ticks_Phase_8,138,1,48,43,983200164
78,6,22,Ticks_Phase_8,139,5,42,127,983992792
78,6,22,Ticks_Phase_8,140,1,48,43,984005872
78,6,22,Ticks_Phase_8,141,5,42,127,984792576
78,6,22,Ticks_Phase_8,142,1,48,41,984803564
78,6,22,Ticks_Phase_8,143,5,42,127,985593064
78,6,22,Ticks_Phase_8,144,1,48,46,985597752
78,6,22,Ticks_Phase_8,145,5,42,127,986392928
78,6,22,Ticks_Phase_8,146,1,48,44,986411020
78,6,22,Ticks_Phase_8,147,1,48,47,987166612
78,6,22,Ticks_Phase_8,148,5,42,127,987192708
78,6,22,Ticks_Phase_8,149,1,48,43,987986616
78,6,22,Ticks_Phase_8,150,5,42,127,987992492
78,6,22,Ticks_Phase_8,151,5,42,127,988793480
78,6,22,Ticks_Phase_8,152,1,48,45,988810764
78,6,22,Ticks_Phase_8,153,1,48,45,989587692
78,6,22,Ticks_Phase_8,154,5,42,127,989592964
78,6,22,Ticks_Phase_8,155,1,48,47,990382540
78,6,22,Ticks_Phase_8,156,5,42,127,990392676
78,6,22,Ticks_Phase_8,157,5,42,127,991152484
78,6,22,Ticks_Phase_8,158,1,48,40,991186824
78,6,22,Ticks_Phase_8,159,5,42,127,991953464
78,6,22,Ticks_Phase_8,160,1,48,46,991960336
78,6,22,Ticks_Phase_8,161,5,42,127,992752876
78,6,22,Ticks_Phase_8,162,1,48,44,992754740
78,6,22,Ticks_Phase_8,163,1,48,48,993544464
78,6,22,Ticks_Phase_8,164,5,42,127,993552728
78,6,22,Ticks_Phase_8,165,5,42,127,994352448
78,6,22,Ticks_Phase_8,166,1,48,43,994361788
78,6,22,Ticks_Phase_8,167,1,48,49,995147476
78,6,22,Ticks_Phase_8,168,5,42,127,995153348
78,6,22,Ticks_Phase_8,169,5,42,127,995953140
78,6,22,Ticks_Phase_8,170,1,48,48,995973268
78,6,22,Ticks_Phase_8,171,5,42,127,996752780
78,6,22,Ticks_Phase_8,172,1,48,46,996760700
78,6,22,Ticks_Phase_8,173,1,48,41,997542792
78,6,22,Ticks_Phase_8,174,5,42,127,997552408
78,6,22,Ticks_Phase_8,175,1,48,46,998351736
78,6,22,Ticks_Phase_8,176,5,42,127,998353464
78,6,22,Ticks_Phase_8,177,5,42,127,999152888
78,6,22,Ticks_Phase_8,178,1,48,48,999185208
78,6,22,Ticks_Phase_8,179,5,42,127,999952748
78,6,22,Ticks_Phase_8,180,1,48,46,999990472
78,6,22,Ticks_Phase_8,181,5,42,127,1000752532
78,6,22,Ticks_Phase_8,182,1,48,43,1000764492
78,6,22,Ticks_Phase_8,183,5,42,127,1001553440
78,6,22,Ticks_Phase_8,184,1,48,45,1001560760
78,6,22,Ticks_Phase_8,185,1,48,41,1002353300
78,6,22,Ticks_Phase_8,186,5,42,127,1002354564
78,6,22,Ticks_Phase_8,187,5,42,127,1003152864
78,6,22,Ticks_Phase_8,188,1,48,41,1003168188
78,6,22,Ticks_Phase_8,189,5,42,127,1003872820
78,6,22,Ticks_Phase_8,190,1,48,44,1003962136
78,6,22,Ticks_Phase_8,191,5,42,127,1004673356
78,6,22,Ticks_Phase_8,192,1,48,35,1004717736
78,6,22,Ticks_Phase_8,193,1,48,42,1005473064
78,6,22,Ticks_Phase_8,194,5,42,127,1005474328
78,6,22,Ticks_Phase_8,195,1,48,46,1006231108
78,6,22,Ticks_Phase_8,196,5,42,127,1006272844
78,6,22,Ticks_Phase_8,197,5,42,127,1007072564
78,6,22,Ticks_Phase_8,198,1,48,42,1007088936
78,6,22,Ticks_Phase_8,199,5,42,127,1007873496
78,6,22,Ticks_Phase_8,200,1,48,40,1007876168
78,6,22,Ticks_Phase_8,201,1,48,46,1008657524
78,6,22,Ticks_Phase_8,202,5,42,127,1008673204
78,6,22,Ticks_Phase_8,203,1,48,42,1009452296
78,6,22,Ticks_Phase_8,204,5,42,127,1009472768
78,6,22,Ticks_Phase_8,205,5,42,127,1010272636
78,6,22,Ticks_Phase_8,206,1,48,42,1010309228
78,6,22,Ticks_Phase_8,207,1,48,42,1011072188
78,6,22,Ticks_Phase_8,208,5,42,127,1011073684
78,6,22,Ticks_Phase_8,209,5,42,127,1011873328
78,6,22,Ticks_Phase_8,210,1,48,43,1011878468
78,6,22,Ticks_Phase_8,211,1,48,38,1012658024
78,6,22,Ticks_Phase_8,212,5,42,127,1012672740
78,6,22,Ticks_Phase_8,213,1,48,46,1013440136
78,6,22,Ticks_Phase_8,214,5,42,127,1013472600
78,6,22,Ticks_Phase_8,215,1,48,47,1014243676
78,6,22,Ticks_Phase_8,216,5,42,127,1014273312
78,6,22,Ticks_Phase_8,217,5,42,127,1015073252
78,6,22,Ticks_Phase_8,218,1,48,39,1015091128
78,6,22,Ticks_Phase_8,219,1,48,44,1015870844
78,6,22,Ticks_Phase_8,220,5,42,127,1015872884
78,6,22,Ticks_Phase_8,221,1,48,45,1016657288
78,6,22,Ticks_Phase_8,222,5,42,127,1016672596
78,6,22,Ticks_Phase_8,223,1,48,46,1017453780
78,6,22,Ticks_Phase_8,224,5,42,127,1017554288
78,6,22,Ticks_Phase_8,225,1,48,43,1018331380
78,6,22,Ticks_Phase_8,226,5,42,127,1018353120
78,6,22,Ticks_Phase_8,227,1,48,40,1019123076
78,6,22,Ticks_Phase_8,228,5,42,127,1019152612
78,6,22,Ticks_Phase_8,229,1,48,43,1019911408
78,6,22,Ticks_Phase_8,230,5,42,127,1019952468
78,6,22,Ticks_Phase_8,231,1,48,41,1020749376
78,6,22,Ticks_Phase_8,232,5,42,127,1020753228
78,6,22,Ticks_Phase_8,233,1,48,43,1021546992
78,6,22,Ticks_Phase_8,234,5,42,127,1021552940
78,6,22,Ticks_Phase_8,235,5,42,127,1022352880
78,6,22,Ticks_Phase_8,236,1,48,40,1022365508
78,6,22,Ticks_Phase_8,237,5,42,127,1023152520
78,6,22,Ticks_Phase_8,238,1,48,40,1023170008
78,6,22,Ticks_Phase_8,239,1,48,39,1023912504
78,6,22,Ticks_Phase_8,240,5,42,127,1023953196
78,6,22,Ticks_Phase_8,241,1,48,44,1024748376
78,6,22,Ticks_Phase_8,242,5,42,127,1024753128
78,6,22,Ticks_Phase_8,243,1,48,42,1025550108
78,6,22,Ticks_Phase_8,244,5,42,127,1025552840
78,6,22,Ticks_Phase_8,245,5,42,127,1026352708
78,6,22,Ticks_Phase_8,246,1,48,42,1026359420
78,6,22,Ticks_Phase_8,247,1,48,47,1027119728
78,6,22,Ticks_Phase_8,248,5,42,127,1027153312
78,6,22,Ticks_Phase_8,249,1,48,42,1027949168
78,6,22,Ticks_Phase_8,250,5,42,127,1027953024
78,6,22,Ticks_Phase_8,251,5,42,127,1028752964
78,6,22,Ticks_Phase_8,252,1,48,40,1028779816
78,6,22,Ticks_Phase_8,253,1,48,39,1029546792
78,6,22,Ticks_Phase_8,254,5,42,127,1029552668
78,6,22,Ticks_Phase_8,255,1,48,36,1030352384
78,6,22,Ticks_Phase_8,256,5,42,127,1030354028
78,6,22,Ticks_Phase_8,257,1,48,48,1031141440
78,6,22,Ticks_Phase_8,258,5,42,127,1031312964
78,6,22,Ticks_Phase_8,259,1,48,43,1032017552
78,6,22,Ticks_Phase_8,260,5,42,127,1032112392
78,6,22,Ticks_Phase_8,261,1,48,48,1032888336
78,6,22,Ticks_Phase_8,262,5,42,127,1032913228
78,6,22,Ticks_Phase_8,263,1,48,43,1033706168
78,6,22,Ticks_Phase_8,264,5,42,127,1033713188
78,6,22,Ticks_Phase_8,265,1,48,50,1034499684
78,6,22,Ticks_Phase_8,266,5,42,127,1034512824
78,6,22,Ticks_Phase_8,267,5,42,127,1035312692
78,6,22,Ticks_Phase_8,268,1,48,37,1035317232
78,6,22,Ticks_Phase_8,269,1,48,43,1036096264
78,6,22,Ticks_Phase_8,270,5,42,127,1036113368
78,6,22,Ticks_Phase_8,271,5,42,127,1036913012
78,6,22,Ticks_Phase_8,272,1,48,48,1036944292
78,6,22,Ticks_Phase_8,273,1,48,45,1037712348
78,6,22,Ticks_Phase_8,274,5,42,127,1037713840
78,6,22,Ticks_Phase_8,275,1,48,38,1038511836
78,6,22,Ticks_Phase_8,276,5,42,127,1038513628
78,6,22,Ticks_Phase_8,277,5,42,127,1039313272
78,6,22,Ticks_Phase_8,278,1,48,43,1039319532
78,6,22,Ticks_Phase_8,279,5,42,127,1040113080
78,6,22,Ticks_Phase_8,280,1,48,39,1040121228
78,6,22,Ticks_Phase_8,281,1,48,41,1040904672
78,6,22,Ticks_Phase_8,282,5,42,127,1040912788
78,6,22,Ticks_Phase_8,283,1,48,40,1041708424
78,6,22,Ticks_Phase_8,284,5,42,127,1041712648
78,6,22,Ticks_Phase_8,285,1,48,40,1042501548
78,6,22,Ticks_Phase_8,286,5,42,127,1042513408
78,6,22,Ticks_Phase_8,287,1,48,39,1043304780
78,6,22,Ticks_Phase_8,288,5,42,127,1043312972
78,6,22,Ticks_Phase_8,289,1,48,43,1044093852
78,6,22,Ticks_Phase_8,290,5,42,127,1044112756
78,6,22,Ticks_Phase_8,291,5,42,127,1044912624
78,6,22,Ticks_Phase_8,292,1,48,40,1044916344
78,6,22,Ticks_Phase_8,293,1,48,43,1045708104
78,6,22,Ticks_Phase_8,294,5,42,127,1045713376
78,6,22,Ticks_Phase_8,295,5,42,127,1046353136
78,6,22,Ticks_Phase_8,296,1,48,41,1046514440
78,6,22,Ticks_Phase_8,297,5,42,127,1047153072
78,6,22,Ticks_Phase_8,298,1,48,43,1047285472
78,6,22,Ticks_Phase_8,299,5,42,127,1047952860
78,6,22,Ticks_Phase_8,300,1,48,37,1048052764
78,6,22,Ticks_Phase_8,301,5,42,127,1048752720
78,6,22,Ticks_Phase_8,302,1,48,36,1048781752
78,6,22,Ticks_Phase_8,303,5,42,127,1049553404
78,6,22,Ticks_Phase_8,304,1,48,38,1049607768
78,6,22,Ticks_Phase_8,305,5,42,127,1050352992
78,6,22,Ticks_Phase_8,306,1,48,38,1050370796
78,6,22,Ticks_Phase_8,307,1,48,38,1051136788
78,6,22,Ticks_Phase_8,308,5,42,127,1051152696
78,6,22,Ticks_Phase_8,309,1,48,43,1051939868
78,6,22,Ticks_Phase_8,310,5,42,127,1051952780
78,6,22,Ticks_Phase_8,311,1,48,43,1052742580
78,6,22,Ticks_Phase_8,312,5,42,127,1052753464
78,6,22,Ticks_Phase_8,313,1,48,39,1053547532
78,6,22,Ticks_Phase_8,314,5,42,127,1053552876
78,6,22,Ticks_Phase_8,315,5,42,127,1054352820
78,6,22,Ticks_Phase_8,316,1,48,43,1054353784
78,6,22,Ticks_Phase_8,317,5,42,127,1055152384
78,6,22,Ticks_Phase_8,318,1,48,45,1055156924
78,6,22,Ticks_Phase_8,319,1,48,44,1055947632
78,6,22,Ticks_Phase_8,320,5,42,127,1055953356
78,6,22,Ticks_Phase_8,321,5,42,127,1056753028
78,6,22,Ticks_Phase_8,322,1,48,40,1056763712
78,6,22,Ticks_Phase_8,323,1,48,40,1057546108
78,6,22,Ticks_Phase_8,324,5,42,127,1057552732
78,6,22,Ticks_Phase_8,325,1,48,42,1058339376
78,6,22,Ticks_Phase_8,326,5,42,127,1058352368
78,6,22,Ticks_Phase_8,327,1,48,43,1059150172
78,6,22,Ticks_Phase_8,328,5,42,127,1059153424
78,6,22,Ticks_Phase_8,329,5,42,127,1059953072
78,6,22,Ticks_Phase_8,330,1,48,42,1059969444
78,6,22,Ticks_Phase_8,331,1,48,41,1060744956
78,6,22,Ticks_Phase_8,332,5,42,127,1060752704
78,6,22,Ticks_Phase_8,333,1,48,46,1061512396
78,6,22,Ticks_Phase_8,334,5,42,127,1061552560
78,6,22,Ticks_Phase_8,0,9999,9999,9999,926350460
78,6,22,Ticks_Phase_8,1,9999,9999,9999,927150196
78,6,22,Ticks_Phase_8,2,9999,9999,9999,927950976
78,6,22,Ticks_Phase_8,3,9999,9999,9999,928750708
78,6,22,Ticks_Phase_8,4,9999,9999,9999,929550392
78,6,22,Ticks_Phase_8,5,9999,9999,9999,930350180
78,6,22,Ticks_Phase_8,6,9999,9999,9999,931150936
78,6,22,Ticks_Phase_8,7,9999,9999,9999,931950648
78,6,22,Ticks_Phase_8,8,9999,9999,9999,932750436
78,6,22,Ticks_Phase_8,9,9999,9999,9999,933550144
78,6,22,Ticks_Phase_8,10,9999,9999,9999,934350904
78,6,22,Ticks_Phase_8,11,9999,9999,9999,935150684
78,6,22,Ticks_Phase_8,12,9999,9999,9999,935950424
78,6,22,Ticks_Phase_8,13,9999,9999,9999,936750136
78,6,22,Ticks_Phase_8,14,9999,9999,9999,937550968
78,6,22,Ticks_Phase_8,15,9999,9999,9999,938350684
78,6,22,Ticks_Phase_8,16,9999,9999,9999,939150396
78,6,22,Ticks_Phase_8,17,9999,9999,9999,939950180
78,6,22,Ticks_Phase_8,18,9999,9999,9999,940750940
78,6,22,Ticks_Phase_8,19,9999,9999,9999,941550716
78,6,22,Ticks_Phase_8,20,9999,9999,9999,942350456
78,6,22,Ticks_Phase_8,21,9999,9999,9999,943150168
78,6,22,Ticks_Phase_8,22,9999,9999,9999,943950924
78,6,22,Ticks_Phase_8,23,9999,9999,9999,944750720
78,6,22,Ticks_Phase_8,24,9999,9999,9999,945550428
78,6,22,Ticks_Phase_8,25,9999,9999,9999,946350140
78,6,22,Ticks_Phase_8,26,9999,9999,9999,947150972
78,6,22,Ticks_Phase_8,27,9999,9999,9999,947950684
78,6,22,Ticks_Phase_8,28,9999,9999,9999,948750412
78,6,22,Ticks_Phase_8,29,9999,9999,9999,949550204
78,6,22,Ticks_Phase_8,30,9999,9999,9999,950330448
78,6,22,Ticks_Phase_8,31,9999,9999,9999,951130236
78,6,22,Ticks_Phase_8,32,9999,9999,9999,951930988
78,6,22,Ticks_Phase_8,33,9999,9999,9999,952730704
78,6,22,Ticks_Phase_8,34,9999,9999,9999,953530492
78,6,22,Ticks_Phase_8,35,9999,9999,9999,954330204
78,6,22,Ticks_Phase_8,36,9999,9999,9999,955130980
78,6,22,Ticks_Phase_8,37,9999,9999,9999,955930700
78,6,22,Ticks_Phase_8,38,9999,9999,9999,956730484
78,6,22,Ticks_Phase_8,39,9999,9999,9999,957530200
78,6,22,Ticks_Phase_8,40,9999,9999,9999,958330952
78,6,22,Ticks_Phase_8,41,9999,9999,9999,959130732
78,6,22,Ticks_Phase_8,42,9999,9999,9999,959930452
78,6,22,Ticks_Phase_8,43,9999,9999,9999,960730180
78,6,22,Ticks_Phase_8,44,9999,9999,9999,961530960
78,6,22,Ticks_Phase_8,45,9999,9999,9999,962330748
78,6,22,Ticks_Phase_8,46,9999,9999,9999,963130460
78,6,22,Ticks_Phase_8,47,9999,9999,9999,963930172
78,6,22,Ticks_Phase_8,48,9999,9999,9999,964750400
78,6,22,Ticks_Phase_8,49,9999,9999,9999,965550188
78,6,22,Ticks_Phase_8,50,9999,9999,9999,966350952
78,6,22,Ticks_Phase_8,51,9999,9999,9999,967150664
78,6,22,Ticks_Phase_8,52,9999,9999,9999,967950400
78,6,22,Ticks_Phase_8,53,9999,9999,9999,968750188
78,6,22,Ticks_Phase_8,54,9999,9999,9999,969550940
78,6,22,Ticks_Phase_8,55,9999,9999,9999,970350652
78,6,22,Ticks_Phase_8,56,9999,9999,9999,971150444
78,6,22,Ticks_Phase_8,57,9999,9999,9999,971950152
78,6,22,Ticks_Phase_8,58,9999,9999,9999,972750916
78,6,22,Ticks_Phase_8,59,9999,9999,9999,973550692
78,6,22,Ticks_Phase_8,60,9999,9999,9999,974350436
78,6,22,Ticks_Phase_8,61,9999,9999,9999,975150148
78,6,22,Ticks_Phase_8,62,9999,9999,9999,975950972
78,6,22,Ticks_Phase_8,63,9999,9999,9999,976750692
78,6,22,Ticks_Phase_8,64,9999,9999,9999,977590388
78,6,22,Ticks_Phase_8,65,9999,9999,9999,978390132
78,6,22,Ticks_Phase_8,66,9999,9999,9999,979190888
78,6,22,Ticks_Phase_8,67,9999,9999,9999,979990596
78,6,22,Ticks_Phase_8,68,9999,9999,9999,980790388
78,6,22,Ticks_Phase_8,69,9999,9999,9999,981590100
78,6,22,Ticks_Phase_8,70,9999,9999,9999,982390852
78,6,22,Ticks_Phase_8,71,9999,9999,9999,983190644
78,6,22,Ticks_Phase_8,72,9999,9999,9999,983990356
78,6,22,Ticks_Phase_8,73,9999,9999,9999,984790144
78,6,22,Ticks_Phase_8,74,9999,9999,9999,985590852
78,6,22,Ticks_Phase_8,75,9999,9999,9999,986390640
78,6,22,Ticks_Phase_8,76,9999,9999,9999,987190344
78,6,22,Ticks_Phase_8,77,9999,9999,9999,987990132
78,6,22,Ticks_Phase_8,78,9999,9999,9999,988790896
78,6,22,Ticks_Phase_8,79,9999,9999,9999,989590604
78,6,22,Ticks_Phase_8,80,9999,9999,9999,990390392
78,6,22,Ticks_Phase_8,81,9999,9999,9999,991150196
78,6,22,Ticks_Phase_8,82,9999,9999,9999,991950952
78,6,22,Ticks_Phase_8,83,9999,9999,9999,992750664
78,6,22,Ticks_Phase_8,84,9999,9999,9999,993550444
78,6,22,Ticks_Phase_8,85,9999,9999,9999,994350160
78,6,22,Ticks_Phase_8,86,9999,9999,9999,995150916
78,6,22,Ticks_Phase_8,87,9999,9999,9999,995950704
78,6,22,Ticks_Phase_8,88,9999,9999,9999,996750420
78,6,22,Ticks_Phase_8,89,9999,9999,9999,997550196
78,6,22,Ticks_Phase_8,90,9999,9999,9999,998350960
78,6,22,Ticks_Phase_8,91,9999,9999,9999,999150676
78,6,22,Ticks_Phase_8,92,9999,9999,9999,999950460
78,6,22,Ticks_Phase_8,93,9999,9999,9999,1000750172
78,6,22,Ticks_Phase_8,94,9999,9999,9999,1001550928
78,6,22,Ticks_Phase_8,95,9999,9999,9999,1002350716
78,6,22,Ticks_Phase_8,96,9999,9999,9999,1003150428
78,6,22,Ticks_Phase_8,97,9999,9999,9999,1003870308
78,6,22,Ticks_Phase_8,98,9999,9999,9999,1004671068
78,6,22,Ticks_Phase_8,99,9999,9999,9999,1005470780
78,6,22,Ticks_Phase_8,100,9999,9999,9999,1006270560
78,6,22,Ticks_Phase_8,101,9999,9999,9999,1007070276
78,6,22,Ticks_Phase_8,102,9999,9999,9999,1007871060
78,6,22,Ticks_Phase_8,103,9999,9999,9999,1008670844
78,6,22,Ticks_Phase_8,104,9999,9999,9999,1009470556
78,6,22,Ticks_Phase_8,105,9999,9999,9999,1010270272
78,6,22,Ticks_Phase_8,106,9999,9999,9999,1011071032
78,6,22,Ticks_Phase_8,107,9999,9999,9999,1011870820
78,6,22,Ticks_Phase_8,108,9999,9999,9999,1012670528
78,6,22,Ticks_Phase_8,109,9999,9999,9999,1013470312
78,6,22,Ticks_Phase_8,110,9999,9999,9999,1014271100
78,6,22,Ticks_Phase_8,111,9999,9999,9999,1015070816
78,6,22,Ticks_Phase_8,112,9999,9999,9999,1015870560
78,6,22,Ticks_Phase_8,113,9999,9999,9999,1016670308
78,6,22,Ticks_Phase_8,114,9999,9999,9999,1017550972
78,6,22,Ticks_Phase_8,115,9999,9999,9999,1018350684
78,6,22,Ticks_Phase_8,116,9999,9999,9999,1019150400
78,6,22,Ticks_Phase_8,117,9999,9999,9999,1019950184
78,6,22,Ticks_Phase_8,118,9999,9999,9999,1020750940
78,6,22,Ticks_Phase_8,119,9999,9999,9999,1021550652
78,6,22,Ticks_Phase_8,120,9999,9999,9999,1022350444
78,6,22,Ticks_Phase_8,121,9999,9999,9999,1023150156
78,6,22,Ticks_Phase_8,122,9999,9999,9999,1023950908
78,6,22,Ticks_Phase_8,123,9999,9999,9999,1024750696
78,6,22,Ticks_Phase_8,124,9999,9999,9999,1025550404
78,6,22,Ticks_Phase_8,125,9999,9999,9999,1026350200
78,6,22,Ticks_Phase_8,126,9999,9999,9999,1027150952
78,6,22,Ticks_Phase_8,127,9999,9999,9999,1027950660
78,6,22,Ticks_Phase_8,128,9999,9999,9999,1028750456
78,6,22,Ticks_Phase_8,129,9999,9999,9999,1029550160
78,6,22,Ticks_Phase_8,130,9999,9999,9999,1030350924
78,6,22,Ticks_Phase_8,131,9999,9999,9999,1031310452
78,6,22,Ticks_Phase_8,132,9999,9999,9999,1032110180
78,6,22,Ticks_Phase_8,133,9999,9999,9999,1032910940
78,6,22,Ticks_Phase_8,134,9999,9999,9999,1033710652
78,6,22,Ticks_Phase_8,135,9999,9999,9999,1034510388
78,6,22,Ticks_Phase_8,136,9999,9999,9999,1035310184
78,6,22,Ticks_Phase_8,137,9999,9999,9999,1036110936
78,6,22,Ticks_Phase_8,138,9999,9999,9999,1036910652
78,6,22,Ticks_Phase_8,139,9999,9999,9999,1037710440
78,6,22,Ticks_Phase_8,140,9999,9999,9999,1038510152
78,6,22,Ticks_Phase_8,141,9999,9999,9999,1039310912
78,6,22,Ticks_Phase_8,142,9999,9999,9999,1040110696
78,6,22,Ticks_Phase_8,143,9999,9999,9999,1040910428
78,6,22,Ticks_Phase_8,144,9999,9999,9999,1041710140
78,6,22,Ticks_Phase_8,145,9999,9999,9999,1042510972
78,6,22,Ticks_Phase_8,146,9999,9999,9999,1043310684
78,6,22,Ticks_Phase_8,147,9999,9999,9999,1044110396
78,6,22,Ticks_Phase_8,148,9999,9999,9999,1044910188
78,6,22,Ticks_Phase_8,149,9999,9999,9999,1045710940
78,6,22,Ticks_Phase_8,150,9999,9999,9999,1046350924
78,6,22,Ticks_Phase_8,151,9999,9999,9999,1047150712
78,6,22,Ticks_Phase_8,152,9999,9999,9999,1047950424
78,6,22,Ticks_Phase_8,153,9999,9999,9999,1048750136
78,6,22,Ticks_Phase_8,154,9999,9999,9999,1049550968
78,6,22,Ticks_Phase_8,155,9999,9999,9999,1050350680
78,6,22,Ticks_Phase_8,156,9999,9999,9999,1051150412
78,6,22,Ticks_Phase_8,157,9999,9999,9999,1051950196
78,6,22,Ticks_Phase_8,158,9999,9999,9999,1052750956
78,6,22,Ticks_Phase_8,159,9999,9999,9999,1053550664
78,6,22,Ticks_Phase_8,160,9999,9999,9999,1054350460
78,6,22,Ticks_Phase_8,161,9999,9999,9999,1055150168
78,6,22,Ticks_Phase_8,162,9999,9999,9999,1055950920
78,6,22,Ticks_Phase_8,163,9999,9999,9999,1056750716
78,6,22,Ticks_Phase_8,164,9999,9999,9999,1057550444
78,6,22,Ticks_Phase_8,165,9999,9999,9999,1058350156
78,6,22,Ticks_Phase_8,166,9999,9999,9999,1059150916
78,6,22,Ticks_Phase_8,167,9999,9999,9999,1059950708
78,6,22,Ticks_Phase_8,168,9999,9999,9999,1060750416
78,6,22,Ticks_Phase_8,169,9999,9999,9999,1061550200
78,7,21,Ticks_Linear_5,0,5,42,127,1072770280
78,7,21,Ticks_Linear_5,1,5,42,127,1073259892
78,7,21,Ticks_Linear_5,2,5,42,127,1073740440
78,7,21,Ticks_Linear_5,3,5,42,127,1074220320
78,7,21,Ticks_Linear_5,4,1,48,38,1074634740
78,7,21,Ticks_Linear_5,5,5,42,127,1074699592
78,7,21,Ticks_Linear_5,6,1,48,41,1075131600
78,7,21,Ticks_Linear_5,7,5,42,127,1075190076
78,7,21,Ticks_Linear_5,8,5,42,127,1075679500
78,7,21,Ticks_Linear_5,9,1,48,38,1075681512
78,7,21,Ticks_Linear_5,10,5,42,127,1076170288
78,7,21,Ticks_Linear_5,11,1,48,37,1076220992
78,7,21,Ticks_Linear_5,12,1,48,40,1076650544
78,7,21,Ticks_Linear_5,13,5,42,127,1076659720
78,7,21,Ticks_Linear_5,14,1,48,42,1077124852
78,7,21,Ticks_Linear_5,15,5,42,127,1077150208
78,7,21,Ticks_Linear_5,16,5,42,127,1077649692
78,7,21,Ticks_Linear_5,17,1,48,38,1077650656
78,7,21,Ticks_Linear_5,18,5,42,127,1078149392
78,7,21,Ticks_Linear_5,19,1,48,42,1078150804
78,7,21,Ticks_Linear_5,20,1,48,44,1078636756
78,7,21,Ticks_Linear_5,21,5,42,127,1078650280
78,7,21,Ticks_Linear_5,22,1,48,40,1079140952
78,7,21,Ticks_Linear_5,23,5,42,127,1079150052
78,7,21,Ticks_Linear_5,24,1,48,40,1079647868
78,7,21,Ticks_Linear_5,25,5,42,127,1079649532
78,7,21,Ticks_Linear_5,26,1,48,40,1080138408
78,7,21,Ticks_Linear_5,27,5,42,127,1080159564
78,7,21,Ticks_Linear_5,28,1,48,45,1080666028
78,7,21,Ticks_Linear_5,29,5,42,127,1080669596
78,7,21,Ticks_Linear_5,30,5,42,127,1081179492
78,7,21,Ticks_Linear_5,31,1,48,44,1081210468
78,7,21,Ticks_Linear_5,32,5,42,127,1081689524
78,7,21,Ticks_Linear_5,33,1,48,42,1081701780
78,7,21,Ticks_Linear_5,34,1,48,46,1082191868
78,7,21,Ticks_Linear_5,35,5,42,127,1082200448
78,7,21,Ticks_Linear_5,36,1,48,47,1082700936
78,7,21,Ticks_Linear_5,37,5,42,127,1082729952
78,7,21,Ticks_Linear_5,38,5,42,127,1083250252
78,7,21,Ticks_Linear_5,39,1,48,49,1083251216
78,7,21,Ticks_Linear_5,40,5,42,127,1083770248
78,7,21,Ticks_Linear_5,41,1,48,49,1083787212
78,7,21,Ticks_Linear_5,42,1,48,49,1084290464
78,7,21,Ticks_Linear_5,43,5,42,127,1084291948
78,7,21,Ticks_Linear_5,44,1,48,51,1084788024
78,7,21,Ticks_Linear_5,45,5,42,127,1084820108
78,7,21,Ticks_Linear_5,46,1,48,42,1085292960
78,7,21,Ticks_Linear_5,47,5,42,127,1085350216
78,7,21,Ticks_Linear_5,48,1,48,44,1085861036
78,7,21,Ticks_Linear_5,49,5,42,127,1085879720
78,7,21,Ticks_Linear_5,50,5,42,127,1086410056
78,7,21,Ticks_Linear_5,51,1,48,41,1086411096
78,7,21,Ticks_Linear_5,52,5,42,127,1086939412
78,7,21,Ticks_Linear_5,53,1,48,44,1086941424
78,7,21,Ticks_Linear_5,54,1,48,43,1087451644
78,7,21,Ticks_Linear_5,55,5,42,127,1087469956
78,7,21,Ticks_Linear_5,56,1,48,44,1087985036
78,7,21,Ticks_Linear_5,57,5,42,127,1088009720
78,7,21,Ticks_Linear_5,58,1,48,45,1088546968
78,7,21,Ticks_Linear_5,59,5,42,127,1088550232
78,7,21,Ticks_Linear_5,60,1,48,49,1089065016
78,7,21,Ticks_Linear_5,61,5,42,127,1089089848
78,7,21,Ticks_Linear_5,62,1,48,43,1089615336
78,7,21,Ticks_Linear_5,63,5,42,127,1089629464
78,7,21,Ticks_Linear_5,64,1,48,43,1090157048
78,7,21,Ticks_Linear_5,65,5,42,127,1090170124
78,7,21,Ticks_Linear_5,66,1,48,46,1090708732
78,7,21,Ticks_Linear_5,67,5,42,127,1090720220
78,7,21,Ticks_Linear_5,68,5,42,127,1091269952
78,7,21,Ticks_Linear_5,69,1,48,44,1091283776
78,7,21,Ticks_Linear_5,70,5,42,127,1091819976
78,7,21,Ticks_Linear_5,71,1,48,42,1091835692
78,7,21,Ticks_Linear_5,72,1,48,39,1092345556
78,7,21,Ticks_Linear_5,73,5,42,127,1092369716
78,7,21,Ticks_Linear_5,74,1,48,40,1092908324
78,7,21,Ticks_Linear_5,75,5,42,127,1092919888
78,7,21,Ticks_Linear_5,76,1,48,39,1093476908
78,7,21,Ticks_Linear_5,77,5,42,127,1093479872
78,7,21,Ticks_Linear_5,78,5,42,127,1094039940
78,7,21,Ticks_Linear_5,79,1,48,45,1094059020
78,7,21,Ticks_Linear_5,80,1,48,44,1094599244
78,7,21,Ticks_Linear_5,81,5,42,127,1094600888
78,7,21,Ticks_Linear_5,82,1,48,43,1095128636
78,7,21,Ticks_Linear_5,83,5,42,127,1095160152
78,7,21,Ticks_Linear_5,84,5,42,127,1095720292
78,7,21,Ticks_Linear_5,85,1,48,40,1095733068
78,7,21,Ticks_Linear_5,86,1,48,40,1096284716
78,7,21,Ticks_Linear_5,87,5,42,127,1096289628
78,7,21,Ticks_Linear_5,88,5,42,127,1096860100
78,7,21,Ticks_Linear_5,89,1,48,33,1096869736
78,7,21,Ticks_Linear_5,90,5,42,127,1097430344
78,7,21,Ticks_Linear_5,91,1,48,40,1097440880
78,7,21,Ticks_Linear_5,92,5,42,127,1097999788
78,7,21,Ticks_Linear_5,93,1,48,42,1098001348
78,7,21,Ticks_Linear_5,94,5,42,127,1098570032
78,7,21,Ticks_Linear_5,95,1,48,40,1098580048
78,7,21,Ticks_Linear_5,96,1,48,40,1099143596
78,7,21,Ticks_Linear_5,97,5,42,127,1099149852
78,7,21,Ticks_Linear_5,98,1,48,43,1099727836
78,7,21,Ticks_Linear_5,99,5,42,127,1099730284
78,7,21,Ticks_Linear_5,100,1,48,40,1100307728
78,7,21,Ticks_Linear_5,101,5,42,127,1100309840
78,7,21,Ticks_Linear_5,102,5,42,127,1100889376
78,7,21,Ticks_Linear_5,103,1,48,41,1100913012
78,7,21,Ticks_Linear_5,104,1,48,44,1101443016
78,7,21,Ticks_Linear_5,105,5,42,127,1101470020
78,7,21,Ticks_Linear_5,106,1,48,36,1102001580
78,7,21,Ticks_Linear_5,107,5,42,127,1102060032
78,7,21,Ticks_Linear_5,108,5,42,127,1102649780
78,7,21,Ticks_Linear_5,109,1,48,40,1102684204
78,7,21,Ticks_Linear_5,110,5,42,127,1103239716
78,7,21,Ticks_Linear_5,111,1,48,39,1103242688
78,7,21,Ticks_Linear_5,112,1,48,40,1103816804
78,7,21,Ticks_Linear_5,113,5,42,127,1103830328
78,7,21,Ticks_Linear_5,114,1,48,38,1104403248
78,7,21,Ticks_Linear_5,115,5,42,127,1104420216
78,7,21,Ticks_Linear_5,116,1,48,39,1104998512
78,7,21,Ticks_Linear_5,117,5,42,127,1105020412
78,7,21,Ticks_Linear_5,118,1,48,39,1105613004
78,7,21,Ticks_Linear_5,119,5,42,127,1105620536
78,7,21,Ticks_Linear_5,120,5,42,127,1106220468
78,7,21,Ticks_Linear_5,121,1,48,38,1106224332
78,7,21,Ticks_Linear_5,122,1,48,42,1106787364
78,7,21,Ticks_Linear_5,123,5,42,127,1106819608
78,7,21,Ticks_Linear_5,124,1,48,36,1107407932
78,7,21,Ticks_Linear_5,125,5,42,127,1107419732
78,7,21,Ticks_Linear_5,126,1,48,32,1108007328
78,7,21,Ticks_Linear_5,127,5,42,127,1108029768
78,7,21,Ticks_Linear_5,128,5,42,127,1108640084
78,7,21,Ticks_Linear_5,129,1,48,36,1108648152
78,7,21,Ticks_Linear_5,130,1,48,41,1109249512
78,7,21,Ticks_Linear_5,131,5,42,127,1109251004
78,7,21,Ticks_Linear_5,132,1,48,42,1109849068
78,7,21,Ticks_Linear_5,133,5,42,127,1109869928
78,7,21,Ticks_Linear_5,134,5,42,127,1110480392
78,7,21,Ticks_Linear_5,135,1,48,39,1110496836
78,7,21,Ticks_Linear_5,136,5,42,127,1111099788
78,7,21,Ticks_Linear_5,137,1,48,40,1111109424
78,7,21,Ticks_Linear_5,138,1,48,49,1111709376
78,7,21,Ticks_Linear_5,139,5,42,127,1111720424
78,7,21,Ticks_Linear_5,140,5,42,127,1112339828
78,7,21,Ticks_Linear_5,141,1,48,33,1112341240
78,7,21,Ticks_Linear_5,142,1,48,35,1112950464
78,7,21,Ticks_Linear_5,143,5,42,127,1112960312
78,7,21,Ticks_Linear_5,144,5,42,127,1113579988
78,7,21,Ticks_Linear_5,145,1,48,45,1113583656
78,7,21,Ticks_Linear_5,146,1,48,33,1114206448
78,7,21,Ticks_Linear_5,147,5,42,127,1114209564
78,7,21,Ticks_Linear_5,148,1,48,41,1114819528
78,7,21,Ticks_Linear_5,149,5,42,127,1114840464
78,7,21,Ticks_Linear_5,150,1,48,47,1115455620
78,7,21,Ticks_Linear_5,151,5,42,127,1115480376
78,7,21,Ticks_Linear_5,152,1,48,45,1116112960
78,7,21,Ticks_Linear_5,153,5,42,127,1116120492
78,7,21,Ticks_Linear_5,154,1,48,41,1116750404
78,7,21,Ticks_Linear_5,155,5,42,127,1116760700
78,7,21,Ticks_Linear_5,156,1,48,45,1117396424
78,7,21,Ticks_Linear_5,157,5,42,127,1117400740
78,7,21,Ticks_Linear_5,158,5,42,127,1118040436
78,7,21,Ticks_Linear_5,159,1,48,51,1118063176
78,7,21,Ticks_Linear_5,160,5,42,127,1118680328
78,7,21,Ticks_Linear_5,161,1,48,45,1118683224
78,7,21,Ticks_Linear_5,162,1,48,41,1119312104
78,7,21,Ticks_Linear_5,163,5,42,127,1119320604
78,7,21,Ticks_Linear_5,164,1,48,48,1119942404
78,7,21,Ticks_Linear_5,165,5,42,127,1119960568
78,7,21,Ticks_Linear_5,166,1,48,44,1120589660
78,7,21,Ticks_Linear_5,167,5,42,127,1120619808
78,7,21,Ticks_Linear_5,168,1,48,51,1121253588
78,7,21,Ticks_Linear_5,169,5,42,127,1121270132
78,7,21,Ticks_Linear_5,170,5,42,127,1121920284
78,7,21,Ticks_Linear_5,171,1,48,37,1121923700
78,7,21,Ticks_Linear_5,172,1,48,43,1122567972
78,7,21,Ticks_Linear_5,173,5,42,127,1122569552
78,7,21,Ticks_Linear_5,174,1,48,44,1123214260
78,7,21,Ticks_Linear_5,175,5,42,127,1123219776
78,7,21,Ticks_Linear_5,176,1,48,48,1123858232
78,7,21,Ticks_Linear_5,177,5,42,127,1123880432
78,7,21,Ticks_Linear_5,178,1,48,46,1124488756
78,7,21,Ticks_Linear_5,179,5,42,127,1124539868
78,7,21,Ticks_Linear_5,180,5,42,127,1125200308
78,7,21,Ticks_Linear_5,181,1,48,39,1125218416
78,7,21,Ticks_Linear_5,182,5,42,127,1125859672
78,7,21,Ticks_Linear_5,183,1,48,45,1125878920
78,7,21,Ticks_Linear_5,184,1,48,42,1126514652
78,7,21,Ticks_Linear_5,185,5,42,127,1126520392
78,7,21,Ticks_Linear_5,186,1,48,42,1127178168
78,7,21,Ticks_Linear_5,187,5,42,127,1127189816
78,7,21,Ticks_Linear_5,188,1,48,44,1127841048
78,7,21,Ticks_Linear_5,189,5,42,127,1127859656
78,7,21,Ticks_Linear_5,190,1,48,50,1128511812
78,7,21,Ticks_Linear_5,191,5,42,127,1128530424
78,7,21,Ticks_Linear_5,192,1,48,42,1129189148
78,7,21,Ticks_Linear_5,193,5,42,127,1129200068
78,7,21,Ticks_Linear_5,194,1,48,41,1129862236
78,7,21,Ticks_Linear_5,195,5,42,127,1129869616
78,7,21,Ticks_Linear_5,196,1,48,46,1130530456
78,7,21,Ticks_Linear_5,197,5,42,127,1130549592
78,7,21,Ticks_Linear_5,198,5,42,127,1131229556
78,7,21,Ticks_Linear_5,199,1,48,41,1131234616
78,7,21,Ticks_Linear_5,200,1,48,40,1131901172
78,7,21,Ticks_Linear_5,201,5,42,127,1131909524
78,7,21,Ticks_Linear_5,202,1,48,43,1132568872
78,7,21,Ticks_Linear_5,203,5,42,127,1132589352
78,7,21,Ticks_Linear_5,204,1,48,48,1133249272
78,7,21,Ticks_Linear_5,205,5,42,127,1133270280
78,7,21,Ticks_Linear_5,206,1,48,47,1133933740
78,7,21,Ticks_Linear_5,207,5,42,127,1133959544
78,7,21,Ticks_Linear_5,208,1,48,45,1134650160
78,7,21,Ticks_Linear_5,209,5,42,127,1134651276
78,7,21,Ticks_Linear_5,210,1,48,46,1135335156
78,7,21,Ticks_Linear_5,211,5,42,127,1135340096
78,7,21,Ticks_Linear_5,212,1,48,45,1136014536
78,7,21,Ticks_Linear_5,213,5,42,127,1136030156
78,7,21,Ticks_Linear_5,214,5,42,127,1136720180
78,7,21,Ticks_Linear_5,215,1,48,42,1136722620
78,7,21,Ticks_Linear_5,216,1,48,48,1137395384
78,7,21,Ticks_Linear_5,217,5,42,127,1137419620
78,7,21,Ticks_Linear_5,218,5,42,127,1138120172
78,7,21,Ticks_Linear_5,219,1,48,38,1138121140
78,7,21,Ticks_Linear_5,220,5,42,127,1138819476
78,7,21,Ticks_Linear_5,221,1,48,40,1138848960
78,7,21,Ticks_Linear_5,222,1,48,32,1139504788
78,7,21,Ticks_Linear_5,223,5,42,127,1139519888
78,7,21,Ticks_Linear_5,224,1,48,41,1140174412
78,7,21,Ticks_Linear_5,225,5,42,127,1140220164
78,7,21,Ticks_Linear_5,226,1,48,34,1140916772
78,7,21,Ticks_Linear_5,227,5,42,127,1140930072
78,7,21,Ticks_Linear_5,228,1,48,38,1141614496
78,7,21,Ticks_Linear_5,229,5,42,127,1141639632
78,7,21,Ticks_Linear_5,230,1,48,42,1142302044
78,7,21,Ticks_Linear_5,231,5,42,127,1142350164
78,7,21,Ticks_Linear_5,232,5,42,127,1143060028
78,7,21,Ticks_Linear_5,233,1,48,35,1143074748
78,7,21,Ticks_Linear_5,234,1,48,40,1143764120
78,7,21,Ticks_Linear_5,235,5,42,127,1143769484
78,7,21,Ticks_Linear_5,236,5,42,127,1144490432
78,7,21,Ticks_Linear_5,237,1,48,39,1144491544
78,7,21,Ticks_Linear_5,238,1,48,38,1145200468
78,7,21,Ticks_Linear_5,239,5,42,127,1145210096
78,7,21,Ticks_Linear_5,240,5,42,127,1145930144
78,7,21,Ticks_Linear_5,241,1,48,41,1145938136
78,7,21,Ticks_Linear_5,242,1,48,44,1146644364
78,7,21,Ticks_Linear_5,243,5,42,127,1146650028
78,7,21,Ticks_Linear_5,244,1,48,41,1147357200
78,7,21,Ticks_Linear_5,245,5,42,127,1147370272
78,7,21,Ticks_Linear_5,246,1,48,38,1148081960
78,7,21,Ticks_Linear_5,247,5,42,127,1148099900
78,7,21,Ticks_Linear_5,248,1,48,41,1148798864
78,7,21,Ticks_Linear_5,249,5,42,127,1148829980
78,7,21,Ticks_Linear_5,250,5,42,127,1149560140
78,7,21,Ticks_Linear_5,251,1,48,40,1149572616
78,7,21,Ticks_Linear_5,252,1,48,48,1150279016
78,7,21,Ticks_Linear_5,253,5,42,127,1150290284
78,7,21,Ticks_Linear_5,254,1,48,41,1150992388
78,7,21,Ticks_Linear_5,255,5,42,127,1151020288
78,7,21,Ticks_Linear_5,256,1,48,45,1151748532
78,7,21,Ticks_Linear_5,257,5,42,127,1151760100
78,7,21,Ticks_Linear_5,258,1,48,45,1152486740
78,7,21,Ticks_Linear_5,259,5,42,127,1152500064
78,7,21,Ticks_Linear_5,260,1,48,47,1153227596
78,7,21,Ticks_Linear_5,261,5,42,127,1153240304
78,7,21,Ticks_Linear_5,262,1,48,43,1153947488
78,7,21,Ticks_Linear_5,263,5,42,127,1153990148
78,7,21,Ticks_Linear_5,264,5,42,127,1154730492
78,7,21,Ticks_Linear_5,265,1,48,35,1154738268
78,7,21,Ticks_Linear_5,266,5,42,127,1155479892
78,7,21,Ticks_Linear_5,267,1,48,35,1155488936
78,7,21,Ticks_Linear_5,268,1,48,48,1156206924
78,7,21,Ticks_Linear_5,269,5,42,127,1156229364
78,7,21,Ticks_Linear_5,270,1,48,46,1156978368
78,7,21,Ticks_Linear_5,271,5,42,127,1156980032
78,7,21,Ticks_Linear_5,272,5,42,127,1157729664
78,7,21,Ticks_Linear_5,273,1,48,41,1157740496
78,7,21,Ticks_Linear_5,274,1,48,45,1158428696
78,7,21,Ticks_Linear_5,275,5,42,127,1158480252
78,7,21,Ticks_Linear_5,276,1,48,32,1159211044
78,7,21,Ticks_Linear_5,277,5,42,127,1159239988
78,7,21,Ticks_Linear_5,278,1,48,26,1159973392
78,7,21,Ticks_Linear_5,279,5,42,127,1159999720
78,7,21,Ticks_Linear_5,280,1,48,38,1160737388
78,7,21,Ticks_Linear_5,281,5,42,127,1160759900
78,7,21,Ticks_Linear_5,282,1,48,39,1161488896
78,7,21,Ticks_Linear_5,283,5,42,127,1161519488
78,7,21,Ticks_Linear_5,284,1,48,46,1162260232
78,7,21,Ticks_Linear_5,285,5,42,127,1162280196
78,7,21,Ticks_Linear_5,286,1,48,46,1162981072
78,7,21,Ticks_Linear_5,287,5,42,127,1163050484
78,7,21,Ticks_Linear_5,288,1,48,34,1163779404
78,7,21,Ticks_Linear_5,289,5,42,127,1163820552
78,7,21,Ticks_Linear_5,290,5,42,127,1164589728
78,7,21,Ticks_Linear_5,291,1,48,42,1164594792
78,7,21,Ticks_Linear_5,292,5,42,127,1165359572
78,7,21,Ticks_Linear_5,293,1,48,46,1165383060
78,7,21,Ticks_Linear_5,294,5,42,127,1166129644
78,7,21,Ticks_Linear_5,295,1,48,37,1166138684
78,7,21,Ticks_Linear_5,296,1,48,33,1166881916
78,7,21,Ticks_Linear_5,297,5,42,127,1166909812
78,7,21,Ticks_Linear_5,298,1,48,39,1167659772
78,7,21,Ticks_Linear_5,299,5,42,127,1167690140
78,7,21,Ticks_Linear_5,300,5,42,127,1168470324
78,7,21,Ticks_Linear_5,301,1,48,41,1168471512
78,7,21,Ticks_Linear_5,302,5,42,127,1169249752
78,7,21,Ticks_Linear_5,303,1,48,39,1169260512
78,7,21,Ticks_Linear_5,304,5,42,127,1170029932
78,7,21,Ticks_Linear_5,305,1,48,46,1170034920
78,7,21,Ticks_Linear_5,306,1,48,39,1170776052
78,7,21,Ticks_Linear_5,307,5,42,127,1170819540
78,7,21,Ticks_Linear_5,308,5,42,127,1171609980
78,7,21,Ticks_Linear_5,309,1,48,39,1171634740
78,7,21,Ticks_Linear_5,310,5,42,127,1172399596
78,7,21,Ticks_Linear_5,311,1,48,45,1172421136
78,7,21,Ticks_Linear_5,312,1,48,40,1173164592
78,7,21,Ticks_Linear_5,313,5,42,127,1173189876
78,7,21,Ticks_Linear_5,314,5,42,127,1173979720
78,7,21,Ticks_Linear_5,315,1,48,33,1173991976
78,7,21,Ticks_Linear_5,316,1,48,43,1174753928
78,7,21,Ticks_Linear_5,317,5,42,127,1174780360
78,7,21,Ticks_Linear_5,318,1,48,41,1175575768
78,7,21,Ticks_Linear_5,319,5,42,127,1175580080
78,7,21,Ticks_Linear_5,320,5,42,127,1176379736
78,7,21,Ticks_Linear_5,321,1,48,41,1176389828
78,7,21,Ticks_Linear_5,322,5,42,127,1177179612
78,7,21,Ticks_Linear_5,323,1,48,47,1177187368
78,7,21,Ticks_Linear_5,324,5,42,127,1177980380
78,7,21,Ticks_Linear_5,325,1,48,41,1177989868
78,7,21,Ticks_Linear_5,326,1,48,38,1178770100
78,7,21,Ticks_Linear_5,327,5,42,127,1178790356
78,7,21,Ticks_Linear_5,328,1,48,37,1179574384
78,7,21,Ticks_Linear_5,329,5,42,127,1179600412
78,7,21,Ticks_Linear_5,330,5,42,127,1180410280
78,7,21,Ticks_Linear_5,331,1,48,40,1180420664
78,7,21,Ticks_Linear_5,332,1,48,41,1181214820
78,7,21,Ticks_Linear_5,333,5,42,127,1181220252
78,7,21,Ticks_Linear_5,334,1,48,39,1182001664
78,7,21,Ticks_Linear_5,335,5,42,127,1182030236
78,7,21,Ticks_Linear_5,0,9999,9999,9999,1072768056
78,7,21,Ticks_Linear_5,1,9999,9999,9999,1073257596
78,7,21,Ticks_Linear_5,2,9999,9999,9999,1073737844
78,7,21,Ticks_Linear_5,3,9999,9999,9999,1074218096
78,7,21,Ticks_Linear_5,4,9999,9999,9999,1074697292
78,7,21,Ticks_Linear_5,5,9999,9999,9999,1075187780
78,7,21,Ticks_Linear_5,6,9999,9999,9999,1075677276
78,7,21,Ticks_Linear_5,7,9999,9999,9999,1076167764
78,7,21,Ticks_Linear_5,8,9999,9999,9999,1076657276
78,7,21,Ticks_Linear_5,9,9999,9999,9999,1077147764
78,7,21,Ticks_Linear_5,10,9999,9999,9999,1077647468
78,7,21,Ticks_Linear_5,11,9999,9999,9999,1078147168
78,7,21,Ticks_Linear_5,12,9999,9999,9999,1078647908
78,7,21,Ticks_Linear_5,13,9999,9999,9999,1079147608
78,7,21,Ticks_Linear_5,14,9999,9999,9999,1079647332
78,7,21,Ticks_Linear_5,15,9999,9999,9999,1080157268
78,7,21,Ticks_Linear_5,16,9999,9999,9999,1080667224
78,7,21,Ticks_Linear_5,17,9999,9999,9999,1081177192
78,7,21,Ticks_Linear_5,18,9999,9999,9999,1081687148
78,7,21,Ticks_Linear_5,19,9999,9999,9999,1082198076
78,7,21,Ticks_Linear_5,20,9999,9999,9999,1082727508
78,7,21,Ticks_Linear_5,21,9999,9999,9999,1083247728
78,7,21,Ticks_Linear_5,22,9999,9999,9999,1083767872
78,7,21,Ticks_Linear_5,23,9999,9999,9999,1084288092
78,7,21,Ticks_Linear_5,24,9999,9999,9999,1084817512
78,7,21,Ticks_Linear_5,25,9999,9999,9999,1085347916
78,7,21,Ticks_Linear_5,26,9999,9999,9999,1085877348
78,7,21,Ticks_Linear_5,27,9999,9999,9999,1086407756
78,7,21,Ticks_Linear_5,28,9999,9999,9999,1086937188
78,7,21,Ticks_Linear_5,29,9999,9999,9999,1087467584
78,7,21,Ticks_Linear_5,30,9999,9999,9999,1088007272
78,7,21,Ticks_Linear_5,31,9999,9999,9999,1088547936
78,7,21,Ticks_Linear_5,32,9999,9999,9999,1089087548
78,7,21,Ticks_Linear_5,33,9999,9999,9999,1089627240
78,7,21,Ticks_Linear_5,34,9999,9999,9999,1090167900
78,7,21,Ticks_Linear_5,35,9999,9999,9999,1090717776
78,7,21,Ticks_Linear_5,36,9999,9999,9999,1091267656
78,7,21,Ticks_Linear_5,37,9999,9999,9999,1091817528
78,7,21,Ticks_Linear_5,38,9999,9999,9999,1092367420
78,7,21,Ticks_Linear_5,39,9999,9999,9999,1092917368
78,7,21,Ticks_Linear_5,40,9999,9999,9999,1093477500
78,7,21,Ticks_Linear_5,41,9999,9999,9999,1094037568
78,7,21,Ticks_Linear_5,42,9999,9999,9999,1094597700
78,7,21,Ticks_Linear_5,43,9999,9999,9999,1095157852
78,7,21,Ticks_Linear_5,44,9999,9999,9999,1095717992
78,7,21,Ticks_Linear_5,45,9999,9999,9999,1096287332
78,7,21,Ticks_Linear_5,46,9999,9999,9999,1096857656
78,7,21,Ticks_Linear_5,47,9999,9999,9999,1097428044
78,7,21,Ticks_Linear_5,48,9999,9999,9999,1097997416
78,7,21,Ticks_Linear_5,49,9999,9999,9999,1098567732
78,7,21,Ticks_Linear_5,50,9999,9999,9999,1099147332
78,7,21,Ticks_Linear_5,51,9999,9999,9999,1099727984
78,7,21,Ticks_Linear_5,52,9999,9999,9999,1100307588
78,7,21,Ticks_Linear_5,53,9999,9999,9999,1100887152
78,7,21,Ticks_Linear_5,54,9999,9999,9999,1101467724
78,7,21,Ticks_Linear_5,55,9999,9999,9999,1102057588
78,7,21,Ticks_Linear_5,56,9999,9999,9999,1102647408
78,7,21,Ticks_Linear_5,57,9999,9999,9999,1103237196
78,7,21,Ticks_Linear_5,58,9999,9999,9999,1103828028
78,7,21,Ticks_Linear_5,59,9999,9999,9999,1104417916
78,7,21,Ticks_Linear_5,60,9999,9999,9999,1105017968
78,7,21,Ticks_Linear_5,61,9999,9999,9999,1105618012
78,7,21,Ticks_Linear_5,62,9999,9999,9999,1106218092
78,7,21,Ticks_Linear_5,63,9999,9999,9999,1106817088
78,7,21,Ticks_Linear_5,64,9999,9999,9999,1107417212
78,7,21,Ticks_Linear_5,65,9999,9999,9999,1108027468
78,7,21,Ticks_Linear_5,66,9999,9999,9999,1108637784
78,7,21,Ticks_Linear_5,67,9999,9999,9999,1109248116
78,7,21,Ticks_Linear_5,68,9999,9999,9999,1109867632
78,7,21,Ticks_Linear_5,69,9999,9999,9999,1110477944
78,7,21,Ticks_Linear_5,70,9999,9999,9999,1111097416
78,7,21,Ticks_Linear_5,71,9999,9999,9999,1111717976
78,7,21,Ticks_Linear_5,72,9999,9999,9999,1112337528
78,7,21,Ticks_Linear_5,73,9999,9999,9999,1112958016
78,7,21,Ticks_Linear_5,74,9999,9999,9999,1113577540
78,7,21,Ticks_Linear_5,75,9999,9999,9999,1114207340
78,7,21,Ticks_Linear_5,76,9999,9999,9999,1114838088
78,7,21,Ticks_Linear_5,77,9999,9999,9999,1115478080
78,7,21,Ticks_Linear_5,78,9999,9999,9999,1116118116
78,7,21,Ticks_Linear_5,79,9999,9999,9999,1116758104
78,7,21,Ticks_Linear_5,80,9999,9999,9999,1117398068
78,7,21,Ticks_Linear_5,81,9999,9999,9999,1118038140
78,7,21,Ticks_Linear_5,82,9999,9999,9999,1118678104
78,7,21,Ticks_Linear_5,83,9999,9999,9999,1119318084
78,7,21,Ticks_Linear_5,84,9999,9999,9999,1119958120
78,7,21,Ticks_Linear_5,85,9999,9999,9999,1120617584
78,7,21,Ticks_Linear_5,86,9999,9999,9999,1121267832
78,7,21,Ticks_Linear_5,87,9999,9999,9999,1121918060
78,7,21,Ticks_Linear_5,88,9999,9999,9999,1122567260
78,7,21,Ticks_Linear_5,89,9999,9999,9999,1123217476
78,7,21,Ticks_Linear_5,90,9999,9999,9999,1123877988
78,7,21,Ticks_Linear_5,91,9999,9999,9999,1124537420
78,7,21,Ticks_Linear_5,92,9999,9999,9999,1125197936
78,7,21,Ticks_Linear_5,93,9999,9999,9999,1125857372
78,7,21,Ticks_Linear_5,94,9999,9999,9999,1126517868
78,7,21,Ticks_Linear_5,95,9999,9999,9999,1127187516
78,7,21,Ticks_Linear_5,96,9999,9999,9999,1127857212
78,7,21,Ticks_Linear_5,97,9999,9999,9999,1128527976
78,7,21,Ticks_Linear_5,98,9999,9999,9999,1129197624
78,7,21,Ticks_Linear_5,99,9999,9999,9999,1129867316
78,7,21,Ticks_Linear_5,100,9999,9999,9999,1130547296
78,7,21,Ticks_Linear_5,101,9999,9999,9999,1131227256
78,7,21,Ticks_Linear_5,102,9999,9999,9999,1131907152
78,7,21,Ticks_Linear_5,103,9999,9999,9999,1132587128
78,7,21,Ticks_Linear_5,104,9999,9999,9999,1133268056
78,7,21,Ticks_Linear_5,105,9999,9999,9999,1133957248
78,7,21,Ticks_Linear_5,106,9999,9999,9999,1134647416
78,7,21,Ticks_Linear_5,107,9999,9999,9999,1135337548
78,7,21,Ticks_Linear_5,108,9999,9999,9999,1136027708
78,7,21,Ticks_Linear_5,109,9999,9999,9999,1136717880
78,7,21,Ticks_Linear_5,110,9999,9999,9999,1137417324
78,7,21,Ticks_Linear_5,111,9999,9999,9999,1138117728
78,7,21,Ticks_Linear_5,112,9999,9999,9999,1138817104
78,7,21,Ticks_Linear_5,113,9999,9999,9999,1139517516
78,7,21,Ticks_Linear_5,114,9999,9999,9999,1140217940
78,7,21,Ticks_Linear_5,115,9999,9999,9999,1140927548
78,7,21,Ticks_Linear_5,116,9999,9999,9999,1141637184
78,7,21,Ticks_Linear_5,117,9999,9999,9999,1142347864
78,7,21,Ticks_Linear_5,118,9999,9999,9999,1143057504
78,7,21,Ticks_Linear_5,119,9999,9999,9999,1143767108
78,7,21,Ticks_Linear_5,120,9999,9999,9999,1144488060
78,7,21,Ticks_Linear_5,121,9999,9999,9999,1145207872
78,7,21,Ticks_Linear_5,122,9999,9999,9999,1145927768
78,7,21,Ticks_Linear_5,123,9999,9999,9999,1146647656
78,7,21,Ticks_Linear_5,124,9999,9999,9999,1147367528
78,7,21,Ticks_Linear_5,125,9999,9999,9999,1148097604
78,7,21,Ticks_Linear_5,126,9999,9999,9999,1148827756
78,7,21,Ticks_Linear_5,127,9999,9999,9999,1149557840
78,7,21,Ticks_Linear_5,128,9999,9999,9999,1150287984
78,7,21,Ticks_Linear_5,129,9999,9999,9999,1151018064
78,7,21,Ticks_Linear_5,130,9999,9999,9999,1151757432
78,7,21,Ticks_Linear_5,131,9999,9999,9999,1152497768
78,7,21,Ticks_Linear_5,132,9999,9999,9999,1153238080
78,7,21,Ticks_Linear_5,133,9999,9999,9999,1153987700
78,7,21,Ticks_Linear_5,134,9999,9999,9999,1154728048
78,7,21,Ticks_Linear_5,135,9999,9999,9999,1155477596
78,7,21,Ticks_Linear_5,136,9999,9999,9999,1156227140
78,7,21,Ticks_Linear_5,137,9999,9999,9999,1156977748
78,7,21,Ticks_Linear_5,138,9999,9999,9999,1157727288
78,7,21,Ticks_Linear_5,139,9999,9999,9999,1158477880
78,7,21,Ticks_Linear_5,140,9999,9999,9999,1159237688
78,7,21,Ticks_Linear_5,141,9999,9999,9999,1159997496
78,7,21,Ticks_Linear_5,142,9999,9999,9999,1160757304
78,7,21,Ticks_Linear_5,143,9999,9999,9999,1161517112
78,7,21,Ticks_Linear_5,144,9999,9999,9999,1162277968
78,7,21,Ticks_Linear_5,145,9999,9999,9999,1163048036
78,7,21,Ticks_Linear_5,146,9999,9999,9999,1163818104
78,7,21,Ticks_Linear_5,147,9999,9999,9999,1164587132
78,7,21,Ticks_Linear_5,148,9999,9999,9999,1165357124
78,7,21,Ticks_Linear_5,149,9999,9999,9999,1166127196
78,7,21,Ticks_Linear_5,150,9999,9999,9999,1166907512
78,7,21,Ticks_Linear_5,151,9999,9999,9999,1167687768
78,7,21,Ticks_Linear_5,152,9999,9999,9999,1168468024
78,7,21,Ticks_Linear_5,153,9999,9999,9999,1169247304
78,7,21,Ticks_Linear_5,154,9999,9999,9999,1170027632
78,7,21,Ticks_Linear_5,155,9999,9999,9999,1170817092
78,7,21,Ticks_Linear_5,156,9999,9999,9999,1171607608
78,7,21,Ticks_Linear_5,157,9999,9999,9999,1172397148
78,7,21,Ticks_Linear_5,158,9999,9999,9999,1173187652
78,7,21,Ticks_Linear_5,159,9999,9999,9999,1173977196
78,7,21,Ticks_Linear_5,160,9999,9999,9999,1174777912
78,7,21,Ticks_Linear_5,161,9999,9999,9999,1175577708
78,7,21,Ticks_Linear_5,162,9999,9999,9999,1176377440
78,7,21,Ticks_Linear_5,163,9999,9999,9999,1177177164
78,7,21,Ticks_Linear_5,164,9999,9999,9999,1177977932
78,7,21,Ticks_Linear_5,165,9999,9999,9999,1178787908
78,7,21,Ticks_Linear_5,166,9999,9999,9999,1179597892
78,7,21,Ticks_Linear_5,167,9999,9999,9999,1180407904
78,7,21,Ticks_Linear_5,168,9999,9999,9999,1181217880
78,7,21,Ticks_Linear_5,169,9999,9999,9999,1182027864
78,8,20,Ticks_Linear_8,0,5,42,127,1193741676
78,8,20,Ticks_Linear_8,1,5,42,127,1194562016
78,8,20,Ticks_Linear_8,2,5,42,127,1195382128
78,8,20,Ticks_Linear_8,3,5,42,127,1196202244
78,8,20,Ticks_Linear_8,4,1,48,38,1196999852
78,8,20,Ticks_Linear_8,5,5,42,127,1197021456
78,8,20,Ticks_Linear_8,6,5,42,127,1197831768
78,8,20,Ticks_Linear_8,7,1,48,34,1197840208
78,8,20,Ticks_Linear_8,8,5,42,127,1198641452
78,8,20,Ticks_Linear_8,9,1,48,39,1198669576
78,8,20,Ticks_Linear_8,10,5,42,127,1199451508
78,8,20,Ticks_Linear_8,11,1,48,39,1199477316
78,8,20,Ticks_Linear_8,12,1,48,37,1200260052
78,8,20,Ticks_Linear_8,13,5,42,127,1200261412
78,8,20,Ticks_Linear_8,14,1,48,36,1201061920
78,8,20,Ticks_Linear_8,15,5,42,127,1201071468
78,8,20,Ticks_Linear_8,16,1,48,36,1201871040
78,8,20,Ticks_Linear_8,17,5,42,127,1201872612
78,8,20,Ticks_Linear_8,18,5,42,127,1202671996
78,8,20,Ticks_Linear_8,19,1,48,40,1202696532
78,8,20,Ticks_Linear_8,20,1,48,42,1203455344
78,8,20,Ticks_Linear_8,21,5,42,127,1203472012
78,8,20,Ticks_Linear_8,22,5,42,127,1204271444
78,8,20,Ticks_Linear_8,23,1,48,39,1204284748
78,8,20,Ticks_Linear_8,24,5,42,127,1205072292
78,8,20,Ticks_Linear_8,25,1,48,42,1205090992
78,8,20,Ticks_Linear_8,26,5,42,127,1205861904
78,8,20,Ticks_Linear_8,27,1,48,37,1205876104
78,8,20,Ticks_Linear_8,28,5,42,127,1206652268
78,8,20,Ticks_Linear_8,29,1,48,38,1206656508
78,8,20,Ticks_Linear_8,30,5,42,127,1207441880
78,8,20,Ticks_Linear_8,31,1,48,40,1207461332
78,8,20,Ticks_Linear_8,32,5,42,127,1208232172
78,8,20,Ticks_Linear_8,33,1,48,43,1208245168
78,8,20,Ticks_Linear_8,34,5,42,127,1209021932
78,8,20,Ticks_Linear_8,35,1,48,45,1209036808
78,8,20,Ticks_Linear_8,36,5,42,127,1209802112
78,8,20,Ticks_Linear_8,37,1,48,40,1209822532
78,8,20,Ticks_Linear_8,38,5,42,127,1210582360
78,8,20,Ticks_Linear_8,39,1,48,39,1210587280
78,8,20,Ticks_Linear_8,40,5,42,127,1211361940
78,8,20,Ticks_Linear_8,41,1,48,46,1211384704
78,8,20,Ticks_Linear_8,42,5,42,127,1212141848
78,8,20,Ticks_Linear_8,43,1,48,42,1212146912
78,8,20,Ticks_Linear_8,44,5,42,127,1212922096
78,8,20,Ticks_Linear_8,45,1,48,43,1212931884
78,8,20,Ticks_Linear_8,46,5,42,127,1213692164
78,8,20,Ticks_Linear_8,47,1,48,41,1213723744
78,8,20,Ticks_Linear_8,48,1,48,40,1214443688
78,8,20,Ticks_Linear_8,49,5,42,127,1214462224
78,8,20,Ticks_Linear_8,50,1,48,37,1215223340
78,8,20,Ticks_Linear_8,51,5,42,127,1215232368
78,8,20,Ticks_Linear_8,52,1,48,43,1215997224
78,8,20,Ticks_Linear_8,53,5,42,127,1216002436
78,8,20,Ticks_Linear_8,54,5,42,127,1216781796
78,8,20,Ticks_Linear_8,55,1,48,43,1216790764
78,8,20,Ticks_Linear_8,56,1,48,44,1217537660
78,8,20,Ticks_Linear_8,57,5,42,127,1217541448
78,8,20,Ticks_Linear_8,58,5,42,127,1218302312
78,8,20,Ticks_Linear_8,59,1,48,48,1218310456
78,8,20,Ticks_Linear_8,60,1,48,45,1219058776
78,8,20,Ticks_Linear_8,61,5,42,127,1219062264
78,8,20,Ticks_Linear_8,62,1,48,43,1219821784
78,8,20,Ticks_Linear_8,63,5,42,127,1219823196
78,8,20,Ticks_Linear_8,64,5,42,127,1220581640
78,8,20,Ticks_Linear_8,65,1,48,44,1220614812
78,8,20,Ticks_Linear_8,66,1,48,47,1221320508
78,8,20,Ticks_Linear_8,67,5,42,127,1221332304
78,8,20,Ticks_Linear_8,68,1,48,48,1222055300
78,8,20,Ticks_Linear_8,69,5,42,127,1222081856
78,8,20,Ticks_Linear_8,70,5,42,127,1222831488
78,8,20,Ticks_Linear_8,71,1,48,41,1222841576
78,8,20,Ticks_Linear_8,72,5,42,127,1223582008
78,8,20,Ticks_Linear_8,73,1,48,49,1223595756
78,8,20,Ticks_Linear_8,74,5,42,127,1224331708
78,8,20,Ticks_Linear_8,75,1,48,46,1224338792
78,8,20,Ticks_Linear_8,76,1,48,45,1225064956
78,8,20,Ticks_Linear_8,77,5,42,127,1225072112
78,8,20,Ticks_Linear_8,78,5,42,127,1225812460
78,8,20,Ticks_Linear_8,79,1,48,42,1225831908
78,8,20,Ticks_Linear_8,80,5,42,127,1226551672
78,8,20,Ticks_Linear_8,81,1,48,45,1226553012
78,8,20,Ticks_Linear_8,82,5,42,127,1227292084
78,8,20,Ticks_Linear_8,83,1,48,47,1227315276
78,8,20,Ticks_Linear_8,84,5,42,127,1228032720
78,8,20,Ticks_Linear_8,85,1,48,48,1228033612
78,8,20,Ticks_Linear_8,86,5,42,127,1228761728
78,8,20,Ticks_Linear_8,87,1,48,48,1228777608
78,8,20,Ticks_Linear_8,88,5,42,127,1229491660
78,8,20,Ticks_Linear_8,89,1,48,41,1229492624
78,8,20,Ticks_Linear_8,90,5,42,127,1230221740
78,8,20,Ticks_Linear_8,91,1,48,45,1230252124
78,8,20,Ticks_Linear_8,92,5,42,127,1230951816
78,8,20,Ticks_Linear_8,93,1,48,45,1230992084
78,8,20,Ticks_Linear_8,94,5,42,127,1231681820
78,8,20,Ticks_Linear_8,95,1,48,51,1231694004
78,8,20,Ticks_Linear_8,96,1,48,45,1232384516
78,8,20,Ticks_Linear_8,97,5,42,127,1232401856
78,8,20,Ticks_Linear_8,98,5,42,127,1233121732
78,8,20,Ticks_Linear_8,99,1,48,44,1233137980
78,8,20,Ticks_Linear_8,100,5,42,127,1233841628
78,8,20,Ticks_Linear_8,101,1,48,42,1233887432
78,8,20,Ticks_Linear_8,102,5,42,127,1234562416
78,8,20,Ticks_Linear_8,103,1,48,48,1234581268
78,8,20,Ticks_Linear_8,104,1,48,52,1235289328
78,8,20,Ticks_Linear_8,105,5,42,127,1235291444
78,8,20,Ticks_Linear_8,106,5,42,127,1236002204
78,8,20,Ticks_Linear_8,107,1,48,43,1236046356
78,8,20,Ticks_Linear_8,108,5,42,127,1236711764
78,8,20,Ticks_Linear_8,109,1,48,47,1236769616
78,8,20,Ticks_Linear_8,110,5,42,127,1237421596
78,8,20,Ticks_Linear_8,111,1,48,47,1237481360
78,8,20,Ticks_Linear_8,112,5,42,127,1238132056
78,8,20,Ticks_Linear_8,113,1,48,46,1238168420
78,8,20,Ticks_Linear_8,114,5,42,127,1238841840
78,8,20,Ticks_Linear_8,115,1,48,47,1238863012
78,8,20,Ticks_Linear_8,116,5,42,127,1239542116
78,8,20,Ticks_Linear_8,117,1,48,45,1239567400
78,8,20,Ticks_Linear_8,118,5,42,127,1240241464
78,8,20,Ticks_Linear_8,119,1,48,44,1240262784
78,8,20,Ticks_Linear_8,120,5,42,127,1240941960
78,8,20,Ticks_Linear_8,121,1,48,44,1240944628
78,8,20,Ticks_Linear_8,122,1,48,44,1241610812
78,8,20,Ticks_Linear_8,123,5,42,127,1241642452
78,8,20,Ticks_Linear_8,124,5,42,127,1242341808
78,8,20,Ticks_Linear_8,125,1,48,45,1242359224
78,8,20,Ticks_Linear_8,126,5,42,127,1243031944
78,8,20,Ticks_Linear_8,127,1,48,50,1243067492
78,8,20,Ticks_Linear_8,128,5,42,127,1243721960
78,8,20,Ticks_Linear_8,129,1,48,52,1243748064
78,8,20,Ticks_Linear_8,130,1,48,47,1244408176
78,8,20,Ticks_Linear_8,131,5,42,127,1244412340
78,8,20,Ticks_Linear_8,132,5,42,127,1245101512
78,8,20,Ticks_Linear_8,133,1,48,44,1245136980
78,8,20,Ticks_Linear_8,134,1,48,43,1245767356
78,8,20,Ticks_Linear_8,135,5,42,127,1245791520
78,8,20,Ticks_Linear_8,136,5,42,127,1246471652
78,8,20,Ticks_Linear_8,137,1,48,52,1246480472
78,8,20,Ticks_Linear_8,138,5,42,127,1247151384
78,8,20,Ticks_Linear_8,139,1,48,49,1247161400
78,8,20,Ticks_Linear_8,140,1,48,46,1247827564
78,8,20,Ticks_Linear_8,141,5,42,127,1247832400
78,8,20,Ticks_Linear_8,142,5,42,127,1248521448
78,8,20,Ticks_Linear_8,143,1,48,48,1248525012
78,8,20,Ticks_Linear_8,144,1,48,39,1249201552
78,8,20,Ticks_Linear_8,145,5,42,127,1249202964
78,8,20,Ticks_Linear_8,146,5,42,127,1249872468
78,8,20,Ticks_Linear_8,147,1,48,47,1249886372
78,8,20,Ticks_Linear_8,148,5,42,127,1250541888
78,8,20,Ticks_Linear_8,149,1,48,55,1250569504
78,8,20,Ticks_Linear_8,150,5,42,127,1251211584
78,8,20,Ticks_Linear_8,151,1,48,48,1251234396
78,8,20,Ticks_Linear_8,152,1,48,46,1251879300
78,8,20,Ticks_Linear_8,153,5,42,127,1251882340
78,8,20,Ticks_Linear_8,154,5,42,127,1252552116
78,8,20,Ticks_Linear_8,155,1,48,48,1252565344
78,8,20,Ticks_Linear_8,156,5,42,127,1253211432
78,8,20,Ticks_Linear_8,157,1,48,45,1253224132
78,8,20,Ticks_Linear_8,158,5,42,127,1253871936
78,8,20,Ticks_Linear_8,159,1,48,48,1253873876
78,8,20,Ticks_Linear_8,160,5,42,127,1254531444
78,8,20,Ticks_Linear_8,161,1,48,41,1254555756
78,8,20,Ticks_Linear_8,162,5,42,127,1255191804
78,8,20,Ticks_Linear_8,163,1,48,35,1255217240
78,8,20,Ticks_Linear_8,164,5,42,127,1255852360
78,8,20,Ticks_Linear_8,165,1,48,27,1255861996
78,8,20,Ticks_Linear_8,166,1,48,43,1256477396
78,8,20,Ticks_Linear_8,167,5,42,127,1256501556
78,8,20,Ticks_Linear_8,168,5,42,127,1257152088
78,8,20,Ticks_Linear_8,169,1,48,41,1257155500
78,8,20,Ticks_Linear_8,170,5,42,127,1257802260
78,8,20,Ticks_Linear_8,171,1,48,43,1257803224
78,8,20,Ticks_Linear_8,172,5,42,127,1258452256
78,8,20,Ticks_Linear_8,173,1,48,45,1258480268
78,8,20,Ticks_Linear_8,174,5,42,127,1259101608
78,8,20,Ticks_Linear_8,175,1,48,50,1259114236
78,8,20,Ticks_Linear_8,176,1,48,46,1259725048
78,8,20,Ticks_Linear_8,177,5,42,127,1259741492
78,8,20,Ticks_Linear_8,178,1,48,50,1260374100
78,8,20,Ticks_Linear_8,179,5,42,127,1260381628
78,8,20,Ticks_Linear_8,180,1,48,50,1261018552
78,8,20,Ticks_Linear_8,181,5,42,127,1261021592
78,8,20,Ticks_Linear_8,182,5,42,127,1261661588
78,8,20,Ticks_Linear_8,183,1,48,41,1261662924
78,8,20,Ticks_Linear_8,184,5,42,127,1262301552
78,8,20,Ticks_Linear_8,185,1,48,46,1262312488
78,8,20,Ticks_Linear_8,186,5,42,127,1262932328
78,8,20,Ticks_Linear_8,187,1,48,51,1262945704
78,8,20,Ticks_Linear_8,188,1,48,46,1263539304
78,8,20,Ticks_Linear_8,189,5,42,127,1263562100
78,8,20,Ticks_Linear_8,190,1,48,43,1264175084
78,8,20,Ticks_Linear_8,191,5,42,127,1264191904
78,8,20,Ticks_Linear_8,192,5,42,127,1264821692
78,8,20,Ticks_Linear_8,193,1,48,48,1264829144
78,8,20,Ticks_Linear_8,194,5,42,127,1265452392
78,8,20,Ticks_Linear_8,195,1,48,48,1265464428
78,8,20,Ticks_Linear_8,196,5,42,127,1266072136
78,8,20,Ticks_Linear_8,197,1,48,48,1266100280
78,8,20,Ticks_Linear_8,198,5,42,127,1266691536
78,8,20,Ticks_Linear_8,199,1,48,49,1266749556
78,8,20,Ticks_Linear_8,200,1,48,43,1267305456
78,8,20,Ticks_Linear_8,201,5,42,127,1267311868
78,8,20,Ticks_Linear_8,202,5,42,127,1267931472
78,8,20,Ticks_Linear_8,203,1,48,44,1267947340
78,8,20,Ticks_Linear_8,204,1,48,46,1268529244
78,8,20,Ticks_Linear_8,205,5,42,127,1268551984
78,8,20,Ticks_Linear_8,206,1,48,45,1269157600
78,8,20,Ticks_Linear_8,207,5,42,127,1269162292
78,8,20,Ticks_Linear_8,208,5,42,127,1269771508
78,8,20,Ticks_Linear_8,209,1,48,46,1269789000
78,8,20,Ticks_Linear_8,210,5,42,127,1270381964
78,8,20,Ticks_Linear_8,211,1,48,47,1270391004
78,8,20,Ticks_Linear_8,212,1,48,48,1270973876
78,8,20,Ticks_Linear_8,213,5,42,127,1270992340
78,8,20,Ticks_Linear_8,214,1,48,43,1271596116
78,8,20,Ticks_Linear_8,215,5,42,127,1271601404
78,8,20,Ticks_Linear_8,216,5,42,127,1272201536
78,8,20,Ticks_Linear_8,217,1,48,51,1272204200
78,8,20,Ticks_Linear_8,218,5,42,127,1272801804
78,8,20,Ticks_Linear_8,219,1,48,48,1272820680
78,8,20,Ticks_Linear_8,220,1,48,44,1273401880
78,8,20,Ticks_Linear_8,221,5,42,127,1273402996
78,8,20,Ticks_Linear_8,222,1,48,43,1273999408
78,8,20,Ticks_Linear_8,223,5,42,127,1274001920
78,8,20,Ticks_Linear_8,224,1,48,48,1274593320
78,8,20,Ticks_Linear_8,225,5,42,127,1274601996
78,8,20,Ticks_Linear_8,226,1,48,46,1275192088
78,8,20,Ticks_Linear_8,227,5,42,127,1275193360
78,8,20,Ticks_Linear_8,228,1,48,45,1275765280
78,8,20,Ticks_Linear_8,229,5,42,127,1275781428
78,8,20,Ticks_Linear_8,230,5,42,127,1276372420
78,8,20,Ticks_Linear_8,231,1,48,46,1276381980
78,8,20,Ticks_Linear_8,232,5,42,127,1276962160
78,8,20,Ticks_Linear_8,233,1,48,45,1276986992
78,8,20,Ticks_Linear_8,234,5,42,127,1277552172
78,8,20,Ticks_Linear_8,235,1,48,41,1277574612
78,8,20,Ticks_Linear_8,236,1,48,45,1278129584
78,8,20,Ticks_Linear_8,237,5,42,127,1278131696
78,8,20,Ticks_Linear_8,238,1,48,45,1278706412
78,8,20,Ticks_Linear_8,239,5,42,127,1278712224
78,8,20,Ticks_Linear_8,240,1,48,45,1279282428
78,8,20,Ticks_Linear_8,241,5,42,127,1279291976
78,8,20,Ticks_Linear_8,242,1,48,45,1279865248
78,8,20,Ticks_Linear_8,243,5,42,127,1279872256
78,8,20,Ticks_Linear_8,244,1,48,48,1280449340
78,8,20,Ticks_Linear_8,245,5,42,127,1280451936
78,8,20,Ticks_Linear_8,246,1,48,48,1281006504
78,8,20,Ticks_Linear_8,247,5,42,127,1281022204
78,8,20,Ticks_Linear_8,248,1,48,49,1281578472
78,8,20,Ticks_Linear_8,249,5,42,127,1281591772
78,8,20,Ticks_Linear_8,250,5,42,127,1282162028
78,8,20,Ticks_Linear_8,251,1,48,43,1282172488
78,8,20,Ticks_Linear_8,252,1,48,42,1282724284
78,8,20,Ticks_Linear_8,253,5,42,127,1282732488
78,8,20,Ticks_Linear_8,254,5,42,127,1283301864
78,8,20,Ticks_Linear_8,255,1,48,50,1283320488
78,8,20,Ticks_Linear_8,256,1,48,44,1283856632
78,8,20,Ticks_Linear_8,257,5,42,127,1283861992
78,8,20,Ticks_Linear_8,258,5,42,127,1284421984
78,8,20,Ticks_Linear_8,259,1,48,46,1284427872
78,8,20,Ticks_Linear_8,260,1,48,47,1284952492
78,8,20,Ticks_Linear_8,261,5,42,127,1284982036
78,8,20,Ticks_Linear_8,262,1,48,44,1285527672
78,8,20,Ticks_Linear_8,263,5,42,127,1285542240
78,8,20,Ticks_Linear_8,264,1,48,46,1286095368
78,8,20,Ticks_Linear_8,265,5,42,127,1286102304
78,8,20,Ticks_Linear_8,266,5,42,127,1286652360
78,8,20,Ticks_Linear_8,267,1,48,40,1286660804
78,8,20,Ticks_Linear_8,268,5,42,127,1287202088
78,8,20,Ticks_Linear_8,269,1,48,46,1287208348
78,8,20,Ticks_Linear_8,270,1,48,49,1287745020
78,8,20,Ticks_Linear_8,271,5,42,127,1287751956
78,8,20,Ticks_Linear_8,272,1,48,43,1288299792
78,8,20,Ticks_Linear_8,273,5,42,127,1288301904
78,8,20,Ticks_Linear_8,274,5,42,127,1288851784
78,8,20,Ticks_Linear_8,275,1,48,47,1288867704
78,8,20,Ticks_Linear_8,276,1,48,47,1289391624
78,8,20,Ticks_Linear_8,277,5,42,127,1289392960
78,8,20,Ticks_Linear_8,278,1,48,47,1289918828
78,8,20,Ticks_Linear_8,279,5,42,127,1289932356
78,8,20,Ticks_Linear_8,280,1,48,43,1290460624
78,8,20,Ticks_Linear_8,281,5,42,127,1290471772
78,8,20,Ticks_Linear_8,282,5,42,127,1291011692
78,8,20,Ticks_Linear_8,283,1,48,43,1291016608
78,8,20,Ticks_Linear_8,284,1,48,41,1291541300
78,8,20,Ticks_Linear_8,285,5,42,127,1291552048
78,8,20,Ticks_Linear_8,286,5,42,127,1292081636
78,8,20,Ticks_Linear_8,287,1,48,47,1292095456
78,8,20,Ticks_Linear_8,288,5,42,127,1292611816
78,8,20,Ticks_Linear_8,289,1,48,46,1292625864
78,8,20,Ticks_Linear_8,290,1,48,48,1293124344
78,8,20,Ticks_Linear_8,291,5,42,127,1293142584
78,8,20,Ticks_Linear_8,292,1,48,48,1293634756
78,8,20,Ticks_Linear_8,293,5,42,127,1293671716
78,8,20,Ticks_Linear_8,294,1,48,41,1294184928
78,8,20,Ticks_Linear_8,295,5,42,127,1294202268
78,8,20,Ticks_Linear_8,296,5,42,127,1294722644
78,8,20,Ticks_Linear_8,297,1,48,45,1294727708
78,8,20,Ticks_Linear_8,298,1,48,48,1295235696
78,8,20,Ticks_Linear_8,299,5,42,127,1295251696
78,8,20,Ticks_Linear_8,300,1,48,35,1295771616
78,8,20,Ticks_Linear_8,301,5,42,127,1295773108
78,8,20,Ticks_Linear_8,302,1,48,42,1296288792
78,8,20,Ticks_Linear_8,303,5,42,127,1296292208
78,8,20,Ticks_Linear_8,304,5,42,127,1296812584
78,8,20,Ticks_Linear_8,305,1,48,38,1296824540
78,8,20,Ticks_Linear_8,306,5,42,127,1297322544
78,8,20,Ticks_Linear_8,307,1,48,37,1297354268
78,8,20,Ticks_Linear_8,308,1,48,46,1297820928
78,8,20,Ticks_Linear_8,309,5,42,127,1297832348
78,8,20,Ticks_Linear_8,310,5,42,127,1298342536
78,8,20,Ticks_Linear_8,311,1,48,45,1298353372
78,8,20,Ticks_Linear_8,312,5,42,127,1298852420
78,8,20,Ticks_Linear_8,313,1,48,47,1298856584
78,8,20,Ticks_Linear_8,314,5,42,127,1299362380
78,8,20,Ticks_Linear_8,315,1,48,44,1299388788
78,8,20,Ticks_Linear_8,316,5,42,127,1299862004
78,8,20,Ticks_Linear_8,317,1,48,46,1299868636
78,8,20,Ticks_Linear_8,318,1,48,47,1300356488
78,8,20,Ticks_Linear_8,319,5,42,127,1300361700
78,8,20,Ticks_Linear_8,320,1,48,41,1300853868
78,8,20,Ticks_Linear_8,321,5,42,127,1300862668
78,8,20,Ticks_Linear_8,322,5,42,127,1301361928
78,8,20,Ticks_Linear_8,323,1,48,46,1301366096
78,8,20,Ticks_Linear_8,324,5,42,127,1301861704
78,8,20,Ticks_Linear_8,325,1,48,48,1301865268
78,8,20,Ticks_Linear_8,326,1,48,48,1302341436
78,8,20,Ticks_Linear_8,327,5,42,127,1302352408
78,8,20,Ticks_Linear_8,328,1,48,46,1302837464
78,8,20,Ticks_Linear_8,329,5,42,127,1302841700
78,8,20,Ticks_Linear_8,330,1,48,46,1303308628
78,8,20,Ticks_Linear_8,331,5,42,127,1303332336
78,8,20,Ticks_Linear_8,332,5,42,127,1303821560
78,8,20,Ticks_Linear_8,333,1,48,43,1303841084
78,8,20,Ticks_Linear_8,334,5,42,127,1304312196
78,8,20,Ticks_Linear_8,0,9999,9999,9999,1193739380
78,8,20,Ticks_Linear_8,1,9999,9999,9999,1194559568
78,8,20,Ticks_Linear_8,2,9999,9999,9999,1195379832
78,8,20,Ticks_Linear_8,3,9999,9999,9999,1196200020
78,8,20,Ticks_Linear_8,4,9999,9999,9999,1197019232
78,8,20,Ticks_Linear_8,5,9999,9999,9999,1197829244
78,8,20,Ticks_Linear_8,6,9999,9999,9999,1198639228
78,8,20,Ticks_Linear_8,7,9999,9999,9999,1199449212
78,8,20,Ticks_Linear_8,8,9999,9999,9999,1200259192
78,8,20,Ticks_Linear_8,9,9999,9999,9999,1201069168
78,8,20,Ticks_Linear_8,10,9999,9999,9999,1201869948
78,8,20,Ticks_Linear_8,11,9999,9999,9999,1202669624
78,8,20,Ticks_Linear_8,12,9999,9999,9999,1203469416
78,8,20,Ticks_Linear_8,13,9999,9999,9999,1204269144
78,8,20,Ticks_Linear_8,14,9999,9999,9999,1205069916
78,8,20,Ticks_Linear_8,15,9999,9999,9999,1205859384
78,8,20,Ticks_Linear_8,16,9999,9999,9999,1206649968
78,8,20,Ticks_Linear_8,17,9999,9999,9999,1207439432
78,8,20,Ticks_Linear_8,18,9999,9999,9999,1208229944
78,8,20,Ticks_Linear_8,19,9999,9999,9999,1209019484
78,8,20,Ticks_Linear_8,20,9999,9999,9999,1209799736
78,8,20,Ticks_Linear_8,21,9999,9999,9999,1210580064
78,8,20,Ticks_Linear_8,22,9999,9999,9999,1211359344
78,8,20,Ticks_Linear_8,23,9999,9999,9999,1212139620
78,8,20,Ticks_Linear_8,24,9999,9999,9999,1212919872
78,8,20,Ticks_Linear_8,25,9999,9999,9999,1213689940
78,8,20,Ticks_Linear_8,26,9999,9999,9999,1214460000
78,8,20,Ticks_Linear_8,27,9999,9999,9999,1215230068
78,8,20,Ticks_Linear_8,28,9999,9999,9999,1216000064
78,8,20,Ticks_Linear_8,29,9999,9999,9999,1216779348
78,8,20,Ticks_Linear_8,30,9999,9999,9999,1217539152
78,8,20,Ticks_Linear_8,31,9999,9999,9999,1218300016
78,8,20,Ticks_Linear_8,32,9999,9999,9999,1219059816
78,8,20,Ticks_Linear_8,33,9999,9999,9999,1219819632
78,8,20,Ticks_Linear_8,34,9999,9999,9999,1220579416
78,8,20,Ticks_Linear_8,35,9999,9999,9999,1221330008
78,8,20,Ticks_Linear_8,36,9999,9999,9999,1222079556
78,8,20,Ticks_Linear_8,37,9999,9999,9999,1222829112
78,8,20,Ticks_Linear_8,38,9999,9999,9999,1223579708
78,8,20,Ticks_Linear_8,39,9999,9999,9999,1224329332
78,8,20,Ticks_Linear_8,40,9999,9999,9999,1225069664
78,8,20,Ticks_Linear_8,41,9999,9999,9999,1225810012
78,8,20,Ticks_Linear_8,42,9999,9999,9999,1226549376
78,8,20,Ticks_Linear_8,43,9999,9999,9999,1227289712
78,8,20,Ticks_Linear_8,44,9999,9999,9999,1228030048
78,8,20,Ticks_Linear_8,45,9999,9999,9999,1228759132
78,8,20,Ticks_Linear_8,46,9999,9999,9999,1229489212
78,8,20,Ticks_Linear_8,47,9999,9999,9999,1230219368
78,8,20,Ticks_Linear_8,48,9999,9999,9999,1230949444
78,8,20,Ticks_Linear_8,49,9999,9999,9999,1231679596
78,8,20,Ticks_Linear_8,50,9999,9999,9999,1232399484
78,8,20,Ticks_Linear_8,51,9999,9999,9999,1233119284
78,8,20,Ticks_Linear_8,52,9999,9999,9999,1233839180
78,8,20,Ticks_Linear_8,53,9999,9999,9999,1234560120
78,8,20,Ticks_Linear_8,54,9999,9999,9999,1235289180
78,8,20,Ticks_Linear_8,55,9999,9999,9999,1235999832
78,8,20,Ticks_Linear_8,56,9999,9999,9999,1236709440
78,8,20,Ticks_Linear_8,57,9999,9999,9999,1237419076
78,8,20,Ticks_Linear_8,58,9999,9999,9999,1238129760
78,8,20,Ticks_Linear_8,59,9999,9999,9999,1238839392
78,8,20,Ticks_Linear_8,60,9999,9999,9999,1239539816
78,8,20,Ticks_Linear_8,61,9999,9999,9999,1240239168
78,8,20,Ticks_Linear_8,62,9999,9999,9999,1240939588
78,8,20,Ticks_Linear_8,63,9999,9999,9999,1241640004
78,8,20,Ticks_Linear_8,64,9999,9999,9999,1242339432
78,8,20,Ticks_Linear_8,65,9999,9999,9999,1243029572
78,8,20,Ticks_Linear_8,66,9999,9999,9999,1243719736
78,8,20,Ticks_Linear_8,67,9999,9999,9999,1244409964
78,8,20,Ticks_Linear_8,68,9999,9999,9999,1245099064
78,8,20,Ticks_Linear_8,69,9999,9999,9999,1245789296
78,8,20,Ticks_Linear_8,70,9999,9999,9999,1246469204
78,8,20,Ticks_Linear_8,71,9999,9999,9999,1247149160
78,8,20,Ticks_Linear_8,72,9999,9999,9999,1247830104
78,8,20,Ticks_Linear_8,73,9999,9999,9999,1248519224
78,8,20,Ticks_Linear_8,74,9999,9999,9999,1249199180
78,8,20,Ticks_Linear_8,75,9999,9999,9999,1249869944
78,8,20,Ticks_Linear_8,76,9999,9999,9999,1250539588
78,8,20,Ticks_Linear_8,77,9999,9999,9999,1251209284
78,8,20,Ticks_Linear_8,78,9999,9999,9999,1251880044
78,8,20,Ticks_Linear_8,79,9999,9999,9999,1252549744
78,8,20,Ticks_Linear_8,80,9999,9999,9999,1253209208
78,8,20,Ticks_Linear_8,81,9999,9999,9999,1253869640
78,8,20,Ticks_Linear_8,82,9999,9999,9999,1254529148
78,8,20,Ticks_Linear_8,83,9999,9999,9999,1255189580
78,8,20,Ticks_Linear_8,84,9999,9999,9999,1255850060
78,8,20,Ticks_Linear_8,85,9999,9999,9999,1256499256
78,8,20,Ticks_Linear_8,86,9999,9999,9999,1257149564
78,8,20,Ticks_Linear_8,87,9999,9999,9999,1257799736
78,8,20,Ticks_Linear_8,88,9999,9999,9999,1258450032
78,8,20,Ticks_Linear_8,89,9999,9999,9999,1259099236
78,8,20,Ticks_Linear_8,90,9999,9999,9999,1259739196
78,8,20,Ticks_Linear_8,91,9999,9999,9999,1260379256
78,8,20,Ticks_Linear_8,92,9999,9999,9999,1261019220
78,8,20,Ticks_Linear_8,93,9999,9999,9999,1261659216
78,8,20,Ticks_Linear_8,94,9999,9999,9999,1262299252
78,8,20,Ticks_Linear_8,95,9999,9999,9999,1262930028
78,8,20,Ticks_Linear_8,96,9999,9999,9999,1263559804
78,8,20,Ticks_Linear_8,97,9999,9999,9999,1264189532
78,8,20,Ticks_Linear_8,98,9999,9999,9999,1264819316
78,8,20,Ticks_Linear_8,99,9999,9999,9999,1265450092
78,8,20,Ticks_Linear_8,100,9999,9999,9999,1266069612
78,8,20,Ticks_Linear_8,101,9999,9999,9999,1266689088
78,8,20,Ticks_Linear_8,102,9999,9999,9999,1267309644
78,8,20,Ticks_Linear_8,103,9999,9999,9999,1267929172
78,8,20,Ticks_Linear_8,104,9999,9999,9999,1268549756
78,8,20,Ticks_Linear_8,105,9999,9999,9999,1269159992
78,8,20,Ticks_Linear_8,106,9999,9999,9999,1269769284
78,8,20,Ticks_Linear_8,107,9999,9999,9999,1270379592
78,8,20,Ticks_Linear_8,108,9999,9999,9999,1270989892
78,8,20,Ticks_Linear_8,109,9999,9999,9999,1271599180
78,8,20,Ticks_Linear_8,110,9999,9999,9999,1272199236
78,8,20,Ticks_Linear_8,111,9999,9999,9999,1272799356
78,8,20,Ticks_Linear_8,112,9999,9999,9999,1273399356
78,8,20,Ticks_Linear_8,113,9999,9999,9999,1273999476
78,8,20,Ticks_Linear_8,114,9999,9999,9999,1274599548
78,8,20,Ticks_Linear_8,115,9999,9999,9999,1275189344
78,8,20,Ticks_Linear_8,116,9999,9999,9999,1275779128
78,8,20,Ticks_Linear_8,117,9999,9999,9999,1276370044
78,8,20,Ticks_Linear_8,118,9999,9999,9999,1276959860
78,8,20,Ticks_Linear_8,119,9999,9999,9999,1277549648
78,8,20,Ticks_Linear_8,120,9999,9999,9999,1278129280
78,8,20,Ticks_Linear_8,121,9999,9999,9999,1278709852
78,8,20,Ticks_Linear_8,122,9999,9999,9999,1279289456
78,8,20,Ticks_Linear_8,123,9999,9999,9999,1279870032
78,8,20,Ticks_Linear_8,124,9999,9999,9999,1280449636
78,8,20,Ticks_Linear_8,125,9999,9999,9999,1281019980
78,8,20,Ticks_Linear_8,126,9999,9999,9999,1281589324
78,8,20,Ticks_Linear_8,127,9999,9999,9999,1282159728
78,8,20,Ticks_Linear_8,128,9999,9999,9999,1282730040
78,8,20,Ticks_Linear_8,129,9999,9999,9999,1283299416
78,8,20,Ticks_Linear_8,130,9999,9999,9999,1283859544
78,8,20,Ticks_Linear_8,131,9999,9999,9999,1284419684
78,8,20,Ticks_Linear_8,132,9999,9999,9999,1284979812
78,8,20,Ticks_Linear_8,133,9999,9999,9999,1285539944
78,8,20,Ticks_Linear_8,134,9999,9999,9999,1286100076
78,8,20,Ticks_Linear_8,135,9999,9999,9999,1286649912
78,8,20,Ticks_Linear_8,136,9999,9999,9999,1287199864
78,8,20,Ticks_Linear_8,137,9999,9999,9999,1287749732
78,8,20,Ticks_Linear_8,138,9999,9999,9999,1288299648
78,8,20,Ticks_Linear_8,139,9999,9999,9999,1288849484
78,8,20,Ticks_Linear_8,140,9999,9999,9999,1289389176
78,8,20,Ticks_Linear_8,141,9999,9999,9999,1289929832
78,8,20,Ticks_Linear_8,142,9999,9999,9999,1290469472
78,8,20,Ticks_Linear_8,143,9999,9999,9999,1291009096
78,8,20,Ticks_Linear_8,144,9999,9999,9999,1291549752
78,8,20,Ticks_Linear_8,145,9999,9999,9999,1292079188
78,8,20,Ticks_Linear_8,146,9999,9999,9999,1292609592
78,8,20,Ticks_Linear_8,147,9999,9999,9999,1293140064
78,8,20,Ticks_Linear_8,148,9999,9999,9999,1293669492
78,8,20,Ticks_Linear_8,149,9999,9999,9999,1294199896
78,8,20,Ticks_Linear_8,150,9999,9999,9999,1294720120
78,8,20,Ticks_Linear_8,151,9999,9999,9999,1295249472
78,8,20,Ticks_Linear_8,152,9999,9999,9999,1295769696
78,8,20,Ticks_Linear_8,153,9999,9999,9999,1296289908
78,8,20,Ticks_Linear_8,154,9999,9999,9999,1296810060
78,8,20,Ticks_Linear_8,155,9999,9999,9999,1297320020
78,8,20,Ticks_Linear_8,156,9999,9999,9999,1297829972
78,8,20,Ticks_Linear_8,157,9999,9999,9999,1298339936
78,8,20,Ticks_Linear_8,158,9999,9999,9999,1298849900
78,8,20,Ticks_Linear_8,159,9999,9999,9999,1299359856
78,8,20,Ticks_Linear_8,160,9999,9999,9999,1299859556
78,8,20,Ticks_Linear_8,161,9999,9999,9999,1300359252
78,8,20,Ticks_Linear_8,162,9999,9999,9999,1300859996
78,8,20,Ticks_Linear_8,163,9999,9999,9999,1301359704
78,8,20,Ticks_Linear_8,164,9999,9999,9999,1301859404
78,8,20,Ticks_Linear_8,165,9999,9999,9999,1302349888
78,8,20,Ticks_Linear_8,166,9999,9999,9999,1302839400
78,8,20,Ticks_Linear_8,167,9999,9999,9999,1303329888
78,8,20,Ticks_Linear_8,168,9999,9999,9999,1303819336
78,8,20,Ticks_Linear_8,169,9999,9999,9999,1304309824
78,9,10,Ticks_ISO_T2_5,0,5,42,127,1313976576
78,9,10,Ticks_ISO_T2_5,1,5,42,127,1314477488
78,9,10,Ticks_ISO_T2_5,2,5,42,127,1314977128
78,9,10,Ticks_ISO_T2_5,3,5,42,127,1315476772
78,9,10,Ticks_ISO_T2_5,4,1,48,43,1315931040
78,9,10,Ticks_ISO_T2_5,5,5,42,127,1315976480
78,9,10,Ticks_ISO_T2_5,6,1,48,38,1316428420
78,9,10,Ticks_ISO_T2_5,7,5,42,127,1316477220
78,9,10,Ticks_ISO_T2_5,8,1,48,34,1316966936
78,9,10,Ticks_ISO_T2_5,9,5,42,127,1316977216
78,9,10,Ticks_ISO_T2_5,10,5,42,127,1317476620
78,9,10,Ticks_ISO_T2_5,11,1,48,44,1317480112
78,9,10,Ticks_ISO_T2_5,12,1,48,47,1317974716
78,9,10,Ticks_ISO_T2_5,13,5,42,127,1317976308
78,9,10,Ticks_ISO_T2_5,14,5,42,127,1318477128
78,9,10,Ticks_ISO_T2_5,15,1,48,50,1318482416
78,9,10,Ticks_ISO_T2_5,16,1,48,46,1318971096
78,9,10,Ticks_ISO_T2_5,17,5,42,127,1318976964
78,9,10,Ticks_ISO_T2_5,18,1,48,46,1319459272
78,9,10,Ticks_ISO_T2_5,19,5,42,127,1319476512
78,9,10,Ticks_ISO_T2_5,20,1,48,48,1319965924
78,9,10,Ticks_ISO_T2_5,21,5,42,127,1319977252
78,9,10,Ticks_ISO_T2_5,22,1,48,49,1320469808
78,9,10,Ticks_ISO_T2_5,23,5,42,127,1320477096
78,9,10,Ticks_ISO_T2_5,24,1,48,54,1320963148
78,9,10,Ticks_ISO_T2_5,25,5,42,127,1320976792
78,9,10,Ticks_ISO_T2_5,26,1,48,47,1321459620
78,9,10,Ticks_ISO_T2_5,27,5,42,127,1321476412
78,9,10,Ticks_ISO_T2_5,28,5,42,127,1321977308
78,9,10,Ticks_ISO_T2_5,29,1,48,51,1321990900
78,9,10,Ticks_ISO_T2_5,30,5,42,127,1322476928
78,9,10,Ticks_ISO_T2_5,31,1,48,51,1322492612
78,9,10,Ticks_ISO_T2_5,32,1,48,51,1322970872
78,9,10,Ticks_ISO_T2_5,33,5,42,127,1322976592
78,9,10,Ticks_ISO_T2_5,34,5,42,127,1323477564
78,9,10,Ticks_ISO_T2_5,35,1,48,51,1323480164
78,9,10,Ticks_ISO_T2_5,36,5,42,127,1323977036
78,9,10,Ticks_ISO_T2_5,37,1,48,53,1324004260
78,9,10,Ticks_ISO_T2_5,38,1,48,53,1324469732
78,9,10,Ticks_ISO_T2_5,39,5,42,127,1324477244
78,9,10,Ticks_ISO_T2_5,40,1,48,53,1324974144
78,9,10,Ticks_ISO_T2_5,41,5,42,127,1324976568
78,9,10,Ticks_ISO_T2_5,42,5,42,127,1325477316
78,9,10,Ticks_ISO_T2_5,43,1,48,56,1325481408
78,9,10,Ticks_ISO_T2_5,44,5,42,127,1325976936
78,9,10,Ticks_ISO_T2_5,45,1,48,52,1325985892
78,9,10,Ticks_ISO_T2_5,46,1,48,55,1326469932
78,9,10,Ticks_ISO_T2_5,47,5,42,127,1326476552
78,9,10,Ticks_ISO_T2_5,48,1,48,52,1326975480
78,9,10,Ticks_ISO_T2_5,49,5,42,127,1326977292
78,9,10,Ticks_ISO_T2_5,50,5,42,127,1327477216
78,9,10,Ticks_ISO_T2_5,51,1,48,50,1327480264
78,9,10,Ticks_ISO_T2_5,52,5,42,127,1327976984
78,9,10,Ticks_ISO_T2_5,53,1,48,51,1327978172
78,9,10,Ticks_ISO_T2_5,54,5,42,127,1328476456
78,9,10,Ticks_ISO_T2_5,55,1,48,49,1328502840
78,9,10,Ticks_ISO_T2_5,56,5,42,127,1328977348
78,9,10,Ticks_ISO_T2_5,57,1,48,49,1328986748
78,9,10,Ticks_ISO_T2_5,58,1,48,51,1329456056
78,9,10,Ticks_ISO_T2_5,59,5,42,127,1329477112
78,9,10,Ticks_ISO_T2_5,60,1,48,51,1329965996
78,9,10,Ticks_ISO_T2_5,61,5,42,127,1329976732
78,9,10,Ticks_ISO_T2_5,62,1,48,54,1330467492
78,9,10,Ticks_ISO_T2_5,63,5,42,127,1330477400
78,9,10,Ticks_ISO_T2_5,64,1,48,54,1330971448
78,9,10,Ticks_ISO_T2_5,65,5,42,127,1330977244
78,9,10,Ticks_ISO_T2_5,66,1,48,50,1331467408
78,9,10,Ticks_ISO_T2_5,67,5,42,127,1331477164
78,9,10,Ticks_ISO_T2_5,68,1,48,49,1331969496
78,9,10,Ticks_ISO_T2_5,69,5,42,127,1331976560
78,9,10,Ticks_ISO_T2_5,70,1,48,52,1332470836
78,9,10,Ticks_ISO_T2_5,71,5,42,127,1332477376
78,9,10,Ticks_ISO_T2_5,72,1,48,51,1332969180
78,9,10,Ticks_ISO_T2_5,73,5,42,127,1332977144
78,9,10,Ticks_ISO_T2_5,74,1,48,52,1333460404
78,9,10,Ticks_ISO_T2_5,75,5,42,127,1333477064
78,9,10,Ticks_ISO_T2_5,76,1,48,53,1333972140
78,9,10,Ticks_ISO_T2_5,77,5,42,127,1333976364
78,9,10,Ticks_ISO_T2_5,78,1,48,48,1334455752
78,9,10,Ticks_ISO_T2_5,79,5,42,127,1334477104
78,9,10,Ticks_ISO_T2_5,80,1,48,54,1334954104
78,9,10,Ticks_ISO_T2_5,81,5,42,127,1334977024
78,9,10,Ticks_ISO_T2_5,82,1,48,49,1335465540
78,9,10,Ticks_ISO_T2_5,83,5,42,127,1335476868
78,9,10,Ticks_ISO_T2_5,84,1,48,51,1335962916
78,9,10,Ticks_ISO_T2_5,85,5,42,127,1335977236
78,9,10,Ticks_ISO_T2_5,86,1,48,52,1336448844
78,9,10,Ticks_ISO_T2_5,87,5,42,127,1336477080
78,9,10,Ticks_ISO_T2_5,88,5,42,127,1336976932
78,9,10,Ticks_ISO_T2_5,89,1,48,54,1337000176
78,9,10,Ticks_ISO_T2_5,90,5,42,127,1337476404
78,9,10,Ticks_ISO_T2_5,91,1,48,55,1337500916
78,9,10,Ticks_ISO_T2_5,92,1,48,53,1337966552
78,9,10,Ticks_ISO_T2_5,93,5,42,127,1337977140
78,9,10,Ticks_ISO_T2_5,94,1,48,49,1338459148
78,9,10,Ticks_ISO_T2_5,95,5,42,127,1338476980
78,9,10,Ticks_ISO_T2_5,96,1,48,58,1338950764
78,9,10,Ticks_ISO_T2_5,97,5,42,127,1338976900
78,9,10,Ticks_ISO_T2_5,98,1,48,52,1339460928
78,9,10,Ticks_ISO_T2_5,99,5,42,127,1339477492
78,9,10,Ticks_ISO_T2_5,100,1,48,48,1339951944
78,9,10,Ticks_ISO_T2_5,101,5,42,127,1339977112
78,9,10,Ticks_ISO_T2_5,102,5,42,127,1340477036
78,9,10,Ticks_ISO_T2_5,103,1,48,54,1340479784
78,9,10,Ticks_ISO_T2_5,104,1,48,49,1340970928
78,9,10,Ticks_ISO_T2_5,105,5,42,127,1340976500
78,9,10,Ticks_ISO_T2_5,106,1,48,51,1341473540
78,9,10,Ticks_ISO_T2_5,107,5,42,127,1341477240
78,9,10,Ticks_ISO_T2_5,108,1,48,54,1341966204
78,9,10,Ticks_ISO_T2_5,109,5,42,127,1341976940
78,9,10,Ticks_ISO_T2_5,110,1,48,51,1342458496
78,9,10,Ticks_ISO_T2_5,111,5,42,127,1342476856
78,9,10,Ticks_ISO_T2_5,112,1,48,54,1342945328
78,9,10,Ticks_ISO_T2_5,113,5,42,127,1342977376
78,9,10,Ticks_ISO_T2_5,114,1,48,50,1343454192
78,9,10,Ticks_ISO_T2_5,115,5,42,127,1343476996
78,9,10,Ticks_ISO_T2_5,116,1,48,48,1343963984
78,9,10,Ticks_ISO_T2_5,117,5,42,127,1343976912
78,9,10,Ticks_ISO_T2_5,118,1,48,52,1344460240
78,9,10,Ticks_ISO_T2_5,119,5,42,127,1344476728
78,9,10,Ticks_ISO_T2_5,120,1,48,55,1344958816
78,9,10,Ticks_ISO_T2_5,121,5,42,127,1344977324
78,9,10,Ticks_ISO_T2_5,122,1,48,52,1345460000
78,9,10,Ticks_ISO_T2_5,123,5,42,127,1345476940
78,9,10,Ticks_ISO_T2_5,124,1,48,53,1345971888
78,9,10,Ticks_ISO_T2_5,125,5,42,127,1345976784
78,9,10,Ticks_ISO_T2_5,126,1,48,49,1346453708
78,9,10,Ticks_ISO_T2_5,127,5,42,127,1346477524
78,9,10,Ticks_ISO_T2_5,128,5,42,127,1346977152
78,9,10,Ticks_ISO_T2_5,129,1,48,53,1346987156
78,9,10,Ticks_ISO_T2_5,130,5,42,127,1347476700
78,9,10,Ticks_ISO_T2_5,131,1,48,51,1347495152
78,9,10,Ticks_ISO_T2_5,132,1,48,49,1347958852
78,9,10,Ticks_ISO_T2_5,133,5,42,127,1347976760
78,9,10,Ticks_ISO_T2_5,134,1,48,50,1348473580
78,9,10,Ticks_ISO_T2_5,135,5,42,127,1348477280
78,9,10,Ticks_ISO_T2_5,136,5,42,127,1348976984
78,9,10,Ticks_ISO_T2_5,137,1,48,54,1348980324
78,9,10,Ticks_ISO_T2_5,138,1,48,48,1349469604
78,9,10,Ticks_ISO_T2_5,139,5,42,127,1349476596
78,9,10,Ticks_ISO_T2_5,140,5,42,127,1349976520
78,9,10,Ticks_ISO_T2_5,141,1,48,52,1349989136
78,9,10,Ticks_ISO_T2_5,142,1,48,52,1350448120
78,9,10,Ticks_ISO_T2_5,143,5,42,127,1350477104
78,9,10,Ticks_ISO_T2_5,144,1,48,52,1350956868
78,9,10,Ticks_ISO_T2_5,145,5,42,127,1350977024
78,9,10,Ticks_ISO_T2_5,146,1,48,54,1351456336
78,9,10,Ticks_ISO_T2_5,147,5,42,127,1351476568
78,9,10,Ticks_ISO_T2_5,148,1,48,53,1351952892
78,9,10,Ticks_ISO_T2_5,149,5,42,127,1351977456
78,9,10,Ticks_ISO_T2_5,150,1,48,51,1352454456
78,9,10,Ticks_ISO_T2_5,151,5,42,127,1352477004
78,9,10,Ticks_ISO_T2_5,152,1,48,55,1352958340
78,9,10,Ticks_ISO_T2_5,153,5,42,127,1352976848
78,9,10,Ticks_ISO_T2_5,154,1,48,54,1353434968
78,9,10,Ticks_ISO_T2_5,155,5,42,127,1353476616
78,9,10,Ticks_ISO_T2_5,156,1,48,51,1353971716
78,9,10,Ticks_ISO_T2_5,157,5,42,127,1353977060
78,9,10,Ticks_ISO_T2_5,158,5,42,127,1354476912
78,9,10,Ticks_ISO_T2_5,159,1,48,49,1354486088
78,9,10,Ticks_ISO_T2_5,160,1,48,55,1354955972
78,9,10,Ticks_ISO_T2_5,161,5,42,127,1354976672
78,9,10,Ticks_ISO_T2_5,162,1,48,56,1355459476
78,9,10,Ticks_ISO_T2_5,163,5,42,127,1355477464
78,9,10,Ticks_ISO_T2_5,164,1,48,53,1355965004
78,9,10,Ticks_ISO_T2_5,165,5,42,127,1355977084
78,9,10,Ticks_ISO_T2_5,166,1,48,54,1356473228
78,9,10,Ticks_ISO_T2_5,167,5,42,127,1356476780
78,9,10,Ticks_ISO_T2_5,168,1,48,49,1356956696
78,9,10,Ticks_ISO_T2_5,169,5,42,127,1356976476
78,9,10,Ticks_ISO_T2_5,170,1,48,51,1357457284
78,9,10,Ticks_ISO_T2_5,171,5,42,127,1357477440
78,9,10,Ticks_ISO_T2_5,172,1,48,55,1357948304
78,9,10,Ticks_ISO_T2_5,173,5,42,127,1357976912
78,9,10,Ticks_ISO_T2_5,174,1,48,47,1358447324
78,9,10,Ticks_ISO_T2_5,175,5,42,127,1358476532
78,9,10,Ticks_ISO_T2_5,176,1,48,51,1358965420
78,9,10,Ticks_ISO_T2_5,177,5,42,127,1358977572
78,9,10,Ticks_ISO_T2_5,178,5,42,127,1359477348
78,9,10,Ticks_ISO_T2_5,179,1,48,55,1359490040
78,9,10,Ticks_ISO_T2_5,180,5,42,127,1359976744
78,9,10,Ticks_ISO_T2_5,181,1,48,54,1359980912
78,9,10,Ticks_ISO_T2_5,182,1,48,50,1360462112
78,9,10,Ticks_ISO_T2_5,183,5,42,127,1360476432
78,9,10,Ticks_ISO_T2_5,184,1,48,56,1360965248
78,9,10,Ticks_ISO_T2_5,185,5,42,127,1360977472
78,9,10,Ticks_ISO_T2_5,186,5,42,127,1361476952
78,9,10,Ticks_ISO_T2_5,187,1,48,55,1361489640
78,9,10,Ticks_ISO_T2_5,188,1,48,40,1361974900
78,9,10,Ticks_ISO_T2_5,189,5,42,127,1361976640
78,9,10,Ticks_ISO_T2_5,190,5,42,127,1362477536
78,9,10,Ticks_ISO_T2_5,191,1,48,52,1362488660
78,9,10,Ticks_ISO_T2_5,192,1,48,54,1362930592
78,9,10,Ticks_ISO_T2_5,193,5,42,127,1362977076
78,9,10,Ticks_ISO_T2_5,194,1,48,50,1363445920
78,9,10,Ticks_ISO_T2_5,195,5,42,127,1363476700
78,9,10,Ticks_ISO_T2_5,196,1,48,57,1363958552
78,9,10,Ticks_ISO_T2_5,197,5,42,127,1363976616
78,9,10,Ticks_ISO_T2_5,198,1,48,55,1364462064
78,9,10,Ticks_ISO_T2_5,199,5,42,127,1364477504
78,9,10,Ticks_ISO_T2_5,200,1,48,56,1364969460
78,9,10,Ticks_ISO_T2_5,201,5,42,127,1364977276
78,9,10,Ticks_ISO_T2_5,202,1,48,55,1365470256
78,9,10,Ticks_ISO_T2_5,203,5,42,127,1365476672
78,9,10,Ticks_ISO_T2_5,204,1,48,51,1365957684
78,9,10,Ticks_ISO_T2_5,205,5,42,127,1365976416
78,9,10,Ticks_ISO_T2_5,206,1,48,55,1366452516
78,9,10,Ticks_ISO_T2_5,207,5,42,127,1366477456
78,9,10,Ticks_ISO_T2_5,208,1,48,52,1366957596
78,9,10,Ticks_ISO_T2_5,209,5,42,127,1366976780
78,9,10,Ticks_ISO_T2_5,210,1,48,54,1367466564
78,9,10,Ticks_ISO_T2_5,211,5,42,127,1367476696
78,9,10,Ticks_ISO_T2_5,212,1,48,53,1367947340
78,9,10,Ticks_ISO_T2_5,213,5,42,127,1367977512
78,9,10,Ticks_ISO_T2_5,214,1,48,50,1368467448
78,9,10,Ticks_ISO_T2_5,215,5,42,127,1368477280
78,9,10,Ticks_ISO_T2_5,216,1,48,53,1368960712
78,9,10,Ticks_ISO_T2_5,217,5,42,127,1368976680
78,9,10,Ticks_ISO_T2_5,218,1,48,58,1369457488
78,9,10,Ticks_ISO_T2_5,219,5,42,127,1369476448
78,9,10,Ticks_ISO_T2_5,220,1,48,53,1369941552
78,9,10,Ticks_ISO_T2_5,221,5,42,127,1369977560
78,9,10,Ticks_ISO_T2_5,222,1,48,55,1370442512
78,9,10,Ticks_ISO_T2_5,223,5,42,127,1370476956
78,9,10,Ticks_ISO_T2_5,224,1,48,53,1370945276
78,9,10,Ticks_ISO_T2_5,225,5,42,127,1370976576
78,9,10,Ticks_ISO_T2_5,226,1,48,55,1371464796
78,9,10,Ticks_ISO_T2_5,227,5,42,127,1371477392
78,9,10,Ticks_ISO_T2_5,228,5,42,127,1371977168
78,9,10,Ticks_ISO_T2_5,229,1,48,55,1371989340
78,9,10,Ticks_ISO_T2_5,230,1,48,54,1372473304
78,9,10,Ticks_ISO_T2_5,231,5,42,127,1372476708
78,9,10,Ticks_ISO_T2_5,232,1,48,51,1372951988
78,9,10,Ticks_ISO_T2_5,233,5,42,127,1372976480
78,9,10,Ticks_ISO_T2_5,234,5,42,127,1373477152
78,9,10,Ticks_ISO_T2_5,235,1,48,51,1373482068
78,9,10,Ticks_ISO_T2_5,236,5,42,127,1373977072
78,9,10,Ticks_ISO_T2_5,237,1,48,52,1373983480
78,9,10,Ticks_ISO_T2_5,238,1,48,52,1374462140
78,9,10,Ticks_ISO_T2_5,239,5,42,127,1374476536
78,9,10,Ticks_ISO_T2_5,240,1,48,57,1374969016
78,9,10,Ticks_ISO_T2_5,241,5,42,127,1374977352
78,9,10,Ticks_ISO_T2_5,242,1,48,51,1375466768
78,9,10,Ticks_ISO_T2_5,243,5,42,127,1375477196
78,9,10,Ticks_ISO_T2_5,244,1,48,54,1375974772
78,9,10,Ticks_ISO_T2_5,245,5,42,127,1375976740
78,9,10,Ticks_ISO_T2_5,246,1,48,58,1376468224
78,9,10,Ticks_ISO_T2_5,247,5,42,127,1376476484
78,9,10,Ticks_ISO_T2_5,248,1,48,54,1376968288
78,9,10,Ticks_ISO_T2_5,249,5,42,127,1376977152
78,9,10,Ticks_ISO_T2_5,250,5,42,127,1377476928
78,9,10,Ticks_ISO_T2_5,251,1,48,42,1377478788
78,9,10,Ticks_ISO_T2_5,252,1,48,50,1377966928
78,9,10,Ticks_ISO_T2_5,253,5,42,127,1377976540
78,9,10,Ticks_ISO_T2_5,254,5,42,127,1378477364
78,9,10,Ticks_ISO_T2_5,255,1,48,41,1378486236
78,9,10,Ticks_ISO_T2_5,0,9999,9999,9999,1313974360
78,9,10,Ticks_ISO_T2_5,1,9999,9999,9999,1314475124
78,9,10,Ticks_ISO_T2_5,2,9999,9999,9999,1314974840
78,9,10,Ticks_ISO_T2_5,3,9999,9999,9999,1315474484
78,9,10,Ticks_ISO_T2_5,4,9999,9999,9999,1315974192
78,9,10,Ticks_ISO_T2_5,5,9999,9999,9999,1316474932
78,9,10,Ticks_ISO_T2_5,6,9999,9999,9999,1316974704
78,9,10,Ticks_ISO_T2_5,7,9999,9999,9999,1317474404
78,9,10,Ticks_ISO_T2_5,8,9999,9999,9999,1317974116
78,9,10,Ticks_ISO_T2_5,9,9999,9999,9999,1318474840
78,9,10,Ticks_ISO_T2_5,10,9999,9999,9999,1318974528
78,9,10,Ticks_ISO_T2_5,11,9999,9999,9999,1319474296
78,9,10,Ticks_ISO_T2_5,12,9999,9999,9999,1319974964
78,9,10,Ticks_ISO_T2_5,13,9999,9999,9999,1320474736
78,9,10,Ticks_ISO_T2_5,14,9999,9999,9999,1320974428
78,9,10,Ticks_ISO_T2_5,15,9999,9999,9999,1321474124
78,9,10,Ticks_ISO_T2_5,16,9999,9999,9999,1321974872
78,9,10,Ticks_ISO_T2_5,17,9999,9999,9999,1322474568
78,9,10,Ticks_ISO_T2_5,18,9999,9999,9999,1322974304
78,9,10,Ticks_ISO_T2_5,19,9999,9999,9999,1323475052
78,9,10,Ticks_ISO_T2_5,20,9999,9999,9999,1323974748
78,9,10,Ticks_ISO_T2_5,21,9999,9999,9999,1324474436
78,9,10,Ticks_ISO_T2_5,22,9999,9999,9999,1324974204
78,9,10,Ticks_ISO_T2_5,23,9999,9999,9999,1325474876
78,9,10,Ticks_ISO_T2_5,24,9999,9999,9999,1325974648
78,9,10,Ticks_ISO_T2_5,25,9999,9999,9999,1326474336
78,9,10,Ticks_ISO_T2_5,26,9999,9999,9999,1326975028
78,9,10,Ticks_ISO_T2_5,27,9999,9999,9999,1327474780
78,9,10,Ticks_ISO_T2_5,28,9999,9999,9999,1327974472
78,9,10,Ticks_ISO_T2_5,29,9999,9999,9999,1328474168
78,9,10,Ticks_ISO_T2_5,30,9999,9999,9999,1328974912
78,9,10,Ticks_ISO_T2_5,31,9999,9999,9999,1329474672
78,9,10,Ticks_ISO_T2_5,32,9999,9999,9999,1329974368
78,9,10,Ticks_ISO_T2_5,33,9999,9999,9999,1330475112
78,9,10,Ticks_ISO_T2_5,34,9999,9999,9999,1330974808
78,9,10,Ticks_ISO_T2_5,35,9999,9999,9999,1331474500
78,9,10,Ticks_ISO_T2_5,36,9999,9999,9999,1331974196
78,9,10,Ticks_ISO_T2_5,37,9999,9999,9999,1332474940
78,9,10,Ticks_ISO_T2_5,38,9999,9999,9999,1332974708
78,9,10,Ticks_ISO_T2_5,39,9999,9999,9999,1333474404
78,9,10,Ticks_ISO_T2_5,40,9999,9999,9999,1333974076
78,9,10,Ticks_ISO_T2_5,41,9999,9999,9999,1334474816
78,9,10,Ticks_ISO_T2_5,42,9999,9999,9999,1334974512
78,9,10,Ticks_ISO_T2_5,43,9999,9999,9999,1335474284
78,9,10,Ticks_ISO_T2_5,44,9999,9999,9999,1335975024
78,9,10,Ticks_ISO_T2_5,45,9999,9999,9999,1336474716
78,9,10,Ticks_ISO_T2_5,46,9999,9999,9999,1336974420
78,9,10,Ticks_ISO_T2_5,47,9999,9999,9999,1337474116
78,9,10,Ticks_ISO_T2_5,48,9999,9999,9999,1337974848
78,9,10,Ticks_ISO_T2_5,49,9999,9999,9999,1338474544
78,9,10,Ticks_ISO_T2_5,50,9999,9999,9999,1338974312
78,9,10,Ticks_ISO_T2_5,51,9999,9999,9999,1339475056
78,9,10,Ticks_ISO_T2_5,52,9999,9999,9999,1339974748
78,9,10,Ticks_ISO_T2_5,53,9999,9999,9999,1340474448
78,9,10,Ticks_ISO_T2_5,54,9999,9999,9999,1340974140
78,9,10,Ticks_ISO_T2_5,55,9999,9999,9999,1341474880
78,9,10,Ticks_ISO_T2_5,56,9999,9999,9999,1341974648
78,9,10,Ticks_ISO_T2_5,57,9999,9999,9999,1342474344
78,9,10,Ticks_ISO_T2_5,58,9999,9999,9999,1342975084
78,9,10,Ticks_ISO_T2_5,59,9999,9999,9999,1343474780
78,9,10,Ticks_ISO_T2_5,60,9999,9999,9999,1343974472
78,9,10,Ticks_ISO_T2_5,61,9999,9999,9999,1344474220
78,9,10,Ticks_ISO_T2_5,62,9999,9999,9999,1344974960
78,9,10,Ticks_ISO_T2_5,63,9999,9999,9999,1345474652
78,9,10,Ticks_ISO_T2_5,64,9999,9999,9999,1345974348
78,9,10,Ticks_ISO_T2_5,65,9999,9999,9999,1346475088
78,9,10,Ticks_ISO_T2_5,66,9999,9999,9999,1346974788
78,9,10,Ticks_ISO_T2_5,67,9999,9999,9999,1347474484
78,9,10,Ticks_ISO_T2_5,68,9999,9999,9999,1347974248
78,9,10,Ticks_ISO_T2_5,69,9999,9999,9999,1348474992
78,9,10,Ticks_ISO_T2_5,70,9999,9999,9999,1348974692
78,9,10,Ticks_ISO_T2_5,71,9999,9999,9999,1349474380
78,9,10,Ticks_ISO_T2_5,72,9999,9999,9999,1349974084
78,9,10,Ticks_ISO_T2_5,73,9999,9999,9999,1350474816
78,9,10,Ticks_ISO_T2_5,74,9999,9999,9999,1350974584
78,9,10,Ticks_ISO_T2_5,75,9999,9999,9999,1351474280
78,9,10,Ticks_ISO_T2_5,76,9999,9999,9999,1351975020
78,9,10,Ticks_ISO_T2_5,77,9999,9999,9999,1352474716
78,9,10,Ticks_ISO_T2_5,78,9999,9999,9999,1352974412
78,9,10,Ticks_ISO_T2_5,79,9999,9999,9999,1353474104
78,9,10,Ticks_ISO_T2_5,80,9999,9999,9999,1353974848
78,9,10,Ticks_ISO_T2_5,81,9999,9999,9999,1354474548
78,9,10,Ticks_ISO_T2_5,82,9999,9999,9999,1354974288
78,9,10,Ticks_ISO_T2_5,83,9999,9999,9999,1355475028
78,9,10,Ticks_ISO_T2_5,84,9999,9999,9999,1355974720
78,9,10,Ticks_ISO_T2_5,85,9999,9999,9999,1356474416
78,9,10,Ticks_ISO_T2_5,86,9999,9999,9999,1356974188
78,9,10,Ticks_ISO_T2_5,87,9999,9999,9999,1357474928
78,9,10,Ticks_ISO_T2_5,88,9999,9999,9999,1357974624
78,9,10,Ticks_ISO_T2_5,89,9999,9999,9999,1358474316
78,9,10,Ticks_ISO_T2_5,90,9999,9999,9999,1358975060
78,9,10,Ticks_ISO_T2_5,91,9999,9999,9999,1359474764
78,9,10,Ticks_ISO_T2_5,92,9999,9999,9999,1359974456
78,9,10,Ticks_ISO_T2_5,93,9999,9999,9999,1360474220
78,9,10,Ticks_ISO_T2_5,94,9999,9999,9999,1360974960
78,9,10,Ticks_ISO_T2_5,95,9999,9999,9999,1361474660
78,9,10,Ticks_ISO_T2_5,96,9999,9999,9999,1361974376
78,9,10,Ticks_ISO_T2_5,97,9999,9999,9999,1362475096
78,9,10,Ticks_ISO_T2_5,98,9999,9999,9999,1362974788
78,9,10,Ticks_ISO_T2_5,99,9999,9999,9999,1363474484
78,9,10,Ticks_ISO_T2_5,100,9999,9999,9999,1363974252
78,9,10,Ticks_ISO_T2_5,101,9999,9999,9999,1364474992
78,9,10,Ticks_ISO_T2_5,102,9999,9999,9999,1364974688
78,9,10,Ticks_ISO_T2_5,103,9999,9999,9999,1365474384
78,9,10,Ticks_ISO_T2_5,104,9999,9999,9999,1365974128
78,9,10,Ticks_ISO_T2_5,105,9999,9999,9999,1366474868
78,9,10,Ticks_ISO_T2_5,106,9999,9999,9999,1366974564
78,9,10,Ticks_ISO_T2_5,107,9999,9999,9999,1367474260
78,9,10,Ticks_ISO_T2_5,108,9999,9999,9999,1367975000
78,9,10,Ticks_ISO_T2_5,109,9999,9999,9999,1368474696
78,9,10,Ticks_ISO_T2_5,110,9999,9999,9999,1368974392
78,9,10,Ticks_ISO_T2_5,111,9999,9999,9999,1369474160
78,9,10,Ticks_ISO_T2_5,112,9999,9999,9999,1369974900
78,9,10,Ticks_ISO_T2_5,113,9999,9999,9999,1370474596
78,9,10,Ticks_ISO_T2_5,114,9999,9999,9999,1370974288
78,9,10,Ticks_ISO_T2_5,115,9999,9999,9999,1371475032
78,9,10,Ticks_ISO_T2_5,116,9999,9999,9999,1371974732
78,9,10,Ticks_ISO_T2_5,117,9999,9999,9999,1372474420
78,9,10,Ticks_ISO_T2_5,118,9999,9999,9999,1372974192
78,9,10,Ticks_ISO_T2_5,119,9999,9999,9999,1373474864
78,9,10,Ticks_ISO_T2_5,120,9999,9999,9999,1373974632
78,9,10,Ticks_ISO_T2_5,121,9999,9999,9999,1374474320
78,9,10,Ticks_ISO_T2_5,122,9999,9999,9999,1374975064
78,9,10,Ticks_ISO_T2_5,123,9999,9999,9999,1375474756
78,9,10,Ticks_ISO_T2_5,124,9999,9999,9999,1375974488
78,9,10,Ticks_ISO_T2_5,125,9999,9999,9999,1376474196
78,9,10,Ticks_ISO_T2_5,126,9999,9999,9999,1376974936
78,9,10,Ticks_ISO_T2_5,127,9999,9999,9999,1377474636
78,9,10,Ticks_ISO_T2_5,128,9999,9999,9999,1377974328
78,9,10,Ticks_ISO_T2_5,129,9999,9999,9999,1378475076
78,10,9,Ticks_ISO_T2_8,0,5,42,127,1390371088
78,10,9,Ticks_ISO_T2_8,1,5,42,127,1391171140
78,10,9,Ticks_ISO_T2_8,2,5,42,127,1391970820
78,10,9,Ticks_ISO_T2_8,3,5,42,127,1392770432
78,10,9,Ticks_ISO_T2_8,4,1,48,43,1393527656
78,10,9,Ticks_ISO_T2_8,5,5,42,127,1393571152
78,10,9,Ticks_ISO_T2_8,6,1,48,49,1394324248
78,10,9,Ticks_ISO_T2_8,7,5,42,127,1394370884
78,10,9,Ticks_ISO_T2_8,8,5,42,127,1395170800
78,10,9,Ticks_ISO_T2_8,9,1,48,48,1395224928
78,10,9,Ticks_ISO_T2_8,10,5,42,127,1395970380
78,10,9,Ticks_ISO_T2_8,11,1,48,51,1396006336
78,10,9,Ticks_ISO_T2_8,12,5,42,127,1396771236
78,10,9,Ticks_ISO_T2_8,13,1,48,46,1396809360
78,10,9,Ticks_ISO_T2_8,14,5,42,127,1397570896
78,10,9,Ticks_ISO_T2_8,15,1,48,52,1397600568
78,10,9,Ticks_ISO_T2_8,16,5,42,127,1398370924
78,10,9,Ticks_ISO_T2_8,17,1,48,53,1398398280
78,10,9,Ticks_ISO_T2_8,18,5,42,127,1399170288
78,10,9,Ticks_ISO_T2_8,19,1,48,54,1399193972
78,10,9,Ticks_ISO_T2_8,20,5,42,127,1399971140
78,10,9,Ticks_ISO_T2_8,21,1,48,55,1399998192
78,10,9,Ticks_ISO_T2_8,22,5,42,127,1400770872
78,10,9,Ticks_ISO_T2_8,23,1,48,57,1400777208
78,10,9,Ticks_ISO_T2_8,24,5,42,127,1401570856
78,10,9,Ticks_ISO_T2_8,25,1,48,51,1401585640
78,10,9,Ticks_ISO_T2_8,26,5,42,127,1402370440
78,10,9,Ticks_ISO_T2_8,27,1,48,51,1402396972
78,10,9,Ticks_ISO_T2_8,28,5,42,127,1403171072
78,10,9,Ticks_ISO_T2_8,29,1,48,58,1403184060
78,10,9,Ticks_ISO_T2_8,30,5,42,127,1403970804
78,10,9,Ticks_ISO_T2_8,31,1,48,52,1404005788
78,10,9,Ticks_ISO_T2_8,32,5,42,127,1404770836
78,10,9,Ticks_ISO_T2_8,33,1,48,55,1404803576
78,10,9,Ticks_ISO_T2_8,34,5,42,127,1405570568
78,10,9,Ticks_ISO_T2_8,35,1,48,58,1405574060
78,10,9,Ticks_ISO_T2_8,36,5,42,127,1406371124
78,10,9,Ticks_ISO_T2_8,37,1,48,55,1406387108
78,10,9,Ticks_ISO_T2_8,38,5,42,127,1407170860
78,10,9,Ticks_ISO_T2_8,39,1,48,54,1407181456
78,10,9,Ticks_ISO_T2_8,40,5,42,127,1407970616
78,10,9,Ticks_ISO_T2_8,41,1,48,52,1408003052
78,10,9,Ticks_ISO_T2_8,42,1,48,59,1408769296
78,10,9,Ticks_ISO_T2_8,43,5,42,127,1408770864
78,10,9,Ticks_ISO_T2_8,44,5,42,127,1409571132
78,10,9,Ticks_ISO_T2_8,45,1,48,57,1409580164
78,10,9,Ticks_ISO_T2_8,46,5,42,127,1410370864
78,10,9,Ticks_ISO_T2_8,47,1,48,62,1410395300
78,10,9,Ticks_ISO_T2_8,48,5,42,127,1411170672
78,10,9,Ticks_ISO_T2_8,49,1,48,58,1411194508
78,10,9,Ticks_ISO_T2_8,50,5,42,127,1411970704
78,10,9,Ticks_ISO_T2_8,51,1,48,55,1411971668
78,10,9,Ticks_ISO_T2_8,52,1,48,58,1412741000
78,10,9,Ticks_ISO_T2_8,53,5,42,127,1412771328
78,10,9,Ticks_ISO_T2_8,54,1,48,58,1413542084
78,10,9,Ticks_ISO_T2_8,55,5,42,127,1413570912
78,10,9,Ticks_ISO_T2_8,56,1,48,57,1414335376
78,10,9,Ticks_ISO_T2_8,57,5,42,127,1414370596
78,10,9,Ticks_ISO_T2_8,58,5,42,127,1415170336
78,10,9,Ticks_ISO_T2_8,59,1,48,54,1415194244
78,10,9,Ticks_ISO_T2_8,60,5,42,127,1415971336
78,10,9,Ticks_ISO_T2_8,61,1,48,53,1415994204
78,10,9,Ticks_ISO_T2_8,62,1,48,62,1416762732
78,10,9,Ticks_ISO_T2_8,63,5,42,127,1416770916
78,10,9,Ticks_ISO_T2_8,64,1,48,56,1417563736
78,10,9,Ticks_ISO_T2_8,65,5,42,127,1417570652
78,10,9,Ticks_ISO_T2_8,66,1,48,57,1418351952
78,10,9,Ticks_ISO_T2_8,67,5,42,127,1418370460
78,10,9,Ticks_ISO_T2_8,68,1,48,55,1419157144
78,10,9,Ticks_ISO_T2_8,69,5,42,127,1419171316
78,10,9,Ticks_ISO_T2_8,70,1,48,56,1419963536
78,10,9,Ticks_ISO_T2_8,71,5,42,127,1419970824
78,10,9,Ticks_ISO_T2_8,72,1,48,60,1420752868
78,10,9,Ticks_ISO_T2_8,73,5,42,127,1420770804
78,10,9,Ticks_ISO_T2_8,74,5,42,127,1421570396
78,10,9,Ticks_ISO_T2_8,75,1,48,56,1421584660
78,10,9,Ticks_ISO_T2_8,76,5,42,127,1422371472
78,10,9,Ticks_ISO_T2_8,77,1,48,62,1422374516
78,10,9,Ticks_ISO_T2_8,78,5,42,127,1423170908
78,10,9,Ticks_ISO_T2_8,79,1,48,62,1423179340
78,10,9,Ticks_ISO_T2_8,80,1,48,59,1423966492
78,10,9,Ticks_ISO_T2_8,81,5,42,127,1423970636
78,10,9,Ticks_ISO_T2_8,82,5,42,127,1424770304
78,10,9,Ticks_ISO_T2_8,83,1,48,61,1424782316
78,10,9,Ticks_ISO_T2_8,84,1,48,55,1425559824
78,10,9,Ticks_ISO_T2_8,85,5,42,127,1425571448
78,10,9,Ticks_ISO_T2_8,86,1,48,56,1426344520
78,10,9,Ticks_ISO_T2_8,87,5,42,127,1426371032
78,10,9,Ticks_ISO_T2_8,88,1,48,59,1427154500
78,10,9,Ticks_ISO_T2_8,89,5,42,127,1427170792
78,10,9,Ticks_ISO_T2_8,90,1,48,55,1427969176
78,10,9,Ticks_ISO_T2_8,91,5,42,127,1427970748
78,10,9,Ticks_ISO_T2_8,92,1,48,60,1428764612
78,10,9,Ticks_ISO_T2_8,93,5,42,127,1428771380
78,10,9,Ticks_ISO_T2_8,94,5,42,127,1429571120
78,10,9,Ticks_ISO_T2_8,95,1,48,59,1429585232
78,10,9,Ticks_ISO_T2_8,96,1,48,59,1430345452
78,10,9,Ticks_ISO_T2_8,97,5,42,127,1430370620
78,10,9,Ticks_ISO_T2_8,98,1,48,54,1431168240
78,10,9,Ticks_ISO_T2_8,99,5,42,127,1431170356
78,10,9,Ticks_ISO_T2_8,100,1,48,59,1431965264
78,10,9,Ticks_ISO_T2_8,101,5,42,127,1431971284
78,10,9,Ticks_ISO_T2_8,102,5,42,127,1432771324
78,10,9,Ticks_ISO_T2_8,103,1,48,56,1432776684
78,10,9,Ticks_ISO_T2_8,104,1,48,56,1433541172
78,10,9,Ticks_ISO_T2_8,105,5,42,127,1433570628
78,10,9,Ticks_ISO_T2_8,106,5,42,127,1434370516
78,10,9,Ticks_ISO_T2_8,107,1,48,54,1434379092
78,10,9,Ticks_ISO_T2_8,108,1,48,55,1435149264
78,10,9,Ticks_ISO_T2_8,109,5,42,127,1435171068
78,10,9,Ticks_ISO_T2_8,110,1,48,52,1435968220
78,10,9,Ticks_ISO_T2_8,111,5,42,127,1435971096
78,10,9,Ticks_ISO_T2_8,112,1,48,53,1436758232
78,10,9,Ticks_ISO_T2_8,113,5,42,127,1436770532
78,10,9,Ticks_ISO_T2_8,114,5,42,127,1437570496
78,10,9,Ticks_ISO_T2_8,115,1,48,51,1437577284
78,10,9,Ticks_ISO_T2_8,116,1,48,55,1438366900
78,10,9,Ticks_ISO_T2_8,117,5,42,127,1438371268
78,10,9,Ticks_ISO_T2_8,118,5,42,127,1439171008
78,10,9,Ticks_ISO_T2_8,119,1,48,54,1439172348
78,10,9,Ticks_ISO_T2_8,120,1,48,54,1439958436
78,10,9,Ticks_ISO_T2_8,121,5,42,127,1439970612
78,10,9,Ticks_ISO_T2_8,122,1,48,51,1440768608
78,10,9,Ticks_ISO_T2_8,123,5,42,127,1440770348
78,10,9,Ticks_ISO_T2_8,124,1,48,57,1441553444
78,10,9,Ticks_ISO_T2_8,125,5,42,127,1441571052
78,10,9,Ticks_ISO_T2_8,126,1,48,51,1442359832
78,10,9,Ticks_ISO_T2_8,127,5,42,127,1442371008
78,10,9,Ticks_ISO_T2_8,128,1,48,56,1443144008
78,10,9,Ticks_ISO_T2_8,129,5,42,127,1443170520
78,10,9,Ticks_ISO_T2_8,130,1,48,51,1443947108
78,10,9,Ticks_ISO_T2_8,131,5,42,127,1443970552
78,10,9,Ticks_ISO_T2_8,132,1,48,51,1444728664
78,10,9,Ticks_ISO_T2_8,133,5,42,127,1444771184
78,10,9,Ticks_ISO_T2_8,134,5,42,127,1445570852
78,10,9,Ticks_ISO_T2_8,135,1,48,52,1445571816
78,10,9,Ticks_ISO_T2_8,136,5,42,127,1446370532
78,10,9,Ticks_ISO_T2_8,137,1,48,60,1446371500
78,10,9,Ticks_ISO_T2_8,138,5,42,127,1447170268
78,10,9,Ticks_ISO_T2_8,139,1,48,57,1447189692
78,10,9,Ticks_ISO_T2_8,140,1,48,47,1447948264
78,10,9,Ticks_ISO_T2_8,141,5,42,127,1447971116
78,10,9,Ticks_ISO_T2_8,142,1,48,54,1448747328
78,10,9,Ticks_ISO_T2_8,143,5,42,127,1448770848
78,10,9,Ticks_ISO_T2_8,144,1,48,57,1449559924
78,10,9,Ticks_ISO_T2_8,145,5,42,127,1449570656
78,10,9,Ticks_ISO_T2_8,146,1,48,55,1450345072
78,10,9,Ticks_ISO_T2_8,147,5,42,127,1450370464
78,10,9,Ticks_ISO_T2_8,148,1,48,54,1451168444
78,10,9,Ticks_ISO_T2_8,149,5,42,127,1451171168
78,10,9,Ticks_ISO_T2_8,150,1,48,57,1451966832
78,10,9,Ticks_ISO_T2_8,151,5,42,127,1451970976
78,10,9,Ticks_ISO_T2_8,152,1,48,54,1452736192
78,10,9,Ticks_ISO_T2_8,153,5,42,127,1452770808
78,10,9,Ticks_ISO_T2_8,154,1,48,57,1453555776
78,10,9,Ticks_ISO_T2_8,155,5,42,127,1453570616
78,10,9,Ticks_ISO_T2_8,156,1,48,53,1454360972
78,10,9,Ticks_ISO_T2_8,157,5,42,127,1454371100
78,10,9,Ticks_ISO_T2_8,158,1,48,56,1455139756
78,10,9,Ticks_ISO_T2_8,159,5,42,127,1455170908
78,10,9,Ticks_ISO_T2_8,160,1,48,55,1455950784
78,10,9,Ticks_ISO_T2_8,161,5,42,127,1455970640
78,10,9,Ticks_ISO_T2_8,162,1,48,60,1456761292
78,10,9,Ticks_ISO_T2_8,163,5,42,127,1456770524
78,10,9,Ticks_ISO_T2_8,164,1,48,54,1457558108
78,10,9,Ticks_ISO_T2_8,165,5,42,127,1457571304
78,10,9,Ticks_ISO_T2_8,166,1,48,55,1458351856
78,10,9,Ticks_ISO_T2_8,167,5,42,127,1458370964
78,10,9,Ticks_ISO_T2_8,168,1,48,55,1459167992
78,10,9,Ticks_ISO_T2_8,169,5,42,127,1459170796
78,10,9,Ticks_ISO_T2_8,170,1,48,54,1459968944
78,10,9,Ticks_ISO_T2_8,171,5,42,127,1459970456
78,10,9,Ticks_ISO_T2_8,172,5,42,127,1460771092
78,10,9,Ticks_ISO_T2_8,173,1,48,56,1460781168
78,10,9,Ticks_ISO_T2_8,174,5,42,127,1461570828
78,10,9,Ticks_ISO_T2_8,175,1,48,60,1461588308
78,10,9,Ticks_ISO_T2_8,176,1,48,51,1462357876
78,10,9,Ticks_ISO_T2_8,177,5,42,127,1462370848
78,10,9,Ticks_ISO_T2_8,178,1,48,48,1463140932
78,10,9,Ticks_ISO_T2_8,179,5,42,127,1463170360
78,10,9,Ticks_ISO_T2_8,180,1,48,52,1463930268
78,10,9,Ticks_ISO_T2_8,181,5,42,127,1463971140
78,10,9,Ticks_ISO_T2_8,182,5,42,127,1464770952
78,10,9,Ticks_ISO_T2_8,183,1,48,53,1464773700
78,10,9,Ticks_ISO_T2_8,184,1,48,58,1465560180
78,10,9,Ticks_ISO_T2_8,185,5,42,127,1465570780
78,10,9,Ticks_ISO_T2_8,186,1,48,56,1466369920
78,10,9,Ticks_ISO_T2_8,187,5,42,127,1466371412
78,10,9,Ticks_ISO_T2_8,188,1,48,55,1467147100
78,10,9,Ticks_ISO_T2_8,189,5,42,127,1467171144
78,10,9,Ticks_ISO_T2_8,190,1,48,57,1467970588
78,10,9,Ticks_ISO_T2_8,191,5,42,127,1467972072
78,10,9,Ticks_ISO_T2_8,192,1,48,57,1468758088
78,10,9,Ticks_ISO_T2_8,193,5,42,127,1468770836
78,10,9,Ticks_ISO_T2_8,194,5,42,127,1469570800
78,10,9,Ticks_ISO_T2_8,195,1,48,53,1469595688
78,10,9,Ticks_ISO_T2_8,196,1,48,57,1470335112
78,10,9,Ticks_ISO_T2_8,197,5,42,127,1470371272
78,10,9,Ticks_ISO_T2_8,198,5,42,127,1471170864
78,10,9,Ticks_ISO_T2_8,199,1,48,54,1471184528
78,10,9,Ticks_ISO_T2_8,200,5,42,127,1471970696
78,10,9,Ticks_ISO_T2_8,201,1,48,55,1471986600
78,10,9,Ticks_ISO_T2_8,202,5,42,127,1472770576
78,10,9,Ticks_ISO_T2_8,203,1,48,58,1472792244
78,10,9,Ticks_ISO_T2_8,204,1,48,49,1473557032
78,10,9,Ticks_ISO_T2_8,205,5,42,127,1473571204
78,10,9,Ticks_ISO_T2_8,206,1,48,56,1474369892
78,10,9,Ticks_ISO_T2_8,207,5,42,127,1474371384
78,10,9,Ticks_ISO_T2_8,208,1,48,54,1475157620
78,10,9,Ticks_ISO_T2_8,209,5,42,127,1475170744
78,10,9,Ticks_ISO_T2_8,210,5,42,127,1475970784
78,10,9,Ticks_ISO_T2_8,211,1,48,46,1475990356
78,10,9,Ticks_ISO_T2_8,212,1,48,50,1476752600
78,10,9,Ticks_ISO_T2_8,213,5,42,127,1476771108
78,10,9,Ticks_ISO_T2_8,214,1,48,62,1477558768
78,10,9,Ticks_ISO_T2_8,215,5,42,127,1477570916
78,10,9,Ticks_ISO_T2_8,216,1,48,58,1478349372
78,10,9,Ticks_ISO_T2_8,217,5,42,127,1478370600
78,10,9,Ticks_ISO_T2_8,218,1,48,52,1479170564
78,10,9,Ticks_ISO_T2_8,219,5,42,127,1479171904
78,10,9,Ticks_ISO_T2_8,220,1,48,58,1479960612
78,10,9,Ticks_ISO_T2_8,221,5,42,127,1479971264
78,10,9,Ticks_ISO_T2_8,222,5,42,127,1480771008
78,10,9,Ticks_ISO_T2_8,223,1,48,49,1480788932
78,10,9,Ticks_ISO_T2_8,224,1,48,58,1481547584
78,10,9,Ticks_ISO_T2_8,225,5,42,127,1481570660
78,10,9,Ticks_ISO_T2_8,226,5,42,127,1482370396
78,10,9,Ticks_ISO_T2_8,227,1,48,47,1482372484
78,10,9,Ticks_ISO_T2_8,228,1,48,49,1483170128
78,10,9,Ticks_ISO_T2_8,229,5,42,127,1483171692
78,10,9,Ticks_ISO_T2_8,230,5,42,127,1483971060
78,10,9,Ticks_ISO_T2_8,231,1,48,49,1483993876
78,10,9,Ticks_ISO_T2_8,232,1,48,53,1484750112
78,10,9,Ticks_ISO_T2_8,233,5,42,127,1484770740
78,10,9,Ticks_ISO_T2_8,234,1,48,47,1485550696
78,10,9,Ticks_ISO_T2_8,235,5,42,127,1485570324
78,10,9,Ticks_ISO_T2_8,236,1,48,51,1486360296
78,10,9,Ticks_ISO_T2_8,0,9999,9999,9999,1390368872
78,10,9,Ticks_ISO_T2_8,1,9999,9999,9999,1391168628
78,10,9,Ticks_ISO_T2_8,2,9999,9999,9999,1391968308
78,10,9,Ticks_ISO_T2_8,3,9999,9999,9999,1392768064
78,10,9,Ticks_ISO_T2_8,4,9999,9999,9999,1393568864
78,10,9,Ticks_ISO_T2_8,5,9999,9999,9999,1394368596
78,10,9,Ticks_ISO_T2_8,6,9999,9999,9999,1395168360
78,10,9,Ticks_ISO_T2_8,7,9999,9999,9999,1395968092
78,10,9,Ticks_ISO_T2_8,8,9999,9999,9999,1396768872
78,10,9,Ticks_ISO_T2_8,9,9999,9999,9999,1397568608
78,10,9,Ticks_ISO_T2_8,10,9999,9999,9999,1398368340
78,10,9,Ticks_ISO_T2_8,11,9999,9999,9999,1399168072
78,10,9,Ticks_ISO_T2_8,12,9999,9999,9999,1399968852
78,10,9,Ticks_ISO_T2_8,13,9999,9999,9999,1400768584
78,10,9,Ticks_ISO_T2_8,14,9999,9999,9999,1401568344
78,10,9,Ticks_ISO_T2_8,15,9999,9999,9999,1402368076
78,10,9,Ticks_ISO_T2_8,16,9999,9999,9999,1403168856
78,10,9,Ticks_ISO_T2_8,17,9999,9999,9999,1403968588
78,10,9,Ticks_ISO_T2_8,18,9999,9999,9999,1404768324
78,10,9,Ticks_ISO_T2_8,19,9999,9999,9999,1405568056
78,10,9,Ticks_ISO_T2_8,20,9999,9999,9999,1406368836
78,10,9,Ticks_ISO_T2_8,21,9999,9999,9999,1407168572
78,10,9,Ticks_ISO_T2_8,22,9999,9999,9999,1407968328
78,10,9,Ticks_ISO_T2_8,23,9999,9999,9999,1408768060
78,10,9,Ticks_ISO_T2_8,24,9999,9999,9999,1409568844
78,10,9,Ticks_ISO_T2_8,25,9999,9999,9999,1410368576
78,10,9,Ticks_ISO_T2_8,26,9999,9999,9999,1411168308
78,10,9,Ticks_ISO_T2_8,27,9999,9999,9999,1411968116
78,10,9,Ticks_ISO_T2_8,28,9999,9999,9999,1412768816
78,10,9,Ticks_ISO_T2_8,29,9999,9999,9999,1413568624
78,10,9,Ticks_ISO_T2_8,30,9999,9999,9999,1414368304
78,10,9,Ticks_ISO_T2_8,31,9999,9999,9999,1415168048
78,10,9,Ticks_ISO_T2_8,32,9999,9999,9999,1415968824
78,10,9,Ticks_ISO_T2_8,33,9999,9999,9999,1416768628
78,10,9,Ticks_ISO_T2_8,34,9999,9999,9999,1417568360
78,10,9,Ticks_ISO_T2_8,35,9999,9999,9999,1418368096
78,10,9,Ticks_ISO_T2_8,36,9999,9999,9999,1419168876
78,10,9,Ticks_ISO_T2_8,37,9999,9999,9999,1419968608
78,10,9,Ticks_ISO_T2_8,38,9999,9999,9999,1420768368
78,10,9,Ticks_ISO_T2_8,39,9999,9999,9999,1421568108
78,10,9,Ticks_ISO_T2_8,40,9999,9999,9999,1422368888
78,10,9,Ticks_ISO_T2_8,41,9999,9999,9999,1423168620
78,10,9,Ticks_ISO_T2_8,42,9999,9999,9999,1423968348
78,10,9,Ticks_ISO_T2_8,43,9999,9999,9999,1424768088
78,10,9,Ticks_ISO_T2_8,44,9999,9999,9999,1425568860
78,10,9,Ticks_ISO_T2_8,45,9999,9999,9999,1426368596
78,10,9,Ticks_ISO_T2_8,46,9999,9999,9999,1427168352
78,10,9,Ticks_ISO_T2_8,47,9999,9999,9999,1427968092
78,10,9,Ticks_ISO_T2_8,48,9999,9999,9999,1428768868
78,10,9,Ticks_ISO_T2_8,49,9999,9999,9999,1429568608
78,10,9,Ticks_ISO_T2_8,50,9999,9999,9999,1430368332
78,10,9,Ticks_ISO_T2_8,51,9999,9999,9999,1431168108
78,10,9,Ticks_ISO_T2_8,52,9999,9999,9999,1431968848
78,10,9,Ticks_ISO_T2_8,53,9999,9999,9999,1432768588
78,10,9,Ticks_ISO_T2_8,54,9999,9999,9999,1433568340
78,10,9,Ticks_ISO_T2_8,55,9999,9999,9999,1434368076
78,10,9,Ticks_ISO_T2_8,56,9999,9999,9999,1435168852
78,10,9,Ticks_ISO_T2_8,57,9999,9999,9999,1435968584
78,10,9,Ticks_ISO_T2_8,58,9999,9999,9999,1436768316
78,10,9,Ticks_ISO_T2_8,59,9999,9999,9999,1437568056
78,10,9,Ticks_ISO_T2_8,60,9999,9999,9999,1438368832
78,10,9,Ticks_ISO_T2_8,61,9999,9999,9999,1439168572
78,10,9,Ticks_ISO_T2_8,62,9999,9999,9999,1439968324
78,10,9,Ticks_ISO_T2_8,63,9999,9999,9999,1440768080
78,10,9,Ticks_ISO_T2_8,64,9999,9999,9999,1441568836
78,10,9,Ticks_ISO_T2_8,65,9999,9999,9999,1442368572
78,10,9,Ticks_ISO_T2_8,66,9999,9999,9999,1443168308
78,10,9,Ticks_ISO_T2_8,67,9999,9999,9999,1443968112
78,10,9,Ticks_ISO_T2_8,68,9999,9999,9999,1444768820
78,10,9,Ticks_ISO_T2_8,69,9999,9999,9999,1445568560
78,10,9,Ticks_ISO_T2_8,70,9999,9999,9999,1446368320
78,10,9,Ticks_ISO_T2_8,71,9999,9999,9999,1447168052
78,10,9,Ticks_ISO_T2_8,72,9999,9999,9999,1447968824
78,10,9,Ticks_ISO_T2_8,73,9999,9999,9999,1448768560
78,10,9,Ticks_ISO_T2_8,74,9999,9999,9999,1449568368
78,10,9,Ticks_ISO_T2_8,75,9999,9999,9999,1450368100
78,10,9,Ticks_ISO_T2_8,76,9999,9999,9999,1451168880
78,10,9,Ticks_ISO_T2_8,77,9999,9999,9999,1451968612
78,10,9,Ticks_ISO_T2_8,78,9999,9999,9999,1452768372
78,10,9,Ticks_ISO_T2_8,79,9999,9999,9999,1453568104
78,10,9,Ticks_ISO_T2_8,80,9999,9999,9999,1454368888
78,10,9,Ticks_ISO_T2_8,81,9999,9999,9999,1455168620
78,10,9,Ticks_ISO_T2_8,82,9999,9999,9999,1455968352
78,10,9,Ticks_ISO_T2_8,83,9999,9999,9999,1456768088
78,10,9,Ticks_ISO_T2_8,84,9999,9999,9999,1457568868
78,10,9,Ticks_ISO_T2_8,85,9999,9999,9999,1458368600
78,10,9,Ticks_ISO_T2_8,86,9999,9999,9999,1459168360
78,10,9,Ticks_ISO_T2_8,87,9999,9999,9999,1459968096
78,10,9,Ticks_ISO_T2_8,88,9999,9999,9999,1460768876
78,10,9,Ticks_ISO_T2_8,89,9999,9999,9999,1461568612
78,10,9,Ticks_ISO_T2_8,90,9999,9999,9999,1462368336
78,10,9,Ticks_ISO_T2_8,91,9999,9999,9999,1463168072
78,10,9,Ticks_ISO_T2_8,92,9999,9999,9999,1463968848
78,10,9,Ticks_ISO_T2_8,93,9999,9999,9999,1464768588
78,10,9,Ticks_ISO_T2_8,94,9999,9999,9999,1465568340
78,10,9,Ticks_ISO_T2_8,95,9999,9999,9999,1466368080
78,10,9,Ticks_ISO_T2_8,96,9999,9999,9999,1467168856
78,10,9,Ticks_ISO_T2_8,97,9999,9999,9999,1467968596
78,10,9,Ticks_ISO_T2_8,98,9999,9999,9999,1468768324
78,10,9,Ticks_ISO_T2_8,99,9999,9999,9999,1469568064
78,10,9,Ticks_ISO_T2_8,100,9999,9999,9999,1470368836
78,10,9,Ticks_ISO_T2_8,101,9999,9999,9999,1471168576
78,10,9,Ticks_ISO_T2_8,102,9999,9999,9999,1471968332
78,10,9,Ticks_ISO_T2_8,103,9999,9999,9999,1472768064
78,10,9,Ticks_ISO_T2_8,104,9999,9999,9999,1473568840
78,10,9,Ticks_ISO_T2_8,105,9999,9999,9999,1474368580
78,10,9,Ticks_ISO_T2_8,106,9999,9999,9999,1475168308
78,10,9,Ticks_ISO_T2_8,107,9999,9999,9999,1475968048
78,10,9,Ticks_ISO_T2_8,108,9999,9999,9999,1476768820
78,10,9,Ticks_ISO_T2_8,109,9999,9999,9999,1477568628
78,10,9,Ticks_ISO_T2_8,110,9999,9999,9999,1478368312
78,10,9,Ticks_ISO_T2_8,111,9999,9999,9999,1479168052
78,10,9,Ticks_ISO_T2_8,112,9999,9999,9999,1479968828
78,10,9,Ticks_ISO_T2_8,113,9999,9999,9999,1480768568
78,10,9,Ticks_ISO_T2_8,114,9999,9999,9999,1481568368
78,10,9,Ticks_ISO_T2_8,115,9999,9999,9999,1482368108
78,10,9,Ticks_ISO_T2_8,116,9999,9999,9999,1483168816
78,10,9,Ticks_ISO_T2_8,117,9999,9999,9999,1483968624
78,10,9,Ticks_ISO_T2_8,118,9999,9999,9999,1484768376
78,10,9,Ticks_ISO_T2_8,119,9999,9999,9999,1485568108
78,11,25,Jits_Pract_5,0,5,56,103,1554167076
78,11,25,Jits_Pract_5,1,5,63,98,1554170328
78,11,25,Jits_Pract_5,2,5,80,127,1554173372
78,11,25,Jits_Pract_5,0,5,56,103,1554667180
78,11,25,Jits_Pract_5,1,5,63,98,1554670200
78,11,25,Jits_Pract_5,2,5,80,127,1554673172
78,11,25,Jits_Pract_5,0,5,56,103,1555166472
78,11,25,Jits_Pract_5,1,5,80,127,1555176744
78,11,25,Jits_Pract_5,2,5,63,98,1555197276
78,11,25,Jits_Pract_5,0,5,63,98,1555617264
78,11,25,Jits_Pract_5,1,5,80,127,1555647016
78,11,25,Jits_Pract_5,2,5,56,103,1555657212
78,11,25,Jits_Pract_5,0,5,80,127,1556177156
78,11,25,Jits_Pract_5,1,5,56,103,1556186628
78,11,25,Jits_Pract_5,2,5,63,98,1556217128
78,11,25,Jits_Pract_5,0,5,63,98,1556666940
78,11,25,Jits_Pract_5,1,5,56,103,1556696416
78,11,25,Jits_Pract_5,2,5,80,127,1556706760
78,11,25,Jits_Pract_5,0,5,56,103,1557117224
78,11,25,Jits_Pract_5,1,5,63,98,1557166380
78,11,25,Jits_Pract_5,2,5,80,127,1557186912
78,11,25,Jits_Pract_5,0,5,80,127,1557616968
78,11,25,Jits_Pract_5,1,5,63,98,1557667172
78,11,25,Jits_Pract_5,2,5,56,103,1557707256
78,11,25,Jits_Pract_5,0,5,56,103,1558116784
78,11,25,Jits_Pract_5,1,5,63,98,1558146536
78,11,25,Jits_Pract_5,2,5,80,127,1558217036
78,11,25,Jits_Pract_5,0,5,56,103,1558616308
78,11,25,Jits_Pract_5,1,5,80,127,1558676772
78,11,25,Jits_Pract_5,2,5,63,98,1558706596
78,11,25,Jits_Pract_5,0,5,56,103,1559127364
78,11,25,Jits_Pract_5,1,5,63,98,1559136736
78,11,25,Jits_Pract_5,2,5,80,127,1559176672
78,11,25,Jits_Pract_5,0,5,63,98,1559616988
78,11,25,Jits_Pract_5,1,5,80,127,1559696932
78,11,25,Jits_Pract_5,2,5,56,103,1559706980
78,11,25,Jits_Pract_5,0,5,63,98,1560166992
78,11,25,Jits_Pract_5,1,5,56,103,1560206780
78,11,25,Jits_Pract_5,2,5,80,127,1560209700
78,11,25,Jits_Pract_5,0,5,56,103,1560626484
78,11,25,Jits_Pract_5,1,5,63,98,1560636752
78,11,25,Jits_Pract_5,2,5,80,127,1560676840
78,11,25,Jits_Pract_5,0,5,56,103,1561117004
78,11,25,Jits_Pract_5,1,5,63,98,1561120072
78,11,25,Jits_Pract_5,2,5,80,127,1561136492
78,11,25,Jits_Pract_5,0,9999,9999,9999,1554414660
78,11,25,Jits_Pract_5,1,9999,9999,9999,1554914388
78,11,25,Jits_Pract_5,2,9999,9999,9999,1555414132
78,11,25,Jits_Pract_5,3,9999,9999,9999,1555914824
78,11,25,Jits_Pract_5,4,9999,9999,9999,1556414556
78,11,25,Jits_Pract_5,5,9999,9999,9999,1556914232
78,11,25,Jits_Pract_5,6,9999,9999,9999,1557415008
78,11,25,Jits_Pract_5,7,9999,9999,9999,1557914676
78,11,25,Jits_Pract_5,8,9999,9999,9999,1558414420
78,11,25,Jits_Pract_5,9,9999,9999,9999,1558914164
78,11,25,Jits_Pract_5,10,9999,9999,9999,1559414880
78,11,25,Jits_Pract_5,11,9999,9999,9999,1559914548
78,11,25,Jits_Pract_5,12,9999,9999,9999,1560414276
78,11,25,Jits_Pract_5,13,9999,9999,9999,1560915048
78,11,25,Jits_Pract_5,14,9999,9999,9999,1561414776
78,12,25,Jits_Pract_5,0,5,56,103,1608780312
78,12,25,Jits_Pract_5,1,5,63,98,1608783256
78,12,25,Jits_Pract_5,2,5,80,127,1608786380
78,12,25,Jits_Pract_5,0,5,56,103,1609280036
78,12,25,Jits_Pract_5,1,5,63,98,1609283212
78,12,25,Jits_Pract_5,2,5,80,127,1609286328
78,12,25,Jits_Pract_5,0,5,56,103,1609779552
78,12,25,Jits_Pract_5,1,5,80,127,1609789752
78,12,25,Jits_Pract_5,2,5,63,98,1609810432
78,12,25,Jits_Pract_5,0,5,63,98,1610230072
78,12,25,Jits_Pract_5,1,5,80,127,1610259824
78,12,25,Jits_Pract_5,2,5,56,103,1610270168
78,12,25,Jits_Pract_5,0,1,48,59,1610744444
78,12,25,Jits_Pract_5,1,5,80,127,1610790252
78,12,25,Jits_Pract_5,2,5,56,103,1610799404
78,12,25,Jits_Pract_5,3,5,63,98,1610830196
78,12,25,Jits_Pract_5,0,5,63,98,1611279916
78,12,25,Jits_Pract_5,1,1,48,55,1611303560
78,12,25,Jits_Pract_5,2,5,56,103,1611309436
78,12,25,Jits_Pract_5,3,5,80,127,1611319856
78,12,25,Jits_Pract_5,0,5,56,103,1611730288
78,12,25,Jits_Pract_5,1,5,63,98,1611779368
78,12,25,Jits_Pract_5,2,5,80,127,1611799900
78,12,25,Jits_Pract_5,3,1,48,56,1611838980
78,12,25,Jits_Pract_5,0,5,80,127,1612230116
78,12,25,Jits_Pract_5,1,5,63,98,1612280120
78,12,25,Jits_Pract_5,2,1,48,52,1612297012
78,12,25,Jits_Pract_5,3,5,56,103,1612320052
78,12,25,Jits_Pract_5,0,5,56,103,1612729896
78,12,25,Jits_Pract_5,1,5,63,98,1612760344
78,12,25,Jits_Pract_5,2,1,48,53,1612807820
78,12,25,Jits_Pract_5,3,5,80,127,1612830092
78,12,25,Jits_Pract_5,0,5,56,103,1613229676
78,12,25,Jits_Pract_5,1,1,48,49,1613280472
78,12,25,Jits_Pract_5,2,5,80,127,1613290084
78,12,25,Jits_Pract_5,3,5,63,98,1613319684
78,12,25,Jits_Pract_5,0,5,56,103,1613740320
78,12,25,Jits_Pract_5,1,5,63,98,1613749692
78,12,25,Jits_Pract_5,2,1,48,49,1613789052
78,12,25,Jits_Pract_5,3,5,80,127,1613790768
78,12,25,Jits_Pract_5,0,5,63,98,1614229976
78,12,25,Jits_Pract_5,1,1,48,51,1614288764
78,12,25,Jits_Pract_5,2,5,80,127,1614309864
78,12,25,Jits_Pract_5,3,5,56,103,1614319836
78,12,25,Jits_Pract_5,0,5,63,98,1614779940
78,12,25,Jits_Pract_5,1,1,48,55,1614786200
78,12,25,Jits_Pract_5,2,5,56,103,1614819748
78,12,25,Jits_Pract_5,3,5,80,127,1614822888
78,12,25,Jits_Pract_5,0,5,56,103,1615239472
78,12,25,Jits_Pract_5,1,5,63,98,1615249892
78,12,25,Jits_Pract_5,2,5,80,127,1615289980
78,12,25,Jits_Pract_5,3,1,48,51,1615297828
78,12,25,Jits_Pract_5,0,5,56,103,1615730032
78,12,25,Jits_Pract_5,1,5,63,98,1615732948
78,12,25,Jits_Pract_5,2,5,80,127,1615749368
78,12,25,Jits_Pract_5,3,1,48,52,1615765668
78,12,25,Jits_Pract_5,0,9999,9999,9999,1609027672
78,12,25,Jits_Pract_5,1,9999,9999,9999,1609527400
78,12,25,Jits_Pract_5,2,9999,9999,9999,1610027068
78,12,25,Jits_Pract_5,3,9999,9999,9999,1610527852
78,12,25,Jits_Pract_5,4,9999,9999,9999,1611027564
78,12,25,Jits_Pract_5,5,9999,9999,9999,1611527260
78,12,25,Jits_Pract_5,6,9999,9999,9999,1612027976
78,12,25,Jits_Pract_5,7,9999,9999,9999,1612527680
78,12,25,Jits_Pract_5,8,9999,9999,9999,1613027384
78,12,25,Jits_Pract_5,9,9999,9999,9999,1613527092
78,12,25,Jits_Pract_5,10,9999,9999,9999,1614027888
78,12,25,Jits_Pract_5,11,9999,9999,9999,1614527592
78,12,25,Jits_Pract_5,12,9999,9999,9999,1615027280
78,12,25,Jits_Pract_5,13,9999,9999,9999,1615528016
78,12,25,Jits_Pract_5,14,9999,9999,9999,1616027708
78,13,24,Jits_Pract_8,0,5,56,103,1625147836
78,13,24,Jits_Pract_8,1,5,63,98,1625150936
78,13,24,Jits_Pract_8,2,5,80,127,1625153980
78,13,24,Jits_Pract_8,0,5,56,103,1625947776
78,13,24,Jits_Pract_8,1,5,63,98,1625950804
78,13,24,Jits_Pract_8,2,5,80,127,1625953920
78,13,24,Jits_Pract_8,0,5,80,127,1626687724
78,13,24,Jits_Pract_8,1,5,63,98,1626778008
78,13,24,Jits_Pract_8,2,5,56,103,1626788276
78,13,24,Jits_Pract_8,0,5,56,103,1627508136
78,13,24,Jits_Pract_8,1,5,63,98,1627518628
78,13,24,Jits_Pract_8,2,5,80,127,1627608484
78,13,24,Jits_Pract_8,0,5,63,98,1628278124
78,13,24,Jits_Pract_8,1,5,80,127,1628307948
78,13,24,Jits_Pract_8,2,5,56,103,1628337548
78,13,24,Jits_Pract_8,3,1,48,56,1628348684
78,13,24,Jits_Pract_8,0,5,56,103,1629077724
78,13,24,Jits_Pract_8,1,1,48,54,1629091480
78,13,24,Jits_Pract_8,2,5,80,127,1629178360
78,13,24,Jits_Pract_8,3,5,63,98,1629228696
78,13,24,Jits_Pract_8,0,5,56,103,1629877572
78,13,24,Jits_Pract_8,1,5,80,127,1629927724
78,13,24,Jits_Pract_8,2,5,63,98,1629967660
78,13,24,Jits_Pract_8,3,1,48,57,1629981416
78,13,24,Jits_Pract_8,0,5,80,127,1630708156
78,13,24,Jits_Pract_8,1,5,63,98,1630737760
78,13,24,Jits_Pract_8,2,5,56,103,1630808556
78,13,24,Jits_Pract_8,3,1,48,14,1630829660
78,13,24,Jits_Pract_8,0,5,63,98,1631537500
78,13,24,Jits_Pract_8,1,5,56,103,1631568372
78,13,24,Jits_Pract_8,2,1,48,55,1631604296
78,13,24,Jits_Pract_8,3,5,80,127,1631627632
78,13,24,Jits_Pract_8,0,5,56,103,1632277840
78,13,24,Jits_Pract_8,1,5,80,127,1632280980
78,13,24,Jits_Pract_8,2,1,48,58,1632389588
78,13,24,Jits_Pract_8,3,5,63,98,1632397776
78,13,24,Jits_Pract_8,0,5,56,103,1633157464
78,13,24,Jits_Pract_8,1,1,48,53,1633168004
78,13,24,Jits_Pract_8,2,5,80,127,1633197620
78,13,24,Jits_Pract_8,3,5,63,98,1633207592
78,13,24,Jits_Pract_8,0,5,56,103,1633918728
78,13,24,Jits_Pract_8,1,5,80,127,1633937844
78,13,24,Jits_Pract_8,2,1,48,56,1633976632
78,13,24,Jits_Pract_8,3,5,63,98,1634017580
78,13,24,Jits_Pract_8,0,5,80,127,1634707792
78,13,24,Jits_Pract_8,1,1,48,54,1634770052
78,13,24,Jits_Pract_8,2,5,56,103,1634808284
78,13,24,Jits_Pract_8,3,5,63,98,1634818404
78,13,24,Jits_Pract_8,0,5,63,98,1635477824
78,13,24,Jits_Pract_8,1,5,80,127,1635538464
78,13,24,Jits_Pract_8,2,5,56,103,1635547468
78,13,24,Jits_Pract_8,3,1,48,52,1635588196
78,13,24,Jits_Pract_8,0,5,56,103,1636277580
78,13,24,Jits_Pract_8,1,5,63,98,1636348636
78,13,24,Jits_Pract_8,2,5,80,127,1636351920
78,13,24,Jits_Pract_8,3,1,48,51,1636374516
78,13,24,Jits_Pract_8,0,9999,9999,9999,1625545840
78,13,24,Jits_Pract_8,1,9999,9999,9999,1626345584
78,13,24,Jits_Pract_8,2,9999,9999,9999,1627145320
78,13,24,Jits_Pract_8,3,9999,9999,9999,1627946100
78,13,24,Jits_Pract_8,4,9999,9999,9999,1628745804
78,13,24,Jits_Pract_8,5,9999,9999,9999,1629545560
78,13,24,Jits_Pract_8,6,9999,9999,9999,1630345328
78,13,24,Jits_Pract_8,7,9999,9999,9999,1631146052
78,13,24,Jits_Pract_8,8,9999,9999,9999,1631945824
78,13,24,Jits_Pract_8,9,9999,9999,9999,1632745588
78,13,24,Jits_Pract_8,10,9999,9999,9999,1633545292
78,13,24,Jits_Pract_8,11,9999,9999,9999,1634346036
78,13,24,Jits_Pract_8,12,9999,9999,9999,1635145816
78,13,24,Jits_Pract_8,13,9999,9999,9999,1635945584
78,13,24,Jits_Pract_8,14,9999,9999,9999,1636745332
78,14,17,Jits_Phase_5,0,5,56,103,1701692908
78,14,17,Jits_Phase_5,1,5,63,98,1701696160
78,14,17,Jits_Phase_5,2,5,80,127,1701699276
78,14,17,Jits_Phase_5,0,5,56,103,1702192468
78,14,17,Jits_Phase_5,1,5,63,98,1702195488
78,14,17,Jits_Phase_5,2,5,80,127,1702198688
78,14,17,Jits_Phase_5,0,5,56,103,1702693168
78,14,17,Jits_Phase_5,1,5,80,127,1702702388
78,14,17,Jits_Phase_5,2,5,63,98,1702723220
78,14,17,Jits_Phase_5,0,5,63,98,1703142700
78,14,17,Jits_Phase_5,1,5,80,127,1703172524
78,14,17,Jits_Phase_5,2,5,56,103,1703182648
78,14,17,Jits_Phase_5,0,1,48,60,1703643648
78,14,17,Jits_Phase_5,1,5,80,127,1703703012
78,14,17,Jits_Phase_5,2,5,56,103,1703713056
78,14,17,Jits_Phase_5,3,5,63,98,1703743012
78,14,17,Jits_Phase_5,0,1,48,65,1704149612
78,14,17,Jits_Phase_5,1,5,63,98,1704193400
78,14,17,Jits_Phase_5,2,5,56,103,1704223224
78,14,17,Jits_Phase_5,3,5,80,127,1704233272
78,14,17,Jits_Phase_5,0,5,56,103,1704642936
78,14,17,Jits_Phase_5,1,1,48,52,1704676268
78,14,17,Jits_Phase_5,2,5,63,98,1704693156
78,14,17,Jits_Phase_5,3,5,80,127,1704712644
78,14,17,Jits_Phase_5,0,5,80,127,1705142552
78,14,17,Jits_Phase_5,1,1,48,59,1705188468
78,14,17,Jits_Phase_5,2,5,63,98,1705192772
78,14,17,Jits_Phase_5,3,5,56,103,1705233156
78,14,17,Jits_Phase_5,0,5,56,103,1705643512
78,14,17,Jits_Phase_5,1,5,63,98,1705673260
78,14,17,Jits_Phase_5,2,1,48,57,1705713192
78,14,17,Jits_Phase_5,3,5,80,127,1705742880
78,14,17,Jits_Phase_5,0,5,56,103,1706143048
78,14,17,Jits_Phase_5,1,1,48,57,1706188788
78,14,17,Jits_Phase_5,2,5,80,127,1706202460
78,14,17,Jits_Phase_5,3,5,63,98,1706233180
78,14,17,Jits_Phase_5,0,5,56,103,1706653120
78,14,17,Jits_Phase_5,1,5,63,98,1706663244
78,14,17,Jits_Phase_5,2,5,80,127,1706703204
78,14,17,Jits_Phase_5,3,1,48,56,1706712472
78,14,17,Jits_Phase_5,0,5,63,98,1707142540
78,14,17,Jits_Phase_5,1,1,48,56,1707209556
78,14,17,Jits_Phase_5,2,5,80,127,1707223400
78,14,17,Jits_Phase_5,3,5,56,103,1707232548
78,14,17,Jits_Phase_5,0,5,63,98,1707693384
78,14,17,Jits_Phase_5,1,1,48,57,1707722956
78,14,17,Jits_Phase_5,2,5,56,103,1707733336
78,14,17,Jits_Phase_5,3,5,80,127,1707736328
78,14,17,Jits_Phase_5,0,5,56,103,1708153120
78,14,17,Jits_Phase_5,1,5,63,98,1708162268
78,14,17,Jits_Phase_5,2,5,80,127,1708203324
78,14,17,Jits_Phase_5,3,1,48,55,1708208084
78,14,17,Jits_Phase_5,0,5,56,103,1708642688
78,14,17,Jits_Phase_5,1,5,63,98,1708645604
78,14,17,Jits_Phase_5,2,1,48,56,1708658532
78,14,17,Jits_Phase_5,3,5,80,127,1708663360
78,14,17,Jits_Phase_5,0,1,48,55,1709135208
78,14,17,Jits_Phase_5,1,5,80,127,1709152768
78,14,17,Jits_Phase_5,2,5,56,103,1709162888
78,14,17,Jits_Phase_5,3,5,63,98,1709232700
78,14,17,Jits_Phase_5,0,5,63,98,1709643080
78,14,17,Jits_Phase_5,1,1,48,55,1709651676
78,14,17,Jits_Phase_5,2,5,56,103,1709662564
78,14,17,Jits_Phase_5,3,5,80,127,1709742352
78,14,17,Jits_Phase_5,0,1,48,53,1710142424
78,14,17,Jits_Phase_5,1,5,56,103,1710153084
78,14,17,Jits_Phase_5,2,5,80,127,1710193024
78,14,17,Jits_Phase_5,3,5,63,98,1710203368
78,14,17,Jits_Phase_5,0,5,80,127,1710642504
78,14,17,Jits_Phase_5,1,1,48,54,1710655960
78,14,17,Jits_Phase_5,2,5,63,98,1710673216
78,14,17,Jits_Phase_5,3,5,56,103,1710713080
78,14,17,Jits_Phase_5,0,1,48,56,1711160592
78,14,17,Jits_Phase_5,1,5,56,103,1711162780
78,14,17,Jits_Phase_5,2,5,63,98,1711192532
78,14,17,Jits_Phase_5,3,5,80,127,1711242732
78,14,17,Jits_Phase_5,0,1,48,56,1711655608
78,14,17,Jits_Phase_5,1,5,80,127,1711662308
78,14,17,Jits_Phase_5,2,5,56,103,1711703516
78,14,17,Jits_Phase_5,3,5,63,98,1711712740
78,14,17,Jits_Phase_5,0,5,80,127,1712142884
78,14,17,Jits_Phase_5,1,1,48,53,1712153800
78,14,17,Jits_Phase_5,2,5,63,98,1712182964
78,14,17,Jits_Phase_5,3,5,56,103,1712243052
78,14,17,Jits_Phase_5,0,5,56,103,1712642420
78,14,17,Jits_Phase_5,1,1,48,58,1712643908
78,14,17,Jits_Phase_5,2,5,80,127,1712652756
78,14,17,Jits_Phase_5,3,5,63,98,1712732472
78,14,17,Jits_Phase_5,0,5,80,127,1713143076
78,14,17,Jits_Phase_5,1,1,48,54,1713168216
78,14,17,Jits_Phase_5,2,5,63,98,1713202636
78,14,17,Jits_Phase_5,3,5,56,103,1713233284
78,14,17,Jits_Phase_5,0,5,56,103,1713642844
78,14,17,Jits_Phase_5,1,1,48,56,1713697276
78,14,17,Jits_Phase_5,2,5,80,127,1713703300
78,14,17,Jits_Phase_5,3,5,63,98,1713743160
78,14,17,Jits_Phase_5,0,5,56,103,1714192952
78,14,17,Jits_Phase_5,1,5,63,98,1714202920
78,14,17,Jits_Phase_5,2,1,48,56,1714205328
78,14,17,Jits_Phase_5,3,5,80,127,1714207624
78,14,17,Jits_Phase_5,0,5,80,127,1714643188
78,14,17,Jits_Phase_5,1,1,48,54,1714708560
78,14,17,Jits_Phase_5,2,5,63,98,1714733460
78,14,17,Jits_Phase_5,3,5,56,103,1714742980
78,14,17,Jits_Phase_5,0,5,56,103,1715142980
78,14,17,Jits_Phase_5,1,5,63,98,1715146236
78,14,17,Jits_Phase_5,2,5,80,127,1715149352
78,14,17,Jits_Phase_5,3,1,48,55,1715212344
78,14,17,Jits_Phase_5,0,5,80,127,1715663192
78,14,17,Jits_Phase_5,1,1,48,55,1715694932
78,14,17,Jits_Phase_5,2,5,63,98,1715713388
78,14,17,Jits_Phase_5,3,5,56,103,1715743060
78,14,17,Jits_Phase_5,0,5,56,103,1716142484
78,14,17,Jits_Phase_5,1,5,80,127,1716152828
78,14,17,Jits_Phase_5,2,1,48,57,1716207884
78,14,17,Jits_Phase_5,3,5,63,98,1716223272
78,14,17,Jits_Phase_5,0,5,56,103,1716653408
78,14,17,Jits_Phase_5,1,5,63,98,1716672968
78,14,17,Jits_Phase_5,2,1,48,54,1716680424
78,14,17,Jits_Phase_5,3,5,80,127,1716733148
78,14,17,Jits_Phase_5,0,5,80,127,1717132936
78,14,17,Jits_Phase_5,1,1,48,53,1717172768
78,14,17,Jits_Phase_5,2,5,63,98,1717203308
78,14,17,Jits_Phase_5,3,5,56,103,1717222940
78,14,17,Jits_Phase_5,0,5,80,127,1717652780
78,14,17,Jits_Phase_5,1,5,56,103,1717663196
78,14,17,Jits_Phase_5,2,1,48,56,1717671576
78,14,17,Jits_Phase_5,3,5,63,98,1717673236
78,14,17,Jits_Phase_5,0,5,80,127,1718152612
78,14,17,Jits_Phase_5,1,1,48,51,1718153504
78,14,17,Jits_Phase_5,2,5,56,103,1718172916
78,14,17,Jits_Phase_5,3,5,63,98,1718242916
78,14,17,Jits_Phase_5,0,1,48,58,1718662492
78,14,17,Jits_Phase_5,1,5,56,103,1718663904
78,14,17,Jits_Phase_5,2,5,80,127,1718693280
78,14,17,Jits_Phase_5,3,5,63,98,1718712764
78,14,17,Jits_Phase_5,0,5,63,98,1719152948
78,14,17,Jits_Phase_5,1,1,48,53,1719171056
78,14,17,Jits_Phase_5,2,5,56,103,1719213852
78,14,17,Jits_Phase_5,3,5,80,127,1719243228
78,14,17,Jits_Phase_5,0,5,63,98,1719642352
78,14,17,Jits_Phase_5,1,5,80,127,1719646020
78,14,17,Jits_Phase_5,2,1,48,55,1719674764
78,14,17,Jits_Phase_5,3,5,56,103,1719732700
78,14,17,Jits_Phase_5,0,5,56,103,1720162776
78,14,17,Jits_Phase_5,1,1,48,52,1720172416
78,14,17,Jits_Phase_5,2,5,63,98,1720193268
78,14,17,Jits_Phase_5,3,5,80,127,1720233204
78,14,17,Jits_Phase_5,0,1,48,59,1720644752
78,14,17,Jits_Phase_5,1,5,63,98,1720663356
78,14,17,Jits_Phase_5,2,5,56,103,1720703292
78,14,17,Jits_Phase_5,3,5,80,127,1720722852
78,14,17,Jits_Phase_5,0,1,48,59,1721159396
78,14,17,Jits_Phase_5,1,5,63,98,1721173220
78,14,17,Jits_Phase_5,2,5,56,103,1721213156
78,14,17,Jits_Phase_5,3,5,80,127,1721222604
78,14,17,Jits_Phase_5,0,5,80,127,1721652672
78,14,17,Jits_Phase_5,1,1,48,56,1721675640
78,14,17,Jits_Phase_5,2,5,63,98,1721723244
78,14,17,Jits_Phase_5,3,5,56,103,1721742652
78,14,17,Jits_Phase_5,0,5,56,103,1722142996
78,14,17,Jits_Phase_5,1,5,80,127,1722162628
78,14,17,Jits_Phase_5,2,1,48,61,1722174288
78,14,17,Jits_Phase_5,3,5,63,98,1722202408
78,14,17,Jits_Phase_5,0,5,63,98,1722653020
78,14,17,Jits_Phase_5,1,1,48,59,1722654956
78,14,17,Jits_Phase_5,2,5,80,127,1722672424
78,14,17,Jits_Phase_5,3,5,56,103,1722712284
78,14,17,Jits_Phase_5,0,5,63,98,1723152688
78,14,17,Jits_Phase_5,1,1,48,57,1723161060
78,14,17,Jits_Phase_5,2,5,56,103,1723173216
78,14,17,Jits_Phase_5,3,5,80,127,1723182440
78,14,17,Jits_Phase_5,0,5,80,127,1723652436
78,14,17,Jits_Phase_5,1,1,48,55,1723665520
78,14,17,Jits_Phase_5,2,5,56,103,1723672888
78,14,17,Jits_Phase_5,3,5,63,98,1723702932
78,14,17,Jits_Phase_5,0,1,48,59,1724151712
78,14,17,Jits_Phase_5,1,5,56,103,1724222760
78,14,17,Jits_Phase_5,2,5,80,127,1724225824
78,14,17,Jits_Phase_5,3,5,63,98,1724243440
78,14,17,Jits_Phase_5,0,5,63,98,1724642872
78,14,17,Jits_Phase_5,1,5,56,103,1724673372
78,14,17,Jits_Phase_5,2,1,48,54,1724680232
78,14,17,Jits_Phase_5,3,5,80,127,1724732780
78,14,17,Jits_Phase_5,0,1,48,57,1725159812
78,14,17,Jits_Phase_5,1,5,63,98,1725223228
78,14,17,Jits_Phase_5,2,5,56,103,1725232452
78,14,17,Jits_Phase_5,3,5,80,127,1725242648
78,14,17,Jits_Phase_5,0,5,56,103,1725683132
78,14,17,Jits_Phase_5,1,1,48,55,1725685724
78,14,17,Jits_Phase_5,2,5,80,127,1725712948
78,14,17,Jits_Phase_5,3,5,63,98,1725723144
78,14,17,Jits_Phase_5,0,1,48,59,1726181220
78,14,17,Jits_Phase_5,1,5,63,98,1726222672
78,14,17,Jits_Phase_5,2,5,56,103,1726232868
78,14,17,Jits_Phase_5,3,5,80,127,1726253328
78,14,17,Jits_Phase_5,0,5,56,103,1726652884
78,14,17,Jits_Phase_5,1,5,63,98,1726713068
78,14,17,Jits_Phase_5,2,5,80,127,1726716512
78,14,17,Jits_Phase_5,3,1,48,58,1726723612
78,14,17,Jits_Phase_5,0,5,80,127,1727172940
78,14,17,Jits_Phase_5,1,5,56,103,1727183164
78,14,17,Jits_Phase_5,2,1,48,59,1727194748
78,14,17,Jits_Phase_5,3,5,63,98,1727252760
78,14,17,Jits_Phase_5,0,5,80,127,1727662592
78,14,17,Jits_Phase_5,1,1,48,57,1727711296
78,14,17,Jits_Phase_5,2,5,56,103,1727733112
78,14,17,Jits_Phase_5,3,5,63,98,1727743384
78,14,17,Jits_Phase_5,0,5,63,98,1728203264
78,14,17,Jits_Phase_5,1,5,56,103,1728213632
78,14,17,Jits_Phase_5,2,1,48,59,1728218548
78,14,17,Jits_Phase_5,3,5,80,127,1728232812
78,14,17,Jits_Phase_5,0,5,80,127,1728652808
78,14,17,Jits_Phase_5,1,1,48,55,1728709640
78,14,17,Jits_Phase_5,2,5,63,98,1728713044
78,14,17,Jits_Phase_5,3,5,56,103,1728753080
78,14,17,Jits_Phase_5,0,5,56,103,1729193252
78,14,17,Jits_Phase_5,1,5,63,98,1729202772
78,14,17,Jits_Phase_5,2,1,48,58,1729221408
78,14,17,Jits_Phase_5,3,5,80,127,1729242652
78,14,17,Jits_Phase_5,0,5,56,103,1729663572
78,14,17,Jits_Phase_5,1,5,80,127,1729693024
78,14,17,Jits_Phase_5,2,1,48,60,1729709620
78,14,17,Jits_Phase_5,3,5,63,98,1729743092
78,14,17,Jits_Phase_5,0,5,56,103,1730202968
78,14,17,Jits_Phase_5,1,1,48,56,1730212608
78,14,17,Jits_Phase_5,2,5,63,98,1730242896
78,14,17,Jits_Phase_5,3,5,80,127,1730246184
78,14,17,Jits_Phase_5,0,1,48,60,1730701284
78,14,17,Jits_Phase_5,1,5,56,103,1730702792
78,14,17,Jits_Phase_5,2,5,63,98,1730712912
78,14,17,Jits_Phase_5,3,5,80,127,1730733592
78,14,17,Jits_Phase_5,0,5,56,103,1731162684
78,14,17,Jits_Phase_5,1,5,80,127,1731165824
78,14,17,Jits_Phase_5,2,1,48,58,1731193976
78,14,17,Jits_Phase_5,3,5,63,98,1731202688
78,14,17,Jits_Phase_5,0,1,48,60,1731689516
78,14,17,Jits_Phase_5,1,5,63,98,1731703112
78,14,17,Jits_Phase_5,2,5,56,103,1731732784
78,14,17,Jits_Phase_5,3,5,80,127,1731753464
78,14,17,Jits_Phase_5,0,5,80,127,1732173124
78,14,17,Jits_Phase_5,1,5,56,103,1732183840
78,14,17,Jits_Phase_5,2,5,63,98,1732192692
78,14,17,Jits_Phase_5,3,1,48,63,1732203304
78,14,17,Jits_Phase_5,0,5,56,103,1732672804
78,14,17,Jits_Phase_5,1,1,48,55,1732684464
78,14,17,Jits_Phase_5,2,5,80,127,1732712812
78,14,17,Jits_Phase_5,3,5,63,98,1732742560
78,14,17,Jits_Phase_5,0,5,63,98,1733182904
78,14,17,Jits_Phase_5,1,5,80,127,1733193024
78,14,17,Jits_Phase_5,2,5,56,103,1733203372
78,14,17,Jits_Phase_5,3,1,48,51,1733209928
78,14,17,Jits_Phase_5,0,5,56,103,1733673584
78,14,17,Jits_Phase_5,1,1,48,54,1733677604
78,14,17,Jits_Phase_5,2,5,63,98,1733742812
78,14,17,Jits_Phase_5,3,5,80,127,1733753232
78,14,17,Jits_Phase_5,0,5,80,127,1734183540
78,14,17,Jits_Phase_5,1,5,56,103,1734192540
78,14,17,Jits_Phase_5,2,1,48,53,1734196632
78,14,17,Jits_Phase_5,3,5,63,98,1734242656
78,14,17,Jits_Phase_5,0,5,80,127,1734693116
78,14,17,Jits_Phase_5,1,1,48,60,1734696164
78,14,17,Jits_Phase_5,2,5,56,103,1734752600
78,14,17,Jits_Phase_5,3,5,63,98,1734783472
78,14,17,Jits_Phase_5,0,5,56,103,1735192956
78,14,17,Jits_Phase_5,1,5,80,127,1735196024
78,14,17,Jits_Phase_5,2,1,48,61,1735213980
78,14,17,Jits_Phase_5,3,5,63,98,1735232960
78,14,17,Jits_Phase_5,0,1,48,55,1735684660
78,14,17,Jits_Phase_5,1,5,56,103,1735723492
78,14,17,Jits_Phase_5,2,5,63,98,1735753020
78,14,17,Jits_Phase_5,3,5,80,127,1735763512
78,14,17,Jits_Phase_5,0,1,48,56,1736201196
78,14,17,Jits_Phase_5,1,5,63,98,1736233504
78,14,17,Jits_Phase_5,2,5,80,127,1736242656
78,14,17,Jits_Phase_5,3,5,56,103,1736252776
78,14,17,Jits_Phase_5,0,5,80,127,1736682992
78,14,17,Jits_Phase_5,1,1,48,60,1736721632
78,14,17,Jits_Phase_5,2,5,56,103,1736733260
78,14,17,Jits_Phase_5,3,5,63,98,1736736400
78,14,17,Jits_Phase_5,0,5,56,103,1737213460
78,14,17,Jits_Phase_5,1,1,48,60,1737216060
78,14,17,Jits_Phase_5,2,5,80,127,1737232720
78,14,17,Jits_Phase_5,3,5,63,98,1737242988
78,14,17,Jits_Phase_5,0,5,63,98,1737692548
78,14,17,Jits_Phase_5,1,1,48,50,1737696116
78,14,17,Jits_Phase_5,2,5,56,103,1737723188
78,14,17,Jits_Phase_5,3,5,80,127,1737742748
78,14,17,Jits_Phase_5,0,1,48,59,1738187912
78,14,17,Jits_Phase_5,1,5,56,103,1738202552
78,14,17,Jits_Phase_5,2,5,80,127,1738212820
78,14,17,Jits_Phase_5,3,5,63,98,1738283472
78,14,17,Jits_Phase_5,0,5,63,98,1738692844
78,14,17,Jits_Phase_5,1,1,48,56,1738711800
78,14,17,Jits_Phase_5,2,5,80,127,1738732876
78,14,17,Jits_Phase_5,3,5,56,103,1738772736
78,14,17,Jits_Phase_5,0,5,56,103,1739202856
78,14,17,Jits_Phase_5,1,5,63,98,1739213300
78,14,17,Jits_Phase_5,2,1,48,59,1739230516
78,14,17,Jits_Phase_5,3,5,80,127,1739232556
78,14,17,Jits_Phase_5,0,1,48,50,1739726428
78,14,17,Jits_Phase_5,1,5,63,98,1739742568
78,14,17,Jits_Phase_5,2,5,80,127,1739763104
78,14,17,Jits_Phase_5,3,5,56,103,1739782736
78,14,17,Jits_Phase_5,0,5,56,103,1740183040
78,14,17,Jits_Phase_5,1,1,48,52,1740237204
78,14,17,Jits_Phase_5,2,5,80,127,1740262632
78,14,17,Jits_Phase_5,3,5,63,98,1740273196
78,14,17,Jits_Phase_5,0,1,48,62,1740718876
78,14,17,Jits_Phase_5,1,5,80,127,1740722508
78,14,17,Jits_Phase_5,2,5,63,98,1740732704
78,14,17,Jits_Phase_5,3,5,56,103,1740762476
78,14,17,Jits_Phase_5,0,5,63,98,1741183604
78,14,17,Jits_Phase_5,1,1,48,59,1741208520
78,14,17,Jits_Phase_5,2,5,80,127,1741223384
78,14,17,Jits_Phase_5,3,5,56,103,1741282600
78,14,17,Jits_Phase_5,0,5,63,98,1741693540
78,14,17,Jits_Phase_5,1,1,48,51,1741714268
78,14,17,Jits_Phase_5,2,5,56,103,1741742392
78,14,17,Jits_Phase_5,3,5,80,127,1741773136
78,14,17,Jits_Phase_5,0,5,80,127,1742193144
78,14,17,Jits_Phase_5,1,5,63,98,1742203412
78,14,17,Jits_Phase_5,2,1,48,58,1742228104
78,14,17,Jits_Phase_5,3,5,56,103,1742272860
78,14,17,Jits_Phase_5,0,1,48,61,1742743224
78,14,17,Jits_Phase_5,1,5,80,127,1742753064
78,14,17,Jits_Phase_5,2,5,56,103,1742763628
78,14,17,Jits_Phase_5,3,5,63,98,1742766768
78,14,17,Jits_Phase_5,0,5,56,103,1743192504
78,14,17,Jits_Phase_5,1,5,80,127,1743212816
78,14,17,Jits_Phase_5,2,5,63,98,1743223012
78,14,17,Jits_Phase_5,3,1,48,57,1743241868
78,14,17,Jits_Phase_5,0,1,48,60,1743697848
78,14,17,Jits_Phase_5,1,5,63,98,1743703572
78,14,17,Jits_Phase_5,2,5,56,103,1743743512
78,14,17,Jits_Phase_5,3,5,80,127,1743762772
78,14,17,Jits_Phase_5,0,1,48,57,1744203036
78,14,17,Jits_Phase_5,1,5,63,98,1744204444
78,14,17,Jits_Phase_5,2,5,56,103,1744262592
78,14,17,Jits_Phase_5,3,5,80,127,1744265660
78,14,17,Jits_Phase_5,0,5,56,103,1744662844
78,14,17,Jits_Phase_5,1,5,80,127,1744683528
78,14,17,Jits_Phase_5,2,1,48,56,1744716388
78,14,17,Jits_Phase_5,3,5,63,98,1744723380
78,14,17,Jits_Phase_5,0,5,56,103,1745193544
78,14,17,Jits_Phase_5,1,1,48,58,1745195988
78,14,17,Jits_Phase_5,2,5,63,98,1745212728
78,14,17,Jits_Phase_5,3,5,80,127,1745222924
78,14,17,Jits_Phase_5,0,5,80,127,1745663268
78,14,17,Jits_Phase_5,1,1,48,57,1745666312
78,14,17,Jits_Phase_5,2,5,56,103,1745693012
78,14,17,Jits_Phase_5,3,5,63,98,1745732872
78,14,17,Jits_Phase_5,0,5,80,127,1746173368
78,14,17,Jits_Phase_5,1,1,48,53,1746179184
78,14,17,Jits_Phase_5,2,5,56,103,1746192700
78,14,17,Jits_Phase_5,3,5,63,98,1746253456
78,14,17,Jits_Phase_5,0,5,56,103,1746683468
78,14,17,Jits_Phase_5,1,1,48,55,1746698796
78,14,17,Jits_Phase_5,2,5,80,127,1746702652
78,14,17,Jits_Phase_5,3,5,63,98,1746763408
78,14,17,Jits_Phase_5,0,5,80,127,1747162484
78,14,17,Jits_Phase_5,1,5,56,103,1747172604
78,14,17,Jits_Phase_5,2,1,48,57,1747182468
78,14,17,Jits_Phase_5,3,5,63,98,1747212684
78,14,17,Jits_Phase_5,0,1,48,60,1747656112
78,14,17,Jits_Phase_5,1,5,63,98,1747663208
78,14,17,Jits_Phase_5,2,5,56,103,1747703364
78,14,17,Jits_Phase_5,3,5,80,127,1747706580
78,14,17,Jits_Phase_5,0,1,48,61,1748153680
78,14,17,Jits_Phase_5,1,5,63,98,1748183548
78,14,17,Jits_Phase_5,2,5,80,127,1748223336
78,14,17,Jits_Phase_5,3,5,56,103,1748252992
78,14,17,Jits_Phase_5,0,1,48,59,1748656720
78,14,17,Jits_Phase_5,1,5,56,103,1748672856
78,14,17,Jits_Phase_5,2,5,63,98,1748683376
78,14,17,Jits_Phase_5,3,5,80,127,1748712752
78,14,17,Jits_Phase_5,0,1,48,52,1749143208
78,14,17,Jits_Phase_5,1,5,80,127,1749163312
78,14,17,Jits_Phase_5,2,5,63,98,1749232944
78,14,17,Jits_Phase_5,3,5,56,103,1749243272
78,14,17,Jits_Phase_5,0,1,48,54,1749650684
78,14,17,Jits_Phase_5,1,5,63,98,1749663212
78,14,17,Jits_Phase_5,2,5,56,103,1749732696
78,14,17,Jits_Phase_5,3,5,80,127,1749743172
78,14,17,Jits_Phase_5,0,5,63,98,1750143408
78,14,17,Jits_Phase_5,1,5,56,103,1750162748
78,14,17,Jits_Phase_5,2,1,48,51,1750183920
78,14,17,Jits_Phase_5,3,5,80,127,1750202676
78,14,17,Jits_Phase_5,0,5,56,103,1750622564
78,14,17,Jits_Phase_5,1,5,63,98,1750632756
78,14,17,Jits_Phase_5,2,1,48,63,1750656328
78,14,17,Jits_Phase_5,3,5,80,127,1750712616
78,14,17,Jits_Phase_5,0,5,63,98,1751113184
78,14,17,Jits_Phase_5,1,5,56,103,1751142636
78,14,17,Jits_Phase_5,2,1,48,53,1751149416
78,14,17,Jits_Phase_5,3,5,80,127,1751182640
78,14,17,Jits_Phase_5,0,5,56,103,1751612860
78,14,17,Jits_Phase_5,1,5,63,98,1751652576
78,14,17,Jits_Phase_5,2,1,48,57,1751664232
78,14,17,Jits_Phase_5,3,5,80,127,1751692800
78,14,17,Jits_Phase_5,0,5,80,127,1752112548
78,14,17,Jits_Phase_5,1,1,48,52,1752137840
78,14,17,Jits_Phase_5,2,5,56,103,1752193384
78,14,17,Jits_Phase_5,3,5,63,98,1752202756
78,14,17,Jits_Phase_5,0,1,48,50,1752649576
78,14,17,Jits_Phase_5,1,5,56,103,1752653432
78,14,17,Jits_Phase_5,2,5,63,98,1752656424
78,14,17,Jits_Phase_5,3,5,80,127,1752663404
78,14,17,Jits_Phase_5,0,1,48,53,1753157412
78,14,17,Jits_Phase_5,1,5,56,103,1753173328
78,14,17,Jits_Phase_5,2,5,63,98,1753192668
78,14,17,Jits_Phase_5,3,5,80,127,1753203232
78,14,17,Jits_Phase_5,0,5,63,98,1753633380
78,14,17,Jits_Phase_5,1,5,80,127,1753643500
78,14,17,Jits_Phase_5,2,5,56,103,1753662764
78,14,17,Jits_Phase_5,3,1,48,53,1753668724
78,14,17,Jits_Phase_5,0,5,63,98,1754132752
78,14,17,Jits_Phase_5,1,1,48,54,1754159012
78,14,17,Jits_Phase_5,2,5,56,103,1754212608
78,14,17,Jits_Phase_5,3,5,80,127,1754215828
78,14,17,Jits_Phase_5,0,5,63,98,1754642908
78,14,17,Jits_Phase_5,1,5,56,103,1754663368
78,14,17,Jits_Phase_5,2,1,48,56,1754687236
78,14,17,Jits_Phase_5,3,5,80,127,1754693184
78,14,17,Jits_Phase_5,0,5,56,103,1755142508
78,14,17,Jits_Phase_5,1,5,63,98,1755163116
78,14,17,Jits_Phase_5,2,1,48,49,1755164008
78,14,17,Jits_Phase_5,3,5,80,127,1755173308
78,14,17,Jits_Phase_5,0,1,48,57,1755642020
78,14,17,Jits_Phase_5,1,5,56,103,1755673056
78,14,17,Jits_Phase_5,2,5,63,98,1755702580
78,14,17,Jits_Phase_5,3,5,80,127,1755706092
78,14,17,Jits_Phase_5,0,5,56,103,1756122608
78,14,17,Jits_Phase_5,1,1,48,62,1756153748
78,14,17,Jits_Phase_5,2,5,63,98,1756162392
78,14,17,Jits_Phase_5,3,5,80,127,1756222780
78,14,17,Jits_Phase_5,0,1,48,56,1756625936
78,14,17,Jits_Phase_5,1,5,56,103,1756642744
78,14,17,Jits_Phase_5,2,5,63,98,1756653388
78,14,17,Jits_Phase_5,3,5,80,127,1756713252
78,14,17,Jits_Phase_5,0,1,48,58,1757140140
78,14,17,Jits_Phase_5,1,5,56,103,1757143396
78,14,17,Jits_Phase_5,2,5,80,127,1757163028
78,14,17,Jits_Phase_5,3,5,63,98,1757192552
78,14,17,Jits_Phase_5,0,5,80,127,1757643300
78,14,17,Jits_Phase_5,1,5,56,103,1757653420
78,14,17,Jits_Phase_5,2,5,63,98,1757672760
78,14,17,Jits_Phase_5,3,1,48,62,1757685164
78,14,17,Jits_Phase_5,0,5,63,98,1758132624
78,14,17,Jits_Phase_5,1,1,48,61,1758194280
78,14,17,Jits_Phase_5,2,5,80,127,1758212436
78,14,17,Jits_Phase_5,3,5,56,103,1758222632
78,14,17,Jits_Phase_5,0,1,48,57,1758655944
78,14,17,Jits_Phase_5,1,5,80,127,1758722376
78,14,17,Jits_Phase_5,2,5,56,103,1758742832
78,14,17,Jits_Phase_5,3,5,63,98,1758745972
78,14,17,Jits_Phase_5,0,1,48,58,1759174196
78,14,17,Jits_Phase_5,1,5,63,98,1759213200
78,14,17,Jits_Phase_5,2,5,80,127,1759216488
78,14,17,Jits_Phase_5,3,5,56,103,1759273272
78,14,17,Jits_Phase_5,0,1,48,55,1759692272
78,14,17,Jits_Phase_5,1,5,56,103,1759693840
78,14,17,Jits_Phase_5,2,5,80,127,1759703360
78,14,17,Jits_Phase_5,3,5,63,98,1759743296
78,14,17,Jits_Phase_5,0,1,48,55,1760173716
78,14,17,Jits_Phase_5,1,5,56,103,1760175132
78,14,17,Jits_Phase_5,2,5,63,98,1760232776
78,14,17,Jits_Phase_5,3,5,80,127,1760243124
78,14,17,Jits_Phase_5,0,5,63,98,1760683280
78,14,17,Jits_Phase_5,1,1,48,61,1760690060
78,14,17,Jits_Phase_5,2,5,80,127,1760723384
78,14,17,Jits_Phase_5,3,5,56,103,1760763248
78,14,17,Jits_Phase_5,0,5,56,103,1761183028
78,14,17,Jits_Phase_5,1,1,48,61,1761219552
78,14,17,Jits_Phase_5,2,5,63,98,1761263064
78,14,17,Jits_Phase_5,3,5,80,127,1761266276
78,14,17,Jits_Phase_5,0,1,48,62,1761713772
78,14,17,Jits_Phase_5,1,5,80,127,1761743116
78,14,17,Jits_Phase_5,2,5,56,103,1761773088
78,14,17,Jits_Phase_5,3,5,63,98,1761776152
78,14,17,Jits_Phase_5,0,5,56,103,1762203132
78,14,17,Jits_Phase_5,1,5,80,127,1762222544
78,14,17,Jits_Phase_5,2,1,48,57,1762231588
78,14,17,Jits_Phase_5,3,5,63,98,1762263396
78,14,17,Jits_Phase_5,0,5,80,127,1762683192
78,14,17,Jits_Phase_5,1,5,63,98,1762702752
78,14,17,Jits_Phase_5,2,1,48,57,1762721760
78,14,17,Jits_Phase_5,3,5,56,103,1762763084
78,14,17,Jits_Phase_5,0,5,63,98,1763193296
78,14,17,Jits_Phase_5,1,5,56,103,1763202296
78,14,17,Jits_Phase_5,2,1,48,58,1763240388
78,14,17,Jits_Phase_5,3,5,80,127,1763252560
78,14,17,Jits_Phase_5,0,5,56,103,1763682780
78,14,17,Jits_Phase_5,1,5,63,98,1763703088
78,14,17,Jits_Phase_5,2,5,80,127,1763713360
78,14,17,Jits_Phase_5,3,1,48,53,1763738796
78,14,17,Jits_Phase_5,0,5,56,103,1764173172
78,14,17,Jits_Phase_5,1,5,63,98,1764176312
78,14,17,Jits_Phase_5,2,5,80,127,1764192656
78,14,17,Jits_Phase_5,3,1,48,60,1764199816
78,14,17,Jits_Phase_5,0,1,48,55,1764668832
78,14,17,Jits_Phase_5,1,5,63,98,1764712992
78,14,17,Jits_Phase_5,2,5,56,103,1764742448
78,14,17,Jits_Phase_5,3,5,80,127,1764773228
78,14,17,Jits_Phase_5,0,5,80,127,1765172524
78,14,17,Jits_Phase_5,1,1,48,63,1765202616
78,14,17,Jits_Phase_5,2,5,56,103,1765262872
78,14,17,Jits_Phase_5,3,5,63,98,1765265936
78,14,17,Jits_Phase_5,0,5,56,103,1765673324
78,14,17,Jits_Phase_5,1,5,80,127,1765676392
78,14,17,Jits_Phase_5,2,1,48,56,1765719364
78,14,17,Jits_Phase_5,3,5,63,98,1765753256
78,14,17,Jits_Phase_5,0,5,80,127,1766173148
78,14,17,Jits_Phase_5,1,1,48,59,1766198516
78,14,17,Jits_Phase_5,2,5,63,98,1766232560
78,14,17,Jits_Phase_5,3,5,56,103,1766263208
78,14,17,Jits_Phase_5,0,5,63,98,1766672696
78,14,17,Jits_Phase_5,1,5,80,127,1766682964
78,14,17,Jits_Phase_5,2,1,48,59,1766703172
78,14,17,Jits_Phase_5,3,5,56,103,1766752560
78,14,17,Jits_Phase_5,0,1,48,60,1767216904
78,14,17,Jits_Phase_5,1,5,56,103,1767233044
78,14,17,Jits_Phase_5,2,5,80,127,1767262716
78,14,17,Jits_Phase_5,3,5,63,98,1767312828
78,14,17,Jits_Phase_5,0,1,48,56,1767744524
78,14,17,Jits_Phase_5,1,5,63,98,1767822836
78,14,17,Jits_Phase_5,2,5,56,103,1767853312
78,14,17,Jits_Phase_5,3,5,80,127,1767856460
78,14,17,Jits_Phase_5,0,1,48,58,1768312220
78,14,17,Jits_Phase_5,1,5,63,98,1768322284
78,14,17,Jits_Phase_5,2,5,80,127,1768343112
78,14,17,Jits_Phase_5,3,5,56,103,1768353236
78,14,17,Jits_Phase_5,0,5,56,103,1768833352
78,14,17,Jits_Phase_5,1,5,63,98,1768836416
78,14,17,Jits_Phase_5,2,1,48,59,1768838652
78,14,17,Jits_Phase_5,3,5,80,127,1768853128
78,14,17,Jits_Phase_5,0,5,56,103,1769283060
78,14,17,Jits_Phase_5,1,5,63,98,1769293256
78,14,17,Jits_Phase_5,2,5,80,127,1769322932
78,14,17,Jits_Phase_5,3,1,48,63,1769365680
78,14,17,Jits_Phase_5,0,5,63,98,1769803052
78,14,17,Jits_Phase_5,1,5,80,127,1769822536
78,14,17,Jits_Phase_5,2,1,48,54,1769827972
78,14,17,Jits_Phase_5,3,5,56,103,1769862392
78,14,17,Jits_Phase_5,0,1,48,59,1770313032
78,14,17,Jits_Phase_5,1,5,56,103,1770332460
78,14,17,Jits_Phase_5,2,5,63,98,1770372472
78,14,17,Jits_Phase_5,3,5,80,127,1770375984
78,14,17,Jits_Phase_5,0,5,80,127,1770772876
78,14,17,Jits_Phase_5,1,5,56,103,1770812960
78,14,17,Jits_Phase_5,2,1,48,56,1770821932
78,14,17,Jits_Phase_5,3,5,63,98,1770863004
78,14,17,Jits_Phase_5,0,1,48,53,1771305716
78,14,17,Jits_Phase_5,1,5,56,103,1771333092
78,14,17,Jits_Phase_5,2,5,80,127,1771343140
78,14,17,Jits_Phase_5,3,5,63,98,1771373036
78,14,17,Jits_Phase_5,0,5,56,103,1771782584
78,14,17,Jits_Phase_5,1,1,48,60,1771819112
78,14,17,Jits_Phase_5,2,5,80,127,1771822364
78,14,17,Jits_Phase_5,3,5,63,98,1771872636
78,14,17,Jits_Phase_5,0,5,56,103,1772283168
78,14,17,Jits_Phase_5,1,1,48,54,1772311768
78,14,17,Jits_Phase_5,2,5,80,127,1772323248
78,14,17,Jits_Phase_5,3,5,63,98,1772373520
78,14,17,Jits_Phase_5,0,5,80,127,1772772744
78,14,17,Jits_Phase_5,1,1,48,63,1772842472
78,14,17,Jits_Phase_5,2,5,63,98,1772852608
78,14,17,Jits_Phase_5,3,5,56,103,1772863024
78,14,17,Jits_Phase_5,0,5,80,127,1773322556
78,14,17,Jits_Phase_5,1,5,56,103,1773332828
78,14,17,Jits_Phase_5,2,5,63,98,1773353508
78,14,17,Jits_Phase_5,3,1,48,62,1773357000
78,14,17,Jits_Phase_5,0,5,63,98,1773792508
78,14,17,Jits_Phase_5,1,1,48,54,1773834880
78,14,17,Jits_Phase_5,2,5,56,103,1773863224
78,14,17,Jits_Phase_5,3,5,80,127,1773866216
78,14,17,Jits_Phase_5,0,5,80,127,1774283108
78,14,17,Jits_Phase_5,1,5,63,98,1774333232
78,14,17,Jits_Phase_5,2,1,48,57,1774352392
78,14,17,Jits_Phase_5,3,5,56,103,1774373164
78,14,17,Jits_Phase_5,0,5,63,98,1774822884
78,14,17,Jits_Phase_5,1,5,56,103,1774862896
78,14,17,Jits_Phase_5,2,1,48,58,1774870052
78,14,17,Jits_Phase_5,3,5,80,127,1774873008
78,14,17,Jits_Phase_5,0,5,63,98,1775313120
78,14,17,Jits_Phase_5,1,5,56,103,1775332684
78,14,17,Jits_Phase_5,2,1,48,57,1775346888
78,14,17,Jits_Phase_5,3,5,80,127,1775353132
78,14,17,Jits_Phase_5,0,5,80,127,1775773064
78,14,17,Jits_Phase_5,1,5,56,103,1775783332
78,14,17,Jits_Phase_5,2,5,63,98,1775802968
78,14,17,Jits_Phase_5,3,1,48,60,1775824244
78,14,17,Jits_Phase_5,0,5,63,98,1776302336
78,14,17,Jits_Phase_5,1,1,48,57,1776305384
78,14,17,Jits_Phase_5,2,5,56,103,1776343416
78,14,17,Jits_Phase_5,3,5,80,127,1776373088
78,14,17,Jits_Phase_5,0,5,56,103,1776763132
78,14,17,Jits_Phase_5,1,5,63,98,1776792956
78,14,17,Jits_Phase_5,2,1,48,54,1776809700
78,14,17,Jits_Phase_5,3,5,80,127,1776822772
78,14,17,Jits_Phase_5,0,5,80,127,1777183188
78,14,17,Jits_Phase_5,1,5,56,103,1777253024
78,14,17,Jits_Phase_5,2,5,63,98,1777255936
78,14,17,Jits_Phase_5,3,1,48,59,1777279576
78,14,17,Jits_Phase_5,0,5,56,103,1777693136
78,14,17,Jits_Phase_5,1,5,63,98,1777743112
78,14,17,Jits_Phase_5,2,5,80,127,1777773084
78,14,17,Jits_Phase_5,3,1,48,56,1777777852
78,14,17,Jits_Phase_5,0,5,63,98,1778173344
78,14,17,Jits_Phase_5,1,5,80,127,1778176780
78,14,17,Jits_Phase_5,2,5,56,103,1778232904
78,14,17,Jits_Phase_5,3,1,48,58,1778233796
78,14,17,Jits_Phase_5,0,5,56,103,1778702752
78,14,17,Jits_Phase_5,1,5,80,127,1778712948
78,14,17,Jits_Phase_5,2,1,48,54,1778722964
78,14,17,Jits_Phase_5,3,5,63,98,1778762992
78,14,17,Jits_Phase_5,0,5,63,98,1779172996
78,14,17,Jits_Phase_5,1,5,56,103,1779182896
78,14,17,Jits_Phase_5,2,1,48,57,1779204964
78,14,17,Jits_Phase_5,3,5,80,127,1779212860
78,14,17,Jits_Phase_5,0,1,48,55,1779689640
78,14,17,Jits_Phase_5,1,5,63,98,1779703080
78,14,17,Jits_Phase_5,2,5,80,127,1779706592
78,14,17,Jits_Phase_5,3,5,56,103,1779732756
78,14,17,Jits_Phase_5,0,1,48,60,1780169900
78,14,17,Jits_Phase_5,1,5,63,98,1780223348
78,14,17,Jits_Phase_5,2,5,56,103,1780242832
78,14,17,Jits_Phase_5,3,5,80,127,1780245972
78,14,17,Jits_Phase_5,0,1,48,55,1780674340
78,14,17,Jits_Phase_5,1,5,63,98,1780683156
78,14,17,Jits_Phase_5,2,5,56,103,1780752912
78,14,17,Jits_Phase_5,3,5,80,127,1780773132
78,14,17,Jits_Phase_5,0,5,56,103,1781172776
78,14,17,Jits_Phase_5,1,5,63,98,1781183048
78,14,17,Jits_Phase_5,2,1,48,58,1781201632
78,14,17,Jits_Phase_5,3,5,80,127,1781272820
78,14,17,Jits_Phase_5,0,5,56,103,1781692992
78,14,17,Jits_Phase_5,1,1,48,59,1781705880
78,14,17,Jits_Phase_5,2,5,80,127,1781732800
78,14,17,Jits_Phase_5,3,5,63,98,1781742996
78,14,17,Jits_Phase_5,0,1,48,52,1782204188
78,14,17,Jits_Phase_5,1,5,56,103,1782212980
78,14,17,Jits_Phase_5,2,5,63,98,1782243052
78,14,17,Jits_Phase_5,3,5,80,127,1782273324
78,14,17,Jits_Phase_5,0,5,80,127,1782672728
78,14,17,Jits_Phase_5,1,5,63,98,1782712664
78,14,17,Jits_Phase_5,2,1,48,51,1782728740
78,14,17,Jits_Phase_5,3,5,56,103,1782733040
78,14,17,Jits_Phase_5,0,1,48,50,1783200908
78,14,17,Jits_Phase_5,1,5,56,103,1783213288
78,14,17,Jits_Phase_5,2,5,80,127,1783232848
78,14,17,Jits_Phase_5,3,5,63,98,1783253480
78,14,17,Jits_Phase_5,0,5,63,98,1783682700
78,14,17,Jits_Phase_5,1,5,56,103,1783692896
78,14,17,Jits_Phase_5,2,1,48,63,1783711832
78,14,17,Jits_Phase_5,3,5,80,127,1783753524
78,14,17,Jits_Phase_5,0,5,56,103,1784183124
78,14,17,Jits_Phase_5,1,1,48,54,1784211724
78,14,17,Jits_Phase_5,2,5,63,98,1784252872
78,14,17,Jits_Phase_5,3,5,80,127,1784273280
78,14,17,Jits_Phase_5,0,5,56,103,1784682816
78,14,17,Jits_Phase_5,1,1,48,60,1784702348
78,14,17,Jits_Phase_5,2,5,63,98,1784712556
78,14,17,Jits_Phase_5,3,5,80,127,1784752792
78,14,17,Jits_Phase_5,0,5,63,98,1785173288
78,14,17,Jits_Phase_5,1,1,48,59,1785188392
78,14,17,Jits_Phase_5,2,5,56,103,1785222732
78,14,17,Jits_Phase_5,3,5,80,127,1785232780
78,14,17,Jits_Phase_5,0,1,48,55,1785670592
78,14,17,Jits_Phase_5,1,5,56,103,1785712960
78,14,17,Jits_Phase_5,2,5,63,98,1785763072
78,14,17,Jits_Phase_5,3,5,80,127,1785773716
78,14,17,Jits_Phase_5,0,1,48,58,1786176496
78,14,17,Jits_Phase_5,1,5,56,103,1786183048
78,14,17,Jits_Phase_5,2,5,63,98,1786193392
78,14,17,Jits_Phase_5,3,5,80,127,1786273092
78,14,17,Jits_Phase_5,0,9999,9999,9999,1701940340
78,14,17,Jits_Phase_5,1,9999,9999,9999,1702441020
78,14,17,Jits_Phase_5,2,9999,9999,9999,1702940752
78,14,17,Jits_Phase_5,3,9999,9999,9999,1703440476
78,14,17,Jits_Phase_5,4,9999,9999,9999,1703940168
78,14,17,Jits_Phase_5,5,9999,9999,9999,1704440896
78,14,17,Jits_Phase_5,6,9999,9999,9999,1704940644
78,14,17,Jits_Phase_5,7,9999,9999,9999,1705440336
78,14,17,Jits_Phase_5,8,9999,9999,9999,1705941068
78,14,17,Jits_Phase_5,9,9999,9999,9999,1706440780
78,14,17,Jits_Phase_5,10,9999,9999,9999,1706940536
78,14,17,Jits_Phase_5,11,9999,9999,9999,1707440224
78,14,17,Jits_Phase_5,12,9999,9999,9999,1707940936
78,14,17,Jits_Phase_5,13,9999,9999,9999,1708440684
78,14,17,Jits_Phase_5,14,9999,9999,9999,1708940356
78,14,17,Jits_Phase_5,15,9999,9999,9999,1709440116
78,14,17,Jits_Phase_5,16,9999,9999,9999,1709940836
78,14,17,Jits_Phase_5,17,9999,9999,9999,1710440512
78,14,17,Jits_Phase_5,18,9999,9999,9999,1710940256
78,14,17,Jits_Phase_5,19,9999,9999,9999,1711440992
78,14,17,Jits_Phase_5,20,9999,9999,9999,1711940668
78,14,17,Jits_Phase_5,21,9999,9999,9999,1712440416
78,14,17,Jits_Phase_5,22,9999,9999,9999,1712940100
78,14,17,Jits_Phase_5,23,9999,9999,9999,1713440836
78,14,17,Jits_Phase_5,24,9999,9999,9999,1713940600
78,14,17,Jits_Phase_5,25,9999,9999,9999,1714440284
78,14,17,Jits_Phase_5,26,9999,9999,9999,1714941020
78,14,17,Jits_Phase_5,27,9999,9999,9999,1715440732
78,14,17,Jits_Phase_5,28,9999,9999,9999,1715940424
78,14,17,Jits_Phase_5,29,9999,9999,9999,1716440188
78,14,17,Jits_Phase_5,30,9999,9999,9999,1716930636
78,14,17,Jits_Phase_5,31,9999,9999,9999,1717430396
78,14,17,Jits_Phase_5,32,9999,9999,9999,1717931124
78,14,17,Jits_Phase_5,33,9999,9999,9999,1718441080
78,14,17,Jits_Phase_5,34,9999,9999,9999,1718940768
78,14,17,Jits_Phase_5,35,9999,9999,9999,1719440444
78,14,17,Jits_Phase_5,36,9999,9999,9999,1719940180
78,14,17,Jits_Phase_5,37,9999,9999,9999,1720440904
78,14,17,Jits_Phase_5,38,9999,9999,9999,1720940668
78,14,17,Jits_Phase_5,39,9999,9999,9999,1721440340
78,14,17,Jits_Phase_5,40,9999,9999,9999,1721941064
78,14,17,Jits_Phase_5,41,9999,9999,9999,1722440820
78,14,17,Jits_Phase_5,42,9999,9999,9999,1722940508
78,14,17,Jits_Phase_5,43,9999,9999,9999,1723440252
78,14,17,Jits_Phase_5,44,9999,9999,9999,1723940972
78,14,17,Jits_Phase_5,45,9999,9999,9999,1724440656
78,14,17,Jits_Phase_5,46,9999,9999,9999,1724940404
78,14,17,Jits_Phase_5,47,9999,9999,9999,1725440084
78,14,17,Jits_Phase_5,48,9999,9999,9999,1725951072
78,14,17,Jits_Phase_5,49,9999,9999,9999,1726450768
78,14,17,Jits_Phase_5,50,9999,9999,9999,1726950504
78,14,17,Jits_Phase_5,51,9999,9999,9999,1727450196
78,14,17,Jits_Phase_5,52,9999,9999,9999,1727950932
78,14,17,Jits_Phase_5,53,9999,9999,9999,1728450676
78,14,17,Jits_Phase_5,54,9999,9999,9999,1728950344
78,14,17,Jits_Phase_5,55,9999,9999,9999,1729451076
78,14,17,Jits_Phase_5,56,9999,9999,9999,1729961028
78,14,17,Jits_Phase_5,57,9999,9999,9999,1730460784
78,14,17,Jits_Phase_5,58,9999,9999,9999,1730960472
78,14,17,Jits_Phase_5,59,9999,9999,9999,1731460204
78,14,17,Jits_Phase_5,60,9999,9999,9999,1731960940
78,14,17,Jits_Phase_5,61,9999,9999,9999,1732460612
78,14,17,Jits_Phase_5,62,9999,9999,9999,1732960372
78,14,17,Jits_Phase_5,63,9999,9999,9999,1733461104
78,14,17,Jits_Phase_5,64,9999,9999,9999,1733980264
78,14,17,Jits_Phase_5,65,9999,9999,9999,1734480996
78,14,17,Jits_Phase_5,66,9999,9999,9999,1734980688
78,14,17,Jits_Phase_5,67,9999,9999,9999,1735480440
78,14,17,Jits_Phase_5,68,9999,9999,9999,1735980132
78,14,17,Jits_Phase_5,69,9999,9999,9999,1736480852
78,14,17,Jits_Phase_5,70,9999,9999,9999,1736980588
78,14,17,Jits_Phase_5,71,9999,9999,9999,1737480280
78,14,17,Jits_Phase_5,72,9999,9999,9999,1737981012
78,14,17,Jits_Phase_5,73,9999,9999,9999,1738480760
78,14,17,Jits_Phase_5,74,9999,9999,9999,1738980436
78,14,17,Jits_Phase_5,75,9999,9999,9999,1739480184
78,14,17,Jits_Phase_5,76,9999,9999,9999,1739980924
78,14,17,Jits_Phase_5,77,9999,9999,9999,1740480576
78,14,17,Jits_Phase_5,78,9999,9999,9999,1740980340
78,14,17,Jits_Phase_5,79,9999,9999,9999,1741481064
78,14,17,Jits_Phase_5,80,9999,9999,9999,1741980740
78,14,17,Jits_Phase_5,81,9999,9999,9999,1742461008
78,14,17,Jits_Phase_5,82,9999,9999,9999,1742960696
78,14,17,Jits_Phase_5,83,9999,9999,9999,1743460444
78,14,17,Jits_Phase_5,84,9999,9999,9999,1743960136
78,14,17,Jits_Phase_5,85,9999,9999,9999,1744460852
78,14,17,Jits_Phase_5,86,9999,9999,9999,1744960600
78,14,17,Jits_Phase_5,87,9999,9999,9999,1745460288
78,14,17,Jits_Phase_5,88,9999,9999,9999,1745961024
78,14,17,Jits_Phase_5,89,9999,9999,9999,1746460788
78,14,17,Jits_Phase_5,90,9999,9999,9999,1746960476
78,14,17,Jits_Phase_5,91,9999,9999,9999,1747460160
78,14,17,Jits_Phase_5,92,9999,9999,9999,1747960956
78,14,17,Jits_Phase_5,93,9999,9999,9999,1748460632
78,14,17,Jits_Phase_5,94,9999,9999,9999,1748960380
78,14,17,Jits_Phase_5,95,9999,9999,9999,1749461100
78,14,17,Jits_Phase_5,96,9999,9999,9999,1749960828
78,14,17,Jits_Phase_5,97,9999,9999,9999,1750410304
78,14,17,Jits_Phase_5,98,9999,9999,9999,1750911100
78,14,17,Jits_Phase_5,99,9999,9999,9999,1751410792
78,14,17,Jits_Phase_5,100,9999,9999,9999,1751910464
78,14,17,Jits_Phase_5,101,9999,9999,9999,1752410232
78,14,17,Jits_Phase_5,102,9999,9999,9999,1752910956
78,14,17,Jits_Phase_5,103,9999,9999,9999,1753410636
78,14,17,Jits_Phase_5,104,9999,9999,9999,1753910380
78,14,17,Jits_Phase_5,105,9999,9999,9999,1754411096
78,14,17,Jits_Phase_5,106,9999,9999,9999,1754921036
78,14,17,Jits_Phase_5,107,9999,9999,9999,1755420784
78,14,17,Jits_Phase_5,108,9999,9999,9999,1755920468
78,14,17,Jits_Phase_5,109,9999,9999,9999,1756420216
78,14,17,Jits_Phase_5,110,9999,9999,9999,1756920956
78,14,17,Jits_Phase_5,111,9999,9999,9999,1757420628
78,14,17,Jits_Phase_5,112,9999,9999,9999,1757920380
78,14,17,Jits_Phase_5,113,9999,9999,9999,1758421116
78,14,17,Jits_Phase_5,114,9999,9999,9999,1758970980
78,14,17,Jits_Phase_5,115,9999,9999,9999,1759470652
78,14,17,Jits_Phase_5,116,9999,9999,9999,1759970400
78,14,17,Jits_Phase_5,117,9999,9999,9999,1760470076
78,14,17,Jits_Phase_5,118,9999,9999,9999,1760970872
78,14,17,Jits_Phase_5,119,9999,9999,9999,1761470588
78,14,17,Jits_Phase_5,120,9999,9999,9999,1761970276
78,14,17,Jits_Phase_5,121,9999,9999,9999,1762470996
78,14,17,Jits_Phase_5,122,9999,9999,9999,1762970684
78,14,17,Jits_Phase_5,123,9999,9999,9999,1763470448
78,14,17,Jits_Phase_5,124,9999,9999,9999,1763970120
78,14,17,Jits_Phase_5,125,9999,9999,9999,1764470840
78,14,17,Jits_Phase_5,126,9999,9999,9999,1764970604
78,14,17,Jits_Phase_5,127,9999,9999,9999,1765470272
78,14,17,Jits_Phase_5,128,9999,9999,9999,1765971068
78,14,17,Jits_Phase_5,129,9999,9999,9999,1766470760
78,14,17,Jits_Phase_5,130,9999,9999,9999,1766970448
78,14,17,Jits_Phase_5,131,9999,9999,9999,1767570508
78,14,17,Jits_Phase_5,132,9999,9999,9999,1768070252
78,14,17,Jits_Phase_5,133,9999,9999,9999,1768570976
78,14,17,Jits_Phase_5,134,9999,9999,9999,1769070716
78,14,17,Jits_Phase_5,135,9999,9999,9999,1769570404
78,14,17,Jits_Phase_5,136,9999,9999,9999,1770070092
78,14,17,Jits_Phase_5,137,9999,9999,9999,1770570812
78,14,17,Jits_Phase_5,138,9999,9999,9999,1771070556
78,14,17,Jits_Phase_5,139,9999,9999,9999,1771570252
78,14,17,Jits_Phase_5,140,9999,9999,9999,1772070976
78,14,17,Jits_Phase_5,141,9999,9999,9999,1772570736
78,14,17,Jits_Phase_5,142,9999,9999,9999,1773070428
78,14,17,Jits_Phase_5,143,9999,9999,9999,1773570124
78,14,17,Jits_Phase_5,144,9999,9999,9999,1774070852
78,14,17,Jits_Phase_5,145,9999,9999,9999,1774570604
78,14,17,Jits_Phase_5,146,9999,9999,9999,1775070300
78,14,17,Jits_Phase_5,147,9999,9999,9999,1775571024
78,14,17,Jits_Phase_5,148,9999,9999,9999,1776070744
78,14,17,Jits_Phase_5,149,9999,9999,9999,1776570428
78,14,17,Jits_Phase_5,150,9999,9999,9999,1776970844
78,14,17,Jits_Phase_5,151,9999,9999,9999,1777470524
78,14,17,Jits_Phase_5,152,9999,9999,9999,1777970292
78,14,17,Jits_Phase_5,153,9999,9999,9999,1778471016
78,14,17,Jits_Phase_5,154,9999,9999,9999,1778970692
78,14,17,Jits_Phase_5,155,9999,9999,9999,1779470452
78,14,17,Jits_Phase_5,156,9999,9999,9999,1779970120
78,14,17,Jits_Phase_5,157,9999,9999,9999,1780470908
78,14,17,Jits_Phase_5,158,9999,9999,9999,1780970584
78,14,17,Jits_Phase_5,159,9999,9999,9999,1781470332
78,14,17,Jits_Phase_5,160,9999,9999,9999,1781971068
78,14,17,Jits_Phase_5,161,9999,9999,9999,1782470740
78,14,17,Jits_Phase_5,162,9999,9999,9999,1782970456
78,14,17,Jits_Phase_5,163,9999,9999,9999,1783470148
78,14,17,Jits_Phase_5,164,9999,9999,9999,1783970940
78,14,17,Jits_Phase_5,165,9999,9999,9999,1784470620
78,14,17,Jits_Phase_5,166,9999,9999,9999,1784970308
78,14,17,Jits_Phase_5,167,9999,9999,9999,1785471040
78,14,17,Jits_Phase_5,168,9999,9999,9999,1785970796
78,14,17,Jits_Phase_5,169,9999,9999,9999,1786470472
78,15,15,Jits_Phase_8,0,5,56,103,1797561688
78,15,15,Jits_Phase_8,1,5,63,98,1797564788
78,15,15,Jits_Phase_8,2,5,80,127,1797567916
78,15,15,Jits_Phase_8,0,5,56,103,1798361432
78,15,15,Jits_Phase_8,1,5,63,98,1798364532
78,15,15,Jits_Phase_8,2,5,80,127,1798367584
78,15,15,Jits_Phase_8,0,5,80,127,1799101956
78,15,15,Jits_Phase_8,1,5,63,98,1799191968
78,15,15,Jits_Phase_8,2,5,56,103,1799202388
78,15,15,Jits_Phase_8,0,5,56,103,1799922172
78,15,15,Jits_Phase_8,1,5,63,98,1799932444
78,15,15,Jits_Phase_8,2,5,80,127,1800022500
78,15,15,Jits_Phase_8,0,5,63,98,1800692092
78,15,15,Jits_Phase_8,1,5,80,127,1800721768
78,15,15,Jits_Phase_8,2,1,48,60,1800725332
78,15,15,Jits_Phase_8,3,5,56,103,1800751584
78,15,15,Jits_Phase_8,0,1,48,55,1801428120
78,15,15,Jits_Phase_8,1,5,56,103,1801491912
78,15,15,Jits_Phase_8,2,5,80,127,1801592444
78,15,15,Jits_Phase_8,3,5,63,98,1801642344
78,15,15,Jits_Phase_8,0,1,48,61,1802253584
78,15,15,Jits_Phase_8,1,5,56,103,1802291596
78,15,15,Jits_Phase_8,2,5,80,127,1802341724
78,15,15,Jits_Phase_8,3,5,63,98,1802381648
78,15,15,Jits_Phase_8,0,1,48,54,1803094244
78,15,15,Jits_Phase_8,1,5,80,127,1803121992
78,15,15,Jits_Phase_8,2,5,63,98,1803151744
78,15,15,Jits_Phase_8,3,5,56,103,1803222480
78,15,15,Jits_Phase_8,0,5,63,98,1803951428
78,15,15,Jits_Phase_8,1,1,48,61,1803975668
78,15,15,Jits_Phase_8,2,5,56,103,1803982368
78,15,15,Jits_Phase_8,3,5,80,127,1804041564
78,15,15,Jits_Phase_8,0,5,56,103,1804691748
78,15,15,Jits_Phase_8,1,5,80,127,1804694888
78,15,15,Jits_Phase_8,2,1,48,63,1804794604
78,15,15,Jits_Phase_8,3,5,63,98,1804811564
78,15,15,Jits_Phase_8,0,1,48,17,1805543048
78,15,15,Jits_Phase_8,1,5,56,103,1805571400
78,15,15,Jits_Phase_8,2,5,80,127,1805612384
78,15,15,Jits_Phase_8,3,5,63,98,1805621608
78,15,15,Jits_Phase_8,0,1,48,62,1806295384
78,15,15,Jits_Phase_8,1,5,56,103,1806332196
78,15,15,Jits_Phase_8,2,5,80,127,1806351760
78,15,15,Jits_Phase_8,3,5,63,98,1806431468
78,15,15,Jits_Phase_8,0,1,48,65,1807103388
78,15,15,Jits_Phase_8,1,5,80,127,1807121844
78,15,15,Jits_Phase_8,2,5,56,103,1807222304
78,15,15,Jits_Phase_8,3,5,63,98,1807232348
78,15,15,Jits_Phase_8,0,5,63,98,1807891796
78,15,15,Jits_Phase_8,1,5,80,127,1807952188
78,15,15,Jits_Phase_8,2,5,56,103,1807961488
78,15,15,Jits_Phase_8,3,1,48,63,1808000348
78,15,15,Jits_Phase_8,0,5,56,103,1808691552
78,15,15,Jits_Phase_8,1,1,48,57,1808755500
78,15,15,Jits_Phase_8,2,5,63,98,1808762200
78,15,15,Jits_Phase_8,3,5,80,127,1808765412
78,15,15,Jits_Phase_8,0,1,48,61,1809520588
78,15,15,Jits_Phase_8,1,5,63,98,1809522172
78,15,15,Jits_Phase_8,2,5,56,103,1809572152
78,15,15,Jits_Phase_8,3,5,80,127,1809575216
78,15,15,Jits_Phase_8,0,5,56,103,1810281912
78,15,15,Jits_Phase_8,1,5,80,127,1810285204
78,15,15,Jits_Phase_8,2,1,48,64,1810349992
78,15,15,Jits_Phase_8,3,5,63,98,1810371892
78,15,15,Jits_Phase_8,0,5,63,98,1811121460
78,15,15,Jits_Phase_8,1,1,48,56,1811135592
78,15,15,Jits_Phase_8,2,5,56,103,1811211536
78,15,15,Jits_Phase_8,3,5,80,127,1811242392
78,15,15,Jits_Phase_8,0,5,56,103,1811912252
78,15,15,Jits_Phase_8,1,1,48,60,1811986472
78,15,15,Jits_Phase_8,2,5,63,98,1812012348
78,15,15,Jits_Phase_8,3,5,80,127,1812042244
78,15,15,Jits_Phase_8,0,5,63,98,1812732332
78,15,15,Jits_Phase_8,1,5,56,103,1812741556
78,15,15,Jits_Phase_8,2,1,48,64,1812831464
78,15,15,Jits_Phase_8,3,5,80,127,1812832728
78,15,15,Jits_Phase_8,0,5,63,98,1813551572
78,15,15,Jits_Phase_8,1,1,48,59,1813628704
78,15,15,Jits_Phase_8,2,5,56,103,1813632408
78,15,15,Jits_Phase_8,3,5,80,127,1813635404
78,15,15,Jits_Phase_8,0,5,80,127,1814312292
78,15,15,Jits_Phase_8,1,5,63,98,1814331708
78,15,15,Jits_Phase_8,2,5,56,103,1814392096
78,15,15,Jits_Phase_8,3,1,48,51,1814441292
78,15,15,Jits_Phase_8,0,5,56,103,1815152076
78,15,15,Jits_Phase_8,1,5,63,98,1815171412
78,15,15,Jits_Phase_8,2,5,80,127,1815174924
78,15,15,Jits_Phase_8,3,1,48,53,1815199936
78,15,15,Jits_Phase_8,0,5,63,98,1815892200
78,15,15,Jits_Phase_8,1,1,48,52,1815970632
78,15,15,Jits_Phase_8,2,5,80,127,1815972288
78,15,15,Jits_Phase_8,3,5,56,103,1815981364
78,15,15,Jits_Phase_8,0,1,48,54,1816708472
78,15,15,Jits_Phase_8,1,5,63,98,1816711728
78,15,15,Jits_Phase_8,2,5,56,103,1816732188
78,15,15,Jits_Phase_8,3,5,80,127,1816782264
78,15,15,Jits_Phase_8,0,1,48,57,1817497140
78,15,15,Jits_Phase_8,1,5,80,127,1817512232
78,15,15,Jits_Phase_8,2,5,63,98,1817552196
78,15,15,Jits_Phase_8,3,5,56,103,1817571832
78,15,15,Jits_Phase_8,0,1,48,58,1818307088
78,15,15,Jits_Phase_8,1,5,56,103,1818351948
78,15,15,Jits_Phase_8,2,5,63,98,1818362440
78,15,15,Jits_Phase_8,3,5,80,127,1818381704
78,15,15,Jits_Phase_8,0,5,56,103,1819081960
78,15,15,Jits_Phase_8,1,1,48,53,1819152588
78,15,15,Jits_Phase_8,2,5,63,98,1819172088
78,15,15,Jits_Phase_8,3,5,80,127,1819231580
78,15,15,Jits_Phase_8,0,5,80,127,1819911552
78,15,15,Jits_Phase_8,1,1,48,57,1819915192
78,15,15,Jits_Phase_8,2,5,56,103,1819922040
78,15,15,Jits_Phase_8,3,5,63,98,1819992544
78,15,15,Jits_Phase_8,0,5,63,98,1820742188
78,15,15,Jits_Phase_8,1,1,48,56,1820748596
78,15,15,Jits_Phase_8,2,5,80,127,1820832096
78,15,15,Jits_Phase_8,3,5,56,103,1820842440
78,15,15,Jits_Phase_8,0,5,63,98,1821472056
78,15,15,Jits_Phase_8,1,5,80,127,1821522184
78,15,15,Jits_Phase_8,2,1,48,49,1821563964
78,15,15,Jits_Phase_8,3,5,56,103,1821581820
78,15,15,Jits_Phase_8,0,5,56,103,1822292416
78,15,15,Jits_Phase_8,1,1,48,56,1822306548
78,15,15,Jits_Phase_8,2,5,80,127,1822341564
78,15,15,Jits_Phase_8,3,5,63,98,1822362172
78,15,15,Jits_Phase_8,0,5,56,103,1823062368
78,15,15,Jits_Phase_8,1,1,48,59,1823071488
78,15,15,Jits_Phase_8,2,5,80,127,1823122004
78,15,15,Jits_Phase_8,3,5,63,98,1823192372
78,15,15,Jits_Phase_8,0,5,56,103,1823862140
78,15,15,Jits_Phase_8,1,5,80,127,1823891968
78,15,15,Jits_Phase_8,2,1,48,59,1823900788
78,15,15,Jits_Phase_8,3,5,63,98,1823921488
78,15,15,Jits_Phase_8,0,1,48,51,1824679324
78,15,15,Jits_Phase_8,1,5,56,103,1824701836
78,15,15,Jits_Phase_8,2,5,80,127,1824722244
78,15,15,Jits_Phase_8,3,5,63,98,1824781796
78,15,15,Jits_Phase_8,0,1,48,50,1825480692
78,15,15,Jits_Phase_8,1,5,80,127,1825581400
78,15,15,Jits_Phase_8,2,5,56,103,1825591592
78,15,15,Jits_Phase_8,3,5,63,98,1825601864
78,15,15,Jits_Phase_8,0,1,48,49,1826315516
78,15,15,Jits_Phase_8,1,5,56,103,1826342364
78,15,15,Jits_Phase_8,2,5,80,127,1826382304
78,15,15,Jits_Phase_8,3,5,63,98,1826411964
78,15,15,Jits_Phase_8,0,5,56,103,1827112392
78,15,15,Jits_Phase_8,1,1,48,57,1827136112
78,15,15,Jits_Phase_8,2,5,63,98,1827142136
78,15,15,Jits_Phase_8,3,5,80,127,1827182072
78,15,15,Jits_Phase_8,0,5,80,127,1827861892
78,15,15,Jits_Phase_8,1,5,63,98,1827911948
78,15,15,Jits_Phase_8,2,5,56,103,1827931436
78,15,15,Jits_Phase_8,3,1,48,52,1827953208
78,15,15,Jits_Phase_8,0,5,56,103,1828692304
78,15,15,Jits_Phase_8,1,1,48,51,1828730416
78,15,15,Jits_Phase_8,2,5,80,127,1828761904
78,15,15,Jits_Phase_8,3,5,63,98,1828822320
78,15,15,Jits_Phase_8,0,1,48,59,1829492228
78,15,15,Jits_Phase_8,1,5,80,127,1829493416
78,15,15,Jits_Phase_8,2,5,63,98,1829582232
78,15,15,Jits_Phase_8,3,5,56,103,1829601780
78,15,15,Jits_Phase_8,0,5,63,98,1830312444
78,15,15,Jits_Phase_8,1,5,56,103,1830331932
78,15,15,Jits_Phase_8,2,1,48,55,1830334604
78,15,15,Jits_Phase_8,3,5,80,127,1830371888
78,15,15,Jits_Phase_8,0,5,80,127,1831072048
78,15,15,Jits_Phase_8,1,5,63,98,1831091608
78,15,15,Jits_Phase_8,2,1,48,55,1831151540
78,15,15,Jits_Phase_8,3,5,56,103,1831171348
78,15,15,Jits_Phase_8,0,5,63,98,1831861704
78,15,15,Jits_Phase_8,1,1,48,59,1831911152
78,15,15,Jits_Phase_8,2,5,56,103,1831972308
78,15,15,Jits_Phase_8,3,5,80,127,1831975524
78,15,15,Jits_Phase_8,0,5,63,98,1832681784
78,15,15,Jits_Phase_8,1,1,48,55,1832687292
78,15,15,Jits_Phase_8,2,5,56,103,1832692196
78,15,15,Jits_Phase_8,3,5,80,127,1832695184
78,15,15,Jits_Phase_8,0,1,48,58,1833443952
78,15,15,Jits_Phase_8,1,5,56,103,1833462036
78,15,15,Jits_Phase_8,2,5,80,127,1833581900
78,15,15,Jits_Phase_8,3,5,63,98,1833621840
78,15,15,Jits_Phase_8,0,1,48,59,1834249644
78,15,15,Jits_Phase_8,1,5,56,103,1834282252
78,15,15,Jits_Phase_8,2,5,80,127,1834362184
78,15,15,Jits_Phase_8,3,5,63,98,1834381968
78,15,15,Jits_Phase_8,0,5,56,103,1835082092
78,15,15,Jits_Phase_8,1,1,48,55,1835094280
78,15,15,Jits_Phase_8,2,5,63,98,1835191756
78,15,15,Jits_Phase_8,3,5,80,127,1835195048
78,15,15,Jits_Phase_8,0,5,56,103,1835921716
78,15,15,Jits_Phase_8,1,5,80,127,1835951764
78,15,15,Jits_Phase_8,2,5,63,98,1835971924
78,15,15,Jits_Phase_8,3,1,48,49,1835976092
78,15,15,Jits_Phase_8,0,5,63,98,1836712172
78,15,15,Jits_Phase_8,1,5,56,103,1836721620
78,15,15,Jits_Phase_8,2,5,80,127,1836731740
78,15,15,Jits_Phase_8,3,1,48,51,1836735904
78,15,15,Jits_Phase_8,0,1,48,54,1837473904
78,15,15,Jits_Phase_8,1,5,80,127,1837501952
78,15,15,Jits_Phase_8,2,5,56,103,1837551956
78,15,15,Jits_Phase_8,3,5,63,98,1837591880
78,15,15,Jits_Phase_8,0,1,48,56,1838285368
78,15,15,Jits_Phase_8,1,5,80,127,1838321888
78,15,15,Jits_Phase_8,2,5,63,98,1838341896
78,15,15,Jits_Phase_8,3,5,56,103,1838391860
78,15,15,Jits_Phase_8,0,5,80,127,1839132136
78,15,15,Jits_Phase_8,1,1,48,55,1839150176
78,15,15,Jits_Phase_8,2,5,56,103,1839161804
78,15,15,Jits_Phase_8,3,5,63,98,1839232236
78,15,15,Jits_Phase_8,0,5,56,103,1839981888
78,15,15,Jits_Phase_8,1,1,48,59,1839987100
78,15,15,Jits_Phase_8,2,5,80,127,1839992376
78,15,15,Jits_Phase_8,3,5,63,98,1840032240
78,15,15,Jits_Phase_8,0,5,56,103,1840691612
78,15,15,Jits_Phase_8,1,5,63,98,1840712144
78,15,15,Jits_Phase_8,2,5,80,127,1840781676
78,15,15,Jits_Phase_8,3,1,48,58,1840819416
78,15,15,Jits_Phase_8,0,5,63,98,1841511908
78,15,15,Jits_Phase_8,1,5,80,127,1841572152
78,15,15,Jits_Phase_8,2,5,56,103,1841591860
78,15,15,Jits_Phase_8,3,1,48,57,1841608108
78,15,15,Jits_Phase_8,0,5,80,127,1842302448
78,15,15,Jits_Phase_8,1,5,56,103,1842332048
78,15,15,Jits_Phase_8,2,5,63,98,1842361652
78,15,15,Jits_Phase_8,3,1,48,51,1842390348
78,15,15,Jits_Phase_8,0,5,56,103,1843101996
78,15,15,Jits_Phase_8,1,1,48,59,1843124140
78,15,15,Jits_Phase_8,2,5,63,98,1843161804
78,15,15,Jits_Phase_8,3,5,80,127,1843221808
78,15,15,Jits_Phase_8,0,5,80,127,1843922172
78,15,15,Jits_Phase_8,1,5,56,103,1843941808
78,15,15,Jits_Phase_8,2,1,48,63,1843974300
78,15,15,Jits_Phase_8,3,5,63,98,1844012528
78,15,15,Jits_Phase_8,0,5,80,127,1844722168
78,15,15,Jits_Phase_8,1,1,48,57,1844740300
78,15,15,Jits_Phase_8,2,5,63,98,1844741720
78,15,15,Jits_Phase_8,3,5,56,103,1844772072
78,15,15,Jits_Phase_8,0,5,80,127,1845511524
78,15,15,Jits_Phase_8,1,1,48,53,1845516960
78,15,15,Jits_Phase_8,2,5,63,98,1845531976
78,15,15,Jits_Phase_8,3,5,56,103,1845592516
78,15,15,Jits_Phase_8,0,1,48,65,1846301444
78,15,15,Jits_Phase_8,1,5,80,127,1846312480
78,15,15,Jits_Phase_8,2,5,56,103,1846411744
78,15,15,Jits_Phase_8,3,5,63,98,1846442612
78,15,15,Jits_Phase_8,0,5,63,98,1847101836
78,15,15,Jits_Phase_8,1,1,48,57,1847136644
78,15,15,Jits_Phase_8,2,5,80,127,1847151960
78,15,15,Jits_Phase_8,3,5,56,103,1847171668
78,15,15,Jits_Phase_8,0,1,48,58,1847897132
78,15,15,Jits_Phase_8,1,5,80,127,1847941592
78,15,15,Jits_Phase_8,2,5,56,103,1847972164
78,15,15,Jits_Phase_8,3,5,63,98,1847975308
78,15,15,Jits_Phase_8,0,1,48,49,1848709856
78,15,15,Jits_Phase_8,1,5,63,98,1848792392
78,15,15,Jits_Phase_8,2,5,56,103,1848832316
78,15,15,Jits_Phase_8,3,5,80,127,1848851876
78,15,15,Jits_Phase_8,0,1,48,62,1849543804
78,15,15,Jits_Phase_8,1,5,80,127,1849552368
78,15,15,Jits_Phase_8,2,5,63,98,1849632240
78,15,15,Jits_Phase_8,3,5,56,103,1849671940
78,15,15,Jits_Phase_8,0,5,63,98,1850371396
78,15,15,Jits_Phase_8,1,1,48,60,1850425980
78,15,15,Jits_Phase_8,2,5,80,127,1850452604
78,15,15,Jits_Phase_8,3,5,56,103,1850471720
78,15,15,Jits_Phase_8,0,5,56,103,1851212288
78,15,15,Jits_Phase_8,1,5,63,98,1851222408
78,15,15,Jits_Phase_8,2,1,48,57,1851248824
78,15,15,Jits_Phase_8,3,5,80,127,1851262488
78,15,15,Jits_Phase_8,0,5,56,103,1851932120
78,15,15,Jits_Phase_8,1,5,80,127,1851935112
78,15,15,Jits_Phase_8,2,1,48,58,1852010460
78,15,15,Jits_Phase_8,3,5,63,98,1852072584
78,15,15,Jits_Phase_8,0,5,56,103,1852721620
78,15,15,Jits_Phase_8,1,5,63,98,1852811532
78,15,15,Jits_Phase_8,2,1,48,56,1852828500
78,15,15,Jits_Phase_8,3,5,80,127,1852882496
78,15,15,Jits_Phase_8,0,5,63,98,1853602232
78,15,15,Jits_Phase_8,1,5,80,127,1853605520
78,15,15,Jits_Phase_8,2,1,48,60,1853618004
78,15,15,Jits_Phase_8,3,5,56,103,1853661588
78,15,15,Jits_Phase_8,0,1,48,57,1854400008
78,15,15,Jits_Phase_8,1,5,80,127,1854441860
78,15,15,Jits_Phase_8,2,5,56,103,1854462544
78,15,15,Jits_Phase_8,3,5,63,98,1854471544
78,15,15,Jits_Phase_8,0,5,56,103,1855151328
78,15,15,Jits_Phase_8,1,5,63,98,1855161672
78,15,15,Jits_Phase_8,2,5,80,127,1855232496
78,15,15,Jits_Phase_8,3,1,48,62,1855237264
78,15,15,Jits_Phase_8,0,5,80,127,1855952392
78,15,15,Jits_Phase_8,1,1,48,59,1855987952
78,15,15,Jits_Phase_8,2,5,56,103,1856002440
78,15,15,Jits_Phase_8,3,5,63,98,1856051520
78,15,15,Jits_Phase_8,0,1,48,48,1856761956
78,15,15,Jits_Phase_8,1,5,56,103,1856831956
78,15,15,Jits_Phase_8,2,5,63,98,1856842300
78,15,15,Jits_Phase_8,3,5,80,127,1856882000
78,15,15,Jits_Phase_8,0,1,48,51,1857501484
78,15,15,Jits_Phase_8,1,5,56,103,1857572456
78,15,15,Jits_Phase_8,2,5,63,98,1857612232
78,15,15,Jits_Phase_8,3,5,80,127,1857662356
78,15,15,Jits_Phase_8,0,5,80,127,1858331916
78,15,15,Jits_Phase_8,1,1,48,62,1858345668
78,15,15,Jits_Phase_8,2,5,56,103,1858382408
78,15,15,Jits_Phase_8,3,5,63,98,1858401596
78,15,15,Jits_Phase_8,0,5,80,127,1859141948
78,15,15,Jits_Phase_8,1,1,48,57,1859163500
78,15,15,Jits_Phase_8,2,5,63,98,1859202408
78,15,15,Jits_Phase_8,3,5,56,103,1859282360
78,15,15,Jits_Phase_8,0,5,80,127,1859922392
78,15,15,Jits_Phase_8,1,5,56,103,1859962552
78,15,15,Jits_Phase_8,2,5,63,98,1859981744
78,15,15,Jits_Phase_8,3,1,48,55,1859989348
78,15,15,Jits_Phase_8,0,1,48,60,1860756956
78,15,15,Jits_Phase_8,1,5,56,103,1860772496
78,15,15,Jits_Phase_8,2,5,80,127,1860781496
78,15,15,Jits_Phase_8,3,5,63,98,1860822508
78,15,15,Jits_Phase_8,0,1,48,61,1861537984
78,15,15,Jits_Phase_8,1,5,56,103,1861641496
78,15,15,Jits_Phase_8,2,5,63,98,1861681508
78,15,15,Jits_Phase_8,3,5,80,127,1861684796
78,15,15,Jits_Phase_8,0,5,63,98,1862312380
78,15,15,Jits_Phase_8,1,5,80,127,1862352196
78,15,15,Jits_Phase_8,2,1,48,56,1862359056
78,15,15,Jits_Phase_8,3,5,56,103,1862422092
78,15,15,Jits_Phase_8,0,5,63,98,1863082544
78,15,15,Jits_Phase_8,1,1,48,61,1863109208
78,15,15,Jits_Phase_8,2,5,56,103,1863162212
78,15,15,Jits_Phase_8,3,5,80,127,1863221612
78,15,15,Jits_Phase_8,0,1,48,57,1863857688
78,15,15,Jits_Phase_8,1,5,80,127,1863892360
78,15,15,Jits_Phase_8,2,5,63,98,1863941440
78,15,15,Jits_Phase_8,3,5,56,103,1863972372
78,15,15,Jits_Phase_8,0,5,56,103,1864681860
78,15,15,Jits_Phase_8,1,1,48,51,1864720048
78,15,15,Jits_Phase_8,2,5,63,98,1864732128
78,15,15,Jits_Phase_8,3,5,80,127,1864742324
78,15,15,Jits_Phase_8,0,1,48,56,1865483396
78,15,15,Jits_Phase_8,1,5,56,103,1865491812
78,15,15,Jits_Phase_8,2,5,63,98,1865602312
78,15,15,Jits_Phase_8,3,5,80,127,1865621872
78,15,15,Jits_Phase_8,0,1,48,62,1866281432
78,15,15,Jits_Phase_8,1,5,63,98,1866291496
78,15,15,Jits_Phase_8,2,5,80,127,1866341624
78,15,15,Jits_Phase_8,3,5,56,103,1866431964
78,15,15,Jits_Phase_8,0,1,48,59,1867055560
78,15,15,Jits_Phase_8,1,5,63,98,1867082260
78,15,15,Jits_Phase_8,2,5,80,127,1867111864
78,15,15,Jits_Phase_8,3,5,56,103,1867202052
78,15,15,Jits_Phase_8,0,5,63,98,1867882020
78,15,15,Jits_Phase_8,1,5,56,103,1867892292
78,15,15,Jits_Phase_8,2,1,48,61,1867894660
78,15,15,Jits_Phase_8,3,5,80,127,1867993512
78,15,15,Jits_Phase_8,0,1,48,53,1868710888
78,15,15,Jits_Phase_8,1,5,63,98,1868782112
78,15,15,Jits_Phase_8,2,5,80,127,1868811548
78,15,15,Jits_Phase_8,3,5,56,103,1868842492
78,15,15,Jits_Phase_8,0,1,48,54,1869504580
78,15,15,Jits_Phase_8,1,5,80,127,1869602316
78,15,15,Jits_Phase_8,2,5,63,98,1869612360
78,15,15,Jits_Phase_8,3,5,56,103,1869642112
78,15,15,Jits_Phase_8,0,5,80,127,1870301480
78,15,15,Jits_Phase_8,1,5,63,98,1870322016
78,15,15,Jits_Phase_8,2,1,48,54,1870335248
78,15,15,Jits_Phase_8,3,5,56,103,1870372208
78,15,15,Jits_Phase_8,0,1,48,54,1871096564
78,15,15,Jits_Phase_8,1,5,63,98,1871132108
78,15,15,Jits_Phase_8,2,5,80,127,1871192488
78,15,15,Jits_Phase_8,3,5,56,103,1871211824
78,15,15,Jits_Phase_8,0,5,63,98,1871891944
78,15,15,Jits_Phase_8,1,1,48,61,1871934316
78,15,15,Jits_Phase_8,2,5,56,103,1871942140
78,15,15,Jits_Phase_8,3,5,80,127,1871952336
78,15,15,Jits_Phase_8,0,5,56,103,1872722264
78,15,15,Jits_Phase_8,1,5,80,127,1872731640
78,15,15,Jits_Phase_8,2,1,48,54,1872738796
78,15,15,Jits_Phase_8,3,5,63,98,1872831952
78,15,15,Jits_Phase_8,0,5,80,127,1873482252
78,15,15,Jits_Phase_8,1,5,63,98,1873492376
78,15,15,Jits_Phase_8,2,1,48,62,1873529276
78,15,15,Jits_Phase_8,3,5,56,103,1873641916
78,15,15,Jits_Phase_8,0,5,63,98,1874292212
78,15,15,Jits_Phase_8,1,1,48,64,1874315180
78,15,15,Jits_Phase_8,2,5,80,127,1874332068
78,15,15,Jits_Phase_8,3,5,56,103,1874412172
78,15,15,Jits_Phase_8,0,5,56,103,1875041628
78,15,15,Jits_Phase_8,1,1,48,57,1875089088
78,15,15,Jits_Phase_8,2,5,80,127,1875142116
78,15,15,Jits_Phase_8,3,5,63,98,1875161452
78,15,15,Jits_Phase_8,0,1,48,57,1875842124
78,15,15,Jits_Phase_8,1,5,80,127,1875862148
78,15,15,Jits_Phase_8,2,5,56,103,1875872044
78,15,15,Jits_Phase_8,3,5,63,98,1875962184
78,15,15,Jits_Phase_8,0,1,48,53,1876624572
78,15,15,Jits_Phase_8,1,5,56,103,1876661984
78,15,15,Jits_Phase_8,2,5,63,98,1876682096
78,15,15,Jits_Phase_8,3,5,80,127,1876762024
78,15,15,Jits_Phase_8,0,1,48,56,1877409564
78,15,15,Jits_Phase_8,1,5,63,98,1877412224
78,15,15,Jits_Phase_8,2,5,56,103,1877502308
78,15,15,Jits_Phase_8,3,5,80,127,1877506404
78,15,15,Jits_Phase_8,0,1,48,56,1878231000
78,15,15,Jits_Phase_8,1,5,56,103,1878241592
78,15,15,Jits_Phase_8,2,5,80,127,1878302056
78,15,15,Jits_Phase_8,3,5,63,98,1878312400
78,15,15,Jits_Phase_8,0,1,48,52,1879040580
78,15,15,Jits_Phase_8,1,5,80,127,1879091552
78,15,15,Jits_Phase_8,2,5,56,103,1879102196
78,15,15,Jits_Phase_8,3,5,63,98,1879105032
78,15,15,Jits_Phase_8,0,5,56,103,1879852344
78,15,15,Jits_Phase_8,1,5,80,127,1879861492
78,15,15,Jits_Phase_8,2,1,48,58,1879862460
78,15,15,Jits_Phase_8,3,5,63,98,1879882020
78,15,15,Jits_Phase_8,0,5,63,98,1880621400
78,15,15,Jits_Phase_8,1,1,48,56,1880644748
78,15,15,Jits_Phase_8,2,5,80,127,1880682080
78,15,15,Jits_Phase_8,3,5,56,103,1880732060
78,15,15,Jits_Phase_8,0,1,48,57,1881434084
78,15,15,Jits_Phase_8,1,5,63,98,1881502068
78,15,15,Jits_Phase_8,2,5,56,103,1881512264
78,15,15,Jits_Phase_8,3,5,80,127,1881561500
78,15,15,Jits_Phase_8,0,5,63,98,1882201444
78,15,15,Jits_Phase_8,1,5,80,127,1882221904
78,15,15,Jits_Phase_8,2,5,56,103,1882232100
78,15,15,Jits_Phase_8,3,1,48,56,1882268996
78,15,15,Jits_Phase_8,0,5,63,98,1883002164
78,15,15,Jits_Phase_8,1,5,80,127,1883005452
78,15,15,Jits_Phase_8,2,1,48,54,1883038688
78,15,15,Jits_Phase_8,3,5,56,103,1883042244
78,15,15,Jits_Phase_8,0,1,48,65,1883797372
78,15,15,Jits_Phase_8,1,5,63,98,1883871456
78,15,15,Jits_Phase_8,2,5,80,127,1883902312
78,15,15,Jits_Phase_8,3,5,56,103,1883911608
78,15,15,Jits_Phase_8,0,1,48,64,1884583876
78,15,15,Jits_Phase_8,1,5,56,103,1884622216
78,15,15,Jits_Phase_8,2,5,80,127,1884651816
78,15,15,Jits_Phase_8,3,5,63,98,1884681920
78,15,15,Jits_Phase_8,0,1,48,57,1885390332
78,15,15,Jits_Phase_8,1,5,63,98,1885522352
78,15,15,Jits_Phase_8,2,5,56,103,1885562212
78,15,15,Jits_Phase_8,3,5,80,127,1885565128
78,15,15,Jits_Phase_8,0,1,48,57,1886221588
78,15,15,Jits_Phase_8,1,5,80,127,1886222848
78,15,15,Jits_Phase_8,2,5,56,103,1886301824
78,15,15,Jits_Phase_8,3,5,63,98,1886351932
78,15,15,Jits_Phase_8,0,5,80,127,1887001940
78,15,15,Jits_Phase_8,1,5,56,103,1887021352
78,15,15,Jits_Phase_8,2,1,48,57,1887027836
78,15,15,Jits_Phase_8,3,5,63,98,1887111404
78,15,15,Jits_Phase_8,0,1,48,54,1887813360
78,15,15,Jits_Phase_8,1,5,80,127,1887841636
78,15,15,Jits_Phase_8,2,5,63,98,1887881796
78,15,15,Jits_Phase_8,3,5,56,103,1887921496
78,15,15,Jits_Phase_8,0,1,48,57,1888627352
78,15,15,Jits_Phase_8,1,5,63,98,1888651736
78,15,15,Jits_Phase_8,2,5,80,127,1888712004
78,15,15,Jits_Phase_8,3,5,56,103,1888741960
78,15,15,Jits_Phase_8,0,5,56,103,1889492276
78,15,15,Jits_Phase_8,1,1,48,60,1889496888
78,15,15,Jits_Phase_8,2,5,80,127,1889522016
78,15,15,Jits_Phase_8,3,5,63,98,1889612208
78,15,15,Jits_Phase_8,0,5,56,103,1890302308
78,15,15,Jits_Phase_8,1,1,48,58,1890383716
78,15,15,Jits_Phase_8,2,5,80,127,1890411916
78,15,15,Jits_Phase_8,3,5,63,98,1890441812
78,15,15,Jits_Phase_8,0,5,56,103,1891152284
78,15,15,Jits_Phase_8,1,1,48,58,1891177576
78,15,15,Jits_Phase_8,2,5,63,98,1891211624
78,15,15,Jits_Phase_8,3,5,80,127,1891242344
78,15,15,Jits_Phase_8,0,5,56,103,1891922168
78,15,15,Jits_Phase_8,1,1,48,56,1891942820
78,15,15,Jits_Phase_8,2,5,63,98,1891991848
78,15,15,Jits_Phase_8,3,5,80,127,1892012528
78,15,15,Jits_Phase_8,0,5,80,127,1892692276
78,15,15,Jits_Phase_8,1,5,63,98,1892711912
78,15,15,Jits_Phase_8,2,1,48,68,1892740136
78,15,15,Jits_Phase_8,3,5,56,103,1892761880
78,15,15,Jits_Phase_8,0,1,48,63,1893511820
78,15,15,Jits_Phase_8,1,5,63,98,1893513156
78,15,15,Jits_Phase_8,2,5,80,127,1893521788
78,15,15,Jits_Phase_8,3,5,56,103,1893571936
78,15,15,Jits_Phase_8,0,1,48,48,1894300760
78,15,15,Jits_Phase_8,1,5,63,98,1894312388
78,15,15,Jits_Phase_8,2,5,80,127,1894381876
78,15,15,Jits_Phase_8,3,5,56,103,1894402692
78,15,15,Jits_Phase_8,0,1,48,51,1895134172
78,15,15,Jits_Phase_8,1,5,63,98,1895141844
78,15,15,Jits_Phase_8,2,5,80,127,1895145132
78,15,15,Jits_Phase_8,3,5,56,103,1895212720
78,15,15,Jits_Phase_8,0,5,80,127,1895892452
78,15,15,Jits_Phase_8,1,1,48,60,1895897440
78,15,15,Jits_Phase_8,2,5,56,103,1895911784
78,15,15,Jits_Phase_8,3,5,63,98,1895922052
78,15,15,Jits_Phase_8,0,1,48,57,1896709032
78,15,15,Jits_Phase_8,1,5,56,103,1896711616
78,15,15,Jits_Phase_8,2,5,63,98,1896801676
78,15,15,Jits_Phase_8,3,5,80,127,1896805040
78,15,15,Jits_Phase_8,0,5,80,127,1897481632
78,15,15,Jits_Phase_8,1,5,56,103,1897491752
78,15,15,Jits_Phase_8,2,5,63,98,1897512436
78,15,15,Jits_Phase_8,3,1,48,53,1897531892
78,15,15,Jits_Phase_8,0,1,48,60,1898277604
78,15,15,Jits_Phase_8,1,5,63,98,1898282580
78,15,15,Jits_Phase_8,2,5,80,127,1898341852
78,15,15,Jits_Phase_8,3,5,56,103,1898351972
78,15,15,Jits_Phase_8,0,1,48,59,1899072344
78,15,15,Jits_Phase_8,1,5,63,98,1899151864
78,15,15,Jits_Phase_8,2,5,80,127,1899181524
78,15,15,Jits_Phase_8,3,5,56,103,1899222608
78,15,15,Jits_Phase_8,0,5,56,103,1899942412
78,15,15,Jits_Phase_8,1,1,48,61,1899943380
78,15,15,Jits_Phase_8,2,5,80,127,1899951628
78,15,15,Jits_Phase_8,3,5,63,98,1899992568
78,15,15,Jits_Phase_8,0,5,80,127,1900701952
78,15,15,Jits_Phase_8,1,1,48,50,1900718848
78,15,15,Jits_Phase_8,2,5,56,103,1900781916
78,15,15,Jits_Phase_8,3,5,63,98,1900792188
78,15,15,Jits_Phase_8,0,1,48,58,1901499900
78,15,15,Jits_Phase_8,1,5,80,127,1901551940
78,15,15,Jits_Phase_8,2,5,56,103,1901631724
78,15,15,Jits_Phase_8,3,5,63,98,1901642292
78,15,15,Jits_Phase_8,0,1,48,58,1902322016
78,15,15,Jits_Phase_8,1,5,80,127,1902391644
78,15,15,Jits_Phase_8,2,5,56,103,1902441756
78,15,15,Jits_Phase_8,3,5,63,98,1902491884
78,15,15,Jits_Phase_8,0,1,48,54,1903203800
78,15,15,Jits_Phase_8,1,5,56,103,1903331804
78,15,15,Jits_Phase_8,2,5,63,98,1903334868
78,15,15,Jits_Phase_8,3,5,80,127,1903381852
78,15,15,Jits_Phase_8,0,1,48,54,1904117228
78,15,15,Jits_Phase_8,1,5,56,103,1904151804
78,15,15,Jits_Phase_8,2,5,63,98,1904181628
78,15,15,Jits_Phase_8,3,5,80,127,1904191824
78,15,15,Jits_Phase_8,0,5,63,98,1904861668
78,15,15,Jits_Phase_8,1,5,56,103,1904932396
78,15,15,Jits_Phase_8,2,1,48,54,1904947124
78,15,15,Jits_Phase_8,3,5,80,127,1904982664
78,15,15,Jits_Phase_8,0,1,48,58,1905692440
78,15,15,Jits_Phase_8,1,5,63,98,1905693628
78,15,15,Jits_Phase_8,2,5,56,103,1905702404
78,15,15,Jits_Phase_8,3,5,80,127,1905705324
78,15,15,Jits_Phase_8,0,5,80,127,1906441544
78,15,15,Jits_Phase_8,1,1,48,57,1906449692
78,15,15,Jits_Phase_8,2,5,56,103,1906501856
78,15,15,Jits_Phase_8,3,5,63,98,1906592044
78,15,15,Jits_Phase_8,0,1,48,61,1907220088
78,15,15,Jits_Phase_8,1,5,80,127,1907242580
78,15,15,Jits_Phase_8,2,5,56,103,1907341620
78,15,15,Jits_Phase_8,3,5,63,98,1907381708
78,15,15,Jits_Phase_8,0,1,48,58,1908056696
78,15,15,Jits_Phase_8,1,5,56,103,1908092388
78,15,15,Jits_Phase_8,2,5,63,98,1908111728
78,15,15,Jits_Phase_8,3,5,80,127,1908152168
78,15,15,Jits_Phase_8,0,5,63,98,1908862556
78,15,15,Jits_Phase_8,1,1,48,60,1908881292
78,15,15,Jits_Phase_8,2,5,56,103,1908882784
78,15,15,Jits_Phase_8,3,5,80,127,1908982440
78,15,15,Jits_Phase_8,0,5,63,98,1909651752
78,15,15,Jits_Phase_8,1,1,48,54,1909681252
78,15,15,Jits_Phase_8,2,5,80,127,1909762508
78,15,15,Jits_Phase_8,3,5,56,103,1909792316
78,15,15,Jits_Phase_8,0,5,56,103,1910472216
78,15,15,Jits_Phase_8,1,1,48,53,1910494744
78,15,15,Jits_Phase_8,2,5,63,98,1910501888
78,15,15,Jits_Phase_8,3,5,80,127,1910552012
78,15,15,Jits_Phase_8,0,5,63,98,1911242320
78,15,15,Jits_Phase_8,1,5,56,103,1911271772
78,15,15,Jits_Phase_8,2,1,48,53,1911314672
78,15,15,Jits_Phase_8,3,5,80,127,1911321888
78,15,15,Jits_Phase_8,0,1,48,52,1912061076
78,15,15,Jits_Phase_8,1,5,56,103,1912071584
78,15,15,Jits_Phase_8,2,5,63,98,1912092120
78,15,15,Jits_Phase_8,3,5,80,127,1912171900
78,15,15,Jits_Phase_8,0,5,63,98,1912841608
78,15,15,Jits_Phase_8,1,1,48,48,1912854240
78,15,15,Jits_Phase_8,2,5,56,103,1912901992
78,15,15,Jits_Phase_8,3,5,80,127,1912931664
78,15,15,Jits_Phase_8,0,1,48,49,1913644620
78,15,15,Jits_Phase_8,1,5,56,103,1913682556
78,15,15,Jits_Phase_8,2,5,80,127,1913741680
78,15,15,Jits_Phase_8,3,5,63,98,1913781524
78,15,15,Jits_Phase_8,0,5,63,98,1914461648
78,15,15,Jits_Phase_8,1,1,48,53,1914493540
78,15,15,Jits_Phase_8,2,5,56,103,1914522108
78,15,15,Jits_Phase_8,3,5,80,127,1914591572
78,15,15,Jits_Phase_8,0,1,48,54,1915304156
78,15,15,Jits_Phase_8,1,5,56,103,1915342340
78,15,15,Jits_Phase_8,2,5,63,98,1915352460
78,15,15,Jits_Phase_8,3,5,80,127,1915355824
78,15,15,Jits_Phase_8,0,5,63,98,1916081540
78,15,15,Jits_Phase_8,1,1,48,56,1916142104
78,15,15,Jits_Phase_8,2,5,56,103,1916143540
78,15,15,Jits_Phase_8,3,5,80,127,1916146284
78,15,15,Jits_Phase_8,0,5,63,98,1916861664
78,15,15,Jits_Phase_8,1,5,80,127,1916891588
78,15,15,Jits_Phase_8,2,5,56,103,1916911972
78,15,15,Jits_Phase_8,3,1,48,58,1916920564
78,15,15,Jits_Phase_8,0,5,56,103,1917592040
78,15,15,Jits_Phase_8,1,5,63,98,1917642340
78,15,15,Jits_Phase_8,2,1,48,61,1917670716
78,15,15,Jits_Phase_8,3,5,80,127,1917721828
78,15,15,Jits_Phase_8,0,5,80,127,1918292256
78,15,15,Jits_Phase_8,1,5,63,98,1918332344
78,15,15,Jits_Phase_8,2,5,56,103,1918351608
78,15,15,Jits_Phase_8,3,1,48,52,1918417296
78,15,15,Jits_Phase_8,0,1,48,53,1919127196
78,15,15,Jits_Phase_8,1,5,56,103,1919161696
78,15,15,Jits_Phase_8,2,5,80,127,1919171844
78,15,15,Jits_Phase_8,3,5,63,98,1919192600
78,15,15,Jits_Phase_8,0,1,48,59,1919903968
78,15,15,Jits_Phase_8,1,5,56,103,1919941928
78,15,15,Jits_Phase_8,2,5,63,98,1919992284
78,15,15,Jits_Phase_8,3,5,80,127,1920021792
78,15,15,Jits_Phase_8,0,5,56,103,1920691628
78,15,15,Jits_Phase_8,1,1,48,55,1920701748
78,15,15,Jits_Phase_8,2,5,63,98,1920703236
78,15,15,Jits_Phase_8,3,5,80,127,1920752264
78,15,15,Jits_Phase_8,0,1,48,54,1921474976
78,15,15,Jits_Phase_8,1,5,56,103,1921482192
78,15,15,Jits_Phase_8,2,5,80,127,1921485108
78,15,15,Jits_Phase_8,3,5,63,98,1921641904
78,15,15,Jits_Phase_8,0,5,63,98,1922302248
78,15,15,Jits_Phase_8,1,1,48,52,1922308284
78,15,15,Jits_Phase_8,2,5,56,103,1922372072
78,15,15,Jits_Phase_8,3,5,80,127,1922411772
78,15,15,Jits_Phase_8,0,1,48,59,1923125796
78,15,15,Jits_Phase_8,1,5,63,98,1923142232
78,15,15,Jits_Phase_8,2,5,56,103,1923232204
78,15,15,Jits_Phase_8,3,5,80,127,1923235344
78,15,15,Jits_Phase_8,0,5,56,103,1923922144
78,15,15,Jits_Phase_8,1,1,48,55,1923978900
78,15,15,Jits_Phase_8,2,5,63,98,1924012348
78,15,15,Jits_Phase_8,3,5,80,127,1924021496
78,15,15,Jits_Phase_8,0,5,56,103,1924692400
78,15,15,Jits_Phase_8,1,5,63,98,1924741480
78,15,15,Jits_Phase_8,2,1,48,57,1924750000
78,15,15,Jits_Phase_8,3,5,80,127,1924772272
78,15,15,Jits_Phase_8,0,1,48,59,1925498948
78,15,15,Jits_Phase_8,1,5,63,98,1925572208
78,15,15,Jits_Phase_8,2,5,80,127,1925582328
78,15,15,Jits_Phase_8,3,5,56,103,1925641508
78,15,15,Jits_Phase_8,0,5,63,98,1926291932
78,15,15,Jits_Phase_8,1,1,48,62,1926316996
78,15,15,Jits_Phase_8,2,5,80,127,1926352340
78,15,15,Jits_Phase_8,3,5,56,103,1926392280
78,15,15,Jits_Phase_8,0,1,48,55,1927140912
78,15,15,Jits_Phase_8,1,5,56,103,1927192028
78,15,15,Jits_Phase_8,2,5,80,127,1927212340
78,15,15,Jits_Phase_8,3,5,63,98,1927231976
78,15,15,Jits_Phase_8,0,5,63,98,1927911784
78,15,15,Jits_Phase_8,1,5,56,103,1927932172
78,15,15,Jits_Phase_8,2,1,48,59,1927946148
78,15,15,Jits_Phase_8,3,5,80,127,1927972176
78,15,15,Jits_Phase_8,0,1,48,58,1928696968
78,15,15,Jits_Phase_8,1,5,63,98,1928721724
78,15,15,Jits_Phase_8,2,5,80,127,1928751548
78,15,15,Jits_Phase_8,3,5,56,103,1928772156
78,15,15,Jits_Phase_8,0,1,48,53,1929458656
78,15,15,Jits_Phase_8,1,5,80,127,1929491960
78,15,15,Jits_Phase_8,2,5,56,103,1929541940
78,15,15,Jits_Phase_8,3,5,63,98,1929602464
78,15,15,Jits_Phase_8,0,1,48,53,1930224332
78,15,15,Jits_Phase_8,1,5,63,98,1930282352
78,15,15,Jits_Phase_8,2,5,56,103,1930402216
78,15,15,Jits_Phase_8,3,5,80,127,1930431888
78,15,15,Jits_Phase_8,0,1,48,58,1931085748
78,15,15,Jits_Phase_8,1,5,80,127,1931121972
78,15,15,Jits_Phase_8,2,5,63,98,1931141460
78,15,15,Jits_Phase_8,3,5,56,103,1931212268
78,15,15,Jits_Phase_8,0,5,63,98,1931942112
78,15,15,Jits_Phase_8,1,5,56,103,1931951560
78,15,15,Jits_Phase_8,2,1,48,53,1931994264
78,15,15,Jits_Phase_8,3,5,80,127,1932032496
78,15,15,Jits_Phase_8,0,1,48,58,1932787940
78,15,15,Jits_Phase_8,1,5,56,103,1932802360
78,15,15,Jits_Phase_8,2,5,80,127,1932832108
78,15,15,Jits_Phase_8,3,5,63,98,1932842304
78,15,15,Jits_Phase_8,0,9999,9999,9999,1797959804
78,15,15,Jits_Phase_8,1,9999,9999,9999,1798759524
78,15,15,Jits_Phase_8,2,9999,9999,9999,1799559264
78,15,15,Jits_Phase_8,3,9999,9999,9999,1800360044
78,15,15,Jits_Phase_8,4,9999,9999,9999,1801159780
78,15,15,Jits_Phase_8,5,9999,9999,9999,1801959536
78,15,15,Jits_Phase_8,6,9999,9999,9999,1802759296
78,15,15,Jits_Phase_8,7,9999,9999,9999,1803560024
78,15,15,Jits_Phase_8,8,9999,9999,9999,1804359760
78,15,15,Jits_Phase_8,9,9999,9999,9999,1805159504
78,15,15,Jits_Phase_8,10,9999,9999,9999,1805959284
78,15,15,Jits_Phase_8,11,9999,9999,9999,1806760020
78,15,15,Jits_Phase_8,12,9999,9999,9999,1807559804
78,15,15,Jits_Phase_8,13,9999,9999,9999,1808359488
78,15,15,Jits_Phase_8,14,9999,9999,9999,1809159236
78,15,15,Jits_Phase_8,15,9999,9999,9999,1809960044
78,15,15,Jits_Phase_8,16,9999,9999,9999,1810759784
78,15,15,Jits_Phase_8,17,9999,9999,9999,1811559488
78,15,15,Jits_Phase_8,18,9999,9999,9999,1812359248
78,15,15,Jits_Phase_8,19,9999,9999,9999,1813159996
78,15,15,Jits_Phase_8,20,9999,9999,9999,1813959776
78,15,15,Jits_Phase_8,21,9999,9999,9999,1814759532
78,15,15,Jits_Phase_8,22,9999,9999,9999,1815559224
78,15,15,Jits_Phase_8,23,9999,9999,9999,1816360040
78,15,15,Jits_Phase_8,24,9999,9999,9999,1817159796
78,15,15,Jits_Phase_8,25,9999,9999,9999,1817959552
78,15,15,Jits_Phase_8,26,9999,9999,9999,1818759236
78,15,15,Jits_Phase_8,27,9999,9999,9999,1819560044
78,15,15,Jits_Phase_8,28,9999,9999,9999,1820359764
78,15,15,Jits_Phase_8,29,9999,9999,9999,1821159544
78,15,15,Jits_Phase_8,30,9999,9999,9999,1821939824
78,15,15,Jits_Phase_8,31,9999,9999,9999,1822739580
78,15,15,Jits_Phase_8,32,9999,9999,9999,1823539280
78,15,15,Jits_Phase_8,33,9999,9999,9999,1824340092
78,15,15,Jits_Phase_8,34,9999,9999,9999,1825139792
78,15,15,Jits_Phase_8,35,9999,9999,9999,1825939556
78,15,15,Jits_Phase_8,36,9999,9999,9999,1826739320
78,15,15,Jits_Phase_8,37,9999,9999,9999,1827540080
78,15,15,Jits_Phase_8,38,9999,9999,9999,1828339772
78,15,15,Jits_Phase_8,39,9999,9999,9999,1829139548
78,15,15,Jits_Phase_8,40,9999,9999,9999,1829939324
78,15,15,Jits_Phase_8,41,9999,9999,9999,1830740056
78,15,15,Jits_Phase_8,42,9999,9999,9999,1831539816
78,15,15,Jits_Phase_8,43,9999,9999,9999,1832339576
78,15,15,Jits_Phase_8,44,9999,9999,9999,1833139320
78,15,15,Jits_Phase_8,45,9999,9999,9999,1833940076
78,15,15,Jits_Phase_8,46,9999,9999,9999,1834739840
78,15,15,Jits_Phase_8,47,9999,9999,9999,1835539516
78,15,15,Jits_Phase_8,48,9999,9999,9999,1836359788
78,15,15,Jits_Phase_8,49,9999,9999,9999,1837159480
78,15,15,Jits_Phase_8,50,9999,9999,9999,1837959236
78,15,15,Jits_Phase_8,51,9999,9999,9999,1838760040
78,15,15,Jits_Phase_8,52,9999,9999,9999,1839559752
78,15,15,Jits_Phase_8,53,9999,9999,9999,1840359532
78,15,15,Jits_Phase_8,54,9999,9999,9999,1841159228
78,15,15,Jits_Phase_8,55,9999,9999,9999,1841960044
78,15,15,Jits_Phase_8,56,9999,9999,9999,1842759800
78,15,15,Jits_Phase_8,57,9999,9999,9999,1843559500
78,15,15,Jits_Phase_8,58,9999,9999,9999,1844359272
78,15,15,Jits_Phase_8,59,9999,9999,9999,1845160016
78,15,15,Jits_Phase_8,60,9999,9999,9999,1845959736
78,15,15,Jits_Phase_8,61,9999,9999,9999,1846759508
78,15,15,Jits_Phase_8,62,9999,9999,9999,1847559264
78,15,15,Jits_Phase_8,63,9999,9999,9999,1848360060
78,15,15,Jits_Phase_8,64,9999,9999,9999,1849199684
78,15,15,Jits_Phase_8,65,9999,9999,9999,1849999448
78,15,15,Jits_Phase_8,66,9999,9999,9999,1850799208
78,15,15,Jits_Phase_8,67,9999,9999,9999,1851599968
78,15,15,Jits_Phase_8,68,9999,9999,9999,1852399728
78,15,15,Jits_Phase_8,69,9999,9999,9999,1853199428
78,15,15,Jits_Phase_8,70,9999,9999,9999,1853999192
78,15,15,Jits_Phase_8,71,9999,9999,9999,1854799932
78,15,15,Jits_Phase_8,72,9999,9999,9999,1855599684
78,15,15,Jits_Phase_8,73,9999,9999,9999,1856399460
78,15,15,Jits_Phase_8,74,9999,9999,9999,1857199168
78,15,15,Jits_Phase_8,75,9999,9999,9999,1857999928
78,15,15,Jits_Phase_8,76,9999,9999,9999,1858799680
78,15,15,Jits_Phase_8,77,9999,9999,9999,1859599456
78,15,15,Jits_Phase_8,78,9999,9999,9999,1860399220
78,15,15,Jits_Phase_8,79,9999,9999,9999,1861199964
78,15,15,Jits_Phase_8,80,9999,9999,9999,1861999724
78,15,15,Jits_Phase_8,81,9999,9999,9999,1862759548
78,15,15,Jits_Phase_8,82,9999,9999,9999,1863559232
78,15,15,Jits_Phase_8,83,9999,9999,9999,1864360032
78,15,15,Jits_Phase_8,84,9999,9999,9999,1865159736
78,15,15,Jits_Phase_8,85,9999,9999,9999,1865959512
78,15,15,Jits_Phase_8,86,9999,9999,9999,1866759272
78,15,15,Jits_Phase_8,87,9999,9999,9999,1867559996
78,15,15,Jits_Phase_8,88,9999,9999,9999,1868359748
78,15,15,Jits_Phase_8,89,9999,9999,9999,1869159512
78,15,15,Jits_Phase_8,90,9999,9999,9999,1869959280
78,15,15,Jits_Phase_8,91,9999,9999,9999,1870760004
78,15,15,Jits_Phase_8,92,9999,9999,9999,1871559804
78,15,15,Jits_Phase_8,93,9999,9999,9999,1872359484
78,15,15,Jits_Phase_8,94,9999,9999,9999,1873159244
78,15,15,Jits_Phase_8,95,9999,9999,9999,1873960056
78,15,15,Jits_Phase_8,96,9999,9999,9999,1874759760
78,15,15,Jits_Phase_8,97,9999,9999,9999,1875479656
78,15,15,Jits_Phase_8,98,9999,9999,9999,1876279356
78,15,15,Jits_Phase_8,99,9999,9999,9999,1877079120
78,15,15,Jits_Phase_8,100,9999,9999,9999,1877879912
78,15,15,Jits_Phase_8,101,9999,9999,9999,1878679672
78,15,15,Jits_Phase_8,102,9999,9999,9999,1879479352
78,15,15,Jits_Phase_8,103,9999,9999,9999,1880279128
78,15,15,Jits_Phase_8,104,9999,9999,9999,1881079876
78,15,15,Jits_Phase_8,105,9999,9999,9999,1881879644
78,15,15,Jits_Phase_8,106,9999,9999,9999,1882679392
78,15,15,Jits_Phase_8,107,9999,9999,9999,1883479136
78,15,15,Jits_Phase_8,108,9999,9999,9999,1884279868
78,15,15,Jits_Phase_8,109,9999,9999,9999,1885079624
78,15,15,Jits_Phase_8,110,9999,9999,9999,1885879380
78,15,15,Jits_Phase_8,111,9999,9999,9999,1886679168
78,15,15,Jits_Phase_8,112,9999,9999,9999,1887479892
78,15,15,Jits_Phase_8,113,9999,9999,9999,1888279668
78,15,15,Jits_Phase_8,114,9999,9999,9999,1889159288
78,15,15,Jits_Phase_8,115,9999,9999,9999,1889960012
78,15,15,Jits_Phase_8,116,9999,9999,9999,1890759740
78,15,15,Jits_Phase_8,117,9999,9999,9999,1891559524
78,15,15,Jits_Phase_8,118,9999,9999,9999,1892359224
78,15,15,Jits_Phase_8,119,9999,9999,9999,1893160036
78,15,15,Jits_Phase_8,120,9999,9999,9999,1893959804
78,15,15,Jits_Phase_8,121,9999,9999,9999,1894759492
78,15,15,Jits_Phase_8,122,9999,9999,9999,1895559240
78,15,15,Jits_Phase_8,123,9999,9999,9999,1896360040
78,15,15,Jits_Phase_8,124,9999,9999,9999,1897159756
78,15,15,Jits_Phase_8,125,9999,9999,9999,1897959504
78,15,15,Jits_Phase_8,126,9999,9999,9999,1898759268
78,15,15,Jits_Phase_8,127,9999,9999,9999,1899560004
78,15,15,Jits_Phase_8,128,9999,9999,9999,1900359760
78,15,15,Jits_Phase_8,129,9999,9999,9999,1901159532
78,15,15,Jits_Phase_8,130,9999,9999,9999,1901959236
78,15,15,Jits_Phase_8,131,9999,9999,9999,1902919792
78,15,15,Jits_Phase_8,132,9999,9999,9999,1903719548
78,15,15,Jits_Phase_8,133,9999,9999,9999,1904519240
78,15,15,Jits_Phase_8,134,9999,9999,9999,1905320044
78,15,15,Jits_Phase_8,135,9999,9999,9999,1906119740
78,15,15,Jits_Phase_8,136,9999,9999,9999,1906919500
78,15,15,Jits_Phase_8,137,9999,9999,9999,1907719276
78,15,15,Jits_Phase_8,138,9999,9999,9999,1908520004
78,15,15,Jits_Phase_8,139,9999,9999,9999,1909319760
78,15,15,Jits_Phase_8,140,9999,9999,9999,1910119524
78,15,15,Jits_Phase_8,141,9999,9999,9999,1910919280
78,15,15,Jits_Phase_8,142,9999,9999,9999,1911720020
78,15,15,Jits_Phase_8,143,9999,9999,9999,1912519804
78,15,15,Jits_Phase_8,144,9999,9999,9999,1913319484
78,15,15,Jits_Phase_8,145,9999,9999,9999,1914119244
78,15,15,Jits_Phase_8,146,9999,9999,9999,1914920052
78,15,15,Jits_Phase_8,147,9999,9999,9999,1915719804
78,15,15,Jits_Phase_8,148,9999,9999,9999,1916519480
78,15,15,Jits_Phase_8,149,9999,9999,9999,1917319236
78,15,15,Jits_Phase_8,150,9999,9999,9999,1917959276
78,15,15,Jits_Phase_8,151,9999,9999,9999,1918760020
78,15,15,Jits_Phase_8,152,9999,9999,9999,1919559796
78,15,15,Jits_Phase_8,153,9999,9999,9999,1920359484
78,15,15,Jits_Phase_8,154,9999,9999,9999,1921159240
78,15,15,Jits_Phase_8,155,9999,9999,9999,1921960044
78,15,15,Jits_Phase_8,156,9999,9999,9999,1922759752
78,15,15,Jits_Phase_8,157,9999,9999,9999,1923559512
78,15,15,Jits_Phase_8,158,9999,9999,9999,1924359272
78,15,15,Jits_Phase_8,159,9999,9999,9999,1925160016
78,15,15,Jits_Phase_8,160,9999,9999,9999,1925959796
78,15,15,Jits_Phase_8,161,9999,9999,9999,1926759552
78,15,15,Jits_Phase_8,162,9999,9999,9999,1927559244
78,15,15,Jits_Phase_8,163,9999,9999,9999,1928360044
78,15,15,Jits_Phase_8,164,9999,9999,9999,1929159752
78,15,15,Jits_Phase_8,165,9999,9999,9999,1929959512
78,15,15,Jits_Phase_8,166,9999,9999,9999,1930759268
78,15,15,Jits_Phase_8,167,9999,9999,9999,1931560000
78,15,15,Jits_Phase_8,168,9999,9999,9999,1932359764
78,15,15,Jits_Phase_8,169,9999,9999,9999,1933159532
78,16,19,Jits_Linear_5,0,5,56,103,1943034260
78,16,19,Jits_Linear_5,1,5,63,98,1943037356
78,16,19,Jits_Linear_5,2,5,80,127,1943040484
78,16,19,Jits_Linear_5,0,5,56,103,1943513380
78,16,19,Jits_Linear_5,1,5,63,98,1943516552
78,16,19,Jits_Linear_5,2,5,80,127,1943519676
78,16,19,Jits_Linear_5,0,5,56,103,1943993684
78,16,19,Jits_Linear_5,1,5,80,127,1944004056
78,16,19,Jits_Linear_5,2,5,63,98,1944024364
78,16,19,Jits_Linear_5,0,5,63,98,1944423740
78,16,19,Jits_Linear_5,1,5,80,127,1944453568
78,16,19,Jits_Linear_5,2,5,56,103,1944464136
78,16,19,Jits_Linear_5,0,1,48,61,1944931680
78,16,19,Jits_Linear_5,1,5,80,127,1944963540
78,16,19,Jits_Linear_5,2,5,56,103,1944973960
78,16,19,Jits_Linear_5,3,5,63,98,1945004388
78,16,19,Jits_Linear_5,0,1,48,63,1945427996
78,16,19,Jits_Linear_5,1,5,63,98,1945443832
78,16,19,Jits_Linear_5,2,5,56,103,1945474408
78,16,19,Jits_Linear_5,3,5,80,127,1945483856
78,16,19,Jits_Linear_5,0,5,56,103,1945883972
78,16,19,Jits_Linear_5,1,5,63,98,1945934252
78,16,19,Jits_Linear_5,2,1,48,63,1945937744
78,16,19,Jits_Linear_5,3,5,80,127,1945953732
78,16,19,Jits_Linear_5,0,5,80,127,1946373636
78,16,19,Jits_Linear_5,1,5,63,98,1946423840
78,16,19,Jits_Linear_5,2,1,48,62,1946432884
78,16,19,Jits_Linear_5,3,5,56,103,1946463844
78,16,19,Jits_Linear_5,0,5,56,103,1946863896
78,16,19,Jits_Linear_5,1,5,63,98,1946893724
78,16,19,Jits_Linear_5,2,1,48,59,1946941408
78,16,19,Jits_Linear_5,3,5,80,127,1946964296
78,16,19,Jits_Linear_5,0,5,56,103,1947353412
78,16,19,Jits_Linear_5,1,1,48,63,1947404032
78,16,19,Jits_Linear_5,2,5,80,127,1947413948
78,16,19,Jits_Linear_5,3,5,63,98,1947443776
78,16,19,Jits_Linear_5,0,5,56,103,1947854244
78,16,19,Jits_Linear_5,1,5,63,98,1947864440
78,16,19,Jits_Linear_5,2,1,48,64,1947887040
78,16,19,Jits_Linear_5,3,5,80,127,1947904448
78,16,19,Jits_Linear_5,0,5,63,98,1948343880
78,16,19,Jits_Linear_5,1,1,48,61,1948383668
78,16,19,Jits_Linear_5,2,5,80,127,1948423772
78,16,19,Jits_Linear_5,3,5,56,103,1948433748
78,16,19,Jits_Linear_5,0,5,63,98,1948893652
78,16,19,Jits_Linear_5,1,1,48,64,1948902772
78,16,19,Jits_Linear_5,2,5,56,103,1948933508
78,16,19,Jits_Linear_5,3,5,80,127,1948936724
78,16,19,Jits_Linear_5,0,5,56,103,1949363860
78,16,19,Jits_Linear_5,1,5,63,98,1949373760
78,16,19,Jits_Linear_5,2,1,48,66,1949402728
78,16,19,Jits_Linear_5,3,5,80,127,1949413912
78,16,19,Jits_Linear_5,0,1,48,60,1949849788
78,16,19,Jits_Linear_5,1,5,56,103,1949854012
78,16,19,Jits_Linear_5,2,5,63,98,1949857080
78,16,19,Jits_Linear_5,3,5,80,127,1949873724
78,16,19,Jits_Linear_5,0,1,48,64,1950335976
78,16,19,Jits_Linear_5,1,5,80,127,1950374292
78,16,19,Jits_Linear_5,2,5,56,103,1950383444
78,16,19,Jits_Linear_5,3,5,63,98,1950454108
78,16,19,Jits_Linear_5,0,1,48,64,1950833128
78,16,19,Jits_Linear_5,1,5,63,98,1950873984
78,16,19,Jits_Linear_5,2,5,56,103,1950893396
78,16,19,Jits_Linear_5,3,5,80,127,1950974176
78,16,19,Jits_Linear_5,0,1,48,61,1951329732
78,16,19,Jits_Linear_5,1,5,56,103,1951394124
78,16,19,Jits_Linear_5,2,5,80,127,1951434152
78,16,19,Jits_Linear_5,3,5,63,98,1951444348
78,16,19,Jits_Linear_5,0,1,48,60,1951850024
78,16,19,Jits_Linear_5,1,5,80,127,1951893740
78,16,19,Jits_Linear_5,2,5,63,98,1951923864
78,16,19,Jits_Linear_5,3,5,56,103,1951963512
78,16,19,Jits_Linear_5,0,1,48,64,1952390916
78,16,19,Jits_Linear_5,1,5,56,103,1952424440
78,16,19,Jits_Linear_5,2,5,63,98,1952453996
78,16,19,Jits_Linear_5,3,5,80,127,1952504184
78,16,19,Jits_Linear_5,0,1,48,66,1952915332
78,16,19,Jits_Linear_5,1,5,80,127,1952934392
78,16,19,Jits_Linear_5,2,5,56,103,1952974356
78,16,19,Jits_Linear_5,3,5,63,98,1952984628
78,16,19,Jits_Linear_5,0,1,48,64,1953428804
78,16,19,Jits_Linear_5,1,5,80,127,1953434080
78,16,19,Jits_Linear_5,2,5,63,98,1953474048
78,16,19,Jits_Linear_5,3,5,56,103,1953534496
78,16,19,Jits_Linear_5,0,5,56,103,1953954228
78,16,19,Jits_Linear_5,1,1,48,61,1953956900
78,16,19,Jits_Linear_5,2,5,80,127,1953964492
78,16,19,Jits_Linear_5,3,5,63,98,1954044392
78,16,19,Jits_Linear_5,0,5,80,127,1954483752
78,16,19,Jits_Linear_5,1,1,48,62,1954487768
78,16,19,Jits_Linear_5,2,5,63,98,1954543940
78,16,19,Jits_Linear_5,3,5,56,103,1954573764
78,16,19,Jits_Linear_5,0,5,56,103,1955003756
78,16,19,Jits_Linear_5,1,1,48,63,1955009220
78,16,19,Jits_Linear_5,2,5,80,127,1955064096
78,16,19,Jits_Linear_5,3,5,63,98,1955104108
78,16,19,Jits_Linear_5,0,1,48,67,1955541580
78,16,19,Jits_Linear_5,1,5,56,103,1955584548
78,16,19,Jits_Linear_5,2,5,63,98,1955593696
78,16,19,Jits_Linear_5,3,5,80,127,1955597060
78,16,19,Jits_Linear_5,0,5,80,127,1956063856
78,16,19,Jits_Linear_5,1,1,48,70,1956084064
78,16,19,Jits_Linear_5,2,5,63,98,1956153840
78,16,19,Jits_Linear_5,3,5,56,103,1956163964
78,16,19,Jits_Linear_5,0,5,56,103,1956593960
78,16,19,Jits_Linear_5,1,5,63,98,1956597060
78,16,19,Jits_Linear_5,2,5,80,127,1956600260
78,16,19,Jits_Linear_5,3,1,48,62,1956621976
78,16,19,Jits_Linear_5,0,1,48,62,1957109056
78,16,19,Jits_Linear_5,1,5,80,127,1957143852
78,16,19,Jits_Linear_5,2,5,63,98,1957193984
78,16,19,Jits_Linear_5,3,5,56,103,1957223868
78,16,19,Jits_Linear_5,0,1,48,61,1957642552
78,16,19,Jits_Linear_5,1,5,56,103,1957653736
78,16,19,Jits_Linear_5,2,5,80,127,1957664304
78,16,19,Jits_Linear_5,3,5,63,98,1957733692
78,16,19,Jits_Linear_5,0,1,48,63,1958182024
78,16,19,Jits_Linear_5,1,5,56,103,1958193656
78,16,19,Jits_Linear_5,2,5,63,98,1958213968
78,16,19,Jits_Linear_5,3,5,80,127,1958274580
78,16,19,Jits_Linear_5,0,1,48,69,1958705828
78,16,19,Jits_Linear_5,1,5,80,127,1958723988
78,16,19,Jits_Linear_5,2,5,63,98,1958793524
78,16,19,Jits_Linear_5,3,5,56,103,1958813968
78,16,19,Jits_Linear_5,0,1,48,68,1959258264
78,16,19,Jits_Linear_5,1,5,80,127,1959284140
78,16,19,Jits_Linear_5,2,5,56,103,1959294484
78,16,19,Jits_Linear_5,3,5,63,98,1959303636
78,16,19,Jits_Linear_5,0,1,48,67,1959785292
78,16,19,Jits_Linear_5,1,5,80,127,1959813792
78,16,19,Jits_Linear_5,2,5,56,103,1959834028
78,16,19,Jits_Linear_5,3,5,63,98,1959903572
78,16,19,Jits_Linear_5,0,5,56,103,1960364500
78,16,19,Jits_Linear_5,1,1,48,59,1960372724
78,16,19,Jits_Linear_5,2,5,80,127,1960394048
78,16,19,Jits_Linear_5,3,5,63,98,1960413684
78,16,19,Jits_Linear_5,0,1,48,60,1960896408
78,16,19,Jits_Linear_5,1,5,63,98,1960904008
78,16,19,Jits_Linear_5,2,5,56,103,1960963428
78,16,19,Jits_Linear_5,3,5,80,127,1960994212
78,16,19,Jits_Linear_5,0,1,48,60,1961445848
78,16,19,Jits_Linear_5,1,5,63,98,1961453964
78,16,19,Jits_Linear_5,2,5,80,127,1961457328
78,16,19,Jits_Linear_5,3,5,56,103,1961543936
78,16,19,Jits_Linear_5,0,1,48,65,1962005384
78,16,19,Jits_Linear_5,1,5,56,103,1962024516
78,16,19,Jits_Linear_5,2,5,63,98,1962053972
78,16,19,Jits_Linear_5,3,5,80,127,1962093912
78,16,19,Jits_Linear_5,0,1,48,59,1962555048
78,16,19,Jits_Linear_5,1,5,63,98,1962574184
78,16,19,Jits_Linear_5,2,5,56,103,1962614272
78,16,19,Jits_Linear_5,3,5,80,127,1962633684
78,16,19,Jits_Linear_5,0,1,48,68,1963114756
78,16,19,Jits_Linear_5,1,5,63,98,1963134408
78,16,19,Jits_Linear_5,2,5,56,103,1963174352
78,16,19,Jits_Linear_5,3,5,80,127,1963183648
78,16,19,Jits_Linear_5,0,5,80,127,1963663852
78,16,19,Jits_Linear_5,1,1,48,59,1963685476
78,16,19,Jits_Linear_5,2,5,63,98,1963734380
78,16,19,Jits_Linear_5,3,5,56,103,1963754012
78,16,19,Jits_Linear_5,0,5,56,103,1964213604
78,16,19,Jits_Linear_5,1,5,80,127,1964234164
78,16,19,Jits_Linear_5,2,5,63,98,1964274176
78,16,19,Jits_Linear_5,3,1,48,64,1964281336
78,16,19,Jits_Linear_5,0,5,63,98,1964784128
78,16,19,Jits_Linear_5,1,1,48,62,1964793248
78,16,19,Jits_Linear_5,2,5,80,127,1964803536
78,16,19,Jits_Linear_5,3,5,56,103,1964844596
78,16,19,Jits_Linear_5,0,1,48,66,1965333612
78,16,19,Jits_Linear_5,1,5,63,98,1965344344
78,16,19,Jits_Linear_5,2,5,56,103,1965363460
78,16,19,Jits_Linear_5,3,5,80,127,1965373804
78,16,19,Jits_Linear_5,0,1,48,62,1965849388
78,16,19,Jits_Linear_5,1,5,80,127,1965904492
78,16,19,Jits_Linear_5,2,5,56,103,1965923684
78,16,19,Jits_Linear_5,3,5,63,98,1965954464
78,16,19,Jits_Linear_5,0,1,48,63,1966408416
78,16,19,Jits_Linear_5,1,5,56,103,1966544224
78,16,19,Jits_Linear_5,2,5,80,127,1966547440
78,16,19,Jits_Linear_5,3,5,63,98,1966563564
78,16,19,Jits_Linear_5,0,5,63,98,1967033784
78,16,19,Jits_Linear_5,1,1,48,58,1967051156
78,16,19,Jits_Linear_5,2,5,56,103,1967064376
78,16,19,Jits_Linear_5,3,5,80,127,1967123796
78,16,19,Jits_Linear_5,0,1,48,59,1967597668
78,16,19,Jits_Linear_5,1,5,63,98,1967683936
78,16,19,Jits_Linear_5,2,5,56,103,1967694264
78,16,19,Jits_Linear_5,3,5,80,127,1967704460
78,16,19,Jits_Linear_5,0,1,48,59,1968187268
78,16,19,Jits_Linear_5,1,5,56,103,1968204228
78,16,19,Jits_Linear_5,2,5,80,127,1968233832
78,16,19,Jits_Linear_5,3,5,63,98,1968244176
78,16,19,Jits_Linear_5,0,1,48,63,1968756408
78,16,19,Jits_Linear_5,1,5,63,98,1968813532
78,16,19,Jits_Linear_5,2,5,56,103,1968823580
78,16,19,Jits_Linear_5,3,5,80,127,1968844436
78,16,19,Jits_Linear_5,0,5,56,103,1969314272
78,16,19,Jits_Linear_5,1,1,48,61,1969350680
78,16,19,Jits_Linear_5,2,5,63,98,1969373488
78,16,19,Jits_Linear_5,3,5,80,127,1969376852
78,16,19,Jits_Linear_5,0,1,48,56,1969902972
78,16,19,Jits_Linear_5,1,5,80,127,1969914452
78,16,19,Jits_Linear_5,2,5,56,103,1969923380
78,16,19,Jits_Linear_5,3,5,63,98,1969994032
78,16,19,Jits_Linear_5,0,1,48,63,1970455392
78,16,19,Jits_Linear_5,1,5,80,127,1970483520
78,16,19,Jits_Linear_5,2,5,56,103,1970554164
78,16,19,Jits_Linear_5,3,5,63,98,1970563388
78,16,19,Jits_Linear_5,0,1,48,64,1971083952
78,16,19,Jits_Linear_5,1,5,63,98,1971104428
78,16,19,Jits_Linear_5,2,5,56,103,1971114328
78,16,19,Jits_Linear_5,3,5,80,127,1971133668
78,16,19,Jits_Linear_5,0,1,48,58,1971629632
78,16,19,Jits_Linear_5,1,5,80,127,1971633488
78,16,19,Jits_Linear_5,2,5,63,98,1971694132
78,16,19,Jits_Linear_5,3,5,56,103,1971733980
78,16,19,Jits_Linear_5,0,1,48,54,1972246684
78,16,19,Jits_Linear_5,1,5,56,103,1972264244
78,16,19,Jits_Linear_5,2,5,63,98,1972273468
78,16,19,Jits_Linear_5,3,5,80,127,1972313332
78,16,19,Jits_Linear_5,0,5,56,103,1972814132
78,16,19,Jits_Linear_5,1,1,48,59,1972821216
78,16,19,Jits_Linear_5,2,5,80,127,1972844248
78,16,19,Jits_Linear_5,3,5,63,98,1972894304
78,16,19,Jits_Linear_5,0,1,48,61,1973383180
78,16,19,Jits_Linear_5,1,5,56,103,1973443916
78,16,19,Jits_Linear_5,2,5,63,98,1973483840
78,16,19,Jits_Linear_5,3,5,80,127,1973487428
78,16,19,Jits_Linear_5,0,1,48,59,1973994288
78,16,19,Jits_Linear_5,1,5,56,103,1974033652
78,16,19,Jits_Linear_5,2,5,63,98,1974043996
78,16,19,Jits_Linear_5,3,5,80,127,1974063412
78,16,19,Jits_Linear_5,0,5,56,103,1974583692
78,16,19,Jits_Linear_5,1,1,48,59,1974585352
78,16,19,Jits_Linear_5,2,5,80,127,1974587872
78,16,19,Jits_Linear_5,3,5,63,98,1974623624
78,16,19,Jits_Linear_5,0,1,48,61,1975139300
78,16,19,Jits_Linear_5,1,5,63,98,1975213368
78,16,19,Jits_Linear_5,2,5,56,103,1975244248
78,16,19,Jits_Linear_5,3,5,80,127,1975263660
78,16,19,Jits_Linear_5,0,1,48,54,1975746616
78,16,19,Jits_Linear_5,1,5,80,127,1975783728
78,16,19,Jits_Linear_5,2,5,56,103,1975794444
78,16,19,Jits_Linear_5,3,5,63,98,1975804492
78,16,19,Jits_Linear_5,0,1,48,60,1976345720
78,16,19,Jits_Linear_5,1,5,56,103,1976383952
78,16,19,Jits_Linear_5,2,5,80,127,1976423896
78,16,19,Jits_Linear_5,3,5,63,98,1976453628
78,16,19,Jits_Linear_5,0,1,48,58,1976982816
78,16,19,Jits_Linear_5,1,5,63,98,1976994372
78,16,19,Jits_Linear_5,2,5,80,127,1977004344
78,16,19,Jits_Linear_5,3,5,56,103,1977013568
78,16,19,Jits_Linear_5,0,5,56,103,1977573804
78,16,19,Jits_Linear_5,1,1,48,57,1977582776
78,16,19,Jits_Linear_5,2,5,63,98,1977644604
78,16,19,Jits_Linear_5,3,5,80,127,1977653604
78,16,19,Jits_Linear_5,0,5,80,127,1978184388
78,16,19,Jits_Linear_5,1,5,56,103,1978194288
78,16,19,Jits_Linear_5,2,1,48,60,1978205800
78,16,19,Jits_Linear_5,3,5,63,98,1978243436
78,16,19,Jits_Linear_5,0,1,48,58,1978803368
78,16,19,Jits_Linear_5,1,5,80,127,1978804852
78,16,19,Jits_Linear_5,2,5,56,103,1978864152
78,16,19,Jits_Linear_5,3,5,63,98,1978893680
78,16,19,Jits_Linear_5,0,5,56,103,1979413732
78,16,19,Jits_Linear_5,1,5,80,127,1979417024
78,16,19,Jits_Linear_5,2,1,48,63,1979440672
78,16,19,Jits_Linear_5,3,5,63,98,1979453964
78,16,19,Jits_Linear_5,0,1,48,58,1980022556
78,16,19,Jits_Linear_5,1,5,56,103,1980053900
78,16,19,Jits_Linear_5,2,5,63,98,1980083504
78,16,19,Jits_Linear_5,3,5,80,127,1980093920
78,16,19,Jits_Linear_5,0,1,48,60,1980656152
78,16,19,Jits_Linear_5,1,5,63,98,1980674532
78,16,19,Jits_Linear_5,2,5,80,127,1980683608
78,16,19,Jits_Linear_5,3,5,56,103,1980693952
78,16,19,Jits_Linear_5,0,5,80,127,1981233568
78,16,19,Jits_Linear_5,1,1,48,58,1981252204
78,16,19,Jits_Linear_5,2,5,56,103,1981283688
78,16,19,Jits_Linear_5,3,5,63,98,1981286756
78,16,19,Jits_Linear_5,0,1,48,49,1981838708
78,16,19,Jits_Linear_5,1,5,56,103,1981883620
78,16,19,Jits_Linear_5,2,5,80,127,1981904332
78,16,19,Jits_Linear_5,3,5,63,98,1981913480
78,16,19,Jits_Linear_5,0,1,48,61,1982457844
78,16,19,Jits_Linear_5,1,5,63,98,1982484028
78,16,19,Jits_Linear_5,2,5,56,103,1982513560
78,16,19,Jits_Linear_5,3,5,80,127,1982534164
78,16,19,Jits_Linear_5,0,1,48,65,1983092108
78,16,19,Jits_Linear_5,1,5,56,103,1983113632
78,16,19,Jits_Linear_5,2,5,80,127,1983123900
78,16,19,Jits_Linear_5,3,5,63,98,1983193448
78,16,19,Jits_Linear_5,0,1,48,57,1983721812
78,16,19,Jits_Linear_5,1,5,63,98,1983723780
78,16,19,Jits_Linear_5,2,5,80,127,1983763868
78,16,19,Jits_Linear_5,3,5,56,103,1983803808
78,16,19,Jits_Linear_5,0,1,48,59,1984359492
78,16,19,Jits_Linear_5,1,5,56,103,1984364168
78,16,19,Jits_Linear_5,2,5,63,98,1984374364
78,16,19,Jits_Linear_5,3,5,80,127,1984393552
78,16,19,Jits_Linear_5,0,1,48,58,1984991900
78,16,19,Jits_Linear_5,1,5,63,98,1985033580
78,16,19,Jits_Linear_5,2,5,80,127,1985054188
78,16,19,Jits_Linear_5,3,5,56,103,1985073376
78,16,19,Jits_Linear_5,0,5,56,103,1985604000
78,16,19,Jits_Linear_5,1,1,48,54,1985637236
78,16,19,Jits_Linear_5,2,5,80,127,1985684164
78,16,19,Jits_Linear_5,3,5,63,98,1985694364
78,16,19,Jits_Linear_5,0,1,48,55,1986248068
78,16,19,Jits_Linear_5,1,5,80,127,1986273648
78,16,19,Jits_Linear_5,2,5,63,98,1986283844
78,16,19,Jits_Linear_5,3,5,56,103,1986313668
78,16,19,Jits_Linear_5,0,5,63,98,1986863468
78,16,19,Jits_Linear_5,1,1,48,52,1986896184
78,16,19,Jits_Linear_5,2,5,80,127,1986904376
78,16,19,Jits_Linear_5,3,5,56,103,1986963792
78,16,19,Jits_Linear_5,0,1,48,56,1987493116
78,16,19,Jits_Linear_5,1,5,63,98,1987503404
78,16,19,Jits_Linear_5,2,5,56,103,1987553784
78,16,19,Jits_Linear_5,3,5,80,127,1987584504
78,16,19,Jits_Linear_5,0,1,48,62,1988126108
78,16,19,Jits_Linear_5,1,5,80,127,1988153856
78,16,19,Jits_Linear_5,2,5,63,98,1988164128
78,16,19,Jits_Linear_5,3,5,56,103,1988233496
78,16,19,Jits_Linear_5,0,1,48,56,1988789568
78,16,19,Jits_Linear_5,1,5,80,127,1988864324
78,16,19,Jits_Linear_5,2,5,56,103,1988873548
78,16,19,Jits_Linear_5,3,5,63,98,1988876688
78,16,19,Jits_Linear_5,0,5,56,103,1989444252
78,16,19,Jits_Linear_5,1,5,80,127,1989464340
78,16,19,Jits_Linear_5,2,1,48,54,1989470972
78,16,19,Jits_Linear_5,3,5,63,98,1989473708
78,16,19,Jits_Linear_5,0,1,48,53,1990073468
78,16,19,Jits_Linear_5,1,5,63,98,1990094116
78,16,19,Jits_Linear_5,2,5,56,103,1990134060
78,16,19,Jits_Linear_5,3,5,80,127,1990153696
78,16,19,Jits_Linear_5,0,1,48,60,1990715532
78,16,19,Jits_Linear_5,1,5,63,98,1990744328
78,16,19,Jits_Linear_5,2,5,56,103,1990803896
78,16,19,Jits_Linear_5,3,5,80,127,1990806812
78,16,19,Jits_Linear_5,0,5,56,103,1991353848
78,16,19,Jits_Linear_5,1,5,80,127,1991374188
78,16,19,Jits_Linear_5,2,5,63,98,1991414052
78,16,19,Jits_Linear_5,3,1,48,57,1991418588
78,16,19,Jits_Linear_5,0,5,56,103,1992033764
78,16,19,Jits_Linear_5,1,5,63,98,1992054076
78,16,19,Jits_Linear_5,2,1,48,57,1992056088
78,16,19,Jits_Linear_5,3,5,80,127,1992064340
78,16,19,Jits_Linear_5,0,5,80,127,1992654180
78,16,19,Jits_Linear_5,1,1,48,54,1992668908
78,16,19,Jits_Linear_5,2,5,56,103,1992684072
78,16,19,Jits_Linear_5,3,5,63,98,1992723940
78,16,19,Jits_Linear_5,0,5,80,127,1993313912
78,16,19,Jits_Linear_5,1,1,48,58,1993316360
78,16,19,Jits_Linear_5,2,5,56,103,1993334216
78,16,19,Jits_Linear_5,3,5,63,98,1993393484
78,16,19,Jits_Linear_5,0,1,48,58,1993962104
78,16,19,Jits_Linear_5,1,5,56,103,1993974260
78,16,19,Jits_Linear_5,2,5,80,127,1993993676
78,16,19,Jits_Linear_5,3,5,63,98,1994054068
78,16,19,Jits_Linear_5,0,5,80,127,1994614060
78,16,19,Jits_Linear_5,1,5,56,103,1994624332
78,16,19,Jits_Linear_5,2,1,48,57,1994650672
78,16,19,Jits_Linear_5,3,5,63,98,1994664340
78,16,19,Jits_Linear_5,0,1,48,54,1995269208
78,16,19,Jits_Linear_5,1,5,63,98,1995273512
78,16,19,Jits_Linear_5,2,5,56,103,1995313600
78,16,19,Jits_Linear_5,3,5,80,127,1995316740
78,16,19,Jits_Linear_5,0,1,48,56,1995885908
78,16,19,Jits_Linear_5,1,5,63,98,1995953444
78,16,19,Jits_Linear_5,2,5,80,127,1995993620
78,16,19,Jits_Linear_5,3,5,56,103,1996024044
78,16,19,Jits_Linear_5,0,1,48,57,1996548868
78,16,19,Jits_Linear_5,1,5,56,103,1996603824
78,16,19,Jits_Linear_5,2,5,63,98,1996613872
78,16,19,Jits_Linear_5,3,5,80,127,1996643844
78,16,19,Jits_Linear_5,0,5,80,127,1997264248
78,16,19,Jits_Linear_5,1,1,48,51,1997271108
78,16,19,Jits_Linear_5,2,5,63,98,1997334000
78,16,19,Jits_Linear_5,3,5,56,103,1997344120
78,16,19,Jits_Linear_5,0,5,63,98,1997933944
78,16,19,Jits_Linear_5,1,1,48,54,1997974680
78,16,19,Jits_Linear_5,2,5,56,103,1998003472
78,16,19,Jits_Linear_5,3,5,80,127,1998014068
78,16,19,Jits_Linear_5,0,5,63,98,1998603652
78,16,19,Jits_Linear_5,1,5,56,103,1998623964
78,16,19,Jits_Linear_5,2,1,48,62,1998640264
78,16,19,Jits_Linear_5,3,5,80,127,1998664120
78,16,19,Jits_Linear_5,0,5,56,103,1999283524
78,16,19,Jits_Linear_5,1,1,48,60,1999289564
78,16,19,Jits_Linear_5,2,5,63,98,1999294036
78,16,19,Jits_Linear_5,3,5,80,127,1999373760
78,16,19,Jits_Linear_5,0,5,63,98,1999943952
78,16,19,Jits_Linear_5,1,5,56,103,1999973928
78,16,19,Jits_Linear_5,2,1,48,56,1999999148
78,16,19,Jits_Linear_5,3,5,80,127,2000013936
78,16,19,Jits_Linear_5,0,5,56,103,2000613812
78,16,19,Jits_Linear_5,1,1,48,58,2000636336
78,16,19,Jits_Linear_5,2,5,63,98,2000653968
78,16,19,Jits_Linear_5,3,5,80,127,2000693684
78,16,19,Jits_Linear_5,0,1,48,61,2001292564
78,16,19,Jits_Linear_5,1,5,80,127,2001293984
78,16,19,Jits_Linear_5,2,5,56,103,2001373664
78,16,19,Jits_Linear_5,3,5,63,98,2001383932
78,16,19,Jits_Linear_5,0,1,48,65,2001991160
78,16,19,Jits_Linear_5,1,5,56,103,2002013748
78,16,19,Jits_Linear_5,2,5,63,98,2002016664
78,16,19,Jits_Linear_5,3,5,80,127,2002024016
78,16,19,Jits_Linear_5,0,1,48,59,2002691516
78,16,19,Jits_Linear_5,1,5,56,103,2002713936
78,16,19,Jits_Linear_5,2,5,63,98,2002733424
78,16,19,Jits_Linear_5,3,5,80,127,2002743844
78,16,19,Jits_Linear_5,0,5,63,98,2003354032
78,16,19,Jits_Linear_5,1,5,80,127,2003364232
78,16,19,Jits_Linear_5,2,5,56,103,2003383792
78,16,19,Jits_Linear_5,3,1,48,62,2003390228
78,16,19,Jits_Linear_5,0,5,63,98,2004044044
78,16,19,Jits_Linear_5,1,1,48,56,2004066796
78,16,19,Jits_Linear_5,2,5,56,103,2004123908
78,16,19,Jits_Linear_5,3,5,80,127,2004127052
78,16,19,Jits_Linear_5,0,5,63,98,2004734416
78,16,19,Jits_Linear_5,1,1,48,57,2004743316
78,16,19,Jits_Linear_5,2,5,56,103,2004753752
78,16,19,Jits_Linear_5,3,5,80,127,2004783724
78,16,19,Jits_Linear_5,0,1,48,53,2005407140
78,16,19,Jits_Linear_5,1,5,56,103,2005423576
78,16,19,Jits_Linear_5,2,5,63,98,2005443836
78,16,19,Jits_Linear_5,3,5,80,127,2005454332
78,16,19,Jits_Linear_5,0,1,48,57,2006080808
78,16,19,Jits_Linear_5,1,5,56,103,2006144452
78,16,19,Jits_Linear_5,2,5,63,98,2006174056
78,16,19,Jits_Linear_5,3,5,80,127,2006178748
78,16,19,Jits_Linear_5,0,5,56,103,2006784340
78,16,19,Jits_Linear_5,1,1,48,55,2006809256
78,16,19,Jits_Linear_5,2,5,63,98,2006824200
78,16,19,Jits_Linear_5,3,5,80,127,2006883696
78,16,19,Jits_Linear_5,0,5,56,103,2007494072
78,16,19,Jits_Linear_5,1,5,63,98,2007504120
78,16,19,Jits_Linear_5,2,1,48,53,2007521932
78,16,19,Jits_Linear_5,3,5,80,127,2007563756
78,16,19,Jits_Linear_5,0,5,56,103,2008194488
78,16,19,Jits_Linear_5,1,1,48,51,2008208840
78,16,19,Jits_Linear_5,2,5,80,127,2008213820
78,16,19,Jits_Linear_5,3,5,63,98,2008243644
78,16,19,Jits_Linear_5,0,1,48,55,2008870984
78,16,19,Jits_Linear_5,1,5,80,127,2008893796
78,16,19,Jits_Linear_5,2,5,56,103,2008903992
78,16,19,Jits_Linear_5,3,5,63,98,2008923776
78,16,19,Jits_Linear_5,0,1,48,53,2009574856
78,16,19,Jits_Linear_5,1,5,63,98,2009584024
78,16,19,Jits_Linear_5,2,5,80,127,2009663900
78,16,19,Jits_Linear_5,3,5,56,103,2009674228
78,16,19,Jits_Linear_5,0,1,48,58,2010281840
78,16,19,Jits_Linear_5,1,5,80,127,2010343792
78,16,19,Jits_Linear_5,2,5,56,103,2010364252
78,16,19,Jits_Linear_5,3,5,63,98,2010367540
78,16,19,Jits_Linear_5,0,1,48,51,2011015916
78,16,19,Jits_Linear_5,1,5,63,98,2011023808
78,16,19,Jits_Linear_5,2,5,80,127,2011027024
78,16,19,Jits_Linear_5,3,5,56,103,2011084076
78,16,19,Jits_Linear_5,0,5,56,103,2011713820
78,16,19,Jits_Linear_5,1,5,80,127,2011724016
78,16,19,Jits_Linear_5,2,5,63,98,2011763956
78,16,19,Jits_Linear_5,3,1,48,46,2011768200
78,16,19,Jits_Linear_5,0,5,56,103,2012404220
78,16,19,Jits_Linear_5,1,1,48,58,2012454468
78,16,19,Jits_Linear_5,2,5,63,98,2012463784
78,16,19,Jits_Linear_5,3,5,80,127,2012473684
78,16,19,Jits_Linear_5,0,5,63,98,2013123844
78,16,19,Jits_Linear_5,1,1,48,51,2013143900
78,16,19,Jits_Linear_5,2,5,80,127,2013163852
78,16,19,Jits_Linear_5,3,5,56,103,2013203792
78,16,19,Jits_Linear_5,0,5,56,103,2013833536
78,16,19,Jits_Linear_5,1,1,48,54,2013847516
78,16,19,Jits_Linear_5,2,5,63,98,2013913804
78,16,19,Jits_Linear_5,3,5,80,127,2013916940
78,16,19,Jits_Linear_5,0,1,48,56,2014573656
78,16,19,Jits_Linear_5,1,5,80,127,2014603720
78,16,19,Jits_Linear_5,2,5,56,103,2014634592
78,16,19,Jits_Linear_5,3,5,63,98,2014637508
78,16,19,Jits_Linear_5,0,5,56,103,2015283692
78,16,19,Jits_Linear_5,1,5,80,127,2015303928
78,16,19,Jits_Linear_5,2,1,48,57,2015334392
78,16,19,Jits_Linear_5,3,5,63,98,2015343860
78,16,19,Jits_Linear_5,0,5,80,127,2015983980
78,16,19,Jits_Linear_5,1,5,63,98,2016003544
78,16,19,Jits_Linear_5,2,1,48,58,2016052216
78,16,19,Jits_Linear_5,3,5,56,103,2016063852
78,16,19,Jits_Linear_5,0,5,63,98,2016714164
78,16,19,Jits_Linear_5,1,5,56,103,2016724436
78,16,19,Jits_Linear_5,2,1,48,52,2016747560
78,16,19,Jits_Linear_5,3,5,80,127,2016773436
78,16,19,Jits_Linear_5,0,1,48,54,2017418868
78,16,19,Jits_Linear_5,1,5,56,103,2017423844
78,16,19,Jits_Linear_5,2,5,63,98,2017444380
78,16,19,Jits_Linear_5,3,5,80,127,2017453456
78,16,19,Jits_Linear_5,0,1,48,54,2018095020
78,16,19,Jits_Linear_5,1,5,56,103,2018143672
78,16,19,Jits_Linear_5,2,5,63,98,2018146740
78,16,19,Jits_Linear_5,3,5,80,127,2018164208
78,16,19,Jits_Linear_5,0,1,48,50,2018806296
78,16,19,Jits_Linear_5,1,5,63,98,2018913604
78,16,19,Jits_Linear_5,2,5,56,103,2018944548
78,16,19,Jits_Linear_5,3,5,80,127,2018974004
78,16,19,Jits_Linear_5,0,5,80,127,2019603860
78,16,19,Jits_Linear_5,1,1,48,53,2019671644
78,16,19,Jits_Linear_5,2,5,56,103,2019693916
78,16,19,Jits_Linear_5,3,5,63,98,2019696980
78,16,19,Jits_Linear_5,0,5,56,103,2020333884
78,16,19,Jits_Linear_5,1,5,80,127,2020336952
78,16,19,Jits_Linear_5,2,1,48,57,2020387644
78,16,19,Jits_Linear_5,3,5,63,98,2020413672
78,16,19,Jits_Linear_5,0,5,80,127,2021063984
78,16,19,Jits_Linear_5,1,1,48,55,2021070540
78,16,19,Jits_Linear_5,2,5,63,98,2021123620
78,16,19,Jits_Linear_5,3,5,56,103,2021154268
78,16,19,Jits_Linear_5,0,5,63,98,2021794292
78,16,19,Jits_Linear_5,1,1,48,50,2021803360
78,16,19,Jits_Linear_5,2,5,80,127,2021804928
78,16,19,Jits_Linear_5,3,5,56,103,2021873892
78,16,19,Jits_Linear_5,0,5,56,103,2022543868
78,16,19,Jits_Linear_5,1,1,48,55,2022544832
78,16,19,Jits_Linear_5,2,5,80,127,2022573316
78,16,19,Jits_Linear_5,3,5,63,98,2022623468
78,16,19,Jits_Linear_5,0,1,48,55,2023324024
78,16,19,Jits_Linear_5,1,5,63,98,2023325512
78,16,19,Jits_Linear_5,2,5,56,103,2023353768
78,16,19,Jits_Linear_5,3,5,80,127,2023356860
78,16,19,Jits_Linear_5,0,5,63,98,2024064452
78,16,19,Jits_Linear_5,1,1,48,51,2024065864
78,16,19,Jits_Linear_5,2,5,80,127,2024083708
78,16,19,Jits_Linear_5,3,5,56,103,2024094056
78,16,19,Jits_Linear_5,0,1,48,49,2024762600
78,16,19,Jits_Linear_5,1,5,56,103,2024813868
78,16,19,Jits_Linear_5,2,5,63,98,2024816860
78,16,19,Jits_Linear_5,3,5,80,127,2024834624
78,16,19,Jits_Linear_5,0,5,56,103,2025514512
78,16,19,Jits_Linear_5,1,5,63,98,2025523588
78,16,19,Jits_Linear_5,2,1,48,55,2025524924
78,16,19,Jits_Linear_5,3,5,80,127,2025554228
78,16,19,Jits_Linear_5,0,1,48,48,2026210412
78,16,19,Jits_Linear_5,1,5,63,98,2026284472
78,16,19,Jits_Linear_5,2,5,80,127,2026303868
78,16,19,Jits_Linear_5,3,5,56,103,2026343808
78,16,19,Jits_Linear_5,0,1,48,54,2026999324
78,16,19,Jits_Linear_5,1,5,56,103,2027063792
78,16,19,Jits_Linear_5,2,5,63,98,2027103644
78,16,19,Jits_Linear_5,3,5,80,127,2027106932
78,16,19,Jits_Linear_5,0,5,80,127,2027753880
78,16,19,Jits_Linear_5,1,5,56,103,2027793820
78,16,19,Jits_Linear_5,2,1,48,54,2027822568
78,16,19,Jits_Linear_5,3,5,63,98,2027843868
78,16,19,Jits_Linear_5,0,1,48,54,2028547712
78,16,19,Jits_Linear_5,1,5,56,103,2028563704
78,16,19,Jits_Linear_5,2,5,80,127,2028574196
78,16,19,Jits_Linear_5,3,5,63,98,2028603648
78,16,19,Jits_Linear_5,0,5,56,103,2029264508
78,16,19,Jits_Linear_5,1,1,48,56,2029289656
78,16,19,Jits_Linear_5,2,5,80,127,2029304368
78,16,19,Jits_Linear_5,3,5,63,98,2029354348
78,16,19,Jits_Linear_5,0,5,56,103,2030023988
78,16,19,Jits_Linear_5,1,1,48,51,2030053416
78,16,19,Jits_Linear_5,2,5,80,127,2030063848
78,16,19,Jits_Linear_5,3,5,63,98,2030114272
78,16,19,Jits_Linear_5,0,5,80,127,2030773700
78,16,19,Jits_Linear_5,1,1,48,53,2030782172
78,16,19,Jits_Linear_5,2,5,63,98,2030853444
78,16,19,Jits_Linear_5,3,5,56,103,2030863640
78,16,19,Jits_Linear_5,0,1,48,57,2031546184
78,16,19,Jits_Linear_5,1,5,80,127,2031583772
78,16,19,Jits_Linear_5,2,5,56,103,2031593748
78,16,19,Jits_Linear_5,3,5,63,98,2031614356
78,16,19,Jits_Linear_5,0,5,63,98,2032313780
78,16,19,Jits_Linear_5,1,1,48,52,2032322676
78,16,19,Jits_Linear_5,2,5,56,103,2032384352
78,16,19,Jits_Linear_5,3,5,80,127,2032387420
78,16,19,Jits_Linear_5,0,5,80,127,2033073508
78,16,19,Jits_Linear_5,1,1,48,56,2033100692
78,16,19,Jits_Linear_5,2,5,63,98,2033123584
78,16,19,Jits_Linear_5,3,5,56,103,2033163524
78,16,19,Jits_Linear_5,0,1,48,53,2033860696
78,16,19,Jits_Linear_5,1,5,63,98,2033883432
78,16,19,Jits_Linear_5,2,5,56,103,2033923448
78,16,19,Jits_Linear_5,3,5,80,127,2033933792
78,16,19,Jits_Linear_5,0,1,48,49,2034637248
78,16,19,Jits_Linear_5,1,5,63,98,2034644320
78,16,19,Jits_Linear_5,2,5,56,103,2034663732
78,16,19,Jits_Linear_5,3,5,80,127,2034684340
78,16,19,Jits_Linear_5,0,5,80,127,2035383684
78,16,19,Jits_Linear_5,1,5,56,103,2035393980
78,16,19,Jits_Linear_5,2,1,48,52,2035398516
78,16,19,Jits_Linear_5,3,5,63,98,2035414508
78,16,19,Jits_Linear_5,0,1,48,53,2036133312
78,16,19,Jits_Linear_5,1,5,63,98,2036184384
78,16,19,Jits_Linear_5,2,5,56,103,2036225132
78,16,19,Jits_Linear_5,3,5,80,127,2036254280
78,16,19,Jits_Linear_5,0,1,48,53,2036926740
78,16,19,Jits_Linear_5,1,5,56,103,2036963704
78,16,19,Jits_Linear_5,2,5,63,98,2036994504
78,16,19,Jits_Linear_5,3,5,80,127,2037024180
78,16,19,Jits_Linear_5,0,5,80,127,2037714332
78,16,19,Jits_Linear_5,1,1,48,53,2037775216
78,16,19,Jits_Linear_5,2,5,56,103,2037783860
78,16,19,Jits_Linear_5,3,5,63,98,2037787076
78,16,19,Jits_Linear_5,0,5,56,103,2038503696
78,16,19,Jits_Linear_5,1,5,63,98,2038554124
78,16,19,Jits_Linear_5,2,1,48,57,2038574184
78,16,19,Jits_Linear_5,3,5,80,127,2038583572
78,16,19,Jits_Linear_5,0,5,63,98,2039263548
78,16,19,Jits_Linear_5,1,5,80,127,2039266688
78,16,19,Jits_Linear_5,2,5,56,103,2039324084
78,16,19,Jits_Linear_5,3,1,48,52,2039328252
78,16,19,Jits_Linear_5,0,1,48,49,2040039444
78,16,19,Jits_Linear_5,1,5,56,103,2040073564
78,16,19,Jits_Linear_5,2,5,80,127,2040083836
78,16,19,Jits_Linear_5,3,5,63,98,2040134100
78,16,19,Jits_Linear_5,0,1,48,59,2040791944
78,16,19,Jits_Linear_5,1,5,63,98,2040834524
78,16,19,Jits_Linear_5,2,5,56,103,2040843600
78,16,19,Jits_Linear_5,3,5,80,127,2040874468
78,16,19,Jits_Linear_5,0,1,48,49,2041567196
78,16,19,Jits_Linear_5,1,5,63,98,2041653544
78,16,19,Jits_Linear_5,2,5,80,127,2041656980
78,16,19,Jits_Linear_5,3,5,56,103,2041684324
78,16,19,Jits_Linear_5,0,1,48,54,2042405324
78,16,19,Jits_Linear_5,1,5,63,98,2042463644
78,16,19,Jits_Linear_5,2,5,56,103,2042484252
78,16,19,Jits_Linear_5,3,5,80,127,2042487320
78,16,19,Jits_Linear_5,0,5,63,98,2043214188
78,16,19,Jits_Linear_5,1,1,48,60,2043224728
78,16,19,Jits_Linear_5,2,5,56,103,2043283868
78,16,19,Jits_Linear_5,3,5,80,127,2043304252
78,16,19,Jits_Linear_5,0,5,56,103,2043993360
78,16,19,Jits_Linear_5,1,5,63,98,2044003852
78,16,19,Jits_Linear_5,2,1,48,50,2044051168
78,16,19,Jits_Linear_5,3,5,80,127,2044094004
78,16,19,Jits_Linear_5,0,1,48,53,2044783224
78,16,19,Jits_Linear_5,1,5,56,103,2044803404
78,16,19,Jits_Linear_5,2,5,80,127,2044844540
78,16,19,Jits_Linear_5,3,5,63,98,2044853688
78,16,19,Jits_Linear_5,0,1,48,56,2045548220
78,16,19,Jits_Linear_5,1,5,56,103,2045623628
78,16,19,Jits_Linear_5,2,5,63,98,2045654292
78,16,19,Jits_Linear_5,3,5,80,127,2045684188
78,16,19,Jits_Linear_5,0,5,80,127,2046383400
78,16,19,Jits_Linear_5,1,1,48,51,2046408044
78,16,19,Jits_Linear_5,2,5,63,98,2046424332
78,16,19,Jits_Linear_5,3,5,56,103,2046443896
78,16,19,Jits_Linear_5,0,5,56,103,2047224268
78,16,19,Jits_Linear_5,1,1,48,43,2047227536
78,16,19,Jits_Linear_5,2,5,80,127,2047243672
78,16,19,Jits_Linear_5,3,5,63,98,2047263984
78,16,19,Jits_Linear_5,0,5,63,98,2047994308
78,16,19,Jits_Linear_5,1,5,56,103,2048003312
78,16,19,Jits_Linear_5,2,1,48,54,2048012876
78,16,19,Jits_Linear_5,3,5,80,127,2048064064
78,16,19,Jits_Linear_5,0,1,48,55,2048804496
78,16,19,Jits_Linear_5,1,5,56,103,2048805756
78,16,19,Jits_Linear_5,2,5,63,98,2048874100
78,16,19,Jits_Linear_5,3,5,80,127,2048894336
78,16,19,Jits_Linear_5,0,5,56,103,2049614084
78,16,19,Jits_Linear_5,1,1,48,51,2049636832
78,16,19,Jits_Linear_5,2,5,63,98,2049643976
78,16,19,Jits_Linear_5,3,5,80,127,2049684064
78,16,19,Jits_Linear_5,0,5,63,98,2050413864
78,16,19,Jits_Linear_5,1,1,48,49,2050417204
78,16,19,Jits_Linear_5,2,5,56,103,2050464060
78,16,19,Jits_Linear_5,3,5,80,127,2050474404
78,16,19,Jits_Linear_5,0,1,48,55,2051247904
78,16,19,Jits_Linear_5,1,5,56,103,2051263844
78,16,19,Jits_Linear_5,2,5,63,98,2051314052
78,16,19,Jits_Linear_5,3,5,80,127,2051324172
78,16,19,Jits_Linear_5,0,5,56,103,2052044072
78,16,19,Jits_Linear_5,1,5,63,98,2052054416
78,16,19,Jits_Linear_5,2,1,48,55,2052067428
78,16,19,Jits_Linear_5,3,5,80,127,2052134204
78,16,19,Jits_Linear_5,0,9999,9999,9999,1943271524
78,16,19,Jits_Linear_5,1,9999,9999,9999,1943751760
78,16,19,Jits_Linear_5,2,9999,9999,9999,1944231996
78,16,19,Jits_Linear_5,3,9999,9999,9999,1944711276
78,16,19,Jits_Linear_5,4,9999,9999,9999,1945191504
78,16,19,Jits_Linear_5,5,9999,9999,9999,1945681988
78,16,19,Jits_Linear_5,6,9999,9999,9999,1946171488
78,16,19,Jits_Linear_5,7,9999,9999,9999,1946661976
78,16,19,Jits_Linear_5,8,9999,9999,9999,1947151488
78,16,19,Jits_Linear_5,9,9999,9999,9999,1947641980
78,16,19,Jits_Linear_5,10,9999,9999,9999,1948141684
78,16,19,Jits_Linear_5,11,9999,9999,9999,1948641388
78,16,19,Jits_Linear_5,12,9999,9999,9999,1949142124
78,16,19,Jits_Linear_5,13,9999,9999,9999,1949652048
78,16,19,Jits_Linear_5,14,9999,9999,9999,1950151736
78,16,19,Jits_Linear_5,15,9999,9999,9999,1950661688
78,16,19,Jits_Linear_5,16,9999,9999,9999,1951171644
78,16,19,Jits_Linear_5,17,9999,9999,9999,1951681596
78,16,19,Jits_Linear_5,18,9999,9999,9999,1952191624
78,16,19,Jits_Linear_5,19,9999,9999,9999,1952701552
78,16,19,Jits_Linear_5,20,9999,9999,9999,1953221716
78,16,19,Jits_Linear_5,21,9999,9999,9999,1953741932
78,16,19,Jits_Linear_5,22,9999,9999,9999,1954262072
78,16,19,Jits_Linear_5,23,9999,9999,9999,1954791520
78,16,19,Jits_Linear_5,24,9999,9999,9999,1955311676
78,16,19,Jits_Linear_5,25,9999,9999,9999,1955841116
78,16,19,Jits_Linear_5,26,9999,9999,9999,1956371528
78,16,19,Jits_Linear_5,27,9999,9999,9999,1956902000
78,16,19,Jits_Linear_5,28,9999,9999,9999,1957431376
78,16,19,Jits_Linear_5,29,9999,9999,9999,1957961780
78,16,19,Jits_Linear_5,30,9999,9999,9999,1958501480
78,16,19,Jits_Linear_5,31,9999,9999,9999,1959041104
78,16,19,Jits_Linear_5,32,9999,9999,9999,1959581772
78,16,19,Jits_Linear_5,33,9999,9999,9999,1960121468
78,16,19,Jits_Linear_5,34,9999,9999,9999,1960662080
78,16,19,Jits_Linear_5,35,9999,9999,9999,1961221196
78,16,19,Jits_Linear_5,36,9999,9999,9999,1961771072
78,16,19,Jits_Linear_5,37,9999,9999,9999,1962322004
78,16,19,Jits_Linear_5,38,9999,9999,9999,1962871892
78,16,19,Jits_Linear_5,39,9999,9999,9999,1963421780
78,16,19,Jits_Linear_5,40,9999,9999,9999,1963981884
78,16,19,Jits_Linear_5,41,9999,9999,9999,1964542044
78,16,19,Jits_Linear_5,42,9999,9999,9999,1965101160
78,16,19,Jits_Linear_5,43,9999,9999,9999,1965661308
78,16,19,Jits_Linear_5,44,9999,9999,9999,1966221380
78,16,19,Jits_Linear_5,45,9999,9999,9999,1966791744
78,16,19,Jits_Linear_5,46,9999,9999,9999,1967361104
78,16,19,Jits_Linear_5,47,9999,9999,9999,1967931448
78,16,19,Jits_Linear_5,48,9999,9999,9999,1968501864
78,16,19,Jits_Linear_5,49,9999,9999,9999,1969071160
78,16,19,Jits_Linear_5,50,9999,9999,9999,1969651776
78,16,19,Jits_Linear_5,51,9999,9999,9999,1970231416
78,16,19,Jits_Linear_5,52,9999,9999,9999,1970812020
78,16,19,Jits_Linear_5,53,9999,9999,9999,1971391600
78,16,19,Jits_Linear_5,54,9999,9999,9999,1971971156
78,16,19,Jits_Linear_5,55,9999,9999,9999,1972562024
78,16,19,Jits_Linear_5,56,9999,9999,9999,1973151840
78,16,19,Jits_Linear_5,57,9999,9999,9999,1973741688
78,16,19,Jits_Linear_5,58,9999,9999,9999,1974331508
78,16,19,Jits_Linear_5,59,9999,9999,9999,1974921312
78,16,19,Jits_Linear_5,60,9999,9999,9999,1975521364
78,16,19,Jits_Linear_5,61,9999,9999,9999,1976121440
78,16,19,Jits_Linear_5,62,9999,9999,9999,1976721520
78,16,19,Jits_Linear_5,63,9999,9999,9999,1977321544
78,16,19,Jits_Linear_5,64,9999,9999,9999,1977921624
78,16,19,Jits_Linear_5,65,9999,9999,9999,1978531912
78,16,19,Jits_Linear_5,66,9999,9999,9999,1979141176
78,16,19,Jits_Linear_5,67,9999,9999,9999,1979751504
78,16,19,Jits_Linear_5,68,9999,9999,9999,1980361816
78,16,19,Jits_Linear_5,69,9999,9999,9999,1980971116
78,16,19,Jits_Linear_5,70,9999,9999,9999,1981591644
78,16,19,Jits_Linear_5,71,9999,9999,9999,1982211172
78,16,19,Jits_Linear_5,72,9999,9999,9999,1982831704
78,16,19,Jits_Linear_5,73,9999,9999,9999,1983451220
78,16,19,Jits_Linear_5,74,9999,9999,9999,1984071756
78,16,19,Jits_Linear_5,75,9999,9999,9999,1984701504
78,16,19,Jits_Linear_5,76,9999,9999,9999,1985331284
78,16,19,Jits_Linear_5,77,9999,9999,9999,1985962088
78,16,19,Jits_Linear_5,78,9999,9999,9999,1986591804
78,16,19,Jits_Linear_5,79,9999,9999,9999,1987221628
78,16,19,Jits_Linear_5,80,9999,9999,9999,1987861592
78,16,19,Jits_Linear_5,81,9999,9999,9999,1988501608
78,16,19,Jits_Linear_5,82,9999,9999,9999,1989141572
78,16,19,Jits_Linear_5,83,9999,9999,9999,1989781584
78,16,19,Jits_Linear_5,84,9999,9999,9999,1990421568
78,16,19,Jits_Linear_5,85,9999,9999,9999,1991071844
78,16,19,Jits_Linear_5,86,9999,9999,9999,1991722072
78,16,19,Jits_Linear_5,87,9999,9999,9999,1992371316
78,16,19,Jits_Linear_5,88,9999,9999,9999,1993021556
78,16,19,Jits_Linear_5,89,9999,9999,9999,1993671796
78,16,19,Jits_Linear_5,90,9999,9999,9999,1994331232
78,16,19,Jits_Linear_5,91,9999,9999,9999,1994991720
78,16,19,Jits_Linear_5,92,9999,9999,9999,1995651144
78,16,19,Jits_Linear_5,93,9999,9999,9999,1996311636
78,16,19,Jits_Linear_5,94,9999,9999,9999,1996971128
78,16,19,Jits_Linear_5,95,9999,9999,9999,1997641812
78,16,19,Jits_Linear_5,96,9999,9999,9999,1998311532
78,16,19,Jits_Linear_5,97,9999,9999,9999,1998981216
78,16,19,Jits_Linear_5,98,9999,9999,9999,1999651896
78,16,19,Jits_Linear_5,99,9999,9999,9999,2000321616
78,16,19,Jits_Linear_5,100,9999,9999,9999,2001001560
78,16,19,Jits_Linear_5,101,9999,9999,9999,2001681476
78,16,19,Jits_Linear_5,102,9999,9999,9999,2002361412
78,16,19,Jits_Linear_5,103,9999,9999,9999,2003041384
78,16,19,Jits_Linear_5,104,9999,9999,9999,2003721280
78,16,19,Jits_Linear_5,105,9999,9999,9999,2004411488
78,16,19,Jits_Linear_5,106,9999,9999,9999,2005101640
78,16,19,Jits_Linear_5,107,9999,9999,9999,2005791800
78,16,19,Jits_Linear_5,108,9999,9999,9999,2006482036
78,16,19,Jits_Linear_5,109,9999,9999,9999,2007171196
78,16,19,Jits_Linear_5,110,9999,9999,9999,2007871560
78,16,19,Jits_Linear_5,111,9999,9999,9999,2008571996
78,16,19,Jits_Linear_5,112,9999,9999,9999,2009271360
78,16,19,Jits_Linear_5,113,9999,9999,9999,2009971784
78,16,19,Jits_Linear_5,114,9999,9999,9999,2010671160
78,16,19,Jits_Linear_5,115,9999,9999,9999,2011381840
78,16,19,Jits_Linear_5,116,9999,9999,9999,2012091456
78,16,19,Jits_Linear_5,117,9999,9999,9999,2012801116
78,16,19,Jits_Linear_5,118,9999,9999,9999,2013511744
78,16,19,Jits_Linear_5,119,9999,9999,9999,2014221380
78,16,19,Jits_Linear_5,120,9999,9999,9999,2014941296
78,16,19,Jits_Linear_5,121,9999,9999,9999,2015661180
78,16,19,Jits_Linear_5,122,9999,9999,9999,2016382064
78,16,19,Jits_Linear_5,123,9999,9999,9999,2017101912
78,16,19,Jits_Linear_5,124,9999,9999,9999,2017821816
78,16,19,Jits_Linear_5,125,9999,9999,9999,2018551896
78,16,19,Jits_Linear_5,126,9999,9999,9999,2019281996
78,16,19,Jits_Linear_5,127,9999,9999,9999,2020011084
78,16,19,Jits_Linear_5,128,9999,9999,9999,2020741180
78,16,19,Jits_Linear_5,129,9999,9999,9999,2021471288
78,16,19,Jits_Linear_5,130,9999,9999,9999,2022211660
78,16,19,Jits_Linear_5,131,9999,9999,9999,2022952020
78,16,19,Jits_Linear_5,132,9999,9999,9999,2023691336
78,16,19,Jits_Linear_5,133,9999,9999,9999,2024431696
78,16,19,Jits_Linear_5,134,9999,9999,9999,2025172044
78,16,19,Jits_Linear_5,135,9999,9999,9999,2025921616
78,16,19,Jits_Linear_5,136,9999,9999,9999,2026671180
78,16,19,Jits_Linear_5,137,9999,9999,9999,2027421800
78,16,19,Jits_Linear_5,138,9999,9999,9999,2028171376
78,16,19,Jits_Linear_5,139,9999,9999,9999,2028921940
78,16,19,Jits_Linear_5,140,9999,9999,9999,2029681780
78,16,19,Jits_Linear_5,141,9999,9999,9999,2030441556
78,16,19,Jits_Linear_5,142,9999,9999,9999,2031201336
78,16,19,Jits_Linear_5,143,9999,9999,9999,2031961192
78,16,19,Jits_Linear_5,144,9999,9999,9999,2032722044
78,16,19,Jits_Linear_5,145,9999,9999,9999,2033492072
78,16,19,Jits_Linear_5,146,9999,9999,9999,2034262120
78,16,19,Jits_Linear_5,147,9999,9999,9999,2035041364
78,16,19,Jits_Linear_5,148,9999,9999,9999,2035811384
78,16,19,Jits_Linear_5,149,9999,9999,9999,2036581428
78,16,19,Jits_Linear_5,150,9999,9999,9999,2037361720
78,16,19,Jits_Linear_5,151,9999,9999,9999,2038142076
78,16,19,Jits_Linear_5,152,9999,9999,9999,2038921336
78,16,19,Jits_Linear_5,153,9999,9999,9999,2039701628
78,16,19,Jits_Linear_5,154,9999,9999,9999,2040481844
78,16,19,Jits_Linear_5,155,9999,9999,9999,2041271424
78,16,19,Jits_Linear_5,156,9999,9999,9999,2042061912
78,16,19,Jits_Linear_5,157,9999,9999,9999,2042851412
78,16,19,Jits_Linear_5,158,9999,9999,9999,2043641972
78,16,19,Jits_Linear_5,159,9999,9999,9999,2044431472
78,16,19,Jits_Linear_5,160,9999,9999,9999,2045231188
78,16,19,Jits_Linear_5,161,9999,9999,9999,2046031936
78,16,19,Jits_Linear_5,162,9999,9999,9999,2046831708
78,16,19,Jits_Linear_5,163,9999,9999,9999,2047631420
78,16,19,Jits_Linear_5,164,9999,9999,9999,2048431204
78,16,19,Jits_Linear_5,165,9999,9999,9999,2049241196
78,16,19,Jits_Linear_5,166,9999,9999,9999,2050051152
78,16,19,Jits_Linear_5,167,9999,9999,9999,2050861120
78,16,19,Jits_Linear_5,168,9999,9999,9999,2051671156
78,16,19,Jits_Linear_5,169,9999,9999,9999,2052481116
78,17,18,Jits_Linear_8,0,5,56,103,2064542172
78,17,18,Jits_Linear_8,1,5,63,98,2064545272
78,17,18,Jits_Linear_8,2,5,80,127,2064548612
78,17,18,Jits_Linear_8,0,5,56,103,2065362200
78,17,18,Jits_Linear_8,1,5,63,98,2065365300
78,17,18,Jits_Linear_8,2,5,80,127,2065368648
78,17,18,Jits_Linear_8,0,5,80,127,2066122072
78,17,18,Jits_Linear_8,1,5,63,98,2066212356
78,17,18,Jits_Linear_8,2,5,56,103,2066221356
78,17,18,Jits_Linear_8,0,5,56,103,2066961880
78,17,18,Jits_Linear_8,1,5,63,98,2066972152
78,17,18,Jits_Linear_8,2,5,80,127,2067062208
78,17,18,Jits_Linear_8,0,5,63,98,2067752240
78,17,18,Jits_Linear_8,1,1,48,60,2067766068
78,17,18,Jits_Linear_8,2,5,80,127,2067781984
78,17,18,Jits_Linear_8,3,5,56,103,2067811732
78,17,18,Jits_Linear_8,0,1,48,62,2068542668
78,17,18,Jits_Linear_8,1,5,56,103,2068571612
78,17,18,Jits_Linear_8,2,5,80,127,2068671872
78,17,18,Jits_Linear_8,3,5,63,98,2068722000
78,17,18,Jits_Linear_8,0,1,48,59,2069371120
78,17,18,Jits_Linear_8,1,5,56,103,2069381632
78,17,18,Jits_Linear_8,2,5,80,127,2069431536
78,17,18,Jits_Linear_8,3,5,63,98,2069471708
78,17,18,Jits_Linear_8,0,1,48,63,2070197680
78,17,18,Jits_Linear_8,1,5,80,127,2070222164
78,17,18,Jits_Linear_8,2,5,63,98,2070251840
78,17,18,Jits_Linear_8,3,5,56,103,2070321656
78,17,18,Jits_Linear_8,0,1,48,62,2071028552
78,17,18,Jits_Linear_8,1,5,63,98,2071062004
78,17,18,Jits_Linear_8,2,5,56,103,2071091828
78,17,18,Jits_Linear_8,3,5,80,127,2071152056
78,17,18,Jits_Linear_8,0,5,56,103,2071811420
78,17,18,Jits_Linear_8,1,5,80,127,2071814560
78,17,18,Jits_Linear_8,2,1,48,60,2071857084
78,17,18,Jits_Linear_8,3,5,63,98,2071932260
78,17,18,Jits_Linear_8,0,1,48,61,2072623876
78,17,18,Jits_Linear_8,1,5,56,103,2072692088
78,17,18,Jits_Linear_8,2,5,80,127,2072732160
78,17,18,Jits_Linear_8,3,5,63,98,2072742504
78,17,18,Jits_Linear_8,0,5,56,103,2073451844
78,17,18,Jits_Linear_8,1,5,80,127,2073472380
78,17,18,Jits_Linear_8,2,1,48,60,2073497072
78,17,18,Jits_Linear_8,3,5,63,98,2073552192
78,17,18,Jits_Linear_8,0,5,80,127,2074242544
78,17,18,Jits_Linear_8,1,1,48,57,2074310652
78,17,18,Jits_Linear_8,2,5,56,103,2074341768
78,17,18,Jits_Linear_8,3,5,63,98,2074352036
78,17,18,Jits_Linear_8,0,5,63,98,2075011524
78,17,18,Jits_Linear_8,1,5,80,127,2075071792
78,17,18,Jits_Linear_8,2,5,56,103,2075082064
78,17,18,Jits_Linear_8,3,1,48,61,2075128928
78,17,18,Jits_Linear_8,0,5,56,103,2075812172
78,17,18,Jits_Linear_8,1,5,63,98,2075881952
78,17,18,Jits_Linear_8,2,5,80,127,2075885392
78,17,18,Jits_Linear_8,3,1,48,59,2075908368
78,17,18,Jits_Linear_8,0,5,63,98,2076641700
78,17,18,Jits_Linear_8,1,1,48,59,2076679668
78,17,18,Jits_Linear_8,2,5,56,103,2076691820
78,17,18,Jits_Linear_8,3,5,80,127,2076695108
78,17,18,Jits_Linear_8,0,5,56,103,2077392516
78,17,18,Jits_Linear_8,1,5,80,127,2077395432
78,17,18,Jits_Linear_8,2,1,48,57,2077442836
78,17,18,Jits_Linear_8,3,5,63,98,2077482492
78,17,18,Jits_Linear_8,0,1,48,58,2078195604
78,17,18,Jits_Linear_8,1,5,63,98,2078221640
78,17,18,Jits_Linear_8,2,5,56,103,2078311836
78,17,18,Jits_Linear_8,3,5,80,127,2078341436
78,17,18,Jits_Linear_8,0,5,56,103,2079001928
78,17,18,Jits_Linear_8,1,1,48,61,2079038080
78,17,18,Jits_Linear_8,2,5,63,98,2079102396
78,17,18,Jits_Linear_8,3,5,80,127,2079131908
78,17,18,Jits_Linear_8,0,5,63,98,2079811892
78,17,18,Jits_Linear_8,1,5,56,103,2079822384
78,17,18,Jits_Linear_8,2,1,48,61,2079866628
78,17,18,Jits_Linear_8,3,5,80,127,2079912284
78,17,18,Jits_Linear_8,0,5,63,98,2080611724
78,17,18,Jits_Linear_8,1,1,48,60,2080655148
78,17,18,Jits_Linear_8,2,5,56,103,2080691588
78,17,18,Jits_Linear_8,3,5,80,127,2080694800
78,17,18,Jits_Linear_8,0,5,80,127,2081351912
78,17,18,Jits_Linear_8,1,5,63,98,2081371548
78,17,18,Jits_Linear_8,2,5,56,103,2081431936
78,17,18,Jits_Linear_8,3,1,48,61,2081476880
78,17,18,Jits_Linear_8,0,5,56,103,2082172352
78,17,18,Jits_Linear_8,1,5,63,98,2082191692
78,17,18,Jits_Linear_8,2,5,80,127,2082194980
78,17,18,Jits_Linear_8,3,1,48,56,2082215556
78,17,18,Jits_Linear_8,0,5,63,98,2082892392
78,17,18,Jits_Linear_8,1,5,80,127,2082971968
78,17,18,Jits_Linear_8,2,1,48,59,2082977932
78,17,18,Jits_Linear_8,3,5,56,103,2082982532
78,17,18,Jits_Linear_8,0,5,63,98,2083691924
78,17,18,Jits_Linear_8,1,5,56,103,2083712460
78,17,18,Jits_Linear_8,2,1,48,52,2083749208
78,17,18,Jits_Linear_8,3,5,80,127,2083761384
78,17,18,Jits_Linear_8,0,5,80,127,2084472196
78,17,18,Jits_Linear_8,1,1,48,60,2084509172
78,17,18,Jits_Linear_8,2,5,63,98,2084512280
78,17,18,Jits_Linear_8,3,5,56,103,2084531468
78,17,18,Jits_Linear_8,0,1,48,52,2085277320
78,17,18,Jits_Linear_8,1,5,56,103,2085282596
78,17,18,Jits_Linear_8,2,5,63,98,2085292496
78,17,18,Jits_Linear_8,3,5,80,127,2085311708
78,17,18,Jits_Linear_8,0,5,56,103,2085981516
78,17,18,Jits_Linear_8,1,1,48,58,2086029448
78,17,18,Jits_Linear_8,2,5,63,98,2086071644
78,17,18,Jits_Linear_8,3,5,80,127,2086132192
78,17,18,Jits_Linear_8,0,5,80,127,2086782332
78,17,18,Jits_Linear_8,1,5,56,103,2086791556
78,17,18,Jits_Linear_8,2,1,48,60,2086797520
78,17,18,Jits_Linear_8,3,5,63,98,2086862152
78,17,18,Jits_Linear_8,0,5,63,98,2087582328
78,17,18,Jits_Linear_8,1,1,48,60,2087596532
78,17,18,Jits_Linear_8,2,5,80,127,2087672184
78,17,18,Jits_Linear_8,3,5,56,103,2087682304
78,17,18,Jits_Linear_8,0,5,63,98,2088281396
78,17,18,Jits_Linear_8,1,5,80,127,2088331824
78,17,18,Jits_Linear_8,2,5,56,103,2088392240
78,17,18,Jits_Linear_8,3,1,48,55,2088418124
78,17,18,Jits_Linear_8,0,5,56,103,2089071936
78,17,18,Jits_Linear_8,1,5,80,127,2089122288
78,17,18,Jits_Linear_8,2,5,63,98,2089141476
78,17,18,Jits_Linear_8,3,1,48,56,2089146716
78,17,18,Jits_Linear_8,0,5,56,103,2089802320
78,17,18,Jits_Linear_8,1,5,80,127,2089861596
78,17,18,Jits_Linear_8,2,1,48,55,2089899188
78,17,18,Jits_Linear_8,3,5,63,98,2089932192
78,17,18,Jits_Linear_8,0,5,56,103,2090561784
78,17,18,Jits_Linear_8,1,5,80,127,2090591684
78,17,18,Jits_Linear_8,2,5,63,98,2090622256
78,17,18,Jits_Linear_8,3,1,48,55,2090661116
78,17,18,Jits_Linear_8,0,5,56,103,2091361696
78,17,18,Jits_Linear_8,1,5,80,127,2091382228
78,17,18,Jits_Linear_8,2,1,48,54,2091403632
78,17,18,Jits_Linear_8,3,5,63,98,2091441492
78,17,18,Jits_Linear_8,0,1,48,45,2092171176
78,17,18,Jits_Linear_8,1,5,80,127,2092202220
78,17,18,Jits_Linear_8,2,5,56,103,2092211520
78,17,18,Jits_Linear_8,3,5,63,98,2092221888
78,17,18,Jits_Linear_8,0,5,56,103,2092912232
78,17,18,Jits_Linear_8,1,1,48,55,2092936408
78,17,18,Jits_Linear_8,2,5,80,127,2092951868
78,17,18,Jits_Linear_8,3,5,63,98,2092981544
78,17,18,Jits_Linear_8,0,5,56,103,2093631848
78,17,18,Jits_Linear_8,1,5,63,98,2093661524
78,17,18,Jits_Linear_8,2,5,80,127,2093701464
78,17,18,Jits_Linear_8,3,1,48,58,2093711028
78,17,18,Jits_Linear_8,0,5,80,127,2094332420
78,17,18,Jits_Linear_8,1,5,63,98,2094381504
78,17,18,Jits_Linear_8,2,5,56,103,2094402184
78,17,18,Jits_Linear_8,3,1,48,54,2094434748
78,17,18,Jits_Linear_8,0,5,56,103,2095111512
78,17,18,Jits_Linear_8,1,1,48,51,2095146172
78,17,18,Jits_Linear_8,2,5,80,127,2095182240
78,17,18,Jits_Linear_8,3,5,63,98,2095241580
78,17,18,Jits_Linear_8,0,5,80,127,2095852172
78,17,18,Jits_Linear_8,1,1,48,58,2095895000
78,17,18,Jits_Linear_8,2,5,63,98,2095942076
78,17,18,Jits_Linear_8,3,5,56,103,2095961340
78,17,18,Jits_Linear_8,0,5,63,98,2096611568
78,17,18,Jits_Linear_8,1,5,56,103,2096632252
78,17,18,Jits_Linear_8,2,5,80,127,2096672412
78,17,18,Jits_Linear_8,3,1,48,52,2096695232
78,17,18,Jits_Linear_8,0,5,80,127,2097312100
78,17,18,Jits_Linear_8,1,5,63,98,2097331512
78,17,18,Jits_Linear_8,2,5,56,103,2097411556
78,17,18,Jits_Linear_8,3,1,48,53,2097418492
78,17,18,Jits_Linear_8,0,5,63,98,2098051404
78,17,18,Jits_Linear_8,1,5,56,103,2098162236
78,17,18,Jits_Linear_8,2,1,48,57,2098165080
78,17,18,Jits_Linear_8,3,5,80,127,2098166492
78,17,18,Jits_Linear_8,0,5,63,98,2098812484
78,17,18,Jits_Linear_8,1,5,56,103,2098821484
78,17,18,Jits_Linear_8,2,5,80,127,2098824476
78,17,18,Jits_Linear_8,3,1,48,52,2098904708
78,17,18,Jits_Linear_8,0,5,56,103,2099532204
78,17,18,Jits_Linear_8,1,5,80,127,2099652112
78,17,18,Jits_Linear_8,2,1,48,52,2099674708
78,17,18,Jits_Linear_8,3,5,63,98,2099691968
78,17,18,Jits_Linear_8,0,5,56,103,2100281780
78,17,18,Jits_Linear_8,1,5,80,127,2100361580
78,17,18,Jits_Linear_8,2,1,48,48,2100374436
78,17,18,Jits_Linear_8,3,5,63,98,2100382032
78,17,18,Jits_Linear_8,0,5,56,103,2101011948
78,17,18,Jits_Linear_8,1,1,48,47,2101121620
78,17,18,Jits_Linear_8,2,5,63,98,2101123216
78,17,18,Jits_Linear_8,3,5,80,127,2101126344
78,17,18,Jits_Linear_8,0,5,56,103,2101771848
78,17,18,Jits_Linear_8,1,5,80,127,2101802420
78,17,18,Jits_Linear_8,2,5,63,98,2101821760
78,17,18,Jits_Linear_8,3,1,48,46,2101847124
78,17,18,Jits_Linear_8,0,5,63,98,2102482236
78,17,18,Jits_Linear_8,1,5,56,103,2102491536
78,17,18,Jits_Linear_8,2,5,80,127,2102501880
78,17,18,Jits_Linear_8,3,1,48,47,2102582236
78,17,18,Jits_Linear_8,0,5,80,127,2103192124
78,17,18,Jits_Linear_8,1,1,48,46,2103210688
78,17,18,Jits_Linear_8,2,5,56,103,2103242200
78,17,18,Jits_Linear_8,3,5,63,98,2103282060
78,17,18,Jits_Linear_8,0,5,80,127,2103932184
78,17,18,Jits_Linear_8,1,1,48,51,2103936276
78,17,18,Jits_Linear_8,2,5,63,98,2103951888
78,17,18,Jits_Linear_8,3,5,56,103,2104001892
78,17,18,Jits_Linear_8,0,5,80,127,2104662500
78,17,18,Jits_Linear_8,1,1,48,52,2104681956
78,17,18,Jits_Linear_8,2,5,56,103,2104692020
78,17,18,Jits_Linear_8,3,5,63,98,2104761800
78,17,18,Jits_Linear_8,0,5,56,103,2105432452
78,17,18,Jits_Linear_8,1,5,80,127,2105441528
78,17,18,Jits_Linear_8,2,1,48,52,2105442496
78,17,18,Jits_Linear_8,3,5,63,98,2105481536
78,17,18,Jits_Linear_8,0,5,56,103,2106062080
78,17,18,Jits_Linear_8,1,5,63,98,2106081792
78,17,18,Jits_Linear_8,2,5,80,127,2106152296
78,17,18,Jits_Linear_8,3,1,48,53,2106184036
78,17,18,Jits_Linear_8,0,1,48,49,2106788884
78,17,18,Jits_Linear_8,1,5,63,98,2106801652
78,17,18,Jits_Linear_8,2,5,80,127,2106862072
78,17,18,Jits_Linear_8,3,5,56,103,2106882516
78,17,18,Jits_Linear_8,0,5,80,127,2107502068
78,17,18,Jits_Linear_8,1,1,48,50,2107525716
78,17,18,Jits_Linear_8,2,5,56,103,2107531592
78,17,18,Jits_Linear_8,3,5,63,98,2107562312
78,17,18,Jits_Linear_8,0,5,56,103,2108211708
78,17,18,Jits_Linear_8,1,1,48,52,2108263532
78,17,18,Jits_Linear_8,2,5,63,98,2108271944
78,17,18,Jits_Linear_8,3,5,80,127,2108332484
78,17,18,Jits_Linear_8,0,5,80,127,2108941948
78,17,18,Jits_Linear_8,1,5,56,103,2108962036
78,17,18,Jits_Linear_8,2,1,48,57,2108996992
78,17,18,Jits_Linear_8,3,5,63,98,2109032008
78,17,18,Jits_Linear_8,0,5,80,127,2109652268
78,17,18,Jits_Linear_8,1,5,63,98,2109671904
78,17,18,Jits_Linear_8,2,5,56,103,2109701428
78,17,18,Jits_Linear_8,3,1,48,50,2109740364
78,17,18,Jits_Linear_8,0,5,80,127,2110341500
78,17,18,Jits_Linear_8,1,5,63,98,2110362032
78,17,18,Jits_Linear_8,2,5,56,103,2110422376
78,17,18,Jits_Linear_8,3,1,48,48,2110442580
78,17,18,Jits_Linear_8,0,5,80,127,2111041848
78,17,18,Jits_Linear_8,1,1,48,48,2111140428
78,17,18,Jits_Linear_8,2,5,56,103,2111142092
78,17,18,Jits_Linear_8,3,5,63,98,2111171868
78,17,18,Jits_Linear_8,0,5,63,98,2111731936
78,17,18,Jits_Linear_8,1,5,80,127,2111782216
78,17,18,Jits_Linear_8,2,5,56,103,2111801924
78,17,18,Jits_Linear_8,3,1,48,52,2111868116
78,17,18,Jits_Linear_8,0,5,80,127,2112472724
78,17,18,Jits_Linear_8,1,5,56,103,2112502176
78,17,18,Jits_Linear_8,2,5,63,98,2112505168
78,17,18,Jits_Linear_8,3,1,48,49,2112538852
78,17,18,Jits_Linear_8,0,5,63,98,2113201740
78,17,18,Jits_Linear_8,1,1,48,49,2113226680
78,17,18,Jits_Linear_8,2,5,56,103,2113241476
78,17,18,Jits_Linear_8,3,5,80,127,2113262084
78,17,18,Jits_Linear_8,0,5,80,127,2113841472
78,17,18,Jits_Linear_8,1,5,63,98,2113922316
78,17,18,Jits_Linear_8,2,5,56,103,2113962256
78,17,18,Jits_Linear_8,3,1,48,53,2113963220
78,17,18,Jits_Linear_8,0,5,63,98,2114552160
78,17,18,Jits_Linear_8,1,5,80,127,2114632180
78,17,18,Jits_Linear_8,2,5,56,103,2114651444
78,17,18,Jits_Linear_8,3,1,48,57,2114659352
78,17,18,Jits_Linear_8,0,5,56,103,2115282172
78,17,18,Jits_Linear_8,1,5,63,98,2115291620
78,17,18,Jits_Linear_8,2,5,80,127,2115331556
78,17,18,Jits_Linear_8,3,1,48,51,2115365612
78,17,18,Jits_Linear_8,0,5,56,103,2115891840
78,17,18,Jits_Linear_8,1,5,80,127,2115894832
78,17,18,Jits_Linear_8,2,5,63,98,2116031896
78,17,18,Jits_Linear_8,3,1,48,52,2116044600
78,17,18,Jits_Linear_8,0,5,56,103,2116571876
78,17,18,Jits_Linear_8,1,5,63,98,2116661716
78,17,18,Jits_Linear_8,2,1,48,50,2116695328
78,17,18,Jits_Linear_8,3,5,80,127,2116732140
78,17,18,Jits_Linear_8,0,1,48,53,2117322248
78,17,18,Jits_Linear_8,1,5,63,98,2117332312
78,17,18,Jits_Linear_8,2,5,80,127,2117335676
78,17,18,Jits_Linear_8,3,5,56,103,2117391952
78,17,18,Jits_Linear_8,0,1,48,61,2118028688
78,17,18,Jits_Linear_8,1,5,80,127,2118052100
78,17,18,Jits_Linear_8,2,5,56,103,2118071988
78,17,18,Jits_Linear_8,3,5,63,98,2118081960
78,17,18,Jits_Linear_8,0,5,56,103,2118642016
78,17,18,Jits_Linear_8,1,5,63,98,2118652140
78,17,18,Jits_Linear_8,2,5,80,127,2118722040
78,17,18,Jits_Linear_8,3,1,48,58,2118737968
78,17,18,Jits_Linear_8,0,5,80,127,2119322032
78,17,18,Jits_Linear_8,1,1,48,57,2119371588
78,17,18,Jits_Linear_8,2,5,56,103,2119372928
78,17,18,Jits_Linear_8,3,5,63,98,2119422380
78,17,18,Jits_Linear_8,0,1,48,57,2120064832
78,17,18,Jits_Linear_8,1,5,56,103,2120081868
78,17,18,Jits_Linear_8,2,5,63,98,2120092140
78,17,18,Jits_Linear_8,3,5,80,127,2120131804
78,17,18,Jits_Linear_8,0,5,56,103,2120702200
78,17,18,Jits_Linear_8,1,1,48,58,2120740772
78,17,18,Jits_Linear_8,2,5,63,98,2120742208
78,17,18,Jits_Linear_8,3,5,80,127,2120792412
78,17,18,Jits_Linear_8,0,5,80,127,2121332028
78,17,18,Jits_Linear_8,1,5,56,103,2121382380
78,17,18,Jits_Linear_8,2,5,63,98,2121401820
78,17,18,Jits_Linear_8,3,1,48,57,2121406428
78,17,18,Jits_Linear_8,0,5,80,127,2122011996
78,17,18,Jits_Linear_8,1,5,63,98,2122072392
78,17,18,Jits_Linear_8,2,1,48,55,2122099176
78,17,18,Jits_Linear_8,3,5,56,103,2122152252
78,17,18,Jits_Linear_8,0,5,80,127,2122662200
78,17,18,Jits_Linear_8,1,5,56,103,2122702168
78,17,18,Jits_Linear_8,2,5,63,98,2122721728
78,17,18,Jits_Linear_8,3,1,48,56,2122804028
78,17,18,Jits_Linear_8,0,1,48,57,2123369320
78,17,18,Jits_Linear_8,1,5,56,103,2123382096
78,17,18,Jits_Linear_8,2,5,80,127,2123392368
78,17,18,Jits_Linear_8,3,5,63,98,2123432156
78,17,18,Jits_Linear_8,0,1,48,61,2124031388
78,17,18,Jits_Linear_8,1,5,56,103,2124112180
78,17,18,Jits_Linear_8,2,5,63,98,2124152176
78,17,18,Jits_Linear_8,3,5,80,127,2124155540
78,17,18,Jits_Linear_8,0,5,63,98,2124662200
78,17,18,Jits_Linear_8,1,5,80,127,2124701992
78,17,18,Jits_Linear_8,2,5,56,103,2124771696
78,17,18,Jits_Linear_8,3,1,48,54,2124778928
78,17,18,Jits_Linear_8,0,5,63,98,2125312484
78,17,18,Jits_Linear_8,1,5,56,103,2125392208
78,17,18,Jits_Linear_8,2,1,48,55,2125426564
78,17,18,Jits_Linear_8,3,5,80,127,2125451620
78,17,18,Jits_Linear_8,0,5,80,127,2125982152
78,17,18,Jits_Linear_8,1,5,63,98,2126032232
78,17,18,Jits_Linear_8,2,1,48,57,2126049448
78,17,18,Jits_Linear_8,3,5,56,103,2126061900
78,17,18,Jits_Linear_8,0,5,56,103,2126632304
78,17,18,Jits_Linear_8,1,5,63,98,2126681536
78,17,18,Jits_Linear_8,2,5,80,127,2126691804
78,17,18,Jits_Linear_8,3,1,48,55,2126702568
78,17,18,Jits_Linear_8,0,5,56,103,2127301936
78,17,18,Jits_Linear_8,1,1,48,56,2127353232
78,17,18,Jits_Linear_8,2,5,63,98,2127411620
78,17,18,Jits_Linear_8,3,5,80,127,2127432004
78,17,18,Jits_Linear_8,0,5,63,98,2127952440
78,17,18,Jits_Linear_8,1,5,80,127,2128002496
78,17,18,Jits_Linear_8,2,1,48,52,2128032140
78,17,18,Jits_Linear_8,3,5,56,103,2128091748
78,17,18,Jits_Linear_8,0,5,63,98,2128592092
78,17,18,Jits_Linear_8,1,5,80,127,2128621992
78,17,18,Jits_Linear_8,2,5,56,103,2128711976
78,17,18,Jits_Linear_8,3,1,48,56,2128721688
78,17,18,Jits_Linear_8,0,5,63,98,2129241528
78,17,18,Jits_Linear_8,1,5,56,103,2129251576
78,17,18,Jits_Linear_8,2,1,48,52,2129336452
78,17,18,Jits_Linear_8,3,5,80,127,2129351988
78,17,18,Jits_Linear_8,0,1,48,57,2129887504
78,17,18,Jits_Linear_8,1,5,63,98,2129992116
78,17,18,Jits_Linear_8,2,5,80,127,2130021796
78,17,18,Jits_Linear_8,3,5,56,103,2130051544
78,17,18,Jits_Linear_8,0,1,48,58,2130599440
78,17,18,Jits_Linear_8,1,5,80,127,2130651724
78,17,18,Jits_Linear_8,2,5,63,98,2130661700
78,17,18,Jits_Linear_8,3,5,56,103,2130691524
78,17,18,Jits_Linear_8,0,5,80,127,2131192092
78,17,18,Jits_Linear_8,1,5,63,98,2131211656
78,17,18,Jits_Linear_8,2,5,56,103,2131261784
78,17,18,Jits_Linear_8,3,1,48,55,2131339748
78,17,18,Jits_Linear_8,0,5,63,98,2131861848
78,17,18,Jits_Linear_8,1,5,80,127,2131922488
78,17,18,Jits_Linear_8,2,5,56,103,2131941604
78,17,18,Jits_Linear_8,3,1,48,59,2131946964
78,17,18,Jits_Linear_8,0,5,63,98,2132462016
78,17,18,Jits_Linear_8,1,5,56,103,2132512220
78,17,18,Jits_Linear_8,2,5,80,127,2132522564
78,17,18,Jits_Linear_8,3,1,48,58,2132584644
78,17,18,Jits_Linear_8,0,5,56,103,2133131684
78,17,18,Jits_Linear_8,1,5,80,127,2133141808
78,17,18,Jits_Linear_8,2,1,48,56,2133184656
78,17,18,Jits_Linear_8,3,5,63,98,2133242516
78,17,18,Jits_Linear_8,0,5,80,127,2133731716
78,17,18,Jits_Linear_8,1,5,63,98,2133742136
78,17,18,Jits_Linear_8,2,1,48,51,2133825040
78,17,18,Jits_Linear_8,3,5,56,103,2133891372
78,17,18,Jits_Linear_8,0,5,63,98,2134371656
78,17,18,Jits_Linear_8,1,5,80,127,2134411520
78,17,18,Jits_Linear_8,2,1,48,53,2134479912
78,17,18,Jits_Linear_8,3,5,56,103,2134491408
78,17,18,Jits_Linear_8,0,5,56,103,2134992644
78,17,18,Jits_Linear_8,1,1,48,57,2135062604
78,17,18,Jits_Linear_8,2,5,80,127,2135091544
78,17,18,Jits_Linear_8,3,5,63,98,2135112004
78,17,18,Jits_Linear_8,0,1,48,54,2135625812
78,17,18,Jits_Linear_8,1,5,80,127,2135682556
78,17,18,Jits_Linear_8,2,5,56,103,2135691632
78,17,18,Jits_Linear_8,3,5,63,98,2135781700
78,17,18,Jits_Linear_8,0,5,56,103,2136312104
78,17,18,Jits_Linear_8,1,5,63,98,2136331668
78,17,18,Jits_Linear_8,2,1,48,56,2136339048
78,17,18,Jits_Linear_8,3,5,80,127,2136411456
78,17,18,Jits_Linear_8,0,5,63,98,2136881476
78,17,18,Jits_Linear_8,1,5,56,103,2136971608
78,17,18,Jits_Linear_8,2,5,80,127,2136974600
78,17,18,Jits_Linear_8,3,1,48,58,2137008360
78,17,18,Jits_Linear_8,0,5,56,103,2137531828
78,17,18,Jits_Linear_8,1,5,80,127,2137592296
78,17,18,Jits_Linear_8,2,5,63,98,2137602492
78,17,18,Jits_Linear_8,3,1,48,54,2137623292
78,17,18,Jits_Linear_8,0,5,80,127,2138201444
78,17,18,Jits_Linear_8,1,1,48,54,2138206432
78,17,18,Jits_Linear_8,2,5,56,103,2138211632
78,17,18,Jits_Linear_8,3,5,63,98,2138214772
78,17,18,Jits_Linear_8,0,5,56,103,2138782188
78,17,18,Jits_Linear_8,1,5,80,127,2138792232
78,17,18,Jits_Linear_8,2,5,63,98,2138811820
78,17,18,Jits_Linear_8,3,1,48,59,2138840568
78,17,18,Jits_Linear_8,0,5,63,98,2139371880
78,17,18,Jits_Linear_8,1,5,80,127,2139432492
78,17,18,Jits_Linear_8,2,1,48,59,2139456888
78,17,18,Jits_Linear_8,3,5,56,103,2139481644
78,17,18,Jits_Linear_8,0,5,63,98,2140072492
78,17,18,Jits_Linear_8,1,5,56,103,2140081644
78,17,18,Jits_Linear_8,2,1,48,59,2140116104
78,17,18,Jits_Linear_8,3,5,80,127,2140131640
78,17,18,Jits_Linear_8,0,5,63,98,2140582212
78,17,18,Jits_Linear_8,1,5,80,127,2140601652
78,17,18,Jits_Linear_8,2,5,56,103,2140611848
78,17,18,Jits_Linear_8,3,1,48,52,2140726656
78,17,18,Jits_Linear_8,0,5,63,98,2141191432
78,17,18,Jits_Linear_8,1,5,80,127,2141195100
78,17,18,Jits_Linear_8,2,5,56,103,2141231452
78,17,18,Jits_Linear_8,3,1,48,57,2141297792
78,17,18,Jits_Linear_8,0,5,63,98,2141871508
78,17,18,Jits_Linear_8,1,1,48,57,2141884840
78,17,18,Jits_Linear_8,2,5,80,127,2141902324
78,17,18,Jits_Linear_8,3,5,56,103,2141912372
78,17,18,Jits_Linear_8,0,5,56,103,2142431596
78,17,18,Jits_Linear_8,1,5,80,127,2142462316
78,17,18,Jits_Linear_8,2,5,63,98,2142491996
78,17,18,Jits_Linear_8,3,1,48,53,2142559476
78,17,18,Jits_Linear_8,0,5,63,98,2143132000
78,17,18,Jits_Linear_8,1,5,56,103,2143171892
78,17,18,Jits_Linear_8,2,5,80,127,2143174884
78,17,18,Jits_Linear_8,3,1,48,57,2143189164
78,17,18,Jits_Linear_8,0,5,80,127,2143631676
78,17,18,Jits_Linear_8,1,5,56,103,2143711648
78,17,18,Jits_Linear_8,2,5,63,98,2143761700
78,17,18,Jits_Linear_8,3,1,48,56,2143814184
78,17,18,Jits_Linear_8,0,5,80,127,2144212380
78,17,18,Jits_Linear_8,1,5,56,103,2144231716
78,17,18,Jits_Linear_8,2,5,63,98,2144321776
78,17,18,Jits_Linear_8,3,1,48,55,2144437108
78,17,18,Jits_Linear_8,0,5,80,127,2144852392
78,17,18,Jits_Linear_8,1,5,63,98,2144892404
78,17,18,Jits_Linear_8,2,5,56,103,2144932196
78,17,18,Jits_Linear_8,3,1,48,54,2145084264
78,17,18,Jits_Linear_8,0,5,63,98,2145421532
78,17,18,Jits_Linear_8,1,5,80,127,2145482176
78,17,18,Jits_Linear_8,2,5,56,103,2145511776
78,17,18,Jits_Linear_8,3,1,48,49,2145577072
78,17,18,Jits_Linear_8,0,5,56,103,2146021700
78,17,18,Jits_Linear_8,1,5,80,127,2146051524
78,17,18,Jits_Linear_8,2,1,48,47,2146085580
78,17,18,Jits_Linear_8,3,5,63,98,2146141576
78,17,18,Jits_Linear_8,0,5,56,103,2146621780
78,17,18,Jits_Linear_8,1,1,48,53,2146658008
78,17,18,Jits_Linear_8,2,5,80,127,2146732364
78,17,18,Jits_Linear_8,3,5,63,98,2146762272
78,17,18,Jits_Linear_8,0,5,56,103,2147261684
78,17,18,Jits_Linear_8,1,5,63,98,2147322296
78,17,18,Jits_Linear_8,2,1,48,51,2147351824
78,17,18,Jits_Linear_8,3,5,80,127,2147353384
78,17,18,Jits_Linear_8,0,5,56,103,2147822208
78,17,18,Jits_Linear_8,1,5,63,98,2147891668
78,17,18,Jits_Linear_8,2,5,80,127,2147912052
78,17,18,Jits_Linear_8,3,1,48,57,2147967756
78,17,18,Jits_Linear_8,0,5,80,127,2148382360
78,17,18,Jits_Linear_8,1,5,63,98,2148401404
78,17,18,Jits_Linear_8,2,5,56,103,2148451752
78,17,18,Jits_Linear_8,3,1,48,50,2148501996
78,17,18,Jits_Linear_8,0,5,63,98,2148982144
78,17,18,Jits_Linear_8,1,1,48,47,2148990148
78,17,18,Jits_Linear_8,2,5,80,127,2148992260
78,17,18,Jits_Linear_8,3,5,56,103,2149041488
78,17,18,Jits_Linear_8,0,5,63,98,2149561708
78,17,18,Jits_Linear_8,1,1,48,52,2149571428
78,17,18,Jits_Linear_8,2,5,80,127,2149632284
78,17,18,Jits_Linear_8,3,5,56,103,2149651920
78,17,18,Jits_Linear_8,0,5,63,98,2150172120
78,17,18,Jits_Linear_8,1,5,80,127,2150175336
78,17,18,Jits_Linear_8,2,1,48,55,2150209168
78,17,18,Jits_Linear_8,3,5,56,103,2150241572
78,17,18,Jits_Linear_8,0,5,80,127,2150701460
78,17,18,Jits_Linear_8,1,5,56,103,2150721844
78,17,18,Jits_Linear_8,2,5,63,98,2150732040
78,17,18,Jits_Linear_8,3,1,48,52,2150798532
78,17,18,Jits_Linear_8,0,1,48,50,2151275424
78,17,18,Jits_Linear_8,1,5,56,103,2151301456
78,17,18,Jits_Linear_8,2,5,63,98,2151391600
78,17,18,Jits_Linear_8,3,5,80,127,2151395112
78,17,18,Jits_Linear_8,0,5,80,127,2151852372
78,17,18,Jits_Linear_8,1,5,56,103,2151861916
78,17,18,Jits_Linear_8,2,5,63,98,2151882152
78,17,18,Jits_Linear_8,3,1,48,53,2151900564
78,17,18,Jits_Linear_8,0,5,63,98,2152421904
78,17,18,Jits_Linear_8,1,5,80,127,2152482152
78,17,18,Jits_Linear_8,2,5,56,103,2152492272
78,17,18,Jits_Linear_8,3,1,48,51,2152504384
78,17,18,Jits_Linear_8,0,5,63,98,2153061832
78,17,18,Jits_Linear_8,1,1,48,55,2153066528
78,17,18,Jits_Linear_8,2,5,80,127,2153091428
78,17,18,Jits_Linear_8,3,5,56,103,2153132340
78,17,18,Jits_Linear_8,0,5,56,103,2153621824
78,17,18,Jits_Linear_8,1,5,80,127,2153632244
78,17,18,Jits_Linear_8,2,5,63,98,2153672136
78,17,18,Jits_Linear_8,3,1,48,53,2153676976
78,17,18,Jits_Linear_8,0,5,80,127,2154152304
78,17,18,Jits_Linear_8,1,5,56,103,2154232128
78,17,18,Jits_Linear_8,2,5,63,98,2154242400
78,17,18,Jits_Linear_8,3,1,48,56,2154257124
78,17,18,Jits_Linear_8,0,5,80,127,2154761484
78,17,18,Jits_Linear_8,1,1,48,48,2154813004
78,17,18,Jits_Linear_8,2,5,56,103,2154841352
78,17,18,Jits_Linear_8,3,5,63,98,2154851624
78,17,18,Jits_Linear_8,0,5,80,127,2155281860
78,17,18,Jits_Linear_8,1,5,56,103,2155332284
78,17,18,Jits_Linear_8,2,5,63,98,2155382192
78,17,18,Jits_Linear_8,3,1,48,55,2155387108
78,17,18,Jits_Linear_8,0,1,48,54,2155898016
78,17,18,Jits_Linear_8,1,5,56,103,2155902392
78,17,18,Jits_Linear_8,2,5,63,98,2155905460
78,17,18,Jits_Linear_8,3,5,80,127,2155951620
78,17,18,Jits_Linear_8,0,1,48,58,2156459048
78,17,18,Jits_Linear_8,1,5,56,103,2156481884
78,17,18,Jits_Linear_8,2,5,63,98,2156511784
78,17,18,Jits_Linear_8,3,5,80,127,2156522132
78,17,18,Jits_Linear_8,0,5,63,98,2156952028
78,17,18,Jits_Linear_8,1,5,56,103,2157021588
78,17,18,Jits_Linear_8,2,1,48,54,2157046880
78,17,18,Jits_Linear_8,3,5,80,127,2157071636
78,17,18,Jits_Linear_8,0,5,63,98,2157541712
78,17,18,Jits_Linear_8,1,5,56,103,2157552204
78,17,18,Jits_Linear_8,2,5,80,127,2157555272
78,17,18,Jits_Linear_8,3,1,48,57,2157609332
78,17,18,Jits_Linear_8,0,5,80,127,2158041380
78,17,18,Jits_Linear_8,1,5,56,103,2158102292
78,17,18,Jits_Linear_8,2,1,48,53,2158107956
78,17,18,Jits_Linear_8,3,5,63,98,2158191972
78,17,18,Jits_Linear_8,0,5,80,127,2158592464
78,17,18,Jits_Linear_8,1,1,48,59,2158664436
78,17,18,Jits_Linear_8,2,5,56,103,2158691588
78,17,18,Jits_Linear_8,3,5,63,98,2158731600
78,17,18,Jits_Linear_8,0,5,56,103,2159192552
78,17,18,Jits_Linear_8,1,5,63,98,2159212116
78,17,18,Jits_Linear_8,2,1,48,57,2159229016
78,17,18,Jits_Linear_8,3,5,80,127,2159251972
78,17,18,Jits_Linear_8,0,5,63,98,2159711500
78,17,18,Jits_Linear_8,1,5,56,103,2159732184
78,17,18,Jits_Linear_8,2,1,48,57,2159778828
78,17,18,Jits_Linear_8,3,5,80,127,2159832300
78,17,18,Jits_Linear_8,0,5,63,98,2160241972
78,17,18,Jits_Linear_8,1,1,48,61,2160322064
78,17,18,Jits_Linear_8,2,5,80,127,2160351604
78,17,18,Jits_Linear_8,3,5,56,103,2160382252
78,17,18,Jits_Linear_8,0,5,56,103,2160802260
78,17,18,Jits_Linear_8,1,5,63,98,2160832036
78,17,18,Jits_Linear_8,2,5,80,127,2160882088
78,17,18,Jits_Linear_8,3,1,48,59,2160888420
78,17,18,Jits_Linear_8,0,5,63,98,2161311988
78,17,18,Jits_Linear_8,1,5,56,103,2161342060
78,17,18,Jits_Linear_8,2,5,80,127,2161392112
78,17,18,Jits_Linear_8,3,1,48,59,2161399964
78,17,18,Jits_Linear_8,0,1,48,56,2161872784
78,17,18,Jits_Linear_8,1,5,56,103,2161881504
78,17,18,Jits_Linear_8,2,5,63,98,2161902040
78,17,18,Jits_Linear_8,3,5,80,127,2161982116
78,17,18,Jits_Linear_8,0,5,63,98,2162392424
78,17,18,Jits_Linear_8,1,1,48,60,2162419208
78,17,18,Jits_Linear_8,2,5,56,103,2162451984
78,17,18,Jits_Linear_8,3,5,80,127,2162481512
78,17,18,Jits_Linear_8,0,1,48,64,2162959408
78,17,18,Jits_Linear_8,1,5,56,103,2162972108
78,17,18,Jits_Linear_8,2,5,80,127,2163032648
78,17,18,Jits_Linear_8,3,5,63,98,2163072276
78,17,18,Jits_Linear_8,0,5,63,98,2163482208
78,17,18,Jits_Linear_8,1,5,56,103,2163542304
78,17,18,Jits_Linear_8,2,1,48,62,2163547444
78,17,18,Jits_Linear_8,3,5,80,127,2163612052
78,17,18,Jits_Linear_8,0,5,56,103,2164092324
78,17,18,Jits_Linear_8,1,5,63,98,2164101548
78,17,18,Jits_Linear_8,2,5,80,127,2164105132
78,17,18,Jits_Linear_8,3,1,48,56,2164109300
78,17,18,Jits_Linear_8,0,5,63,98,2164562264
78,17,18,Jits_Linear_8,1,5,56,103,2164621608
78,17,18,Jits_Linear_8,2,5,80,127,2164624820
78,17,18,Jits_Linear_8,3,1,48,56,2164632148
78,17,18,Jits_Linear_8,0,5,63,98,2165072272
78,17,18,Jits_Linear_8,1,1,48,50,2165094720
78,17,18,Jits_Linear_8,2,5,80,127,2165102088
78,17,18,Jits_Linear_8,3,5,56,103,2165122476
78,17,18,Jits_Linear_8,0,1,48,56,2165587044
78,17,18,Jits_Linear_8,1,5,56,103,2165601608
78,17,18,Jits_Linear_8,2,5,63,98,2165651960
78,17,18,Jits_Linear_8,3,5,80,127,2165731988
78,17,18,Jits_Linear_8,0,5,80,127,2166102416
78,17,18,Jits_Linear_8,1,1,48,56,2166110416
78,17,18,Jits_Linear_8,2,5,63,98,2166142276
78,17,18,Jits_Linear_8,3,5,56,103,2166161984
78,17,18,Jits_Linear_8,0,1,48,54,2166668144
78,17,18,Jits_Linear_8,1,5,56,103,2166692304
78,17,18,Jits_Linear_8,2,5,80,127,2166701528
78,17,18,Jits_Linear_8,3,5,63,98,2166721864
78,17,18,Jits_Linear_8,0,5,56,103,2167191840
78,17,18,Jits_Linear_8,1,1,48,59,2167214588
78,17,18,Jits_Linear_8,2,5,63,98,2167242136
78,17,18,Jits_Linear_8,3,5,80,127,2167271812
78,17,18,Jits_Linear_8,0,5,56,103,2167661936
78,17,18,Jits_Linear_8,1,5,63,98,2167672060
78,17,18,Jits_Linear_8,2,1,48,52,2167716528
78,17,18,Jits_Linear_8,3,5,80,127,2167722400
78,17,18,Jits_Linear_8,0,5,56,103,2168171960
78,17,18,Jits_Linear_8,1,5,80,127,2168175100
78,17,18,Jits_Linear_8,2,1,48,55,2168205572
78,17,18,Jits_Linear_8,3,5,63,98,2168331768
78,17,18,Jits_Linear_8,0,1,48,59,2168697820
78,17,18,Jits_Linear_8,1,5,63,98,2168702352
78,17,18,Jits_Linear_8,2,5,56,103,2168771916
78,17,18,Jits_Linear_8,3,5,80,127,2168811988
78,17,18,Jits_Linear_8,0,5,63,98,2169252160
78,17,18,Jits_Linear_8,1,1,48,56,2169291644
78,17,18,Jits_Linear_8,2,5,56,103,2169342312
78,17,18,Jits_Linear_8,3,5,80,127,2169345380
78,17,18,Jits_Linear_8,0,5,56,103,2169741940
78,17,18,Jits_Linear_8,1,1,48,58,2169798796
78,17,18,Jits_Linear_8,2,5,63,98,2169831872
78,17,18,Jits_Linear_8,3,5,80,127,2169841992
78,17,18,Jits_Linear_8,0,5,56,103,2170221852
78,17,18,Jits_Linear_8,1,5,63,98,2170272056
78,17,18,Jits_Linear_8,2,5,80,127,2170301980
78,17,18,Jits_Linear_8,3,1,48,53,2170314988
78,17,18,Jits_Linear_8,0,5,63,98,2170801408
78,17,18,Jits_Linear_8,1,1,48,56,2170806048
78,17,18,Jits_Linear_8,2,5,80,127,2170811996
78,17,18,Jits_Linear_8,3,5,56,103,2170872160
78,17,18,Jits_Linear_8,0,5,63,98,2171222572
78,17,18,Jits_Linear_8,1,5,80,127,2171281696
78,17,18,Jits_Linear_8,2,5,56,103,2171321808
78,17,18,Jits_Linear_8,3,1,48,60,2171349932
78,17,18,Jits_Linear_8,0,1,48,57,2171800744
78,17,18,Jits_Linear_8,1,5,56,103,2171821444
78,17,18,Jits_Linear_8,2,5,80,127,2171841780
78,17,18,Jits_Linear_8,3,5,63,98,2171862536
78,17,18,Jits_Linear_8,0,5,63,98,2172242316
78,17,18,Jits_Linear_8,1,5,56,103,2172261728
78,17,18,Jits_Linear_8,2,5,80,127,2172301888
78,17,18,Jits_Linear_8,3,1,48,59,2172348852
78,17,18,Jits_Linear_8,0,5,63,98,2172752180
78,17,18,Jits_Linear_8,1,5,80,127,2172781856
78,17,18,Jits_Linear_8,2,5,56,103,2172802540
78,17,18,Jits_Linear_8,3,1,48,53,2172844836
78,17,18,Jits_Linear_8,0,5,80,127,2173222184
78,17,18,Jits_Linear_8,1,5,56,103,2173272316
78,17,18,Jits_Linear_8,2,5,63,98,2173331732
78,17,18,Jits_Linear_8,3,1,48,59,2173341824
78,17,18,Jits_Linear_8,0,5,63,98,2173701348
78,17,18,Jits_Linear_8,1,5,56,103,2173822276
78,17,18,Jits_Linear_8,2,1,48,56,2173823240
78,17,18,Jits_Linear_8,3,5,80,127,2173851872
78,17,18,Jits_Linear_8,0,5,80,127,2174231972
78,17,18,Jits_Linear_8,1,5,63,98,2174252356
78,17,18,Jits_Linear_8,2,5,56,103,2174322112
78,17,18,Jits_Linear_8,3,1,48,56,2174352952
78,17,18,Jits_Linear_8,0,5,63,98,2174741932
78,17,18,Jits_Linear_8,1,5,56,103,2174752128
78,17,18,Jits_Linear_8,2,5,80,127,2174831924
78,17,18,Jits_Linear_8,3,1,48,54,2174850852
78,17,18,Jits_Linear_8,0,5,56,103,2175291740
78,17,18,Jits_Linear_8,1,5,80,127,2175321564
78,17,18,Jits_Linear_8,2,5,63,98,2175331684
78,17,18,Jits_Linear_8,3,1,48,53,2175344464
78,17,18,Jits_Linear_8,0,9999,9999,9999,2064949356
78,17,18,Jits_Linear_8,1,9999,9999,9999,2065769592
78,17,18,Jits_Linear_8,2,9999,9999,9999,2066589772
78,17,18,Jits_Linear_8,3,9999,9999,9999,2067409976
78,17,18,Jits_Linear_8,4,9999,9999,9999,2068229232
78,17,18,Jits_Linear_8,5,9999,9999,9999,2069039176
78,17,18,Jits_Linear_8,6,9999,9999,9999,2069849192
78,17,18,Jits_Linear_8,7,9999,9999,9999,2070659136
78,17,18,Jits_Linear_8,8,9999,9999,9999,2071469160
78,17,18,Jits_Linear_8,9,9999,9999,9999,2072279116
78,17,18,Jits_Linear_8,10,9999,9999,9999,2073079936
78,17,18,Jits_Linear_8,11,9999,9999,9999,2073879616
78,17,18,Jits_Linear_8,12,9999,9999,9999,2074679388
78,17,18,Jits_Linear_8,13,9999,9999,9999,2075479152
78,17,18,Jits_Linear_8,14,9999,9999,9999,2076279864
78,17,18,Jits_Linear_8,15,9999,9999,9999,2077069440
78,17,18,Jits_Linear_8,16,9999,9999,9999,2077859960
78,17,18,Jits_Linear_8,17,9999,9999,9999,2078649424
78,17,18,Jits_Linear_8,18,9999,9999,9999,2079439968
78,17,18,Jits_Linear_8,19,9999,9999,9999,2080229476
78,17,18,Jits_Linear_8,20,9999,9999,9999,2081009748
78,17,18,Jits_Linear_8,21,9999,9999,9999,2081790020
78,17,18,Jits_Linear_8,22,9999,9999,9999,2082569328
78,17,18,Jits_Linear_8,23,9999,9999,9999,2083349612
78,17,18,Jits_Linear_8,24,9999,9999,9999,2084129884
78,17,18,Jits_Linear_8,25,9999,9999,9999,2084899968
78,17,18,Jits_Linear_8,26,9999,9999,9999,2085669996
78,17,18,Jits_Linear_8,27,9999,9999,9999,2086440004
78,17,18,Jits_Linear_8,28,9999,9999,9999,2087210104
78,17,18,Jits_Linear_8,29,9999,9999,9999,2087979092
78,17,18,Jits_Linear_8,30,9999,9999,9999,2088739960
78,17,18,Jits_Linear_8,31,9999,9999,9999,2089499708
78,17,18,Jits_Linear_8,32,9999,9999,9999,2090259540
78,17,18,Jits_Linear_8,33,9999,9999,9999,2091019368
78,17,18,Jits_Linear_8,34,9999,9999,9999,2091779132
78,17,18,Jits_Linear_8,35,9999,9999,9999,2092529760
78,17,18,Jits_Linear_8,36,9999,9999,9999,2093279328
78,17,18,Jits_Linear_8,37,9999,9999,9999,2094029880
78,17,18,Jits_Linear_8,38,9999,9999,9999,2094779448
78,17,18,Jits_Linear_8,39,9999,9999,9999,2095530048
78,17,18,Jits_Linear_8,40,9999,9999,9999,2096269436
78,17,18,Jits_Linear_8,41,9999,9999,9999,2097009724
78,17,18,Jits_Linear_8,42,9999,9999,9999,2097750136
78,17,18,Jits_Linear_8,43,9999,9999,9999,2098499696
78,17,18,Jits_Linear_8,44,9999,9999,9999,2099240020
78,17,18,Jits_Linear_8,45,9999,9999,9999,2099969128
78,17,18,Jits_Linear_8,46,9999,9999,9999,2100699220
78,17,18,Jits_Linear_8,47,9999,9999,9999,2101429352
78,17,18,Jits_Linear_8,48,9999,9999,9999,2102159440
78,17,18,Jits_Linear_8,49,9999,9999,9999,2102889600
78,17,18,Jits_Linear_8,50,9999,9999,9999,2103609412
78,17,18,Jits_Linear_8,51,9999,9999,9999,2104329316
78,17,18,Jits_Linear_8,52,9999,9999,9999,2105049148
78,17,18,Jits_Linear_8,53,9999,9999,9999,2105770080
78,17,18,Jits_Linear_8,54,9999,9999,9999,2106489980
78,17,18,Jits_Linear_8,55,9999,9999,9999,2107199544
78,17,18,Jits_Linear_8,56,9999,9999,9999,2107909240
78,17,18,Jits_Linear_8,57,9999,9999,9999,2108619856
78,17,18,Jits_Linear_8,58,9999,9999,9999,2109329468
78,17,18,Jits_Linear_8,59,9999,9999,9999,2110039108
78,17,18,Jits_Linear_8,60,9999,9999,9999,2110739532
78,17,18,Jits_Linear_8,61,9999,9999,9999,2111439956
78,17,18,Jits_Linear_8,62,9999,9999,9999,2112139384
78,17,18,Jits_Linear_8,63,9999,9999,9999,2112839784
78,17,18,Jits_Linear_8,64,9999,9999,9999,2113539168
78,17,18,Jits_Linear_8,65,9999,9999,9999,2114229368
78,17,18,Jits_Linear_8,66,9999,9999,9999,2114919528
78,17,18,Jits_Linear_8,67,9999,9999,9999,2115609684
78,17,18,Jits_Linear_8,68,9999,9999,9999,2116299832
78,17,18,Jits_Linear_8,69,9999,9999,9999,2116990044
78,17,18,Jits_Linear_8,70,9999,9999,9999,2117670012
78,17,18,Jits_Linear_8,71,9999,9999,9999,2118349900
78,17,18,Jits_Linear_8,72,9999,9999,9999,2119029832
78,17,18,Jits_Linear_8,73,9999,9999,9999,2119709804
78,17,18,Jits_Linear_8,74,9999,9999,9999,2120389708
78,17,18,Jits_Linear_8,75,9999,9999,9999,2121059456
78,17,18,Jits_Linear_8,76,9999,9999,9999,2121729088
78,17,18,Jits_Linear_8,77,9999,9999,9999,2122399820
78,17,18,Jits_Linear_8,78,9999,9999,9999,2123069520
78,17,18,Jits_Linear_8,79,9999,9999,9999,2123739232
78,17,18,Jits_Linear_8,80,9999,9999,9999,2124399684
78,17,18,Jits_Linear_8,81,9999,9999,9999,2125059184
78,17,18,Jits_Linear_8,82,9999,9999,9999,2125719640
78,17,18,Jits_Linear_8,83,9999,9999,9999,2126379064
78,17,18,Jits_Linear_8,84,9999,9999,9999,2127039548
78,17,18,Jits_Linear_8,85,9999,9999,9999,2127689832
78,17,18,Jits_Linear_8,86,9999,9999,9999,2128340060
78,17,18,Jits_Linear_8,87,9999,9999,9999,2128989280
78,17,18,Jits_Linear_8,88,9999,9999,9999,2129639488
78,17,18,Jits_Linear_8,89,9999,9999,9999,2130289760
78,17,18,Jits_Linear_8,90,9999,9999,9999,2130929724
78,17,18,Jits_Linear_8,91,9999,9999,9999,2131569720
78,17,18,Jits_Linear_8,92,9999,9999,9999,2132209764
78,17,18,Jits_Linear_8,93,9999,9999,9999,2132849760
78,17,18,Jits_Linear_8,94,9999,9999,9999,2133489784
78,17,18,Jits_Linear_8,95,9999,9999,9999,2134119536
78,17,18,Jits_Linear_8,96,9999,9999,9999,2134749312
78,17,18,Jits_Linear_8,97,9999,9999,9999,2135380096
78,17,18,Jits_Linear_8,98,9999,9999,9999,2136009804
78,17,18,Jits_Linear_8,99,9999,9999,9999,2136639544
78,17,18,Jits_Linear_8,100,9999,9999,9999,2137259096
78,17,18,Jits_Linear_8,101,9999,9999,9999,2137879644
78,17,18,Jits_Linear_8,102,9999,9999,9999,2138499128
78,17,18,Jits_Linear_8,103,9999,9999,9999,2139119684
78,17,18,Jits_Linear_8,104,9999,9999,9999,2139739248
78,17,18,Jits_Linear_8,105,9999,9999,9999,2140349540
78,17,18,Jits_Linear_8,106,9999,9999,9999,2140959864
78,17,18,Jits_Linear_8,107,9999,9999,9999,2141569132
78,17,18,Jits_Linear_8,108,9999,9999,9999,2142179416
78,17,18,Jits_Linear_8,109,9999,9999,9999,2142789744
78,17,18,Jits_Linear_8,110,9999,9999,9999,2143389760
78,17,18,Jits_Linear_8,111,9999,9999,9999,2143989856
78,17,18,Jits_Linear_8,112,9999,9999,9999,2144589932
78,17,18,Jits_Linear_8,113,9999,9999,9999,2145189944
78,17,18,Jits_Linear_8,114,9999,9999,9999,2145790048
78,17,18,Jits_Linear_8,115,9999,9999,9999,2146379852
78,17,18,Jits_Linear_8,116,9999,9999,9999,2146969676
78,17,18,Jits_Linear_8,117,9999,9999,9999,2147559528
78,17,18,Jits_Linear_8,118,9999,9999,9999,2148149352
78,17,18,Jits_Linear_8,119,9999,9999,9999,2148739168
78,17,18,Jits_Linear_8,120,9999,9999,9999,2149319792
78,17,18,Jits_Linear_8,121,9999,9999,9999,2149899340
78,17,18,Jits_Linear_8,122,9999,9999,9999,2150480000
78,17,18,Jits_Linear_8,123,9999,9999,9999,2151059536
78,17,18,Jits_Linear_8,124,9999,9999,9999,2151639108
78,17,18,Jits_Linear_8,125,9999,9999,9999,2152209500
78,17,18,Jits_Linear_8,126,9999,9999,9999,2152779836
78,17,18,Jits_Linear_8,127,9999,9999,9999,2153349192
78,17,18,Jits_Linear_8,128,9999,9999,9999,2153919544
78,17,18,Jits_Linear_8,129,9999,9999,9999,2154489960
78,17,18,Jits_Linear_8,130,9999,9999,9999,2155050044
78,17,18,Jits_Linear_8,131,9999,9999,9999,2155609152
78,17,18,Jits_Linear_8,132,9999,9999,9999,2156169300
78,17,18,Jits_Linear_8,133,9999,9999,9999,2156729472
78,17,18,Jits_Linear_8,134,9999,9999,9999,2157289532
78,17,18,Jits_Linear_8,135,9999,9999,9999,2157839472
78,17,18,Jits_Linear_8,136,9999,9999,9999,2158389348
78,17,18,Jits_Linear_8,137,9999,9999,9999,2158939240
78,17,18,Jits_Linear_8,138,9999,9999,9999,2159489128
78,17,18,Jits_Linear_8,139,9999,9999,9999,2160040064
78,17,18,Jits_Linear_8,140,9999,9999,9999,2160579704
78,17,18,Jits_Linear_8,141,9999,9999,9999,2161119312
78,17,18,Jits_Linear_8,142,9999,9999,9999,2161659976
78,17,18,Jits_Linear_8,143,9999,9999,9999,2162199660
78,17,18,Jits_Linear_8,144,9999,9999,9999,2162739264
78,17,18,Jits_Linear_8,145,9999,9999,9999,2163269740
78,17,18,Jits_Linear_8,146,9999,9999,9999,2163799164
78,17,18,Jits_Linear_8,147,9999,9999,9999,2164329552
78,17,18,Jits_Linear_8,148,9999,9999,9999,2164860028
78,17,18,Jits_Linear_8,149,9999,9999,9999,2165389372
78,17,18,Jits_Linear_8,150,9999,9999,9999,2165909580
78,17,18,Jits_Linear_8,151,9999,9999,9999,2166429780
78,17,18,Jits_Linear_8,152,9999,9999,9999,2166950000
78,17,18,Jits_Linear_8,153,9999,9999,9999,2167469164
78,17,18,Jits_Linear_8,154,9999,9999,9999,2167989324
78,17,18,Jits_Linear_8,155,9999,9999,9999,2168499320
78,17,18,Jits_Linear_8,156,9999,9999,9999,2169009280
78,17,18,Jits_Linear_8,157,9999,9999,9999,2169519216
78,17,18,Jits_Linear_8,158,9999,9999,9999,2170029156
78,17,18,Jits_Linear_8,159,9999,9999,9999,2170539104
78,17,18,Jits_Linear_8,160,9999,9999,9999,2171039848
78,17,18,Jits_Linear_8,161,9999,9999,9999,2171539528
78,17,18,Jits_Linear_8,162,9999,9999,9999,2172039288
78,17,18,Jits_Linear_8,163,9999,9999,9999,2172540012
78,17,18,Jits_Linear_8,164,9999,9999,9999,2173039688
78,17,18,Jits_Linear_8,165,9999,9999,9999,2173529176
78,17,18,Jits_Linear_8,166,9999,9999,9999,2174019652
78,17,18,Jits_Linear_8,167,9999,9999,9999,2174509144
78,17,18,Jits_Linear_8,168,9999,9999,9999,2174999624
78,17,18,Jits_Linear_8,169,9999,9999,9999,2175489124
78,18,16,Jits_ISO_5,0,5,56,103,2184139148
78,18,16,Jits_ISO_5,1,5,63,98,2184142548
78,18,16,Jits_ISO_5,2,5,80,127,2184145440
78,18,16,Jits_ISO_5,0,5,56,103,2184638792
78,18,16,Jits_ISO_5,1,5,63,98,2184642040
78,18,16,Jits_ISO_5,2,5,80,127,2184645160
78,18,16,Jits_ISO_5,0,5,56,103,2185138504
78,18,16,Jits_ISO_5,1,5,80,127,2185148872
78,18,16,Jits_ISO_5,2,5,63,98,2185169256
78,18,16,Jits_ISO_5,0,5,63,98,2185599584
78,18,16,Jits_ISO_5,1,5,80,127,2185629036
78,18,16,Jits_ISO_5,2,5,56,103,2185639232
78,18,16,Jits_ISO_5,0,1,48,57,2186089236
78,18,16,Jits_ISO_5,1,5,80,127,2186158416
78,18,16,Jits_ISO_5,2,5,56,103,2186168560
78,18,16,Jits_ISO_5,3,5,63,98,2186199564
78,18,16,Jits_ISO_5,0,1,48,59,2186610552
78,18,16,Jits_ISO_5,1,5,63,98,2186648940
78,18,16,Jits_ISO_5,2,5,56,103,2186678712
78,18,16,Jits_ISO_5,3,5,80,127,2186688832
78,18,16,Jits_ISO_5,0,5,56,103,2187098560
78,18,16,Jits_ISO_5,1,5,63,98,2187148612
78,18,16,Jits_ISO_5,2,5,80,127,2187168996
78,18,16,Jits_ISO_5,3,1,48,59,2187174208
78,18,16,Jits_ISO_5,0,5,80,127,2187599576
78,18,16,Jits_ISO_5,1,5,63,98,2187649708
78,18,16,Jits_ISO_5,2,1,48,59,2187677480
78,18,16,Jits_ISO_5,3,5,56,103,2187689484
78,18,16,Jits_ISO_5,0,5,56,103,2188098880
78,18,16,Jits_ISO_5,1,5,63,98,2188128628
78,18,16,Jits_ISO_5,2,1,48,63,2188163956
78,18,16,Jits_ISO_5,3,5,80,127,2188199420
78,18,16,Jits_ISO_5,0,5,56,103,2188598772
78,18,16,Jits_ISO_5,1,1,48,62,2188633580
78,18,16,Jits_ISO_5,2,5,80,127,2188659080
78,18,16,Jits_ISO_5,3,5,63,98,2188688680
78,18,16,Jits_ISO_5,0,5,56,103,2189108564
78,18,16,Jits_ISO_5,1,1,48,62,2189116712
78,18,16,Jits_ISO_5,2,5,63,98,2189118752
78,18,16,Jits_ISO_5,3,5,80,127,2189158760
78,18,16,Jits_ISO_5,0,5,63,98,2189599460
78,18,16,Jits_ISO_5,1,1,48,62,2189616140
78,18,16,Jits_ISO_5,2,5,80,127,2189678952
78,18,16,Jits_ISO_5,3,5,56,103,2189689296
78,18,16,Jits_ISO_5,0,5,63,98,2190148948
78,18,16,Jits_ISO_5,1,1,48,54,2190155208
78,18,16,Jits_ISO_5,2,5,56,103,2190188948
78,18,16,Jits_ISO_5,3,5,80,127,2190191944
78,18,16,Jits_ISO_5,0,5,56,103,2190608744
78,18,16,Jits_ISO_5,1,5,63,98,2190619160
78,18,16,Jits_ISO_5,2,5,80,127,2190659024
78,18,16,Jits_ISO_5,3,1,48,61,2190661996
78,18,16,Jits_ISO_5,0,5,56,103,2191099420
78,18,16,Jits_ISO_5,1,5,63,98,2191102188
78,18,16,Jits_ISO_5,2,5,80,127,2191118680
78,18,16,Jits_ISO_5,3,1,48,53,2191132960
78,18,16,Jits_ISO_5,0,1,48,57,2191605112
78,18,16,Jits_ISO_5,1,5,80,127,2191609412
78,18,16,Jits_ISO_5,2,5,56,103,2191618412
78,18,16,Jits_ISO_5,3,5,63,98,2191688984
78,18,16,Jits_ISO_5,0,5,63,98,2192098740
78,18,16,Jits_ISO_5,1,5,56,103,2192119272
78,18,16,Jits_ISO_5,2,1,48,61,2192135572
78,18,16,Jits_ISO_5,3,5,80,127,2192199056
78,18,16,Jits_ISO_5,0,5,56,103,2192608584
78,18,16,Jits_ISO_5,1,1,48,63,2192638752
78,18,16,Jits_ISO_5,2,5,80,127,2192648516
78,18,16,Jits_ISO_5,3,5,63,98,2192658936
78,18,16,Jits_ISO_5,0,5,80,127,2193099412
78,18,16,Jits_ISO_5,1,5,63,98,2193128864
78,18,16,Jits_ISO_5,2,1,48,57,2193138576
78,18,16,Jits_ISO_5,3,5,56,103,2193168720
78,18,16,Jits_ISO_5,0,5,56,103,2193619388
78,18,16,Jits_ISO_5,1,5,63,98,2193648988
78,18,16,Jits_ISO_5,2,1,48,62,2193651812
78,18,16,Jits_ISO_5,3,5,80,127,2193699328
78,18,16,Jits_ISO_5,0,5,80,127,2194118988
78,18,16,Jits_ISO_5,1,1,48,61,2194152000
78,18,16,Jits_ISO_5,2,5,56,103,2194159068
78,18,16,Jits_ISO_5,3,5,63,98,2194169484
78,18,16,Jits_ISO_5,0,5,80,127,2194599456
78,18,16,Jits_ISO_5,1,5,63,98,2194639344
78,18,16,Jits_ISO_5,2,1,48,63,2194655568
78,18,16,Jits_ISO_5,3,5,56,103,2194698604
78,18,16,Jits_ISO_5,0,5,56,103,2195099052
78,18,16,Jits_ISO_5,1,5,80,127,2195109472
78,18,16,Jits_ISO_5,2,1,48,59,2195143628
78,18,16,Jits_ISO_5,3,5,63,98,2195189060
78,18,16,Jits_ISO_5,0,5,80,127,2195598728
78,18,16,Jits_ISO_5,1,1,48,63,2195615696
78,18,16,Jits_ISO_5,2,5,63,98,2195659356
78,18,16,Jits_ISO_5,3,5,56,103,2195688808
78,18,16,Jits_ISO_5,0,5,56,103,2196098400
78,18,16,Jits_ISO_5,1,1,48,58,2196125788
78,18,16,Jits_ISO_5,2,5,80,127,2196158808
78,18,16,Jits_ISO_5,3,5,63,98,2196198892
78,18,16,Jits_ISO_5,0,1,48,63,2196631968
78,18,16,Jits_ISO_5,1,5,56,103,2196649376
78,18,16,Jits_ISO_5,2,5,63,98,2196658600
78,18,16,Jits_ISO_5,3,5,80,127,2196662188
78,18,16,Jits_ISO_5,0,5,80,127,2197098740
78,18,16,Jits_ISO_5,1,1,48,62,2197132352
78,18,16,Jits_ISO_5,2,5,63,98,2197189112
78,18,16,Jits_ISO_5,3,5,56,103,2197199312
78,18,16,Jits_ISO_5,0,5,56,103,2197598700
78,18,16,Jits_ISO_5,1,5,63,98,2197601876
78,18,16,Jits_ISO_5,2,5,80,127,2197604992
78,18,16,Jits_ISO_5,3,1,48,64,2197627532
78,18,16,Jits_ISO_5,0,1,48,56,2198116696
78,18,16,Jits_ISO_5,1,5,80,127,2198118660
78,18,16,Jits_ISO_5,2,5,63,98,2198169012
78,18,16,Jits_ISO_5,3,5,56,103,2198198784
78,18,16,Jits_ISO_5,0,5,56,103,2198598924
78,18,16,Jits_ISO_5,1,5,80,127,2198609568
78,18,16,Jits_ISO_5,2,1,48,59,2198630748
78,18,16,Jits_ISO_5,3,5,63,98,2198678868
78,18,16,Jits_ISO_5,0,1,48,62,2199107344
78,18,16,Jits_ISO_5,1,5,56,103,2199108852
78,18,16,Jits_ISO_5,2,5,63,98,2199128564
78,18,16,Jits_ISO_5,3,5,80,127,2199188876
78,18,16,Jits_ISO_5,0,5,80,127,2199598404
78,18,16,Jits_ISO_5,1,1,48,58,2199605488
78,18,16,Jits_ISO_5,2,5,63,98,2199669348
78,18,16,Jits_ISO_5,3,5,56,103,2199688460
78,18,16,Jits_ISO_5,0,5,80,127,2200118608
78,18,16,Jits_ISO_5,1,5,56,103,2200128804
78,18,16,Jits_ISO_5,2,1,48,58,2200134016
78,18,16,Jits_ISO_5,3,5,63,98,2200139288
78,18,16,Jits_ISO_5,0,5,80,127,2200609432
78,18,16,Jits_ISO_5,1,5,56,103,2200628548
78,18,16,Jits_ISO_5,2,1,48,57,2200648448
78,18,16,Jits_ISO_5,3,5,63,98,2200699336
78,18,16,Jits_ISO_5,0,5,56,103,2201119372
78,18,16,Jits_ISO_5,1,1,48,62,2201143396
78,18,16,Jits_ISO_5,2,5,80,127,2201148744
78,18,16,Jits_ISO_5,3,5,63,98,2201169424
78,18,16,Jits_ISO_5,0,5,63,98,2201608488
78,18,16,Jits_ISO_5,1,1,48,51,2201617304
78,18,16,Jits_ISO_5,2,5,56,103,2201668944
78,18,16,Jits_ISO_5,3,5,80,127,2201698764
78,18,16,Jits_ISO_5,0,5,63,98,2202099148
78,18,16,Jits_ISO_5,1,5,80,127,2202102440
78,18,16,Jits_ISO_5,2,1,48,62,2202132084
78,18,16,Jits_ISO_5,3,5,56,103,2202189268
78,18,16,Jits_ISO_5,0,5,56,103,2202619472
78,18,16,Jits_ISO_5,1,1,48,55,2202641700
78,18,16,Jits_ISO_5,2,5,63,98,2202648920
78,18,16,Jits_ISO_5,3,5,80,127,2202688928
78,18,16,Jits_ISO_5,0,5,63,98,2203118924
78,18,16,Jits_ISO_5,1,1,48,59,2203151188
78,18,16,Jits_ISO_5,2,5,56,103,2203158856
78,18,16,Jits_ISO_5,3,5,80,127,2203179392
78,18,16,Jits_ISO_5,0,5,63,98,2203628924
78,18,16,Jits_ISO_5,1,1,48,63,2203635112
78,18,16,Jits_ISO_5,2,5,56,103,2203668856
78,18,16,Jits_ISO_5,3,5,80,127,2203679424
78,18,16,Jits_ISO_5,0,5,80,127,2204109328
78,18,16,Jits_ISO_5,1,1,48,56,2204133576
78,18,16,Jits_ISO_5,2,5,63,98,2204178780
78,18,16,Jits_ISO_5,3,5,56,103,2204199236
78,18,16,Jits_ISO_5,0,5,56,103,2204598816
78,18,16,Jits_ISO_5,1,5,80,127,2204619348
78,18,16,Jits_ISO_5,2,1,48,60,2204649820
78,18,16,Jits_ISO_5,3,5,63,98,2204659128
78,18,16,Jits_ISO_5,0,5,63,98,2205108524
78,18,16,Jits_ISO_5,1,1,48,59,2205112092
78,18,16,Jits_ISO_5,2,5,80,127,2205129348
78,18,16,Jits_ISO_5,3,5,56,103,2205169212
78,18,16,Jits_ISO_5,0,5,63,98,2205609428
78,18,16,Jits_ISO_5,1,1,48,58,2205625080
78,18,16,Jits_ISO_5,2,5,56,103,2205628712
78,18,16,Jits_ISO_5,3,5,80,127,2205639204
78,18,16,Jits_ISO_5,0,1,48,56,2206107732
78,18,16,Jits_ISO_5,1,5,80,127,2206109300
78,18,16,Jits_ISO_5,2,5,56,103,2206128488
78,18,16,Jits_ISO_5,3,5,63,98,2206159284
78,18,16,Jits_ISO_5,0,1,48,55,2206620900
78,18,16,Jits_ISO_5,1,5,56,103,2206679460
78,18,16,Jits_ISO_5,2,5,80,127,2206682524
78,18,16,Jits_ISO_5,3,5,63,98,2206698940
78,18,16,Jits_ISO_5,0,5,63,98,2207099224
78,18,16,Jits_ISO_5,1,5,56,103,2207129120
78,18,16,Jits_ISO_5,2,5,80,127,2207189312
78,18,16,Jits_ISO_5,3,1,48,50,2207194896
78,18,16,Jits_ISO_5,0,1,48,53,2207658116
78,18,16,Jits_ISO_5,1,5,63,98,2207678840
78,18,16,Jits_ISO_5,2,5,56,103,2207689332
78,18,16,Jits_ISO_5,3,5,80,127,2207699304
78,18,16,Jits_ISO_5,0,5,56,103,2208129340
78,18,16,Jits_ISO_5,1,5,80,127,2208159088
78,18,16,Jits_ISO_5,2,1,48,60,2208160576
78,18,16,Jits_ISO_5,3,5,63,98,2208169348
78,18,16,Jits_ISO_5,0,1,48,59,2208647412
78,18,16,Jits_ISO_5,1,5,63,98,2208669156
78,18,16,Jits_ISO_5,2,5,56,103,2208679352
78,18,16,Jits_ISO_5,3,5,80,127,2208698716
78,18,16,Jits_ISO_5,0,5,56,103,2209099080
78,18,16,Jits_ISO_5,1,5,63,98,2209158492
78,18,16,Jits_ISO_5,2,5,80,127,2209161708
78,18,16,Jits_ISO_5,3,1,48,59,2209166400
78,18,16,Jits_ISO_5,0,5,80,127,2209619344
78,18,16,Jits_ISO_5,1,5,56,103,2209628492
78,18,16,Jits_ISO_5,2,1,48,54,2209644268
78,18,16,Jits_ISO_5,3,5,63,98,2209699212
78,18,16,Jits_ISO_5,0,5,80,127,2210108680
78,18,16,Jits_ISO_5,1,1,48,59,2210139896
78,18,16,Jits_ISO_5,2,5,56,103,2210178352
78,18,16,Jits_ISO_5,3,5,63,98,2210188548
78,18,16,Jits_ISO_5,0,1,48,55,2210648808
78,18,16,Jits_ISO_5,1,5,63,98,2210650076
78,18,16,Jits_ISO_5,2,5,56,103,2210658852
78,18,16,Jits_ISO_5,3,5,80,127,2210679308
78,18,16,Jits_ISO_5,0,5,80,127,2211099096
78,18,16,Jits_ISO_5,1,1,48,54,2211114948
78,18,16,Jits_ISO_5,2,5,63,98,2211159484
78,18,16,Jits_ISO_5,3,5,56,103,2211199344
78,18,16,Jits_ISO_5,0,1,48,57,2211628784
78,18,16,Jits_ISO_5,1,5,56,103,2211638624
78,18,16,Jits_ISO_5,2,5,63,98,2211649044
78,18,16,Jits_ISO_5,3,5,80,127,2211689052
78,18,16,Jits_ISO_5,0,5,56,103,2212098364
78,18,16,Jits_ISO_5,1,5,80,127,2212129084
78,18,16,Jits_ISO_5,2,1,48,55,2212130052
78,18,16,Jits_ISO_5,3,5,63,98,2212179424
78,18,16,Jits_ISO_5,0,1,48,55,2212634104
78,18,16,Jits_ISO_5,1,5,56,103,2212639080
78,18,16,Jits_ISO_5,2,5,63,98,2212679092
78,18,16,Jits_ISO_5,3,5,80,127,2212682308
78,18,16,Jits_ISO_5,0,1,48,54,2213117212
78,18,16,Jits_ISO_5,1,5,56,103,2213139032
78,18,16,Jits_ISO_5,2,5,63,98,2213149076
78,18,16,Jits_ISO_5,3,5,80,127,2213168488
78,18,16,Jits_ISO_5,0,1,48,54,2213590420
78,18,16,Jits_ISO_5,1,5,56,103,2213598536
78,18,16,Jits_ISO_5,2,5,80,127,2213601528
78,18,16,Jits_ISO_5,3,5,63,98,2213638472
78,18,16,Jits_ISO_5,0,1,48,52,2214074548
78,18,16,Jits_ISO_5,1,5,63,98,2214139384
78,18,16,Jits_ISO_5,2,5,56,103,2214168968
78,18,16,Jits_ISO_5,3,5,80,127,2214189352
78,18,16,Jits_ISO_5,0,1,48,55,2214593168
78,18,16,Jits_ISO_5,1,5,80,127,2214609156
78,18,16,Jits_ISO_5,2,5,56,103,2214618600
78,18,16,Jits_ISO_5,3,5,63,98,2214628872
78,18,16,Jits_ISO_5,0,1,48,59,2215098072
78,18,16,Jits_ISO_5,1,5,56,103,2215109104
78,18,16,Jits_ISO_5,2,5,80,127,2215149044
78,18,16,Jits_ISO_5,3,5,63,98,2215178720
78,18,16,Jits_ISO_5,0,1,48,54,2215615324
78,18,16,Jits_ISO_5,1,5,63,98,2215619104
78,18,16,Jits_ISO_5,2,5,80,127,2215629152
78,18,16,Jits_ISO_5,3,5,56,103,2215639348
78,18,16,Jits_ISO_5,0,5,56,103,2216099040
78,18,16,Jits_ISO_5,1,1,48,57,2216104924
78,18,16,Jits_ISO_5,2,5,63,98,2216168884
78,18,16,Jits_ISO_5,3,5,80,127,2216179008
78,18,16,Jits_ISO_5,0,5,80,127,2216599012
78,18,16,Jits_ISO_5,1,5,56,103,2216609132
78,18,16,Jits_ISO_5,2,1,48,52,2216616068
78,18,16,Jits_ISO_5,3,5,63,98,2216659348
78,18,16,Jits_ISO_5,0,5,80,127,2217108944
78,18,16,Jits_ISO_5,1,1,48,51,2217129152
78,18,16,Jits_ISO_5,2,5,56,103,2217169128
78,18,16,Jits_ISO_5,3,5,63,98,2217199100
78,18,16,Jits_ISO_5,0,5,56,103,2217608544
78,18,16,Jits_ISO_5,1,5,80,127,2217611612
78,18,16,Jits_ISO_5,2,1,48,54,2217635480
78,18,16,Jits_ISO_5,3,5,63,98,2217648548
78,18,16,Jits_ISO_5,0,1,48,60,2218107048
78,18,16,Jits_ISO_5,1,5,56,103,2218139204
78,18,16,Jits_ISO_5,2,5,63,98,2218168832
78,18,16,Jits_ISO_5,3,5,80,127,2218179100
78,18,16,Jits_ISO_5,0,1,48,54,2218610900
78,18,16,Jits_ISO_5,1,5,63,98,2218649132
78,18,16,Jits_ISO_5,2,5,80,127,2218659252
78,18,16,Jits_ISO_5,3,5,56,103,2218669448
78,18,16,Jits_ISO_5,0,5,80,127,2219098452
78,18,16,Jits_ISO_5,1,1,48,51,2219145244
78,18,16,Jits_ISO_5,2,5,56,103,2219148940
78,18,16,Jits_ISO_5,3,5,63,98,2219151936
78,18,16,Jits_ISO_5,0,5,56,103,2219629128
78,18,16,Jits_ISO_5,1,5,80,127,2219649292
78,18,16,Jits_ISO_5,2,1,48,57,2219651228
78,18,16,Jits_ISO_5,3,5,63,98,2219658652
78,18,16,Jits_ISO_5,0,5,63,98,2220109172
78,18,16,Jits_ISO_5,1,1,48,58,2220129224
78,18,16,Jits_ISO_5,2,5,56,103,2220139140
78,18,16,Jits_ISO_5,3,5,80,127,2220159448
78,18,16,Jits_ISO_5,0,1,48,61,2220613364
78,18,16,Jits_ISO_5,1,5,56,103,2220619088
78,18,16,Jits_ISO_5,2,5,80,127,2220629432
78,18,16,Jits_ISO_5,3,5,63,98,2220699032
78,18,16,Jits_ISO_5,0,5,63,98,2221108640
78,18,16,Jits_ISO_5,1,1,48,61,2221145912
78,18,16,Jits_ISO_5,2,5,80,127,2221148644
78,18,16,Jits_ISO_5,3,5,56,103,2221188580
78,18,16,Jits_ISO_5,0,5,56,103,2221618416
78,18,16,Jits_ISO_5,1,5,63,98,2221628984
78,18,16,Jits_ISO_5,2,1,48,52,2221644312
78,18,16,Jits_ISO_5,3,5,80,127,2221649136
78,18,16,Jits_ISO_5,0,1,48,58,2222138808
78,18,16,Jits_ISO_5,1,5,63,98,2222159284
78,18,16,Jits_ISO_5,2,5,80,127,2222178772
78,18,16,Jits_ISO_5,3,5,56,103,2222199080
78,18,16,Jits_ISO_5,0,5,56,103,2222598496
78,18,16,Jits_ISO_5,1,5,80,127,2222679488
78,18,16,Jits_ISO_5,2,1,48,62,2222686972
78,18,16,Jits_ISO_5,3,5,63,98,2222688480
78,18,16,Jits_ISO_5,0,5,80,127,2223139072
78,18,16,Jits_ISO_5,1,5,63,98,2223149420
78,18,16,Jits_ISO_5,2,5,56,103,2223179020
78,18,16,Jits_ISO_5,3,1,48,61,2223194720
78,18,16,Jits_ISO_5,0,5,63,98,2223598892
78,18,16,Jits_ISO_5,1,5,80,127,2223639052
78,18,16,Jits_ISO_5,2,1,48,57,2223671988
78,18,16,Jits_ISO_5,3,5,56,103,2223699356
78,18,16,Jits_ISO_5,0,5,63,98,2224109036
78,18,16,Jits_ISO_5,1,5,56,103,2224159088
78,18,16,Jits_ISO_5,2,1,48,60,2224175764
78,18,16,Jits_ISO_5,3,5,80,127,2224188908
78,18,16,Jits_ISO_5,0,5,80,127,2224618888
78,18,16,Jits_ISO_5,1,5,63,98,2224629084
78,18,16,Jits_ISO_5,2,1,48,57,2224673180
78,18,16,Jits_ISO_5,3,5,56,103,2224698976
78,18,16,Jits_ISO_5,0,1,48,59,2225153812
78,18,16,Jits_ISO_5,1,5,80,127,2225189356
78,18,16,Jits_ISO_5,2,5,56,103,2225198428
78,18,16,Jits_ISO_5,3,5,63,98,2225201792
78,18,16,Jits_ISO_5,0,5,56,103,2225628632
78,18,16,Jits_ISO_5,1,5,80,127,2225649016
78,18,16,Jits_ISO_5,2,1,48,64,2225651840
78,18,16,Jits_ISO_5,3,5,63,98,2225659428
78,18,16,Jits_ISO_5,0,1,48,53,2226092952
78,18,16,Jits_ISO_5,1,5,63,98,2226138340
78,18,16,Jits_ISO_5,2,5,56,103,2226178276
78,18,16,Jits_ISO_5,3,5,80,127,2226198868
78,18,16,Jits_ISO_5,0,1,48,54,2226609956
78,18,16,Jits_ISO_5,1,5,63,98,2226639124
78,18,16,Jits_ISO_5,2,5,56,103,2226698612
78,18,16,Jits_ISO_5,3,5,80,127,2226701756
78,18,16,Jits_ISO_5,0,5,56,103,2227098976
78,18,16,Jits_ISO_5,1,5,80,127,2227118388
78,18,16,Jits_ISO_5,2,1,48,46,2227138164
78,18,16,Jits_ISO_5,3,5,63,98,2227159388
78,18,16,Jits_ISO_5,0,1,48,48,2227598016
78,18,16,Jits_ISO_5,1,5,56,103,2227629284
78,18,16,Jits_ISO_5,2,5,63,98,2227648940
78,18,16,Jits_ISO_5,3,5,80,127,2227659060
78,18,16,Jits_ISO_5,0,5,80,127,2228098380
78,18,16,Jits_ISO_5,1,1,48,55,2228104864
78,18,16,Jits_ISO_5,2,5,56,103,2228129244
78,18,16,Jits_ISO_5,3,5,63,98,2228169204
78,18,16,Jits_ISO_5,0,5,80,127,2228609508
78,18,16,Jits_ISO_5,1,5,56,103,2228628920
78,18,16,Jits_ISO_5,2,1,48,61,2228632640
78,18,16,Jits_ISO_5,3,5,63,98,2228689472
78,18,16,Jits_ISO_5,0,5,56,103,2229119368
78,18,16,Jits_ISO_5,1,1,48,54,2229134696
78,18,16,Jits_ISO_5,2,5,80,127,2229138848
78,18,16,Jits_ISO_5,3,5,63,98,2229199256
78,18,16,Jits_ISO_5,0,5,80,127,2229598740
78,18,16,Jits_ISO_5,1,5,56,103,2229608712
78,18,16,Jits_ISO_5,2,1,48,52,2229648572
78,18,16,Jits_ISO_5,3,5,63,98,2229649912
78,18,16,Jits_ISO_5,0,5,63,98,2230099308
78,18,16,Jits_ISO_5,1,5,56,103,2230139464
78,18,16,Jits_ISO_5,2,5,80,127,2230142460
78,18,16,Jits_ISO_5,3,1,48,48,2230153748
78,18,16,Jits_ISO_5,0,1,48,57,2230617604
78,18,16,Jits_ISO_5,1,5,63,98,2230619024
78,18,16,Jits_ISO_5,2,5,80,127,2230658440
78,18,16,Jits_ISO_5,3,5,56,103,2230689084
78,18,16,Jits_ISO_5,0,5,56,103,2231108952
78,18,16,Jits_ISO_5,1,1,48,54,2231114840
78,18,16,Jits_ISO_5,2,5,63,98,2231119212
78,18,16,Jits_ISO_5,3,5,80,127,2231148888
78,18,16,Jits_ISO_5,0,5,80,127,2231598656
78,18,16,Jits_ISO_5,1,1,48,50,2231622004
78,18,16,Jits_ISO_5,2,5,63,98,2231669152
78,18,16,Jits_ISO_5,3,5,56,103,2231679644
78,18,16,Jits_ISO_5,0,5,63,98,2232099300
78,18,16,Jits_ISO_5,1,1,48,57,2232132312
78,18,16,Jits_ISO_5,2,5,56,103,2232168900
78,18,16,Jits_ISO_5,3,5,80,127,2232178944
78,18,16,Jits_ISO_5,0,5,63,98,2232598884
78,18,16,Jits_ISO_5,1,1,48,54,2232609648
78,18,16,Jits_ISO_5,2,5,56,103,2232619340
78,18,16,Jits_ISO_5,3,5,80,127,2232659424
78,18,16,Jits_ISO_5,0,5,56,103,2233108956
78,18,16,Jits_ISO_5,1,1,48,55,2233116260
78,18,16,Jits_ISO_5,2,5,63,98,2233119068
78,18,16,Jits_ISO_5,3,5,80,127,2233199084
78,18,16,Jits_ISO_5,0,5,63,98,2233599412
78,18,16,Jits_ISO_5,1,5,56,103,2233629016
78,18,16,Jits_ISO_5,2,1,48,54,2233653108
78,18,16,Jits_ISO_5,3,5,80,127,2233668944
78,18,16,Jits_ISO_5,0,5,56,103,2234099000
78,18,16,Jits_ISO_5,1,5,63,98,2234138936
78,18,16,Jits_ISO_5,2,1,48,56,2234146096
78,18,16,Jits_ISO_5,3,5,80,127,2234178940
78,18,16,Jits_ISO_5,0,5,80,127,2234598748
78,18,16,Jits_ISO_5,1,1,48,56,2234631240
78,18,16,Jits_ISO_5,2,5,56,103,2234678608
78,18,16,Jits_ISO_5,3,5,63,98,2234688732
78,18,16,Jits_ISO_5,0,1,48,57,2235133892
78,18,16,Jits_ISO_5,1,5,56,103,2235138344
78,18,16,Jits_ISO_5,2,5,63,98,2235141564
78,18,16,Jits_ISO_5,3,5,80,127,2235148836
78,18,16,Jits_ISO_5,0,1,48,56,2235622380
78,18,16,Jits_ISO_5,1,5,56,103,2235658824
78,18,16,Jits_ISO_5,2,5,63,98,2235679208
78,18,16,Jits_ISO_5,3,5,80,127,2235689252
78,18,16,Jits_ISO_5,0,5,63,98,2236119684
78,18,16,Jits_ISO_5,1,5,80,127,2236128608
78,18,16,Jits_ISO_5,2,5,56,103,2236149064
78,18,16,Jits_ISO_5,3,1,48,54,2236158332
78,18,16,Jits_ISO_5,0,5,63,98,2236619116
78,18,16,Jits_ISO_5,1,1,48,56,2236650712
78,18,16,Jits_ISO_5,2,5,56,103,2236698896
78,18,16,Jits_ISO_5,3,5,80,127,2236702044
78,18,16,Jits_ISO_5,0,5,63,98,2237118776
78,18,16,Jits_ISO_5,1,5,56,103,2237139232
78,18,16,Jits_ISO_5,2,1,48,52,2237166784
78,18,16,Jits_ISO_5,3,5,80,127,2237168900
78,18,16,Jits_ISO_5,0,5,56,103,2237618584
78,18,16,Jits_ISO_5,1,1,48,55,2237630844
78,18,16,Jits_ISO_5,2,5,63,98,2237639108
78,18,16,Jits_ISO_5,3,5,80,127,2237649452
78,18,16,Jits_ISO_5,0,1,48,57,2238106816
78,18,16,Jits_ISO_5,1,5,56,103,2238148888
78,18,16,Jits_ISO_5,2,5,63,98,2238178788
78,18,16,Jits_ISO_5,3,5,80,127,2238182152
78,18,16,Jits_ISO_5,0,5,56,103,2238598776
78,18,16,Jits_ISO_5,1,1,48,54,2238608496
78,18,16,Jits_ISO_5,2,5,63,98,2238638560
78,18,16,Jits_ISO_5,3,5,80,127,2238698796
78,18,16,Jits_ISO_5,0,1,48,53,2239107092
78,18,16,Jits_ISO_5,1,5,56,103,2239118796
78,18,16,Jits_ISO_5,2,5,63,98,2239128992
78,18,16,Jits_ISO_5,3,5,80,127,2239189628
78,18,16,Jits_ISO_5,0,1,48,54,2239581572
78,18,16,Jits_ISO_5,1,5,56,103,2239618680
78,18,16,Jits_ISO_5,2,5,80,127,2239638844
78,18,16,Jits_ISO_5,3,5,63,98,2239668764
78,18,16,Jits_ISO_5,0,1,48,59,2240092468
78,18,16,Jits_ISO_5,1,5,80,127,2240119016
78,18,16,Jits_ISO_5,2,5,56,103,2240129660
78,18,16,Jits_ISO_5,3,5,63,98,2240148772
78,18,16,Jits_ISO_5,0,1,48,57,2240581480
78,18,16,Jits_ISO_5,1,5,63,98,2240608780
78,18,16,Jits_ISO_5,2,5,80,127,2240688708
78,18,16,Jits_ISO_5,3,5,56,103,2240698828
78,18,16,Jits_ISO_5,0,1,48,61,2241113260
78,18,16,Jits_ISO_5,1,5,80,127,2241168876
78,18,16,Jits_ISO_5,2,5,56,103,2241189260
78,18,16,Jits_ISO_5,3,5,63,98,2241192400
78,18,16,Jits_ISO_5,0,1,48,60,2241611568
78,18,16,Jits_ISO_5,1,5,63,98,2241638788
78,18,16,Jits_ISO_5,2,5,80,127,2241642080
78,18,16,Jits_ISO_5,3,5,56,103,2241699176
78,18,16,Jits_ISO_5,0,5,56,103,2242118968
78,18,16,Jits_ISO_5,1,5,80,127,2242129536
78,18,16,Jits_ISO_5,2,1,48,60,2242158736
78,18,16,Jits_ISO_5,3,5,63,98,2242169392
78,18,16,Jits_ISO_5,0,5,56,103,2242599240
78,18,16,Jits_ISO_5,1,5,63,98,2242658656
78,18,16,Jits_ISO_5,2,1,48,62,2242662824
78,18,16,Jits_ISO_5,3,5,80,127,2242668768
78,18,16,Jits_ISO_5,0,5,63,98,2243109096
78,18,16,Jits_ISO_5,1,5,80,127,2243149108
78,18,16,Jits_ISO_5,2,1,48,59,2243153056
78,18,16,Jits_ISO_5,3,5,56,103,2243189116
78,18,16,Jits_ISO_5,0,5,56,103,2243608832
78,18,16,Jits_ISO_5,1,1,48,58,2243645808
78,18,16,Jits_ISO_5,2,5,63,98,2243688840
78,18,16,Jits_ISO_5,3,5,80,127,2243692280
78,18,16,Jits_ISO_5,0,9999,9999,9999,2184386648
78,18,16,Jits_ISO_5,1,9999,9999,9999,2184886368
78,18,16,Jits_ISO_5,2,9999,9999,9999,2185387132
78,18,16,Jits_ISO_5,3,9999,9999,9999,2185897056
78,18,16,Jits_ISO_5,4,9999,9999,9999,2186396764
78,18,16,Jits_ISO_5,5,9999,9999,9999,2186896504
78,18,16,Jits_ISO_5,6,9999,9999,9999,2187396164
78,18,16,Jits_ISO_5,7,9999,9999,9999,2187896884
78,18,16,Jits_ISO_5,8,9999,9999,9999,2188396632
78,18,16,Jits_ISO_5,9,9999,9999,9999,2188896380
78,18,16,Jits_ISO_5,10,9999,9999,9999,2189397096
78,18,16,Jits_ISO_5,11,9999,9999,9999,2189896772
78,18,16,Jits_ISO_5,12,9999,9999,9999,2190396500
78,18,16,Jits_ISO_5,13,9999,9999,9999,2190896232
78,18,16,Jits_ISO_5,14,9999,9999,9999,2191396936
78,18,16,Jits_ISO_5,15,9999,9999,9999,2191896680
78,18,16,Jits_ISO_5,16,9999,9999,9999,2192396340
78,18,16,Jits_ISO_5,17,9999,9999,9999,2192896072
78,18,16,Jits_ISO_5,18,9999,9999,9999,2193396788
78,18,16,Jits_ISO_5,19,9999,9999,9999,2193896540
78,18,16,Jits_ISO_5,20,9999,9999,9999,2194396212
78,18,16,Jits_ISO_5,21,9999,9999,9999,2194897008
78,18,16,Jits_ISO_5,22,9999,9999,9999,2195396680
78,18,16,Jits_ISO_5,23,9999,9999,9999,2195896428
78,18,16,Jits_ISO_5,24,9999,9999,9999,2196396152
78,18,16,Jits_ISO_5,25,9999,9999,9999,2196896832
78,18,16,Jits_ISO_5,26,9999,9999,9999,2197396572
78,18,16,Jits_ISO_5,27,9999,9999,9999,2197896292
78,18,16,Jits_ISO_5,28,9999,9999,9999,2198397016
78,18,16,Jits_ISO_5,29,9999,9999,9999,2198896748
78,18,16,Jits_ISO_5,30,9999,9999,9999,2199396424
78,18,16,Jits_ISO_5,31,9999,9999,9999,2199896160
78,18,16,Jits_ISO_5,32,9999,9999,9999,2200396876
78,18,16,Jits_ISO_5,33,9999,9999,9999,2200896624
78,18,16,Jits_ISO_5,34,9999,9999,9999,2201396300
78,18,16,Jits_ISO_5,35,9999,9999,9999,2201897024
78,18,16,Jits_ISO_5,36,9999,9999,9999,2202396744
78,18,16,Jits_ISO_5,37,9999,9999,9999,2202896480
78,18,16,Jits_ISO_5,38,9999,9999,9999,2203396156
78,18,16,Jits_ISO_5,39,9999,9999,9999,2203896936
78,18,16,Jits_ISO_5,40,9999,9999,9999,2204396596
78,18,16,Jits_ISO_5,41,9999,9999,9999,2204896340
78,18,16,Jits_ISO_5,42,9999,9999,9999,2205397060
78,18,16,Jits_ISO_5,43,9999,9999,9999,2205896792
78,18,16,Jits_ISO_5,44,9999,9999,9999,2206396500
78,18,16,Jits_ISO_5,45,9999,9999,9999,2206896204
78,18,16,Jits_ISO_5,46,9999,9999,9999,2207396976
78,18,16,Jits_ISO_5,47,9999,9999,9999,2207896640
78,18,16,Jits_ISO_5,48,9999,9999,9999,2208396376
78,18,16,Jits_ISO_5,49,9999,9999,9999,2208896052
78,18,16,Jits_ISO_5,50,9999,9999,9999,2209396820
78,18,16,Jits_ISO_5,51,9999,9999,9999,2209896572
78,18,16,Jits_ISO_5,52,9999,9999,9999,2210396244
78,18,16,Jits_ISO_5,53,9999,9999,9999,2210896968
78,18,16,Jits_ISO_5,54,9999,9999,9999,2211396704
78,18,16,Jits_ISO_5,55,9999,9999,9999,2211896380
78,18,16,Jits_ISO_5,56,9999,9999,9999,2212396112
78,18,16,Jits_ISO_5,57,9999,9999,9999,2212896828
78,18,16,Jits_ISO_5,58,9999,9999,9999,2213396560
78,18,16,Jits_ISO_5,59,9999,9999,9999,2213896280
78,18,16,Jits_ISO_5,60,9999,9999,9999,2214396992
78,18,16,Jits_ISO_5,61,9999,9999,9999,2214896720
78,18,16,Jits_ISO_5,62,9999,9999,9999,2215396452
78,18,16,Jits_ISO_5,63,9999,9999,9999,2215896184
78,18,16,Jits_ISO_5,64,9999,9999,9999,2216396892
78,18,16,Jits_ISO_5,65,9999,9999,9999,2216896564
78,18,16,Jits_ISO_5,66,9999,9999,9999,2217396312
78,18,16,Jits_ISO_5,67,9999,9999,9999,2217897068
78,18,16,Jits_ISO_5,68,9999,9999,9999,2218396740
78,18,16,Jits_ISO_5,69,9999,9999,9999,2218896472
78,18,16,Jits_ISO_5,70,9999,9999,9999,2219396192
78,18,16,Jits_ISO_5,71,9999,9999,9999,2219896912
78,18,16,Jits_ISO_5,72,9999,9999,9999,2220396660
78,18,16,Jits_ISO_5,73,9999,9999,9999,2220896320
78,18,16,Jits_ISO_5,74,9999,9999,9999,2221397100
78,18,16,Jits_ISO_5,75,9999,9999,9999,2221896760
78,18,16,Jits_ISO_5,76,9999,9999,9999,2222396516
78,18,16,Jits_ISO_5,77,9999,9999,9999,2222896248
78,18,16,Jits_ISO_5,78,9999,9999,9999,2223396972
78,18,16,Jits_ISO_5,79,9999,9999,9999,2223896644
78,18,16,Jits_ISO_5,80,9999,9999,9999,2224396380
78,18,16,Jits_ISO_5,81,9999,9999,9999,2224896116
78,18,16,Jits_ISO_5,82,9999,9999,9999,2225396836
78,18,16,Jits_ISO_5,83,9999,9999,9999,2225896568
78,18,16,Jits_ISO_5,84,9999,9999,9999,2226396244
78,18,16,Jits_ISO_5,85,9999,9999,9999,2226897020
78,18,16,Jits_ISO_5,86,9999,9999,9999,2227396676
78,18,16,Jits_ISO_5,87,9999,9999,9999,2227896424
78,18,16,Jits_ISO_5,88,9999,9999,9999,2228396132
78,18,16,Jits_ISO_5,89,9999,9999,9999,2228896848
78,18,16,Jits_ISO_5,90,9999,9999,9999,2229396592
78,18,16,Jits_ISO_5,91,9999,9999,9999,2229896264
78,18,16,Jits_ISO_5,92,9999,9999,9999,2230397048
78,18,16,Jits_ISO_5,93,9999,9999,9999,2230896708
78,18,16,Jits_ISO_5,94,9999,9999,9999,2231396436
78,18,16,Jits_ISO_5,95,9999,9999,9999,2231896184
78,18,16,Jits_ISO_5,96,9999,9999,9999,2232396904
78,18,16,Jits_ISO_5,97,9999,9999,9999,2232896560
78,18,16,Jits_ISO_5,98,9999,9999,9999,2233396296
78,18,16,Jits_ISO_5,99,9999,9999,9999,2233897016
78,18,16,Jits_ISO_5,100,9999,9999,9999,2234396752
78,18,16,Jits_ISO_5,101,9999,9999,9999,2234896500
78,18,16,Jits_ISO_5,102,9999,9999,9999,2235396164
78,18,16,Jits_ISO_5,103,9999,9999,9999,2235896952
78,18,16,Jits_ISO_5,104,9999,9999,9999,2236396608
78,18,16,Jits_ISO_5,105,9999,9999,9999,2236896340
78,18,16,Jits_ISO_5,106,9999,9999,9999,2237397044
78,18,16,Jits_ISO_5,107,9999,9999,9999,2237896780
78,18,16,Jits_ISO_5,108,9999,9999,9999,2238396524
78,18,16,Jits_ISO_5,109,9999,9999,9999,2238896208
78,18,16,Jits_ISO_5,110,9999,9999,9999,2239396928
78,18,16,Jits_ISO_5,111,9999,9999,9999,2239896660
78,18,16,Jits_ISO_5,112,9999,9999,9999,2240396396
78,18,16,Jits_ISO_5,113,9999,9999,9999,2240896108
78,18,16,Jits_ISO_5,114,9999,9999,9999,2241396808
78,18,16,Jits_ISO_5,115,9999,9999,9999,2241896536
78,18,16,Jits_ISO_5,116,9999,9999,9999,2242396272
78,18,16,Jits_ISO_5,117,9999,9999,9999,2242896988
78,18,16,Jits_ISO_5,118,9999,9999,9999,2243396660
78,18,16,Jits_ISO_5,119,9999,9999,9999,2243896388
78,19,7,Jits_ISO_8,0,5,56,103,2254101868
78,19,7,Jits_ISO_8,1,5,63,98,2254104816
78,19,7,Jits_ISO_8,2,5,80,127,2254108308
78,19,7,Jits_ISO_8,0,5,56,103,2254901716
78,19,7,Jits_ISO_8,1,5,63,98,2254904736
78,19,7,Jits_ISO_8,2,5,80,127,2254908008
78,19,7,Jits_ISO_8,0,5,80,127,2255642092
78,19,7,Jits_ISO_8,1,5,63,98,2255732376
78,19,7,Jits_ISO_8,2,5,56,103,2255742500
78,19,7,Jits_ISO_8,0,5,56,103,2256462192
78,19,7,Jits_ISO_8,1,5,63,98,2256472388
78,19,7,Jits_ISO_8,2,5,80,127,2256561572
78,19,7,Jits_ISO_8,0,5,63,98,2257232612
78,19,7,Jits_ISO_8,1,1,48,67,2257246444
78,19,7,Jits_ISO_8,2,5,80,127,2257261836
78,19,7,Jits_ISO_8,3,5,56,103,2257291584
78,19,7,Jits_ISO_8,0,1,48,67,2258025312
78,19,7,Jits_ISO_8,1,5,56,103,2258031936
78,19,7,Jits_ISO_8,2,5,80,127,2258132272
78,19,7,Jits_ISO_8,3,5,63,98,2258181428
78,19,7,Jits_ISO_8,0,5,56,103,2258831728
78,19,7,Jits_ISO_8,1,5,80,127,2258882032
78,19,7,Jits_ISO_8,2,1,48,64,2258882996
78,19,7,Jits_ISO_8,3,5,63,98,2258921816
78,19,7,Jits_ISO_8,0,1,48,60,2259652872
78,19,7,Jits_ISO_8,1,5,80,127,2259662188
78,19,7,Jits_ISO_8,2,5,63,98,2259691788
78,19,7,Jits_ISO_8,3,5,56,103,2259761528
78,19,7,Jits_ISO_8,0,1,48,67,2260465464
78,19,7,Jits_ISO_8,1,5,63,98,2260491572
78,19,7,Jits_ISO_8,2,5,56,103,2260522368
78,19,7,Jits_ISO_8,3,5,80,127,2260581696
78,19,7,Jits_ISO_8,0,5,56,103,2261232252
78,19,7,Jits_ISO_8,1,5,80,127,2261235236
78,19,7,Jits_ISO_8,2,1,48,65,2261318068
78,19,7,Jits_ISO_8,3,5,63,98,2261351816
78,19,7,Jits_ISO_8,0,1,48,62,2262075976
78,19,7,Jits_ISO_8,1,5,56,103,2262111672
78,19,7,Jits_ISO_8,2,5,80,127,2262151612
78,19,7,Jits_ISO_8,3,5,63,98,2262161884
78,19,7,Jits_ISO_8,0,5,56,103,2262872508
78,19,7,Jits_ISO_8,1,1,48,63,2262881556
78,19,7,Jits_ISO_8,2,5,80,127,2262891840
78,19,7,Jits_ISO_8,3,5,63,98,2262971736
78,19,7,Jits_ISO_8,0,5,80,127,2263662048
78,19,7,Jits_ISO_8,1,1,48,64,2263711176
78,19,7,Jits_ISO_8,2,5,56,103,2263762240
78,19,7,Jits_ISO_8,3,5,63,98,2263771464
78,19,7,Jits_ISO_8,0,5,63,98,2264432176
78,19,7,Jits_ISO_8,1,5,80,127,2264492424
78,19,7,Jits_ISO_8,2,5,56,103,2264501596
78,19,7,Jits_ISO_8,3,1,48,64,2264531240
78,19,7,Jits_ISO_8,0,5,56,103,2265231660
78,19,7,Jits_ISO_8,1,1,48,61,2265283728
78,19,7,Jits_ISO_8,2,5,63,98,2265302332
78,19,7,Jits_ISO_8,3,5,80,127,2265305620
78,19,7,Jits_ISO_8,0,5,63,98,2266062188
78,19,7,Jits_ISO_8,1,1,48,62,2266067328
78,19,7,Jits_ISO_8,2,5,56,103,2266112312
78,19,7,Jits_ISO_8,3,5,80,127,2266115528
78,19,7,Jits_ISO_8,0,5,56,103,2266822252
78,19,7,Jits_ISO_8,1,5,80,127,2266825320
78,19,7,Jits_ISO_8,2,1,48,64,2266855492
78,19,7,Jits_ISO_8,3,5,63,98,2266912080
78,19,7,Jits_ISO_8,0,1,48,61,2267645604
78,19,7,Jits_ISO_8,1,5,63,98,2267661596
78,19,7,Jits_ISO_8,2,5,56,103,2267751792
78,19,7,Jits_ISO_8,3,5,80,127,2267781464
78,19,7,Jits_ISO_8,0,5,56,103,2268452248
78,19,7,Jits_ISO_8,1,1,48,63,2268465552
78,19,7,Jits_ISO_8,2,5,63,98,2268551520
78,19,7,Jits_ISO_8,3,5,80,127,2268582152
78,19,7,Jits_ISO_8,0,5,63,98,2269272428
78,19,7,Jits_ISO_8,1,5,56,103,2269281652
78,19,7,Jits_ISO_8,2,1,48,67,2269294208
78,19,7,Jits_ISO_8,3,5,80,127,2269371728
78,19,7,Jits_ISO_8,0,1,48,67,2270088128
78,19,7,Jits_ISO_8,1,5,63,98,2270091760
78,19,7,Jits_ISO_8,2,5,56,103,2270171356
78,19,7,Jits_ISO_8,3,5,80,127,2270174500
78,19,7,Jits_ISO_8,0,5,80,127,2270851392
78,19,7,Jits_ISO_8,1,5,63,98,2270872148
78,19,7,Jits_ISO_8,2,1,48,70,2270930144
78,19,7,Jits_ISO_8,3,5,56,103,2270932260
78,19,7,Jits_ISO_8,0,5,56,103,2271692192
78,19,7,Jits_ISO_8,1,1,48,61,2271707744
78,19,7,Jits_ISO_8,2,5,63,98,2271711820
78,19,7,Jits_ISO_8,3,5,80,127,2271715260
78,19,7,Jits_ISO_8,0,5,63,98,2272431596
78,19,7,Jits_ISO_8,1,1,48,65,2272446700
78,19,7,Jits_ISO_8,2,5,80,127,2272512288
78,19,7,Jits_ISO_8,3,5,56,103,2272521660
78,19,7,Jits_ISO_8,0,1,48,63,2273243032
78,19,7,Jits_ISO_8,1,5,63,98,2273251900
78,19,7,Jits_ISO_8,2,5,56,103,2273272136
78,19,7,Jits_ISO_8,3,5,80,127,2273322340
78,19,7,Jits_ISO_8,0,5,80,127,2274051468
78,19,7,Jits_ISO_8,1,1,48,54,2274076236
78,19,7,Jits_ISO_8,2,5,63,98,2274092448
78,19,7,Jits_ISO_8,3,5,56,103,2274111936
78,19,7,Jits_ISO_8,0,1,48,67,2274858860
78,19,7,Jits_ISO_8,1,5,56,103,2274892088
78,19,7,Jits_ISO_8,2,5,63,98,2274902512
78,19,7,Jits_ISO_8,3,5,80,127,2274921924
78,19,7,Jits_ISO_8,0,5,56,103,2275622204
78,19,7,Jits_ISO_8,1,1,48,62,2275655964
78,19,7,Jits_ISO_8,2,5,63,98,2275712260
78,19,7,Jits_ISO_8,3,5,80,127,2275772056
78,19,7,Jits_ISO_8,0,5,80,127,2276451972
78,19,7,Jits_ISO_8,1,1,48,66,2276462020
78,19,7,Jits_ISO_8,2,5,56,103,2276463356
78,19,7,Jits_ISO_8,3,5,63,98,2276531644
78,19,7,Jits_ISO_8,0,5,63,98,2277282260
78,19,7,Jits_ISO_8,1,1,48,63,2277285824
78,19,7,Jits_ISO_8,2,5,80,127,2277372192
78,19,7,Jits_ISO_8,3,5,56,103,2277381548
78,19,7,Jits_ISO_8,0,5,63,98,2278021368
78,19,7,Jits_ISO_8,1,5,80,127,2278071892
78,19,7,Jits_ISO_8,2,5,56,103,2278131988
78,19,7,Jits_ISO_8,3,1,48,57,2278134576
78,19,7,Jits_ISO_8,0,5,56,103,2278851896
78,19,7,Jits_ISO_8,1,1,48,57,2278900892
78,19,7,Jits_ISO_8,2,5,80,127,2278902388
78,19,7,Jits_ISO_8,3,5,63,98,2278921576
78,19,7,Jits_ISO_8,0,5,56,103,2279621944
78,19,7,Jits_ISO_8,1,1,48,57,2279669880
78,19,7,Jits_ISO_8,2,5,80,127,2279682556
78,19,7,Jits_ISO_8,3,5,63,98,2279752012
78,19,7,Jits_ISO_8,0,5,56,103,2280421892
78,19,7,Jits_ISO_8,1,1,48,59,2280435644
78,19,7,Jits_ISO_8,2,5,80,127,2280451488
78,19,7,Jits_ISO_8,3,5,63,98,2280482064
78,19,7,Jits_ISO_8,0,1,48,57,2281180972
78,19,7,Jits_ISO_8,1,5,56,103,2281261464
78,19,7,Jits_ISO_8,2,5,80,127,2281281984
78,19,7,Jits_ISO_8,3,5,63,98,2281342372
78,19,7,Jits_ISO_8,0,1,48,65,2282016560
78,19,7,Jits_ISO_8,1,5,80,127,2282142000
78,19,7,Jits_ISO_8,2,5,56,103,2282152348
78,19,7,Jits_ISO_8,3,5,63,98,2282161520
78,19,7,Jits_ISO_8,0,5,56,103,2282901952
78,19,7,Jits_ISO_8,1,5,80,127,2282941768
78,19,7,Jits_ISO_8,2,1,48,63,2282957916
78,19,7,Jits_ISO_8,3,5,63,98,2282971512
78,19,7,Jits_ISO_8,0,5,56,103,2283671868
78,19,7,Jits_ISO_8,1,5,63,98,2283701792
78,19,7,Jits_ISO_8,2,5,80,127,2283741656
78,19,7,Jits_ISO_8,3,1,48,59,2283742620
78,19,7,Jits_ISO_8,0,5,80,127,2284421616
78,19,7,Jits_ISO_8,1,5,63,98,2284471920
78,19,7,Jits_ISO_8,2,1,48,59,2284474668
78,19,7,Jits_ISO_8,3,5,56,103,2284492076
78,19,7,Jits_ISO_8,0,1,48,54,2285226540
78,19,7,Jits_ISO_8,1,5,56,103,2285251924
78,19,7,Jits_ISO_8,2,5,80,127,2285321684
78,19,7,Jits_ISO_8,3,5,63,98,2285381984
78,19,7,Jits_ISO_8,0,5,80,127,2286051644
78,19,7,Jits_ISO_8,1,1,48,58,2286066824
78,19,7,Jits_ISO_8,2,5,63,98,2286141848
78,19,7,Jits_ISO_8,3,5,56,103,2286162160
78,19,7,Jits_ISO_8,0,5,63,98,2286871900
78,19,7,Jits_ISO_8,1,5,56,103,2286892284
78,19,7,Jits_ISO_8,2,5,80,127,2286932224
78,19,7,Jits_ISO_8,3,1,48,59,2286963888
78,19,7,Jits_ISO_8,0,5,80,127,2287631752
78,19,7,Jits_ISO_8,1,5,63,98,2287652136
78,19,7,Jits_ISO_8,2,1,48,62,2287726568
78,19,7,Jits_ISO_8,3,5,56,103,2287731996
78,19,7,Jits_ISO_8,0,1,48,57,2288418916
78,19,7,Jits_ISO_8,1,5,63,98,2288422468
78,19,7,Jits_ISO_8,2,5,56,103,2288531920
78,19,7,Jits_ISO_8,3,5,80,127,2288534912
78,19,7,Jits_ISO_8,0,5,63,98,2289241436
78,19,7,Jits_ISO_8,1,1,48,59,2289247620
78,19,7,Jits_ISO_8,2,5,56,103,2289251700
78,19,7,Jits_ISO_8,3,5,80,127,2289254764
78,19,7,Jits_ISO_8,0,1,48,59,2289996288
78,19,7,Jits_ISO_8,1,5,56,103,2290021720
78,19,7,Jits_ISO_8,2,5,80,127,2290141684
78,19,7,Jits_ISO_8,3,5,63,98,2290181620
78,19,7,Jits_ISO_8,0,1,48,56,2290838176
78,19,7,Jits_ISO_8,1,5,56,103,2290842032
78,19,7,Jits_ISO_8,2,5,80,127,2290921856
78,19,7,Jits_ISO_8,3,5,63,98,2290942304
78,19,7,Jits_ISO_8,0,5,56,103,2291641780
78,19,7,Jits_ISO_8,1,1,48,59,2291653512
78,19,7,Jits_ISO_8,2,5,63,98,2291752268
78,19,7,Jits_ISO_8,3,5,80,127,2291755780
78,19,7,Jits_ISO_8,0,5,56,103,2292472064
78,19,7,Jits_ISO_8,1,5,80,127,2292501968
78,19,7,Jits_ISO_8,2,1,48,58,2292511308
78,19,7,Jits_ISO_8,3,5,63,98,2292522492
78,19,7,Jits_ISO_8,0,5,63,98,2293251560
78,19,7,Jits_ISO_8,1,5,56,103,2293261536
78,19,7,Jits_ISO_8,2,5,80,127,2293272028
78,19,7,Jits_ISO_8,3,1,48,59,2293304588
78,19,7,Jits_ISO_8,0,1,48,54,2294023732
78,19,7,Jits_ISO_8,1,5,80,127,2294041968
78,19,7,Jits_ISO_8,2,5,56,103,2294092172
78,19,7,Jits_ISO_8,3,5,63,98,2294131944
78,19,7,Jits_ISO_8,0,1,48,62,2294813776
78,19,7,Jits_ISO_8,1,5,80,127,2294862128
78,19,7,Jits_ISO_8,2,5,63,98,2294881616
78,19,7,Jits_ISO_8,3,5,56,103,2294931728
78,19,7,Jits_ISO_8,0,5,80,127,2295672108
78,19,7,Jits_ISO_8,1,1,48,65,2295677764
78,19,7,Jits_ISO_8,2,5,56,103,2295701852
78,19,7,Jits_ISO_8,3,5,63,98,2295771480
78,19,7,Jits_ISO_8,0,1,48,62,2296518192
78,19,7,Jits_ISO_8,1,5,56,103,2296522052
78,19,7,Jits_ISO_8,2,5,80,127,2296532544
78,19,7,Jits_ISO_8,3,5,63,98,2296572260
78,19,7,Jits_ISO_8,0,5,56,103,2297231688
78,19,7,Jits_ISO_8,1,5,63,98,2297252076
78,19,7,Jits_ISO_8,2,5,80,127,2297321780
78,19,7,Jits_ISO_8,3,1,48,52,2297326540
78,19,7,Jits_ISO_8,0,1,48,64,2298025080
78,19,7,Jits_ISO_8,1,5,63,98,2298051808
78,19,7,Jits_ISO_8,2,5,80,127,2298112648
78,19,7,Jits_ISO_8,3,5,56,103,2298131824
78,19,7,Jits_ISO_8,0,5,80,127,2298841560
78,19,7,Jits_ISO_8,1,1,48,57,2298866620
78,19,7,Jits_ISO_8,2,5,56,103,2298872128
78,19,7,Jits_ISO_8,3,5,63,98,2298901800
78,19,7,Jits_ISO_8,0,1,48,58,2299635772
78,19,7,Jits_ISO_8,1,5,56,103,2299642468
78,19,7,Jits_ISO_8,2,5,63,98,2299701668
78,19,7,Jits_ISO_8,3,5,80,127,2299762040
78,19,7,Jits_ISO_8,0,1,48,54,2300447920
78,19,7,Jits_ISO_8,1,5,80,127,2300461588
78,19,7,Jits_ISO_8,2,5,56,103,2300481900
78,19,7,Jits_ISO_8,3,5,63,98,2300551712
78,19,7,Jits_ISO_8,0,1,48,56,2301238856
78,19,7,Jits_ISO_8,1,5,80,127,2301262196
78,19,7,Jits_ISO_8,2,5,63,98,2301281608
78,19,7,Jits_ISO_8,3,5,56,103,2301312480
78,19,7,Jits_ISO_8,0,1,48,66,2302045764
78,19,7,Jits_ISO_8,1,5,80,127,2302051716
78,19,7,Jits_ISO_8,2,5,63,98,2302072476
78,19,7,Jits_ISO_8,3,5,56,103,2302131548
78,19,7,Jits_ISO_8,0,5,80,127,2302851580
78,19,7,Jits_ISO_8,1,1,48,59,2302858208
78,19,7,Jits_ISO_8,2,5,56,103,2302951700
78,19,7,Jits_ISO_8,3,5,63,98,2302981660
78,19,7,Jits_ISO_8,0,5,63,98,2303641944
78,19,7,Jits_ISO_8,1,1,48,53,2303690508
78,19,7,Jits_ISO_8,2,5,80,127,2303692092
78,19,7,Jits_ISO_8,3,5,56,103,2303711652
78,19,7,Jits_ISO_8,0,1,48,62,2304454376
78,19,7,Jits_ISO_8,1,5,80,127,2304481680
78,19,7,Jits_ISO_8,2,5,56,103,2304512552
78,19,7,Jits_ISO_8,3,5,63,98,2304515544
78,19,7,Jits_ISO_8,0,1,48,55,2305266140
78,19,7,Jits_ISO_8,1,5,63,98,2305312324
78,19,7,Jits_ISO_8,2,5,56,103,2305352264
78,19,7,Jits_ISO_8,3,5,80,127,2305371584
78,19,7,Jits_ISO_8,0,5,80,127,2306051656
78,19,7,Jits_ISO_8,1,1,48,66,2306104144
78,19,7,Jits_ISO_8,2,5,63,98,2306132420
78,19,7,Jits_ISO_8,3,5,56,103,2306172280
78,19,7,Jits_ISO_8,0,5,63,98,2306871608
78,19,7,Jits_ISO_8,1,1,48,56,2306908132
78,19,7,Jits_ISO_8,2,5,80,127,2306951476
78,19,7,Jits_ISO_8,3,5,56,103,2306972084
78,19,7,Jits_ISO_8,0,1,48,62,2307692868
78,19,7,Jits_ISO_8,1,5,56,103,2307712520
78,19,7,Jits_ISO_8,2,5,63,98,2307721520
78,19,7,Jits_ISO_8,3,5,80,127,2307761484
78,19,7,Jits_ISO_8,0,5,56,103,2308432368
78,19,7,Jits_ISO_8,1,5,80,127,2308435360
78,19,7,Jits_ISO_8,2,1,48,62,2308474444
78,19,7,Jits_ISO_8,3,5,63,98,2308571576
78,19,7,Jits_ISO_8,0,5,56,103,2309221740
78,19,7,Jits_ISO_8,1,1,48,59,2309249296
78,19,7,Jits_ISO_8,2,5,63,98,2309311748
78,19,7,Jits_ISO_8,3,5,80,127,2309381636
78,19,7,Jits_ISO_8,0,1,48,52,2310044580
78,19,7,Jits_ISO_8,1,5,63,98,2310102400
78,19,7,Jits_ISO_8,2,5,80,127,2310105764
78,19,7,Jits_ISO_8,3,5,56,103,2310161732
78,19,7,Jits_ISO_8,0,1,48,50,2310896904
78,19,7,Jits_ISO_8,1,5,80,127,2310942116
78,19,7,Jits_ISO_8,2,5,56,103,2310961380
78,19,7,Jits_ISO_8,3,5,63,98,2310971800
78,19,7,Jits_ISO_8,0,5,56,103,2311651560
78,19,7,Jits_ISO_8,1,5,63,98,2311662352
78,19,7,Jits_ISO_8,2,5,80,127,2311731584
78,19,7,Jits_ISO_8,3,1,48,47,2311783476
78,19,7,Jits_ISO_8,0,5,80,127,2312451424
78,19,7,Jits_ISO_8,1,5,56,103,2312501632
78,19,7,Jits_ISO_8,2,1,48,57,2312540716
78,19,7,Jits_ISO_8,3,5,63,98,2312551752
78,19,7,Jits_ISO_8,0,1,48,58,2313253512
78,19,7,Jits_ISO_8,1,5,56,103,2313332280
78,19,7,Jits_ISO_8,2,5,63,98,2313342552
78,19,7,Jits_ISO_8,3,5,80,127,2313382404
78,19,7,Jits_ISO_8,0,5,56,103,2314072520
78,19,7,Jits_ISO_8,1,1,48,57,2314089808
78,19,7,Jits_ISO_8,2,5,63,98,2314112304
78,19,7,Jits_ISO_8,3,5,80,127,2314161480
78,19,7,Jits_ISO_8,0,5,80,127,2314832384
78,19,7,Jits_ISO_8,1,5,56,103,2314882512
78,19,7,Jits_ISO_8,2,1,48,53,2314892976
78,19,7,Jits_ISO_8,3,5,63,98,2314901768
78,19,7,Jits_ISO_8,0,5,80,127,2315642144
78,19,7,Jits_ISO_8,1,1,48,58,2315670220
78,19,7,Jits_ISO_8,2,5,63,98,2315701656
78,19,7,Jits_ISO_8,3,5,56,103,2315781436
78,19,7,Jits_ISO_8,0,5,80,127,2316421344
78,19,7,Jits_ISO_8,1,5,56,103,2316461308
78,19,7,Jits_ISO_8,2,1,48,60,2316466816
78,19,7,Jits_ISO_8,3,5,63,98,2316481760
78,19,7,Jits_ISO_8,0,1,48,57,2317237896
78,19,7,Jits_ISO_8,1,5,56,103,2317272400
78,19,7,Jits_ISO_8,2,5,80,127,2317281700
78,19,7,Jits_ISO_8,3,5,63,98,2317321564
78,19,7,Jits_ISO_8,0,1,48,55,2318020540
78,19,7,Jits_ISO_8,1,5,56,103,2318141776
78,19,7,Jits_ISO_8,2,5,63,98,2318181788
78,19,7,Jits_ISO_8,3,5,80,127,2318185300
78,19,7,Jits_ISO_8,0,5,63,98,2318832108
78,19,7,Jits_ISO_8,1,5,80,127,2318872048
78,19,7,Jits_ISO_8,2,1,48,59,2318918012
78,19,7,Jits_ISO_8,3,5,56,103,2318941500
78,19,7,Jits_ISO_8,0,5,63,98,2319621404
78,19,7,Jits_ISO_8,1,1,48,58,2319696364
78,19,7,Jits_ISO_8,2,5,56,103,2319702388
78,19,7,Jits_ISO_8,3,5,80,127,2319761732
78,19,7,Jits_ISO_8,0,5,80,127,2320431376
78,19,7,Jits_ISO_8,1,1,48,50,2320473676
78,19,7,Jits_ISO_8,2,5,63,98,2320481648
78,19,7,Jits_ISO_8,3,5,56,103,2320512444
78,19,7,Jits_ISO_8,0,5,56,103,2321222248
78,19,7,Jits_ISO_8,1,1,48,56,2321225220
78,19,7,Jits_ISO_8,2,5,63,98,2321272148
78,19,7,Jits_ISO_8,3,5,80,127,2321282272
78,19,7,Jits_ISO_8,0,1,48,56,2321996656
78,19,7,Jits_ISO_8,1,5,56,103,2322032128
78,19,7,Jits_ISO_8,2,5,63,98,2322141532
78,19,7,Jits_ISO_8,3,5,80,127,2322162288
78,19,7,Jits_ISO_8,0,5,63,98,2322831700
78,19,7,Jits_ISO_8,1,1,48,55,2322836088
78,19,7,Jits_ISO_8,2,5,80,127,2322881920
78,19,7,Jits_ISO_8,3,5,56,103,2322972184
78,19,7,Jits_ISO_8,0,5,63,98,2323622192
78,19,7,Jits_ISO_8,1,5,80,127,2323652040
78,19,7,Jits_ISO_8,2,1,48,53,2323712032
78,19,7,Jits_ISO_8,3,5,56,103,2323742316
78,19,7,Jits_ISO_8,0,5,63,98,2324422220
78,19,7,Jits_ISO_8,1,5,56,103,2324432268
78,19,7,Jits_ISO_8,2,1,48,56,2324462060
78,19,7,Jits_ISO_8,3,5,80,127,2324531536
78,19,7,Jits_ISO_8,0,1,48,56,2325204872
78,19,7,Jits_ISO_8,1,5,63,98,2325322000
78,19,7,Jits_ISO_8,2,5,80,127,2325352048
78,19,7,Jits_ISO_8,3,5,56,103,2325381424
78,19,7,Jits_ISO_8,0,1,48,53,2326051576
78,19,7,Jits_ISO_8,1,5,80,127,2326142408
78,19,7,Jits_ISO_8,2,5,63,98,2326151468
78,19,7,Jits_ISO_8,3,5,56,103,2326182340
78,19,7,Jits_ISO_8,0,5,80,127,2326841660
78,19,7,Jits_ISO_8,1,5,63,98,2326862120
78,19,7,Jits_ISO_8,2,5,56,103,2326912324
78,19,7,Jits_ISO_8,3,1,48,51,2326950432
78,19,7,Jits_ISO_8,0,5,63,98,2327672320
78,19,7,Jits_ISO_8,1,1,48,44,2327708248
78,19,7,Jits_ISO_8,2,5,80,127,2327731536
78,19,7,Jits_ISO_8,3,5,56,103,2327752216
78,19,7,Jits_ISO_8,0,5,63,98,2328432172
78,19,7,Jits_ISO_8,1,1,48,49,2328479636
78,19,7,Jits_ISO_8,2,5,56,103,2328482220
78,19,7,Jits_ISO_8,3,5,80,127,2328492516
78,19,7,Jits_ISO_8,0,1,48,49,2329227192
78,19,7,Jits_ISO_8,1,5,56,103,2329261492
78,19,7,Jits_ISO_8,2,5,80,127,2329271616
78,19,7,Jits_ISO_8,3,5,63,98,2329372220
78,19,7,Jits_ISO_8,0,5,80,127,2330022224
78,19,7,Jits_ISO_8,1,5,63,98,2330031472
78,19,7,Jits_ISO_8,2,1,48,49,2330070784
78,19,7,Jits_ISO_8,3,5,56,103,2330182188
78,19,7,Jits_ISO_8,0,5,63,98,2330832236
78,19,7,Jits_ISO_8,1,1,48,54,2330856400
78,19,7,Jits_ISO_8,2,5,80,127,2330872168
78,19,7,Jits_ISO_8,3,5,56,103,2330952036
78,19,7,Jits_ISO_8,0,5,56,103,2331621972
78,19,7,Jits_ISO_8,1,1,48,49,2331656780
78,19,7,Jits_ISO_8,2,5,80,127,2331722068
78,19,7,Jits_ISO_8,3,5,63,98,2331741404
78,19,7,Jits_ISO_8,0,1,48,52,2332460780
78,19,7,Jits_ISO_8,1,5,80,127,2332482004
78,19,7,Jits_ISO_8,2,5,56,103,2332492128
78,19,7,Jits_ISO_8,3,5,63,98,2332582244
78,19,7,Jits_ISO_8,0,5,56,103,2333281728
78,19,7,Jits_ISO_8,1,1,48,54,2333300372
78,19,7,Jits_ISO_8,2,5,63,98,2333302108
78,19,7,Jits_ISO_8,3,5,80,127,2333382076
78,19,7,Jits_ISO_8,0,5,63,98,2334032380
78,19,7,Jits_ISO_8,1,1,48,51,2334115812
78,19,7,Jits_ISO_8,2,5,56,103,2334122432
78,19,7,Jits_ISO_8,3,5,80,127,2334125452
78,19,7,Jits_ISO_8,0,5,56,103,2334861752
78,19,7,Jits_ISO_8,1,1,48,49,2334882480
78,19,7,Jits_ISO_8,2,5,80,127,2334922160
78,19,7,Jits_ISO_8,3,5,63,98,2334932432
78,19,7,Jits_ISO_8,0,1,48,54,2335632972
78,19,7,Jits_ISO_8,1,5,80,127,2335711472
78,19,7,Jits_ISO_8,2,5,56,103,2335721960
78,19,7,Jits_ISO_8,3,5,63,98,2335724880
78,19,7,Jits_ISO_8,0,5,56,103,2336472364
78,19,7,Jits_ISO_8,1,5,80,127,2336481812
78,19,7,Jits_ISO_8,2,1,48,60,2336484332
78,19,7,Jits_ISO_8,3,5,63,98,2336502044
78,19,7,Jits_ISO_8,0,5,63,98,2337241520
78,19,7,Jits_ISO_8,1,1,48,50,2337265388
78,19,7,Jits_ISO_8,2,5,80,127,2337301980
78,19,7,Jits_ISO_8,3,5,56,103,2337352032
78,19,7,Jits_ISO_8,0,1,48,56,2338067400
78,19,7,Jits_ISO_8,1,5,63,98,2338122208
78,19,7,Jits_ISO_8,2,5,56,103,2338132404
78,19,7,Jits_ISO_8,3,5,80,127,2338181616
78,19,7,Jits_ISO_8,0,5,63,98,2338821532
78,19,7,Jits_ISO_8,1,5,80,127,2338841916
78,19,7,Jits_ISO_8,2,5,56,103,2338852412
78,19,7,Jits_ISO_8,3,1,48,54,2338928636
78,19,7,Jits_ISO_8,0,5,63,98,2339622200
78,19,7,Jits_ISO_8,1,5,80,127,2339625488
78,19,7,Jits_ISO_8,2,1,48,48,2339660860
78,19,7,Jits_ISO_8,3,5,56,103,2339662428
78,19,7,Jits_ISO_8,0,1,48,49,2340405824
78,19,7,Jits_ISO_8,1,5,63,98,2340491568
78,19,7,Jits_ISO_8,2,5,80,127,2340522352
78,19,7,Jits_ISO_8,3,5,56,103,2340531600
78,19,7,Jits_ISO_8,0,1,48,49,2341231316
78,19,7,Jits_ISO_8,1,5,56,103,2341242200
78,19,7,Jits_ISO_8,2,5,80,127,2341271876
78,19,7,Jits_ISO_8,3,5,63,98,2341301800
78,19,7,Jits_ISO_8,0,1,48,55,2342059032
78,19,7,Jits_ISO_8,1,5,63,98,2342142232
78,19,7,Jits_ISO_8,2,5,56,103,2342182304
78,19,7,Jits_ISO_8,3,5,80,127,2342185444
78,19,7,Jits_ISO_8,0,5,80,127,2342841852
78,19,7,Jits_ISO_8,1,1,48,57,2342911288
78,19,7,Jits_ISO_8,2,5,56,103,2342921868
78,19,7,Jits_ISO_8,3,5,63,98,2342971920
78,19,7,Jits_ISO_8,0,5,80,127,2343622028
78,19,7,Jits_ISO_8,1,5,56,103,2343641440
78,19,7,Jits_ISO_8,2,5,63,98,2343731648
78,19,7,Jits_ISO_8,3,1,48,57,2343743084
78,19,7,Jits_ISO_8,0,5,80,127,2344461900
78,19,7,Jits_ISO_8,1,5,63,98,2344501692
78,19,7,Jits_ISO_8,2,1,48,54,2344507952
78,19,7,Jits_ISO_8,3,5,56,103,2344541624
78,19,7,Jits_ISO_8,0,5,63,98,2345231660
78,19,7,Jits_ISO_8,1,1,48,60,2345291224
78,19,7,Jits_ISO_8,2,5,80,127,2345292788
78,19,7,Jits_ISO_8,3,5,56,103,2345321868
78,19,7,Jits_ISO_8,0,5,56,103,2346031416
78,19,7,Jits_ISO_8,1,1,48,55,2346046520
78,19,7,Jits_ISO_8,2,5,80,127,2346062280
78,19,7,Jits_ISO_8,3,5,63,98,2346152176
78,19,7,Jits_ISO_8,0,5,56,103,2346841700
78,19,7,Jits_ISO_8,1,1,48,64,2346858600
78,19,7,Jits_ISO_8,2,5,80,127,2346951920
78,19,7,Jits_ISO_8,3,5,63,98,2346981672
78,19,7,Jits_ISO_8,0,5,56,103,2347692552
78,19,7,Jits_ISO_8,1,1,48,57,2347711564
78,19,7,Jits_ISO_8,2,5,63,98,2347751744
78,19,7,Jits_ISO_8,3,5,80,127,2347781640
78,19,7,Jits_ISO_8,0,5,56,103,2348461864
78,19,7,Jits_ISO_8,1,1,48,55,2348494580
78,19,7,Jits_ISO_8,2,5,63,98,2348532220
78,19,7,Jits_ISO_8,3,5,80,127,2348551556
78,19,7,Jits_ISO_8,0,5,80,127,2349231552
78,19,7,Jits_ISO_8,1,1,48,58,2349243812
78,19,7,Jits_ISO_8,2,5,63,98,2349251932
78,19,7,Jits_ISO_8,3,5,56,103,2349302056
78,19,7,Jits_ISO_8,0,9999,9999,9999,2254499960
78,19,7,Jits_ISO_8,1,9999,9999,9999,2255299684
78,19,7,Jits_ISO_8,2,9999,9999,9999,2256099404
78,19,7,Jits_ISO_8,3,9999,9999,9999,2256899196
78,19,7,Jits_ISO_8,4,9999,9999,9999,2257699936
78,19,7,Jits_ISO_8,5,9999,9999,9999,2258499648
78,19,7,Jits_ISO_8,6,9999,9999,9999,2259299428
78,19,7,Jits_ISO_8,7,9999,9999,9999,2260099156
78,19,7,Jits_ISO_8,8,9999,9999,9999,2260899916
78,19,7,Jits_ISO_8,9,9999,9999,9999,2261699640
78,19,7,Jits_ISO_8,10,9999,9999,9999,2262499444
78,19,7,Jits_ISO_8,11,9999,9999,9999,2263299156
78,19,7,Jits_ISO_8,12,9999,9999,9999,2264099932
78,19,7,Jits_ISO_8,13,9999,9999,9999,2264899652
78,19,7,Jits_ISO_8,14,9999,9999,9999,2265699424
78,19,7,Jits_ISO_8,15,9999,9999,9999,2266499144
78,19,7,Jits_ISO_8,16,9999,9999,9999,2267299956
78,19,7,Jits_ISO_8,17,9999,9999,9999,2268099636
78,19,7,Jits_ISO_8,18,9999,9999,9999,2268899424
78,19,7,Jits_ISO_8,19,9999,9999,9999,2269699148
78,19,7,Jits_ISO_8,20,9999,9999,9999,2270499904
78,19,7,Jits_ISO_8,21,9999,9999,9999,2271299684
78,19,7,Jits_ISO_8,22,9999,9999,9999,2272099400
78,19,7,Jits_ISO_8,23,9999,9999,9999,2272899196
78,19,7,Jits_ISO_8,24,9999,9999,9999,2273699952
78,19,7,Jits_ISO_8,25,9999,9999,9999,2274499688
78,19,7,Jits_ISO_8,26,9999,9999,9999,2275299412
78,19,7,Jits_ISO_8,27,9999,9999,9999,2276099196
78,19,7,Jits_ISO_8,28,9999,9999,9999,2276899964
78,19,7,Jits_ISO_8,29,9999,9999,9999,2277699696
78,19,7,Jits_ISO_8,30,9999,9999,9999,2278499404
78,19,7,Jits_ISO_8,31,9999,9999,9999,2279299192
78,19,7,Jits_ISO_8,32,9999,9999,9999,2280099960
78,19,7,Jits_ISO_8,33,9999,9999,9999,2280899704
78,19,7,Jits_ISO_8,34,9999,9999,9999,2281699428
78,19,7,Jits_ISO_8,35,9999,9999,9999,2282499144
78,19,7,Jits_ISO_8,36,9999,9999,9999,2283299908
78,19,7,Jits_ISO_8,37,9999,9999,9999,2284099708
78,19,7,Jits_ISO_8,38,9999,9999,9999,2284899428
78,19,7,Jits_ISO_8,39,9999,9999,9999,2285699156
78,19,7,Jits_ISO_8,40,9999,9999,9999,2286499920
78,19,7,Jits_ISO_8,41,9999,9999,9999,2287299668
78,19,7,Jits_ISO_8,42,9999,9999,9999,2288099448
78,19,7,Jits_ISO_8,43,9999,9999,9999,2288899164
78,19,7,Jits_ISO_8,44,9999,9999,9999,2289699904
78,19,7,Jits_ISO_8,45,9999,9999,9999,2290499692
78,19,7,Jits_ISO_8,46,9999,9999,9999,2291299404
78,19,7,Jits_ISO_8,47,9999,9999,9999,2292099184
78,19,7,Jits_ISO_8,48,9999,9999,9999,2292899956
78,19,7,Jits_ISO_8,49,9999,9999,9999,2293699700
78,19,7,Jits_ISO_8,50,9999,9999,9999,2294499412
78,19,7,Jits_ISO_8,51,9999,9999,9999,2295299192
78,19,7,Jits_ISO_8,52,9999,9999,9999,2296099952
78,19,7,Jits_ISO_8,53,9999,9999,9999,2296899680
78,19,7,Jits_ISO_8,54,9999,9999,9999,2297699388
78,19,7,Jits_ISO_8,55,9999,9999,9999,2298499188
78,19,7,Jits_ISO_8,56,9999,9999,9999,2299299940
78,19,7,Jits_ISO_8,57,9999,9999,9999,2300099692
78,19,7,Jits_ISO_8,58,9999,9999,9999,2300899404
78,19,7,Jits_ISO_8,59,9999,9999,9999,2301699184
78,19,7,Jits_ISO_8,60,9999,9999,9999,2302499944
78,19,7,Jits_ISO_8,61,9999,9999,9999,2303299656
78,19,7,Jits_ISO_8,62,9999,9999,9999,2304099380
78,19,7,Jits_ISO_8,63,9999,9999,9999,2304899156
78,19,7,Jits_ISO_8,64,9999,9999,9999,2305699920
78,19,7,Jits_ISO_8,65,9999,9999,9999,2306499656
78,19,7,Jits_ISO_8,66,9999,9999,9999,2307299384
78,19,7,Jits_ISO_8,67,9999,9999,9999,2308099168
78,19,7,Jits_ISO_8,68,9999,9999,9999,2308899908
78,19,7,Jits_ISO_8,69,9999,9999,9999,2309699708
78,19,7,Jits_ISO_8,70,9999,9999,9999,2310499428
78,19,7,Jits_ISO_8,71,9999,9999,9999,2311299148
78,19,7,Jits_ISO_8,72,9999,9999,9999,2312099904
78,19,7,Jits_ISO_8,73,9999,9999,9999,2312899648
78,19,7,Jits_ISO_8,74,9999,9999,9999,2313699452
78,19,7,Jits_ISO_8,75,9999,9999,9999,2314499168
78,19,7,Jits_ISO_8,76,9999,9999,9999,2315299932
78,19,7,Jits_ISO_8,77,9999,9999,9999,2316099660
78,19,7,Jits_ISO_8,78,9999,9999,9999,2316899452
78,19,7,Jits_ISO_8,79,9999,9999,9999,2317699176
78,19,7,Jits_ISO_8,80,9999,9999,9999,2318499932
78,19,7,Jits_ISO_8,81,9999,9999,9999,2319299660
78,19,7,Jits_ISO_8,82,9999,9999,9999,2320099440
78,19,7,Jits_ISO_8,83,9999,9999,9999,2320899148
78,19,7,Jits_ISO_8,84,9999,9999,9999,2321699964
78,19,7,Jits_ISO_8,85,9999,9999,9999,2322499692
78,19,7,Jits_ISO_8,86,9999,9999,9999,2323299400
78,19,7,Jits_ISO_8,87,9999,9999,9999,2324099180
78,19,7,Jits_ISO_8,88,9999,9999,9999,2324899932
78,19,7,Jits_ISO_8,89,9999,9999,9999,2325699672
78,19,7,Jits_ISO_8,90,9999,9999,9999,2326499388
78,19,7,Jits_ISO_8,91,9999,9999,9999,2327299168
78,19,7,Jits_ISO_8,92,9999,9999,9999,2328099940
78,19,7,Jits_ISO_8,93,9999,9999,9999,2328899648
78,19,7,Jits_ISO_8,94,9999,9999,9999,2329699432
78,19,7,Jits_ISO_8,95,9999,9999,9999,2330499140
78,19,7,Jits_ISO_8,96,9999,9999,9999,2331299912
78,19,7,Jits_ISO_8,97,9999,9999,9999,2332099640
78,19,7,Jits_ISO_8,98,9999,9999,9999,2332899444
78,19,7,Jits_ISO_8,99,9999,9999,9999,2333699164
78,19,7,Jits_ISO_8,100,9999,9999,9999,2334499924
78,19,7,Jits_ISO_8,101,9999,9999,9999,2335299708
78,19,7,Jits_ISO_8,102,9999,9999,9999,2336099428
78,19,7,Jits_ISO_8,103,9999,9999,9999,2336899132
78,19,7,Jits_ISO_8,104,9999,9999,9999,2337699904
78,19,7,Jits_ISO_8,105,9999,9999,9999,2338499640
78,19,7,Jits_ISO_8,106,9999,9999,9999,2339299412
78,19,7,Jits_ISO_8,107,9999,9999,9999,2340099176
78,19,7,Jits_ISO_8,108,9999,9999,9999,2340899936
78,19,7,Jits_ISO_8,109,9999,9999,9999,2341699644
78,19,7,Jits_ISO_8,110,9999,9999,9999,2342499404
78,19,7,Jits_ISO_8,111,9999,9999,9999,2343299196
78,19,7,Jits_ISO_8,112,9999,9999,9999,2344099964
78,19,7,Jits_ISO_8,113,9999,9999,9999,2344899708
78,19,7,Jits_ISO_8,114,9999,9999,9999,2345699408
78,19,7,Jits_ISO_8,115,9999,9999,9999,2346499192
78,19,7,Jits_ISO_8,116,9999,9999,9999,2347299892
78,19,7,Jits_ISO_8,117,9999,9999,9999,2348099700
78,19,7,Jits_ISO_8,118,9999,9999,9999,2348899428
78,19,7,Jits_ISO_8,119,9999,9999,9999,2349699148
78,20,5,ISIP_5,0,5,42,127,2417376760
78,20,5,ISIP_5,1,5,42,127,2417877372
78,20,5,ISIP_5,2,5,42,127,2418377312
78,20,5,ISIP_5,3,5,42,127,2418876656
78,20,5,ISIP_5,4,1,48,57,2419367580
78,20,5,ISIP_5,5,5,42,127,2419376516
78,20,5,ISIP_5,6,1,48,62,2419859396
78,20,5,ISIP_5,7,5,42,127,2419877384
78,20,5,ISIP_5,8,5,42,127,2420376912
78,20,5,ISIP_5,9,1,48,62,2420384740
78,20,5,ISIP_5,10,5,42,127,2420876608
78,20,5,ISIP_5,11,1,48,58,2420902392
78,20,5,ISIP_5,12,5,42,127,2421377348
78,20,5,ISIP_5,13,1,48,56,2421394008
78,20,5,ISIP_5,14,5,42,127,2421877268
78,20,5,ISIP_5,15,1,48,58,2421886820
78,20,5,ISIP_5,16,5,42,127,2422376740
78,20,5,ISIP_5,17,1,48,56,2422383076
78,20,5,ISIP_5,18,5,42,127,2422876584
78,20,5,ISIP_5,19,1,48,59,2422887708
78,20,5,ISIP_5,20,1,48,57,2423371600
78,20,5,ISIP_5,21,5,42,127,2423377392
78,20,5,ISIP_5,22,1,48,61,2423864788
78,20,5,ISIP_5,23,5,42,127,2423877236
78,20,5,ISIP_5,24,5,42,127,2424376712
78,20,5,ISIP_5,25,1,48,59,2424378428
78,20,5,ISIP_5,26,5,42,127,2424877384
78,20,5,ISIP_5,27,1,48,59,2424898004
78,20,5,ISIP_5,28,5,42,127,2425377300
78,20,5,ISIP_5,29,1,48,60,2425399424
78,20,5,ISIP_5,30,5,42,127,2425876772
78,20,5,ISIP_5,31,1,48,58,2425878860
78,20,5,ISIP_5,32,5,42,127,2426376616
78,20,5,ISIP_5,33,1,48,56,2426379888
78,20,5,ISIP_5,34,5,42,127,2426877504
78,20,5,ISIP_5,35,1,48,56,2426884964
78,20,5,ISIP_5,36,1,48,61,2427368036
78,20,5,ISIP_5,37,5,42,127,2427377268
78,20,5,ISIP_5,38,5,42,127,2427876596
78,20,5,ISIP_5,39,1,48,59,2427881136
78,20,5,ISIP_5,40,1,48,55,2428374396
78,20,5,ISIP_5,41,5,42,127,2428376360
78,20,5,ISIP_5,42,1,48,61,2428876356
78,20,5,ISIP_5,43,5,42,127,2428878004
78,20,5,ISIP_5,44,1,48,54,2429353728
78,20,5,ISIP_5,45,5,42,127,2429376800
78,20,5,ISIP_5,46,1,48,61,2429869580
78,20,5,ISIP_5,47,5,42,127,2429876716
78,20,5,ISIP_5,48,1,48,53,2430368348
78,20,5,ISIP_5,49,5,42,127,2430377308
78,20,5,ISIP_5,50,1,48,56,2430867144
78,20,5,ISIP_5,51,5,42,127,2430877200
78,20,5,ISIP_5,52,1,48,59,2431365348
78,20,5,ISIP_5,53,5,42,127,2431376676
78,20,5,ISIP_5,54,1,48,57,2431869824
78,20,5,ISIP_5,55,5,42,127,2431876368
78,20,5,ISIP_5,56,5,42,127,2432377268
78,20,5,ISIP_5,57,1,48,61,2432382184
78,20,5,ISIP_5,58,5,42,127,2432877188
78,20,5,ISIP_5,59,1,48,60,2432891600
78,20,5,ISIP_5,60,1,48,59,2433360312
78,20,5,ISIP_5,61,5,42,127,2433376648
78,20,5,ISIP_5,62,1,48,61,2433849156
78,20,5,ISIP_5,63,5,42,127,2433877320
78,20,5,ISIP_5,64,1,48,58,2434351996
78,20,5,ISIP_5,65,5,42,127,2434376940
78,20,5,ISIP_5,66,1,48,56,2434843164
78,20,5,ISIP_5,67,5,42,127,2434876708
78,20,5,ISIP_5,68,1,48,57,2435365900
78,20,5,ISIP_5,69,5,42,127,2435376628
78,20,5,ISIP_5,70,1,48,61,2435874416
78,20,5,ISIP_5,71,5,42,127,2435877368
78,20,5,ISIP_5,72,1,48,57,2436366932
78,20,5,ISIP_5,73,5,42,127,2436376988
78,20,5,ISIP_5,74,1,48,59,2436858028
78,20,5,ISIP_5,75,5,42,127,2436876684
78,20,5,ISIP_5,76,1,48,59,2437358696
78,20,5,ISIP_5,77,1,48,58,2437865188
78,20,5,ISIP_5,78,1,48,57,2438358448
78,20,5,ISIP_5,79,1,48,55,2438839520
78,20,5,ISIP_5,80,1,48,59,2439359704
78,20,5,ISIP_5,81,1,48,59,2439871956
78,20,5,ISIP_5,82,1,48,59,2440376072
78,20,5,ISIP_5,83,1,48,62,2440849096
78,20,5,ISIP_5,84,1,48,64,2441355068
78,20,5,ISIP_5,85,1,48,60,2441857676
78,20,5,ISIP_5,86,1,48,60,2442349892
78,20,5,ISIP_5,87,1,48,65,2442847856
78,20,5,ISIP_5,88,1,48,65,2443348520
78,20,5,ISIP_5,89,1,48,61,2443823004
78,20,5,ISIP_5,90,1,48,65,2444318956
78,20,5,ISIP_5,91,1,48,62,2444808696
78,20,5,ISIP_5,92,1,48,58,2445288192
78,20,5,ISIP_5,93,1,48,59,2445769556
78,20,5,ISIP_5,94,1,48,62,2446258924
78,20,5,ISIP_5,95,1,48,62,2446741768
78,20,5,ISIP_5,96,1,48,63,2447238240
78,20,5,ISIP_5,97,1,48,62,2447711604
78,20,5,ISIP_5,98,1,48,64,2448205752
78,20,5,ISIP_5,99,1,48,63,2448693260
78,20,5,ISIP_5,100,1,48,62,2449202596
78,20,5,ISIP_5,101,1,48,62,2449695480
78,20,5,ISIP_5,102,1,48,63,2450171756
78,20,5,ISIP_5,103,1,48,64,2450649908
78,20,5,ISIP_5,104,1,48,62,2451150272
78,20,5,ISIP_5,105,1,48,62,2451655196
78,20,5,ISIP_5,106,1,48,62,2452137828
78,20,5,ISIP_5,107,1,48,66,2452631440
78,20,5,ISIP_5,108,1,48,65,2453147360
78,20,5,ISIP_5,109,1,48,69,2453638600
78,20,5,ISIP_5,110,1,48,66,2454134328
78,20,5,ISIP_5,111,1,48,61,2454602676
78,20,5,ISIP_5,112,1,48,62,2455075660
78,20,5,ISIP_5,113,1,48,65,2455560472
78,20,5,ISIP_5,114,1,48,67,2456036676
78,20,5,ISIP_5,115,1,48,61,2456504052
78,20,5,ISIP_5,116,1,48,61,2456988908
78,20,5,ISIP_5,117,1,48,61,2457476256
78,20,5,ISIP_5,118,1,48,64,2457948868
78,20,5,ISIP_5,119,1,48,60,2458411908
78,20,5,ISIP_5,120,1,48,65,2458878388
78,20,5,ISIP_5,121,1,48,61,2459371408
78,20,5,ISIP_5,122,1,48,63,2459859800
78,20,5,ISIP_5,123,1,48,60,2460340352
78,20,5,ISIP_5,124,1,48,59,2460820944
78,20,5,ISIP_5,125,1,48,62,2461316220
78,20,5,ISIP_5,126,1,48,65,2461801552
78,20,5,ISIP_5,127,1,48,61,2462276780
78,20,5,ISIP_5,128,1,48,62,2462771312
78,20,5,ISIP_5,129,1,48,66,2463266436
78,20,5,ISIP_5,130,1,48,67,2463742416
78,20,5,ISIP_5,131,1,48,68,2464241812
78,20,5,ISIP_5,132,1,48,65,2464741652
78,20,5,ISIP_5,133,1,48,64,2465233188
78,20,5,ISIP_5,134,1,48,69,2465732880
78,20,5,ISIP_5,135,1,48,66,2466200456
78,20,5,ISIP_5,136,1,48,67,2466710548
78,20,5,ISIP_5,137,1,48,70,2467218612
78,20,5,ISIP_5,138,1,48,65,2467711420
78,20,5,ISIP_5,139,1,48,71,2468207144
78,20,5,ISIP_5,140,1,48,70,2468694048
78,20,5,ISIP_5,141,1,48,62,2469172192
78,20,5,ISIP_5,142,1,48,66,2469659388
78,20,5,ISIP_5,143,1,48,62,2470109040
78,20,5,ISIP_5,144,1,48,67,2470615240
78,20,5,ISIP_5,145,1,48,64,2471119940
78,20,5,ISIP_5,146,1,48,62,2471589336
78,20,5,ISIP_5,147,1,48,69,2472075916
78,20,5,ISIP_5,148,1,48,72,2472574260
78,20,5,ISIP_5,149,1,48,65,2473066464
78,20,5,ISIP_5,150,1,48,67,2473556732
78,20,5,ISIP_5,151,1,48,65,2474027552
78,20,5,ISIP_5,152,1,48,69,2474511764
78,20,5,ISIP_5,153,1,48,62,2474989988
78,20,5,ISIP_5,154,1,48,62,2475473224
78,20,5,ISIP_5,155,1,48,61,2475971792
78,20,5,ISIP_5,156,1,48,64,2476470060
78,20,5,ISIP_5,157,1,48,69,2476965708
78,20,5,ISIP_5,158,1,48,74,2477458644
78,20,5,ISIP_5,159,1,48,69,2477914052
78,20,5,ISIP_5,160,1,48,72,2478434016
78,20,5,ISIP_5,161,1,48,73,2478957340
78,20,5,ISIP_5,162,1,48,71,2479442672
78,20,5,ISIP_5,163,1,48,71,2479931068
78,20,5,ISIP_5,164,1,48,73,2480425896
78,20,5,ISIP_5,165,1,48,70,2480928428
78,20,5,ISIP_5,166,1,48,68,2481425276
78,20,5,ISIP_5,167,1,48,65,2481886820
78,20,5,ISIP_5,168,1,48,76,2482377236
78,20,5,ISIP_5,169,1,48,70,2482882912
78,20,5,ISIP_5,170,1,48,71,2483360952
78,20,5,ISIP_5,171,1,48,70,2483851812
78,20,5,ISIP_5,172,1,48,69,2484346636
78,20,5,ISIP_5,173,1,48,74,2484853888
78,20,5,ISIP_5,174,1,48,70,2485356412
78,20,5,ISIP_5,175,1,48,68,2485831052
78,20,5,ISIP_5,176,1,48,69,2486322812
78,20,5,ISIP_5,177,1,48,73,2486819504
78,20,5,ISIP_5,178,1,48,71,2487305288
78,20,5,ISIP_5,179,1,48,78,2487820688
78,20,5,ISIP_5,180,1,48,75,2488304516
78,20,5,ISIP_5,181,1,48,74,2488815352
78,20,5,ISIP_5,182,1,48,65,2489299928
78,20,5,ISIP_5,183,1,48,69,2489784216
78,20,5,ISIP_5,184,1,48,70,2490275752
78,20,5,ISIP_5,185,1,48,66,2490761884
78,20,5,ISIP_5,186,1,48,68,2491261348
78,20,5,ISIP_5,187,1,48,74,2491755128
78,20,5,ISIP_5,188,1,48,55,2492246888
78,20,5,ISIP_5,189,1,48,69,2492721452
78,20,5,ISIP_5,190,1,48,67,2493215080
78,20,5,ISIP_5,191,1,48,65,2493682984
78,20,5,ISIP_5,192,1,48,70,2494158136
78,20,5,ISIP_5,193,1,48,70,2494658728
78,20,5,ISIP_5,194,1,48,68,2495161260
78,20,5,ISIP_5,195,1,48,71,2495628912
78,20,5,ISIP_5,196,1,48,70,2496114316
78,20,5,ISIP_5,197,1,48,70,2496595984
78,20,5,ISIP_5,198,1,48,69,2497074876
78,20,5,ISIP_5,0,9999,9999,9999,2417374324
78,20,5,ISIP_5,1,9999,9999,9999,2417875012
78,20,5,ISIP_5,2,9999,9999,9999,2418374728
78,20,5,ISIP_5,3,9999,9999,9999,2418874444
78,20,5,ISIP_5,4,9999,9999,9999,2419374156
78,20,5,ISIP_5,5,9999,9999,9999,2419874876
78,20,5,ISIP_5,6,9999,9999,9999,2420374628
78,20,5,ISIP_5,7,9999,9999,9999,2420874320
78,20,5,ISIP_5,8,9999,9999,9999,2421375064
78,20,5,ISIP_5,9,9999,9999,9999,2421874756
78,20,5,ISIP_5,10,9999,9999,9999,2422374452
78,20,5,ISIP_5,11,9999,9999,9999,2422874224
78,20,5,ISIP_5,12,9999,9999,9999,2423374956
78,20,5,ISIP_5,13,9999,9999,9999,2423874652
78,20,5,ISIP_5,14,9999,9999,9999,2424374352
78,20,5,ISIP_5,15,9999,9999,9999,2424875096
78,20,5,ISIP_5,16,9999,9999,9999,2425374792
78,20,5,ISIP_5,17,9999,9999,9999,2425874484
78,20,5,ISIP_5,18,9999,9999,9999,2426374256
78,20,5,ISIP_5,19,9999,9999,9999,2426874996
78,20,5,ISIP_5,20,9999,9999,9999,2427374684
78,20,5,ISIP_5,21,9999,9999,9999,2427874384
78,20,5,ISIP_5,22,9999,9999,9999,2428374112
78,20,5,ISIP_5,23,9999,9999,9999,2428874824
78,20,5,ISIP_5,24,9999,9999,9999,2429374512
78,20,5,ISIP_5,25,9999,9999,9999,2429874284
78,20,5,ISIP_5,26,9999,9999,9999,2430375024
78,20,5,ISIP_5,27,9999,9999,9999,2430874692
78,20,5,ISIP_5,28,9999,9999,9999,2431374388
78,20,5,ISIP_5,29,9999,9999,9999,2431874156
78,20,5,ISIP_5,30,9999,9999,9999,2432374832
78,20,5,ISIP_5,31,9999,9999,9999,2432874600
78,20,5,ISIP_5,32,9999,9999,9999,2433374288
78,20,5,ISIP_5,33,9999,9999,9999,2433875032
78,20,5,ISIP_5,34,9999,9999,9999,2434374728
78,20,5,ISIP_5,35,9999,9999,9999,2434874424
78,20,5,ISIP_5,36,9999,9999,9999,2435374192
78,20,5,ISIP_5,37,9999,9999,9999,2435874932
78,20,5,ISIP_5,38,9999,9999,9999,2436374628
78,20,5,ISIP_5,39,9999,9999,9999,2436874324
78,20,5,ISIP_5,40,9999,9999,9999,2437375064
78,20,5,ISIP_5,41,9999,9999,9999,2437874756
78,20,5,ISIP_5,42,9999,9999,9999,2438374448
78,20,5,ISIP_5,43,9999,9999,9999,2438874212
78,20,5,ISIP_5,44,9999,9999,9999,2439374952
78,20,5,ISIP_5,45,9999,9999,9999,2439874640
78,20,5,ISIP_5,46,9999,9999,9999,2440374340
78,20,5,ISIP_5,47,9999,9999,9999,2440875068
78,20,5,ISIP_5,48,9999,9999,9999,2441374808
78,20,5,ISIP_5,49,9999,9999,9999,2441874500
78,20,5,ISIP_5,50,9999,9999,9999,2442374264
78,20,5,ISIP_5,51,9999,9999,9999,2442875000
78,20,5,ISIP_5,52,9999,9999,9999,2443374692
78,20,5,ISIP_5,53,9999,9999,9999,2443874380
78,20,5,ISIP_5,54,9999,9999,9999,2444374072
78,20,5,ISIP_5,55,9999,9999,9999,2444874812
78,20,5,ISIP_5,56,9999,9999,9999,2445374576
78,20,5,ISIP_5,57,9999,9999,9999,2445874252
78,20,5,ISIP_5,58,9999,9999,9999,2446374992
78,20,5,ISIP_5,59,9999,9999,9999,2446874680
78,20,5,ISIP_5,60,9999,9999,9999,2447374448
78,20,5,ISIP_5,61,9999,9999,9999,2447874136
78,20,5,ISIP_5,62,9999,9999,9999,2448374876
78,20,5,ISIP_5,63,9999,9999,9999,2448874568
78,20,5,ISIP_5,64,9999,9999,9999,2449374256
78,20,5,ISIP_5,65,9999,9999,9999,2449874996
78,20,5,ISIP_5,66,9999,9999,9999,2450374760
78,20,5,ISIP_5,67,9999,9999,9999,2450874448
78,20,5,ISIP_5,68,9999,9999,9999,2451374140
78,20,5,ISIP_5,69,9999,9999,9999,2451874928
78,20,5,ISIP_5,70,9999,9999,9999,2452374616
78,20,5,ISIP_5,71,9999,9999,9999,2452874308
78,20,5,ISIP_5,72,9999,9999,9999,2453375048
78,20,5,ISIP_5,73,9999,9999,9999,2453874740
78,20,5,ISIP_5,74,9999,9999,9999,2454374504
78,20,5,ISIP_5,75,9999,9999,9999,2454874192
78,20,5,ISIP_5,76,9999,9999,9999,2455374932
78,20,5,ISIP_5,77,9999,9999,9999,2455874620
78,20,5,ISIP_5,78,9999,9999,9999,2456374388
78,20,5,ISIP_5,79,9999,9999,9999,2456875124
78,20,5,ISIP_5,80,9999,9999,9999,2457374816
78,20,5,ISIP_5,81,9999,9999,9999,2457874504
78,20,5,ISIP_5,82,9999,9999,9999,2458374196
78,20,5,ISIP_5,83,9999,9999,9999,2458874932
78,20,5,ISIP_5,84,9999,9999,9999,2459374692
78,20,5,ISIP_5,85,9999,9999,9999,2459874380
78,20,5,ISIP_5,86,9999,9999,9999,2460374072
78,20,5,ISIP_5,87,9999,9999,9999,2460874812
78,20,5,ISIP_5,88,9999,9999,9999,2461374576
78,20,5,ISIP_5,89,9999,9999,9999,2461874268
78,20,5,ISIP_5,90,9999,9999,9999,2462375024
78,20,5,ISIP_5,91,9999,9999,9999,2462874728
78,20,5,ISIP_5,92,9999,9999,9999,2463374420
78,20,5,ISIP_5,93,9999,9999,9999,2463874112
78,20,5,ISIP_5,94,9999,9999,9999,2464374848
78,20,5,ISIP_5,95,9999,9999,9999,2464874616
78,20,5,ISIP_5,96,9999,9999,9999,2465374304
78,20,5,ISIP_5,97,9999,9999,9999,2465875044
78,20,5,ISIP_5,98,9999,9999,9999,2466374736
78,20,5,ISIP_5,99,9999,9999,9999,2466874424
78,20,5,ISIP_5,100,9999,9999,9999,2467374188
78,20,5,ISIP_5,101,9999,9999,9999,2467874924
78,20,5,ISIP_5,102,9999,9999,9999,2468374616
78,20,5,ISIP_5,103,9999,9999,9999,2468874308
78,20,5,ISIP_5,104,9999,9999,9999,2469375044
78,20,5,ISIP_5,105,9999,9999,9999,2469874808
78,20,5,ISIP_5,106,9999,9999,9999,2470374500
78,20,5,ISIP_5,107,9999,9999,9999,2470874192
78,20,5,ISIP_5,108,9999,9999,9999,2471374928
78,20,5,ISIP_5,109,9999,9999,9999,2471874616
78,20,5,ISIP_5,110,9999,9999,9999,2472374384
78,20,5,ISIP_5,111,9999,9999,9999,2472875120
78,20,5,ISIP_5,112,9999,9999,9999,2473374788
78,20,5,ISIP_5,113,9999,9999,9999,2473874552
78,20,5,ISIP_5,114,9999,9999,9999,2474374244
78,20,5,ISIP_5,115,9999,9999,9999,2474874980
78,20,5,ISIP_5,116,9999,9999,9999,2475374672
78,20,5,ISIP_5,117,9999,9999,9999,2475874360
78,20,5,ISIP_5,118,9999,9999,9999,2476374128
78,20,5,ISIP_5,119,9999,9999,9999,2476874864
78,20,5,ISIP_5,120,9999,9999,9999,2477374556
78,20,5,ISIP_5,121,9999,9999,9999,2477874248
78,20,5,ISIP_5,122,9999,9999,9999,2478374984
78,20,5,ISIP_5,123,9999,9999,9999,2478874676
78,20,5,ISIP_5,124,9999,9999,9999,2479374440
78,20,5,ISIP_5,125,9999,9999,9999,2479874132
78,20,5,ISIP_5,126,9999,9999,9999,2480374868
78,20,5,ISIP_5,127,9999,9999,9999,2480874560
78,20,5,ISIP_5,128,9999,9999,9999,2481374324
78,20,5,ISIP_5,129,9999,9999,9999,2481875060
78,20,5,ISIP_5,130,9999,9999,9999,2482374752
78,20,5,ISIP_5,131,9999,9999,9999,2482874444
78,20,5,ISIP_5,132,9999,9999,9999,2483374128
78,20,5,ISIP_5,133,9999,9999,9999,2483874912
78,20,5,ISIP_5,134,9999,9999,9999,2484374604
78,20,5,ISIP_5,135,9999,9999,9999,2484874296
78,20,5,ISIP_5,136,9999,9999,9999,2485375032
78,20,5,ISIP_5,137,9999,9999,9999,2485874796
78,20,5,ISIP_5,138,9999,9999,9999,2486374488
78,20,5,ISIP_5,139,9999,9999,9999,2486874176
78,20,5,ISIP_5,140,9999,9999,9999,2487374916
78,20,5,ISIP_5,141,9999,9999,9999,2487874680
78,20,5,ISIP_5,142,9999,9999,9999,2488374372
78,20,5,ISIP_5,143,9999,9999,9999,2488875108
78,20,5,ISIP_5,144,9999,9999,9999,2489374800
78,20,5,ISIP_5,145,9999,9999,9999,2489874492
78,20,5,ISIP_5,146,9999,9999,9999,2490374240
78,20,5,ISIP_5,147,9999,9999,9999,2490874976
78,20,5,ISIP_5,148,9999,9999,9999,2491374668
78,20,5,ISIP_5,149,9999,9999,9999,2491874356
78,20,5,ISIP_5,150,9999,9999,9999,2492374120
78,20,5,ISIP_5,151,9999,9999,9999,2492874860
78,20,5,ISIP_5,152,9999,9999,9999,2493374548
78,20,5,ISIP_5,153,9999,9999,9999,2493874240
78,20,5,ISIP_5,154,9999,9999,9999,2494374980
78,20,5,ISIP_5,155,9999,9999,9999,2494874720
78,20,5,ISIP_5,156,9999,9999,9999,2495374412
78,20,5,ISIP_5,157,9999,9999,9999,2495874100
78,20,5,ISIP_5,158,9999,9999,9999,2496374836
78,20,5,ISIP_5,159,9999,9999,9999,2496874604
78,21,3,ISIP_8,0,5,42,127,2518661572
78,21,3,ISIP_8,1,5,42,127,2519462472
78,21,3,ISIP_8,2,5,42,127,2520261856
78,21,3,ISIP_8,3,5,42,127,2521061612
78,21,3,ISIP_8,4,1,48,68,2521847704
78,21,3,ISIP_8,5,5,42,127,2521861580
78,21,3,ISIP_8,6,1,48,59,2522652528
78,21,3,ISIP_8,7,5,42,127,2522662360
78,21,3,ISIP_8,8,1,48,60,2523439920
78,21,3,ISIP_8,9,5,42,127,2523461872
78,21,3,ISIP_8,10,5,42,127,2524261612
78,21,3,ISIP_8,11,1,48,66,2524271088
78,21,3,ISIP_8,12,1,48,63,2525031536
78,21,3,ISIP_8,13,5,42,127,2525061412
78,21,3,ISIP_8,14,1,48,56,2525837772
78,21,3,ISIP_8,15,5,42,127,2525862216
78,21,3,ISIP_8,16,1,48,64,2526582980
78,21,3,ISIP_8,17,5,42,127,2526662100
78,21,3,ISIP_8,18,1,48,61,2527394704
78,21,3,ISIP_8,19,5,42,127,2527461612
78,21,3,ISIP_8,20,1,48,63,2528259836
78,21,3,ISIP_8,21,5,42,127,2528261344
78,21,3,ISIP_8,22,1,48,65,2529043840
78,21,3,ISIP_8,23,5,42,127,2529062272
78,21,3,ISIP_8,24,1,48,64,2529832500
78,21,3,ISIP_8,25,5,42,127,2529861932
78,21,3,ISIP_8,26,1,48,61,2530613388
78,21,3,ISIP_8,27,5,42,127,2530661740
78,21,3,ISIP_8,28,1,48,65,2531423740
78,21,3,ISIP_8,29,5,42,127,2531461548
78,21,3,ISIP_8,30,1,48,62,2532207692
78,21,3,ISIP_8,31,5,42,127,2532262348
78,21,3,ISIP_8,32,1,48,72,2533018416
78,21,3,ISIP_8,33,5,42,127,2533062084
78,21,3,ISIP_8,34,1,48,59,2533832608
78,21,3,ISIP_8,35,5,42,127,2533861668
78,21,3,ISIP_8,36,1,48,57,2534617684
78,21,3,ISIP_8,37,5,42,127,2534661476
78,21,3,ISIP_8,38,1,48,55,2535454516
78,21,3,ISIP_8,39,5,42,127,2535462180
78,21,3,ISIP_8,40,1,48,61,2536177880
78,21,3,ISIP_8,41,5,42,127,2536262136
78,21,3,ISIP_8,42,1,48,66,2536995044
78,21,3,ISIP_8,43,5,42,127,2537061724
78,21,3,ISIP_8,44,5,42,127,2537861536
78,21,3,ISIP_8,45,1,48,62,2537871012
78,21,3,ISIP_8,46,1,48,58,2538654124
78,21,3,ISIP_8,47,5,42,127,2538662336
78,21,3,ISIP_8,48,1,48,61,2539412720
78,21,3,ISIP_8,49,5,42,127,2539462068
78,21,3,ISIP_8,50,1,48,62,2540251672
78,21,3,ISIP_8,51,5,42,127,2540261728
78,21,3,ISIP_8,52,1,48,65,2541018420
78,21,3,ISIP_8,53,5,42,127,2541061464
78,21,3,ISIP_8,54,1,48,60,2541838044
78,21,3,ISIP_8,55,5,42,127,2541862168
78,21,3,ISIP_8,56,1,48,62,2542629476
78,21,3,ISIP_8,57,1,48,62,2543403032
78,21,3,ISIP_8,58,1,48,63,2544163044
78,21,3,ISIP_8,59,1,48,67,2544961128
78,21,3,ISIP_8,60,1,48,66,2545763320
78,21,3,ISIP_8,61,1,48,56,2546561184
78,21,3,ISIP_8,62,1,48,58,2547363032
78,21,3,ISIP_8,63,1,48,63,2548153332
78,21,3,ISIP_8,64,1,48,62,2548942816
78,21,3,ISIP_8,65,1,48,66,2549733796
78,21,3,ISIP_8,66,1,48,65,2550522676
78,21,3,ISIP_8,67,1,48,65,2551325024
78,21,3,ISIP_8,68,1,48,60,2552103964
78,21,3,ISIP_8,69,1,48,65,2552892476
78,21,3,ISIP_8,70,1,48,60,2553719276
78,21,3,ISIP_8,71,1,48,66,2554570268
78,21,3,ISIP_8,72,1,48,68,2555392660
78,21,3,ISIP_8,73,1,48,72,2556225676
78,21,3,ISIP_8,74,1,48,78,2557044256
78,21,3,ISIP_8,75,1,48,68,2557897724
78,21,3,ISIP_8,76,1,48,73,2558716980
78,21,3,ISIP_8,77,1,48,71,2559535484
78,21,3,ISIP_8,78,1,48,66,2560331324
78,21,3,ISIP_8,79,1,48,68,2561152516
78,21,3,ISIP_8,80,1,48,68,2561949624
78,21,3,ISIP_8,81,1,48,70,2562740408
78,21,3,ISIP_8,82,1,48,72,2563543652
78,21,3,ISIP_8,83,1,48,72,2564391252
78,21,3,ISIP_8,84,1,48,74,2565219628
78,21,3,ISIP_8,85,1,48,76,2566033940
78,21,3,ISIP_8,86,1,48,70,2566814972
78,21,3,ISIP_8,87,1,48,74,2567597868
78,21,3,ISIP_8,88,1,48,67,2568382568
78,21,3,ISIP_8,89,1,48,60,2569187076
78,21,3,ISIP_8,90,1,48,74,2569996232
78,21,3,ISIP_8,91,1,48,71,2570841144
78,21,3,ISIP_8,92,1,48,70,2571680988
78,21,3,ISIP_8,93,1,48,67,2572495524
78,21,3,ISIP_8,94,1,48,70,2573283888
78,21,3,ISIP_8,95,1,48,63,2574083616
78,21,3,ISIP_8,96,1,48,70,2574891944
78,21,3,ISIP_8,97,1,48,63,2575689280
78,21,3,ISIP_8,98,1,48,63,2576485572
78,21,3,ISIP_8,99,1,48,69,2577267344
78,21,3,ISIP_8,100,1,48,71,2578067824
78,21,3,ISIP_8,101,1,48,70,2578874388
78,21,3,ISIP_8,102,1,48,69,2579681520
78,21,3,ISIP_8,103,1,48,70,2580471376
78,21,3,ISIP_8,104,1,48,67,2581263924
78,21,3,ISIP_8,105,1,48,65,2581995508
78,21,3,ISIP_8,106,1,48,76,2582799124
78,21,3,ISIP_8,107,1,48,73,2583601256
78,21,3,ISIP_8,108,1,48,75,2584376296
78,21,3,ISIP_8,109,1,48,72,2585192260
78,21,3,ISIP_8,110,1,48,70,2585973368
78,21,3,ISIP_8,111,1,48,68,2586781848
78,21,3,ISIP_8,112,1,48,76,2587611420
78,21,3,ISIP_8,113,1,48,73,2588401424
78,21,3,ISIP_8,114,1,48,69,2589195020
78,21,3,ISIP_8,115,1,48,70,2589966852
78,21,3,ISIP_8,116,1,48,68,2590775180
78,21,3,ISIP_8,117,1,48,76,2591622032
78,21,3,ISIP_8,118,1,48,75,2592448936
78,21,3,ISIP_8,119,1,48,22,2593267364
78,21,3,ISIP_8,120,1,38,14,2593279388
78,21,3,ISIP_8,121,1,48,60,2594003100
78,21,3,ISIP_8,122,1,48,72,2594777244
78,21,3,ISIP_8,123,1,48,65,2595579068
78,21,3,ISIP_8,124,1,48,71,2596332800
78,21,3,ISIP_8,125,1,48,68,2597101040
78,21,3,ISIP_8,126,1,48,66,2597863816
78,21,3,ISIP_8,127,1,48,68,2598643788
78,21,3,ISIP_8,128,1,48,76,2599435292
78,21,3,ISIP_8,129,1,48,68,2600235612
78,21,3,ISIP_8,130,1,48,70,2601026892
78,21,3,ISIP_8,131,1,48,68,2601820936
78,21,3,ISIP_8,132,1,48,69,2602609144
78,21,3,ISIP_8,133,1,48,67,2603394736
78,21,3,ISIP_8,134,1,48,67,2604180032
78,21,3,ISIP_8,135,1,48,75,2604965644
78,21,3,ISIP_8,136,1,48,73,2605784080
78,21,3,ISIP_8,137,1,48,72,2606553216
78,21,3,ISIP_8,138,1,48,62,2607328032
78,21,3,ISIP_8,139,1,48,76,2608128364
78,21,3,ISIP_8,140,1,48,66,2608932804
78,21,3,ISIP_8,141,1,48,71,2609723484
78,21,3,ISIP_8,142,1,48,71,2610474668
78,21,3,ISIP_8,143,1,48,66,2611273648
78,21,3,ISIP_8,144,1,48,67,2612052732
78,21,3,ISIP_8,145,1,48,67,2612845204
78,21,3,ISIP_8,146,1,48,68,2613657876
78,21,3,ISIP_8,147,1,48,65,2614459048
78,21,3,ISIP_8,148,1,48,64,2615247184
78,21,3,ISIP_8,149,1,48,71,2616033000
78,21,3,ISIP_8,150,1,48,68,2616815976
78,21,3,ISIP_8,151,1,48,67,2617595732
78,21,3,ISIP_8,152,1,48,67,2618368832
78,21,3,ISIP_8,153,1,48,72,2619161460
78,21,3,ISIP_8,154,1,48,67,2619986996
78,21,3,ISIP_8,155,1,48,73,2620782532
78,21,3,ISIP_8,156,1,48,70,2621580400
78,21,3,ISIP_8,157,1,48,68,2622383064
78,21,3,ISIP_8,158,1,48,70,2623184512
78,21,3,ISIP_8,159,1,48,71,2623992544
78,21,3,ISIP_8,160,1,48,68,2624767588
78,21,3,ISIP_8,161,1,48,66,2625596496
78,21,3,ISIP_8,162,1,48,68,2626362640
78,21,3,ISIP_8,163,1,48,70,2627156084
78,21,3,ISIP_8,164,1,48,76,2627939660
78,21,3,ISIP_8,165,1,48,69,2628762724
78,21,3,ISIP_8,166,1,48,71,2629551484
78,21,3,ISIP_8,167,1,48,57,2630296280
78,21,3,ISIP_8,168,1,48,73,2631086240
78,21,3,ISIP_8,169,1,48,74,2631878408
78,21,3,ISIP_8,170,1,48,72,2632670888
78,21,3,ISIP_8,171,1,48,71,2633454308
78,21,3,ISIP_8,172,1,48,64,2634215816
78,21,3,ISIP_8,173,1,48,74,2635003428
78,21,3,ISIP_8,174,1,48,70,2635838688
78,21,3,ISIP_8,175,1,48,71,2636609772
78,21,3,ISIP_8,176,1,48,63,2637389300
78,21,3,ISIP_8,177,1,48,69,2638175564
78,21,3,ISIP_8,0,9999,9999,9999,2518659136
78,21,3,ISIP_8,1,9999,9999,9999,2519459960
78,21,3,ISIP_8,2,9999,9999,9999,2520259640
78,21,3,ISIP_8,3,9999,9999,9999,2521059396
78,21,3,ISIP_8,4,9999,9999,9999,2521859144
78,21,3,ISIP_8,5,9999,9999,9999,2522659924
78,21,3,ISIP_8,6,9999,9999,9999,2523459660
78,21,3,ISIP_8,7,9999,9999,9999,2524259396
78,21,3,ISIP_8,8,9999,9999,9999,2525059124
78,21,3,ISIP_8,9,9999,9999,9999,2525859928
78,21,3,ISIP_8,10,9999,9999,9999,2526659660
78,21,3,ISIP_8,11,9999,9999,9999,2527459396
78,21,3,ISIP_8,12,9999,9999,9999,2528259136
78,21,3,ISIP_8,13,9999,9999,9999,2529059908
78,21,3,ISIP_8,14,9999,9999,9999,2529859644
78,21,3,ISIP_8,15,9999,9999,9999,2530659376
78,21,3,ISIP_8,16,9999,9999,9999,2531459184
78,21,3,ISIP_8,17,9999,9999,9999,2532259912
78,21,3,ISIP_8,18,9999,9999,9999,2533059648
78,21,3,ISIP_8,19,9999,9999,9999,2533859380
78,21,3,ISIP_8,20,9999,9999,9999,2534659188
78,21,3,ISIP_8,21,9999,9999,9999,2535459892
78,21,3,ISIP_8,22,9999,9999,9999,2536259700
78,21,3,ISIP_8,23,9999,9999,9999,2537059436
78,21,3,ISIP_8,24,9999,9999,9999,2537859176
78,21,3,ISIP_8,25,9999,9999,9999,2538659900
78,21,3,ISIP_8,26,9999,9999,9999,2539459708
78,21,3,ISIP_8,27,9999,9999,9999,2540259440
78,21,3,ISIP_8,28,9999,9999,9999,2541059176
78,21,3,ISIP_8,29,9999,9999,9999,2541859952
78,21,3,ISIP_8,30,9999,9999,9999,2542659688
78,21,3,ISIP_8,31,9999,9999,9999,2543459420
78,21,3,ISIP_8,32,9999,9999,9999,2544259132
78,21,3,ISIP_8,33,9999,9999,9999,2545059932
78,21,3,ISIP_8,34,9999,9999,9999,2545859632
78,21,3,ISIP_8,35,9999,9999,9999,2546659392
78,21,3,ISIP_8,36,9999,9999,9999,2547459120
78,21,3,ISIP_8,37,9999,9999,9999,2548259896
78,21,3,ISIP_8,38,9999,9999,9999,2549059700
78,21,3,ISIP_8,39,9999,9999,9999,2549859432
78,21,3,ISIP_8,40,9999,9999,9999,2550659160
78,21,3,ISIP_8,41,9999,9999,9999,2551459960
78,21,3,ISIP_8,42,9999,9999,9999,2552259692
78,21,3,ISIP_8,43,9999,9999,9999,2553059420
78,21,3,ISIP_8,44,9999,9999,9999,2553859148
78,21,3,ISIP_8,45,9999,9999,9999,2554659940
78,21,3,ISIP_8,46,9999,9999,9999,2555459672
78,21,3,ISIP_8,47,9999,9999,9999,2556259400
78,21,3,ISIP_8,48,9999,9999,9999,2557059132
78,21,3,ISIP_8,49,9999,9999,9999,2557859936
78,21,3,ISIP_8,50,9999,9999,9999,2558659664
78,21,3,ISIP_8,51,9999,9999,9999,2559459396
78,21,3,ISIP_8,52,9999,9999,9999,2560259128
78,21,3,ISIP_8,53,9999,9999,9999,2561059900
78,21,3,ISIP_8,54,9999,9999,9999,2561859704
78,21,3,ISIP_8,55,9999,9999,9999,2562659432
78,21,3,ISIP_8,56,9999,9999,9999,2563459164
78,21,3,ISIP_8,57,9999,9999,9999,2564259964
78,21,3,ISIP_8,58,9999,9999,9999,2565059692
78,21,3,ISIP_8,59,9999,9999,9999,2565859420
78,21,3,ISIP_8,60,9999,9999,9999,2566659148
78,21,3,ISIP_8,61,9999,9999,9999,2567459900
78,21,3,ISIP_8,62,9999,9999,9999,2568259704
78,21,3,ISIP_8,63,9999,9999,9999,2569059432
78,21,3,ISIP_8,64,9999,9999,9999,2569859160
78,21,3,ISIP_8,65,9999,9999,9999,2570659888
78,21,3,ISIP_8,66,9999,9999,9999,2571459692
78,21,3,ISIP_8,67,9999,9999,9999,2572259424
78,21,3,ISIP_8,68,9999,9999,9999,2573059152
78,21,3,ISIP_8,69,9999,9999,9999,2573859928
78,21,3,ISIP_8,70,9999,9999,9999,2574659660
78,21,3,ISIP_8,71,9999,9999,9999,2575459388
78,21,3,ISIP_8,72,9999,9999,9999,2576259192
78,21,3,ISIP_8,73,9999,9999,9999,2577059916
78,21,3,ISIP_8,74,9999,9999,9999,2577859644
78,21,3,ISIP_8,75,9999,9999,9999,2578659448
78,21,3,ISIP_8,76,9999,9999,9999,2579459180
78,21,3,ISIP_8,77,9999,9999,9999,2580259956
78,21,3,ISIP_8,78,9999,9999,9999,2581059684
78,21,3,ISIP_8,79,9999,9999,9999,2581859412
78,21,3,ISIP_8,80,9999,9999,9999,2582659144
78,21,3,ISIP_8,81,9999,9999,9999,2583459944
78,21,3,ISIP_8,82,9999,9999,9999,2584259672
78,21,3,ISIP_8,83,9999,9999,9999,2585059404
78,21,3,ISIP_8,84,9999,9999,9999,2585859132
78,21,3,ISIP_8,85,9999,9999,9999,2586659908
78,21,3,ISIP_8,86,9999,9999,9999,2587459688
78,21,3,ISIP_8,87,9999,9999,9999,2588259416
78,21,3,ISIP_8,88,9999,9999,9999,2589059148
78,21,3,ISIP_8,89,9999,9999,9999,2589859948
78,21,3,ISIP_8,90,9999,9999,9999,2590659676
78,21,3,ISIP_8,91,9999,9999,9999,2591459408
78,21,3,ISIP_8,92,9999,9999,9999,2592259136
78,21,3,ISIP_8,93,9999,9999,9999,2593059912
78,21,3,ISIP_8,94,9999,9999,9999,2593859668
78,21,3,ISIP_8,95,9999,9999,9999,2594659396
78,21,3,ISIP_8,96,9999,9999,9999,2595459128
78,21,3,ISIP_8,97,9999,9999,9999,2596259928
78,21,3,ISIP_8,98,9999,9999,9999,2597059660
78,21,3,ISIP_8,99,9999,9999,9999,2597859388
78,21,3,ISIP_8,100,9999,9999,9999,2598659184
78,21,3,ISIP_8,101,9999,9999,9999,2599459960
78,21,3,ISIP_8,102,9999,9999,9999,2600259692
78,21,3,ISIP_8,103,9999,9999,9999,2601059420
78,21,3,ISIP_8,104,9999,9999,9999,2601859148
78,21,3,ISIP_8,105,9999,9999,9999,2602659948
78,21,3,ISIP_8,106,9999,9999,9999,2603459680
78,21,3,ISIP_8,107,9999,9999,9999,2604259408
78,21,3,ISIP_8,108,9999,9999,9999,2605059136
78,21,3,ISIP_8,109,9999,9999,9999,2605859912
78,21,3,ISIP_8,110,9999,9999,9999,2606659700
78,21,3,ISIP_8,111,9999,9999,9999,2607459432
78,21,3,ISIP_8,112,9999,9999,9999,2608259160
78,21,3,ISIP_8,113,9999,9999,9999,2609059960
78,21,3,ISIP_8,114,9999,9999,9999,2609859688
78,21,3,ISIP_8,115,9999,9999,9999,2610659416
78,21,3,ISIP_8,116,9999,9999,9999,2611459148
78,21,3,ISIP_8,117,9999,9999,9999,2612259924
78,21,3,ISIP_8,118,9999,9999,9999,2613059652
78,21,3,ISIP_8,119,9999,9999,9999,2613859380
78,21,3,ISIP_8,120,9999,9999,9999,2614659184
78,21,3,ISIP_8,121,9999,9999,9999,2615459912
78,21,3,ISIP_8,122,9999,9999,9999,2616259640
78,21,3,ISIP_8,123,9999,9999,9999,2617059444
78,21,3,ISIP_8,124,9999,9999,9999,2617859172
78,21,3,ISIP_8,125,9999,9999,9999,2618659948
78,21,3,ISIP_8,126,9999,9999,9999,2619459680
78,21,3,ISIP_8,127,9999,9999,9999,2620259408
78,21,3,ISIP_8,128,9999,9999,9999,2621059136
78,21,3,ISIP_8,129,9999,9999,9999,2621859936
78,21,3,ISIP_8,130,9999,9999,9999,2622659668
78,21,3,ISIP_8,131,9999,9999,9999,2623459396
78,21,3,ISIP_8,132,9999,9999,9999,2624259124
78,21,3,ISIP_8,133,9999,9999,9999,2625059904
78,21,3,ISIP_8,134,9999,9999,9999,2625859704
78,21,3,ISIP_8,135,9999,9999,9999,2626659436
78,21,3,ISIP_8,136,9999,9999,9999,2627459164
78,21,3,ISIP_8,137,9999,9999,9999,2628259892
78,21,3,ISIP_8,138,9999,9999,9999,2629059696
78,21,3,ISIP_8,139,9999,9999,9999,2629859424
78,21,3,ISIP_8,140,9999,9999,9999,2630659152
78,21,3,ISIP_8,141,9999,9999,9999,2631459928
78,21,3,ISIP_8,142,9999,9999,9999,2632259656
78,21,3,ISIP_8,143,9999,9999,9999,2633059388
78,21,3,ISIP_8,144,9999,9999,9999,2633859188
78,21,3,ISIP_8,145,9999,9999,9999,2634659916
78,21,3,ISIP_8,146,9999,9999,9999,2635459648
78,21,3,ISIP_8,147,9999,9999,9999,2636259448
78,21,3,ISIP_8,148,9999,9999,9999,2637059176
78,21,3,ISIP_8,149,9999,9999,9999,2637859952
78,22,11,Pattern_Practice,0,5,42,127,2766163264
78,22,11,Pattern_Practice,1,5,42,127,2766662984
78,22,11,Pattern_Practice,2,5,42,127,2767162848
78,22,11,Pattern_Practice,3,5,42,127,2767662416
78,22,11,Pattern_Practice,4,1,48,57,2768128432
78,22,11,Pattern_Practice,5,5,42,127,2768163320
78,22,11,Pattern_Practice,6,1,48,59,2768651316
78,22,11,Pattern_Practice,7,5,42,127,2768662944
78,22,11,Pattern_Practice,8,1,48,54,2768914396
78,22,11,Pattern_Practice,9,5,42,127,2769162696
78,22,11,Pattern_Practice,10,1,48,63,2769180400
78,22,11,Pattern_Practice,11,1,48,33,2769393204
78,22,11,Pattern_Practice,12,1,48,57,2769628592
78,22,11,Pattern_Practice,13,5,42,127,2769663708
78,22,11,Pattern_Practice,14,1,48,13,2769897140
78,22,11,Pattern_Practice,15,1,48,66,2770141436
78,22,11,Pattern_Practice,16,5,42,127,2770163008
78,22,11,Pattern_Practice,17,5,42,127,2770662712
78,22,11,Pattern_Practice,18,1,48,67,2770685572
78,22,11,Pattern_Practice,19,5,42,127,2771162328
78,22,11,Pattern_Practice,20,1,48,67,2771184516
78,22,11,Pattern_Practice,21,1,38,49,2771414824
78,22,11,Pattern_Practice,22,5,42,127,2771663568
78,22,11,Pattern_Practice,23,1,38,71,2771934344
78,22,11,Pattern_Practice,24,5,42,127,2772162892
78,22,11,Pattern_Practice,25,1,48,70,2772187404
78,22,11,Pattern_Practice,26,1,48,64,2772655292
78,22,11,Pattern_Practice,27,5,42,127,2772662580
78,22,11,Pattern_Practice,28,1,48,41,2772899376
78,22,11,Pattern_Practice,29,1,48,52,2773131680
78,22,11,Pattern_Practice,30,5,42,127,2773163524
78,22,11,Pattern_Practice,31,1,48,44,2773360808
78,22,11,Pattern_Practice,32,1,48,62,2773623716
78,22,11,Pattern_Practice,33,5,42,127,2773663124
78,22,11,Pattern_Practice,34,1,48,35,2773865112
78,22,11,Pattern_Practice,35,1,48,66,2774129828
78,22,11,Pattern_Practice,36,5,42,127,2774162772
78,22,11,Pattern_Practice,37,1,48,65,2774633708
78,22,11,Pattern_Practice,38,5,42,127,2774662540
78,22,11,Pattern_Practice,39,1,48,36,2774888412
78,22,11,Pattern_Practice,40,1,48,70,2775125600
78,22,11,Pattern_Practice,41,5,42,127,2775163408
78,22,11,Pattern_Practice,42,1,38,58,2775366696
78,22,11,Pattern_Practice,43,5,42,127,2775662936
78,22,11,Pattern_Practice,44,1,38,67,2775871924
78,22,11,Pattern_Practice,45,5,42,127,2776162556
78,22,11,Pattern_Practice,46,1,48,68,2776170836
78,22,11,Pattern_Practice,47,1,48,64,2776656004
78,22,11,Pattern_Practice,48,5,42,127,2776663364
78,22,11,Pattern_Practice,49,1,48,48,2776876228
78,22,11,Pattern_Practice,50,1,48,66,2777152380
78,22,11,Pattern_Practice,51,5,42,127,2777163336
78,22,11,Pattern_Practice,52,1,48,39,2777366024
78,22,11,Pattern_Practice,53,1,48,62,2777634700
78,22,11,Pattern_Practice,54,5,42,127,2777662712
78,22,11,Pattern_Practice,55,1,48,41,2777862188
78,22,11,Pattern_Practice,56,1,48,63,2778131308
78,22,11,Pattern_Practice,57,5,42,127,2778162536
78,22,11,Pattern_Practice,58,1,48,50,2778379364
78,22,11,Pattern_Practice,59,1,48,59,2778632628
78,22,11,Pattern_Practice,60,5,42,127,2778663628
78,22,11,Pattern_Practice,61,1,48,42,2778859964
78,22,11,Pattern_Practice,62,1,48,60,2779121456
78,22,11,Pattern_Practice,63,5,42,127,2779162856
78,22,11,Pattern_Practice,64,1,38,58,2779363376
78,22,11,Pattern_Practice,65,5,42,127,2779662608
78,22,11,Pattern_Practice,66,1,38,69,2779869356
78,22,11,Pattern_Practice,67,1,48,67,2780155304
78,22,11,Pattern_Practice,68,5,42,127,2780162520
78,22,11,Pattern_Practice,69,1,48,70,2780660384
78,22,11,Pattern_Practice,70,5,42,127,2780663188
78,22,11,Pattern_Practice,71,1,48,46,2780896912
78,22,11,Pattern_Practice,72,1,48,58,2781158488
78,22,11,Pattern_Practice,73,5,42,127,2781162712
78,22,11,Pattern_Practice,74,1,48,49,2781390012
78,22,11,Pattern_Practice,75,1,48,67,2781636844
78,22,11,Pattern_Practice,76,5,42,127,2781662456
78,22,11,Pattern_Practice,77,1,48,48,2781888560
78,22,11,Pattern_Practice,78,1,48,49,2782145192
78,22,11,Pattern_Practice,79,5,42,127,2782163252
78,22,11,Pattern_Practice,80,1,48,39,2782394664
78,22,11,Pattern_Practice,81,5,42,127,2782663008
78,22,11,Pattern_Practice,82,1,48,61,2782881492
78,22,11,Pattern_Practice,83,1,48,58,2783146652
78,22,11,Pattern_Practice,84,5,42,127,2783162844
78,22,11,Pattern_Practice,85,1,38,55,2783371044
78,22,11,Pattern_Practice,86,5,42,127,2783662524
78,22,11,Pattern_Practice,87,1,38,56,2783861312
78,22,11,Pattern_Practice,88,1,38,26,2783924296
78,22,11,Pattern_Practice,89,5,42,127,2784163168
78,22,11,Pattern_Practice,90,1,48,61,2784182816
78,22,11,Pattern_Practice,91,5,42,127,2784663012
78,22,11,Pattern_Practice,92,1,48,66,2784696796
78,22,11,Pattern_Practice,93,1,48,45,2784931968
78,22,11,Pattern_Practice,94,5,42,127,2785162588
78,22,11,Pattern_Practice,95,1,48,69,2785169820
78,22,11,Pattern_Practice,96,1,48,54,2785368408
78,22,11,Pattern_Practice,97,1,48,67,2785641948
78,22,11,Pattern_Practice,98,5,42,127,2785663372
78,22,11,Pattern_Practice,99,1,48,54,2785879380
78,22,11,Pattern_Practice,100,1,48,67,2786142964
78,22,11,Pattern_Practice,101,5,42,127,2786163268
78,22,11,Pattern_Practice,102,1,48,37,2786401712
78,22,11,Pattern_Practice,103,1,48,64,2786626108
78,22,11,Pattern_Practice,104,5,42,127,2786662720
78,22,11,Pattern_Practice,105,1,48,61,2786873260
78,22,11,Pattern_Practice,106,1,48,54,2787154204
78,22,11,Pattern_Practice,107,5,42,127,2787162464
78,22,11,Pattern_Practice,108,1,38,62,2787419904
78,22,11,Pattern_Practice,109,5,42,127,2787663192
78,22,11,Pattern_Practice,110,1,38,77,2787933136
78,22,11,Pattern_Practice,111,5,42,127,2788163032
78,22,11,Pattern_Practice,112,1,48,70,2788187916
78,22,11,Pattern_Practice,113,1,48,73,2788659696
78,22,11,Pattern_Practice,114,5,42,127,2788662648
78,22,11,Pattern_Practice,115,1,48,53,2788911636
78,22,11,Pattern_Practice,116,1,48,68,2789149344
78,22,11,Pattern_Practice,117,5,42,127,2789163368
78,22,11,Pattern_Practice,118,1,48,48,2789372940
78,22,11,Pattern_Practice,119,1,48,69,2789642364
78,22,11,Pattern_Practice,120,5,42,127,2789663116
78,22,11,Pattern_Practice,121,1,48,59,2789861840
78,22,11,Pattern_Practice,122,1,48,55,2790134404
78,22,11,Pattern_Practice,123,5,42,127,2790162788
78,22,11,Pattern_Practice,124,1,48,57,2790386720
78,22,11,Pattern_Practice,125,1,48,64,2790652252
78,22,11,Pattern_Practice,126,5,42,127,2790662608
78,22,11,Pattern_Practice,127,1,48,53,2790884144
78,22,11,Pattern_Practice,128,1,48,68,2791154920
78,22,11,Pattern_Practice,129,5,42,127,2791163184
78,22,11,Pattern_Practice,130,1,38,69,2791384272
78,22,11,Pattern_Practice,131,5,42,127,2791663088
78,22,11,Pattern_Practice,132,1,38,72,2791906176
78,22,11,Pattern_Practice,133,1,48,72,2792148156
78,22,11,Pattern_Practice,134,5,42,127,2792162848
78,22,11,Pattern_Practice,135,5,42,127,2792663448
78,22,11,Pattern_Practice,136,1,48,80,2792680404
78,22,11,Pattern_Practice,137,1,48,42,2792915124
78,22,11,Pattern_Practice,138,1,48,24,2792975908
78,22,11,Pattern_Practice,139,1,48,66,2793154380
78,22,11,Pattern_Practice,140,5,42,127,2793163092
78,22,11,Pattern_Practice,141,1,48,46,2793380968
78,22,11,Pattern_Practice,142,1,48,58,2793642536
78,22,11,Pattern_Practice,143,5,42,127,2793662916
78,22,11,Pattern_Practice,144,1,48,41,2793903156
78,22,11,Pattern_Practice,145,1,48,68,2794139668
78,22,11,Pattern_Practice,146,5,42,127,2794162516
78,22,11,Pattern_Practice,147,1,48,46,2794363756
78,22,11,Pattern_Practice,148,1,48,72,2794646892
78,22,11,Pattern_Practice,149,5,42,127,2794663236
78,22,11,Pattern_Practice,150,1,48,44,2794886088
78,22,11,Pattern_Practice,151,1,48,71,2795141680
78,22,11,Pattern_Practice,152,5,42,127,2795162980
78,22,11,Pattern_Practice,153,1,38,60,2795396536
78,22,11,Pattern_Practice,154,5,42,127,2795662784
78,22,11,Pattern_Practice,155,1,38,62,2795918816
78,22,11,Pattern_Practice,156,1,48,58,2796162252
78,22,11,Pattern_Practice,157,5,42,127,2796163516
78,22,11,Pattern_Practice,158,5,42,127,2796663292
78,22,11,Pattern_Practice,159,1,48,75,2796676436
78,22,11,Pattern_Practice,160,1,48,46,2796904124
78,22,11,Pattern_Practice,161,1,48,45,2797154924
78,22,11,Pattern_Practice,162,5,42,127,2797162884
78,22,11,Pattern_Practice,163,1,48,49,2797421000
78,22,11,Pattern_Practice,164,1,48,73,2797655716
78,22,11,Pattern_Practice,165,5,42,127,2797662556
78,22,11,Pattern_Practice,166,1,48,54,2797897036
78,22,11,Pattern_Practice,167,5,42,127,2798163284
78,22,11,Pattern_Practice,168,1,48,72,2798168568
78,22,11,Pattern_Practice,169,1,48,16,2798422436
78,22,11,Pattern_Practice,170,1,48,68,2798656180
78,22,11,Pattern_Practice,171,5,42,127,2798662876
78,22,11,Pattern_Practice,172,1,48,56,2798842748
78,22,11,Pattern_Practice,173,1,48,81,2799157124
78,22,11,Pattern_Practice,174,5,42,127,2799162848
78,22,11,Pattern_Practice,175,1,38,54,2799409520
78,22,11,Pattern_Practice,176,5,42,127,2799662376
78,22,11,Pattern_Practice,177,1,38,65,2799888940
78,22,11,Pattern_Practice,178,1,48,65,2800156416
78,22,11,Pattern_Practice,179,5,42,127,2800163112
78,22,11,Pattern_Practice,180,5,42,127,2800662888
78,22,11,Pattern_Practice,181,1,48,70,2800663780
78,22,11,Pattern_Practice,182,1,48,43,2800868036
78,22,11,Pattern_Practice,183,1,48,70,2801156536
78,22,11,Pattern_Practice,184,5,42,127,2801162552
78,22,11,Pattern_Practice,185,1,48,51,2801419020
78,22,11,Pattern_Practice,186,5,42,127,2801663356
78,22,11,Pattern_Practice,187,1,48,70,2801666020
78,22,11,Pattern_Practice,188,1,48,49,2801891844
78,22,11,Pattern_Practice,189,5,42,127,2802163104
78,22,11,Pattern_Practice,190,1,48,71,2802173252
78,22,11,Pattern_Practice,191,1,48,46,2802405200
78,22,11,Pattern_Practice,192,5,42,127,2802662704
78,22,11,Pattern_Practice,193,1,48,73,2802664568
78,22,11,Pattern_Practice,194,1,48,55,2802882960
78,22,11,Pattern_Practice,195,1,48,69,2803137724
78,22,11,Pattern_Practice,196,5,42,127,2803162440
78,22,11,Pattern_Practice,197,1,38,53,2803413152
78,22,11,Pattern_Practice,198,5,42,127,2803663168
78,22,11,Pattern_Practice,199,1,38,65,2803892576
78,22,11,Pattern_Practice,200,1,48,73,2804152948
78,22,11,Pattern_Practice,201,5,42,127,2804163004
78,22,11,Pattern_Practice,202,5,42,127,2804662932
78,22,11,Pattern_Practice,203,1,48,77,2804665824
78,22,11,Pattern_Practice,204,1,48,52,2804904804
78,22,11,Pattern_Practice,205,1,48,61,2805150668
78,22,11,Pattern_Practice,206,5,42,127,2805163272
78,22,11,Pattern_Practice,207,1,48,55,2805390844
78,22,11,Pattern_Practice,208,1,48,73,2805655128
78,22,11,Pattern_Practice,209,5,42,127,2805663020
78,22,11,Pattern_Practice,210,1,48,53,2805900616
78,22,11,Pattern_Practice,0,9999,9999,9999,2766160980
78,22,11,Pattern_Practice,1,9999,9999,9999,2766660696
78,22,11,Pattern_Practice,2,9999,9999,9999,2767160412
78,22,11,Pattern_Practice,3,9999,9999,9999,2767660128
78,22,11,Pattern_Practice,4,9999,9999,9999,2768160884
78,22,11,Pattern_Practice,5,9999,9999,9999,2768660580
78,22,11,Pattern_Practice,6,9999,9999,9999,2769160264
78,22,11,Pattern_Practice,7,9999,9999,9999,2769661048
78,22,11,Pattern_Practice,8,9999,9999,9999,2770160724
78,22,11,Pattern_Practice,9,9999,9999,9999,2770660424
78,22,11,Pattern_Practice,10,9999,9999,9999,2771160116
78,22,11,Pattern_Practice,11,9999,9999,9999,2771660912
78,22,11,Pattern_Practice,12,9999,9999,9999,2772160608
78,22,11,Pattern_Practice,13,9999,9999,9999,2772660296
78,22,11,Pattern_Practice,14,9999,9999,9999,2773161016
78,22,11,Pattern_Practice,15,9999,9999,9999,2773660760
78,22,11,Pattern_Practice,16,9999,9999,9999,2774160484
78,22,11,Pattern_Practice,17,9999,9999,9999,2774660180
78,22,11,Pattern_Practice,18,9999,9999,9999,2775160896
78,22,11,Pattern_Practice,19,9999,9999,9999,2775660652
78,22,11,Pattern_Practice,20,9999,9999,9999,2776160344
78,22,11,Pattern_Practice,21,9999,9999,9999,2776661080
78,22,11,Pattern_Practice,22,9999,9999,9999,2777160752
78,22,11,Pattern_Practice,23,9999,9999,9999,2777660500
78,22,11,Pattern_Practice,24,9999,9999,9999,2778160176
78,22,11,Pattern_Practice,25,9999,9999,9999,2778660972
78,22,11,Pattern_Practice,26,9999,9999,9999,2779160644
78,22,11,Pattern_Practice,27,9999,9999,9999,2779660396
78,22,11,Pattern_Practice,28,9999,9999,9999,2780160084
78,22,11,Pattern_Practice,29,9999,9999,9999,2780660828
78,22,11,Pattern_Practice,30,9999,9999,9999,2781160500
78,22,11,Pattern_Practice,31,9999,9999,9999,2781660248
78,22,11,Pattern_Practice,32,9999,9999,9999,2782160968
78,22,11,Pattern_Practice,33,9999,9999,9999,2782660720
78,22,11,Pattern_Practice,34,9999,9999,9999,2783160408
78,22,11,Pattern_Practice,35,9999,9999,9999,2783660088
78,22,11,Pattern_Practice,36,9999,9999,9999,2784160880
78,22,11,Pattern_Practice,37,9999,9999,9999,2784660576
78,22,11,Pattern_Practice,38,9999,9999,9999,2785160300
78,22,11,Pattern_Practice,39,9999,9999,9999,2785661012
78,22,11,Pattern_Practice,40,9999,9999,9999,2786160760
78,22,11,Pattern_Practice,41,9999,9999,9999,2786660432
78,22,11,Pattern_Practice,42,9999,9999,9999,2787160180
78,22,11,Pattern_Practice,43,9999,9999,9999,2787660904
78,22,11,Pattern_Practice,44,9999,9999,9999,2788160600
78,22,11,Pattern_Practice,45,9999,9999,9999,2788660288
78,22,11,Pattern_Practice,46,9999,9999,9999,2789161080
78,22,11,Pattern_Practice,47,9999,9999,9999,2789660756
78,22,11,Pattern_Practice,48,9999,9999,9999,2790160500
78,22,11,Pattern_Practice,49,9999,9999,9999,2790660176
78,22,11,Pattern_Practice,50,9999,9999,9999,2791160896
78,22,11,Pattern_Practice,51,9999,9999,9999,2791660652
78,22,11,Pattern_Practice,52,9999,9999,9999,2792160340
78,22,11,Pattern_Practice,53,9999,9999,9999,2792661088
78,22,11,Pattern_Practice,54,9999,9999,9999,2793160808
78,22,11,Pattern_Practice,55,9999,9999,9999,2793660480
78,22,11,Pattern_Practice,56,9999,9999,9999,2794160228
78,22,11,Pattern_Practice,57,9999,9999,9999,2794660948
78,22,11,Pattern_Practice,58,9999,9999,9999,2795160692
78,22,11,Pattern_Practice,59,9999,9999,9999,2795660348
78,22,11,Pattern_Practice,60,9999,9999,9999,2796160116
78,22,11,Pattern_Practice,61,9999,9999,9999,2796660856
78,22,11,Pattern_Practice,62,9999,9999,9999,2797160524
78,22,11,Pattern_Practice,63,9999,9999,9999,2797660272
78,22,11,Pattern_Practice,64,9999,9999,9999,2798160996
78,22,11,Pattern_Practice,65,9999,9999,9999,2798660664
78,22,11,Pattern_Practice,66,9999,9999,9999,2799160412
78,22,11,Pattern_Practice,67,9999,9999,9999,2799660092
78,22,11,Pattern_Practice,68,9999,9999,9999,2800160824
78,22,11,Pattern_Practice,69,9999,9999,9999,2800660600
78,22,11,Pattern_Practice,70,9999,9999,9999,2801160268
78,22,11,Pattern_Practice,71,9999,9999,9999,2801660992
78,22,11,Pattern_Practice,72,9999,9999,9999,2802160740
78,22,11,Pattern_Practice,73,9999,9999,9999,2802660416
78,22,11,Pattern_Practice,74,9999,9999,9999,2803160156
78,22,11,Pattern_Practice,75,9999,9999,9999,2803660884
78,22,11,Pattern_Practice,76,9999,9999,9999,2804160572
78,22,11,Pattern_Practice,77,9999,9999,9999,2804660272
78,22,11,Pattern_Practice,78,9999,9999,9999,2805161060
78,22,11,Pattern_Practice,79,9999,9999,9999,2805660732
78,23,13,Improv_Metronome,0,5,42,127,2843035160
78,23,13,Improv_Metronome,1,5,42,127,2843534628
78,23,13,Improv_Metronome,2,5,42,127,2844034272
78,23,13,Improv_Metronome,3,5,42,127,2844535180
78,23,13,Improv_Metronome,4,1,48,39,2845002244
78,23,13,Improv_Metronome,5,5,42,127,2845035112
78,23,13,Improv_Metronome,6,5,42,127,2845534444
78,23,13,Improv_Metronome,7,1,48,62,2845554536
78,23,13,Improv_Metronome,8,1,38,59,2845801900
78,23,13,Improv_Metronome,9,5,42,127,2846035384
78,23,13,Improv_Metronome,10,1,38,70,2846065880
78,23,13,Improv_Metronome,11,1,48,69,2846310996
78,23,13,Improv_Metronome,12,5,42,127,2846535132
78,23,13,Improv_Metronome,13,1,38,64,2846540348
78,23,13,Improv_Metronome,14,5,42,127,2847035048
78,23,13,Improv_Metronome,15,1,48,70,2847039436
78,23,13,Improv_Metronome,16,1,48,64,2847517952
78,23,13,Improv_Metronome,17,5,42,127,2847534368
78,23,13,Improv_Metronome,18,1,38,64,2847762860
78,23,13,Improv_Metronome,19,5,42,127,2848035092
78,23,13,Improv_Metronome,20,1,38,70,2848261880
78,23,13,Improv_Metronome,21,1,48,63,2848501460
78,23,13,Improv_Metronome,22,5,42,127,2848535080
78,23,13,Improv_Metronome,23,1,38,63,2848769260
78,23,13,Improv_Metronome,24,1,48,64,2849027836
78,23,13,Improv_Metronome,25,5,42,127,2849034528
78,23,13,Improv_Metronome,26,5,42,127,2849535204
78,23,13,Improv_Metronome,27,1,48,70,2849536168
78,23,13,Improv_Metronome,28,1,38,64,2849767128
78,23,13,Improv_Metronome,29,5,42,127,2850035176
78,23,13,Improv_Metronome,30,1,48,72,2850283956
78,23,13,Improv_Metronome,31,1,38,72,2850480076
78,23,13,Improv_Metronome,32,5,42,127,2850535008
78,23,13,Improv_Metronome,33,1,48,65,2851020016
78,23,13,Improv_Metronome,34,5,42,127,2851034408
78,23,13,Improv_Metronome,35,1,48,70,2851516040
78,23,13,Improv_Metronome,36,5,42,127,2851535300
78,23,13,Improv_Metronome,37,1,38,51,2851778752
78,23,13,Improv_Metronome,38,5,42,127,2852034904
78,23,13,Improv_Metronome,39,1,48,65,2852038244
78,23,13,Improv_Metronome,40,1,38,52,2852282768
78,23,13,Improv_Metronome,41,1,48,65,2852531248
78,23,13,Improv_Metronome,42,5,42,127,2852534644
78,23,13,Improv_Metronome,43,1,38,51,2852739024
78,23,13,Improv_Metronome,44,1,48,63,2852979204
78,23,13,Improv_Metronome,45,5,42,127,2853035364
78,23,13,Improv_Metronome,46,1,48,67,2853525604
78,23,13,Improv_Metronome,47,5,42,127,2853534984
78,23,13,Improv_Metronome,48,1,38,50,2853741236
78,23,13,Improv_Metronome,49,5,42,127,2854034888
78,23,13,Improv_Metronome,50,1,38,51,2854299592
78,23,13,Improv_Metronome,51,1,48,64,2854507588
78,23,13,Improv_Metronome,52,5,42,127,2854534624
78,23,13,Improv_Metronome,53,1,38,59,2854746292
78,23,13,Improv_Metronome,54,1,48,68,2855010176
78,23,13,Improv_Metronome,55,5,42,127,2855035120
78,23,13,Improv_Metronome,56,5,42,127,2855534896
78,23,13,Improv_Metronome,57,1,48,67,2855548856
78,23,13,Improv_Metronome,58,1,38,51,2855794496
78,23,13,Improv_Metronome,59,5,42,127,2856034716
78,23,13,Improv_Metronome,60,1,38,38,2856287612
78,23,13,Improv_Metronome,61,1,48,67,2856521280
78,23,13,Improv_Metronome,62,5,42,127,2856535600
78,23,13,Improv_Metronome,63,1,48,73,2857020076
78,23,13,Improv_Metronome,64,5,42,127,2857035144
78,23,13,Improv_Metronome,65,1,48,71,2857531216
78,23,13,Improv_Metronome,66,5,42,127,2857534764
78,23,13,Improv_Metronome,67,1,38,75,2857779792
78,23,13,Improv_Metronome,68,5,42,127,2858034668
78,23,13,Improv_Metronome,69,1,38,63,2858254724
78,23,13,Improv_Metronome,70,1,48,70,2858507544
78,23,13,Improv_Metronome,71,5,42,127,2858535256
78,23,13,Improv_Metronome,72,1,38,61,2858745200
78,23,13,Improv_Metronome,73,1,48,67,2859005572
78,23,13,Improv_Metronome,74,5,42,127,2859035004
78,23,13,Improv_Metronome,75,1,48,67,2859532812
78,23,13,Improv_Metronome,76,5,42,127,2859534624
78,23,13,Improv_Metronome,77,1,38,63,2859786532
78,23,13,Improv_Metronome,78,5,42,127,2860034600
78,23,13,Improv_Metronome,79,1,38,56,2860268272
78,23,13,Improv_Metronome,80,1,48,69,2860508452
78,23,13,Improv_Metronome,81,5,42,127,2860535040
78,23,13,Improv_Metronome,82,5,42,127,2861034964
78,23,13,Improv_Metronome,83,1,48,70,2861051924
78,23,13,Improv_Metronome,84,5,42,127,2861534732
78,23,13,Improv_Metronome,85,1,48,70,2861542416
78,23,13,Improv_Metronome,86,1,38,56,2861797028
78,23,13,Improv_Metronome,87,5,42,127,2862035304
78,23,13,Improv_Metronome,88,1,38,70,2862285204
78,23,13,Improv_Metronome,89,1,48,72,2862481852
78,23,13,Improv_Metronome,90,5,42,127,2862535064
78,23,13,Improv_Metronome,91,1,38,63,2862761096
78,23,13,Improv_Metronome,92,1,48,74,2863034220
78,23,13,Improv_Metronome,93,5,42,127,2863035788
78,23,13,Improv_Metronome,94,5,42,127,2863534444
78,23,13,Improv_Metronome,95,1,48,68,2863552148
78,23,13,Improv_Metronome,96,1,38,67,2863799052
78,23,13,Improv_Metronome,97,5,42,127,2864035160
78,23,13,Improv_Metronome,98,1,38,66,2864266784
78,23,13,Improv_Metronome,99,1,48,70,2864498740
78,23,13,Improv_Metronome,100,5,42,127,2864534776
78,23,13,Improv_Metronome,101,1,48,70,2865033156
78,23,13,Improv_Metronome,102,5,42,127,2865034740
78,23,13,Improv_Metronome,103,5,42,127,2865535636
78,23,13,Improv_Metronome,104,1,48,71,2865537204
78,23,13,Improv_Metronome,105,1,38,74,2865777288
78,23,13,Improv_Metronome,106,5,42,127,2866034940
78,23,13,Improv_Metronome,107,1,38,62,2866281848
78,23,13,Improv_Metronome,108,1,48,71,2866517088
78,23,13,Improv_Metronome,109,5,42,127,2866534776
78,23,13,Improv_Metronome,110,1,38,62,2866756616
78,23,13,Improv_Metronome,111,5,42,127,2867034528
78,23,13,Improv_Metronome,112,1,48,70,2867046920
78,23,13,Improv_Metronome,113,1,48,70,2867532460
78,23,13,Improv_Metronome,114,5,42,127,2867535116
78,23,13,Improv_Metronome,115,1,38,68,2867752240
78,23,13,Improv_Metronome,116,1,38,43,2867826792
78,23,13,Improv_Metronome,117,5,42,127,2868034920
78,23,13,Improv_Metronome,118,1,38,57,2868227156
78,23,13,Improv_Metronome,119,1,48,69,2868466208
78,23,13,Improv_Metronome,120,5,42,127,2868534536
78,23,13,Improv_Metronome,121,1,48,72,2868993432
78,23,13,Improv_Metronome,122,5,42,127,2869035572
78,23,13,Improv_Metronome,123,1,48,76,2869500380
78,23,13,Improv_Metronome,124,5,42,127,2869535192
78,23,13,Improv_Metronome,125,1,38,67,2869730852
78,23,13,Improv_Metronome,126,5,42,127,2870034724
78,23,13,Improv_Metronome,127,1,38,57,2870322848
78,23,13,Improv_Metronome,128,1,48,76,2870507376
78,23,13,Improv_Metronome,129,5,42,127,2870534564
78,23,13,Improv_Metronome,130,1,38,65,2870777944
78,23,13,Improv_Metronome,131,1,48,72,2871023808
78,23,13,Improv_Metronome,132,5,42,127,2871035504
78,23,13,Improv_Metronome,133,1,48,67,2871526420
78,23,13,Improv_Metronome,134,5,42,127,2871534828
78,23,13,Improv_Metronome,135,1,38,64,2871760260
78,23,13,Improv_Metronome,136,5,42,127,2872034804
78,23,13,Improv_Metronome,137,1,38,61,2872277528
78,23,13,Improv_Metronome,138,1,48,77,2872479628
78,23,13,Improv_Metronome,139,5,42,127,2872535616
78,23,13,Improv_Metronome,140,1,48,76,2873027420
78,23,13,Improv_Metronome,141,5,42,127,2873035088
78,23,13,Improv_Metronome,142,5,42,127,2873534712
78,23,13,Improv_Metronome,143,1,48,74,2873541420
78,23,13,Improv_Metronome,144,1,38,63,2873786160
78,23,13,Improv_Metronome,145,5,42,127,2874034464
78,23,13,Improv_Metronome,146,1,38,57,2874249336
78,23,13,Improv_Metronome,147,1,48,70,2874494076
78,23,13,Improv_Metronome,148,5,42,127,2874535640
78,23,13,Improv_Metronome,149,1,38,62,2874743616
78,23,13,Improv_Metronome,150,1,48,75,2874994868
78,23,13,Improv_Metronome,151,5,42,127,2875034940
78,23,13,Improv_Metronome,152,1,48,68,2875525972
78,23,13,Improv_Metronome,153,5,42,127,2875534712
78,23,13,Improv_Metronome,154,1,38,62,2875758916
78,23,13,Improv_Metronome,155,5,42,127,2876034512
78,23,13,Improv_Metronome,156,1,38,60,2876239828
78,23,13,Improv_Metronome,157,1,48,70,2876505816
78,23,13,Improv_Metronome,158,5,42,127,2876535100
78,23,13,Improv_Metronome,159,5,42,127,2877034800
78,23,13,Improv_Metronome,160,1,48,76,2877036664
78,23,13,Improv_Metronome,161,5,42,127,2877534496
78,23,13,Improv_Metronome,162,1,48,67,2877552652
78,23,13,Improv_Metronome,163,1,38,58,2877779656
78,23,13,Improv_Metronome,164,5,42,127,2878035288
78,23,13,Improv_Metronome,165,1,38,70,2878232456
78,23,13,Improv_Metronome,166,1,48,62,2878499188
78,23,13,Improv_Metronome,167,5,42,127,2878534976
78,23,13,Improv_Metronome,168,1,38,66,2878735048
78,23,13,Improv_Metronome,169,1,48,71,2879026684
78,23,13,Improv_Metronome,170,5,42,127,2879034724
78,23,13,Improv_Metronome,171,1,48,69,2879529372
78,23,13,Improv_Metronome,172,5,42,127,2879534568
78,23,13,Improv_Metronome,173,1,38,63,2879768372
78,23,13,Improv_Metronome,174,5,42,127,2880035368
78,23,13,Improv_Metronome,175,1,38,61,2880224832
78,23,13,Improv_Metronome,176,1,48,61,2880515576
78,23,13,Improv_Metronome,177,5,42,127,2880534908
78,23,13,Improv_Metronome,178,1,48,73,2881033168
78,23,13,Improv_Metronome,179,5,42,127,2881034752
78,23,13,Improv_Metronome,180,1,48,70,2881507636
78,23,13,Improv_Metronome,181,5,42,127,2881535196
78,23,13,Improv_Metronome,182,1,38,56,2881736460
78,23,13,Improv_Metronome,183,5,42,127,2882035172
78,23,13,Improv_Metronome,184,1,38,61,2882293528
78,23,13,Improv_Metronome,185,1,48,65,2882531012
78,23,13,Improv_Metronome,186,5,42,127,2882534712
78,23,13,Improv_Metronome,187,1,38,60,2882759240
78,23,13,Improv_Metronome,188,1,48,69,2883017072
78,23,13,Improv_Metronome,189,5,42,127,2883034460
78,23,13,Improv_Metronome,190,1,48,69,2883512952
78,23,13,Improv_Metronome,191,5,42,127,2883535276
78,23,13,Improv_Metronome,192,1,38,65,2883769460
78,23,13,Improv_Metronome,193,5,42,127,2884034808
78,23,13,Improv_Metronome,194,1,38,62,2884194024
78,23,13,Improv_Metronome,195,1,48,68,2884479232
78,23,13,Improv_Metronome,196,5,42,127,2884534492
78,23,13,Improv_Metronome,197,1,48,74,2885026520
78,23,13,Improv_Metronome,198,5,42,127,2885035308
78,23,13,Improv_Metronome,199,5,42,127,2885535232
78,23,13,Improv_Metronome,200,1,48,72,2885541716
78,23,13,Improv_Metronome,201,1,38,65,2885768856
78,23,13,Improv_Metronome,202,5,42,127,2886034756
78,23,13,Improv_Metronome,203,1,38,64,2886264436
78,23,13,Improv_Metronome,204,5,42,127,2886534500
78,23,13,Improv_Metronome,205,1,48,63,2886537768
78,23,13,Improv_Metronome,206,1,38,60,2886743016
78,23,13,Improv_Metronome,207,1,48,69,2887020444
78,23,13,Improv_Metronome,208,5,42,127,2887035140
78,23,13,Improv_Metronome,209,1,48,73,2887533476
78,23,13,Improv_Metronome,210,5,42,127,2887535056
78,23,13,Improv_Metronome,211,1,38,64,2887735952
78,23,13,Improv_Metronome,212,5,42,127,2888034736
78,23,13,Improv_Metronome,213,1,38,56,2888236916
78,23,13,Improv_Metronome,214,1,48,78,2888500512
78,23,13,Improv_Metronome,215,5,42,127,2888535396
78,23,13,Improv_Metronome,216,1,48,73,2889027728
78,23,13,Improv_Metronome,217,5,42,127,2889035164
78,23,13,Improv_Metronome,218,1,48,65,2889526000
78,23,13,Improv_Metronome,219,5,42,127,2889534716
78,23,13,Improv_Metronome,220,1,38,64,2889772112
78,23,13,Improv_Metronome,221,5,42,127,2890034444
78,23,13,Improv_Metronome,222,1,38,61,2890256448
78,23,13,Improv_Metronome,223,1,48,74,2890524596
78,23,13,Improv_Metronome,224,5,42,127,2890535328
78,23,13,Improv_Metronome,225,1,38,64,2890762404
78,23,13,Improv_Metronome,226,1,48,70,2891026964
78,23,13,Improv_Metronome,227,5,42,127,2891035076
78,23,13,Improv_Metronome,228,1,48,84,2891529356
78,23,13,Improv_Metronome,229,5,42,127,2891534624
78,23,13,Improv_Metronome,230,1,38,67,2891797672
78,23,13,Improv_Metronome,231,5,42,127,2892034376
78,23,13,Improv_Metronome,232,1,38,58,2892289668
78,23,13,Improv_Metronome,233,5,42,127,2892535044
78,23,13,Improv_Metronome,234,1,48,61,2892552528
78,23,13,Improv_Metronome,235,5,42,127,2893034964
78,23,13,Improv_Metronome,236,1,48,78,2893042272
78,23,13,Improv_Metronome,237,1,48,72,2893521676
78,23,13,Improv_Metronome,238,5,42,127,2893534428
78,23,13,Improv_Metronome,239,1,38,60,2893754016
78,23,13,Improv_Metronome,240,5,42,127,2894035304
78,23,13,Improv_Metronome,241,1,38,55,2894253340
78,23,13,Improv_Metronome,242,1,48,60,2894457808
78,23,13,Improv_Metronome,243,5,42,127,2894535136
78,23,13,Improv_Metronome,244,1,38,51,2894770892
78,23,13,Improv_Metronome,245,1,48,76,2895014584
78,23,13,Improv_Metronome,246,5,42,127,2895034592
78,23,13,Improv_Metronome,247,1,48,67,2895503132
78,23,13,Improv_Metronome,248,5,42,127,2895534508
78,23,13,Improv_Metronome,249,1,38,57,2895786784
78,23,13,Improv_Metronome,250,5,42,127,2896035160
78,23,13,Improv_Metronome,251,1,38,56,2896270324
78,23,13,Improv_Metronome,252,1,48,73,2896478836
78,23,13,Improv_Metronome,253,5,42,127,2896534848
78,23,13,Improv_Metronome,254,1,48,67,2896993644
78,23,13,Improv_Metronome,255,5,42,127,2897034592
78,23,13,Improv_Metronome,256,1,48,76,2897501320
78,23,13,Improv_Metronome,257,5,42,127,2897535232
78,23,13,Improv_Metronome,258,1,38,50,2897765524
78,23,13,Improv_Metronome,259,5,42,127,2898034912
78,23,13,Improv_Metronome,260,1,38,54,2898259828
78,23,13,Improv_Metronome,261,1,48,65,2898498888
78,23,13,Improv_Metronome,262,5,42,127,2898534824
78,23,13,Improv_Metronome,263,1,38,61,2898757932
78,23,13,Improv_Metronome,264,1,48,76,2898996164
78,23,13,Improv_Metronome,265,5,42,127,2899034496
78,23,13,Improv_Metronome,266,1,48,75,2899496012
78,23,13,Improv_Metronome,267,5,42,127,2899535164
78,23,13,Improv_Metronome,268,1,38,45,2899765604
78,23,13,Improv_Metronome,269,5,42,127,2900034844
78,23,13,Improv_Metronome,270,1,38,62,2900238740
78,23,13,Improv_Metronome,271,1,48,76,2900493508
78,23,13,Improv_Metronome,272,5,42,127,2900534756
78,23,13,Improv_Metronome,273,1,48,78,2901026784
78,23,13,Improv_Metronome,274,5,42,127,2901035424
78,23,13,Improv_Metronome,275,5,42,127,2901535196
78,23,13,Improv_Metronome,276,1,48,71,2901555744
78,23,13,Improv_Metronome,277,1,38,57,2901812752
78,23,13,Improv_Metronome,278,5,42,127,2902035020
78,23,13,Improv_Metronome,279,1,38,66,2902284772
78,23,13,Improv_Metronome,280,1,48,73,2902489348
78,23,13,Improv_Metronome,281,5,42,127,2902534856
78,23,13,Improv_Metronome,282,1,38,65,2902751760
78,23,13,Improv_Metronome,283,1,48,75,2902975328
78,23,13,Improv_Metronome,284,5,42,127,2903035204
78,23,13,Improv_Metronome,285,1,48,69,2903477940
78,23,13,Improv_Metronome,286,5,42,127,2903534972
78,23,13,Improv_Metronome,287,1,38,61,2903762272
78,23,13,Improv_Metronome,288,5,42,127,2904034876
78,23,13,Improv_Metronome,289,1,38,59,2904283656
78,23,13,Improv_Metronome,290,1,48,73,2904515908
78,23,13,Improv_Metronome,291,5,42,127,2904535312
78,23,13,Improv_Metronome,292,1,48,74,2905015604
78,23,13,Improv_Metronome,293,5,42,127,2905035232
78,23,13,Improv_Metronome,294,1,48,74,2905527564
78,23,13,Improv_Metronome,295,5,42,127,2905535076
78,23,13,Improv_Metronome,296,1,38,62,2905767680
78,23,13,Improv_Metronome,297,5,42,127,2906034904
78,23,13,Improv_Metronome,298,1,38,67,2906261552
78,23,13,Improv_Metronome,299,1,48,71,2906498260
78,23,13,Improv_Metronome,300,5,42,127,2906535192
78,23,13,Improv_Metronome,301,1,38,57,2906743764
78,23,13,Improv_Metronome,302,1,48,74,2907002716
78,23,13,Improv_Metronome,303,5,42,127,2907034940
78,23,13,Improv_Metronome,304,1,48,76,2907524180
78,23,13,Improv_Metronome,305,5,42,127,2907534856
78,23,13,Improv_Metronome,306,1,38,53,2907754800
78,23,13,Improv_Metronome,307,5,42,127,2908034288
78,23,13,Improv_Metronome,308,1,38,54,2908253068
78,23,13,Improv_Metronome,309,1,48,65,2908446804
78,23,13,Improv_Metronome,310,5,42,127,2908535168
78,23,13,Improv_Metronome,311,1,48,69,2908993620
78,23,13,Improv_Metronome,312,5,42,127,2909034788
78,23,13,Improv_Metronome,313,1,48,57,2909493012
78,23,13,Improv_Metronome,314,5,42,127,2909534780
78,23,13,Improv_Metronome,315,1,38,59,2909774792
78,23,13,Improv_Metronome,316,5,42,127,2910035288
78,23,13,Improv_Metronome,317,1,38,57,2910268880
78,23,13,Improv_Metronome,318,1,48,67,2910481760
78,23,13,Improv_Metronome,319,5,42,127,2910535120
78,23,13,Improv_Metronome,320,1,38,57,2910762348
78,23,13,Improv_Metronome,321,1,48,64,2911006864
78,23,13,Improv_Metronome,322,5,42,127,2911034868
78,23,13,Improv_Metronome,323,1,48,79,2911521820
78,23,13,Improv_Metronome,324,5,42,127,2911534712
78,23,13,Improv_Metronome,325,1,38,43,2911748624
78,23,13,Improv_Metronome,326,5,42,127,2912035068
78,23,13,Improv_Metronome,327,1,38,70,2912272484
78,23,13,Improv_Metronome,328,1,48,65,2912490820
78,23,13,Improv_Metronome,329,5,42,127,2912534832
78,23,13,Improv_Metronome,330,1,48,71,2913028728
78,23,13,Improv_Metronome,0,9999,9999,9999,2843032652
78,23,13,Improv_Metronome,1,9999,9999,9999,2843532344
78,23,13,Improv_Metronome,2,9999,9999,9999,2844032056
78,23,13,Improv_Metronome,3,9999,9999,9999,2844532820
78,23,13,Improv_Metronome,4,9999,9999,9999,2845032532
78,23,13,Improv_Metronome,5,9999,9999,9999,2845532232
78,23,13,Improv_Metronome,6,9999,9999,9999,2846032948
78,23,13,Improv_Metronome,7,9999,9999,9999,2846532696
78,23,13,Improv_Metronome,8,9999,9999,9999,2847032392
78,23,13,Improv_Metronome,9,9999,9999,9999,2847532080
78,23,13,Improv_Metronome,10,9999,9999,9999,2848032880
78,23,13,Improv_Metronome,11,9999,9999,9999,2848532568
78,23,13,Improv_Metronome,12,9999,9999,9999,2849032244
78,23,13,Improv_Metronome,13,9999,9999,9999,2849532992
78,23,13,Improv_Metronome,14,9999,9999,9999,2850032740
78,23,13,Improv_Metronome,15,9999,9999,9999,2850532428
78,23,13,Improv_Metronome,16,9999,9999,9999,2851032124
78,23,13,Improv_Metronome,17,9999,9999,9999,2851532864
78,23,13,Improv_Metronome,18,9999,9999,9999,2852032616
78,23,13,Improv_Metronome,19,9999,9999,9999,2852532284
78,23,13,Improv_Metronome,20,9999,9999,9999,2853033076
78,23,13,Improv_Metronome,21,9999,9999,9999,2853532772
78,23,13,Improv_Metronome,22,9999,9999,9999,2854032452
78,23,13,Improv_Metronome,23,9999,9999,9999,2854532188
78,23,13,Improv_Metronome,24,9999,9999,9999,2855032908
78,23,13,Improv_Metronome,25,9999,9999,9999,2855532612
78,23,13,Improv_Metronome,26,9999,9999,9999,2856032356
78,23,13,Improv_Metronome,27,9999,9999,9999,2856533088
78,23,13,Improv_Metronome,28,9999,9999,9999,2857032784
78,23,13,Improv_Metronome,29,9999,9999,9999,2857532480
78,23,13,Improv_Metronome,30,9999,9999,9999,2858032232
78,23,13,Improv_Metronome,31,9999,9999,9999,2858532968
78,23,13,Improv_Metronome,32,9999,9999,9999,2859032644
78,23,13,Improv_Metronome,33,9999,9999,9999,2859532364
78,23,13,Improv_Metronome,34,9999,9999,9999,2860032092
78,23,13,Improv_Metronome,35,9999,9999,9999,2860532828
78,23,13,Improv_Metronome,36,9999,9999,9999,2861032528
78,23,13,Improv_Metronome,37,9999,9999,9999,2861532224
78,23,13,Improv_Metronome,38,9999,9999,9999,2862033016
78,23,13,Improv_Metronome,39,9999,9999,9999,2862532704
78,23,13,Improv_Metronome,40,9999,9999,9999,2863032384
78,23,13,Improv_Metronome,41,9999,9999,9999,2863532080
78,23,13,Improv_Metronome,42,9999,9999,9999,2864032872
78,23,13,Improv_Metronome,43,9999,9999,9999,2864532564
78,23,13,Improv_Metronome,44,9999,9999,9999,2865032312
78,23,13,Improv_Metronome,45,9999,9999,9999,2865532980
78,23,13,Improv_Metronome,46,9999,9999,9999,2866032728
78,23,13,Improv_Metronome,47,9999,9999,9999,2866532416
78,23,13,Improv_Metronome,48,9999,9999,9999,2867032168
78,23,13,Improv_Metronome,49,9999,9999,9999,2867532904
78,23,13,Improv_Metronome,50,9999,9999,9999,2868032632
78,23,13,Improv_Metronome,51,9999,9999,9999,2868532324
78,23,13,Improv_Metronome,52,9999,9999,9999,2869033064
78,23,13,Improv_Metronome,53,9999,9999,9999,2869532760
78,23,13,Improv_Metronome,54,9999,9999,9999,2870032440
78,23,13,Improv_Metronome,55,9999,9999,9999,2870532204
78,23,13,Improv_Metronome,56,9999,9999,9999,2871032924
78,23,13,Improv_Metronome,57,9999,9999,9999,2871532620
78,23,13,Improv_Metronome,58,9999,9999,9999,2872032372
78,23,13,Improv_Metronome,59,9999,9999,9999,2872533104
78,23,13,Improv_Metronome,60,9999,9999,9999,2873032800
78,23,13,Improv_Metronome,61,9999,9999,9999,2873532500
78,23,13,Improv_Metronome,62,9999,9999,9999,2874032176
78,23,13,Improv_Metronome,63,9999,9999,9999,2874532984
78,23,13,Improv_Metronome,64,9999,9999,9999,2875032656
78,23,13,Improv_Metronome,65,9999,9999,9999,2875532400
78,23,13,Improv_Metronome,66,9999,9999,9999,2876032076
78,23,13,Improv_Metronome,67,9999,9999,9999,2876532812
78,23,13,Improv_Metronome,68,9999,9999,9999,2877032512
78,23,13,Improv_Metronome,69,9999,9999,9999,2877532208
78,23,13,Improv_Metronome,70,9999,9999,9999,2878033004
78,23,13,Improv_Metronome,71,9999,9999,9999,2878532688
78,23,13,Improv_Metronome,72,9999,9999,9999,2879032436
78,23,13,Improv_Metronome,73,9999,9999,9999,2879532136
78,23,13,Improv_Metronome,74,9999,9999,9999,2880032860
78,23,13,Improv_Metronome,75,9999,9999,9999,2880532548
78,23,13,Improv_Metronome,76,9999,9999,9999,2881032248
78,23,13,Improv_Metronome,77,9999,9999,9999,2881532984
78,23,13,Improv_Metronome,78,9999,9999,9999,2882032740
78,23,13,Improv_Metronome,79,9999,9999,9999,2882532424
78,23,13,Improv_Metronome,80,9999,9999,9999,2883032172
78,23,13,Improv_Metronome,81,9999,9999,9999,2883532916
78,23,13,Improv_Metronome,82,9999,9999,9999,2884032596
78,23,13,Improv_Metronome,83,9999,9999,9999,2884532280
78,23,13,Improv_Metronome,84,9999,9999,9999,2885033024
78,23,13,Improv_Metronome,85,9999,9999,9999,2885532724
78,23,13,Improv_Metronome,86,9999,9999,9999,2886032472
78,23,13,Improv_Metronome,87,9999,9999,9999,2886532216
78,23,13,Improv_Metronome,88,9999,9999,9999,2887032928
78,23,13,Improv_Metronome,89,9999,9999,9999,2887532628
78,23,13,Improv_Metronome,90,9999,9999,9999,2888032376
78,23,13,Improv_Metronome,91,9999,9999,9999,2888533112
78,23,13,Improv_Metronome,92,9999,9999,9999,2889032804
78,23,13,Improv_Metronome,93,9999,9999,9999,2889532504
78,23,13,Improv_Metronome,94,9999,9999,9999,2890032232
78,23,13,Improv_Metronome,95,9999,9999,9999,2890532968
78,23,13,Improv_Metronome,96,9999,9999,9999,2891032640
78,23,13,Improv_Metronome,97,9999,9999,9999,2891532336
78,23,13,Improv_Metronome,98,9999,9999,9999,2892032092
78,23,13,Improv_Metronome,99,9999,9999,9999,2892532832
78,23,13,Improv_Metronome,100,9999,9999,9999,2893032528
78,23,13,Improv_Metronome,101,9999,9999,9999,2893532216
78,23,13,Improv_Metronome,102,9999,9999,9999,2894033016
78,23,13,Improv_Metronome,103,9999,9999,9999,2894532704
78,23,13,Improv_Metronome,104,9999,9999,9999,2895032380
78,23,13,Improv_Metronome,105,9999,9999,9999,2895532148
78,23,13,Improv_Metronome,106,9999,9999,9999,2896032872
78,23,13,Improv_Metronome,107,9999,9999,9999,2896532560
78,23,13,Improv_Metronome,108,9999,9999,9999,2897032304
78,23,13,Improv_Metronome,109,9999,9999,9999,2897533020
78,23,13,Improv_Metronome,110,9999,9999,9999,2898032700
78,23,13,Improv_Metronome,111,9999,9999,9999,2898532464
78,23,13,Improv_Metronome,112,9999,9999,9999,2899032136
78,23,13,Improv_Metronome,113,9999,9999,9999,2899532880
78,23,13,Improv_Metronome,114,9999,9999,9999,2900032632
78,23,13,Improv_Metronome,115,9999,9999,9999,2900532320
78,23,13,Improv_Metronome,116,9999,9999,9999,2901033060
78,23,13,Improv_Metronome,117,9999,9999,9999,2901532764
78,23,13,Improv_Metronome,118,9999,9999,9999,2902032436
78,23,13,Improv_Metronome,119,9999,9999,9999,2902532196
78,23,13,Improv_Metronome,120,9999,9999,9999,2903032916
78,23,13,Improv_Metronome,121,9999,9999,9999,2903532612
78,23,13,Improv_Metronome,122,9999,9999,9999,2904032364
78,23,13,Improv_Metronome,123,9999,9999,9999,2904533100
78,23,13,Improv_Metronome,124,9999,9999,9999,2905032796
78,23,13,Improv_Metronome,125,9999,9999,9999,2905532492
78,23,13,Improv_Metronome,126,9999,9999,9999,2906032248
78,23,13,Improv_Metronome,127,9999,9999,9999,2906532980
78,23,13,Improv_Metronome,128,9999,9999,9999,2907032652
78,23,13,Improv_Metronome,129,9999,9999,9999,2907532348
78,23,13,Improv_Metronome,130,9999,9999,9999,2908032076
78,23,13,Improv_Metronome,131,9999,9999,9999,2908532808
78,23,13,Improv_Metronome,132,9999,9999,9999,2909032504
78,23,13,Improv_Metronome,133,9999,9999,9999,2909532272
78,23,13,Improv_Metronome,134,9999,9999,9999,2910033000
78,23,13,Improv_Metronome,135,9999,9999,9999,2910532688
78,23,13,Improv_Metronome,136,9999,9999,9999,2911032436
78,23,13,Improv_Metronome,137,9999,9999,9999,2911532132
78,23,13,Improv_Metronome,138,9999,9999,9999,2912032856
78,23,13,Improv_Metronome,139,9999,9999,9999,2912532548
78,1,14,Improv_Melody,0,2,48,80,79441180
78,1,14,Improv_Melody,1,2,72,80,79443772
78,1,14,Improv_Melody,2,5,42,127,79445484
78,1,14,Improv_Melody,3,5,42,110,79938028
78,1,14,Improv_Melody,4,5,42,110,80437604
78,1,14,Improv_Melody,5,5,42,110,80938444
78,1,14,Improv_Melody,6,5,42,127,81437944
78,1,14,Improv_Melody,7,5,42,110,81937812
78,1,14,Improv_Melody,8,5,42,110,82437660
78,1,14,Improv_Melody,9,5,42,110,82938352
78,1,14,Improv_Melody,10,2,43,80,83440424
78,1,14,Improv_Melody,11,2,67,80,83442356
78,1,14,Improv_Melody,12,5,42,127,83444968
78,1,14,Improv_Melody,13,5,42,110,83937736
78,1,14,Improv_Melody,14,5,42,110,84438356
78,1,14,Improv_Melody,15,5,42,110,84938228
78,1,14,Improv_Melody,16,5,42,127,85437724
78,1,14,Improv_Melody,17,5,42,110,85937596
78,1,14,Improv_Melody,18,5,42,110,86438288
78,1,14,Improv_Melody,19,5,42,110,86937936
78,1,14,Improv_Melody,20,2,45,80,87440392
78,1,14,Improv_Melody,21,2,69,80,87442312
78,1,14,Improv_Melody,22,5,42,127,87444700
78,1,14,Improv_Melody,23,5,42,110,87938292
78,1,14,Improv_Melody,24,5,42,110,88438236
78,1,14,Improv_Melody,25,5,42,110,88937884
78,1,14,Improv_Melody,26,5,42,127,89437532
78,1,14,Improv_Melody,27,5,42,110,89938224
78,1,14,Improv_Melody,28,5,42,110,90438096
78,1,14,Improv_Melody,29,5,42,110,90937596
78,1,14,Improv_Melody,30,2,41,80,91439744
78,1,14,Improv_Melody,31,2,65,80,91442044
78,1,14,Improv_Melody,32,5,42,127,91444436
78,1,14,Improv_Melody,33,5,42,110,91938172
78,1,14,Improv_Melody,34,5,42,110,92437748
78,1,14,Improv_Melody,35,5,42,110,92937444
78,1,14,Improv_Melody,36,5,42,127,93438284
78,1,14,Improv_Melody,37,1,38,58,93604856
78,1,14,Improv_Melody,38,5,42,110,93938212
78,1,14,Improv_Melody,39,1,38,59,94093644
78,1,14,Improv_Melody,40,5,42,110,94437688
78,1,14,Improv_Melody,41,1,38,54,94679140
78,1,14,Improv_Melody,42,1,38,63,94936328
78,1,14,Improv_Melody,43,5,42,110,94939248
78,1,14,Improv_Melody,44,1,38,59,95160564
78,1,14,Improv_Melody,45,2,48,80,95440688
78,1,14,Improv_Melody,46,2,72,80,95443144
78,1,14,Improv_Melody,47,5,42,127,95445600
78,1,14,Improv_Melody,48,1,38,60,95935476
78,1,14,Improv_Melody,49,5,42,110,95938136
78,1,14,Improv_Melody,50,1,48,67,96415280
78,1,14,Improv_Melody,51,5,42,110,96437688
78,1,14,Improv_Melody,52,1,48,66,96672840
78,1,14,Improv_Melody,53,1,38,59,96921316
78,1,14,Improv_Melody,54,5,42,110,96938264
78,1,14,Improv_Melody,55,1,48,69,97167732
78,1,14,Improv_Melody,56,5,42,127,97438096
78,1,14,Improv_Melody,57,1,48,72,97717092
78,1,14,Improv_Melody,58,5,42,110,97937724
78,1,14,Improv_Melody,59,1,38,70,97997612
78,1,14,Improv_Melody,60,1,48,67,98201584
78,1,14,Improv_Melody,61,5,42,110,98437400
78,1,14,Improv_Melody,62,1,48,73,98454500
78,1,14,Improv_Melody,63,1,38,72,98924036
78,1,14,Improv_Melody,64,5,42,110,98938216
78,1,14,Improv_Melody,65,1,48,76,99417160
78,1,14,Improv_Melody,66,2,43,80,99440724
78,1,14,Improv_Melody,67,2,67,80,99442872
78,1,14,Improv_Melody,68,5,42,127,99445404
78,1,14,Improv_Melody,69,5,42,110,99937632
78,1,14,Improv_Melody,70,1,38,82,99941500
78,1,14,Improv_Melody,71,1,48,79,100382836
78,1,14,Improv_Melody,72,5,42,110,100438372
78,1,14,Improv_Melody,73,1,48,72,100651236
78,1,14,Improv_Melody,74,1,38,70,100903008
78,1,14,Improv_Melody,75,5,42,110,100937980
78,1,14,Improv_Melody,76,1,48,79,101132788
78,1,14,Improv_Melody,77,5,42,127,101437936
78,1,14,Improv_Melody,78,1,48,84,101707584
78,1,14,Improv_Melody,79,5,42,110,101937488
78,1,14,Improv_Melody,80,1,38,70,101939576
78,1,14,Improv_Melody,81,1,48,75,102187964
78,1,14,Improv_Melody,82,5,42,110,102438212
78,1,14,Improv_Melody,83,1,48,74,102443944
78,1,14,Improv_Melody,84,5,42,110,102937988
78,1,14,Improv_Melody,85,1,38,66,102945664
78,1,14,Improv_Melody,86,2,45,80,103440188
78,1,14,Improv_Melody,87,2,69,80,103442644
78,1,14,Improv_Melody,88,5,42,127,103445100
78,1,14,Improv_Melody,89,1,48,78,103456672
78,1,14,Improv_Melody,90,5,42,110,103938420
78,1,14,Improv_Melody,91,1,38,65,103977244
78,1,14,Improv_Melody,92,1,48,76,104424084
78,1,14,Improv_Melody,93,5,42,110,104438040
78,1,14,Improv_Melody,94,1,48,73,104659948
78,1,14,Improv_Melody,95,1,38,72,104909476
78,1,14,Improv_Melody,96,5,42,110,104937940
78,1,14,Improv_Melody,97,1,48,83,105138908
78,1,14,Improv_Melody,98,5,42,127,105437624
78,1,14,Improv_Melody,99,1,48,81,105693956
78,1,14,Improv_Melody,100,1,38,67,105935036
78,1,14,Improv_Melody,101,5,42,110,105938216
78,1,14,Improv_Melody,102,1,48,73,106160872
78,1,14,Improv_Melody,103,1,48,81,106421992
78,1,14,Improv_Melody,104,5,42,110,106438040
78,1,14,Improv_Melody,105,1,38,65,106934412
78,1,14,Improv_Melody,106,5,42,110,106937892
78,1,14,Improv_Melody,107,2,41,80,107440028
78,1,14,Improv_Melody,108,2,65,80,107442028
78,1,14,Improv_Melody,109,5,42,127,107444864
78,1,14,Improv_Melody,110,1,48,81,107453968
78,1,14,Improv_Melody,111,1,38,72,107937988
78,1,14,Improv_Melody,112,5,42,110,107940372
78,1,14,Improv_Melody,113,5,42,110,108437984
78,1,14,Improv_Melody,114,1,48,77,108441400
78,1,14,Improv_Melody,115,1,48,72,108700880
78,1,14,Improv_Melody,116,1,38,69,108926692
78,1,14,Improv_Melody,117,5,42,110,108937804
78,1,14,Improv_Melody,118,1,48,69,109144236
78,1,14,Improv_Melody,119,1,38,93,109390620
78,1,14,Improv_Melody,120,5,42,127,109438232
78,1,14,Improv_Melody,121,1,48,71,109604788
78,1,14,Improv_Melody,122,1,48,64,109872276
78,1,14,Improv_Melody,123,5,42,110,109937984
78,1,14,Improv_Melody,124,1,38,100,110123988
78,1,14,Improv_Melody,125,1,48,74,110357740
78,1,14,Improv_Melody,126,5,42,110,110437960
78,1,14,Improv_Melody,127,1,48,77,110612604
78,1,14,Improv_Melody,128,1,38,95,110890848
78,1,14,Improv_Melody,129,5,42,110,110937564
78,1,14,Improv_Melody,130,1,48,72,111365172
78,1,14,Improv_Melody,131,2,48,80,111440588
78,1,14,Improv_Melody,132,2,72,80,111442816
78,1,14,Improv_Melody,133,5,42,127,111445132
78,1,14,Improv_Melody,134,1,38,85,111910984
78,1,14,Improv_Melody,135,5,42,110,111937948
78,1,14,Improv_Melody,136,1,48,76,112411804
78,1,14,Improv_Melody,137,5,42,110,112437872
78,1,14,Improv_Melody,138,1,48,80,112655524
78,1,14,Improv_Melody,139,1,38,100,112898740
78,1,14,Improv_Melody,140,5,42,110,112938228
78,1,14,Improv_Melody,141,1,48,84,113431152
78,1,14,Improv_Melody,142,5,42,127,113438000
78,1,14,Improv_Melody,143,1,48,77,113674620
78,1,14,Improv_Melody,144,1,38,87,113919064
78,1,14,Improv_Melody,145,5,42,110,113937900
78,1,14,Improv_Melody,146,1,48,86,114158892
78,1,14,Improv_Melody,147,5,42,110,114437784
78,1,14,Improv_Melody,148,1,48,82,114696292
78,1,14,Improv_Melody,149,1,38,97,114917168
78,1,14,Improv_Melody,150,5,42,110,114938152
78,1,14,Improv_Melody,151,2,43,80,115440668
78,1,14,Improv_Melody,152,2,67,80,115442588
78,1,14,Improv_Melody,153,1,48,86,115444452
78,1,14,Improv_Melody,154,5,42,127,115446684
78,1,14,Improv_Melody,155,5,42,110,115937868
78,1,14,Improv_Melody,156,1,38,79,115960140
78,1,14,Improv_Melody,157,1,48,82,116416204
78,1,14,Improv_Melody,158,5,42,110,116438240
78,1,14,Improv_Melody,159,1,48,78,116656412
78,1,14,Improv_Melody,160,1,38,94,116921340
78,1,14,Improv_Melody,161,5,42,110,116937988
78,1,14,Improv_Melody,162,5,42,127,117437772
78,1,14,Improv_Melody,163,1,48,80,117440740
78,1,14,Improv_Melody,164,1,48,82,117675900
78,1,14,Improv_Melody,165,1,38,77,117910396
78,1,14,Improv_Melody,166,5,42,110,117937740
78,1,14,Improv_Melody,167,1,48,75,118158976
78,1,14,Improv_Melody,168,5,42,110,118438244
78,1,14,Improv_Melody,169,1,48,82,118686728
78,1,14,Improv_Melody,170,1,38,96,118924732
78,1,14,Improv_Melody,171,5,42,110,118937940
78,1,14,Improv_Melody,172,1,48,71,119423832
78,1,14,Improv_Melody,173,2,45,80,119440220
78,1,14,Improv_Melody,174,2,69,80,119442448
78,1,14,Improv_Melody,175,5,42,127,119445056
78,1,14,Improv_Melody,176,1,38,81,119928784
78,1,14,Improv_Melody,177,5,42,110,119938548
78,1,14,Improv_Melody,178,1,48,84,120414572
78,1,14,Improv_Melody,179,5,42,110,120438024
78,1,14,Improv_Melody,180,1,48,71,120644596
78,1,14,Improv_Melody,181,1,38,98,120901688
78,1,14,Improv_Melody,182,5,42,110,120937856
78,1,14,Improv_Melody,183,1,48,83,121426740
78,1,14,Improv_Melody,184,5,42,127,121437776
78,1,14,Improv_Melody,185,1,48,72,121647948
78,1,14,Improv_Melody,186,5,42,110,121938436
78,1,14,Improv_Melody,187,1,38,101,121957788
78,1,14,Improv_Melody,188,1,48,80,122203944
78,1,14,Improv_Melody,189,5,42,110,122437888
78,1,14,Improv_Melody,190,1,48,81,122676192
78,1,14,Improv_Melody,191,1,38,87,122905976
78,1,14,Improv_Melody,192,5,42,110,122937660
78,1,14,Improv_Melody,193,1,48,82,123383512
78,1,14,Improv_Melody,194,2,41,80,123440012
78,1,14,Improv_Melody,195,2,65,80,123442240
78,1,14,Improv_Melody,196,5,42,127,123444848
78,1,14,Improv_Melody,197,1,38,78,123905364
78,1,14,Improv_Melody,198,5,42,110,123938116
78,1,14,Improv_Melody,199,1,48,70,124377392
78,1,14,Improv_Melody,200,5,42,110,124437968
78,1,14,Improv_Melody,201,1,48,70,124637416
78,1,14,Improv_Melody,202,1,38,77,124890756
78,1,14,Improv_Melody,203,5,42,110,124937548
78,1,14,Improv_Melody,204,1,48,85,125141952
78,1,14,Improv_Melody,205,1,38,101,125390060
78,1,14,Improv_Melody,206,5,42,127,125438420
78,1,14,Improv_Melody,207,1,48,73,125631008
78,1,14,Improv_Melody,208,1,48,71,125870440
78,1,14,Improv_Melody,209,5,42,110,125938024
78,1,14,Improv_Melody,210,1,38,99,126122460
78,1,14,Improv_Melody,211,1,48,69,126376672
78,1,14,Improv_Melody,212,5,42,110,126437676
78,1,14,Improv_Melody,213,1,48,81,126643208
78,1,14,Improv_Melody,214,5,42,110,126937512
78,1,14,Improv_Melody,215,1,38,94,126950804
78,1,14,Improv_Melody,216,1,48,89,127405600
78,1,14,Improv_Melody,217,2,48,80,127440832
78,1,14,Improv_Melody,218,2,72,80,127443060
78,1,14,Improv_Melody,219,5,42,127,127445668
78,1,14,Improv_Melody,220,1,38,89,127908752
78,1,14,Improv_Melody,221,5,42,110,127938040
78,1,14,Improv_Melody,222,1,48,76,128165484
78,1,14,Improv_Melody,223,5,42,110,128437576
78,1,14,Improv_Melody,224,1,48,74,128672736
78,1,14,Improv_Melody,225,1,38,91,128932068
78,1,14,Improv_Melody,226,5,42,110,128938464
78,1,14,Improv_Melody,227,1,48,81,129422720
78,1,14,Improv_Melody,228,5,42,127,129438240
78,1,14,Improv_Melody,229,5,42,110,129937804
78,1,14,Improv_Melody,230,1,38,72,129944356
78,1,14,Improv_Melody,231,1,48,81,130175264
78,1,14,Improv_Melody,232,5,42,110,130437628
78,1,14,Improv_Melody,233,1,48,86,130688056
78,1,14,Improv_Melody,234,1,38,75,130911404
78,1,14,Improv_Melody,235,5,42,110,130938292
78,1,14,Improv_Melody,236,1,48,84,131404444
78,1,14,Improv_Melody,237,2,43,80,131440572
78,1,14,Improv_Melody,238,2,67,80,131442876
78,1,14,Improv_Melody,239,5,42,127,131445556
78,1,14,Improv_Melody,240,1,38,92,131922184
78,1,14,Improv_Melody,241,5,42,110,131937632
78,1,14,Improv_Melody,242,1,48,78,132192752
78,1,14,Improv_Melody,243,5,42,110,132438364
78,1,14,Improv_Melody,244,1,48,89,132713096
78,1,14,Improv_Melody,245,5,42,110,132938288
78,1,14,Improv_Melody,246,1,38,95,132953896
78,1,14,Improv_Melody,247,1,48,92,133429340
78,1,14,Improv_Melody,248,5,42,127,133437680
78,1,14,Improv_Melody,249,1,38,95,133933304
78,1,14,Improv_Melody,250,5,42,110,133937456
78,1,14,Improv_Melody,251,1,48,83,134169016
78,1,14,Improv_Melody,252,5,42,110,134438408
78,1,14,Improv_Melody,253,1,48,91,134700728
78,1,14,Improv_Melody,254,5,42,110,134938408
78,1,14,Improv_Melody,255,1,38,81,134945120
78,1,14,Improv_Melody,256,1,48,95,135380596
78,1,14,Improv_Melody,257,2,45,80,135440308
78,1,14,Improv_Melody,258,2,69,80,135442308
78,1,14,Improv_Melody,259,5,42,127,135444920
78,1,14,Improv_Melody,260,1,38,97,135891824
78,1,14,Improv_Melody,261,5,42,110,135938316
78,1,14,Improv_Melody,262,1,48,74,136154244
78,1,14,Improv_Melody,263,5,42,110,136438372
78,1,14,Improv_Melody,264,1,48,88,136695228
78,1,14,Improv_Melody,265,5,42,110,136937776
78,1,14,Improv_Melody,266,1,38,79,136944480
78,1,14,Improv_Melody,267,5,42,127,137437476
78,1,14,Improv_Melody,268,1,48,89,137452256
78,1,14,Improv_Melody,269,1,38,92,137932864
78,1,14,Improv_Melody,270,5,42,110,137938288
78,1,14,Improv_Melody,271,1,48,83,138199396
78,1,14,Improv_Melody,272,5,42,110,138438272
78,1,14,Improv_Melody,273,1,48,93,138699764
78,1,14,Improv_Melody,274,5,42,110,138937600
78,1,14,Improv_Melody,275,1,38,91,138938564
78,1,14,Improv_Melody,276,2,41,80,139440104
78,1,14,Improv_Melody,277,2,65,80,139442104
78,1,14,Improv_Melody,278,1,48,88,139443744
78,1,14,Improv_Melody,279,5,42,127,139446200
78,1,14,Improv_Melody,280,5,42,110,139938356
78,1,14,Improv_Melody,281,1,38,78,139950676
78,1,14,Improv_Melody,282,1,48,80,140188384
78,1,14,Improv_Melody,283,5,42,110,140438036
78,1,14,Improv_Melody,284,1,48,87,140716140
78,1,14,Improv_Melody,285,1,38,82,140925716
78,1,14,Improv_Melody,286,5,42,110,140937652
78,1,14,Improv_Melody,287,1,48,96,141435144
78,1,14,Improv_Melody,288,5,42,127,141438400
78,1,14,Improv_Melody,289,1,38,85,141929612
78,1,14,Improv_Melody,290,5,42,110,141938248
78,1,14,Improv_Melody,291,1,48,94,142166820
78,1,14,Improv_Melody,292,5,42,110,142437636
78,1,14,Improv_Melody,293,1,38,97,142937580
78,1,14,Improv_Melody,294,5,42,110,142940416
78,1,14,Improv_Melody,295,1,48,76,143440760
78,1,14,Improv_Melody,296,2,48,80,143442176
78,1,14,Improv_Melody,297,2,72,80,143443944
78,1,14,Improv_Melody,298,5,42,127,143446340
78,1,14,Improv_Melody,299,1,38,91,143935372
78,1,14,Improv_Melody,300,5,42,110,143938404
78,1,14,Improv_Melody,301,1,48,92,144177600
78,1,14,Improv_Melody,302,5,42,110,144437496
78,1,14,Improv_Melody,303,5,42,110,144938264
78,1,14,Improv_Melody,304,1,48,88,144945276
78,1,14,Improv_Melody,305,1,48,51,144977492
78,1,14,Improv_Melody,306,1,48,81,145404212
78,1,14,Improv_Melody,307,5,42,127,145438160
78,1,14,Improv_Melody,308,1,38,88,145882968
78,1,14,Improv_Melody,309,5,42,110,145937936
78,1,14,Improv_Melody,310,1,48,81,146123172
78,1,14,Improv_Melody,311,5,42,110,146437372
78,1,14,Improv_Melody,312,5,42,110,146938364
78,1,14,Improv_Melody,313,2,43,80,147440516
78,1,14,Improv_Melody,314,2,67,80,147442748
78,1,14,Improv_Melody,315,5,42,127,147445280
78,1,14,Improv_Melody,316,1,48,84,147475424
78,1,14,Improv_Melody,317,5,42,110,147937576
78,1,14,Improv_Melody,318,1,38,81,147938916
78,1,14,Improv_Melody,319,1,48,93,148186032
78,1,14,Improv_Melody,320,5,42,110,148438304
78,1,14,Improv_Melody,321,5,42,110,148938176
78,1,14,Improv_Melody,322,1,48,80,148968220
78,1,14,Improv_Melody,323,1,48,40,149004424
78,1,14,Improv_Melody,324,5,42,127,149437924
78,1,14,Improv_Melody,325,1,48,93,149442616
78,1,14,Improv_Melody,326,1,38,81,149937996
78,1,14,Improv_Melody,327,5,42,110,149940156
78,1,14,Improv_Melody,328,1,48,78,150162972
78,1,14,Improv_Melody,329,5,42,110,150438200
78,1,14,Improv_Melody,330,5,42,110,150937924
78,1,14,Improv_Melody,331,1,48,103,151410072
78,1,14,Improv_Melody,332,2,45,80,151440292
78,1,14,Improv_Melody,333,2,69,80,151442448
78,1,14,Improv_Melody,334,5,42,127,151445276
78,1,14,Improv_Melody,335,1,38,78,151933124
78,1,14,Improv_Melody,336,5,42,110,151938400
78,1,14,Improv_Melody,337,1,48,92,152203164
78,1,14,Improv_Melody,338,5,42,110,152438008
78,1,14,Improv_Melody,339,1,48,97,152901928
78,1,14,Improv_Melody,340,5,42,110,152937800
78,1,14,Improv_Melody,341,1,48,96,153391756
78,1,14,Improv_Melody,342,5,42,127,153437500
78,1,14,Improv_Melody,343,1,38,86,153893400
78,1,14,Improv_Melody,344,5,42,110,153938172
78,1,14,Improv_Melody,345,1,48,73,154148712
78,1,14,Improv_Melody,346,5,42,110,154437932
78,1,14,Improv_Melody,347,5,42,110,154937804
78,1,14,Improv_Melody,348,1,48,88,155398188
78,1,14,Improv_Melody,349,2,41,80,155439948
78,1,14,Improv_Melody,350,2,65,80,155442248
78,1,14,Improv_Melody,351,5,42,127,155444780
78,1,14,Improv_Melody,352,1,38,80,155925744
78,1,14,Improv_Melody,353,5,42,110,155938052
78,1,14,Improv_Melody,354,1,48,92,156172152
78,1,14,Improv_Melody,355,5,42,110,156437740
78,1,14,Improv_Melody,356,5,42,110,156937732
78,1,14,Improv_Melody,357,1,48,103,157414720
78,1,14,Improv_Melody,358,5,42,127,157438244
78,1,14,Improv_Melody,359,1,38,95,157915464
78,1,14,Improv_Melody,360,5,42,110,157937948
78,1,14,Improv_Melody,361,1,48,93,158167860
78,1,14,Improv_Melody,362,5,42,110,158437704
78,1,14,Improv_Melody,363,1,48,85,158673616
78,1,14,Improv_Melody,364,1,38,104,158909608
78,1,14,Improv_Melody,365,5,42,110,158937396
78,1,14,Improv_Melody,366,1,48,84,159425312
78,1,14,Improv_Melody,367,2,48,80,159440644
78,1,14,Improv_Melody,368,2,72,80,159442724
78,1,14,Improv_Melody,369,5,42,127,159445336
78,1,14,Improv_Melody,370,1,38,88,159934528
78,1,14,Improv_Melody,371,5,42,110,159937784
78,1,14,Improv_Melody,372,1,48,93,160180492
78,1,14,Improv_Melody,0,9999,9999,9999,79435828
78,1,14,Improv_Melody,1,9999,9999,9999,79935584
78,1,14,Improv_Melody,2,9999,9999,9999,80435308
78,1,14,Improv_Melody,3,9999,9999,9999,80936000
78,1,14,Improv_Melody,4,9999,9999,9999,81435724
78,1,14,Improv_Melody,5,9999,9999,9999,81935444
78,1,14,Improv_Melody,6,9999,9999,9999,82435140
78,1,14,Improv_Melody,7,9999,9999,9999,82935908
78,1,14,Improv_Melody,8,9999,9999,9999,83435632
78,1,14,Improv_Melody,9,9999,9999,9999,83935292
78,1,14,Improv_Melody,10,9999,9999,9999,84436060
78,1,14,Improv_Melody,11,9999,9999,9999,84935784
78,1,14,Improv_Melody,12,9999,9999,9999,85435504
78,1,14,Improv_Melody,13,9999,9999,9999,85935224
78,1,14,Improv_Melody,14,9999,9999,9999,86435916
78,1,14,Improv_Melody,15,9999,9999,9999,86935640
78,1,14,Improv_Melody,16,9999,9999,9999,87435360
78,1,14,Improv_Melody,17,9999,9999,9999,87936072
78,1,14,Improv_Melody,18,9999,9999,9999,88435792
78,1,14,Improv_Melody,19,9999,9999,9999,88935512
78,1,14,Improv_Melody,20,9999,9999,9999,89435236
78,1,14,Improv_Melody,21,9999,9999,9999,89935928
78,1,14,Improv_Melody,22,9999,9999,9999,90435652
78,1,14,Improv_Melody,23,9999,9999,9999,90935376
78,1,14,Improv_Melody,24,9999,9999,9999,91435096
78,1,14,Improv_Melody,25,9999,9999,9999,91935804
78,1,14,Improv_Melody,26,9999,9999,9999,92435524
78,1,14,Improv_Melody,27,9999,9999,9999,92935224
78,1,14,Improv_Melody,28,9999,9999,9999,93435988
78,1,14,Improv_Melody,29,9999,9999,9999,93935692
78,1,14,Improv_Melody,30,9999,9999,9999,94435392
78,1,14,Improv_Melody,31,9999,9999,9999,94935092
78,1,14,Improv_Melody,32,9999,9999,9999,95435892
78,1,14,Improv_Melody,33,9999,9999,9999,95935544
78,1,14,Improv_Melody,34,9999,9999,9999,96435320
78,1,14,Improv_Melody,35,9999,9999,9999,96936044
78,1,14,Improv_Melody,36,9999,9999,9999,97435728
78,1,14,Improv_Melody,37,9999,9999,9999,97935428
78,1,14,Improv_Melody,38,9999,9999,9999,98435176
78,1,14,Improv_Melody,39,9999,9999,9999,98935920
78,1,14,Improv_Melody,40,9999,9999,9999,99435620
78,1,14,Improv_Melody,41,9999,9999,9999,99935340
78,1,14,Improv_Melody,42,9999,9999,9999,100436080
78,1,14,Improv_Melody,43,9999,9999,9999,100935756
78,1,14,Improv_Melody,44,9999,9999,9999,101435492
78,1,14,Improv_Melody,45,9999,9999,9999,101935192
78,1,14,Improv_Melody,46,9999,9999,9999,102435916
78,1,14,Improv_Melody,47,9999,9999,9999,102935616
78,1,14,Improv_Melody,48,9999,9999,9999,103435368
78,1,14,Improv_Melody,49,9999,9999,9999,103936056
78,1,14,Improv_Melody,50,9999,9999,9999,104435820
78,1,14,Improv_Melody,51,9999,9999,9999,104935496
78,1,14,Improv_Melody,52,9999,9999,9999,105435256
78,1,14,Improv_Melody,53,9999,9999,9999,105935920
78,1,14,Improv_Melody,54,9999,9999,9999,106435672
78,1,14,Improv_Melody,55,9999,9999,9999,106935372
78,1,14,Improv_Melody,56,9999,9999,9999,107435080
78,1,14,Improv_Melody,57,9999,9999,9999,107935840
78,1,14,Improv_Melody,58,9999,9999,9999,108435540
78,1,14,Improv_Melody,59,9999,9999,9999,108935288
78,1,14,Improv_Melody,60,9999,9999,9999,109436012
78,1,14,Improv_Melody,61,9999,9999,9999,109935692
78,1,14,Improv_Melody,62,9999,9999,9999,110435444
78,1,14,Improv_Melody,63,9999,9999,9999,110935120
78,1,14,Improv_Melody,64,9999,9999,9999,111435868
78,1,14,Improv_Melody,65,9999,9999,9999,111935580
78,1,14,Improv_Melody,66,9999,9999,9999,112435280
78,1,14,Improv_Melody,67,9999,9999,9999,112936004
78,1,14,Improv_Melody,68,9999,9999,9999,113435704
78,1,14,Improv_Melody,69,9999,9999,9999,113935456
78,1,14,Improv_Melody,70,9999,9999,9999,114435192
78,1,14,Improv_Melody,71,9999,9999,9999,114935856
78,1,14,Improv_Melody,72,9999,9999,9999,115435640
78,1,14,Improv_Melody,73,9999,9999,9999,115935352
78,1,14,Improv_Melody,74,9999,9999,9999,116436016
78,1,14,Improv_Melody,75,9999,9999,9999,116935768
78,1,14,Improv_Melody,76,9999,9999,9999,117435476
78,1,14,Improv_Melody,77,9999,9999,9999,117935220
78,1,14,Improv_Melody,78,9999,9999,9999,118435952
78,1,14,Improv_Melody,79,9999,9999,9999,118935644
78,1,14,Improv_Melody,80,9999,9999,9999,119435344
78,1,14,Improv_Melody,81,9999,9999,9999,119936108
78,1,14,Improv_Melody,82,9999,9999,9999,120435804
78,1,14,Improv_Melody,83,9999,9999,9999,120935484
78,1,14,Improv_Melody,84,9999,9999,9999,121435184
78,1,14,Improv_Melody,85,9999,9999,9999,121935992
78,1,14,Improv_Melody,86,9999,9999,9999,122435668
78,1,14,Improv_Melody,87,9999,9999,9999,122935364
78,1,14,Improv_Melody,88,9999,9999,9999,123435064
78,1,14,Improv_Melody,89,9999,9999,9999,123935820
78,1,14,Improv_Melody,90,9999,9999,9999,124435524
78,1,14,Improv_Melody,91,9999,9999,9999,124935252
78,1,14,Improv_Melody,92,9999,9999,9999,125435976
78,1,14,Improv_Melody,93,9999,9999,9999,125935728
78,1,14,Improv_Melody,94,9999,9999,9999,126435380
78,1,14,Improv_Melody,95,9999,9999,9999,126935140
78,1,14,Improv_Melody,96,9999,9999,9999,127435884
78,1,14,Improv_Melody,97,9999,9999,9999,127935596
78,1,14,Improv_Melody,98,9999,9999,9999,128435280
78,1,14,Improv_Melody,99,9999,9999,9999,128936024
78,1,14,Improv_Melody,100,9999,9999,9999,129435724
78,1,14,Improv_Melody,101,9999,9999,9999,129935432
78,1,14,Improv_Melody,102,9999,9999,9999,130435184
78,1,14,Improv_Melody,103,9999,9999,9999,130935924
78,1,14,Improv_Melody,104,9999,9999,9999,131435624
78,1,14,Improv_Melody,105,9999,9999,9999,131935336
78,1,14,Improv_Melody,106,9999,9999,9999,132436068
78,1,14,Improv_Melody,107,9999,9999,9999,132935768
78,1,14,Improv_Melody,108,9999,9999,9999,133435460
78,1,14,Improv_Melody,109,9999,9999,9999,133935160
78,1,14,Improv_Melody,110,9999,9999,9999,134435892
78,1,14,Improv_Melody,111,9999,9999,9999,134935668
78,1,14,Improv_Melody,112,9999,9999,9999,135435360
78,1,14,Improv_Melody,113,9999,9999,9999,135936100
78,1,14,Improv_Melody,114,9999,9999,9999,136435780
78,1,14,Improv_Melody,115,9999,9999,9999,136935480
78,1,14,Improv_Melody,116,9999,9999,9999,137435252
78,1,14,Improv_Melody,117,9999,9999,9999,137935992
78,1,14,Improv_Melody,118,9999,9999,9999,138435676
78,1,14,Improv_Melody,119,9999,9999,9999,138935380
78,1,14,Improv_Melody,120,9999,9999,9999,139435080
78,1,14,Improv_Melody,121,9999,9999,9999,139935840
78,1,14,Improv_Melody,122,9999,9999,9999,140435516
78,1,14,Improv_Melody,123,9999,9999,9999,140935284
78,1,14,Improv_Melody,124,9999,9999,9999,141435956
78,1,14,Improv_Melody,125,9999,9999,9999,141935732
78,1,14,Improv_Melody,126,9999,9999,9999,142435416
78,1,14,Improv_Melody,127,9999,9999,9999,142935136
78,1,14,Improv_Melody,128,9999,9999,9999,143435884
78,1,14,Improv_Melody,129,9999,9999,9999,143935592
78,1,14,Improv_Melody,130,9999,9999,9999,144435276
78,1,14,Improv_Melody,131,9999,9999,9999,144936044
78,1,14,Improv_Melody,132,9999,9999,9999,145435716
78,1,14,Improv_Melody,133,9999,9999,9999,145935416
78,1,14,Improv_Melody,134,9999,9999,9999,146435152
78,1,14,Improv_Melody,135,9999,9999,9999,146935920
78,1,14,Improv_Melody,136,9999,9999,9999,147435568
78,1,14,Improv_Melody,137,9999,9999,9999,147935280
78,1,14,Improv_Melody,138,9999,9999,9999,148436084
78,1,14,Improv_Melody,139,9999,9999,9999,148935732
78,1,14,Improv_Melody,140,9999,9999,9999,149435480
78,1,14,Improv_Melody,141,9999,9999,9999,149935180
78,1,14,Improv_Melody,142,9999,9999,9999,150435904
78,1,14,Improv_Melody,143,9999,9999,9999,150935628
78,1,14,Improv_Melody,144,9999,9999,9999,151435344
78,1,14,Improv_Melody,145,9999,9999,9999,151936108
78,1,14,Improv_Melody,146,9999,9999,9999,152435788
78,1,14,Improv_Melody,147,9999,9999,9999,152935504
78,1,14,Improv_Melody,148,9999,9999,9999,153435204
78,1,14,Improv_Melody,149,9999,9999,9999,153935952
78,1,14,Improv_Melody,150,9999,9999,9999,154435636
78,1,14,Improv_Melody,151,9999,9999,9999,154935356
78,1,14,Improv_Melody,152,9999,9999,9999,155435072
78,1,14,Improv_Melody,153,9999,9999,9999,155935832
78,1,14,Improv_Melody,154,9999,9999,9999,156435520
78,1,14,Improv_Melody,155,9999,9999,9999,156935288
78,1,14,Improv_Melody,156,9999,9999,9999,157436024
78,1,14,Improv_Melody,157,9999,9999,9999,157935724
78,1,14,Improv_Melody,158,9999,9999,9999,158435408
78,1,14,Improv_Melody,159,9999,9999,9999,158935104
78,1,14,Improv_Melody,160,9999,9999,9999,159435848
78,1,14,Improv_Melody,161,9999,9999,9999,159935564
