pid,taskRunCount,taskID,taskName,i,channel,pitch,velocity,microseconds
79,1,1,Ticks_Pract_5,0,5,42,127,89124180
79,1,1,Ticks_Pract_5,1,5,42,127,89624196
79,1,1,Ticks_Pract_5,2,1,48,18,90077652
79,1,1,Ticks_Pract_5,3,5,42,127,90123608
79,1,1,Ticks_Pract_5,4,1,48,16,90600304
79,1,1,Ticks_Pract_5,5,5,42,127,90624424
79,1,1,Ticks_Pract_5,6,5,42,127,91124272
79,1,1,Ticks_Pract_5,7,5,42,127,91623988
79,1,1,Ticks_Pract_5,8,1,48,22,92100632
79,1,1,Ticks_Pract_5,9,5,42,127,92123696
79,1,1,Ticks_Pract_5,10,1,48,22,92576608
79,1,1,Ticks_Pract_5,11,5,42,127,92624140
79,1,1,Ticks_Pract_5,12,1,48,25,93088424
79,1,1,Ticks_Pract_5,13,5,42,127,93124060
79,1,1,Ticks_Pract_5,14,1,48,20,93597068
79,1,1,Ticks_Pract_5,15,5,42,127,93623604
79,1,1,Ticks_Pract_5,16,1,48,20,94087864
79,1,1,Ticks_Pract_5,17,5,42,127,94124348
79,1,1,Ticks_Pract_5,18,1,48,22,94590696
79,1,1,Ticks_Pract_5,19,5,42,127,94624188
79,1,1,Ticks_Pract_5,20,1,48,19,95091436
79,1,1,Ticks_Pract_5,21,5,42,127,95123784
79,1,1,Ticks_Pract_5,22,1,48,20,95582976
79,1,1,Ticks_Pract_5,23,5,42,127,95623476
79,1,1,Ticks_Pract_5,24,1,48,19,96088284
79,1,1,Ticks_Pract_5,25,5,42,127,96124144
79,1,1,Ticks_Pract_5,26,1,48,24,96592612
79,1,1,Ticks_Pract_5,27,5,42,127,96623840
79,1,1,Ticks_Pract_5,28,1,48,26,97089244
79,1,1,Ticks_Pract_5,29,5,42,127,97123832
79,1,1,Ticks_Pract_5,30,1,48,26,97574500
79,1,1,Ticks_Pract_5,31,5,42,127,97624348
79,1,1,Ticks_Pract_5,32,1,48,24,98084144
79,1,1,Ticks_Pract_5,33,5,42,127,98124116
79,1,1,Ticks_Pract_5,34,1,48,24,98589372
79,1,1,Ticks_Pract_5,35,5,42,127,98623736
79,1,1,Ticks_Pract_5,36,1,48,24,99080088
79,1,1,Ticks_Pract_5,37,5,42,127,99123580
79,1,1,Ticks_Pract_5,38,1,48,24,99575972
79,1,1,Ticks_Pract_5,39,5,42,127,99624324
79,1,1,Ticks_Pract_5,40,1,48,25,100069608
79,1,1,Ticks_Pract_5,41,5,42,127,100124092
79,1,1,Ticks_Pract_5,42,1,48,22,100612756
79,1,1,Ticks_Pract_5,43,5,42,127,100623712
79,1,1,Ticks_Pract_5,44,1,48,27,101104300
79,1,1,Ticks_Pract_5,45,5,42,127,101123332
79,1,1,Ticks_Pract_5,46,1,48,25,101609004
79,1,1,Ticks_Pract_5,47,5,42,127,101624148
79,1,1,Ticks_Pract_5,48,1,48,27,102081848
79,1,1,Ticks_Pract_5,49,5,42,127,102123768
79,1,1,Ticks_Pract_5,50,1,48,21,102602040
79,1,1,Ticks_Pract_5,51,5,42,127,102623612
79,1,1,Ticks_Pract_5,52,1,48,27,103107792
79,1,1,Ticks_Pract_5,53,5,42,127,103124428
79,1,1,Ticks_Pract_5,54,1,48,24,103602548
79,1,1,Ticks_Pract_5,55,5,42,127,103623972
79,1,1,Ticks_Pract_5,56,5,42,127,104123748
79,1,1,Ticks_Pract_5,57,1,48,25,104129040
79,1,1,Ticks_Pract_5,58,5,42,127,104623592
79,1,1,Ticks_Pract_5,59,1,48,21,104636284
79,1,1,Ticks_Pract_5,60,5,42,127,105124112
79,1,1,Ticks_Pract_5,61,1,48,22,105140992
79,1,1,Ticks_Pract_5,62,1,48,21,105604292
79,1,1,Ticks_Pract_5,63,5,42,127,105623848
79,1,1,Ticks_Pract_5,64,5,42,127,106123624
79,1,1,Ticks_Pract_5,65,1,48,19,106148756
79,1,1,Ticks_Pract_5,66,1,48,24,106622400
79,1,1,Ticks_Pract_5,67,5,42,127,106624284
79,1,1,Ticks_Pract_5,68,5,42,127,107124132
79,1,1,Ticks_Pract_5,69,1,48,22,107147000
79,1,1,Ticks_Pract_5,70,1,48,22,107623152
79,1,1,Ticks_Pract_5,71,5,42,127,107624720
79,1,1,Ticks_Pract_5,72,1,48,23,108098652
79,1,1,Ticks_Pract_5,73,5,42,127,108123440
79,1,1,Ticks_Pract_5,74,1,48,19,108599988
79,1,1,Ticks_Pract_5,75,5,42,127,108624180
79,1,1,Ticks_Pract_5,76,1,48,22,109104324
79,1,1,Ticks_Pract_5,0,9999,9999,9999,89121896
79,1,1,Ticks_Pract_5,1,9999,9999,9999,89621612
79,1,1,Ticks_Pract_5,2,9999,9999,9999,90121324
79,1,1,Ticks_Pract_5,3,9999,9999,9999,90622064
79,1,1,Ticks_Pract_5,4,9999,9999,9999,91121764
79,1,1,Ticks_Pract_5,5,9999,9999,9999,91621480
79,1,1,Ticks_Pract_5,6,9999,9999,9999,92121188
79,1,1,Ticks_Pract_5,7,9999,9999,9999,92621928
79,1,1,Ticks_Pract_5,8,9999,9999,9999,93121624
79,1,1,Ticks_Pract_5,9,9999,9999,9999,93621316
79,1,1,Ticks_Pract_5,10,9999,9999,9999,94122060
79,1,1,Ticks_Pract_5,11,9999,9999,9999,94621804
79,1,1,Ticks_Pract_5,12,9999,9999,9999,95121496
79,1,1,Ticks_Pract_5,13,9999,9999,9999,95621192
79,1,1,Ticks_Pract_5,14,9999,9999,9999,96121932
79,1,1,Ticks_Pract_5,15,9999,9999,9999,96621628
79,1,1,Ticks_Pract_5,16,9999,9999,9999,97121396
79,1,1,Ticks_Pract_5,17,9999,9999,9999,97622136
79,1,1,Ticks_Pract_5,18,9999,9999,9999,98121832
79,1,1,Ticks_Pract_5,19,9999,9999,9999,98621524
79,1,1,Ticks_Pract_5,20,9999,9999,9999,99121220
79,1,1,Ticks_Pract_5,21,9999,9999,9999,99621964
79,1,1,Ticks_Pract_5,22,9999,9999,9999,100121656
79,1,1,Ticks_Pract_5,23,9999,9999,9999,100621424
79,1,1,Ticks_Pract_5,24,9999,9999,9999,101121120
79,1,1,Ticks_Pract_5,25,9999,9999,9999,101621860
79,1,1,Ticks_Pract_5,26,9999,9999,9999,102121556
79,1,1,Ticks_Pract_5,27,9999,9999,9999,102621252
79,1,1,Ticks_Pract_5,28,9999,9999,9999,103121992
79,1,1,Ticks_Pract_5,29,9999,9999,9999,103621688
79,1,1,Ticks_Pract_5,30,9999,9999,9999,104121464
79,1,1,Ticks_Pract_5,31,9999,9999,9999,104621160
79,1,1,Ticks_Pract_5,32,9999,9999,9999,105121900
79,1,1,Ticks_Pract_5,33,9999,9999,9999,105621564
79,1,1,Ticks_Pract_5,34,9999,9999,9999,106121336
79,1,1,Ticks_Pract_5,35,9999,9999,9999,106622028
79,1,1,Ticks_Pract_5,36,9999,9999,9999,107121772
79,1,1,Ticks_Pract_5,37,9999,9999,9999,107621468
79,1,1,Ticks_Pract_5,38,9999,9999,9999,108121156
79,1,1,Ticks_Pract_5,39,9999,9999,9999,108621896
79,2,0,Ticks_Pract_8,0,5,42,127,160125500
79,2,0,Ticks_Pract_8,1,5,42,127,160925132
79,2,0,Ticks_Pract_8,2,5,42,127,161724740
79,2,0,Ticks_Pract_8,3,1,48,32,162521616
79,2,0,Ticks_Pract_8,4,5,42,127,162524488
79,2,0,Ticks_Pract_8,5,1,48,16,162626548
79,2,0,Ticks_Pract_8,6,1,48,21,163290360
79,2,0,Ticks_Pract_8,7,5,42,127,163325472
79,2,0,Ticks_Pract_8,8,5,42,127,164125364
79,2,0,Ticks_Pract_8,9,1,48,24,164145316
79,2,0,Ticks_Pract_8,10,5,42,127,164924648
79,2,0,Ticks_Pract_8,11,1,48,20,164950360
79,2,0,Ticks_Pract_8,12,5,42,127,165724456
79,2,0,Ticks_Pract_8,13,1,48,21,165822744
79,2,0,Ticks_Pract_8,14,5,42,127,166525384
79,2,0,Ticks_Pract_8,15,1,48,25,166556204
79,2,0,Ticks_Pract_8,16,1,48,20,167310424
79,2,0,Ticks_Pract_8,17,5,42,127,167325284
79,2,0,Ticks_Pract_8,18,1,48,21,168111152
79,2,0,Ticks_Pract_8,19,5,42,127,168124720
79,2,0,Ticks_Pract_8,20,1,48,23,168876704
79,2,0,Ticks_Pract_8,21,5,42,127,168924380
79,2,0,Ticks_Pract_8,22,5,42,127,169725244
79,2,0,Ticks_Pract_8,23,1,48,24,169739132
79,2,0,Ticks_Pract_8,24,1,48,20,170509680
79,2,0,Ticks_Pract_8,25,5,42,127,170525192
79,2,0,Ticks_Pract_8,26,1,48,19,171277404
79,2,0,Ticks_Pract_8,27,5,42,127,171324852
79,2,0,Ticks_Pract_8,28,1,48,22,172112808
79,2,0,Ticks_Pract_8,29,5,42,127,172124588
79,2,0,Ticks_Pract_8,30,1,48,24,172898636
79,2,0,Ticks_Pract_8,31,5,42,127,172925368
79,2,0,Ticks_Pract_8,32,1,48,23,173692608
79,2,0,Ticks_Pract_8,33,5,42,127,173725128
79,2,0,Ticks_Pract_8,34,1,48,24,174454716
79,2,0,Ticks_Pract_8,35,5,42,127,174525084
79,2,0,Ticks_Pract_8,36,1,48,20,175265996
79,2,0,Ticks_Pract_8,37,5,42,127,175324596
79,2,0,Ticks_Pract_8,38,1,48,20,176121304
79,2,0,Ticks_Pract_8,39,5,42,127,176125228
79,2,0,Ticks_Pract_8,40,1,48,27,176890596
79,2,0,Ticks_Pract_8,41,5,42,127,176924960
79,2,0,Ticks_Pract_8,42,1,48,28,177676792
79,2,0,Ticks_Pract_8,43,5,42,127,177724916
79,2,0,Ticks_Pract_8,44,1,48,24,178449000
79,2,0,Ticks_Pract_8,45,5,42,127,178524504
79,2,0,Ticks_Pract_8,46,1,48,21,179311788
79,2,0,Ticks_Pract_8,47,5,42,127,179325284
79,2,0,Ticks_Pract_8,48,1,48,19,180111668
79,2,0,Ticks_Pract_8,49,5,42,127,180125040
79,2,0,Ticks_Pract_8,50,1,48,32,180914716
79,2,0,Ticks_Pract_8,51,5,42,127,180924848
79,2,0,Ticks_Pract_8,52,1,48,21,181724136
79,2,0,Ticks_Pract_8,53,5,42,127,181725704
79,2,0,Ticks_Pract_8,54,1,48,24,182523172
79,2,0,Ticks_Pract_8,55,5,42,127,182525212
79,2,0,Ticks_Pract_8,56,1,48,14,183324348
79,2,0,Ticks_Pract_8,57,5,42,127,183325844
79,2,0,Ticks_Pract_8,0,9999,9999,9999,160122992
79,2,0,Ticks_Pract_8,1,9999,9999,9999,160922696
79,2,0,Ticks_Pract_8,2,9999,9999,9999,161722452
79,2,0,Ticks_Pract_8,3,9999,9999,9999,162522200
79,2,0,Ticks_Pract_8,4,9999,9999,9999,163322960
79,2,0,Ticks_Pract_8,5,9999,9999,9999,164122700
79,2,0,Ticks_Pract_8,6,9999,9999,9999,164922436
79,2,0,Ticks_Pract_8,7,9999,9999,9999,165722168
79,2,0,Ticks_Pract_8,8,9999,9999,9999,166522948
79,2,0,Ticks_Pract_8,9,9999,9999,9999,167322700
79,2,0,Ticks_Pract_8,10,9999,9999,9999,168122436
79,2,0,Ticks_Pract_8,11,9999,9999,9999,168922168
79,2,0,Ticks_Pract_8,12,9999,9999,9999,169722952
79,2,0,Ticks_Pract_8,13,9999,9999,9999,170522680
79,2,0,Ticks_Pract_8,14,9999,9999,9999,171322416
79,2,0,Ticks_Pract_8,15,9999,9999,9999,172122228
79,2,0,Ticks_Pract_8,16,9999,9999,9999,172922932
79,2,0,Ticks_Pract_8,17,9999,9999,9999,173722688
79,2,0,Ticks_Pract_8,18,9999,9999,9999,174522424
79,2,0,Ticks_Pract_8,19,9999,9999,9999,175322160
79,2,0,Ticks_Pract_8,20,9999,9999,9999,176122940
79,2,0,Ticks_Pract_8,21,9999,9999,9999,176922672
79,2,0,Ticks_Pract_8,22,9999,9999,9999,177722480
79,2,0,Ticks_Pract_8,23,9999,9999,9999,178522216
79,2,0,Ticks_Pract_8,24,9999,9999,9999,179322996
79,2,0,Ticks_Pract_8,25,9999,9999,9999,180122676
79,2,0,Ticks_Pract_8,26,9999,9999,9999,180922488
79,2,0,Ticks_Pract_8,27,9999,9999,9999,181722228
79,2,0,Ticks_Pract_8,28,9999,9999,9999,182522964
79,2,0,Ticks_Pract_8,29,9999,9999,9999,183322740
79,3,4,T1_SMS_5,0,5,42,127,282113348
79,3,4,T1_SMS_5,1,5,42,127,282613360
79,3,4,T1_SMS_5,2,5,42,127,283112704
79,3,4,T1_SMS_5,3,1,48,20,283555532
79,3,4,T1_SMS_5,4,5,42,127,283612564
79,3,4,T1_SMS_5,5,1,48,19,284105564
79,3,4,T1_SMS_5,6,5,42,127,284113380
79,3,4,T1_SMS_5,7,1,48,19,284546452
79,3,4,T1_SMS_5,8,5,42,127,284613000
79,3,4,T1_SMS_5,9,1,48,21,285047116
79,3,4,T1_SMS_5,10,5,42,127,285112620
79,3,4,T1_SMS_5,11,1,48,16,285583084
79,3,4,T1_SMS_5,12,5,42,127,285613364
79,3,4,T1_SMS_5,13,1,48,19,286072012
79,3,4,T1_SMS_5,14,5,42,127,286113280
79,3,4,T1_SMS_5,15,1,48,20,286562432
79,3,4,T1_SMS_5,16,5,42,127,286612752
79,3,4,T1_SMS_5,17,1,48,21,287057636
79,3,4,T1_SMS_5,18,5,42,127,287112572
79,3,4,T1_SMS_5,19,1,48,21,287560544
79,3,4,T1_SMS_5,20,5,42,127,287613312
79,3,4,T1_SMS_5,21,1,48,18,288093072
79,3,4,T1_SMS_5,22,5,42,127,288112932
79,3,4,T1_SMS_5,23,1,48,20,288598904
79,3,4,T1_SMS_5,24,5,42,127,288612776
79,3,4,T1_SMS_5,25,1,48,22,289100768
79,3,4,T1_SMS_5,26,5,42,127,289112548
79,3,4,T1_SMS_5,27,1,48,23,289580420
79,3,4,T1_SMS_5,28,5,42,127,289613216
79,3,4,T1_SMS_5,29,1,48,26,290096648
79,3,4,T1_SMS_5,30,5,42,127,290112836
79,3,4,T1_SMS_5,31,1,48,22,290588636
79,3,4,T1_SMS_5,32,5,42,127,290612604
79,3,4,T1_SMS_5,33,1,48,22,291085712
79,3,4,T1_SMS_5,34,5,42,127,291113272
79,3,4,T1_SMS_5,35,1,48,27,291581296
79,3,4,T1_SMS_5,36,5,42,127,291613192
79,3,4,T1_SMS_5,37,1,48,24,292077248
79,3,4,T1_SMS_5,38,5,42,127,292112812
79,3,4,T1_SMS_5,39,1,48,24,292571560
79,3,4,T1_SMS_5,40,5,42,127,292612432
79,3,4,T1_SMS_5,41,1,48,20,293069088
79,3,4,T1_SMS_5,42,5,42,127,293113324
79,3,4,T1_SMS_5,43,1,48,23,293562424
79,3,4,T1_SMS_5,44,5,42,127,293612868
79,3,4,T1_SMS_5,45,1,48,26,294050224
79,3,4,T1_SMS_5,46,5,42,127,294112640
79,3,4,T1_SMS_5,47,1,48,21,294563308
79,3,4,T1_SMS_5,48,5,42,127,294613308
79,3,4,T1_SMS_5,49,1,48,21,295067568
79,3,4,T1_SMS_5,50,5,42,127,295113152
79,3,4,T1_SMS_5,51,1,48,26,295593144
79,3,4,T1_SMS_5,52,5,42,127,295612924
79,3,4,T1_SMS_5,53,1,48,21,296073064
79,3,4,T1_SMS_5,54,5,42,127,296112396
79,3,4,T1_SMS_5,55,1,48,22,296603680
79,3,4,T1_SMS_5,56,5,42,127,296613212
79,3,4,T1_SMS_5,57,1,48,22,297098036
79,3,4,T1_SMS_5,58,5,42,127,297113128
79,3,4,T1_SMS_5,59,1,48,26,297575964
79,3,4,T1_SMS_5,60,5,42,127,297612504
79,3,4,T1_SMS_5,61,1,48,18,298077008
79,3,4,T1_SMS_5,62,5,42,127,298113468
79,3,4,T1_SMS_5,63,1,48,29,298571844
79,3,4,T1_SMS_5,64,5,42,127,298613312
79,3,4,T1_SMS_5,65,1,48,22,299063980
79,3,4,T1_SMS_5,66,5,42,127,299113152
79,3,4,T1_SMS_5,67,1,48,21,299588812
79,3,4,T1_SMS_5,68,5,42,127,299612476
79,3,4,T1_SMS_5,69,1,48,17,300078928
79,3,4,T1_SMS_5,70,5,42,127,300113220
79,3,4,T1_SMS_5,71,1,48,28,300561944
79,3,4,T1_SMS_5,72,5,42,127,300613136
79,3,4,T1_SMS_5,73,1,48,20,301071960
79,3,4,T1_SMS_5,74,5,42,127,301112612
79,3,4,T1_SMS_5,75,1,48,23,301560212
79,3,4,T1_SMS_5,76,5,42,127,301613500
79,3,4,T1_SMS_5,77,1,48,24,302076284
79,3,4,T1_SMS_5,78,5,42,127,302113268
79,3,4,T1_SMS_5,79,1,48,19,302599992
79,3,4,T1_SMS_5,80,5,42,127,302613040
79,3,4,T1_SMS_5,81,1,48,28,303080692
79,3,4,T1_SMS_5,82,5,42,127,303112512
79,3,4,T1_SMS_5,83,1,48,21,303597068
79,3,4,T1_SMS_5,84,5,42,127,303613180
79,3,4,T1_SMS_5,85,1,48,27,304102216
79,3,4,T1_SMS_5,86,5,42,127,304113172
79,3,4,T1_SMS_5,87,1,48,24,304570800
79,3,4,T1_SMS_5,88,5,42,127,304612940
79,3,4,T1_SMS_5,89,1,48,27,305096148
79,3,4,T1_SMS_5,90,5,42,127,305112340
79,3,4,T1_SMS_5,91,1,48,22,305592928
79,3,4,T1_SMS_5,92,5,42,127,305613084
79,3,4,T1_SMS_5,93,1,48,26,306087096
79,3,4,T1_SMS_5,94,5,42,127,306113004
79,3,4,T1_SMS_5,95,1,48,23,306557968
79,3,4,T1_SMS_5,96,5,42,127,306612772
79,3,4,T1_SMS_5,97,1,48,21,307066036
79,3,4,T1_SMS_5,98,5,42,127,307113440
79,3,4,T1_SMS_5,99,1,48,27,307581140
79,3,4,T1_SMS_5,100,5,42,127,307613132
79,3,4,T1_SMS_5,101,1,48,31,308050016
79,3,4,T1_SMS_5,102,5,42,127,308112952
79,3,4,T1_SMS_5,103,1,48,24,308568032
79,3,4,T1_SMS_5,104,5,42,127,308612572
79,3,4,T1_SMS_5,105,1,48,27,309069976
79,3,4,T1_SMS_5,106,5,42,127,309113164
79,3,4,T1_SMS_5,107,1,48,19,309574080
79,3,4,T1_SMS_5,108,5,42,127,309613008
79,3,4,T1_SMS_5,109,1,48,30,310066896
79,3,4,T1_SMS_5,110,5,42,127,310112780
79,3,4,T1_SMS_5,111,1,48,28,310546020
79,3,4,T1_SMS_5,112,5,42,127,310613300
79,3,4,T1_SMS_5,113,1,48,26,311092088
79,3,4,T1_SMS_5,114,5,42,127,311112992
79,3,4,T1_SMS_5,115,1,48,27,311566124
79,3,4,T1_SMS_5,116,5,42,127,311612760
79,3,4,T1_SMS_5,117,1,48,25,312090428
79,3,4,T1_SMS_5,118,5,42,127,312112604
79,3,4,T1_SMS_5,119,1,48,24,312574788
79,3,4,T1_SMS_5,120,5,42,127,312613344
79,3,4,T1_SMS_5,121,1,48,24,313068880
79,3,4,T1_SMS_5,122,5,42,127,313112820
79,3,4,T1_SMS_5,123,1,48,29,313582036
79,3,4,T1_SMS_5,124,5,42,127,313612588
79,3,4,T1_SMS_5,125,1,48,24,314056668
79,3,4,T1_SMS_5,126,5,42,127,314113552
79,3,4,T1_SMS_5,127,1,48,25,314569160
79,3,4,T1_SMS_5,128,5,42,127,314613024
79,3,4,T1_SMS_5,129,1,48,22,315059284
79,3,4,T1_SMS_5,130,5,42,127,315112792
79,3,4,T1_SMS_5,131,1,48,24,315575580
79,3,4,T1_SMS_5,132,5,42,127,315612636
79,3,4,T1_SMS_5,133,1,48,24,316071012
79,3,4,T1_SMS_5,134,5,42,127,316113228
79,3,4,T1_SMS_5,135,1,48,20,316579232
79,3,4,T1_SMS_5,136,5,42,127,316613000
79,3,4,T1_SMS_5,137,1,48,29,317065512
79,3,4,T1_SMS_5,138,5,42,127,317112544
79,3,4,T1_SMS_5,139,1,48,24,317565132
79,3,4,T1_SMS_5,140,5,42,127,317613508
79,3,4,T1_SMS_5,141,5,42,127,318113212
79,3,4,T1_SMS_5,142,1,48,17,318135924
79,3,4,T1_SMS_5,143,5,42,127,318612832
79,3,4,T1_SMS_5,144,1,48,18,318616468
79,3,4,T1_SMS_5,145,1,48,23,319101168
79,3,4,T1_SMS_5,146,5,42,127,319112572
79,3,4,T1_SMS_5,147,1,48,25,319590472
79,3,4,T1_SMS_5,148,5,42,127,319613164
79,3,4,T1_SMS_5,149,5,42,127,320112864
79,3,4,T1_SMS_5,150,1,48,24,320113832
79,3,4,T1_SMS_5,151,1,48,19,320587016
79,3,4,T1_SMS_5,152,5,42,127,320612776
79,3,4,T1_SMS_5,153,5,42,127,321112480
79,3,4,T1_SMS_5,154,1,48,28,321145736
79,3,4,T1_SMS_5,155,1,48,24,321599716
79,3,4,T1_SMS_5,156,5,42,127,321613212
79,3,4,T1_SMS_5,157,1,48,27,322112768
79,3,4,T1_SMS_5,158,5,42,127,322114252
79,3,4,T1_SMS_5,159,1,48,20,322586388
79,3,4,T1_SMS_5,160,5,42,127,322612604
79,3,4,T1_SMS_5,161,1,48,22,323089604
79,3,4,T1_SMS_5,162,5,42,127,323113496
79,3,4,T1_SMS_5,163,1,48,19,323563568
79,3,4,T1_SMS_5,164,5,42,127,323612968
79,3,4,T1_SMS_5,165,1,48,23,324073280
79,3,4,T1_SMS_5,166,5,42,127,324112660
79,3,4,T1_SMS_5,167,1,48,30,324583600
79,3,4,T1_SMS_5,168,5,42,127,324612580
79,3,4,T1_SMS_5,169,1,48,21,325069608
79,3,4,T1_SMS_5,170,5,42,127,325113324
79,3,4,T1_SMS_5,171,1,48,26,325612424
79,3,4,T1_SMS_5,172,5,42,127,325613916
79,3,4,T1_SMS_5,173,1,48,26,326100860
79,3,4,T1_SMS_5,174,5,42,127,326112640
79,3,4,T1_SMS_5,175,5,42,127,326613536
79,3,4,T1_SMS_5,176,1,48,21,326619652
79,3,4,T1_SMS_5,177,1,48,26,327086788
79,3,4,T1_SMS_5,178,5,42,127,327113000
79,3,4,T1_SMS_5,179,1,48,25,327583868
79,3,4,T1_SMS_5,180,5,42,127,327612772
79,3,4,T1_SMS_5,181,1,48,27,328103380
79,3,4,T1_SMS_5,182,5,42,127,328112392
79,3,4,T1_SMS_5,183,5,42,127,328613512
79,3,4,T1_SMS_5,184,1,48,31,329099480
79,3,4,T1_SMS_5,185,5,42,127,329113000
79,3,4,T1_SMS_5,186,1,48,21,329580996
79,3,4,T1_SMS_5,187,5,42,127,329612520
79,3,4,T1_SMS_5,188,1,48,24,330076124
79,3,4,T1_SMS_5,189,5,42,127,330113484
79,3,4,T1_SMS_5,190,1,48,23,330573428
79,3,4,T1_SMS_5,191,5,42,127,330613032
79,3,4,T1_SMS_5,192,1,48,25,331074392
79,3,4,T1_SMS_5,193,5,42,127,331113024
79,3,4,T1_SMS_5,194,1,48,23,331581420
79,3,4,T1_SMS_5,195,5,42,127,331612496
79,3,4,T1_SMS_5,196,1,48,25,332103328
79,3,4,T1_SMS_5,197,5,42,127,332113536
79,3,4,T1_SMS_5,198,1,48,20,332575276
79,3,4,T1_SMS_5,199,5,42,127,332612860
79,3,4,T1_SMS_5,200,5,42,127,333112708
79,3,4,T1_SMS_5,201,1,48,27,333119720
79,3,4,T1_SMS_5,202,1,48,26,333588352
79,3,4,T1_SMS_5,203,5,42,127,333613444
79,3,4,T1_SMS_5,204,1,48,16,334092760
79,3,4,T1_SMS_5,205,5,42,127,334113288
79,3,4,T1_SMS_5,206,1,48,24,334572112
79,3,4,T1_SMS_5,207,5,42,127,334612760
79,3,4,T1_SMS_5,208,1,48,25,335053256
79,3,4,T1_SMS_5,209,5,42,127,335112528
79,3,4,T1_SMS_5,210,1,48,23,335567988
79,3,4,T1_SMS_5,211,5,42,127,335613420
79,3,4,T1_SMS_5,212,1,48,23,336101488
79,3,4,T1_SMS_5,213,5,42,127,336113040
79,3,4,T1_SMS_5,214,1,48,24,336582932
79,3,4,T1_SMS_5,215,5,42,127,336612736
79,3,4,T1_SMS_5,216,1,48,21,337094220
79,3,4,T1_SMS_5,217,5,42,127,337112356
79,3,4,T1_SMS_5,218,1,48,29,337571928
79,3,4,T1_SMS_5,219,5,42,127,337613096
79,3,4,T1_SMS_5,220,1,48,19,338106324
79,3,4,T1_SMS_5,221,5,42,127,338113020
79,3,4,T1_SMS_5,222,1,48,29,338584108
79,3,4,T1_SMS_5,223,5,42,127,338612640
79,3,4,T1_SMS_5,224,1,48,22,339073160
79,3,4,T1_SMS_5,225,5,42,127,339113308
79,3,4,T1_SMS_5,226,5,42,127,339613084
79,3,4,T1_SMS_5,227,1,48,21,339638268
79,3,4,T1_SMS_5,228,5,42,127,340112628
79,3,4,T1_SMS_5,229,1,48,18,340134224
79,3,4,T1_SMS_5,230,1,48,21,340579196
79,3,4,T1_SMS_5,231,5,42,127,340612444
79,3,4,T1_SMS_5,232,5,42,127,341113192
79,3,4,T1_SMS_5,233,1,48,24,341159344
79,3,4,T1_SMS_5,234,1,48,20,341607236
79,3,4,T1_SMS_5,235,5,42,127,341613028
79,3,4,T1_SMS_5,236,5,42,127,342112580
79,3,4,T1_SMS_5,237,1,48,27,342123180
79,3,4,T1_SMS_5,238,1,48,20,342599972
79,3,4,T1_SMS_5,239,5,42,127,342613388
79,3,4,T1_SMS_5,240,1,48,29,343105648
79,3,4,T1_SMS_5,241,5,42,127,343113084
79,3,4,T1_SMS_5,242,1,48,21,343569140
79,3,4,T1_SMS_5,243,5,42,127,343612632
79,3,4,T1_SMS_5,244,1,48,30,344104512
79,3,4,T1_SMS_5,245,5,42,127,344112476
79,3,4,T1_SMS_5,246,1,48,18,344570028
79,3,4,T1_SMS_5,247,5,42,127,344613292
79,3,4,T1_SMS_5,248,1,48,26,345081612
79,3,4,T1_SMS_5,249,5,42,127,345112984
79,3,4,T1_SMS_5,250,1,48,27,345595440
79,3,4,T1_SMS_5,251,5,42,127,345612756
79,3,4,T1_SMS_5,252,1,48,23,346092516
79,3,4,T1_SMS_5,253,5,42,127,346113424
79,3,4,T1_SMS_5,254,1,48,27,346582640
79,3,4,T1_SMS_5,255,5,42,127,346613120
79,3,4,T1_SMS_5,256,1,48,30,347070144
79,3,4,T1_SMS_5,0,9999,9999,9999,282111060
79,3,4,T1_SMS_5,1,9999,9999,9999,282610776
79,3,4,T1_SMS_5,2,9999,9999,9999,283110492
79,3,4,T1_SMS_5,3,9999,9999,9999,283610204
79,3,4,T1_SMS_5,4,9999,9999,9999,284110944
79,3,4,T1_SMS_5,5,9999,9999,9999,284610640
79,3,4,T1_SMS_5,6,9999,9999,9999,285110336
79,3,4,T1_SMS_5,7,9999,9999,9999,285611076
79,3,4,T1_SMS_5,8,9999,9999,9999,286110772
79,3,4,T1_SMS_5,9,9999,9999,9999,286610524
79,3,4,T1_SMS_5,10,9999,9999,9999,287110212
79,3,4,T1_SMS_5,11,9999,9999,9999,287610952
79,3,4,T1_SMS_5,12,9999,9999,9999,288110644
79,3,4,T1_SMS_5,13,9999,9999,9999,288610416
79,3,4,T1_SMS_5,14,9999,9999,9999,289110112
79,3,4,T1_SMS_5,15,9999,9999,9999,289610852
79,3,4,T1_SMS_5,16,9999,9999,9999,290110548
79,3,4,T1_SMS_5,17,9999,9999,9999,290610244
79,3,4,T1_SMS_5,18,9999,9999,9999,291110984
79,3,4,T1_SMS_5,19,9999,9999,9999,291610680
79,3,4,T1_SMS_5,20,9999,9999,9999,292110448
79,3,4,T1_SMS_5,21,9999,9999,9999,292610144
79,3,4,T1_SMS_5,22,9999,9999,9999,293110888
79,3,4,T1_SMS_5,23,9999,9999,9999,293610580
79,3,4,T1_SMS_5,24,9999,9999,9999,294110280
79,3,4,T1_SMS_5,25,9999,9999,9999,294611020
79,3,4,T1_SMS_5,26,9999,9999,9999,295110716
79,3,4,T1_SMS_5,27,9999,9999,9999,295610488
79,3,4,T1_SMS_5,28,9999,9999,9999,296110184
79,3,4,T1_SMS_5,29,9999,9999,9999,296610924
79,3,4,T1_SMS_5,30,9999,9999,9999,297110620
79,3,4,T1_SMS_5,31,9999,9999,9999,297610292
79,3,4,T1_SMS_5,32,9999,9999,9999,298111032
79,3,4,T1_SMS_5,33,9999,9999,9999,298610804
79,3,4,T1_SMS_5,34,9999,9999,9999,299110496
79,3,4,T1_SMS_5,35,9999,9999,9999,299610192
79,3,4,T1_SMS_5,36,9999,9999,9999,300110932
79,3,4,T1_SMS_5,37,9999,9999,9999,300610628
79,3,4,T1_SMS_5,38,9999,9999,9999,301110324
79,3,4,T1_SMS_5,39,9999,9999,9999,301611064
79,3,4,T1_SMS_5,40,9999,9999,9999,302110832
79,3,4,T1_SMS_5,41,9999,9999,9999,302610528
79,3,4,T1_SMS_5,42,9999,9999,9999,303110228
79,3,4,T1_SMS_5,43,9999,9999,9999,303610968
79,3,4,T1_SMS_5,44,9999,9999,9999,304110664
79,3,4,T1_SMS_5,45,9999,9999,9999,304610360
79,3,4,T1_SMS_5,46,9999,9999,9999,305110128
79,3,4,T1_SMS_5,47,9999,9999,9999,305610872
79,3,4,T1_SMS_5,48,9999,9999,9999,306110568
79,3,4,T1_SMS_5,49,9999,9999,9999,306610264
79,3,4,T1_SMS_5,50,9999,9999,9999,307111004
79,3,4,T1_SMS_5,51,9999,9999,9999,307610700
79,3,4,T1_SMS_5,52,9999,9999,9999,308110440
79,3,4,T1_SMS_5,53,9999,9999,9999,308610136
79,3,4,T1_SMS_5,54,9999,9999,9999,309110880
79,3,4,T1_SMS_5,55,9999,9999,9999,309610572
79,3,4,T1_SMS_5,56,9999,9999,9999,310110268
79,3,4,T1_SMS_5,57,9999,9999,9999,310611012
79,3,4,T1_SMS_5,58,9999,9999,9999,311110704
79,3,4,T1_SMS_5,59,9999,9999,9999,311610476
79,3,4,T1_SMS_5,60,9999,9999,9999,312110168
79,3,4,T1_SMS_5,61,9999,9999,9999,312610912
79,3,4,T1_SMS_5,62,9999,9999,9999,313110608
79,3,4,T1_SMS_5,63,9999,9999,9999,313610300
79,3,4,T1_SMS_5,64,9999,9999,9999,314111044
79,3,4,T1_SMS_5,65,9999,9999,9999,314610740
79,3,4,T1_SMS_5,66,9999,9999,9999,315110508
79,3,4,T1_SMS_5,67,9999,9999,9999,315610204
79,3,4,T1_SMS_5,68,9999,9999,9999,316110944
79,3,4,T1_SMS_5,69,9999,9999,9999,316610640
79,3,4,T1_SMS_5,70,9999,9999,9999,317110332
79,3,4,T1_SMS_5,71,9999,9999,9999,317611072
79,3,4,T1_SMS_5,72,9999,9999,9999,318110776
79,3,4,T1_SMS_5,73,9999,9999,9999,318610544
79,3,4,T1_SMS_5,74,9999,9999,9999,319110212
79,3,4,T1_SMS_5,75,9999,9999,9999,319610952
79,3,4,T1_SMS_5,76,9999,9999,9999,320110652
79,3,4,T1_SMS_5,77,9999,9999,9999,320610416
79,3,4,T1_SMS_5,78,9999,9999,9999,321110116
79,3,4,T1_SMS_5,79,9999,9999,9999,321610852
79,3,4,T1_SMS_5,80,9999,9999,9999,322110556
79,3,4,T1_SMS_5,81,9999,9999,9999,322610244
79,3,4,T1_SMS_5,82,9999,9999,9999,323110988
79,3,4,T1_SMS_5,83,9999,9999,9999,323610680
79,3,4,T1_SMS_5,84,9999,9999,9999,324110448
79,3,4,T1_SMS_5,85,9999,9999,9999,324610144
79,3,4,T1_SMS_5,86,9999,9999,9999,325110888
79,3,4,T1_SMS_5,87,9999,9999,9999,325610592
79,3,4,T1_SMS_5,88,9999,9999,9999,326110280
79,3,4,T1_SMS_5,89,9999,9999,9999,326611028
79,3,4,T1_SMS_5,90,9999,9999,9999,327110716
79,3,4,T1_SMS_5,91,9999,9999,9999,327610484
79,3,4,T1_SMS_5,92,9999,9999,9999,328110180
79,3,4,T1_SMS_5,93,9999,9999,9999,328610928
79,3,4,T1_SMS_5,94,9999,9999,9999,329110640
79,3,4,T1_SMS_5,95,9999,9999,9999,329610308
79,3,4,T1_SMS_5,96,9999,9999,9999,330111052
79,3,4,T1_SMS_5,97,9999,9999,9999,330610744
79,3,4,T1_SMS_5,98,9999,9999,9999,331110516
79,3,4,T1_SMS_5,99,9999,9999,9999,331610212
79,3,4,T1_SMS_5,100,9999,9999,9999,332110952
79,3,4,T1_SMS_5,101,9999,9999,9999,332610648
79,3,4,T1_SMS_5,102,9999,9999,9999,333110348
79,3,4,T1_SMS_5,103,9999,9999,9999,333611084
79,3,4,T1_SMS_5,104,9999,9999,9999,334110780
79,3,4,T1_SMS_5,105,9999,9999,9999,334610548
79,3,4,T1_SMS_5,106,9999,9999,9999,335110244
79,3,4,T1_SMS_5,107,9999,9999,9999,335610984
79,3,4,T1_SMS_5,108,9999,9999,9999,336110680
79,3,4,T1_SMS_5,109,9999,9999,9999,336610376
79,3,4,T1_SMS_5,110,9999,9999,9999,337110072
79,3,4,T1_SMS_5,111,9999,9999,9999,337610812
79,3,4,T1_SMS_5,112,9999,9999,9999,338110584
79,3,4,T1_SMS_5,113,9999,9999,9999,338610280
79,3,4,T1_SMS_5,114,9999,9999,9999,339111020
79,3,4,T1_SMS_5,115,9999,9999,9999,339610724
79,3,4,T1_SMS_5,116,9999,9999,9999,340110392
79,3,4,T1_SMS_5,117,9999,9999,9999,340610156
79,3,4,T1_SMS_5,118,9999,9999,9999,341110904
79,3,4,T1_SMS_5,119,9999,9999,9999,341610592
79,3,4,T1_SMS_5,120,9999,9999,9999,342110296
79,3,4,T1_SMS_5,121,9999,9999,9999,342611028
79,3,4,T1_SMS_5,122,9999,9999,9999,343110724
79,3,4,T1_SMS_5,123,9999,9999,9999,343610420
79,3,4,T1_SMS_5,124,9999,9999,9999,344110188
79,3,4,T1_SMS_5,125,9999,9999,9999,344610932
79,3,4,T1_SMS_5,126,9999,9999,9999,345110624
79,3,4,T1_SMS_5,127,9999,9999,9999,345610320
79,3,4,T1_SMS_5,128,9999,9999,9999,346111060
79,3,4,T1_SMS_5,129,9999,9999,9999,346610756
79,4,2,T1_SMS_8,0,5,42,127,415842720
79,4,2,T1_SMS_8,1,5,42,127,416642400
79,4,2,T1_SMS_8,2,5,42,127,417443228
79,4,2,T1_SMS_8,3,1,48,22,417487116
79,4,2,T1_SMS_8,4,1,48,20,418223176
79,4,2,T1_SMS_8,5,5,42,127,418242956
79,4,2,T1_SMS_8,6,5,42,127,419042692
79,4,2,T1_SMS_8,7,1,48,23,419081040
79,4,2,T1_SMS_8,8,5,42,127,419842428
79,4,2,T1_SMS_8,9,1,48,24,419865440
79,4,2,T1_SMS_8,10,5,42,127,420643136
79,4,2,T1_SMS_8,11,1,48,18,420664204
79,4,2,T1_SMS_8,12,5,42,127,421442868
79,4,2,T1_SMS_8,13,1,48,23,421450324
79,4,2,T1_SMS_8,14,5,42,127,422242676
79,4,2,T1_SMS_8,15,1,48,24,422250584
79,4,2,T1_SMS_8,16,1,48,23,423036008
79,4,2,T1_SMS_8,17,5,42,127,423042324
79,4,2,T1_SMS_8,18,1,48,23,423839212
79,4,2,T1_SMS_8,19,5,42,127,423843280
79,4,2,T1_SMS_8,20,1,48,23,424602512
79,4,2,T1_SMS_8,21,5,42,127,424643016
79,4,2,T1_SMS_8,22,5,42,127,425442532
79,4,2,T1_SMS_8,23,1,48,24,425448192
79,4,2,T1_SMS_8,24,1,48,26,426219788
79,4,2,T1_SMS_8,25,5,42,127,426242332
79,4,2,T1_SMS_8,26,5,42,127,427043120
79,4,2,T1_SMS_8,27,1,48,26,427058508
79,4,2,T1_SMS_8,28,1,48,17,427827332
79,4,2,T1_SMS_8,29,5,42,127,427842996
79,4,2,T1_SMS_8,30,5,42,127,428642812
79,4,2,T1_SMS_8,31,1,48,25,428659172
79,4,2,T1_SMS_8,32,1,48,24,429427996
79,4,2,T1_SMS_8,33,5,42,127,429442460
79,4,2,T1_SMS_8,34,5,42,127,430243124
79,4,2,T1_SMS_8,35,1,48,25,430246168
79,4,2,T1_SMS_8,36,1,48,26,431030552
79,4,2,T1_SMS_8,37,5,42,127,431043000
79,4,2,T1_SMS_8,38,5,42,127,431842516
79,4,2,T1_SMS_8,39,1,48,23,431850796
79,4,2,T1_SMS_8,40,1,48,22,432615128
79,4,2,T1_SMS_8,41,5,42,127,432642464
79,4,2,T1_SMS_8,42,1,48,28,433394220
79,4,2,T1_SMS_8,43,5,42,127,433443168
79,4,2,T1_SMS_8,44,1,48,25,434180492
79,4,2,T1_SMS_8,45,5,42,127,434242904
79,4,2,T1_SMS_8,46,1,48,29,435014256
79,4,2,T1_SMS_8,47,5,42,127,435042788
79,4,2,T1_SMS_8,48,1,48,27,435787436
79,4,2,T1_SMS_8,49,5,42,127,435842372
79,4,2,T1_SMS_8,50,1,48,24,436610956
79,4,2,T1_SMS_8,51,5,42,127,436643104
79,4,2,T1_SMS_8,52,1,48,29,437391864
79,4,2,T1_SMS_8,53,5,42,127,437442908
79,4,2,T1_SMS_8,54,1,48,19,438189284
79,4,2,T1_SMS_8,55,5,42,127,438242868
79,4,2,T1_SMS_8,56,1,48,26,439024692
79,4,2,T1_SMS_8,57,5,42,127,439042376
79,4,2,T1_SMS_8,58,1,48,26,439828388
79,4,2,T1_SMS_8,59,5,42,127,439843156
79,4,2,T1_SMS_8,60,1,48,19,440638148
79,4,2,T1_SMS_8,61,5,42,127,440642968
79,4,2,T1_SMS_8,62,5,42,127,441442632
79,4,2,T1_SMS_8,63,1,48,24,442186324
79,4,2,T1_SMS_8,64,5,42,127,442242532
79,4,2,T1_SMS_8,65,1,48,26,443019968
79,4,2,T1_SMS_8,66,5,42,127,443043036
79,4,2,T1_SMS_8,67,1,48,29,443818284
79,4,2,T1_SMS_8,68,5,42,127,443842920
79,4,2,T1_SMS_8,69,1,48,24,444620628
79,4,2,T1_SMS_8,70,5,42,127,444642876
79,4,2,T1_SMS_8,71,1,48,26,445388796
79,4,2,T1_SMS_8,72,5,42,127,445442536
79,4,2,T1_SMS_8,73,1,48,21,446229224
79,4,2,T1_SMS_8,74,5,42,127,446243316
79,4,2,T1_SMS_8,75,1,48,27,447031428
79,4,2,T1_SMS_8,76,5,42,127,447042828
79,4,2,T1_SMS_8,77,1,48,27,447823828
79,4,2,T1_SMS_8,78,5,42,127,447842788
79,4,2,T1_SMS_8,79,1,48,27,448595440
79,4,2,T1_SMS_8,80,5,42,127,448642448
79,4,2,T1_SMS_8,81,1,48,22,449407740
79,4,2,T1_SMS_8,82,5,42,127,449443176
79,4,2,T1_SMS_8,83,1,48,28,450222384
79,4,2,T1_SMS_8,84,5,42,127,450242836
79,4,2,T1_SMS_8,85,1,48,27,450932556
79,4,2,T1_SMS_8,86,5,42,127,451042628
79,4,2,T1_SMS_8,87,1,48,20,451763208
79,4,2,T1_SMS_8,88,5,42,127,451842600
79,4,2,T1_SMS_8,89,1,48,25,452611484
79,4,2,T1_SMS_8,90,5,42,127,452643232
79,4,2,T1_SMS_8,91,5,42,127,453442896
79,4,2,T1_SMS_8,92,1,48,25,453446016
79,4,2,T1_SMS_8,93,5,42,127,454242560
79,4,2,T1_SMS_8,94,1,48,26,454260188
79,4,2,T1_SMS_8,95,1,48,24,455036268
79,4,2,T1_SMS_8,96,5,42,127,455042656
79,4,2,T1_SMS_8,97,1,48,28,455814236
79,4,2,T1_SMS_8,98,5,42,127,455843240
79,4,2,T1_SMS_8,99,5,42,127,456642980
79,4,2,T1_SMS_8,100,1,48,23,456699504
79,4,2,T1_SMS_8,101,5,42,127,457442784
79,4,2,T1_SMS_8,102,1,48,24,457444196
79,4,2,T1_SMS_8,103,1,48,17,458225876
79,4,2,T1_SMS_8,104,5,42,127,458242512
79,4,2,T1_SMS_8,105,5,42,127,459043152
79,4,2,T1_SMS_8,106,1,48,23,459054644
79,4,2,T1_SMS_8,107,1,48,24,459839628
79,4,2,T1_SMS_8,108,5,42,127,459842876
79,4,2,T1_SMS_8,109,1,48,25,460629784
79,4,2,T1_SMS_8,110,5,42,127,460642612
79,4,2,T1_SMS_8,111,1,48,22,461437000
79,4,2,T1_SMS_8,112,5,42,127,461442416
79,4,2,T1_SMS_8,113,1,48,24,462226960
79,4,2,T1_SMS_8,114,5,42,127,462243224
79,4,2,T1_SMS_8,115,1,48,23,463017044
79,4,2,T1_SMS_8,116,5,42,127,463042808
79,4,2,T1_SMS_8,117,1,48,25,463792468
79,4,2,T1_SMS_8,118,5,42,127,463842764
79,4,2,T1_SMS_8,119,1,48,24,464627736
79,4,2,T1_SMS_8,120,5,42,127,464642424
79,4,2,T1_SMS_8,121,5,42,127,465443136
79,4,2,T1_SMS_8,122,1,48,20,465474752
79,4,2,T1_SMS_8,123,5,42,127,466242868
79,4,2,T1_SMS_8,124,1,48,27,466248980
79,4,2,T1_SMS_8,125,1,48,27,466996180
79,4,2,T1_SMS_8,126,5,42,127,467042668
79,4,2,T1_SMS_8,127,5,42,127,467842260
79,4,2,T1_SMS_8,128,1,48,19,467843600
79,4,2,T1_SMS_8,129,1,48,26,468629568
79,4,2,T1_SMS_8,130,5,42,127,468643356
79,4,2,T1_SMS_8,131,5,42,127,469443020
79,4,2,T1_SMS_8,132,1,48,19,469459828
79,4,2,T1_SMS_8,133,1,48,17,470239948
79,4,2,T1_SMS_8,134,5,42,127,470242600
79,4,2,T1_SMS_8,135,1,48,23,471033620
79,4,2,T1_SMS_8,136,5,42,127,471042556
79,4,2,T1_SMS_8,137,1,48,27,471839636
79,4,2,T1_SMS_8,138,5,42,127,471843336
79,4,2,T1_SMS_8,139,5,42,127,472642928
79,4,2,T1_SMS_8,140,1,48,24,472674096
79,4,2,T1_SMS_8,141,1,48,14,473437836
79,4,2,T1_SMS_8,142,5,42,127,473442728
79,4,2,T1_SMS_8,143,1,48,29,474222012
79,4,2,T1_SMS_8,144,5,42,127,474242464
79,4,2,T1_SMS_8,145,1,48,24,475014192
79,4,2,T1_SMS_8,146,5,42,127,475043192
79,4,2,T1_SMS_8,147,5,42,127,475843084
79,4,2,T1_SMS_8,148,1,48,30,476598144
79,4,2,T1_SMS_8,149,5,42,127,476642832
79,4,2,T1_SMS_8,150,1,48,31,477426000
79,4,2,T1_SMS_8,151,5,42,127,477442344
79,4,2,T1_SMS_8,152,1,48,24,478231724
79,4,2,T1_SMS_8,153,5,42,127,478243124
79,4,2,T1_SMS_8,154,1,48,29,479008792
79,4,2,T1_SMS_8,155,5,42,127,479043004
79,4,2,T1_SMS_8,156,5,42,127,479842524
79,4,2,T1_SMS_8,157,1,48,21,479865756
79,4,2,T1_SMS_8,158,1,48,21,480619472
79,4,2,T1_SMS_8,159,5,42,127,480642620
79,4,2,T1_SMS_8,160,1,48,26,481443356
79,4,2,T1_SMS_8,161,5,42,127,481444768
79,4,2,T1_SMS_8,162,5,42,127,482243092
79,4,2,T1_SMS_8,163,1,48,26,482250928
79,4,2,T1_SMS_8,164,5,42,127,483042824
79,4,2,T1_SMS_8,165,1,48,32,483055744
79,4,2,T1_SMS_8,166,1,48,27,483833840
79,4,2,T1_SMS_8,167,5,42,127,483842328
79,4,2,T1_SMS_8,168,1,48,26,484635896
79,4,2,T1_SMS_8,169,5,42,127,484643260
79,4,2,T1_SMS_8,170,1,48,34,485429800
79,4,2,T1_SMS_8,171,5,42,127,485442772
79,4,2,T1_SMS_8,172,5,42,127,486243032
79,4,2,T1_SMS_8,173,1,48,28,486278840
79,4,2,T1_SMS_8,174,1,48,30,487027668
79,4,2,T1_SMS_8,175,5,42,127,487042288
79,4,2,T1_SMS_8,176,5,42,127,487843100
79,4,2,T1_SMS_8,177,1,48,26,487853548
79,4,2,T1_SMS_8,178,1,48,20,488638080
79,4,2,T1_SMS_8,179,5,42,127,488642900
79,4,2,T1_SMS_8,180,1,48,26,489440824
79,4,2,T1_SMS_8,181,5,42,127,489442780
79,4,2,T1_SMS_8,182,1,48,29,490212040
79,4,2,T1_SMS_8,183,5,42,127,490242516
79,4,2,T1_SMS_8,184,1,48,31,490998164
79,4,2,T1_SMS_8,185,5,42,127,491043148
79,4,2,T1_SMS_8,186,1,48,27,491831252
79,4,2,T1_SMS_8,187,5,42,127,491842808
79,4,2,T1_SMS_8,188,1,48,26,492611020
79,4,2,T1_SMS_8,189,5,42,127,492642692
79,4,2,T1_SMS_8,190,5,42,127,493442652
79,4,2,T1_SMS_8,191,1,48,21,494235740
79,4,2,T1_SMS_8,192,5,42,127,494243100
79,4,2,T1_SMS_8,193,1,48,33,495037940
79,4,2,T1_SMS_8,194,5,42,127,495042908
79,4,2,T1_SMS_8,195,1,48,24,495828252
79,4,2,T1_SMS_8,196,5,42,127,495842644
79,4,2,T1_SMS_8,197,1,48,21,496627160
79,4,2,T1_SMS_8,198,5,42,127,496642672
79,4,2,T1_SMS_8,199,1,48,25,497436692
79,4,2,T1_SMS_8,200,5,42,127,497443080
79,4,2,T1_SMS_8,201,1,48,22,498240236
79,4,2,T1_SMS_8,202,5,42,127,498242888
79,4,2,T1_SMS_8,203,1,48,25,499034288
79,4,2,T1_SMS_8,204,5,42,127,499042620
79,4,2,T1_SMS_8,205,1,48,25,499808136
79,4,2,T1_SMS_8,206,5,42,127,499842504
79,4,2,T1_SMS_8,207,1,48,32,500633928
79,4,2,T1_SMS_8,208,5,42,127,500643160
79,4,2,T1_SMS_8,209,1,48,26,501404340
79,4,2,T1_SMS_8,210,5,42,127,501442820
79,4,2,T1_SMS_8,211,1,48,25,502219860
79,4,2,T1_SMS_8,212,5,42,127,502242628
79,4,2,T1_SMS_8,213,1,48,27,503030816
79,4,2,T1_SMS_8,214,5,42,127,503042364
79,4,2,T1_SMS_8,215,5,42,127,503843372
79,4,2,T1_SMS_8,216,1,48,18,503854128
79,4,2,T1_SMS_8,217,1,48,25,504612772
79,4,2,T1_SMS_8,218,5,42,127,504642804
79,4,2,T1_SMS_8,219,5,42,127,505442544
79,4,2,T1_SMS_8,220,1,48,22,505483612
79,4,2,T1_SMS_8,221,1,48,27,506229000
79,4,2,T1_SMS_8,222,5,42,127,506242348
79,4,2,T1_SMS_8,223,1,48,28,507025312
79,4,2,T1_SMS_8,224,5,42,127,507043448
79,4,2,T1_SMS_8,225,1,48,26,507827896
79,4,2,T1_SMS_8,226,5,42,127,507842960
79,4,2,T1_SMS_8,227,1,48,16,508621348
79,4,2,T1_SMS_8,228,5,42,127,508642696
79,4,2,T1_SMS_8,229,1,48,29,509427364
79,4,2,T1_SMS_8,230,5,42,127,509442356
79,4,2,T1_SMS_8,231,1,48,27,510180872
79,4,2,T1_SMS_8,232,5,42,127,510243356
79,4,2,T1_SMS_8,233,1,48,22,511009328
79,4,2,T1_SMS_8,234,5,42,127,511042868
79,4,2,T1_SMS_8,235,1,48,23,511836736
79,4,2,T1_SMS_8,0,9999,9999,9999,415840356
79,4,2,T1_SMS_8,1,9999,9999,9999,416640112
79,4,2,T1_SMS_8,2,9999,9999,9999,417440864
79,4,2,T1_SMS_8,3,9999,9999,9999,418240592
79,4,2,T1_SMS_8,4,9999,9999,9999,419040332
79,4,2,T1_SMS_8,5,9999,9999,9999,419840064
79,4,2,T1_SMS_8,6,9999,9999,9999,420640848
79,4,2,T1_SMS_8,7,9999,9999,9999,421440580
79,4,2,T1_SMS_8,8,9999,9999,9999,422240312
79,4,2,T1_SMS_8,9,9999,9999,9999,423040112
79,4,2,T1_SMS_8,10,9999,9999,9999,423840844
79,4,2,T1_SMS_8,11,9999,9999,9999,424640580
79,4,2,T1_SMS_8,12,9999,9999,9999,425440320
79,4,2,T1_SMS_8,13,9999,9999,9999,426240120
79,4,2,T1_SMS_8,14,9999,9999,9999,427040832
79,4,2,T1_SMS_8,15,9999,9999,9999,427840560
79,4,2,T1_SMS_8,16,9999,9999,9999,428640372
79,4,2,T1_SMS_8,17,9999,9999,9999,429440100
79,4,2,T1_SMS_8,18,9999,9999,9999,430240836
79,4,2,T1_SMS_8,19,9999,9999,9999,431040560
79,4,2,T1_SMS_8,20,9999,9999,9999,431840300
79,4,2,T1_SMS_8,21,9999,9999,9999,432640104
79,4,2,T1_SMS_8,22,9999,9999,9999,433440884
79,4,2,T1_SMS_8,23,9999,9999,9999,434240616
79,4,2,T1_SMS_8,24,9999,9999,9999,435040352
79,4,2,T1_SMS_8,25,9999,9999,9999,435840084
79,4,2,T1_SMS_8,26,9999,9999,9999,436640816
79,4,2,T1_SMS_8,27,9999,9999,9999,437440620
79,4,2,T1_SMS_8,28,9999,9999,9999,438240356
79,4,2,T1_SMS_8,29,9999,9999,9999,439040088
79,4,2,T1_SMS_8,30,9999,9999,9999,439840868
79,4,2,T1_SMS_8,31,9999,9999,9999,440640608
79,4,2,T1_SMS_8,32,9999,9999,9999,441440344
79,4,2,T1_SMS_8,33,9999,9999,9999,442240096
79,4,2,T1_SMS_8,34,9999,9999,9999,443040824
79,4,2,T1_SMS_8,35,9999,9999,9999,443840560
79,4,2,T1_SMS_8,36,9999,9999,9999,444640368
79,4,2,T1_SMS_8,37,9999,9999,9999,445440100
79,4,2,T1_SMS_8,38,9999,9999,9999,446240880
79,4,2,T1_SMS_8,39,9999,9999,9999,447040616
79,4,2,T1_SMS_8,40,9999,9999,9999,447840352
79,4,2,T1_SMS_8,41,9999,9999,9999,448640084
79,4,2,T1_SMS_8,42,9999,9999,9999,449440812
79,4,2,T1_SMS_8,43,9999,9999,9999,450240624
79,4,2,T1_SMS_8,44,9999,9999,9999,451040340
79,4,2,T1_SMS_8,45,9999,9999,9999,451840088
79,4,2,T1_SMS_8,46,9999,9999,9999,452640868
79,4,2,T1_SMS_8,47,9999,9999,9999,453440608
79,4,2,T1_SMS_8,48,9999,9999,9999,454240344
79,4,2,T1_SMS_8,49,9999,9999,9999,455040072
79,4,2,T1_SMS_8,50,9999,9999,9999,455840876
79,4,2,T1_SMS_8,51,9999,9999,9999,456640616
79,4,2,T1_SMS_8,52,9999,9999,9999,457440348
79,4,2,T1_SMS_8,53,9999,9999,9999,458240076
79,4,2,T1_SMS_8,54,9999,9999,9999,459040864
79,4,2,T1_SMS_8,55,9999,9999,9999,459840588
79,4,2,T1_SMS_8,56,9999,9999,9999,460640324
79,4,2,T1_SMS_8,57,9999,9999,9999,461440056
79,4,2,T1_SMS_8,58,9999,9999,9999,462240860
79,4,2,T1_SMS_8,59,9999,9999,9999,463040592
79,4,2,T1_SMS_8,60,9999,9999,9999,463840328
79,4,2,T1_SMS_8,61,9999,9999,9999,464640060
79,4,2,T1_SMS_8,62,9999,9999,9999,465440848
79,4,2,T1_SMS_8,63,9999,9999,9999,466240580
79,4,2,T1_SMS_8,64,9999,9999,9999,467040308
79,4,2,T1_SMS_8,65,9999,9999,9999,467840048
79,4,2,T1_SMS_8,66,9999,9999,9999,468640848
79,4,2,T1_SMS_8,67,9999,9999,9999,469440584
79,4,2,T1_SMS_8,68,9999,9999,9999,470240312
79,4,2,T1_SMS_8,69,9999,9999,9999,471040120
79,4,2,T1_SMS_8,70,9999,9999,9999,471840824
79,4,2,T1_SMS_8,71,9999,9999,9999,472640564
79,4,2,T1_SMS_8,72,9999,9999,9999,473440368
79,4,2,T1_SMS_8,73,9999,9999,9999,474240100
79,4,2,T1_SMS_8,74,9999,9999,9999,475040832
79,4,2,T1_SMS_8,75,9999,9999,9999,475840572
79,4,2,T1_SMS_8,76,9999,9999,9999,476640320
79,4,2,T1_SMS_8,77,9999,9999,9999,477440052
79,4,2,T1_SMS_8,78,9999,9999,9999,478240836
79,4,2,T1_SMS_8,79,9999,9999,9999,479040568
79,4,2,T1_SMS_8,80,9999,9999,9999,479840308
79,4,2,T1_SMS_8,81,9999,9999,9999,480640108
79,4,2,T1_SMS_8,82,9999,9999,9999,481440844
79,4,2,T1_SMS_8,83,9999,9999,9999,482240580
79,4,2,T1_SMS_8,84,9999,9999,9999,483040312
79,4,2,T1_SMS_8,85,9999,9999,9999,483840116
79,4,2,T1_SMS_8,86,9999,9999,9999,484640824
79,4,2,T1_SMS_8,87,9999,9999,9999,485440560
79,4,2,T1_SMS_8,88,9999,9999,9999,486240372
79,4,2,T1_SMS_8,89,9999,9999,9999,487040076
79,4,2,T1_SMS_8,90,9999,9999,9999,487840888
79,4,2,T1_SMS_8,91,9999,9999,9999,488640612
79,4,2,T1_SMS_8,92,9999,9999,9999,489440368
79,4,2,T1_SMS_8,93,9999,9999,9999,490240080
79,4,2,T1_SMS_8,94,9999,9999,9999,491040860
79,4,2,T1_SMS_8,95,9999,9999,9999,491840596
79,4,2,T1_SMS_8,96,9999,9999,9999,492640328
79,4,2,T1_SMS_8,97,9999,9999,9999,493440068
79,4,2,T1_SMS_8,98,9999,9999,9999,494240812
79,4,2,T1_SMS_8,99,9999,9999,9999,495040620
79,4,2,T1_SMS_8,100,9999,9999,9999,495840356
79,4,2,T1_SMS_8,101,9999,9999,9999,496640088
79,4,2,T1_SMS_8,102,9999,9999,9999,497440868
79,4,2,T1_SMS_8,103,9999,9999,9999,498240600
79,4,2,T1_SMS_8,104,9999,9999,9999,499040332
79,4,2,T1_SMS_8,105,9999,9999,9999,499840068
79,4,2,T1_SMS_8,106,9999,9999,9999,500640872
79,4,2,T1_SMS_8,107,9999,9999,9999,501440608
79,4,2,T1_SMS_8,108,9999,9999,9999,502240340
79,4,2,T1_SMS_8,109,9999,9999,9999,503040076
79,4,2,T1_SMS_8,110,9999,9999,9999,503840864
79,4,2,T1_SMS_8,111,9999,9999,9999,504640592
79,4,2,T1_SMS_8,112,9999,9999,9999,505440332
79,4,2,T1_SMS_8,113,9999,9999,9999,506240060
79,4,2,T1_SMS_8,114,9999,9999,9999,507040864
79,4,2,T1_SMS_8,115,9999,9999,9999,507840600
79,4,2,T1_SMS_8,116,9999,9999,9999,508640336
79,4,2,T1_SMS_8,117,9999,9999,9999,509440068
79,4,2,T1_SMS_8,118,9999,9999,9999,510240848
79,4,2,T1_SMS_8,119,9999,9999,9999,511040580
79,5,23,Ticks_Phase_5,0,5,42,127,523197988
79,5,23,Ticks_Phase_5,1,5,42,127,523697476
79,5,23,Ticks_Phase_5,2,5,42,127,524198232
79,5,23,Ticks_Phase_5,3,5,42,127,524698016
79,5,23,Ticks_Phase_5,4,5,42,127,525197948
79,5,23,Ticks_Phase_5,5,1,48,23,525225176
79,5,23,Ticks_Phase_5,6,1,48,19,525685732
79,5,23,Ticks_Phase_5,7,5,42,127,525698432
79,5,23,Ticks_Phase_5,8,1,48,22,526189104
79,5,23,Ticks_Phase_5,9,5,42,127,526208304
79,5,23,Ticks_Phase_5,10,1,48,24,526685268
79,5,23,Ticks_Phase_5,11,5,42,127,526707992
79,5,23,Ticks_Phase_5,12,1,48,28,527203380
79,5,23,Ticks_Phase_5,13,5,42,127,527208128
79,5,23,Ticks_Phase_5,14,1,48,22,527662552
79,5,23,Ticks_Phase_5,15,5,42,127,527707516
79,5,23,Ticks_Phase_5,16,5,42,127,528208184
79,5,23,Ticks_Phase_5,17,1,48,24,528220440
79,5,23,Ticks_Phase_5,18,1,48,19,528700944
79,5,23,Ticks_Phase_5,19,5,42,127,528708016
79,5,23,Ticks_Phase_5,20,5,42,127,529207932
79,5,23,Ticks_Phase_5,21,1,48,22,529211948
79,5,23,Ticks_Phase_5,22,5,42,127,529708296
79,5,23,Ticks_Phase_5,23,1,48,24,529709264
79,5,23,Ticks_Phase_5,24,1,48,23,530193492
79,5,23,Ticks_Phase_5,25,5,42,127,530208128
79,5,23,Ticks_Phase_5,26,5,42,127,530707896
79,5,23,Ticks_Phase_5,27,1,48,29,530710568
79,5,23,Ticks_Phase_5,28,1,48,24,531196616
79,5,23,Ticks_Phase_5,29,5,42,127,531207804
79,5,23,Ticks_Phase_5,30,5,42,127,531708320
79,5,23,Ticks_Phase_5,31,1,48,23,531722744
79,5,23,Ticks_Phase_5,32,1,48,22,532207788
79,5,23,Ticks_Phase_5,33,5,42,127,532209200
79,5,23,Ticks_Phase_5,34,1,48,27,532678232
79,5,23,Ticks_Phase_5,35,5,42,127,532707840
79,5,23,Ticks_Phase_5,36,5,42,127,533208508
79,5,23,Ticks_Phase_5,37,1,48,27,533222784
79,5,23,Ticks_Phase_5,38,1,48,22,533697684
79,5,23,Ticks_Phase_5,39,5,42,127,533718376
79,5,23,Ticks_Phase_5,40,5,42,127,534218068
79,5,23,Ticks_Phase_5,41,1,48,26,534231744
79,5,23,Ticks_Phase_5,42,5,42,127,534717760
79,5,23,Ticks_Phase_5,43,1,48,24,534721252
79,5,23,Ticks_Phase_5,44,1,48,24,535213064
79,5,23,Ticks_Phase_5,45,5,42,127,535217964
79,5,23,Ticks_Phase_5,46,1,48,25,535712672
79,5,23,Ticks_Phase_5,47,5,42,127,535718400
79,5,23,Ticks_Phase_5,48,1,48,25,536188680
79,5,23,Ticks_Phase_5,49,5,42,127,536218016
79,5,23,Ticks_Phase_5,50,1,48,23,536695396
79,5,23,Ticks_Phase_5,51,5,42,127,536717776
79,5,23,Ticks_Phase_5,52,1,48,24,537191196
79,5,23,Ticks_Phase_5,53,5,42,127,537218560
79,5,23,Ticks_Phase_5,54,1,48,23,537719172
79,5,23,Ticks_Phase_5,55,5,42,127,537728484
79,5,23,Ticks_Phase_5,56,1,48,26,538199012
79,5,23,Ticks_Phase_5,57,5,42,127,538217768
79,5,23,Ticks_Phase_5,58,1,48,24,538704164
79,5,23,Ticks_Phase_5,59,5,42,127,538717828
79,5,23,Ticks_Phase_5,60,1,48,25,539184232
79,5,23,Ticks_Phase_5,61,5,42,127,539218264
79,5,23,Ticks_Phase_5,62,1,48,25,539695984
79,5,23,Ticks_Phase_5,63,5,42,127,539717952
79,5,23,Ticks_Phase_5,64,1,48,25,540170732
79,5,23,Ticks_Phase_5,65,5,42,127,540217792
79,5,23,Ticks_Phase_5,66,1,48,29,540703588
79,5,23,Ticks_Phase_5,67,5,42,127,540717704
79,5,23,Ticks_Phase_5,68,1,48,24,541198496
79,5,23,Ticks_Phase_5,69,5,42,127,541218288
79,5,23,Ticks_Phase_5,70,1,48,29,541712704
79,5,23,Ticks_Phase_5,71,5,42,127,541717832
79,5,23,Ticks_Phase_5,72,1,48,25,542198096
79,5,23,Ticks_Phase_5,73,5,42,127,542217668
79,5,23,Ticks_Phase_5,74,5,42,127,542718408
79,5,23,Ticks_Phase_5,75,1,48,29,542721080
79,5,23,Ticks_Phase_5,76,1,48,25,543207952
79,5,23,Ticks_Phase_5,77,5,42,127,543218240
79,5,23,Ticks_Phase_5,78,1,48,25,543695572
79,5,23,Ticks_Phase_5,79,5,42,127,543717628
79,5,23,Ticks_Phase_5,80,1,48,27,544205444
79,5,23,Ticks_Phase_5,81,5,42,127,544217616
79,5,23,Ticks_Phase_5,82,1,48,27,544698176
79,5,23,Ticks_Phase_5,83,5,42,127,544718128
79,5,23,Ticks_Phase_5,84,5,42,127,545217896
79,5,23,Ticks_Phase_5,85,1,48,27,545248196
79,5,23,Ticks_Phase_5,86,5,42,127,545717656
79,5,23,Ticks_Phase_5,87,1,48,19,545733200
79,5,23,Ticks_Phase_5,88,1,48,25,546195204
79,5,23,Ticks_Phase_5,89,5,42,127,546218308
79,5,23,Ticks_Phase_5,90,1,48,26,546709132
79,5,23,Ticks_Phase_5,91,5,42,127,546718152
79,5,23,Ticks_Phase_5,92,1,48,27,547185200
79,5,23,Ticks_Phase_5,93,5,42,127,547227876
79,5,23,Ticks_Phase_5,94,1,48,25,547720416
79,5,23,Ticks_Phase_5,95,5,42,127,547727712
79,5,23,Ticks_Phase_5,96,1,48,27,548211464
79,5,23,Ticks_Phase_5,97,5,42,127,548227524
79,5,23,Ticks_Phase_5,98,1,48,25,548718096
79,5,23,Ticks_Phase_5,99,5,42,127,548728308
79,5,23,Ticks_Phase_5,100,1,48,26,549182804
79,5,23,Ticks_Phase_5,101,5,42,127,549227844
79,5,23,Ticks_Phase_5,102,1,48,26,549727164
79,5,23,Ticks_Phase_5,103,5,42,127,549728732
79,5,23,Ticks_Phase_5,104,1,48,26,550212208
79,5,23,Ticks_Phase_5,105,5,42,127,550228344
79,5,23,Ticks_Phase_5,106,1,48,29,550708980
79,5,23,Ticks_Phase_5,107,5,42,127,550728032
79,5,23,Ticks_Phase_5,108,1,48,29,551190096
79,5,23,Ticks_Phase_5,109,5,42,127,551227720
79,5,23,Ticks_Phase_5,110,1,48,20,551715832
79,5,23,Ticks_Phase_5,111,5,42,127,551727408
79,5,23,Ticks_Phase_5,112,1,48,29,552192908
79,5,23,Ticks_Phase_5,113,5,42,127,552228368
79,5,23,Ticks_Phase_5,114,1,48,31,552686920
79,5,23,Ticks_Phase_5,115,5,42,127,552728056
79,5,23,Ticks_Phase_5,116,1,48,29,553208468
79,5,23,Ticks_Phase_5,117,5,42,127,553227596
79,5,23,Ticks_Phase_5,118,1,48,30,553697676
79,5,23,Ticks_Phase_5,119,5,42,127,553728332
79,5,23,Ticks_Phase_5,120,1,48,25,554191368
79,5,23,Ticks_Phase_5,121,5,42,127,554228168
79,5,23,Ticks_Phase_5,122,5,42,127,554727788
79,5,23,Ticks_Phase_5,123,1,48,23,554736452
79,5,23,Ticks_Phase_5,124,1,48,28,555247172
79,5,23,Ticks_Phase_5,125,5,42,127,555248668
79,5,23,Ticks_Phase_5,126,1,48,29,555694400
79,5,23,Ticks_Phase_5,127,5,42,127,555747680
79,5,23,Ticks_Phase_5,128,5,42,127,556248424
79,5,23,Ticks_Phase_5,129,1,48,22,556256864
79,5,23,Ticks_Phase_5,130,1,48,27,556751440
79,5,23,Ticks_Phase_5,131,5,42,127,556758364
79,5,23,Ticks_Phase_5,132,5,42,127,557258208
79,5,23,Ticks_Phase_5,133,1,48,26,557260724
79,5,23,Ticks_Phase_5,134,1,48,27,557736224
79,5,23,Ticks_Phase_5,135,5,42,127,557757740
79,5,23,Ticks_Phase_5,136,1,48,26,558239200
79,5,23,Ticks_Phase_5,137,5,42,127,558257504
79,5,23,Ticks_Phase_5,138,1,48,25,558756500
79,5,23,Ticks_Phase_5,139,5,42,127,558758164
79,5,23,Ticks_Phase_5,140,5,42,127,559258156
79,5,23,Ticks_Phase_5,141,1,48,27,559283664
79,5,23,Ticks_Phase_5,142,1,48,27,559748156
79,5,23,Ticks_Phase_5,143,5,42,127,559757616
79,5,23,Ticks_Phase_5,144,1,48,22,560228940
79,5,23,Ticks_Phase_5,145,5,42,127,560258400
79,5,23,Ticks_Phase_5,146,1,48,33,560759556
79,5,23,Ticks_Phase_5,147,5,42,127,560768424
79,5,23,Ticks_Phase_5,148,1,48,28,561256104
79,5,23,Ticks_Phase_5,149,5,42,127,561268260
79,5,23,Ticks_Phase_5,150,5,42,127,561767732
79,5,23,Ticks_Phase_5,151,1,48,19,561787332
79,5,23,Ticks_Phase_5,152,1,48,27,562237204
79,5,23,Ticks_Phase_5,153,5,42,127,562267636
79,5,23,Ticks_Phase_5,154,5,42,127,562768232
79,5,23,Ticks_Phase_5,155,1,48,30,562772396
79,5,23,Ticks_Phase_5,156,1,48,24,563260840
79,5,23,Ticks_Phase_5,157,5,42,127,563268060
79,5,23,Ticks_Phase_5,158,1,48,24,563741808
79,5,23,Ticks_Phase_5,159,5,42,127,563748128
79,5,23,Ticks_Phase_5,160,1,48,26,564230860
79,5,23,Ticks_Phase_5,161,5,42,127,564248040
79,5,23,Ticks_Phase_5,162,1,48,26,564740660
79,5,23,Ticks_Phase_5,163,5,42,127,564747580
79,5,23,Ticks_Phase_5,164,1,48,20,565242812
79,5,23,Ticks_Phase_5,165,5,42,127,565248316
79,5,23,Ticks_Phase_5,166,1,48,22,565746880
79,5,23,Ticks_Phase_5,167,5,42,127,565748300
79,5,23,Ticks_Phase_5,168,1,48,28,566220696
79,5,23,Ticks_Phase_5,169,5,42,127,566247916
79,5,23,Ticks_Phase_5,170,5,42,127,566747460
79,5,23,Ticks_Phase_5,171,1,48,29,566769080
79,5,23,Ticks_Phase_5,172,1,48,21,567248644
79,5,23,Ticks_Phase_5,173,5,42,127,567249904
79,5,23,Ticks_Phase_5,174,1,48,21,567745440
79,5,23,Ticks_Phase_5,175,5,42,127,567747952
79,5,23,Ticks_Phase_5,176,5,42,127,568247796
79,5,23,Ticks_Phase_5,177,1,48,23,568257136
79,5,23,Ticks_Phase_5,178,1,48,29,568710308
79,5,23,Ticks_Phase_5,179,5,42,127,568748376
79,5,23,Ticks_Phase_5,180,1,48,26,569240244
79,5,23,Ticks_Phase_5,181,5,42,127,569248140
79,5,23,Ticks_Phase_5,182,1,48,27,569726660
79,5,23,Ticks_Phase_5,183,5,42,127,569747904
79,5,23,Ticks_Phase_5,184,1,48,25,570212416
79,5,23,Ticks_Phase_5,185,5,42,127,570247520
79,5,23,Ticks_Phase_5,186,1,48,29,570741908
79,5,23,Ticks_Phase_5,187,5,42,127,570748304
79,5,23,Ticks_Phase_5,188,5,42,127,571247852
79,5,23,Ticks_Phase_5,189,1,48,22,571248892
79,5,23,Ticks_Phase_5,190,5,42,127,571697444
79,5,23,Ticks_Phase_5,191,1,48,30,571725564
79,5,23,Ticks_Phase_5,192,5,42,127,572198328
79,5,23,Ticks_Phase_5,193,1,48,22,572207668
79,5,23,Ticks_Phase_5,194,1,48,29,572624060
79,5,23,Ticks_Phase_5,195,5,42,127,572697936
79,5,23,Ticks_Phase_5,196,1,48,21,573159028
79,5,23,Ticks_Phase_5,197,5,42,127,573197624
79,5,23,Ticks_Phase_5,198,1,48,26,573637076
79,5,23,Ticks_Phase_5,199,5,42,127,573698436
79,5,23,Ticks_Phase_5,200,1,48,32,574147248
79,5,23,Ticks_Phase_5,201,5,42,127,574208308
79,5,23,Ticks_Phase_5,202,1,48,32,574634792
79,5,23,Ticks_Phase_5,203,5,42,127,574708000
79,5,23,Ticks_Phase_5,204,1,48,32,575160852
79,5,23,Ticks_Phase_5,205,5,42,127,575207688
79,5,23,Ticks_Phase_5,206,1,48,27,575635068
79,5,23,Ticks_Phase_5,207,5,42,127,575707448
79,5,23,Ticks_Phase_5,208,1,48,35,576152588
79,5,23,Ticks_Phase_5,209,5,42,127,576208260
79,5,23,Ticks_Phase_5,210,1,48,29,576667860
79,5,23,Ticks_Phase_5,211,5,42,127,576707948
79,5,23,Ticks_Phase_5,212,1,48,36,577161920
79,5,23,Ticks_Phase_5,213,5,42,127,577207788
79,5,23,Ticks_Phase_5,214,1,48,28,577696068
79,5,23,Ticks_Phase_5,215,5,42,127,577708672
79,5,23,Ticks_Phase_5,216,1,48,35,578150792
79,5,23,Ticks_Phase_5,217,5,42,127,578207984
79,5,23,Ticks_Phase_5,218,1,48,27,578673912
79,5,23,Ticks_Phase_5,219,5,42,127,578707748
79,5,23,Ticks_Phase_5,220,1,48,38,579132188
79,5,23,Ticks_Phase_5,221,5,42,127,579207660
79,5,23,Ticks_Phase_5,222,1,48,32,579671716
79,5,23,Ticks_Phase_5,223,5,42,127,579708148
79,5,23,Ticks_Phase_5,224,1,48,38,580173500
79,5,23,Ticks_Phase_5,225,5,42,127,580258256
79,5,23,Ticks_Phase_5,226,1,48,31,580714148
79,5,23,Ticks_Phase_5,227,5,42,127,580758020
79,5,23,Ticks_Phase_5,228,1,48,36,581241772
79,5,23,Ticks_Phase_5,229,5,42,127,581257780
79,5,23,Ticks_Phase_5,230,1,48,35,581747084
79,5,23,Ticks_Phase_5,231,5,42,127,581758416
79,5,23,Ticks_Phase_5,232,1,48,36,582223844
79,5,23,Ticks_Phase_5,233,5,42,127,582258036
79,5,23,Ticks_Phase_5,234,1,48,38,582709616
79,5,23,Ticks_Phase_5,235,5,42,127,582757720
79,5,23,Ticks_Phase_5,236,5,42,127,583257712
79,5,23,Ticks_Phase_5,237,1,48,33,583268324
79,5,23,Ticks_Phase_5,238,5,42,127,583758148
79,5,23,Ticks_Phase_5,239,1,48,33,583793692
79,5,23,Ticks_Phase_5,240,1,48,36,584251736
79,5,23,Ticks_Phase_5,241,5,42,127,584257832
79,5,23,Ticks_Phase_5,242,1,48,34,584752172
79,5,23,Ticks_Phase_5,243,5,42,127,584757668
79,5,23,Ticks_Phase_5,244,1,48,34,585238756
79,5,23,Ticks_Phase_5,245,5,42,127,585258552
79,5,23,Ticks_Phase_5,246,1,48,33,585735676
79,5,23,Ticks_Phase_5,247,5,42,127,585758092
79,5,23,Ticks_Phase_5,248,1,48,35,586225692
79,5,23,Ticks_Phase_5,249,5,42,127,586257708
79,5,23,Ticks_Phase_5,250,1,48,31,586750920
79,5,23,Ticks_Phase_5,251,5,42,127,586757616
79,5,23,Ticks_Phase_5,252,1,48,36,587242892
79,5,23,Ticks_Phase_5,253,5,42,127,587258428
79,5,23,Ticks_Phase_5,254,1,48,34,587723784
79,5,23,Ticks_Phase_5,255,5,42,127,587757968
79,5,23,Ticks_Phase_5,256,1,48,31,588247444
79,5,23,Ticks_Phase_5,257,5,42,127,588257580
79,5,23,Ticks_Phase_5,258,1,48,29,588733120
79,5,23,Ticks_Phase_5,259,5,42,127,588857604
79,5,23,Ticks_Phase_5,260,5,42,127,589357464
79,5,23,Ticks_Phase_5,261,1,48,20,589466200
79,5,23,Ticks_Phase_5,262,5,42,127,589858196
79,5,23,Ticks_Phase_5,263,1,48,29,589895844
79,5,23,Ticks_Phase_5,264,5,42,127,590357812
79,5,23,Ticks_Phase_5,265,1,48,24,590366176
79,5,23,Ticks_Phase_5,266,5,42,127,590857572
79,5,23,Ticks_Phase_5,267,1,48,29,590860320
79,5,23,Ticks_Phase_5,268,5,42,127,591358604
79,5,23,Ticks_Phase_5,269,1,48,30,591378428
79,5,23,Ticks_Phase_5,270,5,42,127,591857996
79,5,23,Ticks_Phase_5,271,1,48,27,591864256
79,5,23,Ticks_Phase_5,272,5,42,127,592357684
79,5,23,Ticks_Phase_5,273,1,48,25,592379676
79,5,23,Ticks_Phase_5,274,1,48,23,592847908
79,5,23,Ticks_Phase_5,275,5,42,127,592857444
79,5,23,Ticks_Phase_5,276,5,42,127,593358632
79,5,23,Ticks_Phase_5,277,1,48,25,593376208
79,5,23,Ticks_Phase_5,278,1,48,31,593854984
79,5,23,Ticks_Phase_5,279,5,42,127,593858092
79,5,23,Ticks_Phase_5,280,1,48,27,594349068
79,5,23,Ticks_Phase_5,281,5,42,127,594357556
79,5,23,Ticks_Phase_5,282,1,48,26,594842380
79,5,23,Ticks_Phase_5,283,5,42,127,594858512
79,5,23,Ticks_Phase_5,284,1,48,32,595331884
79,5,23,Ticks_Phase_5,285,5,42,127,595358428
79,5,23,Ticks_Phase_5,286,1,48,26,595852692
79,5,23,Ticks_Phase_5,287,5,42,127,595857820
79,5,23,Ticks_Phase_5,288,1,48,27,596340300
79,5,23,Ticks_Phase_5,289,5,42,127,596357432
79,5,23,Ticks_Phase_5,290,1,48,26,596846428
79,5,23,Ticks_Phase_5,291,5,42,127,596858440
79,5,23,Ticks_Phase_5,292,5,42,127,597358208
79,5,23,Ticks_Phase_5,293,1,48,19,597385328
79,5,23,Ticks_Phase_5,294,1,48,34,597848580
79,5,23,Ticks_Phase_5,295,5,42,127,597857596
79,5,23,Ticks_Phase_5,296,5,42,127,598258212
79,5,23,Ticks_Phase_5,297,1,48,30,598315332
79,5,23,Ticks_Phase_5,298,5,42,127,598757676
79,5,23,Ticks_Phase_5,299,1,48,13,598843764
79,5,23,Ticks_Phase_5,300,5,42,127,599257364
79,5,23,Ticks_Phase_5,301,1,48,27,599260928
79,5,23,Ticks_Phase_5,302,1,48,31,599726912
79,5,23,Ticks_Phase_5,303,5,42,127,599758168
79,5,23,Ticks_Phase_5,304,1,48,24,600224868
79,5,23,Ticks_Phase_5,305,5,42,127,600257856
79,5,23,Ticks_Phase_5,306,1,48,29,600740064
79,5,23,Ticks_Phase_5,307,5,42,127,600757544
79,5,23,Ticks_Phase_5,308,5,42,127,601258284
79,5,23,Ticks_Phase_5,309,1,48,31,601262524
79,5,23,Ticks_Phase_5,310,5,42,127,601758196
79,5,23,Ticks_Phase_5,311,1,48,29,601770080
79,5,23,Ticks_Phase_5,312,1,48,31,602250132
79,5,23,Ticks_Phase_5,313,5,42,127,602257732
79,5,23,Ticks_Phase_5,314,1,48,30,602742380
79,5,23,Ticks_Phase_5,315,5,42,127,602757420
79,5,23,Ticks_Phase_5,316,1,48,32,603233008
79,5,23,Ticks_Phase_5,317,5,42,127,603258204
79,5,23,Ticks_Phase_5,318,1,48,32,603729408
79,5,23,Ticks_Phase_5,319,5,42,127,603758116
79,5,23,Ticks_Phase_5,320,1,48,30,604243912
79,5,23,Ticks_Phase_5,321,5,42,127,604257508
79,5,23,Ticks_Phase_5,322,1,48,27,604712528
79,5,23,Ticks_Phase_5,323,5,42,127,604758320
79,5,23,Ticks_Phase_5,324,1,48,29,605243068
79,5,23,Ticks_Phase_5,325,5,42,127,605258080
79,5,23,Ticks_Phase_5,326,1,48,30,605715044
79,5,23,Ticks_Phase_5,327,5,42,127,605757992
79,5,23,Ticks_Phase_5,328,1,48,32,606235704
79,5,23,Ticks_Phase_5,329,5,42,127,606257460
79,5,23,Ticks_Phase_5,330,1,48,27,606750152
79,5,23,Ticks_Phase_5,331,5,42,127,606758120
79,5,23,Ticks_Phase_5,332,1,48,32,607242096
79,5,23,Ticks_Phase_5,333,5,42,127,607258228
79,5,23,Ticks_Phase_5,334,1,48,32,607726288
79,5,23,Ticks_Phase_5,335,5,42,127,607757768
79,5,23,Ticks_Phase_5,0,9999,9999,9999,523195476
79,5,23,Ticks_Phase_5,1,9999,9999,9999,523695184
79,5,23,Ticks_Phase_5,2,9999,9999,9999,524195940
79,5,23,Ticks_Phase_5,3,9999,9999,9999,524695652
79,5,23,Ticks_Phase_5,4,9999,9999,9999,525195364
79,5,23,Ticks_Phase_5,5,9999,9999,9999,525696068
79,5,23,Ticks_Phase_5,6,9999,9999,9999,526206016
79,5,23,Ticks_Phase_5,7,9999,9999,9999,526705780
79,5,23,Ticks_Phase_5,8,9999,9999,9999,527205468
79,5,23,Ticks_Phase_5,9,9999,9999,9999,527705156
79,5,23,Ticks_Phase_5,10,9999,9999,9999,528205896
79,5,23,Ticks_Phase_5,11,9999,9999,9999,528705652
79,5,23,Ticks_Phase_5,12,9999,9999,9999,529205348
79,5,23,Ticks_Phase_5,13,9999,9999,9999,529706080
79,5,23,Ticks_Phase_5,14,9999,9999,9999,530205764
79,5,23,Ticks_Phase_5,15,9999,9999,9999,530705532
79,5,23,Ticks_Phase_5,16,9999,9999,9999,531205216
79,5,23,Ticks_Phase_5,17,9999,9999,9999,531705956
79,5,23,Ticks_Phase_5,18,9999,9999,9999,532205648
79,5,23,Ticks_Phase_5,19,9999,9999,9999,532705404
79,5,23,Ticks_Phase_5,20,9999,9999,9999,533206072
79,5,23,Ticks_Phase_5,21,9999,9999,9999,533716084
79,5,23,Ticks_Phase_5,22,9999,9999,9999,534215780
79,5,23,Ticks_Phase_5,23,9999,9999,9999,534715468
79,5,23,Ticks_Phase_5,24,9999,9999,9999,535215228
79,5,23,Ticks_Phase_5,25,9999,9999,9999,535715964
79,5,23,Ticks_Phase_5,26,9999,9999,9999,536215652
79,5,23,Ticks_Phase_5,27,9999,9999,9999,536715340
79,5,23,Ticks_Phase_5,28,9999,9999,9999,537216124
79,5,23,Ticks_Phase_5,29,9999,9999,9999,537726048
79,5,23,Ticks_Phase_5,30,9999,9999,9999,538215476
79,5,23,Ticks_Phase_5,31,9999,9999,9999,538715240
79,5,23,Ticks_Phase_5,32,9999,9999,9999,539215976
79,5,23,Ticks_Phase_5,33,9999,9999,9999,539715664
79,5,23,Ticks_Phase_5,34,9999,9999,9999,540215352
79,5,23,Ticks_Phase_5,35,9999,9999,9999,540715116
79,5,23,Ticks_Phase_5,36,9999,9999,9999,541215852
79,5,23,Ticks_Phase_5,37,9999,9999,9999,541715540
79,5,23,Ticks_Phase_5,38,9999,9999,9999,542215228
79,5,23,Ticks_Phase_5,39,9999,9999,9999,542715972
79,5,23,Ticks_Phase_5,40,9999,9999,9999,543215728
79,5,23,Ticks_Phase_5,41,9999,9999,9999,543715412
79,5,23,Ticks_Phase_5,42,9999,9999,9999,544215104
79,5,23,Ticks_Phase_5,43,9999,9999,9999,544715836
79,5,23,Ticks_Phase_5,44,9999,9999,9999,545215604
79,5,23,Ticks_Phase_5,45,9999,9999,9999,545715292
79,5,23,Ticks_Phase_5,46,9999,9999,9999,546216020
79,5,23,Ticks_Phase_5,47,9999,9999,9999,546715712
79,5,23,Ticks_Phase_5,48,9999,9999,9999,547225660
79,5,23,Ticks_Phase_5,49,9999,9999,9999,547725420
79,5,23,Ticks_Phase_5,50,9999,9999,9999,548225084
79,5,23,Ticks_Phase_5,51,9999,9999,9999,548725868
79,5,23,Ticks_Phase_5,52,9999,9999,9999,549225556
79,5,23,Ticks_Phase_5,53,9999,9999,9999,549725252
79,5,23,Ticks_Phase_5,54,9999,9999,9999,550225980
79,5,23,Ticks_Phase_5,55,9999,9999,9999,550725740
79,5,23,Ticks_Phase_5,56,9999,9999,9999,551225432
79,5,23,Ticks_Phase_5,57,9999,9999,9999,551725120
79,5,23,Ticks_Phase_5,58,9999,9999,9999,552225856
79,5,23,Ticks_Phase_5,59,9999,9999,9999,552725616
79,5,23,Ticks_Phase_5,60,9999,9999,9999,553225304
79,5,23,Ticks_Phase_5,61,9999,9999,9999,553726040
79,5,23,Ticks_Phase_5,62,9999,9999,9999,554225732
79,5,23,Ticks_Phase_5,63,9999,9999,9999,554725500
79,5,23,Ticks_Phase_5,64,9999,9999,9999,555245636
79,5,23,Ticks_Phase_5,65,9999,9999,9999,555745392
79,5,23,Ticks_Phase_5,66,9999,9999,9999,556246136
79,5,23,Ticks_Phase_5,67,9999,9999,9999,556756076
79,5,23,Ticks_Phase_5,68,9999,9999,9999,557255768
79,5,23,Ticks_Phase_5,69,9999,9999,9999,557755452
79,5,23,Ticks_Phase_5,70,9999,9999,9999,558255216
79,5,23,Ticks_Phase_5,71,9999,9999,9999,558755900
79,5,23,Ticks_Phase_5,72,9999,9999,9999,559255644
79,5,23,Ticks_Phase_5,73,9999,9999,9999,559755328
79,5,23,Ticks_Phase_5,74,9999,9999,9999,560256116
79,5,23,Ticks_Phase_5,75,9999,9999,9999,560766060
79,5,23,Ticks_Phase_5,76,9999,9999,9999,561265748
79,5,23,Ticks_Phase_5,77,9999,9999,9999,561765444
79,5,23,Ticks_Phase_5,78,9999,9999,9999,562265200
79,5,23,Ticks_Phase_5,79,9999,9999,9999,562765940
79,5,23,Ticks_Phase_5,80,9999,9999,9999,563265624
79,5,23,Ticks_Phase_5,81,9999,9999,9999,563745912
79,5,23,Ticks_Phase_5,82,9999,9999,9999,564245604
79,5,23,Ticks_Phase_5,83,9999,9999,9999,564745292
79,5,23,Ticks_Phase_5,84,9999,9999,9999,565246024
79,5,23,Ticks_Phase_5,85,9999,9999,9999,565745720
79,5,23,Ticks_Phase_5,86,9999,9999,9999,566245480
79,5,23,Ticks_Phase_5,87,9999,9999,9999,566745172
79,5,23,Ticks_Phase_5,88,9999,9999,9999,567245908
79,5,23,Ticks_Phase_5,89,9999,9999,9999,567745588
79,5,23,Ticks_Phase_5,90,9999,9999,9999,568245360
79,5,23,Ticks_Phase_5,91,9999,9999,9999,568746088
79,5,23,Ticks_Phase_5,92,9999,9999,9999,569245776
79,5,23,Ticks_Phase_5,93,9999,9999,9999,569745468
79,5,23,Ticks_Phase_5,94,9999,9999,9999,570245232
79,5,23,Ticks_Phase_5,95,9999,9999,9999,570745940
79,5,23,Ticks_Phase_5,96,9999,9999,9999,571245636
79,5,23,Ticks_Phase_5,97,9999,9999,9999,571695228
79,5,23,Ticks_Phase_5,98,9999,9999,9999,572195964
79,5,23,Ticks_Phase_5,99,9999,9999,9999,572695648
79,5,23,Ticks_Phase_5,100,9999,9999,9999,573195336
79,5,23,Ticks_Phase_5,101,9999,9999,9999,573696076
79,5,23,Ticks_Phase_5,102,9999,9999,9999,574206020
79,5,23,Ticks_Phase_5,103,9999,9999,9999,574705784
79,5,23,Ticks_Phase_5,104,9999,9999,9999,575205472
79,5,23,Ticks_Phase_5,105,9999,9999,9999,575705160
79,5,23,Ticks_Phase_5,106,9999,9999,9999,576205896
79,5,23,Ticks_Phase_5,107,9999,9999,9999,576705660
79,5,23,Ticks_Phase_5,108,9999,9999,9999,577205348
79,5,23,Ticks_Phase_5,109,9999,9999,9999,577706084
79,5,23,Ticks_Phase_5,110,9999,9999,9999,578205772
79,5,23,Ticks_Phase_5,111,9999,9999,9999,578705532
79,5,23,Ticks_Phase_5,112,9999,9999,9999,579205220
79,5,23,Ticks_Phase_5,113,9999,9999,9999,579705932
79,5,23,Ticks_Phase_5,114,9999,9999,9999,580255820
79,5,23,Ticks_Phase_5,115,9999,9999,9999,580755580
79,5,23,Ticks_Phase_5,116,9999,9999,9999,581255268
79,5,23,Ticks_Phase_5,117,9999,9999,9999,581755980
79,5,23,Ticks_Phase_5,118,9999,9999,9999,582255668
79,5,23,Ticks_Phase_5,119,9999,9999,9999,582755432
79,5,23,Ticks_Phase_5,120,9999,9999,9999,583255128
79,5,23,Ticks_Phase_5,121,9999,9999,9999,583755860
79,5,23,Ticks_Phase_5,122,9999,9999,9999,584255544
79,5,23,Ticks_Phase_5,123,9999,9999,9999,584755308
79,5,23,Ticks_Phase_5,124,9999,9999,9999,585256040
79,5,23,Ticks_Phase_5,125,9999,9999,9999,585755728
79,5,23,Ticks_Phase_5,126,9999,9999,9999,586255420
79,5,23,Ticks_Phase_5,127,9999,9999,9999,586755180
79,5,23,Ticks_Phase_5,128,9999,9999,9999,587255916
79,5,23,Ticks_Phase_5,129,9999,9999,9999,587755604
79,5,23,Ticks_Phase_5,130,9999,9999,9999,588255292
79,5,23,Ticks_Phase_5,131,9999,9999,9999,588855388
79,5,23,Ticks_Phase_5,132,9999,9999,9999,589355100
79,5,23,Ticks_Phase_5,133,9999,9999,9999,589855832
79,5,23,Ticks_Phase_5,134,9999,9999,9999,590355524
79,5,23,Ticks_Phase_5,135,9999,9999,9999,590855284
79,5,23,Ticks_Phase_5,136,9999,9999,9999,591356020
79,5,23,Ticks_Phase_5,137,9999,9999,9999,591855708
79,5,23,Ticks_Phase_5,138,9999,9999,9999,592355396
79,5,23,Ticks_Phase_5,139,9999,9999,9999,592855156
79,5,23,Ticks_Phase_5,140,9999,9999,9999,593355896
79,5,23,Ticks_Phase_5,141,9999,9999,9999,593855580
79,5,23,Ticks_Phase_5,142,9999,9999,9999,594355268
79,5,23,Ticks_Phase_5,143,9999,9999,9999,594856000
79,5,23,Ticks_Phase_5,144,9999,9999,9999,595355768
79,5,23,Ticks_Phase_5,145,9999,9999,9999,595855456
79,5,23,Ticks_Phase_5,146,9999,9999,9999,596355144
79,5,23,Ticks_Phase_5,147,9999,9999,9999,596855928
79,5,23,Ticks_Phase_5,148,9999,9999,9999,597355620
79,5,23,Ticks_Phase_5,149,9999,9999,9999,597855304
79,5,23,Ticks_Phase_5,150,9999,9999,9999,598255700
79,5,23,Ticks_Phase_5,151,9999,9999,9999,598755388
79,5,23,Ticks_Phase_5,152,9999,9999,9999,599255148
79,5,23,Ticks_Phase_5,153,9999,9999,9999,599755876
79,5,23,Ticks_Phase_5,154,9999,9999,9999,600255568
79,5,23,Ticks_Phase_5,155,9999,9999,9999,600755256
79,5,23,Ticks_Phase_5,156,9999,9999,9999,601255996
79,5,23,Ticks_Phase_5,157,9999,9999,9999,601755760
79,5,23,Ticks_Phase_5,158,9999,9999,9999,602255440
79,5,23,Ticks_Phase_5,159,9999,9999,9999,602755132
79,5,23,Ticks_Phase_5,160,9999,9999,9999,603255916
79,5,23,Ticks_Phase_5,161,9999,9999,9999,603755604
79,5,23,Ticks_Phase_5,162,9999,9999,9999,604255292
79,5,23,Ticks_Phase_5,163,9999,9999,9999,604756032
79,5,23,Ticks_Phase_5,164,9999,9999,9999,605255792
79,5,23,Ticks_Phase_5,165,9999,9999,9999,605755480
79,5,23,Ticks_Phase_5,166,9999,9999,9999,606255168
79,5,23,Ticks_Phase_5,167,9999,9999,9999,606755904
79,5,23,Ticks_Phase_5,168,9999,9999,9999,607255644
79,5,23,Ticks_Phase_5,169,9999,9999,9999,607755332
79,6,22,Ticks_Phase_8,0,5,42,127,618864964
79,6,22,Ticks_Phase_8,1,5,42,127,619664724
79,6,22,Ticks_Phase_8,2,5,42,127,620464456
79,6,22,Ticks_Phase_8,3,1,48,24,620503452
79,6,22,Ticks_Phase_8,4,1,48,32,621264920
79,6,22,Ticks_Phase_8,5,5,42,127,621266480
79,6,22,Ticks_Phase_8,6,5,42,127,622064928
79,6,22,Ticks_Phase_8,7,1,48,31,622083776
79,6,22,Ticks_Phase_8,8,5,42,127,622864640
79,6,22,Ticks_Phase_8,9,1,48,32,622892996
79,6,22,Ticks_Phase_8,10,1,48,32,623659816
79,6,22,Ticks_Phase_8,11,5,42,127,623664716
79,6,22,Ticks_Phase_8,12,5,42,127,624465184
79,6,22,Ticks_Phase_8,13,1,48,24,624495264
79,6,22,Ticks_Phase_8,14,5,42,127,625264972
79,6,22,Ticks_Phase_8,15,1,48,28,625306908
79,6,22,Ticks_Phase_8,16,5,42,127,626064856
79,6,22,Ticks_Phase_8,17,1,48,30,626066496
79,6,22,Ticks_Phase_8,18,1,48,31,626849028
79,6,22,Ticks_Phase_8,19,5,42,127,626864636
79,6,22,Ticks_Phase_8,20,1,48,28,627639604
79,6,22,Ticks_Phase_8,21,5,42,127,627665692
79,6,22,Ticks_Phase_8,22,1,48,31,628460504
79,6,22,Ticks_Phase_8,23,5,42,127,628464960
79,6,22,Ticks_Phase_8,24,1,48,37,629205332
79,6,22,Ticks_Phase_8,25,5,42,127,629264892
79,6,22,Ticks_Phase_8,26,1,48,25,630031020
79,6,22,Ticks_Phase_8,27,5,42,127,630064604
79,6,22,Ticks_Phase_8,28,5,42,127,630865220
79,6,22,Ticks_Phase_8,29,1,48,31,630883024
79,6,22,Ticks_Phase_8,30,5,42,127,631665008
79,6,22,Ticks_Phase_8,31,1,48,38,631667024
79,6,22,Ticks_Phase_8,32,5,42,127,632464744
79,6,22,Ticks_Phase_8,33,1,48,35,632471452
79,6,22,Ticks_Phase_8,34,1,48,34,633233272
79,6,22,Ticks_Phase_8,35,5,42,127,633264600
79,6,22,Ticks_Phase_8,36,1,48,29,634048252
79,6,22,Ticks_Phase_8,37,5,42,127,634065356
79,6,22,Ticks_Phase_8,38,5,42,127,634865004
79,6,22,Ticks_Phase_8,39,1,48,34,634869692
79,6,22,Ticks_Phase_8,40,5,42,127,635664792
79,6,22,Ticks_Phase_8,41,1,48,37,635680188
79,6,22,Ticks_Phase_8,42,1,48,31,636456748
79,6,22,Ticks_Phase_8,43,5,42,127,636464496
79,6,22,Ticks_Phase_8,44,1,48,34,637260356
79,6,22,Ticks_Phase_8,45,5,42,127,637265404
79,6,22,Ticks_Phase_8,46,1,48,34,638055276
79,6,22,Ticks_Phase_8,47,5,42,127,638064892
79,6,22,Ticks_Phase_8,48,1,48,29,638833724
79,6,22,Ticks_Phase_8,49,5,42,127,638864852
79,6,22,Ticks_Phase_8,50,5,42,127,639664420
79,6,22,Ticks_Phase_8,51,1,48,29,639686792
79,6,22,Ticks_Phase_8,52,5,42,127,640465180
79,6,22,Ticks_Phase_8,53,1,48,32,640485828
79,6,22,Ticks_Phase_8,54,1,48,31,641250996
79,6,22,Ticks_Phase_8,55,5,42,127,641265108
79,6,22,Ticks_Phase_8,56,1,48,31,642051680
79,6,22,Ticks_Phase_8,57,5,42,127,642064748
79,6,22,Ticks_Phase_8,58,5,42,127,642845144
79,6,22,Ticks_Phase_8,59,1,48,25,642892516
79,6,22,Ticks_Phase_8,60,1,48,36,643636364
79,6,22,Ticks_Phase_8,61,5,42,127,643644776
79,6,22,Ticks_Phase_8,62,1,48,30,644410228
79,6,22,Ticks_Phase_8,63,5,42,127,644444488
79,6,22,Ticks_Phase_8,64,1,48,37,645199684
79,6,22,Ticks_Phase_8,65,5,42,127,645245320
79,6,22,Ticks_Phase_8,66,5,42,127,646045140
79,6,22,Ticks_Phase_8,67,1,48,28,646048260
79,6,22,Ticks_Phase_8,68,1,48,27,646841664
79,6,22,Ticks_Phase_8,69,5,42,127,646844920
79,6,22,Ticks_Phase_8,70,1,48,30,647624460
79,6,22,Ticks_Phase_8,71,5,42,127,647644484
79,6,22,Ticks_Phase_8,72,1,48,35,648436752
79,6,22,Ticks_Phase_8,73,5,42,127,648445240
79,6,22,Ticks_Phase_8,74,1,48,26,649225828
79,6,22,Ticks_Phase_8,75,5,42,127,649245100
79,6,22,Ticks_Phase_8,76,1,48,24,650009356
79,6,22,Ticks_Phase_8,77,5,42,127,650044736
79,6,22,Ticks_Phase_8,78,1,48,26,650844604
79,6,22,Ticks_Phase_8,79,5,42,127,650846092
79,6,22,Ticks_Phase_8,80,5,42,127,651645364
79,6,22,Ticks_Phase_8,81,1,48,27,651654332
79,6,22,Ticks_Phase_8,82,1,48,36,652391016
79,6,22,Ticks_Phase_8,83,5,42,127,652445288
79,6,22,Ticks_Phase_8,84,1,48,26,653225728
79,6,22,Ticks_Phase_8,85,5,42,127,653244928
79,6,22,Ticks_Phase_8,86,5,42,127,654044496
79,6,22,Ticks_Phase_8,87,1,48,21,654080116
79,6,22,Ticks_Phase_8,88,5,42,127,654845256
79,6,22,Ticks_Phase_8,89,1,48,18,654894956
79,6,22,Ticks_Phase_8,90,5,42,127,655645116
79,6,22,Ticks_Phase_8,91,1,48,28,655687928
79,6,22,Ticks_Phase_8,92,5,42,127,656444904
79,6,22,Ticks_Phase_8,93,1,48,35,656497224
79,6,22,Ticks_Phase_8,94,1,48,29,657260828
79,6,22,Ticks_Phase_8,95,5,42,127,657265204
79,6,22,Ticks_Phase_8,96,5,42,127,658064944
79,6,22,Ticks_Phase_8,97,1,48,33,658084396
79,6,22,Ticks_Phase_8,98,1,48,35,658854292
79,6,22,Ticks_Phase_8,99,5,42,127,658864576
79,6,22,Ticks_Phase_8,100,1,48,37,659642160
79,6,22,Ticks_Phase_8,101,5,42,127,659665260
79,6,22,Ticks_Phase_8,102,1,48,33,660454160
79,6,22,Ticks_Phase_8,103,5,42,127,660464972
79,6,22,Ticks_Phase_8,104,1,48,31,661217996
79,6,22,Ticks_Phase_8,105,5,42,127,661264832
79,6,22,Ticks_Phase_8,106,5,42,127,662064400
79,6,22,Ticks_Phase_8,107,1,48,28,662092376
79,6,22,Ticks_Phase_8,108,1,48,22,662863792
79,6,22,Ticks_Phase_8,109,5,42,127,662865228
79,6,22,Ticks_Phase_8,110,1,48,34,663620724
79,6,22,Ticks_Phase_8,111,5,42,127,663665012
79,6,22,Ticks_Phase_8,112,1,48,38,664430240
79,6,22,Ticks_Phase_8,113,5,42,127,664465044
79,6,22,Ticks_Phase_8,114,1,48,29,665250348
79,6,22,Ticks_Phase_8,115,5,42,127,665264608
79,6,22,Ticks_Phase_8,116,1,48,28,666062188
79,6,22,Ticks_Phase_8,117,5,42,127,666065292
79,6,22,Ticks_Phase_8,118,1,48,29,666823196
79,6,22,Ticks_Phase_8,119,5,42,127,666865008
79,6,22,Ticks_Phase_8,120,1,48,32,667603660
79,6,22,Ticks_Phase_8,121,5,42,127,667664944
79,6,22,Ticks_Phase_8,122,1,48,26,668434748
79,6,22,Ticks_Phase_8,123,5,42,127,668464504
79,6,22,Ticks_Phase_8,124,1,48,31,669219776
79,6,22,Ticks_Phase_8,125,5,42,127,669265264
79,6,22,Ticks_Phase_8,126,1,48,32,670021736
79,6,22,Ticks_Phase_8,127,5,42,127,670104916
79,6,22,Ticks_Phase_8,128,1,48,23,670881156
79,6,22,Ticks_Phase_8,129,5,42,127,670904632
79,6,22,Ticks_Phase_8,130,5,42,127,671704576
79,6,22,Ticks_Phase_8,131,1,48,32,671741684
79,6,22,Ticks_Phase_8,132,5,42,127,672505108
79,6,22,Ticks_Phase_8,133,1,48,32,672533244
79,6,22,Ticks_Phase_8,134,5,42,127,673304820
79,6,22,Ticks_Phase_8,135,1,48,31,673327560
79,6,22,Ticks_Phase_8,136,5,42,127,674104680
79,6,22,Ticks_Phase_8,137,1,48,30,674173208
79,6,22,Ticks_Phase_8,138,1,48,32,674841592
79,6,22,Ticks_Phase_8,139,5,42,127,674904608
79,6,22,Ticks_Phase_8,140,1,48,27,675695980
79,6,22,Ticks_Phase_8,141,5,42,127,675705068
79,6,22,Ticks_Phase_8,142,5,42,127,676504812
79,6,22,Ticks_Phase_8,143,1,48,36,676513180
79,6,22,Ticks_Phase_8,144,1,48,34,677301340
79,6,22,Ticks_Phase_8,145,5,42,127,677304816
79,6,22,Ticks_Phase_8,146,5,42,127,678104536
79,6,22,Ticks_Phase_8,147,1,48,35,678109228
79,6,22,Ticks_Phase_8,148,5,42,127,678905144
79,6,22,Ticks_Phase_8,149,1,48,35,678939940
79,6,22,Ticks_Phase_8,150,1,48,35,679675168
79,6,22,Ticks_Phase_8,151,5,42,127,679705000
79,6,22,Ticks_Phase_8,152,1,48,27,680489252
79,6,22,Ticks_Phase_8,153,5,42,127,680504636
79,6,22,Ticks_Phase_8,154,5,42,127,681304504
79,6,22,Ticks_Phase_8,155,1,48,30,681305768
79,6,22,Ticks_Phase_8,156,1,48,26,682089500
79,6,22,Ticks_Phase_8,157,5,42,127,682105180
79,6,22,Ticks_Phase_8,158,1,48,26,682868168
79,6,22,Ticks_Phase_8,159,5,42,127,682904916
79,6,22,Ticks_Phase_8,160,5,42,127,683664724
79,6,22,Ticks_Phase_8,161,1,48,29,683700188
79,6,22,Ticks_Phase_8,162,1,48,28,684457808
79,6,22,Ticks_Phase_8,163,5,42,127,684464428
79,6,22,Ticks_Phase_8,164,1,48,31,685214536
79,6,22,Ticks_Phase_8,165,5,42,127,685265336
79,6,22,Ticks_Phase_8,166,1,48,31,686053420
79,6,22,Ticks_Phase_8,167,5,42,127,686064900
79,6,22,Ticks_Phase_8,168,1,48,28,686848704
79,6,22,Ticks_Phase_8,169,5,42,127,686864688
79,6,22,Ticks_Phase_8,170,1,48,29,687647740
79,6,22,Ticks_Phase_8,171,5,42,127,687664472
79,6,22,Ticks_Phase_8,172,1,48,28,688445808
79,6,22,Ticks_Phase_8,173,5,42,127,688465452
79,6,22,Ticks_Phase_8,174,1,48,29,689259672
79,6,22,Ticks_Phase_8,175,5,42,127,689265092
79,6,22,Ticks_Phase_8,176,1,48,28,690060224
79,6,22,Ticks_Phase_8,177,5,42,127,690064604
79,6,22,Ticks_Phase_8,178,1,48,29,690812012
79,6,22,Ticks_Phase_8,179,5,42,127,690864616
79,6,22,Ticks_Phase_8,180,5,42,127,691665232
79,6,22,Ticks_Phase_8,181,1,48,30,691674128
79,6,22,Ticks_Phase_8,182,1,48,24,692459964
79,6,22,Ticks_Phase_8,183,5,42,127,692465084
79,6,22,Ticks_Phase_8,184,5,42,127,693264804
79,6,22,Ticks_Phase_8,185,1,48,29,693270096
79,6,22,Ticks_Phase_8,186,1,48,28,694034828
79,6,22,Ticks_Phase_8,187,5,42,127,694064360
79,6,22,Ticks_Phase_8,188,5,42,127,694865276
79,6,22,Ticks_Phase_8,189,1,48,30,694885400
79,6,22,Ticks_Phase_8,190,5,42,127,695665212
79,6,22,Ticks_Phase_8,191,1,48,30,695704380
79,6,22,Ticks_Phase_8,192,5,42,127,696385020
79,6,22,Ticks_Phase_8,193,1,48,34,696532988
79,6,22,Ticks_Phase_8,194,1,48,20,697153924
79,6,22,Ticks_Phase_8,195,5,42,127,697184504
79,6,22,Ticks_Phase_8,196,1,48,23,697909596
79,6,22,Ticks_Phase_8,197,5,42,127,697985288
79,6,22,Ticks_Phase_8,198,5,42,127,698785156
79,6,22,Ticks_Phase_8,199,1,48,35,698793968
79,6,22,Ticks_Phase_8,200,5,42,127,699584940
79,6,22,Ticks_Phase_8,201,1,48,32,699625584
79,6,22,Ticks_Phase_8,202,5,42,127,700384580
79,6,22,Ticks_Phase_8,203,1,48,35,700450300
79,6,22,Ticks_Phase_8,204,5,42,127,701185264
79,6,22,Ticks_Phase_8,205,1,48,27,701207552
79,6,22,Ticks_Phase_8,206,5,42,127,701985120
79,6,22,Ticks_Phase_8,207,1,48,33,702020288
79,6,22,Ticks_Phase_8,208,5,42,127,702784980
79,6,22,Ticks_Phase_8,209,1,48,38,702854780
79,6,22,Ticks_Phase_8,210,1,48,36,703556572
79,6,22,Ticks_Phase_8,211,5,42,127,703584612
79,6,22,Ticks_Phase_8,212,1,48,31,704339956
79,6,22,Ticks_Phase_8,213,5,42,127,704385320
79,6,22,Ticks_Phase_8,214,1,48,27,705175120
79,6,22,Ticks_Phase_8,215,5,42,127,705185108
79,6,22,Ticks_Phase_8,216,1,48,36,705967416
79,6,22,Ticks_Phase_8,217,5,42,127,705984816
79,6,22,Ticks_Phase_8,218,5,42,127,706784760
79,6,22,Ticks_Phase_8,219,1,48,25,706804208
79,6,22,Ticks_Phase_8,220,5,42,127,707585372
79,6,22,Ticks_Phase_8,221,1,48,32,707586860
79,6,22,Ticks_Phase_8,222,1,48,27,708330000
79,6,22,Ticks_Phase_8,223,5,42,127,708385000
79,6,22,Ticks_Phase_8,224,1,48,27,709171944
79,6,22,Ticks_Phase_8,225,5,42,127,709184864
79,6,22,Ticks_Phase_8,226,1,48,28,709984248
79,6,22,Ticks_Phase_8,227,5,42,127,710064432
79,6,22,Ticks_Phase_8,228,1,48,29,710826148
79,6,22,Ticks_Phase_8,229,5,42,127,710865116
79,6,22,Ticks_Phase_8,230,5,42,127,711665132
79,6,22,Ticks_Phase_8,231,1,48,33,711706824
79,6,22,Ticks_Phase_8,232,5,42,127,712464844
79,6,22,Ticks_Phase_8,233,1,48,33,712514772
79,6,22,Ticks_Phase_8,234,5,42,127,713264780
79,6,22,Ticks_Phase_8,235,1,48,26,713299276
79,6,22,Ticks_Phase_8,236,5,42,127,714065388
79,6,22,Ticks_Phase_8,237,1,48,25,714095468
79,6,22,Ticks_Phase_8,238,5,42,127,714864952
79,6,22,Ticks_Phase_8,239,1,48,28,714898872
79,6,22,Ticks_Phase_8,240,5,42,127,715664688
79,6,22,Ticks_Phase_8,241,1,48,29,715674704
79,6,22,Ticks_Phase_8,242,5,42,127,716464624
79,6,22,Ticks_Phase_8,243,1,48,26,716494036
79,6,22,Ticks_Phase_8,244,5,42,127,717265160
79,6,22,Ticks_Phase_8,245,1,48,27,717269252
79,6,22,Ticks_Phase_8,246,5,42,127,718064872
79,6,22,Ticks_Phase_8,247,1,48,28,718065836
79,6,22,Ticks_Phase_8,248,1,48,32,718821556
79,6,22,Ticks_Phase_8,249,5,42,127,718864872
79,6,22,Ticks_Phase_8,250,1,48,23,719650852
79,6,22,Ticks_Phase_8,251,5,42,127,719664584
79,6,22,Ticks_Phase_8,252,1,48,29,720456700
79,6,22,Ticks_Phase_8,253,5,42,127,720465196
79,6,22,Ticks_Phase_8,254,1,48,28,721221360
79,6,22,Ticks_Phase_8,255,5,42,127,721265128
79,6,22,Ticks_Phase_8,256,1,48,24,722040920
79,6,22,Ticks_Phase_8,257,5,42,127,722064644
79,6,22,Ticks_Phase_8,258,5,42,127,722864512
79,6,22,Ticks_Phase_8,259,1,48,32,722886276
79,6,22,Ticks_Phase_8,260,1,48,28,723645616
79,6,22,Ticks_Phase_8,261,5,42,127,723825132
79,6,22,Ticks_Phase_8,262,5,42,127,724624668
79,6,22,Ticks_Phase_8,263,1,48,23,724780556
79,6,22,Ticks_Phase_8,264,1,48,14,725383980
79,6,22,Ticks_Phase_8,265,5,42,127,725424448
79,6,22,Ticks_Phase_8,266,1,48,33,726059276
79,6,22,Ticks_Phase_8,267,5,42,127,726225412
79,6,22,Ticks_Phase_8,268,5,42,127,727024996
79,6,22,Ticks_Phase_8,269,1,48,36,727108468
79,6,22,Ticks_Phase_8,270,5,42,127,727824708
79,6,22,Ticks_Phase_8,271,1,48,38,727902424
79,6,22,Ticks_Phase_8,272,5,42,127,728624420
79,6,22,Ticks_Phase_8,273,1,48,32,728723424
79,6,22,Ticks_Phase_8,274,5,42,127,729425476
79,6,22,Ticks_Phase_8,275,1,48,35,729454512
79,6,22,Ticks_Phase_8,276,5,42,127,730224964
79,6,22,Ticks_Phase_8,277,1,48,36,730232644
79,6,22,Ticks_Phase_8,278,5,42,127,731024700
79,6,22,Ticks_Phase_8,279,1,48,29,731043772
79,6,22,Ticks_Phase_8,280,5,42,127,731824636
79,6,22,Ticks_Phase_8,281,1,48,36,731836144
79,6,22,Ticks_Phase_8,282,1,48,32,732604696
79,6,22,Ticks_Phase_8,283,5,42,127,732625536
79,6,22,Ticks_Phase_8,284,1,48,30,733422984
79,6,22,Ticks_Phase_8,285,5,42,127,733425100
79,6,22,Ticks_Phase_8,286,5,42,127,734224668
79,6,22,Ticks_Phase_8,287,1,48,34,734253256
79,6,22,Ticks_Phase_8,288,1,48,29,734995136
79,6,22,Ticks_Phase_8,289,5,42,127,735024520
79,6,22,Ticks_Phase_8,290,1,48,33,735800308
79,6,22,Ticks_Phase_8,291,5,42,127,735825428
79,6,22,Ticks_Phase_8,292,1,48,34,736608564
79,6,22,Ticks_Phase_8,293,5,42,127,736625216
79,6,22,Ticks_Phase_8,294,5,42,127,737424736
79,6,22,Ticks_Phase_8,295,1,48,29,737462144
79,6,22,Ticks_Phase_8,296,5,42,127,738224520
79,6,22,Ticks_Phase_8,297,1,48,33,738286128
79,6,22,Ticks_Phase_8,298,5,42,127,738864472
79,6,22,Ticks_Phase_8,299,1,48,41,739023464
79,6,22,Ticks_Phase_8,300,1,48,32,739546576
79,6,22,Ticks_Phase_8,301,5,42,127,739665288
79,6,22,Ticks_Phase_8,302,1,48,27,740453904
79,6,22,Ticks_Phase_8,303,5,42,127,740465088
79,6,22,Ticks_Phase_8,304,5,42,127,741264832
79,6,22,Ticks_Phase_8,305,1,48,26,741327488
79,6,22,Ticks_Phase_8,306,5,42,127,742064616
79,6,22,Ticks_Phase_8,307,1,48,31,742119108
79,6,22,Ticks_Phase_8,308,5,42,127,742865300
79,6,22,Ticks_Phase_8,309,1,48,33,742867976
79,6,22,Ticks_Phase_8,310,5,42,127,743665088
79,6,22,Ticks_Phase_8,311,1,48,31,743668280
79,6,22,Ticks_Phase_8,312,1,48,30,744448956
79,6,22,Ticks_Phase_8,313,5,42,127,744464716
79,6,22,Ticks_Phase_8,314,1,48,31,745211300
79,6,22,Ticks_Phase_8,315,5,42,127,745264356
79,6,22,Ticks_Phase_8,316,1,48,24,746046812
79,6,22,Ticks_Phase_8,317,5,42,127,746065188
79,6,22,Ticks_Phase_8,318,1,48,28,746856032
79,6,22,Ticks_Phase_8,319,5,42,127,746865124
79,6,22,Ticks_Phase_8,320,1,48,33,747646484
79,6,22,Ticks_Phase_8,321,5,42,127,747664860
79,6,22,Ticks_Phase_8,322,1,48,29,748464728
79,6,22,Ticks_Phase_8,323,5,42,127,748466064
79,6,22,Ticks_Phase_8,324,5,42,127,749265188
79,6,22,Ticks_Phase_8,325,1,48,24,749288900
79,6,22,Ticks_Phase_8,326,1,48,31,749970800
79,6,22,Ticks_Phase_8,327,5,42,127,750064952
79,6,22,Ticks_Phase_8,328,1,48,33,750761896
79,6,22,Ticks_Phase_8,329,5,42,127,750864888
79,6,22,Ticks_Phase_8,330,1,48,25,751552936
79,6,22,Ticks_Phase_8,331,5,42,127,751664600
79,6,22,Ticks_Phase_8,332,1,48,28,752462716
79,6,22,Ticks_Phase_8,333,5,42,127,752465300
79,6,22,Ticks_Phase_8,334,5,42,127,753265016
79,6,22,Ticks_Phase_8,335,1,48,28,753278200
79,6,22,Ticks_Phase_8,336,5,42,127,754064900
79,6,22,Ticks_Phase_8,0,9999,9999,9999,618862680
79,6,22,Ticks_Phase_8,1,9999,9999,9999,619662440
79,6,22,Ticks_Phase_8,2,9999,9999,9999,620462172
79,6,22,Ticks_Phase_8,3,9999,9999,9999,621262928
79,6,22,Ticks_Phase_8,4,9999,9999,9999,622062716
79,6,22,Ticks_Phase_8,5,9999,9999,9999,622862428
79,6,22,Ticks_Phase_8,6,9999,9999,9999,623662208
79,6,22,Ticks_Phase_8,7,9999,9999,9999,624462968
79,6,22,Ticks_Phase_8,8,9999,9999,9999,625262684
79,6,22,Ticks_Phase_8,9,9999,9999,9999,626062420
79,6,22,Ticks_Phase_8,10,9999,9999,9999,626862200
79,6,22,Ticks_Phase_8,11,9999,9999,9999,627662960
79,6,22,Ticks_Phase_8,12,9999,9999,9999,628462672
79,6,22,Ticks_Phase_8,13,9999,9999,9999,629262460
79,6,22,Ticks_Phase_8,14,9999,9999,9999,630062168
79,6,22,Ticks_Phase_8,15,9999,9999,9999,630862936
79,6,22,Ticks_Phase_8,16,9999,9999,9999,631662648
79,6,22,Ticks_Phase_8,17,9999,9999,9999,632462460
79,6,22,Ticks_Phase_8,18,9999,9999,9999,633262164
79,6,22,Ticks_Phase_8,19,9999,9999,9999,634062924
79,6,22,Ticks_Phase_8,20,9999,9999,9999,634862716
79,6,22,Ticks_Phase_8,21,9999,9999,9999,635662428
79,6,22,Ticks_Phase_8,22,9999,9999,9999,636462136
79,6,22,Ticks_Phase_8,23,9999,9999,9999,637262968
79,6,22,Ticks_Phase_8,24,9999,9999,9999,638062680
79,6,22,Ticks_Phase_8,25,9999,9999,9999,638862416
79,6,22,Ticks_Phase_8,26,9999,9999,9999,639662132
79,6,22,Ticks_Phase_8,27,9999,9999,9999,640462968
79,6,22,Ticks_Phase_8,28,9999,9999,9999,641262676
79,6,22,Ticks_Phase_8,29,9999,9999,9999,642062460
79,6,22,Ticks_Phase_8,30,9999,9999,9999,642842708
79,6,22,Ticks_Phase_8,31,9999,9999,9999,643642492
79,6,22,Ticks_Phase_8,32,9999,9999,9999,644442200
79,6,22,Ticks_Phase_8,33,9999,9999,9999,645242960
79,6,22,Ticks_Phase_8,34,9999,9999,9999,646042704
79,6,22,Ticks_Phase_8,35,9999,9999,9999,646842484
79,6,22,Ticks_Phase_8,36,9999,9999,9999,647642196
79,6,22,Ticks_Phase_8,37,9999,9999,9999,648442952
79,6,22,Ticks_Phase_8,38,9999,9999,9999,649242740
79,6,22,Ticks_Phase_8,39,9999,9999,9999,650042452
79,6,22,Ticks_Phase_8,40,9999,9999,9999,650842168
79,6,22,Ticks_Phase_8,41,9999,9999,9999,651643004
79,6,22,Ticks_Phase_8,42,9999,9999,9999,652442708
79,6,22,Ticks_Phase_8,43,9999,9999,9999,653242492
79,6,22,Ticks_Phase_8,44,9999,9999,9999,654042212
79,6,22,Ticks_Phase_8,45,9999,9999,9999,654842968
79,6,22,Ticks_Phase_8,46,9999,9999,9999,655642680
79,6,22,Ticks_Phase_8,47,9999,9999,9999,656442468
79,6,22,Ticks_Phase_8,48,9999,9999,9999,657262692
79,6,22,Ticks_Phase_8,49,9999,9999,9999,658062436
79,6,22,Ticks_Phase_8,50,9999,9999,9999,658862140
79,6,22,Ticks_Phase_8,51,9999,9999,9999,659662972
79,6,22,Ticks_Phase_8,52,9999,9999,9999,660462684
79,6,22,Ticks_Phase_8,53,9999,9999,9999,661262396
79,6,22,Ticks_Phase_8,54,9999,9999,9999,662062188
79,6,22,Ticks_Phase_8,55,9999,9999,9999,662862948
79,6,22,Ticks_Phase_8,56,9999,9999,9999,663662652
79,6,22,Ticks_Phase_8,57,9999,9999,9999,664462460
79,6,22,Ticks_Phase_8,58,9999,9999,9999,665262176
79,6,22,Ticks_Phase_8,59,9999,9999,9999,666062932
79,6,22,Ticks_Phase_8,60,9999,9999,9999,666862720
79,6,22,Ticks_Phase_8,61,9999,9999,9999,667662432
79,6,22,Ticks_Phase_8,62,9999,9999,9999,668462144
79,6,22,Ticks_Phase_8,63,9999,9999,9999,669262904
79,6,22,Ticks_Phase_8,64,9999,9999,9999,670102632
79,6,22,Ticks_Phase_8,65,9999,9999,9999,670902344
79,6,22,Ticks_Phase_8,66,9999,9999,9999,671702140
79,6,22,Ticks_Phase_8,67,9999,9999,9999,672502896
79,6,22,Ticks_Phase_8,68,9999,9999,9999,673302608
79,6,22,Ticks_Phase_8,69,9999,9999,9999,674102392
79,6,22,Ticks_Phase_8,70,9999,9999,9999,674902100
79,6,22,Ticks_Phase_8,71,9999,9999,9999,675702860
79,6,22,Ticks_Phase_8,72,9999,9999,9999,676502600
79,6,22,Ticks_Phase_8,73,9999,9999,9999,677302380
79,6,22,Ticks_Phase_8,74,9999,9999,9999,678102100
79,6,22,Ticks_Phase_8,75,9999,9999,9999,678902860
79,6,22,Ticks_Phase_8,76,9999,9999,9999,679702636
79,6,22,Ticks_Phase_8,77,9999,9999,9999,680502348
79,6,22,Ticks_Phase_8,78,9999,9999,9999,681302144
79,6,22,Ticks_Phase_8,79,9999,9999,9999,682102896
79,6,22,Ticks_Phase_8,80,9999,9999,9999,682902632
79,6,22,Ticks_Phase_8,81,9999,9999,9999,683662436
79,6,22,Ticks_Phase_8,82,9999,9999,9999,684462144
79,6,22,Ticks_Phase_8,83,9999,9999,9999,685262900
79,6,22,Ticks_Phase_8,84,9999,9999,9999,686062688
79,6,22,Ticks_Phase_8,85,9999,9999,9999,686862400
79,6,22,Ticks_Phase_8,86,9999,9999,9999,687662188
79,6,22,Ticks_Phase_8,87,9999,9999,9999,688462944
79,6,22,Ticks_Phase_8,88,9999,9999,9999,689262656
79,6,22,Ticks_Phase_8,89,9999,9999,9999,690062392
79,6,22,Ticks_Phase_8,90,9999,9999,9999,690862180
79,6,22,Ticks_Phase_8,91,9999,9999,9999,691662944
79,6,22,Ticks_Phase_8,92,9999,9999,9999,692462652
79,6,22,Ticks_Phase_8,93,9999,9999,9999,693262444
79,6,22,Ticks_Phase_8,94,9999,9999,9999,694062148
79,6,22,Ticks_Phase_8,95,9999,9999,9999,694862916
79,6,22,Ticks_Phase_8,96,9999,9999,9999,695662700
79,6,22,Ticks_Phase_8,97,9999,9999,9999,696382584
79,6,22,Ticks_Phase_8,98,9999,9999,9999,697182292
79,6,22,Ticks_Phase_8,99,9999,9999,9999,697983076
79,6,22,Ticks_Phase_8,100,9999,9999,9999,698782792
79,6,22,Ticks_Phase_8,101,9999,9999,9999,699582580
79,6,22,Ticks_Phase_8,102,9999,9999,9999,700382292
79,6,22,Ticks_Phase_8,103,9999,9999,9999,701183048
79,6,22,Ticks_Phase_8,104,9999,9999,9999,701982836
79,6,22,Ticks_Phase_8,105,9999,9999,9999,702782548
79,6,22,Ticks_Phase_8,106,9999,9999,9999,703582324
79,6,22,Ticks_Phase_8,107,9999,9999,9999,704383036
79,6,22,Ticks_Phase_8,108,9999,9999,9999,705182820
79,6,22,Ticks_Phase_8,109,9999,9999,9999,705982532
79,6,22,Ticks_Phase_8,110,9999,9999,9999,706782324
79,6,22,Ticks_Phase_8,111,9999,9999,9999,707583084
79,6,22,Ticks_Phase_8,112,9999,9999,9999,708382788
79,6,22,Ticks_Phase_8,113,9999,9999,9999,709182576
79,6,22,Ticks_Phase_8,114,9999,9999,9999,710062144
79,6,22,Ticks_Phase_8,115,9999,9999,9999,710862904
79,6,22,Ticks_Phase_8,116,9999,9999,9999,711662696
79,6,22,Ticks_Phase_8,117,9999,9999,9999,712462408
79,6,22,Ticks_Phase_8,118,9999,9999,9999,713262196
79,6,22,Ticks_Phase_8,119,9999,9999,9999,714062952
79,6,22,Ticks_Phase_8,120,9999,9999,9999,714862664
79,6,22,Ticks_Phase_8,121,9999,9999,9999,715662400
79,6,22,Ticks_Phase_8,122,9999,9999,9999,716462188
79,6,22,Ticks_Phase_8,123,9999,9999,9999,717262948
79,6,22,Ticks_Phase_8,124,9999,9999,9999,718062660
79,6,22,Ticks_Phase_8,125,9999,9999,9999,718862440
79,6,22,Ticks_Phase_8,126,9999,9999,9999,719662152
79,6,22,Ticks_Phase_8,127,9999,9999,9999,720462908
79,6,22,Ticks_Phase_8,128,9999,9999,9999,721262696
79,6,22,Ticks_Phase_8,129,9999,9999,9999,722062432
79,6,22,Ticks_Phase_8,130,9999,9999,9999,722862148
79,6,22,Ticks_Phase_8,131,9999,9999,9999,723822696
79,6,22,Ticks_Phase_8,132,9999,9999,9999,724622456
79,6,22,Ticks_Phase_8,133,9999,9999,9999,725422160
79,6,22,Ticks_Phase_8,134,9999,9999,9999,726222904
79,6,22,Ticks_Phase_8,135,9999,9999,9999,727022712
79,6,22,Ticks_Phase_8,136,9999,9999,9999,727822424
79,6,22,Ticks_Phase_8,137,9999,9999,9999,728622136
79,6,22,Ticks_Phase_8,138,9999,9999,9999,729422968
79,6,22,Ticks_Phase_8,139,9999,9999,9999,730222680
79,6,22,Ticks_Phase_8,140,9999,9999,9999,731022416
79,6,22,Ticks_Phase_8,141,9999,9999,9999,731822200
79,6,22,Ticks_Phase_8,142,9999,9999,9999,732622952
79,6,22,Ticks_Phase_8,143,9999,9999,9999,733422700
79,6,22,Ticks_Phase_8,144,9999,9999,9999,734222456
79,6,22,Ticks_Phase_8,145,9999,9999,9999,735022160
79,6,22,Ticks_Phase_8,146,9999,9999,9999,735822920
79,6,22,Ticks_Phase_8,147,9999,9999,9999,736622704
79,6,22,Ticks_Phase_8,148,9999,9999,9999,737422448
79,6,22,Ticks_Phase_8,149,9999,9999,9999,738222160
79,6,22,Ticks_Phase_8,150,9999,9999,9999,738862188
79,6,22,Ticks_Phase_8,151,9999,9999,9999,739662924
79,6,22,Ticks_Phase_8,152,9999,9999,9999,740462652
79,6,22,Ticks_Phase_8,153,9999,9999,9999,741262396
79,6,22,Ticks_Phase_8,154,9999,9999,9999,742062180
79,6,22,Ticks_Phase_8,155,9999,9999,9999,742862940
79,6,22,Ticks_Phase_8,156,9999,9999,9999,743662652
79,6,22,Ticks_Phase_8,157,9999,9999,9999,744462432
79,6,22,Ticks_Phase_8,158,9999,9999,9999,745262144
79,6,22,Ticks_Phase_8,159,9999,9999,9999,746062976
79,6,22,Ticks_Phase_8,160,9999,9999,9999,746862688
79,6,22,Ticks_Phase_8,161,9999,9999,9999,747662424
79,6,22,Ticks_Phase_8,162,9999,9999,9999,748462144
79,6,22,Ticks_Phase_8,163,9999,9999,9999,749262900
79,6,22,Ticks_Phase_8,164,9999,9999,9999,750062680
79,6,22,Ticks_Phase_8,165,9999,9999,9999,750862452
79,6,22,Ticks_Phase_8,166,9999,9999,9999,751662164
79,6,22,Ticks_Phase_8,167,9999,9999,9999,752462940
79,6,22,Ticks_Phase_8,168,9999,9999,9999,753262656
79,6,22,Ticks_Phase_8,169,9999,9999,9999,754062392
79,7,10,Ticks_ISO_T2_5,0,5,42,127,764765708
79,7,10,Ticks_ISO_T2_5,1,5,42,127,765266248
79,7,10,Ticks_ISO_T2_5,2,1,48,14,765483316
79,7,10,Ticks_ISO_T2_5,3,5,42,127,765765868
79,7,10,Ticks_ISO_T2_5,4,1,48,22,766197552
79,7,10,Ticks_ISO_T2_5,5,5,42,127,766265800
79,7,10,Ticks_ISO_T2_5,6,5,42,127,766765576
79,7,10,Ticks_ISO_T2_5,7,1,48,24,766816040
79,7,10,Ticks_ISO_T2_5,8,5,42,127,767266172
79,7,10,Ticks_ISO_T2_5,9,1,48,24,767292100
79,7,10,Ticks_ISO_T2_5,10,5,42,127,767765940
79,7,10,Ticks_ISO_T2_5,11,1,48,29,767788212
79,7,10,Ticks_ISO_T2_5,12,5,42,127,768265708
79,7,10,Ticks_ISO_T2_5,13,1,48,28,768276156
79,7,10,Ticks_ISO_T2_5,14,5,42,127,768766452
79,7,10,Ticks_ISO_T2_5,15,1,48,25,768769648
79,7,10,Ticks_ISO_T2_5,16,5,42,127,769266220
79,7,10,Ticks_ISO_T2_5,17,1,48,25,769271960
79,7,10,Ticks_ISO_T2_5,18,1,48,33,769757800
79,7,10,Ticks_ISO_T2_5,19,5,42,127,769765688
79,7,10,Ticks_ISO_T2_5,20,1,48,31,770248668
79,7,10,Ticks_ISO_T2_5,21,5,42,127,770265532
79,7,10,Ticks_ISO_T2_5,22,5,42,127,770766276
79,7,10,Ticks_ISO_T2_5,23,1,48,33,770767244
79,7,10,Ticks_ISO_T2_5,24,1,48,31,771257484
79,7,10,Ticks_ISO_T2_5,25,5,42,127,771265892
79,7,10,Ticks_ISO_T2_5,26,5,42,127,771765740
79,7,10,Ticks_ISO_T2_5,27,1,48,29,771779712
79,7,10,Ticks_ISO_T2_5,28,5,42,127,772266336
79,7,10,Ticks_ISO_T2_5,29,1,48,25,772272968
79,7,10,Ticks_ISO_T2_5,30,1,48,27,772749684
79,7,10,Ticks_ISO_T2_5,31,5,42,127,772766172
79,7,10,Ticks_ISO_T2_5,32,1,48,28,773242200
79,7,10,Ticks_ISO_T2_5,33,5,42,127,773265720
79,7,10,Ticks_ISO_T2_5,34,1,48,24,773744188
79,7,10,Ticks_ISO_T2_5,35,5,42,127,773765488
79,7,10,Ticks_ISO_T2_5,36,1,48,29,774257120
79,7,10,Ticks_ISO_T2_5,37,5,42,127,774266376
79,7,10,Ticks_ISO_T2_5,38,1,48,31,774737144
79,7,10,Ticks_ISO_T2_5,39,5,42,127,774766048
79,7,10,Ticks_ISO_T2_5,40,1,48,29,775243872
79,7,10,Ticks_ISO_T2_5,41,5,42,127,775265592
79,7,10,Ticks_ISO_T2_5,42,1,48,26,775727632
79,7,10,Ticks_ISO_T2_5,43,5,42,127,775766264
79,7,10,Ticks_ISO_T2_5,44,1,48,27,776258744
79,7,10,Ticks_ISO_T2_5,45,5,42,127,776266176
79,7,10,Ticks_ISO_T2_5,46,1,48,24,776731956
79,7,10,Ticks_ISO_T2_5,47,5,42,127,776765796
79,7,10,Ticks_ISO_T2_5,48,1,48,31,777253488
79,7,10,Ticks_ISO_T2_5,49,5,42,127,777265416
79,7,10,Ticks_ISO_T2_5,50,1,48,29,777725140
79,7,10,Ticks_ISO_T2_5,51,5,42,127,777766232
79,7,10,Ticks_ISO_T2_5,52,1,48,31,778237324
79,7,10,Ticks_ISO_T2_5,53,5,42,127,778266152
79,7,10,Ticks_ISO_T2_5,54,1,48,27,778751752
79,7,10,Ticks_ISO_T2_5,55,5,42,127,778765700
79,7,10,Ticks_ISO_T2_5,56,1,48,26,779249576
79,7,10,Ticks_ISO_T2_5,57,5,42,127,779266292
79,7,10,Ticks_ISO_T2_5,58,1,48,30,779756376
79,7,10,Ticks_ISO_T2_5,59,5,42,127,779766208
79,7,10,Ticks_ISO_T2_5,60,1,48,34,780247248
79,7,10,Ticks_ISO_T2_5,61,5,42,127,780265756
79,7,10,Ticks_ISO_T2_5,62,1,48,30,780749632
79,7,10,Ticks_ISO_T2_5,63,5,42,127,780765600
79,7,10,Ticks_ISO_T2_5,64,1,48,33,781232576
79,7,10,Ticks_ISO_T2_5,65,5,42,127,781266264
79,7,10,Ticks_ISO_T2_5,66,5,42,127,781765968
79,7,10,Ticks_ISO_T2_5,67,1,48,32,781774320
79,7,10,Ticks_ISO_T2_5,68,5,42,127,782265664
79,7,10,Ticks_ISO_T2_5,69,1,48,37,782278432
79,7,10,Ticks_ISO_T2_5,70,1,48,35,782763236
79,7,10,Ticks_ISO_T2_5,71,5,42,127,782765352
79,7,10,Ticks_ISO_T2_5,72,1,48,32,783247736
79,7,10,Ticks_ISO_T2_5,73,5,42,127,783266092
79,7,10,Ticks_ISO_T2_5,74,1,48,35,783733268
79,7,10,Ticks_ISO_T2_5,75,5,42,127,783766008
79,7,10,Ticks_ISO_T2_5,76,1,48,29,784246976
79,7,10,Ticks_ISO_T2_5,77,5,42,127,784265628
79,7,10,Ticks_ISO_T2_5,78,5,42,127,784766304
79,7,10,Ticks_ISO_T2_5,79,1,48,36,784773088
79,7,10,Ticks_ISO_T2_5,80,1,48,33,785253364
79,7,10,Ticks_ISO_T2_5,81,5,42,127,785266188
79,7,10,Ticks_ISO_T2_5,82,1,48,32,785761812
79,7,10,Ticks_ISO_T2_5,83,5,42,127,785765588
79,7,10,Ticks_ISO_T2_5,84,1,48,32,786247596
79,7,10,Ticks_ISO_T2_5,85,5,42,127,786265432
79,7,10,Ticks_ISO_T2_5,86,1,48,35,786752004
79,7,10,Ticks_ISO_T2_5,87,5,42,127,786766100
79,7,10,Ticks_ISO_T2_5,88,1,48,30,787227016
79,7,10,Ticks_ISO_T2_5,89,5,42,127,787266092
79,7,10,Ticks_ISO_T2_5,90,5,42,127,787765568
79,7,10,Ticks_ISO_T2_5,91,1,48,38,787785144
79,7,10,Ticks_ISO_T2_5,92,1,48,34,788250640
79,7,10,Ticks_ISO_T2_5,93,5,42,127,788266304
79,7,10,Ticks_ISO_T2_5,94,1,48,32,788734696
79,7,10,Ticks_ISO_T2_5,95,5,42,127,788766220
79,7,10,Ticks_ISO_T2_5,96,5,42,127,789265924
79,7,10,Ticks_ISO_T2_5,97,1,48,38,789278992
79,7,10,Ticks_ISO_T2_5,98,1,48,24,789758472
79,7,10,Ticks_ISO_T2_5,99,5,42,127,789765388
79,7,10,Ticks_ISO_T2_5,100,1,48,37,790248072
79,7,10,Ticks_ISO_T2_5,101,5,42,127,790266204
79,7,10,Ticks_ISO_T2_5,102,1,48,33,790749856
79,7,10,Ticks_ISO_T2_5,103,5,42,127,790766120
79,7,10,Ticks_ISO_T2_5,104,1,48,35,791245888
79,7,10,Ticks_ISO_T2_5,105,5,42,127,791265668
79,7,10,Ticks_ISO_T2_5,106,1,48,39,791733392
79,7,10,Ticks_ISO_T2_5,107,5,42,127,791766260
79,7,10,Ticks_ISO_T2_5,108,1,48,36,792244004
79,7,10,Ticks_ISO_T2_5,109,5,42,127,792266028
79,7,10,Ticks_ISO_T2_5,110,1,48,37,792750508
79,7,10,Ticks_ISO_T2_5,111,5,42,127,792766096
79,7,10,Ticks_ISO_T2_5,112,1,48,32,793237788
79,7,10,Ticks_ISO_T2_5,113,5,42,127,793265492
79,7,10,Ticks_ISO_T2_5,114,5,42,127,793766168
79,7,10,Ticks_ISO_T2_5,115,1,48,32,793779384
79,7,10,Ticks_ISO_T2_5,116,1,48,38,794258192
79,7,10,Ticks_ISO_T2_5,117,5,42,127,794266076
79,7,10,Ticks_ISO_T2_5,118,1,48,30,794753696
79,7,10,Ticks_ISO_T2_5,119,5,42,127,794765844
79,7,10,Ticks_ISO_T2_5,120,5,42,127,795266372
79,7,10,Ticks_ISO_T2_5,121,1,48,37,795276372
79,7,10,Ticks_ISO_T2_5,122,1,48,36,795765992
79,7,10,Ticks_ISO_T2_5,123,5,42,127,795767328
79,7,10,Ticks_ISO_T2_5,124,1,48,36,796259112
79,7,10,Ticks_ISO_T2_5,125,5,42,127,796266024
79,7,10,Ticks_ISO_T2_5,126,5,42,127,796765876
79,7,10,Ticks_ISO_T2_5,127,1,48,38,796775056
79,7,10,Ticks_ISO_T2_5,128,1,48,40,797249900
79,7,10,Ticks_ISO_T2_5,129,5,42,127,797266164
79,7,10,Ticks_ISO_T2_5,130,5,42,127,797765940
79,7,10,Ticks_ISO_T2_5,131,1,48,35,797772052
79,7,10,Ticks_ISO_T2_5,132,1,48,40,798258568
79,7,10,Ticks_ISO_T2_5,133,5,42,127,798265928
79,7,10,Ticks_ISO_T2_5,134,5,42,127,798765404
79,7,10,Ticks_ISO_T2_5,135,1,48,37,798772264
79,7,10,Ticks_ISO_T2_5,136,1,48,31,799258704
79,7,10,Ticks_ISO_T2_5,137,5,42,127,799266140
79,7,10,Ticks_ISO_T2_5,138,1,48,35,799761012
79,7,10,Ticks_ISO_T2_5,139,5,42,127,799765908
79,7,10,Ticks_ISO_T2_5,140,1,48,36,800230568
79,7,10,Ticks_ISO_T2_5,141,5,42,127,800265680
79,7,10,Ticks_ISO_T2_5,142,1,48,36,800759728
79,7,10,Ticks_ISO_T2_5,143,5,42,127,800766196
79,7,10,Ticks_ISO_T2_5,144,5,42,127,801265900
79,7,10,Ticks_ISO_T2_5,145,1,48,40,801269916
79,7,10,Ticks_ISO_T2_5,146,5,42,127,801765744
79,7,10,Ticks_ISO_T2_5,147,1,48,40,801784872
79,7,10,Ticks_ISO_T2_5,148,1,48,36,802257996
79,7,10,Ticks_ISO_T2_5,149,5,42,127,802265580
79,7,10,Ticks_ISO_T2_5,150,5,42,127,802766328
79,7,10,Ticks_ISO_T2_5,151,1,48,36,802795472
79,7,10,Ticks_ISO_T2_5,152,5,42,127,803265872
79,7,10,Ticks_ISO_T2_5,153,1,48,36,803276620
79,7,10,Ticks_ISO_T2_5,154,5,42,127,803765716
79,7,10,Ticks_ISO_T2_5,155,1,48,36,803776240
79,7,10,Ticks_ISO_T2_5,156,1,48,35,804240912
79,7,10,Ticks_ISO_T2_5,157,5,42,127,804266300
79,7,10,Ticks_ISO_T2_5,158,1,48,40,804754520
79,7,10,Ticks_ISO_T2_5,159,5,42,127,804765996
79,7,10,Ticks_ISO_T2_5,160,1,48,39,805248900
79,7,10,Ticks_ISO_T2_5,161,5,42,127,805265764
79,7,10,Ticks_ISO_T2_5,162,1,48,37,805730696
79,7,10,Ticks_ISO_T2_5,163,5,42,127,805765608
79,7,10,Ticks_ISO_T2_5,164,1,48,35,806244076
79,7,10,Ticks_ISO_T2_5,165,5,42,127,806266128
79,7,10,Ticks_ISO_T2_5,166,1,48,37,806751024
79,7,10,Ticks_ISO_T2_5,167,5,42,127,806765872
79,7,10,Ticks_ISO_T2_5,168,1,48,29,807219156
79,7,10,Ticks_ISO_T2_5,169,5,42,127,807265716
79,7,10,Ticks_ISO_T2_5,170,1,48,37,807743832
79,7,10,Ticks_ISO_T2_5,171,5,42,127,807766456
79,7,10,Ticks_ISO_T2_5,172,1,48,38,808201568
79,7,10,Ticks_ISO_T2_5,173,5,42,127,808266004
79,7,10,Ticks_ISO_T2_5,174,5,42,127,808765780
79,7,10,Ticks_ISO_T2_5,175,1,48,35,808778472
79,7,10,Ticks_ISO_T2_5,176,1,48,40,809246060
79,7,10,Ticks_ISO_T2_5,177,5,42,127,809265616
79,7,10,Ticks_ISO_T2_5,178,5,42,127,809766292
79,7,10,Ticks_ISO_T2_5,179,1,48,32,809777936
79,7,10,Ticks_ISO_T2_5,180,5,42,127,810265836
79,7,10,Ticks_ISO_T2_5,181,1,48,45,810283392
79,7,10,Ticks_ISO_T2_5,182,5,42,127,810765532
79,7,10,Ticks_ISO_T2_5,183,1,48,38,810768576
79,7,10,Ticks_ISO_T2_5,184,1,48,35,811247908
79,7,10,Ticks_ISO_T2_5,185,5,42,127,811266640
79,7,10,Ticks_ISO_T2_5,186,1,48,30,811761212
79,7,10,Ticks_ISO_T2_5,187,5,42,127,811766036
79,7,10,Ticks_ISO_T2_5,188,1,48,32,812236152
79,7,10,Ticks_ISO_T2_5,189,5,42,127,812265728
79,7,10,Ticks_ISO_T2_5,190,5,42,127,812765432
79,7,10,Ticks_ISO_T2_5,191,1,48,32,812772140
79,7,10,Ticks_ISO_T2_5,192,1,48,34,813247060
79,7,10,Ticks_ISO_T2_5,193,5,42,127,813266536
79,7,10,Ticks_ISO_T2_5,194,1,48,39,813759920
79,7,10,Ticks_ISO_T2_5,195,5,42,127,813765864
79,7,10,Ticks_ISO_T2_5,196,1,48,39,814243532
79,7,10,Ticks_ISO_T2_5,197,5,42,127,814265632
79,7,10,Ticks_ISO_T2_5,198,1,48,33,814726772
79,7,10,Ticks_ISO_T2_5,199,5,42,127,814765400
79,7,10,Ticks_ISO_T2_5,200,1,48,38,815242700
79,7,10,Ticks_ISO_T2_5,201,5,42,127,815266440
79,7,10,Ticks_ISO_T2_5,202,1,48,33,815720452
79,7,10,Ticks_ISO_T2_5,203,5,42,127,815765760
79,7,10,Ticks_ISO_T2_5,204,1,48,37,816221116
79,7,10,Ticks_ISO_T2_5,205,5,42,127,816265680
79,7,10,Ticks_ISO_T2_5,206,1,48,24,816724180
79,7,10,Ticks_ISO_T2_5,207,5,42,127,816766720
79,7,10,Ticks_ISO_T2_5,208,5,42,127,817266024
79,7,10,Ticks_ISO_T2_5,209,5,42,127,817765592
79,7,10,Ticks_ISO_T2_5,210,5,42,127,818265388
79,7,10,Ticks_ISO_T2_5,211,5,42,127,818766444
79,7,10,Ticks_ISO_T2_5,212,5,42,127,819265864
79,7,10,Ticks_ISO_T2_5,213,1,48,15,819285140
79,7,10,Ticks_ISO_T2_5,214,1,48,24,819732304
79,7,10,Ticks_ISO_T2_5,215,5,42,127,819765476
79,7,10,Ticks_ISO_T2_5,216,1,48,32,820235192
79,7,10,Ticks_ISO_T2_5,217,5,42,127,820266492
79,7,10,Ticks_ISO_T2_5,218,1,48,32,820752092
79,7,10,Ticks_ISO_T2_5,219,5,42,127,820766336
79,7,10,Ticks_ISO_T2_5,220,1,48,34,821238100
79,7,10,Ticks_ISO_T2_5,221,5,42,127,821265808
79,7,10,Ticks_ISO_T2_5,222,1,48,28,821751628
79,7,10,Ticks_ISO_T2_5,223,5,42,127,821765500
79,7,10,Ticks_ISO_T2_5,224,1,48,37,822227464
79,7,10,Ticks_ISO_T2_5,225,5,42,127,822266392
79,7,10,Ticks_ISO_T2_5,226,1,48,31,822745032
79,7,10,Ticks_ISO_T2_5,227,5,42,127,822766012
79,7,10,Ticks_ISO_T2_5,228,1,48,35,823237028
79,7,10,Ticks_ISO_T2_5,229,5,42,127,823265636
79,7,10,Ticks_ISO_T2_5,230,1,48,21,823705232
79,7,10,Ticks_ISO_T2_5,231,5,42,127,823766528
79,7,10,Ticks_ISO_T2_5,232,1,48,30,824265248
79,7,10,Ticks_ISO_T2_5,233,5,42,127,824266740
79,7,10,Ticks_ISO_T2_5,234,1,48,39,824757360
79,7,10,Ticks_ISO_T2_5,235,5,42,127,824765764
79,7,10,Ticks_ISO_T2_5,236,1,48,23,825254652
79,7,10,Ticks_ISO_T2_5,237,5,42,127,825265536
79,7,10,Ticks_ISO_T2_5,238,1,48,28,825743804
79,7,10,Ticks_ISO_T2_5,239,5,42,127,825766276
79,7,10,Ticks_ISO_T2_5,240,1,48,32,826245148
79,7,10,Ticks_ISO_T2_5,241,5,42,127,826266120
79,7,10,Ticks_ISO_T2_5,242,1,48,22,826740876
79,7,10,Ticks_ISO_T2_5,243,5,42,127,826765668
79,7,10,Ticks_ISO_T2_5,244,1,48,20,827266116
79,7,10,Ticks_ISO_T2_5,245,5,42,127,827267456
79,7,10,Ticks_ISO_T2_5,246,1,48,38,827738596
79,7,10,Ticks_ISO_T2_5,247,5,42,127,827766104
79,7,10,Ticks_ISO_T2_5,248,1,48,36,828238964
79,7,10,Ticks_ISO_T2_5,249,5,42,127,828265696
79,7,10,Ticks_ISO_T2_5,250,1,48,36,828729756
79,7,10,Ticks_ISO_T2_5,251,5,42,127,828765688
79,7,10,Ticks_ISO_T2_5,252,1,48,32,829233636
79,7,10,Ticks_ISO_T2_5,253,5,42,127,829266280
79,7,10,Ticks_ISO_T2_5,254,1,48,32,829708272
79,7,10,Ticks_ISO_T2_5,0,9999,9999,9999,764763200
79,7,10,Ticks_ISO_T2_5,1,9999,9999,9999,765263960
79,7,10,Ticks_ISO_T2_5,2,9999,9999,9999,765763656
79,7,10,Ticks_ISO_T2_5,3,9999,9999,9999,766263368
79,7,10,Ticks_ISO_T2_5,4,9999,9999,9999,766763068
79,7,10,Ticks_ISO_T2_5,5,9999,9999,9999,767263808
79,7,10,Ticks_ISO_T2_5,6,9999,9999,9999,767763576
79,7,10,Ticks_ISO_T2_5,7,9999,9999,9999,768263276
79,7,10,Ticks_ISO_T2_5,8,9999,9999,9999,768764016
79,7,10,Ticks_ISO_T2_5,9,9999,9999,9999,769263712
79,7,10,Ticks_ISO_T2_5,10,9999,9999,9999,769763400
79,7,10,Ticks_ISO_T2_5,11,9999,9999,9999,770263096
79,7,10,Ticks_ISO_T2_5,12,9999,9999,9999,770763844
79,7,10,Ticks_ISO_T2_5,13,9999,9999,9999,771263604
79,7,10,Ticks_ISO_T2_5,14,9999,9999,9999,771763308
79,7,10,Ticks_ISO_T2_5,15,9999,9999,9999,772264048
79,7,10,Ticks_ISO_T2_5,16,9999,9999,9999,772763736
79,7,10,Ticks_ISO_T2_5,17,9999,9999,9999,773263432
79,7,10,Ticks_ISO_T2_5,18,9999,9999,9999,773763128
79,7,10,Ticks_ISO_T2_5,19,9999,9999,9999,774263868
79,7,10,Ticks_ISO_T2_5,20,9999,9999,9999,774763612
79,7,10,Ticks_ISO_T2_5,21,9999,9999,9999,775263308
79,7,10,Ticks_ISO_T2_5,22,9999,9999,9999,775764048
79,7,10,Ticks_ISO_T2_5,23,9999,9999,9999,776263744
79,7,10,Ticks_ISO_T2_5,24,9999,9999,9999,776763512
79,7,10,Ticks_ISO_T2_5,25,9999,9999,9999,777263204
79,7,10,Ticks_ISO_T2_5,26,9999,9999,9999,777763948
79,7,10,Ticks_ISO_T2_5,27,9999,9999,9999,778263644
79,7,10,Ticks_ISO_T2_5,28,9999,9999,9999,778763336
79,7,10,Ticks_ISO_T2_5,29,9999,9999,9999,779264080
79,7,10,Ticks_ISO_T2_5,30,9999,9999,9999,779763772
79,7,10,Ticks_ISO_T2_5,31,9999,9999,9999,780263544
79,7,10,Ticks_ISO_T2_5,32,9999,9999,9999,780763240
79,7,10,Ticks_ISO_T2_5,33,9999,9999,9999,781263980
79,7,10,Ticks_ISO_T2_5,34,9999,9999,9999,781763680
79,7,10,Ticks_ISO_T2_5,35,9999,9999,9999,782263376
79,7,10,Ticks_ISO_T2_5,36,9999,9999,9999,782763108
79,7,10,Ticks_ISO_T2_5,37,9999,9999,9999,783263808
79,7,10,Ticks_ISO_T2_5,38,9999,9999,9999,783763576
79,7,10,Ticks_ISO_T2_5,39,9999,9999,9999,784263268
79,7,10,Ticks_ISO_T2_5,40,9999,9999,9999,784764016
79,7,10,Ticks_ISO_T2_5,41,9999,9999,9999,785263680
79,7,10,Ticks_ISO_T2_5,42,9999,9999,9999,785763376
79,7,10,Ticks_ISO_T2_5,43,9999,9999,9999,786263144
79,7,10,Ticks_ISO_T2_5,44,9999,9999,9999,786763888
79,7,10,Ticks_ISO_T2_5,45,9999,9999,9999,787263584
79,7,10,Ticks_ISO_T2_5,46,9999,9999,9999,787763284
79,7,10,Ticks_ISO_T2_5,47,9999,9999,9999,788264016
79,7,10,Ticks_ISO_T2_5,48,9999,9999,9999,788763712
79,7,10,Ticks_ISO_T2_5,49,9999,9999,9999,789263412
79,7,10,Ticks_ISO_T2_5,50,9999,9999,9999,789763176
79,7,10,Ticks_ISO_T2_5,51,9999,9999,9999,790263916
79,7,10,Ticks_ISO_T2_5,52,9999,9999,9999,790763612
79,7,10,Ticks_ISO_T2_5,53,9999,9999,9999,791263308
79,7,10,Ticks_ISO_T2_5,54,9999,9999,9999,791764048
79,7,10,Ticks_ISO_T2_5,55,9999,9999,9999,792263740
79,7,10,Ticks_ISO_T2_5,56,9999,9999,9999,792763512
79,7,10,Ticks_ISO_T2_5,57,9999,9999,9999,793263208
79,7,10,Ticks_ISO_T2_5,58,9999,9999,9999,793763956
79,7,10,Ticks_ISO_T2_5,59,9999,9999,9999,794263644
79,7,10,Ticks_ISO_T2_5,60,9999,9999,9999,794763336
79,7,10,Ticks_ISO_T2_5,61,9999,9999,9999,795264084
79,7,10,Ticks_ISO_T2_5,62,9999,9999,9999,795763828
79,7,10,Ticks_ISO_T2_5,63,9999,9999,9999,796263516
79,7,10,Ticks_ISO_T2_5,64,9999,9999,9999,796763216
79,7,10,Ticks_ISO_T2_5,65,9999,9999,9999,797263952
79,7,10,Ticks_ISO_T2_5,66,9999,9999,9999,797763656
79,7,10,Ticks_ISO_T2_5,67,9999,9999,9999,798263416
79,7,10,Ticks_ISO_T2_5,68,9999,9999,9999,798763116
79,7,10,Ticks_ISO_T2_5,69,9999,9999,9999,799263852
79,7,10,Ticks_ISO_T2_5,70,9999,9999,9999,799763548
79,7,10,Ticks_ISO_T2_5,71,9999,9999,9999,800263244
79,7,10,Ticks_ISO_T2_5,72,9999,9999,9999,800763984
79,7,10,Ticks_ISO_T2_5,73,9999,9999,9999,801263688
79,7,10,Ticks_ISO_T2_5,74,9999,9999,9999,801763384
79,7,10,Ticks_ISO_T2_5,75,9999,9999,9999,802263144
79,7,10,Ticks_ISO_T2_5,76,9999,9999,9999,802763892
79,7,10,Ticks_ISO_T2_5,77,9999,9999,9999,803263588
79,7,10,Ticks_ISO_T2_5,78,9999,9999,9999,803763280
79,7,10,Ticks_ISO_T2_5,79,9999,9999,9999,804264016
79,7,10,Ticks_ISO_T2_5,80,9999,9999,9999,804763712
79,7,10,Ticks_ISO_T2_5,81,9999,9999,9999,805263480
79,7,10,Ticks_ISO_T2_5,82,9999,9999,9999,805763176
79,7,10,Ticks_ISO_T2_5,83,9999,9999,9999,806263916
79,7,10,Ticks_ISO_T2_5,84,9999,9999,9999,806763584
79,7,10,Ticks_ISO_T2_5,85,9999,9999,9999,807263280
79,7,10,Ticks_ISO_T2_5,86,9999,9999,9999,807764020
79,7,10,Ticks_ISO_T2_5,87,9999,9999,9999,808263792
79,7,10,Ticks_ISO_T2_5,88,9999,9999,9999,808763492
79,7,10,Ticks_ISO_T2_5,89,9999,9999,9999,809263180
79,7,10,Ticks_ISO_T2_5,90,9999,9999,9999,809763928
79,7,10,Ticks_ISO_T2_5,91,9999,9999,9999,810263624
79,7,10,Ticks_ISO_T2_5,92,9999,9999,9999,810763320
79,7,10,Ticks_ISO_T2_5,93,9999,9999,9999,811264056
79,7,10,Ticks_ISO_T2_5,94,9999,9999,9999,811763824
79,7,10,Ticks_ISO_T2_5,95,9999,9999,9999,812263516
79,7,10,Ticks_ISO_T2_5,96,9999,9999,9999,812763220
79,7,10,Ticks_ISO_T2_5,97,9999,9999,9999,813263956
79,7,10,Ticks_ISO_T2_5,98,9999,9999,9999,813763652
79,7,10,Ticks_ISO_T2_5,99,9999,9999,9999,814263344
79,7,10,Ticks_ISO_T2_5,100,9999,9999,9999,814763116
79,7,10,Ticks_ISO_T2_5,101,9999,9999,9999,815263856
79,7,10,Ticks_ISO_T2_5,102,9999,9999,9999,815763548
79,7,10,Ticks_ISO_T2_5,103,9999,9999,9999,816263244
79,7,10,Ticks_ISO_T2_5,104,9999,9999,9999,816763988
79,7,10,Ticks_ISO_T2_5,105,9999,9999,9999,817263664
79,7,10,Ticks_ISO_T2_5,106,9999,9999,9999,817763380
79,7,10,Ticks_ISO_T2_5,107,9999,9999,9999,818263100
79,7,10,Ticks_ISO_T2_5,108,9999,9999,9999,818763860
79,7,10,Ticks_ISO_T2_5,109,9999,9999,9999,819263580
79,7,10,Ticks_ISO_T2_5,110,9999,9999,9999,819763264
79,7,10,Ticks_ISO_T2_5,111,9999,9999,9999,820264056
79,7,10,Ticks_ISO_T2_5,112,9999,9999,9999,820763752
79,7,10,Ticks_ISO_T2_5,113,9999,9999,9999,821263448
79,7,10,Ticks_ISO_T2_5,114,9999,9999,9999,821763140
79,7,10,Ticks_ISO_T2_5,115,9999,9999,9999,822263884
79,7,10,Ticks_ISO_T2_5,116,9999,9999,9999,822763576
79,7,10,Ticks_ISO_T2_5,117,9999,9999,9999,823263348
79,7,10,Ticks_ISO_T2_5,118,9999,9999,9999,823764088
79,7,10,Ticks_ISO_T2_5,119,9999,9999,9999,824263792
79,7,10,Ticks_ISO_T2_5,120,9999,9999,9999,824763480
79,7,10,Ticks_ISO_T2_5,121,9999,9999,9999,825263176
79,7,10,Ticks_ISO_T2_5,122,9999,9999,9999,825763916
79,7,10,Ticks_ISO_T2_5,123,9999,9999,9999,826263612
79,7,10,Ticks_ISO_T2_5,124,9999,9999,9999,826763380
79,7,10,Ticks_ISO_T2_5,125,9999,9999,9999,827264056
79,7,10,Ticks_ISO_T2_5,126,9999,9999,9999,827763816
79,7,10,Ticks_ISO_T2_5,127,9999,9999,9999,828263484
79,7,10,Ticks_ISO_T2_5,128,9999,9999,9999,828763256
79,7,10,Ticks_ISO_T2_5,129,9999,9999,9999,829263920
79,8,9,Ticks_ISO_T2_8,0,5,42,127,841095004
79,8,9,Ticks_ISO_T2_8,1,5,42,127,841895212
79,8,9,Ticks_ISO_T2_8,2,5,42,127,842694968
79,8,9,Ticks_ISO_T2_8,3,1,48,26,842718056
79,8,9,Ticks_ISO_T2_8,4,5,42,127,843494700
79,8,9,Ticks_ISO_T2_8,5,1,48,30,843532148
79,8,9,Ticks_ISO_T2_8,6,5,42,127,844294436
79,8,9,Ticks_ISO_T2_8,7,1,48,31,844295328
79,8,9,Ticks_ISO_T2_8,8,5,42,127,845095288
79,8,9,Ticks_ISO_T2_8,9,1,48,29,845111048
79,8,9,Ticks_ISO_T2_8,10,1,48,28,845860052
79,8,9,Ticks_ISO_T2_8,11,5,42,127,845895088
79,8,9,Ticks_ISO_T2_8,12,1,48,29,846685888
79,8,9,Ticks_ISO_T2_8,13,5,42,127,846694824
79,8,9,Ticks_ISO_T2_8,14,1,48,24,847479140
79,8,9,Ticks_ISO_T2_8,15,5,42,127,847494432
79,8,9,Ticks_ISO_T2_8,16,1,48,26,848262716
79,8,9,Ticks_ISO_T2_8,17,5,42,127,848295364
79,8,9,Ticks_ISO_T2_8,18,1,48,28,849093748
79,8,9,Ticks_ISO_T2_8,19,5,42,127,849095392
79,8,9,Ticks_ISO_T2_8,20,1,48,29,849887916
79,8,9,Ticks_ISO_T2_8,21,5,42,127,849894756
79,8,9,Ticks_ISO_T2_8,22,5,42,127,850694644
79,8,9,Ticks_ISO_T2_8,23,1,48,33,850704044
79,8,9,Ticks_ISO_T2_8,24,1,48,30,851488724
79,8,9,Ticks_ISO_T2_8,25,5,42,127,851495192
79,8,9,Ticks_ISO_T2_8,26,1,48,29,852281508
79,8,9,Ticks_ISO_T2_8,27,5,42,127,852294928
79,8,9,Ticks_ISO_T2_8,28,5,42,127,853094744
79,8,9,Ticks_ISO_T2_8,29,1,48,31,853096080
79,8,9,Ticks_ISO_T2_8,30,1,48,26,853876656
79,8,9,Ticks_ISO_T2_8,31,5,42,127,853894644
79,8,9,Ticks_ISO_T2_8,32,5,42,127,854695132
79,8,9,Ticks_ISO_T2_8,33,1,48,28,854697148
79,8,9,Ticks_ISO_T2_8,34,1,48,28,855465428
79,8,9,Ticks_ISO_T2_8,35,5,42,127,855494936
79,8,9,Ticks_ISO_T2_8,36,1,48,32,856284688
79,8,9,Ticks_ISO_T2_8,37,5,42,127,856294744
79,8,9,Ticks_ISO_T2_8,38,1,48,30,857084948
79,8,9,Ticks_ISO_T2_8,39,5,42,127,857094552
79,8,9,Ticks_ISO_T2_8,40,1,48,32,857878624
79,8,9,Ticks_ISO_T2_8,41,5,42,127,857895556
79,8,9,Ticks_ISO_T2_8,42,5,42,127,858694924
79,8,9,Ticks_ISO_T2_8,43,1,48,32,858714944
79,8,9,Ticks_ISO_T2_8,44,1,48,33,859447496
79,8,9,Ticks_ISO_T2_8,45,5,42,127,859494652
79,8,9,Ticks_ISO_T2_8,46,1,48,29,860268920
79,8,9,Ticks_ISO_T2_8,47,5,42,127,860294560
79,8,9,Ticks_ISO_T2_8,48,5,42,127,861095344
79,8,9,Ticks_ISO_T2_8,49,1,48,32,861097940
79,8,9,Ticks_ISO_T2_8,50,1,48,30,861880224
79,8,9,Ticks_ISO_T2_8,51,5,42,127,861895144
79,8,9,Ticks_ISO_T2_8,52,1,48,30,862641292
79,8,9,Ticks_ISO_T2_8,53,5,42,127,862694732
79,8,9,Ticks_ISO_T2_8,54,5,42,127,863494472
79,8,9,Ticks_ISO_T2_8,55,1,48,37,863509108
79,8,9,Ticks_ISO_T2_8,56,5,42,127,864295400
79,8,9,Ticks_ISO_T2_8,57,1,48,37,864315724
79,8,9,Ticks_ISO_T2_8,58,1,48,36,865084320
79,8,9,Ticks_ISO_T2_8,59,5,42,127,865095052
79,8,9,Ticks_ISO_T2_8,60,1,48,33,865867524
79,8,9,Ticks_ISO_T2_8,61,5,42,127,865894784
79,8,9,Ticks_ISO_T2_8,62,5,42,127,866694476
79,8,9,Ticks_ISO_T2_8,63,1,48,37,866712400
79,8,9,Ticks_ISO_T2_8,64,1,48,36,867483468
79,8,9,Ticks_ISO_T2_8,65,5,42,127,867495320
79,8,9,Ticks_ISO_T2_8,66,1,48,32,868267204
79,8,9,Ticks_ISO_T2_8,67,5,42,127,868295056
79,8,9,Ticks_ISO_T2_8,68,5,42,127,869094648
79,8,9,Ticks_ISO_T2_8,69,5,42,127,869894628
79,8,9,Ticks_ISO_T2_8,70,1,48,23,870111620
79,8,9,Ticks_ISO_T2_8,71,5,42,127,870695184
79,8,9,Ticks_ISO_T2_8,72,1,48,32,871082364
79,8,9,Ticks_ISO_T2_8,73,5,42,127,871495144
79,8,9,Ticks_ISO_T2_8,74,1,48,25,871726944
79,8,9,Ticks_ISO_T2_8,75,5,42,127,872294804
79,8,9,Ticks_ISO_T2_8,76,1,48,20,872499676
79,8,9,Ticks_ISO_T2_8,77,5,42,127,873094412
79,8,9,Ticks_ISO_T2_8,78,5,42,127,873895140
79,8,9,Ticks_ISO_T2_8,79,1,48,41,874667552
79,8,9,Ticks_ISO_T2_8,80,5,42,127,874694960
79,8,9,Ticks_ISO_T2_8,81,1,48,31,875476708
79,8,9,Ticks_ISO_T2_8,82,5,42,127,875494696
79,8,9,Ticks_ISO_T2_8,83,1,48,35,876268596
79,8,9,Ticks_ISO_T2_8,84,5,42,127,876294504
79,8,9,Ticks_ISO_T2_8,85,1,48,38,877041096
79,8,9,Ticks_ISO_T2_8,86,5,42,127,877095208
79,8,9,Ticks_ISO_T2_8,87,5,42,127,877895024
79,8,9,Ticks_ISO_T2_8,88,1,48,34,877913028
79,8,9,Ticks_ISO_T2_8,89,1,48,32,878673028
79,8,9,Ticks_ISO_T2_8,90,5,42,127,878694752
79,8,9,Ticks_ISO_T2_8,91,5,42,127,879494516
79,8,9,Ticks_ISO_T2_8,92,1,48,31,879507736
79,8,9,Ticks_ISO_T2_8,93,1,48,34,880294016
79,8,9,Ticks_ISO_T2_8,94,5,42,127,880295512
79,8,9,Ticks_ISO_T2_8,95,5,42,127,881095028
79,8,9,Ticks_ISO_T2_8,96,1,48,37,881118272
79,8,9,Ticks_ISO_T2_8,97,1,48,35,881890232
79,8,9,Ticks_ISO_T2_8,98,5,42,127,881894980
79,8,9,Ticks_ISO_T2_8,99,5,42,127,882694424
79,8,9,Ticks_ISO_T2_8,100,1,48,34,882713848
79,8,9,Ticks_ISO_T2_8,101,1,48,32,883482824
79,8,9,Ticks_ISO_T2_8,102,5,42,127,883495272
79,8,9,Ticks_ISO_T2_8,103,1,48,33,884252788
79,8,9,Ticks_ISO_T2_8,104,5,42,127,884295008
79,8,9,Ticks_ISO_T2_8,105,5,42,127,885094896
79,8,9,Ticks_ISO_T2_8,106,1,48,24,885414236
79,8,9,Ticks_ISO_T2_8,107,1,48,31,885836096
79,8,9,Ticks_ISO_T2_8,108,5,42,127,885894500
79,8,9,Ticks_ISO_T2_8,109,1,48,26,886644984
79,8,9,Ticks_ISO_T2_8,110,5,42,127,886695352
79,8,9,Ticks_ISO_T2_8,111,1,48,32,887469992
79,8,9,Ticks_ISO_T2_8,112,5,42,127,887495084
79,8,9,Ticks_ISO_T2_8,113,1,48,34,888261876
79,8,9,Ticks_ISO_T2_8,114,5,42,127,888294748
79,8,9,Ticks_ISO_T2_8,115,5,42,127,889094560
79,8,9,Ticks_ISO_T2_8,116,1,48,34,889106056
79,8,9,Ticks_ISO_T2_8,117,1,48,35,889870396
79,8,9,Ticks_ISO_T2_8,118,5,42,127,889895184
79,8,9,Ticks_ISO_T2_8,119,1,48,36,890693256
79,8,9,Ticks_ISO_T2_8,120,5,42,127,890694916
79,8,9,Ticks_ISO_T2_8,121,1,48,29,891463500
79,8,9,Ticks_ISO_T2_8,122,5,42,127,891494948
79,8,9,Ticks_ISO_T2_8,123,1,48,19,891530544
79,8,9,Ticks_ISO_T2_8,124,1,48,29,892272740
79,8,9,Ticks_ISO_T2_8,125,5,42,127,892294464
79,8,9,Ticks_ISO_T2_8,126,1,48,29,893014328
79,8,9,Ticks_ISO_T2_8,127,5,42,127,893095316
79,8,9,Ticks_ISO_T2_8,128,5,42,127,893895056
79,8,9,Ticks_ISO_T2_8,129,1,48,38,893899824
79,8,9,Ticks_ISO_T2_8,130,1,48,32,894660940
79,8,9,Ticks_ISO_T2_8,131,5,42,127,894694856
79,8,9,Ticks_ISO_T2_8,132,5,42,127,895494672
79,8,9,Ticks_ISO_T2_8,133,1,48,34,895506696
79,8,9,Ticks_ISO_T2_8,134,1,48,39,896251280
79,8,9,Ticks_ISO_T2_8,135,5,42,127,896295148
79,8,9,Ticks_ISO_T2_8,136,5,42,127,897094960
79,8,9,Ticks_ISO_T2_8,137,1,48,29,897155920
79,8,9,Ticks_ISO_T2_8,138,1,48,36,897887700
79,8,9,Ticks_ISO_T2_8,139,5,42,127,897894692
79,8,9,Ticks_ISO_T2_8,140,1,48,32,898678332
79,8,9,Ticks_ISO_T2_8,141,5,42,127,898694744
79,8,9,Ticks_ISO_T2_8,142,1,48,32,899467524
79,8,9,Ticks_ISO_T2_8,143,5,42,127,899495376
79,8,9,Ticks_ISO_T2_8,144,5,42,127,900295116
79,8,9,Ticks_ISO_T2_8,145,1,48,37,900298684
79,8,9,Ticks_ISO_T2_8,146,1,48,34,901072668
79,8,9,Ticks_ISO_T2_8,147,5,42,127,901094696
79,8,9,Ticks_ISO_T2_8,148,1,48,33,901846528
79,8,9,Ticks_ISO_T2_8,149,5,42,127,901894728
79,8,9,Ticks_ISO_T2_8,150,1,48,35,902664512
79,8,9,Ticks_ISO_T2_8,151,5,42,127,902695208
79,8,9,Ticks_ISO_T2_8,152,5,42,127,903494952
79,8,9,Ticks_ISO_T2_8,153,1,48,38,903514156
79,8,9,Ticks_ISO_T2_8,154,5,42,127,904294684
79,8,9,Ticks_ISO_T2_8,155,1,48,39,904296700
79,8,9,Ticks_ISO_T2_8,156,5,42,127,905094740
79,8,9,Ticks_ISO_T2_8,157,1,48,32,905369252
79,8,9,Ticks_ISO_T2_8,158,1,48,40,905823128
79,8,9,Ticks_ISO_T2_8,159,5,42,127,905895364
79,8,9,Ticks_ISO_T2_8,160,1,48,19,905915372
79,8,9,Ticks_ISO_T2_8,161,1,48,40,906649268
79,8,9,Ticks_ISO_T2_8,162,5,42,127,906694928
79,8,9,Ticks_ISO_T2_8,163,1,48,35,907466204
79,8,9,Ticks_ISO_T2_8,164,5,42,127,907494660
79,8,9,Ticks_ISO_T2_8,165,5,42,127,908294476
79,8,9,Ticks_ISO_T2_8,166,1,48,29,908325644
79,8,9,Ticks_ISO_T2_8,167,1,48,41,909073748
79,8,9,Ticks_ISO_T2_8,168,5,42,127,909095324
79,8,9,Ticks_ISO_T2_8,169,1,48,39,909849248
79,8,9,Ticks_ISO_T2_8,170,5,42,127,909894908
79,8,9,Ticks_ISO_T2_8,171,5,42,127,910694868
79,8,9,Ticks_ISO_T2_8,172,1,48,40,910721872
79,8,9,Ticks_ISO_T2_8,173,5,42,127,911494628
79,8,9,Ticks_ISO_T2_8,174,1,48,44,911514728
79,8,9,Ticks_ISO_T2_8,175,1,48,42,912231916
79,8,9,Ticks_ISO_T2_8,176,5,42,127,912295252
79,8,9,Ticks_ISO_T2_8,177,5,42,127,913094992
79,8,9,Ticks_ISO_T2_8,178,1,48,29,913204172
79,8,9,Ticks_ISO_T2_8,179,1,48,39,913894728
79,8,9,Ticks_ISO_T2_8,180,5,42,127,913896212
79,8,9,Ticks_ISO_T2_8,181,5,42,127,914694388
79,8,9,Ticks_ISO_T2_8,182,1,48,20,914783452
79,8,9,Ticks_ISO_T2_8,183,5,42,127,915495392
79,8,9,Ticks_ISO_T2_8,184,1,48,26,915529256
79,8,9,Ticks_ISO_T2_8,185,1,48,37,916282524
79,8,9,Ticks_ISO_T2_8,186,5,42,127,916295120
79,8,9,Ticks_ISO_T2_8,187,1,48,18,916372900
79,8,9,Ticks_ISO_T2_8,188,1,48,32,917067124
79,8,9,Ticks_ISO_T2_8,189,5,42,127,917094756
79,8,9,Ticks_ISO_T2_8,190,5,42,127,917894520
79,8,9,Ticks_ISO_T2_8,191,1,48,37,917902428
79,8,9,Ticks_ISO_T2_8,192,1,48,40,918659660
79,8,9,Ticks_ISO_T2_8,193,5,42,127,918695368
79,8,9,Ticks_ISO_T2_8,194,5,42,127,919495184
79,8,9,Ticks_ISO_T2_8,195,1,48,40,919506160
79,8,9,Ticks_ISO_T2_8,196,1,48,38,920246712
79,8,9,Ticks_ISO_T2_8,197,5,42,127,920294764
79,8,9,Ticks_ISO_T2_8,198,5,42,127,921094504
79,8,9,Ticks_ISO_T2_8,199,1,48,34,921143476
79,8,9,Ticks_ISO_T2_8,200,5,42,127,921895284
79,8,9,Ticks_ISO_T2_8,201,1,48,42,921897876
79,8,9,Ticks_ISO_T2_8,202,5,42,127,922695312
79,8,9,Ticks_ISO_T2_8,203,1,48,38,922730748
79,8,9,Ticks_ISO_T2_8,204,1,48,39,923452748
79,8,9,Ticks_ISO_T2_8,205,5,42,127,923494892
79,8,9,Ticks_ISO_T2_8,206,5,42,127,924294436
79,8,9,Ticks_ISO_T2_8,207,1,48,40,924340488
79,8,9,Ticks_ISO_T2_8,208,1,48,41,925079616
79,8,9,Ticks_ISO_T2_8,209,5,42,127,925095204
79,8,9,Ticks_ISO_T2_8,210,1,48,39,925867604
79,8,9,Ticks_ISO_T2_8,211,5,42,127,925895236
79,8,9,Ticks_ISO_T2_8,212,5,42,127,926694976
79,8,9,Ticks_ISO_T2_8,213,1,48,41,926709240
79,8,9,Ticks_ISO_T2_8,214,1,48,36,927489660
79,8,9,Ticks_ISO_T2_8,215,5,42,127,927494480
79,8,9,Ticks_ISO_T2_8,216,1,48,41,928294588
79,8,9,Ticks_ISO_T2_8,217,5,42,127,928296084
79,8,9,Ticks_ISO_T2_8,218,5,42,127,929095000
79,8,9,Ticks_ISO_T2_8,219,1,48,29,929376992
79,8,9,Ticks_ISO_T2_8,220,1,48,40,929872180
79,8,9,Ticks_ISO_T2_8,221,5,42,127,929894952
79,8,9,Ticks_ISO_T2_8,222,5,42,127,930694496
79,8,9,Ticks_ISO_T2_8,223,1,48,35,930707492
79,8,9,Ticks_ISO_T2_8,224,1,48,40,931493456
79,8,9,Ticks_ISO_T2_8,225,5,42,127,931495192
79,8,9,Ticks_ISO_T2_8,226,5,42,127,932294932
79,8,9,Ticks_ISO_T2_8,227,1,48,31,932329092
79,8,9,Ticks_ISO_T2_8,228,1,48,39,933082436
79,8,9,Ticks_ISO_T2_8,229,5,42,127,933094956
79,8,9,Ticks_ISO_T2_8,230,1,48,38,933854420
79,8,9,Ticks_ISO_T2_8,231,5,42,127,933894540
79,8,9,Ticks_ISO_T2_8,232,1,48,40,934650408
79,8,9,Ticks_ISO_T2_8,233,5,42,127,934695244
79,8,9,Ticks_ISO_T2_8,234,1,48,39,935478864
79,8,9,Ticks_ISO_T2_8,235,5,42,127,935495052
79,8,9,Ticks_ISO_T2_8,236,5,42,127,936294944
79,8,9,Ticks_ISO_T2_8,237,1,48,40,936323744
79,8,9,Ticks_ISO_T2_8,238,1,48,41,937074692
79,8,9,Ticks_ISO_T2_8,0,9999,9999,9999,841092196
79,8,9,Ticks_ISO_T2_8,1,9999,9999,9999,841892924
79,8,9,Ticks_ISO_T2_8,2,9999,9999,9999,842692680
79,8,9,Ticks_ISO_T2_8,3,9999,9999,9999,843492412
79,8,9,Ticks_ISO_T2_8,4,9999,9999,9999,844292148
79,8,9,Ticks_ISO_T2_8,5,9999,9999,9999,845092924
79,8,9,Ticks_ISO_T2_8,6,9999,9999,9999,845892728
79,8,9,Ticks_ISO_T2_8,7,9999,9999,9999,846692460
79,8,9,Ticks_ISO_T2_8,8,9999,9999,9999,847492144
79,8,9,Ticks_ISO_T2_8,9,9999,9999,9999,848292928
79,8,9,Ticks_ISO_T2_8,10,9999,9999,9999,849092664
79,8,9,Ticks_ISO_T2_8,11,9999,9999,9999,849892468
79,8,9,Ticks_ISO_T2_8,12,9999,9999,9999,850692208
79,8,9,Ticks_ISO_T2_8,13,9999,9999,9999,851492980
79,8,9,Ticks_ISO_T2_8,14,9999,9999,9999,852292716
79,8,9,Ticks_ISO_T2_8,15,9999,9999,9999,853092456
79,8,9,Ticks_ISO_T2_8,16,9999,9999,9999,853892208
79,8,9,Ticks_ISO_T2_8,17,9999,9999,9999,854692916
79,8,9,Ticks_ISO_T2_8,18,9999,9999,9999,855492720
79,8,9,Ticks_ISO_T2_8,19,9999,9999,9999,856292456
79,8,9,Ticks_ISO_T2_8,20,9999,9999,9999,857092192
79,8,9,Ticks_ISO_T2_8,21,9999,9999,9999,857892972
79,8,9,Ticks_ISO_T2_8,22,9999,9999,9999,858692708
79,8,9,Ticks_ISO_T2_8,23,9999,9999,9999,859492436
79,8,9,Ticks_ISO_T2_8,24,9999,9999,9999,860292196
79,8,9,Ticks_ISO_T2_8,25,9999,9999,9999,861092980
79,8,9,Ticks_ISO_T2_8,26,9999,9999,9999,861892708
79,8,9,Ticks_ISO_T2_8,27,9999,9999,9999,862692444
79,8,9,Ticks_ISO_T2_8,28,9999,9999,9999,863492184
79,8,9,Ticks_ISO_T2_8,29,9999,9999,9999,864292964
79,8,9,Ticks_ISO_T2_8,30,9999,9999,9999,865092688
79,8,9,Ticks_ISO_T2_8,31,9999,9999,9999,865892424
79,8,9,Ticks_ISO_T2_8,32,9999,9999,9999,866692188
79,8,9,Ticks_ISO_T2_8,33,9999,9999,9999,867492960
79,8,9,Ticks_ISO_T2_8,34,9999,9999,9999,868292696
79,8,9,Ticks_ISO_T2_8,35,9999,9999,9999,869092436
79,8,9,Ticks_ISO_T2_8,36,9999,9999,9999,869892192
79,8,9,Ticks_ISO_T2_8,37,9999,9999,9999,870692968
79,8,9,Ticks_ISO_T2_8,38,9999,9999,9999,871492704
79,8,9,Ticks_ISO_T2_8,39,9999,9999,9999,872292440
79,8,9,Ticks_ISO_T2_8,40,9999,9999,9999,873092196
79,8,9,Ticks_ISO_T2_8,41,9999,9999,9999,873892924
79,8,9,Ticks_ISO_T2_8,42,9999,9999,9999,874692672
79,8,9,Ticks_ISO_T2_8,43,9999,9999,9999,875492408
79,8,9,Ticks_ISO_T2_8,44,9999,9999,9999,876292216
79,8,9,Ticks_ISO_T2_8,45,9999,9999,9999,877092920
79,8,9,Ticks_ISO_T2_8,46,9999,9999,9999,877892660
79,8,9,Ticks_ISO_T2_8,47,9999,9999,9999,878692464
79,8,9,Ticks_ISO_T2_8,48,9999,9999,9999,879492152
79,8,9,Ticks_ISO_T2_8,49,9999,9999,9999,880292932
79,8,9,Ticks_ISO_T2_8,50,9999,9999,9999,881092668
79,8,9,Ticks_ISO_T2_8,51,9999,9999,9999,881892468
79,8,9,Ticks_ISO_T2_8,52,9999,9999,9999,882692208
79,8,9,Ticks_ISO_T2_8,53,9999,9999,9999,883492984
79,8,9,Ticks_ISO_T2_8,54,9999,9999,9999,884292720
79,8,9,Ticks_ISO_T2_8,55,9999,9999,9999,885092456
79,8,9,Ticks_ISO_T2_8,56,9999,9999,9999,885892208
79,8,9,Ticks_ISO_T2_8,57,9999,9999,9999,886692916
79,8,9,Ticks_ISO_T2_8,58,9999,9999,9999,887492724
79,8,9,Ticks_ISO_T2_8,59,9999,9999,9999,888292460
79,8,9,Ticks_ISO_T2_8,60,9999,9999,9999,889092196
79,8,9,Ticks_ISO_T2_8,61,9999,9999,9999,889892972
79,8,9,Ticks_ISO_T2_8,62,9999,9999,9999,890692728
79,8,9,Ticks_ISO_T2_8,63,9999,9999,9999,891492440
79,8,9,Ticks_ISO_T2_8,64,9999,9999,9999,892292176
79,8,9,Ticks_ISO_T2_8,65,9999,9999,9999,893092952
79,8,9,Ticks_ISO_T2_8,66,9999,9999,9999,893892696
79,8,9,Ticks_ISO_T2_8,67,9999,9999,9999,894692420
79,8,9,Ticks_ISO_T2_8,68,9999,9999,9999,895492160
79,8,9,Ticks_ISO_T2_8,69,9999,9999,9999,896292936
79,8,9,Ticks_ISO_T2_8,70,9999,9999,9999,897092672
79,8,9,Ticks_ISO_T2_8,71,9999,9999,9999,897892404
79,8,9,Ticks_ISO_T2_8,72,9999,9999,9999,898692160
79,8,9,Ticks_ISO_T2_8,73,9999,9999,9999,899492940
79,8,9,Ticks_ISO_T2_8,74,9999,9999,9999,900292680
79,8,9,Ticks_ISO_T2_8,75,9999,9999,9999,901092408
79,8,9,Ticks_ISO_T2_8,76,9999,9999,9999,901892144
79,8,9,Ticks_ISO_T2_8,77,9999,9999,9999,902692920
79,8,9,Ticks_ISO_T2_8,78,9999,9999,9999,903492664
79,8,9,Ticks_ISO_T2_8,79,9999,9999,9999,904292472
79,8,9,Ticks_ISO_T2_8,80,9999,9999,9999,905092156
79,8,9,Ticks_ISO_T2_8,81,9999,9999,9999,905892928
79,8,9,Ticks_ISO_T2_8,82,9999,9999,9999,906692716
79,8,9,Ticks_ISO_T2_8,83,9999,9999,9999,907492448
79,8,9,Ticks_ISO_T2_8,84,9999,9999,9999,908292188
79,8,9,Ticks_ISO_T2_8,85,9999,9999,9999,909092960
79,8,9,Ticks_ISO_T2_8,86,9999,9999,9999,909892696
79,8,9,Ticks_ISO_T2_8,87,9999,9999,9999,910692432
79,8,9,Ticks_ISO_T2_8,88,9999,9999,9999,911492192
79,8,9,Ticks_ISO_T2_8,89,9999,9999,9999,912292964
79,8,9,Ticks_ISO_T2_8,90,9999,9999,9999,913092704
79,8,9,Ticks_ISO_T2_8,91,9999,9999,9999,913892440
79,8,9,Ticks_ISO_T2_8,92,9999,9999,9999,914692172
79,8,9,Ticks_ISO_T2_8,93,9999,9999,9999,915492956
79,8,9,Ticks_ISO_T2_8,94,9999,9999,9999,916292684
79,8,9,Ticks_ISO_T2_8,95,9999,9999,9999,917092468
79,8,9,Ticks_ISO_T2_8,96,9999,9999,9999,917892160
79,8,9,Ticks_ISO_T2_8,97,9999,9999,9999,918692932
79,8,9,Ticks_ISO_T2_8,98,9999,9999,9999,919492676
79,8,9,Ticks_ISO_T2_8,99,9999,9999,9999,920292404
79,8,9,Ticks_ISO_T2_8,100,9999,9999,9999,921092216
79,8,9,Ticks_ISO_T2_8,101,9999,9999,9999,921892920
79,8,9,Ticks_ISO_T2_8,102,9999,9999,9999,922692728
79,8,9,Ticks_ISO_T2_8,103,9999,9999,9999,923492456
79,8,9,Ticks_ISO_T2_8,104,9999,9999,9999,924292144
79,8,9,Ticks_ISO_T2_8,105,9999,9999,9999,925092920
79,8,9,Ticks_ISO_T2_8,106,9999,9999,9999,925892724
79,8,9,Ticks_ISO_T2_8,107,9999,9999,9999,926692464
79,8,9,Ticks_ISO_T2_8,108,9999,9999,9999,927492192
79,8,9,Ticks_ISO_T2_8,109,9999,9999,9999,928292980
79,8,9,Ticks_ISO_T2_8,110,9999,9999,9999,929092712
79,8,9,Ticks_ISO_T2_8,111,9999,9999,9999,929892440
79,8,9,Ticks_ISO_T2_8,112,9999,9999,9999,930692204
79,8,9,Ticks_ISO_T2_8,113,9999,9999,9999,931492928
79,8,9,Ticks_ISO_T2_8,114,9999,9999,9999,932292720
79,8,9,Ticks_ISO_T2_8,115,9999,9999,9999,933092444
79,8,9,Ticks_ISO_T2_8,116,9999,9999,9999,933892180
79,8,9,Ticks_ISO_T2_8,117,9999,9999,9999,934692956
79,8,9,Ticks_ISO_T2_8,118,9999,9999,9999,935492692
79,8,9,Ticks_ISO_T2_8,119,9999,9999,9999,936292432
79,9,21,Ticks_Linear_5,0,5,42,127,946439480
79,9,21,Ticks_Linear_5,1,5,42,127,946919732
79,9,21,Ticks_Linear_5,2,5,42,127,947400056
79,9,21,Ticks_Linear_5,3,5,42,127,947880528
79,9,21,Ticks_Linear_5,4,1,48,21,947898256
79,9,21,Ticks_Linear_5,5,5,42,127,948359640
79,9,21,Ticks_Linear_5,6,1,48,30,948406336
79,9,21,Ticks_Linear_5,7,5,42,127,948850052
79,9,21,Ticks_Linear_5,8,1,48,29,948852064
79,9,21,Ticks_Linear_5,9,5,42,127,949339540
79,9,21,Ticks_Linear_5,10,1,48,35,949355456
79,9,21,Ticks_Linear_5,11,1,48,32,949825404
79,9,21,Ticks_Linear_5,12,5,42,127,949829948
79,9,21,Ticks_Linear_5,13,5,42,127,950319468
79,9,21,Ticks_Linear_5,14,1,48,37,950332772
79,9,21,Ticks_Linear_5,15,1,48,35,950795000
79,9,21,Ticks_Linear_5,16,5,42,127,950809952
79,9,21,Ticks_Linear_5,17,1,48,34,951278532
79,9,21,Ticks_Linear_5,18,5,42,127,951309648
79,9,21,Ticks_Linear_5,19,1,48,31,951794400
79,9,21,Ticks_Linear_5,20,5,42,127,951810396
79,9,21,Ticks_Linear_5,21,1,48,30,952307204
79,9,21,Ticks_Linear_5,22,5,42,127,952320284
79,9,21,Ticks_Linear_5,23,1,48,33,952801296
79,9,21,Ticks_Linear_5,24,5,42,127,952820056
79,9,21,Ticks_Linear_5,25,1,48,32,953287060
79,9,21,Ticks_Linear_5,26,5,42,127,953319832
79,9,21,Ticks_Linear_5,27,1,48,32,953795440
79,9,21,Ticks_Linear_5,28,5,42,127,953829716
79,9,21,Ticks_Linear_5,29,1,48,33,954327508
79,9,21,Ticks_Linear_5,30,5,42,127,954339600
79,9,21,Ticks_Linear_5,31,1,48,35,954820764
79,9,21,Ticks_Linear_5,32,5,42,127,954849632
79,9,21,Ticks_Linear_5,33,1,48,32,955335056
79,9,21,Ticks_Linear_5,34,5,42,127,955359592
79,9,21,Ticks_Linear_5,35,1,48,34,955849216
79,9,21,Ticks_Linear_5,36,5,42,127,955869624
79,9,21,Ticks_Linear_5,37,1,48,27,956331688
79,9,21,Ticks_Linear_5,38,5,42,127,956389692
79,9,21,Ticks_Linear_5,39,1,48,36,956872272
79,9,21,Ticks_Linear_5,40,5,42,127,956910132
79,9,21,Ticks_Linear_5,41,1,48,43,957373096
79,9,21,Ticks_Linear_5,42,5,42,127,957430280
79,9,21,Ticks_Linear_5,43,1,48,36,957929868
79,9,21,Ticks_Linear_5,44,5,42,127,957950272
79,9,21,Ticks_Linear_5,45,1,48,39,958447768
79,9,21,Ticks_Linear_5,46,5,42,127,958469372
79,9,21,Ticks_Linear_5,47,1,48,37,958935920
79,9,21,Ticks_Linear_5,48,5,42,127,959000072
79,9,21,Ticks_Linear_5,49,1,48,38,959505644
79,9,21,Ticks_Linear_5,50,5,42,127,959530476
79,9,21,Ticks_Linear_5,51,1,48,43,960004940
79,9,21,Ticks_Linear_5,52,5,42,127,960059732
79,9,21,Ticks_Linear_5,53,5,42,127,960590364
79,9,21,Ticks_Linear_5,54,1,48,40,960610260
79,9,21,Ticks_Linear_5,55,1,48,36,961104316
79,9,21,Ticks_Linear_5,56,5,42,127,961119564
79,9,21,Ticks_Linear_5,57,1,48,35,961633968
79,9,21,Ticks_Linear_5,58,5,42,127,961660400
79,9,21,Ticks_Linear_5,59,1,48,29,962154036
79,9,21,Ticks_Linear_5,60,5,42,127,962200012
79,9,21,Ticks_Linear_5,61,1,48,32,962733444
79,9,21,Ticks_Linear_5,62,5,42,127,962739628
79,9,21,Ticks_Linear_5,63,1,48,32,963237184
79,9,21,Ticks_Linear_5,64,5,42,127,963280364
79,9,21,Ticks_Linear_5,65,1,48,35,963751268
79,9,21,Ticks_Linear_5,66,5,42,127,963819756
79,9,21,Ticks_Linear_5,67,1,48,33,964328180
79,9,21,Ticks_Linear_5,68,5,42,127,964369928
79,9,21,Ticks_Linear_5,69,1,48,37,964911228
79,9,21,Ticks_Linear_5,70,5,42,127,964919652
79,9,21,Ticks_Linear_5,71,1,48,32,965421632
79,9,21,Ticks_Linear_5,72,5,42,127,965469452
79,9,21,Ticks_Linear_5,73,1,48,33,965995388
79,9,21,Ticks_Linear_5,74,5,42,127,966019476
79,9,21,Ticks_Linear_5,75,1,48,35,966531860
79,9,21,Ticks_Linear_5,76,5,42,127,966570320
79,9,21,Ticks_Linear_5,77,1,48,38,967097232
79,9,21,Ticks_Linear_5,78,5,42,127,967129336
79,9,21,Ticks_Linear_5,79,1,48,31,967599564
79,9,21,Ticks_Linear_5,80,5,42,127,967689616
79,9,21,Ticks_Linear_5,81,5,42,127,968249832
79,9,21,Ticks_Linear_5,82,1,48,36,968254520
79,9,21,Ticks_Linear_5,83,1,48,39,968773968
79,9,21,Ticks_Linear_5,84,5,42,127,968809884
79,9,21,Ticks_Linear_5,85,1,48,35,969344008
79,9,21,Ticks_Linear_5,86,5,42,127,969370184
79,9,21,Ticks_Linear_5,87,1,48,37,969909164
79,9,21,Ticks_Linear_5,88,5,42,127,969940280
79,9,21,Ticks_Linear_5,89,1,48,38,970502320
79,9,21,Ticks_Linear_5,90,5,42,127,970509848
79,9,21,Ticks_Linear_5,91,1,48,33,971075776
79,9,21,Ticks_Linear_5,92,5,42,127,971080016
79,9,21,Ticks_Linear_5,93,5,42,127,971650292
79,9,21,Ticks_Linear_5,94,1,48,37,971670484
79,9,21,Ticks_Linear_5,95,5,42,127,972230044
79,9,21,Ticks_Linear_5,96,1,48,40,972236828
79,9,21,Ticks_Linear_5,97,1,48,35,972781144
79,9,21,Ticks_Linear_5,98,5,42,127,972809644
79,9,21,Ticks_Linear_5,99,5,42,127,973390152
79,9,21,Ticks_Linear_5,100,1,48,32,973406896
79,9,21,Ticks_Linear_5,101,5,42,127,973969780
79,9,21,Ticks_Linear_5,102,1,48,40,973973796
79,9,21,Ticks_Linear_5,103,1,48,33,974501936
79,9,21,Ticks_Linear_5,104,5,42,127,974550424
79,9,21,Ticks_Linear_5,105,1,48,37,975093964
79,9,21,Ticks_Linear_5,106,5,42,127,975130104
79,9,21,Ticks_Linear_5,107,1,48,31,975706888
79,9,21,Ticks_Linear_5,108,5,42,127,975719892
79,9,21,Ticks_Linear_5,109,1,48,37,976278068
79,9,21,Ticks_Linear_5,110,5,42,127,976309932
79,9,21,Ticks_Linear_5,111,1,48,31,976841120
79,9,21,Ticks_Linear_5,112,5,42,127,976899424
79,9,21,Ticks_Linear_5,113,1,48,29,977469556
79,9,21,Ticks_Linear_5,114,5,42,127,977490260
79,9,21,Ticks_Linear_5,115,1,48,34,978051872
79,9,21,Ticks_Linear_5,116,5,42,127,978080072
79,9,21,Ticks_Linear_5,117,1,48,32,978644356
79,9,21,Ticks_Linear_5,118,5,42,127,978680120
79,9,21,Ticks_Linear_5,119,1,48,28,979228012
79,9,21,Ticks_Linear_5,120,5,42,127,979280392
79,9,21,Ticks_Linear_5,121,1,48,31,979862976
79,9,21,Ticks_Linear_5,122,5,42,127,979880168
79,9,21,Ticks_Linear_5,123,1,48,26,980428212
79,9,21,Ticks_Linear_5,124,5,42,127,980480368
79,9,21,Ticks_Linear_5,125,1,48,34,981044048
79,9,21,Ticks_Linear_5,126,5,42,127,981080416
79,9,21,Ticks_Linear_5,127,1,48,39,981614096
79,9,21,Ticks_Linear_5,128,5,42,127,981699960
79,9,21,Ticks_Linear_5,129,1,48,31,982251592
79,9,21,Ticks_Linear_5,130,5,42,127,982310120
79,9,21,Ticks_Linear_5,131,1,48,34,982889984
79,9,21,Ticks_Linear_5,132,5,42,127,982919480
79,9,21,Ticks_Linear_5,133,5,42,127,983529720
79,9,21,Ticks_Linear_5,134,1,48,31,983555076
79,9,21,Ticks_Linear_5,135,1,48,40,984138056
79,9,21,Ticks_Linear_5,136,5,42,127,984140092
79,9,21,Ticks_Linear_5,137,1,48,31,984744392
79,9,21,Ticks_Linear_5,138,5,42,127,984759864
79,9,21,Ticks_Linear_5,139,1,48,32,985372828
79,9,21,Ticks_Linear_5,140,5,42,127,985380208
79,9,21,Ticks_Linear_5,141,1,48,32,985951756
79,9,21,Ticks_Linear_5,142,5,42,127,985999824
79,9,21,Ticks_Linear_5,143,1,48,32,986590696
79,9,21,Ticks_Linear_5,144,5,42,127,986620316
79,9,21,Ticks_Linear_5,145,5,42,127,987239916
79,9,21,Ticks_Linear_5,146,1,48,32,987242288
79,9,21,Ticks_Linear_5,147,1,48,39,987843436
79,9,21,Ticks_Linear_5,148,5,42,127,987869616
79,9,21,Ticks_Linear_5,149,1,48,36,988451800
79,9,21,Ticks_Linear_5,150,5,42,127,988500444
79,9,21,Ticks_Linear_5,151,5,42,127,989130252
79,9,21,Ticks_Linear_5,152,1,48,38,989134872
79,9,21,Ticks_Linear_5,153,1,48,33,989754588
79,9,21,Ticks_Linear_5,154,5,42,127,989759800
79,9,21,Ticks_Linear_5,155,1,48,39,990340736
79,9,21,Ticks_Linear_5,156,5,42,127,990389756
79,9,21,Ticks_Linear_5,157,1,48,38,991000472
79,9,21,Ticks_Linear_5,158,5,42,127,991029496
79,9,21,Ticks_Linear_5,159,1,48,35,991650500
79,9,21,Ticks_Linear_5,160,5,42,127,991669488
79,9,21,Ticks_Linear_5,161,5,42,127,992309608
79,9,21,Ticks_Linear_5,162,1,48,36,992330328
79,9,21,Ticks_Linear_5,163,5,42,127,992949744
79,9,21,Ticks_Linear_5,164,1,48,41,992956680
79,9,21,Ticks_Linear_5,165,1,48,40,993586128
79,9,21,Ticks_Linear_5,166,5,42,127,993589776
79,9,21,Ticks_Linear_5,167,1,48,27,994182172
79,9,21,Ticks_Linear_5,168,5,42,127,994239948
79,9,21,Ticks_Linear_5,169,1,48,38,994843776
79,9,21,Ticks_Linear_5,170,5,42,127,994890248
79,9,21,Ticks_Linear_5,171,1,48,35,995530348
79,9,21,Ticks_Linear_5,172,5,42,127,995540568
79,9,21,Ticks_Linear_5,173,1,48,40,996181836
79,9,21,Ticks_Linear_5,174,5,42,127,996189444
79,9,21,Ticks_Linear_5,175,1,48,41,996755392
79,9,21,Ticks_Linear_5,176,5,42,127,996839916
79,9,21,Ticks_Linear_5,177,1,48,29,997451012
79,9,21,Ticks_Linear_5,178,5,42,127,997500500
79,9,21,Ticks_Linear_5,179,5,42,127,998159644
79,9,21,Ticks_Linear_5,180,1,48,29,998173688
79,9,21,Ticks_Linear_5,181,1,48,29,998816052
79,9,21,Ticks_Linear_5,182,5,42,127,998820364
79,9,21,Ticks_Linear_5,183,1,48,39,999460516
79,9,21,Ticks_Linear_5,184,5,42,127,999479724
79,9,21,Ticks_Linear_5,185,5,42,127,1000140164
79,9,21,Ticks_Linear_5,186,1,48,42,1000160512
79,9,21,Ticks_Linear_5,187,1,48,42,1000769300
79,9,21,Ticks_Linear_5,188,5,42,127,1000810176
79,9,21,Ticks_Linear_5,189,1,48,31,1001446800
79,9,21,Ticks_Linear_5,190,5,42,127,1001479500
79,9,21,Ticks_Linear_5,191,1,48,35,1002111284
79,9,21,Ticks_Linear_5,192,5,42,127,1002150264
79,9,21,Ticks_Linear_5,193,1,48,35,1002717480
79,9,21,Ticks_Linear_5,194,5,42,127,1002820020
79,9,21,Ticks_Linear_5,195,1,48,31,1003470092
79,9,21,Ticks_Linear_5,196,5,42,127,1003489528
79,9,21,Ticks_Linear_5,197,1,48,35,1004138388
79,9,21,Ticks_Linear_5,198,5,42,127,1004169504
79,9,21,Ticks_Linear_5,199,1,48,32,1004823500
79,9,21,Ticks_Linear_5,200,5,42,127,1004849460
79,9,21,Ticks_Linear_5,201,1,48,27,1005480348
79,9,21,Ticks_Linear_5,202,5,42,127,1005529440
79,9,21,Ticks_Linear_5,203,1,48,38,1006163440
79,9,21,Ticks_Linear_5,204,5,42,127,1006210388
79,9,21,Ticks_Linear_5,205,1,48,37,1006884752
79,9,21,Ticks_Linear_5,206,5,42,127,1006899480
79,9,21,Ticks_Linear_5,207,1,48,31,1007565184
79,9,21,Ticks_Linear_5,208,5,42,127,1007589720
79,9,21,Ticks_Linear_5,209,1,48,33,1008234076
79,9,21,Ticks_Linear_5,210,5,42,127,1008280104
79,9,21,Ticks_Linear_5,211,5,42,127,1008970176
79,9,21,Ticks_Linear_5,212,1,48,29,1008995608
79,9,21,Ticks_Linear_5,213,1,48,32,1009652352
79,9,21,Ticks_Linear_5,214,5,42,127,1009660332
79,9,21,Ticks_Linear_5,215,1,48,36,1010294812
79,9,21,Ticks_Linear_5,216,5,42,127,1010349448
79,9,21,Ticks_Linear_5,217,1,48,31,1011011384
79,9,21,Ticks_Linear_5,218,5,42,127,1011049944
79,9,21,Ticks_Linear_5,219,1,48,26,1011714056
79,9,21,Ticks_Linear_5,220,5,42,127,1011750192
79,9,21,Ticks_Linear_5,221,1,48,37,1012431180
79,9,21,Ticks_Linear_5,222,5,42,127,1012449568
79,9,21,Ticks_Linear_5,223,1,48,27,1013079604
79,9,21,Ticks_Linear_5,224,5,42,127,1013149988
79,9,21,Ticks_Linear_5,225,1,48,36,1013765344
79,9,21,Ticks_Linear_5,226,5,42,127,1013849340
79,9,21,Ticks_Linear_5,227,1,48,33,1014528160
79,9,21,Ticks_Linear_5,228,5,42,127,1014560244
79,9,21,Ticks_Linear_5,229,1,48,35,1015228952
79,9,21,Ticks_Linear_5,230,5,42,127,1015270024
79,9,21,Ticks_Linear_5,231,1,48,39,1015931244
79,9,21,Ticks_Linear_5,232,5,42,127,1015980408
79,9,21,Ticks_Linear_5,233,1,48,20,1016001484
79,9,21,Ticks_Linear_5,234,1,48,40,1016657372
79,9,21,Ticks_Linear_5,235,5,42,127,1016690020
79,9,21,Ticks_Linear_5,236,1,48,34,1017385056
79,9,21,Ticks_Linear_5,237,5,42,127,1017399928
79,9,21,Ticks_Linear_5,238,1,48,39,1018091628
79,9,21,Ticks_Linear_5,239,5,42,127,1018119524
79,9,21,Ticks_Linear_5,240,1,48,35,1018750708
79,9,21,Ticks_Linear_5,241,5,42,127,1018840392
79,9,21,Ticks_Linear_5,242,1,48,27,1019527972
79,9,21,Ticks_Linear_5,243,5,42,127,1019569496
79,9,21,Ticks_Linear_5,244,5,42,127,1020290368
79,9,21,Ticks_Linear_5,245,1,48,30,1020307036
79,9,21,Ticks_Linear_5,246,1,48,25,1020947960
79,9,21,Ticks_Linear_5,247,5,42,127,1021019516
79,9,21,Ticks_Linear_5,248,1,48,28,1021707008
79,9,21,Ticks_Linear_5,249,5,42,127,1021749816
79,9,21,Ticks_Linear_5,250,5,42,127,1022479752
79,9,21,Ticks_Linear_5,251,1,48,36,1022500400
79,9,21,Ticks_Linear_5,252,1,48,35,1023206560
79,9,21,Ticks_Linear_5,253,5,42,127,1023210048
79,9,21,Ticks_Linear_5,254,1,48,38,1023921592
79,9,21,Ticks_Linear_5,255,5,42,127,1023939904
79,9,21,Ticks_Linear_5,256,1,48,29,1024601320
79,9,21,Ticks_Linear_5,257,5,42,127,1024670132
79,9,21,Ticks_Linear_5,258,1,48,34,1025364420
79,9,21,Ticks_Linear_5,259,5,42,127,1025410616
79,9,21,Ticks_Linear_5,260,5,42,127,1026159948
79,9,21,Ticks_Linear_5,261,1,48,33,1026173328
79,9,21,Ticks_Linear_5,262,5,42,127,1026900336
79,9,21,Ticks_Linear_5,263,1,48,31,1026923624
79,9,21,Ticks_Linear_5,264,5,42,127,1027639776
79,9,21,Ticks_Linear_5,265,1,48,26,1027662736
79,9,21,Ticks_Linear_5,266,5,42,127,1028379964
79,9,21,Ticks_Linear_5,267,1,48,32,1028389528
79,9,21,Ticks_Linear_5,268,1,48,32,1029070676
79,9,21,Ticks_Linear_5,269,5,42,127,1029129580
79,9,21,Ticks_Linear_5,270,5,42,127,1029880184
79,9,21,Ticks_Linear_5,271,1,48,26,1029906136
79,9,21,Ticks_Linear_5,272,5,42,127,1030629732
79,9,21,Ticks_Linear_5,273,1,48,29,1030660484
79,9,21,Ticks_Linear_5,274,1,48,28,1031353164
79,9,21,Ticks_Linear_5,275,5,42,127,1031380616
79,9,21,Ticks_Linear_5,276,1,48,24,1032099128
79,9,21,Ticks_Linear_5,277,5,42,127,1032129796
79,9,21,Ticks_Linear_5,278,1,48,25,1032807376
79,9,21,Ticks_Linear_5,279,5,42,127,1032889652
79,9,21,Ticks_Linear_5,280,1,48,26,1033590780
79,9,21,Ticks_Linear_5,281,5,42,127,1033649608
79,9,21,Ticks_Linear_5,282,1,48,33,1034369688
79,9,21,Ticks_Linear_5,283,5,42,127,1034410540
79,9,21,Ticks_Linear_5,284,1,48,37,1035126640
79,9,21,Ticks_Linear_5,285,5,42,127,1035170052
79,9,21,Ticks_Linear_5,286,1,48,38,1035918516
79,9,21,Ticks_Linear_5,287,5,42,127,1035929936
79,9,21,Ticks_Linear_5,288,1,48,37,1036660420
79,9,21,Ticks_Linear_5,289,5,42,127,1036700000
79,9,21,Ticks_Linear_5,290,1,48,35,1037449736
79,9,21,Ticks_Linear_5,291,5,42,127,1037470068
79,9,21,Ticks_Linear_5,292,5,42,127,1038239996
79,9,21,Ticks_Linear_5,293,1,48,30,1038265800
79,9,21,Ticks_Linear_5,294,5,42,127,1039010212
79,9,21,Ticks_Linear_5,295,1,48,35,1039035496
79,9,21,Ticks_Linear_5,296,5,42,127,1039780280
79,9,21,Ticks_Linear_5,297,1,48,28,1039783844
79,9,21,Ticks_Linear_5,298,1,48,38,1040542580
79,9,21,Ticks_Linear_5,299,5,42,127,1040559552
79,9,21,Ticks_Linear_5,300,1,48,31,1041285984
79,9,21,Ticks_Linear_5,301,5,42,127,1041339804
79,9,21,Ticks_Linear_5,302,1,48,35,1042086828
79,9,21,Ticks_Linear_5,303,5,42,127,1042120056
79,9,21,Ticks_Linear_5,304,1,48,33,1042897340
79,9,21,Ticks_Linear_5,305,5,42,127,1042900532
79,9,21,Ticks_Linear_5,306,5,42,127,1043679596
79,9,21,Ticks_Linear_5,307,1,48,37,1043687588
79,9,21,Ticks_Linear_5,308,5,42,127,1044470328
79,9,21,Ticks_Linear_5,309,1,48,32,1044472772
79,9,21,Ticks_Linear_5,310,5,42,127,1045259496
79,9,21,Ticks_Linear_5,311,1,48,36,1045283800
79,9,21,Ticks_Linear_5,312,1,48,34,1046033852
79,9,21,Ticks_Linear_5,313,5,42,127,1046050296
79,9,21,Ticks_Linear_5,314,1,48,36,1046788656
79,9,21,Ticks_Linear_5,315,5,42,127,1046839688
79,9,21,Ticks_Linear_5,316,1,48,38,1047590696
79,9,21,Ticks_Linear_5,317,5,42,127,1047630200
79,9,21,Ticks_Linear_5,318,1,48,31,1048366300
79,9,21,Ticks_Linear_5,319,5,42,127,1048429876
79,9,21,Ticks_Linear_5,320,1,48,40,1049194424
79,9,21,Ticks_Linear_5,321,5,42,127,1049229672
79,9,21,Ticks_Linear_5,322,1,48,30,1050024332
79,9,21,Ticks_Linear_5,323,5,42,127,1050029396
79,9,21,Ticks_Linear_5,324,1,48,33,1050808040
79,9,21,Ticks_Linear_5,325,5,42,127,1050830168
79,9,21,Ticks_Linear_5,326,1,48,33,1051630344
79,9,21,Ticks_Linear_5,327,5,42,127,1051631532
79,9,21,Ticks_Linear_5,328,1,48,34,1052404332
79,9,21,Ticks_Linear_5,329,5,42,127,1052439876
79,9,21,Ticks_Linear_5,330,1,48,32,1053203232
79,9,21,Ticks_Linear_5,331,5,42,127,1053249856
79,9,21,Ticks_Linear_5,332,1,48,38,1054033436
79,9,21,Ticks_Linear_5,333,5,42,127,1054059864
79,9,21,Ticks_Linear_5,334,5,42,127,1054870004
79,9,21,Ticks_Linear_5,335,1,48,30,1054896932
79,9,21,Ticks_Linear_5,336,1,48,35,1055668932
79,9,21,Ticks_Linear_5,337,5,42,127,1055679832
79,9,21,Ticks_Linear_5,0,9999,9999,9999,946437184
79,9,21,Ticks_Linear_5,1,9999,9999,9999,946917432
79,9,21,Ticks_Linear_5,2,9999,9999,9999,947397756
79,9,21,Ticks_Linear_5,3,9999,9999,9999,947878008
79,9,21,Ticks_Linear_5,4,9999,9999,9999,948357192
79,9,21,Ticks_Linear_5,5,9999,9999,9999,948847676
79,9,21,Ticks_Linear_5,6,9999,9999,9999,949337168
79,9,21,Ticks_Linear_5,7,9999,9999,9999,949827648
79,9,21,Ticks_Linear_5,8,9999,9999,9999,950317172
79,9,21,Ticks_Linear_5,9,9999,9999,9999,950807652
79,9,21,Ticks_Linear_5,10,9999,9999,9999,951307352
79,9,21,Ticks_Linear_5,11,9999,9999,9999,951808100
79,9,21,Ticks_Linear_5,12,9999,9999,9999,952318060
79,9,21,Ticks_Linear_5,13,9999,9999,9999,952817756
79,9,21,Ticks_Linear_5,14,9999,9999,9999,953317460
79,9,21,Ticks_Linear_5,15,9999,9999,9999,953827416
79,9,21,Ticks_Linear_5,16,9999,9999,9999,954337376
79,9,21,Ticks_Linear_5,17,9999,9999,9999,954847336
79,9,21,Ticks_Linear_5,18,9999,9999,9999,955357292
79,9,21,Ticks_Linear_5,19,9999,9999,9999,955867252
79,9,21,Ticks_Linear_5,20,9999,9999,9999,956387396
79,9,21,Ticks_Linear_5,21,9999,9999,9999,956907612
79,9,21,Ticks_Linear_5,22,9999,9999,9999,957427832
79,9,21,Ticks_Linear_5,23,9999,9999,9999,957947976
79,9,21,Ticks_Linear_5,24,9999,9999,9999,958467148
79,9,21,Ticks_Linear_5,25,9999,9999,9999,958997624
79,9,21,Ticks_Linear_5,26,9999,9999,9999,959528028
79,9,21,Ticks_Linear_5,27,9999,9999,9999,960057432
79,9,21,Ticks_Linear_5,28,9999,9999,9999,960587844
79,9,21,Ticks_Linear_5,29,9999,9999,9999,961117268
79,9,21,Ticks_Linear_5,30,9999,9999,9999,961657952
79,9,21,Ticks_Linear_5,31,9999,9999,9999,962197564
79,9,21,Ticks_Linear_5,32,9999,9999,9999,962737256
79,9,21,Ticks_Linear_5,33,9999,9999,9999,963277916
79,9,21,Ticks_Linear_5,34,9999,9999,9999,963817532
79,9,21,Ticks_Linear_5,35,9999,9999,9999,964367480
79,9,21,Ticks_Linear_5,36,9999,9999,9999,964917356
79,9,21,Ticks_Linear_5,37,9999,9999,9999,965467228
79,9,21,Ticks_Linear_5,38,9999,9999,9999,966017104
79,9,21,Ticks_Linear_5,39,9999,9999,9999,966568020
79,9,21,Ticks_Linear_5,40,9999,9999,9999,967127112
79,9,21,Ticks_Linear_5,41,9999,9999,9999,967687244
79,9,21,Ticks_Linear_5,42,9999,9999,9999,968247384
79,9,21,Ticks_Linear_5,43,9999,9999,9999,968807512
79,9,21,Ticks_Linear_5,44,9999,9999,9999,969367664
79,9,21,Ticks_Linear_5,45,9999,9999,9999,969937980
79,9,21,Ticks_Linear_5,46,9999,9999,9999,970507324
79,9,21,Ticks_Linear_5,47,9999,9999,9999,971077720
79,9,21,Ticks_Linear_5,48,9999,9999,9999,971648068
79,9,21,Ticks_Linear_5,49,9999,9999,9999,972227672
79,9,21,Ticks_Linear_5,50,9999,9999,9999,972807272
79,9,21,Ticks_Linear_5,51,9999,9999,9999,973387856
79,9,21,Ticks_Linear_5,52,9999,9999,9999,973967484
79,9,21,Ticks_Linear_5,53,9999,9999,9999,974548052
79,9,21,Ticks_Linear_5,54,9999,9999,9999,975127656
79,9,21,Ticks_Linear_5,55,9999,9999,9999,975717448
79,9,21,Ticks_Linear_5,56,9999,9999,9999,976307264
79,9,21,Ticks_Linear_5,57,9999,9999,9999,976897124
79,9,21,Ticks_Linear_5,58,9999,9999,9999,977487960
79,9,21,Ticks_Linear_5,59,9999,9999,9999,978077776
79,9,21,Ticks_Linear_5,60,9999,9999,9999,978677824
79,9,21,Ticks_Linear_5,61,9999,9999,9999,979277944
79,9,21,Ticks_Linear_5,62,9999,9999,9999,979877944
79,9,21,Ticks_Linear_5,63,9999,9999,9999,980478068
79,9,21,Ticks_Linear_5,64,9999,9999,9999,981078116
79,9,21,Ticks_Linear_5,65,9999,9999,9999,981697664
79,9,21,Ticks_Linear_5,66,9999,9999,9999,982307896
79,9,21,Ticks_Linear_5,67,9999,9999,9999,982917184
79,9,21,Ticks_Linear_5,68,9999,9999,9999,983527496
79,9,21,Ticks_Linear_5,69,9999,9999,9999,984137832
79,9,21,Ticks_Linear_5,70,9999,9999,9999,984757340
79,9,21,Ticks_Linear_5,71,9999,9999,9999,985377908
79,9,21,Ticks_Linear_5,72,9999,9999,9999,985997380
79,9,21,Ticks_Linear_5,73,9999,9999,9999,986617944
79,9,21,Ticks_Linear_5,74,9999,9999,9999,987237468
79,9,21,Ticks_Linear_5,75,9999,9999,9999,987867244
79,9,21,Ticks_Linear_5,76,9999,9999,9999,988497996
79,9,21,Ticks_Linear_5,77,9999,9999,9999,989127808
79,9,21,Ticks_Linear_5,78,9999,9999,9999,989757504
79,9,21,Ticks_Linear_5,79,9999,9999,9999,990387308
79,9,21,Ticks_Linear_5,80,9999,9999,9999,991027272
79,9,21,Ticks_Linear_5,81,9999,9999,9999,991667264
79,9,21,Ticks_Linear_5,82,9999,9999,9999,992307308
79,9,21,Ticks_Linear_5,83,9999,9999,9999,992947296
79,9,21,Ticks_Linear_5,84,9999,9999,9999,993587328
79,9,21,Ticks_Linear_5,85,9999,9999,9999,994237500
79,9,21,Ticks_Linear_5,86,9999,9999,9999,994887800
79,9,21,Ticks_Linear_5,87,9999,9999,9999,995538048
79,9,21,Ticks_Linear_5,88,9999,9999,9999,996187220
79,9,21,Ticks_Linear_5,89,9999,9999,9999,996837468
79,9,21,Ticks_Linear_5,90,9999,9999,9999,997497976
79,9,21,Ticks_Linear_5,91,9999,9999,9999,998157420
79,9,21,Ticks_Linear_5,92,9999,9999,9999,998817920
79,9,21,Ticks_Linear_5,93,9999,9999,9999,999477352
79,9,21,Ticks_Linear_5,94,9999,9999,9999,1000137792
79,9,21,Ticks_Linear_5,95,9999,9999,9999,1000807480
79,9,21,Ticks_Linear_5,96,9999,9999,9999,1001477200
79,9,21,Ticks_Linear_5,97,9999,9999,9999,1002147964
79,9,21,Ticks_Linear_5,98,9999,9999,9999,1002817644
79,9,21,Ticks_Linear_5,99,9999,9999,9999,1003487304
79,9,21,Ticks_Linear_5,100,9999,9999,9999,1004167280
79,9,21,Ticks_Linear_5,101,9999,9999,9999,1004847160
79,9,21,Ticks_Linear_5,102,9999,9999,9999,1005527140
79,9,21,Ticks_Linear_5,103,9999,9999,9999,1006208088
79,9,21,Ticks_Linear_5,104,9999,9999,9999,1006897256
79,9,21,Ticks_Linear_5,105,9999,9999,9999,1007587420
79,9,21,Ticks_Linear_5,106,9999,9999,9999,1008277584
79,9,21,Ticks_Linear_5,107,9999,9999,9999,1008967800
79,9,21,Ticks_Linear_5,108,9999,9999,9999,1009657960
79,9,21,Ticks_Linear_5,109,9999,9999,9999,1010347076
79,9,21,Ticks_Linear_5,110,9999,9999,9999,1011047548
79,9,21,Ticks_Linear_5,111,9999,9999,9999,1011747892
79,9,21,Ticks_Linear_5,112,9999,9999,9999,1012447344
79,9,21,Ticks_Linear_5,113,9999,9999,9999,1013147764
79,9,21,Ticks_Linear_5,114,9999,9999,9999,1013847112
79,9,21,Ticks_Linear_5,115,9999,9999,9999,1014557796
79,9,21,Ticks_Linear_5,116,9999,9999,9999,1015267432
79,9,21,Ticks_Linear_5,117,9999,9999,9999,1015978112
79,9,21,Ticks_Linear_5,118,9999,9999,9999,1016687720
79,9,21,Ticks_Linear_5,119,9999,9999,9999,1017397332
79,9,21,Ticks_Linear_5,120,9999,9999,9999,1018117224
79,9,21,Ticks_Linear_5,121,9999,9999,9999,1018838092
79,9,21,Ticks_Linear_5,122,9999,9999,9999,1019567196
79,9,21,Ticks_Linear_5,123,9999,9999,9999,1020288068
79,9,21,Ticks_Linear_5,124,9999,9999,9999,1021017144
79,9,21,Ticks_Linear_5,125,9999,9999,9999,1021747296
79,9,21,Ticks_Linear_5,126,9999,9999,9999,1022477380
79,9,21,Ticks_Linear_5,127,9999,9999,9999,1023207528
79,9,21,Ticks_Linear_5,128,9999,9999,9999,1023937608
79,9,21,Ticks_Linear_5,129,9999,9999,9999,1024667756
79,9,21,Ticks_Linear_5,130,9999,9999,9999,1025408096
79,9,21,Ticks_Linear_5,131,9999,9999,9999,1026157652
79,9,21,Ticks_Linear_5,132,9999,9999,9999,1026898040
79,9,21,Ticks_Linear_5,133,9999,9999,9999,1027637328
79,9,21,Ticks_Linear_5,134,9999,9999,9999,1028377664
79,9,21,Ticks_Linear_5,135,9999,9999,9999,1029127280
79,9,21,Ticks_Linear_5,136,9999,9999,9999,1029877884
79,9,21,Ticks_Linear_5,137,9999,9999,9999,1030627432
79,9,21,Ticks_Linear_5,138,9999,9999,9999,1031378020
79,9,21,Ticks_Linear_5,139,9999,9999,9999,1032127572
79,9,21,Ticks_Linear_5,140,9999,9999,9999,1032887356
79,9,21,Ticks_Linear_5,141,9999,9999,9999,1033647164
79,9,21,Ticks_Linear_5,142,9999,9999,9999,1034408020
79,9,21,Ticks_Linear_5,143,9999,9999,9999,1035167828
79,9,21,Ticks_Linear_5,144,9999,9999,9999,1035927636
79,9,21,Ticks_Linear_5,145,9999,9999,9999,1036697704
79,9,21,Ticks_Linear_5,146,9999,9999,9999,1037467772
79,9,21,Ticks_Linear_5,147,9999,9999,9999,1038237768
79,9,21,Ticks_Linear_5,148,9999,9999,9999,1039007840
79,9,21,Ticks_Linear_5,149,9999,9999,9999,1039777904
79,9,21,Ticks_Linear_5,150,9999,9999,9999,1040557180
79,9,21,Ticks_Linear_5,151,9999,9999,9999,1041337432
79,9,21,Ticks_Linear_5,152,9999,9999,9999,1042117756
79,9,21,Ticks_Linear_5,153,9999,9999,9999,1042898008
79,9,21,Ticks_Linear_5,154,9999,9999,9999,1043677296
79,9,21,Ticks_Linear_5,155,9999,9999,9999,1044467808
79,9,21,Ticks_Linear_5,156,9999,9999,9999,1045257272
79,9,21,Ticks_Linear_5,157,9999,9999,9999,1046047848
79,9,21,Ticks_Linear_5,158,9999,9999,9999,1046837316
79,9,21,Ticks_Linear_5,159,9999,9999,9999,1047627904
79,9,21,Ticks_Linear_5,160,9999,9999,9999,1048427576
79,9,21,Ticks_Linear_5,161,9999,9999,9999,1049227372
79,9,21,Ticks_Linear_5,162,9999,9999,9999,1050027096
79,9,21,Ticks_Linear_5,163,9999,9999,9999,1050827868
79,9,21,Ticks_Linear_5,164,9999,9999,9999,1051627600
79,9,21,Ticks_Linear_5,165,9999,9999,9999,1052437576
79,9,21,Ticks_Linear_5,166,9999,9999,9999,1053247556
79,9,21,Ticks_Linear_5,167,9999,9999,9999,1054057568
79,9,21,Ticks_Linear_5,168,9999,9999,9999,1054867556
79,9,21,Ticks_Linear_5,169,9999,9999,9999,1055677532
79,10,20,Ticks_Linear_8,0,5,42,127,1066509828
79,10,20,Ticks_Linear_8,1,5,42,127,1067329792
79,10,20,Ticks_Linear_8,2,5,42,127,1068150008
79,10,20,Ticks_Linear_8,3,1,48,20,1068186516
79,10,20,Ticks_Linear_8,4,5,42,127,1068970248
79,10,20,Ticks_Linear_8,5,1,48,24,1068986992
79,10,20,Ticks_Linear_8,6,5,42,127,1069789744
79,10,20,Ticks_Linear_8,7,1,48,28,1069855088
79,10,20,Ticks_Linear_8,8,5,42,127,1070599648
79,10,20,Ticks_Linear_8,9,1,48,24,1070608468
79,10,20,Ticks_Linear_8,10,5,42,127,1071409560
79,10,20,Ticks_Linear_8,11,1,48,31,1071426828
79,10,20,Ticks_Linear_8,12,1,48,29,1072202792
79,10,20,Ticks_Linear_8,13,5,42,127,1072219608
79,10,20,Ticks_Linear_8,14,5,42,127,1073029624
79,10,20,Ticks_Linear_8,15,1,48,33,1073065992
79,10,20,Ticks_Linear_8,16,5,42,127,1073839684
79,10,20,Ticks_Linear_8,17,1,48,34,1073851264
79,10,20,Ticks_Linear_8,18,5,42,127,1074640232
79,10,20,Ticks_Linear_8,19,1,48,35,1074650764
79,10,20,Ticks_Linear_8,20,5,42,127,1075439880
79,10,20,Ticks_Linear_8,21,1,48,31,1075448248
79,10,20,Ticks_Linear_8,22,5,42,127,1076239604
79,10,20,Ticks_Linear_8,23,1,48,33,1076256492
79,10,20,Ticks_Linear_8,24,5,42,127,1077039552
79,10,20,Ticks_Linear_8,25,1,48,27,1077059520
79,10,20,Ticks_Linear_8,26,1,48,31,1077802304
79,10,20,Ticks_Linear_8,27,5,42,127,1077840316
79,10,20,Ticks_Linear_8,28,5,42,127,1078629808
79,10,20,Ticks_Linear_8,29,1,48,34,1078655836
79,10,20,Ticks_Linear_8,30,1,48,31,1079385572
79,10,20,Ticks_Linear_8,31,5,42,127,1079420464
79,10,20,Ticks_Linear_8,32,1,48,36,1080174536
79,10,20,Ticks_Linear_8,33,5,42,127,1080209780
79,10,20,Ticks_Linear_8,34,5,42,127,1081000448
79,10,20,Ticks_Linear_8,35,1,48,35,1081022288
79,10,20,Ticks_Linear_8,36,5,42,127,1081789692
79,10,20,Ticks_Linear_8,37,1,48,37,1081792432
79,10,20,Ticks_Linear_8,38,5,42,127,1082570092
79,10,20,Ticks_Linear_8,39,1,48,35,1082620468
79,10,20,Ticks_Linear_8,40,5,42,127,1083350568
79,10,20,Ticks_Linear_8,41,1,48,30,1083359084
79,10,20,Ticks_Linear_8,42,5,42,127,1084129552
79,10,20,Ticks_Linear_8,43,1,48,27,1084164792
79,10,20,Ticks_Linear_8,44,5,42,127,1084909856
79,10,20,Ticks_Linear_8,45,1,48,33,1084935660
79,10,20,Ticks_Linear_8,46,1,48,35,1085663396
79,10,20,Ticks_Linear_8,47,5,42,127,1085690324
79,10,20,Ticks_Linear_8,48,1,48,31,1086446564
79,10,20,Ticks_Linear_8,49,5,42,127,1086460468
79,10,20,Ticks_Linear_8,50,5,42,127,1087230616
79,10,20,Ticks_Linear_8,51,1,48,28,1087245116
79,10,20,Ticks_Linear_8,52,5,42,127,1088000536
79,10,20,Ticks_Linear_8,53,1,48,33,1088025516
79,10,20,Ticks_Linear_8,54,1,48,30,1088749968
79,10,20,Ticks_Linear_8,55,5,42,127,1088770600
79,10,20,Ticks_Linear_8,56,1,48,24,1089517328
79,10,20,Ticks_Linear_8,57,5,42,127,1089549580
79,10,20,Ticks_Linear_8,58,5,42,127,1090309472
79,10,20,Ticks_Linear_8,59,1,48,24,1090348244
79,10,20,Ticks_Linear_8,60,5,42,127,1091070328
79,10,20,Ticks_Linear_8,61,1,48,27,1091108204
79,10,20,Ticks_Linear_8,62,1,48,30,1091813012
79,10,20,Ticks_Linear_8,63,5,42,127,1091830352
79,10,20,Ticks_Linear_8,64,1,48,28,1092589192
79,10,20,Ticks_Linear_8,65,5,42,127,1092590764
79,10,20,Ticks_Linear_8,66,5,42,127,1093349756
79,10,20,Ticks_Linear_8,67,1,48,24,1093396980
79,10,20,Ticks_Linear_8,68,5,42,127,1094100352
79,10,20,Ticks_Linear_8,69,1,48,31,1094176784
79,10,20,Ticks_Linear_8,70,5,42,127,1094850052
79,10,20,Ticks_Linear_8,71,1,48,31,1094909416
79,10,20,Ticks_Linear_8,72,1,48,27,1095599376
79,10,20,Ticks_Linear_8,73,5,42,127,1095600864
79,10,20,Ticks_Linear_8,74,1,48,31,1096326180
79,10,20,Ticks_Linear_8,75,5,42,127,1096350264
79,10,20,Ticks_Linear_8,76,5,42,127,1097099672
79,10,20,Ticks_Linear_8,77,1,48,24,1097111856
79,10,20,Ticks_Linear_8,78,5,42,127,1097839936
79,10,20,Ticks_Linear_8,79,1,48,37,1097870544
79,10,20,Ticks_Linear_8,80,5,42,127,1098580320
79,10,20,Ticks_Linear_8,81,1,48,36,1098616560
79,10,20,Ticks_Linear_8,82,5,42,127,1099319688
79,10,20,Ticks_Linear_8,83,1,48,32,1099337180
79,10,20,Ticks_Linear_8,84,5,42,127,1100060248
79,10,20,Ticks_Linear_8,85,1,48,32,1100097676
79,10,20,Ticks_Linear_8,86,5,42,127,1100800364
79,10,20,Ticks_Linear_8,87,1,48,36,1100804076
79,10,20,Ticks_Linear_8,88,1,48,35,1101522452
79,10,20,Ticks_Linear_8,89,5,42,127,1101529388
79,10,20,Ticks_Linear_8,90,5,42,127,1102259548
79,10,20,Ticks_Linear_8,91,1,48,34,1102276744
79,10,20,Ticks_Linear_8,92,5,42,127,1102989552
79,10,20,Ticks_Linear_8,93,1,48,38,1103006820
79,10,20,Ticks_Linear_8,94,1,48,39,1103710044
79,10,20,Ticks_Linear_8,95,5,42,127,1103719920
79,10,20,Ticks_Linear_8,96,5,42,127,1104450204
79,10,20,Ticks_Linear_8,97,1,48,39,1104465896
79,10,20,Ticks_Linear_8,98,1,48,30,1105146984
79,10,20,Ticks_Linear_8,99,5,42,127,1105169868
79,10,20,Ticks_Linear_8,100,1,48,43,1105869800
79,10,20,Ticks_Linear_8,101,5,42,127,1105889688
79,10,20,Ticks_Linear_8,102,1,48,38,1106601004
79,10,20,Ticks_Linear_8,103,5,42,127,1106609508
79,10,20,Ticks_Linear_8,104,1,48,37,1107318056
79,10,20,Ticks_Linear_8,105,5,42,127,1107330520
79,10,20,Ticks_Linear_8,106,5,42,127,1108059460
79,10,20,Ticks_Linear_8,107,1,48,35,1108066396
79,10,20,Ticks_Linear_8,108,1,48,32,1108769764
79,10,20,Ticks_Linear_8,109,5,42,127,1108771332
79,10,20,Ticks_Linear_8,110,5,42,127,1109480000
79,10,20,Ticks_Linear_8,111,1,48,30,1109509108
79,10,20,Ticks_Linear_8,112,1,48,37,1110183440
79,10,20,Ticks_Linear_8,113,5,42,127,1110189404
79,10,20,Ticks_Linear_8,114,5,42,127,1110900016
79,10,20,Ticks_Linear_8,115,1,48,34,1110910552
79,10,20,Ticks_Linear_8,116,5,42,127,1111609852
79,10,20,Ticks_Linear_8,117,1,48,35,1111635132
79,10,20,Ticks_Linear_8,118,1,48,35,1112307296
79,10,20,Ticks_Linear_8,119,5,42,127,1112310116
79,10,20,Ticks_Linear_8,120,5,42,127,1113009500
79,10,20,Ticks_Linear_8,121,1,48,33,1113013664
79,10,20,Ticks_Linear_8,122,1,48,19,1113094592
79,10,20,Ticks_Linear_8,123,1,48,38,1113706468
79,10,20,Ticks_Linear_8,124,5,42,127,1113710040
79,10,20,Ticks_Linear_8,125,1,48,42,1114378052
79,10,20,Ticks_Linear_8,126,5,42,127,1114410288
79,10,20,Ticks_Linear_8,127,5,42,127,1115109744
79,10,20,Ticks_Linear_8,128,1,48,37,1115140500
79,10,20,Ticks_Linear_8,129,5,42,127,1115799984
79,10,20,Ticks_Linear_8,130,1,48,36,1115832160
79,10,20,Ticks_Linear_8,131,5,42,127,1116490196
79,10,20,Ticks_Linear_8,132,1,48,33,1116526284
79,10,20,Ticks_Linear_8,133,5,42,127,1117180136
79,10,20,Ticks_Linear_8,134,1,48,34,1117200180
79,10,20,Ticks_Linear_8,135,5,42,127,1117869404
79,10,20,Ticks_Linear_8,136,1,48,33,1117931612
79,10,20,Ticks_Linear_8,137,1,48,36,1118533952
79,10,20,Ticks_Linear_8,138,5,42,127,1118559684
79,10,20,Ticks_Linear_8,139,5,42,127,1119239668
79,10,20,Ticks_Linear_8,140,1,48,41,1119246604
79,10,20,Ticks_Linear_8,141,5,42,127,1119919720
79,10,20,Ticks_Linear_8,142,1,48,38,1119947620
79,10,20,Ticks_Linear_8,143,5,42,127,1120600720
79,10,20,Ticks_Linear_8,144,1,48,38,1120612556
79,10,20,Ticks_Linear_8,145,1,48,35,1121269952
79,10,20,Ticks_Linear_8,146,5,42,127,1121289832
79,10,20,Ticks_Linear_8,147,1,48,31,1121950904
79,10,20,Ticks_Linear_8,148,5,42,127,1121969736
79,10,20,Ticks_Linear_8,149,5,42,127,1122640260
79,10,20,Ticks_Linear_8,150,1,48,32,1122655956
79,10,20,Ticks_Linear_8,151,5,42,127,1123309832
79,10,20,Ticks_Linear_8,152,1,48,31,1123334292
79,10,20,Ticks_Linear_8,153,1,48,36,1123976504
79,10,20,Ticks_Linear_8,154,5,42,127,1123979692
79,10,20,Ticks_Linear_8,155,5,42,127,1124650368
79,10,20,Ticks_Linear_8,156,1,48,29,1124655952
79,10,20,Ticks_Linear_8,157,1,48,35,1125305952
79,10,20,Ticks_Linear_8,158,5,42,127,1125320008
79,10,20,Ticks_Linear_8,159,1,48,31,1125974604
79,10,20,Ticks_Linear_8,160,5,42,127,1125979888
79,10,20,Ticks_Linear_8,161,5,42,127,1126639880
79,10,20,Ticks_Linear_8,162,1,48,30,1126642848
79,10,20,Ticks_Linear_8,163,1,48,25,1127298660
79,10,20,Ticks_Linear_8,164,5,42,127,1127300308
79,10,20,Ticks_Linear_8,165,5,42,127,1127959972
79,10,20,Ticks_Linear_8,166,1,48,26,1127983312
79,10,20,Ticks_Linear_8,167,1,48,28,1128605520
79,10,20,Ticks_Linear_8,168,5,42,127,1128620548
79,10,20,Ticks_Linear_8,169,1,48,31,1129266980
79,10,20,Ticks_Linear_8,170,5,42,127,1129269652
79,10,20,Ticks_Linear_8,171,5,42,127,1129919832
79,10,20,Ticks_Linear_8,172,1,48,25,1129935080
79,10,20,Ticks_Linear_8,173,5,42,127,1130570128
79,10,20,Ticks_Linear_8,174,1,48,28,1130576912
79,10,20,Ticks_Linear_8,175,5,42,127,1131220372
79,10,20,Ticks_Linear_8,176,1,48,27,1131255688
79,10,20,Ticks_Linear_8,177,1,48,35,1131869480
79,10,20,Ticks_Linear_8,178,5,42,127,1131870964
79,10,20,Ticks_Linear_8,179,5,42,127,1132509468
79,10,20,Ticks_Linear_8,180,1,48,22,1132600732
79,10,20,Ticks_Linear_8,181,1,48,35,1133122724
79,10,20,Ticks_Linear_8,182,5,42,127,1133149424
79,10,20,Ticks_Linear_8,183,5,42,127,1133789496
79,10,20,Ticks_Linear_8,184,1,48,26,1133815520
79,10,20,Ticks_Linear_8,185,5,42,127,1134429532
79,10,20,Ticks_Linear_8,186,1,48,24,1134454464
79,10,20,Ticks_Linear_8,187,5,42,127,1135069524
79,10,20,Ticks_Linear_8,188,1,48,27,1135093008
79,10,20,Ticks_Linear_8,189,5,42,127,1135700424
79,10,20,Ticks_Linear_8,190,1,48,41,1135718852
79,10,20,Ticks_Linear_8,191,1,48,31,1136308396
79,10,20,Ticks_Linear_8,192,5,42,127,1136330296
79,10,20,Ticks_Linear_8,193,5,42,127,1136959856
79,10,20,Ticks_Linear_8,194,1,48,31,1136973532
79,10,20,Ticks_Linear_8,195,1,48,37,1137583244
79,10,20,Ticks_Linear_8,196,5,42,127,1137589580
79,10,20,Ticks_Linear_8,197,1,48,35,1138207328
79,10,20,Ticks_Linear_8,198,5,42,127,1138220480
79,10,20,Ticks_Linear_8,199,5,42,127,1138839956
79,10,20,Ticks_Linear_8,200,1,48,34,1138865392
79,10,20,Ticks_Linear_8,201,5,42,127,1139459404
79,10,20,Ticks_Linear_8,202,1,48,32,1139460592
79,10,20,Ticks_Linear_8,203,1,48,39,1140055724
79,10,20,Ticks_Linear_8,204,5,42,127,1140080060
79,10,20,Ticks_Linear_8,205,1,48,21,1140662768
79,10,20,Ticks_Linear_8,206,5,42,127,1140699508
79,10,20,Ticks_Linear_8,207,5,42,127,1141320156
79,10,20,Ticks_Linear_8,208,1,48,31,1141350040
79,10,20,Ticks_Linear_8,209,5,42,127,1141930268
79,10,20,Ticks_Linear_8,210,1,48,29,1141945368
79,10,20,Ticks_Linear_8,211,1,48,36,1142527564
79,10,20,Ticks_Linear_8,212,5,42,127,1142539520
79,10,20,Ticks_Linear_8,213,1,48,25,1143085232
79,10,20,Ticks_Linear_8,214,5,42,127,1143150224
79,10,20,Ticks_Linear_8,215,5,42,127,1143760316
79,10,20,Ticks_Linear_8,216,1,48,33,1143786344
79,10,20,Ticks_Linear_8,217,5,42,127,1144369432
79,10,20,Ticks_Linear_8,218,1,48,26,1144454868
79,10,20,Ticks_Linear_8,219,5,42,127,1144969504
79,10,20,Ticks_Linear_8,220,1,48,38,1145102776
79,10,20,Ticks_Linear_8,221,5,42,127,1145569628
79,10,20,Ticks_Linear_8,222,1,48,33,1145642688
79,10,20,Ticks_Linear_8,223,5,42,127,1146169600
79,10,20,Ticks_Linear_8,224,1,48,34,1146215420
79,10,20,Ticks_Linear_8,225,1,48,40,1146756216
79,10,20,Ticks_Linear_8,226,5,42,127,1146769744
79,10,20,Ticks_Linear_8,227,1,48,34,1147366368
79,10,20,Ticks_Linear_8,228,5,42,127,1147369940
79,10,20,Ticks_Linear_8,229,5,42,127,1147959660
79,10,20,Ticks_Linear_8,230,1,48,35,1147986660
79,10,20,Ticks_Linear_8,231,1,48,45,1148539396
79,10,20,Ticks_Linear_8,232,5,42,127,1148549544
79,10,20,Ticks_Linear_8,233,1,48,40,1149117416
79,10,20,Ticks_Linear_8,234,5,42,127,1149140456
79,10,20,Ticks_Linear_8,235,5,42,127,1149730248
79,10,20,Ticks_Linear_8,236,1,48,35,1149755832
79,10,20,Ticks_Linear_8,237,5,42,127,1150320140
79,10,20,Ticks_Linear_8,238,1,48,33,1150339588
79,10,20,Ticks_Linear_8,239,1,48,35,1150897704
79,10,20,Ticks_Linear_8,240,5,42,127,1150899516
79,10,20,Ticks_Linear_8,241,1,48,38,1151475548
79,10,20,Ticks_Linear_8,242,5,42,127,1151480316
79,10,20,Ticks_Linear_8,243,5,42,127,1152060000
79,10,20,Ticks_Linear_8,244,1,48,33,1152067160
79,10,20,Ticks_Linear_8,245,5,42,127,1152640308
79,10,20,Ticks_Linear_8,246,1,48,37,1152644248
79,10,20,Ticks_Linear_8,247,5,42,127,1153219836
79,10,20,Ticks_Linear_8,248,1,48,31,1153252536
79,10,20,Ticks_Linear_8,249,5,42,127,1153790380
79,10,20,Ticks_Linear_8,250,1,48,40,1153796788
79,10,20,Ticks_Linear_8,251,1,48,38,1154332564
79,10,20,Ticks_Linear_8,252,5,42,127,1154359644
79,10,20,Ticks_Linear_8,253,5,42,127,1154930144
79,10,20,Ticks_Linear_8,254,1,48,36,1154936696
79,10,20,Ticks_Linear_8,255,5,42,127,1155500608
79,10,20,Ticks_Linear_8,256,1,48,35,1155541920
79,10,20,Ticks_Linear_8,257,1,48,46,1155992396
79,10,20,Ticks_Linear_8,258,5,42,127,1156069724
79,10,20,Ticks_Linear_8,259,1,48,22,1156629112
79,10,20,Ticks_Linear_8,260,5,42,127,1156630608
79,10,20,Ticks_Linear_8,261,1,48,35,1157181788
79,10,20,Ticks_Linear_8,262,5,42,127,1157189992
79,10,20,Ticks_Linear_8,263,5,42,127,1157750008
79,10,20,Ticks_Linear_8,264,1,48,25,1157791924
79,10,20,Ticks_Linear_8,265,5,42,127,1158310144
79,10,20,Ticks_Linear_8,266,1,48,42,1158343216
79,10,20,Ticks_Linear_8,267,1,48,40,1158838412
79,10,20,Ticks_Linear_8,268,5,42,127,1158870424
79,10,20,Ticks_Linear_8,269,5,42,127,1159420304
79,10,20,Ticks_Linear_8,270,1,48,32,1159428820
79,10,20,Ticks_Linear_8,271,5,42,127,1159970176
79,10,20,Ticks_Linear_8,272,1,48,38,1160039976
79,10,20,Ticks_Linear_8,273,5,42,127,1160520128
79,10,20,Ticks_Linear_8,274,1,48,43,1160530812
79,10,20,Ticks_Linear_8,275,5,42,127,1161070028
79,10,20,Ticks_Linear_8,276,1,48,30,1161085200
79,10,20,Ticks_Linear_8,277,5,42,127,1161619904
79,10,20,Ticks_Linear_8,278,1,48,36,1161647372
79,10,20,Ticks_Linear_8,279,1,48,41,1162139856
79,10,20,Ticks_Linear_8,280,5,42,127,1162159516
79,10,20,Ticks_Linear_8,281,5,42,127,1162700108
79,10,20,Ticks_Linear_8,282,1,48,40,1162728096
79,10,20,Ticks_Linear_8,283,5,42,127,1163239724
79,10,20,Ticks_Linear_8,284,1,48,34,1163256168
79,10,20,Ticks_Linear_8,285,5,42,127,1163779564
79,10,20,Ticks_Linear_8,286,1,48,40,1163790100
79,10,20,Ticks_Linear_8,287,5,42,127,1164320228
79,10,20,Ticks_Linear_8,288,1,48,41,1164321564
79,10,20,Ticks_Linear_8,289,5,42,127,1164849584
79,10,20,Ticks_Linear_8,290,1,48,40,1164862136
79,10,20,Ticks_Linear_8,291,5,42,127,1165379912
79,10,20,Ticks_Linear_8,292,1,48,37,1165392168
79,10,20,Ticks_Linear_8,293,5,42,127,1165910688
79,10,20,Ticks_Linear_8,294,1,48,34,1165918980
79,10,20,Ticks_Linear_8,295,5,42,127,1166439696
79,10,20,Ticks_Linear_8,296,1,48,34,1166479440
79,10,20,Ticks_Linear_8,297,1,48,34,1166929588
79,10,20,Ticks_Linear_8,298,5,42,127,1166970164
79,10,20,Ticks_Linear_8,299,1,48,19,1167008924
79,10,20,Ticks_Linear_8,300,5,42,127,1167490440
79,10,20,Ticks_Linear_8,301,1,48,36,1167499784
79,10,20,Ticks_Linear_8,302,1,48,28,1167991892
79,10,20,Ticks_Linear_8,303,5,42,127,1168019792
79,10,20,Ticks_Linear_8,304,5,42,127,1168540016
79,10,20,Ticks_Linear_8,305,1,48,35,1168558040
79,10,20,Ticks_Linear_8,306,5,42,127,1169060160
79,10,20,Ticks_Linear_8,307,1,48,40,1169083048
79,10,20,Ticks_Linear_8,308,1,48,32,1169568804
79,10,20,Ticks_Linear_8,309,5,42,127,1169580520
79,10,20,Ticks_Linear_8,310,1,48,30,1170084520
79,10,20,Ticks_Linear_8,311,5,42,127,1170090556
79,10,20,Ticks_Linear_8,312,5,42,127,1170600520
79,10,20,Ticks_Linear_8,313,1,48,30,1170608444
79,10,20,Ticks_Linear_8,314,5,42,127,1171110184
79,10,20,Ticks_Linear_8,315,1,48,35,1171126104
79,10,20,Ticks_Linear_8,316,1,48,32,1171606012
79,10,20,Ticks_Linear_8,317,5,42,127,1171620140
79,10,20,Ticks_Linear_8,318,5,42,127,1172130328
79,10,20,Ticks_Linear_8,319,1,48,35,1172147684
79,10,20,Ticks_Linear_8,320,5,42,127,1172629880
79,10,20,Ticks_Linear_8,321,1,48,33,1172661308
79,10,20,Ticks_Linear_8,322,1,48,35,1173127992
79,10,20,Ticks_Linear_8,323,5,42,127,1173129500
79,10,20,Ticks_Linear_8,324,1,48,33,1173586964
79,10,20,Ticks_Linear_8,325,5,42,127,1173630320
79,10,20,Ticks_Linear_8,326,5,42,127,1174130100
79,10,20,Ticks_Linear_8,327,1,48,31,1174191412
79,10,20,Ticks_Linear_8,328,5,42,127,1174629800
79,10,20,Ticks_Linear_8,329,1,48,33,1174633364
79,10,20,Ticks_Linear_8,330,1,48,31,1175119736
79,10,20,Ticks_Linear_8,331,5,42,127,1175121232
79,10,20,Ticks_Linear_8,332,5,42,127,1175609708
79,10,20,Ticks_Linear_8,333,1,48,37,1175621364
79,10,20,Ticks_Linear_8,334,1,48,40,1176084116
79,10,20,Ticks_Linear_8,335,5,42,127,1176100412
79,10,20,Ticks_Linear_8,336,1,48,33,1176587180
79,10,20,Ticks_Linear_8,337,5,42,127,1176589628
79,10,20,Ticks_Linear_8,338,5,42,127,1177080272
79,10,20,Ticks_Linear_8,0,9999,9999,9999,1066507380
79,10,20,Ticks_Linear_8,1,9999,9999,9999,1067327568
79,10,20,Ticks_Linear_8,2,9999,9999,9999,1068147784
79,10,20,Ticks_Linear_8,3,9999,9999,9999,1068968024
79,10,20,Ticks_Linear_8,4,9999,9999,9999,1069787220
79,10,20,Ticks_Linear_8,5,9999,9999,9999,1070597204
79,10,20,Ticks_Linear_8,6,9999,9999,9999,1071407188
79,10,20,Ticks_Linear_8,7,9999,9999,9999,1072217160
79,10,20,Ticks_Linear_8,8,9999,9999,9999,1073027176
79,10,20,Ticks_Linear_8,9,9999,9999,9999,1073837160
79,10,20,Ticks_Linear_8,10,9999,9999,9999,1074637932
79,10,20,Ticks_Linear_8,11,9999,9999,9999,1075437656
79,10,20,Ticks_Linear_8,12,9999,9999,9999,1076237380
79,10,20,Ticks_Linear_8,13,9999,9999,9999,1077037176
79,10,20,Ticks_Linear_8,14,9999,9999,9999,1077837940
79,10,20,Ticks_Linear_8,15,9999,9999,9999,1078627412
79,10,20,Ticks_Linear_8,16,9999,9999,9999,1079417944
79,10,20,Ticks_Linear_8,17,9999,9999,9999,1080207484
79,10,20,Ticks_Linear_8,18,9999,9999,9999,1080998000
79,10,20,Ticks_Linear_8,19,9999,9999,9999,1081787468
79,10,20,Ticks_Linear_8,20,9999,9999,9999,1082567792
79,10,20,Ticks_Linear_8,21,9999,9999,9999,1083348048
79,10,20,Ticks_Linear_8,22,9999,9999,9999,1084127328
79,10,20,Ticks_Linear_8,23,9999,9999,9999,1084907632
79,10,20,Ticks_Linear_8,24,9999,9999,9999,1085687876
79,10,20,Ticks_Linear_8,25,9999,9999,9999,1086457948
79,10,20,Ticks_Linear_8,26,9999,9999,9999,1087228020
79,10,20,Ticks_Linear_8,27,9999,9999,9999,1087998016
79,10,20,Ticks_Linear_8,28,9999,9999,9999,1088768076
79,10,20,Ticks_Linear_8,29,9999,9999,9999,1089547356
79,10,20,Ticks_Linear_8,30,9999,9999,9999,1090307172
79,10,20,Ticks_Linear_8,31,9999,9999,9999,1091068028
79,10,20,Ticks_Linear_8,32,9999,9999,9999,1091827832
79,10,20,Ticks_Linear_8,33,9999,9999,9999,1092587648
79,10,20,Ticks_Linear_8,34,9999,9999,9999,1093347380
79,10,20,Ticks_Linear_8,35,9999,9999,9999,1094097980
79,10,20,Ticks_Linear_8,36,9999,9999,9999,1094847604
79,10,20,Ticks_Linear_8,37,9999,9999,9999,1095597152
79,10,20,Ticks_Linear_8,38,9999,9999,9999,1096347744
79,10,20,Ticks_Linear_8,39,9999,9999,9999,1097097296
79,10,20,Ticks_Linear_8,40,9999,9999,9999,1097837636
79,10,20,Ticks_Linear_8,41,9999,9999,9999,1098578024
79,10,20,Ticks_Linear_8,42,9999,9999,9999,1099317316
79,10,20,Ticks_Linear_8,43,9999,9999,9999,1100057724
79,10,20,Ticks_Linear_8,44,9999,9999,9999,1100798064
79,10,20,Ticks_Linear_8,45,9999,9999,9999,1101527164
79,10,20,Ticks_Linear_8,46,9999,9999,9999,1102257248
79,10,20,Ticks_Linear_8,47,9999,9999,9999,1102987328
79,10,20,Ticks_Linear_8,48,9999,9999,9999,1103717472
79,10,20,Ticks_Linear_8,49,9999,9999,9999,1104447608
79,10,20,Ticks_Linear_8,50,9999,9999,9999,1105167420
79,10,20,Ticks_Linear_8,51,9999,9999,9999,1105887312
79,10,20,Ticks_Linear_8,52,9999,9999,9999,1106607208
79,10,20,Ticks_Linear_8,53,9999,9999,9999,1107328072
79,10,20,Ticks_Linear_8,54,9999,9999,9999,1108057160
79,10,20,Ticks_Linear_8,55,9999,9999,9999,1108767844
79,10,20,Ticks_Linear_8,56,9999,9999,9999,1109477480
79,10,20,Ticks_Linear_8,57,9999,9999,9999,1110187104
79,10,20,Ticks_Linear_8,58,9999,9999,9999,1110897720
79,10,20,Ticks_Linear_8,59,9999,9999,9999,1111607400
79,10,20,Ticks_Linear_8,60,9999,9999,9999,1112307820
79,10,20,Ticks_Linear_8,61,9999,9999,9999,1113007200
79,10,20,Ticks_Linear_8,62,9999,9999,9999,1113707592
79,10,20,Ticks_Linear_8,63,9999,9999,9999,1114407992
79,10,20,Ticks_Linear_8,64,9999,9999,9999,1115107448
79,10,20,Ticks_Linear_8,65,9999,9999,9999,1115797612
79,10,20,Ticks_Linear_8,66,9999,9999,9999,1116487748
79,10,20,Ticks_Linear_8,67,9999,9999,9999,1117177912
79,10,20,Ticks_Linear_8,68,9999,9999,9999,1117867104
79,10,20,Ticks_Linear_8,69,9999,9999,9999,1118557312
79,10,20,Ticks_Linear_8,70,9999,9999,9999,1119237220
79,10,20,Ticks_Linear_8,71,9999,9999,9999,1119917124
79,10,20,Ticks_Linear_8,72,9999,9999,9999,1120598124
79,10,20,Ticks_Linear_8,73,9999,9999,9999,1121287236
79,10,20,Ticks_Linear_8,74,9999,9999,9999,1121967216
79,10,20,Ticks_Linear_8,75,9999,9999,9999,1122637888
79,10,20,Ticks_Linear_8,76,9999,9999,9999,1123307608
79,10,20,Ticks_Linear_8,77,9999,9999,9999,1123977320
79,10,20,Ticks_Linear_8,78,9999,9999,9999,1124647996
79,10,20,Ticks_Linear_8,79,9999,9999,9999,1125317708
79,10,20,Ticks_Linear_8,80,9999,9999,9999,1125977144
79,10,20,Ticks_Linear_8,81,9999,9999,9999,1126637656
79,10,20,Ticks_Linear_8,82,9999,9999,9999,1127297116
79,10,20,Ticks_Linear_8,83,9999,9999,9999,1127957600
79,10,20,Ticks_Linear_8,84,9999,9999,9999,1128618100
79,10,20,Ticks_Linear_8,85,9999,9999,9999,1129267276
79,10,20,Ticks_Linear_8,86,9999,9999,9999,1129917532
79,10,20,Ticks_Linear_8,87,9999,9999,9999,1130567752
79,10,20,Ticks_Linear_8,88,9999,9999,9999,1131218000
79,10,20,Ticks_Linear_8,89,9999,9999,9999,1131867252
79,10,20,Ticks_Linear_8,90,9999,9999,9999,1132507244
79,10,20,Ticks_Linear_8,91,9999,9999,9999,1133147200
79,10,20,Ticks_Linear_8,92,9999,9999,9999,1133787196
79,10,20,Ticks_Linear_8,93,9999,9999,9999,1134427236
79,10,20,Ticks_Linear_8,94,9999,9999,9999,1135067224
79,10,20,Ticks_Linear_8,95,9999,9999,9999,1135697976
79,10,20,Ticks_Linear_8,96,9999,9999,9999,1136327776
79,10,20,Ticks_Linear_8,97,9999,9999,9999,1136957560
79,10,20,Ticks_Linear_8,98,9999,9999,9999,1137587280
79,10,20,Ticks_Linear_8,99,9999,9999,9999,1138218104
79,10,20,Ticks_Linear_8,100,9999,9999,9999,1138837584
79,10,20,Ticks_Linear_8,101,9999,9999,9999,1139457104
79,10,20,Ticks_Linear_8,102,9999,9999,9999,1140077688
79,10,20,Ticks_Linear_8,103,9999,9999,9999,1140697208
79,10,20,Ticks_Linear_8,104,9999,9999,9999,1141317708
79,10,20,Ticks_Linear_8,105,9999,9999,9999,1141928044
79,10,20,Ticks_Linear_8,106,9999,9999,9999,1142537296
79,10,20,Ticks_Linear_8,107,9999,9999,9999,1143147628
79,10,20,Ticks_Linear_8,108,9999,9999,9999,1143757944
79,10,20,Ticks_Linear_8,109,9999,9999,9999,1144367204
79,10,20,Ticks_Linear_8,110,9999,9999,9999,1144967280
79,10,20,Ticks_Linear_8,111,9999,9999,9999,1145567328
79,10,20,Ticks_Linear_8,112,9999,9999,9999,1146167376
79,10,20,Ticks_Linear_8,113,9999,9999,9999,1146767444
79,10,20,Ticks_Linear_8,114,9999,9999,9999,1147367492
79,10,20,Ticks_Linear_8,115,9999,9999,9999,1147957364
79,10,20,Ticks_Linear_8,116,9999,9999,9999,1148547172
79,10,20,Ticks_Linear_8,117,9999,9999,9999,1149138008
79,10,20,Ticks_Linear_8,118,9999,9999,9999,1149727800
79,10,20,Ticks_Linear_8,119,9999,9999,9999,1150317692
79,10,20,Ticks_Linear_8,120,9999,9999,9999,1150897240
79,10,20,Ticks_Linear_8,121,9999,9999,9999,1151477868
79,10,20,Ticks_Linear_8,122,9999,9999,9999,1152057404
79,10,20,Ticks_Linear_8,123,9999,9999,9999,1152638008
79,10,20,Ticks_Linear_8,124,9999,9999,9999,1153217612
79,10,20,Ticks_Linear_8,125,9999,9999,9999,1153788004
79,10,20,Ticks_Linear_8,126,9999,9999,9999,1154357344
79,10,20,Ticks_Linear_8,127,9999,9999,9999,1154927696
79,10,20,Ticks_Linear_8,128,9999,9999,9999,1155498088
79,10,20,Ticks_Linear_8,129,9999,9999,9999,1156067428
79,10,20,Ticks_Linear_8,130,9999,9999,9999,1156627568
79,10,20,Ticks_Linear_8,131,9999,9999,9999,1157187696
79,10,20,Ticks_Linear_8,132,9999,9999,9999,1157747784
79,10,20,Ticks_Linear_8,133,9999,9999,9999,1158307920
79,10,20,Ticks_Linear_8,134,9999,9999,9999,1158868048
79,10,20,Ticks_Linear_8,135,9999,9999,9999,1159417928
79,10,20,Ticks_Linear_8,136,9999,9999,9999,1159967804
79,10,20,Ticks_Linear_8,137,9999,9999,9999,1160517756
79,10,20,Ticks_Linear_8,138,9999,9999,9999,1161067580
79,10,20,Ticks_Linear_8,139,9999,9999,9999,1161617532
79,10,20,Ticks_Linear_8,140,9999,9999,9999,1162157140
79,10,20,Ticks_Linear_8,141,9999,9999,9999,1162697808
79,10,20,Ticks_Linear_8,142,9999,9999,9999,1163237500
79,10,20,Ticks_Linear_8,143,9999,9999,9999,1163777116
79,10,20,Ticks_Linear_8,144,9999,9999,9999,1164317780
79,10,20,Ticks_Linear_8,145,9999,9999,9999,1164847212
79,10,20,Ticks_Linear_8,146,9999,9999,9999,1165377612
79,10,20,Ticks_Linear_8,147,9999,9999,9999,1165908088
79,10,20,Ticks_Linear_8,148,9999,9999,9999,1166437468
79,10,20,Ticks_Linear_8,149,9999,9999,9999,1166967864
79,10,20,Ticks_Linear_8,150,9999,9999,9999,1167488068
79,10,20,Ticks_Linear_8,151,9999,9999,9999,1168017492
79,10,20,Ticks_Linear_8,152,9999,9999,9999,1168537716
79,10,20,Ticks_Linear_8,153,9999,9999,9999,1169057860
79,10,20,Ticks_Linear_8,154,9999,9999,9999,1169578072
79,10,20,Ticks_Linear_8,155,9999,9999,9999,1170088032
79,10,20,Ticks_Linear_8,156,9999,9999,9999,1170598000
79,10,20,Ticks_Linear_8,157,9999,9999,9999,1171107960
79,10,20,Ticks_Linear_8,158,9999,9999,9999,1171617916
79,10,20,Ticks_Linear_8,159,9999,9999,9999,1172127804
79,10,20,Ticks_Linear_8,160,9999,9999,9999,1172627580
79,10,20,Ticks_Linear_8,161,9999,9999,9999,1173127280
79,10,20,Ticks_Linear_8,162,9999,9999,9999,1173628020
79,10,20,Ticks_Linear_8,163,9999,9999,9999,1174127728
79,10,20,Ticks_Linear_8,164,9999,9999,9999,1174627428
79,10,20,Ticks_Linear_8,165,9999,9999,9999,1175117892
79,10,20,Ticks_Linear_8,166,9999,9999,9999,1175607408
79,10,20,Ticks_Linear_8,167,9999,9999,9999,1176097888
79,10,20,Ticks_Linear_8,168,9999,9999,9999,1176587332
79,10,20,Ticks_Linear_8,169,9999,9999,9999,1177077824
79,11,25,Jits_Pract_5,0,5,56,103,1221805392
79,11,25,Jits_Pract_5,1,5,63,98,1221808564
79,11,25,Jits_Pract_5,2,5,80,127,1221811464
79,11,25,Jits_Pract_5,0,5,56,103,1222305268
79,11,25,Jits_Pract_5,1,5,63,98,1222308288
79,11,25,Jits_Pract_5,2,5,80,127,1222311340
79,11,25,Jits_Pract_5,0,5,56,103,1222804936
79,11,25,Jits_Pract_5,1,5,80,127,1222815132
79,11,25,Jits_Pract_5,2,5,63,98,1222834544
79,11,25,Jits_Pract_5,0,5,63,98,1223255280
79,11,25,Jits_Pract_5,1,5,80,127,1223285132
79,11,25,Jits_Pract_5,2,5,56,103,1223295328
79,11,25,Jits_Pract_5,0,5,80,127,1223814596
79,11,25,Jits_Pract_5,1,5,56,103,1223824868
79,11,25,Jits_Pract_5,2,5,63,98,1223854392
79,11,25,Jits_Pract_5,0,5,63,98,1224305132
79,11,25,Jits_Pract_5,1,5,56,103,1224334808
79,11,25,Jits_Pract_5,2,5,80,127,1224344852
79,11,25,Jits_Pract_5,0,5,56,103,1224754640
79,11,25,Jits_Pract_5,1,5,63,98,1224804792
79,11,25,Jits_Pract_5,2,5,80,127,1224825476
79,11,25,Jits_Pract_5,0,5,80,127,1225255204
79,11,25,Jits_Pract_5,1,5,63,98,1225304588
79,11,25,Jits_Pract_5,2,5,56,103,1225345448
79,11,25,Jits_Pract_5,0,5,56,103,1225755100
79,11,25,Jits_Pract_5,1,5,63,98,1225784552
79,11,25,Jits_Pract_5,2,5,80,127,1225855452
79,11,25,Jits_Pract_5,0,5,56,103,1226254768
79,11,25,Jits_Pract_5,1,5,80,127,1226315088
79,11,25,Jits_Pract_5,2,5,63,98,1226344936
79,11,25,Jits_Pract_5,0,5,56,103,1226764780
79,11,25,Jits_Pract_5,1,5,63,98,1226774752
79,11,25,Jits_Pract_5,2,5,80,127,1226814988
79,11,25,Jits_Pract_5,0,5,63,98,1227255304
79,11,25,Jits_Pract_5,1,5,80,127,1227335252
79,11,25,Jits_Pract_5,2,5,56,103,1227345224
79,11,25,Jits_Pract_5,0,5,63,98,1227805160
79,11,25,Jits_Pract_5,1,5,56,103,1227845324
79,11,25,Jits_Pract_5,2,5,80,127,1227848240
79,11,25,Jits_Pract_5,0,5,56,103,1228264724
79,11,25,Jits_Pract_5,1,5,63,98,1228275368
79,11,25,Jits_Pract_5,2,5,80,127,1228315084
79,11,25,Jits_Pract_5,0,5,56,103,1228755168
79,11,25,Jits_Pract_5,1,5,63,98,1228758244
79,11,25,Jits_Pract_5,2,5,80,127,1228774812
79,11,25,Jits_Pract_5,0,9999,9999,9999,1222052980
79,11,25,Jits_Pract_5,1,9999,9999,9999,1222552628
79,11,25,Jits_Pract_5,2,9999,9999,9999,1223052376
79,11,25,Jits_Pract_5,3,9999,9999,9999,1223552116
79,11,25,Jits_Pract_5,4,9999,9999,9999,1224052824
79,11,25,Jits_Pract_5,5,9999,9999,9999,1224552500
79,11,25,Jits_Pract_5,6,9999,9999,9999,1225052300
79,11,25,Jits_Pract_5,7,9999,9999,9999,1225552992
79,11,25,Jits_Pract_5,8,9999,9999,9999,1226052660
79,11,25,Jits_Pract_5,9,9999,9999,9999,1226552408
79,11,25,Jits_Pract_5,10,9999,9999,9999,1227052152
79,11,25,Jits_Pract_5,11,9999,9999,9999,1227552868
79,11,25,Jits_Pract_5,12,9999,9999,9999,1228052592
79,11,25,Jits_Pract_5,13,9999,9999,9999,1228552244
79,11,25,Jits_Pract_5,14,9999,9999,9999,1229053020
79,12,25,Jits_Pract_5,0,5,56,103,1287192012
79,12,25,Jits_Pract_5,1,5,63,98,1287194888
79,12,25,Jits_Pract_5,2,5,80,127,1287198088
79,12,25,Jits_Pract_5,0,5,56,103,1287691816
79,12,25,Jits_Pract_5,1,5,63,98,1287694916
79,12,25,Jits_Pract_5,2,5,80,127,1287697960
79,12,25,Jits_Pract_5,0,1,48,13,1288161708
79,12,25,Jits_Pract_5,1,5,56,103,1288192300
79,12,25,Jits_Pract_5,2,5,80,127,1288201820
79,12,25,Jits_Pract_5,3,5,63,98,1288222056
79,12,25,Jits_Pract_5,0,5,63,98,1288641800
79,12,25,Jits_Pract_5,1,5,80,127,1288671552
79,12,25,Jits_Pract_5,2,5,56,103,1288681744
79,12,25,Jits_Pract_5,3,1,48,19,1288706584
79,12,25,Jits_Pract_5,0,1,48,20,1289158076
79,12,25,Jits_Pract_5,1,5,80,127,1289202236
79,12,25,Jits_Pract_5,2,5,56,103,1289212656
79,12,25,Jits_Pract_5,3,5,63,98,1289242184
79,12,25,Jits_Pract_5,0,5,63,98,1289691676
79,12,25,Jits_Pract_5,1,1,48,25,1289714200
79,12,25,Jits_Pract_5,2,5,56,103,1289722168
79,12,25,Jits_Pract_5,3,5,80,127,1289731616
79,12,25,Jits_Pract_5,0,5,56,103,1290142000
79,12,25,Jits_Pract_5,1,5,63,98,1290192348
79,12,25,Jits_Pract_5,2,1,48,21,1290201992
79,12,25,Jits_Pract_5,3,5,80,127,1290211608
79,12,25,Jits_Pract_5,0,5,80,127,1290641704
79,12,25,Jits_Pract_5,1,1,48,26,1290667668
79,12,25,Jits_Pract_5,2,5,63,98,1290691824
79,12,25,Jits_Pract_5,3,5,56,103,1290731912
79,12,25,Jits_Pract_5,0,5,56,103,1291141704
79,12,25,Jits_Pract_5,1,5,63,98,1291172428
79,12,25,Jits_Pract_5,2,1,48,26,1291215776
79,12,25,Jits_Pract_5,3,5,80,127,1291241952
79,12,25,Jits_Pract_5,0,5,56,103,1291642384
79,12,25,Jits_Pract_5,1,1,48,24,1291652328
79,12,25,Jits_Pract_5,2,5,80,127,1291701720
79,12,25,Jits_Pract_5,3,5,63,98,1291732588
79,12,25,Jits_Pract_5,0,5,56,103,1292152128
79,12,25,Jits_Pract_5,1,5,63,98,1292162696
79,12,25,Jits_Pract_5,2,1,48,25,1292187768
79,12,25,Jits_Pract_5,3,5,80,127,1292202404
79,12,25,Jits_Pract_5,0,5,63,98,1292641644
79,12,25,Jits_Pract_5,1,1,48,25,1292647608
79,12,25,Jits_Pract_5,2,5,80,127,1292721508
79,12,25,Jits_Pract_5,3,5,56,103,1292731704
79,12,25,Jits_Pract_5,0,1,48,29,1293181616
79,12,25,Jits_Pract_5,1,5,63,98,1293191676
79,12,25,Jits_Pract_5,2,5,56,103,1293231540
79,12,25,Jits_Pract_5,3,5,80,127,1293234456
79,12,25,Jits_Pract_5,0,5,56,103,1293661552
79,12,25,Jits_Pract_5,1,5,63,98,1293671748
79,12,25,Jits_Pract_5,2,1,48,20,1293696064
79,12,25,Jits_Pract_5,3,5,80,127,1293711752
79,12,25,Jits_Pract_5,0,5,56,103,1294152012
79,12,25,Jits_Pract_5,1,1,48,25,1294153520
79,12,25,Jits_Pract_5,2,5,63,98,1294156340
79,12,25,Jits_Pract_5,3,5,80,127,1294171592
79,12,25,Jits_Pract_5,0,9999,9999,9999,1287439452
79,12,25,Jits_Pract_5,1,9999,9999,9999,1287939180
79,12,25,Jits_Pract_5,2,9999,9999,9999,1288439876
79,12,25,Jits_Pract_5,3,9999,9999,9999,1288939636
79,12,25,Jits_Pract_5,4,9999,9999,9999,1289439328
79,12,25,Jits_Pract_5,5,9999,9999,9999,1289940072
79,12,25,Jits_Pract_5,6,9999,9999,9999,1290439760
79,12,25,Jits_Pract_5,7,9999,9999,9999,1290939468
79,12,25,Jits_Pract_5,8,9999,9999,9999,1291439172
79,12,25,Jits_Pract_5,9,9999,9999,9999,1291939924
79,12,25,Jits_Pract_5,10,9999,9999,9999,1292439628
79,12,25,Jits_Pract_5,11,9999,9999,9999,1292939336
79,12,25,Jits_Pract_5,12,9999,9999,9999,1293440068
79,12,25,Jits_Pract_5,13,9999,9999,9999,1293950024
79,12,25,Jits_Pract_5,14,9999,9999,9999,1294449788
79,13,24,Jits_Pract_8,0,5,56,103,1302600212
79,13,24,Jits_Pract_8,1,5,63,98,1302603312
79,13,24,Jits_Pract_8,2,5,80,127,1302606428
79,13,24,Jits_Pract_8,0,5,56,103,1303410140
79,13,24,Jits_Pract_8,1,5,63,98,1303413088
79,13,24,Jits_Pract_8,2,5,80,127,1303416284
79,13,24,Jits_Pract_8,0,5,80,127,1304159600
79,13,24,Jits_Pract_8,1,1,48,21,1304237348
79,13,24,Jits_Pract_8,2,5,63,98,1304249652
79,13,24,Jits_Pract_8,3,5,56,103,1304259852
79,13,24,Jits_Pract_8,0,5,56,103,1304979828
79,13,24,Jits_Pract_8,1,5,63,98,1304990172
79,13,24,Jits_Pract_8,2,1,48,24,1305041316
79,13,24,Jits_Pract_8,3,5,80,127,1305080148
79,13,24,Jits_Pract_8,0,5,63,98,1305749780
79,13,24,Jits_Pract_8,1,5,80,127,1305779532
79,13,24,Jits_Pract_8,2,1,48,27,1305783620
79,13,24,Jits_Pract_8,3,5,56,103,1305810320
79,13,24,Jits_Pract_8,0,1,48,27,1306538640
79,13,24,Jits_Pract_8,1,5,56,103,1306549524
79,13,24,Jits_Pract_8,2,5,80,127,1306650056
79,13,24,Jits_Pract_8,3,5,63,98,1306700256
79,13,24,Jits_Pract_8,0,5,56,103,1307350412
79,13,24,Jits_Pract_8,1,5,80,127,1307399568
79,13,24,Jits_Pract_8,2,5,63,98,1307439504
79,13,24,Jits_Pract_8,3,1,48,28,1307499064
79,13,24,Jits_Pract_8,0,5,80,127,1308179928
79,13,24,Jits_Pract_8,1,5,63,98,1308209528
79,13,24,Jits_Pract_8,2,1,48,25,1308254096
79,13,24,Jits_Pract_8,3,5,56,103,1308280124
79,13,24,Jits_Pract_8,0,5,63,98,1309010272
79,13,24,Jits_Pract_8,1,1,48,27,1309018740
79,13,24,Jits_Pract_8,2,5,56,103,1309040112
79,13,24,Jits_Pract_8,3,5,80,127,1309100352
79,13,24,Jits_Pract_8,0,5,56,103,1309749640
79,13,24,Jits_Pract_8,1,5,80,127,1309752780
79,13,24,Jits_Pract_8,2,1,48,25,1309781752
79,13,24,Jits_Pract_8,3,5,63,98,1309869308
79,13,24,Jits_Pract_8,0,1,48,26,1310625652
79,13,24,Jits_Pract_8,1,5,56,103,1310630332
79,13,24,Jits_Pract_8,2,5,80,127,1310670048
79,13,24,Jits_Pract_8,3,5,63,98,1310680392
79,13,24,Jits_Pract_8,0,5,56,103,1311390320
79,13,24,Jits_Pract_8,1,5,80,127,1311409436
79,13,24,Jits_Pract_8,2,1,48,30,1311439452
79,13,24,Jits_Pract_8,3,5,63,98,1311490268
79,13,24,Jits_Pract_8,0,5,80,127,1312179604
79,13,24,Jits_Pract_8,1,1,48,29,1312261464
79,13,24,Jits_Pract_8,2,5,56,103,1312279996
79,13,24,Jits_Pract_8,3,5,63,98,1312290120
79,13,24,Jits_Pract_8,0,5,63,98,1312949632
79,13,24,Jits_Pract_8,1,5,80,127,1313010172
79,13,24,Jits_Pract_8,2,5,56,103,1313020220
79,13,24,Jits_Pract_8,3,1,48,31,1313070684
79,13,24,Jits_Pract_8,0,5,56,103,1313750428
79,13,24,Jits_Pract_8,1,5,63,98,1313820112
79,13,24,Jits_Pract_8,2,5,80,127,1313823400
79,13,24,Jits_Pract_8,3,1,48,25,1313959524
79,13,24,Jits_Pract_8,0,9999,9999,9999,1302998096
79,13,24,Jits_Pract_8,1,9999,9999,9999,1303808072
79,13,24,Jits_Pract_8,2,9999,9999,9999,1304618052
79,13,24,Jits_Pract_8,3,9999,9999,9999,1305417824
79,13,24,Jits_Pract_8,4,9999,9999,9999,1306217540
79,13,24,Jits_Pract_8,5,9999,9999,9999,1307017300
79,13,24,Jits_Pract_8,6,9999,9999,9999,1307818100
79,13,24,Jits_Pract_8,7,9999,9999,9999,1308617804
79,13,24,Jits_Pract_8,8,9999,9999,9999,1309417580
79,13,24,Jits_Pract_8,9,9999,9999,9999,1310217320
79,13,24,Jits_Pract_8,10,9999,9999,9999,1311018068
79,13,24,Jits_Pract_8,11,9999,9999,9999,1311817832
79,13,24,Jits_Pract_8,12,9999,9999,9999,1312617556
79,13,24,Jits_Pract_8,13,9999,9999,9999,1313417320
79,13,24,Jits_Pract_8,14,9999,9999,9999,1314218108
79,14,17,Jits_Phase_5,0,5,56,103,1342861624
79,14,17,Jits_Phase_5,1,5,63,98,1342864652
79,14,17,Jits_Phase_5,2,5,80,127,1342867852
79,14,17,Jits_Phase_5,0,5,56,103,1343362376
79,14,17,Jits_Phase_5,1,5,63,98,1343365552
79,14,17,Jits_Phase_5,2,5,80,127,1343368528
79,14,17,Jits_Phase_5,0,1,48,23,1343824736
79,14,17,Jits_Phase_5,1,5,56,103,1343862248
79,14,17,Jits_Phase_5,2,5,80,127,1343872372
79,14,17,Jits_Phase_5,3,5,63,98,1343891780
79,14,17,Jits_Phase_5,0,5,63,98,1344311636
79,14,17,Jits_Phase_5,1,1,48,19,1344340844
79,14,17,Jits_Phase_5,2,5,80,127,1344342300
79,14,17,Jits_Phase_5,3,5,56,103,1344351448
79,14,17,Jits_Phase_5,0,1,48,26,1344820788
79,14,17,Jits_Phase_5,1,5,80,127,1344871780
79,14,17,Jits_Phase_5,2,5,56,103,1344882272
79,14,17,Jits_Phase_5,3,5,63,98,1344911724
79,14,17,Jits_Phase_5,0,5,63,98,1345371388
79,14,17,Jits_Phase_5,1,1,48,23,1345377576
79,14,17,Jits_Phase_5,2,5,56,103,1345402400
79,14,17,Jits_Phase_5,3,5,80,127,1345411400
79,14,17,Jits_Phase_5,0,5,56,103,1345822336
79,14,17,Jits_Phase_5,1,1,48,25,1345864488
79,14,17,Jits_Phase_5,2,5,63,98,1345872380
79,14,17,Jits_Phase_5,3,5,80,127,1345891668
79,14,17,Jits_Phase_5,0,5,80,127,1346321728
79,14,17,Jits_Phase_5,1,1,48,24,1346325364
79,14,17,Jits_Phase_5,2,5,63,98,1346371920
79,14,17,Jits_Phase_5,3,5,56,103,1346411880
79,14,17,Jits_Phase_5,0,5,56,103,1346821416
79,14,17,Jits_Phase_5,1,5,63,98,1346852360
79,14,17,Jits_Phase_5,2,1,48,24,1346876676
79,14,17,Jits_Phase_5,3,5,80,127,1346921756
79,14,17,Jits_Phase_5,0,1,48,27,1347313872
79,14,17,Jits_Phase_5,1,5,56,103,1347322364
79,14,17,Jits_Phase_5,2,5,80,127,1347381556
79,14,17,Jits_Phase_5,3,5,63,98,1347412412
79,14,17,Jits_Phase_5,0,5,56,103,1347832308
79,14,17,Jits_Phase_5,1,5,63,98,1347842356
79,14,17,Jits_Phase_5,2,1,48,26,1347847040
79,14,17,Jits_Phase_5,3,5,80,127,1347882284
79,14,17,Jits_Phase_5,0,5,63,98,1348321508
79,14,17,Jits_Phase_5,1,1,48,25,1348349488
79,14,17,Jits_Phase_5,2,5,80,127,1348401444
79,14,17,Jits_Phase_5,3,5,56,103,1348411640
79,14,17,Jits_Phase_5,0,1,48,26,1348824960
79,14,17,Jits_Phase_5,1,5,63,98,1348871520
79,14,17,Jits_Phase_5,2,5,56,103,1348911456
79,14,17,Jits_Phase_5,3,5,80,127,1348914672
79,14,17,Jits_Phase_5,0,5,56,103,1349341452
79,14,17,Jits_Phase_5,1,5,63,98,1349351724
79,14,17,Jits_Phase_5,2,5,80,127,1349391584
79,14,17,Jits_Phase_5,3,1,48,32,1349395220
79,14,17,Jits_Phase_5,0,5,56,103,1349832212
79,14,17,Jits_Phase_5,1,5,63,98,1349835428
79,14,17,Jits_Phase_5,2,5,80,127,1349851628
79,14,17,Jits_Phase_5,3,1,48,32,1349872804
79,14,17,Jits_Phase_5,0,5,80,127,1350342156
79,14,17,Jits_Phase_5,1,1,48,27,1350344596
79,14,17,Jits_Phase_5,2,5,56,103,1350352196
79,14,17,Jits_Phase_5,3,5,63,98,1350421944
79,14,17,Jits_Phase_5,0,5,63,98,1350831432
79,14,17,Jits_Phase_5,1,5,56,103,1350852040
79,14,17,Jits_Phase_5,2,1,48,29,1350878376
79,14,17,Jits_Phase_5,3,5,80,127,1350931972
79,14,17,Jits_Phase_5,0,1,48,28,1351320884
79,14,17,Jits_Phase_5,1,5,56,103,1351341360
79,14,17,Jits_Phase_5,2,5,80,127,1351382344
79,14,17,Jits_Phase_5,3,5,63,98,1351391492
79,14,17,Jits_Phase_5,0,1,48,28,1351799040
79,14,17,Jits_Phase_5,1,5,80,127,1351832188
79,14,17,Jits_Phase_5,2,5,63,98,1351861568
79,14,17,Jits_Phase_5,3,5,56,103,1351901560
79,14,17,Jits_Phase_5,0,1,48,32,1352315648
79,14,17,Jits_Phase_5,1,5,56,103,1352352016
79,14,17,Jits_Phase_5,2,5,63,98,1352381840
79,14,17,Jits_Phase_5,3,5,80,127,1352432096
79,14,17,Jits_Phase_5,0,5,80,127,1352851920
79,14,17,Jits_Phase_5,1,1,48,32,1352856980
79,14,17,Jits_Phase_5,2,5,56,103,1352892072
79,14,17,Jits_Phase_5,3,5,63,98,1352902416
79,14,17,Jits_Phase_5,0,5,80,127,1353332204
79,14,17,Jits_Phase_5,1,1,48,28,1353347156
79,14,17,Jits_Phase_5,2,5,63,98,1353371984
79,14,17,Jits_Phase_5,3,5,56,103,1353432592
79,14,17,Jits_Phase_5,0,5,56,103,1353831960
79,14,17,Jits_Phase_5,1,5,80,127,1353842156
79,14,17,Jits_Phase_5,2,1,48,32,1353867448
79,14,17,Jits_Phase_5,3,5,63,98,1353921940
79,14,17,Jits_Phase_5,0,5,80,127,1354331572
79,14,17,Jits_Phase_5,1,5,63,98,1354392036
79,14,17,Jits_Phase_5,2,1,48,31,1354394932
79,14,17,Jits_Phase_5,3,5,56,103,1354421628
79,14,17,Jits_Phase_5,0,5,56,103,1354832212
79,14,17,Jits_Phase_5,1,5,80,127,1354891728
79,14,17,Jits_Phase_5,2,1,48,34,1354908176
79,14,17,Jits_Phase_5,3,5,63,98,1354931580
79,14,17,Jits_Phase_5,0,5,56,103,1355382120
79,14,17,Jits_Phase_5,1,1,48,29,1355385240
79,14,17,Jits_Phase_5,2,5,63,98,1355392308
79,14,17,Jits_Phase_5,3,5,80,127,1355395596
79,14,17,Jits_Phase_5,0,5,80,127,1355832028
79,14,17,Jits_Phase_5,1,1,48,32,1355883796
79,14,17,Jits_Phase_5,2,5,63,98,1355921880
79,14,17,Jits_Phase_5,3,5,56,103,1355932148
79,14,17,Jits_Phase_5,0,5,56,103,1356332452
79,14,17,Jits_Phase_5,1,5,63,98,1356335472
79,14,17,Jits_Phase_5,2,5,80,127,1356338672
79,14,17,Jits_Phase_5,3,1,48,29,1356386692
79,14,17,Jits_Phase_5,0,1,48,29,1356827368
79,14,17,Jits_Phase_5,1,5,80,127,1356861868
79,14,17,Jits_Phase_5,2,5,63,98,1356912092
79,14,17,Jits_Phase_5,3,5,56,103,1356941752
79,14,17,Jits_Phase_5,0,5,56,103,1357342216
79,14,17,Jits_Phase_5,1,5,80,127,1357352412
79,14,17,Jits_Phase_5,2,1,48,32,1357371268
79,14,17,Jits_Phase_5,3,5,63,98,1357421960
79,14,17,Jits_Phase_5,0,5,56,103,1357852092
79,14,17,Jits_Phase_5,1,1,48,32,1357861584
79,14,17,Jits_Phase_5,2,5,63,98,1357871648
79,14,17,Jits_Phase_5,3,5,80,127,1357931908
79,14,17,Jits_Phase_5,0,1,48,29,1358330948
79,14,17,Jits_Phase_5,1,5,80,127,1358332444
79,14,17,Jits_Phase_5,2,5,63,98,1358402048
79,14,17,Jits_Phase_5,3,5,56,103,1358422312
79,14,17,Jits_Phase_5,0,1,48,28,1358841020
79,14,17,Jits_Phase_5,1,5,80,127,1358851304
79,14,17,Jits_Phase_5,2,5,56,103,1358861796
79,14,17,Jits_Phase_5,3,5,63,98,1358871844
79,14,17,Jits_Phase_5,0,1,48,29,1359325844
79,14,17,Jits_Phase_5,1,5,80,127,1359342056
79,14,17,Jits_Phase_5,2,5,56,103,1359362292
79,14,17,Jits_Phase_5,3,5,63,98,1359432176
79,14,17,Jits_Phase_5,0,5,56,103,1359852076
79,14,17,Jits_Phase_5,1,1,48,33,1359853864
79,14,17,Jits_Phase_5,2,5,80,127,1359881596
79,14,17,Jits_Phase_5,3,5,63,98,1359902056
79,14,17,Jits_Phase_5,0,5,63,98,1360342328
79,14,17,Jits_Phase_5,1,1,48,28,1360346272
79,14,17,Jits_Phase_5,2,5,56,103,1360402036
79,14,17,Jits_Phase_5,3,5,80,127,1360431560
79,14,17,Jits_Phase_5,0,5,63,98,1360831812
79,14,17,Jits_Phase_5,1,5,80,127,1360835028
79,14,17,Jits_Phase_5,2,1,48,31,1360852316
79,14,17,Jits_Phase_5,3,5,56,103,1360921932
79,14,17,Jits_Phase_5,0,1,48,31,1361324996
79,14,17,Jits_Phase_5,1,5,56,103,1361352076
79,14,17,Jits_Phase_5,2,5,63,98,1361381676
79,14,17,Jits_Phase_5,3,5,80,127,1361422420
79,14,17,Jits_Phase_5,0,1,48,31,1361830004
79,14,17,Jits_Phase_5,1,5,63,98,1361852048
79,14,17,Jits_Phase_5,2,5,56,103,1361891764
79,14,17,Jits_Phase_5,3,5,80,127,1361912296
79,14,17,Jits_Phase_5,0,1,48,27,1362344948
79,14,17,Jits_Phase_5,1,5,63,98,1362361984
79,14,17,Jits_Phase_5,2,5,56,103,1362401776
79,14,17,Jits_Phase_5,3,5,80,127,1362411968
79,14,17,Jits_Phase_5,0,5,80,127,1362842116
79,14,17,Jits_Phase_5,1,1,48,31,1362862768
79,14,17,Jits_Phase_5,2,5,63,98,1362911864
79,14,17,Jits_Phase_5,3,5,56,103,1362932024
79,14,17,Jits_Phase_5,0,5,56,103,1363331540
79,14,17,Jits_Phase_5,1,5,80,127,1363352000
79,14,17,Jits_Phase_5,2,1,48,35,1363390272
79,14,17,Jits_Phase_5,3,5,63,98,1363391780
79,14,17,Jits_Phase_5,0,5,63,98,1363842388
79,14,17,Jits_Phase_5,1,5,80,127,1363861948
79,14,17,Jits_Phase_5,2,1,48,28,1363888060
79,14,17,Jits_Phase_5,3,5,56,103,1363901876
79,14,17,Jits_Phase_5,0,5,63,98,1364341984
79,14,17,Jits_Phase_5,1,1,48,27,1364347120
79,14,17,Jits_Phase_5,2,5,56,103,1364361760
79,14,17,Jits_Phase_5,3,5,80,127,1364371956
79,14,17,Jits_Phase_5,0,1,48,32,1364833004
79,14,17,Jits_Phase_5,1,5,80,127,1364841868
79,14,17,Jits_Phase_5,2,5,56,103,1364862328
79,14,17,Jits_Phase_5,3,5,63,98,1364892152
79,14,17,Jits_Phase_5,0,1,48,32,1365319376
79,14,17,Jits_Phase_5,1,5,56,103,1365412392
79,14,17,Jits_Phase_5,2,5,80,127,1365415384
79,14,17,Jits_Phase_5,3,5,63,98,1365431952
79,14,17,Jits_Phase_5,0,5,63,98,1365831972
79,14,17,Jits_Phase_5,1,5,56,103,1365861896
79,14,17,Jits_Phase_5,2,1,48,32,1365905016
79,14,17,Jits_Phase_5,3,5,80,127,1365922128
79,14,17,Jits_Phase_5,0,1,48,28,1366369012
79,14,17,Jits_Phase_5,1,5,63,98,1366411828
79,14,17,Jits_Phase_5,2,5,56,103,1366421872
79,14,17,Jits_Phase_5,3,5,80,127,1366432068
79,14,17,Jits_Phase_5,0,1,48,30,1366872632
79,14,17,Jits_Phase_5,1,5,56,103,1366873820
79,14,17,Jits_Phase_5,2,5,80,127,1366902076
79,14,17,Jits_Phase_5,3,5,63,98,1366912272
79,14,17,Jits_Phase_5,0,1,48,28,1367367072
79,14,17,Jits_Phase_5,1,5,63,98,1367412008
79,14,17,Jits_Phase_5,2,5,56,103,1367422280
79,14,17,Jits_Phase_5,3,5,80,127,1367441912
79,14,17,Jits_Phase_5,0,5,56,103,1367842216
79,14,17,Jits_Phase_5,1,1,48,27,1367878440
79,14,17,Jits_Phase_5,2,5,63,98,1367901648
79,14,17,Jits_Phase_5,3,5,80,127,1367904864
79,14,17,Jits_Phase_5,0,1,48,29,1368354216
79,14,17,Jits_Phase_5,1,5,80,127,1368362332
79,14,17,Jits_Phase_5,2,5,56,103,1368371856
79,14,17,Jits_Phase_5,3,5,63,98,1368442232
79,14,17,Jits_Phase_5,0,5,80,127,1368851828
79,14,17,Jits_Phase_5,1,1,48,34,1368897340
79,14,17,Jits_Phase_5,2,5,56,103,1368921748
79,14,17,Jits_Phase_5,3,5,63,98,1368931792
79,14,17,Jits_Phase_5,0,5,63,98,1369391672
79,14,17,Jits_Phase_5,1,1,48,33,1369394496
79,14,17,Jits_Phase_5,2,5,56,103,1369401788
79,14,17,Jits_Phase_5,3,5,80,127,1369422248
79,14,17,Jits_Phase_5,0,5,80,127,1369842056
79,14,17,Jits_Phase_5,1,1,48,28,1369873944
79,14,17,Jits_Phase_5,2,5,63,98,1369901468
79,14,17,Jits_Phase_5,3,5,56,103,1369942624
79,14,17,Jits_Phase_5,0,1,48,32,1370376692
79,14,17,Jits_Phase_5,1,5,56,103,1370381672
79,14,17,Jits_Phase_5,2,5,63,98,1370391868
79,14,17,Jits_Phase_5,3,5,80,127,1370431800
79,14,17,Jits_Phase_5,0,1,48,33,1370839752
79,14,17,Jits_Phase_5,1,5,56,103,1370841564
79,14,17,Jits_Phase_5,2,5,80,127,1370872208
79,14,17,Jits_Phase_5,3,5,63,98,1370922484
79,14,17,Jits_Phase_5,0,1,48,30,1371354692
79,14,17,Jits_Phase_5,1,5,56,103,1371382216
79,14,17,Jits_Phase_5,2,5,63,98,1371422004
79,14,17,Jits_Phase_5,3,5,80,127,1371425516
79,14,17,Jits_Phase_5,0,1,48,32,1371880148
79,14,17,Jits_Phase_5,1,5,56,103,1371881736
79,14,17,Jits_Phase_5,2,5,63,98,1371892156
79,14,17,Jits_Phase_5,3,5,80,127,1371911644
79,14,17,Jits_Phase_5,0,5,56,103,1372341560
79,14,17,Jits_Phase_5,1,5,80,127,1372344552
79,14,17,Jits_Phase_5,2,1,48,28,1372359352
79,14,17,Jits_Phase_5,3,5,63,98,1372381564
79,14,17,Jits_Phase_5,0,1,48,32,1372840604
79,14,17,Jits_Phase_5,1,5,63,98,1372882280
79,14,17,Jits_Phase_5,2,5,56,103,1372911956
79,14,17,Jits_Phase_5,3,5,80,127,1372931588
79,14,17,Jits_Phase_5,0,1,48,31,1373336748
79,14,17,Jits_Phase_5,1,5,80,127,1373352512
79,14,17,Jits_Phase_5,2,5,56,103,1373361736
79,14,17,Jits_Phase_5,3,5,63,98,1373371708
79,14,17,Jits_Phase_5,0,5,56,103,1373852040
79,14,17,Jits_Phase_5,1,1,48,33,1373854708
79,14,17,Jits_Phase_5,2,5,80,127,1373892044
79,14,17,Jits_Phase_5,3,5,63,98,1373921644
79,14,17,Jits_Phase_5,0,5,63,98,1374361844
79,14,17,Jits_Phase_5,1,5,80,127,1374372336
79,14,17,Jits_Phase_5,2,5,56,103,1374381784
79,14,17,Jits_Phase_5,3,1,48,29,1374397936
79,14,17,Jits_Phase_5,0,5,56,103,1374851480
79,14,17,Jits_Phase_5,1,1,48,30,1374889500
79,14,17,Jits_Phase_5,2,5,63,98,1374922124
79,14,17,Jits_Phase_5,3,5,80,127,1374932468
79,14,17,Jits_Phase_5,0,5,80,127,1375362552
79,14,17,Jits_Phase_5,1,5,56,103,1375371848
79,14,17,Jits_Phase_5,2,1,48,30,1375374292
79,14,17,Jits_Phase_5,3,5,63,98,1375421892
79,14,17,Jits_Phase_5,0,1,48,31,1375869832
79,14,17,Jits_Phase_5,1,5,80,127,1375872568
79,14,17,Jits_Phase_5,2,5,56,103,1375931688
79,14,17,Jits_Phase_5,3,5,63,98,1375961436
79,14,17,Jits_Phase_5,0,5,56,103,1376372028
79,14,17,Jits_Phase_5,1,5,80,127,1376375240
79,14,17,Jits_Phase_5,2,1,48,31,1376404516
79,14,17,Jits_Phase_5,3,5,63,98,1376411956
79,14,17,Jits_Phase_5,0,1,48,28,1376899856
79,14,17,Jits_Phase_5,1,5,56,103,1376901440
79,14,17,Jits_Phase_5,2,5,63,98,1376932160
79,14,17,Jits_Phase_5,3,5,80,127,1376941680
79,14,17,Jits_Phase_5,0,1,48,32,1377402736
79,14,17,Jits_Phase_5,1,5,63,98,1377411380
79,14,17,Jits_Phase_5,2,5,80,127,1377421724
79,14,17,Jits_Phase_5,3,5,56,103,1377431844
79,14,17,Jits_Phase_5,0,5,80,127,1377862108
79,14,17,Jits_Phase_5,1,1,48,32,1377893276
79,14,17,Jits_Phase_5,2,5,56,103,1377912404
79,14,17,Jits_Phase_5,3,5,63,98,1377915396
79,14,17,Jits_Phase_5,0,1,48,25,1378392232
79,14,17,Jits_Phase_5,1,5,56,103,1378393644
79,14,17,Jits_Phase_5,2,5,80,127,1378411860
79,14,17,Jits_Phase_5,3,5,63,98,1378422132
79,14,17,Jits_Phase_5,0,1,48,31,1378856628
79,14,17,Jits_Phase_5,1,5,63,98,1378871648
79,14,17,Jits_Phase_5,2,5,56,103,1378902616
79,14,17,Jits_Phase_5,3,5,80,127,1378921804
79,14,17,Jits_Phase_5,0,1,48,32,1379354284
79,14,17,Jits_Phase_5,1,5,56,103,1379381588
79,14,17,Jits_Phase_5,2,5,80,127,1379391780
79,14,17,Jits_Phase_5,3,5,63,98,1379461544
79,14,17,Jits_Phase_5,0,5,63,98,1379872192
79,14,17,Jits_Phase_5,1,1,48,34,1379881684
79,14,17,Jits_Phase_5,2,5,80,127,1379912124
79,14,17,Jits_Phase_5,3,5,56,103,1379952088
79,14,17,Jits_Phase_5,0,1,48,35,1380379464
79,14,17,Jits_Phase_5,1,5,56,103,1380382124
79,14,17,Jits_Phase_5,2,5,63,98,1380392396
79,14,17,Jits_Phase_5,3,5,80,127,1380411808
79,14,17,Jits_Phase_5,0,1,48,32,1380917276
79,14,17,Jits_Phase_5,1,5,63,98,1380921656
79,14,17,Jits_Phase_5,2,5,80,127,1380942412
79,14,17,Jits_Phase_5,3,5,56,103,1380961624
79,14,17,Jits_Phase_5,0,5,56,103,1381362152
79,14,17,Jits_Phase_5,1,1,48,32,1381398304
79,14,17,Jits_Phase_5,2,5,80,127,1381441864
79,14,17,Jits_Phase_5,3,5,63,98,1381452284
79,14,17,Jits_Phase_5,0,1,48,37,1381897840
79,14,17,Jits_Phase_5,1,5,80,127,1381901620
79,14,17,Jits_Phase_5,2,5,63,98,1381911892
79,14,17,Jits_Phase_5,3,5,56,103,1381941640
79,14,17,Jits_Phase_5,0,5,63,98,1382361444
79,14,17,Jits_Phase_5,1,5,80,127,1382402504
79,14,17,Jits_Phase_5,2,1,48,36,1382419716
79,14,17,Jits_Phase_5,3,5,56,103,1382461688
79,14,17,Jits_Phase_5,0,5,63,98,1382872360
79,14,17,Jits_Phase_5,1,1,48,33,1382888056
79,14,17,Jits_Phase_5,2,5,56,103,1382921580
79,14,17,Jits_Phase_5,3,5,80,127,1382952300
79,14,17,Jits_Phase_5,0,5,80,127,1383372256
79,14,17,Jits_Phase_5,1,5,63,98,1383382452
79,14,17,Jits_Phase_5,2,1,48,38,1383386616
79,14,17,Jits_Phase_5,3,5,56,103,1383451900
79,14,17,Jits_Phase_5,0,1,48,36,1383902488
79,14,17,Jits_Phase_5,1,5,80,127,1383932328
79,14,17,Jits_Phase_5,2,5,56,103,1383941476
79,14,17,Jits_Phase_5,3,5,63,98,1383944688
79,14,17,Jits_Phase_5,0,5,56,103,1384371472
79,14,17,Jits_Phase_5,1,5,80,127,1384392008
79,14,17,Jits_Phase_5,2,5,63,98,1384402428
79,14,17,Jits_Phase_5,3,1,48,35,1384439324
79,14,17,Jits_Phase_5,0,5,63,98,1384881500
79,14,17,Jits_Phase_5,1,1,48,34,1384888360
79,14,17,Jits_Phase_5,2,5,56,103,1384921432
79,14,17,Jits_Phase_5,3,5,80,127,1384941888
79,14,17,Jits_Phase_5,0,5,63,98,1385382296
79,14,17,Jits_Phase_5,1,1,48,35,1385383856
79,14,17,Jits_Phase_5,2,5,56,103,1385441552
79,14,17,Jits_Phase_5,3,5,80,127,1385444772
79,14,17,Jits_Phase_5,0,5,56,103,1385842256
79,14,17,Jits_Phase_5,1,5,80,127,1385861372
79,14,17,Jits_Phase_5,2,1,48,36,1385892960
79,14,17,Jits_Phase_5,3,5,63,98,1385901376
79,14,17,Jits_Phase_5,0,1,48,35,1386341164
79,14,17,Jits_Phase_5,1,5,56,103,1386371308
79,14,17,Jits_Phase_5,2,5,63,98,1386392064
79,14,17,Jits_Phase_5,3,5,80,127,1386402184
79,14,17,Jits_Phase_5,0,5,80,127,1386841392
79,14,17,Jits_Phase_5,1,1,48,37,1386861148
79,14,17,Jits_Phase_5,2,5,56,103,1386872180
79,14,17,Jits_Phase_5,3,5,63,98,1386912340
79,14,17,Jits_Phase_5,0,5,80,127,1387352388
79,14,17,Jits_Phase_5,1,1,48,34,1387370208
79,14,17,Jits_Phase_5,2,5,56,103,1387371944
79,14,17,Jits_Phase_5,3,5,63,98,1387432180
79,14,17,Jits_Phase_5,0,5,56,103,1387862568
79,14,17,Jits_Phase_5,1,5,80,127,1387881828
79,14,17,Jits_Phase_5,2,1,48,34,1387887040
79,14,17,Jits_Phase_5,3,5,63,98,1387942360
79,14,17,Jits_Phase_5,0,5,80,127,1388341632
79,14,17,Jits_Phase_5,1,5,56,103,1388351752
79,14,17,Jits_Phase_5,2,1,48,34,1388362364
79,14,17,Jits_Phase_5,3,5,63,98,1388391780
79,14,17,Jits_Phase_5,0,5,63,98,1388842288
79,14,17,Jits_Phase_5,1,1,48,34,1388873952
79,14,17,Jits_Phase_5,2,5,56,103,1388882364
79,14,17,Jits_Phase_5,3,5,80,127,1388885356
79,14,17,Jits_Phase_5,0,1,48,34,1389340172
79,14,17,Jits_Phase_5,1,5,63,98,1389361544
79,14,17,Jits_Phase_5,2,5,80,127,1389401432
79,14,17,Jits_Phase_5,3,5,56,103,1389432076
79,14,17,Jits_Phase_5,0,5,56,103,1389852308
79,14,17,Jits_Phase_5,1,5,63,98,1389862356
79,14,17,Jits_Phase_5,2,1,48,36,1389882256
79,14,17,Jits_Phase_5,3,5,80,127,1389891948
79,14,17,Jits_Phase_5,0,5,80,127,1390341508
79,14,17,Jits_Phase_5,1,1,48,34,1390354140
79,14,17,Jits_Phase_5,2,5,63,98,1390412376
79,14,17,Jits_Phase_5,3,5,56,103,1390422372
79,14,17,Jits_Phase_5,0,5,63,98,1390842096
79,14,17,Jits_Phase_5,1,1,48,31,1390884544
79,14,17,Jits_Phase_5,2,5,56,103,1390912140
79,14,17,Jits_Phase_5,3,5,80,127,1390922556
79,14,17,Jits_Phase_5,0,5,63,98,1391321392
79,14,17,Jits_Phase_5,1,5,56,103,1391342072
79,14,17,Jits_Phase_5,2,1,48,35,1391372468
79,14,17,Jits_Phase_5,3,5,80,127,1391382000
79,14,17,Jits_Phase_5,0,5,56,103,1391801812
79,14,17,Jits_Phase_5,1,5,63,98,1391812156
79,14,17,Jits_Phase_5,2,1,48,32,1391816620
79,14,17,Jits_Phase_5,3,5,80,127,1391891940
79,14,17,Jits_Phase_5,0,5,63,98,1392292284
79,14,17,Jits_Phase_5,1,1,48,35,1392309724
79,14,17,Jits_Phase_5,2,5,56,103,1392322028
79,14,17,Jits_Phase_5,3,5,80,127,1392361888
79,14,17,Jits_Phase_5,0,1,48,32,1392780692
79,14,17,Jits_Phase_5,1,5,56,103,1392792100
79,14,17,Jits_Phase_5,2,5,63,98,1392831888
79,14,17,Jits_Phase_5,3,5,80,127,1392871748
79,14,17,Jits_Phase_5,0,5,80,127,1393291628
79,14,17,Jits_Phase_5,1,1,48,33,1393295796
79,14,17,Jits_Phase_5,2,5,56,103,1393371640
79,14,17,Jits_Phase_5,3,5,63,98,1393381912
79,14,17,Jits_Phase_5,0,5,56,103,1393832216
79,14,17,Jits_Phase_5,1,5,63,98,1393835436
79,14,17,Jits_Phase_5,2,5,80,127,1393841444
79,14,17,Jits_Phase_5,3,1,48,30,1393851160
79,14,17,Jits_Phase_5,0,1,48,36,1394330524
79,14,17,Jits_Phase_5,1,5,56,103,1394351376
79,14,17,Jits_Phase_5,2,5,63,98,1394372132
79,14,17,Jits_Phase_5,3,5,80,127,1394382328
79,14,17,Jits_Phase_5,0,5,63,98,1394812252
79,14,17,Jits_Phase_5,1,5,80,127,1394821400
79,14,17,Jits_Phase_5,2,1,48,34,1394822444
79,14,17,Jits_Phase_5,3,5,56,103,1394842152
79,14,17,Jits_Phase_5,0,1,48,30,1395307012
79,14,17,Jits_Phase_5,1,5,63,98,1395312216
79,14,17,Jits_Phase_5,2,5,56,103,1395392008
79,14,17,Jits_Phase_5,3,5,80,127,1395395000
79,14,17,Jits_Phase_5,0,5,63,98,1395811744
79,14,17,Jits_Phase_5,1,5,56,103,1395832128
79,14,17,Jits_Phase_5,2,1,48,28,1395838312
79,14,17,Jits_Phase_5,3,5,80,127,1395862240
79,14,17,Jits_Phase_5,0,1,48,32,1396312316
79,14,17,Jits_Phase_5,1,5,56,103,1396313652
79,14,17,Jits_Phase_5,2,5,63,98,1396332020
79,14,17,Jits_Phase_5,3,5,80,127,1396342212
79,14,17,Jits_Phase_5,0,1,48,30,1396802644
79,14,17,Jits_Phase_5,1,5,56,103,1396841872
79,14,17,Jits_Phase_5,2,5,63,98,1396871472
79,14,17,Jits_Phase_5,3,5,80,127,1396874908
79,14,17,Jits_Phase_5,0,5,56,103,1397292372
79,14,17,Jits_Phase_5,1,1,48,32,1397297288
79,14,17,Jits_Phase_5,2,5,63,98,1397332328
79,14,17,Jits_Phase_5,3,5,80,127,1397391656
79,14,17,Jits_Phase_5,0,1,48,31,1397815404
79,14,17,Jits_Phase_5,1,5,56,103,1397821948
79,14,17,Jits_Phase_5,2,5,63,98,1397832072
79,14,17,Jits_Phase_5,3,5,80,127,1397891436
79,14,17,Jits_Phase_5,0,1,48,33,1398290588
79,14,17,Jits_Phase_5,1,5,56,103,1398321548
79,14,17,Jits_Phase_5,2,5,80,127,1398342008
79,14,17,Jits_Phase_5,3,5,63,98,1398371780
79,14,17,Jits_Phase_5,0,1,48,30,1398807924
79,14,17,Jits_Phase_5,1,5,80,127,1398822192
79,14,17,Jits_Phase_5,2,5,56,103,1398831412
79,14,17,Jits_Phase_5,3,5,63,98,1398851944
79,14,17,Jits_Phase_5,0,5,63,98,1399311904
79,14,17,Jits_Phase_5,1,1,48,31,1399325136
79,14,17,Jits_Phase_5,2,5,80,127,1399391568
79,14,17,Jits_Phase_5,3,5,56,103,1399402064
79,14,17,Jits_Phase_5,0,1,48,29,1399833280
79,14,17,Jits_Phase_5,1,5,80,127,1399901508
79,14,17,Jits_Phase_5,2,5,56,103,1399921968
79,14,17,Jits_Phase_5,3,5,63,98,1399925032
79,14,17,Jits_Phase_5,0,5,63,98,1400402520
79,14,17,Jits_Phase_5,1,1,48,28,1400404336
79,14,17,Jits_Phase_5,2,5,80,127,1400406852
79,14,17,Jits_Phase_5,3,5,56,103,1400461856
79,14,17,Jits_Phase_5,0,5,56,103,1400881416
79,14,17,Jits_Phase_5,1,5,80,127,1400891760
79,14,17,Jits_Phase_5,2,5,63,98,1400931868
79,14,17,Jits_Phase_5,3,1,48,35,1400952224
79,14,17,Jits_Phase_5,0,5,56,103,1401361916
79,14,17,Jits_Phase_5,1,1,48,32,1401419712
79,14,17,Jits_Phase_5,2,5,63,98,1401422224
79,14,17,Jits_Phase_5,3,5,80,127,1401432372
79,14,17,Jits_Phase_5,0,5,63,98,1401872016
79,14,17,Jits_Phase_5,1,5,80,127,1401911808
79,14,17,Jits_Phase_5,2,1,48,29,1401916944
79,14,17,Jits_Phase_5,3,5,56,103,1401951688
79,14,17,Jits_Phase_5,0,5,56,103,1402371392
79,14,17,Jits_Phase_5,1,1,48,31,1402389112
79,14,17,Jits_Phase_5,2,5,63,98,1402452324
79,14,17,Jits_Phase_5,3,5,80,127,1402455836
79,14,17,Jits_Phase_5,0,1,48,35,1402897028
79,14,17,Jits_Phase_5,1,5,80,127,1402931676
79,14,17,Jits_Phase_5,2,5,56,103,1402962420
79,14,17,Jits_Phase_5,3,5,63,98,1402965412
79,14,17,Jits_Phase_5,0,5,56,103,1403392468
79,14,17,Jits_Phase_5,1,5,80,127,1403411804
79,14,17,Jits_Phase_5,2,5,63,98,1403452188
79,14,17,Jits_Phase_5,3,1,48,34,1403460788
79,14,17,Jits_Phase_5,0,5,80,127,1403871856
79,14,17,Jits_Phase_5,1,5,63,98,1403892016
79,14,17,Jits_Phase_5,2,1,48,33,1403931248
79,14,17,Jits_Phase_5,3,5,56,103,1403951424
79,14,17,Jits_Phase_5,0,5,63,98,1404391848
79,14,17,Jits_Phase_5,1,5,56,103,1404401968
79,14,17,Jits_Phase_5,2,1,48,36,1404411236
79,14,17,Jits_Phase_5,3,5,80,127,1404452084
79,14,17,Jits_Phase_5,0,1,48,34,1404876948
79,14,17,Jits_Phase_5,1,5,56,103,1404882224
79,14,17,Jits_Phase_5,2,5,63,98,1404901784
79,14,17,Jits_Phase_5,3,5,80,127,1404911980
79,14,17,Jits_Phase_5,0,5,56,103,1405371936
79,14,17,Jits_Phase_5,1,5,63,98,1405374928
79,14,17,Jits_Phase_5,2,1,48,32,1405380008
79,14,17,Jits_Phase_5,3,5,80,127,1405392236
79,14,17,Jits_Phase_5,0,1,48,30,1405859580
79,14,17,Jits_Phase_5,1,5,63,98,1405912512
79,14,17,Jits_Phase_5,2,5,56,103,1405942260
79,14,17,Jits_Phase_5,3,5,80,127,1405971768
79,14,17,Jits_Phase_5,0,5,80,127,1406372260
79,14,17,Jits_Phase_5,1,1,48,33,1406396804
79,14,17,Jits_Phase_5,2,5,56,103,1406462384
79,14,17,Jits_Phase_5,3,5,63,98,1406465452
79,14,17,Jits_Phase_5,0,5,56,103,1406872016
79,14,17,Jits_Phase_5,1,5,80,127,1406874936
79,14,17,Jits_Phase_5,2,1,48,29,1406948844
79,14,17,Jits_Phase_5,3,5,63,98,1406951948
79,14,17,Jits_Phase_5,0,5,80,127,1407371696
79,14,17,Jits_Phase_5,1,5,63,98,1407432160
79,14,17,Jits_Phase_5,2,1,48,29,1407457528
79,14,17,Jits_Phase_5,3,5,56,103,1407461752
79,14,17,Jits_Phase_5,0,5,63,98,1407872436
79,14,17,Jits_Phase_5,1,5,80,127,1407881808
79,14,17,Jits_Phase_5,2,1,48,37,1407941868
79,14,17,Jits_Phase_5,3,5,56,103,1407952152
79,14,17,Jits_Phase_5,0,1,48,29,1408393652
79,14,17,Jits_Phase_5,1,5,56,103,1408431664
79,14,17,Jits_Phase_5,2,5,80,127,1408462088
79,14,17,Jits_Phase_5,3,5,63,98,1408512272
79,14,17,Jits_Phase_5,0,1,48,28,1408950188
79,14,17,Jits_Phase_5,1,5,63,98,1409022432
79,14,17,Jits_Phase_5,2,5,56,103,1409051940
79,14,17,Jits_Phase_5,3,5,80,127,1409055008
79,14,17,Jits_Phase_5,0,5,63,98,1409521960
79,14,17,Jits_Phase_5,1,1,48,20,1409541596
79,14,17,Jits_Phase_5,2,5,80,127,1409542932
79,14,17,Jits_Phase_5,3,5,56,103,1409551860
79,14,17,Jits_Phase_5,0,1,48,30,1410007884
79,14,17,Jits_Phase_5,1,5,56,103,1410031968
79,14,17,Jits_Phase_5,2,5,63,98,1410035180
79,14,17,Jits_Phase_5,3,5,80,127,1410051380
79,14,17,Jits_Phase_5,0,5,56,103,1410481596
79,14,17,Jits_Phase_5,1,5,63,98,1410491864
79,14,17,Jits_Phase_5,2,1,48,30,1410501432
79,14,17,Jits_Phase_5,3,5,80,127,1410521680
79,14,17,Jits_Phase_5,0,1,48,29,1410960576
79,14,17,Jits_Phase_5,1,5,63,98,1411001800
79,14,17,Jits_Phase_5,2,5,80,127,1411022184
79,14,17,Jits_Phase_5,3,5,56,103,1411062108
79,14,17,Jits_Phase_5,0,1,48,24,1411527436
79,14,17,Jits_Phase_5,1,5,56,103,1411532268
79,14,17,Jits_Phase_5,2,5,63,98,1411572204
79,14,17,Jits_Phase_5,3,5,80,127,1411575568
79,14,17,Jits_Phase_5,0,5,80,127,1411971636
79,14,17,Jits_Phase_5,1,5,56,103,1412012544
79,14,17,Jits_Phase_5,2,5,63,98,1412061696
79,14,17,Jits_Phase_5,3,1,48,34,1412064740
79,14,17,Jits_Phase_5,0,5,56,103,1412531564
79,14,17,Jits_Phase_5,1,1,48,35,1412532528
79,14,17,Jits_Phase_5,2,5,80,127,1412541676
79,14,17,Jits_Phase_5,3,5,63,98,1412571872
79,14,17,Jits_Phase_5,0,5,56,103,1412982108
79,14,17,Jits_Phase_5,1,5,80,127,1413022044
79,14,17,Jits_Phase_5,2,1,48,32,1413027180
79,14,17,Jits_Phase_5,3,5,63,98,1413072312
79,14,17,Jits_Phase_5,0,5,56,103,1413481796
79,14,17,Jits_Phase_5,1,5,80,127,1413521736
79,14,17,Jits_Phase_5,2,1,48,35,1413533848
79,14,17,Jits_Phase_5,3,5,63,98,1413571928
79,14,17,Jits_Phase_5,0,5,80,127,1413972272
79,14,17,Jits_Phase_5,1,1,48,33,1414027900
79,14,17,Jits_Phase_5,2,5,63,98,1414052280
79,14,17,Jits_Phase_5,3,5,56,103,1414061504
79,14,17,Jits_Phase_5,0,5,80,127,1414522156
79,14,17,Jits_Phase_5,1,5,56,103,1414531604
79,14,17,Jits_Phase_5,2,1,48,36,1414537344
79,14,17,Jits_Phase_5,3,5,63,98,1414551980
79,14,17,Jits_Phase_5,0,5,63,98,1414992228
79,14,17,Jits_Phase_5,1,1,48,35,1415049308
79,14,17,Jits_Phase_5,2,5,56,103,1415061768
79,14,17,Jits_Phase_5,3,5,80,127,1415064916
79,14,17,Jits_Phase_5,0,5,80,127,1415481856
79,14,17,Jits_Phase_5,1,5,63,98,1415531784
79,14,17,Jits_Phase_5,2,1,48,38,1415558572
79,14,17,Jits_Phase_5,3,5,56,103,1415571788
79,14,17,Jits_Phase_5,0,5,63,98,1416022552
79,14,17,Jits_Phase_5,1,1,48,36,1416038408
79,14,17,Jits_Phase_5,2,5,56,103,1416062484
79,14,17,Jits_Phase_5,3,5,80,127,1416071632
79,14,17,Jits_Phase_5,0,5,63,98,1416511712
79,14,17,Jits_Phase_5,1,5,56,103,1416532420
79,14,17,Jits_Phase_5,2,1,48,35,1416550012
79,14,17,Jits_Phase_5,3,5,80,127,1416551748
79,14,17,Jits_Phase_5,0,5,80,127,1416971752
79,14,17,Jits_Phase_5,1,5,56,103,1416981728
79,14,17,Jits_Phase_5,2,5,63,98,1417002480
79,14,17,Jits_Phase_5,3,1,48,26,1417022308
79,14,17,Jits_Phase_5,0,1,48,29,1417481968
79,14,17,Jits_Phase_5,1,5,63,98,1417502072
79,14,17,Jits_Phase_5,2,5,56,103,1417541860
79,14,17,Jits_Phase_5,3,5,80,127,1417571632
79,14,17,Jits_Phase_5,0,5,56,103,1417961900
79,14,17,Jits_Phase_5,1,5,63,98,1417991576
79,14,17,Jits_Phase_5,2,1,48,30,1418013800
79,14,17,Jits_Phase_5,3,5,80,127,1418022288
79,14,17,Jits_Phase_5,0,5,80,127,1418381808
79,14,17,Jits_Phase_5,1,5,56,103,1418452384
79,14,17,Jits_Phase_5,2,5,63,98,1418455452
79,14,17,Jits_Phase_5,3,1,48,29,1418479860
79,14,17,Jits_Phase_5,0,5,56,103,1418891604
79,14,17,Jits_Phase_5,1,5,63,98,1418941732
79,14,17,Jits_Phase_5,2,5,80,127,1418971628
79,14,17,Jits_Phase_5,3,1,48,29,1418976692
79,14,17,Jits_Phase_5,0,5,63,98,1419371812
79,14,17,Jits_Phase_5,1,5,80,127,1419375100
79,14,17,Jits_Phase_5,2,1,48,26,1419402428
79,14,17,Jits_Phase_5,3,5,56,103,1419432564
79,14,17,Jits_Phase_5,0,5,56,103,1419902492
79,14,17,Jits_Phase_5,1,1,48,28,1419910284
79,14,17,Jits_Phase_5,2,5,80,127,1419911780
79,14,17,Jits_Phase_5,3,5,63,98,1419961684
79,14,17,Jits_Phase_5,0,5,63,98,1420372588
79,14,17,Jits_Phase_5,1,5,56,103,1420381512
79,14,17,Jits_Phase_5,2,5,80,127,1420412384
79,14,17,Jits_Phase_5,3,1,48,31,1420426884
79,14,17,Jits_Phase_5,0,1,48,32,1420859552
79,14,17,Jits_Phase_5,1,5,63,98,1420901844
79,14,17,Jits_Phase_5,2,5,80,127,1420905132
79,14,17,Jits_Phase_5,3,5,56,103,1420931516
79,14,17,Jits_Phase_5,0,1,48,32,1421404624
79,14,17,Jits_Phase_5,1,5,63,98,1421421888
79,14,17,Jits_Phase_5,2,5,56,103,1421442640
79,14,17,Jits_Phase_5,3,5,80,127,1421445708
79,14,17,Jits_Phase_5,0,5,63,98,1421881608
79,14,17,Jits_Phase_5,1,1,48,33,1421896332
79,14,17,Jits_Phase_5,2,5,56,103,1421952356
79,14,17,Jits_Phase_5,3,5,80,127,1421971840
79,14,17,Jits_Phase_5,0,5,56,103,1422372440
79,14,17,Jits_Phase_5,1,5,63,98,1422381440
79,14,17,Jits_Phase_5,2,1,48,28,1422386052
79,14,17,Jits_Phase_5,3,5,80,127,1422471660
79,14,17,Jits_Phase_5,0,5,56,103,1422892352
79,14,17,Jits_Phase_5,1,1,48,35,1422915096
79,14,17,Jits_Phase_5,2,5,80,127,1422932528
79,14,17,Jits_Phase_5,3,5,63,98,1422941532
79,14,17,Jits_Phase_5,0,1,48,37,1423391560
79,14,17,Jits_Phase_5,1,5,56,103,1423411440
79,14,17,Jits_Phase_5,2,5,63,98,1423442484
79,14,17,Jits_Phase_5,3,5,80,127,1423471860
79,14,17,Jits_Phase_5,0,5,80,127,1423872460
79,14,17,Jits_Phase_5,1,1,48,34,1423897756
79,14,17,Jits_Phase_5,2,5,63,98,1423912392
79,14,17,Jits_Phase_5,3,5,56,103,1423931732
79,14,17,Jits_Phase_5,0,1,48,32,1424390852
79,14,17,Jits_Phase_5,1,5,56,103,1424412000
79,14,17,Jits_Phase_5,2,5,80,127,1424431564
79,14,17,Jits_Phase_5,3,5,63,98,1424451948
79,14,17,Jits_Phase_5,0,5,63,98,1424882240
79,14,17,Jits_Phase_5,1,1,48,29,1424888424
79,14,17,Jits_Phase_5,2,5,56,103,1424892356
79,14,17,Jits_Phase_5,3,5,80,127,1424951620
79,14,17,Jits_Phase_5,0,1,48,32,1425380708
79,14,17,Jits_Phase_5,1,5,56,103,1425382508
79,14,17,Jits_Phase_5,2,5,63,98,1425452484
79,14,17,Jits_Phase_5,3,5,80,127,1425471748
79,14,17,Jits_Phase_5,0,5,56,103,1425881444
79,14,17,Jits_Phase_5,1,5,63,98,1425912316
79,14,17,Jits_Phase_5,2,1,48,29,1425941212
79,14,17,Jits_Phase_5,3,5,80,127,1425952244
79,14,17,Jits_Phase_5,0,5,63,98,1426371916
79,14,17,Jits_Phase_5,1,1,48,33,1426419676
79,14,17,Jits_Phase_5,2,5,56,103,1426422260
79,14,17,Jits_Phase_5,3,5,80,127,1426432456
79,14,17,Jits_Phase_5,0,1,48,30,1426908412
79,14,17,Jits_Phase_5,1,5,56,103,1426911592
79,14,17,Jits_Phase_5,2,5,63,98,1426961720
79,14,17,Jits_Phase_5,3,5,80,127,1426972284
79,14,17,Jits_Phase_5,0,5,56,103,1427381684
79,14,17,Jits_Phase_5,1,5,63,98,1427391880
79,14,17,Jits_Phase_5,2,1,48,26,1427419356
79,14,17,Jits_Phase_5,3,5,80,127,1427471664
79,14,17,Jits_Phase_5,0,9999,9999,9999,1343109208
79,14,17,Jits_Phase_5,1,9999,9999,9999,1343609964
79,14,17,Jits_Phase_5,2,9999,9999,9999,1344109668
79,14,17,Jits_Phase_5,3,9999,9999,9999,1344609336
79,14,17,Jits_Phase_5,4,9999,9999,9999,1345110136
79,14,17,Jits_Phase_5,5,9999,9999,9999,1345620048
79,14,17,Jits_Phase_5,6,9999,9999,9999,1346119796
79,14,17,Jits_Phase_5,7,9999,9999,9999,1346619484
79,14,17,Jits_Phase_5,8,9999,9999,9999,1347119168
79,14,17,Jits_Phase_5,9,9999,9999,9999,1347619904
79,14,17,Jits_Phase_5,10,9999,9999,9999,1348119648
79,14,17,Jits_Phase_5,11,9999,9999,9999,1348619340
79,14,17,Jits_Phase_5,12,9999,9999,9999,1349120056
79,14,17,Jits_Phase_5,13,9999,9999,9999,1349630060
79,14,17,Jits_Phase_5,14,9999,9999,9999,1350129736
79,14,17,Jits_Phase_5,15,9999,9999,9999,1350629496
79,14,17,Jits_Phase_5,16,9999,9999,9999,1351129184
79,14,17,Jits_Phase_5,17,9999,9999,9999,1351629904
79,14,17,Jits_Phase_5,18,9999,9999,9999,1352129652
79,14,17,Jits_Phase_5,19,9999,9999,9999,1352629328
79,14,17,Jits_Phase_5,20,9999,9999,9999,1353130048
79,14,17,Jits_Phase_5,21,9999,9999,9999,1353629808
79,14,17,Jits_Phase_5,22,9999,9999,9999,1354129492
79,14,17,Jits_Phase_5,23,9999,9999,9999,1354629180
79,14,17,Jits_Phase_5,24,9999,9999,9999,1355129920
79,14,17,Jits_Phase_5,25,9999,9999,9999,1355629672
79,14,17,Jits_Phase_5,26,9999,9999,9999,1356129364
79,14,17,Jits_Phase_5,27,9999,9999,9999,1356630072
79,14,17,Jits_Phase_5,28,9999,9999,9999,1357140080
79,14,17,Jits_Phase_5,29,9999,9999,9999,1357639748
79,14,17,Jits_Phase_5,30,9999,9999,9999,1358129248
79,14,17,Jits_Phase_5,31,9999,9999,9999,1358629984
79,14,17,Jits_Phase_5,32,9999,9999,9999,1359129660
79,14,17,Jits_Phase_5,33,9999,9999,9999,1359629408
79,14,17,Jits_Phase_5,34,9999,9999,9999,1360129084
79,14,17,Jits_Phase_5,35,9999,9999,9999,1360629824
79,14,17,Jits_Phase_5,36,9999,9999,9999,1361129560
79,14,17,Jits_Phase_5,37,9999,9999,9999,1361629236
79,14,17,Jits_Phase_5,38,9999,9999,9999,1362130032
79,14,17,Jits_Phase_5,39,9999,9999,9999,1362629708
79,14,17,Jits_Phase_5,40,9999,9999,9999,1363129460
79,14,17,Jits_Phase_5,41,9999,9999,9999,1363629148
79,14,17,Jits_Phase_5,42,9999,9999,9999,1364129876
79,14,17,Jits_Phase_5,43,9999,9999,9999,1364629620
79,14,17,Jits_Phase_5,44,9999,9999,9999,1365129292
79,14,17,Jits_Phase_5,45,9999,9999,9999,1365630008
79,14,17,Jits_Phase_5,46,9999,9999,9999,1366129752
79,14,17,Jits_Phase_5,47,9999,9999,9999,1366629432
79,14,17,Jits_Phase_5,48,9999,9999,9999,1367139448
79,14,17,Jits_Phase_5,49,9999,9999,9999,1367639128
79,14,17,Jits_Phase_5,50,9999,9999,9999,1368139884
79,14,17,Jits_Phase_5,51,9999,9999,9999,1368639572
79,14,17,Jits_Phase_5,52,9999,9999,9999,1369139320
79,14,17,Jits_Phase_5,53,9999,9999,9999,1369640060
79,14,17,Jits_Phase_5,54,9999,9999,9999,1370139740
79,14,17,Jits_Phase_5,55,9999,9999,9999,1370639428
79,14,17,Jits_Phase_5,56,9999,9999,9999,1371139176
79,14,17,Jits_Phase_5,57,9999,9999,9999,1371639892
79,14,17,Jits_Phase_5,58,9999,9999,9999,1372139644
79,14,17,Jits_Phase_5,59,9999,9999,9999,1372639304
79,14,17,Jits_Phase_5,60,9999,9999,9999,1373140040
79,14,17,Jits_Phase_5,61,9999,9999,9999,1373639784
79,14,17,Jits_Phase_5,62,9999,9999,9999,1374139460
79,14,17,Jits_Phase_5,63,9999,9999,9999,1374639220
79,14,17,Jits_Phase_5,64,9999,9999,9999,1375159424
79,14,17,Jits_Phase_5,65,9999,9999,9999,1375659108
79,14,17,Jits_Phase_5,66,9999,9999,9999,1376159844
79,14,17,Jits_Phase_5,67,9999,9999,9999,1376659508
79,14,17,Jits_Phase_5,68,9999,9999,9999,1377159276
79,14,17,Jits_Phase_5,69,9999,9999,9999,1377659996
79,14,17,Jits_Phase_5,70,9999,9999,9999,1378159732
79,14,17,Jits_Phase_5,71,9999,9999,9999,1378659420
79,14,17,Jits_Phase_5,72,9999,9999,9999,1379159096
79,14,17,Jits_Phase_5,73,9999,9999,9999,1379659868
79,14,17,Jits_Phase_5,74,9999,9999,9999,1380159612
79,14,17,Jits_Phase_5,75,9999,9999,9999,1380659284
79,14,17,Jits_Phase_5,76,9999,9999,9999,1381160012
79,14,17,Jits_Phase_5,77,9999,9999,9999,1381659760
79,14,17,Jits_Phase_5,78,9999,9999,9999,1382159452
79,14,17,Jits_Phase_5,79,9999,9999,9999,1382659124
79,14,17,Jits_Phase_5,80,9999,9999,9999,1383159924
79,14,17,Jits_Phase_5,81,9999,9999,9999,1383639152
79,14,17,Jits_Phase_5,82,9999,9999,9999,1384139884
79,14,17,Jits_Phase_5,83,9999,9999,9999,1384639560
79,14,17,Jits_Phase_5,84,9999,9999,9999,1385139328
79,14,17,Jits_Phase_5,85,9999,9999,9999,1385640040
79,14,17,Jits_Phase_5,86,9999,9999,9999,1386139712
79,14,17,Jits_Phase_5,87,9999,9999,9999,1386639472
79,14,17,Jits_Phase_5,88,9999,9999,9999,1387139148
79,14,17,Jits_Phase_5,89,9999,9999,9999,1387639884
79,14,17,Jits_Phase_5,90,9999,9999,9999,1388139572
79,14,17,Jits_Phase_5,91,9999,9999,9999,1388639332
79,14,17,Jits_Phase_5,92,9999,9999,9999,1389140028
79,14,17,Jits_Phase_5,93,9999,9999,9999,1389639752
79,14,17,Jits_Phase_5,94,9999,9999,9999,1390139500
79,14,17,Jits_Phase_5,95,9999,9999,9999,1390639188
79,14,17,Jits_Phase_5,96,9999,9999,9999,1391139924
79,14,17,Jits_Phase_5,97,9999,9999,9999,1391589480
79,14,17,Jits_Phase_5,98,9999,9999,9999,1392089156
79,14,17,Jits_Phase_5,99,9999,9999,9999,1392589888
79,14,17,Jits_Phase_5,100,9999,9999,9999,1393089636
79,14,17,Jits_Phase_5,101,9999,9999,9999,1393589312
79,14,17,Jits_Phase_5,102,9999,9999,9999,1394090040
79,14,17,Jits_Phase_5,103,9999,9999,9999,1394589808
79,14,17,Jits_Phase_5,104,9999,9999,9999,1395089480
79,14,17,Jits_Phase_5,105,9999,9999,9999,1395589224
79,14,17,Jits_Phase_5,106,9999,9999,9999,1396089944
79,14,17,Jits_Phase_5,107,9999,9999,9999,1396589692
79,14,17,Jits_Phase_5,108,9999,9999,9999,1397089360
79,14,17,Jits_Phase_5,109,9999,9999,9999,1397590080
79,14,17,Jits_Phase_5,110,9999,9999,9999,1398100032
79,14,17,Jits_Phase_5,111,9999,9999,9999,1398599756
79,14,17,Jits_Phase_5,112,9999,9999,9999,1399099500
79,14,17,Jits_Phase_5,113,9999,9999,9999,1399599180
79,14,17,Jits_Phase_5,114,9999,9999,9999,1400150116
79,14,17,Jits_Phase_5,115,9999,9999,9999,1400660044
79,14,17,Jits_Phase_5,116,9999,9999,9999,1401159764
79,14,17,Jits_Phase_5,117,9999,9999,9999,1401659448
79,14,17,Jits_Phase_5,118,9999,9999,9999,1402159212
79,14,17,Jits_Phase_5,119,9999,9999,9999,1402659924
79,14,17,Jits_Phase_5,120,9999,9999,9999,1403159612
79,14,17,Jits_Phase_5,121,9999,9999,9999,1403659364
79,14,17,Jits_Phase_5,122,9999,9999,9999,1404160096
79,14,17,Jits_Phase_5,123,9999,9999,9999,1404670048
79,14,17,Jits_Phase_5,124,9999,9999,9999,1405169720
79,14,17,Jits_Phase_5,125,9999,9999,9999,1405669452
79,14,17,Jits_Phase_5,126,9999,9999,9999,1406169148
79,14,17,Jits_Phase_5,127,9999,9999,9999,1406669936
79,14,17,Jits_Phase_5,128,9999,9999,9999,1407169616
79,14,17,Jits_Phase_5,129,9999,9999,9999,1407669308
79,14,17,Jits_Phase_5,130,9999,9999,9999,1408170040
79,14,17,Jits_Phase_5,131,9999,9999,9999,1408769132
79,14,17,Jits_Phase_5,132,9999,9999,9999,1409269844
79,14,17,Jits_Phase_5,133,9999,9999,9999,1409769596
79,14,17,Jits_Phase_5,134,9999,9999,9999,1410269268
79,14,17,Jits_Phase_5,135,9999,9999,9999,1410769984
79,14,17,Jits_Phase_5,136,9999,9999,9999,1411269748
79,14,17,Jits_Phase_5,137,9999,9999,9999,1411769420
79,14,17,Jits_Phase_5,138,9999,9999,9999,1412269168
79,14,17,Jits_Phase_5,139,9999,9999,9999,1412769912
79,14,17,Jits_Phase_5,140,9999,9999,9999,1413269604
79,14,17,Jits_Phase_5,141,9999,9999,9999,1413769292
79,14,17,Jits_Phase_5,142,9999,9999,9999,1414270032
79,14,17,Jits_Phase_5,143,9999,9999,9999,1414769720
79,14,17,Jits_Phase_5,144,9999,9999,9999,1415269476
79,14,17,Jits_Phase_5,145,9999,9999,9999,1415769152
79,14,17,Jits_Phase_5,146,9999,9999,9999,1416269944
79,14,17,Jits_Phase_5,147,9999,9999,9999,1416769612
79,14,17,Jits_Phase_5,148,9999,9999,9999,1417269356
79,14,17,Jits_Phase_5,149,9999,9999,9999,1417770096
79,14,17,Jits_Phase_5,150,9999,9999,9999,1418169464
79,14,17,Jits_Phase_5,151,9999,9999,9999,1418669144
79,14,17,Jits_Phase_5,152,9999,9999,9999,1419169884
79,14,17,Jits_Phase_5,153,9999,9999,9999,1419669560
79,14,17,Jits_Phase_5,154,9999,9999,9999,1420169308
79,14,17,Jits_Phase_5,155,9999,9999,9999,1420670044
79,14,17,Jits_Phase_5,156,9999,9999,9999,1421169780
79,14,17,Jits_Phase_5,157,9999,9999,9999,1421669448
79,14,17,Jits_Phase_5,158,9999,9999,9999,1422169204
79,14,17,Jits_Phase_5,159,9999,9999,9999,1422669896
79,14,17,Jits_Phase_5,160,9999,9999,9999,1423169656
79,14,17,Jits_Phase_5,161,9999,9999,9999,1423669348
79,14,17,Jits_Phase_5,162,9999,9999,9999,1424170068
79,14,17,Jits_Phase_5,163,9999,9999,9999,1424669760
79,14,17,Jits_Phase_5,164,9999,9999,9999,1425169508
79,14,17,Jits_Phase_5,165,9999,9999,9999,1425669184
79,14,17,Jits_Phase_5,166,9999,9999,9999,1426169984
79,14,17,Jits_Phase_5,167,9999,9999,9999,1426669672
79,14,17,Jits_Phase_5,168,9999,9999,9999,1427169352
79,14,17,Jits_Phase_5,169,9999,9999,9999,1427670076
79,15,15,Jits_Phase_8,0,5,56,103,1437365576
79,15,15,Jits_Phase_8,1,5,63,98,1437368748
79,15,15,Jits_Phase_8,2,5,80,127,1437372020
79,15,15,Jits_Phase_8,0,5,56,103,1438166336
79,15,15,Jits_Phase_8,1,5,63,98,1438169440
79,15,15,Jits_Phase_8,2,5,80,127,1438172564
79,15,15,Jits_Phase_8,3,1,48,14,1438322916
79,15,15,Jits_Phase_8,0,5,80,127,1438905804
79,15,15,Jits_Phase_8,1,1,48,23,1438923916
79,15,15,Jits_Phase_8,2,5,63,98,1438996080
79,15,15,Jits_Phase_8,3,5,56,103,1439006204
79,15,15,Jits_Phase_8,0,5,56,103,1439726028
79,15,15,Jits_Phase_8,1,5,63,98,1439736152
79,15,15,Jits_Phase_8,2,1,48,27,1439775836
79,15,15,Jits_Phase_8,3,5,80,127,1439826224
79,15,15,Jits_Phase_8,0,5,63,98,1440496060
79,15,15,Jits_Phase_8,1,1,48,30,1440525364
79,15,15,Jits_Phase_8,2,5,80,127,1440526848
79,15,15,Jits_Phase_8,3,5,56,103,1440556376
79,15,15,Jits_Phase_8,0,5,56,103,1441295736
79,15,15,Jits_Phase_8,1,1,48,32,1441322152
79,15,15,Jits_Phase_8,2,5,80,127,1441396152
79,15,15,Jits_Phase_8,3,5,63,98,1441446112
79,15,15,Jits_Phase_8,0,5,56,103,1442095436
79,15,15,Jits_Phase_8,1,5,80,127,1442145588
79,15,15,Jits_Phase_8,2,5,63,98,1442185452
79,15,15,Jits_Phase_8,3,1,48,31,1442224460
79,15,15,Jits_Phase_8,0,5,80,127,1442925872
79,15,15,Jits_Phase_8,1,5,63,98,1442955772
79,15,15,Jits_Phase_8,2,1,48,28,1442965568
79,15,15,Jits_Phase_8,3,5,56,103,1443026344
79,15,15,Jits_Phase_8,0,5,63,98,1443756288
79,15,15,Jits_Phase_8,1,1,48,29,1443780984
79,15,15,Jits_Phase_8,2,5,56,103,1443786032
79,15,15,Jits_Phase_8,3,5,80,127,1443845376
79,15,15,Jits_Phase_8,0,5,56,103,1444495960
79,15,15,Jits_Phase_8,1,5,80,127,1444498804
79,15,15,Jits_Phase_8,2,1,48,27,1444548900
79,15,15,Jits_Phase_8,3,5,63,98,1444615676
79,15,15,Jits_Phase_8,0,1,48,30,1445349556
79,15,15,Jits_Phase_8,1,5,56,103,1445376480
79,15,15,Jits_Phase_8,2,5,80,127,1445416492
79,15,15,Jits_Phase_8,3,5,63,98,1445425640
79,15,15,Jits_Phase_8,0,5,56,103,1446136168
79,15,15,Jits_Phase_8,1,1,48,29,1446137504
79,15,15,Jits_Phase_8,2,5,80,127,1446155724
79,15,15,Jits_Phase_8,3,5,63,98,1446235376
79,15,15,Jits_Phase_8,0,5,80,127,1446925680
79,15,15,Jits_Phase_8,1,1,48,30,1447024284
79,15,15,Jits_Phase_8,2,5,56,103,1447025944
79,15,15,Jits_Phase_8,3,5,63,98,1447036216
79,15,15,Jits_Phase_8,0,5,63,98,1447695932
79,15,15,Jits_Phase_8,1,5,80,127,1447756100
79,15,15,Jits_Phase_8,2,5,56,103,1447766472
79,15,15,Jits_Phase_8,3,1,48,32,1447834320
79,15,15,Jits_Phase_8,0,5,56,103,1448495684
79,15,15,Jits_Phase_8,1,5,63,98,1448566140
79,15,15,Jits_Phase_8,2,5,80,127,1448569504
79,15,15,Jits_Phase_8,3,1,48,33,1448603332
79,15,15,Jits_Phase_8,0,5,63,98,1449325960
79,15,15,Jits_Phase_8,1,1,48,31,1449344820
79,15,15,Jits_Phase_8,2,5,56,103,1449376228
79,15,15,Jits_Phase_8,3,5,80,127,1449379224
79,15,15,Jits_Phase_8,0,5,56,103,1450085920
79,15,15,Jits_Phase_8,1,5,80,127,1450088912
79,15,15,Jits_Phase_8,2,1,48,34,1450159760
79,15,15,Jits_Phase_8,3,5,63,98,1450175896
79,15,15,Jits_Phase_8,0,5,63,98,1450925392
79,15,15,Jits_Phase_8,1,1,48,30,1450955788
79,15,15,Jits_Phase_8,2,5,56,103,1451015740
79,15,15,Jits_Phase_8,3,5,80,127,1451046240
79,15,15,Jits_Phase_8,0,5,56,103,1451715864
79,15,15,Jits_Phase_8,1,1,48,24,1451772692
79,15,15,Jits_Phase_8,2,5,63,98,1451816328
79,15,15,Jits_Phase_8,3,5,80,127,1451845928
79,15,15,Jits_Phase_8,0,5,63,98,1452536240
79,15,15,Jits_Phase_8,1,5,56,103,1452546364
79,15,15,Jits_Phase_8,2,1,48,24,1452562360
79,15,15,Jits_Phase_8,3,5,80,127,1452635760
79,15,15,Jits_Phase_8,0,1,48,31,1453327580
79,15,15,Jits_Phase_8,1,5,63,98,1453356816
79,15,15,Jits_Phase_8,2,5,56,103,1453436248
79,15,15,Jits_Phase_8,3,5,80,127,1453439316
79,15,15,Jits_Phase_8,0,5,80,127,1454116200
79,15,15,Jits_Phase_8,1,5,63,98,1454135836
79,15,15,Jits_Phase_8,2,1,48,27,1454175168
79,15,15,Jits_Phase_8,3,5,56,103,1454196020
79,15,15,Jits_Phase_8,0,1,48,30,1454940236
79,15,15,Jits_Phase_8,1,5,56,103,1454955848
79,15,15,Jits_Phase_8,2,5,63,98,1454976304
79,15,15,Jits_Phase_8,3,5,80,127,1454979892
79,15,15,Jits_Phase_8,0,5,63,98,1455696408
79,15,15,Jits_Phase_8,1,1,48,26,1455725908
79,15,15,Jits_Phase_8,2,5,80,127,1455776124
79,15,15,Jits_Phase_8,3,5,56,103,1455786692
79,15,15,Jits_Phase_8,0,5,63,98,1456515644
79,15,15,Jits_Phase_8,1,1,48,27,1456521684
79,15,15,Jits_Phase_8,2,5,56,103,1456536024
79,15,15,Jits_Phase_8,3,5,80,127,1456586072
79,15,15,Jits_Phase_8,0,1,48,24,1457308028
79,15,15,Jits_Phase_8,1,5,80,127,1457316072
79,15,15,Jits_Phase_8,2,5,63,98,1457356156
79,15,15,Jits_Phase_8,3,5,56,103,1457375568
79,15,15,Jits_Phase_8,0,1,48,24,1458115276
79,15,15,Jits_Phase_8,1,5,56,103,1458155832
79,15,15,Jits_Phase_8,2,5,63,98,1458166252
79,15,15,Jits_Phase_8,3,5,80,127,1458185516
79,15,15,Jits_Phase_8,0,5,56,103,1458886220
79,15,15,Jits_Phase_8,1,1,48,26,1458963200
79,15,15,Jits_Phase_8,2,5,63,98,1458976420
79,15,15,Jits_Phase_8,3,5,80,127,1459035640
79,15,15,Jits_Phase_8,0,5,80,127,1459715588
79,15,15,Jits_Phase_8,1,5,56,103,1459725632
79,15,15,Jits_Phase_8,2,1,48,22,1459745684
79,15,15,Jits_Phase_8,3,5,63,98,1459796524
79,15,15,Jits_Phase_8,0,5,63,98,1460545848
79,15,15,Jits_Phase_8,1,1,48,23,1460577692
79,15,15,Jits_Phase_8,2,5,80,127,1460636004
79,15,15,Jits_Phase_8,3,5,56,103,1460646348
79,15,15,Jits_Phase_8,0,5,63,98,1461276164
79,15,15,Jits_Phase_8,1,5,80,127,1461326364
79,15,15,Jits_Phase_8,2,5,56,103,1461385632
79,15,15,Jits_Phase_8,3,1,48,21,1461400960
79,15,15,Jits_Phase_8,0,5,56,103,1462096372
79,15,15,Jits_Phase_8,1,1,48,25,1462135308
79,15,15,Jits_Phase_8,2,5,80,127,1462146344
79,15,15,Jits_Phase_8,3,5,63,98,1462165904
79,15,15,Jits_Phase_8,0,5,56,103,1462866472
79,15,15,Jits_Phase_8,1,1,48,24,1462879336
79,15,15,Jits_Phase_8,2,5,80,127,1462925736
79,15,15,Jits_Phase_8,3,5,63,98,1462996520
79,15,15,Jits_Phase_8,0,5,56,103,1463666020
79,15,15,Jits_Phase_8,1,5,80,127,1463695772
79,15,15,Jits_Phase_8,2,1,48,26,1463725596
79,15,15,Jits_Phase_8,3,5,63,98,1463727004
79,15,15,Jits_Phase_8,0,5,56,103,1464505720
79,15,15,Jits_Phase_8,1,5,80,127,1464526328
79,15,15,Jits_Phase_8,2,1,48,17,1464538592
79,15,15,Jits_Phase_8,3,5,63,98,1464585516
79,15,15,Jits_Phase_8,0,1,48,21,1465360896
79,15,15,Jits_Phase_8,1,5,80,127,1465386252
79,15,15,Jits_Phase_8,2,5,56,103,1465395624
79,15,15,Jits_Phase_8,3,5,63,98,1465405896
79,15,15,Jits_Phase_8,0,1,48,31,1466139384
79,15,15,Jits_Phase_8,1,5,56,103,1466146308
79,15,15,Jits_Phase_8,2,5,80,127,1466186244
79,15,15,Jits_Phase_8,3,5,63,98,1466215720
79,15,15,Jits_Phase_8,0,5,56,103,1466916256
79,15,15,Jits_Phase_8,1,1,48,38,1466943740
79,15,15,Jits_Phase_8,2,5,63,98,1466945852
79,15,15,Jits_Phase_8,3,5,80,127,1466985816
79,15,15,Jits_Phase_8,0,5,80,127,1467665832
79,15,15,Jits_Phase_8,1,5,63,98,1467715812
79,15,15,Jits_Phase_8,2,5,56,103,1467736444
79,15,15,Jits_Phase_8,3,1,48,39,1467755604
79,15,15,Jits_Phase_8,0,5,56,103,1468496492
79,15,15,Jits_Phase_8,1,1,48,35,1468519992
79,15,15,Jits_Phase_8,2,5,80,127,1468566168
79,15,15,Jits_Phase_8,3,5,63,98,1468626464
79,15,15,Jits_Phase_8,0,5,80,127,1469296044
79,15,15,Jits_Phase_8,1,1,48,29,1469375360
79,15,15,Jits_Phase_8,2,5,63,98,1469386244
79,15,15,Jits_Phase_8,3,5,56,103,1469405508
79,15,15,Jits_Phase_8,0,5,63,98,1470116196
79,15,15,Jits_Phase_8,1,5,56,103,1470135608
79,15,15,Jits_Phase_8,2,5,80,127,1470175696
79,15,15,Jits_Phase_8,3,1,48,35,1470194104
79,15,15,Jits_Phase_8,0,5,80,127,1470876168
79,15,15,Jits_Phase_8,1,5,63,98,1470895356
79,15,15,Jits_Phase_8,2,1,48,37,1470921772
79,15,15,Jits_Phase_8,3,5,56,103,1470976340
79,15,15,Jits_Phase_8,0,5,63,98,1471665448
79,15,15,Jits_Phase_8,1,1,48,31,1471708048
79,15,15,Jits_Phase_8,2,5,56,103,1471776100
79,15,15,Jits_Phase_8,3,5,80,127,1471779244
79,15,15,Jits_Phase_8,0,5,63,98,1472485872
79,15,15,Jits_Phase_8,1,5,56,103,1472496216
79,15,15,Jits_Phase_8,2,5,80,127,1472499208
79,15,15,Jits_Phase_8,3,1,48,35,1472511616
79,15,15,Jits_Phase_8,0,5,56,103,1473266204
79,15,15,Jits_Phase_8,1,1,48,36,1473276000
79,15,15,Jits_Phase_8,2,5,80,127,1473385936
79,15,15,Jits_Phase_8,3,5,63,98,1473425724
79,15,15,Jits_Phase_8,0,5,56,103,1474086136
79,15,15,Jits_Phase_8,1,1,48,32,1474099140
79,15,15,Jits_Phase_8,2,5,80,127,1474166024
79,15,15,Jits_Phase_8,3,5,63,98,1474185660
79,15,15,Jits_Phase_8,0,5,56,103,1474886204
79,15,15,Jits_Phase_8,1,1,48,32,1474978956
79,15,15,Jits_Phase_8,2,5,63,98,1474995540
79,15,15,Jits_Phase_8,3,5,80,127,1474998904
79,15,15,Jits_Phase_8,0,5,56,103,1475725780
79,15,15,Jits_Phase_8,1,5,80,127,1475756428
79,15,15,Jits_Phase_8,2,5,63,98,1475776064
79,15,15,Jits_Phase_8,3,1,48,39,1475777252
79,15,15,Jits_Phase_8,0,5,63,98,1476516252
79,15,15,Jits_Phase_8,1,5,56,103,1476525404
79,15,15,Jits_Phase_8,2,5,80,127,1476535596
79,15,15,Jits_Phase_8,3,1,48,40,1476571820
79,15,15,Jits_Phase_8,0,5,80,127,1477305592
79,15,15,Jits_Phase_8,1,1,48,35,1477329832
79,15,15,Jits_Phase_8,2,5,56,103,1477356084
79,15,15,Jits_Phase_8,3,5,63,98,1477396096
79,15,15,Jits_Phase_8,0,1,48,42,1478118740
79,15,15,Jits_Phase_8,1,5,80,127,1478126032
79,15,15,Jits_Phase_8,2,5,63,98,1478146416
79,15,15,Jits_Phase_8,3,5,56,103,1478195496
79,15,15,Jits_Phase_8,0,5,80,127,1478936060
79,15,15,Jits_Phase_8,1,1,48,37,1478946228
79,15,15,Jits_Phase_8,2,5,56,103,1478965580
79,15,15,Jits_Phase_8,3,5,63,98,1479036404
79,15,15,Jits_Phase_8,0,5,56,103,1479785832
79,15,15,Jits_Phase_8,1,5,80,127,1479796028
79,15,15,Jits_Phase_8,2,1,48,38,1479816156
79,15,15,Jits_Phase_8,3,5,63,98,1479836108
79,15,15,Jits_Phase_8,0,5,56,103,1480495604
79,15,15,Jits_Phase_8,1,5,63,98,1480516136
79,15,15,Jits_Phase_8,2,5,80,127,1480585544
79,15,15,Jits_Phase_8,3,1,48,41,1480588212
79,15,15,Jits_Phase_8,0,5,63,98,1481315552
79,15,15,Jits_Phase_8,1,1,48,43,1481327212
79,15,15,Jits_Phase_8,2,5,80,127,1481376088
79,15,15,Jits_Phase_8,3,5,56,103,1481395872
79,15,15,Jits_Phase_8,0,5,80,127,1482106092
79,15,15,Jits_Phase_8,1,1,48,37,1482135240
79,15,15,Jits_Phase_8,2,5,56,103,1482136808
79,15,15,Jits_Phase_8,3,5,63,98,1482165588
79,15,15,Jits_Phase_8,0,5,56,103,1482906080
79,15,15,Jits_Phase_8,1,1,48,41,1482938424
79,15,15,Jits_Phase_8,2,5,63,98,1482966316
79,15,15,Jits_Phase_8,3,5,80,127,1483026028
79,15,15,Jits_Phase_8,0,1,48,38,1483720872
79,15,15,Jits_Phase_8,1,5,80,127,1483726148
79,15,15,Jits_Phase_8,2,5,56,103,1483745708
79,15,15,Jits_Phase_8,3,5,63,98,1483816272
79,15,15,Jits_Phase_8,0,5,80,127,1484526060
79,15,15,Jits_Phase_8,1,5,63,98,1484546372
79,15,15,Jits_Phase_8,2,1,48,34,1484548312
79,15,15,Jits_Phase_8,3,5,56,103,1484576040
79,15,15,Jits_Phase_8,0,5,80,127,1485315492
79,15,15,Jits_Phase_8,1,5,63,98,1485336028
79,15,15,Jits_Phase_8,2,1,48,36,1485348964
79,15,15,Jits_Phase_8,3,5,56,103,1485396284
79,15,15,Jits_Phase_8,0,5,80,127,1486116160
79,15,15,Jits_Phase_8,1,1,48,34,1486163348
79,15,15,Jits_Phase_8,2,5,56,103,1486215972
79,15,15,Jits_Phase_8,3,5,63,98,1486246396
79,15,15,Jits_Phase_8,0,5,63,98,1486905972
79,15,15,Jits_Phase_8,1,5,80,127,1486955976
79,15,15,Jits_Phase_8,2,5,56,103,1486976432
79,15,15,Jits_Phase_8,3,1,48,36,1487000300
79,15,15,Jits_Phase_8,0,5,80,127,1487746356
79,15,15,Jits_Phase_8,1,5,56,103,1487776180
79,15,15,Jits_Phase_8,2,5,63,98,1487779176
79,15,15,Jits_Phase_8,3,1,48,38,1487798332
79,15,15,Jits_Phase_8,0,1,48,36,1488513656
79,15,15,Jits_Phase_8,1,5,63,98,1488596240
79,15,15,Jits_Phase_8,2,5,56,103,1488636312
79,15,15,Jits_Phase_8,3,5,80,127,1488656020
79,15,15,Jits_Phase_8,0,5,80,127,1489356072
79,15,15,Jits_Phase_8,1,1,48,29,1489380768
79,15,15,Jits_Phase_8,2,5,63,98,1489435936
79,15,15,Jits_Phase_8,3,5,56,103,1489475936
79,15,15,Jits_Phase_8,0,5,63,98,1490176228
79,15,15,Jits_Phase_8,1,5,80,127,1490256124
79,15,15,Jits_Phase_8,2,1,48,30,1490264644
79,15,15,Jits_Phase_8,3,5,56,103,1490275976
79,15,15,Jits_Phase_8,0,5,56,103,1491016072
79,15,15,Jits_Phase_8,1,5,63,98,1491026220
79,15,15,Jits_Phase_8,2,5,80,127,1491066156
79,15,15,Jits_Phase_8,3,1,48,37,1491084492
79,15,15,Jits_Phase_8,0,5,56,103,1491735976
79,15,15,Jits_Phase_8,1,5,80,127,1491739196
79,15,15,Jits_Phase_8,2,1,48,39,1491868132
79,15,15,Jits_Phase_8,3,5,63,98,1491876096
79,15,15,Jits_Phase_8,0,5,56,103,1492525404
79,15,15,Jits_Phase_8,1,1,48,30,1492561284
79,15,15,Jits_Phase_8,2,5,63,98,1492615632
79,15,15,Jits_Phase_8,3,5,80,127,1492686120
79,15,15,Jits_Phase_8,0,1,48,35,1493387880
79,15,15,Jits_Phase_8,1,5,63,98,1493406108
79,15,15,Jits_Phase_8,2,5,80,127,1493409324
79,15,15,Jits_Phase_8,3,5,56,103,1493465672
79,15,15,Jits_Phase_8,0,5,80,127,1494245656
79,15,15,Jits_Phase_8,1,1,48,38,1494257240
79,15,15,Jits_Phase_8,2,5,56,103,1494266256
79,15,15,Jits_Phase_8,3,5,63,98,1494275628
79,15,15,Jits_Phase_8,0,5,56,103,1494956500
79,15,15,Jits_Phase_8,1,5,63,98,1494965576
79,15,15,Jits_Phase_8,2,1,48,39,1495023520
79,15,15,Jits_Phase_8,3,5,80,127,1495036440
79,15,15,Jits_Phase_8,0,5,80,127,1495756124
79,15,15,Jits_Phase_8,1,1,48,36,1495792652
79,15,15,Jits_Phase_8,2,5,56,103,1495806172
79,15,15,Jits_Phase_8,3,5,63,98,1495855620
79,15,15,Jits_Phase_8,0,1,48,37,1496571440
79,15,15,Jits_Phase_8,1,5,56,103,1496635684
79,15,15,Jits_Phase_8,2,5,63,98,1496645952
79,15,15,Jits_Phase_8,3,5,80,127,1496685900
79,15,15,Jits_Phase_8,0,5,56,103,1497376044
79,15,15,Jits_Phase_8,1,1,48,33,1497408908
79,15,15,Jits_Phase_8,2,5,63,98,1497415976
79,15,15,Jits_Phase_8,3,5,80,127,1497466348
79,15,15,Jits_Phase_8,0,5,80,127,1498136032
79,15,15,Jits_Phase_8,1,5,56,103,1498186088
79,15,15,Jits_Phase_8,2,5,63,98,1498205600
79,15,15,Jits_Phase_8,3,1,48,36,1498224980
79,15,15,Jits_Phase_8,0,5,80,127,1498945992
79,15,15,Jits_Phase_8,1,1,48,38,1498999036
79,15,15,Jits_Phase_8,2,5,63,98,1499006552
79,15,15,Jits_Phase_8,3,5,56,103,1499086268
79,15,15,Jits_Phase_8,0,5,80,127,1499726384
79,15,15,Jits_Phase_8,1,5,56,103,1499766548
79,15,15,Jits_Phase_8,2,5,63,98,1499785516
79,15,15,Jits_Phase_8,3,1,48,38,1499834564
79,15,15,Jits_Phase_8,0,1,48,42,1500555120
79,15,15,Jits_Phase_8,1,5,56,103,1500576048
79,15,15,Jits_Phase_8,2,5,80,127,1500586616
79,15,15,Jits_Phase_8,3,5,63,98,1500626480
79,15,15,Jits_Phase_8,0,1,48,40,1501357048
79,15,15,Jits_Phase_8,1,5,56,103,1501445484
79,15,15,Jits_Phase_8,2,5,63,98,1501485632
79,15,15,Jits_Phase_8,3,5,80,127,1501488996
79,15,15,Jits_Phase_8,0,5,63,98,1502116308
79,15,15,Jits_Phase_8,1,5,80,127,1502156172
79,15,15,Jits_Phase_8,2,5,56,103,1502225704
79,15,15,Jits_Phase_8,3,1,48,34,1502271668
79,15,15,Jits_Phase_8,0,5,63,98,1502886548
79,15,15,Jits_Phase_8,1,5,56,103,1502966120
79,15,15,Jits_Phase_8,2,5,80,127,1503025460
79,15,15,Jits_Phase_8,3,1,48,39,1503043328
79,15,15,Jits_Phase_8,0,5,80,127,1503696492
79,15,15,Jits_Phase_8,1,1,48,29,1503736404
79,15,15,Jits_Phase_8,2,5,63,98,1503746540
79,15,15,Jits_Phase_8,3,5,56,103,1503775992
79,15,15,Jits_Phase_8,0,5,56,103,1504485776
79,15,15,Jits_Phase_8,1,5,63,98,1504535904
79,15,15,Jits_Phase_8,2,5,80,127,1504546100
79,15,15,Jits_Phase_8,3,1,48,35,1504550712
79,15,15,Jits_Phase_8,0,5,56,103,1505295732
79,15,15,Jits_Phase_8,1,1,48,32,1505342972
79,15,15,Jits_Phase_8,2,5,63,98,1505406488
79,15,15,Jits_Phase_8,3,5,80,127,1505425748
79,15,15,Jits_Phase_8,0,5,63,98,1506095432
79,15,15,Jits_Phase_8,1,5,80,127,1506145660
79,15,15,Jits_Phase_8,2,1,48,29,1506163304
79,15,15,Jits_Phase_8,3,5,56,103,1506235708
79,15,15,Jits_Phase_8,0,5,63,98,1506885976
79,15,15,Jits_Phase_8,1,5,80,127,1506915676
79,15,15,Jits_Phase_8,2,5,56,103,1507005732
79,15,15,Jits_Phase_8,3,1,48,36,1507017392
79,15,15,Jits_Phase_8,0,5,63,98,1507685828
79,15,15,Jits_Phase_8,1,5,56,103,1507695952
79,15,15,Jits_Phase_8,2,1,48,37,1507789272
79,15,15,Jits_Phase_8,3,5,80,127,1507796264
79,15,15,Jits_Phase_8,0,1,48,35,1508524360
79,15,15,Jits_Phase_8,1,5,63,98,1508585740
79,15,15,Jits_Phase_8,2,5,80,127,1508616596
79,15,15,Jits_Phase_8,3,5,56,103,1508646420
79,15,15,Jits_Phase_8,0,1,48,34,1509364960
79,15,15,Jits_Phase_8,1,5,80,127,1509406336
79,15,15,Jits_Phase_8,2,5,63,98,1509416308
79,15,15,Jits_Phase_8,3,5,56,103,1509446132
79,15,15,Jits_Phase_8,0,5,80,127,1510105492
79,15,15,Jits_Phase_8,1,5,63,98,1510125804
79,15,15,Jits_Phase_8,2,5,56,103,1510176300
79,15,15,Jits_Phase_8,3,1,48,39,1510237436
79,15,15,Jits_Phase_8,0,1,48,43,1510922604
79,15,15,Jits_Phase_8,1,5,63,98,1510935976
79,15,15,Jits_Phase_8,2,5,80,127,1510996240
79,15,15,Jits_Phase_8,3,5,56,103,1511015800
79,15,15,Jits_Phase_8,0,5,63,98,1511695656
79,15,15,Jits_Phase_8,1,5,56,103,1511745932
79,15,15,Jits_Phase_8,2,1,48,37,1511746972
79,15,15,Jits_Phase_8,3,5,80,127,1511756296
79,15,15,Jits_Phase_8,0,5,56,103,1512526372
79,15,15,Jits_Phase_8,1,5,80,127,1512536420
79,15,15,Jits_Phase_8,2,1,48,38,1512541108
79,15,15,Jits_Phase_8,3,5,63,98,1512635672
79,15,15,Jits_Phase_8,0,5,80,127,1513286336
79,15,15,Jits_Phase_8,1,5,63,98,1513296112
79,15,15,Jits_Phase_8,2,1,48,39,1513323420
79,15,15,Jits_Phase_8,3,5,56,103,1513445852
79,15,15,Jits_Phase_8,0,5,63,98,1514096248
79,15,15,Jits_Phase_8,1,5,80,127,1514135892
79,15,15,Jits_Phase_8,2,1,48,40,1514149496
79,15,15,Jits_Phase_8,3,5,56,103,1514216196
79,15,15,Jits_Phase_8,0,5,56,103,1514845428
79,15,15,Jits_Phase_8,1,5,80,127,1514946048
79,15,15,Jits_Phase_8,2,1,48,39,1514966508
79,15,15,Jits_Phase_8,3,5,63,98,1514967772
79,15,15,Jits_Phase_8,0,5,80,127,1515665736
79,15,15,Jits_Phase_8,1,5,56,103,1515676080
79,15,15,Jits_Phase_8,2,1,48,38,1515716288
79,15,15,Jits_Phase_8,3,5,63,98,1515766056
79,15,15,Jits_Phase_8,0,5,56,103,1516465512
79,15,15,Jits_Phase_8,1,1,48,35,1516469228
79,15,15,Jits_Phase_8,2,5,63,98,1516486264
79,15,15,Jits_Phase_8,3,5,80,127,1516565968
79,15,15,Jits_Phase_8,0,5,63,98,1517216216
79,15,15,Jits_Phase_8,1,1,48,41,1517228624
79,15,15,Jits_Phase_8,2,5,56,103,1517306268
79,15,15,Jits_Phase_8,3,5,80,127,1517309336
79,15,15,Jits_Phase_8,0,1,48,40,1518028216
79,15,15,Jits_Phase_8,1,5,56,103,1518045552
79,15,15,Jits_Phase_8,2,5,80,127,1518106240
79,15,15,Jits_Phase_8,3,5,63,98,1518116288
79,15,15,Jits_Phase_8,0,1,48,40,1518846260
79,15,15,Jits_Phase_8,1,5,80,127,1518895360
79,15,15,Jits_Phase_8,2,5,56,103,1518905704
79,15,15,Jits_Phase_8,3,5,63,98,1518908992
79,15,15,Jits_Phase_8,0,1,48,45,1519644364
79,15,15,Jits_Phase_8,1,5,56,103,1519656300
79,15,15,Jits_Phase_8,2,5,80,127,1519665376
79,15,15,Jits_Phase_8,3,5,63,98,1519686132
79,15,15,Jits_Phase_8,0,5,63,98,1520426468
79,15,15,Jits_Phase_8,1,1,48,36,1520443536
79,15,15,Jits_Phase_8,2,5,80,127,1520485980
79,15,15,Jits_Phase_8,3,5,56,103,1520536176
79,15,15,Jits_Phase_8,0,1,48,35,1521219148
79,15,15,Jits_Phase_8,1,5,63,98,1521306188
79,15,15,Jits_Phase_8,2,5,56,103,1521316292
79,15,15,Jits_Phase_8,3,5,80,127,1521366272
79,15,15,Jits_Phase_8,0,5,63,98,1522006236
79,15,15,Jits_Phase_8,1,5,80,127,1522025948
79,15,15,Jits_Phase_8,2,5,56,103,1522036072
79,15,15,Jits_Phase_8,3,1,48,36,1522098448
79,15,15,Jits_Phase_8,0,5,63,98,1522806064
79,15,15,Jits_Phase_8,1,5,80,127,1522809504
79,15,15,Jits_Phase_8,2,1,48,38,1522838472
79,15,15,Jits_Phase_8,3,5,56,103,1522845992
79,15,15,Jits_Phase_8,0,1,48,37,1523630120
79,15,15,Jits_Phase_8,1,5,63,98,1523675476
79,15,15,Jits_Phase_8,2,5,80,127,1523706348
79,15,15,Jits_Phase_8,3,5,56,103,1523715496
79,15,15,Jits_Phase_8,0,1,48,34,1524422232
79,15,15,Jits_Phase_8,1,5,56,103,1524426308
79,15,15,Jits_Phase_8,2,5,80,127,1524455912
79,15,15,Jits_Phase_8,3,5,63,98,1524485512
79,15,15,Jits_Phase_8,0,1,48,40,1525260652
79,15,15,Jits_Phase_8,1,5,63,98,1525326260
79,15,15,Jits_Phase_8,2,5,56,103,1525366184
79,15,15,Jits_Phase_8,3,5,80,127,1525369252
79,15,15,Jits_Phase_8,0,5,80,127,1526025756
79,15,15,Jits_Phase_8,1,5,56,103,1526105800
79,15,15,Jits_Phase_8,2,1,48,36,1526112364
79,15,15,Jits_Phase_8,3,5,63,98,1526155844
79,15,15,Jits_Phase_8,0,5,80,127,1526806052
79,15,15,Jits_Phase_8,1,5,56,103,1526826212
79,15,15,Jits_Phase_8,2,5,63,98,1526915544
79,15,15,Jits_Phase_8,3,1,48,40,1526933952
79,15,15,Jits_Phase_8,0,5,80,127,1527645700
79,15,15,Jits_Phase_8,1,5,63,98,1527685864
79,15,15,Jits_Phase_8,2,1,48,37,1527716628
79,15,15,Jits_Phase_8,3,5,56,103,1527725348
79,15,15,Jits_Phase_8,0,5,63,98,1528455440
79,15,15,Jits_Phase_8,1,5,80,127,1528515908
79,15,15,Jits_Phase_8,2,1,48,41,1528539628
79,15,15,Jits_Phase_8,3,5,56,103,1528545800
79,15,15,Jits_Phase_8,0,5,56,103,1529296172
79,15,15,Jits_Phase_8,1,1,48,39,1529307240
79,15,15,Jits_Phase_8,2,5,80,127,1529326064
79,15,15,Jits_Phase_8,3,5,63,98,1529415956
79,15,15,Jits_Phase_8,0,5,56,103,1530106180
79,15,15,Jits_Phase_8,1,1,48,32,1530192032
79,15,15,Jits_Phase_8,2,5,80,127,1530215736
79,15,15,Jits_Phase_8,3,5,63,98,1530245488
79,15,15,Jits_Phase_8,0,5,56,103,1530956032
79,15,15,Jits_Phase_8,1,1,48,32,1531009720
79,15,15,Jits_Phase_8,2,5,63,98,1531015668
79,15,15,Jits_Phase_8,3,5,80,127,1531046244
79,15,15,Jits_Phase_8,0,5,56,103,1531726144
79,15,15,Jits_Phase_8,1,5,63,98,1531795680
79,15,15,Jits_Phase_8,2,1,48,37,1531815760
79,15,15,Jits_Phase_8,3,5,80,127,1531817252
79,15,15,Jits_Phase_8,0,5,80,127,1532496176
79,15,15,Jits_Phase_8,1,5,63,98,1532515736
79,15,15,Jits_Phase_8,2,5,56,103,1532565860
79,15,15,Jits_Phase_8,3,1,48,38,1532602540
79,15,15,Jits_Phase_8,0,5,63,98,1533315572
79,15,15,Jits_Phase_8,1,5,80,127,1533325772
79,15,15,Jits_Phase_8,2,1,48,36,1533350168
79,15,15,Jits_Phase_8,3,5,56,103,1533375816
79,15,15,Jits_Phase_8,0,1,48,42,1534109824
79,15,15,Jits_Phase_8,1,5,63,98,1534116144
79,15,15,Jits_Phase_8,2,5,80,127,1534185824
79,15,15,Jits_Phase_8,3,5,56,103,1534206196
79,15,15,Jits_Phase_8,0,1,48,40,1534903056
79,15,15,Jits_Phase_8,1,5,63,98,1534945796
79,15,15,Jits_Phase_8,2,5,80,127,1534949088
79,15,15,Jits_Phase_8,3,5,56,103,1535016284
79,15,15,Jits_Phase_8,0,5,80,127,1535696184
79,15,15,Jits_Phase_8,1,1,48,40,1535710760
79,15,15,Jits_Phase_8,2,5,56,103,1535715588
79,15,15,Jits_Phase_8,3,5,63,98,1535726008
79,15,15,Jits_Phase_8,0,5,56,103,1536515728
79,15,15,Jits_Phase_8,1,1,48,40,1536526644
79,15,15,Jits_Phase_8,2,5,63,98,1536605652
79,15,15,Jits_Phase_8,3,5,80,127,1536608944
79,15,15,Jits_Phase_8,0,1,48,38,1537273492
79,15,15,Jits_Phase_8,1,5,80,127,1537285592
79,15,15,Jits_Phase_8,2,5,56,103,1537295712
79,15,15,Jits_Phase_8,3,5,63,98,1537316172
79,15,15,Jits_Phase_8,0,5,63,98,1538086168
79,15,15,Jits_Phase_8,1,5,80,127,1538145760
79,15,15,Jits_Phase_8,2,1,48,43,1538147704
79,15,15,Jits_Phase_8,3,5,56,103,1538156100
79,15,15,Jits_Phase_8,0,1,48,38,1538879968
79,15,15,Jits_Phase_8,1,5,63,98,1538955768
79,15,15,Jits_Phase_8,2,5,80,127,1538986476
79,15,15,Jits_Phase_8,3,5,56,103,1539026264
79,15,15,Jits_Phase_8,0,1,48,37,1539737372
79,15,15,Jits_Phase_8,1,5,56,103,1539746092
79,15,15,Jits_Phase_8,2,5,80,127,1539756512
79,15,15,Jits_Phase_8,3,5,63,98,1539796448
79,15,15,Jits_Phase_8,0,5,80,127,1540505992
79,15,15,Jits_Phase_8,1,1,48,41,1540564336
79,15,15,Jits_Phase_8,2,5,56,103,1540585932
79,15,15,Jits_Phase_8,3,5,63,98,1540596056
79,15,15,Jits_Phase_8,0,1,48,39,1541353444
79,15,15,Jits_Phase_8,1,5,80,127,1541355956
79,15,15,Jits_Phase_8,2,5,56,103,1541435752
79,15,15,Jits_Phase_8,3,5,63,98,1541445872
79,15,15,Jits_Phase_8,0,1,48,35,1542180788
79,15,15,Jits_Phase_8,1,5,80,127,1542195656
79,15,15,Jits_Phase_8,2,5,56,103,1542245660
79,15,15,Jits_Phase_8,3,5,63,98,1542295844
79,15,15,Jits_Phase_8,0,1,48,34,1543020416
79,15,15,Jits_Phase_8,1,5,56,103,1543135588
79,15,15,Jits_Phase_8,2,5,63,98,1543138656
79,15,15,Jits_Phase_8,3,5,80,127,1543185712
79,15,15,Jits_Phase_8,0,1,48,32,1543932176
79,15,15,Jits_Phase_8,1,5,56,103,1543955812
79,15,15,Jits_Phase_8,2,5,63,98,1543985560
79,15,15,Jits_Phase_8,3,5,80,127,1543995832
79,15,15,Jits_Phase_8,0,5,63,98,1544665380
79,15,15,Jits_Phase_8,1,5,56,103,1544736404
79,15,15,Jits_Phase_8,2,1,48,42,1544764856
79,15,15,Jits_Phase_8,3,5,80,127,1544786472
79,15,15,Jits_Phase_8,0,5,63,98,1545495780
79,15,15,Jits_Phase_8,1,5,56,103,1545506040
79,15,15,Jits_Phase_8,2,5,80,127,1545509264
79,15,15,Jits_Phase_8,3,1,48,46,1545578788
79,15,15,Jits_Phase_8,0,5,80,127,1546245476
79,15,15,Jits_Phase_8,1,5,56,103,1546305792
79,15,15,Jits_Phase_8,2,1,48,40,1546328492
79,15,15,Jits_Phase_8,3,5,63,98,1546395940
79,15,15,Jits_Phase_8,0,5,80,127,1547046588
79,15,15,Jits_Phase_8,1,5,56,103,1547145744
79,15,15,Jits_Phase_8,2,1,48,40,1547150508
79,15,15,Jits_Phase_8,3,5,63,98,1547185448
79,15,15,Jits_Phase_8,0,5,56,103,1547896288
79,15,15,Jits_Phase_8,1,5,63,98,1547915700
79,15,15,Jits_Phase_8,2,5,80,127,1547955488
79,15,15,Jits_Phase_8,3,1,48,36,1548002500
79,15,15,Jits_Phase_8,0,5,63,98,1548666388
79,15,15,Jits_Phase_8,1,5,56,103,1548685652
79,15,15,Jits_Phase_8,2,1,48,44,1548696716
79,15,15,Jits_Phase_8,3,5,80,127,1548785892
79,15,15,Jits_Phase_8,0,5,63,98,1549455652
79,15,15,Jits_Phase_8,1,1,48,38,1549482440
79,15,15,Jits_Phase_8,2,5,80,127,1549566232
79,15,15,Jits_Phase_8,3,5,56,103,1549596040
79,15,15,Jits_Phase_8,0,5,56,103,1550276164
79,15,15,Jits_Phase_8,1,1,48,44,1550296072
79,15,15,Jits_Phase_8,2,5,63,98,1550305684
79,15,15,Jits_Phase_8,3,5,80,127,1550355960
79,15,15,Jits_Phase_8,0,5,63,98,1551046264
79,15,15,Jits_Phase_8,1,5,56,103,1551075716
79,15,15,Jits_Phase_8,2,1,48,38,1551107756
79,15,15,Jits_Phase_8,3,5,80,127,1551125912
79,15,15,Jits_Phase_8,0,1,48,43,1551858348
79,15,15,Jits_Phase_8,1,5,56,103,1551875460
79,15,15,Jits_Phase_8,2,5,63,98,1551895844
79,15,15,Jits_Phase_8,3,5,80,127,1551975648
79,15,15,Jits_Phase_8,0,5,63,98,1552645404
79,15,15,Jits_Phase_8,1,1,48,46,1552657964
79,15,15,Jits_Phase_8,2,5,56,103,1552706012
79,15,15,Jits_Phase_8,3,5,80,127,1552735488
79,15,15,Jits_Phase_8,0,1,48,38,1553459880
79,15,15,Jits_Phase_8,1,5,56,103,1553486380
79,15,15,Jits_Phase_8,2,5,80,127,1553545576
79,15,15,Jits_Phase_8,3,5,63,98,1553585500
79,15,15,Jits_Phase_8,0,5,63,98,1554265548
79,15,15,Jits_Phase_8,1,1,48,41,1554307184
79,15,15,Jits_Phase_8,2,5,56,103,1554325932
79,15,15,Jits_Phase_8,3,5,80,127,1554395464
79,15,15,Jits_Phase_8,0,1,48,40,1555107984
79,15,15,Jits_Phase_8,1,5,56,103,1555146292
79,15,15,Jits_Phase_8,2,5,63,98,1555156336
79,15,15,Jits_Phase_8,3,5,80,127,1555159700
79,15,15,Jits_Phase_8,0,5,63,98,1555885360
79,15,15,Jits_Phase_8,1,1,48,43,1555914408
79,15,15,Jits_Phase_8,2,5,56,103,1555945964
79,15,15,Jits_Phase_8,3,5,80,127,1555948812
79,15,15,Jits_Phase_8,0,5,63,98,1556665704
79,15,15,Jits_Phase_8,1,5,80,127,1556696500
79,15,15,Jits_Phase_8,2,1,48,44,1556705396
79,15,15,Jits_Phase_8,3,5,56,103,1556715832
79,15,15,Jits_Phase_8,0,5,56,103,1557395704
79,15,15,Jits_Phase_8,1,5,63,98,1557446276
79,15,15,Jits_Phase_8,2,1,48,43,1557471120
79,15,15,Jits_Phase_8,3,5,80,127,1557525988
79,15,15,Jits_Phase_8,0,5,80,127,1558096216
79,15,15,Jits_Phase_8,1,5,63,98,1558136228
79,15,15,Jits_Phase_8,2,5,56,103,1558155492
79,15,15,Jits_Phase_8,3,1,48,39,1558178092
79,15,15,Jits_Phase_8,0,5,56,103,1558965512
79,15,15,Jits_Phase_8,1,5,80,127,1558975708
79,15,15,Jits_Phase_8,2,5,63,98,1558996392
79,15,15,Jits_Phase_8,3,1,48,32,1559029252
79,15,15,Jits_Phase_8,0,5,56,103,1559746172
79,15,15,Jits_Phase_8,1,1,48,39,1559762400
79,15,15,Jits_Phase_8,2,5,63,98,1559796072
79,15,15,Jits_Phase_8,3,5,80,127,1559826044
79,15,15,Jits_Phase_8,0,5,56,103,1560495532
79,15,15,Jits_Phase_8,1,5,63,98,1560505728
79,15,15,Jits_Phase_8,2,5,80,127,1560556152
79,15,15,Jits_Phase_8,3,1,48,43,1560590660
79,15,15,Jits_Phase_8,0,1,48,44,1561278108
79,15,15,Jits_Phase_8,1,5,56,103,1561286144
79,15,15,Jits_Phase_8,2,5,80,127,1561289064
79,15,15,Jits_Phase_8,3,5,63,98,1561445660
79,15,15,Jits_Phase_8,0,5,63,98,1562106204
79,15,15,Jits_Phase_8,1,1,48,37,1562176036
79,15,15,Jits_Phase_8,2,5,56,103,1562177300
79,15,15,Jits_Phase_8,3,5,80,127,1562215768
79,15,15,Jits_Phase_8,0,1,48,41,1562904216
79,15,15,Jits_Phase_8,1,5,63,98,1562946192
79,15,15,Jits_Phase_8,2,5,56,103,1563036036
79,15,15,Jits_Phase_8,3,5,80,127,1563039028
79,15,15,Jits_Phase_8,0,5,56,103,1563726196
79,15,15,Jits_Phase_8,1,1,48,43,1563791424
79,15,15,Jits_Phase_8,2,5,63,98,1563816176
79,15,15,Jits_Phase_8,3,5,80,127,1563825476
79,15,15,Jits_Phase_8,0,5,56,103,1564496232
79,15,15,Jits_Phase_8,1,5,63,98,1564546360
79,15,15,Jits_Phase_8,2,5,80,127,1564576032
79,15,15,Jits_Phase_8,3,1,48,40,1564608892
79,15,15,Jits_Phase_8,0,1,48,38,1565362716
79,15,15,Jits_Phase_8,1,5,63,98,1565376084
79,15,15,Jits_Phase_8,2,5,80,127,1565386060
79,15,15,Jits_Phase_8,3,5,56,103,1565445476
79,15,15,Jits_Phase_8,0,5,63,98,1566095760
79,15,15,Jits_Phase_8,1,5,80,127,1566156000
79,15,15,Jits_Phase_8,2,1,48,42,1566175608
79,15,15,Jits_Phase_8,3,5,56,103,1566196156
79,15,15,Jits_Phase_8,0,1,48,26,1566975208
79,15,15,Jits_Phase_8,1,5,56,103,1566995904
79,15,15,Jits_Phase_8,2,5,80,127,1567016288
79,15,15,Jits_Phase_8,3,5,63,98,1567035700
79,15,15,Jits_Phase_8,0,5,63,98,1567715960
79,15,15,Jits_Phase_8,1,5,56,103,1567736196
79,15,15,Jits_Phase_8,2,5,80,127,1567776060
79,15,15,Jits_Phase_8,3,1,48,30,1567790268
79,15,15,Jits_Phase_8,0,5,63,98,1568525832
79,15,15,Jits_Phase_8,1,1,48,41,1568528656
79,15,15,Jits_Phase_8,2,5,80,127,1568556252
79,15,15,Jits_Phase_8,3,5,56,103,1568576032
79,15,15,Jits_Phase_8,0,5,80,127,1569295844
79,15,15,Jits_Phase_8,1,1,48,40,1569304816
79,15,15,Jits_Phase_8,2,5,56,103,1569345968
79,15,15,Jits_Phase_8,3,5,63,98,1569406364
79,15,15,Jits_Phase_8,0,5,63,98,1570086324
79,15,15,Jits_Phase_8,1,1,48,39,1570142656
79,15,15,Jits_Phase_8,2,5,56,103,1570206072
79,15,15,Jits_Phase_8,3,5,80,127,1570235892
79,15,15,Jits_Phase_8,0,5,80,127,1570925896
79,15,15,Jits_Phase_8,1,5,63,98,1570946356
79,15,15,Jits_Phase_8,2,1,48,45,1570953212
79,15,15,Jits_Phase_8,3,5,56,103,1571016028
79,15,15,Jits_Phase_8,0,1,48,43,1571679336
79,15,15,Jits_Phase_8,1,5,63,98,1571746264
79,15,15,Jits_Phase_8,2,5,56,103,1571756312
79,15,15,Jits_Phase_8,3,5,80,127,1571836240
79,15,15,Jits_Phase_8,0,1,48,41,1572480880
79,15,15,Jits_Phase_8,1,5,56,103,1572606764
79,15,15,Jits_Phase_8,2,5,80,127,1572635996
79,15,15,Jits_Phase_8,3,5,63,98,1572646192
79,15,15,Jits_Phase_8,0,9999,9999,9999,1437763664
79,15,15,Jits_Phase_8,1,9999,9999,9999,1438563384
79,15,15,Jits_Phase_8,2,9999,9999,9999,1439363160
79,15,15,Jits_Phase_8,3,9999,9999,9999,1440163904
79,15,15,Jits_Phase_8,4,9999,9999,9999,1440963672
79,15,15,Jits_Phase_8,5,9999,9999,9999,1441763432
79,15,15,Jits_Phase_8,6,9999,9999,9999,1442563128
79,15,15,Jits_Phase_8,7,9999,9999,9999,1443363948
79,15,15,Jits_Phase_8,8,9999,9999,9999,1444163648
79,15,15,Jits_Phase_8,9,9999,9999,9999,1444963420
79,15,15,Jits_Phase_8,10,9999,9999,9999,1445763196
79,15,15,Jits_Phase_8,11,9999,9999,9999,1446563928
79,15,15,Jits_Phase_8,12,9999,9999,9999,1447363708
79,15,15,Jits_Phase_8,13,9999,9999,9999,1448163396
79,15,15,Jits_Phase_8,14,9999,9999,9999,1448963140
79,15,15,Jits_Phase_8,15,9999,9999,9999,1449763948
79,15,15,Jits_Phase_8,16,9999,9999,9999,1450563692
79,15,15,Jits_Phase_8,17,9999,9999,9999,1451363420
79,15,15,Jits_Phase_8,18,9999,9999,9999,1452163180
79,15,15,Jits_Phase_8,19,9999,9999,9999,1452963924
79,15,15,Jits_Phase_8,20,9999,9999,9999,1453763684
79,15,15,Jits_Phase_8,21,9999,9999,9999,1454563436
79,15,15,Jits_Phase_8,22,9999,9999,9999,1455363124
79,15,15,Jits_Phase_8,23,9999,9999,9999,1456163924
79,15,15,Jits_Phase_8,24,9999,9999,9999,1456963680
79,15,15,Jits_Phase_8,25,9999,9999,9999,1457763388
79,15,15,Jits_Phase_8,26,9999,9999,9999,1458563148
79,15,15,Jits_Phase_8,27,9999,9999,9999,1459363952
79,15,15,Jits_Phase_8,28,9999,9999,9999,1460163644
79,15,15,Jits_Phase_8,29,9999,9999,9999,1460963428
79,15,15,Jits_Phase_8,30,9999,9999,9999,1461743680
79,15,15,Jits_Phase_8,31,9999,9999,9999,1462543436
79,15,15,Jits_Phase_8,32,9999,9999,9999,1463343208
79,15,15,Jits_Phase_8,33,9999,9999,9999,1464143972
79,15,15,Jits_Phase_8,34,9999,9999,9999,1464943744
79,15,15,Jits_Phase_8,35,9999,9999,9999,1465743448
79,15,15,Jits_Phase_8,36,9999,9999,9999,1466543212
79,15,15,Jits_Phase_8,37,9999,9999,9999,1467343944
79,15,15,Jits_Phase_8,38,9999,9999,9999,1468143708
79,15,15,Jits_Phase_8,39,9999,9999,9999,1468943488
79,15,15,Jits_Phase_8,40,9999,9999,9999,1469743184
79,15,15,Jits_Phase_8,41,9999,9999,9999,1470543956
79,15,15,Jits_Phase_8,42,9999,9999,9999,1471343708
79,15,15,Jits_Phase_8,43,9999,9999,9999,1472143468
79,15,15,Jits_Phase_8,44,9999,9999,9999,1472943208
79,15,15,Jits_Phase_8,45,9999,9999,9999,1473743940
79,15,15,Jits_Phase_8,46,9999,9999,9999,1474543712
79,15,15,Jits_Phase_8,47,9999,9999,9999,1475343480
79,15,15,Jits_Phase_8,48,9999,9999,9999,1476163700
79,15,15,Jits_Phase_8,49,9999,9999,9999,1476963412
79,15,15,Jits_Phase_8,50,9999,9999,9999,1477763168
79,15,15,Jits_Phase_8,51,9999,9999,9999,1478563912
79,15,15,Jits_Phase_8,52,9999,9999,9999,1479363672
79,15,15,Jits_Phase_8,53,9999,9999,9999,1480163448
79,15,15,Jits_Phase_8,54,9999,9999,9999,1480963144
79,15,15,Jits_Phase_8,55,9999,9999,9999,1481763964
79,15,15,Jits_Phase_8,56,9999,9999,9999,1482563644
79,15,15,Jits_Phase_8,57,9999,9999,9999,1483363436
79,15,15,Jits_Phase_8,58,9999,9999,9999,1484163128
79,15,15,Jits_Phase_8,59,9999,9999,9999,1484963932
79,15,15,Jits_Phase_8,60,9999,9999,9999,1485763704
79,15,15,Jits_Phase_8,61,9999,9999,9999,1486563404
79,15,15,Jits_Phase_8,62,9999,9999,9999,1487363172
79,15,15,Jits_Phase_8,63,9999,9999,9999,1488163968
79,15,15,Jits_Phase_8,64,9999,9999,9999,1489003628
79,15,15,Jits_Phase_8,65,9999,9999,9999,1489803392
79,15,15,Jits_Phase_8,66,9999,9999,9999,1490603092
79,15,15,Jits_Phase_8,67,9999,9999,9999,1491403904
79,15,15,Jits_Phase_8,68,9999,9999,9999,1492203588
79,15,15,Jits_Phase_8,69,9999,9999,9999,1493003360
79,15,15,Jits_Phase_8,70,9999,9999,9999,1493803128
79,15,15,Jits_Phase_8,71,9999,9999,9999,1494603868
79,15,15,Jits_Phase_8,72,9999,9999,9999,1495403588
79,15,15,Jits_Phase_8,73,9999,9999,9999,1496203364
79,15,15,Jits_Phase_8,74,9999,9999,9999,1497003072
79,15,15,Jits_Phase_8,75,9999,9999,9999,1497803880
79,15,15,Jits_Phase_8,76,9999,9999,9999,1498603576
79,15,15,Jits_Phase_8,77,9999,9999,9999,1499403348
79,15,15,Jits_Phase_8,78,9999,9999,9999,1500203116
79,15,15,Jits_Phase_8,79,9999,9999,9999,1501003888
79,15,15,Jits_Phase_8,80,9999,9999,9999,1501803576
79,15,15,Jits_Phase_8,81,9999,9999,9999,1502563400
79,15,15,Jits_Phase_8,82,9999,9999,9999,1503363156
79,15,15,Jits_Phase_8,83,9999,9999,9999,1504163960
79,15,15,Jits_Phase_8,84,9999,9999,9999,1504963652
79,15,15,Jits_Phase_8,85,9999,9999,9999,1505763428
79,15,15,Jits_Phase_8,86,9999,9999,9999,1506563124
79,15,15,Jits_Phase_8,87,9999,9999,9999,1507363928
79,15,15,Jits_Phase_8,88,9999,9999,9999,1508163680
79,15,15,Jits_Phase_8,89,9999,9999,9999,1508963392
79,15,15,Jits_Phase_8,90,9999,9999,9999,1509763164
79,15,15,Jits_Phase_8,91,9999,9999,9999,1510563964
79,15,15,Jits_Phase_8,92,9999,9999,9999,1511363668
79,15,15,Jits_Phase_8,93,9999,9999,9999,1512163420
79,15,15,Jits_Phase_8,94,9999,9999,9999,1512963176
79,15,15,Jits_Phase_8,95,9999,9999,9999,1513763920
79,15,15,Jits_Phase_8,96,9999,9999,9999,1514563692
79,15,15,Jits_Phase_8,97,9999,9999,9999,1515283580
79,15,15,Jits_Phase_8,98,9999,9999,9999,1516083284
79,15,15,Jits_Phase_8,99,9999,9999,9999,1516884060
79,15,15,Jits_Phase_8,100,9999,9999,9999,1517683820
79,15,15,Jits_Phase_8,101,9999,9999,9999,1518483580
79,15,15,Jits_Phase_8,102,9999,9999,9999,1519283260
79,15,15,Jits_Phase_8,103,9999,9999,9999,1520084064
79,15,15,Jits_Phase_8,104,9999,9999,9999,1520883820
79,15,15,Jits_Phase_8,105,9999,9999,9999,1521683512
79,15,15,Jits_Phase_8,106,9999,9999,9999,1522483264
79,15,15,Jits_Phase_8,107,9999,9999,9999,1523284076
79,15,15,Jits_Phase_8,108,9999,9999,9999,1524083836
79,15,15,Jits_Phase_8,109,9999,9999,9999,1524883516
79,15,15,Jits_Phase_8,110,9999,9999,9999,1525683276
79,15,15,Jits_Phase_8,111,9999,9999,9999,1526484084
79,15,15,Jits_Phase_8,112,9999,9999,9999,1527283780
79,15,15,Jits_Phase_8,113,9999,9999,9999,1528083552
79,15,15,Jits_Phase_8,114,9999,9999,9999,1528963136
79,15,15,Jits_Phase_8,115,9999,9999,9999,1529763912
79,15,15,Jits_Phase_8,116,9999,9999,9999,1530563688
79,15,15,Jits_Phase_8,117,9999,9999,9999,1531363396
79,15,15,Jits_Phase_8,118,9999,9999,9999,1532163172
79,15,15,Jits_Phase_8,119,9999,9999,9999,1532963912
79,15,15,Jits_Phase_8,120,9999,9999,9999,1533763684
79,15,15,Jits_Phase_8,121,9999,9999,9999,1534563392
79,15,15,Jits_Phase_8,122,9999,9999,9999,1535363144
79,15,15,Jits_Phase_8,123,9999,9999,9999,1536163944
79,15,15,Jits_Phase_8,124,9999,9999,9999,1536963708
79,15,15,Jits_Phase_8,125,9999,9999,9999,1537763396
79,15,15,Jits_Phase_8,126,9999,9999,9999,1538563148
79,15,15,Jits_Phase_8,127,9999,9999,9999,1539363960
79,15,15,Jits_Phase_8,128,9999,9999,9999,1540163644
79,15,15,Jits_Phase_8,129,9999,9999,9999,1540963424
79,15,15,Jits_Phase_8,130,9999,9999,9999,1541763128
79,15,15,Jits_Phase_8,131,9999,9999,9999,1542723660
79,15,15,Jits_Phase_8,132,9999,9999,9999,1543523432
79,15,15,Jits_Phase_8,133,9999,9999,9999,1544323200
79,15,15,Jits_Phase_8,134,9999,9999,9999,1545123928
79,15,15,Jits_Phase_8,135,9999,9999,9999,1545923676
79,15,15,Jits_Phase_8,136,9999,9999,9999,1546723432
79,15,15,Jits_Phase_8,137,9999,9999,9999,1547523128
79,15,15,Jits_Phase_8,138,9999,9999,9999,1548323948
79,15,15,Jits_Phase_8,139,9999,9999,9999,1549123644
79,15,15,Jits_Phase_8,140,9999,9999,9999,1549923424
79,15,15,Jits_Phase_8,141,9999,9999,9999,1550723180
79,15,15,Jits_Phase_8,142,9999,9999,9999,1551523920
79,15,15,Jits_Phase_8,143,9999,9999,9999,1552323676
79,15,15,Jits_Phase_8,144,9999,9999,9999,1553123436
79,15,15,Jits_Phase_8,145,9999,9999,9999,1553923196
79,15,15,Jits_Phase_8,146,9999,9999,9999,1554723928
79,15,15,Jits_Phase_8,147,9999,9999,9999,1555523680
79,15,15,Jits_Phase_8,148,9999,9999,9999,1556323448
79,15,15,Jits_Phase_8,149,9999,9999,9999,1557123128
79,15,15,Jits_Phase_8,150,9999,9999,9999,1557763140
79,15,15,Jits_Phase_8,151,9999,9999,9999,1558563952
79,15,15,Jits_Phase_8,152,9999,9999,9999,1559363652
79,15,15,Jits_Phase_8,153,9999,9999,9999,1560163448
79,15,15,Jits_Phase_8,154,9999,9999,9999,1560963144
79,15,15,Jits_Phase_8,155,9999,9999,9999,1561763948
79,15,15,Jits_Phase_8,156,9999,9999,9999,1562563708
79,15,15,Jits_Phase_8,157,9999,9999,9999,1563363392
79,15,15,Jits_Phase_8,158,9999,9999,9999,1564163156
79,15,15,Jits_Phase_8,159,9999,9999,9999,1564963896
79,15,15,Jits_Phase_8,160,9999,9999,9999,1565763676
79,15,15,Jits_Phase_8,161,9999,9999,9999,1566563448
79,15,15,Jits_Phase_8,162,9999,9999,9999,1567363144
79,15,15,Jits_Phase_8,163,9999,9999,9999,1568163944
79,15,15,Jits_Phase_8,164,9999,9999,9999,1568963704
79,15,15,Jits_Phase_8,165,9999,9999,9999,1569763388
79,15,15,Jits_Phase_8,166,9999,9999,9999,1570563160
79,15,15,Jits_Phase_8,167,9999,9999,9999,1571363896
79,15,15,Jits_Phase_8,168,9999,9999,9999,1572163668
79,15,15,Jits_Phase_8,169,9999,9999,9999,1572963384
79,16,16,Jits_ISO_5,0,5,56,103,1581685084
79,16,16,Jits_ISO_5,1,5,63,98,1581688180
79,16,16,Jits_ISO_5,2,5,80,127,1581691528
79,16,16,Jits_ISO_5,0,5,56,103,1582184652
79,16,16,Jits_ISO_5,1,5,63,98,1582187900
79,16,16,Jits_ISO_5,2,5,80,127,1582191024
79,16,16,Jits_ISO_5,0,1,48,21,1582655940
79,16,16,Jits_ISO_5,1,5,56,103,1582684460
79,16,16,Jits_ISO_5,2,5,80,127,1582694804
79,16,16,Jits_ISO_5,3,5,63,98,1582715188
79,16,16,Jits_ISO_5,0,5,63,98,1583135028
79,16,16,Jits_ISO_5,1,5,80,127,1583164852
79,16,16,Jits_ISO_5,2,5,56,103,1583175048
79,16,16,Jits_ISO_5,3,1,48,29,1583206932
79,16,16,Jits_ISO_5,0,1,48,27,1583684976
79,16,16,Jits_ISO_5,1,5,80,127,1583695212
79,16,16,Jits_ISO_5,2,5,56,103,1583704656
79,16,16,Jits_ISO_5,3,5,63,98,1583735080
79,16,16,Jits_ISO_5,0,5,63,98,1584184816
79,16,16,Jits_ISO_5,1,1,48,40,1584199644
79,16,16,Jits_ISO_5,2,5,56,103,1584215556
79,16,16,Jits_ISO_5,3,5,80,127,1584224556
79,16,16,Jits_ISO_5,0,5,56,103,1584635180
79,16,16,Jits_ISO_5,1,1,48,32,1584678676
79,16,16,Jits_ISO_5,2,5,63,98,1584685600
79,16,16,Jits_ISO_5,3,5,80,127,1584704860
79,16,16,Jits_ISO_5,0,5,80,127,1585135004
79,16,16,Jits_ISO_5,1,1,48,35,1585178952
79,16,16,Jits_ISO_5,2,5,63,98,1585185272
79,16,16,Jits_ISO_5,3,5,56,103,1585225160
79,16,16,Jits_ISO_5,0,5,56,103,1585634532
79,16,16,Jits_ISO_5,1,5,63,98,1585665624
79,16,16,Jits_ISO_5,2,1,48,42,1585710916
79,16,16,Jits_ISO_5,3,5,80,127,1585734996
79,16,16,Jits_ISO_5,0,5,56,103,1586135528
79,16,16,Jits_ISO_5,1,1,48,38,1586168388
79,16,16,Jits_ISO_5,2,5,80,127,1586194788
79,16,16,Jits_ISO_5,3,5,63,98,1586224464
79,16,16,Jits_ISO_5,0,5,56,103,1586645316
79,16,16,Jits_ISO_5,1,5,63,98,1586654688
79,16,16,Jits_ISO_5,2,1,48,35,1586673096
79,16,16,Jits_ISO_5,3,5,80,127,1586694620
79,16,16,Jits_ISO_5,0,5,63,98,1587134872
79,16,16,Jits_ISO_5,1,1,48,43,1587152368
79,16,16,Jits_ISO_5,2,5,80,127,1587214660
79,16,16,Jits_ISO_5,3,5,56,103,1587225080
79,16,16,Jits_ISO_5,0,5,63,98,1587684656
79,16,16,Jits_ISO_5,1,1,48,40,1587701624
79,16,16,Jits_ISO_5,2,5,56,103,1587724588
79,16,16,Jits_ISO_5,3,5,80,127,1587727876
79,16,16,Jits_ISO_5,0,5,56,103,1588144600
79,16,16,Jits_ISO_5,1,5,63,98,1588154872
79,16,16,Jits_ISO_5,2,1,48,41,1588193904
79,16,16,Jits_ISO_5,3,5,80,127,1588195400
79,16,16,Jits_ISO_5,0,5,56,103,1588635056
79,16,16,Jits_ISO_5,1,5,63,98,1588637972
79,16,16,Jits_ISO_5,2,5,80,127,1588654540
79,16,16,Jits_ISO_5,3,1,48,42,1588667020
79,16,16,Jits_ISO_5,0,5,80,127,1589144904
79,16,16,Jits_ISO_5,1,1,48,39,1589152976
79,16,16,Jits_ISO_5,2,5,56,103,1589155164
79,16,16,Jits_ISO_5,3,5,63,98,1589224916
79,16,16,Jits_ISO_5,0,5,63,98,1589634388
79,16,16,Jits_ISO_5,1,5,56,103,1589654844
79,16,16,Jits_ISO_5,2,1,48,47,1589699912
79,16,16,Jits_ISO_5,3,5,80,127,1589734776
79,16,16,Jits_ISO_5,0,5,56,103,1590145284
79,16,16,Jits_ISO_5,1,1,48,43,1590168400
79,16,16,Jits_ISO_5,2,5,80,127,1590185436
79,16,16,Jits_ISO_5,3,5,63,98,1590194584
79,16,16,Jits_ISO_5,0,5,80,127,1590634764
79,16,16,Jits_ISO_5,1,5,63,98,1590664512
79,16,16,Jits_ISO_5,2,1,48,46,1590681932
79,16,16,Jits_ISO_5,3,5,56,103,1590704444
79,16,16,Jits_ISO_5,0,5,56,103,1591155184
79,16,16,Jits_ISO_5,1,1,48,39,1591173148
79,16,16,Jits_ISO_5,2,5,63,98,1591184632
79,16,16,Jits_ISO_5,3,5,80,127,1591234904
79,16,16,Jits_ISO_5,0,5,80,127,1591654716
79,16,16,Jits_ISO_5,1,1,48,44,1591685484
79,16,16,Jits_ISO_5,2,5,56,103,1591694648
79,16,16,Jits_ISO_5,3,5,63,98,1591704916
79,16,16,Jits_ISO_5,0,5,80,127,1592135136
79,16,16,Jits_ISO_5,1,1,48,42,1592165828
79,16,16,Jits_ISO_5,2,5,63,98,1592174916
79,16,16,Jits_ISO_5,3,5,56,103,1592235528
79,16,16,Jits_ISO_5,0,5,56,103,1592634636
79,16,16,Jits_ISO_5,1,5,80,127,1592644832
79,16,16,Jits_ISO_5,2,1,48,44,1592698588
79,16,16,Jits_ISO_5,3,5,63,98,1592724840
79,16,16,Jits_ISO_5,0,5,80,127,1593134508
79,16,16,Jits_ISO_5,1,5,63,98,1593194848
79,16,16,Jits_ISO_5,2,1,48,46,1593199536
79,16,16,Jits_ISO_5,3,5,56,103,1593224588
79,16,16,Jits_ISO_5,0,5,56,103,1593635304
79,16,16,Jits_ISO_5,1,1,48,44,1593692476
79,16,16,Jits_ISO_5,2,5,80,127,1593694516
79,16,16,Jits_ISO_5,3,5,63,98,1593734452
79,16,16,Jits_ISO_5,0,1,48,46,1594172020
79,16,16,Jits_ISO_5,1,5,56,103,1594185340
79,16,16,Jits_ISO_5,2,5,63,98,1594195236
79,16,16,Jits_ISO_5,3,5,80,127,1594198524
79,16,16,Jits_ISO_5,0,5,80,127,1594634548
79,16,16,Jits_ISO_5,1,1,48,43,1594676996
79,16,16,Jits_ISO_5,2,5,63,98,1594724624
79,16,16,Jits_ISO_5,3,5,56,103,1594735044
79,16,16,Jits_ISO_5,0,5,56,103,1595135256
79,16,16,Jits_ISO_5,1,5,63,98,1595138504
79,16,16,Jits_ISO_5,2,5,80,127,1595141624
79,16,16,Jits_ISO_5,3,1,48,47,1595187752
79,16,16,Jits_ISO_5,0,1,48,42,1595642896
79,16,16,Jits_ISO_5,1,5,80,127,1595654548
79,16,16,Jits_ISO_5,2,5,63,98,1595704672
79,16,16,Jits_ISO_5,3,5,56,103,1595735268
79,16,16,Jits_ISO_5,0,5,56,103,1596134880
79,16,16,Jits_ISO_5,1,5,80,127,1596145300
79,16,16,Jits_ISO_5,2,1,48,46,1596164084
79,16,16,Jits_ISO_5,3,5,63,98,1596214748
79,16,16,Jits_ISO_5,0,5,56,103,1596644668
79,16,16,Jits_ISO_5,1,1,48,44,1596654688
79,16,16,Jits_ISO_5,2,5,63,98,1596665120
79,16,16,Jits_ISO_5,3,5,80,127,1596724460
79,16,16,Jits_ISO_5,0,5,80,127,1597135200
79,16,16,Jits_ISO_5,1,5,63,98,1597204732
79,16,16,Jits_ISO_5,2,1,48,46,1597216840
79,16,16,Jits_ISO_5,3,5,56,103,1597225332
79,16,16,Jits_ISO_5,0,5,80,127,1597655400
79,16,16,Jits_ISO_5,1,5,56,103,1597664624
79,16,16,Jits_ISO_5,2,5,63,98,1597674968
79,16,16,Jits_ISO_5,3,1,48,48,1597727832
79,16,16,Jits_ISO_5,0,5,80,127,1598144884
79,16,16,Jits_ISO_5,1,5,56,103,1598165416
79,16,16,Jits_ISO_5,2,1,48,47,1598181492
79,16,16,Jits_ISO_5,3,5,63,98,1598235088
79,16,16,Jits_ISO_5,0,5,56,103,1598654968
79,16,16,Jits_ISO_5,1,5,80,127,1598684496
79,16,16,Jits_ISO_5,2,1,48,42,1598686204
79,16,16,Jits_ISO_5,3,5,63,98,1598705096
79,16,16,Jits_ISO_5,0,5,63,98,1599145356
79,16,16,Jits_ISO_5,1,1,48,46,1599162868
79,16,16,Jits_ISO_5,2,5,56,103,1599204692
79,16,16,Jits_ISO_5,3,5,80,127,1599234292
79,16,16,Jits_ISO_5,0,5,63,98,1599634672
79,16,16,Jits_ISO_5,1,5,80,127,1599638340
79,16,16,Jits_ISO_5,2,1,48,43,1599695112
79,16,16,Jits_ISO_5,3,5,56,103,1599725020
79,16,16,Jits_ISO_5,0,1,48,45,1600141776
79,16,16,Jits_ISO_5,1,5,56,103,1600154996
79,16,16,Jits_ISO_5,2,5,63,98,1600184820
79,16,16,Jits_ISO_5,3,5,80,127,1600224532
79,16,16,Jits_ISO_5,0,5,63,98,1600654584
79,16,16,Jits_ISO_5,1,1,48,43,1600665048
79,16,16,Jits_ISO_5,2,5,56,103,1600694516
79,16,16,Jits_ISO_5,3,5,80,127,1600715196
79,16,16,Jits_ISO_5,0,1,48,44,1601161016
79,16,16,Jits_ISO_5,1,5,63,98,1601164652
79,16,16,Jits_ISO_5,2,5,56,103,1601204664
79,16,16,Jits_ISO_5,3,5,80,127,1601215008
79,16,16,Jits_ISO_5,0,5,80,127,1601645060
79,16,16,Jits_ISO_5,1,1,48,44,1601658812
79,16,16,Jits_ISO_5,2,5,63,98,1601714512
79,16,16,Jits_ISO_5,3,5,56,103,1601735044
79,16,16,Jits_ISO_5,0,5,56,103,1602135444
79,16,16,Jits_ISO_5,1,5,80,127,1602154856
79,16,16,Jits_ISO_5,2,1,48,45,1602182704
79,16,16,Jits_ISO_5,3,5,63,98,1602194788
79,16,16,Jits_ISO_5,0,5,63,98,1602645304
79,16,16,Jits_ISO_5,1,5,80,127,1602664940
79,16,16,Jits_ISO_5,2,1,48,38,1602676596
79,16,16,Jits_ISO_5,3,5,56,103,1602704868
79,16,16,Jits_ISO_5,0,1,48,41,1603140924
79,16,16,Jits_ISO_5,1,5,63,98,1603145024
79,16,16,Jits_ISO_5,2,5,56,103,1603164512
79,16,16,Jits_ISO_5,3,5,80,127,1603174708
79,16,16,Jits_ISO_5,0,5,80,127,1603644964
79,16,16,Jits_ISO_5,1,1,48,38,1603646376
79,16,16,Jits_ISO_5,2,5,56,103,1603665144
79,16,16,Jits_ISO_5,3,5,63,98,1603695188
79,16,16,Jits_ISO_5,0,1,48,37,1604175716
79,16,16,Jits_ISO_5,1,5,56,103,1604215224
79,16,16,Jits_ISO_5,2,5,80,127,1604218440
79,16,16,Jits_ISO_5,3,5,63,98,1604234484
79,16,16,Jits_ISO_5,0,5,63,98,1604635072
79,16,16,Jits_ISO_5,1,5,56,103,1604664672
79,16,16,Jits_ISO_5,2,1,48,40,1604697408
79,16,16,Jits_ISO_5,3,5,80,127,1604725148
79,16,16,Jits_ISO_5,0,1,48,43,1605188408
79,16,16,Jits_ISO_5,1,5,63,98,1605214540
79,16,16,Jits_ISO_5,2,5,56,103,1605224808
79,16,16,Jits_ISO_5,3,5,80,127,1605235004
79,16,16,Jits_ISO_5,0,5,56,103,1605665032
79,16,16,Jits_ISO_5,1,1,48,45,1605680284
79,16,16,Jits_ISO_5,2,5,80,127,1605695072
79,16,16,Jits_ISO_5,3,5,63,98,1605705068
79,16,16,Jits_ISO_5,0,1,48,43,1606168488
79,16,16,Jits_ISO_5,1,5,63,98,1606205004
79,16,16,Jits_ISO_5,2,5,56,103,1606215076
79,16,16,Jits_ISO_5,3,5,80,127,1606234412
79,16,16,Jits_ISO_5,0,5,56,103,1606635072
79,16,16,Jits_ISO_5,1,1,48,42,1606682852
79,16,16,Jits_ISO_5,2,5,63,98,1606695232
79,16,16,Jits_ISO_5,3,5,80,127,1606698596
79,16,16,Jits_ISO_5,0,5,80,127,1607155188
79,16,16,Jits_ISO_5,1,5,56,103,1607165456
79,16,16,Jits_ISO_5,2,1,48,42,1607182280
79,16,16,Jits_ISO_5,3,5,63,98,1607234904
79,16,16,Jits_ISO_5,0,5,80,127,1607644528
79,16,16,Jits_ISO_5,1,1,48,41,1607678880
79,16,16,Jits_ISO_5,2,5,56,103,1607715248
79,16,16,Jits_ISO_5,3,5,63,98,1607725368
79,16,16,Jits_ISO_5,0,1,48,44,1608176084
79,16,16,Jits_ISO_5,1,5,63,98,1608185172
79,16,16,Jits_ISO_5,2,5,56,103,1608194396
79,16,16,Jits_ISO_5,3,5,80,127,1608215004
79,16,16,Jits_ISO_5,0,5,80,127,1608635016
79,16,16,Jits_ISO_5,1,1,48,37,1608673356
79,16,16,Jits_ISO_5,2,5,63,98,1608695100
79,16,16,Jits_ISO_5,3,5,56,103,1608735036
79,16,16,Jits_ISO_5,0,1,48,39,1609161692
79,16,16,Jits_ISO_5,1,5,56,103,1609175292
79,16,16,Jits_ISO_5,2,5,63,98,1609184664
79,16,16,Jits_ISO_5,3,5,80,127,1609224524
79,16,16,Jits_ISO_5,0,5,56,103,1609635320
79,16,16,Jits_ISO_5,1,1,48,38,1609647508
79,16,16,Jits_ISO_5,2,5,80,127,1609664916
79,16,16,Jits_ISO_5,3,5,63,98,1609714964
79,16,16,Jits_ISO_5,0,1,48,40,1610102356
79,16,16,Jits_ISO_5,1,5,56,103,1610174916
79,16,16,Jits_ISO_5,2,5,63,98,1610214988
79,16,16,Jits_ISO_5,3,5,80,127,1610218352
79,16,16,Jits_ISO_5,0,5,56,103,1610674428
79,16,16,Jits_ISO_5,1,5,63,98,1610684920
79,16,16,Jits_ISO_5,2,1,48,43,1610686636
79,16,16,Jits_ISO_5,3,5,80,127,1610705300
79,16,16,Jits_ISO_5,0,5,56,103,1611135288
79,16,16,Jits_ISO_5,1,5,80,127,1611138356
79,16,16,Jits_ISO_5,2,1,48,43,1611173104
79,16,16,Jits_ISO_5,3,5,63,98,1611175220
79,16,16,Jits_ISO_5,0,5,63,98,1611675036
79,16,16,Jits_ISO_5,1,5,56,103,1611704932
79,16,16,Jits_ISO_5,2,1,48,33,1611705900
79,16,16,Jits_ISO_5,3,5,80,127,1611725308
79,16,16,Jits_ISO_5,0,5,80,127,1612144952
79,16,16,Jits_ISO_5,1,5,56,103,1612155148
79,16,16,Jits_ISO_5,2,5,63,98,1612164520
79,16,16,Jits_ISO_5,3,1,48,40,1612211976
79,16,16,Jits_ISO_5,0,1,48,45,1612635824
79,16,16,Jits_ISO_5,1,5,56,103,1612644988
79,16,16,Jits_ISO_5,2,5,80,127,1612684852
79,16,16,Jits_ISO_5,3,5,63,98,1612715496
79,16,16,Jits_ISO_5,0,1,48,42,1613121664
79,16,16,Jits_ISO_5,1,5,63,98,1613154912
79,16,16,Jits_ISO_5,2,5,80,127,1613164960
79,16,16,Jits_ISO_5,3,5,56,103,1613175156
79,16,16,Jits_ISO_5,0,5,56,103,1613634920
79,16,16,Jits_ISO_5,1,1,48,45,1613649300
79,16,16,Jits_ISO_5,2,5,63,98,1613704840
79,16,16,Jits_ISO_5,3,5,80,127,1613714960
79,16,16,Jits_ISO_5,0,5,80,127,1614134744
79,16,16,Jits_ISO_5,1,5,56,103,1614145088
79,16,16,Jits_ISO_5,2,1,48,41,1614152884
79,16,16,Jits_ISO_5,3,5,63,98,1614195004
79,16,16,Jits_ISO_5,0,5,80,127,1614644748
79,16,16,Jits_ISO_5,1,1,48,44,1614656560
79,16,16,Jits_ISO_5,2,5,56,103,1614705008
79,16,16,Jits_ISO_5,3,5,63,98,1614734752
79,16,16,Jits_ISO_5,0,5,56,103,1615145392
79,16,16,Jits_ISO_5,1,5,80,127,1615148312
79,16,16,Jits_ISO_5,2,5,63,98,1615185132
79,16,16,Jits_ISO_5,3,1,48,46,1615191760
79,16,16,Jits_ISO_5,0,5,56,103,1615674724
79,16,16,Jits_ISO_5,1,5,63,98,1615704724
79,16,16,Jits_ISO_5,2,1,48,41,1615706660
79,16,16,Jits_ISO_5,3,5,80,127,1615714912
79,16,16,Jits_ISO_5,0,5,63,98,1616184660
79,16,16,Jits_ISO_5,1,1,48,39,1616192484
79,16,16,Jits_ISO_5,2,5,80,127,1616194996
79,16,16,Jits_ISO_5,3,5,56,103,1616205068
79,16,16,Jits_ISO_5,0,5,80,127,1616635320
79,16,16,Jits_ISO_5,1,5,56,103,1616685444
79,16,16,Jits_ISO_5,2,5,63,98,1616688660
79,16,16,Jits_ISO_5,3,1,48,31,1616707592
79,16,16,Jits_ISO_5,0,5,56,103,1617164724
79,16,16,Jits_ISO_5,1,5,80,127,1617185108
79,16,16,Jits_ISO_5,2,1,48,33,1617192044
79,16,16,Jits_ISO_5,3,5,63,98,1617195520
79,16,16,Jits_ISO_5,0,5,63,98,1617644844
79,16,16,Jits_ISO_5,1,5,56,103,1617674668
79,16,16,Jits_ISO_5,2,5,80,127,1617694976
79,16,16,Jits_ISO_5,3,1,48,32,1617710824
79,16,16,Jits_ISO_5,0,5,56,103,1618154988
79,16,16,Jits_ISO_5,1,5,80,127,1618165108
79,16,16,Jits_ISO_5,2,1,48,41,1618180956
79,16,16,Jits_ISO_5,3,5,63,98,1618234852
79,16,16,Jits_ISO_5,0,5,63,98,1618645220
79,16,16,Jits_ISO_5,1,1,48,35,1618673144
79,16,16,Jits_ISO_5,2,5,80,127,1618685224
79,16,16,Jits_ISO_5,3,5,56,103,1618725236
79,16,16,Jits_ISO_5,0,5,56,103,1619155216
79,16,16,Jits_ISO_5,1,5,63,98,1619164812
79,16,16,Jits_ISO_5,2,5,80,127,1619184972
79,16,16,Jits_ISO_5,3,1,48,40,1619227868
79,16,16,Jits_ISO_5,0,5,63,98,1619694820
79,16,16,Jits_ISO_5,1,5,80,127,1619714604
79,16,16,Jits_ISO_5,2,5,56,103,1619734764
79,16,16,Jits_ISO_5,3,1,48,31,1619736248
79,16,16,Jits_ISO_5,0,5,56,103,1620135220
79,16,16,Jits_ISO_5,1,1,48,39,1620185392
79,16,16,Jits_ISO_5,2,5,80,127,1620215080
79,16,16,Jits_ISO_5,3,5,63,98,1620225500
79,16,16,Jits_ISO_5,0,5,80,127,1620675048
79,16,16,Jits_ISO_5,1,5,63,98,1620685096
79,16,16,Jits_ISO_5,2,1,48,34,1620692476
79,16,16,Jits_ISO_5,3,5,56,103,1620714912
79,16,16,Jits_ISO_5,0,5,63,98,1621134644
79,16,16,Jits_ISO_5,1,5,80,127,1621174656
79,16,16,Jits_ISO_5,2,1,48,37,1621227068
79,16,16,Jits_ISO_5,3,5,56,103,1621235036
79,16,16,Jits_ISO_5,0,5,63,98,1621644788
79,16,16,Jits_ISO_5,1,1,48,40,1621682060
79,16,16,Jits_ISO_5,2,5,56,103,1621694908
79,16,16,Jits_ISO_5,3,5,80,127,1621724804
79,16,16,Jits_ISO_5,0,5,80,127,1622154716
79,16,16,Jits_ISO_5,1,5,63,98,1622164760
79,16,16,Jits_ISO_5,2,1,48,43,1622194184
79,16,16,Jits_ISO_5,3,5,56,103,1622234580
79,16,16,Jits_ISO_5,0,1,48,39,1622646936
79,16,16,Jits_ISO_5,1,5,80,127,1622724880
79,16,16,Jits_ISO_5,2,5,56,103,1622735068
79,16,16,Jits_ISO_5,3,5,63,98,1622739100
79,16,16,Jits_ISO_5,0,5,56,103,1623165428
79,16,16,Jits_ISO_5,1,5,80,127,1623184616
79,16,16,Jits_ISO_5,2,5,63,98,1623194960
79,16,16,Jits_ISO_5,3,1,48,44,1623213744
79,16,16,Jits_ISO_5,0,5,63,98,1623675216
79,16,16,Jits_ISO_5,1,5,56,103,1623715156
79,16,16,Jits_ISO_5,2,1,48,41,1623723676
79,16,16,Jits_ISO_5,3,5,80,127,1623734560
79,16,16,Jits_ISO_5,0,5,63,98,1624175028
79,16,16,Jits_ISO_5,1,1,48,41,1624228192
79,16,16,Jits_ISO_5,2,5,56,103,1624235484
79,16,16,Jits_ISO_5,3,5,80,127,1624238400
79,16,16,Jits_ISO_5,0,5,56,103,1624634728
79,16,16,Jits_ISO_5,1,5,80,127,1624655432
79,16,16,Jits_ISO_5,2,5,63,98,1624695296
79,16,16,Jits_ISO_5,3,1,48,44,1624699460
79,16,16,Jits_ISO_5,0,5,56,103,1625165288
79,16,16,Jits_ISO_5,1,5,63,98,1625184552
79,16,16,Jits_ISO_5,2,5,80,127,1625194896
79,16,16,Jits_ISO_5,3,1,48,42,1625211268
79,16,16,Jits_ISO_5,0,5,80,127,1625635120
79,16,16,Jits_ISO_5,1,5,56,103,1625664868
79,16,16,Jits_ISO_5,2,1,48,43,1625697680
79,16,16,Jits_ISO_5,3,5,63,98,1625704748
79,16,16,Jits_ISO_5,0,5,80,127,1626145204
79,16,16,Jits_ISO_5,1,5,56,103,1626164764
79,16,16,Jits_ISO_5,2,5,63,98,1626224876
79,16,16,Jits_ISO_5,3,1,48,43,1626239008
79,16,16,Jits_ISO_5,0,5,56,103,1626655056
79,16,16,Jits_ISO_5,1,5,80,127,1626674692
79,16,16,Jits_ISO_5,2,1,48,46,1626677288
79,16,16,Jits_ISO_5,3,5,63,98,1626734872
79,16,16,Jits_ISO_5,0,5,80,127,1627135696
79,16,16,Jits_ISO_5,1,5,56,103,1627144548
79,16,16,Jits_ISO_5,2,5,63,98,1627184484
79,16,16,Jits_ISO_5,3,1,48,44,1627192632
79,16,16,Jits_ISO_5,0,5,63,98,1627634924
79,16,16,Jits_ISO_5,1,5,56,103,1627675156
79,16,16,Jits_ISO_5,2,5,80,127,1627678224
79,16,16,Jits_ISO_5,3,1,48,47,1627701568
79,16,16,Jits_ISO_5,0,5,63,98,1628155392
79,16,16,Jits_ISO_5,1,1,48,48,1628163692
79,16,16,Jits_ISO_5,2,5,80,127,1628195476
79,16,16,Jits_ISO_5,3,5,56,103,1628224852
79,16,16,Jits_ISO_5,0,5,56,103,1628644796
79,16,16,Jits_ISO_5,1,5,63,98,1628654916
79,16,16,Jits_ISO_5,2,1,48,42,1628680356
79,16,16,Jits_ISO_5,3,5,80,127,1628684584
79,16,16,Jits_ISO_5,0,5,80,127,1629135548
79,16,16,Jits_ISO_5,1,1,48,43,1629181292
79,16,16,Jits_ISO_5,2,5,63,98,1629204848
79,16,16,Jits_ISO_5,3,5,56,103,1629214972
79,16,16,Jits_ISO_5,0,1,48,43,1629632560
79,16,16,Jits_ISO_5,1,5,63,98,1629635068
79,16,16,Jits_ISO_5,2,5,56,103,1629704528
79,16,16,Jits_ISO_5,3,5,80,127,1629714796
79,16,16,Jits_ISO_5,0,5,63,98,1630134588
79,16,16,Jits_ISO_5,1,5,56,103,1630154972
79,16,16,Jits_ISO_5,2,5,80,127,1630194908
79,16,16,Jits_ISO_5,3,1,48,34,1630215560
79,16,16,Jits_ISO_5,0,5,56,103,1630644580
79,16,16,Jits_ISO_5,1,5,63,98,1630654776
79,16,16,Jits_ISO_5,2,1,48,43,1630657896
79,16,16,Jits_ISO_5,3,5,80,127,1630734636
79,16,16,Jits_ISO_5,0,1,48,48,1631111472
79,16,16,Jits_ISO_5,1,5,63,98,1631134956
79,16,16,Jits_ISO_5,2,5,56,103,1631164856
79,16,16,Jits_ISO_5,3,5,80,127,1631204864
79,16,16,Jits_ISO_5,0,1,48,45,1631630308
79,16,16,Jits_ISO_5,1,5,56,103,1631634764
79,16,16,Jits_ISO_5,2,5,63,98,1631674700
79,16,16,Jits_ISO_5,3,5,80,127,1631714636
79,16,16,Jits_ISO_5,0,1,48,46,1632129744
79,16,16,Jits_ISO_5,1,5,80,127,1632134496
79,16,16,Jits_ISO_5,2,5,56,103,1632215488
79,16,16,Jits_ISO_5,3,5,63,98,1632224560
79,16,16,Jits_ISO_5,0,5,56,103,1632675292
79,16,16,Jits_ISO_5,1,5,63,98,1632678284
79,16,16,Jits_ISO_5,2,5,80,127,1632685412
79,16,16,Jits_ISO_5,3,1,48,43,1632691744
79,16,16,Jits_ISO_5,0,1,48,46,1633182876
79,16,16,Jits_ISO_5,1,5,56,103,1633195480
79,16,16,Jits_ISO_5,2,5,63,98,1633214892
79,16,16,Jits_ISO_5,3,5,80,127,1633225012
79,16,16,Jits_ISO_5,0,1,48,40,1633645748
79,16,16,Jits_ISO_5,1,5,63,98,1633655360
79,16,16,Jits_ISO_5,2,5,80,127,1633665332
79,16,16,Jits_ISO_5,3,5,56,103,1633684744
79,16,16,Jits_ISO_5,0,1,48,38,1634152284
79,16,16,Jits_ISO_5,1,5,63,98,1634154796
79,16,16,Jits_ISO_5,2,5,56,103,1634234660
79,16,16,Jits_ISO_5,3,5,80,127,1634237580
79,16,16,Jits_ISO_5,0,5,63,98,1634654528
79,16,16,Jits_ISO_5,1,5,56,103,1634674988
79,16,16,Jits_ISO_5,2,1,48,41,1634694816
79,16,16,Jits_ISO_5,3,5,80,127,1634704656
79,16,16,Jits_ISO_5,0,5,56,103,1635155312
79,16,16,Jits_ISO_5,1,1,48,42,1635156424
79,16,16,Jits_ISO_5,2,5,63,98,1635174640
79,16,16,Jits_ISO_5,3,5,80,127,1635184984
79,16,16,Jits_ISO_5,0,1,48,41,1635682836
79,16,16,Jits_ISO_5,1,5,56,103,1635684572
79,16,16,Jits_ISO_5,2,5,63,98,1635714396
79,16,16,Jits_ISO_5,3,5,80,127,1635717684
79,16,16,Jits_ISO_5,0,5,56,103,1636135432
79,16,16,Jits_ISO_5,1,5,63,98,1636175172
79,16,16,Jits_ISO_5,2,1,48,39,1636206384
79,16,16,Jits_ISO_5,3,5,80,127,1636234580
79,16,16,Jits_ISO_5,0,5,56,103,1636654588
79,16,16,Jits_ISO_5,1,1,48,29,1636655552
79,16,16,Jits_ISO_5,2,5,63,98,1636664552
79,16,16,Jits_ISO_5,3,5,80,127,1636725184
79,16,16,Jits_ISO_5,0,1,48,40,1637153716
79,16,16,Jits_ISO_5,1,5,56,103,1637155300
79,16,16,Jits_ISO_5,2,5,80,127,1637174712
79,16,16,Jits_ISO_5,3,5,63,98,1637205308
79,16,16,Jits_ISO_5,0,5,80,127,1637655260
79,16,16,Jits_ISO_5,1,5,56,103,1637665088
79,16,16,Jits_ISO_5,2,1,48,37,1637673380
79,16,16,Jits_ISO_5,3,5,63,98,1637684716
79,16,16,Jits_ISO_5,0,5,63,98,1638145348
79,16,16,Jits_ISO_5,1,1,48,37,1638163532
79,16,16,Jits_ISO_5,2,5,80,127,1638225232
79,16,16,Jits_ISO_5,3,5,56,103,1638234456
79,16,16,Jits_ISO_5,0,1,48,41,1638685884
79,16,16,Jits_ISO_5,1,5,80,127,1638704564
79,16,16,Jits_ISO_5,2,5,56,103,1638725196
79,16,16,Jits_ISO_5,3,5,63,98,1638728336
79,16,16,Jits_ISO_5,0,1,48,42,1639169796
79,16,16,Jits_ISO_5,1,5,63,98,1639174620
79,16,16,Jits_ISO_5,2,5,80,127,1639177836
79,16,16,Jits_ISO_5,3,5,56,103,1639234932
79,16,16,Jits_ISO_5,0,5,56,103,1639654724
79,16,16,Jits_ISO_5,1,5,80,127,1639665144
79,16,16,Jits_ISO_5,2,1,48,41,1639694788
79,16,16,Jits_ISO_5,3,5,63,98,1639705072
79,16,16,Jits_ISO_5,0,5,56,103,1640135284
79,16,16,Jits_ISO_5,1,5,63,98,1640194404
79,16,16,Jits_ISO_5,2,1,48,47,1640197376
79,16,16,Jits_ISO_5,3,5,80,127,1640204592
79,16,16,Jits_ISO_5,0,5,63,98,1640645144
79,16,16,Jits_ISO_5,1,5,80,127,1640684784
79,16,16,Jits_ISO_5,2,1,48,45,1640697416
79,16,16,Jits_ISO_5,3,5,56,103,1640725012
79,16,16,Jits_ISO_5,0,5,56,103,1641144728
79,16,16,Jits_ISO_5,1,1,48,44,1641158632
79,16,16,Jits_ISO_5,2,5,63,98,1641224516
79,16,16,Jits_ISO_5,3,5,80,127,1641228104
79,16,16,Jits_ISO_5,0,9999,9999,9999,1581932660
79,16,16,Jits_ISO_5,1,9999,9999,9999,1582432308
79,16,16,Jits_ISO_5,2,9999,9999,9999,1582933072
79,16,16,Jits_ISO_5,3,9999,9999,9999,1583432776
79,16,16,Jits_ISO_5,4,9999,9999,9999,1583932492
79,16,16,Jits_ISO_5,5,9999,9999,9999,1584432228
79,16,16,Jits_ISO_5,6,9999,9999,9999,1584932932
79,16,16,Jits_ISO_5,7,9999,9999,9999,1585432684
79,16,16,Jits_ISO_5,8,9999,9999,9999,1585932408
79,16,16,Jits_ISO_5,9,9999,9999,9999,1586432084
79,16,16,Jits_ISO_5,10,9999,9999,9999,1586932804
79,16,16,Jits_ISO_5,11,9999,9999,9999,1587432552
79,16,16,Jits_ISO_5,12,9999,9999,9999,1587932284
79,16,16,Jits_ISO_5,13,9999,9999,9999,1588432988
79,16,16,Jits_ISO_5,14,9999,9999,9999,1588932720
79,16,16,Jits_ISO_5,15,9999,9999,9999,1589432388
79,16,16,Jits_ISO_5,16,9999,9999,9999,1589932140
79,16,16,Jits_ISO_5,17,9999,9999,9999,1590432844
79,16,16,Jits_ISO_5,18,9999,9999,9999,1590932588
79,16,16,Jits_ISO_5,19,9999,9999,9999,1591432264
79,16,16,Jits_ISO_5,20,9999,9999,9999,1591932992
79,16,16,Jits_ISO_5,21,9999,9999,9999,1592432740
79,16,16,Jits_ISO_5,22,9999,9999,9999,1592932460
79,16,16,Jits_ISO_5,23,9999,9999,9999,1593432136
79,16,16,Jits_ISO_5,24,9999,9999,9999,1593932860
79,16,16,Jits_ISO_5,25,9999,9999,9999,1594432572
79,16,16,Jits_ISO_5,26,9999,9999,9999,1594932304
79,16,16,Jits_ISO_5,27,9999,9999,9999,1595433072
79,16,16,Jits_ISO_5,28,9999,9999,9999,1595932752
79,16,16,Jits_ISO_5,29,9999,9999,9999,1596432484
79,16,16,Jits_ISO_5,30,9999,9999,9999,1596932156
79,16,16,Jits_ISO_5,31,9999,9999,9999,1597432952
79,16,16,Jits_ISO_5,32,9999,9999,9999,1597932624
79,16,16,Jits_ISO_5,33,9999,9999,9999,1598432372
79,16,16,Jits_ISO_5,34,9999,9999,9999,1598933096
79,16,16,Jits_ISO_5,35,9999,9999,9999,1599432772
79,16,16,Jits_ISO_5,36,9999,9999,9999,1599932496
79,16,16,Jits_ISO_5,37,9999,9999,9999,1600432228
79,16,16,Jits_ISO_5,38,9999,9999,9999,1600932932
79,16,16,Jits_ISO_5,39,9999,9999,9999,1601432668
79,16,16,Jits_ISO_5,40,9999,9999,9999,1601932408
79,16,16,Jits_ISO_5,41,9999,9999,9999,1602432076
79,16,16,Jits_ISO_5,42,9999,9999,9999,1602932792
79,16,16,Jits_ISO_5,43,9999,9999,9999,1603432520
79,16,16,Jits_ISO_5,44,9999,9999,9999,1603932252
79,16,16,Jits_ISO_5,45,9999,9999,9999,1604432968
79,16,16,Jits_ISO_5,46,9999,9999,9999,1604932676
79,16,16,Jits_ISO_5,47,9999,9999,9999,1605432412
79,16,16,Jits_ISO_5,48,9999,9999,9999,1605932144
79,16,16,Jits_ISO_5,49,9999,9999,9999,1606432868
79,16,16,Jits_ISO_5,50,9999,9999,9999,1606932592
79,16,16,Jits_ISO_5,51,9999,9999,9999,1607432268
79,16,16,Jits_ISO_5,52,9999,9999,9999,1607932988
79,16,16,Jits_ISO_5,53,9999,9999,9999,1608432740
79,16,16,Jits_ISO_5,54,9999,9999,9999,1608932472
79,16,16,Jits_ISO_5,55,9999,9999,9999,1609432144
79,16,16,Jits_ISO_5,56,9999,9999,9999,1609932924
79,16,16,Jits_ISO_5,57,9999,9999,9999,1610432588
79,16,16,Jits_ISO_5,58,9999,9999,9999,1610932324
79,16,16,Jits_ISO_5,59,9999,9999,9999,1611433032
79,16,16,Jits_ISO_5,60,9999,9999,9999,1611932784
79,16,16,Jits_ISO_5,61,9999,9999,9999,1612432436
79,16,16,Jits_ISO_5,62,9999,9999,9999,1612932184
79,16,16,Jits_ISO_5,63,9999,9999,9999,1613432892
79,16,16,Jits_ISO_5,64,9999,9999,9999,1613932624
79,16,16,Jits_ISO_5,65,9999,9999,9999,1614432368
79,16,16,Jits_ISO_5,66,9999,9999,9999,1614933088
79,16,16,Jits_ISO_5,67,9999,9999,9999,1615432820
79,16,16,Jits_ISO_5,68,9999,9999,9999,1615932476
79,16,16,Jits_ISO_5,69,9999,9999,9999,1616432220
79,16,16,Jits_ISO_5,70,9999,9999,9999,1616932984
79,16,16,Jits_ISO_5,71,9999,9999,9999,1617432660
79,16,16,Jits_ISO_5,72,9999,9999,9999,1617932408
79,16,16,Jits_ISO_5,73,9999,9999,9999,1618432064
79,16,16,Jits_ISO_5,74,9999,9999,9999,1618932860
79,16,16,Jits_ISO_5,75,9999,9999,9999,1619432512
79,16,16,Jits_ISO_5,76,9999,9999,9999,1619932268
79,16,16,Jits_ISO_5,77,9999,9999,9999,1620432972
79,16,16,Jits_ISO_5,78,9999,9999,9999,1620932720
79,16,16,Jits_ISO_5,79,9999,9999,9999,1621432396
79,16,16,Jits_ISO_5,80,9999,9999,9999,1621932132
79,16,16,Jits_ISO_5,81,9999,9999,9999,1622432836
79,16,16,Jits_ISO_5,82,9999,9999,9999,1622932584
79,16,16,Jits_ISO_5,83,9999,9999,9999,1623432240
79,16,16,Jits_ISO_5,84,9999,9999,9999,1623933040
79,16,16,Jits_ISO_5,85,9999,9999,9999,1624432696
79,16,16,Jits_ISO_5,86,9999,9999,9999,1624932424
79,16,16,Jits_ISO_5,87,9999,9999,9999,1625432176
79,16,16,Jits_ISO_5,88,9999,9999,9999,1625932896
79,16,16,Jits_ISO_5,89,9999,9999,9999,1626432616
79,16,16,Jits_ISO_5,90,9999,9999,9999,1626932284
79,16,16,Jits_ISO_5,91,9999,9999,9999,1627433076
79,16,16,Jits_ISO_5,92,9999,9999,9999,1627932736
79,16,16,Jits_ISO_5,93,9999,9999,9999,1628432476
79,16,16,Jits_ISO_5,94,9999,9999,9999,1628932208
79,16,16,Jits_ISO_5,95,9999,9999,9999,1629432928
79,16,16,Jits_ISO_5,96,9999,9999,9999,1629932608
79,16,16,Jits_ISO_5,97,9999,9999,9999,1630432336
79,16,16,Jits_ISO_5,98,9999,9999,9999,1630933044
79,16,16,Jits_ISO_5,99,9999,9999,9999,1631432788
79,16,16,Jits_ISO_5,100,9999,9999,9999,1631932520
79,16,16,Jits_ISO_5,101,9999,9999,9999,1632432184
79,16,16,Jits_ISO_5,102,9999,9999,9999,1632932956
79,16,16,Jits_ISO_5,103,9999,9999,9999,1633432632
79,16,16,Jits_ISO_5,104,9999,9999,9999,1633932368
79,16,16,Jits_ISO_5,105,9999,9999,9999,1634432096
79,16,16,Jits_ISO_5,106,9999,9999,9999,1634932800
79,16,16,Jits_ISO_5,107,9999,9999,9999,1635432532
79,16,16,Jits_ISO_5,108,9999,9999,9999,1635932280
79,16,16,Jits_ISO_5,109,9999,9999,9999,1636432988
79,16,16,Jits_ISO_5,110,9999,9999,9999,1636932660
79,16,16,Jits_ISO_5,111,9999,9999,9999,1637432384
79,16,16,Jits_ISO_5,112,9999,9999,9999,1637932116
79,16,16,Jits_ISO_5,113,9999,9999,9999,1638432836
79,16,16,Jits_ISO_5,114,9999,9999,9999,1638932572
79,16,16,Jits_ISO_5,115,9999,9999,9999,1639432292
79,16,16,Jits_ISO_5,116,9999,9999,9999,1639932996
79,16,16,Jits_ISO_5,117,9999,9999,9999,1640432740
79,16,16,Jits_ISO_5,118,9999,9999,9999,1640932412
79,16,16,Jits_ISO_5,119,9999,9999,9999,1641432136
79,17,7,Jits_ISO_8,0,5,56,103,1651304748
79,17,7,Jits_ISO_8,1,5,63,98,1651308000
79,17,7,Jits_ISO_8,2,5,80,127,1651311116
79,17,7,Jits_ISO_8,0,5,56,103,1652104976
79,17,7,Jits_ISO_8,1,5,63,98,1652107920
79,17,7,Jits_ISO_8,2,5,80,127,1652111040
79,17,7,Jits_ISO_8,3,1,48,13,1652333924
79,17,7,Jits_ISO_8,0,5,80,127,1652844976
79,17,7,Jits_ISO_8,1,1,48,32,1652860376
79,17,7,Jits_ISO_8,2,5,63,98,1652934956
79,17,7,Jits_ISO_8,3,5,56,103,1652945300
79,17,7,Jits_ISO_8,0,5,56,103,1653665300
79,17,7,Jits_ISO_8,1,5,63,98,1653675348
79,17,7,Jits_ISO_8,2,1,48,33,1653734960
79,17,7,Jits_ISO_8,3,5,80,127,1653764352
79,17,7,Jits_ISO_8,0,5,63,98,1654435056
79,17,7,Jits_ISO_8,1,5,80,127,1654464808
79,17,7,Jits_ISO_8,2,5,56,103,1654494852
79,17,7,Jits_ISO_8,3,1,48,42,1654543380
79,17,7,Jits_ISO_8,0,5,56,103,1655234908
79,17,7,Jits_ISO_8,1,1,48,40,1655323144
79,17,7,Jits_ISO_8,2,5,80,127,1655335152
79,17,7,Jits_ISO_8,3,5,63,98,1655384480
79,17,7,Jits_ISO_8,0,5,56,103,1656034784
79,17,7,Jits_ISO_8,1,5,80,127,1656084988
79,17,7,Jits_ISO_8,2,5,63,98,1656124924
79,17,7,Jits_ISO_8,3,1,48,44,1656165756
79,17,7,Jits_ISO_8,0,5,80,127,1656864996
79,17,7,Jits_ISO_8,1,5,63,98,1656894748
79,17,7,Jits_ISO_8,2,1,48,44,1656922920
79,17,7,Jits_ISO_8,3,5,56,103,1656964596
79,17,7,Jits_ISO_8,0,5,63,98,1657694636
79,17,7,Jits_ISO_8,1,5,56,103,1657725288
79,17,7,Jits_ISO_8,2,1,48,44,1657759268
79,17,7,Jits_ISO_8,3,5,80,127,1657784772
79,17,7,Jits_ISO_8,0,5,56,103,1658435152
79,17,7,Jits_ISO_8,1,5,80,127,1658438072
79,17,7,Jits_ISO_8,2,1,48,46,1658532804
79,17,7,Jits_ISO_8,3,5,63,98,1658554872
79,17,7,Jits_ISO_8,0,5,56,103,1659314812
79,17,7,Jits_ISO_8,1,1,48,43,1659351860
79,17,7,Jits_ISO_8,2,5,80,127,1659354816
79,17,7,Jits_ISO_8,3,5,63,98,1659364792
79,17,7,Jits_ISO_8,0,5,56,103,1660075580
79,17,7,Jits_ISO_8,1,5,80,127,1660094844
79,17,7,Jits_ISO_8,2,1,48,40,1660128004
79,17,7,Jits_ISO_8,3,5,63,98,1660174856
79,17,7,Jits_ISO_8,0,5,80,127,1660864820
79,17,7,Jits_ISO_8,1,1,48,42,1660924580
79,17,7,Jits_ISO_8,2,5,56,103,1660965136
79,17,7,Jits_ISO_8,3,5,63,98,1660974436
79,17,7,Jits_ISO_8,0,5,63,98,1661634876
79,17,7,Jits_ISO_8,1,5,80,127,1661695712
79,17,7,Jits_ISO_8,2,5,56,103,1661704492
79,17,7,Jits_ISO_8,3,1,48,35,1661725440
79,17,7,Jits_ISO_8,0,5,56,103,1662434728
79,17,7,Jits_ISO_8,1,5,63,98,1662505456
79,17,7,Jits_ISO_8,2,1,48,40,1662506440
79,17,7,Jits_ISO_8,3,5,80,127,1662509788
79,17,7,Jits_ISO_8,0,1,48,38,1663244896
79,17,7,Jits_ISO_8,1,5,63,98,1663265152
79,17,7,Jits_ISO_8,2,5,56,103,1663315452
79,17,7,Jits_ISO_8,3,5,80,127,1663318592
79,17,7,Jits_ISO_8,0,5,56,103,1664024920
79,17,7,Jits_ISO_8,1,5,80,127,1664027984
79,17,7,Jits_ISO_8,2,1,48,40,1664064532
79,17,7,Jits_ISO_8,3,5,63,98,1664114992
79,17,7,Jits_ISO_8,0,1,48,43,1664852032
79,17,7,Jits_ISO_8,1,5,63,98,1664864804
79,17,7,Jits_ISO_8,2,5,56,103,1664954776
79,17,7,Jits_ISO_8,3,5,80,127,1664984524
79,17,7,Jits_ISO_8,0,5,56,103,1665655080
79,17,7,Jits_ISO_8,1,1,48,33,1665711832
79,17,7,Jits_ISO_8,2,5,63,98,1665754652
79,17,7,Jits_ISO_8,3,5,80,127,1665785076
79,17,7,Jits_ISO_8,0,5,63,98,1666475560
79,17,7,Jits_ISO_8,1,5,56,103,1666484560
79,17,7,Jits_ISO_8,2,1,48,39,1666544172
79,17,7,Jits_ISO_8,3,5,80,127,1666574760
79,17,7,Jits_ISO_8,0,5,63,98,1667294528
79,17,7,Jits_ISO_8,1,1,48,40,1667317052
79,17,7,Jits_ISO_8,2,5,56,103,1667374540
79,17,7,Jits_ISO_8,3,5,80,127,1667377532
79,17,7,Jits_ISO_8,0,5,80,127,1668055496
79,17,7,Jits_ISO_8,1,5,63,98,1668074760
79,17,7,Jits_ISO_8,2,5,56,103,1668135296
79,17,7,Jits_ISO_8,3,1,48,35,1668195384
79,17,7,Jits_ISO_8,0,5,56,103,1668895224
79,17,7,Jits_ISO_8,1,5,63,98,1668914488
79,17,7,Jits_ISO_8,2,5,80,127,1668917852
79,17,7,Jits_ISO_8,3,1,48,36,1668940548
79,17,7,Jits_ISO_8,0,5,63,98,1669634624
79,17,7,Jits_ISO_8,1,1,48,38,1669704008
79,17,7,Jits_ISO_8,2,5,80,127,1669715488
79,17,7,Jits_ISO_8,3,5,56,103,1669724416
79,17,7,Jits_ISO_8,0,5,63,98,1670454788
79,17,7,Jits_ISO_8,1,5,56,103,1670475344
79,17,7,Jits_ISO_8,2,1,48,39,1670510004
79,17,7,Jits_ISO_8,3,5,80,127,1670525464
79,17,7,Jits_ISO_8,0,1,48,40,1671245272
79,17,7,Jits_ISO_8,1,5,80,127,1671255556
79,17,7,Jits_ISO_8,2,5,63,98,1671295424
79,17,7,Jits_ISO_8,3,5,56,103,1671314836
79,17,7,Jits_ISO_8,0,1,48,40,1672037928
79,17,7,Jits_ISO_8,1,5,56,103,1672095272
79,17,7,Jits_ISO_8,2,5,63,98,1672105616
79,17,7,Jits_ISO_8,3,5,80,127,1672124660
79,17,7,Jits_ISO_8,0,1,48,38,1672809384
79,17,7,Jits_ISO_8,1,5,56,103,1672825376
79,17,7,Jits_ISO_8,2,5,63,98,1672915496
79,17,7,Jits_ISO_8,3,5,80,127,1672974616
79,17,7,Jits_ISO_8,0,5,80,127,1673654612
79,17,7,Jits_ISO_8,1,5,56,103,1673664736
79,17,7,Jits_ISO_8,2,5,63,98,1673734416
79,17,7,Jits_ISO_8,3,1,48,35,1673755892
79,17,7,Jits_ISO_8,0,5,63,98,1674485276
79,17,7,Jits_ISO_8,1,1,48,27,1674508172
79,17,7,Jits_ISO_8,2,5,80,127,1674575204
79,17,7,Jits_ISO_8,3,5,56,103,1674584428
79,17,7,Jits_ISO_8,0,5,63,98,1675224376
79,17,7,Jits_ISO_8,1,5,80,127,1675274732
79,17,7,Jits_ISO_8,2,1,48,39,1675322808
79,17,7,Jits_ISO_8,3,5,56,103,1675334988
79,17,7,Jits_ISO_8,0,5,56,103,1676054948
79,17,7,Jits_ISO_8,1,1,48,33,1676088784
79,17,7,Jits_ISO_8,2,5,80,127,1676105320
79,17,7,Jits_ISO_8,3,5,63,98,1676124656
79,17,7,Jits_ISO_8,0,5,56,103,1676824928
79,17,7,Jits_ISO_8,1,1,48,34,1676846332
79,17,7,Jits_ISO_8,2,5,80,127,1676885412
79,17,7,Jits_ISO_8,3,5,63,98,1676954928
79,17,7,Jits_ISO_8,0,5,56,103,1677624648
79,17,7,Jits_ISO_8,1,5,80,127,1677655396
79,17,7,Jits_ISO_8,2,5,63,98,1677685220
79,17,7,Jits_ISO_8,3,1,48,38,1677704152
79,17,7,Jits_ISO_8,0,1,48,32,1678449596
79,17,7,Jits_ISO_8,1,5,56,103,1678465292
79,17,7,Jits_ISO_8,2,5,80,127,1678484852
79,17,7,Jits_ISO_8,3,5,63,98,1678545376
79,17,7,Jits_ISO_8,0,1,48,40,1679265876
79,17,7,Jits_ISO_8,1,5,80,127,1679345092
79,17,7,Jits_ISO_8,2,5,56,103,1679355436
79,17,7,Jits_ISO_8,3,5,63,98,1679364496
79,17,7,Jits_ISO_8,0,5,56,103,1680105028
79,17,7,Jits_ISO_8,1,5,80,127,1680144748
79,17,7,Jits_ISO_8,2,1,48,40,1680150932
79,17,7,Jits_ISO_8,3,5,63,98,1680174492
79,17,7,Jits_ISO_8,0,5,56,103,1680875012
79,17,7,Jits_ISO_8,1,5,63,98,1680904540
79,17,7,Jits_ISO_8,2,1,48,39,1680917468
79,17,7,Jits_ISO_8,3,5,80,127,1680944472
79,17,7,Jits_ISO_8,0,5,80,127,1681624388
79,17,7,Jits_ISO_8,1,5,63,98,1681674592
79,17,7,Jits_ISO_8,2,5,56,103,1681695200
79,17,7,Jits_ISO_8,3,1,48,29,1681711128
79,17,7,Jits_ISO_8,0,1,48,40,1682435980
79,17,7,Jits_ISO_8,1,5,56,103,1682454892
79,17,7,Jits_ISO_8,2,5,80,127,1682524600
79,17,7,Jits_ISO_8,3,5,63,98,1682585124
79,17,7,Jits_ISO_8,0,5,80,127,1683254684
79,17,7,Jits_ISO_8,1,1,48,45,1683263732
79,17,7,Jits_ISO_8,2,5,63,98,1683344616
79,17,7,Jits_ISO_8,3,5,56,103,1683365356
79,17,7,Jits_ISO_8,0,5,63,98,1684074960
79,17,7,Jits_ISO_8,1,5,56,103,1684095492
79,17,7,Jits_ISO_8,2,1,48,43,1684111420
79,17,7,Jits_ISO_8,3,5,80,127,1684135424
79,17,7,Jits_ISO_8,0,5,80,127,1684834808
79,17,7,Jits_ISO_8,1,5,63,98,1684855192
79,17,7,Jits_ISO_8,2,5,56,103,1684935288
79,17,7,Jits_ISO_8,3,1,48,42,1684943804
79,17,7,Jits_ISO_8,0,5,63,98,1685625160
79,17,7,Jits_ISO_8,1,1,48,40,1685675928
79,17,7,Jits_ISO_8,2,5,56,103,1685734996
79,17,7,Jits_ISO_8,3,5,80,127,1685738056
79,17,7,Jits_ISO_8,0,5,63,98,1686445312
79,17,7,Jits_ISO_8,1,5,56,103,1686454832
79,17,7,Jits_ISO_8,2,5,80,127,1686457896
79,17,7,Jits_ISO_8,3,1,48,47,1686512328
79,17,7,Jits_ISO_8,0,5,56,103,1687224620
79,17,7,Jits_ISO_8,1,1,48,41,1687291044
79,17,7,Jits_ISO_8,2,5,80,127,1687344420
79,17,7,Jits_ISO_8,3,5,63,98,1687384460
79,17,7,Jits_ISO_8,0,5,56,103,1688045024
79,17,7,Jits_ISO_8,1,1,48,36,1688111372
79,17,7,Jits_ISO_8,2,5,80,127,1688125040
79,17,7,Jits_ISO_8,3,5,63,98,1688145152
79,17,7,Jits_ISO_8,0,5,56,103,1688844820
79,17,7,Jits_ISO_8,1,1,48,41,1688921828
79,17,7,Jits_ISO_8,2,5,63,98,1688955204
79,17,7,Jits_ISO_8,3,5,80,127,1688958492
79,17,7,Jits_ISO_8,0,5,56,103,1689675128
79,17,7,Jits_ISO_8,1,1,48,36,1689677952
79,17,7,Jits_ISO_8,2,5,80,127,1689704800
79,17,7,Jits_ISO_8,3,5,63,98,1689725332
79,17,7,Jits_ISO_8,0,5,63,98,1690455296
79,17,7,Jits_ISO_8,1,5,56,103,1690464668
79,17,7,Jits_ISO_8,2,5,80,127,1690474788
79,17,7,Jits_ISO_8,3,1,48,38,1690488172
79,17,7,Jits_ISO_8,0,5,80,127,1691245032
79,17,7,Jits_ISO_8,1,1,48,42,1691286664
79,17,7,Jits_ISO_8,2,5,56,103,1691295156
79,17,7,Jits_ISO_8,3,5,63,98,1691335168
79,17,7,Jits_ISO_8,0,1,48,39,1692039472
79,17,7,Jits_ISO_8,1,5,80,127,1692065128
79,17,7,Jits_ISO_8,2,5,63,98,1692084688
79,17,7,Jits_ISO_8,3,5,56,103,1692135024
79,17,7,Jits_ISO_8,0,1,48,39,1692842176
79,17,7,Jits_ISO_8,1,5,80,127,1692875176
79,17,7,Jits_ISO_8,2,5,56,103,1692904852
79,17,7,Jits_ISO_8,3,5,63,98,1692974444
79,17,7,Jits_ISO_8,0,1,48,37,1693667816
79,17,7,Jits_ISO_8,1,5,56,103,1693725008
79,17,7,Jits_ISO_8,2,5,80,127,1693735280
79,17,7,Jits_ISO_8,3,5,63,98,1693775156
79,17,7,Jits_ISO_8,0,5,56,103,1694434972
79,17,7,Jits_ISO_8,1,5,63,98,1694455208
79,17,7,Jits_ISO_8,2,1,48,35,1694508816
79,17,7,Jits_ISO_8,3,5,80,127,1694524956
79,17,7,Jits_ISO_8,0,5,63,98,1695254844
79,17,7,Jits_ISO_8,1,1,48,27,1695279836
79,17,7,Jits_ISO_8,2,5,80,127,1695315184
79,17,7,Jits_ISO_8,3,5,56,103,1695334820
79,17,7,Jits_ISO_8,0,1,48,32,1695982824
79,17,7,Jits_ISO_8,1,5,80,127,1696045404
79,17,7,Jits_ISO_8,2,1,48,24,1696067488
79,17,7,Jits_ISO_8,3,5,56,103,1696075084
79,17,7,Jits_ISO_8,4,5,63,98,1696104764
79,17,7,Jits_ISO_8,0,1,48,40,1696835148
79,17,7,Jits_ISO_8,1,5,56,103,1696845136
79,17,7,Jits_ISO_8,2,5,63,98,1696904704
79,17,7,Jits_ISO_8,3,5,80,127,1696965004
79,17,7,Jits_ISO_8,0,1,48,47,1697650056
79,17,7,Jits_ISO_8,1,5,80,127,1697665372
79,17,7,Jits_ISO_8,2,5,56,103,1697684932
79,17,7,Jits_ISO_8,3,5,63,98,1697754672
79,17,7,Jits_ISO_8,0,1,48,41,1698465384
79,17,7,Jits_ISO_8,1,5,80,127,1698466720
79,17,7,Jits_ISO_8,2,5,63,98,1698484716
79,17,7,Jits_ISO_8,3,5,56,103,1698515292
79,17,7,Jits_ISO_8,0,5,80,127,1699254752
79,17,7,Jits_ISO_8,1,5,63,98,1699275064
79,17,7,Jits_ISO_8,2,1,48,37,1699313028
79,17,7,Jits_ISO_8,3,5,56,103,1699334700
79,17,7,Jits_ISO_8,0,5,80,127,1700055520
79,17,7,Jits_ISO_8,1,1,48,32,1700087408
79,17,7,Jits_ISO_8,2,5,56,103,1700154792
79,17,7,Jits_ISO_8,3,5,63,98,1700184624
79,17,7,Jits_ISO_8,0,5,63,98,1700844832
79,17,7,Jits_ISO_8,1,5,80,127,1700895112
79,17,7,Jits_ISO_8,2,5,56,103,1700914672
79,17,7,Jits_ISO_8,3,1,48,42,1700940212
79,17,7,Jits_ISO_8,0,5,80,127,1701684620
79,17,7,Jits_ISO_8,1,5,56,103,1701715440
79,17,7,Jits_ISO_8,2,5,63,98,1701718432
79,17,7,Jits_ISO_8,3,1,48,37,1701732332
79,17,7,Jits_ISO_8,0,1,48,35,1702503960
79,17,7,Jits_ISO_8,1,5,63,98,1702514920
79,17,7,Jits_ISO_8,2,5,56,103,1702555008
79,17,7,Jits_ISO_8,3,5,80,127,1702574716
79,17,7,Jits_ISO_8,0,5,80,127,1703255520
79,17,7,Jits_ISO_8,1,1,48,38,1703275056
79,17,7,Jits_ISO_8,2,5,63,98,1703335240
79,17,7,Jits_ISO_8,3,5,56,103,1703375684
79,17,7,Jits_ISO_8,0,5,63,98,1704074804
79,17,7,Jits_ISO_8,1,1,48,41,1704084372
79,17,7,Jits_ISO_8,2,5,80,127,1704154672
79,17,7,Jits_ISO_8,3,5,56,103,1704174980
79,17,7,Jits_ISO_8,0,1,48,37,1704875460
79,17,7,Jits_ISO_8,1,5,56,103,1704915492
79,17,7,Jits_ISO_8,2,5,63,98,1704924492
79,17,7,Jits_ISO_8,3,5,80,127,1704964728
79,17,7,Jits_ISO_8,0,5,56,103,1705635116
79,17,7,Jits_ISO_8,1,5,80,127,1705638180
79,17,7,Jits_ISO_8,2,1,48,42,1705724616
79,17,7,Jits_ISO_8,3,5,63,98,1705774760
79,17,7,Jits_ISO_8,0,5,56,103,1706424564
79,17,7,Jits_ISO_8,1,5,63,98,1706514700
79,17,7,Jits_ISO_8,2,1,48,35,1706540512
79,17,7,Jits_ISO_8,3,5,80,127,1706584696
79,17,7,Jits_ISO_8,0,1,48,40,1707272732
79,17,7,Jits_ISO_8,1,5,63,98,1707305492
79,17,7,Jits_ISO_8,2,5,80,127,1707308856
79,17,7,Jits_ISO_8,3,5,56,103,1707364696
79,17,7,Jits_ISO_8,0,1,48,38,1708072416
79,17,7,Jits_ISO_8,1,5,80,127,1708145152
79,17,7,Jits_ISO_8,2,5,56,103,1708164344
79,17,7,Jits_ISO_8,3,5,63,98,1708174672
79,17,7,Jits_ISO_8,0,5,56,103,1708854568
79,17,7,Jits_ISO_8,1,5,63,98,1708864792
79,17,7,Jits_ISO_8,2,5,80,127,1708934472
79,17,7,Jits_ISO_8,3,1,48,40,1708942844
79,17,7,Jits_ISO_8,0,5,80,127,1709655508
79,17,7,Jits_ISO_8,1,1,48,38,1709678932
79,17,7,Jits_ISO_8,2,5,56,103,1709704584
79,17,7,Jits_ISO_8,3,5,63,98,1709754788
79,17,7,Jits_ISO_8,0,1,48,39,1710493720
79,17,7,Jits_ISO_8,1,5,56,103,1710535024
79,17,7,Jits_ISO_8,2,5,63,98,1710545592
79,17,7,Jits_ISO_8,3,5,80,127,1710585380
79,17,7,Jits_ISO_8,0,5,56,103,1711275396
79,17,7,Jits_ISO_8,1,5,63,98,1711315560
79,17,7,Jits_ISO_8,2,1,48,40,1711319280
79,17,7,Jits_ISO_8,3,5,80,127,1711364412
79,17,7,Jits_ISO_8,0,5,80,127,1712035264
79,17,7,Jits_ISO_8,1,1,48,44,1712053148
79,17,7,Jits_ISO_8,2,5,56,103,1712085464
79,17,7,Jits_ISO_8,3,5,63,98,1712104800
79,17,7,Jits_ISO_8,0,5,80,127,1712845248
79,17,7,Jits_ISO_8,1,1,48,34,1712856240
79,17,7,Jits_ISO_8,2,5,63,98,1712904512
79,17,7,Jits_ISO_8,3,5,56,103,1712984392
79,17,7,Jits_ISO_8,0,5,80,127,1713624444
79,17,7,Jits_ISO_8,1,5,56,103,1713665356
79,17,7,Jits_ISO_8,2,5,63,98,1713684844
79,17,7,Jits_ISO_8,3,1,48,38,1713712764
79,17,7,Jits_ISO_8,0,1,48,49,1714442712
79,17,7,Jits_ISO_8,1,5,56,103,1714475252
79,17,7,Jits_ISO_8,2,5,80,127,1714484624
79,17,7,Jits_ISO_8,3,5,63,98,1714524512
79,17,7,Jits_ISO_8,0,1,48,41,1715251396
79,17,7,Jits_ISO_8,1,5,56,103,1715344888
79,17,7,Jits_ISO_8,2,5,63,98,1715384736
79,17,7,Jits_ISO_8,3,5,80,127,1715388248
79,17,7,Jits_ISO_8,0,5,63,98,1716034912
79,17,7,Jits_ISO_8,1,5,80,127,1716075300
79,17,7,Jits_ISO_8,2,5,56,103,1716144532
79,17,7,Jits_ISO_8,3,1,48,42,1716151840
79,17,7,Jits_ISO_8,0,5,63,98,1716824428
79,17,7,Jits_ISO_8,1,5,56,103,1716905348
79,17,7,Jits_ISO_8,2,1,48,46,1716908096
79,17,7,Jits_ISO_8,3,5,80,127,1716964760
79,17,7,Jits_ISO_8,0,5,80,127,1717634392
79,17,7,Jits_ISO_8,1,1,48,49,1717636332
79,17,7,Jits_ISO_8,2,5,63,98,1717684664
79,17,7,Jits_ISO_8,3,5,56,103,1717715240
79,17,7,Jits_ISO_8,0,5,56,103,1718424824
79,17,7,Jits_ISO_8,1,5,63,98,1718475176
79,17,7,Jits_ISO_8,2,5,80,127,1718485372
79,17,7,Jits_ISO_8,3,1,48,54,1718513516
79,17,7,Jits_ISO_8,0,5,56,103,1719235104
79,17,7,Jits_ISO_8,1,1,48,48,1719248188
79,17,7,Jits_ISO_8,2,5,63,98,1719344624
79,17,7,Jits_ISO_8,3,5,80,127,1719365036
79,17,7,Jits_ISO_8,0,5,63,98,1720034680
79,17,7,Jits_ISO_8,1,1,48,45,1720083140
79,17,7,Jits_ISO_8,2,5,80,127,1720084728
79,17,7,Jits_ISO_8,3,5,56,103,1720175036
79,17,7,Jits_ISO_8,0,5,63,98,1720825248
79,17,7,Jits_ISO_8,1,5,80,127,1720854996
79,17,7,Jits_ISO_8,2,5,56,103,1720945228
79,17,7,Jits_ISO_8,3,1,48,46,1720976668
79,17,7,Jits_ISO_8,0,5,63,98,1721625100
79,17,7,Jits_ISO_8,1,5,56,103,1721635296
79,17,7,Jits_ISO_8,2,1,48,52,1721700312
79,17,7,Jits_ISO_8,3,5,80,127,1721734436
79,17,7,Jits_ISO_8,0,1,48,48,1722405140
79,17,7,Jits_ISO_8,1,5,63,98,1722525052
79,17,7,Jits_ISO_8,2,5,80,127,1722554804
79,17,7,Jits_ISO_8,3,5,56,103,1722584404
79,17,7,Jits_ISO_8,0,1,48,45,1723310884
79,17,7,Jits_ISO_8,1,5,80,127,1723345160
79,17,7,Jits_ISO_8,2,5,63,98,1723354608
79,17,7,Jits_ISO_8,3,5,56,103,1723385180
79,17,7,Jits_ISO_8,0,5,80,127,1724044780
79,17,7,Jits_ISO_8,1,5,63,98,1724065312
79,17,7,Jits_ISO_8,2,5,56,103,1724115288
79,17,7,Jits_ISO_8,3,1,48,24,1724188152
79,17,7,Jits_ISO_8,0,5,63,98,1724875064
79,17,7,Jits_ISO_8,1,5,80,127,1724934412
79,17,7,Jits_ISO_8,2,5,56,103,1724955168
79,17,7,Jits_ISO_8,3,1,48,40,1724973576
79,17,7,Jits_ISO_8,0,5,63,98,1725635212
79,17,7,Jits_ISO_8,1,5,56,103,1725684972
79,17,7,Jits_ISO_8,2,5,80,127,1725695464
79,17,7,Jits_ISO_8,3,1,48,43,1725722472
79,17,7,Jits_ISO_8,0,1,48,47,1726465708
79,17,7,Jits_ISO_8,1,5,56,103,1726466896
79,17,7,Jits_ISO_8,2,5,80,127,1726474480
79,17,7,Jits_ISO_8,3,5,63,98,1726575108
79,17,7,Jits_ISO_8,0,5,80,127,1727225184
79,17,7,Jits_ISO_8,1,5,63,98,1727234480
79,17,7,Jits_ISO_8,2,1,48,48,1727285404
79,17,7,Jits_ISO_8,3,5,56,103,1727385072
79,17,7,Jits_ISO_8,0,5,63,98,1728035092
79,17,7,Jits_ISO_8,1,5,80,127,1728075060
79,17,7,Jits_ISO_8,2,1,48,48,1728108892
79,17,7,Jits_ISO_8,3,5,56,103,1728155216
79,17,7,Jits_ISO_8,0,5,56,103,1728824908
79,17,7,Jits_ISO_8,1,1,48,45,1728900124
79,17,7,Jits_ISO_8,2,5,80,127,1728925176
79,17,7,Jits_ISO_8,3,5,63,98,1728944440
79,17,7,Jits_ISO_8,0,5,80,127,1729685040
79,17,7,Jits_ISO_8,1,5,56,103,1729695016
79,17,7,Jits_ISO_8,2,1,48,51,1729696204
79,17,7,Jits_ISO_8,3,5,63,98,1729785140
79,17,7,Jits_ISO_8,0,5,56,103,1730484612
79,17,7,Jits_ISO_8,1,1,48,53,1730497320
79,17,7,Jits_ISO_8,2,5,63,98,1730505064
79,17,7,Jits_ISO_8,3,5,80,127,1730584936
79,17,7,Jits_ISO_8,0,5,63,98,1731235112
79,17,7,Jits_ISO_8,1,1,48,51,1731304840
79,17,7,Jits_ISO_8,2,5,56,103,1731325312
79,17,7,Jits_ISO_8,3,5,80,127,1731328456
79,17,7,Jits_ISO_8,0,5,56,103,1732064552
79,17,7,Jits_ISO_8,1,1,48,44,1732116072
79,17,7,Jits_ISO_8,2,5,80,127,1732124940
79,17,7,Jits_ISO_8,3,5,63,98,1732135360
79,17,7,Jits_ISO_8,0,1,48,43,1732910540
79,17,7,Jits_ISO_8,1,5,80,127,1732914692
79,17,7,Jits_ISO_8,2,5,56,103,1732924740
79,17,7,Jits_ISO_8,3,5,63,98,1732927828
79,17,7,Jits_ISO_8,0,5,56,103,1733675364
79,17,7,Jits_ISO_8,1,5,80,127,1733684736
79,17,7,Jits_ISO_8,2,5,63,98,1733704924
79,17,7,Jits_ISO_8,3,1,48,39,1733717408
79,17,7,Jits_ISO_8,0,5,63,98,1734445416
79,17,7,Jits_ISO_8,1,1,48,46,1734454536
79,17,7,Jits_ISO_8,2,5,80,127,1734504780
79,17,7,Jits_ISO_8,3,5,56,103,1734554968
79,17,7,Jits_ISO_8,0,1,48,43,1735241888
79,17,7,Jits_ISO_8,1,5,63,98,1735325016
79,17,7,Jits_ISO_8,2,5,56,103,1735336092
79,17,7,Jits_ISO_8,3,5,80,127,1735384348
79,17,7,Jits_ISO_8,0,5,63,98,1736024488
79,17,7,Jits_ISO_8,1,5,80,127,1736044796
79,17,7,Jits_ISO_8,2,5,56,103,1736055216
79,17,7,Jits_ISO_8,3,1,48,50,1736069348
79,17,7,Jits_ISO_8,0,5,63,98,1736825148
79,17,7,Jits_ISO_8,1,5,80,127,1736828736
79,17,7,Jits_ISO_8,2,1,48,50,1736853972
79,17,7,Jits_ISO_8,3,5,56,103,1736865084
79,17,7,Jits_ISO_8,0,1,48,49,1737611984
79,17,7,Jits_ISO_8,1,5,63,98,1737694588
79,17,7,Jits_ISO_8,2,5,80,127,1737725224
79,17,7,Jits_ISO_8,3,5,56,103,1737734596
79,17,7,Jits_ISO_8,0,5,56,103,1738445156
79,17,7,Jits_ISO_8,1,1,48,40,1738447820
79,17,7,Jits_ISO_8,2,5,80,127,1738474900
79,17,7,Jits_ISO_8,3,5,63,98,1738504648
79,17,7,Jits_ISO_8,0,1,48,38,1739264844
79,17,7,Jits_ISO_8,1,5,63,98,1739345216
79,17,7,Jits_ISO_8,2,5,56,103,1739385060
79,17,7,Jits_ISO_8,3,5,80,127,1739388204
79,17,7,Jits_ISO_8,0,5,80,127,1740044880
79,17,7,Jits_ISO_8,1,1,48,37,1740088008
79,17,7,Jits_ISO_8,2,5,56,103,1740124548
79,17,7,Jits_ISO_8,3,5,63,98,1740174748
79,17,7,Jits_ISO_8,0,5,80,127,1740824972
79,17,7,Jits_ISO_8,1,5,56,103,1740845360
79,17,7,Jits_ISO_8,2,1,48,38,1740923204
79,17,7,Jits_ISO_8,3,5,63,98,1740934612
79,17,7,Jits_ISO_8,0,5,80,127,1741664724
79,17,7,Jits_ISO_8,1,5,63,98,1741704516
79,17,7,Jits_ISO_8,2,1,48,48,1741706452
79,17,7,Jits_ISO_8,3,5,56,103,1741744520
79,17,7,Jits_ISO_8,0,5,63,98,1742434628
79,17,7,Jits_ISO_8,1,1,48,44,1742492204
79,17,7,Jits_ISO_8,2,5,80,127,1742495160
79,17,7,Jits_ISO_8,3,5,56,103,1742524760
79,17,7,Jits_ISO_8,0,5,56,103,1743234696
79,17,7,Jits_ISO_8,1,5,80,127,1743265272
79,17,7,Jits_ISO_8,2,1,48,14,1743297764
79,17,7,Jits_ISO_8,3,5,63,98,1743355176
79,17,7,Jits_ISO_8,0,5,56,103,1744045508
79,17,7,Jits_ISO_8,1,1,48,32,1744062328
79,17,7,Jits_ISO_8,2,5,80,127,1744155624
79,17,7,Jits_ISO_8,3,5,63,98,1744184632
79,17,7,Jits_ISO_8,0,5,56,103,1744895360
79,17,7,Jits_ISO_8,1,1,48,24,1744905676
79,17,7,Jits_ISO_8,2,5,63,98,1744954700
79,17,7,Jits_ISO_8,3,5,80,127,1744984624
79,17,7,Jits_ISO_8,0,5,56,103,1745665496
79,17,7,Jits_ISO_8,1,5,63,98,1745735052
79,17,7,Jits_ISO_8,2,5,80,127,1745754464
79,17,7,Jits_ISO_8,0,1,48,30,1746352504
79,17,7,Jits_ISO_8,1,5,80,127,1746434488
79,17,7,Jits_ISO_8,2,5,63,98,1746454936
79,17,7,Jits_ISO_8,3,5,56,103,1746505160
79,17,7,Jits_ISO_8,0,9999,9999,9999,1651702840
79,17,7,Jits_ISO_8,1,9999,9999,9999,1652502592
79,17,7,Jits_ISO_8,2,9999,9999,9999,1653302388
79,17,7,Jits_ISO_8,3,9999,9999,9999,1654102136
79,17,7,Jits_ISO_8,4,9999,9999,9999,1654902900
79,17,7,Jits_ISO_8,5,9999,9999,9999,1655702612
79,17,7,Jits_ISO_8,6,9999,9999,9999,1656502332
79,17,7,Jits_ISO_8,7,9999,9999,9999,1657302128
79,17,7,Jits_ISO_8,8,9999,9999,9999,1658102904
79,17,7,Jits_ISO_8,9,9999,9999,9999,1658902596
79,17,7,Jits_ISO_8,10,9999,9999,9999,1659702324
79,17,7,Jits_ISO_8,11,9999,9999,9999,1660502080
79,17,7,Jits_ISO_8,12,9999,9999,9999,1661302852
79,17,7,Jits_ISO_8,13,9999,9999,9999,1662102644
79,17,7,Jits_ISO_8,14,9999,9999,9999,1662902344
79,17,7,Jits_ISO_8,15,9999,9999,9999,1663702132
79,17,7,Jits_ISO_8,16,9999,9999,9999,1664502868
79,17,7,Jits_ISO_8,17,9999,9999,9999,1665302596
79,17,7,Jits_ISO_8,18,9999,9999,9999,1666102380
79,17,7,Jits_ISO_8,19,9999,9999,9999,1666902132
79,17,7,Jits_ISO_8,20,9999,9999,9999,1667702884
79,17,7,Jits_ISO_8,21,9999,9999,9999,1668502592
79,17,7,Jits_ISO_8,22,9999,9999,9999,1669302380
79,17,7,Jits_ISO_8,23,9999,9999,9999,1670102104
79,17,7,Jits_ISO_8,24,9999,9999,9999,1670902856
79,17,7,Jits_ISO_8,25,9999,9999,9999,1671702636
79,17,7,Jits_ISO_8,26,9999,9999,9999,1672502344
79,17,7,Jits_ISO_8,27,9999,9999,9999,1673302080
79,17,7,Jits_ISO_8,28,9999,9999,9999,1674102904
79,17,7,Jits_ISO_8,29,9999,9999,9999,1674902632
79,17,7,Jits_ISO_8,30,9999,9999,9999,1675702340
79,17,7,Jits_ISO_8,31,9999,9999,9999,1676502120
79,17,7,Jits_ISO_8,32,9999,9999,9999,1677302888
79,17,7,Jits_ISO_8,33,9999,9999,9999,1678102608
79,17,7,Jits_ISO_8,34,9999,9999,9999,1678902328
79,17,7,Jits_ISO_8,35,9999,9999,9999,1679702068
79,17,7,Jits_ISO_8,36,9999,9999,9999,1680502908
79,17,7,Jits_ISO_8,37,9999,9999,9999,1681302632
79,17,7,Jits_ISO_8,38,9999,9999,9999,1682102348
79,17,7,Jits_ISO_8,39,9999,9999,9999,1682902076
79,17,7,Jits_ISO_8,40,9999,9999,9999,1683702904
79,17,7,Jits_ISO_8,41,9999,9999,9999,1684502628
79,17,7,Jits_ISO_8,42,9999,9999,9999,1685302332
79,17,7,Jits_ISO_8,43,9999,9999,9999,1686102068
79,17,7,Jits_ISO_8,44,9999,9999,9999,1686902880
79,17,7,Jits_ISO_8,45,9999,9999,9999,1687702592
79,17,7,Jits_ISO_8,46,9999,9999,9999,1688502388
79,17,7,Jits_ISO_8,47,9999,9999,9999,1689302104
79,17,7,Jits_ISO_8,48,9999,9999,9999,1690102868
79,17,7,Jits_ISO_8,49,9999,9999,9999,1690902588
79,17,7,Jits_ISO_8,50,9999,9999,9999,1691702372
79,17,7,Jits_ISO_8,51,9999,9999,9999,1692502116
79,17,7,Jits_ISO_8,52,9999,9999,9999,1693302876
79,17,7,Jits_ISO_8,53,9999,9999,9999,1694102588
79,17,7,Jits_ISO_8,54,9999,9999,9999,1694902372
79,17,7,Jits_ISO_8,55,9999,9999,9999,1695702092
79,17,7,Jits_ISO_8,56,9999,9999,9999,1696502900
79,17,7,Jits_ISO_8,57,9999,9999,9999,1697302628
79,17,7,Jits_ISO_8,58,9999,9999,9999,1698102336
79,17,7,Jits_ISO_8,59,9999,9999,9999,1698902068
79,17,7,Jits_ISO_8,60,9999,9999,9999,1699702896
79,17,7,Jits_ISO_8,61,9999,9999,9999,1700502624
79,17,7,Jits_ISO_8,62,9999,9999,9999,1701302340
79,17,7,Jits_ISO_8,63,9999,9999,9999,1702102112
79,17,7,Jits_ISO_8,64,9999,9999,9999,1702902888
79,17,7,Jits_ISO_8,65,9999,9999,9999,1703702600
79,17,7,Jits_ISO_8,66,9999,9999,9999,1704502328
79,17,7,Jits_ISO_8,67,9999,9999,9999,1705302140
79,17,7,Jits_ISO_8,68,9999,9999,9999,1706102880
79,17,7,Jits_ISO_8,69,9999,9999,9999,1706902604
79,17,7,Jits_ISO_8,70,9999,9999,9999,1707702392
79,17,7,Jits_ISO_8,71,9999,9999,9999,1708502108
79,17,7,Jits_ISO_8,72,9999,9999,9999,1709302864
79,17,7,Jits_ISO_8,73,9999,9999,9999,1710102584
79,17,7,Jits_ISO_8,74,9999,9999,9999,1710902388
79,17,7,Jits_ISO_8,75,9999,9999,9999,1711702120
79,17,7,Jits_ISO_8,76,9999,9999,9999,1712502888
79,17,7,Jits_ISO_8,77,9999,9999,9999,1713302612
79,17,7,Jits_ISO_8,78,9999,9999,9999,1714102328
79,17,7,Jits_ISO_8,79,9999,9999,9999,1714902124
79,17,7,Jits_ISO_8,80,9999,9999,9999,1715702880
79,17,7,Jits_ISO_8,81,9999,9999,9999,1716502584
79,17,7,Jits_ISO_8,82,9999,9999,9999,1717302368
79,17,7,Jits_ISO_8,83,9999,9999,9999,1718102092
79,17,7,Jits_ISO_8,84,9999,9999,9999,1718902860
79,17,7,Jits_ISO_8,85,9999,9999,9999,1719702584
79,17,7,Jits_ISO_8,86,9999,9999,9999,1720502380
79,17,7,Jits_ISO_8,87,9999,9999,9999,1721302088
79,17,7,Jits_ISO_8,88,9999,9999,9999,1722102836
79,17,7,Jits_ISO_8,89,9999,9999,9999,1722902624
79,17,7,Jits_ISO_8,90,9999,9999,9999,1723702340
79,17,7,Jits_ISO_8,91,9999,9999,9999,1724502136
79,17,7,Jits_ISO_8,92,9999,9999,9999,1725302908
79,17,7,Jits_ISO_8,93,9999,9999,9999,1726102612
79,17,7,Jits_ISO_8,94,9999,9999,9999,1726902396
79,17,7,Jits_ISO_8,95,9999,9999,9999,1727702096
79,17,7,Jits_ISO_8,96,9999,9999,9999,1728502868
79,17,7,Jits_ISO_8,97,9999,9999,9999,1729302648
79,17,7,Jits_ISO_8,98,9999,9999,9999,1730102372
79,17,7,Jits_ISO_8,99,9999,9999,9999,1730902116
79,17,7,Jits_ISO_8,100,9999,9999,9999,1731702876
79,17,7,Jits_ISO_8,101,9999,9999,9999,1732502584
79,17,7,Jits_ISO_8,102,9999,9999,9999,1733302376
79,17,7,Jits_ISO_8,103,9999,9999,9999,1734102084
79,17,7,Jits_ISO_8,104,9999,9999,9999,1734902856
79,17,7,Jits_ISO_8,105,9999,9999,9999,1735702644
79,17,7,Jits_ISO_8,106,9999,9999,9999,1736502344
79,17,7,Jits_ISO_8,107,9999,9999,9999,1737302128
79,17,7,Jits_ISO_8,108,9999,9999,9999,1738102884
79,17,7,Jits_ISO_8,109,9999,9999,9999,1738902588
79,17,7,Jits_ISO_8,110,9999,9999,9999,1739702384
79,17,7,Jits_ISO_8,111,9999,9999,9999,1740502096
79,17,7,Jits_ISO_8,112,9999,9999,9999,1741302860
79,17,7,Jits_ISO_8,113,9999,9999,9999,1742102580
79,17,7,Jits_ISO_8,114,9999,9999,9999,1742902372
79,17,7,Jits_ISO_8,115,9999,9999,9999,1743702100
79,17,7,Jits_ISO_8,116,9999,9999,9999,1744502876
79,17,7,Jits_ISO_8,117,9999,9999,9999,1745302604
79,17,7,Jits_ISO_8,118,9999,9999,9999,1746102352
79,17,7,Jits_ISO_8,119,9999,9999,9999,1746902116
79,18,19,Jits_Linear_5,0,5,56,103,1754894688
79,18,19,Jits_Linear_5,1,5,63,98,1754897708
79,18,19,Jits_Linear_5,2,5,80,127,1754901056
79,18,19,Jits_Linear_5,0,5,56,103,1755375144
79,18,19,Jits_Linear_5,1,5,63,98,1755378172
79,18,19,Jits_Linear_5,2,5,80,127,1755381216
79,18,19,Jits_Linear_5,0,1,48,26,1755850268
79,18,19,Jits_Linear_5,1,5,56,103,1755855172
79,18,19,Jits_Linear_5,2,5,80,127,1755864616
79,18,19,Jits_Linear_5,3,5,63,98,1755884856
79,18,19,Jits_Linear_5,0,5,63,98,1756285412
79,18,19,Jits_Linear_5,1,5,80,127,1756315088
79,18,19,Jits_Linear_5,2,5,56,103,1756325584
79,18,19,Jits_Linear_5,3,1,48,26,1756343772
79,18,19,Jits_Linear_5,0,1,48,34,1756803136
79,18,19,Jits_Linear_5,1,5,80,127,1756825028
79,18,19,Jits_Linear_5,2,5,56,103,1756835596
79,18,19,Jits_Linear_5,3,5,63,98,1756864976
79,18,19,Jits_Linear_5,0,1,48,39,1757296224
79,18,19,Jits_Linear_5,1,5,63,98,1757305316
79,18,19,Jits_Linear_5,2,5,56,103,1757334768
79,18,19,Jits_Linear_5,3,5,80,127,1757345488
79,18,19,Jits_Linear_5,0,5,56,103,1757744452
79,18,19,Jits_Linear_5,1,1,48,35,1757764084
79,18,19,Jits_Linear_5,2,5,63,98,1757794676
79,18,19,Jits_Linear_5,3,5,80,127,1757815208
79,18,19,Jits_Linear_5,0,5,80,127,1758235008
79,18,19,Jits_Linear_5,1,1,48,35,1758235976
79,18,19,Jits_Linear_5,2,5,63,98,1758285384
79,18,19,Jits_Linear_5,3,5,56,103,1758325248
79,18,19,Jits_Linear_5,0,5,56,103,1758724448
79,18,19,Jits_Linear_5,1,5,63,98,1758755244
79,18,19,Jits_Linear_5,2,1,48,37,1758792392
79,18,19,Jits_Linear_5,3,5,80,127,1758824796
79,18,19,Jits_Linear_5,0,5,56,103,1759215156
79,18,19,Jits_Linear_5,1,1,48,38,1759243756
79,18,19,Jits_Linear_5,2,5,80,127,1759275396
79,18,19,Jits_Linear_5,3,5,63,98,1759305172
79,18,19,Jits_Linear_5,0,5,56,103,1759714640
79,18,19,Jits_Linear_5,1,1,48,39,1759721500
79,18,19,Jits_Linear_5,2,5,63,98,1759725200
79,18,19,Jits_Linear_5,3,5,80,127,1759764844
79,18,19,Jits_Linear_5,0,1,48,41,1760198720
79,18,19,Jits_Linear_5,1,5,63,98,1760205188
79,18,19,Jits_Linear_5,2,5,80,127,1760285288
79,18,19,Jits_Linear_5,3,5,56,103,1760295176
79,18,19,Jits_Linear_5,0,1,48,42,1760745616
79,18,19,Jits_Linear_5,1,5,63,98,1760755156
79,18,19,Jits_Linear_5,2,5,56,103,1760795096
79,18,19,Jits_Linear_5,3,5,80,127,1760798240
79,18,19,Jits_Linear_5,0,5,56,103,1761214764
79,18,19,Jits_Linear_5,1,5,63,98,1761225260
79,18,19,Jits_Linear_5,2,1,48,39,1761235648
79,18,19,Jits_Linear_5,3,5,80,127,1761265116
79,18,19,Jits_Linear_5,0,1,48,41,1761688656
79,18,19,Jits_Linear_5,1,5,56,103,1761705312
79,18,19,Jits_Linear_5,2,5,63,98,1761708456
79,18,19,Jits_Linear_5,3,5,80,127,1761724652
79,18,19,Jits_Linear_5,0,1,48,40,1762160444
79,18,19,Jits_Linear_5,1,5,80,127,1762224468
79,18,19,Jits_Linear_5,2,5,56,103,1762234664
79,18,19,Jits_Linear_5,3,5,63,98,1762305304
79,18,19,Jits_Linear_5,0,5,63,98,1762725208
79,18,19,Jits_Linear_5,1,1,48,44,1762743032
79,18,19,Jits_Linear_5,2,5,56,103,1762744540
79,18,19,Jits_Linear_5,3,5,80,127,1762824560
79,18,19,Jits_Linear_5,0,1,48,38,1763227628
79,18,19,Jits_Linear_5,1,5,56,103,1763245488
79,18,19,Jits_Linear_5,2,5,80,127,1763285356
79,18,19,Jits_Linear_5,3,5,63,98,1763294508
79,18,19,Jits_Linear_5,0,1,48,41,1763700792
79,18,19,Jits_Linear_5,1,5,80,127,1763745104
79,18,19,Jits_Linear_5,2,5,63,98,1763774780
79,18,19,Jits_Linear_5,3,5,56,103,1763814708
79,18,19,Jits_Linear_5,0,1,48,43,1764220924
79,18,19,Jits_Linear_5,1,5,56,103,1764274536
79,18,19,Jits_Linear_5,2,5,63,98,1764305260
79,18,19,Jits_Linear_5,3,5,80,127,1764354328
79,18,19,Jits_Linear_5,0,1,48,42,1764759280
79,18,19,Jits_Linear_5,1,5,80,127,1764784564
79,18,19,Jits_Linear_5,2,5,56,103,1764824432
79,18,19,Jits_Linear_5,3,5,63,98,1764834552
79,18,19,Jits_Linear_5,0,1,48,41,1765251176
79,18,19,Jits_Linear_5,1,5,80,127,1765285300
79,18,19,Jits_Linear_5,2,5,63,98,1765325316
79,18,19,Jits_Linear_5,3,5,56,103,1765384572
79,18,19,Jits_Linear_5,0,1,48,44,1765793812
79,18,19,Jits_Linear_5,1,5,56,103,1765805292
79,18,19,Jits_Linear_5,2,5,80,127,1765814668
79,18,19,Jits_Linear_5,3,5,63,98,1765894596
79,18,19,Jits_Linear_5,0,5,80,127,1766324544
79,18,19,Jits_Linear_5,1,1,48,43,1766325804
79,18,19,Jits_Linear_5,2,5,63,98,1766385004
79,18,19,Jits_Linear_5,3,5,56,103,1766414976
79,18,19,Jits_Linear_5,0,5,56,103,1766844996
79,18,19,Jits_Linear_5,1,1,48,44,1766859648
79,18,19,Jits_Linear_5,2,5,80,127,1766905156
79,18,19,Jits_Linear_5,3,5,63,98,1766945024
79,18,19,Jits_Linear_5,0,1,48,44,1767372080
79,18,19,Jits_Linear_5,1,5,56,103,1767425460
79,18,19,Jits_Linear_5,2,5,63,98,1767434680
79,18,19,Jits_Linear_5,3,5,80,127,1767438120
79,18,19,Jits_Linear_5,0,1,48,44,1767899036
79,18,19,Jits_Linear_5,1,5,80,127,1767904612
79,18,19,Jits_Linear_5,2,5,63,98,1767994676
79,18,19,Jits_Linear_5,3,5,56,103,1768004884
79,18,19,Jits_Linear_5,0,1,48,43,1768414396
79,18,19,Jits_Linear_5,1,5,56,103,1768435004
79,18,19,Jits_Linear_5,2,5,63,98,1768438256
79,18,19,Jits_Linear_5,3,5,80,127,1768441372
79,18,19,Jits_Linear_5,0,1,48,45,1768915080
79,18,19,Jits_Linear_5,1,5,80,127,1768985080
79,18,19,Jits_Linear_5,2,5,63,98,1769035072
79,18,19,Jits_Linear_5,3,5,56,103,1769064896
79,18,19,Jits_Linear_5,0,1,48,43,1769489456
79,18,19,Jits_Linear_5,1,5,56,103,1769494804
79,18,19,Jits_Linear_5,2,5,80,127,1769505148
79,18,19,Jits_Linear_5,3,5,63,98,1769574780
79,18,19,Jits_Linear_5,0,1,48,43,1770019700
79,18,19,Jits_Linear_5,1,5,56,103,1770034568
79,18,19,Jits_Linear_5,2,5,63,98,1770054984
79,18,19,Jits_Linear_5,3,5,80,127,1770114384
79,18,19,Jits_Linear_5,0,1,48,40,1770536100
79,18,19,Jits_Linear_5,1,5,80,127,1770565068
79,18,19,Jits_Linear_5,2,5,63,98,1770634740
79,18,19,Jits_Linear_5,3,5,56,103,1770655048
79,18,19,Jits_Linear_5,0,1,48,42,1771095452
79,18,19,Jits_Linear_5,1,5,80,127,1771124996
79,18,19,Jits_Linear_5,2,5,56,103,1771135268
79,18,19,Jits_Linear_5,3,5,63,98,1771144416
79,18,19,Jits_Linear_5,0,1,48,40,1771596628
79,18,19,Jits_Linear_5,1,5,80,127,1771654648
79,18,19,Jits_Linear_5,2,5,56,103,1771675108
79,18,19,Jits_Linear_5,3,5,63,98,1771744628
79,18,19,Jits_Linear_5,0,1,48,42,1772200380
79,18,19,Jits_Linear_5,1,5,56,103,1772205284
79,18,19,Jits_Linear_5,2,5,80,127,1772235256
79,18,19,Jits_Linear_5,3,5,63,98,1772254448
79,18,19,Jits_Linear_5,0,1,48,42,1772738656
79,18,19,Jits_Linear_5,1,5,63,98,1772745052
79,18,19,Jits_Linear_5,2,5,56,103,1772804400
79,18,19,Jits_Linear_5,3,5,80,127,1772835268
79,18,19,Jits_Linear_5,0,1,48,38,1773257748
79,18,19,Jits_Linear_5,1,5,63,98,1773284824
79,18,19,Jits_Linear_5,2,5,80,127,1773288036
79,18,19,Jits_Linear_5,3,5,56,103,1773374744
79,18,19,Jits_Linear_5,0,1,48,42,1773798408
79,18,19,Jits_Linear_5,1,5,56,103,1773855152
79,18,19,Jits_Linear_5,2,5,63,98,1773884852
79,18,19,Jits_Linear_5,3,5,80,127,1773925000
79,18,19,Jits_Linear_5,0,1,48,37,1774361992
79,18,19,Jits_Linear_5,1,5,63,98,1774404912
79,18,19,Jits_Linear_5,2,5,56,103,1774444928
79,18,19,Jits_Linear_5,3,5,80,127,1774465372
79,18,19,Jits_Linear_5,0,1,48,40,1774894660
79,18,19,Jits_Linear_5,1,5,63,98,1774965060
79,18,19,Jits_Linear_5,2,5,56,103,1775005060
79,18,19,Jits_Linear_5,3,5,80,127,1775015776
79,18,19,Jits_Linear_5,0,1,48,35,1775474840
79,18,19,Jits_Linear_5,1,5,80,127,1775494792
79,18,19,Jits_Linear_5,2,5,63,98,1775565152
79,18,19,Jits_Linear_5,3,5,56,103,1775584700
79,18,19,Jits_Linear_5,0,5,56,103,1776045508
79,18,19,Jits_Linear_5,1,1,48,37,1776049604
79,18,19,Jits_Linear_5,2,5,80,127,1776064992
79,18,19,Jits_Linear_5,3,5,63,98,1776105004
79,18,19,Jits_Linear_5,0,1,48,36,1776595824
79,18,19,Jits_Linear_5,1,5,63,98,1776614880
79,18,19,Jits_Linear_5,2,5,80,127,1776635120
79,18,19,Jits_Linear_5,3,5,56,103,1776675204
79,18,19,Jits_Linear_5,0,1,48,39,1777138960
79,18,19,Jits_Linear_5,1,5,63,98,1777174880
79,18,19,Jits_Linear_5,2,5,56,103,1777195340
79,18,19,Jits_Linear_5,3,5,80,127,1777204712
79,18,19,Jits_Linear_5,0,1,48,39,1777681268
79,18,19,Jits_Linear_5,1,5,80,127,1777734900
79,18,19,Jits_Linear_5,2,5,56,103,1777754836
79,18,19,Jits_Linear_5,3,5,63,98,1777785096
79,18,19,Jits_Linear_5,0,1,48,33,1778209496
79,18,19,Jits_Linear_5,1,5,56,103,1778374976
79,18,19,Jits_Linear_5,2,5,80,127,1778378116
79,18,19,Jits_Linear_5,3,5,63,98,1778394612
79,18,19,Jits_Linear_5,0,5,63,98,1778864788
79,18,19,Jits_Linear_5,1,1,48,33,1778871196
79,18,19,Jits_Linear_5,2,5,56,103,1778895208
79,18,19,Jits_Linear_5,3,5,80,127,1778954700
79,18,19,Jits_Linear_5,0,1,48,41,1779411852
79,18,19,Jits_Linear_5,1,5,63,98,1779514752
79,18,19,Jits_Linear_5,2,5,56,103,1779524972
79,18,19,Jits_Linear_5,3,5,80,127,1779535244
79,18,19,Jits_Linear_5,0,5,56,103,1780034788
79,18,19,Jits_Linear_5,1,5,80,127,1780064764
79,18,19,Jits_Linear_5,2,5,63,98,1780074736
79,18,19,Jits_Linear_5,3,1,48,33,1780081516
79,18,19,Jits_Linear_5,0,1,48,42,1780602844
79,18,19,Jits_Linear_5,1,5,63,98,1780645144
79,18,19,Jits_Linear_5,2,5,56,103,1780654592
79,18,19,Jits_Linear_5,3,5,80,127,1780674976
79,18,19,Jits_Linear_5,0,5,56,103,1781144916
79,18,19,Jits_Linear_5,1,1,48,44,1781180848
79,18,19,Jits_Linear_5,2,5,63,98,1781205600
79,18,19,Jits_Linear_5,3,5,80,127,1781208888
79,18,19,Jits_Linear_5,0,1,48,40,1781720388
79,18,19,Jits_Linear_5,1,5,80,127,1781745072
79,18,19,Jits_Linear_5,2,5,56,103,1781755196
79,18,19,Jits_Linear_5,3,5,63,98,1781824740
79,18,19,Jits_Linear_5,0,1,48,41,1782313600
79,18,19,Jits_Linear_5,1,5,80,127,1782315412
79,18,19,Jits_Linear_5,2,5,56,103,1782384900
79,18,19,Jits_Linear_5,3,5,63,98,1782395540
79,18,19,Jits_Linear_5,0,1,48,42,1782918864
79,18,19,Jits_Linear_5,1,5,63,98,1782934928
79,18,19,Jits_Linear_5,2,5,56,103,1782945124
79,18,19,Jits_Linear_5,3,5,80,127,1782964464
79,18,19,Jits_Linear_5,0,5,80,127,1783465412
79,18,19,Jits_Linear_5,1,1,48,43,1783472812
79,18,19,Jits_Linear_5,2,5,63,98,1783524680
79,18,19,Jits_Linear_5,3,5,56,103,1783564620
79,18,19,Jits_Linear_5,0,1,48,48,1784058732
79,18,19,Jits_Linear_5,1,5,56,103,1784095100
79,18,19,Jits_Linear_5,2,5,63,98,1784105596
79,18,19,Jits_Linear_5,3,5,80,127,1784145264
79,18,19,Jits_Linear_5,0,1,48,41,1784576924
79,18,19,Jits_Linear_5,1,5,56,103,1784644860
79,18,19,Jits_Linear_5,2,5,80,127,1784674672
79,18,19,Jits_Linear_5,3,5,63,98,1784724804
79,18,19,Jits_Linear_5,0,1,48,40,1785208496
79,18,19,Jits_Linear_5,1,5,56,103,1785274836
79,18,19,Jits_Linear_5,2,5,63,98,1785314612
79,18,19,Jits_Linear_5,3,5,80,127,1785317904
79,18,19,Jits_Linear_5,0,1,48,39,1785849184
79,18,19,Jits_Linear_5,1,5,56,103,1785864424
79,18,19,Jits_Linear_5,2,5,63,98,1785874844
79,18,19,Jits_Linear_5,3,5,80,127,1785895676
79,18,19,Jits_Linear_5,0,5,56,103,1786414604
79,18,19,Jits_Linear_5,1,5,80,127,1786417596
79,18,19,Jits_Linear_5,2,1,48,40,1786446896
79,18,19,Jits_Linear_5,3,5,63,98,1786455460
79,18,19,Jits_Linear_5,0,1,48,43,1786996248
79,18,19,Jits_Linear_5,1,5,63,98,1787045352
79,18,19,Jits_Linear_5,2,5,56,103,1787074804
79,18,19,Jits_Linear_5,3,5,80,127,1787095620
79,18,19,Jits_Linear_5,0,1,48,41,1787579916
79,18,19,Jits_Linear_5,1,5,80,127,1787614640
79,18,19,Jits_Linear_5,2,5,56,103,1787624912
79,18,19,Jits_Linear_5,3,5,63,98,1787635184
79,18,19,Jits_Linear_5,0,1,48,42,1788175048
79,18,19,Jits_Linear_5,1,5,56,103,1788214712
79,18,19,Jits_Linear_5,2,5,80,127,1788254676
79,18,19,Jits_Linear_5,3,5,63,98,1788285536
79,18,19,Jits_Linear_5,0,1,48,40,1788770804
79,18,19,Jits_Linear_5,1,5,63,98,1788825008
79,18,19,Jits_Linear_5,2,5,80,127,1788835132
79,18,19,Jits_Linear_5,3,5,56,103,1788845624
79,18,19,Jits_Linear_5,0,1,48,40,1789388944
79,18,19,Jits_Linear_5,1,5,56,103,1789404484
79,18,19,Jits_Linear_5,2,5,63,98,1789475140
79,18,19,Jits_Linear_5,3,5,80,127,1789485620
79,18,19,Jits_Linear_5,0,1,48,44,1789981148
79,18,19,Jits_Linear_5,1,5,80,127,1790014776
79,18,19,Jits_Linear_5,2,5,56,103,1790025048
79,18,19,Jits_Linear_5,3,5,63,98,1790076652
79,18,19,Jits_Linear_5,0,1,48,40,1790584184
79,18,19,Jits_Linear_5,1,5,80,127,1790635452
79,18,19,Jits_Linear_5,2,5,56,103,1790694712
79,18,19,Jits_Linear_5,3,5,63,98,1790724464
79,18,19,Jits_Linear_5,0,5,56,103,1791244612
79,18,19,Jits_Linear_5,1,5,80,127,1791247676
79,18,19,Jits_Linear_5,2,1,48,43,1791275232
79,18,19,Jits_Linear_5,3,5,63,98,1791284620
79,18,19,Jits_Linear_5,0,1,48,45,1791840712
79,18,19,Jits_Linear_5,1,5,56,103,1791884652
79,18,19,Jits_Linear_5,2,5,63,98,1791915524
79,18,19,Jits_Linear_5,3,5,80,127,1791924524
79,18,19,Jits_Linear_5,0,1,48,43,1792432720
79,18,19,Jits_Linear_5,1,5,63,98,1792505340
79,18,19,Jits_Linear_5,2,5,80,127,1792514416
79,18,19,Jits_Linear_5,3,5,56,103,1792524612
79,18,19,Jits_Linear_5,0,1,48,40,1793052264
79,18,19,Jits_Linear_5,1,5,80,127,1793065412
79,18,19,Jits_Linear_5,2,5,56,103,1793114520
79,18,19,Jits_Linear_5,3,5,63,98,1793117436
79,18,19,Jits_Linear_5,0,1,48,45,1793665184
79,18,19,Jits_Linear_5,1,5,56,103,1793714508
79,18,19,Jits_Linear_5,2,5,80,127,1793734892
79,18,19,Jits_Linear_5,3,5,63,98,1793745388
79,18,19,Jits_Linear_5,0,1,48,41,1794260156
79,18,19,Jits_Linear_5,1,5,63,98,1794314660
79,18,19,Jits_Linear_5,2,5,56,103,1794345460
79,18,19,Jits_Linear_5,3,5,80,127,1794364660
79,18,19,Jits_Linear_5,0,1,48,39,1794908220
79,18,19,Jits_Linear_5,1,5,56,103,1794945332
79,18,19,Jits_Linear_5,2,5,80,127,1794954556
79,18,19,Jits_Linear_5,3,5,63,98,1795025196
79,18,19,Jits_Linear_5,0,5,63,98,1795554560
79,18,19,Jits_Linear_5,1,1,48,39,1795571984
79,18,19,Jits_Linear_5,2,5,80,127,1795594496
79,18,19,Jits_Linear_5,3,5,56,103,1795634436
79,18,19,Jits_Linear_5,0,5,56,103,1796194748
79,18,19,Jits_Linear_5,1,5,63,98,1796204800
79,18,19,Jits_Linear_5,2,1,48,39,1796205840
79,18,19,Jits_Linear_5,3,5,80,127,1796225324
79,18,19,Jits_Linear_5,0,1,48,41,1796822988
79,18,19,Jits_Linear_5,1,5,63,98,1796865488
79,18,19,Jits_Linear_5,2,5,80,127,1796884828
79,18,19,Jits_Linear_5,3,5,56,103,1796905360
79,18,19,Jits_Linear_5,0,5,56,103,1797434812
79,18,19,Jits_Linear_5,1,1,48,41,1797467972
79,18,19,Jits_Linear_5,2,5,80,127,1797514532
79,18,19,Jits_Linear_5,3,5,63,98,1797524800
79,18,19,Jits_Linear_5,0,5,80,127,1798114628
79,18,19,Jits_Linear_5,1,1,48,41,1798115520
79,18,19,Jits_Linear_5,2,5,63,98,1798125044
79,18,19,Jits_Linear_5,3,5,56,103,1798154496
79,18,19,Jits_Linear_5,0,1,48,42,1798709664
79,18,19,Jits_Linear_5,1,5,63,98,1798714888
79,18,19,Jits_Linear_5,2,5,80,127,1798754684
79,18,19,Jits_Linear_5,3,5,56,103,1798815060
79,18,19,Jits_Linear_5,0,1,48,42,1799332240
79,18,19,Jits_Linear_5,1,5,63,98,1799375432
79,18,19,Jits_Linear_5,2,5,56,103,1799425340
79,18,19,Jits_Linear_5,3,5,80,127,1799455300
79,18,19,Jits_Linear_5,0,1,48,41,1799932996
79,18,19,Jits_Linear_5,1,5,80,127,1800024320
79,18,19,Jits_Linear_5,2,5,63,98,1800034724
79,18,19,Jits_Linear_5,3,5,56,103,1800105228
79,18,19,Jits_Linear_5,0,1,48,31,1800688504
79,18,19,Jits_Linear_5,1,5,80,127,1800735288
79,18,19,Jits_Linear_5,2,5,56,103,1800745260
79,18,19,Jits_Linear_5,3,5,63,98,1800748328
79,18,19,Jits_Linear_5,0,5,56,103,1801314648
79,18,19,Jits_Linear_5,1,1,48,39,1801324436
79,18,19,Jits_Linear_5,2,5,80,127,1801335100
79,18,19,Jits_Linear_5,3,5,63,98,1801345296
79,18,19,Jits_Linear_5,0,1,48,37,1801940028
79,18,19,Jits_Linear_5,1,5,63,98,1801965008
79,18,19,Jits_Linear_5,2,5,56,103,1802004804
79,18,19,Jits_Linear_5,3,5,80,127,1802025188
79,18,19,Jits_Linear_5,0,1,48,39,1802585920
79,18,19,Jits_Linear_5,1,5,63,98,1802605056
79,18,19,Jits_Linear_5,2,5,56,103,1802665372
79,18,19,Jits_Linear_5,3,5,80,127,1802668216
79,18,19,Jits_Linear_5,0,1,48,41,1803190180
79,18,19,Jits_Linear_5,1,5,56,103,1803224384
79,18,19,Jits_Linear_5,2,5,80,127,1803245140
79,18,19,Jits_Linear_5,3,5,63,98,1803285744
79,18,19,Jits_Linear_5,0,1,48,40,1803833956
79,18,19,Jits_Linear_5,1,5,56,103,1803905380
79,18,19,Jits_Linear_5,2,5,63,98,1803925240
79,18,19,Jits_Linear_5,3,5,80,127,1803935272
79,18,19,Jits_Linear_5,0,1,48,38,1804504536
79,18,19,Jits_Linear_5,1,5,80,127,1804525088
79,18,19,Jits_Linear_5,2,5,56,103,1804554468
79,18,19,Jits_Linear_5,3,5,63,98,1804594480
79,18,19,Jits_Linear_5,0,1,48,41,1805131900
79,18,19,Jits_Linear_5,1,5,80,127,1805185280
79,18,19,Jits_Linear_5,2,5,56,103,1805204992
79,18,19,Jits_Linear_5,3,5,63,98,1805265220
79,18,19,Jits_Linear_5,0,1,48,37,1805830280
79,18,19,Jits_Linear_5,1,5,56,103,1805844996
79,18,19,Jits_Linear_5,2,5,80,127,1805865236
79,18,19,Jits_Linear_5,3,5,63,98,1805924888
79,18,19,Jits_Linear_5,0,5,80,127,1806484816
79,18,19,Jits_Linear_5,1,5,56,103,1806495088
79,18,19,Jits_Linear_5,2,5,63,98,1806534880
79,18,19,Jits_Linear_5,3,1,48,38,1806550504
79,18,19,Jits_Linear_5,0,5,63,98,1807145364
79,18,19,Jits_Linear_5,1,1,48,40,1807156052
79,18,19,Jits_Linear_5,2,5,56,103,1807185324
79,18,19,Jits_Linear_5,3,5,80,127,1807188240
79,18,19,Jits_Linear_5,0,1,48,40,1807733516
79,18,19,Jits_Linear_5,1,5,63,98,1807825984
79,18,19,Jits_Linear_5,2,5,80,127,1807865248
79,18,19,Jits_Linear_5,3,5,56,103,1807895000
79,18,19,Jits_Linear_5,0,1,48,38,1808468028
79,18,19,Jits_Linear_5,1,5,56,103,1808474424
79,18,19,Jits_Linear_5,2,5,63,98,1808484916
79,18,19,Jits_Linear_5,3,5,80,127,1808514444
79,18,19,Jits_Linear_5,0,1,48,36,1809072304
79,18,19,Jits_Linear_5,1,5,80,127,1809135108
79,18,19,Jits_Linear_5,2,5,63,98,1809204556
79,18,19,Jits_Linear_5,3,5,56,103,1809214776
79,18,19,Jits_Linear_5,0,5,63,98,1809804752
79,18,19,Jits_Linear_5,1,1,48,43,1809831684
79,18,19,Jits_Linear_5,2,5,56,103,1809875328
79,18,19,Jits_Linear_5,3,5,80,127,1809884552
79,18,19,Jits_Linear_5,0,5,63,98,1810475408
79,18,19,Jits_Linear_5,1,1,48,36,1810487968
79,18,19,Jits_Linear_5,2,5,56,103,1810495064
79,18,19,Jits_Linear_5,3,5,80,127,1810534928
79,18,19,Jits_Linear_5,0,1,48,42,1811113840
79,18,19,Jits_Linear_5,1,5,56,103,1811155296
79,18,19,Jits_Linear_5,2,5,63,98,1811164668
79,18,19,Jits_Linear_5,3,5,80,127,1811245420
79,18,19,Jits_Linear_5,0,1,48,40,1811787512
79,18,19,Jits_Linear_5,1,5,63,98,1811814964
79,18,19,Jits_Linear_5,2,5,56,103,1811844568
79,18,19,Jits_Linear_5,3,5,80,127,1811885464
79,18,19,Jits_Linear_5,0,1,48,43,1812467604
79,18,19,Jits_Linear_5,1,5,56,103,1812484424
79,18,19,Jits_Linear_5,2,5,63,98,1812525412
79,18,19,Jits_Linear_5,3,5,80,127,1812566112
79,18,19,Jits_Linear_5,0,1,48,40,1813128172
79,18,19,Jits_Linear_5,1,5,80,127,1813165516
79,18,19,Jits_Linear_5,2,5,56,103,1813245152
79,18,19,Jits_Linear_5,3,5,63,98,1813254448
79,18,19,Jits_Linear_5,0,5,56,103,1813885272
79,18,19,Jits_Linear_5,1,1,48,43,1813886252
79,18,19,Jits_Linear_5,2,5,63,98,1813889528
79,18,19,Jits_Linear_5,3,5,80,127,1813894488
79,18,19,Jits_Linear_5,0,1,48,42,1814584556
79,18,19,Jits_Linear_5,1,5,56,103,1814586068
79,18,19,Jits_Linear_5,2,5,63,98,1814605108
79,18,19,Jits_Linear_5,3,5,80,127,1814615380
79,18,19,Jits_Linear_5,4,1,48,31,1814632804
79,18,19,Jits_Linear_5,0,5,63,98,1815224792
79,18,19,Jits_Linear_5,1,1,48,38,1815227540
79,18,19,Jits_Linear_5,2,5,80,127,1815234908
79,18,19,Jits_Linear_5,3,5,56,103,1815255368
79,18,19,Jits_Linear_5,0,5,63,98,1815914952
79,18,19,Jits_Linear_5,1,1,48,46,1815920164
79,18,19,Jits_Linear_5,2,5,56,103,1815994820
79,18,19,Jits_Linear_5,3,5,80,127,1815997812
79,18,19,Jits_Linear_5,0,5,63,98,1816604936
79,18,19,Jits_Linear_5,1,1,48,34,1816610668
79,18,19,Jits_Linear_5,2,5,56,103,1816624640
79,18,19,Jits_Linear_5,3,5,80,127,1816655164
79,18,19,Jits_Linear_5,0,1,48,42,1817256552
79,18,19,Jits_Linear_5,1,5,56,103,1817295092
79,18,19,Jits_Linear_5,2,5,63,98,1817314728
79,18,19,Jits_Linear_5,3,5,80,127,1817324848
79,18,19,Jits_Linear_5,0,1,48,42,1817953464
79,18,19,Jits_Linear_5,1,5,56,103,1818015072
79,18,19,Jits_Linear_5,2,5,63,98,1818044820
79,18,19,Jits_Linear_5,3,5,80,127,1818049068
79,18,19,Jits_Linear_5,0,5,56,103,1818655008
79,18,19,Jits_Linear_5,1,1,48,43,1818664872
79,18,19,Jits_Linear_5,2,5,63,98,1818694968
79,18,19,Jits_Linear_5,3,5,80,127,1818754388
79,18,19,Jits_Linear_5,0,1,48,37,1819357060
79,18,19,Jits_Linear_5,1,5,56,103,1819364660
79,18,19,Jits_Linear_5,2,5,63,98,1819374932
79,18,19,Jits_Linear_5,3,5,80,127,1819435320
79,18,19,Jits_Linear_5,0,5,56,103,1820065088
79,18,19,Jits_Linear_5,1,1,48,45,1820068804
79,18,19,Jits_Linear_5,2,5,80,127,1820084868
79,18,19,Jits_Linear_5,3,5,63,98,1820115368
79,18,19,Jits_Linear_5,0,5,80,127,1820764780
79,18,19,Jits_Linear_5,1,1,48,42,1820774752
79,18,19,Jits_Linear_5,2,5,56,103,1820776164
79,18,19,Jits_Linear_5,3,5,63,98,1820795204
79,18,19,Jits_Linear_5,0,5,63,98,1821454776
79,18,19,Jits_Linear_5,1,1,48,37,1821456188
79,18,19,Jits_Linear_5,2,5,80,127,1821534816
79,18,19,Jits_Linear_5,3,5,56,103,1821544792
79,18,19,Jits_Linear_5,0,1,48,38,1822182208
79,18,19,Jits_Linear_5,1,5,80,127,1822214688
79,18,19,Jits_Linear_5,2,5,56,103,1822235000
79,18,19,Jits_Linear_5,3,5,63,98,1822238068
79,18,19,Jits_Linear_5,0,1,48,39,1822881732
79,18,19,Jits_Linear_5,1,5,63,98,1822894656
79,18,19,Jits_Linear_5,2,5,80,127,1822898020
79,18,19,Jits_Linear_5,3,5,56,103,1822954824
79,18,19,Jits_Linear_5,0,1,48,43,1823582000
79,18,19,Jits_Linear_5,1,5,56,103,1823584736
79,18,19,Jits_Linear_5,2,5,80,127,1823594860
79,18,19,Jits_Linear_5,3,5,63,98,1823634800
79,18,19,Jits_Linear_5,0,1,48,34,1824242864
79,18,19,Jits_Linear_5,1,5,56,103,1824274876
79,18,19,Jits_Linear_5,2,5,63,98,1824335368
79,18,19,Jits_Linear_5,3,5,80,127,1824344728
79,18,19,Jits_Linear_5,0,1,48,32,1824971072
79,18,19,Jits_Linear_5,1,5,63,98,1824994632
79,18,19,Jits_Linear_5,2,5,80,127,1825034724
79,18,19,Jits_Linear_5,3,5,56,103,1825074572
79,18,19,Jits_Linear_5,0,1,48,35,1825649244
79,18,19,Jits_Linear_5,1,5,56,103,1825705468
79,18,19,Jits_Linear_5,2,5,63,98,1825785404
79,18,19,Jits_Linear_5,3,5,80,127,1825788544
79,18,19,Jits_Linear_5,0,1,48,37,1826406236
79,18,19,Jits_Linear_5,1,5,80,127,1826475420
79,18,19,Jits_Linear_5,2,5,56,103,1826505096
79,18,19,Jits_Linear_5,3,5,63,98,1826509044
79,18,19,Jits_Linear_5,0,1,48,38,1827089020
79,18,19,Jits_Linear_5,1,5,56,103,1827155312
79,18,19,Jits_Linear_5,2,5,80,127,1827174652
79,18,19,Jits_Linear_5,3,5,63,98,1827214648
79,18,19,Jits_Linear_5,0,1,48,36,1827811920
79,18,19,Jits_Linear_5,1,5,80,127,1827854664
79,18,19,Jits_Linear_5,2,5,63,98,1827875048
79,18,19,Jits_Linear_5,3,5,56,103,1827934476
79,18,19,Jits_Linear_5,0,1,48,39,1828488448
79,18,19,Jits_Linear_5,1,5,63,98,1828584964
79,18,19,Jits_Linear_5,2,5,56,103,1828595012
79,18,19,Jits_Linear_5,3,5,80,127,1828645364
79,18,19,Jits_Linear_5,0,1,48,40,1829245368
79,18,19,Jits_Linear_5,1,5,56,103,1829294620
79,18,19,Jits_Linear_5,2,5,63,98,1829314856
79,18,19,Jits_Linear_5,3,5,80,127,1829325128
79,18,19,Jits_Linear_5,0,1,48,45,1830013520
79,18,19,Jits_Linear_5,1,5,56,103,1830015344
79,18,19,Jits_Linear_5,2,5,63,98,1830018412
79,18,19,Jits_Linear_5,3,5,80,127,1830034832
79,18,19,Jits_Linear_5,0,1,48,24,1830701160
79,18,19,Jits_Linear_5,1,5,63,98,1830785508
79,18,19,Jits_Linear_5,2,5,56,103,1830815024
79,18,19,Jits_Linear_5,3,5,80,127,1830844776
79,18,19,Jits_Linear_5,0,1,48,38,1831445504
79,18,19,Jits_Linear_5,1,5,80,127,1831474676
79,18,19,Jits_Linear_5,2,5,56,103,1831564676
79,18,19,Jits_Linear_5,3,5,63,98,1831567816
79,18,19,Jits_Linear_5,0,5,56,103,1832204696
79,18,19,Jits_Linear_5,1,5,80,127,1832207760
79,18,19,Jits_Linear_5,2,1,48,34,1832256460
79,18,19,Jits_Linear_5,3,5,63,98,1832284584
79,18,19,Jits_Linear_5,0,5,80,127,1832934720
79,18,19,Jits_Linear_5,1,5,63,98,1832995412
79,18,19,Jits_Linear_5,2,1,48,37,1832998828
79,18,19,Jits_Linear_5,3,5,56,103,1833024884
79,18,19,Jits_Linear_5,0,5,63,98,1833664756
79,18,19,Jits_Linear_5,1,5,80,127,1833675252
79,18,19,Jits_Linear_5,2,1,48,40,1833709684
79,18,19,Jits_Linear_5,3,5,56,103,1833744852
79,18,19,Jits_Linear_5,0,1,48,43,1834360864
79,18,19,Jits_Linear_5,1,5,56,103,1834414396
79,18,19,Jits_Linear_5,2,5,80,127,1834445416
79,18,19,Jits_Linear_5,3,5,63,98,1834495456
79,18,19,Jits_Linear_5,0,1,48,42,1835151648
79,18,19,Jits_Linear_5,1,5,63,98,1835194840
79,18,19,Jits_Linear_5,2,5,56,103,1835224364
79,18,19,Jits_Linear_5,3,5,80,127,1835227432
79,18,19,Jits_Linear_5,0,1,48,35,1835882872
79,18,19,Jits_Linear_5,1,5,63,98,1835945452
79,18,19,Jits_Linear_5,2,5,80,127,1835964720
79,18,19,Jits_Linear_5,3,5,56,103,1835975140
79,18,19,Jits_Linear_5,0,1,48,36,1836649596
79,18,19,Jits_Linear_5,1,5,56,103,1836694880
79,18,19,Jits_Linear_5,2,5,63,98,1836698020
79,18,19,Jits_Linear_5,3,5,80,127,1836715264
79,18,19,Jits_Linear_5,0,5,56,103,1837395304
79,18,19,Jits_Linear_5,1,5,63,98,1837404604
79,18,19,Jits_Linear_5,2,1,48,39,1837405644
79,18,19,Jits_Linear_5,3,5,80,127,1837435392
79,18,19,Jits_Linear_5,0,1,48,37,1838105196
79,18,19,Jits_Linear_5,1,5,63,98,1838165336
79,18,19,Jits_Linear_5,2,5,80,127,1838184748
79,18,19,Jits_Linear_5,3,5,56,103,1838224748
79,18,19,Jits_Linear_5,0,1,48,35,1838812300
79,18,19,Jits_Linear_5,1,5,56,103,1838944496
79,18,19,Jits_Linear_5,2,5,63,98,1838984508
79,18,19,Jits_Linear_5,3,5,80,127,1838987872
79,18,19,Jits_Linear_5,0,1,48,39,1839583368
79,18,19,Jits_Linear_5,1,5,80,127,1839634788
79,18,19,Jits_Linear_5,2,5,56,103,1839675860
79,18,19,Jits_Linear_5,3,5,63,98,1839725012
79,18,19,Jits_Linear_5,0,1,48,40,1840426592
79,18,19,Jits_Linear_5,1,5,56,103,1840444776
79,18,19,Jits_Linear_5,2,5,80,127,1840455268
79,18,19,Jits_Linear_5,3,5,63,98,1840484572
79,18,19,Jits_Linear_5,0,5,56,103,1841145332
79,18,19,Jits_Linear_5,1,1,48,35,1841157148
79,18,19,Jits_Linear_5,2,5,80,127,1841185044
79,18,19,Jits_Linear_5,3,5,63,98,1841235196
79,18,19,Jits_Linear_5,0,5,56,103,1841905036
79,18,19,Jits_Linear_5,1,5,80,127,1841945128
79,18,19,Jits_Linear_5,2,1,48,38,1841962772
79,18,19,Jits_Linear_5,3,5,63,98,1841995124
79,18,19,Jits_Linear_5,0,5,80,127,1842654476
79,18,19,Jits_Linear_5,1,1,48,45,1842677300
79,18,19,Jits_Linear_5,2,5,63,98,1842734420
79,18,19,Jits_Linear_5,3,5,56,103,1842744644
79,18,19,Jits_Linear_5,0,1,48,38,1843397508
79,18,19,Jits_Linear_5,1,5,80,127,1843464600
79,18,19,Jits_Linear_5,2,5,56,103,1843475020
79,18,19,Jits_Linear_5,3,5,63,98,1843495240
79,18,19,Jits_Linear_5,0,1,48,36,1844166716
79,18,19,Jits_Linear_5,1,5,63,98,1844194764
79,18,19,Jits_Linear_5,2,5,56,103,1844266092
79,18,19,Jits_Linear_5,3,5,80,127,1844268992
79,18,19,Jits_Linear_5,0,1,48,33,1844932004
79,18,19,Jits_Linear_5,1,5,80,127,1844954520
79,18,19,Jits_Linear_5,2,5,63,98,1845004652
79,18,19,Jits_Linear_5,3,5,56,103,1845044576
79,18,19,Jits_Linear_5,0,1,48,29,1845729684
79,18,19,Jits_Linear_5,1,5,63,98,1845764408
79,18,19,Jits_Linear_5,2,5,56,103,1845805396
79,18,19,Jits_Linear_5,3,5,80,127,1845814620
79,18,19,Jits_Linear_5,0,1,48,38,1846422532
79,18,19,Jits_Linear_5,1,5,63,98,1846525276
79,18,19,Jits_Linear_5,2,5,56,103,1846544616
79,18,19,Jits_Linear_5,3,5,80,127,1846565300
79,18,19,Jits_Linear_5,0,1,48,32,1847244348
79,18,19,Jits_Linear_5,1,5,80,127,1847255384
79,18,19,Jits_Linear_5,2,5,56,103,1847264756
79,18,19,Jits_Linear_5,3,5,63,98,1847285068
79,18,19,Jits_Linear_5,0,1,48,35,1847930968
79,18,19,Jits_Linear_5,1,5,63,98,1848055284
79,18,19,Jits_Linear_5,2,5,56,103,1848095152
79,18,19,Jits_Linear_5,3,5,80,127,1848124928
79,18,19,Jits_Linear_5,0,1,48,34,1848738912
79,18,19,Jits_Linear_5,1,5,56,103,1848834472
79,18,19,Jits_Linear_5,2,5,63,98,1848865108
79,18,19,Jits_Linear_5,3,5,80,127,1848895180
79,18,19,Jits_Linear_5,0,1,48,36,1849564764
79,18,19,Jits_Linear_5,1,5,80,127,1849585168
79,18,19,Jits_Linear_5,2,5,56,103,1849655080
79,18,19,Jits_Linear_5,3,5,63,98,1849658872
79,18,19,Jits_Linear_5,0,1,48,39,1850371160
79,18,19,Jits_Linear_5,1,5,56,103,1850374416
79,18,19,Jits_Linear_5,2,5,63,98,1850424648
79,18,19,Jits_Linear_5,3,5,80,127,1850455444
79,18,19,Jits_Linear_5,0,5,63,98,1851135224
79,18,19,Jits_Linear_5,1,5,80,127,1851138448
79,18,19,Jits_Linear_5,2,1,48,40,1851144204
79,18,19,Jits_Linear_5,3,5,56,103,1851194892
79,18,19,Jits_Linear_5,0,1,48,40,1851904916
79,18,19,Jits_Linear_5,1,5,56,103,1851945472
79,18,19,Jits_Linear_5,2,5,80,127,1851954472
79,18,19,Jits_Linear_5,3,5,63,98,1852004836
79,18,19,Jits_Linear_5,0,5,63,98,1852705016
79,18,19,Jits_Linear_5,1,1,48,40,1852705984
79,18,19,Jits_Linear_5,2,5,56,103,1852715432
79,18,19,Jits_Linear_5,3,5,80,127,1852745060
79,18,19,Jits_Linear_5,0,1,48,46,1853465192
79,18,19,Jits_Linear_5,1,5,63,98,1853525328
79,18,19,Jits_Linear_5,2,5,80,127,1853528768
79,18,19,Jits_Linear_5,3,5,56,103,1853555152
79,18,19,Jits_Linear_5,0,1,48,39,1854290968
79,18,19,Jits_Linear_5,1,5,63,98,1854335356
79,18,19,Jits_Linear_5,2,5,56,103,1854354988
79,18,19,Jits_Linear_5,3,5,80,127,1854357984
79,18,19,Jits_Linear_5,0,1,48,38,1855059336
79,18,19,Jits_Linear_5,1,5,63,98,1855084844
79,18,19,Jits_Linear_5,2,5,56,103,1855154824
79,18,19,Jits_Linear_5,3,5,80,127,1855174972
79,18,19,Jits_Linear_5,0,5,56,103,1855865140
79,18,19,Jits_Linear_5,1,1,48,39,1855868188
79,18,19,Jits_Linear_5,2,5,63,98,1855874584
79,18,19,Jits_Linear_5,3,5,80,127,1855964776
79,18,19,Jits_Linear_5,0,1,48,39,1856633648
79,18,19,Jits_Linear_5,1,5,56,103,1856675328
79,18,19,Jits_Linear_5,2,5,80,127,1856715192
79,18,19,Jits_Linear_5,3,5,63,98,1856725392
79,18,19,Jits_Linear_5,0,1,48,34,1857402380
79,18,19,Jits_Linear_5,1,5,56,103,1857495684
79,18,19,Jits_Linear_5,2,5,63,98,1857524988
79,18,19,Jits_Linear_5,3,5,80,127,1857554664
79,18,19,Jits_Linear_5,0,5,80,127,1858255096
79,18,19,Jits_Linear_5,1,1,48,40,1858257036
79,18,19,Jits_Linear_5,2,5,63,98,1858295032
79,18,19,Jits_Linear_5,3,5,56,103,1858314744
79,18,19,Jits_Linear_5,0,1,48,27,1859046004
79,18,19,Jits_Linear_5,1,5,56,103,1859094880
79,18,19,Jits_Linear_5,2,5,80,127,1859115492
79,18,19,Jits_Linear_5,3,5,63,98,1859134780
79,18,19,Jits_Linear_5,0,1,48,38,1859834916
79,18,19,Jits_Linear_5,1,5,63,98,1859864908
79,18,19,Jits_Linear_5,2,5,56,103,1859875180
79,18,19,Jits_Linear_5,3,5,80,127,1859934684
79,18,19,Jits_Linear_5,0,1,48,39,1860559748
79,18,19,Jits_Linear_5,1,5,56,103,1860674952
79,18,19,Jits_Linear_5,2,5,63,98,1860744636
79,18,19,Jits_Linear_5,3,5,80,127,1860765096
79,18,19,Jits_Linear_5,0,1,48,40,1861482892
79,18,19,Jits_Linear_5,1,5,56,103,1861484856
79,18,19,Jits_Linear_5,2,5,63,98,1861514532
79,18,19,Jits_Linear_5,3,5,80,127,1861554696
79,18,19,Jits_Linear_5,0,5,63,98,1862284632
79,18,19,Jits_Linear_5,1,1,48,26,1862323120
79,18,19,Jits_Linear_5,2,5,56,103,1862334980
79,18,19,Jits_Linear_5,3,5,80,127,1862345028
79,18,19,Jits_Linear_5,0,1,48,48,1863128792
79,18,19,Jits_Linear_5,1,5,56,103,1863134668
79,18,19,Jits_Linear_5,2,5,63,98,1863184872
79,18,19,Jits_Linear_5,3,5,80,127,1863194920
79,18,19,Jits_Linear_5,0,1,48,44,1863913452
79,18,19,Jits_Linear_5,1,5,56,103,1863914960
79,18,19,Jits_Linear_5,2,5,63,98,1863925380
79,18,19,Jits_Linear_5,3,5,80,127,1864004976
79,18,19,Jits_Linear_5,0,9999,9999,9999,1755132996
79,18,19,Jits_Linear_5,1,9999,9999,9999,1755612260
79,18,19,Jits_Linear_5,2,9999,9999,9999,1756092496
79,18,19,Jits_Linear_5,3,9999,9999,9999,1756572776
79,18,19,Jits_Linear_5,4,9999,9999,9999,1757052988
79,18,19,Jits_Linear_5,5,9999,9999,9999,1757542492
79,18,19,Jits_Linear_5,6,9999,9999,9999,1758032964
79,18,19,Jits_Linear_5,7,9999,9999,9999,1758522452
79,18,19,Jits_Linear_5,8,9999,9999,9999,1759012936
79,18,19,Jits_Linear_5,9,9999,9999,9999,1759502452
79,18,19,Jits_Linear_5,10,9999,9999,9999,1760002152
79,18,19,Jits_Linear_5,11,9999,9999,9999,1760502904
79,18,19,Jits_Linear_5,12,9999,9999,9999,1761002592
79,18,19,Jits_Linear_5,13,9999,9999,9999,1761502276
79,18,19,Jits_Linear_5,14,9999,9999,9999,1762003012
79,18,19,Jits_Linear_5,15,9999,9999,9999,1762512960
79,18,19,Jits_Linear_5,16,9999,9999,9999,1763022912
79,18,19,Jits_Linear_5,17,9999,9999,9999,1763532864
79,18,19,Jits_Linear_5,18,9999,9999,9999,1764042812
79,18,19,Jits_Linear_5,19,9999,9999,9999,1764552768
79,18,19,Jits_Linear_5,20,9999,9999,9999,1765072984
79,18,19,Jits_Linear_5,21,9999,9999,9999,1765592152
79,18,19,Jits_Linear_5,22,9999,9999,9999,1766112368
79,18,19,Jits_Linear_5,23,9999,9999,9999,1766632508
79,18,19,Jits_Linear_5,24,9999,9999,9999,1767152740
79,18,19,Jits_Linear_5,25,9999,9999,9999,1767682108
79,18,19,Jits_Linear_5,26,9999,9999,9999,1768212588
79,18,19,Jits_Linear_5,27,9999,9999,9999,1768743016
79,18,19,Jits_Linear_5,28,9999,9999,9999,1769272380
79,18,19,Jits_Linear_5,29,9999,9999,9999,1769802872
79,18,19,Jits_Linear_5,30,9999,9999,9999,1770342492
79,18,19,Jits_Linear_5,31,9999,9999,9999,1770882112
79,18,19,Jits_Linear_5,32,9999,9999,9999,1771422776
79,18,19,Jits_Linear_5,33,9999,9999,9999,1771962472
79,18,19,Jits_Linear_5,34,9999,9999,9999,1772502092
79,18,19,Jits_Linear_5,35,9999,9999,9999,1773053024
79,18,19,Jits_Linear_5,36,9999,9999,9999,1773602900
79,18,19,Jits_Linear_5,37,9999,9999,9999,1774152812
79,18,19,Jits_Linear_5,38,9999,9999,9999,1774702696
79,18,19,Jits_Linear_5,39,9999,9999,9999,1775252580
79,18,19,Jits_Linear_5,40,9999,9999,9999,1775812732
79,18,19,Jits_Linear_5,41,9999,9999,9999,1776372808
79,18,19,Jits_Linear_5,42,9999,9999,9999,1776932968
79,18,19,Jits_Linear_5,43,9999,9999,9999,1777493064
79,18,19,Jits_Linear_5,44,9999,9999,9999,1778052164
79,18,19,Jits_Linear_5,45,9999,9999,9999,1778622568
79,18,19,Jits_Linear_5,46,9999,9999,9999,1779192904
79,18,19,Jits_Linear_5,47,9999,9999,9999,1779762280
79,18,19,Jits_Linear_5,48,9999,9999,9999,1780332636
79,18,19,Jits_Linear_5,49,9999,9999,9999,1780902996
79,18,19,Jits_Linear_5,50,9999,9999,9999,1781482616
79,18,19,Jits_Linear_5,51,9999,9999,9999,1782062184
79,18,19,Jits_Linear_5,52,9999,9999,9999,1782642816
79,18,19,Jits_Linear_5,53,9999,9999,9999,1783222372
79,18,19,Jits_Linear_5,54,9999,9999,9999,1783802976
79,18,19,Jits_Linear_5,55,9999,9999,9999,1784392760
79,18,19,Jits_Linear_5,56,9999,9999,9999,1784982652
79,18,19,Jits_Linear_5,57,9999,9999,9999,1785572460
79,18,19,Jits_Linear_5,58,9999,9999,9999,1786162280
79,18,19,Jits_Linear_5,59,9999,9999,9999,1786752104
79,18,19,Jits_Linear_5,60,9999,9999,9999,1787352128
79,18,19,Jits_Linear_5,61,9999,9999,9999,1787952200
79,18,19,Jits_Linear_5,62,9999,9999,9999,1788552304
79,18,19,Jits_Linear_5,63,9999,9999,9999,1789152380
79,18,19,Jits_Linear_5,64,9999,9999,9999,1789752388
79,18,19,Jits_Linear_5,65,9999,9999,9999,1790362748
79,18,19,Jits_Linear_5,66,9999,9999,9999,1790973024
79,18,19,Jits_Linear_5,67,9999,9999,9999,1791582332
79,18,19,Jits_Linear_5,68,9999,9999,9999,1792192620
79,18,19,Jits_Linear_5,69,9999,9999,9999,1792802896
79,18,19,Jits_Linear_5,70,9999,9999,9999,1793422396
79,18,19,Jits_Linear_5,71,9999,9999,9999,1794043004
79,18,19,Jits_Linear_5,72,9999,9999,9999,1794662512
79,18,19,Jits_Linear_5,73,9999,9999,9999,1795283044
79,18,19,Jits_Linear_5,74,9999,9999,9999,1795902556
79,18,19,Jits_Linear_5,75,9999,9999,9999,1796532304
79,18,19,Jits_Linear_5,76,9999,9999,9999,1797163120
79,18,19,Jits_Linear_5,77,9999,9999,9999,1797803088
79,18,19,Jits_Linear_5,78,9999,9999,9999,1798443116
79,18,19,Jits_Linear_5,79,9999,9999,9999,1799083096
79,18,19,Jits_Linear_5,80,9999,9999,9999,1799723112
79,18,19,Jits_Linear_5,81,9999,9999,9999,1800363080
79,18,19,Jits_Linear_5,82,9999,9999,9999,1801003092
79,18,19,Jits_Linear_5,83,9999,9999,9999,1801643136
79,18,19,Jits_Linear_5,84,9999,9999,9999,1802283096
79,18,19,Jits_Linear_5,85,9999,9999,9999,1802942540
79,18,19,Jits_Linear_5,86,9999,9999,9999,1803592764
79,18,19,Jits_Linear_5,87,9999,9999,9999,1804243016
79,18,19,Jits_Linear_5,88,9999,9999,9999,1804892272
79,18,19,Jits_Linear_5,89,9999,9999,9999,1805542472
79,18,19,Jits_Linear_5,90,9999,9999,9999,1806202964
79,18,19,Jits_Linear_5,91,9999,9999,9999,1806862452
79,18,19,Jits_Linear_5,92,9999,9999,9999,1807522944
79,18,19,Jits_Linear_5,93,9999,9999,9999,1808182364
79,18,19,Jits_Linear_5,94,9999,9999,9999,1808842848
79,18,19,Jits_Linear_5,95,9999,9999,9999,1809512556
79,18,19,Jits_Linear_5,96,9999,9999,9999,1810182240
79,18,19,Jits_Linear_5,97,9999,9999,9999,1810852920
79,18,19,Jits_Linear_5,98,9999,9999,9999,1811522628
79,18,19,Jits_Linear_5,99,9999,9999,9999,1812192380
79,18,19,Jits_Linear_5,100,9999,9999,9999,1812872280
79,18,19,Jits_Linear_5,101,9999,9999,9999,1813552228
79,18,19,Jits_Linear_5,102,9999,9999,9999,1814232180
79,18,19,Jits_Linear_5,103,9999,9999,9999,1814912076
79,18,19,Jits_Linear_5,104,9999,9999,9999,1815593060
79,18,19,Jits_Linear_5,105,9999,9999,9999,1816282172
79,18,19,Jits_Linear_5,106,9999,9999,9999,1816972408
79,18,19,Jits_Linear_5,107,9999,9999,9999,1817662564
79,18,19,Jits_Linear_5,108,9999,9999,9999,1818352700
79,18,19,Jits_Linear_5,109,9999,9999,9999,1819042936
79,18,19,Jits_Linear_5,110,9999,9999,9999,1819742328
79,18,19,Jits_Linear_5,111,9999,9999,9999,1820442724
79,18,19,Jits_Linear_5,112,9999,9999,9999,1821142112
79,18,19,Jits_Linear_5,113,9999,9999,9999,1821842556
79,18,19,Jits_Linear_5,114,9999,9999,9999,1822542976
79,18,19,Jits_Linear_5,115,9999,9999,9999,1823252588
79,18,19,Jits_Linear_5,116,9999,9999,9999,1823962232
79,18,19,Jits_Linear_5,117,9999,9999,9999,1824672848
79,18,19,Jits_Linear_5,118,9999,9999,9999,1825382492
79,18,19,Jits_Linear_5,119,9999,9999,9999,1826092100
79,18,19,Jits_Linear_5,120,9999,9999,9999,1826813048
79,18,19,Jits_Linear_5,121,9999,9999,9999,1827532880
79,18,19,Jits_Linear_5,122,9999,9999,9999,1828252780
79,18,19,Jits_Linear_5,123,9999,9999,9999,1828972612
79,18,19,Jits_Linear_5,124,9999,9999,9999,1829692512
79,18,19,Jits_Linear_5,125,9999,9999,9999,1830422640
79,18,19,Jits_Linear_5,126,9999,9999,9999,1831152740
79,18,19,Jits_Linear_5,127,9999,9999,9999,1831882832
79,18,19,Jits_Linear_5,128,9999,9999,9999,1832612988
79,18,19,Jits_Linear_5,129,9999,9999,9999,1833343096
79,18,19,Jits_Linear_5,130,9999,9999,9999,1834082420
79,18,19,Jits_Linear_5,131,9999,9999,9999,1834822780
79,18,19,Jits_Linear_5,132,9999,9999,9999,1835563108
79,18,19,Jits_Linear_5,133,9999,9999,9999,1836312684
79,18,19,Jits_Linear_5,134,9999,9999,9999,1837053032
79,18,19,Jits_Linear_5,135,9999,9999,9999,1837802604
79,18,19,Jits_Linear_5,136,9999,9999,9999,1838552120
79,18,19,Jits_Linear_5,137,9999,9999,9999,1839302740
79,18,19,Jits_Linear_5,138,9999,9999,9999,1840052312
79,18,19,Jits_Linear_5,139,9999,9999,9999,1840802936
79,18,19,Jits_Linear_5,140,9999,9999,9999,1841562700
79,18,19,Jits_Linear_5,141,9999,9999,9999,1842322556
79,18,19,Jits_Linear_5,142,9999,9999,9999,1843082336
79,18,19,Jits_Linear_5,143,9999,9999,9999,1843842116
79,18,19,Jits_Linear_5,144,9999,9999,9999,1844602992
79,18,19,Jits_Linear_5,145,9999,9999,9999,1845373020
79,18,19,Jits_Linear_5,146,9999,9999,9999,1846143044
79,18,19,Jits_Linear_5,147,9999,9999,9999,1846912100
79,18,19,Jits_Linear_5,148,9999,9999,9999,1847682120
79,18,19,Jits_Linear_5,149,9999,9999,9999,1848452152
79,18,19,Jits_Linear_5,150,9999,9999,9999,1849232444
79,18,19,Jits_Linear_5,151,9999,9999,9999,1850012772
79,18,19,Jits_Linear_5,152,9999,9999,9999,1850793064
79,18,19,Jits_Linear_5,153,9999,9999,9999,1851572292
79,18,19,Jits_Linear_5,154,9999,9999,9999,1852352584
79,18,19,Jits_Linear_5,155,9999,9999,9999,1853142088
79,18,19,Jits_Linear_5,156,9999,9999,9999,1853932628
79,18,19,Jits_Linear_5,157,9999,9999,9999,1854722128
79,18,19,Jits_Linear_5,158,9999,9999,9999,1855512680
79,18,19,Jits_Linear_5,159,9999,9999,9999,1856302188
79,18,19,Jits_Linear_5,160,9999,9999,9999,1857102964
79,18,19,Jits_Linear_5,161,9999,9999,9999,1857902664
79,18,19,Jits_Linear_5,162,9999,9999,9999,1858702428
79,18,19,Jits_Linear_5,163,9999,9999,9999,1859502140
79,18,19,Jits_Linear_5,164,9999,9999,9999,1860302960
79,18,19,Jits_Linear_5,165,9999,9999,9999,1861112920
79,18,19,Jits_Linear_5,166,9999,9999,9999,1861922880
79,18,19,Jits_Linear_5,167,9999,9999,9999,1862732860
79,18,19,Jits_Linear_5,168,9999,9999,9999,1863542900
79,18,19,Jits_Linear_5,169,9999,9999,9999,1864352860
79,19,18,Jits_Linear_8,0,5,56,103,1874417124
79,19,18,Jits_Linear_8,1,5,63,98,1874420148
79,19,18,Jits_Linear_8,2,5,80,127,1874423568
79,19,18,Jits_Linear_8,0,5,56,103,1875237284
79,19,18,Jits_Linear_8,1,5,63,98,1875240380
79,19,18,Jits_Linear_8,2,5,80,127,1875243428
79,19,18,Jits_Linear_8,0,5,80,127,1875997220
79,19,18,Jits_Linear_8,1,1,48,27,1876007760
79,19,18,Jits_Linear_8,2,5,63,98,1876087376
79,19,18,Jits_Linear_8,3,5,56,103,1876097500
79,19,18,Jits_Linear_8,0,5,56,103,1876836576
79,19,18,Jits_Linear_8,1,5,63,98,1876847072
79,19,18,Jits_Linear_8,2,1,48,34,1876935008
79,19,18,Jits_Linear_8,3,5,80,127,1876937196
79,19,18,Jits_Linear_8,0,5,63,98,1877627200
79,19,18,Jits_Linear_8,1,5,80,127,1877656804
79,19,18,Jits_Linear_8,2,1,48,37,1877679180
79,19,18,Jits_Linear_8,3,5,56,103,1877686620
79,19,18,Jits_Linear_8,0,5,56,103,1878446428
79,19,18,Jits_Linear_8,1,1,48,32,1878450068
79,19,18,Jits_Linear_8,2,5,80,127,1878546732
79,19,18,Jits_Linear_8,3,5,63,98,1878597108
79,19,18,Jits_Linear_8,0,5,56,103,1879256388
79,19,18,Jits_Linear_8,1,5,80,127,1879306592
79,19,18,Jits_Linear_8,2,5,63,98,1879346532
79,19,18,Jits_Linear_8,3,1,48,39,1879395904
79,19,18,Jits_Linear_8,0,5,80,127,1880097284
79,19,18,Jits_Linear_8,1,5,63,98,1880126764
79,19,18,Jits_Linear_8,2,1,48,35,1880169288
79,19,18,Jits_Linear_8,3,5,56,103,1880196584
79,19,18,Jits_Linear_8,0,5,63,98,1880937012
79,19,18,Jits_Linear_8,1,5,56,103,1880966468
79,19,18,Jits_Linear_8,2,1,48,37,1880969208
79,19,18,Jits_Linear_8,3,5,80,127,1881027220
79,19,18,Jits_Linear_8,0,5,56,103,1881687468
79,19,18,Jits_Linear_8,1,5,80,127,1881690460
79,19,18,Jits_Linear_8,2,1,48,35,1881758992
79,19,18,Jits_Linear_8,3,5,63,98,1881807188
79,19,18,Jits_Linear_8,0,1,48,34,1882537540
79,19,18,Jits_Linear_8,1,5,56,103,1882577200
79,19,18,Jits_Linear_8,2,5,80,127,1882617068
79,19,18,Jits_Linear_8,3,5,63,98,1882626516
79,19,18,Jits_Linear_8,0,5,56,103,1883337256
79,19,18,Jits_Linear_8,1,5,80,127,1883356596
79,19,18,Jits_Linear_8,2,1,48,34,1883380392
79,19,18,Jits_Linear_8,3,5,63,98,1883437360
79,19,18,Jits_Linear_8,0,5,80,127,1884126616
79,19,18,Jits_Linear_8,1,1,48,37,1884175220
79,19,18,Jits_Linear_8,2,5,56,103,1884227184
79,19,18,Jits_Linear_8,3,5,63,98,1884237156
79,19,18,Jits_Linear_8,0,5,63,98,1884896500
79,19,18,Jits_Linear_8,1,5,80,127,1884957264
79,19,18,Jits_Linear_8,2,5,56,103,1884967312
79,19,18,Jits_Linear_8,3,1,48,34,1885006948
79,19,18,Jits_Linear_8,0,5,56,103,1885697372
79,19,18,Jits_Linear_8,1,5,63,98,1885767004
79,19,18,Jits_Linear_8,2,5,80,127,1885770372
79,19,18,Jits_Linear_8,3,1,48,35,1885803156
79,19,18,Jits_Linear_8,0,5,63,98,1886527048
79,19,18,Jits_Linear_8,1,5,56,103,1886576952
79,19,18,Jits_Linear_8,2,5,80,127,1886580092
79,19,18,Jits_Linear_8,3,1,48,37,1886581132
79,19,18,Jits_Linear_8,0,5,56,103,1887277392
79,19,18,Jits_Linear_8,1,5,80,127,1887280532
79,19,18,Jits_Linear_8,2,1,48,36,1887357404
79,19,18,Jits_Linear_8,3,5,63,98,1887366496
79,19,18,Jits_Linear_8,0,5,63,98,1888107068
79,19,18,Jits_Linear_8,1,1,48,35,1888117836
79,19,18,Jits_Linear_8,2,5,56,103,1888196900
79,19,18,Jits_Linear_8,3,5,80,127,1888226636
79,19,18,Jits_Linear_8,0,5,56,103,1888887200
79,19,18,Jits_Linear_8,1,1,48,38,1888926360
79,19,18,Jits_Linear_8,2,5,63,98,1888986396
79,19,18,Jits_Linear_8,3,5,80,127,1889017192
79,19,18,Jits_Linear_8,0,5,63,98,1889697080
79,19,18,Jits_Linear_8,1,5,56,103,1889707352
79,19,18,Jits_Linear_8,2,1,48,35,1889731744
79,19,18,Jits_Linear_8,3,5,80,127,1889796432
79,19,18,Jits_Linear_8,0,1,48,37,1890487140
79,19,18,Jits_Linear_8,1,5,63,98,1890496828
79,19,18,Jits_Linear_8,2,5,56,103,1890576852
79,19,18,Jits_Linear_8,3,5,80,127,1890579844
79,19,18,Jits_Linear_8,0,5,80,127,1891237172
79,19,18,Jits_Linear_8,1,5,63,98,1891256736
79,19,18,Jits_Linear_8,2,1,48,37,1891297844
79,19,18,Jits_Linear_8,3,5,56,103,1891317120
79,19,18,Jits_Linear_8,0,5,56,103,1892056572
79,19,18,Jits_Linear_8,1,5,63,98,1892076956
79,19,18,Jits_Linear_8,2,5,80,127,1892080244
79,19,18,Jits_Linear_8,3,1,48,40,1892095440
79,19,18,Jits_Linear_8,0,5,63,98,1892777216
79,19,18,Jits_Linear_8,1,1,48,35,1892829780
79,19,18,Jits_Linear_8,2,5,80,127,1892857080
79,19,18,Jits_Linear_8,3,5,56,103,1892866748
79,19,18,Jits_Linear_8,0,5,63,98,1893577040
79,19,18,Jits_Linear_8,1,1,48,38,1893593640
79,19,18,Jits_Linear_8,2,5,56,103,1893596524
79,19,18,Jits_Linear_8,3,5,80,127,1893646724
79,19,18,Jits_Linear_8,0,5,80,127,1894357316
79,19,18,Jits_Linear_8,1,1,48,36,1894386660
79,19,18,Jits_Linear_8,2,5,63,98,1894397324
79,19,18,Jits_Linear_8,3,5,56,103,1894416960
79,19,18,Jits_Linear_8,0,5,56,103,1895167204
79,19,18,Jits_Linear_8,1,5,63,98,1895176500
79,19,18,Jits_Linear_8,2,1,48,37,1895183812
79,19,18,Jits_Linear_8,3,5,80,127,1895197104
79,19,18,Jits_Linear_8,0,5,56,103,1895866952
79,19,18,Jits_Linear_8,1,1,48,33,1895896748
79,19,18,Jits_Linear_8,2,5,63,98,1895956860
79,19,18,Jits_Linear_8,3,5,80,127,1896017408
79,19,18,Jits_Linear_8,0,5,80,127,1896666652
79,19,18,Jits_Linear_8,1,5,56,103,1896676920
79,19,18,Jits_Linear_8,2,5,63,98,1896747352
79,19,18,Jits_Linear_8,3,1,48,40,1896750100
79,19,18,Jits_Linear_8,0,5,63,98,1897467316
79,19,18,Jits_Linear_8,1,1,48,43,1897552716
79,19,18,Jits_Linear_8,2,5,80,127,1897557324
79,19,18,Jits_Linear_8,3,5,56,103,1897566696
79,19,18,Jits_Linear_8,0,5,63,98,1898166908
79,19,18,Jits_Linear_8,1,5,80,127,1898216888
79,19,18,Jits_Linear_8,2,5,56,103,1898277204
79,19,18,Jits_Linear_8,3,1,48,40,1898303792
79,19,18,Jits_Linear_8,0,5,56,103,1898957220
79,19,18,Jits_Linear_8,1,1,48,41,1899005460
79,19,18,Jits_Linear_8,2,5,80,127,1899007268
79,19,18,Jits_Linear_8,3,5,63,98,1899026756
79,19,18,Jits_Linear_8,0,5,56,103,1899687236
79,19,18,Jits_Linear_8,1,5,80,127,1899746952
79,19,18,Jits_Linear_8,2,1,48,35,1899779964
79,19,18,Jits_Linear_8,3,5,63,98,1899817304
79,19,18,Jits_Linear_8,0,5,56,103,1900446996
79,19,18,Jits_Linear_8,1,5,80,127,1900476672
79,19,18,Jits_Linear_8,2,5,63,98,1900506572
79,19,18,Jits_Linear_8,3,1,48,40,1900561076
79,19,18,Jits_Linear_8,0,5,56,103,1901246760
79,19,18,Jits_Linear_8,1,1,48,40,1901248248
79,19,18,Jits_Linear_8,2,5,80,127,1901267440
79,19,18,Jits_Linear_8,3,5,63,98,1901326632
79,19,18,Jits_Linear_8,0,1,48,36,1902024460
79,19,18,Jits_Linear_8,1,5,80,127,1902086460
79,19,18,Jits_Linear_8,2,5,56,103,1902096656
79,19,18,Jits_Linear_8,3,5,63,98,1902106852
79,19,18,Jits_Linear_8,0,5,56,103,1902797148
79,19,18,Jits_Linear_8,1,5,80,127,1902837088
79,19,18,Jits_Linear_8,2,1,48,30,1902853984
79,19,18,Jits_Linear_8,3,5,63,98,1902866832
79,19,18,Jits_Linear_8,0,5,56,103,1903517132
79,19,18,Jits_Linear_8,1,5,63,98,1903546732
79,19,18,Jits_Linear_8,2,5,80,127,1903586596
79,19,18,Jits_Linear_8,3,1,48,35,1903587936
79,19,18,Jits_Linear_8,0,5,80,127,1904216576
79,19,18,Jits_Linear_8,1,5,63,98,1904266704
79,19,18,Jits_Linear_8,2,5,56,103,1904287164
79,19,18,Jits_Linear_8,3,1,48,36,1904300992
79,19,18,Jits_Linear_8,0,1,48,35,1904991728
79,19,18,Jits_Linear_8,1,5,56,103,1905006896
79,19,18,Jits_Linear_8,2,5,80,127,1905076652
79,19,18,Jits_Linear_8,3,5,63,98,1905136956
79,19,18,Jits_Linear_8,0,5,80,127,1905747396
79,19,18,Jits_Linear_8,1,5,63,98,1905837684
79,19,18,Jits_Linear_8,2,5,56,103,1905856800
79,19,18,Jits_Linear_8,3,1,48,33,1905904408
79,19,18,Jits_Linear_8,0,5,63,98,1906507092
79,19,18,Jits_Linear_8,1,5,56,103,1906526504
79,19,18,Jits_Linear_8,2,5,80,127,1906566664
79,19,18,Jits_Linear_8,3,1,48,38,1906697444
79,19,18,Jits_Linear_8,0,5,80,127,1907206500
79,19,18,Jits_Linear_8,1,5,63,98,1907226888
79,19,18,Jits_Linear_8,2,1,48,40,1907253996
79,19,18,Jits_Linear_8,3,5,56,103,1907306776
79,19,18,Jits_Linear_8,0,5,63,98,1907936736
79,19,18,Jits_Linear_8,1,1,48,38,1907989976
79,19,18,Jits_Linear_8,2,5,56,103,1908047340
79,19,18,Jits_Linear_8,3,5,80,127,1908050480
79,19,18,Jits_Linear_8,0,5,63,98,1908696624
79,19,18,Jits_Linear_8,1,5,56,103,1908706816
79,19,18,Jits_Linear_8,2,5,80,127,1908709956
79,19,18,Jits_Linear_8,3,1,48,35,1908774800
79,19,18,Jits_Linear_8,0,5,56,103,1909417544
79,19,18,Jits_Linear_8,1,1,48,39,1909484732
79,19,18,Jits_Linear_8,2,5,80,127,1909537416
79,19,18,Jits_Linear_8,3,5,63,98,1909577156
79,19,18,Jits_Linear_8,0,5,56,103,1910166752
79,19,18,Jits_Linear_8,1,5,80,127,1910246772
79,19,18,Jits_Linear_8,2,5,63,98,1910267380
79,19,18,Jits_Linear_8,3,1,48,41,1910275900
79,19,18,Jits_Linear_8,0,5,56,103,1910896996
79,19,18,Jits_Linear_8,1,5,63,98,1911006612
79,19,18,Jits_Linear_8,2,5,80,127,1911009752
79,19,18,Jits_Linear_8,3,1,48,39,1911025168
79,19,18,Jits_Linear_8,0,5,56,103,1911656752
79,19,18,Jits_Linear_8,1,5,80,127,1911686652
79,19,18,Jits_Linear_8,2,5,63,98,1911706964
79,19,18,Jits_Linear_8,3,1,48,32,1911848080
79,19,18,Jits_Linear_8,0,5,63,98,1912366444
79,19,18,Jits_Linear_8,1,1,48,44,1912373480
79,19,18,Jits_Linear_8,2,5,56,103,1912376660
79,19,18,Jits_Linear_8,3,5,80,127,1912386856
79,19,18,Jits_Linear_8,0,1,48,36,1913031220
79,19,18,Jits_Linear_8,1,5,80,127,1913077180
79,19,18,Jits_Linear_8,2,5,56,103,1913127516
79,19,18,Jits_Linear_8,3,5,63,98,1913167552
79,19,18,Jits_Linear_8,0,5,80,127,1913816556
79,19,18,Jits_Linear_8,1,5,63,98,1913836868
79,19,18,Jits_Linear_8,2,1,48,34,1913852196
79,19,18,Jits_Linear_8,3,5,56,103,1913887212
79,19,18,Jits_Linear_8,0,5,80,127,1914546576
79,19,18,Jits_Linear_8,1,5,56,103,1914577224
79,19,18,Jits_Linear_8,2,5,63,98,1914646756
79,19,18,Jits_Linear_8,3,1,48,39,1914656692
79,19,18,Jits_Linear_8,0,1,48,41,1915299712
79,19,18,Jits_Linear_8,1,5,56,103,1915316528
79,19,18,Jits_Linear_8,2,5,80,127,1915327020
79,19,18,Jits_Linear_8,3,5,63,98,1915366812
79,19,18,Jits_Linear_8,0,5,56,103,1915947248
79,19,18,Jits_Linear_8,1,5,63,98,1915966684
79,19,18,Jits_Linear_8,2,1,48,41,1916028240
79,19,18,Jits_Linear_8,3,5,80,127,1916036432
79,19,18,Jits_Linear_8,0,5,63,98,1916686628
79,19,18,Jits_Linear_8,1,1,48,38,1916688568
79,19,18,Jits_Linear_8,2,5,80,127,1916747264
79,19,18,Jits_Linear_8,3,5,56,103,1916766452
79,19,18,Jits_Linear_8,0,5,80,127,1917387264
79,19,18,Jits_Linear_8,1,5,56,103,1917416716
79,19,18,Jits_Linear_8,2,5,63,98,1917446392
79,19,18,Jits_Linear_8,3,1,48,31,1917495164
79,19,18,Jits_Linear_8,0,5,56,103,1918096828
79,19,18,Jits_Linear_8,1,5,63,98,1918157372
79,19,18,Jits_Linear_8,2,1,48,42,1918165220
79,19,18,Jits_Linear_8,3,5,80,127,1918216484
79,19,18,Jits_Linear_8,0,5,80,127,1918827068
79,19,18,Jits_Linear_8,1,5,56,103,1918847380
79,19,18,Jits_Linear_8,2,1,48,36,1918860688
79,19,18,Jits_Linear_8,3,5,63,98,1918917204
79,19,18,Jits_Linear_8,0,5,80,127,1919536540
79,19,18,Jits_Linear_8,1,5,63,98,1919557248
79,19,18,Jits_Linear_8,2,1,48,40,1919587072
79,19,18,Jits_Linear_8,3,5,56,103,1919588188
79,19,18,Jits_Linear_8,0,5,80,127,1920226776
79,19,18,Jits_Linear_8,1,5,63,98,1920247084
79,19,18,Jits_Linear_8,2,1,48,36,1920291256
79,19,18,Jits_Linear_8,3,5,56,103,1920306572
79,19,18,Jits_Linear_8,0,1,48,41,1920902104
79,19,18,Jits_Linear_8,1,5,80,127,1920927236
79,19,18,Jits_Linear_8,2,5,56,103,1921026428
79,19,18,Jits_Linear_8,3,5,63,98,1921057296
79,19,18,Jits_Linear_8,0,5,63,98,1921617388
79,19,18,Jits_Linear_8,1,5,80,127,1921666320
79,19,18,Jits_Linear_8,2,1,48,40,1921682696
79,19,18,Jits_Linear_8,3,5,56,103,1921686996
79,19,18,Jits_Linear_8,0,5,80,127,1922356608
79,19,18,Jits_Linear_8,1,5,56,103,1922387256
79,19,18,Jits_Linear_8,2,1,48,36,1922388160
79,19,18,Jits_Linear_8,3,5,63,98,1922391512
79,19,18,Jits_Linear_8,0,1,48,33,1923073812
79,19,18,Jits_Linear_8,1,5,63,98,1923086664
79,19,18,Jits_Linear_8,2,5,56,103,1923126628
79,19,18,Jits_Linear_8,3,5,80,127,1923147012
79,19,18,Jits_Linear_8,0,5,80,127,1923726844
79,19,18,Jits_Linear_8,1,1,48,35,1923786312
79,19,18,Jits_Linear_8,2,5,63,98,1923806564
79,19,18,Jits_Linear_8,3,5,56,103,1923846428
79,19,18,Jits_Linear_8,0,5,63,98,1924437244
79,19,18,Jits_Linear_8,1,5,80,127,1924517192
79,19,18,Jits_Linear_8,2,1,48,32,1924531248
79,19,18,Jits_Linear_8,3,5,56,103,1924536596
79,19,18,Jits_Linear_8,0,5,56,103,1925166408
79,19,18,Jits_Linear_8,1,5,63,98,1925176628
79,19,18,Jits_Linear_8,2,1,48,39,1925206500
79,19,18,Jits_Linear_8,3,5,80,127,1925216708
79,19,18,Jits_Linear_8,0,5,56,103,1925776700
79,19,18,Jits_Linear_8,1,5,80,127,1925779692
79,19,18,Jits_Linear_8,2,1,48,39,1925842296
79,19,18,Jits_Linear_8,3,5,63,98,1925917096
79,19,18,Jits_Linear_8,0,5,56,103,1926456656
79,19,18,Jits_Linear_8,1,5,63,98,1926547016
79,19,18,Jits_Linear_8,2,1,48,39,1926585432
79,19,18,Jits_Linear_8,3,5,80,127,1926616464
79,19,18,Jits_Linear_8,0,1,48,43,1927206628
79,19,18,Jits_Linear_8,1,5,63,98,1927216612
79,19,18,Jits_Linear_8,2,5,80,127,1927220004
79,19,18,Jits_Linear_8,3,5,56,103,1927277028
79,19,18,Jits_Linear_8,0,1,48,41,1927906588
79,19,18,Jits_Linear_8,1,5,80,127,1927937404
79,19,18,Jits_Linear_8,2,5,56,103,1927956964
79,19,18,Jits_Linear_8,3,5,63,98,1927967236
79,19,18,Jits_Linear_8,0,5,56,103,1928536376
79,19,18,Jits_Linear_8,1,5,63,98,1928546796
79,19,18,Jits_Linear_8,2,5,80,127,1928617228
79,19,18,Jits_Linear_8,3,1,48,31,1928634048
79,19,18,Jits_Linear_8,0,5,80,127,1929217372
79,19,18,Jits_Linear_8,1,1,48,38,1929247684
79,19,18,Jits_Linear_8,2,5,56,103,1929266836
79,19,18,Jits_Linear_8,3,5,63,98,1929316964
79,19,18,Jits_Linear_8,0,1,48,42,1929938736
79,19,18,Jits_Linear_8,1,5,56,103,1929977196
79,19,18,Jits_Linear_8,2,5,63,98,1929986348
79,19,18,Jits_Linear_8,3,5,80,127,1930027408
79,19,18,Jits_Linear_8,0,1,48,41,1930585288
79,19,18,Jits_Linear_8,1,5,56,103,1930596844
79,19,18,Jits_Linear_8,2,5,63,98,1930636932
79,19,18,Jits_Linear_8,3,5,80,127,1930687044
79,19,18,Jits_Linear_8,0,5,80,127,1931226516
79,19,18,Jits_Linear_8,1,1,48,35,1931273384
79,19,18,Jits_Linear_8,2,5,56,103,1931276936
79,19,18,Jits_Linear_8,3,5,63,98,1931297024
79,19,18,Jits_Linear_8,0,5,80,127,1931906484
79,19,18,Jits_Linear_8,1,1,48,35,1931939496
79,19,18,Jits_Linear_8,2,5,63,98,1931966796
79,19,18,Jits_Linear_8,3,5,56,103,1932046652
79,19,18,Jits_Linear_8,0,5,80,127,1932556840
79,19,18,Jits_Linear_8,1,5,56,103,1932596584
79,19,18,Jits_Linear_8,2,5,63,98,1932616968
79,19,18,Jits_Linear_8,3,1,48,41,1932689376
79,19,18,Jits_Linear_8,0,5,56,103,1933276668
79,19,18,Jits_Linear_8,1,5,80,127,1933286868
79,19,18,Jits_Linear_8,2,1,48,41,1933289384
79,19,18,Jits_Linear_8,3,5,63,98,1933327020
79,19,18,Jits_Linear_8,0,1,48,42,1933972112
79,19,18,Jits_Linear_8,1,5,56,103,1934006836
79,19,18,Jits_Linear_8,2,5,63,98,1934046624
79,19,18,Jits_Linear_8,3,5,80,127,1934049840
79,19,18,Jits_Linear_8,0,5,63,98,1934556484
79,19,18,Jits_Linear_8,1,5,80,127,1934596648
79,19,18,Jits_Linear_8,2,1,48,40,1934621940
79,19,18,Jits_Linear_8,3,5,56,103,1934667096
79,19,18,Jits_Linear_8,0,5,63,98,1935206844
79,19,18,Jits_Linear_8,1,5,56,103,1935286644
79,19,18,Jits_Linear_8,2,1,48,40,1935294572
79,19,18,Jits_Linear_8,3,5,80,127,1935347028
79,19,18,Jits_Linear_8,0,5,80,127,1935876964
79,19,18,Jits_Linear_8,1,1,48,35,1935883304
79,19,18,Jits_Linear_8,2,5,63,98,1935926740
79,19,18,Jits_Linear_8,3,5,56,103,1935957312
79,19,18,Jits_Linear_8,0,1,48,32,1936517868
79,19,18,Jits_Linear_8,1,5,56,103,1936526884
79,19,18,Jits_Linear_8,2,5,63,98,1936576940
79,19,18,Jits_Linear_8,3,5,80,127,1936587060
79,19,18,Jits_Linear_8,0,1,48,35,1937138760
79,19,18,Jits_Linear_8,1,5,56,103,1937197520
79,19,18,Jits_Linear_8,2,5,63,98,1937307000
79,19,18,Jits_Linear_8,3,5,80,127,1937326340
79,19,18,Jits_Linear_8,0,5,63,98,1937846776
79,19,18,Jits_Linear_8,1,5,80,127,1937896904
79,19,18,Jits_Linear_8,2,1,48,27,1937944516
79,19,18,Jits_Linear_8,3,5,56,103,1937986832
79,19,18,Jits_Linear_8,0,5,63,98,1938486580
79,19,18,Jits_Linear_8,1,5,80,127,1938517304
79,19,18,Jits_Linear_8,2,5,56,103,1938606536
79,19,18,Jits_Linear_8,3,1,48,30,1938653624
79,19,18,Jits_Linear_8,0,5,63,98,1939136840
79,19,18,Jits_Linear_8,1,5,56,103,1939147184
79,19,18,Jits_Linear_8,2,1,48,24,1939238632
79,19,18,Jits_Linear_8,3,5,80,127,1939246600
79,19,18,Jits_Linear_8,0,1,48,37,1939772476
79,19,18,Jits_Linear_8,1,5,63,98,1939886604
79,19,18,Jits_Linear_8,2,5,80,127,1939917176
79,19,18,Jits_Linear_8,3,5,56,103,1939947000
79,19,18,Jits_Linear_8,0,1,48,28,1940524048
79,19,18,Jits_Linear_8,1,5,80,127,1940547032
79,19,18,Jits_Linear_8,2,5,63,98,1940557304
79,19,18,Jits_Linear_8,3,5,56,103,1940586832
79,19,18,Jits_Linear_8,0,5,80,127,1941086948
79,19,18,Jits_Linear_8,1,5,63,98,1941106964
79,19,18,Jits_Linear_8,2,5,56,103,1941157460
79,19,18,Jits_Linear_8,3,1,48,32,1941250480
79,19,18,Jits_Linear_8,0,1,48,37,1941752472
79,19,18,Jits_Linear_8,1,5,63,98,1941757300
79,19,18,Jits_Linear_8,2,5,80,127,1941816672
79,19,18,Jits_Linear_8,3,5,56,103,1941837056
79,19,18,Jits_Linear_8,0,5,63,98,1942357700
79,19,18,Jits_Linear_8,1,5,56,103,1942406632
79,19,18,Jits_Linear_8,2,5,80,127,1942416828
79,19,18,Jits_Linear_8,3,1,48,35,1942433804
79,19,18,Jits_Linear_8,0,5,56,103,1943027072
79,19,18,Jits_Linear_8,1,5,80,127,1943037268
79,19,18,Jits_Linear_8,2,1,48,36,1943073644
79,19,18,Jits_Linear_8,3,5,63,98,1943136784
79,19,18,Jits_Linear_8,0,5,80,127,1943627256
79,19,18,Jits_Linear_8,1,5,63,98,1943637604
79,19,18,Jits_Linear_8,2,1,48,42,1943764628
79,19,18,Jits_Linear_8,3,5,56,103,1943786988
79,19,18,Jits_Linear_8,0,5,63,98,1944267124
79,19,18,Jits_Linear_8,1,5,80,127,1944307064
79,19,18,Jits_Linear_8,2,5,56,103,1944386884
79,19,18,Jits_Linear_8,3,1,48,31,1944468064
79,19,18,Jits_Linear_8,0,5,56,103,1944886772
79,19,18,Jits_Linear_8,1,1,48,41,1944964132
79,19,18,Jits_Linear_8,2,5,80,127,1944987016
79,19,18,Jits_Linear_8,3,5,63,98,1945006576
79,19,18,Jits_Linear_8,0,1,48,36,1945539868
79,19,18,Jits_Linear_8,1,5,80,127,1945576756
79,19,18,Jits_Linear_8,2,5,56,103,1945587028
79,19,18,Jits_Linear_8,3,5,63,98,1945677096
79,19,18,Jits_Linear_8,0,5,56,103,1946206608
79,19,18,Jits_Linear_8,1,5,63,98,1946226992
79,19,18,Jits_Linear_8,2,1,48,36,1946252660
79,19,18,Jits_Linear_8,3,5,80,127,1946306932
79,19,18,Jits_Linear_8,0,5,63,98,1946776804
79,19,18,Jits_Linear_8,1,1,48,39,1946842628
79,19,18,Jits_Linear_8,2,5,56,103,1946866928
79,19,18,Jits_Linear_8,3,5,80,127,1946870076
79,19,18,Jits_Linear_8,0,5,56,103,1947427060
79,19,18,Jits_Linear_8,1,1,48,38,1947433248
79,19,18,Jits_Linear_8,2,5,80,127,1947486572
79,19,18,Jits_Linear_8,3,5,63,98,1947496696
79,19,18,Jits_Linear_8,0,5,80,127,1948096924
79,19,18,Jits_Linear_8,1,1,48,31,1948100044
79,19,18,Jits_Linear_8,2,5,56,103,1948107112
79,19,18,Jits_Linear_8,3,5,63,98,1948110400
79,19,18,Jits_Linear_8,0,1,48,43,1948669764
79,19,18,Jits_Linear_8,1,5,56,103,1948676464
79,19,18,Jits_Linear_8,2,5,80,127,1948686884
79,19,18,Jits_Linear_8,3,5,63,98,1948707268
79,19,18,Jits_Linear_8,0,1,48,37,1949234884
79,19,18,Jits_Linear_8,1,5,63,98,1949267420
79,19,18,Jits_Linear_8,2,5,80,127,1949327344
79,19,18,Jits_Linear_8,3,5,56,103,1949376876
79,19,18,Jits_Linear_8,0,1,48,38,1949926956
79,19,18,Jits_Linear_8,1,5,63,98,1949966692
79,19,18,Jits_Linear_8,2,5,56,103,1949976812
79,19,18,Jits_Linear_8,3,5,80,127,1950027100
79,19,18,Jits_Linear_8,0,5,63,98,1950476716
79,19,18,Jits_Linear_8,1,5,80,127,1950497100
79,19,18,Jits_Linear_8,2,5,56,103,1950507520
79,19,18,Jits_Linear_8,3,1,48,34,1950616224
79,19,18,Jits_Linear_8,0,5,63,98,1951086992
79,19,18,Jits_Linear_8,1,5,80,127,1951090356
79,19,18,Jits_Linear_8,2,5,56,103,1951126780
79,19,18,Jits_Linear_8,3,1,48,33,1951233200
79,19,18,Jits_Linear_8,0,5,63,98,1951766916
79,19,18,Jits_Linear_8,1,5,80,127,1951796616
79,19,18,Jits_Linear_8,2,5,56,103,1951806884
79,19,18,Jits_Linear_8,3,1,48,31,1951921772
79,19,18,Jits_Linear_8,0,5,56,103,1952327076
79,19,18,Jits_Linear_8,1,5,80,127,1952356680
79,19,18,Jits_Linear_8,2,5,63,98,1952386356
79,19,18,Jits_Linear_8,3,1,48,27,1952508436
79,19,18,Jits_Linear_8,0,1,48,27,1952969756
79,19,18,Jits_Linear_8,1,5,63,98,1953026500
79,19,18,Jits_Linear_8,2,5,56,103,1953067472
79,19,18,Jits_Linear_8,3,5,80,127,1953070612
79,19,18,Jits_Linear_8,0,5,80,127,1953527228
79,19,18,Jits_Linear_8,1,5,56,103,1953606900
79,19,18,Jits_Linear_8,2,5,63,98,1953657324
79,19,18,Jits_Linear_8,3,1,48,18,1953705624
79,19,18,Jits_Linear_8,0,5,80,127,1954106736
79,19,18,Jits_Linear_8,1,5,56,103,1954127420
79,19,18,Jits_Linear_8,2,5,63,98,1954217404
79,19,18,Jits_Linear_8,3,1,48,30,1954288324
79,19,18,Jits_Linear_8,0,5,80,127,1954746676
79,19,18,Jits_Linear_8,1,5,63,98,1954786692
79,19,18,Jits_Linear_8,2,1,48,35,1954790488
79,19,18,Jits_Linear_8,3,5,56,103,1954826548
79,19,18,Jits_Linear_8,0,5,63,98,1955317388
79,19,18,Jits_Linear_8,1,5,80,127,1955376436
79,19,18,Jits_Linear_8,2,1,48,36,1955389368
79,19,18,Jits_Linear_8,3,5,56,103,1955407152
79,19,18,Jits_Linear_8,0,5,56,103,1955917236
79,19,18,Jits_Linear_8,1,5,80,127,1955946764
79,19,18,Jits_Linear_8,2,1,48,29,1955974540
79,19,18,Jits_Linear_8,3,5,63,98,1956037112
79,19,18,Jits_Linear_8,0,5,56,103,1956517172
79,19,18,Jits_Linear_8,1,5,80,127,1956626788
79,19,18,Jits_Linear_8,2,1,48,37,1956647440
79,19,18,Jits_Linear_8,3,5,63,98,1956656456
79,19,18,Jits_Linear_8,0,5,56,103,1957157320
79,19,18,Jits_Linear_8,1,5,63,98,1957216616
79,19,18,Jits_Linear_8,2,5,80,127,1957247488
79,19,18,Jits_Linear_8,3,1,48,38,1957252328
79,19,18,Jits_Linear_8,0,5,56,103,1957717352
79,19,18,Jits_Linear_8,1,5,63,98,1957787112
79,19,18,Jits_Linear_8,2,5,80,127,1957806300
79,19,18,Jits_Linear_8,3,1,48,34,1957828752
79,19,18,Jits_Linear_8,0,5,80,127,1958276464
79,19,18,Jits_Linear_8,1,5,63,98,1958297144
79,19,18,Jits_Linear_8,2,5,56,103,1958347196
79,19,18,Jits_Linear_8,3,1,48,33,1958398268
79,19,18,Jits_Linear_8,0,5,63,98,1958876472
79,19,18,Jits_Linear_8,1,5,80,127,1958886740
79,19,18,Jits_Linear_8,2,5,56,103,1958937312
79,19,18,Jits_Linear_8,3,1,48,31,1958995900
79,19,18,Jits_Linear_8,0,5,63,98,1959457124
79,19,18,Jits_Linear_8,1,5,80,127,1959526832
79,19,18,Jits_Linear_8,2,1,48,33,1959537972
79,19,18,Jits_Linear_8,3,5,56,103,1959547212
79,19,18,Jits_Linear_8,0,5,63,98,1960066360
79,19,18,Jits_Linear_8,1,5,80,127,1960069800
79,19,18,Jits_Linear_8,2,5,56,103,1960137236
79,19,18,Jits_Linear_8,3,1,48,28,1960163876
79,19,18,Jits_Linear_8,0,5,80,127,1960596748
79,19,18,Jits_Linear_8,1,5,56,103,1960617280
79,19,18,Jits_Linear_8,2,5,63,98,1960626504
79,19,18,Jits_Linear_8,3,1,48,35,1960704084
79,19,18,Jits_Linear_8,0,5,56,103,1961197120
79,19,18,Jits_Linear_8,1,1,48,29,1961249612
79,19,18,Jits_Linear_8,2,5,63,98,1961287128
79,19,18,Jits_Linear_8,3,5,80,127,1961290340
79,19,18,Jits_Linear_8,0,5,80,127,1961747000
79,19,18,Jits_Linear_8,1,5,56,103,1961757272
79,19,18,Jits_Linear_8,2,5,63,98,1961776932
79,19,18,Jits_Linear_8,3,1,48,33,1961842524
79,19,18,Jits_Linear_8,0,5,63,98,1962317212
79,19,18,Jits_Linear_8,1,1,48,32,1962341228
79,19,18,Jits_Linear_8,2,5,80,127,1962376700
79,19,18,Jits_Linear_8,3,5,56,103,1962387192
79,19,18,Jits_Linear_8,0,1,48,33,1962897620
79,19,18,Jits_Linear_8,1,5,63,98,1962957132
79,19,18,Jits_Linear_8,2,5,80,127,1962986956
79,19,18,Jits_Linear_8,3,5,56,103,1963026656
79,19,18,Jits_Linear_8,0,5,56,103,1963517428
79,19,18,Jits_Linear_8,1,5,80,127,1963526580
79,19,18,Jits_Linear_8,2,5,63,98,1963566444
79,19,18,Jits_Linear_8,3,1,48,32,1963580072
79,19,18,Jits_Linear_8,0,5,80,127,1964046564
79,19,18,Jits_Linear_8,1,5,56,103,1964126608
79,19,18,Jits_Linear_8,2,5,63,98,1964137100
79,19,18,Jits_Linear_8,3,1,48,33,1964156484
79,19,18,Jits_Linear_8,0,5,80,127,1964656940
79,19,18,Jits_Linear_8,1,1,48,34,1964716628
79,19,18,Jits_Linear_8,2,5,56,103,1964736952
79,19,18,Jits_Linear_8,3,5,63,98,1964747148
79,19,18,Jits_Linear_8,0,5,80,127,1965177092
79,19,18,Jits_Linear_8,1,5,56,103,1965227516
79,19,18,Jits_Linear_8,2,5,63,98,1965276448
79,19,18,Jits_Linear_8,3,1,48,34,1965307812
79,19,18,Jits_Linear_8,0,5,56,103,1965796660
79,19,18,Jits_Linear_8,1,5,63,98,1965799800
79,19,18,Jits_Linear_8,2,5,80,127,1965846860
79,19,18,Jits_Linear_8,3,1,48,38,1965857176
79,19,18,Jits_Linear_8,0,5,56,103,1966377264
79,19,18,Jits_Linear_8,1,1,48,37,1966402808
79,19,18,Jits_Linear_8,2,5,63,98,1966407108
79,19,18,Jits_Linear_8,3,5,80,127,1966417228
79,19,18,Jits_Linear_8,0,5,63,98,1966847288
79,19,18,Jits_Linear_8,1,5,56,103,1966916924
79,19,18,Jits_Linear_8,2,1,48,37,1966966672
79,19,18,Jits_Linear_8,3,5,80,127,1966968240
79,19,18,Jits_Linear_8,0,5,63,98,1967437268
79,19,18,Jits_Linear_8,1,5,56,103,1967447392
79,19,18,Jits_Linear_8,2,5,80,127,1967450532
79,19,18,Jits_Linear_8,3,1,48,39,1967504612
79,19,18,Jits_Linear_8,0,5,80,127,1967937084
79,19,18,Jits_Linear_8,1,5,56,103,1967997324
79,19,18,Jits_Linear_8,2,1,48,40,1968001416
79,19,18,Jits_Linear_8,3,5,63,98,1968087452
79,19,18,Jits_Linear_8,0,5,80,127,1968486896
79,19,18,Jits_Linear_8,1,5,56,103,1968587072
79,19,18,Jits_Linear_8,2,1,48,36,1968621880
79,19,18,Jits_Linear_8,3,5,63,98,1968627152
79,19,18,Jits_Linear_8,0,5,56,103,1969086984
79,19,18,Jits_Linear_8,1,5,63,98,1969107220
79,19,18,Jits_Linear_8,2,5,80,127,1969147308
79,19,18,Jits_Linear_8,3,1,48,35,1969189160
79,19,18,Jits_Linear_8,0,5,63,98,1969606980
79,19,18,Jits_Linear_8,1,5,56,103,1969626464
79,19,18,Jits_Linear_8,2,1,48,38,1969710040
79,19,18,Jits_Linear_8,3,5,80,127,1969727028
79,19,18,Jits_Linear_8,0,5,63,98,1970136396
79,19,18,Jits_Linear_8,1,1,48,39,1970205376
79,19,18,Jits_Linear_8,2,5,80,127,1970247004
79,19,18,Jits_Linear_8,3,5,56,103,1970277052
79,19,18,Jits_Linear_8,0,5,56,103,1970707020
79,19,18,Jits_Linear_8,1,5,63,98,1970736500
79,19,18,Jits_Linear_8,2,1,48,40,1970753996
79,19,18,Jits_Linear_8,3,5,80,127,1970786696
79,19,18,Jits_Linear_8,0,5,63,98,1971216972
79,19,18,Jits_Linear_8,1,5,56,103,1971246428
79,19,18,Jits_Linear_8,2,1,48,35,1971274284
79,19,18,Jits_Linear_8,3,5,80,127,1971296572
79,19,18,Jits_Linear_8,0,1,48,39,1971741104
79,19,18,Jits_Linear_8,1,5,56,103,1971787164
79,19,18,Jits_Linear_8,2,5,63,98,1971806504
79,19,18,Jits_Linear_8,3,5,80,127,1971886580
79,19,18,Jits_Linear_8,0,5,63,98,1972297112
79,19,18,Jits_Linear_8,1,1,48,37,1972311468
79,19,18,Jits_Linear_8,2,5,56,103,1972356376
79,19,18,Jits_Linear_8,3,5,80,127,1972387324
79,19,18,Jits_Linear_8,0,1,48,40,1972871372
79,19,18,Jits_Linear_8,1,5,56,103,1972876720
79,19,18,Jits_Linear_8,2,5,80,127,1972937040
79,19,18,Jits_Linear_8,3,5,63,98,1972977036
79,19,18,Jits_Linear_8,0,5,63,98,1973386820
79,19,18,Jits_Linear_8,1,1,48,39,1973439912
79,19,18,Jits_Linear_8,2,5,56,103,1973446908
79,19,18,Jits_Linear_8,3,5,80,127,1973516888
79,19,18,Jits_Linear_8,0,5,56,103,1973996936
79,19,18,Jits_Linear_8,1,5,63,98,1974007132
79,19,18,Jits_Linear_8,2,1,48,38,1974010272
79,19,18,Jits_Linear_8,3,5,80,127,1974011988
79,19,18,Jits_Linear_8,0,5,63,98,1974466876
79,19,18,Jits_Linear_8,1,5,56,103,1974527344
79,19,18,Jits_Linear_8,2,5,80,127,1974530336
79,19,18,Jits_Linear_8,3,1,48,36,1974565604
79,19,18,Jits_Linear_8,0,5,63,98,1974976884
79,19,18,Jits_Linear_8,1,5,80,127,1975006784
79,19,18,Jits_Linear_8,2,5,56,103,1975027020
79,19,18,Jits_Linear_8,3,1,48,38,1975058760
79,19,18,Jits_Linear_8,0,1,48,33,1975476380
79,19,18,Jits_Linear_8,1,5,56,103,1975507420
79,19,18,Jits_Linear_8,2,5,63,98,1975556580
79,19,18,Jits_Linear_8,3,5,80,127,1975637280
79,19,18,Jits_Linear_8,0,5,80,127,1976006884
79,19,18,Jits_Linear_8,1,5,63,98,1976046972
79,19,18,Jits_Linear_8,2,1,48,34,1976051288
79,19,18,Jits_Linear_8,3,5,56,103,1976066528
79,19,18,Jits_Linear_8,0,1,48,38,1976565728
79,19,18,Jits_Linear_8,1,5,56,103,1976596848
79,19,18,Jits_Linear_8,2,5,80,127,1976606968
79,19,18,Jits_Linear_8,3,5,63,98,1976626628
79,19,18,Jits_Linear_8,0,5,56,103,1977096832
79,19,18,Jits_Linear_8,1,1,48,38,1977112612
79,19,18,Jits_Linear_8,2,5,63,98,1977146904
79,19,18,Jits_Linear_8,3,5,80,127,1977176284
79,19,18,Jits_Linear_8,0,5,56,103,1977566708
79,19,18,Jits_Linear_8,1,5,63,98,1977576980
79,19,18,Jits_Linear_8,2,1,48,40,1977619356
79,19,18,Jits_Linear_8,3,5,80,127,1977626876
79,19,18,Jits_Linear_8,0,5,56,103,1978076652
79,19,18,Jits_Linear_8,1,5,80,127,1978079720
79,19,18,Jits_Linear_8,2,1,48,38,1978081360
79,19,18,Jits_Linear_8,3,5,63,98,1978237284
79,19,18,Jits_Linear_8,0,5,63,98,1978606896
79,19,18,Jits_Linear_8,1,1,48,35,1978609640
79,19,18,Jits_Linear_8,2,5,56,103,1978676748
79,19,18,Jits_Linear_8,3,5,80,127,1978716744
79,19,18,Jits_Linear_8,0,5,63,98,1979156776
79,19,18,Jits_Linear_8,1,1,48,27,1979180496
79,19,18,Jits_Linear_8,2,5,56,103,1979247004
79,19,18,Jits_Linear_8,3,5,80,127,1979250144
79,19,18,Jits_Linear_8,0,5,56,103,1979647236
79,19,18,Jits_Linear_8,1,1,48,36,1979690884
79,19,18,Jits_Linear_8,2,5,63,98,1979736568
79,19,18,Jits_Linear_8,3,5,80,127,1979746540
79,19,18,Jits_Linear_8,0,5,56,103,1980126780
79,19,18,Jits_Linear_8,1,5,63,98,1980176684
79,19,18,Jits_Linear_8,2,5,80,127,1980206660
79,19,18,Jits_Linear_8,3,1,48,30,1980222456
79,19,18,Jits_Linear_8,0,5,63,98,1980707388
79,19,18,Jits_Linear_8,1,1,48,33,1980711552
79,19,18,Jits_Linear_8,2,5,80,127,1980717504
79,19,18,Jits_Linear_8,3,5,56,103,1980776848
79,19,18,Jits_Linear_8,0,5,63,98,1981127028
79,19,18,Jits_Linear_8,1,5,80,127,1981186600
79,19,18,Jits_Linear_8,2,5,56,103,1981227512
79,19,18,Jits_Linear_8,3,1,48,27,1981237924
79,19,18,Jits_Linear_8,0,1,48,35,1981697780
79,19,18,Jits_Linear_8,1,5,56,103,1981727172
79,19,18,Jits_Linear_8,2,5,80,127,1981746612
79,19,18,Jits_Linear_8,3,5,63,98,1981766924
79,19,18,Jits_Linear_8,0,5,63,98,1982147072
79,19,18,Jits_Linear_8,1,5,56,103,1982167532
79,19,18,Jits_Linear_8,2,1,48,39,1982200920
79,19,18,Jits_Linear_8,3,5,80,127,1982207316
79,19,18,Jits_Linear_8,0,1,48,35,1982622132
79,19,18,Jits_Linear_8,1,5,63,98,1982656856
79,19,18,Jits_Linear_8,2,5,80,127,1982686608
79,19,18,Jits_Linear_8,3,5,56,103,1982706992
79,19,18,Jits_Linear_8,0,5,80,127,1983127024
79,19,18,Jits_Linear_8,1,1,48,32,1983139136
79,19,18,Jits_Linear_8,2,5,56,103,1983177144
79,19,18,Jits_Linear_8,3,5,63,98,1983236696
79,19,18,Jits_Linear_8,0,5,63,98,1983607536
79,19,18,Jits_Linear_8,1,1,48,24,1983682876
79,19,18,Jits_Linear_8,2,5,56,103,1983726888
79,19,18,Jits_Linear_8,3,5,80,127,1983756564
79,19,18,Jits_Linear_8,0,5,80,127,1984136516
79,19,18,Jits_Linear_8,1,5,63,98,1984156976
79,19,18,Jits_Linear_8,2,1,48,30,1984210512
79,19,18,Jits_Linear_8,3,5,56,103,1984226800
79,19,18,Jits_Linear_8,0,5,63,98,1984646476
79,19,18,Jits_Linear_8,1,5,56,103,1984656896
79,19,18,Jits_Linear_8,2,1,48,32,1984691628
79,19,18,Jits_Linear_8,3,5,80,127,1984736612
79,19,18,Jits_Linear_8,0,1,48,29,1985167704
79,19,18,Jits_Linear_8,1,5,56,103,1985197696
79,19,18,Jits_Linear_8,2,5,80,127,1985227000
79,19,18,Jits_Linear_8,3,5,63,98,1985237640
79,19,18,Jits_Linear_8,0,9999,9999,9999,1874824312
79,19,18,Jits_Linear_8,1,9999,9999,9999,1875644468
79,19,18,Jits_Linear_8,2,9999,9999,9999,1876464704
79,19,18,Jits_Linear_8,3,9999,9999,9999,1877284924
79,19,18,Jits_Linear_8,4,9999,9999,9999,1878104192
79,19,18,Jits_Linear_8,5,9999,9999,9999,1878914136
79,19,18,Jits_Linear_8,6,9999,9999,9999,1879724092
79,19,18,Jits_Linear_8,7,9999,9999,9999,1880534124
79,19,18,Jits_Linear_8,8,9999,9999,9999,1881344088
79,19,18,Jits_Linear_8,9,9999,9999,9999,1882155064
79,19,18,Jits_Linear_8,10,9999,9999,9999,1882965052
79,19,18,Jits_Linear_8,11,9999,9999,9999,1883764808
79,19,18,Jits_Linear_8,12,9999,9999,9999,1884564584
79,19,18,Jits_Linear_8,13,9999,9999,9999,1885364280
79,19,18,Jits_Linear_8,14,9999,9999,9999,1886165064
79,19,18,Jits_Linear_8,15,9999,9999,9999,1886954560
79,19,18,Jits_Linear_8,16,9999,9999,9999,1887744112
79,19,18,Jits_Linear_8,17,9999,9999,9999,1888534600
79,19,18,Jits_Linear_8,18,9999,9999,9999,1889324096
79,19,18,Jits_Linear_8,19,9999,9999,9999,1890114664
79,19,18,Jits_Linear_8,20,9999,9999,9999,1890894936
79,19,18,Jits_Linear_8,21,9999,9999,9999,1891674236
79,19,18,Jits_Linear_8,22,9999,9999,9999,1892454516
79,19,18,Jits_Linear_8,23,9999,9999,9999,1893234804
79,19,18,Jits_Linear_8,24,9999,9999,9999,1894015076
79,19,18,Jits_Linear_8,25,9999,9999,9999,1894784116
79,19,18,Jits_Linear_8,26,9999,9999,9999,1895554148
79,19,18,Jits_Linear_8,27,9999,9999,9999,1896324176
79,19,18,Jits_Linear_8,28,9999,9999,9999,1897094200
79,19,18,Jits_Linear_8,29,9999,9999,9999,1897864304
79,19,18,Jits_Linear_8,30,9999,9999,9999,1898624124
79,19,18,Jits_Linear_8,31,9999,9999,9999,1899384916
79,19,18,Jits_Linear_8,32,9999,9999,9999,1900144752
79,19,18,Jits_Linear_8,33,9999,9999,9999,1900904504
79,19,18,Jits_Linear_8,34,9999,9999,9999,1901664344
79,19,18,Jits_Linear_8,35,9999,9999,9999,1902414972
79,19,18,Jits_Linear_8,36,9999,9999,9999,1903164540
79,19,18,Jits_Linear_8,37,9999,9999,9999,1903915060
79,19,18,Jits_Linear_8,38,9999,9999,9999,1904674888
79,19,18,Jits_Linear_8,39,9999,9999,9999,1905424468
79,19,18,Jits_Linear_8,40,9999,9999,9999,1906164812
79,19,18,Jits_Linear_8,41,9999,9999,9999,1906904124
79,19,18,Jits_Linear_8,42,9999,9999,9999,1907644536
79,19,18,Jits_Linear_8,43,9999,9999,9999,1908384880
79,19,18,Jits_Linear_8,44,9999,9999,9999,1909124156
79,19,18,Jits_Linear_8,45,9999,9999,9999,1909854316
79,19,18,Jits_Linear_8,46,9999,9999,9999,1910584412
79,19,18,Jits_Linear_8,47,9999,9999,9999,1911314548
79,19,18,Jits_Linear_8,48,9999,9999,9999,1912044644
79,19,18,Jits_Linear_8,49,9999,9999,9999,1912774732
79,19,18,Jits_Linear_8,50,9999,9999,9999,1913494620
79,19,18,Jits_Linear_8,51,9999,9999,9999,1914214512
79,19,18,Jits_Linear_8,52,9999,9999,9999,1914934344
79,19,18,Jits_Linear_8,53,9999,9999,9999,1915654232
79,19,18,Jits_Linear_8,54,9999,9999,9999,1916374120
79,19,18,Jits_Linear_8,55,9999,9999,9999,1917084736
79,19,18,Jits_Linear_8,56,9999,9999,9999,1917794360
79,19,18,Jits_Linear_8,57,9999,9999,9999,1918505024
79,19,18,Jits_Linear_8,58,9999,9999,9999,1919214664
79,19,18,Jits_Linear_8,59,9999,9999,9999,1919924304
79,19,18,Jits_Linear_8,60,9999,9999,9999,1920624704
79,19,18,Jits_Linear_8,61,9999,9999,9999,1921324136
79,19,18,Jits_Linear_8,62,9999,9999,9999,1922024536
79,19,18,Jits_Linear_8,63,9999,9999,9999,1922724936
79,19,18,Jits_Linear_8,64,9999,9999,9999,1923424320
79,19,18,Jits_Linear_8,65,9999,9999,9999,1924114520
79,19,18,Jits_Linear_8,66,9999,9999,9999,1924804688
79,19,18,Jits_Linear_8,67,9999,9999,9999,1925494840
79,19,18,Jits_Linear_8,68,9999,9999,9999,1926185036
79,19,18,Jits_Linear_8,69,9999,9999,9999,1926874224
79,19,18,Jits_Linear_8,70,9999,9999,9999,1927554116
79,19,18,Jits_Linear_8,71,9999,9999,9999,1928235100
79,19,18,Jits_Linear_8,72,9999,9999,9999,1928924268
79,19,18,Jits_Linear_8,73,9999,9999,9999,1929604160
79,19,18,Jits_Linear_8,74,9999,9999,9999,1930284116
79,19,18,Jits_Linear_8,75,9999,9999,9999,1930954856
79,19,18,Jits_Linear_8,76,9999,9999,9999,1931624548
79,19,18,Jits_Linear_8,77,9999,9999,9999,1932294236
79,19,18,Jits_Linear_8,78,9999,9999,9999,1932964984
79,19,18,Jits_Linear_8,79,9999,9999,9999,1933634620
79,19,18,Jits_Linear_8,80,9999,9999,9999,1934294116
79,19,18,Jits_Linear_8,81,9999,9999,9999,1934954592
79,19,18,Jits_Linear_8,82,9999,9999,9999,1935615048
79,19,18,Jits_Linear_8,83,9999,9999,9999,1936274548
79,19,18,Jits_Linear_8,84,9999,9999,9999,1936935008
79,19,18,Jits_Linear_8,85,9999,9999,9999,1937584184
79,19,18,Jits_Linear_8,86,9999,9999,9999,1938234472
79,19,18,Jits_Linear_8,87,9999,9999,9999,1938884660
79,19,18,Jits_Linear_8,88,9999,9999,9999,1939534944
79,19,18,Jits_Linear_8,89,9999,9999,9999,1940184172
79,19,18,Jits_Linear_8,90,9999,9999,9999,1940824136
79,19,18,Jits_Linear_8,91,9999,9999,9999,1941464132
79,19,18,Jits_Linear_8,92,9999,9999,9999,1942104176
79,19,18,Jits_Linear_8,93,9999,9999,9999,1942744176
79,19,18,Jits_Linear_8,94,9999,9999,9999,1943384128
79,19,18,Jits_Linear_8,95,9999,9999,9999,1944014928
79,19,18,Jits_Linear_8,96,9999,9999,9999,1944644704
79,19,18,Jits_Linear_8,97,9999,9999,9999,1945274448
79,19,18,Jits_Linear_8,98,9999,9999,9999,1945904204
79,19,18,Jits_Linear_8,99,9999,9999,9999,1946535020
79,19,18,Jits_Linear_8,100,9999,9999,9999,1947154504
79,19,18,Jits_Linear_8,101,9999,9999,9999,1947775052
79,19,18,Jits_Linear_8,102,9999,9999,9999,1948394608
79,19,18,Jits_Linear_8,103,9999,9999,9999,1949014124
79,19,18,Jits_Linear_8,104,9999,9999,9999,1949634648
79,19,18,Jits_Linear_8,105,9999,9999,9999,1950244988
79,19,18,Jits_Linear_8,106,9999,9999,9999,1950854220
79,19,18,Jits_Linear_8,107,9999,9999,9999,1951464536
79,19,18,Jits_Linear_8,108,9999,9999,9999,1952074820
79,19,18,Jits_Linear_8,109,9999,9999,9999,1952684104
79,19,18,Jits_Linear_8,110,9999,9999,9999,1953284192
79,19,18,Jits_Linear_8,111,9999,9999,9999,1953884216
79,19,18,Jits_Linear_8,112,9999,9999,9999,1954484292
79,19,18,Jits_Linear_8,113,9999,9999,9999,1955084376
79,19,18,Jits_Linear_8,114,9999,9999,9999,1955684460
79,19,18,Jits_Linear_8,115,9999,9999,9999,1956274268
79,19,18,Jits_Linear_8,116,9999,9999,9999,1956864068
79,19,18,Jits_Linear_8,117,9999,9999,9999,1957454968
79,19,18,Jits_Linear_8,118,9999,9999,9999,1958044796
79,19,18,Jits_Linear_8,119,9999,9999,9999,1958634612
79,19,18,Jits_Linear_8,120,9999,9999,9999,1959214168
79,19,18,Jits_Linear_8,121,9999,9999,9999,1959794776
79,19,18,Jits_Linear_8,122,9999,9999,9999,1960374388
79,19,18,Jits_Linear_8,123,9999,9999,9999,1960954968
79,19,18,Jits_Linear_8,124,9999,9999,9999,1961534544
79,19,18,Jits_Linear_8,125,9999,9999,9999,1962104952
79,19,18,Jits_Linear_8,126,9999,9999,9999,1962674240
79,19,18,Jits_Linear_8,127,9999,9999,9999,1963244648
79,19,18,Jits_Linear_8,128,9999,9999,9999,1963814976
79,19,18,Jits_Linear_8,129,9999,9999,9999,1964384368
79,19,18,Jits_Linear_8,130,9999,9999,9999,1964944452
79,19,18,Jits_Linear_8,131,9999,9999,9999,1965504604
79,19,18,Jits_Linear_8,132,9999,9999,9999,1966064756
79,19,18,Jits_Linear_8,133,9999,9999,9999,1966624840
79,19,18,Jits_Linear_8,134,9999,9999,9999,1967185016
79,19,18,Jits_Linear_8,135,9999,9999,9999,1967734880
79,19,18,Jits_Linear_8,136,9999,9999,9999,1968284752
79,19,18,Jits_Linear_8,137,9999,9999,9999,1968834644
79,19,18,Jits_Linear_8,138,9999,9999,9999,1969384532
79,19,18,Jits_Linear_8,139,9999,9999,9999,1969934416
79,19,18,Jits_Linear_8,140,9999,9999,9999,1970475076
79,19,18,Jits_Linear_8,141,9999,9999,9999,1971024972
79,19,18,Jits_Linear_8,142,9999,9999,9999,1971564664
79,19,18,Jits_Linear_8,143,9999,9999,9999,1972104272
79,19,18,Jits_Linear_8,144,9999,9999,9999,1972644928
79,19,18,Jits_Linear_8,145,9999,9999,9999,1973174352
79,19,18,Jits_Linear_8,146,9999,9999,9999,1973704820
79,19,18,Jits_Linear_8,147,9999,9999,9999,1974234164
79,19,18,Jits_Linear_8,148,9999,9999,9999,1974764644
79,19,18,Jits_Linear_8,149,9999,9999,9999,1975295032
79,19,18,Jits_Linear_8,150,9999,9999,9999,1975814272
79,19,18,Jits_Linear_8,151,9999,9999,9999,1976334400
79,19,18,Jits_Linear_8,152,9999,9999,9999,1976854620
79,19,18,Jits_Linear_8,153,9999,9999,9999,1977374832
79,19,18,Jits_Linear_8,154,9999,9999,9999,1977894972
79,19,18,Jits_Linear_8,155,9999,9999,9999,1978404984
79,19,18,Jits_Linear_8,156,9999,9999,9999,1978914936
79,19,18,Jits_Linear_8,157,9999,9999,9999,1979424876
79,19,18,Jits_Linear_8,158,9999,9999,9999,1979934824
79,19,18,Jits_Linear_8,159,9999,9999,9999,1980444780
79,19,18,Jits_Linear_8,160,9999,9999,9999,1980944456
79,19,18,Jits_Linear_8,161,9999,9999,9999,1981444208
79,19,18,Jits_Linear_8,162,9999,9999,9999,1981944944
79,19,18,Jits_Linear_8,163,9999,9999,9999,1982444620
79,19,18,Jits_Linear_8,164,9999,9999,9999,1982944376
79,19,18,Jits_Linear_8,165,9999,9999,9999,1983434836
79,19,18,Jits_Linear_8,166,9999,9999,9999,1983924348
79,19,18,Jits_Linear_8,167,9999,9999,9999,1984414812
79,19,18,Jits_Linear_8,168,9999,9999,9999,1984904248
79,19,18,Jits_Linear_8,169,9999,9999,9999,1985394792
79,20,5,ISIP_5,0,5,42,127,2066133584
79,20,5,ISIP_5,1,5,42,127,2066633300
79,20,5,ISIP_5,2,5,42,127,2067132720
79,20,5,ISIP_5,3,5,42,127,2067632584
79,20,5,ISIP_5,4,1,48,16,2067644832
79,20,5,ISIP_5,5,5,42,127,2068133324
79,20,5,ISIP_5,6,1,48,16,2068137492
79,20,5,ISIP_5,7,5,42,127,2068633020
79,20,5,ISIP_5,8,1,48,16,2068648780
79,20,5,ISIP_5,9,5,42,127,2069132640
79,20,5,ISIP_5,10,1,48,16,2069146452
79,20,5,ISIP_5,11,5,42,127,2069633308
79,20,5,ISIP_5,12,1,48,15,2069647120
79,20,5,ISIP_5,13,5,42,127,2070133076
79,20,5,ISIP_5,14,1,48,17,2070145172
79,20,5,ISIP_5,15,1,48,18,2070619268
79,20,5,ISIP_5,16,5,42,127,2070632764
79,20,5,ISIP_5,17,1,48,20,2071131712
79,20,5,ISIP_5,18,5,42,127,2071133360
79,20,5,ISIP_5,19,1,48,17,2071609980
79,20,5,ISIP_5,20,5,42,127,2071633204
79,20,5,ISIP_5,21,1,48,19,2072124488
79,20,5,ISIP_5,22,5,42,127,2072133044
79,20,5,ISIP_5,23,1,48,19,2072599096
79,20,5,ISIP_5,24,5,42,127,2072632664
79,20,5,ISIP_5,25,1,48,19,2073129236
79,20,5,ISIP_5,26,5,42,127,2073133532
79,20,5,ISIP_5,27,1,48,20,2073614772
79,20,5,ISIP_5,28,5,42,127,2073633280
79,20,5,ISIP_5,29,1,48,20,2074108184
79,20,5,ISIP_5,30,5,42,127,2074132900
79,20,5,ISIP_5,31,1,48,20,2074604284
79,20,5,ISIP_5,32,5,42,127,2074632596
79,20,5,ISIP_5,33,1,48,19,2075106300
79,20,5,ISIP_5,34,5,42,127,2075133264
79,20,5,ISIP_5,35,1,48,22,2075629332
79,20,5,ISIP_5,36,5,42,127,2075633032
79,20,5,ISIP_5,37,1,48,21,2076113468
79,20,5,ISIP_5,38,5,42,127,2076132728
79,20,5,ISIP_5,39,1,48,23,2076622736
79,20,5,ISIP_5,40,5,42,127,2076632348
79,20,5,ISIP_5,41,1,48,23,2077124832
79,20,5,ISIP_5,42,5,42,127,2077133164
79,20,5,ISIP_5,43,1,48,23,2077608292
79,20,5,ISIP_5,44,5,42,127,2077633008
79,20,5,ISIP_5,45,1,48,24,2078129904
79,20,5,ISIP_5,46,5,42,127,2078132556
79,20,5,ISIP_5,47,1,48,22,2078625484
79,20,5,ISIP_5,48,5,42,127,2078633444
79,20,5,ISIP_5,49,1,48,23,2079112540
79,20,5,ISIP_5,50,5,42,127,2079133144
79,20,5,ISIP_5,51,1,48,21,2079619120
79,20,5,ISIP_5,52,5,42,127,2079632692
79,20,5,ISIP_5,53,1,48,26,2080108640
79,20,5,ISIP_5,54,5,42,127,2080132384
79,20,5,ISIP_5,55,1,48,21,2080613720
79,20,5,ISIP_5,56,5,42,127,2080633052
79,20,5,ISIP_5,57,1,48,22,2081119696
79,20,5,ISIP_5,58,5,42,127,2081133044
79,20,5,ISIP_5,59,1,48,23,2081603760
79,20,5,ISIP_5,60,5,42,127,2081632740
79,20,5,ISIP_5,61,1,48,21,2082105996
79,20,5,ISIP_5,62,5,42,127,2082133260
79,20,5,ISIP_5,63,5,42,127,2082632960
79,20,5,ISIP_5,64,1,48,21,2082650960
79,20,5,ISIP_5,65,1,48,22,2083132952
79,20,5,ISIP_5,66,5,42,127,2083134216
79,20,5,ISIP_5,67,5,42,127,2083632648
79,20,5,ISIP_5,68,1,48,20,2083633540
79,20,5,ISIP_5,69,5,42,127,2084133140
79,20,5,ISIP_5,70,1,48,22,2084148552
79,20,5,ISIP_5,71,1,48,19,2084629280
79,20,5,ISIP_5,72,5,42,127,2084632904
79,20,5,ISIP_5,73,1,48,22,2085062404
79,20,5,ISIP_5,74,5,42,127,2085132752
79,20,5,ISIP_5,75,1,48,25,2085621044
79,20,5,ISIP_5,76,5,42,127,2085633416
79,20,5,ISIP_5,77,1,48,26,2086132344
79,20,5,ISIP_5,78,1,48,23,2086659932
79,20,5,ISIP_5,79,1,48,24,2087116452
79,20,5,ISIP_5,80,1,48,28,2087652436
79,20,5,ISIP_5,81,1,48,27,2088135668
79,20,5,ISIP_5,82,1,48,28,2088661540
79,20,5,ISIP_5,83,1,48,28,2089124344
79,20,5,ISIP_5,84,1,48,28,2089645144
79,20,5,ISIP_5,85,1,48,26,2090154256
79,20,5,ISIP_5,86,1,48,29,2090644972
79,20,5,ISIP_5,87,1,48,28,2091158200
79,20,5,ISIP_5,88,1,48,29,2091642332
79,20,5,ISIP_5,89,1,48,28,2092177852
79,20,5,ISIP_5,90,1,48,29,2092666248
79,20,5,ISIP_5,91,1,48,29,2093222188
79,20,5,ISIP_5,92,1,48,31,2093736388
79,20,5,ISIP_5,93,1,48,29,2094245800
79,20,5,ISIP_5,94,1,48,26,2094764048
79,20,5,ISIP_5,95,1,48,29,2095286172
79,20,5,ISIP_5,96,1,48,27,2095813988
79,20,5,ISIP_5,97,1,48,29,2096287876
79,20,5,ISIP_5,98,1,48,29,2096799980
79,20,5,ISIP_5,99,1,48,29,2097335652
79,20,5,ISIP_5,100,1,48,28,2097850376
79,20,5,ISIP_5,101,1,48,30,2098385740
79,20,5,ISIP_5,102,1,48,28,2098880944
79,20,5,ISIP_5,103,1,48,27,2099435688
79,20,5,ISIP_5,104,1,48,29,2099933284
79,20,5,ISIP_5,105,1,48,29,2100420556
79,20,5,ISIP_5,106,1,48,29,2100901100
79,20,5,ISIP_5,107,1,48,27,2101413652
79,20,5,ISIP_5,108,1,48,29,2101933392
79,20,5,ISIP_5,109,1,48,28,2102419768
79,20,5,ISIP_5,110,1,48,29,2102941296
79,20,5,ISIP_5,111,1,48,28,2103425432
79,20,5,ISIP_5,112,1,48,29,2103953844
79,20,5,ISIP_5,113,1,48,32,2104473880
79,20,5,ISIP_5,114,1,48,28,2104955320
79,20,5,ISIP_5,115,1,48,25,2105452240
79,20,5,ISIP_5,116,1,48,29,2105968840
79,20,5,ISIP_5,117,1,48,30,2106470996
79,20,5,ISIP_5,118,1,48,29,2106968296
79,20,5,ISIP_5,119,1,48,30,2107496032
79,20,5,ISIP_5,120,1,48,27,2107991088
79,20,5,ISIP_5,121,1,48,31,2108516588
79,20,5,ISIP_5,122,1,48,26,2109022708
79,20,5,ISIP_5,123,1,48,29,2109503248
79,20,5,ISIP_5,124,1,48,27,2109994044
79,20,5,ISIP_5,125,1,48,16,2110499836
79,20,5,ISIP_5,126,1,48,25,2111064332
79,20,5,ISIP_5,127,1,48,23,2111565368
79,20,5,ISIP_5,128,1,48,36,2112110612
79,20,5,ISIP_5,129,1,48,29,2112589360
79,20,5,ISIP_5,130,1,48,30,2113114332
79,20,5,ISIP_5,131,1,48,28,2113608336
79,20,5,ISIP_5,132,1,48,29,2114103088
79,20,5,ISIP_5,133,1,48,33,2114570668
79,20,5,ISIP_5,134,1,48,29,2115080680
79,20,5,ISIP_5,135,1,48,32,2115544620
79,20,5,ISIP_5,136,1,48,26,2116107736
79,20,5,ISIP_5,137,1,48,32,2116638784
79,20,5,ISIP_5,138,1,48,29,2117187412
79,20,5,ISIP_5,139,1,48,34,2117659704
79,20,5,ISIP_5,140,1,48,38,2118146600
79,20,5,ISIP_5,141,1,48,38,2118644492
79,20,5,ISIP_5,142,1,48,31,2119149124
79,20,5,ISIP_5,143,1,48,37,2119652408
79,20,5,ISIP_5,144,1,48,32,2120149624
79,20,5,ISIP_5,145,1,48,31,2120634508
79,20,5,ISIP_5,146,1,48,36,2121112644
79,20,5,ISIP_5,147,1,48,33,2121591312
79,20,5,ISIP_5,148,1,48,35,2122086964
79,20,5,ISIP_5,149,1,48,36,2122595032
79,20,5,ISIP_5,150,1,48,34,2123079020
79,20,5,ISIP_5,151,1,48,36,2123598984
79,20,5,ISIP_5,152,1,48,33,2124108764
79,20,5,ISIP_5,153,1,48,30,2124640264
79,20,5,ISIP_5,154,1,48,38,2125106056
79,20,5,ISIP_5,155,1,48,32,2125628860
79,20,5,ISIP_5,156,1,48,26,2126126604
79,20,5,ISIP_5,157,1,48,32,2126638948
79,20,5,ISIP_5,158,1,48,31,2127136520
79,20,5,ISIP_5,159,1,48,37,2127605232
79,20,5,ISIP_5,160,1,48,32,2128105144
79,20,5,ISIP_5,161,1,48,33,2128608124
79,20,5,ISIP_5,162,1,48,36,2129116644
79,20,5,ISIP_5,163,1,48,32,2129603992
79,20,5,ISIP_5,164,1,48,33,2130109816
79,20,5,ISIP_5,165,1,48,37,2130617132
79,20,5,ISIP_5,166,1,48,34,2131136736
79,20,5,ISIP_5,167,1,48,34,2131618608
79,20,5,ISIP_5,168,1,48,32,2132182788
79,20,5,ISIP_5,169,1,48,37,2132653236
79,20,5,ISIP_5,170,1,48,38,2133133480
79,20,5,ISIP_5,171,1,48,35,2133629488
79,20,5,ISIP_5,172,1,48,33,2134146624
79,20,5,ISIP_5,173,1,48,43,2134635992
79,20,5,ISIP_5,174,1,48,41,2135124372
79,20,5,ISIP_5,175,1,48,40,2135624660
79,20,5,ISIP_5,176,1,48,36,2136101216
79,20,5,ISIP_5,177,1,48,41,2136607708
79,20,5,ISIP_5,178,1,48,41,2137072172
79,20,5,ISIP_5,179,1,48,40,2137576200
79,20,5,ISIP_5,180,1,48,36,2138059136
79,20,5,ISIP_5,181,1,48,28,2138583584
79,20,5,ISIP_5,182,1,48,38,2139076392
79,20,5,ISIP_5,183,1,48,36,2139531804
79,20,5,ISIP_5,184,1,48,27,2140041592
79,20,5,ISIP_5,185,1,48,36,2140514276
79,20,5,ISIP_5,186,1,48,33,2141001552
79,20,5,ISIP_5,187,1,48,35,2141511116
79,20,5,ISIP_5,188,1,48,37,2141980640
79,20,5,ISIP_5,189,1,48,36,2142469336
79,20,5,ISIP_5,190,1,48,41,2143004256
79,20,5,ISIP_5,191,1,48,35,2143472080
79,20,5,ISIP_5,192,1,48,38,2143975588
79,20,5,ISIP_5,193,1,48,41,2144443260
79,20,5,ISIP_5,194,1,48,27,2144984320
79,20,5,ISIP_5,195,1,48,35,2145446012
79,20,5,ISIP_5,196,1,48,41,2145951312
79,20,5,ISIP_5,0,9999,9999,9999,2066131000
79,20,5,ISIP_5,1,9999,9999,9999,2066630716
79,20,5,ISIP_5,2,9999,9999,9999,2067130432
79,20,5,ISIP_5,3,9999,9999,9999,2067630148
79,20,5,ISIP_5,4,9999,9999,9999,2068130888
79,20,5,ISIP_5,5,9999,9999,9999,2068630584
79,20,5,ISIP_5,6,9999,9999,9999,2069130352
79,20,5,ISIP_5,7,9999,9999,9999,2069631092
79,20,5,ISIP_5,8,9999,9999,9999,2070130788
79,20,5,ISIP_5,9,9999,9999,9999,2070630476
79,20,5,ISIP_5,10,9999,9999,9999,2071130180
79,20,5,ISIP_5,11,9999,9999,9999,2071630916
79,20,5,ISIP_5,12,9999,9999,9999,2072130608
79,20,5,ISIP_5,13,9999,9999,9999,2072630380
79,20,5,ISIP_5,14,9999,9999,9999,2073131096
79,20,5,ISIP_5,15,9999,9999,9999,2073630840
79,20,5,ISIP_5,16,9999,9999,9999,2074130536
79,20,5,ISIP_5,17,9999,9999,9999,2074630232
79,20,5,ISIP_5,18,9999,9999,9999,2075130976
79,20,5,ISIP_5,19,9999,9999,9999,2075630672
79,20,5,ISIP_5,20,9999,9999,9999,2076130364
79,20,5,ISIP_5,21,9999,9999,9999,2076630136
79,20,5,ISIP_5,22,9999,9999,9999,2077130804
79,20,5,ISIP_5,23,9999,9999,9999,2077630572
79,20,5,ISIP_5,24,9999,9999,9999,2078130268
79,20,5,ISIP_5,25,9999,9999,9999,2078631008
79,20,5,ISIP_5,26,9999,9999,9999,2079130708
79,20,5,ISIP_5,27,9999,9999,9999,2079630404
79,20,5,ISIP_5,28,9999,9999,9999,2080130096
79,20,5,ISIP_5,29,9999,9999,9999,2080630840
79,20,5,ISIP_5,30,9999,9999,9999,2081130608
79,20,5,ISIP_5,31,9999,9999,9999,2081630304
79,20,5,ISIP_5,32,9999,9999,9999,2082131044
79,20,5,ISIP_5,33,9999,9999,9999,2082630744
79,20,5,ISIP_5,34,9999,9999,9999,2083130444
79,20,5,ISIP_5,35,9999,9999,9999,2083630136
79,20,5,ISIP_5,36,9999,9999,9999,2084130928
79,20,5,ISIP_5,37,9999,9999,9999,2084630616
79,20,5,ISIP_5,38,9999,9999,9999,2085130316
79,20,5,ISIP_5,39,9999,9999,9999,2085631056
79,20,5,ISIP_5,40,9999,9999,9999,2086130756
79,20,5,ISIP_5,41,9999,9999,9999,2086630448
79,20,5,ISIP_5,42,9999,9999,9999,2087130208
79,20,5,ISIP_5,43,9999,9999,9999,2087630952
79,20,5,ISIP_5,44,9999,9999,9999,2088130644
79,20,5,ISIP_5,45,9999,9999,9999,2088630332
79,20,5,ISIP_5,46,9999,9999,9999,2089131068
79,20,5,ISIP_5,47,9999,9999,9999,2089630836
79,20,5,ISIP_5,48,9999,9999,9999,2090130528
79,20,5,ISIP_5,49,9999,9999,9999,2090630220
79,20,5,ISIP_5,50,9999,9999,9999,2091130956
79,20,5,ISIP_5,51,9999,9999,9999,2091630648
79,20,5,ISIP_5,52,9999,9999,9999,2092130412
79,20,5,ISIP_5,53,9999,9999,9999,2092630104
79,20,5,ISIP_5,54,9999,9999,9999,2093130844
79,20,5,ISIP_5,55,9999,9999,9999,2093630532
79,20,5,ISIP_5,56,9999,9999,9999,2094130224
79,20,5,ISIP_5,57,9999,9999,9999,2094631008
79,20,5,ISIP_5,58,9999,9999,9999,2095130704
79,20,5,ISIP_5,59,9999,9999,9999,2095630392
79,20,5,ISIP_5,60,9999,9999,9999,2096130156
79,20,5,ISIP_5,61,9999,9999,9999,2096630896
79,20,5,ISIP_5,62,9999,9999,9999,2097130588
79,20,5,ISIP_5,63,9999,9999,9999,2097630276
79,20,5,ISIP_5,64,9999,9999,9999,2098131016
79,20,5,ISIP_5,65,9999,9999,9999,2098630704
79,20,5,ISIP_5,66,9999,9999,9999,2099130472
79,20,5,ISIP_5,67,9999,9999,9999,2099630160
79,20,5,ISIP_5,68,9999,9999,9999,2100130896
79,20,5,ISIP_5,69,9999,9999,9999,2100630588
79,20,5,ISIP_5,70,9999,9999,9999,2101130356
79,20,5,ISIP_5,71,9999,9999,9999,2101631092
79,20,5,ISIP_5,72,9999,9999,9999,2102130784
79,20,5,ISIP_5,73,9999,9999,9999,2102630472
79,20,5,ISIP_5,74,9999,9999,9999,2103130164
79,20,5,ISIP_5,75,9999,9999,9999,2103630900
79,20,5,ISIP_5,76,9999,9999,9999,2104130664
79,20,5,ISIP_5,77,9999,9999,9999,2104630356
79,20,5,ISIP_5,78,9999,9999,9999,2105131096
79,20,5,ISIP_5,79,9999,9999,9999,2105630832
79,20,5,ISIP_5,80,9999,9999,9999,2106130524
79,20,5,ISIP_5,81,9999,9999,9999,2106630216
79,20,5,ISIP_5,82,9999,9999,9999,2107130952
79,20,5,ISIP_5,83,9999,9999,9999,2107630644
79,20,5,ISIP_5,84,9999,9999,9999,2108130412
79,20,5,ISIP_5,85,9999,9999,9999,2108630104
79,20,5,ISIP_5,86,9999,9999,9999,2109130840
79,20,5,ISIP_5,87,9999,9999,9999,2109630532
79,20,5,ISIP_5,88,9999,9999,9999,2110130296
79,20,5,ISIP_5,89,9999,9999,9999,2110630960
79,20,5,ISIP_5,90,9999,9999,9999,2111130740
79,20,5,ISIP_5,91,9999,9999,9999,2111630432
79,20,5,ISIP_5,92,9999,9999,9999,2112130124
79,20,5,ISIP_5,93,9999,9999,9999,2112630860
79,20,5,ISIP_5,94,9999,9999,9999,2113130552
79,20,5,ISIP_5,95,9999,9999,9999,2113630316
79,20,5,ISIP_5,96,9999,9999,9999,2114131056
79,20,5,ISIP_5,97,9999,9999,9999,2114630748
79,20,5,ISIP_5,98,9999,9999,9999,2115130436
79,20,5,ISIP_5,99,9999,9999,9999,2115630128
79,20,5,ISIP_5,100,9999,9999,9999,2116130912
79,20,5,ISIP_5,101,9999,9999,9999,2116630612
79,20,5,ISIP_5,102,9999,9999,9999,2117130300
79,20,5,ISIP_5,103,9999,9999,9999,2117631036
79,20,5,ISIP_5,104,9999,9999,9999,2118130804
79,20,5,ISIP_5,105,9999,9999,9999,2118630492
79,20,5,ISIP_5,106,9999,9999,9999,2119130184
79,20,5,ISIP_5,107,9999,9999,9999,2119630920
79,20,5,ISIP_5,108,9999,9999,9999,2120130612
79,20,5,ISIP_5,109,9999,9999,9999,2120630376
79,20,5,ISIP_5,110,9999,9999,9999,2121131108
79,20,5,ISIP_5,111,9999,9999,9999,2121630796
79,20,5,ISIP_5,112,9999,9999,9999,2122130488
79,20,5,ISIP_5,113,9999,9999,9999,2122630252
79,20,5,ISIP_5,114,9999,9999,9999,2123130992
79,20,5,ISIP_5,115,9999,9999,9999,2123630684
79,20,5,ISIP_5,116,9999,9999,9999,2124130376
79,20,5,ISIP_5,117,9999,9999,9999,2124630076
79,20,5,ISIP_5,118,9999,9999,9999,2125130804
79,20,5,ISIP_5,119,9999,9999,9999,2125630572
79,20,5,ISIP_5,120,9999,9999,9999,2126130260
79,20,5,ISIP_5,121,9999,9999,9999,2126631004
79,20,5,ISIP_5,122,9999,9999,9999,2127130744
79,20,5,ISIP_5,123,9999,9999,9999,2127630428
79,20,5,ISIP_5,124,9999,9999,9999,2128130120
79,20,5,ISIP_5,125,9999,9999,9999,2128630856
79,20,5,ISIP_5,126,9999,9999,9999,2129130548
79,20,5,ISIP_5,127,9999,9999,9999,2129630312
79,20,5,ISIP_5,128,9999,9999,9999,2130131048
79,20,5,ISIP_5,129,9999,9999,9999,2130630740
79,20,5,ISIP_5,130,9999,9999,9999,2131130436
79,20,5,ISIP_5,131,9999,9999,9999,2131630196
79,20,5,ISIP_5,132,9999,9999,9999,2132130864
79,20,5,ISIP_5,133,9999,9999,9999,2132630628
79,20,5,ISIP_5,134,9999,9999,9999,2133130320
79,20,5,ISIP_5,135,9999,9999,9999,2133631052
79,20,5,ISIP_5,136,9999,9999,9999,2134130748
79,20,5,ISIP_5,137,9999,9999,9999,2134630512
79,20,5,ISIP_5,138,9999,9999,9999,2135130196
79,20,5,ISIP_5,139,9999,9999,9999,2135630936
79,20,5,ISIP_5,140,9999,9999,9999,2136130624
79,20,5,ISIP_5,141,9999,9999,9999,2136630392
79,20,5,ISIP_5,142,9999,9999,9999,2137131128
79,20,5,ISIP_5,143,9999,9999,9999,2137630796
79,20,5,ISIP_5,144,9999,9999,9999,2138130484
79,20,5,ISIP_5,145,9999,9999,9999,2138630248
79,20,5,ISIP_5,146,9999,9999,9999,2139130984
79,20,5,ISIP_5,147,9999,9999,9999,2139630660
79,20,5,ISIP_5,148,9999,9999,9999,2140130368
79,20,5,ISIP_5,149,9999,9999,9999,2140630116
79,20,5,ISIP_5,150,9999,9999,9999,2141130856
79,20,5,ISIP_5,151,9999,9999,9999,2141630544
79,20,5,ISIP_5,152,9999,9999,9999,2142130236
79,20,5,ISIP_5,153,9999,9999,9999,2142630972
79,20,5,ISIP_5,154,9999,9999,9999,2143130740
79,20,5,ISIP_5,155,9999,9999,9999,2143630428
79,20,5,ISIP_5,156,9999,9999,9999,2144130120
79,20,5,ISIP_5,157,9999,9999,9999,2144630856
79,20,5,ISIP_5,158,9999,9999,9999,2145130548
79,20,5,ISIP_5,159,9999,9999,9999,2145630312
79,21,3,ISIP_8,0,5,42,127,2177252740
79,21,3,ISIP_8,1,5,42,127,2178052716
79,21,3,ISIP_8,2,1,48,17,2178796036
79,21,3,ISIP_8,3,5,42,127,2178853092
79,21,3,ISIP_8,4,1,48,20,2179627284
79,21,3,ISIP_8,5,5,42,127,2179652972
79,21,3,ISIP_8,6,5,42,127,2180452564
79,21,3,ISIP_8,7,1,48,20,2180484180
79,21,3,ISIP_8,8,5,42,127,2181252596
79,21,3,ISIP_8,9,1,48,23,2181277032
79,21,3,ISIP_8,10,5,42,127,2182053228
79,21,3,ISIP_8,11,1,48,24,2182076692
79,21,3,ISIP_8,12,1,48,26,2182842600
79,21,3,ISIP_8,13,5,42,127,2182852952
79,21,3,ISIP_8,14,5,42,127,2183652692
79,21,3,ISIP_8,15,1,48,25,2183685508
79,21,3,ISIP_8,16,1,48,24,2184435256
79,21,3,ISIP_8,17,5,42,127,2184452348
79,21,3,ISIP_8,18,5,42,127,2185253232
79,21,3,ISIP_8,19,1,48,33,2185299436
79,21,3,ISIP_8,20,5,42,127,2186052968
79,21,3,ISIP_8,21,1,48,26,2186068724
79,21,3,ISIP_8,22,5,42,127,2186852628
79,21,3,ISIP_8,23,1,48,25,2186870104
79,21,3,ISIP_8,24,1,48,25,2187643788
79,21,3,ISIP_8,25,5,42,127,2187652352
79,21,3,ISIP_8,26,5,42,127,2188453436
79,21,3,ISIP_8,27,1,48,26,2188521404
79,21,3,ISIP_8,28,5,42,127,2189252948
79,21,3,ISIP_8,29,1,48,33,2189339768
79,21,3,ISIP_8,30,5,42,127,2190052756
79,21,3,ISIP_8,31,1,48,27,2190075472
79,21,3,ISIP_8,32,5,42,127,2190852416
79,21,3,ISIP_8,33,1,48,25,2190866752
79,21,3,ISIP_8,34,5,42,127,2191653368
79,21,3,ISIP_8,35,1,48,25,2191676156
79,21,3,ISIP_8,36,1,48,25,2192440792
79,21,3,ISIP_8,37,5,42,127,2192452944
79,21,3,ISIP_8,38,1,48,22,2193232076
79,21,3,ISIP_8,39,5,42,127,2193252680
79,21,3,ISIP_8,40,1,48,28,2194051740
79,21,3,ISIP_8,41,5,42,127,2194053236
79,21,3,ISIP_8,42,5,42,127,2194853348
79,21,3,ISIP_8,43,1,48,28,2194902840
79,21,3,ISIP_8,44,5,42,127,2195653156
79,21,3,ISIP_8,45,1,48,29,2195675124
79,21,3,ISIP_8,46,5,42,127,2196452664
79,21,3,ISIP_8,47,1,48,27,2196476428
79,21,3,ISIP_8,48,5,42,127,2197252548
79,21,3,ISIP_8,49,1,48,27,2197273096
79,21,3,ISIP_8,50,1,48,23,2198027032
79,21,3,ISIP_8,51,5,42,127,2198053120
79,21,3,ISIP_8,52,5,42,127,2198853160
79,21,3,ISIP_8,53,1,48,32,2198921576
79,21,3,ISIP_8,54,5,42,127,2199652596
79,21,3,ISIP_8,55,1,48,32,2199683012
79,21,3,ISIP_8,56,5,42,127,2200452476
79,21,3,ISIP_8,57,1,48,30,2200495392
79,21,3,ISIP_8,58,1,48,24,2201315616
79,21,3,ISIP_8,59,1,48,21,2202117288
79,21,3,ISIP_8,60,1,48,24,2202969252
79,21,3,ISIP_8,61,1,48,24,2203777132
79,21,3,ISIP_8,62,1,48,28,2204658768
79,21,3,ISIP_8,63,1,48,26,2205421916
79,21,3,ISIP_8,64,1,48,29,2206291456
79,21,3,ISIP_8,65,1,48,26,2207056256
79,21,3,ISIP_8,66,1,48,29,2207940880
79,21,3,ISIP_8,67,1,48,25,2208720488
79,21,3,ISIP_8,68,1,48,24,2209481996
79,21,3,ISIP_8,69,1,48,32,2210320620
79,21,3,ISIP_8,70,1,48,31,2211095140
79,21,3,ISIP_8,71,1,48,27,2211860984
79,21,3,ISIP_8,72,1,48,26,2212720428
79,21,3,ISIP_8,73,1,48,29,2213514328
79,21,3,ISIP_8,74,1,48,26,2214291312
79,21,3,ISIP_8,75,1,48,24,2215118644
79,21,3,ISIP_8,76,1,48,32,2215993720
79,21,3,ISIP_8,77,1,48,25,2216747672
79,21,3,ISIP_8,78,1,48,28,2217614044
79,21,3,ISIP_8,79,1,48,25,2218354160
79,21,3,ISIP_8,80,1,48,29,2219165408
79,21,3,ISIP_8,81,1,48,27,2219922732
79,21,3,ISIP_8,82,1,48,31,2220827248
79,21,3,ISIP_8,83,1,48,21,2221563844
79,21,3,ISIP_8,84,1,48,25,2222402420
79,21,3,ISIP_8,85,1,48,27,2223180536
79,21,3,ISIP_8,86,1,48,24,2223979292
79,21,3,ISIP_8,87,1,48,18,2224847016
79,21,3,ISIP_8,88,1,48,24,2225615848
79,21,3,ISIP_8,89,1,48,26,2226377808
79,21,3,ISIP_8,90,1,48,26,2227149784
79,21,3,ISIP_8,91,1,48,29,2228086872
79,21,3,ISIP_8,92,1,48,32,2228884128
79,21,3,ISIP_8,93,1,48,29,2229726792
79,21,3,ISIP_8,94,1,48,33,2230526224
79,21,3,ISIP_8,95,1,48,26,2231278608
79,21,3,ISIP_8,96,1,48,27,2232081320
79,21,3,ISIP_8,97,1,48,33,2233002472
79,21,3,ISIP_8,98,1,48,19,2233740348
79,21,3,ISIP_8,99,1,48,25,2234574256
79,21,3,ISIP_8,100,1,48,26,2235317516
79,21,3,ISIP_8,101,1,48,29,2236150976
79,21,3,ISIP_8,102,1,48,34,2236916072
79,21,3,ISIP_8,103,1,48,29,2237640036
79,21,3,ISIP_8,104,1,48,24,2238458608
79,21,3,ISIP_8,105,1,48,22,2239235304
79,21,3,ISIP_8,106,1,48,28,2240031988
79,21,3,ISIP_8,107,1,48,29,2240781052
79,21,3,ISIP_8,108,1,48,32,2241656208
79,21,3,ISIP_8,109,1,48,31,2242364756
79,21,3,ISIP_8,110,1,48,29,2243176228
79,21,3,ISIP_8,111,1,48,28,2243959280
79,21,3,ISIP_8,112,1,48,27,2244782868
79,21,3,ISIP_8,113,1,48,37,2245626800
79,21,3,ISIP_8,114,1,48,32,2246403644
79,21,3,ISIP_8,115,1,48,32,2247166348
79,21,3,ISIP_8,116,1,48,28,2247945952
79,21,3,ISIP_8,117,1,48,38,2248756032
79,21,3,ISIP_8,118,1,48,32,2249536088
79,21,3,ISIP_8,119,1,48,32,2250311208
79,21,3,ISIP_8,120,1,48,34,2251127688
79,21,3,ISIP_8,121,1,48,37,2251886884
79,21,3,ISIP_8,122,1,48,22,2251953284
79,21,3,ISIP_8,123,1,48,35,2252855656
79,21,3,ISIP_8,124,1,48,24,2252906196
79,21,3,ISIP_8,125,1,48,34,2253901248
79,21,3,ISIP_8,126,1,48,25,2254696412
79,21,3,ISIP_8,127,1,48,33,2255468392
79,21,3,ISIP_8,128,1,48,27,2256240900
79,21,3,ISIP_8,129,1,48,33,2257065388
79,21,3,ISIP_8,130,1,48,39,2257944176
79,21,3,ISIP_8,131,1,48,29,2258670524
79,21,3,ISIP_8,132,1,48,28,2259500796
79,21,3,ISIP_8,133,1,48,33,2260452384
79,21,3,ISIP_8,134,1,48,24,2261187544
79,21,3,ISIP_8,135,1,48,25,2262023772
79,21,3,ISIP_8,136,1,48,31,2262732324
79,21,3,ISIP_8,137,1,48,21,2262786980
79,21,3,ISIP_8,138,1,48,32,2263577960
79,21,3,ISIP_8,139,1,48,19,2265210672
79,21,3,ISIP_8,140,1,48,35,2265991028
79,21,3,ISIP_8,141,1,48,29,2266740344
79,21,3,ISIP_8,142,1,48,28,2267549124
79,21,3,ISIP_8,143,1,48,24,2268336664
79,21,3,ISIP_8,144,1,48,30,2269129656
79,21,3,ISIP_8,145,1,48,36,2269902164
79,21,3,ISIP_8,146,1,48,35,2270752552
79,21,3,ISIP_8,147,1,48,34,2271511340
79,21,3,ISIP_8,148,1,48,34,2272257072
79,21,3,ISIP_8,149,1,48,32,2273036676
79,21,3,ISIP_8,150,1,48,38,2273813668
79,21,3,ISIP_8,151,1,48,31,2274601156
79,21,3,ISIP_8,152,1,48,32,2275395420
79,21,3,ISIP_8,153,1,48,36,2276155440
79,21,3,ISIP_8,154,1,48,36,2276944168
79,21,3,ISIP_8,155,1,48,37,2277759752
79,21,3,ISIP_8,156,1,48,35,2278591268
79,21,3,ISIP_8,157,1,48,35,2279340440
79,21,3,ISIP_8,158,1,48,32,2280081076
79,21,3,ISIP_8,159,1,48,36,2280889032
79,21,3,ISIP_8,160,1,48,31,2281675524
79,21,3,ISIP_8,161,1,48,31,2282465976
79,21,3,ISIP_8,162,1,48,34,2283271692
79,21,3,ISIP_8,163,1,48,32,2284118640
79,21,3,ISIP_8,164,1,48,35,2284950836
79,21,3,ISIP_8,165,1,48,37,2285782724
79,21,3,ISIP_8,166,1,48,35,2286633940
79,21,3,ISIP_8,167,1,48,35,2287430756
79,21,3,ISIP_8,168,1,48,30,2288252544
79,21,3,ISIP_8,169,1,48,28,2289024676
79,21,3,ISIP_8,170,1,48,32,2289799500
79,21,3,ISIP_8,171,1,48,40,2290683000
79,21,3,ISIP_8,172,1,48,34,2291447424
79,21,3,ISIP_8,173,1,48,29,2292213416
79,21,3,ISIP_8,174,1,48,30,2292996392
79,21,3,ISIP_8,175,1,48,34,2293807064
79,21,3,ISIP_8,176,1,48,33,2294564608
79,21,3,ISIP_8,177,1,48,31,2295323396
79,21,3,ISIP_8,178,1,48,28,2296104152
79,21,3,ISIP_8,179,1,48,28,2296923704
79,21,3,ISIP_8,0,9999,9999,9999,2177250376
79,21,3,ISIP_8,1,9999,9999,9999,2178050128
79,21,3,ISIP_8,2,9999,9999,9999,2178850876
79,21,3,ISIP_8,3,9999,9999,9999,2179650612
79,21,3,ISIP_8,4,9999,9999,9999,2180450348
79,21,3,ISIP_8,5,9999,9999,9999,2181250156
79,21,3,ISIP_8,6,9999,9999,9999,2182050864
79,21,3,ISIP_8,7,9999,9999,9999,2182850664
79,21,3,ISIP_8,8,9999,9999,9999,2183650404
79,21,3,ISIP_8,9,9999,9999,9999,2184450132
79,21,3,ISIP_8,10,9999,9999,9999,2185250872
79,21,3,ISIP_8,11,9999,9999,9999,2186050676
79,21,3,ISIP_8,12,9999,9999,9999,2186850412
79,21,3,ISIP_8,13,9999,9999,9999,2187650140
79,21,3,ISIP_8,14,9999,9999,9999,2188450924
79,21,3,ISIP_8,15,9999,9999,9999,2189250660
79,21,3,ISIP_8,16,9999,9999,9999,2190050392
79,21,3,ISIP_8,17,9999,9999,9999,2190850124
79,21,3,ISIP_8,18,9999,9999,9999,2191650928
79,21,3,ISIP_8,19,9999,9999,9999,2192450656
79,21,3,ISIP_8,20,9999,9999,9999,2193250392
79,21,3,ISIP_8,21,9999,9999,9999,2194050128
79,21,3,ISIP_8,22,9999,9999,9999,2194850912
79,21,3,ISIP_8,23,9999,9999,9999,2195650644
79,21,3,ISIP_8,24,9999,9999,9999,2196450376
79,21,3,ISIP_8,25,9999,9999,9999,2197250108
79,21,3,ISIP_8,26,9999,9999,9999,2198050908
79,21,3,ISIP_8,27,9999,9999,9999,2198850648
79,21,3,ISIP_8,28,9999,9999,9999,2199650380
79,21,3,ISIP_8,29,9999,9999,9999,2200450112
79,21,3,ISIP_8,30,9999,9999,9999,2201250896
79,21,3,ISIP_8,31,9999,9999,9999,2202050624
79,21,3,ISIP_8,32,9999,9999,9999,2202850352
79,21,3,ISIP_8,33,9999,9999,9999,2203650156
79,21,3,ISIP_8,34,9999,9999,9999,2204450880
79,21,3,ISIP_8,35,9999,9999,9999,2205250612
79,21,3,ISIP_8,36,9999,9999,9999,2206050412
79,21,3,ISIP_8,37,9999,9999,9999,2206850144
79,21,3,ISIP_8,38,9999,9999,9999,2207650920
79,21,3,ISIP_8,39,9999,9999,9999,2208450648
79,21,3,ISIP_8,40,9999,9999,9999,2209250376
79,21,3,ISIP_8,41,9999,9999,9999,2210050108
79,21,3,ISIP_8,42,9999,9999,9999,2210850908
79,21,3,ISIP_8,43,9999,9999,9999,2211650636
79,21,3,ISIP_8,44,9999,9999,9999,2212450364
79,21,3,ISIP_8,45,9999,9999,9999,2213250096
79,21,3,ISIP_8,46,9999,9999,9999,2214050872
79,21,3,ISIP_8,47,9999,9999,9999,2214850676
79,21,3,ISIP_8,48,9999,9999,9999,2215650404
79,21,3,ISIP_8,49,9999,9999,9999,2216450132
79,21,3,ISIP_8,50,9999,9999,9999,2217250932
79,21,3,ISIP_8,51,9999,9999,9999,2218050664
79,21,3,ISIP_8,52,9999,9999,9999,2218850392
79,21,3,ISIP_8,53,9999,9999,9999,2219650124
79,21,3,ISIP_8,54,9999,9999,9999,2220450900
79,21,3,ISIP_8,55,9999,9999,9999,2221250628
79,21,3,ISIP_8,56,9999,9999,9999,2222050356
79,21,3,ISIP_8,57,9999,9999,9999,2222850164
79,21,3,ISIP_8,58,9999,9999,9999,2223650888
79,21,3,ISIP_8,59,9999,9999,9999,2224450616
79,21,3,ISIP_8,60,9999,9999,9999,2225250420
79,21,3,ISIP_8,61,9999,9999,9999,2226050148
79,21,3,ISIP_8,62,9999,9999,9999,2226850928
79,21,3,ISIP_8,63,9999,9999,9999,2227650656
79,21,3,ISIP_8,64,9999,9999,9999,2228450384
79,21,3,ISIP_8,65,9999,9999,9999,2229250112
79,21,3,ISIP_8,66,9999,9999,9999,2230050912
79,21,3,ISIP_8,67,9999,9999,9999,2230850644
79,21,3,ISIP_8,68,9999,9999,9999,2231650372
79,21,3,ISIP_8,69,9999,9999,9999,2232450100
79,21,3,ISIP_8,70,9999,9999,9999,2233250876
79,21,3,ISIP_8,71,9999,9999,9999,2234050680
79,21,3,ISIP_8,72,9999,9999,9999,2234850408
79,21,3,ISIP_8,73,9999,9999,9999,2235650136
79,21,3,ISIP_8,74,9999,9999,9999,2236450864
79,21,3,ISIP_8,75,9999,9999,9999,2237250668
79,21,3,ISIP_8,76,9999,9999,9999,2238050396
79,21,3,ISIP_8,77,9999,9999,9999,2238850124
79,21,3,ISIP_8,78,9999,9999,9999,2239650900
79,21,3,ISIP_8,79,9999,9999,9999,2240450632
79,21,3,ISIP_8,80,9999,9999,9999,2241250360
79,21,3,ISIP_8,81,9999,9999,9999,2242050164
79,21,3,ISIP_8,82,9999,9999,9999,2242850888
79,21,3,ISIP_8,83,9999,9999,9999,2243650620
79,21,3,ISIP_8,84,9999,9999,9999,2244450424
79,21,3,ISIP_8,85,9999,9999,9999,2245250152
79,21,3,ISIP_8,86,9999,9999,9999,2246050928
79,21,3,ISIP_8,87,9999,9999,9999,2246850656
79,21,3,ISIP_8,88,9999,9999,9999,2247650388
79,21,3,ISIP_8,89,9999,9999,9999,2248450116
79,21,3,ISIP_8,90,9999,9999,9999,2249250916
79,21,3,ISIP_8,91,9999,9999,9999,2250050644
79,21,3,ISIP_8,92,9999,9999,9999,2250850376
79,21,3,ISIP_8,93,9999,9999,9999,2251650104
79,21,3,ISIP_8,94,9999,9999,9999,2252450932
79,21,3,ISIP_8,95,9999,9999,9999,2253250640
79,21,3,ISIP_8,96,9999,9999,9999,2254050368
79,21,3,ISIP_8,97,9999,9999,9999,2254850100
79,21,3,ISIP_8,98,9999,9999,9999,2255650900
79,21,3,ISIP_8,99,9999,9999,9999,2256450628
79,21,3,ISIP_8,100,9999,9999,9999,2257250360
79,21,3,ISIP_8,101,9999,9999,9999,2258050160
79,21,3,ISIP_8,102,9999,9999,9999,2258850864
79,21,3,ISIP_8,103,9999,9999,9999,2259650668
79,21,3,ISIP_8,104,9999,9999,9999,2260450416
79,21,3,ISIP_8,105,9999,9999,9999,2261250140
79,21,3,ISIP_8,106,9999,9999,9999,2262050864
79,21,3,ISIP_8,107,9999,9999,9999,2262850648
79,21,3,ISIP_8,108,9999,9999,9999,2263650376
79,21,3,ISIP_8,109,9999,9999,9999,2264450112
79,21,3,ISIP_8,110,9999,9999,9999,2265250904
79,21,3,ISIP_8,111,9999,9999,9999,2266050632
79,21,3,ISIP_8,112,9999,9999,9999,2266850420
79,21,3,ISIP_8,113,9999,9999,9999,2267650152
79,21,3,ISIP_8,114,9999,9999,9999,2268450876
79,21,3,ISIP_8,115,9999,9999,9999,2269250608
79,21,3,ISIP_8,116,9999,9999,9999,2270050408
79,21,3,ISIP_8,117,9999,9999,9999,2270850140
79,21,3,ISIP_8,118,9999,9999,9999,2271650916
79,21,3,ISIP_8,119,9999,9999,9999,2272450644
79,21,3,ISIP_8,120,9999,9999,9999,2273250372
79,21,3,ISIP_8,121,9999,9999,9999,2274050100
79,21,3,ISIP_8,122,9999,9999,9999,2274850904
79,21,3,ISIP_8,123,9999,9999,9999,2275650632
79,21,3,ISIP_8,124,9999,9999,9999,2276450360
79,21,3,ISIP_8,125,9999,9999,9999,2277250164
79,21,3,ISIP_8,126,9999,9999,9999,2278050864
79,21,3,ISIP_8,127,9999,9999,9999,2278850672
79,21,3,ISIP_8,128,9999,9999,9999,2279650400
79,21,3,ISIP_8,129,9999,9999,9999,2280450128
79,21,3,ISIP_8,130,9999,9999,9999,2281250928
79,21,3,ISIP_8,131,9999,9999,9999,2282050656
79,21,3,ISIP_8,132,9999,9999,9999,2282850388
79,21,3,ISIP_8,133,9999,9999,9999,2283650116
79,21,3,ISIP_8,134,9999,9999,9999,2284450892
79,21,3,ISIP_8,135,9999,9999,9999,2285250620
79,21,3,ISIP_8,136,9999,9999,9999,2286050352
79,21,3,ISIP_8,137,9999,9999,9999,2286850156
79,21,3,ISIP_8,138,9999,9999,9999,2287650880
79,21,3,ISIP_8,139,9999,9999,9999,2288450608
79,21,3,ISIP_8,140,9999,9999,9999,2289250412
79,21,3,ISIP_8,141,9999,9999,9999,2290050144
79,21,3,ISIP_8,142,9999,9999,9999,2290850920
79,21,3,ISIP_8,143,9999,9999,9999,2291650648
79,21,3,ISIP_8,144,9999,9999,9999,2292450376
79,21,3,ISIP_8,145,9999,9999,9999,2293250104
79,21,3,ISIP_8,146,9999,9999,9999,2294050904
79,21,3,ISIP_8,147,9999,9999,9999,2294850632
79,21,3,ISIP_8,148,9999,9999,9999,2295650364
79,21,3,ISIP_8,149,9999,9999,9999,2296450168
79,22,11,Pattern_Practice,0,5,42,127,2405050908
79,22,11,Pattern_Practice,1,5,42,127,2405550696
79,22,11,Pattern_Practice,2,5,42,127,2406051164
79,22,11,Pattern_Practice,3,5,42,127,2406550880
79,22,11,Pattern_Practice,4,5,42,127,2407050744
79,22,11,Pattern_Practice,5,1,48,40,2407065456
79,22,11,Pattern_Practice,6,1,38,33,2407549748
79,22,11,Pattern_Practice,7,5,42,127,2407552080
79,22,11,Pattern_Practice,8,1,48,32,2407575316
79,22,11,Pattern_Practice,9,1,48,17,2407800284
79,22,11,Pattern_Practice,10,5,42,127,2408051048
79,22,11,Pattern_Practice,11,1,48,33,2408068004
79,22,11,Pattern_Practice,12,1,48,14,2408257396
79,22,11,Pattern_Practice,13,1,48,44,2408539168
79,22,11,Pattern_Practice,14,5,42,127,2408550644
79,22,11,Pattern_Practice,15,1,38,37,2408586968
79,22,11,Pattern_Practice,16,1,48,44,2409047652
79,22,11,Pattern_Practice,17,5,42,127,2409050748
79,22,11,Pattern_Practice,18,1,48,24,2409303776
79,22,11,Pattern_Practice,19,1,48,41,2409542984
79,22,11,Pattern_Practice,20,5,42,127,2409551096
79,22,11,Pattern_Practice,21,1,38,32,2409631180
79,22,11,Pattern_Practice,22,1,48,43,2410033668
79,22,11,Pattern_Practice,23,5,42,127,2410050904
79,22,11,Pattern_Practice,24,1,48,21,2410272292
79,22,11,Pattern_Practice,25,1,48,38,2410534536
79,22,11,Pattern_Practice,26,5,42,127,2410550652
79,22,11,Pattern_Practice,27,1,38,30,2410619892
79,22,11,Pattern_Practice,28,1,48,42,2411029484
79,22,11,Pattern_Practice,29,5,42,127,2411051512
79,22,11,Pattern_Practice,30,1,48,27,2411263152
79,22,11,Pattern_Practice,31,5,42,127,2411551112
79,22,11,Pattern_Practice,32,1,48,37,2411567624
79,22,11,Pattern_Practice,33,1,38,40,2411604700
79,22,11,Pattern_Practice,34,1,48,27,2411858468
79,22,11,Pattern_Practice,35,5,42,127,2412050864
79,22,11,Pattern_Practice,36,1,48,33,2412091980
79,22,11,Pattern_Practice,37,1,48,22,2412274992
79,22,11,Pattern_Practice,38,5,42,127,2412550512
79,22,11,Pattern_Practice,39,1,48,45,2412560664
79,22,11,Pattern_Practice,40,1,38,48,2412590000
79,22,11,Pattern_Practice,41,5,42,127,2413051368
79,22,11,Pattern_Practice,42,1,48,43,2413053456
79,22,11,Pattern_Practice,43,1,48,23,2413296164
79,22,11,Pattern_Practice,44,5,42,127,2413550892
79,22,11,Pattern_Practice,45,1,48,38,2413555284
79,22,11,Pattern_Practice,46,1,38,42,2413578456
79,22,11,Pattern_Practice,47,1,38,19,2413653152
79,22,11,Pattern_Practice,48,1,48,37,2414042996
79,22,11,Pattern_Practice,49,5,42,127,2414050660
79,22,11,Pattern_Practice,50,1,48,21,2414275264
79,22,11,Pattern_Practice,51,5,42,127,2414551460
79,22,11,Pattern_Practice,52,1,48,40,2414554136
79,22,11,Pattern_Practice,53,1,38,41,2414582012
79,22,11,Pattern_Practice,54,1,48,19,2414629808
79,22,11,Pattern_Practice,55,1,48,40,2415048576
79,22,11,Pattern_Practice,56,5,42,127,2415051080
79,22,11,Pattern_Practice,57,1,48,19,2415282344
79,22,11,Pattern_Practice,58,1,48,35,2415526632
79,22,11,Pattern_Practice,59,5,42,127,2415550680
79,22,11,Pattern_Practice,60,1,38,44,2415570772
79,22,11,Pattern_Practice,61,1,48,32,2415829860
79,22,11,Pattern_Practice,62,5,42,127,2416050560
79,22,11,Pattern_Practice,63,1,48,38,2416074396
79,22,11,Pattern_Practice,64,1,48,31,2416273440
79,22,11,Pattern_Practice,65,1,38,46,2416530820
79,22,11,Pattern_Practice,66,1,48,43,2416544336
79,22,11,Pattern_Practice,67,5,42,127,2416551476
79,22,11,Pattern_Practice,68,1,38,32,2416591752
79,22,11,Pattern_Practice,69,5,42,127,2417050916
79,22,11,Pattern_Practice,70,1,48,47,2417053660
79,22,11,Pattern_Practice,71,1,48,23,2417270956
79,22,11,Pattern_Practice,72,1,48,43,2417543372
79,22,11,Pattern_Practice,73,5,42,127,2417550736
79,22,11,Pattern_Practice,74,1,38,51,2417560060
79,22,11,Pattern_Practice,75,1,38,21,2417640792
79,22,11,Pattern_Practice,76,5,42,127,2418050528
79,22,11,Pattern_Practice,77,1,48,47,2418074068
79,22,11,Pattern_Practice,78,1,48,24,2418266824
79,22,11,Pattern_Practice,79,5,42,127,2418551248
79,22,11,Pattern_Practice,80,1,38,56,2418553840
79,22,11,Pattern_Practice,81,1,48,47,2418572972
79,22,11,Pattern_Practice,82,1,38,35,2418610720
79,22,11,Pattern_Practice,83,5,42,127,2419050884
79,22,11,Pattern_Practice,84,1,48,46,2419067840
79,22,11,Pattern_Practice,85,1,48,22,2419259924
79,22,11,Pattern_Practice,86,1,48,42,2419528900
79,22,11,Pattern_Practice,87,5,42,127,2419550476
79,22,11,Pattern_Practice,88,1,38,47,2419554188
79,22,11,Pattern_Practice,89,1,38,17,2419642176
79,22,11,Pattern_Practice,90,1,48,29,2419774200
79,22,11,Pattern_Practice,91,1,48,44,2420022756
79,22,11,Pattern_Practice,92,5,42,127,2420051588
79,22,11,Pattern_Practice,93,1,48,39,2420271632
79,22,11,Pattern_Practice,94,1,38,52,2420518540
79,22,11,Pattern_Practice,95,1,48,42,2420528548
79,22,11,Pattern_Practice,96,5,42,127,2420550944
79,22,11,Pattern_Practice,97,1,38,22,2420601172
79,22,11,Pattern_Practice,98,1,48,42,2420975884
79,22,11,Pattern_Practice,99,5,42,127,2421050812
79,22,11,Pattern_Practice,100,1,48,25,2421213236
79,22,11,Pattern_Practice,101,1,48,45,2421536240
79,22,11,Pattern_Practice,102,5,42,127,2421550412
79,22,11,Pattern_Practice,103,1,38,51,2421588088
79,22,11,Pattern_Practice,104,5,42,127,2422051496
79,22,11,Pattern_Practice,105,1,48,45,2422061352
79,22,11,Pattern_Practice,106,1,48,40,2422321276
79,22,11,Pattern_Practice,107,5,42,127,2422551020
79,22,11,Pattern_Practice,108,1,48,49,2422573516
79,22,11,Pattern_Practice,109,1,38,49,2422582168
79,22,11,Pattern_Practice,110,1,38,31,2422647596
79,22,11,Pattern_Practice,111,5,42,127,2423050624
79,22,11,Pattern_Practice,112,1,48,47,2423067680
79,22,11,Pattern_Practice,113,1,38,54,2423360592
79,22,11,Pattern_Practice,114,5,42,127,2423551268
79,22,11,Pattern_Practice,115,1,48,44,2423570692
79,22,11,Pattern_Practice,116,1,48,46,2423880084
79,22,11,Pattern_Practice,117,5,42,127,2424051312
79,22,11,Pattern_Practice,118,1,48,44,2424089764
79,22,11,Pattern_Practice,119,1,48,37,2424339864
79,22,11,Pattern_Practice,120,5,42,127,2424550736
79,22,11,Pattern_Practice,121,1,48,49,2424555728
79,22,11,Pattern_Practice,122,1,38,53,2424595724
79,22,11,Pattern_Practice,123,5,42,127,2425050508
79,22,11,Pattern_Practice,124,1,48,50,2425090356
79,22,11,Pattern_Practice,125,1,48,38,2425299048
79,22,11,Pattern_Practice,126,5,42,127,2425551380
79,22,11,Pattern_Practice,127,1,48,47,2425560184
79,22,11,Pattern_Practice,128,1,38,51,2425599580
79,22,11,Pattern_Practice,129,5,42,127,2426050876
79,22,11,Pattern_Practice,130,1,48,48,2426069404
79,22,11,Pattern_Practice,131,1,48,37,2426304572
79,22,11,Pattern_Practice,132,1,48,45,2426532776
79,22,11,Pattern_Practice,133,5,42,127,2426550616
79,22,11,Pattern_Practice,134,1,38,54,2426578196
79,22,11,Pattern_Practice,135,1,38,19,2426660460
79,22,11,Pattern_Practice,136,1,48,43,2427018892
79,22,11,Pattern_Practice,137,5,42,127,2427051316
79,22,11,Pattern_Practice,138,1,48,33,2427257296
79,22,11,Pattern_Practice,139,1,48,42,2427526420
79,22,11,Pattern_Practice,140,5,42,127,2427551284
79,22,11,Pattern_Practice,141,1,38,30,2427626192
79,22,11,Pattern_Practice,142,1,48,40,2427919780
79,22,11,Pattern_Practice,143,5,42,127,2428050868
79,22,11,Pattern_Practice,144,1,48,45,2428168952
79,22,11,Pattern_Practice,145,1,48,48,2428545288
79,22,11,Pattern_Practice,146,5,42,127,2428550484
79,22,11,Pattern_Practice,147,5,42,127,2429051228
79,22,11,Pattern_Practice,148,1,48,48,2429105060
79,22,11,Pattern_Practice,149,1,48,29,2429299684
79,22,11,Pattern_Practice,150,5,42,127,2429551124
79,22,11,Pattern_Practice,151,1,48,50,2429552092
79,22,11,Pattern_Practice,152,5,42,127,2430050524
79,22,11,Pattern_Practice,153,1,38,46,2430089248
79,22,11,Pattern_Practice,154,1,48,46,2430091768
79,22,11,Pattern_Practice,155,1,48,35,2430317108
79,22,11,Pattern_Practice,156,5,42,127,2430551416
79,22,11,Pattern_Practice,157,1,48,51,2430554084
79,22,11,Pattern_Practice,158,1,48,14,2430694308
79,22,11,Pattern_Practice,159,1,38,52,2431037512
79,22,11,Pattern_Practice,160,5,42,127,2431051232
79,22,11,Pattern_Practice,161,5,42,127,2431551080
79,22,11,Pattern_Practice,162,1,48,49,2431555248
79,22,11,Pattern_Practice,163,1,48,22,2431777476
79,22,11,Pattern_Practice,164,5,42,127,2432050456
79,22,11,Pattern_Practice,165,1,48,47,2432051424
79,22,11,Pattern_Practice,166,1,48,40,2432254988
79,22,11,Pattern_Practice,167,1,48,48,2432549280
79,22,11,Pattern_Practice,168,5,42,127,2432551320
79,22,11,Pattern_Practice,169,1,48,44,2432775600
79,22,11,Pattern_Practice,170,1,48,58,2433036572
79,22,11,Pattern_Practice,171,5,42,127,2433051212
79,22,11,Pattern_Practice,172,1,38,63,2433528636
79,22,11,Pattern_Practice,173,5,42,127,2433550660
79,22,11,Pattern_Practice,174,1,48,29,2433647436
79,22,11,Pattern_Practice,175,1,48,53,2433986420
79,22,11,Pattern_Practice,176,5,42,127,2434050484
79,22,11,Pattern_Practice,177,1,48,32,2434234096
79,22,11,Pattern_Practice,178,1,48,54,2434540920
79,22,11,Pattern_Practice,179,5,42,127,2434551128
79,22,11,Pattern_Practice,180,1,38,44,2434584864
79,22,11,Pattern_Practice,181,5,42,127,2435051016
79,22,11,Pattern_Practice,182,1,48,54,2435080692
79,22,11,Pattern_Practice,183,1,48,43,2435271204
79,22,11,Pattern_Practice,184,5,42,127,2435550688
79,22,11,Pattern_Practice,185,1,38,50,2435568320
79,22,11,Pattern_Practice,186,1,48,56,2435589992
79,22,11,Pattern_Practice,187,5,42,127,2436051236
79,22,11,Pattern_Practice,188,1,48,55,2436086516
79,22,11,Pattern_Practice,189,1,48,43,2436307396
79,22,11,Pattern_Practice,190,1,48,47,2436541364
79,22,11,Pattern_Practice,191,5,42,127,2436550976
79,22,11,Pattern_Practice,192,1,48,48,2436760320
79,22,11,Pattern_Practice,193,1,48,46,2437039544
79,22,11,Pattern_Practice,194,5,42,127,2437050872
79,22,11,Pattern_Practice,195,1,48,46,2437241896
79,22,11,Pattern_Practice,196,1,48,62,2437536672
79,22,11,Pattern_Practice,197,5,42,127,2437550396
79,22,11,Pattern_Practice,198,1,38,52,2437559576
79,22,11,Pattern_Practice,199,5,42,127,2438051236
79,22,11,Pattern_Practice,200,1,48,55,2438060412
79,22,11,Pattern_Practice,201,1,48,40,2438290044
79,22,11,Pattern_Practice,202,1,48,56,2438548860
79,22,11,Pattern_Practice,203,5,42,127,2438550824
79,22,11,Pattern_Practice,204,1,38,58,2438589024
79,22,11,Pattern_Practice,205,1,48,49,2438967064
79,22,11,Pattern_Practice,206,5,42,127,2439050500
79,22,11,Pattern_Practice,207,1,48,46,2439238304
79,22,11,Pattern_Practice,208,5,42,127,2439551224
79,22,11,Pattern_Practice,209,1,48,60,2439593760
79,22,11,Pattern_Practice,210,1,38,49,2439652760
79,22,11,Pattern_Practice,211,5,42,127,2440051108
79,22,11,Pattern_Practice,212,1,48,56,2440135836
79,22,11,Pattern_Practice,213,1,48,42,2440358360
79,22,11,Pattern_Practice,214,5,42,127,2440550860
79,22,11,Pattern_Practice,215,1,48,46,2440613292
79,22,11,Pattern_Practice,216,1,48,51,2440836640
79,22,11,Pattern_Practice,217,5,42,127,2441050604
79,22,11,Pattern_Practice,218,1,48,56,2441116404
79,22,11,Pattern_Practice,219,1,48,50,2441327864
79,22,11,Pattern_Practice,220,5,42,127,2441551176
79,22,11,Pattern_Practice,221,1,38,55,2441592292
79,22,11,Pattern_Practice,222,1,48,63,2441598260
79,22,11,Pattern_Practice,223,5,42,127,2442050972
79,22,11,Pattern_Practice,224,1,48,54,2442074292
79,22,11,Pattern_Practice,225,1,48,44,2442289632
79,22,11,Pattern_Practice,226,5,42,127,2442550720
79,22,11,Pattern_Practice,227,1,38,53,2442576428
79,22,11,Pattern_Practice,228,1,48,54,2442580744
79,22,11,Pattern_Practice,229,5,42,127,2443051340
79,22,11,Pattern_Practice,230,1,48,54,2443105696
79,22,11,Pattern_Practice,231,1,48,46,2443329340
79,22,11,Pattern_Practice,232,5,42,127,2443551012
79,22,11,Pattern_Practice,233,1,38,49,2443606268
79,22,11,Pattern_Practice,234,1,48,55,2443641028
79,22,11,Pattern_Practice,235,5,42,127,2444050784
79,22,11,Pattern_Practice,236,1,48,54,2444117704
79,22,11,Pattern_Practice,237,1,48,43,2444329608
79,22,11,Pattern_Practice,238,5,42,127,2444550436
79,22,11,Pattern_Practice,239,1,48,53,2444570552
79,22,11,Pattern_Practice,240,1,48,50,2444782136
79,22,11,Pattern_Practice,0,9999,9999,9999,2405048396
79,22,11,Pattern_Practice,1,9999,9999,9999,2405548112
79,22,11,Pattern_Practice,2,9999,9999,9999,2406048876
79,22,11,Pattern_Practice,3,9999,9999,9999,2406548592
79,22,11,Pattern_Practice,4,9999,9999,9999,2407048308
79,22,11,Pattern_Practice,5,9999,9999,9999,2407548976
79,22,11,Pattern_Practice,6,9999,9999,9999,2408048688
79,22,11,Pattern_Practice,7,9999,9999,9999,2408548432
79,22,11,Pattern_Practice,8,9999,9999,9999,2409048164
79,22,11,Pattern_Practice,9,9999,9999,9999,2409548884
79,22,11,Pattern_Practice,10,9999,9999,9999,2410048620
79,22,11,Pattern_Practice,11,9999,9999,9999,2410548292
79,22,11,Pattern_Practice,12,9999,9999,9999,2411049076
79,22,11,Pattern_Practice,13,9999,9999,9999,2411548752
79,22,11,Pattern_Practice,14,9999,9999,9999,2412048504
79,22,11,Pattern_Practice,15,9999,9999,9999,2412548152
79,22,11,Pattern_Practice,16,9999,9999,9999,2413048932
79,22,11,Pattern_Practice,17,9999,9999,9999,2413548608
79,22,11,Pattern_Practice,18,9999,9999,9999,2414048376
79,22,11,Pattern_Practice,19,9999,9999,9999,2414549100
79,22,11,Pattern_Practice,20,9999,9999,9999,2415048796
79,22,11,Pattern_Practice,21,9999,9999,9999,2415548468
79,22,11,Pattern_Practice,22,9999,9999,9999,2416048200
79,22,11,Pattern_Practice,23,9999,9999,9999,2416548968
79,22,11,Pattern_Practice,24,9999,9999,9999,2417048632
79,22,11,Pattern_Practice,25,9999,9999,9999,2417548376
79,22,11,Pattern_Practice,26,9999,9999,9999,2418048092
79,22,11,Pattern_Practice,27,9999,9999,9999,2418548812
79,22,11,Pattern_Practice,28,9999,9999,9999,2419048524
79,22,11,Pattern_Practice,29,9999,9999,9999,2419548264
79,22,11,Pattern_Practice,30,9999,9999,9999,2420049004
79,22,11,Pattern_Practice,31,9999,9999,9999,2420548656
79,22,11,Pattern_Practice,32,9999,9999,9999,2421048376
79,22,11,Pattern_Practice,33,9999,9999,9999,2421548124
79,22,11,Pattern_Practice,34,9999,9999,9999,2422048836
79,22,11,Pattern_Practice,35,9999,9999,9999,2422548584
79,22,11,Pattern_Practice,36,9999,9999,9999,2423048260
79,22,11,Pattern_Practice,37,9999,9999,9999,2423548980
79,22,11,Pattern_Practice,38,9999,9999,9999,2424048728
79,22,11,Pattern_Practice,39,9999,9999,9999,2424548452
79,22,11,Pattern_Practice,40,9999,9999,9999,2425048148
79,22,11,Pattern_Practice,41,9999,9999,9999,2425548868
79,22,11,Pattern_Practice,42,9999,9999,9999,2426048588
79,22,11,Pattern_Practice,43,9999,9999,9999,2426548332
79,22,11,Pattern_Practice,44,9999,9999,9999,2427049028
79,22,11,Pattern_Practice,45,9999,9999,9999,2427548776
79,22,11,Pattern_Practice,46,9999,9999,9999,2428048432
79,22,11,Pattern_Practice,47,9999,9999,9999,2428548196
79,22,11,Pattern_Practice,48,9999,9999,9999,2429048944
79,22,11,Pattern_Practice,49,9999,9999,9999,2429548616
79,22,11,Pattern_Practice,50,9999,9999,9999,2430048308
79,22,11,Pattern_Practice,51,9999,9999,9999,2430549056
79,22,11,Pattern_Practice,52,9999,9999,9999,2431048796
79,22,11,Pattern_Practice,53,9999,9999,9999,2431548496
79,22,11,Pattern_Practice,54,9999,9999,9999,2432048244
79,22,11,Pattern_Practice,55,9999,9999,9999,2432548996
79,22,11,Pattern_Practice,56,9999,9999,9999,2433048632
79,22,11,Pattern_Practice,57,9999,9999,9999,2433548376
79,22,11,Pattern_Practice,58,9999,9999,9999,2434048120
79,22,11,Pattern_Practice,59,9999,9999,9999,2434548840
79,22,11,Pattern_Practice,60,9999,9999,9999,2435048508
79,22,11,Pattern_Practice,61,9999,9999,9999,2435548252
79,22,11,Pattern_Practice,62,9999,9999,9999,2436048948
79,22,11,Pattern_Practice,63,9999,9999,9999,2436548688
79,22,11,Pattern_Practice,64,9999,9999,9999,2437048436
79,22,11,Pattern_Practice,65,9999,9999,9999,2437548108
79,22,11,Pattern_Practice,66,9999,9999,9999,2438048872
79,22,11,Pattern_Practice,67,9999,9999,9999,2438548576
79,22,11,Pattern_Practice,68,9999,9999,9999,2439048288
79,22,11,Pattern_Practice,69,9999,9999,9999,2439549012
79,22,11,Pattern_Practice,70,9999,9999,9999,2440048748
79,22,11,Pattern_Practice,71,9999,9999,9999,2440548424
79,22,11,Pattern_Practice,72,9999,9999,9999,2441048168
79,22,11,Pattern_Practice,73,9999,9999,9999,2441548888
79,22,11,Pattern_Practice,74,9999,9999,9999,2442048612
79,22,11,Pattern_Practice,75,9999,9999,9999,2442548284
79,22,11,Pattern_Practice,76,9999,9999,9999,2443049052
79,22,11,Pattern_Practice,77,9999,9999,9999,2443548724
79,22,11,Pattern_Practice,78,9999,9999,9999,2444048496
79,22,11,Pattern_Practice,79,9999,9999,9999,2444548148
79,23,13,Improv_Metronome,0,5,42,127,2495665544
79,23,13,Improv_Metronome,1,5,42,127,2496166380
79,23,13,Improv_Metronome,2,5,42,127,2496666172
79,23,13,Improv_Metronome,3,5,42,127,2497165740
79,23,13,Improv_Metronome,4,5,42,127,2497666356
79,23,13,Improv_Metronome,5,1,48,43,2497690416
79,23,13,Improv_Metronome,6,1,48,29,2497919452
79,23,13,Improv_Metronome,7,1,38,44,2498119692
79,23,13,Improv_Metronome,8,1,38,36,2498165784
79,23,13,Improv_Metronome,9,5,42,127,2498167792
79,23,13,Improv_Metronome,10,1,48,50,2498168836
79,23,13,Improv_Metronome,11,1,48,23,2498233196
79,23,13,Improv_Metronome,12,1,48,54,2498660080
79,23,13,Improv_Metronome,13,5,42,127,2498665876
79,23,13,Improv_Metronome,14,1,48,24,2498814532
79,23,13,Improv_Metronome,15,1,38,54,2499161696
79,23,13,Improv_Metronome,16,5,42,127,2499165548
79,23,13,Improv_Metronome,17,1,48,59,2499173976
79,23,13,Improv_Metronome,18,1,38,38,2499207244
79,23,13,Improv_Metronome,19,5,42,127,2499666240
79,23,13,Improv_Metronome,20,1,48,56,2499692244
79,23,13,Improv_Metronome,21,1,48,41,2499875800
79,23,13,Improv_Metronome,22,5,42,127,2500166136
79,23,13,Improv_Metronome,23,1,38,58,2500173444
79,23,13,Improv_Metronome,24,1,48,62,2500207760
79,23,13,Improv_Metronome,25,1,38,38,2500220076
79,23,13,Improv_Metronome,26,5,42,127,2500665688
79,23,13,Improv_Metronome,27,1,48,51,2500689004
79,23,13,Improv_Metronome,28,1,48,33,2500872608
79,23,13,Improv_Metronome,29,1,38,59,2501157992
79,23,13,Improv_Metronome,30,5,42,127,2501165428
79,23,13,Improv_Metronome,31,1,38,41,2501194632
79,23,13,Improv_Metronome,32,1,48,59,2501198504
79,23,13,Improv_Metronome,33,5,42,127,2501666184
79,23,13,Improv_Metronome,34,1,48,48,2501684184
79,23,13,Improv_Metronome,35,1,48,34,2501871604
79,23,13,Improv_Metronome,36,5,42,127,2502165928
79,23,13,Improv_Metronome,37,1,48,54,2502179296
79,23,13,Improv_Metronome,38,1,38,60,2502188700
79,23,13,Improv_Metronome,39,1,38,22,2502260260
79,23,13,Improv_Metronome,40,5,42,127,2502665528
79,23,13,Improv_Metronome,41,1,48,51,2502698592
79,23,13,Improv_Metronome,42,1,48,38,2502907256
79,23,13,Improv_Metronome,43,5,42,127,2503166248
79,23,13,Improv_Metronome,44,1,38,56,2503181180
79,23,13,Improv_Metronome,45,1,48,56,2503210076
79,23,13,Improv_Metronome,46,1,38,40,2503226280
79,23,13,Improv_Metronome,47,5,42,127,2503666036
79,23,13,Improv_Metronome,48,1,48,51,2503717648
79,23,13,Improv_Metronome,49,1,48,37,2503916364
79,23,13,Improv_Metronome,50,5,42,127,2504165784
79,23,13,Improv_Metronome,51,1,38,51,2504190592
79,23,13,Improv_Metronome,52,1,48,52,2504213052
79,23,13,Improv_Metronome,53,1,38,31,2504246088
79,23,13,Improv_Metronome,54,5,42,127,2504665420
79,23,13,Improv_Metronome,55,1,48,51,2504731920
79,23,13,Improv_Metronome,56,1,48,39,2504910808
79,23,13,Improv_Metronome,57,5,42,127,2505166288
79,23,13,Improv_Metronome,58,1,38,53,2505184296
79,23,13,Improv_Metronome,59,1,48,58,2505223620
79,23,13,Improv_Metronome,60,1,38,30,2505240604
79,23,13,Improv_Metronome,61,5,42,127,2505666140
79,23,13,Improv_Metronome,62,1,48,54,2505718104
79,23,13,Improv_Metronome,63,1,48,45,2505910412
79,23,13,Improv_Metronome,64,5,42,127,2506165516
79,23,13,Improv_Metronome,65,1,48,54,2506196236
79,23,13,Improv_Metronome,66,1,38,47,2506205564
79,23,13,Improv_Metronome,67,1,48,26,2506254536
79,23,13,Improv_Metronome,68,5,42,127,2506666336
79,23,13,Improv_Metronome,69,1,48,52,2506710444
79,23,13,Improv_Metronome,70,1,48,26,2506903124
79,23,13,Improv_Metronome,71,1,48,51,2507161552
79,23,13,Improv_Metronome,72,5,42,127,2507166300
79,23,13,Improv_Metronome,73,1,38,51,2507179220
79,23,13,Improv_Metronome,74,5,42,127,2507666188
79,23,13,Improv_Metronome,75,1,48,54,2507667228
79,23,13,Improv_Metronome,76,1,48,42,2507897148
79,23,13,Improv_Metronome,77,1,48,46,2508148844
79,23,13,Improv_Metronome,78,1,38,54,2508163652
79,23,13,Improv_Metronome,79,5,42,127,2508166956
79,23,13,Improv_Metronome,80,1,48,34,2508193028
79,23,13,Improv_Metronome,81,1,38,31,2508214092
79,23,13,Improv_Metronome,82,1,48,48,2508644120
79,23,13,Improv_Metronome,83,5,42,127,2508666148
79,23,13,Improv_Metronome,84,1,48,37,2508848344
79,23,13,Improv_Metronome,85,5,42,127,2509166124
79,23,13,Improv_Metronome,86,1,48,55,2509177096
79,23,13,Improv_Metronome,87,1,38,51,2509180292
79,23,13,Improv_Metronome,88,1,38,22,2509246316
79,23,13,Improv_Metronome,89,1,48,55,2509655104
79,23,13,Improv_Metronome,90,5,42,127,2509665604
79,23,13,Improv_Metronome,91,1,48,35,2509855352
79,23,13,Improv_Metronome,92,1,38,54,2510157464
79,23,13,Improv_Metronome,93,5,42,127,2510166252
79,23,13,Improv_Metronome,94,1,48,52,2510167216
79,23,13,Improv_Metronome,95,1,38,31,2510213100
79,23,13,Improv_Metronome,96,5,42,127,2510666192
79,23,13,Improv_Metronome,97,1,48,54,2510671404
79,23,13,Improv_Metronome,98,1,48,36,2510899016
79,23,13,Improv_Metronome,99,1,48,48,2511162832
79,23,13,Improv_Metronome,100,5,42,127,2511166080
79,23,13,Improv_Metronome,101,1,38,54,2511177208
79,23,13,Improv_Metronome,102,1,38,30,2511250112
79,23,13,Improv_Metronome,103,5,42,127,2511665656
79,23,13,Improv_Metronome,104,1,48,57,2511701164
79,23,13,Improv_Metronome,105,1,48,43,2511894512
79,23,13,Improv_Metronome,106,5,42,127,2512166224
79,23,13,Improv_Metronome,107,1,48,57,2512182880
79,23,13,Improv_Metronome,108,1,38,53,2512186224
79,23,13,Improv_Metronome,109,1,38,38,2512227192
79,23,13,Improv_Metronome,110,5,42,127,2512666076
79,23,13,Improv_Metronome,111,1,48,51,2512675104
79,23,13,Improv_Metronome,112,1,48,41,2512882120
79,23,13,Improv_Metronome,113,1,38,54,2513108388
79,23,13,Improv_Metronome,114,1,38,36,2513153168
79,23,13,Improv_Metronome,115,5,42,127,2513165544
79,23,13,Improv_Metronome,116,1,48,59,2513173396
79,23,13,Improv_Metronome,117,5,42,127,2513666480
79,23,13,Improv_Metronome,118,1,48,57,2513683308
79,23,13,Improv_Metronome,119,1,48,41,2513893472
79,23,13,Improv_Metronome,120,5,42,127,2514166004
79,23,13,Improv_Metronome,121,1,38,52,2514166972
79,23,13,Improv_Metronome,122,1,48,59,2514186768
79,23,13,Improv_Metronome,123,1,38,24,2514228660
79,23,13,Improv_Metronome,124,1,48,57,2514662080
79,23,13,Improv_Metronome,125,5,42,127,2514666228
79,23,13,Improv_Metronome,126,1,48,39,2514881336
79,23,13,Improv_Metronome,127,1,38,62,2515155476
79,23,13,Improv_Metronome,128,1,48,59,2515162560
79,23,13,Improv_Metronome,129,5,42,127,2515165436
79,23,13,Improv_Metronome,130,1,48,59,2515651756
79,23,13,Improv_Metronome,131,5,42,127,2515666228
79,23,13,Improv_Metronome,132,1,48,42,2515864952
79,23,13,Improv_Metronome,133,1,38,60,2516162420
79,23,13,Improv_Metronome,134,1,48,53,2516165736
79,23,13,Improv_Metronome,135,5,42,127,2516167372
79,23,13,Improv_Metronome,136,1,48,56,2516659380
79,23,13,Improv_Metronome,137,5,42,127,2516665992
79,23,13,Improv_Metronome,138,1,48,50,2516902192
79,23,13,Improv_Metronome,139,5,42,127,2517165300
79,23,13,Improv_Metronome,140,1,48,54,2517180536
79,23,13,Improv_Metronome,141,1,38,56,2517184404
79,23,13,Improv_Metronome,142,5,42,127,2517666144
79,23,13,Improv_Metronome,143,1,48,55,2517685716
79,23,13,Improv_Metronome,144,1,48,43,2517893732
79,23,13,Improv_Metronome,145,1,38,67,2518165364
79,23,13,Improv_Metronome,146,5,42,127,2518168276
79,23,13,Improv_Metronome,147,1,48,54,2518197352
79,23,13,Improv_Metronome,148,1,38,38,2518229192
79,23,13,Improv_Metronome,149,5,42,127,2518665528
79,23,13,Improv_Metronome,150,1,48,55,2518684648
79,23,13,Improv_Metronome,151,1,48,40,2518914512
79,23,13,Improv_Metronome,152,5,42,127,2519166396
79,23,13,Improv_Metronome,153,1,48,52,2519195616
79,23,13,Improv_Metronome,154,1,38,67,2519212280
79,23,13,Improv_Metronome,155,5,42,127,2519666056
79,23,13,Improv_Metronome,156,1,48,48,2519675308
79,23,13,Improv_Metronome,157,1,48,44,2519911148
79,23,13,Improv_Metronome,158,5,42,127,2520165804
79,23,13,Improv_Metronome,159,1,48,53,2520181192
79,23,13,Improv_Metronome,160,1,38,63,2520187676
79,23,13,Improv_Metronome,161,5,42,127,2520665304
79,23,13,Improv_Metronome,162,1,48,47,2520754888
79,23,13,Improv_Metronome,163,1,48,45,2520962308
79,23,13,Improv_Metronome,164,5,42,127,2521166096
79,23,13,Improv_Metronome,165,1,38,56,2521193972
79,23,13,Improv_Metronome,166,1,48,62,2521233072
79,23,13,Improv_Metronome,167,1,38,26,2521259308
79,23,13,Improv_Metronome,168,5,42,127,2521665872
79,23,13,Improv_Metronome,169,1,48,58,2521715964
79,23,13,Improv_Metronome,170,1,48,46,2521911860
79,23,13,Improv_Metronome,171,1,38,61,2522152860
79,23,13,Improv_Metronome,172,5,42,127,2522165616
79,23,13,Improv_Metronome,173,1,48,64,2522208224
79,23,13,Improv_Metronome,174,1,38,40,2522210072
79,23,13,Improv_Metronome,175,1,48,60,2522648164
79,23,13,Improv_Metronome,176,5,42,127,2522666224
79,23,13,Improv_Metronome,177,1,48,48,2522874124
79,23,13,Improv_Metronome,178,1,38,55,2523134424
79,23,13,Improv_Metronome,179,5,42,127,2523166044
79,23,13,Improv_Metronome,180,1,38,34,2523187252
79,23,13,Improv_Metronome,181,1,48,65,2523194640
79,23,13,Improv_Metronome,182,1,48,54,2523618040
79,23,13,Improv_Metronome,183,5,42,127,2523665672
79,23,13,Improv_Metronome,184,1,48,46,2523829520
79,23,13,Improv_Metronome,185,1,48,59,2524122204
79,23,13,Improv_Metronome,186,1,38,54,2524147464
79,23,13,Improv_Metronome,187,5,42,127,2524165600
79,23,13,Improv_Metronome,188,1,48,59,2524656260
79,23,13,Improv_Metronome,189,5,42,127,2524666240
79,23,13,Improv_Metronome,190,1,48,47,2524875584
79,23,13,Improv_Metronome,191,1,48,58,2525156004
79,23,13,Improv_Metronome,192,5,42,127,2525165912
79,23,13,Improv_Metronome,193,1,38,57,2525179280
79,23,13,Improv_Metronome,194,5,42,127,2525665656
79,23,13,Improv_Metronome,195,1,48,58,2525686424
79,23,13,Improv_Metronome,196,1,48,47,2525899676
79,23,13,Improv_Metronome,197,5,42,127,2526166448
79,23,13,Improv_Metronome,198,1,48,59,2526174128
79,23,13,Improv_Metronome,199,1,38,51,2526182936
79,23,13,Improv_Metronome,200,1,48,30,2526400576
79,23,13,Improv_Metronome,201,5,42,127,2526666296
79,23,13,Improv_Metronome,202,1,48,59,2526680712
79,23,13,Improv_Metronome,203,1,48,43,2526878480
79,23,13,Improv_Metronome,204,5,42,127,2527165820
79,23,13,Improv_Metronome,205,1,38,50,2527171108
79,23,13,Improv_Metronome,206,1,48,65,2527178568
79,23,13,Improv_Metronome,207,1,48,41,2527399348
79,23,13,Improv_Metronome,208,1,48,57,2527655312
79,23,13,Improv_Metronome,209,5,42,127,2527665592
79,23,13,Improv_Metronome,210,1,48,48,2527907852
79,23,13,Improv_Metronome,211,1,38,52,2528160144
79,23,13,Improv_Metronome,212,1,48,63,2528165092
79,23,13,Improv_Metronome,213,5,42,127,2528166736
79,23,13,Improv_Metronome,214,1,48,41,2528377032
79,23,13,Improv_Metronome,215,1,48,53,2528641740
79,23,13,Improv_Metronome,216,5,42,127,2528666012
79,23,13,Improv_Metronome,217,1,48,53,2528901832
79,23,13,Improv_Metronome,218,1,38,56,2529150168
79,23,13,Improv_Metronome,219,1,48,65,2529158748
79,23,13,Improv_Metronome,220,5,42,127,2529165588
79,23,13,Improv_Metronome,221,1,38,19,2529237136
79,23,13,Improv_Metronome,222,1,48,32,2529354476
79,23,13,Improv_Metronome,223,1,48,54,2529616276
79,23,13,Improv_Metronome,224,5,42,127,2529666644
79,23,13,Improv_Metronome,225,1,48,51,2529896260
79,23,13,Improv_Metronome,226,5,42,127,2530166104
79,23,13,Improv_Metronome,227,1,48,61,2530188820
79,23,13,Improv_Metronome,228,1,38,51,2530242804
79,23,13,Improv_Metronome,229,1,48,40,2530459476
79,23,13,Improv_Metronome,230,5,42,127,2530665964
79,23,13,Improv_Metronome,231,1,48,58,2530725628
79,23,13,Improv_Metronome,232,1,48,46,2530931328
79,23,13,Improv_Metronome,233,5,42,127,2531165488
79,23,13,Improv_Metronome,234,1,48,56,2531196060
79,23,13,Improv_Metronome,235,1,38,59,2531237324
79,23,13,Improv_Metronome,236,5,42,127,2531666556
79,23,13,Improv_Metronome,237,1,48,54,2531728312
79,23,13,Improv_Metronome,238,1,48,46,2531944860
79,23,13,Improv_Metronome,239,5,42,127,2532166076
79,23,13,Improv_Metronome,240,1,48,60,2532220580
79,23,13,Improv_Metronome,241,1,38,54,2532223924
79,23,13,Improv_Metronome,242,1,38,30,2532297960
79,23,13,Improv_Metronome,243,5,42,127,2532665568
79,23,13,Improv_Metronome,244,1,48,62,2532721116
79,23,13,Improv_Metronome,245,1,48,44,2532935792
79,23,13,Improv_Metronome,246,5,42,127,2533165536
79,23,13,Improv_Metronome,247,1,48,60,2533211888
79,23,13,Improv_Metronome,248,1,38,65,2533242912
79,23,13,Improv_Metronome,249,5,42,127,2533666156
79,23,13,Improv_Metronome,250,1,48,57,2533729416
79,23,13,Improv_Metronome,251,1,48,46,2533953660
79,23,13,Improv_Metronome,252,5,42,127,2534165904
79,23,13,Improv_Metronome,253,1,48,53,2534206944
79,23,13,Improv_Metronome,254,1,38,61,2534219564
79,23,13,Improv_Metronome,255,5,42,127,2534665452
79,23,13,Improv_Metronome,256,1,48,50,2534711152
79,23,13,Improv_Metronome,257,1,48,48,2534949992
79,23,13,Improv_Metronome,258,5,42,127,2535166620
79,23,13,Improv_Metronome,259,1,38,58,2535180364
79,23,13,Improv_Metronome,260,1,48,53,2535213516
79,23,13,Improv_Metronome,261,1,38,38,2535241768
79,23,13,Improv_Metronome,262,5,42,127,2535665960
79,23,13,Improv_Metronome,263,1,48,59,2535676780
79,23,13,Improv_Metronome,264,1,48,46,2535896468
79,23,13,Improv_Metronome,265,1,38,54,2536163732
79,23,13,Improv_Metronome,266,5,42,127,2536166524
79,23,13,Improv_Metronome,267,1,48,55,2536194252
79,23,13,Improv_Metronome,268,1,38,34,2536233448
79,23,13,Improv_Metronome,269,5,42,127,2536665420
79,23,13,Improv_Metronome,270,1,48,60,2536695612
79,23,13,Improv_Metronome,271,1,48,45,2536933624
79,23,13,Improv_Metronome,272,1,38,52,2537156148
79,23,13,Improv_Metronome,273,5,42,127,2537166352
79,23,13,Improv_Metronome,274,1,48,54,2537189744
79,23,13,Improv_Metronome,275,1,38,28,2537235824
79,23,13,Improv_Metronome,276,5,42,127,2537665776
79,23,13,Improv_Metronome,277,1,48,55,2537704872
79,23,13,Improv_Metronome,278,1,48,47,2537928220
79,23,13,Improv_Metronome,279,1,38,45,2538151420
79,23,13,Improv_Metronome,280,5,42,127,2538165592
79,23,13,Improv_Metronome,281,1,48,55,2538214492
79,23,13,Improv_Metronome,282,1,38,21,2538225312
79,23,13,Improv_Metronome,283,5,42,127,2538666432
79,23,13,Improv_Metronome,284,1,48,55,2538673888
79,23,13,Improv_Metronome,285,1,48,47,2538900452
79,23,13,Improv_Metronome,286,5,42,127,2539166256
79,23,13,Improv_Metronome,287,1,48,56,2539168780
79,23,13,Improv_Metronome,288,1,38,57,2539189848
79,23,13,Improv_Metronome,289,5,42,127,2539665916
79,23,13,Improv_Metronome,290,1,48,60,2539703288
79,23,13,Improv_Metronome,291,1,48,45,2539920132
79,23,13,Improv_Metronome,292,1,38,54,2540164460
79,23,13,Improv_Metronome,293,5,42,127,2540167304
79,23,13,Improv_Metronome,294,1,48,52,2540185832
79,23,13,Improv_Metronome,295,1,38,23,2540245272
79,23,13,Improv_Metronome,296,5,42,127,2540666436
79,23,13,Improv_Metronome,297,1,48,57,2540689004
79,23,13,Improv_Metronome,298,1,48,45,2540884972
79,23,13,Improv_Metronome,299,1,38,54,2541127472
79,23,13,Improv_Metronome,300,5,42,127,2541165804
79,23,13,Improv_Metronome,301,1,38,38,2541176236
79,23,13,Improv_Metronome,302,1,48,56,2541181824
79,23,13,Improv_Metronome,303,1,48,53,2541629264
79,23,13,Improv_Metronome,304,5,42,127,2541665504
79,23,13,Improv_Metronome,305,1,48,45,2541858244
79,23,13,Improv_Metronome,306,1,38,45,2542159308
79,23,13,Improv_Metronome,307,5,42,127,2542166372
79,23,13,Improv_Metronome,308,1,48,57,2542174728
79,23,13,Improv_Metronome,309,1,38,20,2542235216
79,23,13,Improv_Metronome,310,1,48,37,2542404456
79,23,13,Improv_Metronome,311,5,42,127,2542666292
79,23,13,Improv_Metronome,312,1,48,58,2542687888
79,23,13,Improv_Metronome,313,1,48,46,2542908996
79,23,13,Improv_Metronome,314,5,42,127,2543165744
79,23,13,Improv_Metronome,315,1,48,58,2543167760
79,23,13,Improv_Metronome,316,1,48,46,2543364588
79,23,13,Improv_Metronome,317,1,48,61,2543650044
79,23,13,Improv_Metronome,318,5,42,127,2543665484
79,23,13,Improv_Metronome,319,1,48,51,2543902280
79,23,13,Improv_Metronome,320,1,48,60,2544142232
79,23,13,Improv_Metronome,321,5,42,127,2544166280
79,23,13,Improv_Metronome,322,1,38,54,2544208888
79,23,13,Improv_Metronome,323,5,42,127,2544666244
79,23,13,Improv_Metronome,324,1,48,58,2544670560
79,23,13,Improv_Metronome,325,1,48,53,2544910740
79,23,13,Improv_Metronome,326,5,42,127,2545165620
79,23,13,Improv_Metronome,327,1,48,60,2545182124
79,23,13,Improv_Metronome,328,1,38,62,2545194076
79,23,13,Improv_Metronome,329,5,42,127,2545666288
79,23,13,Improv_Metronome,330,1,48,62,2545697108
79,23,13,Improv_Metronome,331,1,48,52,2545951420
79,23,13,Improv_Metronome,332,5,42,127,2546166260
79,23,13,Improv_Metronome,333,1,48,57,2546191692
79,23,13,Improv_Metronome,334,1,38,58,2546200052
79,23,13,Improv_Metronome,335,5,42,127,2546666052
79,23,13,Improv_Metronome,336,1,48,62,2546691388
79,23,13,Improv_Metronome,337,1,48,44,2546908456
79,23,13,Improv_Metronome,338,1,38,62,2547149156
79,23,13,Improv_Metronome,339,5,42,127,2547165496
79,23,13,Improv_Metronome,340,1,48,56,2547168016
79,23,13,Improv_Metronome,341,1,38,40,2547214992
79,23,13,Improv_Metronome,342,1,48,54,2547660536
79,23,13,Improv_Metronome,343,5,42,127,2547666256
79,23,13,Improv_Metronome,344,1,48,46,2547882184
79,23,13,Improv_Metronome,345,1,48,57,2548157744
79,23,13,Improv_Metronome,346,1,38,55,2548161012
79,23,13,Improv_Metronome,347,5,42,127,2548166204
79,23,13,Improv_Metronome,348,5,42,127,2548665804
79,23,13,Improv_Metronome,349,1,48,59,2548697424
79,23,13,Improv_Metronome,350,1,48,40,2548922496
79,23,13,Improv_Metronome,351,1,38,64,2549126172
79,23,13,Improv_Metronome,352,5,42,127,2549165544
79,23,13,Improv_Metronome,353,1,48,58,2549166512
79,23,13,Improv_Metronome,354,1,38,43,2549187720
79,23,13,Improv_Metronome,355,1,48,61,2549630828
79,23,13,Improv_Metronome,356,5,42,127,2549666096
79,23,13,Improv_Metronome,357,1,48,49,2549859956
79,23,13,Improv_Metronome,358,1,38,57,2550119808
79,23,13,Improv_Metronome,359,1,48,58,2550144548
79,23,13,Improv_Metronome,360,5,42,127,2550165972
79,23,13,Improv_Metronome,361,1,48,64,2550661496
79,23,13,Improv_Metronome,362,5,42,127,2550665716
79,23,13,Improv_Metronome,363,1,48,44,2550888976
79,23,13,Improv_Metronome,364,1,38,62,2551120256
79,23,13,Improv_Metronome,365,1,48,60,2551137588
79,23,13,Improv_Metronome,366,5,42,127,2551166420
79,23,13,Improv_Metronome,367,1,38,28,2551206844
79,23,13,Improv_Metronome,368,1,48,61,2551626984
79,23,13,Improv_Metronome,369,5,42,127,2551665916
79,23,13,Improv_Metronome,370,1,48,51,2551864188
79,23,13,Improv_Metronome,371,1,48,59,2552123816
79,23,13,Improv_Metronome,372,5,42,127,2552165888
79,23,13,Improv_Metronome,373,1,48,54,2552357432
79,23,13,Improv_Metronome,374,1,48,59,2552621472
79,23,13,Improv_Metronome,375,5,42,127,2552665340
79,23,13,Improv_Metronome,376,1,48,51,2552841968
79,23,13,Improv_Metronome,377,1,48,59,2553148368
79,23,13,Improv_Metronome,378,5,42,127,2553166056
79,23,13,Improv_Metronome,379,1,48,48,2553356776
79,23,13,Improv_Metronome,380,1,48,69,2553639068
79,23,13,Improv_Metronome,381,1,38,67,2553644508
79,23,13,Improv_Metronome,382,5,42,127,2553666008
79,23,13,Improv_Metronome,383,1,38,35,2553722740
79,23,13,Improv_Metronome,384,1,48,51,2553902828
79,23,13,Improv_Metronome,385,1,48,59,2554136500
79,23,13,Improv_Metronome,386,5,42,127,2554165636
79,23,13,Improv_Metronome,387,1,48,46,2554364856
79,23,13,Improv_Metronome,388,1,48,64,2554647920
79,23,13,Improv_Metronome,389,5,42,127,2554666428
79,23,13,Improv_Metronome,390,1,38,69,2554680240
79,23,13,Improv_Metronome,391,1,48,34,2554708644
79,23,13,Improv_Metronome,392,1,38,43,2554734656
79,23,13,Improv_Metronome,393,5,42,127,2555166052
79,23,13,Improv_Metronome,394,1,48,62,2555183980
79,23,13,Improv_Metronome,395,1,48,46,2555395036
79,23,13,Improv_Metronome,396,5,42,127,2555665804
79,23,13,Improv_Metronome,397,1,48,66,2555682384
79,23,13,Improv_Metronome,398,1,38,67,2555687300
79,23,13,Improv_Metronome,399,5,42,127,2556165424
79,23,13,Improv_Metronome,400,1,48,59,2556190932
79,23,13,Improv_Metronome,401,1,48,48,2556417324
79,23,13,Improv_Metronome,402,5,42,127,2556666144
79,23,13,Improv_Metronome,403,1,48,59,2556685292
79,23,13,Improv_Metronome,404,1,38,64,2556706368
79,23,13,Improv_Metronome,405,5,42,127,2557165864
79,23,13,Improv_Metronome,406,1,48,58,2557193444
79,23,13,Improv_Metronome,407,1,48,50,2557420232
79,23,13,Improv_Metronome,408,1,38,58,2557653380
79,23,13,Improv_Metronome,409,5,42,127,2557665752
79,23,13,Improv_Metronome,410,1,48,54,2557673664
79,23,13,Improv_Metronome,411,1,38,34,2557722356
79,23,13,Improv_Metronome,412,5,42,127,2558166372
79,23,13,Improv_Metronome,413,1,48,58,2558174124
79,23,13,Improv_Metronome,414,1,48,42,2558453952
79,23,13,Improv_Metronome,415,5,42,127,2558666192
79,23,13,Improv_Metronome,416,1,48,55,2558671480
79,23,13,Improv_Metronome,417,1,48,53,2559119996
79,23,13,Improv_Metronome,418,5,42,127,2559165732
79,23,13,Improv_Metronome,419,1,48,55,2559386296
79,23,13,Improv_Metronome,420,1,48,56,2559651908
79,23,13,Improv_Metronome,421,5,42,127,2559665408
79,23,13,Improv_Metronome,422,1,48,55,2559876248
79,23,13,Improv_Metronome,423,1,48,57,2560121656
79,23,13,Improv_Metronome,424,5,42,127,2560166200
79,23,13,Improv_Metronome,425,1,48,52,2560336872
79,23,13,Improv_Metronome,426,1,48,65,2560626640
79,23,13,Improv_Metronome,427,5,42,127,2560665948
79,23,13,Improv_Metronome,428,1,38,28,2560825556
79,23,13,Improv_Metronome,429,5,42,127,2561165852
79,23,13,Improv_Metronome,430,1,48,59,2561179068
79,23,13,Improv_Metronome,431,1,38,57,2561222500
79,23,13,Improv_Metronome,432,1,38,18,2561313520
79,23,13,Improv_Metronome,433,1,48,58,2561417916
79,23,13,Improv_Metronome,434,5,42,127,2561666512
79,23,13,Improv_Metronome,435,1,48,62,2561696936
79,23,13,Improv_Metronome,436,1,38,59,2561712696
79,23,13,Improv_Metronome,437,1,48,35,2561749552
79,23,13,Improv_Metronome,438,1,38,41,2561753568
79,23,13,Improv_Metronome,439,5,42,127,2562166268
79,23,13,Improv_Metronome,440,1,48,58,2562234232
79,23,13,Improv_Metronome,441,1,48,42,2562424448
79,23,13,Improv_Metronome,442,5,42,127,2562665792
79,23,13,Improv_Metronome,443,1,38,63,2562705184
79,23,13,Improv_Metronome,444,1,48,65,2562716088
79,23,13,Improv_Metronome,445,5,42,127,2563165664
79,23,13,Improv_Metronome,446,1,48,57,2563202144
79,23,13,Improv_Metronome,447,1,48,47,2563412920
79,23,13,Improv_Metronome,448,1,38,59,2563638068
79,23,13,Improv_Metronome,449,5,42,127,2563666228
79,23,13,Improv_Metronome,450,1,38,42,2563685864
79,23,13,Improv_Metronome,451,1,48,53,2563688612
79,23,13,Improv_Metronome,452,1,48,63,2564165032
79,23,13,Improv_Metronome,453,5,42,127,2564166600
79,23,13,Improv_Metronome,454,1,48,50,2564386568
79,23,13,Improv_Metronome,455,1,38,59,2564660260
79,23,13,Improv_Metronome,456,5,42,127,2564665604
79,23,13,Improv_Metronome,457,1,48,54,2564672688
79,23,13,Improv_Metronome,458,5,42,127,2565165492
79,23,13,Improv_Metronome,459,1,48,51,2565181100
79,23,13,Improv_Metronome,460,1,48,43,2565431680
79,23,13,Improv_Metronome,0,9999,9999,9999,2495663180
79,23,13,Improv_Metronome,1,9999,9999,9999,2496163944
79,23,13,Improv_Metronome,2,9999,9999,9999,2496663664
79,23,13,Improv_Metronome,3,9999,9999,9999,2497163376
79,23,13,Improv_Metronome,4,9999,9999,9999,2497664068
79,23,13,Improv_Metronome,5,9999,9999,9999,2498163808
79,23,13,Improv_Metronome,6,9999,9999,9999,2498663512
79,23,13,Improv_Metronome,7,9999,9999,9999,2499163188
79,23,13,Improv_Metronome,8,9999,9999,9999,2499663952
79,23,13,Improv_Metronome,9,9999,9999,9999,2500163700
79,23,13,Improv_Metronome,10,9999,9999,9999,2500663400
79,23,13,Improv_Metronome,11,9999,9999,9999,2501163068
79,23,13,Improv_Metronome,12,9999,9999,9999,2501663820
79,23,13,Improv_Metronome,13,9999,9999,9999,2502163568
79,23,13,Improv_Metronome,14,9999,9999,9999,2502663240
79,23,13,Improv_Metronome,15,9999,9999,9999,2503163960
79,23,13,Improv_Metronome,16,9999,9999,9999,2503663676
79,23,13,Improv_Metronome,17,9999,9999,9999,2504163420
79,23,13,Improv_Metronome,18,9999,9999,9999,2504663136
79,23,13,Improv_Metronome,19,9999,9999,9999,2505163852
79,23,13,Improv_Metronome,20,9999,9999,9999,2505663552
79,23,13,Improv_Metronome,21,9999,9999,9999,2506163300
79,23,13,Improv_Metronome,22,9999,9999,9999,2506664048
79,23,13,Improv_Metronome,23,9999,9999,9999,2507163716
79,23,13,Improv_Metronome,24,9999,9999,9999,2507663456
79,23,13,Improv_Metronome,25,9999,9999,9999,2508163120
79,23,13,Improv_Metronome,26,9999,9999,9999,2508663860
79,23,13,Improv_Metronome,27,9999,9999,9999,2509163612
79,23,13,Improv_Metronome,28,9999,9999,9999,2509663320
79,23,13,Improv_Metronome,29,9999,9999,9999,2510164036
79,23,13,Improv_Metronome,30,9999,9999,9999,2510663756
79,23,13,Improv_Metronome,31,9999,9999,9999,2511163496
79,23,13,Improv_Metronome,32,9999,9999,9999,2511663220
79,23,13,Improv_Metronome,33,9999,9999,9999,2512163936
79,23,13,Improv_Metronome,34,9999,9999,9999,2512663640
79,23,13,Improv_Metronome,35,9999,9999,9999,2513163332
79,23,13,Improv_Metronome,36,9999,9999,9999,2513664120
79,23,13,Improv_Metronome,37,9999,9999,9999,2514163792
79,23,13,Improv_Metronome,38,9999,9999,9999,2514663496
79,23,13,Improv_Metronome,39,9999,9999,9999,2515163224
79,23,13,Improv_Metronome,40,9999,9999,9999,2515663940
79,23,13,Improv_Metronome,41,9999,9999,9999,2516163684
79,23,13,Improv_Metronome,42,9999,9999,9999,2516663408
79,23,13,Improv_Metronome,43,9999,9999,9999,2517163088
79,23,13,Improv_Metronome,44,9999,9999,9999,2517663856
79,23,13,Improv_Metronome,45,9999,9999,9999,2518163528
79,23,13,Improv_Metronome,46,9999,9999,9999,2518663240
79,23,13,Improv_Metronome,47,9999,9999,9999,2519163960
79,23,13,Improv_Metronome,48,9999,9999,9999,2519663696
79,23,13,Improv_Metronome,49,9999,9999,9999,2520163440
79,23,13,Improv_Metronome,50,9999,9999,9999,2520663092
79,23,13,Improv_Metronome,51,9999,9999,9999,2521163884
79,23,13,Improv_Metronome,52,9999,9999,9999,2521663584
79,23,13,Improv_Metronome,53,9999,9999,9999,2522163252
79,23,13,Improv_Metronome,54,9999,9999,9999,2522664012
79,23,13,Improv_Metronome,55,9999,9999,9999,2523163760
79,23,13,Improv_Metronome,56,9999,9999,9999,2523663460
79,23,13,Improv_Metronome,57,9999,9999,9999,2524163164
79,23,13,Improv_Metronome,58,9999,9999,9999,2524663880
79,23,13,Improv_Metronome,59,9999,9999,9999,2525163624
79,23,13,Improv_Metronome,60,9999,9999,9999,2525663292
79,23,13,Improv_Metronome,61,9999,9999,9999,2526164088
79,23,13,Improv_Metronome,62,9999,9999,9999,2526663784
79,23,13,Improv_Metronome,63,9999,9999,9999,2527163460
79,23,13,Improv_Metronome,64,9999,9999,9999,2527663156
79,23,13,Improv_Metronome,65,9999,9999,9999,2528163948
79,23,13,Improv_Metronome,66,9999,9999,9999,2528663648
79,23,13,Improv_Metronome,67,9999,9999,9999,2529163376
79,23,13,Improv_Metronome,68,9999,9999,9999,2529664060
79,23,13,Improv_Metronome,69,9999,9999,9999,2530163816
79,23,13,Improv_Metronome,70,9999,9999,9999,2530663528
79,23,13,Improv_Metronome,71,9999,9999,9999,2531163200
79,23,13,Improv_Metronome,72,9999,9999,9999,2531663968
79,23,13,Improv_Metronome,73,9999,9999,9999,2532163640
79,23,13,Improv_Metronome,74,9999,9999,9999,2532663356
79,23,13,Improv_Metronome,75,9999,9999,9999,2533163100
79,23,13,Improv_Metronome,76,9999,9999,9999,2533663796
79,23,13,Improv_Metronome,77,9999,9999,9999,2534163544
79,23,13,Improv_Metronome,78,9999,9999,9999,2534663240
79,23,13,Improv_Metronome,79,9999,9999,9999,2535163960
79,23,13,Improv_Metronome,80,9999,9999,9999,2535663672
79,23,13,Improv_Metronome,81,9999,9999,9999,2536163452
79,23,13,Improv_Metronome,82,9999,9999,9999,2536663132
79,23,13,Improv_Metronome,83,9999,9999,9999,2537163844
79,23,13,Improv_Metronome,84,9999,9999,9999,2537663564
79,23,13,Improv_Metronome,85,9999,9999,9999,2538163308
79,23,13,Improv_Metronome,86,9999,9999,9999,2538663996
79,23,13,Improv_Metronome,87,9999,9999,9999,2539163744
79,23,13,Improv_Metronome,88,9999,9999,9999,2539663480
79,23,13,Improv_Metronome,89,9999,9999,9999,2540163152
79,23,13,Improv_Metronome,90,9999,9999,9999,2540663924
79,23,13,Improv_Metronome,91,9999,9999,9999,2541163592
79,23,13,Improv_Metronome,92,9999,9999,9999,2541663292
79,23,13,Improv_Metronome,93,9999,9999,9999,2542164084
79,23,13,Improv_Metronome,94,9999,9999,9999,2542663784
79,23,13,Improv_Metronome,95,9999,9999,9999,2543163456
79,23,13,Improv_Metronome,96,9999,9999,9999,2543663200
79,23,13,Improv_Metronome,97,9999,9999,9999,2544163920
79,23,13,Improv_Metronome,98,9999,9999,9999,2544663660
79,23,13,Improv_Metronome,99,9999,9999,9999,2545163380
79,23,13,Improv_Metronome,100,9999,9999,9999,2545664076
79,23,13,Improv_Metronome,101,9999,9999,9999,2546163824
79,23,13,Improv_Metronome,102,9999,9999,9999,2546663544
79,23,13,Improv_Metronome,103,9999,9999,9999,2547163208
79,23,13,Improv_Metronome,104,9999,9999,9999,2547663968
79,23,13,Improv_Metronome,105,9999,9999,9999,2548163696
79,23,13,Improv_Metronome,106,9999,9999,9999,2548663368
79,23,13,Improv_Metronome,107,9999,9999,9999,2549163108
79,23,13,Improv_Metronome,108,9999,9999,9999,2549663808
79,23,13,Improv_Metronome,109,9999,9999,9999,2550163536
79,23,13,Improv_Metronome,110,9999,9999,9999,2550663280
79,23,13,Improv_Metronome,111,9999,9999,9999,2551163980
79,23,13,Improv_Metronome,112,9999,9999,9999,2551663704
79,23,13,Improv_Metronome,113,9999,9999,9999,2552163376
79,23,13,Improv_Metronome,114,9999,9999,9999,2552663124
79,23,13,Improv_Metronome,115,9999,9999,9999,2553163844
79,23,13,Improv_Metronome,116,9999,9999,9999,2553663572
79,23,13,Improv_Metronome,117,9999,9999,9999,2554163272
79,23,13,Improv_Metronome,118,9999,9999,9999,2554663992
79,23,13,Improv_Metronome,119,9999,9999,9999,2555163764
79,23,13,Improv_Metronome,120,9999,9999,9999,2555663440
79,23,13,Improv_Metronome,121,9999,9999,9999,2556163136
79,23,13,Improv_Metronome,122,9999,9999,9999,2556663928
79,23,13,Improv_Metronome,123,9999,9999,9999,2557163576
79,23,13,Improv_Metronome,124,9999,9999,9999,2557663316
79,23,13,Improv_Metronome,125,9999,9999,9999,2558164084
79,23,13,Improv_Metronome,126,9999,9999,9999,2558663756
79,23,13,Improv_Metronome,127,9999,9999,9999,2559163444
79,23,13,Improv_Metronome,128,9999,9999,9999,2559663192
79,23,13,Improv_Metronome,129,9999,9999,9999,2560163912
79,23,13,Improv_Metronome,130,9999,9999,9999,2560663660
79,23,13,Improv_Metronome,131,9999,9999,9999,2561163340
79,23,13,Improv_Metronome,132,9999,9999,9999,2561664080
79,23,13,Improv_Metronome,133,9999,9999,9999,2562163832
79,23,13,Improv_Metronome,134,9999,9999,9999,2562663504
79,23,13,Improv_Metronome,135,9999,9999,9999,2563163224
79,23,13,Improv_Metronome,136,9999,9999,9999,2563663940
79,23,13,Improv_Metronome,137,9999,9999,9999,2564163648
79,23,13,Improv_Metronome,138,9999,9999,9999,2564663388
79,23,13,Improv_Metronome,139,9999,9999,9999,2565163132
79,24,14,Improv_Melody,0,5,42,127,2619185192
79,24,14,Improv_Melody,1,5,42,110,2619678180
79,24,14,Improv_Melody,2,5,42,110,2620177904
79,24,14,Improv_Melody,3,5,42,110,2620677528
79,24,14,Improv_Melody,4,5,42,127,2621178292
79,24,14,Improv_Melody,5,5,42,110,2621678088
79,24,14,Improv_Melody,6,5,42,110,2622177588
79,24,14,Improv_Melody,7,5,42,110,2622678356
79,24,14,Improv_Melody,8,2,43,80,2623180580
79,24,14,Improv_Melody,9,2,67,80,2623182808
79,24,14,Improv_Melody,10,5,42,127,2623185420
79,24,14,Improv_Melody,11,5,42,110,2623677816
79,24,14,Improv_Melody,12,5,42,110,2624177460
79,24,14,Improv_Melody,13,5,42,110,2624678156
79,24,14,Improv_Melody,14,5,42,127,2625178100
79,24,14,Improv_Melody,15,5,42,110,2625677824
79,24,14,Improv_Melody,16,5,42,110,2626178444
79,24,14,Improv_Melody,17,5,42,110,2626678092
79,24,14,Improv_Melody,18,2,45,80,2627180540
79,24,14,Improv_Melody,19,2,69,80,2627182620
79,24,14,Improv_Melody,20,5,42,127,2627185156
79,24,14,Improv_Melody,21,5,42,110,2627677552
79,24,14,Improv_Melody,22,5,42,110,2628178244
79,24,14,Improv_Melody,23,5,42,110,2628677892
79,24,14,Improv_Melody,24,5,42,127,2629177760
79,24,14,Improv_Melody,25,5,42,110,2629677556
79,24,14,Improv_Melody,26,5,42,110,2630178028
79,24,14,Improv_Melody,27,5,42,110,2630677896
79,24,14,Improv_Melody,28,2,41,80,2631180272
79,24,14,Improv_Melody,29,2,65,80,2631182352
79,24,14,Improv_Melody,30,5,42,127,2631184888
79,24,14,Improv_Melody,31,5,42,110,2631678304
79,24,14,Improv_Melody,32,5,42,110,2632178024
79,24,14,Improv_Melody,33,5,42,110,2632677820
79,24,14,Improv_Melody,34,5,42,127,2633177392
79,24,14,Improv_Melody,35,5,42,110,2633678160
79,24,14,Improv_Melody,36,5,42,110,2634177956
79,24,14,Improv_Melody,37,5,42,110,2634677680
79,24,14,Improv_Melody,38,2,48,80,2635181028
79,24,14,Improv_Melody,39,2,72,80,2635182880
79,24,14,Improv_Melody,40,5,42,127,2635185420
79,24,14,Improv_Melody,41,5,42,110,2635677960
79,24,14,Improv_Melody,42,1,38,25,2636144952
79,24,14,Improv_Melody,43,5,42,110,2636177900
79,24,14,Improv_Melody,44,1,48,37,2636194256
79,24,14,Improv_Melody,45,1,48,24,2636467624
79,24,14,Improv_Melody,46,5,42,110,2636677776
79,24,14,Improv_Melody,47,1,48,35,2636708196
79,24,14,Improv_Melody,48,1,48,44,2637171668
79,24,14,Improv_Melody,49,1,38,36,2637174944
79,24,14,Improv_Melody,50,5,42,127,2637178196
79,24,14,Improv_Melody,51,1,38,25,2637224236
79,24,14,Improv_Melody,52,5,42,110,2637677868
79,24,14,Improv_Melody,53,1,48,51,2637686824
79,24,14,Improv_Melody,54,1,38,46,2638156428
79,24,14,Improv_Melody,55,5,42,110,2638177936
79,24,14,Improv_Melody,56,5,42,110,2638678240
79,24,14,Improv_Melody,57,1,48,62,2638694748
79,24,14,Improv_Melody,58,1,48,24,2638765484
79,24,14,Improv_Melody,59,1,38,41,2639159020
79,24,14,Improv_Melody,60,2,43,80,2639180484
79,24,14,Improv_Melody,61,2,67,80,2639182564
79,24,14,Improv_Melody,62,5,42,127,2639185252
79,24,14,Improv_Melody,63,1,48,39,2639212528
79,24,14,Improv_Melody,64,1,48,21,2639401224
79,24,14,Improv_Melody,65,1,38,17,2639417132
79,24,14,Improv_Melody,66,5,42,110,2639677752
79,24,14,Improv_Melody,67,1,48,46,2639687524
79,24,14,Improv_Melody,68,5,42,110,2640177896
79,24,14,Improv_Melody,69,1,38,50,2640188124
79,24,14,Improv_Melody,70,1,48,48,2640641996
79,24,14,Improv_Melody,71,5,42,110,2640678192
79,24,14,Improv_Melody,72,1,38,52,2641163260
79,24,14,Improv_Melody,73,5,42,127,2641178040
79,24,14,Improv_Melody,74,1,48,48,2641654864
79,24,14,Improv_Melody,75,5,42,110,2641677888
79,24,14,Improv_Melody,76,1,48,31,2641883768
79,24,14,Improv_Melody,77,1,48,49,2642154764
79,24,14,Improv_Melody,78,5,42,110,2642178512
79,24,14,Improv_Melody,79,1,38,52,2642662764
79,24,14,Improv_Melody,80,5,42,110,2642678136
79,24,14,Improv_Melody,81,2,45,80,2643180196
79,24,14,Improv_Melody,82,1,48,50,2643181092
79,24,14,Improv_Melody,83,2,69,80,2643184004
79,24,14,Improv_Melody,84,5,42,127,2643186240
79,24,14,Improv_Melody,85,1,38,53,2643666084
79,24,14,Improv_Melody,86,5,42,110,2643677716
79,24,14,Improv_Melody,87,1,48,53,2644146780
79,24,14,Improv_Melody,88,5,42,110,2644178388
79,24,14,Improv_Melody,89,1,48,34,2644419072
79,24,14,Improv_Melody,90,5,42,110,2644678072
79,24,14,Improv_Melody,91,1,48,49,2644702804
79,24,14,Improv_Melody,92,5,42,127,2645177844
79,24,14,Improv_Melody,93,1,38,55,2645183732
79,24,14,Improv_Melody,94,5,42,110,2645677616
79,24,14,Improv_Melody,95,1,48,60,2645692104
79,24,14,Improv_Melody,96,1,48,27,2645769748
79,24,14,Improv_Melody,97,1,38,54,2646152188
79,24,14,Improv_Melody,98,5,42,110,2646178188
79,24,14,Improv_Melody,99,1,48,55,2646656900
79,24,14,Improv_Melody,100,5,42,110,2646677736
79,24,14,Improv_Melody,101,1,48,34,2646904436
79,24,14,Improv_Melody,102,1,48,53,2647170940
79,24,14,Improv_Melody,103,2,41,80,2647180064
79,24,14,Improv_Melody,104,2,65,80,2647182292
79,24,14,Improv_Melody,105,5,42,127,2647184684
79,24,14,Improv_Melody,106,5,42,110,2647678404
79,24,14,Improv_Melody,107,1,38,51,2647689976
79,24,14,Improv_Melody,108,1,48,62,2648170508
79,24,14,Improv_Melody,109,5,42,110,2648178100
79,24,14,Improv_Melody,110,1,48,29,2648241340
79,24,14,Improv_Melody,111,1,38,53,2648662180
79,24,14,Improv_Melody,112,5,42,110,2648677628
79,24,14,Improv_Melody,113,5,42,127,2649177556
79,24,14,Improv_Melody,114,1,48,57,2649178524
79,24,14,Improv_Melody,115,1,48,38,2649426316
79,24,14,Improv_Melody,116,1,48,39,2649652732
79,24,14,Improv_Melody,117,5,42,110,2649678204
79,24,14,Improv_Melody,118,1,48,18,2649911484
79,24,14,Improv_Melody,119,1,38,63,2650142016
79,24,14,Improv_Melody,120,1,38,44,2650170188
79,24,14,Improv_Melody,121,5,42,110,2650177788
79,24,14,Improv_Melody,122,5,42,110,2650677716
79,24,14,Improv_Melody,123,1,48,65,2650705444
79,24,14,Improv_Melody,124,1,48,32,2650768928
79,24,14,Improv_Melody,125,1,38,58,2651123320
79,24,14,Improv_Melody,126,1,38,40,2651154144
79,24,14,Improv_Melody,127,2,48,80,2651181076
79,24,14,Improv_Melody,128,2,72,80,2651183228
79,24,14,Improv_Melody,129,5,42,127,2651185760
79,24,14,Improv_Melody,130,5,42,110,2651678288
79,24,14,Improv_Melody,131,1,48,67,2651702652
79,24,14,Improv_Melody,132,1,48,41,2651754388
79,24,14,Improv_Melody,133,1,38,55,2652123444
79,24,14,Improv_Melody,134,5,42,110,2652177812
79,24,14,Improv_Melody,135,1,48,58,2652621348
79,24,14,Improv_Melody,136,5,42,110,2652677412
79,24,14,Improv_Melody,137,1,48,50,2653140272
79,24,14,Improv_Melody,138,5,42,127,2653178232
79,24,14,Improv_Melody,139,1,48,46,2653386012
79,24,14,Improv_Melody,140,1,48,50,2653616912
79,24,14,Improv_Melody,141,5,42,110,2653677836
79,24,14,Improv_Melody,142,1,48,43,2653841632
79,24,14,Improv_Melody,143,1,48,53,2654100512
79,24,14,Improv_Melody,144,5,42,110,2654177664
79,24,14,Improv_Melody,145,1,48,46,2654310264
79,24,14,Improv_Melody,146,1,48,62,2654629504
79,24,14,Improv_Melody,147,5,42,110,2654678316
79,24,14,Improv_Melody,148,1,48,23,2654730288
79,24,14,Improv_Melody,149,1,38,65,2655163140
79,24,14,Improv_Melody,150,2,43,80,2655180648
79,24,14,Improv_Melody,151,2,67,80,2655182876
79,24,14,Improv_Melody,152,5,42,127,2655185408
79,24,14,Improv_Melody,153,1,38,42,2655200928
79,24,14,Improv_Melody,154,5,42,110,2655677768
79,24,14,Improv_Melody,155,1,48,59,2655725616
79,24,14,Improv_Melody,156,1,48,38,2655782388
79,24,14,Improv_Melody,157,1,38,56,2656129228
79,24,14,Improv_Melody,158,5,42,110,2656177436
79,24,14,Improv_Melody,159,1,48,63,2656613144
79,24,14,Improv_Melody,160,1,48,44,2656659420
79,24,14,Improv_Melody,161,5,42,110,2656678240
79,24,14,Improv_Melody,162,1,38,67,2657160544
79,24,14,Improv_Melody,163,5,42,127,2657178084
79,24,14,Improv_Melody,164,1,38,29,2657213352
79,24,14,Improv_Melody,165,1,38,52,2657410896
79,24,14,Improv_Melody,166,1,38,50,2657665140
79,24,14,Improv_Melody,167,5,42,110,2657677592
79,24,14,Improv_Melody,168,1,38,33,2657886112
79,24,14,Improv_Melody,169,1,38,50,2658123600
79,24,14,Improv_Melody,170,5,42,110,2658178320
79,24,14,Improv_Melody,171,1,38,48,2658385124
79,24,14,Improv_Melody,172,1,38,65,2658668760
79,24,14,Improv_Melody,173,5,42,110,2658678144
79,24,14,Improv_Melody,174,1,38,45,2658699048
79,24,14,Improv_Melody,175,2,45,80,2659180412
79,24,14,Improv_Melody,176,2,69,80,2659182640
79,24,14,Improv_Melody,177,5,42,127,2659185172
79,24,14,Improv_Melody,178,1,48,63,2659225768
79,24,14,Improv_Melody,179,1,48,39,2659273092
79,24,14,Improv_Melody,180,1,38,64,2659673956
79,24,14,Improv_Melody,181,5,42,110,2659677516
79,24,14,Improv_Melody,182,1,38,46,2659704932
79,24,14,Improv_Melody,183,1,48,54,2660158604
79,24,14,Improv_Melody,184,5,42,110,2660178164
79,24,14,Improv_Melody,185,1,48,38,2660204524
79,24,14,Improv_Melody,186,1,38,68,2660633000
79,24,14,Improv_Melody,187,1,38,51,2660660280
79,24,14,Improv_Melody,188,5,42,110,2660678120
79,24,14,Improv_Melody,189,1,48,61,2661144120
79,24,14,Improv_Melody,190,5,42,127,2661177744
79,24,14,Improv_Melody,191,1,48,38,2661382228
79,24,14,Improv_Melody,192,1,48,53,2661644920
79,24,14,Improv_Melody,193,5,42,110,2661677496
79,24,14,Improv_Melody,194,1,48,41,2661878068
79,24,14,Improv_Melody,195,1,48,49,2662132156
79,24,14,Improv_Melody,196,5,42,110,2662178148
79,24,14,Improv_Melody,197,1,48,45,2662370488
79,24,14,Improv_Melody,198,1,48,54,2662651876
79,24,14,Improv_Melody,199,5,42,110,2662678048
79,24,14,Improv_Melody,200,1,48,21,2662770604
79,24,14,Improv_Melody,201,1,38,68,2663148640
79,24,14,Improv_Melody,202,2,41,80,2663180156
79,24,14,Improv_Melody,203,2,65,80,2663182228
79,24,14,Improv_Melody,204,5,42,127,2663184844
79,24,14,Improv_Melody,205,5,42,110,2663678244
79,24,14,Improv_Melody,206,1,48,63,2663691256
79,24,14,Improv_Melody,207,1,48,33,2663755868
79,24,14,Improv_Melody,208,1,38,61,2664144812
79,24,14,Improv_Melody,209,1,38,43,2664172992
79,24,14,Improv_Melody,210,5,42,110,2664178264
79,24,14,Improv_Melody,211,1,48,67,2664661172
79,24,14,Improv_Melody,212,5,42,110,2664677964
79,24,14,Improv_Melody,213,1,48,40,2664715052
79,24,14,Improv_Melody,214,1,38,60,2665105428
79,24,14,Improv_Melody,215,5,42,127,2665177496
79,24,14,Improv_Melody,216,1,38,47,2665354456
79,24,14,Improv_Melody,217,1,38,38,2665583112
79,24,14,Improv_Melody,218,5,42,110,2665678132
79,24,14,Improv_Melody,219,1,38,43,2665854356
79,24,14,Improv_Melody,220,1,38,43,2666095660
79,24,14,Improv_Melody,221,5,42,110,2666178124
79,24,14,Improv_Melody,222,1,38,47,2666349924
79,24,14,Improv_Melody,223,1,38,57,2666615832
79,24,14,Improv_Melody,224,5,42,110,2666677652
79,24,14,Improv_Melody,225,1,48,62,2667164224
79,24,14,Improv_Melody,226,2,48,80,2667181136
79,24,14,Improv_Melody,227,2,72,80,2667183136
79,24,14,Improv_Melody,228,5,42,127,2667185596
79,24,14,Improv_Melody,229,1,48,35,2667216976
79,24,14,Improv_Melody,230,1,38,63,2667654716
79,24,14,Improv_Melody,231,5,42,110,2667678240
79,24,14,Improv_Melody,232,1,48,57,2668130780
79,24,14,Improv_Melody,233,1,48,37,2668177704
79,24,14,Improv_Melody,234,5,42,110,2668178964
79,24,14,Improv_Melody,235,1,38,63,2668640632
79,24,14,Improv_Melody,236,1,38,47,2668668136
79,24,14,Improv_Melody,237,5,42,110,2668677448
79,24,14,Improv_Melody,238,1,48,59,2669143896
79,24,14,Improv_Melody,239,5,42,127,2669178196
79,24,14,Improv_Melody,240,1,48,41,2669416336
79,24,14,Improv_Melody,241,1,48,45,2669644696
79,24,14,Improv_Melody,242,5,42,110,2669678024
79,24,14,Improv_Melody,243,1,48,47,2669871808
79,24,14,Improv_Melody,244,1,48,48,2670136448
79,24,14,Improv_Melody,245,5,42,110,2670177848
79,24,14,Improv_Melody,246,1,48,46,2670369992
79,24,14,Improv_Melody,247,1,48,53,2670630144
79,24,14,Improv_Melody,248,5,42,110,2670678424
79,24,14,Improv_Melody,249,1,48,13,2670781980
79,24,14,Improv_Melody,250,1,48,65,2671114784
79,24,14,Improv_Melody,251,1,48,37,2671178964
79,24,14,Improv_Melody,252,2,43,80,2671182380
79,24,14,Improv_Melody,253,2,67,80,2671184456
79,24,14,Improv_Melody,254,5,42,127,2671187144
79,24,14,Improv_Melody,255,1,38,64,2671672288
79,24,14,Improv_Melody,256,5,42,110,2671677944
79,24,14,Improv_Melody,257,1,38,38,2671711636
79,24,14,Improv_Melody,258,1,48,58,2672144292
79,24,14,Improv_Melody,259,5,42,110,2672177768
79,24,14,Improv_Melody,260,1,48,35,2672198224
79,24,14,Improv_Melody,261,1,38,65,2672631908
79,24,14,Improv_Melody,262,1,38,42,2672665568
79,24,14,Improv_Melody,263,5,42,110,2672678472
79,24,14,Improv_Melody,264,1,38,69,2673173796
79,24,14,Improv_Melody,265,5,42,127,2673177948
79,24,14,Improv_Melody,266,1,38,30,2673227724
79,24,14,Improv_Melody,267,1,38,51,2673429012
79,24,14,Improv_Melody,268,1,38,49,2673655548
79,24,14,Improv_Melody,269,5,42,110,2673677904
79,24,14,Improv_Melody,270,1,38,51,2673921928
79,24,14,Improv_Melody,271,1,38,48,2674148648
79,24,14,Improv_Melody,272,5,42,110,2674178456
79,24,14,Improv_Melody,273,1,38,48,2674388100
79,24,14,Improv_Melody,274,1,38,59,2674660212
79,24,14,Improv_Melody,275,5,42,110,2674678208
79,24,14,Improv_Melody,276,2,45,80,2675180344
79,24,14,Improv_Melody,277,2,69,80,2675182564
79,24,14,Improv_Melody,278,5,42,127,2675185108
79,24,14,Improv_Melody,279,1,48,49,2675199520
79,24,14,Improv_Melody,280,1,38,62,2675647736
79,24,14,Improv_Melody,281,5,42,110,2675677844
79,24,14,Improv_Melody,282,1,38,41,2675683420
79,24,14,Improv_Melody,283,1,48,53,2676161100
79,24,14,Improv_Melody,284,5,42,110,2676178272
79,24,14,Improv_Melody,285,1,48,26,2676225952
79,24,14,Improv_Melody,286,1,38,70,2676637664
79,24,14,Improv_Melody,287,1,38,43,2676669284
79,24,14,Improv_Melody,288,5,42,110,2676677852
79,24,14,Improv_Melody,289,1,48,54,2677128892
79,24,14,Improv_Melody,290,5,42,127,2677177776
79,24,14,Improv_Melody,291,1,48,41,2677412852
79,24,14,Improv_Melody,292,1,48,45,2677663356
79,24,14,Improv_Melody,293,5,42,110,2677677532
79,24,14,Improv_Melody,294,1,48,50,2677904980
79,24,14,Improv_Melody,295,1,48,47,2678140972
79,24,14,Improv_Melody,296,5,42,110,2678178108
79,24,14,Improv_Melody,297,1,48,52,2678363520
79,24,14,Improv_Melody,298,1,48,48,2678632340
79,24,14,Improv_Melody,299,5,42,110,2678677936
79,24,14,Improv_Melody,300,2,41,80,2679179996
79,24,14,Improv_Melody,301,1,48,67,2679180964
79,24,14,Improv_Melody,302,2,65,80,2679183728
79,24,14,Improv_Melody,303,5,42,127,2679186040
79,24,14,Improv_Melody,304,1,48,24,2679313780
79,24,14,Improv_Melody,305,1,38,62,2679667056
79,24,14,Improv_Melody,306,5,42,110,2679678460
79,24,14,Improv_Melody,307,1,38,25,2679733700
79,24,14,Improv_Melody,308,1,48,59,2680157756
79,24,14,Improv_Melody,309,5,42,110,2680178068
79,24,14,Improv_Melody,310,1,38,63,2680631128
79,24,14,Improv_Melody,311,5,42,110,2680677620
79,24,14,Improv_Melody,312,1,38,29,2680688728
79,24,14,Improv_Melody,313,1,48,31,2681145616
79,24,14,Improv_Melody,314,5,42,127,2681177444
79,24,14,Improv_Melody,315,1,48,46,2681449920
79,24,14,Improv_Melody,316,1,48,48,2681646788
79,24,14,Improv_Melody,317,5,42,110,2681678468
79,24,14,Improv_Melody,318,1,48,52,2681898584
79,24,14,Improv_Melody,319,1,48,54,2682159560
79,24,14,Improv_Melody,320,5,42,110,2682177848
79,24,14,Improv_Melody,321,1,48,54,2682383004
79,24,14,Improv_Melody,322,1,48,54,2682646968
79,24,14,Improv_Melody,323,5,42,110,2682677676
79,24,14,Improv_Melody,324,1,48,30,2682701644
79,24,14,Improv_Melody,325,2,48,80,2683180912
79,24,14,Improv_Melody,326,1,38,58,2683183000
79,24,14,Improv_Melody,327,2,72,80,2683185988
79,24,14,Improv_Melody,328,5,42,127,2683188304
79,24,14,Improv_Melody,329,1,38,29,2683243240
79,24,14,Improv_Melody,330,5,42,110,2683677964
79,24,14,Improv_Melody,331,1,48,55,2683697168
79,24,14,Improv_Melody,332,1,48,16,2683806568
79,24,14,Improv_Melody,333,1,38,59,2684156476
79,24,14,Improv_Melody,334,5,42,110,2684177784
79,24,14,Improv_Melody,335,1,38,31,2684207444
79,24,14,Improv_Melody,336,1,48,59,2684603796
79,24,14,Improv_Melody,337,1,48,24,2684674536
79,24,14,Improv_Melody,338,5,42,110,2684677444
79,24,14,Improv_Melody,339,1,38,58,2685152916
79,24,14,Improv_Melody,340,5,42,127,2685178164
79,24,14,Improv_Melody,341,1,38,49,2685429544
79,24,14,Improv_Melody,342,5,42,110,2685677924
79,24,14,Improv_Melody,343,1,38,49,2685692708
79,24,14,Improv_Melody,344,1,38,47,2685929220
79,24,14,Improv_Melody,345,1,38,51,2686167384
79,24,14,Improv_Melody,346,5,42,110,2686177744
79,24,14,Improv_Melody,347,1,38,54,2686426364
79,24,14,Improv_Melody,348,5,42,110,2686678624
79,24,14,Improv_Melody,349,1,38,63,2686691844
79,24,14,Improv_Melody,350,2,43,80,2687180608
79,24,14,Improv_Melody,351,2,67,80,2687182532
79,24,14,Improv_Melody,352,5,42,127,2687185296
79,24,14,Improv_Melody,353,1,48,56,2687201804
79,24,14,Improv_Melody,354,1,48,20,2687291640
79,24,14,Improv_Melody,355,5,42,110,2687677792
79,24,14,Improv_Melody,356,1,38,68,2687710756
79,24,14,Improv_Melody,357,1,38,31,2687775836
79,24,14,Improv_Melody,358,1,48,54,2688162916
79,24,14,Improv_Melody,359,5,42,110,2688177616
79,24,14,Improv_Melody,360,1,48,17,2688263916
79,24,14,Improv_Melody,361,1,38,63,2688659372
79,24,14,Improv_Melody,362,5,42,110,2688678412
79,24,14,Improv_Melody,363,1,38,37,2688699696
79,24,14,Improv_Melody,364,1,48,53,2689149404
79,24,14,Improv_Melody,365,5,42,127,2689177940
79,24,14,Improv_Melody,366,1,48,35,2689442412
79,24,14,Improv_Melody,367,1,48,45,2689636888
79,24,14,Improv_Melody,368,5,42,110,2689677620
79,24,14,Improv_Melody,369,1,48,49,2689917556
79,24,14,Improv_Melody,370,1,48,51,2690174044
79,24,14,Improv_Melody,371,5,42,110,2690178492
79,24,14,Improv_Melody,372,1,48,55,2690414536
79,24,14,Improv_Melody,373,5,42,110,2690678624
79,24,14,Improv_Melody,374,1,48,62,2690697604
79,24,14,Improv_Melody,375,2,45,80,2691180456
79,24,14,Improv_Melody,376,2,69,80,2691182532
79,24,14,Improv_Melody,377,5,42,127,2691185296
79,24,14,Improv_Melody,378,1,48,65,2691247052
79,24,14,Improv_Melody,379,5,42,110,2691677520
79,24,14,Improv_Melody,380,1,38,64,2691720728
79,24,14,Improv_Melody,381,1,38,34,2691769320
79,24,14,Improv_Melody,382,5,42,110,2692178464
79,24,14,Improv_Melody,383,1,48,63,2692193776
79,24,14,Improv_Melody,384,1,48,19,2692289048
79,24,14,Improv_Melody,385,1,38,65,2692663588
79,24,14,Improv_Melody,386,5,42,110,2692677988
79,24,14,Improv_Melody,387,1,38,39,2692698372
79,24,14,Improv_Melody,388,1,48,59,2693121276
79,24,14,Improv_Melody,389,5,42,127,2693177664
79,24,14,Improv_Melody,390,1,48,40,2693406308
79,24,14,Improv_Melody,391,1,48,38,2693644164
79,24,14,Improv_Melody,392,5,42,110,2693677492
79,24,14,Improv_Melody,393,1,48,49,2693870428
79,24,14,Improv_Melody,394,1,48,48,2694134468
79,24,14,Improv_Melody,395,5,42,110,2694178364
79,24,14,Improv_Melody,396,1,48,51,2694379156
79,24,14,Improv_Melody,397,1,48,54,2694655316
79,24,14,Improv_Melody,398,5,42,110,2694677744
79,24,14,Improv_Melody,399,1,38,69,2695165188
79,24,14,Improv_Melody,400,2,41,80,2695180096
79,24,14,Improv_Melody,401,2,65,80,2695182320
79,24,14,Improv_Melody,402,5,42,127,2695184860
79,24,14,Improv_Melody,403,1,38,34,2695219152
79,24,14,Improv_Melody,404,1,48,57,2695650740
79,24,14,Improv_Melody,405,5,42,110,2695678304
79,24,14,Improv_Melody,406,1,48,26,2695723916
79,24,14,Improv_Melody,407,1,38,58,2696159544
79,24,14,Improv_Melody,408,5,42,110,2696178208
79,24,14,Improv_Melody,409,1,48,62,2696616756
79,24,14,Improv_Melody,410,1,48,32,2696678788
79,24,14,Improv_Melody,411,5,42,110,2696679828
79,24,14,Improv_Melody,412,1,38,68,2697131468
79,24,14,Improv_Melody,413,5,42,127,2697177360
79,24,14,Improv_Melody,414,1,38,43,2697414980
79,24,14,Improv_Melody,415,1,38,49,2697655384
79,24,14,Improv_Melody,416,5,42,110,2697678384
79,24,14,Improv_Melody,417,1,38,46,2697898276
79,24,14,Improv_Melody,418,1,38,53,2698137404
79,24,14,Improv_Melody,419,5,42,110,2698178136
79,24,14,Improv_Melody,420,1,38,54,2698386060
79,24,14,Improv_Melody,421,1,38,61,2698644192
79,24,14,Improv_Melody,422,5,42,110,2698677592
79,24,14,Improv_Melody,423,1,48,56,2699180396
79,24,14,Improv_Melody,424,2,48,80,2699182272
79,24,14,Improv_Melody,425,2,72,80,2699184196
79,24,14,Improv_Melody,426,5,42,127,2699186804
79,24,14,Improv_Melody,427,1,48,19,2699284556
79,24,14,Improv_Melody,428,5,42,110,2699678264
79,24,14,Improv_Melody,429,1,38,69,2699686544
79,24,14,Improv_Melody,430,1,48,55,2700151140
79,24,14,Improv_Melody,0,9999,9999,9999,2619176036
79,24,14,Improv_Melody,1,9999,9999,9999,2619675740
79,24,14,Improv_Melody,2,9999,9999,9999,2620175460
79,24,14,Improv_Melody,3,9999,9999,9999,2620675160
79,24,14,Improv_Melody,4,9999,9999,9999,2621175928
79,24,14,Improv_Melody,5,9999,9999,9999,2621675572
79,24,14,Improv_Melody,6,9999,9999,9999,2622175296
79,24,14,Improv_Melody,7,9999,9999,9999,2622676064
79,24,14,Improv_Melody,8,9999,9999,9999,2623175788
79,24,14,Improv_Melody,9,9999,9999,9999,2623675448
79,24,14,Improv_Melody,10,9999,9999,9999,2624175168
79,24,14,Improv_Melody,11,9999,9999,9999,2624675936
79,24,14,Improv_Melody,12,9999,9999,9999,2625175656
79,24,14,Improv_Melody,13,9999,9999,9999,2625675380
79,24,14,Improv_Melody,14,9999,9999,9999,2626176076
79,24,14,Improv_Melody,15,9999,9999,9999,2626675800
79,24,14,Improv_Melody,16,9999,9999,9999,2627175520
79,24,14,Improv_Melody,17,9999,9999,9999,2627675256
79,24,14,Improv_Melody,18,9999,9999,9999,2628175948
79,24,14,Improv_Melody,19,9999,9999,9999,2628675672
79,24,14,Improv_Melody,20,9999,9999,9999,2629175392
79,24,14,Improv_Melody,21,9999,9999,9999,2629675116
79,24,14,Improv_Melody,22,9999,9999,9999,2630175808
79,24,14,Improv_Melody,23,9999,9999,9999,2630675532
79,24,14,Improv_Melody,24,9999,9999,9999,2631175252
79,24,14,Improv_Melody,25,9999,9999,9999,2631676008
79,24,14,Improv_Melody,26,9999,9999,9999,2632175732
79,24,14,Improv_Melody,27,9999,9999,9999,2632675380
79,24,14,Improv_Melody,28,9999,9999,9999,2633175100
79,24,14,Improv_Melody,29,9999,9999,9999,2633675868
79,24,14,Improv_Melody,30,9999,9999,9999,2634175592
79,24,14,Improv_Melody,31,9999,9999,9999,2634675312
79,24,14,Improv_Melody,32,9999,9999,9999,2635176008
79,24,14,Improv_Melody,33,9999,9999,9999,2635675740
79,24,14,Improv_Melody,34,9999,9999,9999,2636175460
79,24,14,Improv_Melody,35,9999,9999,9999,2636675184
79,24,14,Improv_Melody,36,9999,9999,9999,2637175904
79,24,14,Improv_Melody,37,9999,9999,9999,2637675576
79,24,14,Improv_Melody,38,9999,9999,9999,2638175344
79,24,14,Improv_Melody,39,9999,9999,9999,2638676020
79,24,14,Improv_Melody,40,9999,9999,9999,2639175768
79,24,14,Improv_Melody,41,9999,9999,9999,2639675460
79,24,14,Improv_Melody,42,9999,9999,9999,2640175156
79,24,14,Improv_Melody,43,9999,9999,9999,2640675900
79,24,14,Improv_Melody,44,9999,9999,9999,2641175672
79,24,14,Improv_Melody,45,9999,9999,9999,2641675372
79,24,14,Improv_Melody,46,9999,9999,9999,2642176072
79,24,14,Improv_Melody,47,9999,9999,9999,2642675772
79,24,14,Improv_Melody,48,9999,9999,9999,2643175476
79,24,14,Improv_Melody,49,9999,9999,9999,2643675200
79,24,14,Improv_Melody,50,9999,9999,9999,2644175944
79,24,14,Improv_Melody,51,9999,9999,9999,2644675704
79,24,14,Improv_Melody,52,9999,9999,9999,2645175400
79,24,14,Improv_Melody,53,9999,9999,9999,2645675100
79,24,14,Improv_Melody,54,9999,9999,9999,2646175820
79,24,14,Improv_Melody,55,9999,9999,9999,2646675520
79,24,14,Improv_Melody,56,9999,9999,9999,2647175272
79,24,14,Improv_Melody,57,9999,9999,9999,2647675964
79,24,14,Improv_Melody,58,9999,9999,9999,2648175732
79,24,14,Improv_Melody,59,9999,9999,9999,2648675408
79,24,14,Improv_Melody,60,9999,9999,9999,2649175116
79,24,14,Improv_Melody,61,9999,9999,9999,2649675836
79,24,14,Improv_Melody,62,9999,9999,9999,2650175568
79,24,14,Improv_Melody,63,9999,9999,9999,2650675276
79,24,14,Improv_Melody,64,9999,9999,9999,2651176052
79,24,14,Improv_Melody,65,9999,9999,9999,2651675696
79,24,14,Improv_Melody,66,9999,9999,9999,2652175444
79,24,14,Improv_Melody,67,9999,9999,9999,2652675120
79,24,14,Improv_Melody,68,9999,9999,9999,2653175864
79,24,14,Improv_Melody,69,9999,9999,9999,2653675620
79,24,14,Improv_Melody,70,9999,9999,9999,2654175300
79,24,14,Improv_Melody,71,9999,9999,9999,2654676020
79,24,14,Improv_Melody,72,9999,9999,9999,2655175776
79,24,14,Improv_Melody,73,9999,9999,9999,2655675472
79,24,14,Improv_Melody,74,9999,9999,9999,2656175220
79,24,14,Improv_Melody,75,9999,9999,9999,2656675944
79,24,14,Improv_Melody,76,9999,9999,9999,2657175644
79,24,14,Improv_Melody,77,9999,9999,9999,2657675376
79,24,14,Improv_Melody,78,9999,9999,9999,2658176104
79,24,14,Improv_Melody,79,9999,9999,9999,2658675780
79,24,14,Improv_Melody,80,9999,9999,9999,2659175536
79,24,14,Improv_Melody,81,9999,9999,9999,2659675224
79,24,14,Improv_Melody,82,9999,9999,9999,2660175948
79,24,14,Improv_Melody,83,9999,9999,9999,2660675676
79,24,14,Improv_Melody,84,9999,9999,9999,2661175376
79,24,14,Improv_Melody,85,9999,9999,9999,2661675128
79,24,14,Improv_Melody,86,9999,9999,9999,2662175856
79,24,14,Improv_Melody,87,9999,9999,9999,2662675532
79,24,14,Improv_Melody,88,9999,9999,9999,2663175284
79,24,14,Improv_Melody,89,9999,9999,9999,2663675952
79,24,14,Improv_Melody,90,9999,9999,9999,2664175676
79,24,14,Improv_Melody,91,9999,9999,9999,2664675448
79,24,14,Improv_Melody,92,9999,9999,9999,2665175128
79,24,14,Improv_Melody,93,9999,9999,9999,2665675840
79,24,14,Improv_Melody,94,9999,9999,9999,2666175608
79,24,14,Improv_Melody,95,9999,9999,9999,2666675288
79,24,14,Improv_Melody,96,9999,9999,9999,2667176036
79,24,14,Improv_Melody,97,9999,9999,9999,2667675728
79,24,14,Improv_Melody,98,9999,9999,9999,2668175424
79,24,14,Improv_Melody,99,9999,9999,9999,2668675156
79,24,14,Improv_Melody,100,9999,9999,9999,2669175904
79,24,14,Improv_Melody,101,9999,9999,9999,2669675580
79,24,14,Improv_Melody,102,9999,9999,9999,2670175332
79,24,14,Improv_Melody,103,9999,9999,9999,2670676056
79,24,14,Improv_Melody,104,9999,9999,9999,2671175736
79,24,14,Improv_Melody,105,9999,9999,9999,2671675500
79,24,14,Improv_Melody,106,9999,9999,9999,2672175176
79,24,14,Improv_Melody,107,9999,9999,9999,2672675956
79,24,14,Improv_Melody,108,9999,9999,9999,2673175656
79,24,14,Improv_Melody,109,9999,9999,9999,2673675316
79,24,14,Improv_Melody,110,9999,9999,9999,2674176088
79,24,14,Improv_Melody,111,9999,9999,9999,2674675764
79,24,14,Improv_Melody,112,9999,9999,9999,2675175472
79,24,14,Improv_Melody,113,9999,9999,9999,2675675252
79,24,14,Improv_Melody,114,9999,9999,9999,2676175980
79,24,14,Improv_Melody,115,9999,9999,9999,2676675636
79,24,14,Improv_Melody,116,9999,9999,9999,2677175408
79,24,14,Improv_Melody,117,9999,9999,9999,2677675092
79,24,14,Improv_Melody,118,9999,9999,9999,2678175816
79,24,14,Improv_Melody,119,9999,9999,9999,2678675568
79,24,14,Improv_Melody,120,9999,9999,9999,2679175276
79,24,14,Improv_Melody,121,9999,9999,9999,2679676020
79,24,14,Improv_Melody,122,9999,9999,9999,2680175700
79,24,14,Improv_Melody,123,9999,9999,9999,2680675400
79,24,14,Improv_Melody,124,9999,9999,9999,2681175152
79,24,14,Improv_Melody,125,9999,9999,9999,2681675876
79,24,14,Improv_Melody,126,9999,9999,9999,2682175556
79,24,14,Improv_Melody,127,9999,9999,9999,2682675308
79,24,14,Improv_Melody,128,9999,9999,9999,2683176040
79,24,14,Improv_Melody,129,9999,9999,9999,2683675748
79,24,14,Improv_Melody,130,9999,9999,9999,2684175416
79,24,14,Improv_Melody,131,9999,9999,9999,2684675124
79,24,14,Improv_Melody,132,9999,9999,9999,2685175872
79,24,14,Improv_Melody,133,9999,9999,9999,2685675632
79,24,14,Improv_Melody,134,9999,9999,9999,2686175304
79,24,14,Improv_Melody,135,9999,9999,9999,2686676036
79,24,14,Improv_Melody,136,9999,9999,9999,2687175736
79,24,14,Improv_Melody,137,9999,9999,9999,2687675500
79,24,14,Improv_Melody,138,9999,9999,9999,2688175172
79,24,14,Improv_Melody,139,9999,9999,9999,2688675896
79,24,14,Improv_Melody,140,9999,9999,9999,2689175648
79,24,14,Improv_Melody,141,9999,9999,9999,2689675328
79,24,14,Improv_Melody,142,9999,9999,9999,2690176052
79,24,14,Improv_Melody,143,9999,9999,9999,2690675812
79,24,14,Improv_Melody,144,9999,9999,9999,2691175512
79,24,14,Improv_Melody,145,9999,9999,9999,2691675228
79,24,14,Improv_Melody,146,9999,9999,9999,2692175948
79,24,14,Improv_Melody,147,9999,9999,9999,2692675696
79,24,14,Improv_Melody,148,9999,9999,9999,2693175372
79,24,14,Improv_Melody,149,9999,9999,9999,2693675124
79,24,14,Improv_Melody,150,9999,9999,9999,2694175848
79,24,14,Improv_Melody,151,9999,9999,9999,2694675524
79,24,14,Improv_Melody,152,9999,9999,9999,2695175224
79,24,14,Improv_Melody,153,9999,9999,9999,2695676012
79,24,14,Improv_Melody,154,9999,9999,9999,2696175692
79,24,14,Improv_Melody,155,9999,9999,9999,2696675392
79,24,14,Improv_Melody,156,9999,9999,9999,2697175144
79,24,14,Improv_Melody,157,9999,9999,9999,2697675868
79,24,14,Improv_Melody,158,9999,9999,9999,2698175544
79,24,14,Improv_Melody,159,9999,9999,9999,2698675300
79,24,14,Improv_Melody,160,9999,9999,9999,2699176052
79,24,14,Improv_Melody,161,9999,9999,9999,2699675748
