pid,taskRunCount,taskID,taskName,i,channel,pitch,velocity,microseconds
1,0,Ticks_Pract_8,0,5,42,127,102034920
741,0,Ticks_Pract_8,1,5,42,127,102834672
741,0,Ticks_Pract_8,2,5,42,127,103635252
741,0,Ticks_Pract_8,3,5,42,127,104435156
741,0,Ticks_Pract_8,4,5,42,127,105234688
741,0,Ticks_Pract_8,5,1,48,26,105242368
741,0,Ticks_Pract_8,6,5,42,127,106034744
741,0,Ticks_Pract_8,7,1,48,35,106064416
741,0,Ticks_Pract_8,8,5,42,127,106835300
741,0,Ticks_Pract_8,9,1,48,36,106872376
741,0,Ticks_Pract_8,10,5,42,127,107635032
741,0,Ticks_Pract_8,11,1,48,32,107640996
741,0,Ticks_Pract_8,12,5,42,127,108434768
741,0,Ticks_Pract_8,13,1,48,36,108455016
741,0,Ticks_Pract_8,14,5,42,127,109234648
741,0,Ticks_Pract_8,15,1,48,35,109275988
741,0,Ticks_Pract_8,16,1,48,32,110034304
741,0,Ticks_Pract_8,17,5,42,127,110035940
741,0,Ticks_Pract_8,18,1,48,40,110778052
741,0,Ticks_Pract_8,19,5,42,127,110835004
741,0,Ticks_Pract_8,20,1,48,30,111590952
741,0,Ticks_Pract_8,21,5,42,127,111634812
741,0,Ticks_Pract_8,22,1,48,33,112388516
741,0,Ticks_Pract_8,23,5,42,127,112434500
741,0,Ticks_Pract_8,24,1,48,37,113228364
741,0,Ticks_Pract_8,25,5,42,127,113235500
741,0,Ticks_Pract_8,26,5,42,127,114034944
741,0,Ticks_Pract_8,27,1,48,38,114052724
741,0,Ticks_Pract_8,28,5,42,127,114834752
741,0,Ticks_Pract_8,29,1,48,32,114885292
741,0,Ticks_Pract_8,30,5,42,127,115634488
741,0,Ticks_Pract_8,31,1,48,38,115637312
741,0,Ticks_Pract_8,32,1,48,34,116428792
741,0,Ticks_Pract_8,33,5,42,127,116435336
741,0,Ticks_Pract_8,34,5,42,127,117234928
741,0,Ticks_Pract_8,35,1,48,24,117263324
741,0,Ticks_Pract_8,36,1,48,31,118022504
741,0,Ticks_Pract_8,37,5,42,127,118034876
741,0,Ticks_Pract_8,38,5,42,127,118834492
741,0,Ticks_Pract_8,39,1,48,31,118855712
741,0,Ticks_Pract_8,40,5,42,127,119635568
741,0,Ticks_Pract_8,41,1,48,39,119641832
741,0,Ticks_Pract_8,42,5,42,127,120435232
741,0,Ticks_Pract_8,43,1,48,39,120474400
741,0,Ticks_Pract_8,44,5,42,127,121234668
741,0,Ticks_Pract_8,45,1,48,31,121257384
741,0,Ticks_Pract_8,46,5,42,127,122034476
741,0,Ticks_Pract_8,47,1,48,35,122053448
741,0,Ticks_Pract_8,48,1,48,35,122820856
741,0,Ticks_Pract_8,49,5,42,127,122835468
741,0,Ticks_Pract_8,50,5,42,127,123634988
741,0,Ticks_Pract_8,51,1,48,30,123656132
741,0,Ticks_Pract_8,52,5,42,127,124434724
741,0,Ticks_Pract_8,53,1,48,37,124435988
741,0,Ticks_Pract_8,54,5,42,127,125234632
741,0,Ticks_Pract_8,55,1,48,37,125285316
741,0,Ticks_Pract_8,0,9999,9999,9999,102032480
741,0,Ticks_Pract_8,1,9999,9999,9999,102832236
741,0,Ticks_Pract_8,2,9999,9999,9999,103632964
741,0,Ticks_Pract_8,3,9999,9999,9999,104432720
741,0,Ticks_Pract_8,4,9999,9999,9999,105232472
741,0,Ticks_Pract_8,5,9999,9999,9999,106032232
741,0,Ticks_Pract_8,6,9999,9999,9999,106833012
741,0,Ticks_Pract_8,7,9999,9999,9999,107632744
741,0,Ticks_Pract_8,8,9999,9999,9999,108432480
741,0,Ticks_Pract_8,9,9999,9999,9999,109232212
741,0,Ticks_Pract_8,10,9999,9999,9999,110032992
741,0,Ticks_Pract_8,11,9999,9999,9999,110832720
741,0,Ticks_Pract_8,12,9999,9999,9999,111632452
741,0,Ticks_Pract_8,13,9999,9999,9999,112432212
741,0,Ticks_Pract_8,14,9999,9999,9999,113232988
741,0,Ticks_Pract_8,15,9999,9999,9999,114032732
741,0,Ticks_Pract_8,16,9999,9999,9999,114832464
741,0,Ticks_Pract_8,17,9999,9999,9999,115632200
741,0,Ticks_Pract_8,18,9999,9999,9999,116432972
741,0,Ticks_Pract_8,19,9999,9999,9999,117232712
741,0,Ticks_Pract_8,20,9999,9999,9999,118032440
741,0,Ticks_Pract_8,21,9999,9999,9999,118832204
741,0,Ticks_Pract_8,22,9999,9999,9999,119632984
741,0,Ticks_Pract_8,23,9999,9999,9999,120432716
741,0,Ticks_Pract_8,24,9999,9999,9999,121232452
741,0,Ticks_Pract_8,25,9999,9999,9999,122032184
741,0,Ticks_Pract_8,26,9999,9999,9999,122832960
741,0,Ticks_Pract_8,27,9999,9999,9999,123632700
741,0,Ticks_Pract_8,28,9999,9999,9999,124432436
741,0,Ticks_Pract_8,29,9999,9999,9999,125232192
742,1,Ticks_Pract_5,0,5,42,127,148544900
742,1,Ticks_Pract_5,1,5,42,127,149044764
742,1,Ticks_Pract_5,2,5,42,127,149545228
742,1,Ticks_Pract_5,3,5,42,127,150044920
742,1,Ticks_Pract_5,4,5,42,127,150544936
742,1,Ticks_Pract_5,5,1,48,24,150571120
742,1,Ticks_Pract_5,6,1,48,26,151030452
742,1,Ticks_Pract_5,7,5,42,127,151044624
742,1,Ticks_Pract_5,8,1,48,26,151505540
742,1,Ticks_Pract_5,9,5,42,127,151545068
742,1,Ticks_Pract_5,10,1,48,36,152002844
742,1,Ticks_Pract_5,11,5,42,127,152044912
742,1,Ticks_Pract_5,12,1,48,27,152517196
742,1,Ticks_Pract_5,13,5,42,127,152544752
742,1,Ticks_Pract_5,14,1,48,30,153016064
742,1,Ticks_Pract_5,15,5,42,127,153045420
742,1,Ticks_Pract_5,16,1,48,25,153515016
742,1,Ticks_Pract_5,17,5,42,127,153545040
742,1,Ticks_Pract_5,18,5,42,127,154044744
742,1,Ticks_Pract_5,19,1,48,31,154054896
742,1,Ticks_Pract_5,20,1,48,26,154538636
742,1,Ticks_Pract_5,21,5,42,127,154544504
742,1,Ticks_Pract_5,22,1,48,25,155035484
742,1,Ticks_Pract_5,23,5,42,127,155045172
742,1,Ticks_Pract_5,24,1,48,29,155511544
742,1,Ticks_Pract_5,25,5,42,127,155544864
742,1,Ticks_Pract_5,26,5,42,127,156044788
742,1,Ticks_Pract_5,27,1,48,29,156046276
742,1,Ticks_Pract_5,28,1,48,26,156538916
742,1,Ticks_Pract_5,29,5,42,127,156545376
742,1,Ticks_Pract_5,30,1,48,28,157042640
742,1,Ticks_Pract_5,31,5,42,127,157045144
742,1,Ticks_Pract_5,32,1,48,27,157520868
742,1,Ticks_Pract_5,33,5,42,127,157544840
742,1,Ticks_Pract_5,34,5,42,127,158044468
742,1,Ticks_Pract_5,35,1,48,17,158058880
742,1,Ticks_Pract_5,36,1,48,31,158533052
742,1,Ticks_Pract_5,37,5,42,127,158545276
742,1,Ticks_Pract_5,38,1,48,27,159007288
742,1,Ticks_Pract_5,39,5,42,127,159045044
742,1,Ticks_Pract_5,40,1,48,28,159501376
742,1,Ticks_Pract_5,41,5,42,127,159544736
742,1,Ticks_Pract_5,42,1,48,33,160040956
742,1,Ticks_Pract_5,43,5,42,127,160045328
742,1,Ticks_Pract_5,44,5,42,127,160545156
742,1,Ticks_Pract_5,45,1,48,32,160552560
742,1,Ticks_Pract_5,46,5,42,127,161044772
742,1,Ticks_Pract_5,47,1,48,27,161064520
742,1,Ticks_Pract_5,48,1,48,32,161536872
742,1,Ticks_Pract_5,49,5,42,127,161544684
742,1,Ticks_Pract_5,50,1,48,32,162030284
742,1,Ticks_Pract_5,51,5,42,127,162045276
742,1,Ticks_Pract_5,52,1,48,32,162537536
742,1,Ticks_Pract_5,53,5,42,127,162544972
742,1,Ticks_Pract_5,54,1,48,30,163037528
742,1,Ticks_Pract_5,55,5,42,127,163044740
742,1,Ticks_Pract_5,56,1,48,35,163514484
742,1,Ticks_Pract_5,57,5,42,127,163544508
742,1,Ticks_Pract_5,58,5,42,127,164045184
742,1,Ticks_Pract_5,59,1,48,31,164061168
742,1,Ticks_Pract_5,60,1,48,32,164524496
742,1,Ticks_Pract_5,61,5,42,127,164544948
742,1,Ticks_Pract_5,62,1,48,29,164983720
742,1,Ticks_Pract_5,63,5,42,127,165044640
742,1,Ticks_Pract_5,64,1,48,41,165534056
742,1,Ticks_Pract_5,65,5,42,127,165545308
742,1,Ticks_Pract_5,66,1,48,36,166000016
742,1,Ticks_Pract_5,67,5,42,127,166044928
742,1,Ticks_Pract_5,68,1,48,28,166503004
742,1,Ticks_Pract_5,69,5,42,127,166544776
742,1,Ticks_Pract_5,70,1,48,33,167010556
742,1,Ticks_Pract_5,71,5,42,127,167044472
742,1,Ticks_Pract_5,72,1,48,35,167538152
742,1,Ticks_Pract_5,73,5,42,127,167545064
742,1,Ticks_Pract_5,74,1,48,38,168027300
742,1,Ticks_Pract_5,75,5,42,127,168044908
742,1,Ticks_Pract_5,0,9999,9999,9999,148542540
742,1,Ticks_Pract_5,1,9999,9999,9999,149042256
742,1,Ticks_Pract_5,2,9999,9999,9999,149543016
742,1,Ticks_Pract_5,3,9999,9999,9999,150042708
742,1,Ticks_Pract_5,4,9999,9999,9999,150542424
742,1,Ticks_Pract_5,5,9999,9999,9999,151042112
742,1,Ticks_Pract_5,6,9999,9999,9999,151542856
742,1,Ticks_Pract_5,7,9999,9999,9999,152042548
742,1,Ticks_Pract_5,8,9999,9999,9999,152542320
742,1,Ticks_Pract_5,9,9999,9999,9999,153043060
742,1,Ticks_Pract_5,10,9999,9999,9999,153542756
742,1,Ticks_Pract_5,11,9999,9999,9999,154042456
742,1,Ticks_Pract_5,12,9999,9999,9999,154542144
742,1,Ticks_Pract_5,13,9999,9999,9999,155042884
742,1,Ticks_Pract_5,14,9999,9999,9999,155542580
742,1,Ticks_Pract_5,15,9999,9999,9999,156042356
742,1,Ticks_Pract_5,16,9999,9999,9999,156543088
742,1,Ticks_Pract_5,17,9999,9999,9999,157042784
742,1,Ticks_Pract_5,18,9999,9999,9999,157542480
742,1,Ticks_Pract_5,19,9999,9999,9999,158042180
742,1,Ticks_Pract_5,20,9999,9999,9999,158542916
742,1,Ticks_Pract_5,21,9999,9999,9999,159042608
742,1,Ticks_Pract_5,22,9999,9999,9999,159542376
742,1,Ticks_Pract_5,23,9999,9999,9999,160043116
742,1,Ticks_Pract_5,24,9999,9999,9999,160542792
742,1,Ticks_Pract_5,25,9999,9999,9999,161042488
742,1,Ticks_Pract_5,26,9999,9999,9999,161542248
742,1,Ticks_Pract_5,27,9999,9999,9999,162042992
742,1,Ticks_Pract_5,28,9999,9999,9999,162542684
742,1,Ticks_Pract_5,29,9999,9999,9999,163042380
742,1,Ticks_Pract_5,30,9999,9999,9999,163542072
742,1,Ticks_Pract_5,31,9999,9999,9999,164042824
742,1,Ticks_Pract_5,32,9999,9999,9999,164542512
742,1,Ticks_Pract_5,33,9999,9999,9999,165042280
742,1,Ticks_Pract_5,34,9999,9999,9999,165543024
742,1,Ticks_Pract_5,35,9999,9999,9999,166042720
742,1,Ticks_Pract_5,36,9999,9999,9999,166542412
742,1,Ticks_Pract_5,37,9999,9999,9999,167042112
742,1,Ticks_Pract_5,38,9999,9999,9999,167542852
742,1,Ticks_Pract_5,39,9999,9999,9999,168042548
743,2,T1_SMS_8,0,5,42,127,250323160
743,2,T1_SMS_8,1,5,42,127,251123140
743,2,T1_SMS_8,2,1,48,30,251319040
743,2,T1_SMS_8,3,5,42,127,251922728
743,2,T1_SMS_8,4,1,48,26,252027148
743,2,T1_SMS_8,5,5,42,127,252722412
743,2,T1_SMS_8,6,1,48,27,252753504
743,2,T1_SMS_8,7,1,48,28,253509688
743,2,T1_SMS_8,8,5,42,127,253523408
743,2,T1_SMS_8,9,1,48,27,254289748
743,2,T1_SMS_8,10,5,42,127,254322992
743,2,T1_SMS_8,11,1,48,29,255084844
743,2,T1_SMS_8,12,5,42,127,255122876
743,2,T1_SMS_8,13,5,42,127,255922464
743,2,T1_SMS_8,14,1,48,23,255957000
743,2,T1_SMS_8,15,1,48,31,256714452
743,2,T1_SMS_8,16,5,42,127,256723388
743,2,T1_SMS_8,17,5,42,127,257523052
743,2,T1_SMS_8,18,1,48,29,257555644
743,2,T1_SMS_8,19,5,42,127,258322860
743,2,T1_SMS_8,20,1,48,29,258324272
743,2,T1_SMS_8,21,5,42,127,259122396
743,2,T1_SMS_8,22,1,48,32,259130676
743,2,T1_SMS_8,23,1,48,28,259917080
743,2,T1_SMS_8,24,5,42,127,259923392
743,2,T1_SMS_8,25,5,42,127,260723280
743,2,T1_SMS_8,26,1,48,31,260728348
743,2,T1_SMS_8,27,1,48,32,261483104
743,2,T1_SMS_8,28,5,42,127,261522708
743,2,T1_SMS_8,29,5,42,127,262322524
743,2,T1_SMS_8,30,1,48,17,262352492
743,2,T1_SMS_8,31,5,42,127,263123304
743,2,T1_SMS_8,32,1,48,22,263137268
743,2,T1_SMS_8,33,5,42,127,263923260
743,2,T1_SMS_8,34,1,48,32,263940888
743,2,T1_SMS_8,35,5,42,127,264722768
743,2,T1_SMS_8,36,1,48,26,264734116
743,2,T1_SMS_8,37,5,42,127,265522524
743,2,T1_SMS_8,38,1,48,32,265549208
743,2,T1_SMS_8,39,1,48,27,266323752
743,2,T1_SMS_8,40,5,42,127,266324940
743,2,T1_SMS_8,41,5,42,127,267123336
743,2,T1_SMS_8,42,1,48,31,267158396
743,2,T1_SMS_8,43,1,48,27,267909496
743,2,T1_SMS_8,44,5,42,127,267922988
743,2,T1_SMS_8,45,1,48,25,268720760
743,2,T1_SMS_8,46,5,42,127,268722500
743,2,T1_SMS_8,47,1,48,28,269498492
743,2,T1_SMS_8,48,5,42,127,269523276
743,2,T1_SMS_8,49,1,48,33,270312132
743,2,T1_SMS_8,50,5,42,127,270323012
743,2,T1_SMS_8,51,5,42,127,271122976
743,2,T1_SMS_8,52,1,48,32,271162548
743,2,T1_SMS_8,53,5,42,127,271922508
743,2,T1_SMS_8,54,1,48,25,271940888
743,2,T1_SMS_8,55,1,48,29,272696924
743,2,T1_SMS_8,56,5,42,127,272723284
743,2,T1_SMS_8,57,5,42,127,273523024
743,2,T1_SMS_8,58,1,48,34,273528240
743,2,T1_SMS_8,59,5,42,127,274322980
743,2,T1_SMS_8,60,1,48,36,274325496
743,2,T1_SMS_8,61,5,42,127,275122416
743,2,T1_SMS_8,62,1,48,31,275129800
743,2,T1_SMS_8,63,5,42,127,275923344
743,2,T1_SMS_8,64,1,48,28,275954288
743,2,T1_SMS_8,65,5,42,127,276723004
743,2,T1_SMS_8,66,1,48,32,276771852
743,2,T1_SMS_8,67,5,42,127,277522888
743,2,T1_SMS_8,68,1,48,29,277564780
743,2,T1_SMS_8,69,5,42,127,278322648
743,2,T1_SMS_8,70,1,48,38,278338480
743,2,T1_SMS_8,71,1,48,37,279088980
743,2,T1_SMS_8,72,5,42,127,279123272
743,2,T1_SMS_8,73,1,48,39,279886920
743,2,T1_SMS_8,74,5,42,127,279923008
743,2,T1_SMS_8,75,1,48,29,280712156
743,2,T1_SMS_8,76,5,42,127,280722888
743,2,T1_SMS_8,77,1,48,38,281517728
743,2,T1_SMS_8,78,5,42,127,281522920
743,2,T1_SMS_8,79,5,42,127,282323332
743,2,T1_SMS_8,80,1,48,29,282336704
743,2,T1_SMS_8,81,1,48,42,283116748
743,2,T1_SMS_8,82,5,42,127,283122984
743,2,T1_SMS_8,83,1,48,42,283921748
743,2,T1_SMS_8,84,5,42,127,283923312
743,2,T1_SMS_8,85,5,42,127,284722632
743,2,T1_SMS_8,86,1,48,28,284726276
743,2,T1_SMS_8,87,5,42,127,285523188
743,2,T1_SMS_8,88,1,48,35,285540596
743,2,T1_SMS_8,89,1,48,34,286279424
743,2,T1_SMS_8,90,5,42,127,286323064
743,2,T1_SMS_8,91,1,48,34,287100624
743,2,T1_SMS_8,92,5,42,127,287122724
743,2,T1_SMS_8,93,1,48,38,287872904
743,2,T1_SMS_8,94,5,42,127,287922604
743,2,T1_SMS_8,95,1,48,40,288677728
743,2,T1_SMS_8,96,5,42,127,288723164
743,2,T1_SMS_8,97,1,48,40,289474920
743,2,T1_SMS_8,98,5,42,127,289523048
743,2,T1_SMS_8,99,5,42,127,290322788
743,2,T1_SMS_8,100,1,48,38,290339764
743,2,T1_SMS_8,101,1,48,36,291093084
743,2,T1_SMS_8,102,5,42,127,291122612
743,2,T1_SMS_8,103,5,42,127,291923252
743,2,T1_SMS_8,104,1,48,45,291937140
743,2,T1_SMS_8,105,1,48,35,292701704
743,2,T1_SMS_8,106,5,42,127,292722904
743,2,T1_SMS_8,107,5,42,127,293522792
743,2,T1_SMS_8,108,1,48,41,293532868
743,2,T1_SMS_8,109,5,42,127,294322600
743,2,T1_SMS_8,110,1,48,36,294359976
743,2,T1_SMS_8,111,1,48,29,295089008
743,2,T1_SMS_8,112,5,42,127,295123596
743,2,T1_SMS_8,113,5,42,127,295923040
743,2,T1_SMS_8,114,1,48,39,295925556
743,2,T1_SMS_8,115,1,48,37,296711812
743,2,T1_SMS_8,116,5,42,127,296722692
743,2,T1_SMS_8,117,1,48,39,297501072
743,2,T1_SMS_8,118,5,42,127,297522672
743,2,T1_SMS_8,119,5,42,127,298323312
743,2,T1_SMS_8,120,1,48,32,298328676
743,2,T1_SMS_8,121,5,42,127,299123044
743,2,T1_SMS_8,122,1,48,40,299148532
743,2,T1_SMS_8,123,5,42,127,299922780
743,2,T1_SMS_8,124,1,48,40,299924264
743,2,T1_SMS_8,125,5,42,127,300722736
743,2,T1_SMS_8,126,1,48,41,300746500
743,2,T1_SMS_8,127,5,42,127,301523440
743,2,T1_SMS_8,128,1,48,36,301554536
743,2,T1_SMS_8,129,5,42,127,302322952
743,2,T1_SMS_8,130,1,48,41,302380624
743,2,T1_SMS_8,131,5,42,127,303122760
743,2,T1_SMS_8,132,1,48,41,303132012
743,2,T1_SMS_8,133,1,48,27,303915368
743,2,T1_SMS_8,134,5,42,127,303922660
743,2,T1_SMS_8,135,1,48,37,304687580
743,2,T1_SMS_8,136,5,42,127,304723440
743,2,T1_SMS_8,137,1,48,39,305492768
743,2,T1_SMS_8,138,5,42,127,305523024
743,2,T1_SMS_8,139,1,48,40,306296468
743,2,T1_SMS_8,140,5,42,127,306322832
743,2,T1_SMS_8,141,1,48,36,307082368
743,2,T1_SMS_8,142,5,42,127,307122640
743,2,T1_SMS_8,143,1,48,37,307913436
743,2,T1_SMS_8,144,5,42,127,307923492
743,2,T1_SMS_8,145,5,42,127,308723160
743,2,T1_SMS_8,146,1,48,43,308745580
743,2,T1_SMS_8,147,5,42,127,309522820
743,2,T1_SMS_8,148,1,48,38,309578400
743,2,T1_SMS_8,149,5,42,127,310322580
743,2,T1_SMS_8,150,1,48,28,310370504
743,2,T1_SMS_8,151,5,42,127,311123436
743,2,T1_SMS_8,152,1,48,38,311147424
743,2,T1_SMS_8,153,1,48,35,311894256
743,2,T1_SMS_8,154,5,42,127,311923160
743,2,T1_SMS_8,155,5,42,127,312722756
743,2,T1_SMS_8,156,1,48,36,312730888
743,2,T1_SMS_8,157,5,42,127,313522416
743,2,T1_SMS_8,158,1,48,41,313543632
743,2,T1_SMS_8,159,1,48,40,314322588
743,2,T1_SMS_8,160,5,42,127,314324160
743,2,T1_SMS_8,161,5,42,127,315123076
743,2,T1_SMS_8,162,1,48,36,315156492
743,2,T1_SMS_8,163,5,42,127,315922660
743,2,T1_SMS_8,164,1,48,34,315923996
743,2,T1_SMS_8,165,5,42,127,316722420
743,2,T1_SMS_8,166,1,48,36,316759792
743,2,T1_SMS_8,167,1,48,37,317518520
743,2,T1_SMS_8,168,5,42,127,317523488
743,2,T1_SMS_8,169,5,42,127,318323156
743,2,T1_SMS_8,170,1,48,39,318340036
743,2,T1_SMS_8,171,1,48,43,319100484
743,2,T1_SMS_8,172,5,42,127,319122660
743,2,T1_SMS_8,173,5,42,127,319922472
743,2,T1_SMS_8,174,1,48,42,319945632
743,2,T1_SMS_8,175,1,48,39,320714312
743,2,T1_SMS_8,176,5,42,127,320723468
743,2,T1_SMS_8,177,5,42,127,321523132
743,2,T1_SMS_8,178,1,48,39,321553556
743,2,T1_SMS_8,179,5,42,127,322322720
743,2,T1_SMS_8,180,1,48,43,322333096
743,2,T1_SMS_8,181,5,42,127,323122604
743,2,T1_SMS_8,182,1,48,38,323142176
743,2,T1_SMS_8,183,5,42,127,323923380
743,2,T1_SMS_8,184,1,48,38,323924348
743,2,T1_SMS_8,185,1,48,35,324721836
743,2,T1_SMS_8,186,5,42,127,324723332
743,2,T1_SMS_8,187,5,42,127,325522924
743,2,T1_SMS_8,188,1,48,42,325578328
743,2,T1_SMS_8,189,5,42,127,326322432
743,2,T1_SMS_8,190,1,48,37,326337600
743,2,T1_SMS_8,191,1,48,38,327117192
743,2,T1_SMS_8,192,5,42,127,327123356
743,2,T1_SMS_8,193,5,42,127,327923244
743,2,T1_SMS_8,194,1,48,38,327937436
743,2,T1_SMS_8,195,5,42,127,328722680
743,2,T1_SMS_8,196,1,48,39,328735244
743,2,T1_SMS_8,197,5,42,127,329522436
743,2,T1_SMS_8,198,1,48,35,329589656
743,2,T1_SMS_8,199,5,42,127,330323292
743,2,T1_SMS_8,200,1,48,41,330326936
743,2,T1_SMS_8,201,5,42,127,331123324
743,2,T1_SMS_8,202,1,48,37,331160028
743,2,T1_SMS_8,203,1,48,40,331885916
743,2,T1_SMS_8,204,5,42,127,331923200
743,2,T1_SMS_8,205,5,42,127,332722492
743,2,T1_SMS_8,206,1,48,42,332735404
743,2,T1_SMS_8,207,5,42,127,333523320
743,2,T1_SMS_8,208,1,48,42,333539904
743,2,T1_SMS_8,209,1,48,38,334314040
743,2,T1_SMS_8,210,5,42,127,334323124
743,2,T1_SMS_8,211,1,48,38,335116088
743,2,T1_SMS_8,212,5,42,127,335122856
743,2,T1_SMS_8,213,5,42,127,335922620
743,2,T1_SMS_8,214,1,48,39,335958576
743,2,T1_SMS_8,215,5,42,127,336723252
743,2,T1_SMS_8,216,1,48,38,336758088
743,2,T1_SMS_8,217,5,42,127,337522984
743,2,T1_SMS_8,218,1,48,39,337543532
743,2,T1_SMS_8,219,1,48,43,338310784
743,2,T1_SMS_8,220,5,42,127,338322784
743,2,T1_SMS_8,221,5,42,127,339122600
743,2,T1_SMS_8,222,1,48,40,339161624
743,2,T1_SMS_8,223,1,48,43,339897088
743,2,T1_SMS_8,224,5,42,127,339923300
743,2,T1_SMS_8,225,5,42,127,340723112
743,2,T1_SMS_8,226,1,48,38,340726084
743,2,T1_SMS_8,227,1,48,41,341512184
743,2,T1_SMS_8,228,5,42,127,341522916
743,2,T1_SMS_8,229,5,42,127,342322608
743,2,T1_SMS_8,230,1,48,40,342351232
743,2,T1_SMS_8,231,5,42,127,343123240
743,2,T1_SMS_8,232,1,48,39,343124800
743,2,T1_SMS_8,233,5,42,127,343923196
743,2,T1_SMS_8,234,1,48,40,343954064
743,2,T1_SMS_8,235,5,42,127,344723004
743,2,T1_SMS_8,236,1,48,42,344736820
743,2,T1_SMS_8,237,1,48,40,345490160
743,2,T1_SMS_8,238,5,42,127,345522432
743,2,T1_SMS_8,0,9999,9999,9999,250320948
743,2,T1_SMS_8,1,9999,9999,9999,251120704
743,2,T1_SMS_8,2,9999,9999,9999,251920436
743,2,T1_SMS_8,3,9999,9999,9999,252720196
743,2,T1_SMS_8,4,9999,9999,9999,253520968
743,2,T1_SMS_8,5,9999,9999,9999,254320704
743,2,T1_SMS_8,6,9999,9999,9999,255120440
743,2,T1_SMS_8,7,9999,9999,9999,255920176
743,2,T1_SMS_8,8,9999,9999,9999,256720952
743,2,T1_SMS_8,9,9999,9999,9999,257520688
743,2,T1_SMS_8,10,9999,9999,9999,258320496
743,2,T1_SMS_8,11,9999,9999,9999,259120180
743,2,T1_SMS_8,12,9999,9999,9999,259920956
743,2,T1_SMS_8,13,9999,9999,9999,260720696
743,2,T1_SMS_8,14,9999,9999,9999,261520496
743,2,T1_SMS_8,15,9999,9999,9999,262320236
743,2,T1_SMS_8,16,9999,9999,9999,263121016
743,2,T1_SMS_8,17,9999,9999,9999,263920748
743,2,T1_SMS_8,18,9999,9999,9999,264720480
743,2,T1_SMS_8,19,9999,9999,9999,265520236
743,2,T1_SMS_8,20,9999,9999,9999,266320944
743,2,T1_SMS_8,21,9999,9999,9999,267120752
743,2,T1_SMS_8,22,9999,9999,9999,267920476
743,2,T1_SMS_8,23,9999,9999,9999,268720236
743,2,T1_SMS_8,24,9999,9999,9999,269520992
743,2,T1_SMS_8,25,9999,9999,9999,270320724
743,2,T1_SMS_8,26,9999,9999,9999,271120464
743,2,T1_SMS_8,27,9999,9999,9999,271920220
743,2,T1_SMS_8,28,9999,9999,9999,272720996
743,2,T1_SMS_8,29,9999,9999,9999,273520736
743,2,T1_SMS_8,30,9999,9999,9999,274320468
743,2,T1_SMS_8,31,9999,9999,9999,275120204
743,2,T1_SMS_8,32,9999,9999,9999,275920984
743,2,T1_SMS_8,33,9999,9999,9999,276720716
743,2,T1_SMS_8,34,9999,9999,9999,277520448
743,2,T1_SMS_8,35,9999,9999,9999,278320212
743,2,T1_SMS_8,36,9999,9999,9999,279120984
743,2,T1_SMS_8,37,9999,9999,9999,279920720
743,2,T1_SMS_8,38,9999,9999,9999,280720452
743,2,T1_SMS_8,39,9999,9999,9999,281520184
743,2,T1_SMS_8,40,9999,9999,9999,282320972
743,2,T1_SMS_8,41,9999,9999,9999,283120700
743,2,T1_SMS_8,42,9999,9999,9999,283920436
743,2,T1_SMS_8,43,9999,9999,9999,284720196
743,2,T1_SMS_8,44,9999,9999,9999,285520976
743,2,T1_SMS_8,45,9999,9999,9999,286320704
743,2,T1_SMS_8,46,9999,9999,9999,287120436
743,2,T1_SMS_8,47,9999,9999,9999,287920244
743,2,T1_SMS_8,48,9999,9999,9999,288720948
743,2,T1_SMS_8,49,9999,9999,9999,289520760
743,2,T1_SMS_8,50,9999,9999,9999,290320500
743,2,T1_SMS_8,51,9999,9999,9999,291120176
743,2,T1_SMS_8,52,9999,9999,9999,291920964
743,2,T1_SMS_8,53,9999,9999,9999,292720692
743,2,T1_SMS_8,54,9999,9999,9999,293520428
743,2,T1_SMS_8,55,9999,9999,9999,294320236
743,2,T1_SMS_8,56,9999,9999,9999,295121012
743,2,T1_SMS_8,57,9999,9999,9999,295920752
743,2,T1_SMS_8,58,9999,9999,9999,296720476
743,2,T1_SMS_8,59,9999,9999,9999,297520236
743,2,T1_SMS_8,60,9999,9999,9999,298320948
743,2,T1_SMS_8,61,9999,9999,9999,299120756
743,2,T1_SMS_8,62,9999,9999,9999,299920492
743,2,T1_SMS_8,63,9999,9999,9999,300720228
743,2,T1_SMS_8,64,9999,9999,9999,301521004
743,2,T1_SMS_8,65,9999,9999,9999,302320736
743,2,T1_SMS_8,66,9999,9999,9999,303120472
743,2,T1_SMS_8,67,9999,9999,9999,303920220
743,2,T1_SMS_8,68,9999,9999,9999,304721004
743,2,T1_SMS_8,69,9999,9999,9999,305520736
743,2,T1_SMS_8,70,9999,9999,9999,306320468
743,2,T1_SMS_8,71,9999,9999,9999,307120200
743,2,T1_SMS_8,72,9999,9999,9999,307920984
743,2,T1_SMS_8,73,9999,9999,9999,308720724
743,2,T1_SMS_8,74,9999,9999,9999,309520456
743,2,T1_SMS_8,75,9999,9999,9999,310320216
743,2,T1_SMS_8,76,9999,9999,9999,311120996
743,2,T1_SMS_8,77,9999,9999,9999,311920724
743,2,T1_SMS_8,78,9999,9999,9999,312720468
743,2,T1_SMS_8,79,9999,9999,9999,313520200
743,2,T1_SMS_8,80,9999,9999,9999,314320980
743,2,T1_SMS_8,81,9999,9999,9999,315120712
743,2,T1_SMS_8,82,9999,9999,9999,315920448
743,2,T1_SMS_8,83,9999,9999,9999,316720204
743,2,T1_SMS_8,84,9999,9999,9999,317520976
743,2,T1_SMS_8,85,9999,9999,9999,318320720
743,2,T1_SMS_8,86,9999,9999,9999,319120444
743,2,T1_SMS_8,87,9999,9999,9999,319920184
743,2,T1_SMS_8,88,9999,9999,9999,320720960
743,2,T1_SMS_8,89,9999,9999,9999,321520696
743,2,T1_SMS_8,90,9999,9999,9999,322320432
743,2,T1_SMS_8,91,9999,9999,9999,323120240
743,2,T1_SMS_8,92,9999,9999,9999,323920944
743,2,T1_SMS_8,93,9999,9999,9999,324720752
743,2,T1_SMS_8,94,9999,9999,9999,325520484
743,2,T1_SMS_8,95,9999,9999,9999,326320220
743,2,T1_SMS_8,96,9999,9999,9999,327120992
743,2,T1_SMS_8,97,9999,9999,9999,327920732
743,2,T1_SMS_8,98,9999,9999,9999,328720464
743,2,T1_SMS_8,99,9999,9999,9999,329520220
743,2,T1_SMS_8,100,9999,9999,9999,330321004
743,2,T1_SMS_8,101,9999,9999,9999,331120736
743,2,T1_SMS_8,102,9999,9999,9999,331920464
743,2,T1_SMS_8,103,9999,9999,9999,332720204
743,2,T1_SMS_8,104,9999,9999,9999,333520960
743,2,T1_SMS_8,105,9999,9999,9999,334320684
743,2,T1_SMS_8,106,9999,9999,9999,335120492
743,2,T1_SMS_8,107,9999,9999,9999,335920184
743,2,T1_SMS_8,108,9999,9999,9999,336720964
743,2,T1_SMS_8,109,9999,9999,9999,337520696
743,2,T1_SMS_8,110,9999,9999,9999,338320496
743,2,T1_SMS_8,111,9999,9999,9999,339120236
743,2,T1_SMS_8,112,9999,9999,9999,339921012
743,2,T1_SMS_8,113,9999,9999,9999,340720752
743,2,T1_SMS_8,114,9999,9999,9999,341520480
743,2,T1_SMS_8,115,9999,9999,9999,342320244
743,2,T1_SMS_8,116,9999,9999,9999,343120952
743,2,T1_SMS_8,117,9999,9999,9999,343920756
743,2,T1_SMS_8,118,9999,9999,9999,344720492
743,2,T1_SMS_8,119,9999,9999,9999,345520220
744,4,T1_SMS_5,0,5,42,127,412591460
744,4,T1_SMS_5,1,5,42,127,413092296
744,4,T1_SMS_5,2,5,42,127,413591940
744,4,T1_SMS_5,3,5,42,127,414091808
744,4,T1_SMS_5,4,5,42,127,414592348
744,4,T1_SMS_5,5,1,48,21,414606468
744,4,T1_SMS_5,6,1,48,30,415076448
744,4,T1_SMS_5,7,5,42,127,415092040
744,4,T1_SMS_5,8,1,48,37,415554448
744,4,T1_SMS_5,9,5,42,127,415591956
744,4,T1_SMS_5,10,1,48,27,416080328
744,4,T1_SMS_5,11,5,42,127,416091432
744,4,T1_SMS_5,12,1,48,27,416543968
744,4,T1_SMS_5,13,5,42,127,416592172
744,4,T1_SMS_5,14,5,42,127,417091872
744,4,T1_SMS_5,15,1,48,30,417101876
744,4,T1_SMS_5,16,1,48,34,417577992
744,4,T1_SMS_5,17,5,42,127,417591712
744,4,T1_SMS_5,18,1,48,34,418056864
744,4,T1_SMS_5,19,5,42,127,418092304
744,4,T1_SMS_5,20,1,48,35,418590800
744,4,T1_SMS_5,21,5,42,127,418592296
744,4,T1_SMS_5,22,5,42,127,419091896
744,4,T1_SMS_5,23,1,48,32,419093384
744,4,T1_SMS_5,24,1,48,31,419567316
744,4,T1_SMS_5,25,5,42,127,419591736
744,4,T1_SMS_5,26,5,42,127,420092260
744,4,T1_SMS_5,27,1,48,33,420113252
744,4,T1_SMS_5,28,1,48,35,420567004
744,4,T1_SMS_5,29,5,42,127,420592020
744,4,T1_SMS_5,30,1,48,33,421085624
744,4,T1_SMS_5,31,5,42,127,421091792
744,4,T1_SMS_5,32,5,42,127,421592320
744,4,T1_SMS_5,33,1,48,36,421597388
744,4,T1_SMS_5,34,1,48,34,422090884
744,4,T1_SMS_5,35,5,42,127,422092380
744,4,T1_SMS_5,36,5,42,127,422591784
744,4,T1_SMS_5,37,1,48,36,422592972
744,4,T1_SMS_5,38,1,48,35,423079100
744,4,T1_SMS_5,39,5,42,127,423091768
744,4,T1_SMS_5,40,1,48,35,423579164
744,4,T1_SMS_5,41,5,42,127,423592216
744,4,T1_SMS_5,42,5,42,127,424091992
744,4,T1_SMS_5,43,1,48,38,424098400
744,4,T1_SMS_5,44,5,42,127,424591836
744,4,T1_SMS_5,45,1,48,39,424596900
744,4,T1_SMS_5,46,5,42,127,425091456
744,4,T1_SMS_5,47,1,48,29,425096220
744,4,T1_SMS_5,48,5,42,127,425592048
744,4,T1_SMS_5,49,1,48,26,425601376
744,4,T1_SMS_5,50,1,48,34,426084968
744,4,T1_SMS_5,51,5,42,127,426091884
744,4,T1_SMS_5,52,1,48,33,426570008
744,4,T1_SMS_5,53,5,42,127,426591656
744,4,T1_SMS_5,54,5,42,127,427092328
744,4,T1_SMS_5,55,1,48,33,427116016
744,4,T1_SMS_5,56,5,42,127,427592024
744,4,T1_SMS_5,57,1,48,35,427608384
744,4,T1_SMS_5,58,5,42,127,428091720
744,4,T1_SMS_5,59,1,48,29,428098580
744,4,T1_SMS_5,60,5,42,127,428591412
744,4,T1_SMS_5,61,1,48,33,428605752
744,4,T1_SMS_5,62,1,48,35,429072568
744,4,T1_SMS_5,63,5,42,127,429092072
744,4,T1_SMS_5,64,5,42,127,429592292
744,4,T1_SMS_5,65,1,48,31,429615384
744,4,T1_SMS_5,66,5,42,127,430091664
744,4,T1_SMS_5,67,1,48,36,430100544
744,4,T1_SMS_5,68,1,48,35,430567608
744,4,T1_SMS_5,69,5,42,127,430592248
744,4,T1_SMS_5,70,5,42,127,431091952
744,4,T1_SMS_5,71,1,48,38,431099780
744,4,T1_SMS_5,72,1,48,30,431580536
744,4,T1_SMS_5,73,5,42,127,431591860
744,4,T1_SMS_5,74,1,48,29,432086440
744,4,T1_SMS_5,75,5,42,127,432091708
744,4,T1_SMS_5,76,5,42,127,432592156
744,4,T1_SMS_5,77,1,48,31,432624592
744,4,T1_SMS_5,78,1,48,35,433061740
744,4,T1_SMS_5,79,5,42,127,433091996
744,4,T1_SMS_5,80,1,48,34,433561288
744,4,T1_SMS_5,81,5,42,127,433591840
744,4,T1_SMS_5,82,1,48,32,434064344
744,4,T1_SMS_5,83,5,42,127,434092356
744,4,T1_SMS_5,84,5,42,127,434592132
744,4,T1_SMS_5,85,1,48,31,434601760
744,4,T1_SMS_5,86,5,42,127,435091752
744,4,T1_SMS_5,87,1,48,32,435092720
744,4,T1_SMS_5,88,5,42,127,435591748
744,4,T1_SMS_5,89,1,48,32,435604964
744,4,T1_SMS_5,90,1,48,34,436078764
744,4,T1_SMS_5,91,5,42,127,436092260
744,4,T1_SMS_5,92,1,48,31,436576812
744,4,T1_SMS_5,93,5,42,127,436591952
744,4,T1_SMS_5,94,5,42,127,437091728
744,4,T1_SMS_5,95,1,48,34,437107564
744,4,T1_SMS_5,96,1,48,29,437586520
744,4,T1_SMS_5,97,5,42,127,437592464
744,4,T1_SMS_5,98,5,42,127,438092240
744,4,T1_SMS_5,99,1,48,28,438099100
744,4,T1_SMS_5,100,1,48,28,438583668
744,4,T1_SMS_5,101,5,42,127,438591852
744,4,T1_SMS_5,102,1,48,26,439063988
744,4,T1_SMS_5,103,5,42,127,439091772
744,4,T1_SMS_5,104,1,48,27,439587696
744,4,T1_SMS_5,105,5,42,127,439592440
744,4,T1_SMS_5,106,1,48,29,440091240
744,4,T1_SMS_5,107,5,42,127,440092812
744,4,T1_SMS_5,108,1,48,31,440578608
744,4,T1_SMS_5,109,5,42,127,440591656
744,4,T1_SMS_5,110,1,48,27,441069104
744,4,T1_SMS_5,111,5,42,127,441091648
744,4,T1_SMS_5,112,1,48,30,441578000
744,4,T1_SMS_5,113,5,42,127,441592020
744,4,T1_SMS_5,114,1,48,24,442085096
744,4,T1_SMS_5,115,5,42,127,442091940
744,4,T1_SMS_5,116,5,42,127,442591864
744,4,T1_SMS_5,117,1,48,32,442614652
744,4,T1_SMS_5,118,5,42,127,443092456
744,4,T1_SMS_5,119,1,48,29,443106192
744,4,T1_SMS_5,120,5,42,127,443592152
744,4,T1_SMS_5,121,1,48,28,443593116
744,4,T1_SMS_5,122,5,42,127,444091696
744,4,T1_SMS_5,123,1,48,28,444098556
744,4,T1_SMS_5,124,1,48,26,444587240
744,4,T1_SMS_5,125,5,42,127,444591832
744,4,T1_SMS_5,126,5,42,127,445092060
744,4,T1_SMS_5,127,1,48,31,445112684
744,4,T1_SMS_5,128,1,48,28,445574952
744,4,T1_SMS_5,129,5,42,127,445591892
744,4,T1_SMS_5,130,1,48,31,446076588
744,4,T1_SMS_5,131,5,42,127,446091584
744,4,T1_SMS_5,132,1,48,33,446575764
744,4,T1_SMS_5,133,5,42,127,446592476
744,4,T1_SMS_5,134,5,42,127,447091956
744,4,T1_SMS_5,135,1,48,33,447103896
744,4,T1_SMS_5,136,1,48,32,447577624
744,4,T1_SMS_5,137,5,42,127,447591716
744,4,T1_SMS_5,138,1,48,34,448066848
744,4,T1_SMS_5,139,5,42,127,448091412
744,4,T1_SMS_5,140,5,42,127,448592160
744,4,T1_SMS_5,141,1,48,30,448596100
744,4,T1_SMS_5,142,1,48,31,449087252
744,4,T1_SMS_5,143,5,42,127,449092072
744,4,T1_SMS_5,144,5,42,127,449591628
744,4,T1_SMS_5,145,1,48,30,449616508
744,4,T1_SMS_5,146,1,48,31,450079912
744,4,T1_SMS_5,147,5,42,127,450092436
744,4,T1_SMS_5,148,1,48,33,450578308
744,4,T1_SMS_5,149,5,42,127,450592056
744,4,T1_SMS_5,150,5,42,127,451091804
744,4,T1_SMS_5,151,1,48,30,451097568
744,4,T1_SMS_5,152,1,48,33,451575672
744,4,T1_SMS_5,153,5,42,127,451591420
744,4,T1_SMS_5,154,1,48,28,452069392
744,4,T1_SMS_5,155,5,42,127,452092460
744,4,T1_SMS_5,156,5,42,127,452591936
744,4,T1_SMS_5,157,1,48,36,452600968
744,4,T1_SMS_5,158,1,48,36,453077680
744,4,T1_SMS_5,159,5,42,127,453091624
744,4,T1_SMS_5,160,1,48,18,453569600
744,4,T1_SMS_5,161,5,42,127,453592368
744,4,T1_SMS_5,162,1,48,34,454089948
744,4,T1_SMS_5,163,5,42,127,454092064
744,4,T1_SMS_5,164,1,48,33,454562032
744,4,T1_SMS_5,165,5,42,127,454591908
744,4,T1_SMS_5,166,5,42,127,455091536
744,4,T1_SMS_5,167,1,48,33,455098472
744,4,T1_SMS_5,168,1,48,31,455585428
744,4,T1_SMS_5,169,5,42,127,455592416
744,4,T1_SMS_5,170,5,42,127,456092120
744,4,T1_SMS_5,171,1,48,35,456110796
744,4,T1_SMS_5,172,5,42,127,456591668
744,4,T1_SMS_5,173,1,48,27,456629864
744,4,T1_SMS_5,174,5,42,127,457091360
744,4,T1_SMS_5,175,1,48,32,457099716
744,4,T1_SMS_5,176,1,48,35,457576352
744,4,T1_SMS_5,177,5,42,127,457592392
744,4,T1_SMS_5,178,5,42,127,458092020
744,4,T1_SMS_5,179,1,48,34,458092984
744,4,T1_SMS_5,180,1,48,29,458570284
744,4,T1_SMS_5,181,5,42,127,458591488
744,4,T1_SMS_5,182,1,48,34,459073720
744,4,T1_SMS_5,183,5,42,127,459092524
744,4,T1_SMS_5,184,1,48,30,459569072
744,4,T1_SMS_5,185,5,42,127,459592296
744,4,T1_SMS_5,186,1,48,32,460078644
744,4,T1_SMS_5,187,5,42,127,460091620
744,4,T1_SMS_5,188,1,48,30,460571380
744,4,T1_SMS_5,189,5,42,127,460591464
744,4,T1_SMS_5,190,1,48,34,461063648
744,4,T1_SMS_5,191,5,42,127,461092576
744,4,T1_SMS_5,192,5,42,127,461591832
744,4,T1_SMS_5,193,1,48,29,461592796
744,4,T1_SMS_5,194,5,42,127,462091576
744,4,T1_SMS_5,195,1,48,31,462095288
744,4,T1_SMS_5,196,1,48,33,462580908
744,4,T1_SMS_5,197,5,42,127,462592460
744,4,T1_SMS_5,198,5,42,127,463092456
744,4,T1_SMS_5,199,1,48,28,463133672
744,4,T1_SMS_5,200,5,42,127,463591780
744,4,T1_SMS_5,201,1,48,29,463602304
744,4,T1_SMS_5,202,1,48,32,464051044
744,4,T1_SMS_5,203,5,42,127,464091544
744,4,T1_SMS_5,204,5,42,127,464592440
744,4,T1_SMS_5,205,1,48,34,464612312
744,4,T1_SMS_5,206,1,48,32,465075492
744,4,T1_SMS_5,207,5,42,127,465092204
744,4,T1_SMS_5,208,1,48,37,465571296
744,4,T1_SMS_5,209,5,42,127,465591600
744,4,T1_SMS_5,210,1,48,35,466065228
744,4,T1_SMS_5,211,5,42,127,466092492
744,4,T1_SMS_5,212,1,48,37,466536660
744,4,T1_SMS_5,213,5,42,127,466592336
744,4,T1_SMS_5,214,1,48,35,467087368
744,4,T1_SMS_5,215,5,42,127,467091956
744,4,T1_SMS_5,216,1,48,29,467575684
744,4,T1_SMS_5,217,5,42,127,467591504
744,4,T1_SMS_5,218,5,42,127,468092328
744,4,T1_SMS_5,219,1,48,36,468100684
744,4,T1_SMS_5,220,1,48,34,468565800
744,4,T1_SMS_5,221,5,42,127,468592240
744,4,T1_SMS_5,222,1,48,35,469070964
744,4,T1_SMS_5,223,5,42,127,469091712
744,4,T1_SMS_5,224,1,48,36,469561384
744,4,T1_SMS_5,225,5,42,127,469592456
744,4,T1_SMS_5,226,1,48,36,470070120
744,4,T1_SMS_5,227,5,42,127,470092520
744,4,T1_SMS_5,228,1,48,28,470549224
744,4,T1_SMS_5,229,5,42,127,470592140
744,4,T1_SMS_5,230,5,42,127,471091620
744,4,T1_SMS_5,231,1,48,35,471105956
744,4,T1_SMS_5,232,1,48,29,471576236
744,4,T1_SMS_5,233,5,42,127,471592280
744,4,T1_SMS_5,234,1,48,36,472062744
744,4,T1_SMS_5,235,5,42,127,472092196
744,4,T1_SMS_5,236,1,48,29,472571860
744,4,T1_SMS_5,237,5,42,127,472591792
744,4,T1_SMS_5,238,1,48,32,473086440
744,4,T1_SMS_5,239,5,42,127,473091340
744,4,T1_SMS_5,240,5,42,127,473592164
744,4,T1_SMS_5,241,1,48,29,473598868
744,4,T1_SMS_5,242,1,48,30,474071472
744,4,T1_SMS_5,243,5,42,127,474092000
744,4,T1_SMS_5,244,1,48,23,474563456
744,4,T1_SMS_5,245,5,42,127,474591544
744,4,T1_SMS_5,246,1,48,34,475065320
744,4,T1_SMS_5,247,5,42,127,475092284
744,4,T1_SMS_5,248,1,48,35,475569360
744,4,T1_SMS_5,249,5,42,127,475592056
744,4,T1_SMS_5,250,5,42,127,476091608
744,4,T1_SMS_5,251,1,48,30,476092576
744,4,T1_SMS_5,252,1,48,34,476584452
744,4,T1_SMS_5,253,5,42,127,476591592
744,4,T1_SMS_5,254,5,42,127,477092268
744,4,T1_SMS_5,255,1,48,34,477099280
744,4,T1_SMS_5,256,1,48,28,477578980
744,4,T1_SMS_5,0,9999,9999,9999,412589172
744,4,T1_SMS_5,1,9999,9999,9999,413089860
744,4,T1_SMS_5,2,9999,9999,9999,413589580
744,4,T1_SMS_5,3,9999,9999,9999,414089296
744,4,T1_SMS_5,4,9999,9999,9999,414590064
744,4,T1_SMS_5,5,9999,9999,9999,415089752
744,4,T1_SMS_5,6,9999,9999,9999,415589448
744,4,T1_SMS_5,7,9999,9999,9999,416089144
744,4,T1_SMS_5,8,9999,9999,9999,416589884
744,4,T1_SMS_5,9,9999,9999,9999,417089584
744,4,T1_SMS_5,10,9999,9999,9999,417589352
744,4,T1_SMS_5,11,9999,9999,9999,418090088
744,4,T1_SMS_5,12,9999,9999,9999,418589792
744,4,T1_SMS_5,13,9999,9999,9999,419089460
744,4,T1_SMS_5,14,9999,9999,9999,419589224
744,4,T1_SMS_5,15,9999,9999,9999,420089972
744,4,T1_SMS_5,16,9999,9999,9999,420589660
744,4,T1_SMS_5,17,9999,9999,9999,421089356
744,4,T1_SMS_5,18,9999,9999,9999,421590108
744,4,T1_SMS_5,19,9999,9999,9999,422089800
744,4,T1_SMS_5,20,9999,9999,9999,422589496
744,4,T1_SMS_5,21,9999,9999,9999,423089260
744,4,T1_SMS_5,22,9999,9999,9999,423590004
744,4,T1_SMS_5,23,9999,9999,9999,424089704
744,4,T1_SMS_5,24,9999,9999,9999,424589400
744,4,T1_SMS_5,25,9999,9999,9999,425089096
744,4,T1_SMS_5,26,9999,9999,9999,425589836
744,4,T1_SMS_5,27,9999,9999,9999,426089524
744,4,T1_SMS_5,28,9999,9999,9999,426589296
744,4,T1_SMS_5,29,9999,9999,9999,427090040
744,4,T1_SMS_5,30,9999,9999,9999,427589736
744,4,T1_SMS_5,31,9999,9999,9999,428089432
744,4,T1_SMS_5,32,9999,9999,9999,428589128
744,4,T1_SMS_5,33,9999,9999,9999,429089860
744,4,T1_SMS_5,34,9999,9999,9999,429589612
744,4,T1_SMS_5,35,9999,9999,9999,430089304
744,4,T1_SMS_5,36,9999,9999,9999,430590036
744,4,T1_SMS_5,37,9999,9999,9999,431089736
744,4,T1_SMS_5,38,9999,9999,9999,431589428
744,4,T1_SMS_5,39,9999,9999,9999,432089196
744,4,T1_SMS_5,40,9999,9999,9999,432589944
744,4,T1_SMS_5,41,9999,9999,9999,433089632
744,4,T1_SMS_5,42,9999,9999,9999,433589328
744,4,T1_SMS_5,43,9999,9999,9999,434090072
744,4,T1_SMS_5,44,9999,9999,9999,434589772
744,4,T1_SMS_5,45,9999,9999,9999,435089468
744,4,T1_SMS_5,46,9999,9999,9999,435589236
744,4,T1_SMS_5,47,9999,9999,9999,436089972
744,4,T1_SMS_5,48,9999,9999,9999,436589668
744,4,T1_SMS_5,49,9999,9999,9999,437089368
744,4,T1_SMS_5,50,9999,9999,9999,437590104
744,4,T1_SMS_5,51,9999,9999,9999,438089804
744,4,T1_SMS_5,52,9999,9999,9999,438589492
744,4,T1_SMS_5,53,9999,9999,9999,439089264
744,4,T1_SMS_5,54,9999,9999,9999,439590004
744,4,T1_SMS_5,55,9999,9999,9999,440089708
744,4,T1_SMS_5,56,9999,9999,9999,440589372
744,4,T1_SMS_5,57,9999,9999,9999,441089140
744,4,T1_SMS_5,58,9999,9999,9999,441589808
744,4,T1_SMS_5,59,9999,9999,9999,442089576
744,4,T1_SMS_5,60,9999,9999,9999,442589280
744,4,T1_SMS_5,61,9999,9999,9999,443090020
744,4,T1_SMS_5,62,9999,9999,9999,443589716
744,4,T1_SMS_5,63,9999,9999,9999,444089412
744,4,T1_SMS_5,64,9999,9999,9999,444589172
744,4,T1_SMS_5,65,9999,9999,9999,445089848
744,4,T1_SMS_5,66,9999,9999,9999,445589604
744,4,T1_SMS_5,67,9999,9999,9999,446089300
744,4,T1_SMS_5,68,9999,9999,9999,446590040
744,4,T1_SMS_5,69,9999,9999,9999,447089744
744,4,T1_SMS_5,70,9999,9999,9999,447589432
744,4,T1_SMS_5,71,9999,9999,9999,448089200
744,4,T1_SMS_5,72,9999,9999,9999,448589872
744,4,T1_SMS_5,73,9999,9999,9999,449089636
744,4,T1_SMS_5,74,9999,9999,9999,449589340
744,4,T1_SMS_5,75,9999,9999,9999,450090072
744,4,T1_SMS_5,76,9999,9999,9999,450589768
744,4,T1_SMS_5,77,9999,9999,9999,451089520
744,4,T1_SMS_5,78,9999,9999,9999,451589208
744,4,T1_SMS_5,79,9999,9999,9999,452089952
744,4,T1_SMS_5,80,9999,9999,9999,452589652
744,4,T1_SMS_5,81,9999,9999,9999,453089340
744,4,T1_SMS_5,82,9999,9999,9999,453590080
744,4,T1_SMS_5,83,9999,9999,9999,454089820
744,4,T1_SMS_5,84,9999,9999,9999,454589548
744,4,T1_SMS_5,85,9999,9999,9999,455089248
744,4,T1_SMS_5,86,9999,9999,9999,455589984
744,4,T1_SMS_5,87,9999,9999,9999,456089684
744,4,T1_SMS_5,88,9999,9999,9999,456589380
744,4,T1_SMS_5,89,9999,9999,9999,457089076
744,4,T1_SMS_5,90,9999,9999,9999,457589808
744,4,T1_SMS_5,91,9999,9999,9999,458089584
744,4,T1_SMS_5,92,9999,9999,9999,458589276
744,4,T1_SMS_5,93,9999,9999,9999,459090016
744,4,T1_SMS_5,94,9999,9999,9999,459589712
744,4,T1_SMS_5,95,9999,9999,9999,460089408
744,4,T1_SMS_5,96,9999,9999,9999,460589176
744,4,T1_SMS_5,97,9999,9999,9999,461089844
744,4,T1_SMS_5,98,9999,9999,9999,461589596
744,4,T1_SMS_5,99,9999,9999,9999,462089288
744,4,T1_SMS_5,100,9999,9999,9999,462590024
744,4,T1_SMS_5,101,9999,9999,9999,463089724
744,4,T1_SMS_5,102,9999,9999,9999,463589496
744,4,T1_SMS_5,103,9999,9999,9999,464089184
744,4,T1_SMS_5,104,9999,9999,9999,464589932
744,4,T1_SMS_5,105,9999,9999,9999,465089620
744,4,T1_SMS_5,106,9999,9999,9999,465589316
744,4,T1_SMS_5,107,9999,9999,9999,466090056
744,4,T1_SMS_5,108,9999,9999,9999,466589752
744,4,T1_SMS_5,109,9999,9999,9999,467089524
744,4,T1_SMS_5,110,9999,9999,9999,467589220
744,4,T1_SMS_5,111,9999,9999,9999,468089968
744,4,T1_SMS_5,112,9999,9999,9999,468589656
744,4,T1_SMS_5,113,9999,9999,9999,469089352
744,4,T1_SMS_5,114,9999,9999,9999,469590092
744,4,T1_SMS_5,115,9999,9999,9999,470089788
744,4,T1_SMS_5,116,9999,9999,9999,470589556
744,4,T1_SMS_5,117,9999,9999,9999,471089256
744,4,T1_SMS_5,118,9999,9999,9999,471589992
744,4,T1_SMS_5,119,9999,9999,9999,472089688
744,4,T1_SMS_5,120,9999,9999,9999,472589432
744,4,T1_SMS_5,121,9999,9999,9999,473089128
744,4,T1_SMS_5,122,9999,9999,9999,473589876
744,4,T1_SMS_5,123,9999,9999,9999,474089564
744,4,T1_SMS_5,124,9999,9999,9999,474589260
744,4,T1_SMS_5,125,9999,9999,9999,475090000
744,4,T1_SMS_5,126,9999,9999,9999,475589692
744,4,T1_SMS_5,127,9999,9999,9999,476089396
744,4,T1_SMS_5,128,9999,9999,9999,476589160
744,4,T1_SMS_5,129,9999,9999,9999,477089904
745,9,Ticks_ISO_T2_8,0,5,42,127,489801968
745,9,Ticks_ISO_T2_8,1,5,42,127,490601800
745,9,Ticks_ISO_T2_8,2,1,48,23,490773456
745,9,Ticks_ISO_T2_8,3,5,42,127,491401456
745,9,Ticks_ISO_T2_8,4,1,48,30,491555464
745,9,Ticks_ISO_T2_8,5,5,42,127,492202312
745,9,Ticks_ISO_T2_8,6,1,48,18,492658984
745,9,Ticks_ISO_T2_8,7,5,42,127,493002120
745,9,Ticks_ISO_T2_8,8,1,48,25,493177448
745,9,Ticks_ISO_T2_8,9,1,48,22,493723424
745,9,Ticks_ISO_T2_8,10,5,42,127,493801920
745,9,Ticks_ISO_T2_8,11,1,48,25,494523980
745,9,Ticks_ISO_T2_8,12,5,42,127,494601580
745,9,Ticks_ISO_T2_8,13,1,48,21,495392404
745,9,Ticks_ISO_T2_8,14,5,42,127,495402384
745,9,Ticks_ISO_T2_8,15,5,42,127,496202052
745,9,Ticks_ISO_T2_8,16,1,48,26,496224164
745,9,Ticks_ISO_T2_8,17,1,48,26,497002008
745,9,Ticks_ISO_T2_8,18,5,42,127,497003268
745,9,Ticks_ISO_T2_8,19,1,48,33,497769840
745,9,Ticks_ISO_T2_8,20,5,42,127,497801512
745,9,Ticks_ISO_T2_8,21,1,48,31,498562764
745,9,Ticks_ISO_T2_8,22,5,42,127,498602292
745,9,Ticks_ISO_T2_8,23,1,48,32,499362348
745,9,Ticks_ISO_T2_8,24,5,42,127,499401948
745,9,Ticks_ISO_T2_8,25,1,48,28,500163652
745,9,Ticks_ISO_T2_8,26,5,42,127,500201980
745,9,Ticks_ISO_T2_8,27,1,48,23,500941996
745,9,Ticks_ISO_T2_8,28,5,42,127,501001712
745,9,Ticks_ISO_T2_8,29,1,48,29,501760576
745,9,Ticks_ISO_T2_8,30,5,42,127,501802220
745,9,Ticks_ISO_T2_8,31,1,48,17,502564744
745,9,Ticks_ISO_T2_8,32,5,42,127,502602104
745,9,Ticks_ISO_T2_8,33,1,48,22,503377272
745,9,Ticks_ISO_T2_8,34,5,42,127,503401984
745,9,Ticks_ISO_T2_8,35,1,48,29,504153740
745,9,Ticks_ISO_T2_8,36,5,42,127,504201720
745,9,Ticks_ISO_T2_8,37,1,48,17,504989904
745,9,Ticks_ISO_T2_8,38,5,42,127,505002276
745,9,Ticks_ISO_T2_8,39,1,48,24,505732936
745,9,Ticks_ISO_T2_8,40,5,42,127,505802012
745,9,Ticks_ISO_T2_8,41,1,48,27,506534316
745,9,Ticks_ISO_T2_8,42,5,42,127,506601892
745,9,Ticks_ISO_T2_8,43,1,48,27,507377812
745,9,Ticks_ISO_T2_8,44,5,42,127,507401848
745,9,Ticks_ISO_T2_8,45,1,48,29,508150536
745,9,Ticks_ISO_T2_8,46,5,42,127,508202280
745,9,Ticks_ISO_T2_8,47,1,48,29,508934636
745,9,Ticks_ISO_T2_8,48,5,42,127,509001940
745,9,Ticks_ISO_T2_8,49,1,48,26,509787128
745,9,Ticks_ISO_T2_8,50,5,42,127,509801824
745,9,Ticks_ISO_T2_8,51,1,48,28,510561056
745,9,Ticks_ISO_T2_8,52,5,42,127,510601780
745,9,Ticks_ISO_T2_8,53,1,48,29,511349948
745,9,Ticks_ISO_T2_8,54,5,42,127,511402412
745,9,Ticks_ISO_T2_8,55,1,48,28,512139808
745,9,Ticks_ISO_T2_8,56,5,42,127,512202072
745,9,Ticks_ISO_T2_8,57,1,48,30,512965192
745,9,Ticks_ISO_T2_8,58,5,42,127,513001728
745,9,Ticks_ISO_T2_8,59,1,48,24,513772184
745,9,Ticks_ISO_T2_8,60,5,42,127,513801836
745,9,Ticks_ISO_T2_8,61,1,48,32,514570272
745,9,Ticks_ISO_T2_8,62,5,42,127,514602416
745,9,Ticks_ISO_T2_8,63,1,48,19,515346448
745,9,Ticks_ISO_T2_8,64,5,42,127,515402004
745,9,Ticks_ISO_T2_8,65,1,48,32,516167448
745,9,Ticks_ISO_T2_8,66,5,42,127,516201736
745,9,Ticks_ISO_T2_8,67,1,48,34,516995156
745,9,Ticks_ISO_T2_8,68,5,42,127,517001544
745,9,Ticks_ISO_T2_8,69,1,48,30,517801052
745,9,Ticks_ISO_T2_8,70,5,42,127,517802548
745,9,Ticks_ISO_T2_8,71,5,42,127,518602068
745,9,Ticks_ISO_T2_8,72,1,48,28,518604080
745,9,Ticks_ISO_T2_8,73,1,48,35,519368852
745,9,Ticks_ISO_T2_8,74,5,42,127,519401868
745,9,Ticks_ISO_T2_8,75,1,48,30,520175836
745,9,Ticks_ISO_T2_8,76,5,42,127,520201528
745,9,Ticks_ISO_T2_8,77,5,42,127,521002488
745,9,Ticks_ISO_T2_8,78,1,48,36,521027900
745,9,Ticks_ISO_T2_8,79,5,42,127,521802220
745,9,Ticks_ISO_T2_8,80,1,48,30,521803188
745,9,Ticks_ISO_T2_8,81,5,42,127,522601804
745,9,Ticks_ISO_T2_8,82,1,48,24,522640976
745,9,Ticks_ISO_T2_8,83,1,48,32,523385488
745,9,Ticks_ISO_T2_8,84,5,42,127,523401608
745,9,Ticks_ISO_T2_8,85,5,42,127,524202544
745,9,Ticks_ISO_T2_8,86,1,48,28,524210748
745,9,Ticks_ISO_T2_8,87,5,42,127,525001980
745,9,Ticks_ISO_T2_8,88,1,48,31,525005468
745,9,Ticks_ISO_T2_8,89,1,48,30,525790528
745,9,Ticks_ISO_T2_8,90,5,42,127,525801852
745,9,Ticks_ISO_T2_8,91,1,48,28,526601520
745,9,Ticks_ISO_T2_8,92,5,42,127,526602856
745,9,Ticks_ISO_T2_8,93,1,48,34,527401192
745,9,Ticks_ISO_T2_8,94,5,42,127,527402612
745,9,Ticks_ISO_T2_8,95,5,42,127,528202056
745,9,Ticks_ISO_T2_8,96,1,48,31,528215796
745,9,Ticks_ISO_T2_8,97,5,42,127,529001716
745,9,Ticks_ISO_T2_8,98,1,48,30,529027424
745,9,Ticks_ISO_T2_8,99,1,48,29,529793108
745,9,Ticks_ISO_T2_8,100,5,42,127,529801516
745,9,Ticks_ISO_T2_8,101,1,48,35,530577204
745,9,Ticks_ISO_T2_8,102,5,42,127,530602520
745,9,Ticks_ISO_T2_8,103,1,48,35,531382996
745,9,Ticks_ISO_T2_8,104,5,42,127,531402104
745,9,Ticks_ISO_T2_8,105,5,42,127,532201844
745,9,Ticks_ISO_T2_8,106,1,48,36,532225532
745,9,Ticks_ISO_T2_8,107,5,42,127,533001504
745,9,Ticks_ISO_T2_8,108,1,48,29,533017364
745,9,Ticks_ISO_T2_8,109,1,48,36,533797704
745,9,Ticks_ISO_T2_8,110,5,42,127,533802452
745,9,Ticks_ISO_T2_8,111,5,42,127,534602264
745,9,Ticks_ISO_T2_8,112,1,48,21,534621468
745,9,Ticks_ISO_T2_8,113,1,48,35,535369572
745,9,Ticks_ISO_T2_8,114,5,42,127,535401696
745,9,Ticks_ISO_T2_8,115,1,48,33,536194364
745,9,Ticks_ISO_T2_8,116,5,42,127,536201580
745,9,Ticks_ISO_T2_8,117,5,42,127,537002292
745,9,Ticks_ISO_T2_8,118,1,48,38,537008100
745,9,Ticks_ISO_T2_8,119,1,48,35,537782464
745,9,Ticks_ISO_T2_8,120,5,42,127,537802316
745,9,Ticks_ISO_T2_8,121,5,42,127,538601760
745,9,Ticks_ISO_T2_8,122,1,48,33,538608696
745,9,Ticks_ISO_T2_8,123,1,48,32,539392180
745,9,Ticks_ISO_T2_8,124,5,42,127,539401708
745,9,Ticks_ISO_T2_8,125,5,42,127,540202296
745,9,Ticks_ISO_T2_8,126,1,48,38,540205640
745,9,Ticks_ISO_T2_8,127,1,48,36,540985684
745,9,Ticks_ISO_T2_8,128,5,42,127,541002248
745,9,Ticks_ISO_T2_8,129,1,48,38,541740764
745,9,Ticks_ISO_T2_8,130,5,42,127,541801756
745,9,Ticks_ISO_T2_8,131,1,48,36,542558968
745,9,Ticks_ISO_T2_8,132,5,42,127,542601492
745,9,Ticks_ISO_T2_8,133,5,42,127,543402352
745,9,Ticks_ISO_T2_8,134,1,48,36,543407124
745,9,Ticks_ISO_T2_8,135,1,48,34,544148792
745,9,Ticks_ISO_T2_8,136,5,42,127,544202228
745,9,Ticks_ISO_T2_8,137,1,48,38,544958924
745,9,Ticks_ISO_T2_8,138,5,42,127,545001892
745,9,Ticks_ISO_T2_8,139,1,48,39,545714000
745,9,Ticks_ISO_T2_8,140,5,42,127,545801624
745,9,Ticks_ISO_T2_8,141,1,48,36,546555744
745,9,Ticks_ISO_T2_8,142,5,42,127,546602332
745,9,Ticks_ISO_T2_8,143,1,48,38,547382204
745,9,Ticks_ISO_T2_8,144,5,42,127,547402136
745,9,Ticks_ISO_T2_8,145,1,48,40,548200216
745,9,Ticks_ISO_T2_8,146,5,42,127,548201800
745,9,Ticks_ISO_T2_8,147,1,48,32,548965964
745,9,Ticks_ISO_T2_8,148,5,42,127,549001604
745,9,Ticks_ISO_T2_8,149,5,42,127,549802468
745,9,Ticks_ISO_T2_8,150,1,48,40,549811496
745,9,Ticks_ISO_T2_8,151,1,48,40,550523396
745,9,Ticks_ISO_T2_8,152,5,42,127,550602044
745,9,Ticks_ISO_T2_8,153,1,48,40,551368384
745,9,Ticks_ISO_T2_8,154,5,42,127,551401928
745,9,Ticks_ISO_T2_8,155,1,48,39,552146204
745,9,Ticks_ISO_T2_8,156,5,42,127,552201512
745,9,Ticks_ISO_T2_8,157,1,48,37,552974364
745,9,Ticks_ISO_T2_8,158,5,42,127,553002316
745,9,Ticks_ISO_T2_8,159,1,48,35,553764468
745,9,Ticks_ISO_T2_8,160,5,42,127,553802052
745,9,Ticks_ISO_T2_8,161,5,42,127,554601792
745,9,Ticks_ISO_T2_8,162,1,48,29,554607980
745,9,Ticks_ISO_T2_8,163,1,48,36,555327140
745,9,Ticks_ISO_T2_8,164,5,42,127,555401668
745,9,Ticks_ISO_T2_8,165,1,48,28,556192468
745,9,Ticks_ISO_T2_8,166,5,42,127,556202228
745,9,Ticks_ISO_T2_8,167,5,42,127,557002188
745,9,Ticks_ISO_T2_8,168,1,48,36,557003080
745,9,Ticks_ISO_T2_8,169,5,42,127,557801772
745,9,Ticks_ISO_T2_8,170,1,48,42,557822692
745,9,Ticks_ISO_T2_8,171,5,42,127,558601508
745,9,Ticks_ISO_T2_8,172,1,48,38,558614224
745,9,Ticks_ISO_T2_8,173,1,48,40,559360584
745,9,Ticks_ISO_T2_8,174,5,42,127,559402232
745,9,Ticks_ISO_T2_8,175,1,48,38,560185772
745,9,Ticks_ISO_T2_8,176,5,42,127,560202264
745,9,Ticks_ISO_T2_8,177,1,48,39,560962020
745,9,Ticks_ISO_T2_8,178,5,42,127,561001996
745,9,Ticks_ISO_T2_8,179,5,42,127,561801516
745,9,Ticks_ISO_T2_8,180,1,48,23,561802480
745,9,Ticks_ISO_T2_8,181,1,48,41,562585048
745,9,Ticks_ISO_T2_8,182,5,42,127,562602288
745,9,Ticks_ISO_T2_8,183,1,48,29,563385156
745,9,Ticks_ISO_T2_8,184,5,42,127,563402172
745,9,Ticks_ISO_T2_8,185,1,48,37,564172252
745,9,Ticks_ISO_T2_8,186,5,42,127,564202052
745,9,Ticks_ISO_T2_8,187,1,48,42,564955304
745,9,Ticks_ISO_T2_8,188,5,42,127,565001712
745,9,Ticks_ISO_T2_8,189,5,42,127,565802300
745,9,Ticks_ISO_T2_8,190,1,48,38,565806988
745,9,Ticks_ISO_T2_8,191,1,48,39,566587780
745,9,Ticks_ISO_T2_8,192,5,42,127,566601952
745,9,Ticks_ISO_T2_8,193,1,48,37,567394092
745,9,Ticks_ISO_T2_8,194,5,42,127,567401984
745,9,Ticks_ISO_T2_8,195,5,42,127,568201572
745,9,Ticks_ISO_T2_8,196,1,48,40,568212096
745,9,Ticks_ISO_T2_8,197,5,42,127,569002352
745,9,Ticks_ISO_T2_8,198,1,48,40,569020436
745,9,Ticks_ISO_T2_8,199,5,42,127,569802160
745,9,Ticks_ISO_T2_8,200,1,48,39,569839692
745,9,Ticks_ISO_T2_8,201,5,42,127,570602044
745,9,Ticks_ISO_T2_8,202,1,48,38,570640696
745,9,Ticks_ISO_T2_8,203,1,48,41,571377180
745,9,Ticks_ISO_T2_8,204,5,42,127,571401520
745,9,Ticks_ISO_T2_8,205,1,48,40,572172048
745,9,Ticks_ISO_T2_8,206,5,42,127,572202328
745,9,Ticks_ISO_T2_8,207,5,42,127,573002064
745,9,Ticks_ISO_T2_8,208,1,48,40,573007280
745,9,Ticks_ISO_T2_8,209,5,42,127,573801948
745,9,Ticks_ISO_T2_8,210,1,48,42,573802912
745,9,Ticks_ISO_T2_8,211,5,42,127,574601756
745,9,Ticks_ISO_T2_8,212,1,48,44,574641676
745,9,Ticks_ISO_T2_8,213,1,48,44,575377816
745,9,Ticks_ISO_T2_8,214,5,42,127,575402380
745,9,Ticks_ISO_T2_8,215,1,48,43,576166476
745,9,Ticks_ISO_T2_8,216,5,42,127,576202040
745,9,Ticks_ISO_T2_8,217,1,48,44,576957984
745,9,Ticks_ISO_T2_8,218,5,42,127,577001848
745,9,Ticks_ISO_T2_8,219,1,48,43,577777388
745,9,Ticks_ISO_T2_8,220,5,42,127,577801952
745,9,Ticks_ISO_T2_8,221,1,48,29,578593004
745,9,Ticks_ISO_T2_8,222,5,42,127,578602312
745,9,Ticks_ISO_T2_8,223,1,48,46,579375756
745,9,Ticks_ISO_T2_8,224,5,42,127,579402120
745,9,Ticks_ISO_T2_8,225,1,48,38,580159260
745,9,Ticks_ISO_T2_8,226,5,42,127,580201780
745,9,Ticks_ISO_T2_8,227,1,48,45,580961908
745,9,Ticks_ISO_T2_8,228,5,42,127,581001512
745,9,Ticks_ISO_T2_8,229,5,42,127,581802448
745,9,Ticks_ISO_T2_8,230,1,48,40,581816568
745,9,Ticks_ISO_T2_8,231,5,42,127,582601956
745,9,Ticks_ISO_T2_8,232,1,48,40,582637840
745,9,Ticks_ISO_T2_8,233,5,42,127,583401764
745,9,Ticks_ISO_T2_8,234,1,48,29,583413188
745,9,Ticks_ISO_T2_8,235,1,48,40,584177372
745,9,Ticks_ISO_T2_8,236,5,42,127,584201716
745,9,Ticks_ISO_T2_8,237,5,42,127,585002380
745,9,Ticks_ISO_T2_8,238,1,48,34,585030780
745,9,Ticks_ISO_T2_8,0,9999,9999,9999,489799756
745,9,Ticks_ISO_T2_8,1,9999,9999,9999,490599512
745,9,Ticks_ISO_T2_8,2,9999,9999,9999,491399244
745,9,Ticks_ISO_T2_8,3,9999,9999,9999,492200024
745,9,Ticks_ISO_T2_8,4,9999,9999,9999,492999756
745,9,Ticks_ISO_T2_8,5,9999,9999,9999,493799484
745,9,Ticks_ISO_T2_8,6,9999,9999,9999,494599220
745,9,Ticks_ISO_T2_8,7,9999,9999,9999,495400024
745,9,Ticks_ISO_T2_8,8,9999,9999,9999,496199764
745,9,Ticks_ISO_T2_8,9,9999,9999,9999,496999496
745,9,Ticks_ISO_T2_8,10,9999,9999,9999,497799224
745,9,Ticks_ISO_T2_8,11,9999,9999,9999,498600004
745,9,Ticks_ISO_T2_8,12,9999,9999,9999,499399736
745,9,Ticks_ISO_T2_8,13,9999,9999,9999,500199468
745,9,Ticks_ISO_T2_8,14,9999,9999,9999,500999276
745,9,Ticks_ISO_T2_8,15,9999,9999,9999,501800008
745,9,Ticks_ISO_T2_8,16,9999,9999,9999,502599744
745,9,Ticks_ISO_T2_8,17,9999,9999,9999,503399476
745,9,Ticks_ISO_T2_8,18,9999,9999,9999,504199284
745,9,Ticks_ISO_T2_8,19,9999,9999,9999,504999988
745,9,Ticks_ISO_T2_8,20,9999,9999,9999,505799796
745,9,Ticks_ISO_T2_8,21,9999,9999,9999,506599532
745,9,Ticks_ISO_T2_8,22,9999,9999,9999,507399264
745,9,Ticks_ISO_T2_8,23,9999,9999,9999,508199992
745,9,Ticks_ISO_T2_8,24,9999,9999,9999,508999728
745,9,Ticks_ISO_T2_8,25,9999,9999,9999,509799536
745,9,Ticks_ISO_T2_8,26,9999,9999,9999,510599268
745,9,Ticks_ISO_T2_8,27,9999,9999,9999,511400048
745,9,Ticks_ISO_T2_8,28,9999,9999,9999,512199784
745,9,Ticks_ISO_T2_8,29,9999,9999,9999,512999516
745,9,Ticks_ISO_T2_8,30,9999,9999,9999,513799252
745,9,Ticks_ISO_T2_8,31,9999,9999,9999,514600056
745,9,Ticks_ISO_T2_8,32,9999,9999,9999,515399792
745,9,Ticks_ISO_T2_8,33,9999,9999,9999,516199524
745,9,Ticks_ISO_T2_8,34,9999,9999,9999,516999256
745,9,Ticks_ISO_T2_8,35,9999,9999,9999,517800044
745,9,Ticks_ISO_T2_8,36,9999,9999,9999,518599780
745,9,Ticks_ISO_T2_8,37,9999,9999,9999,519399504
745,9,Ticks_ISO_T2_8,38,9999,9999,9999,520199240
745,9,Ticks_ISO_T2_8,39,9999,9999,9999,521000048
745,9,Ticks_ISO_T2_8,40,9999,9999,9999,521799784
745,9,Ticks_ISO_T2_8,41,9999,9999,9999,522599516
745,9,Ticks_ISO_T2_8,42,9999,9999,9999,523399244
745,9,Ticks_ISO_T2_8,43,9999,9999,9999,524200032
745,9,Ticks_ISO_T2_8,44,9999,9999,9999,524999764
745,9,Ticks_ISO_T2_8,45,9999,9999,9999,525799492
745,9,Ticks_ISO_T2_8,46,9999,9999,9999,526599232
745,9,Ticks_ISO_T2_8,47,9999,9999,9999,527400036
745,9,Ticks_ISO_T2_8,48,9999,9999,9999,528199768
745,9,Ticks_ISO_T2_8,49,9999,9999,9999,528999500
745,9,Ticks_ISO_T2_8,50,9999,9999,9999,529799228
745,9,Ticks_ISO_T2_8,51,9999,9999,9999,530600008
745,9,Ticks_ISO_T2_8,52,9999,9999,9999,531399740
745,9,Ticks_ISO_T2_8,53,9999,9999,9999,532199484
745,9,Ticks_ISO_T2_8,54,9999,9999,9999,532999216
745,9,Ticks_ISO_T2_8,55,9999,9999,9999,533800012
745,9,Ticks_ISO_T2_8,56,9999,9999,9999,534599756
745,9,Ticks_ISO_T2_8,57,9999,9999,9999,535399484
745,9,Ticks_ISO_T2_8,58,9999,9999,9999,536199216
745,9,Ticks_ISO_T2_8,59,9999,9999,9999,537000004
745,9,Ticks_ISO_T2_8,60,9999,9999,9999,537799732
745,9,Ticks_ISO_T2_8,61,9999,9999,9999,538599472
745,9,Ticks_ISO_T2_8,62,9999,9999,9999,539399272
745,9,Ticks_ISO_T2_8,63,9999,9999,9999,540200008
745,9,Ticks_ISO_T2_8,64,9999,9999,9999,540999736
745,9,Ticks_ISO_T2_8,65,9999,9999,9999,541799468
745,9,Ticks_ISO_T2_8,66,9999,9999,9999,542599276
745,9,Ticks_ISO_T2_8,67,9999,9999,9999,543399988
745,9,Ticks_ISO_T2_8,68,9999,9999,9999,544199792
745,9,Ticks_ISO_T2_8,69,9999,9999,9999,544999528
745,9,Ticks_ISO_T2_8,70,9999,9999,9999,545799264
745,9,Ticks_ISO_T2_8,71,9999,9999,9999,546600044
745,9,Ticks_ISO_T2_8,72,9999,9999,9999,547399776
745,9,Ticks_ISO_T2_8,73,9999,9999,9999,548199520
745,9,Ticks_ISO_T2_8,74,9999,9999,9999,548999244
745,9,Ticks_ISO_T2_8,75,9999,9999,9999,549800032
745,9,Ticks_ISO_T2_8,76,9999,9999,9999,550599756
745,9,Ticks_ISO_T2_8,77,9999,9999,9999,551399492
745,9,Ticks_ISO_T2_8,78,9999,9999,9999,552199224
745,9,Ticks_ISO_T2_8,79,9999,9999,9999,553000028
745,9,Ticks_ISO_T2_8,80,9999,9999,9999,553799764
745,9,Ticks_ISO_T2_8,81,9999,9999,9999,554599504
745,9,Ticks_ISO_T2_8,82,9999,9999,9999,555399232
745,9,Ticks_ISO_T2_8,83,9999,9999,9999,556200012
745,9,Ticks_ISO_T2_8,84,9999,9999,9999,556999752
745,9,Ticks_ISO_T2_8,85,9999,9999,9999,557799484
745,9,Ticks_ISO_T2_8,86,9999,9999,9999,558599220
745,9,Ticks_ISO_T2_8,87,9999,9999,9999,559400016
745,9,Ticks_ISO_T2_8,88,9999,9999,9999,560199752
745,9,Ticks_ISO_T2_8,89,9999,9999,9999,560999484
745,9,Ticks_ISO_T2_8,90,9999,9999,9999,561799228
745,9,Ticks_ISO_T2_8,91,9999,9999,9999,562600000
745,9,Ticks_ISO_T2_8,92,9999,9999,9999,563399732
745,9,Ticks_ISO_T2_8,93,9999,9999,9999,564199540
745,9,Ticks_ISO_T2_8,94,9999,9999,9999,564999272
745,9,Ticks_ISO_T2_8,95,9999,9999,9999,565800012
745,9,Ticks_ISO_T2_8,96,9999,9999,9999,566599740
745,9,Ticks_ISO_T2_8,97,9999,9999,9999,567399472
745,9,Ticks_ISO_T2_8,98,9999,9999,9999,568199284
745,9,Ticks_ISO_T2_8,99,9999,9999,9999,568999992
745,9,Ticks_ISO_T2_8,100,9999,9999,9999,569799796
745,9,Ticks_ISO_T2_8,101,9999,9999,9999,570599532
745,9,Ticks_ISO_T2_8,102,9999,9999,9999,571399232
745,9,Ticks_ISO_T2_8,103,9999,9999,9999,572200040
745,9,Ticks_ISO_T2_8,104,9999,9999,9999,572999776
745,9,Ticks_ISO_T2_8,105,9999,9999,9999,573799512
745,9,Ticks_ISO_T2_8,106,9999,9999,9999,574599248
745,9,Ticks_ISO_T2_8,107,9999,9999,9999,575400020
745,9,Ticks_ISO_T2_8,108,9999,9999,9999,576199752
745,9,Ticks_ISO_T2_8,109,9999,9999,9999,576999484
745,9,Ticks_ISO_T2_8,110,9999,9999,9999,577799220
745,9,Ticks_ISO_T2_8,111,9999,9999,9999,578600024
745,9,Ticks_ISO_T2_8,112,9999,9999,9999,579399756
745,9,Ticks_ISO_T2_8,113,9999,9999,9999,580199492
745,9,Ticks_ISO_T2_8,114,9999,9999,9999,580999224
745,9,Ticks_ISO_T2_8,115,9999,9999,9999,581800012
745,9,Ticks_ISO_T2_8,116,9999,9999,9999,582599744
745,9,Ticks_ISO_T2_8,117,9999,9999,9999,583399476
745,9,Ticks_ISO_T2_8,118,9999,9999,9999,584199280
745,9,Ticks_ISO_T2_8,119,9999,9999,9999,585000016
746,10,Ticks_ISO_T2_5,0,5,42,127,596504820
746,10,Ticks_ISO_T2_5,1,5,42,127,597004588
746,10,Ticks_ISO_T2_5,2,5,42,127,597505496
746,10,Ticks_ISO_T2_5,3,1,48,20,597964632
746,10,Ticks_ISO_T2_5,4,5,42,127,598005060
746,10,Ticks_ISO_T2_5,5,1,48,31,598504080
746,10,Ticks_ISO_T2_5,6,5,42,127,598505576
746,10,Ticks_ISO_T2_5,7,1,48,37,598985264
746,10,Ticks_ISO_T2_5,8,5,42,127,599004524
746,10,Ticks_ISO_T2_5,9,1,48,37,599488476
746,10,Ticks_ISO_T2_5,10,5,42,127,599505264
746,10,Ticks_ISO_T2_5,11,5,42,127,600005116
746,10,Ticks_ISO_T2_5,12,1,48,35,600007716
746,10,Ticks_ISO_T2_5,13,1,48,33,600488468
746,10,Ticks_ISO_T2_5,14,5,42,127,600504656
746,10,Ticks_ISO_T2_5,15,1,48,34,600975596
746,10,Ticks_ISO_T2_5,16,5,42,127,601005472
746,10,Ticks_ISO_T2_5,17,1,48,33,601484716
746,10,Ticks_ISO_T2_5,18,5,42,127,601505240
746,10,Ticks_ISO_T2_5,19,1,48,31,601999596
746,10,Ticks_ISO_T2_5,20,5,42,127,602004864
746,10,Ticks_ISO_T2_5,21,1,48,35,602486716
746,10,Ticks_ISO_T2_5,22,5,42,127,602504480
746,10,Ticks_ISO_T2_5,23,1,48,28,602985964
746,10,Ticks_ISO_T2_5,24,5,42,127,603005448
746,10,Ticks_ISO_T2_5,25,1,48,32,603467560
746,10,Ticks_ISO_T2_5,26,5,42,127,603505144
746,10,Ticks_ISO_T2_5,27,1,48,30,603985504
746,10,Ticks_ISO_T2_5,28,5,42,127,604004764
746,10,Ticks_ISO_T2_5,29,5,42,127,604504392
746,10,Ticks_ISO_T2_5,30,1,48,34,604510948
746,10,Ticks_ISO_T2_5,31,5,42,127,605005428
746,10,Ticks_ISO_T2_5,32,1,48,35,605042884
746,10,Ticks_ISO_T2_5,33,5,42,127,605504824
746,10,Ticks_ISO_T2_5,34,1,48,19,605519392
746,10,Ticks_ISO_T2_5,35,5,42,127,606004448
746,10,Ticks_ISO_T2_5,36,1,48,34,606016016
746,10,Ticks_ISO_T2_5,37,1,48,40,606494152
746,10,Ticks_ISO_T2_5,38,5,42,127,606505628
746,10,Ticks_ISO_T2_5,39,5,42,127,607005032
746,10,Ticks_ISO_T2_5,40,1,48,35,607019300
746,10,Ticks_ISO_T2_5,41,5,42,127,607504804
746,10,Ticks_ISO_T2_5,42,1,48,41,607508824
746,10,Ticks_ISO_T2_5,43,5,42,127,608004396
746,10,Ticks_ISO_T2_5,44,1,48,30,608369660
746,10,Ticks_ISO_T2_5,45,5,42,127,608505436
746,10,Ticks_ISO_T2_5,46,1,48,38,608995912
746,10,Ticks_ISO_T2_5,47,5,42,127,609004848
746,10,Ticks_ISO_T2_5,48,5,42,127,609504476
746,10,Ticks_ISO_T2_5,49,1,48,40,609505440
746,10,Ticks_ISO_T2_5,50,5,42,127,610005440
746,10,Ticks_ISO_T2_5,51,1,48,30,610020080
746,10,Ticks_ISO_T2_5,52,5,42,127,610505208
746,10,Ticks_ISO_T2_5,53,1,48,31,610506172
746,10,Ticks_ISO_T2_5,54,1,48,37,610971056
746,10,Ticks_ISO_T2_5,55,5,42,127,611004672
746,10,Ticks_ISO_T2_5,56,1,48,36,611493040
746,10,Ticks_ISO_T2_5,57,5,42,127,611504444
746,10,Ticks_ISO_T2_5,58,1,48,38,611955260
746,10,Ticks_ISO_T2_5,59,5,42,127,612005404
746,10,Ticks_ISO_T2_5,60,1,48,30,612498864
746,10,Ticks_ISO_T2_5,61,5,42,127,612504876
746,10,Ticks_ISO_T2_5,62,1,48,37,612991820
746,10,Ticks_ISO_T2_5,63,5,42,127,613004796
746,10,Ticks_ISO_T2_5,64,1,48,39,613477156
746,10,Ticks_ISO_T2_5,65,5,42,127,613505464
746,10,Ticks_ISO_T2_5,66,1,48,36,613961968
746,10,Ticks_ISO_T2_5,67,5,42,127,614005456
746,10,Ticks_ISO_T2_5,68,1,48,36,614463232
746,10,Ticks_ISO_T2_5,69,5,42,127,614504928
746,10,Ticks_ISO_T2_5,70,1,48,38,614944748
746,10,Ticks_ISO_T2_5,71,5,42,127,615004624
746,10,Ticks_ISO_T2_5,72,1,48,37,615476008
746,10,Ticks_ISO_T2_5,73,5,42,127,615505440
746,10,Ticks_ISO_T2_5,74,1,48,38,615950404
746,10,Ticks_ISO_T2_5,75,5,42,127,616005256
746,10,Ticks_ISO_T2_5,76,1,48,36,616434656
746,10,Ticks_ISO_T2_5,77,5,42,127,616504656
746,10,Ticks_ISO_T2_5,78,1,48,32,616934432
746,10,Ticks_ISO_T2_5,79,5,42,127,617005468
746,10,Ticks_ISO_T2_5,80,1,48,38,617432776
746,10,Ticks_ISO_T2_5,81,5,42,127,617505312
746,10,Ticks_ISO_T2_5,82,1,48,35,617924168
746,10,Ticks_ISO_T2_5,83,5,42,127,618004784
746,10,Ticks_ISO_T2_5,84,1,48,39,618392372
746,10,Ticks_ISO_T2_5,85,5,42,127,618504516
746,10,Ticks_ISO_T2_5,86,1,48,32,618940236
746,10,Ticks_ISO_T2_5,87,5,42,127,619005420
746,10,Ticks_ISO_T2_5,88,1,48,37,619435220
746,10,Ticks_ISO_T2_5,89,5,42,127,619505188
746,10,Ticks_ISO_T2_5,90,1,48,32,619935360
746,10,Ticks_ISO_T2_5,91,5,42,127,620004660
746,10,Ticks_ISO_T2_5,92,1,48,35,620411572
746,10,Ticks_ISO_T2_5,93,5,42,127,620504428
746,10,Ticks_ISO_T2_5,94,1,48,43,620912460
746,10,Ticks_ISO_T2_5,95,5,42,127,621005168
746,10,Ticks_ISO_T2_5,96,1,48,31,621424568
746,10,Ticks_ISO_T2_5,97,5,42,127,621504864
746,10,Ticks_ISO_T2_5,98,1,48,22,621967276
746,10,Ticks_ISO_T2_5,99,5,42,127,622004636
746,10,Ticks_ISO_T2_5,100,1,48,38,622427928
746,10,Ticks_ISO_T2_5,101,5,42,127,622505224
746,10,Ticks_ISO_T2_5,102,1,48,35,622936148
746,10,Ticks_ISO_T2_5,103,5,42,127,623005072
746,10,Ticks_ISO_T2_5,104,1,48,32,623456264
746,10,Ticks_ISO_T2_5,105,5,42,127,623504916
746,10,Ticks_ISO_T2_5,106,1,48,31,623950948
746,10,Ticks_ISO_T2_5,107,5,42,127,624004384
746,10,Ticks_ISO_T2_5,108,1,48,35,624467324
746,10,Ticks_ISO_T2_5,109,5,42,127,624505276
746,10,Ticks_ISO_T2_5,110,1,48,28,624953248
746,10,Ticks_ISO_T2_5,111,5,42,127,625005044
746,10,Ticks_ISO_T2_5,112,1,48,36,625451600
746,10,Ticks_ISO_T2_5,113,5,42,127,625504516
746,10,Ticks_ISO_T2_5,114,1,48,33,625984132
746,10,Ticks_ISO_T2_5,115,5,42,127,626005332
746,10,Ticks_ISO_T2_5,116,1,48,38,626455924
746,10,Ticks_ISO_T2_5,117,5,42,127,626505028
746,10,Ticks_ISO_T2_5,118,1,48,35,626958764
746,10,Ticks_ISO_T2_5,119,5,42,127,627004648
746,10,Ticks_ISO_T2_5,120,1,48,40,627464940
746,10,Ticks_ISO_T2_5,121,5,42,127,627504420
746,10,Ticks_ISO_T2_5,122,1,48,27,627977652
746,10,Ticks_ISO_T2_5,123,5,42,127,628005084
746,10,Ticks_ISO_T2_5,124,5,42,127,628505008
746,10,Ticks_ISO_T2_5,125,1,48,33,628511048
746,10,Ticks_ISO_T2_5,126,5,42,127,629004604
746,10,Ticks_ISO_T2_5,127,1,48,35,629013496
746,10,Ticks_ISO_T2_5,128,1,48,35,629486444
746,10,Ticks_ISO_T2_5,129,5,42,127,629505332
746,10,Ticks_ISO_T2_5,130,1,48,29,629969836
746,10,Ticks_ISO_T2_5,131,5,42,127,630005028
746,10,Ticks_ISO_T2_5,132,1,48,37,630478508
746,10,Ticks_ISO_T2_5,133,5,42,127,630504872
746,10,Ticks_ISO_T2_5,134,1,48,30,630940432
746,10,Ticks_ISO_T2_5,135,5,42,127,631004492
746,10,Ticks_ISO_T2_5,136,1,48,32,631459052
746,10,Ticks_ISO_T2_5,137,5,42,127,631505308
746,10,Ticks_ISO_T2_5,138,1,48,35,631977744
746,10,Ticks_ISO_T2_5,139,5,42,127,632005076
746,10,Ticks_ISO_T2_5,140,1,48,37,632491576
746,10,Ticks_ISO_T2_5,141,5,42,127,632504624
746,10,Ticks_ISO_T2_5,142,1,48,27,632972424
746,10,Ticks_ISO_T2_5,143,5,42,127,633005440
746,10,Ticks_ISO_T2_5,144,1,48,29,633460972
746,10,Ticks_ISO_T2_5,145,5,42,127,633505060
746,10,Ticks_ISO_T2_5,146,1,48,27,633932096
746,10,Ticks_ISO_T2_5,147,5,42,127,634005052
746,10,Ticks_ISO_T2_5,148,1,48,34,634439868
746,10,Ticks_ISO_T2_5,149,5,42,127,634504672
746,10,Ticks_ISO_T2_5,150,1,48,30,634925128
746,10,Ticks_ISO_T2_5,151,5,42,127,635005268
746,10,Ticks_ISO_T2_5,152,1,48,35,635430356
746,10,Ticks_ISO_T2_5,153,5,42,127,635505112
746,10,Ticks_ISO_T2_5,154,1,48,28,635933636
746,10,Ticks_ISO_T2_5,155,5,42,127,636004804
746,10,Ticks_ISO_T2_5,156,1,48,32,636468420
746,10,Ticks_ISO_T2_5,157,5,42,127,636504352
746,10,Ticks_ISO_T2_5,158,1,48,39,636959356
746,10,Ticks_ISO_T2_5,159,5,42,127,637005168
746,10,Ticks_ISO_T2_5,160,1,48,21,637438236
746,10,Ticks_ISO_T2_5,161,5,42,127,637505012
746,10,Ticks_ISO_T2_5,162,1,48,38,637948400
746,10,Ticks_ISO_T2_5,163,5,42,127,638004556
746,10,Ticks_ISO_T2_5,164,5,42,127,638505376
746,10,Ticks_ISO_T2_5,165,1,48,19,638511564
746,10,Ticks_ISO_T2_5,166,5,42,127,639005000
746,10,Ticks_ISO_T2_5,167,1,48,38,639015520
746,10,Ticks_ISO_T2_5,168,1,48,38,639488920
746,10,Ticks_ISO_T2_5,169,5,42,127,639504836
746,10,Ticks_ISO_T2_5,170,5,42,127,640004436
746,10,Ticks_ISO_T2_5,171,1,48,34,640494460
746,10,Ticks_ISO_T2_5,172,5,42,127,640505268
746,10,Ticks_ISO_T2_5,173,1,48,30,640982416
746,10,Ticks_ISO_T2_5,174,5,42,127,641004888
746,10,Ticks_ISO_T2_5,175,1,48,32,641461164
746,10,Ticks_ISO_T2_5,176,5,42,127,641504732
746,10,Ticks_ISO_T2_5,177,1,48,24,641932964
746,10,Ticks_ISO_T2_5,178,5,42,127,642005328
746,10,Ticks_ISO_T2_5,179,1,48,36,642502592
746,10,Ticks_ISO_T2_5,180,5,42,127,642505096
746,10,Ticks_ISO_T2_5,181,1,48,19,642984188
746,10,Ticks_ISO_T2_5,182,5,42,127,643004716
746,10,Ticks_ISO_T2_5,183,1,48,35,643488076
746,10,Ticks_ISO_T2_5,184,5,42,127,643504484
746,10,Ticks_ISO_T2_5,185,1,48,37,643921944
746,10,Ticks_ISO_T2_5,186,5,42,127,644005152
746,10,Ticks_ISO_T2_5,187,1,48,31,644488880
746,10,Ticks_ISO_T2_5,188,5,42,127,644504996
746,10,Ticks_ISO_T2_5,189,1,48,37,644989324
746,10,Ticks_ISO_T2_5,190,5,42,127,645004688
746,10,Ticks_ISO_T2_5,191,1,48,35,645479968
746,10,Ticks_ISO_T2_5,192,5,42,127,645505432
746,10,Ticks_ISO_T2_5,193,1,48,41,645938380
746,10,Ticks_ISO_T2_5,194,5,42,127,646005052
746,10,Ticks_ISO_T2_5,195,1,48,41,646455796
746,10,Ticks_ISO_T2_5,196,5,42,127,646504968
746,10,Ticks_ISO_T2_5,197,1,48,38,646938512
746,10,Ticks_ISO_T2_5,198,5,42,127,647004812
746,10,Ticks_ISO_T2_5,199,1,48,36,647480844
746,10,Ticks_ISO_T2_5,200,5,42,127,647505184
746,10,Ticks_ISO_T2_5,201,1,48,35,647970588
746,10,Ticks_ISO_T2_5,202,5,42,127,648004956
746,10,Ticks_ISO_T2_5,203,1,48,30,648484640
746,10,Ticks_ISO_T2_5,204,5,42,127,648505020
746,10,Ticks_ISO_T2_5,205,1,48,29,648962324
746,10,Ticks_ISO_T2_5,206,5,42,127,649005316
746,10,Ticks_ISO_T2_5,207,1,48,33,649483340
746,10,Ticks_ISO_T2_5,208,5,42,127,649505084
746,10,Ticks_ISO_T2_5,209,1,48,29,649933364
746,10,Ticks_ISO_T2_5,210,5,42,127,650004856
746,10,Ticks_ISO_T2_5,211,1,48,36,650480932
746,10,Ticks_ISO_T2_5,212,5,42,127,650504820
746,10,Ticks_ISO_T2_5,213,1,48,24,650954592
746,10,Ticks_ISO_T2_5,214,5,42,127,651005264
746,10,Ticks_ISO_T2_5,215,1,48,33,651465736
746,10,Ticks_ISO_T2_5,216,5,42,127,651504960
746,10,Ticks_ISO_T2_5,217,1,48,38,651920700
746,10,Ticks_ISO_T2_5,218,5,42,127,652004952
746,10,Ticks_ISO_T2_5,219,1,48,29,652483824
746,10,Ticks_ISO_T2_5,220,5,42,127,652504276
746,10,Ticks_ISO_T2_5,221,1,48,36,652999900
746,10,Ticks_ISO_T2_5,222,5,42,127,653005240
746,10,Ticks_ISO_T2_5,223,1,48,34,653484484
746,10,Ticks_ISO_T2_5,224,5,42,127,653504860
746,10,Ticks_ISO_T2_5,225,1,48,31,653963156
746,10,Ticks_ISO_T2_5,226,5,42,127,654004780
746,10,Ticks_ISO_T2_5,227,1,48,31,654470780
746,10,Ticks_ISO_T2_5,228,5,42,127,654505444
746,10,Ticks_ISO_T2_5,229,1,48,36,654970700
746,10,Ticks_ISO_T2_5,230,5,42,127,655004920
746,10,Ticks_ISO_T2_5,231,1,48,37,655493880
746,10,Ticks_ISO_T2_5,232,5,42,127,655504836
746,10,Ticks_ISO_T2_5,233,1,48,35,655953708
746,10,Ticks_ISO_T2_5,234,5,42,127,656004828
746,10,Ticks_ISO_T2_5,235,1,48,38,656473072
746,10,Ticks_ISO_T2_5,236,5,42,127,656505124
746,10,Ticks_ISO_T2_5,237,1,48,28,656948316
746,10,Ticks_ISO_T2_5,238,5,42,127,657004820
746,10,Ticks_ISO_T2_5,239,1,48,35,657489072
746,10,Ticks_ISO_T2_5,240,5,42,127,657504736
746,10,Ticks_ISO_T2_5,241,1,48,25,657949568
746,10,Ticks_ISO_T2_5,242,5,42,127,658005476
746,10,Ticks_ISO_T2_5,243,1,48,32,658488684
746,10,Ticks_ISO_T2_5,244,5,42,127,658504948
746,10,Ticks_ISO_T2_5,245,1,48,37,658980076
746,10,Ticks_ISO_T2_5,246,5,42,127,659004716
746,10,Ticks_ISO_T2_5,247,1,48,27,659464860
746,10,Ticks_ISO_T2_5,248,5,42,127,659504784
746,10,Ticks_ISO_T2_5,249,1,48,32,659988592
746,10,Ticks_ISO_T2_5,250,5,42,127,660005152
746,10,Ticks_ISO_T2_5,251,1,48,30,660476812
746,10,Ticks_ISO_T2_5,252,5,42,127,660504924
746,10,Ticks_ISO_T2_5,253,1,48,36,660954964
746,10,Ticks_ISO_T2_5,254,5,42,127,661004988
746,10,Ticks_ISO_T2_5,255,1,48,32,661482564
746,10,Ticks_ISO_T2_5,0,9999,9999,9999,596502608
746,10,Ticks_ISO_T2_5,1,9999,9999,9999,597002300
746,10,Ticks_ISO_T2_5,2,9999,9999,9999,597503064
746,10,Ticks_ISO_T2_5,3,9999,9999,9999,598002772
746,10,Ticks_ISO_T2_5,4,9999,9999,9999,598502472
746,10,Ticks_ISO_T2_5,5,9999,9999,9999,599002164
746,10,Ticks_ISO_T2_5,6,9999,9999,9999,599502904
746,10,Ticks_ISO_T2_5,7,9999,9999,9999,600002680
746,10,Ticks_ISO_T2_5,8,9999,9999,9999,600502372
746,10,Ticks_ISO_T2_5,9,9999,9999,9999,601003112
746,10,Ticks_ISO_T2_5,10,9999,9999,9999,601502808
746,10,Ticks_ISO_T2_5,11,9999,9999,9999,602002500
746,10,Ticks_ISO_T2_5,12,9999,9999,9999,602502196
746,10,Ticks_ISO_T2_5,13,9999,9999,9999,603002936
746,10,Ticks_ISO_T2_5,14,9999,9999,9999,603502708
746,10,Ticks_ISO_T2_5,15,9999,9999,9999,604002400
746,10,Ticks_ISO_T2_5,16,9999,9999,9999,604502104
746,10,Ticks_ISO_T2_5,17,9999,9999,9999,605002844
746,10,Ticks_ISO_T2_5,18,9999,9999,9999,605502540
746,10,Ticks_ISO_T2_5,19,9999,9999,9999,606002236
746,10,Ticks_ISO_T2_5,20,9999,9999,9999,606502972
746,10,Ticks_ISO_T2_5,21,9999,9999,9999,607002672
746,10,Ticks_ISO_T2_5,22,9999,9999,9999,607502416
746,10,Ticks_ISO_T2_5,23,9999,9999,9999,608002112
746,10,Ticks_ISO_T2_5,24,9999,9999,9999,608502852
746,10,Ticks_ISO_T2_5,25,9999,9999,9999,609002564
746,10,Ticks_ISO_T2_5,26,9999,9999,9999,609502264
746,10,Ticks_ISO_T2_5,27,9999,9999,9999,610003004
746,10,Ticks_ISO_T2_5,28,9999,9999,9999,610502772
746,10,Ticks_ISO_T2_5,29,9999,9999,9999,611002460
746,10,Ticks_ISO_T2_5,30,9999,9999,9999,611502156
746,10,Ticks_ISO_T2_5,31,9999,9999,9999,612002896
746,10,Ticks_ISO_T2_5,32,9999,9999,9999,612502592
746,10,Ticks_ISO_T2_5,33,9999,9999,9999,613002360
746,10,Ticks_ISO_T2_5,34,9999,9999,9999,613503028
746,10,Ticks_ISO_T2_5,35,9999,9999,9999,614002796
746,10,Ticks_ISO_T2_5,36,9999,9999,9999,614502492
746,10,Ticks_ISO_T2_5,37,9999,9999,9999,615002188
746,10,Ticks_ISO_T2_5,38,9999,9999,9999,615502928
746,10,Ticks_ISO_T2_5,39,9999,9999,9999,616002672
746,10,Ticks_ISO_T2_5,40,9999,9999,9999,616502368
746,10,Ticks_ISO_T2_5,41,9999,9999,9999,617003108
746,10,Ticks_ISO_T2_5,42,9999,9999,9999,617502804
746,10,Ticks_ISO_T2_5,43,9999,9999,9999,618002496
746,10,Ticks_ISO_T2_5,44,9999,9999,9999,618502228
746,10,Ticks_ISO_T2_5,45,9999,9999,9999,619002984
746,10,Ticks_ISO_T2_5,46,9999,9999,9999,619502680
746,10,Ticks_ISO_T2_5,47,9999,9999,9999,620002372
746,10,Ticks_ISO_T2_5,48,9999,9999,9999,620502068
746,10,Ticks_ISO_T2_5,49,9999,9999,9999,621002808
746,10,Ticks_ISO_T2_5,50,9999,9999,9999,621502580
746,10,Ticks_ISO_T2_5,51,9999,9999,9999,622002272
746,10,Ticks_ISO_T2_5,52,9999,9999,9999,622503012
746,10,Ticks_ISO_T2_5,53,9999,9999,9999,623002708
746,10,Ticks_ISO_T2_5,54,9999,9999,9999,623502404
746,10,Ticks_ISO_T2_5,55,9999,9999,9999,624002100
746,10,Ticks_ISO_T2_5,56,9999,9999,9999,624502840
746,10,Ticks_ISO_T2_5,57,9999,9999,9999,625002612
746,10,Ticks_ISO_T2_5,58,9999,9999,9999,625502304
746,10,Ticks_ISO_T2_5,59,9999,9999,9999,626003048
746,10,Ticks_ISO_T2_5,60,9999,9999,9999,626502740
746,10,Ticks_ISO_T2_5,61,9999,9999,9999,627002436
746,10,Ticks_ISO_T2_5,62,9999,9999,9999,627502132
746,10,Ticks_ISO_T2_5,63,9999,9999,9999,628002872
746,10,Ticks_ISO_T2_5,64,9999,9999,9999,628502648
746,10,Ticks_ISO_T2_5,65,9999,9999,9999,629002316
746,10,Ticks_ISO_T2_5,66,9999,9999,9999,629503044
746,10,Ticks_ISO_T2_5,67,9999,9999,9999,630002740
746,10,Ticks_ISO_T2_5,68,9999,9999,9999,630502508
746,10,Ticks_ISO_T2_5,69,9999,9999,9999,631002204
746,10,Ticks_ISO_T2_5,70,9999,9999,9999,631502948
746,10,Ticks_ISO_T2_5,71,9999,9999,9999,632002640
746,10,Ticks_ISO_T2_5,72,9999,9999,9999,632502336
746,10,Ticks_ISO_T2_5,73,9999,9999,9999,633003080
746,10,Ticks_ISO_T2_5,74,9999,9999,9999,633502776
746,10,Ticks_ISO_T2_5,75,9999,9999,9999,634002544
746,10,Ticks_ISO_T2_5,76,9999,9999,9999,634502240
746,10,Ticks_ISO_T2_5,77,9999,9999,9999,635002980
746,10,Ticks_ISO_T2_5,78,9999,9999,9999,635502676
746,10,Ticks_ISO_T2_5,79,9999,9999,9999,636002372
746,10,Ticks_ISO_T2_5,80,9999,9999,9999,636502064
746,10,Ticks_ISO_T2_5,81,9999,9999,9999,637002808
746,10,Ticks_ISO_T2_5,82,9999,9999,9999,637502576
746,10,Ticks_ISO_T2_5,83,9999,9999,9999,638002268
746,10,Ticks_ISO_T2_5,84,9999,9999,9999,638503016
746,10,Ticks_ISO_T2_5,85,9999,9999,9999,639002712
746,10,Ticks_ISO_T2_5,86,9999,9999,9999,639502400
746,10,Ticks_ISO_T2_5,87,9999,9999,9999,640002152
746,10,Ticks_ISO_T2_5,88,9999,9999,9999,640502832
746,10,Ticks_ISO_T2_5,89,9999,9999,9999,641002604
746,10,Ticks_ISO_T2_5,90,9999,9999,9999,641502296
746,10,Ticks_ISO_T2_5,91,9999,9999,9999,642003040
746,10,Ticks_ISO_T2_5,92,9999,9999,9999,642502732
746,10,Ticks_ISO_T2_5,93,9999,9999,9999,643002428
746,10,Ticks_ISO_T2_5,94,9999,9999,9999,643502200
746,10,Ticks_ISO_T2_5,95,9999,9999,9999,644002864
746,10,Ticks_ISO_T2_5,96,9999,9999,9999,644502636
746,10,Ticks_ISO_T2_5,97,9999,9999,9999,645002328
746,10,Ticks_ISO_T2_5,98,9999,9999,9999,645503068
746,10,Ticks_ISO_T2_5,99,9999,9999,9999,646002768
746,10,Ticks_ISO_T2_5,100,9999,9999,9999,646502460
746,10,Ticks_ISO_T2_5,101,9999,9999,9999,647002232
746,10,Ticks_ISO_T2_5,102,9999,9999,9999,647502900
746,10,Ticks_ISO_T2_5,103,9999,9999,9999,648002668
746,10,Ticks_ISO_T2_5,104,9999,9999,9999,648502364
746,10,Ticks_ISO_T2_5,105,9999,9999,9999,649003104
746,10,Ticks_ISO_T2_5,106,9999,9999,9999,649502800
746,10,Ticks_ISO_T2_5,107,9999,9999,9999,650002496
746,10,Ticks_ISO_T2_5,108,9999,9999,9999,650502236
746,10,Ticks_ISO_T2_5,109,9999,9999,9999,651002980
746,10,Ticks_ISO_T2_5,110,9999,9999,9999,651502676
746,10,Ticks_ISO_T2_5,111,9999,9999,9999,652002368
746,10,Ticks_ISO_T2_5,112,9999,9999,9999,652502064
746,10,Ticks_ISO_T2_5,113,9999,9999,9999,653002808
746,10,Ticks_ISO_T2_5,114,9999,9999,9999,653502576
746,10,Ticks_ISO_T2_5,115,9999,9999,9999,654002272
746,10,Ticks_ISO_T2_5,116,9999,9999,9999,654503012
746,10,Ticks_ISO_T2_5,117,9999,9999,9999,655002708
746,10,Ticks_ISO_T2_5,118,9999,9999,9999,655502400
746,10,Ticks_ISO_T2_5,119,9999,9999,9999,656002168
746,10,Ticks_ISO_T2_5,120,9999,9999,9999,656502836
746,10,Ticks_ISO_T2_5,121,9999,9999,9999,657002608
746,10,Ticks_ISO_T2_5,122,9999,9999,9999,657502300
746,10,Ticks_ISO_T2_5,123,9999,9999,9999,658003044
746,10,Ticks_ISO_T2_5,124,9999,9999,9999,658502736
746,10,Ticks_ISO_T2_5,125,9999,9999,9999,659002432
746,10,Ticks_ISO_T2_5,126,9999,9999,9999,659502200
746,10,Ticks_ISO_T2_5,127,9999,9999,9999,660002868
746,10,Ticks_ISO_T2_5,128,9999,9999,9999,660502636
746,10,Ticks_ISO_T2_5,129,9999,9999,9999,661002304
747,20,Ticks_Linear_8,0,5,42,127,672578844
747,20,Ticks_Linear_8,1,5,42,127,673399108
747,20,Ticks_Linear_8,2,1,48,29,674211756
747,20,Ticks_Linear_8,3,5,42,127,674219588
747,20,Ticks_Linear_8,4,1,48,31,675025256
747,20,Ticks_Linear_8,5,5,42,127,675038636
747,20,Ticks_Linear_8,6,1,48,29,675816608
747,20,Ticks_Linear_8,7,5,42,127,675858828
747,20,Ticks_Linear_8,8,1,48,28,676662552
747,20,Ticks_Linear_8,9,5,42,127,676668812
747,20,Ticks_Linear_8,10,5,42,127,677478724
747,20,Ticks_Linear_8,11,1,48,26,677511280
747,20,Ticks_Linear_8,12,5,42,127,678288636
747,20,Ticks_Linear_8,13,1,48,24,678313764
747,20,Ticks_Linear_8,14,5,42,127,679098840
747,20,Ticks_Linear_8,15,1,48,27,679157908
747,20,Ticks_Linear_8,16,1,48,24,679904576
747,20,Ticks_Linear_8,17,5,42,127,679908816
747,20,Ticks_Linear_8,18,1,48,18,680689628
747,20,Ticks_Linear_8,19,5,42,127,680708688
747,20,Ticks_Linear_8,20,5,42,127,681509344
747,20,Ticks_Linear_8,21,1,48,20,681517784
747,20,Ticks_Linear_8,22,1,48,23,682299436
747,20,Ticks_Linear_8,23,5,42,127,682308984
747,20,Ticks_Linear_8,24,1,48,25,683103648
747,20,Ticks_Linear_8,25,5,42,127,683108784
747,20,Ticks_Linear_8,26,1,48,26,683881580
747,20,Ticks_Linear_8,27,5,42,127,683908508
747,20,Ticks_Linear_8,28,1,48,28,684647088
747,20,Ticks_Linear_8,29,5,42,127,684698872
747,20,Ticks_Linear_8,30,5,42,127,685488640
747,20,Ticks_Linear_8,31,1,48,27,685510332
747,20,Ticks_Linear_8,32,5,42,127,686279152
747,20,Ticks_Linear_8,33,1,48,23,686303312
747,20,Ticks_Linear_8,34,5,42,127,687068468
747,20,Ticks_Linear_8,35,1,48,30,687123728
747,20,Ticks_Linear_8,36,5,42,127,687859276
747,20,Ticks_Linear_8,37,1,48,27,687928628
747,20,Ticks_Linear_8,38,5,42,127,688639380
747,20,Ticks_Linear_8,39,1,48,29,688655552
747,20,Ticks_Linear_8,40,5,42,127,689418660
747,20,Ticks_Linear_8,41,1,48,24,689447948
747,20,Ticks_Linear_8,42,1,48,28,690197656
747,20,Ticks_Linear_8,43,5,42,127,690199080
747,20,Ticks_Linear_8,44,5,42,127,690979192
747,20,Ticks_Linear_8,45,1,48,31,691005144
747,20,Ticks_Linear_8,46,5,42,127,691758396
747,20,Ticks_Linear_8,47,1,48,26,691810644
747,20,Ticks_Linear_8,48,5,42,127,692528464
747,20,Ticks_Linear_8,49,1,48,27,693289224
747,20,Ticks_Linear_8,50,5,42,127,693298624
747,20,Ticks_Linear_8,51,1,48,31,694068624
747,20,Ticks_Linear_8,52,5,42,127,694070036
747,20,Ticks_Linear_8,53,5,42,127,694838540
747,20,Ticks_Linear_8,54,1,48,33,694844124
747,20,Ticks_Linear_8,55,5,42,127,695608684
747,20,Ticks_Linear_8,56,1,48,30,695626620
747,20,Ticks_Linear_8,57,1,48,34,696351292
747,20,Ticks_Linear_8,58,5,42,127,696368488
747,20,Ticks_Linear_8,59,1,48,33,697122484
747,20,Ticks_Linear_8,60,5,42,127,697129340
747,20,Ticks_Linear_8,61,5,42,127,697889304
747,20,Ticks_Linear_8,62,1,48,29,697898868
747,20,Ticks_Linear_8,63,1,48,34,698645092
747,20,Ticks_Linear_8,64,5,42,127,698648884
747,20,Ticks_Linear_8,65,5,42,127,699408700
747,20,Ticks_Linear_8,66,1,48,31,699421780
747,20,Ticks_Linear_8,67,5,42,127,700159272
747,20,Ticks_Linear_8,68,1,48,33,700164928
747,20,Ticks_Linear_8,69,5,42,127,700909044
747,20,Ticks_Linear_8,70,1,48,30,700932308
747,20,Ticks_Linear_8,71,5,42,127,701658368
747,20,Ticks_Linear_8,72,1,48,30,701692192
747,20,Ticks_Linear_8,73,5,42,127,702409040
747,20,Ticks_Linear_8,74,1,48,33,702479060
747,20,Ticks_Linear_8,75,5,42,127,703158516
747,20,Ticks_Linear_8,76,1,48,32,703210460
747,20,Ticks_Linear_8,77,1,48,29,703889448
747,20,Ticks_Linear_8,78,5,42,127,703899216
747,20,Ticks_Linear_8,79,5,42,127,704639264
747,20,Ticks_Linear_8,80,1,48,35,704648232
747,20,Ticks_Linear_8,81,5,42,127,705378556
747,20,Ticks_Linear_8,82,1,48,27,705384212
747,20,Ticks_Linear_8,83,5,42,127,706118892
747,20,Ticks_Linear_8,84,1,48,39,706128752
747,20,Ticks_Linear_8,85,1,48,35,706851096
747,20,Ticks_Linear_8,86,5,42,127,706859448
747,20,Ticks_Linear_8,87,5,42,127,707588536
747,20,Ticks_Linear_8,88,1,48,29,707601716
747,20,Ticks_Linear_8,89,5,42,127,708318540
747,20,Ticks_Linear_8,90,1,48,34,708324800
747,20,Ticks_Linear_8,91,1,48,35,709037196
747,20,Ticks_Linear_8,92,5,42,127,709048612
747,20,Ticks_Linear_8,93,5,42,127,709778992
747,20,Ticks_Linear_8,94,1,48,31,709800536
747,20,Ticks_Linear_8,95,5,42,127,710508848
747,20,Ticks_Linear_8,96,1,48,36,710559448
747,20,Ticks_Linear_8,97,5,42,127,711229040
747,20,Ticks_Linear_8,98,1,48,24,711285252
747,20,Ticks_Linear_8,99,5,42,127,711948788
747,20,Ticks_Linear_8,100,1,48,30,711951228
747,20,Ticks_Linear_8,101,5,42,127,712668432
747,20,Ticks_Linear_8,102,1,48,35,712703896
747,20,Ticks_Linear_8,103,5,42,127,713389372
747,20,Ticks_Linear_8,104,1,48,30,713401704
747,20,Ticks_Linear_8,105,5,42,127,714118632
747,20,Ticks_Linear_8,106,1,48,35,714162340
747,20,Ticks_Linear_8,107,5,42,127,714829088
747,20,Ticks_Linear_8,108,1,48,39,714868832
747,20,Ticks_Linear_8,109,5,42,127,715539096
747,20,Ticks_Linear_8,110,1,48,35,715556360
747,20,Ticks_Linear_8,111,1,48,36,716247348
747,20,Ticks_Linear_8,112,5,42,127,716248844
747,20,Ticks_Linear_8,113,5,42,127,716959160
747,20,Ticks_Linear_8,114,1,48,31,716984068
747,20,Ticks_Linear_8,115,5,42,127,717668948
747,20,Ticks_Linear_8,116,1,48,36,717673936
747,20,Ticks_Linear_8,117,5,42,127,718369220
747,20,Ticks_Linear_8,118,1,48,33,718404688
747,20,Ticks_Linear_8,119,5,42,127,719068720
747,20,Ticks_Linear_8,120,1,48,31,719118528
747,20,Ticks_Linear_8,121,5,42,127,719768996
747,20,Ticks_Linear_8,122,1,48,24,719794352
747,20,Ticks_Linear_8,123,5,42,127,720469340
747,20,Ticks_Linear_8,124,1,48,37,720481748
747,20,Ticks_Linear_8,125,1,48,34,721115764
747,20,Ticks_Linear_8,126,5,42,127,721168936
747,20,Ticks_Linear_8,127,5,42,127,721858932
747,20,Ticks_Linear_8,128,1,48,33,721912972
747,20,Ticks_Linear_8,129,1,48,26,722530476
747,20,Ticks_Linear_8,130,5,42,127,722549236
747,20,Ticks_Linear_8,131,5,42,127,723239332
747,20,Ticks_Linear_8,132,1,48,34,723240892
747,20,Ticks_Linear_8,133,1,48,25,723924476
747,20,Ticks_Linear_8,134,5,42,127,723928492
747,20,Ticks_Linear_8,135,5,42,127,724618888
747,20,Ticks_Linear_8,136,1,48,29,724628976
747,20,Ticks_Linear_8,137,5,42,127,725298792
747,20,Ticks_Linear_8,138,1,48,28,725320332
747,20,Ticks_Linear_8,139,5,42,127,725978448
747,20,Ticks_Linear_8,140,1,48,19,726048020
747,20,Ticks_Linear_8,141,5,42,127,726658424
747,20,Ticks_Linear_8,142,1,48,31,726701160
747,20,Ticks_Linear_8,143,1,48,30,727330492
747,20,Ticks_Linear_8,144,5,42,127,727339592
747,20,Ticks_Linear_8,145,5,42,127,728019628
747,20,Ticks_Linear_8,146,1,48,24,728066420
747,20,Ticks_Linear_8,147,5,42,127,728688904
747,20,Ticks_Linear_8,148,1,48,27,728710520
747,20,Ticks_Linear_8,149,5,42,127,729358844
747,20,Ticks_Linear_8,150,1,48,35,729375816
747,20,Ticks_Linear_8,151,5,42,127,730029736
747,20,Ticks_Linear_8,152,1,48,24,730064908
747,20,Ticks_Linear_8,153,5,42,127,730709640
747,20,Ticks_Linear_8,154,1,48,41,730712088
747,20,Ticks_Linear_8,155,5,42,127,731379036
747,20,Ticks_Linear_8,156,1,48,38,731438204
747,20,Ticks_Linear_8,157,5,42,127,732038572
747,20,Ticks_Linear_8,158,1,48,33,732062656
747,20,Ticks_Linear_8,159,1,48,34,732697956
747,20,Ticks_Linear_8,160,5,42,127,732699592
747,20,Ticks_Linear_8,161,5,42,127,733358516
747,20,Ticks_Linear_8,162,1,48,26,733401176
747,20,Ticks_Linear_8,163,5,42,127,734019020
747,20,Ticks_Linear_8,164,1,48,31,734032400
747,20,Ticks_Linear_8,165,5,42,127,734679356
747,20,Ticks_Linear_8,166,1,48,29,734691012
747,20,Ticks_Linear_8,167,5,42,127,735328780
747,20,Ticks_Linear_8,168,1,48,31,735340360
747,20,Ticks_Linear_8,169,5,42,127,735978852
747,20,Ticks_Linear_8,170,1,48,30,735979892
747,20,Ticks_Linear_8,171,5,42,127,736629176
747,20,Ticks_Linear_8,172,5,42,127,737279568
747,20,Ticks_Linear_8,173,1,48,26,737288536
747,20,Ticks_Linear_8,174,5,42,127,737928596
747,20,Ticks_Linear_8,175,5,42,127,738568732
747,20,Ticks_Linear_8,176,1,48,16,738639476
747,20,Ticks_Linear_8,177,5,42,127,739208696
747,20,Ticks_Linear_8,178,1,48,27,739226712
747,20,Ticks_Linear_8,179,5,42,127,739848584
747,20,Ticks_Linear_8,180,1,48,27,739850596
747,20,Ticks_Linear_8,181,5,42,127,740488624
747,20,Ticks_Linear_8,182,1,48,29,740491296
747,20,Ticks_Linear_8,183,5,42,127,741128980
747,20,Ticks_Linear_8,184,1,48,31,741131652
747,20,Ticks_Linear_8,185,1,48,36,741736700
747,20,Ticks_Linear_8,186,5,42,127,741759424
747,20,Ticks_Linear_8,187,1,48,36,742349472
747,20,Ticks_Linear_8,188,5,42,127,742389056
747,20,Ticks_Linear_8,189,1,48,32,743011704
747,20,Ticks_Linear_8,190,5,42,127,743018860
747,20,Ticks_Linear_8,191,5,42,127,743648720
747,20,Ticks_Linear_8,192,1,48,32,743660376
747,20,Ticks_Linear_8,193,5,42,127,744279572
747,20,Ticks_Linear_8,194,1,48,18,744284560
747,20,Ticks_Linear_8,195,5,42,127,744898868
747,20,Ticks_Linear_8,196,1,48,36,744941752
747,20,Ticks_Linear_8,197,5,42,127,745518560
747,20,Ticks_Linear_8,198,1,48,21,745545484
747,20,Ticks_Linear_8,199,1,48,40,746135552
747,20,Ticks_Linear_8,200,5,42,127,746139120
747,20,Ticks_Linear_8,201,1,48,29,746752084
747,20,Ticks_Linear_8,202,5,42,127,746758492
747,20,Ticks_Linear_8,203,1,48,38,747376872
747,20,Ticks_Linear_8,204,5,42,127,747378984
747,20,Ticks_Linear_8,205,1,48,38,747987176
747,20,Ticks_Linear_8,206,5,42,127,747989588
747,20,Ticks_Linear_8,207,5,42,127,748598584
747,20,Ticks_Linear_8,208,1,48,41,748601928
747,20,Ticks_Linear_8,209,1,48,34,749201276
747,20,Ticks_Linear_8,210,5,42,127,749208888
747,20,Ticks_Linear_8,211,1,48,40,749807628
747,20,Ticks_Linear_8,212,5,42,127,749819416
747,20,Ticks_Linear_8,213,1,48,40,750429008
747,20,Ticks_Linear_8,214,5,42,127,750430196
747,20,Ticks_Linear_8,215,5,42,127,751028464
747,20,Ticks_Linear_8,216,1,48,32,751060340
747,20,Ticks_Linear_8,217,5,42,127,751628612
747,20,Ticks_Linear_8,218,1,48,34,751659812
747,20,Ticks_Linear_8,219,1,48,38,752221420
747,20,Ticks_Linear_8,220,5,42,127,752228876
747,20,Ticks_Linear_8,221,1,48,41,752823340
747,20,Ticks_Linear_8,222,5,42,127,752828700
747,20,Ticks_Linear_8,223,1,48,34,753429228
747,20,Ticks_Linear_8,224,5,42,127,753430488
747,20,Ticks_Linear_8,225,5,42,127,754018720
747,20,Ticks_Linear_8,226,1,48,28,754041236
747,20,Ticks_Linear_8,227,5,42,127,754608508
747,20,Ticks_Linear_8,228,1,48,37,754627284
747,20,Ticks_Linear_8,229,5,42,127,755199344
747,20,Ticks_Linear_8,230,1,48,36,755201356
747,20,Ticks_Linear_8,231,5,42,127,755789308
747,20,Ticks_Linear_8,232,1,48,23,755830620
747,20,Ticks_Linear_8,233,5,42,127,756379096
747,20,Ticks_Linear_8,234,1,48,37,756391208
747,20,Ticks_Linear_8,235,5,42,127,756958556
747,20,Ticks_Linear_8,236,1,48,34,756971856
747,20,Ticks_Linear_8,237,5,42,127,757539232
747,20,Ticks_Linear_8,238,1,48,34,757542204
747,20,Ticks_Linear_8,239,5,42,127,758118764
747,20,Ticks_Linear_8,240,1,48,34,758120248
747,20,Ticks_Linear_8,241,1,48,37,758696140
747,20,Ticks_Linear_8,242,5,42,127,758699408
747,20,Ticks_Linear_8,243,1,48,38,759275572
747,20,Ticks_Linear_8,244,5,42,127,759278840
747,20,Ticks_Linear_8,245,5,42,127,759849484
747,20,Ticks_Linear_8,246,1,48,29,759881436
747,20,Ticks_Linear_8,247,1,48,36,760416228
747,20,Ticks_Linear_8,248,5,42,127,760418752
747,20,Ticks_Linear_8,249,5,42,127,760989152
747,20,Ticks_Linear_8,250,1,48,28,760993464
747,20,Ticks_Linear_8,251,1,48,31,761550140
747,20,Ticks_Linear_8,252,5,42,127,761559388
747,20,Ticks_Linear_8,253,1,48,30,762118512
747,20,Ticks_Linear_8,254,5,42,127,762128908
747,20,Ticks_Linear_8,255,1,48,37,762676580
747,20,Ticks_Linear_8,256,5,42,127,762688744
747,20,Ticks_Linear_8,257,1,48,38,763244640
747,20,Ticks_Linear_8,258,5,42,127,763249176
747,20,Ticks_Linear_8,259,1,48,36,763805068
747,20,Ticks_Linear_8,260,5,42,127,763809236
747,20,Ticks_Linear_8,261,1,48,35,764354196
747,20,Ticks_Linear_8,262,5,42,127,764369296
747,20,Ticks_Linear_8,263,5,42,127,764929360
747,20,Ticks_Linear_8,264,1,48,27,764941188
747,20,Ticks_Linear_8,265,1,48,35,765447220
747,20,Ticks_Linear_8,266,5,42,127,765479376
747,20,Ticks_Linear_8,267,1,48,33,766005392
747,20,Ticks_Linear_8,268,5,42,127,766029180
747,20,Ticks_Linear_8,269,1,48,35,766574888
747,20,Ticks_Linear_8,270,5,42,127,766579276
747,20,Ticks_Linear_8,271,5,42,127,767129156
747,20,Ticks_Linear_8,272,1,48,30,767145080
747,20,Ticks_Linear_8,273,5,42,127,767679032
747,20,Ticks_Linear_8,274,1,48,34,767685668
747,20,Ticks_Linear_8,275,5,42,127,768218572
747,20,Ticks_Linear_8,276,1,48,25,768254188
747,20,Ticks_Linear_8,277,5,42,127,768759232
747,20,Ticks_Linear_8,278,1,48,34,768761752
747,20,Ticks_Linear_8,279,5,42,127,769298800
747,20,Ticks_Linear_8,280,1,48,36,769319740
747,20,Ticks_Linear_8,281,1,48,33,769823308
747,20,Ticks_Linear_8,282,5,42,127,769838484
747,20,Ticks_Linear_8,283,5,42,127,770379076
747,20,Ticks_Linear_8,284,1,48,16,770389092
747,20,Ticks_Linear_8,285,5,42,127,770908436
747,20,Ticks_Linear_8,286,1,48,32,770921136
747,20,Ticks_Linear_8,287,5,42,127,771439064
747,20,Ticks_Linear_8,288,1,48,34,771443300
747,20,Ticks_Linear_8,289,5,42,127,771969316
747,20,Ticks_Linear_8,290,1,48,30,771986600
747,20,Ticks_Linear_8,291,5,42,127,772498748
747,20,Ticks_Linear_8,292,1,48,32,772515340
747,20,Ticks_Linear_8,293,1,48,36,773011504
747,20,Ticks_Linear_8,294,5,42,127,773029368
747,20,Ticks_Linear_8,295,5,42,127,773549368
747,20,Ticks_Linear_8,296,1,48,35,773575848
747,20,Ticks_Linear_8,297,1,48,33,774072608
747,20,Ticks_Linear_8,298,5,42,127,774079092
747,20,Ticks_Linear_8,299,1,48,31,774548048
747,20,Ticks_Linear_8,300,5,42,127,774599308
747,20,Ticks_Linear_8,301,5,42,127,775119312
747,20,Ticks_Linear_8,302,1,48,25,775193220
747,20,Ticks_Linear_8,303,1,48,35,775601588
747,20,Ticks_Linear_8,304,5,42,127,775639300
747,20,Ticks_Linear_8,305,1,48,34,776130648
747,20,Ticks_Linear_8,306,5,42,127,776149484
747,20,Ticks_Linear_8,307,1,48,37,776632816
747,20,Ticks_Linear_8,308,5,42,127,776659292
747,20,Ticks_Linear_8,309,1,48,25,777110128
747,20,Ticks_Linear_8,310,5,42,127,777169256
747,20,Ticks_Linear_8,311,1,48,38,777653260
747,20,Ticks_Linear_8,312,5,42,127,777679212
747,20,Ticks_Linear_8,313,1,48,39,778131240
747,20,Ticks_Linear_8,314,5,42,127,778189100
747,20,Ticks_Linear_8,315,1,48,33,778661644
747,20,Ticks_Linear_8,316,5,42,127,778688948
747,20,Ticks_Linear_8,317,1,48,21,779179400
747,20,Ticks_Linear_8,318,5,42,127,779188500
747,20,Ticks_Linear_8,319,1,48,31,779684332
747,20,Ticks_Linear_8,320,5,42,127,779689320
747,20,Ticks_Linear_8,321,1,48,44,780164856
747,20,Ticks_Linear_8,322,5,42,127,780189020
747,20,Ticks_Linear_8,323,1,48,32,780662612
747,20,Ticks_Linear_8,324,5,42,127,780688872
747,20,Ticks_Linear_8,325,1,48,35,781167416
747,20,Ticks_Linear_8,326,5,42,127,781179284
747,20,Ticks_Linear_8,327,5,42,127,781668956
747,20,Ticks_Linear_8,328,1,48,38,781672676
747,20,Ticks_Linear_8,329,1,48,33,782153780
747,20,Ticks_Linear_8,330,5,42,127,782159140
747,20,Ticks_Linear_8,331,5,42,127,782648736
747,20,Ticks_Linear_8,332,1,48,31,782651256
747,20,Ticks_Linear_8,333,5,42,127,783139152
747,20,Ticks_Linear_8,0,9999,9999,9999,672576620
747,20,Ticks_Linear_8,1,9999,9999,9999,673396808
747,20,Ticks_Linear_8,2,9999,9999,9999,674217068
747,20,Ticks_Linear_8,3,9999,9999,9999,675036264
747,20,Ticks_Linear_8,4,9999,9999,9999,675856456
747,20,Ticks_Linear_8,5,9999,9999,9999,676666440
747,20,Ticks_Linear_8,6,9999,9999,9999,677476428
747,20,Ticks_Linear_8,7,9999,9999,9999,678286408
747,20,Ticks_Linear_8,8,9999,9999,9999,679096392
747,20,Ticks_Linear_8,9,9999,9999,9999,679906368
747,20,Ticks_Linear_8,10,9999,9999,9999,680706168
747,20,Ticks_Linear_8,11,9999,9999,9999,681506896
747,20,Ticks_Linear_8,12,9999,9999,9999,682306688
747,20,Ticks_Linear_8,13,9999,9999,9999,683106412
747,20,Ticks_Linear_8,14,9999,9999,9999,683906136
747,20,Ticks_Linear_8,15,9999,9999,9999,684696648
747,20,Ticks_Linear_8,16,9999,9999,9999,685486192
747,20,Ticks_Linear_8,17,9999,9999,9999,686276704
747,20,Ticks_Linear_8,18,9999,9999,9999,687066168
747,20,Ticks_Linear_8,19,9999,9999,9999,687856752
747,20,Ticks_Linear_8,20,9999,9999,9999,688637008
747,20,Ticks_Linear_8,21,9999,9999,9999,689416288
747,20,Ticks_Linear_8,22,9999,9999,9999,690196564
747,20,Ticks_Linear_8,23,9999,9999,9999,690976892
747,20,Ticks_Linear_8,24,9999,9999,9999,691756096
747,20,Ticks_Linear_8,25,9999,9999,9999,692526168
747,20,Ticks_Linear_8,26,9999,9999,9999,693296248
747,20,Ticks_Linear_8,27,9999,9999,9999,694066248
747,20,Ticks_Linear_8,28,9999,9999,9999,694836316
747,20,Ticks_Linear_8,29,9999,9999,9999,695606384
747,20,Ticks_Linear_8,30,9999,9999,9999,696366188
747,20,Ticks_Linear_8,31,9999,9999,9999,697126968
747,20,Ticks_Linear_8,32,9999,9999,9999,697886784
747,20,Ticks_Linear_8,33,9999,9999,9999,698646584
747,20,Ticks_Linear_8,34,9999,9999,9999,699406400
747,20,Ticks_Linear_8,35,9999,9999,9999,700157048
747,20,Ticks_Linear_8,36,9999,9999,9999,700906596
747,20,Ticks_Linear_8,37,9999,9999,9999,701656144
747,20,Ticks_Linear_8,38,9999,9999,9999,702406740
747,20,Ticks_Linear_8,39,9999,9999,9999,703156292
747,20,Ticks_Linear_8,40,9999,9999,9999,703896696
747,20,Ticks_Linear_8,41,9999,9999,9999,704637040
747,20,Ticks_Linear_8,42,9999,9999,9999,705376332
747,20,Ticks_Linear_8,43,9999,9999,9999,706116668
747,20,Ticks_Linear_8,44,9999,9999,9999,706857076
747,20,Ticks_Linear_8,45,9999,9999,9999,707586164
747,20,Ticks_Linear_8,46,9999,9999,9999,708316244
747,20,Ticks_Linear_8,47,9999,9999,9999,709046388
747,20,Ticks_Linear_8,48,9999,9999,9999,709776472
747,20,Ticks_Linear_8,49,9999,9999,9999,710506624
747,20,Ticks_Linear_8,50,9999,9999,9999,711226444
747,20,Ticks_Linear_8,51,9999,9999,9999,711946340
747,20,Ticks_Linear_8,52,9999,9999,9999,712666208
747,20,Ticks_Linear_8,53,9999,9999,9999,713387076
747,20,Ticks_Linear_8,54,9999,9999,9999,714116180
747,20,Ticks_Linear_8,55,9999,9999,9999,714826864
747,20,Ticks_Linear_8,56,9999,9999,9999,715536500
747,20,Ticks_Linear_8,57,9999,9999,9999,716246108
747,20,Ticks_Linear_8,58,9999,9999,9999,716956788
747,20,Ticks_Linear_8,59,9999,9999,9999,717666424
747,20,Ticks_Linear_8,60,9999,9999,9999,718366848
747,20,Ticks_Linear_8,61,9999,9999,9999,719066200
747,20,Ticks_Linear_8,62,9999,9999,9999,719766620
747,20,Ticks_Linear_8,63,9999,9999,9999,720467044
747,20,Ticks_Linear_8,64,9999,9999,9999,721166412
747,20,Ticks_Linear_8,65,9999,9999,9999,721856632
747,20,Ticks_Linear_8,66,9999,9999,9999,722546788
747,20,Ticks_Linear_8,67,9999,9999,9999,723236960
747,20,Ticks_Linear_8,68,9999,9999,9999,723926120
747,20,Ticks_Linear_8,69,9999,9999,9999,724616288
747,20,Ticks_Linear_8,70,9999,9999,9999,725296196
747,20,Ticks_Linear_8,71,9999,9999,9999,725976148
747,20,Ticks_Linear_8,72,9999,9999,9999,726656128
747,20,Ticks_Linear_8,73,9999,9999,9999,727337072
747,20,Ticks_Linear_8,74,9999,9999,9999,728016956
747,20,Ticks_Linear_8,75,9999,9999,9999,728686680
747,20,Ticks_Linear_8,76,9999,9999,9999,729356396
747,20,Ticks_Linear_8,77,9999,9999,9999,730027068
747,20,Ticks_Linear_8,78,9999,9999,9999,730707044
747,20,Ticks_Linear_8,79,9999,9999,9999,731376736
747,20,Ticks_Linear_8,80,9999,9999,9999,732036200
747,20,Ticks_Linear_8,81,9999,9999,9999,732696632
747,20,Ticks_Linear_8,82,9999,9999,9999,733356140
747,20,Ticks_Linear_8,83,9999,9999,9999,734016576
747,20,Ticks_Linear_8,84,9999,9999,9999,734677056
747,20,Ticks_Linear_8,85,9999,9999,9999,735326332
747,20,Ticks_Linear_8,86,9999,9999,9999,735976556
747,20,Ticks_Linear_8,87,9999,9999,9999,736626804
747,20,Ticks_Linear_8,88,9999,9999,9999,737277048
747,20,Ticks_Linear_8,89,9999,9999,9999,737926224
747,20,Ticks_Linear_8,90,9999,9999,9999,738566208
747,20,Ticks_Linear_8,91,9999,9999,9999,739206248
747,20,Ticks_Linear_8,92,9999,9999,9999,739846212
747,20,Ticks_Linear_8,93,9999,9999,9999,740486248
747,20,Ticks_Linear_8,94,9999,9999,9999,741126216
747,20,Ticks_Linear_8,95,9999,9999,9999,741757052
747,20,Ticks_Linear_8,96,9999,9999,9999,742386756
747,20,Ticks_Linear_8,97,9999,9999,9999,743016560
747,20,Ticks_Linear_8,98,9999,9999,9999,743646272
747,20,Ticks_Linear_8,99,9999,9999,9999,744277048
747,20,Ticks_Linear_8,100,9999,9999,9999,744896568
747,20,Ticks_Linear_8,101,9999,9999,9999,745516116
747,20,Ticks_Linear_8,102,9999,9999,9999,746136676
747,20,Ticks_Linear_8,103,9999,9999,9999,746756196
747,20,Ticks_Linear_8,104,9999,9999,9999,747376724
747,20,Ticks_Linear_8,105,9999,9999,9999,747987036
747,20,Ticks_Linear_8,106,9999,9999,9999,748596288
747,20,Ticks_Linear_8,107,9999,9999,9999,749206588
747,20,Ticks_Linear_8,108,9999,9999,9999,749816896
747,20,Ticks_Linear_8,109,9999,9999,9999,750426188
747,20,Ticks_Linear_8,110,9999,9999,9999,751026240
747,20,Ticks_Linear_8,111,9999,9999,9999,751626312
747,20,Ticks_Linear_8,112,9999,9999,9999,752226428
747,20,Ticks_Linear_8,113,9999,9999,9999,752826476
747,20,Ticks_Linear_8,114,9999,9999,9999,753426556
747,20,Ticks_Linear_8,115,9999,9999,9999,754016348
747,20,Ticks_Linear_8,116,9999,9999,9999,754606136
747,20,Ticks_Linear_8,117,9999,9999,9999,755197044
747,20,Ticks_Linear_8,118,9999,9999,9999,755786860
747,20,Ticks_Linear_8,119,9999,9999,9999,756376648
747,20,Ticks_Linear_8,120,9999,9999,9999,756956256
747,20,Ticks_Linear_8,121,9999,9999,9999,757536856
747,20,Ticks_Linear_8,122,9999,9999,9999,758116464
747,20,Ticks_Linear_8,123,9999,9999,9999,758697036
747,20,Ticks_Linear_8,124,9999,9999,9999,759276612
747,20,Ticks_Linear_8,125,9999,9999,9999,759847040
747,20,Ticks_Linear_8,126,9999,9999,9999,760416380
747,20,Ticks_Linear_8,127,9999,9999,9999,760986704
747,20,Ticks_Linear_8,128,9999,9999,9999,761557092
747,20,Ticks_Linear_8,129,9999,9999,9999,762126460
747,20,Ticks_Linear_8,130,9999,9999,9999,762686520
747,20,Ticks_Linear_8,131,9999,9999,9999,763246656
747,20,Ticks_Linear_8,132,9999,9999,9999,763806788
747,20,Ticks_Linear_8,133,9999,9999,9999,764366920
747,20,Ticks_Linear_8,134,9999,9999,9999,764927060
747,20,Ticks_Linear_8,135,9999,9999,9999,765476928
747,20,Ticks_Linear_8,136,9999,9999,9999,766026880
747,20,Ticks_Linear_8,137,9999,9999,9999,766576752
747,20,Ticks_Linear_8,138,9999,9999,9999,767126636
747,20,Ticks_Linear_8,139,9999,9999,9999,767676508
747,20,Ticks_Linear_8,140,9999,9999,9999,768216124
747,20,Ticks_Linear_8,141,9999,9999,9999,768756860
747,20,Ticks_Linear_8,142,9999,9999,9999,769296500
747,20,Ticks_Linear_8,143,9999,9999,9999,769836112
747,20,Ticks_Linear_8,144,9999,9999,9999,770376776
747,20,Ticks_Linear_8,145,9999,9999,9999,770906212
747,20,Ticks_Linear_8,146,9999,9999,9999,771436616
747,20,Ticks_Linear_8,147,9999,9999,9999,771967092
747,20,Ticks_Linear_8,148,9999,9999,9999,772496448
747,20,Ticks_Linear_8,149,9999,9999,9999,773026920
747,20,Ticks_Linear_8,150,9999,9999,9999,773547072
747,20,Ticks_Linear_8,151,9999,9999,9999,774076496
747,20,Ticks_Linear_8,152,9999,9999,9999,774596712
747,20,Ticks_Linear_8,153,9999,9999,9999,775116864
747,20,Ticks_Linear_8,154,9999,9999,9999,775637076
747,20,Ticks_Linear_8,155,9999,9999,9999,776147036
747,20,Ticks_Linear_8,156,9999,9999,9999,776656996
747,20,Ticks_Linear_8,157,9999,9999,9999,777166956
747,20,Ticks_Linear_8,158,9999,9999,9999,777676916
747,20,Ticks_Linear_8,159,9999,9999,9999,778186876
747,20,Ticks_Linear_8,160,9999,9999,9999,778686576
747,20,Ticks_Linear_8,161,9999,9999,9999,779186276
747,20,Ticks_Linear_8,162,9999,9999,9999,779687024
747,20,Ticks_Linear_8,163,9999,9999,9999,780186724
747,20,Ticks_Linear_8,164,9999,9999,9999,780686424
747,20,Ticks_Linear_8,165,9999,9999,9999,781176912
747,20,Ticks_Linear_8,166,9999,9999,9999,781666432
747,20,Ticks_Linear_8,167,9999,9999,9999,782156916
747,20,Ticks_Linear_8,168,9999,9999,9999,782646364
747,20,Ticks_Linear_8,169,9999,9999,9999,783136852
748,21,Ticks_Linear_5,0,5,42,127,792811844
748,21,Ticks_Linear_5,1,5,42,127,793292172
748,21,Ticks_Linear_5,2,5,42,127,793772344
748,21,Ticks_Linear_5,3,1,48,29,794232480
748,21,Ticks_Linear_5,4,5,42,127,794251916
748,21,Ticks_Linear_5,5,1,48,35,794729732
748,21,Ticks_Linear_5,6,5,42,127,794731848
748,21,Ticks_Linear_5,7,1,48,35,795214504
748,21,Ticks_Linear_5,8,5,42,127,795222560
748,21,Ticks_Linear_5,9,1,48,38,795683204
748,21,Ticks_Linear_5,10,5,42,127,795711852
748,21,Ticks_Linear_5,11,1,48,32,796191736
748,21,Ticks_Linear_5,12,5,42,127,796202488
748,21,Ticks_Linear_5,13,1,48,40,796690504
748,21,Ticks_Linear_5,14,5,42,127,796692000
748,21,Ticks_Linear_5,15,5,42,127,797182472
748,21,Ticks_Linear_5,16,1,48,41,797183436
748,21,Ticks_Linear_5,17,1,48,43,797670524
748,21,Ticks_Linear_5,18,5,42,127,797681940
748,21,Ticks_Linear_5,19,1,48,41,798167220
748,21,Ticks_Linear_5,20,5,42,127,798181716
748,21,Ticks_Linear_5,21,1,48,46,798653592
748,21,Ticks_Linear_5,22,5,42,127,798681564
748,21,Ticks_Linear_5,23,1,48,31,799153812
748,21,Ticks_Linear_5,24,5,42,127,799182308
748,21,Ticks_Linear_5,25,1,48,43,799648940
748,21,Ticks_Linear_5,26,5,42,127,799681788
748,21,Ticks_Linear_5,27,1,48,36,800139440
748,21,Ticks_Linear_5,28,5,42,127,800191820
748,21,Ticks_Linear_5,29,1,48,44,800653884
748,21,Ticks_Linear_5,30,5,42,127,800701704
748,21,Ticks_Linear_5,31,1,48,42,801178588
748,21,Ticks_Linear_5,32,5,42,127,801211740
748,21,Ticks_Linear_5,33,1,48,46,801665936
748,21,Ticks_Linear_5,34,5,42,127,801721696
748,21,Ticks_Linear_5,35,1,48,36,802168552
748,21,Ticks_Linear_5,36,5,42,127,802231732
748,21,Ticks_Linear_5,37,1,48,43,802702036
748,21,Ticks_Linear_5,38,5,42,127,802751800
748,21,Ticks_Linear_5,39,1,48,36,803191852
748,21,Ticks_Linear_5,40,5,42,127,803272016
748,21,Ticks_Linear_5,41,1,48,41,803701360
748,21,Ticks_Linear_5,42,5,42,127,803792460
748,21,Ticks_Linear_5,43,1,48,41,804243744
748,21,Ticks_Linear_5,44,5,42,127,804312528
748,21,Ticks_Linear_5,45,1,48,39,804762240
748,21,Ticks_Linear_5,46,5,42,127,804841812
748,21,Ticks_Linear_5,47,1,48,29,805297956
748,21,Ticks_Linear_5,48,5,42,127,805372512
748,21,Ticks_Linear_5,49,1,48,44,805804996
748,21,Ticks_Linear_5,50,5,42,127,805901660
748,21,Ticks_Linear_5,51,1,48,45,806337124
748,21,Ticks_Linear_5,52,5,42,127,806432148
748,21,Ticks_Linear_5,53,1,48,41,806887072
748,21,Ticks_Linear_5,54,5,42,127,806961652
748,21,Ticks_Linear_5,55,1,48,40,807405568
748,21,Ticks_Linear_5,56,5,42,127,807491908
748,21,Ticks_Linear_5,57,1,48,44,807940772
748,21,Ticks_Linear_5,58,5,42,127,808031572
748,21,Ticks_Linear_5,59,1,48,40,808469068
748,21,Ticks_Linear_5,60,5,42,127,808572368
748,21,Ticks_Linear_5,61,1,48,40,809029964
748,21,Ticks_Linear_5,62,5,42,127,809111924
748,21,Ticks_Linear_5,63,1,48,42,809564100
748,21,Ticks_Linear_5,64,5,42,127,809651688
748,21,Ticks_Linear_5,65,1,48,39,810105064
748,21,Ticks_Linear_5,66,5,42,127,810192424
748,21,Ticks_Linear_5,67,1,48,40,810638836
748,21,Ticks_Linear_5,68,5,42,127,810742432
748,21,Ticks_Linear_5,69,1,48,38,811199568
748,21,Ticks_Linear_5,70,5,42,127,811291976
748,21,Ticks_Linear_5,71,1,48,39,811732596
748,21,Ticks_Linear_5,72,5,42,127,811841984
748,21,Ticks_Linear_5,73,1,48,38,812296796
748,21,Ticks_Linear_5,74,5,42,127,812391708
748,21,Ticks_Linear_5,75,1,48,37,812842704
748,21,Ticks_Linear_5,76,5,42,127,812942324
748,21,Ticks_Linear_5,77,1,48,38,813368688
748,21,Ticks_Linear_5,78,5,42,127,813501716
748,21,Ticks_Linear_5,79,1,48,39,813909720
748,21,Ticks_Linear_5,80,5,42,127,814061924
748,21,Ticks_Linear_5,81,1,48,37,814473604
748,21,Ticks_Linear_5,82,5,42,127,814622084
748,21,Ticks_Linear_5,83,1,48,37,815003484
748,21,Ticks_Linear_5,84,5,42,127,815182364
748,21,Ticks_Linear_5,85,1,48,40,815567284
748,21,Ticks_Linear_5,86,5,42,127,815742500
748,21,Ticks_Linear_5,87,1,48,39,816147736
748,21,Ticks_Linear_5,88,5,42,127,816311624
748,21,Ticks_Linear_5,89,1,48,39,816742924
748,21,Ticks_Linear_5,90,5,42,127,816881940
748,21,Ticks_Linear_5,91,1,48,38,817358316
748,21,Ticks_Linear_5,92,5,42,127,817452504
748,21,Ticks_Linear_5,93,1,48,44,817963416
748,21,Ticks_Linear_5,94,5,42,127,818021720
748,21,Ticks_Linear_5,95,1,48,41,818500184
748,21,Ticks_Linear_5,96,5,42,127,818592260
748,21,Ticks_Linear_5,97,1,48,44,819092596
748,21,Ticks_Linear_5,98,5,42,127,819171640
748,21,Ticks_Linear_5,99,1,48,19,819706264
748,21,Ticks_Linear_5,100,5,42,127,819752464
748,21,Ticks_Linear_5,101,1,48,49,820308808
748,21,Ticks_Linear_5,102,5,42,127,820331920
748,21,Ticks_Linear_5,103,1,48,40,820885120
748,21,Ticks_Linear_5,104,5,42,127,820911524
748,21,Ticks_Linear_5,105,1,48,47,821469748
748,21,Ticks_Linear_5,106,5,42,127,821492176
748,21,Ticks_Linear_5,107,1,48,49,822036188
748,21,Ticks_Linear_5,108,5,42,127,822081768
748,21,Ticks_Linear_5,109,1,48,46,822608528
748,21,Ticks_Linear_5,110,5,42,127,822671856
748,21,Ticks_Linear_5,111,1,48,43,823202144
748,21,Ticks_Linear_5,112,5,42,127,823261644
748,21,Ticks_Linear_5,113,1,48,38,823788476
748,21,Ticks_Linear_5,114,5,42,127,823852428
748,21,Ticks_Linear_5,115,1,48,43,824366616
748,21,Ticks_Linear_5,116,5,42,127,824442444
748,21,Ticks_Linear_5,117,1,48,47,824960304
748,21,Ticks_Linear_5,118,5,42,127,825042416
748,21,Ticks_Linear_5,119,1,48,33,825537276
748,21,Ticks_Linear_5,120,5,42,127,825642400
748,21,Ticks_Linear_5,121,1,48,44,826150764
748,21,Ticks_Linear_5,122,5,42,127,826242388
748,21,Ticks_Linear_5,123,1,48,36,826787056
748,21,Ticks_Linear_5,124,5,42,127,826851652
748,21,Ticks_Linear_5,125,1,48,38,827425020
748,21,Ticks_Linear_5,126,5,42,127,827451872
748,21,Ticks_Linear_5,127,1,48,43,827998852
748,21,Ticks_Linear_5,128,5,42,127,828062180
748,21,Ticks_Linear_5,129,1,48,42,828607968
748,21,Ticks_Linear_5,130,5,42,127,828672264
748,21,Ticks_Linear_5,131,1,48,39,829227660
748,21,Ticks_Linear_5,132,5,42,127,829281624
748,21,Ticks_Linear_5,133,1,48,36,829857512
748,21,Ticks_Linear_5,134,5,42,127,829892232
748,21,Ticks_Linear_5,135,1,48,41,830481256
748,21,Ticks_Linear_5,136,5,42,127,830502192
748,21,Ticks_Linear_5,137,1,48,39,831038464
748,21,Ticks_Linear_5,138,5,42,127,831121640
748,21,Ticks_Linear_5,139,1,48,38,831652820
748,21,Ticks_Linear_5,140,5,42,127,831742280
748,21,Ticks_Linear_5,141,1,48,41,832267272
748,21,Ticks_Linear_5,142,5,42,127,832361824
748,21,Ticks_Linear_5,143,1,48,39,832880660
748,21,Ticks_Linear_5,144,5,42,127,832982372
748,21,Ticks_Linear_5,145,1,48,38,833550148
748,21,Ticks_Linear_5,146,5,42,127,833602156
748,21,Ticks_Linear_5,147,1,48,40,834131180
748,21,Ticks_Linear_5,148,5,42,127,834231700
748,21,Ticks_Linear_5,149,1,48,42,834745672
748,21,Ticks_Linear_5,150,5,42,127,834861428
748,21,Ticks_Linear_5,151,1,48,35,835377200
748,21,Ticks_Linear_5,152,5,42,127,835492180
748,21,Ticks_Linear_5,153,1,48,36,836059632
748,21,Ticks_Linear_5,154,5,42,127,836121924
748,21,Ticks_Linear_5,155,1,48,34,836651984
748,21,Ticks_Linear_5,156,5,42,127,836751688
748,21,Ticks_Linear_5,157,1,48,35,837298908
748,21,Ticks_Linear_5,158,5,42,127,837391616
748,21,Ticks_Linear_5,159,1,48,35,837886748
748,21,Ticks_Linear_5,160,5,42,127,838031712
748,21,Ticks_Linear_5,161,1,48,37,838529300
748,21,Ticks_Linear_5,162,5,42,127,838672076
748,21,Ticks_Linear_5,163,1,48,39,839233836
748,21,Ticks_Linear_5,164,5,42,127,839311684
748,21,Ticks_Linear_5,165,1,48,38,839845412
748,21,Ticks_Linear_5,166,5,42,127,839951728
748,21,Ticks_Linear_5,167,1,48,33,840498428
748,21,Ticks_Linear_5,168,5,42,127,840602176
748,21,Ticks_Linear_5,169,1,48,36,841171796
748,21,Ticks_Linear_5,170,5,42,127,841252216
748,21,Ticks_Linear_5,171,1,48,33,841855736
748,21,Ticks_Linear_5,172,5,42,127,841901464
748,21,Ticks_Linear_5,173,1,48,33,842543656
748,21,Ticks_Linear_5,174,5,42,127,842551636
748,21,Ticks_Linear_5,175,1,48,36,843179808
748,21,Ticks_Linear_5,176,5,42,127,843202008
748,21,Ticks_Linear_5,177,1,48,32,843799876
748,21,Ticks_Linear_5,178,5,42,127,843862292
748,21,Ticks_Linear_5,179,1,48,38,844459388
748,21,Ticks_Linear_5,180,5,42,127,844521952
748,21,Ticks_Linear_5,181,1,48,40,845080952
748,21,Ticks_Linear_5,182,5,42,127,845182368
748,21,Ticks_Linear_5,183,1,48,18,845800968
748,21,Ticks_Linear_5,184,5,42,127,845841916
748,21,Ticks_Linear_5,185,1,48,32,846466484
748,21,Ticks_Linear_5,186,5,42,127,846502396
748,21,Ticks_Linear_5,187,1,48,32,847092524
748,21,Ticks_Linear_5,188,5,42,127,847172116
748,21,Ticks_Linear_5,189,1,48,24,847786944
748,21,Ticks_Linear_5,190,5,42,127,847841512
748,21,Ticks_Linear_5,191,1,48,35,848438092
748,21,Ticks_Linear_5,192,5,42,127,848512280
748,21,Ticks_Linear_5,193,1,48,33,849081284
748,21,Ticks_Linear_5,194,5,42,127,849182204
748,21,Ticks_Linear_5,195,1,48,41,849734296
748,21,Ticks_Linear_5,196,5,42,127,849851824
748,21,Ticks_Linear_5,197,1,48,38,850456812
748,21,Ticks_Linear_5,198,5,42,127,850531816
748,21,Ticks_Linear_5,199,1,48,36,851135720
748,21,Ticks_Linear_5,200,5,42,127,851211572
748,21,Ticks_Linear_5,201,1,48,35,851818460
748,21,Ticks_Linear_5,202,5,42,127,851891672
748,21,Ticks_Linear_5,203,1,48,35,852514100
748,21,Ticks_Linear_5,204,5,42,127,852571580
748,21,Ticks_Linear_5,205,1,48,32,853211652
748,21,Ticks_Linear_5,206,5,42,127,853251480
748,21,Ticks_Linear_5,207,1,48,35,853814420
748,21,Ticks_Linear_5,208,5,42,127,853942052
748,21,Ticks_Linear_5,209,1,48,31,854522308
748,21,Ticks_Linear_5,210,5,42,127,854631920
748,21,Ticks_Linear_5,211,1,48,19,855228116
748,21,Ticks_Linear_5,212,5,42,127,855321948
748,21,Ticks_Linear_5,213,1,48,38,855919324
748,21,Ticks_Linear_5,214,5,42,127,856012084
748,21,Ticks_Linear_5,215,1,48,38,856636000
748,21,Ticks_Linear_5,216,5,42,127,856702248
748,21,Ticks_Linear_5,217,1,48,35,857326140
748,21,Ticks_Linear_5,218,5,42,127,857401696
748,21,Ticks_Linear_5,219,1,48,41,858046636
748,21,Ticks_Linear_5,220,5,42,127,858102092
748,21,Ticks_Linear_5,221,1,48,38,858769756
748,21,Ticks_Linear_5,222,5,42,127,858801468
748,21,Ticks_Linear_5,223,1,48,35,859431904
748,21,Ticks_Linear_5,224,5,42,127,859502040
748,21,Ticks_Linear_5,225,1,48,30,860128848
748,21,Ticks_Linear_5,226,5,42,127,860202240
748,21,Ticks_Linear_5,227,1,48,39,860808236
748,21,Ticks_Linear_5,228,5,42,127,860911908
748,21,Ticks_Linear_5,229,1,48,21,861528652
748,21,Ticks_Linear_5,230,5,42,127,861621764
748,21,Ticks_Linear_5,231,1,48,39,862195276
748,21,Ticks_Linear_5,232,5,42,127,862332300
748,21,Ticks_Linear_5,233,1,48,36,862922512
748,21,Ticks_Linear_5,234,5,42,127,863042080
748,21,Ticks_Linear_5,235,1,48,37,863661428
748,21,Ticks_Linear_5,236,5,42,127,863751804
748,21,Ticks_Linear_5,237,1,48,32,864413444
748,21,Ticks_Linear_5,238,5,42,127,864472644
748,21,Ticks_Linear_5,239,1,48,26,865149732
748,21,Ticks_Linear_5,240,5,42,127,865201752
748,21,Ticks_Linear_5,241,1,48,39,865830692
748,21,Ticks_Linear_5,242,5,42,127,865922764
748,21,Ticks_Linear_5,243,1,48,40,866575596
748,21,Ticks_Linear_5,244,5,42,127,866651796
748,21,Ticks_Linear_5,245,1,48,42,867272400
748,21,Ticks_Linear_5,246,5,42,127,867372720
748,21,Ticks_Linear_5,247,1,48,34,868024496
748,21,Ticks_Linear_5,248,5,42,127,868101544
748,21,Ticks_Linear_5,249,1,48,32,868778604
748,21,Ticks_Linear_5,250,5,42,127,868831744
748,21,Ticks_Linear_5,251,1,48,36,869501800
748,21,Ticks_Linear_5,252,5,42,127,869561600
748,21,Ticks_Linear_5,253,1,48,38,870218020
748,21,Ticks_Linear_5,254,5,42,127,870291828
748,21,Ticks_Linear_5,255,1,48,35,870911976
748,21,Ticks_Linear_5,256,5,42,127,871021964
748,21,Ticks_Linear_5,257,1,48,31,871679644
748,21,Ticks_Linear_5,258,5,42,127,871762392
748,21,Ticks_Linear_5,259,1,48,43,872420292
748,21,Ticks_Linear_5,260,5,42,127,872501532
748,21,Ticks_Linear_5,261,1,48,35,873155980
748,21,Ticks_Linear_5,262,5,42,127,873241944
748,21,Ticks_Linear_5,263,1,48,25,873896392
748,21,Ticks_Linear_5,264,5,42,127,873982552
748,21,Ticks_Linear_5,265,1,48,34,874642876
748,21,Ticks_Linear_5,266,5,42,127,874721624
748,21,Ticks_Linear_5,267,1,48,42,875368456
748,21,Ticks_Linear_5,268,5,42,127,875472352
748,21,Ticks_Linear_5,269,1,48,40,876122052
748,21,Ticks_Linear_5,270,5,42,127,876222504
748,21,Ticks_Linear_5,271,1,48,32,876842172
748,21,Ticks_Linear_5,272,5,42,127,876972496
748,21,Ticks_Linear_5,273,1,48,33,877596732
748,21,Ticks_Linear_5,274,5,42,127,877721972
748,21,Ticks_Linear_5,275,1,48,39,878384996
748,21,Ticks_Linear_5,276,5,42,127,878471612
748,21,Ticks_Linear_5,277,1,48,40,879135296
748,21,Ticks_Linear_5,278,5,42,127,879232452
748,21,Ticks_Linear_5,279,1,48,40,879833448
748,21,Ticks_Linear_5,280,5,42,127,879992108
748,21,Ticks_Linear_5,281,1,48,38,880620072
748,21,Ticks_Linear_5,282,5,42,127,880751992
748,21,Ticks_Linear_5,283,1,48,22,881339816
748,21,Ticks_Linear_5,284,5,42,127,881511804
748,21,Ticks_Linear_5,285,1,48,39,882140060
748,21,Ticks_Linear_5,286,5,42,127,882271612
748,21,Ticks_Linear_5,287,1,48,42,882875296
748,21,Ticks_Linear_5,288,5,42,127,883041604
748,21,Ticks_Linear_5,289,1,48,44,883592280
748,21,Ticks_Linear_5,290,5,42,127,883811744
748,21,Ticks_Linear_5,291,1,48,30,884361376
748,21,Ticks_Linear_5,292,5,42,127,884581664
748,21,Ticks_Linear_5,293,1,48,32,885290452
748,21,Ticks_Linear_5,294,5,42,127,885351896
748,21,Ticks_Linear_5,295,5,42,127,886121820
748,21,Ticks_Linear_5,296,1,48,35,886143660
748,21,Ticks_Linear_5,297,5,42,127,886902220
748,21,Ticks_Linear_5,298,1,48,35,886916500
748,21,Ticks_Linear_5,299,5,42,127,887682400
748,21,Ticks_Linear_5,300,1,48,40,887715320
748,21,Ticks_Linear_5,301,5,42,127,888471864
748,21,Ticks_Linear_5,302,1,48,37,888481500
748,21,Ticks_Linear_5,303,5,42,127,889252412
748,21,Ticks_Linear_5,304,1,48,47,889291632
748,21,Ticks_Linear_5,305,5,42,127,890031620
748,21,Ticks_Linear_5,306,1,48,43,890064996
748,21,Ticks_Linear_5,307,1,48,44,890798860
748,21,Ticks_Linear_5,308,5,42,127,890822348
748,21,Ticks_Linear_5,309,1,48,50,891597540
748,21,Ticks_Linear_5,310,5,42,127,891611440
748,21,Ticks_Linear_5,311,1,48,46,892388500
748,21,Ticks_Linear_5,312,5,42,127,892402248
748,21,Ticks_Linear_5,313,1,48,45,893168452
748,21,Ticks_Linear_5,314,5,42,127,893191516
748,21,Ticks_Linear_5,315,1,48,42,893953676
748,21,Ticks_Linear_5,316,5,42,127,893982100
748,21,Ticks_Linear_5,317,1,48,40,894751984
748,21,Ticks_Linear_5,318,5,42,127,894781676
748,21,Ticks_Linear_5,319,1,48,43,895536724
748,21,Ticks_Linear_5,320,5,42,127,895581624
748,21,Ticks_Linear_5,321,1,48,44,896369540
748,21,Ticks_Linear_5,322,5,42,127,896382392
748,21,Ticks_Linear_5,323,5,42,127,897182272
748,21,Ticks_Linear_5,324,1,48,42,897193184
748,21,Ticks_Linear_5,325,1,48,44,897981548
748,21,Ticks_Linear_5,326,5,42,127,897982812
748,21,Ticks_Linear_5,327,5,42,127,898791756
748,21,Ticks_Linear_5,328,1,48,45,898794576
748,21,Ticks_Linear_5,329,5,42,127,899601688
748,21,Ticks_Linear_5,330,1,48,47,899627496
748,21,Ticks_Linear_5,331,1,48,49,900407872
748,21,Ticks_Linear_5,332,5,42,127,900411664
748,21,Ticks_Linear_5,333,1,48,45,901216288
748,21,Ticks_Linear_5,334,5,42,127,901221648
748,21,Ticks_Linear_5,335,5,42,127,902031784
748,21,Ticks_Linear_5,336,1,48,46,902034532
748,21,Ticks_Linear_5,0,9999,9999,9999,792809548
748,21,Ticks_Linear_5,1,9999,9999,9999,793289796
748,21,Ticks_Linear_5,2,9999,9999,9999,793770048
748,21,Ticks_Linear_5,3,9999,9999,9999,794249320
748,21,Ticks_Linear_5,4,9999,9999,9999,794729588
748,21,Ticks_Linear_5,5,9999,9999,9999,795220036
748,21,Ticks_Linear_5,6,9999,9999,9999,795709552
748,21,Ticks_Linear_5,7,9999,9999,9999,796200040
748,21,Ticks_Linear_5,8,9999,9999,9999,796689488
748,21,Ticks_Linear_5,9,9999,9999,9999,797180024
748,21,Ticks_Linear_5,10,9999,9999,9999,797679716
748,21,Ticks_Linear_5,11,9999,9999,9999,798179416
748,21,Ticks_Linear_5,12,9999,9999,9999,798679116
748,21,Ticks_Linear_5,13,9999,9999,9999,799179860
748,21,Ticks_Linear_5,14,9999,9999,9999,799679564
748,21,Ticks_Linear_5,15,9999,9999,9999,800189520
748,21,Ticks_Linear_5,16,9999,9999,9999,800699480
748,21,Ticks_Linear_5,17,9999,9999,9999,801209440
748,21,Ticks_Linear_5,18,9999,9999,9999,801719400
748,21,Ticks_Linear_5,19,9999,9999,9999,802229360
748,21,Ticks_Linear_5,20,9999,9999,9999,802749504
748,21,Ticks_Linear_5,21,9999,9999,9999,803269720
748,21,Ticks_Linear_5,22,9999,9999,9999,803789940
748,21,Ticks_Linear_5,23,9999,9999,9999,804310084
748,21,Ticks_Linear_5,24,9999,9999,9999,804839512
748,21,Ticks_Linear_5,25,9999,9999,9999,805369916
748,21,Ticks_Linear_5,26,9999,9999,9999,805899360
748,21,Ticks_Linear_5,27,9999,9999,9999,806429776
748,21,Ticks_Linear_5,28,9999,9999,9999,806959208
748,21,Ticks_Linear_5,29,9999,9999,9999,807489612
748,21,Ticks_Linear_5,30,9999,9999,9999,808029276
748,21,Ticks_Linear_5,31,9999,9999,9999,808569924
748,21,Ticks_Linear_5,32,9999,9999,9999,809109628
748,21,Ticks_Linear_5,33,9999,9999,9999,809649240
748,21,Ticks_Linear_5,34,9999,9999,9999,810189904
748,21,Ticks_Linear_5,35,9999,9999,9999,810739836
748,21,Ticks_Linear_5,36,9999,9999,9999,811289676
748,21,Ticks_Linear_5,37,9999,9999,9999,811839608
748,21,Ticks_Linear_5,38,9999,9999,9999,812389444
748,21,Ticks_Linear_5,39,9999,9999,9999,812939372
748,21,Ticks_Linear_5,40,9999,9999,9999,813499492
748,21,Ticks_Linear_5,41,9999,9999,9999,814059628
748,21,Ticks_Linear_5,42,9999,9999,9999,814619712
748,21,Ticks_Linear_5,43,9999,9999,9999,815179844
748,21,Ticks_Linear_5,44,9999,9999,9999,815739976
748,21,Ticks_Linear_5,45,9999,9999,9999,816309324
748,21,Ticks_Linear_5,46,9999,9999,9999,816879716
748,21,Ticks_Linear_5,47,9999,9999,9999,817450072
748,21,Ticks_Linear_5,48,9999,9999,9999,818019420
748,21,Ticks_Linear_5,49,9999,9999,9999,818589812
748,21,Ticks_Linear_5,50,9999,9999,9999,819169340
748,21,Ticks_Linear_5,51,9999,9999,9999,819749944
748,21,Ticks_Linear_5,52,9999,9999,9999,820329548
748,21,Ticks_Linear_5,53,9999,9999,9999,820909152
748,21,Ticks_Linear_5,54,9999,9999,9999,821489728
748,21,Ticks_Linear_5,55,9999,9999,9999,822079544
748,21,Ticks_Linear_5,56,9999,9999,9999,822669408
748,21,Ticks_Linear_5,57,9999,9999,9999,823259196
748,21,Ticks_Linear_5,58,9999,9999,9999,823850056
748,21,Ticks_Linear_5,59,9999,9999,9999,824439920
748,21,Ticks_Linear_5,60,9999,9999,9999,825039972
748,21,Ticks_Linear_5,61,9999,9999,9999,825640024
748,21,Ticks_Linear_5,62,9999,9999,9999,826240092
748,21,Ticks_Linear_5,63,9999,9999,9999,826849352
748,21,Ticks_Linear_5,64,9999,9999,9999,827449424
748,21,Ticks_Linear_5,65,9999,9999,9999,828059732
748,21,Ticks_Linear_5,66,9999,9999,9999,828670040
748,21,Ticks_Linear_5,67,9999,9999,9999,829279328
748,21,Ticks_Linear_5,68,9999,9999,9999,829889636
748,21,Ticks_Linear_5,69,9999,9999,9999,830499968
748,21,Ticks_Linear_5,70,9999,9999,9999,831119416
748,21,Ticks_Linear_5,71,9999,9999,9999,831739980
748,21,Ticks_Linear_5,72,9999,9999,9999,832359524
748,21,Ticks_Linear_5,73,9999,9999,9999,832980076
748,21,Ticks_Linear_5,74,9999,9999,9999,833599560
748,21,Ticks_Linear_5,75,9999,9999,9999,834229324
748,21,Ticks_Linear_5,76,9999,9999,9999,834859128
748,21,Ticks_Linear_5,77,9999,9999,9999,835489880
748,21,Ticks_Linear_5,78,9999,9999,9999,836119624
748,21,Ticks_Linear_5,79,9999,9999,9999,836749388
748,21,Ticks_Linear_5,80,9999,9999,9999,837389392
748,21,Ticks_Linear_5,81,9999,9999,9999,838029416
748,21,Ticks_Linear_5,82,9999,9999,9999,838669404
748,21,Ticks_Linear_5,83,9999,9999,9999,839309384
748,21,Ticks_Linear_5,84,9999,9999,9999,839949432
748,21,Ticks_Linear_5,85,9999,9999,9999,840599656
748,21,Ticks_Linear_5,86,9999,9999,9999,841249916
748,21,Ticks_Linear_5,87,9999,9999,9999,841899092
748,21,Ticks_Linear_5,88,9999,9999,9999,842549340
748,21,Ticks_Linear_5,89,9999,9999,9999,843199564
748,21,Ticks_Linear_5,90,9999,9999,9999,843860068
748,21,Ticks_Linear_5,91,9999,9999,9999,844519504
748,21,Ticks_Linear_5,92,9999,9999,9999,845179996
748,21,Ticks_Linear_5,93,9999,9999,9999,845839468
748,21,Ticks_Linear_5,94,9999,9999,9999,846499948
748,21,Ticks_Linear_5,95,9999,9999,9999,847169596
748,21,Ticks_Linear_5,96,9999,9999,9999,847839288
748,21,Ticks_Linear_5,97,9999,9999,9999,848510056
748,21,Ticks_Linear_5,98,9999,9999,9999,849179760
748,21,Ticks_Linear_5,99,9999,9999,9999,849849452
748,21,Ticks_Linear_5,100,9999,9999,9999,850529372
748,21,Ticks_Linear_5,101,9999,9999,9999,851209276
748,21,Ticks_Linear_5,102,9999,9999,9999,851889228
748,21,Ticks_Linear_5,103,9999,9999,9999,852569204
748,21,Ticks_Linear_5,104,9999,9999,9999,853249084
748,21,Ticks_Linear_5,105,9999,9999,9999,853939308
748,21,Ticks_Linear_5,106,9999,9999,9999,854629472
748,21,Ticks_Linear_5,107,9999,9999,9999,855319648
748,21,Ticks_Linear_5,108,9999,9999,9999,856009788
748,21,Ticks_Linear_5,109,9999,9999,9999,856700024
748,21,Ticks_Linear_5,110,9999,9999,9999,857399400
748,21,Ticks_Linear_5,111,9999,9999,9999,858099796
748,21,Ticks_Linear_5,112,9999,9999,9999,858799172
748,21,Ticks_Linear_5,113,9999,9999,9999,859499592
748,21,Ticks_Linear_5,114,9999,9999,9999,860200012
748,21,Ticks_Linear_5,115,9999,9999,9999,860909684
748,21,Ticks_Linear_5,116,9999,9999,9999,861619320
748,21,Ticks_Linear_5,117,9999,9999,9999,862329924
748,21,Ticks_Linear_5,118,9999,9999,9999,863039560
748,21,Ticks_Linear_5,119,9999,9999,9999,863749208
748,21,Ticks_Linear_5,120,9999,9999,9999,864470124
748,21,Ticks_Linear_5,121,9999,9999,9999,865199232
748,21,Ticks_Linear_5,122,9999,9999,9999,865920096
748,21,Ticks_Linear_5,123,9999,9999,9999,866649200
748,21,Ticks_Linear_5,124,9999,9999,9999,867370064
748,21,Ticks_Linear_5,125,9999,9999,9999,868099172
748,21,Ticks_Linear_5,126,9999,9999,9999,868829300
748,21,Ticks_Linear_5,127,9999,9999,9999,869559376
748,21,Ticks_Linear_5,128,9999,9999,9999,870289528
748,21,Ticks_Linear_5,129,9999,9999,9999,871019592
748,21,Ticks_Linear_5,130,9999,9999,9999,871759944
748,21,Ticks_Linear_5,131,9999,9999,9999,872499308
748,21,Ticks_Linear_5,132,9999,9999,9999,873239648
748,21,Ticks_Linear_5,133,9999,9999,9999,873979956
748,21,Ticks_Linear_5,134,9999,9999,9999,874719324
748,21,Ticks_Linear_5,135,9999,9999,9999,875469904
748,21,Ticks_Linear_5,136,9999,9999,9999,876219472
748,21,Ticks_Linear_5,137,9999,9999,9999,876970048
748,21,Ticks_Linear_5,138,9999,9999,9999,877719672
748,21,Ticks_Linear_5,139,9999,9999,9999,878469236
748,21,Ticks_Linear_5,140,9999,9999,9999,879230080
748,21,Ticks_Linear_5,141,9999,9999,9999,879989884
748,21,Ticks_Linear_5,142,9999,9999,9999,880749696
748,21,Ticks_Linear_5,143,9999,9999,9999,881509432
748,21,Ticks_Linear_5,144,9999,9999,9999,882269240
748,21,Ticks_Linear_5,145,9999,9999,9999,883039308
748,21,Ticks_Linear_5,146,9999,9999,9999,883809372
748,21,Ticks_Linear_5,147,9999,9999,9999,884579440
748,21,Ticks_Linear_5,148,9999,9999,9999,885349448
748,21,Ticks_Linear_5,149,9999,9999,9999,886119520
748,21,Ticks_Linear_5,150,9999,9999,9999,886899772
748,21,Ticks_Linear_5,151,9999,9999,9999,887680100
748,21,Ticks_Linear_5,152,9999,9999,9999,888469564
748,21,Ticks_Linear_5,153,9999,9999,9999,889249892
748,21,Ticks_Linear_5,154,9999,9999,9999,890029172
748,21,Ticks_Linear_5,155,9999,9999,9999,890819676
748,21,Ticks_Linear_5,156,9999,9999,9999,891609144
748,21,Ticks_Linear_5,157,9999,9999,9999,892399728
748,21,Ticks_Linear_5,158,9999,9999,9999,893189216
748,21,Ticks_Linear_5,159,9999,9999,9999,893979728
748,21,Ticks_Linear_5,160,9999,9999,9999,894779452
748,21,Ticks_Linear_5,161,9999,9999,9999,895579252
748,21,Ticks_Linear_5,162,9999,9999,9999,896380020
748,21,Ticks_Linear_5,163,9999,9999,9999,897179752
748,21,Ticks_Linear_5,164,9999,9999,9999,897979472
748,21,Ticks_Linear_5,165,9999,9999,9999,898789456
748,21,Ticks_Linear_5,166,9999,9999,9999,899599464
748,21,Ticks_Linear_5,167,9999,9999,9999,900409440
748,21,Ticks_Linear_5,168,9999,9999,9999,901219424
748,21,Ticks_Linear_5,169,9999,9999,9999,902029412
749,22,Ticks_Phase_8,0,5,42,127,912753192
749,22,Ticks_Phase_8,1,1,48,25,913423416
749,22,Ticks_Phase_8,2,5,42,127,913552832
749,22,Ticks_Phase_8,3,5,42,127,914352488
749,22,Ticks_Phase_8,4,1,48,17,914355976
749,22,Ticks_Phase_8,5,5,42,127,915153320
749,22,Ticks_Phase_8,6,1,48,34,915169240
749,22,Ticks_Phase_8,7,5,42,127,915953032
749,22,Ticks_Phase_8,8,1,48,32,915975348
749,22,Ticks_Phase_8,9,5,42,127,916752768
749,22,Ticks_Phase_8,10,1,48,38,916755664
749,22,Ticks_Phase_8,11,5,42,127,917552704
749,22,Ticks_Phase_8,12,1,48,35,917563692
749,22,Ticks_Phase_8,13,1,48,40,918305720
749,22,Ticks_Phase_8,14,5,42,127,918353232
749,22,Ticks_Phase_8,15,1,48,37,919126328
749,22,Ticks_Phase_8,16,5,42,127,919153016
749,22,Ticks_Phase_8,17,1,48,31,919907016
749,22,Ticks_Phase_8,18,5,42,127,919953028
749,22,Ticks_Phase_8,19,1,48,37,920659916
749,22,Ticks_Phase_8,20,5,42,127,920752444
749,22,Ticks_Phase_8,21,1,48,21,921532056
749,22,Ticks_Phase_8,22,5,42,127,921553200
749,22,Ticks_Phase_8,23,1,48,33,922332592
749,22,Ticks_Phase_8,24,5,42,127,922353208
749,22,Ticks_Phase_8,25,1,48,40,923099944
749,22,Ticks_Phase_8,26,5,42,127,923153096
749,22,Ticks_Phase_8,27,1,48,32,923907396
749,22,Ticks_Phase_8,28,5,42,127,923952360
749,22,Ticks_Phase_8,29,1,48,39,924740500
749,22,Ticks_Phase_8,30,5,42,127,924753344
749,22,Ticks_Phase_8,31,1,48,43,925482784
749,22,Ticks_Phase_8,32,5,42,127,925553056
749,22,Ticks_Phase_8,33,1,48,38,926262504
749,22,Ticks_Phase_8,34,5,42,127,926352916
749,22,Ticks_Phase_8,35,1,48,38,927109684
749,22,Ticks_Phase_8,36,5,42,127,927152852
749,22,Ticks_Phase_8,37,1,48,26,927937856
749,22,Ticks_Phase_8,38,5,42,127,927953236
749,22,Ticks_Phase_8,39,5,42,127,928752956
749,22,Ticks_Phase_8,40,1,48,25,928764992
749,22,Ticks_Phase_8,41,5,42,127,929552696
749,22,Ticks_Phase_8,42,1,48,34,929577308
749,22,Ticks_Phase_8,43,5,42,127,930352776
749,22,Ticks_Phase_8,44,1,48,40,930375440
749,22,Ticks_Phase_8,45,5,42,127,931153312
749,22,Ticks_Phase_8,46,1,48,41,931168712
749,22,Ticks_Phase_8,47,5,42,127,931952876
749,22,Ticks_Phase_8,48,1,48,42,931989164
749,22,Ticks_Phase_8,49,1,48,40,932730988
749,22,Ticks_Phase_8,50,5,42,127,932752804
749,22,Ticks_Phase_8,51,1,48,44,933546640
749,22,Ticks_Phase_8,52,5,42,127,933552740
749,22,Ticks_Phase_8,53,5,42,127,934353132
749,22,Ticks_Phase_8,54,1,48,32,934357820
749,22,Ticks_Phase_8,55,1,48,41,935125696
749,22,Ticks_Phase_8,56,5,42,127,935153060
749,22,Ticks_Phase_8,57,1,48,35,935929076
749,22,Ticks_Phase_8,58,5,42,127,935952796
749,22,Ticks_Phase_8,59,1,48,43,936695840
749,22,Ticks_Phase_8,60,5,42,127,936732892
749,22,Ticks_Phase_8,61,1,48,33,937527104
749,22,Ticks_Phase_8,62,5,42,127,937532828
749,22,Ticks_Phase_8,63,1,48,37,938320592
749,22,Ticks_Phase_8,64,5,42,127,938332612
749,22,Ticks_Phase_8,65,5,42,127,939133304
749,22,Ticks_Phase_8,66,1,48,38,939177832
749,22,Ticks_Phase_8,67,5,42,127,939933012
749,22,Ticks_Phase_8,68,1,48,30,939936356
749,22,Ticks_Phase_8,69,5,42,127,940732872
749,22,Ticks_Phase_8,70,1,48,38,940755092
749,22,Ticks_Phase_8,71,5,42,127,941532584
749,22,Ticks_Phase_8,72,1,48,39,941543196
749,22,Ticks_Phase_8,73,5,42,127,942333492
749,22,Ticks_Phase_8,74,1,48,35,942336040
749,22,Ticks_Phase_8,75,5,42,127,943133004
749,22,Ticks_Phase_8,76,1,48,39,943161520
749,22,Ticks_Phase_8,77,5,42,127,943932716
749,22,Ticks_Phase_8,78,1,48,38,943982044
749,22,Ticks_Phase_8,79,5,42,127,944732504
749,22,Ticks_Phase_8,80,1,48,45,944786392
749,22,Ticks_Phase_8,81,5,42,127,945533560
749,22,Ticks_Phase_8,82,1,48,47,945556296
749,22,Ticks_Phase_8,83,5,42,127,946332972
749,22,Ticks_Phase_8,84,1,48,42,946342988
749,22,Ticks_Phase_8,85,5,42,127,947132760
749,22,Ticks_Phase_8,86,1,48,38,947156024
749,22,Ticks_Phase_8,87,5,42,127,947932620
749,22,Ticks_Phase_8,88,1,48,44,947953716
749,22,Ticks_Phase_8,89,5,42,127,948733300
749,22,Ticks_Phase_8,90,1,48,47,948746484
749,22,Ticks_Phase_8,91,5,42,127,949532964
749,22,Ticks_Phase_8,92,1,48,37,949573528
749,22,Ticks_Phase_8,93,1,48,43,950330704
749,22,Ticks_Phase_8,94,5,42,127,950332744
749,22,Ticks_Phase_8,95,5,42,127,951152984
749,22,Ticks_Phase_8,96,1,48,40,951178188
749,22,Ticks_Phase_8,97,5,42,127,951952696
749,22,Ticks_Phase_8,98,1,48,38,951974460
749,22,Ticks_Phase_8,99,5,42,127,952752480
749,22,Ticks_Phase_8,100,1,48,37,952818128
749,22,Ticks_Phase_8,101,5,42,127,953553316
749,22,Ticks_Phase_8,102,1,48,31,953593656
749,22,Ticks_Phase_8,103,5,42,127,954352956
749,22,Ticks_Phase_8,104,1,48,39,954422456
749,22,Ticks_Phase_8,105,5,42,127,955152692
749,22,Ticks_Phase_8,106,1,48,39,955190792
749,22,Ticks_Phase_8,107,1,48,42,955915372
749,22,Ticks_Phase_8,108,5,42,127,955952472
749,22,Ticks_Phase_8,109,1,48,40,956722428
749,22,Ticks_Phase_8,110,5,42,127,956753380
749,22,Ticks_Phase_8,111,1,48,43,957533372
749,22,Ticks_Phase_8,112,5,42,127,957553092
749,22,Ticks_Phase_8,113,5,42,127,958352884
749,22,Ticks_Phase_8,114,1,48,41,958368208
749,22,Ticks_Phase_8,115,1,48,43,959114444
749,22,Ticks_Phase_8,116,5,42,127,959152592
749,22,Ticks_Phase_8,117,1,48,42,959940504
749,22,Ticks_Phase_8,118,5,42,127,959953348
749,22,Ticks_Phase_8,119,5,42,127,960752992
749,22,Ticks_Phase_8,120,1,48,40,960774636
749,22,Ticks_Phase_8,121,1,48,38,961550608
749,22,Ticks_Phase_8,122,5,42,127,961552724
749,22,Ticks_Phase_8,123,1,48,45,962333456
749,22,Ticks_Phase_8,124,5,42,127,962352360
749,22,Ticks_Phase_8,125,1,48,42,963075432
749,22,Ticks_Phase_8,126,5,42,127,963153416
749,22,Ticks_Phase_8,127,1,48,42,963907340
749,22,Ticks_Phase_8,128,5,42,127,963992820
749,22,Ticks_Phase_8,129,1,48,35,964772064
749,22,Ticks_Phase_8,130,5,42,127,964792608
749,22,Ticks_Phase_8,131,1,48,43,965559636
749,22,Ticks_Phase_8,132,5,42,127,965592396
749,22,Ticks_Phase_8,133,1,48,40,966373656
749,22,Ticks_Phase_8,134,5,42,127,966393300
749,22,Ticks_Phase_8,135,1,48,40,967193344
749,22,Ticks_Phase_8,136,5,42,127,967194532
749,22,Ticks_Phase_8,137,5,42,127,967993128
749,22,Ticks_Phase_8,138,1,48,28,968027100
749,22,Ticks_Phase_8,139,5,42,127,968792392
749,22,Ticks_Phase_8,140,1,48,40,968811464
749,22,Ticks_Phase_8,141,1,48,40,969569896
749,22,Ticks_Phase_8,142,5,42,127,969593072
749,22,Ticks_Phase_8,143,1,48,46,970335836
749,22,Ticks_Phase_8,144,5,42,127,970393080
749,22,Ticks_Phase_8,145,1,48,41,971125964
749,22,Ticks_Phase_8,146,5,42,127,971192644
749,22,Ticks_Phase_8,147,1,48,35,971961024
749,22,Ticks_Phase_8,148,5,42,127,971992500
749,22,Ticks_Phase_8,149,1,48,37,972744784
749,22,Ticks_Phase_8,150,5,42,127,972793336
749,22,Ticks_Phase_8,151,1,48,34,973569896
749,22,Ticks_Phase_8,152,5,42,127,973593072
749,22,Ticks_Phase_8,153,5,42,127,974392788
749,22,Ticks_Phase_8,154,1,48,35,974407068
749,22,Ticks_Phase_8,155,5,42,127,975192352
749,22,Ticks_Phase_8,156,1,48,22,975226768
749,22,Ticks_Phase_8,157,5,42,127,975993260
749,22,Ticks_Phase_8,158,1,48,30,976002156
749,22,Ticks_Phase_8,159,1,48,37,976773172
749,22,Ticks_Phase_8,160,5,42,127,976793040
749,22,Ticks_Phase_8,161,5,42,127,977552848
749,22,Ticks_Phase_8,162,1,48,21,977616248
749,22,Ticks_Phase_8,163,5,42,127,978352484
749,22,Ticks_Phase_8,164,1,48,33,978385256
749,22,Ticks_Phase_8,165,1,48,40,979121312
749,22,Ticks_Phase_8,166,5,42,127,979153236
749,22,Ticks_Phase_8,167,1,48,32,979932996
749,22,Ticks_Phase_8,168,5,42,127,979953168
749,22,Ticks_Phase_8,169,1,48,28,980744492
749,22,Ticks_Phase_8,170,5,42,127,980752684
749,22,Ticks_Phase_8,171,1,48,25,981545028
749,22,Ticks_Phase_8,172,5,42,127,981552548
749,22,Ticks_Phase_8,173,1,48,31,982339268
749,22,Ticks_Phase_8,174,5,42,127,982353232
749,22,Ticks_Phase_8,175,1,48,33,983081328
749,22,Ticks_Phase_8,176,5,42,127,983153092
749,22,Ticks_Phase_8,177,1,48,34,983868528
749,22,Ticks_Phase_8,178,5,42,127,983953028
749,22,Ticks_Phase_8,179,1,48,35,984725980
749,22,Ticks_Phase_8,180,5,42,127,984752448
749,22,Ticks_Phase_8,181,5,42,127,985553140
749,22,Ticks_Phase_8,182,1,48,25,985604808
749,22,Ticks_Phase_8,183,5,42,127,986352924
749,22,Ticks_Phase_8,184,1,48,27,986407512
749,22,Ticks_Phase_8,185,5,42,127,987153032
749,22,Ticks_Phase_8,186,1,48,30,987212852
749,22,Ticks_Phase_8,187,5,42,127,987952448
749,22,Ticks_Phase_8,188,1,48,43,988007540
749,22,Ticks_Phase_8,189,1,48,38,988745008
749,22,Ticks_Phase_8,190,5,42,127,988753200
749,22,Ticks_Phase_8,191,5,42,127,989552920
749,22,Ticks_Phase_8,192,1,48,26,989598420
749,22,Ticks_Phase_8,193,5,42,127,990273000
749,22,Ticks_Phase_8,194,1,48,20,990346960
749,22,Ticks_Phase_8,195,1,48,38,991041452
749,22,Ticks_Phase_8,196,5,42,127,991072556
749,22,Ticks_Phase_8,197,1,48,28,991830072
749,22,Ticks_Phase_8,198,5,42,127,991873316
749,22,Ticks_Phase_8,199,1,48,43,992590092
749,22,Ticks_Phase_8,200,5,42,127,992673176
749,22,Ticks_Phase_8,201,1,48,30,993398416
749,22,Ticks_Phase_8,202,5,42,127,993472960
749,22,Ticks_Phase_8,203,1,48,43,994222624
749,22,Ticks_Phase_8,204,5,42,127,994272748
749,22,Ticks_Phase_8,205,1,48,36,995015816
749,22,Ticks_Phase_8,206,5,42,127,995073384
749,22,Ticks_Phase_8,207,1,48,44,995781084
749,22,Ticks_Phase_8,208,5,42,127,995873244
749,22,Ticks_Phase_8,209,1,48,34,996591656
749,22,Ticks_Phase_8,210,5,42,127,996672808
749,22,Ticks_Phase_8,211,1,48,27,997415792
749,22,Ticks_Phase_8,212,5,42,127,997472816
749,22,Ticks_Phase_8,213,1,48,32,998234532
749,22,Ticks_Phase_8,214,5,42,127,998273424
749,22,Ticks_Phase_8,215,1,48,38,999010436
749,22,Ticks_Phase_8,216,5,42,127,999073140
749,22,Ticks_Phase_8,217,1,48,30,999851484
749,22,Ticks_Phase_8,218,5,42,127,999872848
749,22,Ticks_Phase_8,219,1,48,35,1000623856
749,22,Ticks_Phase_8,220,5,42,127,1000672860
749,22,Ticks_Phase_8,221,5,42,127,1001473500
749,22,Ticks_Phase_8,222,1,48,30,1001490932
749,22,Ticks_Phase_8,223,5,42,127,1002272988
749,22,Ticks_Phase_8,224,1,48,35,1002282848
749,22,Ticks_Phase_8,225,1,48,46,1003060692
749,22,Ticks_Phase_8,226,5,42,127,1003072848
749,22,Ticks_Phase_8,227,1,48,37,1003908016
749,22,Ticks_Phase_8,228,5,42,127,1003952612
749,22,Ticks_Phase_8,229,1,48,38,1004705040
749,22,Ticks_Phase_8,230,5,42,127,1004753148
749,22,Ticks_Phase_8,231,5,42,127,1005552868
749,22,Ticks_Phase_8,232,1,48,35,1005580344
749,22,Ticks_Phase_8,233,5,42,127,1006352676
749,22,Ticks_Phase_8,234,1,48,40,1006405592
749,22,Ticks_Phase_8,235,5,42,127,1007152612
749,22,Ticks_Phase_8,236,1,48,37,1007175728
749,22,Ticks_Phase_8,237,5,42,127,1007953220
749,22,Ticks_Phase_8,238,1,48,29,1007960468
749,22,Ticks_Phase_8,239,5,42,127,1008752860
749,22,Ticks_Phase_8,240,1,48,43,1008803680
749,22,Ticks_Phase_8,241,5,42,127,1009552720
749,22,Ticks_Phase_8,242,1,48,32,1009601076
749,22,Ticks_Phase_8,243,5,42,127,1010352576
749,22,Ticks_Phase_8,244,1,48,34,1010353544
749,22,Ticks_Phase_8,245,1,48,37,1011147012
749,22,Ticks_Phase_8,246,5,42,127,1011153552
749,22,Ticks_Phase_8,247,5,42,127,1011952900
749,22,Ticks_Phase_8,248,1,48,36,1011972372
749,22,Ticks_Phase_8,249,5,42,127,1012752712
749,22,Ticks_Phase_8,250,1,48,41,1012780848
749,22,Ticks_Phase_8,251,5,42,127,1013552572
749,22,Ticks_Phase_8,252,1,48,27,1013587292
749,22,Ticks_Phase_8,253,1,48,32,1014314724
749,22,Ticks_Phase_8,254,5,42,127,1014353472
749,22,Ticks_Phase_8,255,1,48,41,1015112568
749,22,Ticks_Phase_8,256,5,42,127,1015153108
749,22,Ticks_Phase_8,257,1,48,42,1015863076
749,22,Ticks_Phase_8,258,5,42,127,1015952820
749,22,Ticks_Phase_8,259,1,48,32,1016748380
749,22,Ticks_Phase_8,260,5,42,127,1016752608
749,22,Ticks_Phase_8,261,1,48,45,1017500308
749,22,Ticks_Phase_8,262,5,42,127,1017712888
749,22,Ticks_Phase_8,263,5,42,127,1018512844
749,22,Ticks_Phase_8,264,1,48,23,1018725076
749,22,Ticks_Phase_8,265,5,42,127,1019312556
749,22,Ticks_Phase_8,266,1,48,24,1019319864
749,22,Ticks_Phase_8,267,5,42,127,1020113316
749,22,Ticks_Phase_8,268,1,48,24,1020122284
749,22,Ticks_Phase_8,269,1,48,27,1020879508
749,22,Ticks_Phase_8,270,5,42,127,1020913020
749,22,Ticks_Phase_8,271,5,42,127,1021712688
749,22,Ticks_Phase_8,272,5,42,127,1022512572
749,22,Ticks_Phase_8,273,1,48,21,1022543400
749,22,Ticks_Phase_8,274,1,48,18,1023296592
749,22,Ticks_Phase_8,275,5,42,127,1023313248
749,22,Ticks_Phase_8,276,1,48,23,1024053244
749,22,Ticks_Phase_8,277,5,42,127,1024112884
749,22,Ticks_Phase_8,278,1,48,37,1024868300
749,22,Ticks_Phase_8,279,5,42,127,1024912744
749,22,Ticks_Phase_8,280,1,48,38,1025702616
749,22,Ticks_Phase_8,281,5,42,127,1025712456
749,22,Ticks_Phase_8,282,1,48,17,1026484504
749,22,Ticks_Phase_8,283,5,42,127,1026513364
749,22,Ticks_Phase_8,284,1,48,28,1027295072
749,22,Ticks_Phase_8,285,5,42,127,1027313000
749,22,Ticks_Phase_8,286,5,42,127,1028112672
749,22,Ticks_Phase_8,287,1,48,26,1028151368
749,22,Ticks_Phase_8,288,5,42,127,1028912456
749,22,Ticks_Phase_8,289,1,48,24,1028917820
749,22,Ticks_Phase_8,290,5,42,127,1029713368
749,22,Ticks_Phase_8,291,1,48,25,1029730872
749,22,Ticks_Phase_8,292,1,48,31,1030503612
749,22,Ticks_Phase_8,293,5,42,127,1030512996
749,22,Ticks_Phase_8,294,5,42,127,1031312716
749,22,Ticks_Phase_8,295,1,48,35,1031322280
749,22,Ticks_Phase_8,296,1,48,20,1032104456
749,22,Ticks_Phase_8,297,5,42,127,1032112424
749,22,Ticks_Phase_8,298,5,42,127,1032752484
749,22,Ticks_Phase_8,299,1,48,27,1032911000
749,22,Ticks_Phase_8,300,1,48,20,1033510140
749,22,Ticks_Phase_8,301,5,42,127,1033553384
749,22,Ticks_Phase_8,302,1,48,23,1034311284
749,22,Ticks_Phase_8,303,5,42,127,1034353096
749,22,Ticks_Phase_8,304,1,48,27,1035137872
749,22,Ticks_Phase_8,305,5,42,127,1035152884
749,22,Ticks_Phase_8,306,1,48,30,1035952000
749,22,Ticks_Phase_8,307,5,42,127,1035953416
749,22,Ticks_Phase_8,308,1,48,30,1036747932
749,22,Ticks_Phase_8,309,5,42,127,1036753352
749,22,Ticks_Phase_8,310,5,42,127,1037553296
749,22,Ticks_Phase_8,311,1,48,24,1037571424
749,22,Ticks_Phase_8,312,5,42,127,1038352732
749,22,Ticks_Phase_8,313,1,48,29,1038355324
749,22,Ticks_Phase_8,314,1,48,35,1039131220
749,22,Ticks_Phase_8,315,5,42,127,1039152436
749,22,Ticks_Phase_8,316,1,48,20,1039881504
749,22,Ticks_Phase_8,317,5,42,127,1039953416
749,22,Ticks_Phase_8,318,5,42,127,1040753212
749,22,Ticks_Phase_8,319,1,48,18,1040789804
749,22,Ticks_Phase_8,320,1,48,22,1041536936
749,22,Ticks_Phase_8,321,5,42,127,1041552844
749,22,Ticks_Phase_8,322,1,48,21,1042318296
749,22,Ticks_Phase_8,323,5,42,127,1042352628
749,22,Ticks_Phase_8,324,1,48,20,1043115616
749,22,Ticks_Phase_8,325,5,42,127,1043153240
749,22,Ticks_Phase_8,326,1,48,23,1043952880
749,22,Ticks_Phase_8,327,5,42,127,1043954368
749,22,Ticks_Phase_8,328,5,42,127,1044752692
749,22,Ticks_Phase_8,329,1,48,26,1044763524
749,22,Ticks_Phase_8,330,5,42,127,1045552404
749,22,Ticks_Phase_8,331,1,48,19,1045559112
749,22,Ticks_Phase_8,332,5,42,127,1046353236
749,22,Ticks_Phase_8,333,1,48,22,1046365716
749,22,Ticks_Phase_8,334,1,48,16,1047149988
749,22,Ticks_Phase_8,335,5,42,127,1047153316
749,22,Ticks_Phase_8,336,1,48,23,1047907764
749,22,Ticks_Phase_8,337,5,42,127,1047953028
749,22,Ticks_Phase_8,0,9999,9999,9999,912750684
749,22,Ticks_Phase_8,1,9999,9999,9999,913550396
749,22,Ticks_Phase_8,2,9999,9999,9999,914350200
749,22,Ticks_Phase_8,3,9999,9999,9999,915150960
749,22,Ticks_Phase_8,4,9999,9999,9999,915950672
749,22,Ticks_Phase_8,5,9999,9999,9999,916750408
749,22,Ticks_Phase_8,6,9999,9999,9999,917550196
749,22,Ticks_Phase_8,7,9999,9999,9999,918350944
749,22,Ticks_Phase_8,8,9999,9999,9999,919150656
749,22,Ticks_Phase_8,9,9999,9999,9999,919950440
749,22,Ticks_Phase_8,10,9999,9999,9999,920750156
749,22,Ticks_Phase_8,11,9999,9999,9999,921550916
749,22,Ticks_Phase_8,12,9999,9999,9999,922350700
749,22,Ticks_Phase_8,13,9999,9999,9999,923150440
749,22,Ticks_Phase_8,14,9999,9999,9999,923950148
749,22,Ticks_Phase_8,15,9999,9999,9999,924750908
749,22,Ticks_Phase_8,16,9999,9999,9999,925550696
749,22,Ticks_Phase_8,17,9999,9999,9999,926350408
749,22,Ticks_Phase_8,18,9999,9999,9999,927150196
749,22,Ticks_Phase_8,19,9999,9999,9999,927950952
749,22,Ticks_Phase_8,20,9999,9999,9999,928750672
749,22,Ticks_Phase_8,21,9999,9999,9999,929550408
749,22,Ticks_Phase_8,22,9999,9999,9999,930350192
749,22,Ticks_Phase_8,23,9999,9999,9999,931150952
749,22,Ticks_Phase_8,24,9999,9999,9999,931950664
749,22,Ticks_Phase_8,25,9999,9999,9999,932750444
749,22,Ticks_Phase_8,26,9999,9999,9999,933550156
749,22,Ticks_Phase_8,27,9999,9999,9999,934350920
749,22,Ticks_Phase_8,28,9999,9999,9999,935150700
749,22,Ticks_Phase_8,29,9999,9999,9999,935950436
749,22,Ticks_Phase_8,30,9999,9999,9999,936730676
749,22,Ticks_Phase_8,31,9999,9999,9999,937530464
749,22,Ticks_Phase_8,32,9999,9999,9999,938330176
749,22,Ticks_Phase_8,33,9999,9999,9999,939130940
749,22,Ticks_Phase_8,34,9999,9999,9999,939930728
749,22,Ticks_Phase_8,35,9999,9999,9999,940730436
749,22,Ticks_Phase_8,36,9999,9999,9999,941530224
749,22,Ticks_Phase_8,37,9999,9999,9999,942330980
749,22,Ticks_Phase_8,38,9999,9999,9999,943130720
749,22,Ticks_Phase_8,39,9999,9999,9999,943930428
749,22,Ticks_Phase_8,40,9999,9999,9999,944730216
749,22,Ticks_Phase_8,41,9999,9999,9999,945530976
749,22,Ticks_Phase_8,42,9999,9999,9999,946330688
749,22,Ticks_Phase_8,43,9999,9999,9999,947130472
749,22,Ticks_Phase_8,44,9999,9999,9999,947930184
749,22,Ticks_Phase_8,45,9999,9999,9999,948730940
749,22,Ticks_Phase_8,46,9999,9999,9999,949530676
749,22,Ticks_Phase_8,47,9999,9999,9999,950330496
749,22,Ticks_Phase_8,48,9999,9999,9999,951150696
749,22,Ticks_Phase_8,49,9999,9999,9999,951950408
749,22,Ticks_Phase_8,50,9999,9999,9999,952750196
749,22,Ticks_Phase_8,51,9999,9999,9999,953550952
749,22,Ticks_Phase_8,52,9999,9999,9999,954350668
749,22,Ticks_Phase_8,53,9999,9999,9999,955150408
749,22,Ticks_Phase_8,54,9999,9999,9999,955950184
749,22,Ticks_Phase_8,55,9999,9999,9999,956750944
749,22,Ticks_Phase_8,56,9999,9999,9999,957550656
749,22,Ticks_Phase_8,57,9999,9999,9999,958350448
749,22,Ticks_Phase_8,58,9999,9999,9999,959150156
749,22,Ticks_Phase_8,59,9999,9999,9999,959950912
749,22,Ticks_Phase_8,60,9999,9999,9999,960750704
749,22,Ticks_Phase_8,61,9999,9999,9999,961550400
749,22,Ticks_Phase_8,62,9999,9999,9999,962350148
749,22,Ticks_Phase_8,63,9999,9999,9999,963150908
749,22,Ticks_Phase_8,64,9999,9999,9999,963990608
749,22,Ticks_Phase_8,65,9999,9999,9999,964790396
749,22,Ticks_Phase_8,66,9999,9999,9999,965590108
749,22,Ticks_Phase_8,67,9999,9999,9999,966390864
749,22,Ticks_Phase_8,68,9999,9999,9999,967190608
749,22,Ticks_Phase_8,69,9999,9999,9999,967990396
749,22,Ticks_Phase_8,70,9999,9999,9999,968790108
749,22,Ticks_Phase_8,71,9999,9999,9999,969590860
749,22,Ticks_Phase_8,72,9999,9999,9999,970390644
749,22,Ticks_Phase_8,73,9999,9999,9999,971190356
749,22,Ticks_Phase_8,74,9999,9999,9999,971990140
749,22,Ticks_Phase_8,75,9999,9999,9999,972790900
749,22,Ticks_Phase_8,76,9999,9999,9999,973590636
749,22,Ticks_Phase_8,77,9999,9999,9999,974390356
749,22,Ticks_Phase_8,78,9999,9999,9999,975190140
749,22,Ticks_Phase_8,79,9999,9999,9999,975990900
749,22,Ticks_Phase_8,80,9999,9999,9999,976790604
749,22,Ticks_Phase_8,81,9999,9999,9999,977550408
749,22,Ticks_Phase_8,82,9999,9999,9999,978350196
749,22,Ticks_Phase_8,83,9999,9999,9999,979150948
749,22,Ticks_Phase_8,84,9999,9999,9999,979950660
749,22,Ticks_Phase_8,85,9999,9999,9999,980750400
749,22,Ticks_Phase_8,86,9999,9999,9999,981550184
749,22,Ticks_Phase_8,87,9999,9999,9999,982350944
749,22,Ticks_Phase_8,88,9999,9999,9999,983150656
749,22,Ticks_Phase_8,89,9999,9999,9999,983950444
749,22,Ticks_Phase_8,90,9999,9999,9999,984750160
749,22,Ticks_Phase_8,91,9999,9999,9999,985550924
749,22,Ticks_Phase_8,92,9999,9999,9999,986350712
749,22,Ticks_Phase_8,93,9999,9999,9999,987150448
749,22,Ticks_Phase_8,94,9999,9999,9999,987950160
749,22,Ticks_Phase_8,95,9999,9999,9999,988750912
749,22,Ticks_Phase_8,96,9999,9999,9999,989550708
749,22,Ticks_Phase_8,97,9999,9999,9999,990270564
749,22,Ticks_Phase_8,98,9999,9999,9999,991070272
749,22,Ticks_Phase_8,99,9999,9999,9999,991871100
749,22,Ticks_Phase_8,100,9999,9999,9999,992670812
749,22,Ticks_Phase_8,101,9999,9999,9999,993470524
749,22,Ticks_Phase_8,102,9999,9999,9999,994270312
749,22,Ticks_Phase_8,103,9999,9999,9999,995071096
749,22,Ticks_Phase_8,104,9999,9999,9999,995870808
749,22,Ticks_Phase_8,105,9999,9999,9999,996670520
749,22,Ticks_Phase_8,106,9999,9999,9999,997470304
749,22,Ticks_Phase_8,107,9999,9999,9999,998271064
749,22,Ticks_Phase_8,108,9999,9999,9999,999070776
749,22,Ticks_Phase_8,109,9999,9999,9999,999870564
749,22,Ticks_Phase_8,110,9999,9999,9999,1000670276
749,22,Ticks_Phase_8,111,9999,9999,9999,1001471064
749,22,Ticks_Phase_8,112,9999,9999,9999,1002270776
749,22,Ticks_Phase_8,113,9999,9999,9999,1003070560
749,22,Ticks_Phase_8,114,9999,9999,9999,1003950176
749,22,Ticks_Phase_8,115,9999,9999,9999,1004750936
749,22,Ticks_Phase_8,116,9999,9999,9999,1005550652
749,22,Ticks_Phase_8,117,9999,9999,9999,1006350392
749,22,Ticks_Phase_8,118,9999,9999,9999,1007150176
749,22,Ticks_Phase_8,119,9999,9999,9999,1007950936
749,22,Ticks_Phase_8,120,9999,9999,9999,1008750648
749,22,Ticks_Phase_8,121,9999,9999,9999,1009550432
749,22,Ticks_Phase_8,122,9999,9999,9999,1010350144
749,22,Ticks_Phase_8,123,9999,9999,9999,1011150968
749,22,Ticks_Phase_8,124,9999,9999,9999,1011950688
749,22,Ticks_Phase_8,125,9999,9999,9999,1012750424
749,22,Ticks_Phase_8,126,9999,9999,9999,1013550136
749,22,Ticks_Phase_8,127,9999,9999,9999,1014350960
749,22,Ticks_Phase_8,128,9999,9999,9999,1015150672
749,22,Ticks_Phase_8,129,9999,9999,9999,1015950460
749,22,Ticks_Phase_8,130,9999,9999,9999,1016750172
749,22,Ticks_Phase_8,131,9999,9999,9999,1017710672
749,22,Ticks_Phase_8,132,9999,9999,9999,1018510408
749,22,Ticks_Phase_8,133,9999,9999,9999,1019310196
749,22,Ticks_Phase_8,134,9999,9999,9999,1020110956
749,22,Ticks_Phase_8,135,9999,9999,9999,1020910660
749,22,Ticks_Phase_8,136,9999,9999,9999,1021710400
749,22,Ticks_Phase_8,137,9999,9999,9999,1022510136
749,22,Ticks_Phase_8,138,9999,9999,9999,1023310960
749,22,Ticks_Phase_8,139,9999,9999,9999,1024110672
749,22,Ticks_Phase_8,140,9999,9999,9999,1024910460
749,22,Ticks_Phase_8,141,9999,9999,9999,1025710172
749,22,Ticks_Phase_8,142,9999,9999,9999,1026510928
749,22,Ticks_Phase_8,143,9999,9999,9999,1027310712
749,22,Ticks_Phase_8,144,9999,9999,9999,1028110460
749,22,Ticks_Phase_8,145,9999,9999,9999,1028910172
749,22,Ticks_Phase_8,146,9999,9999,9999,1029710928
749,22,Ticks_Phase_8,147,9999,9999,9999,1030510712
749,22,Ticks_Phase_8,148,9999,9999,9999,1031310428
749,22,Ticks_Phase_8,149,9999,9999,9999,1032110136
749,22,Ticks_Phase_8,150,9999,9999,9999,1032750196
749,22,Ticks_Phase_8,151,9999,9999,9999,1033550948
749,22,Ticks_Phase_8,152,9999,9999,9999,1034350660
749,22,Ticks_Phase_8,153,9999,9999,9999,1035150448
749,22,Ticks_Phase_8,154,9999,9999,9999,1035950164
749,22,Ticks_Phase_8,155,9999,9999,9999,1036750916
749,22,Ticks_Phase_8,156,9999,9999,9999,1037550712
749,22,Ticks_Phase_8,157,9999,9999,9999,1038350448
749,22,Ticks_Phase_8,158,9999,9999,9999,1039150152
749,22,Ticks_Phase_8,159,9999,9999,9999,1039950908
749,22,Ticks_Phase_8,160,9999,9999,9999,1040750700
749,22,Ticks_Phase_8,161,9999,9999,9999,1041550408
749,22,Ticks_Phase_8,162,9999,9999,9999,1042350192
749,22,Ticks_Phase_8,163,9999,9999,9999,1043150952
749,22,Ticks_Phase_8,164,9999,9999,9999,1043950668
749,22,Ticks_Phase_8,165,9999,9999,9999,1044750408
749,22,Ticks_Phase_8,166,9999,9999,9999,1045550192
749,22,Ticks_Phase_8,167,9999,9999,9999,1046350952
749,22,Ticks_Phase_8,168,9999,9999,9999,1047150656
749,22,Ticks_Phase_8,169,9999,9999,9999,1047950444
7410,23,Ticks_Phase_5,0,5,42,127,1059571028
7410,23,Ticks_Phase_5,1,5,42,127,1060070888
7410,23,Ticks_Phase_5,2,1,48,37,1060262748
7410,23,Ticks_Phase_5,3,5,42,127,1060570428
7410,23,Ticks_Phase_5,4,1,48,30,1060643068
7410,23,Ticks_Phase_5,5,5,42,127,1061071088
7410,23,Ticks_Phase_5,6,1,48,35,1061076300
7410,23,Ticks_Phase_5,7,5,42,127,1061570924
7410,23,Ticks_Phase_5,8,1,48,33,1061606388
7410,23,Ticks_Phase_5,9,5,42,127,1062070612
7410,23,Ticks_Phase_5,10,1,48,36,1062091628
7410,23,Ticks_Phase_5,11,5,42,127,1062571272
7410,23,Ticks_Phase_5,12,1,48,38,1062607264
7410,23,Ticks_Phase_5,13,5,42,127,1063071036
7410,23,Ticks_Phase_5,14,1,48,26,1063098336
7410,23,Ticks_Phase_5,15,5,42,127,1063570724
7410,23,Ticks_Phase_5,16,1,48,34,1063593388
7410,23,Ticks_Phase_5,17,5,42,127,1064070708
7410,23,Ticks_Phase_5,18,1,48,29,1064087008
7410,23,Ticks_Phase_5,19,5,42,127,1064571220
7410,23,Ticks_Phase_5,20,1,48,32,1064590448
7410,23,Ticks_Phase_5,21,5,42,127,1065070912
7410,23,Ticks_Phase_5,22,1,48,31,1065074252
7410,23,Ticks_Phase_5,23,1,48,35,1065554232
7410,23,Ticks_Phase_5,24,5,42,127,1065570888
7410,23,Ticks_Phase_5,25,1,48,28,1066064852
7410,23,Ticks_Phase_5,26,5,42,127,1066071400
7410,23,Ticks_Phase_5,27,5,42,127,1066571096
7410,23,Ticks_Phase_5,28,1,48,32,1066582384
7410,23,Ticks_Phase_5,29,5,42,127,1067070860
7410,23,Ticks_Phase_5,30,1,48,31,1067074952
7410,23,Ticks_Phase_5,31,1,48,23,1067566540
7410,23,Ticks_Phase_5,32,5,42,127,1067570764
7410,23,Ticks_Phase_5,33,5,42,127,1068071356
7410,23,Ticks_Phase_5,34,1,48,30,1068086756
7410,23,Ticks_Phase_5,35,1,48,27,1068566664
7410,23,Ticks_Phase_5,36,5,42,127,1068570964
7410,23,Ticks_Phase_5,37,5,42,127,1069070884
7410,23,Ticks_Phase_5,38,1,48,26,1069089812
7410,23,Ticks_Phase_5,39,1,48,35,1069542128
7410,23,Ticks_Phase_5,40,5,42,127,1069570492
7410,23,Ticks_Phase_5,41,1,48,25,1070067124
7410,23,Ticks_Phase_5,42,5,42,127,1070071128
7410,23,Ticks_Phase_5,43,5,42,127,1070570972
7410,23,Ticks_Phase_5,44,1,48,30,1070584596
7410,23,Ticks_Phase_5,45,1,48,27,1071058484
7410,23,Ticks_Phase_5,46,5,42,127,1071070800
7410,23,Ticks_Phase_5,47,1,48,18,1071563124
7410,23,Ticks_Phase_5,48,5,42,127,1071571240
7410,23,Ticks_Phase_5,49,1,48,25,1072060264
7410,23,Ticks_Phase_5,50,5,42,127,1072071004
7410,23,Ticks_Phase_5,51,1,48,28,1072553212
7410,23,Ticks_Phase_5,52,5,42,127,1072570840
7410,23,Ticks_Phase_5,53,1,48,21,1073039724
7410,23,Ticks_Phase_5,54,5,42,127,1073070380
7410,23,Ticks_Phase_5,55,1,48,29,1073559404
7410,23,Ticks_Phase_5,56,5,42,127,1073571336
7410,23,Ticks_Phase_5,57,1,48,37,1074064780
7410,23,Ticks_Phase_5,58,5,42,127,1074070876
7410,23,Ticks_Phase_5,59,5,42,127,1074561360
7410,23,Ticks_Phase_5,60,1,48,24,1074611516
7410,23,Ticks_Phase_5,61,5,42,127,1075061048
7410,23,Ticks_Phase_5,62,1,48,30,1075082212
7410,23,Ticks_Phase_5,63,1,48,35,1075557404
7410,23,Ticks_Phase_5,64,5,42,127,1075560956
7410,23,Ticks_Phase_5,65,1,48,25,1076040024
7410,23,Ticks_Phase_5,66,5,42,127,1076060492
7410,23,Ticks_Phase_5,67,1,48,31,1076541956
7410,23,Ticks_Phase_5,68,5,42,127,1076561304
7410,23,Ticks_Phase_5,69,1,48,31,1077044336
7410,23,Ticks_Phase_5,70,5,42,127,1077060916
7410,23,Ticks_Phase_5,71,1,48,28,1077545664
7410,23,Ticks_Phase_5,72,5,42,127,1077560752
7410,23,Ticks_Phase_5,73,1,48,26,1078046328
7410,23,Ticks_Phase_5,74,5,42,127,1078061564
7410,23,Ticks_Phase_5,75,1,48,24,1078548948
7410,23,Ticks_Phase_5,76,5,42,127,1078571508
7410,23,Ticks_Phase_5,77,1,48,27,1079032752
7410,23,Ticks_Phase_5,78,5,42,127,1079071052
7410,23,Ticks_Phase_5,79,1,48,31,1079542600
7410,23,Ticks_Phase_5,80,5,42,127,1079570740
7410,23,Ticks_Phase_5,81,1,48,28,1080015400
7410,23,Ticks_Phase_5,82,5,42,127,1080070724
7410,23,Ticks_Phase_5,83,1,48,16,1080571840
7410,23,Ticks_Phase_5,84,5,42,127,1080573032
7410,23,Ticks_Phase_5,85,5,42,127,1081070908
7410,23,Ticks_Phase_5,86,1,48,25,1081089040
7410,23,Ticks_Phase_5,87,1,48,35,1081566660
7410,23,Ticks_Phase_5,88,5,42,127,1081570812
7410,23,Ticks_Phase_5,89,5,42,127,1082071556
7410,23,Ticks_Phase_5,90,1,48,16,1082081792
7410,23,Ticks_Phase_5,91,5,42,127,1082571316
7410,23,Ticks_Phase_5,92,1,48,34,1082572280
7410,23,Ticks_Phase_5,93,5,42,127,1083070784
7410,23,Ticks_Phase_5,94,1,48,30,1083093964
7410,23,Ticks_Phase_5,95,5,42,127,1083580656
7410,23,Ticks_Phase_5,96,1,48,40,1083611708
7410,23,Ticks_Phase_5,97,1,48,38,1084064572
7410,23,Ticks_Phase_5,98,5,42,127,1084080632
7410,23,Ticks_Phase_5,99,1,48,35,1084575944
7410,23,Ticks_Phase_5,100,5,42,127,1084581368
7410,23,Ticks_Phase_5,101,5,42,127,1085080992
7410,23,Ticks_Phase_5,102,1,48,25,1085110552
7410,23,Ticks_Phase_5,103,5,42,127,1085580604
7410,23,Ticks_Phase_5,104,1,48,35,1085602296
7410,23,Ticks_Phase_5,105,1,48,41,1086056132
7410,23,Ticks_Phase_5,106,5,42,127,1086081408
7410,23,Ticks_Phase_5,107,1,48,26,1086574320
7410,23,Ticks_Phase_5,108,5,42,127,1086581096
7410,23,Ticks_Phase_5,109,5,42,127,1087080716
7410,23,Ticks_Phase_5,110,1,48,21,1087104424
7410,23,Ticks_Phase_5,111,1,48,40,1087569964
7410,23,Ticks_Phase_5,112,5,42,127,1087580620
7410,23,Ticks_Phase_5,113,5,42,127,1088081360
7410,23,Ticks_Phase_5,114,5,42,127,1088581144
7410,23,Ticks_Phase_5,115,1,48,35,1088583816
7410,23,Ticks_Phase_5,116,1,48,37,1089069272
7410,23,Ticks_Phase_5,117,5,42,127,1089080604
7410,23,Ticks_Phase_5,118,1,48,37,1089580060
7410,23,Ticks_Phase_5,119,5,42,127,1089581560
7410,23,Ticks_Phase_5,120,1,48,23,1090083616
7410,23,Ticks_Phase_5,121,5,42,127,1090091512
7410,23,Ticks_Phase_5,122,5,42,127,1090591060
7410,23,Ticks_Phase_5,123,1,48,36,1090604140
7410,23,Ticks_Phase_5,124,1,48,39,1091053840
7410,23,Ticks_Phase_5,125,5,42,127,1091090888
7410,23,Ticks_Phase_5,126,5,42,127,1091611104
7410,23,Ticks_Phase_5,127,5,42,127,1092110740
7410,23,Ticks_Phase_5,128,5,42,127,1092610376
7410,23,Ticks_Phase_5,129,1,48,35,1092617384
7410,23,Ticks_Phase_5,130,5,42,127,1093111556
7410,23,Ticks_Phase_5,131,1,48,19,1093131828
7410,23,Ticks_Phase_5,132,1,48,40,1093589696
7410,23,Ticks_Phase_5,133,5,42,127,1093610840
7410,23,Ticks_Phase_5,134,1,48,25,1094067132
7410,23,Ticks_Phase_5,135,5,42,127,1094110528
7410,23,Ticks_Phase_5,136,1,48,42,1094582776
7410,23,Ticks_Phase_5,137,5,42,127,1094611264
7410,23,Ticks_Phase_5,138,5,42,127,1095110960
7410,23,Ticks_Phase_5,139,1,48,24,1095130408
7410,23,Ticks_Phase_5,140,1,48,36,1095584172
7410,23,Ticks_Phase_5,141,5,42,127,1095610864
7410,23,Ticks_Phase_5,142,5,42,127,1096110480
7410,23,Ticks_Phase_5,143,1,48,29,1096597416
7410,23,Ticks_Phase_5,144,5,42,127,1096611308
7410,23,Ticks_Phase_5,145,1,48,41,1097106388
7410,23,Ticks_Phase_5,146,5,42,127,1097110848
7410,23,Ticks_Phase_5,147,5,42,127,1097610540
7410,23,Ticks_Phase_5,148,1,48,35,1097619352
7410,23,Ticks_Phase_5,149,1,48,38,1098110068
7410,23,Ticks_Phase_5,150,5,42,127,1098111564
7410,23,Ticks_Phase_5,151,1,48,41,1098606128
7410,23,Ticks_Phase_5,152,5,42,127,1098611032
7410,23,Ticks_Phase_5,153,1,48,38,1099102528
7410,23,Ticks_Phase_5,154,5,42,127,1099110720
7410,23,Ticks_Phase_5,155,1,48,39,1099608444
7410,23,Ticks_Phase_5,156,5,42,127,1099610556
7410,23,Ticks_Phase_5,157,1,48,40,1100039972
7410,23,Ticks_Phase_5,158,5,42,127,1100090700
7410,23,Ticks_Phase_5,159,5,42,127,1100590544
7410,23,Ticks_Phase_5,160,1,48,33,1100603624
7410,23,Ticks_Phase_5,161,1,48,41,1101086444
7410,23,Ticks_Phase_5,162,5,42,127,1101091272
7410,23,Ticks_Phase_5,163,5,42,127,1101590892
7410,23,Ticks_Phase_5,164,1,48,43,1101608904
7410,23,Ticks_Phase_5,165,1,48,37,1102057716
7410,23,Ticks_Phase_5,166,5,42,127,1102090576
7410,23,Ticks_Phase_5,167,1,48,32,1102551048
7410,23,Ticks_Phase_5,168,5,42,127,1102591312
7410,23,Ticks_Phase_5,169,1,48,38,1103070804
7410,23,Ticks_Phase_5,170,5,42,127,1103091272
7410,23,Ticks_Phase_5,171,5,42,127,1103590892
7410,23,Ticks_Phase_5,172,1,48,19,1103614256
7410,23,Ticks_Phase_5,173,1,48,31,1104073316
7410,23,Ticks_Phase_5,174,5,42,127,1104090424
7410,23,Ticks_Phase_5,175,1,48,39,1104546564
7410,23,Ticks_Phase_5,176,5,42,127,1104591308
7410,23,Ticks_Phase_5,177,1,48,41,1105055540
7410,23,Ticks_Phase_5,178,5,42,127,1105090920
7410,23,Ticks_Phase_5,179,1,48,42,1105555604
7410,23,Ticks_Phase_5,180,5,42,127,1105590684
7410,23,Ticks_Phase_5,181,1,48,43,1106051996
7410,23,Ticks_Phase_5,182,5,42,127,1106091420
7410,23,Ticks_Phase_5,183,1,48,42,1106571684
7410,23,Ticks_Phase_5,184,5,42,127,1106591256
7410,23,Ticks_Phase_5,185,1,48,39,1107059688
7410,23,Ticks_Phase_5,186,5,42,127,1107090796
7410,23,Ticks_Phase_5,187,1,48,36,1107568280
7410,23,Ticks_Phase_5,188,5,42,127,1107590560
7410,23,Ticks_Phase_5,189,5,42,127,1108041204
7410,23,Ticks_Phase_5,190,1,48,38,1108087528
7410,23,Ticks_Phase_5,191,5,42,127,1108540668
7410,23,Ticks_Phase_5,192,1,48,26,1108566548
7410,23,Ticks_Phase_5,193,1,48,31,1109032528
7410,23,Ticks_Phase_5,194,5,42,127,1109040424
7410,23,Ticks_Phase_5,195,1,48,34,1109520912
7410,23,Ticks_Phase_5,196,5,42,127,1109541232
7410,23,Ticks_Phase_5,197,1,48,35,1110038484
7410,23,Ticks_Phase_5,198,5,42,127,1110041144
7410,23,Ticks_Phase_5,199,1,48,30,1110539632
7410,23,Ticks_Phase_5,200,5,42,127,1110541128
7410,23,Ticks_Phase_5,201,5,42,127,1111041276
7410,23,Ticks_Phase_5,202,1,48,21,1111045292
7410,23,Ticks_Phase_5,203,5,42,127,1111541088
7410,23,Ticks_Phase_5,204,1,48,27,1111567520
7410,23,Ticks_Phase_5,205,1,48,35,1112021344
7410,23,Ticks_Phase_5,206,5,42,127,1112040916
7410,23,Ticks_Phase_5,207,5,42,127,1112540464
7410,23,Ticks_Phase_5,208,1,48,29,1112548980
7410,23,Ticks_Phase_5,209,1,48,23,1113033372
7410,23,Ticks_Phase_5,210,5,42,127,1113041268
7410,23,Ticks_Phase_5,211,1,48,38,1113526396
7410,23,Ticks_Phase_5,212,5,42,127,1113541176
7410,23,Ticks_Phase_5,213,1,48,31,1114027056
7410,23,Ticks_Phase_5,214,5,42,127,1114041016
7410,23,Ticks_Phase_5,215,1,48,27,1114525992
7410,23,Ticks_Phase_5,216,5,42,127,1114541376
7410,23,Ticks_Phase_5,217,1,48,32,1115017444
7410,23,Ticks_Phase_5,218,5,42,127,1115051324
7410,23,Ticks_Phase_5,219,1,48,16,1115540880
7410,23,Ticks_Phase_5,220,5,42,127,1115551088
7410,23,Ticks_Phase_5,221,5,42,127,1116050932
7410,23,Ticks_Phase_5,222,1,48,22,1116079520
7410,23,Ticks_Phase_5,223,1,48,28,1116518544
7410,23,Ticks_Phase_5,224,5,42,127,1116600640
7410,23,Ticks_Phase_5,225,5,42,127,1117101532
7410,23,Ticks_Phase_5,226,1,48,22,1117113640
7410,23,Ticks_Phase_5,227,1,48,30,1117591080
7410,23,Ticks_Phase_5,228,5,42,127,1117611472
7410,23,Ticks_Phase_5,229,1,48,27,1118097624
7410,23,Ticks_Phase_5,230,5,42,127,1118111212
7410,23,Ticks_Phase_5,231,5,42,127,1118610984
7410,23,Ticks_Phase_5,232,1,48,18,1118621968
7410,23,Ticks_Phase_5,233,1,48,40,1119100452
7410,23,Ticks_Phase_5,234,5,42,127,1119110588
7410,23,Ticks_Phase_5,235,5,42,127,1119611180
7410,23,Ticks_Phase_5,236,1,48,32,1119646496
7410,23,Ticks_Phase_5,237,1,48,22,1120108976
7410,23,Ticks_Phase_5,238,5,42,127,1120111012
7410,23,Ticks_Phase_5,239,1,48,28,1120601980
7410,23,Ticks_Phase_5,240,5,42,127,1120610552
7410,23,Ticks_Phase_5,241,1,48,36,1121070968
7410,23,Ticks_Phase_5,242,5,42,127,1121111508
7410,23,Ticks_Phase_5,243,1,48,38,1121595440
7410,23,Ticks_Phase_5,244,5,42,127,1121611196
7410,23,Ticks_Phase_5,245,1,48,25,1122106204
7410,23,Ticks_Phase_5,246,5,42,127,1122111108
7410,23,Ticks_Phase_5,247,1,48,34,1122609828
7410,23,Ticks_Phase_5,248,5,42,127,1122611324
7410,23,Ticks_Phase_5,249,1,48,20,1123111536
7410,23,Ticks_Phase_5,250,5,42,127,1123112800
7410,23,Ticks_Phase_5,251,1,48,28,1123600860
7410,23,Ticks_Phase_5,252,5,42,127,1123611144
7410,23,Ticks_Phase_5,253,5,42,127,1124110912
7410,23,Ticks_Phase_5,254,1,48,25,1124116728
7410,23,Ticks_Phase_5,255,5,42,127,1124610380
7410,23,Ticks_Phase_5,256,1,48,34,1125064420
7410,23,Ticks_Phase_5,257,5,42,127,1125210344
7410,23,Ticks_Phase_5,258,1,48,27,1125709056
7410,23,Ticks_Phase_5,259,5,42,127,1125711168
7410,23,Ticks_Phase_5,260,5,42,127,1126211012
7410,23,Ticks_Phase_5,261,1,48,17,1126261240
7410,23,Ticks_Phase_5,262,5,42,127,1126710776
7410,23,Ticks_Phase_5,263,1,48,29,1126723856
7410,23,Ticks_Phase_5,264,1,48,30,1127211064
7410,23,Ticks_Phase_5,265,5,42,127,1127212476
7410,23,Ticks_Phase_5,266,1,48,30,1127707636
7410,23,Ticks_Phase_5,267,5,42,127,1127711044
7410,23,Ticks_Phase_5,268,1,48,32,1128209984
7410,23,Ticks_Phase_5,269,5,42,127,1128211556
7410,23,Ticks_Phase_5,270,5,42,127,1128710428
7410,23,Ticks_Phase_5,271,1,48,28,1129206052
7410,23,Ticks_Phase_5,272,5,42,127,1129211176
7410,23,Ticks_Phase_5,273,1,48,34,1129688036
7410,23,Ticks_Phase_5,274,5,42,127,1129710988
7410,23,Ticks_Phase_5,275,1,48,25,1130204432
7410,23,Ticks_Phase_5,276,5,42,127,1130210752
7410,23,Ticks_Phase_5,277,1,48,30,1130702248
7410,23,Ticks_Phase_5,278,5,42,127,1130711264
7410,23,Ticks_Phase_5,279,1,48,19,1131194596
7410,23,Ticks_Phase_5,280,5,42,127,1131211104
7410,23,Ticks_Phase_5,281,1,48,33,1131691816
7410,23,Ticks_Phase_5,282,5,42,127,1131710864
7410,23,Ticks_Phase_5,283,1,48,27,1132189788
7410,23,Ticks_Phase_5,284,5,42,127,1132210704
7410,23,Ticks_Phase_5,285,1,48,28,1132660120
7410,23,Ticks_Phase_5,286,5,42,127,1132711292
7410,23,Ticks_Phase_5,287,1,48,27,1133197236
7410,23,Ticks_Phase_5,288,5,42,127,1133210904
7410,23,Ticks_Phase_5,289,1,48,31,1133689520
7410,23,Ticks_Phase_5,290,5,42,127,1133710964
7410,23,Ticks_Phase_5,291,1,48,26,1134190932
7410,23,Ticks_Phase_5,292,5,42,127,1134210356
7410,23,Ticks_Phase_5,293,5,42,127,1134610748
7410,23,Ticks_Phase_5,294,1,48,26,1134690180
7410,23,Ticks_Phase_5,295,5,42,127,1135110364
7410,23,Ticks_Phase_5,296,1,48,25,1135155188
7410,23,Ticks_Phase_5,297,5,42,127,1135611248
7410,23,Ticks_Phase_5,298,1,48,21,1135629272
7410,23,Ticks_Phase_5,299,5,42,127,1136110836
7410,23,Ticks_Phase_5,300,1,48,22,1136113428
7410,23,Ticks_Phase_5,301,1,48,33,1136583004
7410,23,Ticks_Phase_5,302,5,42,127,1136610888
7410,23,Ticks_Phase_5,303,5,42,127,1137111408
7410,23,Ticks_Phase_5,304,1,48,18,1137578276
7410,23,Ticks_Phase_5,305,5,42,127,1137611036
7410,23,Ticks_Phase_5,306,1,48,27,1138082388
7410,23,Ticks_Phase_5,307,5,42,127,1138110952
7410,23,Ticks_Phase_5,308,1,48,34,1138597200
7410,23,Ticks_Phase_5,309,5,42,127,1138610716
7410,23,Ticks_Phase_5,310,1,48,27,1139099144
7410,23,Ticks_Phase_5,311,5,42,127,1139111152
7410,23,Ticks_Phase_5,312,1,48,36,1139600856
7410,23,Ticks_Phase_5,313,5,42,127,1139610916
7410,23,Ticks_Phase_5,314,5,42,127,1140110684
7410,23,Ticks_Phase_5,315,1,48,26,1140124060
7410,23,Ticks_Phase_5,316,1,48,35,1140573268
7410,23,Ticks_Phase_5,317,5,42,127,1140610440
7410,23,Ticks_Phase_5,318,1,48,24,1141067480
7410,23,Ticks_Phase_5,319,5,42,127,1141111176
7410,23,Ticks_Phase_5,320,1,48,27,1141576084
7410,23,Ticks_Phase_5,321,5,42,127,1141610792
7410,23,Ticks_Phase_5,322,1,48,37,1142102736
7410,23,Ticks_Phase_5,323,5,42,127,1142110556
7410,23,Ticks_Phase_5,324,5,42,127,1142611444
7410,23,Ticks_Phase_5,325,1,48,35,1142619368
7410,23,Ticks_Phase_5,326,5,42,127,1143110984
7410,23,Ticks_Phase_5,327,1,48,22,1143119500
7410,23,Ticks_Phase_5,328,1,48,38,1143596332
7410,23,Ticks_Phase_5,329,5,42,127,1143610744
7410,23,Ticks_Phase_5,330,5,42,127,1144110660
7410,23,Ticks_Phase_5,0,9999,9999,9999,1059568744
7410,23,Ticks_Phase_5,1,9999,9999,9999,1060068452
7410,23,Ticks_Phase_5,2,9999,9999,9999,1060568140
7410,23,Ticks_Phase_5,3,9999,9999,9999,1061068876
7410,23,Ticks_Phase_5,4,9999,9999,9999,1061568636
7410,23,Ticks_Phase_5,5,9999,9999,9999,1062068324
7410,23,Ticks_Phase_5,6,9999,9999,9999,1062569060
7410,23,Ticks_Phase_5,7,9999,9999,9999,1063068748
7410,23,Ticks_Phase_5,8,9999,9999,9999,1063568440
7410,23,Ticks_Phase_5,9,9999,9999,9999,1064068200
7410,23,Ticks_Phase_5,10,9999,9999,9999,1064568936
7410,23,Ticks_Phase_5,11,9999,9999,9999,1065068624
7410,23,Ticks_Phase_5,12,9999,9999,9999,1065568380
7410,23,Ticks_Phase_5,13,9999,9999,9999,1066069116
7410,23,Ticks_Phase_5,14,9999,9999,9999,1066568808
7410,23,Ticks_Phase_5,15,9999,9999,9999,1067068500
7410,23,Ticks_Phase_5,16,9999,9999,9999,1067568180
7410,23,Ticks_Phase_5,17,9999,9999,9999,1068068920
7410,23,Ticks_Phase_5,18,9999,9999,9999,1068568680
7410,23,Ticks_Phase_5,19,9999,9999,9999,1069068372
7410,23,Ticks_Phase_5,20,9999,9999,9999,1069568056
7410,23,Ticks_Phase_5,21,9999,9999,9999,1070068840
7410,23,Ticks_Phase_5,22,9999,9999,9999,1070568536
7410,23,Ticks_Phase_5,23,9999,9999,9999,1071068216
7410,23,Ticks_Phase_5,24,9999,9999,9999,1071568952
7410,23,Ticks_Phase_5,25,9999,9999,9999,1072068716
7410,23,Ticks_Phase_5,26,9999,9999,9999,1072568404
7410,23,Ticks_Phase_5,27,9999,9999,9999,1073068092
7410,23,Ticks_Phase_5,28,9999,9999,9999,1073568828
7410,23,Ticks_Phase_5,29,9999,9999,9999,1074068592
7410,23,Ticks_Phase_5,30,9999,9999,9999,1074559072
7410,23,Ticks_Phase_5,31,9999,9999,9999,1075058760
7410,23,Ticks_Phase_5,32,9999,9999,9999,1075558520
7410,23,Ticks_Phase_5,33,9999,9999,9999,1076058208
7410,23,Ticks_Phase_5,34,9999,9999,9999,1076558940
7410,23,Ticks_Phase_5,35,9999,9999,9999,1077058632
7410,23,Ticks_Phase_5,36,9999,9999,9999,1077558392
7410,23,Ticks_Phase_5,37,9999,9999,9999,1078059128
7410,23,Ticks_Phase_5,38,9999,9999,9999,1078569072
7410,23,Ticks_Phase_5,39,9999,9999,9999,1079068764
7410,23,Ticks_Phase_5,40,9999,9999,9999,1079568456
7410,23,Ticks_Phase_5,41,9999,9999,9999,1080068216
7410,23,Ticks_Phase_5,42,9999,9999,9999,1080568956
7410,23,Ticks_Phase_5,43,9999,9999,9999,1081068620
7410,23,Ticks_Phase_5,44,9999,9999,9999,1081568376
7410,23,Ticks_Phase_5,45,9999,9999,9999,1082069120
7410,23,Ticks_Phase_5,46,9999,9999,9999,1082568804
7410,23,Ticks_Phase_5,47,9999,9999,9999,1083068496
7410,23,Ticks_Phase_5,48,9999,9999,9999,1083578444
7410,23,Ticks_Phase_5,49,9999,9999,9999,1084078200
7410,23,Ticks_Phase_5,50,9999,9999,9999,1084578932
7410,23,Ticks_Phase_5,51,9999,9999,9999,1085078628
7410,23,Ticks_Phase_5,52,9999,9999,9999,1085578316
7410,23,Ticks_Phase_5,53,9999,9999,9999,1086079044
7410,23,Ticks_Phase_5,54,9999,9999,9999,1086578808
7410,23,Ticks_Phase_5,55,9999,9999,9999,1087078504
7410,23,Ticks_Phase_5,56,9999,9999,9999,1087578184
7410,23,Ticks_Phase_5,57,9999,9999,9999,1088078924
7410,23,Ticks_Phase_5,58,9999,9999,9999,1088578636
7410,23,Ticks_Phase_5,59,9999,9999,9999,1089078392
7410,23,Ticks_Phase_5,60,9999,9999,9999,1089579132
7410,23,Ticks_Phase_5,61,9999,9999,9999,1090089076
7410,23,Ticks_Phase_5,62,9999,9999,9999,1090588772
7410,23,Ticks_Phase_5,63,9999,9999,9999,1091088452
7410,23,Ticks_Phase_5,64,9999,9999,9999,1091608668
7410,23,Ticks_Phase_5,65,9999,9999,9999,1092108380
7410,23,Ticks_Phase_5,66,9999,9999,9999,1092608088
7410,23,Ticks_Phase_5,67,9999,9999,9999,1093108800
7410,23,Ticks_Phase_5,68,9999,9999,9999,1093608552
7410,23,Ticks_Phase_5,69,9999,9999,9999,1094108244
7410,23,Ticks_Phase_5,70,9999,9999,9999,1094608976
7410,23,Ticks_Phase_5,71,9999,9999,9999,1095108672
7410,23,Ticks_Phase_5,72,9999,9999,9999,1095608428
7410,23,Ticks_Phase_5,73,9999,9999,9999,1096108120
7410,23,Ticks_Phase_5,74,9999,9999,9999,1096608872
7410,23,Ticks_Phase_5,75,9999,9999,9999,1097108560
7410,23,Ticks_Phase_5,76,9999,9999,9999,1097608252
7410,23,Ticks_Phase_5,77,9999,9999,9999,1098108988
7410,23,Ticks_Phase_5,78,9999,9999,9999,1098608744
7410,23,Ticks_Phase_5,79,9999,9999,9999,1099108432
7410,23,Ticks_Phase_5,80,9999,9999,9999,1099608156
7410,23,Ticks_Phase_5,81,9999,9999,9999,1100088412
7410,23,Ticks_Phase_5,82,9999,9999,9999,1100588108
7410,23,Ticks_Phase_5,83,9999,9999,9999,1101088840
7410,23,Ticks_Phase_5,84,9999,9999,9999,1101588608
7410,23,Ticks_Phase_5,85,9999,9999,9999,1102088288
7410,23,Ticks_Phase_5,86,9999,9999,9999,1102589024
7410,23,Ticks_Phase_5,87,9999,9999,9999,1103088760
7410,23,Ticks_Phase_5,88,9999,9999,9999,1103588456
7410,23,Ticks_Phase_5,89,9999,9999,9999,1104088136
7410,23,Ticks_Phase_5,90,9999,9999,9999,1104588872
7410,23,Ticks_Phase_5,91,9999,9999,9999,1105088636
7410,23,Ticks_Phase_5,92,9999,9999,9999,1105588324
7410,23,Ticks_Phase_5,93,9999,9999,9999,1106089056
7410,23,Ticks_Phase_5,94,9999,9999,9999,1106588744
7410,23,Ticks_Phase_5,95,9999,9999,9999,1107088508
7410,23,Ticks_Phase_5,96,9999,9999,9999,1107588196
7410,23,Ticks_Phase_5,97,9999,9999,9999,1108038764
7410,23,Ticks_Phase_5,98,9999,9999,9999,1108538456
7410,23,Ticks_Phase_5,99,9999,9999,9999,1109038136
7410,23,Ticks_Phase_5,100,9999,9999,9999,1109538872
7410,23,Ticks_Phase_5,101,9999,9999,9999,1110038632
7410,23,Ticks_Phase_5,102,9999,9999,9999,1110538328
7410,23,Ticks_Phase_5,103,9999,9999,9999,1111039064
7410,23,Ticks_Phase_5,104,9999,9999,9999,1111538800
7410,23,Ticks_Phase_5,105,9999,9999,9999,1112038484
7410,23,Ticks_Phase_5,106,9999,9999,9999,1112538176
7410,23,Ticks_Phase_5,107,9999,9999,9999,1113038908
7410,23,Ticks_Phase_5,108,9999,9999,9999,1113538668
7410,23,Ticks_Phase_5,109,9999,9999,9999,1114038356
7410,23,Ticks_Phase_5,110,9999,9999,9999,1114539092
7410,23,Ticks_Phase_5,111,9999,9999,9999,1115049040
7410,23,Ticks_Phase_5,112,9999,9999,9999,1115548728
7410,23,Ticks_Phase_5,113,9999,9999,9999,1116048496
7410,23,Ticks_Phase_5,114,9999,9999,9999,1116598352
7410,23,Ticks_Phase_5,115,9999,9999,9999,1117099096
7410,23,Ticks_Phase_5,116,9999,9999,9999,1117609040
7410,23,Ticks_Phase_5,117,9999,9999,9999,1118108776
7410,23,Ticks_Phase_5,118,9999,9999,9999,1118608472
7410,23,Ticks_Phase_5,119,9999,9999,9999,1119108152
7410,23,Ticks_Phase_5,120,9999,9999,9999,1119608896
7410,23,Ticks_Phase_5,121,9999,9999,9999,1120108604
7410,23,Ticks_Phase_5,122,9999,9999,9999,1120608340
7410,23,Ticks_Phase_5,123,9999,9999,9999,1121109072
7410,23,Ticks_Phase_5,124,9999,9999,9999,1121608760
7410,23,Ticks_Phase_5,125,9999,9999,9999,1122108524
7410,23,Ticks_Phase_5,126,9999,9999,9999,1122608220
7410,23,Ticks_Phase_5,127,9999,9999,9999,1123108952
7410,23,Ticks_Phase_5,128,9999,9999,9999,1123608636
7410,23,Ticks_Phase_5,129,9999,9999,9999,1124108404
7410,23,Ticks_Phase_5,130,9999,9999,9999,1124608092
7410,23,Ticks_Phase_5,131,9999,9999,9999,1125208132
7410,23,Ticks_Phase_5,132,9999,9999,9999,1125708920
7410,23,Ticks_Phase_5,133,9999,9999,9999,1126208576
7410,23,Ticks_Phase_5,134,9999,9999,9999,1126708340
7410,23,Ticks_Phase_5,135,9999,9999,9999,1127209072
7410,23,Ticks_Phase_5,136,9999,9999,9999,1127708756
7410,23,Ticks_Phase_5,137,9999,9999,9999,1128208452
7410,23,Ticks_Phase_5,138,9999,9999,9999,1128708212
7410,23,Ticks_Phase_5,139,9999,9999,9999,1129208892
7410,23,Ticks_Phase_5,140,9999,9999,9999,1129708628
7410,23,Ticks_Phase_5,141,9999,9999,9999,1130208316
7410,23,Ticks_Phase_5,142,9999,9999,9999,1130709052
7410,23,Ticks_Phase_5,143,9999,9999,9999,1131208816
7410,23,Ticks_Phase_5,144,9999,9999,9999,1131708504
7410,23,Ticks_Phase_5,145,9999,9999,9999,1132208196
7410,23,Ticks_Phase_5,146,9999,9999,9999,1132708928
7410,23,Ticks_Phase_5,147,9999,9999,9999,1133208692
7410,23,Ticks_Phase_5,148,9999,9999,9999,1133708380
7410,23,Ticks_Phase_5,149,9999,9999,9999,1134208068
7410,23,Ticks_Phase_5,150,9999,9999,9999,1134608464
7410,23,Ticks_Phase_5,151,9999,9999,9999,1135108152
7410,23,Ticks_Phase_5,152,9999,9999,9999,1135608888
7410,23,Ticks_Phase_5,153,9999,9999,9999,1136108624
7410,23,Ticks_Phase_5,154,9999,9999,9999,1136608380
7410,23,Ticks_Phase_5,155,9999,9999,9999,1137109048
7410,23,Ticks_Phase_5,156,9999,9999,9999,1137608824
7410,23,Ticks_Phase_5,157,9999,9999,9999,1138108516
7410,23,Ticks_Phase_5,158,9999,9999,9999,1138608204
7410,23,Ticks_Phase_5,159,9999,9999,9999,1139108940
7410,23,Ticks_Phase_5,160,9999,9999,9999,1139608628
7410,23,Ticks_Phase_5,161,9999,9999,9999,1140108396
7410,23,Ticks_Phase_5,162,9999,9999,9999,1140608080
7410,23,Ticks_Phase_5,163,9999,9999,9999,1141108816
7410,23,Ticks_Phase_5,164,9999,9999,9999,1141608504
7410,23,Ticks_Phase_5,165,9999,9999,9999,1142108268
7410,23,Ticks_Phase_5,166,9999,9999,9999,1142609008
7410,23,Ticks_Phase_5,167,9999,9999,9999,1143108696
7410,23,Ticks_Phase_5,168,9999,9999,9999,1143608380
7410,23,Ticks_Phase_5,169,9999,9999,9999,1144108148
7411,25,Jits_Pract_5,0,5,56,103,1194353128
7411,25,Jits_Pract_5,1,5,63,98,1194356152
7411,25,Jits_Pract_5,2,5,80,127,1194359200
7411,25,Jits_Pract_5,0,5,56,103,1194853008
7411,25,Jits_Pract_5,1,5,63,98,1194856028
7411,25,Jits_Pract_5,2,5,80,127,1194859076
7411,25,Jits_Pract_5,0,5,56,103,1195352372
7411,25,Jits_Pract_5,1,5,80,127,1195362940
7411,25,Jits_Pract_5,2,5,63,98,1195383104
7411,25,Jits_Pract_5,0,5,63,98,1195803044
7411,25,Jits_Pract_5,1,5,80,127,1195832796
7411,25,Jits_Pract_5,2,5,56,103,1195842916
7411,25,Jits_Pract_5,0,5,80,127,1196363084
7411,25,Jits_Pract_5,1,5,56,103,1196373428
7411,25,Jits_Pract_5,2,5,63,98,1196402956
7411,25,Jits_Pract_5,0,5,63,98,1196852864
7411,25,Jits_Pract_5,1,5,56,103,1196883364
7411,25,Jits_Pract_5,2,5,80,127,1196892512
7411,25,Jits_Pract_5,0,5,56,103,1197303224
7411,25,Jits_Pract_5,1,5,63,98,1197353204
7411,25,Jits_Pract_5,2,5,80,127,1197372840
7411,25,Jits_Pract_5,0,5,80,127,1197803016
7411,25,Jits_Pract_5,1,5,63,98,1197853244
7411,25,Jits_Pract_5,2,5,56,103,1197893032
7411,25,Jits_Pract_5,0,5,56,103,1198302536
7411,25,Jits_Pract_5,1,5,63,98,1198333360
7411,25,Jits_Pract_5,2,5,80,127,1198403036
7411,25,Jits_Pract_5,0,5,56,103,1198803180
7411,25,Jits_Pract_5,1,5,80,127,1198862920
7411,25,Jits_Pract_5,2,5,63,98,1198893420
7411,25,Jits_Pract_5,0,5,56,103,1199313188
7411,25,Jits_Pract_5,1,5,63,98,1199322336
7411,25,Jits_Pract_5,2,5,80,127,1199362300
7411,25,Jits_Pract_5,0,5,63,98,1199802888
7411,25,Jits_Pract_5,1,5,80,127,1199882712
7411,25,Jits_Pract_5,2,5,56,103,1199892980
7411,25,Jits_Pract_5,0,5,63,98,1200352816
7411,25,Jits_Pract_5,1,5,56,103,1200392556
7411,25,Jits_Pract_5,2,5,80,127,1200395696
7411,25,Jits_Pract_5,0,5,56,103,1200813504
7411,25,Jits_Pract_5,1,5,63,98,1200822652
7411,25,Jits_Pract_5,2,5,80,127,1200862736
7411,25,Jits_Pract_5,0,5,56,103,1201302976
7411,25,Jits_Pract_5,1,5,63,98,1201305972
7411,25,Jits_Pract_5,2,5,80,127,1201323364
7411,25,Jits_Pract_5,0,9999,9999,9999,1194600568
7411,25,Jits_Pract_5,1,9999,9999,9999,1195100220
7411,25,Jits_Pract_5,2,9999,9999,9999,1195601012
7411,25,Jits_Pract_5,3,9999,9999,9999,1196100680
7411,25,Jits_Pract_5,4,9999,9999,9999,1196600412
7411,25,Jits_Pract_5,5,9999,9999,9999,1197100088
7411,25,Jits_Pract_5,6,9999,9999,9999,1197600860
7411,25,Jits_Pract_5,7,9999,9999,9999,1198100604
7411,25,Jits_Pract_5,8,9999,9999,9999,1198600272
7411,25,Jits_Pract_5,9,9999,9999,9999,1199100992
7411,25,Jits_Pract_5,10,9999,9999,9999,1199600708
7411,25,Jits_Pract_5,11,9999,9999,9999,1200100452
7411,25,Jits_Pract_5,12,9999,9999,9999,1200600176
7411,25,Jits_Pract_5,13,9999,9999,9999,1201100876
7411,25,Jits_Pract_5,14,9999,9999,9999,1201600604
7412,24,Jits_Pract_8,0,5,56,103,1255001420
7412,24,Jits_Pract_8,1,5,63,98,1255004820
7412,24,Jits_Pract_8,2,5,80,127,1255007864
7412,24,Jits_Pract_8,0,5,56,103,1255802184
7412,24,Jits_Pract_8,1,5,63,98,1255805436
7412,24,Jits_Pract_8,2,5,80,127,1255808332
7412,24,Jits_Pract_8,0,5,80,127,1256541532
7412,24,Jits_Pract_8,1,1,48,14,1256578060
7412,24,Jits_Pract_8,2,5,63,98,1256631960
7412,24,Jits_Pract_8,3,5,56,103,1256642004
7412,24,Jits_Pract_8,0,5,56,103,1257361760
7412,24,Jits_Pract_8,1,1,48,20,1257372328
7412,24,Jits_Pract_8,2,5,63,98,1257373516
7412,24,Jits_Pract_8,3,5,80,127,1257462100
7412,24,Jits_Pract_8,0,5,63,98,1258132008
7412,24,Jits_Pract_8,1,1,48,19,1258134832
7412,24,Jits_Pract_8,2,5,80,127,1258161456
7412,24,Jits_Pract_8,3,5,56,103,1258192176
7412,24,Jits_Pract_8,0,1,48,21,1258892696
7412,24,Jits_Pract_8,1,5,56,103,1258931680
7412,24,Jits_Pract_8,2,5,80,127,1259031864
7412,24,Jits_Pract_8,3,5,63,98,1259082064
7412,24,Jits_Pract_8,0,1,48,21,1259732640
7412,24,Jits_Pract_8,1,5,56,103,1259733904
7412,24,Jits_Pract_8,2,5,80,127,1259781664
7412,24,Jits_Pract_8,3,5,63,98,1259821752
7412,24,Jits_Pract_8,0,1,48,23,1260486276
7412,24,Jits_Pract_8,1,5,80,127,1260561932
7412,24,Jits_Pract_8,2,5,63,98,1260591668
7412,24,Jits_Pract_8,3,5,56,103,1260662096
7412,24,Jits_Pract_8,0,1,48,23,1261302252
7412,24,Jits_Pract_8,1,5,63,98,1261392184
7412,24,Jits_Pract_8,2,5,56,103,1261421992
7412,24,Jits_Pract_8,3,5,80,127,1261482456
7412,24,Jits_Pract_8,0,5,56,103,1262131780
7412,24,Jits_Pract_8,1,1,48,23,1262132840
7412,24,Jits_Pract_8,2,5,80,127,1262135884
7412,24,Jits_Pract_8,3,5,63,98,1262252600
7412,24,Jits_Pract_8,0,1,48,25,1262917264
7412,24,Jits_Pract_8,1,5,56,103,1263012224
7412,24,Jits_Pract_8,2,5,80,127,1263052000
7412,24,Jits_Pract_8,3,5,63,98,1263062568
7412,24,Jits_Pract_8,0,1,48,25,1263749088
7412,24,Jits_Pract_8,1,5,56,103,1263771904
7412,24,Jits_Pract_8,2,5,80,127,1263791612
7412,24,Jits_Pract_8,3,5,63,98,1263872312
7412,24,Jits_Pract_8,0,5,80,127,1264561628
7412,24,Jits_Pract_8,1,1,48,29,1264584752
7412,24,Jits_Pract_8,2,5,56,103,1264661744
7412,24,Jits_Pract_8,3,5,63,98,1264672312
7412,24,Jits_Pract_8,0,5,63,98,1265331804
7412,24,Jits_Pract_8,1,1,48,24,1265344888
7412,24,Jits_Pract_8,2,5,80,127,1265392064
7412,24,Jits_Pract_8,3,5,56,103,1265402188
7412,24,Jits_Pract_8,0,1,48,23,1266075256
7412,24,Jits_Pract_8,1,5,56,103,1266132452
7412,24,Jits_Pract_8,2,5,63,98,1266202064
7412,24,Jits_Pract_8,3,5,80,127,1266205428
7412,24,Jits_Pract_8,0,9999,9999,9999,1255399504
7412,24,Jits_Pract_8,1,9999,9999,9999,1256199244
7412,24,Jits_Pract_8,2,9999,9999,9999,1257000008
7412,24,Jits_Pract_8,3,9999,9999,9999,1257799780
7412,24,Jits_Pract_8,4,9999,9999,9999,1258599544
7412,24,Jits_Pract_8,5,9999,9999,9999,1259399232
7412,24,Jits_Pract_8,6,9999,9999,9999,1260200032
7412,24,Jits_Pract_8,7,9999,9999,9999,1260999784
7412,24,Jits_Pract_8,8,9999,9999,9999,1261799548
7412,24,Jits_Pract_8,9,9999,9999,9999,1262599236
7412,24,Jits_Pract_8,10,9999,9999,9999,1263400060
7412,24,Jits_Pract_8,11,9999,9999,9999,1264199744
7412,24,Jits_Pract_8,12,9999,9999,9999,1264999504
7412,24,Jits_Pract_8,13,9999,9999,9999,1265799268
7412,24,Jits_Pract_8,14,9999,9999,9999,1266600060
7413,25,Jits_Pract_5,0,5,56,103,1272588756
7413,25,Jits_Pract_5,1,5,63,98,1272591856
7413,25,Jits_Pract_5,2,5,80,127,1272594900
7413,25,Jits_Pract_5,0,5,56,103,1273089528
7413,25,Jits_Pract_5,1,5,63,98,1273092628
7413,25,Jits_Pract_5,2,5,80,127,1273095524
7413,25,Jits_Pract_5,0,5,56,103,1273589048
7413,25,Jits_Pract_5,1,5,80,127,1273599616
7413,25,Jits_Pract_5,2,5,63,98,1273618728
7413,25,Jits_Pract_5,0,5,63,98,1274038572
7413,25,Jits_Pract_5,1,5,80,127,1274069520
7413,25,Jits_Pract_5,2,5,56,103,1274078668
7413,25,Jits_Pract_5,0,1,48,25,1274550024
7413,25,Jits_Pract_5,1,5,80,127,1274598680
7413,25,Jits_Pract_5,2,5,56,103,1274608900
7413,25,Jits_Pract_5,3,5,63,98,1274638648
7413,25,Jits_Pract_5,0,1,48,22,1275073692
7413,25,Jits_Pract_5,1,5,63,98,1275089380
7413,25,Jits_Pract_5,2,5,56,103,1275118932
7413,25,Jits_Pract_5,3,5,80,127,1275129204
7413,25,Jits_Pract_5,0,5,56,103,1275538736
7413,25,Jits_Pract_5,1,1,48,29,1275585900
7413,25,Jits_Pract_5,2,5,63,98,1275588932
7413,25,Jits_Pract_5,3,5,80,127,1275608568
7413,25,Jits_Pract_5,0,1,48,29,1276037684
7413,25,Jits_Pract_5,1,5,80,127,1276039332
7413,25,Jits_Pract_5,2,5,63,98,1276088784
7413,25,Jits_Pract_5,3,5,56,103,1276128720
7413,25,Jits_Pract_5,0,5,56,103,1276539176
7413,25,Jits_Pract_5,1,1,48,30,1276566036
7413,25,Jits_Pract_5,2,5,63,98,1276568996
7413,25,Jits_Pract_5,3,5,80,127,1276638452
7413,25,Jits_Pract_5,0,1,48,29,1277023036
7413,25,Jits_Pract_5,1,5,56,103,1277039028
7413,25,Jits_Pract_5,2,5,80,127,1277099492
7413,25,Jits_Pract_5,3,5,63,98,1277128928
7413,25,Jits_Pract_5,0,1,48,29,1277521012
7413,25,Jits_Pract_5,1,5,56,103,1277549060
7413,25,Jits_Pract_5,2,5,63,98,1277559180
7413,25,Jits_Pract_5,3,5,80,127,1277599192
7413,25,Jits_Pract_5,0,1,48,29,1277974092
7413,25,Jits_Pract_5,1,5,63,98,1278039384
7413,25,Jits_Pract_5,2,5,80,127,1278119612
7413,25,Jits_Pract_5,3,5,56,103,1278128464
7413,25,Jits_Pract_5,0,1,48,27,1278540768
7413,25,Jits_Pract_5,1,5,63,98,1278589424
7413,25,Jits_Pract_5,2,5,56,103,1278629436
7413,25,Jits_Pract_5,3,5,80,127,1278633384
7413,25,Jits_Pract_5,0,1,48,27,1279040984
7413,25,Jits_Pract_5,1,5,56,103,1279049028
7413,25,Jits_Pract_5,2,5,63,98,1279059668
7413,25,Jits_Pract_5,3,5,80,127,1279099312
7413,25,Jits_Pract_5,0,1,48,28,1279488236
7413,25,Jits_Pract_5,1,5,56,103,1279538528
7413,25,Jits_Pract_5,2,5,63,98,1279541592
7413,25,Jits_Pract_5,3,5,80,127,1279559060
7413,25,Jits_Pract_5,0,9999,9999,9999,1272836192
7413,25,Jits_Pract_5,1,9999,9999,9999,1273336888
7413,25,Jits_Pract_5,2,9999,9999,9999,1273836612
7413,25,Jits_Pract_5,3,9999,9999,9999,1274336352
7413,25,Jits_Pract_5,4,9999,9999,9999,1274837112
7413,25,Jits_Pract_5,5,9999,9999,9999,1275336804
7413,25,Jits_Pract_5,6,9999,9999,9999,1275836496
7413,25,Jits_Pract_5,7,9999,9999,9999,1276336200
7413,25,Jits_Pract_5,8,9999,9999,9999,1276836940
7413,25,Jits_Pract_5,9,9999,9999,9999,1277336648
7413,25,Jits_Pract_5,10,9999,9999,9999,1277836412
7413,25,Jits_Pract_5,11,9999,9999,9999,1278336108
7413,25,Jits_Pract_5,12,9999,9999,9999,1278836840
7413,25,Jits_Pract_5,13,9999,9999,9999,1279336532
7413,25,Jits_Pract_5,14,9999,9999,9999,1279836280
7414,7,Jits_ISO_8,0,5,56,103,1311333860
7414,7,Jits_ISO_8,1,5,63,98,1311336884
7414,7,Jits_ISO_8,2,5,80,127,1311339936
7414,7,Jits_ISO_8,0,5,56,103,1312133488
7414,7,Jits_ISO_8,1,5,63,98,1312136816
7414,7,Jits_ISO_8,2,5,80,127,1312139932
7414,7,Jits_ISO_8,0,5,80,127,1312873936
7414,7,Jits_ISO_8,1,5,63,98,1312963852
7414,7,Jits_ISO_8,2,5,56,103,1312974196
7414,7,Jits_ISO_8,3,1,48,16,1312977908
7414,7,Jits_ISO_8,0,5,56,103,1313694116
7414,7,Jits_ISO_8,1,5,63,98,1313704312
7414,7,Jits_ISO_8,2,1,48,28,1313737848
7414,7,Jits_ISO_8,3,5,80,127,1313794384
7414,7,Jits_ISO_8,0,1,48,29,1314447572
7414,7,Jits_ISO_8,1,5,63,98,1314464156
7414,7,Jits_ISO_8,2,5,80,127,1314494056
7414,7,Jits_ISO_8,3,5,56,103,1314523436
7414,7,Jits_ISO_8,0,1,48,30,1315200068
7414,7,Jits_ISO_8,1,5,56,103,1315263788
7414,7,Jits_ISO_8,2,5,80,127,1315364196
7414,7,Jits_ISO_8,3,5,63,98,1315414324
7414,7,Jits_ISO_8,0,1,48,24,1315968160
7414,7,Jits_ISO_8,1,5,56,103,1316063716
7414,7,Jits_ISO_8,2,5,80,127,1316114080
7414,7,Jits_ISO_8,3,5,63,98,1316153868
7414,7,Jits_ISO_8,0,1,48,27,1316781584
7414,7,Jits_ISO_8,1,5,80,127,1316894148
7414,7,Jits_ISO_8,2,5,63,98,1316923972
7414,7,Jits_ISO_8,3,5,56,103,1316994400
7414,7,Jits_ISO_8,0,1,48,25,1317616676
7414,7,Jits_ISO_8,1,5,63,98,1317723604
7414,7,Jits_ISO_8,2,5,56,103,1317754176
7414,7,Jits_ISO_8,3,5,80,127,1317813892
7414,7,Jits_ISO_8,0,1,48,29,1318451684
7414,7,Jits_ISO_8,1,5,56,103,1318463984
7414,7,Jits_ISO_8,2,5,80,127,1318466828
7414,7,Jits_ISO_8,3,5,63,98,1318583772
7414,7,Jits_ISO_8,0,1,48,30,1319220792
7414,7,Jits_ISO_8,1,5,56,103,1319343388
7414,7,Jits_ISO_8,2,5,80,127,1319384748
7414,7,Jits_ISO_8,3,5,63,98,1319393748
7414,7,Jits_ISO_8,0,1,48,27,1320045912
7414,7,Jits_ISO_8,1,5,56,103,1320104232
7414,7,Jits_ISO_8,2,5,80,127,1320124016
7414,7,Jits_ISO_8,3,5,63,98,1320203748
7414,7,Jits_ISO_8,0,5,80,127,1320893756
7414,7,Jits_ISO_8,1,1,48,30,1320896348
7414,7,Jits_ISO_8,2,5,56,103,1320994100
7414,7,Jits_ISO_8,3,5,63,98,1321004360
7414,7,Jits_ISO_8,0,5,63,98,1321663964
7414,7,Jits_ISO_8,1,1,48,28,1321666712
7414,7,Jits_ISO_8,2,5,80,127,1321724224
7414,7,Jits_ISO_8,3,5,56,103,1321733596
7414,7,Jits_ISO_8,0,1,48,26,1322414932
7414,7,Jits_ISO_8,1,5,56,103,1322463736
7414,7,Jits_ISO_8,2,5,63,98,1322534400
7414,7,Jits_ISO_8,3,5,80,127,1322537840
7414,7,Jits_ISO_8,0,1,48,28,1323186152
7414,7,Jits_ISO_8,1,5,63,98,1323294008
7414,7,Jits_ISO_8,2,5,56,103,1323344212
7414,7,Jits_ISO_8,3,5,80,127,1323347276
7414,7,Jits_ISO_8,0,5,56,103,1324053868
7414,7,Jits_ISO_8,1,1,48,27,1324054852
7414,7,Jits_ISO_8,2,5,80,127,1324057900
7414,7,Jits_ISO_8,3,5,63,98,1324143844
7414,7,Jits_ISO_8,0,1,48,24,1324851976
7414,7,Jits_ISO_8,1,5,63,98,1324893800
7414,7,Jits_ISO_8,2,5,56,103,1324983848
7414,7,Jits_ISO_8,3,5,80,127,1325014348
7414,7,Jits_ISO_8,0,5,56,103,1325683932
7414,7,Jits_ISO_8,1,1,48,17,1325782816
7414,7,Jits_ISO_8,2,5,63,98,1325784400
7414,7,Jits_ISO_8,3,5,80,127,1325814176
7414,7,Jits_ISO_8,0,5,63,98,1326504188
7414,7,Jits_ISO_8,1,5,56,103,1326513784
7414,7,Jits_ISO_8,2,1,48,30,1326533168
7414,7,Jits_ISO_8,3,5,80,127,1326603640
7414,7,Jits_ISO_8,0,1,48,34,1327255236
7414,7,Jits_ISO_8,1,5,63,98,1327323816
7414,7,Jits_ISO_8,2,5,56,103,1327404448
7414,7,Jits_ISO_8,3,5,80,127,1327407516
7414,7,Jits_ISO_8,0,1,48,28,1328083668
7414,7,Jits_ISO_8,1,5,80,127,1328085236
7414,7,Jits_ISO_8,2,5,63,98,1328103676
7414,7,Jits_ISO_8,3,5,56,103,1328164164
7414,7,Jits_ISO_8,0,1,48,28,1328799272
7414,7,Jits_ISO_8,1,5,56,103,1328924060
7414,7,Jits_ISO_8,2,5,63,98,1328943400
7414,7,Jits_ISO_8,3,5,80,127,1328946836
7414,7,Jits_ISO_8,0,5,63,98,1329664224
7414,7,Jits_ISO_8,1,1,48,26,1329717688
7414,7,Jits_ISO_8,2,5,80,127,1329744384
7414,7,Jits_ISO_8,3,5,56,103,1329753684
7414,7,Jits_ISO_8,0,1,48,30,1330468752
7414,7,Jits_ISO_8,1,5,63,98,1330483696
7414,7,Jits_ISO_8,2,5,56,103,1330504008
7414,7,Jits_ISO_8,3,5,80,127,1330554208
7414,7,Jits_ISO_8,0,1,48,33,1331242180
7414,7,Jits_ISO_8,1,5,80,127,1331284676
7414,7,Jits_ISO_8,2,5,63,98,1331324468
7414,7,Jits_ISO_8,3,5,56,103,1331343716
7414,7,Jits_ISO_8,0,1,48,27,1331993704
7414,7,Jits_ISO_8,1,5,56,103,1332123928
7414,7,Jits_ISO_8,2,5,63,98,1332134420
7414,7,Jits_ISO_8,3,5,80,127,1332153684
7414,7,Jits_ISO_8,0,1,48,22,1332849368
7414,7,Jits_ISO_8,1,5,56,103,1332854196
7414,7,Jits_ISO_8,2,5,63,98,1332944092
7414,7,Jits_ISO_8,3,5,80,127,1333003760
7414,7,Jits_ISO_8,0,1,48,32,1333584948
7414,7,Jits_ISO_8,1,5,80,127,1333684156
7414,7,Jits_ISO_8,2,5,56,103,1333693756
7414,7,Jits_ISO_8,3,5,63,98,1333763608
7414,7,Jits_ISO_8,0,1,48,29,1334386972
7414,7,Jits_ISO_8,1,5,63,98,1334514008
7414,7,Jits_ISO_8,2,5,80,127,1334604144
7414,7,Jits_ISO_8,3,5,56,103,1334614788
7414,7,Jits_ISO_8,0,1,48,25,1335229692
7414,7,Jits_ISO_8,1,5,63,98,1335254520
7414,7,Jits_ISO_8,2,5,80,127,1335303556
7414,7,Jits_ISO_8,3,5,56,103,1335363856
7414,7,Jits_ISO_8,0,1,48,27,1335972920
7414,7,Jits_ISO_8,1,5,56,103,1336083912
7414,7,Jits_ISO_8,2,5,80,127,1336133964
7414,7,Jits_ISO_8,3,5,63,98,1336153748
7414,7,Jits_ISO_8,0,1,48,26,1336810072
7414,7,Jits_ISO_8,1,5,56,103,1336853888
7414,7,Jits_ISO_8,2,5,80,127,1336914264
7414,7,Jits_ISO_8,3,5,63,98,1336984020
7414,7,Jits_ISO_8,0,1,48,22,1337577716
7414,7,Jits_ISO_8,1,5,56,103,1337653816
7414,7,Jits_ISO_8,2,5,80,127,1337684452
7414,7,Jits_ISO_8,3,5,63,98,1337714052
7414,7,Jits_ISO_8,0,1,48,28,1338406808
7414,7,Jits_ISO_8,1,5,56,103,1338494576
7414,7,Jits_ISO_8,2,5,80,127,1338513828
7414,7,Jits_ISO_8,3,5,63,98,1338574068
7414,7,Jits_ISO_8,0,1,48,29,1339227648
7414,7,Jits_ISO_8,1,5,80,127,1339373792
7414,7,Jits_ISO_8,2,5,56,103,1339384284
7414,7,Jits_ISO_8,3,5,63,98,1339394632
7414,7,Jits_ISO_8,0,5,56,103,1340133796
7414,7,Jits_ISO_8,1,1,48,27,1340164368
7414,7,Jits_ISO_8,2,5,80,127,1340173532
7414,7,Jits_ISO_8,3,5,63,98,1340204476
7414,7,Jits_ISO_8,0,5,56,103,1340903780
7414,7,Jits_ISO_8,1,1,48,25,1340925208
7414,7,Jits_ISO_8,2,5,63,98,1340933548
7414,7,Jits_ISO_8,3,5,80,127,1340973636
7414,7,Jits_ISO_8,0,1,48,38,1341637384
7414,7,Jits_ISO_8,1,5,80,127,1341654496
7414,7,Jits_ISO_8,2,5,63,98,1341703676
7414,7,Jits_ISO_8,3,5,56,103,1341723988
7414,7,Jits_ISO_8,0,1,48,33,1342382848
7414,7,Jits_ISO_8,1,5,56,103,1342483876
7414,7,Jits_ISO_8,2,5,80,127,1342553416
7414,7,Jits_ISO_8,3,5,63,98,1342614028
7414,7,Jits_ISO_8,0,1,48,25,1343246416
7414,7,Jits_ISO_8,1,5,80,127,1343283532
7414,7,Jits_ISO_8,2,5,63,98,1343373800
7414,7,Jits_ISO_8,3,5,56,103,1343394188
7414,7,Jits_ISO_8,0,1,48,24,1344061104
7414,7,Jits_ISO_8,1,5,63,98,1344103920
7414,7,Jits_ISO_8,2,5,56,103,1344124532
7414,7,Jits_ISO_8,3,5,80,127,1344164304
7414,7,Jits_ISO_8,0,1,48,22,1344762600
7414,7,Jits_ISO_8,1,5,80,127,1344863456
7414,7,Jits_ISO_8,2,5,63,98,1344884140
7414,7,Jits_ISO_8,3,5,56,103,1344964008
7414,7,Jits_ISO_8,0,1,48,22,1345548884
7414,7,Jits_ISO_8,1,5,63,98,1345654092
7414,7,Jits_ISO_8,2,5,56,103,1345763632
7414,7,Jits_ISO_8,3,5,80,127,1345766772
7414,7,Jits_ISO_8,0,1,48,21,1346431660
7414,7,Jits_ISO_8,1,5,63,98,1346474476
7414,7,Jits_ISO_8,2,5,56,103,1346483552
7414,7,Jits_ISO_8,3,5,80,127,1346486692
7414,7,Jits_ISO_8,0,1,48,24,1347207756
7414,7,Jits_ISO_8,1,5,56,103,1347253568
7414,7,Jits_ISO_8,2,5,80,127,1347373680
7414,7,Jits_ISO_8,3,5,63,98,1347414296
7414,7,Jits_ISO_8,0,1,48,21,1347942516
7414,7,Jits_ISO_8,1,5,56,103,1348073788
7414,7,Jits_ISO_8,2,5,80,127,1348153588
7414,7,Jits_ISO_8,3,5,63,98,1348174120
7414,7,Jits_ISO_8,0,1,48,26,1348840332
7414,7,Jits_ISO_8,1,5,56,103,1348873584
7414,7,Jits_ISO_8,2,5,63,98,1348984380
7414,7,Jits_ISO_8,3,5,80,127,1348987744
7414,7,Jits_ISO_8,0,1,48,26,1349680220
7414,7,Jits_ISO_8,1,5,56,103,1349703928
7414,7,Jits_ISO_8,2,5,80,127,1349733680
7414,7,Jits_ISO_8,3,5,63,98,1349754436
7414,7,Jits_ISO_8,0,1,48,27,1350400800
7414,7,Jits_ISO_8,1,5,63,98,1350484528
7414,7,Jits_ISO_8,2,5,56,103,1350493604
7414,7,Jits_ISO_8,3,5,80,127,1350503860
7414,7,Jits_ISO_8,0,1,48,29,1351193924
7414,7,Jits_ISO_8,1,5,80,127,1351273816
7414,7,Jits_ISO_8,2,5,56,103,1351324080
7414,7,Jits_ISO_8,3,5,63,98,1351364092
7414,7,Jits_ISO_8,0,1,48,33,1351979088
7414,7,Jits_ISO_8,1,5,80,127,1352094184
7414,7,Jits_ISO_8,2,5,63,98,1352113524
7414,7,Jits_ISO_8,3,5,56,103,1352163576
7414,7,Jits_ISO_8,0,1,48,25,1352889004
7414,7,Jits_ISO_8,1,5,80,127,1352904024
7414,7,Jits_ISO_8,2,5,56,103,1352933624
7414,7,Jits_ISO_8,3,5,63,98,1353004364
7414,7,Jits_ISO_8,0,5,56,103,1353754116
7414,7,Jits_ISO_8,1,5,80,127,1353764460
7414,7,Jits_ISO_8,2,1,48,29,1353792836
7414,7,Jits_ISO_8,3,5,63,98,1353804244
7414,7,Jits_ISO_8,0,5,56,103,1354463460
7414,7,Jits_ISO_8,1,5,63,98,1354484168
7414,7,Jits_ISO_8,2,5,80,127,1354553700
7414,7,Jits_ISO_8,3,1,48,24,1354622080
7414,7,Jits_ISO_8,0,1,48,29,1355110364
7414,7,Jits_ISO_8,1,5,63,98,1355283788
7414,7,Jits_ISO_8,2,5,80,127,1355344180
7414,7,Jits_ISO_8,3,5,56,103,1355363740
7414,7,Jits_ISO_8,0,1,48,34,1356014332
7414,7,Jits_ISO_8,1,5,80,127,1356074520
7414,7,Jits_ISO_8,2,5,56,103,1356104196
7414,7,Jits_ISO_8,3,5,63,98,1356133636
7414,7,Jits_ISO_8,0,1,48,25,1356796500
7414,7,Jits_ISO_8,1,5,56,103,1356874076
7414,7,Jits_ISO_8,2,5,63,98,1356933480
7414,7,Jits_ISO_8,3,5,80,127,1356993944
7414,7,Jits_ISO_8,0,1,48,24,1357660112
7414,7,Jits_ISO_8,1,5,80,127,1357694388
7414,7,Jits_ISO_8,2,5,56,103,1357713652
7414,7,Jits_ISO_8,3,5,63,98,1357784364
7414,7,Jits_ISO_8,0,1,48,30,1358410296
7414,7,Jits_ISO_8,1,5,80,127,1358494172
7414,7,Jits_ISO_8,2,5,63,98,1358513420
7414,7,Jits_ISO_8,3,5,56,103,1358544292
7414,7,Jits_ISO_8,0,1,48,26,1359242980
7414,7,Jits_ISO_8,1,5,80,127,1359283540
7414,7,Jits_ISO_8,2,5,63,98,1359304148
7414,7,Jits_ISO_8,3,5,56,103,1359363424
7414,7,Jits_ISO_8,0,1,48,24,1360067708
7414,7,Jits_ISO_8,1,5,80,127,1360084364
7414,7,Jits_ISO_8,2,5,56,103,1360183728
7414,7,Jits_ISO_8,3,5,63,98,1360214380
7414,7,Jits_ISO_8,0,5,63,98,1360873920
7414,7,Jits_ISO_8,1,1,48,25,1360885504
7414,7,Jits_ISO_8,2,5,80,127,1360924040
7414,7,Jits_ISO_8,3,5,56,103,1360943600
7414,7,Jits_ISO_8,0,1,48,26,1361581716
7414,7,Jits_ISO_8,1,5,80,127,1361713612
7414,7,Jits_ISO_8,2,5,56,103,1361744184
7414,7,Jits_ISO_8,3,5,63,98,1361747324
7414,7,Jits_ISO_8,0,1,48,24,1362438816
7414,7,Jits_ISO_8,1,5,63,98,1362544100
7414,7,Jits_ISO_8,2,5,56,103,1362583892
7414,7,Jits_ISO_8,3,5,80,127,1362604428
7414,7,Jits_ISO_8,0,5,80,127,1363284348
7414,7,Jits_ISO_8,1,1,48,23,1363303880
7414,7,Jits_ISO_8,2,5,63,98,1363364140
7414,7,Jits_ISO_8,3,5,56,103,1363404360
7414,7,Jits_ISO_8,0,1,48,25,1364034068
7414,7,Jits_ISO_8,1,5,63,98,1364103396
7414,7,Jits_ISO_8,2,5,80,127,1364184376
7414,7,Jits_ISO_8,3,5,56,103,1364203888
7414,7,Jits_ISO_8,0,1,48,24,1364809344
7414,7,Jits_ISO_8,1,5,56,103,1364944372
7414,7,Jits_ISO_8,2,5,63,98,1364953448
7414,7,Jits_ISO_8,3,5,80,127,1364994608
7414,7,Jits_ISO_8,0,1,48,18,1365630256
7414,7,Jits_ISO_8,1,5,56,103,1365664228
7414,7,Jits_ISO_8,2,5,80,127,1365667296
7414,7,Jits_ISO_8,3,5,63,98,1365804416
7414,7,Jits_ISO_8,0,5,56,103,1366453520
7414,7,Jits_ISO_8,1,1,48,22,1366461272
7414,7,Jits_ISO_8,2,5,63,98,1366543672
7414,7,Jits_ISO_8,3,5,80,127,1366614464
7414,7,Jits_ISO_8,0,1,48,29,1367198132
7414,7,Jits_ISO_8,1,5,63,98,1367334236
7414,7,Jits_ISO_8,2,5,80,127,1367337600
7414,7,Jits_ISO_8,3,5,56,103,1367393652
7414,7,Jits_ISO_8,0,1,48,22,1368074520
7414,7,Jits_ISO_8,1,5,80,127,1368174024
7414,7,Jits_ISO_8,2,5,56,103,1368194412
7414,7,Jits_ISO_8,3,5,63,98,1368203708
7414,7,Jits_ISO_8,0,5,56,103,1368883552
7414,7,Jits_ISO_8,1,5,63,98,1368893896
7414,7,Jits_ISO_8,2,1,48,27,1368938596
7414,7,Jits_ISO_8,3,5,80,127,1368963348
7414,7,Jits_ISO_8,0,1,48,25,1369645776
7414,7,Jits_ISO_8,1,5,80,127,1369684460
7414,7,Jits_ISO_8,2,5,56,103,1369733468
7414,7,Jits_ISO_8,3,5,63,98,1369783804
7414,7,Jits_ISO_8,0,1,48,24,1370443092
7414,7,Jits_ISO_8,1,5,56,103,1370564100
7414,7,Jits_ISO_8,2,5,63,98,1370574224
7414,7,Jits_ISO_8,3,5,80,127,1370614112
7414,7,Jits_ISO_8,0,1,48,23,1371291344
7414,7,Jits_ISO_8,1,5,56,103,1371304264
7414,7,Jits_ISO_8,2,5,63,98,1371344204
7414,7,Jits_ISO_8,3,5,80,127,1371394344
7414,7,Jits_ISO_8,0,5,80,127,1372064196
7414,7,Jits_ISO_8,1,1,48,20,1372071432
7414,7,Jits_ISO_8,2,5,56,103,1372114244
7414,7,Jits_ISO_8,3,5,63,98,1372133732
7414,7,Jits_ISO_8,0,1,48,19,1372778016
7414,7,Jits_ISO_8,1,5,80,127,1372874084
7414,7,Jits_ISO_8,2,5,63,98,1372933380
7414,7,Jits_ISO_8,3,5,56,103,1373014448
7414,7,Jits_ISO_8,0,1,48,19,1373596236
7414,7,Jits_ISO_8,1,5,80,127,1373654404
7414,7,Jits_ISO_8,2,5,56,103,1373694204
7414,7,Jits_ISO_8,3,5,63,98,1373713988
7414,7,Jits_ISO_8,0,1,48,22,1374380348
7414,7,Jits_ISO_8,1,5,56,103,1374504312
7414,7,Jits_ISO_8,2,5,80,127,1374513540
7414,7,Jits_ISO_8,3,5,63,98,1374553552
7414,7,Jits_ISO_8,0,1,48,20,1375214780
7414,7,Jits_ISO_8,1,5,56,103,1375373700
7414,7,Jits_ISO_8,2,5,63,98,1375413564
7414,7,Jits_ISO_8,3,5,80,127,1375417228
7414,7,Jits_ISO_8,0,5,63,98,1376063968
7414,7,Jits_ISO_8,1,5,80,127,1376104056
7414,7,Jits_ISO_8,2,1,48,17,1376144492
7414,7,Jits_ISO_8,3,5,56,103,1376173284
7414,7,Jits_ISO_8,0,1,48,32,1376827676
7414,7,Jits_ISO_8,1,5,63,98,1376854376
7414,7,Jits_ISO_8,2,5,56,103,1376934160
7414,7,Jits_ISO_8,3,5,80,127,1376993576
7414,7,Jits_ISO_8,0,1,48,29,1377606476
7414,7,Jits_ISO_8,1,5,80,127,1377664420
7414,7,Jits_ISO_8,2,5,63,98,1377713712
7414,7,Jits_ISO_8,3,5,56,103,1377744212
7414,7,Jits_ISO_8,0,1,48,21,1378423048
7414,7,Jits_ISO_8,1,5,56,103,1378454008
7414,7,Jits_ISO_8,2,5,63,98,1378504064
7414,7,Jits_ISO_8,3,5,80,127,1378514260
7414,7,Jits_ISO_8,0,1,48,29,1379205584
7414,7,Jits_ISO_8,1,5,56,103,1379264052
7414,7,Jits_ISO_8,2,5,63,98,1379373356
7414,7,Jits_ISO_8,3,5,80,127,1379394184
7414,7,Jits_ISO_8,0,1,48,27,1380009236
7414,7,Jits_ISO_8,1,5,63,98,1380063736
7414,7,Jits_ISO_8,2,5,80,127,1380114024
7414,7,Jits_ISO_8,3,5,56,103,1380204156
7414,7,Jits_ISO_8,0,1,48,29,1380796880
7414,7,Jits_ISO_8,1,5,63,98,1380854100
7414,7,Jits_ISO_8,2,5,80,127,1380883776
7414,7,Jits_ISO_8,3,5,56,103,1380973892
7414,7,Jits_ISO_8,0,1,48,23,1381569008
7414,7,Jits_ISO_8,1,5,63,98,1381653952
7414,7,Jits_ISO_8,2,5,56,103,1381664208
7414,7,Jits_ISO_8,3,5,80,127,1381763408
7414,7,Jits_ISO_8,0,1,48,17,1382386268
7414,7,Jits_ISO_8,1,5,63,98,1382554112
7414,7,Jits_ISO_8,2,5,80,127,1382583864
7414,7,Jits_ISO_8,3,5,56,103,1382614292
7414,7,Jits_ISO_8,0,1,48,15,1383368952
7414,7,Jits_ISO_8,1,5,80,127,1383374152
7414,7,Jits_ISO_8,2,5,63,98,1383384572
7414,7,Jits_ISO_8,3,5,56,103,1383414272
7414,7,Jits_ISO_8,0,5,80,127,1384073560
7414,7,Jits_ISO_8,1,5,63,98,1384094016
7414,7,Jits_ISO_8,2,1,48,19,1384116616
7414,7,Jits_ISO_8,3,5,56,103,1384144212
7414,7,Jits_ISO_8,0,1,48,17,1384785432
7414,7,Jits_ISO_8,1,5,63,98,1384904048
7414,7,Jits_ISO_8,2,5,80,127,1384963344
7414,7,Jits_ISO_8,3,5,56,103,1384984024
7414,7,Jits_ISO_8,0,5,63,98,1385663844
7414,7,Jits_ISO_8,1,5,56,103,1385713924
7414,7,Jits_ISO_8,2,1,48,16,1385714892
7414,7,Jits_ISO_8,3,5,80,127,1385724412
7414,7,Jits_ISO_8,0,5,56,103,1386494292
7414,7,Jits_ISO_8,1,5,80,127,1386503816
7414,7,Jits_ISO_8,2,5,63,98,1386603912
7414,7,Jits_ISO_8,0,5,80,127,1387254004
7414,7,Jits_ISO_8,1,5,63,98,1387264572
7414,7,Jits_ISO_8,2,1,48,34,1387299008
7414,7,Jits_ISO_8,3,5,56,103,1387413868
7414,7,Jits_ISO_8,0,1,48,29,1388031796
7414,7,Jits_ISO_8,1,5,63,98,1388064056
7414,7,Jits_ISO_8,2,5,80,127,1388103920
7414,7,Jits_ISO_8,3,5,56,103,1388183996
7414,7,Jits_ISO_8,0,5,56,103,1388853656
7414,7,Jits_ISO_8,1,1,48,25,1388863600
7414,7,Jits_ISO_8,2,5,80,127,1388954048
7414,7,Jits_ISO_8,3,5,63,98,1388973372
7414,7,Jits_ISO_8,0,1,48,27,1389670120
7414,7,Jits_ISO_8,1,5,80,127,1389713912
7414,7,Jits_ISO_8,2,5,56,103,1389724032
7414,7,Jits_ISO_8,3,5,63,98,1389814100
7414,7,Jits_ISO_8,0,1,48,27,1390505800
7414,7,Jits_ISO_8,1,5,56,103,1390513624
7414,7,Jits_ISO_8,2,5,63,98,1390533932
7414,7,Jits_ISO_8,3,5,80,127,1390613740
7414,7,Jits_ISO_8,0,1,48,30,1391233888
7414,7,Jits_ISO_8,1,5,63,98,1391264032
7414,7,Jits_ISO_8,2,5,56,103,1391354176
7414,7,Jits_ISO_8,3,5,80,127,1391357320
7414,7,Jits_ISO_8,0,1,48,34,1391966752
7414,7,Jits_ISO_8,1,5,56,103,1392093688
7414,7,Jits_ISO_8,2,5,80,127,1392154028
7414,7,Jits_ISO_8,3,5,63,98,1392164372
7414,7,Jits_ISO_8,0,1,48,33,1392805648
7414,7,Jits_ISO_8,1,5,80,127,1392943396
7414,7,Jits_ISO_8,2,5,56,103,1392953964
7414,7,Jits_ISO_8,3,5,63,98,1392957028
7414,7,Jits_ISO_8,0,1,48,24,1393700592
7414,7,Jits_ISO_8,1,5,56,103,1393704372
7414,7,Jits_ISO_8,2,5,80,127,1393713596
7414,7,Jits_ISO_8,3,5,63,98,1393734056
7414,7,Jits_ISO_8,0,1,48,23,1394403560
7414,7,Jits_ISO_8,1,5,63,98,1394474480
7414,7,Jits_ISO_8,2,5,80,127,1394533664
7414,7,Jits_ISO_8,3,5,56,103,1394583792
7414,7,Jits_ISO_8,0,1,48,16,1395243228
7414,7,Jits_ISO_8,1,5,63,98,1395353820
7414,7,Jits_ISO_8,2,5,56,103,1395364316
7414,7,Jits_ISO_8,3,5,80,127,1395414296
7414,7,Jits_ISO_8,0,5,63,98,1396054284
7414,7,Jits_ISO_8,1,5,80,127,1396073920
7414,7,Jits_ISO_8,2,1,48,33,1396081376
7414,7,Jits_ISO_8,3,5,56,103,1396084184
7414,7,Jits_ISO_8,0,1,48,38,1396756020
7414,7,Jits_ISO_8,1,5,63,98,1396854180
7414,7,Jits_ISO_8,2,5,80,127,1396857620
7414,7,Jits_ISO_8,3,5,56,103,1396894044
7414,7,Jits_ISO_8,0,1,48,26,1397610468
7414,7,Jits_ISO_8,1,5,63,98,1397723700
7414,7,Jits_ISO_8,2,5,80,127,1397754152
7414,7,Jits_ISO_8,3,5,56,103,1397763376
7414,7,Jits_ISO_8,0,5,56,103,1398474056
7414,7,Jits_ISO_8,1,1,48,32,1398496204
7414,7,Jits_ISO_8,2,5,80,127,1398503976
7414,7,Jits_ISO_8,3,5,63,98,1398533652
7414,7,Jits_ISO_8,0,1,48,29,1399217920
7414,7,Jits_ISO_8,1,5,63,98,1399374252
7414,7,Jits_ISO_8,2,5,56,103,1399414036
7414,7,Jits_ISO_8,3,5,80,127,1399417112
7414,7,Jits_ISO_8,0,5,80,127,1400073812
7414,7,Jits_ISO_8,1,1,48,30,1400111704
7414,7,Jits_ISO_8,2,5,56,103,1400153452
7414,7,Jits_ISO_8,3,5,63,98,1400203804
7414,7,Jits_ISO_8,0,5,80,127,1400853828
7414,7,Jits_ISO_8,1,5,56,103,1400874364
7414,7,Jits_ISO_8,2,1,48,31,1400939960
7414,7,Jits_ISO_8,3,5,63,98,1400963664
7414,7,Jits_ISO_8,0,1,48,24,1401693632
7414,7,Jits_ISO_8,1,5,80,127,1401694896
7414,7,Jits_ISO_8,2,5,63,98,1401733640
7414,7,Jits_ISO_8,3,5,56,103,1401773356
7414,7,Jits_ISO_8,0,5,63,98,1402463816
7414,7,Jits_ISO_8,1,1,48,28,1402469104
7414,7,Jits_ISO_8,2,5,80,127,1402523980
7414,7,Jits_ISO_8,3,5,56,103,1402553656
7414,7,Jits_ISO_8,0,1,48,20,1403197780
7414,7,Jits_ISO_8,1,5,56,103,1403264492
7414,7,Jits_ISO_8,2,5,80,127,1403294092
7414,7,Jits_ISO_8,3,5,63,98,1403384308
7414,7,Jits_ISO_8,0,1,48,33,1404057728
7414,7,Jits_ISO_8,1,5,56,103,1404074464
7414,7,Jits_ISO_8,2,5,80,127,1404183792
7414,7,Jits_ISO_8,3,5,63,98,1404213764
7414,7,Jits_ISO_8,0,1,48,36,1404840872
7414,7,Jits_ISO_8,1,5,56,103,1404924620
7414,7,Jits_ISO_8,2,5,63,98,1404983656
7414,7,Jits_ISO_8,3,5,80,127,1405014528
7414,7,Jits_ISO_8,0,1,48,33,1405691784
7414,7,Jits_ISO_8,1,5,56,103,1405694516
7414,7,Jits_ISO_8,2,5,63,98,1405763904
7414,7,Jits_ISO_8,3,5,80,127,1405784496
7414,7,Jits_ISO_8,0,5,80,127,1406464492
7414,7,Jits_ISO_8,1,1,48,30,1406481636
7414,7,Jits_ISO_8,2,5,63,98,1406483748
7414,7,Jits_ISO_8,3,5,56,103,1406533952
7414,7,Jits_ISO_8,0,9999,9999,9999,1311731832
7414,7,Jits_ISO_8,1,9999,9999,9999,1312531532
7414,7,Jits_ISO_8,2,9999,9999,9999,1313331304
7414,7,Jits_ISO_8,3,9999,9999,9999,1314132068
7414,7,Jits_ISO_8,4,9999,9999,9999,1314931788
7414,7,Jits_ISO_8,5,9999,9999,9999,1315731572
7414,7,Jits_ISO_8,6,9999,9999,9999,1316531276
7414,7,Jits_ISO_8,7,9999,9999,9999,1317332028
7414,7,Jits_ISO_8,8,9999,9999,9999,1318131768
7414,7,Jits_ISO_8,9,9999,9999,9999,1318931536
7414,7,Jits_ISO_8,10,9999,9999,9999,1319731248
7414,7,Jits_ISO_8,11,9999,9999,9999,1320532080
7414,7,Jits_ISO_8,12,9999,9999,9999,1321331792
7414,7,Jits_ISO_8,13,9999,9999,9999,1322131512
7414,7,Jits_ISO_8,14,9999,9999,9999,1322931284
7414,7,Jits_ISO_8,15,9999,9999,9999,1323732028
7414,7,Jits_ISO_8,16,9999,9999,9999,1324531820
7414,7,Jits_ISO_8,17,9999,9999,9999,1325331548
7414,7,Jits_ISO_8,18,9999,9999,9999,1326131260
7414,7,Jits_ISO_8,19,9999,9999,9999,1326932032
7414,7,Jits_ISO_8,20,9999,9999,9999,1327731808
7414,7,Jits_ISO_8,21,9999,9999,9999,1328531516
7414,7,Jits_ISO_8,22,9999,9999,9999,1329331292
7414,7,Jits_ISO_8,23,9999,9999,9999,1330132044
7414,7,Jits_ISO_8,24,9999,9999,9999,1330931772
7414,7,Jits_ISO_8,25,9999,9999,9999,1331731556
7414,7,Jits_ISO_8,26,9999,9999,9999,1332531264
7414,7,Jits_ISO_8,27,9999,9999,9999,1333332020
7414,7,Jits_ISO_8,28,9999,9999,9999,1334131800
7414,7,Jits_ISO_8,29,9999,9999,9999,1334931516
7414,7,Jits_ISO_8,30,9999,9999,9999,1335731296
7414,7,Jits_ISO_8,31,9999,9999,9999,1336532052
7414,7,Jits_ISO_8,32,9999,9999,9999,1337331784
7414,7,Jits_ISO_8,33,9999,9999,9999,1338131560
7414,7,Jits_ISO_8,34,9999,9999,9999,1338931268
7414,7,Jits_ISO_8,35,9999,9999,9999,1339732032
7414,7,Jits_ISO_8,36,9999,9999,9999,1340531824
7414,7,Jits_ISO_8,37,9999,9999,9999,1341331548
7414,7,Jits_ISO_8,38,9999,9999,9999,1342131268
7414,7,Jits_ISO_8,39,9999,9999,9999,1342932024
7414,7,Jits_ISO_8,40,9999,9999,9999,1343731764
7414,7,Jits_ISO_8,41,9999,9999,9999,1344531548
7414,7,Jits_ISO_8,42,9999,9999,9999,1345331252
7414,7,Jits_ISO_8,43,9999,9999,9999,1346132068
7414,7,Jits_ISO_8,44,9999,9999,9999,1346931832
7414,7,Jits_ISO_8,45,9999,9999,9999,1347731544
7414,7,Jits_ISO_8,46,9999,9999,9999,1348531300
7414,7,Jits_ISO_8,47,9999,9999,9999,1349332044
7414,7,Jits_ISO_8,48,9999,9999,9999,1350131776
7414,7,Jits_ISO_8,49,9999,9999,9999,1350931556
7414,7,Jits_ISO_8,50,9999,9999,9999,1351731260
7414,7,Jits_ISO_8,51,9999,9999,9999,1352532088
7414,7,Jits_ISO_8,52,9999,9999,9999,1353331800
7414,7,Jits_ISO_8,53,9999,9999,9999,1354131516
7414,7,Jits_ISO_8,54,9999,9999,9999,1354931308
7414,7,Jits_ISO_8,55,9999,9999,9999,1355732080
7414,7,Jits_ISO_8,56,9999,9999,9999,1356531812
7414,7,Jits_ISO_8,57,9999,9999,9999,1357331520
7414,7,Jits_ISO_8,58,9999,9999,9999,1358131304
7414,7,Jits_ISO_8,59,9999,9999,9999,1358932060
7414,7,Jits_ISO_8,60,9999,9999,9999,1359731764
7414,7,Jits_ISO_8,61,9999,9999,9999,1360531552
7414,7,Jits_ISO_8,62,9999,9999,9999,1361331256
7414,7,Jits_ISO_8,63,9999,9999,9999,1362132072
7414,7,Jits_ISO_8,64,9999,9999,9999,1362931812
7414,7,Jits_ISO_8,65,9999,9999,9999,1363731524
7414,7,Jits_ISO_8,66,9999,9999,9999,1364531252
7414,7,Jits_ISO_8,67,9999,9999,9999,1365332084
7414,7,Jits_ISO_8,68,9999,9999,9999,1366131776
7414,7,Jits_ISO_8,69,9999,9999,9999,1366931560
7414,7,Jits_ISO_8,70,9999,9999,9999,1367731280
7414,7,Jits_ISO_8,71,9999,9999,9999,1368532044
7414,7,Jits_ISO_8,72,9999,9999,9999,1369331772
7414,7,Jits_ISO_8,73,9999,9999,9999,1370131568
7414,7,Jits_ISO_8,74,9999,9999,9999,1370931284
7414,7,Jits_ISO_8,75,9999,9999,9999,1371732044
7414,7,Jits_ISO_8,76,9999,9999,9999,1372531820
7414,7,Jits_ISO_8,77,9999,9999,9999,1373331548
7414,7,Jits_ISO_8,78,9999,9999,9999,1374131324
7414,7,Jits_ISO_8,79,9999,9999,9999,1374932076
7414,7,Jits_ISO_8,80,9999,9999,9999,1375731812
7414,7,Jits_ISO_8,81,9999,9999,9999,1376531516
7414,7,Jits_ISO_8,82,9999,9999,9999,1377331300
7414,7,Jits_ISO_8,83,9999,9999,9999,1378132052
7414,7,Jits_ISO_8,84,9999,9999,9999,1378931828
7414,7,Jits_ISO_8,85,9999,9999,9999,1379731512
7414,7,Jits_ISO_8,86,9999,9999,9999,1380531296
7414,7,Jits_ISO_8,87,9999,9999,9999,1381332044
7414,7,Jits_ISO_8,88,9999,9999,9999,1382131772
7414,7,Jits_ISO_8,89,9999,9999,9999,1382931560
7414,7,Jits_ISO_8,90,9999,9999,9999,1383731284
7414,7,Jits_ISO_8,91,9999,9999,9999,1384532040
7414,7,Jits_ISO_8,92,9999,9999,9999,1385331764
7414,7,Jits_ISO_8,93,9999,9999,9999,1386131540
7414,7,Jits_ISO_8,94,9999,9999,9999,1386931272
7414,7,Jits_ISO_8,95,9999,9999,9999,1387732088
7414,7,Jits_ISO_8,96,9999,9999,9999,1388531760
7414,7,Jits_ISO_8,97,9999,9999,9999,1389331548
7414,7,Jits_ISO_8,98,9999,9999,9999,1390131276
7414,7,Jits_ISO_8,99,9999,9999,9999,1390932032
7414,7,Jits_ISO_8,100,9999,9999,9999,1391731808
7414,7,Jits_ISO_8,101,9999,9999,9999,1392531516
7414,7,Jits_ISO_8,102,9999,9999,9999,1393331292
7414,7,Jits_ISO_8,103,9999,9999,9999,1394132048
7414,7,Jits_ISO_8,104,9999,9999,9999,1394931780
7414,7,Jits_ISO_8,105,9999,9999,9999,1395731568
7414,7,Jits_ISO_8,106,9999,9999,9999,1396531268
7414,7,Jits_ISO_8,107,9999,9999,9999,1397332076
7414,7,Jits_ISO_8,108,9999,9999,9999,1398131788
7414,7,Jits_ISO_8,109,9999,9999,9999,1398931568
7414,7,Jits_ISO_8,110,9999,9999,9999,1399731292
7414,7,Jits_ISO_8,111,9999,9999,9999,1400532048
7414,7,Jits_ISO_8,112,9999,9999,9999,1401331792
7414,7,Jits_ISO_8,113,9999,9999,9999,1402131516
7414,7,Jits_ISO_8,114,9999,9999,9999,1402931292
7414,7,Jits_ISO_8,115,9999,9999,9999,1403732048
7414,7,Jits_ISO_8,116,9999,9999,9999,1404531764
7414,7,Jits_ISO_8,117,9999,9999,9999,1405331552
7414,7,Jits_ISO_8,118,9999,9999,9999,1406131264
7414,7,Jits_ISO_8,119,9999,9999,9999,1406932088
7415,16,Jits_ISO_5,0,5,56,103,1414993308
7415,16,Jits_ISO_5,1,5,63,98,1414996484
7415,16,Jits_ISO_5,2,5,80,127,1414999604
7415,16,Jits_ISO_5,0,5,56,103,1415492956
7415,16,Jits_ISO_5,1,5,63,98,1415496124
7415,16,Jits_ISO_5,2,5,80,127,1415499548
7415,16,Jits_ISO_5,0,5,56,103,1415992544
7415,16,Jits_ISO_5,1,5,80,127,1416003040
7415,16,Jits_ISO_5,2,1,48,35,1416010420
7415,16,Jits_ISO_5,3,5,63,98,1416023488
7415,16,Jits_ISO_5,0,5,63,98,1416443220
7415,16,Jits_ISO_5,1,5,80,127,1416472820
7415,16,Jits_ISO_5,2,5,56,103,1416483536
7415,16,Jits_ISO_5,3,1,48,32,1416539088
7415,16,Jits_ISO_5,0,5,80,127,1417003484
7415,16,Jits_ISO_5,1,5,56,103,1417012560
7415,16,Jits_ISO_5,2,1,48,26,1417013524
7415,16,Jits_ISO_5,3,5,63,98,1417043568
7415,16,Jits_ISO_5,0,5,63,98,1417492748
7415,16,Jits_ISO_5,1,5,56,103,1417522648
7415,16,Jits_ISO_5,2,5,80,127,1417532692
7415,16,Jits_ISO_5,3,1,48,34,1417549964
7415,16,Jits_ISO_5,0,5,56,103,1417943384
7415,16,Jits_ISO_5,1,5,63,98,1417992564
7415,16,Jits_ISO_5,2,5,80,127,1418013096
7415,16,Jits_ISO_5,3,1,48,35,1418022140
7415,16,Jits_ISO_5,0,5,80,127,1418443276
7415,16,Jits_ISO_5,1,1,48,39,1418479904
7415,16,Jits_ISO_5,2,5,63,98,1418493572
7415,16,Jits_ISO_5,3,5,56,103,1418533508
7415,16,Jits_ISO_5,0,5,56,103,1418942728
7415,16,Jits_ISO_5,1,5,63,98,1418972404
7415,16,Jits_ISO_5,2,1,48,39,1419012560
7415,16,Jits_ISO_5,3,5,80,127,1419043440
7415,16,Jits_ISO_5,0,5,56,103,1419442476
7415,16,Jits_ISO_5,1,1,48,40,1419481188
7415,16,Jits_ISO_5,2,5,80,127,1419503180
7415,16,Jits_ISO_5,3,5,63,98,1419532556
7415,16,Jits_ISO_5,0,5,56,103,1419952484
7415,16,Jits_ISO_5,1,5,63,98,1419962608
7415,16,Jits_ISO_5,2,1,48,41,1419972624
7415,16,Jits_ISO_5,3,5,80,127,1420002612
7415,16,Jits_ISO_5,0,5,63,98,1420442940
7415,16,Jits_ISO_5,1,1,48,28,1420506812
7415,16,Jits_ISO_5,2,5,80,127,1420522828
7415,16,Jits_ISO_5,3,5,56,103,1420533244
7415,16,Jits_ISO_5,0,5,63,98,1420992872
7415,16,Jits_ISO_5,1,1,48,45,1421019436
7415,16,Jits_ISO_5,2,5,56,103,1421032824
7415,16,Jits_ISO_5,3,5,80,127,1421035816
7415,16,Jits_ISO_5,0,5,56,103,1421452588
7415,16,Jits_ISO_5,1,5,63,98,1421462784
7415,16,Jits_ISO_5,2,5,80,127,1421502796
7415,16,Jits_ISO_5,3,1,48,45,1421506212
7415,16,Jits_ISO_5,0,5,56,103,1421943116
7415,16,Jits_ISO_5,1,1,48,45,1421946180
7415,16,Jits_ISO_5,2,5,63,98,1421947596
7415,16,Jits_ISO_5,3,5,80,127,1421962596
7415,16,Jits_ISO_5,0,1,48,45,1422428204
7415,16,Jits_ISO_5,1,5,80,127,1422453032
7415,16,Jits_ISO_5,2,5,56,103,1422463452
7415,16,Jits_ISO_5,3,5,63,98,1422532892
7415,16,Jits_ISO_5,0,1,48,38,1422936776
7415,16,Jits_ISO_5,1,5,63,98,1422942500
7415,16,Jits_ISO_5,2,5,56,103,1422963108
7415,16,Jits_ISO_5,3,5,80,127,1423042884
7415,16,Jits_ISO_5,0,1,48,34,1423446028
7415,16,Jits_ISO_5,1,5,56,103,1423452500
7415,16,Jits_ISO_5,2,5,80,127,1423492436
7415,16,Jits_ISO_5,3,5,63,98,1423502708
7415,16,Jits_ISO_5,0,5,80,127,1423942944
7415,16,Jits_ISO_5,1,1,48,43,1423949724
7415,16,Jits_ISO_5,2,5,63,98,1423972836
7415,16,Jits_ISO_5,3,5,56,103,1424012624
7415,16,Jits_ISO_5,0,1,48,39,1424449020
7415,16,Jits_ISO_5,1,5,56,103,1424463360
7415,16,Jits_ISO_5,2,5,63,98,1424492888
7415,16,Jits_ISO_5,3,5,80,127,1424543308
7415,16,Jits_ISO_5,0,1,48,35,1424952360
7415,16,Jits_ISO_5,1,5,80,127,1424962944
7415,16,Jits_ISO_5,2,5,56,103,1425002884
7415,16,Jits_ISO_5,3,5,63,98,1425013080
7415,16,Jits_ISO_5,0,5,80,127,1425443280
7415,16,Jits_ISO_5,1,1,48,38,1425455464
7415,16,Jits_ISO_5,2,5,63,98,1425483284
7415,16,Jits_ISO_5,3,5,56,103,1425542476
7415,16,Jits_ISO_5,0,5,56,103,1425942804
7415,16,Jits_ISO_5,1,5,80,127,1425953224
7415,16,Jits_ISO_5,2,1,48,43,1425966156
7415,16,Jits_ISO_5,3,5,63,98,1426032932
7415,16,Jits_ISO_5,0,1,48,34,1426410904
7415,16,Jits_ISO_5,1,5,80,127,1426442540
7415,16,Jits_ISO_5,2,5,63,98,1426503004
7415,16,Jits_ISO_5,3,5,56,103,1426532812
7415,16,Jits_ISO_5,0,1,48,45,1426908124
7415,16,Jits_ISO_5,1,5,56,103,1426943468
7415,16,Jits_ISO_5,2,5,80,127,1427002724
7415,16,Jits_ISO_5,3,5,63,98,1427042736
7415,16,Jits_ISO_5,0,1,48,38,1427455316
7415,16,Jits_ISO_5,1,5,56,103,1427493476
7415,16,Jits_ISO_5,2,5,63,98,1427502404
7415,16,Jits_ISO_5,3,5,80,127,1427505764
7415,16,Jits_ISO_5,0,5,80,127,1427942716
7415,16,Jits_ISO_5,1,1,48,32,1427952736
7415,16,Jits_ISO_5,2,5,63,98,1428032844
7415,16,Jits_ISO_5,3,5,56,103,1428043336
7415,16,Jits_ISO_5,0,5,56,103,1428442420
7415,16,Jits_ISO_5,1,5,63,98,1428445676
7415,16,Jits_ISO_5,2,1,48,30,1428447244
7415,16,Jits_ISO_5,3,5,80,127,1428449908
7415,16,Jits_ISO_5,0,1,48,33,1428889228
7415,16,Jits_ISO_5,1,5,80,127,1428962684
7415,16,Jits_ISO_5,2,5,63,98,1429012972
7415,16,Jits_ISO_5,3,5,56,103,1429042496
7415,16,Jits_ISO_5,0,5,56,103,1429443020
7415,16,Jits_ISO_5,1,5,80,127,1429453216
7415,16,Jits_ISO_5,2,1,48,38,1429475368
7415,16,Jits_ISO_5,3,5,63,98,1429522764
7415,16,Jits_ISO_5,0,5,56,103,1429952808
7415,16,Jits_ISO_5,1,1,48,41,1429959068
7415,16,Jits_ISO_5,2,5,63,98,1429973408
7415,16,Jits_ISO_5,3,5,80,127,1430032700
7415,16,Jits_ISO_5,0,1,48,37,1430430552
7415,16,Jits_ISO_5,1,5,80,127,1430443548
7415,16,Jits_ISO_5,2,5,63,98,1430512960
7415,16,Jits_ISO_5,3,5,56,103,1430532432
7415,16,Jits_ISO_5,0,1,48,38,1430947004
7415,16,Jits_ISO_5,1,5,80,127,1430962544
7415,16,Jits_ISO_5,2,5,56,103,1430972664
7415,16,Jits_ISO_5,3,5,63,98,1430983008
7415,16,Jits_ISO_5,0,5,80,127,1431453140
7415,16,Jits_ISO_5,1,1,48,38,1431462112
7415,16,Jits_ISO_5,2,5,56,103,1431472544
7415,16,Jits_ISO_5,3,5,63,98,1431543148
7415,16,Jits_ISO_5,0,1,48,32,1431939216
7415,16,Jits_ISO_5,1,5,56,103,1431962920
7415,16,Jits_ISO_5,2,5,80,127,1431992596
7415,16,Jits_ISO_5,3,5,63,98,1432013352
7415,16,Jits_ISO_5,0,5,63,98,1432452476
7415,16,Jits_ISO_5,1,1,48,39,1432461444
7415,16,Jits_ISO_5,2,5,56,103,1432512784
7415,16,Jits_ISO_5,3,5,80,127,1432542532
7415,16,Jits_ISO_5,0,5,63,98,1432943140
7415,16,Jits_ISO_5,1,5,80,127,1432946504
7415,16,Jits_ISO_5,2,1,48,42,1432972184
7415,16,Jits_ISO_5,3,5,56,103,1433033112
7415,16,Jits_ISO_5,0,1,48,33,1433429268
7415,16,Jits_ISO_5,1,5,56,103,1433463236
7415,16,Jits_ISO_5,2,5,63,98,1433492764
7415,16,Jits_ISO_5,3,5,80,127,1433532760
7415,16,Jits_ISO_5,0,1,48,39,1433917016
7415,16,Jits_ISO_5,1,5,63,98,1433962900
7415,16,Jits_ISO_5,2,5,56,103,1434002688
7415,16,Jits_ISO_5,3,5,80,127,1434023280
7415,16,Jits_ISO_5,0,1,48,38,1434459972
7415,16,Jits_ISO_5,1,5,63,98,1434472744
7415,16,Jits_ISO_5,2,5,56,103,1434512836
7415,16,Jits_ISO_5,3,5,80,127,1434523180
7415,16,Jits_ISO_5,0,5,80,127,1434953380
7415,16,Jits_ISO_5,1,1,48,42,1434986992
7415,16,Jits_ISO_5,2,5,63,98,1435022832
7415,16,Jits_ISO_5,3,5,56,103,1435043140
7415,16,Jits_ISO_5,0,5,56,103,1435442496
7415,16,Jits_ISO_5,1,5,80,127,1435463176
7415,16,Jits_ISO_5,2,5,63,98,1435503264
7415,16,Jits_ISO_5,3,1,48,39,1435504528
7415,16,Jits_ISO_5,0,1,48,42,1435950456
7415,16,Jits_ISO_5,1,5,63,98,1435952424
7415,16,Jits_ISO_5,2,5,80,127,1435973032
7415,16,Jits_ISO_5,3,5,56,103,1436013188
7415,16,Jits_ISO_5,0,1,48,42,1436429192
7415,16,Jits_ISO_5,1,5,63,98,1436453352
7415,16,Jits_ISO_5,2,5,56,103,1436472616
7415,16,Jits_ISO_5,3,5,80,127,1436482956
7415,16,Jits_ISO_5,0,5,80,127,1436953232
7415,16,Jits_ISO_5,1,1,48,41,1436969980
7415,16,Jits_ISO_5,2,5,56,103,1436973388
7415,16,Jits_ISO_5,3,5,63,98,1437003288
7415,16,Jits_ISO_5,0,1,48,45,1437464484
7415,16,Jits_ISO_5,1,5,56,103,1437523248
7415,16,Jits_ISO_5,2,5,80,127,1437526392
7415,16,Jits_ISO_5,3,5,63,98,1437542736
7415,16,Jits_ISO_5,0,5,63,98,1437943272
7415,16,Jits_ISO_5,1,5,56,103,1437972800
7415,16,Jits_ISO_5,2,1,48,43,1437991876
7415,16,Jits_ISO_5,3,5,80,127,1438033252
7415,16,Jits_ISO_5,0,1,48,33,1438477952
7415,16,Jits_ISO_5,1,5,63,98,1438522864
7415,16,Jits_ISO_5,2,5,56,103,1438533060
7415,16,Jits_ISO_5,3,5,80,127,1438543180
7415,16,Jits_ISO_5,0,5,56,103,1438973388
7415,16,Jits_ISO_5,1,5,80,127,1439003212
7415,16,Jits_ISO_5,2,1,48,40,1439009024
7415,16,Jits_ISO_5,3,5,63,98,1439013252
7415,16,Jits_ISO_5,0,1,48,45,1439473256
7415,16,Jits_ISO_5,1,5,63,98,1439513360
7415,16,Jits_ISO_5,2,5,56,103,1439523260
7415,16,Jits_ISO_5,3,5,80,127,1439542744
7415,16,Jits_ISO_5,0,5,56,103,1439943256
7415,16,Jits_ISO_5,1,1,48,43,1439965480
7415,16,Jits_ISO_5,2,5,63,98,1440002312
7415,16,Jits_ISO_5,3,5,80,127,1440005904
7415,16,Jits_ISO_5,0,5,80,127,1440463224
7415,16,Jits_ISO_5,1,1,48,45,1440466864
7415,16,Jits_ISO_5,2,5,56,103,1440472292
7415,16,Jits_ISO_5,3,5,63,98,1440542968
7415,16,Jits_ISO_5,0,1,48,48,1440930188
7415,16,Jits_ISO_5,1,5,80,127,1440952700
7415,16,Jits_ISO_5,2,5,56,103,1441023440
7415,16,Jits_ISO_5,3,5,63,98,1441032588
7415,16,Jits_ISO_5,0,1,48,45,1441420336
7415,16,Jits_ISO_5,1,5,63,98,1441493416
7415,16,Jits_ISO_5,2,5,56,103,1441502564
7415,16,Jits_ISO_5,3,5,80,127,1441523256
7415,16,Jits_ISO_5,0,5,80,127,1441943332
7415,16,Jits_ISO_5,1,1,48,40,1441995900
7415,16,Jits_ISO_5,2,5,63,98,1442003272
7415,16,Jits_ISO_5,3,5,56,103,1442043380
7415,16,Jits_ISO_5,0,1,48,32,1442480520
7415,16,Jits_ISO_5,1,5,56,103,1442482484
7415,16,Jits_ISO_5,2,5,63,98,1442492904
7415,16,Jits_ISO_5,3,5,80,127,1442532692
7415,16,Jits_ISO_5,0,5,56,103,1442943340
7415,16,Jits_ISO_5,1,5,80,127,1442973016
7415,16,Jits_ISO_5,2,1,48,42,1442975836
7415,16,Jits_ISO_5,3,5,63,98,1443023280
7415,16,Jits_ISO_5,0,1,48,45,1443465828
7415,16,Jits_ISO_5,1,5,56,103,1443483088
7415,16,Jits_ISO_5,2,5,63,98,1443523172
7415,16,Jits_ISO_5,3,5,80,127,1443526460
7415,16,Jits_ISO_5,0,1,48,47,1443944052
7415,16,Jits_ISO_5,1,5,56,103,1443982588
7415,16,Jits_ISO_5,2,5,63,98,1443993156
7415,16,Jits_ISO_5,3,5,80,127,1444013392
7415,16,Jits_ISO_5,0,5,56,103,1444442540
7415,16,Jits_ISO_5,1,5,80,127,1444445608
7415,16,Jits_ISO_5,2,1,48,47,1444481196
7415,16,Jits_ISO_5,3,5,63,98,1444482692
7415,16,Jits_ISO_5,0,5,63,98,1444983104
7415,16,Jits_ISO_5,1,1,48,44,1444995060
7415,16,Jits_ISO_5,2,5,56,103,1445013220
7415,16,Jits_ISO_5,3,5,80,127,1445033308
7415,16,Jits_ISO_5,0,5,80,127,1445453244
7415,16,Jits_ISO_5,1,5,56,103,1445463516
7415,16,Jits_ISO_5,2,5,63,98,1445472592
7415,16,Jits_ISO_5,3,1,48,49,1445477728
7415,16,Jits_ISO_5,0,1,48,44,1445932584
7415,16,Jits_ISO_5,1,5,56,103,1445953056
7415,16,Jits_ISO_5,2,5,80,127,1445992996
7415,16,Jits_ISO_5,3,5,63,98,1446022524
7415,16,Jits_ISO_5,0,1,48,41,1446444000
7415,16,Jits_ISO_5,1,5,63,98,1446463056
7415,16,Jits_ISO_5,2,5,80,127,1446473176
7415,16,Jits_ISO_5,3,5,56,103,1446483224
7415,16,Jits_ISO_5,0,5,56,103,1446943164
7415,16,Jits_ISO_5,1,1,48,42,1446949424
7415,16,Jits_ISO_5,2,5,63,98,1447012912
7415,16,Jits_ISO_5,3,5,80,127,1447023180
7415,16,Jits_ISO_5,0,1,48,45,1447416880
7415,16,Jits_ISO_5,1,5,80,127,1447442904
7415,16,Jits_ISO_5,2,5,56,103,1447453248
7415,16,Jits_ISO_5,3,5,63,98,1447503152
7415,16,Jits_ISO_5,0,1,48,44,1447914888
7415,16,Jits_ISO_5,1,5,80,127,1447953044
7415,16,Jits_ISO_5,2,5,56,103,1448013272
7415,16,Jits_ISO_5,3,5,63,98,1448042944
7415,16,Jits_ISO_5,0,1,48,35,1448405752
7415,16,Jits_ISO_5,1,5,56,103,1448452556
7415,16,Jits_ISO_5,2,5,80,127,1448455620
7415,16,Jits_ISO_5,3,5,63,98,1448493312
7415,16,Jits_ISO_5,0,1,48,39,1448908460
7415,16,Jits_ISO_5,1,5,56,103,1448982988
7415,16,Jits_ISO_5,2,5,63,98,1449012504
7415,16,Jits_ISO_5,3,5,80,127,1449023072
7415,16,Jits_ISO_5,0,1,48,39,1449421692
7415,16,Jits_ISO_5,1,5,63,98,1449492916
7415,16,Jits_ISO_5,2,5,80,127,1449503036
7415,16,Jits_ISO_5,3,5,56,103,1449513308
7415,16,Jits_ISO_5,0,1,48,41,1449933564
7415,16,Jits_ISO_5,1,5,80,127,1449943328
7415,16,Jits_ISO_5,2,5,56,103,1449992424
7415,16,Jits_ISO_5,3,5,63,98,1449995644
7415,16,Jits_ISO_5,0,1,48,37,1450429976
7415,16,Jits_ISO_5,1,5,56,103,1450472964
7415,16,Jits_ISO_5,2,5,80,127,1450493348
7415,16,Jits_ISO_5,3,5,63,98,1450502648
7415,16,Jits_ISO_5,0,1,48,39,1450926496
7415,16,Jits_ISO_5,1,5,63,98,1450953120
7415,16,Jits_ISO_5,2,5,56,103,1450982896
7415,16,Jits_ISO_5,3,5,80,127,1451003352
7415,16,Jits_ISO_5,0,1,48,43,1451421588
7415,16,Jits_ISO_5,1,5,56,103,1451463116
7415,16,Jits_ISO_5,2,5,80,127,1451473312
7415,16,Jits_ISO_5,3,5,63,98,1451543072
7415,16,Jits_ISO_5,0,1,48,45,1451910904
7415,16,Jits_ISO_5,1,5,63,98,1451952580
7415,16,Jits_ISO_5,2,5,80,127,1451992296
7415,16,Jits_ISO_5,3,5,56,103,1452033284
7415,16,Jits_ISO_5,0,1,48,46,1452427928
7415,16,Jits_ISO_5,1,5,56,103,1452462424
7415,16,Jits_ISO_5,2,5,63,98,1452473140
7415,16,Jits_ISO_5,3,5,80,127,1452493152
7415,16,Jits_ISO_5,0,1,48,43,1452944220
7415,16,Jits_ISO_5,1,5,63,98,1453003060
7415,16,Jits_ISO_5,2,5,80,127,1453022620
7415,16,Jits_ISO_5,3,5,56,103,1453043164
7415,16,Jits_ISO_5,0,5,56,103,1453442492
7415,16,Jits_ISO_5,1,1,48,43,1453490348
7415,16,Jits_ISO_5,2,5,80,127,1453523252
7415,16,Jits_ISO_5,3,5,63,98,1453532624
7415,16,Jits_ISO_5,0,1,48,42,1453980108
7415,16,Jits_ISO_5,1,5,80,127,1453983212
7415,16,Jits_ISO_5,2,5,63,98,1453993408
7415,16,Jits_ISO_5,3,5,56,103,1454022936
7415,16,Jits_ISO_5,0,5,63,98,1454442800
7415,16,Jits_ISO_5,1,1,48,42,1454447864
7415,16,Jits_ISO_5,2,5,80,127,1454483028
7415,16,Jits_ISO_5,3,5,56,103,1454543104
7415,16,Jits_ISO_5,0,1,48,43,1454903768
7415,16,Jits_ISO_5,1,5,63,98,1454952788
7415,16,Jits_ISO_5,2,5,56,103,1455002976
7415,16,Jits_ISO_5,3,5,80,127,1455032948
7415,16,Jits_ISO_5,0,1,48,47,1455441940
7415,16,Jits_ISO_5,1,5,80,127,1455462936
7415,16,Jits_ISO_5,2,5,63,98,1455473132
7415,16,Jits_ISO_5,3,5,56,103,1455543016
7415,16,Jits_ISO_5,0,1,48,49,1455941592
7415,16,Jits_ISO_5,1,5,80,127,1456033092
7415,16,Jits_ISO_5,2,5,56,103,1456043344
7415,16,Jits_ISO_5,3,5,63,98,1456046412
7415,16,Jits_ISO_5,0,5,56,103,1456472444
7415,16,Jits_ISO_5,1,1,48,47,1456475036
7415,16,Jits_ISO_5,2,5,80,127,1456492972
7415,16,Jits_ISO_5,3,5,63,98,1456503168
7415,16,Jits_ISO_5,0,1,48,46,1456973508
7415,16,Jits_ISO_5,1,5,63,98,1456983272
7415,16,Jits_ISO_5,2,5,56,103,1457023288
7415,16,Jits_ISO_5,3,5,80,127,1457042996
7415,16,Jits_ISO_5,0,1,48,42,1457445596
7415,16,Jits_ISO_5,1,5,63,98,1457483084
7415,16,Jits_ISO_5,2,5,56,103,1457542632
7415,16,Jits_ISO_5,3,5,80,127,1457545848
7415,16,Jits_ISO_5,0,5,56,103,1457942888
7415,16,Jits_ISO_5,1,1,48,43,1457957688
7415,16,Jits_ISO_5,2,5,80,127,1457963340
7415,16,Jits_ISO_5,3,5,63,98,1458003428
7415,16,Jits_ISO_5,0,1,48,48,1458460888
7415,16,Jits_ISO_5,1,5,56,103,1458473268
7415,16,Jits_ISO_5,2,5,63,98,1458492828
7415,16,Jits_ISO_5,3,5,80,127,1458503024
7415,16,Jits_ISO_5,0,5,80,127,1458943264
7415,16,Jits_ISO_5,1,1,48,48,1458957396
7415,16,Jits_ISO_5,2,5,56,103,1458973004
7415,16,Jits_ISO_5,3,5,63,98,1459012940
7415,16,Jits_ISO_5,0,1,48,50,1459414852
7415,16,Jits_ISO_5,1,5,80,127,1459453264
7415,16,Jits_ISO_5,2,5,56,103,1459472972
7415,16,Jits_ISO_5,3,5,63,98,1459533124
7415,16,Jits_ISO_5,0,1,48,47,1459901180
7415,16,Jits_ISO_5,1,5,56,103,1459963332
7415,16,Jits_ISO_5,2,5,80,127,1459982892
7415,16,Jits_ISO_5,3,5,63,98,1460043040
7415,16,Jits_ISO_5,0,1,48,47,1460424736
7415,16,Jits_ISO_5,1,5,80,127,1460442516
7415,16,Jits_ISO_5,2,5,56,103,1460452884
7415,16,Jits_ISO_5,3,5,63,98,1460492820
7415,16,Jits_ISO_5,0,1,48,39,1460898604
7415,16,Jits_ISO_5,1,5,63,98,1460943068
7415,16,Jits_ISO_5,2,5,56,103,1460983024
7415,16,Jits_ISO_5,3,5,80,127,1460986244
7415,16,Jits_ISO_5,0,1,48,39,1461430016
7415,16,Jits_ISO_5,1,5,63,98,1461463316
7415,16,Jits_ISO_5,2,5,80,127,1461503204
7415,16,Jits_ISO_5,3,5,56,103,1461533012
7415,16,Jits_ISO_5,0,1,48,34,1461933880
7415,16,Jits_ISO_5,1,5,56,103,1461952860
7415,16,Jits_ISO_5,2,5,63,98,1461963132
7415,16,Jits_ISO_5,3,5,80,127,1461993052
7415,16,Jits_ISO_5,0,5,80,127,1462443748
7415,16,Jits_ISO_5,1,1,48,46,1462446040
7415,16,Jits_ISO_5,2,5,63,98,1462513148
7415,16,Jits_ISO_5,3,5,56,103,1462523196
7415,16,Jits_ISO_5,0,5,63,98,1462943048
7415,16,Jits_ISO_5,1,1,48,46,1462962952
7415,16,Jits_ISO_5,2,5,56,103,1463012820
7415,16,Jits_ISO_5,3,5,80,127,1463023016
7415,16,Jits_ISO_5,0,5,63,98,1463442708
7415,16,Jits_ISO_5,1,5,56,103,1463463316
7415,16,Jits_ISO_5,2,1,48,49,1463464948
7415,16,Jits_ISO_5,3,5,80,127,1463503096
7415,16,Jits_ISO_5,0,5,56,103,1463952700
7415,16,Jits_ISO_5,1,1,48,43,1463959636
7415,16,Jits_ISO_5,2,5,63,98,1463963040
7415,16,Jits_ISO_5,3,5,80,127,1464042856
7415,16,Jits_ISO_5,0,5,63,98,1464443232
7415,16,Jits_ISO_5,1,1,48,46,1464464636
7415,16,Jits_ISO_5,2,5,56,103,1464472900
7415,16,Jits_ISO_5,3,5,80,127,1464512988
7415,16,Jits_ISO_5,0,1,48,38,1464909208
7415,16,Jits_ISO_5,1,5,56,103,1464942956
7415,16,Jits_ISO_5,2,5,63,98,1464982892
7415,16,Jits_ISO_5,3,5,80,127,1465022888
7415,16,Jits_ISO_5,0,1,48,46,1465431724
7415,16,Jits_ISO_5,1,5,80,127,1465442760
7415,16,Jits_ISO_5,2,5,56,103,1465522628
7415,16,Jits_ISO_5,3,5,63,98,1465532960
7415,16,Jits_ISO_5,0,1,48,34,1465920508
7415,16,Jits_ISO_5,1,5,56,103,1465983548
7415,16,Jits_ISO_5,2,5,63,98,1465986616
7415,16,Jits_ISO_5,3,5,80,127,1465992848
7415,16,Jits_ISO_5,0,1,48,44,1466474408
7415,16,Jits_ISO_5,1,5,56,103,1466502756
7415,16,Jits_ISO_5,2,5,63,98,1466522916
7415,16,Jits_ISO_5,3,5,80,127,1466533112
7415,16,Jits_ISO_5,0,5,63,98,1466963240
7415,16,Jits_ISO_5,1,5,80,127,1466972536
7415,16,Jits_ISO_5,2,1,48,33,1466977528
7415,16,Jits_ISO_5,3,5,56,103,1466993064
7415,16,Jits_ISO_5,0,1,48,49,1467444204
7415,16,Jits_ISO_5,1,5,63,98,1467462892
7415,16,Jits_ISO_5,2,5,56,103,1467542892
7415,16,Jits_ISO_5,3,5,80,127,1467545956
7415,16,Jits_ISO_5,0,1,48,40,1467957492
7415,16,Jits_ISO_5,1,5,63,98,1467962692
7415,16,Jits_ISO_5,2,5,56,103,1467983152
7415,16,Jits_ISO_5,3,5,80,127,1468012900
7415,16,Jits_ISO_5,0,1,48,30,1468459544
7415,16,Jits_ISO_5,1,5,56,103,1468462576
7415,16,Jits_ISO_5,2,5,63,98,1468482884
7415,16,Jits_ISO_5,3,5,80,127,1468493228
7415,16,Jits_ISO_5,0,1,48,35,1468944968
7415,16,Jits_ISO_5,1,5,56,103,1468992872
7415,16,Jits_ISO_5,2,5,63,98,1469022772
7415,16,Jits_ISO_5,3,5,80,127,1469025908
7415,16,Jits_ISO_5,0,5,56,103,1469442632
7415,16,Jits_ISO_5,1,1,48,43,1469466572
7415,16,Jits_ISO_5,2,5,63,98,1469483464
7415,16,Jits_ISO_5,3,5,80,127,1469542656
7415,16,Jits_ISO_5,0,1,48,37,1469910192
7415,16,Jits_ISO_5,1,5,56,103,1469962676
7415,16,Jits_ISO_5,2,5,63,98,1469972796
7415,16,Jits_ISO_5,3,5,80,127,1470033244
7415,16,Jits_ISO_5,0,1,48,36,1470433888
7415,16,Jits_ISO_5,1,5,56,103,1470463380
7415,16,Jits_ISO_5,2,5,80,127,1470482944
7415,16,Jits_ISO_5,3,5,63,98,1470512468
7415,16,Jits_ISO_5,0,1,48,40,1470914440
7415,16,Jits_ISO_5,1,5,80,127,1470963040
7415,16,Jits_ISO_5,2,5,56,103,1470973384
7415,16,Jits_ISO_5,3,5,63,98,1470992796
7415,16,Jits_ISO_5,0,5,63,98,1471452716
7415,16,Jits_ISO_5,1,1,48,43,1471453680
7415,16,Jits_ISO_5,2,5,80,127,1471533576
7415,16,Jits_ISO_5,3,5,56,103,1471542652
7415,16,Jits_ISO_5,0,1,48,31,1471951152
7415,16,Jits_ISO_5,1,5,80,127,1472012632
7415,16,Jits_ISO_5,2,5,56,103,1472033088
7415,16,Jits_ISO_5,3,5,63,98,1472036156
7415,16,Jits_ISO_5,0,1,48,41,1472460752
7415,16,Jits_ISO_5,1,5,63,98,1472482740
7415,16,Jits_ISO_5,2,5,80,127,1472486056
7415,16,Jits_ISO_5,3,5,56,103,1472543080
7415,16,Jits_ISO_5,0,1,48,26,1472934788
7415,16,Jits_ISO_5,1,5,56,103,1472962840
7415,16,Jits_ISO_5,2,5,80,127,1472973184
7415,16,Jits_ISO_5,3,5,63,98,1473013148
7415,16,Jits_ISO_5,0,1,48,35,1473426952
7415,16,Jits_ISO_5,1,5,56,103,1473443240
7415,16,Jits_ISO_5,2,5,63,98,1473502732
7415,16,Jits_ISO_5,3,5,80,127,1473512804
7415,16,Jits_ISO_5,0,1,48,25,1473914700
7415,16,Jits_ISO_5,1,5,63,98,1473953236
7415,16,Jits_ISO_5,2,5,80,127,1473992952
7415,16,Jits_ISO_5,3,5,56,103,1474033048
7415,16,Jits_ISO_5,0,1,48,35,1474420196
7415,16,Jits_ISO_5,1,5,56,103,1474452824
7415,16,Jits_ISO_5,2,5,63,98,1474532848
7415,16,Jits_ISO_5,3,5,80,127,1474536064
7415,16,Jits_ISO_5,0,9999,9999,9999,1415240812
7415,16,Jits_ISO_5,1,9999,9999,9999,1415740532
7415,16,Jits_ISO_5,2,9999,9999,9999,1416240180
7415,16,Jits_ISO_5,3,9999,9999,9999,1416740968
7415,16,Jits_ISO_5,4,9999,9999,9999,1417240632
7415,16,Jits_ISO_5,5,9999,9999,9999,1417740384
7415,16,Jits_ISO_5,6,9999,9999,9999,1418240116
7415,16,Jits_ISO_5,7,9999,9999,9999,1418740832
7415,16,Jits_ISO_5,8,9999,9999,9999,1419240504
7415,16,Jits_ISO_5,9,9999,9999,9999,1419740228
7415,16,Jits_ISO_5,10,9999,9999,9999,1420240944
7415,16,Jits_ISO_5,11,9999,9999,9999,1420740696
7415,16,Jits_ISO_5,12,9999,9999,9999,1421240424
7415,16,Jits_ISO_5,13,9999,9999,9999,1421740152
7415,16,Jits_ISO_5,14,9999,9999,9999,1422240856
7415,16,Jits_ISO_5,15,9999,9999,9999,1422740604
7415,16,Jits_ISO_5,16,9999,9999,9999,1423240260
7415,16,Jits_ISO_5,17,9999,9999,9999,1423741040
7415,16,Jits_ISO_5,18,9999,9999,9999,1424240696
7415,16,Jits_ISO_5,19,9999,9999,9999,1424740444
7415,16,Jits_ISO_5,20,9999,9999,9999,1425240180
7415,16,Jits_ISO_5,21,9999,9999,9999,1425740884
7415,16,Jits_ISO_5,22,9999,9999,9999,1426240628
7415,16,Jits_ISO_5,23,9999,9999,9999,1426740304
7415,16,Jits_ISO_5,24,9999,9999,9999,1427241084
7415,16,Jits_ISO_5,25,9999,9999,9999,1427740736
7415,16,Jits_ISO_5,26,9999,9999,9999,1428240472
7415,16,Jits_ISO_5,27,9999,9999,9999,1428740196
7415,16,Jits_ISO_5,28,9999,9999,9999,1429240916
7415,16,Jits_ISO_5,29,9999,9999,9999,1429740648
7415,16,Jits_ISO_5,30,9999,9999,9999,1430240372
7415,16,Jits_ISO_5,31,9999,9999,9999,1430741088
7415,16,Jits_ISO_5,32,9999,9999,9999,1431240820
7415,16,Jits_ISO_5,33,9999,9999,9999,1431740484
7415,16,Jits_ISO_5,34,9999,9999,9999,1432240232
7415,16,Jits_ISO_5,35,9999,9999,9999,1432740940
7415,16,Jits_ISO_5,36,9999,9999,9999,1433240660
7415,16,Jits_ISO_5,37,9999,9999,9999,1433740396
7415,16,Jits_ISO_5,38,9999,9999,9999,1434240060
7415,16,Jits_ISO_5,39,9999,9999,9999,1434740840
7415,16,Jits_ISO_5,40,9999,9999,9999,1435240500
7415,16,Jits_ISO_5,41,9999,9999,9999,1435740248
7415,16,Jits_ISO_5,42,9999,9999,9999,1436240968
7415,16,Jits_ISO_5,43,9999,9999,9999,1436740696
7415,16,Jits_ISO_5,44,9999,9999,9999,1437240424
7415,16,Jits_ISO_5,45,9999,9999,9999,1437740096
7415,16,Jits_ISO_5,46,9999,9999,9999,1438240876
7415,16,Jits_ISO_5,47,9999,9999,9999,1438740540
7415,16,Jits_ISO_5,48,9999,9999,9999,1439240276
7415,16,Jits_ISO_5,49,9999,9999,9999,1439741004
7415,16,Jits_ISO_5,50,9999,9999,9999,1440240728
7415,16,Jits_ISO_5,51,9999,9999,9999,1440740452
7415,16,Jits_ISO_5,52,9999,9999,9999,1441240124
7415,16,Jits_ISO_5,53,9999,9999,9999,1441740908
7415,16,Jits_ISO_5,54,9999,9999,9999,1442240568
7415,16,Jits_ISO_5,55,9999,9999,9999,1442740316
7415,16,Jits_ISO_5,56,9999,9999,9999,1443241016
7415,16,Jits_ISO_5,57,9999,9999,9999,1443740760
7415,16,Jits_ISO_5,58,9999,9999,9999,1444240492
7415,16,Jits_ISO_5,59,9999,9999,9999,1444740208
7415,16,Jits_ISO_5,60,9999,9999,9999,1445240928
7415,16,Jits_ISO_5,61,9999,9999,9999,1445740660
7415,16,Jits_ISO_5,62,9999,9999,9999,1446240336
7415,16,Jits_ISO_5,63,9999,9999,9999,1446741112
7415,16,Jits_ISO_5,64,9999,9999,9999,1447240768
7415,16,Jits_ISO_5,65,9999,9999,9999,1447740512
7415,16,Jits_ISO_5,66,9999,9999,9999,1448240248
7415,16,Jits_ISO_5,67,9999,9999,9999,1448740936
7415,16,Jits_ISO_5,68,9999,9999,9999,1449240672
7415,16,Jits_ISO_5,69,9999,9999,9999,1449740408
7415,16,Jits_ISO_5,70,9999,9999,9999,1450240056
7415,16,Jits_ISO_5,71,9999,9999,9999,1450740836
7415,16,Jits_ISO_5,72,9999,9999,9999,1451240568
7415,16,Jits_ISO_5,73,9999,9999,9999,1451740276
7415,16,Jits_ISO_5,74,9999,9999,9999,1452240972
7415,16,Jits_ISO_5,75,9999,9999,9999,1452740700
7415,16,Jits_ISO_5,76,9999,9999,9999,1453240440
7415,16,Jits_ISO_5,77,9999,9999,9999,1453740100
7415,16,Jits_ISO_5,78,9999,9999,9999,1454240820
7415,16,Jits_ISO_5,79,9999,9999,9999,1454740552
7415,16,Jits_ISO_5,80,9999,9999,9999,1455240288
7415,16,Jits_ISO_5,81,9999,9999,9999,1455740992
7415,16,Jits_ISO_5,82,9999,9999,9999,1456240720
7415,16,Jits_ISO_5,83,9999,9999,9999,1456740456
7415,16,Jits_ISO_5,84,9999,9999,9999,1457240132
7415,16,Jits_ISO_5,85,9999,9999,9999,1457740908
7415,16,Jits_ISO_5,86,9999,9999,9999,1458240564
7415,16,Jits_ISO_5,87,9999,9999,9999,1458740312
7415,16,Jits_ISO_5,88,9999,9999,9999,1459241012
7415,16,Jits_ISO_5,89,9999,9999,9999,1459740760
7415,16,Jits_ISO_5,90,9999,9999,9999,1460240492
7415,16,Jits_ISO_5,91,9999,9999,9999,1460740148
7415,16,Jits_ISO_5,92,9999,9999,9999,1461240916
7415,16,Jits_ISO_5,93,9999,9999,9999,1461740648
7415,16,Jits_ISO_5,94,9999,9999,9999,1462240356
7415,16,Jits_ISO_5,95,9999,9999,9999,1462741056
7415,16,Jits_ISO_5,96,9999,9999,9999,1463240804
7415,16,Jits_ISO_5,97,9999,9999,9999,1463740532
7415,16,Jits_ISO_5,98,9999,9999,9999,1464240192
7415,16,Jits_ISO_5,99,9999,9999,9999,1464740984
7415,16,Jits_ISO_5,100,9999,9999,9999,1465240640
7415,16,Jits_ISO_5,101,9999,9999,9999,1465740372
7415,16,Jits_ISO_5,102,9999,9999,9999,1466240100
7415,16,Jits_ISO_5,103,9999,9999,9999,1466740808
7415,16,Jits_ISO_5,104,9999,9999,9999,1467240540
7415,16,Jits_ISO_5,105,9999,9999,9999,1467740268
7415,16,Jits_ISO_5,106,9999,9999,9999,1468240972
7415,16,Jits_ISO_5,107,9999,9999,9999,1468740704
7415,16,Jits_ISO_5,108,9999,9999,9999,1469240432
7415,16,Jits_ISO_5,109,9999,9999,9999,1469740088
7415,16,Jits_ISO_5,110,9999,9999,9999,1470240880
7415,16,Jits_ISO_5,111,9999,9999,9999,1470740544
7415,16,Jits_ISO_5,112,9999,9999,9999,1471240272
7415,16,Jits_ISO_5,113,9999,9999,9999,1471740984
7415,16,Jits_ISO_5,114,9999,9999,9999,1472240712
7415,16,Jits_ISO_5,115,9999,9999,9999,1472740440
7415,16,Jits_ISO_5,116,9999,9999,9999,1473240148
7415,16,Jits_ISO_5,117,9999,9999,9999,1473740924
7415,16,Jits_ISO_5,118,9999,9999,9999,1474240584
7415,16,Jits_ISO_5,119,9999,9999,9999,1474740312
7416,18,Jits_Linear_8,0,5,56,103,1484852520
7416,18,Jits_Linear_8,1,5,63,98,1484855620
7416,18,Jits_Linear_8,2,5,80,127,1484858820
7416,18,Jits_Linear_8,0,1,48,18,1485385156
7416,18,Jits_Linear_8,1,5,56,103,1485672740
7416,18,Jits_Linear_8,2,5,63,98,1485675760
7416,18,Jits_Linear_8,3,5,80,127,1485679032
7416,18,Jits_Linear_8,0,1,48,30,1486391184
7416,18,Jits_Linear_8,1,5,80,127,1486432492
7416,18,Jits_Linear_8,2,5,63,98,1486522688
7416,18,Jits_Linear_8,3,5,56,103,1486533032
7416,18,Jits_Linear_8,0,1,48,38,1487260848
7416,18,Jits_Linear_8,1,5,56,103,1487273452
7416,18,Jits_Linear_8,2,5,63,98,1487282528
7416,18,Jits_Linear_8,3,5,80,127,1487372520
7416,18,Jits_Linear_8,0,1,48,43,1487973828
7416,18,Jits_Linear_8,1,5,63,98,1488062940
7416,18,Jits_Linear_8,2,5,80,127,1488092528
7416,18,Jits_Linear_8,3,5,56,103,1488123496
7416,18,Jits_Linear_8,0,1,48,29,1488729660
7416,18,Jits_Linear_8,1,5,56,103,1488883224
7416,18,Jits_Linear_8,2,5,80,127,1488983548
7416,18,Jits_Linear_8,3,5,63,98,1489032556
7416,18,Jits_Linear_8,0,5,56,103,1489692968
7416,18,Jits_Linear_8,1,5,80,127,1489743396
7416,18,Jits_Linear_8,2,1,48,39,1489761360
7416,18,Jits_Linear_8,3,5,63,98,1489783104
7416,18,Jits_Linear_8,0,1,48,31,1490413280
7416,18,Jits_Linear_8,1,5,80,127,1490532868
7416,18,Jits_Linear_8,2,5,63,98,1490562396
7416,18,Jits_Linear_8,3,5,56,103,1490633052
7416,18,Jits_Linear_8,0,1,48,35,1491281220
7416,18,Jits_Linear_8,1,5,63,98,1491373532
7416,18,Jits_Linear_8,2,5,56,103,1491403208
7416,18,Jits_Linear_8,3,5,80,127,1491462652
7416,18,Jits_Linear_8,0,1,48,39,1492084944
7416,18,Jits_Linear_8,1,5,56,103,1492122956
7416,18,Jits_Linear_8,2,5,80,127,1492126320
7416,18,Jits_Linear_8,3,5,63,98,1492242840
7416,18,Jits_Linear_8,0,1,48,32,1492900556
7416,18,Jits_Linear_8,1,5,56,103,1493002652
7416,18,Jits_Linear_8,2,5,80,127,1493042520
7416,18,Jits_Linear_8,3,5,63,98,1493052716
7416,18,Jits_Linear_8,0,1,48,38,1493700784
7416,18,Jits_Linear_8,1,5,56,103,1493762492
7416,18,Jits_Linear_8,2,5,80,127,1493782876
7416,18,Jits_Linear_8,3,5,63,98,1493862732
7416,18,Jits_Linear_8,0,1,48,35,1494524312
7416,18,Jits_Linear_8,1,5,80,127,1494552884
7416,18,Jits_Linear_8,2,5,56,103,1494653192
7416,18,Jits_Linear_8,3,5,63,98,1494662640
7416,18,Jits_Linear_8,0,1,48,42,1495310192
7416,18,Jits_Linear_8,1,5,63,98,1495322896
7416,18,Jits_Linear_8,2,5,80,127,1495383364
7416,18,Jits_Linear_8,3,5,56,103,1495392512
7416,18,Jits_Linear_8,0,1,48,33,1496024664
7416,18,Jits_Linear_8,1,5,56,103,1496123528
7416,18,Jits_Linear_8,2,5,63,98,1496193360
7416,18,Jits_Linear_8,3,5,80,127,1496196720
7416,18,Jits_Linear_8,0,1,48,28,1496827048
7416,18,Jits_Linear_8,1,5,63,98,1496953160
7416,18,Jits_Linear_8,2,5,56,103,1497003440
7416,18,Jits_Linear_8,3,5,80,127,1497006580
7416,18,Jits_Linear_8,0,1,48,31,1497636236
7416,18,Jits_Linear_8,1,5,56,103,1497702720
7416,18,Jits_Linear_8,2,5,80,127,1497705712
7416,18,Jits_Linear_8,3,5,63,98,1497792764
7416,18,Jits_Linear_8,0,1,48,32,1498436196
7416,18,Jits_Linear_8,1,5,63,98,1498533240
7416,18,Jits_Linear_8,2,5,56,103,1498623476
7416,18,Jits_Linear_8,3,5,80,127,1498653076
7416,18,Jits_Linear_8,0,1,48,31,1499259552
7416,18,Jits_Linear_8,1,5,56,103,1499312484
7416,18,Jits_Linear_8,2,5,63,98,1499412748
7416,18,Jits_Linear_8,3,5,80,127,1499442648
7416,18,Jits_Linear_8,0,1,48,35,1500104424
7416,18,Jits_Linear_8,1,5,63,98,1500122508
7416,18,Jits_Linear_8,2,5,56,103,1500132656
7416,18,Jits_Linear_8,3,5,80,127,1500222772
7416,18,Jits_Linear_8,0,1,48,39,1500855628
7416,18,Jits_Linear_8,1,5,63,98,1500923336
7416,18,Jits_Linear_8,2,5,56,103,1501003424
7416,18,Jits_Linear_8,3,5,80,127,1501006336
7416,18,Jits_Linear_8,0,5,80,127,1501662612
7416,18,Jits_Linear_8,1,1,48,39,1501679008
7416,18,Jits_Linear_8,2,5,63,98,1501683236
7416,18,Jits_Linear_8,3,5,56,103,1501742432
7416,18,Jits_Linear_8,0,1,48,40,1502420748
7416,18,Jits_Linear_8,1,5,56,103,1502482996
7416,18,Jits_Linear_8,2,5,63,98,1502503308
7416,18,Jits_Linear_8,3,5,80,127,1502506672
7416,18,Jits_Linear_8,0,5,63,98,1503202732
7416,18,Jits_Linear_8,1,1,48,46,1503207268
7416,18,Jits_Linear_8,2,5,80,127,1503282524
7416,18,Jits_Linear_8,3,5,56,103,1503292644
7416,18,Jits_Linear_8,0,1,48,45,1503954476
7416,18,Jits_Linear_8,1,5,63,98,1504002408
7416,18,Jits_Linear_8,2,5,56,103,1504023164
7416,18,Jits_Linear_8,3,5,80,127,1504073352
7416,18,Jits_Linear_8,0,1,48,40,1504733180
7416,18,Jits_Linear_8,1,5,80,127,1504782680
7416,18,Jits_Linear_8,2,5,63,98,1504822696
7416,18,Jits_Linear_8,3,5,56,103,1504843212
7416,18,Jits_Linear_8,0,1,48,40,1505490068
7416,18,Jits_Linear_8,1,5,56,103,1505592608
7416,18,Jits_Linear_8,2,5,63,98,1505602956
7416,18,Jits_Linear_8,3,5,80,127,1505623340
7416,18,Jits_Linear_8,0,1,48,40,1506230032
7416,18,Jits_Linear_8,1,5,56,103,1506293180
7416,18,Jits_Linear_8,2,5,63,98,1506383304
7416,18,Jits_Linear_8,3,5,80,127,1506442720
7416,18,Jits_Linear_8,0,5,80,127,1507092948
7416,18,Jits_Linear_8,1,5,56,103,1507103068
7416,18,Jits_Linear_8,2,5,63,98,1507172676
7416,18,Jits_Linear_8,0,5,63,98,1507892528
7416,18,Jits_Linear_8,1,1,48,22,1507895496
7416,18,Jits_Linear_8,2,5,80,127,1507982584
7416,18,Jits_Linear_8,3,5,56,103,1507993060
7416,18,Jits_Linear_8,0,5,63,98,1508593088
7416,18,Jits_Linear_8,1,1,48,40,1508602656
7416,18,Jits_Linear_8,2,5,80,127,1508643288
7416,18,Jits_Linear_8,3,5,56,103,1508702464
7416,18,Jits_Linear_8,0,1,48,32,1509304600
7416,18,Jits_Linear_8,1,5,56,103,1509382424
7416,18,Jits_Linear_8,2,5,80,127,1509432612
7416,18,Jits_Linear_8,3,5,63,98,1509453144
7416,18,Jits_Linear_8,0,5,56,103,1510112628
7416,18,Jits_Linear_8,1,1,48,39,1510144468
7416,18,Jits_Linear_8,2,5,80,127,1510173040
7416,18,Jits_Linear_8,3,5,63,98,1510242796
7416,18,Jits_Linear_8,0,1,48,27,1510862244
7416,18,Jits_Linear_8,1,5,56,103,1510882672
7416,18,Jits_Linear_8,2,5,80,127,1510913396
7416,18,Jits_Linear_8,3,5,63,98,1510943068
7416,18,Jits_Linear_8,0,1,48,25,1511580384
7416,18,Jits_Linear_8,1,5,56,103,1511682480
7416,18,Jits_Linear_8,2,5,80,127,1511703088
7416,18,Jits_Linear_8,3,5,63,98,1511763404
7416,18,Jits_Linear_8,0,1,48,30,1512420324
7416,18,Jits_Linear_8,1,5,80,127,1512523220
7416,18,Jits_Linear_8,2,5,56,103,1512533564
7416,18,Jits_Linear_8,3,5,63,98,1512542564
7416,18,Jits_Linear_8,0,5,56,103,1513232652
7416,18,Jits_Linear_8,1,1,48,32,1513235316
7416,18,Jits_Linear_8,2,5,80,127,1513272656
7416,18,Jits_Linear_8,3,5,63,98,1513303380
7416,18,Jits_Linear_8,0,5,56,103,1513952608
7416,18,Jits_Linear_8,1,1,48,44,1513963172
7416,18,Jits_Linear_8,2,5,63,98,1513983200
7416,18,Jits_Linear_8,3,5,80,127,1514023140
7416,18,Jits_Linear_8,0,5,80,127,1514653180
7416,18,Jits_Linear_8,1,1,48,31,1514679968
7416,18,Jits_Linear_8,2,5,63,98,1514703228
7416,18,Jits_Linear_8,3,5,56,103,1514722592
7416,18,Jits_Linear_8,0,1,48,41,1515391020
7416,18,Jits_Linear_8,1,5,56,103,1515433236
7416,18,Jits_Linear_8,2,5,80,127,1515503156
7416,18,Jits_Linear_8,3,5,63,98,1515563324
7416,18,Jits_Linear_8,0,1,48,44,1516167108
7416,18,Jits_Linear_8,1,5,80,127,1516172612
7416,18,Jits_Linear_8,2,5,63,98,1516262924
7416,18,Jits_Linear_8,3,5,56,103,1516283220
7416,18,Jits_Linear_8,0,1,48,44,1516887824
7416,18,Jits_Linear_8,1,5,63,98,1516932364
7416,18,Jits_Linear_8,2,5,56,103,1516953048
7416,18,Jits_Linear_8,3,5,80,127,1516992896
7416,18,Jits_Linear_8,0,1,48,43,1517610928
7416,18,Jits_Linear_8,1,5,80,127,1517632924
7416,18,Jits_Linear_8,2,5,63,98,1517653456
7416,18,Jits_Linear_8,3,5,56,103,1517733236
7416,18,Jits_Linear_8,0,1,48,45,1518282780
7416,18,Jits_Linear_8,1,5,63,98,1518362920
7416,18,Jits_Linear_8,2,5,56,103,1518472520
7416,18,Jits_Linear_8,3,5,80,127,1518475588
7416,18,Jits_Linear_8,0,1,48,41,1519102628
7416,18,Jits_Linear_8,1,5,63,98,1519122880
7416,18,Jits_Linear_8,2,5,56,103,1519133076
7416,18,Jits_Linear_8,3,5,80,127,1519135992
7416,18,Jits_Linear_8,0,5,56,103,1519842688
7416,18,Jits_Linear_8,1,1,48,32,1519858840
7416,18,Jits_Linear_8,2,5,80,127,1519962548
7416,18,Jits_Linear_8,3,5,63,98,1520002636
7416,18,Jits_Linear_8,0,5,56,103,1520593364
7416,18,Jits_Linear_8,1,1,48,42,1520609908
7416,18,Jits_Linear_8,2,5,80,127,1520673104
7416,18,Jits_Linear_8,3,5,63,98,1520692740
7416,18,Jits_Linear_8,0,1,48,39,1521206540
7416,18,Jits_Linear_8,1,5,56,103,1521323436
7416,18,Jits_Linear_8,2,5,63,98,1521432848
7416,18,Jits_Linear_8,3,5,80,127,1521436288
7416,18,Jits_Linear_8,0,1,48,37,1522061896
7416,18,Jits_Linear_8,1,5,56,103,1522083192
7416,18,Jits_Linear_8,2,5,80,127,1522113020
7416,18,Jits_Linear_8,3,5,63,98,1522133328
7416,18,Jits_Linear_8,0,1,48,44,1522782312
7416,18,Jits_Linear_8,1,5,63,98,1522792968
7416,18,Jits_Linear_8,2,5,56,103,1522803092
7416,18,Jits_Linear_8,3,5,80,127,1522813360
7416,18,Jits_Linear_8,0,5,80,127,1523502300
7416,18,Jits_Linear_8,1,1,48,41,1523508032
7416,18,Jits_Linear_8,2,5,56,103,1523552572
7416,18,Jits_Linear_8,3,5,63,98,1523592512
7416,18,Jits_Linear_8,0,5,80,127,1524242884
7416,18,Jits_Linear_8,1,1,48,41,1524260376
7416,18,Jits_Linear_8,2,5,63,98,1524263260
7416,18,Jits_Linear_8,3,5,56,103,1524312416
7416,18,Jits_Linear_8,0,5,80,127,1524973120
7416,18,Jits_Linear_8,1,5,56,103,1525002576
7416,18,Jits_Linear_8,2,1,48,30,1525011844
7416,18,Jits_Linear_8,3,5,63,98,1525073148
7416,18,Jits_Linear_8,0,1,48,34,1525732108
7416,18,Jits_Linear_8,1,5,56,103,1525742996
7416,18,Jits_Linear_8,2,5,80,127,1525753196
7416,18,Jits_Linear_8,3,5,63,98,1525793060
7416,18,Jits_Linear_8,0,5,56,103,1526372892
7416,18,Jits_Linear_8,1,5,63,98,1526393128
7416,18,Jits_Linear_8,2,5,80,127,1526462808
7416,18,Jits_Linear_8,3,1,48,46,1526487276
7416,18,Jits_Linear_8,0,1,48,35,1527093664
7416,18,Jits_Linear_8,1,5,63,98,1527113016
7416,18,Jits_Linear_8,2,5,80,127,1527172512
7416,18,Jits_Linear_8,3,5,56,103,1527192956
7416,18,Jits_Linear_8,0,5,80,127,1527812684
7416,18,Jits_Linear_8,1,5,56,103,1527843112
7416,18,Jits_Linear_8,2,1,48,33,1527865564
7416,18,Jits_Linear_8,3,5,63,98,1527872932
7416,18,Jits_Linear_8,0,5,56,103,1528523048
7416,18,Jits_Linear_8,1,1,48,41,1528524536
7416,18,Jits_Linear_8,2,5,63,98,1528582636
7416,18,Jits_Linear_8,3,5,80,127,1528642940
7416,18,Jits_Linear_8,0,1,48,35,1529244724
7416,18,Jits_Linear_8,1,5,80,127,1529253140
7416,18,Jits_Linear_8,2,5,56,103,1529272700
7416,18,Jits_Linear_8,3,5,63,98,1529343364
7416,18,Jits_Linear_8,0,1,48,41,1529957640
7416,18,Jits_Linear_8,1,5,80,127,1529962916
7416,18,Jits_Linear_8,2,5,63,98,1529983304
7416,18,Jits_Linear_8,3,5,56,103,1530012904
7416,18,Jits_Linear_8,0,1,48,29,1530649504
7416,18,Jits_Linear_8,1,5,80,127,1530653136
7416,18,Jits_Linear_8,2,5,63,98,1530672700
7416,18,Jits_Linear_8,3,5,56,103,1530732940
7416,18,Jits_Linear_8,0,5,80,127,1531362992
7416,18,Jits_Linear_8,1,1,48,39,1531363960
7416,18,Jits_Linear_8,2,5,56,103,1531463000
7416,18,Jits_Linear_8,3,5,63,98,1531492900
7416,18,Jits_Linear_8,0,5,63,98,1532052840
7416,18,Jits_Linear_8,1,5,80,127,1532103116
7416,18,Jits_Linear_8,2,1,48,29,1532110200
7416,18,Jits_Linear_8,3,5,56,103,1532122524
7416,18,Jits_Linear_8,0,1,48,41,1532759348
7416,18,Jits_Linear_8,1,5,80,127,1532793100
7416,18,Jits_Linear_8,2,5,56,103,1532822996
7416,18,Jits_Linear_8,3,5,63,98,1532826064
7416,18,Jits_Linear_8,0,1,48,47,1533460820
7416,18,Jits_Linear_8,1,5,63,98,1533523176
7416,18,Jits_Linear_8,2,5,56,103,1533563176
7416,18,Jits_Linear_8,3,5,80,127,1533582812
7416,18,Jits_Linear_8,0,5,80,127,1534163336
7416,18,Jits_Linear_8,1,1,48,46,1534210472
7416,18,Jits_Linear_8,2,5,63,98,1534243156
7416,18,Jits_Linear_8,3,5,56,103,1534283092
7416,18,Jits_Linear_8,0,5,63,98,1534872912
7416,18,Jits_Linear_8,1,1,48,49,1534918204
7416,18,Jits_Linear_8,2,5,80,127,1534952728
7416,18,Jits_Linear_8,3,5,56,103,1534973260
7416,18,Jits_Linear_8,0,5,56,103,1535603152
7416,18,Jits_Linear_8,1,5,63,98,1535613424
7416,18,Jits_Linear_8,2,1,48,51,1535623136
7416,18,Jits_Linear_8,3,5,80,127,1535653204
7416,18,Jits_Linear_8,0,5,56,103,1536213268
7416,18,Jits_Linear_8,1,5,80,127,1536216416
7416,18,Jits_Linear_8,2,1,48,34,1536342212
7416,18,Jits_Linear_8,3,5,63,98,1536352720
7416,18,Jits_Linear_8,0,5,56,103,1536893236
7416,18,Jits_Linear_8,1,5,63,98,1536983520
7416,18,Jits_Linear_8,2,1,48,32,1537000068
7416,18,Jits_Linear_8,3,5,80,127,1537053148
7416,18,Jits_Linear_8,0,1,48,28,1537596624
7416,18,Jits_Linear_8,1,5,63,98,1537653072
7416,18,Jits_Linear_8,2,5,80,127,1537656656
7416,18,Jits_Linear_8,3,5,56,103,1537712624
7416,18,Jits_Linear_8,0,1,48,51,1538322212
7416,18,Jits_Linear_8,1,5,80,127,1538373036
7416,18,Jits_Linear_8,2,5,56,103,1538392524
7416,18,Jits_Linear_8,3,5,63,98,1538402644
7416,18,Jits_Linear_8,0,5,56,103,1538962776
7416,18,Jits_Linear_8,1,5,63,98,1538973124
7416,18,Jits_Linear_8,2,5,80,127,1539042604
7416,18,Jits_Linear_8,3,1,48,28,1539045124
7416,18,Jits_Linear_8,0,5,80,127,1539642748
7416,18,Jits_Linear_8,1,1,48,49,1539660692
7416,18,Jits_Linear_8,2,5,56,103,1539692872
7416,18,Jits_Linear_8,3,5,63,98,1539743148
7416,18,Jits_Linear_8,0,1,48,43,1540342100
7416,18,Jits_Linear_8,1,5,56,103,1540402660
7416,18,Jits_Linear_8,2,5,63,98,1540412932
7416,18,Jits_Linear_8,3,5,80,127,1540452856
7416,18,Jits_Linear_8,0,5,56,103,1541023192
7416,18,Jits_Linear_8,1,5,63,98,1541063060
7416,18,Jits_Linear_8,2,1,48,46,1541080348
7416,18,Jits_Linear_8,3,5,80,127,1541113128
7416,18,Jits_Linear_8,0,5,80,127,1541652820
7416,18,Jits_Linear_8,1,5,56,103,1541702952
7416,18,Jits_Linear_8,2,5,63,98,1541722588
7416,18,Jits_Linear_8,3,1,48,45,1541770884
7416,18,Jits_Linear_8,0,5,80,127,1542332840
7416,18,Jits_Linear_8,1,1,48,38,1542360988
7416,18,Jits_Linear_8,2,5,63,98,1542393176
7416,18,Jits_Linear_8,3,5,56,103,1542473028
7416,18,Jits_Linear_8,0,5,80,127,1542983068
7416,18,Jits_Linear_8,1,5,56,103,1543023008
7416,18,Jits_Linear_8,2,5,63,98,1543042420
7416,18,Jits_Linear_8,3,1,48,45,1543107264
7416,18,Jits_Linear_8,0,5,56,103,1543702892
7416,18,Jits_Linear_8,1,5,80,127,1543713012
7416,18,Jits_Linear_8,2,1,48,46,1543722428
7416,18,Jits_Linear_8,3,5,63,98,1543753020
7416,18,Jits_Linear_8,0,1,48,34,1544396732
7416,18,Jits_Linear_8,1,5,56,103,1544432980
7416,18,Jits_Linear_8,2,5,63,98,1544472992
7416,18,Jits_Linear_8,3,5,80,127,1544476280
7416,18,Jits_Linear_8,0,5,63,98,1544982928
7416,18,Jits_Linear_8,1,5,80,127,1545022800
7416,18,Jits_Linear_8,2,5,56,103,1545092552
7416,18,Jits_Linear_8,3,1,48,35,1545109372
7416,18,Jits_Linear_8,0,5,63,98,1545633268
7416,18,Jits_Linear_8,1,5,56,103,1545712868
7416,18,Jits_Linear_8,2,1,48,46,1545761316
7416,18,Jits_Linear_8,3,5,80,127,1545773548
7416,18,Jits_Linear_8,0,5,80,127,1546302888
7416,18,Jits_Linear_8,1,5,63,98,1546352944
7416,18,Jits_Linear_8,2,5,56,103,1546382692
7416,18,Jits_Linear_8,3,1,48,38,1546388728
7416,18,Jits_Linear_8,0,5,56,103,1546953012
7416,18,Jits_Linear_8,1,5,63,98,1547003392
7416,18,Jits_Linear_8,2,5,80,127,1547012764
7416,18,Jits_Linear_8,3,1,48,36,1547019696
7416,18,Jits_Linear_8,0,5,56,103,1547622644
7416,18,Jits_Linear_8,1,1,48,30,1547659768
7416,18,Jits_Linear_8,2,5,63,98,1547733524
7416,18,Jits_Linear_8,3,5,80,127,1547752812
7416,18,Jits_Linear_8,0,5,63,98,1548272948
7416,18,Jits_Linear_8,1,1,48,47,1548312332
7416,18,Jits_Linear_8,2,5,80,127,1548323220
7416,18,Jits_Linear_8,3,5,56,103,1548413484
7416,18,Jits_Linear_8,0,5,63,98,1548913024
7416,18,Jits_Linear_8,1,5,80,127,1548942700
7416,18,Jits_Linear_8,2,1,48,39,1548951292
7416,18,Jits_Linear_8,3,5,56,103,1549032704
7416,18,Jits_Linear_8,0,5,63,98,1549563236
7416,18,Jits_Linear_8,1,5,56,103,1549572756
7416,18,Jits_Linear_8,2,1,48,41,1549600440
7416,18,Jits_Linear_8,3,5,80,127,1549672700
7416,18,Jits_Linear_8,0,1,48,32,1550222388
7416,18,Jits_Linear_8,1,5,63,98,1550313600
7416,18,Jits_Linear_8,2,5,80,127,1550342752
7416,18,Jits_Linear_8,3,5,56,103,1550373324
7416,18,Jits_Linear_8,0,1,48,44,1550962668
7416,18,Jits_Linear_8,1,5,80,127,1550973480
7416,18,Jits_Linear_8,2,5,63,98,1550982556
7416,18,Jits_Linear_8,3,5,56,103,1551013204
7416,18,Jits_Linear_8,0,5,80,127,1551512952
7416,18,Jits_Linear_8,1,5,63,98,1551533412
7416,18,Jits_Linear_8,2,5,56,103,1551582568
7416,18,Jits_Linear_8,3,1,48,43,1551631416
7416,18,Jits_Linear_8,0,5,63,98,1552182512
7416,18,Jits_Linear_8,1,1,48,38,1552223772
7416,18,Jits_Linear_8,2,5,80,127,1552243200
7416,18,Jits_Linear_8,3,5,56,103,1552262612
7416,18,Jits_Linear_8,0,5,63,98,1552782732
7416,18,Jits_Linear_8,1,5,56,103,1552832784
7416,18,Jits_Linear_8,2,5,80,127,1552842980
7416,18,Jits_Linear_8,3,1,48,38,1552862884
7416,18,Jits_Linear_8,0,5,56,103,1553453396
7416,18,Jits_Linear_8,1,1,48,43,1553461032
7416,18,Jits_Linear_8,2,5,80,127,1553462540
7416,18,Jits_Linear_8,3,5,63,98,1553562844
7416,18,Jits_Linear_8,0,5,80,127,1554052508
7416,18,Jits_Linear_8,1,5,63,98,1554062852
7416,18,Jits_Linear_8,2,1,48,36,1554076832
7416,18,Jits_Linear_8,3,5,56,103,1554213368
7416,18,Jits_Linear_8,0,5,63,98,1554692396
7416,18,Jits_Linear_8,1,1,48,42,1554710040
7416,18,Jits_Linear_8,2,5,80,127,1554733600
7416,18,Jits_Linear_8,3,5,56,103,1554813380
7416,18,Jits_Linear_8,0,5,56,103,1555312988
7416,18,Jits_Linear_8,1,1,48,36,1555350188
7416,18,Jits_Linear_8,2,5,80,127,1555413312
7416,18,Jits_Linear_8,3,5,63,98,1555432748
7416,18,Jits_Linear_8,0,1,48,41,1555925400
7416,18,Jits_Linear_8,1,5,80,127,1556003300
7416,18,Jits_Linear_8,2,5,56,103,1556013568
7416,18,Jits_Linear_8,3,5,63,98,1556102492
7416,18,Jits_Linear_8,0,1,48,49,1556558984
7416,18,Jits_Linear_8,1,5,56,103,1556632820
7416,18,Jits_Linear_8,2,5,63,98,1556653352
7416,18,Jits_Linear_8,3,5,80,127,1556733528
7416,18,Jits_Linear_8,0,5,63,98,1557203448
7416,18,Jits_Linear_8,1,1,48,49,1557210328
7416,18,Jits_Linear_8,2,5,56,103,1557293528
7416,18,Jits_Linear_8,3,5,80,127,1557296444
7416,18,Jits_Linear_8,0,1,48,43,1557848668
7416,18,Jits_Linear_8,1,5,56,103,1557852600
7416,18,Jits_Linear_8,2,5,80,127,1557912992
7416,18,Jits_Linear_8,3,5,63,98,1557923412
7416,18,Jits_Linear_8,0,1,48,39,1558482764
7416,18,Jits_Linear_8,1,5,80,127,1558523200
7416,18,Jits_Linear_8,2,5,56,103,1558532572
7416,18,Jits_Linear_8,3,5,63,98,1558535488
7416,18,Jits_Linear_8,0,5,56,103,1559102740
7416,18,Jits_Linear_8,1,5,80,127,1559112936
7416,18,Jits_Linear_8,2,5,63,98,1559132496
7416,18,Jits_Linear_8,3,1,48,51,1559154868
7416,18,Jits_Linear_8,0,5,63,98,1559692556
7416,18,Jits_Linear_8,1,5,80,127,1559753468
7416,18,Jits_Linear_8,2,1,48,19,1559780524
7416,18,Jits_Linear_8,3,5,56,103,1559803684
7416,18,Jits_Linear_8,0,5,63,98,1560393044
7416,18,Jits_Linear_8,1,5,56,103,1560403316
7416,18,Jits_Linear_8,2,1,48,26,1560427636
7416,18,Jits_Linear_8,3,5,80,127,1560452392
7416,18,Jits_Linear_8,0,5,63,98,1560903212
7416,18,Jits_Linear_8,1,5,80,127,1560922624
7416,18,Jits_Linear_8,2,5,56,103,1560932896
7416,18,Jits_Linear_8,3,1,48,37,1561046140
7416,18,Jits_Linear_8,0,5,63,98,1561513232
7416,18,Jits_Linear_8,1,5,80,127,1561516676
7416,18,Jits_Linear_8,2,1,48,40,1561537476
7416,18,Jits_Linear_8,3,5,56,103,1561553468
7416,18,Jits_Linear_8,0,1,48,26,1562125792
7416,18,Jits_Linear_8,1,5,63,98,1562193476
7416,18,Jits_Linear_8,2,5,80,127,1562222916
7416,18,Jits_Linear_8,3,5,56,103,1562233336
7416,18,Jits_Linear_8,0,5,56,103,1562753472
7416,18,Jits_Linear_8,1,5,80,127,1562783148
7416,18,Jits_Linear_8,2,1,48,40,1562791596
7416,18,Jits_Linear_8,3,5,63,98,1562812820
7416,18,Jits_Linear_8,0,1,48,40,1563387404
7416,18,Jits_Linear_8,1,5,63,98,1563452924
7416,18,Jits_Linear_8,2,5,56,103,1563492848
7416,18,Jits_Linear_8,3,5,80,127,1563495988
7416,18,Jits_Linear_8,0,5,80,127,1563952452
7416,18,Jits_Linear_8,1,5,56,103,1564033376
7416,18,Jits_Linear_8,2,5,63,98,1564082604
7416,18,Jits_Linear_8,3,1,48,43,1564093144
7416,18,Jits_Linear_8,0,5,80,127,1564533208
7416,18,Jits_Linear_8,1,5,56,103,1564552548
7416,18,Jits_Linear_8,2,5,63,98,1564642556
7416,18,Jits_Linear_8,3,1,48,40,1564662608
7416,18,Jits_Linear_8,0,5,80,127,1565173248
7416,18,Jits_Linear_8,1,1,48,45,1565193756
7416,18,Jits_Linear_8,2,5,63,98,1565213184
7416,18,Jits_Linear_8,3,5,56,103,1565252828
7416,18,Jits_Linear_8,0,5,63,98,1565742396
7416,18,Jits_Linear_8,1,5,80,127,1565802792
7416,18,Jits_Linear_8,2,1,48,36,1565820360
7416,18,Jits_Linear_8,3,5,56,103,1565832684
7416,18,Jits_Linear_8,0,5,56,103,1566342464
7416,18,Jits_Linear_8,1,5,80,127,1566373412
7416,18,Jits_Linear_8,2,1,48,45,1566404180
7416,18,Jits_Linear_8,3,5,63,98,1566463340
7416,18,Jits_Linear_8,0,5,56,103,1566942548
7416,18,Jits_Linear_8,1,1,48,34,1566982708
7416,18,Jits_Linear_8,2,5,80,127,1567053380
7416,18,Jits_Linear_8,3,5,63,98,1567082816
7416,18,Jits_Linear_8,0,1,48,41,1567569072
7416,18,Jits_Linear_8,1,5,56,103,1567582520
7416,18,Jits_Linear_8,2,5,63,98,1567643208
7416,18,Jits_Linear_8,3,5,80,127,1567672644
7416,18,Jits_Linear_8,0,5,56,103,1568142816
7416,18,Jits_Linear_8,1,1,48,41,1568203256
7416,18,Jits_Linear_8,2,5,63,98,1568213320
7416,18,Jits_Linear_8,3,5,80,127,1568232904
7416,18,Jits_Linear_8,0,5,80,127,1568702740
7416,18,Jits_Linear_8,1,5,63,98,1568723276
7416,18,Jits_Linear_8,2,5,56,103,1568772456
7416,18,Jits_Linear_8,3,1,48,29,1568805388
7416,18,Jits_Linear_8,0,5,63,98,1569302848
7416,18,Jits_Linear_8,1,5,80,127,1569313340
7416,18,Jits_Linear_8,2,1,48,48,1569319676
7416,18,Jits_Linear_8,3,5,56,103,1569363388
7416,18,Jits_Linear_8,0,5,63,98,1569882392
7416,18,Jits_Linear_8,1,1,48,53,1569913160
7416,18,Jits_Linear_8,2,5,80,127,1569953488
7416,18,Jits_Linear_8,3,5,56,103,1569972676
7416,18,Jits_Linear_8,0,1,48,37,1570481240
7416,18,Jits_Linear_8,1,5,63,98,1570492792
7416,18,Jits_Linear_8,2,5,80,127,1570496156
7416,18,Jits_Linear_8,3,5,56,103,1570562352
7416,18,Jits_Linear_8,0,5,80,127,1571023336
7416,18,Jits_Linear_8,1,5,56,103,1571042624
7416,18,Jits_Linear_8,2,5,63,98,1571053120
7416,18,Jits_Linear_8,3,1,48,50,1571089648
7416,18,Jits_Linear_8,0,5,56,103,1571623368
7416,18,Jits_Linear_8,1,1,48,34,1571624780
7416,18,Jits_Linear_8,2,5,63,98,1571713348
7416,18,Jits_Linear_8,3,5,80,127,1571716708
7416,18,Jits_Linear_8,0,5,80,127,1572173324
7416,18,Jits_Linear_8,1,5,56,103,1572183368
7416,18,Jits_Linear_8,2,1,48,46,1572202480
7416,18,Jits_Linear_8,3,5,63,98,1572204048
7416,18,Jits_Linear_8,0,5,63,98,1572742460
7416,18,Jits_Linear_8,1,1,48,26,1572743724
7416,18,Jits_Linear_8,2,5,80,127,1572802920
7416,18,Jits_Linear_8,3,5,56,103,1572813116
7416,18,Jits_Linear_8,0,1,48,48,1573337544
7416,18,Jits_Linear_8,1,5,63,98,1573382556
7416,18,Jits_Linear_8,2,5,80,127,1573413280
7416,18,Jits_Linear_8,3,5,56,103,1573453352
7416,18,Jits_Linear_8,0,1,48,33,1573921548
7416,18,Jits_Linear_8,1,5,56,103,1573942624
7416,18,Jits_Linear_8,2,5,80,127,1573952820
7416,18,Jits_Linear_8,3,5,63,98,1573992908
7416,18,Jits_Linear_8,0,5,80,127,1574473020
7416,18,Jits_Linear_8,1,1,48,37,1574483932
7416,18,Jits_Linear_8,2,5,56,103,1574553112
7416,18,Jits_Linear_8,3,5,63,98,1574563160
7416,18,Jits_Linear_8,0,1,48,37,1575057260
7416,18,Jits_Linear_8,1,5,80,127,1575083516
7416,18,Jits_Linear_8,2,5,56,103,1575163176
7416,18,Jits_Linear_8,3,5,63,98,1575172548
7416,18,Jits_Linear_8,0,5,80,127,1575602464
7416,18,Jits_Linear_8,1,5,56,103,1575652692
7416,18,Jits_Linear_8,2,5,63,98,1575703192
7416,18,Jits_Linear_8,0,1,48,45,1576202728
7416,18,Jits_Linear_8,1,5,56,103,1576223204
7416,18,Jits_Linear_8,2,5,63,98,1576226268
7416,18,Jits_Linear_8,3,5,80,127,1576273328
7416,18,Jits_Linear_8,0,1,48,38,1576752520
7416,18,Jits_Linear_8,1,5,56,103,1576812856
7416,18,Jits_Linear_8,2,5,63,98,1576842608
7416,18,Jits_Linear_8,3,5,80,127,1576852936
7416,18,Jits_Linear_8,0,5,63,98,1577283176
7416,18,Jits_Linear_8,1,1,48,41,1577346900
7416,18,Jits_Linear_8,2,5,56,103,1577352628
7416,18,Jits_Linear_8,3,5,80,127,1577402608
7416,18,Jits_Linear_8,0,5,63,98,1577872616
7416,18,Jits_Linear_8,1,5,56,103,1577883108
7416,18,Jits_Linear_8,2,5,80,127,1577886024
7416,18,Jits_Linear_8,3,1,48,41,1577902564
7416,18,Jits_Linear_8,0,5,80,127,1578372428
7416,18,Jits_Linear_8,1,1,48,42,1578429104
7416,18,Jits_Linear_8,2,5,56,103,1578432960
7416,18,Jits_Linear_8,3,5,63,98,1578523196
7416,18,Jits_Linear_8,0,5,80,127,1578923364
7416,18,Jits_Linear_8,1,1,48,48,1578994460
7416,18,Jits_Linear_8,2,5,56,103,1579022660
7416,18,Jits_Linear_8,3,5,63,98,1579062748
7416,18,Jits_Linear_8,0,5,56,103,1579522284
7416,18,Jits_Linear_8,1,5,63,98,1579542892
7416,18,Jits_Linear_8,2,1,48,53,1579577244
7416,18,Jits_Linear_8,3,5,80,127,1579583120
7416,18,Jits_Linear_8,0,5,63,98,1580042648
7416,18,Jits_Linear_8,1,5,56,103,1580063108
7416,18,Jits_Linear_8,2,1,48,38,1580142724
7416,18,Jits_Linear_8,3,5,80,127,1580162448
7416,18,Jits_Linear_8,0,5,63,98,1580573112
7416,18,Jits_Linear_8,1,5,80,127,1580682580
7416,18,Jits_Linear_8,2,1,48,46,1580684296
7416,18,Jits_Linear_8,3,5,56,103,1580713372
7416,18,Jits_Linear_8,0,5,56,103,1581133108
7416,18,Jits_Linear_8,1,5,63,98,1581163156
7416,18,Jits_Linear_8,2,1,48,29,1581204640
7416,18,Jits_Linear_8,3,5,80,127,1581213204
7416,18,Jits_Linear_8,0,5,63,98,1581643284
7416,18,Jits_Linear_8,1,5,56,103,1581673184
7416,18,Jits_Linear_8,2,5,80,127,1581723312
7416,18,Jits_Linear_8,3,1,48,46,1581737668
7416,18,Jits_Linear_8,0,5,56,103,1582212340
7416,18,Jits_Linear_8,1,5,63,98,1582233100
7416,18,Jits_Linear_8,2,1,48,46,1582248720
7416,18,Jits_Linear_8,3,5,80,127,1582312836
7416,18,Jits_Linear_8,0,5,63,98,1582722368
7416,18,Jits_Linear_8,1,5,56,103,1582783056
7416,18,Jits_Linear_8,2,1,48,33,1582811452
7416,18,Jits_Linear_8,3,5,80,127,1582813024
7416,18,Jits_Linear_8,0,5,56,103,1583303104
7416,18,Jits_Linear_8,1,1,48,48,1583332028
7416,18,Jits_Linear_8,2,5,80,127,1583362320
7416,18,Jits_Linear_8,3,5,63,98,1583403304
7416,18,Jits_Linear_8,0,5,63,98,1583812992
7416,18,Jits_Linear_8,1,5,56,103,1583873336
7416,18,Jits_Linear_8,2,1,48,40,1583891368
7416,18,Jits_Linear_8,3,5,80,127,1583943008
7416,18,Jits_Linear_8,0,1,48,40,1584388556
7416,18,Jits_Linear_8,1,5,56,103,1584423352
7416,18,Jits_Linear_8,2,5,63,98,1584432424
7416,18,Jits_Linear_8,3,5,80,127,1584435864
7416,18,Jits_Linear_8,0,5,63,98,1584893284
7416,18,Jits_Linear_8,1,5,56,103,1584952780
7416,18,Jits_Linear_8,2,5,80,127,1584955696
7416,18,Jits_Linear_8,3,1,48,40,1584974108
7416,18,Jits_Linear_8,0,5,63,98,1585403296
7416,18,Jits_Linear_8,1,5,80,127,1585432972
7416,18,Jits_Linear_8,2,5,56,103,1585453356
7416,18,Jits_Linear_8,3,1,48,35,1585529064
7416,18,Jits_Linear_8,0,5,56,103,1585932712
7416,18,Jits_Linear_8,1,1,48,37,1585962212
7416,18,Jits_Linear_8,2,5,63,98,1585982984
7416,18,Jits_Linear_8,3,5,80,127,1586062692
7416,18,Jits_Linear_8,0,5,80,127,1586433308
7416,18,Jits_Linear_8,1,5,63,98,1586473248
7416,18,Jits_Linear_8,2,5,56,103,1586492732
7416,18,Jits_Linear_8,3,1,48,16,1586493700
7416,18,Jits_Linear_8,0,1,48,35,1587012608
7416,18,Jits_Linear_8,1,5,56,103,1587023120
7416,18,Jits_Linear_8,2,5,80,127,1587032496
7416,18,Jits_Linear_8,3,5,63,98,1587052880
7416,18,Jits_Linear_8,0,5,56,103,1587523032
7416,18,Jits_Linear_8,1,1,48,39,1587560156
7416,18,Jits_Linear_8,2,5,63,98,1587573080
7416,18,Jits_Linear_8,3,5,80,127,1587602980
7416,18,Jits_Linear_8,0,5,56,103,1587992908
7416,18,Jits_Linear_8,1,5,63,98,1588003104
7416,18,Jits_Linear_8,2,5,80,127,1588053384
7416,18,Jits_Linear_8,3,1,48,30,1588083852
7416,18,Jits_Linear_8,0,5,56,103,1588503084
7416,18,Jits_Linear_8,1,5,80,127,1588506148
7416,18,Jits_Linear_8,2,1,48,49,1588514072
7416,18,Jits_Linear_8,3,5,63,98,1588662716
7416,18,Jits_Linear_8,0,1,48,49,1588973812
7416,18,Jits_Linear_8,1,5,63,98,1589033476
7416,18,Jits_Linear_8,2,5,56,103,1589103148
7416,18,Jits_Linear_8,3,5,80,127,1589143084
7416,18,Jits_Linear_8,0,5,63,98,1589583288
7416,18,Jits_Linear_8,1,5,56,103,1589673272
7416,18,Jits_Linear_8,2,5,80,127,1589676264
7416,18,Jits_Linear_8,0,5,56,103,1590072660
7416,18,Jits_Linear_8,1,1,48,20,1590121712
7416,18,Jits_Linear_8,2,5,63,98,1590163084
7416,18,Jits_Linear_8,3,5,80,127,1590172984
7416,18,Jits_Linear_8,0,5,56,103,1590553096
7416,18,Jits_Linear_8,1,5,63,98,1590603080
7416,18,Jits_Linear_8,2,1,48,46,1590622084
7416,18,Jits_Linear_8,3,5,80,127,1590632896
7416,18,Jits_Linear_8,0,1,48,44,1591113900
7416,18,Jits_Linear_8,1,5,63,98,1591132504
7416,18,Jits_Linear_8,2,5,80,127,1591142852
7416,18,Jits_Linear_8,3,5,56,103,1591203316
7416,18,Jits_Linear_8,0,5,63,98,1591553528
7416,18,Jits_Linear_8,1,5,80,127,1591613020
7416,18,Jits_Linear_8,2,1,48,46,1591644316
7416,18,Jits_Linear_8,3,5,56,103,1591652728
7416,18,Jits_Linear_8,0,1,48,36,1592149064
7416,18,Jits_Linear_8,1,5,56,103,1592152396
7416,18,Jits_Linear_8,2,5,80,127,1592173156
7416,18,Jits_Linear_8,3,5,63,98,1592193464
7416,18,Jits_Linear_8,0,5,63,98,1592573344
7416,18,Jits_Linear_8,1,5,56,103,1592592684
7416,18,Jits_Linear_8,2,5,80,127,1592632620
7416,18,Jits_Linear_8,3,1,48,38,1592659628
7416,18,Jits_Linear_8,0,5,63,98,1593083288
7416,18,Jits_Linear_8,1,5,80,127,1593113036
7416,18,Jits_Linear_8,2,5,56,103,1593133420
7416,18,Jits_Linear_8,3,1,48,25,1593177064
7416,18,Jits_Linear_8,0,5,80,127,1593553196
7416,18,Jits_Linear_8,1,5,56,103,1593602380
7416,18,Jits_Linear_8,2,1,48,37,1593627668
7416,18,Jits_Linear_8,3,5,63,98,1593662984
7416,18,Jits_Linear_8,0,5,63,98,1594032440
7416,18,Jits_Linear_8,1,1,48,35,1594114328
7416,18,Jits_Linear_8,2,5,56,103,1594153384
7416,18,Jits_Linear_8,3,5,80,127,1594183132
7416,18,Jits_Linear_8,0,5,80,127,1594563060
7416,18,Jits_Linear_8,1,5,63,98,1594583372
7416,18,Jits_Linear_8,2,5,56,103,1594653004
7416,18,Jits_Linear_8,3,1,48,27,1594656716
7416,18,Jits_Linear_8,0,5,63,98,1595072864
7416,18,Jits_Linear_8,1,5,56,103,1595083060
7416,18,Jits_Linear_8,2,1,48,16,1595129796
7416,18,Jits_Linear_8,3,5,80,127,1595162948
7416,18,Jits_Linear_8,0,1,48,36,1595594244
7416,18,Jits_Linear_8,1,5,56,103,1595622988
7416,18,Jits_Linear_8,2,5,80,127,1595652592
7416,18,Jits_Linear_8,3,5,63,98,1595662860
7416,18,Jits_Linear_8,0,9999,9999,9999,1485260884
7416,18,Jits_Linear_8,1,9999,9999,9999,1486080072
7416,18,Jits_Linear_8,2,9999,9999,9999,1486900280
7416,18,Jits_Linear_8,3,9999,9999,9999,1487720560
7416,18,Jits_Linear_8,4,9999,9999,9999,1488540760
7416,18,Jits_Linear_8,5,9999,9999,9999,1489350780
7416,18,Jits_Linear_8,6,9999,9999,9999,1490160744
7416,18,Jits_Linear_8,7,9999,9999,9999,1490970704
7416,18,Jits_Linear_8,8,9999,9999,9999,1491780728
7416,18,Jits_Linear_8,9,9999,9999,9999,1492590656
7416,18,Jits_Linear_8,10,9999,9999,9999,1493390416
7416,18,Jits_Linear_8,11,9999,9999,9999,1494190172
7416,18,Jits_Linear_8,12,9999,9999,9999,1494990976
7416,18,Jits_Linear_8,13,9999,9999,9999,1495790680
7416,18,Jits_Linear_8,14,9999,9999,9999,1496590420
7416,18,Jits_Linear_8,15,9999,9999,9999,1497380948
7416,18,Jits_Linear_8,16,9999,9999,9999,1498170496
7416,18,Jits_Linear_8,17,9999,9999,9999,1498960960
7416,18,Jits_Linear_8,18,9999,9999,9999,1499750460
7416,18,Jits_Linear_8,19,9999,9999,9999,1500540996
7416,18,Jits_Linear_8,20,9999,9999,9999,1501320296
7416,18,Jits_Linear_8,21,9999,9999,9999,1502100568
7416,18,Jits_Linear_8,22,9999,9999,9999,1502880848
7416,18,Jits_Linear_8,23,9999,9999,9999,1503660148
7416,18,Jits_Linear_8,24,9999,9999,9999,1504440420
7416,18,Jits_Linear_8,25,9999,9999,9999,1505210432
7416,18,Jits_Linear_8,26,9999,9999,9999,1505980520
7416,18,Jits_Linear_8,27,9999,9999,9999,1506750532
7416,18,Jits_Linear_8,28,9999,9999,9999,1507520640
7416,18,Jits_Linear_8,29,9999,9999,9999,1508290688
7416,18,Jits_Linear_8,30,9999,9999,9999,1509050432
7416,18,Jits_Linear_8,31,9999,9999,9999,1509810252
7416,18,Jits_Linear_8,32,9999,9999,9999,1510571116
7416,18,Jits_Linear_8,33,9999,9999,9999,1511340088
7416,18,Jits_Linear_8,34,9999,9999,9999,1512100956
7416,18,Jits_Linear_8,35,9999,9999,9999,1512850524
7416,18,Jits_Linear_8,36,9999,9999,9999,1513600092
7416,18,Jits_Linear_8,37,9999,9999,9999,1514350712
7416,18,Jits_Linear_8,38,9999,9999,9999,1515100284
7416,18,Jits_Linear_8,39,9999,9999,9999,1515850832
7416,18,Jits_Linear_8,40,9999,9999,9999,1516590136
7416,18,Jits_Linear_8,41,9999,9999,9999,1517330552
7416,18,Jits_Linear_8,42,9999,9999,9999,1518070892
7416,18,Jits_Linear_8,43,9999,9999,9999,1518810224
7416,18,Jits_Linear_8,44,9999,9999,9999,1519550548
7416,18,Jits_Linear_8,45,9999,9999,9999,1520280632
7416,18,Jits_Linear_8,46,9999,9999,9999,1521010804
7416,18,Jits_Linear_8,47,9999,9999,9999,1521740888
7416,18,Jits_Linear_8,48,9999,9999,9999,1522470968
7416,18,Jits_Linear_8,49,9999,9999,9999,1523200068
7416,18,Jits_Linear_8,50,9999,9999,9999,1523920980
7416,18,Jits_Linear_8,51,9999,9999,9999,1524640888
7416,18,Jits_Linear_8,52,9999,9999,9999,1525360716
7416,18,Jits_Linear_8,53,9999,9999,9999,1526080628
7416,18,Jits_Linear_8,54,9999,9999,9999,1526800440
7416,18,Jits_Linear_8,55,9999,9999,9999,1527510136
7416,18,Jits_Linear_8,56,9999,9999,9999,1528220732
7416,18,Jits_Linear_8,57,9999,9999,9999,1528930372
7416,18,Jits_Linear_8,58,9999,9999,9999,1529641064
7416,18,Jits_Linear_8,59,9999,9999,9999,1530350688
7416,18,Jits_Linear_8,60,9999,9999,9999,1531051076
7416,18,Jits_Linear_8,61,9999,9999,9999,1531760708
7416,18,Jits_Linear_8,62,9999,9999,9999,1532460160
7416,18,Jits_Linear_8,63,9999,9999,9999,1533160564
7416,18,Jits_Linear_8,64,9999,9999,9999,1533860960
7416,18,Jits_Linear_8,65,9999,9999,9999,1534550140
7416,18,Jits_Linear_8,66,9999,9999,9999,1535240308
7416,18,Jits_Linear_8,67,9999,9999,9999,1535930436
7416,18,Jits_Linear_8,68,9999,9999,9999,1536620664
7416,18,Jits_Linear_8,69,9999,9999,9999,1537310828
7416,18,Jits_Linear_8,70,9999,9999,9999,1537990768
7416,18,Jits_Linear_8,71,9999,9999,9999,1538670664
7416,18,Jits_Linear_8,72,9999,9999,9999,1539350620
7416,18,Jits_Linear_8,73,9999,9999,9999,1540030568
7416,18,Jits_Linear_8,74,9999,9999,9999,1540710476
7416,18,Jits_Linear_8,75,9999,9999,9999,1541380172
7416,18,Jits_Linear_8,76,9999,9999,9999,1542050904
7416,18,Jits_Linear_8,77,9999,9999,9999,1542720612
7416,18,Jits_Linear_8,78,9999,9999,9999,1543390288
7416,18,Jits_Linear_8,79,9999,9999,9999,1544061040
7416,18,Jits_Linear_8,80,9999,9999,9999,1544720484
7416,18,Jits_Linear_8,81,9999,9999,9999,1545380940
7416,18,Jits_Linear_8,82,9999,9999,9999,1546040448
7416,18,Jits_Linear_8,83,9999,9999,9999,1546700896
7416,18,Jits_Linear_8,84,9999,9999,9999,1547360332
7416,18,Jits_Linear_8,85,9999,9999,9999,1548010564
7416,18,Jits_Linear_8,86,9999,9999,9999,1548660844
7416,18,Jits_Linear_8,87,9999,9999,9999,1549311056
7416,18,Jits_Linear_8,88,9999,9999,9999,1549960272
7416,18,Jits_Linear_8,89,9999,9999,9999,1550610496
7416,18,Jits_Linear_8,90,9999,9999,9999,1551250508
7416,18,Jits_Linear_8,91,9999,9999,9999,1551890532
7416,18,Jits_Linear_8,92,9999,9999,9999,1552530552
7416,18,Jits_Linear_8,93,9999,9999,9999,1553170500
7416,18,Jits_Linear_8,94,9999,9999,9999,1553810500
7416,18,Jits_Linear_8,95,9999,9999,9999,1554440276
7416,18,Jits_Linear_8,96,9999,9999,9999,1555071076
7416,18,Jits_Linear_8,97,9999,9999,9999,1555700840
7416,18,Jits_Linear_8,98,9999,9999,9999,1556330596
7416,18,Jits_Linear_8,99,9999,9999,9999,1556960364
7416,18,Jits_Linear_8,100,9999,9999,9999,1557580876
7416,18,Jits_Linear_8,101,9999,9999,9999,1558200424
7416,18,Jits_Linear_8,102,9999,9999,9999,1558820964
7416,18,Jits_Linear_8,103,9999,9999,9999,1559440508
7416,18,Jits_Linear_8,104,9999,9999,9999,1560060996
7416,18,Jits_Linear_8,105,9999,9999,9999,1560670292
7416,18,Jits_Linear_8,106,9999,9999,9999,1561280616
7416,18,Jits_Linear_8,107,9999,9999,9999,1561890880
7416,18,Jits_Linear_8,108,9999,9999,9999,1562500172
7416,18,Jits_Linear_8,109,9999,9999,9999,1563110528
7416,18,Jits_Linear_8,110,9999,9999,9999,1563710540
7416,18,Jits_Linear_8,111,9999,9999,9999,1564310612
7416,18,Jits_Linear_8,112,9999,9999,9999,1564910716
7416,18,Jits_Linear_8,113,9999,9999,9999,1565510732
7416,18,Jits_Linear_8,114,9999,9999,9999,1566110812
7416,18,Jits_Linear_8,115,9999,9999,9999,1566700644
7416,18,Jits_Linear_8,116,9999,9999,9999,1567290468
7416,18,Jits_Linear_8,117,9999,9999,9999,1567880296
7416,18,Jits_Linear_8,118,9999,9999,9999,1568470108
7416,18,Jits_Linear_8,119,9999,9999,9999,1569060992
7416,18,Jits_Linear_8,120,9999,9999,9999,1569640548
7416,18,Jits_Linear_8,121,9999,9999,9999,1570220092
7416,18,Jits_Linear_8,122,9999,9999,9999,1570800704
7416,18,Jits_Linear_8,123,9999,9999,9999,1571380312
7416,18,Jits_Linear_8,124,9999,9999,9999,1571960912
7416,18,Jits_Linear_8,125,9999,9999,9999,1572530276
7416,18,Jits_Linear_8,126,9999,9999,9999,1573100640
7416,18,Jits_Linear_8,127,9999,9999,9999,1573670972
7416,18,Jits_Linear_8,128,9999,9999,9999,1574240324
7416,18,Jits_Linear_8,129,9999,9999,9999,1574810724
7416,18,Jits_Linear_8,130,9999,9999,9999,1575370812
7416,18,Jits_Linear_8,131,9999,9999,9999,1575930996
7416,18,Jits_Linear_8,132,9999,9999,9999,1576491080
7416,18,Jits_Linear_8,133,9999,9999,9999,1577060444
7416,18,Jits_Linear_8,134,9999,9999,9999,1577620580
7416,18,Jits_Linear_8,135,9999,9999,9999,1578170448
7416,18,Jits_Linear_8,136,9999,9999,9999,1578720348
7416,18,Jits_Linear_8,137,9999,9999,9999,1579270236
7416,18,Jits_Linear_8,138,9999,9999,9999,1579820128
7416,18,Jits_Linear_8,139,9999,9999,9999,1580371060
7416,18,Jits_Linear_8,140,9999,9999,9999,1580910672
7416,18,Jits_Linear_8,141,9999,9999,9999,1581450360
7416,18,Jits_Linear_8,142,9999,9999,9999,1581991028
7416,18,Jits_Linear_8,143,9999,9999,9999,1582530636
7416,18,Jits_Linear_8,144,9999,9999,9999,1583070284
7416,18,Jits_Linear_8,145,9999,9999,9999,1583600756
7416,18,Jits_Linear_8,146,9999,9999,9999,1584130124
7416,18,Jits_Linear_8,147,9999,9999,9999,1584660588
7416,18,Jits_Linear_8,148,9999,9999,9999,1585190976
7416,18,Jits_Linear_8,149,9999,9999,9999,1585720396
7416,18,Jits_Linear_8,150,9999,9999,9999,1586240604
7416,18,Jits_Linear_8,151,9999,9999,9999,1586760820
7416,18,Jits_Linear_8,152,9999,9999,9999,1587280968
7416,18,Jits_Linear_8,153,9999,9999,9999,1587800132
7416,18,Jits_Linear_8,154,9999,9999,9999,1588320348
7416,18,Jits_Linear_8,155,9999,9999,9999,1588830292
7416,18,Jits_Linear_8,156,9999,9999,9999,1589340252
7416,18,Jits_Linear_8,157,9999,9999,9999,1589850212
7416,18,Jits_Linear_8,158,9999,9999,9999,1590360172
7416,18,Jits_Linear_8,159,9999,9999,9999,1590870128
7416,18,Jits_Linear_8,160,9999,9999,9999,1591370876
7416,18,Jits_Linear_8,161,9999,9999,9999,1591870556
7416,18,Jits_Linear_8,162,9999,9999,9999,1592370240
7416,18,Jits_Linear_8,163,9999,9999,9999,1592871040
7416,18,Jits_Linear_8,164,9999,9999,9999,1593370720
7416,18,Jits_Linear_8,165,9999,9999,9999,1593860212
7416,18,Jits_Linear_8,166,9999,9999,9999,1594350692
7416,18,Jits_Linear_8,167,9999,9999,9999,1594840160
7416,18,Jits_Linear_8,168,9999,9999,9999,1595330632
7416,18,Jits_Linear_8,169,9999,9999,9999,1595820132
7417,19,Jits_Linear_5,0,5,56,103,1604383020
7417,19,Jits_Linear_5,1,5,63,98,1604386120
7417,19,Jits_Linear_5,2,5,80,127,1604389244
7417,19,Jits_Linear_5,0,5,56,103,1604863256
7417,19,Jits_Linear_5,1,5,63,98,1604866512
7417,19,Jits_Linear_5,2,5,80,127,1604869704
7417,19,Jits_Linear_5,0,1,48,19,1605270644
7417,19,Jits_Linear_5,1,5,56,103,1605342612
7417,19,Jits_Linear_5,2,5,80,127,1605352956
7417,19,Jits_Linear_5,3,5,63,98,1605373252
7417,19,Jits_Linear_5,0,5,63,98,1605772604
7417,19,Jits_Linear_5,1,5,80,127,1605803256
7417,19,Jits_Linear_5,2,5,56,103,1605812776
7417,19,Jits_Linear_5,3,1,48,36,1605828628
7417,19,Jits_Linear_5,0,1,48,43,1606285440
7417,19,Jits_Linear_5,1,5,80,127,1606313264
7417,19,Jits_Linear_5,2,5,56,103,1606322932
7417,19,Jits_Linear_5,3,5,63,98,1606353284
7417,19,Jits_Linear_5,0,1,48,48,1606768716
7417,19,Jits_Linear_5,1,5,63,98,1606792576
7417,19,Jits_Linear_5,2,5,56,103,1606823376
7417,19,Jits_Linear_5,3,5,80,127,1606832524
7417,19,Jits_Linear_5,0,5,56,103,1607232860
7417,19,Jits_Linear_5,1,1,48,45,1607255976
7417,19,Jits_Linear_5,2,5,63,98,1607283280
7417,19,Jits_Linear_5,3,5,80,127,1607302616
7417,19,Jits_Linear_5,0,5,80,127,1607723788
7417,19,Jits_Linear_5,1,1,48,48,1607736500
7417,19,Jits_Linear_5,2,5,63,98,1607772640
7417,19,Jits_Linear_5,3,5,56,103,1607812732
7417,19,Jits_Linear_5,0,5,56,103,1608212708
7417,19,Jits_Linear_5,1,1,48,43,1608226840
7417,19,Jits_Linear_5,2,5,63,98,1608242676
7417,19,Jits_Linear_5,3,5,80,127,1608313108
7417,19,Jits_Linear_5,0,1,48,44,1608690712
7417,19,Jits_Linear_5,1,5,56,103,1608703336
7417,19,Jits_Linear_5,2,5,80,127,1608762756
7417,19,Jits_Linear_5,3,5,63,98,1608792640
7417,19,Jits_Linear_5,0,1,48,44,1609173608
7417,19,Jits_Linear_5,1,5,56,103,1609202952
7417,19,Jits_Linear_5,2,5,63,98,1609213148
7417,19,Jits_Linear_5,3,5,80,127,1609253088
7417,19,Jits_Linear_5,0,1,48,44,1609665720
7417,19,Jits_Linear_5,1,5,63,98,1609692720
7417,19,Jits_Linear_5,2,5,80,127,1609773700
7417,19,Jits_Linear_5,3,5,56,103,1609782552
7417,19,Jits_Linear_5,0,1,48,40,1610192360
7417,19,Jits_Linear_5,1,5,63,98,1610242536
7417,19,Jits_Linear_5,2,5,56,103,1610283668
7417,19,Jits_Linear_5,3,5,80,127,1610287468
7417,19,Jits_Linear_5,0,1,48,39,1610701720
7417,19,Jits_Linear_5,1,5,56,103,1610703156
7417,19,Jits_Linear_5,2,5,63,98,1610712528
7417,19,Jits_Linear_5,3,5,80,127,1610753540
7417,19,Jits_Linear_5,0,1,48,43,1611177704
7417,19,Jits_Linear_5,1,5,56,103,1611192800
7417,19,Jits_Linear_5,2,5,63,98,1611195864
7417,19,Jits_Linear_5,3,5,80,127,1611213108
7417,19,Jits_Linear_5,0,1,48,44,1611642032
7417,19,Jits_Linear_5,1,5,80,127,1611713004
7417,19,Jits_Linear_5,2,5,56,103,1611723052
7417,19,Jits_Linear_5,3,5,63,98,1611792744
7417,19,Jits_Linear_5,0,1,48,35,1612182772
7417,19,Jits_Linear_5,1,5,63,98,1612212764
7417,19,Jits_Linear_5,2,5,56,103,1612233004
7417,19,Jits_Linear_5,3,5,80,127,1612312884
7417,19,Jits_Linear_5,0,1,48,42,1612680276
7417,19,Jits_Linear_5,1,5,56,103,1612732832
7417,19,Jits_Linear_5,2,5,80,127,1612772708
7417,19,Jits_Linear_5,3,5,63,98,1612783056
7417,19,Jits_Linear_5,0,1,48,43,1613173676
7417,19,Jits_Linear_5,1,5,80,127,1613232520
7417,19,Jits_Linear_5,2,5,63,98,1613263320
7417,19,Jits_Linear_5,3,5,56,103,1613303044
7417,19,Jits_Linear_5,0,1,48,42,1613669076
7417,19,Jits_Linear_5,1,5,56,103,1613763804
7417,19,Jits_Linear_5,2,5,63,98,1613792608
7417,19,Jits_Linear_5,3,5,80,127,1613842960
7417,19,Jits_Linear_5,0,1,48,40,1614194096
7417,19,Jits_Linear_5,1,5,80,127,1614272944
7417,19,Jits_Linear_5,2,5,56,103,1614312672
7417,19,Jits_Linear_5,3,5,63,98,1614323164
7417,19,Jits_Linear_5,0,1,48,41,1614730356
7417,19,Jits_Linear_5,1,5,80,127,1614772704
7417,19,Jits_Linear_5,2,5,63,98,1614812496
7417,19,Jits_Linear_5,3,5,56,103,1614872872
7417,19,Jits_Linear_5,0,1,48,46,1615240652
7417,19,Jits_Linear_5,1,5,56,103,1615292744
7417,19,Jits_Linear_5,2,5,80,127,1615303016
7417,19,Jits_Linear_5,3,5,63,98,1615382968
7417,19,Jits_Linear_5,0,1,48,49,1615767744
7417,19,Jits_Linear_5,1,5,80,127,1615812880
7417,19,Jits_Linear_5,2,5,63,98,1615873508
7417,19,Jits_Linear_5,3,5,56,103,1615903112
7417,19,Jits_Linear_5,0,1,48,44,1616292168
7417,19,Jits_Linear_5,1,5,56,103,1616333100
7417,19,Jits_Linear_5,2,5,80,127,1616392680
7417,19,Jits_Linear_5,3,5,63,98,1616432616
7417,19,Jits_Linear_5,0,1,48,48,1616804804
7417,19,Jits_Linear_5,1,5,56,103,1616912664
7417,19,Jits_Linear_5,2,5,63,98,1616922852
7417,19,Jits_Linear_5,3,5,80,127,1616926520
7417,19,Jits_Linear_5,0,1,48,48,1617336100
7417,19,Jits_Linear_5,1,5,80,127,1617392948
7417,19,Jits_Linear_5,2,5,63,98,1617483072
7417,19,Jits_Linear_5,3,5,56,103,1617493640
7417,19,Jits_Linear_5,0,1,48,46,1617879988
7417,19,Jits_Linear_5,1,5,56,103,1617922516
7417,19,Jits_Linear_5,2,5,63,98,1617925540
7417,19,Jits_Linear_5,3,5,80,127,1617928736
7417,19,Jits_Linear_5,0,1,48,48,1618350524
7417,19,Jits_Linear_5,1,5,80,127,1618473428
7417,19,Jits_Linear_5,2,5,63,98,1618522736
7417,19,Jits_Linear_5,3,5,56,103,1618553532
7417,19,Jits_Linear_5,0,1,48,45,1618924404
7417,19,Jits_Linear_5,1,5,56,103,1618983696
7417,19,Jits_Linear_5,2,5,80,127,1618992548
7417,19,Jits_Linear_5,3,5,63,98,1619063040
7417,19,Jits_Linear_5,0,1,48,44,1619467320
7417,19,Jits_Linear_5,1,5,56,103,1619522872
7417,19,Jits_Linear_5,2,5,63,98,1619543704
7417,19,Jits_Linear_5,3,5,80,127,1619602808
7417,19,Jits_Linear_5,0,1,48,41,1620028812
7417,19,Jits_Linear_5,1,5,80,127,1620053644
7417,19,Jits_Linear_5,2,5,63,98,1620123032
7417,19,Jits_Linear_5,3,5,56,103,1620142656
7417,19,Jits_Linear_5,0,1,48,48,1620550372
7417,19,Jits_Linear_5,1,5,80,127,1620612524
7417,19,Jits_Linear_5,2,5,56,103,1620622872
7417,19,Jits_Linear_5,3,5,63,98,1620633068
7417,19,Jits_Linear_5,0,1,48,48,1621084684
7417,19,Jits_Linear_5,1,5,80,127,1621143000
7417,19,Jits_Linear_5,2,5,56,103,1621163388
7417,19,Jits_Linear_5,3,5,63,98,1621233080
7417,19,Jits_Linear_5,0,1,48,51,1621620096
7417,19,Jits_Linear_5,1,5,56,103,1621692884
7417,19,Jits_Linear_5,2,5,80,127,1621722624
7417,19,Jits_Linear_5,3,5,63,98,1621742860
7417,19,Jits_Linear_5,0,1,48,50,1622157676
7417,19,Jits_Linear_5,1,5,63,98,1622232484
7417,19,Jits_Linear_5,2,5,56,103,1622292812
7417,19,Jits_Linear_5,3,5,80,127,1622322488
7417,19,Jits_Linear_5,0,1,48,50,1622689128
7417,19,Jits_Linear_5,1,5,63,98,1622773104
7417,19,Jits_Linear_5,2,5,80,127,1622776464
7417,19,Jits_Linear_5,3,5,56,103,1622863444
7417,19,Jits_Linear_5,0,1,48,46,1623268844
7417,19,Jits_Linear_5,1,5,56,103,1623342680
7417,19,Jits_Linear_5,2,5,63,98,1623373392
7417,19,Jits_Linear_5,3,5,80,127,1623413256
7417,19,Jits_Linear_5,0,1,48,45,1623837464
7417,19,Jits_Linear_5,1,5,63,98,1623893464
7417,19,Jits_Linear_5,2,5,56,103,1623933480
7417,19,Jits_Linear_5,3,5,80,127,1623952728
7417,19,Jits_Linear_5,0,1,48,50,1624386832
7417,19,Jits_Linear_5,1,5,63,98,1624452572
7417,19,Jits_Linear_5,2,5,56,103,1624493620
7417,19,Jits_Linear_5,3,5,80,127,1624502620
7417,19,Jits_Linear_5,0,1,48,43,1624955304
7417,19,Jits_Linear_5,1,5,80,127,1624982828
7417,19,Jits_Linear_5,2,5,63,98,1625052676
7417,19,Jits_Linear_5,3,5,56,103,1625072984
7417,19,Jits_Linear_5,0,1,48,46,1625524964
7417,19,Jits_Linear_5,1,5,56,103,1625532640
7417,19,Jits_Linear_5,2,5,80,127,1625553472
7417,19,Jits_Linear_5,3,5,63,98,1625593136
7417,19,Jits_Linear_5,0,1,48,49,1626051252
7417,19,Jits_Linear_5,1,5,63,98,1626103296
7417,19,Jits_Linear_5,2,5,80,127,1626122488
7417,19,Jits_Linear_5,3,5,56,103,1626162484
7417,19,Jits_Linear_5,0,1,48,42,1626619724
7417,19,Jits_Linear_5,1,5,63,98,1626663368
7417,19,Jits_Linear_5,2,5,56,103,1626682632
7417,19,Jits_Linear_5,3,5,80,127,1626692828
7417,19,Jits_Linear_5,0,1,48,41,1627169012
7417,19,Jits_Linear_5,1,5,80,127,1627223288
7417,19,Jits_Linear_5,2,5,56,103,1627242924
7417,19,Jits_Linear_5,3,5,63,98,1627272440
7417,19,Jits_Linear_5,0,1,48,45,1627692824
7417,19,Jits_Linear_5,1,5,56,103,1627863512
7417,19,Jits_Linear_5,2,5,80,127,1627866652
7417,19,Jits_Linear_5,3,5,63,98,1627882852
7417,19,Jits_Linear_5,0,1,48,37,1628345852
7417,19,Jits_Linear_5,1,5,63,98,1628352848
7417,19,Jits_Linear_5,2,5,56,103,1628382624
7417,19,Jits_Linear_5,3,5,80,127,1628442940
7417,19,Jits_Linear_5,0,1,48,44,1628869204
7417,19,Jits_Linear_5,1,5,63,98,1629003068
7417,19,Jits_Linear_5,2,5,56,103,1629013488
7417,19,Jits_Linear_5,3,5,80,127,1629022564
7417,19,Jits_Linear_5,0,1,48,45,1629449612
7417,19,Jits_Linear_5,1,5,56,103,1629523372
7417,19,Jits_Linear_5,2,5,80,127,1629552888
7417,19,Jits_Linear_5,3,5,63,98,1629563528
7417,19,Jits_Linear_5,0,1,48,41,1629998068
7417,19,Jits_Linear_5,1,5,63,98,1630132584
7417,19,Jits_Linear_5,2,5,56,103,1630142784
7417,19,Jits_Linear_5,3,5,80,127,1630163464
7417,19,Jits_Linear_5,0,1,48,44,1630553444
7417,19,Jits_Linear_5,1,5,56,103,1630633416
7417,19,Jits_Linear_5,2,5,63,98,1630692616
7417,19,Jits_Linear_5,3,5,80,127,1630696356
7417,19,Jits_Linear_5,0,1,48,43,1631110368
7417,19,Jits_Linear_5,1,5,80,127,1631233420
7417,19,Jits_Linear_5,2,5,56,103,1631242720
7417,19,Jits_Linear_5,3,5,63,98,1631313524
7417,19,Jits_Linear_5,0,1,48,42,1631688032
7417,19,Jits_Linear_5,1,5,80,127,1631802860
7417,19,Jits_Linear_5,2,5,56,103,1631873444
7417,19,Jits_Linear_5,3,5,63,98,1631882592
7417,19,Jits_Linear_5,0,1,48,32,1632269336
7417,19,Jits_Linear_5,1,5,63,98,1632423252
7417,19,Jits_Linear_5,2,5,56,103,1632432624
7417,19,Jits_Linear_5,3,5,80,127,1632452936
7417,19,Jits_Linear_5,0,1,48,40,1632873552
7417,19,Jits_Linear_5,1,5,80,127,1632952768
7417,19,Jits_Linear_5,2,5,63,98,1633013324
7417,19,Jits_Linear_5,3,5,56,103,1633053116
7417,19,Jits_Linear_5,0,1,48,44,1633437364
7417,19,Jits_Linear_5,1,5,56,103,1633582316
7417,19,Jits_Linear_5,2,5,63,98,1633592812
7417,19,Jits_Linear_5,3,5,80,127,1633632528
7417,19,Jits_Linear_5,0,1,48,40,1634020560
7417,19,Jits_Linear_5,1,5,56,103,1634133472
7417,19,Jits_Linear_5,2,5,80,127,1634163220
7417,19,Jits_Linear_5,3,5,63,98,1634213352
7417,19,Jits_Linear_5,0,1,48,50,1634582196
7417,19,Jits_Linear_5,1,5,56,103,1634763300
7417,19,Jits_Linear_5,2,5,63,98,1634803188
7417,19,Jits_Linear_5,3,5,80,127,1634806328
7417,19,Jits_Linear_5,0,1,48,46,1635140152
7417,19,Jits_Linear_5,1,5,56,103,1635352988
7417,19,Jits_Linear_5,2,5,63,98,1635363408
7417,19,Jits_Linear_5,3,5,80,127,1635382596
7417,19,Jits_Linear_5,0,1,48,35,1635691400
7417,19,Jits_Linear_5,1,5,56,103,1635902796
7417,19,Jits_Linear_5,2,5,80,127,1635905936
7417,19,Jits_Linear_5,3,5,63,98,1635942736
7417,19,Jits_Linear_5,0,1,48,49,1636269284
7417,19,Jits_Linear_5,1,5,63,98,1636532544
7417,19,Jits_Linear_5,2,5,56,103,1636563340
7417,19,Jits_Linear_5,3,5,80,127,1636582628
7417,19,Jits_Linear_5,0,1,48,43,1636875236
7417,19,Jits_Linear_5,1,5,80,127,1637103056
7417,19,Jits_Linear_5,2,5,56,103,1637113400
7417,19,Jits_Linear_5,3,5,63,98,1637122400
7417,19,Jits_Linear_5,4,1,48,47,1637434340
7417,19,Jits_Linear_5,0,5,56,103,1637703272
7417,19,Jits_Linear_5,1,5,80,127,1637743064
7417,19,Jits_Linear_5,2,5,63,98,1637772516
7417,19,Jits_Linear_5,0,1,48,47,1638047644
7417,19,Jits_Linear_5,1,5,63,98,1638313276
7417,19,Jits_Linear_5,2,5,80,127,1638322500
7417,19,Jits_Linear_5,3,5,56,103,1638332696
7417,19,Jits_Linear_5,0,1,48,52,1638677920
7417,19,Jits_Linear_5,1,5,56,103,1638893000
7417,19,Jits_Linear_5,2,5,63,98,1638962536
7417,19,Jits_Linear_5,3,5,80,127,1638972732
7417,19,Jits_Linear_5,0,1,48,47,1639251424
7417,19,Jits_Linear_5,1,5,80,127,1639503180
7417,19,Jits_Linear_5,2,5,56,103,1639512328
7417,19,Jits_Linear_5,3,5,63,98,1639562604
7417,19,Jits_Linear_5,0,1,48,32,1639873344
7417,19,Jits_Linear_5,1,5,80,127,1640122732
7417,19,Jits_Linear_5,2,5,56,103,1640183300
7417,19,Jits_Linear_5,3,5,63,98,1640212828
7417,19,Jits_Linear_5,0,1,48,18,1640549716
7417,19,Jits_Linear_5,1,5,56,103,1640743136
7417,19,Jits_Linear_5,2,5,80,127,1640746208
7417,19,Jits_Linear_5,3,5,63,98,1640783156
7417,19,Jits_Linear_5,0,1,48,37,1641142000
7417,19,Jits_Linear_5,1,5,56,103,1641383368
7417,19,Jits_Linear_5,2,5,63,98,1641413120
7417,19,Jits_Linear_5,3,5,80,127,1641423316
7417,19,Jits_Linear_5,0,1,48,38,1641718416
7417,19,Jits_Linear_5,1,5,63,98,1642002732
7417,19,Jits_Linear_5,2,5,80,127,1642013300
7417,19,Jits_Linear_5,3,5,56,103,1642023348
7417,19,Jits_Linear_5,0,1,48,25,1642328240
7417,19,Jits_Linear_5,1,5,80,127,1642562876
7417,19,Jits_Linear_5,2,5,56,103,1642613228
7417,19,Jits_Linear_5,3,5,63,98,1642616220
7417,19,Jits_Linear_5,0,1,48,23,1642936996
7417,19,Jits_Linear_5,1,5,56,103,1643213364
7417,19,Jits_Linear_5,2,5,80,127,1643232652
7417,19,Jits_Linear_5,3,5,63,98,1643242996
7417,19,Jits_Linear_5,0,1,48,26,1643573220
7417,19,Jits_Linear_5,1,5,63,98,1643813244
7417,19,Jits_Linear_5,2,5,56,103,1643843216
7417,19,Jits_Linear_5,3,5,80,127,1643863380
7417,19,Jits_Linear_5,0,5,56,103,1644443084
7417,19,Jits_Linear_5,1,5,80,127,1644453428
7417,19,Jits_Linear_5,2,5,63,98,1644522840
7417,19,Jits_Linear_5,0,5,63,98,1645053352
7417,19,Jits_Linear_5,1,1,48,36,1645069576
7417,19,Jits_Linear_5,2,5,80,127,1645093360
7417,19,Jits_Linear_5,3,5,56,103,1645133300
7417,19,Jits_Linear_5,0,1,48,41,1645629040
7417,19,Jits_Linear_5,1,5,56,103,1645693360
7417,19,Jits_Linear_5,2,5,63,98,1645702436
7417,19,Jits_Linear_5,3,5,80,127,1645723192
7417,19,Jits_Linear_5,0,1,48,49,1646297824
7417,19,Jits_Linear_5,1,5,63,98,1646363068
7417,19,Jits_Linear_5,2,5,80,127,1646382480
7417,19,Jits_Linear_5,3,5,56,103,1646403224
7417,19,Jits_Linear_5,0,5,56,103,1646933336
7417,19,Jits_Linear_5,1,1,48,45,1646954360
7417,19,Jits_Linear_5,2,5,80,127,1647013280
7417,19,Jits_Linear_5,3,5,63,98,1647022428
7417,19,Jits_Linear_5,0,5,80,127,1647603284
7417,19,Jits_Linear_5,1,1,48,46,1647611892
7417,19,Jits_Linear_5,2,5,63,98,1647613328
7417,19,Jits_Linear_5,3,5,56,103,1647643076
7417,19,Jits_Linear_5,0,5,63,98,1648193040
7417,19,Jits_Linear_5,1,5,80,127,1648232980
7417,19,Jits_Linear_5,2,1,48,51,1648264348
7417,19,Jits_Linear_5,3,5,56,103,1648293292
7417,19,Jits_Linear_5,0,5,63,98,1648833128
7417,19,Jits_Linear_5,1,1,48,43,1648877924
7417,19,Jits_Linear_5,2,5,56,103,1648883128
7417,19,Jits_Linear_5,3,5,80,127,1648913024
7417,19,Jits_Linear_5,0,5,80,127,1649483056
7417,19,Jits_Linear_5,1,5,63,98,1649493552
7417,19,Jits_Linear_5,2,1,48,42,1649500504
7417,19,Jits_Linear_5,3,5,56,103,1649563080
7417,19,Jits_Linear_5,0,1,48,35,1650116756
7417,19,Jits_Linear_5,1,5,80,127,1650193008
7417,19,Jits_Linear_5,2,5,56,103,1650203204
7417,19,Jits_Linear_5,3,5,63,98,1650206344
7417,19,Jits_Linear_5,0,5,56,103,1650773236
7417,19,Jits_Linear_5,1,5,80,127,1650793172
7417,19,Jits_Linear_5,2,5,63,98,1650803144
7417,19,Jits_Linear_5,3,1,48,38,1650832040
7417,19,Jits_Linear_5,0,5,63,98,1651422728
7417,19,Jits_Linear_5,1,1,48,38,1651434692
7417,19,Jits_Linear_5,2,5,56,103,1651462516
7417,19,Jits_Linear_5,3,5,80,127,1651483272
7417,19,Jits_Linear_5,0,1,48,32,1652064512
7417,19,Jits_Linear_5,1,5,63,98,1652073004
7417,19,Jits_Linear_5,2,5,56,103,1652133172
7417,19,Jits_Linear_5,3,5,80,127,1652136236
7417,19,Jits_Linear_5,0,5,56,103,1652683120
7417,19,Jits_Linear_5,1,5,80,127,1652702560
7417,19,Jits_Linear_5,2,1,48,34,1652724260
7417,19,Jits_Linear_5,3,5,63,98,1652742568
7417,19,Jits_Linear_5,0,1,48,26,1653345616
7417,19,Jits_Linear_5,1,5,56,103,1653363176
7417,19,Jits_Linear_5,2,5,63,98,1653382664
7417,19,Jits_Linear_5,3,5,80,127,1653392860
7417,19,Jits_Linear_5,0,5,80,127,1653982692
7417,19,Jits_Linear_5,1,1,48,37,1654007912
7417,19,Jits_Linear_5,2,5,56,103,1654013188
7417,19,Jits_Linear_5,3,5,63,98,1654053204
7417,19,Jits_Linear_5,0,1,48,37,1654620376
7417,19,Jits_Linear_5,1,5,80,127,1654643168
7417,19,Jits_Linear_5,2,5,56,103,1654662656
7417,19,Jits_Linear_5,3,5,63,98,1654723108
7417,19,Jits_Linear_5,0,1,48,38,1655251164
7417,19,Jits_Linear_5,1,5,56,103,1655302680
7417,19,Jits_Linear_5,2,5,80,127,1655322916
7417,19,Jits_Linear_5,3,5,63,98,1655383292
7417,19,Jits_Linear_5,0,1,48,40,1655908568
7417,19,Jits_Linear_5,1,5,80,127,1655942544
7417,19,Jits_Linear_5,2,5,56,103,1655952888
7417,19,Jits_Linear_5,3,5,63,98,1655992680
7417,19,Jits_Linear_5,0,1,48,39,1656547328
7417,19,Jits_Linear_5,1,5,63,98,1656603032
7417,19,Jits_Linear_5,2,5,56,103,1656642880
7417,19,Jits_Linear_5,3,5,80,127,1656645948
7417,19,Jits_Linear_5,0,1,48,48,1657193404
7417,19,Jits_Linear_5,1,5,63,98,1657283116
7417,19,Jits_Linear_5,2,5,80,127,1657322992
7417,19,Jits_Linear_5,3,5,56,103,1657352520
7417,19,Jits_Linear_5,0,5,56,103,1657933200
7417,19,Jits_Linear_5,1,5,63,98,1657943548
7417,19,Jits_Linear_5,2,1,48,42,1657944884
7417,19,Jits_Linear_5,3,5,80,127,1657973068
7417,19,Jits_Linear_5,0,5,80,127,1658592584
7417,19,Jits_Linear_5,1,1,48,49,1658593548
7417,19,Jits_Linear_5,2,5,63,98,1658663164
7417,19,Jits_Linear_5,3,5,56,103,1658672684
7417,19,Jits_Linear_5,0,5,63,98,1659263328
7417,19,Jits_Linear_5,1,1,48,41,1659300752
7417,19,Jits_Linear_5,2,5,56,103,1659333008
7417,19,Jits_Linear_5,3,5,80,127,1659343280
7417,19,Jits_Linear_5,0,5,63,98,1659933116
7417,19,Jits_Linear_5,1,1,48,32,1659948592
7417,19,Jits_Linear_5,2,5,56,103,1659952448
7417,19,Jits_Linear_5,3,5,80,127,1659992460
7417,19,Jits_Linear_5,0,5,56,103,1660613060
7417,19,Jits_Linear_5,1,1,48,38,1660620588
7417,19,Jits_Linear_5,2,5,63,98,1660623176
7417,19,Jits_Linear_5,3,5,80,127,1660702996
7417,19,Jits_Linear_5,0,5,63,98,1661272520
7417,19,Jits_Linear_5,1,5,56,103,1661303096
7417,19,Jits_Linear_5,2,1,48,39,1661336928
7417,19,Jits_Linear_5,3,5,80,127,1661343028
7417,19,Jits_Linear_5,0,5,56,103,1661943268
7417,19,Jits_Linear_5,1,1,48,39,1661973888
7417,19,Jits_Linear_5,2,5,63,98,1661983052
7417,19,Jits_Linear_5,3,5,80,127,1662022992
7417,19,Jits_Linear_5,0,1,48,35,1662601624
7417,19,Jits_Linear_5,1,5,80,127,1662623072
7417,19,Jits_Linear_5,2,5,56,103,1662702884
7417,19,Jits_Linear_5,3,5,63,98,1662713152
7417,19,Jits_Linear_5,0,1,48,36,1663258204
7417,19,Jits_Linear_5,1,5,56,103,1663342904
7417,19,Jits_Linear_5,2,5,63,98,1663345892
7417,19,Jits_Linear_5,3,5,80,127,1663353752
7417,19,Jits_Linear_5,0,1,48,47,1663909664
7417,19,Jits_Linear_5,1,5,56,103,1664043308
7417,19,Jits_Linear_5,2,5,63,98,1664063092
7417,19,Jits_Linear_5,3,5,80,127,1664072992
7417,19,Jits_Linear_5,0,1,48,32,1664634088
7417,19,Jits_Linear_5,1,5,63,98,1664683340
7417,19,Jits_Linear_5,2,5,80,127,1664692860
7417,19,Jits_Linear_5,3,5,56,103,1664713024
7417,19,Jits_Linear_5,0,5,63,98,1665372456
7417,19,Jits_Linear_5,1,1,48,40,1665389276
7417,19,Jits_Linear_5,2,5,56,103,1665453368
7417,19,Jits_Linear_5,3,5,80,127,1665456508
7417,19,Jits_Linear_5,0,5,63,98,1666062984
7417,19,Jits_Linear_5,1,5,56,103,1666083148
7417,19,Jits_Linear_5,2,1,48,24,1666108664
7417,19,Jits_Linear_5,3,5,80,127,1666112964
7417,19,Jits_Linear_5,0,5,56,103,1666753044
7417,19,Jits_Linear_5,1,5,63,98,1666773280
7417,19,Jits_Linear_5,2,5,80,127,1666782532
7417,19,Jits_Linear_5,0,1,48,46,1667434976
7417,19,Jits_Linear_5,1,5,56,103,1667472692
7417,19,Jits_Linear_5,2,5,63,98,1667502820
7417,19,Jits_Linear_5,3,5,80,127,1667506028
7417,19,Jits_Linear_5,0,1,48,45,1668110208
7417,19,Jits_Linear_5,1,5,56,103,1668113020
7417,19,Jits_Linear_5,2,5,63,98,1668152812
7417,19,Jits_Linear_5,3,5,80,127,1668213188
7417,19,Jits_Linear_5,0,5,56,103,1668823316
7417,19,Jits_Linear_5,1,5,63,98,1668832716
7417,19,Jits_Linear_5,2,1,48,41,1668847068
7417,19,Jits_Linear_5,3,5,80,127,1668893024
7417,19,Jits_Linear_5,0,5,56,103,1669522784
7417,19,Jits_Linear_5,1,5,80,127,1669543168
7417,19,Jits_Linear_5,2,1,48,42,1669571712
7417,19,Jits_Linear_5,3,5,63,98,1669573208
7417,19,Jits_Linear_5,0,5,80,127,1670223220
7417,19,Jits_Linear_5,1,5,56,103,1670232296
7417,19,Jits_Linear_5,2,5,63,98,1670252904
7417,19,Jits_Linear_5,3,1,48,48,1670281652
7417,19,Jits_Linear_5,0,5,63,98,1670913392
7417,19,Jits_Linear_5,1,1,48,39,1670957936
7417,19,Jits_Linear_5,2,5,80,127,1670993260
7417,19,Jits_Linear_5,3,5,56,103,1671002856
7417,19,Jits_Linear_5,0,5,80,127,1671673312
7417,19,Jits_Linear_5,1,1,48,47,1671677552
7417,19,Jits_Linear_5,2,5,56,103,1671692868
7417,19,Jits_Linear_5,3,5,63,98,1671695856
7417,19,Jits_Linear_5,0,5,63,98,1672353120
7417,19,Jits_Linear_5,1,5,80,127,1672356408
7417,19,Jits_Linear_5,2,1,48,47,1672365676
7417,19,Jits_Linear_5,3,5,56,103,1672412704
7417,19,Jits_Linear_5,0,5,56,103,1673043272
7417,19,Jits_Linear_5,1,5,80,127,1673052496
7417,19,Jits_Linear_5,2,1,48,54,1673060248
7417,19,Jits_Linear_5,3,5,63,98,1673092580
7417,19,Jits_Linear_5,0,5,56,103,1673732544
7417,19,Jits_Linear_5,1,1,48,52,1673737156
7417,19,Jits_Linear_5,2,5,63,98,1673792784
7417,19,Jits_Linear_5,3,5,80,127,1673802980
7417,19,Jits_Linear_5,0,5,63,98,1674453264
7417,19,Jits_Linear_5,1,5,80,127,1674493228
7417,19,Jits_Linear_5,2,1,48,47,1674498740
7417,19,Jits_Linear_5,3,5,56,103,1674533160
7417,19,Jits_Linear_5,0,5,56,103,1675162980
7417,19,Jits_Linear_5,1,1,48,46,1675166848
7417,19,Jits_Linear_5,2,5,63,98,1675242944
7417,19,Jits_Linear_5,3,5,80,127,1675246084
7417,19,Jits_Linear_5,0,1,48,41,1675867116
7417,19,Jits_Linear_5,1,5,80,127,1675933012
7417,19,Jits_Linear_5,2,5,56,103,1675962748
7417,19,Jits_Linear_5,3,5,63,98,1675965884
7417,19,Jits_Linear_5,0,5,56,103,1676612912
7417,19,Jits_Linear_5,1,1,48,46,1676618420
7417,19,Jits_Linear_5,2,5,80,127,1676632540
7417,19,Jits_Linear_5,3,5,63,98,1676673600
7417,19,Jits_Linear_5,0,5,80,127,1677313648
7417,19,Jits_Linear_5,1,5,63,98,1677332836
7417,19,Jits_Linear_5,2,1,48,43,1677338124
7417,19,Jits_Linear_5,3,5,56,103,1677393444
7417,19,Jits_Linear_5,0,1,48,41,1678038300
7417,19,Jits_Linear_5,1,5,63,98,1678042624
7417,19,Jits_Linear_5,2,5,56,103,1678052672
7417,19,Jits_Linear_5,3,5,80,127,1678102800
7417,19,Jits_Linear_5,0,1,48,44,1678749880
7417,19,Jits_Linear_5,1,5,56,103,1678753136
7417,19,Jits_Linear_5,2,5,63,98,1678772772
7417,19,Jits_Linear_5,3,5,80,127,1678782892
7417,19,Jits_Linear_5,0,1,48,46,1679458688
7417,19,Jits_Linear_5,1,5,56,103,1679472956
7417,19,Jits_Linear_5,2,5,63,98,1679476100
7417,19,Jits_Linear_5,3,5,80,127,1679492520
7417,19,Jits_Linear_5,0,1,48,37,1680180764
7417,19,Jits_Linear_5,1,5,63,98,1680243048
7417,19,Jits_Linear_5,2,5,56,103,1680272800
7417,19,Jits_Linear_5,3,5,80,127,1680302460
7417,19,Jits_Linear_5,0,5,80,127,1680933208
7417,19,Jits_Linear_5,1,1,48,43,1680952744
7417,19,Jits_Linear_5,2,5,56,103,1681023416
7417,19,Jits_Linear_5,3,5,63,98,1681026480
7417,19,Jits_Linear_5,0,1,48,42,1681661852
7417,19,Jits_Linear_5,1,5,56,103,1681663300
7417,19,Jits_Linear_5,2,5,80,127,1681666440
7417,19,Jits_Linear_5,3,5,63,98,1681743616
7417,19,Jits_Linear_5,0,1,48,46,1682337724
7417,19,Jits_Linear_5,1,5,80,127,1682392604
7417,19,Jits_Linear_5,2,5,63,98,1682452860
7417,19,Jits_Linear_5,3,5,56,103,1682482684
7417,19,Jits_Linear_5,0,1,48,45,1683073224
7417,19,Jits_Linear_5,1,5,63,98,1683122696
7417,19,Jits_Linear_5,2,5,80,127,1683132744
7417,19,Jits_Linear_5,3,5,56,103,1683202584
7417,19,Jits_Linear_5,0,5,56,103,1683873096
7417,19,Jits_Linear_5,1,1,48,44,1683875032
7417,19,Jits_Linear_5,2,5,80,127,1683902840
7417,19,Jits_Linear_5,3,5,63,98,1683952992
7417,19,Jits_Linear_5,0,1,48,46,1684647592
7417,19,Jits_Linear_5,1,5,63,98,1684653544
7417,19,Jits_Linear_5,2,5,56,103,1684682988
7417,19,Jits_Linear_5,3,5,80,127,1684686284
7417,19,Jits_Linear_5,0,5,63,98,1685392776
7417,19,Jits_Linear_5,1,1,48,49,1685400612
7417,19,Jits_Linear_5,2,5,80,127,1685413456
7417,19,Jits_Linear_5,3,5,56,103,1685422528
7417,19,Jits_Linear_5,0,1,48,45,1686094220
7417,19,Jits_Linear_5,1,5,56,103,1686143316
7417,19,Jits_Linear_5,2,5,63,98,1686146532
7417,19,Jits_Linear_5,3,5,80,127,1686162952
7417,19,Jits_Linear_5,0,5,56,103,1686842692
7417,19,Jits_Linear_5,1,1,48,49,1686846180
7417,19,Jits_Linear_5,2,5,63,98,1686852956
7417,19,Jits_Linear_5,3,5,80,127,1686882632
7417,19,Jits_Linear_5,0,1,48,50,1687563392
7417,19,Jits_Linear_5,1,5,63,98,1687612868
7417,19,Jits_Linear_5,2,5,80,127,1687633404
7417,19,Jits_Linear_5,3,5,56,103,1687673476
7417,19,Jits_Linear_5,0,1,48,49,1688312292
7417,19,Jits_Linear_5,1,5,56,103,1688392936
7417,19,Jits_Linear_5,2,5,63,98,1688433080
7417,19,Jits_Linear_5,3,5,80,127,1688436444
7417,19,Jits_Linear_5,0,5,80,127,1689083392
7417,19,Jits_Linear_5,1,1,48,51,1689122504
7417,19,Jits_Linear_5,2,5,56,103,1689124000
7417,19,Jits_Linear_5,3,5,63,98,1689173528
7417,19,Jits_Linear_5,0,1,48,32,1689864340
7417,19,Jits_Linear_5,1,5,56,103,1689893284
7417,19,Jits_Linear_5,2,5,80,127,1689902660
7417,19,Jits_Linear_5,3,5,63,98,1689933156
7417,19,Jits_Linear_5,0,5,56,103,1690592744
7417,19,Jits_Linear_5,1,1,48,34,1690629044
7417,19,Jits_Linear_5,2,5,80,127,1690632604
7417,19,Jits_Linear_5,3,5,63,98,1690682804
7417,19,Jits_Linear_5,0,5,56,103,1691352640
7417,19,Jits_Linear_5,1,1,48,32,1691372624
7417,19,Jits_Linear_5,2,5,80,127,1691393548
7417,19,Jits_Linear_5,3,5,63,98,1691442556
7417,19,Jits_Linear_5,0,1,48,48,1692088220
7417,19,Jits_Linear_5,1,5,80,127,1692103016
7417,19,Jits_Linear_5,2,5,63,98,1692182844
7417,19,Jits_Linear_5,3,5,56,103,1692193100
7417,19,Jits_Linear_5,0,1,48,51,1692811884
7417,19,Jits_Linear_5,1,5,80,127,1692912988
7417,19,Jits_Linear_5,2,5,56,103,1692923332
7417,19,Jits_Linear_5,3,5,63,98,1692942672
7417,19,Jits_Linear_5,0,1,48,45,1693551340
7417,19,Jits_Linear_5,1,5,63,98,1693643072
7417,19,Jits_Linear_5,2,5,56,103,1693712692
7417,19,Jits_Linear_5,3,5,80,127,1693715684
7417,19,Jits_Linear_5,0,5,80,127,1694402908
7417,19,Jits_Linear_5,1,1,48,43,1694414048
7417,19,Jits_Linear_5,2,5,63,98,1694453056
7417,19,Jits_Linear_5,3,5,56,103,1694492924
7417,19,Jits_Linear_5,0,1,48,46,1695171800
7417,19,Jits_Linear_5,1,5,63,98,1695213128
7417,19,Jits_Linear_5,2,5,56,103,1695252772
7417,19,Jits_Linear_5,3,5,80,127,1695264300
7417,19,Jits_Linear_5,0,1,48,48,1695944224
7417,19,Jits_Linear_5,1,5,63,98,1695972672
7417,19,Jits_Linear_5,2,5,56,103,1695993132
7417,19,Jits_Linear_5,3,5,80,127,1696012548
7417,19,Jits_Linear_5,0,5,80,127,1696702824
7417,19,Jits_Linear_5,1,5,56,103,1696713020
7417,19,Jits_Linear_5,2,5,63,98,1696732608
7417,19,Jits_Linear_5,3,1,48,44,1696735648
7417,19,Jits_Linear_5,0,1,48,47,1697421056
7417,19,Jits_Linear_5,1,5,63,98,1697502548
7417,19,Jits_Linear_5,2,5,56,103,1697542476
7417,19,Jits_Linear_5,3,5,80,127,1697573492
7417,19,Jits_Linear_5,0,1,48,48,1698185080
7417,19,Jits_Linear_5,1,5,56,103,1698282900
7417,19,Jits_Linear_5,2,5,63,98,1698312576
7417,19,Jits_Linear_5,3,5,80,127,1698343224
7417,19,Jits_Linear_5,0,1,48,46,1699025244
7417,19,Jits_Linear_5,1,5,80,127,1699032388
7417,19,Jits_Linear_5,2,5,56,103,1699103044
7417,19,Jits_Linear_5,3,5,63,98,1699106112
7417,19,Jits_Linear_5,0,5,56,103,1699822940
7417,19,Jits_Linear_5,1,1,48,48,1699844344
7417,19,Jits_Linear_5,2,5,63,98,1699873436
7417,19,Jits_Linear_5,3,5,80,127,1699902812
7417,19,Jits_Linear_5,0,5,63,98,1700582792
7417,19,Jits_Linear_5,1,5,80,127,1700586080
7417,19,Jits_Linear_5,2,1,48,46,1700591312
7417,19,Jits_Linear_5,3,5,56,103,1700643472
7417,19,Jits_Linear_5,0,1,48,43,1701331844
7417,19,Jits_Linear_5,1,5,56,103,1701392808
7417,19,Jits_Linear_5,2,5,80,127,1701403080
7417,19,Jits_Linear_5,3,5,63,98,1701453416
7417,19,Jits_Linear_5,0,5,63,98,1702152428
7417,19,Jits_Linear_5,1,5,56,103,1702162924
7417,19,Jits_Linear_5,2,5,80,127,1702192376
7417,19,Jits_Linear_5,3,1,48,47,1702193340
7417,19,Jits_Linear_5,0,1,48,48,1702883004
7417,19,Jits_Linear_5,1,5,63,98,1702972712
7417,19,Jits_Linear_5,2,5,80,127,1702976300
7417,19,Jits_Linear_5,3,5,56,103,1703002452
7417,19,Jits_Linear_5,0,1,48,50,1703744648
7417,19,Jits_Linear_5,1,5,63,98,1703782736
7417,19,Jits_Linear_5,2,5,56,103,1703803340
7417,19,Jits_Linear_5,3,5,80,127,1703806256
7417,19,Jits_Linear_5,0,5,63,98,1704533276
7417,19,Jits_Linear_5,1,1,48,48,1704535288
7417,19,Jits_Linear_5,2,5,56,103,1704603104
7417,19,Jits_Linear_5,3,5,80,127,1704622440
7417,19,Jits_Linear_5,0,5,56,103,1705312520
7417,19,Jits_Linear_5,1,5,63,98,1705323236
7417,19,Jits_Linear_5,2,1,48,48,1705332504
7417,19,Jits_Linear_5,3,5,80,127,1705413064
7417,19,Jits_Linear_5,0,1,48,54,1706092940
7417,19,Jits_Linear_5,1,5,56,103,1706122560
7417,19,Jits_Linear_5,2,5,80,127,1706162500
7417,19,Jits_Linear_5,3,5,63,98,1706172768
7417,19,Jits_Linear_5,0,1,48,51,1706942488
7417,19,Jits_Linear_5,1,5,56,103,1706944048
7417,19,Jits_Linear_5,2,5,63,98,1706972480
7417,19,Jits_Linear_5,3,5,80,127,1707003204
7417,19,Jits_Linear_5,0,5,80,127,1707702768
7417,19,Jits_Linear_5,1,1,48,49,1707728212
7417,19,Jits_Linear_5,2,5,63,98,1707742656
7417,19,Jits_Linear_5,3,5,56,103,1707763260
7417,19,Jits_Linear_5,0,1,48,48,1708531844
7417,19,Jits_Linear_5,1,5,56,103,1708543328
7417,19,Jits_Linear_5,2,5,80,127,1708562668
7417,19,Jits_Linear_5,3,5,63,98,1708583424
7417,19,Jits_Linear_5,0,5,63,98,1709313284
7417,19,Jits_Linear_5,1,5,56,103,1709322732
7417,19,Jits_Linear_5,2,1,48,47,1709333344
7417,19,Jits_Linear_5,3,5,80,127,1709383116
7417,19,Jits_Linear_5,0,1,48,48,1710077272
7417,19,Jits_Linear_5,1,5,56,103,1710123236
7417,19,Jits_Linear_5,2,5,63,98,1710193200
7417,19,Jits_Linear_5,3,5,80,127,1710212392
7417,19,Jits_Linear_5,0,1,48,47,1710908512
7417,19,Jits_Linear_5,1,5,56,103,1710933344
7417,19,Jits_Linear_5,2,5,63,98,1710963244
7417,19,Jits_Linear_5,3,5,80,127,1711002960
7417,19,Jits_Linear_5,0,1,48,50,1711693152
7417,19,Jits_Linear_5,1,5,63,98,1711733112
7417,19,Jits_Linear_5,2,5,56,103,1711783392
7417,19,Jits_Linear_5,3,5,80,127,1711792600
7417,19,Jits_Linear_5,0,1,48,40,1712495536
7417,19,Jits_Linear_5,1,5,56,103,1712583228
7417,19,Jits_Linear_5,2,5,63,98,1712633220
7417,19,Jits_Linear_5,3,5,80,127,1712642520
7417,19,Jits_Linear_5,0,1,48,44,1713338840
7417,19,Jits_Linear_5,1,5,56,103,1713363372
7417,19,Jits_Linear_5,2,5,63,98,1713372472
7417,19,Jits_Linear_5,3,5,80,127,1713453600
7417,19,Jits_Linear_5,0,9999,9999,9999,1604620364
7417,19,Jits_Linear_5,1,9999,9999,9999,1605100600
7417,19,Jits_Linear_5,2,9999,9999,9999,1605580888
7417,19,Jits_Linear_5,3,9999,9999,9999,1606060116
7417,19,Jits_Linear_5,4,9999,9999,9999,1606540400
7417,19,Jits_Linear_5,5,9999,9999,9999,1607030876
7417,19,Jits_Linear_5,6,9999,9999,9999,1607520376
7417,19,Jits_Linear_5,7,9999,9999,9999,1608010860
7417,19,Jits_Linear_5,8,9999,9999,9999,1608500300
7417,19,Jits_Linear_5,9,9999,9999,9999,1608990784
7417,19,Jits_Linear_5,10,9999,9999,9999,1609490544
7417,19,Jits_Linear_5,11,9999,9999,9999,1609990212
7417,19,Jits_Linear_5,12,9999,9999,9999,1610490936
7417,19,Jits_Linear_5,13,9999,9999,9999,1610990700
7417,19,Jits_Linear_5,14,9999,9999,9999,1611490372
7417,19,Jits_Linear_5,15,9999,9999,9999,1612000324
7417,19,Jits_Linear_5,16,9999,9999,9999,1612510276
7417,19,Jits_Linear_5,17,9999,9999,9999,1613020288
7417,19,Jits_Linear_5,18,9999,9999,9999,1613530232
7417,19,Jits_Linear_5,19,9999,9999,9999,1614040180
7417,19,Jits_Linear_5,20,9999,9999,9999,1614560340
7417,19,Jits_Linear_5,21,9999,9999,9999,1615080528
7417,19,Jits_Linear_5,22,9999,9999,9999,1615600740
7417,19,Jits_Linear_5,23,9999,9999,9999,1616120956
7417,19,Jits_Linear_5,24,9999,9999,9999,1616640128
7417,19,Jits_Linear_5,25,9999,9999,9999,1617170520
7417,19,Jits_Linear_5,26,9999,9999,9999,1617700924
7417,19,Jits_Linear_5,27,9999,9999,9999,1618230336
7417,19,Jits_Linear_5,28,9999,9999,9999,1618760820
7417,19,Jits_Linear_5,29,9999,9999,9999,1619290172
7417,19,Jits_Linear_5,30,9999,9999,9999,1619830840
7417,19,Jits_Linear_5,31,9999,9999,9999,1620370540
7417,19,Jits_Linear_5,32,9999,9999,9999,1620910156
7417,19,Jits_Linear_5,33,9999,9999,9999,1621450824
7417,19,Jits_Linear_5,34,9999,9999,9999,1621990520
7417,19,Jits_Linear_5,35,9999,9999,9999,1622540408
7417,19,Jits_Linear_5,36,9999,9999,9999,1623090284
7417,19,Jits_Linear_5,37,9999,9999,9999,1623640168
7417,19,Jits_Linear_5,38,9999,9999,9999,1624191100
7417,19,Jits_Linear_5,39,9999,9999,9999,1624740992
7417,19,Jits_Linear_5,40,9999,9999,9999,1625301068
7417,19,Jits_Linear_5,41,9999,9999,9999,1625860188
7417,19,Jits_Linear_5,42,9999,9999,9999,1626420332
7417,19,Jits_Linear_5,43,9999,9999,9999,1626980476
7417,19,Jits_Linear_5,44,9999,9999,9999,1627540552
7417,19,Jits_Linear_5,45,9999,9999,9999,1628110936
7417,19,Jits_Linear_5,46,9999,9999,9999,1628680252
7417,19,Jits_Linear_5,47,9999,9999,9999,1629250668
7417,19,Jits_Linear_5,48,9999,9999,9999,1629821008
7417,19,Jits_Linear_5,49,9999,9999,9999,1630390376
7417,19,Jits_Linear_5,50,9999,9999,9999,1630970996
7417,19,Jits_Linear_5,51,9999,9999,9999,1631550548
7417,19,Jits_Linear_5,52,9999,9999,9999,1632130108
7417,19,Jits_Linear_5,53,9999,9999,9999,1632710784
7417,19,Jits_Linear_5,54,9999,9999,9999,1633290364
7417,19,Jits_Linear_5,55,9999,9999,9999,1633880188
7417,19,Jits_Linear_5,56,9999,9999,9999,1634470976
7417,19,Jits_Linear_5,57,9999,9999,9999,1635060816
7417,19,Jits_Linear_5,58,9999,9999,9999,1635650636
7417,19,Jits_Linear_5,59,9999,9999,9999,1636240444
7417,19,Jits_Linear_5,60,9999,9999,9999,1636840552
7417,19,Jits_Linear_5,61,9999,9999,9999,1637440624
7417,19,Jits_Linear_5,62,9999,9999,9999,1638040632
7417,19,Jits_Linear_5,63,9999,9999,9999,1638640764
7417,19,Jits_Linear_5,64,9999,9999,9999,1639240772
7417,19,Jits_Linear_5,65,9999,9999,9999,1639851092
7417,19,Jits_Linear_5,66,9999,9999,9999,1640470604
7417,19,Jits_Linear_5,67,9999,9999,9999,1641080936
7417,19,Jits_Linear_5,68,9999,9999,9999,1641690232
7417,19,Jits_Linear_5,69,9999,9999,9999,1642300528
7417,19,Jits_Linear_5,70,9999,9999,9999,1642921044
7417,19,Jits_Linear_5,71,9999,9999,9999,1643540556
7417,19,Jits_Linear_5,72,9999,9999,9999,1644160112
7417,19,Jits_Linear_5,73,9999,9999,9999,1644780612
7417,19,Jits_Linear_5,74,9999,9999,9999,1645400124
7417,19,Jits_Linear_5,75,9999,9999,9999,1646030924
7417,19,Jits_Linear_5,76,9999,9999,9999,1646660700
7417,19,Jits_Linear_5,77,9999,9999,9999,1647290452
7417,19,Jits_Linear_5,78,9999,9999,9999,1647920240
7417,19,Jits_Linear_5,79,9999,9999,9999,1648550976
7417,19,Jits_Linear_5,80,9999,9999,9999,1649191012
7417,19,Jits_Linear_5,81,9999,9999,9999,1649831028
7417,19,Jits_Linear_5,82,9999,9999,9999,1650471004
7417,19,Jits_Linear_5,83,9999,9999,9999,1651111016
7417,19,Jits_Linear_5,84,9999,9999,9999,1651750996
7417,19,Jits_Linear_5,85,9999,9999,9999,1652400220
7417,19,Jits_Linear_5,86,9999,9999,9999,1653050448
7417,19,Jits_Linear_5,87,9999,9999,9999,1653700664
7417,19,Jits_Linear_5,88,9999,9999,9999,1654350964
7417,19,Jits_Linear_5,89,9999,9999,9999,1655000136
7417,19,Jits_Linear_5,90,9999,9999,9999,1655660620
7417,19,Jits_Linear_5,91,9999,9999,9999,1656320064
7417,19,Jits_Linear_5,92,9999,9999,9999,1656980588
7417,19,Jits_Linear_5,93,9999,9999,9999,1657641080
7417,19,Jits_Linear_5,94,9999,9999,9999,1658300500
7417,19,Jits_Linear_5,95,9999,9999,9999,1658970224
7417,19,Jits_Linear_5,96,9999,9999,9999,1659640920
7417,19,Jits_Linear_5,97,9999,9999,9999,1660310604
7417,19,Jits_Linear_5,98,9999,9999,9999,1660980308
7417,19,Jits_Linear_5,99,9999,9999,9999,1661651052
7417,19,Jits_Linear_5,100,9999,9999,9999,1662330944
7417,19,Jits_Linear_5,101,9999,9999,9999,1663010932
7417,19,Jits_Linear_5,102,9999,9999,9999,1663690868
7417,19,Jits_Linear_5,103,9999,9999,9999,1664370768
7417,19,Jits_Linear_5,104,9999,9999,9999,1665050744
7417,19,Jits_Linear_5,105,9999,9999,9999,1665740872
7417,19,Jits_Linear_5,106,9999,9999,9999,1666431104
7417,19,Jits_Linear_5,107,9999,9999,9999,1667120240
7417,19,Jits_Linear_5,108,9999,9999,9999,1667810420
7417,19,Jits_Linear_5,109,9999,9999,9999,1668500552
7417,19,Jits_Linear_5,110,9999,9999,9999,1669200980
7417,19,Jits_Linear_5,111,9999,9999,9999,1669900368
7417,19,Jits_Linear_5,112,9999,9999,9999,1670600780
7417,19,Jits_Linear_5,113,9999,9999,9999,1671300176
7417,19,Jits_Linear_5,114,9999,9999,9999,1672000596
7417,19,Jits_Linear_5,115,9999,9999,9999,1672710244
7417,19,Jits_Linear_5,116,9999,9999,9999,1673420904
7417,19,Jits_Linear_5,117,9999,9999,9999,1674130560
7417,19,Jits_Linear_5,118,9999,9999,9999,1674840140
7417,19,Jits_Linear_5,119,9999,9999,9999,1675550824
7417,19,Jits_Linear_5,120,9999,9999,9999,1676270664
7417,19,Jits_Linear_5,121,9999,9999,9999,1676990544
7417,19,Jits_Linear_5,122,9999,9999,9999,1677710464
7417,19,Jits_Linear_5,123,9999,9999,9999,1678430304
7417,19,Jits_Linear_5,124,9999,9999,9999,1679150204
7417,19,Jits_Linear_5,125,9999,9999,9999,1679880284
7417,19,Jits_Linear_5,126,9999,9999,9999,1680610376
7417,19,Jits_Linear_5,127,9999,9999,9999,1681340508
7417,19,Jits_Linear_5,128,9999,9999,9999,1682070600
7417,19,Jits_Linear_5,129,9999,9999,9999,1682800768
7417,19,Jits_Linear_5,130,9999,9999,9999,1683541120
7417,19,Jits_Linear_5,131,9999,9999,9999,1684280424
7417,19,Jits_Linear_5,132,9999,9999,9999,1685020788
7417,19,Jits_Linear_5,133,9999,9999,9999,1685760100
7417,19,Jits_Linear_5,134,9999,9999,9999,1686500448
7417,19,Jits_Linear_5,135,9999,9999,9999,1687251040
7417,19,Jits_Linear_5,136,9999,9999,9999,1688000624
7417,19,Jits_Linear_5,137,9999,9999,9999,1688750188
7417,19,Jits_Linear_5,138,9999,9999,9999,1689500732
7417,19,Jits_Linear_5,139,9999,9999,9999,1690250328
7417,19,Jits_Linear_5,140,9999,9999,9999,1691010160
7417,19,Jits_Linear_5,141,9999,9999,9999,1691770956
7417,19,Jits_Linear_5,142,9999,9999,9999,1692530808
7417,19,Jits_Linear_5,143,9999,9999,9999,1693290572
7417,19,Jits_Linear_5,144,9999,9999,9999,1694050400
7417,19,Jits_Linear_5,145,9999,9999,9999,1694820428
7417,19,Jits_Linear_5,146,9999,9999,9999,1695590476
7417,19,Jits_Linear_5,147,9999,9999,9999,1696360504
7417,19,Jits_Linear_5,148,9999,9999,9999,1697130600
7417,19,Jits_Linear_5,149,9999,9999,9999,1697900644
7417,19,Jits_Linear_5,150,9999,9999,9999,1698680932
7417,19,Jits_Linear_5,151,9999,9999,9999,1699460216
7417,19,Jits_Linear_5,152,9999,9999,9999,1700240508
7417,19,Jits_Linear_5,153,9999,9999,9999,1701020800
7417,19,Jits_Linear_5,154,9999,9999,9999,1701801016
7417,19,Jits_Linear_5,155,9999,9999,9999,1702590592
7417,19,Jits_Linear_5,156,9999,9999,9999,1703381060
7417,19,Jits_Linear_5,157,9999,9999,9999,1704170576
7417,19,Jits_Linear_5,158,9999,9999,9999,1704960084
7417,19,Jits_Linear_5,159,9999,9999,9999,1705750636
7417,19,Jits_Linear_5,160,9999,9999,9999,1706550344
7417,19,Jits_Linear_5,161,9999,9999,9999,1707350112
7417,19,Jits_Linear_5,162,9999,9999,9999,1708150848
7417,19,Jits_Linear_5,163,9999,9999,9999,1708950632
7417,19,Jits_Linear_5,164,9999,9999,9999,1709750328
7417,19,Jits_Linear_5,165,9999,9999,9999,1710560312
7417,19,Jits_Linear_5,166,9999,9999,9999,1711370344
7417,19,Jits_Linear_5,167,9999,9999,9999,1712180304
7417,19,Jits_Linear_5,168,9999,9999,9999,1712990264
7417,19,Jits_Linear_5,169,9999,9999,9999,1713800300
7418,15,Jits_Phase_8,0,5,56,103,1722617188
7418,15,Jits_Phase_8,1,5,63,98,1722620284
7418,15,Jits_Phase_8,2,5,80,127,1722623408
7418,15,Jits_Phase_8,0,5,56,103,1723417052
7418,15,Jits_Phase_8,1,5,63,98,1723420152
7418,15,Jits_Phase_8,2,5,80,127,1723423348
7418,15,Jits_Phase_8,0,5,80,127,1724157372
7418,15,Jits_Phase_8,1,1,48,38,1724163188
7418,15,Jits_Phase_8,2,5,63,98,1724247428
7418,15,Jits_Phase_8,3,5,56,103,1724256576
7418,15,Jits_Phase_8,0,1,48,53,1724964520
7418,15,Jits_Phase_8,1,5,56,103,1724976472
7418,15,Jits_Phase_8,2,5,63,98,1724986740
7418,15,Jits_Phase_8,3,5,80,127,1725077008
7418,15,Jits_Phase_8,0,1,48,49,1725742328
7418,15,Jits_Phase_8,1,5,63,98,1725746556
7418,15,Jits_Phase_8,2,5,80,127,1725777204
7418,15,Jits_Phase_8,3,5,56,103,1725806956
7418,15,Jits_Phase_8,0,5,56,103,1726547212
7418,15,Jits_Phase_8,1,1,48,52,1726558352
7418,15,Jits_Phase_8,2,5,80,127,1726646560
7418,15,Jits_Phase_8,3,5,63,98,1726696768
7418,15,Jits_Phase_8,0,1,48,52,1727304236
7418,15,Jits_Phase_8,1,5,56,103,1727347128
7418,15,Jits_Phase_8,2,5,80,127,1727397240
7418,15,Jits_Phase_8,3,5,63,98,1727437028
7418,15,Jits_Phase_8,0,1,48,55,1728094024
7418,15,Jits_Phase_8,1,5,80,127,1728176552
7418,15,Jits_Phase_8,2,5,63,98,1728207260
7418,15,Jits_Phase_8,3,5,56,103,1728277116
7418,15,Jits_Phase_8,0,1,48,54,1728914464
7418,15,Jits_Phase_8,1,5,63,98,1729006904
7418,15,Jits_Phase_8,2,5,56,103,1729037012
7418,15,Jits_Phase_8,3,5,80,127,1729097028
7418,15,Jits_Phase_8,0,1,48,46,1729717312
7418,15,Jits_Phase_8,1,5,56,103,1729747300
7418,15,Jits_Phase_8,2,5,80,127,1729750440
7418,15,Jits_Phase_8,3,5,63,98,1729867180
7418,15,Jits_Phase_8,0,1,48,47,1730484396
7418,15,Jits_Phase_8,1,5,56,103,1730626852
7418,15,Jits_Phase_8,2,5,80,127,1730667016
7418,15,Jits_Phase_8,3,5,63,98,1730677212
7418,15,Jits_Phase_8,0,1,48,45,1731346812
7418,15,Jits_Phase_8,1,5,56,103,1731386844
7418,15,Jits_Phase_8,2,5,80,127,1731407228
7418,15,Jits_Phase_8,3,5,63,98,1731487080
7418,15,Jits_Phase_8,0,5,80,127,1732177316
7418,15,Jits_Phase_8,1,1,48,44,1732216036
7418,15,Jits_Phase_8,2,5,56,103,1732277036
7418,15,Jits_Phase_8,3,5,63,98,1732287232
7418,15,Jits_Phase_8,0,5,63,98,1732947276
7418,15,Jits_Phase_8,1,1,48,41,1732987484
7418,15,Jits_Phase_8,2,5,80,127,1733006840
7418,15,Jits_Phase_8,3,5,56,103,1733016888
7418,15,Jits_Phase_8,0,5,56,103,1733746956
7418,15,Jits_Phase_8,1,1,48,49,1733764244
7418,15,Jits_Phase_8,2,5,63,98,1733816776
7418,15,Jits_Phase_8,3,5,80,127,1733820068
7418,15,Jits_Phase_8,0,1,48,46,1734532736
7418,15,Jits_Phase_8,1,5,63,98,1734576604
7418,15,Jits_Phase_8,2,5,56,103,1734626752
7418,15,Jits_Phase_8,3,5,80,127,1734629672
7418,15,Jits_Phase_8,0,1,48,47,1735333532
7418,15,Jits_Phase_8,1,5,56,103,1735337308
7418,15,Jits_Phase_8,2,5,80,127,1735340304
7418,15,Jits_Phase_8,3,5,63,98,1735426272
7418,15,Jits_Phase_8,0,1,48,45,1736103304
7418,15,Jits_Phase_8,1,5,63,98,1736176940
7418,15,Jits_Phase_8,2,5,56,103,1736267060
7418,15,Jits_Phase_8,3,5,80,127,1736297032
7418,15,Jits_Phase_8,0,1,48,43,1736894524
7418,15,Jits_Phase_8,1,5,56,103,1736966956
7418,15,Jits_Phase_8,2,5,63,98,1737066824
7418,15,Jits_Phase_8,3,5,80,127,1737096796
7418,15,Jits_Phase_8,0,5,63,98,1737786956
7418,15,Jits_Phase_8,1,1,48,45,1737797304
7418,15,Jits_Phase_8,2,5,56,103,1737798564
7418,15,Jits_Phase_8,3,5,80,127,1737886980
7418,15,Jits_Phase_8,0,1,48,45,1738565860
7418,15,Jits_Phase_8,1,5,63,98,1738606940
7418,15,Jits_Phase_8,2,5,56,103,1738686792
7418,15,Jits_Phase_8,3,5,80,127,1738690084
7418,15,Jits_Phase_8,0,5,80,127,1739366988
7418,15,Jits_Phase_8,1,5,63,98,1739387224
7418,15,Jits_Phase_8,2,1,48,44,1739402556
7418,15,Jits_Phase_8,3,5,56,103,1739446784
7418,15,Jits_Phase_8,0,1,48,47,1740195500
7418,15,Jits_Phase_8,1,5,56,103,1740206612
7418,15,Jits_Phase_8,2,5,63,98,1740226920
7418,15,Jits_Phase_8,3,5,80,127,1740230136
7418,15,Jits_Phase_8,0,1,48,37,1740946580
7418,15,Jits_Phase_8,1,5,63,98,1740947916
7418,15,Jits_Phase_8,2,5,80,127,1741026844
7418,15,Jits_Phase_8,3,5,56,103,1741036888
7418,15,Jits_Phase_8,0,5,63,98,1741767008
7418,15,Jits_Phase_8,1,1,48,56,1741769904
7418,15,Jits_Phase_8,2,5,56,103,1741786736
7418,15,Jits_Phase_8,3,5,80,127,1741836716
7418,15,Jits_Phase_8,0,1,48,57,1742510008
7418,15,Jits_Phase_8,1,5,80,127,1742566780
7418,15,Jits_Phase_8,2,5,63,98,1742606868
7418,15,Jits_Phase_8,3,5,56,103,1742627164
7418,15,Jits_Phase_8,0,1,48,51,1743350544
7418,15,Jits_Phase_8,1,5,56,103,1743406468
7418,15,Jits_Phase_8,2,5,63,98,1743416960
7418,15,Jits_Phase_8,3,5,80,127,1743437048
7418,15,Jits_Phase_8,0,5,56,103,1744136704
7418,15,Jits_Phase_8,1,1,48,49,1744182448
7418,15,Jits_Phase_8,2,5,63,98,1744226608
7418,15,Jits_Phase_8,3,5,80,127,1744287208
7418,15,Jits_Phase_8,0,5,80,127,1744967044
7418,15,Jits_Phase_8,1,5,56,103,1744977164
7418,15,Jits_Phase_8,2,1,48,46,1744992720
7418,15,Jits_Phase_8,3,5,63,98,1745046992
7418,15,Jits_Phase_8,0,1,48,43,1745770900
7418,15,Jits_Phase_8,1,5,63,98,1745796628
7418,15,Jits_Phase_8,2,5,80,127,1745886772
7418,15,Jits_Phase_8,3,5,56,103,1745896744
7418,15,Jits_Phase_8,0,5,63,98,1746526720
7418,15,Jits_Phase_8,1,1,48,49,1746567676
7418,15,Jits_Phase_8,2,5,80,127,1746576916
7418,15,Jits_Phase_8,3,5,56,103,1746637160
7418,15,Jits_Phase_8,0,1,48,39,1747303812
7418,15,Jits_Phase_8,1,5,56,103,1747346852
7418,15,Jits_Phase_8,2,5,80,127,1747396832
7418,15,Jits_Phase_8,3,5,63,98,1747416552
7418,15,Jits_Phase_8,0,5,56,103,1748116944
7418,15,Jits_Phase_8,1,1,48,43,1748119536
7418,15,Jits_Phase_8,2,5,80,127,1748177256
7418,15,Jits_Phase_8,3,5,63,98,1748246872
7418,15,Jits_Phase_8,0,5,56,103,1748916712
7418,15,Jits_Phase_8,1,5,80,127,1748947436
7418,15,Jits_Phase_8,2,1,48,57,1748951028
7418,15,Jits_Phase_8,3,5,63,98,1748976980
7418,15,Jits_Phase_8,0,1,48,46,1749676368
7418,15,Jits_Phase_8,1,5,56,103,1749757256
7418,15,Jits_Phase_8,2,5,80,127,1749776728
7418,15,Jits_Phase_8,3,5,63,98,1749837040
7418,15,Jits_Phase_8,0,1,48,48,1750519228
7418,15,Jits_Phase_8,1,5,80,127,1750636940
7418,15,Jits_Phase_8,2,5,56,103,1750647212
7418,15,Jits_Phase_8,3,5,63,98,1750657632
7418,15,Jits_Phase_8,0,1,48,46,1751396640
7418,15,Jits_Phase_8,1,5,56,103,1751398124
7418,15,Jits_Phase_8,2,5,80,127,1751436796
7418,15,Jits_Phase_8,3,5,63,98,1751467888
7418,15,Jits_Phase_8,0,5,56,103,1752166808
7418,15,Jits_Phase_8,1,5,63,98,1752196632
7418,15,Jits_Phase_8,2,1,48,33,1752199380
7418,15,Jits_Phase_8,3,5,80,127,1752237536
7418,15,Jits_Phase_8,0,5,80,127,1752917504
7418,15,Jits_Phase_8,1,1,48,34,1752926848
7418,15,Jits_Phase_8,2,5,63,98,1752966728
7418,15,Jits_Phase_8,3,5,56,103,1752986964
7418,15,Jits_Phase_8,0,1,48,39,1753685332
7418,15,Jits_Phase_8,1,5,56,103,1753746788
7418,15,Jits_Phase_8,2,5,80,127,1753816704
7418,15,Jits_Phase_8,3,5,63,98,1753876796
7418,15,Jits_Phase_8,0,1,48,20,1754487708
7418,15,Jits_Phase_8,1,5,80,127,1754546476
7418,15,Jits_Phase_8,2,5,63,98,1754636844
7418,15,Jits_Phase_8,3,5,56,103,1754657004
7418,15,Jits_Phase_8,0,1,48,17,1755358300
7418,15,Jits_Phase_8,1,1,48,29,1755362692
7418,15,Jits_Phase_8,2,5,63,98,1755366844
7418,15,Jits_Phase_8,3,5,56,103,1755387152
7418,15,Jits_Phase_8,4,5,80,127,1755427092
7418,15,Jits_Phase_8,0,1,48,16,1756092272
7418,15,Jits_Phase_8,1,1,48,29,1756096832
7418,15,Jits_Phase_8,2,5,80,127,1756126772
7418,15,Jits_Phase_8,3,5,63,98,1756147160
7418,15,Jits_Phase_8,4,5,56,103,1756227088
7418,15,Jits_Phase_8,0,5,63,98,1756917072
7418,15,Jits_Phase_8,1,5,56,103,1757026612
7418,15,Jits_Phase_8,2,5,80,127,1757029828
7418,15,Jits_Phase_8,0,1,48,47,1757727312
7418,15,Jits_Phase_8,1,5,63,98,1757737524
7418,15,Jits_Phase_8,2,5,56,103,1757746524
7418,15,Jits_Phase_8,3,5,80,127,1757749588
7418,15,Jits_Phase_8,0,1,48,49,1758462908
7418,15,Jits_Phase_8,1,5,56,103,1758516812
7418,15,Jits_Phase_8,2,5,80,127,1758637500
7418,15,Jits_Phase_8,3,5,63,98,1758677436
7418,15,Jits_Phase_8,0,1,48,44,1759280032
7418,15,Jits_Phase_8,1,5,56,103,1759336928
7418,15,Jits_Phase_8,2,5,80,127,1759416784
7418,15,Jits_Phase_8,3,5,63,98,1759437020
7418,15,Jits_Phase_8,0,5,56,103,1760136768
7418,15,Jits_Phase_8,1,1,48,51,1760214000
7418,15,Jits_Phase_8,2,5,63,98,1760247152
7418,15,Jits_Phase_8,3,5,80,127,1760250664
7418,15,Jits_Phase_8,0,5,56,103,1760977516
7418,15,Jits_Phase_8,1,5,80,127,1761006924
7418,15,Jits_Phase_8,2,1,48,53,1761013184
7418,15,Jits_Phase_8,3,5,63,98,1761026624
7418,15,Jits_Phase_8,0,1,48,50,1761756312
7418,15,Jits_Phase_8,1,5,63,98,1761766824
7418,15,Jits_Phase_8,2,5,56,103,1761777020
7418,15,Jits_Phase_8,3,5,80,127,1761787584
7418,15,Jits_Phase_8,0,1,48,47,1762522636
7418,15,Jits_Phase_8,1,5,80,127,1762557432
7418,15,Jits_Phase_8,2,5,56,103,1762606440
7418,15,Jits_Phase_8,3,5,63,98,1762647556
7418,15,Jits_Phase_8,0,1,48,44,1763311756
7418,15,Jits_Phase_8,1,5,80,127,1763376516
7418,15,Jits_Phase_8,2,5,63,98,1763396904
7418,15,Jits_Phase_8,3,5,56,103,1763447312
7418,15,Jits_Phase_8,0,1,48,38,1764153092
7418,15,Jits_Phase_8,1,5,80,127,1764186468
7418,15,Jits_Phase_8,2,5,56,103,1764217340
7418,15,Jits_Phase_8,3,5,63,98,1764286780
7418,15,Jits_Phase_8,0,1,48,37,1764974424
7418,15,Jits_Phase_8,1,5,56,103,1765037620
7418,15,Jits_Phase_8,2,5,80,127,1765046772
7418,15,Jits_Phase_8,3,5,63,98,1765086572
7418,15,Jits_Phase_8,0,5,56,103,1765747184
7418,15,Jits_Phase_8,1,5,63,98,1765766596
7418,15,Jits_Phase_8,2,1,48,42,1765801480
7418,15,Jits_Phase_8,3,5,80,127,1765837240
7418,15,Jits_Phase_8,0,1,48,46,1766543692
7418,15,Jits_Phase_8,1,5,63,98,1766567400
7418,15,Jits_Phase_8,2,5,80,127,1766626624
7418,15,Jits_Phase_8,3,5,56,103,1766647364
7418,15,Jits_Phase_8,0,5,80,127,1767356900
7418,15,Jits_Phase_8,1,1,48,47,1767369680
7418,15,Jits_Phase_8,2,5,56,103,1767386444
7418,15,Jits_Phase_8,3,5,63,98,1767417388
7418,15,Jits_Phase_8,0,5,56,103,1768156616
7418,15,Jits_Phase_8,1,1,48,50,1768180488
7418,15,Jits_Phase_8,2,5,63,98,1768217076
7418,15,Jits_Phase_8,3,5,80,127,1768277452
7418,15,Jits_Phase_8,0,1,48,56,1768972756
7418,15,Jits_Phase_8,1,5,80,127,1768976908
7418,15,Jits_Phase_8,2,5,56,103,1768997592
7418,15,Jits_Phase_8,3,5,63,98,1769067564
7418,15,Jits_Phase_8,0,5,80,127,1769776604
7418,15,Jits_Phase_8,1,1,48,48,1769790284
7418,15,Jits_Phase_8,2,5,63,98,1769796908
7418,15,Jits_Phase_8,3,5,56,103,1769826732
7418,15,Jits_Phase_8,0,5,80,127,1770567156
7418,15,Jits_Phase_8,1,1,48,38,1770578664
7418,15,Jits_Phase_8,2,5,63,98,1770586560
7418,15,Jits_Phase_8,3,5,56,103,1770646948
7418,15,Jits_Phase_8,0,5,80,127,1771366772
7418,15,Jits_Phase_8,1,1,48,54,1771389972
7418,15,Jits_Phase_8,2,5,56,103,1771467240
7418,15,Jits_Phase_8,3,5,63,98,1771496776
7418,15,Jits_Phase_8,0,5,63,98,1772157480
7418,15,Jits_Phase_8,1,5,80,127,1772206416
7418,15,Jits_Phase_8,2,5,56,103,1772227020
7418,15,Jits_Phase_8,3,1,48,53,1772256692
7418,15,Jits_Phase_8,0,5,80,127,1772996944
7418,15,Jits_Phase_8,1,1,48,51,1773004624
7418,15,Jits_Phase_8,2,5,56,103,1773026640
7418,15,Jits_Phase_8,3,5,63,98,1773029780
7418,15,Jits_Phase_8,0,1,48,55,1773812352
7418,15,Jits_Phase_8,1,5,63,98,1773847000
7418,15,Jits_Phase_8,2,5,56,103,1773886940
7418,15,Jits_Phase_8,3,5,80,127,1773908352
7418,15,Jits_Phase_8,0,5,80,127,1774606764
7418,15,Jits_Phase_8,1,1,48,53,1774615132
7418,15,Jits_Phase_8,2,5,63,98,1774686476
7418,15,Jits_Phase_8,3,5,56,103,1774726472
7418,15,Jits_Phase_8,0,1,48,55,1775344596
7418,15,Jits_Phase_8,1,5,63,98,1775427272
7418,15,Jits_Phase_8,2,5,80,127,1775506832
7418,15,Jits_Phase_8,3,5,56,103,1775527216
7418,15,Jits_Phase_8,0,1,48,50,1776208136
7418,15,Jits_Phase_8,1,5,56,103,1776266600
7418,15,Jits_Phase_8,2,5,63,98,1776276872
7418,15,Jits_Phase_8,3,5,80,127,1776316792
7418,15,Jits_Phase_8,0,5,56,103,1776986420
7418,15,Jits_Phase_8,1,5,80,127,1776989412
7418,15,Jits_Phase_8,2,1,48,57,1777038236
7418,15,Jits_Phase_8,3,5,63,98,1777126912
7418,15,Jits_Phase_8,0,5,56,103,1777776892
7418,15,Jits_Phase_8,1,1,48,55,1777822860
7418,15,Jits_Phase_8,2,5,63,98,1777867392
7418,15,Jits_Phase_8,3,5,80,127,1777936784
7418,15,Jits_Phase_8,0,1,48,47,1778594748
7418,15,Jits_Phase_8,1,5,63,98,1778656624
7418,15,Jits_Phase_8,2,5,80,127,1778659988
7418,15,Jits_Phase_8,3,5,56,103,1778717148
7418,15,Jits_Phase_8,0,1,48,47,1779423152
7418,15,Jits_Phase_8,1,5,80,127,1779497432
7418,15,Jits_Phase_8,2,5,56,103,1779516776
7418,15,Jits_Phase_8,3,5,63,98,1779527028
7418,15,Jits_Phase_8,0,5,56,103,1780207152
7418,15,Jits_Phase_8,1,5,63,98,1780217276
7418,15,Jits_Phase_8,2,1,48,51,1780280484
7418,15,Jits_Phase_8,3,5,80,127,1780286800
7418,15,Jits_Phase_8,0,5,80,127,1781006632
7418,15,Jits_Phase_8,1,1,48,48,1781040912
7418,15,Jits_Phase_8,2,5,56,103,1781056824
7418,15,Jits_Phase_8,3,5,63,98,1781107176
7418,15,Jits_Phase_8,0,1,48,40,1781830184
7418,15,Jits_Phase_8,1,5,56,103,1781887380
7418,15,Jits_Phase_8,2,5,63,98,1781896528
7418,15,Jits_Phase_8,3,5,80,127,1781936448
7418,15,Jits_Phase_8,0,5,56,103,1782626616
7418,15,Jits_Phase_8,1,5,63,98,1782666556
7418,15,Jits_Phase_8,2,1,48,41,1782703004
7418,15,Jits_Phase_8,3,5,80,127,1782716900
7418,15,Jits_Phase_8,0,5,80,127,1783386528
7418,15,Jits_Phase_8,1,5,56,103,1783436508
7418,15,Jits_Phase_8,2,5,63,98,1783457340
7418,15,Jits_Phase_8,3,1,48,54,1783496200
7418,15,Jits_Phase_8,0,5,80,127,1784196412
7418,15,Jits_Phase_8,1,1,48,56,1784215048
7418,15,Jits_Phase_8,2,5,63,98,1784257168
7418,15,Jits_Phase_8,3,5,56,103,1784337196
7418,15,Jits_Phase_8,0,5,80,127,1784976704
7418,15,Jits_Phase_8,1,1,48,51,1785009568
7418,15,Jits_Phase_8,2,5,56,103,1785016640
7418,15,Jits_Phase_8,3,5,63,98,1785037172
7418,15,Jits_Phase_8,0,1,48,39,1785770960
7418,15,Jits_Phase_8,1,5,56,103,1785826684
7418,15,Jits_Phase_8,2,5,80,127,1785837180
7418,15,Jits_Phase_8,3,5,63,98,1785876956
7418,15,Jits_Phase_8,0,1,48,47,1786594344
7418,15,Jits_Phase_8,1,5,56,103,1786697228
7418,15,Jits_Phase_8,2,5,63,98,1786737092
7418,15,Jits_Phase_8,3,5,80,127,1786740160
7418,15,Jits_Phase_8,0,5,63,98,1787366796
7418,15,Jits_Phase_8,1,5,80,127,1787406588
7418,15,Jits_Phase_8,2,5,56,103,1787477312
7418,15,Jits_Phase_8,3,1,48,46,1787514284
7418,15,Jits_Phase_8,0,5,63,98,1788136736
7418,15,Jits_Phase_8,1,5,56,103,1788216680
7418,15,Jits_Phase_8,2,5,80,127,1788277292
7418,15,Jits_Phase_8,3,1,48,52,1788313440
7418,15,Jits_Phase_8,0,5,80,127,1788946756
7418,15,Jits_Phase_8,1,5,63,98,1788996956
7418,15,Jits_Phase_8,2,5,56,103,1789026708
7418,15,Jits_Phase_8,3,1,48,49,1789069532
7418,15,Jits_Phase_8,0,5,56,103,1789737380
7418,15,Jits_Phase_8,1,5,63,98,1789786392
7418,15,Jits_Phase_8,2,1,48,57,1789791532
7418,15,Jits_Phase_8,3,5,80,127,1789796804
7418,15,Jits_Phase_8,0,1,48,55,1790539216
7418,15,Jits_Phase_8,1,5,56,103,1790547408
7418,15,Jits_Phase_8,2,5,63,98,1790657084
7418,15,Jits_Phase_8,3,5,80,127,1790677340
7418,15,Jits_Phase_8,0,5,63,98,1791347248
7418,15,Jits_Phase_8,1,1,48,52,1791375404
7418,15,Jits_Phase_8,2,5,80,127,1791397224
7418,15,Jits_Phase_8,3,5,56,103,1791487288
7418,15,Jits_Phase_8,0,5,63,98,1792136596
7418,15,Jits_Phase_8,1,5,80,127,1792167244
7418,15,Jits_Phase_8,2,1,48,44,1792191112
7418,15,Jits_Phase_8,3,5,56,103,1792257244
7418,15,Jits_Phase_8,0,5,63,98,1792937320
7418,15,Jits_Phase_8,1,5,56,103,1792946468
7418,15,Jits_Phase_8,2,1,48,49,1792977832
7418,15,Jits_Phase_8,3,5,80,127,1793046956
7418,15,Jits_Phase_8,0,1,48,53,1793690508
7418,15,Jits_Phase_8,1,5,63,98,1793837320
7418,15,Jits_Phase_8,2,5,80,127,1793867220
7418,15,Jits_Phase_8,3,5,56,103,1793897044
7418,15,Jits_Phase_8,0,1,48,42,1794598044
7418,15,Jits_Phase_8,1,5,80,127,1794656732
7418,15,Jits_Phase_8,2,5,63,98,1794666928
7418,15,Jits_Phase_8,3,5,56,103,1794696512
7418,15,Jits_Phase_8,0,5,80,127,1795357080
7418,15,Jits_Phase_8,1,5,63,98,1795376496
7418,15,Jits_Phase_8,2,5,56,103,1795426696
7418,15,Jits_Phase_8,3,1,48,40,1795439852
7418,15,Jits_Phase_8,0,1,48,43,1796159360
7418,15,Jits_Phase_8,1,5,63,98,1796186588
7418,15,Jits_Phase_8,2,5,80,127,1796247056
7418,15,Jits_Phase_8,3,5,56,103,1796267424
7418,15,Jits_Phase_8,0,5,63,98,1796947244
7418,15,Jits_Phase_8,1,1,48,44,1796983024
7418,15,Jits_Phase_8,2,5,56,103,1796996320
7418,15,Jits_Phase_8,3,5,80,127,1797006592
7418,15,Jits_Phase_8,0,1,48,43,1797729956
7418,15,Jits_Phase_8,1,5,56,103,1797776736
7418,15,Jits_Phase_8,2,5,80,127,1797787232
7418,15,Jits_Phase_8,3,5,63,98,1797887488
7418,15,Jits_Phase_8,0,5,80,127,1798536572
7418,15,Jits_Phase_8,1,5,63,98,1798546916
7418,15,Jits_Phase_8,2,1,48,50,1798637868
7418,15,Jits_Phase_8,3,5,56,103,1798697448
7418,15,Jits_Phase_8,0,5,63,98,1799346908
7418,15,Jits_Phase_8,1,5,80,127,1799386572
7418,15,Jits_Phase_8,2,1,48,47,1799410896
7418,15,Jits_Phase_8,3,5,56,103,1799467480
7418,15,Jits_Phase_8,0,5,56,103,1800097216
7418,15,Jits_Phase_8,1,1,48,45,1800172428
7418,15,Jits_Phase_8,2,5,80,127,1800196436
7418,15,Jits_Phase_8,3,5,63,98,1800217044
7418,15,Jits_Phase_8,0,5,80,127,1800917248
7418,15,Jits_Phase_8,1,5,56,103,1800926544
7418,15,Jits_Phase_8,2,1,48,48,1800967204
7418,15,Jits_Phase_8,3,5,63,98,1801016892
7418,15,Jits_Phase_8,0,1,48,44,1801703344
7418,15,Jits_Phase_8,1,5,56,103,1801717240
7418,15,Jits_Phase_8,2,5,63,98,1801736508
7418,15,Jits_Phase_8,3,5,80,127,1801816360
7418,15,Jits_Phase_8,0,5,63,98,1802466960
7418,15,Jits_Phase_8,1,1,48,39,1802506124
7418,15,Jits_Phase_8,2,5,56,103,1802556864
7418,15,Jits_Phase_8,3,5,80,127,1802560080
7418,15,Jits_Phase_8,0,1,48,46,1803287056
7418,15,Jits_Phase_8,1,5,56,103,1803297120
7418,15,Jits_Phase_8,2,5,80,127,1803356464
7418,15,Jits_Phase_8,3,5,63,98,1803366884
7418,15,Jits_Phase_8,0,1,48,44,1804076180
7418,15,Jits_Phase_8,1,5,80,127,1804146928
7418,15,Jits_Phase_8,2,5,56,103,1804157188
7418,15,Jits_Phase_8,3,5,63,98,1804160412
7418,15,Jits_Phase_8,0,5,56,103,1804906820
7418,15,Jits_Phase_8,1,5,80,127,1804917240
7418,15,Jits_Phase_8,2,1,48,43,1804926732
7418,15,Jits_Phase_8,3,5,63,98,1804936496
7418,15,Jits_Phase_8,0,1,48,48,1805674956
7418,15,Jits_Phase_8,1,5,63,98,1805676916
7418,15,Jits_Phase_8,2,5,80,127,1805737232
7418,15,Jits_Phase_8,3,5,56,103,1805786472
7418,15,Jits_Phase_8,0,1,48,47,1806548448
7418,15,Jits_Phase_8,1,5,63,98,1806556864
7418,15,Jits_Phase_8,2,5,56,103,1806566764
7418,15,Jits_Phase_8,3,5,80,127,1806617036
7418,15,Jits_Phase_8,0,5,63,98,1807256964
7418,15,Jits_Phase_8,1,5,80,127,1807277420
7418,15,Jits_Phase_8,2,5,56,103,1807286572
7418,15,Jits_Phase_8,3,1,48,43,1807371960
7418,15,Jits_Phase_8,0,5,63,98,1808056932
7418,15,Jits_Phase_8,1,5,80,127,1808060148
7418,15,Jits_Phase_8,2,1,48,46,1808096372
7418,15,Jits_Phase_8,3,5,56,103,1808097784
7418,15,Jits_Phase_8,0,1,48,35,1808836188
7418,15,Jits_Phase_8,1,5,63,98,1808927188
7418,15,Jits_Phase_8,2,5,80,127,1808956776
7418,15,Jits_Phase_8,3,5,56,103,1808966972
7418,15,Jits_Phase_8,0,5,56,103,1809676832
7418,15,Jits_Phase_8,1,5,80,127,1809707328
7418,15,Jits_Phase_8,2,5,63,98,1809737004
7418,15,Jits_Phase_8,3,1,48,50,1809752556
7418,15,Jits_Phase_8,0,1,48,45,1810531632
7418,15,Jits_Phase_8,1,5,63,98,1810576840
7418,15,Jits_Phase_8,2,5,56,103,1810616852
7418,15,Jits_Phase_8,3,5,80,127,1810619920
7418,15,Jits_Phase_8,0,5,80,127,1811277108
7418,15,Jits_Phase_8,1,5,56,103,1811357052
7418,15,Jits_Phase_8,2,1,48,37,1811378232
7418,15,Jits_Phase_8,3,5,63,98,1811407248
7418,15,Jits_Phase_8,0,5,80,127,1812056724
7418,15,Jits_Phase_8,1,5,56,103,1812076812
7418,15,Jits_Phase_8,2,5,63,98,1812166944
7418,15,Jits_Phase_8,3,1,48,35,1812190084
7418,15,Jits_Phase_8,0,5,80,127,1812897100
7418,15,Jits_Phase_8,1,5,63,98,1812937040
7418,15,Jits_Phase_8,2,1,48,35,1812953368
7418,15,Jits_Phase_8,3,5,56,103,1812976920
7418,15,Jits_Phase_8,0,5,63,98,1813707140
7418,15,Jits_Phase_8,1,1,48,36,1813723984
7418,15,Jits_Phase_8,2,5,80,127,1813766576
7418,15,Jits_Phase_8,3,5,56,103,1813797372
7418,15,Jits_Phase_8,0,1,48,45,1814470072
7418,15,Jits_Phase_8,1,5,56,103,1814546772
7418,15,Jits_Phase_8,2,5,80,127,1814576356
7418,15,Jits_Phase_8,3,5,63,98,1814666712
7418,15,Jits_Phase_8,0,5,56,103,1815356796
7418,15,Jits_Phase_8,1,1,48,40,1815388912
7418,15,Jits_Phase_8,2,5,80,127,1815467304
7418,15,Jits_Phase_8,3,5,63,98,1815497036
7418,15,Jits_Phase_8,0,1,48,33,1816205644
7418,15,Jits_Phase_8,1,5,56,103,1816207064
7418,15,Jits_Phase_8,2,5,63,98,1816267084
7418,15,Jits_Phase_8,3,5,80,127,1816296708
7418,15,Jits_Phase_8,0,5,56,103,1816976716
7418,15,Jits_Phase_8,1,5,63,98,1817047324
7418,15,Jits_Phase_8,2,1,48,38,1817061828
7418,15,Jits_Phase_8,3,5,80,127,1817066804
7418,15,Jits_Phase_8,0,5,80,127,1817746896
7418,15,Jits_Phase_8,1,5,63,98,1817767208
7418,15,Jits_Phase_8,2,5,56,103,1817816388
7418,15,Jits_Phase_8,3,1,48,38,1817871116
7418,15,Jits_Phase_8,0,5,63,98,1818566972
7418,15,Jits_Phase_8,1,5,80,127,1818577240
7418,15,Jits_Phase_8,2,5,56,103,1818626348
7418,15,Jits_Phase_8,3,1,48,38,1818681300
7418,15,Jits_Phase_8,0,5,63,98,1819366752
7418,15,Jits_Phase_8,1,1,48,50,1819391740
7418,15,Jits_Phase_8,2,5,80,127,1819437548
7418,15,Jits_Phase_8,3,5,56,103,1819456812
7418,15,Jits_Phase_8,0,1,48,43,1820148712
7418,15,Jits_Phase_8,1,5,63,98,1820197292
7418,15,Jits_Phase_8,2,5,80,127,1820200732
7418,15,Jits_Phase_8,3,5,56,103,1820266956
7418,15,Jits_Phase_8,0,5,80,127,1820946780
7418,15,Jits_Phase_8,1,5,56,103,1820967312
7418,15,Jits_Phase_8,2,5,63,98,1820976536
7418,15,Jits_Phase_8,3,1,48,38,1821007676
7418,15,Jits_Phase_8,0,1,48,49,1821738196
7418,15,Jits_Phase_8,1,5,56,103,1821766916
7418,15,Jits_Phase_8,2,5,63,98,1821857184
7418,15,Jits_Phase_8,3,5,80,127,1821860400
7418,15,Jits_Phase_8,0,5,80,127,1822536932
7418,15,Jits_Phase_8,1,5,56,103,1822547200
7418,15,Jits_Phase_8,2,5,63,98,1822566760
7418,15,Jits_Phase_8,3,1,48,46,1822585396
7418,15,Jits_Phase_8,0,1,48,50,1823331260
7418,15,Jits_Phase_8,1,5,63,98,1823336688
7418,15,Jits_Phase_8,2,5,80,127,1823397152
7418,15,Jits_Phase_8,3,5,56,103,1823406452
7418,15,Jits_Phase_8,0,1,48,48,1824189536
7418,15,Jits_Phase_8,1,5,63,98,1824207096
7418,15,Jits_Phase_8,2,5,80,127,1824236868
7418,15,Jits_Phase_8,3,5,56,103,1824276732
7418,15,Jits_Phase_8,0,1,48,46,1824950860
7418,15,Jits_Phase_8,1,5,56,103,1824996692
7418,15,Jits_Phase_8,2,5,80,127,1825006888
7418,15,Jits_Phase_8,3,5,63,98,1825046828
7418,15,Jits_Phase_8,0,1,48,49,1825726500
7418,15,Jits_Phase_8,1,5,80,127,1825756812
7418,15,Jits_Phase_8,2,5,56,103,1825837640
7418,15,Jits_Phase_8,3,5,63,98,1825846496
7418,15,Jits_Phase_8,0,1,48,38,1826528600
7418,15,Jits_Phase_8,1,5,80,127,1826606548
7418,15,Jits_Phase_8,2,5,56,103,1826687300
7418,15,Jits_Phase_8,3,5,63,98,1826696820
7418,15,Jits_Phase_8,0,1,48,37,1827408384
7418,15,Jits_Phase_8,1,5,80,127,1827447144
7418,15,Jits_Phase_8,2,5,56,103,1827497272
7418,15,Jits_Phase_8,3,5,63,98,1827546512
7418,15,Jits_Phase_8,0,1,48,40,1828322704
7418,15,Jits_Phase_8,1,5,56,103,1828387316
7418,15,Jits_Phase_8,2,5,63,98,1828390460
7418,15,Jits_Phase_8,3,5,80,127,1828437500
7418,15,Jits_Phase_8,0,1,48,43,1829170192
7418,15,Jits_Phase_8,1,5,56,103,1829207676
7418,15,Jits_Phase_8,2,5,63,98,1829237128
7418,15,Jits_Phase_8,3,5,80,127,1829247548
7418,15,Jits_Phase_8,0,5,63,98,1829917096
7418,15,Jits_Phase_8,1,1,48,39,1829943280
7418,15,Jits_Phase_8,2,5,56,103,1829986548
7418,15,Jits_Phase_8,3,5,80,127,1830036824
7418,15,Jits_Phase_8,0,5,63,98,1830746604
7418,15,Jits_Phase_8,1,5,56,103,1830756648
7418,15,Jits_Phase_8,2,5,80,127,1830759640
7418,15,Jits_Phase_8,3,1,48,43,1830760832
7418,15,Jits_Phase_8,0,5,80,127,1831497052
7418,15,Jits_Phase_8,1,1,48,42,1831524904
7418,15,Jits_Phase_8,2,5,56,103,1831556540
7418,15,Jits_Phase_8,3,5,63,98,1831646756
7418,15,Jits_Phase_8,0,5,80,127,1832296748
7418,15,Jits_Phase_8,1,1,48,45,1832308260
7418,15,Jits_Phase_8,2,5,56,103,1832397140
7418,15,Jits_Phase_8,3,5,63,98,1832437088
7418,15,Jits_Phase_8,0,5,56,103,1833146720
7418,15,Jits_Phase_8,1,1,48,41,1833161976
7418,15,Jits_Phase_8,2,5,63,98,1833167472
7418,15,Jits_Phase_8,3,5,80,127,1833207112
7418,15,Jits_Phase_8,0,5,63,98,1833916800
7418,15,Jits_Phase_8,1,1,48,48,1833922612
7418,15,Jits_Phase_8,2,5,56,103,1833937476
7418,15,Jits_Phase_8,3,5,80,127,1834036584
7418,15,Jits_Phase_8,0,5,63,98,1834707412
7418,15,Jits_Phase_8,1,1,48,50,1834712552
7418,15,Jits_Phase_8,2,5,80,127,1834816932
7418,15,Jits_Phase_8,3,5,56,103,1834846532
7418,15,Jits_Phase_8,0,1,48,38,1835526660
7418,15,Jits_Phase_8,1,5,56,103,1835527920
7418,15,Jits_Phase_8,2,5,63,98,1835557448
7418,15,Jits_Phase_8,3,5,80,127,1835607576
7418,15,Jits_Phase_8,0,1,48,38,1836270036
7418,15,Jits_Phase_8,1,5,63,98,1836296512
7418,15,Jits_Phase_8,2,5,56,103,1836327384
7418,15,Jits_Phase_8,3,5,80,127,1836376448
7418,15,Jits_Phase_8,0,1,48,38,1837043860
7418,15,Jits_Phase_8,1,5,56,103,1837127060
7418,15,Jits_Phase_8,2,5,63,98,1837146604
7418,15,Jits_Phase_8,3,5,80,127,1837227520
7418,15,Jits_Phase_8,0,1,48,32,1837877568
7418,15,Jits_Phase_8,1,5,63,98,1837897072
7418,15,Jits_Phase_8,2,5,56,103,1837956416
7418,15,Jits_Phase_8,3,5,80,127,1837987344
7418,15,Jits_Phase_8,0,1,48,37,1838718156
7418,15,Jits_Phase_8,1,5,56,103,1838736832
7418,15,Jits_Phase_8,2,5,80,127,1838797448
7418,15,Jits_Phase_8,3,5,63,98,1838837096
7418,15,Jits_Phase_8,0,1,48,40,1839400804
7418,15,Jits_Phase_8,1,5,63,98,1839517024
7418,15,Jits_Phase_8,2,5,56,103,1839576396
7418,15,Jits_Phase_8,3,5,80,127,1839646972
7418,15,Jits_Phase_8,0,1,48,38,1840277816
7418,15,Jits_Phase_8,1,5,56,103,1840396680
7418,15,Jits_Phase_8,2,5,63,98,1840406872
7418,15,Jits_Phase_8,3,5,80,127,1840410312
7418,15,Jits_Phase_8,0,1,48,42,1841103408
7418,15,Jits_Phase_8,1,5,63,98,1841136960
7418,15,Jits_Phase_8,2,5,56,103,1841197556
7418,15,Jits_Phase_8,3,5,80,127,1841200700
7418,15,Jits_Phase_8,0,5,63,98,1841917384
7418,15,Jits_Phase_8,1,5,80,127,1841946984
7418,15,Jits_Phase_8,2,5,56,103,1841966620
7418,15,Jits_Phase_8,3,1,48,39,1842023596
7418,15,Jits_Phase_8,0,5,56,103,1842647388
7418,15,Jits_Phase_8,1,5,63,98,1842696544
7418,15,Jits_Phase_8,2,1,48,40,1842775656
7418,15,Jits_Phase_8,3,5,80,127,1842777072
7418,15,Jits_Phase_8,0,5,80,127,1843346756
7418,15,Jits_Phase_8,1,5,63,98,1843386696
7418,15,Jits_Phase_8,2,5,56,103,1843407304
7418,15,Jits_Phase_8,3,1,48,47,1843579300
7418,15,Jits_Phase_8,0,1,48,43,1844147088
7418,15,Jits_Phase_8,1,5,56,103,1844217264
7418,15,Jits_Phase_8,2,5,80,127,1844226488
7418,15,Jits_Phase_8,3,5,63,98,1844246936
7418,15,Jits_Phase_8,0,1,48,39,1844909608
7418,15,Jits_Phase_8,1,5,56,103,1844996424
7418,15,Jits_Phase_8,2,5,63,98,1845046760
7418,15,Jits_Phase_8,3,5,80,127,1845077556
7418,15,Jits_Phase_8,0,5,56,103,1845747488
7418,15,Jits_Phase_8,1,5,63,98,1845757608
7418,15,Jits_Phase_8,2,5,80,127,1845806392
7418,15,Jits_Phase_8,3,1,48,41,1845808480
7418,15,Jits_Phase_8,0,1,48,44,1846485024
7418,15,Jits_Phase_8,1,5,56,103,1846536528
7418,15,Jits_Phase_8,2,5,80,127,1846539744
7418,15,Jits_Phase_8,3,5,63,98,1846697512
7418,15,Jits_Phase_8,0,1,48,44,1847322376
7418,15,Jits_Phase_8,1,5,63,98,1847356800
7418,15,Jits_Phase_8,2,5,56,103,1847426396
7418,15,Jits_Phase_8,3,5,80,127,1847467304
7418,15,Jits_Phase_8,0,1,48,37,1848081904
7418,15,Jits_Phase_8,1,5,63,98,1848196476
7418,15,Jits_Phase_8,2,5,56,103,1848286636
7418,15,Jits_Phase_8,3,5,80,127,1848289556
7418,15,Jits_Phase_8,0,5,56,103,1848976624
7418,15,Jits_Phase_8,1,1,48,39,1849049596
7418,15,Jits_Phase_8,2,5,63,98,1849067004
7418,15,Jits_Phase_8,3,5,80,127,1849077272
7418,15,Jits_Phase_8,0,5,56,103,1849746656
7418,15,Jits_Phase_8,1,5,63,98,1849797004
7418,15,Jits_Phase_8,2,5,80,127,1849826632
7418,15,Jits_Phase_8,3,1,48,37,1849842628
7418,15,Jits_Phase_8,0,1,48,43,1850560320
7418,15,Jits_Phase_8,1,5,63,98,1850626308
7418,15,Jits_Phase_8,2,5,80,127,1850636508
7418,15,Jits_Phase_8,3,5,56,103,1850697324
7418,15,Jits_Phase_8,0,5,63,98,1851347256
7418,15,Jits_Phase_8,1,5,80,127,1851406676
7418,15,Jits_Phase_8,2,1,48,34,1851443724
7418,15,Jits_Phase_8,3,5,56,103,1851446680
7418,15,Jits_Phase_8,0,1,48,41,1852152896
7418,15,Jits_Phase_8,1,5,56,103,1852247404
7418,15,Jits_Phase_8,2,5,80,127,1852266800
7418,15,Jits_Phase_8,3,5,63,98,1852287332
7418,15,Jits_Phase_8,0,5,63,98,1852967300
7418,15,Jits_Phase_8,1,5,56,103,1852986640
7418,15,Jits_Phase_8,2,5,80,127,1853026652
7418,15,Jits_Phase_8,3,1,48,39,1853028444
7418,15,Jits_Phase_8,0,5,63,98,1853777320
7418,15,Jits_Phase_8,1,5,80,127,1853807148
7418,15,Jits_Phase_8,2,1,48,28,1853816712
7418,15,Jits_Phase_8,3,5,56,103,1853826404
7418,15,Jits_Phase_8,0,5,80,127,1854547260
7418,15,Jits_Phase_8,1,1,48,36,1854572028
7418,15,Jits_Phase_8,2,5,56,103,1854596336
7418,15,Jits_Phase_8,3,5,63,98,1854656948
7418,15,Jits_Phase_8,0,1,48,40,1855306240
7418,15,Jits_Phase_8,1,5,63,98,1855336832
7418,15,Jits_Phase_8,2,5,56,103,1855456496
7418,15,Jits_Phase_8,3,5,80,127,1855487368
7418,15,Jits_Phase_8,0,1,48,39,1856155828
7418,15,Jits_Phase_8,1,5,80,127,1856176376
7418,15,Jits_Phase_8,2,5,63,98,1856197060
7418,15,Jits_Phase_8,3,5,56,103,1856266676
7418,15,Jits_Phase_8,0,1,48,39,1856989616
7418,15,Jits_Phase_8,1,5,63,98,1856996684
7418,15,Jits_Phase_8,2,5,56,103,1857007108
7418,15,Jits_Phase_8,3,5,80,127,1857087180
7418,15,Jits_Phase_8,0,1,48,32,1857767420
7418,15,Jits_Phase_8,1,5,56,103,1857856832
7418,15,Jits_Phase_8,2,5,80,127,1857886568
7418,15,Jits_Phase_8,3,5,63,98,1857896764
7418,15,Jits_Phase_8,0,9999,9999,9999,1723014224
7418,15,Jits_Phase_8,1,9999,9999,9999,1723814988
7418,15,Jits_Phase_8,2,9999,9999,9999,1724614780
7418,15,Jits_Phase_8,3,9999,9999,9999,1725414500
7418,15,Jits_Phase_8,4,9999,9999,9999,1726214252
7418,15,Jits_Phase_8,5,9999,9999,9999,1727014984
7418,15,Jits_Phase_8,6,9999,9999,9999,1727814752
7418,15,Jits_Phase_8,7,9999,9999,9999,1728614512
7418,15,Jits_Phase_8,8,9999,9999,9999,1729414196
7418,15,Jits_Phase_8,9,9999,9999,9999,1730214988
7418,15,Jits_Phase_8,10,9999,9999,9999,1731014756
7418,15,Jits_Phase_8,11,9999,9999,9999,1731814464
7418,15,Jits_Phase_8,12,9999,9999,9999,1732614228
7418,15,Jits_Phase_8,13,9999,9999,9999,1733414964
7418,15,Jits_Phase_8,14,9999,9999,9999,1734214708
7418,15,Jits_Phase_8,15,9999,9999,9999,1735014472
7418,15,Jits_Phase_8,16,9999,9999,9999,1735814212
7418,15,Jits_Phase_8,17,9999,9999,9999,1736615024
7418,15,Jits_Phase_8,18,9999,9999,9999,1737414712
7418,15,Jits_Phase_8,19,9999,9999,9999,1738214496
7418,15,Jits_Phase_8,20,9999,9999,9999,1739014252
7418,15,Jits_Phase_8,21,9999,9999,9999,1739814976
7418,15,Jits_Phase_8,22,9999,9999,9999,1740614740
7418,15,Jits_Phase_8,23,9999,9999,9999,1741414496
7418,15,Jits_Phase_8,24,9999,9999,9999,1742214248
7418,15,Jits_Phase_8,25,9999,9999,9999,1743014972
7418,15,Jits_Phase_8,26,9999,9999,9999,1743814728
7418,15,Jits_Phase_8,27,9999,9999,9999,1744614512
7418,15,Jits_Phase_8,28,9999,9999,9999,1745414208
7418,15,Jits_Phase_8,29,9999,9999,9999,1746215036
7418,15,Jits_Phase_8,30,9999,9999,9999,1746994264
7418,15,Jits_Phase_8,31,9999,9999,9999,1747795072
7418,15,Jits_Phase_8,32,9999,9999,9999,1748594752
7418,15,Jits_Phase_8,33,9999,9999,9999,1749394516
7418,15,Jits_Phase_8,34,9999,9999,9999,1750194288
7418,15,Jits_Phase_8,35,9999,9999,9999,1750995024
7418,15,Jits_Phase_8,36,9999,9999,9999,1751794808
7418,15,Jits_Phase_8,37,9999,9999,9999,1752594496
7418,15,Jits_Phase_8,38,9999,9999,9999,1753394260
7418,15,Jits_Phase_8,39,9999,9999,9999,1754195012
7418,15,Jits_Phase_8,40,9999,9999,9999,1754994772
7418,15,Jits_Phase_8,41,9999,9999,9999,1755794508
7418,15,Jits_Phase_8,42,9999,9999,9999,1756594296
7418,15,Jits_Phase_8,43,9999,9999,9999,1757395020
7418,15,Jits_Phase_8,44,9999,9999,9999,1758194796
7418,15,Jits_Phase_8,45,9999,9999,9999,1758994532
7418,15,Jits_Phase_8,46,9999,9999,9999,1759794292
7418,15,Jits_Phase_8,47,9999,9999,9999,1760595016
7418,15,Jits_Phase_8,48,9999,9999,9999,1761414268
7418,15,Jits_Phase_8,49,9999,9999,9999,1762215012
7418,15,Jits_Phase_8,50,9999,9999,9999,1763014768
7418,15,Jits_Phase_8,51,9999,9999,9999,1763814476
7418,15,Jits_Phase_8,52,9999,9999,9999,1764614236
7418,15,Jits_Phase_8,53,9999,9999,9999,1765414972
7418,15,Jits_Phase_8,54,9999,9999,9999,1766214724
7418,15,Jits_Phase_8,55,9999,9999,9999,1767014500
7418,15,Jits_Phase_8,56,9999,9999,9999,1767814252
7418,15,Jits_Phase_8,57,9999,9999,9999,1768614996
7418,15,Jits_Phase_8,58,9999,9999,9999,1769414768
7418,15,Jits_Phase_8,59,9999,9999,9999,1770214476
7418,15,Jits_Phase_8,60,9999,9999,9999,1771014244
7418,15,Jits_Phase_8,61,9999,9999,9999,1771814988
7418,15,Jits_Phase_8,62,9999,9999,9999,1772614760
7418,15,Jits_Phase_8,63,9999,9999,9999,1773414504
7418,15,Jits_Phase_8,64,9999,9999,9999,1774254140
7418,15,Jits_Phase_8,65,9999,9999,9999,1775054952
7418,15,Jits_Phase_8,66,9999,9999,9999,1775854672
7418,15,Jits_Phase_8,67,9999,9999,9999,1776654436
7418,15,Jits_Phase_8,68,9999,9999,9999,1777454176
7418,15,Jits_Phase_8,69,9999,9999,9999,1778254924
7418,15,Jits_Phase_8,70,9999,9999,9999,1779054692
7418,15,Jits_Phase_8,71,9999,9999,9999,1779854460
7418,15,Jits_Phase_8,72,9999,9999,9999,1780654148
7418,15,Jits_Phase_8,73,9999,9999,9999,1781454964
7418,15,Jits_Phase_8,74,9999,9999,9999,1782254692
7418,15,Jits_Phase_8,75,9999,9999,9999,1783054452
7418,15,Jits_Phase_8,76,9999,9999,9999,1783854144
7418,15,Jits_Phase_8,77,9999,9999,9999,1784654964
7418,15,Jits_Phase_8,78,9999,9999,9999,1785454656
7418,15,Jits_Phase_8,79,9999,9999,9999,1786254428
7418,15,Jits_Phase_8,80,9999,9999,9999,1787054188
7418,15,Jits_Phase_8,81,9999,9999,9999,1787814984
7418,15,Jits_Phase_8,82,9999,9999,9999,1788614740
7418,15,Jits_Phase_8,83,9999,9999,9999,1789414520
7418,15,Jits_Phase_8,84,9999,9999,9999,1790214216
7418,15,Jits_Phase_8,85,9999,9999,9999,1791015036
7418,15,Jits_Phase_8,86,9999,9999,9999,1791814720
7418,15,Jits_Phase_8,87,9999,9999,9999,1792614476
7418,15,Jits_Phase_8,88,9999,9999,9999,1793414224
7418,15,Jits_Phase_8,89,9999,9999,9999,1794215036
7418,15,Jits_Phase_8,90,9999,9999,9999,1795014728
7418,15,Jits_Phase_8,91,9999,9999,9999,1795814508
7418,15,Jits_Phase_8,92,9999,9999,9999,1796614208
7418,15,Jits_Phase_8,93,9999,9999,9999,1797415008
7418,15,Jits_Phase_8,94,9999,9999,9999,1798214768
7418,15,Jits_Phase_8,95,9999,9999,9999,1799014456
7418,15,Jits_Phase_8,96,9999,9999,9999,1799814228
7418,15,Jits_Phase_8,97,9999,9999,9999,1800534124
7418,15,Jits_Phase_8,98,9999,9999,9999,1801334872
7418,15,Jits_Phase_8,99,9999,9999,9999,1802134648
7418,15,Jits_Phase_8,100,9999,9999,9999,1802934396
7418,15,Jits_Phase_8,101,9999,9999,9999,1803734104
7418,15,Jits_Phase_8,102,9999,9999,9999,1804534900
7418,15,Jits_Phase_8,103,9999,9999,9999,1805334580
7418,15,Jits_Phase_8,104,9999,9999,9999,1806134352
7418,15,Jits_Phase_8,105,9999,9999,9999,1806934116
7418,15,Jits_Phase_8,106,9999,9999,9999,1807734912
7418,15,Jits_Phase_8,107,9999,9999,9999,1808534648
7418,15,Jits_Phase_8,108,9999,9999,9999,1809334332
7418,15,Jits_Phase_8,109,9999,9999,9999,1810134112
7418,15,Jits_Phase_8,110,9999,9999,9999,1810934852
7418,15,Jits_Phase_8,111,9999,9999,9999,1811734612
7418,15,Jits_Phase_8,112,9999,9999,9999,1812534380
7418,15,Jits_Phase_8,113,9999,9999,9999,1813334080
7418,15,Jits_Phase_8,114,9999,9999,9999,1814214760
7418,15,Jits_Phase_8,115,9999,9999,9999,1815014468
7418,15,Jits_Phase_8,116,9999,9999,9999,1815814232
7418,15,Jits_Phase_8,117,9999,9999,9999,1816614984
7418,15,Jits_Phase_8,118,9999,9999,9999,1817414744
7418,15,Jits_Phase_8,119,9999,9999,9999,1818214512
7418,15,Jits_Phase_8,120,9999,9999,9999,1819014208
7418,15,Jits_Phase_8,121,9999,9999,9999,1819815012
7418,15,Jits_Phase_8,122,9999,9999,9999,1820614764
7418,15,Jits_Phase_8,123,9999,9999,9999,1821414464
7418,15,Jits_Phase_8,124,9999,9999,9999,1822214232
7418,15,Jits_Phase_8,125,9999,9999,9999,1823015028
7418,15,Jits_Phase_8,126,9999,9999,9999,1823814720
7418,15,Jits_Phase_8,127,9999,9999,9999,1824614488
7418,15,Jits_Phase_8,128,9999,9999,9999,1825414244
7418,15,Jits_Phase_8,129,9999,9999,9999,1826214972
7418,15,Jits_Phase_8,130,9999,9999,9999,1827014740
7418,15,Jits_Phase_8,131,9999,9999,9999,1827974244
7418,15,Jits_Phase_8,132,9999,9999,9999,1828774972
7418,15,Jits_Phase_8,133,9999,9999,9999,1829574740
7418,15,Jits_Phase_8,134,9999,9999,9999,1830374528
7418,15,Jits_Phase_8,135,9999,9999,9999,1831174200
7418,15,Jits_Phase_8,136,9999,9999,9999,1831975008
7418,15,Jits_Phase_8,137,9999,9999,9999,1832774780
7418,15,Jits_Phase_8,138,9999,9999,9999,1833574456
7418,15,Jits_Phase_8,139,9999,9999,9999,1834374200
7418,15,Jits_Phase_8,140,9999,9999,9999,1835175008
7418,15,Jits_Phase_8,141,9999,9999,9999,1835974768
7418,15,Jits_Phase_8,142,9999,9999,9999,1836774472
7418,15,Jits_Phase_8,143,9999,9999,9999,1837574228
7418,15,Jits_Phase_8,144,9999,9999,9999,1838375032
7418,15,Jits_Phase_8,145,9999,9999,9999,1839174716
7418,15,Jits_Phase_8,146,9999,9999,9999,1839974480
7418,15,Jits_Phase_8,147,9999,9999,9999,1840774232
7418,15,Jits_Phase_8,148,9999,9999,9999,1841575032
7418,15,Jits_Phase_8,149,9999,9999,9999,1842374784
7418,15,Jits_Phase_8,150,9999,9999,9999,1843014748
7418,15,Jits_Phase_8,151,9999,9999,9999,1843814520
7418,15,Jits_Phase_8,152,9999,9999,9999,1844614220
7418,15,Jits_Phase_8,153,9999,9999,9999,1845415028
7418,15,Jits_Phase_8,154,9999,9999,9999,1846214780
7418,15,Jits_Phase_8,155,9999,9999,9999,1847014484
7418,15,Jits_Phase_8,156,9999,9999,9999,1847814240
7418,15,Jits_Phase_8,157,9999,9999,9999,1848614964
7418,15,Jits_Phase_8,158,9999,9999,9999,1849414728
7418,15,Jits_Phase_8,159,9999,9999,9999,1850214492
7418,15,Jits_Phase_8,160,9999,9999,9999,1851014196
7418,15,Jits_Phase_8,161,9999,9999,9999,1851814996
7418,15,Jits_Phase_8,162,9999,9999,9999,1852614764
7418,15,Jits_Phase_8,163,9999,9999,9999,1853414464
7418,15,Jits_Phase_8,164,9999,9999,9999,1854214224
7418,15,Jits_Phase_8,165,9999,9999,9999,1855015024
7418,15,Jits_Phase_8,166,9999,9999,9999,1855814724
7418,15,Jits_Phase_8,167,9999,9999,9999,1856614480
7418,15,Jits_Phase_8,168,9999,9999,9999,1857414240
7418,15,Jits_Phase_8,169,9999,9999,9999,1858214980
7419,17,Jits_Phase_5,0,5,56,103,1866602088
7419,17,Jits_Phase_5,1,5,63,98,1866605188
7419,17,Jits_Phase_5,2,5,80,127,1866608304
7419,17,Jits_Phase_5,0,5,56,103,1867101496
7419,17,Jits_Phase_5,1,5,63,98,1867104664
7419,17,Jits_Phase_5,2,5,80,127,1867107936
7419,17,Jits_Phase_5,0,5,56,103,1867611636
7419,17,Jits_Phase_5,1,5,80,127,1867621680
7419,17,Jits_Phase_5,2,5,63,98,1867642212
7419,17,Jits_Phase_5,0,5,63,98,1868062064
7419,17,Jits_Phase_5,1,5,80,127,1868092036
7419,17,Jits_Phase_5,2,5,56,103,1868102232
7419,17,Jits_Phase_5,3,1,48,33,1868119892
7419,17,Jits_Phase_5,0,1,48,39,1868580064
7419,17,Jits_Phase_5,1,5,80,127,1868622340
7419,17,Jits_Phase_5,2,5,56,103,1868632384
7419,17,Jits_Phase_5,3,5,63,98,1868662284
7419,17,Jits_Phase_5,0,1,48,39,1869109244
7419,17,Jits_Phase_5,1,5,63,98,1869111604
7419,17,Jits_Phase_5,2,5,56,103,1869142400
7419,17,Jits_Phase_5,3,5,80,127,1869151548
7419,17,Jits_Phase_5,0,5,56,103,1869562212
7419,17,Jits_Phase_5,1,5,63,98,1869612264
7419,17,Jits_Phase_5,2,5,80,127,1869631972
7419,17,Jits_Phase_5,3,1,48,31,1869641316
7419,17,Jits_Phase_5,0,5,80,127,1870061976
7419,17,Jits_Phase_5,1,1,48,38,1870077152
7419,17,Jits_Phase_5,2,5,63,98,1870112092
7419,17,Jits_Phase_5,3,5,56,103,1870152180
7419,17,Jits_Phase_5,0,5,56,103,1870561588
7419,17,Jits_Phase_5,1,1,48,43,1870568968
7419,17,Jits_Phase_5,2,5,63,98,1870592380
7419,17,Jits_Phase_5,3,5,80,127,1870662636
7419,17,Jits_Phase_5,0,1,48,40,1871052156
7419,17,Jits_Phase_5,1,5,56,103,1871062392
7419,17,Jits_Phase_5,2,5,80,127,1871122032
7419,17,Jits_Phase_5,3,5,63,98,1871151544
7419,17,Jits_Phase_5,0,1,48,34,1871552056
7419,17,Jits_Phase_5,1,5,56,103,1871581476
7419,17,Jits_Phase_5,2,5,63,98,1871591748
7419,17,Jits_Phase_5,3,5,80,127,1871631832
7419,17,Jits_Phase_5,0,1,48,37,1872039428
7419,17,Jits_Phase_5,1,5,63,98,1872072052
7419,17,Jits_Phase_5,2,5,80,127,1872152008
7419,17,Jits_Phase_5,3,5,56,103,1872162276
7419,17,Jits_Phase_5,0,1,48,35,1872601256
7419,17,Jits_Phase_5,1,5,63,98,1872622100
7419,17,Jits_Phase_5,2,5,56,103,1872662112
7419,17,Jits_Phase_5,3,5,80,127,1872665176
7419,17,Jits_Phase_5,0,5,56,103,1873081820
7419,17,Jits_Phase_5,1,5,63,98,1873092016
7419,17,Jits_Phase_5,2,1,48,32,1873118976
7419,17,Jits_Phase_5,3,5,80,127,1873131972
7419,17,Jits_Phase_5,0,5,56,103,1873572140
7419,17,Jits_Phase_5,1,5,63,98,1873575132
7419,17,Jits_Phase_5,2,5,80,127,1873591776
7419,17,Jits_Phase_5,3,1,48,32,1873601192
7419,17,Jits_Phase_5,0,1,48,42,1874055140
7419,17,Jits_Phase_5,1,5,80,127,1874082068
7419,17,Jits_Phase_5,2,5,56,103,1874092340
7419,17,Jits_Phase_5,3,5,63,98,1874161956
7419,17,Jits_Phase_5,0,1,48,41,1874557140
7419,17,Jits_Phase_5,1,5,63,98,1874571780
7419,17,Jits_Phase_5,2,5,56,103,1874592088
7419,17,Jits_Phase_5,3,5,80,127,1874672112
7419,17,Jits_Phase_5,0,1,48,36,1875040568
7419,17,Jits_Phase_5,1,5,56,103,1875081496
7419,17,Jits_Phase_5,2,5,80,127,1875121656
7419,17,Jits_Phase_5,3,5,63,98,1875132360
7419,17,Jits_Phase_5,0,5,80,127,1875572184
7419,17,Jits_Phase_5,1,1,48,36,1875573152
7419,17,Jits_Phase_5,2,5,63,98,1875601856
7419,17,Jits_Phase_5,3,5,56,103,1875641788
7419,17,Jits_Phase_5,0,1,48,41,1876086068
7419,17,Jits_Phase_5,1,5,56,103,1876092316
7419,17,Jits_Phase_5,2,5,63,98,1876122068
7419,17,Jits_Phase_5,3,5,80,127,1876172116
7419,17,Jits_Phase_5,0,1,48,42,1876568808
7419,17,Jits_Phase_5,1,5,80,127,1876591996
7419,17,Jits_Phase_5,2,5,56,103,1876632008
7419,17,Jits_Phase_5,3,5,63,98,1876642276
7419,17,Jits_Phase_5,0,1,48,35,1877068184
7419,17,Jits_Phase_5,1,5,80,127,1877072340
7419,17,Jits_Phase_5,2,5,63,98,1877112128
7419,17,Jits_Phase_5,3,5,56,103,1877171676
7419,17,Jits_Phase_5,0,5,56,103,1877571948
7419,17,Jits_Phase_5,1,5,80,127,1877582144
7419,17,Jits_Phase_5,2,1,48,41,1877583256
7419,17,Jits_Phase_5,3,5,63,98,1877662000
7419,17,Jits_Phase_5,0,1,48,31,1877998696
7419,17,Jits_Phase_5,1,5,80,127,1878071780
7419,17,Jits_Phase_5,2,5,63,98,1878132076
7419,17,Jits_Phase_5,3,5,56,103,1878161976
7419,17,Jits_Phase_5,0,5,56,103,1878572360
7419,17,Jits_Phase_5,1,1,48,42,1878582524
7419,17,Jits_Phase_5,2,5,80,127,1878631768
7419,17,Jits_Phase_5,3,5,63,98,1878672004
7419,17,Jits_Phase_5,0,5,56,103,1879131612
7419,17,Jits_Phase_5,1,1,48,36,1879136304
7419,17,Jits_Phase_5,2,5,63,98,1879142020
7419,17,Jits_Phase_5,3,5,80,127,1879145160
7419,17,Jits_Phase_5,0,5,80,127,1879582072
7419,17,Jits_Phase_5,1,1,48,45,1879636652
7419,17,Jits_Phase_5,2,5,63,98,1879672120
7419,17,Jits_Phase_5,3,5,56,103,1879682392
7419,17,Jits_Phase_5,0,5,56,103,1880081820
7419,17,Jits_Phase_5,1,5,63,98,1880084996
7419,17,Jits_Phase_5,2,5,80,127,1880088260
7419,17,Jits_Phase_5,3,1,48,45,1880111476
7419,17,Jits_Phase_5,0,1,48,41,1880564984
7419,17,Jits_Phase_5,1,5,80,127,1880601948
7419,17,Jits_Phase_5,2,5,63,98,1880652148
7419,17,Jits_Phase_5,3,5,56,103,1880682028
7419,17,Jits_Phase_5,0,5,56,103,1881082076
7419,17,Jits_Phase_5,1,5,80,127,1881091596
7419,17,Jits_Phase_5,2,1,48,47,1881127972
7419,17,Jits_Phase_5,3,5,63,98,1881162092
7419,17,Jits_Phase_5,0,5,56,103,1881592100
7419,17,Jits_Phase_5,1,1,48,49,1881599928
7419,17,Jits_Phase_5,2,5,63,98,1881611880
7419,17,Jits_Phase_5,3,5,80,127,1881671968
7419,17,Jits_Phase_5,0,5,80,127,1882072388
7419,17,Jits_Phase_5,1,1,48,47,1882090724
7419,17,Jits_Phase_5,2,5,63,98,1882142136
7419,17,Jits_Phase_5,3,5,56,103,1882161400
7419,17,Jits_Phase_5,0,1,48,47,1882585076
7419,17,Jits_Phase_5,1,5,80,127,1882591628
7419,17,Jits_Phase_5,2,5,56,103,1882601972
7419,17,Jits_Phase_5,3,5,63,98,1882612244
7419,17,Jits_Phase_5,0,5,80,127,1883082068
7419,17,Jits_Phase_5,1,1,48,35,1883097416
7419,17,Jits_Phase_5,2,5,56,103,1883101720
7419,17,Jits_Phase_5,3,5,63,98,1883172292
7419,17,Jits_Phase_5,0,1,48,51,1883562916
7419,17,Jits_Phase_5,1,5,56,103,1883592016
7419,17,Jits_Phase_5,2,5,80,127,1883621936
7419,17,Jits_Phase_5,3,5,63,98,1883642172
7419,17,Jits_Phase_5,0,1,48,33,1884042668
7419,17,Jits_Phase_5,1,5,63,98,1884081500
7419,17,Jits_Phase_5,2,5,56,103,1884142348
7419,17,Jits_Phase_5,3,5,80,127,1884171724
7419,17,Jits_Phase_5,0,5,63,98,1884572116
7419,17,Jits_Phase_5,1,5,80,127,1884575328
7419,17,Jits_Phase_5,2,1,48,34,1884617184
7419,17,Jits_Phase_5,3,5,56,103,1884662112
7419,17,Jits_Phase_5,0,5,56,103,1885092300
7419,17,Jits_Phase_5,1,1,48,41,1885098040
7419,17,Jits_Phase_5,2,5,63,98,1885121896
7419,17,Jits_Phase_5,3,5,80,127,1885161856
7419,17,Jits_Phase_5,0,5,63,98,1885591844
7419,17,Jits_Phase_5,1,1,48,39,1885610920
7419,17,Jits_Phase_5,2,5,56,103,1885631848
7419,17,Jits_Phase_5,3,5,80,127,1885652404
7419,17,Jits_Phase_5,0,1,48,39,1886101784
7419,17,Jits_Phase_5,1,5,63,98,1886103196
7419,17,Jits_Phase_5,2,5,56,103,1886142012
7419,17,Jits_Phase_5,3,5,80,127,1886151908
7419,17,Jits_Phase_5,0,5,80,127,1886582128
7419,17,Jits_Phase_5,1,1,48,46,1886596028
7419,17,Jits_Phase_5,2,5,63,98,1886651876
7419,17,Jits_Phase_5,3,5,56,103,1886672136
7419,17,Jits_Phase_5,0,5,56,103,1887071856
7419,17,Jits_Phase_5,1,5,80,127,1887092016
7419,17,Jits_Phase_5,2,1,48,41,1887110652
7419,17,Jits_Phase_5,3,5,63,98,1887131948
7419,17,Jits_Phase_5,0,5,63,98,1887581812
7419,17,Jits_Phase_5,1,1,48,42,1887584332
7419,17,Jits_Phase_5,2,5,80,127,1887601964
7419,17,Jits_Phase_5,3,5,56,103,1887641976
7419,17,Jits_Phase_5,0,1,48,34,1888067428
7419,17,Jits_Phase_5,1,5,63,98,1888082224
7419,17,Jits_Phase_5,2,5,56,103,1888101784
7419,17,Jits_Phase_5,3,5,80,127,1888111980
7419,17,Jits_Phase_5,0,1,48,46,1888565008
7419,17,Jits_Phase_5,1,5,80,127,1888581968
7419,17,Jits_Phase_5,2,5,56,103,1888601604
7419,17,Jits_Phase_5,3,5,63,98,1888632176
7419,17,Jits_Phase_5,0,1,48,35,1889072476
7419,17,Jits_Phase_5,1,5,56,103,1889152360
7419,17,Jits_Phase_5,2,5,80,127,1889155576
7419,17,Jits_Phase_5,3,5,63,98,1889171696
7419,17,Jits_Phase_5,0,1,48,32,1889567044
7419,17,Jits_Phase_5,1,5,63,98,1889572244
7419,17,Jits_Phase_5,2,5,56,103,1889601920
7419,17,Jits_Phase_5,3,5,80,127,1889662308
7419,17,Jits_Phase_5,0,1,48,32,1890083652
7419,17,Jits_Phase_5,1,5,63,98,1890151856
7419,17,Jits_Phase_5,2,5,56,103,1890162128
7419,17,Jits_Phase_5,3,5,80,127,1890172324
7419,17,Jits_Phase_5,0,1,48,32,1890605804
7419,17,Jits_Phase_5,1,5,56,103,1890611680
7419,17,Jits_Phase_5,2,5,80,127,1890642180
7419,17,Jits_Phase_5,3,5,63,98,1890651624
7419,17,Jits_Phase_5,0,1,48,37,1891053192
7419,17,Jits_Phase_5,1,5,63,98,1891152172
7419,17,Jits_Phase_5,2,5,56,103,1891161544
7419,17,Jits_Phase_5,3,5,80,127,1891181856
7419,17,Jits_Phase_5,0,5,56,103,1891582200
7419,17,Jits_Phase_5,1,5,63,98,1891641836
7419,17,Jits_Phase_5,2,5,80,127,1891644980
7419,17,Jits_Phase_5,3,1,48,33,1891677084
7419,17,Jits_Phase_5,0,5,80,127,1892101584
7419,17,Jits_Phase_5,1,5,56,103,1892111704
7419,17,Jits_Phase_5,2,1,48,45,1892114672
7419,17,Jits_Phase_5,3,5,63,98,1892182496
7419,17,Jits_Phase_5,0,1,48,44,1892577632
7419,17,Jits_Phase_5,1,5,80,127,1892591900
7419,17,Jits_Phase_5,2,5,56,103,1892661580
7419,17,Jits_Phase_5,3,5,63,98,1892671760
7419,17,Jits_Phase_5,0,1,48,35,1893126232
7419,17,Jits_Phase_5,1,5,63,98,1893131808
7419,17,Jits_Phase_5,2,5,56,103,1893141852
7419,17,Jits_Phase_5,3,5,80,127,1893162384
7419,17,Jits_Phase_5,0,5,80,127,1893582092
7419,17,Jits_Phase_5,1,1,48,41,1893605760
7419,17,Jits_Phase_5,2,5,63,98,1893641752
7419,17,Jits_Phase_5,3,5,56,103,1893681612
7419,17,Jits_Phase_5,0,1,48,50,1894092316
7419,17,Jits_Phase_5,1,5,56,103,1894121732
7419,17,Jits_Phase_5,2,5,63,98,1894132080
7419,17,Jits_Phase_5,3,5,80,127,1894172016
7419,17,Jits_Phase_5,0,5,56,103,1894581756
7419,17,Jits_Phase_5,1,1,48,42,1894586220
7419,17,Jits_Phase_5,2,5,80,127,1894612348
7419,17,Jits_Phase_5,3,5,63,98,1894661576
7419,17,Jits_Phase_5,0,1,48,39,1895103060
7419,17,Jits_Phase_5,1,5,56,103,1895122292
7419,17,Jits_Phase_5,2,5,63,98,1895162156
7419,17,Jits_Phase_5,3,5,80,127,1895165592
7419,17,Jits_Phase_5,0,1,48,43,1895620052
7419,17,Jits_Phase_5,1,5,56,103,1895621936
7419,17,Jits_Phase_5,2,5,63,98,1895632308
7419,17,Jits_Phase_5,3,5,80,127,1895651792
7419,17,Jits_Phase_5,0,5,56,103,1896081828
7419,17,Jits_Phase_5,1,5,80,127,1896084744
7419,17,Jits_Phase_5,2,1,48,51,1896093112
7419,17,Jits_Phase_5,3,5,63,98,1896121680
7419,17,Jits_Phase_5,0,1,48,40,1896603640
7419,17,Jits_Phase_5,1,5,63,98,1896621576
7419,17,Jits_Phase_5,2,5,56,103,1896652000
7419,17,Jits_Phase_5,3,5,80,127,1896671808
7419,17,Jits_Phase_5,0,1,48,51,1897073576
7419,17,Jits_Phase_5,1,5,80,127,1897091660
7419,17,Jits_Phase_5,2,5,56,103,1897101632
7419,17,Jits_Phase_5,3,5,63,98,1897111900
7419,17,Jits_Phase_5,0,1,48,48,1897527236
7419,17,Jits_Phase_5,1,5,56,103,1897592152
7419,17,Jits_Phase_5,2,5,80,127,1897632076
7419,17,Jits_Phase_5,3,5,63,98,1897661672
7419,17,Jits_Phase_5,0,1,48,45,1898064304
7419,17,Jits_Phase_5,1,5,63,98,1898102240
7419,17,Jits_Phase_5,2,5,80,127,1898112584
7419,17,Jits_Phase_5,3,5,56,103,1898121660
7419,17,Jits_Phase_5,0,1,48,46,1898555732
7419,17,Jits_Phase_5,1,5,56,103,1898591720
7419,17,Jits_Phase_5,2,5,63,98,1898662212
7419,17,Jits_Phase_5,3,5,80,127,1898671584
7419,17,Jits_Phase_5,0,1,48,44,1899097580
7419,17,Jits_Phase_5,1,5,80,127,1899101660
7419,17,Jits_Phase_5,2,5,56,103,1899111932
7419,17,Jits_Phase_5,3,5,63,98,1899161908
7419,17,Jits_Phase_5,0,5,80,127,1899611604
7419,17,Jits_Phase_5,1,1,48,42,1899620048
7419,17,Jits_Phase_5,2,5,56,103,1899671912
7419,17,Jits_Phase_5,3,5,63,98,1899701736
7419,17,Jits_Phase_5,0,1,48,35,1900089468
7419,17,Jits_Phase_5,1,5,56,103,1900112184
7419,17,Jits_Phase_5,2,5,80,127,1900115248
7419,17,Jits_Phase_5,3,5,63,98,1900152120
7419,17,Jits_Phase_5,0,1,48,40,1900616164
7419,17,Jits_Phase_5,1,5,56,103,1900641668
7419,17,Jits_Phase_5,2,5,63,98,1900672612
7419,17,Jits_Phase_5,3,5,80,127,1900681464
7419,17,Jits_Phase_5,0,5,63,98,1901151764
7419,17,Jits_Phase_5,1,5,80,127,1901161812
7419,17,Jits_Phase_5,2,1,48,36,1901166496
7419,17,Jits_Phase_5,3,5,56,103,1901172072
7419,17,Jits_Phase_5,0,5,80,127,1901602216
7419,17,Jits_Phase_5,1,1,48,43,1901650436
7419,17,Jits_Phase_5,2,5,56,103,1901652256
7419,17,Jits_Phase_5,3,5,63,98,1901655328
7419,17,Jits_Phase_5,0,1,48,56,1902123812
7419,17,Jits_Phase_5,1,5,56,103,1902131484
7419,17,Jits_Phase_5,2,5,80,127,1902151940
7419,17,Jits_Phase_5,3,5,63,98,1902162432
7419,17,Jits_Phase_5,0,5,63,98,1902611908
7419,17,Jits_Phase_5,1,1,48,43,1902623492
7419,17,Jits_Phase_5,2,5,56,103,1902641500
7419,17,Jits_Phase_5,3,5,80,127,1902662180
7419,17,Jits_Phase_5,0,5,56,103,1903121696
7419,17,Jits_Phase_5,1,5,80,127,1903132116
7419,17,Jits_Phase_5,2,1,48,34,1903133304
7419,17,Jits_Phase_5,3,5,63,98,1903201712
7419,17,Jits_Phase_5,0,5,63,98,1903612544
7419,17,Jits_Phase_5,1,1,48,40,1903618280
7419,17,Jits_Phase_5,2,5,80,127,1903652324
7419,17,Jits_Phase_5,3,5,56,103,1903692260
7419,17,Jits_Phase_5,0,5,56,103,1904122184
7419,17,Jits_Phase_5,1,5,63,98,1904131556
7419,17,Jits_Phase_5,2,1,48,45,1904136916
7419,17,Jits_Phase_5,3,5,80,127,1904152008
7419,17,Jits_Phase_5,0,1,48,31,1904603336
7419,17,Jits_Phase_5,1,5,63,98,1904661872
7419,17,Jits_Phase_5,2,5,80,127,1904682628
7419,17,Jits_Phase_5,3,5,56,103,1904701804
7419,17,Jits_Phase_5,0,5,56,103,1905102048
7419,17,Jits_Phase_5,1,1,48,29,1905141356
7419,17,Jits_Phase_5,2,5,80,127,1905181984
7419,17,Jits_Phase_5,3,5,63,98,1905192552
7419,17,Jits_Phase_5,0,1,48,45,1905641672
7419,17,Jits_Phase_5,1,5,80,127,1905642860
7419,17,Jits_Phase_5,2,5,63,98,1905652084
7419,17,Jits_Phase_5,3,5,56,103,1905681908
7419,17,Jits_Phase_5,0,5,63,98,1906101616
7419,17,Jits_Phase_5,1,5,80,127,1906141428
7419,17,Jits_Phase_5,2,1,48,26,1906196536
7419,17,Jits_Phase_5,3,5,56,103,1906201956
7419,17,Jits_Phase_5,0,5,63,98,1906611628
7419,17,Jits_Phase_5,1,5,56,103,1906661856
7419,17,Jits_Phase_5,2,1,48,41,1906672696
7419,17,Jits_Phase_5,3,5,80,127,1906691372
7419,17,Jits_Phase_5,0,5,80,127,1907112424
7419,17,Jits_Phase_5,1,5,63,98,1907121500
7419,17,Jits_Phase_5,2,1,48,47,1907155652
7419,17,Jits_Phase_5,3,5,56,103,1907192612
7419,17,Jits_Phase_5,0,1,48,54,1907638524
7419,17,Jits_Phase_5,1,5,80,127,1907672520
7419,17,Jits_Phase_5,2,5,56,103,1907681668
7419,17,Jits_Phase_5,3,5,63,98,1907684956
7419,17,Jits_Phase_5,0,5,56,103,1908111640
7419,17,Jits_Phase_5,1,5,80,127,1908132176
7419,17,Jits_Phase_5,2,1,48,54,1908141396
7419,17,Jits_Phase_5,3,5,63,98,1908142736
7419,17,Jits_Phase_5,0,1,48,50,1908615788
7419,17,Jits_Phase_5,1,5,63,98,1908621664
7419,17,Jits_Phase_5,2,5,56,103,1908661600
7419,17,Jits_Phase_5,3,5,80,127,1908681984
7419,17,Jits_Phase_5,0,5,63,98,1909122544
7419,17,Jits_Phase_5,1,1,48,42,1909131888
7419,17,Jits_Phase_5,2,5,56,103,1909181724
7419,17,Jits_Phase_5,3,5,80,127,1909184944
7419,17,Jits_Phase_5,0,5,56,103,1909582132
7419,17,Jits_Phase_5,1,5,80,127,1909601616
7419,17,Jits_Phase_5,2,1,48,51,1909610960
7419,17,Jits_Phase_5,3,5,63,98,1909641472
7419,17,Jits_Phase_5,0,1,48,51,1910077208
7419,17,Jits_Phase_5,1,5,56,103,1910111556
7419,17,Jits_Phase_5,2,5,63,98,1910131940
7419,17,Jits_Phase_5,3,5,80,127,1910142432
7419,17,Jits_Phase_5,0,1,48,46,1910548488
7419,17,Jits_Phase_5,1,5,80,127,1910581636
7419,17,Jits_Phase_5,2,5,56,103,1910612508
7419,17,Jits_Phase_5,3,5,63,98,1910652428
7419,17,Jits_Phase_5,0,1,48,48,1911065020
7419,17,Jits_Phase_5,1,5,80,127,1911091500
7419,17,Jits_Phase_5,2,5,56,103,1911112108
7419,17,Jits_Phase_5,3,5,63,98,1911171580
7419,17,Jits_Phase_5,0,1,48,23,1911600540
7419,17,Jits_Phase_5,1,5,56,103,1911602260
7419,17,Jits_Phase_5,2,5,80,127,1911622120
7419,17,Jits_Phase_5,3,5,63,98,1911682356
7419,17,Jits_Phase_5,0,5,80,127,1912081864
7419,17,Jits_Phase_5,1,5,56,103,1912091912
7419,17,Jits_Phase_5,2,1,48,43,1912124316
7419,17,Jits_Phase_5,3,5,63,98,1912132064
7419,17,Jits_Phase_5,0,5,63,98,1912581552
7419,17,Jits_Phase_5,1,1,48,46,1912588412
7419,17,Jits_Phase_5,2,5,56,103,1912621480
7419,17,Jits_Phase_5,3,5,80,127,1912624696
7419,17,Jits_Phase_5,0,1,48,43,1913077128
7419,17,Jits_Phase_5,1,5,63,98,1913101812
7419,17,Jits_Phase_5,2,5,80,127,1913141748
7419,17,Jits_Phase_5,3,5,56,103,1913172320
7419,17,Jits_Phase_5,0,1,48,46,1913563404
7419,17,Jits_Phase_5,1,5,56,103,1913592272
7419,17,Jits_Phase_5,2,5,63,98,1913602544
7419,17,Jits_Phase_5,3,5,80,127,1913632068
7419,17,Jits_Phase_5,0,5,80,127,1914081764
7419,17,Jits_Phase_5,1,1,48,47,1914087124
7419,17,Jits_Phase_5,2,5,63,98,1914152260
7419,17,Jits_Phase_5,3,5,56,103,1914161632
7419,17,Jits_Phase_5,0,1,48,41,1914558536
7419,17,Jits_Phase_5,1,5,63,98,1914582568
7419,17,Jits_Phase_5,2,5,56,103,1914651936
7419,17,Jits_Phase_5,3,5,80,127,1914662352
7419,17,Jits_Phase_5,0,5,63,98,1915061624
7419,17,Jits_Phase_5,1,1,48,49,1915062668
7419,17,Jits_Phase_5,2,5,56,103,1915082376
7419,17,Jits_Phase_5,3,5,80,127,1915121968
7419,17,Jits_Phase_5,0,5,56,103,1915552008
7419,17,Jits_Phase_5,1,5,63,98,1915562276
7419,17,Jits_Phase_5,2,1,48,37,1915567860
7419,17,Jits_Phase_5,3,5,80,127,1915642456
7419,17,Jits_Phase_5,0,5,63,98,1916041728
7419,17,Jits_Phase_5,1,1,48,24,1916063724
7419,17,Jits_Phase_5,2,5,56,103,1916072516
7419,17,Jits_Phase_5,3,5,80,127,1916112256
7419,17,Jits_Phase_5,0,1,48,45,1916536120
7419,17,Jits_Phase_5,1,5,56,103,1916542444
7419,17,Jits_Phase_5,2,5,63,98,1916582532
7419,17,Jits_Phase_5,3,5,80,127,1916622344
7419,17,Jits_Phase_5,0,5,80,127,1917042128
7419,17,Jits_Phase_5,1,1,48,47,1917043612
7419,17,Jits_Phase_5,2,5,56,103,1917121764
7419,17,Jits_Phase_5,3,5,63,98,1917132408
7419,17,Jits_Phase_5,0,1,48,35,1917557812
7419,17,Jits_Phase_5,1,5,56,103,1917581664
7419,17,Jits_Phase_5,2,5,63,98,1917584656
7419,17,Jits_Phase_5,3,5,80,127,1917591936
7419,17,Jits_Phase_5,0,1,48,38,1918035824
7419,17,Jits_Phase_5,1,5,56,103,1918101936
7419,17,Jits_Phase_5,2,5,63,98,1918122396
7419,17,Jits_Phase_5,3,5,80,127,1918131528
7419,17,Jits_Phase_5,0,5,63,98,1918561616
7419,17,Jits_Phase_5,1,5,80,127,1918571888
7419,17,Jits_Phase_5,2,1,48,38,1918583548
7419,17,Jits_Phase_5,3,5,56,103,1918592264
7419,17,Jits_Phase_5,0,5,63,98,1919062340
7419,17,Jits_Phase_5,1,1,48,40,1919097368
7419,17,Jits_Phase_5,2,5,56,103,1919142500
7419,17,Jits_Phase_5,3,5,80,127,1919145564
7419,17,Jits_Phase_5,0,1,48,41,1919559892
7419,17,Jits_Phase_5,1,5,63,98,1919562152
7419,17,Jits_Phase_5,2,5,56,103,1919581492
7419,17,Jits_Phase_5,3,5,80,127,1919612284
7419,17,Jits_Phase_5,0,1,48,41,1920049892
7419,17,Jits_Phase_5,1,5,56,103,1920061756
7419,17,Jits_Phase_5,2,5,63,98,1920082436
7419,17,Jits_Phase_5,3,5,80,127,1920091436
7419,17,Jits_Phase_5,0,1,48,39,1920554428
7419,17,Jits_Phase_5,1,5,56,103,1920592512
7419,17,Jits_Phase_5,2,5,63,98,1920622036
7419,17,Jits_Phase_5,3,5,80,127,1920625324
7419,17,Jits_Phase_5,0,1,48,47,1921029140
7419,17,Jits_Phase_5,1,5,56,103,1921041836
7419,17,Jits_Phase_5,2,5,63,98,1921081848
7419,17,Jits_Phase_5,3,5,80,127,1921142368
7419,17,Jits_Phase_5,0,1,48,47,1921516976
7419,17,Jits_Phase_5,1,5,56,103,1921562108
7419,17,Jits_Phase_5,2,5,63,98,1921572380
7419,17,Jits_Phase_5,3,5,80,127,1921631556
7419,17,Jits_Phase_5,0,1,48,48,1922017844
7419,17,Jits_Phase_5,1,5,56,103,1922061560
7419,17,Jits_Phase_5,2,5,80,127,1922082316
7419,17,Jits_Phase_5,3,5,63,98,1922111768
7419,17,Jits_Phase_5,0,1,48,41,1922523968
7419,17,Jits_Phase_5,1,5,80,127,1922562280
7419,17,Jits_Phase_5,2,5,56,103,1922571576
7419,17,Jits_Phase_5,3,5,63,98,1922592332
7419,17,Jits_Phase_5,0,1,48,46,1923045964
7419,17,Jits_Phase_5,1,5,63,98,1923051840
7419,17,Jits_Phase_5,2,5,80,127,1923131708
7419,17,Jits_Phase_5,3,5,56,103,1923142332
7419,17,Jits_Phase_5,0,1,48,40,1923532216
7419,17,Jits_Phase_5,1,5,80,127,1923641704
7419,17,Jits_Phase_5,2,5,56,103,1923662460
7419,17,Jits_Phase_5,3,5,63,98,1923665524
7419,17,Jits_Phase_5,0,1,48,43,1924084124
7419,17,Jits_Phase_5,1,5,63,98,1924132320
7419,17,Jits_Phase_5,2,5,80,127,1924135684
7419,17,Jits_Phase_5,3,5,56,103,1924191568
7419,17,Jits_Phase_5,0,5,56,103,1924611396
7419,17,Jits_Phase_5,1,5,80,127,1924621592
7419,17,Jits_Phase_5,2,1,48,47,1924655272
7419,17,Jits_Phase_5,3,5,63,98,1924661596
7419,17,Jits_Phase_5,0,5,56,103,1925091828
7419,17,Jits_Phase_5,1,5,63,98,1925152364
7419,17,Jits_Phase_5,2,1,48,40,1925156984
7419,17,Jits_Phase_5,3,5,80,127,1925162332
7419,17,Jits_Phase_5,0,5,63,98,1925601632
7419,17,Jits_Phase_5,1,1,48,41,1925622812
7419,17,Jits_Phase_5,2,5,80,127,1925641564
7419,17,Jits_Phase_5,3,5,56,103,1925681424
7419,17,Jits_Phase_5,0,1,48,26,1926102352
7419,17,Jits_Phase_5,1,5,56,103,1926103764
7419,17,Jits_Phase_5,2,5,63,98,1926182284
7419,17,Jits_Phase_5,3,5,80,127,1926185572
7419,17,Jits_Phase_5,0,1,48,43,1926606104
7419,17,Jits_Phase_5,1,5,80,127,1926661428
7419,17,Jits_Phase_5,2,5,56,103,1926692296
7419,17,Jits_Phase_5,3,5,63,98,1926695360
7419,17,Jits_Phase_5,0,5,56,103,1927122220
7419,17,Jits_Phase_5,1,5,80,127,1927141632
7419,17,Jits_Phase_5,2,1,48,44,1927142672
7419,17,Jits_Phase_5,3,5,63,98,1927181636
7419,17,Jits_Phase_5,0,5,80,127,1927601432
7419,17,Jits_Phase_5,1,5,63,98,1927622188
7419,17,Jits_Phase_5,2,5,56,103,1927682376
7419,17,Jits_Phase_5,0,1,48,36,1928108308
7419,17,Jits_Phase_5,1,5,63,98,1928111564
7419,17,Jits_Phase_5,2,5,56,103,1928121612
7419,17,Jits_Phase_5,3,5,80,127,1928171836
7419,17,Jits_Phase_5,0,1,48,43,1928561236
7419,17,Jits_Phase_5,1,5,56,103,1928602164
7419,17,Jits_Phase_5,2,5,63,98,1928621352
7419,17,Jits_Phase_5,3,5,80,127,1928631696
7419,17,Jits_Phase_5,0,1,48,25,1929073340
7419,17,Jits_Phase_5,1,5,56,103,1929091496
7419,17,Jits_Phase_5,2,5,63,98,1929094636
7419,17,Jits_Phase_5,3,5,80,127,1929111956
7419,17,Jits_Phase_5,0,1,48,36,1929574720
7419,17,Jits_Phase_5,1,5,63,98,1929632212
7419,17,Jits_Phase_5,2,5,56,103,1929661884
7419,17,Jits_Phase_5,3,5,80,127,1929691496
7419,17,Jits_Phase_5,0,1,48,44,1930085328
7419,17,Jits_Phase_5,1,5,80,127,1930092180
7419,17,Jits_Phase_5,2,5,56,103,1930181936
7419,17,Jits_Phase_5,3,5,63,98,1930185736
7419,17,Jits_Phase_5,0,1,48,45,1930577204
7419,17,Jits_Phase_5,1,5,56,103,1930591620
7419,17,Jits_Phase_5,2,5,80,127,1930594908
7419,17,Jits_Phase_5,3,5,63,98,1930671412
7419,17,Jits_Phase_5,0,1,48,46,1931057312
7419,17,Jits_Phase_5,1,5,80,127,1931092404
7419,17,Jits_Phase_5,2,5,63,98,1931151672
7419,17,Jits_Phase_5,3,5,56,103,1931181404
7419,17,Jits_Phase_5,0,1,48,40,1931559004
7419,17,Jits_Phase_5,1,5,63,98,1931592228
7419,17,Jits_Phase_5,2,5,80,127,1931602352
7419,17,Jits_Phase_5,3,5,56,103,1931672164
7419,17,Jits_Phase_5,0,1,48,47,1932057480
7419,17,Jits_Phase_5,1,5,56,103,1932152288
7419,17,Jits_Phase_5,2,5,80,127,1932181952
7419,17,Jits_Phase_5,3,5,63,98,1932232300
7419,17,Jits_Phase_5,0,1,48,33,1932634172
7419,17,Jits_Phase_5,1,5,63,98,1932742216
7419,17,Jits_Phase_5,2,5,56,103,1932771688
7419,17,Jits_Phase_5,3,5,80,127,1932774680
7419,17,Jits_Phase_5,0,1,48,53,1933183588
7419,17,Jits_Phase_5,1,5,63,98,1933241604
7419,17,Jits_Phase_5,2,5,80,127,1933262088
7419,17,Jits_Phase_5,3,5,56,103,1933272356
7419,17,Jits_Phase_5,0,1,48,40,1933707832
7419,17,Jits_Phase_5,1,5,56,103,1933751768
7419,17,Jits_Phase_5,2,5,63,98,1933754684
7419,17,Jits_Phase_5,3,5,80,127,1933772076
7419,17,Jits_Phase_5,0,5,56,103,1934202220
7419,17,Jits_Phase_5,1,5,63,98,1934211372
7419,17,Jits_Phase_5,2,5,80,127,1934242240
7419,17,Jits_Phase_5,3,1,48,35,1934247300
7419,17,Jits_Phase_5,0,1,48,43,1934711764
7419,17,Jits_Phase_5,1,5,63,98,1934722352
7419,17,Jits_Phase_5,2,5,80,127,1934742064
7419,17,Jits_Phase_5,3,5,56,103,1934782072
7419,17,Jits_Phase_5,0,1,48,26,1935211744
7419,17,Jits_Phase_5,1,5,56,103,1935251772
7419,17,Jits_Phase_5,2,5,63,98,1935291780
7419,17,Jits_Phase_5,3,5,80,127,1935295292
7419,17,Jits_Phase_5,0,5,80,127,1935692184
7419,17,Jits_Phase_5,1,1,48,41,1935705940
7419,17,Jits_Phase_5,2,5,56,103,1935732268
7419,17,Jits_Phase_5,3,5,63,98,1935782240
7419,17,Jits_Phase_5,0,1,48,49,1936188540
7419,17,Jits_Phase_5,1,5,56,103,1936252256
7419,17,Jits_Phase_5,2,5,80,127,1936261552
7419,17,Jits_Phase_5,3,5,63,98,1936292184
7419,17,Jits_Phase_5,0,1,48,40,1936690924
7419,17,Jits_Phase_5,1,5,56,103,1936701660
7419,17,Jits_Phase_5,2,5,80,127,1936741600
7419,17,Jits_Phase_5,3,5,63,98,1936792080
7419,17,Jits_Phase_5,0,1,48,41,1937179644
7419,17,Jits_Phase_5,1,5,56,103,1937201412
7419,17,Jits_Phase_5,2,5,80,127,1937241500
7419,17,Jits_Phase_5,3,5,63,98,1937291756
7419,17,Jits_Phase_5,0,1,48,47,1937650872
7419,17,Jits_Phase_5,1,5,80,127,1937691944
7419,17,Jits_Phase_5,2,5,63,98,1937772024
7419,17,Jits_Phase_5,3,5,56,103,1937782068
7419,17,Jits_Phase_5,0,1,48,29,1938223140
7419,17,Jits_Phase_5,1,5,80,127,1938242192
7419,17,Jits_Phase_5,2,5,56,103,1938252388
7419,17,Jits_Phase_5,3,5,63,98,1938271576
7419,17,Jits_Phase_5,0,5,63,98,1938712060
7419,17,Jits_Phase_5,1,1,48,37,1938734056
7419,17,Jits_Phase_5,2,5,56,103,1938781508
7419,17,Jits_Phase_5,3,5,80,127,1938784576
7419,17,Jits_Phase_5,0,5,80,127,1939202364
7419,17,Jits_Phase_5,1,1,48,48,1939227352
7419,17,Jits_Phase_5,2,5,63,98,1939251660
7419,17,Jits_Phase_5,3,5,56,103,1939291596
7419,17,Jits_Phase_5,0,1,48,35,1939722404
7419,17,Jits_Phase_5,1,5,63,98,1939742280
7419,17,Jits_Phase_5,2,5,56,103,1939781996
7419,17,Jits_Phase_5,3,5,80,127,1939792488
7419,17,Jits_Phase_5,0,5,63,98,1940231408
7419,17,Jits_Phase_5,1,1,48,35,1940246280
7419,17,Jits_Phase_5,2,5,56,103,1940252008
7419,17,Jits_Phase_5,3,5,80,127,1940271420
7419,17,Jits_Phase_5,0,5,80,127,1940692196
7419,17,Jits_Phase_5,1,5,56,103,1940701644
7419,17,Jits_Phase_5,2,5,63,98,1940722100
7419,17,Jits_Phase_5,3,1,48,39,1940725896
7419,17,Jits_Phase_5,0,1,48,51,1941181408
7419,17,Jits_Phase_5,1,5,63,98,1941221692
7419,17,Jits_Phase_5,2,5,56,103,1941261628
7419,17,Jits_Phase_5,3,5,80,127,1941292260
7419,17,Jits_Phase_5,0,5,56,103,1941681496
7419,17,Jits_Phase_5,1,1,48,36,1941692180
7419,17,Jits_Phase_5,2,5,63,98,1941712308
7419,17,Jits_Phase_5,3,5,80,127,1941742132
7419,17,Jits_Phase_5,0,5,80,127,1942102452
7419,17,Jits_Phase_5,1,1,48,38,1942152172
7419,17,Jits_Phase_5,2,5,56,103,1942172124
7419,17,Jits_Phase_5,3,5,63,98,1942175040
7419,17,Jits_Phase_5,0,1,48,41,1942605764
7419,17,Jits_Phase_5,1,5,56,103,1942612392
7419,17,Jits_Phase_5,2,5,63,98,1942661472
7419,17,Jits_Phase_5,3,5,80,127,1942692192
7419,17,Jits_Phase_5,0,5,63,98,1943091548
7419,17,Jits_Phase_5,1,5,80,127,1943094836
7419,17,Jits_Phase_5,2,1,48,31,1943119528
7419,17,Jits_Phase_5,3,5,56,103,1943152000
7419,17,Jits_Phase_5,0,1,48,40,1943564276
7419,17,Jits_Phase_5,1,5,56,103,1943622068
7419,17,Jits_Phase_5,2,5,80,127,1943632116
7419,17,Jits_Phase_5,3,5,63,98,1943682376
7419,17,Jits_Phase_5,0,5,63,98,1944092008
7419,17,Jits_Phase_5,1,5,56,103,1944102204
7419,17,Jits_Phase_5,2,1,48,35,1944106372
7419,17,Jits_Phase_5,3,5,80,127,1944132020
7419,17,Jits_Phase_5,0,1,48,20,1944586548
7419,17,Jits_Phase_5,1,5,63,98,1944621336
7419,17,Jits_Phase_5,2,5,80,127,1944625080
7419,17,Jits_Phase_5,3,5,56,103,1944652140
7419,17,Jits_Phase_5,0,1,48,27,1945092664
7419,17,Jits_Phase_5,1,5,63,98,1945141612
7419,17,Jits_Phase_5,2,5,56,103,1945162068
7419,17,Jits_Phase_5,3,5,80,127,1945165060
7419,17,Jits_Phase_5,0,1,48,36,1945568348
7419,17,Jits_Phase_5,1,5,63,98,1945602320
7419,17,Jits_Phase_5,2,5,56,103,1945672132
7419,17,Jits_Phase_5,3,5,80,127,1945691544
7419,17,Jits_Phase_5,0,1,48,50,1946067128
7419,17,Jits_Phase_5,1,5,56,103,1946092032
7419,17,Jits_Phase_5,2,5,63,98,1946102228
7419,17,Jits_Phase_5,3,5,80,127,1946192116
7419,17,Jits_Phase_5,0,1,48,46,1946551728
7419,17,Jits_Phase_5,1,5,56,103,1946612012
7419,17,Jits_Phase_5,2,5,80,127,1946651932
7419,17,Jits_Phase_5,3,5,63,98,1946662204
7419,17,Jits_Phase_5,0,1,48,32,1947063908
7419,17,Jits_Phase_5,1,5,56,103,1947132212
7419,17,Jits_Phase_5,2,5,63,98,1947161948
7419,17,Jits_Phase_5,3,5,80,127,1947191920
7419,17,Jits_Phase_5,0,5,80,127,1947592092
7419,17,Jits_Phase_5,1,1,48,16,1947604300
7419,17,Jits_Phase_5,2,5,63,98,1947632196
7419,17,Jits_Phase_5,3,5,56,103,1947651532
7419,17,Jits_Phase_5,0,1,48,27,1948072044
7419,17,Jits_Phase_5,1,5,56,103,1948131952
7419,17,Jits_Phase_5,2,5,80,127,1948152112
7419,17,Jits_Phase_5,3,5,63,98,1948171808
7419,17,Jits_Phase_5,0,1,48,35,1948595612
7419,17,Jits_Phase_5,1,5,63,98,1948601712
7419,17,Jits_Phase_5,2,5,56,103,1948611980
7419,17,Jits_Phase_5,3,5,80,127,1948672244
7419,17,Jits_Phase_5,0,1,48,41,1949079624
7419,17,Jits_Phase_5,1,5,56,103,1949101384
7419,17,Jits_Phase_5,2,5,63,98,1949172212
7419,17,Jits_Phase_5,3,5,80,127,1949191684
7419,17,Jits_Phase_5,0,1,48,39,1949563648
7419,17,Jits_Phase_5,1,5,56,103,1949602036
7419,17,Jits_Phase_5,2,5,63,98,1949632232
7419,17,Jits_Phase_5,3,5,80,127,1949671880
7419,17,Jits_Phase_5,0,1,48,41,1950080264
7419,17,Jits_Phase_5,1,5,63,98,1950091596
7419,17,Jits_Phase_5,2,5,56,103,1950141944
7419,17,Jits_Phase_5,3,5,80,127,1950151992
7419,17,Jits_Phase_5,0,1,48,33,1950579164
7419,17,Jits_Phase_5,1,5,56,103,1950632248
7419,17,Jits_Phase_5,2,5,63,98,1950681412
7419,17,Jits_Phase_5,3,5,80,127,1950691980
7419,17,Jits_Phase_5,0,5,56,103,1951102192
7419,17,Jits_Phase_5,1,5,63,98,1951111416
7419,17,Jits_Phase_5,2,1,48,27,1951133116
7419,17,Jits_Phase_5,3,5,80,127,1951192420
7419,17,Jits_Phase_5,0,9999,9999,9999,1866849368
7419,17,Jits_Phase_5,1,9999,9999,9999,1867350124
7419,17,Jits_Phase_5,2,9999,9999,9999,1867860040
7419,17,Jits_Phase_5,3,9999,9999,9999,1868359744
7419,17,Jits_Phase_5,4,9999,9999,9999,1868859496
7419,17,Jits_Phase_5,5,9999,9999,9999,1869359176
7419,17,Jits_Phase_5,6,9999,9999,9999,1869859968
7419,17,Jits_Phase_5,7,9999,9999,9999,1870359652
7419,17,Jits_Phase_5,8,9999,9999,9999,1870859344
7419,17,Jits_Phase_5,9,9999,9999,9999,1871360080
7419,17,Jits_Phase_5,10,9999,9999,9999,1871870016
7419,17,Jits_Phase_5,11,9999,9999,9999,1872369772
7419,17,Jits_Phase_5,12,9999,9999,9999,1872869436
7419,17,Jits_Phase_5,13,9999,9999,9999,1873369188
7419,17,Jits_Phase_5,14,9999,9999,9999,1873869884
7419,17,Jits_Phase_5,15,9999,9999,9999,1874369644
7419,17,Jits_Phase_5,16,9999,9999,9999,1874869320
7419,17,Jits_Phase_5,17,9999,9999,9999,1875370040
7419,17,Jits_Phase_5,18,9999,9999,9999,1875869788
7419,17,Jits_Phase_5,19,9999,9999,9999,1876369480
7419,17,Jits_Phase_5,20,9999,9999,9999,1876869232
7419,17,Jits_Phase_5,21,9999,9999,9999,1877369952
7419,17,Jits_Phase_5,22,9999,9999,9999,1877869628
7419,17,Jits_Phase_5,23,9999,9999,9999,1878369392
7419,17,Jits_Phase_5,24,9999,9999,9999,1878870116
7419,17,Jits_Phase_5,25,9999,9999,9999,1879380060
7419,17,Jits_Phase_5,26,9999,9999,9999,1879879752
7419,17,Jits_Phase_5,27,9999,9999,9999,1880379492
7419,17,Jits_Phase_5,28,9999,9999,9999,1880879184
7419,17,Jits_Phase_5,29,9999,9999,9999,1881379904
7419,17,Jits_Phase_5,30,9999,9999,9999,1881869404
7419,17,Jits_Phase_5,31,9999,9999,9999,1882369100
7419,17,Jits_Phase_5,32,9999,9999,9999,1882869832
7419,17,Jits_Phase_5,33,9999,9999,9999,1883369584
7419,17,Jits_Phase_5,34,9999,9999,9999,1883869276
7419,17,Jits_Phase_5,35,9999,9999,9999,1884370000
7419,17,Jits_Phase_5,36,9999,9999,9999,1884869712
7419,17,Jits_Phase_5,37,9999,9999,9999,1885369456
7419,17,Jits_Phase_5,38,9999,9999,9999,1885869144
7419,17,Jits_Phase_5,39,9999,9999,9999,1886369868
7419,17,Jits_Phase_5,40,9999,9999,9999,1886869624
7419,17,Jits_Phase_5,41,9999,9999,9999,1887369312
7419,17,Jits_Phase_5,42,9999,9999,9999,1887870048
7419,17,Jits_Phase_5,43,9999,9999,9999,1888369720
7419,17,Jits_Phase_5,44,9999,9999,9999,1888869464
7419,17,Jits_Phase_5,45,9999,9999,9999,1889369208
7419,17,Jits_Phase_5,46,9999,9999,9999,1889869932
7419,17,Jits_Phase_5,47,9999,9999,9999,1890369612
7419,17,Jits_Phase_5,48,9999,9999,9999,1890879552
7419,17,Jits_Phase_5,49,9999,9999,9999,1891379308
7419,17,Jits_Phase_5,50,9999,9999,9999,1891880016
7419,17,Jits_Phase_5,51,9999,9999,9999,1892379708
7419,17,Jits_Phase_5,52,9999,9999,9999,1892879476
7419,17,Jits_Phase_5,53,9999,9999,9999,1893379152
7419,17,Jits_Phase_5,54,9999,9999,9999,1893879872
7419,17,Jits_Phase_5,55,9999,9999,9999,1894379640
7419,17,Jits_Phase_5,56,9999,9999,9999,1894879312
7419,17,Jits_Phase_5,57,9999,9999,9999,1895380040
7419,17,Jits_Phase_5,58,9999,9999,9999,1895879768
7419,17,Jits_Phase_5,59,9999,9999,9999,1896379496
7419,17,Jits_Phase_5,60,9999,9999,9999,1896879184
7419,17,Jits_Phase_5,61,9999,9999,9999,1897379900
7419,17,Jits_Phase_5,62,9999,9999,9999,1897879652
7419,17,Jits_Phase_5,63,9999,9999,9999,1898379320
7419,17,Jits_Phase_5,64,9999,9999,9999,1898899524
7419,17,Jits_Phase_5,65,9999,9999,9999,1899399272
7419,17,Jits_Phase_5,66,9999,9999,9999,1899899996
7419,17,Jits_Phase_5,67,9999,9999,9999,1900399672
7419,17,Jits_Phase_5,68,9999,9999,9999,1900899424
7419,17,Jits_Phase_5,69,9999,9999,9999,1901399100
7419,17,Jits_Phase_5,70,9999,9999,9999,1901899888
7419,17,Jits_Phase_5,71,9999,9999,9999,1902399576
7419,17,Jits_Phase_5,72,9999,9999,9999,1902899320
7419,17,Jits_Phase_5,73,9999,9999,9999,1903400044
7419,17,Jits_Phase_5,74,9999,9999,9999,1903899736
7419,17,Jits_Phase_5,75,9999,9999,9999,1904399484
7419,17,Jits_Phase_5,76,9999,9999,9999,1904899180
7419,17,Jits_Phase_5,77,9999,9999,9999,1905399880
7419,17,Jits_Phase_5,78,9999,9999,9999,1905899644
7419,17,Jits_Phase_5,79,9999,9999,9999,1906399320
7419,17,Jits_Phase_5,80,9999,9999,9999,1906900044
7419,17,Jits_Phase_5,81,9999,9999,9999,1907379316
7419,17,Jits_Phase_5,82,9999,9999,9999,1907880052
7419,17,Jits_Phase_5,83,9999,9999,9999,1908379728
7419,17,Jits_Phase_5,84,9999,9999,9999,1908879420
7419,17,Jits_Phase_5,85,9999,9999,9999,1909379164
7419,17,Jits_Phase_5,86,9999,9999,9999,1909879884
7419,17,Jits_Phase_5,87,9999,9999,9999,1910379572
7419,17,Jits_Phase_5,88,9999,9999,9999,1910879324
7419,17,Jits_Phase_5,89,9999,9999,9999,1911380044
7419,17,Jits_Phase_5,90,9999,9999,9999,1911879792
7419,17,Jits_Phase_5,91,9999,9999,9999,1912379468
7419,17,Jits_Phase_5,92,9999,9999,9999,1912879220
7419,17,Jits_Phase_5,93,9999,9999,9999,1913379944
7419,17,Jits_Phase_5,94,9999,9999,9999,1913879620
7419,17,Jits_Phase_5,95,9999,9999,9999,1914379368
7419,17,Jits_Phase_5,96,9999,9999,9999,1914880108
7419,17,Jits_Phase_5,97,9999,9999,9999,1915339900
7419,17,Jits_Phase_5,98,9999,9999,9999,1915839572
7419,17,Jits_Phase_5,99,9999,9999,9999,1916339260
7419,17,Jits_Phase_5,100,9999,9999,9999,1916840056
7419,17,Jits_Phase_5,101,9999,9999,9999,1917339732
7419,17,Jits_Phase_5,102,9999,9999,9999,1917839416
7419,17,Jits_Phase_5,103,9999,9999,9999,1918339168
7419,17,Jits_Phase_5,104,9999,9999,9999,1918839892
7419,17,Jits_Phase_5,105,9999,9999,9999,1919339636
7419,17,Jits_Phase_5,106,9999,9999,9999,1919839312
7419,17,Jits_Phase_5,107,9999,9999,9999,1920340036
7419,17,Jits_Phase_5,108,9999,9999,9999,1920839776
7419,17,Jits_Phase_5,109,9999,9999,9999,1921339448
7419,17,Jits_Phase_5,110,9999,9999,9999,1921839196
7419,17,Jits_Phase_5,111,9999,9999,9999,1922339916
7419,17,Jits_Phase_5,112,9999,9999,9999,1922839660
7419,17,Jits_Phase_5,113,9999,9999,9999,1923339340
7419,17,Jits_Phase_5,114,9999,9999,9999,1923889280
7419,17,Jits_Phase_5,115,9999,9999,9999,1924389996
7419,17,Jits_Phase_5,116,9999,9999,9999,1924889668
7419,17,Jits_Phase_5,117,9999,9999,9999,1925389432
7419,17,Jits_Phase_5,118,9999,9999,9999,1925889124
7419,17,Jits_Phase_5,119,9999,9999,9999,1926389836
7419,17,Jits_Phase_5,120,9999,9999,9999,1926889584
7419,17,Jits_Phase_5,121,9999,9999,9999,1927389260
7419,17,Jits_Phase_5,122,9999,9999,9999,1927890016
7419,17,Jits_Phase_5,123,9999,9999,9999,1928389696
7419,17,Jits_Phase_5,124,9999,9999,9999,1928889436
7419,17,Jits_Phase_5,125,9999,9999,9999,1929389168
7419,17,Jits_Phase_5,126,9999,9999,9999,1929889896
7419,17,Jits_Phase_5,127,9999,9999,9999,1930389560
7419,17,Jits_Phase_5,128,9999,9999,9999,1930889296
7419,17,Jits_Phase_5,129,9999,9999,9999,1931390016
7419,17,Jits_Phase_5,130,9999,9999,9999,1931889764
7419,17,Jits_Phase_5,131,9999,9999,9999,1932489828
7419,17,Jits_Phase_5,132,9999,9999,9999,1932989568
7419,17,Jits_Phase_5,133,9999,9999,9999,1933489248
7419,17,Jits_Phase_5,134,9999,9999,9999,1933989964
7419,17,Jits_Phase_5,135,9999,9999,9999,1934489708
7419,17,Jits_Phase_5,136,9999,9999,9999,1934989400
7419,17,Jits_Phase_5,137,9999,9999,9999,1935489144
7419,17,Jits_Phase_5,138,9999,9999,9999,1935989868
7419,17,Jits_Phase_5,139,9999,9999,9999,1936489560
7419,17,Jits_Phase_5,140,9999,9999,9999,1936989308
7419,17,Jits_Phase_5,141,9999,9999,9999,1937490032
7419,17,Jits_Phase_5,142,9999,9999,9999,1937989708
7419,17,Jits_Phase_5,143,9999,9999,9999,1938489460
7419,17,Jits_Phase_5,144,9999,9999,9999,1938989132
7419,17,Jits_Phase_5,145,9999,9999,9999,1939489860
7419,17,Jits_Phase_5,146,9999,9999,9999,1939989628
7419,17,Jits_Phase_5,147,9999,9999,9999,1940489304
7419,17,Jits_Phase_5,148,9999,9999,9999,1940990020
7419,17,Jits_Phase_5,149,9999,9999,9999,1941489788
7419,17,Jits_Phase_5,150,9999,9999,9999,1941889132
7419,17,Jits_Phase_5,151,9999,9999,9999,1942389860
7419,17,Jits_Phase_5,152,9999,9999,9999,1942889556
7419,17,Jits_Phase_5,153,9999,9999,9999,1943389292
7419,17,Jits_Phase_5,154,9999,9999,9999,1943890016
7419,17,Jits_Phase_5,155,9999,9999,9999,1944389688
7419,17,Jits_Phase_5,156,9999,9999,9999,1944889428
7419,17,Jits_Phase_5,157,9999,9999,9999,1945389172
7419,17,Jits_Phase_5,158,9999,9999,9999,1945889896
7419,17,Jits_Phase_5,159,9999,9999,9999,1946389568
7419,17,Jits_Phase_5,160,9999,9999,9999,1946889320
7419,17,Jits_Phase_5,161,9999,9999,9999,1947390044
7419,17,Jits_Phase_5,162,9999,9999,9999,1947889720
7419,17,Jits_Phase_5,163,9999,9999,9999,1948389484
7419,17,Jits_Phase_5,164,9999,9999,9999,1948889160
7419,17,Jits_Phase_5,165,9999,9999,9999,1949389884
7419,17,Jits_Phase_5,166,9999,9999,9999,1949889608
7419,17,Jits_Phase_5,167,9999,9999,9999,1950389356
7419,17,Jits_Phase_5,168,9999,9999,9999,1950890080
7419,17,Jits_Phase_5,169,9999,9999,9999,1951389756
7420,3,ISIP_8,0,5,42,127,2026741044
7420,3,ISIP_8,1,5,42,127,2027540948
7420,3,ISIP_8,2,1,48,36,2028310968
7420,3,ISIP_8,3,5,42,127,2028340544
7420,3,ISIP_8,4,1,48,41,2029111528
7420,3,ISIP_8,5,5,42,127,2029141628
7420,3,ISIP_8,6,1,48,44,2029924872
7420,3,ISIP_8,7,5,42,127,2029940988
7420,3,ISIP_8,8,5,42,127,2030740776
7420,3,ISIP_8,9,1,48,44,2030781068
7420,3,ISIP_8,10,1,48,44,2031523564
7420,3,ISIP_8,11,5,42,127,2031540652
7420,3,ISIP_8,12,1,48,47,2032301684
7420,3,ISIP_8,13,5,42,127,2032341608
7420,3,ISIP_8,14,1,48,49,2033074640
7420,3,ISIP_8,15,5,42,127,2033140968
7420,3,ISIP_8,16,1,48,50,2033885688
7420,3,ISIP_8,17,5,42,127,2033940776
7420,3,ISIP_8,18,1,48,49,2034690736
7420,3,ISIP_8,19,5,42,127,2034740584
7420,3,ISIP_8,20,1,48,46,2035509320
7420,3,ISIP_8,21,5,42,127,2035541512
7420,3,ISIP_8,22,1,48,49,2036325056
7420,3,ISIP_8,23,5,42,127,2036341100
7420,3,ISIP_8,24,1,48,47,2037108112
7420,3,ISIP_8,25,5,42,127,2037140760
7420,3,ISIP_8,26,1,48,45,2037901416
7420,3,ISIP_8,27,5,42,127,2037940640
7420,3,ISIP_8,28,1,48,46,2038703836
7420,3,ISIP_8,29,5,42,127,2038741520
7420,3,ISIP_8,30,1,48,44,2039513916
7420,3,ISIP_8,31,5,42,127,2039541032
7420,3,ISIP_8,32,1,48,47,2040313204
7420,3,ISIP_8,33,5,42,127,2040340912
7420,3,ISIP_8,34,1,48,47,2041099624
7420,3,ISIP_8,35,5,42,127,2041140572
7420,3,ISIP_8,36,1,48,45,2041906464
7420,3,ISIP_8,37,5,42,127,2041941500
7420,3,ISIP_8,38,1,48,46,2042674104
7420,3,ISIP_8,39,5,42,127,2042741084
7420,3,ISIP_8,40,1,48,50,2043469952
7420,3,ISIP_8,41,5,42,127,2043540896
7420,3,ISIP_8,42,1,48,47,2044281280
7420,3,ISIP_8,43,5,42,127,2044340552
7420,3,ISIP_8,44,1,48,46,2045111680
7420,3,ISIP_8,45,5,42,127,2045141356
7420,3,ISIP_8,46,1,48,47,2045908960
7420,3,ISIP_8,47,5,42,127,2045941312
7420,3,ISIP_8,48,1,48,51,2046726124
7420,3,ISIP_8,49,5,42,127,2046740972
7420,3,ISIP_8,50,1,48,45,2047527508
7420,3,ISIP_8,51,5,42,127,2047540632
7420,3,ISIP_8,52,5,42,127,2048341344
7420,3,ISIP_8,53,1,48,53,2048344688
7420,3,ISIP_8,54,5,42,127,2049141300
7420,3,ISIP_8,55,1,48,43,2049158184
7420,3,ISIP_8,56,1,48,48,2049918776
7420,3,ISIP_8,57,5,42,127,2049940956
7420,3,ISIP_8,58,1,48,55,2050705348
7420,3,ISIP_8,59,1,48,53,2051521984
7420,3,ISIP_8,60,1,48,53,2052329212
7420,3,ISIP_8,61,1,48,52,2053139428
7420,3,ISIP_8,62,1,48,49,2053915884
7420,3,ISIP_8,63,1,48,53,2054742108
7420,3,ISIP_8,64,1,48,53,2055564500
7420,3,ISIP_8,65,1,48,54,2056324200
7420,3,ISIP_8,66,1,48,54,2057159944
7420,3,ISIP_8,67,1,48,48,2057977696
7420,3,ISIP_8,68,1,48,44,2058772340
7420,3,ISIP_8,69,1,48,44,2059574540
7420,3,ISIP_8,70,1,48,44,2060333268
7420,3,ISIP_8,71,1,48,46,2061123872
7420,3,ISIP_8,72,1,48,44,2061941636
7420,3,ISIP_8,73,1,48,46,2062743308
7420,3,ISIP_8,74,1,48,51,2063555080
7420,3,ISIP_8,75,1,48,46,2064402932
7420,3,ISIP_8,76,1,48,48,2065222712
7420,3,ISIP_8,77,1,48,44,2066001196
7420,3,ISIP_8,78,1,48,43,2066817228
7420,3,ISIP_8,79,1,48,43,2067655732
7420,3,ISIP_8,80,1,48,41,2068475352
7420,3,ISIP_8,81,1,48,46,2069296176
7420,3,ISIP_8,82,1,48,44,2070114080
7420,3,ISIP_8,83,1,48,50,2070975968
7420,3,ISIP_8,84,1,48,47,2071766820
7420,3,ISIP_8,85,1,48,45,2072573288
7420,3,ISIP_8,86,1,48,48,2073367252
7420,3,ISIP_8,87,1,48,49,2074140808
7420,3,ISIP_8,88,1,48,49,2074972548
7420,3,ISIP_8,89,1,48,43,2075799804
7420,3,ISIP_8,90,1,48,47,2076620796
7420,3,ISIP_8,91,1,48,40,2077431744
7420,3,ISIP_8,92,1,48,38,2078256008
7420,3,ISIP_8,93,1,48,49,2079056116
7420,3,ISIP_8,94,1,48,53,2079836768
7420,3,ISIP_8,95,1,48,49,2080661784
7420,3,ISIP_8,96,1,48,48,2081459112
7420,3,ISIP_8,97,1,48,48,2082193172
7420,3,ISIP_8,98,1,48,47,2082989460
7420,3,ISIP_8,99,1,48,47,2083797812
7420,3,ISIP_8,100,1,48,43,2084619388
7420,3,ISIP_8,101,1,48,35,2085394428
7420,3,ISIP_8,102,1,48,40,2086239936
7420,3,ISIP_8,103,1,48,34,2087066820
7420,3,ISIP_8,104,1,48,42,2087907412
7420,3,ISIP_8,105,1,48,40,2088721280
7420,3,ISIP_8,106,1,48,39,2089519888
7420,3,ISIP_8,107,1,48,49,2090324848
7420,3,ISIP_8,108,1,48,47,2091157568
7420,3,ISIP_8,109,1,48,34,2091964924
7420,3,ISIP_8,110,1,48,50,2092801556
7420,3,ISIP_8,111,1,48,45,2093633296
7420,3,ISIP_8,112,1,48,46,2094478948
7420,3,ISIP_8,113,1,48,50,2095273964
7420,3,ISIP_8,114,1,48,31,2096140296
7420,3,ISIP_8,115,1,48,37,2096981536
7420,3,ISIP_8,116,1,48,33,2097752764
7420,3,ISIP_8,117,1,48,51,2098588248
7420,3,ISIP_8,118,1,48,44,2099356408
7420,3,ISIP_8,119,1,48,46,2100168208
7420,3,ISIP_8,120,1,48,32,2101006008
7420,3,ISIP_8,121,1,48,27,2101812476
7420,3,ISIP_8,122,1,48,45,2102662468
7420,3,ISIP_8,123,1,48,43,2103510688
7420,3,ISIP_8,124,1,48,32,2104293960
7420,3,ISIP_8,125,1,48,32,2105117104
7420,3,ISIP_8,126,1,48,41,2105904340
7420,3,ISIP_8,127,1,48,46,2106757340
7420,3,ISIP_8,128,1,48,32,2107519136
7420,3,ISIP_8,129,1,48,32,2108310184
7420,3,ISIP_8,130,1,48,43,2109135668
7420,3,ISIP_8,131,1,48,40,2109970572
7420,3,ISIP_8,132,1,48,54,2110812784
7420,3,ISIP_8,133,1,48,56,2111619992
7420,3,ISIP_8,134,1,48,36,2112440592
7420,3,ISIP_8,135,1,48,55,2113214588
7420,3,ISIP_8,136,1,48,51,2114019052
7420,3,ISIP_8,137,1,48,50,2114818484
7420,3,ISIP_8,138,1,48,54,2115693012
7420,3,ISIP_8,139,1,48,52,2116479724
7420,3,ISIP_8,140,1,48,52,2117302348
7420,3,ISIP_8,141,1,48,52,2118099852
7420,3,ISIP_8,142,1,48,46,2118927484
7420,3,ISIP_8,143,1,48,48,2119733496
7420,3,ISIP_8,144,1,48,46,2120561948
7420,3,ISIP_8,145,1,48,50,2121352252
7420,3,ISIP_8,146,1,48,48,2122216104
7420,3,ISIP_8,147,1,48,44,2123027504
7420,3,ISIP_8,148,1,48,33,2123907488
7420,3,ISIP_8,149,1,48,43,2124709988
7420,3,ISIP_8,150,1,48,45,2125525668
7420,3,ISIP_8,151,1,48,46,2126358836
7420,3,ISIP_8,152,1,48,32,2127185340
7420,3,ISIP_8,153,1,48,54,2128001156
7420,3,ISIP_8,154,1,48,43,2128818832
7420,3,ISIP_8,155,1,48,48,2129613132
7420,3,ISIP_8,156,1,48,44,2130463048
7420,3,ISIP_8,157,1,48,41,2131300996
7420,3,ISIP_8,158,1,48,45,2132110000
7420,3,ISIP_8,159,1,48,51,2132919076
7420,3,ISIP_8,160,1,48,43,2133697336
7420,3,ISIP_8,161,1,48,51,2134496792
7420,3,ISIP_8,162,1,48,51,2135264288
7420,3,ISIP_8,163,1,48,48,2136099172
7420,3,ISIP_8,164,1,48,53,2136914752
7420,3,ISIP_8,165,1,48,56,2137789428
7420,3,ISIP_8,166,1,48,48,2138584400
7420,3,ISIP_8,167,1,48,54,2139375152
7420,3,ISIP_8,168,1,48,48,2140194776
7420,3,ISIP_8,169,1,48,54,2140940356
7420,3,ISIP_8,170,1,48,42,2141732456
7420,3,ISIP_8,171,1,48,54,2142511016
7420,3,ISIP_8,172,1,48,40,2143312092
7420,3,ISIP_8,173,1,48,46,2144106660
7420,3,ISIP_8,174,1,48,47,2144884396
7420,3,ISIP_8,175,1,48,42,2145738300
7420,3,ISIP_8,176,1,48,45,2146557332
7420,3,ISIP_8,0,9999,9999,9999,2026738752
7420,3,ISIP_8,1,9999,9999,9999,2027538508
7420,3,ISIP_8,2,9999,9999,9999,2028338256
7420,3,ISIP_8,3,9999,9999,9999,2029139040
7420,3,ISIP_8,4,9999,9999,9999,2029938772
7420,3,ISIP_8,5,9999,9999,9999,2030738488
7420,3,ISIP_8,6,9999,9999,9999,2031538288
7420,3,ISIP_8,7,9999,9999,9999,2032339020
7420,3,ISIP_8,8,9999,9999,9999,2033138752
7420,3,ISIP_8,9,9999,9999,9999,2033938488
7420,3,ISIP_8,10,9999,9999,9999,2034738296
7420,3,ISIP_8,11,9999,9999,9999,2035539000
7420,3,ISIP_8,12,9999,9999,9999,2036338808
7420,3,ISIP_8,13,9999,9999,9999,2037138544
7420,3,ISIP_8,14,9999,9999,9999,2037938276
7420,3,ISIP_8,15,9999,9999,9999,2038739008
7420,3,ISIP_8,16,9999,9999,9999,2039538740
7420,3,ISIP_8,17,9999,9999,9999,2040338548
7420,3,ISIP_8,18,9999,9999,9999,2041138284
7420,3,ISIP_8,19,9999,9999,9999,2041939064
7420,3,ISIP_8,20,9999,9999,9999,2042738796
7420,3,ISIP_8,21,9999,9999,9999,2043538528
7420,3,ISIP_8,22,9999,9999,9999,2044338264
7420,3,ISIP_8,23,9999,9999,9999,2045138992
7420,3,ISIP_8,24,9999,9999,9999,2045938800
7420,3,ISIP_8,25,9999,9999,9999,2046738536
7420,3,ISIP_8,26,9999,9999,9999,2047538268
7420,3,ISIP_8,27,9999,9999,9999,2048339052
7420,3,ISIP_8,28,9999,9999,9999,2049138788
7420,3,ISIP_8,29,9999,9999,9999,2049938516
7420,3,ISIP_8,30,9999,9999,9999,2050738248
7420,3,ISIP_8,31,9999,9999,9999,2051539048
7420,3,ISIP_8,32,9999,9999,9999,2052338780
7420,3,ISIP_8,33,9999,9999,9999,2053138516
7420,3,ISIP_8,34,9999,9999,9999,2053938236
7420,3,ISIP_8,35,9999,9999,9999,2054739020
7420,3,ISIP_8,36,9999,9999,9999,2055538752
7420,3,ISIP_8,37,9999,9999,9999,2056338548
7420,3,ISIP_8,38,9999,9999,9999,2057138284
7420,3,ISIP_8,39,9999,9999,9999,2057939008
7420,3,ISIP_8,40,9999,9999,9999,2058738740
7420,3,ISIP_8,41,9999,9999,9999,2059538544
7420,3,ISIP_8,42,9999,9999,9999,2060338264
7420,3,ISIP_8,43,9999,9999,9999,2061139040
7420,3,ISIP_8,44,9999,9999,9999,2061938776
7420,3,ISIP_8,45,9999,9999,9999,2062738504
7420,3,ISIP_8,46,9999,9999,9999,2063538236
7420,3,ISIP_8,47,9999,9999,9999,2064339036
7420,3,ISIP_8,48,9999,9999,9999,2065138764
7420,3,ISIP_8,49,9999,9999,9999,2065938496
7420,3,ISIP_8,50,9999,9999,9999,2066738224
7420,3,ISIP_8,51,9999,9999,9999,2067539000
7420,3,ISIP_8,52,9999,9999,9999,2068338804
7420,3,ISIP_8,53,9999,9999,9999,2069138532
7420,3,ISIP_8,54,9999,9999,9999,2069938264
7420,3,ISIP_8,55,9999,9999,9999,2070738992
7420,3,ISIP_8,56,9999,9999,9999,2071538796
7420,3,ISIP_8,57,9999,9999,9999,2072338528
7420,3,ISIP_8,58,9999,9999,9999,2073138256
7420,3,ISIP_8,59,9999,9999,9999,2073939032
7420,3,ISIP_8,60,9999,9999,9999,2074738760
7420,3,ISIP_8,61,9999,9999,9999,2075538488
7420,3,ISIP_8,62,9999,9999,9999,2076338292
7420,3,ISIP_8,63,9999,9999,9999,2077139020
7420,3,ISIP_8,64,9999,9999,9999,2077938748
7420,3,ISIP_8,65,9999,9999,9999,2078738552
7420,3,ISIP_8,66,9999,9999,9999,2079538284
7420,3,ISIP_8,67,9999,9999,9999,2080339060
7420,3,ISIP_8,68,9999,9999,9999,2081138788
7420,3,ISIP_8,69,9999,9999,9999,2081938516
7420,3,ISIP_8,70,9999,9999,9999,2082738244
7420,3,ISIP_8,71,9999,9999,9999,2083539048
7420,3,ISIP_8,72,9999,9999,9999,2084338776
7420,3,ISIP_8,73,9999,9999,9999,2085138504
7420,3,ISIP_8,74,9999,9999,9999,2085938232
7420,3,ISIP_8,75,9999,9999,9999,2086739012
7420,3,ISIP_8,76,9999,9999,9999,2087538740
7420,3,ISIP_8,77,9999,9999,9999,2088338544
7420,3,ISIP_8,78,9999,9999,9999,2089138276
7420,3,ISIP_8,79,9999,9999,9999,2089939000
7420,3,ISIP_8,80,9999,9999,9999,2090738804
7420,3,ISIP_8,81,9999,9999,9999,2091538536
7420,3,ISIP_8,82,9999,9999,9999,2092338264
7420,3,ISIP_8,83,9999,9999,9999,2093139040
7420,3,ISIP_8,84,9999,9999,9999,2093938768
7420,3,ISIP_8,85,9999,9999,9999,2094738496
7420,3,ISIP_8,86,9999,9999,9999,2095538228
7420,3,ISIP_8,87,9999,9999,9999,2096339028
7420,3,ISIP_8,88,9999,9999,9999,2097138756
7420,3,ISIP_8,89,9999,9999,9999,2097938488
7420,3,ISIP_8,90,9999,9999,9999,2098738292
7420,3,ISIP_8,91,9999,9999,9999,2099538992
7420,3,ISIP_8,92,9999,9999,9999,2100338796
7420,3,ISIP_8,93,9999,9999,9999,2101138524
7420,3,ISIP_8,94,9999,9999,9999,2101938256
7420,3,ISIP_8,95,9999,9999,9999,2102738996
7420,3,ISIP_8,96,9999,9999,9999,2103538800
7420,3,ISIP_8,97,9999,9999,9999,2104338528
7420,3,ISIP_8,98,9999,9999,9999,2105138260
7420,3,ISIP_8,99,9999,9999,9999,2105939036
7420,3,ISIP_8,100,9999,9999,9999,2106738772
7420,3,ISIP_8,101,9999,9999,9999,2107538496
7420,3,ISIP_8,102,9999,9999,9999,2108338224
7420,3,ISIP_8,103,9999,9999,9999,2109139024
7420,3,ISIP_8,104,9999,9999,9999,2109938760
7420,3,ISIP_8,105,9999,9999,9999,2110738488
7420,3,ISIP_8,106,9999,9999,9999,2111538296
7420,3,ISIP_8,107,9999,9999,9999,2112338996
7420,3,ISIP_8,108,9999,9999,9999,2113138800
7420,3,ISIP_8,109,9999,9999,9999,2113938528
7420,3,ISIP_8,110,9999,9999,9999,2114738256
7420,3,ISIP_8,111,9999,9999,9999,2115539060
7420,3,ISIP_8,112,9999,9999,9999,2116338788
7420,3,ISIP_8,113,9999,9999,9999,2117138520
7420,3,ISIP_8,114,9999,9999,9999,2117938248
7420,3,ISIP_8,115,9999,9999,9999,2118739024
7420,3,ISIP_8,116,9999,9999,9999,2119538752
7420,3,ISIP_8,117,9999,9999,9999,2120338480
7420,3,ISIP_8,118,9999,9999,9999,2121138284
7420,3,ISIP_8,119,9999,9999,9999,2121939008
7420,3,ISIP_8,120,9999,9999,9999,2122738740
7420,3,ISIP_8,121,9999,9999,9999,2123538544
7420,3,ISIP_8,122,9999,9999,9999,2124338272
7420,3,ISIP_8,123,9999,9999,9999,2125139048
7420,3,ISIP_8,124,9999,9999,9999,2125938776
7420,3,ISIP_8,125,9999,9999,9999,2126738504
7420,3,ISIP_8,126,9999,9999,9999,2127538236
7420,3,ISIP_8,127,9999,9999,9999,2128339036
7420,3,ISIP_8,128,9999,9999,9999,2129138768
7420,3,ISIP_8,129,9999,9999,9999,2129938496
7420,3,ISIP_8,130,9999,9999,9999,2130738224
7420,3,ISIP_8,131,9999,9999,9999,2131539000
7420,3,ISIP_8,132,9999,9999,9999,2132338804
7420,3,ISIP_8,133,9999,9999,9999,2133138532
7420,3,ISIP_8,134,9999,9999,9999,2133938260
7420,3,ISIP_8,135,9999,9999,9999,2134739060
7420,3,ISIP_8,136,9999,9999,9999,2135538792
7420,3,ISIP_8,137,9999,9999,9999,2136338520
7420,3,ISIP_8,138,9999,9999,9999,2137138252
7420,3,ISIP_8,139,9999,9999,9999,2137939024
7420,3,ISIP_8,140,9999,9999,9999,2138738756
7420,3,ISIP_8,141,9999,9999,9999,2139538484
7420,3,ISIP_8,142,9999,9999,9999,2140338288
7420,3,ISIP_8,143,9999,9999,9999,2141139016
7420,3,ISIP_8,144,9999,9999,9999,2141938744
7420,3,ISIP_8,145,9999,9999,9999,2142738548
7420,3,ISIP_8,146,9999,9999,9999,2143538276
7420,3,ISIP_8,147,9999,9999,9999,2144339052
7420,3,ISIP_8,148,9999,9999,9999,2145138780
7420,3,ISIP_8,149,9999,9999,9999,2145938512
7421,5,ISIP_5,0,5,42,127,2171834692
7421,5,ISIP_5,1,5,42,127,2172334556
7421,5,ISIP_5,2,1,48,28,2172801252
7421,5,ISIP_5,3,5,42,127,2172835092
7421,5,ISIP_5,4,1,48,51,2173305956
7421,5,ISIP_5,5,5,42,127,2173334860
7421,5,ISIP_5,6,1,48,54,2173810508
7421,5,ISIP_5,7,5,42,127,2173834480
7421,5,ISIP_5,8,1,48,58,2174325764
7421,5,ISIP_5,9,5,42,127,2174335592
7421,5,ISIP_5,10,5,42,127,2174835000
7421,5,ISIP_5,11,1,48,57,2174850388
7421,5,ISIP_5,12,1,48,56,2175323056
7421,5,ISIP_5,13,5,42,127,2175334760
7421,5,ISIP_5,14,5,42,127,2175834608
7421,5,ISIP_5,15,1,48,58,2175846180
7421,5,ISIP_5,16,5,42,127,2176335104
7421,5,ISIP_5,17,1,48,53,2176344508
7421,5,ISIP_5,18,5,42,127,2176834872
7421,5,ISIP_5,19,1,48,58,2176857736
7421,5,ISIP_5,20,1,48,50,2177327940
7421,5,ISIP_5,21,5,42,127,2177334560
7421,5,ISIP_5,22,1,48,46,2177829580
7421,5,ISIP_5,23,5,42,127,2177835600
7421,5,ISIP_5,24,5,42,127,2178335152
7421,5,ISIP_5,25,1,48,54,2178337824
7421,5,ISIP_5,26,5,42,127,2178834772
7421,5,ISIP_5,27,1,48,52,2178854348
7421,5,ISIP_5,28,5,42,127,2179334544
7421,5,ISIP_5,29,1,48,54,2179357932
7421,5,ISIP_5,30,5,42,127,2179835508
7421,5,ISIP_5,31,1,48,25,2179861440
7421,5,ISIP_5,32,5,42,127,2180334904
7421,5,ISIP_5,33,1,48,62,2180349244
7421,5,ISIP_5,34,5,42,127,2180834600
7421,5,ISIP_5,35,1,48,39,2180839440
7421,5,ISIP_5,36,5,42,127,2181335564
7421,5,ISIP_5,37,1,48,46,2181345492
7421,5,ISIP_5,38,1,48,43,2181810212
7421,5,ISIP_5,39,5,42,127,2181835324
7421,5,ISIP_5,40,1,48,51,2182305044
7421,5,ISIP_5,41,5,42,127,2182334772
7421,5,ISIP_5,42,1,48,48,2182826704
7421,5,ISIP_5,43,5,42,127,2182834520
7421,5,ISIP_5,44,5,42,127,2183335564
7421,5,ISIP_5,45,1,48,45,2183339804
7421,5,ISIP_5,46,5,42,127,2183835112
7421,5,ISIP_5,47,1,48,53,2183839804
7421,5,ISIP_5,48,1,48,48,2184331776
7421,5,ISIP_5,49,5,42,127,2184334724
7421,5,ISIP_5,50,5,42,127,2184834576
7421,5,ISIP_5,51,1,48,28,2184835912
7421,5,ISIP_5,52,1,48,42,2185321892
7421,5,ISIP_5,53,5,42,127,2185335236
7421,5,ISIP_5,54,1,48,43,2185817616
7421,5,ISIP_5,55,5,42,127,2185834780
7421,5,ISIP_5,56,1,48,13,2186320380
7421,5,ISIP_5,57,5,42,127,2186334628
7421,5,ISIP_5,58,1,48,16,2186825764
7421,5,ISIP_5,59,5,42,127,2186835292
7421,5,ISIP_5,60,1,48,56,2187320892
7421,5,ISIP_5,61,5,42,127,2187335064
7421,5,ISIP_5,62,1,48,50,2187835060
7421,5,ISIP_5,63,5,42,127,2187836248
7421,5,ISIP_5,64,1,48,51,2188332716
7421,5,ISIP_5,65,5,42,127,2188334452
7421,5,ISIP_5,66,1,48,51,2188813620
7421,5,ISIP_5,67,5,42,127,2188835344
7421,5,ISIP_5,68,1,48,55,2189313540
7421,5,ISIP_5,69,5,42,127,2189334892
7421,5,ISIP_5,70,1,48,39,2189826100
7421,5,ISIP_5,71,5,42,127,2189834660
7421,5,ISIP_5,72,5,42,127,2190335332
7421,5,ISIP_5,73,1,48,50,2190337776
7421,5,ISIP_5,74,5,42,127,2190835176
7421,5,ISIP_5,75,1,48,44,2190838372
7421,5,ISIP_5,76,5,42,127,2191334648
7421,5,ISIP_5,77,1,48,52,2191335616
7421,5,ISIP_5,78,1,48,52,2191856156
7421,5,ISIP_5,79,1,48,15,2192382924
7421,5,ISIP_5,80,1,48,51,2192886128
7421,5,ISIP_5,81,1,48,47,2193386044
7421,5,ISIP_5,82,1,48,59,2193869724
7421,5,ISIP_5,83,1,48,57,2194394256
7421,5,ISIP_5,84,1,48,59,2194874768
7421,5,ISIP_5,85,1,48,56,2195349400
7421,5,ISIP_5,86,1,48,55,2195868536
7421,5,ISIP_5,87,1,48,48,2196343472
7421,5,ISIP_5,88,1,48,52,2196847876
7421,5,ISIP_5,89,1,48,54,2197344276
7421,5,ISIP_5,90,1,48,55,2197830632
7421,5,ISIP_5,91,1,48,53,2198335576
7421,5,ISIP_5,92,1,48,55,2198828596
7421,5,ISIP_5,93,1,48,59,2199338468
7421,5,ISIP_5,94,1,48,54,2199833976
7421,5,ISIP_5,95,1,48,57,2200342568
7421,5,ISIP_5,96,1,48,52,2200849060
7421,5,ISIP_5,97,1,48,57,2201359600
7421,5,ISIP_5,98,1,48,53,2201846420
7421,5,ISIP_5,99,1,48,46,2202364440
7421,5,ISIP_5,100,1,48,56,2202887764
7421,5,ISIP_5,101,1,48,50,2203395384
7421,5,ISIP_5,102,1,48,51,2203887968
7421,5,ISIP_5,103,1,48,50,2204404120
7421,5,ISIP_5,104,1,48,51,2204906420
7421,5,ISIP_5,105,1,48,44,2205406188
7421,5,ISIP_5,106,1,48,51,2205916876
7421,5,ISIP_5,107,1,48,48,2206434744
7421,5,ISIP_5,108,1,48,52,2206902624
7421,5,ISIP_5,109,1,48,57,2207404028
7421,5,ISIP_5,110,1,48,55,2207910380
7421,5,ISIP_5,111,1,48,50,2208398172
7421,5,ISIP_5,112,1,48,55,2208927036
7421,5,ISIP_5,113,1,48,59,2209426352
7421,5,ISIP_5,114,1,48,55,2209927012
7421,5,ISIP_5,115,1,48,51,2210410852
7421,5,ISIP_5,116,1,48,55,2210936788
7421,5,ISIP_5,117,1,48,54,2211420252
7421,5,ISIP_5,118,1,48,57,2211919564
7421,5,ISIP_5,119,1,48,55,2212433172
7421,5,ISIP_5,120,1,48,59,2212912664
7421,5,ISIP_5,121,1,48,57,2213411164
7421,5,ISIP_5,122,1,48,55,2213937552
7421,5,ISIP_5,123,1,48,53,2214432160
7421,5,ISIP_5,124,1,48,56,2214938884
7421,5,ISIP_5,125,1,48,57,2215443132
7421,5,ISIP_5,126,1,48,51,2215946040
7421,5,ISIP_5,127,1,48,56,2216429804
7421,5,ISIP_5,128,1,48,59,2216928140
7421,5,ISIP_5,129,1,48,57,2217443020
7421,5,ISIP_5,130,1,48,59,2217945700
7421,5,ISIP_5,131,1,48,60,2218453100
7421,5,ISIP_5,132,1,48,56,2218979420
7421,5,ISIP_5,133,1,48,57,2219474544
7421,5,ISIP_5,134,1,48,55,2219977752
7421,5,ISIP_5,135,1,48,53,2220509232
7421,5,ISIP_5,136,1,48,51,2221026048
7421,5,ISIP_5,137,1,48,59,2221541824
7421,5,ISIP_5,138,1,48,56,2222034632
7421,5,ISIP_5,139,1,48,57,2222558408
7421,5,ISIP_5,140,1,48,53,2223047400
7421,5,ISIP_5,141,1,48,52,2223535848
7421,5,ISIP_5,142,1,48,58,2224053716
7421,5,ISIP_5,143,1,48,59,2224570908
7421,5,ISIP_5,144,1,48,42,2225077332
7421,5,ISIP_5,145,1,48,54,2225602780
7421,5,ISIP_5,146,1,48,51,2226131416
7421,5,ISIP_5,147,1,48,51,2226590092
7421,5,ISIP_5,148,1,48,54,2227073104
7421,5,ISIP_5,149,1,48,48,2227556488
7421,5,ISIP_5,150,1,48,50,2228058940
7421,5,ISIP_5,151,1,48,52,2228545096
7421,5,ISIP_5,152,1,48,58,2229031768
7421,5,ISIP_5,153,1,48,57,2229521740
7421,5,ISIP_5,154,1,48,54,2230023000
7421,5,ISIP_5,155,1,48,49,2230532936
7421,5,ISIP_5,156,1,48,50,2231028064
7421,5,ISIP_5,157,1,48,41,2231504864
7421,5,ISIP_5,158,1,48,45,2232003888
7421,5,ISIP_5,159,1,48,47,2232490164
7421,5,ISIP_5,160,1,48,48,2233012668
7421,5,ISIP_5,161,1,48,47,2233501964
7421,5,ISIP_5,162,1,48,46,2234017360
7421,5,ISIP_5,163,1,48,42,2234510692
7421,5,ISIP_5,164,1,48,42,2235038576
7421,5,ISIP_5,165,1,48,48,2235501920
7421,5,ISIP_5,166,1,48,52,2235986952
7421,5,ISIP_5,167,1,48,41,2236495244
7421,5,ISIP_5,168,1,48,45,2236980648
7421,5,ISIP_5,169,1,48,35,2237478688
7421,5,ISIP_5,170,1,48,42,2237979576
7421,5,ISIP_5,171,1,48,46,2238502308
7421,5,ISIP_5,172,1,48,45,2238990928
7421,5,ISIP_5,173,1,48,44,2239488892
7421,5,ISIP_5,174,1,48,43,2239994272
7421,5,ISIP_5,175,1,48,37,2240513560
7421,5,ISIP_5,176,1,48,46,2240968896
7421,5,ISIP_5,177,1,48,46,2241482948
7421,5,ISIP_5,178,1,48,34,2241980072
7421,5,ISIP_5,179,1,48,36,2242489636
7421,5,ISIP_5,180,1,48,28,2242975560
7421,5,ISIP_5,181,1,48,39,2243486692
7421,5,ISIP_5,182,1,48,38,2243979284
7421,5,ISIP_5,183,1,48,34,2244462368
7421,5,ISIP_5,184,1,48,43,2244958244
7421,5,ISIP_5,185,1,48,37,2245468928
7421,5,ISIP_5,186,1,48,44,2245970340
7421,5,ISIP_5,187,1,48,37,2246481848
7421,5,ISIP_5,188,1,48,30,2246954836
7421,5,ISIP_5,189,1,48,32,2247441440
7421,5,ISIP_5,190,1,48,42,2247943968
7421,5,ISIP_5,191,1,48,27,2248472760
7421,5,ISIP_5,192,1,48,37,2248960332
7421,5,ISIP_5,193,1,48,23,2249455456
7421,5,ISIP_5,194,1,48,29,2249937792
7421,5,ISIP_5,195,1,48,42,2250428332
7421,5,ISIP_5,196,1,48,47,2250874320
7421,5,ISIP_5,197,1,48,14,2251388744
7421,5,ISIP_5,198,1,48,28,2251824248
7421,5,ISIP_5,0,9999,9999,9999,2171832404
7421,5,ISIP_5,1,9999,9999,9999,2172332120
7421,5,ISIP_5,2,9999,9999,9999,2172832880
7421,5,ISIP_5,3,9999,9999,9999,2173332572
7421,5,ISIP_5,4,9999,9999,9999,2173832268
7421,5,ISIP_5,5,9999,9999,9999,2174333012
7421,5,ISIP_5,6,9999,9999,9999,2174832712
7421,5,ISIP_5,7,9999,9999,9999,2175332472
7421,5,ISIP_5,8,9999,9999,9999,2175832176
7421,5,ISIP_5,9,9999,9999,9999,2176332888
7421,5,ISIP_5,10,9999,9999,9999,2176832584
7421,5,ISIP_5,11,9999,9999,9999,2177332276
7421,5,ISIP_5,12,9999,9999,9999,2177833016
7421,5,ISIP_5,13,9999,9999,9999,2178332792
7421,5,ISIP_5,14,9999,9999,9999,2178832488
7421,5,ISIP_5,15,9999,9999,9999,2179332180
7421,5,ISIP_5,16,9999,9999,9999,2179832924
7421,5,ISIP_5,17,9999,9999,9999,2180332616
7421,5,ISIP_5,18,9999,9999,9999,2180832312
7421,5,ISIP_5,19,9999,9999,9999,2181333056
7421,5,ISIP_5,20,9999,9999,9999,2181832816
7421,5,ISIP_5,21,9999,9999,9999,2182332488
7421,5,ISIP_5,22,9999,9999,9999,2182832232
7421,5,ISIP_5,23,9999,9999,9999,2183332980
7421,5,ISIP_5,24,9999,9999,9999,2183832676
7421,5,ISIP_5,25,9999,9999,9999,2184332364
7421,5,ISIP_5,26,9999,9999,9999,2184832068
7421,5,ISIP_5,27,9999,9999,9999,2185332800
7421,5,ISIP_5,28,9999,9999,9999,2185832496
7421,5,ISIP_5,29,9999,9999,9999,2186332264
7421,5,ISIP_5,30,9999,9999,9999,2186833008
7421,5,ISIP_5,31,9999,9999,9999,2187332700
7421,5,ISIP_5,32,9999,9999,9999,2187832404
7421,5,ISIP_5,33,9999,9999,9999,2188332116
7421,5,ISIP_5,34,9999,9999,9999,2188832832
7421,5,ISIP_5,35,9999,9999,9999,2189332532
7421,5,ISIP_5,36,9999,9999,9999,2189832300
7421,5,ISIP_5,37,9999,9999,9999,2190333048
7421,5,ISIP_5,38,9999,9999,9999,2190832744
7421,5,ISIP_5,39,9999,9999,9999,2191332436
7421,5,ISIP_5,40,9999,9999,9999,2191832132
7421,5,ISIP_5,41,9999,9999,9999,2192332868
7421,5,ISIP_5,42,9999,9999,9999,2192832632
7421,5,ISIP_5,43,9999,9999,9999,2193332300
7421,5,ISIP_5,44,9999,9999,9999,2193833036
7421,5,ISIP_5,45,9999,9999,9999,2194332728
7421,5,ISIP_5,46,9999,9999,9999,2194832492
7421,5,ISIP_5,47,9999,9999,9999,2195332184
7421,5,ISIP_5,48,9999,9999,9999,2195832920
7421,5,ISIP_5,49,9999,9999,9999,2196332608
7421,5,ISIP_5,50,9999,9999,9999,2196832376
7421,5,ISIP_5,51,9999,9999,9999,2197333112
7421,5,ISIP_5,52,9999,9999,9999,2197832796
7421,5,ISIP_5,53,9999,9999,9999,2198332492
7421,5,ISIP_5,54,9999,9999,9999,2198832176
7421,5,ISIP_5,55,9999,9999,9999,2199332920
7421,5,ISIP_5,56,9999,9999,9999,2199832688
7421,5,ISIP_5,57,9999,9999,9999,2200332376
7421,5,ISIP_5,58,9999,9999,9999,2200832068
7421,5,ISIP_5,59,9999,9999,9999,2201332804
7421,5,ISIP_5,60,9999,9999,9999,2201832568
7421,5,ISIP_5,61,9999,9999,9999,2202332260
7421,5,ISIP_5,62,9999,9999,9999,2202833000
7421,5,ISIP_5,63,9999,9999,9999,2203332688
7421,5,ISIP_5,64,9999,9999,9999,2203832428
7421,5,ISIP_5,65,9999,9999,9999,2204332120
7421,5,ISIP_5,66,9999,9999,9999,2204832860
7421,5,ISIP_5,67,9999,9999,9999,2205332548
7421,5,ISIP_5,68,9999,9999,9999,2205832240
7421,5,ISIP_5,69,9999,9999,9999,2206332980
7421,5,ISIP_5,70,9999,9999,9999,2206832744
7421,5,ISIP_5,71,9999,9999,9999,2207332436
7421,5,ISIP_5,72,9999,9999,9999,2207832124
7421,5,ISIP_5,73,9999,9999,9999,2208332860
7421,5,ISIP_5,74,9999,9999,9999,2208832628
7421,5,ISIP_5,75,9999,9999,9999,2209332316
7421,5,ISIP_5,76,9999,9999,9999,2209833052
7421,5,ISIP_5,77,9999,9999,9999,2210332744
7421,5,ISIP_5,78,9999,9999,9999,2210832436
7421,5,ISIP_5,79,9999,9999,9999,2211332200
7421,5,ISIP_5,80,9999,9999,9999,2211832936
7421,5,ISIP_5,81,9999,9999,9999,2212332624
7421,5,ISIP_5,82,9999,9999,9999,2212832316
7421,5,ISIP_5,83,9999,9999,9999,2213333056
7421,5,ISIP_5,84,9999,9999,9999,2213832820
7421,5,ISIP_5,85,9999,9999,9999,2214332488
7421,5,ISIP_5,86,9999,9999,9999,2214832180
7421,5,ISIP_5,87,9999,9999,9999,2215332916
7421,5,ISIP_5,88,9999,9999,9999,2215832680
7421,5,ISIP_5,89,9999,9999,9999,2216332372
7421,5,ISIP_5,90,9999,9999,9999,2216832064
7421,5,ISIP_5,91,9999,9999,9999,2217332800
7421,5,ISIP_5,92,9999,9999,9999,2217832568
7421,5,ISIP_5,93,9999,9999,9999,2218332256
7421,5,ISIP_5,94,9999,9999,9999,2218832996
7421,5,ISIP_5,95,9999,9999,9999,2219332688
7421,5,ISIP_5,96,9999,9999,9999,2219832376
7421,5,ISIP_5,97,9999,9999,9999,2220332144
7421,5,ISIP_5,98,9999,9999,9999,2220832880
7421,5,ISIP_5,99,9999,9999,9999,2221332572
7421,5,ISIP_5,100,9999,9999,9999,2221832264
7421,5,ISIP_5,101,9999,9999,9999,2222333000
7421,5,ISIP_5,102,9999,9999,9999,2222832692
7421,5,ISIP_5,103,9999,9999,9999,2223332460
7421,5,ISIP_5,104,9999,9999,9999,2223832148
7421,5,ISIP_5,105,9999,9999,9999,2224332884
7421,5,ISIP_5,106,9999,9999,9999,2224832576
7421,5,ISIP_5,107,9999,9999,9999,2225332316
7421,5,ISIP_5,108,9999,9999,9999,2225833052
7421,5,ISIP_5,109,9999,9999,9999,2226332744
7421,5,ISIP_5,110,9999,9999,9999,2226832436
7421,5,ISIP_5,111,9999,9999,9999,2227332200
7421,5,ISIP_5,112,9999,9999,9999,2227832940
7421,5,ISIP_5,113,9999,9999,9999,2228332628
7421,5,ISIP_5,114,9999,9999,9999,2228832320
7421,5,ISIP_5,115,9999,9999,9999,2229333056
7421,5,ISIP_5,116,9999,9999,9999,2229832824
7421,5,ISIP_5,117,9999,9999,9999,2230332512
7421,5,ISIP_5,118,9999,9999,9999,2230832204
7421,5,ISIP_5,119,9999,9999,9999,2231332944
7421,5,ISIP_5,120,9999,9999,9999,2231832632
7421,5,ISIP_5,121,9999,9999,9999,2232332396
7421,5,ISIP_5,122,9999,9999,9999,2232832092
7421,5,ISIP_5,123,9999,9999,9999,2233332828
7421,5,ISIP_5,124,9999,9999,9999,2233832520
7421,5,ISIP_5,125,9999,9999,9999,2234332208
7421,5,ISIP_5,126,9999,9999,9999,2234832944
7421,5,ISIP_5,127,9999,9999,9999,2235332712
7421,5,ISIP_5,128,9999,9999,9999,2235832376
7421,5,ISIP_5,129,9999,9999,9999,2236332140
7421,5,ISIP_5,130,9999,9999,9999,2236832880
7421,5,ISIP_5,131,9999,9999,9999,2237332572
7421,5,ISIP_5,132,9999,9999,9999,2237832260
7421,5,ISIP_5,133,9999,9999,9999,2238332996
7421,5,ISIP_5,134,9999,9999,9999,2238832688
7421,5,ISIP_5,135,9999,9999,9999,2239332452
7421,5,ISIP_5,136,9999,9999,9999,2239832144
7421,5,ISIP_5,137,9999,9999,9999,2240332880
7421,5,ISIP_5,138,9999,9999,9999,2240832572
7421,5,ISIP_5,139,9999,9999,9999,2241332336
7421,5,ISIP_5,140,9999,9999,9999,2241833076
7421,5,ISIP_5,141,9999,9999,9999,2242332768
7421,5,ISIP_5,142,9999,9999,9999,2242832460
7421,5,ISIP_5,143,9999,9999,9999,2243332148
7421,5,ISIP_5,144,9999,9999,9999,2243832888
7421,5,ISIP_5,145,9999,9999,9999,2244332652
7421,5,ISIP_5,146,9999,9999,9999,2244832344
7421,5,ISIP_5,147,9999,9999,9999,2245333080
7421,5,ISIP_5,148,9999,9999,9999,2245832772
7421,5,ISIP_5,149,9999,9999,9999,2246332512
7421,5,ISIP_5,150,9999,9999,9999,2246832204
7421,5,ISIP_5,151,9999,9999,9999,2247332940
7421,5,ISIP_5,152,9999,9999,9999,2247832632
7421,5,ISIP_5,153,9999,9999,9999,2248332396
7421,5,ISIP_5,154,9999,9999,9999,2248832088
7421,5,ISIP_5,155,9999,9999,9999,2249332824
7421,5,ISIP_5,156,9999,9999,9999,2249832516
7421,5,ISIP_5,157,9999,9999,9999,2250332280
7421,5,ISIP_5,158,9999,9999,9999,2250833016
7421,5,ISIP_5,159,9999,9999,9999,2251332708
7422,11,Pattern_Practice,0,5,42,127,2365311548
7422,11,Pattern_Practice,1,5,42,127,2365811040
7422,11,Pattern_Practice,2,5,42,127,2366310756
7422,11,Pattern_Practice,3,5,42,127,2366810624
7422,11,Pattern_Practice,4,5,42,127,2367311384
7422,11,Pattern_Practice,5,5,42,127,2367811028
7422,11,Pattern_Practice,6,5,42,127,2368310596
7422,11,Pattern_Practice,7,5,42,127,2368811284
7422,11,Pattern_Practice,8,5,42,127,2369311224
7422,11,Pattern_Practice,9,1,48,18,2369329148
7422,11,Pattern_Practice,10,1,48,19,2369585932
7422,11,Pattern_Practice,11,1,48,26,2369722820
7422,11,Pattern_Practice,12,5,42,127,2369810816
7422,11,Pattern_Practice,13,1,48,35,2369816012
7422,11,Pattern_Practice,14,1,48,21,2370105408
7422,11,Pattern_Practice,15,5,42,127,2370310548
7422,11,Pattern_Practice,16,1,48,54,2370348520
7422,11,Pattern_Practice,17,1,48,16,2370600144
7422,11,Pattern_Practice,18,5,42,127,2370811340
7422,11,Pattern_Practice,19,1,48,52,2370867188
7422,11,Pattern_Practice,20,5,42,127,2371310888
7422,11,Pattern_Practice,21,1,48,21,2371391796
7422,11,Pattern_Practice,22,1,48,20,2371656504
7422,11,Pattern_Practice,23,1,48,57,2371802292
7422,11,Pattern_Practice,24,5,42,127,2371810776
7422,11,Pattern_Practice,25,1,48,21,2371915080
7422,11,Pattern_Practice,26,1,48,48,2372190640
7422,11,Pattern_Practice,27,5,42,127,2372311480
7422,11,Pattern_Practice,28,1,48,17,2372450056
7422,11,Pattern_Practice,29,1,48,48,2372685076
7422,11,Pattern_Practice,30,5,42,127,2372811228
7422,11,Pattern_Practice,31,1,48,17,2372946436
7422,11,Pattern_Practice,32,5,42,127,2373310848
7422,11,Pattern_Practice,33,1,48,61,2373401552
7422,11,Pattern_Practice,34,1,48,23,2373644796
7422,11,Pattern_Practice,35,1,48,62,2373790704
7422,11,Pattern_Practice,36,5,42,127,2373810488
7422,11,Pattern_Practice,37,1,48,24,2373907408
7422,11,Pattern_Practice,38,1,48,51,2374183344
7422,11,Pattern_Practice,39,5,42,127,2374311268
7422,11,Pattern_Practice,40,1,48,15,2374438792
7422,11,Pattern_Practice,41,1,48,46,2374673288
7422,11,Pattern_Practice,42,5,42,127,2374810864
7422,11,Pattern_Practice,43,1,48,15,2374916704
7422,11,Pattern_Practice,44,1,48,24,2374921168
7422,11,Pattern_Practice,45,5,42,127,2375310836
7422,11,Pattern_Practice,46,1,48,55,2375333180
7422,11,Pattern_Practice,47,1,48,17,2375618256
7422,11,Pattern_Practice,48,1,48,63,2375743748
7422,11,Pattern_Practice,49,5,42,127,2375810428
7422,11,Pattern_Practice,50,1,48,26,2375854148
7422,11,Pattern_Practice,51,1,48,28,2376087964
7422,11,Pattern_Practice,52,5,42,127,2376311352
7422,11,Pattern_Practice,53,1,48,45,2376338856
7422,11,Pattern_Practice,54,1,48,17,2376570284
7422,11,Pattern_Practice,55,1,48,28,2376574748
7422,11,Pattern_Practice,56,5,42,127,2376810856
7422,11,Pattern_Practice,57,1,48,21,2376832452
7422,11,Pattern_Practice,58,5,42,127,2377310476
7422,11,Pattern_Practice,59,1,38,26,2377332144
7422,11,Pattern_Practice,60,5,42,127,2377811440
7422,11,Pattern_Practice,61,1,38,24,2377822036
7422,11,Pattern_Practice,62,5,42,127,2378311208
7422,11,Pattern_Practice,63,1,38,27,2378324276
7422,11,Pattern_Practice,64,1,48,13,2378332484
7422,11,Pattern_Practice,65,5,42,127,2378810720
7422,11,Pattern_Practice,66,1,38,27,2378845628
7422,11,Pattern_Practice,67,5,42,127,2379310488
7422,11,Pattern_Practice,68,1,38,18,2379316376
7422,11,Pattern_Practice,69,5,42,127,2379811304
7422,11,Pattern_Practice,70,1,38,26,2379822800
7422,11,Pattern_Practice,71,5,42,127,2380311148
7422,11,Pattern_Practice,72,1,38,17,2380319500
7422,11,Pattern_Practice,73,5,42,127,2380810548
7422,11,Pattern_Practice,74,1,38,40,2380838492
7422,11,Pattern_Practice,75,1,48,16,2380850372
7422,11,Pattern_Practice,76,5,42,127,2381311240
7422,11,Pattern_Practice,77,1,48,36,2381358192
7422,11,Pattern_Practice,78,1,38,13,2381369988
7422,11,Pattern_Practice,79,1,48,57,2381574756
7422,11,Pattern_Practice,80,1,48,22,2381742656
7422,11,Pattern_Practice,81,5,42,127,2381811156
7422,11,Pattern_Practice,82,1,48,47,2381813080
7422,11,Pattern_Practice,83,1,48,23,2382084212
7422,11,Pattern_Practice,84,5,42,127,2382310888
7422,11,Pattern_Practice,85,1,48,61,2382336224
7422,11,Pattern_Practice,86,1,48,22,2382770728
7422,11,Pattern_Practice,87,5,42,127,2382810428
7422,11,Pattern_Practice,88,5,42,127,2383311176
7422,11,Pattern_Practice,89,1,48,17,2383335764
7422,11,Pattern_Practice,90,1,48,30,2383340304
7422,11,Pattern_Practice,91,1,48,19,2383620128
7422,11,Pattern_Practice,92,1,48,27,2383732596
7422,11,Pattern_Practice,93,5,42,127,2383811196
7422,11,Pattern_Practice,94,1,48,18,2383860976
7422,11,Pattern_Practice,95,1,48,19,2384099128
7422,11,Pattern_Practice,96,5,42,127,2384310628
7422,11,Pattern_Practice,97,1,48,44,2384324440
7422,11,Pattern_Practice,98,1,48,15,2384727976
7422,11,Pattern_Practice,99,1,48,28,2384732448
7422,11,Pattern_Practice,100,5,42,127,2384811392
7422,11,Pattern_Practice,101,5,42,127,2385311240
7422,11,Pattern_Practice,102,1,48,21,2385348340
7422,11,Pattern_Practice,103,1,48,46,2385578992
7422,11,Pattern_Practice,104,1,48,16,2385719548
7422,11,Pattern_Practice,105,1,48,52,2385808620
7422,11,Pattern_Practice,106,5,42,127,2385810808
7422,11,Pattern_Practice,107,1,48,17,2386083584
7422,11,Pattern_Practice,108,5,42,127,2386310416
7422,11,Pattern_Practice,109,1,48,51,2386346444
7422,11,Pattern_Practice,110,5,42,127,2386811232
7422,11,Pattern_Practice,111,1,48,26,2386821004
7422,11,Pattern_Practice,112,5,42,127,2387311296
7422,11,Pattern_Practice,113,1,48,37,2387349196
7422,11,Pattern_Practice,114,1,48,57,2387596104
7422,11,Pattern_Practice,115,1,48,24,2387721252
7422,11,Pattern_Practice,116,5,42,127,2387810740
7422,11,Pattern_Practice,117,1,48,39,2387817660
7422,11,Pattern_Practice,118,1,38,14,2387830056
7422,11,Pattern_Practice,119,1,48,21,2388106180
7422,11,Pattern_Practice,120,5,42,127,2388311396
7422,11,Pattern_Practice,121,1,48,65,2388358572
7422,11,Pattern_Practice,122,5,42,127,2388811092
7422,11,Pattern_Practice,123,1,48,33,2388836500
7422,11,Pattern_Practice,124,5,42,127,2389311008
7422,11,Pattern_Practice,125,1,38,127,2389342776
7422,11,Pattern_Practice,126,1,48,24,2389809576
7422,11,Pattern_Practice,127,5,42,127,2389811224
7422,11,Pattern_Practice,128,1,38,53,2390280960
7422,11,Pattern_Practice,129,5,42,127,2390311140
7422,11,Pattern_Practice,130,1,48,36,2390791356
7422,11,Pattern_Practice,131,1,38,16,2390802928
7422,11,Pattern_Practice,132,5,42,127,2390811040
7422,11,Pattern_Practice,133,5,42,127,2391310712
7422,11,Pattern_Practice,134,1,38,98,2391314952
7422,11,Pattern_Practice,135,5,42,127,2391810408
7422,11,Pattern_Practice,136,1,48,23,2391821680
7422,11,Pattern_Practice,137,1,38,74,2392305800
7422,11,Pattern_Practice,138,5,42,127,2392311144
7422,11,Pattern_Practice,139,5,42,127,2392810920
7422,11,Pattern_Practice,140,1,48,19,2392817552
7422,11,Pattern_Practice,141,1,48,31,2392821948
7422,11,Pattern_Practice,142,5,42,127,2393310520
7422,11,Pattern_Practice,143,1,38,23,2393314232
7422,11,Pattern_Practice,144,5,42,127,2393811188
7422,11,Pattern_Practice,145,1,48,25,2393827016
7422,11,Pattern_Practice,146,1,38,62,2394292112
7422,11,Pattern_Practice,147,5,42,127,2394310948
7422,11,Pattern_Practice,148,5,42,127,2394810948
7422,11,Pattern_Practice,149,1,48,67,2394838452
7422,11,Pattern_Practice,150,5,42,127,2395310396
7422,11,Pattern_Practice,151,1,38,59,2395314264
7422,11,Pattern_Practice,152,5,42,127,2395811136
7422,11,Pattern_Practice,153,1,48,63,2395831564
7422,11,Pattern_Practice,154,5,42,127,2396310980
7422,11,Pattern_Practice,155,1,38,41,2396346588
7422,11,Pattern_Practice,156,1,38,28,2396806744
7422,11,Pattern_Practice,157,5,42,127,2396810524
7422,11,Pattern_Practice,158,1,38,48,2397048140
7422,11,Pattern_Practice,159,5,42,127,2397311324
7422,11,Pattern_Practice,160,1,38,23,2397323568
7422,11,Pattern_Practice,161,1,38,40,2397572348
7422,11,Pattern_Practice,162,5,42,127,2397810920
7422,11,Pattern_Practice,163,1,38,22,2397847020
7422,11,Pattern_Practice,164,1,38,46,2398110460
7422,11,Pattern_Practice,165,5,42,127,2398310888
7422,11,Pattern_Practice,166,1,38,21,2398365316
7422,11,Pattern_Practice,167,5,42,127,2398810436
7422,11,Pattern_Practice,168,1,38,21,2398896428
7422,11,Pattern_Practice,169,1,38,53,2399141392
7422,11,Pattern_Practice,170,5,42,127,2399311300
7422,11,Pattern_Practice,171,1,38,16,2399391988
7422,11,Pattern_Practice,172,1,38,50,2399624388
7422,11,Pattern_Practice,173,5,42,127,2399810976
7422,11,Pattern_Practice,174,1,38,14,2399885748
7422,11,Pattern_Practice,175,1,38,48,2400107824
7422,11,Pattern_Practice,176,5,42,127,2400310500
7422,11,Pattern_Practice,177,1,38,18,2400380708
7422,11,Pattern_Practice,178,5,42,127,2400811316
7422,11,Pattern_Practice,179,1,38,19,2400896412
7422,11,Pattern_Practice,180,1,38,21,2401147960
7422,11,Pattern_Practice,181,5,42,127,2401311136
7422,11,Pattern_Practice,182,1,38,22,2401415004
7422,11,Pattern_Practice,183,1,38,21,2401654660
7422,11,Pattern_Practice,184,5,42,127,2401810956
7422,11,Pattern_Practice,185,1,38,42,2401900316
7422,11,Pattern_Practice,186,1,38,26,2402120976
7422,11,Pattern_Practice,187,5,42,127,2402310632
7422,11,Pattern_Practice,188,1,38,46,2402389592
7422,11,Pattern_Practice,189,5,42,127,2402811296
7422,11,Pattern_Practice,190,1,38,17,2402909412
7422,11,Pattern_Practice,191,1,38,50,2403144276
7422,11,Pattern_Practice,192,5,42,127,2403310896
7422,11,Pattern_Practice,193,1,38,16,2403414096
7422,11,Pattern_Practice,194,1,38,54,2403642300
7422,11,Pattern_Practice,195,5,42,127,2403810792
7422,11,Pattern_Practice,196,1,38,14,2403896260
7422,11,Pattern_Practice,197,1,38,25,2403900880
7422,11,Pattern_Practice,198,1,38,51,2404137020
7422,11,Pattern_Practice,199,5,42,127,2404311340
7422,11,Pattern_Practice,200,1,38,26,2404407280
7422,11,Pattern_Practice,201,5,42,127,2404811260
7422,11,Pattern_Practice,202,1,48,53,2404916772
7422,11,Pattern_Practice,0,9999,9999,9999,2365309036
7422,11,Pattern_Practice,1,9999,9999,9999,2365808752
7422,11,Pattern_Practice,2,9999,9999,9999,2366308468
7422,11,Pattern_Practice,3,9999,9999,9999,2366808184
7422,11,Pattern_Practice,4,9999,9999,9999,2367308872
7422,11,Pattern_Practice,5,9999,9999,9999,2367808588
7422,11,Pattern_Practice,6,9999,9999,9999,2368308304
7422,11,Pattern_Practice,7,9999,9999,9999,2368809068
7422,11,Pattern_Practice,8,9999,9999,9999,2369308784
7422,11,Pattern_Practice,9,9999,9999,9999,2369808452
7422,11,Pattern_Practice,10,9999,9999,9999,2370308184
7422,11,Pattern_Practice,11,9999,9999,9999,2370808904
7422,11,Pattern_Practice,12,9999,9999,9999,2371308596
7422,11,Pattern_Practice,13,9999,9999,9999,2371808340
7422,11,Pattern_Practice,14,9999,9999,9999,2372309040
7422,11,Pattern_Practice,15,9999,9999,9999,2372808788
7422,11,Pattern_Practice,16,9999,9999,9999,2373308484
7422,11,Pattern_Practice,17,9999,9999,9999,2373808200
7422,11,Pattern_Practice,18,9999,9999,9999,2374308980
7422,11,Pattern_Practice,19,9999,9999,9999,2374808652
7422,11,Pattern_Practice,20,9999,9999,9999,2375308396
7422,11,Pattern_Practice,21,9999,9999,9999,2375808064
7422,11,Pattern_Practice,22,9999,9999,9999,2376308840
7422,11,Pattern_Practice,23,9999,9999,9999,2376808568
7422,11,Pattern_Practice,24,9999,9999,9999,2377308264
7422,11,Pattern_Practice,25,9999,9999,9999,2377809000
7422,11,Pattern_Practice,26,9999,9999,9999,2378308696
7422,11,Pattern_Practice,27,9999,9999,9999,2378808432
7422,11,Pattern_Practice,28,9999,9999,9999,2379308124
7422,11,Pattern_Practice,29,9999,9999,9999,2379808868
7422,11,Pattern_Practice,30,9999,9999,9999,2380308564
7422,11,Pattern_Practice,31,9999,9999,9999,2380808256
7422,11,Pattern_Practice,32,9999,9999,9999,2381309024
7422,11,Pattern_Practice,33,9999,9999,9999,2381808720
7422,11,Pattern_Practice,34,9999,9999,9999,2382308452
7422,11,Pattern_Practice,35,9999,9999,9999,2382808140
7422,11,Pattern_Practice,36,9999,9999,9999,2383308888
7422,11,Pattern_Practice,37,9999,9999,9999,2383808608
7422,11,Pattern_Practice,38,9999,9999,9999,2384308316
7422,11,Pattern_Practice,39,9999,9999,9999,2384809028
7422,11,Pattern_Practice,40,9999,9999,9999,2385308728
7422,11,Pattern_Practice,41,9999,9999,9999,2385808492
7422,11,Pattern_Practice,42,9999,9999,9999,2386308200
7422,11,Pattern_Practice,43,9999,9999,9999,2386808944
7422,11,Pattern_Practice,44,9999,9999,9999,2387308636
7422,11,Pattern_Practice,45,9999,9999,9999,2387808376
7422,11,Pattern_Practice,46,9999,9999,9999,2388309108
7422,11,Pattern_Practice,47,9999,9999,9999,2388808804
7422,11,Pattern_Practice,48,9999,9999,9999,2389308496
7422,11,Pattern_Practice,49,9999,9999,9999,2389808192
7422,11,Pattern_Practice,50,9999,9999,9999,2390308928
7422,11,Pattern_Practice,51,9999,9999,9999,2390808676
7422,11,Pattern_Practice,52,9999,9999,9999,2391308348
7422,11,Pattern_Practice,53,9999,9999,9999,2391808120
7422,11,Pattern_Practice,54,9999,9999,9999,2392308852
7422,11,Pattern_Practice,55,9999,9999,9999,2392808556
7422,11,Pattern_Practice,56,9999,9999,9999,2393308232
7422,11,Pattern_Practice,57,9999,9999,9999,2393808972
7422,11,Pattern_Practice,58,9999,9999,9999,2394308660
7422,11,Pattern_Practice,59,9999,9999,9999,2394808436
7422,11,Pattern_Practice,60,9999,9999,9999,2395308108
7422,11,Pattern_Practice,61,9999,9999,9999,2395808848
7422,11,Pattern_Practice,62,9999,9999,9999,2396308544
7422,11,Pattern_Practice,63,9999,9999,9999,2396808308
7422,11,Pattern_Practice,64,9999,9999,9999,2397309036
7422,11,Pattern_Practice,65,9999,9999,9999,2397808704
7422,11,Pattern_Practice,66,9999,9999,9999,2398308452
7422,11,Pattern_Practice,67,9999,9999,9999,2398808148
7422,11,Pattern_Practice,68,9999,9999,9999,2399308864
7422,11,Pattern_Practice,69,9999,9999,9999,2399808612
7422,11,Pattern_Practice,70,9999,9999,9999,2400308284
7422,11,Pattern_Practice,71,9999,9999,9999,2400809024
7422,11,Pattern_Practice,72,9999,9999,9999,2401308772
7422,11,Pattern_Practice,73,9999,9999,9999,2401808444
7422,11,Pattern_Practice,74,9999,9999,9999,2402308192
7422,11,Pattern_Practice,75,9999,9999,9999,2402808932
7422,11,Pattern_Practice,76,9999,9999,9999,2403308604
7422,11,Pattern_Practice,77,9999,9999,9999,2403808356
7422,11,Pattern_Practice,78,9999,9999,9999,2404309052
7422,11,Pattern_Practice,79,9999,9999,9999,2404808820
7423,13,Improv_Metronome,0,5,42,127,2440845696
7423,13,Improv_Metronome,1,5,42,127,2441346460
7423,13,Improv_Metronome,2,5,42,127,2441846104
7423,13,Improv_Metronome,3,5,42,127,2442345968
7423,13,Improv_Metronome,4,1,48,26,2442839144
7423,13,Improv_Metronome,5,5,42,127,2442845456
7423,13,Improv_Metronome,6,1,38,16,2442851568
7423,13,Improv_Metronome,7,1,48,49,2443102712
7423,13,Improv_Metronome,8,5,42,127,2443346220
7423,13,Improv_Metronome,9,1,48,28,2443392720
7423,13,Improv_Metronome,10,1,48,48,2443600736
7423,13,Improv_Metronome,11,5,42,127,2443846092
7423,13,Improv_Metronome,12,1,48,32,2443873148
7423,13,Improv_Metronome,13,1,48,50,2444107636
7423,13,Improv_Metronome,14,5,42,127,2444345692
7423,13,Improv_Metronome,15,1,48,27,2444371328
7423,13,Improv_Metronome,16,5,42,127,2444845384
7423,13,Improv_Metronome,17,1,48,28,2444871540
7423,13,Improv_Metronome,18,1,48,56,2445111868
7423,13,Improv_Metronome,19,5,42,127,2445346104
7423,13,Improv_Metronome,20,1,48,23,2445370020
7423,13,Improv_Metronome,21,1,48,31,2445606828
7423,13,Improv_Metronome,22,5,42,127,2445846000
7423,13,Improv_Metronome,23,1,48,22,2445865576
7423,13,Improv_Metronome,24,1,48,57,2446098500
7423,13,Improv_Metronome,25,5,42,127,2446345600
7423,13,Improv_Metronome,26,1,48,32,2446350888
7423,13,Improv_Metronome,27,5,42,127,2446846268
7423,13,Improv_Metronome,28,1,38,51,2446854772
7423,13,Improv_Metronome,29,1,38,28,2447130552
7423,13,Improv_Metronome,30,1,38,41,2447245352
7423,13,Improv_Metronome,31,5,42,127,2447345992
7423,13,Improv_Metronome,32,1,38,41,2447484048
7423,13,Improv_Metronome,33,1,38,38,2447732676
7423,13,Improv_Metronome,34,1,48,16,2447745228
7423,13,Improv_Metronome,35,5,42,127,2447845916
7423,13,Improv_Metronome,36,1,38,32,2447890100
7423,13,Improv_Metronome,37,1,38,29,2448135740
7423,13,Improv_Metronome,38,5,42,127,2448345440
7423,13,Improv_Metronome,39,1,38,25,2448384388
7423,13,Improv_Metronome,40,1,38,65,2448641992
7423,13,Improv_Metronome,41,5,42,127,2448846236
7423,13,Improv_Metronome,42,1,38,22,2448895504
7423,13,Improv_Metronome,43,1,38,24,2449165224
7423,13,Improv_Metronome,44,1,38,54,2449299620
7423,13,Improv_Metronome,45,5,42,127,2449345900
7423,13,Improv_Metronome,46,1,38,17,2449535400
7423,13,Improv_Metronome,47,1,38,18,2449816416
7423,13,Improv_Metronome,48,5,42,127,2449845572
7423,13,Improv_Metronome,49,1,38,25,2449931028
7423,13,Improv_Metronome,50,1,38,68,2450191252
7423,13,Improv_Metronome,51,5,42,127,2450346552
7423,13,Improv_Metronome,52,1,38,26,2450434516
7423,13,Improv_Metronome,53,1,38,71,2450683224
7423,13,Improv_Metronome,54,5,42,127,2450845928
7423,13,Improv_Metronome,55,1,48,39,2450950120
7423,13,Improv_Metronome,56,1,38,20,2450962072
7423,13,Improv_Metronome,57,1,48,72,2451204540
7423,13,Improv_Metronome,58,5,42,127,2451345924
7423,13,Improv_Metronome,59,1,48,18,2451466576
7423,13,Improv_Metronome,60,1,48,29,2451470968
7423,13,Improv_Metronome,61,1,38,52,2451725208
7423,13,Improv_Metronome,62,5,42,127,2451845428
7423,13,Improv_Metronome,63,1,48,35,2452308304
7423,13,Improv_Metronome,64,5,42,127,2452346112
7423,13,Improv_Metronome,65,5,42,127,2452846036
7423,13,Improv_Metronome,66,1,48,35,2452865908
7423,13,Improv_Metronome,67,1,38,30,2453126128
7423,13,Improv_Metronome,68,5,42,127,2453345632
7423,13,Improv_Metronome,69,1,48,31,2453409412
7423,13,Improv_Metronome,70,1,48,74,2453642488
7423,13,Improv_Metronome,71,5,42,127,2453846352
7423,13,Improv_Metronome,72,1,38,36,2453920228
7423,13,Improv_Metronome,73,5,42,127,2454345972
7423,13,Improv_Metronome,74,1,38,42,2454459744
7423,13,Improv_Metronome,75,5,42,127,2454845740
7423,13,Improv_Metronome,76,1,38,25,2455259252
7423,13,Improv_Metronome,77,5,42,127,2455345376
7423,13,Improv_Metronome,78,1,38,25,2455478948
7423,13,Improv_Metronome,79,1,38,24,2455639072
7423,13,Improv_Metronome,80,1,38,38,2455698360
7423,13,Improv_Metronome,81,5,42,127,2455846208
7423,13,Improv_Metronome,82,1,38,27,2455971248
7423,13,Improv_Metronome,83,1,38,25,2456240372
7423,13,Improv_Metronome,84,5,42,127,2456345952
7423,13,Improv_Metronome,85,1,38,26,2456514104
7423,13,Improv_Metronome,86,1,38,32,2456649840
7423,13,Improv_Metronome,87,1,38,31,2456718780
7423,13,Improv_Metronome,88,5,42,127,2456845828
7423,13,Improv_Metronome,89,1,38,19,2457019736
7423,13,Improv_Metronome,90,1,38,29,2457271436
7423,13,Improv_Metronome,91,5,42,127,2457346264
7423,13,Improv_Metronome,92,1,38,26,2457555756
7423,13,Improv_Metronome,93,1,38,41,2457655216
7423,13,Improv_Metronome,94,1,38,32,2457744580
7423,13,Improv_Metronome,95,5,42,127,2457846048
7423,13,Improv_Metronome,96,1,38,52,2457864800
7423,13,Improv_Metronome,97,1,38,33,2458106328
7423,13,Improv_Metronome,98,5,42,127,2458345872
7423,13,Improv_Metronome,99,1,38,62,2458363800
7423,13,Improv_Metronome,100,1,38,27,2458607720
7423,13,Improv_Metronome,101,5,42,127,2458845620
7423,13,Improv_Metronome,102,1,38,69,2458857412
7423,13,Improv_Metronome,103,5,42,127,2459346216
7423,13,Improv_Metronome,104,1,48,90,2459378576
7423,13,Improv_Metronome,105,1,38,19,2459390304
7423,13,Improv_Metronome,106,5,42,127,2459845940
7423,13,Improv_Metronome,107,1,48,72,2459885036
7423,13,Improv_Metronome,108,5,42,127,2460345784
7423,13,Improv_Metronome,109,1,48,18,2460367304
7423,13,Improv_Metronome,110,5,42,127,2460845304
7423,13,Improv_Metronome,111,1,48,53,2460855104
7423,13,Improv_Metronome,112,5,42,127,2461346196
7423,13,Improv_Metronome,113,1,48,26,2461352012
7423,13,Improv_Metronome,114,1,48,54,2461589264
7423,13,Improv_Metronome,115,1,48,27,2461838044
7423,13,Improv_Metronome,116,5,42,127,2461846008
7423,13,Improv_Metronome,117,1,48,50,2462061488
7423,13,Improv_Metronome,118,5,42,127,2462345688
7423,13,Improv_Metronome,119,1,48,25,2462347624
7423,13,Improv_Metronome,120,5,42,127,2462846356
7423,13,Improv_Metronome,121,1,48,78,2462872964
7423,13,Improv_Metronome,122,5,42,127,2463346124
7423,13,Improv_Metronome,123,1,48,25,2463355748
7423,13,Improv_Metronome,124,5,42,127,2463846040
7423,13,Improv_Metronome,125,1,48,64,2463858508
7423,13,Improv_Metronome,126,1,48,13,2464320864
7423,13,Improv_Metronome,127,1,48,25,2464325328
7423,13,Improv_Metronome,128,5,42,127,2464345484
7423,13,Improv_Metronome,129,1,48,13,2464833328
7423,13,Improv_Metronome,130,5,42,127,2464846156
7423,13,Improv_Metronome,131,1,48,17,2465089084
7423,13,Improv_Metronome,132,1,48,29,2465093548
7423,13,Improv_Metronome,133,1,48,42,2465346184
7423,13,Improv_Metronome,134,5,42,127,2465347448
7423,13,Improv_Metronome,135,1,48,23,2465604744
7423,13,Improv_Metronome,136,5,42,127,2465845856
7423,13,Improv_Metronome,137,1,48,71,2465878672
7423,13,Improv_Metronome,138,5,42,127,2466346304
7423,13,Improv_Metronome,139,1,38,32,2466401780
7423,13,Improv_Metronome,140,5,42,127,2466845996
7423,13,Improv_Metronome,141,1,48,26,2466905216
7423,13,Improv_Metronome,142,5,42,127,2467345988
7423,13,Improv_Metronome,143,1,48,60,2467401992
7423,13,Improv_Metronome,144,5,42,127,2467845684
7423,13,Improv_Metronome,145,1,48,14,2467880892
7423,13,Improv_Metronome,146,1,48,25,2467885508
7423,13,Improv_Metronome,147,5,42,127,2468346180
7423,13,Improv_Metronome,148,1,48,53,2468347296
7423,13,Improv_Metronome,149,1,48,34,2468841348
7423,13,Improv_Metronome,150,5,42,127,2468845868
7423,13,Improv_Metronome,151,1,48,53,2469119096
7423,13,Improv_Metronome,152,5,42,127,2469345848
7423,13,Improv_Metronome,153,1,48,22,2469366468
7423,13,Improv_Metronome,154,1,48,57,2469594904
7423,13,Improv_Metronome,155,5,42,127,2469846492
7423,13,Improv_Metronome,156,1,48,38,2469853724
7423,13,Improv_Metronome,157,5,42,127,2470345964
7423,13,Improv_Metronome,158,1,38,72,2470355512
7423,13,Improv_Metronome,159,5,42,127,2470845884
7423,13,Improv_Metronome,160,1,38,26,2470859696
7423,13,Improv_Metronome,161,1,38,42,2470864164
7423,13,Improv_Metronome,162,1,38,53,2471102476
7423,13,Improv_Metronome,163,1,38,29,2471340004
7423,13,Improv_Metronome,164,5,42,127,2471345972
7423,13,Improv_Metronome,165,1,38,56,2471590004
7423,13,Improv_Metronome,166,1,38,35,2471845096
7423,13,Improv_Metronome,167,5,42,127,2471847640
7423,13,Improv_Metronome,168,5,42,127,2472345924
7423,13,Improv_Metronome,169,1,48,62,2472380932
7423,13,Improv_Metronome,170,5,42,127,2472845840
7423,13,Improv_Metronome,171,1,38,28,2472850984
7423,13,Improv_Metronome,172,1,38,48,2473103348
7423,13,Improv_Metronome,173,5,42,127,2473346560
7423,13,Improv_Metronome,174,1,38,27,2473359632
7423,13,Improv_Metronome,175,1,38,59,2473579764
7423,13,Improv_Metronome,176,5,42,127,2473846232
7423,13,Improv_Metronome,177,1,38,39,2473855784
7423,13,Improv_Metronome,178,5,42,127,2474345852
7423,13,Improv_Metronome,179,1,38,113,2474360268
7423,13,Improv_Metronome,180,5,42,127,2474845772
7423,13,Improv_Metronome,181,1,48,21,2474868340
7423,13,Improv_Metronome,182,1,48,47,2475115028
7423,13,Improv_Metronome,183,5,42,127,2475346344
7423,13,Improv_Metronome,184,1,48,15,2475351188
7423,13,Improv_Metronome,185,1,48,28,2475355648
7423,13,Improv_Metronome,186,1,48,61,2475584760
7423,13,Improv_Metronome,187,5,42,127,2475845844
7423,13,Improv_Metronome,188,1,48,24,2475849336
7423,13,Improv_Metronome,189,1,38,71,2476326872
7423,13,Improv_Metronome,190,5,42,127,2476345832
7423,13,Improv_Metronome,191,5,42,127,2476845680
7423,13,Improv_Metronome,192,1,48,38,2476855156
7423,13,Improv_Metronome,193,1,48,54,2477092792
7423,13,Improv_Metronome,194,5,42,127,2477346252
7423,13,Improv_Metronome,195,1,48,28,2477363732
7423,13,Improv_Metronome,196,1,48,61,2477595308
7423,13,Improv_Metronome,197,5,42,127,2477845776
7423,13,Improv_Metronome,198,1,48,33,2477850388
7423,13,Improv_Metronome,199,1,38,15,2477858668
7423,13,Improv_Metronome,200,1,48,39,2478322344
7423,13,Improv_Metronome,201,1,38,15,2478334144
7423,13,Improv_Metronome,202,5,42,127,2478345696
7423,13,Improv_Metronome,203,1,48,40,2478836876
7423,13,Improv_Metronome,204,5,42,127,2478846484
7423,13,Improv_Metronome,205,1,48,60,2478915556
7423,13,Improv_Metronome,206,1,48,28,2479065680
7423,13,Improv_Metronome,207,1,48,27,2479198352
7423,13,Improv_Metronome,208,1,48,38,2479343608
7423,13,Improv_Metronome,209,5,42,127,2479346036
7423,13,Improv_Metronome,210,5,42,127,2479845740
7423,13,Improv_Metronome,211,1,48,44,2479886484
7423,13,Improv_Metronome,212,1,48,53,2479945324
7423,13,Improv_Metronome,213,1,48,32,2480121552
7423,13,Improv_Metronome,214,1,48,60,2480239484
7423,13,Improv_Metronome,215,5,42,127,2480345444
7423,13,Improv_Metronome,216,1,48,36,2480399196
7423,13,Improv_Metronome,217,5,42,127,2480846108
7423,13,Improv_Metronome,218,1,48,40,2480850352
7423,13,Improv_Metronome,219,1,48,37,2480983320
7423,13,Improv_Metronome,220,1,48,54,2481115788
7423,13,Improv_Metronome,221,1,48,34,2481283688
7423,13,Improv_Metronome,222,5,42,127,2481345904
7423,13,Improv_Metronome,223,1,48,52,2481382964
7423,13,Improv_Metronome,224,1,48,34,2481550640
7423,13,Improv_Metronome,225,1,48,53,2481668896
7423,13,Improv_Metronome,226,5,42,127,2481845536
7423,13,Improv_Metronome,227,1,48,24,2481857328
7423,13,Improv_Metronome,228,1,48,52,2481935476
7423,13,Improv_Metronome,229,5,42,127,2482346528
7423,13,Improv_Metronome,230,1,38,29,2482413780
7423,13,Improv_Metronome,231,5,42,127,2482845928
7423,13,Improv_Metronome,232,1,38,26,2482907932
7423,13,Improv_Metronome,233,1,38,49,2482969924
7423,13,Improv_Metronome,234,1,38,28,2483099296
7423,13,Improv_Metronome,235,5,42,127,2483345652
7423,13,Improv_Metronome,236,1,38,19,2483351388
7423,13,Improv_Metronome,237,5,42,127,2483845420
7423,13,Improv_Metronome,238,1,38,29,2483870456
7423,13,Improv_Metronome,239,1,38,35,2483967988
7423,13,Improv_Metronome,240,1,38,31,2484084060
7423,13,Improv_Metronome,241,1,38,25,2484161252
7423,13,Improv_Metronome,242,5,42,127,2484346392
7423,13,Improv_Metronome,243,1,38,38,2484406832
7423,13,Improv_Metronome,244,5,42,127,2484845940
7423,13,Improv_Metronome,245,1,38,32,2484908748
7423,13,Improv_Metronome,246,5,42,127,2485345636
7423,13,Improv_Metronome,247,1,38,23,2485353092
7423,13,Improv_Metronome,248,5,42,127,2485846376
7423,13,Improv_Metronome,249,1,38,32,2485875520
7423,13,Improv_Metronome,250,1,48,13,2485882984
7423,13,Improv_Metronome,251,5,42,127,2486346020
7423,13,Improv_Metronome,252,1,38,24,2486364252
7423,13,Improv_Metronome,253,5,42,127,2486845792
7423,13,Improv_Metronome,254,1,38,53,2486852572
7423,13,Improv_Metronome,255,5,42,127,2487345632
7423,13,Improv_Metronome,256,1,38,29,2487588428
7423,13,Improv_Metronome,257,1,48,24,2487596268
7423,13,Improv_Metronome,258,1,38,50,2487825572
7423,13,Improv_Metronome,259,5,42,127,2487846396
7423,13,Improv_Metronome,260,5,42,127,2488346024
7423,13,Improv_Metronome,261,1,38,70,2488844384
7423,13,Improv_Metronome,262,5,42,127,2488847300
7423,13,Improv_Metronome,263,1,48,18,2488879372
7423,13,Improv_Metronome,264,5,42,127,2489346596
7423,13,Improv_Metronome,265,1,38,43,2489586624
7423,13,Improv_Metronome,266,1,48,15,2489606052
7423,13,Improv_Metronome,267,5,42,127,2489846316
7423,13,Improv_Metronome,268,1,38,39,2489849964
7423,13,Improv_Metronome,269,5,42,127,2490345792
7423,13,Improv_Metronome,270,1,38,57,2490805676
7423,13,Improv_Metronome,271,5,42,127,2490845428
7423,13,Improv_Metronome,272,1,38,71,2491041212
7423,13,Improv_Metronome,273,1,48,22,2491271440
7423,13,Improv_Metronome,274,5,42,127,2491346516
7423,13,Improv_Metronome,275,1,38,78,2491495852
7423,13,Improv_Metronome,276,5,42,127,2491846052
7423,13,Improv_Metronome,277,1,48,71,2491974832
7423,13,Improv_Metronome,278,5,42,127,2492345596
7423,13,Improv_Metronome,279,1,38,32,2492816528
7423,13,Improv_Metronome,280,1,48,16,2492823764
7423,13,Improv_Metronome,281,5,42,127,2492845336
7423,13,Improv_Metronome,282,1,38,43,2493083596
7423,13,Improv_Metronome,283,1,48,29,2493342476
7423,13,Improv_Metronome,284,5,42,127,2493346400
7423,13,Improv_Metronome,285,1,38,14,2493354604
7423,13,Improv_Metronome,286,1,38,49,2493564240
7423,13,Improv_Metronome,287,1,48,15,2493571776
7423,13,Improv_Metronome,288,5,42,127,2493845848
7423,13,Improv_Metronome,289,1,48,54,2494069796
7423,13,Improv_Metronome,290,5,42,127,2494345616
7423,13,Improv_Metronome,291,1,48,47,2494845928
7423,13,Improv_Metronome,292,5,42,127,2494847496
7423,13,Improv_Metronome,293,1,48,59,2494872292
7423,13,Improv_Metronome,294,5,42,127,2495346276
7423,13,Improv_Metronome,295,1,48,51,2495587052
7423,13,Improv_Metronome,296,1,48,27,2495842568
7423,13,Improv_Metronome,297,5,42,127,2495845668
7423,13,Improv_Metronome,298,1,48,60,2495876296
7423,13,Improv_Metronome,299,5,42,127,2496345420
7423,13,Improv_Metronome,300,5,42,127,2496846480
7423,13,Improv_Metronome,301,1,48,35,2496888196
7423,13,Improv_Metronome,302,1,48,67,2496906196
7423,13,Improv_Metronome,303,5,42,127,2497345928
7423,13,Improv_Metronome,304,1,48,33,2497608920
7423,13,Improv_Metronome,305,1,48,57,2497641136
7423,13,Improv_Metronome,306,5,42,127,2497845600
7423,13,Improv_Metronome,307,1,48,21,2497871460
7423,13,Improv_Metronome,308,1,48,57,2497891412
7423,13,Improv_Metronome,309,5,42,127,2498346396
7423,13,Improv_Metronome,310,5,42,127,2498846260
7423,13,Improv_Metronome,311,1,48,36,2498852672
7423,13,Improv_Metronome,312,1,48,59,2498878300
7423,13,Improv_Metronome,313,5,42,127,2499345856
7423,13,Improv_Metronome,314,1,48,37,2499603616
7423,13,Improv_Metronome,315,5,42,127,2499845480
7423,13,Improv_Metronome,316,1,48,39,2499867444
7423,13,Improv_Metronome,317,1,48,77,2499887176
7423,13,Improv_Metronome,318,5,42,127,2500346424
7423,13,Improv_Metronome,319,1,48,48,2500819472
7423,13,Improv_Metronome,320,1,38,16,2500831868
7423,13,Improv_Metronome,321,5,42,127,2500846188
7423,13,Improv_Metronome,322,1,38,15,2501053260
7423,13,Improv_Metronome,323,1,38,29,2501277408
7423,13,Improv_Metronome,324,1,38,46,2501281880
7423,13,Improv_Metronome,325,5,42,127,2501345588
7423,13,Improv_Metronome,326,1,48,86,2501538904
7423,13,Improv_Metronome,327,1,48,41,2501808344
7423,13,Improv_Metronome,328,5,42,127,2501846300
7423,13,Improv_Metronome,329,1,38,82,2502315420
7423,13,Improv_Metronome,330,5,42,127,2502346364
7423,13,Improv_Metronome,331,1,48,83,2502827828
7423,13,Improv_Metronome,332,5,42,127,2502845764
7423,13,Improv_Metronome,333,5,42,127,2503345540
7423,13,Improv_Metronome,334,5,42,127,2503846352
7423,13,Improv_Metronome,335,1,38,26,2503847992
7423,13,Improv_Metronome,336,1,48,17,2503861684
7423,13,Improv_Metronome,337,1,38,57,2503866148
7423,13,Improv_Metronome,338,5,42,127,2504345992
7423,13,Improv_Metronome,339,5,42,127,2504845632
7423,13,Improv_Metronome,340,1,48,38,2504882884
7423,13,Improv_Metronome,341,5,42,127,2505346452
7423,13,Improv_Metronome,342,1,38,24,2505815388
7423,13,Improv_Metronome,343,1,38,54,2505823888
7423,13,Improv_Metronome,344,5,42,127,2505846212
7423,13,Improv_Metronome,345,5,42,127,2506345692
7423,13,Improv_Metronome,346,1,48,39,2506844424
7423,13,Improv_Metronome,347,5,42,127,2506846072
7423,13,Improv_Metronome,348,1,38,28,2507085560
7423,13,Improv_Metronome,349,1,48,13,2507097584
7423,13,Improv_Metronome,350,5,42,127,2507346240
7423,13,Improv_Metronome,351,1,48,36,2507362676
7423,13,Improv_Metronome,352,1,38,27,2507607640
7423,13,Improv_Metronome,353,1,48,13,2507619812
7423,13,Improv_Metronome,354,5,42,127,2507846088
7423,13,Improv_Metronome,355,1,48,38,2507868508
7423,13,Improv_Metronome,356,1,38,16,2507880080
7423,13,Improv_Metronome,357,5,42,127,2508345664
7423,13,Improv_Metronome,358,1,38,88,2508365460
7423,13,Improv_Metronome,359,5,42,127,2508845356
7423,13,Improv_Metronome,360,1,48,26,2508876668
7423,13,Improv_Metronome,361,1,38,61,2509116776
7423,13,Improv_Metronome,362,5,42,127,2509346148
7423,13,Improv_Metronome,363,1,48,39,2509375528
7423,13,Improv_Metronome,364,5,42,127,2509845992
7423,13,Improv_Metronome,365,1,48,40,2509932064
7423,13,Improv_Metronome,366,5,42,127,2510345540
7423,13,Improv_Metronome,367,1,38,47,2510410736
7423,13,Improv_Metronome,0,9999,9999,9999,2440843336
7423,13,Improv_Metronome,1,9999,9999,9999,2441344100
7423,13,Improv_Metronome,2,9999,9999,9999,2441843816
7423,13,Improv_Metronome,3,9999,9999,9999,2442343532
7423,13,Improv_Metronome,4,9999,9999,9999,2442843244
7423,13,Improv_Metronome,5,9999,9999,9999,2443343932
7423,13,Improv_Metronome,6,9999,9999,9999,2443843656
7423,13,Improv_Metronome,7,9999,9999,9999,2444343404
7423,13,Improv_Metronome,8,9999,9999,9999,2444843100
7423,13,Improv_Metronome,9,9999,9999,9999,2445343820
7423,13,Improv_Metronome,10,9999,9999,9999,2445843564
7423,13,Improv_Metronome,11,9999,9999,9999,2446343240
7423,13,Improv_Metronome,12,9999,9999,9999,2446843980
7423,13,Improv_Metronome,13,9999,9999,9999,2447343708
7423,13,Improv_Metronome,14,9999,9999,9999,2447843408
7423,13,Improv_Metronome,15,9999,9999,9999,2448343156
7423,13,Improv_Metronome,16,9999,9999,9999,2448843872
7423,13,Improv_Metronome,17,9999,9999,9999,2449343540
7423,13,Improv_Metronome,18,9999,9999,9999,2449843288
7423,13,Improv_Metronome,19,9999,9999,9999,2450344040
7423,13,Improv_Metronome,20,9999,9999,9999,2450843716
7423,13,Improv_Metronome,21,9999,9999,9999,2451343416
7423,13,Improv_Metronome,22,9999,9999,9999,2451843144
7423,13,Improv_Metronome,23,9999,9999,9999,2452343900
7423,13,Improv_Metronome,24,9999,9999,9999,2452843600
7423,13,Improv_Metronome,25,9999,9999,9999,2453343348
7423,13,Improv_Metronome,26,9999,9999,9999,2453844064
7423,13,Improv_Metronome,27,9999,9999,9999,2454343760
7423,13,Improv_Metronome,28,9999,9999,9999,2454843456
7423,13,Improv_Metronome,29,9999,9999,9999,2455343164
7423,13,Improv_Metronome,30,9999,9999,9999,2455843920
7423,13,Improv_Metronome,31,9999,9999,9999,2456343668
7423,13,Improv_Metronome,32,9999,9999,9999,2456843320
7423,13,Improv_Metronome,33,9999,9999,9999,2457344056
7423,13,Improv_Metronome,34,9999,9999,9999,2457843764
7423,13,Improv_Metronome,35,9999,9999,9999,2458343512
7423,13,Improv_Metronome,36,9999,9999,9999,2458843188
7423,13,Improv_Metronome,37,9999,9999,9999,2459343928
7423,13,Improv_Metronome,38,9999,9999,9999,2459843652
7423,13,Improv_Metronome,39,9999,9999,9999,2460343348
7423,13,Improv_Metronome,40,9999,9999,9999,2460843092
7423,13,Improv_Metronome,41,9999,9999,9999,2461343832
7423,13,Improv_Metronome,42,9999,9999,9999,2461843572
7423,13,Improv_Metronome,43,9999,9999,9999,2462343252
7423,13,Improv_Metronome,44,9999,9999,9999,2462843992
7423,13,Improv_Metronome,45,9999,9999,9999,2463343688
7423,13,Improv_Metronome,46,9999,9999,9999,2463843384
7423,13,Improv_Metronome,47,9999,9999,9999,2464343124
7423,13,Improv_Metronome,48,9999,9999,9999,2464843868
7423,13,Improv_Metronome,49,9999,9999,9999,2465343600
7423,13,Improv_Metronome,50,9999,9999,9999,2465843272
7423,13,Improv_Metronome,51,9999,9999,9999,2466344016
7423,13,Improv_Metronome,52,9999,9999,9999,2466843712
7423,13,Improv_Metronome,53,9999,9999,9999,2467343476
7423,13,Improv_Metronome,54,9999,9999,9999,2467843176
7423,13,Improv_Metronome,55,9999,9999,9999,2468343896
7423,13,Improv_Metronome,56,9999,9999,9999,2468843584
7423,13,Improv_Metronome,57,9999,9999,9999,2469343336
7423,13,Improv_Metronome,58,9999,9999,9999,2469844056
7423,13,Improv_Metronome,59,9999,9999,9999,2470343752
7423,13,Improv_Metronome,60,9999,9999,9999,2470843448
7423,13,Improv_Metronome,61,9999,9999,9999,2471343216
7423,13,Improv_Metronome,62,9999,9999,9999,2471843940
7423,13,Improv_Metronome,63,9999,9999,9999,2472343636
7423,13,Improv_Metronome,64,9999,9999,9999,2472843332
7423,13,Improv_Metronome,65,9999,9999,9999,2473344052
7423,13,Improv_Metronome,66,9999,9999,9999,2473843796
7423,13,Improv_Metronome,67,9999,9999,9999,2474343492
7423,13,Improv_Metronome,68,9999,9999,9999,2474843188
7423,13,Improv_Metronome,69,9999,9999,9999,2475343984
7423,13,Improv_Metronome,70,9999,9999,9999,2475843632
7423,13,Improv_Metronome,71,9999,9999,9999,2476343396
7423,13,Improv_Metronome,72,9999,9999,9999,2476843100
7423,13,Improv_Metronome,73,9999,9999,9999,2477343816
7423,13,Improv_Metronome,74,9999,9999,9999,2477843564
7423,13,Improv_Metronome,75,9999,9999,9999,2478343260
7423,13,Improv_Metronome,76,9999,9999,9999,2478843972
7423,13,Improv_Metronome,77,9999,9999,9999,2479343676
7423,13,Improv_Metronome,78,9999,9999,9999,2479843380
7423,13,Improv_Metronome,79,9999,9999,9999,2480343156
7423,13,Improv_Metronome,80,9999,9999,9999,2480843896
7423,13,Improv_Metronome,81,9999,9999,9999,2481343544
7423,13,Improv_Metronome,82,9999,9999,9999,2481843252
7423,13,Improv_Metronome,83,9999,9999,9999,2482344020
7423,13,Improv_Metronome,84,9999,9999,9999,2482843716
7423,13,Improv_Metronome,85,9999,9999,9999,2483343440
7423,13,Improv_Metronome,86,9999,9999,9999,2483843136
7423,13,Improv_Metronome,87,9999,9999,9999,2484343884
7423,13,Improv_Metronome,88,9999,9999,9999,2484843580
7423,13,Improv_Metronome,89,9999,9999,9999,2485343348
7423,13,Improv_Metronome,90,9999,9999,9999,2485844088
7423,13,Improv_Metronome,91,9999,9999,9999,2486343736
7423,13,Improv_Metronome,92,9999,9999,9999,2486843504
7423,13,Improv_Metronome,93,9999,9999,9999,2487343196
7423,13,Improv_Metronome,94,9999,9999,9999,2487843960
7423,13,Improv_Metronome,95,9999,9999,9999,2488343664
7423,13,Improv_Metronome,96,9999,9999,9999,2488843380
7423,13,Improv_Metronome,97,9999,9999,9999,2489344088
7423,13,Improv_Metronome,98,9999,9999,9999,2489843808
7423,13,Improv_Metronome,99,9999,9999,9999,2490343504
7423,13,Improv_Metronome,100,9999,9999,9999,2490843216
7423,13,Improv_Metronome,101,9999,9999,9999,2491343932
7423,13,Improv_Metronome,102,9999,9999,9999,2491843688
7423,13,Improv_Metronome,103,9999,9999,9999,2492343384
7423,13,Improv_Metronome,104,9999,9999,9999,2492843124
7423,13,Improv_Metronome,105,9999,9999,9999,2493343816
7423,13,Improv_Metronome,106,9999,9999,9999,2493843560
7423,13,Improv_Metronome,107,9999,9999,9999,2494343256
7423,13,Improv_Metronome,108,9999,9999,9999,2494844020
7423,13,Improv_Metronome,109,9999,9999,9999,2495343692
7423,13,Improv_Metronome,110,9999,9999,9999,2495843380
7423,13,Improv_Metronome,111,9999,9999,9999,2496343132
7423,13,Improv_Metronome,112,9999,9999,9999,2496843896
7423,13,Improv_Metronome,113,9999,9999,9999,2497343568
7423,13,Improv_Metronome,114,9999,9999,9999,2497843316
7423,13,Improv_Metronome,115,9999,9999,9999,2498344032
7423,13,Improv_Metronome,116,9999,9999,9999,2498843752
7423,13,Improv_Metronome,117,9999,9999,9999,2499343424
7423,13,Improv_Metronome,118,9999,9999,9999,2499843192
7423,13,Improv_Metronome,119,9999,9999,9999,2500343912
7423,13,Improv_Metronome,120,9999,9999,9999,2500843604
7423,13,Improv_Metronome,121,9999,9999,9999,2501343300
7423,13,Improv_Metronome,122,9999,9999,9999,2501844088
7423,13,Improv_Metronome,123,9999,9999,9999,2502343784
7423,13,Improv_Metronome,124,9999,9999,9999,2502843480
7423,13,Improv_Metronome,125,9999,9999,9999,2503343152
7423,13,Improv_Metronome,126,9999,9999,9999,2503843916
7423,13,Improv_Metronome,127,9999,9999,9999,2504343632
7423,13,Improv_Metronome,128,9999,9999,9999,2504843348
7423,13,Improv_Metronome,129,9999,9999,9999,2505344088
7423,13,Improv_Metronome,130,9999,9999,9999,2505843780
7423,13,Improv_Metronome,131,9999,9999,9999,2506343480
7423,13,Improv_Metronome,132,9999,9999,9999,2506843196
7423,13,Improv_Metronome,133,9999,9999,9999,2507343956
7423,13,Improv_Metronome,134,9999,9999,9999,2507843656
7423,13,Improv_Metronome,135,9999,9999,9999,2508343376
7423,13,Improv_Metronome,136,9999,9999,9999,2508843068
7423,13,Improv_Metronome,137,9999,9999,9999,2509343864
7423,13,Improv_Metronome,138,9999,9999,9999,2509843560
7423,13,Improv_Metronome,139,9999,9999,9999,2510343252
7424,14,Improv_Melody,0,2,48,80,2560401640
7424,14,Improv_Melody,1,2,72,80,2560404380
7424,14,Improv_Melody,2,5,42,127,2560405724
7424,14,Improv_Melody,3,5,42,110,2560898416
7424,14,Improv_Melody,4,5,42,110,2561399184
7424,14,Improv_Melody,5,5,42,110,2561898756
7424,14,Improv_Melody,6,5,42,127,2562398628
7424,14,Improv_Melody,7,5,42,110,2562899396
7424,14,Improv_Melody,8,5,42,110,2563399116
7424,14,Improv_Melody,9,5,42,110,2563898764
7424,14,Improv_Melody,10,2,43,80,2564401068
7424,14,Improv_Melody,11,2,67,80,2564403144
7424,14,Improv_Melody,12,5,42,127,2564405532
7424,14,Improv_Melody,13,5,42,110,2564899044
7424,14,Improv_Melody,14,5,42,110,2565398992
7424,14,Improv_Melody,15,5,42,110,2565898564
7424,14,Improv_Melody,16,5,42,127,2566399480
7424,14,Improv_Melody,17,5,42,110,2566899052
7424,14,Improv_Melody,18,5,42,110,2567398700
7424,14,Improv_Melody,19,5,42,110,2567898572
7424,14,Improv_Melody,20,2,45,80,2568401696
7424,14,Improv_Melody,21,2,69,80,2568403920
7424,14,Improv_Melody,22,5,42,127,2568406384
7424,14,Improv_Melody,23,5,42,110,2568898924
7424,14,Improv_Melody,24,5,42,110,2569398724
7424,14,Improv_Melody,25,5,42,110,2569899320
7424,14,Improv_Melody,26,5,42,127,2570399040
7424,14,Improv_Melody,27,5,42,110,2570898908
7424,14,Improv_Melody,28,5,42,110,2571398408
7424,14,Improv_Melody,29,5,42,110,2571899252
7424,14,Improv_Melody,30,2,41,80,2572401400
7424,14,Improv_Melody,31,2,65,80,2572403628
7424,14,Improv_Melody,32,5,42,127,2572406240
7424,14,Improv_Melody,33,5,42,110,2572898560
7424,14,Improv_Melody,34,5,42,110,2573399328
7424,14,Improv_Melody,35,5,42,110,2573899048
7424,14,Improv_Melody,36,5,42,127,2574398920
7424,14,Improv_Melody,37,5,42,110,2574898644
7424,14,Improv_Melody,38,5,42,110,2575399260
7424,14,Improv_Melody,39,5,42,110,2575898984
7424,14,Improv_Melody,40,2,48,80,2576401364
7424,14,Improv_Melody,41,2,72,80,2576403520
7424,14,Improv_Melody,42,5,42,127,2576406124
7424,14,Improv_Melody,43,5,42,110,2576898444
7424,14,Improv_Melody,44,5,42,110,2577399284
7424,14,Improv_Melody,45,5,42,110,2577898932
7424,14,Improv_Melody,46,1,38,16,2578383352
7424,14,Improv_Melody,47,5,42,127,2578398500
7424,14,Improv_Melody,48,1,38,19,2578618544
7424,14,Improv_Melody,49,1,38,22,2578899380
7424,14,Improv_Melody,50,5,42,110,2578901396
7424,14,Improv_Melody,51,1,38,19,2579355400
7424,14,Improv_Melody,52,5,42,110,2579399072
7424,14,Improv_Melody,53,1,38,27,2579871628
7424,14,Improv_Melody,54,5,42,110,2579898696
7424,14,Improv_Melody,55,2,43,80,2580401060
7424,14,Improv_Melody,56,2,67,80,2580403288
7424,14,Improv_Melody,57,5,42,127,2580405820
7424,14,Improv_Melody,58,1,38,20,2580665820
7424,14,Improv_Melody,59,5,42,110,2580899140
7424,14,Improv_Melody,60,1,38,23,2580903604
7424,14,Improv_Melody,61,1,38,29,2581396716
7424,14,Improv_Melody,62,5,42,110,2581399128
7424,14,Improv_Melody,63,1,38,25,2581898984
7424,14,Improv_Melody,64,5,42,110,2581901000
7424,14,Improv_Melody,65,5,42,127,2582399360
7424,14,Improv_Melody,66,1,38,34,2582400996
7424,14,Improv_Melody,67,1,38,27,2582633908
7424,14,Improv_Melody,68,5,42,110,2582899040
7424,14,Improv_Melody,69,1,38,25,2582903724
7424,14,Improv_Melody,70,1,38,30,2583380220
7424,14,Improv_Melody,71,5,42,110,2583399028
7424,14,Improv_Melody,72,1,38,31,2583881264
7424,14,Improv_Melody,73,5,42,110,2583898728
7424,14,Improv_Melody,74,1,38,22,2584376552
7424,14,Improv_Melody,75,2,45,80,2584401992
7424,14,Improv_Melody,76,2,69,80,2584403992
7424,14,Improv_Melody,77,5,42,127,2584406524
7424,14,Improv_Melody,78,1,38,24,2584636592
7424,14,Improv_Melody,79,1,38,30,2584875052
7424,14,Improv_Melody,80,5,42,110,2584898872
7424,14,Improv_Melody,81,1,38,31,2585381932
7424,14,Improv_Melody,82,5,42,110,2585398868
7424,14,Improv_Melody,83,1,38,30,2585889480
7424,14,Improv_Melody,84,5,42,110,2585899244
7424,14,Improv_Melody,85,1,38,16,2585974676
7424,14,Improv_Melody,86,5,42,127,2586399152
7424,14,Improv_Melody,87,1,38,32,2586408848
7424,14,Improv_Melody,88,1,38,27,2586642900
7424,14,Improv_Melody,89,1,38,27,2586897852
7424,14,Improv_Melody,90,5,42,110,2586900168
7424,14,Improv_Melody,91,5,42,110,2587398752
7424,14,Improv_Melody,92,1,38,23,2587399720
7424,14,Improv_Melody,93,1,38,33,2587896612
7424,14,Improv_Melody,94,5,42,110,2587899196
7424,14,Improv_Melody,95,1,38,24,2588370960
7424,14,Improv_Melody,96,2,41,80,2588401248
7424,14,Improv_Melody,97,2,65,80,2588403552
7424,14,Improv_Melody,98,5,42,127,2588405940
7424,14,Improv_Melody,99,1,38,26,2588649768
7424,14,Improv_Melody,100,5,42,110,2588898892
7424,14,Improv_Melody,101,1,38,27,2588900232
7424,14,Improv_Melody,102,1,38,36,2589395928
7424,14,Improv_Melody,103,5,42,110,2589399484
7424,14,Improv_Melody,104,1,38,37,2589896524
7424,14,Improv_Melody,105,5,42,110,2589899256
7424,14,Improv_Melody,106,5,42,127,2590398816
7424,14,Improv_Melody,107,1,38,34,2590420188
7424,14,Improv_Melody,108,1,38,30,2590652960
7424,14,Improv_Melody,109,5,42,110,2590898720
7424,14,Improv_Melody,110,1,38,19,2590899684
7424,14,Improv_Melody,111,5,42,110,2591399140
7424,14,Improv_Melody,112,1,38,27,2591436168
7424,14,Improv_Melody,113,5,42,110,2591899064
7424,14,Improv_Melody,114,1,38,21,2591910856
7424,14,Improv_Melody,115,2,48,80,2592401192
7424,14,Improv_Melody,116,2,72,80,2592403500
7424,14,Improv_Melody,117,5,42,127,2592405808
7424,14,Improv_Melody,118,1,48,90,2592425236
7424,14,Improv_Melody,119,1,38,25,2592887656
7424,14,Improv_Melody,120,5,42,110,2592898692
7424,14,Improv_Melody,121,5,42,110,2593399076
7424,14,Improv_Melody,122,1,38,14,2593408700
7424,14,Improv_Melody,123,1,38,19,2593890728
7424,14,Improv_Melody,124,5,42,110,2593898992
7424,14,Improv_Melody,125,5,42,127,2594398772
7424,14,Improv_Melody,126,1,38,15,2594409748
7424,14,Improv_Melody,127,1,38,23,2594658676
7424,14,Improv_Melody,128,5,42,110,2594899496
7424,14,Improv_Melody,129,1,38,19,2594903664
7424,14,Improv_Melody,130,1,38,31,2595395408
7424,14,Improv_Melody,131,5,42,110,2595398968
7424,14,Improv_Melody,132,5,42,110,2595898824
7424,14,Improv_Melody,133,1,38,15,2595902316
7424,14,Improv_Melody,134,1,38,32,2596387776
7424,14,Improv_Melody,135,2,43,80,2596401252
7424,14,Improv_Melody,136,2,67,80,2596403400
7424,14,Improv_Melody,137,5,42,127,2596405860
7424,14,Improv_Melody,138,1,38,19,2596647592
7424,14,Improv_Melody,139,1,38,35,2596895696
7424,14,Improv_Melody,140,5,42,110,2596899328
7424,14,Improv_Melody,141,5,42,110,2597398884
7424,14,Improv_Melody,142,1,38,16,2597456008
7424,14,Improv_Melody,143,5,42,110,2597898508
7424,14,Improv_Melody,144,1,38,31,2597918304
7424,14,Improv_Melody,145,5,42,127,2598399332
7424,14,Improv_Melody,146,1,38,20,2598427956
7424,14,Improv_Melody,147,1,38,34,2598633200
7424,14,Improv_Melody,148,1,38,14,2598874804
7424,14,Improv_Melody,149,5,42,110,2598899000
7424,14,Improv_Melody,150,1,38,39,2599393652
7424,14,Improv_Melody,151,5,42,110,2599398628
7424,14,Improv_Melody,152,1,38,17,2599886020
7424,14,Improv_Melody,153,5,42,110,2599898548
7424,14,Improv_Melody,154,2,45,80,2600401808
7424,14,Improv_Melody,155,2,69,80,2600403956
7424,14,Improv_Melody,156,5,42,127,2600406572
7424,14,Improv_Melody,157,1,48,84,2600431684
7424,14,Improv_Melody,158,5,42,110,2600898868
7424,14,Improv_Melody,159,1,38,22,2600909840
7424,14,Improv_Melody,160,1,38,19,2601338284
7424,14,Improv_Melody,161,5,42,110,2601398708
7424,14,Improv_Melody,162,5,42,110,2601899536
7424,14,Improv_Melody,163,1,38,21,2602376524
7424,14,Improv_Melody,164,5,42,127,2602399076
7424,14,Improv_Melody,165,1,38,19,2602642460
7424,14,Improv_Melody,166,1,38,26,2602897248
7424,14,Improv_Melody,167,5,42,110,2602899580
7424,14,Improv_Melody,168,5,42,110,2603398460
7424,14,Improv_Melody,169,1,38,13,2603427756
7424,14,Improv_Melody,170,5,42,110,2603899432
7424,14,Improv_Melody,171,1,38,26,2603904200
7424,14,Improv_Melody,172,2,41,80,2604401412
7424,14,Improv_Melody,173,2,65,80,2604403488
7424,14,Improv_Melody,174,5,42,127,2604406176
7424,14,Improv_Melody,175,1,38,14,2604411688
7424,14,Improv_Melody,176,1,38,27,2604639452
7424,14,Improv_Melody,177,5,42,110,2604898972
7424,14,Improv_Melody,178,1,38,18,2604911144
7424,14,Improv_Melody,179,5,42,110,2605399348
7424,14,Improv_Melody,180,1,38,20,2605412640
7424,14,Improv_Melody,181,5,42,110,2605899416
7424,14,Improv_Melody,182,1,38,43,2605919064
7424,14,Improv_Melody,183,1,38,29,2606384636
7424,14,Improv_Melody,184,5,42,127,2606398740
7424,14,Improv_Melody,185,1,38,23,2606622824
7424,14,Improv_Melody,186,1,38,29,2606861876
7424,14,Improv_Melody,187,5,42,110,2606898568
7424,14,Improv_Melody,188,5,42,110,2607399544
7424,14,Improv_Melody,189,1,38,34,2607402364
7424,14,Improv_Melody,190,1,38,40,2607890296
7424,14,Improv_Melody,191,5,42,110,2607898940
7424,14,Improv_Melody,192,2,48,80,2608401148
7424,14,Improv_Melody,193,2,72,80,2608403300
7424,14,Improv_Melody,194,5,42,127,2608405916
7424,14,Improv_Melody,195,1,48,68,2608412704
7424,14,Improv_Melody,196,5,42,110,2608898360
7424,14,Improv_Melody,197,1,38,27,2608919204
7424,14,Improv_Melody,198,1,38,13,2609364656
7424,14,Improv_Melody,199,5,42,110,2609399400
7424,14,Improv_Melody,200,5,42,110,2609898880
7424,14,Improv_Melody,201,1,38,16,2610379556
7424,14,Improv_Melody,202,5,42,127,2610398524
7424,14,Improv_Melody,203,1,38,22,2610609516
7424,14,Improv_Melody,204,1,38,13,2610884176
7424,14,Improv_Melody,205,5,42,110,2610899544
7424,14,Improv_Melody,206,5,42,110,2611399324
7424,14,Improv_Melody,207,1,38,22,2611424212
7424,14,Improv_Melody,208,5,42,110,2611898728
7424,14,Improv_Melody,209,1,38,29,2611911644
7424,14,Improv_Melody,210,1,38,24,2612400784
7424,14,Improv_Melody,211,2,43,80,2612403400
7424,14,Improv_Melody,212,2,67,80,2612405248
7424,14,Improv_Melody,213,5,42,127,2612407712
7424,14,Improv_Melody,214,1,38,24,2612655652
7424,14,Improv_Melody,215,1,38,23,2612889748
7424,14,Improv_Melody,216,5,42,110,2612899432
7424,14,Improv_Melody,217,5,42,110,2613398844
7424,14,Improv_Melody,218,1,38,24,2613426372
7424,14,Improv_Melody,219,5,42,110,2613898616
7424,14,Improv_Melody,220,1,38,30,2613911088
7424,14,Improv_Melody,221,5,42,127,2614399436
7424,14,Improv_Melody,222,1,38,17,2614425968
7424,14,Improv_Melody,223,1,38,24,2614642288
7424,14,Improv_Melody,224,5,42,110,2614899264
7424,14,Improv_Melody,225,1,38,15,2614906052
7424,14,Improv_Melody,226,5,42,110,2615398740
7424,14,Improv_Melody,227,1,38,29,2615410012
7424,14,Improv_Melody,228,1,38,16,2615876548
7424,14,Improv_Melody,229,5,42,110,2615898360
7424,14,Improv_Melody,230,1,48,55,2616389340
7424,14,Improv_Melody,231,2,45,80,2616402064
7424,14,Improv_Melody,232,2,69,80,2616404140
7424,14,Improv_Melody,233,5,42,127,2616406524
7424,14,Improv_Melody,234,1,38,24,2616611160
7424,14,Improv_Melody,235,1,38,17,2616893524
7424,14,Improv_Melody,236,5,42,110,2616898872
7424,14,Improv_Melody,237,5,42,110,2617398652
7424,14,Improv_Melody,238,1,38,24,2617455928
7424,14,Improv_Melody,239,5,42,110,2617899328
7424,14,Improv_Melody,240,1,38,21,2617914860
7424,14,Improv_Melody,241,1,38,16,2618398348
7424,14,Improv_Melody,242,5,42,127,2618400588
7424,14,Improv_Melody,243,1,38,19,2618672692
7424,14,Improv_Melody,244,5,42,110,2618898780
7424,14,Improv_Melody,245,1,38,34,2618917908
7424,14,Improv_Melody,246,1,38,16,2619391032
7424,14,Improv_Melody,247,5,42,110,2619398400
7424,14,Improv_Melody,248,1,38,40,2619882424
7424,14,Improv_Melody,249,5,42,110,2619899368
7424,14,Improv_Melody,250,1,48,54,2620370312
7424,14,Improv_Melody,251,1,38,16,2620377620
7424,14,Improv_Melody,252,2,41,80,2620401632
7424,14,Improv_Melody,253,2,65,80,2620403936
7424,14,Improv_Melody,254,5,42,127,2620406468
7424,14,Improv_Melody,255,1,38,18,2620845368
7424,14,Improv_Melody,256,5,42,110,2620898736
7424,14,Improv_Melody,257,5,42,110,2621399268
7424,14,Improv_Melody,258,1,38,13,2621893184
7424,14,Improv_Melody,259,5,42,110,2621899056
7424,14,Improv_Melody,260,1,38,28,2622383832
7424,14,Improv_Melody,261,5,42,127,2622398760
7424,14,Improv_Melody,262,1,38,20,2622633360
7424,14,Improv_Melody,263,5,42,110,2622898492
7424,14,Improv_Melody,264,1,38,27,2622900128
7424,14,Improv_Melody,265,5,42,110,2623399288
7424,14,Improv_Melody,266,1,38,17,2623441032
7424,14,Improv_Melody,267,1,38,43,2623875904
7424,14,Improv_Melody,268,5,42,110,2623899204
7424,14,Improv_Melody,269,1,48,22,2624373064
7424,14,Improv_Melody,270,1,48,35,2624377528
7424,14,Improv_Melody,271,1,38,13,2624380800
7424,14,Improv_Melody,272,2,48,80,2624401300
7424,14,Improv_Melody,273,2,72,80,2624403148
7424,14,Improv_Melody,274,5,42,127,2624405688
7424,14,Improv_Melody,275,1,38,37,2624601916
7424,14,Improv_Melody,276,1,38,21,2624889664
7424,14,Improv_Melody,277,5,42,110,2624898528
7424,14,Improv_Melody,278,5,42,110,2625399136
7424,14,Improv_Melody,279,1,38,20,2625454416
7424,14,Improv_Melody,280,5,42,110,2625898912
7424,14,Improv_Melody,281,1,38,18,2625934264
7424,14,Improv_Melody,282,5,42,127,2626398464
7424,14,Improv_Melody,283,1,38,22,2626447580
7424,14,Improv_Melody,284,1,38,20,2626690156
7424,14,Improv_Melody,285,5,42,110,2626899408
7424,14,Improv_Melody,286,1,38,19,2626929084
7424,14,Improv_Melody,287,5,42,110,2627399108
7424,14,Improv_Melody,288,1,38,19,2627403952
7424,14,Improv_Melody,289,5,42,110,2627898588
7424,14,Improv_Melody,290,1,38,19,2627909556
7424,14,Improv_Melody,291,1,48,21,2628356800
7424,14,Improv_Melody,292,2,43,80,2628400628
7424,14,Improv_Melody,293,2,67,80,2628403012
7424,14,Improv_Melody,294,5,42,127,2628405400
7424,14,Improv_Melody,295,1,38,19,2628628880
7424,14,Improv_Melody,296,1,38,24,2628884020
7424,14,Improv_Melody,297,5,42,110,2628899092
7424,14,Improv_Melody,298,5,42,110,2629398872
7424,14,Improv_Melody,299,1,38,17,2629424804
7424,14,Improv_Melody,300,5,42,110,2629898572
7424,14,Improv_Melody,301,1,38,17,2629920844
7424,14,Improv_Melody,302,1,38,29,2630397124
7424,14,Improv_Melody,303,5,42,127,2630399240
7424,14,Improv_Melody,304,1,38,17,2630653988
7424,14,Improv_Melody,305,5,42,110,2630898924
7424,14,Improv_Melody,306,1,38,32,2630915432
7424,14,Improv_Melody,307,1,38,19,2631397180
7424,14,Improv_Melody,308,5,42,110,2631399516
7424,14,Improv_Melody,309,1,38,39,2631872920
7424,14,Improv_Melody,310,5,42,110,2631898540
7424,14,Improv_Melody,311,1,48,30,2632387204
7424,14,Improv_Melody,312,2,45,80,2632401948
7424,14,Improv_Melody,313,2,69,80,2632403944
7424,14,Improv_Melody,314,5,42,127,2632406780
7424,14,Improv_Melody,315,1,38,25,2632650912
7424,14,Improv_Melody,316,5,42,110,2632898984
7424,14,Improv_Melody,317,1,38,22,2632908088
7424,14,Improv_Melody,318,5,42,110,2633398612
7424,14,Improv_Melody,319,1,38,35,2633405020
7424,14,Improv_Melody,320,5,42,110,2633899284
7424,14,Improv_Melody,321,1,38,23,2633916836
7424,14,Improv_Melody,322,5,42,127,2634399032
7424,14,Improv_Melody,323,1,38,33,2634403276
7424,14,Improv_Melody,324,1,38,23,2634659456
7424,14,Improv_Melody,325,5,42,110,2634898860
7424,14,Improv_Melody,326,1,38,18,2634912004
7424,14,Improv_Melody,327,5,42,110,2635398412
7424,14,Improv_Melody,328,1,38,19,2635407360
7424,14,Improv_Melody,329,1,38,32,2635885796
7424,14,Improv_Melody,330,5,42,110,2635899224
7424,14,Improv_Melody,331,2,41,80,2636401512
7424,14,Improv_Melody,332,2,65,80,2636403660
7424,14,Improv_Melody,333,1,48,108,2636405672
7424,14,Improv_Melody,334,5,42,127,2636407760
7424,14,Improv_Melody,335,1,38,33,2636650844
7424,14,Improv_Melody,336,5,42,110,2636898844
7424,14,Improv_Melody,337,1,38,19,2636915500
7424,14,Improv_Melody,338,5,42,110,2637399444
7424,14,Improv_Melody,339,5,42,110,2637899088
7424,14,Improv_Melody,340,1,38,16,2637917164
7424,14,Improv_Melody,341,1,38,16,2638382516
7424,14,Improv_Melody,342,5,42,127,2638399080
7424,14,Improv_Melody,343,1,38,19,2638649644
7424,14,Improv_Melody,344,5,42,110,2638898396
7424,14,Improv_Melody,345,1,38,23,2638904204
7424,14,Improv_Melody,346,5,42,110,2639399288
7424,14,Improv_Melody,347,1,38,19,2639434572
7424,14,Improv_Melody,348,5,42,110,2639899068
7424,14,Improv_Melody,349,1,38,28,2639909664
7424,14,Improv_Melody,350,2,48,80,2640401272
7424,14,Improv_Melody,351,2,72,80,2640403576
7424,14,Improv_Melody,352,5,42,127,2640406036
7424,14,Improv_Melody,353,1,48,114,2640410128
7424,14,Improv_Melody,354,1,38,32,2640640804
7424,14,Improv_Melody,355,5,42,110,2640898604
7424,14,Improv_Melody,356,1,38,23,2640913844
7424,14,Improv_Melody,0,9999,9999,9999,2560396360
7424,14,Improv_Melody,1,9999,9999,9999,2560896120
7424,14,Improv_Melody,2,9999,9999,9999,2561396816
7424,14,Improv_Melody,3,9999,9999,9999,2561896536
7424,14,Improv_Melody,4,9999,9999,9999,2562396260
7424,14,Improv_Melody,5,9999,9999,9999,2562896956
7424,14,Improv_Melody,6,9999,9999,9999,2563396676
7424,14,Improv_Melody,7,9999,9999,9999,2563896396
7424,14,Improv_Melody,8,9999,9999,9999,2564396120
7424,14,Improv_Melody,9,9999,9999,9999,2564896828
7424,14,Improv_Melody,10,9999,9999,9999,2565396548
7424,14,Improv_Melody,11,9999,9999,9999,2565896272
7424,14,Improv_Melody,12,9999,9999,9999,2566397040
7424,14,Improv_Melody,13,9999,9999,9999,2566896760
7424,14,Improv_Melody,14,9999,9999,9999,2567396408
7424,14,Improv_Melody,15,9999,9999,9999,2567896128
7424,14,Improv_Melody,16,9999,9999,9999,2568396896
7424,14,Improv_Melody,17,9999,9999,9999,2568896632
7424,14,Improv_Melody,18,9999,9999,9999,2569396280
7424,14,Improv_Melody,19,9999,9999,9999,2569897024
7424,14,Improv_Melody,20,9999,9999,9999,2570396744
7424,14,Improv_Melody,21,9999,9999,9999,2570896468
7424,14,Improv_Melody,22,9999,9999,9999,2571396188
7424,14,Improv_Melody,23,9999,9999,9999,2571896884
7424,14,Improv_Melody,24,9999,9999,9999,2572396604
7424,14,Improv_Melody,25,9999,9999,9999,2572896340
7424,14,Improv_Melody,26,9999,9999,9999,2573397108
7424,14,Improv_Melody,27,9999,9999,9999,2573896756
7424,14,Improv_Melody,28,9999,9999,9999,2574396480
7424,14,Improv_Melody,29,9999,9999,9999,2574896200
7424,14,Improv_Melody,30,9999,9999,9999,2575396968
7424,14,Improv_Melody,31,9999,9999,9999,2575896692
7424,14,Improv_Melody,32,9999,9999,9999,2576396340
7424,14,Improv_Melody,33,9999,9999,9999,2576896076
7424,14,Improv_Melody,34,9999,9999,9999,2577396844
7424,14,Improv_Melody,35,9999,9999,9999,2577896564
7424,14,Improv_Melody,36,9999,9999,9999,2578396280
7424,14,Improv_Melody,37,9999,9999,9999,2578897012
7424,14,Improv_Melody,38,9999,9999,9999,2579396704
7424,14,Improv_Melody,39,9999,9999,9999,2579896404
7424,14,Improv_Melody,40,9999,9999,9999,2580396112
7424,14,Improv_Melody,41,9999,9999,9999,2580896844
7424,14,Improv_Melody,42,9999,9999,9999,2581396584
7424,14,Improv_Melody,43,9999,9999,9999,2581896248
7424,14,Improv_Melody,44,9999,9999,9999,2582396992
7424,14,Improv_Melody,45,9999,9999,9999,2582896744
7424,14,Improv_Melody,46,9999,9999,9999,2583396440
7424,14,Improv_Melody,47,9999,9999,9999,2583896140
7424,14,Improv_Melody,48,9999,9999,9999,2584396888
7424,14,Improv_Melody,49,9999,9999,9999,2584896580
7424,14,Improv_Melody,50,9999,9999,9999,2585396280
7424,14,Improv_Melody,51,9999,9999,9999,2585897024
7424,14,Improv_Melody,52,9999,9999,9999,2586396784
7424,14,Improv_Melody,53,9999,9999,9999,2586896464
7424,14,Improv_Melody,54,9999,9999,9999,2587396164
7424,14,Improv_Melody,55,9999,9999,9999,2587896904
7424,14,Improv_Melody,56,9999,9999,9999,2588396604
7424,14,Improv_Melody,57,9999,9999,9999,2588896376
7424,14,Improv_Melody,58,9999,9999,9999,2589397040
7424,14,Improv_Melody,59,9999,9999,9999,2589896816
7424,14,Improv_Melody,60,9999,9999,9999,2590396524
7424,14,Improv_Melody,61,9999,9999,9999,2590896204
7424,14,Improv_Melody,62,9999,9999,9999,2591396924
7424,14,Improv_Melody,63,9999,9999,9999,2591896696
7424,14,Improv_Melody,64,9999,9999,9999,2592396396
7424,14,Improv_Melody,65,9999,9999,9999,2592896104
7424,14,Improv_Melody,66,9999,9999,9999,2593396856
7424,14,Improv_Melody,67,9999,9999,9999,2593896548
7424,14,Improv_Melody,68,9999,9999,9999,2594396256
7424,14,Improv_Melody,69,9999,9999,9999,2594896980
7424,14,Improv_Melody,70,9999,9999,9999,2595396676
7424,14,Improv_Melody,71,9999,9999,9999,2595896380
7424,14,Improv_Melody,72,9999,9999,9999,2596396148
7424,14,Improv_Melody,73,9999,9999,9999,2596896884
7424,14,Improv_Melody,74,9999,9999,9999,2597396592
7424,14,Improv_Melody,75,9999,9999,9999,2597896292
7424,14,Improv_Melody,76,9999,9999,9999,2598397036
7424,14,Improv_Melody,77,9999,9999,9999,2598896708
7424,14,Improv_Melody,78,9999,9999,9999,2599396408
7424,14,Improv_Melody,79,9999,9999,9999,2599896184
7424,14,Improv_Melody,80,9999,9999,9999,2600396860
7424,14,Improv_Melody,81,9999,9999,9999,2600896572
7424,14,Improv_Melody,82,9999,9999,9999,2601396340
7424,14,Improv_Melody,83,9999,9999,9999,2601897068
7424,14,Improv_Melody,84,9999,9999,9999,2602396784
7424,14,Improv_Melody,85,9999,9999,9999,2602896468
7424,14,Improv_Melody,86,9999,9999,9999,2603396168
7424,14,Improv_Melody,87,9999,9999,9999,2603896916
7424,14,Improv_Melody,88,9999,9999,9999,2604396616
7424,14,Improv_Melody,89,9999,9999,9999,2604896304
7424,14,Improv_Melody,90,9999,9999,9999,2605397052
7424,14,Improv_Melody,91,9999,9999,9999,2605896824
7424,14,Improv_Melody,92,9999,9999,9999,2606396520
7424,14,Improv_Melody,93,9999,9999,9999,2606896200
7424,14,Improv_Melody,94,9999,9999,9999,2607396952
7424,14,Improv_Melody,95,9999,9999,9999,2607896648
7424,14,Improv_Melody,96,9999,9999,9999,2608396356
7424,14,Improv_Melody,97,9999,9999,9999,2608896068
7424,14,Improv_Melody,98,9999,9999,9999,2609396808
7424,14,Improv_Melody,99,9999,9999,9999,2609896516
7424,14,Improv_Melody,100,9999,9999,9999,2610396228
7424,14,Improv_Melody,101,9999,9999,9999,2610896956
7424,14,Improv_Melody,102,9999,9999,9999,2611396660
7424,14,Improv_Melody,103,9999,9999,9999,2611896436
7424,14,Improv_Melody,104,9999,9999,9999,2612396136
7424,14,Improv_Melody,105,9999,9999,9999,2612896844
7424,14,Improv_Melody,106,9999,9999,9999,2613396552
7424,14,Improv_Melody,107,9999,9999,9999,2613896248
7424,14,Improv_Melody,108,9999,9999,9999,2614396996
7424,14,Improv_Melody,109,9999,9999,9999,2614896748
7424,14,Improv_Melody,110,9999,9999,9999,2615396448
7424,14,Improv_Melody,111,9999,9999,9999,2615896140
7424,14,Improv_Melody,112,9999,9999,9999,2616396888
7424,14,Improv_Melody,113,9999,9999,9999,2616896580
7424,14,Improv_Melody,114,9999,9999,9999,2617396288
7424,14,Improv_Melody,115,9999,9999,9999,2617897032
7424,14,Improv_Melody,116,9999,9999,9999,2618396736
7424,14,Improv_Melody,117,9999,9999,9999,2618896488
7424,14,Improv_Melody,118,9999,9999,9999,2619396180
7424,14,Improv_Melody,119,9999,9999,9999,2619896928
7424,14,Improv_Melody,120,9999,9999,9999,2620396608
7424,14,Improv_Melody,121,9999,9999,9999,2620896368
7424,14,Improv_Melody,122,9999,9999,9999,2621397048
7424,14,Improv_Melody,123,9999,9999,9999,2621896764
7424,14,Improv_Melody,124,9999,9999,9999,2622396464
7424,14,Improv_Melody,125,9999,9999,9999,2622896200
7424,14,Improv_Melody,126,9999,9999,9999,2623396920
7424,14,Improv_Melody,127,9999,9999,9999,2623896692
7424,14,Improv_Melody,128,9999,9999,9999,2624396352
7424,14,Improv_Melody,129,9999,9999,9999,2624896088
7424,14,Improv_Melody,130,9999,9999,9999,2625396840
7424,14,Improv_Melody,131,9999,9999,9999,2625896544
7424,14,Improv_Melody,132,9999,9999,9999,2626396244
7424,14,Improv_Melody,133,9999,9999,9999,2626896968
7424,14,Improv_Melody,134,9999,9999,9999,2627396668
7424,14,Improv_Melody,135,9999,9999,9999,2627896368
7424,14,Improv_Melody,136,9999,9999,9999,2628396136
7424,14,Improv_Melody,137,9999,9999,9999,2628896872
7424,14,Improv_Melody,138,9999,9999,9999,2629396580
7424,14,Improv_Melody,139,9999,9999,9999,2629896280
7424,14,Improv_Melody,140,9999,9999,9999,2630396988
7424,14,Improv_Melody,141,9999,9999,9999,2630896704
7424,14,Improv_Melody,142,9999,9999,9999,2631396404
7424,14,Improv_Melody,143,9999,9999,9999,2631896172
7424,14,Improv_Melody,144,9999,9999,9999,2632396920
7424,14,Improv_Melody,145,9999,9999,9999,2632896620
7424,14,Improv_Melody,146,9999,9999,9999,2633396320
7424,14,Improv_Melody,147,9999,9999,9999,2633897064
7424,14,Improv_Melody,148,9999,9999,9999,2634396740
7424,14,Improv_Melody,149,9999,9999,9999,2634896492
7424,14,Improv_Melody,150,9999,9999,9999,2635396192
7424,14,Improv_Melody,151,9999,9999,9999,2635896932
7424,14,Improv_Melody,152,9999,9999,9999,2636396640
7424,14,Improv_Melody,153,9999,9999,9999,2636896328
7424,14,Improv_Melody,154,9999,9999,9999,2637397076
7424,14,Improv_Melody,155,9999,9999,9999,2637896796
7424,14,Improv_Melody,156,9999,9999,9999,2638396492
7424,14,Improv_Melody,157,9999,9999,9999,2638896176
7424,14,Improv_Melody,158,9999,9999,9999,2639396924
7424,14,Improv_Melody,159,9999,9999,9999,2639896624
7424,14,Improv_Melody,160,9999,9999,9999,2640396400
7424,14,Improv_Melody,161,9999,9999,9999,2640896092
74