pid,taskRunCount,taskID,taskName,i,channel,pitch,velocity,microseconds
81,1,0,Ticks_Pract_8,0,5,42,127,70238532
81,1,0,Ticks_Pract_8,1,1,48,65,71022692
81,1,0,Ticks_Pract_8,2,5,42,127,71039624
81,1,0,Ticks_Pract_8,3,1,48,63,71789432
81,1,0,Ticks_Pract_8,4,5,42,127,71838984
81,1,0,Ticks_Pract_8,5,1,48,61,72624176
81,1,0,Ticks_Pract_8,6,5,42,127,72638944
81,1,0,Ticks_Pract_8,7,5,42,127,73438536
81,1,0,Ticks_Pract_8,8,1,48,48,73444644
81,1,0,Ticks_Pract_8,9,1,48,51,74169636
81,1,0,Ticks_Pract_8,10,5,42,127,74239456
81,1,0,Ticks_Pract_8,11,1,48,59,75027640
81,1,0,Ticks_Pract_8,12,5,42,127,75039116
81,1,0,Ticks_Pract_8,13,1,48,59,75821008
81,1,0,Ticks_Pract_8,14,5,42,127,75838796
81,1,0,Ticks_Pract_8,15,1,48,56,76626452
81,1,0,Ticks_Pract_8,16,5,42,127,76638680
81,1,0,Ticks_Pract_8,17,1,48,55,77416616
81,1,0,Ticks_Pract_8,18,5,42,127,77439460
81,1,0,Ticks_Pract_8,19,1,48,61,78181864
81,1,0,Ticks_Pract_8,20,5,42,127,78239268
81,1,0,Ticks_Pract_8,21,1,48,52,79022144
81,1,0,Ticks_Pract_8,22,5,42,127,79038780
81,1,0,Ticks_Pract_8,23,1,48,53,79809452
81,1,0,Ticks_Pract_8,24,5,42,127,79838512
81,1,0,Ticks_Pract_8,25,1,48,50,80620784
81,1,0,Ticks_Pract_8,26,5,42,127,80639368
81,1,0,Ticks_Pract_8,27,1,48,52,81424252
81,1,0,Ticks_Pract_8,28,5,42,127,81439100
81,1,0,Ticks_Pract_8,29,1,48,57,82190780
81,1,0,Ticks_Pract_8,30,5,42,127,82238784
81,1,0,Ticks_Pract_8,31,5,42,127,83038452
81,1,0,Ticks_Pract_8,32,1,48,57,83073284
81,1,0,Ticks_Pract_8,33,5,42,127,83839380
81,1,0,Ticks_Pract_8,34,1,48,60,83844220
81,1,0,Ticks_Pract_8,35,1,48,60,84637984
81,1,0,Ticks_Pract_8,36,5,42,127,84639332
81,1,0,Ticks_Pract_8,37,1,48,53,85437184
81,1,0,Ticks_Pract_8,38,5,42,127,85438692
81,1,0,Ticks_Pract_8,39,5,42,127,86238432
81,1,0,Ticks_Pract_8,40,1,48,52,86242072
81,1,0,Ticks_Pract_8,41,1,48,47,87034384
81,1,0,Ticks_Pract_8,42,5,42,127,87039204
81,1,0,Ticks_Pract_8,43,1,48,45,87781160
81,1,0,Ticks_Pract_8,44,5,42,127,87839160
81,1,0,Ticks_Pract_8,45,5,42,127,88638780
81,1,0,Ticks_Pract_8,46,1,48,46,88651096
81,1,0,Ticks_Pract_8,47,1,48,50,89434432
81,1,0,Ticks_Pract_8,48,5,42,127,89438580
81,1,0,Ticks_Pract_8,49,1,48,54,90188464
81,1,0,Ticks_Pract_8,50,5,42,127,90239432
81,1,0,Ticks_Pract_8,51,1,48,62,91038572
81,1,0,Ticks_Pract_8,52,5,42,127,91039992
81,1,0,Ticks_Pract_8,53,1,48,37,91107120
81,1,0,Ticks_Pract_8,54,5,42,127,91839032
81,1,0,Ticks_Pract_8,55,1,48,55,91862052
81,1,0,Ticks_Pract_8,56,1,48,52,92630948
81,1,0,Ticks_Pract_8,57,5,42,127,92638540
81,1,0,Ticks_Pract_8,58,1,48,54,93404280
81,1,0,Ticks_Pract_8,59,5,42,127,93439396
81,1,0,Ticks_Pract_8,60,1,48,61,94196604
81,1,0,Ticks_Pract_8,0,9999,9999,9999,70236244
81,1,0,Ticks_Pract_8,1,9999,9999,9999,71037040
81,1,0,Ticks_Pract_8,2,9999,9999,9999,71836772
81,1,0,Ticks_Pract_8,3,9999,9999,9999,72636508
81,1,0,Ticks_Pract_8,4,9999,9999,9999,73436248
81,1,0,Ticks_Pract_8,5,9999,9999,9999,74237020
81,1,0,Ticks_Pract_8,6,9999,9999,9999,75036752
81,1,0,Ticks_Pract_8,7,9999,9999,9999,75836512
81,1,0,Ticks_Pract_8,8,9999,9999,9999,76636244
81,1,0,Ticks_Pract_8,9,9999,9999,9999,77437024
81,1,0,Ticks_Pract_8,10,9999,9999,9999,78236756
81,1,0,Ticks_Pract_8,11,9999,9999,9999,79036492
81,1,0,Ticks_Pract_8,12,9999,9999,9999,79836224
81,1,0,Ticks_Pract_8,13,9999,9999,9999,80637004
81,1,0,Ticks_Pract_8,14,9999,9999,9999,81436740
81,1,0,Ticks_Pract_8,15,9999,9999,9999,82236496
81,1,0,Ticks_Pract_8,16,9999,9999,9999,83036236
81,1,0,Ticks_Pract_8,17,9999,9999,9999,83837016
81,1,0,Ticks_Pract_8,18,9999,9999,9999,84636752
81,1,0,Ticks_Pract_8,19,9999,9999,9999,85436492
81,1,0,Ticks_Pract_8,20,9999,9999,9999,86236220
81,1,0,Ticks_Pract_8,21,9999,9999,9999,87036992
81,1,0,Ticks_Pract_8,22,9999,9999,9999,87836724
81,1,0,Ticks_Pract_8,23,9999,9999,9999,88636492
81,1,0,Ticks_Pract_8,24,9999,9999,9999,89436220
81,1,0,Ticks_Pract_8,25,9999,9999,9999,90236996
81,1,0,Ticks_Pract_8,26,9999,9999,9999,91036736
81,1,0,Ticks_Pract_8,27,9999,9999,9999,91836524
81,1,0,Ticks_Pract_8,28,9999,9999,9999,92636252
81,1,0,Ticks_Pract_8,29,9999,9999,9999,93437032
81,2,1,Ticks_Pract_5,0,5,42,127,119293468
81,2,1,Ticks_Pract_5,1,5,42,127,119793032
81,2,1,Ticks_Pract_5,2,5,42,127,120292676
81,2,1,Ticks_Pract_5,3,1,48,48,120768940
81,2,1,Ticks_Pract_5,4,5,42,127,120792384
81,2,1,Ticks_Pract_5,5,1,48,58,121223904
81,2,1,Ticks_Pract_5,6,5,42,127,121293276
81,2,1,Ticks_Pract_5,7,1,48,43,121739312
81,2,1,Ticks_Pract_5,8,5,42,127,121792896
81,2,1,Ticks_Pract_5,9,1,48,52,122258300
81,2,1,Ticks_Pract_5,10,5,42,127,122292516
81,2,1,Ticks_Pract_5,11,1,48,48,122783052
81,2,1,Ticks_Pract_5,12,5,42,127,122793628
81,2,1,Ticks_Pract_5,13,1,48,40,123282600
81,2,1,Ticks_Pract_5,14,5,42,127,123293252
81,2,1,Ticks_Pract_5,15,1,48,53,123739808
81,2,1,Ticks_Pract_5,16,5,42,127,123792724
81,2,1,Ticks_Pract_5,17,1,48,51,124226184
81,2,1,Ticks_Pract_5,18,5,42,127,124292416
81,2,1,Ticks_Pract_5,19,1,48,50,124739124
81,2,1,Ticks_Pract_5,20,5,42,127,124793160
81,2,1,Ticks_Pract_5,21,1,48,46,125245168
81,2,1,Ticks_Pract_5,22,5,42,127,125292852
81,2,1,Ticks_Pract_5,23,1,48,56,125748584
81,2,1,Ticks_Pract_5,24,5,42,127,125792548
81,2,1,Ticks_Pract_5,25,1,48,47,126242736
81,2,1,Ticks_Pract_5,26,5,42,127,126293584
81,2,1,Ticks_Pract_5,27,1,48,47,126724632
81,2,1,Ticks_Pract_5,28,5,42,127,126793428
81,2,1,Ticks_Pract_5,29,1,48,49,127235472
81,2,1,Ticks_Pract_5,30,5,42,127,127292752
81,2,1,Ticks_Pract_5,31,1,48,48,127746008
81,2,1,Ticks_Pract_5,32,5,42,127,127792644
81,2,1,Ticks_Pract_5,33,1,48,45,128236580
81,2,1,Ticks_Pract_5,34,5,42,127,128293308
81,2,1,Ticks_Pract_5,35,1,48,48,128728648
81,2,1,Ticks_Pract_5,36,5,42,127,128792928
81,2,1,Ticks_Pract_5,37,1,48,55,129202312
81,2,1,Ticks_Pract_5,38,5,42,127,129292772
81,2,1,Ticks_Pract_5,39,1,48,46,129741720
81,2,1,Ticks_Pract_5,40,5,42,127,129793368
81,2,1,Ticks_Pract_5,41,1,48,48,130249272
81,2,1,Ticks_Pract_5,42,5,42,127,130293284
81,2,1,Ticks_Pract_5,43,1,48,42,130725404
81,2,1,Ticks_Pract_5,44,5,42,127,130792756
81,2,1,Ticks_Pract_5,45,1,48,36,131243428
81,2,1,Ticks_Pract_5,46,5,42,127,131292604
81,2,1,Ticks_Pract_5,47,1,48,45,131742596
81,2,1,Ticks_Pract_5,48,5,42,127,131793344
81,2,1,Ticks_Pract_5,49,1,48,48,132218584
81,2,1,Ticks_Pract_5,50,5,42,127,132292964
81,2,1,Ticks_Pract_5,51,1,48,58,132744456
81,2,1,Ticks_Pract_5,52,5,42,127,132792660
81,2,1,Ticks_Pract_5,53,1,48,48,133242800
81,2,1,Ticks_Pract_5,54,5,42,127,133293476
81,2,1,Ticks_Pract_5,55,1,48,54,133759704
81,2,1,Ticks_Pract_5,56,5,42,127,133793244
81,2,1,Ticks_Pract_5,57,1,48,51,134241376
81,2,1,Ticks_Pract_5,58,5,42,127,134292940
81,2,1,Ticks_Pract_5,59,1,48,53,134747724
81,2,1,Ticks_Pract_5,60,5,42,127,134792412
81,2,1,Ticks_Pract_5,61,1,48,52,135219348
81,2,1,Ticks_Pract_5,62,5,42,127,135293156
81,2,1,Ticks_Pract_5,63,1,48,54,135706392
81,2,1,Ticks_Pract_5,64,5,42,127,135793144
81,2,1,Ticks_Pract_5,65,1,48,50,136215964
81,2,1,Ticks_Pract_5,66,5,42,127,136292692
81,2,1,Ticks_Pract_5,67,1,48,51,136736908
81,2,1,Ticks_Pract_5,68,5,42,127,136792388
81,2,1,Ticks_Pract_5,69,1,48,46,137193288
81,2,1,Ticks_Pract_5,70,5,42,127,137293260
81,2,1,Ticks_Pract_5,71,1,48,52,137717372
81,2,1,Ticks_Pract_5,72,5,42,127,137793048
81,2,1,Ticks_Pract_5,73,1,48,50,138237784
81,2,1,Ticks_Pract_5,74,5,42,127,138292644
81,2,1,Ticks_Pract_5,75,1,48,54,138714440
81,2,1,Ticks_Pract_5,76,5,42,127,138793308
81,2,1,Ticks_Pract_5,77,1,48,52,139207032
81,2,1,Ticks_Pract_5,0,9999,9999,9999,119290956
81,2,1,Ticks_Pract_5,1,9999,9999,9999,119790672
81,2,1,Ticks_Pract_5,2,9999,9999,9999,120290388
81,2,1,Ticks_Pract_5,3,9999,9999,9999,120790100
81,2,1,Ticks_Pract_5,4,9999,9999,9999,121290840
81,2,1,Ticks_Pract_5,5,9999,9999,9999,121790536
81,2,1,Ticks_Pract_5,6,9999,9999,9999,122290232
81,2,1,Ticks_Pract_5,7,9999,9999,9999,122790972
81,2,1,Ticks_Pract_5,8,9999,9999,9999,123290744
81,2,1,Ticks_Pract_5,9,9999,9999,9999,123790436
81,2,1,Ticks_Pract_5,10,9999,9999,9999,124290132
81,2,1,Ticks_Pract_5,11,9999,9999,9999,124790872
81,2,1,Ticks_Pract_5,12,9999,9999,9999,125290568
81,2,1,Ticks_Pract_5,13,9999,9999,9999,125790260
81,2,1,Ticks_Pract_5,14,9999,9999,9999,126291000
81,2,1,Ticks_Pract_5,15,9999,9999,9999,126790772
81,2,1,Ticks_Pract_5,16,9999,9999,9999,127290464
81,2,1,Ticks_Pract_5,17,9999,9999,9999,127790132
81,2,1,Ticks_Pract_5,18,9999,9999,9999,128290876
81,2,1,Ticks_Pract_5,19,9999,9999,9999,128790644
81,2,1,Ticks_Pract_5,20,9999,9999,9999,129290340
81,2,1,Ticks_Pract_5,21,9999,9999,9999,129791080
81,2,1,Ticks_Pract_5,22,9999,9999,9999,130290776
81,2,1,Ticks_Pract_5,23,9999,9999,9999,130790472
81,2,1,Ticks_Pract_5,24,9999,9999,9999,131290168
81,2,1,Ticks_Pract_5,25,9999,9999,9999,131790908
81,2,1,Ticks_Pract_5,26,9999,9999,9999,132290680
81,2,1,Ticks_Pract_5,27,9999,9999,9999,132790372
81,2,1,Ticks_Pract_5,28,9999,9999,9999,133291116
81,2,1,Ticks_Pract_5,29,9999,9999,9999,133790812
81,2,1,Ticks_Pract_5,30,9999,9999,9999,134290508
81,2,1,Ticks_Pract_5,31,9999,9999,9999,134790200
81,2,1,Ticks_Pract_5,32,9999,9999,9999,135290944
81,2,1,Ticks_Pract_5,33,9999,9999,9999,135790708
81,2,1,Ticks_Pract_5,34,9999,9999,9999,136290404
81,2,1,Ticks_Pract_5,35,9999,9999,9999,136790100
81,2,1,Ticks_Pract_5,36,9999,9999,9999,137290828
81,2,1,Ticks_Pract_5,37,9999,9999,9999,137790536
81,2,1,Ticks_Pract_5,38,9999,9999,9999,138290284
81,2,1,Ticks_Pract_5,39,9999,9999,9999,138791024
81,3,2,T1_SMS_8,0,5,42,127,234822032
81,3,2,T1_SMS_8,1,5,42,127,235621716
81,3,2,T1_SMS_8,2,1,48,60,235716308
81,3,2,T1_SMS_8,3,5,42,127,236421448
81,3,2,T1_SMS_8,4,1,48,68,236487620
81,3,2,T1_SMS_8,5,5,42,127,237222152
81,3,2,T1_SMS_8,6,1,48,61,237231780
81,3,2,T1_SMS_8,7,1,48,54,237959016
81,3,2,T1_SMS_8,8,5,42,127,238022104
81,3,2,T1_SMS_8,9,1,48,73,238769968
81,3,2,T1_SMS_8,10,5,42,127,238821688
81,3,2,T1_SMS_8,11,1,48,76,239580176
81,3,2,T1_SMS_8,12,5,42,127,239621572
81,3,2,T1_SMS_8,13,1,48,68,240388436
81,3,2,T1_SMS_8,14,5,42,127,240422128
81,3,2,T1_SMS_8,15,1,48,73,241201880
81,3,2,T1_SMS_8,16,5,42,127,241222036
81,3,2,T1_SMS_8,17,1,48,80,241959924
81,3,2,T1_SMS_8,18,5,42,127,242021844
81,3,2,T1_SMS_8,19,1,48,68,242779056
81,3,2,T1_SMS_8,20,5,42,127,242821428
81,3,2,T1_SMS_8,21,1,48,78,243555604
81,3,2,T1_SMS_8,22,5,42,127,243622132
81,3,2,T1_SMS_8,23,1,48,64,244381968
81,3,2,T1_SMS_8,24,5,42,127,244422092
81,3,2,T1_SMS_8,25,1,48,71,245148716
81,3,2,T1_SMS_8,26,5,42,127,245221824
81,3,2,T1_SMS_8,27,1,48,57,245962728
81,3,2,T1_SMS_8,28,5,42,127,246021336
81,3,2,T1_SMS_8,29,1,48,73,246788944
81,3,2,T1_SMS_8,30,5,42,127,246822340
81,3,2,T1_SMS_8,31,1,48,79,247618100
81,3,2,T1_SMS_8,32,5,42,127,247621948
81,3,2,T1_SMS_8,33,5,42,127,248421836
81,3,2,T1_SMS_8,34,1,48,68,248484948
81,3,2,T1_SMS_8,35,5,42,127,249221348
81,3,2,T1_SMS_8,36,1,48,77,249248252
81,3,2,T1_SMS_8,37,1,48,68,250019024
81,3,2,T1_SMS_8,38,5,42,127,250022196
81,3,2,T1_SMS_8,39,1,48,74,250801328
81,3,2,T1_SMS_8,40,5,42,127,250822080
81,3,2,T1_SMS_8,41,1,48,64,251588044
81,3,2,T1_SMS_8,42,5,42,127,251621664
81,3,2,T1_SMS_8,43,1,48,64,252381644
81,3,2,T1_SMS_8,44,5,42,127,252421620
81,3,2,T1_SMS_8,45,1,48,80,253182280
81,3,2,T1_SMS_8,46,5,42,127,253222180
81,3,2,T1_SMS_8,47,1,48,83,254019896
81,3,2,T1_SMS_8,48,5,42,127,254022012
81,3,2,T1_SMS_8,49,5,42,127,254821752
81,3,2,T1_SMS_8,50,1,48,58,254843716
81,3,2,T1_SMS_8,51,1,48,75,255621784
81,3,2,T1_SMS_8,52,5,42,127,255623044
81,3,2,T1_SMS_8,53,1,48,34,255689504
81,3,2,T1_SMS_8,54,5,42,127,256422244
81,3,2,T1_SMS_8,55,1,48,72,256476824
81,3,2,T1_SMS_8,56,5,42,127,257222124
81,3,2,T1_SMS_8,57,1,48,72,257266528
81,3,2,T1_SMS_8,58,5,42,127,258021856
81,3,2,T1_SMS_8,59,1,48,69,258040684
81,3,2,T1_SMS_8,60,1,48,76,258810108
81,3,2,T1_SMS_8,61,5,42,127,258821360
81,3,2,T1_SMS_8,62,5,42,127,259622220
81,3,2,T1_SMS_8,63,1,48,73,259640628
81,3,2,T1_SMS_8,64,5,42,127,260421980
81,3,2,T1_SMS_8,65,1,48,70,260430936
81,3,2,T1_SMS_8,66,1,48,69,261195716
81,3,2,T1_SMS_8,67,5,42,127,261221932
81,3,2,T1_SMS_8,68,1,48,74,262006900
81,3,2,T1_SMS_8,69,5,42,127,262021440
81,3,2,T1_SMS_8,70,1,48,63,262818076
81,3,2,T1_SMS_8,71,5,42,127,262822372
81,3,2,T1_SMS_8,72,1,48,74,263600232
81,3,2,T1_SMS_8,73,5,42,127,263621956
81,3,2,T1_SMS_8,74,5,42,127,264421696
81,3,2,T1_SMS_8,75,1,48,78,264427736
81,3,2,T1_SMS_8,76,1,48,74,265185708
81,3,2,T1_SMS_8,77,5,42,127,265221644
81,3,2,T1_SMS_8,78,5,42,127,266022208
81,3,2,T1_SMS_8,79,1,48,66,266024948
81,3,2,T1_SMS_8,80,5,42,127,266821968
81,3,2,T1_SMS_8,81,1,48,67,266854928
81,3,2,T1_SMS_8,82,1,48,70,267613284
81,3,2,T1_SMS_8,83,5,42,127,267621916
81,3,2,T1_SMS_8,84,1,48,68,268389976
81,3,2,T1_SMS_8,85,5,42,127,268421724
81,3,2,T1_SMS_8,86,5,42,127,269222212
81,3,2,T1_SMS_8,87,1,48,76,269230420
81,3,2,T1_SMS_8,88,5,42,127,270022020
81,3,2,T1_SMS_8,89,1,48,71,270062912
81,3,2,T1_SMS_8,90,1,48,82,270810348
81,3,2,T1_SMS_8,91,5,42,127,270821672
81,3,2,T1_SMS_8,92,1,48,70,271582176
81,3,2,T1_SMS_8,93,5,42,127,271621628
81,3,2,T1_SMS_8,94,1,48,79,272389244
81,3,2,T1_SMS_8,95,5,42,127,272422336
81,3,2,T1_SMS_8,96,1,48,82,273218248
81,3,2,T1_SMS_8,97,5,42,127,273222092
81,3,2,T1_SMS_8,98,5,42,127,274021684
81,3,2,T1_SMS_8,99,1,48,60,274024424
81,3,2,T1_SMS_8,100,1,48,79,274799312
81,3,2,T1_SMS_8,101,5,42,127,274821488
81,3,2,T1_SMS_8,102,1,48,79,275592984
81,3,2,T1_SMS_8,103,5,42,127,275622268
81,3,2,T1_SMS_8,104,1,48,68,276415160
81,3,2,T1_SMS_8,105,5,42,127,276421928
81,3,2,T1_SMS_8,106,1,48,64,277211532
81,3,2,T1_SMS_8,107,5,42,127,277221588
81,3,2,T1_SMS_8,108,1,48,64,278007076
81,3,2,T1_SMS_8,109,5,42,127,278021396
81,3,2,T1_SMS_8,110,1,48,77,278795292
81,3,2,T1_SMS_8,111,5,42,127,278822400
81,3,2,T1_SMS_8,112,1,48,58,279603048
81,3,2,T1_SMS_8,113,5,42,127,279621936
81,3,2,T1_SMS_8,114,1,48,69,280393064
81,3,2,T1_SMS_8,115,5,42,127,280421744
81,3,2,T1_SMS_8,116,5,42,127,281221408
81,3,2,T1_SMS_8,117,1,48,79,281224148
81,3,2,T1_SMS_8,118,5,42,127,282022412
81,3,2,T1_SMS_8,119,1,48,81,282036456
81,3,2,T1_SMS_8,120,1,48,79,282804152
81,3,2,T1_SMS_8,121,5,42,127,282822140
81,3,2,T1_SMS_8,122,1,48,66,283570680
81,3,2,T1_SMS_8,123,5,42,127,283621724
81,3,2,T1_SMS_8,124,5,42,127,284421392
81,3,2,T1_SMS_8,125,1,48,74,284436628
81,3,2,T1_SMS_8,126,5,42,127,285222392
81,3,2,T1_SMS_8,127,1,48,81,285224760
81,3,2,T1_SMS_8,128,5,42,127,286022224
81,3,2,T1_SMS_8,129,1,48,55,286064240
81,3,2,T1_SMS_8,130,1,48,70,286818104
81,3,2,T1_SMS_8,131,5,42,127,286821728
81,3,2,T1_SMS_8,132,1,48,67,287599816
81,3,2,T1_SMS_8,133,5,42,127,287621612
81,3,2,T1_SMS_8,134,1,48,77,288389972
81,3,2,T1_SMS_8,135,5,42,127,288422392
81,3,2,T1_SMS_8,136,1,48,70,289201744
81,3,2,T1_SMS_8,137,5,42,127,289222272
81,3,2,T1_SMS_8,138,1,48,74,290006644
81,3,2,T1_SMS_8,139,5,42,127,290021784
81,3,2,T1_SMS_8,140,1,48,82,290775852
81,3,2,T1_SMS_8,141,5,42,127,290821444
81,3,2,T1_SMS_8,142,1,48,70,291608352
81,3,2,T1_SMS_8,143,5,42,127,291622148
81,3,2,T1_SMS_8,144,1,48,75,292395668
81,3,2,T1_SMS_8,145,5,42,127,292422204
81,3,2,T1_SMS_8,146,5,42,127,293221796
81,3,2,T1_SMS_8,147,1,48,72,293223880
81,3,2,T1_SMS_8,148,5,42,127,294021380
81,3,2,T1_SMS_8,149,1,48,65,294070800
81,3,2,T1_SMS_8,150,1,48,77,294814268
81,3,2,T1_SMS_8,151,5,42,127,294822380
81,3,2,T1_SMS_8,152,5,42,127,295622192
81,3,2,T1_SMS_8,153,1,48,76,295632196
81,3,2,T1_SMS_8,154,5,42,127,296421704
81,3,2,T1_SMS_8,155,1,48,56,296449360
81,3,2,T1_SMS_8,156,5,42,127,297221584
81,3,2,T1_SMS_8,157,1,48,73,297255972
81,3,2,T1_SMS_8,158,5,42,127,298022140
81,3,2,T1_SMS_8,159,1,48,83,298032088
81,3,2,T1_SMS_8,160,5,42,127,298822048
81,3,2,T1_SMS_8,161,1,48,67,298853892
81,3,2,T1_SMS_8,162,1,48,84,299594964
81,3,2,T1_SMS_8,163,5,42,127,299621924
81,3,2,T1_SMS_8,164,1,48,33,299653156
81,3,2,T1_SMS_8,165,5,42,127,300421420
81,3,2,T1_SMS_8,166,1,48,67,300454604
81,3,2,T1_SMS_8,167,5,42,127,301222348
81,3,2,T1_SMS_8,168,1,48,73,301250300
81,3,2,T1_SMS_8,169,1,48,36,301307204
81,3,2,T1_SMS_8,170,5,42,127,302022208
81,3,2,T1_SMS_8,171,1,48,73,302036916
81,3,2,T1_SMS_8,172,5,42,127,302821792
81,3,2,T1_SMS_8,173,1,48,64,302829324
81,3,2,T1_SMS_8,174,5,42,127,303621600
81,3,2,T1_SMS_8,175,1,48,67,303669772
81,3,2,T1_SMS_8,176,5,42,127,304422232
81,3,2,T1_SMS_8,177,1,48,72,304466068
81,3,2,T1_SMS_8,178,5,42,127,305222064
81,3,2,T1_SMS_8,179,1,48,66,305273428
81,3,2,T1_SMS_8,180,5,42,127,306021872
81,3,2,T1_SMS_8,181,1,48,78,306030304
81,3,2,T1_SMS_8,182,5,42,127,306821384
81,3,2,T1_SMS_8,183,1,48,65,306842976
81,3,2,T1_SMS_8,184,5,42,127,307622164
81,3,2,T1_SMS_8,185,1,48,73,307629620
81,3,2,T1_SMS_8,186,5,42,127,308422120
81,3,2,T1_SMS_8,187,1,48,70,308452764
81,3,2,T1_SMS_8,188,1,48,70,309216200
81,3,2,T1_SMS_8,189,5,42,127,309221696
81,3,2,T1_SMS_8,190,1,48,70,310001424
81,3,2,T1_SMS_8,191,5,42,127,310021580
81,3,2,T1_SMS_8,192,1,48,67,310810660
81,3,2,T1_SMS_8,193,5,42,127,310822360
81,3,2,T1_SMS_8,194,5,42,127,311621900
81,3,2,T1_SMS_8,195,1,48,76,311639236
81,3,2,T1_SMS_8,196,1,48,74,312398184
81,3,2,T1_SMS_8,197,5,42,127,312421704
81,3,2,T1_SMS_8,198,1,48,67,313182732
81,3,2,T1_SMS_8,199,5,42,127,313221436
81,3,2,T1_SMS_8,200,1,48,70,313973192
81,3,2,T1_SMS_8,201,5,42,127,314022216
81,3,2,T1_SMS_8,202,5,42,127,314821956
81,3,2,T1_SMS_8,203,1,48,74,314833080
81,3,2,T1_SMS_8,204,1,48,81,315599212
81,3,2,T1_SMS_8,205,5,42,127,315621684
81,3,2,T1_SMS_8,206,1,48,80,316388772
81,3,2,T1_SMS_8,207,5,42,127,316421564
81,3,2,T1_SMS_8,208,1,48,72,317194268
81,3,2,T1_SMS_8,209,5,42,127,317222272
81,3,2,T1_SMS_8,210,1,48,73,317993548
81,3,2,T1_SMS_8,211,5,42,127,318021956
81,3,2,T1_SMS_8,212,1,48,73,318771164
81,3,2,T1_SMS_8,213,5,42,127,318821764
81,3,2,T1_SMS_8,214,1,48,81,319600676
81,3,2,T1_SMS_8,215,5,42,127,319621500
81,3,2,T1_SMS_8,216,1,48,80,320386272
81,3,2,T1_SMS_8,217,5,42,127,320422280
81,3,2,T1_SMS_8,218,1,48,73,321199912
81,3,2,T1_SMS_8,219,5,42,127,321222012
81,3,2,T1_SMS_8,220,1,48,73,321999424
81,3,2,T1_SMS_8,221,5,42,127,322021672
81,3,2,T1_SMS_8,222,1,48,75,322804316
81,3,2,T1_SMS_8,223,5,42,127,322821480
81,3,2,T1_SMS_8,224,1,48,82,323594920
81,3,2,T1_SMS_8,225,5,42,127,323622184
81,3,2,T1_SMS_8,226,1,48,78,324371472
81,3,2,T1_SMS_8,227,5,42,127,324421944
81,3,2,T1_SMS_8,228,1,48,81,325220928
81,3,2,T1_SMS_8,229,5,42,127,325222500
81,3,2,T1_SMS_8,230,5,42,127,326021492
81,3,2,T1_SMS_8,231,1,48,82,326053932
81,3,2,T1_SMS_8,232,1,48,85,326814524
81,3,2,T1_SMS_8,233,5,42,127,326822264
81,3,2,T1_SMS_8,234,5,42,127,327621856
81,3,2,T1_SMS_8,235,1,48,93,327648160
81,3,2,T1_SMS_8,236,5,42,127,328421592
81,3,2,T1_SMS_8,237,1,48,83,328446768
81,3,2,T1_SMS_8,238,5,42,127,329221472
81,3,2,T1_SMS_8,239,1,48,71,329226688
81,3,2,T1_SMS_8,240,1,48,80,329993492
81,3,2,T1_SMS_8,241,5,42,127,330022244
81,3,2,T1_SMS_8,242,1,48,75,330809856
81,3,2,T1_SMS_8,0,9999,9999,9999,234819672
81,3,2,T1_SMS_8,1,9999,9999,9999,235619424
81,3,2,T1_SMS_8,2,9999,9999,9999,236419160
81,3,2,T1_SMS_8,3,9999,9999,9999,237219940
81,3,2,T1_SMS_8,4,9999,9999,9999,238019668
81,3,2,T1_SMS_8,5,9999,9999,9999,238819400
81,3,2,T1_SMS_8,6,9999,9999,9999,239619132
81,3,2,T1_SMS_8,7,9999,9999,9999,240419916
81,3,2,T1_SMS_8,8,9999,9999,9999,241219672
81,3,2,T1_SMS_8,9,9999,9999,9999,242019408
81,3,2,T1_SMS_8,10,9999,9999,9999,242819140
81,3,2,T1_SMS_8,11,9999,9999,9999,243619920
81,3,2,T1_SMS_8,12,9999,9999,9999,244419652
81,3,2,T1_SMS_8,13,9999,9999,9999,245219388
81,3,2,T1_SMS_8,14,9999,9999,9999,246019120
81,3,2,T1_SMS_8,15,9999,9999,9999,246819904
81,3,2,T1_SMS_8,16,9999,9999,9999,247619660
81,3,2,T1_SMS_8,17,9999,9999,9999,248419400
81,3,2,T1_SMS_8,18,9999,9999,9999,249219132
81,3,2,T1_SMS_8,19,9999,9999,9999,250019908
81,3,2,T1_SMS_8,20,9999,9999,9999,250819640
81,3,2,T1_SMS_8,21,9999,9999,9999,251619376
81,3,2,T1_SMS_8,22,9999,9999,9999,252419184
81,3,2,T1_SMS_8,23,9999,9999,9999,253219892
81,3,2,T1_SMS_8,24,9999,9999,9999,254019688
81,3,2,T1_SMS_8,25,9999,9999,9999,254819392
81,3,2,T1_SMS_8,26,9999,9999,9999,255619124
81,3,2,T1_SMS_8,27,9999,9999,9999,256419956
81,3,2,T1_SMS_8,28,9999,9999,9999,257219688
81,3,2,T1_SMS_8,29,9999,9999,9999,258019420
81,3,2,T1_SMS_8,30,9999,9999,9999,258819148
81,3,2,T1_SMS_8,31,9999,9999,9999,259619932
81,3,2,T1_SMS_8,32,9999,9999,9999,260419692
81,3,2,T1_SMS_8,33,9999,9999,9999,261219420
81,3,2,T1_SMS_8,34,9999,9999,9999,262019152
81,3,2,T1_SMS_8,35,9999,9999,9999,262819936
81,3,2,T1_SMS_8,36,9999,9999,9999,263619668
81,3,2,T1_SMS_8,37,9999,9999,9999,264419408
81,3,2,T1_SMS_8,38,9999,9999,9999,265219132
81,3,2,T1_SMS_8,39,9999,9999,9999,266019920
81,3,2,T1_SMS_8,40,9999,9999,9999,266819680
81,3,2,T1_SMS_8,41,9999,9999,9999,267619404
81,3,2,T1_SMS_8,42,9999,9999,9999,268419136
81,3,2,T1_SMS_8,43,9999,9999,9999,269219924
81,3,2,T1_SMS_8,44,9999,9999,9999,270019656
81,3,2,T1_SMS_8,45,9999,9999,9999,270819384
81,3,2,T1_SMS_8,46,9999,9999,9999,271619116
81,3,2,T1_SMS_8,47,9999,9999,9999,272419900
81,3,2,T1_SMS_8,48,9999,9999,9999,273219656
81,3,2,T1_SMS_8,49,9999,9999,9999,274019396
81,3,2,T1_SMS_8,50,9999,9999,9999,274819124
81,3,2,T1_SMS_8,51,9999,9999,9999,275619904
81,3,2,T1_SMS_8,52,9999,9999,9999,276419640
81,3,2,T1_SMS_8,53,9999,9999,9999,277219372
81,3,2,T1_SMS_8,54,9999,9999,9999,278019184
81,3,2,T1_SMS_8,55,9999,9999,9999,278819888
81,3,2,T1_SMS_8,56,9999,9999,9999,279619648
81,3,2,T1_SMS_8,57,9999,9999,9999,280419380
81,3,2,T1_SMS_8,58,9999,9999,9999,281219120
81,3,2,T1_SMS_8,59,9999,9999,9999,282019900
81,3,2,T1_SMS_8,60,9999,9999,9999,282819704
81,3,2,T1_SMS_8,61,9999,9999,9999,283619436
81,3,2,T1_SMS_8,62,9999,9999,9999,284419176
81,3,2,T1_SMS_8,63,9999,9999,9999,285219956
81,3,2,T1_SMS_8,64,9999,9999,9999,286019640
81,3,2,T1_SMS_8,65,9999,9999,9999,286819444
81,3,2,T1_SMS_8,66,9999,9999,9999,287619176
81,3,2,T1_SMS_8,67,9999,9999,9999,288419956
81,3,2,T1_SMS_8,68,9999,9999,9999,289219688
81,3,2,T1_SMS_8,69,9999,9999,9999,290019420
81,3,2,T1_SMS_8,70,9999,9999,9999,290819156
81,3,2,T1_SMS_8,71,9999,9999,9999,291619936
81,3,2,T1_SMS_8,72,9999,9999,9999,292419692
81,3,2,T1_SMS_8,73,9999,9999,9999,293219432
81,3,2,T1_SMS_8,74,9999,9999,9999,294019168
81,3,2,T1_SMS_8,75,9999,9999,9999,294819944
81,3,2,T1_SMS_8,76,9999,9999,9999,295619680
81,3,2,T1_SMS_8,77,9999,9999,9999,296419416
81,3,2,T1_SMS_8,78,9999,9999,9999,297219148
81,3,2,T1_SMS_8,79,9999,9999,9999,298019928
81,3,2,T1_SMS_8,80,9999,9999,9999,298819688
81,3,2,T1_SMS_8,81,9999,9999,9999,299619412
81,3,2,T1_SMS_8,82,9999,9999,9999,300419132
81,3,2,T1_SMS_8,83,9999,9999,9999,301219912
81,3,2,T1_SMS_8,84,9999,9999,9999,302019696
81,3,2,T1_SMS_8,85,9999,9999,9999,302819432
81,3,2,T1_SMS_8,86,9999,9999,9999,303619164
81,3,2,T1_SMS_8,87,9999,9999,9999,304419944
81,3,2,T1_SMS_8,88,9999,9999,9999,305219700
81,3,2,T1_SMS_8,89,9999,9999,9999,306019436
81,3,2,T1_SMS_8,90,9999,9999,9999,306819172
81,3,2,T1_SMS_8,91,9999,9999,9999,307619948
81,3,2,T1_SMS_8,92,9999,9999,9999,308419684
81,3,2,T1_SMS_8,93,9999,9999,9999,309219408
81,3,2,T1_SMS_8,94,9999,9999,9999,310019144
81,3,2,T1_SMS_8,95,9999,9999,9999,310819924
81,3,2,T1_SMS_8,96,9999,9999,9999,311619688
81,3,2,T1_SMS_8,97,9999,9999,9999,312419416
81,3,2,T1_SMS_8,98,9999,9999,9999,313219148
81,3,2,T1_SMS_8,99,9999,9999,9999,314019928
81,3,2,T1_SMS_8,100,9999,9999,9999,314819668
81,3,2,T1_SMS_8,101,9999,9999,9999,315619396
81,3,2,T1_SMS_8,102,9999,9999,9999,316419128
81,3,2,T1_SMS_8,103,9999,9999,9999,317219908
81,3,2,T1_SMS_8,104,9999,9999,9999,318019668
81,3,2,T1_SMS_8,105,9999,9999,9999,318819404
81,3,2,T1_SMS_8,106,9999,9999,9999,319619136
81,3,2,T1_SMS_8,107,9999,9999,9999,320419916
81,3,2,T1_SMS_8,108,9999,9999,9999,321219648
81,3,2,T1_SMS_8,109,9999,9999,9999,322019384
81,3,2,T1_SMS_8,110,9999,9999,9999,322819192
81,3,2,T1_SMS_8,111,9999,9999,9999,323619896
81,3,2,T1_SMS_8,112,9999,9999,9999,324419656
81,3,2,T1_SMS_8,113,9999,9999,9999,325219392
81,3,2,T1_SMS_8,114,9999,9999,9999,326019128
81,3,2,T1_SMS_8,115,9999,9999,9999,326819904
81,3,2,T1_SMS_8,116,9999,9999,9999,327619644
81,3,2,T1_SMS_8,117,9999,9999,9999,328419376
81,3,2,T1_SMS_8,118,9999,9999,9999,329219184
81,3,2,T1_SMS_8,119,9999,9999,9999,330019956
81,4,4,T1_SMS_5,0,5,42,127,399507076
81,4,4,T1_SMS_5,1,5,42,127,400006424
81,4,4,T1_SMS_5,2,1,48,49,400284220
81,4,4,T1_SMS_5,3,5,42,127,400507240
81,4,4,T1_SMS_5,4,1,48,64,400957924
81,4,4,T1_SMS_5,5,5,42,127,401007024
81,4,4,T1_SMS_5,6,1,48,67,401481624
81,4,4,T1_SMS_5,7,5,42,127,401506868
81,4,4,T1_SMS_5,8,1,48,70,401950328
81,4,4,T1_SMS_5,9,5,42,127,402007308
81,4,4,T1_SMS_5,10,1,48,73,402470888
81,4,4,T1_SMS_5,11,5,42,127,402507080
81,4,4,T1_SMS_5,12,1,48,76,402963780
81,4,4,T1_SMS_5,13,5,42,127,403006996
81,4,4,T1_SMS_5,14,1,48,68,403491372
81,4,4,T1_SMS_5,15,5,42,127,403506544
81,4,4,T1_SMS_5,16,1,48,74,404003188
81,4,4,T1_SMS_5,17,5,42,127,404007264
81,4,4,T1_SMS_5,18,1,48,67,404501384
81,4,4,T1_SMS_5,19,5,42,127,404506960
81,4,4,T1_SMS_5,20,1,48,72,404989044
81,4,4,T1_SMS_5,21,5,42,127,405006880
81,4,4,T1_SMS_5,22,1,48,85,405477596
81,4,4,T1_SMS_5,23,5,42,127,405506276
81,4,4,T1_SMS_5,24,1,48,83,405940036
81,4,4,T1_SMS_5,25,5,42,127,406007240
81,4,4,T1_SMS_5,26,1,48,76,406464116
81,4,4,T1_SMS_5,27,5,42,127,406506860
81,4,4,T1_SMS_5,28,1,48,81,406987448
81,4,4,T1_SMS_5,29,5,42,127,407006852
81,4,4,T1_SMS_5,30,1,48,75,407484072
81,4,4,T1_SMS_5,31,5,42,127,407507520
81,4,4,T1_SMS_5,32,1,48,70,407990200
81,4,4,T1_SMS_5,33,5,42,127,408006920
81,4,4,T1_SMS_5,34,1,48,76,408466564
81,4,4,T1_SMS_5,35,5,42,127,408506616
81,4,4,T1_SMS_5,36,1,48,73,408974632
81,4,4,T1_SMS_5,37,5,42,127,409006532
81,4,4,T1_SMS_5,38,1,48,80,409465276
81,4,4,T1_SMS_5,39,5,42,127,409507200
81,4,4,T1_SMS_5,40,1,48,72,409984120
81,4,4,T1_SMS_5,41,5,42,127,410006968
81,4,4,T1_SMS_5,42,1,48,64,410494584
81,4,4,T1_SMS_5,43,5,42,127,410506736
81,4,4,T1_SMS_5,44,1,48,65,411001756
81,4,4,T1_SMS_5,45,5,42,127,411007256
81,4,4,T1_SMS_5,46,5,42,127,411507032
81,4,4,T1_SMS_5,47,1,48,61,411528996
81,4,4,T1_SMS_5,48,1,48,61,412002424
81,4,4,T1_SMS_5,49,5,42,127,412006720
81,4,4,T1_SMS_5,50,1,48,71,412479452
81,4,4,T1_SMS_5,51,5,42,127,412506564
81,4,4,T1_SMS_5,52,1,48,81,412948980
81,4,4,T1_SMS_5,53,5,42,127,413007084
81,4,4,T1_SMS_5,54,1,48,81,413478516
81,4,4,T1_SMS_5,55,5,42,127,413506852
81,4,4,T1_SMS_5,56,1,48,73,413996192
81,4,4,T1_SMS_5,57,5,42,127,414006696
81,4,4,T1_SMS_5,58,1,48,77,414497880
81,4,4,T1_SMS_5,59,5,42,127,414507364
81,4,4,T1_SMS_5,60,1,48,78,414990616
81,4,4,T1_SMS_5,61,5,42,127,415007032
81,4,4,T1_SMS_5,62,1,48,87,415470040
81,4,4,T1_SMS_5,63,5,42,127,415506728
81,4,4,T1_SMS_5,64,1,48,82,415977436
81,4,4,T1_SMS_5,65,5,42,127,416006644
81,4,4,T1_SMS_5,66,1,48,84,416479380
81,4,4,T1_SMS_5,67,5,42,127,416507388
81,4,4,T1_SMS_5,68,1,48,82,416996272
81,4,4,T1_SMS_5,69,5,42,127,417006860
81,4,4,T1_SMS_5,70,1,48,68,417506180
81,4,4,T1_SMS_5,71,5,42,127,417507676
81,4,4,T1_SMS_5,72,1,48,82,417982580
81,4,4,T1_SMS_5,73,5,42,127,418007592
81,4,4,T1_SMS_5,74,1,48,76,418496560
81,4,4,T1_SMS_5,75,5,42,127,418507064
81,4,4,T1_SMS_5,76,1,48,76,418998576
81,4,4,T1_SMS_5,77,5,42,127,419006760
81,4,4,T1_SMS_5,78,5,42,127,419506460
81,4,4,T1_SMS_5,79,1,48,72,419526552
81,4,4,T1_SMS_5,80,1,48,80,419989884
81,4,4,T1_SMS_5,81,5,42,127,420007716
81,4,4,T1_SMS_5,82,1,48,84,420482992
81,4,4,T1_SMS_5,83,5,42,127,420506892
81,4,4,T1_SMS_5,84,1,48,69,420965560
81,4,4,T1_SMS_5,85,5,42,127,421006588
81,4,4,T1_SMS_5,86,1,48,82,421463460
81,4,4,T1_SMS_5,87,5,42,127,421506580
81,4,4,T1_SMS_5,88,1,48,83,421971828
81,4,4,T1_SMS_5,89,5,42,127,422007096
81,4,4,T1_SMS_5,90,1,48,76,422488580
81,4,4,T1_SMS_5,91,5,42,127,422506792
81,4,4,T1_SMS_5,92,5,42,127,423006492
81,4,4,T1_SMS_5,93,1,48,71,423024420
81,4,4,T1_SMS_5,94,5,42,127,423507532
81,4,4,T1_SMS_5,95,1,48,65,423508944
81,4,4,T1_SMS_5,96,5,42,127,424007008
81,4,4,T1_SMS_5,97,1,48,70,424029868
81,4,4,T1_SMS_5,98,1,48,85,424478288
81,4,4,T1_SMS_5,99,5,42,127,424506696
81,4,4,T1_SMS_5,100,1,48,65,424960328
81,4,4,T1_SMS_5,101,5,42,127,425006464
81,4,4,T1_SMS_5,102,1,48,66,425463684
81,4,4,T1_SMS_5,103,5,42,127,425507108
81,4,4,T1_SMS_5,104,1,48,68,425962708
81,4,4,T1_SMS_5,105,5,42,127,426006876
81,4,4,T1_SMS_5,106,1,48,75,426456496
81,4,4,T1_SMS_5,107,5,42,127,426506720
81,4,4,T1_SMS_5,108,1,48,79,426947364
81,4,4,T1_SMS_5,109,5,42,127,427007536
81,4,4,T1_SMS_5,110,1,48,72,427459028
81,4,4,T1_SMS_5,111,5,42,127,427506932
81,4,4,T1_SMS_5,112,1,48,71,427957972
81,4,4,T1_SMS_5,113,5,42,127,428006776
81,4,4,T1_SMS_5,114,1,48,69,428455648
81,4,4,T1_SMS_5,115,5,42,127,428506624
81,4,4,T1_SMS_5,116,1,48,76,428968064
81,4,4,T1_SMS_5,117,5,42,127,429007440
81,4,4,T1_SMS_5,118,1,48,76,429464240
81,4,4,T1_SMS_5,119,5,42,127,429506836
81,4,4,T1_SMS_5,120,1,48,78,429939252
81,4,4,T1_SMS_5,121,5,42,127,430006532
81,4,4,T1_SMS_5,122,1,48,80,430464676
81,4,4,T1_SMS_5,123,5,42,127,430507348
81,4,4,T1_SMS_5,124,1,48,75,430984344
81,4,4,T1_SMS_5,125,5,42,127,431007264
81,4,4,T1_SMS_5,126,1,48,81,431470800
81,4,4,T1_SMS_5,127,5,42,127,431506884
81,4,4,T1_SMS_5,128,1,48,69,431956576
81,4,4,T1_SMS_5,129,5,42,127,432006432
81,4,4,T1_SMS_5,130,1,48,78,432457100
81,4,4,T1_SMS_5,131,5,42,127,432507324
81,4,4,T1_SMS_5,132,1,48,75,432963076
81,4,4,T1_SMS_5,133,5,42,127,433007240
81,4,4,T1_SMS_5,134,1,48,77,433451996
81,4,4,T1_SMS_5,135,5,42,127,433506640
81,4,4,T1_SMS_5,136,1,48,74,433951220
81,4,4,T1_SMS_5,137,5,42,127,434007304
81,4,4,T1_SMS_5,138,1,48,75,434456828
81,4,4,T1_SMS_5,139,5,42,127,434507076
81,4,4,T1_SMS_5,140,1,48,81,434958616
81,4,4,T1_SMS_5,141,5,42,127,435006844
81,4,4,T1_SMS_5,142,1,48,71,435467288
81,4,4,T1_SMS_5,143,5,42,127,435506688
81,4,4,T1_SMS_5,144,1,48,72,435955532
81,4,4,T1_SMS_5,145,5,42,127,436007280
81,4,4,T1_SMS_5,146,1,48,84,436448352
81,4,4,T1_SMS_5,147,5,42,127,436507024
81,4,4,T1_SMS_5,148,1,48,88,436939368
81,4,4,T1_SMS_5,149,5,42,127,437006720
81,4,4,T1_SMS_5,150,1,48,70,437440456
81,4,4,T1_SMS_5,151,5,42,127,437506388
81,4,4,T1_SMS_5,152,1,48,79,437978228
81,4,4,T1_SMS_5,153,5,42,127,438007132
81,4,4,T1_SMS_5,154,1,48,68,438471112
81,4,4,T1_SMS_5,155,5,42,127,438506900
81,4,4,T1_SMS_5,156,1,48,77,438982176
81,4,4,T1_SMS_5,157,5,42,127,439006520
81,4,4,T1_SMS_5,158,1,48,78,439485008
81,4,4,T1_SMS_5,159,5,42,127,439507264
81,4,4,T1_SMS_5,160,1,48,85,439987924
81,4,4,T1_SMS_5,161,5,42,127,440007108
81,4,4,T1_SMS_5,162,1,48,70,440468624
81,4,4,T1_SMS_5,163,5,42,127,440506804
81,4,4,T1_SMS_5,164,1,48,76,440962628
81,4,4,T1_SMS_5,165,5,42,127,441006348
81,4,4,T1_SMS_5,166,1,48,69,441470032
81,4,4,T1_SMS_5,167,5,42,127,441507240
81,4,4,T1_SMS_5,168,1,48,76,441964184
81,4,4,T1_SMS_5,169,5,42,127,442006856
81,4,4,T1_SMS_5,170,1,48,49,442455504
81,4,4,T1_SMS_5,171,5,42,127,442506480
81,4,4,T1_SMS_5,172,1,48,75,442984520
81,4,4,T1_SMS_5,173,5,42,127,443007444
81,4,4,T1_SMS_5,174,1,48,77,443466868
81,4,4,T1_SMS_5,175,5,42,127,443506988
81,4,4,T1_SMS_5,176,1,48,77,443960948
81,4,4,T1_SMS_5,177,5,42,127,444006908
81,4,4,T1_SMS_5,178,1,48,73,444432192
81,4,4,T1_SMS_5,179,5,42,127,444506680
81,4,4,T1_SMS_5,180,1,48,86,444942132
81,4,4,T1_SMS_5,181,5,42,127,445007120
81,4,4,T1_SMS_5,182,1,48,84,445496760
81,4,4,T1_SMS_5,183,5,42,127,445506892
81,4,4,T1_SMS_5,184,5,42,127,446006740
81,4,4,T1_SMS_5,185,1,48,84,446009332
81,4,4,T1_SMS_5,186,1,48,78,446507032
81,4,4,T1_SMS_5,187,5,42,127,446508524
81,4,4,T1_SMS_5,188,1,48,78,446985192
81,4,4,T1_SMS_5,189,5,42,127,447007000
81,4,4,T1_SMS_5,190,1,48,77,447468888
81,4,4,T1_SMS_5,191,5,42,127,447506844
81,4,4,T1_SMS_5,192,1,48,79,447978904
81,4,4,T1_SMS_5,193,5,42,127,448006540
81,4,4,T1_SMS_5,194,1,48,73,448458480
81,4,4,T1_SMS_5,195,5,42,127,448507280
81,4,4,T1_SMS_5,196,1,48,80,448976948
81,4,4,T1_SMS_5,197,5,42,127,449006904
81,4,4,T1_SMS_5,198,1,48,85,449501848
81,4,4,T1_SMS_5,199,5,42,127,449506600
81,4,4,T1_SMS_5,200,1,48,84,449985160
81,4,4,T1_SMS_5,201,5,42,127,450007412
81,4,4,T1_SMS_5,202,1,48,82,450501912
81,4,4,T1_SMS_5,203,5,42,127,450507036
81,4,4,T1_SMS_5,204,1,48,84,450980664
81,4,4,T1_SMS_5,205,5,42,127,451006804
81,4,4,T1_SMS_5,206,1,48,86,451481476
81,4,4,T1_SMS_5,207,5,42,127,451506576
81,4,4,T1_SMS_5,208,1,48,64,452006040
81,4,4,T1_SMS_5,209,5,42,127,452007468
81,4,4,T1_SMS_5,210,1,48,80,452456792
81,4,4,T1_SMS_5,211,5,42,127,452506864
81,4,4,T1_SMS_5,212,1,48,73,452986028
81,4,4,T1_SMS_5,213,5,42,127,453006856
81,4,4,T1_SMS_5,214,1,48,81,453473456
81,4,4,T1_SMS_5,215,5,42,127,453506404
81,4,4,T1_SMS_5,216,1,48,87,453965220
81,4,4,T1_SMS_5,217,5,42,127,454007292
81,4,4,T1_SMS_5,218,1,48,79,454474264
81,4,4,T1_SMS_5,219,5,42,127,454506836
81,4,4,T1_SMS_5,220,1,48,84,454999244
81,4,4,T1_SMS_5,221,5,42,127,455006532
81,4,4,T1_SMS_5,222,1,48,81,455479344
81,4,4,T1_SMS_5,223,5,42,127,455507200
81,4,4,T1_SMS_5,224,1,48,81,455989360
81,4,4,T1_SMS_5,225,5,42,127,456007044
81,4,4,T1_SMS_5,226,1,48,79,456475036
81,4,4,T1_SMS_5,227,5,42,127,456506812
81,4,4,T1_SMS_5,228,1,48,75,456978924
81,4,4,T1_SMS_5,229,5,42,127,457006360
81,4,4,T1_SMS_5,230,1,48,78,457490060
81,4,4,T1_SMS_5,231,5,42,127,457507076
81,4,4,T1_SMS_5,232,1,48,68,457989360
81,4,4,T1_SMS_5,233,5,42,127,458006820
81,4,4,T1_SMS_5,234,1,48,83,458457860
81,4,4,T1_SMS_5,235,5,42,127,458506664
81,4,4,T1_SMS_5,236,1,48,77,458978948
81,4,4,T1_SMS_5,237,5,42,127,459007256
81,4,4,T1_SMS_5,238,1,48,70,459487248
81,4,4,T1_SMS_5,239,5,42,127,459507024
81,4,4,T1_SMS_5,240,1,48,75,459978040
81,4,4,T1_SMS_5,241,5,42,127,460006944
81,4,4,T1_SMS_5,242,1,48,83,460501592
81,4,4,T1_SMS_5,243,5,42,127,460506416
81,4,4,T1_SMS_5,244,1,48,75,461000312
81,4,4,T1_SMS_5,245,5,42,127,461007084
81,4,4,T1_SMS_5,246,1,48,82,461496868
81,4,4,T1_SMS_5,247,5,42,127,461506928
81,4,4,T1_SMS_5,248,1,48,82,461984144
81,4,4,T1_SMS_5,249,5,42,127,462006844
81,4,4,T1_SMS_5,250,1,48,81,462477036
81,4,4,T1_SMS_5,251,5,42,127,462507364
81,4,4,T1_SMS_5,252,1,48,77,462989448
81,4,4,T1_SMS_5,253,5,42,127,463007136
81,4,4,T1_SMS_5,254,1,48,81,463487048
81,4,4,T1_SMS_5,255,5,42,127,463506756
81,4,4,T1_SMS_5,256,1,48,87,463986068
81,4,4,T1_SMS_5,257,5,42,127,464006748
81,4,4,T1_SMS_5,258,1,48,82,464478060
81,4,4,T1_SMS_5,0,9999,9999,9999,399504488
81,4,4,T1_SMS_5,1,9999,9999,9999,400004208
81,4,4,T1_SMS_5,2,9999,9999,9999,400504948
81,4,4,T1_SMS_5,3,9999,9999,9999,401004660
81,4,4,T1_SMS_5,4,9999,9999,9999,401504352
81,4,4,T1_SMS_5,5,9999,9999,9999,402005092
81,4,4,T1_SMS_5,6,9999,9999,9999,402504788
81,4,4,T1_SMS_5,7,9999,9999,9999,403004484
81,4,4,T1_SMS_5,8,9999,9999,9999,403504180
81,4,4,T1_SMS_5,9,9999,9999,9999,404004972
81,4,4,T1_SMS_5,10,9999,9999,9999,404504668
81,4,4,T1_SMS_5,11,9999,9999,9999,405004364
81,4,4,T1_SMS_5,12,9999,9999,9999,405504060
81,4,4,T1_SMS_5,13,9999,9999,9999,406004800
81,4,4,T1_SMS_5,14,9999,9999,9999,406504496
81,4,4,T1_SMS_5,15,9999,9999,9999,407004268
81,4,4,T1_SMS_5,16,9999,9999,9999,407505008
81,4,4,T1_SMS_5,17,9999,9999,9999,408004704
81,4,4,T1_SMS_5,18,9999,9999,9999,408504400
81,4,4,T1_SMS_5,19,9999,9999,9999,409004092
81,4,4,T1_SMS_5,20,9999,9999,9999,409504832
81,4,4,T1_SMS_5,21,9999,9999,9999,410004528
81,4,4,T1_SMS_5,22,9999,9999,9999,410504300
81,4,4,T1_SMS_5,23,9999,9999,9999,411005040
81,4,4,T1_SMS_5,24,9999,9999,9999,411504740
81,4,4,T1_SMS_5,25,9999,9999,9999,412004432
81,4,4,T1_SMS_5,26,9999,9999,9999,412504128
81,4,4,T1_SMS_5,27,9999,9999,9999,413004868
81,4,4,T1_SMS_5,28,9999,9999,9999,413504560
81,4,4,T1_SMS_5,29,9999,9999,9999,414004332
81,4,4,T1_SMS_5,30,9999,9999,9999,414505072
81,4,4,T1_SMS_5,31,9999,9999,9999,415004744
81,4,4,T1_SMS_5,32,9999,9999,9999,415504436
81,4,4,T1_SMS_5,33,9999,9999,9999,416004208
81,4,4,T1_SMS_5,34,9999,9999,9999,416504948
81,4,4,T1_SMS_5,35,9999,9999,9999,417004644
81,4,4,T1_SMS_5,36,9999,9999,9999,417504344
81,4,4,T1_SMS_5,37,9999,9999,9999,418005080
81,4,4,T1_SMS_5,38,9999,9999,9999,418504776
81,4,4,T1_SMS_5,39,9999,9999,9999,419004472
81,4,4,T1_SMS_5,40,9999,9999,9999,419504244
81,4,4,T1_SMS_5,41,9999,9999,9999,420004980
81,4,4,T1_SMS_5,42,9999,9999,9999,420504676
81,4,4,T1_SMS_5,43,9999,9999,9999,421004372
81,4,4,T1_SMS_5,44,9999,9999,9999,421504068
81,4,4,T1_SMS_5,45,9999,9999,9999,422004808
81,4,4,T1_SMS_5,46,9999,9999,9999,422504500
81,4,4,T1_SMS_5,47,9999,9999,9999,423004276
81,4,4,T1_SMS_5,48,9999,9999,9999,423504944
81,4,4,T1_SMS_5,49,9999,9999,9999,424004716
81,4,4,T1_SMS_5,50,9999,9999,9999,424504404
81,4,4,T1_SMS_5,51,9999,9999,9999,425004100
81,4,4,T1_SMS_5,52,9999,9999,9999,425504816
81,4,4,T1_SMS_5,53,9999,9999,9999,426004584
81,4,4,T1_SMS_5,54,9999,9999,9999,426504280
81,4,4,T1_SMS_5,55,9999,9999,9999,427005020
81,4,4,T1_SMS_5,56,9999,9999,9999,427504716
81,4,4,T1_SMS_5,57,9999,9999,9999,428004412
81,4,4,T1_SMS_5,58,9999,9999,9999,428504184
81,4,4,T1_SMS_5,59,9999,9999,9999,429004852
81,4,4,T1_SMS_5,60,9999,9999,9999,429504620
81,4,4,T1_SMS_5,61,9999,9999,9999,430004316
81,4,4,T1_SMS_5,62,9999,9999,9999,430505056
81,4,4,T1_SMS_5,63,9999,9999,9999,431004752
81,4,4,T1_SMS_5,64,9999,9999,9999,431504444
81,4,4,T1_SMS_5,65,9999,9999,9999,432004216
81,4,4,T1_SMS_5,66,9999,9999,9999,432504884
81,4,4,T1_SMS_5,67,9999,9999,9999,433004652
81,4,4,T1_SMS_5,68,9999,9999,9999,433504348
81,4,4,T1_SMS_5,69,9999,9999,9999,434005088
81,4,4,T1_SMS_5,70,9999,9999,9999,434504784
81,4,4,T1_SMS_5,71,9999,9999,9999,435004480
81,4,4,T1_SMS_5,72,9999,9999,9999,435504248
81,4,4,T1_SMS_5,73,9999,9999,9999,436004964
81,4,4,T1_SMS_5,74,9999,9999,9999,436504660
81,4,4,T1_SMS_5,75,9999,9999,9999,437004356
81,4,4,T1_SMS_5,76,9999,9999,9999,437504100
81,4,4,T1_SMS_5,77,9999,9999,9999,438004840
81,4,4,T1_SMS_5,78,9999,9999,9999,438504536
81,4,4,T1_SMS_5,79,9999,9999,9999,439004232
81,4,4,T1_SMS_5,80,9999,9999,9999,439504972
81,4,4,T1_SMS_5,81,9999,9999,9999,440004668
81,4,4,T1_SMS_5,82,9999,9999,9999,440504440
81,4,4,T1_SMS_5,83,9999,9999,9999,441004132
81,4,4,T1_SMS_5,84,9999,9999,9999,441504876
81,4,4,T1_SMS_5,85,9999,9999,9999,442004568
81,4,4,T1_SMS_5,86,9999,9999,9999,442504264
81,4,4,T1_SMS_5,87,9999,9999,9999,443005004
81,4,4,T1_SMS_5,88,9999,9999,9999,443504700
81,4,4,T1_SMS_5,89,9999,9999,9999,444004468
81,4,4,T1_SMS_5,90,9999,9999,9999,444504164
81,4,4,T1_SMS_5,91,9999,9999,9999,445004904
81,4,4,T1_SMS_5,92,9999,9999,9999,445504600
81,4,4,T1_SMS_5,93,9999,9999,9999,446004300
81,4,4,T1_SMS_5,94,9999,9999,9999,446505044
81,4,4,T1_SMS_5,95,9999,9999,9999,447004784
81,4,4,T1_SMS_5,96,9999,9999,9999,447504480
81,4,4,T1_SMS_5,97,9999,9999,9999,448004176
81,4,4,T1_SMS_5,98,9999,9999,9999,448504916
81,4,4,T1_SMS_5,99,9999,9999,9999,449004612
81,4,4,T1_SMS_5,100,9999,9999,9999,449504308
81,4,4,T1_SMS_5,101,9999,9999,9999,450005048
81,4,4,T1_SMS_5,102,9999,9999,9999,450504820
81,4,4,T1_SMS_5,103,9999,9999,9999,451004516
81,4,4,T1_SMS_5,104,9999,9999,9999,451504208
81,4,4,T1_SMS_5,105,9999,9999,9999,452004960
81,4,4,T1_SMS_5,106,9999,9999,9999,452504648
81,4,4,T1_SMS_5,107,9999,9999,9999,453004344
81,4,4,T1_SMS_5,108,9999,9999,9999,453504112
81,4,4,T1_SMS_5,109,9999,9999,9999,454004852
81,4,4,T1_SMS_5,110,9999,9999,9999,454504548
81,4,4,T1_SMS_5,111,9999,9999,9999,455004244
81,4,4,T1_SMS_5,112,9999,9999,9999,455504984
81,4,4,T1_SMS_5,113,9999,9999,9999,456004680
81,4,4,T1_SMS_5,114,9999,9999,9999,456504372
81,4,4,T1_SMS_5,115,9999,9999,9999,457004144
81,4,4,T1_SMS_5,116,9999,9999,9999,457504860
81,4,4,T1_SMS_5,117,9999,9999,9999,458004532
81,4,4,T1_SMS_5,118,9999,9999,9999,458504300
81,4,4,T1_SMS_5,119,9999,9999,9999,459005040
81,4,4,T1_SMS_5,120,9999,9999,9999,459504736
81,4,4,T1_SMS_5,121,9999,9999,9999,460004432
81,4,4,T1_SMS_5,122,9999,9999,9999,460504124
81,4,4,T1_SMS_5,123,9999,9999,9999,461004868
81,4,4,T1_SMS_5,124,9999,9999,9999,461504560
81,4,4,T1_SMS_5,125,9999,9999,9999,462004332
81,4,4,T1_SMS_5,126,9999,9999,9999,462505072
81,4,4,T1_SMS_5,127,9999,9999,9999,463004768
81,4,4,T1_SMS_5,128,9999,9999,9999,463504468
81,4,4,T1_SMS_5,129,9999,9999,9999,464004164
81,5,9,Ticks_ISO_T2_8,0,5,42,127,476611980
81,5,9,Ticks_ISO_T2_8,1,5,42,127,477411660
81,5,9,Ticks_ISO_T2_8,2,5,42,127,478211492
81,5,9,Ticks_ISO_T2_8,3,1,48,73,478283744
81,5,9,Ticks_ISO_T2_8,4,5,42,127,479012372
81,5,9,Ticks_ISO_T2_8,5,1,48,75,479043692
81,5,9,Ticks_ISO_T2_8,6,5,42,127,479811884
81,5,9,Ticks_ISO_T2_8,7,1,48,84,479872744
81,5,9,Ticks_ISO_T2_8,8,5,42,127,480611540
81,5,9,Ticks_ISO_T2_8,9,1,48,86,480672400
81,5,9,Ticks_ISO_T2_8,10,5,42,127,481411424
81,5,9,Ticks_ISO_T2_8,11,1,48,80,481427184
81,5,9,Ticks_ISO_T2_8,12,5,42,127,482212204
81,5,9,Ticks_ISO_T2_8,13,1,48,84,482216816
81,5,9,Ticks_ISO_T2_8,14,5,42,127,483011940
81,5,9,Ticks_ISO_T2_8,15,1,48,81,483037648
81,5,9,Ticks_ISO_T2_8,16,1,48,92,483805500
81,5,9,Ticks_ISO_T2_8,17,5,42,127,483811816
81,5,9,Ticks_ISO_T2_8,18,1,48,87,484593560
81,5,9,Ticks_ISO_T2_8,19,5,42,127,484611476
81,5,9,Ticks_ISO_T2_8,20,5,42,127,485412212
81,5,9,Ticks_ISO_T2_8,21,1,48,95,485448768
81,5,9,Ticks_ISO_T2_8,22,5,42,127,486211796
81,5,9,Ticks_ISO_T2_8,23,1,48,93,486253588
81,5,9,Ticks_ISO_T2_8,24,5,42,127,487011680
81,5,9,Ticks_ISO_T2_8,25,1,48,82,487014344
81,5,9,Ticks_ISO_T2_8,26,1,48,86,487754000
81,5,9,Ticks_ISO_T2_8,27,5,42,127,487811404
81,5,9,Ticks_ISO_T2_8,28,1,48,84,488536460
81,5,9,Ticks_ISO_T2_8,29,5,42,127,488612184
81,5,9,Ticks_ISO_T2_8,30,1,48,83,489401860
81,5,9,Ticks_ISO_T2_8,31,5,42,127,489412068
81,5,9,Ticks_ISO_T2_8,32,1,48,82,490192840
81,5,9,Ticks_ISO_T2_8,33,5,42,127,490211652
81,5,9,Ticks_ISO_T2_8,34,1,48,90,490966992
81,5,9,Ticks_ISO_T2_8,35,5,42,127,491011312
81,5,9,Ticks_ISO_T2_8,36,1,48,85,491797468
81,5,9,Ticks_ISO_T2_8,37,5,42,127,491812264
81,5,9,Ticks_ISO_T2_8,38,5,42,127,492612152
81,5,9,Ticks_ISO_T2_8,39,1,48,89,492613564
81,5,9,Ticks_ISO_T2_8,40,1,48,87,493410072
81,5,9,Ticks_ISO_T2_8,41,5,42,127,493411656
81,5,9,Ticks_ISO_T2_8,42,1,48,89,494201184
81,5,9,Ticks_ISO_T2_8,43,5,42,127,494211388
81,5,9,Ticks_ISO_T2_8,44,1,48,81,495001740
81,5,9,Ticks_ISO_T2_8,45,5,42,127,495012244
81,5,9,Ticks_ISO_T2_8,46,5,42,127,495811908
81,5,9,Ticks_ISO_T2_8,47,1,48,81,495824304
81,5,9,Ticks_ISO_T2_8,48,1,48,81,496611568
81,5,9,Ticks_ISO_T2_8,49,5,42,127,496613056
81,5,9,Ticks_ISO_T2_8,50,1,48,69,497409560
81,5,9,Ticks_ISO_T2_8,51,5,42,127,497411296
81,5,9,Ticks_ISO_T2_8,52,1,48,84,498205760
81,5,9,Ticks_ISO_T2_8,53,5,42,127,498212248
81,5,9,Ticks_ISO_T2_8,54,5,42,127,499012064
81,5,9,Ticks_ISO_T2_8,55,1,48,88,499020120
81,5,9,Ticks_ISO_T2_8,56,5,42,127,499811648
81,5,9,Ticks_ISO_T2_8,57,1,48,79,499847232
81,5,9,Ticks_ISO_T2_8,58,5,42,127,500611308
81,5,9,Ticks_ISO_T2_8,59,1,48,80,500641876
81,5,9,Ticks_ISO_T2_8,60,1,48,66,501389684
81,5,9,Ticks_ISO_T2_8,61,5,42,127,501412304
81,5,9,Ticks_ISO_T2_8,62,1,48,76,502201756
81,5,9,Ticks_ISO_T2_8,63,5,42,127,502211888
81,5,9,Ticks_ISO_T2_8,64,5,42,127,503011776
81,5,9,Ticks_ISO_T2_8,65,1,48,76,503038312
81,5,9,Ticks_ISO_T2_8,66,1,48,73,503808628
81,5,9,Ticks_ISO_T2_8,67,5,42,127,503811576
81,5,9,Ticks_ISO_T2_8,68,5,42,127,504612092
81,5,9,Ticks_ISO_T2_8,69,1,48,69,504639896
81,5,9,Ticks_ISO_T2_8,70,5,42,127,505411900
81,5,9,Ticks_ISO_T2_8,71,1,48,59,505469024
81,5,9,Ticks_ISO_T2_8,72,5,42,127,506211856
81,5,9,Ticks_ISO_T2_8,73,1,48,78,506267260
81,5,9,Ticks_ISO_T2_8,74,5,42,127,507011368
81,5,9,Ticks_ISO_T2_8,75,1,48,67,507056148
81,5,9,Ticks_ISO_T2_8,76,5,42,127,507812220
81,5,9,Ticks_ISO_T2_8,77,1,48,76,507832768
81,5,9,Ticks_ISO_T2_8,78,1,48,36,507907324
81,5,9,Ticks_ISO_T2_8,79,5,42,127,508612008
81,5,9,Ticks_ISO_T2_8,80,1,48,88,508648712
81,5,9,Ticks_ISO_T2_8,81,5,42,127,509411888
81,5,9,Ticks_ISO_T2_8,82,1,48,84,509481084
81,5,9,Ticks_ISO_T2_8,83,5,42,127,510211696
81,5,9,Ticks_ISO_T2_8,84,1,48,76,510292184
81,5,9,Ticks_ISO_T2_8,85,5,42,127,511012132
81,5,9,Ticks_ISO_T2_8,86,1,48,82,511080924
81,5,9,Ticks_ISO_T2_8,87,1,48,86,511795892
81,5,9,Ticks_ISO_T2_8,88,5,42,127,511811860
81,5,9,Ticks_ISO_T2_8,89,1,48,81,512571916
81,5,9,Ticks_ISO_T2_8,90,5,42,127,512611892
81,5,9,Ticks_ISO_T2_8,91,1,48,78,513392068
81,5,9,Ticks_ISO_T2_8,92,5,42,127,513411624
81,5,9,Ticks_ISO_T2_8,93,1,48,81,514165248
81,5,9,Ticks_ISO_T2_8,94,5,42,127,514212180
81,5,9,Ticks_ISO_T2_8,95,1,48,80,514997372
81,5,9,Ticks_ISO_T2_8,96,5,42,127,515012136
81,5,9,Ticks_ISO_T2_8,97,1,48,84,515801444
81,5,9,Ticks_ISO_T2_8,98,5,42,127,515811572
81,5,9,Ticks_ISO_T2_8,99,1,48,75,516601176
81,5,9,Ticks_ISO_T2_8,100,5,42,127,516611676
81,5,9,Ticks_ISO_T2_8,101,1,48,85,517391328
81,5,9,Ticks_ISO_T2_8,102,5,42,127,517412108
81,5,9,Ticks_ISO_T2_8,103,1,48,79,518151572
81,5,9,Ticks_ISO_T2_8,104,5,42,127,518211992
81,5,9,Ticks_ISO_T2_8,105,5,42,127,519011584
81,5,9,Ticks_ISO_T2_8,106,1,48,77,519048808
81,5,9,Ticks_ISO_T2_8,107,1,48,82,519797736
81,5,9,Ticks_ISO_T2_8,108,5,42,127,519811684
81,5,9,Ticks_ISO_T2_8,109,1,48,79,520587076
81,5,9,Ticks_ISO_T2_8,110,5,42,127,520612092
81,5,9,Ticks_ISO_T2_8,111,5,42,127,521411904
81,5,9,Ticks_ISO_T2_8,112,1,48,73,521413244
81,5,9,Ticks_ISO_T2_8,113,1,48,78,522183776
81,5,9,Ticks_ISO_T2_8,114,5,42,127,522211632
81,5,9,Ticks_ISO_T2_8,115,1,48,83,522997196
81,5,9,Ticks_ISO_T2_8,116,5,42,127,523011512
81,5,9,Ticks_ISO_T2_8,117,1,48,79,523774636
81,5,9,Ticks_ISO_T2_8,118,5,42,127,523812468
81,5,9,Ticks_ISO_T2_8,119,5,42,127,524611836
81,5,9,Ticks_ISO_T2_8,120,1,48,89,524630364
81,5,9,Ticks_ISO_T2_8,121,5,42,127,525411720
81,5,9,Ticks_ISO_T2_8,122,1,48,77,525448348
81,5,9,Ticks_ISO_T2_8,123,5,42,127,526211452
81,5,9,Ticks_ISO_T2_8,124,1,48,85,526226840
81,5,9,Ticks_ISO_T2_8,125,1,48,74,526986764
81,5,9,Ticks_ISO_T2_8,126,5,42,127,527012376
81,5,9,Ticks_ISO_T2_8,127,5,42,127,527811892
81,5,9,Ticks_ISO_T2_8,128,1,48,90,527823088
81,5,9,Ticks_ISO_T2_8,129,5,42,127,528611700
81,5,9,Ticks_ISO_T2_8,130,1,48,87,528628208
81,5,9,Ticks_ISO_T2_8,131,5,42,127,529411432
81,5,9,Ticks_ISO_T2_8,132,1,48,97,529412472
81,5,9,Ticks_ISO_T2_8,133,5,42,127,530212384
81,5,9,Ticks_ISO_T2_8,134,1,48,92,530222312
81,5,9,Ticks_ISO_T2_8,135,1,48,96,531008644
81,5,9,Ticks_ISO_T2_8,136,5,42,127,531011816
81,5,9,Ticks_ISO_T2_8,137,1,48,85,531808600
81,5,9,Ticks_ISO_T2_8,138,5,42,127,531811696
81,5,9,Ticks_ISO_T2_8,139,5,42,127,532611364
81,5,9,Ticks_ISO_T2_8,140,1,48,95,532612552
81,5,9,Ticks_ISO_T2_8,141,1,48,75,533368644
81,5,9,Ticks_ISO_T2_8,142,5,42,127,533412360
81,5,9,Ticks_ISO_T2_8,143,1,48,78,534160000
81,5,9,Ticks_ISO_T2_8,144,5,42,127,534211796
81,5,9,Ticks_ISO_T2_8,145,1,48,85,534975288
81,5,9,Ticks_ISO_T2_8,146,5,42,127,535011752
81,5,9,Ticks_ISO_T2_8,147,5,42,127,535811496
81,5,9,Ticks_ISO_T2_8,148,1,48,89,535823740
81,5,9,Ticks_ISO_T2_8,149,5,42,127,536612448
81,5,9,Ticks_ISO_T2_8,150,1,48,78,536619008
81,5,9,Ticks_ISO_T2_8,151,1,48,92,537365892
81,5,9,Ticks_ISO_T2_8,152,5,42,127,537411948
81,5,9,Ticks_ISO_T2_8,153,5,42,127,538211616
81,5,9,Ticks_ISO_T2_8,154,1,48,86,538222212
81,5,9,Ticks_ISO_T2_8,155,5,42,127,539011424
81,5,9,Ticks_ISO_T2_8,156,1,48,91,539016184
81,5,9,Ticks_ISO_T2_8,157,5,42,127,539812128
81,5,9,Ticks_ISO_T2_8,158,1,48,82,539834096
81,5,9,Ticks_ISO_T2_8,159,5,42,127,540612160
81,5,9,Ticks_ISO_T2_8,160,1,48,92,540622684
81,5,9,Ticks_ISO_T2_8,161,5,42,127,541411744
81,5,9,Ticks_ISO_T2_8,162,1,48,84,541440520
81,5,9,Ticks_ISO_T2_8,163,5,42,127,542211404
81,5,9,Ticks_ISO_T2_8,164,1,48,85,542224548
81,5,9,Ticks_ISO_T2_8,165,5,42,127,543012284
81,5,9,Ticks_ISO_T2_8,166,1,48,89,543054224
81,5,9,Ticks_ISO_T2_8,167,1,48,88,543801728
81,5,9,Ticks_ISO_T2_8,168,5,42,127,543811936
81,5,9,Ticks_ISO_T2_8,169,1,48,93,544608496
81,5,9,Ticks_ISO_T2_8,170,5,42,127,544611668
81,5,9,Ticks_ISO_T2_8,171,5,42,127,545411484
81,5,9,Ticks_ISO_T2_8,172,1,48,89,545431660
81,5,9,Ticks_ISO_T2_8,173,5,42,127,546212188
81,5,9,Ticks_ISO_T2_8,174,1,48,84,546227352
81,5,9,Ticks_ISO_T2_8,175,1,48,90,546985700
81,5,9,Ticks_ISO_T2_8,176,5,42,127,547011916
81,5,9,Ticks_ISO_T2_8,177,1,48,87,547755220
81,5,9,Ticks_ISO_T2_8,178,5,42,127,547811948
81,5,9,Ticks_ISO_T2_8,179,5,42,127,548611316
81,5,9,Ticks_ISO_T2_8,180,1,48,89,548639268
81,5,9,Ticks_ISO_T2_8,181,5,42,127,549412120
81,5,9,Ticks_ISO_T2_8,182,1,48,90,549451588
81,5,9,Ticks_ISO_T2_8,183,5,42,127,550212004
81,5,9,Ticks_ISO_T2_8,184,1,48,94,550215640
81,5,9,Ticks_ISO_T2_8,185,1,48,91,551008252
81,5,9,Ticks_ISO_T2_8,186,5,42,127,551011952
81,5,9,Ticks_ISO_T2_8,187,1,48,100,551810340
81,5,9,Ticks_ISO_T2_8,188,5,42,127,551812212
81,5,9,Ticks_ISO_T2_8,189,1,48,95,552595756
81,5,9,Ticks_ISO_T2_8,190,5,42,127,552612244
81,5,9,Ticks_ISO_T2_8,191,5,42,127,553412056
81,5,9,Ticks_ISO_T2_8,192,1,48,84,553454444
81,5,9,Ticks_ISO_T2_8,193,5,42,127,554211792
81,5,9,Ticks_ISO_T2_8,194,1,48,74,554248120
81,5,9,Ticks_ISO_T2_8,195,1,48,92,555001312
81,5,9,Ticks_ISO_T2_8,196,5,42,127,555011372
81,5,9,Ticks_ISO_T2_8,197,1,48,82,555799628
81,5,9,Ticks_ISO_T2_8,198,5,42,127,555812324
81,5,9,Ticks_ISO_T2_8,199,1,48,93,556580088
81,5,9,Ticks_ISO_T2_8,200,5,42,127,556611984
81,5,9,Ticks_ISO_T2_8,201,1,48,88,557377876
81,5,9,Ticks_ISO_T2_8,202,5,42,127,557411792
81,5,9,Ticks_ISO_T2_8,203,1,48,95,558146872
81,5,9,Ticks_ISO_T2_8,204,5,42,127,558211452
81,5,9,Ticks_ISO_T2_8,205,1,48,93,558962232
81,5,9,Ticks_ISO_T2_8,206,5,42,127,559012156
81,5,9,Ticks_ISO_T2_8,207,5,42,127,559811972
81,5,9,Ticks_ISO_T2_8,208,1,48,83,559841192
81,5,9,Ticks_ISO_T2_8,209,5,42,127,560611704
81,5,9,Ticks_ISO_T2_8,210,1,48,90,560617816
81,5,9,Ticks_ISO_T2_8,211,1,48,94,561380432
81,5,9,Ticks_ISO_T2_8,212,5,42,127,561411576
81,5,9,Ticks_ISO_T2_8,213,1,48,99,562192656
81,5,9,Ticks_ISO_T2_8,214,5,42,127,562212160
81,5,9,Ticks_ISO_T2_8,215,5,42,127,563011972
81,5,9,Ticks_ISO_T2_8,216,1,48,88,563018236
81,5,9,Ticks_ISO_T2_8,217,1,48,90,563781824
81,5,9,Ticks_ISO_T2_8,218,5,42,127,563811624
81,5,9,Ticks_ISO_T2_8,219,1,48,100,564574148
81,5,9,Ticks_ISO_T2_8,220,5,42,127,564611580
81,5,9,Ticks_ISO_T2_8,221,1,48,80,565388168
81,5,9,Ticks_ISO_T2_8,222,5,42,127,565412212
81,5,9,Ticks_ISO_T2_8,223,1,48,82,566171300
81,5,9,Ticks_ISO_T2_8,224,5,42,127,566211876
81,5,9,Ticks_ISO_T2_8,225,1,48,92,566968188
81,5,9,Ticks_ISO_T2_8,226,5,42,127,567011832
81,5,9,Ticks_ISO_T2_8,227,1,48,85,567786700
81,5,9,Ticks_ISO_T2_8,228,5,42,127,567811564
81,5,9,Ticks_ISO_T2_8,229,1,48,97,568566912
81,5,9,Ticks_ISO_T2_8,230,5,42,127,568612296
81,5,9,Ticks_ISO_T2_8,231,1,48,101,569373372
81,5,9,Ticks_ISO_T2_8,232,5,42,127,569411952
81,5,9,Ticks_ISO_T2_8,233,1,48,85,570196988
81,5,9,Ticks_ISO_T2_8,234,5,42,127,570211688
81,5,9,Ticks_ISO_T2_8,235,1,48,86,570971668
81,5,9,Ticks_ISO_T2_8,236,5,42,127,571011420
81,5,9,Ticks_ISO_T2_8,237,1,48,101,571790628
81,5,9,Ticks_ISO_T2_8,238,5,42,127,571812348
81,5,9,Ticks_ISO_T2_8,239,1,48,87,572590880
81,5,9,Ticks_ISO_T2_8,0,9999,9999,9999,476609616
81,5,9,Ticks_ISO_T2_8,1,9999,9999,9999,477409372
81,5,9,Ticks_ISO_T2_8,2,9999,9999,9999,478209128
81,5,9,Ticks_ISO_T2_8,3,9999,9999,9999,479009908
81,5,9,Ticks_ISO_T2_8,4,9999,9999,9999,479809592
81,5,9,Ticks_ISO_T2_8,5,9999,9999,9999,480609328
81,5,9,Ticks_ISO_T2_8,6,9999,9999,9999,481409136
81,5,9,Ticks_ISO_T2_8,7,9999,9999,9999,482209844
81,5,9,Ticks_ISO_T2_8,8,9999,9999,9999,483009652
81,5,9,Ticks_ISO_T2_8,9,9999,9999,9999,483809380
81,5,9,Ticks_ISO_T2_8,10,9999,9999,9999,484609112
81,5,9,Ticks_ISO_T2_8,11,9999,9999,9999,485409896
81,5,9,Ticks_ISO_T2_8,12,9999,9999,9999,486209584
81,5,9,Ticks_ISO_T2_8,13,9999,9999,9999,487009388
81,5,9,Ticks_ISO_T2_8,14,9999,9999,9999,487809116
81,5,9,Ticks_ISO_T2_8,15,9999,9999,9999,488609896
81,5,9,Ticks_ISO_T2_8,16,9999,9999,9999,489409628
81,5,9,Ticks_ISO_T2_8,17,9999,9999,9999,490209364
81,5,9,Ticks_ISO_T2_8,18,9999,9999,9999,491009096
81,5,9,Ticks_ISO_T2_8,19,9999,9999,9999,491809876
81,5,9,Ticks_ISO_T2_8,20,9999,9999,9999,492609640
81,5,9,Ticks_ISO_T2_8,21,9999,9999,9999,493409380
81,5,9,Ticks_ISO_T2_8,22,9999,9999,9999,494209104
81,5,9,Ticks_ISO_T2_8,23,9999,9999,9999,495009884
81,5,9,Ticks_ISO_T2_8,24,9999,9999,9999,495809620
81,5,9,Ticks_ISO_T2_8,25,9999,9999,9999,496609356
81,5,9,Ticks_ISO_T2_8,26,9999,9999,9999,497409108
81,5,9,Ticks_ISO_T2_8,27,9999,9999,9999,498209864
81,5,9,Ticks_ISO_T2_8,28,9999,9999,9999,499009628
81,5,9,Ticks_ISO_T2_8,29,9999,9999,9999,499809360
81,5,9,Ticks_ISO_T2_8,30,9999,9999,9999,500609092
81,5,9,Ticks_ISO_T2_8,31,9999,9999,9999,501409868
81,5,9,Ticks_ISO_T2_8,32,9999,9999,9999,502209600
81,5,9,Ticks_ISO_T2_8,33,9999,9999,9999,503009340
81,5,9,Ticks_ISO_T2_8,34,9999,9999,9999,503809140
81,5,9,Ticks_ISO_T2_8,35,9999,9999,9999,504609852
81,5,9,Ticks_ISO_T2_8,36,9999,9999,9999,505409612
81,5,9,Ticks_ISO_T2_8,37,9999,9999,9999,506209344
81,5,9,Ticks_ISO_T2_8,38,9999,9999,9999,507009080
81,5,9,Ticks_ISO_T2_8,39,9999,9999,9999,507809860
81,5,9,Ticks_ISO_T2_8,40,9999,9999,9999,508609644
81,5,9,Ticks_ISO_T2_8,41,9999,9999,9999,509409376
81,5,9,Ticks_ISO_T2_8,42,9999,9999,9999,510209112
81,5,9,Ticks_ISO_T2_8,43,9999,9999,9999,511009840
81,5,9,Ticks_ISO_T2_8,44,9999,9999,9999,511809644
81,5,9,Ticks_ISO_T2_8,45,9999,9999,9999,512609380
81,5,9,Ticks_ISO_T2_8,46,9999,9999,9999,513409112
81,5,9,Ticks_ISO_T2_8,47,9999,9999,9999,514209892
81,5,9,Ticks_ISO_T2_8,48,9999,9999,9999,515009628
81,5,9,Ticks_ISO_T2_8,49,9999,9999,9999,515809360
81,5,9,Ticks_ISO_T2_8,50,9999,9999,9999,516609092
81,5,9,Ticks_ISO_T2_8,51,9999,9999,9999,517409896
81,5,9,Ticks_ISO_T2_8,52,9999,9999,9999,518209632
81,5,9,Ticks_ISO_T2_8,53,9999,9999,9999,519009368
81,5,9,Ticks_ISO_T2_8,54,9999,9999,9999,519809096
81,5,9,Ticks_ISO_T2_8,55,9999,9999,9999,520609876
81,5,9,Ticks_ISO_T2_8,56,9999,9999,9999,521409616
81,5,9,Ticks_ISO_T2_8,57,9999,9999,9999,522209344
81,5,9,Ticks_ISO_T2_8,58,9999,9999,9999,523009076
81,5,9,Ticks_ISO_T2_8,59,9999,9999,9999,523809880
81,5,9,Ticks_ISO_T2_8,60,9999,9999,9999,524609620
81,5,9,Ticks_ISO_T2_8,61,9999,9999,9999,525409356
81,5,9,Ticks_ISO_T2_8,62,9999,9999,9999,526209088
81,5,9,Ticks_ISO_T2_8,63,9999,9999,9999,527009864
81,5,9,Ticks_ISO_T2_8,64,9999,9999,9999,527809604
81,5,9,Ticks_ISO_T2_8,65,9999,9999,9999,528609336
81,5,9,Ticks_ISO_T2_8,66,9999,9999,9999,529409144
81,5,9,Ticks_ISO_T2_8,67,9999,9999,9999,530209872
81,5,9,Ticks_ISO_T2_8,68,9999,9999,9999,531009600
81,5,9,Ticks_ISO_T2_8,69,9999,9999,9999,531809336
81,5,9,Ticks_ISO_T2_8,70,9999,9999,9999,532609076
81,5,9,Ticks_ISO_T2_8,71,9999,9999,9999,533409848
81,5,9,Ticks_ISO_T2_8,72,9999,9999,9999,534209580
81,5,9,Ticks_ISO_T2_8,73,9999,9999,9999,535009392
81,5,9,Ticks_ISO_T2_8,74,9999,9999,9999,535809132
81,5,9,Ticks_ISO_T2_8,75,9999,9999,9999,536609860
81,5,9,Ticks_ISO_T2_8,76,9999,9999,9999,537409588
81,5,9,Ticks_ISO_T2_8,77,9999,9999,9999,538209328
81,5,9,Ticks_ISO_T2_8,78,9999,9999,9999,539009136
81,5,9,Ticks_ISO_T2_8,79,9999,9999,9999,539809840
81,5,9,Ticks_ISO_T2_8,80,9999,9999,9999,540609648
81,5,9,Ticks_ISO_T2_8,81,9999,9999,9999,541409380
81,5,9,Ticks_ISO_T2_8,82,9999,9999,9999,542209116
81,5,9,Ticks_ISO_T2_8,83,9999,9999,9999,543009844
81,5,9,Ticks_ISO_T2_8,84,9999,9999,9999,543809648
81,5,9,Ticks_ISO_T2_8,85,9999,9999,9999,544609380
81,5,9,Ticks_ISO_T2_8,86,9999,9999,9999,545409120
81,5,9,Ticks_ISO_T2_8,87,9999,9999,9999,546209900
81,5,9,Ticks_ISO_T2_8,88,9999,9999,9999,547009628
81,5,9,Ticks_ISO_T2_8,89,9999,9999,9999,547809364
81,5,9,Ticks_ISO_T2_8,90,9999,9999,9999,548609104
81,5,9,Ticks_ISO_T2_8,91,9999,9999,9999,549409908
81,5,9,Ticks_ISO_T2_8,92,9999,9999,9999,550209640
81,5,9,Ticks_ISO_T2_8,93,9999,9999,9999,551009368
81,5,9,Ticks_ISO_T2_8,94,9999,9999,9999,551809108
81,5,9,Ticks_ISO_T2_8,95,9999,9999,9999,552609880
81,5,9,Ticks_ISO_T2_8,96,9999,9999,9999,553409620
81,5,9,Ticks_ISO_T2_8,97,9999,9999,9999,554209356
81,5,9,Ticks_ISO_T2_8,98,9999,9999,9999,555009084
81,5,9,Ticks_ISO_T2_8,99,9999,9999,9999,555809888
81,5,9,Ticks_ISO_T2_8,100,9999,9999,9999,556609624
81,5,9,Ticks_ISO_T2_8,101,9999,9999,9999,557409356
81,5,9,Ticks_ISO_T2_8,102,9999,9999,9999,558209088
81,5,9,Ticks_ISO_T2_8,103,9999,9999,9999,559009868
81,5,9,Ticks_ISO_T2_8,104,9999,9999,9999,559809608
81,5,9,Ticks_ISO_T2_8,105,9999,9999,9999,560609340
81,5,9,Ticks_ISO_T2_8,106,9999,9999,9999,561409140
81,5,9,Ticks_ISO_T2_8,107,9999,9999,9999,562209872
81,5,9,Ticks_ISO_T2_8,108,9999,9999,9999,563009612
81,5,9,Ticks_ISO_T2_8,109,9999,9999,9999,563809336
81,5,9,Ticks_ISO_T2_8,110,9999,9999,9999,564609072
81,5,9,Ticks_ISO_T2_8,111,9999,9999,9999,565409852
81,5,9,Ticks_ISO_T2_8,112,9999,9999,9999,566209584
81,5,9,Ticks_ISO_T2_8,113,9999,9999,9999,567009396
81,5,9,Ticks_ISO_T2_8,114,9999,9999,9999,567809128
81,5,9,Ticks_ISO_T2_8,115,9999,9999,9999,568609856
81,5,9,Ticks_ISO_T2_8,116,9999,9999,9999,569409592
81,5,9,Ticks_ISO_T2_8,117,9999,9999,9999,570209400
81,5,9,Ticks_ISO_T2_8,118,9999,9999,9999,571009132
81,5,9,Ticks_ISO_T2_8,119,9999,9999,9999,571809836
81,6,10,Ticks_ISO_T2_5,0,5,42,127,582995272
81,6,10,Ticks_ISO_T2_5,1,5,42,127,583495140
81,6,10,Ticks_ISO_T2_5,2,1,48,66,583937648
81,6,10,Ticks_ISO_T2_5,3,5,42,127,583994700
81,6,10,Ticks_ISO_T2_5,4,1,48,81,584459408
81,6,10,Ticks_ISO_T2_5,5,5,42,127,584494392
81,6,10,Ticks_ISO_T2_5,6,5,42,127,584995216
81,6,10,Ticks_ISO_T2_5,7,1,48,75,585130580
81,6,10,Ticks_ISO_T2_5,8,5,42,127,585495036
81,6,10,Ticks_ISO_T2_5,9,1,48,76,585503868
81,6,10,Ticks_ISO_T2_5,10,1,48,87,585967624
81,6,10,Ticks_ISO_T2_5,11,5,42,127,585994580
81,6,10,Ticks_ISO_T2_5,12,1,48,83,586464168
81,6,10,Ticks_ISO_T2_5,13,5,42,127,586495396
81,6,10,Ticks_ISO_T2_5,14,1,48,90,586974340
81,6,10,Ticks_ISO_T2_5,15,5,42,127,586995164
81,6,10,Ticks_ISO_T2_5,16,1,48,83,587479196
81,6,10,Ticks_ISO_T2_5,17,5,42,127,587494636
81,6,10,Ticks_ISO_T2_5,18,1,48,81,587980160
81,6,10,Ticks_ISO_T2_5,19,5,42,127,587994556
81,6,10,Ticks_ISO_T2_5,20,1,48,46,588031172
81,6,10,Ticks_ISO_T2_5,21,1,48,78,588481176
81,6,10,Ticks_ISO_T2_5,22,5,42,127,588495124
81,6,10,Ticks_ISO_T2_5,23,1,48,83,588960676
81,6,10,Ticks_ISO_T2_5,24,5,42,127,588994968
81,6,10,Ticks_ISO_T2_5,25,1,48,75,589443100
81,6,10,Ticks_ISO_T2_5,26,5,42,127,589494740
81,6,10,Ticks_ISO_T2_5,27,1,48,71,589952660
81,6,10,Ticks_ISO_T2_5,28,5,42,127,589995256
81,6,10,Ticks_ISO_T2_5,29,5,42,127,590495108
81,6,10,Ticks_ISO_T2_5,30,1,48,64,590965012
81,6,10,Ticks_ISO_T2_5,31,5,42,127,590994740
81,6,10,Ticks_ISO_T2_5,32,1,48,66,591449748
81,6,10,Ticks_ISO_T2_5,33,5,42,127,591494584
81,6,10,Ticks_ISO_T2_5,34,1,48,71,591925204
81,6,10,Ticks_ISO_T2_5,35,5,42,127,591995176
81,6,10,Ticks_ISO_T2_5,36,5,42,127,592495100
81,6,10,Ticks_ISO_T2_5,37,1,48,62,592504576
81,6,10,Ticks_ISO_T2_5,38,1,48,70,592978980
81,6,10,Ticks_ISO_T2_5,39,5,42,127,592994716
81,6,10,Ticks_ISO_T2_5,40,1,48,84,593452940
81,6,10,Ticks_ISO_T2_5,41,5,42,127,593495532
81,6,10,Ticks_ISO_T2_5,42,1,48,80,593973052
81,6,10,Ticks_ISO_T2_5,43,5,42,127,593995228
81,6,10,Ticks_ISO_T2_5,44,1,48,71,594475740
81,6,10,Ticks_ISO_T2_5,45,5,42,127,594495000
81,6,10,Ticks_ISO_T2_5,46,1,48,74,594959856
81,6,10,Ticks_ISO_T2_5,47,5,42,127,594994544
81,6,10,Ticks_ISO_T2_5,48,1,48,77,595458504
81,6,10,Ticks_ISO_T2_5,49,5,42,127,595495212
81,6,10,Ticks_ISO_T2_5,50,1,48,74,595963212
81,6,10,Ticks_ISO_T2_5,51,5,42,127,595994956
81,6,10,Ticks_ISO_T2_5,52,1,48,74,596463952
81,6,10,Ticks_ISO_T2_5,53,5,42,127,596494800
81,6,10,Ticks_ISO_T2_5,54,1,48,85,596935520
81,6,10,Ticks_ISO_T2_5,55,5,42,127,596994348
81,6,10,Ticks_ISO_T2_5,56,1,48,37,597033380
81,6,10,Ticks_ISO_T2_5,57,1,48,68,597450528
81,6,10,Ticks_ISO_T2_5,58,5,42,127,597495068
81,6,10,Ticks_ISO_T2_5,59,5,42,127,597994916
81,6,10,Ticks_ISO_T2_5,60,1,48,82,597996932
81,6,10,Ticks_ISO_T2_5,61,1,48,73,598483652
81,6,10,Ticks_ISO_T2_5,62,5,42,127,598494752
81,6,10,Ticks_ISO_T2_5,63,1,48,72,598989856
81,6,10,Ticks_ISO_T2_5,64,5,42,127,598995196
81,6,10,Ticks_ISO_T2_5,65,1,48,35,599470180
81,6,10,Ticks_ISO_T2_5,66,5,42,127,599495116
81,6,10,Ticks_ISO_T2_5,67,1,48,65,599929036
81,6,10,Ticks_ISO_T2_5,68,5,42,127,599995036
81,6,10,Ticks_ISO_T2_5,69,5,42,127,600494364
81,6,10,Ticks_ISO_T2_5,70,1,48,80,600497108
81,6,10,Ticks_ISO_T2_5,71,5,42,127,600995104
81,6,10,Ticks_ISO_T2_5,72,1,48,69,600999644
81,6,10,Ticks_ISO_T2_5,73,1,48,67,601473220
81,6,10,Ticks_ISO_T2_5,74,5,42,127,601495016
81,6,10,Ticks_ISO_T2_5,75,1,48,63,601962516
81,6,10,Ticks_ISO_T2_5,76,5,42,127,601994560
81,6,10,Ticks_ISO_T2_5,77,1,48,67,602447328
81,6,10,Ticks_ISO_T2_5,78,5,42,127,602495304
81,6,10,Ticks_ISO_T2_5,79,1,48,71,602951428
81,6,10,Ticks_ISO_T2_5,80,5,42,127,602994996
81,6,10,Ticks_ISO_T2_5,81,1,48,67,603453968
81,6,10,Ticks_ISO_T2_5,82,5,42,127,603494916
81,6,10,Ticks_ISO_T2_5,83,1,48,72,603947756
81,6,10,Ticks_ISO_T2_5,84,5,42,127,603994464
81,6,10,Ticks_ISO_T2_5,85,1,48,71,604456276
81,6,10,Ticks_ISO_T2_5,86,5,42,127,604495204
81,6,10,Ticks_ISO_T2_5,87,1,48,29,604533236
81,6,10,Ticks_ISO_T2_5,88,1,48,58,604948368
81,6,10,Ticks_ISO_T2_5,89,5,42,127,604995024
81,6,10,Ticks_ISO_T2_5,90,1,48,70,605469480
81,6,10,Ticks_ISO_T2_5,91,5,42,127,605494796
81,6,10,Ticks_ISO_T2_5,92,1,48,72,605950228
81,6,10,Ticks_ISO_T2_5,93,5,42,127,605995460
81,6,10,Ticks_ISO_T2_5,94,1,48,66,606442216
81,6,10,Ticks_ISO_T2_5,95,5,42,127,606495008
81,6,10,Ticks_ISO_T2_5,96,1,48,79,606951936
81,6,10,Ticks_ISO_T2_5,97,5,42,127,606994976
81,6,10,Ticks_ISO_T2_5,98,1,48,72,607460756
81,6,10,Ticks_ISO_T2_5,99,5,42,127,607494524
81,6,10,Ticks_ISO_T2_5,100,1,48,68,607977204
81,6,10,Ticks_ISO_T2_5,101,5,42,127,607995264
81,6,10,Ticks_ISO_T2_5,102,1,48,55,608469940
81,6,10,Ticks_ISO_T2_5,103,5,42,127,608494960
81,6,10,Ticks_ISO_T2_5,104,1,48,76,608973600
81,6,10,Ticks_ISO_T2_5,105,5,42,127,608994880
81,6,10,Ticks_ISO_T2_5,106,1,48,76,609454300
81,6,10,Ticks_ISO_T2_5,107,5,42,127,609495544
81,6,10,Ticks_ISO_T2_5,108,1,48,65,609937764
81,6,10,Ticks_ISO_T2_5,109,5,42,127,609995164
81,6,10,Ticks_ISO_T2_5,110,1,48,80,610450476
81,6,10,Ticks_ISO_T2_5,111,5,42,127,610494860
81,6,10,Ticks_ISO_T2_5,112,1,48,42,610498568
81,6,10,Ticks_ISO_T2_5,113,1,48,72,610940124
81,6,10,Ticks_ISO_T2_5,114,5,42,127,610994756
81,6,10,Ticks_ISO_T2_5,115,1,48,32,611000928
81,6,10,Ticks_ISO_T2_5,116,1,48,71,611464848
81,6,10,Ticks_ISO_T2_5,117,5,42,127,611495176
81,6,10,Ticks_ISO_T2_5,118,1,48,70,611971800
81,6,10,Ticks_ISO_T2_5,119,5,42,127,611995096
81,6,10,Ticks_ISO_T2_5,120,5,42,127,612494872
81,6,10,Ticks_ISO_T2_5,121,1,48,71,612499568
81,6,10,Ticks_ISO_T2_5,122,1,48,68,612967976
81,6,10,Ticks_ISO_T2_5,123,5,42,127,612994636
81,6,10,Ticks_ISO_T2_5,124,1,48,74,613457872
81,6,10,Ticks_ISO_T2_5,125,5,42,127,613495156
81,6,10,Ticks_ISO_T2_5,126,1,48,74,613950088
81,6,10,Ticks_ISO_T2_5,127,5,42,127,613994996
81,6,10,Ticks_ISO_T2_5,128,1,48,72,614466688
81,6,10,Ticks_ISO_T2_5,129,5,42,127,614494768
81,6,10,Ticks_ISO_T2_5,130,1,48,65,614982984
81,6,10,Ticks_ISO_T2_5,131,5,42,127,614995284
81,6,10,Ticks_ISO_T2_5,132,1,48,78,615473332
81,6,10,Ticks_ISO_T2_5,133,5,42,127,615494980
81,6,10,Ticks_ISO_T2_5,134,1,48,72,615956996
81,6,10,Ticks_ISO_T2_5,135,5,42,127,615994824
81,6,10,Ticks_ISO_T2_5,136,1,48,74,616451380
81,6,10,Ticks_ISO_T2_5,137,5,42,127,616494516
81,6,10,Ticks_ISO_T2_5,138,1,48,66,616958624
81,6,10,Ticks_ISO_T2_5,139,5,42,127,616995184
81,6,10,Ticks_ISO_T2_5,140,1,48,71,617458920
81,6,10,Ticks_ISO_T2_5,141,5,42,127,617495004
81,6,10,Ticks_ISO_T2_5,142,1,48,70,617980080
81,6,10,Ticks_ISO_T2_5,143,5,42,127,617994548
81,6,10,Ticks_ISO_T2_5,144,1,48,70,618471096
81,6,10,Ticks_ISO_T2_5,145,5,42,127,618495288
81,6,10,Ticks_ISO_T2_5,146,1,48,68,618978424
81,6,10,Ticks_ISO_T2_5,147,5,42,127,618994908
81,6,10,Ticks_ISO_T2_5,148,1,48,72,619443928
81,6,10,Ticks_ISO_T2_5,149,5,42,127,619494752
81,6,10,Ticks_ISO_T2_5,150,1,48,79,619926048
81,6,10,Ticks_ISO_T2_5,151,5,42,127,619994448
81,6,10,Ticks_ISO_T2_5,152,1,48,21,620011764
81,6,10,Ticks_ISO_T2_5,153,1,48,72,620472620
81,6,10,Ticks_ISO_T2_5,154,5,42,127,620495164
81,6,10,Ticks_ISO_T2_5,155,5,42,127,620994868
81,6,10,Ticks_ISO_T2_5,156,1,48,63,621035984
81,6,10,Ticks_ISO_T2_5,157,1,48,68,621485916
81,6,10,Ticks_ISO_T2_5,158,5,42,127,621494628
81,6,10,Ticks_ISO_T2_5,159,1,48,35,621556372
81,6,10,Ticks_ISO_T2_5,160,1,48,72,621963304
81,6,10,Ticks_ISO_T2_5,161,5,42,127,621995496
81,6,10,Ticks_ISO_T2_5,162,1,48,71,622477436
81,6,10,Ticks_ISO_T2_5,163,5,42,127,622494968
81,6,10,Ticks_ISO_T2_5,164,1,48,69,622958500
81,6,10,Ticks_ISO_T2_5,165,5,42,127,622994736
81,6,10,Ticks_ISO_T2_5,166,1,48,71,623458724
81,6,10,Ticks_ISO_T2_5,167,5,42,127,623494432
81,6,10,Ticks_ISO_T2_5,168,1,48,67,623978912
81,6,10,Ticks_ISO_T2_5,169,5,42,127,623995324
81,6,10,Ticks_ISO_T2_5,170,1,48,65,624481448
81,6,10,Ticks_ISO_T2_5,171,5,42,127,624494868
81,6,10,Ticks_ISO_T2_5,172,1,48,71,624978304
81,6,10,Ticks_ISO_T2_5,173,5,42,127,624994788
81,6,10,Ticks_ISO_T2_5,174,1,48,67,625475900
81,6,10,Ticks_ISO_T2_5,175,5,42,127,625495528
81,6,10,Ticks_ISO_T2_5,176,1,48,69,625959440
81,6,10,Ticks_ISO_T2_5,177,5,42,127,625995372
81,6,10,Ticks_ISO_T2_5,178,1,48,64,626479852
81,6,10,Ticks_ISO_T2_5,179,5,42,127,626494696
81,6,10,Ticks_ISO_T2_5,180,1,48,67,626950204
81,6,10,Ticks_ISO_T2_5,181,5,42,127,626994388
81,6,10,Ticks_ISO_T2_5,182,1,48,61,627479512
81,6,10,Ticks_ISO_T2_5,183,5,42,127,627495504
81,6,10,Ticks_ISO_T2_5,184,5,42,127,627994956
81,6,10,Ticks_ISO_T2_5,185,1,48,61,628004084
81,6,10,Ticks_ISO_T2_5,186,1,48,63,628464388
81,6,10,Ticks_ISO_T2_5,187,5,42,127,628494644
81,6,10,Ticks_ISO_T2_5,188,1,48,71,628976500
81,6,10,Ticks_ISO_T2_5,189,5,42,127,628994416
81,6,10,Ticks_ISO_T2_5,190,1,48,76,629461240
81,6,10,Ticks_ISO_T2_5,191,5,42,127,629495304
81,6,10,Ticks_ISO_T2_5,192,1,48,68,629950688
81,6,10,Ticks_ISO_T2_5,193,5,42,127,629994848
81,6,10,Ticks_ISO_T2_5,194,5,42,127,630494700
81,6,10,Ticks_ISO_T2_5,195,1,48,66,630496112
81,6,10,Ticks_ISO_T2_5,196,5,42,127,630995364
81,6,10,Ticks_ISO_T2_5,197,1,48,65,631008364
81,6,10,Ticks_ISO_T2_5,198,1,48,77,631477744
81,6,10,Ticks_ISO_T2_5,199,5,42,127,631494980
81,6,10,Ticks_ISO_T2_5,200,1,48,60,631966664
81,6,10,Ticks_ISO_T2_5,201,5,42,127,631994676
81,6,10,Ticks_ISO_T2_5,202,1,48,61,632461576
81,6,10,Ticks_ISO_T2_5,203,5,42,127,632494368
81,6,10,Ticks_ISO_T2_5,204,1,48,67,632972260
81,6,10,Ticks_ISO_T2_5,205,5,42,127,632995408
81,6,10,Ticks_ISO_T2_5,206,1,48,75,633451460
81,6,10,Ticks_ISO_T2_5,207,5,42,127,633494952
81,6,10,Ticks_ISO_T2_5,208,1,48,74,633966188
81,6,10,Ticks_ISO_T2_5,209,5,42,127,633994572
81,6,10,Ticks_ISO_T2_5,210,1,48,74,634444792
81,6,10,Ticks_ISO_T2_5,211,5,42,127,634495464
81,6,10,Ticks_ISO_T2_5,212,1,48,59,634958328
81,6,10,Ticks_ISO_T2_5,213,5,42,127,634995232
81,6,10,Ticks_ISO_T2_5,214,1,48,67,635449944
81,6,10,Ticks_ISO_T2_5,215,5,42,127,635494632
81,6,10,Ticks_ISO_T2_5,216,1,48,66,635959368
81,6,10,Ticks_ISO_T2_5,217,5,42,127,635994400
81,6,10,Ticks_ISO_T2_5,218,1,48,65,636460108
81,6,10,Ticks_ISO_T2_5,219,5,42,127,636495292
81,6,10,Ticks_ISO_T2_5,220,1,48,70,636944444
81,6,10,Ticks_ISO_T2_5,221,5,42,127,636995208
81,6,10,Ticks_ISO_T2_5,222,1,48,55,637419004
81,6,10,Ticks_ISO_T2_5,223,5,42,127,637494604
81,6,10,Ticks_ISO_T2_5,224,1,48,65,637963048
81,6,10,Ticks_ISO_T2_5,225,5,42,127,637995344
81,6,10,Ticks_ISO_T2_5,226,1,48,65,638455636
81,6,10,Ticks_ISO_T2_5,227,5,42,127,638495416
81,6,10,Ticks_ISO_T2_5,228,1,48,62,638957504
81,6,10,Ticks_ISO_T2_5,229,5,42,127,638995160
81,6,10,Ticks_ISO_T2_5,230,1,48,57,639464608
81,6,10,Ticks_ISO_T2_5,231,5,42,127,639494556
81,6,10,Ticks_ISO_T2_5,232,1,48,68,639934080
81,6,10,Ticks_ISO_T2_5,233,5,42,127,639995224
81,6,10,Ticks_ISO_T2_5,234,1,48,65,640448664
81,6,10,Ticks_ISO_T2_5,235,5,42,127,640494992
81,6,10,Ticks_ISO_T2_5,236,1,48,68,640944088
81,6,10,Ticks_ISO_T2_5,237,5,42,127,640994616
81,6,10,Ticks_ISO_T2_5,238,1,48,57,641474756
81,6,10,Ticks_ISO_T2_5,239,5,42,127,641495504
81,6,10,Ticks_ISO_T2_5,240,1,48,72,641967344
81,6,10,Ticks_ISO_T2_5,241,5,42,127,641995048
81,6,10,Ticks_ISO_T2_5,242,1,48,70,642444376
81,6,10,Ticks_ISO_T2_5,243,5,42,127,642494820
81,6,10,Ticks_ISO_T2_5,244,1,48,73,642943988
81,6,10,Ticks_ISO_T2_5,245,5,42,127,642994512
81,6,10,Ticks_ISO_T2_5,246,1,48,71,643433064
81,6,10,Ticks_ISO_T2_5,247,5,42,127,643495256
81,6,10,Ticks_ISO_T2_5,248,1,48,65,643952132
81,6,10,Ticks_ISO_T2_5,249,5,42,127,643994952
81,6,10,Ticks_ISO_T2_5,250,1,48,69,644428564
81,6,10,Ticks_ISO_T2_5,251,5,42,127,644494720
81,6,10,Ticks_ISO_T2_5,252,1,48,62,644922800
81,6,10,Ticks_ISO_T2_5,253,5,42,127,644994488
81,6,10,Ticks_ISO_T2_5,254,1,48,66,645439176
81,6,10,Ticks_ISO_T2_5,255,5,42,127,645495084
81,6,10,Ticks_ISO_T2_5,256,1,48,59,645926528
81,6,10,Ticks_ISO_T2_5,257,5,42,127,645994928
81,6,10,Ticks_ISO_T2_5,258,1,48,60,646426496
81,6,10,Ticks_ISO_T2_5,259,5,42,127,646494448
81,6,10,Ticks_ISO_T2_5,260,1,48,71,646946608
81,6,10,Ticks_ISO_T2_5,261,5,42,127,646995188
81,6,10,Ticks_ISO_T2_5,262,1,48,68,647455280
81,6,10,Ticks_ISO_T2_5,263,5,42,127,647494884
81,6,10,Ticks_ISO_T2_5,264,1,48,70,647924508
81,6,10,Ticks_ISO_T2_5,0,9999,9999,9999,582992988
81,6,10,Ticks_ISO_T2_5,1,9999,9999,9999,583492704
81,6,10,Ticks_ISO_T2_5,2,9999,9999,9999,583992416
81,6,10,Ticks_ISO_T2_5,3,9999,9999,9999,584492108
81,6,10,Ticks_ISO_T2_5,4,9999,9999,9999,584992856
81,6,10,Ticks_ISO_T2_5,5,9999,9999,9999,585492528
81,6,10,Ticks_ISO_T2_5,6,9999,9999,9999,585992292
81,6,10,Ticks_ISO_T2_5,7,9999,9999,9999,586493032
81,6,10,Ticks_ISO_T2_5,8,9999,9999,9999,586992728
81,6,10,Ticks_ISO_T2_5,9,9999,9999,9999,587492424
81,6,10,Ticks_ISO_T2_5,10,9999,9999,9999,587992120
81,6,10,Ticks_ISO_T2_5,11,9999,9999,9999,588492912
81,6,10,Ticks_ISO_T2_5,12,9999,9999,9999,588992608
81,6,10,Ticks_ISO_T2_5,13,9999,9999,9999,589492304
81,6,10,Ticks_ISO_T2_5,14,9999,9999,9999,589993044
81,6,10,Ticks_ISO_T2_5,15,9999,9999,9999,590492744
81,6,10,Ticks_ISO_T2_5,16,9999,9999,9999,590992456
81,6,10,Ticks_ISO_T2_5,17,9999,9999,9999,591492148
81,6,10,Ticks_ISO_T2_5,18,9999,9999,9999,591992892
81,6,10,Ticks_ISO_T2_5,19,9999,9999,9999,592492664
81,6,10,Ticks_ISO_T2_5,20,9999,9999,9999,592992356
81,6,10,Ticks_ISO_T2_5,21,9999,9999,9999,593493100
81,6,10,Ticks_ISO_T2_5,22,9999,9999,9999,593992792
81,6,10,Ticks_ISO_T2_5,23,9999,9999,9999,594492488
81,6,10,Ticks_ISO_T2_5,24,9999,9999,9999,594992184
81,6,10,Ticks_ISO_T2_5,25,9999,9999,9999,595492924
81,6,10,Ticks_ISO_T2_5,26,9999,9999,9999,595992672
81,6,10,Ticks_ISO_T2_5,27,9999,9999,9999,596492364
81,6,10,Ticks_ISO_T2_5,28,9999,9999,9999,596992060
81,6,10,Ticks_ISO_T2_5,29,9999,9999,9999,597492856
81,6,10,Ticks_ISO_T2_5,30,9999,9999,9999,597992556
81,6,10,Ticks_ISO_T2_5,31,9999,9999,9999,598492244
81,6,10,Ticks_ISO_T2_5,32,9999,9999,9999,598992984
81,6,10,Ticks_ISO_T2_5,33,9999,9999,9999,599492680
81,6,10,Ticks_ISO_T2_5,34,9999,9999,9999,599992376
81,6,10,Ticks_ISO_T2_5,35,9999,9999,9999,600492152
81,6,10,Ticks_ISO_T2_5,36,9999,9999,9999,600992820
81,6,10,Ticks_ISO_T2_5,37,9999,9999,9999,601492580
81,6,10,Ticks_ISO_T2_5,38,9999,9999,9999,601992276
81,6,10,Ticks_ISO_T2_5,39,9999,9999,9999,602493016
81,6,10,Ticks_ISO_T2_5,40,9999,9999,9999,602992712
81,6,10,Ticks_ISO_T2_5,41,9999,9999,9999,603492408
81,6,10,Ticks_ISO_T2_5,42,9999,9999,9999,603992176
81,6,10,Ticks_ISO_T2_5,43,9999,9999,9999,604492916
81,6,10,Ticks_ISO_T2_5,44,9999,9999,9999,604992588
81,6,10,Ticks_ISO_T2_5,45,9999,9999,9999,605492288
81,6,10,Ticks_ISO_T2_5,46,9999,9999,9999,605993028
81,6,10,Ticks_ISO_T2_5,47,9999,9999,9999,606492720
81,6,10,Ticks_ISO_T2_5,48,9999,9999,9999,606992464
81,6,10,Ticks_ISO_T2_5,49,9999,9999,9999,607492160
81,6,10,Ticks_ISO_T2_5,50,9999,9999,9999,607992904
81,6,10,Ticks_ISO_T2_5,51,9999,9999,9999,608492600
81,6,10,Ticks_ISO_T2_5,52,9999,9999,9999,608992368
81,6,10,Ticks_ISO_T2_5,53,9999,9999,9999,609493112
81,6,10,Ticks_ISO_T2_5,54,9999,9999,9999,609992804
81,6,10,Ticks_ISO_T2_5,55,9999,9999,9999,610492500
81,6,10,Ticks_ISO_T2_5,56,9999,9999,9999,610992248
81,6,10,Ticks_ISO_T2_5,57,9999,9999,9999,611492964
81,6,10,Ticks_ISO_T2_5,58,9999,9999,9999,611992660
81,6,10,Ticks_ISO_T2_5,59,9999,9999,9999,612492360
81,6,10,Ticks_ISO_T2_5,60,9999,9999,9999,612992052
81,6,10,Ticks_ISO_T2_5,61,9999,9999,9999,613492796
81,6,10,Ticks_ISO_T2_5,62,9999,9999,9999,613992564
81,6,10,Ticks_ISO_T2_5,63,9999,9999,9999,614492256
81,6,10,Ticks_ISO_T2_5,64,9999,9999,9999,614992996
81,6,10,Ticks_ISO_T2_5,65,9999,9999,9999,615492692
81,6,10,Ticks_ISO_T2_5,66,9999,9999,9999,615992388
81,6,10,Ticks_ISO_T2_5,67,9999,9999,9999,616492084
81,6,10,Ticks_ISO_T2_5,68,9999,9999,9999,616992824
81,6,10,Ticks_ISO_T2_5,69,9999,9999,9999,617492568
81,6,10,Ticks_ISO_T2_5,70,9999,9999,9999,617992260
81,6,10,Ticks_ISO_T2_5,71,9999,9999,9999,618493004
81,6,10,Ticks_ISO_T2_5,72,9999,9999,9999,618992696
81,6,10,Ticks_ISO_T2_5,73,9999,9999,9999,619492464
81,6,10,Ticks_ISO_T2_5,74,9999,9999,9999,619992164
81,6,10,Ticks_ISO_T2_5,75,9999,9999,9999,620492880
81,6,10,Ticks_ISO_T2_5,76,9999,9999,9999,620992580
81,6,10,Ticks_ISO_T2_5,77,9999,9999,9999,621492344
81,6,10,Ticks_ISO_T2_5,78,9999,9999,9999,621993064
81,6,10,Ticks_ISO_T2_5,79,9999,9999,9999,622492756
81,6,10,Ticks_ISO_T2_5,80,9999,9999,9999,622992452
81,6,10,Ticks_ISO_T2_5,81,9999,9999,9999,623492148
81,6,10,Ticks_ISO_T2_5,82,9999,9999,9999,623992888
81,6,10,Ticks_ISO_T2_5,83,9999,9999,9999,624492656
81,6,10,Ticks_ISO_T2_5,84,9999,9999,9999,624992352
81,6,10,Ticks_ISO_T2_5,85,9999,9999,9999,625493096
81,6,10,Ticks_ISO_T2_5,86,9999,9999,9999,625992788
81,6,10,Ticks_ISO_T2_5,87,9999,9999,9999,626492484
81,6,10,Ticks_ISO_T2_5,88,9999,9999,9999,626992176
81,6,10,Ticks_ISO_T2_5,89,9999,9999,9999,627492920
81,6,10,Ticks_ISO_T2_5,90,9999,9999,9999,627992668
81,6,10,Ticks_ISO_T2_5,91,9999,9999,9999,628492356
81,6,10,Ticks_ISO_T2_5,92,9999,9999,9999,628992052
81,6,10,Ticks_ISO_T2_5,93,9999,9999,9999,629492796
81,6,10,Ticks_ISO_T2_5,94,9999,9999,9999,629992564
81,6,10,Ticks_ISO_T2_5,95,9999,9999,9999,630492264
81,6,10,Ticks_ISO_T2_5,96,9999,9999,9999,630993004
81,6,10,Ticks_ISO_T2_5,97,9999,9999,9999,631492692
81,6,10,Ticks_ISO_T2_5,98,9999,9999,9999,631992388
81,6,10,Ticks_ISO_T2_5,99,9999,9999,9999,632492084
81,6,10,Ticks_ISO_T2_5,100,9999,9999,9999,632992824
81,6,10,Ticks_ISO_T2_5,101,9999,9999,9999,633492592
81,6,10,Ticks_ISO_T2_5,102,9999,9999,9999,633992288
81,6,10,Ticks_ISO_T2_5,103,9999,9999,9999,634493028
81,6,10,Ticks_ISO_T2_5,104,9999,9999,9999,634992724
81,6,10,Ticks_ISO_T2_5,105,9999,9999,9999,635492420
81,6,10,Ticks_ISO_T2_5,106,9999,9999,9999,635992116
81,6,10,Ticks_ISO_T2_5,107,9999,9999,9999,636492856
81,6,10,Ticks_ISO_T2_5,108,9999,9999,9999,636992624
81,6,10,Ticks_ISO_T2_5,109,9999,9999,9999,637492320
81,6,10,Ticks_ISO_T2_5,110,9999,9999,9999,637993060
81,6,10,Ticks_ISO_T2_5,111,9999,9999,9999,638492756
81,6,10,Ticks_ISO_T2_5,112,9999,9999,9999,638992500
81,6,10,Ticks_ISO_T2_5,113,9999,9999,9999,639492196
81,6,10,Ticks_ISO_T2_5,114,9999,9999,9999,639992940
81,6,10,Ticks_ISO_T2_5,115,9999,9999,9999,640492632
81,6,10,Ticks_ISO_T2_5,116,9999,9999,9999,640992328
81,6,10,Ticks_ISO_T2_5,117,9999,9999,9999,641493068
81,6,10,Ticks_ISO_T2_5,118,9999,9999,9999,641992764
81,6,10,Ticks_ISO_T2_5,119,9999,9999,9999,642492532
81,6,10,Ticks_ISO_T2_5,120,9999,9999,9999,642992228
81,6,10,Ticks_ISO_T2_5,121,9999,9999,9999,643492968
81,6,10,Ticks_ISO_T2_5,122,9999,9999,9999,643992664
81,6,10,Ticks_ISO_T2_5,123,9999,9999,9999,644492360
81,6,10,Ticks_ISO_T2_5,124,9999,9999,9999,644992056
81,6,10,Ticks_ISO_T2_5,125,9999,9999,9999,645492796
81,6,10,Ticks_ISO_T2_5,126,9999,9999,9999,645992564
81,6,10,Ticks_ISO_T2_5,127,9999,9999,9999,646492236
81,6,10,Ticks_ISO_T2_5,128,9999,9999,9999,646992976
81,6,10,Ticks_ISO_T2_5,129,9999,9999,9999,647492672
81,7,22,Ticks_Phase_8,0,5,42,127,658821604
81,7,22,Ticks_Phase_8,1,5,42,127,659622236
81,7,22,Ticks_Phase_8,2,5,42,127,660422044
81,7,22,Ticks_Phase_8,3,1,48,69,660475336
81,7,22,Ticks_Phase_8,4,5,42,127,661221904
81,7,22,Ticks_Phase_8,5,1,48,68,661260604
81,7,22,Ticks_Phase_8,6,5,42,127,662021764
81,7,22,Ticks_Phase_8,7,1,48,71,662064972
81,7,22,Ticks_Phase_8,8,5,42,127,662822176
81,7,22,Ticks_Phase_8,9,1,48,76,662839068
81,7,22,Ticks_Phase_8,10,1,48,84,663591896
81,7,22,Ticks_Phase_8,11,5,42,127,663622032
81,7,22,Ticks_Phase_8,12,1,48,76,664405756
81,7,22,Ticks_Phase_8,13,5,42,127,664421964
81,7,22,Ticks_Phase_8,14,1,48,84,665200456
81,7,22,Ticks_Phase_8,15,5,42,127,665221676
81,7,22,Ticks_Phase_8,16,1,48,88,666003308
81,7,22,Ticks_Phase_8,17,5,42,127,666022288
81,7,22,Ticks_Phase_8,18,1,48,72,666816196
81,7,22,Ticks_Phase_8,19,5,42,127,666822144
81,7,22,Ticks_Phase_8,20,1,48,77,667604976
81,7,22,Ticks_Phase_8,21,5,42,127,667621636
81,7,22,Ticks_Phase_8,22,1,48,82,668413600
81,7,22,Ticks_Phase_8,23,5,42,127,668421720
81,7,22,Ticks_Phase_8,24,5,42,127,669222436
81,7,22,Ticks_Phase_8,25,1,48,88,669230580
81,7,22,Ticks_Phase_8,26,1,48,82,669983772
81,7,22,Ticks_Phase_8,27,5,42,127,670022140
81,7,22,Ticks_Phase_8,28,1,48,73,670807144
81,7,22,Ticks_Phase_8,29,5,42,127,670821628
81,7,22,Ticks_Phase_8,30,1,48,83,671573460
81,7,22,Ticks_Phase_8,31,5,42,127,671621416
81,7,22,Ticks_Phase_8,32,1,48,75,672383356
81,7,22,Ticks_Phase_8,33,5,42,127,672422396
81,7,22,Ticks_Phase_8,34,1,48,81,673209732
81,7,22,Ticks_Phase_8,35,5,42,127,673221960
81,7,22,Ticks_Phase_8,36,1,48,80,673997828
81,7,22,Ticks_Phase_8,37,5,42,127,674021600
81,7,22,Ticks_Phase_8,38,1,48,73,674804576
81,7,22,Ticks_Phase_8,39,5,42,127,674821460
81,7,22,Ticks_Phase_8,40,1,48,75,675600776
81,7,22,Ticks_Phase_8,41,5,42,127,675622316
81,7,22,Ticks_Phase_8,42,1,48,75,676384704
81,7,22,Ticks_Phase_8,43,5,42,127,676422104
81,7,22,Ticks_Phase_8,44,1,48,96,677211080
81,7,22,Ticks_Phase_8,45,5,42,127,677221668
81,7,22,Ticks_Phase_8,46,1,48,86,678011468
81,7,22,Ticks_Phase_8,47,5,42,127,678021456
81,7,22,Ticks_Phase_8,48,5,42,127,678822444
81,7,22,Ticks_Phase_8,49,1,48,84,678864504
81,7,22,Ticks_Phase_8,50,5,42,127,679621856
81,7,22,Ticks_Phase_8,51,1,48,85,679623268
81,7,22,Ticks_Phase_8,52,5,42,127,680421716
81,7,22,Ticks_Phase_8,53,1,48,78,680442064
81,7,22,Ticks_Phase_8,54,1,48,82,681211136
81,7,22,Ticks_Phase_8,55,5,42,127,681221424
81,7,22,Ticks_Phase_8,56,5,42,127,682022360
81,7,22,Ticks_Phase_8,57,1,48,83,682034396
81,7,22,Ticks_Phase_8,58,5,42,127,682801556
81,7,22,Ticks_Phase_8,59,1,48,76,682829008
81,7,22,Ticks_Phase_8,60,1,48,82,683599352
81,7,22,Ticks_Phase_8,61,5,42,127,683602308
81,7,22,Ticks_Phase_8,62,1,48,79,684392560
81,7,22,Ticks_Phase_8,63,5,42,127,684402244
81,7,22,Ticks_Phase_8,64,1,48,91,685175940
81,7,22,Ticks_Phase_8,65,5,42,127,685201880
81,7,22,Ticks_Phase_8,66,5,42,127,686001452
81,7,22,Ticks_Phase_8,67,1,48,87,686012356
81,7,22,Ticks_Phase_8,68,1,48,79,686787488
81,7,22,Ticks_Phase_8,69,5,42,127,686802276
81,7,22,Ticks_Phase_8,70,1,48,74,687591100
81,7,22,Ticks_Phase_8,71,5,42,127,687602208
81,7,22,Ticks_Phase_8,72,5,42,127,688401856
81,7,22,Ticks_Phase_8,73,1,48,76,688406992
81,7,22,Ticks_Phase_8,74,5,42,127,689201516
81,7,22,Ticks_Phase_8,75,1,48,64,689208380
81,7,22,Ticks_Phase_8,76,1,48,79,689980152
81,7,22,Ticks_Phase_8,77,5,42,127,690002344
81,7,22,Ticks_Phase_8,78,1,48,79,690787268
81,7,22,Ticks_Phase_8,79,5,42,127,690802128
81,7,22,Ticks_Phase_8,80,1,48,26,691142480
81,7,22,Ticks_Phase_8,81,1,48,92,691572140
81,7,22,Ticks_Phase_8,82,5,42,127,691602120
81,7,22,Ticks_Phase_8,83,1,48,92,692398204
81,7,22,Ticks_Phase_8,84,5,42,127,692401532
81,7,22,Ticks_Phase_8,85,1,48,86,693176352
81,7,22,Ticks_Phase_8,86,5,42,127,693202292
81,7,22,Ticks_Phase_8,87,1,48,76,693999964
81,7,22,Ticks_Phase_8,88,5,42,127,694001928
81,7,22,Ticks_Phase_8,89,1,48,70,694761396
81,7,22,Ticks_Phase_8,90,5,42,127,694802012
81,7,22,Ticks_Phase_8,91,1,48,92,695544480
81,7,22,Ticks_Phase_8,92,5,42,127,695601380
81,7,22,Ticks_Phase_8,93,1,48,86,696392896
81,7,22,Ticks_Phase_8,94,5,42,127,696402284
81,7,22,Ticks_Phase_8,95,1,48,89,697186160
81,7,22,Ticks_Phase_8,96,5,42,127,697221396
81,7,22,Ticks_Phase_8,97,1,48,87,698005344
81,7,22,Ticks_Phase_8,98,5,42,127,698022228
81,7,22,Ticks_Phase_8,99,1,48,84,698803492
81,7,22,Ticks_Phase_8,100,5,42,127,698822016
81,7,22,Ticks_Phase_8,101,5,42,127,699621960
81,7,22,Ticks_Phase_8,102,1,48,78,699629880
81,7,22,Ticks_Phase_8,103,1,48,81,700408976
81,7,22,Ticks_Phase_8,104,5,42,127,700421368
81,7,22,Ticks_Phase_8,105,5,42,127,701222156
81,7,22,Ticks_Phase_8,106,1,48,95,701235388
81,7,22,Ticks_Phase_8,107,1,48,92,701993600
81,7,22,Ticks_Phase_8,108,5,42,127,702021936
81,7,22,Ticks_Phase_8,109,1,48,101,702807908
81,7,22,Ticks_Phase_8,110,5,42,127,702821796
81,7,22,Ticks_Phase_8,111,1,48,92,703616684
81,7,22,Ticks_Phase_8,112,5,42,127,703621508
81,7,22,Ticks_Phase_8,113,5,42,127,704422200
81,7,22,Ticks_Phase_8,114,1,48,93,704455724
81,7,22,Ticks_Phase_8,115,1,48,83,705216704
81,7,22,Ticks_Phase_8,116,5,42,127,705222052
81,7,22,Ticks_Phase_8,117,1,48,88,706011256
81,7,22,Ticks_Phase_8,118,5,42,127,706021764
81,7,22,Ticks_Phase_8,119,5,42,127,706821708
81,7,22,Ticks_Phase_8,120,1,48,85,706828040
81,7,22,Ticks_Phase_8,121,1,48,80,707599676
81,7,22,Ticks_Phase_8,122,5,42,127,707622260
81,7,22,Ticks_Phase_8,123,1,48,78,708393040
81,7,22,Ticks_Phase_8,124,5,42,127,708421972
81,7,22,Ticks_Phase_8,125,1,48,70,709197684
81,7,22,Ticks_Phase_8,126,5,42,127,709221760
81,7,22,Ticks_Phase_8,127,1,48,78,709983696
81,7,22,Ticks_Phase_8,128,5,42,127,710061612
81,7,22,Ticks_Phase_8,129,5,42,127,710862228
81,7,22,Ticks_Phase_8,130,1,48,93,710927724
81,7,22,Ticks_Phase_8,131,5,42,127,711661864
81,7,22,Ticks_Phase_8,132,1,48,84,711692992
81,7,22,Ticks_Phase_8,133,1,48,84,712431888
81,7,22,Ticks_Phase_8,134,5,42,127,712461644
81,7,22,Ticks_Phase_8,135,1,48,70,713210332
81,7,22,Ticks_Phase_8,136,5,42,127,713261676
81,7,22,Ticks_Phase_8,137,1,48,67,714032160
81,7,22,Ticks_Phase_8,138,5,42,127,714062140
81,7,22,Ticks_Phase_8,139,1,48,66,714817560
81,7,22,Ticks_Phase_8,140,5,42,127,714861924
81,7,22,Ticks_Phase_8,141,1,48,84,715621244
81,7,22,Ticks_Phase_8,142,5,42,127,715661636
81,7,22,Ticks_Phase_8,143,1,48,76,716444916
81,7,22,Ticks_Phase_8,144,5,42,127,716461572
81,7,22,Ticks_Phase_8,145,1,48,77,717212356
81,7,22,Ticks_Phase_8,146,5,42,127,717262332
81,7,22,Ticks_Phase_8,147,5,42,127,718061904
81,7,22,Ticks_Phase_8,148,1,48,89,718075956
81,7,22,Ticks_Phase_8,149,5,42,127,718861540
81,7,22,Ticks_Phase_8,150,1,48,80,718866532
81,7,22,Ticks_Phase_8,151,1,48,79,719651732
81,7,22,Ticks_Phase_8,152,5,42,127,719661496
81,7,22,Ticks_Phase_8,153,1,48,85,720442980
81,7,22,Ticks_Phase_8,154,5,42,127,720462180
81,7,22,Ticks_Phase_8,155,1,48,78,721254148
81,7,22,Ticks_Phase_8,156,5,42,127,721261816
81,7,22,Ticks_Phase_8,157,1,48,81,722050124
81,7,22,Ticks_Phase_8,158,5,42,127,722061676
81,7,22,Ticks_Phase_8,159,5,42,127,722861320
81,7,22,Ticks_Phase_8,160,1,48,89,722863988
81,7,22,Ticks_Phase_8,161,5,42,127,723622464
81,7,22,Ticks_Phase_8,162,1,48,79,723635616
81,7,22,Ticks_Phase_8,163,1,48,84,724382152
81,7,22,Ticks_Phase_8,164,5,42,127,724421944
81,7,22,Ticks_Phase_8,165,1,48,93,725218404
81,7,22,Ticks_Phase_8,166,5,42,127,725221656
81,7,22,Ticks_Phase_8,167,5,42,127,726021448
81,7,22,Ticks_Phase_8,168,1,48,87,726030112
81,7,22,Ticks_Phase_8,169,5,42,127,726822232
81,7,22,Ticks_Phase_8,170,1,48,84,726832768
81,7,22,Ticks_Phase_8,171,1,48,88,727618612
81,7,22,Ticks_Phase_8,172,5,42,127,727621940
81,7,22,Ticks_Phase_8,173,1,48,89,728398772
81,7,22,Ticks_Phase_8,174,5,42,127,728421652
81,7,22,Ticks_Phase_8,175,1,48,86,729216612
81,7,22,Ticks_Phase_8,176,5,42,127,729221440
81,7,22,Ticks_Phase_8,177,5,42,127,730022128
81,7,22,Ticks_Phase_8,178,1,48,83,730039020
81,7,22,Ticks_Phase_8,179,5,42,127,730822064
81,7,22,Ticks_Phase_8,180,1,48,86,730840616
81,7,22,Ticks_Phase_8,181,5,42,127,731621776
81,7,22,Ticks_Phase_8,182,1,48,81,731637696
81,7,22,Ticks_Phase_8,183,5,42,127,732421412
81,7,22,Ticks_Phase_8,184,1,48,76,732442456
81,7,22,Ticks_Phase_8,185,1,48,81,733207328
81,7,22,Ticks_Phase_8,186,5,42,127,733222264
81,7,22,Ticks_Phase_8,187,1,48,80,734004348
81,7,22,Ticks_Phase_8,188,5,42,127,734022052
81,7,22,Ticks_Phase_8,189,1,48,81,734751416
81,7,22,Ticks_Phase_8,190,5,42,127,734822132
81,7,22,Ticks_Phase_8,191,5,42,127,735621632
81,7,22,Ticks_Phase_8,192,1,48,86,735674024
81,7,22,Ticks_Phase_8,193,5,42,127,736342260
81,7,22,Ticks_Phase_8,194,1,48,83,736469388
81,7,22,Ticks_Phase_8,195,5,42,127,737142272
81,7,22,Ticks_Phase_8,196,1,48,70,737359064
81,7,22,Ticks_Phase_8,197,5,42,127,737942204
81,7,22,Ticks_Phase_8,198,1,48,65,738051224
81,7,22,Ticks_Phase_8,199,5,42,127,738741616
81,7,22,Ticks_Phase_8,200,1,48,62,738773124
81,7,22,Ticks_Phase_8,201,5,42,127,739542380
81,7,22,Ticks_Phase_8,202,1,48,63,739545496
81,7,22,Ticks_Phase_8,203,1,48,66,740319520
81,7,22,Ticks_Phase_8,204,5,42,127,740342232
81,7,22,Ticks_Phase_8,205,1,48,33,740376212
81,7,22,Ticks_Phase_8,206,1,48,86,741068948
81,7,22,Ticks_Phase_8,207,5,42,127,741142096
81,7,22,Ticks_Phase_8,208,1,48,79,741914588
81,7,22,Ticks_Phase_8,209,5,42,127,741941584
81,7,22,Ticks_Phase_8,210,5,42,127,742742348
81,7,22,Ticks_Phase_8,211,1,48,85,742774596
81,7,22,Ticks_Phase_8,212,5,42,127,743542060
81,7,22,Ticks_Phase_8,213,1,48,89,743551992
81,7,22,Ticks_Phase_8,214,5,42,127,744341992
81,7,22,Ticks_Phase_8,215,1,48,90,744361516
81,7,22,Ticks_Phase_8,216,1,48,89,745108188
81,7,22,Ticks_Phase_8,217,5,42,127,745141996
81,7,22,Ticks_Phase_8,218,1,48,87,745910904
81,7,22,Ticks_Phase_8,219,5,42,127,745942308
81,7,22,Ticks_Phase_8,220,1,48,86,746686724
81,7,22,Ticks_Phase_8,221,5,42,127,746742096
81,7,22,Ticks_Phase_8,222,1,48,97,747532192
81,7,22,Ticks_Phase_8,223,5,42,127,747541832
81,7,22,Ticks_Phase_8,224,5,42,127,748341548
81,7,22,Ticks_Phase_8,225,1,48,84,748353656
81,7,22,Ticks_Phase_8,226,5,42,127,749142308
81,7,22,Ticks_Phase_8,227,1,48,86,749168716
81,7,22,Ticks_Phase_8,228,1,48,82,749939060
81,7,22,Ticks_Phase_8,229,5,42,127,750022068
81,7,22,Ticks_Phase_8,230,1,48,83,750794636
81,7,22,Ticks_Phase_8,231,5,42,127,750821856
81,7,22,Ticks_Phase_8,232,1,48,87,751602220
81,7,22,Ticks_Phase_8,233,5,42,127,751621344
81,7,22,Ticks_Phase_8,234,1,48,79,752407792
81,7,22,Ticks_Phase_8,235,5,42,127,752422128
81,7,22,Ticks_Phase_8,236,1,48,82,753176196
81,7,22,Ticks_Phase_8,237,5,42,127,753222136
81,7,22,Ticks_Phase_8,238,1,48,84,753975160
81,7,22,Ticks_Phase_8,239,5,42,127,754021924
81,7,22,Ticks_Phase_8,240,5,42,127,754821640
81,7,22,Ticks_Phase_8,241,1,48,81,754822608
81,7,22,Ticks_Phase_8,242,1,48,92,755595628
81,7,22,Ticks_Phase_8,243,5,42,127,755622244
81,7,22,Ticks_Phase_8,244,5,42,127,756421888
81,7,22,Ticks_Phase_8,245,1,48,83,756425528
81,7,22,Ticks_Phase_8,246,1,48,78,757217964
81,7,22,Ticks_Phase_8,247,5,42,127,757221816
81,7,22,Ticks_Phase_8,248,5,42,127,758021612
81,7,22,Ticks_Phase_8,249,1,48,75,758022724
81,7,22,Ticks_Phase_8,250,5,42,127,758822316
81,7,22,Ticks_Phase_8,251,1,48,81,758830832
81,7,22,Ticks_Phase_8,252,1,48,75,759594880
81,7,22,Ticks_Phase_8,253,5,42,127,759622096
81,7,22,Ticks_Phase_8,254,5,42,127,760421740
81,7,22,Ticks_Phase_8,255,1,48,89,760424932
81,7,22,Ticks_Phase_8,256,5,42,127,761221676
81,7,22,Ticks_Phase_8,257,1,48,78,761277964
81,7,22,Ticks_Phase_8,258,1,48,85,762020092
81,7,22,Ticks_Phase_8,259,5,42,127,762022208
81,7,22,Ticks_Phase_8,260,5,42,127,762821928
81,7,22,Ticks_Phase_8,261,1,48,97,762847660
81,7,22,Ticks_Phase_8,262,1,48,80,763643020
81,7,22,Ticks_Phase_8,263,5,42,127,763781452
81,7,22,Ticks_Phase_8,264,5,42,127,764582528
81,7,22,Ticks_Phase_8,265,1,48,88,764642720
81,7,22,Ticks_Phase_8,266,5,42,127,765382092
81,7,22,Ticks_Phase_8,267,1,48,88,765442056
81,7,22,Ticks_Phase_8,268,5,42,127,766181656
81,7,22,Ticks_Phase_8,269,1,48,86,766215024
81,7,22,Ticks_Phase_8,270,5,42,127,766981660
81,7,22,Ticks_Phase_8,271,1,48,85,766990408
81,7,22,Ticks_Phase_8,272,1,48,81,767749208
81,7,22,Ticks_Phase_8,273,5,42,127,767782364
81,7,22,Ticks_Phase_8,274,5,42,127,768582008
81,7,22,Ticks_Phase_8,275,1,48,88,768586692
81,7,22,Ticks_Phase_8,276,5,42,127,769381720
81,7,22,Ticks_Phase_8,277,1,48,76,769394424
81,7,22,Ticks_Phase_8,278,1,48,67,770165068
81,7,22,Ticks_Phase_8,279,5,42,127,770181576
81,7,22,Ticks_Phase_8,280,1,48,74,770942172
81,7,22,Ticks_Phase_8,281,5,42,127,770982332
81,7,22,Ticks_Phase_8,282,1,48,71,771739548
81,7,22,Ticks_Phase_8,283,5,42,127,771782196
81,7,22,Ticks_Phase_8,284,1,48,84,772578432
81,7,22,Ticks_Phase_8,285,5,42,127,772581612
81,7,22,Ticks_Phase_8,286,5,42,127,773381480
81,7,22,Ticks_Phase_8,287,1,48,73,773394032
81,7,22,Ticks_Phase_8,288,5,42,127,774182336
81,7,22,Ticks_Phase_8,289,1,48,67,774211444
81,7,22,Ticks_Phase_8,290,1,48,70,774952284
81,7,22,Ticks_Phase_8,291,5,42,127,774981968
81,7,22,Ticks_Phase_8,292,1,48,65,775780628
81,7,22,Ticks_Phase_8,293,5,42,127,775781976
81,7,22,Ticks_Phase_8,294,5,42,127,776581472
81,7,22,Ticks_Phase_8,295,1,48,73,776602792
81,7,22,Ticks_Phase_8,296,5,42,127,777382232
81,7,22,Ticks_Phase_8,297,1,48,73,777406016
81,7,22,Ticks_Phase_8,298,5,42,127,778182016
81,7,22,Ticks_Phase_8,299,1,48,70,778238600
81,7,22,Ticks_Phase_8,300,5,42,127,778822144
81,7,22,Ticks_Phase_8,301,1,48,81,778965896
81,7,22,Ticks_Phase_8,302,1,48,64,779542068
81,7,22,Ticks_Phase_8,303,5,42,127,779621776
81,7,22,Ticks_Phase_8,304,1,48,77,780359072
81,7,22,Ticks_Phase_8,305,5,42,127,780421340
81,7,22,Ticks_Phase_8,306,1,48,81,781169876
81,7,22,Ticks_Phase_8,307,5,42,127,781222320
81,7,22,Ticks_Phase_8,308,1,48,90,781937448
81,7,22,Ticks_Phase_8,309,5,42,127,782022032
81,7,22,Ticks_Phase_8,310,1,48,81,782766592
81,7,22,Ticks_Phase_8,311,5,42,127,782821668
81,7,22,Ticks_Phase_8,312,1,48,75,783582860
81,7,22,Ticks_Phase_8,313,5,42,127,783621380
81,7,22,Ticks_Phase_8,314,1,48,79,784395448
81,7,22,Ticks_Phase_8,315,5,42,127,784422240
81,7,22,Ticks_Phase_8,316,1,48,83,785194660
81,7,22,Ticks_Phase_8,317,5,42,127,785222176
81,7,22,Ticks_Phase_8,318,1,48,35,785243100
81,7,22,Ticks_Phase_8,319,1,48,75,785974284
81,7,22,Ticks_Phase_8,320,5,42,127,786021792
81,7,22,Ticks_Phase_8,321,1,48,75,786779912
81,7,22,Ticks_Phase_8,322,5,42,127,786821428
81,7,22,Ticks_Phase_8,323,1,48,63,787588380
81,7,22,Ticks_Phase_8,324,5,42,127,787622188
81,7,22,Ticks_Phase_8,325,1,48,71,788379548
81,7,22,Ticks_Phase_8,326,5,42,127,788422120
81,7,22,Ticks_Phase_8,327,1,48,72,789160328
81,7,22,Ticks_Phase_8,328,5,42,127,789221684
81,7,22,Ticks_Phase_8,329,1,48,69,789955532
81,7,22,Ticks_Phase_8,330,5,42,127,790021472
81,7,22,Ticks_Phase_8,331,1,48,77,790744468
81,7,22,Ticks_Phase_8,332,5,42,127,790822328
81,7,22,Ticks_Phase_8,333,1,48,72,791549712
81,7,22,Ticks_Phase_8,334,5,42,127,791622260
81,7,22,Ticks_Phase_8,335,1,48,79,792329444
81,7,22,Ticks_Phase_8,336,5,42,127,792422196
81,7,22,Ticks_Phase_8,337,1,48,73,793134708
81,7,22,Ticks_Phase_8,338,5,42,127,793221460
81,7,22,Ticks_Phase_8,339,1,48,73,793996728
81,7,22,Ticks_Phase_8,340,5,42,127,794022220
81,7,22,Ticks_Phase_8,0,9999,9999,9999,658819168
81,7,22,Ticks_Phase_8,1,9999,9999,9999,659619948
81,7,22,Ticks_Phase_8,2,9999,9999,9999,660419680
81,7,22,Ticks_Phase_8,3,9999,9999,9999,661219392
81,7,22,Ticks_Phase_8,4,9999,9999,9999,662019180
81,7,22,Ticks_Phase_8,5,9999,9999,9999,662819964
81,7,22,Ticks_Phase_8,6,9999,9999,9999,663619672
81,7,22,Ticks_Phase_8,7,9999,9999,9999,664419456
81,7,22,Ticks_Phase_8,8,9999,9999,9999,665219168
81,7,22,Ticks_Phase_8,9,9999,9999,9999,666019924
81,7,22,Ticks_Phase_8,10,9999,9999,9999,666819712
81,7,22,Ticks_Phase_8,11,9999,9999,9999,667619424
81,7,22,Ticks_Phase_8,12,9999,9999,9999,668419136
81,7,22,Ticks_Phase_8,13,9999,9999,9999,669219924
81,7,22,Ticks_Phase_8,14,9999,9999,9999,670019708
81,7,22,Ticks_Phase_8,15,9999,9999,9999,670819416
81,7,22,Ticks_Phase_8,16,9999,9999,9999,671619132
81,7,22,Ticks_Phase_8,17,9999,9999,9999,672419964
81,7,22,Ticks_Phase_8,18,9999,9999,9999,673219676
81,7,22,Ticks_Phase_8,19,9999,9999,9999,674019388
81,7,22,Ticks_Phase_8,20,9999,9999,9999,674819172
81,7,22,Ticks_Phase_8,21,9999,9999,9999,675619956
81,7,22,Ticks_Phase_8,22,9999,9999,9999,676419672
81,7,22,Ticks_Phase_8,23,9999,9999,9999,677219384
81,7,22,Ticks_Phase_8,24,9999,9999,9999,678019168
81,7,22,Ticks_Phase_8,25,9999,9999,9999,678819932
81,7,22,Ticks_Phase_8,26,9999,9999,9999,679619644
81,7,22,Ticks_Phase_8,27,9999,9999,9999,680419432
81,7,22,Ticks_Phase_8,28,9999,9999,9999,681219136
81,7,22,Ticks_Phase_8,29,9999,9999,9999,682019924
81,7,22,Ticks_Phase_8,30,9999,9999,9999,682799192
81,7,22,Ticks_Phase_8,31,9999,9999,9999,683599948
81,7,22,Ticks_Phase_8,32,9999,9999,9999,684399732
81,7,22,Ticks_Phase_8,33,9999,9999,9999,685199444
81,7,22,Ticks_Phase_8,34,9999,9999,9999,685999164
81,7,22,Ticks_Phase_8,35,9999,9999,9999,686799988
81,7,22,Ticks_Phase_8,36,9999,9999,9999,687599700
81,7,22,Ticks_Phase_8,37,9999,9999,9999,688399420
81,7,22,Ticks_Phase_8,38,9999,9999,9999,689199228
81,7,22,Ticks_Phase_8,39,9999,9999,9999,689999984
81,7,22,Ticks_Phase_8,40,9999,9999,9999,690799692
81,7,22,Ticks_Phase_8,41,9999,9999,9999,691599460
81,7,22,Ticks_Phase_8,42,9999,9999,9999,692399172
81,7,22,Ticks_Phase_8,43,9999,9999,9999,693199932
81,7,22,Ticks_Phase_8,44,9999,9999,9999,693999680
81,7,22,Ticks_Phase_8,45,9999,9999,9999,694799428
81,7,22,Ticks_Phase_8,46,9999,9999,9999,695599164
81,7,22,Ticks_Phase_8,47,9999,9999,9999,696399996
81,7,22,Ticks_Phase_8,48,9999,9999,9999,697219184
81,7,22,Ticks_Phase_8,49,9999,9999,9999,698019944
81,7,22,Ticks_Phase_8,50,9999,9999,9999,698819656
81,7,22,Ticks_Phase_8,51,9999,9999,9999,699619448
81,7,22,Ticks_Phase_8,52,9999,9999,9999,700419156
81,7,22,Ticks_Phase_8,53,9999,9999,9999,701219944
81,7,22,Ticks_Phase_8,54,9999,9999,9999,702019652
81,7,22,Ticks_Phase_8,55,9999,9999,9999,702819436
81,7,22,Ticks_Phase_8,56,9999,9999,9999,703619148
81,7,22,Ticks_Phase_8,57,9999,9999,9999,704419912
81,7,22,Ticks_Phase_8,58,9999,9999,9999,705219692
81,7,22,Ticks_Phase_8,59,9999,9999,9999,706019404
81,7,22,Ticks_Phase_8,60,9999,9999,9999,706819196
81,7,22,Ticks_Phase_8,61,9999,9999,9999,707619900
81,7,22,Ticks_Phase_8,62,9999,9999,9999,708419688
81,7,22,Ticks_Phase_8,63,9999,9999,9999,709219400
81,7,22,Ticks_Phase_8,64,9999,9999,9999,710059100
81,7,22,Ticks_Phase_8,65,9999,9999,9999,710859864
81,7,22,Ticks_Phase_8,66,9999,9999,9999,711659580
81,7,22,Ticks_Phase_8,67,9999,9999,9999,712459356
81,7,22,Ticks_Phase_8,68,9999,9999,9999,713259092
81,7,22,Ticks_Phase_8,69,9999,9999,9999,714059852
81,7,22,Ticks_Phase_8,70,9999,9999,9999,714859640
81,7,22,Ticks_Phase_8,71,9999,9999,9999,715659352
81,7,22,Ticks_Phase_8,72,9999,9999,9999,716459064
81,7,22,Ticks_Phase_8,73,9999,9999,9999,717259896
81,7,22,Ticks_Phase_8,74,9999,9999,9999,718059616
81,7,22,Ticks_Phase_8,75,9999,9999,9999,718859328
81,7,22,Ticks_Phase_8,76,9999,9999,9999,719659136
81,7,22,Ticks_Phase_8,77,9999,9999,9999,720459892
81,7,22,Ticks_Phase_8,78,9999,9999,9999,721259604
81,7,22,Ticks_Phase_8,79,9999,9999,9999,722059392
81,7,22,Ticks_Phase_8,80,9999,9999,9999,722859108
81,7,22,Ticks_Phase_8,81,9999,9999,9999,723619952
81,7,22,Ticks_Phase_8,82,9999,9999,9999,724419656
81,7,22,Ticks_Phase_8,83,9999,9999,9999,725219444
81,7,22,Ticks_Phase_8,84,9999,9999,9999,726019164
81,7,22,Ticks_Phase_8,85,9999,9999,9999,726819944
81,7,22,Ticks_Phase_8,86,9999,9999,9999,727619652
81,7,22,Ticks_Phase_8,87,9999,9999,9999,728419440
81,7,22,Ticks_Phase_8,88,9999,9999,9999,729219152
81,7,22,Ticks_Phase_8,89,9999,9999,9999,730019916
81,7,22,Ticks_Phase_8,90,9999,9999,9999,730819704
81,7,22,Ticks_Phase_8,91,9999,9999,9999,731619416
81,7,22,Ticks_Phase_8,92,9999,9999,9999,732419124
81,7,22,Ticks_Phase_8,93,9999,9999,9999,733219904
81,7,22,Ticks_Phase_8,94,9999,9999,9999,734019688
81,7,22,Ticks_Phase_8,95,9999,9999,9999,734819400
81,7,22,Ticks_Phase_8,96,9999,9999,9999,735619192
81,7,22,Ticks_Phase_8,97,9999,9999,9999,736340048
81,7,22,Ticks_Phase_8,98,9999,9999,9999,737139836
81,7,22,Ticks_Phase_8,99,9999,9999,9999,737939544
81,7,22,Ticks_Phase_8,100,9999,9999,9999,738739256
81,7,22,Ticks_Phase_8,101,9999,9999,9999,739540092
81,7,22,Ticks_Phase_8,102,9999,9999,9999,740339796
81,7,22,Ticks_Phase_8,103,9999,9999,9999,741139560
81,7,22,Ticks_Phase_8,104,9999,9999,9999,741939296
81,7,22,Ticks_Phase_8,105,9999,9999,9999,742740060
81,7,22,Ticks_Phase_8,106,9999,9999,9999,743539772
81,7,22,Ticks_Phase_8,107,9999,9999,9999,744339560
81,7,22,Ticks_Phase_8,108,9999,9999,9999,745139264
81,7,22,Ticks_Phase_8,109,9999,9999,9999,745940096
81,7,22,Ticks_Phase_8,110,9999,9999,9999,746739808
81,7,22,Ticks_Phase_8,111,9999,9999,9999,747539520
81,7,22,Ticks_Phase_8,112,9999,9999,9999,748339264
81,7,22,Ticks_Phase_8,113,9999,9999,9999,749140020
81,7,22,Ticks_Phase_8,114,9999,9999,9999,750019708
81,7,22,Ticks_Phase_8,115,9999,9999,9999,750819420
81,7,22,Ticks_Phase_8,116,9999,9999,9999,751619132
81,7,22,Ticks_Phase_8,117,9999,9999,9999,752419916
81,7,22,Ticks_Phase_8,118,9999,9999,9999,753219700
81,7,22,Ticks_Phase_8,119,9999,9999,9999,754019412
81,7,22,Ticks_Phase_8,120,9999,9999,9999,754819132
81,7,22,Ticks_Phase_8,121,9999,9999,9999,755619960
81,7,22,Ticks_Phase_8,122,9999,9999,9999,756419676
81,7,22,Ticks_Phase_8,123,9999,9999,9999,757219380
81,7,22,Ticks_Phase_8,124,9999,9999,9999,758019176
81,7,22,Ticks_Phase_8,125,9999,9999,9999,758819956
81,7,22,Ticks_Phase_8,126,9999,9999,9999,759619664
81,7,22,Ticks_Phase_8,127,9999,9999,9999,760419452
81,7,22,Ticks_Phase_8,128,9999,9999,9999,761219164
81,7,22,Ticks_Phase_8,129,9999,9999,9999,762019964
81,7,22,Ticks_Phase_8,130,9999,9999,9999,762819640
81,7,22,Ticks_Phase_8,131,9999,9999,9999,763779164
81,7,22,Ticks_Phase_8,132,9999,9999,9999,764579944
81,7,22,Ticks_Phase_8,133,9999,9999,9999,765379656
81,7,22,Ticks_Phase_8,134,9999,9999,9999,766179440
81,7,22,Ticks_Phase_8,135,9999,9999,9999,766979152
81,7,22,Ticks_Phase_8,136,9999,9999,9999,767779928
81,7,22,Ticks_Phase_8,137,9999,9999,9999,768579648
81,7,22,Ticks_Phase_8,138,9999,9999,9999,769379432
81,7,22,Ticks_Phase_8,139,9999,9999,9999,770179140
81,7,22,Ticks_Phase_8,140,9999,9999,9999,770979900
81,7,22,Ticks_Phase_8,141,9999,9999,9999,771779688
81,7,22,Ticks_Phase_8,142,9999,9999,9999,772579400
81,7,22,Ticks_Phase_8,143,9999,9999,9999,773379192
81,7,22,Ticks_Phase_8,144,9999,9999,9999,774179900
81,7,22,Ticks_Phase_8,145,9999,9999,9999,774979680
81,7,22,Ticks_Phase_8,146,9999,9999,9999,775779400
81,7,22,Ticks_Phase_8,147,9999,9999,9999,776579188
81,7,22,Ticks_Phase_8,148,9999,9999,9999,777379944
81,7,22,Ticks_Phase_8,149,9999,9999,9999,778179656
81,7,22,Ticks_Phase_8,150,9999,9999,9999,778819708
81,7,22,Ticks_Phase_8,151,9999,9999,9999,779619416
81,7,22,Ticks_Phase_8,152,9999,9999,9999,780419128
81,7,22,Ticks_Phase_8,153,9999,9999,9999,781219960
81,7,22,Ticks_Phase_8,154,9999,9999,9999,782019672
81,7,22,Ticks_Phase_8,155,9999,9999,9999,782819380
81,7,22,Ticks_Phase_8,156,9999,9999,9999,783619168
81,7,22,Ticks_Phase_8,157,9999,9999,9999,784419952
81,7,22,Ticks_Phase_8,158,9999,9999,9999,785219664
81,7,22,Ticks_Phase_8,159,9999,9999,9999,786019432
81,7,22,Ticks_Phase_8,160,9999,9999,9999,786819140
81,7,22,Ticks_Phase_8,161,9999,9999,9999,787619900
81,7,22,Ticks_Phase_8,162,9999,9999,9999,788419688
81,7,22,Ticks_Phase_8,163,9999,9999,9999,789219400
81,7,22,Ticks_Phase_8,164,9999,9999,9999,790019184
81,7,22,Ticks_Phase_8,165,9999,9999,9999,790819968
81,7,22,Ticks_Phase_8,166,9999,9999,9999,791619676
81,7,22,Ticks_Phase_8,167,9999,9999,9999,792419388
81,7,22,Ticks_Phase_8,168,9999,9999,9999,793219176
81,7,22,Ticks_Phase_8,169,9999,9999,9999,794019936
81,8,23,Ticks_Phase_5,0,5,42,127,803779864
81,8,23,Ticks_Phase_5,1,5,42,127,804279872
81,8,23,Ticks_Phase_5,2,5,42,127,804780256
81,8,23,Ticks_Phase_5,3,1,48,56,805249972
81,8,23,Ticks_Phase_5,4,5,42,127,805280108
81,8,23,Ticks_Phase_5,5,1,48,78,805727652
81,8,23,Ticks_Phase_5,6,5,42,127,805779872
81,8,23,Ticks_Phase_5,7,1,48,72,806241932
81,8,23,Ticks_Phase_5,8,5,42,127,806279780
81,8,23,Ticks_Phase_5,9,1,48,80,806745140
81,8,23,Ticks_Phase_5,10,5,42,127,806780292
81,8,23,Ticks_Phase_5,11,1,48,82,807235692
81,8,23,Ticks_Phase_5,12,5,42,127,807279908
81,8,23,Ticks_Phase_5,13,1,48,78,807751108
81,8,23,Ticks_Phase_5,14,5,42,127,807779892
81,8,23,Ticks_Phase_5,15,1,48,62,808238592
81,8,23,Ticks_Phase_5,16,5,42,127,808280552
81,8,23,Ticks_Phase_5,17,1,48,72,808744188
81,8,23,Ticks_Phase_5,18,5,42,127,808790648
81,8,23,Ticks_Phase_5,19,1,48,75,809247020
81,8,23,Ticks_Phase_5,20,5,42,127,809290040
81,8,23,Ticks_Phase_5,21,1,48,81,809742116
81,8,23,Ticks_Phase_5,22,5,42,127,809789876
81,8,23,Ticks_Phase_5,23,1,48,74,810257152
81,8,23,Ticks_Phase_5,24,5,42,127,810289688
81,8,23,Ticks_Phase_5,25,1,48,85,810735696
81,8,23,Ticks_Phase_5,26,5,42,127,810790124
81,8,23,Ticks_Phase_5,27,1,48,78,811255676
81,8,23,Ticks_Phase_5,28,5,42,127,811290036
81,8,23,Ticks_Phase_5,29,1,48,80,811762108
81,8,23,Ticks_Phase_5,30,5,42,127,811789624
81,8,23,Ticks_Phase_5,31,1,48,80,812260528
81,8,23,Ticks_Phase_5,32,5,42,127,812290584
81,8,23,Ticks_Phase_5,33,1,48,75,812766196
81,8,23,Ticks_Phase_5,34,5,42,127,812800604
81,8,23,Ticks_Phase_5,35,1,48,92,813250540
81,8,23,Ticks_Phase_5,36,5,42,127,813299996
81,8,23,Ticks_Phase_5,37,1,48,80,813750308
81,8,23,Ticks_Phase_5,38,5,42,127,813799760
81,8,23,Ticks_Phase_5,39,1,48,30,813816040
81,8,23,Ticks_Phase_5,40,5,42,127,814299508
81,8,23,Ticks_Phase_5,41,1,48,81,814303300
81,8,23,Ticks_Phase_5,42,5,42,127,814800388
81,8,23,Ticks_Phase_5,43,1,48,76,814839984
81,8,23,Ticks_Phase_5,44,5,42,127,815299928
81,8,23,Ticks_Phase_5,45,1,48,83,815307836
81,8,23,Ticks_Phase_5,46,1,48,83,815775532
81,8,23,Ticks_Phase_5,47,5,42,127,815799684
81,8,23,Ticks_Phase_5,48,1,48,75,816255676
81,8,23,Ticks_Phase_5,49,5,42,127,816300568
81,8,23,Ticks_Phase_5,50,1,48,73,816760540
81,8,23,Ticks_Phase_5,51,5,42,127,816800032
81,8,23,Ticks_Phase_5,52,1,48,72,817280296
81,8,23,Ticks_Phase_5,53,5,42,127,817299868
81,8,23,Ticks_Phase_5,54,1,48,78,817782452
81,8,23,Ticks_Phase_5,55,5,42,127,817799484
81,8,23,Ticks_Phase_5,56,1,48,76,818267544
81,8,23,Ticks_Phase_5,57,5,42,127,818300292
81,8,23,Ticks_Phase_5,58,1,48,69,818772836
81,8,23,Ticks_Phase_5,59,5,42,127,818789724
81,8,23,Ticks_Phase_5,60,1,48,67,819259432
81,8,23,Ticks_Phase_5,61,5,42,127,819289560
81,8,23,Ticks_Phase_5,62,1,48,72,819759416
81,8,23,Ticks_Phase_5,63,5,42,127,819790292
81,8,23,Ticks_Phase_5,64,1,48,75,820258208
81,8,23,Ticks_Phase_5,65,5,42,127,820289908
81,8,23,Ticks_Phase_5,66,1,48,74,820751800
81,8,23,Ticks_Phase_5,67,5,42,127,820789524
81,8,23,Ticks_Phase_5,68,1,48,53,821251856
81,8,23,Ticks_Phase_5,69,5,42,127,821290332
81,8,23,Ticks_Phase_5,70,1,48,66,821763304
81,8,23,Ticks_Phase_5,71,5,42,127,821790020
81,8,23,Ticks_Phase_5,72,1,48,67,822286356
81,8,23,Ticks_Phase_5,73,5,42,127,822289784
81,8,23,Ticks_Phase_5,74,1,48,69,822753620
81,8,23,Ticks_Phase_5,75,5,42,127,822789596
81,8,23,Ticks_Phase_5,76,1,48,70,823272252
81,8,23,Ticks_Phase_5,77,5,42,127,823290332
81,8,23,Ticks_Phase_5,78,1,48,81,823758244
81,8,23,Ticks_Phase_5,79,5,42,127,823789796
81,8,23,Ticks_Phase_5,80,1,48,89,824249472
81,8,23,Ticks_Phase_5,81,5,42,127,824289784
81,8,23,Ticks_Phase_5,82,1,48,80,824755960
81,8,23,Ticks_Phase_5,83,5,42,127,824790444
81,8,23,Ticks_Phase_5,84,1,48,68,825271080
81,8,23,Ticks_Phase_5,85,5,42,127,825290208
81,8,23,Ticks_Phase_5,86,1,48,86,825768528
81,8,23,Ticks_Phase_5,87,5,42,127,825789748
81,8,23,Ticks_Phase_5,88,1,48,68,826243796
81,8,23,Ticks_Phase_5,89,5,42,127,826289584
81,8,23,Ticks_Phase_5,90,1,48,89,826756136
81,8,23,Ticks_Phase_5,91,5,42,127,826790392
81,8,23,Ticks_Phase_5,92,1,48,82,827253056
81,8,23,Ticks_Phase_5,93,5,42,127,827289936
81,8,23,Ticks_Phase_5,94,1,48,78,827775728
81,8,23,Ticks_Phase_5,95,5,42,127,827799956
81,8,23,Ticks_Phase_5,96,1,48,57,828252808
81,8,23,Ticks_Phase_5,97,5,42,127,828299644
81,8,23,Ticks_Phase_5,98,1,48,79,828752644
81,8,23,Ticks_Phase_5,99,5,42,127,828800380
81,8,23,Ticks_Phase_5,100,1,48,74,829281912
81,8,23,Ticks_Phase_5,101,5,42,127,829300216
81,8,23,Ticks_Phase_5,102,1,48,76,829781456
81,8,23,Ticks_Phase_5,103,5,42,127,829799684
81,8,23,Ticks_Phase_5,104,1,48,80,830265492
81,8,23,Ticks_Phase_5,105,5,42,127,830299524
81,8,23,Ticks_Phase_5,106,1,48,80,830763532
81,8,23,Ticks_Phase_5,107,5,42,127,830800260
81,8,23,Ticks_Phase_5,108,1,48,65,831277532
81,8,23,Ticks_Phase_5,109,5,42,127,831300168
81,8,23,Ticks_Phase_5,110,1,48,64,831775556
81,8,23,Ticks_Phase_5,111,5,42,127,831799560
81,8,23,Ticks_Phase_5,112,1,48,71,832277732
81,8,23,Ticks_Phase_5,113,5,42,127,832300372
81,8,23,Ticks_Phase_5,114,1,48,72,832771844
81,8,23,Ticks_Phase_5,115,5,42,127,832799984
81,8,23,Ticks_Phase_5,116,1,48,75,833244568
81,8,23,Ticks_Phase_5,117,5,42,127,833299968
81,8,23,Ticks_Phase_5,118,1,48,77,833770100
81,8,23,Ticks_Phase_5,119,5,42,127,833799484
81,8,23,Ticks_Phase_5,120,1,48,72,834279528
81,8,23,Ticks_Phase_5,121,5,42,127,834300220
81,8,23,Ticks_Phase_5,122,1,48,90,834771568
81,8,23,Ticks_Phase_5,123,5,42,127,834800056
81,8,23,Ticks_Phase_5,124,1,48,69,835299828
81,8,23,Ticks_Phase_5,125,5,42,127,835301164
81,8,23,Ticks_Phase_5,126,1,48,84,835816924
81,8,23,Ticks_Phase_5,127,5,42,127,835820100
81,8,23,Ticks_Phase_5,128,1,48,78,836309504
81,8,23,Ticks_Phase_5,129,5,42,127,836319716
81,8,23,Ticks_Phase_5,130,1,48,73,836774732
81,8,23,Ticks_Phase_5,131,5,42,127,836820300
81,8,23,Ticks_Phase_5,132,1,48,73,837285956
81,8,23,Ticks_Phase_5,133,5,42,127,837319916
81,8,23,Ticks_Phase_5,134,1,48,59,837807672
81,8,23,Ticks_Phase_5,135,5,42,127,837819900
81,8,23,Ticks_Phase_5,136,1,48,68,838300540
81,8,23,Ticks_Phase_5,137,5,42,127,838319516
81,8,23,Ticks_Phase_5,138,1,48,77,838789448
81,8,23,Ticks_Phase_5,139,5,42,127,838820176
81,8,23,Ticks_Phase_5,140,1,48,71,839300740
81,8,23,Ticks_Phase_5,141,5,42,127,839319864
81,8,23,Ticks_Phase_5,142,1,48,74,839782972
81,8,23,Ticks_Phase_5,143,5,42,127,839819552
81,8,23,Ticks_Phase_5,144,1,48,71,840305644
81,8,23,Ticks_Phase_5,145,5,42,127,840320360
81,8,23,Ticks_Phase_5,146,1,48,69,840799128
81,8,23,Ticks_Phase_5,147,5,42,127,840819976
81,8,23,Ticks_Phase_5,148,1,48,66,841306304
81,8,23,Ticks_Phase_5,149,5,42,127,841319888
81,8,23,Ticks_Phase_5,150,1,48,76,841788324
81,8,23,Ticks_Phase_5,151,5,42,127,841819428
81,8,23,Ticks_Phase_5,152,1,48,75,842267480
81,8,23,Ticks_Phase_5,153,5,42,127,842320316
81,8,23,Ticks_Phase_5,154,1,48,73,842779536
81,8,23,Ticks_Phase_5,155,5,42,127,842819928
81,8,23,Ticks_Phase_5,156,1,48,76,843284832
81,8,23,Ticks_Phase_5,157,5,42,127,843319688
81,8,23,Ticks_Phase_5,158,1,48,68,843811708
81,8,23,Ticks_Phase_5,159,5,42,127,843820280
81,8,23,Ticks_Phase_5,160,1,48,80,844274824
81,8,23,Ticks_Phase_5,161,5,42,127,844299572
81,8,23,Ticks_Phase_5,162,1,48,81,844774360
81,8,23,Ticks_Phase_5,163,5,42,127,844800384
81,8,23,Ticks_Phase_5,164,1,48,54,845277432
81,8,23,Ticks_Phase_5,165,5,42,127,845300068
81,8,23,Ticks_Phase_5,166,1,48,86,845763404
81,8,23,Ticks_Phase_5,167,5,42,127,845799980
81,8,23,Ticks_Phase_5,168,1,48,81,846247292
81,8,23,Ticks_Phase_5,169,5,42,127,846299448
81,8,23,Ticks_Phase_5,170,1,48,84,846770948
81,8,23,Ticks_Phase_5,171,5,42,127,846800256
81,8,23,Ticks_Phase_5,172,1,48,89,847261424
81,8,23,Ticks_Phase_5,173,5,42,127,847300020
81,8,23,Ticks_Phase_5,174,1,48,82,847794360
81,8,23,Ticks_Phase_5,175,5,42,127,847799932
81,8,23,Ticks_Phase_5,176,5,42,127,848300528
81,8,23,Ticks_Phase_5,177,1,48,77,848312036
81,8,23,Ticks_Phase_5,178,5,42,127,848800068
81,8,23,Ticks_Phase_5,179,1,48,81,848810528
81,8,23,Ticks_Phase_5,180,1,48,86,849274848
81,8,23,Ticks_Phase_5,181,5,42,127,849299972
81,8,23,Ticks_Phase_5,182,1,48,81,849774988
81,8,23,Ticks_Phase_5,183,5,42,127,849799808
81,8,23,Ticks_Phase_5,184,5,42,127,850300180
81,8,23,Ticks_Phase_5,185,1,48,74,850345752
81,8,23,Ticks_Phase_5,186,1,48,81,850783728
81,8,23,Ticks_Phase_5,187,5,42,127,850799936
81,8,23,Ticks_Phase_5,188,1,48,80,851257200
81,8,23,Ticks_Phase_5,189,5,42,127,851299772
81,8,23,Ticks_Phase_5,190,1,48,71,851763780
81,8,23,Ticks_Phase_5,191,5,42,127,851800508
81,8,23,Ticks_Phase_5,192,5,42,127,852260212
81,8,23,Ticks_Phase_5,193,1,48,62,852282656
81,8,23,Ticks_Phase_5,194,1,48,68,852742764
81,8,23,Ticks_Phase_5,195,5,42,127,852759820
81,8,23,Ticks_Phase_5,196,1,48,69,853223052
81,8,23,Ticks_Phase_5,197,5,42,127,853259704
81,8,23,Ticks_Phase_5,198,1,48,62,853718708
81,8,23,Ticks_Phase_5,199,5,42,127,853760220
81,8,23,Ticks_Phase_5,200,1,48,65,854201764
81,8,23,Ticks_Phase_5,201,5,42,127,854259984
81,8,23,Ticks_Phase_5,202,1,48,65,854691196
81,8,23,Ticks_Phase_5,203,5,42,127,854759820
81,8,23,Ticks_Phase_5,204,1,48,63,855185032
81,8,23,Ticks_Phase_5,205,5,42,127,855259584
81,8,23,Ticks_Phase_5,206,1,48,67,855717668
81,8,23,Ticks_Phase_5,207,5,42,127,855760168
81,8,23,Ticks_Phase_5,208,1,48,63,856211972
81,8,23,Ticks_Phase_5,209,5,42,127,856259932
81,8,23,Ticks_Phase_5,210,1,48,72,856721024
81,8,23,Ticks_Phase_5,211,5,42,127,856759768
81,8,23,Ticks_Phase_5,212,1,48,68,857216512
81,8,23,Ticks_Phase_5,213,5,42,127,857260504
81,8,23,Ticks_Phase_5,214,1,48,58,857734176
81,8,23,Ticks_Phase_5,215,5,42,127,857760044
81,8,23,Ticks_Phase_5,216,1,48,78,858225396
81,8,23,Ticks_Phase_5,217,5,42,127,858259808
81,8,23,Ticks_Phase_5,218,1,48,73,858700980
81,8,23,Ticks_Phase_5,219,5,42,127,858759792
81,8,23,Ticks_Phase_5,220,1,48,73,859201644
81,8,23,Ticks_Phase_5,221,5,42,127,859260232
81,8,23,Ticks_Phase_5,222,1,48,63,859724240
81,8,23,Ticks_Phase_5,223,5,42,127,859759920
81,8,23,Ticks_Phase_5,224,1,48,74,860177344
81,8,23,Ticks_Phase_5,225,5,42,127,860259608
81,8,23,Ticks_Phase_5,226,1,48,70,860714480
81,8,23,Ticks_Phase_5,227,5,42,127,860809680
81,8,23,Ticks_Phase_5,228,1,48,66,861238664
81,8,23,Ticks_Phase_5,229,5,42,127,861310280
81,8,23,Ticks_Phase_5,230,1,48,64,861779540
81,8,23,Ticks_Phase_5,231,5,42,127,861809972
81,8,23,Ticks_Phase_5,232,1,48,74,862281396
81,8,23,Ticks_Phase_5,233,5,42,127,862309736
81,8,23,Ticks_Phase_5,234,1,48,70,862783400
81,8,23,Ticks_Phase_5,235,5,42,127,862809720
81,8,23,Ticks_Phase_5,236,1,48,78,863260708
81,8,23,Ticks_Phase_5,237,5,42,127,863310160
81,8,23,Ticks_Phase_5,238,1,48,76,863760244
81,8,23,Ticks_Phase_5,239,5,42,127,863809776
81,8,23,Ticks_Phase_5,240,1,48,80,864272884
81,8,23,Ticks_Phase_5,241,5,42,127,864309612
81,8,23,Ticks_Phase_5,242,1,48,73,864797732
81,8,23,Ticks_Phase_5,243,5,42,127,864810348
81,8,23,Ticks_Phase_5,244,1,48,73,865287372
81,8,23,Ticks_Phase_5,245,5,42,127,865310036
81,8,23,Ticks_Phase_5,246,1,48,74,865759348
81,8,23,Ticks_Phase_5,247,5,42,127,865809724
81,8,23,Ticks_Phase_5,248,1,48,31,865825852
81,8,23,Ticks_Phase_5,249,1,48,76,866268228
81,8,23,Ticks_Phase_5,250,5,42,127,866309440
81,8,23,Ticks_Phase_5,251,1,48,69,866805344
81,8,23,Ticks_Phase_5,252,5,42,127,866810172
81,8,23,Ticks_Phase_5,253,1,48,70,867289316
81,8,23,Ticks_Phase_5,254,5,42,127,867309860
81,8,23,Ticks_Phase_5,255,1,48,78,867768932
81,8,23,Ticks_Phase_5,256,5,42,127,867809624
81,8,23,Ticks_Phase_5,257,1,48,68,868267204
81,8,23,Ticks_Phase_5,258,5,42,127,868310284
81,8,23,Ticks_Phase_5,259,1,48,70,868764856
81,8,23,Ticks_Phase_5,260,5,42,127,868810196
81,8,23,Ticks_Phase_5,261,1,48,70,869286112
81,8,23,Ticks_Phase_5,262,5,42,127,869410392
81,8,23,Ticks_Phase_5,263,5,42,127,869909808
81,8,23,Ticks_Phase_5,264,1,48,73,869915840
81,8,23,Ticks_Phase_5,265,5,42,127,870409468
81,8,23,Ticks_Phase_5,266,1,48,81,870461064
81,8,23,Ticks_Phase_5,267,5,42,127,870910500
81,8,23,Ticks_Phase_5,268,1,48,75,870912068
81,8,23,Ticks_Phase_5,269,5,42,127,871409968
81,8,23,Ticks_Phase_5,270,1,48,70,871431360
81,8,23,Ticks_Phase_5,271,1,48,80,871898016
81,8,23,Ticks_Phase_5,272,5,42,127,871909872
81,8,23,Ticks_Phase_5,273,1,48,75,872368796
81,8,23,Ticks_Phase_5,274,5,42,127,872409412
81,8,23,Ticks_Phase_5,275,1,48,75,872895732
81,8,23,Ticks_Phase_5,276,5,42,127,872910296
81,8,23,Ticks_Phase_5,277,1,48,69,873388316
81,8,23,Ticks_Phase_5,278,5,42,127,873409760
81,8,23,Ticks_Phase_5,279,1,48,70,873877512
81,8,23,Ticks_Phase_5,280,5,42,127,873909524
81,8,23,Ticks_Phase_5,281,1,48,74,874373080
81,8,23,Ticks_Phase_5,282,5,42,127,874410256
81,8,23,Ticks_Phase_5,283,1,48,65,874863932
81,8,23,Ticks_Phase_5,284,5,42,127,874910168
81,8,23,Ticks_Phase_5,285,1,48,69,875403008
81,8,23,Ticks_Phase_5,286,5,42,127,875409708
81,8,23,Ticks_Phase_5,287,1,48,71,875885392
81,8,23,Ticks_Phase_5,288,5,42,127,875909472
81,8,23,Ticks_Phase_5,289,1,48,75,876362320
81,8,23,Ticks_Phase_5,290,5,42,127,876410204
81,8,23,Ticks_Phase_5,291,1,48,72,876847716
81,8,23,Ticks_Phase_5,292,5,42,127,876909968
81,8,23,Ticks_Phase_5,293,1,48,68,877336156
81,8,23,Ticks_Phase_5,294,5,42,127,877409656
81,8,23,Ticks_Phase_5,295,1,48,73,877849408
81,8,23,Ticks_Phase_5,296,5,42,127,877910396
81,8,23,Ticks_Phase_5,297,1,48,67,878349296
81,8,23,Ticks_Phase_5,298,5,42,127,878410060
81,8,23,Ticks_Phase_5,299,5,42,127,878809308
81,8,23,Ticks_Phase_5,300,1,48,70,878863820
81,8,23,Ticks_Phase_5,301,5,42,127,879310268
81,8,23,Ticks_Phase_5,302,1,48,67,879323568
81,8,23,Ticks_Phase_5,303,1,48,67,879785496
81,8,23,Ticks_Phase_5,304,5,42,127,879810172
81,8,23,Ticks_Phase_5,305,1,48,70,880261528
81,8,23,Ticks_Phase_5,306,5,42,127,880309488
81,8,23,Ticks_Phase_5,307,1,48,72,880753948
81,8,23,Ticks_Phase_5,308,5,42,127,880810296
81,8,23,Ticks_Phase_5,309,1,48,64,881250044
81,8,23,Ticks_Phase_5,310,5,42,127,881310356
81,8,23,Ticks_Phase_5,311,1,48,62,881756616
81,8,23,Ticks_Phase_5,312,5,42,127,881809744
81,8,23,Ticks_Phase_5,313,1,48,74,882242376
81,8,23,Ticks_Phase_5,314,5,42,127,882309508
81,8,23,Ticks_Phase_5,315,1,48,51,882771276
81,8,23,Ticks_Phase_5,316,5,42,127,882810168
81,8,23,Ticks_Phase_5,317,1,48,65,883263768
81,8,23,Ticks_Phase_5,318,5,42,127,883310156
81,8,23,Ticks_Phase_5,319,1,48,65,883745552
81,8,23,Ticks_Phase_5,320,5,42,127,883809548
81,8,23,Ticks_Phase_5,321,1,48,71,884219020
81,8,23,Ticks_Phase_5,322,5,42,127,884310504
81,8,23,Ticks_Phase_5,323,1,48,67,884775484
81,8,23,Ticks_Phase_5,324,5,42,127,884810116
81,8,23,Ticks_Phase_5,325,1,48,68,885297428
81,8,23,Ticks_Phase_5,326,5,42,127,885310100
81,8,23,Ticks_Phase_5,327,1,48,62,885761808
81,8,23,Ticks_Phase_5,328,5,42,127,885809568
81,8,23,Ticks_Phase_5,329,1,48,65,886253404
81,8,23,Ticks_Phase_5,330,5,42,127,886310376
81,8,23,Ticks_Phase_5,331,1,48,74,886737884
81,8,23,Ticks_Phase_5,332,5,42,127,886810212
81,8,23,Ticks_Phase_5,333,1,48,71,887230772
81,8,23,Ticks_Phase_5,334,5,42,127,887309680
81,8,23,Ticks_Phase_5,335,1,48,62,887719748
81,8,23,Ticks_Phase_5,336,5,42,127,887810316
81,8,23,Ticks_Phase_5,337,1,48,65,888227144
81,8,23,Ticks_Phase_5,338,5,42,127,888320340
81,8,23,Ticks_Phase_5,0,9999,9999,9999,803777652
81,8,23,Ticks_Phase_5,1,9999,9999,9999,804277360
81,8,23,Ticks_Phase_5,2,9999,9999,9999,804778044
81,8,23,Ticks_Phase_5,3,9999,9999,9999,805277820
81,8,23,Ticks_Phase_5,4,9999,9999,9999,805777508
81,8,23,Ticks_Phase_5,5,9999,9999,9999,806277196
81,8,23,Ticks_Phase_5,6,9999,9999,9999,806777932
81,8,23,Ticks_Phase_5,7,9999,9999,9999,807277620
81,8,23,Ticks_Phase_5,8,9999,9999,9999,807777384
81,8,23,Ticks_Phase_5,9,9999,9999,9999,808278120
81,8,23,Ticks_Phase_5,10,9999,9999,9999,808788064
81,8,23,Ticks_Phase_5,11,9999,9999,9999,809287752
81,8,23,Ticks_Phase_5,12,9999,9999,9999,809787516
81,8,23,Ticks_Phase_5,13,9999,9999,9999,810287180
81,8,23,Ticks_Phase_5,14,9999,9999,9999,810787912
81,8,23,Ticks_Phase_5,15,9999,9999,9999,811287676
81,8,23,Ticks_Phase_5,16,9999,9999,9999,811787336
81,8,23,Ticks_Phase_5,17,9999,9999,9999,812288072
81,8,23,Ticks_Phase_5,18,9999,9999,9999,812798020
81,8,23,Ticks_Phase_5,19,9999,9999,9999,813297784
81,8,23,Ticks_Phase_5,20,9999,9999,9999,813797472
81,8,23,Ticks_Phase_5,21,9999,9999,9999,814297148
81,8,23,Ticks_Phase_5,22,9999,9999,9999,814797880
81,8,23,Ticks_Phase_5,23,9999,9999,9999,815297644
81,8,23,Ticks_Phase_5,24,9999,9999,9999,815797324
81,8,23,Ticks_Phase_5,25,9999,9999,9999,816298056
81,8,23,Ticks_Phase_5,26,9999,9999,9999,816797820
81,8,23,Ticks_Phase_5,27,9999,9999,9999,817297508
81,8,23,Ticks_Phase_5,28,9999,9999,9999,817797196
81,8,23,Ticks_Phase_5,29,9999,9999,9999,818297932
81,8,23,Ticks_Phase_5,30,9999,9999,9999,818787436
81,8,23,Ticks_Phase_5,31,9999,9999,9999,819287124
81,8,23,Ticks_Phase_5,32,9999,9999,9999,819787860
81,8,23,Ticks_Phase_5,33,9999,9999,9999,820287548
81,8,23,Ticks_Phase_5,34,9999,9999,9999,820787312
81,8,23,Ticks_Phase_5,35,9999,9999,9999,821288044
81,8,23,Ticks_Phase_5,36,9999,9999,9999,821787732
81,8,23,Ticks_Phase_5,37,9999,9999,9999,822287472
81,8,23,Ticks_Phase_5,38,9999,9999,9999,822787160
81,8,23,Ticks_Phase_5,39,9999,9999,9999,823287896
81,8,23,Ticks_Phase_5,40,9999,9999,9999,823787584
81,8,23,Ticks_Phase_5,41,9999,9999,9999,824287348
81,8,23,Ticks_Phase_5,42,9999,9999,9999,824788084
81,8,23,Ticks_Phase_5,43,9999,9999,9999,825287772
81,8,23,Ticks_Phase_5,44,9999,9999,9999,825787460
81,8,23,Ticks_Phase_5,45,9999,9999,9999,826287224
81,8,23,Ticks_Phase_5,46,9999,9999,9999,826787956
81,8,23,Ticks_Phase_5,47,9999,9999,9999,827287648
81,8,23,Ticks_Phase_5,48,9999,9999,9999,827797596
81,8,23,Ticks_Phase_5,49,9999,9999,9999,828297284
81,8,23,Ticks_Phase_5,50,9999,9999,9999,828798020
81,8,23,Ticks_Phase_5,51,9999,9999,9999,829297780
81,8,23,Ticks_Phase_5,52,9999,9999,9999,829797472
81,8,23,Ticks_Phase_5,53,9999,9999,9999,830297164
81,8,23,Ticks_Phase_5,54,9999,9999,9999,830797896
81,8,23,Ticks_Phase_5,55,9999,9999,9999,831297660
81,8,23,Ticks_Phase_5,56,9999,9999,9999,831797348
81,8,23,Ticks_Phase_5,57,9999,9999,9999,832298084
81,8,23,Ticks_Phase_5,58,9999,9999,9999,832797772
81,8,23,Ticks_Phase_5,59,9999,9999,9999,833297532
81,8,23,Ticks_Phase_5,60,9999,9999,9999,833797196
81,8,23,Ticks_Phase_5,61,9999,9999,9999,834297932
81,8,23,Ticks_Phase_5,62,9999,9999,9999,834797696
81,8,23,Ticks_Phase_5,63,9999,9999,9999,835297392
81,8,23,Ticks_Phase_5,64,9999,9999,9999,835817592
81,8,23,Ticks_Phase_5,65,9999,9999,9999,836317280
81,8,23,Ticks_Phase_5,66,9999,9999,9999,836818016
81,8,23,Ticks_Phase_5,67,9999,9999,9999,837317704
81,8,23,Ticks_Phase_5,68,9999,9999,9999,837817468
81,8,23,Ticks_Phase_5,69,9999,9999,9999,838317156
81,8,23,Ticks_Phase_5,70,9999,9999,9999,838817892
81,8,23,Ticks_Phase_5,71,9999,9999,9999,839317580
81,8,23,Ticks_Phase_5,72,9999,9999,9999,839817340
81,8,23,Ticks_Phase_5,73,9999,9999,9999,840318076
81,8,23,Ticks_Phase_5,74,9999,9999,9999,840817764
81,8,23,Ticks_Phase_5,75,9999,9999,9999,841317452
81,8,23,Ticks_Phase_5,76,9999,9999,9999,841817144
81,8,23,Ticks_Phase_5,77,9999,9999,9999,842317880
81,8,23,Ticks_Phase_5,78,9999,9999,9999,842817640
81,8,23,Ticks_Phase_5,79,9999,9999,9999,843317328
81,8,23,Ticks_Phase_5,80,9999,9999,9999,843818064
81,8,23,Ticks_Phase_5,81,9999,9999,9999,844297284
81,8,23,Ticks_Phase_5,82,9999,9999,9999,844798020
81,8,23,Ticks_Phase_5,83,9999,9999,9999,845297784
81,8,23,Ticks_Phase_5,84,9999,9999,9999,845797472
81,8,23,Ticks_Phase_5,85,9999,9999,9999,846297164
81,8,23,Ticks_Phase_5,86,9999,9999,9999,846797896
81,8,23,Ticks_Phase_5,87,9999,9999,9999,847297660
81,8,23,Ticks_Phase_5,88,9999,9999,9999,847797348
81,8,23,Ticks_Phase_5,89,9999,9999,9999,848298092
81,8,23,Ticks_Phase_5,90,9999,9999,9999,848797780
81,8,23,Ticks_Phase_5,91,9999,9999,9999,849297460
81,8,23,Ticks_Phase_5,92,9999,9999,9999,849797224
81,8,23,Ticks_Phase_5,93,9999,9999,9999,850297968
81,8,23,Ticks_Phase_5,94,9999,9999,9999,850797648
81,8,23,Ticks_Phase_5,95,9999,9999,9999,851297336
81,8,23,Ticks_Phase_5,96,9999,9999,9999,851798072
81,8,23,Ticks_Phase_5,97,9999,9999,9999,852257852
81,8,23,Ticks_Phase_5,98,9999,9999,9999,852757608
81,8,23,Ticks_Phase_5,99,9999,9999,9999,853257272
81,8,23,Ticks_Phase_5,100,9999,9999,9999,853758008
81,8,23,Ticks_Phase_5,101,9999,9999,9999,854257772
81,8,23,Ticks_Phase_5,102,9999,9999,9999,854757460
81,8,23,Ticks_Phase_5,103,9999,9999,9999,855257148
81,8,23,Ticks_Phase_5,104,9999,9999,9999,855757880
81,8,23,Ticks_Phase_5,105,9999,9999,9999,856257644
81,8,23,Ticks_Phase_5,106,9999,9999,9999,856757332
81,8,23,Ticks_Phase_5,107,9999,9999,9999,857258068
81,8,23,Ticks_Phase_5,108,9999,9999,9999,857757760
81,8,23,Ticks_Phase_5,109,9999,9999,9999,858257520
81,8,23,Ticks_Phase_5,110,9999,9999,9999,858757208
81,8,23,Ticks_Phase_5,111,9999,9999,9999,859257948
81,8,23,Ticks_Phase_5,112,9999,9999,9999,859757632
81,8,23,Ticks_Phase_5,113,9999,9999,9999,860257396
81,8,23,Ticks_Phase_5,114,9999,9999,9999,860807244
81,8,23,Ticks_Phase_5,115,9999,9999,9999,861307996
81,8,23,Ticks_Phase_5,116,9999,9999,9999,861807684
81,8,23,Ticks_Phase_5,117,9999,9999,9999,862307448
81,8,23,Ticks_Phase_5,118,9999,9999,9999,862807136
81,8,23,Ticks_Phase_5,119,9999,9999,9999,863307872
81,8,23,Ticks_Phase_5,120,9999,9999,9999,863807564
81,8,23,Ticks_Phase_5,121,9999,9999,9999,864307324
81,8,23,Ticks_Phase_5,122,9999,9999,9999,864808060
81,8,23,Ticks_Phase_5,123,9999,9999,9999,865307748
81,8,23,Ticks_Phase_5,124,9999,9999,9999,865807436
81,8,23,Ticks_Phase_5,125,9999,9999,9999,866307152
81,8,23,Ticks_Phase_5,126,9999,9999,9999,866807884
81,8,23,Ticks_Phase_5,127,9999,9999,9999,867307576
81,8,23,Ticks_Phase_5,128,9999,9999,9999,867807336
81,8,23,Ticks_Phase_5,129,9999,9999,9999,868308072
81,8,23,Ticks_Phase_5,130,9999,9999,9999,868807760
81,8,23,Ticks_Phase_5,131,9999,9999,9999,869407808
81,8,23,Ticks_Phase_5,132,9999,9999,9999,869907520
81,8,23,Ticks_Phase_5,133,9999,9999,9999,870407256
81,8,23,Ticks_Phase_5,134,9999,9999,9999,870907992
81,8,23,Ticks_Phase_5,135,9999,9999,9999,871407680
81,8,23,Ticks_Phase_5,136,9999,9999,9999,871907436
81,8,23,Ticks_Phase_5,137,9999,9999,9999,872407124
81,8,23,Ticks_Phase_5,138,9999,9999,9999,872907860
81,8,23,Ticks_Phase_5,139,9999,9999,9999,873407548
81,8,23,Ticks_Phase_5,140,9999,9999,9999,873907312
81,8,23,Ticks_Phase_5,141,9999,9999,9999,874408044
81,8,23,Ticks_Phase_5,142,9999,9999,9999,874907732
81,8,23,Ticks_Phase_5,143,9999,9999,9999,875407420
81,8,23,Ticks_Phase_5,144,9999,9999,9999,875907184
81,8,23,Ticks_Phase_5,145,9999,9999,9999,876407920
81,8,23,Ticks_Phase_5,146,9999,9999,9999,876907608
81,8,23,Ticks_Phase_5,147,9999,9999,9999,877407296
81,8,23,Ticks_Phase_5,148,9999,9999,9999,877908032
81,8,23,Ticks_Phase_5,149,9999,9999,9999,878407772
81,8,23,Ticks_Phase_5,150,9999,9999,9999,878807092
81,8,23,Ticks_Phase_5,151,9999,9999,9999,879307832
81,8,23,Ticks_Phase_5,152,9999,9999,9999,879807584
81,8,23,Ticks_Phase_5,153,9999,9999,9999,880307276
81,8,23,Ticks_Phase_5,154,9999,9999,9999,880808008
81,8,23,Ticks_Phase_5,155,9999,9999,9999,881307772
81,8,23,Ticks_Phase_5,156,9999,9999,9999,881807460
81,8,23,Ticks_Phase_5,157,9999,9999,9999,882307148
81,8,23,Ticks_Phase_5,158,9999,9999,9999,882807884
81,8,23,Ticks_Phase_5,159,9999,9999,9999,883307644
81,8,23,Ticks_Phase_5,160,9999,9999,9999,883807332
81,8,23,Ticks_Phase_5,161,9999,9999,9999,884308068
81,8,23,Ticks_Phase_5,162,9999,9999,9999,884807756
81,8,23,Ticks_Phase_5,163,9999,9999,9999,885307516
81,8,23,Ticks_Phase_5,164,9999,9999,9999,885807204
81,8,23,Ticks_Phase_5,165,9999,9999,9999,886307940
81,8,23,Ticks_Phase_5,166,9999,9999,9999,886807628
81,8,23,Ticks_Phase_5,167,9999,9999,9999,887307368
81,8,23,Ticks_Phase_5,168,9999,9999,9999,887808104
81,8,23,Ticks_Phase_5,169,9999,9999,9999,888318052
81,9,20,Ticks_Linear_8,0,5,42,127,899329724
81,9,20,Ticks_Linear_8,1,5,42,127,900148816
81,9,20,Ticks_Linear_8,2,5,42,127,900968784
81,9,20,Ticks_Linear_8,3,1,48,68,900986720
81,9,20,Ticks_Linear_8,4,5,42,127,901789024
81,9,20,Ticks_Linear_8,5,1,48,72,901827196
81,9,20,Ticks_Linear_8,6,5,42,127,902609192
81,9,20,Ticks_Linear_8,7,1,48,85,902616960
81,9,20,Ticks_Linear_8,8,5,42,127,903419176
81,9,20,Ticks_Linear_8,9,1,48,85,903434424
81,9,20,Ticks_Linear_8,10,1,48,86,904203348
81,9,20,Ticks_Linear_8,11,5,42,127,904229176
81,9,20,Ticks_Linear_8,12,1,48,87,904988196
81,9,20,Ticks_Linear_8,13,5,42,127,905039308
81,9,20,Ticks_Linear_8,14,1,48,81,905823636
81,9,20,Ticks_Linear_8,15,5,42,127,905849144
81,9,20,Ticks_Linear_8,16,5,42,127,906659280
81,9,20,Ticks_Linear_8,17,1,48,80,906680380
81,9,20,Ticks_Linear_8,18,5,42,127,907459004
81,9,20,Ticks_Linear_8,19,1,48,85,907518668
81,9,20,Ticks_Linear_8,20,5,42,127,908258656
81,9,20,Ticks_Linear_8,21,1,48,83,908261400
81,9,20,Ticks_Linear_8,22,1,48,85,909051364
81,9,20,Ticks_Linear_8,23,5,42,127,909058520
81,9,20,Ticks_Linear_8,24,1,48,93,909837416
81,9,20,Ticks_Linear_8,25,5,42,127,909859388
81,9,20,Ticks_Linear_8,26,1,48,91,910659048
81,9,20,Ticks_Linear_8,27,5,42,127,910660532
81,9,20,Ticks_Linear_8,28,5,42,127,911448512
81,9,20,Ticks_Linear_8,29,1,48,81,911464280
81,9,20,Ticks_Linear_8,30,1,48,81,912219284
81,9,20,Ticks_Linear_8,31,5,42,127,912238868
81,9,20,Ticks_Linear_8,32,1,48,86,912995252
81,9,20,Ticks_Linear_8,33,5,42,127,913028628
81,9,20,Ticks_Linear_8,34,1,48,75,913804864
81,9,20,Ticks_Linear_8,35,5,42,127,913819064
81,9,20,Ticks_Linear_8,36,5,42,127,914608392
81,9,20,Ticks_Linear_8,37,1,48,77,914626400
81,9,20,Ticks_Linear_8,38,5,42,127,915388788
81,9,20,Ticks_Linear_8,39,1,48,73,915391536
81,9,20,Ticks_Linear_8,40,5,42,127,916169040
81,9,20,Ticks_Linear_8,41,1,48,83,916180772
81,9,20,Ticks_Linear_8,42,5,42,127,916949292
81,9,20,Ticks_Linear_8,43,1,48,80,916960428
81,9,20,Ticks_Linear_8,44,5,42,127,917728572
81,9,20,Ticks_Linear_8,45,1,48,73,917744488
81,9,20,Ticks_Linear_8,46,5,42,127,918508900
81,9,20,Ticks_Linear_8,47,1,48,79,918509940
81,9,20,Ticks_Linear_8,48,1,48,72,919272628
81,9,20,Ticks_Linear_8,49,5,42,127,919279036
81,9,20,Ticks_Linear_8,50,1,48,81,920041348
81,9,20,Ticks_Linear_8,51,5,42,127,920049180
81,9,20,Ticks_Linear_8,52,1,48,72,920807376
81,9,20,Ticks_Linear_8,53,5,42,127,920819248
81,9,20,Ticks_Linear_8,54,1,48,88,921569132
81,9,20,Ticks_Linear_8,55,5,42,127,921589316
81,9,20,Ticks_Linear_8,56,1,48,81,922354616
81,9,20,Ticks_Linear_8,57,5,42,127,922359236
81,9,20,Ticks_Linear_8,58,1,48,80,923098340
81,9,20,Ticks_Linear_8,59,5,42,127,923119192
81,9,20,Ticks_Linear_8,60,1,48,71,923834476
81,9,20,Ticks_Linear_8,61,5,42,127,923878780
81,9,20,Ticks_Linear_8,62,1,48,78,924613380
81,9,20,Ticks_Linear_8,63,5,42,127,924638588
81,9,20,Ticks_Linear_8,64,5,42,127,925399300
81,9,20,Ticks_Linear_8,65,1,48,79,925412004
81,9,20,Ticks_Linear_8,66,1,48,74,926149104
81,9,20,Ticks_Linear_8,67,5,42,127,926159324
81,9,20,Ticks_Linear_8,68,5,42,127,926908808
81,9,20,Ticks_Linear_8,69,1,48,71,926929376
81,9,20,Ticks_Linear_8,70,1,48,63,927631648
81,9,20,Ticks_Linear_8,71,5,42,127,927659396
81,9,20,Ticks_Linear_8,72,1,48,76,928360828
81,9,20,Ticks_Linear_8,73,5,42,127,928409092
81,9,20,Ticks_Linear_8,74,1,48,88,929136656
81,9,20,Ticks_Linear_8,75,5,42,127,929158496
81,9,20,Ticks_Linear_8,76,5,42,127,929909176
81,9,20,Ticks_Linear_8,77,1,48,95,929935580
81,9,20,Ticks_Linear_8,78,1,48,89,930645340
81,9,20,Ticks_Linear_8,79,5,42,127,930648384
81,9,20,Ticks_Linear_8,80,1,48,75,931374592
81,9,20,Ticks_Linear_8,81,5,42,127,931389016
81,9,20,Ticks_Linear_8,82,1,48,82,932062488
81,9,20,Ticks_Linear_8,83,5,42,127,932129056
81,9,20,Ticks_Linear_8,84,1,48,91,932817732
81,9,20,Ticks_Linear_8,85,5,42,127,932868620
81,9,20,Ticks_Linear_8,86,1,48,84,933588552
81,9,20,Ticks_Linear_8,87,5,42,127,933608888
81,9,20,Ticks_Linear_8,88,5,42,127,934339120
81,9,20,Ticks_Linear_8,89,1,48,71,934381856
81,9,20,Ticks_Linear_8,90,5,42,127,935069124
81,9,20,Ticks_Linear_8,91,1,48,83,935076428
81,9,20,Ticks_Linear_8,92,1,48,69,935770400
81,9,20,Ticks_Linear_8,93,5,42,127,935799044
81,9,20,Ticks_Linear_8,94,1,48,77,936466388
81,9,20,Ticks_Linear_8,95,5,42,127,936529272
81,9,20,Ticks_Linear_8,96,1,48,86,937193008
81,9,20,Ticks_Linear_8,97,5,42,127,937259428
81,9,20,Ticks_Linear_8,98,5,42,127,937979300
81,9,20,Ticks_Linear_8,99,1,48,73,937983984
81,9,20,Ticks_Linear_8,100,5,42,127,938699120
81,9,20,Ticks_Linear_8,101,1,48,71,938729948
81,9,20,Ticks_Linear_8,102,5,42,127,939418940
81,9,20,Ticks_Linear_8,103,1,48,82,939430744
81,9,20,Ticks_Linear_8,104,5,42,127,940138980
81,9,20,Ticks_Linear_8,105,1,48,68,940180672
81,9,20,Ticks_Linear_8,106,1,48,68,940840924
81,9,20,Ticks_Linear_8,107,5,42,127,940858868
81,9,20,Ticks_Linear_8,108,1,48,67,941516680
81,9,20,Ticks_Linear_8,109,5,42,127,941569376
81,9,20,Ticks_Linear_8,110,1,48,67,942260252
81,9,20,Ticks_Linear_8,111,5,42,127,942278936
81,9,20,Ticks_Linear_8,112,1,48,79,942956464
81,9,20,Ticks_Linear_8,113,5,42,127,942988868
81,9,20,Ticks_Linear_8,114,1,48,61,943680936
81,9,20,Ticks_Linear_8,115,5,42,127,943699252
81,9,20,Ticks_Linear_8,116,1,48,84,944337900
81,9,20,Ticks_Linear_8,117,5,42,127,944408884
81,9,20,Ticks_Linear_8,118,1,48,80,945072092
81,9,20,Ticks_Linear_8,119,5,42,127,945109432
81,9,20,Ticks_Linear_8,120,1,48,82,945798808
81,9,20,Ticks_Linear_8,121,5,42,127,945808660
81,9,20,Ticks_Linear_8,122,5,42,127,946509164
81,9,20,Ticks_Linear_8,123,1,48,75,946516244
81,9,20,Ticks_Linear_8,124,1,48,82,947163528
81,9,20,Ticks_Linear_8,125,5,42,127,947208656
81,9,20,Ticks_Linear_8,126,1,48,80,947875032
81,9,20,Ticks_Linear_8,127,5,42,127,947908928
81,9,20,Ticks_Linear_8,128,1,48,77,948571196
81,9,20,Ticks_Linear_8,129,5,42,127,948599092
81,9,20,Ticks_Linear_8,130,1,48,64,949281800
81,9,20,Ticks_Linear_8,131,5,42,127,949289552
81,9,20,Ticks_Linear_8,132,1,48,77,949942432
81,9,20,Ticks_Linear_8,133,5,42,127,949978644
81,9,20,Ticks_Linear_8,134,1,48,89,950627360
81,9,20,Ticks_Linear_8,135,5,42,127,950668732
81,9,20,Ticks_Linear_8,136,1,48,73,951328452
81,9,20,Ticks_Linear_8,137,5,42,127,951358824
81,9,20,Ticks_Linear_8,138,1,48,75,952003688
81,9,20,Ticks_Linear_8,139,5,42,127,952038852
81,9,20,Ticks_Linear_8,140,5,42,127,952718836
81,9,20,Ticks_Linear_8,141,1,48,67,952726760
81,9,20,Ticks_Linear_8,142,1,48,76,953395764
81,9,20,Ticks_Linear_8,143,5,42,127,953398512
81,9,20,Ticks_Linear_8,144,1,48,72,954062616
81,9,20,Ticks_Linear_8,145,5,42,127,954078540
81,9,20,Ticks_Linear_8,146,1,48,78,954739232
81,9,20,Ticks_Linear_8,147,5,42,127,954758520
81,9,20,Ticks_Linear_8,148,1,48,82,955393644
81,9,20,Ticks_Linear_8,149,5,42,127,955429360
81,9,20,Ticks_Linear_8,150,1,48,84,956035504
81,9,20,Ticks_Linear_8,151,5,42,127,956098904
81,9,20,Ticks_Linear_8,152,5,42,127,956768784
81,9,20,Ticks_Linear_8,153,1,48,75,956775716
81,9,20,Ticks_Linear_8,154,5,42,127,957439524
81,9,20,Ticks_Linear_8,155,1,48,79,957443168
81,9,20,Ticks_Linear_8,156,1,48,84,958089504
81,9,20,Ticks_Linear_8,157,5,42,127,958108940
81,9,20,Ticks_Linear_8,158,1,48,70,958746180
81,9,20,Ticks_Linear_8,159,5,42,127,958768472
81,9,20,Ticks_Linear_8,160,5,42,127,959429036
81,9,20,Ticks_Linear_8,161,1,48,85,959439048
81,9,20,Ticks_Linear_8,162,1,48,84,960086228
81,9,20,Ticks_Linear_8,163,5,42,127,960088340
81,9,20,Ticks_Linear_8,164,1,48,70,960724288
81,9,20,Ticks_Linear_8,165,5,42,127,960748896
81,9,20,Ticks_Linear_8,166,1,48,84,961373488
81,9,20,Ticks_Linear_8,167,5,42,127,961409480
81,9,20,Ticks_Linear_8,168,1,48,92,962049032
81,9,20,Ticks_Linear_8,169,5,42,127,962058604
81,9,20,Ticks_Linear_8,170,1,48,91,962689244
81,9,20,Ticks_Linear_8,171,5,42,127,962708828
81,9,20,Ticks_Linear_8,172,1,48,73,963334812
81,9,20,Ticks_Linear_8,173,5,42,127,963359224
81,9,20,Ticks_Linear_8,174,1,48,81,963982140
81,9,20,Ticks_Linear_8,175,5,42,127,964009372
81,9,20,Ticks_Linear_8,176,1,48,70,964608928
81,9,20,Ticks_Linear_8,177,5,42,127,964658424
81,9,20,Ticks_Linear_8,178,1,48,75,965263288
81,9,20,Ticks_Linear_8,179,5,42,127,965298612
81,9,20,Ticks_Linear_8,180,1,48,87,965910396
81,9,20,Ticks_Linear_8,181,5,42,127,965938600
81,9,20,Ticks_Linear_8,182,1,48,80,966529324
81,9,20,Ticks_Linear_8,183,5,42,127,966578712
81,9,20,Ticks_Linear_8,184,1,48,82,967194316
81,9,20,Ticks_Linear_8,185,5,42,127,967218552
81,9,20,Ticks_Linear_8,186,5,42,127,967858524
81,9,20,Ticks_Linear_8,187,1,48,72,967872576
81,9,20,Ticks_Linear_8,188,5,42,127,968489300
81,9,20,Ticks_Linear_8,189,1,48,73,968496696
81,9,20,Ticks_Linear_8,190,1,48,81,969086076
81,9,20,Ticks_Linear_8,191,5,42,127,969119220
81,9,20,Ticks_Linear_8,192,1,48,77,969699836
81,9,20,Ticks_Linear_8,193,5,42,127,969748804
81,9,20,Ticks_Linear_8,194,5,42,127,970378664
81,9,20,Ticks_Linear_8,195,1,48,84,970381256
81,9,20,Ticks_Linear_8,196,5,42,127,971009416
81,9,20,Ticks_Linear_8,197,1,48,81,971064004
81,9,20,Ticks_Linear_8,198,1,48,82,971626280
81,9,20,Ticks_Linear_8,199,5,42,127,971628880
81,9,20,Ticks_Linear_8,200,5,42,127,972248408
81,9,20,Ticks_Linear_8,201,1,48,86,972249520
81,9,20,Ticks_Linear_8,202,5,42,127,972869072
81,9,20,Ticks_Linear_8,203,1,48,84,972887104
81,9,20,Ticks_Linear_8,204,1,48,82,973478360
81,9,20,Ticks_Linear_8,205,5,42,127,973488512
81,9,20,Ticks_Linear_8,206,1,48,83,974076672
81,9,20,Ticks_Linear_8,207,5,42,127,974109252
81,9,20,Ticks_Linear_8,208,1,48,85,974695320
81,9,20,Ticks_Linear_8,209,5,42,127,974719336
81,9,20,Ticks_Linear_8,210,5,42,127,975328752
81,9,20,Ticks_Linear_8,211,1,48,84,975336132
81,9,20,Ticks_Linear_8,212,1,48,86,975937496
81,9,20,Ticks_Linear_8,213,5,42,127,975939228
81,9,20,Ticks_Linear_8,214,1,48,82,976531676
81,9,20,Ticks_Linear_8,215,5,42,127,976549240
81,9,20,Ticks_Linear_8,216,1,48,81,977129104
81,9,20,Ticks_Linear_8,217,5,42,127,977158504
81,9,20,Ticks_Linear_8,218,5,42,127,977758656
81,9,20,Ticks_Linear_8,219,1,48,73,977765136
81,9,20,Ticks_Linear_8,220,1,48,83,978322404
81,9,20,Ticks_Linear_8,221,5,42,127,978358548
81,9,20,Ticks_Linear_8,222,1,48,71,978919240
81,9,20,Ticks_Linear_8,223,5,42,127,978958696
81,9,20,Ticks_Linear_8,224,1,48,74,979493248
81,9,20,Ticks_Linear_8,225,5,42,127,979558748
81,9,20,Ticks_Linear_8,226,1,48,78,980123104
81,9,20,Ticks_Linear_8,227,5,42,127,980158796
81,9,20,Ticks_Linear_8,228,1,48,73,980746236
81,9,20,Ticks_Linear_8,229,5,42,127,980748836
81,9,20,Ticks_Linear_8,230,5,42,127,981338480
81,9,20,Ticks_Linear_8,231,1,48,64,981341896
81,9,20,Ticks_Linear_8,232,1,48,71,981905072
81,9,20,Ticks_Linear_8,233,5,42,127,981929236
81,9,20,Ticks_Linear_8,234,1,48,73,982496676
81,9,20,Ticks_Linear_8,235,5,42,127,982519028
81,9,20,Ticks_Linear_8,236,1,48,87,983079892
81,9,20,Ticks_Linear_8,237,5,42,127,983109064
81,9,20,Ticks_Linear_8,238,1,48,82,983669984
81,9,20,Ticks_Linear_8,239,5,42,127,983688520
81,9,20,Ticks_Linear_8,240,5,42,127,984269104
81,9,20,Ticks_Linear_8,241,1,48,85,984276856
81,9,20,Ticks_Linear_8,242,1,48,78,984845980
81,9,20,Ticks_Linear_8,243,5,42,127,984848876
81,9,20,Ticks_Linear_8,244,5,42,127,985429312
81,9,20,Ticks_Linear_8,245,1,48,78,985447716
81,9,20,Ticks_Linear_8,246,5,42,127,986008916
81,9,20,Ticks_Linear_8,247,1,48,78,986011812
81,9,20,Ticks_Linear_8,248,5,42,127,986579236
81,9,20,Ticks_Linear_8,249,1,48,93,986604068
81,9,20,Ticks_Linear_8,250,1,48,74,987122920
81,9,20,Ticks_Linear_8,251,5,42,127,987148748
81,9,20,Ticks_Linear_8,252,1,48,62,987703144
81,9,20,Ticks_Linear_8,253,5,42,127,987719068
81,9,20,Ticks_Linear_8,254,1,48,76,988250776
81,9,20,Ticks_Linear_8,255,5,42,127,988289384
81,9,20,Ticks_Linear_8,256,1,48,70,988849332
81,9,20,Ticks_Linear_8,257,5,42,127,988858880
81,9,20,Ticks_Linear_8,258,5,42,127,989419020
81,9,20,Ticks_Linear_8,259,1,48,75,989426324
81,9,20,Ticks_Linear_8,260,1,48,75,989971264
81,9,20,Ticks_Linear_8,261,5,42,127,989978948
81,9,20,Ticks_Linear_8,262,5,42,127,990539016
81,9,20,Ticks_Linear_8,263,1,48,67,990549624
81,9,20,Ticks_Linear_8,264,1,48,75,991079784
81,9,20,Ticks_Linear_8,265,5,42,127,991099144
81,9,20,Ticks_Linear_8,266,1,48,80,991644324
81,9,20,Ticks_Linear_8,267,5,42,127,991659276
81,9,20,Ticks_Linear_8,268,5,42,127,992209160
81,9,20,Ticks_Linear_8,269,1,48,69,992213696
81,9,20,Ticks_Linear_8,270,1,48,73,992747908
81,9,20,Ticks_Linear_8,271,5,42,127,992759100
81,9,20,Ticks_Linear_8,272,1,48,81,993280328
81,9,20,Ticks_Linear_8,273,5,42,127,993309000
81,9,20,Ticks_Linear_8,274,1,48,74,993822432
81,9,20,Ticks_Linear_8,275,5,42,127,993858872
81,9,20,Ticks_Linear_8,276,1,48,76,994406708
81,9,20,Ticks_Linear_8,277,5,42,127,994408748
81,9,20,Ticks_Linear_8,278,5,42,127,994948668
81,9,20,Ticks_Linear_8,279,1,48,80,994977628
81,9,20,Ticks_Linear_8,280,5,42,127,995489108
81,9,20,Ticks_Linear_8,281,1,48,70,995492152
81,9,20,Ticks_Linear_8,282,1,48,32,995557812
81,9,20,Ticks_Linear_8,283,1,48,63,996023104
81,9,20,Ticks_Linear_8,284,5,42,127,996028696
81,9,20,Ticks_Linear_8,285,1,48,72,996552384
81,9,20,Ticks_Linear_8,286,5,42,127,996568608
81,9,20,Ticks_Linear_8,287,1,48,64,997075820
81,9,20,Ticks_Linear_8,288,5,42,127,997108972
81,9,20,Ticks_Linear_8,289,1,48,70,997603612
81,9,20,Ticks_Linear_8,290,5,42,127,997638704
81,9,20,Ticks_Linear_8,291,1,48,75,998110700
81,9,20,Ticks_Linear_8,292,1,48,33,998169460
81,9,20,Ticks_Linear_8,293,5,42,127,998170728
81,9,20,Ticks_Linear_8,294,1,48,77,998676296
81,9,20,Ticks_Linear_8,295,5,42,127,998699560
81,9,20,Ticks_Linear_8,296,5,42,127,999228776
81,9,20,Ticks_Linear_8,297,1,48,77,999235032
81,9,20,Ticks_Linear_8,298,1,48,31,999290064
81,9,20,Ticks_Linear_8,299,1,48,65,999757876
81,9,20,Ticks_Linear_8,300,5,42,127,999759448
81,9,20,Ticks_Linear_8,301,1,48,38,999828536
81,9,20,Ticks_Linear_8,302,1,48,70,1000279576
81,9,20,Ticks_Linear_8,303,5,42,127,1000280840
81,9,20,Ticks_Linear_8,304,1,48,22,1000358316
81,9,20,Ticks_Linear_8,305,1,48,71,1000776732
81,9,20,Ticks_Linear_8,306,5,42,127,1000798572
81,9,20,Ticks_Linear_8,307,1,48,36,1000840016
81,9,20,Ticks_Linear_8,308,1,48,68,1001300900
81,9,20,Ticks_Linear_8,309,5,42,127,1001318916
81,9,20,Ticks_Linear_8,310,1,48,73,1001825012
81,9,20,Ticks_Linear_8,311,5,42,127,1001838840
81,9,20,Ticks_Linear_8,312,5,42,127,1002359144
81,9,20,Ticks_Linear_8,313,1,48,70,1002365772
81,9,20,Ticks_Linear_8,314,5,42,127,1002869100
81,9,20,Ticks_Linear_8,315,1,48,71,1002918504
81,9,20,Ticks_Linear_8,316,5,42,127,1003379060
81,9,20,Ticks_Linear_8,317,1,48,67,1003416712
81,9,20,Ticks_Linear_8,318,5,42,127,1003888948
81,9,20,Ticks_Linear_8,319,1,48,60,1003916324
81,9,20,Ticks_Linear_8,320,1,48,78,1004392564
81,9,20,Ticks_Linear_8,321,5,42,127,1004398972
81,9,20,Ticks_Linear_8,322,5,42,127,1004908868
81,9,20,Ticks_Linear_8,323,1,48,76,1004914152
81,9,20,Ticks_Linear_8,324,5,42,127,1005408716
81,9,20,Ticks_Linear_8,325,1,48,71,1005432796
81,9,20,Ticks_Linear_8,326,5,42,127,1005909460
81,9,20,Ticks_Linear_8,327,1,48,73,1005920448
81,9,20,Ticks_Linear_8,328,1,48,63,1006402520
81,9,20,Ticks_Linear_8,329,5,42,127,1006409080
81,9,20,Ticks_Linear_8,330,1,48,52,1006885812
81,9,20,Ticks_Linear_8,331,5,42,127,1006908708
81,9,20,Ticks_Linear_8,332,1,48,48,1007382676
81,9,20,Ticks_Linear_8,333,5,42,127,1007408632
81,9,20,Ticks_Linear_8,334,5,42,127,1007898976
81,9,20,Ticks_Linear_8,335,1,48,59,1007915940
81,9,20,Ticks_Linear_8,336,5,42,127,1008388616
81,9,20,Ticks_Linear_8,337,1,48,75,1008416084
81,9,20,Ticks_Linear_8,338,1,48,75,1008858684
81,9,20,Ticks_Linear_8,339,5,42,127,1008878868
81,9,20,Ticks_Linear_8,340,1,48,62,1009355524
81,9,20,Ticks_Linear_8,341,5,42,127,1009368308
81,9,20,Ticks_Linear_8,342,1,48,70,1009858728
81,9,20,Ticks_Linear_8,343,5,42,127,1009860212
81,9,20,Ticks_Linear_8,0,9999,9999,9999,899327052
81,9,20,Ticks_Linear_8,1,9999,9999,9999,900146296
81,9,20,Ticks_Linear_8,2,9999,9999,9999,900966484
81,9,20,Ticks_Linear_8,3,9999,9999,9999,901786728
81,9,20,Ticks_Linear_8,4,9999,9999,9999,902606968
81,9,20,Ticks_Linear_8,5,9999,9999,9999,903416952
81,9,20,Ticks_Linear_8,6,9999,9999,9999,904226880
81,9,20,Ticks_Linear_8,7,9999,9999,9999,905036860
81,9,20,Ticks_Linear_8,8,9999,9999,9999,905846844
81,9,20,Ticks_Linear_8,9,9999,9999,9999,906656832
81,9,20,Ticks_Linear_8,10,9999,9999,9999,907456632
81,9,20,Ticks_Linear_8,11,9999,9999,9999,908256356
81,9,20,Ticks_Linear_8,12,9999,9999,9999,909056072
81,9,20,Ticks_Linear_8,13,9999,9999,9999,909856868
81,9,20,Ticks_Linear_8,14,9999,9999,9999,910656596
81,9,20,Ticks_Linear_8,15,9999,9999,9999,911446136
81,9,20,Ticks_Linear_8,16,9999,9999,9999,912236644
81,9,20,Ticks_Linear_8,17,9999,9999,9999,913026108
81,9,20,Ticks_Linear_8,18,9999,9999,9999,913816692
81,9,20,Ticks_Linear_8,19,9999,9999,9999,914606164
81,9,20,Ticks_Linear_8,20,9999,9999,9999,915386492
81,9,20,Ticks_Linear_8,21,9999,9999,9999,916166744
81,9,20,Ticks_Linear_8,22,9999,9999,9999,916947068
81,9,20,Ticks_Linear_8,23,9999,9999,9999,917726272
81,9,20,Ticks_Linear_8,24,9999,9999,9999,918506600
81,9,20,Ticks_Linear_8,25,9999,9999,9999,919276664
81,9,20,Ticks_Linear_8,26,9999,9999,9999,920046656
81,9,20,Ticks_Linear_8,27,9999,9999,9999,920816724
81,9,20,Ticks_Linear_8,28,9999,9999,9999,921586796
81,9,20,Ticks_Linear_8,29,9999,9999,9999,922356860
81,9,20,Ticks_Linear_8,30,9999,9999,9999,923116672
81,9,20,Ticks_Linear_8,31,9999,9999,9999,923876480
81,9,20,Ticks_Linear_8,32,9999,9999,9999,924636216
81,9,20,Ticks_Linear_8,33,9999,9999,9999,925397076
81,9,20,Ticks_Linear_8,34,9999,9999,9999,926156876
81,9,20,Ticks_Linear_8,35,9999,9999,9999,926906432
81,9,20,Ticks_Linear_8,36,9999,9999,9999,927657024
81,9,20,Ticks_Linear_8,37,9999,9999,9999,928406648
81,9,20,Ticks_Linear_8,38,9999,9999,9999,929156196
81,9,20,Ticks_Linear_8,39,9999,9999,9999,929906800
81,9,20,Ticks_Linear_8,40,9999,9999,9999,930646084
81,9,20,Ticks_Linear_8,41,9999,9999,9999,931386496
81,9,20,Ticks_Linear_8,42,9999,9999,9999,932126832
81,9,20,Ticks_Linear_8,43,9999,9999,9999,932866172
81,9,20,Ticks_Linear_8,44,9999,9999,9999,933606512
81,9,20,Ticks_Linear_8,45,9999,9999,9999,934336596
81,9,20,Ticks_Linear_8,46,9999,9999,9999,935066752
81,9,20,Ticks_Linear_8,47,9999,9999,9999,935796820
81,9,20,Ticks_Linear_8,48,9999,9999,9999,936526976
81,9,20,Ticks_Linear_8,49,9999,9999,9999,937257052
81,9,20,Ticks_Linear_8,50,9999,9999,9999,937976928
81,9,20,Ticks_Linear_8,51,9999,9999,9999,938696820
81,9,20,Ticks_Linear_8,52,9999,9999,9999,939416640
81,9,20,Ticks_Linear_8,53,9999,9999,9999,940136532
81,9,20,Ticks_Linear_8,54,9999,9999,9999,940856420
81,9,20,Ticks_Linear_8,55,9999,9999,9999,941567080
81,9,20,Ticks_Linear_8,56,9999,9999,9999,942276712
81,9,20,Ticks_Linear_8,57,9999,9999,9999,942986344
81,9,20,Ticks_Linear_8,58,9999,9999,9999,943696952
81,9,20,Ticks_Linear_8,59,9999,9999,9999,944406588
81,9,20,Ticks_Linear_8,60,9999,9999,9999,945107060
81,9,20,Ticks_Linear_8,61,9999,9999,9999,945806436
81,9,20,Ticks_Linear_8,62,9999,9999,9999,946506864
81,9,20,Ticks_Linear_8,63,9999,9999,9999,947206208
81,9,20,Ticks_Linear_8,64,9999,9999,9999,947906628
81,9,20,Ticks_Linear_8,65,9999,9999,9999,948596796
81,9,20,Ticks_Linear_8,66,9999,9999,9999,949287032
81,9,20,Ticks_Linear_8,67,9999,9999,9999,949976124
81,9,20,Ticks_Linear_8,68,9999,9999,9999,950666360
81,9,20,Ticks_Linear_8,69,9999,9999,9999,951356524
81,9,20,Ticks_Linear_8,70,9999,9999,9999,952036480
81,9,20,Ticks_Linear_8,71,9999,9999,9999,952716392
81,9,20,Ticks_Linear_8,72,9999,9999,9999,953396288
81,9,20,Ticks_Linear_8,73,9999,9999,9999,954076244
81,9,20,Ticks_Linear_8,74,9999,9999,9999,954756220
81,9,20,Ticks_Linear_8,75,9999,9999,9999,955426912
81,9,20,Ticks_Linear_8,76,9999,9999,9999,956096608
81,9,20,Ticks_Linear_8,77,9999,9999,9999,956766336
81,9,20,Ticks_Linear_8,78,9999,9999,9999,957437000
81,9,20,Ticks_Linear_8,79,9999,9999,9999,958106712
81,9,20,Ticks_Linear_8,80,9999,9999,9999,958766176
81,9,20,Ticks_Linear_8,81,9999,9999,9999,959426660
81,9,20,Ticks_Linear_8,82,9999,9999,9999,960086080
81,9,20,Ticks_Linear_8,83,9999,9999,9999,960746600
81,9,20,Ticks_Linear_8,84,9999,9999,9999,961407104
81,9,20,Ticks_Linear_8,85,9999,9999,9999,962056288
81,9,20,Ticks_Linear_8,86,9999,9999,9999,962706528
81,9,20,Ticks_Linear_8,87,9999,9999,9999,963356776
81,9,20,Ticks_Linear_8,88,9999,9999,9999,964007000
81,9,20,Ticks_Linear_8,89,9999,9999,9999,964656200
81,9,20,Ticks_Linear_8,90,9999,9999,9999,965296236
81,9,20,Ticks_Linear_8,91,9999,9999,9999,965936224
81,9,20,Ticks_Linear_8,92,9999,9999,9999,966576192
81,9,20,Ticks_Linear_8,93,9999,9999,9999,967216256
81,9,20,Ticks_Linear_8,94,9999,9999,9999,967856224
81,9,20,Ticks_Linear_8,95,9999,9999,9999,968487000
81,9,20,Ticks_Linear_8,96,9999,9999,9999,969116776
81,9,20,Ticks_Linear_8,97,9999,9999,9999,969746504
81,9,20,Ticks_Linear_8,98,9999,9999,9999,970376288
81,9,20,Ticks_Linear_8,99,9999,9999,9999,971007040
81,9,20,Ticks_Linear_8,100,9999,9999,9999,971626580
81,9,20,Ticks_Linear_8,101,9999,9999,9999,972246108
81,9,20,Ticks_Linear_8,102,9999,9999,9999,972866624
81,9,20,Ticks_Linear_8,103,9999,9999,9999,973486136
81,9,20,Ticks_Linear_8,104,9999,9999,9999,974106728
81,9,20,Ticks_Linear_8,105,9999,9999,9999,974717036
81,9,20,Ticks_Linear_8,106,9999,9999,9999,975326304
81,9,20,Ticks_Linear_8,107,9999,9999,9999,975936636
81,9,20,Ticks_Linear_8,108,9999,9999,9999,976546940
81,9,20,Ticks_Linear_8,109,9999,9999,9999,977156204
81,9,20,Ticks_Linear_8,110,9999,9999,9999,977756284
81,9,20,Ticks_Linear_8,111,9999,9999,9999,978356324
81,9,20,Ticks_Linear_8,112,9999,9999,9999,978956396
81,9,20,Ticks_Linear_8,113,9999,9999,9999,979556448
81,9,20,Ticks_Linear_8,114,9999,9999,9999,980156496
81,9,20,Ticks_Linear_8,115,9999,9999,9999,980746312
81,9,20,Ticks_Linear_8,116,9999,9999,9999,981336184
81,9,20,Ticks_Linear_8,117,9999,9999,9999,981927012
81,9,20,Ticks_Linear_8,118,9999,9999,9999,982516804
81,9,20,Ticks_Linear_8,119,9999,9999,9999,983106616
81,9,20,Ticks_Linear_8,120,9999,9999,9999,983686220
81,9,20,Ticks_Linear_8,121,9999,9999,9999,984266880
81,9,20,Ticks_Linear_8,122,9999,9999,9999,984846428
81,9,20,Ticks_Linear_8,123,9999,9999,9999,985427012
81,9,20,Ticks_Linear_8,124,9999,9999,9999,986006616
81,9,20,Ticks_Linear_8,125,9999,9999,9999,986577012
81,9,20,Ticks_Linear_8,126,9999,9999,9999,987146300
81,9,20,Ticks_Linear_8,127,9999,9999,9999,987716692
81,9,20,Ticks_Linear_8,128,9999,9999,9999,988287084
81,9,20,Ticks_Linear_8,129,9999,9999,9999,988856432
81,9,20,Ticks_Linear_8,130,9999,9999,9999,989416572
81,9,20,Ticks_Linear_8,131,9999,9999,9999,989976648
81,9,20,Ticks_Linear_8,132,9999,9999,9999,990536792
81,9,20,Ticks_Linear_8,133,9999,9999,9999,991096920
81,9,20,Ticks_Linear_8,134,9999,9999,9999,991657052
81,9,20,Ticks_Linear_8,135,9999,9999,9999,992206932
81,9,20,Ticks_Linear_8,136,9999,9999,9999,992756804
81,9,20,Ticks_Linear_8,137,9999,9999,9999,993306700
81,9,20,Ticks_Linear_8,138,9999,9999,9999,993856576
81,9,20,Ticks_Linear_8,139,9999,9999,9999,994406488
81,9,20,Ticks_Linear_8,140,9999,9999,9999,994946144
81,9,20,Ticks_Linear_8,141,9999,9999,9999,995486808
81,9,20,Ticks_Linear_8,142,9999,9999,9999,996026472
81,9,20,Ticks_Linear_8,143,9999,9999,9999,996566084
81,9,20,Ticks_Linear_8,144,9999,9999,9999,997106748
81,9,20,Ticks_Linear_8,145,9999,9999,9999,997636180
81,9,20,Ticks_Linear_8,146,9999,9999,9999,998166656
81,9,20,Ticks_Linear_8,147,9999,9999,9999,998697040
81,9,20,Ticks_Linear_8,148,9999,9999,9999,999226476
81,9,20,Ticks_Linear_8,149,9999,9999,9999,999756856
81,9,20,Ticks_Linear_8,150,9999,9999,9999,1000277056
81,9,20,Ticks_Linear_8,151,9999,9999,9999,1000796272
81,9,20,Ticks_Linear_8,152,9999,9999,9999,1001316468
81,9,20,Ticks_Linear_8,153,9999,9999,9999,1001836616
81,9,20,Ticks_Linear_8,154,9999,9999,9999,1002356840
81,9,20,Ticks_Linear_8,155,9999,9999,9999,1002866800
81,9,20,Ticks_Linear_8,156,9999,9999,9999,1003376760
81,9,20,Ticks_Linear_8,157,9999,9999,9999,1003886648
81,9,20,Ticks_Linear_8,158,9999,9999,9999,1004396600
81,9,20,Ticks_Linear_8,159,9999,9999,9999,1004906568
81,9,20,Ticks_Linear_8,160,9999,9999,9999,1005406268
81,9,20,Ticks_Linear_8,161,9999,9999,9999,1005907016
81,9,20,Ticks_Linear_8,162,9999,9999,9999,1006406784
81,9,20,Ticks_Linear_8,163,9999,9999,9999,1006906484
81,9,20,Ticks_Linear_8,164,9999,9999,9999,1007406184
81,9,20,Ticks_Linear_8,165,9999,9999,9999,1007896676
81,9,20,Ticks_Linear_8,166,9999,9999,9999,1008386168
81,9,20,Ticks_Linear_8,167,9999,9999,9999,1008876644
81,9,20,Ticks_Linear_8,168,9999,9999,9999,1009366084
81,9,20,Ticks_Linear_8,169,9999,9999,9999,1009856576
81,10,21,Ticks_Linear_5,0,5,42,127,1018937708
81,10,21,Ticks_Linear_5,1,5,42,127,1019418180
81,10,21,Ticks_Linear_5,2,1,48,52,1019870280
81,10,21,Ticks_Linear_5,3,5,42,127,1019898180
81,10,21,Ticks_Linear_5,4,1,48,68,1020376612
81,10,21,Ticks_Linear_5,5,5,42,127,1020378184
81,10,21,Ticks_Linear_5,6,5,42,127,1020857672
81,10,21,Ticks_Linear_5,7,1,48,81,1020871048
81,10,21,Ticks_Linear_5,8,5,42,127,1021348304
81,10,21,Ticks_Linear_5,9,1,48,76,1021362580
81,10,21,Ticks_Linear_5,10,1,48,75,1021836156
81,10,21,Ticks_Linear_5,11,5,42,127,1021837816
81,10,21,Ticks_Linear_5,12,1,48,65,1022315444
81,10,21,Ticks_Linear_5,13,5,42,127,1022328152
81,10,21,Ticks_Linear_5,14,1,48,64,1022808196
81,10,21,Ticks_Linear_5,15,5,42,127,1022817520
81,10,21,Ticks_Linear_5,16,5,42,127,1023308240
81,10,21,Ticks_Linear_5,17,1,48,73,1023309800
81,10,21,Ticks_Linear_5,18,1,48,67,1023790216
81,10,21,Ticks_Linear_5,19,5,42,127,1023808080
81,10,21,Ticks_Linear_5,20,1,48,76,1024258664
81,10,21,Ticks_Linear_5,21,5,42,127,1024307556
81,10,21,Ticks_Linear_5,22,1,48,71,1024764196
81,10,21,Ticks_Linear_5,23,5,42,127,1024808376
81,10,21,Ticks_Linear_5,24,1,48,69,1025303760
81,10,21,Ticks_Linear_5,25,5,42,127,1025308372
81,10,21,Ticks_Linear_5,26,5,42,127,1025807780
81,10,21,Ticks_Linear_5,27,1,48,66,1025814188
81,10,21,Ticks_Linear_5,28,1,48,68,1026295048
81,10,21,Ticks_Linear_5,29,5,42,127,1026317588
81,10,21,Ticks_Linear_5,30,1,48,67,1026788164
81,10,21,Ticks_Linear_5,31,5,42,127,1026827620
81,10,21,Ticks_Linear_5,32,1,48,65,1027306060
81,10,21,Ticks_Linear_5,33,5,42,127,1027337504
81,10,21,Ticks_Linear_5,34,1,48,78,1027825832
81,10,21,Ticks_Linear_5,35,5,42,127,1027847536
81,10,21,Ticks_Linear_5,36,1,48,80,1028321176
81,10,21,Ticks_Linear_5,37,5,42,127,1028357568
81,10,21,Ticks_Linear_5,38,1,48,74,1028843416
81,10,21,Ticks_Linear_5,39,5,42,127,1028877860
81,10,21,Ticks_Linear_5,40,1,48,76,1029351880
81,10,21,Ticks_Linear_5,41,5,42,127,1029397928
81,10,21,Ticks_Linear_5,42,1,48,65,1029881308
81,10,21,Ticks_Linear_5,43,5,42,127,1029918148
81,10,21,Ticks_Linear_5,44,1,48,60,1030436248
81,10,21,Ticks_Linear_5,45,5,42,127,1030438216
81,10,21,Ticks_Linear_5,46,5,42,127,1030957396
81,10,21,Ticks_Linear_5,47,1,48,56,1030974360
81,10,21,Ticks_Linear_5,48,1,48,59,1031427372
81,10,21,Ticks_Linear_5,49,5,42,127,1031487792
81,10,21,Ticks_Linear_5,50,1,48,47,1031990744
81,10,21,Ticks_Linear_5,51,5,42,127,1032018268
81,10,21,Ticks_Linear_5,52,1,48,62,1032544504
81,10,21,Ticks_Linear_5,53,5,42,127,1032547772
81,10,21,Ticks_Linear_5,54,5,42,127,1033078108
81,10,21,Ticks_Linear_5,55,1,48,65,1033080044
81,10,21,Ticks_Linear_5,56,1,48,62,1033547580
81,10,21,Ticks_Linear_5,57,5,42,127,1033607680
81,10,21,Ticks_Linear_5,58,1,48,67,1034116704
81,10,21,Ticks_Linear_5,59,5,42,127,1034148116
81,10,21,Ticks_Linear_5,60,1,48,62,1034667848
81,10,21,Ticks_Linear_5,61,5,42,127,1034687956
81,10,21,Ticks_Linear_5,62,5,42,127,1035227428
81,10,21,Ticks_Linear_5,63,1,48,49,1035232040
81,10,21,Ticks_Linear_5,64,1,48,62,1035755604
81,10,21,Ticks_Linear_5,65,5,42,127,1035768232
81,10,21,Ticks_Linear_5,66,1,48,52,1036279272
81,10,21,Ticks_Linear_5,67,5,42,127,1036307796
81,10,21,Ticks_Linear_5,68,1,48,62,1036828352
81,10,21,Ticks_Linear_5,69,5,42,127,1036857672
81,10,21,Ticks_Linear_5,70,1,48,65,1037370132
81,10,21,Ticks_Linear_5,71,5,42,127,1037407544
81,10,21,Ticks_Linear_5,72,1,48,60,1037911096
81,10,21,Ticks_Linear_5,73,5,42,127,1037957792
81,10,21,Ticks_Linear_5,74,1,48,54,1038493920
81,10,21,Ticks_Linear_5,75,5,42,127,1038508272
81,10,21,Ticks_Linear_5,76,5,42,127,1039058300
81,10,21,Ticks_Linear_5,77,1,48,61,1039062988
81,10,21,Ticks_Linear_5,78,1,48,62,1039608204
81,10,21,Ticks_Linear_5,79,5,42,127,1039618352
81,10,21,Ticks_Linear_5,80,1,48,56,1040136812
81,10,21,Ticks_Linear_5,81,5,42,127,1040187848
81,10,21,Ticks_Linear_5,82,1,48,30,1040189772
81,10,21,Ticks_Linear_5,83,1,48,64,1040718192
81,10,21,Ticks_Linear_5,84,5,42,127,1040747884
81,10,21,Ticks_Linear_5,85,5,42,127,1041308172
81,10,21,Ticks_Linear_5,86,1,48,58,1041309508
81,10,21,Ticks_Linear_5,87,1,48,55,1041856428
81,10,21,Ticks_Linear_5,88,5,42,127,1041868076
81,10,21,Ticks_Linear_5,89,1,48,63,1042399712
81,10,21,Ticks_Linear_5,90,5,42,127,1042437668
81,10,21,Ticks_Linear_5,91,1,48,57,1042979560
81,10,21,Ticks_Linear_5,92,5,42,127,1043007912
81,10,21,Ticks_Linear_5,93,1,48,64,1043558344
81,10,21,Ticks_Linear_5,94,5,42,127,1043578232
81,10,21,Ticks_Linear_5,95,5,42,127,1044147880
81,10,21,Ticks_Linear_5,96,1,48,62,1044152720
81,10,21,Ticks_Linear_5,97,1,48,58,1044696664
81,10,21,Ticks_Linear_5,98,5,42,127,1044717896
81,10,21,Ticks_Linear_5,99,1,48,55,1045236648
81,10,21,Ticks_Linear_5,100,5,42,127,1045297524
81,10,21,Ticks_Linear_5,101,1,48,53,1045851324
81,10,21,Ticks_Linear_5,102,5,42,127,1045878248
81,10,21,Ticks_Linear_5,103,1,48,55,1046443724
81,10,21,Ticks_Linear_5,104,5,42,127,1046457704
81,10,21,Ticks_Linear_5,105,1,48,48,1047009708
81,10,21,Ticks_Linear_5,106,5,42,127,1047038652
81,10,21,Ticks_Linear_5,107,1,48,61,1047582968
81,10,21,Ticks_Linear_5,108,5,42,127,1047617984
81,10,21,Ticks_Linear_5,109,1,48,67,1048150444
81,10,21,Ticks_Linear_5,110,5,42,127,1048207700
81,10,21,Ticks_Linear_5,111,1,48,67,1048769140
81,10,21,Ticks_Linear_5,112,5,42,127,1048797712
81,10,21,Ticks_Linear_5,113,1,48,61,1049354148
81,10,21,Ticks_Linear_5,114,5,42,127,1049388348
81,10,21,Ticks_Linear_5,115,1,48,59,1049950612
81,10,21,Ticks_Linear_5,116,5,42,127,1049978284
81,10,21,Ticks_Linear_5,117,1,48,67,1050532984
81,10,21,Ticks_Linear_5,118,5,42,127,1050568004
81,10,21,Ticks_Linear_5,119,1,48,31,1050590576
81,10,21,Ticks_Linear_5,120,1,48,65,1051124692
81,10,21,Ticks_Linear_5,121,5,42,127,1051168056
81,10,21,Ticks_Linear_5,122,1,48,65,1051762740
81,10,21,Ticks_Linear_5,123,5,42,127,1051768324
81,10,21,Ticks_Linear_5,124,1,48,68,1052343164
81,10,21,Ticks_Linear_5,125,5,42,127,1052368448
81,10,21,Ticks_Linear_5,126,1,48,64,1052907128
81,10,21,Ticks_Linear_5,127,5,42,127,1052968372
81,10,21,Ticks_Linear_5,128,1,48,73,1053523444
81,10,21,Ticks_Linear_5,129,5,42,127,1053568572
81,10,21,Ticks_Linear_5,130,1,48,71,1054177764
81,10,21,Ticks_Linear_5,131,5,42,127,1054179100
81,10,21,Ticks_Linear_5,132,1,48,70,1054761832
81,10,21,Ticks_Linear_5,133,5,42,127,1054787864
81,10,21,Ticks_Linear_5,134,1,48,64,1055342188
81,10,21,Ticks_Linear_5,135,5,42,127,1055398396
81,10,21,Ticks_Linear_5,136,1,48,64,1055940516
81,10,21,Ticks_Linear_5,137,5,42,127,1056007460
81,10,21,Ticks_Linear_5,138,1,48,63,1056606648
81,10,21,Ticks_Linear_5,139,5,42,127,1056617768
81,10,21,Ticks_Linear_5,140,1,48,73,1057207068
81,10,21,Ticks_Linear_5,141,5,42,127,1057238560
81,10,21,Ticks_Linear_5,142,1,48,65,1057828484
81,10,21,Ticks_Linear_5,143,5,42,127,1057857880
81,10,21,Ticks_Linear_5,144,1,48,65,1058435872
81,10,21,Ticks_Linear_5,145,5,42,127,1058477400
81,10,21,Ticks_Linear_5,146,1,48,64,1059045808
81,10,21,Ticks_Linear_5,147,5,42,127,1059097916
81,10,21,Ticks_Linear_5,148,5,42,127,1059717520
81,10,21,Ticks_Linear_5,149,5,42,127,1060348364
81,10,21,Ticks_Linear_5,150,1,48,56,1060354772
81,10,21,Ticks_Linear_5,151,5,42,127,1060978168
81,10,21,Ticks_Linear_5,152,1,48,61,1060994612
81,10,21,Ticks_Linear_5,153,1,48,59,1061568740
81,10,21,Ticks_Linear_5,154,5,42,127,1061607796
81,10,21,Ticks_Linear_5,155,1,48,60,1062183852
81,10,21,Ticks_Linear_5,156,5,42,127,1062237600
81,10,21,Ticks_Linear_5,157,1,48,60,1062785784
81,10,21,Ticks_Linear_5,158,5,42,127,1062868276
81,10,21,Ticks_Linear_5,159,1,48,62,1063428692
81,10,21,Ticks_Linear_5,160,5,42,127,1063508488
81,10,21,Ticks_Linear_5,161,1,48,61,1064110740
81,10,21,Ticks_Linear_5,162,5,42,127,1064148376
81,10,21,Ticks_Linear_5,163,1,48,66,1064766540
81,10,21,Ticks_Linear_5,164,5,42,127,1064788364
81,10,21,Ticks_Linear_5,165,1,48,59,1065425732
81,10,21,Ticks_Linear_5,166,5,42,127,1065428328
81,10,21,Ticks_Linear_5,167,5,42,127,1066068400
81,10,21,Ticks_Linear_5,168,1,48,62,1066071592
81,10,21,Ticks_Linear_5,169,1,48,57,1066708020
81,10,21,Ticks_Linear_5,170,5,42,127,1066717420
81,10,21,Ticks_Linear_5,171,5,42,127,1067367896
81,10,21,Ticks_Linear_5,172,1,48,60,1067379780
81,10,21,Ticks_Linear_5,173,1,48,62,1067978908
81,10,21,Ticks_Linear_5,174,5,42,127,1068018336
81,10,21,Ticks_Linear_5,175,1,48,66,1068594172
81,10,21,Ticks_Linear_5,176,5,42,127,1068668212
81,10,21,Ticks_Linear_5,177,1,48,62,1069283788
81,10,21,Ticks_Linear_5,178,5,42,127,1069317488
81,10,21,Ticks_Linear_5,179,5,42,127,1069978124
81,10,21,Ticks_Linear_5,180,1,48,63,1069999296
81,10,21,Ticks_Linear_5,181,1,48,68,1070602784
81,10,21,Ticks_Linear_5,182,5,42,127,1070637428
81,10,21,Ticks_Linear_5,183,1,48,68,1071248448
81,10,21,Ticks_Linear_5,184,5,42,127,1071298132
81,10,21,Ticks_Linear_5,185,1,48,63,1071904448
81,10,21,Ticks_Linear_5,186,5,42,127,1071958416
81,10,21,Ticks_Linear_5,187,1,48,66,1072603048
81,10,21,Ticks_Linear_5,188,5,42,127,1072618000
81,10,21,Ticks_Linear_5,189,1,48,61,1073239452
81,10,21,Ticks_Linear_5,190,5,42,127,1073287420
81,10,21,Ticks_Linear_5,191,1,48,58,1073918284
81,10,21,Ticks_Linear_5,192,5,42,127,1073958260
81,10,21,Ticks_Linear_5,193,1,48,51,1074599384
81,10,21,Ticks_Linear_5,194,5,42,127,1074628104
81,10,21,Ticks_Linear_5,195,1,48,70,1075290068
81,10,21,Ticks_Linear_5,196,5,42,127,1075297676
81,10,21,Ticks_Linear_5,197,5,42,127,1075968424
81,10,21,Ticks_Linear_5,198,1,48,61,1075971096
81,10,21,Ticks_Linear_5,199,1,48,58,1076627516
81,10,21,Ticks_Linear_5,200,5,42,127,1076648368
81,10,21,Ticks_Linear_5,201,1,48,57,1077312580
81,10,21,Ticks_Linear_5,202,5,42,127,1077328124
81,10,21,Ticks_Linear_5,203,1,48,68,1077951716
81,10,21,Ticks_Linear_5,204,5,42,127,1078008152
81,10,21,Ticks_Linear_5,205,1,48,62,1078632440
81,10,21,Ticks_Linear_5,206,5,42,127,1078687980
81,10,21,Ticks_Linear_5,207,1,48,70,1079323504
81,10,21,Ticks_Linear_5,208,5,42,127,1079368108
81,10,21,Ticks_Linear_5,209,1,48,71,1080004808
81,10,21,Ticks_Linear_5,210,1,48,35,1080056036
81,10,21,Ticks_Linear_5,211,5,42,127,1080058152
81,10,21,Ticks_Linear_5,212,1,48,79,1080698696
81,10,21,Ticks_Linear_5,213,5,42,127,1080748388
81,10,21,Ticks_Linear_5,214,5,42,127,1081437436
81,10,21,Ticks_Linear_5,215,1,48,65,1081446396
81,10,21,Ticks_Linear_5,216,1,48,74,1082088360
81,10,21,Ticks_Linear_5,217,5,42,127,1082127816
81,10,21,Ticks_Linear_5,218,1,48,61,1082753652
81,10,21,Ticks_Linear_5,219,5,42,127,1082817880
81,10,21,Ticks_Linear_5,220,1,48,62,1083467192
81,10,21,Ticks_Linear_5,221,5,42,127,1083518228
81,10,21,Ticks_Linear_5,222,1,48,59,1084177800
81,10,21,Ticks_Linear_5,223,5,42,127,1084217676
81,10,21,Ticks_Linear_5,224,1,48,67,1084895104
81,10,21,Ticks_Linear_5,225,5,42,127,1084918000
81,10,21,Ticks_Linear_5,226,1,48,57,1085571648
81,10,21,Ticks_Linear_5,227,5,42,127,1085617748
81,10,21,Ticks_Linear_5,228,1,48,69,1086256504
81,10,21,Ticks_Linear_5,229,5,42,127,1086317872
81,10,21,Ticks_Linear_5,230,1,48,45,1086976148
81,10,21,Ticks_Linear_5,231,5,42,127,1087027656
81,10,21,Ticks_Linear_5,232,1,48,66,1087679560
81,10,21,Ticks_Linear_5,233,5,42,127,1087738236
81,10,21,Ticks_Linear_5,234,1,48,57,1088393604
81,10,21,Ticks_Linear_5,235,5,42,127,1088447720
81,10,21,Ticks_Linear_5,236,5,42,127,1089157660
81,10,21,Ticks_Linear_5,237,1,48,77,1089169240
81,10,21,Ticks_Linear_5,238,1,48,52,1089818268
81,10,21,Ticks_Linear_5,239,5,42,127,1089868108
81,10,21,Ticks_Linear_5,240,1,48,71,1090499196
81,10,21,Ticks_Linear_5,241,5,42,127,1090588004
81,10,21,Ticks_Linear_5,242,1,48,57,1091243944
81,10,21,Ticks_Linear_5,243,5,42,127,1091307800
81,10,21,Ticks_Linear_5,244,1,48,69,1091994392
81,10,21,Ticks_Linear_5,245,5,42,127,1092027768
81,10,21,Ticks_Linear_5,246,1,48,48,1092718040
81,10,21,Ticks_Linear_5,247,5,42,127,1092747732
81,10,21,Ticks_Linear_5,248,1,48,65,1093379668
81,10,21,Ticks_Linear_5,249,5,42,127,1093467628
81,10,21,Ticks_Linear_5,250,1,48,62,1094138628
81,10,21,Ticks_Linear_5,251,5,42,127,1094197704
81,10,21,Ticks_Linear_5,252,1,48,61,1094883600
81,10,21,Ticks_Linear_5,253,5,42,127,1094927632
81,10,21,Ticks_Linear_5,254,1,48,55,1095596764
81,10,21,Ticks_Linear_5,255,5,42,127,1095657836
81,10,21,Ticks_Linear_5,256,1,48,67,1096311556
81,10,21,Ticks_Linear_5,257,5,42,127,1096387984
81,10,21,Ticks_Linear_5,258,1,48,58,1097042236
81,10,21,Ticks_Linear_5,259,5,42,127,1097117992
81,10,21,Ticks_Linear_5,260,1,48,65,1097800996
81,10,21,Ticks_Linear_5,261,5,42,127,1097858552
81,10,21,Ticks_Linear_5,262,1,48,51,1098508388
81,10,21,Ticks_Linear_5,263,5,42,127,1098607936
81,10,21,Ticks_Linear_5,264,1,48,67,1099333188
81,10,21,Ticks_Linear_5,265,5,42,127,1099348512
81,10,21,Ticks_Linear_5,266,1,48,51,1100067172
81,10,21,Ticks_Linear_5,267,5,42,127,1100087728
81,10,21,Ticks_Linear_5,268,1,48,60,1100763440
81,10,21,Ticks_Linear_5,269,5,42,127,1100827916
81,10,21,Ticks_Linear_5,270,1,48,54,1101462668
81,10,21,Ticks_Linear_5,271,5,42,127,1101577524
81,10,21,Ticks_Linear_5,272,1,48,67,1102288308
81,10,21,Ticks_Linear_5,273,5,42,127,1102328260
81,10,21,Ticks_Linear_5,274,1,48,54,1103038828
81,10,21,Ticks_Linear_5,275,5,42,127,1103077660
81,10,21,Ticks_Linear_5,276,1,48,66,1103788676
81,10,21,Ticks_Linear_5,277,5,42,127,1103828480
81,10,21,Ticks_Linear_5,278,1,48,29,1103854724
81,10,21,Ticks_Linear_5,279,1,48,50,1104525776
81,10,21,Ticks_Linear_5,280,5,42,127,1104577860
81,10,21,Ticks_Linear_5,281,1,48,62,1105299584
81,10,21,Ticks_Linear_5,282,5,42,127,1105337592
81,10,21,Ticks_Linear_5,283,1,48,57,1106052352
81,10,21,Ticks_Linear_5,284,5,42,127,1106097552
81,10,21,Ticks_Linear_5,285,1,48,69,1106796888
81,10,21,Ticks_Linear_5,286,5,42,127,1106858404
81,10,21,Ticks_Linear_5,287,1,48,48,1107585156
81,10,21,Ticks_Linear_5,288,5,42,127,1107618140
81,10,21,Ticks_Linear_5,289,1,48,63,1108319872
81,10,21,Ticks_Linear_5,290,5,42,127,1108377952
81,10,21,Ticks_Linear_5,291,1,48,43,1109112928
81,10,21,Ticks_Linear_5,292,5,42,127,1109148092
81,10,21,Ticks_Linear_5,293,1,48,54,1109839564
81,10,21,Ticks_Linear_5,294,5,42,127,1109918236
81,10,21,Ticks_Linear_5,295,1,48,61,1110615332
81,10,21,Ticks_Linear_5,296,5,42,127,1110688156
81,10,21,Ticks_Linear_5,297,1,48,69,1111424252
81,10,21,Ticks_Linear_5,298,5,42,127,1111458296
81,10,21,Ticks_Linear_5,299,1,48,61,1112182416
81,10,21,Ticks_Linear_5,300,5,42,127,1112228368
81,10,21,Ticks_Linear_5,301,1,48,67,1112962520
81,10,21,Ticks_Linear_5,302,5,42,127,1113007424
81,10,21,Ticks_Linear_5,303,1,48,57,1113780740
81,10,21,Ticks_Linear_5,304,5,42,127,1113787896
81,10,21,Ticks_Linear_5,305,1,48,70,1114517264
81,10,21,Ticks_Linear_5,306,5,42,127,1114568076
81,10,21,Ticks_Linear_5,307,1,48,61,1115324240
81,10,21,Ticks_Linear_5,308,5,42,127,1115348328
81,10,21,Ticks_Linear_5,309,1,48,76,1116100528
81,10,21,Ticks_Linear_5,310,5,42,127,1116127536
81,10,21,Ticks_Linear_5,311,1,48,52,1116831208
81,10,21,Ticks_Linear_5,312,5,42,127,1116918344
81,10,21,Ticks_Linear_5,313,1,48,72,1117695996
81,10,21,Ticks_Linear_5,314,5,42,127,1117707584
81,10,21,Ticks_Linear_5,315,1,48,59,1118446360
81,10,21,Ticks_Linear_5,316,5,42,127,1118498172
81,10,21,Ticks_Linear_5,317,1,48,73,1119242128
81,10,21,Ticks_Linear_5,318,5,42,127,1119287708
81,10,21,Ticks_Linear_5,319,5,42,127,1120078156
81,10,21,Ticks_Linear_5,320,1,48,62,1120284912
81,10,21,Ticks_Linear_5,321,5,42,127,1120878176
81,10,21,Ticks_Linear_5,322,1,48,14,1121230148
81,10,21,Ticks_Linear_5,323,5,42,127,1121677676
81,10,21,Ticks_Linear_5,324,1,48,62,1121987788
81,10,21,Ticks_Linear_5,325,5,42,127,1122477324
81,10,21,Ticks_Linear_5,326,1,48,60,1122732608
81,10,21,Ticks_Linear_5,327,5,42,127,1123278096
81,10,21,Ticks_Linear_5,328,1,48,64,1123598112
81,10,21,Ticks_Linear_5,329,5,42,127,1124078044
81,10,21,Ticks_Linear_5,330,1,48,58,1124365936
81,10,21,Ticks_Linear_5,331,5,42,127,1124888124
81,10,21,Ticks_Linear_5,332,1,48,74,1125025508
81,10,21,Ticks_Linear_5,333,1,48,68,1125698032
81,10,21,Ticks_Linear_5,334,5,42,127,1125699444
81,10,21,Ticks_Linear_5,335,1,48,68,1126462732
81,10,21,Ticks_Linear_5,336,5,42,127,1126508008
81,10,21,Ticks_Linear_5,337,1,48,73,1127253912
81,10,21,Ticks_Linear_5,338,5,42,127,1127318064
81,10,21,Ticks_Linear_5,339,1,48,73,1128031776
81,10,21,Ticks_Linear_5,340,5,42,127,1128128032
81,10,21,Ticks_Linear_5,0,9999,9999,9999,1018935408
81,10,21,Ticks_Linear_5,1,9999,9999,9999,1019415660
81,10,21,Ticks_Linear_5,2,9999,9999,9999,1019895880
81,10,21,Ticks_Linear_5,3,9999,9999,9999,1020375140
81,10,21,Ticks_Linear_5,4,9999,9999,9999,1020855372
81,10,21,Ticks_Linear_5,5,9999,9999,9999,1021345856
81,10,21,Ticks_Linear_5,6,9999,9999,9999,1021835372
81,10,21,Ticks_Linear_5,7,9999,9999,9999,1022325852
81,10,21,Ticks_Linear_5,8,9999,9999,9999,1022815292
81,10,21,Ticks_Linear_5,9,9999,9999,9999,1023305788
81,10,21,Ticks_Linear_5,10,9999,9999,9999,1023805556
81,10,21,Ticks_Linear_5,11,9999,9999,9999,1024305256
81,10,21,Ticks_Linear_5,12,9999,9999,9999,1024806000
81,10,21,Ticks_Linear_5,13,9999,9999,9999,1025305700
81,10,21,Ticks_Linear_5,14,9999,9999,9999,1025805404
81,10,21,Ticks_Linear_5,15,9999,9999,9999,1026315360
81,10,21,Ticks_Linear_5,16,9999,9999,9999,1026825320
81,10,21,Ticks_Linear_5,17,9999,9999,9999,1027335276
81,10,21,Ticks_Linear_5,18,9999,9999,9999,1027845236
81,10,21,Ticks_Linear_5,19,9999,9999,9999,1028355168
81,10,21,Ticks_Linear_5,20,9999,9999,9999,1028875340
81,10,21,Ticks_Linear_5,21,9999,9999,9999,1029395556
81,10,21,Ticks_Linear_5,22,9999,9999,9999,1029915772
81,10,21,Ticks_Linear_5,23,9999,9999,9999,1030435952
81,10,21,Ticks_Linear_5,24,9999,9999,9999,1030955092
81,10,21,Ticks_Linear_5,25,9999,9999,9999,1031485564
81,10,21,Ticks_Linear_5,26,9999,9999,9999,1032015968
81,10,21,Ticks_Linear_5,27,9999,9999,9999,1032545396
81,10,21,Ticks_Linear_5,28,9999,9999,9999,1033075808
81,10,21,Ticks_Linear_5,29,9999,9999,9999,1033605232
81,10,21,Ticks_Linear_5,30,9999,9999,9999,1034145892
81,10,21,Ticks_Linear_5,31,9999,9999,9999,1034685508
81,10,21,Ticks_Linear_5,32,9999,9999,9999,1035225204
81,10,21,Ticks_Linear_5,33,9999,9999,9999,1035765856
81,10,21,Ticks_Linear_5,34,9999,9999,9999,1036305496
81,10,21,Ticks_Linear_5,35,9999,9999,9999,1036855372
81,10,21,Ticks_Linear_5,36,9999,9999,9999,1037405244
81,10,21,Ticks_Linear_5,37,9999,9999,9999,1037955192
81,10,21,Ticks_Linear_5,38,9999,9999,9999,1038506044
81,10,21,Ticks_Linear_5,39,9999,9999,9999,1039055924
81,10,21,Ticks_Linear_5,40,9999,9999,9999,1039616128
81,10,21,Ticks_Linear_5,41,9999,9999,9999,1040185400
81,10,21,Ticks_Linear_5,42,9999,9999,9999,1040745584
81,10,21,Ticks_Linear_5,43,9999,9999,9999,1041305720
81,10,21,Ticks_Linear_5,44,9999,9999,9999,1041865848
81,10,21,Ticks_Linear_5,45,9999,9999,9999,1042435196
81,10,21,Ticks_Linear_5,46,9999,9999,9999,1043005536
81,10,21,Ticks_Linear_5,47,9999,9999,9999,1043575928
81,10,21,Ticks_Linear_5,48,9999,9999,9999,1044145208
81,10,21,Ticks_Linear_5,49,9999,9999,9999,1044715592
81,10,21,Ticks_Linear_5,50,9999,9999,9999,1045295220
81,10,21,Ticks_Linear_5,51,9999,9999,9999,1045875796
81,10,21,Ticks_Linear_5,52,9999,9999,9999,1046455404
81,10,21,Ticks_Linear_5,53,9999,9999,9999,1047035980
81,10,21,Ticks_Linear_5,54,9999,9999,9999,1047615608
81,10,21,Ticks_Linear_5,55,9999,9999,9999,1048205400
81,10,21,Ticks_Linear_5,56,9999,9999,9999,1048795264
81,10,21,Ticks_Linear_5,57,9999,9999,9999,1049386048
81,10,21,Ticks_Linear_5,58,9999,9999,9999,1049975912
81,10,21,Ticks_Linear_5,59,9999,9999,9999,1050565700
81,10,21,Ticks_Linear_5,60,9999,9999,9999,1051165752
81,10,21,Ticks_Linear_5,61,9999,9999,9999,1051765876
81,10,21,Ticks_Linear_5,62,9999,9999,9999,1052365924
81,10,21,Ticks_Linear_5,63,9999,9999,9999,1052965996
81,10,21,Ticks_Linear_5,64,9999,9999,9999,1053566048
81,10,21,Ticks_Linear_5,65,9999,9999,9999,1054175312
81,10,21,Ticks_Linear_5,66,9999,9999,9999,1054785640
81,10,21,Ticks_Linear_5,67,9999,9999,9999,1055395948
81,10,21,Ticks_Linear_5,68,9999,9999,9999,1056005236
81,10,21,Ticks_Linear_5,69,9999,9999,9999,1056615544
81,10,21,Ticks_Linear_5,70,9999,9999,9999,1057236036
81,10,21,Ticks_Linear_5,71,9999,9999,9999,1057855580
81,10,21,Ticks_Linear_5,72,9999,9999,9999,1058475100
81,10,21,Ticks_Linear_5,73,9999,9999,9999,1059095616
81,10,21,Ticks_Linear_5,74,9999,9999,9999,1059715144
81,10,21,Ticks_Linear_5,75,9999,9999,9999,1060345916
81,10,21,Ticks_Linear_5,76,9999,9999,9999,1060975720
81,10,21,Ticks_Linear_5,77,9999,9999,9999,1061605496
81,10,21,Ticks_Linear_5,78,9999,9999,9999,1062235224
81,10,21,Ticks_Linear_5,79,9999,9999,9999,1062865972
81,10,21,Ticks_Linear_5,80,9999,9999,9999,1063506040
81,10,21,Ticks_Linear_5,81,9999,9999,9999,1064146000
81,10,21,Ticks_Linear_5,82,9999,9999,9999,1064785992
81,10,21,Ticks_Linear_5,83,9999,9999,9999,1065426028
81,10,21,Ticks_Linear_5,84,9999,9999,9999,1066066024
81,10,21,Ticks_Linear_5,85,9999,9999,9999,1066715192
81,10,21,Ticks_Linear_5,86,9999,9999,9999,1067365448
81,10,21,Ticks_Linear_5,87,9999,9999,9999,1068015740
81,10,21,Ticks_Linear_5,88,9999,9999,9999,1068665912
81,10,21,Ticks_Linear_5,89,9999,9999,9999,1069315184
81,10,21,Ticks_Linear_5,90,9999,9999,9999,1069975672
81,10,21,Ticks_Linear_5,91,9999,9999,9999,1070635128
81,10,21,Ticks_Linear_5,92,9999,9999,9999,1071295608
81,10,21,Ticks_Linear_5,93,9999,9999,9999,1071956040
81,10,21,Ticks_Linear_5,94,9999,9999,9999,1072615552
81,10,21,Ticks_Linear_5,95,9999,9999,9999,1073285196
81,10,21,Ticks_Linear_5,96,9999,9999,9999,1073955960
81,10,21,Ticks_Linear_5,97,9999,9999,9999,1074625656
81,10,21,Ticks_Linear_5,98,9999,9999,9999,1075295300
81,10,21,Ticks_Linear_5,99,9999,9999,9999,1075966048
81,10,21,Ticks_Linear_5,100,9999,9999,9999,1076645996
81,10,21,Ticks_Linear_5,101,9999,9999,9999,1077325896
81,10,21,Ticks_Linear_5,102,9999,9999,9999,1078005852
81,10,21,Ticks_Linear_5,103,9999,9999,9999,1078685756
81,10,21,Ticks_Linear_5,104,9999,9999,9999,1079365732
81,10,21,Ticks_Linear_5,105,9999,9999,9999,1080055896
81,10,21,Ticks_Linear_5,106,9999,9999,9999,1080746088
81,10,21,Ticks_Linear_5,107,9999,9999,9999,1081435212
81,10,21,Ticks_Linear_5,108,9999,9999,9999,1082125364
81,10,21,Ticks_Linear_5,109,9999,9999,9999,1082815576
81,10,21,Ticks_Linear_5,110,9999,9999,9999,1083516000
81,10,21,Ticks_Linear_5,111,9999,9999,9999,1084215376
81,10,21,Ticks_Linear_5,112,9999,9999,9999,1084915772
81,10,21,Ticks_Linear_5,113,9999,9999,9999,1085615224
81,10,21,Ticks_Linear_5,114,9999,9999,9999,1086315644
81,10,21,Ticks_Linear_5,115,9999,9999,9999,1087025208
81,10,21,Ticks_Linear_5,116,9999,9999,9999,1087735936
81,10,21,Ticks_Linear_5,117,9999,9999,9999,1088445496
81,10,21,Ticks_Linear_5,118,9999,9999,9999,1089155136
81,10,21,Ticks_Linear_5,119,9999,9999,9999,1089865808
81,10,21,Ticks_Linear_5,120,9999,9999,9999,1090585704
81,10,21,Ticks_Linear_5,121,9999,9999,9999,1091305572
81,10,21,Ticks_Linear_5,122,9999,9999,9999,1092025464
81,10,21,Ticks_Linear_5,123,9999,9999,9999,1092745284
81,10,21,Ticks_Linear_5,124,9999,9999,9999,1093465176
81,10,21,Ticks_Linear_5,125,9999,9999,9999,1094195256
81,10,21,Ticks_Linear_5,126,9999,9999,9999,1094925404
81,10,21,Ticks_Linear_5,127,9999,9999,9999,1095655536
81,10,21,Ticks_Linear_5,128,9999,9999,9999,1096385612
81,10,21,Ticks_Linear_5,129,9999,9999,9999,1097115764
81,10,21,Ticks_Linear_5,130,9999,9999,9999,1097856104
81,10,21,Ticks_Linear_5,131,9999,9999,9999,1098605636
81,10,21,Ticks_Linear_5,132,9999,9999,9999,1099345988
81,10,21,Ticks_Linear_5,133,9999,9999,9999,1100085352
81,10,21,Ticks_Linear_5,134,9999,9999,9999,1100825688
81,10,21,Ticks_Linear_5,135,9999,9999,9999,1101575224
81,10,21,Ticks_Linear_5,136,9999,9999,9999,1102325884
81,10,21,Ticks_Linear_5,137,9999,9999,9999,1103075436
81,10,21,Ticks_Linear_5,138,9999,9999,9999,1103826032
81,10,21,Ticks_Linear_5,139,9999,9999,9999,1104575560
81,10,21,Ticks_Linear_5,140,9999,9999,9999,1105335368
81,10,21,Ticks_Linear_5,141,9999,9999,9999,1106095176
81,10,21,Ticks_Linear_5,142,9999,9999,9999,1106856032
81,10,21,Ticks_Linear_5,143,9999,9999,9999,1107615840
81,10,21,Ticks_Linear_5,144,9999,9999,9999,1108375652
81,10,21,Ticks_Linear_5,145,9999,9999,9999,1109145720
81,10,21,Ticks_Linear_5,146,9999,9999,9999,1109915712
81,10,21,Ticks_Linear_5,147,9999,9999,9999,1110685780
81,10,21,Ticks_Linear_5,148,9999,9999,9999,1111455848
81,10,21,Ticks_Linear_5,149,9999,9999,9999,1112225916
81,10,21,Ticks_Linear_5,150,9999,9999,9999,1113005124
81,10,21,Ticks_Linear_5,151,9999,9999,9999,1113785448
81,10,21,Ticks_Linear_5,152,9999,9999,9999,1114565700
81,10,21,Ticks_Linear_5,153,9999,9999,9999,1115346028
81,10,21,Ticks_Linear_5,154,9999,9999,9999,1116125308
81,10,21,Ticks_Linear_5,155,9999,9999,9999,1116915820
81,10,21,Ticks_Linear_5,156,9999,9999,9999,1117705284
81,10,21,Ticks_Linear_5,157,9999,9999,9999,1118495872
81,10,21,Ticks_Linear_5,158,9999,9999,9999,1119285336
81,10,21,Ticks_Linear_5,159,9999,9999,9999,1120075856
81,10,21,Ticks_Linear_5,160,9999,9999,9999,1120875576
81,10,21,Ticks_Linear_5,161,9999,9999,9999,1121675376
81,10,21,Ticks_Linear_5,162,9999,9999,9999,1122475100
81,10,21,Ticks_Linear_5,163,9999,9999,9999,1123275868
81,10,21,Ticks_Linear_5,164,9999,9999,9999,1124075592
81,10,21,Ticks_Linear_5,165,9999,9999,9999,1124885600
81,10,21,Ticks_Linear_5,166,9999,9999,9999,1125695584
81,10,21,Ticks_Linear_5,167,9999,9999,9999,1126505560
81,10,21,Ticks_Linear_5,168,9999,9999,9999,1127315540
81,10,21,Ticks_Linear_5,169,9999,9999,9999,1128125508
81,11,25,Jits_Pract_5,0,5,56,103,1185587524
81,11,25,Jits_Pract_5,1,5,63,98,1185590616
81,11,25,Jits_Pract_5,2,5,80,127,1185593740
81,11,25,Jits_Pract_5,0,5,56,103,1186088216
81,11,25,Jits_Pract_5,1,5,63,98,1186091084
81,11,25,Jits_Pract_5,2,5,80,127,1186094512
81,11,25,Jits_Pract_5,0,5,56,103,1186587960
81,11,25,Jits_Pract_5,1,5,80,127,1186598232
81,11,25,Jits_Pract_5,2,5,63,98,1186617792
81,11,25,Jits_Pract_5,0,5,63,98,1187037484
81,11,25,Jits_Pract_5,1,5,80,127,1187068456
81,11,25,Jits_Pract_5,2,5,56,103,1187077456
81,11,25,Jits_Pract_5,0,5,80,127,1187597696
81,11,25,Jits_Pract_5,1,5,56,103,1187607892
81,11,25,Jits_Pract_5,2,5,63,98,1187637640
81,11,25,Jits_Pract_5,0,5,63,98,1188088052
81,11,25,Jits_Pract_5,1,5,56,103,1188117756
81,11,25,Jits_Pract_5,2,5,80,127,1188128248
81,11,25,Jits_Pract_5,0,5,56,103,1188537736
81,11,25,Jits_Pract_5,1,5,63,98,1188587936
81,11,25,Jits_Pract_5,2,5,80,127,1188608496
81,11,25,Jits_Pract_5,0,5,80,127,1189037404
81,11,25,Jits_Pract_5,1,5,63,98,1189087532
81,11,25,Jits_Pract_5,2,5,56,103,1189127640
81,11,25,Jits_Pract_5,0,5,56,103,1189538120
81,11,25,Jits_Pract_5,1,5,63,98,1189567720
81,11,25,Jits_Pract_5,2,5,80,127,1189637572
81,11,25,Jits_Pract_5,0,5,56,103,1190037860
81,11,25,Jits_Pract_5,1,5,80,127,1190098476
81,11,25,Jits_Pract_5,2,5,63,98,1190127852
81,11,25,Jits_Pract_5,0,5,56,103,1190547796
81,11,25,Jits_Pract_5,1,5,63,98,1190557992
81,11,25,Jits_Pract_5,2,5,80,127,1190597928
81,11,25,Jits_Pract_5,0,5,63,98,1191038544
81,11,25,Jits_Pract_5,1,5,80,127,1191118340
81,11,25,Jits_Pract_5,2,5,56,103,1191128464
81,11,25,Jits_Pract_5,0,5,63,98,1191588472
81,11,25,Jits_Pract_5,1,5,56,103,1191628336
81,11,25,Jits_Pract_5,2,5,80,127,1191631328
81,11,25,Jits_Pract_5,0,5,56,103,1192047892
81,11,25,Jits_Pract_5,1,5,63,98,1192058388
81,11,25,Jits_Pract_5,2,5,80,127,1192098396
81,11,25,Jits_Pract_5,0,5,56,103,1192537444
81,11,25,Jits_Pract_5,1,5,63,98,1192540432
81,11,25,Jits_Pract_5,2,5,80,127,1192557900
81,11,25,Jits_Pract_5,0,9999,9999,9999,1185835108
81,11,25,Jits_Pract_5,1,9999,9999,9999,1186335804
81,11,25,Jits_Pract_5,2,9999,9999,9999,1186835548
81,11,25,Jits_Pract_5,3,9999,9999,9999,1187335288
81,11,25,Jits_Pract_5,4,9999,9999,9999,1187835996
81,11,25,Jits_Pract_5,5,9999,9999,9999,1188335716
81,11,25,Jits_Pract_5,6,9999,9999,9999,1188835444
81,11,25,Jits_Pract_5,7,9999,9999,9999,1189335112
81,11,25,Jits_Pract_5,8,9999,9999,9999,1189835900
81,11,25,Jits_Pract_5,9,9999,9999,9999,1190335572
81,11,25,Jits_Pract_5,10,9999,9999,9999,1190835312
81,11,25,Jits_Pract_5,11,9999,9999,9999,1191336032
81,11,25,Jits_Pract_5,12,9999,9999,9999,1191835756
81,11,25,Jits_Pract_5,13,9999,9999,9999,1192335412
81,11,25,Jits_Pract_5,14,9999,9999,9999,1192835140
81,12,24,Jits_Pract_8,0,5,56,103,1236996456
81,12,24,Jits_Pract_8,1,5,63,98,1236999476
81,12,24,Jits_Pract_8,2,5,80,127,1237002524
81,12,24,Jits_Pract_8,0,5,56,103,1237797512
81,12,24,Jits_Pract_8,1,5,63,98,1237800388
81,12,24,Jits_Pract_8,2,5,80,127,1237803508
81,12,24,Jits_Pract_8,0,5,80,127,1238536488
81,12,24,Jits_Pract_8,1,1,48,64,1238617528
81,12,24,Jits_Pract_8,2,5,63,98,1238626692
81,12,24,Jits_Pract_8,3,5,56,103,1238636812
81,12,24,Jits_Pract_8,0,5,56,103,1239356636
81,12,24,Jits_Pract_8,1,5,63,98,1239367132
81,12,24,Jits_Pract_8,2,5,80,127,1239457260
81,12,24,Jits_Pract_8,3,1,48,71,1239468844
81,12,24,Jits_Pract_8,0,5,63,98,1240126808
81,12,24,Jits_Pract_8,1,1,48,58,1240156104
81,12,24,Jits_Pract_8,2,5,80,127,1240157596
81,12,24,Jits_Pract_8,3,5,56,103,1240187344
81,12,24,Jits_Pract_8,0,5,56,103,1240926556
81,12,24,Jits_Pract_8,1,1,48,59,1240949832
81,12,24,Jits_Pract_8,2,5,80,127,1241026948
81,12,24,Jits_Pract_8,3,5,63,98,1241077136
81,12,24,Jits_Pract_8,0,5,56,103,1241727380
81,12,24,Jits_Pract_8,1,5,80,127,1241776608
81,12,24,Jits_Pract_8,2,1,48,49,1241787600
81,12,24,Jits_Pract_8,3,5,63,98,1241816392
81,12,24,Jits_Pract_8,0,1,48,55,1242540372
81,12,24,Jits_Pract_8,1,5,80,127,1242556736
81,12,24,Jits_Pract_8,2,5,63,98,1242586488
81,12,24,Jits_Pract_8,3,5,56,103,1242657296
81,12,24,Jits_Pract_8,0,1,48,54,1243339752
81,12,24,Jits_Pract_8,1,5,63,98,1243387236
81,12,24,Jits_Pract_8,2,5,56,103,1243417208
81,12,24,Jits_Pract_8,3,5,80,127,1243477432
81,12,24,Jits_Pract_8,0,5,56,103,1244126668
81,12,24,Jits_Pract_8,1,5,80,127,1244129584
81,12,24,Jits_Pract_8,2,1,48,62,1244233632
81,12,24,Jits_Pract_8,3,5,63,98,1244247456
81,12,24,Jits_Pract_8,0,1,48,65,1244963572
81,12,24,Jits_Pract_8,1,5,56,103,1245007364
81,12,24,Jits_Pract_8,2,5,80,127,1245047376
81,12,24,Jits_Pract_8,3,5,63,98,1245057424
81,12,24,Jits_Pract_8,0,1,48,76,1245757880
81,12,24,Jits_Pract_8,1,5,56,103,1245767192
81,12,24,Jits_Pract_8,2,5,80,127,1245786456
81,12,24,Jits_Pract_8,3,5,63,98,1245867356
81,12,24,Jits_Pract_8,0,5,80,127,1246556464
81,12,24,Jits_Pract_8,1,1,48,64,1246596524
81,12,24,Jits_Pract_8,2,5,56,103,1246656856
81,12,24,Jits_Pract_8,3,5,63,98,1246667348
81,12,24,Jits_Pract_8,0,5,63,98,1247326572
81,12,24,Jits_Pract_8,1,5,80,127,1247387036
81,12,24,Jits_Pract_8,2,5,56,103,1247397232
81,12,24,Jits_Pract_8,3,1,48,57,1247422968
81,12,24,Jits_Pract_8,0,1,48,78,1248125780
81,12,24,Jits_Pract_8,1,5,56,103,1248127216
81,12,24,Jits_Pract_8,2,5,63,98,1248196968
81,12,24,Jits_Pract_8,3,5,80,127,1248200552
81,12,24,Jits_Pract_8,0,9999,9999,9999,1237394532
81,12,24,Jits_Pract_8,1,9999,9999,9999,1238194248
81,12,24,Jits_Pract_8,2,9999,9999,9999,1238995008
81,12,24,Jits_Pract_8,3,9999,9999,9999,1239794776
81,12,24,Jits_Pract_8,4,9999,9999,9999,1240594488
81,12,24,Jits_Pract_8,5,9999,9999,9999,1241394248
81,12,24,Jits_Pract_8,6,9999,9999,9999,1242195064
81,12,24,Jits_Pract_8,7,9999,9999,9999,1242994760
81,12,24,Jits_Pract_8,8,9999,9999,9999,1243794520
81,12,24,Jits_Pract_8,9,9999,9999,9999,1244594268
81,12,24,Jits_Pract_8,10,9999,9999,9999,1245395020
81,12,24,Jits_Pract_8,11,9999,9999,9999,1246194780
81,12,24,Jits_Pract_8,12,9999,9999,9999,1246994484
81,12,24,Jits_Pract_8,13,9999,9999,9999,1247794252
81,12,24,Jits_Pract_8,14,9999,9999,9999,1248595044
81,13,25,Jits_Pract_5,0,5,56,103,1257960996
81,13,25,Jits_Pract_5,1,5,63,98,1257964172
81,13,25,Jits_Pract_5,2,5,80,127,1257967144
81,13,25,Jits_Pract_5,0,5,56,103,1258460500
81,13,25,Jits_Pract_5,1,5,63,98,1258463824
81,13,25,Jits_Pract_5,2,5,80,127,1258466872
81,13,25,Jits_Pract_5,3,1,48,54,1258642996
81,13,25,Jits_Pract_5,0,5,56,103,1258961400
81,13,25,Jits_Pract_5,1,5,80,127,1258970548
81,13,25,Jits_Pract_5,2,5,63,98,1258990932
81,13,25,Jits_Pract_5,3,1,48,56,1258991900
81,13,25,Jits_Pract_5,0,5,63,98,1259410984
81,13,25,Jits_Pract_5,1,5,80,127,1259440364
81,13,25,Jits_Pract_5,2,5,56,103,1259450780
81,13,25,Jits_Pract_5,3,1,48,58,1259461696
81,13,25,Jits_Pract_5,0,1,48,62,1259918816
81,13,25,Jits_Pract_5,1,5,80,127,1259970904
81,13,25,Jits_Pract_5,2,5,56,103,1259981100
81,13,25,Jits_Pract_5,3,5,63,98,1260010852
81,13,25,Jits_Pract_5,0,5,63,98,1260461388
81,13,25,Jits_Pract_5,1,1,48,57,1260462876
81,13,25,Jits_Pract_5,2,5,56,103,1260490984
81,13,25,Jits_Pract_5,3,5,80,127,1260501332
81,13,25,Jits_Pract_5,0,5,56,103,1260911036
81,13,25,Jits_Pract_5,1,5,63,98,1260961016
81,13,25,Jits_Pract_5,2,5,80,127,1260980876
81,13,25,Jits_Pract_5,3,1,48,57,1260999812
81,13,25,Jits_Pract_5,0,5,80,127,1261410820
81,13,25,Jits_Pract_5,1,5,63,98,1261460800
81,13,25,Jits_Pract_5,2,1,48,60,1261482052
81,13,25,Jits_Pract_5,3,5,56,103,1261500880
81,13,25,Jits_Pract_5,0,5,56,103,1261911276
81,13,25,Jits_Pract_5,1,5,63,98,1261941248
81,13,25,Jits_Pract_5,2,1,48,50,1261974480
81,13,25,Jits_Pract_5,3,5,80,127,1262010700
81,13,25,Jits_Pract_5,0,5,56,103,1262410980
81,13,25,Jits_Pract_5,1,1,48,51,1262451488
81,13,25,Jits_Pract_5,2,5,80,127,1262470616
81,13,25,Jits_Pract_5,3,5,63,98,1262501116
81,13,25,Jits_Pract_5,0,5,56,103,1262921024
81,13,25,Jits_Pract_5,1,5,63,98,1262931220
81,13,25,Jits_Pract_5,2,1,48,58,1262943256
81,13,25,Jits_Pract_5,3,5,80,127,1262971372
81,13,25,Jits_Pract_5,0,5,63,98,1263410688
81,13,25,Jits_Pract_5,1,1,48,52,1263439508
81,13,25,Jits_Pract_5,2,5,80,127,1263490700
81,13,25,Jits_Pract_5,3,5,56,103,1263500824
81,13,25,Jits_Pract_5,0,1,48,61,1263948324
81,13,25,Jits_Pract_5,1,5,63,98,1263960648
81,13,25,Jits_Pract_5,2,5,56,103,1264001560
81,13,25,Jits_Pract_5,3,5,80,127,1264004700
81,13,25,Jits_Pract_5,0,5,56,103,1264421452
81,13,25,Jits_Pract_5,1,5,63,98,1264430380
81,13,25,Jits_Pract_5,2,1,48,57,1264438132
81,13,25,Jits_Pract_5,3,5,80,127,1264471508
81,13,25,Jits_Pract_5,0,5,56,103,1264910588
81,13,25,Jits_Pract_5,1,5,63,98,1264913660
81,13,25,Jits_Pract_5,2,1,48,66,1264914700
81,13,25,Jits_Pract_5,3,5,80,127,1264931120
81,13,25,Jits_Pract_5,0,9999,9999,9999,1258208360
81,13,25,Jits_Pract_5,1,9999,9999,9999,1258709056
81,13,25,Jits_Pract_5,2,9999,9999,9999,1259208820
81,13,25,Jits_Pract_5,3,9999,9999,9999,1259708520
81,13,25,Jits_Pract_5,4,9999,9999,9999,1260208216
81,13,25,Jits_Pract_5,5,9999,9999,9999,1260708960
81,13,25,Jits_Pract_5,6,9999,9999,9999,1261208652
81,13,25,Jits_Pract_5,7,9999,9999,9999,1261708364
81,13,25,Jits_Pract_5,8,9999,9999,9999,1262208068
81,13,25,Jits_Pract_5,9,9999,9999,9999,1262708820
81,13,25,Jits_Pract_5,10,9999,9999,9999,1263208524
81,13,25,Jits_Pract_5,11,9999,9999,9999,1263708228
81,13,25,Jits_Pract_5,12,9999,9999,9999,1264208964
81,13,25,Jits_Pract_5,13,9999,9999,9999,1264708728
81,13,25,Jits_Pract_5,14,9999,9999,9999,1265208420
81,14,7,Jits_ISO_8,0,5,56,103,1289305468
81,14,7,Jits_ISO_8,1,5,63,98,1289308488
81,14,7,Jits_ISO_8,2,5,80,127,1289311760
81,14,7,Jits_ISO_8,0,5,56,103,1290106292
81,14,7,Jits_ISO_8,1,5,63,98,1290109312
81,14,7,Jits_ISO_8,2,5,80,127,1290112364
81,14,7,Jits_ISO_8,0,5,80,127,1290845472
81,14,7,Jits_ISO_8,1,1,48,63,1290907476
81,14,7,Jits_ISO_8,2,5,63,98,1290935600
81,14,7,Jits_ISO_8,3,5,56,103,1290946020
81,14,7,Jits_ISO_8,0,5,56,103,1291665648
81,14,7,Jits_ISO_8,1,5,63,98,1291676292
81,14,7,Jits_ISO_8,2,1,48,69,1291719564
81,14,7,Jits_ISO_8,3,5,80,127,1291766292
81,14,7,Jits_ISO_8,0,5,63,98,1292435772
81,14,7,Jits_ISO_8,1,5,80,127,1292465376
81,14,7,Jits_ISO_8,2,1,48,67,1292473276
81,14,7,Jits_ISO_8,3,5,56,103,1292496168
81,14,7,Jits_ISO_8,0,1,48,93,1293228920
81,14,7,Jits_ISO_8,1,5,56,103,1293235544
81,14,7,Jits_ISO_8,2,5,80,127,1293335880
81,14,7,Jits_ISO_8,3,5,63,98,1293386080
81,14,7,Jits_ISO_8,0,5,56,103,1294036236
81,14,7,Jits_ISO_8,1,1,48,76,1294081108
81,14,7,Jits_ISO_8,2,5,80,127,1294085484
81,14,7,Jits_ISO_8,3,5,63,98,1294125424
81,14,7,Jits_ISO_8,0,1,48,90,1294832992
81,14,7,Jits_ISO_8,1,5,80,127,1294865944
81,14,7,Jits_ISO_8,2,5,63,98,1294895472
81,14,7,Jits_ISO_8,3,5,56,103,1294966036
81,14,7,Jits_ISO_8,0,1,48,83,1295689596
81,14,7,Jits_ISO_8,1,5,63,98,1295696220
81,14,7,Jits_ISO_8,2,5,56,103,1295725896
81,14,7,Jits_ISO_8,3,5,80,127,1295786420
81,14,7,Jits_ISO_8,0,5,56,103,1296435628
81,14,7,Jits_ISO_8,1,5,80,127,1296438844
81,14,7,Jits_ISO_8,2,5,63,98,1296556480
81,14,7,Jits_ISO_8,3,1,48,67,1296568064
81,14,7,Jits_ISO_8,0,1,48,67,1297290896
81,14,7,Jits_ISO_8,1,5,56,103,1297316176
81,14,7,Jits_ISO_8,2,5,80,127,1297356044
81,14,7,Jits_ISO_8,3,5,63,98,1297366464
81,14,7,Jits_ISO_8,0,5,56,103,1298076116
81,14,7,Jits_ISO_8,1,5,80,127,1298095528
81,14,7,Jits_ISO_8,2,1,48,59,1298105992
81,14,7,Jits_ISO_8,3,5,63,98,1298176316
81,14,7,Jits_ISO_8,0,5,80,127,1298865500
81,14,7,Jits_ISO_8,1,1,48,59,1298908924
81,14,7,Jits_ISO_8,2,5,56,103,1298965992
81,14,7,Jits_ISO_8,3,5,63,98,1298976188
81,14,7,Jits_ISO_8,0,5,63,98,1299635488
81,14,7,Jits_ISO_8,1,5,80,127,1299696104
81,14,7,Jits_ISO_8,2,5,56,103,1299706176
81,14,7,Jits_ISO_8,3,1,48,65,1299719780
81,14,7,Jits_ISO_8,0,5,56,103,1300436312
81,14,7,Jits_ISO_8,1,1,48,69,1300449020
81,14,7,Jits_ISO_8,2,5,63,98,1300506088
81,14,7,Jits_ISO_8,3,5,80,127,1300509304
81,14,7,Jits_ISO_8,0,1,48,67,1301254456
81,14,7,Jits_ISO_8,1,5,63,98,1301266084
81,14,7,Jits_ISO_8,2,5,56,103,1301315988
81,14,7,Jits_ISO_8,3,5,80,127,1301319204
81,14,7,Jits_ISO_8,0,5,56,103,1302025632
81,14,7,Jits_ISO_8,1,5,80,127,1302028920
81,14,7,Jits_ISO_8,2,1,48,66,1302062232
81,14,7,Jits_ISO_8,3,5,63,98,1302115832
81,14,7,Jits_ISO_8,0,1,48,64,1302850248
81,14,7,Jits_ISO_8,1,5,63,98,1302866240
81,14,7,Jits_ISO_8,2,5,56,103,1302956364
81,14,7,Jits_ISO_8,3,5,80,127,1302985964
81,14,7,Jits_ISO_8,0,5,56,103,1303655772
81,14,7,Jits_ISO_8,1,1,48,62,1303666684
81,14,7,Jits_ISO_8,2,5,63,98,1303756092
81,14,7,Jits_ISO_8,3,5,80,127,1303785752
81,14,7,Jits_ISO_8,0,5,63,98,1304476104
81,14,7,Jits_ISO_8,1,5,56,103,1304486152
81,14,7,Jits_ISO_8,2,1,48,74,1304527332
81,14,7,Jits_ISO_8,3,5,80,127,1304576304
81,14,7,Jits_ISO_8,0,5,63,98,1305296196
81,14,7,Jits_ISO_8,1,1,48,64,1305309356
81,14,7,Jits_ISO_8,2,5,56,103,1305376084
81,14,7,Jits_ISO_8,3,5,80,127,1305379224
81,14,7,Jits_ISO_8,0,5,80,127,1306056040
81,14,7,Jits_ISO_8,1,5,63,98,1306075452
81,14,7,Jits_ISO_8,2,5,56,103,1306135944
81,14,7,Jits_ISO_8,3,1,48,79,1306165664
81,14,7,Jits_ISO_8,0,1,48,71,1306876436
81,14,7,Jits_ISO_8,1,5,56,103,1306896012
81,14,7,Jits_ISO_8,2,5,63,98,1306916324
81,14,7,Jits_ISO_8,3,5,80,127,1306919908
81,14,7,Jits_ISO_8,0,5,63,98,1307636132
81,14,7,Jits_ISO_8,1,1,48,62,1307695844
81,14,7,Jits_ISO_8,2,5,80,127,1307716024
81,14,7,Jits_ISO_8,3,5,56,103,1307726292
81,14,7,Jits_ISO_8,0,5,63,98,1308456392
81,14,7,Jits_ISO_8,1,5,56,103,1308475732
81,14,7,Jits_ISO_8,2,1,48,55,1308476700
81,14,7,Jits_ISO_8,3,5,80,127,1308525928
81,14,7,Jits_ISO_8,0,5,80,127,1309256028
81,14,7,Jits_ISO_8,1,1,48,72,1309271280
81,14,7,Jits_ISO_8,2,5,63,98,1309295960
81,14,7,Jits_ISO_8,3,5,56,103,1309315448
81,14,7,Jits_ISO_8,0,5,56,103,1310095908
81,14,7,Jits_ISO_8,1,5,63,98,1310106028
81,14,7,Jits_ISO_8,2,1,48,70,1310112212
81,14,7,Jits_ISO_8,3,5,80,127,1310125436
81,14,7,Jits_ISO_8,0,5,56,103,1310825952
81,14,7,Jits_ISO_8,1,1,48,70,1310903160
81,14,7,Jits_ISO_8,2,5,63,98,1310915936
81,14,7,Jits_ISO_8,3,5,80,127,1310976352
81,14,7,Jits_ISO_8,0,5,80,127,1311656244
81,14,7,Jits_ISO_8,1,5,56,103,1311665468
81,14,7,Jits_ISO_8,2,1,48,68,1311689116
81,14,7,Jits_ISO_8,3,5,63,98,1311736140
81,14,7,Jits_ISO_8,0,1,48,65,1312475112
81,14,7,Jits_ISO_8,1,5,63,98,1312485776
81,14,7,Jits_ISO_8,2,5,80,127,1312575924
81,14,7,Jits_ISO_8,3,5,56,103,1312586120
81,14,7,Jits_ISO_8,0,5,63,98,1313226084
81,14,7,Jits_ISO_8,1,5,80,127,1313276236
81,14,7,Jits_ISO_8,2,5,56,103,1313335804
81,14,7,Jits_ISO_8,3,1,48,49,1313338476
81,14,7,Jits_ISO_8,0,5,56,103,1314055632
81,14,7,Jits_ISO_8,1,1,48,69,1314098908
81,14,7,Jits_ISO_8,2,5,80,127,1314105604
81,14,7,Jits_ISO_8,3,5,63,98,1314126136
81,14,7,Jits_ISO_8,0,5,56,103,1314825680
81,14,7,Jits_ISO_8,1,1,48,67,1314863720
81,14,7,Jits_ISO_8,2,5,80,127,1314885992
81,14,7,Jits_ISO_8,3,5,63,98,1314955820
81,14,7,Jits_ISO_8,0,5,56,103,1315626300
81,14,7,Jits_ISO_8,1,1,48,71,1315634668
81,14,7,Jits_ISO_8,2,5,80,127,1315656264
81,14,7,Jits_ISO_8,3,5,63,98,1315685644
81,14,7,Jits_ISO_8,0,5,56,103,1316466100
81,14,7,Jits_ISO_8,1,1,48,68,1316467140
81,14,7,Jits_ISO_8,2,5,80,127,1316485580
81,14,7,Jits_ISO_8,3,5,63,98,1316545896
81,14,7,Jits_ISO_8,0,1,48,57,1317265572
81,14,7,Jits_ISO_8,1,5,80,127,1317345612
81,14,7,Jits_ISO_8,2,5,56,103,1317356028
81,14,7,Jits_ISO_8,3,5,63,98,1317366164
81,14,7,Jits_ISO_8,0,5,56,103,1318105700
81,14,7,Jits_ISO_8,1,1,48,71,1318118560
81,14,7,Jits_ISO_8,2,5,80,127,1318146556
81,14,7,Jits_ISO_8,3,5,63,98,1318176080
81,14,7,Jits_ISO_8,0,5,56,103,1318875456
81,14,7,Jits_ISO_8,1,5,63,98,1318906132
81,14,7,Jits_ISO_8,2,1,48,80,1318908072
81,14,7,Jits_ISO_8,3,5,80,127,1318946284
81,14,7,Jits_ISO_8,0,5,80,127,1319626104
81,14,7,Jits_ISO_8,1,5,63,98,1319676480
81,14,7,Jits_ISO_8,2,1,48,64,1319693776
81,14,7,Jits_ISO_8,3,5,56,103,1319695592
81,14,7,Jits_ISO_8,0,5,56,103,1320455520
81,14,7,Jits_ISO_8,1,1,48,66,1320483200
81,14,7,Jits_ISO_8,2,5,80,127,1320526168
81,14,7,Jits_ISO_8,3,5,63,98,1320585572
81,14,7,Jits_ISO_8,0,5,80,127,1321256512
81,14,7,Jits_ISO_8,1,1,48,71,1321266004
81,14,7,Jits_ISO_8,2,5,63,98,1321346496
81,14,7,Jits_ISO_8,3,5,56,103,1321365740
81,14,7,Jits_ISO_8,0,5,63,98,1322075496
81,14,7,Jits_ISO_8,1,5,56,103,1322095956
81,14,7,Jits_ISO_8,2,1,48,79,1322130616
81,14,7,Jits_ISO_8,3,5,80,127,1322135964
81,14,7,Jits_ISO_8,0,5,80,127,1322836464
81,14,7,Jits_ISO_8,1,5,63,98,1322855876
81,14,7,Jits_ISO_8,2,1,48,65,1322899376
81,14,7,Jits_ISO_8,3,5,56,103,1322935592
81,14,7,Jits_ISO_8,0,5,63,98,1323625924
81,14,7,Jits_ISO_8,1,1,48,70,1323680584
81,14,7,Jits_ISO_8,2,5,56,103,1323736352
81,14,7,Jits_ISO_8,3,5,80,127,1323739420
81,14,7,Jits_ISO_8,0,5,63,98,1324446148
81,14,7,Jits_ISO_8,1,1,48,71,1324447264
81,14,7,Jits_ISO_8,2,5,56,103,1324456408
81,14,7,Jits_ISO_8,3,5,80,127,1324459552
81,14,7,Jits_ISO_8,0,5,56,103,1325226360
81,14,7,Jits_ISO_8,1,1,48,76,1325237796
81,14,7,Jits_ISO_8,2,5,80,127,1325346240
81,14,7,Jits_ISO_8,3,5,63,98,1325385956
81,14,7,Jits_ISO_8,0,1,48,70,1326038932
81,14,7,Jits_ISO_8,1,5,56,103,1326045560
81,14,7,Jits_ISO_8,2,5,80,127,1326125532
81,14,7,Jits_ISO_8,3,5,63,98,1326145900
81,14,7,Jits_ISO_8,0,5,56,103,1326846420
81,14,7,Jits_ISO_8,1,1,48,69,1326871188
81,14,7,Jits_ISO_8,2,5,63,98,1326955880
81,14,7,Jits_ISO_8,3,5,80,127,1326959468
81,14,7,Jits_ISO_8,0,5,56,103,1327675736
81,14,7,Jits_ISO_8,1,1,48,78,1327678780
81,14,7,Jits_ISO_8,2,5,80,127,1327705332
81,14,7,Jits_ISO_8,3,5,63,98,1327725864
81,14,7,Jits_ISO_8,0,1,48,71,1328451292
81,14,7,Jits_ISO_8,1,5,63,98,1328456344
81,14,7,Jits_ISO_8,2,5,56,103,1328466240
81,14,7,Jits_ISO_8,3,5,80,127,1328475392
81,14,7,Jits_ISO_8,0,1,48,81,1329242072
81,14,7,Jits_ISO_8,1,5,80,127,1329245632
81,14,7,Jits_ISO_8,2,5,56,103,1329295688
81,14,7,Jits_ISO_8,3,5,63,98,1329335624
81,14,7,Jits_ISO_8,0,1,48,61,1330061260
81,14,7,Jits_ISO_8,1,5,80,127,1330065720
81,14,7,Jits_ISO_8,2,5,63,98,1330086548
81,14,7,Jits_ISO_8,3,5,56,103,1330136380
81,14,7,Jits_ISO_8,0,5,80,127,1330875696
81,14,7,Jits_ISO_8,1,1,48,78,1330905448
81,14,7,Jits_ISO_8,2,5,56,103,1330906712
81,14,7,Jits_ISO_8,3,5,63,98,1330976192
81,14,7,Jits_ISO_8,0,1,48,69,1331671636
81,14,7,Jits_ISO_8,1,5,56,103,1331725640
81,14,7,Jits_ISO_8,2,5,80,127,1331735912
81,14,7,Jits_ISO_8,3,5,63,98,1331775836
81,14,7,Jits_ISO_8,0,5,56,103,1332436400
81,14,7,Jits_ISO_8,1,5,63,98,1332455664
81,14,7,Jits_ISO_8,2,5,80,127,1332525596
81,14,7,Jits_ISO_8,3,1,48,81,1332569316
81,14,7,Jits_ISO_8,0,5,63,98,1333255548
81,14,7,Jits_ISO_8,1,1,48,76,1333313276
81,14,7,Jits_ISO_8,2,5,80,127,1333316084
81,14,7,Jits_ISO_8,3,5,56,103,1333336396
81,14,7,Jits_ISO_8,0,5,80,127,1334046116
81,14,7,Jits_ISO_8,1,1,48,77,1334069392
81,14,7,Jits_ISO_8,2,5,56,103,1334075712
81,14,7,Jits_ISO_8,3,5,63,98,1334105388
81,14,7,Jits_ISO_8,0,5,56,103,1334845760
81,14,7,Jits_ISO_8,1,1,48,82,1334854428
81,14,7,Jits_ISO_8,2,5,63,98,1334906368
81,14,7,Jits_ISO_8,3,5,80,127,1334965548
81,14,7,Jits_ISO_8,0,5,80,127,1335666160
81,14,7,Jits_ISO_8,1,1,48,79,1335675132
81,14,7,Jits_ISO_8,2,5,56,103,1335685420
81,14,7,Jits_ISO_8,3,5,63,98,1335756296
81,14,7,Jits_ISO_8,0,5,80,127,1336465664
81,14,7,Jits_ISO_8,1,5,63,98,1336486196
81,14,7,Jits_ISO_8,2,1,48,78,1336506324
81,14,7,Jits_ISO_8,3,5,56,103,1336516236
81,14,7,Jits_ISO_8,0,5,80,127,1337256240
81,14,7,Jits_ISO_8,1,5,63,98,1337275652
81,14,7,Jits_ISO_8,2,1,48,77,1337293368
81,14,7,Jits_ISO_8,3,5,56,103,1337336432
81,14,7,Jits_ISO_8,0,5,80,127,1338056036
81,14,7,Jits_ISO_8,1,1,48,68,1338113952
81,14,7,Jits_ISO_8,2,5,56,103,1338156532
81,14,7,Jits_ISO_8,3,5,63,98,1338186204
81,14,7,Jits_ISO_8,0,5,63,98,1338845572
81,14,7,Jits_ISO_8,1,5,80,127,1338895728
81,14,7,Jits_ISO_8,2,5,56,103,1338916260
81,14,7,Jits_ISO_8,3,1,48,86,1338922744
81,14,7,Jits_ISO_8,0,5,80,127,1339686212
81,14,7,Jits_ISO_8,1,1,48,74,1339707240
81,14,7,Jits_ISO_8,2,5,56,103,1339716184
81,14,7,Jits_ISO_8,3,5,63,98,1339719320
81,14,7,Jits_ISO_8,0,5,63,98,1340515748
81,14,7,Jits_ISO_8,1,1,48,86,1340518572
81,14,7,Jits_ISO_8,2,5,56,103,1340555608
81,14,7,Jits_ISO_8,3,5,80,127,1340576068
81,14,7,Jits_ISO_8,0,5,80,127,1341256124
81,14,7,Jits_ISO_8,1,1,48,76,1341331984
81,14,7,Jits_ISO_8,2,5,63,98,1341336212
81,14,7,Jits_ISO_8,3,5,56,103,1341376004
81,14,7,Jits_ISO_8,0,5,63,98,1342076156
81,14,7,Jits_ISO_8,1,1,48,85,1342136140
81,14,7,Jits_ISO_8,2,5,80,127,1342156244
81,14,7,Jits_ISO_8,3,5,56,103,1342175580
81,14,7,Jits_ISO_8,0,5,56,103,1342916248
81,14,7,Jits_ISO_8,1,5,63,98,1342926372
81,14,7,Jits_ISO_8,2,1,48,66,1342935788
81,14,7,Jits_ISO_8,3,5,80,127,1342966104
81,14,7,Jits_ISO_8,0,5,56,103,1343635808
81,14,7,Jits_ISO_8,1,5,80,127,1343638948
81,14,7,Jits_ISO_8,2,1,48,78,1343725084
81,14,7,Jits_ISO_8,3,5,63,98,1343776152
81,14,7,Jits_ISO_8,0,5,56,103,1344426376
81,14,7,Jits_ISO_8,1,1,48,73,1344432860
81,14,7,Jits_ISO_8,2,5,63,98,1344515560
81,14,7,Jits_ISO_8,3,5,80,127,1344586124
81,14,7,Jits_ISO_8,0,1,48,82,1345270144
81,14,7,Jits_ISO_8,1,5,63,98,1345306060
81,14,7,Jits_ISO_8,2,5,80,127,1345309496
81,14,7,Jits_ISO_8,3,5,56,103,1345366288
81,14,7,Jits_ISO_8,0,1,48,82,1346145928
81,14,7,Jits_ISO_8,1,5,80,127,1346147116
81,14,7,Jits_ISO_8,2,5,56,103,1346166084
81,14,7,Jits_ISO_8,3,5,63,98,1346176356
81,14,7,Jits_ISO_8,0,5,56,103,1346856408
81,14,7,Jits_ISO_8,1,5,63,98,1346865484
81,14,7,Jits_ISO_8,2,5,80,127,1346936060
81,14,7,Jits_ISO_8,3,1,48,89,1347002924
81,14,7,Jits_ISO_8,0,5,80,127,1347656052
81,14,7,Jits_ISO_8,1,5,56,103,1347706256
81,14,7,Jits_ISO_8,2,5,63,98,1347756308
81,14,7,Jits_ISO_8,3,1,48,84,1347758396
81,14,7,Jits_ISO_8,0,5,56,103,1348535644
81,14,7,Jits_ISO_8,1,5,63,98,1348546136
81,14,7,Jits_ISO_8,2,1,48,89,1348555552
81,14,7,Jits_ISO_8,3,5,80,127,1348585772
81,14,7,Jits_ISO_8,0,5,56,103,1349275956
81,14,7,Jits_ISO_8,1,5,63,98,1349315824
81,14,7,Jits_ISO_8,2,5,80,127,1349366052
81,14,7,Jits_ISO_8,3,1,48,82,1349370068
81,14,7,Jits_ISO_8,0,5,80,127,1350036048
81,14,7,Jits_ISO_8,1,5,56,103,1350085952
81,14,7,Jits_ISO_8,2,5,63,98,1350105812
81,14,7,Jits_ISO_8,3,1,48,82,1350154364
81,14,7,Jits_ISO_8,0,5,80,127,1350845960
81,14,7,Jits_ISO_8,1,5,63,98,1350906156
81,14,7,Jits_ISO_8,2,1,48,82,1350920288
81,14,7,Jits_ISO_8,3,5,56,103,1350986240
81,14,7,Jits_ISO_8,0,5,80,127,1351626128
81,14,7,Jits_ISO_8,1,5,56,103,1351666068
81,14,7,Jits_ISO_8,2,5,63,98,1351685408
81,14,7,Jits_ISO_8,3,1,48,70,1351737672
81,14,7,Jits_ISO_8,0,5,56,103,1352475972
81,14,7,Jits_ISO_8,1,5,80,127,1352486244
81,14,7,Jits_ISO_8,2,1,48,82,1352522996
81,14,7,Jits_ISO_8,3,5,63,98,1352526324
81,14,7,Jits_ISO_8,0,1,48,70,1353303840
81,14,7,Jits_ISO_8,1,5,56,103,1353346568
81,14,7,Jits_ISO_8,2,5,63,98,1353386432
81,14,7,Jits_ISO_8,3,5,80,127,1353389868
81,14,7,Jits_ISO_8,0,5,63,98,1354035624
81,14,7,Jits_ISO_8,1,5,80,127,1354075636
81,14,7,Jits_ISO_8,2,1,48,83,1354137044
81,14,7,Jits_ISO_8,3,5,56,103,1354146284
81,14,7,Jits_ISO_8,0,5,63,98,1354826108
81,14,7,Jits_ISO_8,1,5,56,103,1354905908
81,14,7,Jits_ISO_8,2,1,48,83,1354919736
81,14,7,Jits_ISO_8,3,5,80,127,1354966292
81,14,7,Jits_ISO_8,0,5,80,127,1355636008
81,14,7,Jits_ISO_8,1,1,48,63,1355672084
81,14,7,Jits_ISO_8,2,5,63,98,1355686204
81,14,7,Jits_ISO_8,3,5,56,103,1355715956
81,14,7,Jits_ISO_8,0,5,56,103,1356425832
81,14,7,Jits_ISO_8,1,1,48,73,1356468292
81,14,7,Jits_ISO_8,2,5,63,98,1356475732
81,14,7,Jits_ISO_8,3,5,80,127,1356485928
81,14,7,Jits_ISO_8,0,1,48,70,1357218028
81,14,7,Jits_ISO_8,1,5,56,103,1357235808
81,14,7,Jits_ISO_8,2,5,63,98,1357346332
81,14,7,Jits_ISO_8,3,5,80,127,1357365892
81,14,7,Jits_ISO_8,0,1,48,74,1358032484
81,14,7,Jits_ISO_8,1,5,63,98,1358036192
81,14,7,Jits_ISO_8,2,5,80,127,1358085600
81,14,7,Jits_ISO_8,3,5,56,103,1358175788
81,14,7,Jits_ISO_8,0,5,63,98,1358825716
81,14,7,Jits_ISO_8,1,5,80,127,1358855492
81,14,7,Jits_ISO_8,2,1,48,84,1358879064
81,14,7,Jits_ISO_8,3,5,56,103,1358945988
81,14,7,Jits_ISO_8,0,5,63,98,1359625820
81,14,7,Jits_ISO_8,1,5,56,103,1359635792
81,14,7,Jits_ISO_8,2,1,48,71,1359679064
81,14,7,Jits_ISO_8,3,5,80,127,1359736032
81,14,7,Jits_ISO_8,0,1,48,57,1360459880
81,14,7,Jits_ISO_8,1,5,63,98,1360525768
81,14,7,Jits_ISO_8,2,5,80,127,1360556344
81,14,7,Jits_ISO_8,3,5,56,103,1360586228
81,14,7,Jits_ISO_8,0,1,48,70,1361275264
81,14,7,Jits_ISO_8,1,5,80,127,1361345936
81,14,7,Jits_ISO_8,2,5,63,98,1361356132
81,14,7,Jits_ISO_8,3,5,56,103,1361385944
81,14,7,Jits_ISO_8,0,5,80,127,1362046236
81,14,7,Jits_ISO_8,1,5,63,98,1362065872
81,14,7,Jits_ISO_8,2,5,56,103,1362115928
81,14,7,Jits_ISO_8,3,1,48,73,1362118824
81,14,7,Jits_ISO_8,0,5,63,98,1362875924
81,14,7,Jits_ISO_8,1,1,48,80,1362883700
81,14,7,Jits_ISO_8,2,5,80,127,1362936112
81,14,7,Jits_ISO_8,3,5,56,103,1362955824
81,14,7,Jits_ISO_8,0,5,63,98,1363635780
81,14,7,Jits_ISO_8,1,5,56,103,1363685832
81,14,7,Jits_ISO_8,2,5,80,127,1363695956
81,14,7,Jits_ISO_8,3,1,48,81,1363721768
81,14,7,Jits_ISO_8,0,5,56,103,1364466272
81,14,7,Jits_ISO_8,1,5,80,127,1364476616
81,14,7,Jits_ISO_8,2,1,48,82,1364477512
81,14,7,Jits_ISO_8,3,5,63,98,1364575736
81,14,7,Jits_ISO_8,0,5,80,127,1365225740
81,14,7,Jits_ISO_8,1,5,63,98,1365236036
81,14,7,Jits_ISO_8,2,1,48,77,1365284484
81,14,7,Jits_ISO_8,3,5,56,103,1365385776
81,14,7,Jits_ISO_8,0,5,63,98,1366035744
81,14,7,Jits_ISO_8,1,1,48,77,1366067268
81,14,7,Jits_ISO_8,2,5,80,127,1366075756
81,14,7,Jits_ISO_8,3,5,56,103,1366155624
81,14,7,Jits_ISO_8,0,5,56,103,1366826460
81,14,7,Jits_ISO_8,1,1,48,78,1366847788
81,14,7,Jits_ISO_8,2,5,80,127,1366925580
81,14,7,Jits_ISO_8,3,5,63,98,1366946100
81,14,7,Jits_ISO_8,0,1,48,91,1367628024
81,14,7,Jits_ISO_8,1,5,80,127,1367685664
81,14,7,Jits_ISO_8,2,5,56,103,1367695936
81,14,7,Jits_ISO_8,3,5,63,98,1367785828
81,14,7,Jits_ISO_8,0,1,48,74,1368428856
81,14,7,Jits_ISO_8,1,5,56,103,1368486348
81,14,7,Jits_ISO_8,2,5,63,98,1368505688
81,14,7,Jits_ISO_8,3,5,80,127,1368585644
81,14,7,Jits_ISO_8,0,5,63,98,1369235792
81,14,7,Jits_ISO_8,1,1,48,81,1369263644
81,14,7,Jits_ISO_8,2,5,56,103,1369325840
81,14,7,Jits_ISO_8,3,5,80,127,1369328988
81,14,7,Jits_ISO_8,0,5,56,103,1370066508
81,14,7,Jits_ISO_8,1,1,48,86,1370093444
81,14,7,Jits_ISO_8,2,5,80,127,1370125796
81,14,7,Jits_ISO_8,3,5,63,98,1370135920
81,14,7,Jits_ISO_8,0,1,48,90,1370882996
81,14,7,Jits_ISO_8,1,5,80,127,1370916448
81,14,7,Jits_ISO_8,2,5,56,103,1370925520
81,14,7,Jits_ISO_8,3,5,63,98,1370928516
81,14,7,Jits_ISO_8,0,5,56,103,1371676148
81,14,7,Jits_ISO_8,1,5,80,127,1371686344
81,14,7,Jits_ISO_8,2,1,48,92,1371701520
81,14,7,Jits_ISO_8,3,5,63,98,1371705748
81,14,7,Jits_ISO_8,0,5,63,98,1372445976
81,14,7,Jits_ISO_8,1,1,48,70,1372505840
81,14,7,Jits_ISO_8,2,5,80,127,1372507032
81,14,7,Jits_ISO_8,3,5,56,103,1372555588
81,14,7,Jits_ISO_8,0,1,48,84,1373294576
81,14,7,Jits_ISO_8,1,5,63,98,1373325768
81,14,7,Jits_ISO_8,2,5,56,103,1373335892
81,14,7,Jits_ISO_8,3,5,80,127,1373386672
81,14,7,Jits_ISO_8,0,5,63,98,1374026288
81,14,7,Jits_ISO_8,1,5,80,127,1374045480
81,14,7,Jits_ISO_8,2,5,56,103,1374055900
81,14,7,Jits_ISO_8,3,1,48,77,1374113324
81,14,7,Jits_ISO_8,0,5,63,98,1374825912
81,14,7,Jits_ISO_8,1,5,80,127,1374829276
81,14,7,Jits_ISO_8,2,5,56,103,1374865776
81,14,7,Jits_ISO_8,3,1,48,73,1374884332
81,14,7,Jits_ISO_8,0,1,48,71,1375656368
81,14,7,Jits_ISO_8,1,5,63,98,1375696252
81,14,7,Jits_ISO_8,2,5,80,127,1375725928
81,14,7,Jits_ISO_8,3,5,56,103,1375736444
81,14,7,Jits_ISO_8,0,5,56,103,1376445696
81,14,7,Jits_ISO_8,1,5,80,127,1376475448
81,14,7,Jits_ISO_8,2,5,63,98,1376506196
81,14,7,Jits_ISO_8,3,1,48,91,1376510880
81,14,7,Jits_ISO_8,0,1,48,65,1377301816
81,14,7,Jits_ISO_8,1,5,63,98,1377345904
81,14,7,Jits_ISO_8,2,5,56,103,1377385688
81,14,7,Jits_ISO_8,3,5,80,127,1377388836
81,14,7,Jits_ISO_8,0,5,80,127,1378046492
81,14,7,Jits_ISO_8,1,1,48,67,1378096296
81,14,7,Jits_ISO_8,2,5,56,103,1378126360
81,14,7,Jits_ISO_8,3,5,63,98,1378176488
81,14,7,Jits_ISO_8,0,5,80,127,1378825468
81,14,7,Jits_ISO_8,1,5,56,103,1378846148
81,14,7,Jits_ISO_8,2,1,48,87,1378905084
81,14,7,Jits_ISO_8,3,5,63,98,1378936424
81,14,7,Jits_ISO_8,0,5,80,127,1379666456
81,14,7,Jits_ISO_8,1,1,48,78,1379697004
81,14,7,Jits_ISO_8,2,5,63,98,1379706316
81,14,7,Jits_ISO_8,3,5,56,103,1379746328
81,14,7,Jits_ISO_8,0,5,63,98,1380436436
81,14,7,Jits_ISO_8,1,5,80,127,1380495856
81,14,7,Jits_ISO_8,2,1,48,88,1380514868
81,14,7,Jits_ISO_8,3,5,56,103,1380525524
81,14,7,Jits_ISO_8,0,5,56,103,1381236364
81,14,7,Jits_ISO_8,1,5,80,127,1381265744
81,14,7,Jits_ISO_8,2,1,48,85,1381332832
81,14,7,Jits_ISO_8,3,5,63,98,1381355868
81,14,7,Jits_ISO_8,0,5,56,103,1382046276
81,14,7,Jits_ISO_8,1,1,48,78,1382113464
81,14,7,Jits_ISO_8,2,5,80,127,1382155612
81,14,7,Jits_ISO_8,3,5,63,98,1382186332
81,14,7,Jits_ISO_8,0,5,56,103,1382896128
81,14,7,Jits_ISO_8,1,1,48,79,1382911108
81,14,7,Jits_ISO_8,2,5,63,98,1382956536
81,14,7,Jits_ISO_8,3,5,80,127,1382986284
81,14,7,Jits_ISO_8,0,5,56,103,1383666060
81,14,7,Jits_ISO_8,1,1,48,88,1383701988
81,14,7,Jits_ISO_8,2,5,63,98,1383735660
81,14,7,Jits_ISO_8,3,5,80,127,1383756416
81,14,7,Jits_ISO_8,0,5,80,127,1384436336
81,14,7,Jits_ISO_8,1,5,63,98,1384455524
81,14,7,Jits_ISO_8,2,1,48,79,1384478872
81,14,7,Jits_ISO_8,3,5,56,103,1384505648
81,14,7,Jits_ISO_8,0,9999,9999,9999,1289703484
81,14,7,Jits_ISO_8,1,9999,9999,9999,1290503288
81,14,7,Jits_ISO_8,2,9999,9999,9999,1291304028
81,14,7,Jits_ISO_8,3,9999,9999,9999,1292103752
81,14,7,Jits_ISO_8,4,9999,9999,9999,1292903544
81,14,7,Jits_ISO_8,5,9999,9999,9999,1293703252
81,14,7,Jits_ISO_8,6,9999,9999,9999,1294504008
81,14,7,Jits_ISO_8,7,9999,9999,9999,1295303732
81,14,7,Jits_ISO_8,8,9999,9999,9999,1296103520
81,14,7,Jits_ISO_8,9,9999,9999,9999,1296903244
81,14,7,Jits_ISO_8,10,9999,9999,9999,1297704024
81,14,7,Jits_ISO_8,11,9999,9999,9999,1298503732
81,14,7,Jits_ISO_8,12,9999,9999,9999,1299303536
81,14,7,Jits_ISO_8,13,9999,9999,9999,1300103260
81,14,7,Jits_ISO_8,14,9999,9999,9999,1300904000
81,14,7,Jits_ISO_8,15,9999,9999,9999,1301703788
81,14,7,Jits_ISO_8,16,9999,9999,9999,1302503484
81,14,7,Jits_ISO_8,17,9999,9999,9999,1303303236
81,14,7,Jits_ISO_8,18,9999,9999,9999,1304103996
81,14,7,Jits_ISO_8,19,9999,9999,9999,1304903796
81,14,7,Jits_ISO_8,20,9999,9999,9999,1305703504
81,14,7,Jits_ISO_8,21,9999,9999,9999,1306503288
81,14,7,Jits_ISO_8,22,9999,9999,9999,1307304048
81,14,7,Jits_ISO_8,23,9999,9999,9999,1308103756
81,14,7,Jits_ISO_8,24,9999,9999,9999,1308903540
81,14,7,Jits_ISO_8,25,9999,9999,9999,1309703272
81,14,7,Jits_ISO_8,26,9999,9999,9999,1310504044
81,14,7,Jits_ISO_8,27,9999,9999,9999,1311303772
81,14,7,Jits_ISO_8,28,9999,9999,9999,1312103492
81,14,7,Jits_ISO_8,29,9999,9999,9999,1312903220
81,14,7,Jits_ISO_8,30,9999,9999,9999,1313704044
81,14,7,Jits_ISO_8,31,9999,9999,9999,1314503752
81,14,7,Jits_ISO_8,32,9999,9999,9999,1315303544
81,14,7,Jits_ISO_8,33,9999,9999,9999,1316103284
81,14,7,Jits_ISO_8,34,9999,9999,9999,1316904056
81,14,7,Jits_ISO_8,35,9999,9999,9999,1317703788
81,14,7,Jits_ISO_8,36,9999,9999,9999,1318503504
81,14,7,Jits_ISO_8,37,9999,9999,9999,1319303224
81,14,7,Jits_ISO_8,38,9999,9999,9999,1320103988
81,14,7,Jits_ISO_8,39,9999,9999,9999,1320903788
81,14,7,Jits_ISO_8,40,9999,9999,9999,1321703516
81,14,7,Jits_ISO_8,41,9999,9999,9999,1322503264
81,14,7,Jits_ISO_8,42,9999,9999,9999,1323304016
81,14,7,Jits_ISO_8,43,9999,9999,9999,1324103804
81,14,7,Jits_ISO_8,44,9999,9999,9999,1324903492
81,14,7,Jits_ISO_8,45,9999,9999,9999,1325703280
81,14,7,Jits_ISO_8,46,9999,9999,9999,1326504048
81,14,7,Jits_ISO_8,47,9999,9999,9999,1327303752
81,14,7,Jits_ISO_8,48,9999,9999,9999,1328103476
81,14,7,Jits_ISO_8,49,9999,9999,9999,1328903220
81,14,7,Jits_ISO_8,50,9999,9999,9999,1329704044
81,14,7,Jits_ISO_8,51,9999,9999,9999,1330503752
81,14,7,Jits_ISO_8,52,9999,9999,9999,1331303540
81,14,7,Jits_ISO_8,53,9999,9999,9999,1332103272
81,14,7,Jits_ISO_8,54,9999,9999,9999,1332904024
81,14,7,Jits_ISO_8,55,9999,9999,9999,1333703744
81,14,7,Jits_ISO_8,56,9999,9999,9999,1334503524
81,14,7,Jits_ISO_8,57,9999,9999,9999,1335303272
81,14,7,Jits_ISO_8,58,9999,9999,9999,1336104044
81,14,7,Jits_ISO_8,59,9999,9999,9999,1336903764
81,14,7,Jits_ISO_8,60,9999,9999,9999,1337703484
81,14,7,Jits_ISO_8,61,9999,9999,9999,1338503288
81,14,7,Jits_ISO_8,62,9999,9999,9999,1339304052
81,14,7,Jits_ISO_8,63,9999,9999,9999,1340103756
81,14,7,Jits_ISO_8,64,9999,9999,9999,1340903488
81,14,7,Jits_ISO_8,65,9999,9999,9999,1341703224
81,14,7,Jits_ISO_8,66,9999,9999,9999,1342504000
81,14,7,Jits_ISO_8,67,9999,9999,9999,1343303788
81,14,7,Jits_ISO_8,68,9999,9999,9999,1344103500
81,14,7,Jits_ISO_8,69,9999,9999,9999,1344903220
81,14,7,Jits_ISO_8,70,9999,9999,9999,1345704056
81,14,7,Jits_ISO_8,71,9999,9999,9999,1346503776
81,14,7,Jits_ISO_8,72,9999,9999,9999,1347303476
81,14,7,Jits_ISO_8,73,9999,9999,9999,1348103224
81,14,7,Jits_ISO_8,74,9999,9999,9999,1348904000
81,14,7,Jits_ISO_8,75,9999,9999,9999,1349703804
81,14,7,Jits_ISO_8,76,9999,9999,9999,1350503524
81,14,7,Jits_ISO_8,77,9999,9999,9999,1351303252
81,14,7,Jits_ISO_8,78,9999,9999,9999,1352103988
81,14,7,Jits_ISO_8,79,9999,9999,9999,1352903788
81,14,7,Jits_ISO_8,80,9999,9999,9999,1353703516
81,14,7,Jits_ISO_8,81,9999,9999,9999,1354503248
81,14,7,Jits_ISO_8,82,9999,9999,9999,1355304000
81,14,7,Jits_ISO_8,83,9999,9999,9999,1356103780
81,14,7,Jits_ISO_8,84,9999,9999,9999,1356903496
81,14,7,Jits_ISO_8,85,9999,9999,9999,1357703220
81,14,7,Jits_ISO_8,86,9999,9999,9999,1358504048
81,14,7,Jits_ISO_8,87,9999,9999,9999,1359303752
81,14,7,Jits_ISO_8,88,9999,9999,9999,1360103532
81,14,7,Jits_ISO_8,89,9999,9999,9999,1360903276
81,14,7,Jits_ISO_8,90,9999,9999,9999,1361704040
81,14,7,Jits_ISO_8,91,9999,9999,9999,1362503744
81,14,7,Jits_ISO_8,92,9999,9999,9999,1363303548
81,14,7,Jits_ISO_8,93,9999,9999,9999,1364103228
81,14,7,Jits_ISO_8,94,9999,9999,9999,1364904056
81,14,7,Jits_ISO_8,95,9999,9999,9999,1365703776
81,14,7,Jits_ISO_8,96,9999,9999,9999,1366503496
81,14,7,Jits_ISO_8,97,9999,9999,9999,1367303228
81,14,7,Jits_ISO_8,98,9999,9999,9999,1368104000
81,14,7,Jits_ISO_8,99,9999,9999,9999,1368903788
81,14,7,Jits_ISO_8,100,9999,9999,9999,1369703484
81,14,7,Jits_ISO_8,101,9999,9999,9999,1370503268
81,14,7,Jits_ISO_8,102,9999,9999,9999,1371304032
81,14,7,Jits_ISO_8,103,9999,9999,9999,1372103736
81,14,7,Jits_ISO_8,104,9999,9999,9999,1372903536
81,14,7,Jits_ISO_8,105,9999,9999,9999,1373703276
81,14,7,Jits_ISO_8,106,9999,9999,9999,1374504024
81,14,7,Jits_ISO_8,107,9999,9999,9999,1375303788
81,14,7,Jits_ISO_8,108,9999,9999,9999,1376103500
81,14,7,Jits_ISO_8,109,9999,9999,9999,1376903276
81,14,7,Jits_ISO_8,110,9999,9999,9999,1377704048
81,14,7,Jits_ISO_8,111,9999,9999,9999,1378503760
81,14,7,Jits_ISO_8,112,9999,9999,9999,1379303476
81,14,7,Jits_ISO_8,113,9999,9999,9999,1380103220
81,14,7,Jits_ISO_8,114,9999,9999,9999,1380904060
81,14,7,Jits_ISO_8,115,9999,9999,9999,1381703764
81,14,7,Jits_ISO_8,116,9999,9999,9999,1382503492
81,14,7,Jits_ISO_8,117,9999,9999,9999,1383303220
81,14,7,Jits_ISO_8,118,9999,9999,9999,1384103992
81,14,7,Jits_ISO_8,119,9999,9999,9999,1384903784
81,15,16,Jits_ISO_5,0,5,56,103,1395180084
81,15,16,Jits_ISO_5,1,5,63,98,1395183028
81,15,16,Jits_ISO_5,2,5,80,127,1395186176
81,15,16,Jits_ISO_5,0,5,56,103,1395679580
81,15,16,Jits_ISO_5,1,5,63,98,1395682676
81,15,16,Jits_ISO_5,2,5,80,127,1395685948
81,15,16,Jits_ISO_5,0,5,56,103,1396180216
81,15,16,Jits_ISO_5,1,5,80,127,1396189588
81,15,16,Jits_ISO_5,2,5,63,98,1396209920
81,15,16,Jits_ISO_5,0,5,63,98,1396629908
81,15,16,Jits_ISO_5,1,5,80,127,1396659580
81,15,16,Jits_ISO_5,2,5,56,103,1396670148
81,15,16,Jits_ISO_5,3,1,48,65,1396674388
81,15,16,Jits_ISO_5,0,1,48,83,1397126072
81,15,16,Jits_ISO_5,1,5,80,127,1397190088
81,15,16,Jits_ISO_5,2,5,56,103,1397200136
81,15,16,Jits_ISO_5,3,5,63,98,1397230092
81,15,16,Jits_ISO_5,0,1,48,79,1397641924
81,15,16,Jits_ISO_5,1,5,63,98,1397679560
81,15,16,Jits_ISO_5,2,5,56,103,1397710284
81,15,16,Jits_ISO_5,3,5,80,127,1397720404
81,15,16,Jits_ISO_5,0,5,56,103,1398130004
81,15,16,Jits_ISO_5,1,1,48,75,1398165860
81,15,16,Jits_ISO_5,2,5,63,98,1398180200
81,15,16,Jits_ISO_5,3,5,80,127,1398199688
81,15,16,Jits_ISO_5,0,5,80,127,1398629900
81,15,16,Jits_ISO_5,1,1,48,80,1398649960
81,15,16,Jits_ISO_5,2,5,63,98,1398679872
81,15,16,Jits_ISO_5,3,5,56,103,1398719808
81,15,16,Jits_ISO_5,0,5,56,103,1399129576
81,15,16,Jits_ISO_5,1,1,48,80,1399158940
81,15,16,Jits_ISO_5,2,5,63,98,1399160440
81,15,16,Jits_ISO_5,3,5,80,127,1399229816
81,15,16,Jits_ISO_5,0,5,56,103,1399630296
81,15,16,Jits_ISO_5,1,1,48,75,1399644500
81,15,16,Jits_ISO_5,2,5,80,127,1399689856
81,15,16,Jits_ISO_5,3,5,63,98,1399720352
81,15,16,Jits_ISO_5,0,1,48,72,1400138340
81,15,16,Jits_ISO_5,1,5,56,103,1400140080
81,15,16,Jits_ISO_5,2,5,63,98,1400150496
81,15,16,Jits_ISO_5,3,5,80,127,1400190284
81,15,16,Jits_ISO_5,0,5,63,98,1400629924
81,15,16,Jits_ISO_5,1,1,48,72,1400636256
81,15,16,Jits_ISO_5,2,5,80,127,1400709636
81,15,16,Jits_ISO_5,3,5,56,103,1400719908
81,15,16,Jits_ISO_5,0,1,48,76,1401135688
81,15,16,Jits_ISO_5,1,5,63,98,1401179476
81,15,16,Jits_ISO_5,2,5,56,103,1401219332
81,15,16,Jits_ISO_5,3,5,80,127,1401222552
81,15,16,Jits_ISO_5,0,1,48,69,1401637288
81,15,16,Jits_ISO_5,1,5,56,103,1401640316
81,15,16,Jits_ISO_5,2,5,63,98,1401649468
81,15,16,Jits_ISO_5,3,5,80,127,1401689328
81,15,16,Jits_ISO_5,0,5,56,103,1402129936
81,15,16,Jits_ISO_5,1,5,63,98,1402132928
81,15,16,Jits_ISO_5,2,1,48,69,1402147208
81,15,16,Jits_ISO_5,3,5,80,127,1402150312
81,15,16,Jits_ISO_5,0,1,48,76,1402600096
81,15,16,Jits_ISO_5,1,5,80,127,1402639780
81,15,16,Jits_ISO_5,2,5,56,103,1402649900
81,15,16,Jits_ISO_5,3,5,63,98,1402719712
81,15,16,Jits_ISO_5,0,1,48,69,1403093604
81,15,16,Jits_ISO_5,1,5,63,98,1403130296
81,15,16,Jits_ISO_5,2,5,56,103,1403149784
81,15,16,Jits_ISO_5,3,5,80,127,1403229560
81,15,16,Jits_ISO_5,0,1,48,73,1403604720
81,15,16,Jits_ISO_5,1,5,56,103,1403640144
81,15,16,Jits_ISO_5,2,5,80,127,1403680004
81,15,16,Jits_ISO_5,3,5,63,98,1403690500
81,15,16,Jits_ISO_5,0,1,48,68,1404105200
81,15,16,Jits_ISO_5,1,5,80,127,1404129808
81,15,16,Jits_ISO_5,2,5,63,98,1404160332
81,15,16,Jits_ISO_5,3,5,56,103,1404200268
81,15,16,Jits_ISO_5,0,1,48,72,1404610188
81,15,16,Jits_ISO_5,1,5,56,103,1404649772
81,15,16,Jits_ISO_5,2,5,63,98,1404679768
81,15,16,Jits_ISO_5,3,5,80,127,1404729656
81,15,16,Jits_ISO_5,0,1,48,78,1405102428
81,15,16,Jits_ISO_5,1,5,80,127,1405159696
81,15,16,Jits_ISO_5,2,5,56,103,1405199868
81,15,16,Jits_ISO_5,3,5,63,98,1405209988
81,15,16,Jits_ISO_5,0,1,48,74,1405616988
81,15,16,Jits_ISO_5,1,5,80,127,1405640024
81,15,16,Jits_ISO_5,2,5,63,98,1405680136
81,15,16,Jits_ISO_5,3,5,56,103,1405740284
81,15,16,Jits_ISO_5,0,1,48,84,1406117840
81,15,16,Jits_ISO_5,1,5,56,103,1406139976
81,15,16,Jits_ISO_5,2,5,80,127,1406149876
81,15,16,Jits_ISO_5,3,5,63,98,1406229828
81,15,16,Jits_ISO_5,0,1,48,78,1406616152
81,15,16,Jits_ISO_5,1,5,80,127,1406639636
81,15,16,Jits_ISO_5,2,5,63,98,1406699952
81,15,16,Jits_ISO_5,3,5,56,103,1406729708
81,15,16,Jits_ISO_5,0,5,56,103,1407140276
81,15,16,Jits_ISO_5,1,1,48,70,1407158160
81,15,16,Jits_ISO_5,2,5,80,127,1407199836
81,15,16,Jits_ISO_5,3,5,63,98,1407239648
81,15,16,Jits_ISO_5,0,1,48,83,1407655492
81,15,16,Jits_ISO_5,1,5,56,103,1407690064
81,15,16,Jits_ISO_5,2,5,63,98,1407700556
81,15,16,Jits_ISO_5,3,5,80,127,1407703768
81,15,16,Jits_ISO_5,0,5,80,127,1408139824
81,15,16,Jits_ISO_5,1,1,48,72,1408173360
81,15,16,Jits_ISO_5,2,5,63,98,1408229728
81,15,16,Jits_ISO_5,3,5,56,103,1408239872
81,15,16,Jits_ISO_5,0,5,56,103,1408640532
81,15,16,Jits_ISO_5,1,5,63,98,1408643632
81,15,16,Jits_ISO_5,2,5,80,127,1408646752
81,15,16,Jits_ISO_5,3,1,48,67,1408667404
81,15,16,Jits_ISO_5,0,1,48,80,1409132816
81,15,16,Jits_ISO_5,1,5,80,127,1409159516
81,15,16,Jits_ISO_5,2,5,63,98,1409209568
81,15,16,Jits_ISO_5,3,5,56,103,1409240648
81,15,16,Jits_ISO_5,0,1,48,76,1409630152
81,15,16,Jits_ISO_5,1,5,56,103,1409639696
81,15,16,Jits_ISO_5,2,5,80,127,1409649892
81,15,16,Jits_ISO_5,3,5,63,98,1409719716
81,15,16,Jits_ISO_5,0,1,48,70,1410132576
81,15,16,Jits_ISO_5,1,5,56,103,1410149612
81,15,16,Jits_ISO_5,2,5,63,98,1410170368
81,15,16,Jits_ISO_5,3,5,80,127,1410229548
81,15,16,Jits_ISO_5,0,1,48,75,1410613728
81,15,16,Jits_ISO_5,1,5,80,127,1410640204
81,15,16,Jits_ISO_5,2,5,63,98,1410709792
81,15,16,Jits_ISO_5,3,5,56,103,1410730624
81,15,16,Jits_ISO_5,0,1,48,74,1411157360
81,15,16,Jits_ISO_5,1,5,80,127,1411160612
81,15,16,Jits_ISO_5,2,5,56,103,1411169612
81,15,16,Jits_ISO_5,3,5,63,98,1411179884
81,15,16,Jits_ISO_5,0,5,80,127,1411649864
81,15,16,Jits_ISO_5,1,1,48,73,1411658760
81,15,16,Jits_ISO_5,2,5,56,103,1411670536
81,15,16,Jits_ISO_5,3,5,63,98,1411739992
81,15,16,Jits_ISO_5,0,5,56,103,1412159800
81,15,16,Jits_ISO_5,1,1,48,70,1412164184
81,15,16,Jits_ISO_5,2,5,80,127,1412189540
81,15,16,Jits_ISO_5,3,5,63,98,1412210072
81,15,16,Jits_ISO_5,0,5,63,98,1412659548
81,15,16,Jits_ISO_5,1,1,48,64,1412661856
81,15,16,Jits_ISO_5,2,5,56,103,1412720004
81,15,16,Jits_ISO_5,3,5,80,127,1412749528
81,15,16,Jits_ISO_5,0,5,63,98,1413149988
81,15,16,Jits_ISO_5,1,5,80,127,1413153352
81,15,16,Jits_ISO_5,2,1,48,73,1413174456
81,15,16,Jits_ISO_5,3,5,56,103,1413240256
81,15,16,Jits_ISO_5,0,1,48,55,1413663160
81,15,16,Jits_ISO_5,1,5,56,103,1413670456
81,15,16,Jits_ISO_5,2,5,63,98,1413699908
81,15,16,Jits_ISO_5,3,5,80,127,1413739844
81,15,16,Jits_ISO_5,0,5,63,98,1414169972
81,15,16,Jits_ISO_5,1,1,48,56,1414171084
81,15,16,Jits_ISO_5,2,5,56,103,1414209904
81,15,16,Jits_ISO_5,3,5,80,127,1414230584
81,15,16,Jits_ISO_5,0,1,48,54,1414665992
81,15,16,Jits_ISO_5,1,5,63,98,1414679812
81,15,16,Jits_ISO_5,2,5,56,103,1414719824
81,15,16,Jits_ISO_5,3,5,80,127,1414730020
81,15,16,Jits_ISO_5,0,5,80,127,1415160148
81,15,16,Jits_ISO_5,1,1,48,52,1415170612
81,15,16,Jits_ISO_5,2,5,63,98,1415229748
81,15,16,Jits_ISO_5,3,5,56,103,1415250428
81,15,16,Jits_ISO_5,0,5,56,103,1415649612
81,15,16,Jits_ISO_5,1,1,48,67,1415667356
81,15,16,Jits_ISO_5,2,5,80,127,1415670012
81,15,16,Jits_ISO_5,3,5,63,98,1415709948
81,15,16,Jits_ISO_5,0,5,63,98,1416159616
81,15,16,Jits_ISO_5,1,1,48,80,1416165276
81,15,16,Jits_ISO_5,2,5,80,127,1416180092
81,15,16,Jits_ISO_5,3,5,56,103,1416220028
81,15,16,Jits_ISO_5,0,1,48,75,1416661340
81,15,16,Jits_ISO_5,1,5,63,98,1416669532
81,15,16,Jits_ISO_5,2,5,56,103,1416690164
81,15,16,Jits_ISO_5,3,5,80,127,1416700360
81,15,16,Jits_ISO_5,0,1,48,73,1417151252
81,15,16,Jits_ISO_5,1,5,80,127,1417170528
81,15,16,Jits_ISO_5,2,5,56,103,1417189720
81,15,16,Jits_ISO_5,3,5,63,98,1417219564
81,15,16,Jits_ISO_5,0,1,48,68,1417645880
81,15,16,Jits_ISO_5,1,5,56,103,1417739664
81,15,16,Jits_ISO_5,2,5,80,127,1417742580
81,15,16,Jits_ISO_5,3,5,63,98,1417760256
81,15,16,Jits_ISO_5,0,1,48,62,1418139172
81,15,16,Jits_ISO_5,1,5,63,98,1418159644
81,15,16,Jits_ISO_5,2,5,56,103,1418190144
81,15,16,Jits_ISO_5,3,5,80,127,1418249720
81,15,16,Jits_ISO_5,0,1,48,70,1418648196
81,15,16,Jits_ISO_5,1,5,63,98,1418740020
81,15,16,Jits_ISO_5,2,5,56,103,1418750420
81,15,16,Jits_ISO_5,3,5,80,127,1418759572
81,15,16,Jits_ISO_5,0,1,48,63,1419159920
81,15,16,Jits_ISO_5,1,5,56,103,1419189612
81,15,16,Jits_ISO_5,2,5,80,127,1419220480
81,15,16,Jits_ISO_5,3,5,63,98,1419229480
81,15,16,Jits_ISO_5,0,1,48,76,1419634468
81,15,16,Jits_ISO_5,1,5,63,98,1419730532
81,15,16,Jits_ISO_5,2,5,56,103,1419739460
81,15,16,Jits_ISO_5,3,5,80,127,1419760016
81,15,16,Jits_ISO_5,0,1,48,64,1420141332
81,15,16,Jits_ISO_5,1,5,56,103,1420160464
81,15,16,Jits_ISO_5,2,5,63,98,1420219728
81,15,16,Jits_ISO_5,3,5,80,127,1420223092
81,15,16,Jits_ISO_5,0,1,48,67,1420636104
81,15,16,Jits_ISO_5,1,5,80,127,1420679520
81,15,16,Jits_ISO_5,2,5,56,103,1420689716
81,15,16,Jits_ISO_5,3,5,63,98,1420760572
81,15,16,Jits_ISO_5,0,1,48,69,1421142364
81,15,16,Jits_ISO_5,1,5,80,127,1421170036
81,15,16,Jits_ISO_5,2,5,56,103,1421239568
81,15,16,Jits_ISO_5,3,5,63,98,1421249900
81,15,16,Jits_ISO_5,0,1,48,56,1421617760
81,15,16,Jits_ISO_5,1,5,63,98,1421709560
81,15,16,Jits_ISO_5,2,5,56,103,1421719812
81,15,16,Jits_ISO_5,3,5,80,127,1421740492
81,15,16,Jits_ISO_5,0,1,48,52,1422143780
81,15,16,Jits_ISO_5,1,5,80,127,1422160364
81,15,16,Jits_ISO_5,2,5,63,98,1422219488
81,15,16,Jits_ISO_5,3,5,56,103,1422259556
81,15,16,Jits_ISO_5,0,1,48,75,1422662772
81,15,16,Jits_ISO_5,1,5,56,103,1422699884
81,15,16,Jits_ISO_5,2,5,63,98,1422710228
81,15,16,Jits_ISO_5,3,5,80,127,1422750312
81,15,16,Jits_ISO_5,0,1,48,77,1423151720
81,15,16,Jits_ISO_5,1,5,56,103,1423159612
81,15,16,Jits_ISO_5,2,5,80,127,1423190560
81,15,16,Jits_ISO_5,3,5,63,98,1423239488
81,15,16,Jits_ISO_5,0,1,48,84,1423629804
81,15,16,Jits_ISO_5,1,5,56,103,1423700324
81,15,16,Jits_ISO_5,2,5,63,98,1423740468
81,15,16,Jits_ISO_5,3,5,80,127,1423743608
81,15,16,Jits_ISO_5,0,1,48,84,1424141060
81,15,16,Jits_ISO_5,1,5,56,103,1424210240
81,15,16,Jits_ISO_5,2,5,63,98,1424219388
81,15,16,Jits_ISO_5,3,5,80,127,1424240276
81,15,16,Jits_ISO_5,0,1,48,75,1424651360
81,15,16,Jits_ISO_5,1,5,56,103,1424670036
81,15,16,Jits_ISO_5,2,5,80,127,1424673176
81,15,16,Jits_ISO_5,3,5,63,98,1424709900
81,15,16,Jits_ISO_5,0,1,48,76,1425131944
81,15,16,Jits_ISO_5,1,5,63,98,1425209688
81,15,16,Jits_ISO_5,2,5,56,103,1425240544
81,15,16,Jits_ISO_5,3,5,80,127,1425259956
81,15,16,Jits_ISO_5,0,1,48,86,1425640076
81,15,16,Jits_ISO_5,1,5,80,127,1425679832
81,15,16,Jits_ISO_5,2,5,56,103,1425690476
81,15,16,Jits_ISO_5,3,5,63,98,1425700224
81,15,16,Jits_ISO_5,0,1,48,80,1426126012
81,15,16,Jits_ISO_5,1,5,56,103,1426179336
81,15,16,Jits_ISO_5,2,5,80,127,1426220472
81,15,16,Jits_ISO_5,3,5,63,98,1426250352
81,15,16,Jits_ISO_5,0,1,48,77,1426622372
81,15,16,Jits_ISO_5,1,5,63,98,1426690380
81,15,16,Jits_ISO_5,2,5,80,127,1426699528
81,15,16,Jits_ISO_5,3,5,56,103,1426709724
81,15,16,Jits_ISO_5,0,1,48,86,1427117544
81,15,16,Jits_ISO_5,1,5,56,103,1427169780
81,15,16,Jits_ISO_5,2,5,63,98,1427240444
81,15,16,Jits_ISO_5,3,5,80,127,1427249372
81,15,16,Jits_ISO_5,0,1,48,71,1427608436
81,15,16,Jits_ISO_5,1,5,80,127,1427670492
81,15,16,Jits_ISO_5,2,5,56,103,1427679492
81,15,16,Jits_ISO_5,3,5,63,98,1427729700
81,15,16,Jits_ISO_5,0,1,48,74,1428100596
81,15,16,Jits_ISO_5,1,5,80,127,1428189480
81,15,16,Jits_ISO_5,2,5,56,103,1428250248
81,15,16,Jits_ISO_5,3,5,63,98,1428279772
81,15,16,Jits_ISO_5,0,1,48,76,1428584888
81,15,16,Jits_ISO_5,1,5,56,103,1428690316
81,15,16,Jits_ISO_5,2,5,80,127,1428693456
81,15,16,Jits_ISO_5,3,5,63,98,1428730280
81,15,16,Jits_ISO_5,0,1,48,81,1429137052
81,15,16,Jits_ISO_5,1,5,56,103,1429219576
81,15,16,Jits_ISO_5,2,5,63,98,1429250384
81,15,16,Jits_ISO_5,3,5,80,127,1429259680
81,15,16,Jits_ISO_5,0,1,48,82,1429647340
81,15,16,Jits_ISO_5,1,5,63,98,1429729792
81,15,16,Jits_ISO_5,2,5,80,127,1429741020
81,15,16,Jits_ISO_5,3,5,56,103,1429750340
81,15,16,Jits_ISO_5,0,5,80,127,1430180308
81,15,16,Jits_ISO_5,1,1,48,73,1430181720
81,15,16,Jits_ISO_5,2,5,56,103,1430230352
81,15,16,Jits_ISO_5,3,5,63,98,1430233492
81,15,16,Jits_ISO_5,0,1,48,74,1430659416
81,15,16,Jits_ISO_5,1,5,56,103,1430709784
81,15,16,Jits_ISO_5,2,5,80,127,1430730168
81,15,16,Jits_ISO_5,3,5,63,98,1430740288
81,15,16,Jits_ISO_5,0,1,48,81,1431177188
81,15,16,Jits_ISO_5,1,5,63,98,1431189812
81,15,16,Jits_ISO_5,2,5,56,103,1431219488
81,15,16,Jits_ISO_5,3,5,80,127,1431240168
81,15,16,Jits_ISO_5,0,1,48,70,1431668468
81,15,16,Jits_ISO_5,1,5,56,103,1431699880
81,15,16,Jits_ISO_5,2,5,80,127,1431710076
81,15,16,Jits_ISO_5,3,5,63,98,1431779588
81,15,16,Jits_ISO_5,0,1,48,63,1432180260
81,15,16,Jits_ISO_5,1,5,63,98,1432190400
81,15,16,Jits_ISO_5,2,5,80,127,1432230188
81,15,16,Jits_ISO_5,3,5,56,103,1432270200
81,15,16,Jits_ISO_5,0,1,48,96,1432686276
81,15,16,Jits_ISO_5,1,5,56,103,1432700248
81,15,16,Jits_ISO_5,2,5,63,98,1432709620
81,15,16,Jits_ISO_5,3,5,80,127,1432730004
81,15,16,Jits_ISO_5,0,1,48,76,1433178384
81,15,16,Jits_ISO_5,1,5,63,98,1433240060
81,15,16,Jits_ISO_5,2,5,80,127,1433260372
81,15,16,Jits_ISO_5,3,5,56,103,1433279844
81,15,16,Jits_ISO_5,0,5,56,103,1433680248
81,15,16,Jits_ISO_5,1,1,48,87,1433699780
81,15,16,Jits_ISO_5,2,5,80,127,1433760332
81,15,16,Jits_ISO_5,3,5,63,98,1433770380
81,15,16,Jits_ISO_5,0,1,48,86,1434174636
81,15,16,Jits_ISO_5,1,5,80,127,1434219996
81,15,16,Jits_ISO_5,2,5,63,98,1434230192
81,15,16,Jits_ISO_5,3,5,56,103,1434260088
81,15,16,Jits_ISO_5,0,5,63,98,1434679804
81,15,16,Jits_ISO_5,1,1,48,83,1434700160
81,15,16,Jits_ISO_5,2,5,80,127,1434719812
81,15,16,Jits_ISO_5,3,5,56,103,1434780124
81,15,16,Jits_ISO_5,0,1,48,84,1435150960
81,15,16,Jits_ISO_5,1,5,63,98,1435189644
81,15,16,Jits_ISO_5,2,5,56,103,1435239772
81,15,16,Jits_ISO_5,3,5,80,127,1435269432
81,15,16,Jits_ISO_5,0,1,48,76,1435638336
81,15,16,Jits_ISO_5,1,5,80,127,1435710056
81,15,16,Jits_ISO_5,2,5,63,98,1435720028
81,15,16,Jits_ISO_5,3,5,56,103,1435789540
81,15,16,Jits_ISO_5,0,1,48,84,1436152448
81,15,16,Jits_ISO_5,1,5,80,127,1436280200
81,15,16,Jits_ISO_5,2,5,56,103,1436290540
81,15,16,Jits_ISO_5,3,5,63,98,1436293532
81,15,16,Jits_ISO_5,0,1,48,89,1436718440
81,15,16,Jits_ISO_5,1,5,56,103,1436720160
81,15,16,Jits_ISO_5,2,5,80,127,1436740168
81,15,16,Jits_ISO_5,3,5,63,98,1436750140
81,15,16,Jits_ISO_5,0,1,48,86,1437208480
81,15,16,Jits_ISO_5,1,5,63,98,1437229556
81,15,16,Jits_ISO_5,2,5,56,103,1437270316
81,15,16,Jits_ISO_5,3,5,80,127,1437289804
81,15,16,Jits_ISO_5,0,1,48,70,1437705660
81,15,16,Jits_ISO_5,1,5,63,98,1437730116
81,15,16,Jits_ISO_5,2,5,56,103,1437789604
81,15,16,Jits_ISO_5,3,5,80,127,1437792520
81,15,16,Jits_ISO_5,0,5,56,103,1438190064
81,15,16,Jits_ISO_5,1,1,48,76,1438208088
81,15,16,Jits_ISO_5,2,5,80,127,1438210520
81,15,16,Jits_ISO_5,3,5,63,98,1438250304
81,15,16,Jits_ISO_5,0,1,48,89,1438670276
81,15,16,Jits_ISO_5,1,5,56,103,1438720224
81,15,16,Jits_ISO_5,2,5,63,98,1438739932
81,15,16,Jits_ISO_5,3,5,80,127,1438750052
81,15,16,Jits_ISO_5,0,1,48,81,1439162064
81,15,16,Jits_ISO_5,1,5,80,127,1439190336
81,15,16,Jits_ISO_5,2,5,56,103,1439220036
81,15,16,Jits_ISO_5,3,5,63,98,1439260196
81,15,16,Jits_ISO_5,0,1,48,85,1439648168
81,15,16,Jits_ISO_5,1,5,80,127,1439709548
81,15,16,Jits_ISO_5,2,5,56,103,1439729960
81,15,16,Jits_ISO_5,3,5,63,98,1439789284
81,15,16,Jits_ISO_5,0,1,48,87,1440140928
81,15,16,Jits_ISO_5,1,5,56,103,1440219472
81,15,16,Jits_ISO_5,2,5,80,127,1440239940
81,15,16,Jits_ISO_5,3,5,63,98,1440300324
81,15,16,Jits_ISO_5,0,1,48,89,1440665828
81,15,16,Jits_ISO_5,1,5,80,127,1440700020
81,15,16,Jits_ISO_5,2,5,56,103,1440710068
81,15,16,Jits_ISO_5,3,5,63,98,1440750104
81,15,16,Jits_ISO_5,0,1,48,82,1441182556
81,15,16,Jits_ISO_5,1,5,63,98,1441199444
81,15,16,Jits_ISO_5,2,5,56,103,1441240428
81,15,16,Jits_ISO_5,3,5,80,127,1441243640
81,15,16,Jits_ISO_5,0,1,48,81,1441681684
81,15,16,Jits_ISO_5,1,5,63,98,1441720064
81,15,16,Jits_ISO_5,2,5,80,127,1441759556
81,15,16,Jits_ISO_5,3,5,56,103,1441790284
81,15,16,Jits_ISO_5,0,1,48,78,1442181860
81,15,16,Jits_ISO_5,1,5,56,103,1442210136
81,15,16,Jits_ISO_5,2,5,63,98,1442220332
81,15,16,Jits_ISO_5,3,5,80,127,1442250228
81,15,16,Jits_ISO_5,0,1,48,75,1442670576
81,15,16,Jits_ISO_5,1,5,80,127,1442699900
81,15,16,Jits_ISO_5,2,5,63,98,1442770164
81,15,16,Jits_ISO_5,3,5,56,103,1442779460
81,15,16,Jits_ISO_5,0,1,48,89,1443187084
81,15,16,Jits_ISO_5,1,5,63,98,1443200304
81,15,16,Jits_ISO_5,2,5,56,103,1443270060
81,15,16,Jits_ISO_5,3,5,80,127,1443281064
81,15,16,Jits_ISO_5,0,1,48,86,1443685844
81,15,16,Jits_ISO_5,1,5,63,98,1443699964
81,15,16,Jits_ISO_5,2,5,56,103,1443719524
81,15,16,Jits_ISO_5,3,5,80,127,1443759756
81,15,16,Jits_ISO_5,0,1,48,91,1444178396
81,15,16,Jits_ISO_5,1,5,56,103,1444209956
81,15,16,Jits_ISO_5,2,5,63,98,1444220228
81,15,16,Jits_ISO_5,3,5,80,127,1444300000
81,15,16,Jits_ISO_5,0,1,48,86,1444675116
81,15,16,Jits_ISO_5,1,5,63,98,1444699500
81,15,16,Jits_ISO_5,2,5,56,103,1444730220
81,15,16,Jits_ISO_5,3,5,80,127,1444770156
81,15,16,Jits_ISO_5,0,1,48,85,1445190664
81,15,16,Jits_ISO_5,1,5,56,103,1445200128
81,15,16,Jits_ISO_5,2,5,63,98,1445240064
81,15,16,Jits_ISO_5,3,5,80,127,1445280148
81,15,16,Jits_ISO_5,0,5,80,127,1445700016
81,15,16,Jits_ISO_5,1,1,48,72,1445715860
81,15,16,Jits_ISO_5,2,5,56,103,1445779952
81,15,16,Jits_ISO_5,3,5,63,98,1445790072
81,15,16,Jits_ISO_5,0,1,48,88,1446202576
81,15,16,Jits_ISO_5,1,5,56,103,1446239764
81,15,16,Jits_ISO_5,2,5,63,98,1446242756
81,15,16,Jits_ISO_5,3,5,80,127,1446249884
81,15,16,Jits_ISO_5,0,1,48,87,1446685136
81,15,16,Jits_ISO_5,1,5,56,103,1446759716
81,15,16,Jits_ISO_5,2,5,63,98,1446780308
81,15,16,Jits_ISO_5,3,5,80,127,1446789536
81,15,16,Jits_ISO_5,0,1,48,88,1447205328
81,15,16,Jits_ISO_5,1,5,63,98,1447229788
81,15,16,Jits_ISO_5,2,5,80,127,1447239984
81,15,16,Jits_ISO_5,3,5,56,103,1447259468
81,15,16,Jits_ISO_5,0,1,48,95,1447713004
81,15,16,Jits_ISO_5,1,5,63,98,1447729960
81,15,16,Jits_ISO_5,2,5,56,103,1447811100
81,15,16,Jits_ISO_5,3,5,80,127,1447814000
81,15,16,Jits_ISO_5,0,1,48,89,1448201272
81,15,16,Jits_ISO_5,1,5,63,98,1448230216
81,15,16,Jits_ISO_5,2,5,56,103,1448249776
81,15,16,Jits_ISO_5,3,5,80,127,1448280496
81,15,16,Jits_ISO_5,0,1,48,96,1448708500
81,15,16,Jits_ISO_5,1,5,56,103,1448729948
81,15,16,Jits_ISO_5,2,5,63,98,1448749508
81,15,16,Jits_ISO_5,3,5,80,127,1448759776
81,15,16,Jits_ISO_5,0,1,48,99,1449199912
81,15,16,Jits_ISO_5,1,5,56,103,1449260468
81,15,16,Jits_ISO_5,2,5,63,98,1449289984
81,15,16,Jits_ISO_5,3,5,80,127,1449294164
81,15,16,Jits_ISO_5,0,5,56,103,1449709932
81,15,16,Jits_ISO_5,1,1,48,91,1449732160
81,15,16,Jits_ISO_5,2,5,63,98,1449749936
81,15,16,Jits_ISO_5,3,5,80,127,1449810176
81,15,16,Jits_ISO_5,0,1,48,93,1450224176
81,15,16,Jits_ISO_5,1,5,56,103,1450230348
81,15,16,Jits_ISO_5,2,5,63,98,1450240320
81,15,16,Jits_ISO_5,3,5,80,127,1450299736
81,15,16,Jits_ISO_5,0,1,48,91,1450727396
81,15,16,Jits_ISO_5,1,5,56,103,1450729832
81,15,16,Jits_ISO_5,2,5,80,127,1450750312
81,15,16,Jits_ISO_5,3,5,63,98,1450780060
81,15,16,Jits_ISO_5,0,1,48,81,1451229912
81,15,16,Jits_ISO_5,1,5,80,127,1451239824
81,15,16,Jits_ISO_5,2,5,56,103,1451249896
81,15,16,Jits_ISO_5,3,5,63,98,1451269532
81,15,16,Jits_ISO_5,0,1,48,90,1451722072
81,15,16,Jits_ISO_5,1,5,63,98,1451730264
81,15,16,Jits_ISO_5,2,5,80,127,1451810160
81,15,16,Jits_ISO_5,3,5,56,103,1451820488
81,15,16,Jits_ISO_5,0,1,48,81,1452223604
81,15,16,Jits_ISO_5,1,5,80,127,1452290412
81,15,16,Jits_ISO_5,2,5,56,103,1452309896
81,15,16,Jits_ISO_5,3,5,63,98,1452312812
81,15,16,Jits_ISO_5,0,5,63,98,1452760372
81,15,16,Jits_ISO_5,1,5,80,127,1452763960
81,15,16,Jits_ISO_5,2,1,48,80,1452767008
81,15,16,Jits_ISO_5,3,5,56,103,1452819808
81,15,16,Jits_ISO_5,0,5,56,103,1453239648
81,15,16,Jits_ISO_5,1,5,80,127,1453249920
81,15,16,Jits_ISO_5,2,1,48,78,1453253860
81,15,16,Jits_ISO_5,3,5,63,98,1453289772
81,15,16,Jits_ISO_5,0,5,56,103,1453719916
81,15,16,Jits_ISO_5,1,1,48,82,1453748664
81,15,16,Jits_ISO_5,2,5,63,98,1453780224
81,15,16,Jits_ISO_5,3,5,80,127,1453789744
81,15,16,Jits_ISO_5,0,5,63,98,1454229928
81,15,16,Jits_ISO_5,1,1,48,81,1454247424
81,15,16,Jits_ISO_5,2,5,80,127,1454269784
81,15,16,Jits_ISO_5,3,5,56,103,1454309720
81,15,16,Jits_ISO_5,0,5,56,103,1454729736
81,15,16,Jits_ISO_5,1,1,48,86,1454763048
81,15,16,Jits_ISO_5,2,5,63,98,1454809448
81,15,16,Jits_ISO_5,3,5,80,127,1454812960
81,15,16,Jits_ISO_5,0,9999,9999,9999,1395427436
81,15,16,Jits_ISO_5,1,9999,9999,9999,1395927156
81,15,16,Jits_ISO_5,2,9999,9999,9999,1396427868
81,15,16,Jits_ISO_5,3,9999,9999,9999,1396927580
81,15,16,Jits_ISO_5,4,9999,9999,9999,1397427316
81,15,16,Jits_ISO_5,5,9999,9999,9999,1397928028
81,15,16,Jits_ISO_5,6,9999,9999,9999,1398427760
81,15,16,Jits_ISO_5,7,9999,9999,9999,1398927432
81,15,16,Jits_ISO_5,8,9999,9999,9999,1399427176
81,15,16,Jits_ISO_5,9,9999,9999,9999,1399927900
81,15,16,Jits_ISO_5,10,9999,9999,9999,1400427572
81,15,16,Jits_ISO_5,11,9999,9999,9999,1400927304
81,15,16,Jits_ISO_5,12,9999,9999,9999,1401428080
81,15,16,Jits_ISO_5,13,9999,9999,9999,1401927736
81,15,16,Jits_ISO_5,14,9999,9999,9999,1402427452
81,15,16,Jits_ISO_5,15,9999,9999,9999,1402927200
81,15,16,Jits_ISO_5,16,9999,9999,9999,1403427908
81,15,16,Jits_ISO_5,17,9999,9999,9999,1403927636
81,15,16,Jits_ISO_5,18,9999,9999,9999,1404427368
81,15,16,Jits_ISO_5,19,9999,9999,9999,1404928076
81,15,16,Jits_ISO_5,20,9999,9999,9999,1405438076
81,15,16,Jits_ISO_5,21,9999,9999,9999,1405937732
81,15,16,Jits_ISO_5,22,9999,9999,9999,1406437440
81,15,16,Jits_ISO_5,23,9999,9999,9999,1406937172
81,15,16,Jits_ISO_5,24,9999,9999,9999,1407437880
81,15,16,Jits_ISO_5,25,9999,9999,9999,1407937620
81,15,16,Jits_ISO_5,26,9999,9999,9999,1408437356
81,15,16,Jits_ISO_5,27,9999,9999,9999,1408938052
81,15,16,Jits_ISO_5,28,9999,9999,9999,1409437800
81,15,16,Jits_ISO_5,29,9999,9999,9999,1409937524
81,15,16,Jits_ISO_5,30,9999,9999,9999,1410437184
81,15,16,Jits_ISO_5,31,9999,9999,9999,1410937964
81,15,16,Jits_ISO_5,32,9999,9999,9999,1411437620
81,15,16,Jits_ISO_5,33,9999,9999,9999,1411937352
81,15,16,Jits_ISO_5,34,9999,9999,9999,1412438072
81,15,16,Jits_ISO_5,35,9999,9999,9999,1412948084
81,15,16,Jits_ISO_5,36,9999,9999,9999,1413447732
81,15,16,Jits_ISO_5,37,9999,9999,9999,1413947464
81,15,16,Jits_ISO_5,38,9999,9999,9999,1414447200
81,15,16,Jits_ISO_5,39,9999,9999,9999,1414947904
81,15,16,Jits_ISO_5,40,9999,9999,9999,1415447640
81,15,16,Jits_ISO_5,41,9999,9999,9999,1415947388
81,15,16,Jits_ISO_5,42,9999,9999,9999,1416448100
81,15,16,Jits_ISO_5,43,9999,9999,9999,1416958020
81,15,16,Jits_ISO_5,44,9999,9999,9999,1417457752
81,15,16,Jits_ISO_5,45,9999,9999,9999,1417957456
81,15,16,Jits_ISO_5,46,9999,9999,9999,1418457180
81,15,16,Jits_ISO_5,47,9999,9999,9999,1418957892
81,15,16,Jits_ISO_5,48,9999,9999,9999,1419457628
81,15,16,Jits_ISO_5,49,9999,9999,9999,1419957368
81,15,16,Jits_ISO_5,50,9999,9999,9999,1420458064
81,15,16,Jits_ISO_5,51,9999,9999,9999,1420957800
81,15,16,Jits_ISO_5,52,9999,9999,9999,1421457464
81,15,16,Jits_ISO_5,53,9999,9999,9999,1421957196
81,15,16,Jits_ISO_5,54,9999,9999,9999,1422457980
81,15,16,Jits_ISO_5,55,9999,9999,9999,1422957636
81,15,16,Jits_ISO_5,56,9999,9999,9999,1423457372
81,15,16,Jits_ISO_5,57,9999,9999,9999,1423958072
81,15,16,Jits_ISO_5,58,9999,9999,9999,1424468068
81,15,16,Jits_ISO_5,59,9999,9999,9999,1424967784
81,15,16,Jits_ISO_5,60,9999,9999,9999,1425467444
81,15,16,Jits_ISO_5,61,9999,9999,9999,1425967176
81,15,16,Jits_ISO_5,62,9999,9999,9999,1426467956
81,15,16,Jits_ISO_5,63,9999,9999,9999,1426967608
81,15,16,Jits_ISO_5,64,9999,9999,9999,1427467344
81,15,16,Jits_ISO_5,65,9999,9999,9999,1427968124
81,15,16,Jits_ISO_5,66,9999,9999,9999,1428478048
81,15,16,Jits_ISO_5,67,9999,9999,9999,1428977768
81,15,16,Jits_ISO_5,68,9999,9999,9999,1429477480
81,15,16,Jits_ISO_5,69,9999,9999,9999,1429977208
81,15,16,Jits_ISO_5,70,9999,9999,9999,1430477900
81,15,16,Jits_ISO_5,71,9999,9999,9999,1430977648
81,15,16,Jits_ISO_5,72,9999,9999,9999,1431477304
81,15,16,Jits_ISO_5,73,9999,9999,9999,1431978088
81,15,16,Jits_ISO_5,74,9999,9999,9999,1432477748
81,15,16,Jits_ISO_5,75,9999,9999,9999,1432977480
81,15,16,Jits_ISO_5,76,9999,9999,9999,1433477220
81,15,16,Jits_ISO_5,77,9999,9999,9999,1433977928
81,15,16,Jits_ISO_5,78,9999,9999,9999,1434477676
81,15,16,Jits_ISO_5,79,9999,9999,9999,1434977336
81,15,16,Jits_ISO_5,80,9999,9999,9999,1435478112
81,15,16,Jits_ISO_5,81,9999,9999,9999,1435988036
81,15,16,Jits_ISO_5,82,9999,9999,9999,1436487768
81,15,16,Jits_ISO_5,83,9999,9999,9999,1436987504
81,15,16,Jits_ISO_5,84,9999,9999,9999,1437487164
81,15,16,Jits_ISO_5,85,9999,9999,9999,1437987940
81,15,16,Jits_ISO_5,86,9999,9999,9999,1438487668
81,15,16,Jits_ISO_5,87,9999,9999,9999,1438987340
81,15,16,Jits_ISO_5,88,9999,9999,9999,1439488116
81,15,16,Jits_ISO_5,89,9999,9999,9999,1439998044
81,15,16,Jits_ISO_5,90,9999,9999,9999,1440497776
81,15,16,Jits_ISO_5,91,9999,9999,9999,1440997480
81,15,16,Jits_ISO_5,92,9999,9999,9999,1441497192
81,15,16,Jits_ISO_5,93,9999,9999,9999,1441997900
81,15,16,Jits_ISO_5,94,9999,9999,9999,1442497628
81,15,16,Jits_ISO_5,95,9999,9999,9999,1442997360
81,15,16,Jits_ISO_5,96,9999,9999,9999,1443498064
81,15,16,Jits_ISO_5,97,9999,9999,9999,1443997796
81,15,16,Jits_ISO_5,98,9999,9999,9999,1444497528
81,15,16,Jits_ISO_5,99,9999,9999,9999,1444997184
81,15,16,Jits_ISO_5,100,9999,9999,9999,1445497964
81,15,16,Jits_ISO_5,101,9999,9999,9999,1445997624
81,15,16,Jits_ISO_5,102,9999,9999,9999,1446497360
81,15,16,Jits_ISO_5,103,9999,9999,9999,1446998072
81,15,16,Jits_ISO_5,104,9999,9999,9999,1447508064
81,15,16,Jits_ISO_5,105,9999,9999,9999,1448007792
81,15,16,Jits_ISO_5,106,9999,9999,9999,1448507448
81,15,16,Jits_ISO_5,107,9999,9999,9999,1449007180
81,15,16,Jits_ISO_5,108,9999,9999,9999,1449507952
81,15,16,Jits_ISO_5,109,9999,9999,9999,1450007612
81,15,16,Jits_ISO_5,110,9999,9999,9999,1450507356
81,15,16,Jits_ISO_5,111,9999,9999,9999,1451008060
81,15,16,Jits_ISO_5,112,9999,9999,9999,1451518052
81,15,16,Jits_ISO_5,113,9999,9999,9999,1452017716
81,15,16,Jits_ISO_5,114,9999,9999,9999,1452517496
81,15,16,Jits_ISO_5,115,9999,9999,9999,1453017144
81,15,16,Jits_ISO_5,116,9999,9999,9999,1453517924
81,15,16,Jits_ISO_5,117,9999,9999,9999,1454017596
81,15,16,Jits_ISO_5,118,9999,9999,9999,1454517344
81,15,16,Jits_ISO_5,119,9999,9999,9999,1455018044
81,16,15,Jits_Phase_8,0,5,56,103,1464742312
81,16,15,Jits_Phase_8,1,5,63,98,1464745404
81,16,15,Jits_Phase_8,2,5,80,127,1464748604
81,16,15,Jits_Phase_8,0,5,56,103,1465542028
81,16,15,Jits_Phase_8,1,5,63,98,1465545124
81,16,15,Jits_Phase_8,2,5,80,127,1465548172
81,16,15,Jits_Phase_8,3,1,48,66,1465714260
81,16,15,Jits_Phase_8,0,5,80,127,1466282312
81,16,15,Jits_Phase_8,1,1,48,70,1466368608
81,16,15,Jits_Phase_8,2,5,63,98,1466371568
81,16,15,Jits_Phase_8,3,5,56,103,1466381612
81,16,15,Jits_Phase_8,0,5,56,103,1467101492
81,16,15,Jits_Phase_8,1,5,63,98,1467111688
81,16,15,Jits_Phase_8,2,1,48,79,1467167564
81,16,15,Jits_Phase_8,3,5,80,127,1467201912
81,16,15,Jits_Phase_8,0,5,63,98,1467871596
81,16,15,Jits_Phase_8,1,5,80,127,1467902416
81,16,15,Jits_Phase_8,2,1,48,83,1467924188
81,16,15,Jits_Phase_8,3,5,56,103,1467931936
81,16,15,Jits_Phase_8,0,1,48,83,1468669312
81,16,15,Jits_Phase_8,1,5,56,103,1468672492
81,16,15,Jits_Phase_8,2,5,80,127,1468771676
81,16,15,Jits_Phase_8,3,5,63,98,1468821804
81,16,15,Jits_Phase_8,0,5,56,103,1469472256
81,16,15,Jits_Phase_8,1,1,48,90,1469504896
81,16,15,Jits_Phase_8,2,5,80,127,1469522452
81,16,15,Jits_Phase_8,3,5,63,98,1469562392
81,16,15,Jits_Phase_8,0,5,80,127,1470301620
81,16,15,Jits_Phase_8,1,1,48,84,1470321004
81,16,15,Jits_Phase_8,2,5,63,98,1470332488
81,16,15,Jits_Phase_8,3,5,56,103,1470402016
81,16,15,Jits_Phase_8,0,5,63,98,1471131968
81,16,15,Jits_Phase_8,1,1,48,79,1471135836
81,16,15,Jits_Phase_8,2,5,56,103,1471161784
81,16,15,Jits_Phase_8,3,5,80,127,1471222196
81,16,15,Jits_Phase_8,0,5,56,103,1471872232
81,16,15,Jits_Phase_8,1,5,80,127,1471875380
81,16,15,Jits_Phase_8,2,1,48,77,1471958732
81,16,15,Jits_Phase_8,3,5,63,98,1471992128
81,16,15,Jits_Phase_8,0,1,48,82,1472701644
81,16,15,Jits_Phase_8,1,5,56,103,1472751960
81,16,15,Jits_Phase_8,2,5,80,127,1472791824
81,16,15,Jits_Phase_8,3,5,63,98,1472802156
81,16,15,Jits_Phase_8,0,5,56,103,1473511772
81,16,15,Jits_Phase_8,1,5,80,127,1473532332
81,16,15,Jits_Phase_8,2,1,48,76,1473541452
81,16,15,Jits_Phase_8,3,5,63,98,1473612264
81,16,15,Jits_Phase_8,0,5,80,127,1474302280
81,16,15,Jits_Phase_8,1,1,48,76,1474342412
81,16,15,Jits_Phase_8,2,5,56,103,1474401696
81,16,15,Jits_Phase_8,3,5,63,98,1474411744
81,16,15,Jits_Phase_8,0,5,63,98,1475072240
81,16,15,Jits_Phase_8,1,1,48,77,1475117684
81,16,15,Jits_Phase_8,2,5,80,127,1475131876
81,16,15,Jits_Phase_8,3,5,56,103,1475142444
81,16,15,Jits_Phase_8,0,1,48,86,1475860348
81,16,15,Jits_Phase_8,1,5,56,103,1475872132
81,16,15,Jits_Phase_8,2,5,63,98,1475941964
81,16,15,Jits_Phase_8,3,5,80,127,1475945252
81,16,15,Jits_Phase_8,0,1,48,90,1476651924
81,16,15,Jits_Phase_8,1,5,63,98,1476701548
81,16,15,Jits_Phase_8,2,5,56,103,1476751736
81,16,15,Jits_Phase_8,3,5,80,127,1476754876
81,16,15,Jits_Phase_8,0,5,56,103,1477462412
81,16,15,Jits_Phase_8,1,5,80,127,1477465480
81,16,15,Jits_Phase_8,2,5,63,98,1477551424
81,16,15,Jits_Phase_8,3,1,48,82,1477553584
81,16,15,Jits_Phase_8,0,1,48,87,1478272924
81,16,15,Jits_Phase_8,1,5,63,98,1478302172
81,16,15,Jits_Phase_8,2,5,56,103,1478392316
81,16,15,Jits_Phase_8,3,5,80,127,1478421840
81,16,15,Jits_Phase_8,0,5,56,103,1479091528
81,16,15,Jits_Phase_8,1,1,48,86,1479166364
81,16,15,Jits_Phase_8,2,5,63,98,1479191944
81,16,15,Jits_Phase_8,3,5,80,127,1479221544
81,16,15,Jits_Phase_8,0,5,63,98,1479911980
81,16,15,Jits_Phase_8,1,5,56,103,1479922128
81,16,15,Jits_Phase_8,2,1,48,95,1479935360
81,16,15,Jits_Phase_8,3,5,80,127,1480012104
81,16,15,Jits_Phase_8,0,1,48,87,1480719536
81,16,15,Jits_Phase_8,1,5,63,98,1480732212
81,16,15,Jits_Phase_8,2,5,56,103,1480812080
81,16,15,Jits_Phase_8,3,5,80,127,1480815808
81,16,15,Jits_Phase_8,0,5,80,127,1481491964
81,16,15,Jits_Phase_8,1,5,63,98,1481512204
81,16,15,Jits_Phase_8,2,1,48,89,1481562820
81,16,15,Jits_Phase_8,3,5,56,103,1481571612
81,16,15,Jits_Phase_8,0,5,56,103,1482331520
81,16,15,Jits_Phase_8,1,1,48,88,1482333156
81,16,15,Jits_Phase_8,2,5,63,98,1482352196
81,16,15,Jits_Phase_8,3,5,80,127,1482355336
81,16,15,Jits_Phase_8,0,5,63,98,1483071948
81,16,15,Jits_Phase_8,1,1,48,82,1483117536
81,16,15,Jits_Phase_8,2,5,80,127,1483151664
81,16,15,Jits_Phase_8,3,5,56,103,1483162156
81,16,15,Jits_Phase_8,0,5,63,98,1483892008
81,16,15,Jits_Phase_8,1,1,48,91,1483894828
81,16,15,Jits_Phase_8,2,5,56,103,1483911564
81,16,15,Jits_Phase_8,3,5,80,127,1483961688
81,16,15,Jits_Phase_8,0,5,80,127,1484691912
81,16,15,Jits_Phase_8,1,1,48,87,1484696152
81,16,15,Jits_Phase_8,2,5,63,98,1484731696
81,16,15,Jits_Phase_8,3,5,56,103,1484752228
81,16,15,Jits_Phase_8,0,1,48,94,1485500572
81,16,15,Jits_Phase_8,1,5,56,103,1485531460
81,16,15,Jits_Phase_8,2,5,63,98,1485542028
81,16,15,Jits_Phase_8,3,5,80,127,1485562288
81,16,15,Jits_Phase_8,0,5,56,103,1486261696
81,16,15,Jits_Phase_8,1,1,48,101,1486325296
81,16,15,Jits_Phase_8,2,5,63,98,1486351996
81,16,15,Jits_Phase_8,3,5,80,127,1486412088
81,16,15,Jits_Phase_8,0,5,80,127,1487092000
81,16,15,Jits_Phase_8,1,5,56,103,1487102344
81,16,15,Jits_Phase_8,2,1,48,78,1487106360
81,16,15,Jits_Phase_8,3,5,63,98,1487172088
81,16,15,Jits_Phase_8,0,1,48,100,1487904020
81,16,15,Jits_Phase_8,1,5,63,98,1487921504
81,16,15,Jits_Phase_8,2,5,80,127,1488011772
81,16,15,Jits_Phase_8,3,5,56,103,1488022044
81,16,15,Jits_Phase_8,0,5,63,98,1488651624
81,16,15,Jits_Phase_8,1,5,80,127,1488701900
81,16,15,Jits_Phase_8,2,5,56,103,1488762140
81,16,15,Jits_Phase_8,3,1,48,51,1488830664
81,16,15,Jits_Phase_8,0,5,56,103,1489472128
81,16,15,Jits_Phase_8,1,5,80,127,1489521960
81,16,15,Jits_Phase_8,2,5,63,98,1489541596
81,16,15,Jits_Phase_8,3,1,48,71,1489609204
81,16,15,Jits_Phase_8,0,5,56,103,1490252120
81,16,15,Jits_Phase_8,1,5,80,127,1490311464
81,16,15,Jits_Phase_8,2,1,48,85,1490317800
81,16,15,Jits_Phase_8,3,5,63,98,1490382108
81,16,15,Jits_Phase_8,0,5,56,103,1491052040
81,16,15,Jits_Phase_8,1,1,48,92,1491079372
81,16,15,Jits_Phase_8,2,5,80,127,1491081488
81,16,15,Jits_Phase_8,3,5,63,98,1491112208
81,16,15,Jits_Phase_8,0,1,48,89,1491839548
81,16,15,Jits_Phase_8,1,5,56,103,1491891508
81,16,15,Jits_Phase_8,2,5,80,127,1491912044
81,16,15,Jits_Phase_8,3,5,63,98,1491971544
81,16,15,Jits_Phase_8,0,1,48,77,1492650860
81,16,15,Jits_Phase_8,1,5,80,127,1492772192
81,16,15,Jits_Phase_8,2,5,56,103,1492781416
81,16,15,Jits_Phase_8,3,5,63,98,1492791908
81,16,15,Jits_Phase_8,0,1,48,94,1493524968
81,16,15,Jits_Phase_8,1,5,56,103,1493532040
81,16,15,Jits_Phase_8,2,5,80,127,1493571832
81,16,15,Jits_Phase_8,3,5,63,98,1493601876
81,16,15,Jits_Phase_8,0,5,56,103,1494302140
81,16,15,Jits_Phase_8,1,5,63,98,1494331744
81,16,15,Jits_Phase_8,2,5,80,127,1494371904
81,16,15,Jits_Phase_8,3,1,48,87,1494387676
81,16,15,Jits_Phase_8,0,5,80,127,1495051868
81,16,15,Jits_Phase_8,1,5,63,98,1495101848
81,16,15,Jits_Phase_8,2,5,56,103,1495122232
81,16,15,Jits_Phase_8,3,1,48,85,1495192700
81,16,15,Jits_Phase_8,0,5,56,103,1495882048
81,16,15,Jits_Phase_8,1,1,48,88,1495925396
81,16,15,Jits_Phase_8,2,5,80,127,1495951652
81,16,15,Jits_Phase_8,3,5,63,98,1496012040
81,16,15,Jits_Phase_8,0,5,80,127,1496681900
81,16,15,Jits_Phase_8,1,1,48,80,1496696404
81,16,15,Jits_Phase_8,2,5,63,98,1496772028
81,16,15,Jits_Phase_8,3,5,56,103,1496792472
81,16,15,Jits_Phase_8,0,1,48,89,1497493784
81,16,15,Jits_Phase_8,1,5,63,98,1497501976
81,16,15,Jits_Phase_8,2,5,56,103,1497521540
81,16,15,Jits_Phase_8,3,5,80,127,1497561400
81,16,15,Jits_Phase_8,0,5,80,127,1498261880
81,16,15,Jits_Phase_8,1,5,63,98,1498282416
81,16,15,Jits_Phase_8,2,1,48,95,1498303744
81,16,15,Jits_Phase_8,3,5,56,103,1498362152
81,16,15,Jits_Phase_8,0,1,48,80,1499038836
81,16,15,Jits_Phase_8,1,5,63,98,1499052500
81,16,15,Jits_Phase_8,2,5,56,103,1499161900
81,16,15,Jits_Phase_8,3,5,80,127,1499165112
81,16,15,Jits_Phase_8,0,5,63,98,1499871812
81,16,15,Jits_Phase_8,1,5,56,103,1499881932
81,16,15,Jits_Phase_8,2,5,80,127,1499884924
81,16,15,Jits_Phase_8,3,1,48,85,1499918008
81,16,15,Jits_Phase_8,0,5,56,103,1500652000
81,16,15,Jits_Phase_8,1,1,48,81,1500692356
81,16,15,Jits_Phase_8,2,5,80,127,1500771648
81,16,15,Jits_Phase_8,3,5,63,98,1500811792
81,16,15,Jits_Phase_8,0,1,48,69,1501466420
81,16,15,Jits_Phase_8,1,5,56,103,1501472072
81,16,15,Jits_Phase_8,2,5,80,127,1501552092
81,16,15,Jits_Phase_8,3,5,63,98,1501571712
81,16,15,Jits_Phase_8,0,1,48,92,1502249316
81,16,15,Jits_Phase_8,1,5,56,103,1502271828
81,16,15,Jits_Phase_8,2,5,63,98,1502381728
81,16,15,Jits_Phase_8,3,5,80,127,1502384936
81,16,15,Jits_Phase_8,0,1,48,86,1503099120
81,16,15,Jits_Phase_8,1,5,56,103,1503111812
81,16,15,Jits_Phase_8,2,5,80,127,1503142388
81,16,15,Jits_Phase_8,3,5,63,98,1503161728
81,16,15,Jits_Phase_8,0,5,63,98,1503901992
81,16,15,Jits_Phase_8,1,1,48,97,1503908328
81,16,15,Jits_Phase_8,2,5,56,103,1503912404
81,16,15,Jits_Phase_8,3,5,80,127,1503921628
81,16,15,Jits_Phase_8,0,5,80,127,1504691708
81,16,15,Jits_Phase_8,1,1,48,81,1504702476
81,16,15,Jits_Phase_8,2,5,56,103,1504741604
81,16,15,Jits_Phase_8,3,5,63,98,1504781568
81,16,15,Jits_Phase_8,4,1,48,17,1505108828
81,16,15,Jits_Phase_8,0,1,48,70,1505510456
81,16,15,Jits_Phase_8,1,5,80,127,1505511952
81,16,15,Jits_Phase_8,2,5,63,98,1505532264
81,16,15,Jits_Phase_8,3,5,56,103,1505581640
81,16,15,Jits_Phase_8,0,5,80,127,1506321756
81,16,15,Jits_Phase_8,1,5,56,103,1506351580
81,16,15,Jits_Phase_8,2,1,48,90,1506373280
81,16,15,Jits_Phase_8,3,5,63,98,1506422076
81,16,15,Jits_Phase_8,0,5,56,103,1507171584
81,16,15,Jits_Phase_8,1,1,48,84,1507177316
81,16,15,Jits_Phase_8,2,5,80,127,1507182144
81,16,15,Jits_Phase_8,3,5,63,98,1507221860
81,16,15,Jits_Phase_8,0,5,56,103,1507882504
81,16,15,Jits_Phase_8,1,5,63,98,1507901768
81,16,15,Jits_Phase_8,2,5,80,127,1507971448
81,16,15,Jits_Phase_8,3,1,48,88,1507987444
81,16,15,Jits_Phase_8,0,5,63,98,1508701676
81,16,15,Jits_Phase_8,1,1,48,86,1508727492
81,16,15,Jits_Phase_8,2,5,80,127,1508761840
81,16,15,Jits_Phase_8,3,5,56,103,1508781624
81,16,15,Jits_Phase_8,0,5,80,127,1509492068
81,16,15,Jits_Phase_8,1,5,56,103,1509521820
81,16,15,Jits_Phase_8,2,1,48,91,1509549908
81,16,15,Jits_Phase_8,3,5,63,98,1509551564
81,16,15,Jits_Phase_8,0,5,56,103,1510291768
81,16,15,Jits_Phase_8,1,1,48,75,1510330176
81,16,15,Jits_Phase_8,2,5,63,98,1510352524
81,16,15,Jits_Phase_8,3,5,80,127,1510411592
81,16,15,Jits_Phase_8,0,1,48,93,1511104840
81,16,15,Jits_Phase_8,1,5,80,127,1511111988
81,16,15,Jits_Phase_8,2,5,56,103,1511131696
81,16,15,Jits_Phase_8,3,5,63,98,1511202284
81,16,15,Jits_Phase_8,0,5,80,127,1511911752
81,16,15,Jits_Phase_8,1,5,63,98,1511932360
81,16,15,Jits_Phase_8,2,1,48,80,1511938992
81,16,15,Jits_Phase_8,3,5,56,103,1511961952
81,16,15,Jits_Phase_8,0,5,80,127,1512702308
81,16,15,Jits_Phase_8,1,5,63,98,1512721720
81,16,15,Jits_Phase_8,2,1,48,86,1512726260
81,16,15,Jits_Phase_8,3,5,56,103,1512782400
81,16,15,Jits_Phase_8,0,5,80,127,1513501932
81,16,15,Jits_Phase_8,1,1,48,95,1513523104
81,16,15,Jits_Phase_8,2,5,56,103,1513602544
81,16,15,Jits_Phase_8,3,5,63,98,1513631980
81,16,15,Jits_Phase_8,0,5,63,98,1514291592
81,16,15,Jits_Phase_8,1,5,80,127,1514341644
81,16,15,Jits_Phase_8,2,5,56,103,1514362476
81,16,15,Jits_Phase_8,3,1,48,90,1514393168
81,16,15,Jits_Phase_8,0,5,80,127,1515132400
81,16,15,Jits_Phase_8,1,5,56,103,1515162000
81,16,15,Jits_Phase_8,2,5,63,98,1515165292
81,16,15,Jits_Phase_8,3,1,48,81,1515216880
81,16,15,Jits_Phase_8,0,5,63,98,1515982440
81,16,15,Jits_Phase_8,1,1,48,80,1516003548
81,16,15,Jits_Phase_8,2,5,56,103,1516022176
81,16,15,Jits_Phase_8,3,5,80,127,1516041660
81,16,15,Jits_Phase_8,0,5,80,127,1516741896
81,16,15,Jits_Phase_8,1,5,63,98,1516822092
81,16,15,Jits_Phase_8,2,1,48,89,1516843788
81,16,15,Jits_Phase_8,3,5,56,103,1516861724
81,16,15,Jits_Phase_8,0,5,63,98,1517562228
81,16,15,Jits_Phase_8,1,5,80,127,1517642172
81,16,15,Jits_Phase_8,2,1,48,88,1517648580
81,16,15,Jits_Phase_8,3,5,56,103,1517661576
81,16,15,Jits_Phase_8,0,5,56,103,1518402000
81,16,15,Jits_Phase_8,1,5,63,98,1518412344
81,16,15,Jits_Phase_8,2,1,48,76,1518446400
81,16,15,Jits_Phase_8,3,5,80,127,1518452128
81,16,15,Jits_Phase_8,0,5,56,103,1519121984
81,16,15,Jits_Phase_8,1,5,80,127,1519124828
81,16,15,Jits_Phase_8,2,1,48,88,1519217168
81,16,15,Jits_Phase_8,3,5,63,98,1519262000
81,16,15,Jits_Phase_8,0,5,56,103,1519912224
81,16,15,Jits_Phase_8,1,1,48,86,1519978868
81,16,15,Jits_Phase_8,2,5,63,98,1520002356
81,16,15,Jits_Phase_8,3,5,80,127,1520072016
81,16,15,Jits_Phase_8,0,1,48,84,1520713316
81,16,15,Jits_Phase_8,1,5,63,98,1520791936
81,16,15,Jits_Phase_8,2,5,80,127,1520795296
81,16,15,Jits_Phase_8,3,5,56,103,1520852308
81,16,15,Jits_Phase_8,0,1,48,78,1521585216
81,16,15,Jits_Phase_8,1,5,80,127,1521631696
81,16,15,Jits_Phase_8,2,5,56,103,1521652104
81,16,15,Jits_Phase_8,3,5,63,98,1521662228
81,16,15,Jits_Phase_8,0,5,56,103,1522342236
81,16,15,Jits_Phase_8,1,5,63,98,1522351384
81,16,15,Jits_Phase_8,2,5,80,127,1522422284
81,16,15,Jits_Phase_8,3,1,48,84,1522477836
81,16,15,Jits_Phase_8,0,5,80,127,1523142156
81,16,15,Jits_Phase_8,1,5,56,103,1523192308
81,16,15,Jits_Phase_8,2,1,48,94,1523210496
81,16,15,Jits_Phase_8,3,5,63,98,1523242280
81,16,15,Jits_Phase_8,0,5,56,103,1524021524
81,16,15,Jits_Phase_8,1,1,48,82,1524022936
81,16,15,Jits_Phase_8,2,5,63,98,1524031716
81,16,15,Jits_Phase_8,3,5,80,127,1524071728
81,16,15,Jits_Phase_8,0,5,56,103,1524762188
81,16,15,Jits_Phase_8,1,5,63,98,1524802124
81,16,15,Jits_Phase_8,2,1,48,73,1524835284
81,16,15,Jits_Phase_8,3,5,80,127,1524852248
81,16,15,Jits_Phase_8,0,5,80,127,1525521732
81,16,15,Jits_Phase_8,1,5,56,103,1525572232
81,16,15,Jits_Phase_8,2,1,48,89,1525584944
81,16,15,Jits_Phase_8,3,5,63,98,1525592388
81,16,15,Jits_Phase_8,0,5,80,127,1526331832
81,16,15,Jits_Phase_8,1,1,48,91,1526356600
81,16,15,Jits_Phase_8,2,5,63,98,1526392144
81,16,15,Jits_Phase_8,3,5,56,103,1526472144
81,16,15,Jits_Phase_8,0,5,80,127,1527112052
81,16,15,Jits_Phase_8,1,1,48,84,1527139756
81,16,15,Jits_Phase_8,2,5,56,103,1527152136
81,16,15,Jits_Phase_8,3,5,63,98,1527171396
81,16,15,Jits_Phase_8,0,1,48,97,1527903692
81,16,15,Jits_Phase_8,1,5,56,103,1527962008
81,16,15,Jits_Phase_8,2,5,80,127,1527972352
81,16,15,Jits_Phase_8,3,5,63,98,1528012348
81,16,15,Jits_Phase_8,0,1,48,94,1528749536
81,16,15,Jits_Phase_8,1,5,56,103,1528832368
81,16,15,Jits_Phase_8,2,5,63,98,1528872288
81,16,15,Jits_Phase_8,3,5,80,127,1528875576
81,16,15,Jits_Phase_8,0,5,63,98,1529502192
81,16,15,Jits_Phase_8,1,5,80,127,1529542056
81,16,15,Jits_Phase_8,2,1,48,89,1529589244
81,16,15,Jits_Phase_8,3,5,56,103,1529611604
81,16,15,Jits_Phase_8,0,5,63,98,1530272060
81,16,15,Jits_Phase_8,1,5,56,103,1530352180
81,16,15,Jits_Phase_8,2,1,48,97,1530368408
81,16,15,Jits_Phase_8,3,5,80,127,1530412264
81,16,15,Jits_Phase_8,0,5,80,127,1531082080
81,16,15,Jits_Phase_8,1,1,48,88,1531114068
81,16,15,Jits_Phase_8,2,5,63,98,1531132376
81,16,15,Jits_Phase_8,3,5,56,103,1531161904
81,16,15,Jits_Phase_8,0,5,56,103,1531871960
81,16,15,Jits_Phase_8,1,1,48,83,1531916080
81,16,15,Jits_Phase_8,2,5,63,98,1531921732
81,16,15,Jits_Phase_8,3,5,80,127,1531932076
81,16,15,Jits_Phase_8,0,1,48,73,1532637828
81,16,15,Jits_Phase_8,1,5,56,103,1532681492
81,16,15,Jits_Phase_8,2,5,63,98,1532792136
81,16,15,Jits_Phase_8,3,5,80,127,1532811696
81,16,15,Jits_Phase_8,0,5,63,98,1533482380
81,16,15,Jits_Phase_8,1,1,48,100,1533504532
81,16,15,Jits_Phase_8,2,5,80,127,1533531528
81,16,15,Jits_Phase_8,3,5,56,103,1533621496
81,16,15,Jits_Phase_8,0,5,63,98,1534272108
81,16,15,Jits_Phase_8,1,5,80,127,1534301488
81,16,15,Jits_Phase_8,2,1,48,74,1534314492
81,16,15,Jits_Phase_8,3,5,56,103,1534391540
81,16,15,Jits_Phase_8,0,5,63,98,1535071496
81,16,15,Jits_Phase_8,1,5,56,103,1535082060
81,16,15,Jits_Phase_8,2,1,48,73,1535140624
81,16,15,Jits_Phase_8,3,5,80,127,1535182076
81,16,15,Jits_Phase_8,0,1,48,75,1535891524
81,16,15,Jits_Phase_8,1,5,63,98,1535971636
81,16,15,Jits_Phase_8,2,5,80,127,1536002372
81,16,15,Jits_Phase_8,3,5,56,103,1536031972
81,16,15,Jits_Phase_8,0,1,48,84,1536697724
81,16,15,Jits_Phase_8,1,5,80,127,1536791956
81,16,15,Jits_Phase_8,2,5,63,98,1536802288
81,16,15,Jits_Phase_8,3,5,56,103,1536832036
81,16,15,Jits_Phase_8,0,5,80,127,1537492208
81,16,15,Jits_Phase_8,1,5,63,98,1537512380
81,16,15,Jits_Phase_8,2,1,48,74,1537560168
81,16,15,Jits_Phase_8,3,5,56,103,1537561832
81,16,15,Jits_Phase_8,0,5,63,98,1538322036
81,16,15,Jits_Phase_8,1,1,48,95,1538341348
81,16,15,Jits_Phase_8,2,5,80,127,1538382124
81,16,15,Jits_Phase_8,3,5,56,103,1538401832
81,16,15,Jits_Phase_8,0,5,63,98,1539081788
81,16,15,Jits_Phase_8,1,5,56,103,1539131768
81,16,15,Jits_Phase_8,2,1,48,86,1539135184
81,16,15,Jits_Phase_8,3,5,80,127,1539142104
81,16,15,Jits_Phase_8,0,5,56,103,1539912104
81,16,15,Jits_Phase_8,1,1,48,97,1539918440
81,16,15,Jits_Phase_8,2,5,80,127,1539922144
81,16,15,Jits_Phase_8,3,5,63,98,1540021552
81,16,15,Jits_Phase_8,0,5,80,127,1540671720
81,16,15,Jits_Phase_8,1,5,63,98,1540682068
81,16,15,Jits_Phase_8,2,1,48,81,1540700848
81,16,15,Jits_Phase_8,3,5,56,103,1540831952
81,16,15,Jits_Phase_8,0,5,63,98,1541481828
81,16,15,Jits_Phase_8,1,1,48,88,1541517008
81,16,15,Jits_Phase_8,2,5,80,127,1541521912
81,16,15,Jits_Phase_8,3,5,56,103,1541601776
81,16,15,Jits_Phase_8,0,5,56,103,1542232360
81,16,15,Jits_Phase_8,1,1,48,97,1542302236
81,16,15,Jits_Phase_8,2,5,80,127,1542331924
81,16,15,Jits_Phase_8,3,5,63,98,1542352236
81,16,15,Jits_Phase_8,0,5,80,127,1543051768
81,16,15,Jits_Phase_8,1,5,56,103,1543061964
81,16,15,Jits_Phase_8,2,1,48,81,1543083884
81,16,15,Jits_Phase_8,3,5,63,98,1543152112
81,16,15,Jits_Phase_8,0,5,56,103,1543852736
81,16,15,Jits_Phase_8,1,5,63,98,1543871776
81,16,15,Jits_Phase_8,2,1,48,70,1543892728
81,16,15,Jits_Phase_8,3,5,80,127,1543951884
81,16,15,Jits_Phase_8,0,5,63,98,1544602092
81,16,15,Jits_Phase_8,1,1,48,76,1544653088
81,16,15,Jits_Phase_8,2,5,56,103,1544692020
81,16,15,Jits_Phase_8,3,5,80,127,1544695088
81,16,15,Jits_Phase_8,0,1,48,93,1545425552
81,16,15,Jits_Phase_8,1,5,56,103,1545432476
81,16,15,Jits_Phase_8,2,5,80,127,1545491696
81,16,15,Jits_Phase_8,3,5,63,98,1545502192
81,16,15,Jits_Phase_8,0,1,48,98,1546212360
81,16,15,Jits_Phase_8,1,5,80,127,1546282308
81,16,15,Jits_Phase_8,2,5,56,103,1546291828
81,16,15,Jits_Phase_8,3,5,63,98,1546294820
81,16,15,Jits_Phase_8,0,1,48,83,1547035204
81,16,15,Jits_Phase_8,1,5,56,103,1547042204
81,16,15,Jits_Phase_8,2,5,80,127,1547052252
81,16,15,Jits_Phase_8,3,5,63,98,1547071960
81,16,15,Jits_Phase_8,0,5,63,98,1547812072
81,16,15,Jits_Phase_8,1,1,48,80,1547822012
81,16,15,Jits_Phase_8,2,5,80,127,1547871632
81,16,15,Jits_Phase_8,3,5,56,103,1547921744
81,16,15,Jits_Phase_8,0,1,48,87,1548649716
81,16,15,Jits_Phase_8,1,5,63,98,1548691764
81,16,15,Jits_Phase_8,2,5,56,103,1548702036
81,16,15,Jits_Phase_8,3,5,80,127,1548752148
81,16,15,Jits_Phase_8,0,5,63,98,1549392188
81,16,15,Jits_Phase_8,1,5,80,127,1549411824
81,16,15,Jits_Phase_8,2,5,56,103,1549421944
81,16,15,Jits_Phase_8,3,1,48,88,1549460056
81,16,15,Jits_Phase_8,0,5,63,98,1550191856
81,16,15,Jits_Phase_8,1,5,80,127,1550195148
81,16,15,Jits_Phase_8,2,1,48,84,1550228836
81,16,15,Jits_Phase_8,3,5,56,103,1550231868
81,16,15,Jits_Phase_8,0,1,48,88,1550983404
81,16,15,Jits_Phase_8,1,5,63,98,1551062620
81,16,15,Jits_Phase_8,2,5,80,127,1551092084
81,16,15,Jits_Phase_8,3,5,56,103,1551102428
81,16,15,Jits_Phase_8,0,5,56,103,1551811892
81,16,15,Jits_Phase_8,1,1,48,97,1551813008
81,16,15,Jits_Phase_8,2,5,80,127,1551841712
81,16,15,Jits_Phase_8,3,5,63,98,1551872604
81,16,15,Jits_Phase_8,0,1,48,88,1552646192
81,16,15,Jits_Phase_8,1,5,63,98,1552712076
81,16,15,Jits_Phase_8,2,5,56,103,1552751924
81,16,15,Jits_Phase_8,3,5,80,127,1552755064
81,16,15,Jits_Phase_8,0,5,80,127,1553411744
81,16,15,Jits_Phase_8,1,1,48,95,1553440944
81,16,15,Jits_Phase_8,2,5,56,103,1553492580
81,16,15,Jits_Phase_8,3,5,63,98,1553541648
81,16,15,Jits_Phase_8,0,5,80,127,1554191668
81,16,15,Jits_Phase_8,1,5,56,103,1554212424
81,16,15,Jits_Phase_8,2,1,48,97,1554298100
81,16,15,Jits_Phase_8,3,5,63,98,1554302400
81,16,15,Jits_Phase_8,0,5,80,127,1555032568
81,16,15,Jits_Phase_8,1,5,63,98,1555072728
81,16,15,Jits_Phase_8,2,1,48,85,1555080052
81,16,15,Jits_Phase_8,3,5,56,103,1555112508
81,16,15,Jits_Phase_8,0,5,63,98,1555842532
81,16,15,Jits_Phase_8,1,5,80,127,1555901876
81,16,15,Jits_Phase_8,2,1,48,95,1555922676
81,16,15,Jits_Phase_8,3,5,56,103,1555931620
81,16,15,Jits_Phase_8,0,5,56,103,1556682068
81,16,15,Jits_Phase_8,1,1,48,92,1556684736
81,16,15,Jits_Phase_8,2,5,80,127,1556711760
81,16,15,Jits_Phase_8,3,5,63,98,1556801876
81,16,15,Jits_Phase_8,0,5,56,103,1557492052
81,16,15,Jits_Phase_8,1,1,48,91,1557526408
81,16,15,Jits_Phase_8,2,5,80,127,1557601660
81,16,15,Jits_Phase_8,3,5,63,98,1557632736
81,16,15,Jits_Phase_8,0,1,48,89,1558335172
81,16,15,Jits_Phase_8,1,5,56,103,1558341944
81,16,15,Jits_Phase_8,2,5,63,98,1558402560
81,16,15,Jits_Phase_8,3,5,80,127,1558432160
81,16,15,Jits_Phase_8,0,5,56,103,1559112192
81,16,15,Jits_Phase_8,1,1,48,84,1559149784
81,16,15,Jits_Phase_8,2,5,63,98,1559181644
81,16,15,Jits_Phase_8,3,5,80,127,1559202028
81,16,15,Jits_Phase_8,0,5,80,127,1559882368
81,16,15,Jits_Phase_8,1,5,63,98,1559901484
81,16,15,Jits_Phase_8,2,1,48,84,1559940344
81,16,15,Jits_Phase_8,3,5,56,103,1559951676
81,16,15,Jits_Phase_8,0,5,63,98,1560702588
81,16,15,Jits_Phase_8,1,5,80,127,1560711516
81,16,15,Jits_Phase_8,2,1,48,95,1560722052
81,16,15,Jits_Phase_8,3,5,56,103,1560761780
81,16,15,Jits_Phase_8,0,5,63,98,1561501972
81,16,15,Jits_Phase_8,1,1,48,92,1561507628
81,16,15,Jits_Phase_8,2,5,80,127,1561571648
81,16,15,Jits_Phase_8,3,5,56,103,1561592280
81,16,15,Jits_Phase_8,0,5,63,98,1562331472
81,16,15,Jits_Phase_8,1,5,80,127,1562334688
81,16,15,Jits_Phase_8,2,1,48,104,1562344132
81,16,15,Jits_Phase_8,3,5,56,103,1562402440
81,16,15,Jits_Phase_8,0,5,80,127,1563082384
81,16,15,Jits_Phase_8,1,5,56,103,1563101500
81,16,15,Jits_Phase_8,2,5,63,98,1563111796
81,16,15,Jits_Phase_8,3,1,48,84,1563147120
81,16,15,Jits_Phase_8,0,5,56,103,1563902480
81,16,15,Jits_Phase_8,1,1,48,90,1563947476
81,16,15,Jits_Phase_8,2,5,63,98,1563992304
81,16,15,Jits_Phase_8,3,5,80,127,1563995524
81,16,15,Jits_Phase_8,0,5,80,127,1564672352
81,16,15,Jits_Phase_8,1,5,56,103,1564681576
81,16,15,Jits_Phase_8,2,5,63,98,1564702260
81,16,15,Jits_Phase_8,3,1,48,102,1564715716
81,16,15,Jits_Phase_8,0,5,63,98,1565472192
81,16,15,Jits_Phase_8,1,1,48,81,1565526260
81,16,15,Jits_Phase_8,2,5,80,127,1565531456
81,16,15,Jits_Phase_8,3,5,56,103,1565541728
81,16,15,Jits_Phase_8,0,1,48,92,1566297532
81,16,15,Jits_Phase_8,1,5,63,98,1566341620
81,16,15,Jits_Phase_8,2,5,80,127,1566372340
81,16,15,Jits_Phase_8,3,5,56,103,1566412264
81,16,15,Jits_Phase_8,0,5,56,103,1567132100
81,16,15,Jits_Phase_8,1,1,48,104,1567140476
81,16,15,Jits_Phase_8,2,5,80,127,1567142288
81,16,15,Jits_Phase_8,3,5,63,98,1567182300
81,16,15,Jits_Phase_8,0,5,80,127,1567891800
81,16,15,Jits_Phase_8,1,1,48,84,1567950216
81,16,15,Jits_Phase_8,2,5,56,103,1567971664
81,16,15,Jits_Phase_8,3,5,63,98,1567981884
81,16,15,Jits_Phase_8,0,1,48,76,1568722784
81,16,15,Jits_Phase_8,1,5,80,127,1568741616
81,16,15,Jits_Phase_8,2,5,56,103,1568821720
81,16,15,Jits_Phase_8,3,5,63,98,1568831840
81,16,15,Jits_Phase_8,0,1,48,80,1569522352
81,16,15,Jits_Phase_8,1,5,80,127,1569581416
81,16,15,Jits_Phase_8,2,5,56,103,1569631532
81,16,15,Jits_Phase_8,3,5,63,98,1569681732
81,16,15,Jits_Phase_8,0,1,48,86,1570406756
81,16,15,Jits_Phase_8,1,5,56,103,1570521404
81,16,15,Jits_Phase_8,2,5,63,98,1570524616
81,16,15,Jits_Phase_8,3,5,80,127,1570571628
81,16,15,Jits_Phase_8,0,1,48,97,1571309396
81,16,15,Jits_Phase_8,1,5,56,103,1571341724
81,16,15,Jits_Phase_8,2,5,63,98,1571372520
81,16,15,Jits_Phase_8,3,5,80,127,1571381744
81,16,15,Jits_Phase_8,0,5,63,98,1572052388
81,16,15,Jits_Phase_8,1,5,56,103,1572122024
81,16,15,Jits_Phase_8,2,1,48,101,1572152188
81,16,15,Jits_Phase_8,3,5,80,127,1572172216
81,16,15,Jits_Phase_8,0,5,63,98,1572881704
81,16,15,Jits_Phase_8,1,5,56,103,1572892120
81,16,15,Jits_Phase_8,2,5,80,127,1572895116
81,16,15,Jits_Phase_8,3,1,48,99,1572938684
81,16,15,Jits_Phase_8,0,5,80,127,1573632448
81,16,15,Jits_Phase_8,1,5,56,103,1573691868
81,16,15,Jits_Phase_8,2,1,48,101,1573697080
81,16,15,Jits_Phase_8,3,5,63,98,1573782212
81,16,15,Jits_Phase_8,0,5,80,127,1574432072
81,16,15,Jits_Phase_8,1,1,48,97,1574502396
81,16,15,Jits_Phase_8,2,5,56,103,1574531416
81,16,15,Jits_Phase_8,3,5,63,98,1574572328
81,16,15,Jits_Phase_8,0,5,56,103,1575282264
81,16,15,Jits_Phase_8,1,5,63,98,1575301456
81,16,15,Jits_Phase_8,2,1,48,91,1575313264
81,16,15,Jits_Phase_8,3,5,80,127,1575341384
81,16,15,Jits_Phase_8,0,5,63,98,1576052068
81,16,15,Jits_Phase_8,1,5,56,103,1576071484
81,16,15,Jits_Phase_8,2,1,48,75,1576116924
81,16,15,Jits_Phase_8,3,5,80,127,1576172040
81,16,15,Jits_Phase_8,0,5,63,98,1576841488
81,16,15,Jits_Phase_8,1,1,48,80,1576847820
81,16,15,Jits_Phase_8,2,5,80,127,1576952224
81,16,15,Jits_Phase_8,3,5,56,103,1576982120
81,16,15,Jits_Phase_8,0,5,56,103,1577662072
81,16,15,Jits_Phase_8,1,1,48,82,1577689328
81,16,15,Jits_Phase_8,2,5,63,98,1577691444
81,16,15,Jits_Phase_8,3,5,80,127,1577741744
81,16,15,Jits_Phase_8,0,5,63,98,1578431948
81,16,15,Jits_Phase_8,1,1,48,76,1578454844
81,16,15,Jits_Phase_8,2,5,56,103,1578461468
81,16,15,Jits_Phase_8,3,5,80,127,1578511624
81,16,15,Jits_Phase_8,0,5,56,103,1579262224
81,16,15,Jits_Phase_8,1,5,63,98,1579281932
81,16,15,Jits_Phase_8,2,1,48,75,1579283872
81,16,15,Jits_Phase_8,3,5,80,127,1579361644
81,16,15,Jits_Phase_8,0,5,63,98,1580032252
81,16,15,Jits_Phase_8,1,1,48,79,1580064068
81,16,15,Jits_Phase_8,2,5,56,103,1580091888
81,16,15,Jits_Phase_8,3,5,80,127,1580121488
81,16,15,Jits_Phase_8,0,1,48,75,1580859076
81,16,15,Jits_Phase_8,1,5,56,103,1580871924
81,16,15,Jits_Phase_8,2,5,80,127,1580931416
81,16,15,Jits_Phase_8,3,5,63,98,1580972460
81,16,15,Jits_Phase_8,0,5,63,98,1581652284
81,16,15,Jits_Phase_8,1,5,56,103,1581711852
81,16,15,Jits_Phase_8,2,1,48,64,1581712820
81,16,15,Jits_Phase_8,3,5,80,127,1581782348
81,16,15,Jits_Phase_8,0,1,48,90,1582505428
81,16,15,Jits_Phase_8,1,5,56,103,1582532052
81,16,15,Jits_Phase_8,2,5,63,98,1582542096
81,16,15,Jits_Phase_8,3,5,80,127,1582545612
81,16,15,Jits_Phase_8,0,5,63,98,1583272252
81,16,15,Jits_Phase_8,1,1,48,85,1583316720
81,16,15,Jits_Phase_8,2,5,56,103,1583331808
81,16,15,Jits_Phase_8,3,5,80,127,1583334976
81,16,15,Jits_Phase_8,0,5,63,98,1584051848
81,16,15,Jits_Phase_8,1,1,48,94,1584075344
81,16,15,Jits_Phase_8,2,5,80,127,1584082416
81,16,15,Jits_Phase_8,3,5,56,103,1584101924
81,16,15,Jits_Phase_8,0,5,56,103,1584781772
81,16,15,Jits_Phase_8,1,5,63,98,1584831828
81,16,15,Jits_Phase_8,2,1,48,102,1584854500
81,16,15,Jits_Phase_8,3,5,80,127,1584911860
81,16,15,Jits_Phase_8,0,5,80,127,1585482224
81,16,15,Jits_Phase_8,1,5,63,98,1585522088
81,16,15,Jits_Phase_8,2,5,56,103,1585541352
81,16,15,Jits_Phase_8,3,1,48,80,1585629356
81,16,15,Jits_Phase_8,0,5,56,103,1586351448
81,16,15,Jits_Phase_8,1,5,80,127,1586361940
81,16,15,Jits_Phase_8,2,5,63,98,1586382324
81,16,15,Jits_Phase_8,3,1,48,75,1586396004
81,16,15,Jits_Phase_8,0,5,56,103,1587131892
81,16,15,Jits_Phase_8,1,5,63,98,1587181896
81,16,15,Jits_Phase_8,2,5,80,127,1587211572
81,16,15,Jits_Phase_8,3,1,48,90,1587223008
81,16,15,Jits_Phase_8,0,5,56,103,1587882372
81,16,15,Jits_Phase_8,1,5,63,98,1587891744
81,16,15,Jits_Phase_8,2,5,80,127,1587941968
81,16,15,Jits_Phase_8,3,1,48,86,1587983292
81,16,15,Jits_Phase_8,0,5,56,103,1588671948
81,16,15,Jits_Phase_8,1,5,80,127,1588674864
81,16,15,Jits_Phase_8,2,1,48,96,1588694916
81,16,15,Jits_Phase_8,3,5,63,98,1588831676
81,16,15,Jits_Phase_8,0,5,63,98,1589492188
81,16,15,Jits_Phase_8,1,1,48,101,1589531728
81,16,15,Jits_Phase_8,2,5,56,103,1589561864
81,16,15,Jits_Phase_8,3,5,80,127,1589601728
81,16,15,Jits_Phase_8,0,5,63,98,1590331744
81,16,15,Jits_Phase_8,1,1,48,100,1590356732
81,16,15,Jits_Phase_8,2,5,56,103,1590421796
81,16,15,Jits_Phase_8,3,5,80,127,1590424860
81,16,15,Jits_Phase_8,0,5,56,103,1591112024
81,16,15,Jits_Phase_8,1,1,48,93,1591190820
81,16,15,Jits_Phase_8,2,5,63,98,1591202076
81,16,15,Jits_Phase_8,3,5,80,127,1591212272
81,16,15,Jits_Phase_8,0,5,56,103,1591882132
81,16,15,Jits_Phase_8,1,5,63,98,1591932260
81,16,15,Jits_Phase_8,2,5,80,127,1591961860
81,16,15,Jits_Phase_8,3,1,48,94,1591980268
81,16,15,Jits_Phase_8,0,1,48,95,1592753044
81,16,15,Jits_Phase_8,1,5,63,98,1592761984
81,16,15,Jits_Phase_8,2,5,80,127,1592771960
81,16,15,Jits_Phase_8,3,5,56,103,1592832296
81,16,15,Jits_Phase_8,0,5,63,98,1593481664
81,16,15,Jits_Phase_8,1,5,80,127,1593541908
81,16,15,Jits_Phase_8,2,5,56,103,1593581796
81,16,15,Jits_Phase_8,3,1,48,86,1593620732
81,16,15,Jits_Phase_8,0,5,56,103,1594381916
81,16,15,Jits_Phase_8,1,5,80,127,1594402152
81,16,15,Jits_Phase_8,2,1,48,81,1594407068
81,16,15,Jits_Phase_8,3,5,63,98,1594421780
81,16,15,Jits_Phase_8,0,5,63,98,1595101508
81,16,15,Jits_Phase_8,1,5,56,103,1595121992
81,16,15,Jits_Phase_8,2,5,80,127,1595161856
81,16,15,Jits_Phase_8,3,1,48,67,1595237636
81,16,15,Jits_Phase_8,0,5,63,98,1595911480
81,16,15,Jits_Phase_8,1,5,80,127,1595942352
81,16,15,Jits_Phase_8,2,5,56,103,1595961688
81,16,15,Jits_Phase_8,3,1,48,91,1595985108
81,16,15,Jits_Phase_8,0,5,80,127,1596681568
81,16,15,Jits_Phase_8,1,5,56,103,1596731696
81,16,15,Jits_Phase_8,2,1,48,69,1596740740
81,16,15,Jits_Phase_8,3,5,63,98,1596792300
81,16,15,Jits_Phase_8,0,5,63,98,1597472116
81,16,15,Jits_Phase_8,1,1,48,95,1597515168
81,16,15,Jits_Phase_8,2,5,56,103,1597591840
81,16,15,Jits_Phase_8,3,5,80,127,1597621720
81,16,15,Jits_Phase_8,0,1,48,100,1598300248
81,16,15,Jits_Phase_8,1,5,80,127,1598311876
81,16,15,Jits_Phase_8,2,5,63,98,1598332188
81,16,15,Jits_Phase_8,3,5,56,103,1598402000
81,16,15,Jits_Phase_8,0,5,63,98,1599131900
81,16,15,Jits_Phase_8,1,5,56,103,1599142392
81,16,15,Jits_Phase_8,2,1,48,90,1599143804
81,16,15,Jits_Phase_8,3,5,80,127,1599222056
81,16,15,Jits_Phase_8,0,1,48,106,1599960700
81,16,15,Jits_Phase_8,1,5,56,103,1599992136
81,16,15,Jits_Phase_8,2,5,80,127,1600021964
81,16,15,Jits_Phase_8,3,5,63,98,1600032232
81,16,15,Jits_Phase_8,0,9999,9999,9999,1465139300
81,16,15,Jits_Phase_8,1,9999,9999,9999,1465940040
81,16,15,Jits_Phase_8,2,9999,9999,9999,1466739816
81,16,15,Jits_Phase_8,3,9999,9999,9999,1467539516
81,16,15,Jits_Phase_8,4,9999,9999,9999,1468339284
81,16,15,Jits_Phase_8,5,9999,9999,9999,1469140092
81,16,15,Jits_Phase_8,6,9999,9999,9999,1469939800
81,16,15,Jits_Phase_8,7,9999,9999,9999,1470739572
81,16,15,Jits_Phase_8,8,9999,9999,9999,1471539276
81,16,15,Jits_Phase_8,9,9999,9999,9999,1472340068
81,16,15,Jits_Phase_8,10,9999,9999,9999,1473139772
81,16,15,Jits_Phase_8,11,9999,9999,9999,1473939532
81,16,15,Jits_Phase_8,12,9999,9999,9999,1474739308
81,16,15,Jits_Phase_8,13,9999,9999,9999,1475540052
81,16,15,Jits_Phase_8,14,9999,9999,9999,1476339820
81,16,15,Jits_Phase_8,15,9999,9999,9999,1477139568
81,16,15,Jits_Phase_8,16,9999,9999,9999,1477939308
81,16,15,Jits_Phase_8,17,9999,9999,9999,1478740056
81,16,15,Jits_Phase_8,18,9999,9999,9999,1479539820
81,16,15,Jits_Phase_8,19,9999,9999,9999,1480339520
81,16,15,Jits_Phase_8,20,9999,9999,9999,1481139276
81,16,15,Jits_Phase_8,21,9999,9999,9999,1481940076
81,16,15,Jits_Phase_8,22,9999,9999,9999,1482739792
81,16,15,Jits_Phase_8,23,9999,9999,9999,1483539564
81,16,15,Jits_Phase_8,24,9999,9999,9999,1484339320
81,16,15,Jits_Phase_8,25,9999,9999,9999,1485140044
81,16,15,Jits_Phase_8,26,9999,9999,9999,1485939820
81,16,15,Jits_Phase_8,27,9999,9999,9999,1486739576
81,16,15,Jits_Phase_8,28,9999,9999,9999,1487539284
81,16,15,Jits_Phase_8,29,9999,9999,9999,1488340036
81,16,15,Jits_Phase_8,30,9999,9999,9999,1489119288
81,16,15,Jits_Phase_8,31,9999,9999,9999,1489920116
81,16,15,Jits_Phase_8,32,9999,9999,9999,1490730072
81,16,15,Jits_Phase_8,33,9999,9999,9999,1491529840
81,16,15,Jits_Phase_8,34,9999,9999,9999,1492329536
81,16,15,Jits_Phase_8,35,9999,9999,9999,1493129304
81,16,15,Jits_Phase_8,36,9999,9999,9999,1493930044
81,16,15,Jits_Phase_8,37,9999,9999,9999,1494729804
81,16,15,Jits_Phase_8,38,9999,9999,9999,1495529568
81,16,15,Jits_Phase_8,39,9999,9999,9999,1496329292
81,16,15,Jits_Phase_8,40,9999,9999,9999,1497130044
81,16,15,Jits_Phase_8,41,9999,9999,9999,1497929816
81,16,15,Jits_Phase_8,42,9999,9999,9999,1498729572
81,16,15,Jits_Phase_8,43,9999,9999,9999,1499529332
81,16,15,Jits_Phase_8,44,9999,9999,9999,1500330096
81,16,15,Jits_Phase_8,45,9999,9999,9999,1501129784
81,16,15,Jits_Phase_8,46,9999,9999,9999,1501929580
81,16,15,Jits_Phase_8,47,9999,9999,9999,1502729332
81,16,15,Jits_Phase_8,48,9999,9999,9999,1503549548
81,16,15,Jits_Phase_8,49,9999,9999,9999,1504349300
81,16,15,Jits_Phase_8,50,9999,9999,9999,1505150024
81,16,15,Jits_Phase_8,51,9999,9999,9999,1505949808
81,16,15,Jits_Phase_8,52,9999,9999,9999,1506749492
81,16,15,Jits_Phase_8,53,9999,9999,9999,1507549276
81,16,15,Jits_Phase_8,54,9999,9999,9999,1508350044
81,16,15,Jits_Phase_8,55,9999,9999,9999,1509149816
81,16,15,Jits_Phase_8,56,9999,9999,9999,1509949496
81,16,15,Jits_Phase_8,57,9999,9999,9999,1510749272
81,16,15,Jits_Phase_8,58,9999,9999,9999,1511550016
81,16,15,Jits_Phase_8,59,9999,9999,9999,1512349820
81,16,15,Jits_Phase_8,60,9999,9999,9999,1513149520
81,16,15,Jits_Phase_8,61,9999,9999,9999,1513949296
81,16,15,Jits_Phase_8,62,9999,9999,9999,1514750064
81,16,15,Jits_Phase_8,63,9999,9999,9999,1515549816
81,16,15,Jits_Phase_8,64,9999,9999,9999,1516389452
81,16,15,Jits_Phase_8,65,9999,9999,9999,1517189212
81,16,15,Jits_Phase_8,66,9999,9999,9999,1517989964
81,16,15,Jits_Phase_8,67,9999,9999,9999,1518789732
81,16,15,Jits_Phase_8,68,9999,9999,9999,1519589492
81,16,15,Jits_Phase_8,69,9999,9999,9999,1520389212
81,16,15,Jits_Phase_8,70,9999,9999,9999,1521189952
81,16,15,Jits_Phase_8,71,9999,9999,9999,1521989716
81,16,15,Jits_Phase_8,72,9999,9999,9999,1522789472
81,16,15,Jits_Phase_8,73,9999,9999,9999,1523589172
81,16,15,Jits_Phase_8,74,9999,9999,9999,1524390000
81,16,15,Jits_Phase_8,75,9999,9999,9999,1525189700
81,16,15,Jits_Phase_8,76,9999,9999,9999,1525989468
81,16,15,Jits_Phase_8,77,9999,9999,9999,1526789188
81,16,15,Jits_Phase_8,78,9999,9999,9999,1527590004
81,16,15,Jits_Phase_8,79,9999,9999,9999,1528389696
81,16,15,Jits_Phase_8,80,9999,9999,9999,1529189456
81,16,15,Jits_Phase_8,81,9999,9999,9999,1529949280
81,16,15,Jits_Phase_8,82,9999,9999,9999,1530750016
81,16,15,Jits_Phase_8,83,9999,9999,9999,1531549772
81,16,15,Jits_Phase_8,84,9999,9999,9999,1532349536
81,16,15,Jits_Phase_8,85,9999,9999,9999,1533149240
81,16,15,Jits_Phase_8,86,9999,9999,9999,1533950072
81,16,15,Jits_Phase_8,87,9999,9999,9999,1534749768
81,16,15,Jits_Phase_8,88,9999,9999,9999,1535549520
81,16,15,Jits_Phase_8,89,9999,9999,9999,1536349288
81,16,15,Jits_Phase_8,90,9999,9999,9999,1537150028
81,16,15,Jits_Phase_8,91,9999,9999,9999,1537949776
81,16,15,Jits_Phase_8,92,9999,9999,9999,1538749552
81,16,15,Jits_Phase_8,93,9999,9999,9999,1539549304
81,16,15,Jits_Phase_8,94,9999,9999,9999,1540350052
81,16,15,Jits_Phase_8,95,9999,9999,9999,1541149824
81,16,15,Jits_Phase_8,96,9999,9999,9999,1541949516
81,16,15,Jits_Phase_8,97,9999,9999,9999,1542669412
81,16,15,Jits_Phase_8,98,9999,9999,9999,1543469116
81,16,15,Jits_Phase_8,99,9999,9999,9999,1544269936
81,16,15,Jits_Phase_8,100,9999,9999,9999,1545069628
81,16,15,Jits_Phase_8,101,9999,9999,9999,1545869384
81,16,15,Jits_Phase_8,102,9999,9999,9999,1546669136
81,16,15,Jits_Phase_8,103,9999,9999,9999,1547469940
81,16,15,Jits_Phase_8,104,9999,9999,9999,1548269648
81,16,15,Jits_Phase_8,105,9999,9999,9999,1549069416
81,16,15,Jits_Phase_8,106,9999,9999,9999,1549869164
81,16,15,Jits_Phase_8,107,9999,9999,9999,1550669952
81,16,15,Jits_Phase_8,108,9999,9999,9999,1551469636
81,16,15,Jits_Phase_8,109,9999,9999,9999,1552269392
81,16,15,Jits_Phase_8,110,9999,9999,9999,1553069168
81,16,15,Jits_Phase_8,111,9999,9999,9999,1553869900
81,16,15,Jits_Phase_8,112,9999,9999,9999,1554669696
81,16,15,Jits_Phase_8,113,9999,9999,9999,1555469392
81,16,15,Jits_Phase_8,114,9999,9999,9999,1556350076
81,16,15,Jits_Phase_8,115,9999,9999,9999,1557149760
81,16,15,Jits_Phase_8,116,9999,9999,9999,1557949532
81,16,15,Jits_Phase_8,117,9999,9999,9999,1558749240
81,16,15,Jits_Phase_8,118,9999,9999,9999,1559550068
81,16,15,Jits_Phase_8,119,9999,9999,9999,1560349756
81,16,15,Jits_Phase_8,120,9999,9999,9999,1561149524
81,16,15,Jits_Phase_8,121,9999,9999,9999,1561949284
81,16,15,Jits_Phase_8,122,9999,9999,9999,1562750008
81,16,15,Jits_Phase_8,123,9999,9999,9999,1563549776
81,16,15,Jits_Phase_8,124,9999,9999,9999,1564349540
81,16,15,Jits_Phase_8,125,9999,9999,9999,1565149304
81,16,15,Jits_Phase_8,126,9999,9999,9999,1565950072
81,16,15,Jits_Phase_8,127,9999,9999,9999,1566749756
81,16,15,Jits_Phase_8,128,9999,9999,9999,1567549520
81,16,15,Jits_Phase_8,129,9999,9999,9999,1568349304
81,16,15,Jits_Phase_8,130,9999,9999,9999,1569150056
81,16,15,Jits_Phase_8,131,9999,9999,9999,1570109568
81,16,15,Jits_Phase_8,132,9999,9999,9999,1570909248
81,16,15,Jits_Phase_8,133,9999,9999,9999,1571710060
81,16,15,Jits_Phase_8,134,9999,9999,9999,1572509820
81,16,15,Jits_Phase_8,135,9999,9999,9999,1573309504
81,16,15,Jits_Phase_8,136,9999,9999,9999,1574109256
81,16,15,Jits_Phase_8,137,9999,9999,9999,1574910032
81,16,15,Jits_Phase_8,138,9999,9999,9999,1575709800
81,16,15,Jits_Phase_8,139,9999,9999,9999,1576509496
81,16,15,Jits_Phase_8,140,9999,9999,9999,1577309256
81,16,15,Jits_Phase_8,141,9999,9999,9999,1578110060
81,16,15,Jits_Phase_8,142,9999,9999,9999,1578909752
81,16,15,Jits_Phase_8,143,9999,9999,9999,1579709512
81,16,15,Jits_Phase_8,144,9999,9999,9999,1580509284
81,16,15,Jits_Phase_8,145,9999,9999,9999,1581310032
81,16,15,Jits_Phase_8,146,9999,9999,9999,1582109788
81,16,15,Jits_Phase_8,147,9999,9999,9999,1582909540
81,16,15,Jits_Phase_8,148,9999,9999,9999,1583709292
81,16,15,Jits_Phase_8,149,9999,9999,9999,1584510020
81,16,15,Jits_Phase_8,150,9999,9999,9999,1585150056
81,16,15,Jits_Phase_8,151,9999,9999,9999,1585949764
81,16,15,Jits_Phase_8,152,9999,9999,9999,1586749540
81,16,15,Jits_Phase_8,153,9999,9999,9999,1587549244
81,16,15,Jits_Phase_8,154,9999,9999,9999,1588350056
81,16,15,Jits_Phase_8,155,9999,9999,9999,1589149820
81,16,15,Jits_Phase_8,156,9999,9999,9999,1589949520
81,16,15,Jits_Phase_8,157,9999,9999,9999,1590749284
81,16,15,Jits_Phase_8,158,9999,9999,9999,1591550052
81,16,15,Jits_Phase_8,159,9999,9999,9999,1592349820
81,16,15,Jits_Phase_8,160,9999,9999,9999,1593149524
81,16,15,Jits_Phase_8,161,9999,9999,9999,1593949280
81,16,15,Jits_Phase_8,162,9999,9999,9999,1594750020
81,16,15,Jits_Phase_8,163,9999,9999,9999,1595549792
81,16,15,Jits_Phase_8,164,9999,9999,9999,1596349552
81,16,15,Jits_Phase_8,165,9999,9999,9999,1597149308
81,16,15,Jits_Phase_8,166,9999,9999,9999,1597950076
81,16,15,Jits_Phase_8,167,9999,9999,9999,1598749760
81,16,15,Jits_Phase_8,168,9999,9999,9999,1599549544
81,16,15,Jits_Phase_8,169,9999,9999,9999,1600349312
81,17,17,Jits_Phase_5,0,5,56,103,1609976168
81,17,17,Jits_Phase_5,1,5,63,98,1609979420
81,17,17,Jits_Phase_5,2,5,80,127,1609982536
81,17,17,Jits_Phase_5,0,5,56,103,1610475796
81,17,17,Jits_Phase_5,1,5,63,98,1610478972
81,17,17,Jits_Phase_5,2,5,80,127,1610482244
81,17,17,Jits_Phase_5,0,1,48,44,1610958384
81,17,17,Jits_Phase_5,1,5,56,103,1610975644
81,17,17,Jits_Phase_5,2,5,80,127,1610986016
81,17,17,Jits_Phase_5,3,5,63,98,1611006252
81,17,17,Jits_Phase_5,0,5,63,98,1611426104
81,17,17,Jits_Phase_5,1,5,80,127,1611455856
81,17,17,Jits_Phase_5,2,5,56,103,1611466348
81,17,17,Jits_Phase_5,3,1,48,78,1611476812
81,17,17,Jits_Phase_5,0,1,48,70,1611943416
81,17,17,Jits_Phase_5,1,5,80,127,1611986304
81,17,17,Jits_Phase_5,2,5,56,103,1611995456
81,17,17,Jits_Phase_5,3,5,63,98,1612026424
81,17,17,Jits_Phase_5,0,5,63,98,1612475876
81,17,17,Jits_Phase_5,1,1,48,86,1612485292
81,17,17,Jits_Phase_5,2,5,56,103,1612505472
81,17,17,Jits_Phase_5,3,5,80,127,1612515668
81,17,17,Jits_Phase_5,0,5,56,103,1612926308
81,17,17,Jits_Phase_5,1,5,63,98,1612975388
81,17,17,Jits_Phase_5,2,1,48,90,1612993404
81,17,17,Jits_Phase_5,3,5,80,127,1612996064
81,17,17,Jits_Phase_5,0,5,80,127,1613426148
81,17,17,Jits_Phase_5,1,1,48,81,1613469568
81,17,17,Jits_Phase_5,2,5,63,98,1613476488
81,17,17,Jits_Phase_5,3,5,56,103,1613516276
81,17,17,Jits_Phase_5,0,5,56,103,1613925688
81,17,17,Jits_Phase_5,1,5,63,98,1613955436
81,17,17,Jits_Phase_5,2,1,48,80,1613984628
81,17,17,Jits_Phase_5,3,5,80,127,1614026376
81,17,17,Jits_Phase_5,0,5,56,103,1614425448
81,17,17,Jits_Phase_5,1,1,48,82,1614453056
81,17,17,Jits_Phase_5,2,5,80,127,1614485832
81,17,17,Jits_Phase_5,3,5,63,98,1614515504
81,17,17,Jits_Phase_5,0,5,56,103,1614936372
81,17,17,Jits_Phase_5,1,1,48,76,1614939040
81,17,17,Jits_Phase_5,2,5,63,98,1614945592
81,17,17,Jits_Phase_5,3,5,80,127,1614985676
81,17,17,Jits_Phase_5,0,5,63,98,1615425944
81,17,17,Jits_Phase_5,1,1,48,80,1615429816
81,17,17,Jits_Phase_5,2,5,80,127,1615505660
81,17,17,Jits_Phase_5,3,5,56,103,1615516152
81,17,17,Jits_Phase_5,0,1,48,87,1615921984
81,17,17,Jits_Phase_5,1,5,63,98,1615975736
81,17,17,Jits_Phase_5,2,5,56,103,1616015596
81,17,17,Jits_Phase_5,3,5,80,127,1616018668
81,17,17,Jits_Phase_5,0,5,56,103,1616435632
81,17,17,Jits_Phase_5,1,5,63,98,1616445752
81,17,17,Jits_Phase_5,2,1,48,94,1616472836
81,17,17,Jits_Phase_5,3,5,80,127,1616485608
81,17,17,Jits_Phase_5,0,5,56,103,1616926176
81,17,17,Jits_Phase_5,1,5,63,98,1616929240
81,17,17,Jits_Phase_5,2,1,48,90,1616943544
81,17,17,Jits_Phase_5,3,5,80,127,1616945428
81,17,17,Jits_Phase_5,0,1,48,90,1617410900
81,17,17,Jits_Phase_5,1,5,80,127,1617436108
81,17,17,Jits_Phase_5,2,5,56,103,1617446156
81,17,17,Jits_Phase_5,3,5,63,98,1617515968
81,17,17,Jits_Phase_5,0,1,48,87,1617884192
81,17,17,Jits_Phase_5,1,5,63,98,1617925444
81,17,17,Jits_Phase_5,2,5,56,103,1617945900
81,17,17,Jits_Phase_5,3,5,80,127,1618025976
81,17,17,Jits_Phase_5,0,1,48,87,1618385136
81,17,17,Jits_Phase_5,1,5,56,103,1618435380
81,17,17,Jits_Phase_5,2,5,80,127,1618477400
81,17,17,Jits_Phase_5,3,5,63,98,1618485572
81,17,17,Jits_Phase_5,0,1,48,81,1618894844
81,17,17,Jits_Phase_5,1,5,80,127,1618926208
81,17,17,Jits_Phase_5,2,5,63,98,1618955512
81,17,17,Jits_Phase_5,3,5,56,103,1618995436
81,17,17,Jits_Phase_5,0,1,48,76,1619418120
81,17,17,Jits_Phase_5,1,5,56,103,1619446112
81,17,17,Jits_Phase_5,2,5,63,98,1619476084
81,17,17,Jits_Phase_5,3,5,80,127,1619526120
81,17,17,Jits_Phase_5,0,1,48,73,1619923176
81,17,17,Jits_Phase_5,1,5,80,127,1619946012
81,17,17,Jits_Phase_5,2,5,56,103,1619985948
81,17,17,Jits_Phase_5,3,5,63,98,1619996144
81,17,17,Jits_Phase_5,0,5,80,127,1620436452
81,17,17,Jits_Phase_5,1,1,48,73,1620448112
81,17,17,Jits_Phase_5,2,5,63,98,1620476260
81,17,17,Jits_Phase_5,3,5,56,103,1620535676
81,17,17,Jits_Phase_5,0,5,56,103,1620936068
81,17,17,Jits_Phase_5,1,5,80,127,1620946264
81,17,17,Jits_Phase_5,2,1,48,75,1620951404
81,17,17,Jits_Phase_5,3,5,63,98,1621026072
81,17,17,Jits_Phase_5,0,5,80,127,1621435680
81,17,17,Jits_Phase_5,1,1,48,73,1621443976
81,17,17,Jits_Phase_5,2,5,63,98,1621496088
81,17,17,Jits_Phase_5,3,5,56,103,1621525984
81,17,17,Jits_Phase_5,0,5,56,103,1621935444
81,17,17,Jits_Phase_5,1,1,48,81,1621964636
81,17,17,Jits_Phase_5,2,5,80,127,1621996076
81,17,17,Jits_Phase_5,3,5,63,98,1622035792
81,17,17,Jits_Phase_5,0,1,48,74,1622473592
81,17,17,Jits_Phase_5,1,5,56,103,1622486292
81,17,17,Jits_Phase_5,2,5,63,98,1622495508
81,17,17,Jits_Phase_5,3,5,80,127,1622499104
81,17,17,Jits_Phase_5,0,5,80,127,1622936044
81,17,17,Jits_Phase_5,1,1,48,63,1622979092
81,17,17,Jits_Phase_5,2,5,63,98,1623026196
81,17,17,Jits_Phase_5,3,5,56,103,1623036464
81,17,17,Jits_Phase_5,0,5,56,103,1623435644
81,17,17,Jits_Phase_5,1,5,63,98,1623439044
81,17,17,Jits_Phase_5,2,5,80,127,1623442164
81,17,17,Jits_Phase_5,3,1,48,75,1623473228
81,17,17,Jits_Phase_5,0,1,48,75,1623933112
81,17,17,Jits_Phase_5,1,5,80,127,1623955772
81,17,17,Jits_Phase_5,2,5,63,98,1624006124
81,17,17,Jits_Phase_5,3,5,56,103,1624035656
81,17,17,Jits_Phase_5,0,5,56,103,1624436124
81,17,17,Jits_Phase_5,1,5,80,127,1624446396
81,17,17,Jits_Phase_5,2,1,48,71,1624455888
81,17,17,Jits_Phase_5,3,5,63,98,1624516068
81,17,17,Jits_Phase_5,0,5,56,103,1624945928
81,17,17,Jits_Phase_5,1,1,48,75,1624946896
81,17,17,Jits_Phase_5,2,5,63,98,1624965408
81,17,17,Jits_Phase_5,3,5,80,127,1625026020
81,17,17,Jits_Phase_5,0,5,80,127,1625426140
81,17,17,Jits_Phase_5,1,1,48,75,1625430232
81,17,17,Jits_Phase_5,2,5,63,98,1625496264
81,17,17,Jits_Phase_5,3,5,56,103,1625516272
81,17,17,Jits_Phase_5,0,1,48,81,1625926100
81,17,17,Jits_Phase_5,1,5,80,127,1625945380
81,17,17,Jits_Phase_5,2,5,56,103,1625955796
81,17,17,Jits_Phase_5,3,5,63,98,1625966140
81,17,17,Jits_Phase_5,0,1,48,65,1626429512
81,17,17,Jits_Phase_5,1,5,80,127,1626436208
81,17,17,Jits_Phase_5,2,5,56,103,1626456368
81,17,17,Jits_Phase_5,3,5,63,98,1626526032
81,17,17,Jits_Phase_5,0,1,48,80,1626921464
81,17,17,Jits_Phase_5,1,5,56,103,1626945996
81,17,17,Jits_Phase_5,2,5,80,127,1626975672
81,17,17,Jits_Phase_5,3,5,63,98,1626996128
81,17,17,Jits_Phase_5,0,1,48,68,1627417924
81,17,17,Jits_Phase_5,1,5,63,98,1627436380
81,17,17,Jits_Phase_5,2,5,56,103,1627496244
81,17,17,Jits_Phase_5,3,5,80,127,1627525384
81,17,17,Jits_Phase_5,0,1,48,76,1627914160
81,17,17,Jits_Phase_5,1,5,63,98,1627926092
81,17,17,Jits_Phase_5,2,5,80,127,1627929456
81,17,17,Jits_Phase_5,3,5,56,103,1628015904
81,17,17,Jits_Phase_5,0,1,48,67,1628422724
81,17,17,Jits_Phase_5,1,5,56,103,1628446060
81,17,17,Jits_Phase_5,2,5,63,98,1628475960
81,17,17,Jits_Phase_5,3,5,80,127,1628515672
81,17,17,Jits_Phase_5,0,1,48,66,1628940832
81,17,17,Jits_Phase_5,1,5,63,98,1628945736
81,17,17,Jits_Phase_5,2,5,56,103,1628985672
81,17,17,Jits_Phase_5,3,5,80,127,1629006208
81,17,17,Jits_Phase_5,0,1,48,71,1629442156
81,17,17,Jits_Phase_5,1,5,63,98,1629455824
81,17,17,Jits_Phase_5,2,5,56,103,1629495688
81,17,17,Jits_Phase_5,3,5,80,127,1629506032
81,17,17,Jits_Phase_5,0,5,80,127,1629936100
81,17,17,Jits_Phase_5,1,1,48,80,1629950380
81,17,17,Jits_Phase_5,2,5,63,98,1630005996
81,17,17,Jits_Phase_5,3,5,56,103,1630026008
81,17,17,Jits_Phase_5,0,1,48,89,1630410332
81,17,17,Jits_Phase_5,1,5,56,103,1630425648
81,17,17,Jits_Phase_5,2,5,80,127,1630445908
81,17,17,Jits_Phase_5,3,5,63,98,1630486068
81,17,17,Jits_Phase_5,0,1,48,77,1630926416
81,17,17,Jits_Phase_5,1,5,63,98,1630936404
81,17,17,Jits_Phase_5,2,5,80,127,1630955844
81,17,17,Jits_Phase_5,3,5,56,103,1630996076
81,17,17,Jits_Phase_5,0,1,48,78,1631412592
81,17,17,Jits_Phase_5,1,5,63,98,1631436076
81,17,17,Jits_Phase_5,2,5,56,103,1631455640
81,17,17,Jits_Phase_5,3,5,80,127,1631465784
81,17,17,Jits_Phase_5,0,1,48,70,1631909128
81,17,17,Jits_Phase_5,1,5,80,127,1631936124
81,17,17,Jits_Phase_5,2,5,56,103,1631956284
81,17,17,Jits_Phase_5,3,5,63,98,1631986060
81,17,17,Jits_Phase_5,0,1,48,68,1632397180
81,17,17,Jits_Phase_5,1,5,56,103,1632506068
81,17,17,Jits_Phase_5,2,5,80,127,1632509144
81,17,17,Jits_Phase_5,3,5,63,98,1632525784
81,17,17,Jits_Phase_5,0,5,63,98,1632926176
81,17,17,Jits_Phase_5,1,1,48,73,1632931612
81,17,17,Jits_Phase_5,2,5,56,103,1632955772
81,17,17,Jits_Phase_5,3,5,80,127,1633016108
81,17,17,Jits_Phase_5,0,1,48,80,1633436688
81,17,17,Jits_Phase_5,1,5,63,98,1633505936
81,17,17,Jits_Phase_5,2,5,56,103,1633515784
81,17,17,Jits_Phase_5,3,5,80,127,1633526128
81,17,17,Jits_Phase_5,0,1,48,80,1633947452
81,17,17,Jits_Phase_5,1,5,56,103,1633965536
81,17,17,Jits_Phase_5,2,5,80,127,1633996036
81,17,17,Jits_Phase_5,3,5,63,98,1634006380
81,17,17,Jits_Phase_5,0,1,48,75,1634463600
81,17,17,Jits_Phase_5,1,5,63,98,1634506044
81,17,17,Jits_Phase_5,2,5,56,103,1634516316
81,17,17,Jits_Phase_5,3,5,80,127,1634535976
81,17,17,Jits_Phase_5,0,5,56,103,1634936280
81,17,17,Jits_Phase_5,1,1,48,87,1634972280
81,17,17,Jits_Phase_5,2,5,63,98,1634995540
81,17,17,Jits_Phase_5,3,5,80,127,1634999056
81,17,17,Jits_Phase_5,0,1,48,83,1635445668
81,17,17,Jits_Phase_5,1,5,80,127,1635456332
81,17,17,Jits_Phase_5,2,5,56,103,1635465632
81,17,17,Jits_Phase_5,3,5,63,98,1635536208
81,17,17,Jits_Phase_5,0,1,48,81,1635929236
81,17,17,Jits_Phase_5,1,5,80,127,1635946044
81,17,17,Jits_Phase_5,2,5,56,103,1636015352
81,17,17,Jits_Phase_5,3,5,63,98,1636026204
81,17,17,Jits_Phase_5,0,1,48,77,1636444280
81,17,17,Jits_Phase_5,1,5,63,98,1636485432
81,17,17,Jits_Phase_5,2,5,56,103,1636496000
81,17,17,Jits_Phase_5,3,5,80,127,1636516308
81,17,17,Jits_Phase_5,0,5,80,127,1636936188
81,17,17,Jits_Phase_5,1,1,48,64,1636950916
81,17,17,Jits_Phase_5,2,5,63,98,1636995304
81,17,17,Jits_Phase_5,3,5,56,103,1637036288
81,17,17,Jits_Phase_5,0,1,48,82,1637444468
81,17,17,Jits_Phase_5,1,5,56,103,1637475880
81,17,17,Jits_Phase_5,2,5,63,98,1637485928
81,17,17,Jits_Phase_5,3,5,80,127,1637525940
81,17,17,Jits_Phase_5,0,5,56,103,1637935408
81,17,17,Jits_Phase_5,1,1,48,67,1637951856
81,17,17,Jits_Phase_5,2,5,80,127,1637966124
81,17,17,Jits_Phase_5,3,5,63,98,1638016544
81,17,17,Jits_Phase_5,0,1,48,72,1638419100
81,17,17,Jits_Phase_5,1,5,56,103,1638476072
81,17,17,Jits_Phase_5,2,5,63,98,1638515988
81,17,17,Jits_Phase_5,3,5,80,127,1638519356
81,17,17,Jits_Phase_5,0,1,48,76,1638924692
81,17,17,Jits_Phase_5,1,5,56,103,1638975884
81,17,17,Jits_Phase_5,2,5,63,98,1638986008
81,17,17,Jits_Phase_5,3,5,80,127,1639005716
81,17,17,Jits_Phase_5,0,5,56,103,1639435780
81,17,17,Jits_Phase_5,1,5,80,127,1639438848
81,17,17,Jits_Phase_5,2,1,48,71,1639462116
81,17,17,Jits_Phase_5,3,5,63,98,1639475636
81,17,17,Jits_Phase_5,0,1,48,79,1639953316
81,17,17,Jits_Phase_5,1,5,63,98,1639976208
81,17,17,Jits_Phase_5,2,5,56,103,1640005956
81,17,17,Jits_Phase_5,3,5,80,127,1640025444
81,17,17,Jits_Phase_5,0,5,80,127,1640446516
81,17,17,Jits_Phase_5,1,5,56,103,1640455812
81,17,17,Jits_Phase_5,2,1,48,75,1640459756
81,17,17,Jits_Phase_5,3,5,63,98,1640465852
81,17,17,Jits_Phase_5,0,1,48,81,1640927188
81,17,17,Jits_Phase_5,1,5,56,103,1640945972
81,17,17,Jits_Phase_5,2,5,80,127,1640985908
81,17,17,Jits_Phase_5,3,5,63,98,1641015956
81,17,17,Jits_Phase_5,0,1,48,68,1641432920
81,17,17,Jits_Phase_5,1,5,63,98,1641455984
81,17,17,Jits_Phase_5,2,5,80,127,1641466256
81,17,17,Jits_Phase_5,3,5,56,103,1641475552
81,17,17,Jits_Phase_5,0,1,48,82,1641935156
81,17,17,Jits_Phase_5,1,5,56,103,1641945664
81,17,17,Jits_Phase_5,2,5,63,98,1642016120
81,17,17,Jits_Phase_5,3,5,80,127,1642026388
81,17,17,Jits_Phase_5,0,1,48,78,1642446212
81,17,17,Jits_Phase_5,1,5,80,127,1642456500
81,17,17,Jits_Phase_5,2,5,56,103,1642465796
81,17,17,Jits_Phase_5,3,5,63,98,1642515776
81,17,17,Jits_Phase_5,0,1,48,76,1642935892
81,17,17,Jits_Phase_5,1,5,80,127,1642966408
81,17,17,Jits_Phase_5,2,5,56,103,1643025776
81,17,17,Jits_Phase_5,3,5,63,98,1643055584
81,17,17,Jits_Phase_5,0,1,48,87,1643460136
81,17,17,Jits_Phase_5,1,5,56,103,1643466232
81,17,17,Jits_Phase_5,2,5,80,127,1643469448
81,17,17,Jits_Phase_5,3,5,63,98,1643505972
81,17,17,Jits_Phase_5,0,5,56,103,1643995648
81,17,17,Jits_Phase_5,1,1,48,77,1644011000
81,17,17,Jits_Phase_5,2,5,63,98,1644026316
81,17,17,Jits_Phase_5,3,5,80,127,1644035536
81,17,17,Jits_Phase_5,0,5,63,98,1644505744
81,17,17,Jits_Phase_5,1,1,48,71,1644508940
81,17,17,Jits_Phase_5,2,5,80,127,1644515884
81,17,17,Jits_Phase_5,3,5,56,103,1644525856
81,17,17,Jits_Phase_5,0,5,80,127,1644955896
81,17,17,Jits_Phase_5,1,5,56,103,1645006320
81,17,17,Jits_Phase_5,2,1,48,81,1645007228
81,17,17,Jits_Phase_5,3,5,63,98,1645010652
81,17,17,Jits_Phase_5,0,5,56,103,1645485540
81,17,17,Jits_Phase_5,1,1,48,81,1645501988
81,17,17,Jits_Phase_5,2,5,80,127,1645505920
81,17,17,Jits_Phase_5,3,5,63,98,1645516264
81,17,17,Jits_Phase_5,0,5,63,98,1645965748
81,17,17,Jits_Phase_5,1,1,48,70,1645973672
81,17,17,Jits_Phase_5,2,5,56,103,1645996464
81,17,17,Jits_Phase_5,3,5,80,127,1646015804
81,17,17,Jits_Phase_5,0,1,48,83,1646465396
81,17,17,Jits_Phase_5,1,5,56,103,1646475532
81,17,17,Jits_Phase_5,2,5,80,127,1646485952
81,17,17,Jits_Phase_5,3,5,63,98,1646555628
81,17,17,Jits_Phase_5,0,1,48,66,1646965012
81,17,17,Jits_Phase_5,1,5,63,98,1646966660
81,17,17,Jits_Phase_5,2,5,80,127,1647006004
81,17,17,Jits_Phase_5,3,5,56,103,1647046016
81,17,17,Jits_Phase_5,0,1,48,73,1647453580
81,17,17,Jits_Phase_5,1,5,56,103,1647476076
81,17,17,Jits_Phase_5,2,5,63,98,1647486496
81,17,17,Jits_Phase_5,3,5,80,127,1647505832
81,17,17,Jits_Phase_5,0,1,48,65,1647941176
81,17,17,Jits_Phase_5,1,5,63,98,1648015680
81,17,17,Jits_Phase_5,2,5,80,127,1648036124
81,17,17,Jits_Phase_5,3,5,56,103,1648055760
81,17,17,Jits_Phase_5,0,5,56,103,1648456024
81,17,17,Jits_Phase_5,1,1,48,74,1648458692
81,17,17,Jits_Phase_5,2,5,80,127,1648535888
81,17,17,Jits_Phase_5,3,5,63,98,1648546084
81,17,17,Jits_Phase_5,0,1,48,67,1648977036
81,17,17,Jits_Phase_5,1,5,80,127,1648995716
81,17,17,Jits_Phase_5,2,5,63,98,1649005912
81,17,17,Jits_Phase_5,3,5,56,103,1649035736
81,17,17,Jits_Phase_5,0,5,63,98,1649455760
81,17,17,Jits_Phase_5,1,1,48,83,1649471840
81,17,17,Jits_Phase_5,2,5,80,127,1649496592
81,17,17,Jits_Phase_5,3,5,56,103,1649555784
81,17,17,Jits_Phase_5,0,1,48,79,1649953824
81,17,17,Jits_Phase_5,1,5,63,98,1649965844
81,17,17,Jits_Phase_5,2,5,56,103,1650015672
81,17,17,Jits_Phase_5,3,5,80,127,1650047052
81,17,17,Jits_Phase_5,0,1,48,88,1650463160
81,17,17,Jits_Phase_5,1,5,80,127,1650466192
81,17,17,Jits_Phase_5,2,5,63,98,1650476836
81,17,17,Jits_Phase_5,3,5,56,103,1650546068
81,17,17,Jits_Phase_5,0,1,48,65,1650972276
81,17,17,Jits_Phase_5,1,5,80,127,1651026332
81,17,17,Jits_Phase_5,2,5,56,103,1651035628
81,17,17,Jits_Phase_5,3,5,63,98,1651038768
81,17,17,Jits_Phase_5,0,5,56,103,1651465624
81,17,17,Jits_Phase_5,1,1,48,91,1651486452
81,17,17,Jits_Phase_5,2,5,80,127,1651487872
81,17,17,Jits_Phase_5,3,5,63,98,1651496568
81,17,17,Jits_Phase_5,0,1,48,90,1651968424
81,17,17,Jits_Phase_5,1,5,63,98,1651975720
81,17,17,Jits_Phase_5,2,5,56,103,1652015432
81,17,17,Jits_Phase_5,3,5,80,127,1652035816
81,17,17,Jits_Phase_5,0,1,48,77,1652465704
81,17,17,Jits_Phase_5,1,5,63,98,1652476364
81,17,17,Jits_Phase_5,2,5,56,103,1652535632
81,17,17,Jits_Phase_5,3,5,80,127,1652538624
81,17,17,Jits_Phase_5,0,5,56,103,1652936156
81,17,17,Jits_Phase_5,1,1,48,91,1652953824
81,17,17,Jits_Phase_5,2,5,80,127,1652955636
81,17,17,Jits_Phase_5,3,5,63,98,1652995524
81,17,17,Jits_Phase_5,0,1,48,89,1653430188
81,17,17,Jits_Phase_5,1,5,56,103,1653465732
81,17,17,Jits_Phase_5,2,5,63,98,1653485844
81,17,17,Jits_Phase_5,3,5,80,127,1653496188
81,17,17,Jits_Phase_5,0,1,48,80,1653931432
81,17,17,Jits_Phase_5,1,5,80,127,1653935512
81,17,17,Jits_Phase_5,2,5,56,103,1653966232
81,17,17,Jits_Phase_5,3,5,63,98,1654006272
81,17,17,Jits_Phase_5,0,1,48,82,1654438524
81,17,17,Jits_Phase_5,1,5,80,127,1654445368
81,17,17,Jits_Phase_5,2,5,56,103,1654465904
81,17,17,Jits_Phase_5,3,5,63,98,1654526464
81,17,17,Jits_Phase_5,0,1,48,85,1654918644
81,17,17,Jits_Phase_5,1,5,56,103,1654956280
81,17,17,Jits_Phase_5,2,5,80,127,1654975988
81,17,17,Jits_Phase_5,3,5,63,98,1655036388
81,17,17,Jits_Phase_5,0,1,48,86,1655428728
81,17,17,Jits_Phase_5,1,5,80,127,1655435504
81,17,17,Jits_Phase_5,2,5,56,103,1655445848
81,17,17,Jits_Phase_5,3,5,63,98,1655485712
81,17,17,Jits_Phase_5,0,1,48,62,1655926532
81,17,17,Jits_Phase_5,1,5,63,98,1655936820
81,17,17,Jits_Phase_5,2,5,56,103,1655976236
81,17,17,Jits_Phase_5,3,5,80,127,1655979376
81,17,17,Jits_Phase_5,0,1,48,75,1656408292
81,17,17,Jits_Phase_5,1,5,63,98,1656455664
81,17,17,Jits_Phase_5,2,5,80,127,1656495604
81,17,17,Jits_Phase_5,3,5,56,103,1656526312
81,17,17,Jits_Phase_5,0,1,48,73,1656937332
81,17,17,Jits_Phase_5,1,5,56,103,1656946052
81,17,17,Jits_Phase_5,2,5,63,98,1656956396
81,17,17,Jits_Phase_5,3,5,80,127,1656985848
81,17,17,Jits_Phase_5,0,1,48,89,1657415432
81,17,17,Jits_Phase_5,1,5,80,127,1657435388
81,17,17,Jits_Phase_5,2,5,63,98,1657506484
81,17,17,Jits_Phase_5,3,5,56,103,1657516368
81,17,17,Jits_Phase_5,0,5,63,98,1657936560
81,17,17,Jits_Phase_5,1,1,48,86,1657946728
81,17,17,Jits_Phase_5,2,5,56,103,1658005792
81,17,17,Jits_Phase_5,3,5,80,127,1658016060
81,17,17,Jits_Phase_5,0,5,63,98,1658415412
81,17,17,Jits_Phase_5,1,5,56,103,1658436020
81,17,17,Jits_Phase_5,2,1,48,74,1658468436
81,17,17,Jits_Phase_5,3,5,80,127,1658475804
81,17,17,Jits_Phase_5,0,5,56,103,1658895612
81,17,17,Jits_Phase_5,1,5,63,98,1658906180
81,17,17,Jits_Phase_5,2,1,48,85,1658940760
81,17,17,Jits_Phase_5,3,5,80,127,1658985964
81,17,17,Jits_Phase_5,0,5,63,98,1659386604
81,17,17,Jits_Phase_5,1,1,48,79,1659408080
81,17,17,Jits_Phase_5,2,5,56,103,1659415828
81,17,17,Jits_Phase_5,3,5,80,127,1659455764
81,17,17,Jits_Phase_5,0,5,56,103,1659885904
81,17,17,Jits_Phase_5,1,1,48,77,1659887240
81,17,17,Jits_Phase_5,2,5,63,98,1659925836
81,17,17,Jits_Phase_5,3,5,80,127,1659965772
81,17,17,Jits_Phase_5,0,5,80,127,1660385592
81,17,17,Jits_Phase_5,1,1,48,95,1660390128
81,17,17,Jits_Phase_5,2,5,56,103,1660465528
81,17,17,Jits_Phase_5,3,5,63,98,1660475876
81,17,17,Jits_Phase_5,0,1,48,82,1660883416
81,17,17,Jits_Phase_5,1,5,56,103,1660926328
81,17,17,Jits_Phase_5,2,5,63,98,1660929248
81,17,17,Jits_Phase_5,3,5,80,127,1660935480
81,17,17,Jits_Phase_5,0,1,48,85,1661391028
81,17,17,Jits_Phase_5,1,5,56,103,1661455740
81,17,17,Jits_Phase_5,2,5,63,98,1661476200
81,17,17,Jits_Phase_5,3,5,80,127,1661485408
81,17,17,Jits_Phase_5,0,1,48,79,1661899248
81,17,17,Jits_Phase_5,1,5,63,98,1661915536
81,17,17,Jits_Phase_5,2,5,80,127,1661925684
81,17,17,Jits_Phase_5,3,5,56,103,1661946436
81,17,17,Jits_Phase_5,0,1,48,96,1662404396
81,17,17,Jits_Phase_5,1,5,63,98,1662416184
81,17,17,Jits_Phase_5,2,5,56,103,1662496372
81,17,17,Jits_Phase_5,3,5,80,127,1662499292
81,17,17,Jits_Phase_5,0,1,48,89,1662909456
81,17,17,Jits_Phase_5,1,5,63,98,1662916072
81,17,17,Jits_Phase_5,2,5,56,103,1662936384
81,17,17,Jits_Phase_5,3,5,80,127,1662966232
81,17,17,Jits_Phase_5,0,5,56,103,1663415600
81,17,17,Jits_Phase_5,1,1,48,67,1663420888
81,17,17,Jits_Phase_5,2,5,63,98,1663436576
81,17,17,Jits_Phase_5,3,5,80,127,1663446324
81,17,17,Jits_Phase_5,0,1,48,82,1663890828
81,17,17,Jits_Phase_5,1,5,56,103,1663946372
81,17,17,Jits_Phase_5,2,5,63,98,1663975772
81,17,17,Jits_Phase_5,3,5,80,127,1663979212
81,17,17,Jits_Phase_5,0,5,56,103,1664395704
81,17,17,Jits_Phase_5,1,1,48,79,1664406316
81,17,17,Jits_Phase_5,2,5,63,98,1664435560
81,17,17,Jits_Phase_5,3,5,80,127,1664496120
81,17,17,Jits_Phase_5,0,1,48,74,1664905176
81,17,17,Jits_Phase_5,1,5,56,103,1664915912
81,17,17,Jits_Phase_5,2,5,63,98,1664926036
81,17,17,Jits_Phase_5,3,5,80,127,1664985448
81,17,17,Jits_Phase_5,0,1,48,62,1665402068
81,17,17,Jits_Phase_5,1,5,56,103,1665415512
81,17,17,Jits_Phase_5,2,5,80,127,1665436192
81,17,17,Jits_Phase_5,3,5,63,98,1665465644
81,17,17,Jits_Phase_5,0,1,48,81,1665905124
81,17,17,Jits_Phase_5,1,5,80,127,1665916232
81,17,17,Jits_Phase_5,2,5,56,103,1665925456
81,17,17,Jits_Phase_5,3,5,63,98,1665946136
81,17,17,Jits_Phase_5,0,1,48,84,1666404664
81,17,17,Jits_Phase_5,1,5,63,98,1666406312
81,17,17,Jits_Phase_5,2,5,80,127,1666485512
81,17,17,Jits_Phase_5,3,5,56,103,1666495708
81,17,17,Jits_Phase_5,0,1,48,93,1666901392
81,17,17,Jits_Phase_5,1,5,80,127,1666995584
81,17,17,Jits_Phase_5,2,5,56,103,1667016268
81,17,17,Jits_Phase_5,3,5,63,98,1667019408
81,17,17,Jits_Phase_5,0,1,48,79,1667403528
81,17,17,Jits_Phase_5,1,5,63,98,1667486200
81,17,17,Jits_Phase_5,2,5,80,127,1667489416
81,17,17,Jits_Phase_5,3,5,56,103,1667545376
81,17,17,Jits_Phase_5,0,1,48,75,1667911588
81,17,17,Jits_Phase_5,1,5,56,103,1667966316
81,17,17,Jits_Phase_5,2,5,80,127,1667975612
81,17,17,Jits_Phase_5,3,5,63,98,1668015608
81,17,17,Jits_Phase_5,0,5,56,103,1668445468
81,17,17,Jits_Phase_5,1,1,48,76,1668446876
81,17,17,Jits_Phase_5,2,5,63,98,1668506220
81,17,17,Jits_Phase_5,3,5,80,127,1668516416
81,17,17,Jits_Phase_5,0,1,48,83,1668934716
81,17,17,Jits_Phase_5,1,5,63,98,1668955488
81,17,17,Jits_Phase_5,2,5,80,127,1668995500
81,17,17,Jits_Phase_5,3,5,56,103,1669036320
81,17,17,Jits_Phase_5,0,1,48,84,1669438952
81,17,17,Jits_Phase_5,1,5,56,103,1669456212
81,17,17,Jits_Phase_5,2,5,63,98,1669536080
81,17,17,Jits_Phase_5,3,5,80,127,1669540328
81,17,17,Jits_Phase_5,0,1,48,78,1669925660
81,17,17,Jits_Phase_5,1,5,80,127,1670016264
81,17,17,Jits_Phase_5,2,5,56,103,1670046220
81,17,17,Jits_Phase_5,3,5,63,98,1670049140
81,17,17,Jits_Phase_5,0,1,48,84,1670434772
81,17,17,Jits_Phase_5,1,5,56,103,1670476080
81,17,17,Jits_Phase_5,2,5,80,127,1670495568
81,17,17,Jits_Phase_5,3,5,63,98,1670535412
81,17,17,Jits_Phase_5,0,1,48,69,1670931520
81,17,17,Jits_Phase_5,1,5,80,127,1670956424
81,17,17,Jits_Phase_5,2,5,63,98,1670975984
81,17,17,Jits_Phase_5,3,5,56,103,1671036284
81,17,17,Jits_Phase_5,0,1,48,88,1671431116
81,17,17,Jits_Phase_5,1,5,63,98,1671466288
81,17,17,Jits_Phase_5,2,5,56,103,1671475512
81,17,17,Jits_Phase_5,3,5,80,127,1671525844
81,17,17,Jits_Phase_5,0,1,48,80,1671937016
81,17,17,Jits_Phase_5,1,5,56,103,1671956072
81,17,17,Jits_Phase_5,2,5,63,98,1671976232
81,17,17,Jits_Phase_5,3,5,80,127,1671985380
81,17,17,Jits_Phase_5,0,1,48,86,1672428368
81,17,17,Jits_Phase_5,1,5,56,103,1672446376
81,17,17,Jits_Phase_5,2,5,63,98,1672449368
81,17,17,Jits_Phase_5,3,5,80,127,1672466008
81,17,17,Jits_Phase_5,0,1,48,97,1672922972
81,17,17,Jits_Phase_5,1,5,63,98,1672986044
81,17,17,Jits_Phase_5,2,5,56,103,1673015568
81,17,17,Jits_Phase_5,3,5,80,127,1673046276
81,17,17,Jits_Phase_5,0,1,48,84,1673427828
81,17,17,Jits_Phase_5,1,5,80,127,1673445640
81,17,17,Jits_Phase_5,2,5,56,103,1673535904
81,17,17,Jits_Phase_5,3,5,63,98,1673539120
81,17,17,Jits_Phase_5,0,1,48,91,1673942400
81,17,17,Jits_Phase_5,1,5,56,103,1673945504
81,17,17,Jits_Phase_5,2,5,80,127,1673948572
81,17,17,Jits_Phase_5,3,5,63,98,1674026292
81,17,17,Jits_Phase_5,0,5,80,127,1674446076
81,17,17,Jits_Phase_5,1,1,48,72,1674462448
81,17,17,Jits_Phase_5,2,5,63,98,1674505584
81,17,17,Jits_Phase_5,3,5,56,103,1674536232
81,17,17,Jits_Phase_5,0,1,48,85,1674938832
81,17,17,Jits_Phase_5,1,5,63,98,1674945904
81,17,17,Jits_Phase_5,2,5,80,127,1674956100
81,17,17,Jits_Phase_5,3,5,56,103,1675026100
81,17,17,Jits_Phase_5,0,1,48,82,1675454392
81,17,17,Jits_Phase_5,1,5,56,103,1675506136
81,17,17,Jits_Phase_5,2,5,80,127,1675535664
81,17,17,Jits_Phase_5,3,5,63,98,1675586144
81,17,17,Jits_Phase_5,0,1,48,81,1675966796
81,17,17,Jits_Phase_5,1,5,63,98,1676096292
81,17,17,Jits_Phase_5,2,5,56,103,1676125520
81,17,17,Jits_Phase_5,3,5,80,127,1676128512
81,17,17,Jits_Phase_5,0,1,48,70,1676453048
81,17,17,Jits_Phase_5,1,5,63,98,1676595664
81,17,17,Jits_Phase_5,2,5,80,127,1676616124
81,17,17,Jits_Phase_5,3,5,56,103,1676626396
81,17,17,Jits_Phase_5,0,1,48,81,1676967640
81,17,17,Jits_Phase_5,1,5,56,103,1677105604
81,17,17,Jits_Phase_5,2,5,63,98,1677108896
81,17,17,Jits_Phase_5,3,5,80,127,1677125988
81,17,17,Jits_Phase_5,0,1,48,72,1677494440
81,17,17,Jits_Phase_5,1,5,56,103,1677555992
81,17,17,Jits_Phase_5,2,5,63,98,1677566264
81,17,17,Jits_Phase_5,3,5,80,127,1677596144
81,17,17,Jits_Phase_5,0,1,48,89,1677996872
81,17,17,Jits_Phase_5,1,5,63,98,1678076264
81,17,17,Jits_Phase_5,2,5,80,127,1678095884
81,17,17,Jits_Phase_5,3,5,56,103,1678135596
81,17,17,Jits_Phase_5,0,1,48,77,1678514008
81,17,17,Jits_Phase_5,1,5,56,103,1678605756
81,17,17,Jits_Phase_5,2,5,63,98,1678645752
81,17,17,Jits_Phase_5,3,5,80,127,1678649116
81,17,17,Jits_Phase_5,0,1,48,66,1679029480
81,17,17,Jits_Phase_5,1,5,80,127,1679045988
81,17,17,Jits_Phase_5,2,5,56,103,1679086024
81,17,17,Jits_Phase_5,3,5,63,98,1679136136
81,17,17,Jits_Phase_5,0,1,48,88,1679532144
81,17,17,Jits_Phase_5,1,5,56,103,1679606144
81,17,17,Jits_Phase_5,2,5,80,127,1679616492
81,17,17,Jits_Phase_5,3,5,63,98,1679646076
81,17,17,Jits_Phase_5,0,1,48,79,1680047264
81,17,17,Jits_Phase_5,1,5,56,103,1680055604
81,17,17,Jits_Phase_5,2,5,80,127,1680095764
81,17,17,Jits_Phase_5,3,5,63,98,1680145948
81,17,17,Jits_Phase_5,0,1,48,90,1680542172
81,17,17,Jits_Phase_5,1,5,56,103,1680556516
81,17,17,Jits_Phase_5,2,5,80,127,1680596452
81,17,17,Jits_Phase_5,3,5,63,98,1680645468
81,17,17,Jits_Phase_5,0,1,48,76,1681045636
81,17,17,Jits_Phase_5,1,5,80,127,1681047124
81,17,17,Jits_Phase_5,2,5,63,98,1681125820
81,17,17,Jits_Phase_5,3,5,56,103,1681136016
81,17,17,Jits_Phase_5,0,1,48,88,1681565880
81,17,17,Jits_Phase_5,1,5,80,127,1681596020
81,17,17,Jits_Phase_5,2,5,56,103,1681605992
81,17,17,Jits_Phase_5,3,5,63,98,1681625700
81,17,17,Jits_Phase_5,0,5,63,98,1682065884
81,17,17,Jits_Phase_5,1,1,48,88,1682071096
81,17,17,Jits_Phase_5,2,5,56,103,1682136376
81,17,17,Jits_Phase_5,3,5,80,127,1682139740
81,17,17,Jits_Phase_5,0,5,80,127,1682556256
81,17,17,Jits_Phase_5,1,1,48,89,1682567768
81,17,17,Jits_Phase_5,2,5,63,98,1682605404
81,17,17,Jits_Phase_5,3,5,56,103,1682646312
81,17,17,Jits_Phase_5,0,1,48,85,1683055768
81,17,17,Jits_Phase_5,1,5,63,98,1683096172
81,17,17,Jits_Phase_5,2,5,56,103,1683135960
81,17,17,Jits_Phase_5,3,5,80,127,1683146156
81,17,17,Jits_Phase_5,0,1,48,68,1683569824
81,17,17,Jits_Phase_5,1,5,63,98,1683586332
81,17,17,Jits_Phase_5,2,5,56,103,1683605968
81,17,17,Jits_Phase_5,3,5,80,127,1683626276
81,17,17,Jits_Phase_5,0,5,80,127,1684046084
81,17,17,Jits_Phase_5,1,5,56,103,1684056352
81,17,17,Jits_Phase_5,2,1,48,82,1684067344
81,17,17,Jits_Phase_5,3,5,63,98,1684075832
81,17,17,Jits_Phase_5,0,1,48,85,1684550592
81,17,17,Jits_Phase_5,1,5,63,98,1684575724
81,17,17,Jits_Phase_5,2,5,56,103,1684615660
81,17,17,Jits_Phase_5,3,5,80,127,1684646144
81,17,17,Jits_Phase_5,0,5,56,103,1685036296
81,17,17,Jits_Phase_5,1,1,48,78,1685040984
81,17,17,Jits_Phase_5,2,5,63,98,1685066040
81,17,17,Jits_Phase_5,3,5,80,127,1685095936
81,17,17,Jits_Phase_5,0,5,80,127,1685456328
81,17,17,Jits_Phase_5,1,5,56,103,1685525812
81,17,17,Jits_Phase_5,2,5,63,98,1685529028
81,17,17,Jits_Phase_5,3,1,48,87,1685537320
81,17,17,Jits_Phase_5,0,5,56,103,1685966196
81,17,17,Jits_Phase_5,1,5,63,98,1686016276
81,17,17,Jits_Phase_5,2,1,48,71,1686027860
81,17,17,Jits_Phase_5,3,5,80,127,1686046016
81,17,17,Jits_Phase_5,0,5,63,98,1686445360
81,17,17,Jits_Phase_5,1,5,80,127,1686448724
81,17,17,Jits_Phase_5,2,1,48,86,1686499668
81,17,17,Jits_Phase_5,3,5,56,103,1686505764
81,17,17,Jits_Phase_5,0,5,56,103,1686975804
81,17,17,Jits_Phase_5,1,5,80,127,1686986224
81,17,17,Jits_Phase_5,2,1,48,86,1686994668
81,17,17,Jits_Phase_5,3,5,63,98,1687036220
81,17,17,Jits_Phase_5,0,5,63,98,1687445756
81,17,17,Jits_Phase_5,1,5,56,103,1687456024
81,17,17,Jits_Phase_5,2,1,48,86,1687481308
81,17,17,Jits_Phase_5,3,5,80,127,1687485840
81,17,17,Jits_Phase_5,0,1,48,76,1687957680
81,17,17,Jits_Phase_5,1,5,63,98,1687976280
81,17,17,Jits_Phase_5,2,5,80,127,1687979720
81,17,17,Jits_Phase_5,3,5,56,103,1688005956
81,17,17,Jits_Phase_5,0,1,48,82,1688451788
81,17,17,Jits_Phase_5,1,5,63,98,1688495576
81,17,17,Jits_Phase_5,2,5,56,103,1688515960
81,17,17,Jits_Phase_5,3,5,80,127,1688519024
81,17,17,Jits_Phase_5,0,5,63,98,1688956140
81,17,17,Jits_Phase_5,1,1,48,84,1688967204
81,17,17,Jits_Phase_5,2,5,56,103,1689025960
81,17,17,Jits_Phase_5,3,5,80,127,1689046344
81,17,17,Jits_Phase_5,0,5,56,103,1689445700
81,17,17,Jits_Phase_5,1,5,63,98,1689456048
81,17,17,Jits_Phase_5,2,1,48,82,1689463800
81,17,17,Jits_Phase_5,3,5,80,127,1689546020
81,17,17,Jits_Phase_5,0,1,48,88,1689933804
81,17,17,Jits_Phase_5,1,5,56,103,1689965836
81,17,17,Jits_Phase_5,2,5,80,127,1690005848
81,17,17,Jits_Phase_5,3,5,63,98,1690016120
81,17,17,Jits_Phase_5,0,1,48,87,1690427724
81,17,17,Jits_Phase_5,1,5,56,103,1690486036
81,17,17,Jits_Phase_5,2,5,63,98,1690515784
81,17,17,Jits_Phase_5,3,5,80,127,1690545816
81,17,17,Jits_Phase_5,0,1,48,95,1690913076
81,17,17,Jits_Phase_5,1,5,80,127,1690946076
81,17,17,Jits_Phase_5,2,5,63,98,1690985940
81,17,17,Jits_Phase_5,3,5,56,103,1691007356
81,17,17,Jits_Phase_5,0,1,48,86,1691396352
81,17,17,Jits_Phase_5,1,5,56,103,1691485752
81,17,17,Jits_Phase_5,2,5,80,127,1691506124
81,17,17,Jits_Phase_5,3,5,63,98,1691525608
81,17,17,Jits_Phase_5,0,1,48,74,1691901856
81,17,17,Jits_Phase_5,1,5,63,98,1691955608
81,17,17,Jits_Phase_5,2,5,56,103,1691965804
81,17,17,Jits_Phase_5,3,5,80,127,1692026104
81,17,17,Jits_Phase_5,0,1,48,68,1692426340
81,17,17,Jits_Phase_5,1,5,56,103,1692456180
81,17,17,Jits_Phase_5,2,5,63,98,1692525992
81,17,17,Jits_Phase_5,3,5,80,127,1692546524
81,17,17,Jits_Phase_5,0,1,48,63,1692953416
81,17,17,Jits_Phase_5,1,5,56,103,1692956004
81,17,17,Jits_Phase_5,2,5,63,98,1692985676
81,17,17,Jits_Phase_5,3,5,80,127,1693025540
81,17,17,Jits_Phase_5,0,5,63,98,1693445568
81,17,17,Jits_Phase_5,1,1,48,79,1693469288
81,17,17,Jits_Phase_5,2,5,56,103,1693495836
81,17,17,Jits_Phase_5,3,5,80,127,1693505884
81,17,17,Jits_Phase_5,0,1,48,87,1693931336
81,17,17,Jits_Phase_5,1,5,56,103,1693986136
81,17,17,Jits_Phase_5,2,5,63,98,1694036324
81,17,17,Jits_Phase_5,3,5,80,127,1694045772
81,17,17,Jits_Phase_5,0,1,48,82,1694441952
81,17,17,Jits_Phase_5,1,5,56,103,1694456148
81,17,17,Jits_Phase_5,2,5,63,98,1694466416
81,17,17,Jits_Phase_5,3,5,80,127,1694546416
81,17,17,Jits_Phase_5,0,9999,9999,9999,1610223676
81,17,17,Jits_Phase_5,1,9999,9999,9999,1610723380
81,17,17,Jits_Phase_5,2,9999,9999,9999,1611223140
81,17,17,Jits_Phase_5,3,9999,9999,9999,1611723856
81,17,17,Jits_Phase_5,4,9999,9999,9999,1612223612
81,17,17,Jits_Phase_5,5,9999,9999,9999,1612723268
81,17,17,Jits_Phase_5,6,9999,9999,9999,1613223988
81,17,17,Jits_Phase_5,7,9999,9999,9999,1613723752
81,17,17,Jits_Phase_5,8,9999,9999,9999,1614223444
81,17,17,Jits_Phase_5,9,9999,9999,9999,1614723132
81,17,17,Jits_Phase_5,10,9999,9999,9999,1615223864
81,17,17,Jits_Phase_5,11,9999,9999,9999,1615723628
81,17,17,Jits_Phase_5,12,9999,9999,9999,1616223300
81,17,17,Jits_Phase_5,13,9999,9999,9999,1616724096
81,17,17,Jits_Phase_5,14,9999,9999,9999,1617223768
81,17,17,Jits_Phase_5,15,9999,9999,9999,1617723456
81,17,17,Jits_Phase_5,16,9999,9999,9999,1618223204
81,17,17,Jits_Phase_5,17,9999,9999,9999,1618723924
81,17,17,Jits_Phase_5,18,9999,9999,9999,1619223676
81,17,17,Jits_Phase_5,19,9999,9999,9999,1619723348
81,17,17,Jits_Phase_5,20,9999,9999,9999,1620224072
81,17,17,Jits_Phase_5,21,9999,9999,9999,1620734012
81,17,17,Jits_Phase_5,22,9999,9999,9999,1621233772
81,17,17,Jits_Phase_5,23,9999,9999,9999,1621733460
81,17,17,Jits_Phase_5,24,9999,9999,9999,1622233204
81,17,17,Jits_Phase_5,25,9999,9999,9999,1622733900
81,17,17,Jits_Phase_5,26,9999,9999,9999,1623233656
81,17,17,Jits_Phase_5,27,9999,9999,9999,1623733316
81,17,17,Jits_Phase_5,28,9999,9999,9999,1624234056
81,17,17,Jits_Phase_5,29,9999,9999,9999,1624733808
81,17,17,Jits_Phase_5,30,9999,9999,9999,1625223232
81,17,17,Jits_Phase_5,31,9999,9999,9999,1625723972
81,17,17,Jits_Phase_5,32,9999,9999,9999,1626223732
81,17,17,Jits_Phase_5,33,9999,9999,9999,1626723408
81,17,17,Jits_Phase_5,34,9999,9999,9999,1627223156
81,17,17,Jits_Phase_5,35,9999,9999,9999,1627723880
81,17,17,Jits_Phase_5,36,9999,9999,9999,1628223544
81,17,17,Jits_Phase_5,37,9999,9999,9999,1628723296
81,17,17,Jits_Phase_5,38,9999,9999,9999,1629224020
81,17,17,Jits_Phase_5,39,9999,9999,9999,1629723768
81,17,17,Jits_Phase_5,40,9999,9999,9999,1630223448
81,17,17,Jits_Phase_5,41,9999,9999,9999,1630723136
81,17,17,Jits_Phase_5,42,9999,9999,9999,1631223928
81,17,17,Jits_Phase_5,43,9999,9999,9999,1631723596
81,17,17,Jits_Phase_5,44,9999,9999,9999,1632223324
81,17,17,Jits_Phase_5,45,9999,9999,9999,1632724036
81,17,17,Jits_Phase_5,46,9999,9999,9999,1633223784
81,17,17,Jits_Phase_5,47,9999,9999,9999,1633723464
81,17,17,Jits_Phase_5,48,9999,9999,9999,1634233408
81,17,17,Jits_Phase_5,49,9999,9999,9999,1634733164
81,17,17,Jits_Phase_5,50,9999,9999,9999,1635233880
81,17,17,Jits_Phase_5,51,9999,9999,9999,1635733568
81,17,17,Jits_Phase_5,52,9999,9999,9999,1636233324
81,17,17,Jits_Phase_5,53,9999,9999,9999,1636734048
81,17,17,Jits_Phase_5,54,9999,9999,9999,1637233724
81,17,17,Jits_Phase_5,55,9999,9999,9999,1637733488
81,17,17,Jits_Phase_5,56,9999,9999,9999,1638233164
81,17,17,Jits_Phase_5,57,9999,9999,9999,1638733896
81,17,17,Jits_Phase_5,58,9999,9999,9999,1639233644
81,17,17,Jits_Phase_5,59,9999,9999,9999,1639733300
81,17,17,Jits_Phase_5,60,9999,9999,9999,1640234040
81,17,17,Jits_Phase_5,61,9999,9999,9999,1640733784
81,17,17,Jits_Phase_5,62,9999,9999,9999,1641233472
81,17,17,Jits_Phase_5,63,9999,9999,9999,1641733216
81,17,17,Jits_Phase_5,64,9999,9999,9999,1642253416
81,17,17,Jits_Phase_5,65,9999,9999,9999,1642753136
81,17,17,Jits_Phase_5,66,9999,9999,9999,1643253860
81,17,17,Jits_Phase_5,67,9999,9999,9999,1643753596
81,17,17,Jits_Phase_5,68,9999,9999,9999,1644253248
81,17,17,Jits_Phase_5,69,9999,9999,9999,1644753980
81,17,17,Jits_Phase_5,70,9999,9999,9999,1645253716
81,17,17,Jits_Phase_5,71,9999,9999,9999,1645753404
81,17,17,Jits_Phase_5,72,9999,9999,9999,1646253168
81,17,17,Jits_Phase_5,73,9999,9999,9999,1646753892
81,17,17,Jits_Phase_5,74,9999,9999,9999,1647253564
81,17,17,Jits_Phase_5,75,9999,9999,9999,1647753308
81,17,17,Jits_Phase_5,76,9999,9999,9999,1648254032
81,17,17,Jits_Phase_5,77,9999,9999,9999,1648753784
81,17,17,Jits_Phase_5,78,9999,9999,9999,1649253472
81,17,17,Jits_Phase_5,79,9999,9999,9999,1649753148
81,17,17,Jits_Phase_5,80,9999,9999,9999,1650253944
81,17,17,Jits_Phase_5,81,9999,9999,9999,1650733168
81,17,17,Jits_Phase_5,82,9999,9999,9999,1651233888
81,17,17,Jits_Phase_5,83,9999,9999,9999,1651733560
81,17,17,Jits_Phase_5,84,9999,9999,9999,1652233328
81,17,17,Jits_Phase_5,85,9999,9999,9999,1652734040
81,17,17,Jits_Phase_5,86,9999,9999,9999,1653233788
81,17,17,Jits_Phase_5,87,9999,9999,9999,1653733476
81,17,17,Jits_Phase_5,88,9999,9999,9999,1654233200
81,17,17,Jits_Phase_5,89,9999,9999,9999,1654733916
81,17,17,Jits_Phase_5,90,9999,9999,9999,1655233592
81,17,17,Jits_Phase_5,91,9999,9999,9999,1655733340
81,17,17,Jits_Phase_5,92,9999,9999,9999,1656234052
81,17,17,Jits_Phase_5,93,9999,9999,9999,1656733804
81,17,17,Jits_Phase_5,94,9999,9999,9999,1657233476
81,17,17,Jits_Phase_5,95,9999,9999,9999,1657733224
81,17,17,Jits_Phase_5,96,9999,9999,9999,1658233948
81,17,17,Jits_Phase_5,97,9999,9999,9999,1658683504
81,17,17,Jits_Phase_5,98,9999,9999,9999,1659183180
81,17,17,Jits_Phase_5,99,9999,9999,9999,1659683912
81,17,17,Jits_Phase_5,100,9999,9999,9999,1660183660
81,17,17,Jits_Phase_5,101,9999,9999,9999,1660683352
81,17,17,Jits_Phase_5,102,9999,9999,9999,1661184080
81,17,17,Jits_Phase_5,103,9999,9999,9999,1661694020
81,17,17,Jits_Phase_5,104,9999,9999,9999,1662193764
81,17,17,Jits_Phase_5,105,9999,9999,9999,1662693436
81,17,17,Jits_Phase_5,106,9999,9999,9999,1663193160
81,17,17,Jits_Phase_5,107,9999,9999,9999,1663693948
81,17,17,Jits_Phase_5,108,9999,9999,9999,1664193636
81,17,17,Jits_Phase_5,109,9999,9999,9999,1664693312
81,17,17,Jits_Phase_5,110,9999,9999,9999,1665194044
81,17,17,Jits_Phase_5,111,9999,9999,9999,1665693796
81,17,17,Jits_Phase_5,112,9999,9999,9999,1666193468
81,17,17,Jits_Phase_5,113,9999,9999,9999,1666693220
81,17,17,Jits_Phase_5,114,9999,9999,9999,1667243088
81,17,17,Jits_Phase_5,115,9999,9999,9999,1667743800
81,17,17,Jits_Phase_5,116,9999,9999,9999,1668243548
81,17,17,Jits_Phase_5,117,9999,9999,9999,1668743224
81,17,17,Jits_Phase_5,118,9999,9999,9999,1669243960
81,17,17,Jits_Phase_5,119,9999,9999,9999,1669743704
81,17,17,Jits_Phase_5,120,9999,9999,9999,1670243452
81,17,17,Jits_Phase_5,121,9999,9999,9999,1670743128
81,17,17,Jits_Phase_5,122,9999,9999,9999,1671243848
81,17,17,Jits_Phase_5,123,9999,9999,9999,1671743596
81,17,17,Jits_Phase_5,124,9999,9999,9999,1672243268
81,17,17,Jits_Phase_5,125,9999,9999,9999,1672744052
81,17,17,Jits_Phase_5,126,9999,9999,9999,1673243728
81,17,17,Jits_Phase_5,127,9999,9999,9999,1673743468
81,17,17,Jits_Phase_5,128,9999,9999,9999,1674243136
81,17,17,Jits_Phase_5,129,9999,9999,9999,1674743928
81,17,17,Jits_Phase_5,130,9999,9999,9999,1675243616
81,17,17,Jits_Phase_5,131,9999,9999,9999,1675843676
81,17,17,Jits_Phase_5,132,9999,9999,9999,1676343420
81,17,17,Jits_Phase_5,133,9999,9999,9999,1676843100
81,17,17,Jits_Phase_5,134,9999,9999,9999,1677343816
81,17,17,Jits_Phase_5,135,9999,9999,9999,1677843564
81,17,17,Jits_Phase_5,136,9999,9999,9999,1678343240
81,17,17,Jits_Phase_5,137,9999,9999,9999,1678844028
81,17,17,Jits_Phase_5,138,9999,9999,9999,1679343700
81,17,17,Jits_Phase_5,139,9999,9999,9999,1679843452
81,17,17,Jits_Phase_5,140,9999,9999,9999,1680343152
81,17,17,Jits_Phase_5,141,9999,9999,9999,1680843868
81,17,17,Jits_Phase_5,142,9999,9999,9999,1681343616
81,17,17,Jits_Phase_5,143,9999,9999,9999,1681843288
81,17,17,Jits_Phase_5,144,9999,9999,9999,1682344004
81,17,17,Jits_Phase_5,145,9999,9999,9999,1682843748
81,17,17,Jits_Phase_5,146,9999,9999,9999,1683343444
81,17,17,Jits_Phase_5,147,9999,9999,9999,1683843192
81,17,17,Jits_Phase_5,148,9999,9999,9999,1684343904
81,17,17,Jits_Phase_5,149,9999,9999,9999,1684843596
81,17,17,Jits_Phase_5,150,9999,9999,9999,1685244008
81,17,17,Jits_Phase_5,151,9999,9999,9999,1685743692
81,17,17,Jits_Phase_5,152,9999,9999,9999,1686243380
81,17,17,Jits_Phase_5,153,9999,9999,9999,1686743104
81,17,17,Jits_Phase_5,154,9999,9999,9999,1687243896
81,17,17,Jits_Phase_5,155,9999,9999,9999,1687743580
81,17,17,Jits_Phase_5,156,9999,9999,9999,1688243320
81,17,17,Jits_Phase_5,157,9999,9999,9999,1688744032
81,17,17,Jits_Phase_5,158,9999,9999,9999,1689243708
81,17,17,Jits_Phase_5,159,9999,9999,9999,1689743456
81,17,17,Jits_Phase_5,160,9999,9999,9999,1690243148
81,17,17,Jits_Phase_5,161,9999,9999,9999,1690743868
81,17,17,Jits_Phase_5,162,9999,9999,9999,1691243616
81,17,17,Jits_Phase_5,163,9999,9999,9999,1691743284
81,17,17,Jits_Phase_5,164,9999,9999,9999,1692244080
81,17,17,Jits_Phase_5,165,9999,9999,9999,1692743756
81,17,17,Jits_Phase_5,166,9999,9999,9999,1693243500
81,17,17,Jits_Phase_5,167,9999,9999,9999,1693743172
81,17,17,Jits_Phase_5,168,9999,9999,9999,1694243900
81,17,17,Jits_Phase_5,169,9999,9999,9999,1694743644
81,18,18,Jits_Linear_8,0,5,56,103,1704039756
81,18,18,Jits_Linear_8,1,5,63,98,1704042776
81,18,18,Jits_Linear_8,2,5,80,127,1704045904
81,18,18,Jits_Linear_8,0,5,56,103,1704870252
81,18,18,Jits_Linear_8,1,5,63,98,1704873348
81,18,18,Jits_Linear_8,2,5,80,127,1704876472
81,18,18,Jits_Linear_8,0,5,80,127,1705630040
81,18,18,Jits_Linear_8,1,1,48,76,1705701812
81,18,18,Jits_Linear_8,2,5,63,98,1705720344
81,18,18,Jits_Linear_8,3,5,56,103,1705730392
81,18,18,Jits_Linear_8,0,5,56,103,1706469764
81,18,18,Jits_Linear_8,1,5,63,98,1706480108
81,18,18,Jits_Linear_8,2,1,48,82,1706497400
81,18,18,Jits_Linear_8,3,5,80,127,1706570460
81,18,18,Jits_Linear_8,0,5,63,98,1707260460
81,18,18,Jits_Linear_8,1,1,48,85,1707272500
81,18,18,Jits_Linear_8,2,5,80,127,1707290132
81,18,18,Jits_Linear_8,3,5,56,103,1707319808
81,18,18,Jits_Linear_8,0,1,48,98,1708072904
81,18,18,Jits_Linear_8,1,5,56,103,1708079528
81,18,18,Jits_Linear_8,2,5,80,127,1708179692
81,18,18,Jits_Linear_8,3,5,63,98,1708230116
81,18,18,Jits_Linear_8,0,5,56,103,1708889404
81,18,18,Jits_Linear_8,1,5,80,127,1708939536
81,18,18,Jits_Linear_8,2,1,48,90,1708942504
81,18,18,Jits_Linear_8,3,5,63,98,1708979540
81,18,18,Jits_Linear_8,0,1,48,90,1709709068
81,18,18,Jits_Linear_8,1,5,80,127,1709730296
81,18,18,Jits_Linear_8,2,5,63,98,1709759824
81,18,18,Jits_Linear_8,3,5,56,103,1709829440
81,18,18,Jits_Linear_8,0,1,48,89,1710534364
81,18,18,Jits_Linear_8,1,5,63,98,1710569936
81,18,18,Jits_Linear_8,2,5,56,103,1710599540
81,18,18,Jits_Linear_8,3,5,80,127,1710659988
81,18,18,Jits_Linear_8,0,5,56,103,1711320448
81,18,18,Jits_Linear_8,1,5,80,127,1711323512
81,18,18,Jits_Linear_8,2,1,48,86,1711361724
81,18,18,Jits_Linear_8,3,5,63,98,1711440264
81,18,18,Jits_Linear_8,0,1,48,92,1712153684
81,18,18,Jits_Linear_8,1,5,56,103,1712200312
81,18,18,Jits_Linear_8,2,5,80,127,1712240180
81,18,18,Jits_Linear_8,3,5,63,98,1712250152
81,18,18,Jits_Linear_8,0,5,56,103,1712959772
81,18,18,Jits_Linear_8,1,5,80,127,1712980452
81,18,18,Jits_Linear_8,2,1,48,91,1712989424
81,18,18,Jits_Linear_8,3,5,63,98,1713060168
81,18,18,Jits_Linear_8,0,5,80,127,1713750324
81,18,18,Jits_Linear_8,1,1,48,105,1713783560
81,18,18,Jits_Linear_8,2,5,56,103,1713849820
81,18,18,Jits_Linear_8,3,5,63,98,1713860092
81,18,18,Jits_Linear_8,0,5,63,98,1714520364
81,18,18,Jits_Linear_8,1,5,80,127,1714579784
81,18,18,Jits_Linear_8,2,5,56,103,1714590352
81,18,18,Jits_Linear_8,3,1,48,98,1714617680
81,18,18,Jits_Linear_8,0,5,56,103,1715320040
81,18,18,Jits_Linear_8,1,1,48,96,1715353876
81,18,18,Jits_Linear_8,2,5,63,98,1715390168
81,18,18,Jits_Linear_8,3,5,80,127,1715393604
81,18,18,Jits_Linear_8,0,1,48,89,1716125596
81,18,18,Jits_Linear_8,1,5,63,98,1716149684
81,18,18,Jits_Linear_8,2,5,56,103,1716199836
81,18,18,Jits_Linear_8,3,5,80,127,1716203052
81,18,18,Jits_Linear_8,0,5,56,103,1716900208
81,18,18,Jits_Linear_8,1,5,80,127,1716903348
81,18,18,Jits_Linear_8,2,1,48,105,1716929852
81,18,18,Jits_Linear_8,3,5,63,98,1716990360
81,18,18,Jits_Linear_8,0,1,48,86,1717717684
81,18,18,Jits_Linear_8,1,5,63,98,1717729588
81,18,18,Jits_Linear_8,2,5,56,103,1717819636
81,18,18,Jits_Linear_8,3,5,80,127,1717849460
81,18,18,Jits_Linear_8,0,5,56,103,1718510096
81,18,18,Jits_Linear_8,1,1,48,97,1718565800
81,18,18,Jits_Linear_8,2,5,63,98,1718610268
81,18,18,Jits_Linear_8,3,5,80,127,1718640168
81,18,18,Jits_Linear_8,0,5,63,98,1719320060
81,18,18,Jits_Linear_8,1,5,56,103,1719330108
81,18,18,Jits_Linear_8,2,1,48,98,1719337268
81,18,18,Jits_Linear_8,3,5,80,127,1719420236
81,18,18,Jits_Linear_8,0,5,63,98,1720119672
81,18,18,Jits_Linear_8,1,1,48,105,1720134396
81,18,18,Jits_Linear_8,2,5,56,103,1720199536
81,18,18,Jits_Linear_8,3,5,80,127,1720202600
81,18,18,Jits_Linear_8,0,5,80,127,1720860092
81,18,18,Jits_Linear_8,1,5,63,98,1720879432
81,18,18,Jits_Linear_8,2,5,56,103,1720940044
81,18,18,Jits_Linear_8,3,1,48,97,1720943608
81,18,18,Jits_Linear_8,0,5,56,103,1721680236
81,18,18,Jits_Linear_8,1,5,63,98,1721699648
81,18,18,Jits_Linear_8,2,5,80,127,1721702864
81,18,18,Jits_Linear_8,3,1,48,95,1721719552
81,18,18,Jits_Linear_8,0,5,63,98,1722400052
81,18,18,Jits_Linear_8,1,1,48,97,1722477880
81,18,18,Jits_Linear_8,2,5,80,127,1722480068
81,18,18,Jits_Linear_8,3,5,56,103,1722490116
81,18,18,Jits_Linear_8,0,5,63,98,1723199952
81,18,18,Jits_Linear_8,1,1,48,74,1723218144
81,18,18,Jits_Linear_8,2,5,56,103,1723220256
81,18,18,Jits_Linear_8,3,5,80,127,1723269560
81,18,18,Jits_Linear_8,0,1,48,91,1723977956
81,18,18,Jits_Linear_8,1,5,80,127,1723980068
81,18,18,Jits_Linear_8,2,5,63,98,1724020012
81,18,18,Jits_Linear_8,3,5,56,103,1724039424
81,18,18,Jits_Linear_8,0,1,48,96,1724732444
81,18,18,Jits_Linear_8,1,5,56,103,1724790088
81,18,18,Jits_Linear_8,2,5,63,98,1724800360
81,18,18,Jits_Linear_8,3,5,80,127,1724819920
81,18,18,Jits_Linear_8,0,5,56,103,1725489456
81,18,18,Jits_Linear_8,1,1,48,97,1725537760
81,18,18,Jits_Linear_8,2,5,63,98,1725579812
81,18,18,Jits_Linear_8,3,5,80,127,1725639964
81,18,18,Jits_Linear_8,0,5,80,127,1726290200
81,18,18,Jits_Linear_8,1,5,56,103,1726299648
81,18,18,Jits_Linear_8,2,1,48,95,1726327108
81,18,18,Jits_Linear_8,3,5,63,98,1726370144
81,18,18,Jits_Linear_8,0,5,63,98,1727089968
81,18,18,Jits_Linear_8,1,1,48,91,1727114884
81,18,18,Jits_Linear_8,2,5,80,127,1727180248
81,18,18,Jits_Linear_8,3,5,56,103,1727190368
81,18,18,Jits_Linear_8,0,5,63,98,1727799596
81,18,18,Jits_Linear_8,1,5,80,127,1727850028
81,18,18,Jits_Linear_8,2,5,56,103,1727910192
81,18,18,Jits_Linear_8,3,1,48,105,1727934512
81,18,18,Jits_Linear_8,0,5,56,103,1728590148
81,18,18,Jits_Linear_8,1,5,80,127,1728640352
81,18,18,Jits_Linear_8,2,5,63,98,1728659988
81,18,18,Jits_Linear_8,3,1,48,99,1728662220
81,18,18,Jits_Linear_8,0,5,56,103,1729320232
81,18,18,Jits_Linear_8,1,5,80,127,1729379804
81,18,18,Jits_Linear_8,2,1,48,99,1729410944
81,18,18,Jits_Linear_8,3,5,63,98,1729450300
81,18,18,Jits_Linear_8,0,5,56,103,1730080068
81,18,18,Jits_Linear_8,1,5,80,127,1730109968
81,18,18,Jits_Linear_8,2,1,48,95,1730136156
81,18,18,Jits_Linear_8,3,5,63,98,1730139488
81,18,18,Jits_Linear_8,0,1,48,97,1730857084
81,18,18,Jits_Linear_8,1,5,56,103,1730879972
81,18,18,Jits_Linear_8,2,5,80,127,1730900208
81,18,18,Jits_Linear_8,3,5,63,98,1730959760
81,18,18,Jits_Linear_8,0,1,48,80,1731631824
81,18,18,Jits_Linear_8,1,5,80,127,1731719740
81,18,18,Jits_Linear_8,2,5,56,103,1731730072
81,18,18,Jits_Linear_8,3,5,63,98,1731740044
81,18,18,Jits_Linear_8,0,5,56,103,1732430128
81,18,18,Jits_Linear_8,1,1,48,94,1732442164
81,18,18,Jits_Linear_8,2,5,80,127,1732470208
81,18,18,Jits_Linear_8,3,5,63,98,1732499812
81,18,18,Jits_Linear_8,0,5,56,103,1733149960
81,18,18,Jits_Linear_8,1,5,63,98,1733179936
81,18,18,Jits_Linear_8,2,5,80,127,1733219800
81,18,18,Jits_Linear_8,3,1,48,100,1733222316
81,18,18,Jits_Linear_8,0,5,80,127,1733849544
81,18,18,Jits_Linear_8,1,5,63,98,1733899772
81,18,18,Jits_Linear_8,2,5,56,103,1733920232
81,18,18,Jits_Linear_8,3,1,48,108,1733927536
81,18,18,Jits_Linear_8,0,5,56,103,1734629716
81,18,18,Jits_Linear_8,1,1,48,98,1734663628
81,18,18,Jits_Linear_8,2,5,80,127,1734700812
81,18,18,Jits_Linear_8,3,5,63,98,1734759936
81,18,18,Jits_Linear_8,0,5,80,127,1735370128
81,18,18,Jits_Linear_8,1,1,48,97,1735438012
81,18,18,Jits_Linear_8,2,5,63,98,1735460132
81,18,18,Jits_Linear_8,3,5,56,103,1735479920
81,18,18,Jits_Linear_8,0,5,63,98,1736129824
81,18,18,Jits_Linear_8,1,5,56,103,1736150580
81,18,18,Jits_Linear_8,2,5,80,127,1736190320
81,18,18,Jits_Linear_8,3,1,48,92,1736215684
81,18,18,Jits_Linear_8,0,5,80,127,1736830376
81,18,18,Jits_Linear_8,1,5,63,98,1736849864
81,18,18,Jits_Linear_8,2,1,48,90,1736916504
81,18,18,Jits_Linear_8,3,5,56,103,1736929900
81,18,18,Jits_Linear_8,0,5,63,98,1737560540
81,18,18,Jits_Linear_8,1,1,48,90,1737629220
81,18,18,Jits_Linear_8,2,5,56,103,1737670072
81,18,18,Jits_Linear_8,3,5,80,127,1737673064
81,18,18,Jits_Linear_8,0,5,63,98,1738320204
81,18,18,Jits_Linear_8,1,5,56,103,1738329648
81,18,18,Jits_Linear_8,2,5,80,127,1738332788
81,18,18,Jits_Linear_8,3,1,48,88,1738346024
81,18,18,Jits_Linear_8,0,5,56,103,1739040224
81,18,18,Jits_Linear_8,1,1,48,107,1739080960
81,18,18,Jits_Linear_8,2,5,80,127,1739159876
81,18,18,Jits_Linear_8,3,5,63,98,1739199800
81,18,18,Jits_Linear_8,0,5,56,103,1739789804
81,18,18,Jits_Linear_8,1,1,48,84,1739845140
81,18,18,Jits_Linear_8,2,5,80,127,1739869820
81,18,18,Jits_Linear_8,3,5,63,98,1739889984
81,18,18,Jits_Linear_8,0,5,56,103,1740529940
81,18,18,Jits_Linear_8,1,1,48,96,1740579216
81,18,18,Jits_Linear_8,2,5,63,98,1740639468
81,18,18,Jits_Linear_8,3,5,80,127,1740643060
81,18,18,Jits_Linear_8,0,5,56,103,1741289772
81,18,18,Jits_Linear_8,1,5,80,127,1741319748
81,18,18,Jits_Linear_8,2,5,63,98,1741340056
81,18,18,Jits_Linear_8,3,1,48,73,1741361680
81,18,18,Jits_Linear_8,0,5,63,98,1741999684
81,18,18,Jits_Linear_8,1,5,56,103,1742009808
81,18,18,Jits_Linear_8,2,5,80,127,1742020076
81,18,18,Jits_Linear_8,3,1,48,86,1742070872
81,18,18,Jits_Linear_8,0,5,80,127,1742710052
81,18,18,Jits_Linear_8,1,5,56,103,1742760480
81,18,18,Jits_Linear_8,2,1,48,84,1742781060
81,18,18,Jits_Linear_8,3,5,63,98,1742800188
81,18,18,Jits_Linear_8,0,5,80,127,1743449660
81,18,18,Jits_Linear_8,1,5,63,98,1743469972
81,18,18,Jits_Linear_8,2,1,48,87,1743476232
81,18,18,Jits_Linear_8,3,5,56,103,1743520240
81,18,18,Jits_Linear_8,0,5,80,127,1744179532
81,18,18,Jits_Linear_8,1,5,56,103,1744210476
81,18,18,Jits_Linear_8,2,1,48,92,1744211740
81,18,18,Jits_Linear_8,3,5,63,98,1744279928
81,18,18,Jits_Linear_8,0,1,48,78,1744940832
81,18,18,Jits_Linear_8,1,5,56,103,1744949700
81,18,18,Jits_Linear_8,2,5,80,127,1744960044
81,18,18,Jits_Linear_8,3,5,63,98,1744999764
81,18,18,Jits_Linear_8,0,5,56,103,1745580344
81,18,18,Jits_Linear_8,1,5,63,98,1745599980
81,18,18,Jits_Linear_8,2,1,48,92,1745669908
81,18,18,Jits_Linear_8,3,5,80,127,1745671176
81,18,18,Jits_Linear_8,0,1,48,85,1746319872
81,18,18,Jits_Linear_8,1,5,63,98,1746321440
81,18,18,Jits_Linear_8,2,5,80,127,1746380332
81,18,18,Jits_Linear_8,3,5,56,103,1746399548
81,18,18,Jits_Linear_8,0,5,80,127,1747020284
81,18,18,Jits_Linear_8,1,5,56,103,1747049964
81,18,18,Jits_Linear_8,2,5,63,98,1747079640
81,18,18,Jits_Linear_8,3,1,48,83,1747085000
81,18,18,Jits_Linear_8,0,5,56,103,1747729848
81,18,18,Jits_Linear_8,1,1,48,75,1747778004
81,18,18,Jits_Linear_8,2,5,63,98,1747790456
81,18,18,Jits_Linear_8,3,5,80,127,1747849504
81,18,18,Jits_Linear_8,0,5,80,127,1748459796
81,18,18,Jits_Linear_8,1,1,48,110,1748465980
81,18,18,Jits_Linear_8,2,5,56,103,1748480548
81,18,18,Jits_Linear_8,3,5,63,98,1748550004
81,18,18,Jits_Linear_8,0,5,80,127,1749169572
81,18,18,Jits_Linear_8,1,5,63,98,1749189960
81,18,18,Jits_Linear_8,2,1,48,100,1749193076
81,18,18,Jits_Linear_8,3,5,56,103,1749219652
81,18,18,Jits_Linear_8,0,5,80,127,1749859668
81,18,18,Jits_Linear_8,1,1,48,105,1749878764
81,18,18,Jits_Linear_8,2,5,63,98,1749880568
81,18,18,Jits_Linear_8,3,5,56,103,1749939540
81,18,18,Jits_Linear_8,0,5,80,127,1750560104
81,18,18,Jits_Linear_8,1,1,48,91,1750611768
81,18,18,Jits_Linear_8,2,5,56,103,1750659448
81,18,18,Jits_Linear_8,3,5,63,98,1750690096
81,18,18,Jits_Linear_8,0,5,63,98,1751250464
81,18,18,Jits_Linear_8,1,5,80,127,1751299424
81,18,18,Jits_Linear_8,2,5,56,103,1751319808
81,18,18,Jits_Linear_8,3,1,48,106,1751346740
81,18,18,Jits_Linear_8,0,5,80,127,1751989620
81,18,18,Jits_Linear_8,1,5,56,103,1752020268
81,18,18,Jits_Linear_8,2,5,63,98,1752023408
81,18,18,Jits_Linear_8,3,1,48,90,1752045884
81,18,18,Jits_Linear_8,0,1,48,84,1752711808
81,18,18,Jits_Linear_8,1,5,63,98,1752719704
81,18,18,Jits_Linear_8,2,5,56,103,1752759720
81,18,18,Jits_Linear_8,3,5,80,127,1752780104
81,18,18,Jits_Linear_8,0,5,80,127,1753359664
81,18,18,Jits_Linear_8,1,1,48,76,1753414548
81,18,18,Jits_Linear_8,2,5,63,98,1753439532
81,18,18,Jits_Linear_8,3,5,56,103,1753479548
81,18,18,Jits_Linear_8,0,5,63,98,1754070336
81,18,18,Jits_Linear_8,1,1,48,86,1754122776
81,18,18,Jits_Linear_8,2,5,80,127,1754150376
81,18,18,Jits_Linear_8,3,5,56,103,1754169564
81,18,18,Jits_Linear_8,0,1,48,88,1754793864
81,18,18,Jits_Linear_8,1,5,56,103,1754799368
81,18,18,Jits_Linear_8,2,5,63,98,1754809564
81,18,18,Jits_Linear_8,3,5,80,127,1754849532
81,18,18,Jits_Linear_8,0,5,56,103,1755409732
81,18,18,Jits_Linear_8,1,5,80,127,1755412872
81,18,18,Jits_Linear_8,2,1,48,88,1755475104
81,18,18,Jits_Linear_8,3,5,63,98,1755550276
81,18,18,Jits_Linear_8,0,5,56,103,1756089672
81,18,18,Jits_Linear_8,1,1,48,98,1756157988
81,18,18,Jits_Linear_8,2,5,63,98,1756179752
81,18,18,Jits_Linear_8,3,5,80,127,1756249508
81,18,18,Jits_Linear_8,0,1,48,67,1756812016
81,18,18,Jits_Linear_8,1,5,63,98,1756849580
81,18,18,Jits_Linear_8,2,5,80,127,1756853092
81,18,18,Jits_Linear_8,3,5,56,103,1756909920
81,18,18,Jits_Linear_8,0,1,48,63,1757505600
81,18,18,Jits_Linear_8,1,5,80,127,1757570368
81,18,18,Jits_Linear_8,2,5,56,103,1757589780
81,18,18,Jits_Linear_8,3,5,63,98,1757600052
81,18,18,Jits_Linear_8,0,5,56,103,1758160180
81,18,18,Jits_Linear_8,1,5,63,98,1758169332
81,18,18,Jits_Linear_8,2,5,80,127,1758240284
81,18,18,Jits_Linear_8,3,1,48,84,1758256284
81,18,18,Jits_Linear_8,0,5,80,127,1758840128
81,18,18,Jits_Linear_8,1,5,56,103,1758890332
81,18,18,Jits_Linear_8,2,1,48,86,1758908288
81,18,18,Jits_Linear_8,3,5,63,98,1758939872
81,18,18,Jits_Linear_8,0,1,48,75,1759586060
81,18,18,Jits_Linear_8,1,5,56,103,1759599960
81,18,18,Jits_Linear_8,2,5,63,98,1759610528
81,18,18,Jits_Linear_8,3,5,80,127,1759650244
81,18,18,Jits_Linear_8,0,5,56,103,1760219764
81,18,18,Jits_Linear_8,1,1,48,79,1760253372
81,18,18,Jits_Linear_8,2,5,63,98,1760259400
81,18,18,Jits_Linear_8,3,5,80,127,1760309524
81,18,18,Jits_Linear_8,0,5,80,127,1760850412
81,18,18,Jits_Linear_8,1,5,56,103,1760899420
81,18,18,Jits_Linear_8,2,1,48,72,1760916692
81,18,18,Jits_Linear_8,3,5,63,98,1760920244
81,18,18,Jits_Linear_8,0,5,80,127,1761530160
81,18,18,Jits_Linear_8,1,1,48,67,1761577324
81,18,18,Jits_Linear_8,2,5,63,98,1761589576
81,18,18,Jits_Linear_8,3,5,56,103,1761669516
81,18,18,Jits_Linear_8,0,5,80,127,1762179316
81,18,18,Jits_Linear_8,1,5,56,103,1762220380
81,18,18,Jits_Linear_8,2,5,63,98,1762239868
81,18,18,Jits_Linear_8,3,1,48,74,1762282716
81,18,18,Jits_Linear_8,0,5,56,103,1762900192
81,18,18,Jits_Linear_8,1,5,80,127,1762909564
81,18,18,Jits_Linear_8,2,1,48,65,1762946240
81,18,18,Jits_Linear_8,3,5,63,98,1762949496
81,18,18,Jits_Linear_8,0,1,48,81,1763598720
81,18,18,Jits_Linear_8,1,5,56,103,1763629312
81,18,18,Jits_Linear_8,2,5,63,98,1763670372
81,18,18,Jits_Linear_8,3,5,80,127,1763673736
81,18,18,Jits_Linear_8,0,5,63,98,1764180232
81,18,18,Jits_Linear_8,1,5,80,127,1764220172
81,18,18,Jits_Linear_8,2,1,48,59,1764289328
81,18,18,Jits_Linear_8,3,5,56,103,1764290892
81,18,18,Jits_Linear_8,0,5,63,98,1764829544
81,18,18,Jits_Linear_8,1,1,48,48,1764881212
81,18,18,Jits_Linear_8,2,5,56,103,1764909336
81,18,18,Jits_Linear_8,3,5,80,127,1764970024
81,18,18,Jits_Linear_8,0,5,80,127,1765500484
81,18,18,Jits_Linear_8,1,1,48,102,1765504056
81,18,18,Jits_Linear_8,2,5,63,98,1765549336
81,18,18,Jits_Linear_8,3,5,56,103,1765580208
81,18,18,Jits_Linear_8,0,5,56,103,1766149448
81,18,18,Jits_Linear_8,1,1,48,77,1766189360
81,18,18,Jits_Linear_8,2,5,63,98,1766199644
81,18,18,Jits_Linear_8,3,5,80,127,1766210064
81,18,18,Jits_Linear_8,0,5,56,103,1766820248
81,18,18,Jits_Linear_8,1,1,48,93,1766821808
81,18,18,Jits_Linear_8,2,5,63,98,1766930016
81,18,18,Jits_Linear_8,3,5,80,127,1766950252
81,18,18,Jits_Linear_8,0,5,63,98,1767469284
81,18,18,Jits_Linear_8,1,5,80,127,1767519560
81,18,18,Jits_Linear_8,2,1,48,96,1767530628
81,18,18,Jits_Linear_8,3,5,56,103,1767609908
81,18,18,Jits_Linear_8,0,5,63,98,1768109508
81,18,18,Jits_Linear_8,1,5,80,127,1768140228
81,18,18,Jits_Linear_8,2,1,48,104,1768190576
81,18,18,Jits_Linear_8,3,5,56,103,1768230228
81,18,18,Jits_Linear_8,0,5,63,98,1768759728
81,18,18,Jits_Linear_8,1,5,56,103,1768770072
81,18,18,Jits_Linear_8,2,1,48,98,1768845560
81,18,18,Jits_Linear_8,3,5,80,127,1768870240
81,18,18,Jits_Linear_8,0,1,48,91,1769469028
81,18,18,Jits_Linear_8,1,5,63,98,1769510184
81,18,18,Jits_Linear_8,2,5,80,127,1769540008
81,18,18,Jits_Linear_8,3,5,56,103,1769569744
81,18,18,Jits_Linear_8,0,1,48,99,1770147012
81,18,18,Jits_Linear_8,1,5,80,127,1770169900
81,18,18,Jits_Linear_8,2,5,63,98,1770180096
81,18,18,Jits_Linear_8,3,5,56,103,1770209872
81,18,18,Jits_Linear_8,0,5,80,127,1770710336
81,18,18,Jits_Linear_8,1,5,63,98,1770729920
81,18,18,Jits_Linear_8,2,5,56,103,1770779900
81,18,18,Jits_Linear_8,3,1,48,94,1770817936
81,18,18,Jits_Linear_8,0,5,63,98,1771380044
81,18,18,Jits_Linear_8,1,5,80,127,1771439536
81,18,18,Jits_Linear_8,2,1,48,66,1771459544
81,18,18,Jits_Linear_8,3,5,56,103,1771461036
81,18,18,Jits_Linear_8,0,5,63,98,1771980180
81,18,18,Jits_Linear_8,1,5,56,103,1772030412
81,18,18,Jits_Linear_8,2,5,80,127,1772039412
81,18,18,Jits_Linear_8,3,1,48,69,1772085452
81,18,18,Jits_Linear_8,0,5,56,103,1772649872
81,18,18,Jits_Linear_8,1,5,80,127,1772660068
81,18,18,Jits_Linear_8,2,1,48,77,1772692476
81,18,18,Jits_Linear_8,3,5,63,98,1772760456
81,18,18,Jits_Linear_8,0,5,80,127,1773250144
81,18,18,Jits_Linear_8,1,5,63,98,1773260120
81,18,18,Jits_Linear_8,2,1,48,93,1773325516
81,18,18,Jits_Linear_8,3,5,56,103,1773409756
81,18,18,Jits_Linear_8,0,5,63,98,1773890036
81,18,18,Jits_Linear_8,1,5,80,127,1773929828
81,18,18,Jits_Linear_8,2,1,48,105,1773964104
81,18,18,Jits_Linear_8,3,5,56,103,1774009912
81,18,18,Jits_Linear_8,0,5,56,103,1774509372
81,18,18,Jits_Linear_8,1,1,48,101,1774583756
81,18,18,Jits_Linear_8,2,5,80,127,1774609864
81,18,18,Jits_Linear_8,3,5,63,98,1774630248
81,18,18,Jits_Linear_8,0,1,48,100,1775194188
81,18,18,Jits_Linear_8,1,5,80,127,1775199464
81,18,18,Jits_Linear_8,2,5,56,103,1775210108
81,18,18,Jits_Linear_8,3,5,63,98,1775299928
81,18,18,Jits_Linear_8,0,5,56,103,1775830436
81,18,18,Jits_Linear_8,1,5,63,98,1775849876
81,18,18,Jits_Linear_8,2,1,48,100,1775850916
81,18,18,Jits_Linear_8,3,5,80,127,1775929812
81,18,18,Jits_Linear_8,0,5,63,98,1776399916
81,18,18,Jits_Linear_8,1,1,48,93,1776470764
81,18,18,Jits_Linear_8,2,5,56,103,1776489892
81,18,18,Jits_Linear_8,3,5,80,127,1776492812
81,18,18,Jits_Linear_8,0,1,48,80,1777048744
81,18,18,Jits_Linear_8,1,5,56,103,1777050240
81,18,18,Jits_Linear_8,2,5,80,127,1777110336
81,18,18,Jits_Linear_8,3,5,63,98,1777119732
81,18,18,Jits_Linear_8,0,1,48,95,1777663864
81,18,18,Jits_Linear_8,1,5,80,127,1777719792
81,18,18,Jits_Linear_8,2,5,56,103,1777729836
81,18,18,Jits_Linear_8,3,5,63,98,1777732976
81,18,18,Jits_Linear_8,0,5,56,103,1778300380
81,18,18,Jits_Linear_8,1,5,80,127,1778309532
81,18,18,Jits_Linear_8,2,1,48,81,1778328548
81,18,18,Jits_Linear_8,3,5,63,98,1778330132
81,18,18,Jits_Linear_8,0,5,63,98,1778890272
81,18,18,Jits_Linear_8,1,1,48,67,1778920544
81,18,18,Jits_Linear_8,2,5,80,127,1778949484
81,18,18,Jits_Linear_8,3,5,56,103,1778999764
81,18,18,Jits_Linear_8,0,1,48,94,1779483580
81,18,18,Jits_Linear_8,1,5,63,98,1779589844
81,18,18,Jits_Linear_8,2,5,56,103,1779599892
81,18,18,Jits_Linear_8,3,5,80,127,1779649868
81,18,18,Jits_Linear_8,0,5,63,98,1780099364
81,18,18,Jits_Linear_8,1,1,48,83,1780107588
81,18,18,Jits_Linear_8,2,5,80,127,1780119816
81,18,18,Jits_Linear_8,3,5,56,103,1780130236
81,18,18,Jits_Linear_8,0,1,48,77,1780681628
81,18,18,Jits_Linear_8,1,5,63,98,1780709924
81,18,18,Jits_Linear_8,2,5,80,127,1780713140
81,18,18,Jits_Linear_8,3,5,56,103,1780749788
81,18,18,Jits_Linear_8,0,1,48,85,1781267304
81,18,18,Jits_Linear_8,1,5,63,98,1781389904
81,18,18,Jits_Linear_8,2,5,80,127,1781420260
81,18,18,Jits_Linear_8,3,5,56,103,1781429704
81,18,18,Jits_Linear_8,0,1,48,101,1781894212
81,18,18,Jits_Linear_8,1,5,56,103,1781949836
81,18,18,Jits_Linear_8,2,5,80,127,1781979540
81,18,18,Jits_Linear_8,3,5,63,98,1782010100
81,18,18,Jits_Linear_8,0,1,48,89,1782514184
81,18,18,Jits_Linear_8,1,5,63,98,1782650188
81,18,18,Jits_Linear_8,2,5,56,103,1782690200
81,18,18,Jits_Linear_8,3,5,80,127,1782693116
81,18,18,Jits_Linear_8,0,5,80,127,1783150032
81,18,18,Jits_Linear_8,1,1,48,89,1783170688
81,18,18,Jits_Linear_8,2,5,56,103,1783229824
81,18,18,Jits_Linear_8,3,5,63,98,1783280036
81,18,18,Jits_Linear_8,0,5,80,127,1783729732
81,18,18,Jits_Linear_8,1,5,56,103,1783749892
81,18,18,Jits_Linear_8,2,1,48,84,1783829984
81,18,18,Jits_Linear_8,3,5,63,98,1783840192
81,18,18,Jits_Linear_8,0,5,80,127,1784369472
81,18,18,Jits_Linear_8,1,1,48,82,1784386364
81,18,18,Jits_Linear_8,2,5,63,98,1784409704
81,18,18,Jits_Linear_8,3,5,56,103,1784450540
81,18,18,Jits_Linear_8,0,5,63,98,1784939808
81,18,18,Jits_Linear_8,1,1,48,94,1784990504
81,18,18,Jits_Linear_8,2,5,80,127,1785000344
81,18,18,Jits_Linear_8,3,5,56,103,1785029948
81,18,18,Jits_Linear_8,0,5,56,103,1785540100
81,18,18,Jits_Linear_8,1,5,80,127,1785569728
81,18,18,Jits_Linear_8,2,1,48,91,1785573892
81,18,18,Jits_Linear_8,3,5,63,98,1785659856
81,18,18,Jits_Linear_8,0,5,56,103,1786139984
81,18,18,Jits_Linear_8,1,1,48,71,1786184980
81,18,18,Jits_Linear_8,2,5,80,127,1786249596
81,18,18,Jits_Linear_8,3,5,63,98,1786280304
81,18,18,Jits_Linear_8,0,5,56,103,1786780084
81,18,18,Jits_Linear_8,1,1,48,81,1786784772
81,18,18,Jits_Linear_8,2,5,63,98,1786840544
81,18,18,Jits_Linear_8,3,5,80,127,1786870020
81,18,18,Jits_Linear_8,0,5,56,103,1787340092
81,18,18,Jits_Linear_8,1,1,48,80,1787401304
81,18,18,Jits_Linear_8,2,5,63,98,1787409720
81,18,18,Jits_Linear_8,3,5,80,127,1787430252
81,18,18,Jits_Linear_8,0,5,80,127,1787900416
81,18,18,Jits_Linear_8,1,5,63,98,1787919680
81,18,18,Jits_Linear_8,2,5,56,103,1787969884
81,18,18,Jits_Linear_8,3,1,48,78,1787986700
81,18,18,Jits_Linear_8,0,5,63,98,1788500572
81,18,18,Jits_Linear_8,1,5,80,127,1788509572
81,18,18,Jits_Linear_8,2,1,48,91,1788542584
81,18,18,Jits_Linear_8,3,5,56,103,1788559620
81,18,18,Jits_Linear_8,0,5,63,98,1789079888
81,18,18,Jits_Linear_8,1,1,48,95,1789115964
81,18,18,Jits_Linear_8,2,5,80,127,1789149812
81,18,18,Jits_Linear_8,3,5,56,103,1789169900
81,18,18,Jits_Linear_8,0,5,63,98,1789690096
81,18,18,Jits_Linear_8,1,5,80,127,1789693688
81,18,18,Jits_Linear_8,2,1,48,83,1789709104
81,18,18,Jits_Linear_8,3,5,56,103,1789759848
81,18,18,Jits_Linear_8,0,5,80,127,1790219736
81,18,18,Jits_Linear_8,1,5,56,103,1790240120
81,18,18,Jits_Linear_8,2,5,63,98,1790250612
81,18,18,Jits_Linear_8,3,1,48,91,1790295680
81,18,18,Jits_Linear_8,0,5,56,103,1790819736
81,18,18,Jits_Linear_8,1,1,48,96,1790847496
81,18,18,Jits_Linear_8,2,5,63,98,1790909792
81,18,18,Jits_Linear_8,3,5,80,127,1790913080
81,18,18,Jits_Linear_8,0,5,80,127,1791369692
81,18,18,Jits_Linear_8,1,5,56,103,1791379812
81,18,18,Jits_Linear_8,2,5,63,98,1791400348
81,18,18,Jits_Linear_8,3,1,48,91,1791432984
81,18,18,Jits_Linear_8,0,5,63,98,1791939952
81,18,18,Jits_Linear_8,1,1,48,89,1791978616
81,18,18,Jits_Linear_8,2,5,80,127,1792000588
81,18,18,Jits_Linear_8,3,5,56,103,1792009512
81,18,18,Jits_Linear_8,0,1,48,76,1792564584
81,18,18,Jits_Linear_8,1,5,63,98,1792580048
81,18,18,Jits_Linear_8,2,5,80,127,1792609652
81,18,18,Jits_Linear_8,3,5,56,103,1792649588
81,18,18,Jits_Linear_8,0,5,56,103,1793139972
81,18,18,Jits_Linear_8,1,5,80,127,1793150464
81,18,18,Jits_Linear_8,2,1,48,84,1793153508
81,18,18,Jits_Linear_8,3,5,63,98,1793190472
81,18,18,Jits_Linear_8,0,5,80,127,1793669628
81,18,18,Jits_Linear_8,1,1,48,75,1793710660
81,18,18,Jits_Linear_8,2,5,56,103,1793750764
81,18,18,Jits_Linear_8,3,5,63,98,1793759492
81,18,18,Jits_Linear_8,0,1,48,76,1794275464
81,18,18,Jits_Linear_8,1,5,80,127,1794279768
81,18,18,Jits_Linear_8,2,5,56,103,1794359640
81,18,18,Jits_Linear_8,3,5,63,98,1794369840
81,18,18,Jits_Linear_8,0,5,80,127,1794799908
81,18,18,Jits_Linear_8,1,1,48,90,1794836512
81,18,18,Jits_Linear_8,2,5,56,103,1794850256
81,18,18,Jits_Linear_8,3,5,63,98,1794900308
81,18,18,Jits_Linear_8,0,1,48,96,1795415692
81,18,18,Jits_Linear_8,1,5,56,103,1795419768
81,18,18,Jits_Linear_8,2,5,63,98,1795422760
81,18,18,Jits_Linear_8,3,5,80,127,1795469748
81,18,18,Jits_Linear_8,0,1,48,80,1795980408
81,18,18,Jits_Linear_8,1,5,56,103,1796000060
81,18,18,Jits_Linear_8,2,5,63,98,1796029740
81,18,18,Jits_Linear_8,3,5,80,127,1796040008
81,18,18,Jits_Linear_8,0,5,63,98,1796470004
81,18,18,Jits_Linear_8,1,5,56,103,1796539616
81,18,18,Jits_Linear_8,2,1,48,84,1796543780
81,18,18,Jits_Linear_8,3,5,80,127,1796589832
81,18,18,Jits_Linear_8,0,5,63,98,1797059816
81,18,18,Jits_Linear_8,1,5,56,103,1797070456
81,18,18,Jits_Linear_8,2,5,80,127,1797073444
81,18,18,Jits_Linear_8,3,1,48,100,1797085584
81,18,18,Jits_Linear_8,0,5,80,127,1797559636
81,18,18,Jits_Linear_8,1,5,56,103,1797620052
81,18,18,Jits_Linear_8,2,1,48,92,1797636500
81,18,18,Jits_Linear_8,3,5,63,98,1797710476
81,18,18,Jits_Linear_8,0,5,80,127,1798109624
81,18,18,Jits_Linear_8,1,1,48,95,1798200480
81,18,18,Jits_Linear_8,2,5,56,103,1798209796
81,18,18,Jits_Linear_8,3,5,63,98,1798249884
81,18,18,Jits_Linear_8,0,5,56,103,1798709564
81,18,18,Jits_Linear_8,1,5,63,98,1798730100
81,18,18,Jits_Linear_8,2,1,48,87,1798768756
81,18,18,Jits_Linear_8,3,5,80,127,1798770476
81,18,18,Jits_Linear_8,0,5,63,98,1799229784
81,18,18,Jits_Linear_8,1,5,56,103,1799250392
81,18,18,Jits_Linear_8,2,1,48,90,1799292396
81,18,18,Jits_Linear_8,3,5,80,127,1799349588
81,18,18,Jits_Linear_8,0,5,63,98,1799760476
81,18,18,Jits_Linear_8,1,1,48,83,1799843532
81,18,18,Jits_Linear_8,2,5,80,127,1799869864
81,18,18,Jits_Linear_8,3,5,56,103,1799899564
81,18,18,Jits_Linear_8,0,5,56,103,1800320616
81,18,18,Jits_Linear_8,1,5,63,98,1800350144
81,18,18,Jits_Linear_8,2,1,48,61,1800365916
81,18,18,Jits_Linear_8,3,5,80,127,1800400560
81,18,18,Jits_Linear_8,0,5,63,98,1800830568
81,18,18,Jits_Linear_8,1,5,56,103,1800860020
81,18,18,Jits_Linear_8,2,1,48,68,1800897068
81,18,18,Jits_Linear_8,3,5,80,127,1800910288
81,18,18,Jits_Linear_8,0,5,56,103,1801399692
81,18,18,Jits_Linear_8,1,1,48,86,1801418716
81,18,18,Jits_Linear_8,2,5,63,98,1801420520
81,18,18,Jits_Linear_8,3,5,80,127,1801500192
81,18,18,Jits_Linear_8,0,5,63,98,1801909500
81,18,18,Jits_Linear_8,1,1,48,88,1801951900
81,18,18,Jits_Linear_8,2,5,56,103,1801969984
81,18,18,Jits_Linear_8,3,5,80,127,1801999660
81,18,18,Jits_Linear_8,0,1,48,94,1802472996
81,18,18,Jits_Linear_8,1,5,56,103,1802490332
81,18,18,Jits_Linear_8,2,5,80,127,1802549680
81,18,18,Jits_Linear_8,3,5,63,98,1802589604
81,18,18,Jits_Linear_8,0,5,63,98,1803000280
81,18,18,Jits_Linear_8,1,1,48,101,1803013444
81,18,18,Jits_Linear_8,2,5,56,103,1803059476
81,18,18,Jits_Linear_8,3,5,80,127,1803130184
81,18,18,Jits_Linear_8,0,1,48,86,1803535292
81,18,18,Jits_Linear_8,1,5,56,103,1803609580
81,18,18,Jits_Linear_8,2,5,63,98,1803619772
81,18,18,Jits_Linear_8,3,5,80,127,1803623064
81,18,18,Jits_Linear_8,0,5,63,98,1804079512
81,18,18,Jits_Linear_8,1,1,48,104,1804100768
81,18,18,Jits_Linear_8,2,5,56,103,1804139824
81,18,18,Jits_Linear_8,3,5,80,127,1804142964
81,18,18,Jits_Linear_8,0,5,63,98,1804589532
81,18,18,Jits_Linear_8,1,5,80,127,1804620180
81,18,18,Jits_Linear_8,2,1,48,86,1804639668
81,18,18,Jits_Linear_8,3,5,56,103,1804641308
81,18,18,Jits_Linear_8,0,5,56,103,1805119848
81,18,18,Jits_Linear_8,1,1,48,102,1805151812
81,18,18,Jits_Linear_8,2,5,63,98,1805169972
81,18,18,Jits_Linear_8,3,5,80,127,1805249972
81,18,18,Jits_Linear_8,0,5,80,127,1805619480
81,18,18,Jits_Linear_8,1,5,63,98,1805659420
81,18,18,Jits_Linear_8,2,5,56,103,1805680176
81,18,18,Jits_Linear_8,3,1,48,83,1805700752
81,18,18,Jits_Linear_8,0,1,48,80,1806206180
81,18,18,Jits_Linear_8,1,5,56,103,1806210632
81,18,18,Jits_Linear_8,2,5,80,127,1806219560
81,18,18,Jits_Linear_8,3,5,63,98,1806240240
81,18,18,Jits_Linear_8,0,5,56,103,1806710316
81,18,18,Jits_Linear_8,1,1,48,101,1806751052
81,18,18,Jits_Linear_8,2,5,63,98,1806760440
81,18,18,Jits_Linear_8,3,5,80,127,1806789968
81,18,18,Jits_Linear_8,0,5,56,103,1807180356
81,18,18,Jits_Linear_8,1,5,63,98,1807190256
81,18,18,Jits_Linear_8,2,5,80,127,1807239484
81,18,18,Jits_Linear_8,3,1,48,106,1807240748
81,18,18,Jits_Linear_8,0,5,56,103,1807690316
81,18,18,Jits_Linear_8,1,5,80,127,1807693232
81,18,18,Jits_Linear_8,2,1,48,84,1807724600
81,18,18,Jits_Linear_8,3,5,63,98,1807849752
81,18,18,Jits_Linear_8,0,5,63,98,1808219368
81,18,18,Jits_Linear_8,1,1,48,89,1808234844
81,18,18,Jits_Linear_8,2,5,56,103,1808290168
81,18,18,Jits_Linear_8,3,5,80,127,1808330312
81,18,18,Jits_Linear_8,0,1,48,89,1808761568
81,18,18,Jits_Linear_8,1,5,63,98,1808770288
81,18,18,Jits_Linear_8,2,5,56,103,1808859436
81,18,18,Jits_Linear_8,3,5,80,127,1808862428
81,18,18,Jits_Linear_8,0,5,56,103,1809259980
81,18,18,Jits_Linear_8,1,1,48,87,1809283400
81,18,18,Jits_Linear_8,2,5,63,98,1809350260
81,18,18,Jits_Linear_8,3,5,80,127,1809360232
81,18,18,Jits_Linear_8,0,5,56,103,1809740124
81,18,18,Jits_Linear_8,1,5,63,98,1809790400
81,18,18,Jits_Linear_8,2,1,48,82,1809819852
81,18,18,Jits_Linear_8,3,5,80,127,1809821192
81,18,18,Jits_Linear_8,0,5,63,98,1810319608
81,18,18,Jits_Linear_8,1,1,48,85,1810322424
81,18,18,Jits_Linear_8,2,5,80,127,1810330096
81,18,18,Jits_Linear_8,3,5,56,103,1810390264
81,18,18,Jits_Linear_8,0,5,63,98,1810739548
81,18,18,Jits_Linear_8,1,5,80,127,1810800164
81,18,18,Jits_Linear_8,2,5,56,103,1810840100
81,18,18,Jits_Linear_8,3,1,48,84,1810849444
81,18,18,Jits_Linear_8,0,5,56,103,1811339620
81,18,18,Jits_Linear_8,1,5,80,127,1811360008
81,18,18,Jits_Linear_8,2,1,48,94,1811361944
81,18,18,Jits_Linear_8,3,5,63,98,1811379484
81,18,18,Jits_Linear_8,0,5,63,98,1811759376
81,18,18,Jits_Linear_8,1,5,56,103,1811780284
81,18,18,Jits_Linear_8,2,5,80,127,1811820072
81,18,18,Jits_Linear_8,3,1,48,86,1811892936
81,18,18,Jits_Linear_8,0,5,63,98,1812269392
81,18,18,Jits_Linear_8,1,5,80,127,1812300116
81,18,18,Jits_Linear_8,2,5,56,103,1812319528
81,18,18,Jits_Linear_8,3,1,48,70,1812414564
81,18,18,Jits_Linear_8,0,5,80,127,1812739324
81,18,18,Jits_Linear_8,1,5,56,103,1812789528
81,18,18,Jits_Linear_8,2,5,63,98,1812850292
81,18,18,Jits_Linear_8,3,1,48,83,1812935360
81,18,18,Jits_Linear_8,0,5,63,98,1813219756
81,18,18,Jits_Linear_8,1,5,56,103,1813339564
81,18,18,Jits_Linear_8,2,5,80,127,1813370212
81,18,18,Jits_Linear_8,3,1,48,83,1813423596
81,18,18,Jits_Linear_8,0,5,80,127,1813750232
81,18,18,Jits_Linear_8,1,5,63,98,1813769572
81,18,18,Jits_Linear_8,2,5,56,103,1813840372
81,18,18,Jits_Linear_8,3,1,48,86,1813895776
81,18,18,Jits_Linear_8,0,5,63,98,1814260044
81,18,18,Jits_Linear_8,1,5,56,103,1814270316
81,18,18,Jits_Linear_8,2,5,80,127,1814350184
81,18,18,Jits_Linear_8,3,1,48,82,1814388896
81,18,18,Jits_Linear_8,0,5,56,103,1814810144
81,18,18,Jits_Linear_8,1,1,48,82,1814837628
81,18,18,Jits_Linear_8,2,5,80,127,1814839592
81,18,18,Jits_Linear_8,3,5,63,98,1814850308
81,18,18,Jits_Linear_8,0,9999,9999,9999,1704448064
81,18,18,Jits_Linear_8,1,9999,9999,9999,1705277512
81,18,18,Jits_Linear_8,2,9999,9999,9999,1706097744
81,18,18,Jits_Linear_8,3,9999,9999,9999,1706917960
81,18,18,Jits_Linear_8,4,9999,9999,9999,1707737204
81,18,18,Jits_Linear_8,5,9999,9999,9999,1708547168
81,18,18,Jits_Linear_8,6,9999,9999,9999,1709357184
81,18,18,Jits_Linear_8,7,9999,9999,9999,1710167144
81,18,18,Jits_Linear_8,8,9999,9999,9999,1710977088
81,18,18,Jits_Linear_8,9,9999,9999,9999,1711787092
81,18,18,Jits_Linear_8,10,9999,9999,9999,1712587840
81,18,18,Jits_Linear_8,11,9999,9999,9999,1713387616
81,18,18,Jits_Linear_8,12,9999,9999,9999,1714187392
81,18,18,Jits_Linear_8,13,9999,9999,9999,1714987092
81,18,18,Jits_Linear_8,14,9999,9999,9999,1715787884
81,18,18,Jits_Linear_8,15,9999,9999,9999,1716577376
81,18,18,Jits_Linear_8,16,9999,9999,9999,1717367900
81,18,18,Jits_Linear_8,17,9999,9999,9999,1718157420
81,18,18,Jits_Linear_8,18,9999,9999,9999,1718947964
81,18,18,Jits_Linear_8,19,9999,9999,9999,1719737472
81,18,18,Jits_Linear_8,20,9999,9999,9999,1720517744
81,18,18,Jits_Linear_8,21,9999,9999,9999,1721298028
81,18,18,Jits_Linear_8,22,9999,9999,9999,1722077284
81,18,18,Jits_Linear_8,23,9999,9999,9999,1722857568
81,18,18,Jits_Linear_8,24,9999,9999,9999,1723637836
81,18,18,Jits_Linear_8,25,9999,9999,9999,1724407920
81,18,18,Jits_Linear_8,26,9999,9999,9999,1725177936
81,18,18,Jits_Linear_8,27,9999,9999,9999,1725948024
81,18,18,Jits_Linear_8,28,9999,9999,9999,1726718044
81,18,18,Jits_Linear_8,29,9999,9999,9999,1727488076
81,18,18,Jits_Linear_8,30,9999,9999,9999,1728257112
81,18,18,Jits_Linear_8,31,9999,9999,9999,1729017920
81,18,18,Jits_Linear_8,32,9999,9999,9999,1729777752
81,18,18,Jits_Linear_8,33,9999,9999,9999,1730537580
81,18,18,Jits_Linear_8,34,9999,9999,9999,1731297340
81,18,18,Jits_Linear_8,35,9999,9999,9999,1732047932
81,18,18,Jits_Linear_8,36,9999,9999,9999,1732797496
81,18,18,Jits_Linear_8,37,9999,9999,9999,1733547068
81,18,18,Jits_Linear_8,38,9999,9999,9999,1734297692
81,18,18,Jits_Linear_8,39,9999,9999,9999,1735047284
81,18,18,Jits_Linear_8,40,9999,9999,9999,1735787640
81,18,18,Jits_Linear_8,41,9999,9999,9999,1736528000
81,18,18,Jits_Linear_8,42,9999,9999,9999,1737267288
81,18,18,Jits_Linear_8,43,9999,9999,9999,1738007636
81,18,18,Jits_Linear_8,44,9999,9999,9999,1738747960
81,18,18,Jits_Linear_8,45,9999,9999,9999,1739478092
81,18,18,Jits_Linear_8,46,9999,9999,9999,1740217408
81,18,18,Jits_Linear_8,47,9999,9999,9999,1740947568
81,18,18,Jits_Linear_8,48,9999,9999,9999,1741677664
81,18,18,Jits_Linear_8,49,9999,9999,9999,1742407748
81,18,18,Jits_Linear_8,50,9999,9999,9999,1743127640
81,18,18,Jits_Linear_8,51,9999,9999,9999,1743847544
81,18,18,Jits_Linear_8,52,9999,9999,9999,1744567424
81,18,18,Jits_Linear_8,53,9999,9999,9999,1745287256
81,18,18,Jits_Linear_8,54,9999,9999,9999,1746007140
81,18,18,Jits_Linear_8,55,9999,9999,9999,1746717756
81,18,18,Jits_Linear_8,56,9999,9999,9999,1747427456
81,18,18,Jits_Linear_8,57,9999,9999,9999,1748138048
81,18,18,Jits_Linear_8,58,9999,9999,9999,1748847688
81,18,18,Jits_Linear_8,59,9999,9999,9999,1749557340
81,18,18,Jits_Linear_8,60,9999,9999,9999,1750257776
81,18,18,Jits_Linear_8,61,9999,9999,9999,1750957140
81,18,18,Jits_Linear_8,62,9999,9999,9999,1751657564
81,18,18,Jits_Linear_8,63,9999,9999,9999,1752357972
81,18,18,Jits_Linear_8,64,9999,9999,9999,1753057360
81,18,18,Jits_Linear_8,65,9999,9999,9999,1753747564
81,18,18,Jits_Linear_8,66,9999,9999,9999,1754437728
81,18,18,Jits_Linear_8,67,9999,9999,9999,1755127888
81,18,18,Jits_Linear_8,68,9999,9999,9999,1755818072
81,18,18,Jits_Linear_8,69,9999,9999,9999,1756507260
81,18,18,Jits_Linear_8,70,9999,9999,9999,1757187156
81,18,18,Jits_Linear_8,71,9999,9999,9999,1757867096
81,18,18,Jits_Linear_8,72,9999,9999,9999,1758548076
81,18,18,Jits_Linear_8,73,9999,9999,9999,1759227968
81,18,18,Jits_Linear_8,74,9999,9999,9999,1759907924
81,18,18,Jits_Linear_8,75,9999,9999,9999,1760577616
81,18,18,Jits_Linear_8,76,9999,9999,9999,1761247324
81,18,18,Jits_Linear_8,77,9999,9999,9999,1761918056
81,18,18,Jits_Linear_8,78,9999,9999,9999,1762587760
81,18,18,Jits_Linear_8,79,9999,9999,9999,1763257444
81,18,18,Jits_Linear_8,80,9999,9999,9999,1763917940
81,18,18,Jits_Linear_8,81,9999,9999,9999,1764577368
81,18,18,Jits_Linear_8,82,9999,9999,9999,1765237820
81,18,18,Jits_Linear_8,83,9999,9999,9999,1765897320
81,18,18,Jits_Linear_8,84,9999,9999,9999,1766557792
81,18,18,Jits_Linear_8,85,9999,9999,9999,1767208024
81,18,18,Jits_Linear_8,86,9999,9999,9999,1767857252
81,18,18,Jits_Linear_8,87,9999,9999,9999,1768507464
81,18,18,Jits_Linear_8,88,9999,9999,9999,1769157736
81,18,18,Jits_Linear_8,89,9999,9999,9999,1769807960
81,18,18,Jits_Linear_8,90,9999,9999,9999,1770447972
81,18,18,Jits_Linear_8,91,9999,9999,9999,1771087988
81,18,18,Jits_Linear_8,92,9999,9999,9999,1771727932
81,18,18,Jits_Linear_8,93,9999,9999,9999,1772367948
81,18,18,Jits_Linear_8,94,9999,9999,9999,1773008000
81,18,18,Jits_Linear_8,95,9999,9999,9999,1773637696
81,18,18,Jits_Linear_8,96,9999,9999,9999,1774267520
81,18,18,Jits_Linear_8,97,9999,9999,9999,1774897216
81,18,18,Jits_Linear_8,98,9999,9999,9999,1775528032
81,18,18,Jits_Linear_8,99,9999,9999,9999,1776157752
81,18,18,Jits_Linear_8,100,9999,9999,9999,1776777316
81,18,18,Jits_Linear_8,101,9999,9999,9999,1777397864
81,18,18,Jits_Linear_8,102,9999,9999,9999,1778017408
81,18,18,Jits_Linear_8,103,9999,9999,9999,1778637928
81,18,18,Jits_Linear_8,104,9999,9999,9999,1779257444
81,18,18,Jits_Linear_8,105,9999,9999,9999,1779867712
81,18,18,Jits_Linear_8,106,9999,9999,9999,1780478060
81,18,18,Jits_Linear_8,107,9999,9999,9999,1781087328
81,18,18,Jits_Linear_8,108,9999,9999,9999,1781697664
81,18,18,Jits_Linear_8,109,9999,9999,9999,1782307944
81,18,18,Jits_Linear_8,110,9999,9999,9999,1782907968
81,18,18,Jits_Linear_8,111,9999,9999,9999,1783508040
81,18,18,Jits_Linear_8,112,9999,9999,9999,1784107092
81,18,18,Jits_Linear_8,113,9999,9999,9999,1784707172
81,18,18,Jits_Linear_8,114,9999,9999,9999,1785307204
81,18,18,Jits_Linear_8,115,9999,9999,9999,1785898056
81,18,18,Jits_Linear_8,116,9999,9999,9999,1786487880
81,18,18,Jits_Linear_8,117,9999,9999,9999,1787077708
81,18,18,Jits_Linear_8,118,9999,9999,9999,1787667556
81,18,18,Jits_Linear_8,119,9999,9999,9999,1788257372
81,18,18,Jits_Linear_8,120,9999,9999,9999,1788837972
81,18,18,Jits_Linear_8,121,9999,9999,9999,1789417540
81,18,18,Jits_Linear_8,122,9999,9999,9999,1789997152
81,18,18,Jits_Linear_8,123,9999,9999,9999,1790577736
81,18,18,Jits_Linear_8,124,9999,9999,9999,1791157360
81,18,18,Jits_Linear_8,125,9999,9999,9999,1791727716
81,18,18,Jits_Linear_8,126,9999,9999,9999,1792298052
81,18,18,Jits_Linear_8,127,9999,9999,9999,1792867416
81,18,18,Jits_Linear_8,128,9999,9999,9999,1793437816
81,18,18,Jits_Linear_8,129,9999,9999,9999,1794007108
81,18,18,Jits_Linear_8,130,9999,9999,9999,1794567288
81,18,18,Jits_Linear_8,131,9999,9999,9999,1795127352
81,18,18,Jits_Linear_8,132,9999,9999,9999,1795687500
81,18,18,Jits_Linear_8,133,9999,9999,9999,1796247644
81,18,18,Jits_Linear_8,134,9999,9999,9999,1796807784
81,18,18,Jits_Linear_8,135,9999,9999,9999,1797357668
81,18,18,Jits_Linear_8,136,9999,9999,9999,1797907556
81,18,18,Jits_Linear_8,137,9999,9999,9999,1798457444
81,18,18,Jits_Linear_8,138,9999,9999,9999,1799007336
81,18,18,Jits_Linear_8,139,9999,9999,9999,1799557224
81,18,18,Jits_Linear_8,140,9999,9999,9999,1800097884
81,18,18,Jits_Linear_8,141,9999,9999,9999,1800637496
81,18,18,Jits_Linear_8,142,9999,9999,9999,1801177212
81,18,18,Jits_Linear_8,143,9999,9999,9999,1801717868
81,18,18,Jits_Linear_8,144,9999,9999,9999,1802257488
81,18,18,Jits_Linear_8,145,9999,9999,9999,1802787964
81,18,18,Jits_Linear_8,146,9999,9999,9999,1803317312
81,18,18,Jits_Linear_8,147,9999,9999,9999,1803847788
81,18,18,Jits_Linear_8,148,9999,9999,9999,1804377200
81,18,18,Jits_Linear_8,149,9999,9999,9999,1804907604
81,18,18,Jits_Linear_8,150,9999,9999,9999,1805427812
81,18,18,Jits_Linear_8,151,9999,9999,9999,1805947960
81,18,18,Jits_Linear_8,152,9999,9999,9999,1806467132
81,18,18,Jits_Linear_8,153,9999,9999,9999,1806987344
81,18,18,Jits_Linear_8,154,9999,9999,9999,1807507568
81,18,18,Jits_Linear_8,155,9999,9999,9999,1808017524
81,18,18,Jits_Linear_8,156,9999,9999,9999,1808527480
81,18,18,Jits_Linear_8,157,9999,9999,9999,1809037396
81,18,18,Jits_Linear_8,158,9999,9999,9999,1809547348
81,18,18,Jits_Linear_8,159,9999,9999,9999,1810057300
81,18,18,Jits_Linear_8,160,9999,9999,9999,1810558020
81,18,18,Jits_Linear_8,161,9999,9999,9999,1811057772
81,18,18,Jits_Linear_8,162,9999,9999,9999,1811557460
81,18,18,Jits_Linear_8,163,9999,9999,9999,1812057148
81,18,18,Jits_Linear_8,164,9999,9999,9999,1812557944
81,18,18,Jits_Linear_8,165,9999,9999,9999,1813047360
81,18,18,Jits_Linear_8,166,9999,9999,9999,1813537912
81,18,18,Jits_Linear_8,167,9999,9999,9999,1814027332
81,18,18,Jits_Linear_8,168,9999,9999,9999,1814517884
81,18,18,Jits_Linear_8,169,9999,9999,9999,1815007312
81,19,19,Jits_Linear_5,0,5,56,103,1824092488
81,19,19,Jits_Linear_5,1,5,63,98,1824095660
81,19,19,Jits_Linear_5,2,5,80,127,1824098856
81,19,19,Jits_Linear_5,0,5,56,103,1824572944
81,19,19,Jits_Linear_5,1,5,63,98,1824575972
81,19,19,Jits_Linear_5,2,5,80,127,1824579016
81,19,19,Jits_Linear_5,0,1,48,63,1824992252
81,19,19,Jits_Linear_5,1,5,56,103,1825063236
81,19,19,Jits_Linear_5,2,5,80,127,1825072384
81,19,19,Jits_Linear_5,3,5,63,98,1825093200
81,19,19,Jits_Linear_5,0,5,63,98,1825493228
81,19,19,Jits_Linear_5,1,1,48,84,1825518440
81,19,19,Jits_Linear_5,2,5,80,127,1825523120
81,19,19,Jits_Linear_5,3,5,56,103,1825533240
81,19,19,Jits_Linear_5,0,5,80,127,1826032996
81,19,19,Jits_Linear_5,1,5,56,103,1826043116
81,19,19,Jits_Linear_5,2,1,48,78,1826044604
81,19,19,Jits_Linear_5,3,5,63,98,1826073008
81,19,19,Jits_Linear_5,0,5,63,98,1826513340
81,19,19,Jits_Linear_5,1,5,56,103,1826542968
81,19,19,Jits_Linear_5,2,5,80,127,1826553312
81,19,19,Jits_Linear_5,3,1,48,84,1826585052
81,19,19,Jits_Linear_5,0,5,56,103,1826952716
81,19,19,Jits_Linear_5,1,5,63,98,1827002924
81,19,19,Jits_Linear_5,2,5,80,127,1827023160
81,19,19,Jits_Linear_5,3,1,48,70,1827091564
81,19,19,Jits_Linear_5,0,5,80,127,1827443128
81,19,19,Jits_Linear_5,1,5,63,98,1827493260
81,19,19,Jits_Linear_5,2,1,48,75,1827529340
81,19,19,Jits_Linear_5,3,5,56,103,1827533120
81,19,19,Jits_Linear_5,0,5,56,103,1827932720
81,19,19,Jits_Linear_5,1,5,63,98,1827963220
81,19,19,Jits_Linear_5,2,1,48,53,1827980264
81,19,19,Jits_Linear_5,3,5,80,127,1828032748
81,19,19,Jits_Linear_5,0,1,48,57,1828399640
81,19,19,Jits_Linear_5,1,1,38,18,1828411172
81,19,19,Jits_Linear_5,2,5,56,103,1828423032
81,19,19,Jits_Linear_5,3,5,80,127,1828482376
81,19,19,Jits_Linear_5,4,5,63,98,1828513208
81,19,19,Jits_Linear_5,0,5,56,103,1828922624
81,19,19,Jits_Linear_5,1,5,63,98,1828933116
81,19,19,Jits_Linear_5,2,5,80,127,1828972984
81,19,19,Jits_Linear_5,3,1,48,50,1828985168
81,19,19,Jits_Linear_5,0,5,63,98,1829413108
81,19,19,Jits_Linear_5,1,1,48,90,1829457804
81,19,19,Jits_Linear_5,2,5,80,127,1829492980
81,19,19,Jits_Linear_5,3,5,56,103,1829503548
81,19,19,Jits_Linear_5,0,1,48,83,1829910828
81,19,19,Jits_Linear_5,1,5,63,98,1829963068
81,19,19,Jits_Linear_5,2,5,56,103,1830003984
81,19,19,Jits_Linear_5,3,5,80,127,1830006728
81,19,19,Jits_Linear_5,0,5,56,103,1830422824
81,19,19,Jits_Linear_5,1,5,63,98,1830433096
81,19,19,Jits_Linear_5,2,1,48,83,1830444004
81,19,19,Jits_Linear_5,3,5,80,127,1830473024
81,19,19,Jits_Linear_5,0,5,56,103,1830913904
81,19,19,Jits_Linear_5,1,5,63,98,1830916816
81,19,19,Jits_Linear_5,2,1,48,73,1830931348
81,19,19,Jits_Linear_5,3,5,80,127,1830932856
81,19,19,Jits_Linear_5,0,1,48,66,1831400680
81,19,19,Jits_Linear_5,1,5,80,127,1831432616
81,19,19,Jits_Linear_5,2,5,56,103,1831442740
81,19,19,Jits_Linear_5,3,5,63,98,1831512632
81,19,19,Jits_Linear_5,0,1,48,82,1831927028
81,19,19,Jits_Linear_5,1,5,63,98,1831942716
81,19,19,Jits_Linear_5,2,5,56,103,1831962956
81,19,19,Jits_Linear_5,3,5,80,127,1832042960
81,19,19,Jits_Linear_5,0,1,48,92,1832431748
81,19,19,Jits_Linear_5,1,5,56,103,1832462788
81,19,19,Jits_Linear_5,2,5,80,127,1832502876
81,19,19,Jits_Linear_5,3,5,63,98,1832512852
81,19,19,Jits_Linear_5,0,1,48,86,1832940732
81,19,19,Jits_Linear_5,1,5,80,127,1832962624
81,19,19,Jits_Linear_5,2,5,63,98,1832993200
81,19,19,Jits_Linear_5,3,5,56,103,1833033068
81,19,19,Jits_Linear_5,0,1,48,81,1833455244
81,19,19,Jits_Linear_5,1,5,56,103,1833492736
81,19,19,Jits_Linear_5,2,5,63,98,1833522860
81,19,19,Jits_Linear_5,3,5,80,127,1833572824
81,19,19,Jits_Linear_5,0,1,48,80,1833962132
81,19,19,Jits_Linear_5,1,5,80,127,1834012956
81,19,19,Jits_Linear_5,2,5,56,103,1834052972
81,19,19,Jits_Linear_5,3,5,63,98,1834063152
81,19,19,Jits_Linear_5,0,1,48,81,1834470592
81,19,19,Jits_Linear_5,1,5,80,127,1834512940
81,19,19,Jits_Linear_5,2,5,63,98,1834552660
81,19,19,Jits_Linear_5,3,5,56,103,1834613184
81,19,19,Jits_Linear_5,0,1,48,80,1834985552
81,19,19,Jits_Linear_5,1,5,56,103,1835032860
81,19,19,Jits_Linear_5,2,5,80,127,1835043056
81,19,19,Jits_Linear_5,3,5,63,98,1835122912
81,19,19,Jits_Linear_5,0,1,48,80,1835493712
81,19,19,Jits_Linear_5,1,5,80,127,1835553152
81,19,19,Jits_Linear_5,2,5,63,98,1835612632
81,19,19,Jits_Linear_5,3,5,56,103,1835643204
81,19,19,Jits_Linear_5,0,1,48,80,1835997812
81,19,19,Jits_Linear_5,1,5,56,103,1836073444
81,19,19,Jits_Linear_5,2,5,80,127,1836132776
81,19,19,Jits_Linear_5,3,5,63,98,1836172564
81,19,19,Jits_Linear_5,0,1,48,68,1836507168
81,19,19,Jits_Linear_5,1,5,56,103,1836652764
81,19,19,Jits_Linear_5,2,5,63,98,1836663028
81,19,19,Jits_Linear_5,3,5,80,127,1836666768
81,19,19,Jits_Linear_5,0,1,48,75,1837006744
81,19,19,Jits_Linear_5,1,5,80,127,1837133184
81,19,19,Jits_Linear_5,2,5,63,98,1837223252
81,19,19,Jits_Linear_5,3,5,56,103,1837232696
81,19,19,Jits_Linear_5,0,1,48,69,1837516624
81,19,19,Jits_Linear_5,1,5,56,103,1837662604
81,19,19,Jits_Linear_5,2,5,63,98,1837665780
81,19,19,Jits_Linear_5,3,5,80,127,1837668972
81,19,19,Jits_Linear_5,0,1,48,64,1838071464
81,19,19,Jits_Linear_5,1,5,80,127,1838212632
81,19,19,Jits_Linear_5,2,5,63,98,1838262764
81,19,19,Jits_Linear_5,3,5,56,103,1838293560
81,19,19,Jits_Linear_5,0,1,48,63,1838585608
81,19,19,Jits_Linear_5,1,5,56,103,1838722584
81,19,19,Jits_Linear_5,2,5,80,127,1838732708
81,19,19,Jits_Linear_5,3,5,63,98,1838803512
81,19,19,Jits_Linear_5,0,1,48,57,1839098476
81,19,19,Jits_Linear_5,1,5,56,103,1839263032
81,19,19,Jits_Linear_5,2,5,63,98,1839282816
81,19,19,Jits_Linear_5,3,5,80,127,1839342860
81,19,19,Jits_Linear_5,0,1,48,63,1839710780
81,19,19,Jits_Linear_5,1,5,80,127,1839792472
81,19,19,Jits_Linear_5,2,5,63,98,1839863064
81,19,19,Jits_Linear_5,3,5,56,103,1839882552
81,19,19,Jits_Linear_5,0,1,48,53,1840318800
81,19,19,Jits_Linear_5,1,5,80,127,1840352648
81,19,19,Jits_Linear_5,2,5,56,103,1840362844
81,19,19,Jits_Linear_5,3,5,63,98,1840373044
81,19,19,Jits_Linear_5,0,1,48,40,1840879568
81,19,19,Jits_Linear_5,1,5,80,127,1840883124
81,19,19,Jits_Linear_5,2,5,56,103,1840902616
81,19,19,Jits_Linear_5,3,5,63,98,1840973044
81,19,19,Jits_Linear_5,0,1,48,83,1841358772
81,19,19,Jits_Linear_5,1,5,56,103,1841432864
81,19,19,Jits_Linear_5,2,5,80,127,1841462600
81,19,19,Jits_Linear_5,3,5,63,98,1841483132
81,19,19,Jits_Linear_5,0,1,48,63,1841939180
81,19,19,Jits_Linear_5,1,5,63,98,1841972556
81,19,19,Jits_Linear_5,2,5,56,103,1842032936
81,19,19,Jits_Linear_5,3,5,80,127,1842062612
81,19,19,Jits_Linear_5,0,1,48,52,1842476560
81,19,19,Jits_Linear_5,1,5,63,98,1842513448
81,19,19,Jits_Linear_5,2,5,80,127,1842516740
81,19,19,Jits_Linear_5,3,5,56,103,1842603344
81,19,19,Jits_Linear_5,0,5,56,103,1843082740
81,19,19,Jits_Linear_5,1,5,63,98,1843113612
81,19,19,Jits_Linear_5,2,5,80,127,1843153328
81,19,19,Jits_Linear_5,0,1,48,65,1843606640
81,19,19,Jits_Linear_5,1,5,63,98,1843632592
81,19,19,Jits_Linear_5,2,5,56,103,1843672412
81,19,19,Jits_Linear_5,3,5,80,127,1843692948
81,19,19,Jits_Linear_5,0,1,48,84,1844091572
81,19,19,Jits_Linear_5,1,5,63,98,1844192532
81,19,19,Jits_Linear_5,2,5,56,103,1844232620
81,19,19,Jits_Linear_5,3,5,80,127,1844242892
81,19,19,Jits_Linear_5,0,1,48,71,1844623324
81,19,19,Jits_Linear_5,1,5,80,127,1844723012
81,19,19,Jits_Linear_5,2,5,63,98,1844792620
81,19,19,Jits_Linear_5,3,5,56,103,1844813376
81,19,19,Jits_Linear_5,0,5,56,103,1845272844
81,19,19,Jits_Linear_5,1,1,48,56,1845273808
81,19,19,Jits_Linear_5,2,5,80,127,1845293372
81,19,19,Jits_Linear_5,3,5,63,98,1845333308
81,19,19,Jits_Linear_5,0,1,48,62,1845796848
81,19,19,Jits_Linear_5,1,5,63,98,1845843484
81,19,19,Jits_Linear_5,2,5,80,127,1845862748
81,19,19,Jits_Linear_5,3,5,56,103,1845902672
81,19,19,Jits_Linear_5,0,1,48,62,1846308892
81,19,19,Jits_Linear_5,1,5,63,98,1846402492
81,19,19,Jits_Linear_5,2,5,56,103,1846422952
81,19,19,Jits_Linear_5,3,5,80,127,1846433072
81,19,19,Jits_Linear_5,0,1,48,50,1846829620
81,19,19,Jits_Linear_5,1,5,80,127,1846962636
81,19,19,Jits_Linear_5,2,5,56,103,1846983172
81,19,19,Jits_Linear_5,3,5,63,98,1847012724
81,19,19,Jits_Linear_5,0,1,48,72,1847376436
81,19,19,Jits_Linear_5,1,5,56,103,1847602604
81,19,19,Jits_Linear_5,2,5,80,127,1847605668
81,19,19,Jits_Linear_5,3,5,63,98,1847622912
81,19,19,Jits_Linear_5,0,5,63,98,1848092940
81,19,19,Jits_Linear_5,1,5,56,103,1848122692
81,19,19,Jits_Linear_5,2,5,80,127,1848183456
81,19,19,Jits_Linear_5,3,1,48,57,1848197960
81,19,19,Jits_Linear_5,0,1,48,68,1848729172
81,19,19,Jits_Linear_5,1,5,63,98,1848752436
81,19,19,Jits_Linear_5,2,5,56,103,1848762632
81,19,19,Jits_Linear_5,3,5,80,127,1848772828
81,19,19,Jits_Linear_5,0,5,56,103,1849272584
81,19,19,Jits_Linear_5,1,1,48,72,1849273548
81,19,19,Jits_Linear_5,2,5,80,127,1849303476
81,19,19,Jits_Linear_5,3,5,63,98,1849312624
81,19,19,Jits_Linear_5,0,1,48,52,1849758380
81,19,19,Jits_Linear_5,1,5,63,98,1849882876
81,19,19,Jits_Linear_5,2,5,56,103,1849893296
81,19,19,Jits_Linear_5,3,5,80,127,1849912636
81,19,19,Jits_Linear_5,0,1,48,54,1850349880
81,19,19,Jits_Linear_5,1,5,56,103,1850382804
81,19,19,Jits_Linear_5,2,1,48,31,1850398044
81,19,19,Jits_Linear_5,3,5,63,98,1850443400
81,19,19,Jits_Linear_5,4,5,80,127,1850446688
81,19,19,Jits_Linear_5,0,1,48,73,1850915020
81,19,19,Jits_Linear_5,1,5,80,127,1850982776
81,19,19,Jits_Linear_5,2,5,56,103,1850993496
81,19,19,Jits_Linear_5,3,5,63,98,1851062572
81,19,19,Jits_Linear_5,0,1,48,78,1851523572
81,19,19,Jits_Linear_5,1,5,80,127,1851553340
81,19,19,Jits_Linear_5,2,5,56,103,1851622812
81,19,19,Jits_Linear_5,3,5,63,98,1851633232
81,19,19,Jits_Linear_5,0,1,48,84,1852101480
81,19,19,Jits_Linear_5,1,5,63,98,1852172780
81,19,19,Jits_Linear_5,2,5,56,103,1852182976
81,19,19,Jits_Linear_5,3,5,80,127,1852203348
81,19,19,Jits_Linear_5,0,1,48,82,1852672592
81,19,19,Jits_Linear_5,1,5,80,127,1852703404
81,19,19,Jits_Linear_5,2,5,63,98,1852762456
81,19,19,Jits_Linear_5,3,5,56,103,1852802380
81,19,19,Jits_Linear_5,0,1,48,84,1853276564
81,19,19,Jits_Linear_5,1,5,56,103,1853332788
81,19,19,Jits_Linear_5,2,5,63,98,1853343208
81,19,19,Jits_Linear_5,3,5,80,127,1853383280
81,19,19,Jits_Linear_5,0,1,48,80,1853847576
81,19,19,Jits_Linear_5,1,5,56,103,1853882672
81,19,19,Jits_Linear_5,2,5,80,127,1853912524
81,19,19,Jits_Linear_5,3,5,63,98,1853962636
81,19,19,Jits_Linear_5,0,1,48,85,1854404732
81,19,19,Jits_Linear_5,1,5,56,103,1854512512
81,19,19,Jits_Linear_5,2,5,63,98,1854552376
81,19,19,Jits_Linear_5,3,5,80,127,1854555740
81,19,19,Jits_Linear_5,0,1,48,74,1855048132
81,19,19,Jits_Linear_5,1,5,56,103,1855103232
81,19,19,Jits_Linear_5,2,5,63,98,1855112460
81,19,19,Jits_Linear_5,3,5,80,127,1855133288
81,19,19,Jits_Linear_5,0,1,48,78,1855617272
81,19,19,Jits_Linear_5,1,5,56,103,1855653260
81,19,19,Jits_Linear_5,2,5,80,127,1855656476
81,19,19,Jits_Linear_5,3,5,63,98,1855693348
81,19,19,Jits_Linear_5,0,1,48,78,1856172912
81,19,19,Jits_Linear_5,1,5,63,98,1856283012
81,19,19,Jits_Linear_5,2,5,56,103,1856312692
81,19,19,Jits_Linear_5,3,5,80,127,1856333296
81,19,19,Jits_Linear_5,0,1,48,75,1856776160
81,19,19,Jits_Linear_5,1,5,80,127,1856853364
81,19,19,Jits_Linear_5,2,5,56,103,1856862512
81,19,19,Jits_Linear_5,3,5,63,98,1856873364
81,19,19,Jits_Linear_5,0,1,48,73,1857372644
81,19,19,Jits_Linear_5,1,5,56,103,1857453508
81,19,19,Jits_Linear_5,2,5,80,127,1857493364
81,19,19,Jits_Linear_5,3,5,63,98,1857523212
81,19,19,Jits_Linear_5,0,1,48,65,1857929332
81,19,19,Jits_Linear_5,1,5,63,98,1858062668
81,19,19,Jits_Linear_5,2,5,80,127,1858073236
81,19,19,Jits_Linear_5,3,5,56,103,1858083284
81,19,19,Jits_Linear_5,0,1,48,57,1858554836
81,19,19,Jits_Linear_5,1,5,56,103,1858643280
81,19,19,Jits_Linear_5,2,5,63,98,1858713172
81,19,19,Jits_Linear_5,3,5,80,127,1858723144
81,19,19,Jits_Linear_5,0,1,48,74,1859120988
81,19,19,Jits_Linear_5,1,5,80,127,1859252712
81,19,19,Jits_Linear_5,2,5,56,103,1859262760
81,19,19,Jits_Linear_5,3,5,63,98,1859313064
81,19,19,Jits_Linear_5,0,1,48,64,1859705544
81,19,19,Jits_Linear_5,1,5,80,127,1859873120
81,19,19,Jits_Linear_5,2,5,56,103,1859932468
81,19,19,Jits_Linear_5,3,5,63,98,1859963340
81,19,19,Jits_Linear_5,0,1,48,65,1860297312
81,19,19,Jits_Linear_5,1,5,56,103,1860482420
81,19,19,Jits_Linear_5,2,5,80,127,1860485264
81,19,19,Jits_Linear_5,3,5,63,98,1860523332
81,19,19,Jits_Linear_5,0,1,48,72,1860934124
81,19,19,Jits_Linear_5,1,5,56,103,1861122376
81,19,19,Jits_Linear_5,2,5,63,98,1861153324
81,19,19,Jits_Linear_5,3,5,80,127,1861163444
81,19,19,Jits_Linear_5,0,1,48,68,1861553016
81,19,19,Jits_Linear_5,1,5,63,98,1861743136
81,19,19,Jits_Linear_5,2,5,80,127,1861753112
81,19,19,Jits_Linear_5,3,5,56,103,1861762336
81,19,19,Jits_Linear_5,0,1,48,70,1862168632
81,19,19,Jits_Linear_5,1,5,80,127,1862302988
81,19,19,Jits_Linear_5,2,5,56,103,1862353264
81,19,19,Jits_Linear_5,3,5,63,98,1862356480
81,19,19,Jits_Linear_5,0,1,48,71,1862833516
81,19,19,Jits_Linear_5,1,5,56,103,1862953352
81,19,19,Jits_Linear_5,2,5,80,127,1862972992
81,19,19,Jits_Linear_5,3,5,63,98,1862982964
81,19,19,Jits_Linear_5,0,1,48,77,1863442912
81,19,19,Jits_Linear_5,1,5,63,98,1863553288
81,19,19,Jits_Linear_5,2,5,56,103,1863583188
81,19,19,Jits_Linear_5,3,5,80,127,1863602452
81,19,19,Jits_Linear_5,0,1,48,77,1864076628
81,19,19,Jits_Linear_5,1,5,56,103,1864183064
81,19,19,Jits_Linear_5,2,5,80,127,1864193332
81,19,19,Jits_Linear_5,3,5,63,98,1864263164
81,19,19,Jits_Linear_5,0,1,48,59,1864744320
81,19,19,Jits_Linear_5,1,5,63,98,1864792300
81,19,19,Jits_Linear_5,2,5,80,127,1864833512
81,19,19,Jits_Linear_5,3,5,56,103,1864873212
81,19,19,Jits_Linear_5,0,1,48,67,1865348812
81,19,19,Jits_Linear_5,1,5,56,103,1865432340
81,19,19,Jits_Linear_5,2,5,63,98,1865442672
81,19,19,Jits_Linear_5,3,5,80,127,1865463132
81,19,19,Jits_Linear_5,0,1,48,84,1865968396
81,19,19,Jits_Linear_5,1,5,63,98,1866103204
81,19,19,Jits_Linear_5,2,5,80,127,1866122544
81,19,19,Jits_Linear_5,3,5,56,103,1866143156
81,19,19,Jits_Linear_5,0,1,48,64,1866574932
81,19,19,Jits_Linear_5,1,5,56,103,1866682836
81,19,19,Jits_Linear_5,2,5,80,127,1866762512
81,19,19,Jits_Linear_5,3,5,63,98,1866773080
81,19,19,Jits_Linear_5,0,1,48,87,1867213004
81,19,19,Jits_Linear_5,1,5,80,127,1867362736
81,19,19,Jits_Linear_5,2,5,63,98,1867372860
81,19,19,Jits_Linear_5,3,5,56,103,1867402536
81,19,19,Jits_Linear_5,0,1,48,81,1867831616
81,19,19,Jits_Linear_5,1,5,63,98,1867962964
81,19,19,Jits_Linear_5,2,5,80,127,1868002708
81,19,19,Jits_Linear_5,3,5,56,103,1868063024
81,19,19,Jits_Linear_5,0,1,48,70,1868451100
81,19,19,Jits_Linear_5,1,5,63,98,1868623160
81,19,19,Jits_Linear_5,2,5,56,103,1868673440
81,19,19,Jits_Linear_5,3,5,80,127,1868702968
81,19,19,Jits_Linear_5,0,1,48,82,1869075028
81,19,19,Jits_Linear_5,1,5,80,127,1869272868
81,19,19,Jits_Linear_5,2,5,63,98,1869282916
81,19,19,Jits_Linear_5,3,5,56,103,1869353272
81,19,19,Jits_Linear_5,0,1,48,79,1869775208
81,19,19,Jits_Linear_5,1,5,80,127,1869983016
81,19,19,Jits_Linear_5,2,5,56,103,1869993284
81,19,19,Jits_Linear_5,3,5,63,98,1869996352
81,19,19,Jits_Linear_5,0,1,48,73,1870451664
81,19,19,Jits_Linear_5,1,5,56,103,1870562812
81,19,19,Jits_Linear_5,2,5,80,127,1870583196
81,19,19,Jits_Linear_5,3,5,63,98,1870593396
81,19,19,Jits_Linear_5,0,1,48,75,1871089820
81,19,19,Jits_Linear_5,1,5,63,98,1871213016
81,19,19,Jits_Linear_5,2,5,56,103,1871252880
81,19,19,Jits_Linear_5,3,5,80,127,1871273268
81,19,19,Jits_Linear_5,0,1,48,75,1871728488
81,19,19,Jits_Linear_5,1,5,63,98,1871852912
81,19,19,Jits_Linear_5,2,5,56,103,1871913376
81,19,19,Jits_Linear_5,3,5,80,127,1871916372
81,19,19,Jits_Linear_5,0,1,48,78,1872383960
81,19,19,Jits_Linear_5,1,5,56,103,1872472404
81,19,19,Jits_Linear_5,2,5,80,127,1872492852
81,19,19,Jits_Linear_5,3,5,63,98,1872532936
81,19,19,Jits_Linear_5,0,1,48,87,1873037980
81,19,19,Jits_Linear_5,1,5,56,103,1873153260
81,19,19,Jits_Linear_5,2,5,63,98,1873172972
81,19,19,Jits_Linear_5,3,5,80,127,1873183096
81,19,19,Jits_Linear_5,0,1,48,86,1873669852
81,19,19,Jits_Linear_5,1,5,80,127,1873772896
81,19,19,Jits_Linear_5,2,5,56,103,1873802724
81,19,19,Jits_Linear_5,3,5,63,98,1873842812
81,19,19,Jits_Linear_5,0,1,48,92,1874319232
81,19,19,Jits_Linear_5,1,5,80,127,1874433312
81,19,19,Jits_Linear_5,2,5,56,103,1874452800
81,19,19,Jits_Linear_5,3,5,63,98,1874513192
81,19,19,Jits_Linear_5,0,1,48,70,1874939416
81,19,19,Jits_Linear_5,1,5,56,103,1875092960
81,19,19,Jits_Linear_5,2,5,80,127,1875113196
81,19,19,Jits_Linear_5,3,5,63,98,1875173012
81,19,19,Jits_Linear_5,0,1,48,78,1875619812
81,19,19,Jits_Linear_5,1,5,80,127,1875732924
81,19,19,Jits_Linear_5,2,5,56,103,1875743120
81,19,19,Jits_Linear_5,3,5,63,98,1875782984
81,19,19,Jits_Linear_5,0,1,48,91,1876297392
81,19,19,Jits_Linear_5,1,5,63,98,1876393328
81,19,19,Jits_Linear_5,2,5,56,103,1876433252
81,19,19,Jits_Linear_5,3,5,80,127,1876436392
81,19,19,Jits_Linear_5,0,1,48,78,1876964140
81,19,19,Jits_Linear_5,1,5,63,98,1877073248
81,19,19,Jits_Linear_5,2,5,80,127,1877113188
81,19,19,Jits_Linear_5,3,5,56,103,1877142864
81,19,19,Jits_Linear_5,0,1,48,95,1877701564
81,19,19,Jits_Linear_5,1,5,56,103,1877722740
81,19,19,Jits_Linear_5,2,5,63,98,1877732860
81,19,19,Jits_Linear_5,3,5,80,127,1877762388
81,19,19,Jits_Linear_5,0,1,48,77,1878359940
81,19,19,Jits_Linear_5,1,5,80,127,1878382908
81,19,19,Jits_Linear_5,2,5,63,98,1878452664
81,19,19,Jits_Linear_5,3,5,56,103,1878462924
81,19,19,Jits_Linear_5,0,5,63,98,1879052848
81,19,19,Jits_Linear_5,1,1,48,91,1879055892
81,19,19,Jits_Linear_5,2,5,56,103,1879123724
81,19,19,Jits_Linear_5,3,5,80,127,1879132576
81,19,19,Jits_Linear_5,0,1,48,85,1879713208
81,19,19,Jits_Linear_5,1,5,63,98,1879723272
81,19,19,Jits_Linear_5,2,5,56,103,1879742908
81,19,19,Jits_Linear_5,3,5,80,127,1879782872
81,19,19,Jits_Linear_5,0,1,48,92,1880333388
81,19,19,Jits_Linear_5,1,5,56,103,1880403168
81,19,19,Jits_Linear_5,2,5,63,98,1880412688
81,19,19,Jits_Linear_5,3,5,80,127,1880493444
81,19,19,Jits_Linear_5,0,1,48,79,1881023224
81,19,19,Jits_Linear_5,1,5,63,98,1881062684
81,19,19,Jits_Linear_5,2,5,56,103,1881092584
81,19,19,Jits_Linear_5,3,5,80,127,1881133628
81,19,19,Jits_Linear_5,0,1,48,67,1881704168
81,19,19,Jits_Linear_5,1,5,56,103,1881732740
81,19,19,Jits_Linear_5,2,5,63,98,1881773728
81,19,19,Jits_Linear_5,3,5,80,127,1881813452
81,19,19,Jits_Linear_5,0,1,48,84,1882373872
81,19,19,Jits_Linear_5,1,5,80,127,1882413384
81,19,19,Jits_Linear_5,2,5,56,103,1882493316
81,19,19,Jits_Linear_5,3,5,63,98,1882502616
81,19,19,Jits_Linear_5,0,1,48,83,1883048420
81,19,19,Jits_Linear_5,1,5,56,103,1883133364
81,19,19,Jits_Linear_5,2,5,63,98,1883136580
81,19,19,Jits_Linear_5,3,5,80,127,1883142648
81,19,19,Jits_Linear_5,0,1,48,75,1883720356
81,19,19,Jits_Linear_5,1,5,56,103,1883832620
81,19,19,Jits_Linear_5,2,5,63,98,1883853380
81,19,19,Jits_Linear_5,3,5,80,127,1883863524
81,19,19,Jits_Linear_5,0,1,48,74,1884395996
81,19,19,Jits_Linear_5,1,5,63,98,1884472676
81,19,19,Jits_Linear_5,2,5,80,127,1884482796
81,19,19,Jits_Linear_5,3,5,56,103,1884503540
81,19,19,Jits_Linear_5,0,1,48,78,1885051600
81,19,19,Jits_Linear_5,1,5,63,98,1885162968
81,19,19,Jits_Linear_5,2,5,56,103,1885242768
81,19,19,Jits_Linear_5,3,5,80,127,1885245832
81,19,19,Jits_Linear_5,0,1,48,79,1885704136
81,19,19,Jits_Linear_5,1,5,63,98,1885853100
81,19,19,Jits_Linear_5,2,5,56,103,1885872660
81,19,19,Jits_Linear_5,3,5,80,127,1885903532
81,19,19,Jits_Linear_5,0,1,48,80,1886416596
81,19,19,Jits_Linear_5,1,5,56,103,1886543112
81,19,19,Jits_Linear_5,2,5,63,98,1886562600
81,19,19,Jits_Linear_5,3,5,80,127,1886572872
81,19,19,Jits_Linear_5,0,1,48,79,1887116944
81,19,19,Jits_Linear_5,1,5,56,103,1887263092
81,19,19,Jits_Linear_5,2,5,63,98,1887292684
81,19,19,Jits_Linear_5,3,5,80,127,1887296056
81,19,19,Jits_Linear_5,0,5,56,103,1887903192
81,19,19,Jits_Linear_5,1,5,63,98,1887942984
81,19,19,Jits_Linear_5,2,1,48,63,1887988672
81,19,19,Jits_Linear_5,3,5,80,127,1888002568
81,19,19,Jits_Linear_5,0,5,56,103,1888612628
81,19,19,Jits_Linear_5,1,5,63,98,1888623048
81,19,19,Jits_Linear_5,2,1,48,86,1888657556
81,19,19,Jits_Linear_5,3,5,80,127,1888683580
81,19,19,Jits_Linear_5,0,1,48,85,1889274368
81,19,19,Jits_Linear_5,1,5,56,103,1889313132
81,19,19,Jits_Linear_5,2,5,80,127,1889332544
81,19,19,Jits_Linear_5,3,5,63,98,1889363416
81,19,19,Jits_Linear_5,0,1,48,91,1889931320
81,19,19,Jits_Linear_5,1,5,80,127,1890012508
81,19,19,Jits_Linear_5,2,5,56,103,1890022708
81,19,19,Jits_Linear_5,3,5,63,98,1890043448
81,19,19,Jits_Linear_5,0,1,48,89,1890601696
81,19,19,Jits_Linear_5,1,5,63,98,1890702704
81,19,19,Jits_Linear_5,2,5,80,127,1890782528
81,19,19,Jits_Linear_5,3,5,56,103,1890792800
81,19,19,Jits_Linear_5,0,1,48,62,1891366176
81,19,19,Jits_Linear_5,1,5,80,127,1891462472
81,19,19,Jits_Linear_5,2,5,56,103,1891483004
81,19,19,Jits_Linear_5,3,5,63,98,1891485996
81,19,19,Jits_Linear_5,0,1,48,68,1892070484
81,19,19,Jits_Linear_5,1,5,63,98,1892142592
81,19,19,Jits_Linear_5,2,5,80,127,1892145956
81,19,19,Jits_Linear_5,3,5,56,103,1892202820
81,19,19,Jits_Linear_5,0,1,48,78,1892764888
81,19,19,Jits_Linear_5,1,5,56,103,1892832520
81,19,19,Jits_Linear_5,2,5,80,127,1892842716
81,19,19,Jits_Linear_5,3,5,63,98,1892882716
81,19,19,Jits_Linear_5,0,1,48,83,1893460796
81,19,19,Jits_Linear_5,1,5,56,103,1893522652
81,19,19,Jits_Linear_5,2,5,63,98,1893583700
81,19,19,Jits_Linear_5,3,5,80,127,1893592428
81,19,19,Jits_Linear_5,0,1,48,78,1894090936
81,19,19,Jits_Linear_5,1,5,63,98,1894242616
81,19,19,Jits_Linear_5,2,5,80,127,1894282560
81,19,19,Jits_Linear_5,3,5,56,103,1894322496
81,19,19,Jits_Linear_5,0,1,48,77,1894890416
81,19,19,Jits_Linear_5,1,5,56,103,1894953392
81,19,19,Jits_Linear_5,2,5,63,98,1895033476
81,19,19,Jits_Linear_5,3,5,80,127,1895036840
81,19,19,Jits_Linear_5,0,1,48,84,1895650500
81,19,19,Jits_Linear_5,1,5,80,127,1895723492
81,19,19,Jits_Linear_5,2,5,56,103,1895753004
81,19,19,Jits_Linear_5,3,5,63,98,1895756144
81,19,19,Jits_Linear_5,0,1,48,86,1896344664
81,19,19,Jits_Linear_5,1,5,56,103,1896403428
81,19,19,Jits_Linear_5,2,5,80,127,1896422692
81,19,19,Jits_Linear_5,3,5,63,98,1896462692
81,19,19,Jits_Linear_5,0,1,48,80,1897014344
81,19,19,Jits_Linear_5,1,5,80,127,1897102780
81,19,19,Jits_Linear_5,2,5,63,98,1897123228
81,19,19,Jits_Linear_5,3,5,56,103,1897182520
81,19,19,Jits_Linear_5,0,1,48,75,1897727720
81,19,19,Jits_Linear_5,1,5,63,98,1897832708
81,19,19,Jits_Linear_5,2,5,56,103,1897843280
81,19,19,Jits_Linear_5,3,5,80,127,1897893256
81,19,19,Jits_Linear_5,0,1,48,78,1898422588
81,19,19,Jits_Linear_5,1,5,56,103,1898542500
81,19,19,Jits_Linear_5,2,5,63,98,1898562960
81,19,19,Jits_Linear_5,3,5,80,127,1898573308
81,19,19,Jits_Linear_5,0,1,48,92,1899130784
81,19,19,Jits_Linear_5,1,5,56,103,1899263372
81,19,19,Jits_Linear_5,2,5,63,98,1899266440
81,19,19,Jits_Linear_5,3,5,80,127,1899282784
81,19,19,Jits_Linear_5,0,1,48,84,1899870328
81,19,19,Jits_Linear_5,1,5,63,98,1900033540
81,19,19,Jits_Linear_5,2,5,56,103,1900063216
81,19,19,Jits_Linear_5,3,5,80,127,1900092816
81,19,19,Jits_Linear_5,0,1,48,81,1900596736
81,19,19,Jits_Linear_5,1,5,80,127,1900722480
81,19,19,Jits_Linear_5,2,5,56,103,1900812644
81,19,19,Jits_Linear_5,3,5,63,98,1900815784
81,19,19,Jits_Linear_5,0,1,48,73,1901334620
81,19,19,Jits_Linear_5,1,5,56,103,1901452640
81,19,19,Jits_Linear_5,2,5,80,127,1901455632
81,19,19,Jits_Linear_5,3,5,63,98,1901532460
81,19,19,Jits_Linear_5,0,1,48,86,1902010664
81,19,19,Jits_Linear_5,1,5,80,127,1902182648
81,19,19,Jits_Linear_5,2,5,63,98,1902243340
81,19,19,Jits_Linear_5,3,5,56,103,1902272868
81,19,19,Jits_Linear_5,0,1,48,74,1902703288
81,19,19,Jits_Linear_5,1,5,63,98,1902912816
81,19,19,Jits_Linear_5,2,5,80,127,1902923388
81,19,19,Jits_Linear_5,3,5,56,103,1902992624
81,19,19,Jits_Linear_5,0,1,48,81,1903410684
81,19,19,Jits_Linear_5,1,5,56,103,1903662392
81,19,19,Jits_Linear_5,2,5,80,127,1903693116
81,19,19,Jits_Linear_5,3,5,63,98,1903743316
81,19,19,Jits_Linear_5,0,1,48,80,1904127876
81,19,19,Jits_Linear_5,1,5,63,98,1904442608
81,19,19,Jits_Linear_5,2,5,56,103,1904472360
81,19,19,Jits_Linear_5,3,5,80,127,1904475424
81,19,19,Jits_Linear_5,0,1,48,71,1904852432
81,19,19,Jits_Linear_5,1,5,63,98,1905193376
81,19,19,Jits_Linear_5,2,5,80,127,1905212640
81,19,19,Jits_Linear_5,3,5,56,103,1905223208
81,19,19,Jits_Linear_5,0,1,48,83,1905643740
81,19,19,Jits_Linear_5,1,5,56,103,1905943024
81,19,19,Jits_Linear_5,2,5,63,98,1905946316
81,19,19,Jits_Linear_5,3,5,80,127,1905963336
81,19,19,Jits_Linear_5,0,1,48,81,1906487780
81,19,19,Jits_Linear_5,1,5,56,103,1906643516
81,19,19,Jits_Linear_5,2,5,63,98,1906652444
81,19,19,Jits_Linear_5,3,5,80,127,1906683240
81,19,19,Jits_Linear_5,0,1,48,91,1907311536
81,19,19,Jits_Linear_5,1,5,63,98,1907413244
81,19,19,Jits_Linear_5,2,5,80,127,1907432804
81,19,19,Jits_Linear_5,3,5,56,103,1907472744
81,19,19,Jits_Linear_5,0,1,48,85,1908073244
81,19,19,Jits_Linear_5,1,5,56,103,1908192564
81,19,19,Jits_Linear_5,2,5,63,98,1908232576
81,19,19,Jits_Linear_5,3,5,80,127,1908236088
81,19,19,Jits_Linear_5,0,1,48,91,1908866196
81,19,19,Jits_Linear_5,1,5,80,127,1908882932
81,19,19,Jits_Linear_5,2,5,56,103,1908922872
81,19,19,Jits_Linear_5,3,5,63,98,1908973008
81,19,19,Jits_Linear_5,0,1,48,92,1909636296
81,19,19,Jits_Linear_5,1,5,56,103,1909692892
81,19,19,Jits_Linear_5,2,5,80,127,1909703016
81,19,19,Jits_Linear_5,3,5,63,98,1909732924
81,19,19,Jits_Linear_5,0,1,48,77,1910349232
81,19,19,Jits_Linear_5,1,5,56,103,1910393244
81,19,19,Jits_Linear_5,2,5,80,127,1910433184
81,19,19,Jits_Linear_5,3,5,63,98,1910483396
81,19,19,Jits_Linear_5,0,1,48,73,1911098204
81,19,19,Jits_Linear_5,1,5,56,103,1911153008
81,19,19,Jits_Linear_5,2,5,80,127,1911193380
81,19,19,Jits_Linear_5,3,5,63,98,1911243136
81,19,19,Jits_Linear_5,0,1,48,73,1911847332
81,19,19,Jits_Linear_5,1,5,80,127,1911902656
81,19,19,Jits_Linear_5,2,5,63,98,1911982444
81,19,19,Jits_Linear_5,3,5,56,103,1911992936
81,19,19,Jits_Linear_5,0,1,48,79,1912575404
81,19,19,Jits_Linear_5,1,5,80,127,1912712536
81,19,19,Jits_Linear_5,2,5,56,103,1912722880
81,19,19,Jits_Linear_5,3,5,63,98,1912743264
81,19,19,Jits_Linear_5,0,1,48,70,1913350396
81,19,19,Jits_Linear_5,1,5,63,98,1913442648
81,19,19,Jits_Linear_5,2,5,56,103,1913513288
81,19,19,Jits_Linear_5,3,5,80,127,1913516428
81,19,19,Jits_Linear_5,0,1,48,62,1914181400
81,19,19,Jits_Linear_5,1,5,80,127,1914202552
81,19,19,Jits_Linear_5,2,5,63,98,1914252908
81,19,19,Jits_Linear_5,3,5,56,103,1914292460
81,19,19,Jits_Linear_5,0,5,63,98,1915012452
81,19,19,Jits_Linear_5,1,1,48,89,1915019388
81,19,19,Jits_Linear_5,2,5,56,103,1915053360
81,19,19,Jits_Linear_5,3,5,80,127,1915062884
81,19,19,Jits_Linear_5,0,5,63,98,1915773192
81,19,19,Jits_Linear_5,1,5,56,103,1915792832
81,19,19,Jits_Linear_5,2,1,48,88,1915795200
81,19,19,Jits_Linear_5,3,5,80,127,1915813284
81,19,19,Jits_Linear_5,0,5,80,127,1916503364
81,19,19,Jits_Linear_5,1,5,56,103,1916512888
81,19,19,Jits_Linear_5,2,1,48,86,1916531076
81,19,19,Jits_Linear_5,3,5,63,98,1916533040
81,19,19,Jits_Linear_5,0,1,48,80,1917213352
81,19,19,Jits_Linear_5,1,5,63,98,1917303140
81,19,19,Jits_Linear_5,2,5,56,103,1917343064
81,19,19,Jits_Linear_5,3,5,80,127,1917372964
81,19,19,Jits_Linear_5,0,1,48,74,1918040016
81,19,19,Jits_Linear_5,1,5,56,103,1918082392
81,19,19,Jits_Linear_5,2,5,63,98,1918113116
81,19,19,Jits_Linear_5,3,5,80,127,1918143072
81,19,19,Jits_Linear_5,0,1,48,76,1918831960
81,19,19,Jits_Linear_5,1,5,80,127,1918833236
81,19,19,Jits_Linear_5,2,5,56,103,1918902696
81,19,19,Jits_Linear_5,3,5,63,98,1918905912
81,19,19,Jits_Linear_5,0,1,48,81,1919556700
81,19,19,Jits_Linear_5,1,5,56,103,1919622440
81,19,19,Jits_Linear_5,2,5,63,98,1919672776
81,19,19,Jits_Linear_5,3,5,80,127,1919703300
81,19,19,Jits_Linear_5,0,1,48,72,1920382332
81,19,19,Jits_Linear_5,1,5,63,98,1920383924
81,19,19,Jits_Linear_5,2,5,80,127,1920387056
81,19,19,Jits_Linear_5,3,5,56,103,1920442888
81,19,19,Jits_Linear_5,0,1,48,87,1921171072
81,19,19,Jits_Linear_5,1,5,56,103,1921193268
81,19,19,Jits_Linear_5,2,5,80,127,1921202716
81,19,19,Jits_Linear_5,3,5,63,98,1921252944
81,19,19,Jits_Linear_5,0,1,48,70,1921927752
81,19,19,Jits_Linear_5,1,5,63,98,1921953256
81,19,19,Jits_Linear_5,2,5,56,103,1921963452
81,19,19,Jits_Linear_5,3,5,80,127,1921992980
81,19,19,Jits_Linear_5,0,1,48,53,1922666004
81,19,19,Jits_Linear_5,1,5,63,98,1922773336
81,19,19,Jits_Linear_5,2,5,80,127,1922776700
81,19,19,Jits_Linear_5,3,5,56,103,1922803012
81,19,19,Jits_Linear_5,0,1,48,49,1923495808
81,19,19,Jits_Linear_5,1,5,63,98,1923583228
81,19,19,Jits_Linear_5,2,5,56,103,1923602772
81,19,19,Jits_Linear_5,3,5,80,127,1923605916
81,19,19,Jits_Linear_5,0,1,48,67,1924289196
81,19,19,Jits_Linear_5,1,5,63,98,1924332864
81,19,19,Jits_Linear_5,2,5,56,103,1924402608
81,19,19,Jits_Linear_5,3,5,80,127,1924422920
81,19,19,Jits_Linear_5,0,1,48,63,1925074472
81,19,19,Jits_Linear_5,1,5,56,103,1925113232
81,19,19,Jits_Linear_5,2,5,63,98,1925122532
81,19,19,Jits_Linear_5,3,5,80,127,1925212876
81,19,19,Jits_Linear_5,0,1,48,69,1925824244
81,19,19,Jits_Linear_5,1,5,56,103,1925923180
81,19,19,Jits_Linear_5,2,5,80,127,1925963124
81,19,19,Jits_Linear_5,3,5,63,98,1925973840
81,19,19,Jits_Linear_5,0,1,48,81,1926634896
81,19,19,Jits_Linear_5,1,5,56,103,1926743548
81,19,19,Jits_Linear_5,2,5,63,98,1926773080
81,19,19,Jits_Linear_5,3,5,80,127,1926802756
81,19,19,Jits_Linear_5,0,1,48,71,1927356720
81,19,19,Jits_Linear_5,1,5,80,127,1927503240
81,19,19,Jits_Linear_5,2,5,63,98,1927543032
81,19,19,Jits_Linear_5,3,5,56,103,1927562668
81,19,19,Jits_Linear_5,0,1,48,75,1928281944
81,19,19,Jits_Linear_5,1,5,56,103,1928342808
81,19,19,Jits_Linear_5,2,5,80,127,1928363492
81,19,19,Jits_Linear_5,3,5,63,98,1928382816
81,19,19,Jits_Linear_5,0,5,63,98,1929112844
81,19,19,Jits_Linear_5,1,5,56,103,1929123188
81,19,19,Jits_Linear_5,2,1,48,90,1929126904
81,19,19,Jits_Linear_5,3,5,80,127,1929182624
81,19,19,Jits_Linear_5,0,1,48,79,1929904188
81,19,19,Jits_Linear_5,1,5,56,103,1929922872
81,19,19,Jits_Linear_5,2,5,63,98,1929992656
81,19,19,Jits_Linear_5,3,5,80,127,1930013024
81,19,19,Jits_Linear_5,0,1,48,71,1930721220
81,19,19,Jits_Linear_5,1,5,56,103,1930732856
81,19,19,Jits_Linear_5,2,5,63,98,1930762532
81,19,19,Jits_Linear_5,3,5,80,127,1930802472
81,19,19,Jits_Linear_5,0,1,48,76,1931514316
81,19,19,Jits_Linear_5,1,5,63,98,1931532772
81,19,19,Jits_Linear_5,2,5,56,103,1931582904
81,19,19,Jits_Linear_5,3,5,80,127,1931593024
81,19,19,Jits_Linear_5,0,1,48,89,1932284556
81,19,19,Jits_Linear_5,1,5,56,103,1932382572
81,19,19,Jits_Linear_5,2,5,63,98,1932432628
81,19,19,Jits_Linear_5,3,5,80,127,1932442900
81,19,19,Jits_Linear_5,0,1,48,89,1933158728
81,19,19,Jits_Linear_5,1,5,56,103,1933162808
81,19,19,Jits_Linear_5,2,5,63,98,1933173080
81,19,19,Jits_Linear_5,3,5,80,127,1933252860
81,19,19,Jits_Linear_5,0,9999,9999,9999,1824330868
81,19,19,Jits_Linear_5,1,9999,9999,9999,1824811104
81,19,19,Jits_Linear_5,2,9999,9999,9999,1825300560
81,19,19,Jits_Linear_5,3,9999,9999,9999,1825780812
81,19,19,Jits_Linear_5,4,9999,9999,9999,1826261072
81,19,19,Jits_Linear_5,5,9999,9999,9999,1826750584
81,19,19,Jits_Linear_5,6,9999,9999,9999,1827241056
81,19,19,Jits_Linear_5,7,9999,9999,9999,1827730496
81,19,19,Jits_Linear_5,8,9999,9999,9999,1828220984
81,19,19,Jits_Linear_5,9,9999,9999,9999,1828710528
81,19,19,Jits_Linear_5,10,9999,9999,9999,1829210212
81,19,19,Jits_Linear_5,11,9999,9999,9999,1829710964
81,19,19,Jits_Linear_5,12,9999,9999,9999,1830210652
81,19,19,Jits_Linear_5,13,9999,9999,9999,1830710336
81,19,19,Jits_Linear_5,14,9999,9999,9999,1831211068
81,19,19,Jits_Linear_5,15,9999,9999,9999,1831730252
81,19,19,Jits_Linear_5,16,9999,9999,9999,1832240204
81,19,19,Jits_Linear_5,17,9999,9999,9999,1832750160
81,19,19,Jits_Linear_5,18,9999,9999,9999,1833260112
81,19,19,Jits_Linear_5,19,9999,9999,9999,1833771116
81,19,19,Jits_Linear_5,20,9999,9999,9999,1834300476
81,19,19,Jits_Linear_5,21,9999,9999,9999,1834820688
81,19,19,Jits_Linear_5,22,9999,9999,9999,1835340904
81,19,19,Jits_Linear_5,23,9999,9999,9999,1835861052
81,19,19,Jits_Linear_5,24,9999,9999,9999,1836380220
81,19,19,Jits_Linear_5,25,9999,9999,9999,1836910696
81,19,19,Jits_Linear_5,26,9999,9999,9999,1837440056
81,19,19,Jits_Linear_5,27,9999,9999,9999,1837970508
81,19,19,Jits_Linear_5,28,9999,9999,9999,1838500920
81,19,19,Jits_Linear_5,29,9999,9999,9999,1839030352
81,19,19,Jits_Linear_5,30,9999,9999,9999,1839571016
81,19,19,Jits_Linear_5,31,9999,9999,9999,1840110660
81,19,19,Jits_Linear_5,32,9999,9999,9999,1840650356
81,19,19,Jits_Linear_5,33,9999,9999,9999,1841191024
81,19,19,Jits_Linear_5,34,9999,9999,9999,1841730644
81,19,19,Jits_Linear_5,35,9999,9999,9999,1842280532
81,19,19,Jits_Linear_5,36,9999,9999,9999,1842830404
81,19,19,Jits_Linear_5,37,9999,9999,9999,1843380316
81,19,19,Jits_Linear_5,38,9999,9999,9999,1843930180
81,19,19,Jits_Linear_5,39,9999,9999,9999,1844480064
81,19,19,Jits_Linear_5,40,9999,9999,9999,1845040216
81,19,19,Jits_Linear_5,41,9999,9999,9999,1845600360
81,19,19,Jits_Linear_5,42,9999,9999,9999,1846160444
81,19,19,Jits_Linear_5,43,9999,9999,9999,1846720588
81,19,19,Jits_Linear_5,44,9999,9999,9999,1847280760
81,19,19,Jits_Linear_5,45,9999,9999,9999,1847851096
81,19,19,Jits_Linear_5,46,9999,9999,9999,1848430648
81,19,19,Jits_Linear_5,47,9999,9999,9999,1849001068
81,19,19,Jits_Linear_5,48,9999,9999,9999,1849570384
81,19,19,Jits_Linear_5,49,9999,9999,9999,1850140744
81,19,19,Jits_Linear_5,50,9999,9999,9999,1850720340
81,19,19,Jits_Linear_5,51,9999,9999,9999,1851300940
81,19,19,Jits_Linear_5,52,9999,9999,9999,1851880520
81,19,19,Jits_Linear_5,53,9999,9999,9999,1852460148
81,19,19,Jits_Linear_5,54,9999,9999,9999,1853040752
81,19,19,Jits_Linear_5,55,9999,9999,9999,1853630572
81,19,19,Jits_Linear_5,56,9999,9999,9999,1854220412
81,19,19,Jits_Linear_5,57,9999,9999,9999,1854810224
81,19,19,Jits_Linear_5,58,9999,9999,9999,1855401088
81,19,19,Jits_Linear_5,59,9999,9999,9999,1855990840
81,19,19,Jits_Linear_5,60,9999,9999,9999,1856590924
81,19,19,Jits_Linear_5,61,9999,9999,9999,1857190996
81,19,19,Jits_Linear_5,62,9999,9999,9999,1857791100
81,19,19,Jits_Linear_5,63,9999,9999,9999,1858390128
81,19,19,Jits_Linear_5,64,9999,9999,9999,1858990132
81,19,19,Jits_Linear_5,65,9999,9999,9999,1859600504
81,19,19,Jits_Linear_5,66,9999,9999,9999,1860210776
81,19,19,Jits_Linear_5,67,9999,9999,9999,1860821108
81,19,19,Jits_Linear_5,68,9999,9999,9999,1861430360
81,19,19,Jits_Linear_5,69,9999,9999,9999,1862040636
81,19,19,Jits_Linear_5,70,9999,9999,9999,1862660212
81,19,19,Jits_Linear_5,71,9999,9999,9999,1863280744
81,19,19,Jits_Linear_5,72,9999,9999,9999,1863900256
81,19,19,Jits_Linear_5,73,9999,9999,9999,1864520792
81,19,19,Jits_Linear_5,74,9999,9999,9999,1865140352
81,19,19,Jits_Linear_5,75,9999,9999,9999,1865771100
81,19,19,Jits_Linear_5,76,9999,9999,9999,1866411116
81,19,19,Jits_Linear_5,77,9999,9999,9999,1867051084
81,19,19,Jits_Linear_5,78,9999,9999,9999,1867691100
81,19,19,Jits_Linear_5,79,9999,9999,9999,1868331136
81,19,19,Jits_Linear_5,80,9999,9999,9999,1868971080
81,19,19,Jits_Linear_5,81,9999,9999,9999,1869611124
81,19,19,Jits_Linear_5,82,9999,9999,9999,1870251132
81,19,19,Jits_Linear_5,83,9999,9999,9999,1870891096
81,19,19,Jits_Linear_5,84,9999,9999,9999,1871531116
81,19,19,Jits_Linear_5,85,9999,9999,9999,1872190556
81,19,19,Jits_Linear_5,86,9999,9999,9999,1872840832
81,19,19,Jits_Linear_5,87,9999,9999,9999,1873491060
81,19,19,Jits_Linear_5,88,9999,9999,9999,1874140244
81,19,19,Jits_Linear_5,89,9999,9999,9999,1874790520
81,19,19,Jits_Linear_5,90,9999,9999,9999,1875450940
81,19,19,Jits_Linear_5,91,9999,9999,9999,1876110432
81,19,19,Jits_Linear_5,92,9999,9999,9999,1876770884
81,19,19,Jits_Linear_5,93,9999,9999,9999,1877430380
81,19,19,Jits_Linear_5,94,9999,9999,9999,1878090868
81,19,19,Jits_Linear_5,95,9999,9999,9999,1878760504
81,19,19,Jits_Linear_5,96,9999,9999,9999,1879430264
81,19,19,Jits_Linear_5,97,9999,9999,9999,1880100940
81,19,19,Jits_Linear_5,98,9999,9999,9999,1880770620
81,19,19,Jits_Linear_5,99,9999,9999,9999,1881440328
81,19,19,Jits_Linear_5,100,9999,9999,9999,1882120300
81,19,19,Jits_Linear_5,101,9999,9999,9999,1882800244
81,19,19,Jits_Linear_5,102,9999,9999,9999,1883480132
81,19,19,Jits_Linear_5,103,9999,9999,9999,1884160108
81,19,19,Jits_Linear_5,104,9999,9999,9999,1884841024
81,19,19,Jits_Linear_5,105,9999,9999,9999,1885530212
81,19,19,Jits_Linear_5,106,9999,9999,9999,1886220372
81,19,19,Jits_Linear_5,107,9999,9999,9999,1886910576
81,19,19,Jits_Linear_5,108,9999,9999,9999,1887600732
81,19,19,Jits_Linear_5,109,9999,9999,9999,1888290892
81,19,19,Jits_Linear_5,110,9999,9999,9999,1888990284
81,19,19,Jits_Linear_5,111,9999,9999,9999,1889690700
81,19,19,Jits_Linear_5,112,9999,9999,9999,1890390076
81,19,19,Jits_Linear_5,113,9999,9999,9999,1891090504
81,19,19,Jits_Linear_5,114,9999,9999,9999,1891790968
81,19,19,Jits_Linear_5,115,9999,9999,9999,1892500600
81,19,19,Jits_Linear_5,116,9999,9999,9999,1893210236
81,19,19,Jits_Linear_5,117,9999,9999,9999,1893920844
81,19,19,Jits_Linear_5,118,9999,9999,9999,1894630488
81,19,19,Jits_Linear_5,119,9999,9999,9999,1895340096
81,19,19,Jits_Linear_5,120,9999,9999,9999,1896061044
81,19,19,Jits_Linear_5,121,9999,9999,9999,1896780924
81,19,19,Jits_Linear_5,122,9999,9999,9999,1897500752
81,19,19,Jits_Linear_5,123,9999,9999,9999,1898220656
81,19,19,Jits_Linear_5,124,9999,9999,9999,1898940532
81,19,19,Jits_Linear_5,125,9999,9999,9999,1899670612
81,19,19,Jits_Linear_5,126,9999,9999,9999,1900400708
81,19,19,Jits_Linear_5,127,9999,9999,9999,1901130872
81,19,19,Jits_Linear_5,128,9999,9999,9999,1901860952
81,19,19,Jits_Linear_5,129,9999,9999,9999,1902591048
81,19,19,Jits_Linear_5,130,9999,9999,9999,1903330432
81,19,19,Jits_Linear_5,131,9999,9999,9999,1904070764
81,19,19,Jits_Linear_5,132,9999,9999,9999,1904811116
81,19,19,Jits_Linear_5,133,9999,9999,9999,1905560696
81,19,19,Jits_Linear_5,134,9999,9999,9999,1906301044
81,19,19,Jits_Linear_5,135,9999,9999,9999,1907050616
81,19,19,Jits_Linear_5,136,9999,9999,9999,1907800188
81,19,19,Jits_Linear_5,137,9999,9999,9999,1908550732
81,19,19,Jits_Linear_5,138,9999,9999,9999,1909300308
81,19,19,Jits_Linear_5,139,9999,9999,9999,1910050932
81,19,19,Jits_Linear_5,140,9999,9999,9999,1910810692
81,19,19,Jits_Linear_5,141,9999,9999,9999,1911570532
81,19,19,Jits_Linear_5,142,9999,9999,9999,1912330296
81,19,19,Jits_Linear_5,143,9999,9999,9999,1913090140
81,19,19,Jits_Linear_5,144,9999,9999,9999,1913850944
81,19,19,Jits_Linear_5,145,9999,9999,9999,1914621052
81,19,19,Jits_Linear_5,146,9999,9999,9999,1915391088
81,19,19,Jits_Linear_5,147,9999,9999,9999,1916160072
81,19,19,Jits_Linear_5,148,9999,9999,9999,1916930168
81,19,19,Jits_Linear_5,149,9999,9999,9999,1917700212
81,19,19,Jits_Linear_5,150,9999,9999,9999,1918480508
81,19,19,Jits_Linear_5,151,9999,9999,9999,1919260792
81,19,19,Jits_Linear_5,152,9999,9999,9999,1920041084
81,19,19,Jits_Linear_5,153,9999,9999,9999,1920820316
81,19,19,Jits_Linear_5,154,9999,9999,9999,1921600604
81,19,19,Jits_Linear_5,155,9999,9999,9999,1922390108
81,19,19,Jits_Linear_5,156,9999,9999,9999,1923180652
81,19,19,Jits_Linear_5,157,9999,9999,9999,1923970148
81,19,19,Jits_Linear_5,158,9999,9999,9999,1924760632
81,19,19,Jits_Linear_5,159,9999,9999,9999,1925550140
81,19,19,Jits_Linear_5,160,9999,9999,9999,1926350960
81,19,19,Jits_Linear_5,161,9999,9999,9999,1927150676
81,19,19,Jits_Linear_5,162,9999,9999,9999,1927950444
81,19,19,Jits_Linear_5,163,9999,9999,9999,1928750144
81,19,19,Jits_Linear_5,164,9999,9999,9999,1929550960
81,19,19,Jits_Linear_5,165,9999,9999,9999,1930360924
81,19,19,Jits_Linear_5,166,9999,9999,9999,1931170880
81,19,19,Jits_Linear_5,167,9999,9999,9999,1931980912
81,19,19,Jits_Linear_5,168,9999,9999,9999,1932790896
81,19,19,Jits_Linear_5,169,9999,9999,9999,1933600856
81,20,3,ISIP_8,0,5,42,127,2014253488
81,20,3,ISIP_8,1,5,42,127,2015053096
81,20,3,ISIP_8,2,5,42,127,2015852776
81,20,3,ISIP_8,3,1,48,54,2015894264
81,20,3,ISIP_8,4,1,48,56,2016652056
81,20,3,ISIP_8,5,5,42,127,2016653624
81,20,3,ISIP_8,6,1,48,68,2017445920
81,20,3,ISIP_8,7,5,42,127,2017453504
81,20,3,ISIP_8,8,1,48,73,2018239744
81,20,3,ISIP_8,9,5,42,127,2018253112
81,20,3,ISIP_8,10,5,42,127,2019052780
81,20,3,ISIP_8,11,1,48,81,2019056420
81,20,3,ISIP_8,12,1,48,86,2019797348
81,20,3,ISIP_8,13,5,42,127,2019852728
81,20,3,ISIP_8,14,1,48,80,2020625580
81,20,3,ISIP_8,15,5,42,127,2020653660
81,20,3,ISIP_8,16,1,48,85,2021432344
81,20,3,ISIP_8,17,5,42,127,2021453020
81,20,3,ISIP_8,18,1,48,88,2022213596
81,20,3,ISIP_8,19,5,42,127,2022252904
81,20,3,ISIP_8,20,1,48,91,2023027248
81,20,3,ISIP_8,21,5,42,127,2023052788
81,20,3,ISIP_8,22,1,48,92,2023816584
81,20,3,ISIP_8,23,5,42,127,2023853416
81,20,3,ISIP_8,24,5,42,127,2024653256
81,20,3,ISIP_8,25,1,48,80,2024668568
81,20,3,ISIP_8,26,1,48,68,2025400264
81,20,3,ISIP_8,27,5,42,127,2025452908
81,20,3,ISIP_8,28,1,48,79,2026211696
81,20,3,ISIP_8,29,5,42,127,2026252716
81,20,3,ISIP_8,30,1,48,91,2026978964
81,20,3,ISIP_8,31,5,42,127,2027053644
81,20,3,ISIP_8,32,1,48,99,2027828736
81,20,3,ISIP_8,33,5,42,127,2027853304
81,20,3,ISIP_8,34,1,48,76,2028614556
81,20,3,ISIP_8,35,5,42,127,2028652892
81,20,3,ISIP_8,36,1,48,85,2029403596
81,20,3,ISIP_8,37,5,42,127,2029452772
81,20,3,ISIP_8,38,1,48,87,2030192788
81,20,3,ISIP_8,39,5,42,127,2030253552
81,20,3,ISIP_8,40,1,48,84,2031016528
81,20,3,ISIP_8,41,5,42,127,2031053384
81,20,3,ISIP_8,42,1,48,82,2031794116
81,20,3,ISIP_8,43,5,42,127,2031852892
81,20,3,ISIP_8,44,1,48,84,2032646908
81,20,3,ISIP_8,45,5,42,127,2032652552
81,20,3,ISIP_8,46,1,48,65,2033439684
81,20,3,ISIP_8,47,5,42,127,2033453408
81,20,3,ISIP_8,48,1,48,92,2034225436
81,20,3,ISIP_8,49,5,42,127,2034253516
81,20,3,ISIP_8,50,1,48,92,2035010132
81,20,3,ISIP_8,51,5,42,127,2035053100
81,20,3,ISIP_8,52,1,48,78,2035797228
81,20,3,ISIP_8,53,5,42,127,2035852612
81,20,3,ISIP_8,54,1,48,83,2036614164
81,20,3,ISIP_8,55,5,42,127,2036653316
81,20,3,ISIP_8,56,1,48,76,2037403724
81,20,3,ISIP_8,57,5,42,127,2037453444
81,20,3,ISIP_8,58,1,48,68,2038160000
81,20,3,ISIP_8,59,1,48,85,2038986880
81,20,3,ISIP_8,60,1,48,81,2039738888
81,20,3,ISIP_8,61,1,48,79,2040556820
81,20,3,ISIP_8,62,1,48,66,2041342928
81,20,3,ISIP_8,63,1,48,87,2042136376
81,20,3,ISIP_8,64,1,48,73,2042952336
81,20,3,ISIP_8,65,1,48,93,2043725736
81,20,3,ISIP_8,66,1,48,63,2044554268
81,20,3,ISIP_8,67,1,48,79,2045354444
81,20,3,ISIP_8,68,1,48,74,2046108244
81,20,3,ISIP_8,69,1,48,94,2046905732
81,20,3,ISIP_8,70,1,48,86,2047708552
81,20,3,ISIP_8,71,1,48,75,2048500424
81,20,3,ISIP_8,72,1,48,64,2049298440
81,20,3,ISIP_8,73,1,48,82,2050050372
81,20,3,ISIP_8,74,1,48,80,2050872464
81,20,3,ISIP_8,75,1,48,86,2051720736
81,20,3,ISIP_8,76,1,48,83,2052465940
81,20,3,ISIP_8,77,1,48,82,2053246148
81,20,3,ISIP_8,78,1,48,77,2054056200
81,20,3,ISIP_8,79,1,48,76,2054824732
81,20,3,ISIP_8,80,1,48,79,2055628832
81,20,3,ISIP_8,81,1,48,76,2056404396
81,20,3,ISIP_8,82,1,48,89,2057188792
81,20,3,ISIP_8,83,1,48,89,2057982388
81,20,3,ISIP_8,84,1,48,76,2058766184
81,20,3,ISIP_8,85,1,48,82,2059539284
81,20,3,ISIP_8,86,1,48,95,2060289576
81,20,3,ISIP_8,87,1,48,74,2061102172
81,20,3,ISIP_8,88,1,48,77,2061882824
81,20,3,ISIP_8,89,1,48,79,2062629900
81,20,3,ISIP_8,90,1,48,79,2063384220
81,20,3,ISIP_8,91,1,48,79,2064182460
81,20,3,ISIP_8,92,1,48,81,2064997744
81,20,3,ISIP_8,93,1,48,19,2065367348
81,20,3,ISIP_8,94,1,48,51,2065795656
81,20,3,ISIP_8,95,1,48,81,2066645820
81,20,3,ISIP_8,96,1,48,77,2067389348
81,20,3,ISIP_8,97,1,48,81,2068215960
81,20,3,ISIP_8,98,1,48,81,2069022716
81,20,3,ISIP_8,99,1,48,75,2069779212
81,20,3,ISIP_8,100,1,48,70,2070587696
81,20,3,ISIP_8,101,1,48,67,2071365504
81,20,3,ISIP_8,102,1,48,69,2072116692
81,20,3,ISIP_8,103,1,48,70,2072880520
81,20,3,ISIP_8,104,1,48,72,2073659008
81,20,3,ISIP_8,105,1,48,88,2074437192
81,20,3,ISIP_8,106,1,48,85,2075216576
81,20,3,ISIP_8,107,1,48,87,2075961856
81,20,3,ISIP_8,108,1,48,100,2076743256
81,20,3,ISIP_8,109,1,48,89,2077558616
81,20,3,ISIP_8,110,1,48,81,2078388272
81,20,3,ISIP_8,111,1,48,93,2079182632
81,20,3,ISIP_8,112,1,48,90,2079948032
81,20,3,ISIP_8,113,1,48,75,2080738036
81,20,3,ISIP_8,114,1,48,91,2081521384
81,20,3,ISIP_8,115,1,48,95,2082312136
81,20,3,ISIP_8,116,1,48,93,2083051584
81,20,3,ISIP_8,117,1,48,94,2083852584
81,20,3,ISIP_8,118,1,48,89,2084651640
81,20,3,ISIP_8,119,1,48,73,2085458252
81,20,3,ISIP_8,120,1,48,89,2086284008
81,20,3,ISIP_8,121,1,48,88,2087106700
81,20,3,ISIP_8,122,1,48,93,2087872024
81,20,3,ISIP_8,123,1,48,81,2088676188
81,20,3,ISIP_8,124,1,48,93,2089456320
81,20,3,ISIP_8,125,1,48,87,2090256872
81,20,3,ISIP_8,126,1,48,88,2091058700
81,20,3,ISIP_8,127,1,48,81,2091818100
81,20,3,ISIP_8,128,1,48,88,2092629716
81,20,3,ISIP_8,129,1,48,85,2093398260
81,20,3,ISIP_8,130,1,48,76,2094173304
81,20,3,ISIP_8,131,1,48,73,2094983652
81,20,3,ISIP_8,132,1,48,86,2095765952
81,20,3,ISIP_8,133,1,48,85,2096548852
81,20,3,ISIP_8,134,1,48,91,2097313648
81,20,3,ISIP_8,135,1,48,82,2098092808
81,20,3,ISIP_8,136,1,48,93,2098824624
81,20,3,ISIP_8,137,1,48,92,2099604756
81,20,3,ISIP_8,138,1,48,86,2100361100
81,20,3,ISIP_8,139,1,48,69,2101184764
81,20,3,ISIP_8,140,1,48,89,2101968660
81,20,3,ISIP_8,141,1,48,97,2102738396
81,20,3,ISIP_8,142,1,48,91,2103481328
81,20,3,ISIP_8,143,1,48,87,2104282052
81,20,3,ISIP_8,144,1,48,92,2105075648
81,20,3,ISIP_8,145,1,48,87,2105850100
81,20,3,ISIP_8,146,1,48,81,2106615492
81,20,3,ISIP_8,147,1,48,85,2107397424
81,20,3,ISIP_8,148,1,48,97,2108145920
81,20,3,ISIP_8,149,1,48,99,2108942732
81,20,3,ISIP_8,150,1,48,92,2109736252
81,20,3,ISIP_8,151,1,48,87,2110534036
81,20,3,ISIP_8,152,1,48,104,2111281408
81,20,3,ISIP_8,153,1,48,75,2112104552
81,20,3,ISIP_8,154,1,48,89,2112904948
81,20,3,ISIP_8,155,1,48,80,2113694356
81,20,3,ISIP_8,156,1,48,89,2114472764
81,20,3,ISIP_8,157,1,48,75,2115270780
81,20,3,ISIP_8,158,1,48,83,2116066092
81,20,3,ISIP_8,159,1,48,89,2116818548
81,20,3,ISIP_8,160,1,48,82,2117602572
81,20,3,ISIP_8,161,1,48,85,2118363704
81,20,3,ISIP_8,162,1,48,83,2119128132
81,20,3,ISIP_8,163,1,48,44,2119497332
81,20,3,ISIP_8,164,1,48,98,2119884080
81,20,3,ISIP_8,165,1,48,92,2120678652
81,20,3,ISIP_8,166,1,48,69,2121418376
81,20,3,ISIP_8,167,1,48,97,2122178364
81,20,3,ISIP_8,168,1,48,94,2122916012
81,20,3,ISIP_8,169,1,48,95,2123663004
81,20,3,ISIP_8,170,1,48,85,2124413368
81,20,3,ISIP_8,171,1,48,84,2125185048
81,20,3,ISIP_8,172,1,48,71,2125941320
81,20,3,ISIP_8,173,1,48,78,2126677620
81,20,3,ISIP_8,174,1,48,84,2127421400
81,20,3,ISIP_8,175,1,48,74,2128144464
81,20,3,ISIP_8,176,1,48,84,2128907616
81,20,3,ISIP_8,177,1,48,85,2129654312
81,20,3,ISIP_8,178,1,48,79,2130394876
81,20,3,ISIP_8,179,1,48,100,2131165660
81,20,3,ISIP_8,180,1,48,89,2131956112
81,20,3,ISIP_8,181,1,48,84,2132724424
81,20,3,ISIP_8,182,1,48,78,2133462892
81,20,3,ISIP_8,183,1,48,99,2134235312
81,20,3,ISIP_8,0,9999,9999,9999,2014251128
81,20,3,ISIP_8,1,9999,9999,9999,2015050808
81,20,3,ISIP_8,2,9999,9999,9999,2015850564
81,20,3,ISIP_8,3,9999,9999,9999,2016650296
81,20,3,ISIP_8,4,9999,9999,9999,2017451068
81,20,3,ISIP_8,5,9999,9999,9999,2018250800
81,20,3,ISIP_8,6,9999,9999,9999,2019050568
81,20,3,ISIP_8,7,9999,9999,9999,2019850292
81,20,3,ISIP_8,8,9999,9999,9999,2020651072
81,20,3,ISIP_8,9,9999,9999,9999,2021450808
81,20,3,ISIP_8,10,9999,9999,9999,2022250616
81,20,3,ISIP_8,11,9999,9999,9999,2023050348
81,20,3,ISIP_8,12,9999,9999,9999,2023851128
81,20,3,ISIP_8,13,9999,9999,9999,2024650868
81,20,3,ISIP_8,14,9999,9999,9999,2025450544
81,20,3,ISIP_8,15,9999,9999,9999,2026250352
81,20,3,ISIP_8,16,9999,9999,9999,2027051060
81,20,3,ISIP_8,17,9999,9999,9999,2027850868
81,20,3,ISIP_8,18,9999,9999,9999,2028650604
81,20,3,ISIP_8,19,9999,9999,9999,2029450336
81,20,3,ISIP_8,20,9999,9999,9999,2030251116
81,20,3,ISIP_8,21,9999,9999,9999,2031050848
81,20,3,ISIP_8,22,9999,9999,9999,2031850608
81,20,3,ISIP_8,23,9999,9999,9999,2032650340
81,20,3,ISIP_8,24,9999,9999,9999,2033451120
81,20,3,ISIP_8,25,9999,9999,9999,2034250856
81,20,3,ISIP_8,26,9999,9999,9999,2035050588
81,20,3,ISIP_8,27,9999,9999,9999,2035850324
81,20,3,ISIP_8,28,9999,9999,9999,2036651104
81,20,3,ISIP_8,29,9999,9999,9999,2037450836
81,20,3,ISIP_8,30,9999,9999,9999,2038250592
81,20,3,ISIP_8,31,9999,9999,9999,2039050324
81,20,3,ISIP_8,32,9999,9999,9999,2039851084
81,20,3,ISIP_8,33,9999,9999,9999,2040650812
81,20,3,ISIP_8,34,9999,9999,9999,2041450616
81,20,3,ISIP_8,35,9999,9999,9999,2042250344
81,20,3,ISIP_8,36,9999,9999,9999,2043051120
81,20,3,ISIP_8,37,9999,9999,9999,2043850800
81,20,3,ISIP_8,38,9999,9999,9999,2044650604
81,20,3,ISIP_8,39,9999,9999,9999,2045450332
81,20,3,ISIP_8,40,9999,9999,9999,2046251108
81,20,3,ISIP_8,41,9999,9999,9999,2047050836
81,20,3,ISIP_8,42,9999,9999,9999,2047850564
81,20,3,ISIP_8,43,9999,9999,9999,2048650296
81,20,3,ISIP_8,44,9999,9999,9999,2049451072
81,20,3,ISIP_8,45,9999,9999,9999,2050250824
81,20,3,ISIP_8,46,9999,9999,9999,2051050556
81,20,3,ISIP_8,47,9999,9999,9999,2051850360
81,20,3,ISIP_8,48,9999,9999,9999,2052651060
81,20,3,ISIP_8,49,9999,9999,9999,2053450864
81,20,3,ISIP_8,50,9999,9999,9999,2054250596
81,20,3,ISIP_8,51,9999,9999,9999,2055050324
81,20,3,ISIP_8,52,9999,9999,9999,2055851100
81,20,3,ISIP_8,53,9999,9999,9999,2056650852
81,20,3,ISIP_8,54,9999,9999,9999,2057450584
81,20,3,ISIP_8,55,9999,9999,9999,2058250312
81,20,3,ISIP_8,56,9999,9999,9999,2059051088
81,20,3,ISIP_8,57,9999,9999,9999,2059850820
81,20,3,ISIP_8,58,9999,9999,9999,2060650548
81,20,3,ISIP_8,59,9999,9999,9999,2061450352
81,20,3,ISIP_8,60,9999,9999,9999,2062251128
81,20,3,ISIP_8,61,9999,9999,9999,2063050808
81,20,3,ISIP_8,62,9999,9999,9999,2063850612
81,20,3,ISIP_8,63,9999,9999,9999,2064650340
81,20,3,ISIP_8,64,9999,9999,9999,2065451108
81,20,3,ISIP_8,65,9999,9999,9999,2066250824
81,20,3,ISIP_8,66,9999,9999,9999,2067050552
81,20,3,ISIP_8,67,9999,9999,9999,2067850356
81,20,3,ISIP_8,68,9999,9999,9999,2068651056
81,20,3,ISIP_8,69,9999,9999,9999,2069450808
81,20,3,ISIP_8,70,9999,9999,9999,2070250612
81,20,3,ISIP_8,71,9999,9999,9999,2071050344
81,20,3,ISIP_8,72,9999,9999,9999,2071851120
81,20,3,ISIP_8,73,9999,9999,9999,2072650848
81,20,3,ISIP_8,74,9999,9999,9999,2073450576
81,20,3,ISIP_8,75,9999,9999,9999,2074250308
81,20,3,ISIP_8,76,9999,9999,9999,2075051084
81,20,3,ISIP_8,77,9999,9999,9999,2075850836
81,20,3,ISIP_8,78,9999,9999,9999,2076650568
81,20,3,ISIP_8,79,9999,9999,9999,2077450296
81,20,3,ISIP_8,80,9999,9999,9999,2078251072
81,20,3,ISIP_8,81,9999,9999,9999,2079050800
81,20,3,ISIP_8,82,9999,9999,9999,2079850604
81,20,3,ISIP_8,83,9999,9999,9999,2080650332
81,20,3,ISIP_8,84,9999,9999,9999,2081451108
81,20,3,ISIP_8,85,9999,9999,9999,2082250864
81,20,3,ISIP_8,86,9999,9999,9999,2083050592
81,20,3,ISIP_8,87,9999,9999,9999,2083850320
81,20,3,ISIP_8,88,9999,9999,9999,2084651116
81,20,3,ISIP_8,89,9999,9999,9999,2085450828
81,20,3,ISIP_8,90,9999,9999,9999,2086250556
81,20,3,ISIP_8,91,9999,9999,9999,2087050360
81,20,3,ISIP_8,92,9999,9999,9999,2087851060
81,20,3,ISIP_8,93,9999,9999,9999,2088650816
81,20,3,ISIP_8,94,9999,9999,9999,2089450544
81,20,3,ISIP_8,95,9999,9999,9999,2090250348
81,20,3,ISIP_8,96,9999,9999,9999,2091051124
81,20,3,ISIP_8,97,9999,9999,9999,2091850848
81,20,3,ISIP_8,98,9999,9999,9999,2092650576
81,20,3,ISIP_8,99,9999,9999,9999,2093450304
81,20,3,ISIP_8,100,9999,9999,9999,2094251080
81,20,3,ISIP_8,101,9999,9999,9999,2095050836
81,20,3,ISIP_8,102,9999,9999,9999,2095850564
81,20,3,ISIP_8,103,9999,9999,9999,2096650352
81,20,3,ISIP_8,104,9999,9999,9999,2097451128
81,20,3,ISIP_8,105,9999,9999,9999,2098250856
81,20,3,ISIP_8,106,9999,9999,9999,2099050588
81,20,3,ISIP_8,107,9999,9999,9999,2099850316
81,20,3,ISIP_8,108,9999,9999,9999,2100651092
81,20,3,ISIP_8,109,9999,9999,9999,2101450844
81,20,3,ISIP_8,110,9999,9999,9999,2102250572
81,20,3,ISIP_8,111,9999,9999,9999,2103050304
81,20,3,ISIP_8,112,9999,9999,9999,2103851080
81,20,3,ISIP_8,113,9999,9999,9999,2104650808
81,20,3,ISIP_8,114,9999,9999,9999,2105450612
81,20,3,ISIP_8,115,9999,9999,9999,2106250340
81,20,3,ISIP_8,116,9999,9999,9999,2107051116
81,20,3,ISIP_8,117,9999,9999,9999,2107850872
81,20,3,ISIP_8,118,9999,9999,9999,2108650604
81,20,3,ISIP_8,119,9999,9999,9999,2109450332
81,20,3,ISIP_8,120,9999,9999,9999,2110251108
81,20,3,ISIP_8,121,9999,9999,9999,2111050840
81,20,3,ISIP_8,122,9999,9999,9999,2111850568
81,20,3,ISIP_8,123,9999,9999,9999,2112650296
81,20,3,ISIP_8,124,9999,9999,9999,2113451072
81,20,3,ISIP_8,125,9999,9999,9999,2114250828
81,20,3,ISIP_8,126,9999,9999,9999,2115050556
81,20,3,ISIP_8,127,9999,9999,9999,2115850336
81,20,3,ISIP_8,128,9999,9999,9999,2116651112
81,20,3,ISIP_8,129,9999,9999,9999,2117450840
81,20,3,ISIP_8,130,9999,9999,9999,2118250568
81,20,3,ISIP_8,131,9999,9999,9999,2119050300
81,20,3,ISIP_8,132,9999,9999,9999,2119851128
81,20,3,ISIP_8,133,9999,9999,9999,2120650808
81,20,3,ISIP_8,134,9999,9999,9999,2121450604
81,20,3,ISIP_8,135,9999,9999,9999,2122250332
81,20,3,ISIP_8,136,9999,9999,9999,2123051092
81,20,3,ISIP_8,137,9999,9999,9999,2123850820
81,20,3,ISIP_8,138,9999,9999,9999,2124650552
81,20,3,ISIP_8,139,9999,9999,9999,2125450356
81,20,3,ISIP_8,140,9999,9999,9999,2126251056
81,20,3,ISIP_8,141,9999,9999,9999,2127050812
81,20,3,ISIP_8,142,9999,9999,9999,2127850616
81,20,3,ISIP_8,143,9999,9999,9999,2128650344
81,20,3,ISIP_8,144,9999,9999,9999,2129451120
81,20,3,ISIP_8,145,9999,9999,9999,2130250848
81,20,3,ISIP_8,146,9999,9999,9999,2131050580
81,20,3,ISIP_8,147,9999,9999,9999,2131850308
81,20,3,ISIP_8,148,9999,9999,9999,2132651084
81,20,3,ISIP_8,149,9999,9999,9999,2133450836
81,21,5,ISIP_5,0,5,42,127,2157055196
81,21,5,ISIP_5,1,5,42,127,2157554916
81,21,5,ISIP_5,2,1,48,69,2158027140
81,21,5,ISIP_5,3,5,42,127,2158054700
81,21,5,ISIP_5,4,1,48,85,2158525616
81,21,5,ISIP_5,5,5,42,127,2158554764
81,21,5,ISIP_5,6,1,48,96,2159039668
81,21,5,ISIP_5,7,5,42,127,2159055060
81,21,5,ISIP_5,8,1,48,73,2159533000
81,21,5,ISIP_5,9,5,42,127,2159554804
81,21,5,ISIP_5,10,1,48,102,2160020860
81,21,5,ISIP_5,11,5,42,127,2160054772
81,21,5,ISIP_5,12,1,48,80,2160523840
81,21,5,ISIP_5,13,5,42,127,2160555516
81,21,5,ISIP_5,14,1,48,73,2161031088
81,21,5,ISIP_5,15,5,42,127,2161054984
81,21,5,ISIP_5,16,1,48,81,2161531088
81,21,5,ISIP_5,17,5,42,127,2161554756
81,21,5,ISIP_5,18,1,48,89,2162030256
81,21,5,ISIP_5,19,5,42,127,2162054676
81,21,5,ISIP_5,20,1,48,81,2162523668
81,21,5,ISIP_5,21,5,42,127,2162555192
81,21,5,ISIP_5,22,1,48,86,2162994492
81,21,5,ISIP_5,23,5,42,127,2163054888
81,21,5,ISIP_5,24,1,48,78,2163506608
81,21,5,ISIP_5,25,5,42,127,2163554732
81,21,5,ISIP_5,26,1,48,76,2164034872
81,21,5,ISIP_5,27,5,42,127,2164055476
81,21,5,ISIP_5,28,1,48,69,2164525144
81,21,5,ISIP_5,29,5,42,127,2164555244
81,21,5,ISIP_5,30,1,48,57,2165029696
81,21,5,ISIP_5,31,5,42,127,2165054716
81,21,5,ISIP_5,32,1,48,91,2165518172
81,21,5,ISIP_5,33,5,42,127,2165554632
81,21,5,ISIP_5,34,1,48,59,2166025352
81,21,5,ISIP_5,35,5,42,127,2166055448
81,21,5,ISIP_5,36,1,48,78,2166519284
81,21,5,ISIP_5,37,5,42,127,2166554920
81,21,5,ISIP_5,38,1,48,82,2167044408
81,21,5,ISIP_5,39,5,42,127,2167054688
81,21,5,ISIP_5,40,1,48,85,2167542088
81,21,5,ISIP_5,41,5,42,127,2167554536
81,21,5,ISIP_5,42,1,48,87,2168035352
81,21,5,ISIP_5,43,5,42,127,2168055276
81,21,5,ISIP_5,44,1,48,81,2168538032
81,21,5,ISIP_5,45,5,42,127,2168554972
81,21,5,ISIP_5,46,1,48,78,2169020804
81,21,5,ISIP_5,47,5,42,127,2169054444
81,21,5,ISIP_5,48,1,48,63,2169522064
81,21,5,ISIP_5,49,5,42,127,2169555260
81,21,5,ISIP_5,50,1,48,72,2170002236
81,21,5,ISIP_5,51,5,42,127,2170054880
81,21,5,ISIP_5,52,1,48,69,2170520036
81,21,5,ISIP_5,53,5,42,127,2170554776
81,21,5,ISIP_5,54,1,48,75,2171030124
81,21,5,ISIP_5,55,5,42,127,2171054396
81,21,5,ISIP_5,56,1,48,67,2171506112
81,21,5,ISIP_5,57,5,42,127,2171555284
81,21,5,ISIP_5,58,1,48,71,2172006252
81,21,5,ISIP_5,59,5,42,127,2172054756
81,21,5,ISIP_5,60,1,48,76,2172526368
81,21,5,ISIP_5,61,5,42,127,2172554452
81,21,5,ISIP_5,62,1,48,65,2173033020
81,21,5,ISIP_5,63,5,42,127,2173055268
81,21,5,ISIP_5,64,1,48,68,2173538100
81,21,5,ISIP_5,65,5,42,127,2173555112
81,21,5,ISIP_5,66,1,48,73,2174015428
81,21,5,ISIP_5,67,5,42,127,2174054660
81,21,5,ISIP_5,68,1,48,58,2174521560
81,21,5,ISIP_5,69,5,42,127,2174554428
81,21,5,ISIP_5,70,1,48,79,2175022524
81,21,5,ISIP_5,71,5,42,127,2175055172
81,21,5,ISIP_5,72,1,48,78,2175539276
81,21,5,ISIP_5,73,5,42,127,2175555164
81,21,5,ISIP_5,74,1,48,76,2176031940
81,21,5,ISIP_5,75,5,42,127,2176054636
81,21,5,ISIP_5,76,1,48,81,2176512632
81,21,5,ISIP_5,77,5,42,127,2176555228
81,21,5,ISIP_5,78,1,48,88,2177029008
81,21,5,ISIP_5,79,1,48,85,2177534608
81,21,5,ISIP_5,80,1,48,92,2178022632
81,21,5,ISIP_5,81,1,48,80,2178527484
81,21,5,ISIP_5,82,1,48,82,2179014684
81,21,5,ISIP_5,83,1,48,74,2179518984
81,21,5,ISIP_5,84,1,48,74,2180006336
81,21,5,ISIP_5,85,1,48,79,2180503032
81,21,5,ISIP_5,86,1,48,75,2181011324
81,21,5,ISIP_5,87,1,48,70,2181501292
81,21,5,ISIP_5,88,1,48,80,2181976520
81,21,5,ISIP_5,89,1,48,66,2182486008
81,21,5,ISIP_5,90,1,48,73,2182985180
81,21,5,ISIP_5,91,1,48,73,2183497064
81,21,5,ISIP_5,92,1,48,74,2183989872
81,21,5,ISIP_5,93,1,48,71,2184490908
81,21,5,ISIP_5,94,1,48,72,2184992248
81,21,5,ISIP_5,95,1,48,78,2185482740
81,21,5,ISIP_5,96,1,48,85,2185960064
81,21,5,ISIP_5,97,1,48,84,2186461404
81,21,5,ISIP_5,98,1,48,78,2186927856
81,21,5,ISIP_5,99,1,48,70,2187433012
81,21,5,ISIP_5,100,1,48,77,2187955660
81,21,5,ISIP_5,101,1,48,82,2188448844
81,21,5,ISIP_5,102,1,48,71,2188948984
81,21,5,ISIP_5,103,1,48,78,2189435208
81,21,5,ISIP_5,104,1,48,81,2189912756
81,21,5,ISIP_5,105,1,48,76,2190405868
81,21,5,ISIP_5,106,1,48,80,2190893216
81,21,5,ISIP_5,107,1,48,80,2191385052
81,21,5,ISIP_5,108,1,48,77,2191861108
81,21,5,ISIP_5,109,1,48,75,2192347264
81,21,5,ISIP_5,110,1,48,76,2192822320
81,21,5,ISIP_5,111,1,48,71,2193314748
81,21,5,ISIP_5,112,1,48,74,2193829400
81,21,5,ISIP_5,113,1,48,75,2194325948
81,21,5,ISIP_5,114,1,48,80,2194808136
81,21,5,ISIP_5,115,1,48,80,2195306180
81,21,5,ISIP_5,116,1,48,78,2195788144
81,21,5,ISIP_5,117,1,48,88,2196282220
81,21,5,ISIP_5,118,1,48,85,2196771896
81,21,5,ISIP_5,119,1,48,83,2197274124
81,21,5,ISIP_5,120,1,48,85,2197757212
81,21,5,ISIP_5,121,1,48,68,2198258848
81,21,5,ISIP_5,122,1,48,73,2198739388
81,21,5,ISIP_5,123,1,48,73,2199225592
81,21,5,ISIP_5,124,1,48,83,2199713460
81,21,5,ISIP_5,125,1,48,80,2200198644
81,21,5,ISIP_5,126,1,48,73,2200686588
81,21,5,ISIP_5,127,1,48,77,2201173488
81,21,5,ISIP_5,128,1,48,79,2201657624
81,21,5,ISIP_5,129,1,48,78,2202165540
81,21,5,ISIP_5,130,1,48,75,2202660740
81,21,5,ISIP_5,131,1,48,29,2202719364
81,21,5,ISIP_5,132,1,48,78,2203156528
81,21,5,ISIP_5,133,1,48,70,2203689052
81,21,5,ISIP_5,134,1,48,72,2204179692
81,21,5,ISIP_5,135,1,48,75,2204658288
81,21,5,ISIP_5,136,1,48,78,2205124168
81,21,5,ISIP_5,137,1,48,75,2205606632
81,21,5,ISIP_5,138,1,48,69,2206110284
81,21,5,ISIP_5,139,1,48,69,2206597712
81,21,5,ISIP_5,140,1,48,68,2207093436
81,21,5,ISIP_5,141,1,48,62,2207610256
81,21,5,ISIP_5,142,1,48,74,2208099776
81,21,5,ISIP_5,143,1,48,68,2208591016
81,21,5,ISIP_5,144,1,48,61,2209058760
81,21,5,ISIP_5,145,1,48,72,2209538248
81,21,5,ISIP_5,146,1,48,67,2210020736
81,21,5,ISIP_5,147,1,48,71,2210512568
81,21,5,ISIP_5,148,1,48,70,2211021912
81,21,5,ISIP_5,149,1,48,69,2211519032
81,21,5,ISIP_5,150,1,48,75,2211977584
81,21,5,ISIP_5,151,1,48,69,2212457828
81,21,5,ISIP_5,152,1,48,74,2212937772
81,21,5,ISIP_5,153,1,48,76,2213405900
81,21,5,ISIP_5,154,1,48,66,2213904240
81,21,5,ISIP_5,155,1,48,74,2214384632
81,21,5,ISIP_5,156,1,48,68,2214866744
81,21,5,ISIP_5,157,1,48,71,2215349360
81,21,5,ISIP_5,158,1,48,70,2215840296
81,21,5,ISIP_5,159,1,48,63,2216330640
81,21,5,ISIP_5,160,1,48,57,2216807212
81,21,5,ISIP_5,161,1,48,70,2217285508
81,21,5,ISIP_5,162,1,48,78,2217750576
81,21,5,ISIP_5,163,1,48,70,2218221020
81,21,5,ISIP_5,164,1,48,72,2218699092
81,21,5,ISIP_5,165,1,48,67,2219161584
81,21,5,ISIP_5,166,1,48,70,2219640856
81,21,5,ISIP_5,167,1,48,68,2220142264
81,21,5,ISIP_5,168,1,48,74,2220601116
81,21,5,ISIP_5,169,1,48,63,2221080012
81,21,5,ISIP_5,170,1,48,74,2221541092
81,21,5,ISIP_5,171,1,48,74,2222000444
81,21,5,ISIP_5,172,1,48,70,2222483228
81,21,5,ISIP_5,173,1,48,84,2222970276
81,21,5,ISIP_5,174,1,48,84,2223430324
81,21,5,ISIP_5,175,1,48,72,2223909596
81,21,5,ISIP_5,176,1,48,83,2224400984
81,21,5,ISIP_5,177,1,48,71,2224853032
81,21,5,ISIP_5,178,1,48,72,2225324420
81,21,5,ISIP_5,179,1,48,64,2225790452
81,21,5,ISIP_5,180,1,48,76,2226252220
81,21,5,ISIP_5,181,1,48,73,2226706060
81,21,5,ISIP_5,182,1,48,69,2227165660
81,21,5,ISIP_5,183,1,48,71,2227652936
81,21,5,ISIP_5,184,1,48,84,2228133524
81,21,5,ISIP_5,185,1,48,76,2228608980
81,21,5,ISIP_5,186,1,48,70,2229090720
81,21,5,ISIP_5,187,1,48,73,2229561240
81,21,5,ISIP_5,188,1,48,80,2230034212
81,21,5,ISIP_5,189,1,48,80,2230510192
81,21,5,ISIP_5,190,1,48,76,2230977120
81,21,5,ISIP_5,191,1,48,72,2231455024
81,21,5,ISIP_5,192,1,48,66,2231916340
81,21,5,ISIP_5,193,1,48,66,2232363744
81,21,5,ISIP_5,194,1,48,73,2232830524
81,21,5,ISIP_5,195,1,48,40,2233332836
81,21,5,ISIP_5,196,1,48,78,2233793404
81,21,5,ISIP_5,197,1,48,80,2234264424
81,21,5,ISIP_5,198,1,48,79,2234739504
81,21,5,ISIP_5,199,1,48,73,2235197012
81,21,5,ISIP_5,200,1,48,72,2235675836
81,21,5,ISIP_5,201,1,48,69,2236137976
81,21,5,ISIP_5,202,1,48,74,2236605248
81,21,5,ISIP_5,203,1,48,76,2237047556
81,21,5,ISIP_5,0,9999,9999,9999,2157052984
81,21,5,ISIP_5,1,9999,9999,9999,2157552704
81,21,5,ISIP_5,2,9999,9999,9999,2158052412
81,21,5,ISIP_5,3,9999,9999,9999,2158552180
81,21,5,ISIP_5,4,9999,9999,9999,2159052848
81,21,5,ISIP_5,5,9999,9999,9999,2159552592
81,21,5,ISIP_5,6,9999,9999,9999,2160052340
81,21,5,ISIP_5,7,9999,9999,9999,2160553080
81,21,5,ISIP_5,8,9999,9999,9999,2161052772
81,21,5,ISIP_5,9,9999,9999,9999,2161552468
81,21,5,ISIP_5,10,9999,9999,9999,2162052164
81,21,5,ISIP_5,11,9999,9999,9999,2162552908
81,21,5,ISIP_5,12,9999,9999,9999,2163052604
81,21,5,ISIP_5,13,9999,9999,9999,2163552372
81,21,5,ISIP_5,14,9999,9999,9999,2164053040
81,21,5,ISIP_5,15,9999,9999,9999,2164552808
81,21,5,ISIP_5,16,9999,9999,9999,2165052504
81,21,5,ISIP_5,17,9999,9999,9999,2165552200
81,21,5,ISIP_5,18,9999,9999,9999,2166052940
81,21,5,ISIP_5,19,9999,9999,9999,2166552636
81,21,5,ISIP_5,20,9999,9999,9999,2167052404
81,21,5,ISIP_5,21,9999,9999,9999,2167552100
81,21,5,ISIP_5,22,9999,9999,9999,2168052844
81,21,5,ISIP_5,23,9999,9999,9999,2168552536
81,21,5,ISIP_5,24,9999,9999,9999,2169052232
81,21,5,ISIP_5,25,9999,9999,9999,2169552976
81,21,5,ISIP_5,26,9999,9999,9999,2170052668
81,21,5,ISIP_5,27,9999,9999,9999,2170552416
81,21,5,ISIP_5,28,9999,9999,9999,2171052108
81,21,5,ISIP_5,29,9999,9999,9999,2171552848
81,21,5,ISIP_5,30,9999,9999,9999,2172052544
81,21,5,ISIP_5,31,9999,9999,9999,2172552240
81,21,5,ISIP_5,32,9999,9999,9999,2173052984
81,21,5,ISIP_5,33,9999,9999,9999,2173552752
81,21,5,ISIP_5,34,9999,9999,9999,2174052448
81,21,5,ISIP_5,35,9999,9999,9999,2174552144
81,21,5,ISIP_5,36,9999,9999,9999,2175052884
81,21,5,ISIP_5,37,9999,9999,9999,2175552580
81,21,5,ISIP_5,38,9999,9999,9999,2176052276
81,21,5,ISIP_5,39,9999,9999,9999,2176553016
81,21,5,ISIP_5,40,9999,9999,9999,2177052784
81,21,5,ISIP_5,41,9999,9999,9999,2177552476
81,21,5,ISIP_5,42,9999,9999,9999,2178052168
81,21,5,ISIP_5,43,9999,9999,9999,2178552904
81,21,5,ISIP_5,44,9999,9999,9999,2179052596
81,21,5,ISIP_5,45,9999,9999,9999,2179552360
81,21,5,ISIP_5,46,9999,9999,9999,2180053096
81,21,5,ISIP_5,47,9999,9999,9999,2180552788
81,21,5,ISIP_5,48,9999,9999,9999,2181052528
81,21,5,ISIP_5,49,9999,9999,9999,2181552220
81,21,5,ISIP_5,50,9999,9999,9999,2182052956
81,21,5,ISIP_5,51,9999,9999,9999,2182552648
81,21,5,ISIP_5,52,9999,9999,9999,2183052340
81,21,5,ISIP_5,53,9999,9999,9999,2183552104
81,21,5,ISIP_5,54,9999,9999,9999,2184052844
81,21,5,ISIP_5,55,9999,9999,9999,2184552536
81,21,5,ISIP_5,56,9999,9999,9999,2185052224
81,21,5,ISIP_5,57,9999,9999,9999,2185552964
81,21,5,ISIP_5,58,9999,9999,9999,2186052728
81,21,5,ISIP_5,59,9999,9999,9999,2186552420
81,21,5,ISIP_5,60,9999,9999,9999,2187052096
81,21,5,ISIP_5,61,9999,9999,9999,2187552832
81,21,5,ISIP_5,62,9999,9999,9999,2188052572
81,21,5,ISIP_5,63,9999,9999,9999,2188552288
81,21,5,ISIP_5,64,9999,9999,9999,2189053024
81,21,5,ISIP_5,65,9999,9999,9999,2189552716
81,21,5,ISIP_5,66,9999,9999,9999,2190052404
81,21,5,ISIP_5,67,9999,9999,9999,2190552172
81,21,5,ISIP_5,68,9999,9999,9999,2191052908
81,21,5,ISIP_5,69,9999,9999,9999,2191552576
81,21,5,ISIP_5,70,9999,9999,9999,2192052340
81,21,5,ISIP_5,71,9999,9999,9999,2192553076
81,21,5,ISIP_5,72,9999,9999,9999,2193052768
81,21,5,ISIP_5,73,9999,9999,9999,2193552460
81,21,5,ISIP_5,74,9999,9999,9999,2194052148
81,21,5,ISIP_5,75,9999,9999,9999,2194552884
81,21,5,ISIP_5,76,9999,9999,9999,2195052648
81,21,5,ISIP_5,77,9999,9999,9999,2195552340
81,21,5,ISIP_5,78,9999,9999,9999,2196053076
81,21,5,ISIP_5,79,9999,9999,9999,2196552768
81,21,5,ISIP_5,80,9999,9999,9999,2197052532
81,21,5,ISIP_5,81,9999,9999,9999,2197552224
81,21,5,ISIP_5,82,9999,9999,9999,2198052960
81,21,5,ISIP_5,83,9999,9999,9999,2198552652
81,21,5,ISIP_5,84,9999,9999,9999,2199052344
81,21,5,ISIP_5,85,9999,9999,9999,2199552108
81,21,5,ISIP_5,86,9999,9999,9999,2200052844
81,21,5,ISIP_5,87,9999,9999,9999,2200552536
81,21,5,ISIP_5,88,9999,9999,9999,2201052224
81,21,5,ISIP_5,89,9999,9999,9999,2201552964
81,21,5,ISIP_5,90,9999,9999,9999,2202052728
81,21,5,ISIP_5,91,9999,9999,9999,2202552396
81,21,5,ISIP_5,92,9999,9999,9999,2203052140
81,21,5,ISIP_5,93,9999,9999,9999,2203552876
81,21,5,ISIP_5,94,9999,9999,9999,2204052568
81,21,5,ISIP_5,95,9999,9999,9999,2204552260
81,21,5,ISIP_5,96,9999,9999,9999,2205052996
81,21,5,ISIP_5,97,9999,9999,9999,2205552760
81,21,5,ISIP_5,98,9999,9999,9999,2206052452
81,21,5,ISIP_5,99,9999,9999,9999,2206552144
81,21,5,ISIP_5,100,9999,9999,9999,2207052880
81,21,5,ISIP_5,101,9999,9999,9999,2207552572
81,21,5,ISIP_5,102,9999,9999,9999,2208052336
81,21,5,ISIP_5,103,9999,9999,9999,2208553072
81,21,5,ISIP_5,104,9999,9999,9999,2209052764
81,21,5,ISIP_5,105,9999,9999,9999,2209552448
81,21,5,ISIP_5,106,9999,9999,9999,2210052212
81,21,5,ISIP_5,107,9999,9999,9999,2210552952
81,21,5,ISIP_5,108,9999,9999,9999,2211052644
81,21,5,ISIP_5,109,9999,9999,9999,2211552332
81,21,5,ISIP_5,110,9999,9999,9999,2212053072
81,21,5,ISIP_5,111,9999,9999,9999,2212552760
81,21,5,ISIP_5,112,9999,9999,9999,2213052488
81,21,5,ISIP_5,113,9999,9999,9999,2213552176
81,21,5,ISIP_5,114,9999,9999,9999,2214052912
81,21,5,ISIP_5,115,9999,9999,9999,2214552680
81,21,5,ISIP_5,116,9999,9999,9999,2215052372
81,21,5,ISIP_5,117,9999,9999,9999,2215552060
81,21,5,ISIP_5,118,9999,9999,9999,2216052796
81,21,5,ISIP_5,119,9999,9999,9999,2216552560
81,21,5,ISIP_5,120,9999,9999,9999,2217052252
81,21,5,ISIP_5,121,9999,9999,9999,2217552992
81,21,5,ISIP_5,122,9999,9999,9999,2218052680
81,21,5,ISIP_5,123,9999,9999,9999,2218552372
81,21,5,ISIP_5,124,9999,9999,9999,2219052140
81,21,5,ISIP_5,125,9999,9999,9999,2219552876
81,21,5,ISIP_5,126,9999,9999,9999,2220052568
81,21,5,ISIP_5,127,9999,9999,9999,2220552256
81,21,5,ISIP_5,128,9999,9999,9999,2221052992
81,21,5,ISIP_5,129,9999,9999,9999,2221552752
81,21,5,ISIP_5,130,9999,9999,9999,2222052444
81,21,5,ISIP_5,131,9999,9999,9999,2222552132
81,21,5,ISIP_5,132,9999,9999,9999,2223052872
81,21,5,ISIP_5,133,9999,9999,9999,2223552620
81,21,5,ISIP_5,134,9999,9999,9999,2224052288
81,21,5,ISIP_5,135,9999,9999,9999,2224553024
81,21,5,ISIP_5,136,9999,9999,9999,2225052788
81,21,5,ISIP_5,137,9999,9999,9999,2225552480
81,21,5,ISIP_5,138,9999,9999,9999,2226052168
81,21,5,ISIP_5,139,9999,9999,9999,2226552908
81,21,5,ISIP_5,140,9999,9999,9999,2227052600
81,21,5,ISIP_5,141,9999,9999,9999,2227552364
81,21,5,ISIP_5,142,9999,9999,9999,2228053100
81,21,5,ISIP_5,143,9999,9999,9999,2228552792
81,21,5,ISIP_5,144,9999,9999,9999,2229052484
81,21,5,ISIP_5,145,9999,9999,9999,2229552248
81,21,5,ISIP_5,146,9999,9999,9999,2230052980
81,21,5,ISIP_5,147,9999,9999,9999,2230552668
81,21,5,ISIP_5,148,9999,9999,9999,2231052360
81,21,5,ISIP_5,149,9999,9999,9999,2231552108
81,21,5,ISIP_5,150,9999,9999,9999,2232052848
81,21,5,ISIP_5,151,9999,9999,9999,2232552536
81,21,5,ISIP_5,152,9999,9999,9999,2233052228
81,21,5,ISIP_5,153,9999,9999,9999,2233552968
81,21,5,ISIP_5,154,9999,9999,9999,2234052656
81,21,5,ISIP_5,155,9999,9999,9999,2234552396
81,21,5,ISIP_5,156,9999,9999,9999,2235052088
81,21,5,ISIP_5,157,9999,9999,9999,2235552824
81,21,5,ISIP_5,158,9999,9999,9999,2236052588
81,21,5,ISIP_5,159,9999,9999,9999,2236552280
81,22,11,Pattern_Practice,0,5,42,127,2342255828
81,22,11,Pattern_Practice,1,5,42,127,2342755692
81,22,11,Pattern_Practice,2,1,48,97,2343251704
81,22,11,Pattern_Practice,3,5,42,127,2343256452
81,22,11,Pattern_Practice,4,5,42,127,2343756224
81,22,11,Pattern_Practice,5,1,48,80,2343851348
81,22,11,Pattern_Practice,6,5,42,127,2344255844
81,22,11,Pattern_Practice,7,1,48,86,2344364728
81,22,11,Pattern_Practice,8,1,48,52,2344676288
81,22,11,Pattern_Practice,9,5,42,127,2344755460
81,22,11,Pattern_Practice,10,1,48,83,2344909008
81,22,11,Pattern_Practice,11,5,42,127,2345256260
81,22,11,Pattern_Practice,12,1,48,14,2345441612
81,22,11,Pattern_Practice,13,1,48,28,2345446152
81,22,11,Pattern_Practice,14,5,42,127,2345755936
81,22,11,Pattern_Practice,15,1,48,54,2345908728
81,22,11,Pattern_Practice,16,5,42,127,2346255708
81,22,11,Pattern_Practice,17,1,38,50,2346385684
81,22,11,Pattern_Practice,18,5,42,127,2346755400
81,22,11,Pattern_Practice,19,1,48,76,2346830324
81,22,11,Pattern_Practice,20,5,42,127,2347256140
81,22,11,Pattern_Practice,21,1,38,20,2347291724
81,22,11,Pattern_Practice,22,1,48,72,2347693836
81,22,11,Pattern_Practice,23,5,42,127,2347755980
81,22,11,Pattern_Practice,24,1,38,61,2348182312
81,22,11,Pattern_Practice,25,5,42,127,2348255600
81,22,11,Pattern_Practice,26,1,48,82,2348749876
81,22,11,Pattern_Practice,27,5,42,127,2348756340
81,22,11,Pattern_Practice,28,5,42,127,2349256040
81,22,11,Pattern_Practice,29,1,38,75,2349286760
81,22,11,Pattern_Practice,30,5,42,127,2349755812
81,22,11,Pattern_Practice,31,1,48,83,2349817272
81,22,11,Pattern_Practice,32,1,38,81,2350243248
81,22,11,Pattern_Practice,33,5,42,127,2350255400
81,22,11,Pattern_Practice,34,1,48,75,2350746232
81,22,11,Pattern_Practice,35,5,42,127,2350756288
81,22,11,Pattern_Practice,36,1,38,67,2351207860
81,22,11,Pattern_Practice,37,5,42,127,2351256136
81,22,11,Pattern_Practice,38,5,42,127,2351755540
81,22,11,Pattern_Practice,39,1,48,76,2351764792
81,22,11,Pattern_Practice,40,1,48,74,2351997488
81,22,11,Pattern_Practice,41,5,42,127,2352256336
81,22,11,Pattern_Practice,42,1,38,77,2352268656
81,22,11,Pattern_Practice,43,5,42,127,2352756104
81,22,11,Pattern_Practice,44,1,48,84,2352793180
81,22,11,Pattern_Practice,45,1,38,52,2353251116
81,22,11,Pattern_Practice,46,5,42,127,2353255788
81,22,11,Pattern_Practice,47,1,48,80,2353725304
81,22,11,Pattern_Practice,48,5,42,127,2353755632
81,22,11,Pattern_Practice,49,1,48,74,2353978668
81,22,11,Pattern_Practice,50,1,38,90,2354189000
81,22,11,Pattern_Practice,51,5,42,127,2354256128
81,22,11,Pattern_Practice,52,1,48,59,2354694900
81,22,11,Pattern_Practice,53,5,42,127,2354756048
81,22,11,Pattern_Practice,54,1,38,69,2355208588
81,22,11,Pattern_Practice,55,5,42,127,2355255520
81,22,11,Pattern_Practice,56,5,42,127,2355756488
81,22,11,Pattern_Practice,57,1,48,60,2355763276
81,22,11,Pattern_Practice,58,1,48,67,2356020804
81,22,11,Pattern_Practice,59,5,42,127,2356256088
81,22,11,Pattern_Practice,60,1,38,79,2356302364
81,22,11,Pattern_Practice,61,5,42,127,2356756008
81,22,11,Pattern_Practice,62,1,48,63,2356807072
81,22,11,Pattern_Practice,63,5,42,127,2357255480
81,22,11,Pattern_Practice,64,1,38,28,2357293156
81,22,11,Pattern_Practice,65,5,42,127,2357756220
81,22,11,Pattern_Practice,66,1,48,62,2357795612
81,22,11,Pattern_Practice,67,1,48,65,2358014920
81,22,11,Pattern_Practice,68,5,42,127,2358256116
81,22,11,Pattern_Practice,69,1,38,76,2358272032
81,22,11,Pattern_Practice,70,1,48,71,2358725104
81,22,11,Pattern_Practice,71,5,42,127,2358755956
81,22,11,Pattern_Practice,72,1,38,61,2359203460
81,22,11,Pattern_Practice,73,5,42,127,2359256400
81,22,11,Pattern_Practice,74,1,48,69,2359703976
81,22,11,Pattern_Practice,75,5,42,127,2359756092
81,22,11,Pattern_Practice,76,1,48,69,2359958536
81,22,11,Pattern_Practice,77,1,38,66,2360233120
81,22,11,Pattern_Practice,78,5,42,127,2360256140
81,22,11,Pattern_Practice,79,5,42,127,2360755444
81,22,11,Pattern_Practice,80,1,48,76,2360761728
81,22,11,Pattern_Practice,81,1,38,89,2361241856
81,22,11,Pattern_Practice,82,5,42,127,2361256324
81,22,11,Pattern_Practice,83,1,48,127,2361718140
81,22,11,Pattern_Practice,84,5,42,127,2361755944
81,22,11,Pattern_Practice,85,1,38,113,2361824376
81,22,11,Pattern_Practice,86,1,48,127,2361957644
81,22,11,Pattern_Practice,87,1,38,109,2362071932
81,22,11,Pattern_Practice,88,1,48,122,2362179996
81,22,11,Pattern_Practice,89,5,42,127,2362255948
81,22,11,Pattern_Practice,90,1,38,92,2362328120
81,22,11,Pattern_Practice,91,1,48,127,2362457500
81,22,11,Pattern_Practice,92,1,38,97,2362535712
81,22,11,Pattern_Practice,93,5,42,127,2362755336
81,22,11,Pattern_Practice,94,1,48,122,2362974192
81,22,11,Pattern_Practice,95,5,42,127,2363256152
81,22,11,Pattern_Practice,96,1,38,66,2363434992
81,22,11,Pattern_Practice,97,5,42,127,2363755996
81,22,11,Pattern_Practice,98,1,48,61,2363895948
81,22,11,Pattern_Practice,99,1,48,67,2364106280
81,22,11,Pattern_Practice,100,5,42,127,2364255892
81,22,11,Pattern_Practice,101,1,38,60,2364373404
81,22,11,Pattern_Practice,102,5,42,127,2364756412
81,22,11,Pattern_Practice,103,1,48,86,2364819368
81,22,11,Pattern_Practice,104,5,42,127,2365256032
81,22,11,Pattern_Practice,105,1,38,65,2365277996
81,22,11,Pattern_Practice,106,1,48,73,2365727040
81,22,11,Pattern_Practice,107,5,42,127,2365756164
81,22,11,Pattern_Practice,108,1,48,69,2365991996
81,22,11,Pattern_Practice,109,1,38,64,2366230448
81,22,11,Pattern_Practice,110,5,42,127,2366255468
81,22,11,Pattern_Practice,111,1,48,75,2366689976
81,22,11,Pattern_Practice,112,5,42,127,2366756208
81,22,11,Pattern_Practice,113,1,38,65,2367151132
81,22,11,Pattern_Practice,114,5,42,127,2367255888
81,22,11,Pattern_Practice,115,1,48,102,2367642820
81,22,11,Pattern_Practice,116,5,42,127,2367756028
81,22,11,Pattern_Practice,117,1,48,73,2367921688
81,22,11,Pattern_Practice,118,1,38,83,2368208412
81,22,11,Pattern_Practice,119,5,42,127,2368256244
81,22,11,Pattern_Practice,120,1,48,66,2368692224
81,22,11,Pattern_Practice,121,5,42,127,2368756088
81,22,11,Pattern_Practice,122,1,38,79,2369206804
81,22,11,Pattern_Practice,123,5,42,127,2369255928
81,22,11,Pattern_Practice,124,5,42,127,2369755928
81,22,11,Pattern_Practice,125,1,48,65,2369813952
81,22,11,Pattern_Practice,126,1,48,80,2370043284
81,22,11,Pattern_Practice,127,5,42,127,2370256276
81,22,11,Pattern_Practice,128,1,38,78,2370308088
81,22,11,Pattern_Practice,129,1,48,81,2370746580
81,22,11,Pattern_Practice,130,5,42,127,2370756036
81,22,11,Pattern_Practice,131,1,38,70,2371207952
81,22,11,Pattern_Practice,132,5,42,127,2371255856
81,22,11,Pattern_Practice,133,1,48,89,2371668804
81,22,11,Pattern_Practice,134,5,42,127,2371756352
81,22,11,Pattern_Practice,135,1,48,79,2371948648
81,22,11,Pattern_Practice,136,1,38,79,2372159276
81,22,11,Pattern_Practice,137,5,42,127,2372256100
81,22,11,Pattern_Practice,138,1,48,80,2372653440
81,22,11,Pattern_Practice,139,5,42,127,2372755784
81,22,11,Pattern_Practice,140,1,48,76,2373106164
81,22,11,Pattern_Practice,141,5,42,127,2373255552
81,22,11,Pattern_Practice,142,1,38,78,2373671528
81,22,11,Pattern_Practice,143,5,42,127,2373756236
81,22,11,Pattern_Practice,144,1,38,68,2374164188
81,22,11,Pattern_Practice,145,5,42,127,2374256004
81,22,11,Pattern_Practice,146,1,48,61,2374734944
81,22,11,Pattern_Practice,147,5,42,127,2374755548
81,22,11,Pattern_Practice,148,1,48,72,2375197844
81,22,11,Pattern_Practice,149,5,42,127,2375256440
81,22,11,Pattern_Practice,150,1,38,58,2375717656
81,22,11,Pattern_Practice,151,5,42,127,2375756288
81,22,11,Pattern_Practice,152,1,38,58,2376232092
81,22,11,Pattern_Practice,153,5,42,127,2376255760
81,22,11,Pattern_Practice,154,5,42,127,2376755684
81,22,11,Pattern_Practice,155,1,48,71,2376758876
81,22,11,Pattern_Practice,156,1,38,62,2377032264
81,22,11,Pattern_Practice,157,1,48,62,2377225400
81,22,11,Pattern_Practice,158,5,42,127,2377256248
81,22,11,Pattern_Practice,159,1,38,55,2377509128
81,22,11,Pattern_Practice,160,1,48,86,2377678024
81,22,11,Pattern_Practice,161,5,42,127,2377755996
81,22,11,Pattern_Practice,162,1,38,43,2377978580
81,22,11,Pattern_Practice,163,5,42,127,2378255600
81,22,11,Pattern_Practice,164,1,48,69,2378305464
81,22,11,Pattern_Practice,165,1,38,54,2378499124
81,22,11,Pattern_Practice,166,5,42,127,2378755572
81,22,11,Pattern_Practice,167,1,48,59,2378807684
81,22,11,Pattern_Practice,168,1,38,54,2379058932
81,22,11,Pattern_Practice,169,5,42,127,2379256216
81,22,11,Pattern_Practice,170,1,48,64,2379309676
81,22,11,Pattern_Practice,171,1,38,40,2379596300
81,22,11,Pattern_Practice,172,1,48,84,2379718448
81,22,11,Pattern_Practice,173,5,42,127,2379755956
81,22,11,Pattern_Practice,174,1,38,50,2380097848
81,22,11,Pattern_Practice,175,5,42,127,2380255636
81,22,11,Pattern_Practice,176,1,48,70,2380405808
81,22,11,Pattern_Practice,177,5,42,127,2380756376
81,22,11,Pattern_Practice,178,1,48,68,2381006576
81,22,11,Pattern_Practice,179,5,42,127,2381256072
81,22,11,Pattern_Practice,180,1,48,67,2381460468
81,22,11,Pattern_Practice,181,5,42,127,2381755844
81,22,11,Pattern_Practice,182,1,48,53,2381951788
81,22,11,Pattern_Practice,0,9999,9999,9999,2342253616
81,22,11,Pattern_Practice,1,9999,9999,9999,2342753332
81,22,11,Pattern_Practice,2,9999,9999,9999,2343254088
81,22,11,Pattern_Practice,3,9999,9999,9999,2343753788
81,22,11,Pattern_Practice,4,9999,9999,9999,2344253556
81,22,11,Pattern_Practice,5,9999,9999,9999,2344753248
81,22,11,Pattern_Practice,6,9999,9999,9999,2345253972
81,22,11,Pattern_Practice,7,9999,9999,9999,2345753648
81,22,11,Pattern_Practice,8,9999,9999,9999,2346253420
81,22,11,Pattern_Practice,9,9999,9999,9999,2346753112
81,22,11,Pattern_Practice,10,9999,9999,9999,2347253852
81,22,11,Pattern_Practice,11,9999,9999,9999,2347753544
81,22,11,Pattern_Practice,12,9999,9999,9999,2348253236
81,22,11,Pattern_Practice,13,9999,9999,9999,2348753980
81,22,11,Pattern_Practice,14,9999,9999,9999,2349253752
81,22,11,Pattern_Practice,15,9999,9999,9999,2349753448
81,22,11,Pattern_Practice,16,9999,9999,9999,2350253112
81,22,11,Pattern_Practice,17,9999,9999,9999,2350753852
81,22,11,Pattern_Practice,18,9999,9999,9999,2351253624
81,22,11,Pattern_Practice,19,9999,9999,9999,2351753324
81,22,11,Pattern_Practice,20,9999,9999,9999,2352254044
81,22,11,Pattern_Practice,21,9999,9999,9999,2352753740
81,22,11,Pattern_Practice,22,9999,9999,9999,2353253428
81,22,11,Pattern_Practice,23,9999,9999,9999,2353753196
81,22,11,Pattern_Practice,24,9999,9999,9999,2354253916
81,22,11,Pattern_Practice,25,9999,9999,9999,2354753612
81,22,11,Pattern_Practice,26,9999,9999,9999,2355253304
81,22,11,Pattern_Practice,27,9999,9999,9999,2355754052
81,22,11,Pattern_Practice,28,9999,9999,9999,2356253800
81,22,11,Pattern_Practice,29,9999,9999,9999,2356753496
81,22,11,Pattern_Practice,30,9999,9999,9999,2357253192
81,22,11,Pattern_Practice,31,9999,9999,9999,2357753932
81,22,11,Pattern_Practice,32,9999,9999,9999,2358253680
81,22,11,Pattern_Practice,33,9999,9999,9999,2358753372
81,22,11,Pattern_Practice,34,9999,9999,9999,2359254112
81,22,11,Pattern_Practice,35,9999,9999,9999,2359753808
81,22,11,Pattern_Practice,36,9999,9999,9999,2360253552
81,22,11,Pattern_Practice,37,9999,9999,9999,2360753228
81,22,11,Pattern_Practice,38,9999,9999,9999,2361253964
81,22,11,Pattern_Practice,39,9999,9999,9999,2361753660
81,22,11,Pattern_Practice,40,9999,9999,9999,2362253364
81,22,11,Pattern_Practice,41,9999,9999,9999,2362753124
81,22,11,Pattern_Practice,42,9999,9999,9999,2363253864
81,22,11,Pattern_Practice,43,9999,9999,9999,2363753560
81,22,11,Pattern_Practice,44,9999,9999,9999,2364253232
81,22,11,Pattern_Practice,45,9999,9999,9999,2364753976
81,22,11,Pattern_Practice,46,9999,9999,9999,2365253744
81,22,11,Pattern_Practice,47,9999,9999,9999,2365753432
81,22,11,Pattern_Practice,48,9999,9999,9999,2366253104
81,22,11,Pattern_Practice,49,9999,9999,9999,2366753844
81,22,11,Pattern_Practice,50,9999,9999,9999,2367253600
81,22,11,Pattern_Practice,51,9999,9999,9999,2367753296
81,22,11,Pattern_Practice,52,9999,9999,9999,2368254028
81,22,11,Pattern_Practice,53,9999,9999,9999,2368753724
81,22,11,Pattern_Practice,54,9999,9999,9999,2369253492
81,22,11,Pattern_Practice,55,9999,9999,9999,2369753196
81,22,11,Pattern_Practice,56,9999,9999,9999,2370253916
81,22,11,Pattern_Practice,57,9999,9999,9999,2370753600
81,22,11,Pattern_Practice,58,9999,9999,9999,2371253348
81,22,11,Pattern_Practice,59,9999,9999,9999,2371754064
81,22,11,Pattern_Practice,60,9999,9999,9999,2372253816
81,22,11,Pattern_Practice,61,9999,9999,9999,2372753496
81,22,11,Pattern_Practice,62,9999,9999,9999,2373253188
81,22,11,Pattern_Practice,63,9999,9999,9999,2373753948
81,22,11,Pattern_Practice,64,9999,9999,9999,2374253640
81,22,11,Pattern_Practice,65,9999,9999,9999,2374753336
81,22,11,Pattern_Practice,66,9999,9999,9999,2375254080
81,22,11,Pattern_Practice,67,9999,9999,9999,2375753776
81,22,11,Pattern_Practice,68,9999,9999,9999,2376253548
81,22,11,Pattern_Practice,69,9999,9999,9999,2376753248
81,22,11,Pattern_Practice,70,9999,9999,9999,2377253960
81,22,11,Pattern_Practice,71,9999,9999,9999,2377753708
81,22,11,Pattern_Practice,72,9999,9999,9999,2378253388
81,22,11,Pattern_Practice,73,9999,9999,9999,2378753136
81,22,11,Pattern_Practice,74,9999,9999,9999,2379253856
81,22,11,Pattern_Practice,75,9999,9999,9999,2379753520
81,22,11,Pattern_Practice,76,9999,9999,9999,2380253276
81,22,11,Pattern_Practice,77,9999,9999,9999,2380754016
81,22,11,Pattern_Practice,78,9999,9999,9999,2381253712
81,22,11,Pattern_Practice,79,9999,9999,9999,2381753404
81,23,13,Improv_Metronome,0,5,42,127,2411965832
81,23,13,Improv_Metronome,1,5,42,127,2412465748
81,23,13,Improv_Metronome,2,5,42,127,2412966212
81,23,13,Improv_Metronome,3,1,48,90,2412987980
81,23,13,Improv_Metronome,4,5,42,127,2413465984
81,23,13,Improv_Metronome,5,5,42,127,2413965624
81,23,13,Improv_Metronome,6,1,48,127,2413977724
81,23,13,Improv_Metronome,7,1,48,127,2414351212
81,23,13,Improv_Metronome,8,5,42,127,2414466492
81,23,13,Improv_Metronome,9,1,48,127,2414716096
81,23,13,Improv_Metronome,10,5,42,127,2414966112
81,23,13,Improv_Metronome,11,5,42,127,2415465832
81,23,13,Improv_Metronome,12,5,42,127,2415965696
81,23,13,Improv_Metronome,13,1,48,127,2415997536
81,23,13,Improv_Metronome,14,1,48,100,2416373948
81,23,13,Improv_Metronome,15,5,42,127,2416467088
81,23,13,Improv_Metronome,16,1,48,127,2416720280
81,23,13,Improv_Metronome,17,5,42,127,2416965888
81,23,13,Improv_Metronome,18,5,42,127,2417465752
81,23,13,Improv_Metronome,19,1,48,127,2417925188
81,23,13,Improv_Metronome,20,5,42,127,2417965536
81,23,13,Improv_Metronome,21,1,38,93,2418224768
81,23,13,Improv_Metronome,22,1,48,127,2418342852
81,23,13,Improv_Metronome,23,5,42,127,2418466016
81,23,13,Improv_Metronome,24,1,38,97,2418618828
81,23,13,Improv_Metronome,25,1,48,127,2418760924
81,23,13,Improv_Metronome,26,5,42,127,2418965836
81,23,13,Improv_Metronome,27,5,42,127,2419465556
81,23,13,Improv_Metronome,28,5,42,127,2419966244
81,23,13,Improv_Metronome,29,1,38,104,2419983724
81,23,13,Improv_Metronome,30,5,42,127,2420465936
81,23,13,Improv_Metronome,31,1,38,105,2420944888
81,23,13,Improv_Metronome,32,1,48,20,2420955272
81,23,13,Improv_Metronome,33,5,42,127,2420965776
81,23,13,Improv_Metronome,34,1,38,127,2421338824
81,23,13,Improv_Metronome,35,5,42,127,2421465652
81,23,13,Improv_Metronome,36,1,38,124,2421702764
81,23,13,Improv_Metronome,37,5,42,127,2421966392
81,23,13,Improv_Metronome,38,5,42,127,2422465812
81,23,13,Improv_Metronome,39,1,38,91,2422952296
81,23,13,Improv_Metronome,40,5,42,127,2422965668
81,23,13,Improv_Metronome,41,1,38,111,2423360740
81,23,13,Improv_Metronome,42,5,42,127,2423466596
81,23,13,Improv_Metronome,43,1,48,127,2423732504
81,23,13,Improv_Metronome,44,5,42,127,2423966068
81,23,13,Improv_Metronome,45,5,42,127,2424465632
81,23,13,Improv_Metronome,46,1,38,99,2424922304
81,23,13,Improv_Metronome,47,5,42,127,2424965568
81,23,13,Improv_Metronome,48,1,48,115,2425231388
81,23,13,Improv_Metronome,49,1,38,95,2425334232
81,23,13,Improv_Metronome,50,5,42,127,2425466420
81,23,13,Improv_Metronome,51,1,48,127,2425618488
81,23,13,Improv_Metronome,52,1,38,97,2425703136
81,23,13,Improv_Metronome,53,5,42,127,2425965784
81,23,13,Improv_Metronome,54,1,48,127,2426120088
81,23,13,Improv_Metronome,55,1,38,95,2426412852
81,23,13,Improv_Metronome,56,5,42,127,2426465620
81,23,13,Improv_Metronome,57,1,48,122,2426681776
81,23,13,Improv_Metronome,58,1,38,127,2426952772
81,23,13,Improv_Metronome,59,5,42,127,2426966488
81,23,13,Improv_Metronome,60,5,42,127,2427466044
81,23,13,Improv_Metronome,61,1,48,125,2427475516
81,23,13,Improv_Metronome,62,5,42,127,2427965740
81,23,13,Improv_Metronome,63,1,38,126,2427967152
81,23,13,Improv_Metronome,64,5,42,127,2428465584
81,23,13,Improv_Metronome,65,1,48,127,2428494728
81,23,13,Improv_Metronome,66,1,38,111,2428938688
81,23,13,Improv_Metronome,67,5,42,127,2428966468
81,23,13,Improv_Metronome,68,1,48,127,2429419756
81,23,13,Improv_Metronome,69,5,42,127,2429466088
81,23,13,Improv_Metronome,70,1,38,100,2429705728
81,23,13,Improv_Metronome,71,1,48,119,2429851864
81,23,13,Improv_Metronome,72,1,38,22,2429862092
81,23,13,Improv_Metronome,73,5,42,127,2429965624
81,23,13,Improv_Metronome,74,1,38,88,2430098444
81,23,13,Improv_Metronome,75,1,48,127,2430219692
81,23,13,Improv_Metronome,76,1,38,105,2430400708
81,23,13,Improv_Metronome,77,5,42,127,2430466412
81,23,13,Improv_Metronome,78,1,48,127,2430886612
81,23,13,Improv_Metronome,79,5,42,127,2430966404
81,23,13,Improv_Metronome,80,1,38,90,2431372168
81,23,13,Improv_Metronome,81,5,42,127,2431465804
81,23,13,Improv_Metronome,82,1,48,127,2431877848
81,23,13,Improv_Metronome,83,5,42,127,2431965572
81,23,13,Improv_Metronome,84,1,38,127,2432377172
81,23,13,Improv_Metronome,85,5,42,127,2432466460
81,23,13,Improv_Metronome,86,1,48,127,2432876568
81,23,13,Improv_Metronome,87,5,42,127,2432965932
81,23,13,Improv_Metronome,88,1,38,122,2433162012
81,23,13,Improv_Metronome,89,1,48,127,2433296428
81,23,13,Improv_Metronome,90,5,42,127,2433465588
81,23,13,Improv_Metronome,91,1,38,109,2433532656
81,23,13,Improv_Metronome,92,1,48,127,2433661292
81,23,13,Improv_Metronome,93,1,38,127,2433816800
81,23,13,Improv_Metronome,94,1,38,58,2433849308
81,23,13,Improv_Metronome,95,5,42,127,2433965416
81,23,13,Improv_Metronome,96,1,48,127,2434289768
81,23,13,Improv_Metronome,97,5,42,127,2434466384
81,23,13,Improv_Metronome,98,1,38,108,2434806588
81,23,13,Improv_Metronome,99,5,42,127,2434965928
81,23,13,Improv_Metronome,100,1,48,127,2435313540
81,23,13,Improv_Metronome,101,5,42,127,2435465624
81,23,13,Improv_Metronome,102,1,38,88,2435830068
81,23,13,Improv_Metronome,103,5,42,127,2435966292
81,23,13,Improv_Metronome,104,1,38,94,2436274536
81,23,13,Improv_Metronome,105,1,38,92,2436391376
81,23,13,Improv_Metronome,106,1,38,103,2436466864
81,23,13,Improv_Metronome,107,5,42,127,2436469696
81,23,13,Improv_Metronome,108,1,38,47,2436630800
81,23,13,Improv_Metronome,109,1,38,77,2436652100
81,23,13,Improv_Metronome,110,1,38,88,2436826676
81,23,13,Improv_Metronome,111,1,38,47,2436862556
81,23,13,Improv_Metronome,112,5,42,127,2436965724
81,23,13,Improv_Metronome,113,1,48,127,2437067672
81,23,13,Improv_Metronome,114,5,42,127,2437465344
81,23,13,Improv_Metronome,115,1,38,93,2437520672
81,23,13,Improv_Metronome,116,5,42,127,2437966084
81,23,13,Improv_Metronome,117,1,48,100,2437973912
81,23,13,Improv_Metronome,118,1,38,97,2438428412
81,23,13,Improv_Metronome,119,5,42,127,2438465772
81,23,13,Improv_Metronome,120,1,48,127,2438945236
81,23,13,Improv_Metronome,121,5,42,127,2438965616
81,23,13,Improv_Metronome,122,1,38,95,2439235096
81,23,13,Improv_Metronome,123,1,48,127,2439382000
81,23,13,Improv_Metronome,124,5,42,127,2439466484
81,23,13,Improv_Metronome,125,1,38,82,2439678152
81,23,13,Improv_Metronome,126,1,48,103,2439816580
81,23,13,Improv_Metronome,127,1,38,20,2439826732
81,23,13,Improv_Metronome,128,1,38,53,2439913920
81,23,13,Improv_Metronome,129,5,42,127,2439966088
81,23,13,Improv_Metronome,130,1,48,120,2440124196
81,23,13,Improv_Metronome,131,1,38,21,2440134200
81,23,13,Improv_Metronome,132,5,42,127,2440465796
81,23,13,Improv_Metronome,133,1,38,98,2440579836
81,23,13,Improv_Metronome,134,5,42,127,2440965340
81,23,13,Improv_Metronome,135,1,48,127,2441072728
81,23,13,Improv_Metronome,136,5,42,127,2441466156
81,23,13,Improv_Metronome,137,1,38,110,2441516324
81,23,13,Improv_Metronome,138,5,42,127,2441966076
81,23,13,Improv_Metronome,139,1,48,127,2441999788
81,23,13,Improv_Metronome,140,5,42,127,2442465620
81,23,13,Improv_Metronome,141,1,48,127,2442474948
81,23,13,Improv_Metronome,142,5,42,127,2442966288
81,23,13,Improv_Metronome,143,1,48,123,2442980100
81,23,13,Improv_Metronome,144,1,48,127,2443432556
81,23,13,Improv_Metronome,145,5,42,127,2443466048
81,23,13,Improv_Metronome,146,1,48,127,2443945044
81,23,13,Improv_Metronome,147,5,42,127,2443965744
81,23,13,Improv_Metronome,148,1,48,127,2444426784
81,23,13,Improv_Metronome,149,5,42,127,2444465488
81,23,13,Improv_Metronome,150,1,48,127,2444918252
81,23,13,Improv_Metronome,151,5,42,127,2444966156
81,23,13,Improv_Metronome,152,1,48,87,2445438664
81,23,13,Improv_Metronome,153,5,42,127,2445466072
81,23,13,Improv_Metronome,154,5,42,127,2445965628
81,23,13,Improv_Metronome,155,1,38,118,2445971588
81,23,13,Improv_Metronome,156,1,48,121,2446416140
81,23,13,Improv_Metronome,157,5,42,127,2446466360
81,23,13,Improv_Metronome,158,1,38,122,2446735696
81,23,13,Improv_Metronome,159,5,42,127,2446966260
81,23,13,Improv_Metronome,160,1,48,81,2447234192
81,23,13,Improv_Metronome,161,5,42,127,2447465956
81,23,13,Improv_Metronome,162,1,48,89,2447469076
81,23,13,Improv_Metronome,163,1,48,106,2447960972
81,23,13,Improv_Metronome,164,5,42,127,2447965496
81,23,13,Improv_Metronome,165,1,48,124,2448452436
81,23,13,Improv_Metronome,166,5,42,127,2448466236
81,23,13,Improv_Metronome,167,1,38,103,2448720236
81,23,13,Improv_Metronome,168,5,42,127,2448965916
81,23,13,Improv_Metronome,169,1,48,127,2449152612
81,23,13,Improv_Metronome,170,1,38,124,2449427192
81,23,13,Improv_Metronome,171,5,42,127,2449465824
81,23,13,Improv_Metronome,172,1,48,127,2449921952
81,23,13,Improv_Metronome,173,5,42,127,2449965296
81,23,13,Improv_Metronome,174,1,48,127,2450427484
81,23,13,Improv_Metronome,175,5,42,127,2450466116
81,23,13,Improv_Metronome,176,1,38,92,2450683016
81,23,13,Improv_Metronome,177,5,42,127,2450965868
81,23,13,Improv_Metronome,178,1,48,111,2451116936
81,23,13,Improv_Metronome,179,1,38,118,2451380028
81,23,13,Improv_Metronome,180,5,42,127,2451465556
81,23,13,Improv_Metronome,181,1,48,118,2451862944
81,23,13,Improv_Metronome,182,1,38,22,2451872948
81,23,13,Improv_Metronome,183,5,42,127,2451966308
81,23,13,Improv_Metronome,184,1,48,126,2452394748
81,23,13,Improv_Metronome,185,5,42,127,2452466092
81,23,13,Improv_Metronome,186,1,38,127,2452678356
81,23,13,Improv_Metronome,187,5,42,127,2452965848
81,23,13,Improv_Metronome,188,1,38,127,2453186804
81,23,13,Improv_Metronome,189,5,42,127,2453465544
81,23,13,Improv_Metronome,190,1,48,127,2453468136
81,23,13,Improv_Metronome,191,5,42,127,2453966132
81,23,13,Improv_Metronome,192,1,38,115,2453972988
81,23,13,Improv_Metronome,193,5,42,127,2454465976
81,23,13,Improv_Metronome,194,1,38,76,2454469096
81,23,13,Improv_Metronome,195,1,38,109,2454930900
81,23,13,Improv_Metronome,196,5,42,127,2454965812
81,23,13,Improv_Metronome,197,1,38,127,2455439196
81,23,13,Improv_Metronome,198,5,42,127,2455466456
81,23,13,Improv_Metronome,199,1,38,116,2455923332
81,23,13,Improv_Metronome,200,5,42,127,2455966076
81,23,13,Improv_Metronome,201,1,38,84,2456409564
81,23,13,Improv_Metronome,202,5,42,127,2456465844
81,23,13,Improv_Metronome,203,1,38,103,2456917636
81,23,13,Improv_Metronome,204,5,42,127,2456965616
81,23,13,Improv_Metronome,205,1,48,127,2457219172
81,23,13,Improv_Metronome,206,1,38,84,2457446252
81,23,13,Improv_Metronome,207,5,42,127,2457466408
81,23,13,Improv_Metronome,208,1,48,109,2457736040
81,23,13,Improv_Metronome,209,5,42,127,2457965864
81,23,13,Improv_Metronome,210,1,38,114,2457968028
81,23,13,Improv_Metronome,211,5,42,127,2458465636
81,23,13,Improv_Metronome,212,1,48,127,2458493808
81,23,13,Improv_Metronome,213,1,38,97,2458748428
81,23,13,Improv_Metronome,214,5,42,127,2458966356
81,23,13,Improv_Metronome,215,1,48,126,2459256792
81,23,13,Improv_Metronome,216,5,42,127,2459466048
81,23,13,Improv_Metronome,217,1,38,91,2459527884
81,23,13,Improv_Metronome,218,1,48,104,2459717876
81,23,13,Improv_Metronome,219,1,38,21,2459727876
81,23,13,Improv_Metronome,220,5,42,127,2459965748
81,23,13,Improv_Metronome,221,1,38,127,2460020476
81,23,13,Improv_Metronome,222,5,42,127,2460465592
81,23,13,Improv_Metronome,223,1,48,127,2460514564
81,23,13,Improv_Metronome,224,1,38,127,2460771044
81,23,13,Improv_Metronome,225,5,42,127,2460966312
81,23,13,Improv_Metronome,226,1,48,122,2461259592
81,23,13,Improv_Metronome,227,5,42,127,2461465932
81,23,13,Improv_Metronome,228,1,38,86,2461514672
81,23,13,Improv_Metronome,229,1,48,116,2461764128
81,23,13,Improv_Metronome,230,5,42,127,2461965828
81,23,13,Improv_Metronome,231,1,38,95,2462013152
81,23,13,Improv_Metronome,232,5,42,127,2462466496
81,23,13,Improv_Metronome,233,1,48,116,2462498336
81,23,13,Improv_Metronome,234,1,38,127,2462793564
81,23,13,Improv_Metronome,235,5,42,127,2462966168
81,23,13,Improv_Metronome,236,1,48,104,2463333200
81,23,13,Improv_Metronome,237,1,38,21,2463343204
81,23,13,Improv_Metronome,238,5,42,127,2463465740
81,23,13,Improv_Metronome,239,1,38,103,2463618676
81,23,13,Improv_Metronome,240,1,48,106,2463861400
81,23,13,Improv_Metronome,241,5,42,127,2463965860
81,23,13,Improv_Metronome,242,1,38,111,2464124260
81,23,13,Improv_Metronome,243,5,42,127,2464466380
81,23,13,Improv_Metronome,244,1,38,111,2464593364
81,23,13,Improv_Metronome,245,1,38,81,2464851568
81,23,13,Improv_Metronome,246,5,42,127,2464965976
81,23,13,Improv_Metronome,247,1,38,127,2465121084
81,23,13,Improv_Metronome,248,1,38,111,2465405912
81,23,13,Improv_Metronome,249,5,42,127,2465465664
81,23,13,Improv_Metronome,250,1,38,122,2465665488
81,23,13,Improv_Metronome,251,1,38,127,2465940968
81,23,13,Improv_Metronome,252,5,42,127,2465965832
81,23,13,Improv_Metronome,253,1,48,104,2466218412
81,23,13,Improv_Metronome,254,5,42,127,2466466260
81,23,13,Improv_Metronome,255,1,38,97,2466714440
81,23,13,Improv_Metronome,256,5,42,127,2466965808
81,23,13,Improv_Metronome,257,1,48,113,2467216904
81,23,13,Improv_Metronome,258,1,38,21,2467226760
81,23,13,Improv_Metronome,259,5,42,127,2467465604
81,23,13,Improv_Metronome,260,1,38,127,2467695684
81,23,13,Improv_Metronome,261,5,42,127,2467966344
81,23,13,Improv_Metronome,262,1,48,127,2468232552
81,23,13,Improv_Metronome,263,5,42,127,2468466036
81,23,13,Improv_Metronome,264,1,38,127,2468715644
81,23,13,Improv_Metronome,265,5,42,127,2468965736
81,23,13,Improv_Metronome,266,1,48,127,2469264852
81,23,13,Improv_Metronome,267,5,42,127,2469465580
81,23,13,Improv_Metronome,268,1,38,95,2469773376
81,23,13,Improv_Metronome,269,5,42,127,2469966396
81,23,13,Improv_Metronome,270,1,48,127,2470325528
81,23,13,Improv_Metronome,271,1,38,127,2470454228
81,23,13,Improv_Metronome,272,5,42,127,2470465936
81,23,13,Improv_Metronome,273,1,48,114,2470571436
81,23,13,Improv_Metronome,274,1,38,21,2470582000
81,23,13,Improv_Metronome,275,1,38,99,2470680308
81,23,13,Improv_Metronome,276,1,48,127,2470817020
81,23,13,Improv_Metronome,277,1,38,97,2470928920
81,23,13,Improv_Metronome,278,5,42,127,2470965604
81,23,13,Improv_Metronome,279,1,48,114,2471058544
81,23,13,Improv_Metronome,280,1,38,127,2471181440
81,23,13,Improv_Metronome,281,1,38,50,2471222104
81,23,13,Improv_Metronome,282,1,48,114,2471319920
81,23,13,Improv_Metronome,283,1,38,101,2471401692
81,23,13,Improv_Metronome,284,5,42,127,2471466336
81,23,13,Improv_Metronome,285,1,48,127,2471584028
81,23,13,Improv_Metronome,286,1,38,107,2471628852
81,23,13,Improv_Metronome,287,1,48,127,2471858356
81,23,13,Improv_Metronome,288,1,38,109,2471862464
81,23,13,Improv_Metronome,289,1,38,57,2471896252
81,23,13,Improv_Metronome,290,5,42,127,2471966052
81,23,13,Improv_Metronome,291,1,48,127,2472318488
81,23,13,Improv_Metronome,292,5,42,127,2472465656
81,23,13,Improv_Metronome,293,1,48,127,2472853860
81,23,13,Improv_Metronome,294,5,42,127,2472965428
81,23,13,Improv_Metronome,295,1,38,114,2473394716
81,23,13,Improv_Metronome,296,5,42,127,2473466184
81,23,13,Improv_Metronome,297,5,42,127,2473965884
81,23,13,Improv_Metronome,298,1,48,127,2474378024
81,23,13,Improv_Metronome,299,5,42,127,2474465596
81,23,13,Improv_Metronome,300,1,48,118,2474858192
81,23,13,Improv_Metronome,301,5,42,127,2474966468
81,23,13,Improv_Metronome,302,1,38,106,2475085672
81,23,13,Improv_Metronome,303,5,42,127,2475466240
81,23,13,Improv_Metronome,304,1,38,85,2475539520
81,23,13,Improv_Metronome,305,1,38,91,2475753892
81,23,13,Improv_Metronome,306,5,42,127,2475965764
81,23,13,Improv_Metronome,307,1,48,126,2476244088
81,23,13,Improv_Metronome,308,5,42,127,2476465656
81,23,13,Improv_Metronome,309,1,48,110,2476746448
81,23,13,Improv_Metronome,310,5,42,127,2476966224
81,23,13,Improv_Metronome,311,1,38,121,2477222036
81,23,13,Improv_Metronome,312,5,42,127,2477466068
81,23,13,Improv_Metronome,313,5,42,127,2477965708
81,23,13,Improv_Metronome,314,1,48,127,2478087104
81,23,13,Improv_Metronome,315,5,42,127,2478466452
81,23,13,Improv_Metronome,316,1,48,127,2478524944
81,23,13,Improv_Metronome,317,1,38,127,2478730396
81,23,13,Improv_Metronome,318,5,42,127,2478966048
81,23,13,Improv_Metronome,319,1,38,101,2479108692
81,23,13,Improv_Metronome,320,1,38,101,2479322012
81,23,13,Improv_Metronome,321,5,42,127,2479465944
81,23,13,Improv_Metronome,322,1,48,127,2479752500
81,23,13,Improv_Metronome,323,5,42,127,2479965568
81,23,13,Improv_Metronome,324,1,48,103,2480188544
81,23,13,Improv_Metronome,325,5,42,127,2480466160
81,23,13,Improv_Metronome,326,1,48,127,2480626752
81,23,13,Improv_Metronome,327,5,42,127,2480966076
81,23,13,Improv_Metronome,328,1,38,127,2481456556
81,23,13,Improv_Metronome,329,5,42,127,2481465712
81,23,13,Improv_Metronome,330,1,38,87,2481866712
81,23,13,Improv_Metronome,0,9999,9999,9999,2411963468
81,23,13,Improv_Metronome,1,9999,9999,9999,2412463160
81,23,13,Improv_Metronome,2,9999,9999,9999,2412963924
81,23,13,Improv_Metronome,3,9999,9999,9999,2413463620
81,23,13,Improv_Metronome,4,9999,9999,9999,2413963336
81,23,13,Improv_Metronome,5,9999,9999,9999,2414464056
81,23,13,Improv_Metronome,6,9999,9999,9999,2414963824
81,23,13,Improv_Metronome,7,9999,9999,9999,2415463544
81,23,13,Improv_Metronome,8,9999,9999,9999,2415963184
81,23,13,Improv_Metronome,9,9999,9999,9999,2416463992
81,23,13,Improv_Metronome,10,9999,9999,9999,2416963672
81,23,13,Improv_Metronome,11,9999,9999,9999,2417463388
81,23,13,Improv_Metronome,12,9999,9999,9999,2417963100
81,23,13,Improv_Metronome,13,9999,9999,9999,2418463804
81,23,13,Improv_Metronome,14,9999,9999,9999,2418963548
81,23,13,Improv_Metronome,15,9999,9999,9999,2419463268
81,23,13,Improv_Metronome,16,9999,9999,9999,2419963956
81,23,13,Improv_Metronome,17,9999,9999,9999,2420463724
81,23,13,Improv_Metronome,18,9999,9999,9999,2420963412
81,23,13,Improv_Metronome,19,9999,9999,9999,2421463140
81,23,13,Improv_Metronome,20,9999,9999,9999,2421963880
81,23,13,Improv_Metronome,21,9999,9999,9999,2422463596
81,23,13,Improv_Metronome,22,9999,9999,9999,2422963284
81,23,13,Improv_Metronome,23,9999,9999,9999,2423464008
81,23,13,Improv_Metronome,24,9999,9999,9999,2423963704
81,23,13,Improv_Metronome,25,9999,9999,9999,2424463420
81,23,13,Improv_Metronome,26,9999,9999,9999,2424963132
81,23,13,Improv_Metronome,27,9999,9999,9999,2425463908
81,23,13,Improv_Metronome,28,9999,9999,9999,2425963568
81,23,13,Improv_Metronome,29,9999,9999,9999,2426463332
81,23,13,Improv_Metronome,30,9999,9999,9999,2426964052
81,23,13,Improv_Metronome,31,9999,9999,9999,2427463756
81,23,13,Improv_Metronome,32,9999,9999,9999,2427963452
81,23,13,Improv_Metronome,33,9999,9999,9999,2428463220
81,23,13,Improv_Metronome,34,9999,9999,9999,2428963960
81,23,13,Improv_Metronome,35,9999,9999,9999,2429463652
81,23,13,Improv_Metronome,36,9999,9999,9999,2429963336
81,23,13,Improv_Metronome,37,9999,9999,9999,2430464052
81,23,13,Improv_Metronome,38,9999,9999,9999,2430963820
81,23,13,Improv_Metronome,39,9999,9999,9999,2431463516
81,23,13,Improv_Metronome,40,9999,9999,9999,2431963208
81,23,13,Improv_Metronome,41,9999,9999,9999,2432463952
81,23,13,Improv_Metronome,42,9999,9999,9999,2432963644
81,23,13,Improv_Metronome,43,9999,9999,9999,2433463376
81,23,13,Improv_Metronome,44,9999,9999,9999,2433963128
81,23,13,Improv_Metronome,45,9999,9999,9999,2434463796
81,23,13,Improv_Metronome,46,9999,9999,9999,2434963564
81,23,13,Improv_Metronome,47,9999,9999,9999,2435463264
81,23,13,Improv_Metronome,48,9999,9999,9999,2435964004
81,23,13,Improv_Metronome,49,9999,9999,9999,2436463692
81,23,13,Improv_Metronome,50,9999,9999,9999,2436963436
81,23,13,Improv_Metronome,51,9999,9999,9999,2437463132
81,23,13,Improv_Metronome,52,9999,9999,9999,2437963868
81,23,13,Improv_Metronome,53,9999,9999,9999,2438463556
81,23,13,Improv_Metronome,54,9999,9999,9999,2438963252
81,23,13,Improv_Metronome,55,9999,9999,9999,2439464048
81,23,13,Improv_Metronome,56,9999,9999,9999,2439963728
81,23,13,Improv_Metronome,57,9999,9999,9999,2440463432
81,23,13,Improv_Metronome,58,9999,9999,9999,2440963128
81,23,13,Improv_Metronome,59,9999,9999,9999,2441463868
81,23,13,Improv_Metronome,60,9999,9999,9999,2441963636
81,23,13,Improv_Metronome,61,9999,9999,9999,2442463332
81,23,13,Improv_Metronome,62,9999,9999,9999,2442964072
81,23,13,Improv_Metronome,63,9999,9999,9999,2443463760
81,23,13,Improv_Metronome,64,9999,9999,9999,2443963456
81,23,13,Improv_Metronome,65,9999,9999,9999,2444463200
81,23,13,Improv_Metronome,66,9999,9999,9999,2444963944
81,23,13,Improv_Metronome,67,9999,9999,9999,2445463636
81,23,13,Improv_Metronome,68,9999,9999,9999,2445963340
81,23,13,Improv_Metronome,69,9999,9999,9999,2446464072
81,23,13,Improv_Metronome,70,9999,9999,9999,2446963824
81,23,13,Improv_Metronome,71,9999,9999,9999,2447463520
81,23,13,Improv_Metronome,72,9999,9999,9999,2447963208
81,23,13,Improv_Metronome,73,9999,9999,9999,2448463948
81,23,13,Improv_Metronome,74,9999,9999,9999,2448963700
81,23,13,Improv_Metronome,75,9999,9999,9999,2449463392
81,23,13,Improv_Metronome,76,9999,9999,9999,2449963084
81,23,13,Improv_Metronome,77,9999,9999,9999,2450463828
81,23,13,Improv_Metronome,78,9999,9999,9999,2450963508
81,23,13,Improv_Metronome,79,9999,9999,9999,2451463268
81,23,13,Improv_Metronome,80,9999,9999,9999,2451964000
81,23,13,Improv_Metronome,81,9999,9999,9999,2452463732
81,23,13,Improv_Metronome,82,9999,9999,9999,2452963412
81,23,13,Improv_Metronome,83,9999,9999,9999,2453463108
81,23,13,Improv_Metronome,84,9999,9999,9999,2453963848
81,23,13,Improv_Metronome,85,9999,9999,9999,2454463540
81,23,13,Improv_Metronome,86,9999,9999,9999,2454963304
81,23,13,Improv_Metronome,87,9999,9999,9999,2455464020
81,23,13,Improv_Metronome,88,9999,9999,9999,2455963716
81,23,13,Improv_Metronome,89,9999,9999,9999,2456463408
81,23,13,Improv_Metronome,90,9999,9999,9999,2456963180
81,23,13,Improv_Metronome,91,9999,9999,9999,2457463900
81,23,13,Improv_Metronome,92,9999,9999,9999,2457963576
81,23,13,Improv_Metronome,93,9999,9999,9999,2458463348
81,23,13,Improv_Metronome,94,9999,9999,9999,2458964068
81,23,13,Improv_Metronome,95,9999,9999,9999,2459463760
81,23,13,Improv_Metronome,96,9999,9999,9999,2459963460
81,23,13,Improv_Metronome,97,9999,9999,9999,2460463156
81,23,13,Improv_Metronome,98,9999,9999,9999,2460963948
81,23,13,Improv_Metronome,99,9999,9999,9999,2461463644
81,23,13,Improv_Metronome,100,9999,9999,9999,2461963316
81,23,13,Improv_Metronome,101,9999,9999,9999,2462464060
81,23,13,Improv_Metronome,102,9999,9999,9999,2462963804
81,23,13,Improv_Metronome,103,9999,9999,9999,2463463528
81,23,13,Improv_Metronome,104,9999,9999,9999,2463963200
81,23,13,Improv_Metronome,105,9999,9999,9999,2464463944
81,23,13,Improv_Metronome,106,9999,9999,9999,2464963692
81,23,13,Improv_Metronome,107,9999,9999,9999,2465463380
81,23,13,Improv_Metronome,108,9999,9999,9999,2465963100
81,23,13,Improv_Metronome,109,9999,9999,9999,2466463824
81,23,13,Improv_Metronome,110,9999,9999,9999,2466963520
81,23,13,Improv_Metronome,111,9999,9999,9999,2467463240
81,23,13,Improv_Metronome,112,9999,9999,9999,2467963984
81,23,13,Improv_Metronome,113,9999,9999,9999,2468463676
81,23,13,Improv_Metronome,114,9999,9999,9999,2468963448
81,23,13,Improv_Metronome,115,9999,9999,9999,2469463144
81,23,13,Improv_Metronome,116,9999,9999,9999,2469963884
81,23,13,Improv_Metronome,117,9999,9999,9999,2470463572
81,23,13,Improv_Metronome,118,9999,9999,9999,2470963316
81,23,13,Improv_Metronome,119,9999,9999,9999,2471464048
81,23,13,Improv_Metronome,120,9999,9999,9999,2471963764
81,23,13,Improv_Metronome,121,9999,9999,9999,2472463444
81,23,13,Improv_Metronome,122,9999,9999,9999,2472963140
81,23,13,Improv_Metronome,123,9999,9999,9999,2473463896
81,23,13,Improv_Metronome,124,9999,9999,9999,2473963596
81,23,13,Improv_Metronome,125,9999,9999,9999,2474463308
81,23,13,Improv_Metronome,126,9999,9999,9999,2474964032
81,23,13,Improv_Metronome,127,9999,9999,9999,2475463728
81,23,13,Improv_Metronome,128,9999,9999,9999,2475963476
81,23,13,Improv_Metronome,129,9999,9999,9999,2476463220
81,23,13,Improv_Metronome,130,9999,9999,9999,2476963936
81,23,13,Improv_Metronome,131,9999,9999,9999,2477463628
81,23,13,Improv_Metronome,132,9999,9999,9999,2477963348
81,23,13,Improv_Metronome,133,9999,9999,9999,2478464088
81,23,13,Improv_Metronome,134,9999,9999,9999,2478963760
81,23,13,Improv_Metronome,135,9999,9999,9999,2479463508
81,23,13,Improv_Metronome,136,9999,9999,9999,2479963204
81,23,13,Improv_Metronome,137,9999,9999,9999,2480463944
81,23,13,Improv_Metronome,138,9999,9999,9999,2480963640
81,23,13,Improv_Metronome,139,9999,9999,9999,2481463352
81,24,14,Improv_Melody,0,2,48,80,2533401924
81,24,14,Improv_Melody,1,2,72,80,2533404588
81,24,14,Improv_Melody,2,5,42,127,2533406080
81,24,14,Improv_Melody,3,5,42,110,2533898696
81,24,14,Improv_Melody,4,5,42,110,2534399316
81,24,14,Improv_Melody,5,5,42,110,2534899040
81,24,14,Improv_Melody,6,5,42,127,2535398760
81,24,14,Improv_Melody,7,5,42,110,2535898336
81,24,14,Improv_Melody,8,5,42,110,2536399252
81,24,14,Improv_Melody,9,5,42,110,2536898900
81,24,14,Improv_Melody,10,2,43,80,2537401120
81,24,14,Improv_Melody,11,2,67,80,2537403428
81,24,14,Improv_Melody,12,5,42,127,2537405964
81,24,14,Improv_Melody,13,5,42,110,2537899376
81,24,14,Improv_Melody,14,5,42,110,2538399024
81,24,14,Improv_Melody,15,5,42,110,2538898672
81,24,14,Improv_Melody,16,5,42,127,2539398616
81,24,14,Improv_Melody,17,5,42,110,2539899384
81,24,14,Improv_Melody,18,5,42,110,2540398884
81,24,14,Improv_Melody,19,5,42,110,2540898756
81,24,14,Improv_Melody,20,2,45,80,2541402260
81,24,14,Improv_Melody,21,2,69,80,2541404332
81,24,14,Improv_Melody,22,5,42,127,2541406864
81,24,14,Improv_Melody,23,5,42,110,2541899036
81,24,14,Improv_Melody,24,5,42,110,2542398760
81,24,14,Improv_Melody,25,5,42,110,2542898776
81,24,14,Improv_Melody,26,5,42,127,2543399252
81,24,14,Improv_Melody,27,5,42,110,2543898896
81,24,14,Improv_Melody,28,5,42,110,2544398844
81,24,14,Improv_Melody,29,5,42,110,2544898640
81,24,14,Improv_Melody,30,2,41,80,2545401920
81,24,14,Improv_Melody,31,2,65,80,2545403836
81,24,14,Improv_Melody,32,5,42,127,2545406304
81,24,14,Improv_Melody,33,5,42,110,2545898768
81,24,14,Improv_Melody,34,5,42,110,2546398716
81,24,14,Improv_Melody,35,5,42,110,2546899260
81,24,14,Improv_Melody,36,5,42,127,2547398980
81,24,14,Improv_Melody,37,5,42,110,2547898856
81,24,14,Improv_Melody,38,5,42,110,2548398652
81,24,14,Improv_Melody,39,5,42,110,2548899320
81,24,14,Improv_Melody,40,2,48,80,2549401628
81,24,14,Improv_Melody,41,2,72,80,2549403620
81,24,14,Improv_Melody,42,5,42,127,2549406012
81,24,14,Improv_Melody,43,1,48,62,2549410028
81,24,14,Improv_Melody,44,5,42,110,2549898604
81,24,14,Improv_Melody,45,1,48,63,2550396188
81,24,14,Improv_Melody,46,5,42,110,2550399440
81,24,14,Improv_Melody,47,5,42,110,2550898924
81,24,14,Improv_Melody,48,1,48,93,2551362024
81,24,14,Improv_Melody,49,5,42,127,2551398788
81,24,14,Improv_Melody,50,5,42,110,2551898568
81,24,14,Improv_Melody,51,1,48,96,2552341700
81,24,14,Improv_Melody,52,5,42,110,2552399184
81,24,14,Improv_Melody,53,5,42,110,2552898888
81,24,14,Improv_Melody,54,1,38,119,2553363708
81,24,14,Improv_Melody,55,2,43,80,2553401332
81,24,14,Improv_Melody,56,2,67,80,2553403412
81,24,14,Improv_Melody,57,5,42,127,2553405724
81,24,14,Improv_Melody,58,5,42,110,2553899444
81,24,14,Improv_Melody,59,1,48,100,2554371376
81,24,14,Improv_Melody,60,5,42,110,2554398940
81,24,14,Improv_Melody,61,5,42,110,2554898720
81,24,14,Improv_Melody,62,1,38,124,2555338332
81,24,14,Improv_Melody,63,1,48,21,2555348708
81,24,14,Improv_Melody,64,5,42,127,2555398636
81,24,14,Improv_Melody,65,5,42,110,2555899288
81,24,14,Improv_Melody,66,1,48,85,2556343988
81,24,14,Improv_Melody,67,5,42,110,2556398856
81,24,14,Improv_Melody,68,5,42,110,2556898636
81,24,14,Improv_Melody,69,1,38,127,2557352808
81,24,14,Improv_Melody,70,2,45,80,2557401824
81,24,14,Improv_Melody,71,2,69,80,2557404052
81,24,14,Improv_Melody,72,5,42,127,2557406664
81,24,14,Improv_Melody,73,5,42,110,2557899116
81,24,14,Improv_Melody,74,1,38,127,2558379840
81,24,14,Improv_Melody,75,5,42,110,2558398904
81,24,14,Improv_Melody,76,5,42,110,2558898464
81,24,14,Improv_Melody,77,1,38,122,2559380836
81,24,14,Improv_Melody,78,5,42,127,2559399276
81,24,14,Improv_Melody,79,5,42,110,2559899056
81,24,14,Improv_Melody,80,1,38,127,2560398324
81,24,14,Improv_Melody,81,5,42,110,2560400492
81,24,14,Improv_Melody,82,5,42,110,2560898328
81,24,14,Improv_Melody,83,1,48,127,2561341904
81,24,14,Improv_Melody,84,2,41,80,2561401588
81,24,14,Improv_Melody,85,2,65,80,2561403816
81,24,14,Improv_Melody,86,5,42,127,2561406504
81,24,14,Improv_Melody,87,5,42,110,2561899032
81,24,14,Improv_Melody,88,1,48,120,2562335428
81,24,14,Improv_Melody,89,5,42,110,2562398524
81,24,14,Improv_Melody,90,5,42,110,2562899204
81,24,14,Improv_Melody,91,1,48,103,2563342408
81,24,14,Improv_Melody,92,5,42,127,2563399140
81,24,14,Improv_Melody,93,1,38,121,2563893040
81,24,14,Improv_Melody,94,5,42,110,2563898620
81,24,14,Improv_Melody,95,1,48,83,2564228012
81,24,14,Improv_Melody,96,5,42,110,2564398304
81,24,14,Improv_Melody,97,1,38,116,2564454752
81,24,14,Improv_Melody,98,5,42,110,2564899272
81,24,14,Improv_Melody,99,1,48,91,2565014212
81,24,14,Improv_Melody,100,2,48,80,2565401552
81,24,14,Improv_Melody,101,2,72,80,2565403780
81,24,14,Improv_Melody,102,5,42,127,2565406312
81,24,14,Improv_Melody,103,1,38,124,2565499564
81,24,14,Improv_Melody,104,5,42,110,2565898536
81,24,14,Improv_Melody,105,5,42,110,2566399456
81,24,14,Improv_Melody,106,1,38,114,2566409080
81,24,14,Improv_Melody,107,5,42,110,2566899304
81,24,14,Improv_Melody,108,1,38,117,2567359188
81,24,14,Improv_Melody,109,5,42,127,2567399020
81,24,14,Improv_Melody,110,5,42,110,2567898504
81,24,14,Improv_Melody,111,1,38,127,2568309820
81,24,14,Improv_Melody,112,5,42,110,2568399188
81,24,14,Improv_Melody,113,5,42,110,2568899120
81,24,14,Improv_Melody,114,1,48,127,2569291660
81,24,14,Improv_Melody,115,2,43,80,2569401252
81,24,14,Improv_Melody,116,2,67,80,2569403480
81,24,14,Improv_Melody,117,5,42,127,2569406016
81,24,14,Improv_Melody,118,5,42,110,2569899356
81,24,14,Improv_Melody,119,1,38,103,2570351084
81,24,14,Improv_Melody,120,5,42,110,2570399068
81,24,14,Improv_Melody,121,5,42,110,2570899072
81,24,14,Improv_Melody,122,1,38,127,2571335696
81,24,14,Improv_Melody,123,5,42,127,2571398492
81,24,14,Improv_Melody,124,5,42,110,2571899168
81,24,14,Improv_Melody,125,1,38,127,2572315072
81,24,14,Improv_Melody,126,5,42,110,2572399180
81,24,14,Improv_Melody,127,5,42,110,2572898964
81,24,14,Improv_Melody,128,1,48,92,2573325112
81,24,14,Improv_Melody,129,2,45,80,2573401852
81,24,14,Improv_Melody,130,2,69,80,2573403932
81,24,14,Improv_Melody,131,5,42,127,2573406400
81,24,14,Improv_Melody,132,5,42,110,2573899076
81,24,14,Improv_Melody,133,1,38,97,2574377732
81,24,14,Improv_Melody,134,5,42,110,2574399012
81,24,14,Improv_Melody,135,5,42,110,2574898496
81,24,14,Improv_Melody,136,1,38,105,2575275332
81,24,14,Improv_Melody,137,5,42,127,2575399168
81,24,14,Improv_Melody,138,5,42,110,2575899040
81,24,14,Improv_Melody,139,1,38,127,2576334316
81,24,14,Improv_Melody,140,5,42,110,2576398980
81,24,14,Improv_Melody,141,5,42,110,2576898316
81,24,14,Improv_Melody,142,1,48,127,2577384976
81,24,14,Improv_Melody,143,2,41,80,2577401660
81,24,14,Improv_Melody,144,2,65,80,2577403808
81,24,14,Improv_Melody,145,5,42,127,2577406124
81,24,14,Improv_Melody,146,5,42,110,2577898948
81,24,14,Improv_Melody,147,5,42,110,2578398744
81,24,14,Improv_Melody,148,1,38,92,2578407772
81,24,14,Improv_Melody,149,1,48,127,2578897292
81,24,14,Improv_Melody,150,5,42,110,2578899260
81,24,14,Improv_Melody,151,5,42,127,2579399116
81,24,14,Improv_Melody,152,1,38,100,2579411584
81,24,14,Improv_Melody,153,5,42,110,2579899116
81,24,14,Improv_Melody,154,1,48,127,2579905080
81,24,14,Improv_Melody,155,1,38,88,2580367928
81,24,14,Improv_Melody,156,1,48,20,2580377332
81,24,14,Improv_Melody,157,5,42,110,2580398864
81,24,14,Improv_Melody,158,1,38,104,2580876256
81,24,14,Improv_Melody,159,5,42,110,2580899112
81,24,14,Improv_Melody,160,1,38,97,2581142644
81,24,14,Improv_Melody,161,2,48,80,2581401680
81,24,14,Improv_Melody,162,2,72,80,2581403600
81,24,14,Improv_Melody,163,1,48,125,2581404868
81,24,14,Improv_Melody,164,5,42,127,2581407552
81,24,14,Improv_Melody,165,5,42,110,2581898808
81,24,14,Improv_Melody,166,1,48,127,2581935612
81,24,14,Improv_Melody,167,5,42,110,2582399556
81,24,14,Improv_Melody,168,1,48,122,2582873800
81,24,14,Improv_Melody,169,5,42,110,2582898972
81,24,14,Improv_Melody,170,5,42,127,2583398756
81,24,14,Improv_Melody,171,5,42,110,2583898624
81,24,14,Improv_Melody,172,1,48,127,2583899592
81,24,14,Improv_Melody,173,1,48,14,2584377492
81,24,14,Improv_Melody,174,5,42,110,2584399216
81,24,14,Improv_Melody,175,5,42,110,2584898852
81,24,14,Improv_Melody,176,1,48,127,2584903988
81,24,14,Improv_Melody,177,2,43,80,2585401204
81,24,14,Improv_Melody,178,2,67,80,2585403352
81,24,14,Improv_Melody,179,5,42,127,2585405964
81,24,14,Improv_Melody,180,1,38,127,2585858448
81,24,14,Improv_Melody,181,5,42,110,2585899472
81,24,14,Improv_Melody,182,5,42,110,2586398956
81,24,14,Improv_Melody,183,5,42,110,2586898824
81,24,14,Improv_Melody,184,1,38,127,2586913316
81,24,14,Improv_Melody,185,5,42,127,2587398452
81,24,14,Improv_Melody,186,1,38,127,2587876812
81,24,14,Improv_Melody,187,5,42,110,2587899216
81,24,14,Improv_Melody,188,5,42,110,2588398848
81,24,14,Improv_Melody,189,1,38,127,2588869572
81,24,14,Improv_Melody,190,5,42,110,2588898712
81,24,14,Improv_Melody,191,2,45,80,2589401816
81,24,14,Improv_Melody,192,2,69,80,2589403968
81,24,14,Improv_Melody,193,5,42,127,2589406584
81,24,14,Improv_Melody,194,1,48,115,2589794560
81,24,14,Improv_Melody,195,5,42,110,2589899028
81,24,14,Improv_Melody,196,5,42,110,2590398824
81,24,14,Improv_Melody,197,1,48,127,2590782912
81,24,14,Improv_Melody,198,5,42,110,2590898448
81,24,14,Improv_Melody,199,1,48,29,2591326964
81,24,14,Improv_Melody,200,5,42,127,2591399408
81,24,14,Improv_Melody,201,1,48,115,2591873492
81,24,14,Improv_Melody,202,5,42,110,2591899108
81,24,14,Improv_Melody,203,5,42,110,2592398592
81,24,14,Improv_Melody,204,5,42,110,2592898464
81,24,14,Improv_Melody,205,1,48,113,2592933900
81,24,14,Improv_Melody,206,2,41,80,2593401636
81,24,14,Improv_Melody,207,2,65,80,2593403944
81,24,14,Improv_Melody,208,5,42,127,2593406628
81,24,14,Improv_Melody,209,5,42,110,2593898720
81,24,14,Improv_Melody,210,1,38,127,2593900808
81,24,14,Improv_Melody,211,5,42,110,2594398572
81,24,14,Improv_Melody,212,1,38,79,2594875584
81,24,14,Improv_Melody,213,5,42,110,2594899480
81,24,14,Improv_Melody,214,5,42,127,2595399116
81,24,14,Improv_Melody,215,1,38,127,2595831996
81,24,14,Improv_Melody,216,5,42,110,2595898828
81,24,14,Improv_Melody,217,1,38,18,2596339472
81,24,14,Improv_Melody,218,5,42,110,2596398452
81,24,14,Improv_Melody,219,1,38,127,2596851364
81,24,14,Improv_Melody,220,5,42,110,2596899424
81,24,14,Improv_Melody,221,2,48,80,2597401336
81,24,14,Improv_Melody,222,2,72,80,2597403340
81,24,14,Improv_Melody,223,5,42,127,2597406176
81,24,14,Improv_Melody,224,1,38,127,2597881320
81,24,14,Improv_Melody,225,5,42,110,2597898488
81,24,14,Improv_Melody,226,1,38,114,2598337788
81,24,14,Improv_Melody,227,5,42,110,2598399532
81,24,14,Improv_Melody,228,1,38,95,2598898116
81,24,14,Improv_Melody,229,5,42,110,2598901180
81,24,14,Improv_Melody,230,1,38,101,2599382812
81,24,14,Improv_Melody,231,5,42,127,2599398712
81,24,14,Improv_Melody,232,5,42,110,2599898344
81,24,14,Improv_Melody,233,1,38,124,2599903632
81,24,14,Improv_Melody,234,1,38,127,2600396348
81,24,14,Improv_Melody,235,5,42,110,2600399380
81,24,14,Improv_Melody,236,5,42,110,2600899160
81,24,14,Improv_Melody,237,1,38,113,2600903704
81,24,14,Improv_Melody,238,1,38,111,2601400688
81,24,14,Improv_Melody,239,2,43,80,2601403904
81,24,14,Improv_Melody,240,2,67,80,2601405908
81,24,14,Improv_Melody,241,5,42,127,2601408520
81,24,14,Improv_Melody,242,5,42,110,2601899472
81,24,14,Improv_Melody,243,1,48,127,2601914488
81,24,14,Improv_Melody,244,5,42,110,2602399372
81,24,14,Improv_Melody,245,1,48,127,2602417404
81,24,14,Improv_Melody,246,5,42,110,2602898696
81,24,14,Improv_Melody,247,1,48,126,2602913484
81,24,14,Improv_Melody,248,1,48,61,2603336720
81,24,14,Improv_Melody,249,5,42,127,2603398392
81,24,14,Improv_Melody,250,1,48,117,2603869176
81,24,14,Improv_Melody,251,5,42,110,2603899360
81,24,14,Improv_Melody,252,1,38,120,2604364612
81,24,14,Improv_Melody,253,5,42,110,2604399208
81,24,14,Improv_Melody,254,1,48,127,2604881372
81,24,14,Improv_Melody,255,5,42,110,2604898540
81,24,14,Improv_Melody,256,1,38,127,2605375308
81,24,14,Improv_Melody,257,2,45,80,2605401784
81,24,14,Improv_Melody,258,2,69,80,2605404088
81,24,14,Improv_Melody,259,5,42,127,2605406628
81,24,14,Improv_Melody,260,5,42,110,2605899228
81,24,14,Improv_Melody,261,1,48,127,2605916032
81,24,14,Improv_Melody,262,1,38,78,2606392148
81,24,14,Improv_Melody,263,5,42,110,2606398996
81,24,14,Improv_Melody,264,1,48,104,2606886168
81,24,14,Improv_Melody,265,5,42,110,2606898472
81,24,14,Improv_Melody,266,1,38,97,2607393872
81,24,14,Improv_Melody,267,5,42,127,2607399220
81,24,14,Improv_Melody,268,5,42,110,2607898928
81,24,14,Improv_Melody,269,1,48,127,2607927628
81,24,14,Improv_Melody,270,5,42,110,2608398996
81,24,14,Improv_Melody,271,1,38,127,2608408400
81,24,14,Improv_Melody,272,5,42,110,2608898400
81,24,14,Improv_Melody,273,1,48,93,2608952684
81,24,14,Improv_Melody,274,2,41,80,2609401804
81,24,14,Improv_Melody,275,2,65,80,2609403956
81,24,14,Improv_Melody,276,5,42,127,2609406416
81,24,14,Improv_Melody,277,1,38,127,2609414472
81,24,14,Improv_Melody,278,5,42,110,2609899012
81,24,14,Improv_Melody,279,1,48,127,2609935264
81,24,14,Improv_Melody,280,5,42,110,2610398488
81,24,14,Improv_Melody,281,1,38,123,2610423372
81,24,14,Improv_Melody,282,5,42,110,2610899236
81,24,14,Improv_Melody,283,1,48,117,2610904820
81,24,14,Improv_Melody,284,1,38,117,2611396196
81,24,14,Improv_Melody,285,5,42,127,2611398928
81,24,14,Improv_Melody,286,1,48,121,2611883628
81,24,14,Improv_Melody,287,5,42,110,2611898852
81,24,14,Improv_Melody,288,5,42,110,2612398408
81,24,14,Improv_Melody,289,1,38,127,2612443860
81,24,14,Improv_Melody,290,1,38,127,2612887716
81,24,14,Improv_Melody,291,5,42,110,2612899124
81,24,14,Improv_Melody,292,1,38,100,2613203340
81,24,14,Improv_Melody,293,2,48,80,2613401464
81,24,14,Improv_Melody,294,2,72,80,2613403840
81,24,14,Improv_Melody,295,5,42,127,2613406372
81,24,14,Improv_Melody,296,1,38,112,2613450888
81,24,14,Improv_Melody,297,1,38,79,2613898220
81,24,14,Improv_Melody,298,5,42,110,2613900536
81,24,14,Improv_Melody,0,9999,9999,9999,2533396568
81,24,14,Improv_Melody,1,9999,9999,9999,2533896256
81,24,14,Improv_Melody,2,9999,9999,9999,2534397024
81,24,14,Improv_Melody,3,9999,9999,9999,2534896744
81,24,14,Improv_Melody,4,9999,9999,9999,2535396468
81,24,14,Improv_Melody,5,9999,9999,9999,2535896116
81,24,14,Improv_Melody,6,9999,9999,9999,2536396884
81,24,14,Improv_Melody,7,9999,9999,9999,2536896608
81,24,14,Improv_Melody,8,9999,9999,9999,2537396328
81,24,14,Improv_Melody,9,9999,9999,9999,2537897012
81,24,14,Improv_Melody,10,9999,9999,9999,2538396732
81,24,14,Improv_Melody,11,9999,9999,9999,2538896452
81,24,14,Improv_Melody,12,9999,9999,9999,2539396176
81,24,14,Improv_Melody,13,9999,9999,9999,2539896944
81,24,14,Improv_Melody,14,9999,9999,9999,2540396592
81,24,14,Improv_Melody,15,9999,9999,9999,2540896312
81,24,14,Improv_Melody,16,9999,9999,9999,2541397080
81,24,14,Improv_Melody,17,9999,9999,9999,2541896816
81,24,14,Improv_Melody,18,9999,9999,9999,2542396464
81,24,14,Improv_Melody,19,9999,9999,9999,2542896188
81,24,14,Improv_Melody,20,9999,9999,9999,2543396956
81,24,14,Improv_Melody,21,9999,9999,9999,2543896680
81,24,14,Improv_Melody,22,9999,9999,9999,2544396400
81,24,14,Improv_Melody,23,9999,9999,9999,2544896124
81,24,14,Improv_Melody,24,9999,9999,9999,2545396816
81,24,14,Improv_Melody,25,9999,9999,9999,2545896552
81,24,14,Improv_Melody,26,9999,9999,9999,2546396272
81,24,14,Improv_Melody,27,9999,9999,9999,2546896968
81,24,14,Improv_Melody,28,9999,9999,9999,2547396688
81,24,14,Improv_Melody,29,9999,9999,9999,2547896412
81,24,14,Improv_Melody,30,9999,9999,9999,2548396108
81,24,14,Improv_Melody,31,9999,9999,9999,2548896880
81,24,14,Improv_Melody,32,9999,9999,9999,2549396600
81,24,14,Improv_Melody,33,9999,9999,9999,2549896312
81,24,14,Improv_Melody,34,9999,9999,9999,2550397000
81,24,14,Improv_Melody,35,9999,9999,9999,2550896704
81,24,14,Improv_Melody,36,9999,9999,9999,2551396420
81,24,14,Improv_Melody,37,9999,9999,9999,2551896128
81,24,14,Improv_Melody,38,9999,9999,9999,2552396888
81,24,14,Improv_Melody,39,9999,9999,9999,2552896596
81,24,14,Improv_Melody,40,9999,9999,9999,2553396312
81,24,14,Improv_Melody,41,9999,9999,9999,2553897076
81,24,14,Improv_Melody,42,9999,9999,9999,2554396720
81,24,14,Improv_Melody,43,9999,9999,9999,2554896500
81,24,14,Improv_Melody,44,9999,9999,9999,2555396196
81,24,14,Improv_Melody,45,9999,9999,9999,2555896924
81,24,14,Improv_Melody,46,9999,9999,9999,2556396636
81,24,14,Improv_Melody,47,9999,9999,9999,2556896344
81,24,14,Improv_Melody,48,9999,9999,9999,2557397104
81,24,14,Improv_Melody,49,9999,9999,9999,2557896824
81,24,14,Improv_Melody,50,9999,9999,9999,2558396464
81,24,14,Improv_Melody,51,9999,9999,9999,2558896244
81,24,14,Improv_Melody,52,9999,9999,9999,2559396980
81,24,14,Improv_Melody,53,9999,9999,9999,2559896688
81,24,14,Improv_Melody,54,9999,9999,9999,2560396336
81,24,14,Improv_Melody,55,9999,9999,9999,2560896108
81,24,14,Improv_Melody,56,9999,9999,9999,2561396796
81,24,14,Improv_Melody,57,9999,9999,9999,2561896516
81,24,14,Improv_Melody,58,9999,9999,9999,2562396232
81,24,14,Improv_Melody,59,9999,9999,9999,2562896984
81,24,14,Improv_Melody,60,9999,9999,9999,2563396700
81,24,14,Improv_Melody,61,9999,9999,9999,2563896400
81,24,14,Improv_Melody,62,9999,9999,9999,2564396084
81,24,14,Improv_Melody,63,9999,9999,9999,2564896832
81,24,14,Improv_Melody,64,9999,9999,9999,2565396528
81,24,14,Improv_Melody,65,9999,9999,9999,2565896244
81,24,14,Improv_Melody,66,9999,9999,9999,2566397012
81,24,14,Improv_Melody,67,9999,9999,9999,2566896712
81,24,14,Improv_Melody,68,9999,9999,9999,2567396428
81,24,14,Improv_Melody,69,9999,9999,9999,2567896136
81,24,14,Improv_Melody,70,9999,9999,9999,2568396896
81,24,14,Improv_Melody,71,9999,9999,9999,2568896604
81,24,14,Improv_Melody,72,9999,9999,9999,2569396304
81,24,14,Improv_Melody,73,9999,9999,9999,2569897060
81,24,14,Improv_Melody,74,9999,9999,9999,2570396776
81,24,14,Improv_Melody,75,9999,9999,9999,2570896480
81,24,14,Improv_Melody,76,9999,9999,9999,2571396196
81,24,14,Improv_Melody,77,9999,9999,9999,2571896952
81,24,14,Improv_Melody,78,9999,9999,9999,2572396592
81,24,14,Improv_Melody,79,9999,9999,9999,2572896372
81,24,14,Improv_Melody,80,9999,9999,9999,2573397060
81,24,14,Improv_Melody,81,9999,9999,9999,2573896780
81,24,14,Improv_Melody,82,9999,9999,9999,2574396496
81,24,14,Improv_Melody,83,9999,9999,9999,2574896204
81,24,14,Improv_Melody,84,9999,9999,9999,2575396952
81,24,14,Improv_Melody,85,9999,9999,9999,2575896676
81,24,14,Improv_Melody,86,9999,9999,9999,2576396392
81,24,14,Improv_Melody,87,9999,9999,9999,2576896100
81,24,14,Improv_Melody,88,9999,9999,9999,2577396784
81,24,14,Improv_Melody,89,9999,9999,9999,2577896504
81,24,14,Improv_Melody,90,9999,9999,9999,2578396228
81,24,14,Improv_Melody,91,9999,9999,9999,2578897004
81,24,14,Improv_Melody,92,9999,9999,9999,2579396672
81,24,14,Improv_Melody,93,9999,9999,9999,2579896376
81,24,14,Improv_Melody,94,9999,9999,9999,2580396124
81,24,14,Improv_Melody,95,9999,9999,9999,2580896820
81,24,14,Improv_Melody,96,9999,9999,9999,2581396580
81,24,14,Improv_Melody,97,9999,9999,9999,2581896292
81,24,14,Improv_Melody,98,9999,9999,9999,2582397040
81,24,14,Improv_Melody,99,9999,9999,9999,2582896756
81,24,14,Improv_Melody,100,9999,9999,9999,2583396460
81,24,14,Improv_Melody,101,9999,9999,9999,2583896184
81,24,14,Improv_Melody,102,9999,9999,9999,2584396852
81,24,14,Improv_Melody,103,9999,9999,9999,2584896632
81,24,14,Improv_Melody,104,9999,9999,9999,2585396332
81,24,14,Improv_Melody,105,9999,9999,9999,2585897032
81,24,14,Improv_Melody,106,9999,9999,9999,2586396736
81,24,14,Improv_Melody,107,9999,9999,9999,2586896460
81,24,14,Improv_Melody,108,9999,9999,9999,2587396160
81,24,14,Improv_Melody,109,9999,9999,9999,2587896924
81,24,14,Improv_Melody,110,9999,9999,9999,2588396628
81,24,14,Improv_Melody,111,9999,9999,9999,2588896344
81,24,14,Improv_Melody,112,9999,9999,9999,2589397096
81,24,14,Improv_Melody,113,9999,9999,9999,2589896808
81,24,14,Improv_Melody,114,9999,9999,9999,2590396532
81,24,14,Improv_Melody,115,9999,9999,9999,2590896232
81,24,14,Improv_Melody,116,9999,9999,9999,2591396968
81,24,14,Improv_Melody,117,9999,9999,9999,2591896668
81,24,14,Improv_Melody,118,9999,9999,9999,2592396376
81,24,14,Improv_Melody,119,9999,9999,9999,2592896096
81,24,14,Improv_Melody,120,9999,9999,9999,2593396844
81,24,14,Improv_Melody,121,9999,9999,9999,2593896504
81,24,14,Improv_Melody,122,9999,9999,9999,2594396280
81,24,14,Improv_Melody,123,9999,9999,9999,2594896964
81,24,14,Improv_Melody,124,9999,9999,9999,2595396672
81,24,14,Improv_Melody,125,9999,9999,9999,2595896388
81,24,14,Improv_Melody,126,9999,9999,9999,2596396088
81,24,14,Improv_Melody,127,9999,9999,9999,2596896832
81,24,14,Improv_Melody,128,9999,9999,9999,2597396540
81,24,14,Improv_Melody,129,9999,9999,9999,2597896272
81,24,14,Improv_Melody,130,9999,9999,9999,2598397016
81,24,14,Improv_Melody,131,9999,9999,9999,2598896724
81,24,14,Improv_Melody,132,9999,9999,9999,2599396416
81,24,14,Improv_Melody,133,9999,9999,9999,2599896124
81,24,14,Improv_Melody,134,9999,9999,9999,2600396864
81,24,14,Improv_Melody,135,9999,9999,9999,2600896572
81,24,14,Improv_Melody,136,9999,9999,9999,2601396344
81,24,14,Improv_Melody,137,9999,9999,9999,2601897080
81,24,14,Improv_Melody,138,9999,9999,9999,2602396780
81,24,14,Improv_Melody,139,9999,9999,9999,2602896480
81,24,14,Improv_Melody,140,9999,9999,9999,2603396172
81,24,14,Improv_Melody,141,9999,9999,9999,2603896920
81,24,14,Improv_Melody,142,9999,9999,9999,2604396620
81,24,14,Improv_Melody,143,9999,9999,9999,2604896320
81,24,14,Improv_Melody,144,9999,9999,9999,2605397068
81,24,14,Improv_Melody,145,9999,9999,9999,2605896788
81,24,14,Improv_Melody,146,9999,9999,9999,2606396480
81,24,14,Improv_Melody,147,9999,9999,9999,2606896180
81,24,14,Improv_Melody,148,9999,9999,9999,2607396928
81,24,14,Improv_Melody,149,9999,9999,9999,2607896632
81,24,14,Improv_Melody,150,9999,9999,9999,2608396408
81,24,14,Improv_Melody,151,9999,9999,9999,2608896108
81,24,14,Improv_Melody,152,9999,9999,9999,2609396856
81,24,14,Improv_Melody,153,9999,9999,9999,2609896568
81,24,14,Improv_Melody,154,9999,9999,9999,2610396272
81,24,14,Improv_Melody,155,9999,9999,9999,2610897016
81,24,14,Improv_Melody,156,9999,9999,9999,2611396708
81,24,14,Improv_Melody,157,9999,9999,9999,2611896412
81,24,14,Improv_Melody,158,9999,9999,9999,2612396116
81,24,14,Improv_Melody,159,9999,9999,9999,2612896832
81,24,14,Improv_Melody,160,9999,9999,9999,2613396588
81,24,14,Improv_Melody,161,9999,9999,9999,2613896304
