pid,taskRunCount,taskID,taskName,i,channel,pitch,velocity,microseconds
82,1,0,Ticks_Pract_8,0,5,42,127,253021404
82,1,0,Ticks_Pract_8,1,5,42,127,253822280
82,1,0,Ticks_Pract_8,2,5,42,127,254622184
82,1,0,Ticks_Pract_8,3,5,42,127,255421864
82,1,0,Ticks_Pract_8,4,1,48,32,256198996
82,1,0,Ticks_Pract_8,5,5,42,127,256221464
82,1,0,Ticks_Pract_8,6,1,48,44,256968136
82,1,0,Ticks_Pract_8,7,5,42,127,257022396
82,1,0,Ticks_Pract_8,8,1,48,37,257820856
82,1,0,Ticks_Pract_8,9,5,42,127,257822424
82,1,0,Ticks_Pract_8,10,5,42,127,258621672
82,1,0,Ticks_Pract_8,11,1,48,27,258645432
82,1,0,Ticks_Pract_8,12,1,48,35,259394808
82,1,0,Ticks_Pract_8,13,5,42,127,259421472
82,1,0,Ticks_Pract_8,14,1,48,40,260221656
82,1,0,Ticks_Pract_8,15,5,42,127,260223296
82,1,0,Ticks_Pract_8,16,5,42,127,261022288
82,1,0,Ticks_Pract_8,17,1,48,44,261035952
82,1,0,Ticks_Pract_8,18,1,48,46,261816144
82,1,0,Ticks_Pract_8,19,5,42,127,261821940
82,1,0,Ticks_Pract_8,20,5,42,127,262621684
82,1,0,Ticks_Pract_8,21,1,48,43,262635420
82,1,0,Ticks_Pract_8,22,5,42,127,263422316
82,1,0,Ticks_Pract_8,23,1,48,43,263459468
82,1,0,Ticks_Pract_8,24,5,42,127,264222048
82,1,0,Ticks_Pract_8,25,1,48,49,264252192
82,1,0,Ticks_Pract_8,26,1,48,40,265014512
82,1,0,Ticks_Pract_8,27,5,42,127,265022024
82,1,0,Ticks_Pract_8,28,1,48,43,265807068
82,1,0,Ticks_Pract_8,29,5,42,127,265821684
82,1,0,Ticks_Pract_8,30,5,42,127,266622248
82,1,0,Ticks_Pract_8,31,1,48,46,266631124
82,1,0,Ticks_Pract_8,32,5,42,127,267422128
82,1,0,Ticks_Pract_8,33,1,48,44,267439612
82,1,0,Ticks_Pract_8,34,5,42,127,268222084
82,1,0,Ticks_Pract_8,35,1,48,49,268223052
82,1,0,Ticks_Pract_8,36,5,42,127,269021520
82,1,0,Ticks_Pract_8,37,1,48,48,269051048
82,1,0,Ticks_Pract_8,38,5,42,127,269822228
82,1,0,Ticks_Pract_8,39,1,48,47,269829164
82,1,0,Ticks_Pract_8,40,1,48,29,270607108
82,1,0,Ticks_Pract_8,41,5,42,127,270622028
82,1,0,Ticks_Pract_8,42,5,42,127,271421868
82,1,0,Ticks_Pract_8,43,1,48,52,271427380
82,1,0,Ticks_Pract_8,44,5,42,127,272221900
82,1,0,Ticks_Pract_8,45,1,48,53,272227788
82,1,0,Ticks_Pract_8,46,1,48,51,273017036
82,1,0,Ticks_Pract_8,47,5,42,127,273022300
82,1,0,Ticks_Pract_8,48,5,42,127,273821968
82,1,0,Ticks_Pract_8,49,1,48,54,273854556
82,1,0,Ticks_Pract_8,50,1,48,44,274615148
82,1,0,Ticks_Pract_8,51,5,42,127,274621692
82,1,0,Ticks_Pract_8,52,1,48,49,275417580
82,1,0,Ticks_Pract_8,53,5,42,127,275421796
82,1,0,Ticks_Pract_8,54,5,42,127,276222364
82,1,0,Ticks_Pract_8,55,1,48,42,276262136
82,1,0,Ticks_Pract_8,0,9999,9999,9999,253019188
82,1,0,Ticks_Pract_8,1,9999,9999,9999,253819992
82,1,0,Ticks_Pract_8,2,9999,9999,9999,254619748
82,1,0,Ticks_Pract_8,3,9999,9999,9999,255419504
82,1,0,Ticks_Pract_8,4,9999,9999,9999,256219252
82,1,0,Ticks_Pract_8,5,9999,9999,9999,257019960
82,1,0,Ticks_Pract_8,6,9999,9999,9999,257819696
82,1,0,Ticks_Pract_8,7,9999,9999,9999,258619456
82,1,0,Ticks_Pract_8,8,9999,9999,9999,259419184
82,1,0,Ticks_Pract_8,9,9999,9999,9999,260219968
82,1,0,Ticks_Pract_8,10,9999,9999,9999,261019704
82,1,0,Ticks_Pract_8,11,9999,9999,9999,261819504
82,1,0,Ticks_Pract_8,12,9999,9999,9999,262619244
82,1,0,Ticks_Pract_8,13,9999,9999,9999,263419952
82,1,0,Ticks_Pract_8,14,9999,9999,9999,264219760
82,1,0,Ticks_Pract_8,15,9999,9999,9999,265019440
82,1,0,Ticks_Pract_8,16,9999,9999,9999,265819244
82,1,0,Ticks_Pract_8,17,9999,9999,9999,266619960
82,1,0,Ticks_Pract_8,18,9999,9999,9999,267419764
82,1,0,Ticks_Pract_8,19,9999,9999,9999,268219500
82,1,0,Ticks_Pract_8,20,9999,9999,9999,269019232
82,1,0,Ticks_Pract_8,21,9999,9999,9999,269820012
82,1,0,Ticks_Pract_8,22,9999,9999,9999,270619740
82,1,0,Ticks_Pract_8,23,9999,9999,9999,271419504
82,1,0,Ticks_Pract_8,24,9999,9999,9999,272219236
82,1,0,Ticks_Pract_8,25,9999,9999,9999,273020012
82,1,0,Ticks_Pract_8,26,9999,9999,9999,273819752
82,1,0,Ticks_Pract_8,27,9999,9999,9999,274619480
82,1,0,Ticks_Pract_8,28,9999,9999,9999,275419212
82,1,0,Ticks_Pract_8,29,9999,9999,9999,276220000
82,2,1,Ticks_Pract_5,0,5,42,127,326268524
82,2,1,Ticks_Pract_5,1,5,42,127,326768016
82,2,1,Ticks_Pract_5,2,5,42,127,327267732
82,2,1,Ticks_Pract_5,3,5,42,127,327768644
82,2,1,Ticks_Pract_5,4,5,42,127,328268140
82,2,1,Ticks_Pract_5,5,1,48,61,328323464
82,2,1,Ticks_Pract_5,6,1,48,45,328721164
82,2,1,Ticks_Pract_5,7,5,42,127,328767824
82,2,1,Ticks_Pract_5,8,1,48,60,329266924
82,2,1,Ticks_Pract_5,9,5,42,127,329268492
82,2,1,Ticks_Pract_5,10,1,48,51,329742768
82,2,1,Ticks_Pract_5,11,5,42,127,329768532
82,2,1,Ticks_Pract_5,12,1,48,53,330256296
82,2,1,Ticks_Pract_5,13,5,42,127,330268004
82,2,1,Ticks_Pract_5,14,1,48,50,330758540
82,2,1,Ticks_Pract_5,15,5,42,127,330767700
82,2,1,Ticks_Pract_5,16,1,48,56,331232504
82,2,1,Ticks_Pract_5,17,5,42,127,331267544
82,2,1,Ticks_Pract_5,18,1,48,53,331757404
82,2,1,Ticks_Pract_5,19,5,42,127,331768436
82,2,1,Ticks_Pract_5,20,5,42,127,332267912
82,2,1,Ticks_Pract_5,21,1,48,57,332274396
82,2,1,Ticks_Pract_5,22,1,48,51,332765168
82,2,1,Ticks_Pract_5,23,5,42,127,332767600
82,2,1,Ticks_Pract_5,24,1,48,48,333250060
82,2,1,Ticks_Pract_5,25,5,42,127,333268492
82,2,1,Ticks_Pract_5,26,5,42,127,333768120
82,2,1,Ticks_Pract_5,27,1,48,52,333797868
82,2,1,Ticks_Pract_5,28,5,42,127,334267888
82,2,1,Ticks_Pract_5,29,1,48,47,334270932
82,2,1,Ticks_Pract_5,30,1,48,43,334743980
82,2,1,Ticks_Pract_5,31,5,42,127,334767352
82,2,1,Ticks_Pract_5,32,1,48,53,335250404
82,2,1,Ticks_Pract_5,33,5,42,127,335268392
82,2,1,Ticks_Pract_5,34,1,48,56,335762892
82,2,1,Ticks_Pract_5,35,5,42,127,335767864
82,2,1,Ticks_Pract_5,36,1,48,61,336245528
82,2,1,Ticks_Pract_5,37,5,42,127,336267708
82,2,1,Ticks_Pract_5,38,1,48,52,336765344
82,2,1,Ticks_Pract_5,39,5,42,127,336768448
82,2,1,Ticks_Pract_5,40,5,42,127,337268296
82,2,1,Ticks_Pract_5,41,1,48,54,337272460
82,2,1,Ticks_Pract_5,42,1,48,49,337753216
82,2,1,Ticks_Pract_5,43,5,42,127,337767760
82,2,1,Ticks_Pract_5,44,5,42,127,338267464
82,2,1,Ticks_Pract_5,45,1,48,57,338278956
82,2,1,Ticks_Pract_5,46,5,42,127,338768352
82,2,1,Ticks_Pract_5,47,1,48,56,338788076
82,2,1,Ticks_Pract_5,48,5,42,127,339267896
82,2,1,Ticks_Pract_5,49,1,48,55,339271840
82,2,1,Ticks_Pract_5,50,1,48,52,339759848
82,2,1,Ticks_Pract_5,51,5,42,127,339767588
82,2,1,Ticks_Pract_5,52,1,48,56,340265872
82,2,1,Ticks_Pract_5,53,5,42,127,340268376
82,2,1,Ticks_Pract_5,54,5,42,127,340768300
82,2,1,Ticks_Pract_5,55,1,48,54,340781980
82,2,1,Ticks_Pract_5,56,5,42,127,341267764
82,2,1,Ticks_Pract_5,57,1,48,51,341269928
82,2,1,Ticks_Pract_5,58,1,48,52,341765336
82,2,1,Ticks_Pract_5,59,5,42,127,341767528
82,2,1,Ticks_Pract_5,60,5,42,127,342268128
82,2,1,Ticks_Pract_5,61,1,48,56,342285456
82,2,1,Ticks_Pract_5,62,1,48,57,342764712
82,2,1,Ticks_Pract_5,63,5,42,127,342768040
82,2,1,Ticks_Pract_5,64,1,48,54,343262908
82,2,1,Ticks_Pract_5,65,5,42,127,343267656
82,2,1,Ticks_Pract_5,66,1,48,57,343761480
82,2,1,Ticks_Pract_5,67,5,42,127,343768324
82,2,1,Ticks_Pract_5,68,5,42,127,344268176
82,2,1,Ticks_Pract_5,69,1,48,56,344272416
82,2,1,Ticks_Pract_5,70,5,42,127,344767944
82,2,1,Ticks_Pract_5,71,1,48,49,344786320
82,2,1,Ticks_Pract_5,72,5,42,127,345267416
82,2,1,Ticks_Pract_5,73,1,48,54,345279956
82,2,1,Ticks_Pract_5,74,1,48,53,345766104
82,2,1,Ticks_Pract_5,75,5,42,127,345768372
82,2,1,Ticks_Pract_5,0,9999,9999,9999,326265936
82,2,1,Ticks_Pract_5,1,9999,9999,9999,326765652
82,2,1,Ticks_Pract_5,2,9999,9999,9999,327265368
82,2,1,Ticks_Pract_5,3,9999,9999,9999,327766136
82,2,1,Ticks_Pract_5,4,9999,9999,9999,328265848
82,2,1,Ticks_Pract_5,5,9999,9999,9999,328765536
82,2,1,Ticks_Pract_5,6,9999,9999,9999,329265236
82,2,1,Ticks_Pract_5,7,9999,9999,9999,329765944
82,2,1,Ticks_Pract_5,8,9999,9999,9999,330265716
82,2,1,Ticks_Pract_5,9,9999,9999,9999,330765412
82,2,1,Ticks_Pract_5,10,9999,9999,9999,331265104
82,2,1,Ticks_Pract_5,11,9999,9999,9999,331765848
82,2,1,Ticks_Pract_5,12,9999,9999,9999,332265548
82,2,1,Ticks_Pract_5,13,9999,9999,9999,332765236
82,2,1,Ticks_Pract_5,14,9999,9999,9999,333265980
82,2,1,Ticks_Pract_5,15,9999,9999,9999,333765680
82,2,1,Ticks_Pract_5,16,9999,9999,9999,334265448
82,2,1,Ticks_Pract_5,17,9999,9999,9999,334765140
82,2,1,Ticks_Pract_5,18,9999,9999,9999,335265880
82,2,1,Ticks_Pract_5,19,9999,9999,9999,335765572
82,2,1,Ticks_Pract_5,20,9999,9999,9999,336265268
82,2,1,Ticks_Pract_5,21,9999,9999,9999,336766008
82,2,1,Ticks_Pract_5,22,9999,9999,9999,337265784
82,2,1,Ticks_Pract_5,23,9999,9999,9999,337765472
82,2,1,Ticks_Pract_5,24,9999,9999,9999,338265172
82,2,1,Ticks_Pract_5,25,9999,9999,9999,338765912
82,2,1,Ticks_Pract_5,26,9999,9999,9999,339265608
82,2,1,Ticks_Pract_5,27,9999,9999,9999,339765296
82,2,1,Ticks_Pract_5,28,9999,9999,9999,340266088
82,2,1,Ticks_Pract_5,29,9999,9999,9999,340765788
82,2,1,Ticks_Pract_5,30,9999,9999,9999,341265476
82,2,1,Ticks_Pract_5,31,9999,9999,9999,341765208
82,2,1,Ticks_Pract_5,32,9999,9999,9999,342265912
82,2,1,Ticks_Pract_5,33,9999,9999,9999,342765676
82,2,1,Ticks_Pract_5,34,9999,9999,9999,343265368
82,2,1,Ticks_Pract_5,35,9999,9999,9999,343766112
82,2,1,Ticks_Pract_5,36,9999,9999,9999,344265812
82,2,1,Ticks_Pract_5,37,9999,9999,9999,344765504
82,2,1,Ticks_Pract_5,38,9999,9999,9999,345265200
82,2,1,Ticks_Pract_5,39,9999,9999,9999,345765976
82,3,2,T1_SMS_8,0,5,42,127,426200360
82,3,2,T1_SMS_8,1,1,48,40,426697344
82,3,2,T1_SMS_8,2,5,42,127,427000316
82,3,2,T1_SMS_8,3,5,42,127,427799776
82,3,2,T1_SMS_8,4,1,48,40,427827676
82,3,2,T1_SMS_8,5,5,42,127,428599680
82,3,2,T1_SMS_8,6,1,48,48,428647004
82,3,2,T1_SMS_8,7,1,48,46,429396160
82,3,2,T1_SMS_8,8,5,42,127,429400380
82,3,2,T1_SMS_8,9,1,48,44,430145252
82,3,2,T1_SMS_8,10,5,42,127,430200264
82,3,2,T1_SMS_8,11,1,48,48,430985748
82,3,2,T1_SMS_8,12,5,42,127,430999996
82,3,2,T1_SMS_8,13,5,42,127,431799588
82,3,2,T1_SMS_8,14,1,48,48,431807572
82,3,2,T1_SMS_8,15,5,42,127,432600368
82,3,2,T1_SMS_8,16,1,48,48,432634452
82,3,2,T1_SMS_8,17,5,42,127,433400324
82,3,2,T1_SMS_8,18,1,48,54,433424084
82,3,2,T1_SMS_8,19,5,42,127,434200132
82,3,2,T1_SMS_8,20,1,48,48,434219288
82,3,2,T1_SMS_8,21,5,42,127,434999596
82,3,2,T1_SMS_8,22,1,48,54,435032484
82,3,2,T1_SMS_8,23,5,42,127,435800528
82,3,2,T1_SMS_8,24,1,48,43,435814864
82,3,2,T1_SMS_8,25,5,42,127,436600108
82,3,2,T1_SMS_8,26,1,48,53,436646608
82,3,2,T1_SMS_8,27,1,48,49,437397564
82,3,2,T1_SMS_8,28,5,42,127,437400136
82,3,2,T1_SMS_8,29,5,42,127,438199800
82,3,2,T1_SMS_8,30,1,48,55,438216604
82,3,2,T1_SMS_8,31,5,42,127,439000360
82,3,2,T1_SMS_8,32,1,48,55,439003024
82,3,2,T1_SMS_8,33,5,42,127,439800164
82,3,2,T1_SMS_8,34,1,48,52,439829388
82,3,2,T1_SMS_8,35,5,42,127,440600048
82,3,2,T1_SMS_8,36,1,48,46,440625856
82,3,2,T1_SMS_8,37,5,42,127,441399512
82,3,2,T1_SMS_8,38,1,48,53,441405696
82,3,2,T1_SMS_8,39,5,42,127,442200364
82,3,2,T1_SMS_8,40,1,48,45,442231232
82,3,2,T1_SMS_8,41,5,42,127,443000096
82,3,2,T1_SMS_8,42,1,48,62,443039344
82,3,2,T1_SMS_8,43,1,48,53,443767328
82,3,2,T1_SMS_8,44,5,42,127,443799900
82,3,2,T1_SMS_8,45,1,48,61,444599416
82,3,2,T1_SMS_8,46,5,42,127,444600904
82,3,2,T1_SMS_8,47,1,48,56,445395592
82,3,2,T1_SMS_8,48,5,42,127,445400340
82,3,2,T1_SMS_8,49,1,48,56,446172884
82,3,2,T1_SMS_8,50,5,42,127,446200072
82,3,2,T1_SMS_8,51,1,48,56,446978380
82,3,2,T1_SMS_8,52,5,42,127,446999880
82,3,2,T1_SMS_8,53,5,42,127,447799868
82,3,2,T1_SMS_8,54,1,48,59,447822656
82,3,2,T1_SMS_8,55,5,42,127,448600424
82,3,2,T1_SMS_8,56,1,48,58,448616784
82,3,2,T1_SMS_8,57,5,42,127,449400084
82,3,2,T1_SMS_8,58,1,48,67,449429756
82,3,2,T1_SMS_8,59,5,42,127,450199964
82,3,2,T1_SMS_8,60,1,48,49,450211756
82,3,2,T1_SMS_8,61,5,42,127,450999772
82,3,2,T1_SMS_8,62,1,48,62,451005208
82,3,2,T1_SMS_8,63,1,48,51,451789740
82,3,2,T1_SMS_8,64,5,42,127,451800400
82,3,2,T1_SMS_8,65,1,48,59,452598320
82,3,2,T1_SMS_8,66,5,42,127,452600132
82,3,2,T1_SMS_8,67,1,48,60,453356976
82,3,2,T1_SMS_8,68,5,42,127,453399868
82,3,2,T1_SMS_8,69,5,42,127,454199708
82,3,2,T1_SMS_8,70,1,48,61,454203500
82,3,2,T1_SMS_8,71,5,42,127,455000564
82,3,2,T1_SMS_8,72,1,48,62,455073320
82,3,2,T1_SMS_8,73,5,42,127,455800224
82,3,2,T1_SMS_8,74,1,48,56,455836176
82,3,2,T1_SMS_8,75,5,42,127,456599808
82,3,2,T1_SMS_8,76,1,48,58,456619384
82,3,2,T1_SMS_8,77,5,42,127,457399544
82,3,2,T1_SMS_8,78,1,48,61,457440808
82,3,2,T1_SMS_8,79,5,42,127,458200692
82,3,2,T1_SMS_8,80,1,48,48,458242856
82,3,2,T1_SMS_8,81,5,42,127,459000204
82,3,2,T1_SMS_8,82,1,48,41,459114648
82,3,2,T1_SMS_8,83,5,42,127,459799864
82,3,2,T1_SMS_8,84,1,48,51,459841300
82,3,2,T1_SMS_8,85,1,48,61,460576216
82,3,2,T1_SMS_8,86,5,42,127,460599540
82,3,2,T1_SMS_8,87,1,48,62,461395720
82,3,2,T1_SMS_8,88,5,42,127,461400620
82,3,2,T1_SMS_8,89,1,48,65,462185808
82,3,2,T1_SMS_8,90,5,42,127,462200280
82,3,2,T1_SMS_8,91,1,48,63,462979932
82,3,2,T1_SMS_8,92,5,42,127,462999940
82,3,2,T1_SMS_8,93,5,42,127,463799756
82,3,2,T1_SMS_8,94,1,48,58,463847976
82,3,2,T1_SMS_8,95,5,42,127,464600532
82,3,2,T1_SMS_8,96,1,48,55,464625416
82,3,2,T1_SMS_8,97,5,42,127,465400416
82,3,2,T1_SMS_8,98,1,48,48,465425604
82,3,2,T1_SMS_8,99,5,42,127,466200000
82,3,2,T1_SMS_8,100,1,48,58,466202368
82,3,2,T1_SMS_8,101,1,48,55,466977700
82,3,2,T1_SMS_8,102,5,42,127,466999604
82,3,2,T1_SMS_8,103,5,42,127,467800464
82,3,2,T1_SMS_8,104,1,48,57,467832232
82,3,2,T1_SMS_8,105,5,42,127,468600496
82,3,2,T1_SMS_8,106,1,48,54,468609376
82,3,2,T1_SMS_8,107,5,42,127,469399932
82,3,2,T1_SMS_8,108,1,48,63,469412624
82,3,2,T1_SMS_8,109,5,42,127,470199592
82,3,2,T1_SMS_8,110,1,48,60,470217072
82,3,2,T1_SMS_8,111,5,42,127,471000444
82,3,2,T1_SMS_8,112,1,48,59,471011344
82,3,2,T1_SMS_8,113,5,42,127,471800476
82,3,2,T1_SMS_8,114,1,48,58,471824468
82,3,2,T1_SMS_8,115,5,42,127,472599836
82,3,2,T1_SMS_8,116,1,48,57,472608192
82,3,2,T1_SMS_8,117,5,42,127,473399596
82,3,2,T1_SMS_8,118,1,48,46,473444452
82,3,2,T1_SMS_8,119,5,42,127,474200376
82,3,2,T1_SMS_8,120,1,48,51,474202388
82,3,2,T1_SMS_8,121,5,42,127,475000260
82,3,2,T1_SMS_8,122,1,48,61,475030080
82,3,2,T1_SMS_8,123,5,42,127,475799844
82,3,2,T1_SMS_8,124,1,48,63,475815228
82,3,2,T1_SMS_8,125,1,48,29,476598896
82,3,2,T1_SMS_8,126,5,42,127,476600468
82,3,2,T1_SMS_8,127,1,38,13,476611288
82,3,2,T1_SMS_8,128,5,42,127,477400472
82,3,2,T1_SMS_8,129,1,48,61,477441140
82,3,2,T1_SMS_8,130,5,42,127,478200056
82,3,2,T1_SMS_8,131,1,48,49,478215136
82,3,2,T1_SMS_8,132,5,42,127,479000160
82,3,2,T1_SMS_8,133,1,48,50,479026196
82,3,2,T1_SMS_8,134,5,42,127,479799620
82,3,2,T1_SMS_8,135,1,48,54,479846872
82,3,2,T1_SMS_8,136,1,48,51,480555108
82,3,2,T1_SMS_8,137,5,42,127,480600468
82,3,2,T1_SMS_8,138,1,48,61,481376908
82,3,2,T1_SMS_8,139,5,42,127,481400128
82,3,2,T1_SMS_8,140,5,42,127,482200016
82,3,2,T1_SMS_8,141,1,48,66,482207028
82,3,2,T1_SMS_8,142,5,42,127,482999600
82,3,2,T1_SMS_8,143,1,48,58,483038920
82,3,2,T1_SMS_8,144,1,48,57,483793680
82,3,2,T1_SMS_8,145,5,42,127,483800300
82,3,2,T1_SMS_8,146,5,42,127,484600112
82,3,2,T1_SMS_8,147,1,48,61,484633900
82,3,2,T1_SMS_8,148,1,48,62,485384324
82,3,2,T1_SMS_8,149,5,42,127,485399840
82,3,2,T1_SMS_8,150,1,48,62,486181912
82,3,2,T1_SMS_8,151,5,42,127,486199524
82,3,2,T1_SMS_8,152,1,48,33,486985308
82,3,2,T1_SMS_8,153,5,42,127,487000380
82,3,2,T1_SMS_8,154,5,42,127,487800192
82,3,2,T1_SMS_8,155,1,48,54,487807652
82,3,2,T1_SMS_8,156,5,42,127,488599852
82,3,2,T1_SMS_8,157,1,48,52,488628100
82,3,2,T1_SMS_8,158,5,42,127,489399736
82,3,2,T1_SMS_8,159,1,48,52,489448032
82,3,2,T1_SMS_8,160,5,42,127,490200516
82,3,2,T1_SMS_8,161,1,48,49,490233252
82,3,2,T1_SMS_8,162,1,48,56,490924140
82,3,2,T1_SMS_8,163,5,42,127,491000316
82,3,2,T1_SMS_8,164,5,42,127,491799908
82,3,2,T1_SMS_8,165,1,48,56,491805268
82,3,2,T1_SMS_8,166,5,42,127,492599740
82,3,2,T1_SMS_8,167,1,48,56,492606600
82,3,2,T1_SMS_8,168,5,42,127,493400372
82,3,2,T1_SMS_8,169,1,48,66,493416732
82,3,2,T1_SMS_8,170,5,42,127,494200104
82,3,2,T1_SMS_8,171,1,48,56,494211228
82,3,2,T1_SMS_8,172,5,42,127,494999840
82,3,2,T1_SMS_8,173,1,48,49,495004376
82,3,2,T1_SMS_8,174,1,48,61,495798060
82,3,2,T1_SMS_8,175,5,42,127,495799792
82,3,2,T1_SMS_8,176,5,42,127,496600352
82,3,2,T1_SMS_8,177,1,48,62,496604444
82,3,2,T1_SMS_8,178,5,42,127,497400164
82,3,2,T1_SMS_8,179,1,48,59,497410612
82,3,2,T1_SMS_8,180,5,42,127,498199896
82,3,2,T1_SMS_8,181,1,48,67,498213288
82,3,2,T1_SMS_8,182,5,42,127,498999732
82,3,2,T1_SMS_8,183,1,48,62,499089912
82,3,2,T1_SMS_8,184,5,42,127,499800364
82,3,2,T1_SMS_8,185,1,48,59,499820456
82,3,2,T1_SMS_8,186,5,42,127,500600168
82,3,2,T1_SMS_8,187,1,48,55,500633956
82,3,2,T1_SMS_8,188,1,48,52,501399904
82,3,2,T1_SMS_8,189,5,42,127,501401316
82,3,2,T1_SMS_8,190,5,42,127,502199860
82,3,2,T1_SMS_8,191,1,48,53,502211500
82,3,2,T1_SMS_8,192,5,42,127,503000564
82,3,2,T1_SMS_8,193,1,48,55,503022308
82,3,2,T1_SMS_8,194,5,42,127,503800076
82,3,2,T1_SMS_8,195,1,48,46,503840220
82,3,2,T1_SMS_8,196,5,42,127,504600104
82,3,2,T1_SMS_8,197,1,48,57,504635036
82,3,2,T1_SMS_8,198,5,42,127,505399864
82,3,2,T1_SMS_8,199,1,48,54,505402684
82,3,2,T1_SMS_8,200,1,48,54,506186168
82,3,2,T1_SMS_8,201,5,42,127,506200492
82,3,2,T1_SMS_8,202,5,42,127,507000084
82,3,2,T1_SMS_8,203,1,48,51,507035064
82,3,2,T1_SMS_8,204,5,42,127,507799892
82,3,2,T1_SMS_8,205,1,48,57,507801680
82,3,2,T1_SMS_8,206,1,48,59,508558524
82,3,2,T1_SMS_8,207,5,42,127,508599764
82,3,2,T1_SMS_8,208,1,48,53,509382632
82,3,2,T1_SMS_8,209,5,42,127,509400548
82,3,2,T1_SMS_8,210,5,42,127,510200064
82,3,2,T1_SMS_8,211,1,48,50,510230260
82,3,2,T1_SMS_8,212,5,42,127,510999800
82,3,2,T1_SMS_8,213,1,48,48,511018204
82,3,2,T1_SMS_8,214,5,42,127,511799780
82,3,2,T1_SMS_8,215,1,48,44,511806868
82,3,2,T1_SMS_8,216,5,42,127,512600484
82,3,2,T1_SMS_8,217,1,48,51,512617596
82,3,2,T1_SMS_8,218,1,48,54,513382372
82,3,2,T1_SMS_8,219,5,42,127,513400212
82,3,2,T1_SMS_8,220,5,42,127,514199880
82,3,2,T1_SMS_8,221,1,48,49,514265452
82,3,2,T1_SMS_8,222,5,42,127,514999536
82,3,2,T1_SMS_8,223,1,48,45,515040800
82,3,2,T1_SMS_8,224,5,42,127,515800392
82,3,2,T1_SMS_8,225,1,48,47,515835668
82,3,2,T1_SMS_8,226,5,42,127,516600196
82,3,2,T1_SMS_8,227,1,48,49,516620372
82,3,2,T1_SMS_8,228,5,42,127,517399856
82,3,2,T1_SMS_8,229,1,48,43,517411352
82,3,2,T1_SMS_8,230,1,48,52,518187732
82,3,2,T1_SMS_8,231,5,42,127,518199508
82,3,2,T1_SMS_8,232,1,48,47,518961736
82,3,2,T1_SMS_8,233,5,42,127,519000440
82,3,2,T1_SMS_8,234,5,42,127,519800252
82,3,2,T1_SMS_8,235,1,48,56,519816084
82,3,2,T1_SMS_8,236,5,42,127,520599840
82,3,2,T1_SMS_8,237,1,48,57,520610436
82,3,2,T1_SMS_8,238,5,42,127,521399648
82,3,2,T1_SMS_8,239,1,48,52,521404332
82,3,2,T1_SMS_8,0,9999,9999,9999,426198072
82,3,2,T1_SMS_8,1,9999,9999,9999,426997808
82,3,2,T1_SMS_8,2,9999,9999,9999,427797560
82,3,2,T1_SMS_8,3,9999,9999,9999,428597320
82,3,2,T1_SMS_8,4,9999,9999,9999,429398092
82,3,2,T1_SMS_8,5,9999,9999,9999,430197828
82,3,2,T1_SMS_8,6,9999,9999,9999,430997560
82,3,2,T1_SMS_8,7,9999,9999,9999,431797300
82,3,2,T1_SMS_8,8,9999,9999,9999,432598080
82,3,2,T1_SMS_8,9,9999,9999,9999,433397812
82,3,2,T1_SMS_8,10,9999,9999,9999,434197620
82,3,2,T1_SMS_8,11,9999,9999,9999,434997308
82,3,2,T1_SMS_8,12,9999,9999,9999,435798088
82,3,2,T1_SMS_8,13,9999,9999,9999,436597820
82,3,2,T1_SMS_8,14,9999,9999,9999,437397624
82,3,2,T1_SMS_8,15,9999,9999,9999,438197364
82,3,2,T1_SMS_8,16,9999,9999,9999,438998068
82,3,2,T1_SMS_8,17,9999,9999,9999,439797876
82,3,2,T1_SMS_8,18,9999,9999,9999,440597612
82,3,2,T1_SMS_8,19,9999,9999,9999,441397296
82,3,2,T1_SMS_8,20,9999,9999,9999,442198076
82,3,2,T1_SMS_8,21,9999,9999,9999,442997808
82,3,2,T1_SMS_8,22,9999,9999,9999,443797612
82,3,2,T1_SMS_8,23,9999,9999,9999,444597352
82,3,2,T1_SMS_8,24,9999,9999,9999,445398128
82,3,2,T1_SMS_8,25,9999,9999,9999,446197860
82,3,2,T1_SMS_8,26,9999,9999,9999,446997592
82,3,2,T1_SMS_8,27,9999,9999,9999,447797356
82,3,2,T1_SMS_8,28,9999,9999,9999,448598136
82,3,2,T1_SMS_8,29,9999,9999,9999,449397868
82,3,2,T1_SMS_8,30,9999,9999,9999,450197600
82,3,2,T1_SMS_8,31,9999,9999,9999,450997336
82,3,2,T1_SMS_8,32,9999,9999,9999,451798112
82,3,2,T1_SMS_8,33,9999,9999,9999,452597868
82,3,2,T1_SMS_8,34,9999,9999,9999,453397580
82,3,2,T1_SMS_8,35,9999,9999,9999,454197344
82,3,2,T1_SMS_8,36,9999,9999,9999,454998128
82,3,2,T1_SMS_8,37,9999,9999,9999,455797860
82,3,2,T1_SMS_8,38,9999,9999,9999,456597596
82,3,2,T1_SMS_8,39,9999,9999,9999,457397328
82,3,2,T1_SMS_8,40,9999,9999,9999,458198108
82,3,2,T1_SMS_8,41,9999,9999,9999,458997844
82,3,2,T1_SMS_8,42,9999,9999,9999,459797576
82,3,2,T1_SMS_8,43,9999,9999,9999,460597328
82,3,2,T1_SMS_8,44,9999,9999,9999,461398108
82,3,2,T1_SMS_8,45,9999,9999,9999,462197844
82,3,2,T1_SMS_8,46,9999,9999,9999,462997576
82,3,2,T1_SMS_8,47,9999,9999,9999,463797316
82,3,2,T1_SMS_8,48,9999,9999,9999,464598096
82,3,2,T1_SMS_8,49,9999,9999,9999,465397832
82,3,2,T1_SMS_8,50,9999,9999,9999,466197564
82,3,2,T1_SMS_8,51,9999,9999,9999,466997316
82,3,2,T1_SMS_8,52,9999,9999,9999,467798104
82,3,2,T1_SMS_8,53,9999,9999,9999,468597836
82,3,2,T1_SMS_8,54,9999,9999,9999,469397568
82,3,2,T1_SMS_8,55,9999,9999,9999,470197304
82,3,2,T1_SMS_8,56,9999,9999,9999,470998084
82,3,2,T1_SMS_8,57,9999,9999,9999,471797816
82,3,2,T1_SMS_8,58,9999,9999,9999,472597548
82,3,2,T1_SMS_8,59,9999,9999,9999,473397308
82,3,2,T1_SMS_8,60,9999,9999,9999,474198088
82,3,2,T1_SMS_8,61,9999,9999,9999,474997820
82,3,2,T1_SMS_8,62,9999,9999,9999,475797556
82,3,2,T1_SMS_8,63,9999,9999,9999,476597364
82,3,2,T1_SMS_8,64,9999,9999,9999,477398112
82,3,2,T1_SMS_8,65,9999,9999,9999,478197844
82,3,2,T1_SMS_8,66,9999,9999,9999,478997576
82,3,2,T1_SMS_8,67,9999,9999,9999,479797332
82,3,2,T1_SMS_8,68,9999,9999,9999,480598108
82,3,2,T1_SMS_8,69,9999,9999,9999,481397840
82,3,2,T1_SMS_8,70,9999,9999,9999,482197580
82,3,2,T1_SMS_8,71,9999,9999,9999,482997312
82,3,2,T1_SMS_8,72,9999,9999,9999,483798088
82,3,2,T1_SMS_8,73,9999,9999,9999,484597824
82,3,2,T1_SMS_8,74,9999,9999,9999,485397552
82,3,2,T1_SMS_8,75,9999,9999,9999,486197308
82,3,2,T1_SMS_8,76,9999,9999,9999,486998092
82,3,2,T1_SMS_8,77,9999,9999,9999,487797832
82,3,2,T1_SMS_8,78,9999,9999,9999,488597564
82,3,2,T1_SMS_8,79,9999,9999,9999,489397296
82,3,2,T1_SMS_8,80,9999,9999,9999,490198076
82,3,2,T1_SMS_8,81,9999,9999,9999,490997880
82,3,2,T1_SMS_8,82,9999,9999,9999,491797620
82,3,2,T1_SMS_8,83,9999,9999,9999,492597304
82,3,2,T1_SMS_8,84,9999,9999,9999,493398084
82,3,2,T1_SMS_8,85,9999,9999,9999,494197816
82,3,2,T1_SMS_8,86,9999,9999,9999,494997552
82,3,2,T1_SMS_8,87,9999,9999,9999,495797364
82,3,2,T1_SMS_8,88,9999,9999,9999,496598064
82,3,2,T1_SMS_8,89,9999,9999,9999,497397876
82,3,2,T1_SMS_8,90,9999,9999,9999,498197608
82,3,2,T1_SMS_8,91,9999,9999,9999,498997292
82,3,2,T1_SMS_8,92,9999,9999,9999,499798072
82,3,2,T1_SMS_8,93,9999,9999,9999,500597808
82,3,2,T1_SMS_8,94,9999,9999,9999,501397616
82,3,2,T1_SMS_8,95,9999,9999,9999,502197348
82,3,2,T1_SMS_8,96,9999,9999,9999,502998128
82,3,2,T1_SMS_8,97,9999,9999,9999,503797860
82,3,2,T1_SMS_8,98,9999,9999,9999,504597592
82,3,2,T1_SMS_8,99,9999,9999,9999,505397352
82,3,2,T1_SMS_8,100,9999,9999,9999,506198128
82,3,2,T1_SMS_8,101,9999,9999,9999,506997868
82,3,2,T1_SMS_8,102,9999,9999,9999,507797604
82,3,2,T1_SMS_8,103,9999,9999,9999,508597328
82,3,2,T1_SMS_8,104,9999,9999,9999,509398112
82,3,2,T1_SMS_8,105,9999,9999,9999,510197852
82,3,2,T1_SMS_8,106,9999,9999,9999,510997584
82,3,2,T1_SMS_8,107,9999,9999,9999,511797344
82,3,2,T1_SMS_8,108,9999,9999,9999,512598124
82,3,2,T1_SMS_8,109,9999,9999,9999,513397848
82,3,2,T1_SMS_8,110,9999,9999,9999,514197588
82,3,2,T1_SMS_8,111,9999,9999,9999,514997324
82,3,2,T1_SMS_8,112,9999,9999,9999,515798104
82,3,2,T1_SMS_8,113,9999,9999,9999,516597836
82,3,2,T1_SMS_8,114,9999,9999,9999,517397568
82,3,2,T1_SMS_8,115,9999,9999,9999,518197296
82,3,2,T1_SMS_8,116,9999,9999,9999,518998076
82,3,2,T1_SMS_8,117,9999,9999,9999,519797816
82,3,2,T1_SMS_8,118,9999,9999,9999,520597552
82,3,2,T1_SMS_8,119,9999,9999,9999,521397360
82,4,4,T1_SMS_5,0,5,42,127,588774892
82,4,4,T1_SMS_5,1,5,42,127,589274680
82,4,4,T1_SMS_5,2,1,48,43,589425928
82,4,4,T1_SMS_5,3,1,48,46,589721832
82,4,4,T1_SMS_5,4,5,42,127,589775196
82,4,4,T1_SMS_5,5,1,48,57,590258328
82,4,4,T1_SMS_5,6,5,42,127,590275036
82,4,4,T1_SMS_5,7,1,48,50,590759968
82,4,4,T1_SMS_5,8,5,42,127,590774804
82,4,4,T1_SMS_5,9,1,48,46,591265872
82,4,4,T1_SMS_5,10,5,42,127,591275400
82,4,4,T1_SMS_5,11,1,48,21,591340740
82,4,4,T1_SMS_5,12,5,42,127,591775080
82,4,4,T1_SMS_5,13,1,48,57,591801688
82,4,4,T1_SMS_5,14,5,42,127,592274928
82,4,4,T1_SMS_5,15,1,48,56,592307892
82,4,4,T1_SMS_5,16,1,48,61,592768524
82,4,4,T1_SMS_5,17,5,42,127,592774688
82,4,4,T1_SMS_5,18,5,42,127,593275364
82,4,4,T1_SMS_5,19,1,48,57,593296360
82,4,4,T1_SMS_5,20,5,42,127,593774988
82,4,4,T1_SMS_5,21,1,48,61,593787680
82,4,4,T1_SMS_5,22,1,48,62,594272172
82,4,4,T1_SMS_5,23,5,42,127,594274824
82,4,4,T1_SMS_5,24,1,48,62,594764988
82,4,4,T1_SMS_5,25,5,42,127,594775344
82,4,4,T1_SMS_5,26,1,48,56,595270668
82,4,4,T1_SMS_5,27,5,42,127,595275112
82,4,4,T1_SMS_5,28,1,48,54,595763628
82,4,4,T1_SMS_5,29,5,42,127,595774804
82,4,4,T1_SMS_5,30,1,48,51,596265788
82,4,4,T1_SMS_5,31,5,42,127,596274948
82,4,4,T1_SMS_5,32,1,48,46,596750876
82,4,4,T1_SMS_5,33,5,42,127,596775316
82,4,4,T1_SMS_5,34,1,48,49,597258648
82,4,4,T1_SMS_5,35,5,42,127,597274988
82,4,4,T1_SMS_5,36,1,48,47,597747644
82,4,4,T1_SMS_5,37,5,42,127,597774680
82,4,4,T1_SMS_5,38,1,48,46,598256464
82,4,4,T1_SMS_5,39,5,42,127,598274748
82,4,4,T1_SMS_5,40,1,48,44,598764536
82,4,4,T1_SMS_5,41,5,42,127,598775044
82,4,4,T1_SMS_5,42,1,48,50,599246356
82,4,4,T1_SMS_5,43,5,42,127,599274812
82,4,4,T1_SMS_5,44,1,48,53,599769836
82,4,4,T1_SMS_5,45,5,42,127,599774728
82,4,4,T1_SMS_5,46,5,42,127,600275256
82,4,4,T1_SMS_5,47,1,48,47,600288244
82,4,4,T1_SMS_5,48,5,42,127,600775100
82,4,4,T1_SMS_5,49,1,48,52,600788392
82,4,4,T1_SMS_5,50,5,42,127,601274644
82,4,4,T1_SMS_5,51,1,48,43,601278740
82,4,4,T1_SMS_5,52,1,48,47,601757620
82,4,4,T1_SMS_5,53,5,42,127,601774556
82,4,4,T1_SMS_5,54,1,48,48,602264044
82,4,4,T1_SMS_5,55,5,42,127,602275300
82,4,4,T1_SMS_5,56,5,42,127,602774852
82,4,4,T1_SMS_5,57,1,48,47,602798988
82,4,4,T1_SMS_5,58,5,42,127,603274472
82,4,4,T1_SMS_5,59,1,48,44,603299804
82,4,4,T1_SMS_5,60,1,48,51,603745628
82,4,4,T1_SMS_5,61,5,42,127,603775356
82,4,4,T1_SMS_5,62,5,42,127,604274908
82,4,4,T1_SMS_5,63,1,48,54,604276468
82,4,4,T1_SMS_5,64,5,42,127,604774752
82,4,4,T1_SMS_5,65,1,48,51,604783332
82,4,4,T1_SMS_5,66,5,42,127,605274524
82,4,4,T1_SMS_5,67,1,48,50,605275560
82,4,4,T1_SMS_5,68,1,48,50,605768492
82,4,4,T1_SMS_5,69,5,42,127,605775256
82,4,4,T1_SMS_5,70,5,42,127,606274884
82,4,4,T1_SMS_5,71,1,48,46,606285036
82,4,4,T1_SMS_5,72,5,42,127,606774504
82,4,4,T1_SMS_5,73,1,48,47,606801484
82,4,4,T1_SMS_5,74,5,42,127,607275320
82,4,4,T1_SMS_5,75,1,48,53,607287344
82,4,4,T1_SMS_5,76,1,48,46,607762460
82,4,4,T1_SMS_5,77,5,42,127,607775228
82,4,4,T1_SMS_5,78,1,48,46,608251456
82,4,4,T1_SMS_5,79,5,42,127,608274752
82,4,4,T1_SMS_5,80,5,42,127,608774456
82,4,4,T1_SMS_5,81,1,48,49,608792308
82,4,4,T1_SMS_5,82,1,48,49,609268800
82,4,4,T1_SMS_5,83,5,42,127,609275408
82,4,4,T1_SMS_5,84,1,48,52,609749344
82,4,4,T1_SMS_5,85,5,42,127,609774884
82,4,4,T1_SMS_5,86,5,42,127,610274660
82,4,4,T1_SMS_5,87,1,48,48,610289000
82,4,4,T1_SMS_5,88,5,42,127,610775324
82,4,4,T1_SMS_5,89,1,48,44,610788472
82,4,4,T1_SMS_5,90,5,42,127,611275464
82,4,4,T1_SMS_5,91,1,48,52,611277036
82,4,4,T1_SMS_5,92,5,42,127,611774788
82,4,4,T1_SMS_5,93,1,48,51,611777532
82,4,4,T1_SMS_5,94,5,42,127,612274408
82,4,4,T1_SMS_5,95,1,48,52,612280220
82,4,4,T1_SMS_5,96,1,48,53,612761272
82,4,4,T1_SMS_5,97,5,42,127,612775516
82,4,4,T1_SMS_5,98,5,42,127,613274920
82,4,4,T1_SMS_5,99,1,48,51,613282228
82,4,4,T1_SMS_5,100,5,42,127,613774764
82,4,4,T1_SMS_5,101,1,48,51,613777960
82,4,4,T1_SMS_5,102,5,42,127,614274312
82,4,4,T1_SMS_5,103,1,48,48,614291192
82,4,4,T1_SMS_5,104,5,42,127,614775424
82,4,4,T1_SMS_5,105,1,48,46,614789320
82,4,4,T1_SMS_5,106,5,42,127,615274972
82,4,4,T1_SMS_5,107,1,48,48,615287588
82,4,4,T1_SMS_5,108,5,42,127,615774516
82,4,4,T1_SMS_5,109,1,48,49,615776000
82,4,4,T1_SMS_5,110,5,42,127,616275332
82,4,4,T1_SMS_5,111,1,48,52,616292216
82,4,4,T1_SMS_5,112,5,42,127,616775180
82,4,4,T1_SMS_5,113,1,48,49,616780992
82,4,4,T1_SMS_5,114,5,42,127,617274648
82,4,4,T1_SMS_5,115,1,48,50,617284052
82,4,4,T1_SMS_5,116,1,48,45,617772064
82,4,4,T1_SMS_5,117,5,42,127,617774412
82,4,4,T1_SMS_5,118,1,48,45,618263500
82,4,4,T1_SMS_5,119,5,42,127,618275304
82,4,4,T1_SMS_5,120,1,48,51,618755568
82,4,4,T1_SMS_5,121,5,42,127,618774748
82,4,4,T1_SMS_5,122,1,48,49,619253316
82,4,4,T1_SMS_5,123,5,42,127,619274520
82,4,4,T1_SMS_5,124,1,48,52,619740144
82,4,4,T1_SMS_5,125,5,42,127,619775408
82,4,4,T1_SMS_5,126,5,42,127,620275260
82,4,4,T1_SMS_5,127,1,48,46,620276152
82,4,4,T1_SMS_5,128,5,42,127,620774660
82,4,4,T1_SMS_5,129,1,48,69,620792064
82,4,4,T1_SMS_5,130,5,42,127,621274428
82,4,4,T1_SMS_5,131,1,48,48,621283532
82,4,4,T1_SMS_5,132,5,42,127,621775168
82,4,4,T1_SMS_5,133,1,48,63,621780976
82,4,4,T1_SMS_5,134,5,42,127,622275084
82,4,4,T1_SMS_5,135,1,48,45,622296608
82,4,4,T1_SMS_5,136,5,42,127,622775004
82,4,4,T1_SMS_5,137,1,48,59,622807596
82,4,4,T1_SMS_5,138,5,42,127,623275372
82,4,4,T1_SMS_5,139,1,48,45,623283208
82,4,4,T1_SMS_5,140,5,42,127,623775140
82,4,4,T1_SMS_5,141,1,48,63,623795836
82,4,4,T1_SMS_5,142,5,42,127,624274984
82,4,4,T1_SMS_5,143,1,48,48,624282968
82,4,4,T1_SMS_5,144,5,42,127,624774532
82,4,4,T1_SMS_5,145,1,48,64,624793808
82,4,4,T1_SMS_5,146,1,48,50,625272316
82,4,4,T1_SMS_5,147,5,42,127,625275268
82,4,4,T1_SMS_5,148,5,42,127,625775120
82,4,4,T1_SMS_5,149,1,48,57,625785716
82,4,4,T1_SMS_5,150,1,48,46,626255252
82,4,4,T1_SMS_5,151,5,42,127,626274732
82,4,4,T1_SMS_5,152,1,48,62,626750232
82,4,4,T1_SMS_5,153,5,42,127,626775400
82,4,4,T1_SMS_5,154,1,48,45,627254792
82,4,4,T1_SMS_5,155,5,42,127,627275020
82,4,4,T1_SMS_5,156,1,48,59,627756136
82,4,4,T1_SMS_5,157,5,42,127,627774940
82,4,4,T1_SMS_5,158,1,48,44,628263456
82,4,4,T1_SMS_5,159,5,42,127,628274560
82,4,4,T1_SMS_5,160,1,48,67,628761328
82,4,4,T1_SMS_5,161,5,42,127,628775152
82,4,4,T1_SMS_5,162,1,48,48,629266936
82,4,4,T1_SMS_5,163,5,42,127,629275048
82,4,4,T1_SMS_5,164,5,42,127,629774824
82,4,4,T1_SMS_5,165,1,48,64,629801976
82,4,4,T1_SMS_5,166,5,42,127,630274444
82,4,4,T1_SMS_5,167,1,48,49,630298136
82,4,4,T1_SMS_5,168,5,42,127,630775112
82,4,4,T1_SMS_5,169,1,48,18,630818052
82,4,4,T1_SMS_5,170,5,42,127,631274956
82,4,4,T1_SMS_5,171,1,48,63,631295872
82,4,4,T1_SMS_5,172,5,42,127,631774576
82,4,4,T1_SMS_5,173,1,48,57,631790336
82,4,4,T1_SMS_5,174,1,48,40,632272732
82,4,4,T1_SMS_5,175,5,42,127,632275236
82,4,4,T1_SMS_5,176,1,48,51,632754628
82,4,4,T1_SMS_5,177,5,42,127,632775008
82,4,4,T1_SMS_5,178,5,42,127,633274780
82,4,4,T1_SMS_5,179,1,48,37,633308572
82,4,4,T1_SMS_5,180,1,48,59,633772812
82,4,4,T1_SMS_5,181,5,42,127,633774320
82,4,4,T1_SMS_5,182,1,48,47,634249824
82,4,4,T1_SMS_5,183,5,42,127,634275212
82,4,4,T1_SMS_5,184,1,48,63,634746224
82,4,4,T1_SMS_5,185,5,42,127,634774908
82,4,4,T1_SMS_5,186,1,48,57,635270080
82,4,4,T1_SMS_5,187,5,42,127,635274528
82,4,4,T1_SMS_5,188,1,48,60,635761772
82,4,4,T1_SMS_5,189,5,42,127,635775268
82,4,4,T1_SMS_5,190,1,48,58,636261988
82,4,4,T1_SMS_5,191,5,42,127,636275036
82,4,4,T1_SMS_5,192,1,48,56,636766772
82,4,4,T1_SMS_5,193,5,42,127,636774808
82,4,4,T1_SMS_5,194,1,48,60,637274508
82,4,4,T1_SMS_5,195,5,42,127,637275848
82,4,4,T1_SMS_5,196,1,48,55,637770128
82,4,4,T1_SMS_5,197,5,42,127,637775172
82,4,4,T1_SMS_5,198,1,48,58,638245436
82,4,4,T1_SMS_5,199,5,42,127,638274940
82,4,4,T1_SMS_5,200,5,42,127,638774640
82,4,4,T1_SMS_5,201,1,48,46,638778588
82,4,4,T1_SMS_5,202,1,48,45,639273792
82,4,4,T1_SMS_5,203,5,42,127,639275228
82,4,4,T1_SMS_5,204,1,48,52,639772468
82,4,4,T1_SMS_5,205,5,42,127,639775044
82,4,4,T1_SMS_5,206,1,48,31,640263388
82,4,4,T1_SMS_5,207,5,42,127,640274788
82,4,4,T1_SMS_5,208,1,48,51,640747224
82,4,4,T1_SMS_5,209,5,42,127,640774632
82,4,4,T1_SMS_5,210,5,42,127,641275232
82,4,4,T1_SMS_5,211,1,48,49,641307152
82,4,4,T1_SMS_5,212,5,42,127,641774852
82,4,4,T1_SMS_5,213,1,48,50,641779024
82,4,4,T1_SMS_5,214,1,48,55,642269720
82,4,4,T1_SMS_5,215,5,42,127,642274692
82,4,4,T1_SMS_5,216,1,48,60,642771660
82,4,4,T1_SMS_5,217,5,42,127,642775360
82,4,4,T1_SMS_5,218,1,48,51,643253924
82,4,4,T1_SMS_5,219,5,42,127,643275052
82,4,4,T1_SMS_5,220,1,48,59,643754816
82,4,4,T1_SMS_5,221,5,42,127,643774748
82,4,4,T1_SMS_5,222,5,42,127,644274672
82,4,4,T1_SMS_5,223,1,48,53,644285196
82,4,4,T1_SMS_5,224,1,48,51,644758248
82,4,4,T1_SMS_5,225,5,42,127,644775484
82,4,4,T1_SMS_5,226,1,48,50,645272076
82,4,4,T1_SMS_5,227,5,42,127,645275028
82,4,4,T1_SMS_5,228,1,48,49,645763172
82,4,4,T1_SMS_5,229,5,42,127,645774648
82,4,4,T1_SMS_5,230,1,48,57,646255384
82,4,4,T1_SMS_5,231,5,42,127,646274492
82,4,4,T1_SMS_5,232,1,48,58,646747528
82,4,4,T1_SMS_5,233,5,42,127,646775160
82,4,4,T1_SMS_5,234,5,42,127,647274788
82,4,4,T1_SMS_5,235,1,48,61,647285836
82,4,4,T1_SMS_5,236,1,48,56,647757608
82,4,4,T1_SMS_5,237,5,42,127,647774548
82,4,4,T1_SMS_5,238,5,42,127,648275592
82,4,4,T1_SMS_5,239,1,48,48,648284848
82,4,4,T1_SMS_5,240,1,48,38,648722648
82,4,4,T1_SMS_5,241,5,42,127,648774912
82,4,4,T1_SMS_5,242,5,42,127,649274688
82,4,4,T1_SMS_5,243,1,48,61,649283044
82,4,4,T1_SMS_5,244,1,48,51,649770232
82,4,4,T1_SMS_5,245,5,42,127,649774524
82,4,4,T1_SMS_5,246,1,48,47,650262340
82,4,4,T1_SMS_5,247,5,42,127,650275044
82,4,4,T1_SMS_5,248,5,42,127,650774944
82,4,4,T1_SMS_5,249,1,48,64,650786092
82,4,4,T1_SMS_5,250,5,42,127,651274712
82,4,4,T1_SMS_5,251,1,48,64,651280528
82,4,4,T1_SMS_5,252,5,42,127,651775376
82,4,4,T1_SMS_5,253,1,48,51,651793304
82,4,4,T1_SMS_5,254,5,42,127,652274996
82,4,4,T1_SMS_5,255,1,48,60,652290460
82,4,4,T1_SMS_5,256,5,42,127,652774692
82,4,4,T1_SMS_5,257,1,48,44,652790452
82,4,4,T1_SMS_5,258,1,48,65,653266712
82,4,4,T1_SMS_5,259,5,42,127,653274528
82,4,4,T1_SMS_5,0,9999,9999,9999,588772456
82,4,4,T1_SMS_5,1,9999,9999,9999,589272172
82,4,4,T1_SMS_5,2,9999,9999,9999,589772908
82,4,4,T1_SMS_5,3,9999,9999,9999,590272604
82,4,4,T1_SMS_5,4,9999,9999,9999,590772296
82,4,4,T1_SMS_5,5,9999,9999,9999,591273040
82,4,4,T1_SMS_5,6,9999,9999,9999,591772792
82,4,4,T1_SMS_5,7,9999,9999,9999,592272488
82,4,4,T1_SMS_5,8,9999,9999,9999,592772180
82,4,4,T1_SMS_5,9,9999,9999,9999,593272928
82,4,4,T1_SMS_5,10,9999,9999,9999,593772624
82,4,4,T1_SMS_5,11,9999,9999,9999,594272316
82,4,4,T1_SMS_5,12,9999,9999,9999,594773056
82,4,4,T1_SMS_5,13,9999,9999,9999,595272824
82,4,4,T1_SMS_5,14,9999,9999,9999,595772520
82,4,4,T1_SMS_5,15,9999,9999,9999,596272216
82,4,4,T1_SMS_5,16,9999,9999,9999,596772956
82,4,4,T1_SMS_5,17,9999,9999,9999,597272624
82,4,4,T1_SMS_5,18,9999,9999,9999,597772396
82,4,4,T1_SMS_5,19,9999,9999,9999,598272092
82,4,4,T1_SMS_5,20,9999,9999,9999,598772832
82,4,4,T1_SMS_5,21,9999,9999,9999,599272528
82,4,4,T1_SMS_5,22,9999,9999,9999,599772220
82,4,4,T1_SMS_5,23,9999,9999,9999,600272968
82,4,4,T1_SMS_5,24,9999,9999,9999,600772664
82,4,4,T1_SMS_5,25,9999,9999,9999,601272432
82,4,4,T1_SMS_5,26,9999,9999,9999,601772120
82,4,4,T1_SMS_5,27,9999,9999,9999,602272864
82,4,4,T1_SMS_5,28,9999,9999,9999,602772564
82,4,4,T1_SMS_5,29,9999,9999,9999,603272260
82,4,4,T1_SMS_5,30,9999,9999,9999,603772996
82,4,4,T1_SMS_5,31,9999,9999,9999,604272696
82,4,4,T1_SMS_5,32,9999,9999,9999,604772464
82,4,4,T1_SMS_5,33,9999,9999,9999,605272160
82,4,4,T1_SMS_5,34,9999,9999,9999,605772896
82,4,4,T1_SMS_5,35,9999,9999,9999,606272596
82,4,4,T1_SMS_5,36,9999,9999,9999,606772292
82,4,4,T1_SMS_5,37,9999,9999,9999,607273032
82,4,4,T1_SMS_5,38,9999,9999,9999,607772772
82,4,4,T1_SMS_5,39,9999,9999,9999,608272464
82,4,4,T1_SMS_5,40,9999,9999,9999,608772168
82,4,4,T1_SMS_5,41,9999,9999,9999,609272900
82,4,4,T1_SMS_5,42,9999,9999,9999,609772596
82,4,4,T1_SMS_5,43,9999,9999,9999,610272372
82,4,4,T1_SMS_5,44,9999,9999,9999,610773112
82,4,4,T1_SMS_5,45,9999,9999,9999,611272808
82,4,4,T1_SMS_5,46,9999,9999,9999,611772500
82,4,4,T1_SMS_5,47,9999,9999,9999,612272196
82,4,4,T1_SMS_5,48,9999,9999,9999,612772932
82,4,4,T1_SMS_5,49,9999,9999,9999,613272636
82,4,4,T1_SMS_5,50,9999,9999,9999,613772404
82,4,4,T1_SMS_5,51,9999,9999,9999,614272100
82,4,4,T1_SMS_5,52,9999,9999,9999,614772840
82,4,4,T1_SMS_5,53,9999,9999,9999,615272536
82,4,4,T1_SMS_5,54,9999,9999,9999,615772228
82,4,4,T1_SMS_5,55,9999,9999,9999,616272972
82,4,4,T1_SMS_5,56,9999,9999,9999,616772668
82,4,4,T1_SMS_5,57,9999,9999,9999,617272436
82,4,4,T1_SMS_5,58,9999,9999,9999,617772128
82,4,4,T1_SMS_5,59,9999,9999,9999,618272868
82,4,4,T1_SMS_5,60,9999,9999,9999,618772536
82,4,4,T1_SMS_5,61,9999,9999,9999,619272308
82,4,4,T1_SMS_5,62,9999,9999,9999,619773048
82,4,4,T1_SMS_5,63,9999,9999,9999,620272748
82,4,4,T1_SMS_5,64,9999,9999,9999,620772448
82,4,4,T1_SMS_5,65,9999,9999,9999,621272140
82,4,4,T1_SMS_5,66,9999,9999,9999,621772880
82,4,4,T1_SMS_5,67,9999,9999,9999,622272576
82,4,4,T1_SMS_5,68,9999,9999,9999,622772344
82,4,4,T1_SMS_5,69,9999,9999,9999,623273012
82,4,4,T1_SMS_5,70,9999,9999,9999,623772780
82,4,4,T1_SMS_5,71,9999,9999,9999,624272472
82,4,4,T1_SMS_5,72,9999,9999,9999,624772172
82,4,4,T1_SMS_5,73,9999,9999,9999,625272908
82,4,4,T1_SMS_5,74,9999,9999,9999,625772608
82,4,4,T1_SMS_5,75,9999,9999,9999,626272372
82,4,4,T1_SMS_5,76,9999,9999,9999,626773112
82,4,4,T1_SMS_5,77,9999,9999,9999,627272808
82,4,4,T1_SMS_5,78,9999,9999,9999,627772504
82,4,4,T1_SMS_5,79,9999,9999,9999,628272200
82,4,4,T1_SMS_5,80,9999,9999,9999,628772940
82,4,4,T1_SMS_5,81,9999,9999,9999,629272684
82,4,4,T1_SMS_5,82,9999,9999,9999,629772388
82,4,4,T1_SMS_5,83,9999,9999,9999,630272084
82,4,4,T1_SMS_5,84,9999,9999,9999,630772824
82,4,4,T1_SMS_5,85,9999,9999,9999,631272520
82,4,4,T1_SMS_5,86,9999,9999,9999,631772216
82,4,4,T1_SMS_5,87,9999,9999,9999,632272952
82,4,4,T1_SMS_5,88,9999,9999,9999,632772720
82,4,4,T1_SMS_5,89,9999,9999,9999,633272420
82,4,4,T1_SMS_5,90,9999,9999,9999,633772124
82,4,4,T1_SMS_5,91,9999,9999,9999,634272852
82,4,4,T1_SMS_5,92,9999,9999,9999,634772544
82,4,4,T1_SMS_5,93,9999,9999,9999,635272240
82,4,4,T1_SMS_5,94,9999,9999,9999,635772980
82,4,4,T1_SMS_5,95,9999,9999,9999,636272752
82,4,4,T1_SMS_5,96,9999,9999,9999,636772448
82,4,4,T1_SMS_5,97,9999,9999,9999,637272148
82,4,4,T1_SMS_5,98,9999,9999,9999,637772884
82,4,4,T1_SMS_5,99,9999,9999,9999,638272580
82,4,4,T1_SMS_5,100,9999,9999,9999,638772280
82,4,4,T1_SMS_5,101,9999,9999,9999,639273020
82,4,4,T1_SMS_5,102,9999,9999,9999,639772760
82,4,4,T1_SMS_5,103,9999,9999,9999,640272504
82,4,4,T1_SMS_5,104,9999,9999,9999,640772200
82,4,4,T1_SMS_5,105,9999,9999,9999,641272944
82,4,4,T1_SMS_5,106,9999,9999,9999,641772640
82,4,4,T1_SMS_5,107,9999,9999,9999,642272332
82,4,4,T1_SMS_5,108,9999,9999,9999,642773072
82,4,4,T1_SMS_5,109,9999,9999,9999,643272768
82,4,4,T1_SMS_5,110,9999,9999,9999,643772536
82,4,4,T1_SMS_5,111,9999,9999,9999,644272236
82,4,4,T1_SMS_5,112,9999,9999,9999,644772972
82,4,4,T1_SMS_5,113,9999,9999,9999,645272668
82,4,4,T1_SMS_5,114,9999,9999,9999,645772364
82,4,4,T1_SMS_5,115,9999,9999,9999,646272056
82,4,4,T1_SMS_5,116,9999,9999,9999,646772800
82,4,4,T1_SMS_5,117,9999,9999,9999,647272500
82,4,4,T1_SMS_5,118,9999,9999,9999,647772260
82,4,4,T1_SMS_5,119,9999,9999,9999,648273008
82,4,4,T1_SMS_5,120,9999,9999,9999,648772700
82,4,4,T1_SMS_5,121,9999,9999,9999,649272400
82,4,4,T1_SMS_5,122,9999,9999,9999,649772088
82,4,4,T1_SMS_5,123,9999,9999,9999,650272832
82,4,4,T1_SMS_5,124,9999,9999,9999,650772580
82,4,4,T1_SMS_5,125,9999,9999,9999,651272276
82,4,4,T1_SMS_5,126,9999,9999,9999,651773016
82,4,4,T1_SMS_5,127,9999,9999,9999,652272712
82,4,4,T1_SMS_5,128,9999,9999,9999,652772408
82,4,4,T1_SMS_5,129,9999,9999,9999,653272168
82,5,9,Ticks_ISO_T2_8,0,5,42,127,665319736
82,5,9,Ticks_ISO_T2_8,1,1,48,19,665799744
82,5,9,Ticks_ISO_T2_8,2,5,42,127,666119472
82,5,9,Ticks_ISO_T2_8,3,1,48,46,666917268
82,5,9,Ticks_ISO_T2_8,4,5,42,127,666920292
82,5,9,Ticks_ISO_T2_8,5,1,48,53,667716544
82,5,9,Ticks_ISO_T2_8,6,5,42,127,667720172
82,5,9,Ticks_ISO_T2_8,7,1,48,55,668500500
82,5,9,Ticks_ISO_T2_8,8,5,42,127,668519684
82,5,9,Ticks_ISO_T2_8,9,1,48,55,669309284
82,5,9,Ticks_ISO_T2_8,10,5,42,127,669319492
82,5,9,Ticks_ISO_T2_8,11,1,48,55,670095028
82,5,9,Ticks_ISO_T2_8,12,5,42,127,670120272
82,5,9,Ticks_ISO_T2_8,13,1,48,56,670900820
82,5,9,Ticks_ISO_T2_8,14,5,42,127,670920004
82,5,9,Ticks_ISO_T2_8,15,1,48,60,671694496
82,5,9,Ticks_ISO_T2_8,16,5,42,127,671719736
82,5,9,Ticks_ISO_T2_8,17,1,48,30,672468872
82,5,9,Ticks_ISO_T2_8,18,5,42,127,672519548
82,5,9,Ticks_ISO_T2_8,19,5,42,127,673320432
82,5,9,Ticks_ISO_T2_8,20,1,48,51,673325044
82,5,9,Ticks_ISO_T2_8,21,1,48,69,674102548
82,5,9,Ticks_ISO_T2_8,22,5,42,127,674120008
82,5,9,Ticks_ISO_T2_8,23,1,48,62,674918692
82,5,9,Ticks_ISO_T2_8,24,5,42,127,674920264
82,5,9,Ticks_ISO_T2_8,25,1,48,65,675687804
82,5,9,Ticks_ISO_T2_8,26,5,42,127,675719476
82,5,9,Ticks_ISO_T2_8,27,5,42,127,676520412
82,5,9,Ticks_ISO_T2_8,28,1,48,57,676525024
82,5,9,Ticks_ISO_T2_8,29,5,42,127,677320148
82,5,9,Ticks_ISO_T2_8,30,1,48,50,677326332
82,5,9,Ticks_ISO_T2_8,31,1,48,57,678084084
82,5,9,Ticks_ISO_T2_8,32,5,42,127,678119724
82,5,9,Ticks_ISO_T2_8,33,5,42,127,678919464
82,5,9,Ticks_ISO_T2_8,34,1,48,74,678943924
82,5,9,Ticks_ISO_T2_8,35,1,48,58,679697312
82,5,9,Ticks_ISO_T2_8,36,5,42,127,679720188
82,5,9,Ticks_ISO_T2_8,37,1,48,60,680500812
82,5,9,Ticks_ISO_T2_8,38,5,42,127,680519996
82,5,9,Ticks_ISO_T2_8,39,1,48,68,681273692
82,5,9,Ticks_ISO_T2_8,40,5,42,127,681319876
82,5,9,Ticks_ISO_T2_8,41,1,48,64,682048672
82,5,9,Ticks_ISO_T2_8,42,5,42,127,682119536
82,5,9,Ticks_ISO_T2_8,43,1,48,75,682911680
82,5,9,Ticks_ISO_T2_8,44,5,42,127,682920244
82,5,9,Ticks_ISO_T2_8,45,1,48,63,683717860
82,5,9,Ticks_ISO_T2_8,46,5,42,127,683719976
82,5,9,Ticks_ISO_T2_8,47,1,48,73,684481680
82,5,9,Ticks_ISO_T2_8,48,5,42,127,684520008
82,5,9,Ticks_ISO_T2_8,49,5,42,127,685319748
82,5,9,Ticks_ISO_T2_8,50,1,48,71,685329604
82,5,9,Ticks_ISO_T2_8,51,1,48,61,686092516
82,5,9,Ticks_ISO_T2_8,52,5,42,127,686120248
82,5,9,Ticks_ISO_T2_8,53,1,48,63,686906860
82,5,9,Ticks_ISO_T2_8,54,5,42,127,686920056
82,5,9,Ticks_ISO_T2_8,55,1,48,64,687709212
82,5,9,Ticks_ISO_T2_8,56,5,42,127,687719860
82,5,9,Ticks_ISO_T2_8,57,1,48,62,688514848
82,5,9,Ticks_ISO_T2_8,58,5,42,127,688519892
82,5,9,Ticks_ISO_T2_8,59,5,42,127,689320236
82,5,9,Ticks_ISO_T2_8,60,1,48,62,689344968
82,5,9,Ticks_ISO_T2_8,61,5,42,127,690120044
82,5,9,Ticks_ISO_T2_8,62,1,48,65,690139172
82,5,9,Ticks_ISO_T2_8,63,1,48,70,690911656
82,5,9,Ticks_ISO_T2_8,64,5,42,127,690919768
82,5,9,Ticks_ISO_T2_8,65,5,42,127,691719732
82,5,9,Ticks_ISO_T2_8,66,1,48,64,691737584
82,5,9,Ticks_ISO_T2_8,67,5,42,127,692520436
82,5,9,Ticks_ISO_T2_8,68,1,48,62,692539788
82,5,9,Ticks_ISO_T2_8,69,5,42,127,693320024
82,5,9,Ticks_ISO_T2_8,70,1,48,57,693345952
82,5,9,Ticks_ISO_T2_8,71,5,42,127,694119904
82,5,9,Ticks_ISO_T2_8,72,1,48,65,694130952
82,5,9,Ticks_ISO_T2_8,73,5,42,127,694919788
82,5,9,Ticks_ISO_T2_8,74,1,48,57,694940632
82,5,9,Ticks_ISO_T2_8,75,5,42,127,695720344
82,5,9,Ticks_ISO_T2_8,76,1,48,65,695723684
82,5,9,Ticks_ISO_T2_8,77,5,42,127,696520004
82,5,9,Ticks_ISO_T2_8,78,1,48,64,696521796
82,5,9,Ticks_ISO_T2_8,79,1,48,64,697317228
82,5,9,Ticks_ISO_T2_8,80,5,42,127,697319880
82,5,9,Ticks_ISO_T2_8,81,1,48,67,698113520
82,5,9,Ticks_ISO_T2_8,82,5,42,127,698119612
82,5,9,Ticks_ISO_T2_8,83,1,48,62,698913056
82,5,9,Ticks_ISO_T2_8,84,5,42,127,698920420
82,5,9,Ticks_ISO_T2_8,85,1,48,68,699705460
82,5,9,Ticks_ISO_T2_8,86,5,42,127,699720152
82,5,9,Ticks_ISO_T2_8,87,1,48,69,700497264
82,5,9,Ticks_ISO_T2_8,88,5,42,127,700519664
82,5,9,Ticks_ISO_T2_8,89,1,48,66,701308816
82,5,9,Ticks_ISO_T2_8,90,5,42,127,701319400
82,5,9,Ticks_ISO_T2_8,91,1,48,71,702115576
82,5,9,Ticks_ISO_T2_8,92,5,42,127,702120400
82,5,9,Ticks_ISO_T2_8,93,5,42,127,702919916
82,5,9,Ticks_ISO_T2_8,94,1,48,71,702930812
82,5,9,Ticks_ISO_T2_8,95,1,48,70,703696048
82,5,9,Ticks_ISO_T2_8,96,5,42,127,703719792
82,5,9,Ticks_ISO_T2_8,97,1,48,68,704519680
82,5,9,Ticks_ISO_T2_8,98,5,42,127,704521016
82,5,9,Ticks_ISO_T2_8,99,1,48,71,705286012
82,5,9,Ticks_ISO_T2_8,100,5,42,127,705320480
82,5,9,Ticks_ISO_T2_8,101,1,48,56,706114868
82,5,9,Ticks_ISO_T2_8,102,5,42,127,706120136
82,5,9,Ticks_ISO_T2_8,103,5,42,127,706919804
82,5,9,Ticks_ISO_T2_8,104,1,48,55,706932124
82,5,9,Ticks_ISO_T2_8,105,5,42,127,707719464
82,5,9,Ticks_ISO_T2_8,106,1,48,57,707766184
82,5,9,Ticks_ISO_T2_8,107,5,42,127,708520468
82,5,9,Ticks_ISO_T2_8,108,1,48,62,708566896
82,5,9,Ticks_ISO_T2_8,109,5,42,127,709320128
82,5,9,Ticks_ISO_T2_8,110,1,48,61,709341944
82,5,9,Ticks_ISO_T2_8,111,5,42,127,710119932
82,5,9,Ticks_ISO_T2_8,112,1,48,60,710127092
82,5,9,Ticks_ISO_T2_8,113,5,42,127,710919444
82,5,9,Ticks_ISO_T2_8,114,1,48,63,710928772
82,5,9,Ticks_ISO_T2_8,115,5,42,127,711720244
82,5,9,Ticks_ISO_T2_8,116,1,48,62,711721212
82,5,9,Ticks_ISO_T2_8,117,5,42,127,712520204
82,5,9,Ticks_ISO_T2_8,118,1,48,67,712546060
82,5,9,Ticks_ISO_T2_8,119,1,48,61,713300452
82,5,9,Ticks_ISO_T2_8,120,5,42,127,713319708
82,5,9,Ticks_ISO_T2_8,121,1,48,73,714104148
82,5,9,Ticks_ISO_T2_8,122,5,42,127,714119516
82,5,9,Ticks_ISO_T2_8,123,5,42,127,714920300
82,5,9,Ticks_ISO_T2_8,124,1,48,73,714921268
82,5,9,Ticks_ISO_T2_8,125,5,42,127,715720256
82,5,9,Ticks_ISO_T2_8,126,1,48,62,715733844
82,5,9,Ticks_ISO_T2_8,127,1,48,65,716512168
82,5,9,Ticks_ISO_T2_8,128,5,42,127,716519984
82,5,9,Ticks_ISO_T2_8,129,5,42,127,717319428
82,5,9,Ticks_ISO_T2_8,130,1,48,77,717344260
82,5,9,Ticks_ISO_T2_8,131,5,42,127,718120232
82,5,9,Ticks_ISO_T2_8,132,1,48,68,718132996
82,5,9,Ticks_ISO_T2_8,133,1,48,65,718902196
82,5,9,Ticks_ISO_T2_8,134,5,42,127,718920180
82,5,9,Ticks_ISO_T2_8,135,1,48,58,719698564
82,5,9,Ticks_ISO_T2_8,136,5,42,127,719719988
82,5,9,Ticks_ISO_T2_8,137,1,48,58,720519656
82,5,9,Ticks_ISO_T2_8,138,5,42,127,720520916
82,5,9,Ticks_ISO_T2_8,139,5,42,127,721320436
82,5,9,Ticks_ISO_T2_8,140,1,48,74,721343528
82,5,9,Ticks_ISO_T2_8,141,5,42,127,722120020
82,5,9,Ticks_ISO_T2_8,142,1,48,64,722157024
82,5,9,Ticks_ISO_T2_8,143,5,42,127,722919976
82,5,9,Ticks_ISO_T2_8,144,1,48,60,722937984
82,5,9,Ticks_ISO_T2_8,145,5,42,127,723719484
82,5,9,Ticks_ISO_T2_8,146,1,48,62,723787628
82,5,9,Ticks_ISO_T2_8,147,1,48,54,724499204
82,5,9,Ticks_ISO_T2_8,148,5,42,127,724520356
82,5,9,Ticks_ISO_T2_8,149,5,42,127,725320100
82,5,9,Ticks_ISO_T2_8,150,1,48,71,725341248
82,5,9,Ticks_ISO_T2_8,151,1,48,70,726083744
82,5,9,Ticks_ISO_T2_8,152,5,42,127,726119976
82,5,9,Ticks_ISO_T2_8,153,5,42,127,726919420
82,5,9,Ticks_ISO_T2_8,154,1,48,73,726934804
82,5,9,Ticks_ISO_T2_8,155,5,42,127,727720424
82,5,9,Ticks_ISO_T2_8,156,1,48,80,727721988
82,5,9,Ticks_ISO_T2_8,157,1,48,71,728490348
82,5,9,Ticks_ISO_T2_8,158,5,42,127,728520076
82,5,9,Ticks_ISO_T2_8,159,1,48,71,729311400
82,5,9,Ticks_ISO_T2_8,160,5,42,127,729319812
82,5,9,Ticks_ISO_T2_8,161,1,48,63,730105816
82,5,9,Ticks_ISO_T2_8,162,5,42,127,730119768
82,5,9,Ticks_ISO_T2_8,163,5,42,127,730920356
82,5,9,Ticks_ISO_T2_8,164,1,48,74,730943072
82,5,9,Ticks_ISO_T2_8,165,5,42,127,731720016
82,5,9,Ticks_ISO_T2_8,166,1,48,72,731721952
82,5,9,Ticks_ISO_T2_8,167,5,42,127,732519748
82,5,9,Ticks_ISO_T2_8,168,1,48,67,732543512
82,5,9,Ticks_ISO_T2_8,169,5,42,127,733319704
82,5,9,Ticks_ISO_T2_8,170,1,48,61,733327988
82,5,9,Ticks_ISO_T2_8,171,5,42,127,734120336
82,5,9,Ticks_ISO_T2_8,172,1,48,66,734172896
82,5,9,Ticks_ISO_T2_8,173,1,48,60,734913824
82,5,9,Ticks_ISO_T2_8,174,5,42,127,734919916
82,5,9,Ticks_ISO_T2_8,175,5,42,127,735719656
82,5,9,Ticks_ISO_T2_8,176,1,48,54,735735864
82,5,9,Ticks_ISO_T2_8,177,5,42,127,736519688
82,5,9,Ticks_ISO_T2_8,178,1,48,62,736524000
82,5,9,Ticks_ISO_T2_8,179,5,42,127,737320268
82,5,9,Ticks_ISO_T2_8,180,1,48,60,737350840
82,5,9,Ticks_ISO_T2_8,181,5,42,127,738120000
82,5,9,Ticks_ISO_T2_8,182,1,48,54,738133068
82,5,9,Ticks_ISO_T2_8,183,5,42,127,738919660
82,5,9,Ticks_ISO_T2_8,184,1,48,57,738957860
82,5,9,Ticks_ISO_T2_8,185,1,48,72,739701624
82,5,9,Ticks_ISO_T2_8,186,5,42,127,739719612
82,5,9,Ticks_ISO_T2_8,187,1,48,61,740493276
82,5,9,Ticks_ISO_T2_8,188,5,42,127,740520392
82,5,9,Ticks_ISO_T2_8,189,1,48,60,741295632
82,5,9,Ticks_ISO_T2_8,190,5,42,127,741319976
82,5,9,Ticks_ISO_T2_8,191,1,48,55,742067320
82,5,9,Ticks_ISO_T2_8,192,5,42,127,742119784
82,5,9,Ticks_ISO_T2_8,193,1,48,57,742853360
82,5,9,Ticks_ISO_T2_8,194,5,42,127,742919444
82,5,9,Ticks_ISO_T2_8,195,1,48,53,743706520
82,5,9,Ticks_ISO_T2_8,196,5,42,127,743720548
82,5,9,Ticks_ISO_T2_8,197,1,48,55,744513512
82,5,9,Ticks_ISO_T2_8,198,5,42,127,744520056
82,5,9,Ticks_ISO_T2_8,199,1,48,65,745300680
82,5,9,Ticks_ISO_T2_8,200,5,42,127,745319716
82,5,9,Ticks_ISO_T2_8,201,1,48,59,746083736
82,5,9,Ticks_ISO_T2_8,202,5,42,127,746119672
82,5,9,Ticks_ISO_T2_8,203,5,42,127,746920532
82,5,9,Ticks_ISO_T2_8,204,1,48,69,746930464
82,5,9,Ticks_ISO_T2_8,205,1,48,69,747659572
82,5,9,Ticks_ISO_T2_8,206,5,42,127,747720188
82,5,9,Ticks_ISO_T2_8,207,1,48,48,748505228
82,5,9,Ticks_ISO_T2_8,208,5,42,127,748519848
82,5,9,Ticks_ISO_T2_8,209,5,42,127,749319664
82,5,9,Ticks_ISO_T2_8,210,1,48,67,749333104
82,5,9,Ticks_ISO_T2_8,211,1,48,69,750098860
82,5,9,Ticks_ISO_T2_8,212,5,42,127,750120460
82,5,9,Ticks_ISO_T2_8,213,1,48,56,750915444
82,5,9,Ticks_ISO_T2_8,214,5,42,127,750920120
82,5,9,Ticks_ISO_T2_8,215,1,48,57,751691848
82,5,9,Ticks_ISO_T2_8,216,5,42,127,751719780
82,5,9,Ticks_ISO_T2_8,217,1,48,73,752453732
82,5,9,Ticks_ISO_T2_8,218,5,42,127,752519588
82,5,9,Ticks_ISO_T2_8,219,1,48,63,753302612
82,5,9,Ticks_ISO_T2_8,220,5,42,127,753320296
82,5,9,Ticks_ISO_T2_8,221,1,48,66,754090896
82,5,9,Ticks_ISO_T2_8,222,5,42,127,754120324
82,5,9,Ticks_ISO_T2_8,223,1,48,57,754873948
82,5,9,Ticks_ISO_T2_8,224,5,42,127,754919760
82,5,9,Ticks_ISO_T2_8,225,5,42,127,755719500
82,5,9,Ticks_ISO_T2_8,226,1,48,69,755736328
82,5,9,Ticks_ISO_T2_8,227,5,42,127,756520308
82,5,9,Ticks_ISO_T2_8,228,1,48,71,756526720
82,5,9,Ticks_ISO_T2_8,229,5,42,127,757320264
82,5,9,Ticks_ISO_T2_8,230,1,48,69,757345748
82,5,9,Ticks_ISO_T2_8,231,5,42,127,758119772
82,5,9,Ticks_ISO_T2_8,232,1,48,62,758183400
82,5,9,Ticks_ISO_T2_8,233,5,42,127,758919432
82,5,9,Ticks_ISO_T2_8,234,1,48,73,758966532
82,5,9,Ticks_ISO_T2_8,235,5,42,127,759720360
82,5,9,Ticks_ISO_T2_8,236,1,48,74,759740608
82,5,9,Ticks_ISO_T2_8,237,5,42,127,760520240
82,5,9,Ticks_ISO_T2_8,238,1,48,65,760521652
82,5,9,Ticks_ISO_T2_8,0,9999,9999,9999,665317448
82,5,9,Ticks_ISO_T2_8,1,9999,9999,9999,666117184
82,5,9,Ticks_ISO_T2_8,2,9999,9999,9999,666918004
82,5,9,Ticks_ISO_T2_8,3,9999,9999,9999,667717736
82,5,9,Ticks_ISO_T2_8,4,9999,9999,9999,668517468
82,5,9,Ticks_ISO_T2_8,5,9999,9999,9999,669317204
82,5,9,Ticks_ISO_T2_8,6,9999,9999,9999,670117984
82,5,9,Ticks_ISO_T2_8,7,9999,9999,9999,670917716
82,5,9,Ticks_ISO_T2_8,8,9999,9999,9999,671717452
82,5,9,Ticks_ISO_T2_8,9,9999,9999,9999,672517184
82,5,9,Ticks_ISO_T2_8,10,9999,9999,9999,673317996
82,5,9,Ticks_ISO_T2_8,11,9999,9999,9999,674117720
82,5,9,Ticks_ISO_T2_8,12,9999,9999,9999,674917460
82,5,9,Ticks_ISO_T2_8,13,9999,9999,9999,675717188
82,5,9,Ticks_ISO_T2_8,14,9999,9999,9999,676517976
82,5,9,Ticks_ISO_T2_8,15,9999,9999,9999,677317712
82,5,9,Ticks_ISO_T2_8,16,9999,9999,9999,678117436
82,5,9,Ticks_ISO_T2_8,17,9999,9999,9999,678917176
82,5,9,Ticks_ISO_T2_8,18,9999,9999,9999,679717972
82,5,9,Ticks_ISO_T2_8,19,9999,9999,9999,680517708
82,5,9,Ticks_ISO_T2_8,20,9999,9999,9999,681317440
82,5,9,Ticks_ISO_T2_8,21,9999,9999,9999,682117172
82,5,9,Ticks_ISO_T2_8,22,9999,9999,9999,682917956
82,5,9,Ticks_ISO_T2_8,23,9999,9999,9999,683717724
82,5,9,Ticks_ISO_T2_8,24,9999,9999,9999,684517424
82,5,9,Ticks_ISO_T2_8,25,9999,9999,9999,685317236
82,5,9,Ticks_ISO_T2_8,26,9999,9999,9999,686117960
82,5,9,Ticks_ISO_T2_8,27,9999,9999,9999,686917692
82,5,9,Ticks_ISO_T2_8,28,9999,9999,9999,687717424
82,5,9,Ticks_ISO_T2_8,29,9999,9999,9999,688517232
82,5,9,Ticks_ISO_T2_8,30,9999,9999,9999,689317948
82,5,9,Ticks_ISO_T2_8,31,9999,9999,9999,690117680
82,5,9,Ticks_ISO_T2_8,32,9999,9999,9999,690917480
82,5,9,Ticks_ISO_T2_8,33,9999,9999,9999,691717220
82,5,9,Ticks_ISO_T2_8,34,9999,9999,9999,692518000
82,5,9,Ticks_ISO_T2_8,35,9999,9999,9999,693317736
82,5,9,Ticks_ISO_T2_8,36,9999,9999,9999,694117468
82,5,9,Ticks_ISO_T2_8,37,9999,9999,9999,694917200
82,5,9,Ticks_ISO_T2_8,38,9999,9999,9999,695717980
82,5,9,Ticks_ISO_T2_8,39,9999,9999,9999,696517716
82,5,9,Ticks_ISO_T2_8,40,9999,9999,9999,697317444
82,5,9,Ticks_ISO_T2_8,41,9999,9999,9999,698117176
82,5,9,Ticks_ISO_T2_8,42,9999,9999,9999,698917984
82,5,9,Ticks_ISO_T2_8,43,9999,9999,9999,699717716
82,5,9,Ticks_ISO_T2_8,44,9999,9999,9999,700517448
82,5,9,Ticks_ISO_T2_8,45,9999,9999,9999,701317184
82,5,9,Ticks_ISO_T2_8,46,9999,9999,9999,702117964
82,5,9,Ticks_ISO_T2_8,47,9999,9999,9999,702917704
82,5,9,Ticks_ISO_T2_8,48,9999,9999,9999,703717428
82,5,9,Ticks_ISO_T2_8,49,9999,9999,9999,704517168
82,5,9,Ticks_ISO_T2_8,50,9999,9999,9999,705317968
82,5,9,Ticks_ISO_T2_8,51,9999,9999,9999,706117700
82,5,9,Ticks_ISO_T2_8,52,9999,9999,9999,706917440
82,5,9,Ticks_ISO_T2_8,53,9999,9999,9999,707717176
82,5,9,Ticks_ISO_T2_8,54,9999,9999,9999,708517956
82,5,9,Ticks_ISO_T2_8,55,9999,9999,9999,709317688
82,5,9,Ticks_ISO_T2_8,56,9999,9999,9999,710117496
82,5,9,Ticks_ISO_T2_8,57,9999,9999,9999,710917228
82,5,9,Ticks_ISO_T2_8,58,9999,9999,9999,711717956
82,5,9,Ticks_ISO_T2_8,59,9999,9999,9999,712517692
82,5,9,Ticks_ISO_T2_8,60,9999,9999,9999,713317496
82,5,9,Ticks_ISO_T2_8,61,9999,9999,9999,714117228
82,5,9,Ticks_ISO_T2_8,62,9999,9999,9999,714917940
82,5,9,Ticks_ISO_T2_8,63,9999,9999,9999,715717744
82,5,9,Ticks_ISO_T2_8,64,9999,9999,9999,716517472
82,5,9,Ticks_ISO_T2_8,65,9999,9999,9999,717317212
82,5,9,Ticks_ISO_T2_8,66,9999,9999,9999,718117944
82,5,9,Ticks_ISO_T2_8,67,9999,9999,9999,718917744
82,5,9,Ticks_ISO_T2_8,68,9999,9999,9999,719717476
82,5,9,Ticks_ISO_T2_8,69,9999,9999,9999,720517216
82,5,9,Ticks_ISO_T2_8,70,9999,9999,9999,721318000
82,5,9,Ticks_ISO_T2_8,71,9999,9999,9999,722117732
82,5,9,Ticks_ISO_T2_8,72,9999,9999,9999,722917464
82,5,9,Ticks_ISO_T2_8,73,9999,9999,9999,723717196
82,5,9,Ticks_ISO_T2_8,74,9999,9999,9999,724517996
82,5,9,Ticks_ISO_T2_8,75,9999,9999,9999,725317736
82,5,9,Ticks_ISO_T2_8,76,9999,9999,9999,726117464
82,5,9,Ticks_ISO_T2_8,77,9999,9999,9999,726917204
82,5,9,Ticks_ISO_T2_8,78,9999,9999,9999,727717988
82,5,9,Ticks_ISO_T2_8,79,9999,9999,9999,728517712
82,5,9,Ticks_ISO_T2_8,80,9999,9999,9999,729317448
82,5,9,Ticks_ISO_T2_8,81,9999,9999,9999,730117184
82,5,9,Ticks_ISO_T2_8,82,9999,9999,9999,730917996
82,5,9,Ticks_ISO_T2_8,83,9999,9999,9999,731717728
82,5,9,Ticks_ISO_T2_8,84,9999,9999,9999,732517460
82,5,9,Ticks_ISO_T2_8,85,9999,9999,9999,733317196
82,5,9,Ticks_ISO_T2_8,86,9999,9999,9999,734117976
82,5,9,Ticks_ISO_T2_8,87,9999,9999,9999,734917704
82,5,9,Ticks_ISO_T2_8,88,9999,9999,9999,735717440
82,5,9,Ticks_ISO_T2_8,89,9999,9999,9999,736517176
82,5,9,Ticks_ISO_T2_8,90,9999,9999,9999,737317980
82,5,9,Ticks_ISO_T2_8,91,9999,9999,9999,738117712
82,5,9,Ticks_ISO_T2_8,92,9999,9999,9999,738917448
82,5,9,Ticks_ISO_T2_8,93,9999,9999,9999,739717172
82,5,9,Ticks_ISO_T2_8,94,9999,9999,9999,740517956
82,5,9,Ticks_ISO_T2_8,95,9999,9999,9999,741317688
82,5,9,Ticks_ISO_T2_8,96,9999,9999,9999,742117420
82,5,9,Ticks_ISO_T2_8,97,9999,9999,9999,742917232
82,5,9,Ticks_ISO_T2_8,98,9999,9999,9999,743717960
82,5,9,Ticks_ISO_T2_8,99,9999,9999,9999,744517696
82,5,9,Ticks_ISO_T2_8,100,9999,9999,9999,745317428
82,5,9,Ticks_ISO_T2_8,101,9999,9999,9999,746117236
82,5,9,Ticks_ISO_T2_8,102,9999,9999,9999,746917948
82,5,9,Ticks_ISO_T2_8,103,9999,9999,9999,747717752
82,5,9,Ticks_ISO_T2_8,104,9999,9999,9999,748517484
82,5,9,Ticks_ISO_T2_8,105,9999,9999,9999,749317228
82,5,9,Ticks_ISO_T2_8,106,9999,9999,9999,750117948
82,5,9,Ticks_ISO_T2_8,107,9999,9999,9999,750917684
82,5,9,Ticks_ISO_T2_8,108,9999,9999,9999,751717492
82,5,9,Ticks_ISO_T2_8,109,9999,9999,9999,752517224
82,5,9,Ticks_ISO_T2_8,110,9999,9999,9999,753318008
82,5,9,Ticks_ISO_T2_8,111,9999,9999,9999,754117740
82,5,9,Ticks_ISO_T2_8,112,9999,9999,9999,754917472
82,5,9,Ticks_ISO_T2_8,113,9999,9999,9999,755717212
82,5,9,Ticks_ISO_T2_8,114,9999,9999,9999,756517944
82,5,9,Ticks_ISO_T2_8,115,9999,9999,9999,757317680
82,5,9,Ticks_ISO_T2_8,116,9999,9999,9999,758117484
82,5,9,Ticks_ISO_T2_8,117,9999,9999,9999,758917220
82,5,9,Ticks_ISO_T2_8,118,9999,9999,9999,759717996
82,5,9,Ticks_ISO_T2_8,119,9999,9999,9999,760517732
82,6,10,Ticks_ISO_T2_5,0,5,42,127,771858988
82,6,10,Ticks_ISO_T2_5,1,5,42,127,772358380
82,6,10,Ticks_ISO_T2_5,2,5,42,127,772859292
82,6,10,Ticks_ISO_T2_5,3,1,48,49,772866156
82,6,10,Ticks_ISO_T2_5,4,5,42,127,773358836
82,6,10,Ticks_ISO_T2_5,5,1,48,67,773379384
82,6,10,Ticks_ISO_T2_5,6,5,42,127,773858828
82,6,10,Ticks_ISO_T2_5,7,1,48,67,773869352
82,6,10,Ticks_ISO_T2_5,8,1,48,66,774354144
82,6,10,Ticks_ISO_T2_5,9,5,42,127,774359340
82,6,10,Ticks_ISO_T2_5,10,5,42,127,774859040
82,6,10,Ticks_ISO_T2_5,11,1,48,74,774878688
82,6,10,Ticks_ISO_T2_5,12,5,42,127,775358884
82,6,10,Ticks_ISO_T2_5,13,1,48,60,775362372
82,6,10,Ticks_ISO_T2_5,14,1,48,50,775856612
82,6,10,Ticks_ISO_T2_5,15,5,42,127,775858496
82,6,10,Ticks_ISO_T2_5,16,1,48,61,776351424
82,6,10,Ticks_ISO_T2_5,17,5,42,127,776359240
82,6,10,Ticks_ISO_T2_5,18,5,42,127,776859016
82,6,10,Ticks_ISO_T2_5,19,1,48,46,776869688
82,6,10,Ticks_ISO_T2_5,20,1,48,55,777356120
82,6,10,Ticks_ISO_T2_5,21,5,42,127,777358780
82,6,10,Ticks_ISO_T2_5,22,1,48,44,777853796
82,6,10,Ticks_ISO_T2_5,23,5,42,127,777858620
82,6,10,Ticks_ISO_T2_5,24,1,48,68,778349832
82,6,10,Ticks_ISO_T2_5,25,5,42,127,778359140
82,6,10,Ticks_ISO_T2_5,26,5,42,127,778858840
82,6,10,Ticks_ISO_T2_5,27,1,48,48,778860328
82,6,10,Ticks_ISO_T2_5,28,1,48,59,779352508
82,6,10,Ticks_ISO_T2_5,29,5,42,127,779358752
82,6,10,Ticks_ISO_T2_5,30,1,48,53,779838144
82,6,10,Ticks_ISO_T2_5,31,5,42,127,779859344
82,6,10,Ticks_ISO_T2_5,32,5,42,127,780359120
82,6,10,Ticks_ISO_T2_5,33,1,48,66,780382436
82,6,10,Ticks_ISO_T2_5,34,1,48,55,780848676
82,6,10,Ticks_ISO_T2_5,35,5,42,127,780858660
82,6,10,Ticks_ISO_T2_5,36,5,42,127,781358584
82,6,10,Ticks_ISO_T2_5,37,1,48,60,781373896
82,6,10,Ticks_ISO_T2_5,38,1,48,53,781844924
82,6,10,Ticks_ISO_T2_5,39,5,42,127,781859096
82,6,10,Ticks_ISO_T2_5,40,5,42,127,782358948
82,6,10,Ticks_ISO_T2_5,41,1,48,62,782368948
82,6,10,Ticks_ISO_T2_5,42,5,42,127,782858692
82,6,10,Ticks_ISO_T2_5,43,1,48,53,782866144
82,6,10,Ticks_ISO_T2_5,44,1,48,61,783358004
82,6,10,Ticks_ISO_T2_5,45,5,42,127,783359572
82,6,10,Ticks_ISO_T2_5,46,5,42,127,783859052
82,6,10,Ticks_ISO_T2_5,47,1,48,52,783861800
82,6,10,Ticks_ISO_T2_5,48,5,42,127,784358820
82,6,10,Ticks_ISO_T2_5,49,1,48,53,784369492
82,6,10,Ticks_ISO_T2_5,50,1,48,48,784848304
82,6,10,Ticks_ISO_T2_5,51,5,42,127,784858436
82,6,10,Ticks_ISO_T2_5,52,1,48,63,785355772
82,6,10,Ticks_ISO_T2_5,53,5,42,127,785359176
82,6,10,Ticks_ISO_T2_5,54,1,48,51,785840732
82,6,10,Ticks_ISO_T2_5,55,5,42,127,785858796
82,6,10,Ticks_ISO_T2_5,56,1,48,63,786335864
82,6,10,Ticks_ISO_T2_5,57,5,42,127,786358712
82,6,10,Ticks_ISO_T2_5,58,1,48,50,786837656
82,6,10,Ticks_ISO_T2_5,59,5,42,127,786859528
82,6,10,Ticks_ISO_T2_5,60,1,48,64,787332336
82,6,10,Ticks_ISO_T2_5,61,5,42,127,787359072
82,6,10,Ticks_ISO_T2_5,62,5,42,127,787858776
82,6,10,Ticks_ISO_T2_5,63,1,48,52,787863692
82,6,10,Ticks_ISO_T2_5,64,1,48,70,788356652
82,6,10,Ticks_ISO_T2_5,65,5,42,127,788358612
82,6,10,Ticks_ISO_T2_5,66,1,48,55,788830672
82,6,10,Ticks_ISO_T2_5,67,5,42,127,788859500
82,6,10,Ticks_ISO_T2_5,68,1,48,68,789342184
82,6,10,Ticks_ISO_T2_5,69,5,42,127,789358900
82,6,10,Ticks_ISO_T2_5,70,5,42,127,789858676
82,6,10,Ticks_ISO_T2_5,71,1,48,49,789888644
82,6,10,Ticks_ISO_T2_5,72,5,42,127,790359640
82,6,10,Ticks_ISO_T2_5,73,1,48,59,790364852
82,6,10,Ticks_ISO_T2_5,74,1,48,52,790858432
82,6,10,Ticks_ISO_T2_5,75,5,42,127,790860000
82,6,10,Ticks_ISO_T2_5,76,5,42,127,791358804
82,6,10,Ticks_ISO_T2_5,77,1,48,58,791384212
82,6,10,Ticks_ISO_T2_5,78,5,42,127,791858648
82,6,10,Ticks_ISO_T2_5,79,1,48,65,791867976
82,6,10,Ticks_ISO_T2_5,80,5,42,127,792359536
82,6,10,Ticks_ISO_T2_5,81,1,48,62,792364080
82,6,10,Ticks_ISO_T2_5,82,5,42,127,792858936
82,6,10,Ticks_ISO_T2_5,83,1,48,49,792869012
82,6,10,Ticks_ISO_T2_5,84,1,48,62,793357400
82,6,10,Ticks_ISO_T2_5,85,5,42,127,793358748
82,6,10,Ticks_ISO_T2_5,86,5,42,127,793858376
82,6,10,Ticks_ISO_T2_5,87,1,48,56,793867776
82,6,10,Ticks_ISO_T2_5,88,5,42,127,794359560
82,6,10,Ticks_ISO_T2_5,89,1,48,62,794368816
82,6,10,Ticks_ISO_T2_5,90,5,42,127,794858812
82,6,10,Ticks_ISO_T2_5,91,1,48,53,794878460
82,6,10,Ticks_ISO_T2_5,92,1,48,64,795357376
82,6,10,Ticks_ISO_T2_5,93,5,42,127,795358720
82,6,10,Ticks_ISO_T2_5,94,1,48,54,795852544
82,6,10,Ticks_ISO_T2_5,95,5,42,127,795859536
82,6,10,Ticks_ISO_T2_5,96,1,48,66,796341400
82,6,10,Ticks_ISO_T2_5,97,5,42,127,796358936
82,6,10,Ticks_ISO_T2_5,98,1,48,57,796840568
82,6,10,Ticks_ISO_T2_5,99,5,42,127,796858632
82,6,10,Ticks_ISO_T2_5,100,1,48,62,797351480
82,6,10,Ticks_ISO_T2_5,101,5,42,127,797358472
82,6,10,Ticks_ISO_T2_5,102,1,48,54,797852748
82,6,10,Ticks_ISO_T2_5,103,5,42,127,797859364
82,6,10,Ticks_ISO_T2_5,104,5,42,127,798358844
82,6,10,Ticks_ISO_T2_5,105,1,48,64,798361508
82,6,10,Ticks_ISO_T2_5,106,1,48,53,798809428
82,6,10,Ticks_ISO_T2_5,107,5,42,127,798858456
82,6,10,Ticks_ISO_T2_5,108,1,48,68,799340164
82,6,10,Ticks_ISO_T2_5,109,5,42,127,799359420
82,6,10,Ticks_ISO_T2_5,110,1,48,61,799830956
82,6,10,Ticks_ISO_T2_5,111,5,42,127,799859264
82,6,10,Ticks_ISO_T2_5,112,1,48,64,800353464
82,6,10,Ticks_ISO_T2_5,113,5,42,127,800358736
82,6,10,Ticks_ISO_T2_5,114,1,48,51,800852484
82,6,10,Ticks_ISO_T2_5,115,5,42,127,800858504
82,6,10,Ticks_ISO_T2_5,116,1,48,69,801339764
82,6,10,Ticks_ISO_T2_5,117,5,42,127,801359320
82,6,10,Ticks_ISO_T2_5,118,5,42,127,801859020
82,6,10,Ticks_ISO_T2_5,119,1,48,44,801880244
82,6,10,Ticks_ISO_T2_5,120,5,42,127,802358568
82,6,10,Ticks_ISO_T2_5,121,1,48,59,802368344
82,6,10,Ticks_ISO_T2_5,122,5,42,127,802859312
82,6,10,Ticks_ISO_T2_5,123,1,48,38,802875668
82,6,10,Ticks_ISO_T2_5,124,5,42,127,803359156
82,6,10,Ticks_ISO_T2_5,125,1,48,59,803367064
82,6,10,Ticks_ISO_T2_5,126,5,42,127,803858748
82,6,10,Ticks_ISO_T2_5,127,1,48,58,803871364
82,6,10,Ticks_ISO_T2_5,128,5,42,127,804358420
82,6,10,Ticks_ISO_T2_5,129,1,48,55,804375696
82,6,10,Ticks_ISO_T2_5,130,5,42,127,804859160
82,6,10,Ticks_ISO_T2_5,131,1,48,73,804864668
82,6,10,Ticks_ISO_T2_5,132,5,42,127,805359080
82,6,10,Ticks_ISO_T2_5,133,1,48,61,805379404
82,6,10,Ticks_ISO_T2_5,134,5,42,127,805858552
82,6,10,Ticks_ISO_T2_5,135,1,48,64,805866004
82,6,10,Ticks_ISO_T2_5,136,5,42,127,806359364
82,6,10,Ticks_ISO_T2_5,137,1,48,45,806360924
82,6,10,Ticks_ISO_T2_5,138,5,42,127,806859208
82,6,10,Ticks_ISO_T2_5,139,1,48,71,806882144
82,6,10,Ticks_ISO_T2_5,140,5,42,127,807358976
82,6,10,Ticks_ISO_T2_5,141,1,48,66,807374808
82,6,10,Ticks_ISO_T2_5,142,5,42,127,807858524
82,6,10,Ticks_ISO_T2_5,143,1,48,36,807867628
82,6,10,Ticks_ISO_T2_5,144,5,42,127,808359336
82,6,10,Ticks_ISO_T2_5,145,1,48,62,808363056
82,6,10,Ticks_ISO_T2_5,146,1,48,67,808848144
82,6,10,Ticks_ISO_T2_5,147,5,42,127,808859176
82,6,10,Ticks_ISO_T2_5,148,5,42,127,809358580
82,6,10,Ticks_ISO_T2_5,149,1,48,54,809361320
82,6,10,Ticks_ISO_T2_5,150,1,48,58,809855092
82,6,10,Ticks_ISO_T2_5,151,5,42,127,809858268
82,6,10,Ticks_ISO_T2_5,152,1,48,62,810338932
82,6,10,Ticks_ISO_T2_5,153,5,42,127,810359160
82,6,10,Ticks_ISO_T2_5,154,1,48,65,810823660
82,6,10,Ticks_ISO_T2_5,155,5,42,127,810859076
82,6,10,Ticks_ISO_T2_5,156,5,42,127,811358704
82,6,10,Ticks_ISO_T2_5,157,1,48,74,811385088
82,6,10,Ticks_ISO_T2_5,158,5,42,127,811859300
82,6,10,Ticks_ISO_T2_5,159,1,48,65,811872064
82,6,10,Ticks_ISO_T2_5,160,5,42,127,812358992
82,6,10,Ticks_ISO_T2_5,161,1,48,54,812364276
82,6,10,Ticks_ISO_T2_5,162,5,42,127,812858688
82,6,10,Ticks_ISO_T2_5,163,1,48,65,812871080
82,6,10,Ticks_ISO_T2_5,164,1,48,60,813346372
82,6,10,Ticks_ISO_T2_5,165,5,42,127,813358452
82,6,10,Ticks_ISO_T2_5,166,5,42,127,813859124
82,6,10,Ticks_ISO_T2_5,167,1,48,58,813871888
82,6,10,Ticks_ISO_T2_5,168,5,42,127,814358968
82,6,10,Ticks_ISO_T2_5,169,1,48,51,814367324
82,6,10,Ticks_ISO_T2_5,170,5,42,127,814858564
82,6,10,Ticks_ISO_T2_5,171,1,48,49,814860352
82,6,10,Ticks_ISO_T2_5,172,1,48,65,815348640
82,6,10,Ticks_ISO_T2_5,173,5,42,127,815359300
82,6,10,Ticks_ISO_T2_5,174,1,48,66,815851104
82,6,10,Ticks_ISO_T2_5,175,5,42,127,815858920
82,6,10,Ticks_ISO_T2_5,176,5,42,127,816358844
82,6,10,Ticks_ISO_T2_5,177,1,48,70,816361436
82,6,10,Ticks_ISO_T2_5,178,1,48,57,816838452
82,6,10,Ticks_ISO_T2_5,179,5,42,127,816858604
82,6,10,Ticks_ISO_T2_5,180,1,48,70,817321096
82,6,10,Ticks_ISO_T2_5,181,5,42,127,817359124
82,6,10,Ticks_ISO_T2_5,182,1,48,66,817849360
82,6,10,Ticks_ISO_T2_5,183,5,42,127,817859040
82,6,10,Ticks_ISO_T2_5,184,5,42,127,818358596
82,6,10,Ticks_ISO_T2_5,185,1,48,69,818365224
82,6,10,Ticks_ISO_T2_5,186,5,42,127,818859484
82,6,10,Ticks_ISO_T2_5,187,1,48,56,818880704
82,6,10,Ticks_ISO_T2_5,188,5,42,127,819359104
82,6,10,Ticks_ISO_T2_5,189,1,48,72,819376512
82,6,10,Ticks_ISO_T2_5,190,5,42,127,819858940
82,6,10,Ticks_ISO_T2_5,191,1,48,40,819865124
82,6,10,Ticks_ISO_T2_5,192,5,42,127,820358412
82,6,10,Ticks_ISO_T2_5,193,1,48,59,820369308
82,6,10,Ticks_ISO_T2_5,194,5,42,127,820859304
82,6,10,Ticks_ISO_T2_5,195,1,48,49,820885308
82,6,10,Ticks_ISO_T2_5,196,5,42,127,821358928
82,6,10,Ticks_ISO_T2_5,197,1,48,73,821377900
82,6,10,Ticks_ISO_T2_5,198,5,42,127,821858768
82,6,10,Ticks_ISO_T2_5,199,1,48,67,821868848
82,6,10,Ticks_ISO_T2_5,200,5,42,127,822359364
82,6,10,Ticks_ISO_T2_5,201,1,48,55,822383652
82,6,10,Ticks_ISO_T2_5,202,5,42,127,822859132
82,6,10,Ticks_ISO_T2_5,203,1,48,59,822861796
82,6,10,Ticks_ISO_T2_5,204,1,48,55,823334620
82,6,10,Ticks_ISO_T2_5,205,5,42,127,823358968
82,6,10,Ticks_ISO_T2_5,206,1,48,76,823853096
82,6,10,Ticks_ISO_T2_5,207,5,42,127,823858736
82,6,10,Ticks_ISO_T2_5,208,1,48,62,824341344
82,6,10,Ticks_ISO_T2_5,209,5,42,127,824359404
82,6,10,Ticks_ISO_T2_5,210,1,48,52,824836528
82,6,10,Ticks_ISO_T2_5,211,5,42,127,824859024
82,6,10,Ticks_ISO_T2_5,212,1,48,56,825354992
82,6,10,Ticks_ISO_T2_5,213,5,42,127,825359140
82,6,10,Ticks_ISO_T2_5,214,5,42,127,825858916
82,6,10,Ticks_ISO_T2_5,215,1,48,60,825872884
82,6,10,Ticks_ISO_T2_5,216,5,42,127,826359212
82,6,10,Ticks_ISO_T2_5,217,1,48,51,826373552
82,6,10,Ticks_ISO_T2_5,218,5,42,127,826858904
82,6,10,Ticks_ISO_T2_5,219,1,48,50,826861348
82,6,10,Ticks_ISO_T2_5,220,1,48,66,827340384
82,6,10,Ticks_ISO_T2_5,221,5,42,127,827358740
82,6,10,Ticks_ISO_T2_5,222,5,42,127,827859340
82,6,10,Ticks_ISO_T2_5,223,1,48,65,827864108
82,6,10,Ticks_ISO_T2_5,224,5,42,127,828358960
82,6,10,Ticks_ISO_T2_5,225,1,48,54,828372176
82,6,10,Ticks_ISO_T2_5,226,1,48,57,828858880
82,6,10,Ticks_ISO_T2_5,227,5,42,127,828860292
82,6,10,Ticks_ISO_T2_5,228,1,48,55,829357824
82,6,10,Ticks_ISO_T2_5,229,5,42,127,829359392
82,6,10,Ticks_ISO_T2_5,230,1,48,54,829858036
82,6,10,Ticks_ISO_T2_5,231,5,42,127,829859604
82,6,10,Ticks_ISO_T2_5,232,5,42,127,830358788
82,6,10,Ticks_ISO_T2_5,233,1,48,51,830369836
82,6,10,Ticks_ISO_T2_5,234,5,42,127,830858852
82,6,10,Ticks_ISO_T2_5,235,1,48,50,830875580
82,6,10,Ticks_ISO_T2_5,236,1,48,58,831334196
82,6,10,Ticks_ISO_T2_5,237,5,42,127,831359292
82,6,10,Ticks_ISO_T2_5,238,1,48,47,831826932
82,6,10,Ticks_ISO_T2_5,239,5,42,127,831858912
82,6,10,Ticks_ISO_T2_5,240,5,42,127,832358760
82,6,10,Ticks_ISO_T2_5,241,1,48,62,832368608
82,6,10,Ticks_ISO_T2_5,242,5,42,127,832858680
82,6,10,Ticks_ISO_T2_5,243,1,48,60,832880872
82,6,10,Ticks_ISO_T2_5,244,5,42,127,833359272
82,6,10,Ticks_ISO_T2_5,245,1,48,56,833360832
82,6,10,Ticks_ISO_T2_5,246,5,42,127,833858968
82,6,10,Ticks_ISO_T2_5,247,1,48,63,833874352
82,6,10,Ticks_ISO_T2_5,248,5,42,127,834358736
82,6,10,Ticks_ISO_T2_5,249,1,48,53,834365448
82,6,10,Ticks_ISO_T2_5,250,5,42,127,834859476
82,6,10,Ticks_ISO_T2_5,251,1,48,51,834870000
82,6,10,Ticks_ISO_T2_5,252,1,48,55,835359172
82,6,10,Ticks_ISO_T2_5,253,5,42,127,835360660
82,6,10,Ticks_ISO_T2_5,254,5,42,127,835858720
82,6,10,Ticks_ISO_T2_5,255,1,48,59,835877692
82,6,10,Ticks_ISO_T2_5,256,5,42,127,836358684
82,6,10,Ticks_ISO_T2_5,257,1,48,56,836379480
82,6,10,Ticks_ISO_T2_5,0,9999,9999,9999,771856476
82,6,10,Ticks_ISO_T2_5,1,9999,9999,9999,772356168
82,6,10,Ticks_ISO_T2_5,2,9999,9999,9999,772856932
82,6,10,Ticks_ISO_T2_5,3,9999,9999,9999,773356624
82,6,10,Ticks_ISO_T2_5,4,9999,9999,9999,773856320
82,6,10,Ticks_ISO_T2_5,5,9999,9999,9999,774357052
82,6,10,Ticks_ISO_T2_5,6,9999,9999,9999,774856828
82,6,10,Ticks_ISO_T2_5,7,9999,9999,9999,775356524
82,6,10,Ticks_ISO_T2_5,8,9999,9999,9999,775856244
82,6,10,Ticks_ISO_T2_5,9,9999,9999,9999,776356952
82,6,10,Ticks_ISO_T2_5,10,9999,9999,9999,776856652
82,6,10,Ticks_ISO_T2_5,11,9999,9999,9999,777356344
82,6,10,Ticks_ISO_T2_5,12,9999,9999,9999,777856112
82,6,10,Ticks_ISO_T2_5,13,9999,9999,9999,778356852
82,6,10,Ticks_ISO_T2_5,14,9999,9999,9999,778856552
82,6,10,Ticks_ISO_T2_5,15,9999,9999,9999,779356244
82,6,10,Ticks_ISO_T2_5,16,9999,9999,9999,779856984
82,6,10,Ticks_ISO_T2_5,17,9999,9999,9999,780356684
82,6,10,Ticks_ISO_T2_5,18,9999,9999,9999,780856372
82,6,10,Ticks_ISO_T2_5,19,9999,9999,9999,781356148
82,6,10,Ticks_ISO_T2_5,20,9999,9999,9999,781856884
82,6,10,Ticks_ISO_T2_5,21,9999,9999,9999,782356588
82,6,10,Ticks_ISO_T2_5,22,9999,9999,9999,782856256
82,6,10,Ticks_ISO_T2_5,23,9999,9999,9999,783356996
82,6,10,Ticks_ISO_T2_5,24,9999,9999,9999,783856692
82,6,10,Ticks_ISO_T2_5,25,9999,9999,9999,784356460
82,6,10,Ticks_ISO_T2_5,26,9999,9999,9999,784856148
82,6,10,Ticks_ISO_T2_5,27,9999,9999,9999,785356888
82,6,10,Ticks_ISO_T2_5,28,9999,9999,9999,785856584
82,6,10,Ticks_ISO_T2_5,29,9999,9999,9999,786356280
82,6,10,Ticks_ISO_T2_5,30,9999,9999,9999,786857020
82,6,10,Ticks_ISO_T2_5,31,9999,9999,9999,787356788
82,6,10,Ticks_ISO_T2_5,32,9999,9999,9999,787856488
82,6,10,Ticks_ISO_T2_5,33,9999,9999,9999,788356200
82,6,10,Ticks_ISO_T2_5,34,9999,9999,9999,788856920
82,6,10,Ticks_ISO_T2_5,35,9999,9999,9999,789356616
82,6,10,Ticks_ISO_T2_5,36,9999,9999,9999,789856316
82,6,10,Ticks_ISO_T2_5,37,9999,9999,9999,790357056
82,6,10,Ticks_ISO_T2_5,38,9999,9999,9999,790856824
82,6,10,Ticks_ISO_T2_5,39,9999,9999,9999,791356520
82,6,10,Ticks_ISO_T2_5,40,9999,9999,9999,791856212
82,6,10,Ticks_ISO_T2_5,41,9999,9999,9999,792356952
82,6,10,Ticks_ISO_T2_5,42,9999,9999,9999,792856648
82,6,10,Ticks_ISO_T2_5,43,9999,9999,9999,793356392
82,6,10,Ticks_ISO_T2_5,44,9999,9999,9999,793856088
82,6,10,Ticks_ISO_T2_5,45,9999,9999,9999,794356828
82,6,10,Ticks_ISO_T2_5,46,9999,9999,9999,794856524
82,6,10,Ticks_ISO_T2_5,47,9999,9999,9999,795356220
82,6,10,Ticks_ISO_T2_5,48,9999,9999,9999,795856956
82,6,10,Ticks_ISO_T2_5,49,9999,9999,9999,796356724
82,6,10,Ticks_ISO_T2_5,50,9999,9999,9999,796856420
82,6,10,Ticks_ISO_T2_5,51,9999,9999,9999,797356112
82,6,10,Ticks_ISO_T2_5,52,9999,9999,9999,797856852
82,6,10,Ticks_ISO_T2_5,53,9999,9999,9999,798356556
82,6,10,Ticks_ISO_T2_5,54,9999,9999,9999,798856244
82,6,10,Ticks_ISO_T2_5,55,9999,9999,9999,799356984
82,6,10,Ticks_ISO_T2_5,56,9999,9999,9999,799856756
82,6,10,Ticks_ISO_T2_5,57,9999,9999,9999,800356448
82,6,10,Ticks_ISO_T2_5,58,9999,9999,9999,800856144
82,6,10,Ticks_ISO_T2_5,59,9999,9999,9999,801356884
82,6,10,Ticks_ISO_T2_5,60,9999,9999,9999,801856584
82,6,10,Ticks_ISO_T2_5,61,9999,9999,9999,802356284
82,6,10,Ticks_ISO_T2_5,62,9999,9999,9999,802857024
82,6,10,Ticks_ISO_T2_5,63,9999,9999,9999,803356792
82,6,10,Ticks_ISO_T2_5,64,9999,9999,9999,803856464
82,6,10,Ticks_ISO_T2_5,65,9999,9999,9999,804356208
82,6,10,Ticks_ISO_T2_5,66,9999,9999,9999,804856948
82,6,10,Ticks_ISO_T2_5,67,9999,9999,9999,805356644
82,6,10,Ticks_ISO_T2_5,68,9999,9999,9999,805856336
82,6,10,Ticks_ISO_T2_5,69,9999,9999,9999,806357080
82,6,10,Ticks_ISO_T2_5,70,9999,9999,9999,806856772
82,6,10,Ticks_ISO_T2_5,71,9999,9999,9999,807356540
82,6,10,Ticks_ISO_T2_5,72,9999,9999,9999,807856236
82,6,10,Ticks_ISO_T2_5,73,9999,9999,9999,808356976
82,6,10,Ticks_ISO_T2_5,74,9999,9999,9999,808856668
82,6,10,Ticks_ISO_T2_5,75,9999,9999,9999,809356368
82,6,10,Ticks_ISO_T2_5,76,9999,9999,9999,809856056
82,6,10,Ticks_ISO_T2_5,77,9999,9999,9999,810356800
82,6,10,Ticks_ISO_T2_5,78,9999,9999,9999,810856568
82,6,10,Ticks_ISO_T2_5,79,9999,9999,9999,811356272
82,6,10,Ticks_ISO_T2_5,80,9999,9999,9999,811857012
82,6,10,Ticks_ISO_T2_5,81,9999,9999,9999,812356704
82,6,10,Ticks_ISO_T2_5,82,9999,9999,9999,812856400
82,6,10,Ticks_ISO_T2_5,83,9999,9999,9999,813356092
82,6,10,Ticks_ISO_T2_5,84,9999,9999,9999,813856836
82,6,10,Ticks_ISO_T2_5,85,9999,9999,9999,814356532
82,6,10,Ticks_ISO_T2_5,86,9999,9999,9999,814856276
82,6,10,Ticks_ISO_T2_5,87,9999,9999,9999,815357012
82,6,10,Ticks_ISO_T2_5,88,9999,9999,9999,815856708
82,6,10,Ticks_ISO_T2_5,89,9999,9999,9999,816356408
82,6,10,Ticks_ISO_T2_5,90,9999,9999,9999,816856172
82,6,10,Ticks_ISO_T2_5,91,9999,9999,9999,817356912
82,6,10,Ticks_ISO_T2_5,92,9999,9999,9999,817856608
82,6,10,Ticks_ISO_T2_5,93,9999,9999,9999,818356308
82,6,10,Ticks_ISO_T2_5,94,9999,9999,9999,818857048
82,6,10,Ticks_ISO_T2_5,95,9999,9999,9999,819356744
82,6,10,Ticks_ISO_T2_5,96,9999,9999,9999,819856504
82,6,10,Ticks_ISO_T2_5,97,9999,9999,9999,820356200
82,6,10,Ticks_ISO_T2_5,98,9999,9999,9999,820856944
82,6,10,Ticks_ISO_T2_5,99,9999,9999,9999,821356640
82,6,10,Ticks_ISO_T2_5,100,9999,9999,9999,821856336
82,6,10,Ticks_ISO_T2_5,101,9999,9999,9999,822357076
82,6,10,Ticks_ISO_T2_5,102,9999,9999,9999,822856772
82,6,10,Ticks_ISO_T2_5,103,9999,9999,9999,823356532
82,6,10,Ticks_ISO_T2_5,104,9999,9999,9999,823856228
82,6,10,Ticks_ISO_T2_5,105,9999,9999,9999,824356968
82,6,10,Ticks_ISO_T2_5,106,9999,9999,9999,824856664
82,6,10,Ticks_ISO_T2_5,107,9999,9999,9999,825356408
82,6,10,Ticks_ISO_T2_5,108,9999,9999,9999,825856108
82,6,10,Ticks_ISO_T2_5,109,9999,9999,9999,826356852
82,6,10,Ticks_ISO_T2_5,110,9999,9999,9999,826856544
82,6,10,Ticks_ISO_T2_5,111,9999,9999,9999,827356232
82,6,10,Ticks_ISO_T2_5,112,9999,9999,9999,827856980
82,6,10,Ticks_ISO_T2_5,113,9999,9999,9999,828356672
82,6,10,Ticks_ISO_T2_5,114,9999,9999,9999,828856444
82,6,10,Ticks_ISO_T2_5,115,9999,9999,9999,829356140
82,6,10,Ticks_ISO_T2_5,116,9999,9999,9999,829856880
82,6,10,Ticks_ISO_T2_5,117,9999,9999,9999,830356576
82,6,10,Ticks_ISO_T2_5,118,9999,9999,9999,830856268
82,6,10,Ticks_ISO_T2_5,119,9999,9999,9999,831357004
82,6,10,Ticks_ISO_T2_5,120,9999,9999,9999,831856700
82,6,10,Ticks_ISO_T2_5,121,9999,9999,9999,832356476
82,6,10,Ticks_ISO_T2_5,122,9999,9999,9999,832856172
82,6,10,Ticks_ISO_T2_5,123,9999,9999,9999,833356912
82,6,10,Ticks_ISO_T2_5,124,9999,9999,9999,833856608
82,6,10,Ticks_ISO_T2_5,125,9999,9999,9999,834356300
82,6,10,Ticks_ISO_T2_5,126,9999,9999,9999,834857040
82,6,10,Ticks_ISO_T2_5,127,9999,9999,9999,835356736
82,6,10,Ticks_ISO_T2_5,128,9999,9999,9999,835856480
82,6,10,Ticks_ISO_T2_5,129,9999,9999,9999,836356176
82,7,20,Ticks_Linear_8,0,5,42,127,846738768
82,7,20,Ticks_Linear_8,1,1,48,36,847236724
82,7,20,Ticks_Linear_8,2,5,42,127,847559236
82,7,20,Ticks_Linear_8,3,5,42,127,848379352
82,7,20,Ticks_Linear_8,4,1,48,51,848388692
82,7,20,Ticks_Linear_8,5,5,42,127,849198420
82,7,20,Ticks_Linear_8,6,1,48,51,849246704
82,7,20,Ticks_Linear_8,7,1,48,59,849999744
82,7,20,Ticks_Linear_8,8,5,42,127,850018732
82,7,20,Ticks_Linear_8,9,1,48,55,850828500
82,7,20,Ticks_Linear_8,10,5,42,127,850829984
82,7,20,Ticks_Linear_8,11,1,48,61,851638704
82,7,20,Ticks_Linear_8,12,5,42,127,851639896
82,7,20,Ticks_Linear_8,13,1,48,64,852443840
82,7,20,Ticks_Linear_8,14,5,42,127,852448608
82,7,20,Ticks_Linear_8,15,5,42,127,853258672
82,7,20,Ticks_Linear_8,16,1,48,63,853260312
82,7,20,Ticks_Linear_8,17,1,48,59,854052904
82,7,20,Ticks_Linear_8,18,5,42,127,854068676
82,7,20,Ticks_Linear_8,19,1,48,51,854853448
82,7,20,Ticks_Linear_8,20,5,42,127,854869372
82,7,20,Ticks_Linear_8,21,1,48,55,855623440
82,7,20,Ticks_Linear_8,22,5,42,127,855669392
82,7,20,Ticks_Linear_8,23,1,48,57,856459116
82,7,20,Ticks_Linear_8,24,5,42,127,856468968
82,7,20,Ticks_Linear_8,25,1,48,57,857226644
82,7,20,Ticks_Linear_8,26,5,42,127,857268692
82,7,20,Ticks_Linear_8,27,1,48,56,858019624
82,7,20,Ticks_Linear_8,28,5,42,127,858069240
82,7,20,Ticks_Linear_8,29,5,42,127,858859160
82,7,20,Ticks_Linear_8,30,1,48,64,858874332
82,7,20,Ticks_Linear_8,31,1,48,59,859630684
82,7,20,Ticks_Linear_8,32,5,42,127,859649292
82,7,20,Ticks_Linear_8,33,1,48,63,860411084
82,7,20,Ticks_Linear_8,34,5,42,127,860439156
82,7,20,Ticks_Linear_8,35,1,48,55,861206644
82,7,20,Ticks_Linear_8,36,5,42,127,861229516
82,7,20,Ticks_Linear_8,37,1,48,51,861990260
82,7,20,Ticks_Linear_8,38,5,42,127,862029244
82,7,20,Ticks_Linear_8,39,1,48,54,862793720
82,7,20,Ticks_Linear_8,40,5,42,127,862808448
82,7,20,Ticks_Linear_8,41,5,42,127,863588856
82,7,20,Ticks_Linear_8,42,1,48,65,863602984
82,7,20,Ticks_Linear_8,43,5,42,127,864369184
82,7,20,Ticks_Linear_8,44,1,48,69,864377104
82,7,20,Ticks_Linear_8,45,1,48,67,865147316
82,7,20,Ticks_Linear_8,46,5,42,127,865149280
82,7,20,Ticks_Linear_8,47,1,48,52,865928344
82,7,20,Ticks_Linear_8,48,5,42,127,865929904
82,7,20,Ticks_Linear_8,49,1,48,57,866694612
82,7,20,Ticks_Linear_8,50,5,42,127,866699000
82,7,20,Ticks_Linear_8,51,5,42,127,867468704
82,7,20,Ticks_Linear_8,52,1,48,59,867510988
82,7,20,Ticks_Linear_8,53,5,42,127,868238844
82,7,20,Ticks_Linear_8,54,1,48,61,868265248
82,7,20,Ticks_Linear_8,55,1,48,63,868960488
82,7,20,Ticks_Linear_8,56,5,42,127,869009052
82,7,20,Ticks_Linear_8,57,1,48,65,869757148
82,7,20,Ticks_Linear_8,58,5,42,127,869778900
82,7,20,Ticks_Linear_8,59,5,42,127,870538568
82,7,20,Ticks_Linear_8,60,1,48,70,870566020
82,7,20,Ticks_Linear_8,61,5,42,127,871298304
82,7,20,Ticks_Linear_8,62,1,48,68,871315116
82,7,20,Ticks_Linear_8,63,1,48,62,872035440
82,7,20,Ticks_Linear_8,64,5,42,127,872059224
82,7,20,Ticks_Linear_8,65,5,42,127,872819040
82,7,20,Ticks_Linear_8,66,1,48,63,872820376
82,7,20,Ticks_Linear_8,67,5,42,127,873579072
82,7,20,Ticks_Linear_8,68,1,48,49,873586848
82,7,20,Ticks_Linear_8,69,5,42,127,874328328
82,7,20,Ticks_Linear_8,70,1,48,57,874350540
82,7,20,Ticks_Linear_8,71,5,42,127,875078924
82,7,20,Ticks_Linear_8,72,1,48,68,875090284
82,7,20,Ticks_Linear_8,73,5,42,127,875828920
82,7,20,Ticks_Linear_8,74,1,48,69,875865140
82,7,20,Ticks_Linear_8,75,1,48,63,876556464
82,7,20,Ticks_Linear_8,76,5,42,127,876579140
82,7,20,Ticks_Linear_8,77,5,42,127,877328844
82,7,20,Ticks_Linear_8,78,1,48,72,877336692
82,7,20,Ticks_Linear_8,79,5,42,127,878069080
82,7,20,Ticks_Linear_8,80,1,48,73,878097316
82,7,20,Ticks_Linear_8,81,5,42,127,878808372
82,7,20,Ticks_Linear_8,82,1,48,76,878840768
82,7,20,Ticks_Linear_8,83,5,42,127,879548708
82,7,20,Ticks_Linear_8,84,1,48,65,879557076
82,7,20,Ticks_Linear_8,85,1,48,65,880289344
82,7,20,Ticks_Linear_8,86,5,42,127,880290680
82,7,20,Ticks_Linear_8,87,5,42,127,881028636
82,7,20,Ticks_Linear_8,88,1,48,56,881070992
82,7,20,Ticks_Linear_8,89,5,42,127,881758636
82,7,20,Ticks_Linear_8,90,1,48,59,881768052
82,7,20,Ticks_Linear_8,91,5,42,127,882488644
82,7,20,Ticks_Linear_8,92,1,48,54,882504632
82,7,20,Ticks_Linear_8,93,1,48,62,883218196
82,7,20,Ticks_Linear_8,94,5,42,127,883219836
82,7,20,Ticks_Linear_8,95,5,42,127,883948852
82,7,20,Ticks_Linear_8,96,1,48,52,883953164
82,7,20,Ticks_Linear_8,97,1,48,48,884645472
82,7,20,Ticks_Linear_8,98,5,42,127,884678996
82,7,20,Ticks_Linear_8,99,1,48,63,885368596
82,7,20,Ticks_Linear_8,100,5,42,127,885398816
82,7,20,Ticks_Linear_8,101,1,48,55,886085036
82,7,20,Ticks_Linear_8,102,5,42,127,886118636
82,7,20,Ticks_Linear_8,103,1,48,56,886826568
82,7,20,Ticks_Linear_8,104,5,42,127,886838676
82,7,20,Ticks_Linear_8,105,5,42,127,887558552
82,7,20,Ticks_Linear_8,106,1,48,57,887573000
82,7,20,Ticks_Linear_8,107,5,42,127,888279568
82,7,20,Ticks_Linear_8,108,1,48,57,888309648
82,7,20,Ticks_Linear_8,109,5,42,127,888988980
82,7,20,Ticks_Linear_8,110,1,48,60,889021300
82,7,20,Ticks_Linear_8,111,5,42,127,889698616
82,7,20,Ticks_Linear_8,112,1,48,68,889726288
82,7,20,Ticks_Linear_8,113,5,42,127,890409296
82,7,20,Ticks_Linear_8,114,1,48,65,890421776
82,7,20,Ticks_Linear_8,115,5,42,127,891118832
82,7,20,Ticks_Linear_8,116,1,48,65,891139848
82,7,20,Ticks_Linear_8,117,5,42,127,891828464
82,7,20,Ticks_Linear_8,118,1,48,66,891867980
82,7,20,Ticks_Linear_8,119,5,42,127,892528888
82,7,20,Ticks_Linear_8,120,1,48,68,892542932
82,7,20,Ticks_Linear_8,121,5,42,127,893229308
82,7,20,Ticks_Linear_8,122,1,48,65,893263952
82,7,20,Ticks_Linear_8,123,5,42,127,893939216
82,7,20,Ticks_Linear_8,124,1,48,70,893940180
82,7,20,Ticks_Linear_8,125,1,48,75,894633596
82,7,20,Ticks_Linear_8,126,5,42,127,894638436
82,7,20,Ticks_Linear_8,127,5,42,127,895338864
82,7,20,Ticks_Linear_8,128,1,48,67,895356428
82,7,20,Ticks_Linear_8,129,1,48,72,896012328
82,7,20,Ticks_Linear_8,130,5,42,127,896029096
82,7,20,Ticks_Linear_8,131,5,42,127,896719388
82,7,20,Ticks_Linear_8,132,1,48,71,896759580
82,7,20,Ticks_Linear_8,133,5,42,127,897409328
82,7,20,Ticks_Linear_8,134,1,48,77,897434688
82,7,20,Ticks_Linear_8,135,5,42,127,898098444
82,7,20,Ticks_Linear_8,136,1,48,70,898114592
82,7,20,Ticks_Linear_8,137,1,48,76,898785308
82,7,20,Ticks_Linear_8,138,5,42,127,898788652
82,7,20,Ticks_Linear_8,139,5,42,127,899468560
82,7,20,Ticks_Linear_8,140,1,48,80,899491300
82,7,20,Ticks_Linear_8,141,5,42,127,900148540
82,7,20,Ticks_Linear_8,142,1,48,61,900175836
82,7,20,Ticks_Linear_8,143,5,42,127,900828492
82,7,20,Ticks_Linear_8,144,1,48,70,900832360
82,7,20,Ticks_Linear_8,145,5,42,127,901508400
82,7,20,Ticks_Linear_8,146,1,48,77,901522452
82,7,20,Ticks_Linear_8,147,5,42,127,902189352
82,7,20,Ticks_Linear_8,148,1,48,71,902192396
82,7,20,Ticks_Linear_8,149,5,42,127,902869232
82,7,20,Ticks_Linear_8,150,1,48,76,902891972
82,7,20,Ticks_Linear_8,151,5,42,127,903539100
82,7,20,Ticks_Linear_8,152,1,48,71,903575988
82,7,20,Ticks_Linear_8,153,1,48,83,904208744
82,7,20,Ticks_Linear_8,154,5,42,127,904210156
82,7,20,Ticks_Linear_8,155,5,42,127,904878364
82,7,20,Ticks_Linear_8,156,1,48,65,904898860
82,7,20,Ticks_Linear_8,157,1,48,88,905541368
82,7,20,Ticks_Linear_8,158,5,42,127,905549200
82,7,20,Ticks_Linear_8,159,5,42,127,906208716
82,7,20,Ticks_Linear_8,160,1,48,79,906220824
82,7,20,Ticks_Linear_8,161,5,42,127,906869224
82,7,20,Ticks_Linear_8,162,1,48,67,906886580
82,7,20,Ticks_Linear_8,163,1,48,62,907520524
82,7,20,Ticks_Linear_8,164,5,42,127,907528652
82,7,20,Ticks_Linear_8,165,5,42,127,908189016
82,7,20,Ticks_Linear_8,166,1,48,69,908211236
82,7,20,Ticks_Linear_8,167,5,42,127,908848552
82,7,20,Ticks_Linear_8,168,1,48,69,908860736
82,7,20,Ticks_Linear_8,169,5,42,127,909498852
82,7,20,Ticks_Linear_8,170,1,48,82,909525108
82,7,20,Ticks_Linear_8,171,5,42,127,910149248
82,7,20,Ticks_Linear_8,172,1,48,57,910167428
82,7,20,Ticks_Linear_8,173,5,42,127,910799248
82,7,20,Ticks_Linear_8,174,1,48,79,910837568
82,7,20,Ticks_Linear_8,175,5,42,127,911448524
82,7,20,Ticks_Linear_8,176,1,48,75,911475300
82,7,20,Ticks_Linear_8,177,5,42,127,912099044
82,7,20,Ticks_Linear_8,178,1,48,56,912111976
82,7,20,Ticks_Linear_8,179,1,48,66,912738060
82,7,20,Ticks_Linear_8,180,5,42,127,912739404
82,7,20,Ticks_Linear_8,181,5,42,127,913378552
82,7,20,Ticks_Linear_8,182,1,48,65,913417020
82,7,20,Ticks_Linear_8,183,5,42,127,914018540
82,7,20,Ticks_Linear_8,184,1,48,59,914055948
82,7,20,Ticks_Linear_8,185,1,48,80,914657824
82,7,20,Ticks_Linear_8,186,5,42,127,914659316
82,7,20,Ticks_Linear_8,187,1,48,73,915276492
82,7,20,Ticks_Linear_8,188,5,42,127,915298932
82,7,20,Ticks_Linear_8,189,1,48,78,915925072
82,7,20,Ticks_Linear_8,190,5,42,127,915928416
82,7,20,Ticks_Linear_8,191,5,42,127,916559200
82,7,20,Ticks_Linear_8,192,1,48,62,916575116
82,7,20,Ticks_Linear_8,193,1,48,79,917180840
82,7,20,Ticks_Linear_8,194,5,42,127,917188968
82,7,20,Ticks_Linear_8,195,1,48,70,917778820
82,7,20,Ticks_Linear_8,196,5,42,127,917818772
82,7,20,Ticks_Linear_8,197,5,42,127,918448708
82,7,20,Ticks_Linear_8,198,1,48,71,918457152
82,7,20,Ticks_Linear_8,199,5,42,127,919069008
82,7,20,Ticks_Linear_8,200,1,48,54,919070868
82,7,20,Ticks_Linear_8,201,5,42,127,919688672
82,7,20,Ticks_Linear_8,202,1,48,68,919719356
82,7,20,Ticks_Linear_8,203,5,42,127,920309016
82,7,20,Ticks_Linear_8,204,1,48,51,920313776
82,7,20,Ticks_Linear_8,205,5,42,127,920928488
82,7,20,Ticks_Linear_8,206,1,48,58,920943736
82,7,20,Ticks_Linear_8,207,5,42,127,921549132
82,7,20,Ticks_Linear_8,208,1,48,73,921615624
82,7,20,Ticks_Linear_8,209,5,42,127,922158416
82,7,20,Ticks_Linear_8,210,1,48,68,922175304
82,7,20,Ticks_Linear_8,211,5,42,127,922768648
82,7,20,Ticks_Linear_8,212,1,48,62,922809812
82,7,20,Ticks_Linear_8,213,5,42,127,923379104
82,7,20,Ticks_Linear_8,214,1,48,68,923403344
82,7,20,Ticks_Linear_8,215,5,42,127,923989364
82,7,20,Ticks_Linear_8,216,1,48,75,923992032
82,7,20,Ticks_Linear_8,217,1,48,72,924596884
82,7,20,Ticks_Linear_8,218,5,42,127,924598696
82,7,20,Ticks_Linear_8,219,5,42,127,925198700
82,7,20,Ticks_Linear_8,220,1,48,57,925233788
82,7,20,Ticks_Linear_8,221,5,42,127,925798896
82,7,20,Ticks_Linear_8,222,1,48,73,925816756
82,7,20,Ticks_Linear_8,223,5,42,127,926398872
82,7,20,Ticks_Linear_8,224,1,48,51,926425048
82,7,20,Ticks_Linear_8,225,5,42,127,926998872
82,7,20,Ticks_Linear_8,226,1,48,57,927009856
82,7,20,Ticks_Linear_8,227,1,48,56,927592800
82,7,20,Ticks_Linear_8,228,5,42,127,927598836
82,7,20,Ticks_Linear_8,229,5,42,127,928188932
82,7,20,Ticks_Linear_8,230,1,48,57,928197752
82,7,20,Ticks_Linear_8,231,5,42,127,928778720
82,7,20,Ticks_Linear_8,232,1,48,51,928804172
82,7,20,Ticks_Linear_8,233,5,42,127,929368384
82,7,20,Ticks_Linear_8,234,1,48,62,929397120
82,7,20,Ticks_Linear_8,235,5,42,127,929959220
82,7,20,Ticks_Linear_8,236,1,48,59,929974616
82,7,20,Ticks_Linear_8,237,5,42,127,930549084
82,7,20,Ticks_Linear_8,238,1,48,52,930565676
82,7,20,Ticks_Linear_8,239,5,42,127,931128788
82,7,20,Ticks_Linear_8,240,1,48,47,931191664
82,7,20,Ticks_Linear_8,241,5,42,127,931709216
82,7,20,Ticks_Linear_8,242,1,48,66,931748436
82,7,20,Ticks_Linear_8,243,1,48,65,932280684
82,7,20,Ticks_Linear_8,244,5,42,127,932288888
82,7,20,Ticks_Linear_8,245,1,48,57,932838948
82,7,20,Ticks_Linear_8,246,5,42,127,932868644
82,7,20,Ticks_Linear_8,247,1,48,59,933412356
82,7,20,Ticks_Linear_8,248,5,42,127,933449024
82,7,20,Ticks_Linear_8,249,1,48,64,934010164
82,7,20,Ticks_Linear_8,250,5,42,127,934018444
82,7,20,Ticks_Linear_8,251,5,42,127,934588844
82,7,20,Ticks_Linear_8,252,1,48,50,934593008
82,7,20,Ticks_Linear_8,253,5,42,127,935159084
82,7,20,Ticks_Linear_8,254,1,48,62,935166764
82,7,20,Ticks_Linear_8,255,5,42,127,935728456
82,7,20,Ticks_Linear_8,256,1,48,52,935747084
82,7,20,Ticks_Linear_8,257,5,42,127,936298776
82,7,20,Ticks_Linear_8,258,1,48,69,936306524
82,7,20,Ticks_Linear_8,259,5,42,127,936859132
82,7,20,Ticks_Linear_8,260,1,48,51,936870120
82,7,20,Ticks_Linear_8,261,5,42,127,937419192
82,7,20,Ticks_Linear_8,262,1,48,68,937433540
82,7,20,Ticks_Linear_8,263,5,42,127,937979472
82,7,20,Ticks_Linear_8,264,1,48,51,937989036
82,7,20,Ticks_Linear_8,265,5,42,127,938539556
82,7,20,Ticks_Linear_8,266,1,48,73,938547924
82,7,20,Ticks_Linear_8,267,5,42,127,939098568
82,7,20,Ticks_Linear_8,268,1,48,57,939117492
82,7,20,Ticks_Linear_8,269,5,42,127,939649564
82,7,20,Ticks_Linear_8,270,1,48,49,939652980
82,7,20,Ticks_Linear_8,271,5,42,127,940199440
82,7,20,Ticks_Linear_8,272,1,48,67,940200928
82,7,20,Ticks_Linear_8,273,5,42,127,940749244
82,7,20,Ticks_Linear_8,274,1,48,58,940758432
82,7,20,Ticks_Linear_8,275,5,42,127,941299116
82,7,20,Ticks_Linear_8,276,1,48,71,941361648
82,7,20,Ticks_Linear_8,277,5,42,127,941848940
82,7,20,Ticks_Linear_8,278,1,48,67,941874748
82,7,20,Ticks_Linear_8,279,5,42,127,942388556
82,7,20,Ticks_Linear_8,280,1,48,67,942404476
82,7,20,Ticks_Linear_8,281,5,42,127,942929368
82,7,20,Ticks_Linear_8,282,1,48,54,942946340
82,7,20,Ticks_Linear_8,283,5,42,127,943468836
82,7,20,Ticks_Linear_8,284,1,48,67,943480788
82,7,20,Ticks_Linear_8,285,5,42,127,944008524
82,7,20,Ticks_Linear_8,286,1,48,69,944034104
82,7,20,Ticks_Linear_8,287,5,42,127,944549412
82,7,20,Ticks_Linear_8,288,1,48,50,944552084
82,7,20,Ticks_Linear_8,289,5,42,127,945078620
82,7,20,Ticks_Linear_8,290,1,48,63,945116252
82,7,20,Ticks_Linear_8,291,5,42,127,945609392
82,7,20,Ticks_Linear_8,292,1,48,55,945669508
82,7,20,Ticks_Linear_8,293,5,42,127,946138452
82,7,20,Ticks_Linear_8,294,1,48,59,946179316
82,7,20,Ticks_Linear_8,295,5,42,127,946668852
82,7,20,Ticks_Linear_8,296,1,48,68,946677592
82,7,20,Ticks_Linear_8,297,5,42,127,947199332
82,7,20,Ticks_Linear_8,298,1,48,61,947202600
82,7,20,Ticks_Linear_8,299,5,42,127,947718652
82,7,20,Ticks_Linear_8,300,1,48,50,947762084
82,7,20,Ticks_Linear_8,301,5,42,127,948238824
82,7,20,Ticks_Linear_8,302,1,48,51,948259024
82,7,20,Ticks_Linear_8,303,5,42,127,948759044
82,7,20,Ticks_Linear_8,304,1,48,54,948773468
82,7,20,Ticks_Linear_8,305,5,42,127,949279036
82,7,20,Ticks_Linear_8,306,1,48,53,949281628
82,7,20,Ticks_Linear_8,307,5,42,127,949799332
82,7,20,Ticks_Linear_8,308,1,48,60,949835244
82,7,20,Ticks_Linear_8,309,5,42,127,950309364
82,7,20,Ticks_Linear_8,310,1,48,43,950353668
82,7,20,Ticks_Linear_8,311,5,42,127,950819176
82,7,20,Ticks_Linear_8,312,1,48,49,950828516
82,7,20,Ticks_Linear_8,313,5,42,127,951329284
82,7,20,Ticks_Linear_8,314,1,48,46,951346712
82,7,20,Ticks_Linear_8,315,5,42,127,951839096
82,7,20,Ticks_Linear_8,316,1,48,54,951867536
82,7,20,Ticks_Linear_8,317,5,42,127,952349200
82,7,20,Ticks_Linear_8,318,1,48,51,952355312
82,7,20,Ticks_Linear_8,319,5,42,127,952848680
82,7,20,Ticks_Linear_8,320,1,48,54,952868724
82,7,20,Ticks_Linear_8,321,1,48,50,953343880
82,7,20,Ticks_Linear_8,322,5,42,127,953348572
82,7,20,Ticks_Linear_8,323,1,48,70,953835864
82,7,20,Ticks_Linear_8,324,5,42,127,953849168
82,7,20,Ticks_Linear_8,325,1,48,56,954328240
82,7,20,Ticks_Linear_8,326,5,42,127,954349020
82,7,20,Ticks_Linear_8,327,1,48,68,954841860
82,7,20,Ticks_Linear_8,328,5,42,127,954848496
82,7,20,Ticks_Linear_8,329,5,42,127,955338992
82,7,20,Ticks_Linear_8,330,1,48,63,955358664
82,7,20,Ticks_Linear_8,331,5,42,127,955828508
82,7,20,Ticks_Linear_8,332,1,48,56,955842332
82,7,20,Ticks_Linear_8,333,5,42,127,956319216
82,7,20,Ticks_Linear_8,334,1,48,63,956336184
82,7,20,Ticks_Linear_8,335,5,42,127,956808560
82,7,20,Ticks_Linear_8,336,1,48,53,956830176
82,7,20,Ticks_Linear_8,337,5,42,127,957298972
82,7,20,Ticks_Linear_8,0,9999,9999,9999,846736472
82,7,20,Ticks_Linear_8,1,9999,9999,9999,847556712
82,7,20,Ticks_Linear_8,2,9999,9999,9999,848376904
82,7,20,Ticks_Linear_8,3,9999,9999,9999,849196124
82,7,20,Ticks_Linear_8,4,9999,9999,9999,850016360
82,7,20,Ticks_Linear_8,5,9999,9999,9999,850826348
82,7,20,Ticks_Linear_8,6,9999,9999,9999,851636332
82,7,20,Ticks_Linear_8,7,9999,9999,9999,852446308
82,7,20,Ticks_Linear_8,8,9999,9999,9999,853256296
82,7,20,Ticks_Linear_8,9,9999,9999,9999,854066300
82,7,20,Ticks_Linear_8,10,9999,9999,9999,854867072
82,7,20,Ticks_Linear_8,11,9999,9999,9999,855666796
82,7,20,Ticks_Linear_8,12,9999,9999,9999,856466520
82,7,20,Ticks_Linear_8,13,9999,9999,9999,857266244
82,7,20,Ticks_Linear_8,14,9999,9999,9999,858067016
82,7,20,Ticks_Linear_8,15,9999,9999,9999,858856564
82,7,20,Ticks_Linear_8,16,9999,9999,9999,859647068
82,7,20,Ticks_Linear_8,17,9999,9999,9999,860436560
82,7,20,Ticks_Linear_8,18,9999,9999,9999,861227068
82,7,20,Ticks_Linear_8,19,9999,9999,9999,862026868
82,7,20,Ticks_Linear_8,20,9999,9999,9999,862806076
82,7,20,Ticks_Linear_8,21,9999,9999,9999,863586408
82,7,20,Ticks_Linear_8,22,9999,9999,9999,864366660
82,7,20,Ticks_Linear_8,23,9999,9999,9999,865147020
82,7,20,Ticks_Linear_8,24,9999,9999,9999,865926268
82,7,20,Ticks_Linear_8,25,9999,9999,9999,866696256
82,7,20,Ticks_Linear_8,26,9999,9999,9999,867466328
82,7,20,Ticks_Linear_8,27,9999,9999,9999,868236396
82,7,20,Ticks_Linear_8,28,9999,9999,9999,869006460
82,7,20,Ticks_Linear_8,29,9999,9999,9999,869776452
82,7,20,Ticks_Linear_8,30,9999,9999,9999,870536268
82,7,20,Ticks_Linear_8,31,9999,9999,9999,871296076
82,7,20,Ticks_Linear_8,32,9999,9999,9999,872056928
82,7,20,Ticks_Linear_8,33,9999,9999,9999,872816740
82,7,20,Ticks_Linear_8,34,9999,9999,9999,873576548
82,7,20,Ticks_Linear_8,35,9999,9999,9999,874326104
82,7,20,Ticks_Linear_8,36,9999,9999,9999,875076700
82,7,20,Ticks_Linear_8,37,9999,9999,9999,875826252
82,7,20,Ticks_Linear_8,38,9999,9999,9999,876576840
82,7,20,Ticks_Linear_8,39,9999,9999,9999,877326444
82,7,20,Ticks_Linear_8,40,9999,9999,9999,878066784
82,7,20,Ticks_Linear_8,41,9999,9999,9999,878806072
82,7,20,Ticks_Linear_8,42,9999,9999,9999,879546484
82,7,20,Ticks_Linear_8,43,9999,9999,9999,880286820
82,7,20,Ticks_Linear_8,44,9999,9999,9999,881026112
82,7,20,Ticks_Linear_8,45,9999,9999,9999,881756264
82,7,20,Ticks_Linear_8,46,9999,9999,9999,882486344
82,7,20,Ticks_Linear_8,47,9999,9999,9999,883216496
82,7,20,Ticks_Linear_8,48,9999,9999,9999,883946552
82,7,20,Ticks_Linear_8,49,9999,9999,9999,884676696
82,7,20,Ticks_Linear_8,50,9999,9999,9999,885396592
82,7,20,Ticks_Linear_8,51,9999,9999,9999,886116412
82,7,20,Ticks_Linear_8,52,9999,9999,9999,886836304
82,7,20,Ticks_Linear_8,53,9999,9999,9999,887556180
82,7,20,Ticks_Linear_8,54,9999,9999,9999,888277120
82,7,20,Ticks_Linear_8,55,9999,9999,9999,888986680
82,7,20,Ticks_Linear_8,56,9999,9999,9999,889696316
82,7,20,Ticks_Linear_8,57,9999,9999,9999,890406996
82,7,20,Ticks_Linear_8,58,9999,9999,9999,891116604
82,7,20,Ticks_Linear_8,59,9999,9999,9999,891826240
82,7,20,Ticks_Linear_8,60,9999,9999,9999,892526664
82,7,20,Ticks_Linear_8,61,9999,9999,9999,893227084
82,7,20,Ticks_Linear_8,62,9999,9999,9999,893936768
82,7,20,Ticks_Linear_8,63,9999,9999,9999,894636136
82,7,20,Ticks_Linear_8,64,9999,9999,9999,895336564
82,7,20,Ticks_Linear_8,65,9999,9999,9999,896026724
82,7,20,Ticks_Linear_8,66,9999,9999,9999,896716868
82,7,20,Ticks_Linear_8,67,9999,9999,9999,897407104
82,7,20,Ticks_Linear_8,68,9999,9999,9999,898096220
82,7,20,Ticks_Linear_8,69,9999,9999,9999,898786424
82,7,20,Ticks_Linear_8,70,9999,9999,9999,899466336
82,7,20,Ticks_Linear_8,71,9999,9999,9999,900146240
82,7,20,Ticks_Linear_8,72,9999,9999,9999,900826196
82,7,20,Ticks_Linear_8,73,9999,9999,9999,901506176
82,7,20,Ticks_Linear_8,74,9999,9999,9999,902187124
82,7,20,Ticks_Linear_8,75,9999,9999,9999,902867008
82,7,20,Ticks_Linear_8,76,9999,9999,9999,903536728
82,7,20,Ticks_Linear_8,77,9999,9999,9999,904206444
82,7,20,Ticks_Linear_8,78,9999,9999,9999,904876140
82,7,20,Ticks_Linear_8,79,9999,9999,9999,905546828
82,7,20,Ticks_Linear_8,80,9999,9999,9999,906206268
82,7,20,Ticks_Linear_8,81,9999,9999,9999,906866776
82,7,20,Ticks_Linear_8,82,9999,9999,9999,907526204
82,7,20,Ticks_Linear_8,83,9999,9999,9999,908186716
82,7,20,Ticks_Linear_8,84,9999,9999,9999,908846180
82,7,20,Ticks_Linear_8,85,9999,9999,9999,909496404
82,7,20,Ticks_Linear_8,86,9999,9999,9999,910146648
82,7,20,Ticks_Linear_8,87,9999,9999,9999,910796872
82,7,20,Ticks_Linear_8,88,9999,9999,9999,911446076
82,7,20,Ticks_Linear_8,89,9999,9999,9999,912096372
82,7,20,Ticks_Linear_8,90,9999,9999,9999,912736360
82,7,20,Ticks_Linear_8,91,9999,9999,9999,913376328
82,7,20,Ticks_Linear_8,92,9999,9999,9999,914016316
82,7,20,Ticks_Linear_8,93,9999,9999,9999,914656352
82,7,20,Ticks_Linear_8,94,9999,9999,9999,915296336
82,7,20,Ticks_Linear_8,95,9999,9999,9999,915926116
82,7,20,Ticks_Linear_8,96,9999,9999,9999,916556900
82,7,20,Ticks_Linear_8,97,9999,9999,9999,917186672
82,7,20,Ticks_Linear_8,98,9999,9999,9999,917816400
82,7,20,Ticks_Linear_8,99,9999,9999,9999,918446188
82,7,20,Ticks_Linear_8,100,9999,9999,9999,919066704
82,7,20,Ticks_Linear_8,101,9999,9999,9999,919686224
82,7,20,Ticks_Linear_8,102,9999,9999,9999,920306792
82,7,20,Ticks_Linear_8,103,9999,9999,9999,920926264
82,7,20,Ticks_Linear_8,104,9999,9999,9999,921546832
82,7,20,Ticks_Linear_8,105,9999,9999,9999,922156120
82,7,20,Ticks_Linear_8,106,9999,9999,9999,922766424
82,7,20,Ticks_Linear_8,107,9999,9999,9999,923376732
82,7,20,Ticks_Linear_8,108,9999,9999,9999,923987064
82,7,20,Ticks_Linear_8,109,9999,9999,9999,924596344
82,7,20,Ticks_Linear_8,110,9999,9999,9999,925196400
82,7,20,Ticks_Linear_8,111,9999,9999,9999,925796448
82,7,20,Ticks_Linear_8,112,9999,9999,9999,926396500
82,7,20,Ticks_Linear_8,113,9999,9999,9999,926996572
82,7,20,Ticks_Linear_8,114,9999,9999,9999,927596612
82,7,20,Ticks_Linear_8,115,9999,9999,9999,928186484
82,7,20,Ticks_Linear_8,116,9999,9999,9999,928776272
82,7,20,Ticks_Linear_8,117,9999,9999,9999,929366084
82,7,20,Ticks_Linear_8,118,9999,9999,9999,929956920
82,7,20,Ticks_Linear_8,119,9999,9999,9999,930546784
82,7,20,Ticks_Linear_8,120,9999,9999,9999,931126340
82,7,20,Ticks_Linear_8,121,9999,9999,9999,931706992
82,7,20,Ticks_Linear_8,122,9999,9999,9999,932286588
82,7,20,Ticks_Linear_8,123,9999,9999,9999,932866120
82,7,20,Ticks_Linear_8,124,9999,9999,9999,933446724
82,7,20,Ticks_Linear_8,125,9999,9999,9999,934016072
82,7,20,Ticks_Linear_8,126,9999,9999,9999,934586468
82,7,20,Ticks_Linear_8,127,9999,9999,9999,935156860
82,7,20,Ticks_Linear_8,128,9999,9999,9999,935726156
82,7,20,Ticks_Linear_8,129,9999,9999,9999,936296548
82,7,20,Ticks_Linear_8,130,9999,9999,9999,936856684
82,7,20,Ticks_Linear_8,131,9999,9999,9999,937416816
82,7,20,Ticks_Linear_8,132,9999,9999,9999,937976952
82,7,20,Ticks_Linear_8,133,9999,9999,9999,938537032
82,7,20,Ticks_Linear_8,134,9999,9999,9999,939096120
82,7,20,Ticks_Linear_8,135,9999,9999,9999,939647044
82,7,20,Ticks_Linear_8,136,9999,9999,9999,940196992
82,7,20,Ticks_Linear_8,137,9999,9999,9999,940746868
82,7,20,Ticks_Linear_8,138,9999,9999,9999,941296744
82,7,20,Ticks_Linear_8,139,9999,9999,9999,941846640
82,7,20,Ticks_Linear_8,140,9999,9999,9999,942386260
82,7,20,Ticks_Linear_8,141,9999,9999,9999,942926920
82,7,20,Ticks_Linear_8,142,9999,9999,9999,943466612
82,7,20,Ticks_Linear_8,143,9999,9999,9999,944006228
82,7,20,Ticks_Linear_8,144,9999,9999,9999,944546888
82,7,20,Ticks_Linear_8,145,9999,9999,9999,945076320
82,7,20,Ticks_Linear_8,146,9999,9999,9999,945606724
82,7,20,Ticks_Linear_8,147,9999,9999,9999,946136152
82,7,20,Ticks_Linear_8,148,9999,9999,9999,946666552
82,7,20,Ticks_Linear_8,149,9999,9999,9999,947197032
82,7,20,Ticks_Linear_8,150,9999,9999,9999,947716204
82,7,20,Ticks_Linear_8,151,9999,9999,9999,948236376
82,7,20,Ticks_Linear_8,152,9999,9999,9999,948756596
82,7,20,Ticks_Linear_8,153,9999,9999,9999,949276740
82,7,20,Ticks_Linear_8,154,9999,9999,9999,949796956
82,7,20,Ticks_Linear_8,155,9999,9999,9999,950306916
82,7,20,Ticks_Linear_8,156,9999,9999,9999,950816876
82,7,20,Ticks_Linear_8,157,9999,9999,9999,951326836
82,7,20,Ticks_Linear_8,158,9999,9999,9999,951836796
82,7,20,Ticks_Linear_8,159,9999,9999,9999,952346752
82,7,20,Ticks_Linear_8,160,9999,9999,9999,952846456
82,7,20,Ticks_Linear_8,161,9999,9999,9999,953346124
82,7,20,Ticks_Linear_8,162,9999,9999,9999,953846868
82,7,20,Ticks_Linear_8,163,9999,9999,9999,954346572
82,7,20,Ticks_Linear_8,164,9999,9999,9999,954846272
82,7,20,Ticks_Linear_8,165,9999,9999,9999,955336764
82,7,20,Ticks_Linear_8,166,9999,9999,9999,955826284
82,7,20,Ticks_Linear_8,167,9999,9999,9999,956316768
82,7,20,Ticks_Linear_8,168,9999,9999,9999,956806260
82,7,20,Ticks_Linear_8,169,9999,9999,9999,957296748
82,8,21,Ticks_Linear_5,0,5,42,127,967205112
82,8,21,Ticks_Linear_5,1,5,42,127,967684516
82,8,21,Ticks_Linear_5,2,1,48,49,968158800
82,8,21,Ticks_Linear_5,3,5,42,127,968164836
82,8,21,Ticks_Linear_5,4,5,42,127,968644848
82,8,21,Ticks_Linear_5,5,1,48,60,968655908
82,8,21,Ticks_Linear_5,6,5,42,127,969125448
82,8,21,Ticks_Linear_5,7,1,48,61,969133220
82,8,21,Ticks_Linear_5,8,1,48,71,969605928
82,8,21,Ticks_Linear_5,9,5,42,127,969615032
82,8,21,Ticks_Linear_5,10,1,48,69,970097768
82,8,21,Ticks_Linear_5,11,5,42,127,970105144
82,8,21,Ticks_Linear_5,12,1,48,65,970576572
82,8,21,Ticks_Linear_5,13,5,42,127,970594884
82,8,21,Ticks_Linear_5,14,1,48,70,971078368
82,8,21,Ticks_Linear_5,15,5,42,127,971085076
82,8,21,Ticks_Linear_5,16,1,48,70,971569308
82,8,21,Ticks_Linear_5,17,5,42,127,971574740
82,8,21,Ticks_Linear_5,18,1,48,58,972057028
82,8,21,Ticks_Linear_5,19,5,42,127,972075412
82,8,21,Ticks_Linear_5,20,1,48,63,972546964
82,8,21,Ticks_Linear_5,21,5,42,127,972575036
82,8,21,Ticks_Linear_5,22,5,42,127,973074892
82,8,21,Ticks_Linear_5,23,1,48,62,973082272
82,8,21,Ticks_Linear_5,24,5,42,127,973574564
82,8,21,Ticks_Linear_5,25,1,48,57,973575532
82,8,21,Ticks_Linear_5,26,5,42,127,974075140
82,8,21,Ticks_Linear_5,27,1,48,55,974076548
82,8,21,Ticks_Linear_5,28,5,42,127,974585172
82,8,21,Ticks_Linear_5,29,1,48,60,974590908
82,8,21,Ticks_Linear_5,30,5,42,127,975095132
82,8,21,Ticks_Linear_5,31,1,48,50,975111724
82,8,21,Ticks_Linear_5,32,1,48,54,975582656
82,8,21,Ticks_Linear_5,33,5,42,127,975605008
82,8,21,Ticks_Linear_5,34,1,48,59,976113000
82,8,21,Ticks_Linear_5,35,5,42,127,976114968
82,8,21,Ticks_Linear_5,36,1,48,52,976611924
82,8,21,Ticks_Linear_5,37,5,42,127,976625148
82,8,21,Ticks_Linear_5,38,1,48,70,977118668
82,8,21,Ticks_Linear_5,39,5,42,127,977145292
82,8,21,Ticks_Linear_5,40,1,48,56,977651016
82,8,21,Ticks_Linear_5,41,5,42,127,977665360
82,8,21,Ticks_Linear_5,42,1,48,59,978133348
82,8,21,Ticks_Linear_5,43,5,42,127,978184832
82,8,21,Ticks_Linear_5,44,1,48,53,978673036
82,8,21,Ticks_Linear_5,45,5,42,127,978704772
82,8,21,Ticks_Linear_5,46,1,48,48,979210496
82,8,21,Ticks_Linear_5,47,5,42,127,979224844
82,8,21,Ticks_Linear_5,48,1,48,55,979708744
82,8,21,Ticks_Linear_5,49,5,42,127,979755468
82,8,21,Ticks_Linear_5,50,1,48,62,980253632
82,8,21,Ticks_Linear_5,51,5,42,127,980284824
82,8,21,Ticks_Linear_5,52,1,48,59,980773776
82,8,21,Ticks_Linear_5,53,5,42,127,980815152
82,8,21,Ticks_Linear_5,54,1,48,50,981314436
82,8,21,Ticks_Linear_5,55,5,42,127,981344656
82,8,21,Ticks_Linear_5,56,1,48,57,981858472
82,8,21,Ticks_Linear_5,57,5,42,127,981875064
82,8,21,Ticks_Linear_5,58,1,48,60,982385732
82,8,21,Ticks_Linear_5,59,5,42,127,982414676
82,8,21,Ticks_Linear_5,60,1,48,59,982926016
82,8,21,Ticks_Linear_5,61,5,42,127,982955560
82,8,21,Ticks_Linear_5,62,5,42,127,983495184
82,8,21,Ticks_Linear_5,63,1,48,67,983510508
82,8,21,Ticks_Linear_5,64,5,42,127,984034648
82,8,21,Ticks_Linear_5,65,1,48,60,984066900
82,8,21,Ticks_Linear_5,66,5,42,127,984575312
82,8,21,Ticks_Linear_5,67,1,48,53,984599648
82,8,21,Ticks_Linear_5,68,5,42,127,985125360
82,8,21,Ticks_Linear_5,69,1,48,52,985126324
82,8,21,Ticks_Linear_5,70,5,42,127,985675160
82,8,21,Ticks_Linear_5,71,1,48,64,985686668
82,8,21,Ticks_Linear_5,72,5,42,127,986224884
82,8,21,Ticks_Linear_5,73,1,48,65,986247920
82,8,21,Ticks_Linear_5,74,5,42,127,986775052
82,8,21,Ticks_Linear_5,75,1,48,56,986795624
82,8,21,Ticks_Linear_5,76,5,42,127,987324852
82,8,21,Ticks_Linear_5,77,1,48,51,987333748
82,8,21,Ticks_Linear_5,78,5,42,127,987884912
82,8,21,Ticks_Linear_5,79,1,48,70,987896200
82,8,21,Ticks_Linear_5,80,1,48,74,988436488
82,8,21,Ticks_Linear_5,81,5,42,127,988444916
82,8,21,Ticks_Linear_5,82,1,48,58,988976848
82,8,21,Ticks_Linear_5,83,5,42,127,989005124
82,8,21,Ticks_Linear_5,84,1,48,52,989555256
82,8,21,Ticks_Linear_5,85,5,42,127,989565256
82,8,21,Ticks_Linear_5,86,1,48,53,990113444
82,8,21,Ticks_Linear_5,87,5,42,127,990125316
82,8,21,Ticks_Linear_5,88,1,48,48,990675448
82,8,21,Ticks_Linear_5,89,5,42,127,990705140
82,8,21,Ticks_Linear_5,90,5,42,127,991275492
82,8,21,Ticks_Linear_5,91,1,48,57,991290288
82,8,21,Ticks_Linear_5,92,5,42,127,991844840
82,8,21,Ticks_Linear_5,93,1,48,71,991863320
82,8,21,Ticks_Linear_5,94,1,48,67,992415604
82,8,21,Ticks_Linear_5,95,5,42,127,992416800
82,8,21,Ticks_Linear_5,96,5,42,127,992984432
82,8,21,Ticks_Linear_5,97,1,48,63,992992428
82,8,21,Ticks_Linear_5,98,1,48,65,993548660
82,8,21,Ticks_Linear_5,99,5,42,127,993565172
82,8,21,Ticks_Linear_5,100,1,48,70,994133512
82,8,21,Ticks_Linear_5,101,5,42,127,994144780
82,8,21,Ticks_Linear_5,102,5,42,127,994725436
82,8,21,Ticks_Linear_5,103,1,48,59,994734108
82,8,21,Ticks_Linear_5,104,5,42,127,995304820
82,8,21,Ticks_Linear_5,105,1,48,66,995307568
82,8,21,Ticks_Linear_5,106,5,42,127,995885348
82,8,21,Ticks_Linear_5,107,1,48,61,995912648
82,8,21,Ticks_Linear_5,108,5,42,127,996484424
82,8,21,Ticks_Linear_5,109,1,48,77,996504392
82,8,21,Ticks_Linear_5,110,5,42,127,997075260
82,8,21,Ticks_Linear_5,111,1,48,72,997095380
82,8,21,Ticks_Linear_5,112,1,48,62,997656412
82,8,21,Ticks_Linear_5,113,5,42,127,997665440
82,8,21,Ticks_Linear_5,114,5,42,127,998255088
82,8,21,Ticks_Linear_5,115,1,48,58,998269884
82,8,21,Ticks_Linear_5,116,5,42,127,998844652
82,8,21,Ticks_Linear_5,117,1,48,73,998869412
82,8,21,Ticks_Linear_5,118,5,42,127,999444876
82,8,21,Ticks_Linear_5,119,1,48,62,999445916
82,8,21,Ticks_Linear_5,120,1,48,64,1000029300
82,8,21,Ticks_Linear_5,121,5,42,127,1000044916
82,8,21,Ticks_Linear_5,122,5,42,127,1000645120
82,8,21,Ticks_Linear_5,123,1,48,68,1000675200
82,8,21,Ticks_Linear_5,124,1,48,57,1001237208
82,8,21,Ticks_Linear_5,125,5,42,127,1001245336
82,8,21,Ticks_Linear_5,126,1,48,53,1001843200
82,8,21,Ticks_Linear_5,127,5,42,127,1001845012
82,8,21,Ticks_Linear_5,128,1,48,62,1002414020
82,8,21,Ticks_Linear_5,129,5,42,127,1002455320
82,8,21,Ticks_Linear_5,130,5,42,127,1003064612
82,8,21,Ticks_Linear_5,131,1,48,60,1003071320
82,8,21,Ticks_Linear_5,132,1,48,62,1003670224
82,8,21,Ticks_Linear_5,133,5,42,127,1003675284
82,8,21,Ticks_Linear_5,134,5,42,127,1004285228
82,8,21,Ticks_Linear_5,135,1,48,73,1004298180
82,8,21,Ticks_Linear_5,136,5,42,127,1004894440
82,8,21,Ticks_Linear_5,137,1,48,70,1004904900
82,8,21,Ticks_Linear_5,138,1,48,65,1005512784
82,8,21,Ticks_Linear_5,139,5,42,127,1005515148
82,8,21,Ticks_Linear_5,140,5,42,127,1006134628
82,8,21,Ticks_Linear_5,141,1,48,51,1006143892
82,8,21,Ticks_Linear_5,142,1,48,52,1006739416
82,8,21,Ticks_Linear_5,143,5,42,127,1006755336
82,8,21,Ticks_Linear_5,144,5,42,127,1007374664
82,8,21,Ticks_Linear_5,145,1,48,67,1007384304
82,8,21,Ticks_Linear_5,146,5,42,127,1007995232
82,8,21,Ticks_Linear_5,147,1,48,61,1008029504
82,8,21,Ticks_Linear_5,148,1,48,63,1008593292
82,8,21,Ticks_Linear_5,149,5,42,127,1008625228
82,8,21,Ticks_Linear_5,150,1,48,63,1009254060
82,8,21,Ticks_Linear_5,151,5,42,127,1009255632
82,8,21,Ticks_Linear_5,152,1,48,56,1009868220
82,8,21,Ticks_Linear_5,153,5,42,127,1009884512
82,8,21,Ticks_Linear_5,154,5,42,127,1010515444
82,8,21,Ticks_Linear_5,155,1,48,55,1010519760
82,8,21,Ticks_Linear_5,156,1,48,56,1011134396
82,8,21,Ticks_Linear_5,157,5,42,127,1011145072
82,8,21,Ticks_Linear_5,158,5,42,127,1011785140
82,8,21,Ticks_Linear_5,159,1,48,49,1011795004
82,8,21,Ticks_Linear_5,160,5,42,127,1012425028
82,8,21,Ticks_Linear_5,161,1,48,53,1012432408
82,8,21,Ticks_Linear_5,162,5,42,127,1013065088
82,8,21,Ticks_Linear_5,163,1,48,58,1013070528
82,8,21,Ticks_Linear_5,164,5,42,127,1013705200
82,8,21,Ticks_Linear_5,165,1,48,55,1013706168
82,8,21,Ticks_Linear_5,166,5,42,127,1014345192
82,8,21,Ticks_Linear_5,167,1,48,62,1014364344
82,8,21,Ticks_Linear_5,168,1,48,59,1014984960
82,8,21,Ticks_Linear_5,169,5,42,127,1014995260
82,8,21,Ticks_Linear_5,170,1,48,65,1015605100
82,8,21,Ticks_Linear_5,171,5,42,127,1015644828
82,8,21,Ticks_Linear_5,172,1,48,51,1016275544
82,8,21,Ticks_Linear_5,173,5,42,127,1016294904
82,8,21,Ticks_Linear_5,174,1,48,65,1016941436
82,8,21,Ticks_Linear_5,175,5,42,127,1016945152
82,8,21,Ticks_Linear_5,176,1,48,58,1017555124
82,8,21,Ticks_Linear_5,177,5,42,127,1017595228
82,8,21,Ticks_Linear_5,178,1,48,65,1018226560
82,8,21,Ticks_Linear_5,179,5,42,127,1018254836
82,8,21,Ticks_Linear_5,180,1,48,58,1018873644
82,8,21,Ticks_Linear_5,181,5,42,127,1018915044
82,8,21,Ticks_Linear_5,182,5,42,127,1019574932
82,8,21,Ticks_Linear_5,183,1,48,60,1019603744
82,8,21,Ticks_Linear_5,184,5,42,127,1020235064
82,8,21,Ticks_Linear_5,185,1,48,62,1020299668
82,8,21,Ticks_Linear_5,186,5,42,127,1020894800
82,8,21,Ticks_Linear_5,187,1,48,66,1020933124
82,8,21,Ticks_Linear_5,188,5,42,127,1021565192
82,8,21,Ticks_Linear_5,189,1,48,70,1021572048
82,8,21,Ticks_Linear_5,190,5,42,127,1022234912
82,8,21,Ticks_Linear_5,191,1,48,65,1022254880
82,8,21,Ticks_Linear_5,192,5,42,127,1022904904
82,8,21,Ticks_Linear_5,193,1,48,53,1022935360
82,8,21,Ticks_Linear_5,194,5,42,127,1023575520
82,8,21,Ticks_Linear_5,195,1,48,59,1023582912
82,8,21,Ticks_Linear_5,196,5,42,127,1024245140
82,8,21,Ticks_Linear_5,197,1,48,67,1024256724
82,8,21,Ticks_Linear_5,198,1,48,63,1024910540
82,8,21,Ticks_Linear_5,199,5,42,127,1024925036
82,8,21,Ticks_Linear_5,200,1,48,63,1025597636
82,8,21,Ticks_Linear_5,201,5,42,127,1025604864
82,8,21,Ticks_Linear_5,202,1,48,65,1026264412
82,8,21,Ticks_Linear_5,203,5,42,127,1026285040
82,8,21,Ticks_Linear_5,204,5,42,127,1026964728
82,8,21,Ticks_Linear_5,205,1,48,76,1026970464
82,8,21,Ticks_Linear_5,206,1,48,68,1027636120
82,8,21,Ticks_Linear_5,207,5,42,127,1027644772
82,8,21,Ticks_Linear_5,208,1,48,81,1028319444
82,8,21,Ticks_Linear_5,209,5,42,127,1028334836
82,8,21,Ticks_Linear_5,210,1,48,72,1028985568
82,8,21,Ticks_Linear_5,211,5,42,127,1029025000
82,8,21,Ticks_Linear_5,212,1,48,81,1029694832
82,8,21,Ticks_Linear_5,213,5,42,127,1029715460
82,8,21,Ticks_Linear_5,214,5,42,127,1030404632
82,8,21,Ticks_Linear_5,215,1,48,73,1030429544
82,8,21,Ticks_Linear_5,216,1,48,80,1031064544
82,8,21,Ticks_Linear_5,217,5,42,127,1031094764
82,8,21,Ticks_Linear_5,218,1,48,64,1031768712
82,8,21,Ticks_Linear_5,219,5,42,127,1031795188
82,8,21,Ticks_Linear_5,220,5,42,127,1032494568
82,8,21,Ticks_Linear_5,221,1,48,64,1032538876
82,8,21,Ticks_Linear_5,222,5,42,127,1033194816
82,8,21,Ticks_Linear_5,223,1,48,60,1033250528
82,8,21,Ticks_Linear_5,224,5,42,127,1033895464
82,8,21,Ticks_Linear_5,225,1,48,60,1033914912
82,8,21,Ticks_Linear_5,226,1,48,63,1034579436
82,8,21,Ticks_Linear_5,227,5,42,127,1034594608
82,8,21,Ticks_Linear_5,228,1,48,62,1035284208
82,8,21,Ticks_Linear_5,229,5,42,127,1035305436
82,8,21,Ticks_Linear_5,230,1,48,57,1035986324
82,8,21,Ticks_Linear_5,231,5,42,127,1036014972
82,8,21,Ticks_Linear_5,232,1,48,62,1036656416
82,8,21,Ticks_Linear_5,233,5,42,127,1036724680
82,8,21,Ticks_Linear_5,234,1,48,56,1037403124
82,8,21,Ticks_Linear_5,235,5,42,127,1037435512
82,8,21,Ticks_Linear_5,236,1,48,51,1038110576
82,8,21,Ticks_Linear_5,237,5,42,127,1038144776
82,8,21,Ticks_Linear_5,238,5,42,127,1038864748
82,8,21,Ticks_Linear_5,239,1,48,66,1038875356
82,8,21,Ticks_Linear_5,240,1,48,58,1039580448
82,8,21,Ticks_Linear_5,241,5,42,127,1039584756
82,8,21,Ticks_Linear_5,242,1,48,61,1040270384
82,8,21,Ticks_Linear_5,243,5,42,127,1040304500
82,8,21,Ticks_Linear_5,244,1,48,65,1040978672
82,8,21,Ticks_Linear_5,245,5,42,127,1041025516
82,8,21,Ticks_Linear_5,246,1,48,59,1041738856
82,8,21,Ticks_Linear_5,247,5,42,127,1041745336
82,8,21,Ticks_Linear_5,248,1,48,61,1042454712
82,8,21,Ticks_Linear_5,249,5,42,127,1042475416
82,8,21,Ticks_Linear_5,250,1,48,59,1043172396
82,8,21,Ticks_Linear_5,251,5,42,127,1043204420
82,8,21,Ticks_Linear_5,252,1,48,56,1043921792
82,8,21,Ticks_Linear_5,253,5,42,127,1043934572
82,8,21,Ticks_Linear_5,254,1,48,54,1044624920
82,8,21,Ticks_Linear_5,255,5,42,127,1044664652
82,8,21,Ticks_Linear_5,256,1,48,64,1045340244
82,8,21,Ticks_Linear_5,257,5,42,127,1045394804
82,8,21,Ticks_Linear_5,258,1,48,54,1046105372
82,8,21,Ticks_Linear_5,259,5,42,127,1046135140
82,8,21,Ticks_Linear_5,260,1,48,54,1046851168
82,8,21,Ticks_Linear_5,261,5,42,127,1046874432
82,8,21,Ticks_Linear_5,262,1,48,47,1047596000
82,8,21,Ticks_Linear_5,263,5,42,127,1047614916
82,8,21,Ticks_Linear_5,264,1,48,50,1048315272
82,8,21,Ticks_Linear_5,265,5,42,127,1048355176
82,8,21,Ticks_Linear_5,266,5,42,127,1049094400
82,8,21,Ticks_Linear_5,267,1,48,53,1049109200
82,8,21,Ticks_Linear_5,268,1,48,53,1049841024
82,8,21,Ticks_Linear_5,269,5,42,127,1049845336
82,8,21,Ticks_Linear_5,270,5,42,127,1050594672
82,8,21,Ticks_Linear_5,271,1,48,59,1050595784
82,8,21,Ticks_Linear_5,272,1,48,51,1051327096
82,8,21,Ticks_Linear_5,273,5,42,127,1051345332
82,8,21,Ticks_Linear_5,274,1,48,61,1052081132
82,8,21,Ticks_Linear_5,275,5,42,127,1052095104
82,8,21,Ticks_Linear_5,276,1,48,52,1052843440
82,8,21,Ticks_Linear_5,277,5,42,127,1052845404
82,8,21,Ticks_Linear_5,278,1,48,57,1053575300
82,8,21,Ticks_Linear_5,279,5,42,127,1053614428
82,8,21,Ticks_Linear_5,280,5,42,127,1054375288
82,8,21,Ticks_Linear_5,281,1,48,56,1054393312
82,8,21,Ticks_Linear_5,282,5,42,127,1055135096
82,8,21,Ticks_Linear_5,283,1,48,60,1055142256
82,8,21,Ticks_Linear_5,284,5,42,127,1055894980
82,8,21,Ticks_Linear_5,285,1,48,51,1055920340
82,8,21,Ticks_Linear_5,286,5,42,127,1056655012
82,8,21,Ticks_Linear_5,287,1,48,56,1056672724
82,8,21,Ticks_Linear_5,288,5,42,127,1057425080
82,8,21,Ticks_Linear_5,289,1,48,59,1057447300
82,8,21,Ticks_Linear_5,290,5,42,127,1058194924
82,8,21,Ticks_Linear_5,291,1,48,63,1058201856
82,8,21,Ticks_Linear_5,292,1,48,50,1058953716
82,8,21,Ticks_Linear_5,293,5,42,127,1058964836
82,8,21,Ticks_Linear_5,294,1,48,47,1059706180
82,8,21,Ticks_Linear_5,295,5,42,127,1059735048
82,8,21,Ticks_Linear_5,296,5,42,127,1060504900
82,8,21,Ticks_Linear_5,297,1,48,44,1060526524
82,8,21,Ticks_Linear_5,298,5,42,127,1061285152
82,8,21,Ticks_Linear_5,299,1,48,61,1061330508
82,8,21,Ticks_Linear_5,300,5,42,127,1062064508
82,8,21,Ticks_Linear_5,301,1,48,60,1062101472
82,8,21,Ticks_Linear_5,302,5,42,127,1062844760
82,8,21,Ticks_Linear_5,303,1,48,57,1062868920
82,8,21,Ticks_Linear_5,304,5,42,127,1063624936
82,8,21,Ticks_Linear_5,305,1,48,57,1063649772
82,8,21,Ticks_Linear_5,306,5,42,127,1064405412
82,8,21,Ticks_Linear_5,307,1,48,47,1064414900
82,8,21,Ticks_Linear_5,308,5,42,127,1065194952
82,8,21,Ticks_Linear_5,309,1,48,48,1065197624
82,8,21,Ticks_Linear_5,310,1,48,55,1065983948
82,8,21,Ticks_Linear_5,311,5,42,127,1065985456
82,8,21,Ticks_Linear_5,312,5,42,127,1066775028
82,8,21,Ticks_Linear_5,313,1,48,51,1066799788
82,8,21,Ticks_Linear_5,314,5,42,127,1067565392
82,8,21,Ticks_Linear_5,315,1,48,57,1067571652
82,8,21,Ticks_Linear_5,316,1,48,59,1068330760
82,8,21,Ticks_Linear_5,317,5,42,127,1068365108
82,8,21,Ticks_Linear_5,318,1,48,46,1069144200
82,8,21,Ticks_Linear_5,319,5,42,127,1069164904
82,8,21,Ticks_Linear_5,320,5,42,127,1069964784
82,8,21,Ticks_Linear_5,321,1,48,64,1070024076
82,8,21,Ticks_Linear_5,322,5,42,127,1070765628
82,8,21,Ticks_Linear_5,323,1,48,59,1070833760
82,8,21,Ticks_Linear_5,324,5,42,127,1071575388
82,8,21,Ticks_Linear_5,325,1,48,47,1071582484
82,8,21,Ticks_Linear_5,326,5,42,127,1072375188
82,8,21,Ticks_Linear_5,327,1,48,38,1072425292
82,8,21,Ticks_Linear_5,328,1,48,38,1073181396
82,8,21,Ticks_Linear_5,329,5,42,127,1073185112
82,8,21,Ticks_Linear_5,330,1,48,35,1073981872
82,8,21,Ticks_Linear_5,331,5,42,127,1073995096
82,8,21,Ticks_Linear_5,332,1,48,31,1074789908
82,8,21,Ticks_Linear_5,333,5,42,127,1074805004
82,8,21,Ticks_Linear_5,334,1,48,40,1075612092
82,8,21,Ticks_Linear_5,335,5,42,127,1075615136
82,8,21,Ticks_Linear_5,336,1,48,38,1076416312
82,8,21,Ticks_Linear_5,337,5,42,127,1076425120
82,8,21,Ticks_Linear_5,0,9999,9999,9999,967202888
82,8,21,Ticks_Linear_5,1,9999,9999,9999,967682144
82,8,21,Ticks_Linear_5,2,9999,9999,9999,968162388
82,8,21,Ticks_Linear_5,3,9999,9999,9999,968642624
82,8,21,Ticks_Linear_5,4,9999,9999,9999,969122924
82,8,21,Ticks_Linear_5,5,9999,9999,9999,969612360
82,8,21,Ticks_Linear_5,6,9999,9999,9999,970102848
82,8,21,Ticks_Linear_5,7,9999,9999,9999,970592364
82,8,21,Ticks_Linear_5,8,9999,9999,9999,971082852
82,8,21,Ticks_Linear_5,9,9999,9999,9999,971572292
82,8,21,Ticks_Linear_5,10,9999,9999,9999,972073040
82,8,21,Ticks_Linear_5,11,9999,9999,9999,972572740
82,8,21,Ticks_Linear_5,12,9999,9999,9999,973072444
82,8,21,Ticks_Linear_5,13,9999,9999,9999,973572192
82,8,21,Ticks_Linear_5,14,9999,9999,9999,974072912
82,8,21,Ticks_Linear_5,15,9999,9999,9999,974582872
82,8,21,Ticks_Linear_5,16,9999,9999,9999,975092832
82,8,21,Ticks_Linear_5,17,9999,9999,9999,975602784
82,8,21,Ticks_Linear_5,18,9999,9999,9999,976112708
82,8,21,Ticks_Linear_5,19,9999,9999,9999,976622704
82,8,21,Ticks_Linear_5,20,9999,9999,9999,977142844
82,8,21,Ticks_Linear_5,21,9999,9999,9999,977663064
82,8,21,Ticks_Linear_5,22,9999,9999,9999,978182236
82,8,21,Ticks_Linear_5,23,9999,9999,9999,978702400
82,8,21,Ticks_Linear_5,24,9999,9999,9999,979222620
82,8,21,Ticks_Linear_5,25,9999,9999,9999,979753020
82,8,21,Ticks_Linear_5,26,9999,9999,9999,980282452
82,8,21,Ticks_Linear_5,27,9999,9999,9999,980812856
82,8,21,Ticks_Linear_5,28,9999,9999,9999,981342284
82,8,21,Ticks_Linear_5,29,9999,9999,9999,981872764
82,8,21,Ticks_Linear_5,30,9999,9999,9999,982412380
82,8,21,Ticks_Linear_5,31,9999,9999,9999,982953040
82,8,21,Ticks_Linear_5,32,9999,9999,9999,983492736
82,8,21,Ticks_Linear_5,33,9999,9999,9999,984032348
82,8,21,Ticks_Linear_5,34,9999,9999,9999,984573012
82,8,21,Ticks_Linear_5,35,9999,9999,9999,985122912
82,8,21,Ticks_Linear_5,36,9999,9999,9999,985672784
82,8,21,Ticks_Linear_5,37,9999,9999,9999,986222660
82,8,21,Ticks_Linear_5,38,9999,9999,9999,986772608
82,8,21,Ticks_Linear_5,39,9999,9999,9999,987322480
82,8,21,Ticks_Linear_5,40,9999,9999,9999,987882616
82,8,21,Ticks_Linear_5,41,9999,9999,9999,988442692
82,8,21,Ticks_Linear_5,42,9999,9999,9999,989002824
82,8,21,Ticks_Linear_5,43,9999,9999,9999,989562960
82,8,21,Ticks_Linear_5,44,9999,9999,9999,990123092
82,8,21,Ticks_Linear_5,45,9999,9999,9999,990702696
82,8,21,Ticks_Linear_5,46,9999,9999,9999,991273044
82,8,21,Ticks_Linear_5,47,9999,9999,9999,991842392
82,8,21,Ticks_Linear_5,48,9999,9999,9999,992412784
82,8,21,Ticks_Linear_5,49,9999,9999,9999,992982132
82,8,21,Ticks_Linear_5,50,9999,9999,9999,993562728
82,8,21,Ticks_Linear_5,51,9999,9999,9999,994142332
82,8,21,Ticks_Linear_5,52,9999,9999,9999,994722916
82,8,21,Ticks_Linear_5,53,9999,9999,9999,995302520
82,8,21,Ticks_Linear_5,54,9999,9999,9999,995883124
82,8,21,Ticks_Linear_5,55,9999,9999,9999,996482124
82,8,21,Ticks_Linear_5,56,9999,9999,9999,997072960
82,8,21,Ticks_Linear_5,57,9999,9999,9999,997662844
82,8,21,Ticks_Linear_5,58,9999,9999,9999,998252640
82,8,21,Ticks_Linear_5,59,9999,9999,9999,998842428
82,8,21,Ticks_Linear_5,60,9999,9999,9999,999442504
82,8,21,Ticks_Linear_5,61,9999,9999,9999,1000042620
82,8,21,Ticks_Linear_5,62,9999,9999,9999,1000642676
82,8,21,Ticks_Linear_5,63,9999,9999,9999,1001242740
82,8,21,Ticks_Linear_5,64,9999,9999,9999,1001842812
82,8,21,Ticks_Linear_5,65,9999,9999,9999,1002453096
82,8,21,Ticks_Linear_5,66,9999,9999,9999,1003062388
82,8,21,Ticks_Linear_5,67,9999,9999,9999,1003672688
82,8,21,Ticks_Linear_5,68,9999,9999,9999,1004283000
82,8,21,Ticks_Linear_5,69,9999,9999,9999,1004892216
82,8,21,Ticks_Linear_5,70,9999,9999,9999,1005512852
82,8,21,Ticks_Linear_5,71,9999,9999,9999,1006132328
82,8,21,Ticks_Linear_5,72,9999,9999,9999,1006752888
82,8,21,Ticks_Linear_5,73,9999,9999,9999,1007372368
82,8,21,Ticks_Linear_5,74,9999,9999,9999,1007992936
82,8,21,Ticks_Linear_5,75,9999,9999,9999,1008622708
82,8,21,Ticks_Linear_5,76,9999,9999,9999,1009252440
82,8,21,Ticks_Linear_5,77,9999,9999,9999,1009882216
82,8,21,Ticks_Linear_5,78,9999,9999,9999,1010513000
82,8,21,Ticks_Linear_5,79,9999,9999,9999,1011142772
82,8,21,Ticks_Linear_5,80,9999,9999,9999,1011782768
82,8,21,Ticks_Linear_5,81,9999,9999,9999,1012422728
82,8,21,Ticks_Linear_5,82,9999,9999,9999,1013062716
82,8,21,Ticks_Linear_5,83,9999,9999,9999,1013702752
82,8,21,Ticks_Linear_5,84,9999,9999,9999,1014342744
82,8,21,Ticks_Linear_5,85,9999,9999,9999,1014992960
82,8,21,Ticks_Linear_5,86,9999,9999,9999,1015642236
82,8,21,Ticks_Linear_5,87,9999,9999,9999,1016292456
82,8,21,Ticks_Linear_5,88,9999,9999,9999,1016942704
82,8,21,Ticks_Linear_5,89,9999,9999,9999,1017592928
82,8,21,Ticks_Linear_5,90,9999,9999,9999,1018252388
82,8,21,Ticks_Linear_5,91,9999,9999,9999,1018912820
82,8,21,Ticks_Linear_5,92,9999,9999,9999,1019572336
82,8,21,Ticks_Linear_5,93,9999,9999,9999,1020232768
82,8,21,Ticks_Linear_5,94,9999,9999,9999,1020892276
82,8,21,Ticks_Linear_5,95,9999,9999,9999,1021562968
82,8,21,Ticks_Linear_5,96,9999,9999,9999,1022232688
82,8,21,Ticks_Linear_5,97,9999,9999,9999,1022902380
82,8,21,Ticks_Linear_5,98,9999,9999,9999,1023573072
82,8,21,Ticks_Linear_5,99,9999,9999,9999,1024242764
82,8,21,Ticks_Linear_5,100,9999,9999,9999,1024922736
82,8,21,Ticks_Linear_5,101,9999,9999,9999,1025602640
82,8,21,Ticks_Linear_5,102,9999,9999,9999,1026282596
82,8,21,Ticks_Linear_5,103,9999,9999,9999,1026962504
82,8,21,Ticks_Linear_5,104,9999,9999,9999,1027642476
82,8,21,Ticks_Linear_5,105,9999,9999,9999,1028332612
82,8,21,Ticks_Linear_5,106,9999,9999,9999,1029022776
82,8,21,Ticks_Linear_5,107,9999,9999,9999,1029713016
82,8,21,Ticks_Linear_5,108,9999,9999,9999,1030402112
82,8,21,Ticks_Linear_5,109,9999,9999,9999,1031092320
82,8,21,Ticks_Linear_5,110,9999,9999,9999,1031792740
82,8,21,Ticks_Linear_5,111,9999,9999,9999,1032492120
82,8,21,Ticks_Linear_5,112,9999,9999,9999,1033192516
82,8,21,Ticks_Linear_5,113,9999,9999,9999,1033892940
82,8,21,Ticks_Linear_5,114,9999,9999,9999,1034592308
82,8,21,Ticks_Linear_5,115,9999,9999,9999,1035302988
82,8,21,Ticks_Linear_5,116,9999,9999,9999,1036012600
82,8,21,Ticks_Linear_5,117,9999,9999,9999,1036722232
82,8,21,Ticks_Linear_5,118,9999,9999,9999,1037432916
82,8,21,Ticks_Linear_5,119,9999,9999,9999,1038142552
82,8,21,Ticks_Linear_5,120,9999,9999,9999,1038862448
82,8,21,Ticks_Linear_5,121,9999,9999,9999,1039582312
82,8,21,Ticks_Linear_5,122,9999,9999,9999,1040302204
82,8,21,Ticks_Linear_5,123,9999,9999,9999,1041023072
82,8,21,Ticks_Linear_5,124,9999,9999,9999,1041742964
82,8,21,Ticks_Linear_5,125,9999,9999,9999,1042473040
82,8,21,Ticks_Linear_5,126,9999,9999,9999,1043202124
82,8,21,Ticks_Linear_5,127,9999,9999,9999,1043932276
82,8,21,Ticks_Linear_5,128,9999,9999,9999,1044662352
82,8,21,Ticks_Linear_5,129,9999,9999,9999,1045392508
82,8,21,Ticks_Linear_5,130,9999,9999,9999,1046132844
82,8,21,Ticks_Linear_5,131,9999,9999,9999,1046872132
82,8,21,Ticks_Linear_5,132,9999,9999,9999,1047612544
82,8,21,Ticks_Linear_5,133,9999,9999,9999,1048352880
82,8,21,Ticks_Linear_5,134,9999,9999,9999,1049092152
82,8,21,Ticks_Linear_5,135,9999,9999,9999,1049842816
82,8,21,Ticks_Linear_5,136,9999,9999,9999,1050592372
82,8,21,Ticks_Linear_5,137,9999,9999,9999,1051342960
82,8,21,Ticks_Linear_5,138,9999,9999,9999,1052092512
82,8,21,Ticks_Linear_5,139,9999,9999,9999,1052843144
82,8,21,Ticks_Linear_5,140,9999,9999,9999,1053612128
82,8,21,Ticks_Linear_5,141,9999,9999,9999,1054372992
82,8,21,Ticks_Linear_5,142,9999,9999,9999,1055132796
82,8,21,Ticks_Linear_5,143,9999,9999,9999,1055892604
82,8,21,Ticks_Linear_5,144,9999,9999,9999,1056652416
82,8,21,Ticks_Linear_5,145,9999,9999,9999,1057422408
82,8,21,Ticks_Linear_5,146,9999,9999,9999,1058192476
82,8,21,Ticks_Linear_5,147,9999,9999,9999,1058962536
82,8,21,Ticks_Linear_5,148,9999,9999,9999,1059732604
82,8,21,Ticks_Linear_5,149,9999,9999,9999,1060502604
82,8,21,Ticks_Linear_5,150,9999,9999,9999,1061282928
82,8,21,Ticks_Linear_5,151,9999,9999,9999,1062062136
82,8,21,Ticks_Linear_5,152,9999,9999,9999,1062842460
82,8,21,Ticks_Linear_5,153,9999,9999,9999,1063622712
82,8,21,Ticks_Linear_5,154,9999,9999,9999,1064403040
82,8,21,Ticks_Linear_5,155,9999,9999,9999,1065192504
82,8,21,Ticks_Linear_5,156,9999,9999,9999,1065983088
82,8,21,Ticks_Linear_5,157,9999,9999,9999,1066772580
82,8,21,Ticks_Linear_5,158,9999,9999,9999,1067563092
82,8,21,Ticks_Linear_5,159,9999,9999,9999,1068362808
82,8,21,Ticks_Linear_5,160,9999,9999,9999,1069162608
82,8,21,Ticks_Linear_5,161,9999,9999,9999,1069962336
82,8,21,Ticks_Linear_5,162,9999,9999,9999,1070763108
82,8,21,Ticks_Linear_5,163,9999,9999,9999,1071573088
82,8,21,Ticks_Linear_5,164,9999,9999,9999,1072372812
82,8,21,Ticks_Linear_5,165,9999,9999,9999,1073182816
82,8,21,Ticks_Linear_5,166,9999,9999,9999,1073992800
82,8,21,Ticks_Linear_5,167,9999,9999,9999,1074802780
82,8,21,Ticks_Linear_5,168,9999,9999,9999,1075612764
82,8,21,Ticks_Linear_5,169,9999,9999,9999,1076422744
82,9,22,Ticks_Phase_8,0,5,42,127,1087345128
82,9,22,Ticks_Phase_8,1,5,42,127,1088144712
82,9,22,Ticks_Phase_8,2,1,48,55,1088914008
82,9,22,Ticks_Phase_8,3,5,42,127,1088944364
82,9,22,Ticks_Phase_8,4,1,48,68,1089694248
82,9,22,Ticks_Phase_8,5,5,42,127,1089745492
82,9,22,Ticks_Phase_8,6,1,48,57,1090490436
82,9,22,Ticks_Phase_8,7,5,42,127,1090544984
82,9,22,Ticks_Phase_8,8,1,48,58,1091336232
82,9,22,Ticks_Phase_8,9,5,42,127,1091344868
82,9,22,Ticks_Phase_8,10,1,48,51,1092124484
82,9,22,Ticks_Phase_8,11,5,42,127,1092144360
82,9,22,Ticks_Phase_8,12,1,48,54,1092917976
82,9,22,Ticks_Phase_8,13,5,42,127,1092945192
82,9,22,Ticks_Phase_8,14,1,48,62,1093711320
82,9,22,Ticks_Phase_8,15,5,42,127,1093745276
82,9,22,Ticks_Phase_8,16,1,48,60,1094522336
82,9,22,Ticks_Phase_8,17,5,42,127,1094544692
82,9,22,Ticks_Phase_8,18,1,48,52,1095281688
82,9,22,Ticks_Phase_8,19,5,42,127,1095344476
82,9,22,Ticks_Phase_8,20,1,48,65,1096096228
82,9,22,Ticks_Phase_8,21,5,42,127,1096145232
82,9,22,Ticks_Phase_8,22,1,48,62,1096940048
82,9,22,Ticks_Phase_8,23,5,42,127,1096945168
82,9,22,Ticks_Phase_8,24,1,48,55,1097719840
82,9,22,Ticks_Phase_8,25,5,42,127,1097744680
82,9,22,Ticks_Phase_8,26,1,48,64,1098501968
82,9,22,Ticks_Phase_8,27,5,42,127,1098544544
82,9,22,Ticks_Phase_8,28,1,48,69,1099321004
82,9,22,Ticks_Phase_8,29,5,42,127,1099345300
82,9,22,Ticks_Phase_8,30,1,48,59,1100127316
82,9,22,Ticks_Phase_8,31,5,42,127,1100145088
82,9,22,Ticks_Phase_8,32,1,48,62,1100909796
82,9,22,Ticks_Phase_8,33,5,42,127,1100945172
82,9,22,Ticks_Phase_8,34,1,48,75,1101741404
82,9,22,Ticks_Phase_8,35,5,42,127,1101744584
82,9,22,Ticks_Phase_8,36,1,48,62,1102541564
82,9,22,Ticks_Phase_8,37,5,42,127,1102545268
82,9,22,Ticks_Phase_8,38,5,42,127,1103345060
82,9,22,Ticks_Phase_8,39,1,48,63,1103354696
82,9,22,Ticks_Phase_8,40,1,48,66,1104127140
82,9,22,Ticks_Phase_8,41,5,42,127,1104145012
82,9,22,Ticks_Phase_8,42,1,48,65,1104889180
82,9,22,Ticks_Phase_8,43,5,42,127,1104944504
82,9,22,Ticks_Phase_8,44,5,42,127,1105745192
82,9,22,Ticks_Phase_8,45,1,48,67,1105774228
82,9,22,Ticks_Phase_8,46,5,42,127,1106544904
82,9,22,Ticks_Phase_8,47,1,48,51,1106550044
82,9,22,Ticks_Phase_8,48,5,42,127,1107344688
82,9,22,Ticks_Phase_8,49,1,48,58,1107351396
82,9,22,Ticks_Phase_8,50,5,42,127,1108144548
82,9,22,Ticks_Phase_8,51,1,48,53,1108156660
82,9,22,Ticks_Phase_8,52,1,48,50,1108920336
82,9,22,Ticks_Phase_8,53,5,42,127,1108945152
82,9,22,Ticks_Phase_8,54,1,48,61,1109737048
82,9,22,Ticks_Phase_8,55,5,42,127,1109744936
82,9,22,Ticks_Phase_8,56,1,48,57,1110514820
82,9,22,Ticks_Phase_8,57,5,42,127,1110544748
82,9,22,Ticks_Phase_8,58,5,42,127,1111324996
82,9,22,Ticks_Phase_8,59,1,48,60,1111343772
82,9,22,Ticks_Phase_8,60,5,42,127,1112124856
82,9,22,Ticks_Phase_8,61,1,48,47,1112139580
82,9,22,Ticks_Phase_8,62,1,48,53,1112921756
82,9,22,Ticks_Phase_8,63,5,42,127,1112924416
82,9,22,Ticks_Phase_8,64,5,42,127,1113725328
82,9,22,Ticks_Phase_8,65,1,48,58,1113730544
82,9,22,Ticks_Phase_8,66,1,48,53,1114500364
82,9,22,Ticks_Phase_8,67,5,42,127,1114525184
82,9,22,Ticks_Phase_8,68,1,48,48,1115277160
82,9,22,Ticks_Phase_8,69,5,42,127,1115324892
82,9,22,Ticks_Phase_8,70,1,48,64,1116116860
82,9,22,Ticks_Phase_8,71,5,42,127,1116124608
82,9,22,Ticks_Phase_8,72,1,48,66,1116919792
82,9,22,Ticks_Phase_8,73,5,42,127,1116925440
82,9,22,Ticks_Phase_8,74,5,42,127,1117725112
82,9,22,Ticks_Phase_8,75,1,48,55,1117727708
82,9,22,Ticks_Phase_8,76,5,42,127,1118524748
82,9,22,Ticks_Phase_8,77,1,48,56,1118526616
82,9,22,Ticks_Phase_8,78,5,42,127,1119324536
82,9,22,Ticks_Phase_8,79,1,48,54,1119325500
82,9,22,Ticks_Phase_8,80,5,42,127,1120125220
82,9,22,Ticks_Phase_8,81,1,48,49,1120140844
82,9,22,Ticks_Phase_8,82,5,42,127,1120924932
82,9,22,Ticks_Phase_8,83,1,48,69,1120941228
82,9,22,Ticks_Phase_8,84,5,42,127,1121724868
82,9,22,Ticks_Phase_8,85,1,48,50,1121731652
82,9,22,Ticks_Phase_8,86,1,48,58,1122507764
82,9,22,Ticks_Phase_8,87,5,42,127,1122524644
82,9,22,Ticks_Phase_8,88,5,42,127,1123325260
82,9,22,Ticks_Phase_8,89,1,48,66,1123352828
82,9,22,Ticks_Phase_8,90,1,48,41,1124114332
82,9,22,Ticks_Phase_8,91,5,42,127,1124124992
82,9,22,Ticks_Phase_8,92,1,48,59,1124914196
82,9,22,Ticks_Phase_8,93,5,42,127,1124924932
82,9,22,Ticks_Phase_8,94,1,48,53,1125716228
82,9,22,Ticks_Phase_8,95,5,42,127,1125744864
82,9,22,Ticks_Phase_8,96,5,42,127,1126544728
82,9,22,Ticks_Phase_8,97,1,48,52,1126558860
82,9,22,Ticks_Phase_8,98,1,48,53,1127329800
82,9,22,Ticks_Phase_8,99,5,42,127,1127344584
82,9,22,Ticks_Phase_8,100,1,48,62,1128138644
82,9,22,Ticks_Phase_8,101,5,42,127,1128145488
82,9,22,Ticks_Phase_8,102,5,42,127,1128944912
82,9,22,Ticks_Phase_8,103,1,48,48,1128947884
82,9,22,Ticks_Phase_8,104,5,42,127,1129744644
82,9,22,Ticks_Phase_8,105,1,48,57,1129751428
82,9,22,Ticks_Phase_8,106,5,42,127,1130544656
82,9,22,Ticks_Phase_8,107,1,48,54,1130561628
82,9,22,Ticks_Phase_8,108,1,48,53,1131345264
82,9,22,Ticks_Phase_8,109,5,42,127,1131346600
82,9,22,Ticks_Phase_8,110,1,48,51,1132130708
82,9,22,Ticks_Phase_8,111,5,42,127,1132144972
82,9,22,Ticks_Phase_8,112,1,48,57,1132913652
82,9,22,Ticks_Phase_8,113,5,42,127,1132944608
82,9,22,Ticks_Phase_8,114,5,42,127,1133744476
82,9,22,Ticks_Phase_8,115,1,48,44,1133749688
82,9,22,Ticks_Phase_8,116,5,42,127,1134545308
82,9,22,Ticks_Phase_8,117,1,48,60,1134569620
82,9,22,Ticks_Phase_8,118,5,42,127,1135345092
82,9,22,Ticks_Phase_8,119,1,48,59,1135374680
82,9,22,Ticks_Phase_8,120,5,42,127,1136144608
82,9,22,Ticks_Phase_8,121,1,48,61,1136158884
82,9,22,Ticks_Phase_8,122,1,48,52,1136938220
82,9,22,Ticks_Phase_8,123,5,42,127,1136944464
82,9,22,Ticks_Phase_8,124,5,42,127,1137745228
82,9,22,Ticks_Phase_8,125,1,48,65,1137751340
82,9,22,Ticks_Phase_8,126,1,48,56,1138537268
82,9,22,Ticks_Phase_8,127,5,42,127,1138585076
82,9,22,Ticks_Phase_8,128,5,42,127,1139384644
82,9,22,Ticks_Phase_8,129,1,48,62,1139400868
82,9,22,Ticks_Phase_8,130,1,48,72,1140176080
82,9,22,Ticks_Phase_8,131,5,42,127,1140184572
82,9,22,Ticks_Phase_8,132,1,48,74,1140958492
82,9,22,Ticks_Phase_8,133,5,42,127,1140985180
82,9,22,Ticks_Phase_8,134,5,42,127,1141784924
82,9,22,Ticks_Phase_8,135,1,48,66,1141796956
82,9,22,Ticks_Phase_8,136,5,42,127,1142584564
82,9,22,Ticks_Phase_8,137,1,48,69,1142613744
82,9,22,Ticks_Phase_8,138,5,42,127,1143384424
82,9,22,Ticks_Phase_8,139,1,48,52,1143385388
82,9,22,Ticks_Phase_8,140,5,42,127,1144185256
82,9,22,Ticks_Phase_8,141,1,48,66,1144208220
82,9,22,Ticks_Phase_8,142,5,42,127,1144984968
82,9,22,Ticks_Phase_8,143,1,48,61,1145016096
82,9,22,Ticks_Phase_8,144,1,48,80,1145762544
82,9,22,Ticks_Phase_8,145,5,42,127,1145784676
82,9,22,Ticks_Phase_8,146,5,42,127,1146584468
82,9,22,Ticks_Phase_8,147,1,48,67,1146595076
82,9,22,Ticks_Phase_8,148,5,42,127,1147385152
82,9,22,Ticks_Phase_8,149,1,48,60,1147391560
82,9,22,Ticks_Phase_8,150,5,42,127,1148185084
82,9,22,Ticks_Phase_8,151,1,48,63,1148196148
82,9,22,Ticks_Phase_8,152,1,48,67,1148960196
82,9,22,Ticks_Phase_8,153,5,42,127,1148984568
82,9,22,Ticks_Phase_8,154,5,42,127,1149784284
82,9,22,Ticks_Phase_8,155,1,48,66,1149804256
82,9,22,Ticks_Phase_8,156,5,42,127,1150585192
82,9,22,Ticks_Phase_8,157,1,48,65,1150593856
82,9,22,Ticks_Phase_8,158,5,42,127,1151385056
82,9,22,Ticks_Phase_8,159,1,48,71,1151399184
82,9,22,Ticks_Phase_8,160,5,42,127,1152144856
82,9,22,Ticks_Phase_8,161,1,48,67,1152181372
82,9,22,Ticks_Phase_8,162,5,42,127,1152944492
82,9,22,Ticks_Phase_8,163,1,48,70,1152967908
82,9,22,Ticks_Phase_8,164,1,48,58,1153734432
82,9,22,Ticks_Phase_8,165,5,42,127,1153745244
82,9,22,Ticks_Phase_8,166,1,48,62,1154517220
82,9,22,Ticks_Phase_8,167,5,42,127,1154545104
82,9,22,Ticks_Phase_8,168,5,42,127,1155344924
82,9,22,Ticks_Phase_8,169,1,48,76,1155352528
82,9,22,Ticks_Phase_8,170,5,42,127,1156144412
82,9,22,Ticks_Phase_8,171,1,48,84,1156155400
82,9,22,Ticks_Phase_8,172,5,42,127,1156945320
82,9,22,Ticks_Phase_8,173,1,48,62,1156949636
82,9,22,Ticks_Phase_8,174,5,42,127,1157745032
82,9,22,Ticks_Phase_8,175,1,48,67,1157764480
82,9,22,Ticks_Phase_8,176,1,48,57,1158536476
82,9,22,Ticks_Phase_8,177,5,42,127,1158544960
82,9,22,Ticks_Phase_8,178,5,42,127,1159344456
82,9,22,Ticks_Phase_8,179,1,48,69,1159366596
82,9,22,Ticks_Phase_8,180,1,48,38,1160143936
82,9,22,Ticks_Phase_8,181,5,42,127,1160145284
82,9,22,Ticks_Phase_8,182,1,48,64,1160924000
82,9,22,Ticks_Phase_8,183,5,42,127,1160945144
82,9,22,Ticks_Phase_8,184,1,48,54,1161742296
82,9,22,Ticks_Phase_8,185,5,42,127,1161744956
82,9,22,Ticks_Phase_8,186,5,42,127,1162544600
82,9,22,Ticks_Phase_8,187,1,48,67,1162562164
82,9,22,Ticks_Phase_8,188,1,48,64,1163344984
82,9,22,Ticks_Phase_8,189,5,42,127,1163346472
82,9,22,Ticks_Phase_8,190,1,48,66,1164132612
82,9,22,Ticks_Phase_8,191,5,42,127,1164144916
82,9,22,Ticks_Phase_8,192,5,42,127,1164864808
82,9,22,Ticks_Phase_8,193,1,48,53,1164939888
82,9,22,Ticks_Phase_8,194,1,48,65,1165622924
82,9,22,Ticks_Phase_8,195,5,42,127,1165664732
82,9,22,Ticks_Phase_8,196,1,48,62,1166448988
82,9,22,Ticks_Phase_8,197,5,42,127,1166465420
82,9,22,Ticks_Phase_8,198,1,48,82,1167254096
82,9,22,Ticks_Phase_8,199,5,42,127,1167265204
82,9,22,Ticks_Phase_8,200,5,42,127,1168064852
82,9,22,Ticks_Phase_8,201,1,48,69,1168084152
82,9,22,Ticks_Phase_8,202,5,42,127,1168864564
82,9,22,Ticks_Phase_8,203,1,48,53,1168869176
82,9,22,Ticks_Phase_8,204,5,42,127,1169665716
82,9,22,Ticks_Phase_8,205,1,48,59,1169671236
82,9,22,Ticks_Phase_8,206,1,48,54,1170458808
82,9,22,Ticks_Phase_8,207,5,42,127,1170465124
82,9,22,Ticks_Phase_8,208,1,48,69,1171248928
82,9,22,Ticks_Phase_8,209,5,42,127,1171264836
82,9,22,Ticks_Phase_8,210,1,48,46,1172043628
82,9,22,Ticks_Phase_8,211,5,42,127,1172064844
82,9,22,Ticks_Phase_8,212,1,48,60,1172841980
82,9,22,Ticks_Phase_8,213,5,42,127,1172865456
82,9,22,Ticks_Phase_8,214,5,42,127,1173665100
82,9,22,Ticks_Phase_8,215,1,48,55,1173668144
82,9,22,Ticks_Phase_8,216,5,42,127,1174464812
82,9,22,Ticks_Phase_8,217,1,48,65,1174474372
82,9,22,Ticks_Phase_8,218,1,48,41,1175235428
82,9,22,Ticks_Phase_8,219,5,42,127,1175264664
82,9,22,Ticks_Phase_8,220,1,48,64,1176030644
82,9,22,Ticks_Phase_8,221,5,42,127,1176065520
82,9,22,Ticks_Phase_8,222,1,48,67,1176851416
82,9,22,Ticks_Phase_8,223,5,42,127,1176865232
82,9,22,Ticks_Phase_8,224,1,48,58,1177634888
82,9,22,Ticks_Phase_8,225,5,42,127,1177664796
82,9,22,Ticks_Phase_8,226,1,48,56,1178439460
82,9,22,Ticks_Phase_8,227,5,42,127,1178544472
82,9,22,Ticks_Phase_8,228,5,42,127,1179345476
82,9,22,Ticks_Phase_8,229,1,48,54,1179431520
82,9,22,Ticks_Phase_8,230,5,42,127,1180144964
82,9,22,Ticks_Phase_8,231,1,48,64,1180179408
82,9,22,Ticks_Phase_8,232,5,42,127,1180944776
82,9,22,Ticks_Phase_8,233,1,48,62,1180953820
82,9,22,Ticks_Phase_8,234,1,48,72,1181736960
82,9,22,Ticks_Phase_8,235,5,42,127,1181744556
82,9,22,Ticks_Phase_8,236,5,42,127,1182545620
82,9,22,Ticks_Phase_8,237,1,48,67,1182552864
82,9,22,Ticks_Phase_8,238,1,48,59,1183342220
82,9,22,Ticks_Phase_8,239,5,42,127,1183345100
82,9,22,Ticks_Phase_8,240,1,48,60,1184134456
82,9,22,Ticks_Phase_8,241,5,42,127,1184144888
82,9,22,Ticks_Phase_8,242,1,48,56,1184939404
82,9,22,Ticks_Phase_8,243,5,42,127,1184944376
82,9,22,Ticks_Phase_8,244,1,48,61,1185725336
82,9,22,Ticks_Phase_8,245,5,42,127,1185745508
82,9,22,Ticks_Phase_8,246,1,48,54,1186529316
82,9,22,Ticks_Phase_8,247,5,42,127,1186545220
82,9,22,Ticks_Phase_8,248,1,48,59,1187327628
82,9,22,Ticks_Phase_8,249,5,42,127,1187344656
82,9,22,Ticks_Phase_8,250,1,48,61,1188139248
82,9,22,Ticks_Phase_8,251,5,42,127,1188144596
82,9,22,Ticks_Phase_8,252,1,48,65,1188921804
82,9,22,Ticks_Phase_8,253,5,42,127,1188945428
82,9,22,Ticks_Phase_8,254,1,48,71,1189723700
82,9,22,Ticks_Phase_8,255,5,42,127,1189745364
82,9,22,Ticks_Phase_8,256,5,42,127,1190544636
82,9,22,Ticks_Phase_8,257,1,48,59,1190573224
82,9,22,Ticks_Phase_8,258,5,42,127,1191344424
82,9,22,Ticks_Phase_8,259,1,48,76,1191355928
82,9,22,Ticks_Phase_8,260,1,48,62,1192178992
82,9,22,Ticks_Phase_8,261,5,42,127,1192305140
82,9,22,Ticks_Phase_8,262,5,42,127,1193104876
82,9,22,Ticks_Phase_8,263,1,48,71,1193205572
82,9,22,Ticks_Phase_8,264,5,42,127,1193904588
82,9,22,Ticks_Phase_8,265,1,48,62,1193986592
82,9,22,Ticks_Phase_8,266,5,42,127,1194705420
82,9,22,Ticks_Phase_8,267,1,48,68,1194729660
82,9,22,Ticks_Phase_8,268,1,48,69,1195493340
82,9,22,Ticks_Phase_8,269,5,42,127,1195505272
82,9,22,Ticks_Phase_8,270,1,48,72,1196269684
82,9,22,Ticks_Phase_8,271,5,42,127,1196304860
82,9,22,Ticks_Phase_8,272,1,48,77,1197087172
82,9,22,Ticks_Phase_8,273,5,42,127,1197104496
82,9,22,Ticks_Phase_8,274,1,48,60,1197850256
82,9,22,Ticks_Phase_8,275,5,42,127,1197905256
82,9,22,Ticks_Phase_8,276,1,48,71,1198654016
82,9,22,Ticks_Phase_8,277,5,42,127,1198705264
82,9,22,Ticks_Phase_8,278,5,42,127,1199504908
82,9,22,Ticks_Phase_8,279,1,48,75,1199514172
82,9,22,Ticks_Phase_8,280,5,42,127,1200304612
82,9,22,Ticks_Phase_8,281,1,48,68,1200312068
82,9,22,Ticks_Phase_8,282,1,48,72,1201104016
82,9,22,Ticks_Phase_8,283,5,42,127,1201105440
82,9,22,Ticks_Phase_8,284,1,48,63,1201904180
82,9,22,Ticks_Phase_8,285,5,42,127,1201905676
82,9,22,Ticks_Phase_8,286,1,48,73,1202674432
82,9,22,Ticks_Phase_8,287,5,42,127,1202705036
82,9,22,Ticks_Phase_8,288,1,48,68,1203444488
82,9,22,Ticks_Phase_8,289,5,42,127,1203504528
82,9,22,Ticks_Phase_8,290,1,48,75,1204282256
82,9,22,Ticks_Phase_8,291,5,42,127,1204305136
82,9,22,Ticks_Phase_8,292,1,48,68,1205077336
82,9,22,Ticks_Phase_8,293,5,42,127,1205104920
82,9,22,Ticks_Phase_8,294,1,48,70,1205837956
82,9,22,Ticks_Phase_8,295,5,42,127,1205905008
82,9,22,Ticks_Phase_8,296,1,48,71,1206683424
82,9,22,Ticks_Phase_8,297,5,42,127,1206704424
82,9,22,Ticks_Phase_8,298,5,42,127,1207344480
82,9,22,Ticks_Phase_8,299,1,48,78,1207475364
82,9,22,Ticks_Phase_8,300,1,48,57,1208105068
82,9,22,Ticks_Phase_8,301,5,42,127,1208145232
82,9,22,Ticks_Phase_8,302,1,48,66,1208891364
82,9,22,Ticks_Phase_8,303,5,42,127,1208945020
82,9,22,Ticks_Phase_8,304,1,48,78,1209712808
82,9,22,Ticks_Phase_8,305,5,42,127,1209744732
82,9,22,Ticks_Phase_8,306,1,48,81,1210529656
82,9,22,Ticks_Phase_8,307,5,42,127,1210544444
82,9,22,Ticks_Phase_8,308,1,48,80,1211316644
82,9,22,Ticks_Phase_8,309,5,42,127,1211345204
82,9,22,Ticks_Phase_8,310,1,48,66,1212099276
82,9,22,Ticks_Phase_8,311,5,42,127,1212145064
82,9,22,Ticks_Phase_8,312,1,48,84,1212901904
82,9,22,Ticks_Phase_8,313,5,42,127,1212944652
82,9,22,Ticks_Phase_8,314,5,42,127,1213744592
82,9,22,Ticks_Phase_8,315,1,48,79,1213750780
82,9,22,Ticks_Phase_8,316,5,42,127,1214545280
82,9,22,Ticks_Phase_8,317,1,48,73,1214558808
82,9,22,Ticks_Phase_8,318,5,42,127,1215344988
82,9,22,Ticks_Phase_8,319,1,48,75,1215394244
82,9,22,Ticks_Phase_8,320,5,42,127,1216144628
82,9,22,Ticks_Phase_8,321,1,48,70,1216185864
82,9,22,Ticks_Phase_8,322,1,48,77,1216932388
82,9,22,Ticks_Phase_8,323,5,42,127,1216944632
82,9,22,Ticks_Phase_8,324,1,48,76,1217739740
82,9,22,Ticks_Phase_8,325,5,42,127,1217745164
82,9,22,Ticks_Phase_8,326,5,42,127,1218544960
82,9,22,Ticks_Phase_8,327,1,48,88,1218547628
82,9,22,Ticks_Phase_8,328,1,48,87,1219341204
82,9,22,Ticks_Phase_8,329,5,42,127,1219344688
82,9,22,Ticks_Phase_8,330,5,42,127,1220144480
82,9,22,Ticks_Phase_8,331,1,48,81,1220163404
82,9,22,Ticks_Phase_8,332,5,42,127,1220945312
82,9,22,Ticks_Phase_8,333,1,48,89,1220947028
82,9,22,Ticks_Phase_8,334,5,42,127,1221744952
82,9,22,Ticks_Phase_8,335,1,48,80,1221750536
82,9,22,Ticks_Phase_8,336,5,42,127,1222544736
82,9,22,Ticks_Phase_8,0,9999,9999,9999,1087342692
82,9,22,Ticks_Phase_8,1,9999,9999,9999,1088142424
82,9,22,Ticks_Phase_8,2,9999,9999,9999,1088942152
82,9,22,Ticks_Phase_8,3,9999,9999,9999,1089742912
82,9,22,Ticks_Phase_8,4,9999,9999,9999,1090542696
82,9,22,Ticks_Phase_8,5,9999,9999,9999,1091342432
82,9,22,Ticks_Phase_8,6,9999,9999,9999,1092142148
82,9,22,Ticks_Phase_8,7,9999,9999,9999,1092942904
82,9,22,Ticks_Phase_8,8,9999,9999,9999,1093742692
82,9,22,Ticks_Phase_8,9,9999,9999,9999,1094542404
82,9,22,Ticks_Phase_8,10,9999,9999,9999,1095342188
82,9,22,Ticks_Phase_8,11,9999,9999,9999,1096142948
82,9,22,Ticks_Phase_8,12,9999,9999,9999,1096942660
82,9,22,Ticks_Phase_8,13,9999,9999,9999,1097742396
82,9,22,Ticks_Phase_8,14,9999,9999,9999,1098542184
82,9,22,Ticks_Phase_8,15,9999,9999,9999,1099342940
82,9,22,Ticks_Phase_8,16,9999,9999,9999,1100142652
82,9,22,Ticks_Phase_8,17,9999,9999,9999,1100942440
82,9,22,Ticks_Phase_8,18,9999,9999,9999,1101742148
82,9,22,Ticks_Phase_8,19,9999,9999,9999,1102542908
82,9,22,Ticks_Phase_8,20,9999,9999,9999,1103342700
82,9,22,Ticks_Phase_8,21,9999,9999,9999,1104142432
82,9,22,Ticks_Phase_8,22,9999,9999,9999,1104942144
82,9,22,Ticks_Phase_8,23,9999,9999,9999,1105742904
82,9,22,Ticks_Phase_8,24,9999,9999,9999,1106542692
82,9,22,Ticks_Phase_8,25,9999,9999,9999,1107342404
82,9,22,Ticks_Phase_8,26,9999,9999,9999,1108142188
82,9,22,Ticks_Phase_8,27,9999,9999,9999,1108942940
82,9,22,Ticks_Phase_8,28,9999,9999,9999,1109742652
82,9,22,Ticks_Phase_8,29,9999,9999,9999,1110542464
82,9,22,Ticks_Phase_8,30,9999,9999,9999,1111322708
82,9,22,Ticks_Phase_8,31,9999,9999,9999,1112122420
82,9,22,Ticks_Phase_8,32,9999,9999,9999,1112922204
82,9,22,Ticks_Phase_8,33,9999,9999,9999,1113722968
82,9,22,Ticks_Phase_8,34,9999,9999,9999,1114522748
82,9,22,Ticks_Phase_8,35,9999,9999,9999,1115322460
82,9,22,Ticks_Phase_8,36,9999,9999,9999,1116122172
82,9,22,Ticks_Phase_8,37,9999,9999,9999,1116923004
82,9,22,Ticks_Phase_8,38,9999,9999,9999,1117722748
82,9,22,Ticks_Phase_8,39,9999,9999,9999,1118522464
82,9,22,Ticks_Phase_8,40,9999,9999,9999,1119322176
82,9,22,Ticks_Phase_8,41,9999,9999,9999,1120122936
82,9,22,Ticks_Phase_8,42,9999,9999,9999,1120922720
82,9,22,Ticks_Phase_8,43,9999,9999,9999,1121722432
82,9,22,Ticks_Phase_8,44,9999,9999,9999,1122522212
82,9,22,Ticks_Phase_8,45,9999,9999,9999,1123322976
82,9,22,Ticks_Phase_8,46,9999,9999,9999,1124122708
82,9,22,Ticks_Phase_8,47,9999,9999,9999,1124922492
82,9,22,Ticks_Phase_8,48,9999,9999,9999,1125742648
82,9,22,Ticks_Phase_8,49,9999,9999,9999,1126542444
82,9,22,Ticks_Phase_8,50,9999,9999,9999,1127342148
82,9,22,Ticks_Phase_8,51,9999,9999,9999,1128142904
82,9,22,Ticks_Phase_8,52,9999,9999,9999,1128942700
82,9,22,Ticks_Phase_8,53,9999,9999,9999,1129742432
82,9,22,Ticks_Phase_8,54,9999,9999,9999,1130542148
82,9,22,Ticks_Phase_8,55,9999,9999,9999,1131342904
82,9,22,Ticks_Phase_8,56,9999,9999,9999,1132142684
82,9,22,Ticks_Phase_8,57,9999,9999,9999,1132942396
82,9,22,Ticks_Phase_8,58,9999,9999,9999,1133742188
82,9,22,Ticks_Phase_8,59,9999,9999,9999,1134542948
82,9,22,Ticks_Phase_8,60,9999,9999,9999,1135342656
82,9,22,Ticks_Phase_8,61,9999,9999,9999,1136142396
82,9,22,Ticks_Phase_8,62,9999,9999,9999,1136942180
82,9,22,Ticks_Phase_8,63,9999,9999,9999,1137742940
82,9,22,Ticks_Phase_8,64,9999,9999,9999,1138582636
82,9,22,Ticks_Phase_8,65,9999,9999,9999,1139382356
82,9,22,Ticks_Phase_8,66,9999,9999,9999,1140182136
82,9,22,Ticks_Phase_8,67,9999,9999,9999,1140982896
82,9,22,Ticks_Phase_8,68,9999,9999,9999,1141782636
82,9,22,Ticks_Phase_8,69,9999,9999,9999,1142582348
82,9,22,Ticks_Phase_8,70,9999,9999,9999,1143382136
82,9,22,Ticks_Phase_8,71,9999,9999,9999,1144182896
82,9,22,Ticks_Phase_8,72,9999,9999,9999,1144982608
82,9,22,Ticks_Phase_8,73,9999,9999,9999,1145782388
82,9,22,Ticks_Phase_8,74,9999,9999,9999,1146582108
82,9,22,Ticks_Phase_8,75,9999,9999,9999,1147382864
82,9,22,Ticks_Phase_8,76,9999,9999,9999,1148182648
82,9,22,Ticks_Phase_8,77,9999,9999,9999,1148982356
82,9,22,Ticks_Phase_8,78,9999,9999,9999,1149782072
82,9,22,Ticks_Phase_8,79,9999,9999,9999,1150582908
82,9,22,Ticks_Phase_8,80,9999,9999,9999,1151382620
82,9,22,Ticks_Phase_8,81,9999,9999,9999,1152142416
82,9,22,Ticks_Phase_8,82,9999,9999,9999,1152942204
82,9,22,Ticks_Phase_8,83,9999,9999,9999,1153742956
82,9,22,Ticks_Phase_8,84,9999,9999,9999,1154542668
82,9,22,Ticks_Phase_8,85,9999,9999,9999,1155342412
82,9,22,Ticks_Phase_8,86,9999,9999,9999,1156142200
82,9,22,Ticks_Phase_8,87,9999,9999,9999,1156942960
82,9,22,Ticks_Phase_8,88,9999,9999,9999,1157742672
82,9,22,Ticks_Phase_8,89,9999,9999,9999,1158542452
82,9,22,Ticks_Phase_8,90,9999,9999,9999,1159342168
82,9,22,Ticks_Phase_8,91,9999,9999,9999,1160142928
82,9,22,Ticks_Phase_8,92,9999,9999,9999,1160942708
82,9,22,Ticks_Phase_8,93,9999,9999,9999,1161742444
82,9,22,Ticks_Phase_8,94,9999,9999,9999,1162542164
82,9,22,Ticks_Phase_8,95,9999,9999,9999,1163342920
82,9,22,Ticks_Phase_8,96,9999,9999,9999,1164142704
82,9,22,Ticks_Phase_8,97,9999,9999,9999,1164862520
82,9,22,Ticks_Phase_8,98,9999,9999,9999,1165662300
82,9,22,Ticks_Phase_8,99,9999,9999,9999,1166463056
82,9,22,Ticks_Phase_8,100,9999,9999,9999,1167262844
82,9,22,Ticks_Phase_8,101,9999,9999,9999,1168062564
82,9,22,Ticks_Phase_8,102,9999,9999,9999,1168862276
82,9,22,Ticks_Phase_8,103,9999,9999,9999,1169663056
82,9,22,Ticks_Phase_8,104,9999,9999,9999,1170462840
82,9,22,Ticks_Phase_8,105,9999,9999,9999,1171262548
82,9,22,Ticks_Phase_8,106,9999,9999,9999,1172062260
82,9,22,Ticks_Phase_8,107,9999,9999,9999,1172863096
82,9,22,Ticks_Phase_8,108,9999,9999,9999,1173662812
82,9,22,Ticks_Phase_8,109,9999,9999,9999,1174462524
82,9,22,Ticks_Phase_8,110,9999,9999,9999,1175262300
82,9,22,Ticks_Phase_8,111,9999,9999,9999,1176063084
82,9,22,Ticks_Phase_8,112,9999,9999,9999,1176862796
82,9,22,Ticks_Phase_8,113,9999,9999,9999,1177662580
82,9,22,Ticks_Phase_8,114,9999,9999,9999,1178542184
82,9,22,Ticks_Phase_8,115,9999,9999,9999,1179342968
82,9,22,Ticks_Phase_8,116,9999,9999,9999,1180142680
82,9,22,Ticks_Phase_8,117,9999,9999,9999,1180942416
82,9,22,Ticks_Phase_8,118,9999,9999,9999,1181742196
82,9,22,Ticks_Phase_8,119,9999,9999,9999,1182542960
82,9,22,Ticks_Phase_8,120,9999,9999,9999,1183342664
82,9,22,Ticks_Phase_8,121,9999,9999,9999,1184142456
82,9,22,Ticks_Phase_8,122,9999,9999,9999,1184942168
82,9,22,Ticks_Phase_8,123,9999,9999,9999,1185742924
82,9,22,Ticks_Phase_8,124,9999,9999,9999,1186542708
82,9,22,Ticks_Phase_8,125,9999,9999,9999,1187342444
82,9,22,Ticks_Phase_8,126,9999,9999,9999,1188142160
82,9,22,Ticks_Phase_8,127,9999,9999,9999,1188942920
82,9,22,Ticks_Phase_8,128,9999,9999,9999,1189742704
82,9,22,Ticks_Phase_8,129,9999,9999,9999,1190542424
82,9,22,Ticks_Phase_8,130,9999,9999,9999,1191342136
82,9,22,Ticks_Phase_8,131,9999,9999,9999,1192302704
82,9,22,Ticks_Phase_8,132,9999,9999,9999,1193102440
82,9,22,Ticks_Phase_8,133,9999,9999,9999,1193902152
82,9,22,Ticks_Phase_8,134,9999,9999,9999,1194702908
82,9,22,Ticks_Phase_8,135,9999,9999,9999,1195502688
82,9,22,Ticks_Phase_8,136,9999,9999,9999,1196302424
82,9,22,Ticks_Phase_8,137,9999,9999,9999,1197102136
82,9,22,Ticks_Phase_8,138,9999,9999,9999,1197902968
82,9,22,Ticks_Phase_8,139,9999,9999,9999,1198702680
82,9,22,Ticks_Phase_8,140,9999,9999,9999,1199502400
82,9,22,Ticks_Phase_8,141,9999,9999,9999,1200302176
82,9,22,Ticks_Phase_8,142,9999,9999,9999,1201102936
82,9,22,Ticks_Phase_8,143,9999,9999,9999,1201902648
82,9,22,Ticks_Phase_8,144,9999,9999,9999,1202702452
82,9,22,Ticks_Phase_8,145,9999,9999,9999,1203502164
82,9,22,Ticks_Phase_8,146,9999,9999,9999,1204302924
82,9,22,Ticks_Phase_8,147,9999,9999,9999,1205102708
82,9,22,Ticks_Phase_8,148,9999,9999,9999,1205902424
82,9,22,Ticks_Phase_8,149,9999,9999,9999,1206702136
82,9,22,Ticks_Phase_8,150,9999,9999,9999,1207342192
82,9,22,Ticks_Phase_8,151,9999,9999,9999,1208142948
82,9,22,Ticks_Phase_8,152,9999,9999,9999,1208942660
82,9,22,Ticks_Phase_8,153,9999,9999,9999,1209742444
82,9,22,Ticks_Phase_8,154,9999,9999,9999,1210542160
82,9,22,Ticks_Phase_8,155,9999,9999,9999,1211342916
82,9,22,Ticks_Phase_8,156,9999,9999,9999,1212142704
82,9,22,Ticks_Phase_8,157,9999,9999,9999,1212942440
82,9,22,Ticks_Phase_8,158,9999,9999,9999,1213742156
82,9,22,Ticks_Phase_8,159,9999,9999,9999,1214542916
82,9,22,Ticks_Phase_8,160,9999,9999,9999,1215342704
82,9,22,Ticks_Phase_8,161,9999,9999,9999,1216142416
82,9,22,Ticks_Phase_8,162,9999,9999,9999,1216942196
82,9,22,Ticks_Phase_8,163,9999,9999,9999,1217742952
82,9,22,Ticks_Phase_8,164,9999,9999,9999,1218542672
82,9,22,Ticks_Phase_8,165,9999,9999,9999,1219342400
82,9,22,Ticks_Phase_8,166,9999,9999,9999,1220142192
82,9,22,Ticks_Phase_8,167,9999,9999,9999,1220942952
82,9,22,Ticks_Phase_8,168,9999,9999,9999,1221742664
82,9,22,Ticks_Phase_8,169,9999,9999,9999,1222542452
82,10,23,Ticks_Phase_5,0,5,42,127,1232987396
82,10,23,Ticks_Phase_5,1,5,42,127,1233488376
82,10,23,Ticks_Phase_5,2,5,42,127,1233988012
82,10,23,Ticks_Phase_5,3,1,48,58,1234022728
82,10,23,Ticks_Phase_5,4,5,42,127,1234487624
82,10,23,Ticks_Phase_5,5,1,48,73,1234517336
82,10,23,Ticks_Phase_5,6,5,42,127,1234988360
82,10,23,Ticks_Phase_5,7,1,48,77,1235015656
82,10,23,Ticks_Phase_5,8,5,42,127,1235488272
82,10,23,Ticks_Phase_5,9,1,48,73,1235518128
82,10,23,Ticks_Phase_5,10,1,48,78,1235985216
82,10,23,Ticks_Phase_5,11,5,42,127,1235987804
82,10,23,Ticks_Phase_5,12,5,42,127,1236487500
82,10,23,Ticks_Phase_5,13,1,48,90,1236504988
82,10,23,Ticks_Phase_5,14,5,42,127,1236988456
82,10,23,Ticks_Phase_5,15,1,48,89,1237000564
82,10,23,Ticks_Phase_5,16,5,42,127,1237488196
82,10,23,Ticks_Phase_5,17,1,48,92,1237491088
82,10,23,Ticks_Phase_5,18,5,42,127,1237987808
82,10,23,Ticks_Phase_5,19,1,48,87,1238027124
82,10,23,Ticks_Phase_5,20,5,42,127,1238488392
82,10,23,Ticks_Phase_5,21,1,48,79,1238510308
82,10,23,Ticks_Phase_5,22,5,42,127,1238998340
82,10,23,Ticks_Phase_5,23,1,48,97,1239007756
82,10,23,Ticks_Phase_5,24,5,42,127,1239498476
82,10,23,Ticks_Phase_5,25,1,48,99,1239503164
82,10,23,Ticks_Phase_5,26,5,42,127,1239997940
82,10,23,Ticks_Phase_5,27,1,48,94,1240004724
82,10,23,Ticks_Phase_5,28,1,48,84,1240482012
82,10,23,Ticks_Phase_5,29,5,42,127,1240497472
82,10,23,Ticks_Phase_5,30,5,42,127,1240998364
82,10,23,Ticks_Phase_5,31,1,48,95,1241012036
82,10,23,Ticks_Phase_5,32,5,42,127,1241498200
82,10,23,Ticks_Phase_5,33,1,48,89,1241508364
82,10,23,Ticks_Phase_5,34,1,48,77,1241985116
82,10,23,Ticks_Phase_5,35,5,42,127,1241997732
82,10,23,Ticks_Phase_5,36,1,48,76,1242485848
82,10,23,Ticks_Phase_5,37,5,42,127,1242498540
82,10,23,Ticks_Phase_5,38,1,48,83,1242970040
82,10,23,Ticks_Phase_5,39,5,42,127,1243008340
82,10,23,Ticks_Phase_5,40,1,48,78,1243489124
82,10,23,Ticks_Phase_5,41,5,42,127,1243508252
82,10,23,Ticks_Phase_5,42,1,48,79,1243993376
82,10,23,Ticks_Phase_5,43,5,42,127,1244007788
82,10,23,Ticks_Phase_5,44,1,48,95,1244491344
82,10,23,Ticks_Phase_5,45,5,42,127,1244507404
82,10,23,Ticks_Phase_5,46,1,48,66,1244996956
82,10,23,Ticks_Phase_5,47,5,42,127,1245008212
82,10,23,Ticks_Phase_5,48,1,48,71,1245497912
82,10,23,Ticks_Phase_5,49,5,42,127,1245508196
82,10,23,Ticks_Phase_5,50,1,48,86,1246007448
82,10,23,Ticks_Phase_5,51,5,42,127,1246009156
82,10,23,Ticks_Phase_5,52,5,42,127,1246508332
82,10,23,Ticks_Phase_5,53,1,48,87,1246519840
82,10,23,Ticks_Phase_5,54,1,48,69,1247004008
82,10,23,Ticks_Phase_5,55,5,42,127,1247008236
82,10,23,Ticks_Phase_5,56,1,48,89,1247475356
82,10,23,Ticks_Phase_5,57,5,42,127,1247507996
82,10,23,Ticks_Phase_5,58,5,42,127,1247998260
82,10,23,Ticks_Phase_5,59,1,48,87,1248025260
82,10,23,Ticks_Phase_5,60,5,42,127,1248498292
82,10,23,Ticks_Phase_5,61,1,48,77,1248507880
82,10,23,Ticks_Phase_5,62,5,42,127,1248997612
82,10,23,Ticks_Phase_5,63,1,48,59,1249004464
82,10,23,Ticks_Phase_5,64,1,48,74,1249481232
82,10,23,Ticks_Phase_5,65,5,42,127,1249497440
82,10,23,Ticks_Phase_5,66,1,48,56,1249993872
82,10,23,Ticks_Phase_5,67,5,42,127,1249998324
82,10,23,Ticks_Phase_5,68,1,48,81,1250491768
82,10,23,Ticks_Phase_5,69,5,42,127,1250498088
82,10,23,Ticks_Phase_5,70,5,42,127,1250997484
82,10,23,Ticks_Phase_5,71,1,48,63,1251012060
82,10,23,Ticks_Phase_5,72,1,48,86,1251490096
82,10,23,Ticks_Phase_5,73,5,42,127,1251498288
82,10,23,Ticks_Phase_5,74,5,42,127,1251998132
82,10,23,Ticks_Phase_5,75,1,48,76,1252009716
82,10,23,Ticks_Phase_5,76,5,42,127,1252497896
82,10,23,Ticks_Phase_5,77,1,48,59,1252532468
82,10,23,Ticks_Phase_5,78,5,42,127,1252997436
82,10,23,Ticks_Phase_5,79,1,48,84,1253008116
82,10,23,Ticks_Phase_5,80,5,42,127,1253498168
82,10,23,Ticks_Phase_5,81,1,48,76,1253505712
82,10,23,Ticks_Phase_5,82,1,48,70,1253993168
82,10,23,Ticks_Phase_5,83,5,42,127,1253997924
82,10,23,Ticks_Phase_5,84,5,42,127,1254497768
82,10,23,Ticks_Phase_5,85,1,48,86,1254518340
82,10,23,Ticks_Phase_5,86,5,42,127,1254998356
82,10,23,Ticks_Phase_5,87,1,48,76,1255004688
82,10,23,Ticks_Phase_5,88,5,42,127,1255497968
82,10,23,Ticks_Phase_5,89,1,48,76,1255509996
82,10,23,Ticks_Phase_5,90,1,48,49,1255992820
82,10,23,Ticks_Phase_5,91,5,42,127,1255997948
82,10,23,Ticks_Phase_5,92,1,48,68,1256492804
82,10,23,Ticks_Phase_5,93,5,42,127,1256497784
82,10,23,Ticks_Phase_5,94,1,48,85,1256964116
82,10,23,Ticks_Phase_5,95,5,42,127,1257007436
82,10,23,Ticks_Phase_5,96,1,48,88,1257488220
82,10,23,Ticks_Phase_5,97,5,42,127,1257508096
82,10,23,Ticks_Phase_5,98,5,42,127,1258008012
82,10,23,Ticks_Phase_5,99,1,48,80,1258016528
82,10,23,Ticks_Phase_5,100,5,42,127,1258507924
82,10,23,Ticks_Phase_5,101,1,48,59,1258511868
82,10,23,Ticks_Phase_5,102,5,42,127,1259008364
82,10,23,Ticks_Phase_5,103,1,48,81,1259024280
82,10,23,Ticks_Phase_5,104,5,42,127,1259508176
82,10,23,Ticks_Phase_5,105,1,48,79,1259540976
82,10,23,Ticks_Phase_5,106,5,42,127,1260007788
82,10,23,Ticks_Phase_5,107,1,48,62,1260019224
82,10,23,Ticks_Phase_5,108,1,48,81,1260472464
82,10,23,Ticks_Phase_5,109,5,42,127,1260507692
82,10,23,Ticks_Phase_5,110,1,48,69,1260976580
82,10,23,Ticks_Phase_5,111,5,42,127,1261008132
82,10,23,Ticks_Phase_5,112,1,48,55,1261502240
82,10,23,Ticks_Phase_5,113,5,42,127,1261507820
82,10,23,Ticks_Phase_5,114,1,48,65,1261988460
82,10,23,Ticks_Phase_5,115,5,42,127,1262007880
82,10,23,Ticks_Phase_5,116,1,48,81,1262506808
82,10,23,Ticks_Phase_5,117,5,42,127,1262508392
82,10,23,Ticks_Phase_5,118,5,42,127,1263008088
82,10,23,Ticks_Phase_5,119,1,48,89,1263032996
82,10,23,Ticks_Phase_5,120,5,42,127,1263507852
82,10,23,Ticks_Phase_5,121,1,48,69,1263525412
82,10,23,Ticks_Phase_5,122,5,42,127,1264007612
82,10,23,Ticks_Phase_5,123,1,48,55,1264029904
82,10,23,Ticks_Phase_5,124,5,42,127,1264508124
82,10,23,Ticks_Phase_5,125,1,48,95,1264521280
82,10,23,Ticks_Phase_5,126,5,42,127,1265027884
82,10,23,Ticks_Phase_5,127,1,48,90,1265041336
82,10,23,Ticks_Phase_5,128,1,48,83,1265520948
82,10,23,Ticks_Phase_5,129,5,42,127,1265528092
82,10,23,Ticks_Phase_5,130,5,42,127,1266027788
82,10,23,Ticks_Phase_5,131,1,48,87,1266059960
82,10,23,Ticks_Phase_5,132,5,42,127,1266527848
82,10,23,Ticks_Phase_5,133,1,48,88,1266569832
82,10,23,Ticks_Phase_5,134,5,42,127,1267028432
82,10,23,Ticks_Phase_5,135,1,48,67,1267041588
82,10,23,Ticks_Phase_5,136,1,48,59,1267525228
82,10,23,Ticks_Phase_5,137,5,42,127,1267528040
82,10,23,Ticks_Phase_5,138,5,42,127,1268027812
82,10,23,Ticks_Phase_5,139,1,48,86,1268054440
82,10,23,Ticks_Phase_5,140,5,42,127,1268527724
82,10,23,Ticks_Phase_5,141,1,48,62,1268561244
82,10,23,Ticks_Phase_5,142,5,42,127,1269028160
82,10,23,Ticks_Phase_5,143,1,48,71,1269045588
82,10,23,Ticks_Phase_5,144,1,48,80,1269520548
82,10,23,Ticks_Phase_5,145,5,42,127,1269527916
82,10,23,Ticks_Phase_5,146,1,48,86,1270025864
82,10,23,Ticks_Phase_5,147,5,42,127,1270027604
82,10,23,Ticks_Phase_5,148,1,48,59,1270519900
82,10,23,Ticks_Phase_5,149,5,42,127,1270528412
82,10,23,Ticks_Phase_5,150,5,42,127,1271028084
82,10,23,Ticks_Phase_5,151,1,48,56,1271067400
82,10,23,Ticks_Phase_5,152,5,42,127,1271527772
82,10,23,Ticks_Phase_5,153,1,48,80,1271528736
82,10,23,Ticks_Phase_5,154,1,48,89,1272017092
82,10,23,Ticks_Phase_5,155,5,42,127,1272027600
82,10,23,Ticks_Phase_5,156,1,48,93,1272515952
82,10,23,Ticks_Phase_5,157,5,42,127,1272528188
82,10,23,Ticks_Phase_5,158,5,42,127,1273027880
82,10,23,Ticks_Phase_5,159,1,48,105,1273031748
82,10,23,Ticks_Phase_5,160,5,42,127,1273508472
82,10,23,Ticks_Phase_5,161,1,48,98,1273523116
82,10,23,Ticks_Phase_5,162,5,42,127,1274007788
82,10,23,Ticks_Phase_5,163,1,48,84,1274014120
82,10,23,Ticks_Phase_5,164,5,42,127,1274507696
82,10,23,Ticks_Phase_5,165,1,48,77,1274512836
82,10,23,Ticks_Phase_5,166,5,42,127,1275008656
82,10,23,Ticks_Phase_5,167,1,48,86,1275016504
82,10,23,Ticks_Phase_5,168,5,42,127,1275508124
82,10,23,Ticks_Phase_5,169,1,48,77,1275513484
82,10,23,Ticks_Phase_5,170,5,42,127,1276007736
82,10,23,Ticks_Phase_5,171,1,48,79,1276031224
82,10,23,Ticks_Phase_5,172,5,42,127,1276507572
82,10,23,Ticks_Phase_5,173,1,48,100,1276516232
82,10,23,Ticks_Phase_5,174,5,42,127,1277008528
82,10,23,Ticks_Phase_5,175,1,48,94,1277032620
82,10,23,Ticks_Phase_5,176,5,42,127,1277508072
82,10,23,Ticks_Phase_5,177,1,48,86,1277530292
82,10,23,Ticks_Phase_5,178,5,42,127,1278007536
82,10,23,Ticks_Phase_5,179,1,48,77,1278020692
82,10,23,Ticks_Phase_5,180,1,48,63,1278500444
82,10,23,Ticks_Phase_5,181,5,42,127,1278508560
82,10,23,Ticks_Phase_5,182,5,42,127,1279008556
82,10,23,Ticks_Phase_5,183,1,48,75,1279024700
82,10,23,Ticks_Phase_5,184,5,42,127,1279507796
82,10,23,Ticks_Phase_5,185,1,48,62,1279530088
82,10,23,Ticks_Phase_5,186,5,42,127,1280007484
82,10,23,Ticks_Phase_5,187,1,48,78,1280010152
82,10,23,Ticks_Phase_5,188,5,42,127,1280508440
82,10,23,Ticks_Phase_5,189,1,48,57,1280512012
82,10,23,Ticks_Phase_5,190,5,42,127,1281008032
82,10,23,Ticks_Phase_5,191,1,48,89,1281011752
82,10,23,Ticks_Phase_5,192,5,42,127,1281457476
82,10,23,Ticks_Phase_5,193,1,48,64,1281531832
82,10,23,Ticks_Phase_5,194,5,42,127,1281958432
82,10,23,Ticks_Phase_5,195,1,48,81,1281989340
82,10,23,Ticks_Phase_5,196,5,42,127,1282457976
82,10,23,Ticks_Phase_5,197,1,48,67,1282479816
82,10,23,Ticks_Phase_5,198,5,42,127,1282957664
82,10,23,Ticks_Phase_5,199,1,48,66,1282969844
82,10,23,Ticks_Phase_5,200,5,42,127,1283458544
82,10,23,Ticks_Phase_5,201,1,48,69,1283481664
82,10,23,Ticks_Phase_5,202,1,48,70,1283959100
82,10,23,Ticks_Phase_5,203,5,42,127,1283968412
82,10,23,Ticks_Phase_5,204,1,48,75,1284465660
82,10,23,Ticks_Phase_5,205,5,42,127,1284468248
82,10,23,Ticks_Phase_5,206,5,42,127,1284967796
82,10,23,Ticks_Phase_5,207,1,48,70,1284970388
82,10,23,Ticks_Phase_5,208,5,42,127,1285467484
82,10,23,Ticks_Phase_5,209,1,48,69,1285492316
82,10,23,Ticks_Phase_5,210,5,42,127,1285968364
82,10,23,Ticks_Phase_5,211,1,48,64,1285999124
82,10,23,Ticks_Phase_5,212,5,42,127,1286467832
82,10,23,Ticks_Phase_5,213,1,48,64,1286485172
82,10,23,Ticks_Phase_5,214,5,42,127,1286967520
82,10,23,Ticks_Phase_5,215,1,48,59,1286981648
82,10,23,Ticks_Phase_5,216,5,42,127,1287468480
82,10,23,Ticks_Phase_5,217,1,48,63,1287477220
82,10,23,Ticks_Phase_5,218,1,48,69,1287949340
82,10,23,Ticks_Phase_5,219,5,42,127,1287968384
82,10,23,Ticks_Phase_5,220,1,48,69,1288465416
82,10,23,Ticks_Phase_5,221,5,42,127,1288467924
82,10,23,Ticks_Phase_5,222,1,48,54,1288951528
82,10,23,Ticks_Phase_5,223,5,42,127,1288967388
82,10,23,Ticks_Phase_5,224,5,42,127,1289468356
82,10,23,Ticks_Phase_5,225,1,48,65,1289484356
82,10,23,Ticks_Phase_5,226,1,48,65,1289976400
82,10,23,Ticks_Phase_5,227,5,42,127,1290018360
82,10,23,Ticks_Phase_5,228,5,42,127,1290517760
82,10,23,Ticks_Phase_5,229,1,48,63,1290530388
82,10,23,Ticks_Phase_5,230,5,42,127,1291017672
82,10,23,Ticks_Phase_5,231,1,48,68,1291047828
82,10,23,Ticks_Phase_5,232,5,42,127,1291518184
82,10,23,Ticks_Phase_5,233,1,48,70,1291521152
82,10,23,Ticks_Phase_5,234,5,42,127,1292017996
82,10,23,Ticks_Phase_5,235,1,48,68,1292036496
82,10,23,Ticks_Phase_5,236,5,42,127,1292517684
82,10,23,Ticks_Phase_5,237,1,48,70,1292520348
82,10,23,Ticks_Phase_5,238,5,42,127,1293017592
82,10,23,Ticks_Phase_5,239,1,48,69,1293020112
82,10,23,Ticks_Phase_5,240,5,42,127,1293518104
82,10,23,Ticks_Phase_5,241,1,48,63,1293540920
82,10,23,Ticks_Phase_5,242,5,42,127,1294017940
82,10,23,Ticks_Phase_5,243,1,48,62,1294052436
82,10,23,Ticks_Phase_5,244,5,42,127,1294517628
82,10,23,Ticks_Phase_5,245,1,48,59,1294531980
82,10,23,Ticks_Phase_5,246,5,42,127,1295018288
82,10,23,Ticks_Phase_5,247,1,48,51,1295040656
82,10,23,Ticks_Phase_5,248,5,42,127,1295517976
82,10,23,Ticks_Phase_5,249,1,48,60,1295544456
82,10,23,Ticks_Phase_5,250,5,42,127,1296017740
82,10,23,Ticks_Phase_5,251,1,48,71,1296035528
82,10,23,Ticks_Phase_5,252,5,42,127,1296517428
82,10,23,Ticks_Phase_5,253,1,48,61,1296530952
82,10,23,Ticks_Phase_5,254,5,42,127,1297018164
82,10,23,Ticks_Phase_5,255,1,48,68,1297028996
82,10,23,Ticks_Phase_5,256,1,48,70,1297506512
82,10,23,Ticks_Phase_5,257,5,42,127,1297518068
82,10,23,Ticks_Phase_5,258,5,42,127,1298017688
82,10,23,Ticks_Phase_5,259,1,48,69,1298034132
82,10,23,Ticks_Phase_5,260,1,48,65,1298531344
82,10,23,Ticks_Phase_5,261,5,42,127,1298617868
82,10,23,Ticks_Phase_5,262,1,48,73,1299103144
82,10,23,Ticks_Phase_5,263,5,42,127,1299117408
82,10,23,Ticks_Phase_5,264,5,42,127,1299618224
82,10,23,Ticks_Phase_5,265,1,48,66,1299649952
82,10,23,Ticks_Phase_5,266,5,42,127,1300118060
82,10,23,Ticks_Phase_5,267,1,48,57,1300179368
82,10,23,Ticks_Phase_5,268,5,42,127,1300617676
82,10,23,Ticks_Phase_5,269,1,48,50,1300660260
82,10,23,Ticks_Phase_5,270,5,42,127,1301118184
82,10,23,Ticks_Phase_5,271,1,48,56,1301156132
82,10,23,Ticks_Phase_5,272,5,42,127,1301618168
82,10,23,Ticks_Phase_5,273,1,48,58,1301648924
82,10,23,Ticks_Phase_5,274,5,42,127,1302118304
82,10,23,Ticks_Phase_5,275,1,48,65,1302137232
82,10,23,Ticks_Phase_5,276,5,42,127,1302617472
82,10,23,Ticks_Phase_5,277,1,48,64,1302651588
82,10,23,Ticks_Phase_5,278,5,42,127,1303118132
82,10,23,Ticks_Phase_5,279,1,48,62,1303146796
82,10,23,Ticks_Phase_5,280,5,42,127,1303618044
82,10,23,Ticks_Phase_5,281,1,48,73,1303628808
82,10,23,Ticks_Phase_5,282,5,42,127,1304117584
82,10,23,Ticks_Phase_5,283,1,48,60,1304163388
82,10,23,Ticks_Phase_5,284,5,42,127,1304618244
82,10,23,Ticks_Phase_5,285,1,48,62,1304623384
82,10,23,Ticks_Phase_5,286,5,42,127,1305118080
82,10,23,Ticks_Phase_5,287,1,48,56,1305140448
82,10,23,Ticks_Phase_5,288,1,48,61,1305617992
82,10,23,Ticks_Phase_5,289,5,42,127,1305619256
82,10,23,Ticks_Phase_5,290,5,42,127,1306117460
82,10,23,Ticks_Phase_5,291,1,48,57,1306124088
82,10,23,Ticks_Phase_5,292,5,42,127,1306618268
82,10,23,Ticks_Phase_5,293,1,48,55,1306621460
82,10,23,Ticks_Phase_5,294,5,42,127,1307118008
82,10,23,Ticks_Phase_5,295,1,48,58,1307156728
82,10,23,Ticks_Phase_5,296,5,42,127,1307617916
82,10,23,Ticks_Phase_5,297,1,48,54,1307652364
82,10,23,Ticks_Phase_5,298,5,42,127,1308017932
82,10,23,Ticks_Phase_5,299,1,48,57,1308128668
82,10,23,Ticks_Phase_5,300,5,42,127,1308517772
82,10,23,Ticks_Phase_5,301,1,48,64,1308578780
82,10,23,Ticks_Phase_5,302,1,48,50,1309010828
82,10,23,Ticks_Phase_5,303,5,42,127,1309017452
82,10,23,Ticks_Phase_5,304,1,48,60,1309485288
82,10,23,Ticks_Phase_5,305,5,42,127,1309518188
82,10,23,Ticks_Phase_5,306,1,48,64,1309989760
82,10,23,Ticks_Phase_5,307,5,42,127,1310017876
82,10,23,Ticks_Phase_5,308,1,48,56,1310505316
82,10,23,Ticks_Phase_5,309,5,42,127,1310517712
82,10,23,Ticks_Phase_5,310,1,48,70,1310999248
82,10,23,Ticks_Phase_5,311,5,42,127,1311018448
82,10,23,Ticks_Phase_5,312,5,42,127,1311518068
82,10,23,Ticks_Phase_5,313,1,48,57,1311533388
82,10,23,Ticks_Phase_5,314,5,42,127,1312017832
82,10,23,Ticks_Phase_5,315,1,48,61,1312024692
82,10,23,Ticks_Phase_5,316,5,42,127,1312517672
82,10,23,Ticks_Phase_5,317,1,48,60,1312534564
82,10,23,Ticks_Phase_5,318,5,42,127,1313018180
82,10,23,Ticks_Phase_5,319,1,48,54,1313028196
82,10,23,Ticks_Phase_5,320,5,42,127,1313517848
82,10,23,Ticks_Phase_5,321,1,48,59,1313530952
82,10,23,Ticks_Phase_5,322,1,48,51,1314014424
82,10,23,Ticks_Phase_5,323,5,42,127,1314017828
82,10,23,Ticks_Phase_5,324,1,48,74,1314497120
82,10,23,Ticks_Phase_5,325,5,42,127,1314518636
82,10,23,Ticks_Phase_5,326,1,48,55,1315012376
82,10,23,Ticks_Phase_5,327,5,42,127,1315017952
82,10,23,Ticks_Phase_5,328,5,42,127,1315517796
82,10,23,Ticks_Phase_5,329,1,48,64,1315526912
82,10,23,Ticks_Phase_5,330,5,42,127,1316017856
82,10,23,Ticks_Phase_5,331,1,48,54,1316024116
82,10,23,Ticks_Phase_5,332,5,42,127,1316518148
82,10,23,Ticks_Phase_5,333,1,48,54,1316529728
82,10,23,Ticks_Phase_5,334,1,48,47,1317014416
82,10,23,Ticks_Phase_5,335,5,42,127,1317018052
82,10,23,Ticks_Phase_5,336,5,42,127,1317517748
82,10,23,Ticks_Phase_5,0,9999,9999,9999,1232985180
82,10,23,Ticks_Phase_5,1,9999,9999,9999,1233485936
82,10,23,Ticks_Phase_5,2,9999,9999,9999,1233985648
82,10,23,Ticks_Phase_5,3,9999,9999,9999,1234485336
82,10,23,Ticks_Phase_5,4,9999,9999,9999,1234986072
82,10,23,Ticks_Phase_5,5,9999,9999,9999,1235485760
82,10,23,Ticks_Phase_5,6,9999,9999,9999,1235985516
82,10,23,Ticks_Phase_5,7,9999,9999,9999,1236485208
82,10,23,Ticks_Phase_5,8,9999,9999,9999,1236985920
82,10,23,Ticks_Phase_5,9,9999,9999,9999,1237485680
82,10,23,Ticks_Phase_5,10,9999,9999,9999,1237985368
82,10,23,Ticks_Phase_5,11,9999,9999,9999,1238486108
82,10,23,Ticks_Phase_5,12,9999,9999,9999,1238996052
82,10,23,Ticks_Phase_5,13,9999,9999,9999,1239495740
82,10,23,Ticks_Phase_5,14,9999,9999,9999,1239995500
82,10,23,Ticks_Phase_5,15,9999,9999,9999,1240495184
82,10,23,Ticks_Phase_5,16,9999,9999,9999,1240995924
82,10,23,Ticks_Phase_5,17,9999,9999,9999,1241495612
82,10,23,Ticks_Phase_5,18,9999,9999,9999,1241995368
82,10,23,Ticks_Phase_5,19,9999,9999,9999,1242496104
82,10,23,Ticks_Phase_5,20,9999,9999,9999,1243006052
82,10,23,Ticks_Phase_5,21,9999,9999,9999,1243505740
82,10,23,Ticks_Phase_5,22,9999,9999,9999,1244005500
82,10,23,Ticks_Phase_5,23,9999,9999,9999,1244505188
82,10,23,Ticks_Phase_5,24,9999,9999,9999,1245005924
82,10,23,Ticks_Phase_5,25,9999,9999,9999,1245505612
82,10,23,Ticks_Phase_5,26,9999,9999,9999,1246005304
82,10,23,Ticks_Phase_5,27,9999,9999,9999,1246506040
82,10,23,Ticks_Phase_5,28,9999,9999,9999,1247005800
82,10,23,Ticks_Phase_5,29,9999,9999,9999,1247505484
82,10,23,Ticks_Phase_5,30,9999,9999,9999,1247995968
82,10,23,Ticks_Phase_5,31,9999,9999,9999,1248495708
82,10,23,Ticks_Phase_5,32,9999,9999,9999,1248995396
82,10,23,Ticks_Phase_5,33,9999,9999,9999,1249495152
82,10,23,Ticks_Phase_5,34,9999,9999,9999,1249995888
82,10,23,Ticks_Phase_5,35,9999,9999,9999,1250495576
82,10,23,Ticks_Phase_5,36,9999,9999,9999,1250995272
82,10,23,Ticks_Phase_5,37,9999,9999,9999,1251496000
82,10,23,Ticks_Phase_5,38,9999,9999,9999,1251995768
82,10,23,Ticks_Phase_5,39,9999,9999,9999,1252495456
82,10,23,Ticks_Phase_5,40,9999,9999,9999,1252995144
82,10,23,Ticks_Phase_5,41,9999,9999,9999,1253495880
82,10,23,Ticks_Phase_5,42,9999,9999,9999,1253995636
82,10,23,Ticks_Phase_5,43,9999,9999,9999,1254495332
82,10,23,Ticks_Phase_5,44,9999,9999,9999,1254996064
82,10,23,Ticks_Phase_5,45,9999,9999,9999,1255495752
82,10,23,Ticks_Phase_5,46,9999,9999,9999,1255995508
82,10,23,Ticks_Phase_5,47,9999,9999,9999,1256495196
82,10,23,Ticks_Phase_5,48,9999,9999,9999,1257005144
82,10,23,Ticks_Phase_5,49,9999,9999,9999,1257505880
82,10,23,Ticks_Phase_5,50,9999,9999,9999,1258005576
82,10,23,Ticks_Phase_5,51,9999,9999,9999,1258505340
82,10,23,Ticks_Phase_5,52,9999,9999,9999,1259006072
82,10,23,Ticks_Phase_5,53,9999,9999,9999,1259505736
82,10,23,Ticks_Phase_5,54,9999,9999,9999,1260005500
82,10,23,Ticks_Phase_5,55,9999,9999,9999,1260505180
82,10,23,Ticks_Phase_5,56,9999,9999,9999,1261005916
82,10,23,Ticks_Phase_5,57,9999,9999,9999,1261505604
82,10,23,Ticks_Phase_5,58,9999,9999,9999,1262005368
82,10,23,Ticks_Phase_5,59,9999,9999,9999,1262506116
82,10,23,Ticks_Phase_5,60,9999,9999,9999,1263005800
82,10,23,Ticks_Phase_5,61,9999,9999,9999,1263505488
82,10,23,Ticks_Phase_5,62,9999,9999,9999,1264005176
82,10,23,Ticks_Phase_5,63,9999,9999,9999,1264505908
82,10,23,Ticks_Phase_5,64,9999,9999,9999,1265025144
82,10,23,Ticks_Phase_5,65,9999,9999,9999,1265525876
82,10,23,Ticks_Phase_5,66,9999,9999,9999,1266025572
82,10,23,Ticks_Phase_5,67,9999,9999,9999,1266525260
82,10,23,Ticks_Phase_5,68,9999,9999,9999,1267025996
82,10,23,Ticks_Phase_5,69,9999,9999,9999,1267525752
82,10,23,Ticks_Phase_5,70,9999,9999,9999,1268025444
82,10,23,Ticks_Phase_5,71,9999,9999,9999,1268525136
82,10,23,Ticks_Phase_5,72,9999,9999,9999,1269025868
82,10,23,Ticks_Phase_5,73,9999,9999,9999,1269525628
82,10,23,Ticks_Phase_5,74,9999,9999,9999,1270025340
82,10,23,Ticks_Phase_5,75,9999,9999,9999,1270526048
82,10,23,Ticks_Phase_5,76,9999,9999,9999,1271025720
82,10,23,Ticks_Phase_5,77,9999,9999,9999,1271525480
82,10,23,Ticks_Phase_5,78,9999,9999,9999,1272025164
82,10,23,Ticks_Phase_5,79,9999,9999,9999,1272525896
82,10,23,Ticks_Phase_5,80,9999,9999,9999,1273025592
82,10,23,Ticks_Phase_5,81,9999,9999,9999,1273505884
82,10,23,Ticks_Phase_5,82,9999,9999,9999,1274005572
82,10,23,Ticks_Phase_5,83,9999,9999,9999,1274505332
82,10,23,Ticks_Phase_5,84,9999,9999,9999,1275006068
82,10,23,Ticks_Phase_5,85,9999,9999,9999,1275505756
82,10,23,Ticks_Phase_5,86,9999,9999,9999,1276005448
82,10,23,Ticks_Phase_5,87,9999,9999,9999,1276505208
82,10,23,Ticks_Phase_5,88,9999,9999,9999,1277005944
82,10,23,Ticks_Phase_5,89,9999,9999,9999,1277505632
82,10,23,Ticks_Phase_5,90,9999,9999,9999,1278005320
82,10,23,Ticks_Phase_5,91,9999,9999,9999,1278506048
82,10,23,Ticks_Phase_5,92,9999,9999,9999,1279005820
82,10,23,Ticks_Phase_5,93,9999,9999,9999,1279505508
82,10,23,Ticks_Phase_5,94,9999,9999,9999,1280005196
82,10,23,Ticks_Phase_5,95,9999,9999,9999,1280505928
82,10,23,Ticks_Phase_5,96,9999,9999,9999,1281005668
82,10,23,Ticks_Phase_5,97,9999,9999,9999,1281455184
82,10,23,Ticks_Phase_5,98,9999,9999,9999,1281955920
82,10,23,Ticks_Phase_5,99,9999,9999,9999,1282455612
82,10,23,Ticks_Phase_5,100,9999,9999,9999,1282955372
82,10,23,Ticks_Phase_5,101,9999,9999,9999,1283456112
82,10,23,Ticks_Phase_5,102,9999,9999,9999,1283966048
82,10,23,Ticks_Phase_5,103,9999,9999,9999,1284465736
82,10,23,Ticks_Phase_5,104,9999,9999,9999,1284965432
82,10,23,Ticks_Phase_5,105,9999,9999,9999,1285465192
82,10,23,Ticks_Phase_5,106,9999,9999,9999,1285965928
82,10,23,Ticks_Phase_5,107,9999,9999,9999,1286465616
82,10,23,Ticks_Phase_5,108,9999,9999,9999,1286965308
82,10,23,Ticks_Phase_5,109,9999,9999,9999,1287466040
82,10,23,Ticks_Phase_5,110,9999,9999,9999,1287965800
82,10,23,Ticks_Phase_5,111,9999,9999,9999,1288465484
82,10,23,Ticks_Phase_5,112,9999,9999,9999,1288965176
82,10,23,Ticks_Phase_5,113,9999,9999,9999,1289465916
82,10,23,Ticks_Phase_5,114,9999,9999,9999,1290015848
82,10,23,Ticks_Phase_5,115,9999,9999,9999,1290515544
82,10,23,Ticks_Phase_5,116,9999,9999,9999,1291015236
82,10,23,Ticks_Phase_5,117,9999,9999,9999,1291515968
82,10,23,Ticks_Phase_5,118,9999,9999,9999,1292015704
82,10,23,Ticks_Phase_5,119,9999,9999,9999,1292515392
82,10,23,Ticks_Phase_5,120,9999,9999,9999,1293015156
82,10,23,Ticks_Phase_5,121,9999,9999,9999,1293515892
82,10,23,Ticks_Phase_5,122,9999,9999,9999,1294015576
82,10,23,Ticks_Phase_5,123,9999,9999,9999,1294515264
82,10,23,Ticks_Phase_5,124,9999,9999,9999,1295016000
82,10,23,Ticks_Phase_5,125,9999,9999,9999,1295515760
82,10,23,Ticks_Phase_5,126,9999,9999,9999,1296015448
82,10,23,Ticks_Phase_5,127,9999,9999,9999,1296515136
82,10,23,Ticks_Phase_5,128,9999,9999,9999,1297015872
82,10,23,Ticks_Phase_5,129,9999,9999,9999,1297515628
82,10,23,Ticks_Phase_5,130,9999,9999,9999,1298015324
82,10,23,Ticks_Phase_5,131,9999,9999,9999,1298615356
82,10,23,Ticks_Phase_5,132,9999,9999,9999,1299115120
82,10,23,Ticks_Phase_5,133,9999,9999,9999,1299615860
82,10,23,Ticks_Phase_5,134,9999,9999,9999,1300115548
82,10,23,Ticks_Phase_5,135,9999,9999,9999,1300615236
82,10,23,Ticks_Phase_5,136,9999,9999,9999,1301115968
82,10,23,Ticks_Phase_5,137,9999,9999,9999,1301615732
82,10,23,Ticks_Phase_5,138,9999,9999,9999,1302115420
82,10,23,Ticks_Phase_5,139,9999,9999,9999,1302615108
82,10,23,Ticks_Phase_5,140,9999,9999,9999,1303115844
82,10,23,Ticks_Phase_5,141,9999,9999,9999,1303615604
82,10,23,Ticks_Phase_5,142,9999,9999,9999,1304115296
82,10,23,Ticks_Phase_5,143,9999,9999,9999,1304616032
82,10,23,Ticks_Phase_5,144,9999,9999,9999,1305115716
82,10,23,Ticks_Phase_5,145,9999,9999,9999,1305615480
82,10,23,Ticks_Phase_5,146,9999,9999,9999,1306115168
82,10,23,Ticks_Phase_5,147,9999,9999,9999,1306615904
82,10,23,Ticks_Phase_5,148,9999,9999,9999,1307115644
82,10,23,Ticks_Phase_5,149,9999,9999,9999,1307615332
82,10,23,Ticks_Phase_5,150,9999,9999,9999,1308015716
82,10,23,Ticks_Phase_5,151,9999,9999,9999,1308515404
82,10,23,Ticks_Phase_5,152,9999,9999,9999,1309015164
82,10,23,Ticks_Phase_5,153,9999,9999,9999,1309515900
82,10,23,Ticks_Phase_5,154,9999,9999,9999,1310015584
82,10,23,Ticks_Phase_5,155,9999,9999,9999,1310515272
82,10,23,Ticks_Phase_5,156,9999,9999,9999,1311016008
82,10,23,Ticks_Phase_5,157,9999,9999,9999,1311515704
82,10,23,Ticks_Phase_5,158,9999,9999,9999,1312015468
82,10,23,Ticks_Phase_5,159,9999,9999,9999,1312515156
82,10,23,Ticks_Phase_5,160,9999,9999,9999,1313015892
82,10,23,Ticks_Phase_5,161,9999,9999,9999,1313515632
82,10,23,Ticks_Phase_5,162,9999,9999,9999,1314015316
82,10,23,Ticks_Phase_5,163,9999,9999,9999,1314516048
82,10,23,Ticks_Phase_5,164,9999,9999,9999,1315015736
82,10,23,Ticks_Phase_5,165,9999,9999,9999,1315515508
82,10,23,Ticks_Phase_5,166,9999,9999,9999,1316015196
82,10,23,Ticks_Phase_5,167,9999,9999,9999,1316515928
82,10,23,Ticks_Phase_5,168,9999,9999,9999,1317015612
82,10,23,Ticks_Phase_5,169,9999,9999,9999,1317515384
82,11,25,Jits_Pract_5,0,5,56,103,1362720092
82,11,25,Jits_Pract_5,1,5,63,98,1362723184
82,11,25,Jits_Pract_5,2,5,80,127,1362726384
82,11,25,Jits_Pract_5,0,5,56,103,1363219812
82,11,25,Jits_Pract_5,1,5,63,98,1363222908
82,11,25,Jits_Pract_5,2,5,80,127,1363225956
82,11,25,Jits_Pract_5,0,5,56,103,1363719776
82,11,25,Jits_Pract_5,1,5,80,127,1363729748
82,11,25,Jits_Pract_5,2,5,63,98,1363750284
82,11,25,Jits_Pract_5,0,5,63,98,1364180684
82,11,25,Jits_Pract_5,1,5,80,127,1364210136
82,11,25,Jits_Pract_5,2,5,56,103,1364220480
82,11,25,Jits_Pract_5,0,5,80,127,1364739376
82,11,25,Jits_Pract_5,1,5,56,103,1364749644
82,11,25,Jits_Pract_5,2,5,63,98,1364780440
82,11,25,Jits_Pract_5,0,5,63,98,1365229796
82,11,25,Jits_Pract_5,1,5,56,103,1365259720
82,11,25,Jits_Pract_5,2,5,80,127,1365269844
82,11,25,Jits_Pract_5,0,5,56,103,1365679704
82,11,25,Jits_Pract_5,1,5,63,98,1365729756
82,11,25,Jits_Pract_5,2,5,80,127,1365750016
82,11,25,Jits_Pract_5,0,5,80,127,1366180120
82,11,25,Jits_Pract_5,1,5,63,98,1366230548
82,11,25,Jits_Pract_5,2,5,56,103,1366270508
82,11,25,Jits_Pract_5,0,5,56,103,1366679788
82,11,25,Jits_Pract_5,1,5,63,98,1366709760
82,11,25,Jits_Pract_5,2,5,80,127,1366780360
82,11,25,Jits_Pract_5,0,5,56,103,1367179604
82,11,25,Jits_Pract_5,1,5,80,127,1367239996
82,11,25,Jits_Pract_5,2,5,63,98,1367269668
82,11,25,Jits_Pract_5,0,5,56,103,1367689608
82,11,25,Jits_Pract_5,1,5,63,98,1367699956
82,11,25,Jits_Pract_5,2,5,80,127,1367739744
82,11,25,Jits_Pract_5,0,5,63,98,1368180056
82,11,25,Jits_Pract_5,1,5,80,127,1368260076
82,11,25,Jits_Pract_5,2,5,56,103,1368270272
82,11,25,Jits_Pract_5,0,5,63,98,1368729912
82,11,25,Jits_Pract_5,1,5,56,103,1368769920
82,11,25,Jits_Pract_5,2,5,80,127,1368772840
82,11,25,Jits_Pract_5,0,5,56,103,1369189696
82,11,25,Jits_Pract_5,1,5,63,98,1369199968
82,11,25,Jits_Pract_5,2,1,48,20,1369217336
82,11,25,Jits_Pract_5,3,5,80,127,1369239900
82,11,25,Jits_Pract_5,0,5,56,103,1369680188
82,11,25,Jits_Pract_5,1,5,63,98,1369683400
82,11,25,Jits_Pract_5,2,5,80,127,1369699748
82,11,25,Jits_Pract_5,3,1,48,23,1369720324
82,11,25,Jits_Pract_5,0,9999,9999,9999,1362967604
82,11,25,Jits_Pract_5,1,9999,9999,9999,1363467324
82,11,25,Jits_Pract_5,2,9999,9999,9999,1363968116
82,11,25,Jits_Pract_5,3,9999,9999,9999,1364478020
82,11,25,Jits_Pract_5,4,9999,9999,9999,1364977724
82,11,25,Jits_Pract_5,5,9999,9999,9999,1365477464
82,11,25,Jits_Pract_5,6,9999,9999,9999,1365977192
82,11,25,Jits_Pract_5,7,9999,9999,9999,1366477908
82,11,25,Jits_Pract_5,8,9999,9999,9999,1366977648
82,11,25,Jits_Pract_5,9,9999,9999,9999,1367477316
82,11,25,Jits_Pract_5,10,9999,9999,9999,1367978100
82,11,25,Jits_Pract_5,11,9999,9999,9999,1368477772
82,11,25,Jits_Pract_5,12,9999,9999,9999,1368977492
82,11,25,Jits_Pract_5,13,9999,9999,9999,1369477200
82,11,25,Jits_Pract_5,14,9999,9999,9999,1369977936
82,12,24,Jits_Pract_8,0,5,56,103,1417054552
82,12,24,Jits_Pract_8,1,5,63,98,1417057648
82,12,24,Jits_Pract_8,2,5,80,127,1417060700
82,12,24,Jits_Pract_8,0,5,56,103,1417855532
82,12,24,Jits_Pract_8,1,5,63,98,1417858480
82,12,24,Jits_Pract_8,2,5,80,127,1417861604
82,12,24,Jits_Pract_8,0,5,80,127,1418594580
82,12,24,Jits_Pract_8,1,1,48,45,1418680556
82,12,24,Jits_Pract_8,2,5,63,98,1418684856
82,12,24,Jits_Pract_8,3,5,56,103,1418694904
82,12,24,Jits_Pract_8,0,5,56,103,1419414880
82,12,24,Jits_Pract_8,1,5,63,98,1419425372
82,12,24,Jits_Pract_8,2,1,48,45,1419494348
82,12,24,Jits_Pract_8,3,5,80,127,1419515372
82,12,24,Jits_Pract_8,0,5,63,98,1420184904
82,12,24,Jits_Pract_8,1,1,48,59,1420194320
82,12,24,Jits_Pract_8,2,5,80,127,1420214572
82,12,24,Jits_Pract_8,3,5,56,103,1420245440
82,12,24,Jits_Pract_8,0,5,56,103,1420984652
82,12,24,Jits_Pract_8,1,1,48,51,1420989340
82,12,24,Jits_Pract_8,2,5,80,127,1421085128
82,12,24,Jits_Pract_8,3,5,63,98,1421135400
82,12,24,Jits_Pract_8,0,5,56,103,1421784424
82,12,24,Jits_Pract_8,1,5,80,127,1421834652
82,12,24,Jits_Pract_8,2,1,48,54,1421854856
82,12,24,Jits_Pract_8,3,5,63,98,1421874432
82,12,24,Jits_Pract_8,0,5,80,127,1422615304
82,12,24,Jits_Pract_8,1,5,63,98,1422644608
82,12,24,Jits_Pract_8,2,1,48,47,1422656272
82,12,24,Jits_Pract_8,3,5,56,103,1422715404
82,12,24,Jits_Pract_8,0,5,63,98,1423445272
82,12,24,Jits_Pract_8,1,5,56,103,1423475320
82,12,24,Jits_Pract_8,2,1,48,62,1423478820
82,12,24,Jits_Pract_8,3,5,80,127,1423534508
82,12,24,Jits_Pract_8,0,5,56,103,1424184712
82,12,24,Jits_Pract_8,1,5,80,127,1424187708
82,12,24,Jits_Pract_8,2,1,48,55,1424296832
82,12,24,Jits_Pract_8,3,5,63,98,1424304428
82,12,24,Jits_Pract_8,0,1,48,54,1425055920
82,12,24,Jits_Pract_8,1,5,56,103,1425065232
82,12,24,Jits_Pract_8,2,5,80,127,1425105396
82,12,24,Jits_Pract_8,3,5,63,98,1425114396
82,12,24,Jits_Pract_8,0,5,56,103,1425825216
82,12,24,Jits_Pract_8,1,5,80,127,1425844556
82,12,24,Jits_Pract_8,2,5,63,98,1425924448
82,12,24,Jits_Pract_8,3,1,48,63,1425942620
82,12,24,Jits_Pract_8,0,5,80,127,1426614652
82,12,24,Jits_Pract_8,1,1,48,51,1426698260
82,12,24,Jits_Pract_8,2,5,56,103,1426714920
82,12,24,Jits_Pract_8,3,5,63,98,1426725336
82,12,24,Jits_Pract_8,0,5,63,98,1427384684
82,12,24,Jits_Pract_8,1,5,80,127,1427445100
82,12,24,Jits_Pract_8,2,5,56,103,1427455220
82,12,24,Jits_Pract_8,3,1,48,55,1427528908
82,12,24,Jits_Pract_8,0,5,56,103,1428184436
82,12,24,Jits_Pract_8,1,1,48,62,1428235460
82,12,24,Jits_Pract_8,2,5,63,98,1428255180
82,12,24,Jits_Pract_8,3,5,80,127,1428258696
82,12,24,Jits_Pract_8,0,9999,9999,9999,1417452632
82,12,24,Jits_Pract_8,1,9999,9999,9999,1418252368
82,12,24,Jits_Pract_8,2,9999,9999,9999,1419052080
82,12,24,Jits_Pract_8,3,9999,9999,9999,1419852896
82,12,24,Jits_Pract_8,4,9999,9999,9999,1420652660
82,12,24,Jits_Pract_8,5,9999,9999,9999,1421452344
82,12,24,Jits_Pract_8,6,9999,9999,9999,1422252112
82,12,24,Jits_Pract_8,7,9999,9999,9999,1423052856
82,12,24,Jits_Pract_8,8,9999,9999,9999,1423852632
82,12,24,Jits_Pract_8,9,9999,9999,9999,1424652392
82,12,24,Jits_Pract_8,10,9999,9999,9999,1425452096
82,12,24,Jits_Pract_8,11,9999,9999,9999,1426252900
82,12,24,Jits_Pract_8,12,9999,9999,9999,1427052604
82,12,24,Jits_Pract_8,13,9999,9999,9999,1427852372
82,12,24,Jits_Pract_8,14,9999,9999,9999,1428652116
82,13,25,Jits_Pract_5,0,5,56,103,1439522172
82,13,25,Jits_Pract_5,1,5,63,98,1439525420
82,13,25,Jits_Pract_5,2,5,80,127,1439528540
82,13,25,Jits_Pract_5,0,5,56,103,1440021824
82,13,25,Jits_Pract_5,1,5,63,98,1440024992
82,13,25,Jits_Pract_5,2,5,80,127,1440028192
82,13,25,Jits_Pract_5,0,1,48,53,1440455640
82,13,25,Jits_Pract_5,1,5,56,103,1440521556
82,13,25,Jits_Pract_5,2,5,80,127,1440531756
82,13,25,Jits_Pract_5,3,5,63,98,1440552360
82,13,25,Jits_Pract_5,0,5,63,98,1440972084
82,13,25,Jits_Pract_5,1,5,80,127,1441001984
82,13,25,Jits_Pract_5,2,5,56,103,1441011980
82,13,25,Jits_Pract_5,3,1,48,65,1441026632
82,13,25,Jits_Pract_5,0,1,48,60,1441507096
82,13,25,Jits_Pract_5,1,5,80,127,1441532176
82,13,25,Jits_Pract_5,2,5,56,103,1441541476
82,13,25,Jits_Pract_5,3,5,63,98,1441572196
82,13,25,Jits_Pract_5,0,5,63,98,1442021884
82,13,25,Jits_Pract_5,1,1,48,58,1442039404
82,13,25,Jits_Pract_5,2,5,56,103,1442051428
82,13,25,Jits_Pract_5,3,5,80,127,1442061920
82,13,25,Jits_Pract_5,0,5,56,103,1442472276
82,13,25,Jits_Pract_5,1,5,63,98,1442521432
82,13,25,Jits_Pract_5,2,1,48,59,1442535260
82,13,25,Jits_Pract_5,3,5,80,127,1442541960
82,13,25,Jits_Pract_5,0,5,80,127,1442971980
82,13,25,Jits_Pract_5,1,5,63,98,1443022256
82,13,25,Jits_Pract_5,2,1,48,65,1443043736
82,13,25,Jits_Pract_5,3,5,56,103,1443062140
82,13,25,Jits_Pract_5,0,5,56,103,1443471832
82,13,25,Jits_Pract_5,1,5,63,98,1443501508
82,13,25,Jits_Pract_5,2,1,48,57,1443527324
82,13,25,Jits_Pract_5,3,5,80,127,1443572028
82,13,25,Jits_Pract_5,0,5,56,103,1443971464
82,13,25,Jits_Pract_5,1,1,48,57,1444014292
82,13,25,Jits_Pract_5,2,5,80,127,1444031776
82,13,25,Jits_Pract_5,3,5,63,98,1444061896
82,13,25,Jits_Pract_5,0,5,56,103,1444482404
82,13,25,Jits_Pract_5,1,5,63,98,1444491852
82,13,25,Jits_Pract_5,2,1,48,55,1444510632
82,13,25,Jits_Pract_5,3,5,80,127,1444531708
82,13,25,Jits_Pract_5,0,5,63,98,1444971988
82,13,25,Jits_Pract_5,1,1,48,59,1445023432
82,13,25,Jits_Pract_5,2,5,80,127,1445051704
82,13,25,Jits_Pract_5,3,5,56,103,1445061976
82,13,25,Jits_Pract_5,0,5,63,98,1445521804
82,13,25,Jits_Pract_5,1,1,48,54,1445543208
82,13,25,Jits_Pract_5,2,5,56,103,1445561960
82,13,25,Jits_Pract_5,3,5,80,127,1445565024
82,13,25,Jits_Pract_5,0,5,56,103,1445981556
82,13,25,Jits_Pract_5,1,5,63,98,1445991976
82,13,25,Jits_Pract_5,2,5,80,127,1446031688
82,13,25,Jits_Pract_5,3,1,48,50,1446039072
82,13,25,Jits_Pract_5,0,5,56,103,1446472040
82,13,25,Jits_Pract_5,1,5,63,98,1446475180
82,13,25,Jits_Pract_5,2,5,80,127,1446491600
82,13,25,Jits_Pract_5,3,1,48,65,1446539060
82,13,25,Jits_Pract_5,0,9999,9999,9999,1439769684
82,13,25,Jits_Pract_5,1,9999,9999,9999,1440269408
82,13,25,Jits_Pract_5,2,9999,9999,9999,1440769132
82,13,25,Jits_Pract_5,3,9999,9999,9999,1441269868
82,13,25,Jits_Pract_5,4,9999,9999,9999,1441769540
82,13,25,Jits_Pract_5,5,9999,9999,9999,1442269304
82,13,25,Jits_Pract_5,6,9999,9999,9999,1442770036
82,13,25,Jits_Pract_5,7,9999,9999,9999,1443269744
82,13,25,Jits_Pract_5,8,9999,9999,9999,1443769448
82,13,25,Jits_Pract_5,9,9999,9999,9999,1444269152
82,13,25,Jits_Pract_5,10,9999,9999,9999,1444769900
82,13,25,Jits_Pract_5,11,9999,9999,9999,1445269604
82,13,25,Jits_Pract_5,12,9999,9999,9999,1445769292
82,13,25,Jits_Pract_5,13,9999,9999,9999,1446270024
82,13,25,Jits_Pract_5,14,9999,9999,9999,1446769716
82,14,7,Jits_ISO_8,0,5,56,103,1474144640
82,14,7,Jits_ISO_8,1,5,63,98,1474147664
82,14,7,Jits_ISO_8,2,5,80,127,1474150936
82,14,7,Jits_ISO_8,0,5,56,103,1474945316
82,14,7,Jits_ISO_8,1,5,63,98,1474948488
82,14,7,Jits_ISO_8,2,5,80,127,1474951536
82,14,7,Jits_ISO_8,0,5,80,127,1475684788
82,14,7,Jits_ISO_8,1,1,48,65,1475725748
82,14,7,Jits_ISO_8,2,5,63,98,1475775216
82,14,7,Jits_ISO_8,3,5,56,103,1475785188
82,14,7,Jits_ISO_8,0,5,56,103,1476505040
82,14,7,Jits_ISO_8,1,5,63,98,1476515164
82,14,7,Jits_ISO_8,2,1,48,70,1476547880
82,14,7,Jits_ISO_8,3,5,80,127,1476605240
82,14,7,Jits_ISO_8,0,5,63,98,1477275168
82,14,7,Jits_ISO_8,1,5,80,127,1477304548
82,14,7,Jits_ISO_8,2,5,56,103,1477335344
82,14,7,Jits_ISO_8,3,1,48,76,1477360664
82,14,7,Jits_ISO_8,0,5,56,103,1478074724
82,14,7,Jits_ISO_8,1,1,48,66,1478095152
82,14,7,Jits_ISO_8,2,5,80,127,1478175068
82,14,7,Jits_ISO_8,3,5,63,98,1478225256
82,14,7,Jits_ISO_8,0,5,56,103,1478874528
82,14,7,Jits_ISO_8,1,5,80,127,1478924608
82,14,7,Jits_ISO_8,2,1,48,73,1478943240
82,14,7,Jits_ISO_8,3,5,63,98,1478964540
82,14,7,Jits_ISO_8,0,5,80,127,1479704988
82,14,7,Jits_ISO_8,1,1,48,63,1479721292
82,14,7,Jits_ISO_8,2,5,63,98,1479734584
82,14,7,Jits_ISO_8,3,5,56,103,1479805240
82,14,7,Jits_ISO_8,0,1,48,62,1480514800
82,14,7,Jits_ISO_8,1,5,63,98,1480535352
82,14,7,Jits_ISO_8,2,5,56,103,1480565176
82,14,7,Jits_ISO_8,3,5,80,127,1480624356
82,14,7,Jits_ISO_8,0,5,56,103,1481274900
82,14,7,Jits_ISO_8,1,5,80,127,1481277968
82,14,7,Jits_ISO_8,2,1,48,61,1481345156
82,14,7,Jits_ISO_8,3,5,63,98,1481394624
82,14,7,Jits_ISO_8,0,1,48,75,1482137820
82,14,7,Jits_ISO_8,1,5,56,103,1482155376
82,14,7,Jits_ISO_8,2,5,80,127,1482195240
82,14,7,Jits_ISO_8,3,5,63,98,1482204464
82,14,7,Jits_ISO_8,0,5,56,103,1482915236
82,14,7,Jits_ISO_8,1,5,80,127,1482934504
82,14,7,Jits_ISO_8,2,1,48,70,1482939116
82,14,7,Jits_ISO_8,3,5,63,98,1483014536
82,14,7,Jits_ISO_8,0,5,80,127,1483704624
82,14,7,Jits_ISO_8,1,1,48,51,1483773184
82,14,7,Jits_ISO_8,2,5,56,103,1483804968
82,14,7,Jits_ISO_8,3,5,63,98,1483815236
82,14,7,Jits_ISO_8,0,5,63,98,1484474980
82,14,7,Jits_ISO_8,1,5,80,127,1484535100
82,14,7,Jits_ISO_8,2,5,56,103,1484545296
82,14,7,Jits_ISO_8,3,1,48,55,1484584304
82,14,7,Jits_ISO_8,0,5,56,103,1485274536
82,14,7,Jits_ISO_8,1,1,48,71,1485305404
82,14,7,Jits_ISO_8,2,5,63,98,1485345136
82,14,7,Jits_ISO_8,3,5,80,127,1485348424
82,14,7,Jits_ISO_8,0,1,48,55,1486072580
82,14,7,Jits_ISO_8,1,5,63,98,1486105060
82,14,7,Jits_ISO_8,2,5,56,103,1486155112
82,14,7,Jits_ISO_8,3,5,80,127,1486158328
82,14,7,Jits_ISO_8,0,5,56,103,1486864900
82,14,7,Jits_ISO_8,1,5,80,127,1486867896
82,14,7,Jits_ISO_8,2,1,48,56,1486869308
82,14,7,Jits_ISO_8,3,5,63,98,1486954804
82,14,7,Jits_ISO_8,0,1,48,64,1487691316
82,14,7,Jits_ISO_8,1,5,63,98,1487704464
82,14,7,Jits_ISO_8,2,5,56,103,1487794732
82,14,7,Jits_ISO_8,3,5,80,127,1487825232
82,14,7,Jits_ISO_8,0,5,56,103,1488494892
82,14,7,Jits_ISO_8,1,1,48,61,1488556900
82,14,7,Jits_ISO_8,2,5,63,98,1488595284
82,14,7,Jits_ISO_8,3,5,80,127,1488624912
82,14,7,Jits_ISO_8,0,5,63,98,1489315072
82,14,7,Jits_ISO_8,1,5,56,103,1489325640
82,14,7,Jits_ISO_8,2,1,48,69,1489339700
82,14,7,Jits_ISO_8,3,5,80,127,1489414596
82,14,7,Jits_ISO_8,0,5,63,98,1490135460
82,14,7,Jits_ISO_8,1,1,48,70,1490145100
82,14,7,Jits_ISO_8,2,5,56,103,1490215276
82,14,7,Jits_ISO_8,3,5,80,127,1490218344
82,14,7,Jits_ISO_8,0,5,80,127,1490895156
82,14,7,Jits_ISO_8,1,5,63,98,1490914944
82,14,7,Jits_ISO_8,2,5,56,103,1490975060
82,14,7,Jits_ISO_8,3,1,48,74,1491004780
82,14,7,Jits_ISO_8,0,1,48,84,1491731580
82,14,7,Jits_ISO_8,1,5,56,103,1491734984
82,14,7,Jits_ISO_8,2,5,63,98,1491755520
82,14,7,Jits_ISO_8,3,5,80,127,1491758956
82,14,7,Jits_ISO_8,0,5,63,98,1492475204
82,14,7,Jits_ISO_8,1,1,48,69,1492507468
82,14,7,Jits_ISO_8,2,5,80,127,1492555148
82,14,7,Jits_ISO_8,3,5,56,103,1492565492
82,14,7,Jits_ISO_8,0,5,63,98,1493294396
82,14,7,Jits_ISO_8,1,1,48,69,1493302076
82,14,7,Jits_ISO_8,2,5,56,103,1493314924
82,14,7,Jits_ISO_8,3,5,80,127,1493365052
82,14,7,Jits_ISO_8,0,1,48,78,1494088000
82,14,7,Jits_ISO_8,1,5,80,127,1494095144
82,14,7,Jits_ISO_8,2,5,63,98,1494135236
82,14,7,Jits_ISO_8,3,5,56,103,1494154648
82,14,7,Jits_ISO_8,0,1,48,62,1494906140
82,14,7,Jits_ISO_8,1,5,56,103,1494934940
82,14,7,Jits_ISO_8,2,5,63,98,1494945136
82,14,7,Jits_ISO_8,3,5,80,127,1494964696
82,14,7,Jits_ISO_8,0,5,56,103,1495664900
82,14,7,Jits_ISO_8,1,1,48,72,1495710268
82,14,7,Jits_ISO_8,2,5,63,98,1495755104
82,14,7,Jits_ISO_8,3,5,80,127,1495814832
82,14,7,Jits_ISO_8,0,5,80,127,1496494668
82,14,7,Jits_ISO_8,1,5,56,103,1496504640
82,14,7,Jits_ISO_8,2,1,48,51,1496526416
82,14,7,Jits_ISO_8,3,5,63,98,1496575612
82,14,7,Jits_ISO_8,0,1,48,67,1497322688
82,14,7,Jits_ISO_8,1,5,63,98,1497324828
82,14,7,Jits_ISO_8,2,5,80,127,1497414888
82,14,7,Jits_ISO_8,3,5,56,103,1497425220
82,14,7,Jits_ISO_8,0,5,63,98,1498065260
82,14,7,Jits_ISO_8,1,5,80,127,1498114664
82,14,7,Jits_ISO_8,2,1,48,70,1498142728
82,14,7,Jits_ISO_8,3,5,56,103,1498174752
82,14,7,Jits_ISO_8,0,5,56,103,1498894664
82,14,7,Jits_ISO_8,1,1,48,73,1498932852
82,14,7,Jits_ISO_8,2,5,80,127,1498944936
82,14,7,Jits_ISO_8,3,5,63,98,1498965616
82,14,7,Jits_ISO_8,0,5,56,103,1499664864
82,14,7,Jits_ISO_8,1,1,48,57,1499710084
82,14,7,Jits_ISO_8,2,5,80,127,1499725252
82,14,7,Jits_ISO_8,3,5,63,98,1499794856
82,14,7,Jits_ISO_8,0,5,56,103,1500464436
82,14,7,Jits_ISO_8,1,5,80,127,1500495160
82,14,7,Jits_ISO_8,2,1,48,67,1500505256
82,14,7,Jits_ISO_8,3,5,63,98,1500524904
82,14,7,Jits_ISO_8,0,5,56,103,1501305136
82,14,7,Jits_ISO_8,1,1,48,57,1501308776
82,14,7,Jits_ISO_8,2,5,80,127,1501324616
82,14,7,Jits_ISO_8,3,5,63,98,1501384932
82,14,7,Jits_ISO_8,0,1,48,59,1502107000
82,14,7,Jits_ISO_8,1,5,80,127,1502184796
82,14,7,Jits_ISO_8,2,5,56,103,1502194944
82,14,7,Jits_ISO_8,3,5,63,98,1502205568
82,14,7,Jits_ISO_8,0,5,56,103,1502944660
82,14,7,Jits_ISO_8,1,5,80,127,1502984700
82,14,7,Jits_ISO_8,2,1,48,65,1502988344
82,14,7,Jits_ISO_8,3,5,63,98,1503015564
82,14,7,Jits_ISO_8,0,5,56,103,1503714644
82,14,7,Jits_ISO_8,1,5,63,98,1503745392
82,14,7,Jits_ISO_8,2,5,80,127,1503785628
82,14,7,Jits_ISO_8,3,1,48,74,1503803664
82,14,7,Jits_ISO_8,0,5,80,127,1504465516
82,14,7,Jits_ISO_8,1,5,63,98,1504514624
82,14,7,Jits_ISO_8,2,5,56,103,1504534784
82,14,7,Jits_ISO_8,3,1,48,61,1504563156
82,14,7,Jits_ISO_8,0,5,56,103,1505294708
82,14,7,Jits_ISO_8,1,1,48,71,1505327572
82,14,7,Jits_ISO_8,2,5,80,127,1505365436
82,14,7,Jits_ISO_8,3,5,63,98,1505424628
82,14,7,Jits_ISO_8,0,5,80,127,1506094360
82,14,7,Jits_ISO_8,1,1,48,67,1506161008
82,14,7,Jits_ISO_8,2,5,63,98,1506184492
82,14,7,Jits_ISO_8,3,5,56,103,1506205248
82,14,7,Jits_ISO_8,0,5,63,98,1506914692
82,14,7,Jits_ISO_8,1,5,56,103,1506935076
82,14,7,Jits_ISO_8,2,5,80,127,1506975240
82,14,7,Jits_ISO_8,3,1,48,71,1506997912
82,14,7,Jits_ISO_8,0,5,80,127,1507674468
82,14,7,Jits_ISO_8,1,5,63,98,1507694928
82,14,7,Jits_ISO_8,2,1,48,67,1507752132
82,14,7,Jits_ISO_8,3,5,56,103,1507774864
82,14,7,Jits_ISO_8,0,5,63,98,1508465120
82,14,7,Jits_ISO_8,1,1,48,70,1508537844
82,14,7,Jits_ISO_8,2,5,56,103,1508574580
82,14,7,Jits_ISO_8,3,5,80,127,1508577796
82,14,7,Jits_ISO_8,0,5,63,98,1509285496
82,14,7,Jits_ISO_8,1,5,56,103,1509294340
82,14,7,Jits_ISO_8,2,5,80,127,1509297488
82,14,7,Jits_ISO_8,3,1,48,67,1509334476
82,14,7,Jits_ISO_8,0,5,56,103,1510064436
82,14,7,Jits_ISO_8,1,1,48,54,1510108012
82,14,7,Jits_ISO_8,2,5,80,127,1510185232
82,14,7,Jits_ISO_8,3,5,63,98,1510225452
82,14,7,Jits_ISO_8,0,5,56,103,1510884692
82,14,7,Jits_ISO_8,1,5,80,127,1510964516
82,14,7,Jits_ISO_8,2,5,63,98,1510985052
82,14,7,Jits_ISO_8,3,1,48,43,1510990712
82,14,7,Jits_ISO_8,0,5,56,103,1511684440
82,14,7,Jits_ISO_8,1,1,48,54,1511714012
82,14,7,Jits_ISO_8,2,5,63,98,1511795020
82,14,7,Jits_ISO_8,3,5,80,127,1511798536
82,14,7,Jits_ISO_8,0,5,56,103,1512514800
82,14,7,Jits_ISO_8,1,5,80,127,1512544552
82,14,7,Jits_ISO_8,2,5,63,98,1512565232
82,14,7,Jits_ISO_8,3,1,48,58,1512566800
82,14,7,Jits_ISO_8,0,5,63,98,1513295412
82,14,7,Jits_ISO_8,1,5,56,103,1513304336
82,14,7,Jits_ISO_8,2,5,80,127,1513314608
82,14,7,Jits_ISO_8,3,1,48,35,1513378860
82,14,7,Jits_ISO_8,0,5,80,127,1514084700
82,14,7,Jits_ISO_8,1,1,48,53,1514134536
82,14,7,Jits_ISO_8,2,5,56,103,1514136168
82,14,7,Jits_ISO_8,3,5,63,98,1514174764
82,14,7,Jits_ISO_8,0,5,80,127,1514905028
82,14,7,Jits_ISO_8,1,5,63,98,1514925488
82,14,7,Jits_ISO_8,2,1,48,59,1514972376
82,14,7,Jits_ISO_8,3,5,56,103,1514974488
82,14,7,Jits_ISO_8,0,5,80,127,1515714792
82,14,7,Jits_ISO_8,1,5,56,103,1515744544
82,14,7,Jits_ISO_8,2,1,48,54,1515799004
82,14,7,Jits_ISO_8,3,5,63,98,1515815216
82,14,7,Jits_ISO_8,0,5,56,103,1516564820
82,14,7,Jits_ISO_8,1,5,80,127,1516575092
82,14,7,Jits_ISO_8,2,1,48,73,1516601876
82,14,7,Jits_ISO_8,3,5,63,98,1516615244
82,14,7,Jits_ISO_8,0,5,56,103,1517274388
82,14,7,Jits_ISO_8,1,5,63,98,1517295172
82,14,7,Jits_ISO_8,2,5,80,127,1517364556
82,14,7,Jits_ISO_8,3,1,48,69,1517386860
82,14,7,Jits_ISO_8,0,5,63,98,1518094588
82,14,7,Jits_ISO_8,1,1,48,60,1518124684
82,14,7,Jits_ISO_8,2,5,80,127,1518155272
82,14,7,Jits_ISO_8,3,5,56,103,1518174536
82,14,7,Jits_ISO_8,0,5,80,127,1518885304
82,14,7,Jits_ISO_8,1,5,56,103,1518915132
82,14,7,Jits_ISO_8,2,5,63,98,1518944584
82,14,7,Jits_ISO_8,3,1,48,49,1518954224
82,14,7,Jits_ISO_8,0,5,56,103,1519685172
82,14,7,Jits_ISO_8,1,5,63,98,1519745344
82,14,7,Jits_ISO_8,2,1,48,54,1519781124
82,14,7,Jits_ISO_8,3,5,80,127,1519804828
82,14,7,Jits_ISO_8,0,5,80,127,1520505128
82,14,7,Jits_ISO_8,1,5,56,103,1520524692
82,14,7,Jits_ISO_8,2,1,48,64,1520572992
82,14,7,Jits_ISO_8,3,5,63,98,1520595412
82,14,7,Jits_ISO_8,0,5,80,127,1521305300
82,14,7,Jits_ISO_8,1,5,63,98,1521325464
82,14,7,Jits_ISO_8,2,1,48,61,1521346044
82,14,7,Jits_ISO_8,3,5,56,103,1521355204
82,14,7,Jits_ISO_8,0,5,80,127,1522094384
82,14,7,Jits_ISO_8,1,5,63,98,1522115216
82,14,7,Jits_ISO_8,2,1,48,73,1522116108
82,14,7,Jits_ISO_8,3,5,56,103,1522175328
82,14,7,Jits_ISO_8,0,5,80,127,1522895304
82,14,7,Jits_ISO_8,1,1,48,66,1522931260
82,14,7,Jits_ISO_8,2,5,56,103,1522994676
82,14,7,Jits_ISO_8,3,5,63,98,1523025324
82,14,7,Jits_ISO_8,0,5,63,98,1523684620
82,14,7,Jits_ISO_8,1,5,80,127,1523735072
82,14,7,Jits_ISO_8,2,1,48,62,1523750328
82,14,7,Jits_ISO_8,3,5,56,103,1523755380
82,14,7,Jits_ISO_8,0,1,48,64,1524525340
82,14,7,Jits_ISO_8,1,5,80,127,1524526752
82,14,7,Jits_ISO_8,2,5,56,103,1524555156
82,14,7,Jits_ISO_8,3,5,63,98,1524558224
82,14,7,Jits_ISO_8,0,1,48,69,1525343140
82,14,7,Jits_ISO_8,1,5,63,98,1525355000
82,14,7,Jits_ISO_8,2,5,56,103,1525394940
82,14,7,Jits_ISO_8,3,5,80,127,1525415252
82,14,7,Jits_ISO_8,0,5,80,127,1526095308
82,14,7,Jits_ISO_8,1,5,63,98,1526175184
82,14,7,Jits_ISO_8,2,1,48,63,1526193596
82,14,7,Jits_ISO_8,3,5,56,103,1526214968
82,14,7,Jits_ISO_8,0,5,63,98,1526914444
82,14,7,Jits_ISO_8,1,1,48,70,1526962452
82,14,7,Jits_ISO_8,2,5,80,127,1526995432
82,14,7,Jits_ISO_8,3,5,56,103,1527014696
82,14,7,Jits_ISO_8,0,5,56,103,1527755144
82,14,7,Jits_ISO_8,1,5,63,98,1527765488
82,14,7,Jits_ISO_8,2,1,48,73,1527789912
82,14,7,Jits_ISO_8,3,5,80,127,1527805148
82,14,7,Jits_ISO_8,0,5,56,103,1528474928
82,14,7,Jits_ISO_8,1,5,80,127,1528478072
82,14,7,Jits_ISO_8,2,1,48,74,1528572832
82,14,7,Jits_ISO_8,3,5,63,98,1528615200
82,14,7,Jits_ISO_8,0,5,56,103,1529264524
82,14,7,Jits_ISO_8,1,1,48,68,1529321280
82,14,7,Jits_ISO_8,2,5,63,98,1529354680
82,14,7,Jits_ISO_8,3,5,80,127,1529425320
82,14,7,Jits_ISO_8,0,1,48,66,1530140360
82,14,7,Jits_ISO_8,1,5,63,98,1530145336
82,14,7,Jits_ISO_8,2,5,80,127,1530148700
82,14,7,Jits_ISO_8,3,5,56,103,1530204380
82,14,7,Jits_ISO_8,0,1,48,61,1530981124
82,14,7,Jits_ISO_8,1,5,80,127,1530984904
82,14,7,Jits_ISO_8,2,5,56,103,1531005288
82,14,7,Jits_ISO_8,3,5,63,98,1531014440
82,14,7,Jits_ISO_8,0,5,56,103,1531694420
82,14,7,Jits_ISO_8,1,5,63,98,1531704616
82,14,7,Jits_ISO_8,2,5,80,127,1531775344
82,14,7,Jits_ISO_8,3,1,48,61,1531789024
82,14,7,Jits_ISO_8,0,5,80,127,1532495112
82,14,7,Jits_ISO_8,1,1,48,65,1532508276
82,14,7,Jits_ISO_8,2,5,56,103,1532545460
82,14,7,Jits_ISO_8,3,5,63,98,1532594540
82,14,7,Jits_ISO_8,0,1,48,57,1533332876
82,14,7,Jits_ISO_8,1,5,56,103,1533375000
82,14,7,Jits_ISO_8,2,5,63,98,1533385052
82,14,7,Jits_ISO_8,3,5,80,127,1533424940
82,14,7,Jits_ISO_8,0,5,56,103,1534115088
82,14,7,Jits_ISO_8,1,1,48,59,1534148776
82,14,7,Jits_ISO_8,2,5,63,98,1534155096
82,14,7,Jits_ISO_8,3,5,80,127,1534205248
82,14,7,Jits_ISO_8,0,5,80,127,1534874956
82,14,7,Jits_ISO_8,1,5,56,103,1534925236
82,14,7,Jits_ISO_8,2,1,48,70,1534943204
82,14,7,Jits_ISO_8,3,5,63,98,1534944788
82,14,7,Jits_ISO_8,0,5,80,127,1535684940
82,14,7,Jits_ISO_8,1,5,63,98,1535745360
82,14,7,Jits_ISO_8,2,1,48,73,1535756424
82,14,7,Jits_ISO_8,3,5,56,103,1535825220
82,14,7,Jits_ISO_8,0,5,80,127,1536465260
82,14,7,Jits_ISO_8,1,5,56,103,1536505224
82,14,7,Jits_ISO_8,2,5,63,98,1536524936
82,14,7,Jits_ISO_8,3,1,48,62,1536622832
82,14,7,Jits_ISO_8,0,5,56,103,1537315124
82,14,7,Jits_ISO_8,1,5,80,127,1537325696
82,14,7,Jits_ISO_8,2,1,48,79,1537338556
82,14,7,Jits_ISO_8,3,5,63,98,1537365328
82,14,7,Jits_ISO_8,0,1,48,62,1538110612
82,14,7,Jits_ISO_8,1,5,56,103,1538184596
82,14,7,Jits_ISO_8,2,5,63,98,1538224592
82,14,7,Jits_ISO_8,3,5,80,127,1538227960
82,14,7,Jits_ISO_8,0,5,63,98,1538874772
82,14,7,Jits_ISO_8,1,5,80,127,1538914788
82,14,7,Jits_ISO_8,2,1,48,70,1538945556
82,14,7,Jits_ISO_8,3,5,56,103,1538985728
82,14,7,Jits_ISO_8,0,5,63,98,1539665408
82,14,7,Jits_ISO_8,1,1,48,78,1539724800
82,14,7,Jits_ISO_8,2,5,56,103,1539745052
82,14,7,Jits_ISO_8,3,5,80,127,1539804620
82,14,7,Jits_ISO_8,0,5,80,127,1540475236
82,14,7,Jits_ISO_8,1,5,63,98,1540525440
82,14,7,Jits_ISO_8,2,1,48,68,1540541212
82,14,7,Jits_ISO_8,3,5,56,103,1540555108
82,14,7,Jits_ISO_8,0,5,56,103,1541264912
82,14,7,Jits_ISO_8,1,1,48,57,1541284972
82,14,7,Jits_ISO_8,2,5,63,98,1541314812
82,14,7,Jits_ISO_8,3,5,80,127,1541325232
82,14,7,Jits_ISO_8,0,1,48,59,1542055160
82,14,7,Jits_ISO_8,1,5,56,103,1542074888
82,14,7,Jits_ISO_8,2,5,63,98,1542185268
82,14,7,Jits_ISO_8,3,5,80,127,1542204828
82,14,7,Jits_ISO_8,0,5,63,98,1542874608
82,14,7,Jits_ISO_8,1,1,48,85,1542902616
82,14,7,Jits_ISO_8,2,5,80,127,1542924756
82,14,7,Jits_ISO_8,3,5,56,103,1543014724
82,14,7,Jits_ISO_8,0,5,63,98,1543665124
82,14,7,Jits_ISO_8,1,5,80,127,1543694652
82,14,7,Jits_ISO_8,2,1,48,59,1543737028
82,14,7,Jits_ISO_8,3,5,56,103,1543784852
82,14,7,Jits_ISO_8,0,5,63,98,1544464828
82,14,7,Jits_ISO_8,1,5,56,103,1544474952
82,14,7,Jits_ISO_8,2,5,80,127,1544575272
82,14,7,Jits_ISO_8,3,1,48,59,1544593684
82,14,7,Jits_ISO_8,0,5,63,98,1545364856
82,14,7,Jits_ISO_8,1,1,48,61,1545375996
82,14,7,Jits_ISO_8,2,5,80,127,1545394748
82,14,7,Jits_ISO_8,3,5,56,103,1545425172
82,14,7,Jits_ISO_8,0,1,48,89,1546178848
82,14,7,Jits_ISO_8,1,5,80,127,1546185020
82,14,7,Jits_ISO_8,2,5,63,98,1546195440
82,14,7,Jits_ISO_8,3,5,56,103,1546224988
82,14,7,Jits_ISO_8,0,5,80,127,1546884644
82,14,7,Jits_ISO_8,1,5,63,98,1546904880
82,14,7,Jits_ISO_8,2,5,56,103,1546955084
82,14,7,Jits_ISO_8,3,1,48,73,1547025128
82,14,7,Jits_ISO_8,0,5,63,98,1547714928
82,14,7,Jits_ISO_8,1,5,80,127,1547775424
82,14,7,Jits_ISO_8,2,5,56,103,1547794760
82,14,7,Jits_ISO_8,3,1,48,69,1547795652
82,14,7,Jits_ISO_8,0,5,63,98,1548474708
82,14,7,Jits_ISO_8,1,5,56,103,1548525012
82,14,7,Jits_ISO_8,2,5,80,127,1548535132
82,14,7,Jits_ISO_8,3,1,48,63,1548628152
82,14,7,Jits_ISO_8,0,5,56,103,1549305156
82,14,7,Jits_ISO_8,1,5,80,127,1549314604
82,14,7,Jits_ISO_8,2,1,48,77,1549326644
82,14,7,Jits_ISO_8,3,5,63,98,1549414772
82,14,7,Jits_ISO_8,0,5,80,127,1550064872
82,14,7,Jits_ISO_8,1,5,63,98,1550075364
82,14,7,Jits_ISO_8,2,1,48,71,1550181044
82,14,7,Jits_ISO_8,3,5,56,103,1550224680
82,14,7,Jits_ISO_8,0,5,63,98,1550874932
82,14,7,Jits_ISO_8,1,5,80,127,1550914872
82,14,7,Jits_ISO_8,2,1,48,67,1550969912
82,14,7,Jits_ISO_8,3,5,56,103,1550994736
82,14,7,Jits_ISO_8,0,5,56,103,1551664600
82,14,7,Jits_ISO_8,1,1,48,57,1551747216
82,14,7,Jits_ISO_8,2,5,80,127,1551764772
82,14,7,Jits_ISO_8,3,5,63,98,1551785452
82,14,7,Jits_ISO_8,0,5,80,127,1552524788
82,14,7,Jits_ISO_8,1,1,48,56,1552529484
82,14,7,Jits_ISO_8,2,5,56,103,1552534980
82,14,7,Jits_ISO_8,3,5,63,98,1552624972
82,14,7,Jits_ISO_8,0,5,56,103,1553325564
82,14,7,Jits_ISO_8,1,1,48,77,1553327204
82,14,7,Jits_ISO_8,2,5,63,98,1553344820
82,14,7,Jits_ISO_8,3,5,80,127,1553424776
82,14,7,Jits_ISO_8,0,5,63,98,1554075092
82,14,7,Jits_ISO_8,1,1,48,70,1554147592
82,14,7,Jits_ISO_8,2,5,56,103,1554165316
82,14,7,Jits_ISO_8,3,5,80,127,1554168312
82,14,7,Jits_ISO_8,0,5,56,103,1554904460
82,14,7,Jits_ISO_8,1,1,48,70,1554932468
82,14,7,Jits_ISO_8,2,5,80,127,1554964796
82,14,7,Jits_ISO_8,3,5,63,98,1554974992
82,14,7,Jits_ISO_8,0,5,80,127,1555755604
82,14,7,Jits_ISO_8,1,5,56,103,1555764528
82,14,7,Jits_ISO_8,2,1,48,74,1555765512
82,14,7,Jits_ISO_8,3,5,63,98,1555768860
82,14,7,Jits_ISO_8,0,5,56,103,1556515384
82,14,7,Jits_ISO_8,1,5,80,127,1556525364
82,14,7,Jits_ISO_8,2,5,63,98,1556544848
82,14,7,Jits_ISO_8,3,1,48,70,1556553592
82,14,7,Jits_ISO_8,0,5,63,98,1557285288
82,14,7,Jits_ISO_8,1,1,48,75,1557310056
82,14,7,Jits_ISO_8,2,5,80,127,1557344552
82,14,7,Jits_ISO_8,3,5,56,103,1557394756
82,14,7,Jits_ISO_8,0,1,48,77,1558093960
82,14,7,Jits_ISO_8,1,5,63,98,1558164784
82,14,7,Jits_ISO_8,2,5,56,103,1558175056
82,14,7,Jits_ISO_8,3,5,80,127,1558225392
82,14,7,Jits_ISO_8,0,5,63,98,1558865380
82,14,7,Jits_ISO_8,1,5,80,127,1558884720
82,14,7,Jits_ISO_8,2,5,56,103,1558894844
82,14,7,Jits_ISO_8,3,1,48,66,1558919008
82,14,7,Jits_ISO_8,0,5,63,98,1559665156
82,14,7,Jits_ISO_8,1,5,80,127,1559668372
82,14,7,Jits_ISO_8,2,1,48,70,1559670896
82,14,7,Jits_ISO_8,3,5,56,103,1559704864
82,14,7,Jits_ISO_8,0,1,48,73,1560489688
82,14,7,Jits_ISO_8,1,5,63,98,1560535348
82,14,7,Jits_ISO_8,2,5,80,127,1560565048
82,14,7,Jits_ISO_8,3,5,56,103,1560575544
82,14,7,Jits_ISO_8,0,5,56,103,1561284940
82,14,7,Jits_ISO_8,1,5,80,127,1561314764
82,14,7,Jits_ISO_8,2,5,63,98,1561345440
82,14,7,Jits_ISO_8,3,1,48,81,1561366692
82,14,7,Jits_ISO_8,0,1,48,73,1562157328
82,14,7,Jits_ISO_8,1,5,63,98,1562185000
82,14,7,Jits_ISO_8,2,5,56,103,1562225164
82,14,7,Jits_ISO_8,3,5,80,127,1562228304
82,14,7,Jits_ISO_8,0,5,80,127,1562884620
82,14,7,Jits_ISO_8,1,5,56,103,1562965392
82,14,7,Jits_ISO_8,2,1,48,81,1563008144
82,14,7,Jits_ISO_8,3,5,63,98,1563014612
82,14,7,Jits_ISO_8,0,5,80,127,1563664788
82,14,7,Jits_ISO_8,1,5,56,103,1563685324
82,14,7,Jits_ISO_8,2,5,63,98,1563775384
82,14,7,Jits_ISO_8,3,1,48,77,1563850636
82,14,7,Jits_ISO_8,0,5,80,127,1564504444
82,14,7,Jits_ISO_8,1,5,63,98,1564545356
82,14,7,Jits_ISO_8,2,5,56,103,1564585368
82,14,7,Jits_ISO_8,3,1,48,77,1564589460
82,14,7,Jits_ISO_8,0,5,63,98,1565274424
82,14,7,Jits_ISO_8,1,5,80,127,1565334816
82,14,7,Jits_ISO_8,2,5,56,103,1565364568
82,14,7,Jits_ISO_8,3,1,48,84,1565402900
82,14,7,Jits_ISO_8,0,5,56,103,1566075324
82,14,7,Jits_ISO_8,1,5,80,127,1566105000
82,14,7,Jits_ISO_8,2,1,48,80,1566133452
82,14,7,Jits_ISO_8,3,5,63,98,1566195152
82,14,7,Jits_ISO_8,0,5,56,103,1566885164
82,14,7,Jits_ISO_8,1,1,48,84,1566943204
82,14,7,Jits_ISO_8,2,5,80,127,1566994724
82,14,7,Jits_ISO_8,3,5,63,98,1567024472
82,14,7,Jits_ISO_8,0,1,48,93,1567717368
82,14,7,Jits_ISO_8,1,5,56,103,1567735328
82,14,7,Jits_ISO_8,2,5,63,98,1567794528
82,14,7,Jits_ISO_8,3,5,80,127,1567825456
82,14,7,Jits_ISO_8,0,1,48,83,1568488492
82,14,7,Jits_ISO_8,1,5,56,103,1568505152
82,14,7,Jits_ISO_8,2,5,63,98,1568574836
82,14,7,Jits_ISO_8,3,5,80,127,1568595280
82,14,7,Jits_ISO_8,0,1,48,88,1569264380
82,14,7,Jits_ISO_8,1,5,80,127,1569275264
82,14,7,Jits_ISO_8,2,5,63,98,1569294752
82,14,7,Jits_ISO_8,3,5,56,103,1569344808
82,14,7,Jits_ISO_8,0,9999,9999,9999,1474542684
82,14,7,Jits_ISO_8,1,9999,9999,9999,1475342456
82,14,7,Jits_ISO_8,2,9999,9999,9999,1476142152
82,14,7,Jits_ISO_8,3,9999,9999,9999,1476942924
82,14,7,Jits_ISO_8,4,9999,9999,9999,1477742716
82,14,7,Jits_ISO_8,5,9999,9999,9999,1478542428
82,14,7,Jits_ISO_8,6,9999,9999,9999,1479342152
82,14,7,Jits_ISO_8,7,9999,9999,9999,1480142924
82,14,7,Jits_ISO_8,8,9999,9999,9999,1480942676
82,14,7,Jits_ISO_8,9,9999,9999,9999,1481742444
82,14,7,Jits_ISO_8,10,9999,9999,9999,1482542172
82,14,7,Jits_ISO_8,11,9999,9999,9999,1483342928
82,14,7,Jits_ISO_8,12,9999,9999,9999,1484142660
82,14,7,Jits_ISO_8,13,9999,9999,9999,1484942456
82,14,7,Jits_ISO_8,14,9999,9999,9999,1485742152
82,14,7,Jits_ISO_8,15,9999,9999,9999,1486542912
82,14,7,Jits_ISO_8,16,9999,9999,9999,1487342704
82,14,7,Jits_ISO_8,17,9999,9999,9999,1488142432
82,14,7,Jits_ISO_8,18,9999,9999,9999,1488942144
82,14,7,Jits_ISO_8,19,9999,9999,9999,1489742912
82,14,7,Jits_ISO_8,20,9999,9999,9999,1490542696
82,14,7,Jits_ISO_8,21,9999,9999,9999,1491342404
82,14,7,Jits_ISO_8,22,9999,9999,9999,1492142200
82,14,7,Jits_ISO_8,23,9999,9999,9999,1492942956
82,14,7,Jits_ISO_8,24,9999,9999,9999,1493742688
82,14,7,Jits_ISO_8,25,9999,9999,9999,1494542396
82,14,7,Jits_ISO_8,26,9999,9999,9999,1495342184
82,14,7,Jits_ISO_8,27,9999,9999,9999,1496142944
82,14,7,Jits_ISO_8,28,9999,9999,9999,1496942664
82,14,7,Jits_ISO_8,29,9999,9999,9999,1497742396
82,14,7,Jits_ISO_8,30,9999,9999,9999,1498542176
82,14,7,Jits_ISO_8,31,9999,9999,9999,1499342932
82,14,7,Jits_ISO_8,32,9999,9999,9999,1500142680
82,14,7,Jits_ISO_8,33,9999,9999,9999,1500942396
82,14,7,Jits_ISO_8,34,9999,9999,9999,1501742192
82,14,7,Jits_ISO_8,35,9999,9999,9999,1502542972
82,14,7,Jits_ISO_8,36,9999,9999,9999,1503342684
82,14,7,Jits_ISO_8,37,9999,9999,9999,1504142412
82,14,7,Jits_ISO_8,38,9999,9999,9999,1504942132
82,14,7,Jits_ISO_8,39,9999,9999,9999,1505742908
82,14,7,Jits_ISO_8,40,9999,9999,9999,1506542660
82,14,7,Jits_ISO_8,41,9999,9999,9999,1507342456
82,14,7,Jits_ISO_8,42,9999,9999,9999,1508142164
82,14,7,Jits_ISO_8,43,9999,9999,9999,1508942928
82,14,7,Jits_ISO_8,44,9999,9999,9999,1509742692
82,14,7,Jits_ISO_8,45,9999,9999,9999,1510542404
82,14,7,Jits_ISO_8,46,9999,9999,9999,1511342128
82,14,7,Jits_ISO_8,47,9999,9999,9999,1512142968
82,14,7,Jits_ISO_8,48,9999,9999,9999,1512942712
82,14,7,Jits_ISO_8,49,9999,9999,9999,1513742428
82,14,7,Jits_ISO_8,50,9999,9999,9999,1514542136
82,14,7,Jits_ISO_8,51,9999,9999,9999,1515342908
82,14,7,Jits_ISO_8,52,9999,9999,9999,1516142712
82,14,7,Jits_ISO_8,53,9999,9999,9999,1516942444
82,14,7,Jits_ISO_8,54,9999,9999,9999,1517742160
82,14,7,Jits_ISO_8,55,9999,9999,9999,1518542932
82,14,7,Jits_ISO_8,56,9999,9999,9999,1519342664
82,14,7,Jits_ISO_8,57,9999,9999,9999,1520142388
82,14,7,Jits_ISO_8,58,9999,9999,9999,1520942188
82,14,7,Jits_ISO_8,59,9999,9999,9999,1521742956
82,14,7,Jits_ISO_8,60,9999,9999,9999,1522542680
82,14,7,Jits_ISO_8,61,9999,9999,9999,1523342408
82,14,7,Jits_ISO_8,62,9999,9999,9999,1524142132
82,14,7,Jits_ISO_8,63,9999,9999,9999,1524942956
82,14,7,Jits_ISO_8,64,9999,9999,9999,1525742696
82,14,7,Jits_ISO_8,65,9999,9999,9999,1526542412
82,14,7,Jits_ISO_8,66,9999,9999,9999,1527342144
82,14,7,Jits_ISO_8,67,9999,9999,9999,1528142908
82,14,7,Jits_ISO_8,68,9999,9999,9999,1528942696
82,14,7,Jits_ISO_8,69,9999,9999,9999,1529742420
82,14,7,Jits_ISO_8,70,9999,9999,9999,1530542140
82,14,7,Jits_ISO_8,71,9999,9999,9999,1531342904
82,14,7,Jits_ISO_8,72,9999,9999,9999,1532142712
82,14,7,Jits_ISO_8,73,9999,9999,9999,1532942436
82,14,7,Jits_ISO_8,74,9999,9999,9999,1533742172
82,14,7,Jits_ISO_8,75,9999,9999,9999,1534542932
82,14,7,Jits_ISO_8,76,9999,9999,9999,1535342652
82,14,7,Jits_ISO_8,77,9999,9999,9999,1536142452
82,14,7,Jits_ISO_8,78,9999,9999,9999,1536942172
82,14,7,Jits_ISO_8,79,9999,9999,9999,1537742940
82,14,7,Jits_ISO_8,80,9999,9999,9999,1538542688
82,14,7,Jits_ISO_8,81,9999,9999,9999,1539342396
82,14,7,Jits_ISO_8,82,9999,9999,9999,1540142180
82,14,7,Jits_ISO_8,83,9999,9999,9999,1540942932
82,14,7,Jits_ISO_8,84,9999,9999,9999,1541742652
82,14,7,Jits_ISO_8,85,9999,9999,9999,1542542452
82,14,7,Jits_ISO_8,86,9999,9999,9999,1543342160
82,14,7,Jits_ISO_8,87,9999,9999,9999,1544142912
82,14,7,Jits_ISO_8,88,9999,9999,9999,1544942716
82,14,7,Jits_ISO_8,89,9999,9999,9999,1545742432
82,14,7,Jits_ISO_8,90,9999,9999,9999,1546542148
82,14,7,Jits_ISO_8,91,9999,9999,9999,1547342900
82,14,7,Jits_ISO_8,92,9999,9999,9999,1548142700
82,14,7,Jits_ISO_8,93,9999,9999,9999,1548942404
82,14,7,Jits_ISO_8,94,9999,9999,9999,1549742192
82,14,7,Jits_ISO_8,95,9999,9999,9999,1550542960
82,14,7,Jits_ISO_8,96,9999,9999,9999,1551342708
82,14,7,Jits_ISO_8,97,9999,9999,9999,1552142416
82,14,7,Jits_ISO_8,98,9999,9999,9999,1552942148
82,14,7,Jits_ISO_8,99,9999,9999,9999,1553742920
82,14,7,Jits_ISO_8,100,9999,9999,9999,1554542708
82,14,7,Jits_ISO_8,101,9999,9999,9999,1555342416
82,14,7,Jits_ISO_8,102,9999,9999,9999,1556142132
82,14,7,Jits_ISO_8,103,9999,9999,9999,1556942904
82,14,7,Jits_ISO_8,104,9999,9999,9999,1557742652
82,14,7,Jits_ISO_8,105,9999,9999,9999,1558542440
82,14,7,Jits_ISO_8,106,9999,9999,9999,1559342144
82,14,7,Jits_ISO_8,107,9999,9999,9999,1560142956
82,14,7,Jits_ISO_8,108,9999,9999,9999,1560942668
82,14,7,Jits_ISO_8,109,9999,9999,9999,1561742448
82,14,7,Jits_ISO_8,110,9999,9999,9999,1562542172
82,14,7,Jits_ISO_8,111,9999,9999,9999,1563342928
82,14,7,Jits_ISO_8,112,9999,9999,9999,1564142676
82,14,7,Jits_ISO_8,113,9999,9999,9999,1564942400
82,14,7,Jits_ISO_8,114,9999,9999,9999,1565742196
82,14,7,Jits_ISO_8,115,9999,9999,9999,1566542948
82,14,7,Jits_ISO_8,116,9999,9999,9999,1567342676
82,14,7,Jits_ISO_8,117,9999,9999,9999,1568142408
82,14,7,Jits_ISO_8,118,9999,9999,9999,1568942196
82,14,7,Jits_ISO_8,119,9999,9999,9999,1569742944
82,15,16,Jits_ISO_5,0,5,56,103,1578838496
82,15,16,Jits_ISO_5,1,5,63,98,1578841516
82,15,16,Jits_ISO_5,2,5,80,127,1578844636
82,15,16,Jits_ISO_5,0,5,56,103,1579338216
82,15,16,Jits_ISO_5,1,5,63,98,1579341236
82,15,16,Jits_ISO_5,2,5,80,127,1579344360
82,15,16,Jits_ISO_5,0,5,56,103,1579838028
82,15,16,Jits_ISO_5,1,5,80,127,1579848000
82,15,16,Jits_ISO_5,2,1,48,63,1579857048
82,15,16,Jits_ISO_5,3,5,63,98,1579868004
82,15,16,Jits_ISO_5,0,5,63,98,1580288408
82,15,16,Jits_ISO_5,1,5,80,127,1580318008
82,15,16,Jits_ISO_5,2,5,56,103,1580328276
82,15,16,Jits_ISO_5,3,1,48,74,1580381732
82,15,16,Jits_ISO_5,0,5,80,127,1580847472
82,15,16,Jits_ISO_5,1,1,48,70,1580848364
82,15,16,Jits_ISO_5,2,5,56,103,1580857812
82,15,16,Jits_ISO_5,3,5,63,98,1580888384
82,15,16,Jits_ISO_5,0,5,63,98,1581338008
82,15,16,Jits_ISO_5,1,5,56,103,1581367612
82,15,16,Jits_ISO_5,2,1,48,81,1581374844
82,15,16,Jits_ISO_5,3,5,80,127,1581378096
82,15,16,Jits_ISO_5,0,5,56,103,1581787376
82,15,16,Jits_ISO_5,1,5,63,98,1581837824
82,15,16,Jits_ISO_5,2,5,80,127,1581858136
82,15,16,Jits_ISO_5,3,1,48,81,1581880204
82,15,16,Jits_ISO_5,0,5,80,127,1582288320
82,15,16,Jits_ISO_5,1,5,63,98,1582338396
82,15,16,Jits_ISO_5,2,1,48,75,1582362040
82,15,16,Jits_ISO_5,3,5,56,103,1582378400
82,15,16,Jits_ISO_5,0,5,56,103,1582787916
82,15,16,Jits_ISO_5,1,5,63,98,1582817888
82,15,16,Jits_ISO_5,2,1,48,76,1582873768
82,15,16,Jits_ISO_5,3,5,80,127,1582888184
82,15,16,Jits_ISO_5,0,5,56,103,1583287740
82,15,16,Jits_ISO_5,1,5,80,127,1583348076
82,15,16,Jits_ISO_5,2,1,48,72,1583376776
82,15,16,Jits_ISO_5,3,5,63,98,1583378340
82,15,16,Jits_ISO_5,0,5,56,103,1583797820
82,15,16,Jits_ISO_5,1,5,63,98,1583808016
82,15,16,Jits_ISO_5,2,5,80,127,1583847756
82,15,16,Jits_ISO_5,3,1,48,79,1583865924
82,15,16,Jits_ISO_5,0,5,63,98,1584298464
82,15,16,Jits_ISO_5,1,1,48,77,1584360872
82,15,16,Jits_ISO_5,2,5,80,127,1584378352
82,15,16,Jits_ISO_5,3,5,56,103,1584387428
82,15,16,Jits_ISO_5,0,5,63,98,1584848176
82,15,16,Jits_ISO_5,1,1,48,82,1584880536
82,15,16,Jits_ISO_5,2,5,56,103,1584888204
82,15,16,Jits_ISO_5,3,5,80,127,1584891120
82,15,16,Jits_ISO_5,0,5,56,103,1585307892
82,15,16,Jits_ISO_5,1,5,63,98,1585318388
82,15,16,Jits_ISO_5,2,5,80,127,1585358104
82,15,16,Jits_ISO_5,3,1,48,68,1585386272
82,15,16,Jits_ISO_5,0,5,56,103,1585797524
82,15,16,Jits_ISO_5,1,5,63,98,1585800592
82,15,16,Jits_ISO_5,2,5,80,127,1585817908
82,15,16,Jits_ISO_5,3,1,48,66,1585859232
82,15,16,Jits_ISO_5,0,5,80,127,1586307448
82,15,16,Jits_ISO_5,1,5,56,103,1586318092
82,15,16,Jits_ISO_5,2,1,48,59,1586338744
82,15,16,Jits_ISO_5,3,5,63,98,1586388288
82,15,16,Jits_ISO_5,0,5,63,98,1586797904
82,15,16,Jits_ISO_5,1,5,56,103,1586818288
82,15,16,Jits_ISO_5,2,1,48,76,1586850996
82,15,16,Jits_ISO_5,3,5,80,127,1586898368
82,15,16,Jits_ISO_5,0,5,56,103,1587307900
82,15,16,Jits_ISO_5,1,5,80,127,1587347764
82,15,16,Jits_ISO_5,2,1,48,66,1587355364
82,15,16,Jits_ISO_5,3,5,63,98,1587358028
82,15,16,Jits_ISO_5,0,5,80,127,1587798428
82,15,16,Jits_ISO_5,1,5,63,98,1587828176
82,15,16,Jits_ISO_5,2,5,56,103,1587868040
82,15,16,Jits_ISO_5,3,1,48,81,1587881864
82,15,16,Jits_ISO_5,0,5,56,103,1588327916
82,15,16,Jits_ISO_5,1,5,63,98,1588357444
82,15,16,Jits_ISO_5,2,1,48,76,1588381012
82,15,16,Jits_ISO_5,3,5,80,127,1588407784
82,15,16,Jits_ISO_5,0,5,80,127,1588827448
82,15,16,Jits_ISO_5,1,5,56,103,1588867388
82,15,16,Jits_ISO_5,2,5,63,98,1588877952
82,15,16,Jits_ISO_5,3,1,48,73,1588881072
82,15,16,Jits_ISO_5,0,5,80,127,1589307864
82,15,16,Jits_ISO_5,1,5,63,98,1589347800
82,15,16,Jits_ISO_5,2,1,48,67,1589384476
82,15,16,Jits_ISO_5,3,5,56,103,1589408256
82,15,16,Jits_ISO_5,0,5,56,103,1589807684
82,15,16,Jits_ISO_5,1,5,80,127,1589817880
82,15,16,Jits_ISO_5,2,1,48,65,1589884664
82,15,16,Jits_ISO_5,3,5,63,98,1589897516
82,15,16,Jits_ISO_5,0,5,80,127,1590308252
82,15,16,Jits_ISO_5,1,5,63,98,1590367672
82,15,16,Jits_ISO_5,2,1,48,68,1590398836
82,15,16,Jits_ISO_5,3,5,56,103,1590400032
82,15,16,Jits_ISO_5,0,5,56,103,1590807852
82,15,16,Jits_ISO_5,1,5,80,127,1590868540
82,15,16,Jits_ISO_5,2,1,48,55,1590901924
82,15,16,Jits_ISO_5,3,5,63,98,1590908396
82,15,16,Jits_ISO_5,0,5,56,103,1591357724
82,15,16,Jits_ISO_5,1,1,48,83,1591361216
82,15,16,Jits_ISO_5,2,5,63,98,1591367908
82,15,16,Jits_ISO_5,3,5,80,127,1591371276
82,15,16,Jits_ISO_5,0,5,80,127,1591808540
82,15,16,Jits_ISO_5,1,1,48,67,1591856396
82,15,16,Jits_ISO_5,2,5,63,98,1591897696
82,15,16,Jits_ISO_5,3,5,56,103,1591907668
82,15,16,Jits_ISO_5,0,5,56,103,1592308200
82,15,16,Jits_ISO_5,1,5,63,98,1592311220
82,15,16,Jits_ISO_5,2,5,80,127,1592314268
82,15,16,Jits_ISO_5,3,1,48,77,1592362788
82,15,16,Jits_ISO_5,0,5,80,127,1592828244
82,15,16,Jits_ISO_5,1,1,48,79,1592837512
82,15,16,Jits_ISO_5,2,5,63,98,1592877392
82,15,16,Jits_ISO_5,3,5,56,103,1592908260
82,15,16,Jits_ISO_5,0,5,56,103,1593307520
82,15,16,Jits_ISO_5,1,5,80,127,1593317864
82,15,16,Jits_ISO_5,2,1,48,79,1593358624
82,15,16,Jits_ISO_5,3,5,63,98,1593388460
82,15,16,Jits_ISO_5,0,5,56,103,1593817752
82,15,16,Jits_ISO_5,1,5,63,98,1593837940
82,15,16,Jits_ISO_5,2,1,48,82,1593878896
82,15,16,Jits_ISO_5,3,5,80,127,1593898468
82,15,16,Jits_ISO_5,0,5,80,127,1594307916
82,15,16,Jits_ISO_5,1,1,48,76,1594359012
82,15,16,Jits_ISO_5,2,5,63,98,1594377688
82,15,16,Jits_ISO_5,3,5,56,103,1594397996
82,15,16,Jits_ISO_5,0,5,80,127,1594828112
82,15,16,Jits_ISO_5,1,5,56,103,1594838384
82,15,16,Jits_ISO_5,2,5,63,98,1594847680
82,15,16,Jits_ISO_5,3,1,48,59,1594864376
82,15,16,Jits_ISO_5,0,5,80,127,1595317516
82,15,16,Jits_ISO_5,1,5,56,103,1595338200
82,15,16,Jits_ISO_5,2,1,48,72,1595341244
82,15,16,Jits_ISO_5,3,5,63,98,1595407748
82,15,16,Jits_ISO_5,0,5,56,103,1595837796
82,15,16,Jits_ISO_5,1,1,48,91,1595866488
82,15,16,Jits_ISO_5,2,5,80,127,1595868364
82,15,16,Jits_ISO_5,3,5,63,98,1595887948
82,15,16,Jits_ISO_5,0,5,63,98,1596328252
82,15,16,Jits_ISO_5,1,5,56,103,1596387672
82,15,16,Jits_ISO_5,2,1,48,83,1596398908
82,15,16,Jits_ISO_5,3,5,80,127,1596418704
82,15,16,Jits_ISO_5,0,5,63,98,1596817724
82,15,16,Jits_ISO_5,1,5,80,127,1596821084
82,15,16,Jits_ISO_5,2,1,48,96,1596900772
82,15,16,Jits_ISO_5,3,5,56,103,1596908016
82,15,16,Jits_ISO_5,0,5,56,103,1597337900
82,15,16,Jits_ISO_5,1,5,63,98,1597367648
82,15,16,Jits_ISO_5,2,1,48,89,1597395332
82,15,16,Jits_ISO_5,3,5,80,127,1597407580
82,15,16,Jits_ISO_5,0,5,63,98,1597837648
82,15,16,Jits_ISO_5,1,5,56,103,1597877664
82,15,16,Jits_ISO_5,2,1,48,68,1597885732
82,15,16,Jits_ISO_5,3,5,80,127,1597898040
82,15,16,Jits_ISO_5,0,5,63,98,1598347648
82,15,16,Jits_ISO_5,1,1,48,87,1598374728
82,15,16,Jits_ISO_5,2,5,56,103,1598387728
82,15,16,Jits_ISO_5,3,5,80,127,1598397772
82,15,16,Jits_ISO_5,0,5,80,127,1598827976
82,15,16,Jits_ISO_5,1,1,48,96,1598855676
82,15,16,Jits_ISO_5,2,5,63,98,1598897796
82,15,16,Jits_ISO_5,3,5,56,103,1598917960
82,15,16,Jits_ISO_5,0,5,56,103,1599318512
82,15,16,Jits_ISO_5,1,5,80,127,1599337776
82,15,16,Jits_ISO_5,2,1,48,74,1599377564
82,15,16,Jits_ISO_5,3,5,63,98,1599378900
82,15,16,Jits_ISO_5,0,5,63,98,1599837736
82,15,16,Jits_ISO_5,1,5,80,127,1599857972
82,15,16,Jits_ISO_5,2,1,48,88,1599862436
82,15,16,Jits_ISO_5,3,5,56,103,1599897904
82,15,16,Jits_ISO_5,0,5,63,98,1600338368
82,15,16,Jits_ISO_5,1,5,56,103,1600357632
82,15,16,Jits_ISO_5,2,1,48,91,1600365856
82,15,16,Jits_ISO_5,3,5,80,127,1600367896
82,15,16,Jits_ISO_5,0,5,80,127,1600838172
82,15,16,Jits_ISO_5,1,5,56,103,1600857512
82,15,16,Jits_ISO_5,2,1,48,60,1600865508
82,15,16,Jits_ISO_5,3,5,63,98,1600888448
82,15,16,Jits_ISO_5,0,1,48,77,1601378496
82,15,16,Jits_ISO_5,1,5,56,103,1601408484
82,15,16,Jits_ISO_5,2,5,80,127,1601411476
82,15,16,Jits_ISO_5,3,5,63,98,1601427744
82,15,16,Jits_ISO_5,0,5,63,98,1601828352
82,15,16,Jits_ISO_5,1,5,56,103,1601857808
82,15,16,Jits_ISO_5,2,5,80,127,1601918488
82,15,16,Jits_ISO_5,3,1,48,68,1601919456
82,15,16,Jits_ISO_5,0,1,48,77,1602401624
82,15,16,Jits_ISO_5,1,5,63,98,1602407720
82,15,16,Jits_ISO_5,2,5,56,103,1602417992
82,15,16,Jits_ISO_5,3,5,80,127,1602428636
82,15,16,Jits_ISO_5,0,5,56,103,1602858540
82,15,16,Jits_ISO_5,1,5,80,127,1602887992
82,15,16,Jits_ISO_5,2,1,48,64,1602897584
82,15,16,Jits_ISO_5,3,5,63,98,1602899152
82,15,16,Jits_ISO_5,0,1,48,56,1603356916
82,15,16,Jits_ISO_5,1,5,63,98,1603398064
82,15,16,Jits_ISO_5,2,5,56,103,1603408336
82,15,16,Jits_ISO_5,3,5,80,127,1603427600
82,15,16,Jits_ISO_5,0,5,56,103,1603828280
82,15,16,Jits_ISO_5,1,5,63,98,1603887320
82,15,16,Jits_ISO_5,2,1,48,70,1603888304
82,15,16,Jits_ISO_5,3,5,80,127,1603891876
82,15,16,Jits_ISO_5,0,5,80,127,1604348396
82,15,16,Jits_ISO_5,1,5,56,103,1604357472
82,15,16,Jits_ISO_5,2,1,48,68,1604383884
82,15,16,Jits_ISO_5,3,5,63,98,1604428116
82,15,16,Jits_ISO_5,0,5,80,127,1604837856
82,15,16,Jits_ISO_5,1,1,48,66,1604881128
82,15,16,Jits_ISO_5,2,5,56,103,1604908356
82,15,16,Jits_ISO_5,3,5,63,98,1604917504
82,15,16,Jits_ISO_5,0,5,63,98,1605378512
82,15,16,Jits_ISO_5,1,5,56,103,1605387588
82,15,16,Jits_ISO_5,2,1,48,69,1605394368
82,15,16,Jits_ISO_5,3,5,80,127,1605408040
82,15,16,Jits_ISO_5,0,5,80,127,1605827876
82,15,16,Jits_ISO_5,1,1,48,64,1605882484
82,15,16,Jits_ISO_5,2,5,63,98,1605888508
82,15,16,Jits_ISO_5,3,5,56,103,1605928520
82,15,16,Jits_ISO_5,0,5,56,103,1606367484
82,15,16,Jits_ISO_5,1,5,63,98,1606377704
82,15,16,Jits_ISO_5,2,1,48,58,1606381648
82,15,16,Jits_ISO_5,3,5,80,127,1606417708
82,15,16,Jits_ISO_5,0,5,56,103,1606828412
82,15,16,Jits_ISO_5,1,5,80,127,1606858088
82,15,16,Jits_ISO_5,2,1,48,71,1606870200
82,15,16,Jits_ISO_5,3,5,63,98,1606908380
82,15,16,Jits_ISO_5,0,1,48,70,1607369036
82,15,16,Jits_ISO_5,1,5,56,103,1607378496
82,15,16,Jits_ISO_5,2,5,63,98,1607418236
82,15,16,Jits_ISO_5,3,5,80,127,1607421376
82,15,16,Jits_ISO_5,0,1,48,63,1607868760
82,15,16,Jits_ISO_5,1,5,56,103,1607878000
82,15,16,Jits_ISO_5,2,5,63,98,1607888344
82,15,16,Jits_ISO_5,3,5,80,127,1607907680
82,15,16,Jits_ISO_5,0,5,56,103,1608337780
82,15,16,Jits_ISO_5,1,5,80,127,1608340772
82,15,16,Jits_ISO_5,2,5,63,98,1608377644
82,15,16,Jits_ISO_5,3,1,48,64,1608392748
82,15,16,Jits_ISO_5,0,5,63,98,1608877376
82,15,16,Jits_ISO_5,1,1,48,80,1608881468
82,15,16,Jits_ISO_5,2,5,56,103,1608908240
82,15,16,Jits_ISO_5,3,5,80,127,1608927652
82,15,16,Jits_ISO_5,0,5,80,127,1609347516
82,15,16,Jits_ISO_5,1,5,56,103,1609357788
82,15,16,Jits_ISO_5,2,5,63,98,1609368056
82,15,16,Jits_ISO_5,3,1,48,48,1609399796
82,15,16,Jits_ISO_5,0,5,56,103,1609848304
82,15,16,Jits_ISO_5,1,1,48,77,1609852916
82,15,16,Jits_ISO_5,2,5,80,127,1609888388
82,15,16,Jits_ISO_5,3,5,63,98,1609917840
82,15,16,Jits_ISO_5,0,1,48,76,1610357040
82,15,16,Jits_ISO_5,1,5,63,98,1610358536
82,15,16,Jits_ISO_5,2,5,80,127,1610368508
82,15,16,Jits_ISO_5,3,5,56,103,1610377508
82,15,16,Jits_ISO_5,0,5,56,103,1610838272
82,15,16,Jits_ISO_5,1,1,48,61,1610882592
82,15,16,Jits_ISO_5,2,5,63,98,1610907944
82,15,16,Jits_ISO_5,3,5,80,127,1610918216
82,15,16,Jits_ISO_5,0,5,80,127,1611348284
82,15,16,Jits_ISO_5,1,1,48,75,1611357656
82,15,16,Jits_ISO_5,2,5,56,103,1611358992
82,15,16,Jits_ISO_5,3,5,63,98,1611407772
82,15,16,Jits_ISO_5,0,1,48,77,1611845136
82,15,16,Jits_ISO_5,1,5,80,127,1611858360
82,15,16,Jits_ISO_5,2,5,56,103,1611917704
82,15,16,Jits_ISO_5,3,5,63,98,1611948332
82,15,16,Jits_ISO_5,0,5,56,103,1612358100
82,15,16,Jits_ISO_5,1,5,80,127,1612360940
82,15,16,Jits_ISO_5,2,5,63,98,1612397960
82,15,16,Jits_ISO_5,3,1,48,60,1612404820
82,15,16,Jits_ISO_5,0,1,48,65,1612860344
82,15,16,Jits_ISO_5,1,5,56,103,1612888396
82,15,16,Jits_ISO_5,2,5,63,98,1612918220
82,15,16,Jits_ISO_5,3,5,80,127,1612928416
82,15,16,Jits_ISO_5,0,1,48,77,1613362996
82,15,16,Jits_ISO_5,1,5,63,98,1613398320
82,15,16,Jits_ISO_5,2,5,80,127,1613407468
82,15,16,Jits_ISO_5,3,5,56,103,1613417960
82,15,16,Jits_ISO_5,0,5,80,127,1613847864
82,15,16,Jits_ISO_5,1,1,48,46,1613884984
82,15,16,Jits_ISO_5,2,5,56,103,1613898204
82,15,16,Jits_ISO_5,3,5,63,98,1613901344
82,15,16,Jits_ISO_5,0,5,56,103,1614378388
82,15,16,Jits_ISO_5,1,1,48,52,1614386760
82,15,16,Jits_ISO_5,2,5,80,127,1614397720
82,15,16,Jits_ISO_5,3,5,63,98,1614408212
82,15,16,Jits_ISO_5,0,5,63,98,1614857536
82,15,16,Jits_ISO_5,1,1,48,69,1614870840
82,15,16,Jits_ISO_5,2,5,56,103,1614888324
82,15,16,Jits_ISO_5,3,5,80,127,1614907732
82,15,16,Jits_ISO_5,0,5,56,103,1615367676
82,15,16,Jits_ISO_5,1,1,48,78,1615377872
82,15,16,Jits_ISO_5,2,5,80,127,1615379208
82,15,16,Jits_ISO_5,3,5,63,98,1615448364
82,15,16,Jits_ISO_5,0,5,63,98,1615858132
82,15,16,Jits_ISO_5,1,1,48,29,1615860144
82,15,16,Jits_ISO_5,2,5,80,127,1615898064
82,15,16,Jits_ISO_5,3,5,56,103,1615937852
82,15,16,Jits_ISO_5,0,5,56,103,1616368132
82,15,16,Jits_ISO_5,1,1,48,69,1616374840
82,15,16,Jits_ISO_5,2,5,63,98,1616378468
82,15,16,Jits_ISO_5,3,5,80,127,1616397580
82,15,16,Jits_ISO_5,0,5,63,98,1616907660
82,15,16,Jits_ISO_5,1,5,80,127,1616928116
82,15,16,Jits_ISO_5,2,5,56,103,1616947528
82,15,16,Jits_ISO_5,0,5,56,103,1617348096
82,15,16,Jits_ISO_5,1,1,48,62,1617402556
82,15,16,Jits_ISO_5,2,5,80,127,1617427760
82,15,16,Jits_ISO_5,3,5,63,98,1617438180
82,15,16,Jits_ISO_5,0,5,80,127,1617887628
82,15,16,Jits_ISO_5,1,5,63,98,1617897776
82,15,16,Jits_ISO_5,2,1,48,66,1617915944
82,15,16,Jits_ISO_5,3,5,56,103,1617927516
82,15,16,Jits_ISO_5,0,5,63,98,1618348336
82,15,16,Jits_ISO_5,1,1,48,72,1618385012
82,15,16,Jits_ISO_5,2,5,80,127,1618388268
82,15,16,Jits_ISO_5,3,5,56,103,1618447708
82,15,16,Jits_ISO_5,0,5,63,98,1618867628
82,15,16,Jits_ISO_5,1,1,48,64,1618874108
82,15,16,Jits_ISO_5,2,5,56,103,1618917772
82,15,16,Jits_ISO_5,3,5,80,127,1618947372
82,15,16,Jits_ISO_5,0,1,48,75,1619376344
82,15,16,Jits_ISO_5,1,5,80,127,1619377988
82,15,16,Jits_ISO_5,2,5,63,98,1619387664
82,15,16,Jits_ISO_5,3,5,56,103,1619458488
82,15,16,Jits_ISO_5,0,1,48,74,1619878896
82,15,16,Jits_ISO_5,1,5,80,127,1619948100
82,15,16,Jits_ISO_5,2,5,56,103,1619958292
82,15,16,Jits_ISO_5,3,5,63,98,1619961432
82,15,16,Jits_ISO_5,0,5,56,103,1620388324
82,15,16,Jits_ISO_5,1,1,48,71,1620407664
82,15,16,Jits_ISO_5,2,5,80,127,1620409148
82,15,16,Jits_ISO_5,3,5,63,98,1620418000
82,15,16,Jits_ISO_5,0,1,48,76,1620880400
82,15,16,Jits_ISO_5,1,5,63,98,1620898256
82,15,16,Jits_ISO_5,2,5,56,103,1620938044
82,15,16,Jits_ISO_5,3,5,80,127,1620957604
82,15,16,Jits_ISO_5,0,1,48,80,1621397996
82,15,16,Jits_ISO_5,1,5,63,98,1621399336
82,15,16,Jits_ISO_5,2,5,56,103,1621458304
82,15,16,Jits_ISO_5,3,5,80,127,1621461220
82,15,16,Jits_ISO_5,0,5,56,103,1621857572
82,15,16,Jits_ISO_5,1,5,80,127,1621878028
82,15,16,Jits_ISO_5,2,1,48,87,1621906476
82,15,16,Jits_ISO_5,3,5,63,98,1621918032
82,15,16,Jits_ISO_5,0,5,56,103,1622388256
82,15,16,Jits_ISO_5,1,1,48,95,1622397976
82,15,16,Jits_ISO_5,2,5,63,98,1622407512
82,15,16,Jits_ISO_5,3,5,80,127,1622417784
82,15,16,Jits_ISO_5,0,5,80,127,1622868228
82,15,16,Jits_ISO_5,1,5,56,103,1622898272
82,15,16,Jits_ISO_5,2,1,48,81,1622910012
82,15,16,Jits_ISO_5,3,5,63,98,1622938128
82,15,16,Jits_ISO_5,0,5,80,127,1623378236
82,15,16,Jits_ISO_5,1,5,56,103,1623397872
82,15,16,Jits_ISO_5,2,1,48,82,1623406316
82,15,16,Jits_ISO_5,3,5,63,98,1623458324
82,15,16,Jits_ISO_5,0,1,48,77,1623883336
82,15,16,Jits_ISO_5,1,5,56,103,1623888244
82,15,16,Jits_ISO_5,2,5,80,127,1623907804
82,15,16,Jits_ISO_5,3,5,63,98,1623968188
82,15,16,Jits_ISO_5,0,5,80,127,1624367532
82,15,16,Jits_ISO_5,1,5,56,103,1624377876
82,15,16,Jits_ISO_5,2,1,48,84,1624401000
82,15,16,Jits_ISO_5,3,5,63,98,1624417508
82,15,16,Jits_ISO_5,0,5,63,98,1624868176
82,15,16,Jits_ISO_5,1,1,48,77,1624889272
82,15,16,Jits_ISO_5,2,5,56,103,1624908104
82,15,16,Jits_ISO_5,3,5,80,127,1624911096
82,15,16,Jits_ISO_5,0,5,63,98,1625388348
82,15,16,Jits_ISO_5,1,1,48,96,1625399708
82,15,16,Jits_ISO_5,2,5,80,127,1625428352
82,15,16,Jits_ISO_5,3,5,56,103,1625458176
82,15,16,Jits_ISO_5,0,5,56,103,1625877892
82,15,16,Jits_ISO_5,1,5,63,98,1625888088
82,15,16,Jits_ISO_5,2,1,48,79,1625915392
82,15,16,Jits_ISO_5,3,5,80,127,1625917904
82,15,16,Jits_ISO_5,0,5,80,127,1626368272
82,15,16,Jits_ISO_5,1,1,48,89,1626409596
82,15,16,Jits_ISO_5,2,5,63,98,1626437944
82,15,16,Jits_ISO_5,3,5,56,103,1626448212
82,15,16,Jits_ISO_5,0,5,63,98,1626868016
82,15,16,Jits_ISO_5,1,1,48,70,1626922524
82,15,16,Jits_ISO_5,2,5,56,103,1626937840
82,15,16,Jits_ISO_5,3,5,80,127,1626948032
82,15,16,Jits_ISO_5,0,5,63,98,1627367824
82,15,16,Jits_ISO_5,1,5,56,103,1627388208
82,15,16,Jits_ISO_5,2,1,48,105,1627396804
82,15,16,Jits_ISO_5,3,5,80,127,1627428064
82,15,16,Jits_ISO_5,0,5,56,103,1627877828
82,15,16,Jits_ISO_5,1,1,48,98,1627886744
82,15,16,Jits_ISO_5,2,5,63,98,1627888768
82,15,16,Jits_ISO_5,3,5,80,127,1627968328
82,15,16,Jits_ISO_5,0,5,63,98,1628368112
82,15,16,Jits_ISO_5,1,1,48,76,1628381344
82,15,16,Jits_ISO_5,2,5,56,103,1628398100
82,15,16,Jits_ISO_5,3,5,80,127,1628437964
82,15,16,Jits_ISO_5,0,5,56,103,1628867916
82,15,16,Jits_ISO_5,1,1,48,76,1628877036
82,15,16,Jits_ISO_5,2,5,63,98,1628908020
82,15,16,Jits_ISO_5,3,5,80,127,1628947808
82,15,16,Jits_ISO_5,0,5,80,127,1629367812
82,15,16,Jits_ISO_5,1,1,48,72,1629407572
82,15,16,Jits_ISO_5,2,5,56,103,1629447400
82,15,16,Jits_ISO_5,3,5,63,98,1629458040
82,15,16,Jits_ISO_5,0,5,56,103,1629908384
82,15,16,Jits_ISO_5,1,1,48,65,1629909440
82,15,16,Jits_ISO_5,2,5,63,98,1629912488
82,15,16,Jits_ISO_5,3,5,80,127,1629917524
82,15,16,Jits_ISO_5,0,1,48,97,1630420452
82,15,16,Jits_ISO_5,1,5,56,103,1630437740
82,15,16,Jits_ISO_5,2,5,63,98,1630458196
82,15,16,Jits_ISO_5,3,5,80,127,1630467496
82,15,16,Jits_ISO_5,0,5,63,98,1630897600
82,15,16,Jits_ISO_5,1,5,80,127,1630908020
82,15,16,Jits_ISO_5,2,1,48,90,1630924996
82,15,16,Jits_ISO_5,3,5,56,103,1630928100
82,15,16,Jits_ISO_5,0,5,63,98,1631398380
82,15,16,Jits_ISO_5,1,1,48,73,1631401496
82,15,16,Jits_ISO_5,2,5,56,103,1631478116
82,15,16,Jits_ISO_5,3,5,80,127,1631481256
82,15,16,Jits_ISO_5,0,5,63,98,1631898036
82,15,16,Jits_ISO_5,1,5,56,103,1631917372
82,15,16,Jits_ISO_5,2,1,48,79,1631920040
82,15,16,Jits_ISO_5,3,5,80,127,1631948012
82,15,16,Jits_ISO_5,0,5,56,103,1632397840
82,15,16,Jits_ISO_5,1,5,63,98,1632418152
82,15,16,Jits_ISO_5,2,1,48,65,1632419192
82,15,16,Jits_ISO_5,3,5,80,127,1632428344
82,15,16,Jits_ISO_5,0,1,48,64,1632906408
82,15,16,Jits_ISO_5,1,5,56,103,1632928152
82,15,16,Jits_ISO_5,2,5,63,98,1632957824
82,15,16,Jits_ISO_5,3,5,80,127,1632961260
82,15,16,Jits_ISO_5,0,5,56,103,1633377764
82,15,16,Jits_ISO_5,1,1,48,63,1633395704
82,15,16,Jits_ISO_5,2,5,63,98,1633417768
82,15,16,Jits_ISO_5,3,5,80,127,1633478084
82,15,16,Jits_ISO_5,0,1,48,83,1633890736
82,15,16,Jits_ISO_5,1,5,56,103,1633897808
82,15,16,Jits_ISO_5,2,5,63,98,1633908080
82,15,16,Jits_ISO_5,3,5,80,127,1633967492
82,15,16,Jits_ISO_5,0,5,56,103,1634408112
82,15,16,Jits_ISO_5,1,5,80,127,1634428348
82,15,16,Jits_ISO_5,2,1,48,75,1634431168
82,15,16,Jits_ISO_5,3,5,63,98,1634457940
82,15,16,Jits_ISO_5,0,5,80,127,1634907484
82,15,16,Jits_ISO_5,1,5,56,103,1634917980
82,15,16,Jits_ISO_5,2,1,48,61,1634922524
82,15,16,Jits_ISO_5,3,5,63,98,1634938208
82,15,16,Jits_ISO_5,0,5,63,98,1635398016
82,15,16,Jits_ISO_5,1,1,48,78,1635435212
82,15,16,Jits_ISO_5,2,5,80,127,1635477952
82,15,16,Jits_ISO_5,3,5,56,103,1635488076
82,15,16,Jits_ISO_5,0,1,48,67,1635919224
82,15,16,Jits_ISO_5,1,5,80,127,1635958060
82,15,16,Jits_ISO_5,2,5,56,103,1635977840
82,15,16,Jits_ISO_5,3,5,63,98,1635980904
82,15,16,Jits_ISO_5,0,5,63,98,1636428124
82,15,16,Jits_ISO_5,1,5,80,127,1636431412
82,15,16,Jits_ISO_5,2,1,48,74,1636453936
82,15,16,Jits_ISO_5,3,5,56,103,1636487756
82,15,16,Jits_ISO_5,0,5,56,103,1636908376
82,15,16,Jits_ISO_5,1,5,80,127,1636917896
82,15,16,Jits_ISO_5,2,5,63,98,1636957608
82,15,16,Jits_ISO_5,3,1,48,57,1636964912
82,15,16,Jits_ISO_5,0,5,56,103,1637387744
82,15,16,Jits_ISO_5,1,1,48,55,1637405764
82,15,16,Jits_ISO_5,2,5,63,98,1637448052
82,15,16,Jits_ISO_5,3,5,80,127,1637458324
82,15,16,Jits_ISO_5,0,5,63,98,1637897684
82,15,16,Jits_ISO_5,1,1,48,81,1637901924
82,15,16,Jits_ISO_5,2,5,80,127,1637937616
82,15,16,Jits_ISO_5,3,5,56,103,1637977476
82,15,16,Jits_ISO_5,0,5,56,103,1638398316
82,15,16,Jits_ISO_5,1,1,48,72,1638429084
82,15,16,Jits_ISO_5,2,5,63,98,1638478324
82,15,16,Jits_ISO_5,3,5,80,127,1638481688
82,15,16,Jits_ISO_5,0,9999,9999,9999,1579085924
82,15,16,Jits_ISO_5,1,9999,9999,9999,1579585644
82,15,16,Jits_ISO_5,2,9999,9999,9999,1580085364
82,15,16,Jits_ISO_5,3,9999,9999,9999,1580586080
82,15,16,Jits_ISO_5,4,9999,9999,9999,1581085816
82,15,16,Jits_ISO_5,5,9999,9999,9999,1581585496
82,15,16,Jits_ISO_5,6,9999,9999,9999,1582085228
82,15,16,Jits_ISO_5,7,9999,9999,9999,1582585948
82,15,16,Jits_ISO_5,8,9999,9999,9999,1583085620
82,15,16,Jits_ISO_5,9,9999,9999,9999,1583585344
82,15,16,Jits_ISO_5,10,9999,9999,9999,1584086132
82,15,16,Jits_ISO_5,11,9999,9999,9999,1584596072
82,15,16,Jits_ISO_5,12,9999,9999,9999,1585095800
82,15,16,Jits_ISO_5,13,9999,9999,9999,1585595456
82,15,16,Jits_ISO_5,14,9999,9999,9999,1586095188
82,15,16,Jits_ISO_5,15,9999,9999,9999,1586595908
82,15,16,Jits_ISO_5,16,9999,9999,9999,1587095652
82,15,16,Jits_ISO_5,17,9999,9999,9999,1587595384
82,15,16,Jits_ISO_5,18,9999,9999,9999,1588096104
82,15,16,Jits_ISO_5,19,9999,9999,9999,1588606044
82,15,16,Jits_ISO_5,20,9999,9999,9999,1589105720
82,15,16,Jits_ISO_5,21,9999,9999,9999,1589605468
82,15,16,Jits_ISO_5,22,9999,9999,9999,1590105212
82,15,16,Jits_ISO_5,23,9999,9999,9999,1590605932
82,15,16,Jits_ISO_5,24,9999,9999,9999,1591105608
82,15,16,Jits_ISO_5,25,9999,9999,9999,1591605348
82,15,16,Jits_ISO_5,26,9999,9999,9999,1592106072
82,15,16,Jits_ISO_5,27,9999,9999,9999,1592605796
82,15,16,Jits_ISO_5,28,9999,9999,9999,1593105472
82,15,16,Jits_ISO_5,29,9999,9999,9999,1593605220
82,15,16,Jits_ISO_5,30,9999,9999,9999,1594105940
82,15,16,Jits_ISO_5,31,9999,9999,9999,1594605692
82,15,16,Jits_ISO_5,32,9999,9999,9999,1595105340
82,15,16,Jits_ISO_5,33,9999,9999,9999,1595606132
82,15,16,Jits_ISO_5,34,9999,9999,9999,1596116068
82,15,16,Jits_ISO_5,35,9999,9999,9999,1596615744
82,15,16,Jits_ISO_5,36,9999,9999,9999,1597115464
82,15,16,Jits_ISO_5,37,9999,9999,9999,1597615200
82,15,16,Jits_ISO_5,38,9999,9999,9999,1598115920
82,15,16,Jits_ISO_5,39,9999,9999,9999,1598615656
82,15,16,Jits_ISO_5,40,9999,9999,9999,1599115320
82,15,16,Jits_ISO_5,41,9999,9999,9999,1599616112
82,15,16,Jits_ISO_5,42,9999,9999,9999,1600126048
82,15,16,Jits_ISO_5,43,9999,9999,9999,1600625780
82,15,16,Jits_ISO_5,44,9999,9999,9999,1601125436
82,15,16,Jits_ISO_5,45,9999,9999,9999,1601625180
82,15,16,Jits_ISO_5,46,9999,9999,9999,1602125884
82,15,16,Jits_ISO_5,47,9999,9999,9999,1602625624
82,15,16,Jits_ISO_5,48,9999,9999,9999,1603125356
82,15,16,Jits_ISO_5,49,9999,9999,9999,1603626080
82,15,16,Jits_ISO_5,50,9999,9999,9999,1604125800
82,15,16,Jits_ISO_5,51,9999,9999,9999,1604625476
82,15,16,Jits_ISO_5,52,9999,9999,9999,1605125200
82,15,16,Jits_ISO_5,53,9999,9999,9999,1605625920
82,15,16,Jits_ISO_5,54,9999,9999,9999,1606125656
82,15,16,Jits_ISO_5,55,9999,9999,9999,1606625376
82,15,16,Jits_ISO_5,56,9999,9999,9999,1607126092
82,15,16,Jits_ISO_5,57,9999,9999,9999,1607636020
82,15,16,Jits_ISO_5,58,9999,9999,9999,1608135804
82,15,16,Jits_ISO_5,59,9999,9999,9999,1608635448
82,15,16,Jits_ISO_5,60,9999,9999,9999,1609135196
82,15,16,Jits_ISO_5,61,9999,9999,9999,1609635900
82,15,16,Jits_ISO_5,62,9999,9999,9999,1610135648
82,15,16,Jits_ISO_5,63,9999,9999,9999,1610635320
82,15,16,Jits_ISO_5,64,9999,9999,9999,1611136100
82,15,16,Jits_ISO_5,65,9999,9999,9999,1611646032
82,15,16,Jits_ISO_5,66,9999,9999,9999,1612145780
82,15,16,Jits_ISO_5,67,9999,9999,9999,1612645428
82,15,16,Jits_ISO_5,68,9999,9999,9999,1613145176
82,15,16,Jits_ISO_5,69,9999,9999,9999,1613645884
82,15,16,Jits_ISO_5,70,9999,9999,9999,1614145604
82,15,16,Jits_ISO_5,71,9999,9999,9999,1614645348
82,15,16,Jits_ISO_5,72,9999,9999,9999,1615146068
82,15,16,Jits_ISO_5,73,9999,9999,9999,1615645796
82,15,16,Jits_ISO_5,74,9999,9999,9999,1616145472
82,15,16,Jits_ISO_5,75,9999,9999,9999,1616645204
82,15,16,Jits_ISO_5,76,9999,9999,9999,1617145948
82,15,16,Jits_ISO_5,77,9999,9999,9999,1617645652
82,15,16,Jits_ISO_5,78,9999,9999,9999,1618145376
82,15,16,Jits_ISO_5,79,9999,9999,9999,1618646092
82,15,16,Jits_ISO_5,80,9999,9999,9999,1619156088
82,15,16,Jits_ISO_5,81,9999,9999,9999,1619655748
82,15,16,Jits_ISO_5,82,9999,9999,9999,1620155480
82,15,16,Jits_ISO_5,83,9999,9999,9999,1620655212
82,15,16,Jits_ISO_5,84,9999,9999,9999,1621155936
82,15,16,Jits_ISO_5,85,9999,9999,9999,1621655664
82,15,16,Jits_ISO_5,86,9999,9999,9999,1622155320
82,15,16,Jits_ISO_5,87,9999,9999,9999,1622656116
82,15,16,Jits_ISO_5,88,9999,9999,9999,1623166052
82,15,16,Jits_ISO_5,89,9999,9999,9999,1623665724
82,15,16,Jits_ISO_5,90,9999,9999,9999,1624165476
82,15,16,Jits_ISO_5,91,9999,9999,9999,1624665204
82,15,16,Jits_ISO_5,92,9999,9999,9999,1625165912
82,15,16,Jits_ISO_5,93,9999,9999,9999,1625665648
82,15,16,Jits_ISO_5,94,9999,9999,9999,1626165304
82,15,16,Jits_ISO_5,95,9999,9999,9999,1626666096
82,15,16,Jits_ISO_5,96,9999,9999,9999,1627165768
82,15,16,Jits_ISO_5,97,9999,9999,9999,1627665500
82,15,16,Jits_ISO_5,98,9999,9999,9999,1628165240
82,15,16,Jits_ISO_5,99,9999,9999,9999,1628665960
82,15,16,Jits_ISO_5,100,9999,9999,9999,1629165688
82,15,16,Jits_ISO_5,101,9999,9999,9999,1629665340
82,15,16,Jits_ISO_5,102,9999,9999,9999,1630166124
82,15,16,Jits_ISO_5,103,9999,9999,9999,1630676064
82,15,16,Jits_ISO_5,104,9999,9999,9999,1631175796
82,15,16,Jits_ISO_5,105,9999,9999,9999,1631675448
82,15,16,Jits_ISO_5,106,9999,9999,9999,1632175184
82,15,16,Jits_ISO_5,107,9999,9999,9999,1632675964
82,15,16,Jits_ISO_5,108,9999,9999,9999,1633175632
82,15,16,Jits_ISO_5,109,9999,9999,9999,1633675368
82,15,16,Jits_ISO_5,110,9999,9999,9999,1634176088
82,15,16,Jits_ISO_5,111,9999,9999,9999,1634686008
82,15,16,Jits_ISO_5,112,9999,9999,9999,1635185756
82,15,16,Jits_ISO_5,113,9999,9999,9999,1635685432
82,15,16,Jits_ISO_5,114,9999,9999,9999,1636185164
82,15,16,Jits_ISO_5,115,9999,9999,9999,1636685940
82,15,16,Jits_ISO_5,116,9999,9999,9999,1637185596
82,15,16,Jits_ISO_5,117,9999,9999,9999,1637685348
82,15,16,Jits_ISO_5,118,9999,9999,9999,1638186072
82,15,16,Jits_ISO_5,119,9999,9999,9999,1638685796
82,16,18,Jits_Linear_8,0,5,56,103,1648837108
82,16,18,Jits_Linear_8,1,5,63,98,1648840056
82,16,18,Jits_Linear_8,2,5,80,127,1648843180
82,16,18,Jits_Linear_8,3,1,48,34,1649105020
82,16,18,Jits_Linear_8,0,5,56,103,1649657112
82,16,18,Jits_Linear_8,1,5,63,98,1649660364
82,16,18,Jits_Linear_8,2,5,80,127,1649663480
82,16,18,Jits_Linear_8,0,5,80,127,1650416904
82,16,18,Jits_Linear_8,1,1,48,68,1650483548
82,16,18,Jits_Linear_8,2,5,63,98,1650507184
82,16,18,Jits_Linear_8,3,5,56,103,1650517456
82,16,18,Jits_Linear_8,0,5,56,103,1651256756
82,16,18,Jits_Linear_8,1,5,63,98,1651266880
82,16,18,Jits_Linear_8,2,1,48,66,1651331872
82,16,18,Jits_Linear_8,3,5,80,127,1651356932
82,16,18,Jits_Linear_8,0,5,63,98,1652047156
82,16,18,Jits_Linear_8,1,5,80,127,1652077056
82,16,18,Jits_Linear_8,2,1,48,75,1652079576
82,16,18,Jits_Linear_8,3,5,56,103,1652106576
82,16,18,Jits_Linear_8,0,1,48,81,1652815780
82,16,18,Jits_Linear_8,1,5,56,103,1652866680
82,16,18,Jits_Linear_8,2,5,80,127,1652966716
82,16,18,Jits_Linear_8,3,5,63,98,1653016916
82,16,18,Jits_Linear_8,0,5,56,103,1653677452
82,16,18,Jits_Linear_8,1,5,80,127,1653726536
82,16,18,Jits_Linear_8,2,5,63,98,1653766424
82,16,18,Jits_Linear_8,3,1,48,68,1653809020
82,16,18,Jits_Linear_8,0,5,80,127,1654517104
82,16,18,Jits_Linear_8,1,5,63,98,1654546780
82,16,18,Jits_Linear_8,2,1,48,66,1654588708
82,16,18,Jits_Linear_8,3,5,56,103,1654616528
82,16,18,Jits_Linear_8,0,1,48,70,1655350552
82,16,18,Jits_Linear_8,1,5,63,98,1655356652
82,16,18,Jits_Linear_8,2,5,56,103,1655386628
82,16,18,Jits_Linear_8,3,5,80,127,1655446940
82,16,18,Jits_Linear_8,0,5,56,103,1656116772
82,16,18,Jits_Linear_8,1,5,80,127,1656119688
82,16,18,Jits_Linear_8,2,1,48,76,1656165896
82,16,18,Jits_Linear_8,3,5,63,98,1656237388
82,16,18,Jits_Linear_8,0,1,48,81,1656962936
82,16,18,Jits_Linear_8,1,5,56,103,1656997360
82,16,18,Jits_Linear_8,2,5,80,127,1657037300
82,16,18,Jits_Linear_8,3,5,63,98,1657047276
82,16,18,Jits_Linear_8,0,5,56,103,1657757044
82,16,18,Jits_Linear_8,1,5,80,127,1657776456
82,16,18,Jits_Linear_8,2,1,48,88,1657808196
82,16,18,Jits_Linear_8,3,5,63,98,1657857388
82,16,18,Jits_Linear_8,0,5,80,127,1658546620
82,16,18,Jits_Linear_8,1,1,48,81,1658620040
82,16,18,Jits_Linear_8,2,5,56,103,1658646964
82,16,18,Jits_Linear_8,3,5,63,98,1658657236
82,16,18,Jits_Linear_8,0,5,63,98,1659316648
82,16,18,Jits_Linear_8,1,5,80,127,1659376992
82,16,18,Jits_Linear_8,2,1,48,58,1659386132
82,16,18,Jits_Linear_8,3,5,56,103,1659387776
82,16,18,Jits_Linear_8,0,1,48,72,1660108348
82,16,18,Jits_Linear_8,1,5,56,103,1660117440
82,16,18,Jits_Linear_8,2,5,63,98,1660186924
82,16,18,Jits_Linear_8,3,5,80,127,1660190284
82,16,18,Jits_Linear_8,0,1,48,54,1660938612
82,16,18,Jits_Linear_8,1,5,63,98,1660946804
82,16,18,Jits_Linear_8,2,5,56,103,1660997080
82,16,18,Jits_Linear_8,3,5,80,127,1661000220
82,16,18,Jits_Linear_8,0,5,56,103,1661697400
82,16,18,Jits_Linear_8,1,5,80,127,1661700392
82,16,18,Jits_Linear_8,2,1,48,52,1661731156
82,16,18,Jits_Linear_8,3,5,63,98,1661786552
82,16,18,Jits_Linear_8,0,1,48,65,1662510456
82,16,18,Jits_Linear_8,1,5,63,98,1662526820
82,16,18,Jits_Linear_8,2,5,56,103,1662617088
82,16,18,Jits_Linear_8,3,5,80,127,1662646692
82,16,18,Jits_Linear_8,0,5,56,103,1663307180
82,16,18,Jits_Linear_8,1,1,48,60,1663325060
82,16,18,Jits_Linear_8,2,5,63,98,1663406452
82,16,18,Jits_Linear_8,3,5,80,127,1663437232
82,16,18,Jits_Linear_8,0,5,63,98,1664117144
82,16,18,Jits_Linear_8,1,5,56,103,1664127268
82,16,18,Jits_Linear_8,2,1,48,60,1664153004
82,16,18,Jits_Linear_8,3,5,80,127,1664216496
82,16,18,Jits_Linear_8,0,1,48,51,1664913336
82,16,18,Jits_Linear_8,1,5,63,98,1664916972
82,16,18,Jits_Linear_8,2,5,56,103,1664996792
82,16,18,Jits_Linear_8,3,5,80,127,1664999860
82,16,18,Jits_Linear_8,0,5,80,127,1665657312
82,16,18,Jits_Linear_8,1,5,63,98,1665676652
82,16,18,Jits_Linear_8,2,5,56,103,1665737188
82,16,18,Jits_Linear_8,3,1,48,57,1665786856
82,16,18,Jits_Linear_8,0,1,48,59,1666462884
82,16,18,Jits_Linear_8,1,5,56,103,1666477304
82,16,18,Jits_Linear_8,2,5,63,98,1666497012
82,16,18,Jits_Linear_8,3,5,80,127,1666500224
82,16,18,Jits_Linear_8,0,5,63,98,1667197260
82,16,18,Jits_Linear_8,1,5,80,127,1667277280
82,16,18,Jits_Linear_8,2,5,56,103,1667287476
82,16,18,Jits_Linear_8,3,1,48,58,1667324696
82,16,18,Jits_Linear_8,0,5,63,98,1667997164
82,16,18,Jits_Linear_8,1,1,48,58,1668014140
82,16,18,Jits_Linear_8,2,5,56,103,1668016496
82,16,18,Jits_Linear_8,3,5,80,127,1668066940
82,16,18,Jits_Linear_8,0,5,80,127,1668777352
82,16,18,Jits_Linear_8,1,1,48,55,1668789984
82,16,18,Jits_Linear_8,2,5,63,98,1668817140
82,16,18,Jits_Linear_8,3,5,56,103,1668836724
82,16,18,Jits_Linear_8,0,1,48,61,1669552660
82,16,18,Jits_Linear_8,1,5,56,103,1669587308
82,16,18,Jits_Linear_8,2,5,63,98,1669596460
82,16,18,Jits_Linear_8,3,5,80,127,1669617016
82,16,18,Jits_Linear_8,0,5,56,103,1670286676
82,16,18,Jits_Linear_8,1,1,48,58,1670358724
82,16,18,Jits_Linear_8,2,5,63,98,1670376832
82,16,18,Jits_Linear_8,3,5,80,127,1670437368
82,16,18,Jits_Linear_8,0,5,80,127,1671086372
82,16,18,Jits_Linear_8,1,5,56,103,1671096644
82,16,18,Jits_Linear_8,2,1,48,42,1671103424
82,16,18,Jits_Linear_8,3,5,63,98,1671167316
82,16,18,Jits_Linear_8,0,1,48,43,1671878692
82,16,18,Jits_Linear_8,1,5,63,98,1671887108
82,16,18,Jits_Linear_8,2,5,80,127,1671977404
82,16,18,Jits_Linear_8,3,5,56,103,1671986480
82,16,18,Jits_Linear_8,0,5,63,98,1672586632
82,16,18,Jits_Linear_8,1,5,80,127,1672636984
82,16,18,Jits_Linear_8,2,5,56,103,1672697248
82,16,18,Jits_Linear_8,3,1,48,45,1672721264
82,16,18,Jits_Linear_8,0,5,56,103,1673377092
82,16,18,Jits_Linear_8,1,5,80,127,1673427296
82,16,18,Jits_Linear_8,2,5,63,98,1673446956
82,16,18,Jits_Linear_8,3,1,48,45,1673506268
82,16,18,Jits_Linear_8,0,5,56,103,1674107256
82,16,18,Jits_Linear_8,1,5,80,127,1674166680
82,16,18,Jits_Linear_8,2,1,48,85,1674209052
82,16,18,Jits_Linear_8,3,5,63,98,1674237200
82,16,18,Jits_Linear_8,0,5,56,103,1674867020
82,16,18,Jits_Linear_8,1,5,80,127,1674896844
82,16,18,Jits_Linear_8,2,5,63,98,1674926448
82,16,18,Jits_Linear_8,3,1,48,97,1674957064
82,16,18,Jits_Linear_8,0,1,48,86,1675635508
82,16,18,Jits_Linear_8,1,5,56,103,1675667000
82,16,18,Jits_Linear_8,2,5,80,127,1675687236
82,16,18,Jits_Linear_8,3,5,63,98,1675746664
82,16,18,Jits_Linear_8,0,1,48,64,1676451292
82,16,18,Jits_Linear_8,1,5,80,127,1676506468
82,16,18,Jits_Linear_8,2,5,56,103,1676516840
82,16,18,Jits_Linear_8,3,5,63,98,1676526960
82,16,18,Jits_Linear_8,0,5,56,103,1677217084
82,16,18,Jits_Linear_8,1,1,48,65,1677249268
82,16,18,Jits_Linear_8,2,5,80,127,1677257016
82,16,18,Jits_Linear_8,3,5,63,98,1677287012
82,16,18,Jits_Linear_8,0,5,56,103,1677936920
82,16,18,Jits_Linear_8,1,5,63,98,1677966816
82,16,18,Jits_Linear_8,2,5,80,127,1678006608
82,16,18,Jits_Linear_8,3,1,48,83,1678017072
82,16,18,Jits_Linear_8,0,5,80,127,1678637412
82,16,18,Jits_Linear_8,1,5,63,98,1678686792
82,16,18,Jits_Linear_8,2,5,56,103,1678707032
82,16,18,Jits_Linear_8,3,1,48,91,1678729552
82,16,18,Jits_Linear_8,0,5,56,103,1679416948
82,16,18,Jits_Linear_8,1,1,48,79,1679465928
82,16,18,Jits_Linear_8,2,5,80,127,1679487228
82,16,18,Jits_Linear_8,3,5,63,98,1679547016
82,16,18,Jits_Linear_8,0,5,80,127,1680157076
82,16,18,Jits_Linear_8,1,5,63,98,1680247064
82,16,18,Jits_Linear_8,2,1,48,87,1680252276
82,16,18,Jits_Linear_8,3,5,56,103,1680266548
82,16,18,Jits_Linear_8,0,5,63,98,1680916992
82,16,18,Jits_Linear_8,1,5,56,103,1680937304
82,16,18,Jits_Linear_8,2,5,80,127,1680977168
82,16,18,Jits_Linear_8,3,1,48,76,1681015952
82,16,18,Jits_Linear_8,0,5,80,127,1681617296
82,16,18,Jits_Linear_8,1,5,63,98,1681636736
82,16,18,Jits_Linear_8,2,5,56,103,1681716752
82,16,18,Jits_Linear_8,3,1,48,63,1681746840
82,16,18,Jits_Linear_8,0,5,63,98,1682347380
82,16,18,Jits_Linear_8,1,5,56,103,1682457020
82,16,18,Jits_Linear_8,2,5,80,127,1682460012
82,16,18,Jits_Linear_8,3,1,48,65,1682495128
82,16,18,Jits_Linear_8,0,5,63,98,1683107120
82,16,18,Jits_Linear_8,1,5,56,103,1683117388
82,16,18,Jits_Linear_8,2,5,80,127,1683120528
82,16,18,Jits_Linear_8,3,1,48,54,1683221664
82,16,18,Jits_Linear_8,0,5,56,103,1683826992
82,16,18,Jits_Linear_8,1,1,48,72,1683909752
82,16,18,Jits_Linear_8,2,5,80,127,1683946816
82,16,18,Jits_Linear_8,3,5,63,98,1683986980
82,16,18,Jits_Linear_8,0,5,56,103,1684576644
82,16,18,Jits_Linear_8,1,5,80,127,1684656368
82,16,18,Jits_Linear_8,2,5,63,98,1684677124
82,16,18,Jits_Linear_8,3,1,48,73,1684704452
82,16,18,Jits_Linear_8,0,5,56,103,1685306880
82,16,18,Jits_Linear_8,1,5,63,98,1685417548
82,16,18,Jits_Linear_8,2,5,80,127,1685420760
82,16,18,Jits_Linear_8,3,1,48,74,1685433472
82,16,18,Jits_Linear_8,0,5,56,103,1686066484
82,16,18,Jits_Linear_8,1,5,80,127,1686097284
82,16,18,Jits_Linear_8,2,5,63,98,1686116920
82,16,18,Jits_Linear_8,3,1,48,75,1686119816
82,16,18,Jits_Linear_8,0,5,63,98,1686777096
82,16,18,Jits_Linear_8,1,5,56,103,1686786396
82,16,18,Jits_Linear_8,2,5,80,127,1686796888
82,16,18,Jits_Linear_8,3,1,48,81,1686885940
82,16,18,Jits_Linear_8,0,5,80,127,1687486916
82,16,18,Jits_Linear_8,1,5,56,103,1687536920
82,16,18,Jits_Linear_8,2,1,48,62,1687555852
82,16,18,Jits_Linear_8,3,5,63,98,1687577004
82,16,18,Jits_Linear_8,0,5,80,127,1688227052
82,16,18,Jits_Linear_8,1,5,63,98,1688246908
82,16,18,Jits_Linear_8,2,1,48,65,1688293348
82,16,18,Jits_Linear_8,3,5,56,103,1688296908
82,16,18,Jits_Linear_8,0,5,80,127,1688957292
82,16,18,Jits_Linear_8,1,5,56,103,1688986892
82,16,18,Jits_Linear_8,2,1,48,76,1688993228
82,16,18,Jits_Linear_8,3,5,63,98,1689056864
82,16,18,Jits_Linear_8,0,5,56,103,1689727296
82,16,18,Jits_Linear_8,1,1,48,72,1689731240
82,16,18,Jits_Linear_8,2,5,80,127,1689736812
82,16,18,Jits_Linear_8,3,5,63,98,1689776604
82,16,18,Jits_Linear_8,0,5,56,103,1690357000
82,16,18,Jits_Linear_8,1,5,63,98,1690376860
82,16,18,Jits_Linear_8,2,5,80,127,1690447140
82,16,18,Jits_Linear_8,3,1,48,88,1690507868
82,16,18,Jits_Linear_8,0,5,63,98,1691096504
82,16,18,Jits_Linear_8,1,5,80,127,1691156844
82,16,18,Jits_Linear_8,2,5,56,103,1691177452
82,16,18,Jits_Linear_8,3,1,48,77,1691219228
82,16,18,Jits_Linear_8,0,5,80,127,1691796984
82,16,18,Jits_Linear_8,1,5,56,103,1691826660
82,16,18,Jits_Linear_8,2,5,63,98,1691857308
82,16,18,Jits_Linear_8,3,1,48,78,1691948700
82,16,18,Jits_Linear_8,0,5,56,103,1692506768
82,16,18,Jits_Linear_8,1,5,63,98,1692567012
82,16,18,Jits_Linear_8,2,1,48,62,1692594416
82,16,18,Jits_Linear_8,3,5,80,127,1692627320
82,16,18,Jits_Linear_8,0,5,80,127,1693236712
82,16,18,Jits_Linear_8,1,5,56,103,1693257024
82,16,18,Jits_Linear_8,2,1,48,78,1693292876
82,16,18,Jits_Linear_8,3,5,63,98,1693326700
82,16,18,Jits_Linear_8,0,5,80,127,1693947176
82,16,18,Jits_Linear_8,1,5,63,98,1693966816
82,16,18,Jits_Linear_8,2,5,56,103,1693997460
82,16,18,Jits_Linear_8,3,1,48,84,1694030692
82,16,18,Jits_Linear_8,0,5,80,127,1694637388
82,16,18,Jits_Linear_8,1,5,63,98,1694656948
82,16,18,Jits_Linear_8,2,1,48,78,1694695008
82,16,18,Jits_Linear_8,3,5,56,103,1694717280
82,16,18,Jits_Linear_8,0,5,80,127,1695336688
82,16,18,Jits_Linear_8,1,1,48,80,1695413068
82,16,18,Jits_Linear_8,2,5,56,103,1695437080
82,16,18,Jits_Linear_8,3,5,63,98,1695467004
82,16,18,Jits_Linear_8,0,5,63,98,1696027000
82,16,18,Jits_Linear_8,1,5,80,127,1696077056
82,16,18,Jits_Linear_8,2,5,56,103,1696096692
82,16,18,Jits_Linear_8,3,1,48,88,1696141756
82,16,18,Jits_Linear_8,0,5,80,127,1696767564
82,16,18,Jits_Linear_8,1,5,56,103,1696797016
82,16,18,Jits_Linear_8,2,5,63,98,1696800084
82,16,18,Jits_Linear_8,3,1,48,87,1696833312
82,16,18,Jits_Linear_8,0,5,63,98,1697496580
82,16,18,Jits_Linear_8,1,1,48,70,1697521972
82,16,18,Jits_Linear_8,2,5,56,103,1697537660
82,16,18,Jits_Linear_8,3,5,80,127,1697556776
82,16,18,Jits_Linear_8,0,5,80,127,1698136608
82,16,18,Jits_Linear_8,1,5,63,98,1698217528
82,16,18,Jits_Linear_8,2,1,48,77,1698239376
82,16,18,Jits_Linear_8,3,5,56,103,1698257460
82,16,18,Jits_Linear_8,0,5,63,98,1698857488
82,16,18,Jits_Linear_8,1,5,80,127,1698937216
82,16,18,Jits_Linear_8,2,1,48,80,1698955036
82,16,18,Jits_Linear_8,3,5,56,103,1698956620
82,16,18,Jits_Linear_8,0,5,56,103,1699586752
82,16,18,Jits_Linear_8,1,5,63,98,1699596576
82,16,18,Jits_Linear_8,2,5,80,127,1699636588
82,16,18,Jits_Linear_8,3,1,48,70,1699651316
82,16,18,Jits_Linear_8,0,5,56,103,1700196648
82,16,18,Jits_Linear_8,1,5,80,127,1700199640
82,16,18,Jits_Linear_8,2,1,48,60,1700327532
82,16,18,Jits_Linear_8,3,5,63,98,1700336992
82,16,18,Jits_Linear_8,0,5,56,103,1700876612
82,16,18,Jits_Linear_8,1,5,63,98,1700966748
82,16,18,Jits_Linear_8,2,5,80,127,1701037624
82,16,18,Jits_Linear_8,3,1,48,65,1701066592
82,16,18,Jits_Linear_8,0,5,63,98,1701636600
82,16,18,Jits_Linear_8,1,5,80,127,1701639740
82,16,18,Jits_Linear_8,2,5,56,103,1701696840
82,16,18,Jits_Linear_8,3,1,48,72,1701703700
82,16,18,Jits_Linear_8,0,5,80,127,1702357508
82,16,18,Jits_Linear_8,1,5,56,103,1702376724
82,16,18,Jits_Linear_8,2,5,63,98,1702386920
82,16,18,Jits_Linear_8,3,1,48,71,1702387888
82,16,18,Jits_Linear_8,0,5,56,103,1702947208
82,16,18,Jits_Linear_8,1,5,63,98,1702957332
82,16,18,Jits_Linear_8,2,5,80,127,1703027164
82,16,18,Jits_Linear_8,3,1,48,62,1703100996
82,16,18,Jits_Linear_8,0,5,80,127,1703627228
82,16,18,Jits_Linear_8,1,5,56,103,1703677456
82,16,18,Jits_Linear_8,2,5,63,98,1703726392
82,16,18,Jits_Linear_8,3,1,48,43,1703759924
82,16,18,Jits_Linear_8,0,5,56,103,1704386924
82,16,18,Jits_Linear_8,1,5,63,98,1704397268
82,16,18,Jits_Linear_8,2,1,48,62,1704399940
82,16,18,Jits_Linear_8,3,5,80,127,1704437224
82,16,18,Jits_Linear_8,0,5,56,103,1705006440
82,16,18,Jits_Linear_8,1,5,63,98,1705047572
82,16,18,Jits_Linear_8,2,5,80,127,1705096504
82,16,18,Jits_Linear_8,3,1,48,70,1705106596
82,16,18,Jits_Linear_8,0,5,80,127,1705637456
82,16,18,Jits_Linear_8,1,5,56,103,1705687364
82,16,18,Jits_Linear_8,2,5,63,98,1705706876
82,16,18,Jits_Linear_8,3,1,48,72,1705858400
82,16,18,Jits_Linear_8,0,5,80,127,1706317276
82,16,18,Jits_Linear_8,1,1,48,63,1706356140
82,16,18,Jits_Linear_8,2,5,63,98,1706376616
82,16,18,Jits_Linear_8,3,5,56,103,1706456544
82,16,18,Jits_Linear_8,0,5,80,127,1706967332
82,16,18,Jits_Linear_8,1,5,56,103,1707007220
82,16,18,Jits_Linear_8,2,5,63,98,1707026780
82,16,18,Jits_Linear_8,3,1,48,71,1707048108
82,16,18,Jits_Linear_8,0,1,48,65,1707667192
82,16,18,Jits_Linear_8,1,5,56,103,1707687372
82,16,18,Jits_Linear_8,2,5,80,127,1707696448
82,16,18,Jits_Linear_8,3,5,63,98,1707736464
82,16,18,Jits_Linear_8,0,1,48,69,1708382060
82,16,18,Jits_Linear_8,1,5,56,103,1708417460
82,16,18,Jits_Linear_8,2,5,63,98,1708457320
82,16,18,Jits_Linear_8,3,5,80,127,1708460684
82,16,18,Jits_Linear_8,0,5,63,98,1708967404
82,16,18,Jits_Linear_8,1,5,80,127,1709007344
82,16,18,Jits_Linear_8,2,5,56,103,1709076828
82,16,18,Jits_Linear_8,3,1,48,64,1709114244
82,16,18,Jits_Linear_8,0,5,63,98,1709616492
82,16,18,Jits_Linear_8,1,5,56,103,1709697488
82,16,18,Jits_Linear_8,2,5,80,127,1709756684
82,16,18,Jits_Linear_8,3,1,48,68,1709780328
82,16,18,Jits_Linear_8,0,5,80,127,1710287136
82,16,18,Jits_Linear_8,1,5,63,98,1710337292
82,16,18,Jits_Linear_8,2,5,56,103,1710367264
82,16,18,Jits_Linear_8,3,1,48,66,1710420200
82,16,18,Jits_Linear_8,0,5,56,103,1710936464
82,16,18,Jits_Linear_8,1,5,63,98,1710986520
82,16,18,Jits_Linear_8,2,5,80,127,1710996716
82,16,18,Jits_Linear_8,3,1,48,67,1711046960
82,16,18,Jits_Linear_8,0,5,56,103,1711607436
82,16,18,Jits_Linear_8,1,1,48,67,1711664040
82,16,18,Jits_Linear_8,2,5,63,98,1711716676
82,16,18,Jits_Linear_8,3,5,80,127,1711737360
82,16,18,Jits_Linear_8,0,5,63,98,1712257348
82,16,18,Jits_Linear_8,1,5,80,127,1712306504
82,16,18,Jits_Linear_8,2,1,48,69,1712343404
82,16,18,Jits_Linear_8,3,5,56,103,1712396580
82,16,18,Jits_Linear_8,0,5,63,98,1712897448
82,16,18,Jits_Linear_8,1,5,80,127,1712927344
82,16,18,Jits_Linear_8,2,5,56,103,1713017180
82,16,18,Jits_Linear_8,3,1,48,74,1713051456
82,16,18,Jits_Linear_8,0,5,63,98,1713546512
82,16,18,Jits_Linear_8,1,5,56,103,1713557080
82,16,18,Jits_Linear_8,2,5,80,127,1713657200
82,16,18,Jits_Linear_8,3,1,48,62,1713684600
82,16,18,Jits_Linear_8,0,5,63,98,1714297192
82,16,18,Jits_Linear_8,1,1,48,82,1714298160
82,16,18,Jits_Linear_8,2,5,80,127,1714327012
82,16,18,Jits_Linear_8,3,5,56,103,1714356540
82,16,18,Jits_Linear_8,0,5,80,127,1714956560
82,16,18,Jits_Linear_8,1,1,48,85,1714962744
82,16,18,Jits_Linear_8,2,5,63,98,1714967048
82,16,18,Jits_Linear_8,3,5,56,103,1714996500
82,16,18,Jits_Linear_8,0,5,80,127,1715497308
82,16,18,Jits_Linear_8,1,5,63,98,1715516868
82,16,18,Jits_Linear_8,2,5,56,103,1715567220
82,16,18,Jits_Linear_8,3,1,48,82,1715669304
82,16,18,Jits_Linear_8,0,5,63,98,1716167064
82,16,18,Jits_Linear_8,1,5,80,127,1716226432
82,16,18,Jits_Linear_8,2,5,56,103,1716247116
82,16,18,Jits_Linear_8,3,1,48,81,1716274440
82,16,18,Jits_Linear_8,0,5,63,98,1716767156
82,16,18,Jits_Linear_8,1,5,56,103,1716817360
82,16,18,Jits_Linear_8,2,5,80,127,1716826360
82,16,18,Jits_Linear_8,3,1,48,87,1716867536
82,16,18,Jits_Linear_8,0,5,56,103,1717436748
82,16,18,Jits_Linear_8,1,5,80,127,1717447316
82,16,18,Jits_Linear_8,2,1,48,88,1717451336
82,16,18,Jits_Linear_8,3,5,63,98,1717547568
82,16,18,Jits_Linear_8,0,5,80,127,1718037008
82,16,18,Jits_Linear_8,1,5,63,98,1718047204
82,16,18,Jits_Linear_8,2,1,48,90,1718131832
82,16,18,Jits_Linear_8,3,5,56,103,1718196592
82,16,18,Jits_Linear_8,0,5,63,98,1718676796
82,16,18,Jits_Linear_8,1,5,80,127,1718716664
82,16,18,Jits_Linear_8,2,1,48,91,1718787164
82,16,18,Jits_Linear_8,3,5,56,103,1718796628
82,16,18,Jits_Linear_8,0,5,56,103,1719297272
82,16,18,Jits_Linear_8,1,5,80,127,1719396624
82,16,18,Jits_Linear_8,2,5,63,98,1719417232
82,16,18,Jits_Linear_8,3,1,48,104,1719427844
82,16,18,Jits_Linear_8,0,5,80,127,1719986524
82,16,18,Jits_Linear_8,1,5,56,103,1719997020
82,16,18,Jits_Linear_8,2,5,63,98,1720087028
82,16,18,Jits_Linear_8,3,1,48,104,1720093360
82,16,18,Jits_Linear_8,0,5,56,103,1720617216
82,16,18,Jits_Linear_8,1,5,63,98,1720636780
82,16,18,Jits_Linear_8,2,1,48,95,1720710016
82,16,18,Jits_Linear_8,3,5,80,127,1720716568
82,16,18,Jits_Linear_8,0,5,63,98,1721186732
82,16,18,Jits_Linear_8,1,5,56,103,1721276720
82,16,18,Jits_Linear_8,2,5,80,127,1721279932
82,16,18,Jits_Linear_8,3,1,48,93,1721335600
82,16,18,Jits_Linear_8,0,5,56,103,1721837080
82,16,18,Jits_Linear_8,1,5,80,127,1721897324
82,16,18,Jits_Linear_8,2,5,63,98,1721906400
82,16,18,Jits_Linear_8,3,1,48,95,1721915140
82,16,18,Jits_Linear_8,0,5,80,127,1722506772
82,16,18,Jits_Linear_8,1,5,56,103,1722517120
82,16,18,Jits_Linear_8,2,5,63,98,1722520104
82,16,18,Jits_Linear_8,3,1,48,92,1722521072
82,16,18,Jits_Linear_8,0,5,56,103,1723087288
82,16,18,Jits_Linear_8,1,5,80,127,1723096292
82,16,18,Jits_Linear_8,2,5,63,98,1723117072
82,16,18,Jits_Linear_8,3,1,48,83,1723146116
82,16,18,Jits_Linear_8,0,5,63,98,1723676980
82,16,18,Jits_Linear_8,1,1,48,78,1723724516
82,16,18,Jits_Linear_8,2,5,80,127,1723736320
82,16,18,Jits_Linear_8,3,5,56,103,1723786668
82,16,18,Jits_Linear_8,0,1,48,69,1724332376
82,16,18,Jits_Linear_8,1,5,63,98,1724376540
82,16,18,Jits_Linear_8,2,5,56,103,1724386540
82,16,18,Jits_Linear_8,3,5,80,127,1724436948
82,16,18,Jits_Linear_8,0,5,63,98,1724887388
82,16,18,Jits_Linear_8,1,5,80,127,1724907048
82,16,18,Jits_Linear_8,2,5,56,103,1724917096
82,16,18,Jits_Linear_8,3,1,48,76,1724958424
82,16,18,Jits_Linear_8,0,5,63,98,1725496912
82,16,18,Jits_Linear_8,1,5,80,127,1725500124
82,16,18,Jits_Linear_8,2,1,48,60,1725507524
82,16,18,Jits_Linear_8,3,5,56,103,1725536620
82,16,18,Jits_Linear_8,0,1,48,96,1726080444
82,16,18,Jits_Linear_8,1,5,63,98,1726176588
82,16,18,Jits_Linear_8,2,5,80,127,1726207384
82,16,18,Jits_Linear_8,3,5,56,103,1726216532
82,16,18,Jits_Linear_8,0,1,48,93,1726737260
82,16,18,Jits_Linear_8,1,5,56,103,1726738680
82,16,18,Jits_Linear_8,2,5,80,127,1726766560
82,16,18,Jits_Linear_8,3,5,63,98,1726797208
82,16,18,Jits_Linear_8,0,1,48,93,1727326216
82,16,18,Jits_Linear_8,1,5,63,98,1727437108
82,16,18,Jits_Linear_8,2,5,56,103,1727477072
82,16,18,Jits_Linear_8,3,5,80,127,1727480212
82,16,18,Jits_Linear_8,0,5,80,127,1727936876
82,16,18,Jits_Linear_8,1,1,48,102,1727956336
82,16,18,Jits_Linear_8,2,5,56,103,1728016992
82,16,18,Jits_Linear_8,3,5,63,98,1728066880
82,16,18,Jits_Linear_8,0,5,80,127,1728516544
82,16,18,Jits_Linear_8,1,5,56,103,1728536928
82,16,18,Jits_Linear_8,2,1,48,102,1728612936
82,16,18,Jits_Linear_8,3,5,63,98,1728627056
82,16,18,Jits_Linear_8,0,5,80,127,1729156340
82,16,18,Jits_Linear_8,1,5,63,98,1729197328
82,16,18,Jits_Linear_8,2,1,48,88,1729206144
82,16,18,Jits_Linear_8,3,5,56,103,1729237260
82,16,18,Jits_Linear_8,0,5,63,98,1729726748
82,16,18,Jits_Linear_8,1,5,80,127,1729787312
82,16,18,Jits_Linear_8,2,1,48,89,1729798304
82,16,18,Jits_Linear_8,3,5,56,103,1729816836
82,16,18,Jits_Linear_8,0,5,56,103,1730327064
82,16,18,Jits_Linear_8,1,5,80,127,1730356816
82,16,18,Jits_Linear_8,2,1,48,87,1730378968
82,16,18,Jits_Linear_8,3,5,63,98,1730446644
82,16,18,Jits_Linear_8,0,5,56,103,1730926848
82,16,18,Jits_Linear_8,1,1,48,88,1730971844
82,16,18,Jits_Linear_8,2,5,80,127,1731036460
82,16,18,Jits_Linear_8,3,5,63,98,1731067192
82,16,18,Jits_Linear_8,0,5,56,103,1731566896
82,16,18,Jits_Linear_8,1,1,48,73,1731619608
82,16,18,Jits_Linear_8,2,5,63,98,1731627280
82,16,18,Jits_Linear_8,3,5,80,127,1731657180
82,16,18,Jits_Linear_8,0,5,56,103,1732127052
82,16,18,Jits_Linear_8,1,5,63,98,1732196812
82,16,18,Jits_Linear_8,2,5,80,127,1732217196
82,16,18,Jits_Linear_8,3,1,48,78,1732237920
82,16,18,Jits_Linear_8,0,5,80,127,1732687204
82,16,18,Jits_Linear_8,1,5,63,98,1732706840
82,16,18,Jits_Linear_8,2,5,56,103,1732756744
82,16,18,Jits_Linear_8,3,1,48,82,1732810052
82,16,18,Jits_Linear_8,0,5,63,98,1733287280
82,16,18,Jits_Linear_8,1,5,80,127,1733296432
82,16,18,Jits_Linear_8,2,5,56,103,1733346880
82,16,18,Jits_Linear_8,3,1,48,86,1733359512
82,16,18,Jits_Linear_8,0,5,63,98,1733866844
82,16,18,Jits_Linear_8,1,1,48,82,1733926160
82,16,18,Jits_Linear_8,2,5,80,127,1733936448
82,16,18,Jits_Linear_8,3,5,56,103,1733956980
82,16,18,Jits_Linear_8,0,5,63,98,1734477176
82,16,18,Jits_Linear_8,1,5,80,127,1734480392
82,16,18,Jits_Linear_8,2,1,48,76,1734531684
82,16,18,Jits_Linear_8,3,5,56,103,1734546848
82,16,18,Jits_Linear_8,0,5,80,127,1735006588
82,16,18,Jits_Linear_8,1,5,56,103,1735027120
82,16,18,Jits_Linear_8,2,5,63,98,1735037464
82,16,18,Jits_Linear_8,3,1,48,82,1735111524
82,16,18,Jits_Linear_8,0,5,56,103,1735606740
82,16,18,Jits_Linear_8,1,1,48,81,1735652736
82,16,18,Jits_Linear_8,2,5,63,98,1735696820
82,16,18,Jits_Linear_8,3,5,80,127,1735700036
82,16,18,Jits_Linear_8,0,5,80,127,1736156772
82,16,18,Jits_Linear_8,1,5,56,103,1736166968
82,16,18,Jits_Linear_8,2,5,63,98,1736187204
82,16,18,Jits_Linear_8,3,1,48,72,1736240960
82,16,18,Jits_Linear_8,0,5,63,98,1736726880
82,16,18,Jits_Linear_8,1,1,48,76,1736769108
82,16,18,Jits_Linear_8,2,5,80,127,1736787416
82,16,18,Jits_Linear_8,3,5,56,103,1736796640
82,16,18,Jits_Linear_8,0,1,48,78,1737317776
82,16,18,Jits_Linear_8,1,5,63,98,1737366876
82,16,18,Jits_Linear_8,2,5,80,127,1737396776
82,16,18,Jits_Linear_8,3,5,56,103,1737436624
82,16,18,Jits_Linear_8,0,5,56,103,1737927072
82,16,18,Jits_Linear_8,1,5,80,127,1737937192
82,16,18,Jits_Linear_8,2,1,48,75,1737944516
82,16,18,Jits_Linear_8,3,5,63,98,1737977296
82,16,18,Jits_Linear_8,0,5,80,127,1738456432
82,16,18,Jits_Linear_8,1,1,48,72,1738508872
82,16,18,Jits_Linear_8,2,5,56,103,1738537368
82,16,18,Jits_Linear_8,3,5,63,98,1738546668
82,16,18,Jits_Linear_8,0,5,80,127,1739076920
82,16,18,Jits_Linear_8,1,1,48,75,1739116380
82,16,18,Jits_Linear_8,2,5,56,103,1739156788
82,16,18,Jits_Linear_8,3,5,63,98,1739167132
82,16,18,Jits_Linear_8,0,5,80,127,1739597220
82,16,18,Jits_Linear_8,1,5,56,103,1739647496
82,16,18,Jits_Linear_8,2,1,48,71,1739694456
82,16,18,Jits_Linear_8,3,5,63,98,1739696796
82,16,18,Jits_Linear_8,0,5,56,103,1740216788
82,16,18,Jits_Linear_8,1,5,63,98,1740219780
82,16,18,Jits_Linear_8,2,1,48,76,1740223416
82,16,18,Jits_Linear_8,3,5,80,127,1740266856
82,16,18,Jits_Linear_8,0,1,48,75,1740746708
82,16,18,Jits_Linear_8,1,5,56,103,1740797332
82,16,18,Jits_Linear_8,2,5,63,98,1740827084
82,16,18,Jits_Linear_8,3,5,80,127,1740838312
82,16,18,Jits_Linear_8,0,5,63,98,1741267176
82,16,18,Jits_Linear_8,1,1,48,78,1741285236
82,16,18,Jits_Linear_8,2,5,56,103,1741336808
82,16,18,Jits_Linear_8,3,5,80,127,1741387144
82,16,18,Jits_Linear_8,0,1,48,76,1741853076
82,16,18,Jits_Linear_8,1,5,63,98,1741857084
82,16,18,Jits_Linear_8,2,5,56,103,1741867576
82,16,18,Jits_Linear_8,3,5,80,127,1741870640
82,16,18,Jits_Linear_8,0,5,80,127,1742356752
82,16,18,Jits_Linear_8,1,1,48,76,1742378304
82,16,18,Jits_Linear_8,2,5,56,103,1742417216
82,16,18,Jits_Linear_8,3,5,63,98,1742507628
82,16,18,Jits_Linear_8,0,5,80,127,1742906788
82,16,18,Jits_Linear_8,1,1,48,72,1742960552
82,16,18,Jits_Linear_8,2,5,56,103,1743007184
82,16,18,Jits_Linear_8,3,5,63,98,1743047124
82,16,18,Jits_Linear_8,0,5,56,103,1743506804
82,16,18,Jits_Linear_8,1,5,63,98,1743527188
82,16,18,Jits_Linear_8,2,5,80,127,1743567128
82,16,18,Jits_Linear_8,3,1,48,77,1743571292
82,16,18,Jits_Linear_8,0,5,63,98,1744026948
82,16,18,Jits_Linear_8,1,5,56,103,1744046656
82,16,18,Jits_Linear_8,2,5,80,127,1744146780
82,16,18,Jits_Linear_8,3,1,48,19,1744191992
82,16,18,Jits_Linear_8,4,1,48,32,1744196476
82,16,18,Jits_Linear_8,0,5,63,98,1744557608
82,16,18,Jits_Linear_8,1,1,48,74,1744627512
82,16,18,Jits_Linear_8,2,5,80,127,1744666872
82,16,18,Jits_Linear_8,3,5,56,103,1744696620
82,16,18,Jits_Linear_8,0,5,56,103,1745116776
82,16,18,Jits_Linear_8,1,5,63,98,1745147128
82,16,18,Jits_Linear_8,2,5,80,127,1745197700
82,16,18,Jits_Linear_8,3,1,48,94,1745199712
82,16,18,Jits_Linear_8,0,5,63,98,1745626480
82,16,18,Jits_Linear_8,1,5,56,103,1745657080
82,16,18,Jits_Linear_8,2,5,80,127,1745707356
82,16,18,Jits_Linear_8,3,1,48,89,1745723576
82,16,18,Jits_Linear_8,0,5,56,103,1746196752
82,16,18,Jits_Linear_8,1,5,63,98,1746217432
82,16,18,Jits_Linear_8,2,1,48,84,1746238012
82,16,18,Jits_Linear_8,3,5,80,127,1746297072
82,16,18,Jits_Linear_8,0,5,63,98,1746706852
82,16,18,Jits_Linear_8,1,5,56,103,1746767244
82,16,18,Jits_Linear_8,2,1,48,94,1746768284
82,16,18,Jits_Linear_8,3,5,80,127,1746796988
82,16,18,Jits_Linear_8,0,1,48,75,1747270396
82,16,18,Jits_Linear_8,1,5,56,103,1747287508
82,16,18,Jits_Linear_8,2,5,80,127,1747346780
82,16,18,Jits_Linear_8,3,5,63,98,1747386704
82,16,18,Jits_Linear_8,0,5,63,98,1747797384
82,16,18,Jits_Linear_8,1,1,48,80,1747829424
82,16,18,Jits_Linear_8,2,5,56,103,1747856724
82,16,18,Jits_Linear_8,3,5,80,127,1747927584
82,16,18,Jits_Linear_8,0,1,48,80,1748376904
82,16,18,Jits_Linear_8,1,5,56,103,1748406524
82,16,18,Jits_Linear_8,2,5,63,98,1748417016
82,16,18,Jits_Linear_8,3,5,80,127,1748420304
82,16,18,Jits_Linear_8,0,5,63,98,1748876604
82,16,18,Jits_Linear_8,1,5,56,103,1748937144
82,16,18,Jits_Linear_8,2,5,80,127,1748940136
82,16,18,Jits_Linear_8,3,1,48,81,1748941100
82,16,18,Jits_Linear_8,0,5,63,98,1749386464
82,16,18,Jits_Linear_8,1,5,80,127,1749417408
82,16,18,Jits_Linear_8,2,1,48,76,1749435000
82,16,18,Jits_Linear_8,3,5,56,103,1749436664
82,16,18,Jits_Linear_8,0,5,56,103,1749917300
82,16,18,Jits_Linear_8,1,1,48,54,1749938480
82,16,18,Jits_Linear_8,2,5,63,98,1749967496
82,16,18,Jits_Linear_8,3,5,80,127,1750047228
82,16,18,Jits_Linear_8,0,5,80,127,1750416696
82,16,18,Jits_Linear_8,1,1,48,81,1750447468
82,16,18,Jits_Linear_8,2,5,63,98,1750456632
82,16,18,Jits_Linear_8,3,5,56,103,1750477388
82,16,18,Jits_Linear_8,0,1,48,75,1750979052
82,16,18,Jits_Linear_8,1,5,56,103,1751006528
82,16,18,Jits_Linear_8,2,5,80,127,1751016800
82,16,18,Jits_Linear_8,3,5,63,98,1751037408
82,16,18,Jits_Linear_8,0,1,48,81,1751506032
82,16,18,Jits_Linear_8,1,5,56,103,1751507604
82,16,18,Jits_Linear_8,2,5,63,98,1751556560
82,16,18,Jits_Linear_8,3,5,80,127,1751587504
82,16,18,Jits_Linear_8,0,5,56,103,1751977472
82,16,18,Jits_Linear_8,1,5,63,98,1751986620
82,16,18,Jits_Linear_8,2,5,80,127,1752036844
82,16,18,Jits_Linear_8,3,1,48,55,1752039964
82,16,18,Jits_Linear_8,0,5,56,103,1752487268
82,16,18,Jits_Linear_8,1,5,80,127,1752490408
82,16,18,Jits_Linear_8,2,1,48,73,1752526060
82,16,18,Jits_Linear_8,3,5,63,98,1752647152
82,16,18,Jits_Linear_8,0,5,63,98,1753016624
82,16,18,Jits_Linear_8,1,1,48,77,1753031948
82,16,18,Jits_Linear_8,2,5,56,103,1753087592
82,16,18,Jits_Linear_8,3,5,80,127,1753127368
82,16,18,Jits_Linear_8,0,5,63,98,1753566600
82,16,18,Jits_Linear_8,1,1,48,80,1753586284
82,16,18,Jits_Linear_8,2,5,56,103,1753656656
82,16,18,Jits_Linear_8,3,5,80,127,1753659720
82,16,18,Jits_Linear_8,0,5,56,103,1754057108
82,16,18,Jits_Linear_8,1,1,48,84,1754085132
82,16,18,Jits_Linear_8,2,5,63,98,1754147340
82,16,18,Jits_Linear_8,3,5,80,127,1754157536
82,16,18,Jits_Linear_8,0,5,56,103,1754537476
82,16,18,Jits_Linear_8,1,5,63,98,1754586408
82,16,18,Jits_Linear_8,2,1,48,74,1754590448
82,16,18,Jits_Linear_8,3,5,80,127,1754617296
82,16,18,Jits_Linear_8,0,1,48,74,1755075568
82,16,18,Jits_Linear_8,1,5,63,98,1755116980
82,16,18,Jits_Linear_8,2,5,80,127,1755127324
82,16,18,Jits_Linear_8,3,5,56,103,1755186504
82,16,18,Jits_Linear_8,0,5,63,98,1755536624
82,16,18,Jits_Linear_8,1,5,80,127,1755597312
82,16,18,Jits_Linear_8,2,1,48,68,1755631096
82,16,18,Jits_Linear_8,3,5,56,103,1755637268
82,16,18,Jits_Linear_8,0,1,48,73,1756132636
82,16,18,Jits_Linear_8,1,5,56,103,1756136864
82,16,18,Jits_Linear_8,2,5,80,127,1756157544
82,16,18,Jits_Linear_8,3,5,63,98,1756176736
82,16,18,Jits_Linear_8,0,5,63,98,1756556592
82,16,18,Jits_Linear_8,1,5,56,103,1756577424
82,16,18,Jits_Linear_8,2,5,80,127,1756617212
82,16,18,Jits_Linear_8,3,1,48,65,1756643500
82,16,18,Jits_Linear_8,0,5,63,98,1757066680
82,16,18,Jits_Linear_8,1,5,80,127,1757097480
82,16,18,Jits_Linear_8,2,1,48,73,1757102840
82,16,18,Jits_Linear_8,3,5,56,103,1757116736
82,16,18,Jits_Linear_8,0,5,80,127,1757536616
82,16,18,Jits_Linear_8,1,1,48,84,1757584000
82,16,18,Jits_Linear_8,2,5,56,103,1757586664
82,16,18,Jits_Linear_8,3,5,63,98,1757647572
82,16,18,Jits_Linear_8,0,5,63,98,1758027388
82,16,18,Jits_Linear_8,1,1,48,86,1758133216
82,16,18,Jits_Linear_8,2,5,56,103,1758146888
82,16,18,Jits_Linear_8,3,5,80,127,1758176588
82,16,18,Jits_Linear_8,0,5,80,127,1758556592
82,16,18,Jits_Linear_8,1,5,63,98,1758577200
82,16,18,Jits_Linear_8,2,1,48,87,1758591552
82,16,18,Jits_Linear_8,3,5,56,103,1758646576
82,16,18,Jits_Linear_8,0,5,63,98,1759066628
82,16,18,Jits_Linear_8,1,5,56,103,1759076676
82,16,18,Jits_Linear_8,2,1,48,78,1759120768
82,16,18,Jits_Linear_8,3,5,80,127,1759156536
82,16,18,Jits_Linear_8,0,5,56,103,1759617408
82,16,18,Jits_Linear_8,1,1,48,87,1759633780
82,16,18,Jits_Linear_8,2,5,80,127,1759647520
82,16,18,Jits_Linear_8,3,5,63,98,1759657420
82,16,18,Jits_Linear_8,0,9999,9999,9999,1649244272
82,16,18,Jits_Linear_8,1,9999,9999,9999,1650064496
82,16,18,Jits_Linear_8,2,9999,9999,9999,1650884732
82,16,18,Jits_Linear_8,3,9999,9999,9999,1651704900
82,16,18,Jits_Linear_8,4,9999,9999,9999,1652524148
82,16,18,Jits_Linear_8,5,9999,9999,9999,1653334092
82,16,18,Jits_Linear_8,6,9999,9999,9999,1654144108
82,16,18,Jits_Linear_8,7,9999,9999,9999,1654955116
82,16,18,Jits_Linear_8,8,9999,9999,9999,1655774288
82,16,18,Jits_Linear_8,9,9999,9999,9999,1656584312
82,16,18,Jits_Linear_8,10,9999,9999,9999,1657385060
82,16,18,Jits_Linear_8,11,9999,9999,9999,1658184812
82,16,18,Jits_Linear_8,12,9999,9999,9999,1658984508
82,16,18,Jits_Linear_8,13,9999,9999,9999,1659784276
82,16,18,Jits_Linear_8,14,9999,9999,9999,1660585064
82,16,18,Jits_Linear_8,15,9999,9999,9999,1661374544
82,16,18,Jits_Linear_8,16,9999,9999,9999,1662165064
82,16,18,Jits_Linear_8,17,9999,9999,9999,1662954600
82,16,18,Jits_Linear_8,18,9999,9999,9999,1663744096
82,16,18,Jits_Linear_8,19,9999,9999,9999,1664534656
82,16,18,Jits_Linear_8,20,9999,9999,9999,1665314924
82,16,18,Jits_Linear_8,21,9999,9999,9999,1666094148
82,16,18,Jits_Linear_8,22,9999,9999,9999,1666874428
82,16,18,Jits_Linear_8,23,9999,9999,9999,1667654772
82,16,18,Jits_Linear_8,24,9999,9999,9999,1668435040
82,16,18,Jits_Linear_8,25,9999,9999,9999,1669205048
82,16,18,Jits_Linear_8,26,9999,9999,9999,1669974108
82,16,18,Jits_Linear_8,27,9999,9999,9999,1670744192
82,16,18,Jits_Linear_8,28,9999,9999,9999,1671514216
82,16,18,Jits_Linear_8,29,9999,9999,9999,1672284248
82,16,18,Jits_Linear_8,30,9999,9999,9999,1673045116
82,16,18,Jits_Linear_8,31,9999,9999,9999,1673804860
82,16,18,Jits_Linear_8,32,9999,9999,9999,1674564696
82,16,18,Jits_Linear_8,33,9999,9999,9999,1675324528
82,16,18,Jits_Linear_8,34,9999,9999,9999,1676084288
82,16,18,Jits_Linear_8,35,9999,9999,9999,1676834904
82,16,18,Jits_Linear_8,36,9999,9999,9999,1677584472
82,16,18,Jits_Linear_8,37,9999,9999,9999,1678335096
82,16,18,Jits_Linear_8,38,9999,9999,9999,1679084664
82,16,18,Jits_Linear_8,39,9999,9999,9999,1679834212
82,16,18,Jits_Linear_8,40,9999,9999,9999,1680574564
82,16,18,Jits_Linear_8,41,9999,9999,9999,1681314916
82,16,18,Jits_Linear_8,42,9999,9999,9999,1682054208
82,16,18,Jits_Linear_8,43,9999,9999,9999,1682794624
82,16,18,Jits_Linear_8,44,9999,9999,9999,1683534948
82,16,18,Jits_Linear_8,45,9999,9999,9999,1684265032
82,16,18,Jits_Linear_8,46,9999,9999,9999,1684994152
82,16,18,Jits_Linear_8,47,9999,9999,9999,1685724288
82,16,18,Jits_Linear_8,48,9999,9999,9999,1686454376
82,16,18,Jits_Linear_8,49,9999,9999,9999,1687184460
82,16,18,Jits_Linear_8,50,9999,9999,9999,1687904352
82,16,18,Jits_Linear_8,51,9999,9999,9999,1688624180
82,16,18,Jits_Linear_8,52,9999,9999,9999,1689344060
82,16,18,Jits_Linear_8,53,9999,9999,9999,1690064992
82,16,18,Jits_Linear_8,54,9999,9999,9999,1690784888
82,16,18,Jits_Linear_8,55,9999,9999,9999,1691494456
82,16,18,Jits_Linear_8,56,9999,9999,9999,1692204152
82,16,18,Jits_Linear_8,57,9999,9999,9999,1692914764
82,16,18,Jits_Linear_8,58,9999,9999,9999,1693624380
82,16,18,Jits_Linear_8,59,9999,9999,9999,1694335064
82,16,18,Jits_Linear_8,60,9999,9999,9999,1695034444
82,16,18,Jits_Linear_8,61,9999,9999,9999,1695734872
82,16,18,Jits_Linear_8,62,9999,9999,9999,1696434296
82,16,18,Jits_Linear_8,63,9999,9999,9999,1697134696
82,16,18,Jits_Linear_8,64,9999,9999,9999,1697835128
82,16,18,Jits_Linear_8,65,9999,9999,9999,1698534492
82,16,18,Jits_Linear_8,66,9999,9999,9999,1699224632
82,16,18,Jits_Linear_8,67,9999,9999,9999,1699914860
82,16,18,Jits_Linear_8,68,9999,9999,9999,1700605008
82,16,18,Jits_Linear_8,69,9999,9999,9999,1701294172
82,16,18,Jits_Linear_8,70,9999,9999,9999,1701974140
82,16,18,Jits_Linear_8,71,9999,9999,9999,1702655076
82,16,18,Jits_Linear_8,72,9999,9999,9999,1703335024
82,16,18,Jits_Linear_8,73,9999,9999,9999,1704014924
82,16,18,Jits_Linear_8,74,9999,9999,9999,1704694904
82,16,18,Jits_Linear_8,75,9999,9999,9999,1705364588
82,16,18,Jits_Linear_8,76,9999,9999,9999,1706034288
82,16,18,Jits_Linear_8,77,9999,9999,9999,1706705020
82,16,18,Jits_Linear_8,78,9999,9999,9999,1707374648
82,16,18,Jits_Linear_8,79,9999,9999,9999,1708044356
82,16,18,Jits_Linear_8,80,9999,9999,9999,1708704888
82,16,18,Jits_Linear_8,81,9999,9999,9999,1709364316
82,16,18,Jits_Linear_8,82,9999,9999,9999,1710024768
82,16,18,Jits_Linear_8,83,9999,9999,9999,1710684268
82,16,18,Jits_Linear_8,84,9999,9999,9999,1711344752
82,16,18,Jits_Linear_8,85,9999,9999,9999,1711994964
82,16,18,Jits_Linear_8,86,9999,9999,9999,1712644220
82,16,18,Jits_Linear_8,87,9999,9999,9999,1713294404
82,16,18,Jits_Linear_8,88,9999,9999,9999,1713944688
82,16,18,Jits_Linear_8,89,9999,9999,9999,1714594884
82,16,18,Jits_Linear_8,90,9999,9999,9999,1715234920
82,16,18,Jits_Linear_8,91,9999,9999,9999,1715874936
82,16,18,Jits_Linear_8,92,9999,9999,9999,1716514900
82,16,18,Jits_Linear_8,93,9999,9999,9999,1717154896
82,16,18,Jits_Linear_8,94,9999,9999,9999,1717794924
82,16,18,Jits_Linear_8,95,9999,9999,9999,1718424680
82,16,18,Jits_Linear_8,96,9999,9999,9999,1719054456
82,16,18,Jits_Linear_8,97,9999,9999,9999,1719684192
82,16,18,Jits_Linear_8,98,9999,9999,9999,1720314956
82,16,18,Jits_Linear_8,99,9999,9999,9999,1720944728
82,16,18,Jits_Linear_8,100,9999,9999,9999,1721564280
82,16,18,Jits_Linear_8,101,9999,9999,9999,1722184820
82,16,18,Jits_Linear_8,102,9999,9999,9999,1722804300
82,16,18,Jits_Linear_8,103,9999,9999,9999,1723424860
82,16,18,Jits_Linear_8,104,9999,9999,9999,1724044348
82,16,18,Jits_Linear_8,105,9999,9999,9999,1724654712
82,16,18,Jits_Linear_8,106,9999,9999,9999,1725264960
82,16,18,Jits_Linear_8,107,9999,9999,9999,1725874228
82,16,18,Jits_Linear_8,108,9999,9999,9999,1726484564
82,16,18,Jits_Linear_8,109,9999,9999,9999,1727094888
82,16,18,Jits_Linear_8,110,9999,9999,9999,1727694960
82,16,18,Jits_Linear_8,111,9999,9999,9999,1728294980
82,16,18,Jits_Linear_8,112,9999,9999,9999,1728895068
82,16,18,Jits_Linear_8,113,9999,9999,9999,1729494116
82,16,18,Jits_Linear_8,114,9999,9999,9999,1730094140
82,16,18,Jits_Linear_8,115,9999,9999,9999,1730684992
82,16,18,Jits_Linear_8,116,9999,9999,9999,1731274816
82,16,18,Jits_Linear_8,117,9999,9999,9999,1731864668
82,16,18,Jits_Linear_8,118,9999,9999,9999,1732454492
82,16,18,Jits_Linear_8,119,9999,9999,9999,1733044304
82,16,18,Jits_Linear_8,120,9999,9999,9999,1733624928
82,16,18,Jits_Linear_8,121,9999,9999,9999,1734204468
82,16,18,Jits_Linear_8,122,9999,9999,9999,1734784076
82,16,18,Jits_Linear_8,123,9999,9999,9999,1735364736
82,16,18,Jits_Linear_8,124,9999,9999,9999,1735944312
82,16,18,Jits_Linear_8,125,9999,9999,9999,1736514620
82,16,18,Jits_Linear_8,126,9999,9999,9999,1737085032
82,16,18,Jits_Linear_8,127,9999,9999,9999,1737654360
82,16,18,Jits_Linear_8,128,9999,9999,9999,1738224712
82,16,18,Jits_Linear_8,129,9999,9999,9999,1738795132
82,16,18,Jits_Linear_8,130,9999,9999,9999,1739364432
82,16,18,Jits_Linear_8,131,9999,9999,9999,1739924584
82,16,18,Jits_Linear_8,132,9999,9999,9999,1740484728
82,16,18,Jits_Linear_8,133,9999,9999,9999,1741044840
82,16,18,Jits_Linear_8,134,9999,9999,9999,1741604980
82,16,18,Jits_Linear_8,135,9999,9999,9999,1742154848
82,16,18,Jits_Linear_8,136,9999,9999,9999,1742704720
82,16,18,Jits_Linear_8,137,9999,9999,9999,1743254608
82,16,18,Jits_Linear_8,138,9999,9999,9999,1743804496
82,16,18,Jits_Linear_8,139,9999,9999,9999,1744354384
82,16,18,Jits_Linear_8,140,9999,9999,9999,1744895040
82,16,18,Jits_Linear_8,141,9999,9999,9999,1745434700
82,16,18,Jits_Linear_8,142,9999,9999,9999,1745974392
82,16,18,Jits_Linear_8,143,9999,9999,9999,1746515044
82,16,18,Jits_Linear_8,144,9999,9999,9999,1747054668
82,16,18,Jits_Linear_8,145,9999,9999,9999,1747584092
82,16,18,Jits_Linear_8,146,9999,9999,9999,1748114488
82,16,18,Jits_Linear_8,147,9999,9999,9999,1748644952
82,16,18,Jits_Linear_8,148,9999,9999,9999,1749174364
82,16,18,Jits_Linear_8,149,9999,9999,9999,1749704828
82,16,18,Jits_Linear_8,150,9999,9999,9999,1750224964
82,16,18,Jits_Linear_8,151,9999,9999,9999,1750744132
82,16,18,Jits_Linear_8,152,9999,9999,9999,1751264372
82,16,18,Jits_Linear_8,153,9999,9999,9999,1751784508
82,16,18,Jits_Linear_8,154,9999,9999,9999,1752304704
82,16,18,Jits_Linear_8,155,9999,9999,9999,1752814652
82,16,18,Jits_Linear_8,156,9999,9999,9999,1753324608
82,16,18,Jits_Linear_8,157,9999,9999,9999,1753834624
82,16,18,Jits_Linear_8,158,9999,9999,9999,1754344572
82,16,18,Jits_Linear_8,159,9999,9999,9999,1754854524
82,16,18,Jits_Linear_8,160,9999,9999,9999,1755354200
82,16,18,Jits_Linear_8,161,9999,9999,9999,1755854916
82,16,18,Jits_Linear_8,162,9999,9999,9999,1756354680
82,16,18,Jits_Linear_8,163,9999,9999,9999,1756854360
82,16,18,Jits_Linear_8,164,9999,9999,9999,1757355088
82,16,18,Jits_Linear_8,165,9999,9999,9999,1757854836
82,16,18,Jits_Linear_8,166,9999,9999,9999,1758344268
82,16,18,Jits_Linear_8,167,9999,9999,9999,1758834808
82,16,18,Jits_Linear_8,168,9999,9999,9999,1759324244
82,16,18,Jits_Linear_8,169,9999,9999,9999,1759814716
82,17,19,Jits_Linear_5,0,5,56,103,1768676772
82,17,19,Jits_Linear_5,1,5,63,98,1768680020
82,17,19,Jits_Linear_5,2,5,80,127,1768683140
82,17,19,Jits_Linear_5,0,5,56,103,1769157132
82,17,19,Jits_Linear_5,1,5,63,98,1769160380
82,17,19,Jits_Linear_5,2,5,80,127,1769163348
82,17,19,Jits_Linear_5,3,1,48,37,1769169480
82,17,19,Jits_Linear_5,0,5,56,103,1769637204
82,17,19,Jits_Linear_5,1,5,80,127,1769646352
82,17,19,Jits_Linear_5,2,5,63,98,1769667260
82,17,19,Jits_Linear_5,3,1,48,66,1769672172
82,17,19,Jits_Linear_5,0,5,63,98,1770067300
82,17,19,Jits_Linear_5,1,5,80,127,1770097200
82,17,19,Jits_Linear_5,2,5,56,103,1770107248
82,17,19,Jits_Linear_5,3,1,48,79,1770138536
82,17,19,Jits_Linear_5,0,1,48,82,1770585012
82,17,19,Jits_Linear_5,1,5,80,127,1770607212
82,17,19,Jits_Linear_5,2,5,56,103,1770617184
82,17,19,Jits_Linear_5,3,5,63,98,1770647084
82,17,19,Jits_Linear_5,0,1,48,76,1771080056
82,17,19,Jits_Linear_5,1,5,63,98,1771087276
82,17,19,Jits_Linear_5,2,5,56,103,1771117176
82,17,19,Jits_Linear_5,3,5,80,127,1771127076
82,17,19,Jits_Linear_5,0,5,56,103,1771526436
82,17,19,Jits_Linear_5,1,5,63,98,1771576788
82,17,19,Jits_Linear_5,2,1,48,74,1771578432
82,17,19,Jits_Linear_5,3,5,80,127,1771597092
82,17,19,Jits_Linear_5,0,5,80,127,1772016992
82,17,19,Jits_Linear_5,1,1,48,83,1772064380
82,17,19,Jits_Linear_5,2,5,63,98,1772067044
82,17,19,Jits_Linear_5,3,5,56,103,1772107060
82,17,19,Jits_Linear_5,0,5,56,103,1772506560
82,17,19,Jits_Linear_5,1,5,63,98,1772537208
82,17,19,Jits_Linear_5,2,1,48,88,1772559956
82,17,19,Jits_Linear_5,3,5,80,127,1772607256
82,17,19,Jits_Linear_5,0,5,56,103,1772997168
82,17,19,Jits_Linear_5,1,1,48,96,1773039420
82,17,19,Jits_Linear_5,2,5,80,127,1773057356
82,17,19,Jits_Linear_5,3,5,63,98,1773087108
82,17,19,Jits_Linear_5,0,5,56,103,1773496648
82,17,19,Jits_Linear_5,1,5,63,98,1773506920
82,17,19,Jits_Linear_5,2,1,48,89,1773520080
82,17,19,Jits_Linear_5,3,5,80,127,1773547028
82,17,19,Jits_Linear_5,0,5,63,98,1773987200
82,17,19,Jits_Linear_5,1,1,48,82,1774000952
82,17,19,Jits_Linear_5,2,5,80,127,1774067016
82,17,19,Jits_Linear_5,3,5,56,103,1774077212
82,17,19,Jits_Linear_5,0,1,48,71,1774512916
82,17,19,Jits_Linear_5,1,5,63,98,1774536932
82,17,19,Jits_Linear_5,2,5,56,103,1774576892
82,17,19,Jits_Linear_5,3,5,80,127,1774579888
82,17,19,Jits_Linear_5,0,5,56,103,1774997132
82,17,19,Jits_Linear_5,1,5,63,98,1775007104
82,17,19,Jits_Linear_5,2,5,80,127,1775047120
82,17,19,Jits_Linear_5,3,1,48,70,1775059228
82,17,19,Jits_Linear_5,0,5,56,103,1775487388
82,17,19,Jits_Linear_5,1,5,63,98,1775490380
82,17,19,Jits_Linear_5,2,5,80,127,1775506948
82,17,19,Jits_Linear_5,3,1,48,66,1775547904
82,17,19,Jits_Linear_5,0,5,80,127,1776006708
82,17,19,Jits_Linear_5,1,1,48,82,1776016680
82,17,19,Jits_Linear_5,2,5,56,103,1776018392
82,17,19,Jits_Linear_5,3,5,63,98,1776087404
82,17,19,Jits_Linear_5,0,1,48,61,1776503740
82,17,19,Jits_Linear_5,1,5,63,98,1776507228
82,17,19,Jits_Linear_5,2,5,56,103,1776526792
82,17,19,Jits_Linear_5,3,5,80,127,1776606596
82,17,19,Jits_Linear_5,0,1,48,76,1777025724
82,17,19,Jits_Linear_5,1,5,56,103,1777027292
82,17,19,Jits_Linear_5,2,5,80,127,1777067236
82,17,19,Jits_Linear_5,3,5,63,98,1777076460
82,17,19,Jits_Linear_5,0,5,80,127,1777527136
82,17,19,Jits_Linear_5,1,5,63,98,1777557036
82,17,19,Jits_Linear_5,2,1,48,75,1777560156
82,17,19,Jits_Linear_5,3,5,56,103,1777596820
82,17,19,Jits_Linear_5,0,5,56,103,1778056580
82,17,19,Jits_Linear_5,1,1,48,70,1778081876
82,17,19,Jits_Linear_5,2,5,63,98,1778087372
82,17,19,Jits_Linear_5,3,5,80,127,1778136456
82,17,19,Jits_Linear_5,0,5,80,127,1778566848
82,17,19,Jits_Linear_5,1,1,48,73,1778588704
82,17,19,Jits_Linear_5,2,5,56,103,1778606412
82,17,19,Jits_Linear_5,3,5,63,98,1778616980
82,17,19,Jits_Linear_5,0,5,80,127,1779067300
82,17,19,Jits_Linear_5,1,1,48,63,1779101736
82,17,19,Jits_Linear_5,2,5,63,98,1779107308
82,17,19,Jits_Linear_5,3,5,56,103,1779166676
82,17,19,Jits_Linear_5,0,5,56,103,1779586632
82,17,19,Jits_Linear_5,1,5,80,127,1779596752
82,17,19,Jits_Linear_5,2,1,48,84,1779603536
82,17,19,Jits_Linear_5,3,5,63,98,1779676716
82,17,19,Jits_Linear_5,0,5,80,127,1780106712
82,17,19,Jits_Linear_5,1,1,48,71,1780124500
82,17,19,Jits_Linear_5,2,5,63,98,1780167024
82,17,19,Jits_Linear_5,3,5,56,103,1780196948
82,17,19,Jits_Linear_5,0,5,56,103,1780626940
82,17,19,Jits_Linear_5,1,1,48,46,1780651036
82,17,19,Jits_Linear_5,2,5,80,127,1780687252
82,17,19,Jits_Linear_5,3,5,63,98,1780727068
82,17,19,Jits_Linear_5,0,1,48,92,1781150956
82,17,19,Jits_Linear_5,1,5,56,103,1781207404
82,17,19,Jits_Linear_5,2,5,63,98,1781216728
82,17,19,Jits_Linear_5,3,5,80,127,1781220016
82,17,19,Jits_Linear_5,0,1,48,69,1781678432
82,17,19,Jits_Linear_5,1,5,80,127,1781687072
82,17,19,Jits_Linear_5,2,5,63,98,1781776712
82,17,19,Jits_Linear_5,3,5,56,103,1781786968
82,17,19,Jits_Linear_5,0,5,56,103,1782216944
82,17,19,Jits_Linear_5,1,5,63,98,1782220120
82,17,19,Jits_Linear_5,2,5,80,127,1782223316
82,17,19,Jits_Linear_5,3,1,48,85,1782233188
82,17,19,Jits_Linear_5,0,1,48,87,1782737364
82,17,19,Jits_Linear_5,1,5,80,127,1782767080
82,17,19,Jits_Linear_5,2,5,63,98,1782817212
82,17,19,Jits_Linear_5,3,5,56,103,1782846724
82,17,19,Jits_Linear_5,0,1,48,76,1783266600
82,17,19,Jits_Linear_5,1,5,56,103,1783276812
82,17,19,Jits_Linear_5,2,5,80,127,1783287232
82,17,19,Jits_Linear_5,3,5,63,98,1783356844
82,17,19,Jits_Linear_5,0,1,48,82,1783806816
82,17,19,Jits_Linear_5,1,5,56,103,1783816804
82,17,19,Jits_Linear_5,2,5,63,98,1783836968
82,17,19,Jits_Linear_5,3,5,80,127,1783896464
82,17,19,Jits_Linear_5,0,1,48,59,1784343952
82,17,19,Jits_Linear_5,1,5,80,127,1784347136
82,17,19,Jits_Linear_5,2,5,63,98,1784416748
82,17,19,Jits_Linear_5,3,5,56,103,1784436984
82,17,19,Jits_Linear_5,0,1,48,60,1784857584
82,17,19,Jits_Linear_5,1,5,80,127,1784907212
82,17,19,Jits_Linear_5,2,5,56,103,1784917260
82,17,19,Jits_Linear_5,3,5,63,98,1784926636
82,17,19,Jits_Linear_5,0,1,48,86,1785400048
82,17,19,Jits_Linear_5,1,5,80,127,1785436792
82,17,19,Jits_Linear_5,2,5,56,103,1785456956
82,17,19,Jits_Linear_5,3,5,63,98,1785526772
82,17,19,Jits_Linear_5,0,1,48,73,1785981848
82,17,19,Jits_Linear_5,1,5,56,103,1785986528
82,17,19,Jits_Linear_5,2,5,80,127,1786017252
82,17,19,Jits_Linear_5,3,5,63,98,1786036664
82,17,19,Jits_Linear_5,0,5,63,98,1786527128
82,17,19,Jits_Linear_5,1,1,48,81,1786544936
82,17,19,Jits_Linear_5,2,5,56,103,1786586544
82,17,19,Jits_Linear_5,3,5,80,127,1786617288
82,17,19,Jits_Linear_5,0,5,63,98,1787066744
82,17,19,Jits_Linear_5,1,5,80,127,1787070108
82,17,19,Jits_Linear_5,2,1,48,63,1787090240
82,17,19,Jits_Linear_5,3,5,56,103,1787156744
82,17,19,Jits_Linear_5,0,1,48,73,1787606100
82,17,19,Jits_Linear_5,1,5,56,103,1787637088
82,17,19,Jits_Linear_5,2,5,63,98,1787666768
82,17,19,Jits_Linear_5,3,5,80,127,1787706764
82,17,19,Jits_Linear_5,0,1,48,75,1788157060
82,17,19,Jits_Linear_5,1,5,63,98,1788187048
82,17,19,Jits_Linear_5,2,5,56,103,1788226840
82,17,19,Jits_Linear_5,3,5,80,127,1788247524
82,17,19,Jits_Linear_5,0,1,48,68,1788688808
82,17,19,Jits_Linear_5,1,5,63,98,1788746976
82,17,19,Jits_Linear_5,2,5,56,103,1788786976
82,17,19,Jits_Linear_5,3,5,80,127,1788797248
82,17,19,Jits_Linear_5,0,1,48,82,1789258848
82,17,19,Jits_Linear_5,1,5,80,127,1789276484
82,17,19,Jits_Linear_5,2,5,63,98,1789347364
82,17,19,Jits_Linear_5,3,5,56,103,1789366616
82,17,19,Jits_Linear_5,0,1,48,79,1789803104
82,17,19,Jits_Linear_5,1,5,56,103,1789826668
82,17,19,Jits_Linear_5,2,5,80,127,1789846904
82,17,19,Jits_Linear_5,3,5,63,98,1789886920
82,17,19,Jits_Linear_5,0,1,48,64,1790363852
82,17,19,Jits_Linear_5,1,5,63,98,1790396928
82,17,19,Jits_Linear_5,2,5,80,127,1790417168
82,17,19,Jits_Linear_5,3,5,56,103,1790457864
82,17,19,Jits_Linear_5,0,1,48,56,1790936080
82,17,19,Jits_Linear_5,1,5,63,98,1790956952
82,17,19,Jits_Linear_5,2,5,56,103,1790977636
82,17,19,Jits_Linear_5,3,5,80,127,1790986636
82,17,19,Jits_Linear_5,0,1,48,55,1791492412
82,17,19,Jits_Linear_5,1,5,80,127,1791527212
82,17,19,Jits_Linear_5,2,5,56,103,1791546772
82,17,19,Jits_Linear_5,3,5,63,98,1791576676
82,17,19,Jits_Linear_5,0,1,48,76,1792076624
82,17,19,Jits_Linear_5,1,5,56,103,1792167680
82,17,19,Jits_Linear_5,2,5,80,127,1792171400
82,17,19,Jits_Linear_5,3,5,63,98,1792186704
82,17,19,Jits_Linear_5,0,5,63,98,1792656728
82,17,19,Jits_Linear_5,1,5,56,103,1792686480
82,17,19,Jits_Linear_5,2,1,48,54,1792717100
82,17,19,Jits_Linear_5,3,5,80,127,1792746888
82,17,19,Jits_Linear_5,0,1,48,59,1793264648
82,17,19,Jits_Linear_5,1,5,63,98,1793307020
82,17,19,Jits_Linear_5,2,5,56,103,1793317364
82,17,19,Jits_Linear_5,3,5,80,127,1793326664
82,17,19,Jits_Linear_5,0,5,56,103,1793827168
82,17,19,Jits_Linear_5,1,5,80,127,1793856772
82,17,19,Jits_Linear_5,2,5,63,98,1793867044
82,17,19,Jits_Linear_5,3,1,48,76,1793868008
82,17,19,Jits_Linear_5,0,5,63,98,1794436636
82,17,19,Jits_Linear_5,1,1,48,62,1794438048
82,17,19,Jits_Linear_5,2,5,56,103,1794446752
82,17,19,Jits_Linear_5,3,5,80,127,1794467212
82,17,19,Jits_Linear_5,0,5,56,103,1794937152
82,17,19,Jits_Linear_5,1,5,63,98,1794996720
82,17,19,Jits_Linear_5,2,5,80,127,1794999932
82,17,19,Jits_Linear_5,3,1,48,85,1795034532
82,17,19,Jits_Linear_5,0,5,80,127,1795537456
82,17,19,Jits_Linear_5,1,5,56,103,1795546608
82,17,19,Jits_Linear_5,2,1,48,49,1795599724
82,17,19,Jits_Linear_5,3,5,63,98,1795617208
82,17,19,Jits_Linear_5,0,5,80,127,1796106640
82,17,19,Jits_Linear_5,1,1,48,78,1796152460
82,17,19,Jits_Linear_5,2,5,56,103,1796177440
82,17,19,Jits_Linear_5,3,5,63,98,1796186440
82,17,19,Jits_Linear_5,0,1,48,24,1796726516
82,17,19,Jits_Linear_5,1,5,63,98,1796728008
82,17,19,Jits_Linear_5,2,5,56,103,1796737676
82,17,19,Jits_Linear_5,3,5,80,127,1796756868
82,17,19,Jits_Linear_5,0,5,80,127,1797256472
82,17,19,Jits_Linear_5,1,5,63,98,1797317088
82,17,19,Jits_Linear_5,2,1,48,74,1797321628
82,17,19,Jits_Linear_5,3,5,56,103,1797356900
82,17,19,Jits_Linear_5,0,5,56,103,1797887316
82,17,19,Jits_Linear_5,1,5,63,98,1797896688
82,17,19,Jits_Linear_5,2,1,48,67,1797907900
82,17,19,Jits_Linear_5,3,5,80,127,1797936472
82,17,19,Jits_Linear_5,0,5,56,103,1798437436
82,17,19,Jits_Linear_5,1,5,80,127,1798466816
82,17,19,Jits_Linear_5,2,1,48,72,1798468156
82,17,19,Jits_Linear_5,3,5,63,98,1798517312
82,17,19,Jits_Linear_5,0,1,48,56,1799042960
82,17,19,Jits_Linear_5,1,5,56,103,1799066976
82,17,19,Jits_Linear_5,2,5,63,98,1799106988
82,17,19,Jits_Linear_5,3,5,80,127,1799110500
82,17,19,Jits_Linear_5,0,1,48,75,1799644500
82,17,19,Jits_Linear_5,1,5,56,103,1799656956
82,17,19,Jits_Linear_5,2,5,63,98,1799667080
82,17,19,Jits_Linear_5,3,5,80,127,1799686568
82,17,19,Jits_Linear_5,0,5,56,103,1800206696
82,17,19,Jits_Linear_5,1,5,80,127,1800209836
82,17,19,Jits_Linear_5,2,5,63,98,1800246560
82,17,19,Jits_Linear_5,0,1,48,95,1800773876
82,17,19,Jits_Linear_5,1,5,63,98,1800836552
82,17,19,Jits_Linear_5,2,5,56,103,1800867352
82,17,19,Jits_Linear_5,3,5,80,127,1800886524
82,17,19,Jits_Linear_5,0,1,48,48,1801400116
82,17,19,Jits_Linear_5,1,5,80,127,1801406816
82,17,19,Jits_Linear_5,2,5,56,103,1801417160
82,17,19,Jits_Linear_5,3,5,63,98,1801427656
82,17,19,Jits_Linear_5,0,1,48,82,1801967332
82,17,19,Jits_Linear_5,1,5,56,103,1802006768
82,17,19,Jits_Linear_5,2,5,80,127,1802046712
82,17,19,Jits_Linear_5,3,5,63,98,1802076520
82,17,19,Jits_Linear_5,0,1,48,69,1802542160
82,17,19,Jits_Linear_5,1,5,63,98,1802617488
82,17,19,Jits_Linear_5,2,5,80,127,1802626492
82,17,19,Jits_Linear_5,3,5,56,103,1802636596
82,17,19,Jits_Linear_5,0,1,48,93,1803160748
82,17,19,Jits_Linear_5,1,5,56,103,1803196888
82,17,19,Jits_Linear_5,2,5,63,98,1803266436
82,17,19,Jits_Linear_5,3,5,80,127,1803276780
82,17,19,Jits_Linear_5,0,1,48,75,1803781380
82,17,19,Jits_Linear_5,1,5,80,127,1803807036
82,17,19,Jits_Linear_5,2,5,56,103,1803817532
82,17,19,Jits_Linear_5,3,5,63,98,1803866464
82,17,19,Jits_Linear_5,0,1,48,59,1804403104
82,17,19,Jits_Linear_5,1,5,80,127,1804426520
82,17,19,Jits_Linear_5,2,5,56,103,1804487060
82,17,19,Jits_Linear_5,3,5,63,98,1804516672
82,17,19,Jits_Linear_5,0,1,48,55,1804997880
82,17,19,Jits_Linear_5,1,5,56,103,1805036888
82,17,19,Jits_Linear_5,2,5,80,127,1805040100
82,17,19,Jits_Linear_5,3,5,63,98,1805076900
82,17,19,Jits_Linear_5,0,1,48,101,1805638576
82,17,19,Jits_Linear_5,1,5,56,103,1805676820
82,17,19,Jits_Linear_5,2,5,63,98,1805706572
82,17,19,Jits_Linear_5,3,5,80,127,1805716840
82,17,19,Jits_Linear_5,0,1,48,89,1806253512
82,17,19,Jits_Linear_5,1,5,63,98,1806296408
82,17,19,Jits_Linear_5,2,5,80,127,1806306628
82,17,19,Jits_Linear_5,3,5,56,103,1806316900
82,17,19,Jits_Linear_5,0,5,80,127,1806856512
82,17,19,Jits_Linear_5,1,1,48,95,1806889004
82,17,19,Jits_Linear_5,2,5,56,103,1806906780
82,17,19,Jits_Linear_5,3,5,63,98,1806909772
82,17,19,Jits_Linear_5,0,1,48,76,1807487876
82,17,19,Jits_Linear_5,1,5,56,103,1807506788
82,17,19,Jits_Linear_5,2,5,80,127,1807527324
82,17,19,Jits_Linear_5,3,5,63,98,1807536472
82,17,19,Jits_Linear_5,0,1,48,78,1808090052
82,17,19,Jits_Linear_5,1,5,63,98,1808106816
82,17,19,Jits_Linear_5,2,5,56,103,1808136568
82,17,19,Jits_Linear_5,3,5,80,127,1808157104
82,17,19,Jits_Linear_5,0,1,48,83,1808705972
82,17,19,Jits_Linear_5,1,5,56,103,1808736564
82,17,19,Jits_Linear_5,2,5,80,127,1808747060
82,17,19,Jits_Linear_5,3,5,63,98,1808816428
82,17,19,Jits_Linear_5,0,1,48,74,1809345244
82,17,19,Jits_Linear_5,1,5,63,98,1809346908
82,17,19,Jits_Linear_5,2,5,80,127,1809386728
82,17,19,Jits_Linear_5,3,5,56,103,1809426668
82,17,19,Jits_Linear_5,0,5,56,103,1809987028
82,17,19,Jits_Linear_5,1,1,48,84,1809992768
82,17,19,Jits_Linear_5,2,5,63,98,1809997444
82,17,19,Jits_Linear_5,3,5,80,127,1810016556
82,17,19,Jits_Linear_5,0,1,48,73,1810639308
82,17,19,Jits_Linear_5,1,5,63,98,1810656672
82,17,19,Jits_Linear_5,2,5,80,127,1810677204
82,17,19,Jits_Linear_5,3,5,56,103,1810696468
82,17,19,Jits_Linear_5,0,5,56,103,1811227088
82,17,19,Jits_Linear_5,1,1,48,91,1811277940
82,17,19,Jits_Linear_5,2,5,80,127,1811306880
82,17,19,Jits_Linear_5,3,5,63,98,1811317300
82,17,19,Jits_Linear_5,0,1,48,75,1811872852
82,17,19,Jits_Linear_5,1,5,80,127,1811896712
82,17,19,Jits_Linear_5,2,5,63,98,1811907128
82,17,19,Jits_Linear_5,3,5,56,103,1811936684
82,17,19,Jits_Linear_5,0,5,63,98,1812486484
82,17,19,Jits_Linear_5,1,5,80,127,1812526348
82,17,19,Jits_Linear_5,2,1,48,70,1812534792
82,17,19,Jits_Linear_5,3,5,56,103,1812586884
82,17,19,Jits_Linear_5,0,5,63,98,1813126496
82,17,19,Jits_Linear_5,1,5,56,103,1813176624
82,17,19,Jits_Linear_5,2,1,48,85,1813183856
82,17,19,Jits_Linear_5,3,5,80,127,1813207340
82,17,19,Jits_Linear_5,0,5,80,127,1813776720
82,17,19,Jits_Linear_5,1,5,63,98,1813787140
82,17,19,Jits_Linear_5,2,1,48,94,1813807044
82,17,19,Jits_Linear_5,3,5,56,103,1813856596
82,17,19,Jits_Linear_5,0,5,80,127,1814487404
82,17,19,Jits_Linear_5,1,1,48,86,1814489996
82,17,19,Jits_Linear_5,2,5,56,103,1814496844
82,17,19,Jits_Linear_5,3,5,63,98,1814499908
82,17,19,Jits_Linear_5,0,5,56,103,1815067188
82,17,19,Jits_Linear_5,1,5,80,127,1815086304
82,17,19,Jits_Linear_5,2,5,63,98,1815096652
82,17,19,Jits_Linear_5,3,1,48,87,1815162464
82,17,19,Jits_Linear_5,0,5,63,98,1815717180
82,17,19,Jits_Linear_5,1,5,56,103,1815757124
82,17,19,Jits_Linear_5,2,1,48,80,1815769160
82,17,19,Jits_Linear_5,3,5,80,127,1815776480
82,17,19,Jits_Linear_5,0,5,63,98,1816366368
82,17,19,Jits_Linear_5,1,1,48,78,1816386424
82,17,19,Jits_Linear_5,2,5,56,103,1816426904
82,17,19,Jits_Linear_5,3,5,80,127,1816429968
82,17,19,Jits_Linear_5,0,5,56,103,1816976780
82,17,19,Jits_Linear_5,1,5,80,127,1816997092
82,17,19,Jits_Linear_5,2,5,63,98,1817037032
82,17,19,Jits_Linear_5,3,1,48,86,1817045844
82,17,19,Jits_Linear_5,0,5,56,103,1817656840
82,17,19,Jits_Linear_5,1,5,63,98,1817677152
82,17,19,Jits_Linear_5,2,1,48,76,1817678192
82,17,19,Jits_Linear_5,3,5,80,127,1817687416
82,17,19,Jits_Linear_5,0,5,80,127,1818277312
82,17,19,Jits_Linear_5,1,5,56,103,1818307064
82,17,19,Jits_Linear_5,2,1,48,78,1818308776
82,17,19,Jits_Linear_5,3,5,63,98,1818346944
82,17,19,Jits_Linear_5,0,1,48,86,1818931036
82,17,19,Jits_Linear_5,1,5,80,127,1818936616
82,17,19,Jits_Linear_5,2,5,56,103,1818957224
82,17,19,Jits_Linear_5,3,5,63,98,1819016568
82,17,19,Jits_Linear_5,0,1,48,63,1819577948
82,17,19,Jits_Linear_5,1,5,56,103,1819597080
82,17,19,Jits_Linear_5,2,5,80,127,1819616744
82,17,19,Jits_Linear_5,3,5,63,98,1819676972
82,17,19,Jits_Linear_5,0,1,48,59,1820216040
82,17,19,Jits_Linear_5,1,5,80,127,1820237192
82,17,19,Jits_Linear_5,2,5,56,103,1820247540
82,17,19,Jits_Linear_5,3,5,63,98,1820287476
82,17,19,Jits_Linear_5,0,1,48,61,1820885944
82,17,19,Jits_Linear_5,1,5,63,98,1820896560
82,17,19,Jits_Linear_5,2,5,56,103,1820936500
82,17,19,Jits_Linear_5,3,5,80,127,1820939564
82,17,19,Jits_Linear_5,4,1,48,23,1820972484
82,17,19,Jits_Linear_5,0,1,48,70,1821572980
82,17,19,Jits_Linear_5,1,5,63,98,1821576912
82,17,19,Jits_Linear_5,2,5,80,127,1821616556
82,17,19,Jits_Linear_5,3,5,56,103,1821647280
82,17,19,Jits_Linear_5,0,5,56,103,1822226928
82,17,19,Jits_Linear_5,1,5,63,98,1822237124
82,17,19,Jits_Linear_5,2,5,80,127,1822267024
82,17,19,Jits_Linear_5,3,1,48,73,1822274948
82,17,19,Jits_Linear_5,0,5,80,127,1822887260
82,17,19,Jits_Linear_5,1,1,48,68,1822907388
82,17,19,Jits_Linear_5,2,5,63,98,1822957112
82,17,19,Jits_Linear_5,3,5,56,103,1822967236
82,17,19,Jits_Linear_5,0,5,63,98,1823557056
82,17,19,Jits_Linear_5,1,1,48,68,1823602952
82,17,19,Jits_Linear_5,2,5,56,103,1823626808
82,17,19,Jits_Linear_5,3,5,80,127,1823636856
82,17,19,Jits_Linear_5,0,5,63,98,1824226616
82,17,19,Jits_Linear_5,1,5,56,103,1824247076
82,17,19,Jits_Linear_5,2,1,48,87,1824259188
82,17,19,Jits_Linear_5,3,5,80,127,1824287156
82,17,19,Jits_Linear_5,0,5,56,103,1824906488
82,17,19,Jits_Linear_5,1,5,63,98,1824916832
82,17,19,Jits_Linear_5,2,1,48,75,1824930360
82,17,19,Jits_Linear_5,3,5,80,127,1824996868
82,17,19,Jits_Linear_5,0,5,63,98,1825567064
82,17,19,Jits_Linear_5,1,5,56,103,1825597036
82,17,19,Jits_Linear_5,2,1,48,83,1825614160
82,17,19,Jits_Linear_5,3,5,80,127,1825636824
82,17,19,Jits_Linear_5,0,5,56,103,1826236892
82,17,19,Jits_Linear_5,1,5,63,98,1826277008
82,17,19,Jits_Linear_5,2,1,48,70,1826307108
82,17,19,Jits_Linear_5,3,5,80,127,1826316792
82,17,19,Jits_Linear_5,0,5,80,127,1826916952
82,17,19,Jits_Linear_5,1,1,48,69,1826967132
82,17,19,Jits_Linear_5,2,5,56,103,1826996524
82,17,19,Jits_Linear_5,3,5,63,98,1827006796
82,17,19,Jits_Linear_5,0,5,56,103,1827636800
82,17,19,Jits_Linear_5,1,5,63,98,1827639792
82,17,19,Jits_Linear_5,2,5,80,127,1827646996
82,17,19,Jits_Linear_5,3,1,48,86,1827713636
82,17,19,Jits_Linear_5,0,5,56,103,1828337008
82,17,19,Jits_Linear_5,1,5,63,98,1828356496
82,17,19,Jits_Linear_5,2,5,80,127,1828366692
82,17,19,Jits_Linear_5,3,1,48,68,1828373848
82,17,19,Jits_Linear_5,0,5,63,98,1828976964
82,17,19,Jits_Linear_5,1,5,80,127,1828987308
82,17,19,Jits_Linear_5,2,5,56,103,1829006796
82,17,19,Jits_Linear_5,3,1,48,87,1829052908
82,17,19,Jits_Linear_5,0,5,63,98,1829667196
82,17,19,Jits_Linear_5,1,1,48,80,1829697964
82,17,19,Jits_Linear_5,2,5,56,103,1829746988
82,17,19,Jits_Linear_5,3,5,80,127,1829749980
82,17,19,Jits_Linear_5,0,5,63,98,1830357328
82,17,19,Jits_Linear_5,1,5,56,103,1830376768
82,17,19,Jits_Linear_5,2,5,80,127,1830406372
82,17,19,Jits_Linear_5,3,1,48,88,1830434876
82,17,19,Jits_Linear_5,0,5,56,103,1831046668
82,17,19,Jits_Linear_5,1,5,63,98,1831066908
82,17,19,Jits_Linear_5,2,5,80,127,1831077176
82,17,19,Jits_Linear_5,3,1,48,72,1831114520
82,17,19,Jits_Linear_5,0,1,48,80,1831745204
82,17,19,Jits_Linear_5,1,5,56,103,1831767404
82,17,19,Jits_Linear_5,2,5,63,98,1831797156
82,17,19,Jits_Linear_5,3,5,80,127,1831800444
82,17,19,Jits_Linear_5,0,5,56,103,1832407340
82,17,19,Jits_Linear_5,1,1,48,80,1832433904
82,17,19,Jits_Linear_5,2,5,63,98,1832447204
82,17,19,Jits_Linear_5,3,5,80,127,1832506696
82,17,19,Jits_Linear_5,0,5,56,103,1833117052
82,17,19,Jits_Linear_5,1,5,63,98,1833127248
82,17,19,Jits_Linear_5,2,1,48,79,1833145128
82,17,19,Jits_Linear_5,3,5,80,127,1833186756
82,17,19,Jits_Linear_5,0,5,56,103,1833816292
82,17,19,Jits_Linear_5,1,5,80,127,1833836900
82,17,19,Jits_Linear_5,2,5,63,98,1833866652
82,17,19,Jits_Linear_5,3,1,48,73,1833867620
82,17,19,Jits_Linear_5,0,5,80,127,1834516800
82,17,19,Jits_Linear_5,1,5,56,103,1834527144
82,17,19,Jits_Linear_5,2,1,48,84,1834530784
82,17,19,Jits_Linear_5,3,5,63,98,1834546700
82,17,19,Jits_Linear_5,0,5,63,98,1835207024
82,17,19,Jits_Linear_5,1,1,48,65,1835215836
82,17,19,Jits_Linear_5,2,5,80,127,1835286840
82,17,19,Jits_Linear_5,3,5,56,103,1835297332
82,17,19,Jits_Linear_5,0,1,48,79,1835943520
82,17,19,Jits_Linear_5,1,5,80,127,1835966932
82,17,19,Jits_Linear_5,2,5,56,103,1835987244
82,17,19,Jits_Linear_5,3,5,63,98,1835990384
82,17,19,Jits_Linear_5,0,5,63,98,1836646904
82,17,19,Jits_Linear_5,1,5,80,127,1836650120
82,17,19,Jits_Linear_5,2,1,48,78,1836669204
82,17,19,Jits_Linear_5,3,5,56,103,1836707064
82,17,19,Jits_Linear_5,0,5,56,103,1837337056
82,17,19,Jits_Linear_5,1,5,80,127,1837347176
82,17,19,Jits_Linear_5,2,5,63,98,1837387116
82,17,19,Jits_Linear_5,3,1,48,87,1837413976
82,17,19,Jits_Linear_5,0,5,56,103,1838026980
82,17,19,Jits_Linear_5,1,1,48,76,1838084136
82,17,19,Jits_Linear_5,2,5,63,98,1838086644
82,17,19,Jits_Linear_5,3,5,80,127,1838096616
82,17,19,Jits_Linear_5,0,5,63,98,1838747048
82,17,19,Jits_Linear_5,1,1,48,79,1838759236
82,17,19,Jits_Linear_5,2,5,80,127,1838786836
82,17,19,Jits_Linear_5,3,5,56,103,1838826872
82,17,19,Jits_Linear_5,0,5,56,103,1839456616
82,17,19,Jits_Linear_5,1,1,48,73,1839484976
82,17,19,Jits_Linear_5,2,5,63,98,1839536632
82,17,19,Jits_Linear_5,3,5,80,127,1839539848
82,17,19,Jits_Linear_5,0,1,48,93,1840196956
82,17,19,Jits_Linear_5,1,5,80,127,1840226652
82,17,19,Jits_Linear_5,2,5,56,103,1840257596
82,17,19,Jits_Linear_5,3,5,63,98,1840260660
82,17,19,Jits_Linear_5,0,5,56,103,1840906548
82,17,19,Jits_Linear_5,1,5,80,127,1840927160
82,17,19,Jits_Linear_5,2,1,48,74,1840939420
82,17,19,Jits_Linear_5,3,5,63,98,1840967016
82,17,19,Jits_Linear_5,0,5,80,127,1841606960
82,17,19,Jits_Linear_5,1,1,48,78,1841626696
82,17,19,Jits_Linear_5,2,5,63,98,1841628032
82,17,19,Jits_Linear_5,3,5,56,103,1841687008
82,17,19,Jits_Linear_5,0,5,63,98,1842337068
82,17,19,Jits_Linear_5,1,1,48,60,1842347564
82,17,19,Jits_Linear_5,2,5,56,103,1842348976
82,17,19,Jits_Linear_5,3,5,80,127,1842396516
82,17,19,Jits_Linear_5,0,5,56,103,1843046708
82,17,19,Jits_Linear_5,1,5,63,98,1843067392
82,17,19,Jits_Linear_5,2,1,48,95,1843070064
82,17,19,Jits_Linear_5,3,5,80,127,1843076608
82,17,19,Jits_Linear_5,0,1,48,68,1843739536
82,17,19,Jits_Linear_5,1,5,56,103,1843766612
82,17,19,Jits_Linear_5,2,5,63,98,1843769604
82,17,19,Jits_Linear_5,3,5,80,127,1843787296
82,17,19,Jits_Linear_5,0,1,48,89,1844483012
82,17,19,Jits_Linear_5,1,5,63,98,1844536700
82,17,19,Jits_Linear_5,2,5,56,103,1844567420
82,17,19,Jits_Linear_5,3,5,80,127,1844597008
82,17,19,Jits_Linear_5,0,1,48,85,1845222324
82,17,19,Jits_Linear_5,1,5,80,127,1845227004
82,17,19,Jits_Linear_5,2,5,56,103,1845316916
82,17,19,Jits_Linear_5,3,5,63,98,1845320792
82,17,19,Jits_Linear_5,0,5,56,103,1845956920
82,17,19,Jits_Linear_5,1,5,80,127,1845960060
82,17,19,Jits_Linear_5,2,1,48,62,1846013920
82,17,19,Jits_Linear_5,3,5,63,98,1846036812
82,17,19,Jits_Linear_5,0,1,48,90,1846676348
82,17,19,Jits_Linear_5,1,5,80,127,1846687084
82,17,19,Jits_Linear_5,2,5,63,98,1846746608
82,17,19,Jits_Linear_5,3,5,56,103,1846777388
82,17,19,Jits_Linear_5,0,5,63,98,1847417336
82,17,19,Jits_Linear_5,1,1,48,81,1847423520
82,17,19,Jits_Linear_5,2,5,80,127,1847426556
82,17,19,Jits_Linear_5,3,5,56,103,1847496984
82,17,19,Jits_Linear_5,0,5,56,103,1848166760
82,17,19,Jits_Linear_5,1,5,80,127,1848196512
82,17,19,Jits_Linear_5,2,1,48,103,1848227132
82,17,19,Jits_Linear_5,3,5,63,98,1848246632
82,17,19,Jits_Linear_5,0,1,48,90,1848934140
82,17,19,Jits_Linear_5,1,5,63,98,1848946992
82,17,19,Jits_Linear_5,2,5,56,103,1848976816
82,17,19,Jits_Linear_5,3,5,80,127,1848979808
82,17,19,Jits_Linear_5,0,5,63,98,1849687576
82,17,19,Jits_Linear_5,1,5,80,127,1849706840
82,17,19,Jits_Linear_5,2,1,48,103,1849715976
82,17,19,Jits_Linear_5,3,5,56,103,1849717852
82,17,19,Jits_Linear_5,0,5,56,103,1850436936
82,17,19,Jits_Linear_5,1,5,63,98,1850440148
82,17,19,Jits_Linear_5,2,5,80,127,1850456496
82,17,19,Jits_Linear_5,3,1,48,94,1850467564
82,17,19,Jits_Linear_5,0,5,56,103,1851137368
82,17,19,Jits_Linear_5,1,5,63,98,1851146592
82,17,19,Jits_Linear_5,2,5,80,127,1851177240
82,17,19,Jits_Linear_5,3,1,48,101,1851222384
82,17,19,Jits_Linear_5,0,1,48,74,1851903700
82,17,19,Jits_Linear_5,1,5,63,98,1851916628
82,17,19,Jits_Linear_5,2,5,80,127,1851937236
82,17,19,Jits_Linear_5,3,5,56,103,1851977028
82,17,19,Jits_Linear_5,0,5,56,103,1852696928
82,17,19,Jits_Linear_5,1,1,48,86,1852701020
82,17,19,Jits_Linear_5,2,5,63,98,1852736864
82,17,19,Jits_Linear_5,3,5,80,127,1852740448
82,17,19,Jits_Linear_5,0,5,80,127,1853387224
82,17,19,Jits_Linear_5,1,5,56,103,1853427040
82,17,19,Jits_Linear_5,2,1,48,92,1853431056
82,17,19,Jits_Linear_5,3,5,63,98,1853477460
82,17,19,Jits_Linear_5,0,1,48,72,1854166900
82,17,19,Jits_Linear_5,1,5,56,103,1854197292
82,17,19,Jits_Linear_5,2,5,80,127,1854207344
82,17,19,Jits_Linear_5,3,5,63,98,1854237316
82,17,19,Jits_Linear_5,0,5,56,103,1854896360
82,17,19,Jits_Linear_5,1,1,48,70,1854921128
82,17,19,Jits_Linear_5,2,5,80,127,1854936468
82,17,19,Jits_Linear_5,3,5,63,98,1854986520
82,17,19,Jits_Linear_5,0,5,56,103,1855657404
82,17,19,Jits_Linear_5,1,5,80,127,1855697344
82,17,19,Jits_Linear_5,2,1,48,78,1855698608
82,17,19,Jits_Linear_5,3,5,63,98,1855746444
82,17,19,Jits_Linear_5,0,5,80,127,1856407068
82,17,19,Jits_Linear_5,1,1,48,97,1856434472
82,17,19,Jits_Linear_5,2,5,63,98,1856486664
82,17,19,Jits_Linear_5,3,5,56,103,1856497156
82,17,19,Jits_Linear_5,0,1,48,91,1857205100
82,17,19,Jits_Linear_5,1,5,80,127,1857216812
82,17,19,Jits_Linear_5,2,5,56,103,1857227380
82,17,19,Jits_Linear_5,3,5,63,98,1857246668
82,17,19,Jits_Linear_5,0,5,63,98,1857947136
82,17,19,Jits_Linear_5,1,1,48,86,1857967936
82,17,19,Jits_Linear_5,2,5,56,103,1858016532
82,17,19,Jits_Linear_5,3,5,80,127,1858019680
82,17,19,Jits_Linear_5,0,5,80,127,1858706888
82,17,19,Jits_Linear_5,1,1,48,89,1858742444
82,17,19,Jits_Linear_5,2,5,63,98,1858756936
82,17,19,Jits_Linear_5,3,5,56,103,1858796904
82,17,19,Jits_Linear_5,0,5,63,98,1859516792
82,17,19,Jits_Linear_5,1,1,48,79,1859545120
82,17,19,Jits_Linear_5,2,5,56,103,1859556680
82,17,19,Jits_Linear_5,3,5,80,127,1859567100
82,17,19,Jits_Linear_5,0,5,63,98,1860276564
82,17,19,Jits_Linear_5,1,1,48,107,1860294356
82,17,19,Jits_Linear_5,2,5,56,103,1860297240
82,17,19,Jits_Linear_5,3,5,80,127,1860316604
82,17,19,Jits_Linear_5,0,1,48,86,1860988724
82,17,19,Jits_Linear_5,1,5,80,127,1861006660
82,17,19,Jits_Linear_5,2,5,56,103,1861017232
82,17,19,Jits_Linear_5,3,5,63,98,1861037392
82,17,19,Jits_Linear_5,0,1,48,93,1861730500
82,17,19,Jits_Linear_5,1,5,63,98,1861806356
82,17,19,Jits_Linear_5,2,5,56,103,1861847404
82,17,19,Jits_Linear_5,3,5,80,127,1861877152
82,17,19,Jits_Linear_5,0,1,48,78,1862540588
82,17,19,Jits_Linear_5,1,5,56,103,1862586700
82,17,19,Jits_Linear_5,2,5,63,98,1862616476
82,17,19,Jits_Linear_5,3,5,80,127,1862647036
82,17,19,Jits_Linear_5,0,1,48,76,1863314128
82,17,19,Jits_Linear_5,1,5,80,127,1863337468
82,17,19,Jits_Linear_5,2,5,56,103,1863406952
82,17,19,Jits_Linear_5,3,5,63,98,1863410752
82,17,19,Jits_Linear_5,0,1,48,76,1864114268
82,17,19,Jits_Linear_5,1,5,56,103,1864126816
82,17,19,Jits_Linear_5,2,5,63,98,1864177268
82,17,19,Jits_Linear_5,3,5,80,127,1864206796
82,17,19,Jits_Linear_5,0,1,48,65,1864882796
82,17,19,Jits_Linear_5,1,5,63,98,1864886580
82,17,19,Jits_Linear_5,2,5,80,127,1864889868
82,17,19,Jits_Linear_5,3,5,56,103,1864947144
82,17,19,Jits_Linear_5,0,1,48,67,1865682332
82,17,19,Jits_Linear_5,1,5,56,103,1865696624
82,17,19,Jits_Linear_5,2,5,80,127,1865706972
82,17,19,Jits_Linear_5,3,5,63,98,1865757024
82,17,19,Jits_Linear_5,0,1,48,75,1866454396
82,17,19,Jits_Linear_5,1,5,63,98,1866456388
82,17,19,Jits_Linear_5,2,5,56,103,1866466732
82,17,19,Jits_Linear_5,3,5,80,127,1866497532
82,17,19,Jits_Linear_5,0,1,48,94,1867228184
82,17,19,Jits_Linear_5,1,5,63,98,1867276756
82,17,19,Jits_Linear_5,2,5,80,127,1867280044
82,17,19,Jits_Linear_5,3,5,56,103,1867307256
82,17,19,Jits_Linear_5,0,1,48,63,1868020588
82,17,19,Jits_Linear_5,1,5,63,98,1868086708
82,17,19,Jits_Linear_5,2,5,56,103,1868107164
82,17,19,Jits_Linear_5,3,5,80,127,1868110232
82,17,19,Jits_Linear_5,0,5,63,98,1868837176
82,17,19,Jits_Linear_5,1,1,48,78,1868857756
82,17,19,Jits_Linear_5,2,5,56,103,1868907004
82,17,19,Jits_Linear_5,3,5,80,127,1868927316
82,17,19,Jits_Linear_5,0,5,56,103,1869616564
82,17,19,Jits_Linear_5,1,5,63,98,1869626984
82,17,19,Jits_Linear_5,2,1,48,77,1869648684
82,17,19,Jits_Linear_5,3,5,80,127,1869717036
82,17,19,Jits_Linear_5,0,1,48,68,1870367316
82,17,19,Jits_Linear_5,1,5,56,103,1870426532
82,17,19,Jits_Linear_5,2,5,80,127,1870466384
82,17,19,Jits_Linear_5,3,5,63,98,1870476800
82,17,19,Jits_Linear_5,0,1,48,71,1871173288
82,17,19,Jits_Linear_5,1,5,56,103,1871246680
82,17,19,Jits_Linear_5,2,5,63,98,1871277464
82,17,19,Jits_Linear_5,3,5,80,127,1871307064
82,17,19,Jits_Linear_5,0,5,80,127,1872006524
82,17,19,Jits_Linear_5,1,1,48,63,1872011064
82,17,19,Jits_Linear_5,2,5,63,98,1872046384
82,17,19,Jits_Linear_5,3,5,56,103,1872067068
82,17,19,Jits_Linear_5,0,1,48,75,1872796160
82,17,19,Jits_Linear_5,1,5,56,103,1872847208
82,17,19,Jits_Linear_5,2,5,80,127,1872866644
82,17,19,Jits_Linear_5,3,5,63,98,1872887180
82,17,19,Jits_Linear_5,0,5,63,98,1873617164
82,17,19,Jits_Linear_5,1,1,48,84,1873624364
82,17,19,Jits_Linear_5,2,5,56,103,1873626404
82,17,19,Jits_Linear_5,3,5,80,127,1873687092
82,17,19,Jits_Linear_5,0,1,48,72,1874402304
82,17,19,Jits_Linear_5,1,5,56,103,1874427216
82,17,19,Jits_Linear_5,2,5,63,98,1874497048
82,17,19,Jits_Linear_5,3,5,80,127,1874517344
82,17,19,Jits_Linear_5,0,5,56,103,1875237180
82,17,19,Jits_Linear_5,1,1,48,73,1875241644
82,17,19,Jits_Linear_5,2,5,63,98,1875266852
82,17,19,Jits_Linear_5,3,5,80,127,1875307012
82,17,19,Jits_Linear_5,0,1,48,74,1876028468
82,17,19,Jits_Linear_5,1,5,63,98,1876036956
82,17,19,Jits_Linear_5,2,5,56,103,1876087088
82,17,19,Jits_Linear_5,3,5,80,127,1876097284
82,17,19,Jits_Linear_5,0,1,48,79,1876839920
82,17,19,Jits_Linear_5,1,5,56,103,1876887000
82,17,19,Jits_Linear_5,2,5,63,98,1876937056
82,17,19,Jits_Linear_5,3,5,80,127,1876947460
82,17,19,Jits_Linear_5,0,1,48,84,1877658424
82,17,19,Jits_Linear_5,1,5,56,103,1877667144
82,17,19,Jits_Linear_5,2,5,63,98,1877677416
82,17,19,Jits_Linear_5,3,5,80,127,1877757296
82,17,19,Jits_Linear_5,0,9999,9999,9999,1768915052
82,17,19,Jits_Linear_5,1,9999,9999,9999,1769394296
82,17,19,Jits_Linear_5,2,9999,9999,9999,1769874520
82,17,19,Jits_Linear_5,3,9999,9999,9999,1770354808
82,17,19,Jits_Linear_5,4,9999,9999,9999,1770835020
82,17,19,Jits_Linear_5,5,9999,9999,9999,1771324524
82,17,19,Jits_Linear_5,6,9999,9999,9999,1771814996
82,17,19,Jits_Linear_5,7,9999,9999,9999,1772304508
82,17,19,Jits_Linear_5,8,9999,9999,9999,1772794972
82,17,19,Jits_Linear_5,9,9999,9999,9999,1773284408
82,17,19,Jits_Linear_5,10,9999,9999,9999,1773784160
82,17,19,Jits_Linear_5,11,9999,9999,9999,1774284900
82,17,19,Jits_Linear_5,12,9999,9999,9999,1774784584
82,17,19,Jits_Linear_5,13,9999,9999,9999,1775284340
82,17,19,Jits_Linear_5,14,9999,9999,9999,1775785076
82,17,19,Jits_Linear_5,15,9999,9999,9999,1776294968
82,17,19,Jits_Linear_5,16,9999,9999,9999,1776804932
82,17,19,Jits_Linear_5,17,9999,9999,9999,1777314884
82,17,19,Jits_Linear_5,18,9999,9999,9999,1777824836
82,17,19,Jits_Linear_5,19,9999,9999,9999,1778334804
82,17,19,Jits_Linear_5,20,9999,9999,9999,1778855036
82,17,19,Jits_Linear_5,21,9999,9999,9999,1779374144
82,17,19,Jits_Linear_5,22,9999,9999,9999,1779894372
82,17,19,Jits_Linear_5,23,9999,9999,9999,1780414524
82,17,19,Jits_Linear_5,24,9999,9999,9999,1780934756
82,17,19,Jits_Linear_5,25,9999,9999,9999,1781464124
82,17,19,Jits_Linear_5,26,9999,9999,9999,1781994624
82,17,19,Jits_Linear_5,27,9999,9999,9999,1782525004
82,17,19,Jits_Linear_5,28,9999,9999,9999,1783054452
82,17,19,Jits_Linear_5,29,9999,9999,9999,1783584856
82,17,19,Jits_Linear_5,30,9999,9999,9999,1784124476
82,17,19,Jits_Linear_5,31,9999,9999,9999,1784664176
82,17,19,Jits_Linear_5,32,9999,9999,9999,1785204840
82,17,19,Jits_Linear_5,33,9999,9999,9999,1785744464
82,17,19,Jits_Linear_5,34,9999,9999,9999,1786284084
82,17,19,Jits_Linear_5,35,9999,9999,9999,1786835016
82,17,19,Jits_Linear_5,36,9999,9999,9999,1787384912
82,17,19,Jits_Linear_5,37,9999,9999,9999,1787934796
82,17,19,Jits_Linear_5,38,9999,9999,9999,1788484680
82,17,19,Jits_Linear_5,39,9999,9999,9999,1789034568
82,17,19,Jits_Linear_5,40,9999,9999,9999,1789594720
82,17,19,Jits_Linear_5,41,9999,9999,9999,1790154864
82,17,19,Jits_Linear_5,42,9999,9999,9999,1790714960
82,17,19,Jits_Linear_5,43,9999,9999,9999,1791275108
82,17,19,Jits_Linear_5,44,9999,9999,9999,1791844472
82,17,19,Jits_Linear_5,45,9999,9999,9999,1792414808
82,17,19,Jits_Linear_5,46,9999,9999,9999,1792984172
82,17,19,Jits_Linear_5,47,9999,9999,9999,1793554532
82,17,19,Jits_Linear_5,48,9999,9999,9999,1794124868
82,17,19,Jits_Linear_5,49,9999,9999,9999,1794694256
82,17,19,Jits_Linear_5,50,9999,9999,9999,1795274844
82,17,19,Jits_Linear_5,51,9999,9999,9999,1795854440
82,17,19,Jits_Linear_5,52,9999,9999,9999,1796435056
82,17,19,Jits_Linear_5,53,9999,9999,9999,1797014624
82,17,19,Jits_Linear_5,54,9999,9999,9999,1797594180
82,17,19,Jits_Linear_5,55,9999,9999,9999,1798185088
82,17,19,Jits_Linear_5,56,9999,9999,9999,1798774844
82,17,19,Jits_Linear_5,57,9999,9999,9999,1799364672
82,17,19,Jits_Linear_5,58,9999,9999,9999,1799954512
82,17,19,Jits_Linear_5,59,9999,9999,9999,1800544340
82,17,19,Jits_Linear_5,60,9999,9999,9999,1801144444
82,17,19,Jits_Linear_5,61,9999,9999,9999,1801744472
82,17,19,Jits_Linear_5,62,9999,9999,9999,1802344556
82,17,19,Jits_Linear_5,63,9999,9999,9999,1802944636
82,17,19,Jits_Linear_5,64,9999,9999,9999,1803544668
82,17,19,Jits_Linear_5,65,9999,9999,9999,1804154936
82,17,19,Jits_Linear_5,66,9999,9999,9999,1804764256
82,17,19,Jits_Linear_5,67,9999,9999,9999,1805374588
82,17,19,Jits_Linear_5,68,9999,9999,9999,1805984860
82,17,19,Jits_Linear_5,69,9999,9999,9999,1806594136
82,17,19,Jits_Linear_5,70,9999,9999,9999,1807214656
82,17,19,Jits_Linear_5,71,9999,9999,9999,1807834260
82,17,19,Jits_Linear_5,72,9999,9999,9999,1808454716
82,17,19,Jits_Linear_5,73,9999,9999,9999,1809074276
82,17,19,Jits_Linear_5,74,9999,9999,9999,1809694832
82,17,19,Jits_Linear_5,75,9999,9999,9999,1810324580
82,17,19,Jits_Linear_5,76,9999,9999,9999,1810954300
82,17,19,Jits_Linear_5,77,9999,9999,9999,1811584128
82,17,19,Jits_Linear_5,78,9999,9999,9999,1812214888
82,17,19,Jits_Linear_5,79,9999,9999,9999,1812844640
82,17,19,Jits_Linear_5,80,9999,9999,9999,1813484604
82,17,19,Jits_Linear_5,81,9999,9999,9999,1814124616
82,17,19,Jits_Linear_5,82,9999,9999,9999,1814764640
82,17,19,Jits_Linear_5,83,9999,9999,9999,1815404668
82,17,19,Jits_Linear_5,84,9999,9999,9999,1816044648
82,17,19,Jits_Linear_5,85,9999,9999,9999,1816694848
82,17,19,Jits_Linear_5,86,9999,9999,9999,1817344100
82,17,19,Jits_Linear_5,87,9999,9999,9999,1817994320
82,17,19,Jits_Linear_5,88,9999,9999,9999,1818644556
82,17,19,Jits_Linear_5,89,9999,9999,9999,1819294776
82,17,19,Jits_Linear_5,90,9999,9999,9999,1819954296
82,17,19,Jits_Linear_5,91,9999,9999,9999,1820614756
82,17,19,Jits_Linear_5,92,9999,9999,9999,1821274168
82,17,19,Jits_Linear_5,93,9999,9999,9999,1821934656
82,17,19,Jits_Linear_5,94,9999,9999,9999,1822594148
82,17,19,Jits_Linear_5,95,9999,9999,9999,1823264848
82,17,19,Jits_Linear_5,96,9999,9999,9999,1823934544
82,17,19,Jits_Linear_5,97,9999,9999,9999,1824604248
82,17,19,Jits_Linear_5,98,9999,9999,9999,1825275000
82,17,19,Jits_Linear_5,99,9999,9999,9999,1825944696
82,17,19,Jits_Linear_5,100,9999,9999,9999,1826624592
82,17,19,Jits_Linear_5,101,9999,9999,9999,1827304508
82,17,19,Jits_Linear_5,102,9999,9999,9999,1827984460
82,17,19,Jits_Linear_5,103,9999,9999,9999,1828664372
82,17,19,Jits_Linear_5,104,9999,9999,9999,1829344356
82,17,19,Jits_Linear_5,105,9999,9999,9999,1830034484
82,17,19,Jits_Linear_5,106,9999,9999,9999,1830724724
82,17,19,Jits_Linear_5,107,9999,9999,9999,1831414888
82,17,19,Jits_Linear_5,108,9999,9999,9999,1832105028
82,17,19,Jits_Linear_5,109,9999,9999,9999,1832794196
82,17,19,Jits_Linear_5,110,9999,9999,9999,1833494632
82,17,19,Jits_Linear_5,111,9999,9999,9999,1834195048
82,17,19,Jits_Linear_5,112,9999,9999,9999,1834894432
82,17,19,Jits_Linear_5,113,9999,9999,9999,1835594872
82,17,19,Jits_Linear_5,114,9999,9999,9999,1836294244
82,17,19,Jits_Linear_5,115,9999,9999,9999,1837004900
82,17,19,Jits_Linear_5,116,9999,9999,9999,1837714536
82,17,19,Jits_Linear_5,117,9999,9999,9999,1838424120
82,17,19,Jits_Linear_5,118,9999,9999,9999,1839134824
82,17,19,Jits_Linear_5,119,9999,9999,9999,1839844460
82,17,19,Jits_Linear_5,120,9999,9999,9999,1840564352
82,17,19,Jits_Linear_5,121,9999,9999,9999,1841284180
82,17,19,Jits_Linear_5,122,9999,9999,9999,1842005072
82,17,19,Jits_Linear_5,123,9999,9999,9999,1842724988
82,17,19,Jits_Linear_5,124,9999,9999,9999,1843444812
82,17,19,Jits_Linear_5,125,9999,9999,9999,1844174956
82,17,19,Jits_Linear_5,126,9999,9999,9999,1844905048
82,17,19,Jits_Linear_5,127,9999,9999,9999,1845634160
82,17,19,Jits_Linear_5,128,9999,9999,9999,1846364240
82,17,19,Jits_Linear_5,129,9999,9999,9999,1847094348
82,17,19,Jits_Linear_5,130,9999,9999,9999,1847834700
82,17,19,Jits_Linear_5,131,9999,9999,9999,1848575060
82,17,19,Jits_Linear_5,132,9999,9999,9999,1849314384
82,17,19,Jits_Linear_5,133,9999,9999,9999,1850054720
82,17,19,Jits_Linear_5,134,9999,9999,9999,1850795080
82,17,19,Jits_Linear_5,135,9999,9999,9999,1851554928
82,17,19,Jits_Linear_5,136,9999,9999,9999,1852304456
82,17,19,Jits_Linear_5,137,9999,9999,9999,1853055076
82,17,19,Jits_Linear_5,138,9999,9999,9999,1853804664
82,17,19,Jits_Linear_5,139,9999,9999,9999,1854554184
82,17,19,Jits_Linear_5,140,9999,9999,9999,1855315068
82,17,19,Jits_Linear_5,141,9999,9999,9999,1856074844
82,17,19,Jits_Linear_5,142,9999,9999,9999,1856834624
82,17,19,Jits_Linear_5,143,9999,9999,9999,1857594472
82,17,19,Jits_Linear_5,144,9999,9999,9999,1858354228
82,17,19,Jits_Linear_5,145,9999,9999,9999,1859124332
82,17,19,Jits_Linear_5,146,9999,9999,9999,1859894380
82,17,19,Jits_Linear_5,147,9999,9999,9999,1860664412
82,17,19,Jits_Linear_5,148,9999,9999,9999,1861434444
82,17,19,Jits_Linear_5,149,9999,9999,9999,1862204524
82,17,19,Jits_Linear_5,150,9999,9999,9999,1862984816
82,17,19,Jits_Linear_5,151,9999,9999,9999,1863765096
82,17,19,Jits_Linear_5,152,9999,9999,9999,1864544340
82,17,19,Jits_Linear_5,153,9999,9999,9999,1865324616
82,17,19,Jits_Linear_5,154,9999,9999,9999,1866104904
82,17,19,Jits_Linear_5,155,9999,9999,9999,1866894404
82,17,19,Jits_Linear_5,156,9999,9999,9999,1867684948
82,17,19,Jits_Linear_5,157,9999,9999,9999,1868474448
82,17,19,Jits_Linear_5,158,9999,9999,9999,1869265004
82,17,19,Jits_Linear_5,159,9999,9999,9999,1870054456
82,17,19,Jits_Linear_5,160,9999,9999,9999,1870854236
82,17,19,Jits_Linear_5,161,9999,9999,9999,1871654984
82,17,19,Jits_Linear_5,162,9999,9999,9999,1872454752
82,17,19,Jits_Linear_5,163,9999,9999,9999,1873254460
82,17,19,Jits_Linear_5,164,9999,9999,9999,1874054228
82,17,19,Jits_Linear_5,165,9999,9999,9999,1874864192
82,17,19,Jits_Linear_5,166,9999,9999,9999,1875674176
82,17,19,Jits_Linear_5,167,9999,9999,9999,1876484220
82,17,19,Jits_Linear_5,168,9999,9999,9999,1877294184
82,17,19,Jits_Linear_5,169,9999,9999,9999,1878104140
82,18,15,Jits_Phase_8,0,5,56,103,1887835600
82,18,15,Jits_Phase_8,1,5,63,98,1887838548
82,18,15,Jits_Phase_8,2,5,80,127,1887841892
82,18,15,Jits_Phase_8,0,1,48,39,1888448720
82,18,15,Jits_Phase_8,1,5,56,103,1888636196
82,18,15,Jits_Phase_8,2,5,63,98,1888639364
82,18,15,Jits_Phase_8,3,5,80,127,1888642564
82,18,15,Jits_Phase_8,0,5,80,127,1889375736
82,18,15,Jits_Phase_8,1,1,48,60,1889444040
82,18,15,Jits_Phase_8,2,5,63,98,1889465564
82,18,15,Jits_Phase_8,3,5,56,103,1889475908
82,18,15,Jits_Phase_8,0,5,56,103,1890195812
82,18,15,Jits_Phase_8,1,5,63,98,1890206232
82,18,15,Jits_Phase_8,2,1,48,64,1890281140
82,18,15,Jits_Phase_8,3,5,80,127,1890296380
82,18,15,Jits_Phase_8,0,5,63,98,1890965844
82,18,15,Jits_Phase_8,1,5,80,127,1890995668
82,18,15,Jits_Phase_8,2,1,48,59,1891006132
82,18,15,Jits_Phase_8,3,5,56,103,1891026528
82,18,15,Jits_Phase_8,0,1,48,67,1891706744
82,18,15,Jits_Phase_8,1,5,56,103,1891765588
82,18,15,Jits_Phase_8,2,5,80,127,1891865848
82,18,15,Jits_Phase_8,3,5,63,98,1891916120
82,18,15,Jits_Phase_8,0,5,56,103,1892566428
82,18,15,Jits_Phase_8,1,1,48,59,1892604912
82,18,15,Jits_Phase_8,2,5,80,127,1892615504
82,18,15,Jits_Phase_8,3,5,63,98,1892655440
82,18,15,Jits_Phase_8,0,5,80,127,1893395720
82,18,15,Jits_Phase_8,1,5,63,98,1893425468
82,18,15,Jits_Phase_8,2,1,48,67,1893440196
82,18,15,Jits_Phase_8,3,5,56,103,1893496112
82,18,15,Jits_Phase_8,0,5,63,98,1894226504
82,18,15,Jits_Phase_8,1,1,48,70,1894245816
82,18,15,Jits_Phase_8,2,5,56,103,1894255876
82,18,15,Jits_Phase_8,3,5,80,127,1894316564
82,18,15,Jits_Phase_8,0,5,56,103,1894965656
82,18,15,Jits_Phase_8,1,5,80,127,1894968872
82,18,15,Jits_Phase_8,2,1,48,86,1895028108
82,18,15,Jits_Phase_8,3,5,63,98,1895085520
82,18,15,Jits_Phase_8,0,1,48,67,1895804792
82,18,15,Jits_Phase_8,1,5,56,103,1895846472
82,18,15,Jits_Phase_8,2,5,80,127,1895886416
82,18,15,Jits_Phase_8,3,5,63,98,1895896412
82,18,15,Jits_Phase_8,0,5,56,103,1896605940
82,18,15,Jits_Phase_8,1,5,80,127,1896625652
82,18,15,Jits_Phase_8,2,1,48,61,1896636116
82,18,15,Jits_Phase_8,3,5,63,98,1896706360
82,18,15,Jits_Phase_8,0,5,80,127,1897395528
82,18,15,Jits_Phase_8,1,1,48,68,1897403432
82,18,15,Jits_Phase_8,2,5,56,103,1897495944
82,18,15,Jits_Phase_8,3,5,63,98,1897506272
82,18,15,Jits_Phase_8,0,5,63,98,1898165636
82,18,15,Jits_Phase_8,1,5,80,127,1898226052
82,18,15,Jits_Phase_8,2,5,56,103,1898236544
82,18,15,Jits_Phase_8,3,1,48,62,1898264464
82,18,15,Jits_Phase_8,0,5,56,103,1898966460
82,18,15,Jits_Phase_8,1,1,48,55,1898986292
82,18,15,Jits_Phase_8,2,5,63,98,1899036364
82,18,15,Jits_Phase_8,3,5,80,127,1899039804
82,18,15,Jits_Phase_8,0,1,48,60,1899765740
82,18,15,Jits_Phase_8,1,5,63,98,1899795888
82,18,15,Jits_Phase_8,2,5,56,103,1899845940
82,18,15,Jits_Phase_8,3,5,80,127,1899849376
82,18,15,Jits_Phase_8,0,1,48,78,1900539860
82,18,15,Jits_Phase_8,1,5,56,103,1900555776
82,18,15,Jits_Phase_8,2,5,80,127,1900558692
82,18,15,Jits_Phase_8,3,5,63,98,1900645816
82,18,15,Jits_Phase_8,0,1,48,61,1901330388
82,18,15,Jits_Phase_8,1,5,63,98,1901396432
82,18,15,Jits_Phase_8,2,5,56,103,1901485356
82,18,15,Jits_Phase_8,3,5,80,127,1901516148
82,18,15,Jits_Phase_8,0,5,56,103,1902185788
82,18,15,Jits_Phase_8,1,1,48,63,1902248168
82,18,15,Jits_Phase_8,2,5,63,98,1902286400
82,18,15,Jits_Phase_8,3,5,80,127,1902316028
82,18,15,Jits_Phase_8,0,5,63,98,1903006016
82,18,15,Jits_Phase_8,1,5,56,103,1903016288
82,18,15,Jits_Phase_8,2,1,48,60,1903068280
82,18,15,Jits_Phase_8,3,5,80,127,1903106436
82,18,15,Jits_Phase_8,0,5,63,98,1903826156
82,18,15,Jits_Phase_8,1,1,48,63,1903860088
82,18,15,Jits_Phase_8,2,5,56,103,1903906340
82,18,15,Jits_Phase_8,3,5,80,127,1903909480
82,18,15,Jits_Phase_8,0,5,80,127,1904586200
82,18,15,Jits_Phase_8,1,5,63,98,1904605564
82,18,15,Jits_Phase_8,2,5,56,103,1904666252
82,18,15,Jits_Phase_8,3,1,48,62,1904676564
82,18,15,Jits_Phase_8,0,5,56,103,1905425708
82,18,15,Jits_Phase_8,1,5,63,98,1905446240
82,18,15,Jits_Phase_8,2,5,80,127,1905449680
82,18,15,Jits_Phase_8,3,1,48,71,1905459324
82,18,15,Jits_Phase_8,0,5,63,98,1906166432
82,18,15,Jits_Phase_8,1,5,80,127,1906246304
82,18,15,Jits_Phase_8,2,1,48,72,1906249716
82,18,15,Jits_Phase_8,3,5,56,103,1906256268
82,18,15,Jits_Phase_8,0,5,63,98,1906986492
82,18,15,Jits_Phase_8,1,1,48,67,1907004624
82,18,15,Jits_Phase_8,2,5,56,103,1907006120
82,18,15,Jits_Phase_8,3,5,80,127,1907056172
82,18,15,Jits_Phase_8,0,1,48,69,1907768156
82,18,15,Jits_Phase_8,1,5,80,127,1907786096
82,18,15,Jits_Phase_8,2,5,63,98,1907826184
82,18,15,Jits_Phase_8,3,5,56,103,1907845596
82,18,15,Jits_Phase_8,0,1,48,76,1908545896
82,18,15,Jits_Phase_8,1,5,56,103,1908626156
82,18,15,Jits_Phase_8,2,5,63,98,1908636204
82,18,15,Jits_Phase_8,3,5,80,127,1908655380
82,18,15,Jits_Phase_8,0,5,56,103,1909355872
82,18,15,Jits_Phase_8,1,1,48,80,1909413004
82,18,15,Jits_Phase_8,2,5,63,98,1909446076
82,18,15,Jits_Phase_8,3,5,80,127,1909506340
82,18,15,Jits_Phase_8,0,5,80,127,1910186292
82,18,15,Jits_Phase_8,1,5,56,103,1910195440
82,18,15,Jits_Phase_8,2,1,48,74,1910226428
82,18,15,Jits_Phase_8,3,5,63,98,1910266332
82,18,15,Jits_Phase_8,0,1,48,70,1911007336
82,18,15,Jits_Phase_8,1,5,63,98,1911015676
82,18,15,Jits_Phase_8,2,5,80,127,1911106020
82,18,15,Jits_Phase_8,3,5,56,103,1911116288
82,18,15,Jits_Phase_8,0,5,63,98,1911746120
82,18,15,Jits_Phase_8,1,5,80,127,1911796200
82,18,15,Jits_Phase_8,2,5,56,103,1911855468
82,18,15,Jits_Phase_8,3,1,48,71,1911954100
82,18,15,Jits_Phase_8,0,5,56,103,1912566356
82,18,15,Jits_Phase_8,1,5,80,127,1912616484
82,18,15,Jits_Phase_8,2,5,63,98,1912635676
82,18,15,Jits_Phase_8,3,1,48,78,1912691152
82,18,15,Jits_Phase_8,0,5,56,103,1913336312
82,18,15,Jits_Phase_8,1,5,80,127,1913395584
82,18,15,Jits_Phase_8,2,5,63,98,1913466084
82,18,15,Jits_Phase_8,3,1,48,78,1913467496
82,18,15,Jits_Phase_8,0,5,56,103,1914146276
82,18,15,Jits_Phase_8,1,5,80,127,1914176024
82,18,15,Jits_Phase_8,2,5,63,98,1914205700
82,18,15,Jits_Phase_8,3,1,48,91,1914214444
82,18,15,Jits_Phase_8,0,1,48,79,1914952516
82,18,15,Jits_Phase_8,1,5,56,103,1914996156
82,18,15,Jits_Phase_8,2,5,80,127,1915015420
82,18,15,Jits_Phase_8,3,5,63,98,1915076240
82,18,15,Jits_Phase_8,0,1,48,83,1915769888
82,18,15,Jits_Phase_8,1,5,80,127,1915875792
82,18,15,Jits_Phase_8,2,5,56,103,1915886212
82,18,15,Jits_Phase_8,3,5,63,98,1915896108
82,18,15,Jits_Phase_8,0,5,56,103,1916635496
82,18,15,Jits_Phase_8,1,5,80,127,1916675436
82,18,15,Jits_Phase_8,2,1,48,74,1916684404
82,18,15,Jits_Phase_8,3,5,63,98,1916706152
82,18,15,Jits_Phase_8,0,5,56,103,1917405536
82,18,15,Jits_Phase_8,1,5,63,98,1917436404
82,18,15,Jits_Phase_8,2,5,80,127,1917476120
82,18,15,Jits_Phase_8,3,1,48,89,1917516248
82,18,15,Jits_Phase_8,0,5,80,127,1918156060
82,18,15,Jits_Phase_8,1,5,63,98,1918206288
82,18,15,Jits_Phase_8,2,5,56,103,1918225924
82,18,15,Jits_Phase_8,3,1,48,86,1918255940
82,18,15,Jits_Phase_8,0,5,56,103,1918985528
82,18,15,Jits_Phase_8,1,1,48,84,1919026928
82,18,15,Jits_Phase_8,2,5,80,127,1919056324
82,18,15,Jits_Phase_8,3,5,63,98,1919115516
82,18,15,Jits_Phase_8,0,5,80,127,1919786276
82,18,15,Jits_Phase_8,1,1,48,76,1919815096
82,18,15,Jits_Phase_8,2,5,63,98,1919875432
82,18,15,Jits_Phase_8,3,5,56,103,1919896188
82,18,15,Jits_Phase_8,0,1,48,90,1920552520
82,18,15,Jits_Phase_8,1,5,63,98,1920605600
82,18,15,Jits_Phase_8,2,5,56,103,1920626136
82,18,15,Jits_Phase_8,3,5,80,127,1920665908
82,18,15,Jits_Phase_8,0,1,48,83,1921334980
82,18,15,Jits_Phase_8,1,5,80,127,1921366252
82,18,15,Jits_Phase_8,2,5,63,98,1921386108
82,18,15,Jits_Phase_8,3,5,56,103,1921465888
82,18,15,Jits_Phase_8,0,5,63,98,1922155896
82,18,15,Jits_Phase_8,1,1,48,79,1922192944
82,18,15,Jits_Phase_8,2,5,56,103,1922265600
82,18,15,Jits_Phase_8,3,5,80,127,1922268888
82,18,15,Jits_Phase_8,0,5,63,98,1922976096
82,18,15,Jits_Phase_8,1,5,56,103,1922986364
82,18,15,Jits_Phase_8,2,5,80,127,1922989432
82,18,15,Jits_Phase_8,3,1,48,75,1923005520
82,18,15,Jits_Phase_8,0,5,56,103,1923756356
82,18,15,Jits_Phase_8,1,1,48,76,1923785400
82,18,15,Jits_Phase_8,2,5,80,127,1923876252
82,18,15,Jits_Phase_8,3,5,63,98,1923916100
82,18,15,Jits_Phase_8,0,1,48,80,1924566092
82,18,15,Jits_Phase_8,1,5,56,103,1924575556
82,18,15,Jits_Phase_8,2,5,80,127,1924655576
82,18,15,Jits_Phase_8,3,5,63,98,1924675872
82,18,15,Jits_Phase_8,0,5,56,103,1925376296
82,18,15,Jits_Phase_8,1,1,48,93,1925388556
82,18,15,Jits_Phase_8,2,5,63,98,1925485884
82,18,15,Jits_Phase_8,3,5,80,127,1925489172
82,18,15,Jits_Phase_8,0,1,48,84,1926152860
82,18,15,Jits_Phase_8,1,5,56,103,1926216204
82,18,15,Jits_Phase_8,2,5,80,127,1926245804
82,18,15,Jits_Phase_8,3,5,63,98,1926266248
82,18,15,Jits_Phase_8,0,1,48,76,1926978548
82,18,15,Jits_Phase_8,1,5,63,98,1927005776
82,18,15,Jits_Phase_8,2,5,56,103,1927015896
82,18,15,Jits_Phase_8,3,5,80,127,1927026016
82,18,15,Jits_Phase_8,0,1,48,85,1927741808
82,18,15,Jits_Phase_8,1,5,80,127,1927796012
82,18,15,Jits_Phase_8,2,5,56,103,1927846200
82,18,15,Jits_Phase_8,3,5,63,98,1927886136
82,18,15,Jits_Phase_8,0,1,48,91,1928564424
82,18,15,Jits_Phase_8,1,5,80,127,1928616664
82,18,15,Jits_Phase_8,2,5,63,98,1928635856
82,18,15,Jits_Phase_8,3,5,56,103,1928686064
82,18,15,Jits_Phase_8,0,1,48,75,1929387256
82,18,15,Jits_Phase_8,1,5,80,127,1929426240
82,18,15,Jits_Phase_8,2,5,56,103,1929455940
82,18,15,Jits_Phase_8,3,5,63,98,1929525976
82,18,15,Jits_Phase_8,0,1,48,90,1930239108
82,18,15,Jits_Phase_8,1,5,56,103,1930276220
82,18,15,Jits_Phase_8,2,5,80,127,1930285744
82,18,15,Jits_Phase_8,3,5,63,98,1930326428
82,18,15,Jits_Phase_8,0,5,56,103,1930985864
82,18,15,Jits_Phase_8,1,5,63,98,1931006248
82,18,15,Jits_Phase_8,2,1,48,82,1931058588
82,18,15,Jits_Phase_8,3,5,80,127,1931075996
82,18,15,Jits_Phase_8,0,5,63,98,1931806232
82,18,15,Jits_Phase_8,1,1,48,82,1931856932
82,18,15,Jits_Phase_8,2,5,80,127,1931865572
82,18,15,Jits_Phase_8,3,5,56,103,1931885956
82,18,15,Jits_Phase_8,0,5,80,127,1932595728
82,18,15,Jits_Phase_8,1,5,56,103,1932626228
82,18,15,Jits_Phase_8,2,1,48,77,1932637516
82,18,15,Jits_Phase_8,3,5,63,98,1932655968
82,18,15,Jits_Phase_8,0,5,56,103,1933396320
82,18,15,Jits_Phase_8,1,1,48,67,1933455964
82,18,15,Jits_Phase_8,2,5,63,98,1933457228
82,18,15,Jits_Phase_8,3,5,80,127,1933516196
82,18,15,Jits_Phase_8,0,5,80,127,1934215720
82,18,15,Jits_Phase_8,1,5,56,103,1934235884
82,18,15,Jits_Phase_8,2,1,48,74,1934238928
82,18,15,Jits_Phase_8,3,5,63,98,1934305580
82,18,15,Jits_Phase_8,0,5,80,127,1935016320
82,18,15,Jits_Phase_8,1,5,63,98,1935035956
82,18,15,Jits_Phase_8,2,5,56,103,1935065728
82,18,15,Jits_Phase_8,3,1,48,56,1935081352
82,18,15,Jits_Phase_8,0,5,80,127,1935805828
82,18,15,Jits_Phase_8,1,5,63,98,1935826508
82,18,15,Jits_Phase_8,2,1,48,66,1935870556
82,18,15,Jits_Phase_8,3,5,56,103,1935885572
82,18,15,Jits_Phase_8,0,5,80,127,1936605696
82,18,15,Jits_Phase_8,1,1,48,47,1936695124
82,18,15,Jits_Phase_8,2,5,56,103,1936705788
82,18,15,Jits_Phase_8,3,5,63,98,1936735536
82,18,15,Jits_Phase_8,0,5,63,98,1937396108
82,18,15,Jits_Phase_8,1,5,80,127,1937446236
82,18,15,Jits_Phase_8,2,5,56,103,1937465648
82,18,15,Jits_Phase_8,3,1,48,68,1937508092
82,18,15,Jits_Phase_8,0,5,80,127,1938235872
82,18,15,Jits_Phase_8,1,1,48,63,1938247384
82,18,15,Jits_Phase_8,2,5,56,103,1938265612
82,18,15,Jits_Phase_8,3,5,63,98,1938268604
82,18,15,Jits_Phase_8,0,1,48,80,1939012368
82,18,15,Jits_Phase_8,1,5,63,98,1939085608
82,18,15,Jits_Phase_8,2,5,56,103,1939125604
82,18,15,Jits_Phase_8,3,5,80,127,1939146136
82,18,15,Jits_Phase_8,0,1,48,22,1939803608
82,18,15,Jits_Phase_8,1,5,80,127,1939845660
82,18,15,Jits_Phase_8,2,1,48,27,1939863980
82,18,15,Jits_Phase_8,3,5,63,98,1939926580
82,18,15,Jits_Phase_8,4,5,56,103,1939966504
82,18,15,Jits_Phase_8,0,5,63,98,1940665840
82,18,15,Jits_Phase_8,1,1,48,71,1940713868
82,18,15,Jits_Phase_8,2,5,80,127,1940745728
82,18,15,Jits_Phase_8,3,5,56,103,1940766040
82,18,15,Jits_Phase_8,0,5,56,103,1941506612
82,18,15,Jits_Phase_8,1,1,48,73,1941511228
82,18,15,Jits_Phase_8,2,5,63,98,1941515532
82,18,15,Jits_Phase_8,3,5,80,127,1941555544
82,18,15,Jits_Phase_8,0,5,56,103,1942226492
82,18,15,Jits_Phase_8,1,5,80,127,1942229436
82,18,15,Jits_Phase_8,2,1,48,88,1942280652
82,18,15,Jits_Phase_8,3,5,63,98,1942365712
82,18,15,Jits_Phase_8,0,5,56,103,1943015792
82,18,15,Jits_Phase_8,1,1,48,81,1943078768
82,18,15,Jits_Phase_8,2,5,63,98,1943105772
82,18,15,Jits_Phase_8,3,5,80,127,1943175660
82,18,15,Jits_Phase_8,0,1,48,86,1943883028
82,18,15,Jits_Phase_8,1,5,63,98,1943896472
82,18,15,Jits_Phase_8,2,5,80,127,1943899836
82,18,15,Jits_Phase_8,3,5,56,103,1943955964
82,18,15,Jits_Phase_8,0,1,48,64,1944666316
82,18,15,Jits_Phase_8,1,5,80,127,1944736092
82,18,15,Jits_Phase_8,2,5,56,103,1944755580
82,18,15,Jits_Phase_8,3,5,63,98,1944765760
82,18,15,Jits_Phase_8,0,5,56,103,1945445736
82,18,15,Jits_Phase_8,1,5,63,98,1945455932
82,18,15,Jits_Phase_8,2,1,48,83,1945493500
82,18,15,Jits_Phase_8,3,5,80,127,1945525752
82,18,15,Jits_Phase_8,0,1,48,62,1946240744
82,18,15,Jits_Phase_8,1,5,80,127,1946245500
82,18,15,Jits_Phase_8,2,5,56,103,1946295552
82,18,15,Jits_Phase_8,3,5,63,98,1946345836
82,18,15,Jits_Phase_8,0,1,48,81,1947005744
82,18,15,Jits_Phase_8,1,5,56,103,1947126328
82,18,15,Jits_Phase_8,2,5,63,98,1947136528
82,18,15,Jits_Phase_8,3,5,80,127,1947176388
82,18,15,Jits_Phase_8,0,5,56,103,1947865508
82,18,15,Jits_Phase_8,1,1,48,84,1947889752
82,18,15,Jits_Phase_8,2,5,63,98,1947906412
82,18,15,Jits_Phase_8,3,5,80,127,1947955716
82,18,15,Jits_Phase_8,0,5,80,127,1948626368
82,18,15,Jits_Phase_8,1,1,48,70,1948671292
82,18,15,Jits_Phase_8,2,5,56,103,1948675520
82,18,15,Jits_Phase_8,3,5,63,98,1948695904
82,18,15,Jits_Phase_8,0,1,48,53,1949432464
82,18,15,Jits_Phase_8,1,5,80,127,1949436396
82,18,15,Jits_Phase_8,2,5,63,98,1949495592
82,18,15,Jits_Phase_8,3,5,56,103,1949575520
82,18,15,Jits_Phase_8,0,5,80,127,1950215412
82,18,15,Jits_Phase_8,1,5,56,103,1950255428
82,18,15,Jits_Phase_8,2,5,63,98,1950275812
82,18,15,Jits_Phase_8,3,1,48,76,1950294664
82,18,15,Jits_Phase_8,0,1,48,52,1951038520
82,18,15,Jits_Phase_8,1,5,56,103,1951065444
82,18,15,Jits_Phase_8,2,5,80,127,1951075792
82,18,15,Jits_Phase_8,3,5,63,98,1951115728
82,18,15,Jits_Phase_8,0,1,48,84,1951882848
82,18,15,Jits_Phase_8,1,5,56,103,1951935928
82,18,15,Jits_Phase_8,2,5,63,98,1951975648
82,18,15,Jits_Phase_8,3,5,80,127,1951978940
82,18,15,Jits_Phase_8,0,5,63,98,1952605556
82,18,15,Jits_Phase_8,1,5,80,127,1952645424
82,18,15,Jits_Phase_8,2,5,56,103,1952716372
82,18,15,Jits_Phase_8,3,1,48,66,1952732248
82,18,15,Jits_Phase_8,0,5,63,98,1953375576
82,18,15,Jits_Phase_8,1,5,56,103,1953455372
82,18,15,Jits_Phase_8,2,1,48,75,1953480736
82,18,15,Jits_Phase_8,3,5,80,127,1953515928
82,18,15,Jits_Phase_8,0,5,80,127,1954185596
82,18,15,Jits_Phase_8,1,1,48,66,1954219056
82,18,15,Jits_Phase_8,2,5,63,98,1954235716
82,18,15,Jits_Phase_8,3,5,56,103,1954265340
82,18,15,Jits_Phase_8,4,1,48,37,1954359008
82,18,15,Jits_Phase_8,0,5,56,103,1954976328
82,18,15,Jits_Phase_8,1,5,63,98,1955026380
82,18,15,Jits_Phase_8,2,5,80,127,1955035456
82,18,15,Jits_Phase_8,3,1,48,70,1955053320
82,18,15,Jits_Phase_8,0,5,56,103,1955786332
82,18,15,Jits_Phase_8,1,1,48,70,1955831128
82,18,15,Jits_Phase_8,2,5,63,98,1955895520
82,18,15,Jits_Phase_8,3,5,80,127,1955916276
82,18,15,Jits_Phase_8,0,5,63,98,1956586060
82,18,15,Jits_Phase_8,1,1,48,65,1956631500
82,18,15,Jits_Phase_8,2,5,80,127,1956636180
82,18,15,Jits_Phase_8,3,5,56,103,1956726372
82,18,15,Jits_Phase_8,0,5,63,98,1957376528
82,18,15,Jits_Phase_8,1,5,80,127,1957406352
82,18,15,Jits_Phase_8,2,1,48,46,1957439360
82,18,15,Jits_Phase_8,3,5,56,103,1957496104
82,18,15,Jits_Phase_8,0,5,63,98,1958176208
82,18,15,Jits_Phase_8,1,5,56,103,1958186328
82,18,15,Jits_Phase_8,2,1,48,68,1958257620
82,18,15,Jits_Phase_8,3,5,80,127,1958285668
82,18,15,Jits_Phase_8,0,1,48,89,1958995036
82,18,15,Jits_Phase_8,1,5,63,98,1959076272
82,18,15,Jits_Phase_8,2,5,80,127,1959106084
82,18,15,Jits_Phase_8,3,5,56,103,1959135636
82,18,15,Jits_Phase_8,0,1,48,75,1959791268
82,18,15,Jits_Phase_8,1,5,80,127,1959896428
82,18,15,Jits_Phase_8,2,5,63,98,1959905656
82,18,15,Jits_Phase_8,3,5,56,103,1959936376
82,18,15,Jits_Phase_8,0,5,80,127,1960595800
82,18,15,Jits_Phase_8,1,5,63,98,1960616260
82,18,15,Jits_Phase_8,2,5,56,103,1960665436
82,18,15,Jits_Phase_8,3,1,48,85,1960694552
82,18,15,Jits_Phase_8,0,5,63,98,1961426532
82,18,15,Jits_Phase_8,1,1,48,75,1961461116
82,18,15,Jits_Phase_8,2,5,80,127,1961485796
82,18,15,Jits_Phase_8,3,5,56,103,1961506108
82,18,15,Jits_Phase_8,0,5,63,98,1962185968
82,18,15,Jits_Phase_8,1,5,56,103,1962236192
82,18,15,Jits_Phase_8,2,5,80,127,1962245344
82,18,15,Jits_Phase_8,3,1,48,94,1962264872
82,18,15,Jits_Phase_8,0,5,56,103,1963015416
82,18,15,Jits_Phase_8,1,5,80,127,1963026132
82,18,15,Jits_Phase_8,2,1,48,98,1963039140
82,18,15,Jits_Phase_8,3,5,63,98,1963126072
82,18,15,Jits_Phase_8,0,5,80,127,1963776452
82,18,15,Jits_Phase_8,1,5,63,98,1963785524
82,18,15,Jits_Phase_8,2,1,48,92,1963841376
82,18,15,Jits_Phase_8,3,5,56,103,1963936104
82,18,15,Jits_Phase_8,0,5,63,98,1964586336
82,18,15,Jits_Phase_8,1,5,80,127,1964626200
82,18,15,Jits_Phase_8,2,1,48,77,1964681308
82,18,15,Jits_Phase_8,3,5,56,103,1964706212
82,18,15,Jits_Phase_8,0,5,56,103,1965336044
82,18,15,Jits_Phase_8,1,5,80,127,1965436148
82,18,15,Jits_Phase_8,2,5,63,98,1965455856
82,18,15,Jits_Phase_8,3,1,48,69,1965458604
82,18,15,Jits_Phase_8,0,5,80,127,1966156348
82,18,15,Jits_Phase_8,1,5,56,103,1966166544
82,18,15,Jits_Phase_8,2,1,48,83,1966191456
82,18,15,Jits_Phase_8,3,5,63,98,1966255620
82,18,15,Jits_Phase_8,0,5,56,103,1966955976
82,18,15,Jits_Phase_8,1,1,48,77,1966975228
82,18,15,Jits_Phase_8,2,5,63,98,1966976872
82,18,15,Jits_Phase_8,3,5,80,127,1967056368
82,18,15,Jits_Phase_8,0,5,63,98,1967705404
82,18,15,Jits_Phase_8,1,1,48,77,1967738412
82,18,15,Jits_Phase_8,2,5,56,103,1967795528
82,18,15,Jits_Phase_8,3,5,80,127,1967798668
82,18,15,Jits_Phase_8,0,1,48,85,1968536092
82,18,15,Jits_Phase_8,1,5,56,103,1968537656
82,18,15,Jits_Phase_8,2,5,80,127,1968596276
82,18,15,Jits_Phase_8,3,5,63,98,1968605500
82,18,15,Jits_Phase_8,0,1,48,70,1969317312
82,18,15,Jits_Phase_8,1,5,80,127,1969385992
82,18,15,Jits_Phase_8,2,5,56,103,1969396112
82,18,15,Jits_Phase_8,3,5,63,98,1969399176
82,18,15,Jits_Phase_8,0,5,56,103,1970145592
82,18,15,Jits_Phase_8,1,5,80,127,1970155936
82,18,15,Jits_Phase_8,2,1,48,67,1970166852
82,18,15,Jits_Phase_8,3,5,63,98,1970176464
82,18,15,Jits_Phase_8,0,5,63,98,1970915992
82,18,15,Jits_Phase_8,1,1,48,56,1970948928
82,18,15,Jits_Phase_8,2,5,80,127,1970976080
82,18,15,Jits_Phase_8,3,5,56,103,1971026208
82,18,15,Jits_Phase_8,0,1,48,67,1971744196
82,18,15,Jits_Phase_8,1,5,63,98,1971796212
82,18,15,Jits_Phase_8,2,5,56,103,1971805436
82,18,15,Jits_Phase_8,3,5,80,127,1971855992
82,18,15,Jits_Phase_8,0,5,63,98,1972495880
82,18,15,Jits_Phase_8,1,5,80,127,1972516264
82,18,15,Jits_Phase_8,2,5,56,103,1972525412
82,18,15,Jits_Phase_8,3,1,48,71,1972557300
82,18,15,Jits_Phase_8,0,5,63,98,1973295780
82,18,15,Jits_Phase_8,1,5,80,127,1973298912
82,18,15,Jits_Phase_8,2,5,56,103,1973336384
82,18,15,Jits_Phase_8,3,1,48,59,1973348340
82,18,15,Jits_Phase_8,0,1,48,47,1974090528
82,18,15,Jits_Phase_8,1,5,63,98,1974165936
82,18,15,Jits_Phase_8,2,5,80,127,1974195524
82,18,15,Jits_Phase_8,3,5,56,103,1974205868
82,18,15,Jits_Phase_8,0,5,56,103,1974915432
82,18,15,Jits_Phase_8,1,5,80,127,1974946152
82,18,15,Jits_Phase_8,2,1,48,61,1974960580
82,18,15,Jits_Phase_8,3,5,63,98,1974975824
82,18,15,Jits_Phase_8,0,1,48,64,1975760040
82,18,15,Jits_Phase_8,1,5,63,98,1975815760
82,18,15,Jits_Phase_8,2,5,56,103,1975855400
82,18,15,Jits_Phase_8,3,5,80,127,1975859276
82,18,15,Jits_Phase_8,0,5,80,127,1976515856
82,18,15,Jits_Phase_8,1,5,56,103,1976595752
82,18,15,Jits_Phase_8,2,5,63,98,1976645952
82,18,15,Jits_Phase_8,3,1,48,70,1976651988
82,18,15,Jits_Phase_8,0,5,80,127,1977296224
82,18,15,Jits_Phase_8,1,5,56,103,1977315956
82,18,15,Jits_Phase_8,2,5,63,98,1977405868
82,18,15,Jits_Phase_8,3,1,48,76,1977424124
82,18,15,Jits_Phase_8,0,5,80,127,1978135876
82,18,15,Jits_Phase_8,1,5,63,98,1978175816
82,18,15,Jits_Phase_8,2,1,48,66,1978190540
82,18,15,Jits_Phase_8,3,5,56,103,1978215748
82,18,15,Jits_Phase_8,0,5,63,98,1978945836
82,18,15,Jits_Phase_8,1,5,80,127,1979006224
82,18,15,Jits_Phase_8,2,1,48,84,1979012928
82,18,15,Jits_Phase_8,3,5,56,103,1979035968
82,18,15,Jits_Phase_8,0,5,56,103,1979785592
82,18,15,Jits_Phase_8,1,1,48,79,1979792372
82,18,15,Jits_Phase_8,2,5,80,127,1979816236
82,18,15,Jits_Phase_8,3,5,63,98,1979906376
82,18,15,Jits_Phase_8,0,5,56,103,1980595704
82,18,15,Jits_Phase_8,1,1,48,63,1980661624
82,18,15,Jits_Phase_8,2,5,80,127,1980706236
82,18,15,Jits_Phase_8,3,5,63,98,1980735764
82,18,15,Jits_Phase_8,0,5,56,103,1981445708
82,18,15,Jits_Phase_8,1,1,48,70,1981466064
82,18,15,Jits_Phase_8,2,5,63,98,1981506092
82,18,15,Jits_Phase_8,3,5,80,127,1981535544
82,18,15,Jits_Phase_8,0,5,56,103,1982215668
82,18,15,Jits_Phase_8,1,5,63,98,1982286320
82,18,15,Jits_Phase_8,2,5,80,127,1982305808
82,18,15,Jits_Phase_8,3,1,48,80,1982310272
82,18,15,Jits_Phase_8,0,5,80,127,1982985628
82,18,15,Jits_Phase_8,1,5,63,98,1983006012
82,18,15,Jits_Phase_8,2,5,56,103,1983056136
82,18,15,Jits_Phase_8,3,1,48,67,1983113180
82,18,15,Jits_Phase_8,0,5,63,98,1983805700
82,18,15,Jits_Phase_8,1,5,80,127,1983816192
82,18,15,Jits_Phase_8,2,5,56,103,1983866172
82,18,15,Jits_Phase_8,3,1,48,78,1983942544
82,18,15,Jits_Phase_8,0,5,63,98,1984605528
82,18,15,Jits_Phase_8,1,5,80,127,1984676112
82,18,15,Jits_Phase_8,2,5,56,103,1984695744
82,18,15,Jits_Phase_8,3,1,48,65,1984739344
82,18,15,Jits_Phase_8,0,5,63,98,1985436008
82,18,15,Jits_Phase_8,1,5,80,127,1985439444
82,18,15,Jits_Phase_8,2,5,56,103,1985505712
82,18,15,Jits_Phase_8,3,1,48,76,1985506600
82,18,15,Jits_Phase_8,0,5,80,127,1986185708
82,18,15,Jits_Phase_8,1,5,56,103,1986205944
82,18,15,Jits_Phase_8,2,5,63,98,1986216588
82,18,15,Jits_Phase_8,3,1,48,67,1986328428
82,18,15,Jits_Phase_8,0,5,56,103,1987005780
82,18,15,Jits_Phase_8,1,1,48,64,1987056052
82,18,15,Jits_Phase_8,2,5,63,98,1987095856
82,18,15,Jits_Phase_8,3,5,80,127,1987099144
82,18,15,Jits_Phase_8,0,5,80,127,1987775804
82,18,15,Jits_Phase_8,1,5,56,103,1987786072
82,18,15,Jits_Phase_8,2,5,63,98,1987805508
82,18,15,Jits_Phase_8,3,1,48,78,1987873044
82,18,15,Jits_Phase_8,0,5,63,98,1988575816
82,18,15,Jits_Phase_8,1,1,48,85,1988634616
82,18,15,Jits_Phase_8,2,5,80,127,1988636424
82,18,15,Jits_Phase_8,3,5,56,103,1988646248
82,18,15,Jits_Phase_8,0,1,48,85,1989421684
82,18,15,Jits_Phase_8,1,5,63,98,1989445992
82,18,15,Jits_Phase_8,2,5,80,127,1989475820
82,18,15,Jits_Phase_8,3,5,56,103,1989515608
82,18,15,Jits_Phase_8,0,5,56,103,1990235500
82,18,15,Jits_Phase_8,1,5,80,127,1990245768
82,18,15,Jits_Phase_8,2,1,48,95,1990261468
82,18,15,Jits_Phase_8,3,5,63,98,1990285552
82,18,15,Jits_Phase_8,0,5,80,127,1990996388
82,18,15,Jits_Phase_8,1,1,48,88,1991047084
82,18,15,Jits_Phase_8,2,5,56,103,1991076180
82,18,15,Jits_Phase_8,3,5,63,98,1991085628
82,18,15,Jits_Phase_8,0,1,48,70,1991833132
82,18,15,Jits_Phase_8,1,5,80,127,1991846504
82,18,15,Jits_Phase_8,2,5,56,103,1991926032
82,18,15,Jits_Phase_8,3,5,63,98,1991936508
82,18,15,Jits_Phase_8,0,1,48,73,1992626252
82,18,15,Jits_Phase_8,1,5,80,127,1992685936
82,18,15,Jits_Phase_8,2,5,56,103,1992736420
82,18,15,Jits_Phase_8,3,5,63,98,1992786696
82,18,15,Jits_Phase_8,0,1,48,71,1993475176
82,18,15,Jits_Phase_8,1,5,56,103,1993625996
82,18,15,Jits_Phase_8,2,5,63,98,1993629064
82,18,15,Jits_Phase_8,3,5,80,127,1993676344
82,18,15,Jits_Phase_8,0,5,56,103,1994446380
82,18,15,Jits_Phase_8,1,1,48,74,1994465540
82,18,15,Jits_Phase_8,2,5,63,98,1994475972
82,18,15,Jits_Phase_8,3,5,80,127,1994486540
82,18,15,Jits_Phase_8,0,5,63,98,1995155780
82,18,15,Jits_Phase_8,1,5,56,103,1995225412
82,18,15,Jits_Phase_8,2,5,80,127,1995275612
82,18,15,Jits_Phase_8,3,1,48,94,1995333872
82,18,15,Jits_Phase_8,0,5,63,98,1995986504
82,18,15,Jits_Phase_8,1,5,56,103,1995995504
82,18,15,Jits_Phase_8,2,5,80,127,1995998568
82,18,15,Jits_Phase_8,3,1,48,85,1996093988
82,18,15,Jits_Phase_8,0,5,80,127,1996735732
82,18,15,Jits_Phase_8,1,5,56,103,1996796444
82,18,15,Jits_Phase_8,2,1,48,86,1996851400
82,18,15,Jits_Phase_8,3,5,63,98,1996886344
82,18,15,Jits_Phase_8,0,5,80,127,1997535532
82,18,15,Jits_Phase_8,1,1,48,83,1997619708
82,18,15,Jits_Phase_8,2,5,56,103,1997635920
82,18,15,Jits_Phase_8,3,5,63,98,1997676008
82,18,15,Jits_Phase_8,0,5,56,103,1998385504
82,18,15,Jits_Phase_8,1,5,63,98,1998405888
82,18,15,Jits_Phase_8,2,1,48,78,1998425196
82,18,15,Jits_Phase_8,3,5,80,127,1998446040
82,18,15,Jits_Phase_8,0,5,63,98,1999155532
82,18,15,Jits_Phase_8,1,5,56,103,1999175916
82,18,15,Jits_Phase_8,2,1,48,65,1999201580
82,18,15,Jits_Phase_8,3,5,80,127,1999276524
82,18,15,Jits_Phase_8,0,5,63,98,1999946148
82,18,15,Jits_Phase_8,1,1,48,86,1999983120
82,18,15,Jits_Phase_8,2,5,80,127,2000055532
82,18,15,Jits_Phase_8,3,5,56,103,2000086412
82,18,15,Jits_Phase_8,0,5,56,103,2000766288
82,18,15,Jits_Phase_8,1,5,63,98,2000796260
82,18,15,Jits_Phase_8,2,1,48,70,2000802296
82,18,15,Jits_Phase_8,3,5,80,127,2000846232
82,18,15,Jits_Phase_8,0,5,63,98,2001536364
82,18,15,Jits_Phase_8,1,5,56,103,2001566264
82,18,15,Jits_Phase_8,2,1,48,47,2001567156
82,18,15,Jits_Phase_8,3,5,80,127,2001616408
82,18,15,Jits_Phase_8,0,1,48,77,2002315332
82,18,15,Jits_Phase_8,1,5,56,103,2002365780
82,18,15,Jits_Phase_8,2,5,63,98,2002386340
82,18,15,Jits_Phase_8,3,5,80,127,2002466264
82,18,15,Jits_Phase_8,0,5,63,98,2003136024
82,18,15,Jits_Phase_8,1,1,48,67,2003153316
82,18,15,Jits_Phase_8,2,5,56,103,2003196432
82,18,15,Jits_Phase_8,3,5,80,127,2003226180
82,18,15,Jits_Phase_8,0,1,48,75,2003942276
82,18,15,Jits_Phase_8,1,5,56,103,2003975432
82,18,15,Jits_Phase_8,2,5,80,127,2004035896
82,18,15,Jits_Phase_8,3,5,63,98,2004075820
82,18,15,Jits_Phase_8,0,1,48,63,2004749688
82,18,15,Jits_Phase_8,1,5,63,98,2004755712
82,18,15,Jits_Phase_8,2,5,56,103,2004816328
82,18,15,Jits_Phase_8,3,5,80,127,2004885768
82,18,15,Jits_Phase_8,0,1,48,76,2005622268
82,18,15,Jits_Phase_8,1,5,56,103,2005635416
82,18,15,Jits_Phase_8,2,5,63,98,2005645612
82,18,15,Jits_Phase_8,3,5,80,127,2005649124
82,18,15,Jits_Phase_8,0,5,63,98,2006375912
82,18,15,Jits_Phase_8,1,5,56,103,2006436300
82,18,15,Jits_Phase_8,2,5,80,127,2006439216
82,18,15,Jits_Phase_8,3,1,48,83,2006462184
82,18,15,Jits_Phase_8,0,5,63,98,2007156180
82,18,15,Jits_Phase_8,1,5,80,127,2007185708
82,18,15,Jits_Phase_8,2,5,56,103,2007206240
82,18,15,Jits_Phase_8,3,1,48,56,2007239396
82,18,15,Jits_Phase_8,0,5,56,103,2007886332
82,18,15,Jits_Phase_8,1,5,63,98,2007936460
82,18,15,Jits_Phase_8,2,5,80,127,2008016276
82,18,15,Jits_Phase_8,3,1,48,49,2008024200
82,18,15,Jits_Phase_8,0,5,80,127,2008585652
82,18,15,Jits_Phase_8,1,5,63,98,2008625516
82,18,15,Jits_Phase_8,2,5,56,103,2008645972
82,18,15,Jits_Phase_8,3,1,48,60,2008739508
82,18,15,Jits_Phase_8,0,1,48,69,2009418124
82,18,15,Jits_Phase_8,1,5,56,103,2009456208
82,18,15,Jits_Phase_8,2,5,80,127,2009466256
82,18,15,Jits_Phase_8,3,5,63,98,2009485596
82,18,15,Jits_Phase_8,0,1,48,63,2010217512
82,18,15,Jits_Phase_8,1,5,56,103,2010236264
82,18,15,Jits_Phase_8,2,5,63,98,2010285420
82,18,15,Jits_Phase_8,3,5,80,127,2010316276
82,18,15,Jits_Phase_8,0,5,56,103,2010985984
82,18,15,Jits_Phase_8,1,5,63,98,2010996032
82,18,15,Jits_Phase_8,2,1,48,60,2011041472
82,18,15,Jits_Phase_8,3,5,80,127,2011046300
82,18,15,Jits_Phase_8,0,5,56,103,2011776460
82,18,15,Jits_Phase_8,1,5,80,127,2011779524
82,18,15,Jits_Phase_8,2,1,48,66,2011823336
82,18,15,Jits_Phase_8,3,5,63,98,2011936040
82,18,15,Jits_Phase_8,0,5,63,98,2012595628
82,18,15,Jits_Phase_8,1,1,48,66,2012665704
82,18,15,Jits_Phase_8,2,5,56,103,2012667272
82,18,15,Jits_Phase_8,3,5,80,127,2012706160
82,18,15,Jits_Phase_8,0,5,63,98,2013436244
82,18,15,Jits_Phase_8,1,1,48,60,2013458316
82,18,15,Jits_Phase_8,2,5,56,103,2013526444
82,18,15,Jits_Phase_8,3,5,80,127,2013529656
82,18,15,Jits_Phase_8,0,5,56,103,2014215468
82,18,15,Jits_Phase_8,1,5,63,98,2014305532
82,18,15,Jits_Phase_8,2,1,48,64,2014312760
82,18,15,Jits_Phase_8,3,5,80,127,2014316092
82,18,15,Jits_Phase_8,0,5,56,103,2014985576
82,18,15,Jits_Phase_8,1,5,63,98,2015035928
82,18,15,Jits_Phase_8,2,5,80,127,2015065528
82,18,15,Jits_Phase_8,3,1,48,83,2015095392
82,18,15,Jits_Phase_8,0,1,48,91,2015866116
82,18,15,Jits_Phase_8,1,5,63,98,2015867824
82,18,15,Jits_Phase_8,2,5,80,127,2015875408
82,18,15,Jits_Phase_8,3,5,56,103,2015936016
82,18,15,Jits_Phase_8,0,5,63,98,2016586160
82,18,15,Jits_Phase_8,1,5,80,127,2016645428
82,18,15,Jits_Phase_8,2,5,56,103,2016685368
82,18,15,Jits_Phase_8,3,1,48,88,2016720864
82,18,15,Jits_Phase_8,0,5,56,103,2017486088
82,18,15,Jits_Phase_8,1,1,48,69,2017489676
82,18,15,Jits_Phase_8,2,5,80,127,2017505592
82,18,15,Jits_Phase_8,3,5,63,98,2017526124
82,18,15,Jits_Phase_8,0,5,63,98,2018205996
82,18,15,Jits_Phase_8,1,5,56,103,2018225632
82,18,15,Jits_Phase_8,2,5,80,127,2018265596
82,18,15,Jits_Phase_8,3,1,48,83,2018307596
82,18,15,Jits_Phase_8,0,5,63,98,2019016016
82,18,15,Jits_Phase_8,1,1,48,67,2019040288
82,18,15,Jits_Phase_8,2,5,80,127,2019045936
82,18,15,Jits_Phase_8,3,5,56,103,2019066168
82,18,15,Jits_Phase_8,0,5,80,127,2019786100
82,18,15,Jits_Phase_8,1,1,48,85,2019797192
82,18,15,Jits_Phase_8,2,5,56,103,2019836172
82,18,15,Jits_Phase_8,3,5,63,98,2019895952
82,18,15,Jits_Phase_8,0,5,63,98,2020575712
82,18,15,Jits_Phase_8,1,1,48,66,2020608276
82,18,15,Jits_Phase_8,2,5,56,103,2020696552
82,18,15,Jits_Phase_8,3,5,80,127,2020726064
82,18,15,Jits_Phase_8,0,5,80,127,2021416304
82,18,15,Jits_Phase_8,1,1,48,54,2021418020
82,18,15,Jits_Phase_8,2,5,63,98,2021435860
82,18,15,Jits_Phase_8,3,5,56,103,2021506584
82,18,15,Jits_Phase_8,0,5,63,98,2022235408
82,18,15,Jits_Phase_8,1,1,48,77,2022240992
82,18,15,Jits_Phase_8,2,5,56,103,2022245824
82,18,15,Jits_Phase_8,3,5,80,127,2022325764
82,18,15,Jits_Phase_8,0,1,48,81,2023036940
82,18,15,Jits_Phase_8,1,5,56,103,2023095848
82,18,15,Jits_Phase_8,2,5,80,127,2023126372
82,18,15,Jits_Phase_8,3,5,63,98,2023135732
82,18,15,Jits_Phase_8,0,9999,9999,9999,1888233560
82,18,15,Jits_Phase_8,1,9999,9999,9999,1889033332
82,18,15,Jits_Phase_8,2,9999,9999,9999,1889834056
82,18,15,Jits_Phase_8,3,9999,9999,9999,1890633832
82,18,15,Jits_Phase_8,4,9999,9999,9999,1891433528
82,18,15,Jits_Phase_8,5,9999,9999,9999,1892233288
82,18,15,Jits_Phase_8,6,9999,9999,9999,1893034092
82,18,15,Jits_Phase_8,7,9999,9999,9999,1893833788
82,18,15,Jits_Phase_8,8,9999,9999,9999,1894633592
82,18,15,Jits_Phase_8,9,9999,9999,9999,1895433336
82,18,15,Jits_Phase_8,10,9999,9999,9999,1896234088
82,18,15,Jits_Phase_8,11,9999,9999,9999,1897033848
82,18,15,Jits_Phase_8,12,9999,9999,9999,1897833552
82,18,15,Jits_Phase_8,13,9999,9999,9999,1898633320
82,18,15,Jits_Phase_8,14,9999,9999,9999,1899434044
82,18,15,Jits_Phase_8,15,9999,9999,9999,1900233804
82,18,15,Jits_Phase_8,16,9999,9999,9999,1901033572
82,18,15,Jits_Phase_8,17,9999,9999,9999,1901833340
82,18,15,Jits_Phase_8,18,9999,9999,9999,1902634076
82,18,15,Jits_Phase_8,19,9999,9999,9999,1903433848
82,18,15,Jits_Phase_8,20,9999,9999,9999,1904233532
82,18,15,Jits_Phase_8,21,9999,9999,9999,1905033288
82,18,15,Jits_Phase_8,22,9999,9999,9999,1905834100
82,18,15,Jits_Phase_8,23,9999,9999,9999,1906633800
82,18,15,Jits_Phase_8,24,9999,9999,9999,1907433580
82,18,15,Jits_Phase_8,25,9999,9999,9999,1908233336
82,18,15,Jits_Phase_8,26,9999,9999,9999,1909034068
82,18,15,Jits_Phase_8,27,9999,9999,9999,1909833828
82,18,15,Jits_Phase_8,28,9999,9999,9999,1910633600
82,18,15,Jits_Phase_8,29,9999,9999,9999,1911433308
82,18,15,Jits_Phase_8,30,9999,9999,9999,1912213584
82,18,15,Jits_Phase_8,31,9999,9999,9999,1913013344
82,18,15,Jits_Phase_8,32,9999,9999,9999,1913814116
82,18,15,Jits_Phase_8,33,9999,9999,9999,1914624072
82,18,15,Jits_Phase_8,34,9999,9999,9999,1915434108
82,18,15,Jits_Phase_8,35,9999,9999,9999,1916233800
82,18,15,Jits_Phase_8,36,9999,9999,9999,1917033564
82,18,15,Jits_Phase_8,37,9999,9999,9999,1917833340
82,18,15,Jits_Phase_8,38,9999,9999,9999,1918634084
82,18,15,Jits_Phase_8,39,9999,9999,9999,1919433788
82,18,15,Jits_Phase_8,40,9999,9999,9999,1920233588
82,18,15,Jits_Phase_8,41,9999,9999,9999,1921033292
82,18,15,Jits_Phase_8,42,9999,9999,9999,1921834092
82,18,15,Jits_Phase_8,43,9999,9999,9999,1922633840
82,18,15,Jits_Phase_8,44,9999,9999,9999,1923433580
82,18,15,Jits_Phase_8,45,9999,9999,9999,1924233340
82,18,15,Jits_Phase_8,46,9999,9999,9999,1925034088
82,18,15,Jits_Phase_8,47,9999,9999,9999,1925833840
82,18,15,Jits_Phase_8,48,9999,9999,9999,1926654008
82,18,15,Jits_Phase_8,49,9999,9999,9999,1927453760
82,18,15,Jits_Phase_8,50,9999,9999,9999,1928253516
82,18,15,Jits_Phase_8,51,9999,9999,9999,1929053276
82,18,15,Jits_Phase_8,52,9999,9999,9999,1929854004
82,18,15,Jits_Phase_8,53,9999,9999,9999,1930653768
82,18,15,Jits_Phase_8,54,9999,9999,9999,1931453524
82,18,15,Jits_Phase_8,55,9999,9999,9999,1932253244
82,18,15,Jits_Phase_8,56,9999,9999,9999,1933054048
82,18,15,Jits_Phase_8,57,9999,9999,9999,1933853820
82,18,15,Jits_Phase_8,58,9999,9999,9999,1934653520
82,18,15,Jits_Phase_8,59,9999,9999,9999,1935453292
82,18,15,Jits_Phase_8,60,9999,9999,9999,1936254032
82,18,15,Jits_Phase_8,61,9999,9999,9999,1937053808
82,18,15,Jits_Phase_8,62,9999,9999,9999,1937853504
82,18,15,Jits_Phase_8,63,9999,9999,9999,1938653280
82,18,15,Jits_Phase_8,64,9999,9999,9999,1939493968
82,18,15,Jits_Phase_8,65,9999,9999,9999,1940293708
82,18,15,Jits_Phase_8,66,9999,9999,9999,1941093456
82,18,15,Jits_Phase_8,67,9999,9999,9999,1941893220
82,18,15,Jits_Phase_8,68,9999,9999,9999,1942693948
82,18,15,Jits_Phase_8,69,9999,9999,9999,1943493724
82,18,15,Jits_Phase_8,70,9999,9999,9999,1944293444
82,18,15,Jits_Phase_8,71,9999,9999,9999,1945093212
82,18,15,Jits_Phase_8,72,9999,9999,9999,1945893944
82,18,15,Jits_Phase_8,73,9999,9999,9999,1946693716
82,18,15,Jits_Phase_8,74,9999,9999,9999,1947493480
82,18,15,Jits_Phase_8,75,9999,9999,9999,1948293240
82,18,15,Jits_Phase_8,76,9999,9999,9999,1949093956
82,18,15,Jits_Phase_8,77,9999,9999,9999,1949893732
82,18,15,Jits_Phase_8,78,9999,9999,9999,1950693436
82,18,15,Jits_Phase_8,79,9999,9999,9999,1951493208
82,18,15,Jits_Phase_8,80,9999,9999,9999,1952294012
82,18,15,Jits_Phase_8,81,9999,9999,9999,1953053768
82,18,15,Jits_Phase_8,82,9999,9999,9999,1953853528
82,18,15,Jits_Phase_8,83,9999,9999,9999,1954653260
82,18,15,Jits_Phase_8,84,9999,9999,9999,1955454028
82,18,15,Jits_Phase_8,85,9999,9999,9999,1956253800
82,18,15,Jits_Phase_8,86,9999,9999,9999,1957053504
82,18,15,Jits_Phase_8,87,9999,9999,9999,1957853280
82,18,15,Jits_Phase_8,88,9999,9999,9999,1958654004
82,18,15,Jits_Phase_8,89,9999,9999,9999,1959453772
82,18,15,Jits_Phase_8,90,9999,9999,9999,1960253540
82,18,15,Jits_Phase_8,91,9999,9999,9999,1961053296
82,18,15,Jits_Phase_8,92,9999,9999,9999,1961854044
82,18,15,Jits_Phase_8,93,9999,9999,9999,1962653800
82,18,15,Jits_Phase_8,94,9999,9999,9999,1963453560
82,18,15,Jits_Phase_8,95,9999,9999,9999,1964253280
82,18,15,Jits_Phase_8,96,9999,9999,9999,1965054024
82,18,15,Jits_Phase_8,97,9999,9999,9999,1965773896
82,18,15,Jits_Phase_8,98,9999,9999,9999,1966573624
82,18,15,Jits_Phase_8,99,9999,9999,9999,1967373396
82,18,15,Jits_Phase_8,100,9999,9999,9999,1968173156
82,18,15,Jits_Phase_8,101,9999,9999,9999,1968973888
82,18,15,Jits_Phase_8,102,9999,9999,9999,1969773640
82,18,15,Jits_Phase_8,103,9999,9999,9999,1970573396
82,18,15,Jits_Phase_8,104,9999,9999,9999,1971373172
82,18,15,Jits_Phase_8,105,9999,9999,9999,1972173908
82,18,15,Jits_Phase_8,106,9999,9999,9999,1972973676
82,18,15,Jits_Phase_8,107,9999,9999,9999,1973773412
82,18,15,Jits_Phase_8,108,9999,9999,9999,1974573176
82,18,15,Jits_Phase_8,109,9999,9999,9999,1975373900
82,18,15,Jits_Phase_8,110,9999,9999,9999,1976173672
82,18,15,Jits_Phase_8,111,9999,9999,9999,1976973436
82,18,15,Jits_Phase_8,112,9999,9999,9999,1977773124
82,18,15,Jits_Phase_8,113,9999,9999,9999,1978573948
82,18,15,Jits_Phase_8,114,9999,9999,9999,1979453524
82,18,15,Jits_Phase_8,115,9999,9999,9999,1980253280
82,18,15,Jits_Phase_8,116,9999,9999,9999,1981054036
82,18,15,Jits_Phase_8,117,9999,9999,9999,1981853816
82,18,15,Jits_Phase_8,118,9999,9999,9999,1982653516
82,18,15,Jits_Phase_8,119,9999,9999,9999,1983453240
82,18,15,Jits_Phase_8,120,9999,9999,9999,1984254052
82,18,15,Jits_Phase_8,121,9999,9999,9999,1985053816
82,18,15,Jits_Phase_8,122,9999,9999,9999,1985853564
82,18,15,Jits_Phase_8,123,9999,9999,9999,1986653244
82,18,15,Jits_Phase_8,124,9999,9999,9999,1987454060
82,18,15,Jits_Phase_8,125,9999,9999,9999,1988253820
82,18,15,Jits_Phase_8,126,9999,9999,9999,1989053520
82,18,15,Jits_Phase_8,127,9999,9999,9999,1989853304
82,18,15,Jits_Phase_8,128,9999,9999,9999,1990654040
82,18,15,Jits_Phase_8,129,9999,9999,9999,1991453816
82,18,15,Jits_Phase_8,130,9999,9999,9999,1992253528
82,18,15,Jits_Phase_8,131,9999,9999,9999,1993214008
82,18,15,Jits_Phase_8,132,9999,9999,9999,1994013764
82,18,15,Jits_Phase_8,133,9999,9999,9999,1994813508
82,18,15,Jits_Phase_8,134,9999,9999,9999,1995613280
82,18,15,Jits_Phase_8,135,9999,9999,9999,1996414076
82,18,15,Jits_Phase_8,136,9999,9999,9999,1997213760
82,18,15,Jits_Phase_8,137,9999,9999,9999,1998013536
82,18,15,Jits_Phase_8,138,9999,9999,9999,1998813260
82,18,15,Jits_Phase_8,139,9999,9999,9999,1999614080
82,18,15,Jits_Phase_8,140,9999,9999,9999,2000413764
82,18,15,Jits_Phase_8,141,9999,9999,9999,2001213500
82,18,15,Jits_Phase_8,142,9999,9999,9999,2002013268
82,18,15,Jits_Phase_8,143,9999,9999,9999,2002814068
82,18,15,Jits_Phase_8,144,9999,9999,9999,2003613748
82,18,15,Jits_Phase_8,145,9999,9999,9999,2004413512
82,18,15,Jits_Phase_8,146,9999,9999,9999,2005213296
82,18,15,Jits_Phase_8,147,9999,9999,9999,2006014024
82,18,15,Jits_Phase_8,148,9999,9999,9999,2006813772
82,18,15,Jits_Phase_8,149,9999,9999,9999,2007613528
82,18,15,Jits_Phase_8,150,9999,9999,9999,2008253540
82,18,15,Jits_Phase_8,151,9999,9999,9999,2009053260
82,18,15,Jits_Phase_8,152,9999,9999,9999,2009854004
82,18,15,Jits_Phase_8,153,9999,9999,9999,2010653768
82,18,15,Jits_Phase_8,154,9999,9999,9999,2011453520
82,18,15,Jits_Phase_8,155,9999,9999,9999,2012253280
82,18,15,Jits_Phase_8,156,9999,9999,9999,2013054024
82,18,15,Jits_Phase_8,157,9999,9999,9999,2013853780
82,18,15,Jits_Phase_8,158,9999,9999,9999,2014653544
82,18,15,Jits_Phase_8,159,9999,9999,9999,2015453264
82,18,15,Jits_Phase_8,160,9999,9999,9999,2016254016
82,18,15,Jits_Phase_8,161,9999,9999,9999,2017053772
82,18,15,Jits_Phase_8,162,9999,9999,9999,2017853540
82,18,15,Jits_Phase_8,163,9999,9999,9999,2018653304
82,18,15,Jits_Phase_8,164,9999,9999,9999,2019454036
82,18,15,Jits_Phase_8,165,9999,9999,9999,2020253792
82,18,15,Jits_Phase_8,166,9999,9999,9999,2021053568
82,18,15,Jits_Phase_8,167,9999,9999,9999,2021853276
82,18,15,Jits_Phase_8,168,9999,9999,9999,2022654024
82,18,15,Jits_Phase_8,169,9999,9999,9999,2023453796
82,19,17,Jits_Phase_5,0,5,56,103,2031748600
82,19,17,Jits_Phase_5,1,5,63,98,2031751772
82,19,17,Jits_Phase_5,2,5,80,127,2031754968
82,19,17,Jits_Phase_5,0,5,56,103,2032249052
82,19,17,Jits_Phase_5,1,5,63,98,2032252224
82,19,17,Jits_Phase_5,2,5,80,127,2032255424
82,19,17,Jits_Phase_5,0,5,56,103,2032748932
82,19,17,Jits_Phase_5,1,1,48,78,2032759648
82,19,17,Jits_Phase_5,2,5,80,127,2032760760
82,19,17,Jits_Phase_5,3,5,63,98,2032778604
82,19,17,Jits_Phase_5,0,5,63,98,2033198424
82,19,17,Jits_Phase_5,1,5,80,127,2033229148
82,19,17,Jits_Phase_5,2,5,56,103,2033239564
82,19,17,Jits_Phase_5,3,1,48,100,2033268984
82,19,17,Jits_Phase_5,0,1,48,78,2033747376
82,19,17,Jits_Phase_5,1,5,80,127,2033758636
82,19,17,Jits_Phase_5,2,5,56,103,2033768904
82,19,17,Jits_Phase_5,3,5,63,98,2033798728
82,19,17,Jits_Phase_5,0,5,63,98,2034249032
82,19,17,Jits_Phase_5,1,5,56,103,2034278708
82,19,17,Jits_Phase_5,2,1,48,65,2034286164
82,19,17,Jits_Phase_5,3,5,80,127,2034288972
82,19,17,Jits_Phase_5,0,5,56,103,2034698664
82,19,17,Jits_Phase_5,1,5,63,98,2034748864
82,19,17,Jits_Phase_5,2,5,80,127,2034769172
82,19,17,Jits_Phase_5,3,1,48,76,2034780832
82,19,17,Jits_Phase_5,0,5,80,127,2035199620
82,19,17,Jits_Phase_5,1,5,63,98,2035248776
82,19,17,Jits_Phase_5,2,1,48,92,2035265600
82,19,17,Jits_Phase_5,3,5,56,103,2035288408
82,19,17,Jits_Phase_5,0,5,56,103,2035698944
82,19,17,Jits_Phase_5,1,5,63,98,2035728692
82,19,17,Jits_Phase_5,2,1,48,85,2035755700
82,19,17,Jits_Phase_5,3,5,80,127,2035799336
82,19,17,Jits_Phase_5,0,5,56,103,2036198708
82,19,17,Jits_Phase_5,1,1,48,48,2036255604
82,19,17,Jits_Phase_5,2,5,80,127,2036259240
82,19,17,Jits_Phase_5,3,5,63,98,2036288836
82,19,17,Jits_Phase_5,0,5,56,103,2036708588
82,19,17,Jits_Phase_5,1,5,63,98,2036718932
82,19,17,Jits_Phase_5,2,5,80,127,2036758940
82,19,17,Jits_Phase_5,3,1,48,82,2036764976
82,19,17,Jits_Phase_5,0,5,63,98,2037199352
82,19,17,Jits_Phase_5,1,1,48,68,2037272968
82,19,17,Jits_Phase_5,2,5,80,127,2037279068
82,19,17,Jits_Phase_5,3,5,56,103,2037289412
82,19,17,Jits_Phase_5,0,5,63,98,2037749228
82,19,17,Jits_Phase_5,1,5,56,103,2037789088
82,19,17,Jits_Phase_5,2,5,80,127,2037792008
82,19,17,Jits_Phase_5,3,1,48,63,2037802992
82,19,17,Jits_Phase_5,0,5,56,103,2038208872
82,19,17,Jits_Phase_5,1,5,63,98,2038219068
82,19,17,Jits_Phase_5,2,5,80,127,2038258952
82,19,17,Jits_Phase_5,3,1,48,75,2038319976
82,19,17,Jits_Phase_5,0,5,56,103,2038699560
82,19,17,Jits_Phase_5,1,5,63,98,2038702404
82,19,17,Jits_Phase_5,2,5,80,127,2038718824
82,19,17,Jits_Phase_5,3,1,48,77,2038804588
82,19,17,Jits_Phase_5,0,5,80,127,2039209576
82,19,17,Jits_Phase_5,1,5,56,103,2039218500
82,19,17,Jits_Phase_5,2,1,48,67,2039264344
82,19,17,Jits_Phase_5,3,5,63,98,2039289468
82,19,17,Jits_Phase_5,0,5,63,98,2039698772
82,19,17,Jits_Phase_5,1,5,56,103,2039719604
82,19,17,Jits_Phase_5,2,1,48,69,2039758712
82,19,17,Jits_Phase_5,3,5,80,127,2039799336
82,19,17,Jits_Phase_5,0,5,56,103,2040208784
82,19,17,Jits_Phase_5,1,5,80,127,2040248724
82,19,17,Jits_Phase_5,2,1,48,78,2040254980
82,19,17,Jits_Phase_5,3,5,63,98,2040258836
82,19,17,Jits_Phase_5,0,5,80,127,2040699408
82,19,17,Jits_Phase_5,1,5,63,98,2040729008
82,19,17,Jits_Phase_5,2,1,48,63,2040752356
82,19,17,Jits_Phase_5,3,5,56,103,2040768864
82,19,17,Jits_Phase_5,0,5,56,103,2041218500
82,19,17,Jits_Phase_5,1,1,48,52,2041220060
82,19,17,Jits_Phase_5,2,5,63,98,2041249216
82,19,17,Jits_Phase_5,3,5,80,127,2041299512
82,19,17,Jits_Phase_5,0,5,80,127,2041719240
82,19,17,Jits_Phase_5,1,1,48,66,2041745952
82,19,17,Jits_Phase_5,2,5,56,103,2041759020
82,19,17,Jits_Phase_5,3,5,63,98,2041769512
82,19,17,Jits_Phase_5,0,5,80,127,2042199376
82,19,17,Jits_Phase_5,1,5,63,98,2042239388
82,19,17,Jits_Phase_5,2,1,48,65,2042250380
82,19,17,Jits_Phase_5,3,5,56,103,2042298720
82,19,17,Jits_Phase_5,0,5,56,103,2042699212
82,19,17,Jits_Phase_5,1,5,80,127,2042709632
82,19,17,Jits_Phase_5,2,5,63,98,2042789424
82,19,17,Jits_Phase_5,3,1,48,83,2042793664
82,19,17,Jits_Phase_5,0,5,80,127,2043198756
82,19,17,Jits_Phase_5,1,5,63,98,2043259368
82,19,17,Jits_Phase_5,2,1,48,87,2043284132
82,19,17,Jits_Phase_5,3,5,56,103,2043288888
82,19,17,Jits_Phase_5,0,5,56,103,2043698448
82,19,17,Jits_Phase_5,1,5,80,127,2043759060
82,19,17,Jits_Phase_5,2,1,48,78,2043769904
82,19,17,Jits_Phase_5,3,5,63,98,2043798992
82,19,17,Jits_Phase_5,0,5,56,103,2044248560
82,19,17,Jits_Phase_5,1,5,63,98,2044258604
82,19,17,Jits_Phase_5,2,5,80,127,2044261968
82,19,17,Jits_Phase_5,3,1,48,94,2044283516
82,19,17,Jits_Phase_5,0,5,80,127,2044698944
82,19,17,Jits_Phase_5,1,1,48,90,2044780500
82,19,17,Jits_Phase_5,2,5,63,98,2044789368
82,19,17,Jits_Phase_5,3,5,56,103,2044799340
82,19,17,Jits_Phase_5,0,5,56,103,2045198624
82,19,17,Jits_Phase_5,1,5,63,98,2045201792
82,19,17,Jits_Phase_5,2,5,80,127,2045204916
82,19,17,Jits_Phase_5,3,1,48,71,2045290000
82,19,17,Jits_Phase_5,0,5,80,127,2045718808
82,19,17,Jits_Phase_5,1,5,63,98,2045769228
82,19,17,Jits_Phase_5,2,1,48,88,2045771244
82,19,17,Jits_Phase_5,3,5,56,103,2045798672
82,19,17,Jits_Phase_5,0,5,56,103,2046199168
82,19,17,Jits_Phase_5,1,5,80,127,2046209288
82,19,17,Jits_Phase_5,2,1,48,80,2046258708
82,19,17,Jits_Phase_5,3,5,63,98,2046278960
82,19,17,Jits_Phase_5,0,5,56,103,2046708968
82,19,17,Jits_Phase_5,1,5,63,98,2046728532
82,19,17,Jits_Phase_5,2,1,48,92,2046773220
82,19,17,Jits_Phase_5,3,5,80,127,2046788912
82,19,17,Jits_Phase_5,0,5,80,127,2047189480
82,19,17,Jits_Phase_5,1,1,48,79,2047238904
82,19,17,Jits_Phase_5,2,5,63,98,2047259080
82,19,17,Jits_Phase_5,3,5,56,103,2047278344
82,19,17,Jits_Phase_5,0,5,80,127,2047708504
82,19,17,Jits_Phase_5,1,5,56,103,2047718776
82,19,17,Jits_Phase_5,2,5,63,98,2047728972
82,19,17,Jits_Phase_5,3,1,48,63,2047746852
82,19,17,Jits_Phase_5,0,5,80,127,2048199100
82,19,17,Jits_Phase_5,1,5,56,103,2048218612
82,19,17,Jits_Phase_5,2,1,48,80,2048250352
82,19,17,Jits_Phase_5,3,5,63,98,2048289332
82,19,17,Jits_Phase_5,0,5,56,103,2048708980
82,19,17,Jits_Phase_5,1,1,48,75,2048736316
82,19,17,Jits_Phase_5,2,5,80,127,2048738672
82,19,17,Jits_Phase_5,3,5,63,98,2048759280
82,19,17,Jits_Phase_5,0,5,63,98,2049198476
82,19,17,Jits_Phase_5,1,1,48,73,2049213276
82,19,17,Jits_Phase_5,2,5,56,103,2049258884
82,19,17,Jits_Phase_5,3,5,80,127,2049288412
82,19,17,Jits_Phase_5,0,5,63,98,2049688856
82,19,17,Jits_Phase_5,1,5,80,127,2049692448
82,19,17,Jits_Phase_5,2,1,48,76,2049705904
82,19,17,Jits_Phase_5,3,5,56,103,2049779080
82,19,17,Jits_Phase_5,0,5,56,103,2050209196
82,19,17,Jits_Phase_5,1,5,63,98,2050238724
82,19,17,Jits_Phase_5,2,1,48,92,2050255120
82,19,17,Jits_Phase_5,3,5,80,127,2050278824
82,19,17,Jits_Phase_5,0,5,63,98,2050708808
82,19,17,Jits_Phase_5,1,1,48,86,2050738604
82,19,17,Jits_Phase_5,2,5,56,103,2050748668
82,19,17,Jits_Phase_5,3,5,80,127,2050769224
82,19,17,Jits_Phase_5,0,5,63,98,2051229232
82,19,17,Jits_Phase_5,1,1,48,93,2051240972
82,19,17,Jits_Phase_5,2,5,56,103,2051269088
82,19,17,Jits_Phase_5,3,5,80,127,2051279160
82,19,17,Jits_Phase_5,0,5,80,127,2051709204
82,19,17,Jits_Phase_5,1,1,48,89,2051752552
82,19,17,Jits_Phase_5,2,5,63,98,2051778880
82,19,17,Jits_Phase_5,3,5,56,103,2051799436
82,19,17,Jits_Phase_5,0,5,56,103,2052198708
82,19,17,Jits_Phase_5,1,5,80,127,2052219240
82,19,17,Jits_Phase_5,2,5,63,98,2052259180
82,19,17,Jits_Phase_5,3,1,48,74,2052271140
82,19,17,Jits_Phase_5,0,5,63,98,2052708732
82,19,17,Jits_Phase_5,1,5,80,127,2052729336
82,19,17,Jits_Phase_5,2,1,48,67,2052756592
82,19,17,Jits_Phase_5,3,5,56,103,2052769268
82,19,17,Jits_Phase_5,0,5,63,98,2053208552
82,19,17,Jits_Phase_5,1,5,56,103,2053229308
82,19,17,Jits_Phase_5,2,5,80,127,2053239280
82,19,17,Jits_Phase_5,3,1,48,78,2053258736
82,19,17,Jits_Phase_5,0,5,80,127,2053709120
82,19,17,Jits_Phase_5,1,5,56,103,2053728680
82,19,17,Jits_Phase_5,2,1,48,82,2053754492
82,19,17,Jits_Phase_5,3,5,63,98,2053759324
82,19,17,Jits_Phase_5,0,1,48,88,2054257928
82,19,17,Jits_Phase_5,1,5,56,103,2054278548
82,19,17,Jits_Phase_5,2,5,80,127,2054281616
82,19,17,Jits_Phase_5,3,5,63,98,2054299156
82,19,17,Jits_Phase_5,0,5,63,98,2054699336
82,19,17,Jits_Phase_5,1,5,56,103,2054729308
82,19,17,Jits_Phase_5,2,1,48,79,2054746896
82,19,17,Jits_Phase_5,3,5,80,127,2054788420
82,19,17,Jits_Phase_5,0,1,48,68,2055240628
82,19,17,Jits_Phase_5,1,5,63,98,2055278944
82,19,17,Jits_Phase_5,2,5,56,103,2055289064
82,19,17,Jits_Phase_5,3,5,80,127,2055298364
82,19,17,Jits_Phase_5,0,5,56,103,2055738700
82,19,17,Jits_Phase_5,1,1,48,83,2055753648
82,19,17,Jits_Phase_5,2,5,80,127,2055768516
82,19,17,Jits_Phase_5,3,5,63,98,2055778788
82,19,17,Jits_Phase_5,0,1,48,77,2056261656
82,19,17,Jits_Phase_5,1,5,63,98,2056279512
82,19,17,Jits_Phase_5,2,5,56,103,2056288588
82,19,17,Jits_Phase_5,3,5,80,127,2056309268
82,19,17,Jits_Phase_5,0,5,56,103,2056708404
82,19,17,Jits_Phase_5,1,1,48,78,2056749212
82,19,17,Jits_Phase_5,2,5,63,98,2056769008
82,19,17,Jits_Phase_5,3,5,80,127,2056772220
82,19,17,Jits_Phase_5,0,5,80,127,2057228608
82,19,17,Jits_Phase_5,1,5,56,103,2057239172
82,19,17,Jits_Phase_5,2,1,48,77,2057248740
82,19,17,Jits_Phase_5,3,5,63,98,2057308472
82,19,17,Jits_Phase_5,0,5,80,127,2057719076
82,19,17,Jits_Phase_5,1,1,48,77,2057755448
82,19,17,Jits_Phase_5,2,5,56,103,2057788900
82,19,17,Jits_Phase_5,3,5,63,98,2057799316
82,19,17,Jits_Phase_5,0,5,63,98,2058258924
82,19,17,Jits_Phase_5,1,5,56,103,2058269124
82,19,17,Jits_Phase_5,2,1,48,59,2058275908
82,19,17,Jits_Phase_5,3,5,80,127,2058288452
82,19,17,Jits_Phase_5,0,5,80,127,2058709304
82,19,17,Jits_Phase_5,1,5,63,98,2058768720
82,19,17,Jits_Phase_5,2,1,48,57,2058779480
82,19,17,Jits_Phase_5,3,5,56,103,2058808648
82,19,17,Jits_Phase_5,0,5,56,103,2059249224
82,19,17,Jits_Phase_5,1,5,63,98,2059259196
82,19,17,Jits_Phase_5,2,1,48,54,2059295344
82,19,17,Jits_Phase_5,3,5,80,127,2059299128
82,19,17,Jits_Phase_5,0,5,56,103,2059708956
82,19,17,Jits_Phase_5,1,5,80,127,2059738360
82,19,17,Jits_Phase_5,2,1,48,68,2059781184
82,19,17,Jits_Phase_5,3,5,63,98,2059788848
82,19,17,Jits_Phase_5,0,1,48,77,2060247404
82,19,17,Jits_Phase_5,1,5,56,103,2060249044
82,19,17,Jits_Phase_5,2,5,63,98,2060289432
82,19,17,Jits_Phase_5,3,5,80,127,2060292720
82,19,17,Jits_Phase_5,0,1,48,62,2060736068
82,19,17,Jits_Phase_5,1,5,56,103,2060749236
82,19,17,Jits_Phase_5,2,5,63,98,2060759360
82,19,17,Jits_Phase_5,3,5,80,127,2060778996
82,19,17,Jits_Phase_5,0,5,56,103,2061208960
82,19,17,Jits_Phase_5,1,5,80,127,2061212024
82,19,17,Jits_Phase_5,2,1,48,74,2061236272
82,19,17,Jits_Phase_5,3,5,63,98,2061249036
82,19,17,Jits_Phase_5,0,1,48,79,2061729124
82,19,17,Jits_Phase_5,1,5,63,98,2061748556
82,19,17,Jits_Phase_5,2,5,56,103,2061779376
82,19,17,Jits_Phase_5,3,5,80,127,2061798712
82,19,17,Jits_Phase_5,0,5,80,127,2062218720
82,19,17,Jits_Phase_5,1,5,56,103,2062229064
82,19,17,Jits_Phase_5,2,5,63,98,2062239184
82,19,17,Jits_Phase_5,3,1,48,73,2062261408
82,19,17,Jits_Phase_5,0,1,48,72,2062723828
82,19,17,Jits_Phase_5,1,5,56,103,2062728660
82,19,17,Jits_Phase_5,2,5,80,127,2062768376
82,19,17,Jits_Phase_5,3,5,63,98,2062799196
82,19,17,Jits_Phase_5,0,1,48,89,2063232280
82,19,17,Jits_Phase_5,1,5,63,98,2063238452
82,19,17,Jits_Phase_5,2,5,80,127,2063248944
82,19,17,Jits_Phase_5,3,5,56,103,2063259140
82,19,17,Jits_Phase_5,0,1,48,63,2063716528
82,19,17,Jits_Phase_5,1,5,56,103,2063728984
82,19,17,Jits_Phase_5,2,5,63,98,2063798588
82,19,17,Jits_Phase_5,3,5,80,127,2063809084
82,19,17,Jits_Phase_5,0,5,80,127,2064239076
82,19,17,Jits_Phase_5,1,1,48,83,2064242268
82,19,17,Jits_Phase_5,2,5,56,103,2064249340
82,19,17,Jits_Phase_5,3,5,63,98,2064299240
82,19,17,Jits_Phase_5,0,1,48,89,2064747208
82,19,17,Jits_Phase_5,1,5,80,127,2064749020
82,19,17,Jits_Phase_5,2,5,56,103,2064809260
82,19,17,Jits_Phase_5,3,5,63,98,2064839008
82,19,17,Jits_Phase_5,0,5,56,103,2065248548
82,19,17,Jits_Phase_5,1,5,80,127,2065251840
82,19,17,Jits_Phase_5,2,1,48,89,2065270768
82,19,17,Jits_Phase_5,3,5,63,98,2065288704
82,19,17,Jits_Phase_5,0,5,56,103,2065779020
82,19,17,Jits_Phase_5,1,1,48,80,2065798180
82,19,17,Jits_Phase_5,2,5,63,98,2065808984
82,19,17,Jits_Phase_5,3,5,80,127,2065819108
82,19,17,Jits_Phase_5,0,5,63,98,2066288900
82,19,17,Jits_Phase_5,1,5,80,127,2066299244
82,19,17,Jits_Phase_5,2,5,56,103,2066308392
82,19,17,Jits_Phase_5,3,1,48,80,2066316988
82,19,17,Jits_Phase_5,0,5,80,127,2066738676
82,19,17,Jits_Phase_5,1,5,56,103,2066788876
82,19,17,Jits_Phase_5,2,5,63,98,2066791864
82,19,17,Jits_Phase_5,3,1,48,72,2066806072
82,19,17,Jits_Phase_5,0,5,56,103,2067269068
82,19,17,Jits_Phase_5,1,5,80,127,2067288408
82,19,17,Jits_Phase_5,2,1,48,67,2067292948
82,19,17,Jits_Phase_5,3,5,63,98,2067298524
82,19,17,Jits_Phase_5,0,5,63,98,2067749208
82,19,17,Jits_Phase_5,1,5,56,103,2067778884
82,19,17,Jits_Phase_5,2,5,80,127,2067799264
82,19,17,Jits_Phase_5,3,1,48,70,2067800676
82,19,17,Jits_Phase_5,0,5,56,103,2068259144
82,19,17,Jits_Phase_5,1,1,48,66,2068269932
82,19,17,Jits_Phase_5,2,5,80,127,2068271276
82,19,17,Jits_Phase_5,3,5,63,98,2068339008
82,19,17,Jits_Phase_5,0,5,63,98,2068748868
82,19,17,Jits_Phase_5,1,1,48,47,2068751988
82,19,17,Jits_Phase_5,2,5,80,127,2068788576
82,19,17,Jits_Phase_5,3,5,56,103,2068828660
82,19,17,Jits_Phase_5,0,5,56,103,2069258876
82,19,17,Jits_Phase_5,1,5,63,98,2069269000
82,19,17,Jits_Phase_5,2,1,48,81,2069272044
82,19,17,Jits_Phase_5,3,5,80,127,2069289228
82,19,17,Jits_Phase_5,0,1,48,63,2069789176
82,19,17,Jits_Phase_5,1,5,63,98,2069799164
82,19,17,Jits_Phase_5,2,5,80,127,2069818948
82,19,17,Jits_Phase_5,3,5,56,103,2069839184
82,19,17,Jits_Phase_5,0,5,56,103,2070238692
82,19,17,Jits_Phase_5,1,1,48,80,2070311852
82,19,17,Jits_Phase_5,2,5,80,127,2070318476
82,19,17,Jits_Phase_5,3,5,63,98,2070328896
82,19,17,Jits_Phase_5,0,5,80,127,2070779288
82,19,17,Jits_Phase_5,1,1,48,77,2070788360
82,19,17,Jits_Phase_5,2,5,63,98,2070789920
82,19,17,Jits_Phase_5,3,5,56,103,2070819076
82,19,17,Jits_Phase_5,0,5,63,98,2071239020
82,19,17,Jits_Phase_5,1,5,80,127,2071278908
82,19,17,Jits_Phase_5,2,1,48,79,2071280616
82,19,17,Jits_Phase_5,3,5,56,103,2071339808
82,19,17,Jits_Phase_5,0,5,63,98,2071749184
82,19,17,Jits_Phase_5,1,5,56,103,2071799260
82,19,17,Jits_Phase_5,2,1,48,82,2071822080
82,19,17,Jits_Phase_5,3,5,80,127,2071829004
82,19,17,Jits_Phase_5,0,5,80,127,2072248636
82,19,17,Jits_Phase_5,1,5,63,98,2072258908
82,19,17,Jits_Phase_5,2,1,48,77,2072317716
82,19,17,Jits_Phase_5,3,5,56,103,2072328824
82,19,17,Jits_Phase_5,0,1,48,81,2072808052
82,19,17,Jits_Phase_5,1,5,80,127,2072809624
82,19,17,Jits_Phase_5,2,5,56,103,2072819068
82,19,17,Jits_Phase_5,3,5,63,98,2072822208
82,19,17,Jits_Phase_5,0,5,56,103,2073249040
82,19,17,Jits_Phase_5,1,5,80,127,2073268972
82,19,17,Jits_Phase_5,2,5,63,98,2073278720
82,19,17,Jits_Phase_5,3,1,48,83,2073344556
82,19,17,Jits_Phase_5,0,5,63,98,2073759064
82,19,17,Jits_Phase_5,1,1,48,81,2073794768
82,19,17,Jits_Phase_5,2,5,56,103,2073798996
82,19,17,Jits_Phase_5,3,5,80,127,2073818584
82,19,17,Jits_Phase_5,0,5,63,98,2074258896
82,19,17,Jits_Phase_5,1,1,48,78,2074300896
82,19,17,Jits_Phase_5,2,5,56,103,2074319072
82,19,17,Jits_Phase_5,3,5,80,127,2074322140
82,19,17,Jits_Phase_5,0,5,56,103,2074718780
82,19,17,Jits_Phase_5,1,5,80,127,2074739016
82,19,17,Jits_Phase_5,2,5,63,98,2074778952
82,19,17,Jits_Phase_5,3,1,48,76,2074788588
82,19,17,Jits_Phase_5,0,5,56,103,2075248956
82,19,17,Jits_Phase_5,1,1,48,80,2075262636
82,19,17,Jits_Phase_5,2,5,63,98,2075268736
82,19,17,Jits_Phase_5,3,5,80,127,2075278928
82,19,17,Jits_Phase_5,0,5,80,127,2075718976
82,19,17,Jits_Phase_5,1,5,56,103,2075748728
82,19,17,Jits_Phase_5,2,1,48,75,2075759792
82,19,17,Jits_Phase_5,3,5,63,98,2075788656
82,19,17,Jits_Phase_5,0,5,80,127,2076229000
82,19,17,Jits_Phase_5,1,1,48,73,2076231520
82,19,17,Jits_Phase_5,2,5,56,103,2076248556
82,19,17,Jits_Phase_5,3,5,63,98,2076308868
82,19,17,Jits_Phase_5,0,5,56,103,2076738956
82,19,17,Jits_Phase_5,1,5,80,127,2076759488
82,19,17,Jits_Phase_5,2,1,48,74,2076770552
82,19,17,Jits_Phase_5,3,5,63,98,2076818820
82,19,17,Jits_Phase_5,0,5,80,127,2077219164
82,19,17,Jits_Phase_5,1,5,56,103,2077229952
82,19,17,Jits_Phase_5,2,5,63,98,2077269516
82,19,17,Jits_Phase_5,3,1,48,80,2077290020
82,19,17,Jits_Phase_5,0,5,63,98,2077718848
82,19,17,Jits_Phase_5,1,5,56,103,2077758860
82,19,17,Jits_Phase_5,2,5,80,127,2077761776
82,19,17,Jits_Phase_5,3,1,48,67,2077781232
82,19,17,Jits_Phase_5,0,1,48,69,2078213824
82,19,17,Jits_Phase_5,1,5,63,98,2078239104
82,19,17,Jits_Phase_5,2,5,80,127,2078278896
82,19,17,Jits_Phase_5,3,5,56,103,2078308716
82,19,17,Jits_Phase_5,0,5,56,103,2078728748
82,19,17,Jits_Phase_5,1,1,48,67,2078729640
82,19,17,Jits_Phase_5,2,5,63,98,2078738788
82,19,17,Jits_Phase_5,3,5,80,127,2078768684
82,19,17,Jits_Phase_5,0,1,48,69,2079215128
82,19,17,Jits_Phase_5,1,5,80,127,2079218912
82,19,17,Jits_Phase_5,2,5,63,98,2079288592
82,19,17,Jits_Phase_5,3,5,56,103,2079298864
82,19,17,Jits_Phase_5,0,5,63,98,2079718748
82,19,17,Jits_Phase_5,1,1,48,78,2079738056
82,19,17,Jits_Phase_5,2,5,56,103,2079789692
82,19,17,Jits_Phase_5,3,5,80,127,2079798616
82,19,17,Jits_Phase_5,0,5,63,98,2080199140
82,19,17,Jits_Phase_5,1,5,56,103,2080218728
82,19,17,Jits_Phase_5,2,1,48,74,2080245812
82,19,17,Jits_Phase_5,3,5,80,127,2080258508
82,19,17,Jits_Phase_5,0,5,56,103,2080679412
82,19,17,Jits_Phase_5,1,5,63,98,2080688712
82,19,17,Jits_Phase_5,2,1,48,76,2080729836
82,19,17,Jits_Phase_5,3,5,80,127,2080769340
82,19,17,Jits_Phase_5,0,5,63,98,2081168684
82,19,17,Jits_Phase_5,1,5,56,103,2081198584
82,19,17,Jits_Phase_5,2,1,48,59,2081230492
82,19,17,Jits_Phase_5,3,5,80,127,2081239656
82,19,17,Jits_Phase_5,0,5,56,103,2081668656
82,19,17,Jits_Phase_5,1,1,48,76,2081676504
82,19,17,Jits_Phase_5,2,5,63,98,2081709556
82,19,17,Jits_Phase_5,3,5,80,127,2081749816
82,19,17,Jits_Phase_5,0,1,48,64,2082164784
82,19,17,Jits_Phase_5,1,5,80,127,2082169164
82,19,17,Jits_Phase_5,2,5,56,103,2082249032
82,19,17,Jits_Phase_5,3,5,63,98,2082259452
82,19,17,Jits_Phase_5,0,5,56,103,2082708824
82,19,17,Jits_Phase_5,1,5,63,98,2082712040
82,19,17,Jits_Phase_5,2,1,48,70,2082718568
82,19,17,Jits_Phase_5,3,5,80,127,2082720136
82,19,17,Jits_Phase_5,0,5,56,103,2083229032
82,19,17,Jits_Phase_5,1,1,48,71,2083239792
82,19,17,Jits_Phase_5,2,5,63,98,2083248588
82,19,17,Jits_Phase_5,3,5,80,127,2083258780
82,19,17,Jits_Phase_5,0,5,63,98,2083688792
82,19,17,Jits_Phase_5,1,5,80,127,2083699064
82,19,17,Jits_Phase_5,2,5,56,103,2083718696
82,19,17,Jits_Phase_5,3,1,48,67,2083749460
82,19,17,Jits_Phase_5,0,5,63,98,2084188540
82,19,17,Jits_Phase_5,1,1,48,64,2084220576
82,19,17,Jits_Phase_5,2,5,56,103,2084269520
82,19,17,Jits_Phase_5,3,5,80,127,2084272660
82,19,17,Jits_Phase_5,0,5,63,98,2084689552
82,19,17,Jits_Phase_5,1,5,56,103,2084708816
82,19,17,Jits_Phase_5,2,1,48,67,2084728872
82,19,17,Jits_Phase_5,3,5,80,127,2084738632
82,19,17,Jits_Phase_5,0,5,56,103,2085188928
82,19,17,Jits_Phase_5,1,5,63,98,2085208564
82,19,17,Jits_Phase_5,2,5,80,127,2085218684
82,19,17,Jits_Phase_5,3,1,48,73,2085226608
82,19,17,Jits_Phase_5,0,1,48,65,2085710088
82,19,17,Jits_Phase_5,1,5,56,103,2085719476
82,19,17,Jits_Phase_5,2,5,63,98,2085749072
82,19,17,Jits_Phase_5,3,5,80,127,2085752584
82,19,17,Jits_Phase_5,0,5,56,103,2086168880
82,19,17,Jits_Phase_5,1,5,63,98,2086208816
82,19,17,Jits_Phase_5,2,1,48,65,2086232088
82,19,17,Jits_Phase_5,3,5,80,127,2086269492
82,19,17,Jits_Phase_5,0,5,56,103,2086689168
82,19,17,Jits_Phase_5,1,5,63,98,2086699364
82,19,17,Jits_Phase_5,2,1,48,63,2086716184
82,19,17,Jits_Phase_5,3,5,80,127,2086758696
82,19,17,Jits_Phase_5,0,5,56,103,2087188784
82,19,17,Jits_Phase_5,1,1,48,65,2087197080
82,19,17,Jits_Phase_5,2,5,80,127,2087209460
82,19,17,Jits_Phase_5,3,5,63,98,2087238984
82,19,17,Jits_Phase_5,0,5,80,127,2087698660
82,19,17,Jits_Phase_5,1,5,56,103,2087709228
82,19,17,Jits_Phase_5,2,1,48,75,2087728420
82,19,17,Jits_Phase_5,3,5,63,98,2087729904
82,19,17,Jits_Phase_5,0,5,63,98,2088189580
82,19,17,Jits_Phase_5,1,1,48,81,2088244240
82,19,17,Jits_Phase_5,2,5,80,127,2088269144
82,19,17,Jits_Phase_5,3,5,56,103,2088279488
82,19,17,Jits_Phase_5,0,1,48,76,2088711552
82,19,17,Jits_Phase_5,1,5,80,127,2088779084
82,19,17,Jits_Phase_5,2,5,56,103,2088798644
82,19,17,Jits_Phase_5,3,5,63,98,2088801708
82,19,17,Jits_Phase_5,0,1,48,73,2089261272
82,19,17,Jits_Phase_5,1,5,63,98,2089268484
82,19,17,Jits_Phase_5,2,5,80,127,2089271852
82,19,17,Jits_Phase_5,3,5,56,103,2089329024
82,19,17,Jits_Phase_5,0,5,56,103,2089748984
82,19,17,Jits_Phase_5,1,5,80,127,2089759476
82,19,17,Jits_Phase_5,2,5,63,98,2089799112
82,19,17,Jits_Phase_5,3,1,48,75,2089805744
82,19,17,Jits_Phase_5,0,5,56,103,2090239452
82,19,17,Jits_Phase_5,1,5,63,98,2090298872
82,19,17,Jits_Phase_5,2,5,80,127,2090308992
82,19,17,Jits_Phase_5,3,1,48,73,2090313232
82,19,17,Jits_Phase_5,0,5,63,98,2090749556
82,19,17,Jits_Phase_5,1,5,80,127,2090789420
82,19,17,Jits_Phase_5,2,1,48,74,2090801532
82,19,17,Jits_Phase_5,3,5,56,103,2090829496
82,19,17,Jits_Phase_5,0,5,56,103,2091248936
82,19,17,Jits_Phase_5,1,1,48,65,2091286824
82,19,17,Jits_Phase_5,2,5,63,98,2091328868
82,19,17,Jits_Phase_5,3,5,80,127,2091332084
82,19,17,Jits_Phase_5,0,1,48,69,2091775472
82,19,17,Jits_Phase_5,1,5,80,127,2091809368
82,19,17,Jits_Phase_5,2,5,56,103,2091838820
82,19,17,Jits_Phase_5,3,5,63,98,2091841960
82,19,17,Jits_Phase_5,0,5,56,103,2092269044
82,19,17,Jits_Phase_5,1,5,80,127,2092289428
82,19,17,Jits_Phase_5,2,1,48,70,2092307988
82,19,17,Jits_Phase_5,3,5,63,98,2092329580
82,19,17,Jits_Phase_5,0,5,80,127,2092749328
82,19,17,Jits_Phase_5,1,5,63,98,2092768592
82,19,17,Jits_Phase_5,2,1,48,82,2092799208
82,19,17,Jits_Phase_5,3,5,56,103,2092828972
82,19,17,Jits_Phase_5,0,5,63,98,2093259352
82,19,17,Jits_Phase_5,1,5,56,103,2093269548
82,19,17,Jits_Phase_5,2,1,48,69,2093302260
82,19,17,Jits_Phase_5,3,5,80,127,2093318472
82,19,17,Jits_Phase_5,0,5,56,103,2093748592
82,19,17,Jits_Phase_5,1,5,63,98,2093769052
82,19,17,Jits_Phase_5,2,5,80,127,2093779420
82,19,17,Jits_Phase_5,3,1,48,77,2093801192
82,19,17,Jits_Phase_5,0,5,56,103,2094239212
82,19,17,Jits_Phase_5,1,5,63,98,2094242052
82,19,17,Jits_Phase_5,2,5,80,127,2094258548
82,19,17,Jits_Phase_5,3,1,48,58,2094304156
82,19,17,Jits_Phase_5,0,5,63,98,2094778588
82,19,17,Jits_Phase_5,1,1,48,61,2094792416
82,19,17,Jits_Phase_5,2,5,56,103,2094808652
82,19,17,Jits_Phase_5,3,5,80,127,2094839224
82,19,17,Jits_Phase_5,0,5,80,127,2095238556
82,19,17,Jits_Phase_5,1,5,56,103,2095328564
82,19,17,Jits_Phase_5,2,1,48,56,2095330672
82,19,17,Jits_Phase_5,3,5,63,98,2095332892
82,19,17,Jits_Phase_5,0,5,56,103,2095739360
82,19,17,Jits_Phase_5,1,5,80,127,2095742424
82,19,17,Jits_Phase_5,2,5,63,98,2095819324
82,19,17,Jits_Phase_5,3,1,48,66,2095825804
82,19,17,Jits_Phase_5,0,5,80,127,2096238892
82,19,17,Jits_Phase_5,1,5,63,98,2096299428
82,19,17,Jits_Phase_5,2,1,48,74,2096318588
82,19,17,Jits_Phase_5,3,5,56,103,2096329316
82,19,17,Jits_Phase_5,0,5,63,98,2096738580
82,19,17,Jits_Phase_5,1,5,80,127,2096748780
82,19,17,Jits_Phase_5,2,5,56,103,2096818528
82,19,17,Jits_Phase_5,3,1,48,75,2096819940
82,19,17,Jits_Phase_5,0,5,56,103,2097298792
82,19,17,Jits_Phase_5,1,1,48,73,2097301456
82,19,17,Jits_Phase_5,2,5,80,127,2097328532
82,19,17,Jits_Phase_5,3,5,63,98,2097378608
82,19,17,Jits_Phase_5,0,1,48,59,2097847740
82,19,17,Jits_Phase_5,1,5,63,98,2097888692
82,19,17,Jits_Phase_5,2,5,56,103,2097919256
82,19,17,Jits_Phase_5,3,5,80,127,2097922332
82,19,17,Jits_Phase_5,0,5,63,98,2098389340
82,19,17,Jits_Phase_5,1,1,48,63,2098407008
82,19,17,Jits_Phase_5,2,5,80,127,2098408748
82,19,17,Jits_Phase_5,3,5,56,103,2098419240
82,19,17,Jits_Phase_5,0,5,56,103,2098899500
82,19,17,Jits_Phase_5,1,5,63,98,2098902492
82,19,17,Jits_Phase_5,2,1,48,56,2098915804
82,19,17,Jits_Phase_5,3,5,80,127,2098918760
82,19,17,Jits_Phase_5,0,5,56,103,2099348884
82,19,17,Jits_Phase_5,1,5,63,98,2099359304
82,19,17,Jits_Phase_5,2,5,80,127,2099388752
82,19,17,Jits_Phase_5,3,1,48,53,2099405744
82,19,17,Jits_Phase_5,0,5,63,98,2099869244
82,19,17,Jits_Phase_5,1,5,80,127,2099888356
82,19,17,Jits_Phase_5,2,1,48,60,2099905552
82,19,17,Jits_Phase_5,3,5,56,103,2099928460
82,19,17,Jits_Phase_5,0,1,48,39,2100398732
82,19,17,Jits_Phase_5,1,5,56,103,2100400068
82,19,17,Jits_Phase_5,2,5,63,98,2100439360
82,19,17,Jits_Phase_5,3,5,80,127,2100442724
82,19,17,Jits_Phase_5,0,5,80,127,2100838692
82,19,17,Jits_Phase_5,1,5,56,103,2100878556
82,19,17,Jits_Phase_5,2,1,48,45,2100911192
82,19,17,Jits_Phase_5,3,5,63,98,2100928748
82,19,17,Jits_Phase_5,0,5,56,103,2101398912
82,19,17,Jits_Phase_5,1,5,80,127,2101409180
82,19,17,Jits_Phase_5,2,1,48,53,2101416936
82,19,17,Jits_Phase_5,3,5,63,98,2101438776
82,19,17,Jits_Phase_5,0,5,56,103,2101848408
82,19,17,Jits_Phase_5,1,5,80,127,2101889392
82,19,17,Jits_Phase_5,2,1,48,57,2101930644
82,19,17,Jits_Phase_5,3,5,63,98,2101938536
82,19,17,Jits_Phase_5,0,5,56,103,2102349292
82,19,17,Jits_Phase_5,1,5,80,127,2102389304
82,19,17,Jits_Phase_5,2,1,48,46,2102421940
82,19,17,Jits_Phase_5,3,5,63,98,2102439200
82,19,17,Jits_Phase_5,0,5,80,127,2102838564
82,19,17,Jits_Phase_5,1,1,48,20,2102904756
82,19,17,Jits_Phase_5,2,1,38,13,2102917812
82,19,17,Jits_Phase_5,3,5,63,98,2102920356
82,19,17,Jits_Phase_5,4,5,56,103,2102928828
82,19,17,Jits_Phase_5,0,5,80,127,2103388460
82,19,17,Jits_Phase_5,1,5,56,103,2103398656
82,19,17,Jits_Phase_5,2,1,48,57,2103408296
82,19,17,Jits_Phase_5,3,5,63,98,2103419256
82,19,17,Jits_Phase_5,0,5,63,98,2103858628
82,19,17,Jits_Phase_5,1,1,48,72,2103902048
82,19,17,Jits_Phase_5,2,5,56,103,2103929124
82,19,17,Jits_Phase_5,3,5,80,127,2103932188
82,19,17,Jits_Phase_5,0,5,80,127,2104349376
82,19,17,Jits_Phase_5,1,1,48,65,2104379472
82,19,17,Jits_Phase_5,2,5,63,98,2104399496
82,19,17,Jits_Phase_5,3,5,56,103,2104439284
82,19,17,Jits_Phase_5,0,1,48,67,2104866776
82,19,17,Jits_Phase_5,1,5,63,98,2104888620
82,19,17,Jits_Phase_5,2,5,56,103,2104928488
82,19,17,Jits_Phase_5,3,5,80,127,2104939052
82,19,17,Jits_Phase_5,0,1,48,65,2105366088
82,19,17,Jits_Phase_5,1,5,63,98,2105379308
82,19,17,Jits_Phase_5,2,5,56,103,2105398572
82,19,17,Jits_Phase_5,3,5,80,127,2105419252
82,19,17,Jits_Phase_5,0,5,80,127,2105839128
82,19,17,Jits_Phase_5,1,5,56,103,2105849324
82,19,17,Jits_Phase_5,2,5,63,98,2105868664
82,19,17,Jits_Phase_5,3,1,48,89,2105874476
82,19,17,Jits_Phase_5,0,1,48,67,2106357068
82,19,17,Jits_Phase_5,1,5,63,98,2106369376
82,19,17,Jits_Phase_5,2,5,56,103,2106409312
82,19,17,Jits_Phase_5,3,5,80,127,2106439136
82,19,17,Jits_Phase_5,0,5,56,103,2106829200
82,19,17,Jits_Phase_5,1,1,48,82,2106854112
82,19,17,Jits_Phase_5,2,5,63,98,2106858944
82,19,17,Jits_Phase_5,3,5,80,127,2106888616
82,19,17,Jits_Phase_5,0,5,80,127,2107249084
82,19,17,Jits_Phase_5,1,5,56,103,2107318612
82,19,17,Jits_Phase_5,2,5,63,98,2107321676
82,19,17,Jits_Phase_5,3,1,48,62,2107358164
82,19,17,Jits_Phase_5,0,5,56,103,2107759028
82,19,17,Jits_Phase_5,1,5,63,98,2107809228
82,19,17,Jits_Phase_5,2,1,48,66,2107814884
82,19,17,Jits_Phase_5,3,5,80,127,2107838820
82,19,17,Jits_Phase_5,0,5,63,98,2108239236
82,19,17,Jits_Phase_5,1,5,80,127,2108242600
82,19,17,Jits_Phase_5,2,1,48,86,2108292092
82,19,17,Jits_Phase_5,3,5,56,103,2108298644
82,19,17,Jits_Phase_5,0,5,56,103,2108768496
82,19,17,Jits_Phase_5,1,5,80,127,2108779360
82,19,17,Jits_Phase_5,2,1,48,73,2108786840
82,19,17,Jits_Phase_5,3,5,63,98,2108829256
82,19,17,Jits_Phase_5,0,5,63,98,2109238664
82,19,17,Jits_Phase_5,1,5,56,103,2109249008
82,19,17,Jits_Phase_5,2,5,80,127,2109278532
82,19,17,Jits_Phase_5,3,1,48,80,2109322848
82,19,17,Jits_Phase_5,0,5,63,98,2109769048
82,19,17,Jits_Phase_5,1,5,80,127,2109772484
82,19,17,Jits_Phase_5,2,1,48,71,2109796904
82,19,17,Jits_Phase_5,3,5,56,103,2109798864
82,19,17,Jits_Phase_5,0,1,48,87,2110280892
82,19,17,Jits_Phase_5,1,5,63,98,2110289232
82,19,17,Jits_Phase_5,2,5,56,103,2110308636
82,19,17,Jits_Phase_5,3,5,80,127,2110311780
82,19,17,Jits_Phase_5,0,5,63,98,2110749120
82,19,17,Jits_Phase_5,1,1,48,81,2110815760
82,19,17,Jits_Phase_5,2,5,56,103,2110818644
82,19,17,Jits_Phase_5,3,5,80,127,2110839248
82,19,17,Jits_Phase_5,0,5,56,103,2111238608
82,19,17,Jits_Phase_5,1,5,63,98,2111248728
82,19,17,Jits_Phase_5,2,1,48,85,2111297472
82,19,17,Jits_Phase_5,3,5,80,127,2111339072
82,19,17,Jits_Phase_5,0,5,56,103,2111758672
82,19,17,Jits_Phase_5,1,1,48,72,2111796940
82,19,17,Jits_Phase_5,2,5,80,127,2111798604
82,19,17,Jits_Phase_5,3,5,63,98,2111809096
82,19,17,Jits_Phase_5,0,5,56,103,2112279108
82,19,17,Jits_Phase_5,1,1,48,80,2112289500
82,19,17,Jits_Phase_5,2,5,63,98,2112308632
82,19,17,Jits_Phase_5,3,5,80,127,2112339200
82,19,17,Jits_Phase_5,0,5,80,127,2112738796
82,19,17,Jits_Phase_5,1,5,63,98,2112778584
82,19,17,Jits_Phase_5,2,1,48,74,2112797764
82,19,17,Jits_Phase_5,3,5,56,103,2112799260
82,19,17,Jits_Phase_5,0,1,48,77,2113270588
82,19,17,Jits_Phase_5,1,5,56,103,2113279304
82,19,17,Jits_Phase_5,2,5,80,127,2113299088
82,19,17,Jits_Phase_5,3,5,63,98,2113319400
82,19,17,Jits_Phase_5,0,5,63,98,2113749320
82,19,17,Jits_Phase_5,1,5,56,103,2113758544
82,19,17,Jits_Phase_5,2,1,48,77,2113762412
82,19,17,Jits_Phase_5,3,5,80,127,2113818924
82,19,17,Jits_Phase_5,0,5,56,103,2114249044
82,19,17,Jits_Phase_5,1,1,48,68,2114261252
82,19,17,Jits_Phase_5,2,5,63,98,2114318740
82,19,17,Jits_Phase_5,3,5,80,127,2114339200
82,19,17,Jits_Phase_5,0,5,56,103,2114748880
82,19,17,Jits_Phase_5,1,1,48,75,2114749844
82,19,17,Jits_Phase_5,2,5,63,98,2114778348
82,19,17,Jits_Phase_5,3,5,80,127,2114818360
82,19,17,Jits_Phase_5,0,5,63,98,2115239276
82,19,17,Jits_Phase_5,1,1,48,65,2115266588
82,19,17,Jits_Phase_5,2,5,56,103,2115288372
82,19,17,Jits_Phase_5,3,5,80,127,2115298940
82,19,17,Jits_Phase_5,0,1,48,71,2115775164
82,19,17,Jits_Phase_5,1,5,56,103,2115779020
82,19,17,Jits_Phase_5,2,5,63,98,2115829100
82,19,17,Jits_Phase_5,3,5,80,127,2115839220
82,19,17,Jits_Phase_5,0,5,56,103,2116248960
82,19,17,Jits_Phase_5,1,5,63,98,2116259228
82,19,17,Jits_Phase_5,2,1,48,62,2116298412
82,19,17,Jits_Phase_5,3,5,80,127,2116338964
82,19,17,Jits_Phase_5,0,9999,9999,9999,2031997004
82,19,17,Jits_Phase_5,1,9999,9999,9999,2032496712
82,19,17,Jits_Phase_5,2,9999,9999,9999,2032996420
82,19,17,Jits_Phase_5,3,9999,9999,9999,2033496180
82,19,17,Jits_Phase_5,4,9999,9999,9999,2033996916
82,19,17,Jits_Phase_5,5,9999,9999,9999,2034496600
82,19,17,Jits_Phase_5,6,9999,9999,9999,2034996348
82,19,17,Jits_Phase_5,7,9999,9999,9999,2035497084
82,19,17,Jits_Phase_5,8,9999,9999,9999,2035996776
82,19,17,Jits_Phase_5,9,9999,9999,9999,2036496464
82,19,17,Jits_Phase_5,10,9999,9999,9999,2036996152
82,19,17,Jits_Phase_5,11,9999,9999,9999,2037496888
82,19,17,Jits_Phase_5,12,9999,9999,9999,2037996636
82,19,17,Jits_Phase_5,13,9999,9999,9999,2038496312
82,19,17,Jits_Phase_5,14,9999,9999,9999,2038997108
82,19,17,Jits_Phase_5,15,9999,9999,9999,2039496772
82,19,17,Jits_Phase_5,16,9999,9999,9999,2039996528
82,19,17,Jits_Phase_5,17,9999,9999,9999,2040496204
82,19,17,Jits_Phase_5,18,9999,9999,9999,2040996940
82,19,17,Jits_Phase_5,19,9999,9999,9999,2041496628
82,19,17,Jits_Phase_5,20,9999,9999,9999,2041996396
82,19,17,Jits_Phase_5,21,9999,9999,9999,2042496084
82,19,17,Jits_Phase_5,22,9999,9999,9999,2042996824
82,19,17,Jits_Phase_5,23,9999,9999,9999,2043496512
82,19,17,Jits_Phase_5,24,9999,9999,9999,2043996280
82,19,17,Jits_Phase_5,25,9999,9999,9999,2044497012
82,19,17,Jits_Phase_5,26,9999,9999,9999,2044996704
82,19,17,Jits_Phase_5,27,9999,9999,9999,2045496420
82,19,17,Jits_Phase_5,28,9999,9999,9999,2045996112
82,19,17,Jits_Phase_5,29,9999,9999,9999,2046496848
82,19,17,Jits_Phase_5,30,9999,9999,9999,2046986352
82,19,17,Jits_Phase_5,31,9999,9999,9999,2047487092
82,19,17,Jits_Phase_5,32,9999,9999,9999,2047986780
82,19,17,Jits_Phase_5,33,9999,9999,9999,2048486472
82,19,17,Jits_Phase_5,34,9999,9999,9999,2048986236
82,19,17,Jits_Phase_5,35,9999,9999,9999,2049486972
82,19,17,Jits_Phase_5,36,9999,9999,9999,2049986684
82,19,17,Jits_Phase_5,37,9999,9999,9999,2050486352
82,19,17,Jits_Phase_5,38,9999,9999,9999,2050987088
82,19,17,Jits_Phase_5,39,9999,9999,9999,2051497024
82,19,17,Jits_Phase_5,40,9999,9999,9999,2051996776
82,19,17,Jits_Phase_5,41,9999,9999,9999,2052496464
82,19,17,Jits_Phase_5,42,9999,9999,9999,2052996224
82,19,17,Jits_Phase_5,43,9999,9999,9999,2053496940
82,19,17,Jits_Phase_5,44,9999,9999,9999,2053996612
82,19,17,Jits_Phase_5,45,9999,9999,9999,2054496372
82,19,17,Jits_Phase_5,46,9999,9999,9999,2054997092
82,19,17,Jits_Phase_5,47,9999,9999,9999,2055496776
82,19,17,Jits_Phase_5,48,9999,9999,9999,2056006712
82,19,17,Jits_Phase_5,49,9999,9999,9999,2056506484
82,19,17,Jits_Phase_5,50,9999,9999,9999,2057006148
82,19,17,Jits_Phase_5,51,9999,9999,9999,2057506884
82,19,17,Jits_Phase_5,52,9999,9999,9999,2058006648
82,19,17,Jits_Phase_5,53,9999,9999,9999,2058506344
82,19,17,Jits_Phase_5,54,9999,9999,9999,2059007064
82,19,17,Jits_Phase_5,55,9999,9999,9999,2059506752
82,19,17,Jits_Phase_5,56,9999,9999,9999,2060006516
82,19,17,Jits_Phase_5,57,9999,9999,9999,2060506200
82,19,17,Jits_Phase_5,58,9999,9999,9999,2061006920
82,19,17,Jits_Phase_5,59,9999,9999,9999,2061506628
82,19,17,Jits_Phase_5,60,9999,9999,9999,2062006388
82,19,17,Jits_Phase_5,61,9999,9999,9999,2062507104
82,19,17,Jits_Phase_5,62,9999,9999,9999,2063017060
82,19,17,Jits_Phase_5,63,9999,9999,9999,2063516732
82,19,17,Jits_Phase_5,64,9999,9999,9999,2064036936
82,19,17,Jits_Phase_5,65,9999,9999,9999,2064536684
82,19,17,Jits_Phase_5,66,9999,9999,9999,2065036372
82,19,17,Jits_Phase_5,67,9999,9999,9999,2065536108
82,19,17,Jits_Phase_5,68,9999,9999,9999,2066036848
82,19,17,Jits_Phase_5,69,9999,9999,9999,2066536536
82,19,17,Jits_Phase_5,70,9999,9999,9999,2067036272
82,19,17,Jits_Phase_5,71,9999,9999,9999,2067537012
82,19,17,Jits_Phase_5,72,9999,9999,9999,2068036700
82,19,17,Jits_Phase_5,73,9999,9999,9999,2068536376
82,19,17,Jits_Phase_5,74,9999,9999,9999,2069036140
82,19,17,Jits_Phase_5,75,9999,9999,9999,2069536856
82,19,17,Jits_Phase_5,76,9999,9999,9999,2070036552
82,19,17,Jits_Phase_5,77,9999,9999,9999,2070536300
82,19,17,Jits_Phase_5,78,9999,9999,9999,2071037040
82,19,17,Jits_Phase_5,79,9999,9999,9999,2071536728
82,19,17,Jits_Phase_5,80,9999,9999,9999,2072036404
82,19,17,Jits_Phase_5,81,9999,9999,9999,2072516728
82,19,17,Jits_Phase_5,82,9999,9999,9999,2073016408
82,19,17,Jits_Phase_5,83,9999,9999,9999,2073516156
82,19,17,Jits_Phase_5,84,9999,9999,9999,2074016896
82,19,17,Jits_Phase_5,85,9999,9999,9999,2074516564
82,19,17,Jits_Phase_5,86,9999,9999,9999,2075016308
82,19,17,Jits_Phase_5,87,9999,9999,9999,2075517044
82,19,17,Jits_Phase_5,88,9999,9999,9999,2076016732
82,19,17,Jits_Phase_5,89,9999,9999,9999,2076516420
82,19,17,Jits_Phase_5,90,9999,9999,9999,2077016184
82,19,17,Jits_Phase_5,91,9999,9999,9999,2077516916
82,19,17,Jits_Phase_5,92,9999,9999,9999,2078016592
82,19,17,Jits_Phase_5,93,9999,9999,9999,2078516344
82,19,17,Jits_Phase_5,94,9999,9999,9999,2079017064
82,19,17,Jits_Phase_5,95,9999,9999,9999,2079516752
82,19,17,Jits_Phase_5,96,9999,9999,9999,2080016504
82,19,17,Jits_Phase_5,97,9999,9999,9999,2080467032
82,19,17,Jits_Phase_5,98,9999,9999,9999,2080966756
82,19,17,Jits_Phase_5,99,9999,9999,9999,2081466440
82,19,17,Jits_Phase_5,100,9999,9999,9999,2081966188
82,19,17,Jits_Phase_5,101,9999,9999,9999,2082466904
82,19,17,Jits_Phase_5,102,9999,9999,9999,2082966644
82,19,17,Jits_Phase_5,103,9999,9999,9999,2083466336
82,19,17,Jits_Phase_5,104,9999,9999,9999,2083967068
82,19,17,Jits_Phase_5,105,9999,9999,9999,2084466812
82,19,17,Jits_Phase_5,106,9999,9999,9999,2084966484
82,19,17,Jits_Phase_5,107,9999,9999,9999,2085466232
82,19,17,Jits_Phase_5,108,9999,9999,9999,2085966960
82,19,17,Jits_Phase_5,109,9999,9999,9999,2086466636
82,19,17,Jits_Phase_5,110,9999,9999,9999,2086966324
82,19,17,Jits_Phase_5,111,9999,9999,9999,2087467136
82,19,17,Jits_Phase_5,112,9999,9999,9999,2087977084
82,19,17,Jits_Phase_5,113,9999,9999,9999,2088476780
82,19,17,Jits_Phase_5,114,9999,9999,9999,2089026644
82,19,17,Jits_Phase_5,115,9999,9999,9999,2089526388
82,19,17,Jits_Phase_5,116,9999,9999,9999,2090027108
82,19,17,Jits_Phase_5,117,9999,9999,9999,2090537060
82,19,17,Jits_Phase_5,118,9999,9999,9999,2091036752
82,19,17,Jits_Phase_5,119,9999,9999,9999,2091536496
82,19,17,Jits_Phase_5,120,9999,9999,9999,2092036188
82,19,17,Jits_Phase_5,121,9999,9999,9999,2092536912
82,19,17,Jits_Phase_5,122,9999,9999,9999,2093036596
82,19,17,Jits_Phase_5,123,9999,9999,9999,2093536364
82,19,17,Jits_Phase_5,124,9999,9999,9999,2094037080
82,19,17,Jits_Phase_5,125,9999,9999,9999,2094536804
82,19,17,Jits_Phase_5,126,9999,9999,9999,2095036492
82,19,17,Jits_Phase_5,127,9999,9999,9999,2095536232
82,19,17,Jits_Phase_5,128,9999,9999,9999,2096036956
82,19,17,Jits_Phase_5,129,9999,9999,9999,2096536648
82,19,17,Jits_Phase_5,130,9999,9999,9999,2097036412
82,19,17,Jits_Phase_5,131,9999,9999,9999,2097636424
82,19,17,Jits_Phase_5,132,9999,9999,9999,2098136180
82,19,17,Jits_Phase_5,133,9999,9999,9999,2098636904
82,19,17,Jits_Phase_5,134,9999,9999,9999,2099136620
82,19,17,Jits_Phase_5,135,9999,9999,9999,2099636300
82,19,17,Jits_Phase_5,136,9999,9999,9999,2100137032
82,19,17,Jits_Phase_5,137,9999,9999,9999,2100636772
82,19,17,Jits_Phase_5,138,9999,9999,9999,2101136448
82,19,17,Jits_Phase_5,139,9999,9999,9999,2101636212
82,19,17,Jits_Phase_5,140,9999,9999,9999,2102136948
82,19,17,Jits_Phase_5,141,9999,9999,9999,2102636636
82,19,17,Jits_Phase_5,142,9999,9999,9999,2103136356
82,19,17,Jits_Phase_5,143,9999,9999,9999,2103637068
82,19,17,Jits_Phase_5,144,9999,9999,9999,2104136824
82,19,17,Jits_Phase_5,145,9999,9999,9999,2104636500
82,19,17,Jits_Phase_5,146,9999,9999,9999,2105136192
82,19,17,Jits_Phase_5,147,9999,9999,9999,2105636916
82,19,17,Jits_Phase_5,148,9999,9999,9999,2106136660
82,19,17,Jits_Phase_5,149,9999,9999,9999,2106636348
82,19,17,Jits_Phase_5,150,9999,9999,9999,2107036740
82,19,17,Jits_Phase_5,151,9999,9999,9999,2107536492
82,19,17,Jits_Phase_5,152,9999,9999,9999,2108036184
82,19,17,Jits_Phase_5,153,9999,9999,9999,2108536908
82,19,17,Jits_Phase_5,154,9999,9999,9999,2109036660
82,19,17,Jits_Phase_5,155,9999,9999,9999,2109536344
82,19,17,Jits_Phase_5,156,9999,9999,9999,2110037052
82,19,17,Jits_Phase_5,157,9999,9999,9999,2110536792
82,19,17,Jits_Phase_5,158,9999,9999,9999,2111036544
82,19,17,Jits_Phase_5,159,9999,9999,9999,2111536212
82,19,17,Jits_Phase_5,160,9999,9999,9999,2112036948
82,19,17,Jits_Phase_5,161,9999,9999,9999,2112536640
82,19,17,Jits_Phase_5,162,9999,9999,9999,2113036404
82,19,17,Jits_Phase_5,163,9999,9999,9999,2113536092
82,19,17,Jits_Phase_5,164,9999,9999,9999,2114036812
82,19,17,Jits_Phase_5,165,9999,9999,9999,2114536564
82,19,17,Jits_Phase_5,166,9999,9999,9999,2115036248
82,19,17,Jits_Phase_5,167,9999,9999,9999,2115536980
82,19,17,Jits_Phase_5,168,9999,9999,9999,2116036708
82,19,17,Jits_Phase_5,169,9999,9999,9999,2116536380
82,20,3,ISIP_8,0,5,42,127,2191534488
82,20,3,ISIP_8,1,5,42,127,2192335388
82,20,3,ISIP_8,2,1,48,65,2193127480
82,20,3,ISIP_8,3,5,42,127,2193135136
82,20,3,ISIP_8,4,1,48,65,2193894296
82,20,3,ISIP_8,5,5,42,127,2193934648
82,20,3,ISIP_8,6,1,48,59,2194689616
82,20,3,ISIP_8,7,5,42,127,2194734380
82,20,3,ISIP_8,8,1,48,61,2195490472
82,20,3,ISIP_8,9,5,42,127,2195535308
82,20,3,ISIP_8,10,1,48,61,2196316612
82,20,3,ISIP_8,11,5,42,127,2196334892
82,20,3,ISIP_8,12,1,48,44,2197064060
82,20,3,ISIP_8,13,5,42,127,2197134552
82,20,3,ISIP_8,14,1,48,70,2197865512
82,20,3,ISIP_8,15,5,42,127,2197934360
82,20,3,ISIP_8,16,1,48,70,2198689184
82,20,3,ISIP_8,17,5,42,127,2198735312
82,20,3,ISIP_8,18,1,48,71,2199485776
82,20,3,ISIP_8,19,5,42,127,2199534896
82,20,3,ISIP_8,20,1,48,70,2200301384
82,20,3,ISIP_8,21,5,42,127,2200334704
82,20,3,ISIP_8,22,1,48,64,2201105984
82,20,3,ISIP_8,23,5,42,127,2201134436
82,20,3,ISIP_8,24,1,48,62,2201884024
82,20,3,ISIP_8,25,5,42,127,2201935292
82,20,3,ISIP_8,26,1,48,60,2202663636
82,20,3,ISIP_8,27,5,42,127,2202735100
82,20,3,ISIP_8,28,1,48,67,2203488952
82,20,3,ISIP_8,29,5,42,127,2203534684
82,20,3,ISIP_8,30,1,48,77,2204291428
82,20,3,ISIP_8,31,5,42,127,2204334392
82,20,3,ISIP_8,32,1,48,73,2205094820
82,20,3,ISIP_8,33,5,42,127,2205135196
82,20,3,ISIP_8,34,1,48,58,2205913208
82,20,3,ISIP_8,35,5,42,127,2205935152
82,20,3,ISIP_8,36,1,48,74,2206692744
82,20,3,ISIP_8,37,5,42,127,2206734664
82,20,3,ISIP_8,38,1,48,70,2207490460
82,20,3,ISIP_8,39,5,42,127,2207534472
82,20,3,ISIP_8,40,1,48,71,2208296400
82,20,3,ISIP_8,41,5,42,127,2208335100
82,20,3,ISIP_8,42,1,48,77,2209099720
82,20,3,ISIP_8,43,5,42,127,2209135280
82,20,3,ISIP_8,44,1,48,68,2209881876
82,20,3,ISIP_8,45,5,42,127,2209934644
82,20,3,ISIP_8,46,1,48,70,2210667248
82,20,3,ISIP_8,47,5,42,127,2210734300
82,20,3,ISIP_8,48,1,48,88,2211507600
82,20,3,ISIP_8,49,5,42,127,2211535180
82,20,3,ISIP_8,50,1,48,81,2212295012
82,20,3,ISIP_8,51,5,42,127,2212335064
82,20,3,ISIP_8,52,1,48,77,2213067596
82,20,3,ISIP_8,53,5,42,127,2213134872
82,20,3,ISIP_8,54,1,48,74,2213920812
82,20,3,ISIP_8,55,5,42,127,2213934456
82,20,3,ISIP_8,56,1,48,65,2214691668
82,20,3,ISIP_8,57,5,42,127,2214735088
82,20,3,ISIP_8,58,1,48,73,2215491928
82,20,3,ISIP_8,59,1,48,70,2216277300
82,20,3,ISIP_8,60,1,48,69,2217066708
82,20,3,ISIP_8,61,1,48,86,2217862172
82,20,3,ISIP_8,62,1,48,89,2218659576
82,20,3,ISIP_8,63,1,48,79,2219455496
82,20,3,ISIP_8,64,1,48,82,2220236248
82,20,3,ISIP_8,65,1,48,81,2221046976
82,20,3,ISIP_8,66,1,48,84,2221834360
82,20,3,ISIP_8,67,1,48,93,2222646732
82,20,3,ISIP_8,68,1,48,94,2223428208
82,20,3,ISIP_8,69,1,48,73,2224226068
82,20,3,ISIP_8,70,1,48,69,2225000964
82,20,3,ISIP_8,71,1,48,100,2225764788
82,20,3,ISIP_8,72,1,48,78,2226575368
82,20,3,ISIP_8,73,1,48,63,2227349288
82,20,3,ISIP_8,74,1,48,78,2228131588
82,20,3,ISIP_8,75,1,48,68,2228898556
82,20,3,ISIP_8,76,1,48,79,2229676892
82,20,3,ISIP_8,77,1,48,92,2230441540
82,20,3,ISIP_8,78,1,48,78,2231208060
82,20,3,ISIP_8,79,1,48,83,2231996044
82,20,3,ISIP_8,80,1,48,87,2232731224
82,20,3,ISIP_8,81,1,48,82,2233525644
82,20,3,ISIP_8,82,1,48,91,2234313128
82,20,3,ISIP_8,83,1,48,68,2235130284
82,20,3,ISIP_8,84,1,48,83,2235910196
82,20,3,ISIP_8,85,1,48,83,2236667212
82,20,3,ISIP_8,86,1,48,71,2237454000
82,20,3,ISIP_8,87,1,48,92,2238210200
82,20,3,ISIP_8,88,1,48,84,2238982996
82,20,3,ISIP_8,89,1,48,91,2239748248
82,20,3,ISIP_8,90,1,48,82,2240495316
82,20,3,ISIP_8,91,1,48,74,2241273356
82,20,3,ISIP_8,92,1,48,91,2242045336
82,20,3,ISIP_8,93,1,48,89,2242776996
82,20,3,ISIP_8,94,1,48,91,2243520520
82,20,3,ISIP_8,95,1,48,89,2244333220
82,20,3,ISIP_8,96,1,48,82,2245091200
82,20,3,ISIP_8,97,1,48,79,2245843952
82,20,3,ISIP_8,98,1,48,91,2246555172
82,20,3,ISIP_8,99,1,48,79,2247328276
82,20,3,ISIP_8,100,1,48,83,2248146428
82,20,3,ISIP_8,101,1,48,72,2248905768
82,20,3,ISIP_8,102,1,48,63,2249679172
82,20,3,ISIP_8,103,1,48,78,2250445164
82,20,3,ISIP_8,104,1,48,66,2251200664
82,20,3,ISIP_8,105,1,48,82,2251970496
82,20,3,ISIP_8,106,1,48,78,2252727420
82,20,3,ISIP_8,107,1,48,72,2253498196
82,20,3,ISIP_8,108,1,48,75,2254226196
82,20,3,ISIP_8,109,1,48,79,2255036096
82,20,3,ISIP_8,110,1,48,80,2255808900
82,20,3,ISIP_8,111,1,48,91,2256554548
82,20,3,ISIP_8,112,1,48,80,2257376968
82,20,3,ISIP_8,113,1,48,78,2258117304
82,20,3,ISIP_8,114,1,48,87,2258898856
82,20,3,ISIP_8,115,1,48,88,2259693052
82,20,3,ISIP_8,116,1,48,74,2260478200
82,20,3,ISIP_8,117,1,48,83,2261243072
82,20,3,ISIP_8,118,1,48,83,2262020808
82,20,3,ISIP_8,119,1,48,83,2262796004
82,20,3,ISIP_8,120,1,48,89,2263604484
82,20,3,ISIP_8,121,1,48,80,2264361356
82,20,3,ISIP_8,122,1,48,53,2265188912
82,20,3,ISIP_8,123,1,48,75,2265969416
82,20,3,ISIP_8,124,1,48,66,2266755832
82,20,3,ISIP_8,125,1,48,70,2267526304
82,20,3,ISIP_8,126,1,48,69,2268308300
82,20,3,ISIP_8,127,1,48,80,2269086636
82,20,3,ISIP_8,128,1,48,76,2269866544
82,20,3,ISIP_8,129,1,48,68,2270682380
82,20,3,ISIP_8,130,1,48,85,2271468724
82,20,3,ISIP_8,131,1,48,62,2272274056
82,20,3,ISIP_8,132,1,48,63,2273062864
82,20,3,ISIP_8,133,1,48,83,2273838588
82,20,3,ISIP_8,134,1,48,74,2274580420
82,20,3,ISIP_8,135,1,48,92,2275358536
82,20,3,ISIP_8,136,1,48,84,2276146748
82,20,3,ISIP_8,137,1,48,63,2276932716
82,20,3,ISIP_8,138,1,48,82,2277708280
82,20,3,ISIP_8,139,1,48,92,2278463508
82,20,3,ISIP_8,140,1,48,84,2279198536
82,20,3,ISIP_8,141,1,48,84,2280024740
82,20,3,ISIP_8,142,1,48,93,2280818188
82,20,3,ISIP_8,143,1,48,84,2281581716
82,20,3,ISIP_8,144,1,48,84,2282328416
82,20,3,ISIP_8,145,1,48,87,2283087452
82,20,3,ISIP_8,146,1,48,72,2283850980
82,20,3,ISIP_8,147,1,48,89,2284609268
82,20,3,ISIP_8,148,1,48,81,2285376692
82,20,3,ISIP_8,149,1,48,83,2286158092
82,20,3,ISIP_8,150,1,48,84,2286921316
82,20,3,ISIP_8,151,1,48,86,2287661432
82,20,3,ISIP_8,152,1,48,85,2288471632
82,20,3,ISIP_8,153,1,48,80,2289258344
82,20,3,ISIP_8,154,1,48,89,2290024940
82,20,3,ISIP_8,155,1,48,71,2290835592
82,20,3,ISIP_8,156,1,48,76,2291571364
82,20,3,ISIP_8,157,1,48,94,2292325756
82,20,3,ISIP_8,158,1,48,79,2293146288
82,20,3,ISIP_8,159,1,48,74,2293918480
82,20,3,ISIP_8,160,1,48,77,2294736272
82,20,3,ISIP_8,161,1,48,80,2295492904
82,20,3,ISIP_8,162,1,48,89,2296272964
82,20,3,ISIP_8,163,1,48,65,2297041200
82,20,3,ISIP_8,164,1,48,62,2297802184
82,20,3,ISIP_8,165,1,48,83,2298571248
82,20,3,ISIP_8,166,1,48,67,2299354224
82,20,3,ISIP_8,167,1,48,61,2300138620
82,20,3,ISIP_8,168,1,48,96,2300913436
82,20,3,ISIP_8,169,1,48,91,2301667768
82,20,3,ISIP_8,170,1,48,94,2302516492
82,20,3,ISIP_8,171,1,48,86,2303271264
82,20,3,ISIP_8,172,1,48,66,2304048184
82,20,3,ISIP_8,173,1,48,90,2304791508
82,20,3,ISIP_8,174,1,48,85,2305596480
82,20,3,ISIP_8,175,1,48,67,2306390524
82,20,3,ISIP_8,176,1,48,98,2307190100
82,20,3,ISIP_8,177,1,48,88,2308002692
82,20,3,ISIP_8,178,1,48,84,2308746996
82,20,3,ISIP_8,179,1,48,46,2309551144
82,20,3,ISIP_8,180,1,48,85,2310374976
82,20,3,ISIP_8,181,1,48,86,2311150324
82,20,3,ISIP_8,0,9999,9999,9999,2191532124
82,20,3,ISIP_8,1,9999,9999,9999,2192332876
82,20,3,ISIP_8,2,9999,9999,9999,2193132624
82,20,3,ISIP_8,3,9999,9999,9999,2193932360
82,20,3,ISIP_8,4,9999,9999,9999,2194732092
82,20,3,ISIP_8,5,9999,9999,9999,2195532872
82,20,3,ISIP_8,6,9999,9999,9999,2196332604
82,20,3,ISIP_8,7,9999,9999,9999,2197132336
82,20,3,ISIP_8,8,9999,9999,9999,2197932144
82,20,3,ISIP_8,9,9999,9999,9999,2198732876
82,20,3,ISIP_8,10,9999,9999,9999,2199532608
82,20,3,ISIP_8,11,9999,9999,9999,2200332340
82,20,3,ISIP_8,12,9999,9999,9999,2201132152
82,20,3,ISIP_8,13,9999,9999,9999,2201932856
82,20,3,ISIP_8,14,9999,9999,9999,2202732588
82,20,3,ISIP_8,15,9999,9999,9999,2203532396
82,20,3,ISIP_8,16,9999,9999,9999,2204332104
82,20,3,ISIP_8,17,9999,9999,9999,2205132908
82,20,3,ISIP_8,18,9999,9999,9999,2205932644
82,20,3,ISIP_8,19,9999,9999,9999,2206732376
82,20,3,ISIP_8,20,9999,9999,9999,2207532108
82,20,3,ISIP_8,21,9999,9999,9999,2208332888
82,20,3,ISIP_8,22,9999,9999,9999,2209132620
82,20,3,ISIP_8,23,9999,9999,9999,2209932356
82,20,3,ISIP_8,24,9999,9999,9999,2210732088
82,20,3,ISIP_8,25,9999,9999,9999,2211532892
82,20,3,ISIP_8,26,9999,9999,9999,2212332628
82,20,3,ISIP_8,27,9999,9999,9999,2213132360
82,20,3,ISIP_8,28,9999,9999,9999,2213932096
82,20,3,ISIP_8,29,9999,9999,9999,2214732872
82,20,3,ISIP_8,30,9999,9999,9999,2215532608
82,20,3,ISIP_8,31,9999,9999,9999,2216332336
82,20,3,ISIP_8,32,9999,9999,9999,2217132140
82,20,3,ISIP_8,33,9999,9999,9999,2217932864
82,20,3,ISIP_8,34,9999,9999,9999,2218732592
82,20,3,ISIP_8,35,9999,9999,9999,2219532396
82,20,3,ISIP_8,36,9999,9999,9999,2220332128
82,20,3,ISIP_8,37,9999,9999,9999,2221132904
82,20,3,ISIP_8,38,9999,9999,9999,2221932616
82,20,3,ISIP_8,39,9999,9999,9999,2222732364
82,20,3,ISIP_8,40,9999,9999,9999,2223532152
82,20,3,ISIP_8,41,9999,9999,9999,2224332876
82,20,3,ISIP_8,42,9999,9999,9999,2225132608
82,20,3,ISIP_8,43,9999,9999,9999,2225932336
82,20,3,ISIP_8,44,9999,9999,9999,2226732140
82,20,3,ISIP_8,45,9999,9999,9999,2227532912
82,20,3,ISIP_8,46,9999,9999,9999,2228332640
82,20,3,ISIP_8,47,9999,9999,9999,2229132372
82,20,3,ISIP_8,48,9999,9999,9999,2229932100
82,20,3,ISIP_8,49,9999,9999,9999,2230732900
82,20,3,ISIP_8,50,9999,9999,9999,2231532628
82,20,3,ISIP_8,51,9999,9999,9999,2232332356
82,20,3,ISIP_8,52,9999,9999,9999,2233132088
82,20,3,ISIP_8,53,9999,9999,9999,2233932864
82,20,3,ISIP_8,54,9999,9999,9999,2234732592
82,20,3,ISIP_8,55,9999,9999,9999,2235532396
82,20,3,ISIP_8,56,9999,9999,9999,2236332124
82,20,3,ISIP_8,57,9999,9999,9999,2237132852
82,20,3,ISIP_8,58,9999,9999,9999,2237932656
82,20,3,ISIP_8,59,9999,9999,9999,2238732384
82,20,3,ISIP_8,60,9999,9999,9999,2239532112
82,20,3,ISIP_8,61,9999,9999,9999,2240332888
82,20,3,ISIP_8,62,9999,9999,9999,2241132616
82,20,3,ISIP_8,63,9999,9999,9999,2241932348
82,20,3,ISIP_8,64,9999,9999,9999,2242732152
82,20,3,ISIP_8,65,9999,9999,9999,2243532872
82,20,3,ISIP_8,66,9999,9999,9999,2244332624
82,20,3,ISIP_8,67,9999,9999,9999,2245132404
82,20,3,ISIP_8,68,9999,9999,9999,2245932132
82,20,3,ISIP_8,69,9999,9999,9999,2246732892
82,20,3,ISIP_8,70,9999,9999,9999,2247532620
82,20,3,ISIP_8,71,9999,9999,9999,2248332348
82,20,3,ISIP_8,72,9999,9999,9999,2249132080
82,20,3,ISIP_8,73,9999,9999,9999,2249932880
82,20,3,ISIP_8,74,9999,9999,9999,2250732608
82,20,3,ISIP_8,75,9999,9999,9999,2251532336
82,20,3,ISIP_8,76,9999,9999,9999,2252332140
82,20,3,ISIP_8,77,9999,9999,9999,2253132916
82,20,3,ISIP_8,78,9999,9999,9999,2253932648
82,20,3,ISIP_8,79,9999,9999,9999,2254732376
82,20,3,ISIP_8,80,9999,9999,9999,2255532104
82,20,3,ISIP_8,81,9999,9999,9999,2256332904
82,20,3,ISIP_8,82,9999,9999,9999,2257132632
82,20,3,ISIP_8,83,9999,9999,9999,2257932364
82,20,3,ISIP_8,84,9999,9999,9999,2258732092
82,20,3,ISIP_8,85,9999,9999,9999,2259532868
82,20,3,ISIP_8,86,9999,9999,9999,2260332596
82,20,3,ISIP_8,87,9999,9999,9999,2261132400
82,20,3,ISIP_8,88,9999,9999,9999,2261932128
82,20,3,ISIP_8,89,9999,9999,9999,2262732856
82,20,3,ISIP_8,90,9999,9999,9999,2263532660
82,20,3,ISIP_8,91,9999,9999,9999,2264332388
82,20,3,ISIP_8,92,9999,9999,9999,2265132120
82,20,3,ISIP_8,93,9999,9999,9999,2265932896
82,20,3,ISIP_8,94,9999,9999,9999,2266732624
82,20,3,ISIP_8,95,9999,9999,9999,2267532348
82,20,3,ISIP_8,96,9999,9999,9999,2268332152
82,20,3,ISIP_8,97,9999,9999,9999,2269132876
82,20,3,ISIP_8,98,9999,9999,9999,2269932604
82,20,3,ISIP_8,99,9999,9999,9999,2270732332
82,20,3,ISIP_8,100,9999,9999,9999,2271532136
82,20,3,ISIP_8,101,9999,9999,9999,2272332912
82,20,3,ISIP_8,102,9999,9999,9999,2273132644
82,20,3,ISIP_8,103,9999,9999,9999,2273932372
82,20,3,ISIP_8,104,9999,9999,9999,2274732088
82,20,3,ISIP_8,105,9999,9999,9999,2275532888
82,20,3,ISIP_8,106,9999,9999,9999,2276332616
82,20,3,ISIP_8,107,9999,9999,9999,2277132344
82,20,3,ISIP_8,108,9999,9999,9999,2277932148
82,20,3,ISIP_8,109,9999,9999,9999,2278732852
82,20,3,ISIP_8,110,9999,9999,9999,2279532656
82,20,3,ISIP_8,111,9999,9999,9999,2280332384
82,20,3,ISIP_8,112,9999,9999,9999,2281132112
82,20,3,ISIP_8,113,9999,9999,9999,2281932916
82,20,3,ISIP_8,114,9999,9999,9999,2282732644
82,20,3,ISIP_8,115,9999,9999,9999,2283532372
82,20,3,ISIP_8,116,9999,9999,9999,2284332100
82,20,3,ISIP_8,117,9999,9999,9999,2285132876
82,20,3,ISIP_8,118,9999,9999,9999,2285932608
82,20,3,ISIP_8,119,9999,9999,9999,2286732336
82,20,3,ISIP_8,120,9999,9999,9999,2287532140
82,20,3,ISIP_8,121,9999,9999,9999,2288332864
82,20,3,ISIP_8,122,9999,9999,9999,2289132596
82,20,3,ISIP_8,123,9999,9999,9999,2289932396
82,20,3,ISIP_8,124,9999,9999,9999,2290732124
82,20,3,ISIP_8,125,9999,9999,9999,2291532900
82,20,3,ISIP_8,126,9999,9999,9999,2292332624
82,20,3,ISIP_8,127,9999,9999,9999,2293132360
82,20,3,ISIP_8,128,9999,9999,9999,2293932084
82,20,3,ISIP_8,129,9999,9999,9999,2294732888
82,20,3,ISIP_8,130,9999,9999,9999,2295532612
82,20,3,ISIP_8,131,9999,9999,9999,2296332340
82,20,3,ISIP_8,132,9999,9999,9999,2297132144
82,20,3,ISIP_8,133,9999,9999,9999,2297932904
82,20,3,ISIP_8,134,9999,9999,9999,2298732632
82,20,3,ISIP_8,135,9999,9999,9999,2299532364
82,20,3,ISIP_8,136,9999,9999,9999,2300332092
82,20,3,ISIP_8,137,9999,9999,9999,2301132892
82,20,3,ISIP_8,138,9999,9999,9999,2301932624
82,20,3,ISIP_8,139,9999,9999,9999,2302732352
82,20,3,ISIP_8,140,9999,9999,9999,2303532084
82,20,3,ISIP_8,141,9999,9999,9999,2304332856
82,20,3,ISIP_8,142,9999,9999,9999,2305132660
82,20,3,ISIP_8,143,9999,9999,9999,2305932392
82,20,3,ISIP_8,144,9999,9999,9999,2306732120
82,20,3,ISIP_8,145,9999,9999,9999,2307532848
82,20,3,ISIP_8,146,9999,9999,9999,2308332648
82,20,3,ISIP_8,147,9999,9999,9999,2309132380
82,20,3,ISIP_8,148,9999,9999,9999,2309932108
82,20,3,ISIP_8,149,9999,9999,9999,2310732884
82,21,5,ISIP_5,0,5,42,127,2333652384
82,21,5,ISIP_5,1,5,42,127,2334152024
82,21,5,ISIP_5,2,5,42,127,2334651864
82,21,5,ISIP_5,3,1,48,48,2334671092
82,21,5,ISIP_5,4,5,42,127,2335151412
82,21,5,ISIP_5,5,1,48,49,2335182452
82,21,5,ISIP_5,6,5,42,127,2335652304
82,21,5,ISIP_5,7,1,48,76,2335710872
82,21,5,ISIP_5,8,5,42,127,2336152072
82,21,5,ISIP_5,9,1,48,69,2336201660
82,21,5,ISIP_5,10,5,42,127,2336651692
82,21,5,ISIP_5,11,1,48,60,2336674036
82,21,5,ISIP_5,12,5,42,127,2337152508
82,21,5,ISIP_5,13,1,48,54,2337172832
82,21,5,ISIP_5,14,5,42,127,2337652352
82,21,5,ISIP_5,15,1,48,70,2337692120
82,21,5,ISIP_5,16,5,42,127,2338151824
82,21,5,ISIP_5,17,1,48,79,2338171324
82,21,5,ISIP_5,18,5,42,127,2338651592
82,21,5,ISIP_5,19,1,48,63,2338667728
82,21,5,ISIP_5,20,5,42,127,2339152408
82,21,5,ISIP_5,21,1,48,90,2339178644
82,21,5,ISIP_5,22,5,42,127,2339651808
82,21,5,ISIP_5,23,1,48,86,2339652772
82,21,5,ISIP_5,24,5,42,127,2340151648
82,21,5,ISIP_5,25,1,48,63,2340195460
82,21,5,ISIP_5,26,5,42,127,2340652392
82,21,5,ISIP_5,27,1,48,84,2340667632
82,21,5,ISIP_5,28,5,42,127,2341152384
82,21,5,ISIP_5,29,1,48,67,2341158496
82,21,5,ISIP_5,30,5,42,127,2341651780
82,21,5,ISIP_5,31,1,48,82,2341659460
82,21,5,ISIP_5,32,5,42,127,2342151476
82,21,5,ISIP_5,33,1,48,69,2342158560
82,21,5,ISIP_5,34,5,42,127,2342652364
82,21,5,ISIP_5,35,1,48,59,2342667608
82,21,5,ISIP_5,36,5,42,127,2343152212
82,21,5,ISIP_5,37,1,48,65,2343174852
82,21,5,ISIP_5,38,5,42,127,2343651608
82,21,5,ISIP_5,39,1,48,75,2343688612
82,21,5,ISIP_5,40,5,42,127,2344152424
82,21,5,ISIP_5,41,1,48,62,2344179104
82,21,5,ISIP_5,42,1,48,65,2344643400
82,21,5,ISIP_5,43,5,42,127,2344652336
82,21,5,ISIP_5,44,5,42,127,2345152112
82,21,5,ISIP_5,45,1,48,54,2345170864
82,21,5,ISIP_5,46,5,42,127,2345651708
82,21,5,ISIP_5,47,1,48,67,2345683128
82,21,5,ISIP_5,48,5,42,127,2346152376
82,21,5,ISIP_5,49,1,48,52,2346178784
82,21,5,ISIP_5,50,5,42,127,2346652216
82,21,5,ISIP_5,51,1,48,73,2346653184
82,21,5,ISIP_5,52,5,42,127,2347151764
82,21,5,ISIP_5,53,1,48,82,2347170216
82,21,5,ISIP_5,54,5,42,127,2347651460
82,21,5,ISIP_5,55,1,48,74,2347681060
82,21,5,ISIP_5,56,5,42,127,2348152128
82,21,5,ISIP_5,57,1,48,61,2348192344
82,21,5,ISIP_5,58,5,42,127,2348652192
82,21,5,ISIP_5,59,1,48,61,2348683136
82,21,5,ISIP_5,60,5,42,127,2349151740
82,21,5,ISIP_5,61,1,48,59,2349173260
82,21,5,ISIP_5,62,5,42,127,2349652332
82,21,5,ISIP_5,63,1,48,58,2349670860
82,21,5,ISIP_5,64,5,42,127,2350152252
82,21,5,ISIP_5,65,1,48,52,2350185592
82,21,5,ISIP_5,66,5,42,127,2350651720
82,21,5,ISIP_5,67,1,48,59,2350663140
82,21,5,ISIP_5,68,5,42,127,2351151492
82,21,5,ISIP_5,69,1,48,65,2351160520
82,21,5,ISIP_5,70,5,42,127,2351652160
82,21,5,ISIP_5,71,1,48,55,2351686468
82,21,5,ISIP_5,72,5,42,127,2352152004
82,21,5,ISIP_5,73,1,48,67,2352209872
82,21,5,ISIP_5,74,5,42,127,2352651624
82,21,5,ISIP_5,75,1,48,67,2352671196
82,21,5,ISIP_5,76,5,42,127,2353152292
82,21,5,ISIP_5,77,1,48,57,2353195204
82,21,5,ISIP_5,78,1,48,71,2353682848
82,21,5,ISIP_5,79,1,48,66,2354220836
82,21,5,ISIP_5,80,1,48,68,2354698012
82,21,5,ISIP_5,81,1,48,58,2355203240
82,21,5,ISIP_5,82,1,48,61,2355705172
82,21,5,ISIP_5,83,1,48,59,2356195740
82,21,5,ISIP_5,84,1,48,60,2356710312
82,21,5,ISIP_5,85,1,48,66,2357227660
82,21,5,ISIP_5,86,1,48,67,2357778512
82,21,5,ISIP_5,87,1,48,68,2358265852
82,21,5,ISIP_5,88,1,48,79,2358768844
82,21,5,ISIP_5,89,1,48,83,2359290224
82,21,5,ISIP_5,90,1,48,67,2359804948
82,21,5,ISIP_5,91,1,48,76,2360300372
82,21,5,ISIP_5,92,1,48,68,2360800888
82,21,5,ISIP_5,93,1,48,99,2361327884
82,21,5,ISIP_5,94,1,48,63,2361805204
82,21,5,ISIP_5,95,1,48,73,2362321872
82,21,5,ISIP_5,96,1,48,45,2362807780
82,21,5,ISIP_5,97,1,48,86,2363318616
82,21,5,ISIP_5,98,1,48,74,2363841440
82,21,5,ISIP_5,99,1,48,79,2364332804
82,21,5,ISIP_5,100,1,48,64,2364834068
82,21,5,ISIP_5,101,1,48,70,2365325904
82,21,5,ISIP_5,102,1,48,91,2365855360
82,21,5,ISIP_5,103,1,48,83,2366337256
82,21,5,ISIP_5,104,1,48,83,2366836344
82,21,5,ISIP_5,105,1,48,90,2367339028
82,21,5,ISIP_5,106,1,48,95,2367834156
82,21,5,ISIP_5,107,1,48,83,2368327612
82,21,5,ISIP_5,108,1,48,80,2368824464
82,21,5,ISIP_5,109,1,48,85,2369335144
82,21,5,ISIP_5,110,1,48,92,2369853384
82,21,5,ISIP_5,111,1,48,77,2370344624
82,21,5,ISIP_5,112,1,48,96,2370861520
82,21,5,ISIP_5,113,1,48,78,2371381556
82,21,5,ISIP_5,114,1,48,81,2371872872
82,21,5,ISIP_5,115,1,48,71,2372394996
82,21,5,ISIP_5,116,1,48,86,2372883320
82,21,5,ISIP_5,117,1,48,84,2373384656
82,21,5,ISIP_5,118,1,48,88,2373893020
82,21,5,ISIP_5,119,1,48,89,2374405880
82,21,5,ISIP_5,120,1,48,69,2374918216
82,21,5,ISIP_5,121,1,48,74,2375410348
82,21,5,ISIP_5,122,1,48,78,2375897996
82,21,5,ISIP_5,123,1,48,83,2376417436
82,21,5,ISIP_5,124,1,48,89,2376917720
82,21,5,ISIP_5,125,1,48,95,2377394276
82,21,5,ISIP_5,126,1,48,101,2377882972
82,21,5,ISIP_5,127,1,48,102,2378381540
82,21,5,ISIP_5,128,1,48,76,2378897912
82,21,5,ISIP_5,129,1,48,83,2379402980
82,21,5,ISIP_5,130,1,48,92,2379901328
82,21,5,ISIP_5,131,1,48,74,2380431836
82,21,5,ISIP_5,132,1,48,85,2380925688
82,21,5,ISIP_5,133,1,48,107,2381437796
82,21,5,ISIP_5,134,1,48,92,2381950056
82,21,5,ISIP_5,135,1,48,91,2382470760
82,21,5,ISIP_5,136,1,48,98,2382983320
82,21,5,ISIP_5,137,1,48,97,2383515996
82,21,5,ISIP_5,138,1,48,96,2384043880
82,21,5,ISIP_5,139,1,48,76,2384576060
82,21,5,ISIP_5,140,1,48,65,2385083376
82,21,5,ISIP_5,141,1,48,78,2385604088
82,21,5,ISIP_5,142,1,48,76,2386143044
82,21,5,ISIP_5,143,1,48,88,2386697356
82,21,5,ISIP_5,144,1,48,89,2387222776
82,21,5,ISIP_5,145,1,48,64,2387713564
82,21,5,ISIP_5,146,1,48,79,2388287532
82,21,5,ISIP_5,147,1,48,87,2388813620
82,21,5,ISIP_5,148,1,48,100,2389337252
82,21,5,ISIP_5,149,1,48,89,2389860124
82,21,5,ISIP_5,150,1,48,90,2390404020
82,21,5,ISIP_5,151,1,48,93,2390955400
82,21,5,ISIP_5,152,1,48,87,2391513676
82,21,5,ISIP_5,153,1,48,89,2392058924
82,21,5,ISIP_5,154,1,48,78,2392569160
82,21,5,ISIP_5,155,1,48,62,2393100340
82,21,5,ISIP_5,156,1,48,81,2393656816
82,21,5,ISIP_5,157,1,48,86,2394196524
82,21,5,ISIP_5,158,1,48,75,2394760392
82,21,5,ISIP_5,159,1,48,91,2395297032
82,21,5,ISIP_5,160,1,48,71,2395842072
82,21,5,ISIP_5,161,1,48,83,2396380056
82,21,5,ISIP_5,162,1,48,80,2396907500
82,21,5,ISIP_5,163,1,48,65,2397430832
82,21,5,ISIP_5,164,1,48,82,2397940992
82,21,5,ISIP_5,165,1,48,77,2398466036
82,21,5,ISIP_5,166,1,48,95,2398995048
82,21,5,ISIP_5,167,1,48,84,2399533188
82,21,5,ISIP_5,168,1,48,82,2400050076
82,21,5,ISIP_5,169,1,48,91,2400596964
82,21,5,ISIP_5,170,1,48,88,2401109152
82,21,5,ISIP_5,171,1,48,81,2401618564
82,21,5,ISIP_5,172,1,48,89,2402166368
82,21,5,ISIP_5,173,1,48,91,2402692756
82,21,5,ISIP_5,174,1,48,98,2403222440
82,21,5,ISIP_5,175,1,48,77,2403730440
82,21,5,ISIP_5,176,1,48,88,2404263332
82,21,5,ISIP_5,177,1,48,88,2404778584
82,21,5,ISIP_5,178,1,48,88,2405330432
82,21,5,ISIP_5,179,1,48,88,2405825112
82,21,5,ISIP_5,180,1,48,84,2406388532
82,21,5,ISIP_5,181,1,48,83,2406883060
82,21,5,ISIP_5,182,1,48,81,2407400252
82,21,5,ISIP_5,183,1,48,92,2407916928
82,21,5,ISIP_5,184,1,48,85,2408446088
82,21,5,ISIP_5,185,1,48,70,2408977792
82,21,5,ISIP_5,186,1,48,83,2409516972
82,21,5,ISIP_5,187,1,48,89,2410067232
82,21,5,ISIP_5,188,1,48,64,2410626532
82,21,5,ISIP_5,189,1,48,78,2411134448
82,21,5,ISIP_5,190,1,48,76,2411639004
82,21,5,ISIP_5,191,1,48,78,2412180520
82,21,5,ISIP_5,192,1,48,84,2412714168
82,21,5,ISIP_5,193,1,48,113,2413244848
82,21,5,ISIP_5,0,9999,9999,9999,2333650020
82,21,5,ISIP_5,1,9999,9999,9999,2334149740
82,21,5,ISIP_5,2,9999,9999,9999,2334649428
82,21,5,ISIP_5,3,9999,9999,9999,2335149124
82,21,5,ISIP_5,4,9999,9999,9999,2335649868
82,21,5,ISIP_5,5,9999,9999,9999,2336149560
82,21,5,ISIP_5,6,9999,9999,9999,2336649332
82,21,5,ISIP_5,7,9999,9999,9999,2337150072
82,21,5,ISIP_5,8,9999,9999,9999,2337649768
82,21,5,ISIP_5,9,9999,9999,9999,2338149460
82,21,5,ISIP_5,10,9999,9999,9999,2338649156
82,21,5,ISIP_5,11,9999,9999,9999,2339149896
82,21,5,ISIP_5,12,9999,9999,9999,2339649592
82,21,5,ISIP_5,13,9999,9999,9999,2340149364
82,21,5,ISIP_5,14,9999,9999,9999,2340650104
82,21,5,ISIP_5,15,9999,9999,9999,2341149800
82,21,5,ISIP_5,16,9999,9999,9999,2341649492
82,21,5,ISIP_5,17,9999,9999,9999,2342149188
82,21,5,ISIP_5,18,9999,9999,9999,2342649928
82,21,5,ISIP_5,19,9999,9999,9999,2343149628
82,21,5,ISIP_5,20,9999,9999,9999,2343649396
82,21,5,ISIP_5,21,9999,9999,9999,2344150136
82,21,5,ISIP_5,22,9999,9999,9999,2344649824
82,21,5,ISIP_5,23,9999,9999,9999,2345149528
82,21,5,ISIP_5,24,9999,9999,9999,2345649272
82,21,5,ISIP_5,25,9999,9999,9999,2346149940
82,21,5,ISIP_5,26,9999,9999,9999,2346649708
82,21,5,ISIP_5,27,9999,9999,9999,2347149404
82,21,5,ISIP_5,28,9999,9999,9999,2347649100
82,21,5,ISIP_5,29,9999,9999,9999,2348149840
82,21,5,ISIP_5,30,9999,9999,9999,2348649536
82,21,5,ISIP_5,31,9999,9999,9999,2349149304
82,21,5,ISIP_5,32,9999,9999,9999,2349649972
82,21,5,ISIP_5,33,9999,9999,9999,2350149740
82,21,5,ISIP_5,34,9999,9999,9999,2350649436
82,21,5,ISIP_5,35,9999,9999,9999,2351149132
82,21,5,ISIP_5,36,9999,9999,9999,2351649872
82,21,5,ISIP_5,37,9999,9999,9999,2352149568
82,21,5,ISIP_5,38,9999,9999,9999,2352649336
82,21,5,ISIP_5,39,9999,9999,9999,2353150004
82,21,5,ISIP_5,40,9999,9999,9999,2353649772
82,21,5,ISIP_5,41,9999,9999,9999,2354149464
82,21,5,ISIP_5,42,9999,9999,9999,2354649156
82,21,5,ISIP_5,43,9999,9999,9999,2355149892
82,21,5,ISIP_5,44,9999,9999,9999,2355649656
82,21,5,ISIP_5,45,9999,9999,9999,2356149324
82,21,5,ISIP_5,46,9999,9999,9999,2356650060
82,21,5,ISIP_5,47,9999,9999,9999,2357149752
82,21,5,ISIP_5,48,9999,9999,9999,2357649516
82,21,5,ISIP_5,49,9999,9999,9999,2358149208
82,21,5,ISIP_5,50,9999,9999,9999,2358649944
82,21,5,ISIP_5,51,9999,9999,9999,2359149636
82,21,5,ISIP_5,52,9999,9999,9999,2359649400
82,21,5,ISIP_5,53,9999,9999,9999,2360150136
82,21,5,ISIP_5,54,9999,9999,9999,2360649828
82,21,5,ISIP_5,55,9999,9999,9999,2361149520
82,21,5,ISIP_5,56,9999,9999,9999,2361649212
82,21,5,ISIP_5,57,9999,9999,9999,2362149948
82,21,5,ISIP_5,58,9999,9999,9999,2362649716
82,21,5,ISIP_5,59,9999,9999,9999,2363149408
82,21,5,ISIP_5,60,9999,9999,9999,2363649100
82,21,5,ISIP_5,61,9999,9999,9999,2364149836
82,21,5,ISIP_5,62,9999,9999,9999,2364649528
82,21,5,ISIP_5,63,9999,9999,9999,2365149292
82,21,5,ISIP_5,64,9999,9999,9999,2365650028
82,21,5,ISIP_5,65,9999,9999,9999,2366149720
82,21,5,ISIP_5,66,9999,9999,9999,2366649460
82,21,5,ISIP_5,67,9999,9999,9999,2367149148
82,21,5,ISIP_5,68,9999,9999,9999,2367649888
82,21,5,ISIP_5,69,9999,9999,9999,2368149552
82,21,5,ISIP_5,70,9999,9999,9999,2368649320
82,21,5,ISIP_5,71,9999,9999,9999,2369150056
82,21,5,ISIP_5,72,9999,9999,9999,2369649748
82,21,5,ISIP_5,73,9999,9999,9999,2370149440
82,21,5,ISIP_5,74,9999,9999,9999,2370649204
82,21,5,ISIP_5,75,9999,9999,9999,2371149940
82,21,5,ISIP_5,76,9999,9999,9999,2371649632
82,21,5,ISIP_5,77,9999,9999,9999,2372149324
82,21,5,ISIP_5,78,9999,9999,9999,2372650060
82,21,5,ISIP_5,79,9999,9999,9999,2373149752
82,21,5,ISIP_5,80,9999,9999,9999,2373649516
82,21,5,ISIP_5,81,9999,9999,9999,2374149208
82,21,5,ISIP_5,82,9999,9999,9999,2374649944
82,21,5,ISIP_5,83,9999,9999,9999,2375149636
82,21,5,ISIP_5,84,9999,9999,9999,2375649328
82,21,5,ISIP_5,85,9999,9999,9999,2376150064
82,21,5,ISIP_5,86,9999,9999,9999,2376649828
82,21,5,ISIP_5,87,9999,9999,9999,2377149520
82,21,5,ISIP_5,88,9999,9999,9999,2377649260
82,21,5,ISIP_5,89,9999,9999,9999,2378150000
82,21,5,ISIP_5,90,9999,9999,9999,2378649688
82,21,5,ISIP_5,91,9999,9999,9999,2379149380
82,21,5,ISIP_5,92,9999,9999,9999,2379649144
82,21,5,ISIP_5,93,9999,9999,9999,2380149880
82,21,5,ISIP_5,94,9999,9999,9999,2380649572
82,21,5,ISIP_5,95,9999,9999,9999,2381149264
82,21,5,ISIP_5,96,9999,9999,9999,2381650000
82,21,5,ISIP_5,97,9999,9999,9999,2382149688
82,21,5,ISIP_5,98,9999,9999,9999,2382649452
82,21,5,ISIP_5,99,9999,9999,9999,2383149144
82,21,5,ISIP_5,100,9999,9999,9999,2383649880
82,21,5,ISIP_5,101,9999,9999,9999,2384149572
82,21,5,ISIP_5,102,9999,9999,9999,2384649280
82,21,5,ISIP_5,103,9999,9999,9999,2385150016
82,21,5,ISIP_5,104,9999,9999,9999,2385649780
82,21,5,ISIP_5,105,9999,9999,9999,2386149472
82,21,5,ISIP_5,106,9999,9999,9999,2386649168
82,21,5,ISIP_5,107,9999,9999,9999,2387149904
82,21,5,ISIP_5,108,9999,9999,9999,2387649596
82,21,5,ISIP_5,109,9999,9999,9999,2388149336
82,21,5,ISIP_5,110,9999,9999,9999,2388650076
82,21,5,ISIP_5,111,9999,9999,9999,2389149768
82,21,5,ISIP_5,112,9999,9999,9999,2389649456
82,21,5,ISIP_5,113,9999,9999,9999,2390149220
82,21,5,ISIP_5,114,9999,9999,9999,2390649956
82,21,5,ISIP_5,115,9999,9999,9999,2391149648
82,21,5,ISIP_5,116,9999,9999,9999,2391649340
82,21,5,ISIP_5,117,9999,9999,9999,2392150092
82,21,5,ISIP_5,118,9999,9999,9999,2392649784
82,21,5,ISIP_5,119,9999,9999,9999,2393149548
82,21,5,ISIP_5,120,9999,9999,9999,2393649244
82,21,5,ISIP_5,121,9999,9999,9999,2394149984
82,21,5,ISIP_5,122,9999,9999,9999,2394649672
82,21,5,ISIP_5,123,9999,9999,9999,2395149364
82,21,5,ISIP_5,124,9999,9999,9999,2395649128
82,21,5,ISIP_5,125,9999,9999,9999,2396149864
82,21,5,ISIP_5,126,9999,9999,9999,2396649556
82,21,5,ISIP_5,127,9999,9999,9999,2397149248
82,21,5,ISIP_5,128,9999,9999,9999,2397649984
82,21,5,ISIP_5,129,9999,9999,9999,2398149752
82,21,5,ISIP_5,130,9999,9999,9999,2398649444
82,21,5,ISIP_5,131,9999,9999,9999,2399149108
82,21,5,ISIP_5,132,9999,9999,9999,2399649848
82,21,5,ISIP_5,133,9999,9999,9999,2400149612
82,21,5,ISIP_5,134,9999,9999,9999,2400649320
82,21,5,ISIP_5,135,9999,9999,9999,2401150056
82,21,5,ISIP_5,136,9999,9999,9999,2401649748
82,21,5,ISIP_5,137,9999,9999,9999,2402149448
82,21,5,ISIP_5,138,9999,9999,9999,2402649136
82,21,5,ISIP_5,139,9999,9999,9999,2403149872
82,21,5,ISIP_5,140,9999,9999,9999,2403649636
82,21,5,ISIP_5,141,9999,9999,9999,2404149328
82,21,5,ISIP_5,142,9999,9999,9999,2404650064
82,21,5,ISIP_5,143,9999,9999,9999,2405149756
82,21,5,ISIP_5,144,9999,9999,9999,2405649520
82,21,5,ISIP_5,145,9999,9999,9999,2406149212
82,21,5,ISIP_5,146,9999,9999,9999,2406649952
82,21,5,ISIP_5,147,9999,9999,9999,2407149640
82,21,5,ISIP_5,148,9999,9999,9999,2407649332
82,21,5,ISIP_5,149,9999,9999,9999,2408150072
82,21,5,ISIP_5,150,9999,9999,9999,2408649836
82,21,5,ISIP_5,151,9999,9999,9999,2409149528
82,21,5,ISIP_5,152,9999,9999,9999,2409649268
82,21,5,ISIP_5,153,9999,9999,9999,2410149948
82,21,5,ISIP_5,154,9999,9999,9999,2410649712
82,21,5,ISIP_5,155,9999,9999,9999,2411149400
82,21,5,ISIP_5,156,9999,9999,9999,2411649092
82,21,5,ISIP_5,157,9999,9999,9999,2412149836
82,21,5,ISIP_5,158,9999,9999,9999,2412649528
82,21,5,ISIP_5,159,9999,9999,9999,2413149292
82,22,11,Pattern_Practice,0,5,42,127,2522994984
82,22,11,Pattern_Practice,1,5,42,127,2523494624
82,22,11,Pattern_Practice,2,5,42,127,2523994340
82,22,11,Pattern_Practice,3,5,42,127,2524495104
82,22,11,Pattern_Practice,4,1,38,44,2524981544
82,22,11,Pattern_Practice,5,5,42,127,2524994888
82,22,11,Pattern_Practice,6,1,38,54,2525260704
82,22,11,Pattern_Practice,7,5,42,127,2525494492
82,22,11,Pattern_Practice,8,1,38,62,2525515192
82,22,11,Pattern_Practice,9,1,38,44,2525801220
82,22,11,Pattern_Practice,10,1,48,59,2525905636
82,22,11,Pattern_Practice,11,5,42,127,2525995360
82,22,11,Pattern_Practice,12,1,48,59,2526191088
82,22,11,Pattern_Practice,13,1,38,63,2526308272
82,22,11,Pattern_Practice,14,5,42,127,2526495160
82,22,11,Pattern_Practice,15,1,48,70,2526562608
82,22,11,Pattern_Practice,16,1,48,50,2526810196
82,22,11,Pattern_Practice,17,5,42,127,2526994984
82,22,11,Pattern_Practice,18,1,38,60,2527059216
82,22,11,Pattern_Practice,19,1,38,49,2527310016
82,22,11,Pattern_Practice,20,5,42,127,2527494432
82,22,11,Pattern_Practice,21,1,38,57,2527562928
82,22,11,Pattern_Practice,22,1,38,55,2527806996
82,22,11,Pattern_Practice,23,1,48,61,2527895384
82,22,11,Pattern_Practice,24,5,42,127,2527995120
82,22,11,Pattern_Practice,25,1,38,37,2528156212
82,22,11,Pattern_Practice,26,1,38,59,2528235420
82,22,11,Pattern_Practice,27,5,42,127,2528495164
82,22,11,Pattern_Practice,28,1,38,59,2528515420
82,22,11,Pattern_Practice,29,5,42,127,2528994636
82,22,11,Pattern_Practice,30,1,38,59,2529032760
82,22,11,Pattern_Practice,31,1,38,48,2529281016
82,22,11,Pattern_Practice,32,5,42,127,2529495432
82,22,11,Pattern_Practice,33,1,38,56,2529525252
82,22,11,Pattern_Practice,34,1,38,49,2529782336
82,22,11,Pattern_Practice,35,1,48,72,2529876932
82,22,11,Pattern_Practice,36,5,42,127,2529995208
82,22,11,Pattern_Practice,37,1,38,52,2530169388
82,22,11,Pattern_Practice,38,1,38,62,2530282784
82,22,11,Pattern_Practice,39,5,42,127,2530495100
82,22,11,Pattern_Practice,40,1,38,57,2530566812
82,22,11,Pattern_Practice,41,1,38,58,2530811480
82,22,11,Pattern_Practice,42,5,42,127,2530994476
82,22,11,Pattern_Practice,43,1,38,55,2531060572
82,22,11,Pattern_Practice,44,1,38,51,2531302024
82,22,11,Pattern_Practice,45,5,42,127,2531495248
82,22,11,Pattern_Practice,46,1,38,58,2531554344
82,22,11,Pattern_Practice,47,1,38,45,2531796688
82,22,11,Pattern_Practice,48,1,48,62,2531902428
82,22,11,Pattern_Practice,49,5,42,127,2531995124
82,22,11,Pattern_Practice,50,1,38,47,2532183468
82,22,11,Pattern_Practice,51,1,38,55,2532292148
82,22,11,Pattern_Practice,52,5,42,127,2532494720
82,22,11,Pattern_Practice,53,1,38,55,2532536012
82,22,11,Pattern_Practice,54,1,38,29,2532595524
82,22,11,Pattern_Practice,55,5,42,127,2532994392
82,22,11,Pattern_Practice,56,1,48,43,2533084972
82,22,11,Pattern_Practice,57,1,48,47,2533295056
82,22,11,Pattern_Practice,58,5,42,127,2533495260
82,22,11,Pattern_Practice,59,1,48,44,2533548720
82,22,11,Pattern_Practice,60,1,48,48,2533798696
82,22,11,Pattern_Practice,61,5,42,127,2533995008
82,22,11,Pattern_Practice,62,1,48,56,2534040536
82,22,11,Pattern_Practice,63,1,38,52,2534100844
82,22,11,Pattern_Practice,64,1,48,53,2534289588
82,22,11,Pattern_Practice,65,5,42,127,2534494572
82,22,11,Pattern_Practice,66,1,48,53,2534533372
82,22,11,Pattern_Practice,67,1,38,49,2534582456
82,22,11,Pattern_Practice,68,1,48,60,2534776728
82,22,11,Pattern_Practice,69,5,42,127,2534995256
82,22,11,Pattern_Practice,70,1,48,61,2535022384
82,22,11,Pattern_Practice,71,1,48,57,2535256880
82,22,11,Pattern_Practice,72,5,42,127,2535495152
82,22,11,Pattern_Practice,73,1,48,52,2535507548
82,22,11,Pattern_Practice,74,1,48,48,2535742792
82,22,11,Pattern_Practice,75,5,42,127,2535994900
82,22,11,Pattern_Practice,76,1,38,46,2536008048
82,22,11,Pattern_Practice,77,1,48,55,2536012360
82,22,11,Pattern_Practice,78,1,48,51,2536241744
82,22,11,Pattern_Practice,79,1,38,52,2536488356
82,22,11,Pattern_Practice,80,5,42,127,2536494372
82,22,11,Pattern_Practice,81,1,48,56,2536500412
82,22,11,Pattern_Practice,82,1,48,50,2536730236
82,22,11,Pattern_Practice,83,1,48,49,2536966676
82,22,11,Pattern_Practice,84,5,42,127,2536995132
82,22,11,Pattern_Practice,85,1,48,39,2537214872
82,22,11,Pattern_Practice,86,1,48,52,2537477720
82,22,11,Pattern_Practice,87,5,42,127,2537495028
82,22,11,Pattern_Practice,88,1,48,52,2537744840
82,22,11,Pattern_Practice,89,5,42,127,2537994560
82,22,11,Pattern_Practice,90,1,38,55,2538010996
82,22,11,Pattern_Practice,91,1,48,49,2538037900
82,22,11,Pattern_Practice,92,1,48,49,2538252916
82,22,11,Pattern_Practice,93,5,42,127,2538495380
82,22,11,Pattern_Practice,94,1,38,51,2538498056
82,22,11,Pattern_Practice,95,1,48,52,2538502892
82,22,11,Pattern_Practice,96,1,48,36,2538739604
82,22,11,Pattern_Practice,97,5,42,127,2538995156
82,22,11,Pattern_Practice,98,1,48,48,2539001944
82,22,11,Pattern_Practice,99,1,48,46,2539256404
82,22,11,Pattern_Practice,100,5,42,127,2539495052
82,22,11,Pattern_Practice,101,1,48,56,2539521360
82,22,11,Pattern_Practice,102,1,48,53,2539760868
82,22,11,Pattern_Practice,103,5,42,127,2539994352
82,22,11,Pattern_Practice,104,1,38,50,2540006676
82,22,11,Pattern_Practice,105,1,48,73,2540010916
82,22,11,Pattern_Practice,106,1,48,40,2540250396
82,22,11,Pattern_Practice,107,5,42,127,2540495176
82,22,11,Pattern_Practice,108,1,48,32,2540500020
82,22,11,Pattern_Practice,109,1,38,51,2540522884
82,22,11,Pattern_Practice,110,1,48,22,2540741564
82,22,11,Pattern_Practice,111,1,38,46,2540749180
82,22,11,Pattern_Practice,112,1,48,74,2540993696
82,22,11,Pattern_Practice,113,5,42,127,2540995264
82,22,11,Pattern_Practice,114,1,48,63,2541218724
82,22,11,Pattern_Practice,115,1,48,56,2541343044
82,22,11,Pattern_Practice,116,1,48,62,2541463296
82,22,11,Pattern_Practice,117,5,42,127,2541494844
82,22,11,Pattern_Practice,118,1,48,50,2541618748
82,22,11,Pattern_Practice,119,1,48,57,2541768800
82,22,11,Pattern_Practice,120,1,48,72,2541991520
82,22,11,Pattern_Practice,121,5,42,127,2541995296
82,22,11,Pattern_Practice,122,1,48,51,2542182948
82,22,11,Pattern_Practice,123,1,48,68,2542254656
82,22,11,Pattern_Practice,124,1,48,61,2542478980
82,22,11,Pattern_Practice,125,5,42,127,2542495020
82,22,11,Pattern_Practice,126,1,48,51,2542568536
82,22,11,Pattern_Practice,127,5,42,127,2542994920
82,22,11,Pattern_Practice,128,1,38,41,2543046532
82,22,11,Pattern_Practice,129,1,38,57,2543164768
82,22,11,Pattern_Practice,130,1,38,60,2543289012
82,22,11,Pattern_Practice,131,1,38,44,2543440528
82,22,11,Pattern_Practice,132,5,42,127,2543494788
82,22,11,Pattern_Practice,133,1,38,62,2543538760
82,22,11,Pattern_Practice,134,1,38,57,2543774572
82,22,11,Pattern_Practice,135,5,42,127,2543995196
82,22,11,Pattern_Practice,136,1,38,63,2544027864
82,22,11,Pattern_Practice,137,1,38,53,2544103636
82,22,11,Pattern_Practice,138,1,38,55,2544331920
82,22,11,Pattern_Practice,139,1,38,56,2544473192
82,22,11,Pattern_Practice,140,5,42,127,2544494988
82,22,11,Pattern_Practice,141,5,42,127,2544994840
82,22,11,Pattern_Practice,142,1,48,66,2545043212
82,22,11,Pattern_Practice,143,1,48,50,2545174260
82,22,11,Pattern_Practice,144,1,48,54,2545278656
82,22,11,Pattern_Practice,145,1,48,50,2545420332
82,22,11,Pattern_Practice,146,5,42,127,2545495384
82,22,11,Pattern_Practice,147,1,48,54,2545510228
82,22,11,Pattern_Practice,148,1,48,67,2545785708
82,22,11,Pattern_Practice,149,5,42,127,2545995188
82,22,11,Pattern_Practice,150,1,48,67,2546062412
82,22,11,Pattern_Practice,151,1,48,56,2546100856
82,22,11,Pattern_Practice,152,1,48,60,2546361904
82,22,11,Pattern_Practice,153,5,42,127,2546494764
82,22,11,Pattern_Practice,154,1,48,50,2546526312
82,22,11,Pattern_Practice,155,5,42,127,2546994680
82,22,11,Pattern_Practice,156,1,38,53,2547039392
82,22,11,Pattern_Practice,157,1,38,51,2547149492
82,22,11,Pattern_Practice,158,1,38,62,2547281564
82,22,11,Pattern_Practice,159,1,38,50,2547409744
82,22,11,Pattern_Practice,160,5,42,127,2547495200
82,22,11,Pattern_Practice,161,1,38,66,2547516708
82,22,11,Pattern_Practice,162,1,38,62,2547773716
82,22,11,Pattern_Practice,163,5,42,127,2547994860
82,22,11,Pattern_Practice,164,1,38,65,2548032760
82,22,11,Pattern_Practice,165,1,38,48,2548106564
82,22,11,Pattern_Practice,166,1,38,29,2548165204
82,22,11,Pattern_Practice,167,1,38,53,2548355620
82,22,11,Pattern_Practice,168,1,38,46,2548492516
82,22,11,Pattern_Practice,169,5,42,127,2548494704
82,22,11,Pattern_Practice,170,1,38,53,2548987260
82,22,11,Pattern_Practice,171,5,42,127,2548994472
82,22,11,Pattern_Practice,172,1,38,60,2549096384
82,22,11,Pattern_Practice,173,1,38,53,2549146860
82,22,11,Pattern_Practice,174,1,38,51,2549300792
82,22,11,Pattern_Practice,175,1,38,56,2549316780
82,22,11,Pattern_Practice,176,1,38,43,2549346300
82,22,11,Pattern_Practice,177,1,38,60,2549483708
82,22,11,Pattern_Practice,178,5,42,127,2549495184
82,22,11,Pattern_Practice,179,1,38,61,2549739836
82,22,11,Pattern_Practice,180,5,42,127,2549994864
82,22,11,Pattern_Practice,181,1,38,76,2550041440
82,22,11,Pattern_Practice,182,1,38,60,2550143368
82,22,11,Pattern_Practice,183,1,38,46,2550285036
82,22,11,Pattern_Practice,184,1,38,58,2550365948
82,22,11,Pattern_Practice,185,5,42,127,2550494716
82,22,11,Pattern_Practice,186,1,38,61,2550515560
82,22,11,Pattern_Practice,187,1,38,64,2550735768
82,22,11,Pattern_Practice,188,1,48,107,2550986644
82,22,11,Pattern_Practice,189,5,42,127,2550995428
82,22,11,Pattern_Practice,190,1,48,38,2551091288
82,22,11,Pattern_Practice,191,1,48,59,2551200244
82,22,11,Pattern_Practice,192,1,48,63,2551307732
82,22,11,Pattern_Practice,193,1,48,45,2551334704
82,22,11,Pattern_Practice,194,1,48,58,2551455936
82,22,11,Pattern_Practice,195,5,42,127,2551495036
82,22,11,Pattern_Practice,196,1,48,54,2551770136
82,22,11,Pattern_Practice,197,5,42,127,2551994644
82,22,11,Pattern_Practice,198,1,48,76,2552038680
82,22,11,Pattern_Practice,199,1,48,62,2552105004
82,22,11,Pattern_Practice,200,1,48,62,2552244652
82,22,11,Pattern_Practice,201,1,48,54,2552349800
82,22,11,Pattern_Practice,202,1,48,67,2552465712
82,22,11,Pattern_Practice,203,5,42,127,2552494612
82,22,11,Pattern_Practice,204,1,48,66,2552773024
82,22,11,Pattern_Practice,205,5,42,127,2552995040
82,22,11,Pattern_Practice,206,1,48,81,2553014188
82,22,11,Pattern_Practice,207,1,38,83,2553120912
82,22,11,Pattern_Practice,208,1,48,84,2553248492
82,22,11,Pattern_Practice,209,1,48,76,2553441844
82,22,11,Pattern_Practice,210,5,42,127,2553494836
82,22,11,Pattern_Practice,211,1,38,70,2553575980
82,22,11,Pattern_Practice,212,1,48,79,2553728172
82,22,11,Pattern_Practice,213,1,48,62,2553987500
82,22,11,Pattern_Practice,214,5,42,127,2553994488
82,22,11,Pattern_Practice,215,1,48,57,2554315604
82,22,11,Pattern_Practice,216,5,42,127,2554495212
82,22,11,Pattern_Practice,217,1,48,41,2554558796
82,22,11,Pattern_Practice,218,1,48,70,2554829120
82,22,11,Pattern_Practice,219,5,42,127,2554994960
82,22,11,Pattern_Practice,220,1,48,48,2555066624
82,22,11,Pattern_Practice,221,1,38,50,2555246788
82,22,11,Pattern_Practice,222,1,48,80,2555315692
82,22,11,Pattern_Practice,223,5,42,127,2555494748
82,22,11,Pattern_Practice,224,1,48,71,2555551348
82,22,11,Pattern_Practice,225,1,38,61,2555743656
82,22,11,Pattern_Practice,226,1,48,78,2555777148
82,22,11,Pattern_Practice,227,5,42,127,2555994596
82,22,11,Pattern_Practice,228,1,48,71,2556031896
82,22,11,Pattern_Practice,229,1,48,56,2556273948
82,22,11,Pattern_Practice,230,5,42,127,2556495092
82,22,11,Pattern_Practice,231,1,48,24,2556527380
82,22,11,Pattern_Practice,232,1,48,60,2556776536
82,22,11,Pattern_Practice,233,5,42,127,2556994984
82,22,11,Pattern_Practice,234,1,48,70,2557011568
82,22,11,Pattern_Practice,235,1,48,65,2557155108
82,22,11,Pattern_Practice,236,1,48,78,2557259428
82,22,11,Pattern_Practice,237,1,48,54,2557420924
82,22,11,Pattern_Practice,238,5,42,127,2557494704
82,22,11,Pattern_Practice,239,1,48,73,2557502524
82,22,11,Pattern_Practice,240,1,48,52,2557647408
82,22,11,Pattern_Practice,241,1,48,76,2557746044
82,22,11,Pattern_Practice,242,1,48,47,2557920404
82,22,11,Pattern_Practice,243,5,42,127,2557995532
82,22,11,Pattern_Practice,244,1,48,75,2558018308
82,22,11,Pattern_Practice,245,1,48,96,2558284660
82,22,11,Pattern_Practice,246,5,42,127,2558495036
82,22,11,Pattern_Practice,247,1,48,82,2558528376
82,22,11,Pattern_Practice,248,1,48,92,2558794208
82,22,11,Pattern_Practice,249,5,42,127,2558994784
82,22,11,Pattern_Practice,250,1,38,86,2559043452
82,22,11,Pattern_Practice,251,1,38,59,2559149048
82,22,11,Pattern_Practice,252,1,38,78,2559280324
82,22,11,Pattern_Practice,253,1,38,55,2559406336
82,22,11,Pattern_Practice,254,5,42,127,2559494504
82,22,11,Pattern_Practice,255,1,38,79,2559510628
82,22,11,Pattern_Practice,256,1,38,51,2559659824
82,22,11,Pattern_Practice,257,1,38,75,2559771572
82,22,11,Pattern_Practice,258,1,38,54,2559905892
82,22,11,Pattern_Practice,259,5,42,127,2559995404
82,22,11,Pattern_Practice,260,1,38,84,2560030000
82,22,11,Pattern_Practice,261,1,38,74,2560308772
82,22,11,Pattern_Practice,262,5,42,127,2560494836
82,22,11,Pattern_Practice,263,1,38,78,2560569088
82,22,11,Pattern_Practice,264,1,38,73,2560836344
82,22,11,Pattern_Practice,265,5,42,127,2560994584
82,22,11,Pattern_Practice,266,1,38,56,2561066592
82,22,11,Pattern_Practice,267,1,38,67,2561166876
82,22,11,Pattern_Practice,268,1,38,62,2561331432
82,22,11,Pattern_Practice,269,1,48,100,2561456176
82,22,11,Pattern_Practice,270,5,42,127,2561495548
82,22,11,Pattern_Practice,271,1,38,62,2561597688
82,22,11,Pattern_Practice,272,1,38,80,2561717292
82,22,11,Pattern_Practice,273,1,38,45,2561844348
82,22,11,Pattern_Practice,274,1,48,89,2561955324
82,22,11,Pattern_Practice,275,5,42,127,2561995400
82,22,11,Pattern_Practice,276,1,38,48,2562061036
82,22,11,Pattern_Practice,277,1,38,65,2562182264
82,22,11,Pattern_Practice,278,1,38,31,2562311364
82,22,11,Pattern_Practice,279,1,48,59,2562450764
82,22,11,Pattern_Practice,280,5,42,127,2562494728
82,22,11,Pattern_Practice,281,1,48,43,2562697692
82,22,11,Pattern_Practice,0,9999,9999,9999,2522992696
82,22,11,Pattern_Practice,1,9999,9999,9999,2523492412
82,22,11,Pattern_Practice,2,9999,9999,9999,2523992128
82,22,11,Pattern_Practice,3,9999,9999,9999,2524492892
82,22,11,Pattern_Practice,4,9999,9999,9999,2524992600
82,22,11,Pattern_Practice,5,9999,9999,9999,2525492280
82,22,11,Pattern_Practice,6,9999,9999,9999,2525993068
82,22,11,Pattern_Practice,7,9999,9999,9999,2526492728
82,22,11,Pattern_Practice,8,9999,9999,9999,2526992472
82,22,11,Pattern_Practice,9,9999,9999,9999,2527492148
82,22,11,Pattern_Practice,10,9999,9999,9999,2527992924
82,22,11,Pattern_Practice,11,9999,9999,9999,2528492656
82,22,11,Pattern_Practice,12,9999,9999,9999,2528992352
82,22,11,Pattern_Practice,13,9999,9999,9999,2529493072
82,22,11,Pattern_Practice,14,9999,9999,9999,2529992772
82,22,11,Pattern_Practice,15,9999,9999,9999,2530492516
82,22,11,Pattern_Practice,16,9999,9999,9999,2530992240
82,22,11,Pattern_Practice,17,9999,9999,9999,2531492960
82,22,11,Pattern_Practice,18,9999,9999,9999,2531992688
82,22,11,Pattern_Practice,19,9999,9999,9999,2532492360
82,22,11,Pattern_Practice,20,9999,9999,9999,2532992108
82,22,11,Pattern_Practice,21,9999,9999,9999,2533492824
82,22,11,Pattern_Practice,22,9999,9999,9999,2533992500
82,22,11,Pattern_Practice,23,9999,9999,9999,2534492212
82,22,11,Pattern_Practice,24,9999,9999,9999,2534992972
82,22,11,Pattern_Practice,25,9999,9999,9999,2535492716
82,22,11,Pattern_Practice,26,9999,9999,9999,2535992392
82,22,11,Pattern_Practice,27,9999,9999,9999,2536492088
82,22,11,Pattern_Practice,28,9999,9999,9999,2536992844
82,22,11,Pattern_Practice,29,9999,9999,9999,2537492592
82,22,11,Pattern_Practice,30,9999,9999,9999,2537992272
82,22,11,Pattern_Practice,31,9999,9999,9999,2538493020
82,22,11,Pattern_Practice,32,9999,9999,9999,2538992720
82,22,11,Pattern_Practice,33,9999,9999,9999,2539492468
82,22,11,Pattern_Practice,34,9999,9999,9999,2539992140
82,22,11,Pattern_Practice,35,9999,9999,9999,2540492888
82,22,11,Pattern_Practice,36,9999,9999,9999,2540992616
82,22,11,Pattern_Practice,37,9999,9999,9999,2541492332
82,22,11,Pattern_Practice,38,9999,9999,9999,2541993008
82,22,11,Pattern_Practice,39,9999,9999,9999,2542492732
82,22,11,Pattern_Practice,40,9999,9999,9999,2542992488
82,22,11,Pattern_Practice,41,9999,9999,9999,2543492204
82,22,11,Pattern_Practice,42,9999,9999,9999,2543992908
82,22,11,Pattern_Practice,43,9999,9999,9999,2544492628
82,22,11,Pattern_Practice,44,9999,9999,9999,2544992332
82,22,11,Pattern_Practice,45,9999,9999,9999,2545493096
82,22,11,Pattern_Practice,46,9999,9999,9999,2545992752
82,22,11,Pattern_Practice,47,9999,9999,9999,2546492476
82,22,11,Pattern_Practice,48,9999,9999,9999,2546992244
82,22,11,Pattern_Practice,49,9999,9999,9999,2547492912
82,22,11,Pattern_Practice,50,9999,9999,9999,2547992648
82,22,11,Pattern_Practice,51,9999,9999,9999,2548492388
82,22,11,Pattern_Practice,52,9999,9999,9999,2548992112
82,22,11,Pattern_Practice,53,9999,9999,9999,2549492824
82,22,11,Pattern_Practice,54,9999,9999,9999,2549992504
82,22,11,Pattern_Practice,55,9999,9999,9999,2550492280
82,22,11,Pattern_Practice,56,9999,9999,9999,2550992996
82,22,11,Pattern_Practice,57,9999,9999,9999,2551492676
82,22,11,Pattern_Practice,58,9999,9999,9999,2551992432
82,22,11,Pattern_Practice,59,9999,9999,9999,2552492104
82,22,11,Pattern_Practice,60,9999,9999,9999,2552992828
82,22,11,Pattern_Practice,61,9999,9999,9999,2553492548
82,22,11,Pattern_Practice,62,9999,9999,9999,2553992276
82,22,11,Pattern_Practice,63,9999,9999,9999,2554493000
82,22,11,Pattern_Practice,64,9999,9999,9999,2554992748
82,22,11,Pattern_Practice,65,9999,9999,9999,2555492460
82,22,11,Pattern_Practice,66,9999,9999,9999,2555992160
82,22,11,Pattern_Practice,67,9999,9999,9999,2556492880
82,22,11,Pattern_Practice,68,9999,9999,9999,2556992624
82,22,11,Pattern_Practice,69,9999,9999,9999,2557492344
82,22,11,Pattern_Practice,70,9999,9999,9999,2557993020
82,22,11,Pattern_Practice,71,9999,9999,9999,2558492752
82,22,11,Pattern_Practice,72,9999,9999,9999,2558992500
82,22,11,Pattern_Practice,73,9999,9999,9999,2559492216
82,22,11,Pattern_Practice,74,9999,9999,9999,2559992892
82,22,11,Pattern_Practice,75,9999,9999,9999,2560492624
82,22,11,Pattern_Practice,76,9999,9999,9999,2560992372
82,22,11,Pattern_Practice,77,9999,9999,9999,2561493112
82,22,11,Pattern_Practice,78,9999,9999,9999,2561992816
82,22,11,Pattern_Practice,79,9999,9999,9999,2562492516
82,23,13,Improv_Metronome,0,5,42,127,2596288924
82,23,13,Improv_Metronome,1,5,42,127,2596788492
82,23,13,Improv_Metronome,2,5,42,127,2597289600
82,23,13,Improv_Metronome,3,5,42,127,2597788944
82,23,13,Improv_Metronome,4,5,42,127,2598288812
82,23,13,Improv_Metronome,5,1,38,59,2598299480
82,23,13,Improv_Metronome,6,1,38,64,2598396276
82,23,13,Improv_Metronome,7,1,38,52,2598558040
82,23,13,Improv_Metronome,8,1,38,65,2598667624
82,23,13,Improv_Metronome,9,5,42,127,2598788588
82,23,13,Improv_Metronome,10,1,38,63,2598797396
82,23,13,Improv_Metronome,11,1,38,68,2599047140
82,23,13,Improv_Metronome,12,5,42,127,2599289308
82,23,13,Improv_Metronome,13,1,38,62,2599295788
82,23,13,Improv_Metronome,14,1,38,74,2599395800
82,23,13,Improv_Metronome,15,1,38,70,2599536248
82,23,13,Improv_Metronome,16,1,38,67,2599640520
82,23,13,Improv_Metronome,17,1,38,53,2599774908
82,23,13,Improv_Metronome,18,5,42,127,2599788856
82,23,13,Improv_Metronome,19,1,48,88,2600279464
82,23,13,Improv_Metronome,20,5,42,127,2600288700
82,23,13,Improv_Metronome,21,1,48,55,2600373880
82,23,13,Improv_Metronome,22,1,48,43,2600419712
82,23,13,Improv_Metronome,23,1,48,73,2600537572
82,23,13,Improv_Metronome,24,1,48,75,2600663604
82,23,13,Improv_Metronome,25,1,48,46,2600695520
82,23,13,Improv_Metronome,26,1,48,69,2600781220
82,23,13,Improv_Metronome,27,5,42,127,2600789404
82,23,13,Improv_Metronome,28,1,48,76,2601063224
82,23,13,Improv_Metronome,29,5,42,127,2601288936
82,23,13,Improv_Metronome,30,1,48,70,2601307612
82,23,13,Improv_Metronome,31,1,48,69,2601389792
82,23,13,Improv_Metronome,32,1,48,79,2601543552
82,23,13,Improv_Metronome,33,1,48,65,2601641296
82,23,13,Improv_Metronome,34,1,48,79,2601777652
82,23,13,Improv_Metronome,35,5,42,127,2601788684
82,23,13,Improv_Metronome,36,5,42,127,2602288684
82,23,13,Improv_Metronome,37,1,38,67,2602298308
82,23,13,Improv_Metronome,38,1,38,72,2602405924
82,23,13,Improv_Metronome,39,1,38,76,2602549688
82,23,13,Improv_Metronome,40,1,38,59,2602659764
82,23,13,Improv_Metronome,41,5,42,127,2602789360
82,23,13,Improv_Metronome,42,1,38,84,2602790700
82,23,13,Improv_Metronome,43,1,38,81,2603051508
82,23,13,Improv_Metronome,44,5,42,127,2603288884
82,23,13,Improv_Metronome,45,1,38,57,2603311896
82,23,13,Improv_Metronome,46,1,38,60,2603444444
82,23,13,Improv_Metronome,47,1,38,62,2603559832
82,23,13,Improv_Metronome,48,1,38,58,2603667072
82,23,13,Improv_Metronome,49,5,42,127,2603788664
82,23,13,Improv_Metronome,50,1,38,41,2603797168
82,23,13,Improv_Metronome,51,1,48,74,2604268120
82,23,13,Improv_Metronome,52,5,42,127,2604289472
82,23,13,Improv_Metronome,53,1,48,62,2604392352
82,23,13,Improv_Metronome,54,1,48,72,2604543004
82,23,13,Improv_Metronome,55,1,48,58,2604651284
82,23,13,Improv_Metronome,56,1,48,33,2604697044
82,23,13,Improv_Metronome,57,5,42,127,2604789176
82,23,13,Improv_Metronome,58,1,48,73,2604802972
82,23,13,Improv_Metronome,59,1,48,79,2605063496
82,23,13,Improv_Metronome,60,5,42,127,2605288760
82,23,13,Improv_Metronome,61,1,48,72,2605292700
82,23,13,Improv_Metronome,62,1,48,77,2605324840
82,23,13,Improv_Metronome,63,1,48,71,2605538240
82,23,13,Improv_Metronome,64,1,48,55,2605625956
82,23,13,Improv_Metronome,65,1,48,79,2605776080
82,23,13,Improv_Metronome,66,5,42,127,2605788532
82,23,13,Improv_Metronome,67,5,42,127,2606289428
82,23,13,Improv_Metronome,68,1,38,84,2606340940
82,23,13,Improv_Metronome,69,1,38,83,2606564212
82,23,13,Improv_Metronome,70,5,42,127,2606789104
82,23,13,Improv_Metronome,71,1,38,89,2606805980
82,23,13,Improv_Metronome,72,1,38,70,2607029784
82,23,13,Improv_Metronome,73,1,38,54,2607136420
82,23,13,Improv_Metronome,74,5,42,127,2607288608
82,23,13,Improv_Metronome,75,1,38,48,2607448872
82,23,13,Improv_Metronome,76,1,48,14,2607458200
82,23,13,Improv_Metronome,77,1,38,72,2607554068
82,23,13,Improv_Metronome,78,1,38,33,2607604684
82,23,13,Improv_Metronome,79,1,38,57,2607786128
82,23,13,Improv_Metronome,80,5,42,127,2607789376
82,23,13,Improv_Metronome,81,1,38,82,2608037368
82,23,13,Improv_Metronome,82,5,42,127,2608289252
82,23,13,Improv_Metronome,83,1,38,94,2608313188
82,23,13,Improv_Metronome,84,1,38,81,2608565564
82,23,13,Improv_Metronome,85,5,42,127,2608788924
82,23,13,Improv_Metronome,86,1,38,81,2608805432
82,23,13,Improv_Metronome,87,1,38,73,2609059820
82,23,13,Improv_Metronome,88,1,38,65,2609160356
82,23,13,Improv_Metronome,89,1,38,38,2609198852
82,23,13,Improv_Metronome,90,5,42,127,2609288496
82,23,13,Improv_Metronome,91,1,38,51,2609375168
82,23,13,Improv_Metronome,92,1,48,18,2609388316
82,23,13,Improv_Metronome,93,1,38,65,2609532324
82,23,13,Improv_Metronome,94,1,38,43,2609563872
82,23,13,Improv_Metronome,95,1,38,120,2609780936
82,23,13,Improv_Metronome,96,5,42,127,2609789272
82,23,13,Improv_Metronome,97,5,42,127,2610289196
82,23,13,Improv_Metronome,98,1,48,92,2610301144
82,23,13,Improv_Metronome,99,1,38,19,2610311892
82,23,13,Improv_Metronome,100,1,48,100,2610551368
82,23,13,Improv_Metronome,101,5,42,127,2610788672
82,23,13,Improv_Metronome,102,1,48,102,2610811240
82,23,13,Improv_Metronome,103,1,48,78,2611081340
82,23,13,Improv_Metronome,104,1,48,100,2611199372
82,23,13,Improv_Metronome,105,5,42,127,2611288564
82,23,13,Improv_Metronome,106,1,48,108,2611517280
82,23,13,Improv_Metronome,107,1,48,65,2611608740
82,23,13,Improv_Metronome,108,5,42,127,2611789340
82,23,13,Improv_Metronome,109,1,48,91,2611809516
82,23,13,Improv_Metronome,110,1,48,94,2612081552
82,23,13,Improv_Metronome,111,5,42,127,2612289088
82,23,13,Improv_Metronome,112,1,48,95,2612356536
82,23,13,Improv_Metronome,113,1,48,78,2612579280
82,23,13,Improv_Metronome,114,5,42,127,2612788464
82,23,13,Improv_Metronome,115,1,48,83,2612823444
82,23,13,Improv_Metronome,116,1,48,70,2613053148
82,23,13,Improv_Metronome,117,1,48,74,2613141236
82,23,13,Improv_Metronome,118,5,42,127,2613289308
82,23,13,Improv_Metronome,119,1,48,66,2613414644
82,23,13,Improv_Metronome,120,1,48,71,2613587360
82,23,13,Improv_Metronome,121,5,42,127,2613789204
82,23,13,Improv_Metronome,122,1,48,57,2613817388
82,23,13,Improv_Metronome,123,1,38,18,2613830828
82,23,13,Improv_Metronome,124,5,42,127,2614288780
82,23,13,Improv_Metronome,125,1,48,102,2614293020
82,23,13,Improv_Metronome,126,1,48,98,2614573292
82,23,13,Improv_Metronome,127,5,42,127,2614788380
82,23,13,Improv_Metronome,128,1,48,81,2614834128
82,23,13,Improv_Metronome,129,1,48,83,2615101012
82,23,13,Improv_Metronome,130,5,42,127,2615289172
82,23,13,Improv_Metronome,131,1,48,95,2615340608
82,23,13,Improv_Metronome,132,1,48,90,2615581236
82,23,13,Improv_Metronome,133,5,42,127,2615788920
82,23,13,Improv_Metronome,134,1,38,91,2615824576
82,23,13,Improv_Metronome,135,1,38,59,2615849756
82,23,13,Improv_Metronome,136,5,42,127,2616288740
82,23,13,Improv_Metronome,137,1,48,102,2616295448
82,23,13,Improv_Metronome,138,1,48,85,2616552380
82,23,13,Improv_Metronome,139,5,42,127,2616789308
82,23,13,Improv_Metronome,140,1,48,78,2616821828
82,23,13,Improv_Metronome,141,1,48,81,2617076436
82,23,13,Improv_Metronome,142,5,42,127,2617289284
82,23,13,Improv_Metronome,143,1,48,90,2617320228
82,23,13,Improv_Metronome,144,1,48,95,2617561676
82,23,13,Improv_Metronome,145,5,42,127,2617788732
82,23,13,Improv_Metronome,146,1,38,80,2617830296
82,23,13,Improv_Metronome,147,1,38,56,2617854732
82,23,13,Improv_Metronome,148,5,42,127,2618288556
82,23,13,Improv_Metronome,149,1,38,97,2618314788
82,23,13,Improv_Metronome,150,1,38,77,2618437736
82,23,13,Improv_Metronome,151,1,38,81,2618560400
82,23,13,Improv_Metronome,152,1,38,62,2618679536
82,23,13,Improv_Metronome,153,5,42,127,2618789132
82,23,13,Improv_Metronome,154,1,38,84,2618793816
82,23,13,Improv_Metronome,155,1,38,87,2619049556
82,23,13,Improv_Metronome,156,5,42,127,2619289028
82,23,13,Improv_Metronome,157,1,38,71,2619306880
82,23,13,Improv_Metronome,158,1,38,76,2619600564
82,23,13,Improv_Metronome,159,5,42,127,2619788700
82,23,13,Improv_Metronome,160,1,48,92,2619870680
82,23,13,Improv_Metronome,161,1,38,89,2620279524
82,23,13,Improv_Metronome,162,5,42,127,2620289432
82,23,13,Improv_Metronome,163,1,38,77,2620417996
82,23,13,Improv_Metronome,164,1,38,79,2620537880
82,23,13,Improv_Metronome,165,1,38,71,2620682316
82,23,13,Improv_Metronome,166,5,42,127,2620789068
82,23,13,Improv_Metronome,167,1,38,89,2620794280
82,23,13,Improv_Metronome,168,1,38,89,2621054576
82,23,13,Improv_Metronome,169,5,42,127,2621288892
82,23,13,Improv_Metronome,170,1,38,89,2621308992
82,23,13,Improv_Metronome,171,1,38,87,2621566592
82,23,13,Improv_Metronome,172,5,42,127,2621788488
82,23,13,Improv_Metronome,173,1,48,89,2621816660
82,23,13,Improv_Metronome,174,1,38,103,2622277072
82,23,13,Improv_Metronome,175,5,42,127,2622289220
82,23,13,Improv_Metronome,176,1,38,95,2622378044
82,23,13,Improv_Metronome,177,1,48,117,2622530784
82,23,13,Improv_Metronome,178,1,38,90,2622627696
82,23,13,Improv_Metronome,179,1,38,45,2622661284
82,23,13,Improv_Metronome,180,1,38,92,2622785576
82,23,13,Improv_Metronome,181,5,42,127,2622788904
82,23,13,Improv_Metronome,182,1,38,76,2622913348
82,23,13,Improv_Metronome,183,1,48,90,2623011916
82,23,13,Improv_Metronome,184,1,38,76,2623175772
82,23,13,Improv_Metronome,185,1,38,111,2623268052
82,23,13,Improv_Metronome,186,5,42,127,2623288880
82,23,13,Improv_Metronome,187,1,38,72,2623428816
82,23,13,Improv_Metronome,188,1,48,112,2623509272
82,23,13,Improv_Metronome,189,1,38,71,2623685848
82,23,13,Improv_Metronome,190,5,42,127,2623789316
82,23,13,Improv_Metronome,191,1,38,117,2623792056
82,23,13,Improv_Metronome,192,5,42,127,2624289160
82,23,13,Improv_Metronome,193,1,38,76,2624305216
82,23,13,Improv_Metronome,194,1,38,59,2624418660
82,23,13,Improv_Metronome,195,1,48,86,2624574916
82,23,13,Improv_Metronome,196,1,38,62,2624703272
82,23,13,Improv_Metronome,197,5,42,127,2624789176
82,23,13,Improv_Metronome,198,1,38,83,2624826468
82,23,13,Improv_Metronome,199,1,38,69,2624971124
82,23,13,Improv_Metronome,200,1,48,56,2625056744
82,23,13,Improv_Metronome,201,1,38,60,2625202876
82,23,13,Improv_Metronome,202,5,42,127,2625288484
82,23,13,Improv_Metronome,203,1,38,81,2625303924
82,23,13,Improv_Metronome,204,1,38,64,2625454644
82,23,13,Improv_Metronome,205,1,48,50,2625532788
82,23,13,Improv_Metronome,206,1,38,63,2625709588
82,23,13,Improv_Metronome,207,5,42,127,2625789428
82,23,13,Improv_Metronome,208,1,38,89,2625810564
82,23,13,Improv_Metronome,209,5,42,127,2626289260
82,23,13,Improv_Metronome,210,1,48,84,2626291628
82,23,13,Improv_Metronome,211,1,48,90,2626401184
82,23,13,Improv_Metronome,212,1,48,96,2626536872
82,23,13,Improv_Metronome,213,1,48,83,2626650916
82,23,13,Improv_Metronome,214,1,48,103,2626776208
82,23,13,Improv_Metronome,215,5,42,127,2626788880
82,23,13,Improv_Metronome,216,1,48,68,2626901560
82,23,13,Improv_Metronome,217,1,48,97,2627025800
82,23,13,Improv_Metronome,218,1,48,60,2627140592
82,23,13,Improv_Metronome,219,5,42,127,2627288292
82,23,13,Improv_Metronome,220,1,48,81,2627292308
82,23,13,Improv_Metronome,221,1,48,67,2627381448
82,23,13,Improv_Metronome,222,1,48,56,2627547428
82,23,13,Improv_Metronome,223,5,42,127,2627789140
82,23,13,Improv_Metronome,224,1,38,127,2627819860
82,23,13,Improv_Metronome,225,5,42,127,2628289136
82,23,13,Improv_Metronome,226,1,48,76,2628315296
82,23,13,Improv_Metronome,227,1,48,73,2628411836
82,23,13,Improv_Metronome,228,1,48,82,2628564200
82,23,13,Improv_Metronome,229,1,48,65,2628658276
82,23,13,Improv_Metronome,230,5,42,127,2628788688
82,23,13,Improv_Metronome,231,1,48,84,2628811552
82,23,13,Improv_Metronome,232,1,48,61,2628932328
82,23,13,Improv_Metronome,233,1,48,85,2629059192
82,23,13,Improv_Metronome,234,1,48,63,2629175028
82,23,13,Improv_Metronome,235,1,48,38,2629211060
82,23,13,Improv_Metronome,236,5,42,127,2629289408
82,23,13,Improv_Metronome,237,1,48,81,2629294928
82,23,13,Improv_Metronome,238,1,48,59,2629432084
82,23,13,Improv_Metronome,239,1,48,40,2629542244
82,23,13,Improv_Metronome,240,1,48,51,2629625640
82,23,13,Improv_Metronome,241,5,42,127,2629789024
82,23,13,Improv_Metronome,242,1,38,115,2629827848
82,23,13,Improv_Metronome,243,1,38,54,2629861180
82,23,13,Improv_Metronome,244,1,38,83,2630282672
82,23,13,Improv_Metronome,245,5,42,127,2630288916
82,23,13,Improv_Metronome,246,1,38,108,2630351360
82,23,13,Improv_Metronome,247,1,38,68,2630457176
82,23,13,Improv_Metronome,248,1,38,83,2630557456
82,23,13,Improv_Metronome,249,1,38,48,2630586328
82,23,13,Improv_Metronome,250,1,38,76,2630647196
82,23,13,Improv_Metronome,251,1,38,74,2630754208
82,23,13,Improv_Metronome,252,5,42,127,2630788428
82,23,13,Improv_Metronome,253,1,38,92,2630987828
82,23,13,Improv_Metronome,254,1,38,70,2631279764
82,23,13,Improv_Metronome,255,5,42,127,2631289072
82,23,13,Improv_Metronome,256,1,38,90,2631370140
82,23,13,Improv_Metronome,257,1,38,73,2631476484
82,23,13,Improv_Metronome,258,1,38,63,2631586940
82,23,13,Improv_Metronome,259,1,38,68,2631666976
82,23,13,Improv_Metronome,260,1,38,65,2631787172
82,23,13,Improv_Metronome,261,5,42,127,2631790176
82,23,13,Improv_Metronome,262,1,38,39,2631823872
82,23,13,Improv_Metronome,263,5,42,127,2632288884
82,23,13,Improv_Metronome,264,1,48,48,2632310476
82,23,13,Improv_Metronome,265,1,38,17,2632324372
82,23,13,Improv_Metronome,266,1,48,79,2632386760
82,23,13,Improv_Metronome,267,1,48,47,2632416656
82,23,13,Improv_Metronome,268,1,48,65,2632485712
82,23,13,Improv_Metronome,269,1,48,76,2632581288
82,23,13,Improv_Metronome,270,1,48,54,2632604824
82,23,13,Improv_Metronome,271,1,48,61,2632634372
82,23,13,Improv_Metronome,272,5,42,127,2632789296
82,23,13,Improv_Metronome,273,1,48,78,2632984600
82,23,13,Improv_Metronome,274,1,48,105,2633265168
82,23,13,Improv_Metronome,275,5,42,127,2633289060
82,23,13,Improv_Metronome,276,1,48,89,2633363744
82,23,13,Improv_Metronome,277,1,48,90,2633436824
82,23,13,Improv_Metronome,278,1,48,78,2633535912
82,23,13,Improv_Metronome,279,1,48,56,2633558032
82,23,13,Improv_Metronome,280,1,48,85,2633583812
82,23,13,Improv_Metronome,281,1,48,53,2633698104
82,23,13,Improv_Metronome,282,1,48,84,2633707356
82,23,13,Improv_Metronome,283,5,42,127,2633789068
82,23,13,Improv_Metronome,284,1,48,80,2634288020
82,23,13,Improv_Metronome,285,5,42,127,2634289664
82,23,13,Improv_Metronome,286,1,48,89,2634559820
82,23,13,Improv_Metronome,287,5,42,127,2634789344
82,23,13,Improv_Metronome,288,1,38,82,2634821332
82,23,13,Improv_Metronome,289,1,48,95,2635111552
82,23,13,Improv_Metronome,290,1,38,73,2635215668
82,23,13,Improv_Metronome,291,5,42,127,2635288936
82,23,13,Improv_Metronome,292,1,48,90,2635510620
82,23,13,Improv_Metronome,293,1,38,67,2635572536
82,23,13,Improv_Metronome,294,5,42,127,2635788864
82,23,13,Improv_Metronome,295,1,48,83,2635835520
82,23,13,Improv_Metronome,296,1,48,91,2636070460
82,23,13,Improv_Metronome,297,5,42,127,2636289288
82,23,13,Improv_Metronome,298,1,48,92,2636323296
82,23,13,Improv_Metronome,299,1,48,90,2636573644
82,23,13,Improv_Metronome,300,1,38,59,2636778148
82,23,13,Improv_Metronome,301,5,42,127,2636789032
82,23,13,Improv_Metronome,302,1,48,80,2637060160
82,23,13,Improv_Metronome,303,1,38,58,2637153340
82,23,13,Improv_Metronome,304,5,42,127,2637288972
82,23,13,Improv_Metronome,305,1,48,73,2637420368
82,23,13,Improv_Metronome,306,1,38,66,2637545512
82,23,13,Improv_Metronome,307,5,42,127,2637788796
82,23,13,Improv_Metronome,308,1,38,121,2637805076
82,23,13,Improv_Metronome,309,5,42,127,2638289388
82,23,13,Improv_Metronome,310,1,48,78,2638356764
82,23,13,Improv_Metronome,311,5,42,127,2638789084
82,23,13,Improv_Metronome,312,1,48,102,2639147444
82,23,13,Improv_Metronome,313,5,42,127,2639288852
82,23,13,Improv_Metronome,314,5,42,127,2639789396
82,23,13,Improv_Metronome,315,1,48,103,2639842552
82,23,13,Improv_Metronome,316,1,48,92,2640281096
82,23,13,Improv_Metronome,317,5,42,127,2640289060
82,23,13,Improv_Metronome,318,5,42,127,2640788760
82,23,13,Improv_Metronome,319,1,48,58,2641063416
82,23,13,Improv_Metronome,320,5,42,127,2641288752
82,23,13,Improv_Metronome,321,1,38,108,2641774816
82,23,13,Improv_Metronome,322,5,42,127,2641789212
82,23,13,Improv_Metronome,323,5,42,127,2642288912
82,23,13,Improv_Metronome,324,1,48,65,2642305868
82,23,13,Improv_Metronome,325,5,42,127,2642788608
82,23,13,Improv_Metronome,326,1,48,85,2643074708
82,23,13,Improv_Metronome,327,5,42,127,2643288600
82,23,13,Improv_Metronome,328,1,48,74,2643742800
82,23,13,Improv_Metronome,329,5,42,127,2643789132
82,23,13,Improv_Metronome,330,5,42,127,2644288832
82,23,13,Improv_Metronome,331,1,48,87,2644300476
82,23,13,Improv_Metronome,332,5,42,127,2644788604
82,23,13,Improv_Metronome,333,1,48,92,2645070072
82,23,13,Improv_Metronome,334,5,42,127,2645289420
82,23,13,Improv_Metronome,335,5,42,127,2645788912
82,23,13,Improv_Metronome,336,1,38,109,2645799360
82,23,13,Improv_Metronome,337,5,42,127,2646288608
82,23,13,Improv_Metronome,338,1,48,82,2646300624
82,23,13,Improv_Metronome,339,1,48,69,2646551728
82,23,13,Improv_Metronome,340,5,42,127,2646788580
82,23,13,Improv_Metronome,341,1,48,67,2646813684
82,23,13,Improv_Metronome,342,1,48,54,2647031352
82,23,13,Improv_Metronome,343,1,48,73,2647165144
82,23,13,Improv_Metronome,344,5,42,127,2647289128
82,23,13,Improv_Metronome,345,1,48,62,2647417608
82,23,13,Improv_Metronome,346,1,48,73,2647528540
82,23,13,Improv_Metronome,347,1,38,91,2647788656
82,23,13,Improv_Metronome,348,5,42,127,2647791484
82,23,13,Improv_Metronome,349,1,38,48,2647827804
82,23,13,Improv_Metronome,350,1,38,76,2648008744
82,23,13,Improv_Metronome,351,1,38,45,2648042824
82,23,13,Improv_Metronome,352,5,42,127,2648288504
82,23,13,Improv_Metronome,353,1,48,81,2648343308
82,23,13,Improv_Metronome,354,1,48,69,2648575780
82,23,13,Improv_Metronome,355,5,42,127,2648789376
82,23,13,Improv_Metronome,356,1,48,72,2648824280
82,23,13,Improv_Metronome,357,1,48,67,2649074932
82,23,13,Improv_Metronome,358,1,48,79,2649186440
82,23,13,Improv_Metronome,359,5,42,127,2649289028
82,23,13,Improv_Metronome,360,1,48,62,2649487368
82,23,13,Improv_Metronome,361,1,48,82,2649591864
82,23,13,Improv_Metronome,362,5,42,127,2649788772
82,23,13,Improv_Metronome,363,1,38,103,2649843572
82,23,13,Improv_Metronome,364,1,38,38,2649931660
82,23,13,Improv_Metronome,365,5,42,127,2650288444
82,23,13,Improv_Metronome,366,1,48,79,2650383492
82,23,13,Improv_Metronome,367,1,48,70,2650604668
82,23,13,Improv_Metronome,368,5,42,127,2650789660
82,23,13,Improv_Metronome,369,1,48,71,2650868276
82,23,13,Improv_Metronome,370,1,48,58,2651138748
82,23,13,Improv_Metronome,371,1,48,71,2651221972
82,23,13,Improv_Metronome,372,5,42,127,2651288880
82,23,13,Improv_Metronome,373,1,48,59,2651510712
82,23,13,Improv_Metronome,374,1,48,73,2651606536
82,23,13,Improv_Metronome,375,5,42,127,2651788688
82,23,13,Improv_Metronome,376,1,38,86,2651867972
82,23,13,Improv_Metronome,377,1,38,76,2652052028
82,23,13,Improv_Metronome,378,1,38,42,2652090776
82,23,13,Improv_Metronome,379,5,42,127,2652289604
82,23,13,Improv_Metronome,380,1,48,67,2652331420
82,23,13,Improv_Metronome,381,1,48,56,2652505752
82,23,13,Improv_Metronome,382,1,48,76,2652626848
82,23,13,Improv_Metronome,383,5,42,127,2652789032
82,23,13,Improv_Metronome,384,1,48,61,2652835308
82,23,13,Improv_Metronome,385,1,48,73,2653118296
82,23,13,Improv_Metronome,386,1,48,59,2653288104
82,23,13,Improv_Metronome,387,5,42,127,2653289600
82,23,13,Improv_Metronome,388,1,48,74,2653548308
82,23,13,Improv_Metronome,389,1,48,65,2653591820
82,23,13,Improv_Metronome,390,1,48,39,2653625104
82,23,13,Improv_Metronome,391,5,42,127,2653788484
82,23,13,Improv_Metronome,392,1,48,70,2653848152
82,23,13,Improv_Metronome,393,5,42,127,2654289524
82,23,13,Improv_Metronome,394,1,48,64,2654321740
82,23,13,Improv_Metronome,395,1,48,78,2654589592
82,23,13,Improv_Metronome,396,1,48,57,2654693564
82,23,13,Improv_Metronome,397,5,42,127,2654788964
82,23,13,Improv_Metronome,398,1,48,86,2654828492
82,23,13,Improv_Metronome,399,1,48,71,2655067704
82,23,13,Improv_Metronome,400,1,48,55,2655185288
82,23,13,Improv_Metronome,401,5,42,127,2655288676
82,23,13,Improv_Metronome,402,1,48,67,2655306380
82,23,13,Improv_Metronome,403,1,48,73,2655561592
82,23,13,Improv_Metronome,404,5,42,127,2655789544
82,23,13,Improv_Metronome,405,1,48,67,2655806352
82,23,13,Improv_Metronome,406,1,48,70,2656068972
82,23,13,Improv_Metronome,407,5,42,127,2656289292
82,23,13,Improv_Metronome,408,1,48,71,2656321660
82,23,13,Improv_Metronome,409,1,48,54,2656578816
82,23,13,Improv_Metronome,410,1,48,81,2656661072
82,23,13,Improv_Metronome,411,5,42,127,2656788868
82,23,13,Improv_Metronome,412,1,48,52,2656819216
82,23,13,Improv_Metronome,413,1,48,62,2657087068
82,23,13,Improv_Metronome,414,1,48,58,2657192808
82,23,13,Improv_Metronome,415,5,42,127,2657288684
82,23,13,Improv_Metronome,416,1,48,72,2657350132
82,23,13,Improv_Metronome,417,1,48,82,2657601228
82,23,13,Improv_Metronome,418,5,42,127,2657789464
82,23,13,Improv_Metronome,419,1,48,80,2657829604
82,23,13,Improv_Metronome,420,5,42,127,2658289380
82,23,13,Improv_Metronome,421,1,38,35,2658355256
82,23,13,Improv_Metronome,422,1,38,57,2658596556
82,23,13,Improv_Metronome,423,1,38,45,2658711496
82,23,13,Improv_Metronome,424,5,42,127,2658788676
82,23,13,Improv_Metronome,425,1,38,56,2658841516
82,23,13,Improv_Metronome,426,1,38,52,2659107800
82,23,13,Improv_Metronome,427,1,38,40,2659221248
82,23,13,Improv_Metronome,428,5,42,127,2659288328
82,23,13,Improv_Metronome,429,1,38,43,2659352088
82,23,13,Improv_Metronome,430,1,38,30,2659598252
82,23,13,Improv_Metronome,431,5,42,127,2659789552
82,23,13,Improv_Metronome,432,1,38,31,2659838600
82,23,13,Improv_Metronome,433,1,38,61,2660106224
82,23,13,Improv_Metronome,434,5,42,127,2660288852
82,23,13,Improv_Metronome,435,1,38,54,2660342756
82,23,13,Improv_Metronome,436,1,38,43,2660596780
82,23,13,Improv_Metronome,437,1,38,48,2660682848
82,23,13,Improv_Metronome,438,5,42,127,2660788580
82,23,13,Improv_Metronome,439,1,38,45,2660844804
82,23,13,Improv_Metronome,440,1,38,43,2661082364
82,23,13,Improv_Metronome,441,1,48,13,2661094832
82,23,13,Improv_Metronome,442,1,38,52,2661248348
82,23,13,Improv_Metronome,443,5,42,127,2661289444
82,23,13,Improv_Metronome,444,1,38,46,2661331244
82,23,13,Improv_Metronome,445,1,48,13,2661344232
82,23,13,Improv_Metronome,446,1,38,44,2661569952
82,23,13,Improv_Metronome,447,5,42,127,2661789204
82,23,13,Improv_Metronome,448,1,38,55,2661795832
82,23,13,Improv_Metronome,449,5,42,127,2662288824
82,23,13,Improv_Metronome,450,1,48,78,2662292388
82,23,13,Improv_Metronome,451,1,38,67,2662553212
82,23,13,Improv_Metronome,452,5,42,127,2662788420
82,23,13,Improv_Metronome,453,1,48,75,2662808596
82,23,13,Improv_Metronome,454,1,38,76,2663055656
82,23,13,Improv_Metronome,455,5,42,127,2663289364
82,23,13,Improv_Metronome,456,1,48,85,2663305352
82,23,13,Improv_Metronome,457,1,38,86,2663559664
82,23,13,Improv_Metronome,458,5,42,127,2663789108
82,23,13,Improv_Metronome,459,1,38,79,2663796492
82,23,13,Improv_Metronome,460,1,38,77,2664073916
82,23,13,Improv_Metronome,461,5,42,127,2664288560
82,23,13,Improv_Metronome,462,1,48,117,2664346356
82,23,13,Improv_Metronome,463,1,38,88,2664599628
82,23,13,Improv_Metronome,464,5,42,127,2664789356
82,23,13,Improv_Metronome,465,1,48,69,2664844532
82,23,13,Improv_Metronome,466,1,38,82,2665080220
82,23,13,Improv_Metronome,467,5,42,127,2665289324
82,23,13,Improv_Metronome,468,1,48,66,2665324008
82,23,13,Improv_Metronome,469,1,38,87,2665564488
82,23,13,Improv_Metronome,470,1,38,73,2665787260
82,23,13,Improv_Metronome,471,5,42,127,2665789816
82,23,13,Improv_Metronome,472,1,38,78,2666045912
82,23,13,Improv_Metronome,0,9999,9999,9999,2596286560
82,23,13,Improv_Metronome,1,9999,9999,9999,2596786280
82,23,13,Improv_Metronome,2,9999,9999,9999,2597287016
82,23,13,Improv_Metronome,3,9999,9999,9999,2597786732
82,23,13,Improv_Metronome,4,9999,9999,9999,2598286448
82,23,13,Improv_Metronome,5,9999,9999,9999,2598786152
82,23,13,Improv_Metronome,6,9999,9999,9999,2599286872
82,23,13,Improv_Metronome,7,9999,9999,9999,2599786572
82,23,13,Improv_Metronome,8,9999,9999,9999,2600286264
82,23,13,Improv_Metronome,9,9999,9999,9999,2600787044
82,23,13,Improv_Metronome,10,9999,9999,9999,2601286724
82,23,13,Improv_Metronome,11,9999,9999,9999,2601786472
82,23,13,Improv_Metronome,12,9999,9999,9999,2602286172
82,23,13,Improv_Metronome,13,9999,9999,9999,2602786924
82,23,13,Improv_Metronome,14,9999,9999,9999,2603286600
82,23,13,Improv_Metronome,15,9999,9999,9999,2603786304
82,23,13,Improv_Metronome,16,9999,9999,9999,2604287036
82,23,13,Improv_Metronome,17,9999,9999,9999,2604786740
82,23,13,Improv_Metronome,18,9999,9999,9999,2605286472
82,23,13,Improv_Metronome,19,9999,9999,9999,2605786168
82,23,13,Improv_Metronome,20,9999,9999,9999,2606286920
82,23,13,Improv_Metronome,21,9999,9999,9999,2606786668
82,23,13,Improv_Metronome,22,9999,9999,9999,2607286396
82,23,13,Improv_Metronome,23,9999,9999,9999,2607787088
82,23,13,Improv_Metronome,24,9999,9999,9999,2608286816
82,23,13,Improv_Metronome,25,9999,9999,9999,2608786492
82,23,13,Improv_Metronome,26,9999,9999,9999,2609286208
82,23,13,Improv_Metronome,27,9999,9999,9999,2609786988
82,23,13,Improv_Metronome,28,9999,9999,9999,2610286688
82,23,13,Improv_Metronome,29,9999,9999,9999,2610786388
82,23,13,Improv_Metronome,30,9999,9999,9999,2611286128
82,23,13,Improv_Metronome,31,9999,9999,9999,2611786832
82,23,13,Improv_Metronome,32,9999,9999,9999,2612286576
82,23,13,Improv_Metronome,33,9999,9999,9999,2612786248
82,23,13,Improv_Metronome,34,9999,9999,9999,2613287024
82,23,13,Improv_Metronome,35,9999,9999,9999,2613786696
82,23,13,Improv_Metronome,36,9999,9999,9999,2614286420
82,23,13,Improv_Metronome,37,9999,9999,9999,2614786168
82,23,13,Improv_Metronome,38,9999,9999,9999,2615286884
82,23,13,Improv_Metronome,39,9999,9999,9999,2615786556
82,23,13,Improv_Metronome,40,9999,9999,9999,2616286304
82,23,13,Improv_Metronome,41,9999,9999,9999,2616787024
82,23,13,Improv_Metronome,42,9999,9999,9999,2617286772
82,23,13,Improv_Metronome,43,9999,9999,9999,2617786448
82,23,13,Improv_Metronome,44,9999,9999,9999,2618286196
82,23,13,Improv_Metronome,45,9999,9999,9999,2618786920
82,23,13,Improv_Metronome,46,9999,9999,9999,2619286592
82,23,13,Improv_Metronome,47,9999,9999,9999,2619786340
82,23,13,Improv_Metronome,48,9999,9999,9999,2620287072
82,23,13,Improv_Metronome,49,9999,9999,9999,2620786780
82,23,13,Improv_Metronome,50,9999,9999,9999,2621286456
82,23,13,Improv_Metronome,51,9999,9999,9999,2621786200
82,23,13,Improv_Metronome,52,9999,9999,9999,2622286936
82,23,13,Improv_Metronome,53,9999,9999,9999,2622786616
82,23,13,Improv_Metronome,54,9999,9999,9999,2623286368
82,23,13,Improv_Metronome,55,9999,9999,9999,2623787100
82,23,13,Improv_Metronome,56,9999,9999,9999,2624286796
82,23,13,Improv_Metronome,57,9999,9999,9999,2624786516
82,23,13,Improv_Metronome,58,9999,9999,9999,2625286196
82,23,13,Improv_Metronome,59,9999,9999,9999,2625786996
82,23,13,Improv_Metronome,60,9999,9999,9999,2626286676
82,23,13,Improv_Metronome,61,9999,9999,9999,2626786372
82,23,13,Improv_Metronome,62,9999,9999,9999,2627286080
82,23,13,Improv_Metronome,63,9999,9999,9999,2627786856
82,23,13,Improv_Metronome,64,9999,9999,9999,2628286548
82,23,13,Improv_Metronome,65,9999,9999,9999,2628786256
82,23,13,Improv_Metronome,66,9999,9999,9999,2629286976
82,23,13,Improv_Metronome,67,9999,9999,9999,2629786736
82,23,13,Improv_Metronome,68,9999,9999,9999,2630286408
82,23,13,Improv_Metronome,69,9999,9999,9999,2630786140
82,23,13,Improv_Metronome,70,9999,9999,9999,2631286860
82,23,13,Improv_Metronome,71,9999,9999,9999,2631786560
82,23,13,Improv_Metronome,72,9999,9999,9999,2632286300
82,23,13,Improv_Metronome,73,9999,9999,9999,2632787012
82,23,13,Improv_Metronome,74,9999,9999,9999,2633286776
82,23,13,Improv_Metronome,75,9999,9999,9999,2633786488
82,23,13,Improv_Metronome,76,9999,9999,9999,2634286188
82,23,13,Improv_Metronome,77,9999,9999,9999,2634786908
82,23,13,Improv_Metronome,78,9999,9999,9999,2635286648
82,23,13,Improv_Metronome,79,9999,9999,9999,2635786356
82,23,13,Improv_Metronome,80,9999,9999,9999,2636287076
82,23,13,Improv_Metronome,81,9999,9999,9999,2636786744
82,23,13,Improv_Metronome,82,9999,9999,9999,2637286464
82,23,13,Improv_Metronome,83,9999,9999,9999,2637786208
82,23,13,Improv_Metronome,84,9999,9999,9999,2638286956
82,23,13,Improv_Metronome,85,9999,9999,9999,2638786648
82,23,13,Improv_Metronome,86,9999,9999,9999,2639286344
82,23,13,Improv_Metronome,87,9999,9999,9999,2639787084
82,23,13,Improv_Metronome,88,9999,9999,9999,2640286772
82,23,13,Improv_Metronome,89,9999,9999,9999,2640786548
82,23,13,Improv_Metronome,90,9999,9999,9999,2641286244
82,23,13,Improv_Metronome,91,9999,9999,9999,2641787000
82,23,13,Improv_Metronome,92,9999,9999,9999,2642286700
82,23,13,Improv_Metronome,93,9999,9999,9999,2642786396
82,23,13,Improv_Metronome,94,9999,9999,9999,2643286092
82,23,13,Improv_Metronome,95,9999,9999,9999,2643786848
82,23,13,Improv_Metronome,96,9999,9999,9999,2644286548
82,23,13,Improv_Metronome,97,9999,9999,9999,2644786244
82,23,13,Improv_Metronome,98,9999,9999,9999,2645286984
82,23,13,Improv_Metronome,99,9999,9999,9999,2645786700
82,23,13,Improv_Metronome,100,9999,9999,9999,2646286396
82,23,13,Improv_Metronome,101,9999,9999,9999,2646786144
82,23,13,Improv_Metronome,102,9999,9999,9999,2647286844
82,23,13,Improv_Metronome,103,9999,9999,9999,2647786592
82,23,13,Improv_Metronome,104,9999,9999,9999,2648286292
82,23,13,Improv_Metronome,105,9999,9999,9999,2648787012
82,23,13,Improv_Metronome,106,9999,9999,9999,2649286740
82,23,13,Improv_Metronome,107,9999,9999,9999,2649786484
82,23,13,Improv_Metronome,108,9999,9999,9999,2650286160
82,23,13,Improv_Metronome,109,9999,9999,9999,2650786928
82,23,13,Improv_Metronome,110,9999,9999,9999,2651286592
82,23,13,Improv_Metronome,111,9999,9999,9999,2651786324
82,23,13,Improv_Metronome,112,9999,9999,9999,2652287096
82,23,13,Improv_Metronome,113,9999,9999,9999,2652786748
82,23,13,Improv_Metronome,114,9999,9999,9999,2653286496
82,23,13,Improv_Metronome,115,9999,9999,9999,2653786200
82,23,13,Improv_Metronome,116,9999,9999,9999,2654286940
82,23,13,Improv_Metronome,117,9999,9999,9999,2654786680
82,23,13,Improv_Metronome,118,9999,9999,9999,2655286392
82,23,13,Improv_Metronome,119,9999,9999,9999,2655787112
82,23,13,Improv_Metronome,120,9999,9999,9999,2656286784
82,23,13,Improv_Metronome,121,9999,9999,9999,2656786508
82,23,13,Improv_Metronome,122,9999,9999,9999,2657286248
82,23,13,Improv_Metronome,123,9999,9999,9999,2657786952
82,23,13,Improv_Metronome,124,9999,9999,9999,2658286648
82,23,13,Improv_Metronome,125,9999,9999,9999,2658786392
82,23,13,Improv_Metronome,126,9999,9999,9999,2659286116
82,23,13,Improv_Metronome,127,9999,9999,9999,2659786820
82,23,13,Improv_Metronome,128,9999,9999,9999,2660286564
82,23,13,Improv_Metronome,129,9999,9999,9999,2660786292
82,23,13,Improv_Metronome,130,9999,9999,9999,2661287008
82,23,13,Improv_Metronome,131,9999,9999,9999,2661786692
82,23,13,Improv_Metronome,132,9999,9999,9999,2662286388
82,23,13,Improv_Metronome,133,9999,9999,9999,2662786136
82,23,13,Improv_Metronome,134,9999,9999,9999,2663286852
82,23,13,Improv_Metronome,135,9999,9999,9999,2663786600
82,23,13,Improv_Metronome,136,9999,9999,9999,2664286272
82,23,13,Improv_Metronome,137,9999,9999,9999,2664786992
82,23,13,Improv_Metronome,138,9999,9999,9999,2665286740
82,23,13,Improv_Metronome,139,9999,9999,9999,2665786488
82,24,14,Improv_Melody,0,2,48,80,2720109020
82,24,14,Improv_Melody,1,2,72,80,2720111768
82,24,14,Improv_Melody,2,5,42,127,2720113252
82,24,14,Improv_Melody,3,5,42,110,2720605496
82,24,14,Improv_Melody,4,5,42,110,2721106264
82,24,14,Improv_Melody,5,5,42,110,2721605988
82,24,14,Improv_Melody,6,5,42,127,2722105856
82,24,14,Improv_Melody,7,5,42,110,2722605356
82,24,14,Improv_Melody,8,5,42,110,2723106052
82,24,14,Improv_Melody,9,5,42,110,2723605848
82,24,14,Improv_Melody,10,2,43,80,2724108224
82,24,14,Improv_Melody,11,2,67,80,2724110380
82,24,14,Improv_Melody,12,5,42,127,2724112912
82,24,14,Improv_Melody,13,5,42,110,2724606204
82,24,14,Improv_Melody,14,5,42,110,2725105924
82,24,14,Improv_Melody,15,5,42,110,2725605796
82,24,14,Improv_Melody,16,5,42,127,2726105592
82,24,14,Improv_Melody,17,5,42,110,2726606136
82,24,14,Improv_Melody,18,5,42,110,2727105856
82,24,14,Improv_Melody,19,5,42,110,2727605952
82,24,14,Improv_Melody,20,2,45,80,2728108928
82,24,14,Improv_Melody,21,2,69,80,2728110780
82,24,14,Improv_Melody,22,5,42,127,2728113316
82,24,14,Improv_Melody,23,5,42,110,2728606060
82,24,14,Improv_Melody,24,5,42,110,2729105928
82,24,14,Improv_Melody,25,5,42,110,2729605652
82,24,14,Improv_Melody,26,5,42,127,2730106124
82,24,14,Improv_Melody,27,5,42,110,2730605992
82,24,14,Improv_Melody,28,5,42,110,2731105788
82,24,14,Improv_Melody,29,5,42,110,2731606560
82,24,14,Improv_Melody,30,2,41,80,2732108784
82,24,14,Improv_Melody,31,2,65,80,2732110784
82,24,14,Improv_Melody,32,5,42,127,2732113248
82,24,14,Improv_Melody,33,5,42,110,2732605792
82,24,14,Improv_Melody,34,5,42,110,2733105960
82,24,14,Improv_Melody,35,5,42,110,2733606284
82,24,14,Improv_Melody,36,5,42,127,2734105932
82,24,14,Improv_Melody,37,5,42,110,2734605800
82,24,14,Improv_Melody,38,5,42,110,2735106496
82,24,14,Improv_Melody,39,5,42,110,2735605996
82,24,14,Improv_Melody,40,1,38,52,2736091308
82,24,14,Improv_Melody,41,1,48,13,2736106724
82,24,14,Improv_Melody,42,2,48,80,2736109644
82,24,14,Improv_Melody,43,2,72,80,2736111488
82,24,14,Improv_Melody,44,5,42,127,2736114176
82,24,14,Improv_Melody,45,5,42,110,2736605780
82,24,14,Improv_Melody,46,1,38,60,2736635976
82,24,14,Improv_Melody,47,1,38,56,2736909440
82,24,14,Improv_Melody,48,5,42,110,2737106280
82,24,14,Improv_Melody,49,1,38,57,2737189436
82,24,14,Improv_Melody,50,5,42,110,2737605984
82,24,14,Improv_Melody,51,1,38,55,2737635356
82,24,14,Improv_Melody,52,1,38,58,2737856760
82,24,14,Improv_Melody,53,5,42,127,2738105736
82,24,14,Improv_Melody,54,1,38,77,2738142216
82,24,14,Improv_Melody,55,1,38,51,2738585692
82,24,14,Improv_Melody,56,5,42,110,2738605576
82,24,14,Improv_Melody,57,1,38,65,2738865268
82,24,14,Improv_Melody,58,5,42,110,2739106360
82,24,14,Improv_Melody,59,1,38,62,2739117436
82,24,14,Improv_Melody,60,1,38,59,2739320864
82,24,14,Improv_Melody,61,1,38,54,2739530296
82,24,14,Improv_Melody,62,5,42,110,2739605732
82,24,14,Improv_Melody,63,1,38,59,2739651796
82,24,14,Improv_Melody,64,1,38,55,2739883892
82,24,14,Improv_Melody,65,2,43,80,2740108276
82,24,14,Improv_Melody,66,2,67,80,2740110356
82,24,14,Improv_Melody,67,5,42,127,2740112960
82,24,14,Improv_Melody,68,1,38,59,2740155824
82,24,14,Improv_Melody,69,1,38,41,2740193124
82,24,14,Improv_Melody,70,1,38,61,2740601080
82,24,14,Improv_Melody,71,5,42,110,2740606500
82,24,14,Improv_Melody,72,1,38,62,2740865812
82,24,14,Improv_Melody,73,5,42,110,2741105888
82,24,14,Improv_Melody,74,1,38,65,2741122472
82,24,14,Improv_Melody,75,1,38,21,2741214400
82,24,14,Improv_Melody,76,1,38,59,2741586000
82,24,14,Improv_Melody,77,5,42,110,2741605636
82,24,14,Improv_Melody,78,1,38,52,2741795304
82,24,14,Improv_Melody,79,1,38,63,2742098540
82,24,14,Improv_Melody,80,5,42,127,2742105832
82,24,14,Improv_Melody,81,1,38,57,2742593376
82,24,14,Improv_Melody,82,5,42,110,2742606132
82,24,14,Improv_Melody,83,1,38,71,2742855640
82,24,14,Improv_Melody,84,5,42,110,2743105892
82,24,14,Improv_Melody,85,1,38,70,2743131156
82,24,14,Improv_Melody,86,1,38,69,2743251876
82,24,14,Improv_Melody,87,1,38,73,2743497664
82,24,14,Improv_Melody,88,1,38,69,2743603504
82,24,14,Improv_Melody,89,5,42,110,2743606212
82,24,14,Improv_Melody,90,1,38,66,2743842412
82,24,14,Improv_Melody,91,2,45,80,2744108852
82,24,14,Improv_Melody,92,2,69,80,2744111232
82,24,14,Improv_Melody,93,5,42,127,2744113840
82,24,14,Improv_Melody,94,1,38,63,2744133192
82,24,14,Improv_Melody,95,5,42,110,2744606212
82,24,14,Improv_Melody,96,1,38,64,2744658176
82,24,14,Improv_Melody,97,1,38,66,2744909496
82,24,14,Improv_Melody,98,5,42,110,2745105740
82,24,14,Improv_Melody,99,1,38,68,2745149320
82,24,14,Improv_Melody,100,1,38,38,2745212280
82,24,14,Improv_Melody,101,1,38,69,2745539924
82,24,14,Improv_Melody,102,1,38,38,2745602432
82,24,14,Improv_Melody,103,5,42,110,2745605612
82,24,14,Improv_Melody,104,1,38,55,2745851536
82,24,14,Improv_Melody,105,1,38,67,2746096656
82,24,14,Improv_Melody,106,5,42,127,2746106340
82,24,14,Improv_Melody,107,1,38,27,2746179452
82,24,14,Improv_Melody,108,5,42,110,2746605876
82,24,14,Improv_Melody,109,1,38,68,2746622984
82,24,14,Improv_Melody,110,1,38,61,2746881560
82,24,14,Improv_Melody,111,5,42,110,2747105628
82,24,14,Improv_Melody,112,1,38,67,2747120044
82,24,14,Improv_Melody,113,1,38,66,2747256300
82,24,14,Improv_Melody,114,1,38,61,2747515176
82,24,14,Improv_Melody,115,5,42,110,2747606348
82,24,14,Improv_Melody,116,1,38,74,2747623512
82,24,14,Improv_Melody,117,1,38,62,2747880668
82,24,14,Improv_Melody,118,2,41,80,2748108816
82,24,14,Improv_Melody,119,2,65,80,2748111040
82,24,14,Improv_Melody,120,5,42,127,2748113572
82,24,14,Improv_Melody,121,1,38,62,2748120508
82,24,14,Improv_Melody,122,5,42,110,2748605724
82,24,14,Improv_Melody,123,1,38,64,2748628512
82,24,14,Improv_Melody,124,1,38,77,2748878940
82,24,14,Improv_Melody,125,5,42,110,2749105476
82,24,14,Improv_Melody,126,1,38,68,2749149508
82,24,14,Improv_Melody,127,1,38,70,2749602556
82,24,14,Improv_Melody,128,5,42,110,2749606288
82,24,14,Improv_Melody,129,1,38,70,2749861384
82,24,14,Improv_Melody,130,5,42,127,2750106072
82,24,14,Improv_Melody,131,1,38,70,2750118864
82,24,14,Improv_Melody,132,1,38,72,2750559504
82,24,14,Improv_Melody,133,5,42,110,2750605616
82,24,14,Improv_Melody,134,1,38,67,2750809952
82,24,14,Improv_Melody,135,5,42,110,2751106352
82,24,14,Improv_Melody,136,1,38,62,2751120688
82,24,14,Improv_Melody,137,1,38,59,2751259140
82,24,14,Improv_Melody,138,1,38,63,2751508220
82,24,14,Improv_Melody,139,5,42,110,2751606320
82,24,14,Improv_Melody,140,1,38,62,2751630368
82,24,14,Improv_Melody,141,1,38,72,2751881688
82,24,14,Improv_Melody,142,2,48,80,2752108412
82,24,14,Improv_Melody,143,2,72,80,2752110488
82,24,14,Improv_Melody,144,5,42,127,2752113176
82,24,14,Improv_Melody,145,1,48,82,2752114140
82,24,14,Improv_Melody,146,5,42,110,2752605548
82,24,14,Improv_Melody,147,1,48,65,2752650628
82,24,14,Improv_Melody,148,1,38,71,2752875244
82,24,14,Improv_Melody,149,5,42,110,2753106420
82,24,14,Improv_Melody,150,1,48,77,2753117916
82,24,14,Improv_Melody,151,1,48,72,2753600764
82,24,14,Improv_Melody,152,5,42,110,2753606260
82,24,14,Improv_Melody,153,1,38,70,2753863624
82,24,14,Improv_Melody,154,1,38,35,2753939976
82,24,14,Improv_Melody,155,1,38,19,2754015000
82,24,14,Improv_Melody,156,1,48,70,2754095764
82,24,14,Improv_Melody,157,5,42,127,2754105824
82,24,14,Improv_Melody,158,1,48,78,2754592736
82,24,14,Improv_Melody,159,5,42,110,2754605348
82,24,14,Improv_Melody,160,1,38,61,2754856060
82,24,14,Improv_Melody,161,1,38,43,2754888568
82,24,14,Improv_Melody,162,1,48,80,2755098980
82,24,14,Improv_Melody,163,5,42,110,2755106272
82,24,14,Improv_Melody,164,1,38,59,2755205344
82,24,14,Improv_Melody,165,1,48,80,2755501864
82,24,14,Improv_Melody,166,1,38,56,2755576420
82,24,14,Improv_Melody,167,5,42,110,2755606140
82,24,14,Improv_Melody,168,1,48,81,2755859240
82,24,14,Improv_Melody,169,2,43,80,2756108108
82,24,14,Improv_Melody,170,2,67,80,2756110256
82,24,14,Improv_Melody,171,5,42,127,2756112792
82,24,14,Improv_Melody,172,1,48,88,2756156904
82,24,14,Improv_Melody,173,5,42,110,2756606288
82,24,14,Improv_Melody,174,1,48,78,2756627132
82,24,14,Improv_Melody,175,1,38,67,2756916152
82,24,14,Improv_Melody,176,5,42,110,2757106264
82,24,14,Improv_Melody,177,1,48,85,2757130024
82,24,14,Improv_Melody,178,1,48,73,2757585868
82,24,14,Improv_Melody,179,5,42,110,2757605660
82,24,14,Improv_Melody,180,1,38,65,2757842676
82,24,14,Improv_Melody,181,1,38,27,2757912892
82,24,14,Improv_Melody,182,1,48,92,2758085376
82,24,14,Improv_Melody,183,5,42,127,2758105392
82,24,14,Improv_Melody,184,1,48,82,2758591884
82,24,14,Improv_Melody,185,5,42,110,2758606284
82,24,14,Improv_Melody,186,1,38,64,2758856772
82,24,14,Improv_Melody,187,1,38,37,2758925788
82,24,14,Improv_Melody,188,1,48,97,2759088848
82,24,14,Improv_Melody,189,5,42,110,2759106164
82,24,14,Improv_Melody,190,1,38,65,2759248172
82,24,14,Improv_Melody,191,1,48,99,2759499192
82,24,14,Improv_Melody,192,1,38,57,2759603860
82,24,14,Improv_Melody,193,5,42,110,2759606644
82,24,14,Improv_Melody,194,1,48,82,2759858172
82,24,14,Improv_Melody,195,2,45,80,2760108604
82,24,14,Improv_Melody,196,2,69,80,2760110980
82,24,14,Improv_Melody,197,5,42,127,2760113372
82,24,14,Improv_Melody,198,1,48,102,2760126740
82,24,14,Improv_Melody,199,1,48,76,2760605488
82,24,14,Improv_Melody,200,5,42,110,2760607132
82,24,14,Improv_Melody,201,1,38,62,2760913216
82,24,14,Improv_Melody,202,5,42,110,2761105992
82,24,14,Improv_Melody,203,1,48,91,2761147280
82,24,14,Improv_Melody,204,1,48,67,2761544760
82,24,14,Improv_Melody,205,5,42,110,2761605460
82,24,14,Improv_Melody,206,1,38,60,2761863120
82,24,14,Improv_Melody,207,1,48,66,2762082060
82,24,14,Improv_Melody,208,5,42,127,2762106260
82,24,14,Improv_Melody,209,1,48,64,2762530976
82,24,14,Improv_Melody,210,5,42,110,2762606108
82,24,14,Improv_Melody,211,1,38,70,2762831684
82,24,14,Improv_Melody,212,1,48,68,2763086672
82,24,14,Improv_Melody,213,5,42,110,2763105636
82,24,14,Improv_Melody,214,1,38,62,2763277660
82,24,14,Improv_Melody,215,1,48,68,2763519112
82,24,14,Improv_Melody,216,5,42,110,2763606288
82,24,14,Improv_Melody,217,1,38,71,2763633400
82,24,14,Improv_Melody,218,1,48,76,2763888988
82,24,14,Improv_Melody,219,2,41,80,2764108452
82,24,14,Improv_Melody,220,2,65,80,2764110752
82,24,14,Improv_Melody,221,5,42,127,2764113216
82,24,14,Improv_Melody,222,1,48,75,2764161068
82,24,14,Improv_Melody,223,1,48,67,2764595892
82,24,14,Improv_Melody,224,5,42,110,2764606104
82,24,14,Improv_Melody,225,1,38,73,2764875064
82,24,14,Improv_Melody,226,1,48,80,2765090932
82,24,14,Improv_Melody,227,5,42,110,2765105852
82,24,14,Improv_Melody,228,1,48,69,2765548672
82,24,14,Improv_Melody,229,5,42,110,2765606156
82,24,14,Improv_Melody,230,1,38,67,2765847064
82,24,14,Improv_Melody,231,1,38,30,2765916080
82,24,14,Improv_Melody,232,1,48,72,2766098744
82,24,14,Improv_Melody,233,5,42,127,2766106036
82,24,14,Improv_Melody,234,1,48,63,2766533216
82,24,14,Improv_Melody,235,5,42,110,2766605884
82,24,14,Improv_Melody,236,1,38,68,2766858988
82,24,14,Improv_Melody,237,1,38,25,2766930544
82,24,14,Improv_Melody,238,1,48,61,2767105312
82,24,14,Improv_Melody,239,5,42,110,2767106884
82,24,14,Improv_Melody,240,1,38,63,2767306136
82,24,14,Improv_Melody,241,1,48,63,2767551472
82,24,14,Improv_Melody,242,5,42,110,2767606044
82,24,14,Improv_Melody,243,1,38,74,2767651404
82,24,14,Improv_Melody,244,1,38,71,2767926212
82,24,14,Improv_Melody,245,2,48,80,2768108280
82,24,14,Improv_Melody,246,2,72,80,2768110580
82,24,14,Improv_Melody,247,5,42,127,2768113196
82,24,14,Improv_Melody,248,1,48,94,2768154688
82,24,14,Improv_Melody,249,1,48,71,2768407432
82,24,14,Improv_Melody,250,5,42,110,2768605768
82,24,14,Improv_Melody,251,1,48,70,2768685928
82,24,14,Improv_Melody,252,1,48,67,2768930072
82,24,14,Improv_Melody,253,5,42,110,2769106272
82,24,14,Improv_Melody,254,1,48,67,2769197132
82,24,14,Improv_Melody,255,1,48,57,2769445084
82,24,14,Improv_Melody,256,5,42,110,2769606096
82,24,14,Improv_Melody,257,1,48,56,2769675640
82,24,14,Improv_Melody,258,1,48,58,2769898388
82,24,14,Improv_Melody,259,5,42,127,2770105780
82,24,14,Improv_Melody,260,1,48,50,2770158336
82,24,14,Improv_Melody,261,1,48,51,2770398892
82,24,14,Improv_Melody,262,5,42,110,2770605604
82,24,14,Improv_Melody,263,1,48,60,2770661228
82,24,14,Improv_Melody,264,1,48,51,2770920184
82,24,14,Improv_Melody,265,5,42,110,2771106156
82,24,14,Improv_Melody,266,1,48,56,2771108824
82,24,14,Improv_Melody,267,1,48,43,2771141792
82,24,14,Improv_Melody,268,1,48,66,2771392288
82,24,14,Improv_Melody,269,1,48,46,2771432280
82,24,14,Improv_Melody,270,5,42,110,2771605768
82,24,14,Improv_Melody,271,1,48,67,2771646984
82,24,14,Improv_Melody,272,1,48,40,2771690568
82,24,14,Improv_Melody,273,1,48,78,2771863852
82,24,14,Improv_Melody,274,1,48,46,2771900508
82,24,14,Improv_Melody,275,2,43,80,2772108052
82,24,14,Improv_Melody,276,2,67,80,2772110056
82,24,14,Improv_Melody,277,5,42,127,2772112892
82,24,14,Improv_Melody,278,1,38,51,2772141544
82,24,14,Improv_Melody,279,1,38,59,2772360608
82,24,14,Improv_Melody,280,1,38,53,2772605836
82,24,14,Improv_Melody,281,5,42,110,2772608600
82,24,14,Improv_Melody,282,1,38,46,2772858940
82,24,14,Improv_Melody,283,5,42,110,2773105968
82,24,14,Improv_Melody,284,1,38,58,2773111928
82,24,14,Improv_Melody,285,1,38,56,2773370432
82,24,14,Improv_Melody,286,5,42,110,2773605720
82,24,14,Improv_Melody,287,1,38,51,2773609284
82,24,14,Improv_Melody,288,1,38,50,2773854252
82,24,14,Improv_Melody,289,1,38,48,2774100488
82,24,14,Improv_Melody,290,5,42,127,2774105388
82,24,14,Improv_Melody,291,1,38,41,2774355644
82,24,14,Improv_Melody,292,5,42,110,2774606044
82,24,14,Improv_Melody,293,1,38,45,2774607088
82,24,14,Improv_Melody,294,1,38,46,2774867220
82,24,14,Improv_Melody,295,5,42,110,2775106020
82,24,14,Improv_Melody,296,1,38,54,2775119388
82,24,14,Improv_Melody,297,1,38,59,2775378340
82,24,14,Improv_Melody,298,5,42,110,2775605700
82,24,14,Improv_Melody,299,1,38,55,2775618392
82,24,14,Improv_Melody,300,1,38,50,2775874728
82,24,14,Improv_Melody,301,2,45,80,2776109084
82,24,14,Improv_Melody,302,1,38,53,2776110200
82,24,14,Improv_Melody,303,2,69,80,2776114148
82,24,14,Improv_Melody,304,5,42,127,2776116616
82,24,14,Improv_Melody,305,1,48,75,2776148532
82,24,14,Improv_Melody,306,1,48,60,2776374784
82,24,14,Improv_Melody,307,1,38,51,2776430488
82,24,14,Improv_Melody,308,5,42,110,2776605924
82,24,14,Improv_Melody,309,1,48,55,2776636192
82,24,14,Improv_Melody,310,1,38,46,2776669908
82,24,14,Improv_Melody,311,1,48,61,2776918824
82,24,14,Improv_Melody,312,1,38,40,2776934960
82,24,14,Improv_Melody,313,5,42,110,2777105744
82,24,14,Improv_Melody,314,1,48,58,2777153364
82,24,14,Improv_Melody,315,1,38,33,2777157164
82,24,14,Improv_Melody,316,1,38,31,2777407260
82,24,14,Improv_Melody,317,5,42,110,2777605596
82,24,14,Improv_Melody,318,1,38,32,2777626444
82,24,14,Improv_Melody,319,1,38,57,2777906344
82,24,14,Improv_Melody,320,1,38,55,2778104356
82,24,14,Improv_Melody,321,5,42,127,2778107364
82,24,14,Improv_Melody,322,1,38,41,2778135000
82,24,14,Improv_Melody,323,1,48,61,2778396568
82,24,14,Improv_Melody,324,5,42,110,2778605904
82,24,14,Improv_Melody,325,1,38,64,2778619348
82,24,14,Improv_Melody,326,1,38,23,2778686044
82,24,14,Improv_Melody,327,1,38,55,2778960700
82,24,14,Improv_Melody,328,5,42,110,2779105636
82,24,14,Improv_Melody,329,1,48,36,2779106604
82,24,14,Improv_Melody,330,1,48,23,2779189440
82,24,14,Improv_Melody,331,1,48,62,2779465588
82,24,14,Improv_Melody,332,5,42,110,2779606636
82,24,14,Improv_Melody,333,1,38,70,2779652612
82,24,14,Improv_Melody,334,1,38,65,2779923608
82,24,14,Improv_Melody,335,2,41,80,2780108668
82,24,14,Improv_Melody,336,2,65,80,2780110816
82,24,14,Improv_Melody,337,5,42,127,2780113508
82,24,14,Improv_Melody,338,1,48,78,2780177592
82,24,14,Improv_Melody,339,1,48,57,2780406172
82,24,14,Improv_Melody,340,1,38,62,2780597732
82,24,14,Improv_Melody,341,5,42,110,2780605700
82,24,14,Improv_Melody,342,1,48,71,2780632156
82,24,14,Improv_Melody,343,1,38,63,2780888540
82,24,14,Improv_Melody,344,1,48,90,2780906096
82,24,14,Improv_Melody,345,5,42,110,2781105600
82,24,14,Improv_Melody,346,1,38,62,2781126148
82,24,14,Improv_Melody,347,1,48,87,2781141984
82,24,14,Improv_Melody,348,1,38,57,2781359024
82,24,14,Improv_Melody,349,1,48,75,2781369480
82,24,14,Improv_Melody,350,1,38,54,2781605704
82,24,14,Improv_Melody,351,5,42,110,2781608468
82,24,14,Improv_Melody,352,1,48,59,2781609436
82,24,14,Improv_Melody,353,1,48,71,2781872236
82,24,14,Improv_Melody,354,1,38,60,2781877224
82,24,14,Improv_Melody,355,5,42,127,2782106028
82,24,14,Improv_Melody,356,1,38,50,2782131688
82,24,14,Improv_Melody,357,1,48,62,2782143036
82,24,14,Improv_Melody,358,1,48,72,2782387148
82,24,14,Improv_Melody,359,1,38,51,2782390424
82,24,14,Improv_Melody,360,5,42,110,2782605612
82,24,14,Improv_Melody,361,1,38,60,2782615764
82,24,14,Improv_Melody,362,1,48,58,2782620080
82,24,14,Improv_Melody,363,1,48,55,2782877812
82,24,14,Improv_Melody,364,1,38,63,2782897204
82,24,14,Improv_Melody,365,5,42,110,2783106628
82,24,14,Improv_Melody,366,1,38,54,2783116252
82,24,14,Improv_Melody,367,1,48,59,2783131564
82,24,14,Improv_Melody,368,1,48,57,2783392064
82,24,14,Improv_Melody,369,1,38,48,2783405620
82,24,14,Improv_Melody,370,5,42,110,2783606000
82,24,14,Improv_Melody,371,1,48,54,2783628344
82,24,14,Improv_Melody,372,1,38,46,2783637000
82,24,14,Improv_Melody,373,1,48,49,2783872212
82,24,14,Improv_Melody,374,1,38,59,2783915832
82,24,14,Improv_Melody,375,2,48,80,2784108552
82,24,14,Improv_Melody,376,2,72,80,2784110544
82,24,14,Improv_Melody,377,5,42,127,2784113308
82,24,14,Improv_Melody,378,1,38,50,2784154728
82,24,14,Improv_Melody,379,5,42,110,2784605532
82,24,14,Improv_Melody,380,1,38,67,2784651656
82,24,14,Improv_Melody,381,1,38,62,2784975480
82,24,14,Improv_Melody,382,5,42,110,2785106552
82,24,14,Improv_Melody,383,1,38,57,2785140488
82,24,14,Improv_Melody,384,5,42,110,2785605956
82,24,14,Improv_Melody,385,1,38,48,2785630988
82,24,14,Improv_Melody,386,1,38,49,2785947164
82,24,14,Improv_Melody,387,5,42,127,2786105636
82,24,14,Improv_Melody,388,1,38,62,2786156624
82,24,14,Improv_Melody,389,1,38,56,2786603360
82,24,14,Improv_Melody,390,5,42,110,2786606152
82,24,14,Improv_Melody,391,1,38,28,2786873540
82,24,14,Improv_Melody,392,5,42,110,2787106132
82,24,14,Improv_Melody,393,1,38,58,2787117628
82,24,14,Improv_Melody,394,1,38,68,2787287944
82,24,14,Improv_Melody,395,1,38,55,2787438940
82,24,14,Improv_Melody,396,5,42,110,2787605864
82,24,14,Improv_Melody,397,1,38,62,2787628580
82,24,14,Improv_Melody,398,1,38,53,2787795156
82,24,14,Improv_Melody,399,1,38,71,2787955200
82,24,14,Improv_Melody,400,2,43,80,2788108100
82,24,14,Improv_Melody,401,2,67,80,2788110404
82,24,14,Improv_Melody,402,5,42,127,2788112860
82,24,14,Improv_Melody,403,1,38,49,2788116508
82,24,14,Improv_Melody,404,1,48,92,2788588504
82,24,14,Improv_Melody,405,5,42,110,2788606496
82,24,14,Improv_Melody,406,1,48,80,2788933196
82,24,14,Improv_Melody,407,5,42,110,2789106104
82,24,14,Improv_Melody,408,1,48,55,2789107072
82,24,14,Improv_Melody,409,1,48,90,2789595060
82,24,14,Improv_Melody,410,5,42,110,2789605724
82,24,14,Improv_Melody,411,1,48,72,2789916644
82,24,14,Improv_Melody,412,5,42,127,2790105336
82,24,14,Improv_Melody,413,1,48,73,2790143608
82,24,14,Improv_Melody,414,5,42,110,2790606452
82,24,14,Improv_Melody,415,1,48,67,2790611372
82,24,14,Improv_Melody,416,1,48,64,2790904132
82,24,14,Improv_Melody,417,5,42,110,2791105836
82,24,14,Improv_Melody,418,1,48,63,2791118528
82,24,14,Improv_Melody,419,1,48,65,2791265484
82,24,14,Improv_Melody,420,1,48,54,2791457192
82,24,14,Improv_Melody,421,5,42,110,2791605568
82,24,14,Improv_Melody,422,1,48,65,2791621100
82,24,14,Improv_Melody,423,1,48,53,2791786536
82,24,14,Improv_Melody,424,1,48,74,2791945852
82,24,14,Improv_Melody,425,2,45,80,2792108924
82,24,14,Improv_Melody,426,2,69,80,2792111072
82,24,14,Improv_Melody,427,5,42,127,2792113684
82,24,14,Improv_Melody,428,1,38,51,2792170136
82,24,14,Improv_Melody,429,1,38,70,2792605652
82,24,14,Improv_Melody,430,5,42,110,2792608492
82,24,14,Improv_Melody,431,1,38,63,2792937464
82,24,14,Improv_Melody,432,5,42,110,2793105636
82,24,14,Improv_Melody,433,1,38,48,2793143336
82,24,14,Improv_Melody,434,1,38,30,2793596536
82,24,14,Improv_Melody,435,5,42,110,2793605404
82,24,14,Improv_Melody,436,1,38,68,2793974988
82,24,14,Improv_Melody,437,5,42,127,2794106356
82,24,14,Improv_Melody,438,1,38,52,2794142684
82,24,14,Improv_Melody,439,1,38,72,2794557472
82,24,14,Improv_Melody,440,5,42,110,2794605976
82,24,14,Improv_Melody,441,1,38,60,2794895128
82,24,14,Improv_Melody,442,5,42,110,2795105584
82,24,14,Improv_Melody,443,1,38,59,2795134432
82,24,14,Improv_Melody,444,1,38,73,2795288368
82,24,14,Improv_Melody,445,1,38,52,2795451208
82,24,14,Improv_Melody,446,1,38,56,2795604168
82,24,14,Improv_Melody,447,5,42,110,2795606956
82,24,14,Improv_Melody,448,1,38,36,2795778900
82,24,14,Improv_Melody,449,1,38,58,2795891976
82,24,14,Improv_Melody,450,2,41,80,2796108676
82,24,14,Improv_Melody,451,2,65,80,2796110824
82,24,14,Improv_Melody,452,5,42,127,2796113364
82,24,14,Improv_Melody,453,1,48,67,2796125908
82,24,14,Improv_Melody,454,1,48,85,2796605960
82,24,14,Improv_Melody,455,5,42,110,2796607448
82,24,14,Improv_Melody,456,1,48,75,2796910364
82,24,14,Improv_Melody,457,5,42,110,2797105412
82,24,14,Improv_Melody,458,1,48,61,2797115108
82,24,14,Improv_Melody,459,1,48,89,2797574472
82,24,14,Improv_Melody,460,5,42,110,2797606376
82,24,14,Improv_Melody,461,1,48,69,2797899196
82,24,14,Improv_Melody,462,5,42,127,2798106064
82,24,14,Improv_Melody,463,1,48,69,2798124068
82,24,14,Improv_Melody,464,5,42,110,2798605764
82,24,14,Improv_Melody,465,1,48,81,2798613220
82,24,14,Improv_Melody,466,1,48,62,2798899256
82,24,14,Improv_Melody,467,5,42,110,2799106492
82,24,14,Improv_Melody,468,1,48,59,2799146856
82,24,14,Improv_Melody,469,1,48,66,2799282692
82,24,14,Improv_Melody,470,1,48,49,2799499588
82,24,14,Improv_Melody,471,5,42,110,2799606148
82,24,14,Improv_Melody,472,1,48,67,2799638592
82,24,14,Improv_Melody,473,1,48,59,2799863956
82,24,14,Improv_Melody,474,1,48,85,2800026096
82,24,14,Improv_Melody,475,2,48,80,2800108400
82,24,14,Improv_Melody,476,2,72,80,2800110700
82,24,14,Improv_Melody,477,5,42,127,2800113232
82,24,14,Improv_Melody,478,1,48,25,2800116792
82,24,14,Improv_Melody,479,1,48,25,2800177952
82,24,14,Improv_Melody,480,1,38,63,2800239792
82,24,14,Improv_Melody,481,5,42,110,2800605464
82,24,14,Improv_Melody,482,1,38,43,2800660568
82,24,14,Improv_Melody,483,1,38,56,2800925276
82,24,14,Improv_Melody,0,9999,9999,9999,2720103516
82,24,14,Improv_Melody,1,9999,9999,9999,2720603204
82,24,14,Improv_Melody,2,9999,9999,9999,2721103972
82,24,14,Improv_Melody,3,9999,9999,9999,2721603692
82,24,14,Improv_Melody,4,9999,9999,9999,2722103416
82,24,14,Improv_Melody,5,9999,9999,9999,2722603064
82,24,14,Improv_Melody,6,9999,9999,9999,2723103832
82,24,14,Improv_Melody,7,9999,9999,9999,2723603552
82,24,14,Improv_Melody,8,9999,9999,9999,2724103276
82,24,14,Improv_Melody,9,9999,9999,9999,2724603984
82,24,14,Improv_Melody,10,9999,9999,9999,2725103704
82,24,14,Improv_Melody,11,9999,9999,9999,2725603424
82,24,14,Improv_Melody,12,9999,9999,9999,2726103148
82,24,14,Improv_Melody,13,9999,9999,9999,2726603840
82,24,14,Improv_Melody,14,9999,9999,9999,2727103564
82,24,14,Improv_Melody,15,9999,9999,9999,2727603284
82,24,14,Improv_Melody,16,9999,9999,9999,2728104052
82,24,14,Improv_Melody,17,9999,9999,9999,2728603764
82,24,14,Improv_Melody,18,9999,9999,9999,2729103412
82,24,14,Improv_Melody,19,9999,9999,9999,2729603132
82,24,14,Improv_Melody,20,9999,9999,9999,2730103904
82,24,14,Improv_Melody,21,9999,9999,9999,2730603624
82,24,14,Improv_Melody,22,9999,9999,9999,2731103344
82,24,14,Improv_Melody,23,9999,9999,9999,2731604040
82,24,14,Improv_Melody,24,9999,9999,9999,2732103760
82,24,14,Improv_Melody,25,9999,9999,9999,2732603500
82,24,14,Improv_Melody,26,9999,9999,9999,2733103220
82,24,14,Improv_Melody,27,9999,9999,9999,2733603916
82,24,14,Improv_Melody,28,9999,9999,9999,2734103636
82,24,14,Improv_Melody,29,9999,9999,9999,2734603356
82,24,14,Improv_Melody,30,9999,9999,9999,2735104052
82,24,14,Improv_Melody,31,9999,9999,9999,2735603776
82,24,14,Improv_Melody,32,9999,9999,9999,2736103488
82,24,14,Improv_Melody,33,9999,9999,9999,2736603188
82,24,14,Improv_Melody,34,9999,9999,9999,2737103988
82,24,14,Improv_Melody,35,9999,9999,9999,2737603688
82,24,14,Improv_Melody,36,9999,9999,9999,2738103368
82,24,14,Improv_Melody,37,9999,9999,9999,2738603060
82,24,14,Improv_Melody,38,9999,9999,9999,2739103840
82,24,14,Improv_Melody,39,9999,9999,9999,2739603516
82,24,14,Improv_Melody,40,9999,9999,9999,2740103252
82,24,14,Improv_Melody,41,9999,9999,9999,2740603984
82,24,14,Improv_Melody,42,9999,9999,9999,2741103668
82,24,14,Improv_Melody,43,9999,9999,9999,2741603416
82,24,14,Improv_Melody,44,9999,9999,9999,2742103092
82,24,14,Improv_Melody,45,9999,9999,9999,2742603840
82,24,14,Improv_Melody,46,9999,9999,9999,2743103600
82,24,14,Improv_Melody,47,9999,9999,9999,2743603288
82,24,14,Improv_Melody,48,9999,9999,9999,2744104056
82,24,14,Improv_Melody,49,9999,9999,9999,2744603768
82,24,14,Improv_Melody,50,9999,9999,9999,2745103444
82,24,14,Improv_Melody,51,9999,9999,9999,2745603172
82,24,14,Improv_Melody,52,9999,9999,9999,2746103896
82,24,14,Improv_Melody,53,9999,9999,9999,2746603580
82,24,14,Improv_Melody,54,9999,9999,9999,2747103336
82,24,14,Improv_Melody,55,9999,9999,9999,2747604052
82,24,14,Improv_Melody,56,9999,9999,9999,2748103788
82,24,14,Improv_Melody,57,9999,9999,9999,2748603504
82,24,14,Improv_Melody,58,9999,9999,9999,2749103180
82,24,14,Improv_Melody,59,9999,9999,9999,2749603896
82,24,14,Improv_Melody,60,9999,9999,9999,2750103632
82,24,14,Improv_Melody,61,9999,9999,9999,2750603324
82,24,14,Improv_Melody,62,9999,9999,9999,2751104056
82,24,14,Improv_Melody,63,9999,9999,9999,2751603800
82,24,14,Improv_Melody,64,9999,9999,9999,2752103540
82,24,14,Improv_Melody,65,9999,9999,9999,2752603252
82,24,14,Improv_Melody,66,9999,9999,9999,2753103976
82,24,14,Improv_Melody,67,9999,9999,9999,2753603672
82,24,14,Improv_Melody,68,9999,9999,9999,2754103384
82,24,14,Improv_Melody,69,9999,9999,9999,2754603128
82,24,14,Improv_Melody,70,9999,9999,9999,2755103832
82,24,14,Improv_Melody,71,9999,9999,9999,2755603548
82,24,14,Improv_Melody,72,9999,9999,9999,2756103232
82,24,14,Improv_Melody,73,9999,9999,9999,2756603992
82,24,14,Improv_Melody,74,9999,9999,9999,2757103672
82,24,14,Improv_Melody,75,9999,9999,9999,2757603440
82,24,14,Improv_Melody,76,9999,9999,9999,2758103096
82,24,14,Improv_Melody,77,9999,9999,9999,2758603844
82,24,14,Improv_Melody,78,9999,9999,9999,2759103572
82,24,14,Improv_Melody,79,9999,9999,9999,2759603252
82,24,14,Improv_Melody,80,9999,9999,9999,2760104032
82,24,14,Improv_Melody,81,9999,9999,9999,2760603724
82,24,14,Improv_Melody,82,9999,9999,9999,2761103472
82,24,14,Improv_Melody,83,9999,9999,9999,2761603168
82,24,14,Improv_Melody,84,9999,9999,9999,2762103892
82,24,14,Improv_Melody,85,9999,9999,9999,2762603592
82,24,14,Improv_Melody,86,9999,9999,9999,2763103344
82,24,14,Improv_Melody,87,9999,9999,9999,2763604068
82,24,14,Improv_Melody,88,9999,9999,9999,2764103732
82,24,14,Improv_Melody,89,9999,9999,9999,2764603512
82,24,14,Improv_Melody,90,9999,9999,9999,2765103188
82,24,14,Improv_Melody,91,9999,9999,9999,2765603936
82,24,14,Improv_Melody,92,9999,9999,9999,2766103668
82,24,14,Improv_Melody,93,9999,9999,9999,2766603368
82,24,14,Improv_Melody,94,9999,9999,9999,2767104076
82,24,14,Improv_Melody,95,9999,9999,9999,2767603824
82,24,14,Improv_Melody,96,9999,9999,9999,2768103484
82,24,14,Improv_Melody,97,9999,9999,9999,2768603252
82,24,14,Improv_Melody,98,9999,9999,9999,2769103976
82,24,14,Improv_Melody,99,9999,9999,9999,2769603656
82,24,14,Improv_Melody,100,9999,9999,9999,2770103408
82,24,14,Improv_Melody,101,9999,9999,9999,2770603088
82,24,14,Improv_Melody,102,9999,9999,9999,2771103860
82,24,14,Improv_Melody,103,9999,9999,9999,2771603548
82,24,14,Improv_Melody,104,9999,9999,9999,2772103256
82,24,14,Improv_Melody,105,9999,9999,9999,2772603996
82,24,14,Improv_Melody,106,9999,9999,9999,2773103672
82,24,14,Improv_Melody,107,9999,9999,9999,2773603424
82,24,14,Improv_Melody,108,9999,9999,9999,2774103096
82,24,14,Improv_Melody,109,9999,9999,9999,2774603824
82,24,14,Improv_Melody,110,9999,9999,9999,2775103576
82,24,14,Improv_Melody,111,9999,9999,9999,2775603256
82,24,14,Improv_Melody,112,9999,9999,9999,2776104056
82,24,14,Improv_Melody,113,9999,9999,9999,2776603704
82,24,14,Improv_Melody,114,9999,9999,9999,2777103452
82,24,14,Improv_Melody,115,9999,9999,9999,2777603156
82,24,14,Improv_Melody,116,9999,9999,9999,2778103900
82,24,14,Improv_Melody,117,9999,9999,9999,2778603612
82,24,14,Improv_Melody,118,9999,9999,9999,2779103340
82,24,14,Improv_Melody,119,9999,9999,9999,2779604044
82,24,14,Improv_Melody,120,9999,9999,9999,2780103796
82,24,14,Improv_Melody,121,9999,9999,9999,2780603480
82,24,14,Improv_Melody,122,9999,9999,9999,2781103160
82,24,14,Improv_Melody,123,9999,9999,9999,2781603940
82,24,14,Improv_Melody,124,9999,9999,9999,2782103660
82,24,14,Improv_Melody,125,9999,9999,9999,2782603316
82,24,14,Improv_Melody,126,9999,9999,9999,2783104112
82,24,14,Improv_Melody,127,9999,9999,9999,2783603780
82,24,14,Improv_Melody,128,9999,9999,9999,2784103524
82,24,14,Improv_Melody,129,9999,9999,9999,2784603236
82,24,14,Improv_Melody,130,9999,9999,9999,2785103960
82,24,14,Improv_Melody,131,9999,9999,9999,2785603660
82,24,14,Improv_Melody,132,9999,9999,9999,2786103416
82,24,14,Improv_Melody,133,9999,9999,9999,2786603072
82,24,14,Improv_Melody,134,9999,9999,9999,2787103840
82,24,14,Improv_Melody,135,9999,9999,9999,2787603568
82,24,14,Improv_Melody,136,9999,9999,9999,2788103224
82,24,14,Improv_Melody,137,9999,9999,9999,2788603980
82,24,14,Improv_Melody,138,9999,9999,9999,2789103736
82,24,14,Improv_Melody,139,9999,9999,9999,2789603432
82,24,14,Improv_Melody,140,9999,9999,9999,2790103116
82,24,14,Improv_Melody,141,9999,9999,9999,2790603864
82,24,14,Improv_Melody,142,9999,9999,9999,2791103540
82,24,14,Improv_Melody,143,9999,9999,9999,2791603272
82,24,14,Improv_Melody,144,9999,9999,9999,2792104048
82,24,14,Improv_Melody,145,9999,9999,9999,2792603736
82,24,14,Improv_Melody,146,9999,9999,9999,2793103416
82,24,14,Improv_Melody,147,9999,9999,9999,2793603184
82,24,14,Improv_Melody,148,9999,9999,9999,2794103916
82,24,14,Improv_Melody,149,9999,9999,9999,2794603608
82,24,14,Improv_Melody,150,9999,9999,9999,2795103292
82,24,14,Improv_Melody,151,9999,9999,9999,2795604028
82,24,14,Improv_Melody,152,9999,9999,9999,2796103800
82,24,14,Improv_Melody,153,9999,9999,9999,2796603444
82,24,14,Improv_Melody,154,9999,9999,9999,2797103192
82,24,14,Improv_Melody,155,9999,9999,9999,2797603932
82,24,14,Improv_Melody,156,9999,9999,9999,2798103620
82,24,14,Improv_Melody,157,9999,9999,9999,2798603320
82,24,14,Improv_Melody,158,9999,9999,9999,2799104120
82,24,14,Improv_Melody,159,9999,9999,9999,2799603776
82,24,14,Improv_Melody,160,9999,9999,9999,2800103524
82,24,14,Improv_Melody,161,9999,9999,9999,2800603244
