pid,taskRunCount,taskID,taskName,i,channel,pitch,velocity,microseconds
88,1,1,Ticks_Pract_5,0,5,42,127,445659632
88,1,1,Ticks_Pract_5,1,5,42,127,446160172
88,1,1,Ticks_Pract_5,2,5,42,127,446659940
88,1,1,Ticks_Pract_5,3,5,42,127,447159952
88,1,1,Ticks_Pract_5,4,5,42,127,447660344
88,1,1,Ticks_Pract_5,5,1,48,77,447663312
88,1,1,Ticks_Pract_5,6,1,48,72,448141376
88,1,1,Ticks_Pract_5,7,5,42,127,448159956
88,1,1,Ticks_Pract_5,8,5,42,127,448659732
88,1,1,Ticks_Pract_5,9,1,48,55,448660696
88,1,1,Ticks_Pract_5,10,1,48,61,449151308
88,1,1,Ticks_Pract_5,11,5,42,127,449159644
88,1,1,Ticks_Pract_5,12,1,48,64,449642996
88,1,1,Ticks_Pract_5,13,5,42,127,449660232
88,1,1,Ticks_Pract_5,14,1,48,63,450132740
88,1,1,Ticks_Pract_5,15,5,42,127,450159852
88,1,1,Ticks_Pract_5,16,1,48,56,450636100
88,1,1,Ticks_Pract_5,17,5,42,127,450659696
88,1,1,Ticks_Pract_5,18,1,48,69,451109316
88,1,1,Ticks_Pract_5,19,5,42,127,451160588
88,1,1,Ticks_Pract_5,20,1,48,43,451653744
88,1,1,Ticks_Pract_5,21,5,42,127,451660132
88,1,1,Ticks_Pract_5,22,1,48,55,452135780
88,1,1,Ticks_Pract_5,23,5,42,127,452159828
88,1,1,Ticks_Pract_5,24,1,48,46,452641312
88,1,1,Ticks_Pract_5,25,5,42,127,452659672
88,1,1,Ticks_Pract_5,26,1,48,64,453093808
88,1,1,Ticks_Pract_5,27,1,48,34,453151380
88,1,1,Ticks_Pract_5,28,5,42,127,453160464
88,1,1,Ticks_Pract_5,29,1,48,54,453571692
88,1,1,Ticks_Pract_5,30,1,48,35,453618292
88,1,1,Ticks_Pract_5,31,5,42,127,453659988
88,1,1,Ticks_Pract_5,32,1,48,51,454111556
88,1,1,Ticks_Pract_5,33,5,42,127,454159832
88,1,1,Ticks_Pract_5,34,1,48,58,454620228
88,1,1,Ticks_Pract_5,35,5,42,127,454659380
88,1,1,Ticks_Pract_5,36,1,48,59,455115932
88,1,1,Ticks_Pract_5,37,5,42,127,455160168
88,1,1,Ticks_Pract_5,38,1,48,47,455645396
88,1,1,Ticks_Pract_5,39,5,42,127,455659864
88,1,1,Ticks_Pract_5,40,1,48,54,456124720
88,1,1,Ticks_Pract_5,41,5,42,127,456159708
88,1,1,Ticks_Pract_5,42,1,48,33,456170216
88,1,1,Ticks_Pract_5,43,1,48,55,456618408
88,1,1,Ticks_Pract_5,44,5,42,127,456660280
88,1,1,Ticks_Pract_5,45,1,48,53,457145324
88,1,1,Ticks_Pract_5,46,5,42,127,457160096
88,1,1,Ticks_Pract_5,47,1,48,55,457630960
88,1,1,Ticks_Pract_5,48,5,42,127,457659716
88,1,1,Ticks_Pract_5,49,1,48,54,458155040
88,1,1,Ticks_Pract_5,50,5,42,127,458159636
88,1,1,Ticks_Pract_5,51,1,48,56,458656748
88,1,1,Ticks_Pract_5,52,5,42,127,458660152
88,1,1,Ticks_Pract_5,53,5,42,127,459159780
88,1,1,Ticks_Pract_5,54,1,48,46,459191620
88,1,1,Ticks_Pract_5,55,1,48,56,459651800
88,1,1,Ticks_Pract_5,56,5,42,127,459659540
88,1,1,Ticks_Pract_5,57,1,48,47,460145140
88,1,1,Ticks_Pract_5,58,5,42,127,460160580
88,1,1,Ticks_Pract_5,59,1,48,58,460634660
88,1,1,Ticks_Pract_5,60,5,42,127,460660052
88,1,1,Ticks_Pract_5,61,1,48,62,461133836
88,1,1,Ticks_Pract_5,62,5,42,127,461159896
88,1,1,Ticks_Pract_5,63,1,48,51,461649680
88,1,1,Ticks_Pract_5,64,5,42,127,461659592
88,1,1,Ticks_Pract_5,65,1,48,61,462160116
88,1,1,Ticks_Pract_5,66,5,42,127,462161528
88,1,1,Ticks_Pract_5,67,5,42,127,462660032
88,1,1,Ticks_Pract_5,68,1,48,54,462690004
88,1,1,Ticks_Pract_5,69,5,42,127,463159652
88,1,1,Ticks_Pract_5,70,1,48,51,463175556
88,1,1,Ticks_Pract_5,71,1,48,57,463647192
88,1,1,Ticks_Pract_5,72,5,42,127,463660612
88,1,1,Ticks_Pract_5,73,1,48,54,464118912
88,1,1,Ticks_Pract_5,74,5,42,127,464160160
88,1,1,Ticks_Pract_5,75,1,48,51,464654732
88,1,1,Ticks_Pract_5,76,5,42,127,464659852
88,1,1,Ticks_Pract_5,77,1,48,57,465153900
88,1,1,Ticks_Pract_5,78,5,42,127,465159472
88,1,1,Ticks_Pract_5,0,9999,9999,9999,445657196
88,1,1,Ticks_Pract_5,1,9999,9999,9999,446157884
88,1,1,Ticks_Pract_5,2,9999,9999,9999,446657652
88,1,1,Ticks_Pract_5,3,9999,9999,9999,447157368
88,1,1,Ticks_Pract_5,4,9999,9999,9999,447658056
88,1,1,Ticks_Pract_5,5,9999,9999,9999,448157744
88,1,1,Ticks_Pract_5,6,9999,9999,9999,448657520
88,1,1,Ticks_Pract_5,7,9999,9999,9999,449157208
88,1,1,Ticks_Pract_5,8,9999,9999,9999,449657948
88,1,1,Ticks_Pract_5,9,9999,9999,9999,450157644
88,1,1,Ticks_Pract_5,10,9999,9999,9999,450657336
88,1,1,Ticks_Pract_5,11,9999,9999,9999,451158076
88,1,1,Ticks_Pract_5,12,9999,9999,9999,451657848
88,1,1,Ticks_Pract_5,13,9999,9999,9999,452157544
88,1,1,Ticks_Pract_5,14,9999,9999,9999,452657236
88,1,1,Ticks_Pract_5,15,9999,9999,9999,453157956
88,1,1,Ticks_Pract_5,16,9999,9999,9999,453657700
88,1,1,Ticks_Pract_5,17,9999,9999,9999,454157400
88,1,1,Ticks_Pract_5,18,9999,9999,9999,454657096
88,1,1,Ticks_Pract_5,19,9999,9999,9999,455157808
88,1,1,Ticks_Pract_5,20,9999,9999,9999,455657580
88,1,1,Ticks_Pract_5,21,9999,9999,9999,456157276
88,1,1,Ticks_Pract_5,22,9999,9999,9999,456657992
88,1,1,Ticks_Pract_5,23,9999,9999,9999,457157736
88,1,1,Ticks_Pract_5,24,9999,9999,9999,457657432
88,1,1,Ticks_Pract_5,25,9999,9999,9999,458157128
88,1,1,Ticks_Pract_5,26,9999,9999,9999,458657868
88,1,1,Ticks_Pract_5,27,9999,9999,9999,459157568
88,1,1,Ticks_Pract_5,28,9999,9999,9999,459657328
88,1,1,Ticks_Pract_5,29,9999,9999,9999,460158072
88,1,1,Ticks_Pract_5,30,9999,9999,9999,460657768
88,1,1,Ticks_Pract_5,31,9999,9999,9999,461157460
88,1,1,Ticks_Pract_5,32,9999,9999,9999,461657156
88,1,1,Ticks_Pract_5,33,9999,9999,9999,462157904
88,1,1,Ticks_Pract_5,34,9999,9999,9999,462657600
88,1,1,Ticks_Pract_5,35,9999,9999,9999,463157368
88,1,1,Ticks_Pract_5,36,9999,9999,9999,463658100
88,1,1,Ticks_Pract_5,37,9999,9999,9999,464157796
88,1,1,Ticks_Pract_5,38,9999,9999,9999,464657492
88,1,1,Ticks_Pract_5,39,9999,9999,9999,465157188
88,2,0,Ticks_Pract_8,0,5,42,127,502159964
88,2,0,Ticks_Pract_8,1,5,42,127,502959424
88,2,0,Ticks_Pract_8,2,5,42,127,503760248
88,2,0,Ticks_Pract_8,3,5,42,127,504560004
88,2,0,Ticks_Pract_8,4,5,42,127,505359908
88,2,0,Ticks_Pract_8,5,1,48,72,505423388
88,2,0,Ticks_Pract_8,6,5,42,127,506159492
88,2,0,Ticks_Pract_8,7,1,48,61,506174424
88,2,0,Ticks_Pract_8,8,1,48,35,506220932
88,2,0,Ticks_Pract_8,9,1,48,56,506956616
88,2,0,Ticks_Pract_8,10,5,42,127,506960172
88,2,0,Ticks_Pract_8,11,1,48,63,507726580
88,2,0,Ticks_Pract_8,12,5,42,127,507759980
88,2,0,Ticks_Pract_8,13,1,48,54,508537760
88,2,0,Ticks_Pract_8,14,5,42,127,508559860
88,2,0,Ticks_Pract_8,15,1,48,54,509342880
88,2,0,Ticks_Pract_8,16,5,42,127,509359372
88,2,0,Ticks_Pract_8,17,1,48,54,510101552
88,2,0,Ticks_Pract_8,18,5,42,127,510160176
88,2,0,Ticks_Pract_8,19,1,48,50,510898740
88,2,0,Ticks_Pract_8,20,5,42,127,510959908
88,2,0,Ticks_Pract_8,21,1,48,51,511669604
88,2,0,Ticks_Pract_8,22,5,42,127,511759792
88,2,0,Ticks_Pract_8,23,1,48,54,512499204
88,2,0,Ticks_Pract_8,24,5,42,127,512559672
88,2,0,Ticks_Pract_8,25,1,48,48,513319804
88,2,0,Ticks_Pract_8,26,5,42,127,513360304
88,2,0,Ticks_Pract_8,27,1,48,46,514083632
88,2,0,Ticks_Pract_8,28,5,42,127,514159964
88,2,0,Ticks_Pract_8,29,1,48,47,514867812
88,2,0,Ticks_Pract_8,30,5,42,127,514959696
88,2,0,Ticks_Pract_8,31,1,48,42,515728508
88,2,0,Ticks_Pract_8,32,5,42,127,515759656
88,2,0,Ticks_Pract_8,33,1,48,50,516499592
88,2,0,Ticks_Pract_8,34,5,42,127,516560236
88,2,0,Ticks_Pract_8,35,1,48,48,517303368
88,2,0,Ticks_Pract_8,36,5,42,127,517359972
88,2,0,Ticks_Pract_8,37,1,48,46,518134836
88,2,0,Ticks_Pract_8,38,5,42,127,518159852
88,2,0,Ticks_Pract_8,39,1,48,45,518900912
88,2,0,Ticks_Pract_8,40,5,42,127,518959588
88,2,0,Ticks_Pract_8,41,1,48,47,519690252
88,2,0,Ticks_Pract_8,42,5,42,127,519760220
88,2,0,Ticks_Pract_8,43,1,48,44,520489012
88,2,0,Ticks_Pract_8,44,5,42,127,520559952
88,2,0,Ticks_Pract_8,45,1,48,40,521289120
88,2,0,Ticks_Pract_8,46,5,42,127,521359832
88,2,0,Ticks_Pract_8,47,1,48,40,522091316
88,2,0,Ticks_Pract_8,48,5,42,127,522159420
88,2,0,Ticks_Pract_8,49,1,48,40,522911172
88,2,0,Ticks_Pract_8,50,5,42,127,522960300
88,2,0,Ticks_Pract_8,51,1,48,42,523751172
88,2,0,Ticks_Pract_8,52,5,42,127,523760108
88,2,0,Ticks_Pract_8,53,5,42,127,524559848
88,2,0,Ticks_Pract_8,54,1,48,18,524635224
88,2,0,Ticks_Pract_8,55,5,42,127,525359584
88,2,0,Ticks_Pract_8,56,1,48,49,525364944
88,2,0,Ticks_Pract_8,57,1,48,50,526141996
88,2,0,Ticks_Pract_8,0,9999,9999,9999,502157380
88,2,0,Ticks_Pract_8,1,9999,9999,9999,502957136
88,2,0,Ticks_Pract_8,2,9999,9999,9999,503757888
88,2,0,Ticks_Pract_8,3,9999,9999,9999,504557640
88,2,0,Ticks_Pract_8,4,9999,9999,9999,505357396
88,2,0,Ticks_Pract_8,5,9999,9999,9999,506157132
88,2,0,Ticks_Pract_8,6,9999,9999,9999,506957884
88,2,0,Ticks_Pract_8,7,9999,9999,9999,507757616
88,2,0,Ticks_Pract_8,8,9999,9999,9999,508557424
88,2,0,Ticks_Pract_8,9,9999,9999,9999,509357156
88,2,0,Ticks_Pract_8,10,9999,9999,9999,510157888
88,2,0,Ticks_Pract_8,11,9999,9999,9999,510957620
88,2,0,Ticks_Pract_8,12,9999,9999,9999,511757428
88,2,0,Ticks_Pract_8,13,9999,9999,9999,512557160
88,2,0,Ticks_Pract_8,14,9999,9999,9999,513357944
88,2,0,Ticks_Pract_8,15,9999,9999,9999,514157676
88,2,0,Ticks_Pract_8,16,9999,9999,9999,514957408
88,2,0,Ticks_Pract_8,17,9999,9999,9999,515757144
88,2,0,Ticks_Pract_8,18,9999,9999,9999,516557872
88,2,0,Ticks_Pract_8,19,9999,9999,9999,517357684
88,2,0,Ticks_Pract_8,20,9999,9999,9999,518157416
88,2,0,Ticks_Pract_8,21,9999,9999,9999,518957148
88,2,0,Ticks_Pract_8,22,9999,9999,9999,519757932
88,2,0,Ticks_Pract_8,23,9999,9999,9999,520557664
88,2,0,Ticks_Pract_8,24,9999,9999,9999,521357396
88,2,0,Ticks_Pract_8,25,9999,9999,9999,522157132
88,2,0,Ticks_Pract_8,26,9999,9999,9999,522957936
88,2,0,Ticks_Pract_8,27,9999,9999,9999,523757672
88,2,0,Ticks_Pract_8,28,9999,9999,9999,524557412
88,2,0,Ticks_Pract_8,29,9999,9999,9999,525357144
88,3,4,T1_SMS_5,0,5,42,127,616321384
88,3,4,T1_SMS_5,1,5,42,127,616821176
88,3,4,T1_SMS_5,2,5,42,127,617320744
88,3,4,T1_SMS_5,3,5,42,127,617820384
88,3,4,T1_SMS_5,4,1,48,93,618293360
88,3,4,T1_SMS_5,5,5,42,127,618321144
88,3,4,T1_SMS_5,6,1,48,72,618770544
88,3,4,T1_SMS_5,7,5,42,127,618821136
88,3,4,T1_SMS_5,8,1,48,65,619262604
88,3,4,T1_SMS_5,9,5,42,127,619320608
88,3,4,T1_SMS_5,10,1,48,80,619745768
88,3,4,T1_SMS_5,11,5,42,127,619821428
88,3,4,T1_SMS_5,12,1,48,65,620266480
88,3,4,T1_SMS_5,13,5,42,127,620321044
88,3,4,T1_SMS_5,14,1,48,72,620784276
88,3,4,T1_SMS_5,15,5,42,127,620820964
88,3,4,T1_SMS_5,16,1,48,78,621303792
88,3,4,T1_SMS_5,17,5,42,127,621320508
88,3,4,T1_SMS_5,18,1,48,77,621815528
88,3,4,T1_SMS_5,19,5,42,127,621821176
88,3,4,T1_SMS_5,20,5,42,127,622320880
88,3,4,T1_SMS_5,21,1,48,60,622346960
88,3,4,T1_SMS_5,22,5,42,127,622820796
88,3,4,T1_SMS_5,23,1,48,70,622837980
88,3,4,T1_SMS_5,24,5,42,127,623320344
88,3,4,T1_SMS_5,25,1,48,73,623342688
88,3,4,T1_SMS_5,26,1,48,75,623807332
88,3,4,T1_SMS_5,27,5,42,127,623821152
88,3,4,T1_SMS_5,28,1,48,78,624309868
88,3,4,T1_SMS_5,29,5,42,127,624320972
88,3,4,T1_SMS_5,30,1,48,77,624800660
88,3,4,T1_SMS_5,31,5,42,127,624820516
88,3,4,T1_SMS_5,32,1,48,75,625312544
88,3,4,T1_SMS_5,33,5,42,127,625321408
88,3,4,T1_SMS_5,34,1,48,74,625795116
88,3,4,T1_SMS_5,35,5,42,127,625821176
88,3,4,T1_SMS_5,36,1,48,66,626307304
88,3,4,T1_SMS_5,37,5,42,127,626320872
88,3,4,T1_SMS_5,38,1,48,78,626793976
88,3,4,T1_SMS_5,39,5,42,127,626820416
88,3,4,T1_SMS_5,40,1,48,74,627291728
88,3,4,T1_SMS_5,41,5,42,127,627321160
88,3,4,T1_SMS_5,42,1,48,69,627794712
88,3,4,T1_SMS_5,43,5,42,127,627820856
88,3,4,T1_SMS_5,44,1,48,79,628291720
88,3,4,T1_SMS_5,45,5,42,127,628320700
88,3,4,T1_SMS_5,46,1,48,43,628336896
88,3,4,T1_SMS_5,47,1,48,75,628805376
88,3,4,T1_SMS_5,48,5,42,127,628821344
88,3,4,T1_SMS_5,49,1,48,67,629309108
88,3,4,T1_SMS_5,50,5,42,127,629321036
88,3,4,T1_SMS_5,51,1,48,70,629794664
88,3,4,T1_SMS_5,52,5,42,127,629820808
88,3,4,T1_SMS_5,53,1,48,73,630285908
88,3,4,T1_SMS_5,54,5,42,127,630320428
88,3,4,T1_SMS_5,55,1,48,36,630335196
88,3,4,T1_SMS_5,56,1,48,70,630793512
88,3,4,T1_SMS_5,57,5,42,127,630821148
88,3,4,T1_SMS_5,58,1,48,70,631308840
88,3,4,T1_SMS_5,59,5,42,127,631320992
88,3,4,T1_SMS_5,60,1,48,74,631787368
88,3,4,T1_SMS_5,61,5,42,127,631820760
88,3,4,T1_SMS_5,62,1,48,40,631830224
88,3,4,T1_SMS_5,63,1,48,77,632268488
88,3,4,T1_SMS_5,64,5,42,127,632321404
88,3,4,T1_SMS_5,65,1,48,60,632774316
88,3,4,T1_SMS_5,66,5,42,127,632821176
88,3,4,T1_SMS_5,67,1,48,66,633292940
88,3,4,T1_SMS_5,68,5,42,127,633320796
88,3,4,T1_SMS_5,69,1,48,65,633768376
88,3,4,T1_SMS_5,70,5,42,127,633820716
88,3,4,T1_SMS_5,71,1,48,70,634273004
88,3,4,T1_SMS_5,72,5,42,127,634321232
88,3,4,T1_SMS_5,73,1,48,59,634770980
88,3,4,T1_SMS_5,74,5,42,127,634821076
88,3,4,T1_SMS_5,75,1,48,62,635278004
88,3,4,T1_SMS_5,76,5,42,127,635320820
88,3,4,T1_SMS_5,77,1,48,65,635786824
88,3,4,T1_SMS_5,78,5,42,127,635821416
88,3,4,T1_SMS_5,79,1,48,69,636273204
88,3,4,T1_SMS_5,80,5,42,127,636321184
88,3,4,T1_SMS_5,81,1,48,61,636790856
88,3,4,T1_SMS_5,82,5,42,127,636820808
88,3,4,T1_SMS_5,83,1,48,69,637299520
88,3,4,T1_SMS_5,84,5,42,127,637320800
88,3,4,T1_SMS_5,85,1,48,66,637801612
88,3,4,T1_SMS_5,86,5,42,127,637821244
88,3,4,T1_SMS_5,87,1,48,62,638287024
88,3,4,T1_SMS_5,88,5,42,127,638320940
88,3,4,T1_SMS_5,89,1,48,32,638339528
88,3,4,T1_SMS_5,90,1,48,65,638795220
88,3,4,T1_SMS_5,91,5,42,127,638821060
88,3,4,T1_SMS_5,92,1,48,36,638839644
88,3,4,T1_SMS_5,93,5,42,127,639320440
88,3,4,T1_SMS_5,94,1,48,57,639323108
88,3,4,T1_SMS_5,95,5,42,127,639821108
88,3,4,T1_SMS_5,96,1,48,57,639823928
88,3,4,T1_SMS_5,97,5,42,127,640320804
88,3,4,T1_SMS_5,98,1,48,64,640337460
88,3,4,T1_SMS_5,99,1,48,74,640803624
88,3,4,T1_SMS_5,100,5,42,127,640820864
88,3,4,T1_SMS_5,101,1,48,67,641304744
88,3,4,T1_SMS_5,102,5,42,127,641321308
88,3,4,T1_SMS_5,103,1,48,55,641786560
88,3,4,T1_SMS_5,104,5,42,127,641821080
88,3,4,T1_SMS_5,105,1,48,74,642285660
88,3,4,T1_SMS_5,106,5,42,127,642320848
88,3,4,T1_SMS_5,107,1,48,68,642795372
88,3,4,T1_SMS_5,108,5,42,127,642820616
88,3,4,T1_SMS_5,109,1,48,74,643299560
88,3,4,T1_SMS_5,110,5,42,127,643321284
88,3,4,T1_SMS_5,111,1,48,70,643791696
88,3,4,T1_SMS_5,112,5,42,127,643820980
88,3,4,T1_SMS_5,113,1,48,67,644293112
88,3,4,T1_SMS_5,114,5,42,127,644320824
88,3,4,T1_SMS_5,115,1,48,69,644776028
88,3,4,T1_SMS_5,116,5,42,127,644821564
88,3,4,T1_SMS_5,117,1,48,68,645279388
88,3,4,T1_SMS_5,118,5,42,127,645320960
88,3,4,T1_SMS_5,119,1,48,64,645771076
88,3,4,T1_SMS_5,120,5,42,127,645820704
88,3,4,T1_SMS_5,121,1,48,60,646280120
88,3,4,T1_SMS_5,122,5,42,127,646320696
88,3,4,T1_SMS_5,123,1,48,53,646770844
88,3,4,T1_SMS_5,124,5,42,127,646821364
88,3,4,T1_SMS_5,125,1,48,59,647286616
88,3,4,T1_SMS_5,126,5,42,127,647320912
88,3,4,T1_SMS_5,127,1,48,55,647781604
88,3,4,T1_SMS_5,128,5,42,127,647820832
88,3,4,T1_SMS_5,129,1,48,72,648286684
88,3,4,T1_SMS_5,130,5,42,127,648321496
88,3,4,T1_SMS_5,131,1,48,62,648793484
88,3,4,T1_SMS_5,132,5,42,127,648821044
88,3,4,T1_SMS_5,133,1,48,65,649307540
88,3,4,T1_SMS_5,134,5,42,127,649320740
88,3,4,T1_SMS_5,135,1,48,56,649803716
88,3,4,T1_SMS_5,136,5,42,127,649820732
88,3,4,T1_SMS_5,137,1,48,66,650311344
88,3,4,T1_SMS_5,138,5,42,127,650321252
88,3,4,T1_SMS_5,139,1,48,67,650810520
88,3,4,T1_SMS_5,140,5,42,127,650820948
88,3,4,T1_SMS_5,141,1,48,69,651308792
88,3,4,T1_SMS_5,142,5,42,127,651320644
88,3,4,T1_SMS_5,143,1,48,59,651807144
88,3,4,T1_SMS_5,144,5,42,127,651821536
88,3,4,T1_SMS_5,145,1,48,67,652266600
88,3,4,T1_SMS_5,146,5,42,127,652321080
88,3,4,T1_SMS_5,147,1,48,67,652786864
88,3,4,T1_SMS_5,148,5,42,127,652820852
88,3,4,T1_SMS_5,149,1,48,59,653311756
88,3,4,T1_SMS_5,150,5,42,127,653320544
88,3,4,T1_SMS_5,151,1,48,70,653809508
88,3,4,T1_SMS_5,152,5,42,127,653821360
88,3,4,T1_SMS_5,153,1,48,63,654301576
88,3,4,T1_SMS_5,154,5,42,127,654321056
88,3,4,T1_SMS_5,155,1,48,65,654815176
88,3,4,T1_SMS_5,156,5,42,127,654820600
88,3,4,T1_SMS_5,157,1,48,63,655308444
88,3,4,T1_SMS_5,158,5,42,127,655320520
88,3,4,T1_SMS_5,159,5,42,127,655821192
88,3,4,T1_SMS_5,160,1,48,60,655842564
88,3,4,T1_SMS_5,161,5,42,127,656320788
88,3,4,T1_SMS_5,162,1,48,62,656330816
88,3,4,T1_SMS_5,163,1,48,59,656806600
88,3,4,T1_SMS_5,164,5,42,127,656820476
88,3,4,T1_SMS_5,165,1,48,57,657319256
88,3,4,T1_SMS_5,166,5,42,127,657321292
88,3,4,T1_SMS_5,167,5,42,127,657821072
88,3,4,T1_SMS_5,168,1,48,50,657835928
88,3,4,T1_SMS_5,169,1,48,66,658311072
88,3,4,T1_SMS_5,170,5,42,127,658320908
88,3,4,T1_SMS_5,171,1,48,62,658820756
88,3,4,T1_SMS_5,172,5,42,127,658821872
88,3,4,T1_SMS_5,173,5,42,127,659321276
88,3,4,T1_SMS_5,174,1,48,69,659338756
88,3,4,T1_SMS_5,175,5,42,127,659820972
88,3,4,T1_SMS_5,176,1,48,67,659840324
88,3,4,T1_SMS_5,177,1,48,65,660301252
88,3,4,T1_SMS_5,178,5,42,127,660320584
88,3,4,T1_SMS_5,179,5,42,127,660821480
88,3,4,T1_SMS_5,180,1,48,63,660822372
88,3,4,T1_SMS_5,181,1,48,61,661305948
88,3,4,T1_SMS_5,182,5,42,127,661321096
88,3,4,T1_SMS_5,183,5,42,127,661820796
88,3,4,T1_SMS_5,184,1,48,59,661832968
88,3,4,T1_SMS_5,185,1,48,62,662304368
88,3,4,T1_SMS_5,186,5,42,127,662320412
88,3,4,T1_SMS_5,187,1,48,61,662806524
88,3,4,T1_SMS_5,188,5,42,127,662821448
88,3,4,T1_SMS_5,189,1,48,67,663274284
88,3,4,T1_SMS_5,190,5,42,127,663320920
88,3,4,T1_SMS_5,191,1,48,62,663793056
88,3,4,T1_SMS_5,192,5,42,127,663820544
88,3,4,T1_SMS_5,193,1,48,61,664305092
88,3,4,T1_SMS_5,194,5,42,127,664321508
88,3,4,T1_SMS_5,195,1,48,65,664817808
88,3,4,T1_SMS_5,196,5,42,127,664821356
88,3,4,T1_SMS_5,197,1,48,60,665316380
88,3,4,T1_SMS_5,198,5,42,127,665320676
88,3,4,T1_SMS_5,199,5,42,127,665820380
88,3,4,T1_SMS_5,200,1,48,65,665830828
88,3,4,T1_SMS_5,201,5,42,127,666321420
88,3,4,T1_SMS_5,202,1,48,23,666370012
88,3,4,T1_SMS_5,203,5,42,127,666821264
88,3,4,T1_SMS_5,204,1,48,60,666823200
88,3,4,T1_SMS_5,205,1,48,68,667296888
88,3,4,T1_SMS_5,206,5,42,127,667320704
88,3,4,T1_SMS_5,207,1,48,66,667817820
88,3,4,T1_SMS_5,208,5,42,127,667821520
88,3,4,T1_SMS_5,209,1,48,60,668307192
88,3,4,T1_SMS_5,210,5,42,127,668321364
88,3,4,T1_SMS_5,211,1,48,63,668811380
88,3,4,T1_SMS_5,212,5,42,127,668820836
88,3,4,T1_SMS_5,213,1,48,68,669299780
88,3,4,T1_SMS_5,214,5,42,127,669320528
88,3,4,T1_SMS_5,215,1,48,66,669809872
88,3,4,T1_SMS_5,216,5,42,127,669821420
88,3,4,T1_SMS_5,217,1,48,69,670313756
88,3,4,T1_SMS_5,218,5,42,127,670321268
88,3,4,T1_SMS_5,219,1,48,66,670806792
88,3,4,T1_SMS_5,220,5,42,127,670820740
88,3,4,T1_SMS_5,221,1,48,68,671301252
88,3,4,T1_SMS_5,222,5,42,127,671320360
88,3,4,T1_SMS_5,223,5,42,127,671821332
88,3,4,T1_SMS_5,224,1,48,76,671822900
88,3,4,T1_SMS_5,225,5,42,127,672320728
88,3,4,T1_SMS_5,226,1,48,63,672356304
88,3,4,T1_SMS_5,227,1,48,66,672816644
88,3,4,T1_SMS_5,228,5,42,127,672820568
88,3,4,T1_SMS_5,229,5,42,127,673321316
88,3,4,T1_SMS_5,230,1,48,65,673331764
88,3,4,T1_SMS_5,231,1,48,70,673817528
88,3,4,T1_SMS_5,232,5,42,127,673821300
88,3,4,T1_SMS_5,233,5,42,127,674320856
88,3,4,T1_SMS_5,234,1,48,69,674321968
88,3,4,T1_SMS_5,235,1,48,65,674796876
88,3,4,T1_SMS_5,236,5,42,127,674820320
88,3,4,T1_SMS_5,237,1,48,66,675314364
88,3,4,T1_SMS_5,238,5,42,127,675321356
88,3,4,T1_SMS_5,239,1,48,63,675813016
88,3,4,T1_SMS_5,240,5,42,127,675820756
88,3,4,T1_SMS_5,241,5,42,127,676320604
88,3,4,T1_SMS_5,242,1,48,67,676331804
88,3,4,T1_SMS_5,243,1,48,70,676802684
88,3,4,T1_SMS_5,244,5,42,127,676821340
88,3,4,T1_SMS_5,245,1,48,70,677259644
88,3,4,T1_SMS_5,246,5,42,127,677321256
88,3,4,T1_SMS_5,247,1,48,75,677799060
88,3,4,T1_SMS_5,248,5,42,127,677820708
88,3,4,T1_SMS_5,249,1,48,70,678285660
88,3,4,T1_SMS_5,250,5,42,127,678320476
88,3,4,T1_SMS_5,251,1,48,74,678796272
88,3,4,T1_SMS_5,252,5,42,127,678821216
88,3,4,T1_SMS_5,253,1,48,65,679315340
88,3,4,T1_SMS_5,254,5,42,127,679320988
88,3,4,T1_SMS_5,255,5,42,127,679820540
88,3,4,T1_SMS_5,256,1,48,70,679839588
88,3,4,T1_SMS_5,257,5,42,127,680321280
88,3,4,T1_SMS_5,258,1,48,71,680349308
88,3,4,T1_SMS_5,259,5,42,127,680821052
88,3,4,T1_SMS_5,260,1,48,68,680824688
88,3,4,T1_SMS_5,0,9999,9999,9999,616319096
88,3,4,T1_SMS_5,1,9999,9999,9999,616818740
88,3,4,T1_SMS_5,2,9999,9999,9999,617318456
88,3,4,T1_SMS_5,3,9999,9999,9999,617818172
88,3,4,T1_SMS_5,4,9999,9999,9999,618318932
88,3,4,T1_SMS_5,5,9999,9999,9999,618818628
88,3,4,T1_SMS_5,6,9999,9999,9999,619318324
88,3,4,T1_SMS_5,7,9999,9999,9999,619819064
88,3,4,T1_SMS_5,8,9999,9999,9999,620318832
88,3,4,T1_SMS_5,9,9999,9999,9999,620818528
88,3,4,T1_SMS_5,10,9999,9999,9999,621318224
88,3,4,T1_SMS_5,11,9999,9999,9999,621818964
88,3,4,T1_SMS_5,12,9999,9999,9999,622318668
88,3,4,T1_SMS_5,13,9999,9999,9999,622818360
88,3,4,T1_SMS_5,14,9999,9999,9999,623318132
88,3,4,T1_SMS_5,15,9999,9999,9999,623818868
88,3,4,T1_SMS_5,16,9999,9999,9999,624318536
88,3,4,T1_SMS_5,17,9999,9999,9999,624818232
88,3,4,T1_SMS_5,18,9999,9999,9999,625318972
88,3,4,T1_SMS_5,19,9999,9999,9999,625818740
88,3,4,T1_SMS_5,20,9999,9999,9999,626318436
88,3,4,T1_SMS_5,21,9999,9999,9999,626818132
88,3,4,T1_SMS_5,22,9999,9999,9999,627318872
88,3,4,T1_SMS_5,23,9999,9999,9999,627818568
88,3,4,T1_SMS_5,24,9999,9999,9999,628318264
88,3,4,T1_SMS_5,25,9999,9999,9999,628819056
88,3,4,T1_SMS_5,26,9999,9999,9999,629318752
88,3,4,T1_SMS_5,27,9999,9999,9999,629818448
88,3,4,T1_SMS_5,28,9999,9999,9999,630318144
88,3,4,T1_SMS_5,29,9999,9999,9999,630818936
88,3,4,T1_SMS_5,30,9999,9999,9999,631318632
88,3,4,T1_SMS_5,31,9999,9999,9999,631818328
88,3,4,T1_SMS_5,32,9999,9999,9999,632319044
88,3,4,T1_SMS_5,33,9999,9999,9999,632818740
88,3,4,T1_SMS_5,34,9999,9999,9999,633318512
88,3,4,T1_SMS_5,35,9999,9999,9999,633818204
88,3,4,T1_SMS_5,36,9999,9999,9999,634318948
88,3,4,T1_SMS_5,37,9999,9999,9999,634818640
88,3,4,T1_SMS_5,38,9999,9999,9999,635318388
88,3,4,T1_SMS_5,39,9999,9999,9999,635819128
88,3,4,T1_SMS_5,40,9999,9999,9999,636318824
88,3,4,T1_SMS_5,41,9999,9999,9999,636818520
88,3,4,T1_SMS_5,42,9999,9999,9999,637318216
88,3,4,T1_SMS_5,43,9999,9999,9999,637818956
88,3,4,T1_SMS_5,44,9999,9999,9999,638318652
88,3,4,T1_SMS_5,45,9999,9999,9999,638818400
88,3,4,T1_SMS_5,46,9999,9999,9999,639318080
88,3,4,T1_SMS_5,47,9999,9999,9999,639818820
88,3,4,T1_SMS_5,48,9999,9999,9999,640318516
88,3,4,T1_SMS_5,49,9999,9999,9999,640818280
88,3,4,T1_SMS_5,50,9999,9999,9999,641319020
88,3,4,T1_SMS_5,51,9999,9999,9999,641818716
88,3,4,T1_SMS_5,52,9999,9999,9999,642318412
88,3,4,T1_SMS_5,53,9999,9999,9999,642818108
88,3,4,T1_SMS_5,54,9999,9999,9999,643318848
88,3,4,T1_SMS_5,55,9999,9999,9999,643818544
88,3,4,T1_SMS_5,56,9999,9999,9999,644318312
88,3,4,T1_SMS_5,57,9999,9999,9999,644819056
88,3,4,T1_SMS_5,58,9999,9999,9999,645318748
88,3,4,T1_SMS_5,59,9999,9999,9999,645818420
88,3,4,T1_SMS_5,60,9999,9999,9999,646318188
88,3,4,T1_SMS_5,61,9999,9999,9999,646818928
88,3,4,T1_SMS_5,62,9999,9999,9999,647318624
88,3,4,T1_SMS_5,63,9999,9999,9999,647818320
88,3,4,T1_SMS_5,64,9999,9999,9999,648319064
88,3,4,T1_SMS_5,65,9999,9999,9999,648818760
88,3,4,T1_SMS_5,66,9999,9999,9999,649318452
88,3,4,T1_SMS_5,67,9999,9999,9999,649818224
88,3,4,T1_SMS_5,68,9999,9999,9999,650318964
88,3,4,T1_SMS_5,69,9999,9999,9999,650818660
88,3,4,T1_SMS_5,70,9999,9999,9999,651318360
88,3,4,T1_SMS_5,71,9999,9999,9999,651819100
88,3,4,T1_SMS_5,72,9999,9999,9999,652318796
88,3,4,T1_SMS_5,73,9999,9999,9999,652818492
88,3,4,T1_SMS_5,74,9999,9999,9999,653318260
88,3,4,T1_SMS_5,75,9999,9999,9999,653819000
88,3,4,T1_SMS_5,76,9999,9999,9999,654318696
88,3,4,T1_SMS_5,77,9999,9999,9999,654818388
88,3,4,T1_SMS_5,78,9999,9999,9999,655318084
88,3,4,T1_SMS_5,79,9999,9999,9999,655818832
88,3,4,T1_SMS_5,80,9999,9999,9999,656318576
88,3,4,T1_SMS_5,81,9999,9999,9999,656818264
88,3,4,T1_SMS_5,82,9999,9999,9999,657318964
88,3,4,T1_SMS_5,83,9999,9999,9999,657818708
88,3,4,T1_SMS_5,84,9999,9999,9999,658318396
88,3,4,T1_SMS_5,85,9999,9999,9999,658818100
88,3,4,T1_SMS_5,86,9999,9999,9999,659318840
88,3,4,T1_SMS_5,87,9999,9999,9999,659818608
88,3,4,T1_SMS_5,88,9999,9999,9999,660318296
88,3,4,T1_SMS_5,89,9999,9999,9999,660819048
88,3,4,T1_SMS_5,90,9999,9999,9999,661318732
88,3,4,T1_SMS_5,91,9999,9999,9999,661818436
88,3,4,T1_SMS_5,92,9999,9999,9999,662318200
88,3,4,T1_SMS_5,93,9999,9999,9999,662818864
88,3,4,T1_SMS_5,94,9999,9999,9999,663318632
88,3,4,T1_SMS_5,95,9999,9999,9999,663818332
88,3,4,T1_SMS_5,96,9999,9999,9999,664319072
88,3,4,T1_SMS_5,97,9999,9999,9999,664818768
88,3,4,T1_SMS_5,98,9999,9999,9999,665318464
88,3,4,T1_SMS_5,99,9999,9999,9999,665818168
88,3,4,T1_SMS_5,100,9999,9999,9999,666318908
88,3,4,T1_SMS_5,101,9999,9999,9999,666818680
88,3,4,T1_SMS_5,102,9999,9999,9999,667318344
88,3,4,T1_SMS_5,103,9999,9999,9999,667819084
88,3,4,T1_SMS_5,104,9999,9999,9999,668318780
88,3,4,T1_SMS_5,105,9999,9999,9999,668818548
88,3,4,T1_SMS_5,106,9999,9999,9999,669318244
88,3,4,T1_SMS_5,107,9999,9999,9999,669818984
88,3,4,T1_SMS_5,108,9999,9999,9999,670318684
88,3,4,T1_SMS_5,109,9999,9999,9999,670818376
88,3,4,T1_SMS_5,110,9999,9999,9999,671318076
88,3,4,T1_SMS_5,111,9999,9999,9999,671818824
88,3,4,T1_SMS_5,112,9999,9999,9999,672318516
88,3,4,T1_SMS_5,113,9999,9999,9999,672818280
88,3,4,T1_SMS_5,114,9999,9999,9999,673319028
88,3,4,T1_SMS_5,115,9999,9999,9999,673818716
88,3,4,T1_SMS_5,116,9999,9999,9999,674318420
88,3,4,T1_SMS_5,117,9999,9999,9999,674818108
88,3,4,T1_SMS_5,118,9999,9999,9999,675318848
88,3,4,T1_SMS_5,119,9999,9999,9999,675818544
88,3,4,T1_SMS_5,120,9999,9999,9999,676318320
88,3,4,T1_SMS_5,121,9999,9999,9999,676819056
88,3,4,T1_SMS_5,122,9999,9999,9999,677318748
88,3,4,T1_SMS_5,123,9999,9999,9999,677818420
88,3,4,T1_SMS_5,124,9999,9999,9999,678318192
88,3,4,T1_SMS_5,125,9999,9999,9999,678818932
88,3,4,T1_SMS_5,126,9999,9999,9999,679318628
88,3,4,T1_SMS_5,127,9999,9999,9999,679818328
88,3,4,T1_SMS_5,128,9999,9999,9999,680319068
88,3,4,T1_SMS_5,129,9999,9999,9999,680818764
88,4,2,T1_SMS_8,0,5,42,127,750984500
88,4,2,T1_SMS_8,1,5,42,127,751785300
88,4,2,T1_SMS_8,2,5,42,127,752585008
88,4,2,T1_SMS_8,3,5,42,127,753385132
88,4,2,T1_SMS_8,4,5,42,127,754184516
88,4,2,T1_SMS_8,5,1,48,75,754196308
88,4,2,T1_SMS_8,6,1,48,90,754964236
88,4,2,T1_SMS_8,7,5,42,127,754985364
88,4,2,T1_SMS_8,8,1,48,86,755746616
88,4,2,T1_SMS_8,9,5,42,127,755785096
88,4,2,T1_SMS_8,10,1,48,69,756566996
88,4,2,T1_SMS_8,11,5,42,127,756584980
88,4,2,T1_SMS_8,12,5,42,127,757384796
88,4,2,T1_SMS_8,13,1,48,57,757405268
88,4,2,T1_SMS_8,14,1,48,93,758172972
88,4,2,T1_SMS_8,15,5,42,127,758185196
88,4,2,T1_SMS_8,16,1,48,51,758973324
88,4,2,T1_SMS_8,17,5,42,127,758984952
88,4,2,T1_SMS_8,18,1,48,73,759719628
88,4,2,T1_SMS_8,19,1,48,43,759765852
88,4,2,T1_SMS_8,20,5,42,127,759784888
88,4,2,T1_SMS_8,21,1,48,80,760549136
88,4,2,T1_SMS_8,22,5,42,127,760584768
88,4,2,T1_SMS_8,23,1,48,63,761381852
88,4,2,T1_SMS_8,24,5,42,127,761385180
88,4,2,T1_SMS_8,25,5,42,127,762185144
88,4,2,T1_SMS_8,26,1,48,58,762193952
88,4,2,T1_SMS_8,27,1,48,61,762956864
88,4,2,T1_SMS_8,28,5,42,127,762984872
88,4,2,T1_SMS_8,29,1,48,58,763766244
88,4,2,T1_SMS_8,30,5,42,127,763784900
88,4,2,T1_SMS_8,31,1,48,62,764580192
88,4,2,T1_SMS_8,32,5,42,127,764585308
88,4,2,T1_SMS_8,33,1,48,65,765347760
88,4,2,T1_SMS_8,34,5,42,127,765384992
88,4,2,T1_SMS_8,35,1,48,80,766156344
88,4,2,T1_SMS_8,36,5,42,127,766184728
88,4,2,T1_SMS_8,37,1,48,78,766949872
88,4,2,T1_SMS_8,38,5,42,127,766984684
88,4,2,T1_SMS_8,39,5,42,127,767785396
88,4,2,T1_SMS_8,40,1,48,78,767791136
88,4,2,T1_SMS_8,41,1,48,67,768582860
88,4,2,T1_SMS_8,42,5,42,127,768585048
88,4,2,T1_SMS_8,43,1,48,62,769378992
88,4,2,T1_SMS_8,44,5,42,127,769384784
88,4,2,T1_SMS_8,45,1,48,64,770183156
88,4,2,T1_SMS_8,46,5,42,127,770184664
88,4,2,T1_SMS_8,47,1,48,76,770966188
88,4,2,T1_SMS_8,48,5,42,127,770985372
88,4,2,T1_SMS_8,49,1,48,77,771748348
88,4,2,T1_SMS_8,50,5,42,127,771784980
88,4,2,T1_SMS_8,51,1,48,74,772544816
88,4,2,T1_SMS_8,52,5,42,127,772584788
88,4,2,T1_SMS_8,53,1,48,71,773338416
88,4,2,T1_SMS_8,54,5,42,127,773384672
88,4,2,T1_SMS_8,55,1,48,77,774148916
88,4,2,T1_SMS_8,56,5,42,127,774185300
88,4,2,T1_SMS_8,57,1,48,79,774967356
88,4,2,T1_SMS_8,58,5,42,127,774984964
88,4,2,T1_SMS_8,59,1,48,82,775750036
88,4,2,T1_SMS_8,60,5,42,127,775784920
88,4,2,T1_SMS_8,61,1,48,70,776559944
88,4,2,T1_SMS_8,62,5,42,127,776584656
88,4,2,T1_SMS_8,63,1,48,70,777355712
88,4,2,T1_SMS_8,64,5,42,127,777385512
88,4,2,T1_SMS_8,65,1,48,86,778155740
88,4,2,T1_SMS_8,66,5,42,127,778185048
88,4,2,T1_SMS_8,67,1,48,74,778954156
88,4,2,T1_SMS_8,68,5,42,127,778984856
88,4,2,T1_SMS_8,69,1,48,75,779724044
88,4,2,T1_SMS_8,70,5,42,127,779784588
88,4,2,T1_SMS_8,71,1,48,60,780524900
88,4,2,T1_SMS_8,72,5,42,127,780585592
88,4,2,T1_SMS_8,73,1,48,79,781349840
88,4,2,T1_SMS_8,74,5,42,127,781385104
88,4,2,T1_SMS_8,75,1,48,87,782156160
88,4,2,T1_SMS_8,76,5,42,127,782184764
88,4,2,T1_SMS_8,77,1,48,73,782977288
88,4,2,T1_SMS_8,78,5,42,127,782984724
88,4,2,T1_SMS_8,79,5,42,127,783785436
88,4,2,T1_SMS_8,80,1,48,91,783796932
88,4,2,T1_SMS_8,81,1,48,77,784557976
88,4,2,T1_SMS_8,82,5,42,127,784585188
88,4,2,T1_SMS_8,83,5,42,127,785384852
88,4,2,T1_SMS_8,84,1,48,60,785389624
88,4,2,T1_SMS_8,85,1,48,40,785430816
88,4,2,T1_SMS_8,86,1,48,67,786145032
88,4,2,T1_SMS_8,87,5,42,127,786184632
88,4,2,T1_SMS_8,88,1,48,46,786192976
88,4,2,T1_SMS_8,89,1,48,84,786970780
88,4,2,T1_SMS_8,90,5,42,127,786985468
88,4,2,T1_SMS_8,91,1,48,46,787012580
88,4,2,T1_SMS_8,92,1,48,90,787766072
88,4,2,T1_SMS_8,93,5,42,127,787785180
88,4,2,T1_SMS_8,94,1,48,71,788516216
88,4,2,T1_SMS_8,95,5,42,127,788584912
88,4,2,T1_SMS_8,96,1,48,92,789323280
88,4,2,T1_SMS_8,97,5,42,127,789384500
88,4,2,T1_SMS_8,98,1,48,83,790131388
88,4,2,T1_SMS_8,99,5,42,127,790185352
88,4,2,T1_SMS_8,100,1,48,97,790915344
88,4,2,T1_SMS_8,101,5,42,127,790985112
88,4,2,T1_SMS_8,102,1,48,87,791733404
88,4,2,T1_SMS_8,103,5,42,127,791784844
88,4,2,T1_SMS_8,104,1,48,82,792534876
88,4,2,T1_SMS_8,105,5,42,127,792584504
88,4,2,T1_SMS_8,106,1,48,76,793267276
88,4,2,T1_SMS_8,107,5,42,127,793385344
88,4,2,T1_SMS_8,108,1,48,75,794099340
88,4,2,T1_SMS_8,109,5,42,127,794185016
88,4,2,T1_SMS_8,110,1,48,83,794973720
88,4,2,T1_SMS_8,111,5,42,127,794984824
88,4,2,T1_SMS_8,112,5,42,127,795784416
88,4,2,T1_SMS_8,113,1,48,79,795790528
88,4,2,T1_SMS_8,114,5,42,127,796585272
88,4,2,T1_SMS_8,115,1,48,82,796612728
88,4,2,T1_SMS_8,116,5,42,127,797385180
88,4,2,T1_SMS_8,117,1,48,62,797389948
88,4,2,T1_SMS_8,118,1,48,74,798184988
88,4,2,T1_SMS_8,119,5,42,127,798186324
88,4,2,T1_SMS_8,120,1,48,86,798956936
88,4,2,T1_SMS_8,121,5,42,127,798984564
88,4,2,T1_SMS_8,122,1,48,73,799769832
88,4,2,T1_SMS_8,123,5,42,127,799785344
88,4,2,T1_SMS_8,124,1,48,88,800545772
88,4,2,T1_SMS_8,125,5,42,127,800585152
88,4,2,T1_SMS_8,126,1,48,38,800604488
88,4,2,T1_SMS_8,127,1,48,91,801327088
88,4,2,T1_SMS_8,128,5,42,127,801384716
88,4,2,T1_SMS_8,129,1,48,86,802139464
88,4,2,T1_SMS_8,130,5,42,127,802184520
88,4,2,T1_SMS_8,131,1,48,70,802972404
88,4,2,T1_SMS_8,132,5,42,127,802985380
88,4,2,T1_SMS_8,133,1,48,93,803762864
88,4,2,T1_SMS_8,134,5,42,127,803785212
88,4,2,T1_SMS_8,135,5,42,127,804584952
88,4,2,T1_SMS_8,136,1,48,75,804624948
88,4,2,T1_SMS_8,137,1,48,86,805371184
88,4,2,T1_SMS_8,138,5,42,127,805384456
88,4,2,T1_SMS_8,139,1,48,79,806166580
88,4,2,T1_SMS_8,140,5,42,127,806185308
88,4,2,T1_SMS_8,141,1,48,85,806937216
88,4,2,T1_SMS_8,142,5,42,127,806985340
88,4,2,T1_SMS_8,143,1,48,89,807752356
88,4,2,T1_SMS_8,144,5,42,127,807784924
88,4,2,T1_SMS_8,145,1,48,88,808561364
88,4,2,T1_SMS_8,146,5,42,127,808584512
88,4,2,T1_SMS_8,147,1,48,76,809346516
88,4,2,T1_SMS_8,148,5,42,127,809385220
88,4,2,T1_SMS_8,149,1,48,78,810119024
88,4,2,T1_SMS_8,150,5,42,127,810185276
88,4,2,T1_SMS_8,151,1,48,90,810916584
88,4,2,T1_SMS_8,152,5,42,127,810984788
88,4,2,T1_SMS_8,153,1,48,82,811721884
88,4,2,T1_SMS_8,154,5,42,127,811784592
88,4,2,T1_SMS_8,155,1,48,46,812544128
88,4,2,T1_SMS_8,156,5,42,127,812585300
88,4,2,T1_SMS_8,157,1,48,24,812623480
88,4,2,T1_SMS_8,158,1,48,68,813321100
88,4,2,T1_SMS_8,159,5,42,127,813385160
88,4,2,T1_SMS_8,160,1,48,32,813387084
88,4,2,T1_SMS_8,161,1,48,79,814180428
88,4,2,T1_SMS_8,162,5,42,127,814184796
88,4,2,T1_SMS_8,163,5,42,127,814984460
88,4,2,T1_SMS_8,164,1,48,86,814990272
88,4,2,T1_SMS_8,165,1,48,93,815755584
88,4,2,T1_SMS_8,166,5,42,127,815785308
88,4,2,T1_SMS_8,167,1,48,84,816533104
88,4,2,T1_SMS_8,168,5,42,127,816584996
88,4,2,T1_SMS_8,169,1,48,78,817367644
88,4,2,T1_SMS_8,170,5,42,127,817385176
88,4,2,T1_SMS_8,171,1,48,75,818135064
88,4,2,T1_SMS_8,172,5,42,127,818184612
88,4,2,T1_SMS_8,173,1,48,79,818944668
88,4,2,T1_SMS_8,174,5,42,127,818985244
88,4,2,T1_SMS_8,175,1,48,80,819736928
88,4,2,T1_SMS_8,176,5,42,127,819784976
88,4,2,T1_SMS_8,177,1,48,70,820544212
88,4,2,T1_SMS_8,178,5,42,127,820585008
88,4,2,T1_SMS_8,179,1,48,73,821314996
88,4,2,T1_SMS_8,180,5,42,127,821384520
88,4,2,T1_SMS_8,181,1,48,80,822166336
88,4,2,T1_SMS_8,182,5,42,127,822185448
88,4,2,T1_SMS_8,183,1,48,84,822974776
88,4,2,T1_SMS_8,184,5,42,127,822985056
88,4,2,T1_SMS_8,185,1,48,76,823767776
88,4,2,T1_SMS_8,186,5,42,127,823784864
88,4,2,T1_SMS_8,187,1,48,77,824518820
88,4,2,T1_SMS_8,188,5,42,127,824584520
88,4,2,T1_SMS_8,189,5,42,127,825385236
88,4,2,T1_SMS_8,190,1,48,88,826115388
88,4,2,T1_SMS_8,191,5,42,127,826185132
88,4,2,T1_SMS_8,192,1,48,83,826896872
88,4,2,T1_SMS_8,193,5,42,127,826984864
88,4,2,T1_SMS_8,194,1,48,75,827677008
88,4,2,T1_SMS_8,195,5,42,127,827784432
88,4,2,T1_SMS_8,196,1,48,79,828452652
88,4,2,T1_SMS_8,197,5,42,127,828585360
88,4,2,T1_SMS_8,198,1,48,64,829273776
88,4,2,T1_SMS_8,199,5,42,127,829385192
88,4,2,T1_SMS_8,200,1,48,79,830181620
88,4,2,T1_SMS_8,201,5,42,127,830184940
88,4,2,T1_SMS_8,202,1,48,79,830961604
88,4,2,T1_SMS_8,203,5,42,127,830984528
88,4,2,T1_SMS_8,204,1,48,24,831036400
88,4,2,T1_SMS_8,205,5,42,127,831785220
88,4,2,T1_SMS_8,206,1,48,80,831787084
88,4,2,T1_SMS_8,207,1,48,84,832572124
88,4,2,T1_SMS_8,208,5,42,127,832585172
88,4,2,T1_SMS_8,209,1,48,78,833365208
88,4,2,T1_SMS_8,210,5,42,127,833384908
88,4,2,T1_SMS_8,211,1,48,50,833405968
88,4,2,T1_SMS_8,212,1,48,99,834177856
88,4,2,T1_SMS_8,213,5,42,127,834184548
88,4,2,T1_SMS_8,214,5,42,127,834985332
88,4,2,T1_SMS_8,215,1,48,92,835011292
88,4,2,T1_SMS_8,216,1,48,73,835707240
88,4,2,T1_SMS_8,217,5,42,127,835784936
88,4,2,T1_SMS_8,218,5,42,127,836584752
88,4,2,T1_SMS_8,219,1,48,69,836589512
88,4,2,T1_SMS_8,220,5,42,127,837384632
88,4,2,T1_SMS_8,221,1,48,67,837409968
88,4,2,T1_SMS_8,222,5,42,127,838185188
88,4,2,T1_SMS_8,223,1,48,72,838212540
88,4,2,T1_SMS_8,224,1,48,80,838980468
88,4,2,T1_SMS_8,225,5,42,127,838984992
88,4,2,T1_SMS_8,226,1,48,69,839754248
88,4,2,T1_SMS_8,227,5,42,127,839784800
88,4,2,T1_SMS_8,228,1,48,84,840545976
88,4,2,T1_SMS_8,229,5,42,127,840584680
88,4,2,T1_SMS_8,230,1,48,80,841323948
88,4,2,T1_SMS_8,231,5,42,127,841385240
88,4,2,T1_SMS_8,232,1,48,76,842131308
88,4,2,T1_SMS_8,233,5,42,127,842185144
88,4,2,T1_SMS_8,234,1,48,98,842958296
88,4,2,T1_SMS_8,235,5,42,127,842984880
88,4,2,T1_SMS_8,236,1,48,88,843737904
88,4,2,T1_SMS_8,237,5,42,127,843784684
88,4,2,T1_SMS_8,238,1,48,82,844537716
88,4,2,T1_SMS_8,239,5,42,127,844585320
88,4,2,T1_SMS_8,240,1,48,81,845317480
88,4,2,T1_SMS_8,241,5,42,127,845385052
88,4,2,T1_SMS_8,242,1,48,95,846155508
88,4,2,T1_SMS_8,243,5,42,127,846184788
88,4,2,T1_SMS_8,244,1,48,84,846921508
88,4,2,T1_SMS_8,0,9999,9999,9999,750982212
88,4,2,T1_SMS_8,1,9999,9999,9999,751783012
88,4,2,T1_SMS_8,2,9999,9999,9999,752582720
88,4,2,T1_SMS_8,3,9999,9999,9999,753382476
88,4,2,T1_SMS_8,4,9999,9999,9999,754182228
88,4,2,T1_SMS_8,5,9999,9999,9999,754983004
88,4,2,T1_SMS_8,6,9999,9999,9999,755782736
88,4,2,T1_SMS_8,7,9999,9999,9999,756582468
88,4,2,T1_SMS_8,8,9999,9999,9999,757382208
88,4,2,T1_SMS_8,9,9999,9999,9999,758182980
88,4,2,T1_SMS_8,10,9999,9999,9999,758982740
88,4,2,T1_SMS_8,11,9999,9999,9999,759782452
88,4,2,T1_SMS_8,12,9999,9999,9999,760582260
88,4,2,T1_SMS_8,13,9999,9999,9999,761382968
88,4,2,T1_SMS_8,14,9999,9999,9999,762182708
88,4,2,T1_SMS_8,15,9999,9999,9999,762982508
88,4,2,T1_SMS_8,16,9999,9999,9999,763782240
88,4,2,T1_SMS_8,17,9999,9999,9999,764583020
88,4,2,T1_SMS_8,18,9999,9999,9999,765382708
88,4,2,T1_SMS_8,19,9999,9999,9999,766182512
88,4,2,T1_SMS_8,20,9999,9999,9999,766982248
88,4,2,T1_SMS_8,21,9999,9999,9999,767782960
88,4,2,T1_SMS_8,22,9999,9999,9999,768582724
88,4,2,T1_SMS_8,23,9999,9999,9999,769382496
88,4,2,T1_SMS_8,24,9999,9999,9999,770182236
88,4,2,T1_SMS_8,25,9999,9999,9999,770983008
88,4,2,T1_SMS_8,26,9999,9999,9999,771782768
88,4,2,T1_SMS_8,27,9999,9999,9999,772582500
88,4,2,T1_SMS_8,28,9999,9999,9999,773382236
88,4,2,T1_SMS_8,29,9999,9999,9999,774183016
88,4,2,T1_SMS_8,30,9999,9999,9999,774982748
88,4,2,T1_SMS_8,31,9999,9999,9999,775782484
88,4,2,T1_SMS_8,32,9999,9999,9999,776582220
88,4,2,T1_SMS_8,33,9999,9999,9999,777383000
88,4,2,T1_SMS_8,34,9999,9999,9999,778182760
88,4,2,T1_SMS_8,35,9999,9999,9999,778982492
88,4,2,T1_SMS_8,36,9999,9999,9999,779782224
88,4,2,T1_SMS_8,37,9999,9999,9999,780583008
88,4,2,T1_SMS_8,38,9999,9999,9999,781382740
88,4,2,T1_SMS_8,39,9999,9999,9999,782182476
88,4,2,T1_SMS_8,40,9999,9999,9999,782982212
88,4,2,T1_SMS_8,41,9999,9999,9999,783782996
88,4,2,T1_SMS_8,42,9999,9999,9999,784582748
88,4,2,T1_SMS_8,43,9999,9999,9999,785382492
88,4,2,T1_SMS_8,44,9999,9999,9999,786182196
88,4,2,T1_SMS_8,45,9999,9999,9999,786983032
88,4,2,T1_SMS_8,46,9999,9999,9999,787782744
88,4,2,T1_SMS_8,47,9999,9999,9999,788582476
88,4,2,T1_SMS_8,48,9999,9999,9999,789382212
88,4,2,T1_SMS_8,49,9999,9999,9999,790182988
88,4,2,T1_SMS_8,50,9999,9999,9999,790982748
88,4,2,T1_SMS_8,51,9999,9999,9999,791782480
88,4,2,T1_SMS_8,52,9999,9999,9999,792582216
88,4,2,T1_SMS_8,53,9999,9999,9999,793382980
88,4,2,T1_SMS_8,54,9999,9999,9999,794182728
88,4,2,T1_SMS_8,55,9999,9999,9999,794982464
88,4,2,T1_SMS_8,56,9999,9999,9999,795782204
88,4,2,T1_SMS_8,57,9999,9999,9999,796582984
88,4,2,T1_SMS_8,58,9999,9999,9999,797382744
88,4,2,T1_SMS_8,59,9999,9999,9999,798182476
88,4,2,T1_SMS_8,60,9999,9999,9999,798982204
88,4,2,T1_SMS_8,61,9999,9999,9999,799782980
88,4,2,T1_SMS_8,62,9999,9999,9999,800582716
88,4,2,T1_SMS_8,63,9999,9999,9999,801382504
88,4,2,T1_SMS_8,64,9999,9999,9999,802182236
88,4,2,T1_SMS_8,65,9999,9999,9999,802983016
88,4,2,T1_SMS_8,66,9999,9999,9999,803782772
88,4,2,T1_SMS_8,67,9999,9999,9999,804582516
88,4,2,T1_SMS_8,68,9999,9999,9999,805382244
88,4,2,T1_SMS_8,69,9999,9999,9999,806183020
88,4,2,T1_SMS_8,70,9999,9999,9999,806982756
88,4,2,T1_SMS_8,71,9999,9999,9999,807782488
88,4,2,T1_SMS_8,72,9999,9999,9999,808582224
88,4,2,T1_SMS_8,73,9999,9999,9999,809383004
88,4,2,T1_SMS_8,74,9999,9999,9999,810182764
88,4,2,T1_SMS_8,75,9999,9999,9999,810982500
88,4,2,T1_SMS_8,76,9999,9999,9999,811782232
88,4,2,T1_SMS_8,77,9999,9999,9999,812583012
88,4,2,T1_SMS_8,78,9999,9999,9999,813382724
88,4,2,T1_SMS_8,79,9999,9999,9999,814182508
88,4,2,T1_SMS_8,80,9999,9999,9999,814982248
88,4,2,T1_SMS_8,81,9999,9999,9999,815783020
88,4,2,T1_SMS_8,82,9999,9999,9999,816582708
88,4,2,T1_SMS_8,83,9999,9999,9999,817382516
88,4,2,T1_SMS_8,84,9999,9999,9999,818182248
88,4,2,T1_SMS_8,85,9999,9999,9999,818983032
88,4,2,T1_SMS_8,86,9999,9999,9999,819782764
88,4,2,T1_SMS_8,87,9999,9999,9999,820582496
88,4,2,T1_SMS_8,88,9999,9999,9999,821382232
88,4,2,T1_SMS_8,89,9999,9999,9999,822183008
88,4,2,T1_SMS_8,90,9999,9999,9999,822982768
88,4,2,T1_SMS_8,91,9999,9999,9999,823782500
88,4,2,T1_SMS_8,92,9999,9999,9999,824582236
88,4,2,T1_SMS_8,93,9999,9999,9999,825383020
88,4,2,T1_SMS_8,94,9999,9999,9999,826182768
88,4,2,T1_SMS_8,95,9999,9999,9999,826982504
88,4,2,T1_SMS_8,96,9999,9999,9999,827782220
88,4,2,T1_SMS_8,97,9999,9999,9999,828583000
88,4,2,T1_SMS_8,98,9999,9999,9999,829382756
88,4,2,T1_SMS_8,99,9999,9999,9999,830182504
88,4,2,T1_SMS_8,100,9999,9999,9999,830982240
88,4,2,T1_SMS_8,101,9999,9999,9999,831783008
88,4,2,T1_SMS_8,102,9999,9999,9999,832582736
88,4,2,T1_SMS_8,103,9999,9999,9999,833382472
88,4,2,T1_SMS_8,104,9999,9999,9999,834182260
88,4,2,T1_SMS_8,105,9999,9999,9999,834982972
88,4,2,T1_SMS_8,106,9999,9999,9999,835782724
88,4,2,T1_SMS_8,107,9999,9999,9999,836582460
88,4,2,T1_SMS_8,108,9999,9999,9999,837382196
88,4,2,T1_SMS_8,109,9999,9999,9999,838182976
88,4,2,T1_SMS_8,110,9999,9999,9999,838982704
88,4,2,T1_SMS_8,111,9999,9999,9999,839782512
88,4,2,T1_SMS_8,112,9999,9999,9999,840582244
88,4,2,T1_SMS_8,113,9999,9999,9999,841383024
88,4,2,T1_SMS_8,114,9999,9999,9999,842182708
88,4,2,T1_SMS_8,115,9999,9999,9999,842982516
88,4,2,T1_SMS_8,116,9999,9999,9999,843782248
88,4,2,T1_SMS_8,117,9999,9999,9999,844583032
88,4,2,T1_SMS_8,118,9999,9999,9999,845382764
88,4,2,T1_SMS_8,119,9999,9999,9999,846182500
88,5,10,Ticks_ISO_T2_5,0,5,42,127,858736968
88,5,10,Ticks_ISO_T2_5,1,5,42,127,859236684
88,5,10,Ticks_ISO_T2_5,2,5,42,127,859736548
88,5,10,Ticks_ISO_T2_5,3,5,42,127,860237312
88,5,10,Ticks_ISO_T2_5,4,5,42,127,860736732
88,5,10,Ticks_ISO_T2_5,5,1,48,85,860767972
88,5,10,Ticks_ISO_T2_5,6,5,42,127,861236576
88,5,10,Ticks_ISO_T2_5,7,1,48,119,861266912
88,5,10,Ticks_ISO_T2_5,8,5,42,127,861737464
88,5,10,Ticks_ISO_T2_5,9,1,48,90,861757112
88,5,10,Ticks_ISO_T2_5,10,5,42,127,862237232
88,5,10,Ticks_ISO_T2_5,11,1,48,106,862245288
88,5,10,Ticks_ISO_T2_5,12,1,48,102,862730380
88,5,10,Ticks_ISO_T2_5,13,5,42,127,862736696
88,5,10,Ticks_ISO_T2_5,14,1,48,89,863230376
88,5,10,Ticks_ISO_T2_5,15,5,42,127,863236392
88,5,10,Ticks_ISO_T2_5,16,1,48,102,863735856
88,5,10,Ticks_ISO_T2_5,17,5,42,127,863737580
88,5,10,Ticks_ISO_T2_5,18,1,48,98,864227148
88,5,10,Ticks_ISO_T2_5,19,5,42,127,864236904
88,5,10,Ticks_ISO_T2_5,20,1,48,98,864734788
88,5,10,Ticks_ISO_T2_5,21,5,42,127,864736528
88,5,10,Ticks_ISO_T2_5,22,1,48,89,865234836
88,5,10,Ticks_ISO_T2_5,23,5,42,127,865237416
88,5,10,Ticks_ISO_T2_5,24,5,42,127,865737044
88,5,10,Ticks_ISO_T2_5,25,1,48,81,865762900
88,5,10,Ticks_ISO_T2_5,26,1,48,100,866232956
88,5,10,Ticks_ISO_T2_5,27,5,42,127,866236656
88,5,10,Ticks_ISO_T2_5,28,1,48,98,866667556
88,5,10,Ticks_ISO_T2_5,29,5,42,127,866736400
88,5,10,Ticks_ISO_T2_5,30,1,48,104,867194396
88,5,10,Ticks_ISO_T2_5,31,5,42,127,867237144
88,5,10,Ticks_ISO_T2_5,32,1,48,90,867703512
88,5,10,Ticks_ISO_T2_5,33,5,42,127,867737060
88,5,10,Ticks_ISO_T2_5,34,1,48,91,868210316
88,5,10,Ticks_ISO_T2_5,35,5,42,127,868236532
88,5,10,Ticks_ISO_T2_5,36,1,48,104,868722804
88,5,10,Ticks_ISO_T2_5,37,5,42,127,868737276
88,5,10,Ticks_ISO_T2_5,38,5,42,127,869237124
88,5,10,Ticks_ISO_T2_5,39,1,48,96,869245252
88,5,10,Ticks_ISO_T2_5,40,5,42,127,869736744
88,5,10,Ticks_ISO_T2_5,41,1,48,95,869753028
88,5,10,Ticks_ISO_T2_5,42,5,42,127,870236440
88,5,10,Ticks_ISO_T2_5,43,1,48,104,870247040
88,5,10,Ticks_ISO_T2_5,44,5,42,127,870737256
88,5,10,Ticks_ISO_T2_5,45,1,48,92,870754060
88,5,10,Ticks_ISO_T2_5,46,5,42,127,871237248
88,5,10,Ticks_ISO_T2_5,47,1,48,92,871244108
88,5,10,Ticks_ISO_T2_5,48,5,42,127,871736720
88,5,10,Ticks_ISO_T2_5,49,1,48,95,871750604
88,5,10,Ticks_ISO_T2_5,50,5,42,127,872237388
88,5,10,Ticks_ISO_T2_5,51,1,48,100,872249632
88,5,10,Ticks_ISO_T2_5,52,5,42,127,872737452
88,5,10,Ticks_ISO_T2_5,53,1,48,89,872751124
88,5,10,Ticks_ISO_T2_5,54,5,42,127,873236700
88,5,10,Ticks_ISO_T2_5,55,1,48,105,873268392
88,5,10,Ticks_ISO_T2_5,56,5,42,127,873736544
88,5,10,Ticks_ISO_T2_5,57,1,48,105,873752228
88,5,10,Ticks_ISO_T2_5,58,1,48,103,874213832
88,5,10,Ticks_ISO_T2_5,59,5,42,127,874237428
88,5,10,Ticks_ISO_T2_5,60,1,48,95,874735160
88,5,10,Ticks_ISO_T2_5,61,5,42,127,874737200
88,5,10,Ticks_ISO_T2_5,62,5,42,127,875236604
88,5,10,Ticks_ISO_T2_5,63,1,48,76,875245028
88,5,10,Ticks_ISO_T2_5,64,1,48,92,875716280
88,5,10,Ticks_ISO_T2_5,65,5,42,127,875736364
88,5,10,Ticks_ISO_T2_5,66,1,48,86,876216432
88,5,10,Ticks_ISO_T2_5,67,5,42,127,876237256
88,5,10,Ticks_ISO_T2_5,68,1,48,98,876731680
88,5,10,Ticks_ISO_T2_5,69,5,42,127,876736728
88,5,10,Ticks_ISO_T2_5,70,1,48,81,877236628
88,5,10,Ticks_ISO_T2_5,71,5,42,127,877238112
88,5,10,Ticks_ISO_T2_5,72,5,42,127,877737292
88,5,10,Ticks_ISO_T2_5,73,1,48,83,877752628
88,5,10,Ticks_ISO_T2_5,74,5,42,127,878237212
88,5,10,Ticks_ISO_T2_5,75,1,48,83,878275508
88,5,10,Ticks_ISO_T2_5,76,5,42,127,878737056
88,5,10,Ticks_ISO_T2_5,77,1,48,110,878771816
88,5,10,Ticks_ISO_T2_5,78,1,48,77,879216664
88,5,10,Ticks_ISO_T2_5,79,5,42,127,879236372
88,5,10,Ticks_ISO_T2_5,80,1,48,98,879720172
88,5,10,Ticks_ISO_T2_5,81,5,42,127,879737188
88,5,10,Ticks_ISO_T2_5,82,1,48,91,880219572
88,5,10,Ticks_ISO_T2_5,83,5,42,127,880237108
88,5,10,Ticks_ISO_T2_5,84,5,42,127,880736960
88,5,10,Ticks_ISO_T2_5,85,1,48,92,880745760
88,5,10,Ticks_ISO_T2_5,86,1,48,92,881237328
88,5,10,Ticks_ISO_T2_5,87,5,42,127,881239116
88,5,10,Ticks_ISO_T2_5,88,1,48,91,881720972
88,5,10,Ticks_ISO_T2_5,89,5,42,127,881737240
88,5,10,Ticks_ISO_T2_5,90,1,48,96,882232416
88,5,10,Ticks_ISO_T2_5,91,5,42,127,882237008
88,5,10,Ticks_ISO_T2_5,92,5,42,127,882736412
88,5,10,Ticks_ISO_T2_5,93,1,48,95,882753964
88,5,10,Ticks_ISO_T2_5,94,5,42,127,883237080
88,5,10,Ticks_ISO_T2_5,95,1,48,92,883251568
88,5,10,Ticks_ISO_T2_5,96,5,42,127,883737148
88,5,10,Ticks_ISO_T2_5,97,1,48,100,883761436
88,5,10,Ticks_ISO_T2_5,98,5,42,127,884236920
88,5,10,Ticks_ISO_T2_5,99,1,48,95,884255896
88,5,10,Ticks_ISO_T2_5,100,1,48,94,884734252
88,5,10,Ticks_ISO_T2_5,101,5,42,127,884737580
88,5,10,Ticks_ISO_T2_5,102,5,42,127,885237056
88,5,10,Ticks_ISO_T2_5,103,1,48,105,885242268
88,5,10,Ticks_ISO_T2_5,104,1,48,100,885730432
88,5,10,Ticks_ISO_T2_5,105,5,42,127,885736748
88,5,10,Ticks_ISO_T2_5,106,5,42,127,886236524
88,5,10,Ticks_ISO_T2_5,107,1,48,89,886243680
88,5,10,Ticks_ISO_T2_5,108,1,48,84,886723380
88,5,10,Ticks_ISO_T2_5,109,5,42,127,886737184
88,5,10,Ticks_ISO_T2_5,110,1,48,78,887211612
88,5,10,Ticks_ISO_T2_5,111,5,42,127,887236880
88,5,10,Ticks_ISO_T2_5,112,1,48,104,887705540
88,5,10,Ticks_ISO_T2_5,113,5,42,127,887736648
88,5,10,Ticks_ISO_T2_5,114,1,48,112,888208380
88,5,10,Ticks_ISO_T2_5,115,5,42,127,888237364
88,5,10,Ticks_ISO_T2_5,116,1,48,98,888704336
88,5,10,Ticks_ISO_T2_5,117,5,42,127,888737060
88,5,10,Ticks_ISO_T2_5,118,1,48,75,889230808
88,5,10,Ticks_ISO_T2_5,119,5,42,127,889237048
88,5,10,Ticks_ISO_T2_5,120,5,42,127,889736604
88,5,10,Ticks_ISO_T2_5,121,1,48,94,889746372
88,5,10,Ticks_ISO_T2_5,122,1,48,95,890233412
88,5,10,Ticks_ISO_T2_5,123,5,42,127,890237188
88,5,10,Ticks_ISO_T2_5,124,1,48,108,890730488
88,5,10,Ticks_ISO_T2_5,125,5,42,127,890737108
88,5,10,Ticks_ISO_T2_5,126,5,42,127,891236808
88,5,10,Ticks_ISO_T2_5,127,1,48,116,891246960
88,5,10,Ticks_ISO_T2_5,128,1,48,102,891729876
88,5,10,Ticks_ISO_T2_5,129,5,42,127,891736420
88,5,10,Ticks_ISO_T2_5,130,5,42,127,892237020
88,5,10,Ticks_ISO_T2_5,131,1,48,111,892251212
88,5,10,Ticks_ISO_T2_5,132,1,48,104,892726276
88,5,10,Ticks_ISO_T2_5,133,5,42,127,892736860
88,5,10,Ticks_ISO_T2_5,134,1,48,112,893209068
88,5,10,Ticks_ISO_T2_5,135,5,42,127,893236480
88,5,10,Ticks_ISO_T2_5,136,1,48,97,893706744
88,5,10,Ticks_ISO_T2_5,137,5,42,127,893737220
88,5,10,Ticks_ISO_T2_5,138,1,48,105,894214888
88,5,10,Ticks_ISO_T2_5,139,5,42,127,894237064
88,5,10,Ticks_ISO_T2_5,140,1,48,96,894715032
88,5,10,Ticks_ISO_T2_5,141,5,42,127,894736908
88,5,10,Ticks_ISO_T2_5,142,1,48,89,895201936
88,5,10,Ticks_ISO_T2_5,143,5,42,127,895236604
88,5,10,Ticks_ISO_T2_5,144,1,48,95,895716668
88,5,10,Ticks_ISO_T2_5,145,5,42,127,895737120
88,5,10,Ticks_ISO_T2_5,146,1,48,113,896224812
88,5,10,Ticks_ISO_T2_5,147,5,42,127,896236892
88,5,10,Ticks_ISO_T2_5,148,1,48,96,896709620
88,5,10,Ticks_ISO_T2_5,149,5,42,127,896736732
88,5,10,Ticks_ISO_T2_5,150,1,48,95,897213804
88,5,10,Ticks_ISO_T2_5,151,5,42,127,897237252
88,5,10,Ticks_ISO_T2_5,152,1,48,91,897709436
88,5,10,Ticks_ISO_T2_5,153,5,42,127,897736948
88,5,10,Ticks_ISO_T2_5,154,1,48,77,898232188
88,5,10,Ticks_ISO_T2_5,155,5,42,127,898236864
88,5,10,Ticks_ISO_T2_5,156,1,48,100,898723036
88,5,10,Ticks_ISO_T2_5,157,5,42,127,898736384
88,5,10,Ticks_ISO_T2_5,158,1,48,87,899229388
88,5,10,Ticks_ISO_T2_5,159,5,42,127,899237128
88,5,10,Ticks_ISO_T2_5,160,5,42,127,899737052
88,5,10,Ticks_ISO_T2_5,161,1,48,110,899744504
88,5,10,Ticks_ISO_T2_5,162,5,42,127,900236600
88,5,10,Ticks_ISO_T2_5,163,1,48,103,900237564
88,5,10,Ticks_ISO_T2_5,164,1,48,108,900732732
88,5,10,Ticks_ISO_T2_5,165,5,42,127,900737408
88,5,10,Ticks_ISO_T2_5,166,5,42,127,901237032
88,5,10,Ticks_ISO_T2_5,167,1,48,104,901243068
88,5,10,Ticks_ISO_T2_5,168,1,48,104,901726060
88,5,10,Ticks_ISO_T2_5,169,5,42,127,901736724
88,5,10,Ticks_ISO_T2_5,170,1,48,101,902230324
88,5,10,Ticks_ISO_T2_5,171,5,42,127,902236640
88,5,10,Ticks_ISO_T2_5,172,5,42,127,902737316
88,5,10,Ticks_ISO_T2_5,173,1,48,99,902740580
88,5,10,Ticks_ISO_T2_5,174,5,42,127,903236860
88,5,10,Ticks_ISO_T2_5,175,1,48,99,903249848
88,5,10,Ticks_ISO_T2_5,176,5,42,127,903736780
88,5,10,Ticks_ISO_T2_5,177,1,48,103,903740500
88,5,10,Ticks_ISO_T2_5,178,5,42,127,904237296
88,5,10,Ticks_ISO_T2_5,179,1,48,100,904249840
88,5,10,Ticks_ISO_T2_5,180,1,48,93,904735784
88,5,10,Ticks_ISO_T2_5,181,5,42,127,904737284
88,5,10,Ticks_ISO_T2_5,182,5,42,127,905236836
88,5,10,Ticks_ISO_T2_5,183,1,48,104,905247432
88,5,10,Ticks_ISO_T2_5,184,5,42,127,905736680
88,5,10,Ticks_ISO_T2_5,185,1,48,104,905743984
88,5,10,Ticks_ISO_T2_5,186,5,42,127,906237348
88,5,10,Ticks_ISO_T2_5,187,1,48,104,906252056
88,5,10,Ticks_ISO_T2_5,188,1,48,98,906737264
88,5,10,Ticks_ISO_T2_5,189,5,42,127,906738756
88,5,10,Ticks_ISO_T2_5,190,5,42,127,907236588
88,5,10,Ticks_ISO_T2_5,191,1,48,96,907259228
88,5,10,Ticks_ISO_T2_5,192,5,42,127,907736504
88,5,10,Ticks_ISO_T2_5,193,1,48,98,907753908
88,5,10,Ticks_ISO_T2_5,194,5,42,127,908237096
88,5,10,Ticks_ISO_T2_5,195,1,48,90,908237988
88,5,10,Ticks_ISO_T2_5,196,5,42,127,908736944
88,5,10,Ticks_ISO_T2_5,197,1,48,99,908748436
88,5,10,Ticks_ISO_T2_5,198,5,42,127,909236612
88,5,10,Ticks_ISO_T2_5,199,1,48,91,909249752
88,5,10,Ticks_ISO_T2_5,200,5,42,127,909737328
88,5,10,Ticks_ISO_T2_5,201,1,48,91,909743660
88,5,10,Ticks_ISO_T2_5,202,5,42,127,910237024
88,5,10,Ticks_ISO_T2_5,203,1,48,97,910247100
88,5,10,Ticks_ISO_T2_5,204,5,42,127,910736864
88,5,10,Ticks_ISO_T2_5,205,1,48,101,910737756
88,5,10,Ticks_ISO_T2_5,206,5,42,127,911236636
88,5,10,Ticks_ISO_T2_5,207,1,48,103,911239752
88,5,10,Ticks_ISO_T2_5,208,5,42,127,911737300
88,5,10,Ticks_ISO_T2_5,209,1,48,117,911768020
88,5,10,Ticks_ISO_T2_5,210,5,42,127,912236920
88,5,10,Ticks_ISO_T2_5,211,1,48,103,912253424
88,5,10,Ticks_ISO_T2_5,212,1,48,104,912729468
88,5,10,Ticks_ISO_T2_5,213,5,42,127,912736756
88,5,10,Ticks_ISO_T2_5,214,1,48,104,913235156
88,5,10,Ticks_ISO_T2_5,215,5,42,127,913237348
88,5,10,Ticks_ISO_T2_5,216,1,48,84,913722944
88,5,10,Ticks_ISO_T2_5,217,5,42,127,913736968
88,5,10,Ticks_ISO_T2_5,218,1,48,113,914223012
88,5,10,Ticks_ISO_T2_5,219,5,42,127,914236888
88,5,10,Ticks_ISO_T2_5,220,1,48,104,914721212
88,5,10,Ticks_ISO_T2_5,221,5,42,127,914736732
88,5,10,Ticks_ISO_T2_5,222,1,48,97,915207300
88,5,10,Ticks_ISO_T2_5,223,5,42,127,915237176
88,5,10,Ticks_ISO_T2_5,224,1,48,103,915703544
88,5,10,Ticks_ISO_T2_5,225,5,42,127,915736944
88,5,10,Ticks_ISO_T2_5,226,1,48,99,916178264
88,5,10,Ticks_ISO_T2_5,227,5,42,127,916236712
88,5,10,Ticks_ISO_T2_5,228,1,48,100,916674512
88,5,10,Ticks_ISO_T2_5,229,5,42,127,916737528
88,5,10,Ticks_ISO_T2_5,230,1,48,97,917179968
88,5,10,Ticks_ISO_T2_5,231,5,42,127,917237000
88,5,10,Ticks_ISO_T2_5,232,1,48,98,917686168
88,5,10,Ticks_ISO_T2_5,233,5,42,127,917736772
88,5,10,Ticks_ISO_T2_5,234,1,48,88,918209276
88,5,10,Ticks_ISO_T2_5,235,5,42,127,918236764
88,5,10,Ticks_ISO_T2_5,236,1,48,81,918699224
88,5,10,Ticks_ISO_T2_5,237,5,42,127,918737356
88,5,10,Ticks_ISO_T2_5,238,1,48,84,919195324
88,5,10,Ticks_ISO_T2_5,239,5,42,127,919236976
88,5,10,Ticks_ISO_T2_5,240,1,48,105,919705716
88,5,10,Ticks_ISO_T2_5,241,5,42,127,919736744
88,5,10,Ticks_ISO_T2_5,242,1,48,95,920193372
88,5,10,Ticks_ISO_T2_5,243,5,42,127,920237536
88,5,10,Ticks_ISO_T2_5,244,1,48,94,920693588
88,5,10,Ticks_ISO_T2_5,245,5,42,127,920737308
88,5,10,Ticks_ISO_T2_5,246,1,48,77,921202860
88,5,10,Ticks_ISO_T2_5,247,5,42,127,921236852
88,5,10,Ticks_ISO_T2_5,248,1,48,84,921692080
88,5,10,Ticks_ISO_T2_5,249,5,42,127,921736548
88,5,10,Ticks_ISO_T2_5,250,1,48,111,922195368
88,5,10,Ticks_ISO_T2_5,251,5,42,127,922237364
88,5,10,Ticks_ISO_T2_5,252,1,48,95,922691096
88,5,10,Ticks_ISO_T2_5,253,5,42,127,922737060
88,5,10,Ticks_ISO_T2_5,254,1,48,116,923188404
88,5,10,Ticks_ISO_T2_5,255,5,42,127,923236680
88,5,10,Ticks_ISO_T2_5,256,1,48,110,923677924
88,5,10,Ticks_ISO_T2_5,0,9999,9999,9999,858734676
88,5,10,Ticks_ISO_T2_5,1,9999,9999,9999,859234396
88,5,10,Ticks_ISO_T2_5,2,9999,9999,9999,859734112
88,5,10,Ticks_ISO_T2_5,3,9999,9999,9999,860234800
88,5,10,Ticks_ISO_T2_5,4,9999,9999,9999,860734516
88,5,10,Ticks_ISO_T2_5,5,9999,9999,9999,861234284
88,5,10,Ticks_ISO_T2_5,6,9999,9999,9999,861735024
88,5,10,Ticks_ISO_T2_5,7,9999,9999,9999,862234720
88,5,10,Ticks_ISO_T2_5,8,9999,9999,9999,862734408
88,5,10,Ticks_ISO_T2_5,9,9999,9999,9999,863234104
88,5,10,Ticks_ISO_T2_5,10,9999,9999,9999,863734852
88,5,10,Ticks_ISO_T2_5,11,9999,9999,9999,864234616
88,5,10,Ticks_ISO_T2_5,12,9999,9999,9999,864734264
88,5,10,Ticks_ISO_T2_5,13,9999,9999,9999,865235052
88,5,10,Ticks_ISO_T2_5,14,9999,9999,9999,865734752
88,5,10,Ticks_ISO_T2_5,15,9999,9999,9999,866234444
88,5,10,Ticks_ISO_T2_5,16,9999,9999,9999,866734188
88,5,10,Ticks_ISO_T2_5,17,9999,9999,9999,867234928
88,5,10,Ticks_ISO_T2_5,18,9999,9999,9999,867734620
88,5,10,Ticks_ISO_T2_5,19,9999,9999,9999,868234316
88,5,10,Ticks_ISO_T2_5,20,9999,9999,9999,868735060
88,5,10,Ticks_ISO_T2_5,21,9999,9999,9999,869234760
88,5,10,Ticks_ISO_T2_5,22,9999,9999,9999,869734456
88,5,10,Ticks_ISO_T2_5,23,9999,9999,9999,870234224
88,5,10,Ticks_ISO_T2_5,24,9999,9999,9999,870734964
88,5,10,Ticks_ISO_T2_5,25,9999,9999,9999,871234660
88,5,10,Ticks_ISO_T2_5,26,9999,9999,9999,871734356
88,5,10,Ticks_ISO_T2_5,27,9999,9999,9999,872235096
88,5,10,Ticks_ISO_T2_5,28,9999,9999,9999,872734792
88,5,10,Ticks_ISO_T2_5,29,9999,9999,9999,873234484
88,5,10,Ticks_ISO_T2_5,30,9999,9999,9999,873734256
88,5,10,Ticks_ISO_T2_5,31,9999,9999,9999,874234992
88,5,10,Ticks_ISO_T2_5,32,9999,9999,9999,874734708
88,5,10,Ticks_ISO_T2_5,33,9999,9999,9999,875234388
88,5,10,Ticks_ISO_T2_5,34,9999,9999,9999,875734076
88,5,10,Ticks_ISO_T2_5,35,9999,9999,9999,876234816
88,5,10,Ticks_ISO_T2_5,36,9999,9999,9999,876734512
88,5,10,Ticks_ISO_T2_5,37,9999,9999,9999,877234260
88,5,10,Ticks_ISO_T2_5,38,9999,9999,9999,877735004
88,5,10,Ticks_ISO_T2_5,39,9999,9999,9999,878234700
88,5,10,Ticks_ISO_T2_5,40,9999,9999,9999,878734392
88,5,10,Ticks_ISO_T2_5,41,9999,9999,9999,879234156
88,5,10,Ticks_ISO_T2_5,42,9999,9999,9999,879734900
88,5,10,Ticks_ISO_T2_5,43,9999,9999,9999,880234592
88,5,10,Ticks_ISO_T2_5,44,9999,9999,9999,880734296
88,5,10,Ticks_ISO_T2_5,45,9999,9999,9999,881235036
88,5,10,Ticks_ISO_T2_5,46,9999,9999,9999,881734728
88,5,10,Ticks_ISO_T2_5,47,9999,9999,9999,882234420
88,5,10,Ticks_ISO_T2_5,48,9999,9999,9999,882734196
88,5,10,Ticks_ISO_T2_5,49,9999,9999,9999,883234864
88,5,10,Ticks_ISO_T2_5,50,9999,9999,9999,883734636
88,5,10,Ticks_ISO_T2_5,51,9999,9999,9999,884234332
88,5,10,Ticks_ISO_T2_5,52,9999,9999,9999,884735068
88,5,10,Ticks_ISO_T2_5,53,9999,9999,9999,885234768
88,5,10,Ticks_ISO_T2_5,54,9999,9999,9999,885734456
88,5,10,Ticks_ISO_T2_5,55,9999,9999,9999,886234232
88,5,10,Ticks_ISO_T2_5,56,9999,9999,9999,886734968
88,5,10,Ticks_ISO_T2_5,57,9999,9999,9999,887234664
88,5,10,Ticks_ISO_T2_5,58,9999,9999,9999,887734356
88,5,10,Ticks_ISO_T2_5,59,9999,9999,9999,888235076
88,5,10,Ticks_ISO_T2_5,60,9999,9999,9999,888734768
88,5,10,Ticks_ISO_T2_5,61,9999,9999,9999,889234536
88,5,10,Ticks_ISO_T2_5,62,9999,9999,9999,889734240
88,5,10,Ticks_ISO_T2_5,63,9999,9999,9999,890234976
88,5,10,Ticks_ISO_T2_5,64,9999,9999,9999,890734668
88,5,10,Ticks_ISO_T2_5,65,9999,9999,9999,891234372
88,5,10,Ticks_ISO_T2_5,66,9999,9999,9999,891734132
88,5,10,Ticks_ISO_T2_5,67,9999,9999,9999,892234804
88,5,10,Ticks_ISO_T2_5,68,9999,9999,9999,892734568
88,5,10,Ticks_ISO_T2_5,69,9999,9999,9999,893234264
88,5,10,Ticks_ISO_T2_5,70,9999,9999,9999,893735004
88,5,10,Ticks_ISO_T2_5,71,9999,9999,9999,894234700
88,5,10,Ticks_ISO_T2_5,72,9999,9999,9999,894734396
88,5,10,Ticks_ISO_T2_5,73,9999,9999,9999,895234164
88,5,10,Ticks_ISO_T2_5,74,9999,9999,9999,895734904
88,5,10,Ticks_ISO_T2_5,75,9999,9999,9999,896234600
88,5,10,Ticks_ISO_T2_5,76,9999,9999,9999,896734296
88,5,10,Ticks_ISO_T2_5,77,9999,9999,9999,897235036
88,5,10,Ticks_ISO_T2_5,78,9999,9999,9999,897734732
88,5,10,Ticks_ISO_T2_5,79,9999,9999,9999,898234428
88,5,10,Ticks_ISO_T2_5,80,9999,9999,9999,898734168
88,5,10,Ticks_ISO_T2_5,81,9999,9999,9999,899234912
88,5,10,Ticks_ISO_T2_5,82,9999,9999,9999,899734612
88,5,10,Ticks_ISO_T2_5,83,9999,9999,9999,900234308
88,5,10,Ticks_ISO_T2_5,84,9999,9999,9999,900735044
88,5,10,Ticks_ISO_T2_5,85,9999,9999,9999,901234744
88,5,10,Ticks_ISO_T2_5,86,9999,9999,9999,901734508
88,5,10,Ticks_ISO_T2_5,87,9999,9999,9999,902234204
88,5,10,Ticks_ISO_T2_5,88,9999,9999,9999,902734948
88,5,10,Ticks_ISO_T2_5,89,9999,9999,9999,903234644
88,5,10,Ticks_ISO_T2_5,90,9999,9999,9999,903734340
88,5,10,Ticks_ISO_T2_5,91,9999,9999,9999,904235080
88,5,10,Ticks_ISO_T2_5,92,9999,9999,9999,904734776
88,5,10,Ticks_ISO_T2_5,93,9999,9999,9999,905234544
88,5,10,Ticks_ISO_T2_5,94,9999,9999,9999,905734240
88,5,10,Ticks_ISO_T2_5,95,9999,9999,9999,906234980
88,5,10,Ticks_ISO_T2_5,96,9999,9999,9999,906734676
88,5,10,Ticks_ISO_T2_5,97,9999,9999,9999,907234372
88,5,10,Ticks_ISO_T2_5,98,9999,9999,9999,907734064
88,5,10,Ticks_ISO_T2_5,99,9999,9999,9999,908234804
88,5,10,Ticks_ISO_T2_5,100,9999,9999,9999,908734576
88,5,10,Ticks_ISO_T2_5,101,9999,9999,9999,909234248
88,5,10,Ticks_ISO_T2_5,102,9999,9999,9999,909734964
88,5,10,Ticks_ISO_T2_5,103,9999,9999,9999,910234732
88,5,10,Ticks_ISO_T2_5,104,9999,9999,9999,910734428
88,5,10,Ticks_ISO_T2_5,105,9999,9999,9999,911234120
88,5,10,Ticks_ISO_T2_5,106,9999,9999,9999,911734860
88,5,10,Ticks_ISO_T2_5,107,9999,9999,9999,912234556
88,5,10,Ticks_ISO_T2_5,108,9999,9999,9999,912734320
88,5,10,Ticks_ISO_T2_5,109,9999,9999,9999,913235024
88,5,10,Ticks_ISO_T2_5,110,9999,9999,9999,913734756
88,5,10,Ticks_ISO_T2_5,111,9999,9999,9999,914234448
88,5,10,Ticks_ISO_T2_5,112,9999,9999,9999,914734144
88,5,10,Ticks_ISO_T2_5,113,9999,9999,9999,915234884
88,5,10,Ticks_ISO_T2_5,114,9999,9999,9999,915734580
88,5,10,Ticks_ISO_T2_5,115,9999,9999,9999,916234348
88,5,10,Ticks_ISO_T2_5,116,9999,9999,9999,916735092
88,5,10,Ticks_ISO_T2_5,117,9999,9999,9999,917234784
88,5,10,Ticks_ISO_T2_5,118,9999,9999,9999,917734480
88,5,10,Ticks_ISO_T2_5,119,9999,9999,9999,918234176
88,5,10,Ticks_ISO_T2_5,120,9999,9999,9999,918734916
88,5,10,Ticks_ISO_T2_5,121,9999,9999,9999,919234612
88,5,10,Ticks_ISO_T2_5,122,9999,9999,9999,919734380
88,5,10,Ticks_ISO_T2_5,123,9999,9999,9999,920235096
88,5,10,Ticks_ISO_T2_5,124,9999,9999,9999,920734796
88,5,10,Ticks_ISO_T2_5,125,9999,9999,9999,921234488
88,5,10,Ticks_ISO_T2_5,126,9999,9999,9999,921734260
88,5,10,Ticks_ISO_T2_5,127,9999,9999,9999,922235000
88,5,10,Ticks_ISO_T2_5,128,9999,9999,9999,922734692
88,5,10,Ticks_ISO_T2_5,129,9999,9999,9999,923234388
88,6,9,Ticks_ISO_T2_8,0,5,42,127,934347384
88,6,9,Ticks_ISO_T2_8,1,5,42,127,935146988
88,6,9,Ticks_ISO_T2_8,2,5,42,127,935946672
88,6,9,Ticks_ISO_T2_8,3,5,42,127,936747252
88,6,9,Ticks_ISO_T2_8,4,5,42,127,937547380
88,6,9,Ticks_ISO_T2_8,5,1,48,127,937565604
88,6,9,Ticks_ISO_T2_8,6,1,48,127,938319844
88,6,9,Ticks_ISO_T2_8,7,5,42,127,938347180
88,6,9,Ticks_ISO_T2_8,8,1,48,106,939079188
88,6,9,Ticks_ISO_T2_8,9,5,42,127,939146616
88,6,9,Ticks_ISO_T2_8,10,1,48,95,939849452
88,6,9,Ticks_ISO_T2_8,11,5,42,127,939947308
88,6,9,Ticks_ISO_T2_8,12,1,48,101,940643200
88,6,9,Ticks_ISO_T2_8,13,5,42,127,940747216
88,6,9,Ticks_ISO_T2_8,14,1,48,101,941476740
88,6,9,Ticks_ISO_T2_8,15,5,42,127,941546816
88,6,9,Ticks_ISO_T2_8,16,1,48,94,942269476
88,6,9,Ticks_ISO_T2_8,17,5,42,127,942346624
88,6,9,Ticks_ISO_T2_8,18,1,48,100,943090224
88,6,9,Ticks_ISO_T2_8,19,5,42,127,943147480
88,6,9,Ticks_ISO_T2_8,20,1,48,101,943914936
88,6,9,Ticks_ISO_T2_8,21,5,42,127,943947064
88,6,9,Ticks_ISO_T2_8,22,1,48,89,944729784
88,6,9,Ticks_ISO_T2_8,23,5,42,127,944747020
88,6,9,Ticks_ISO_T2_8,24,1,48,103,945513588
88,6,9,Ticks_ISO_T2_8,25,5,42,127,945546608
88,6,9,Ticks_ISO_T2_8,26,1,48,103,946319976
88,6,9,Ticks_ISO_T2_8,27,5,42,127,946347240
88,6,9,Ticks_ISO_T2_8,28,1,48,98,947122996
88,6,9,Ticks_ISO_T2_8,29,5,42,127,947147044
88,6,9,Ticks_ISO_T2_8,30,1,48,70,947932080
88,6,9,Ticks_ISO_T2_8,31,5,42,127,947947000
88,6,9,Ticks_ISO_T2_8,32,1,48,94,948707436
88,6,9,Ticks_ISO_T2_8,33,5,42,127,948746588
88,6,9,Ticks_ISO_T2_8,34,1,48,102,949499388
88,6,9,Ticks_ISO_T2_8,35,5,42,127,949547292
88,6,9,Ticks_ISO_T2_8,36,1,48,99,950285804
88,6,9,Ticks_ISO_T2_8,37,5,42,127,950347100
88,6,9,Ticks_ISO_T2_8,38,1,48,96,951108128
88,6,9,Ticks_ISO_T2_8,39,5,42,127,951147056
88,6,9,Ticks_ISO_T2_8,40,1,48,73,951910556
88,6,9,Ticks_ISO_T2_8,41,5,42,127,951946492
88,6,9,Ticks_ISO_T2_8,42,1,48,83,952706176
88,6,9,Ticks_ISO_T2_8,43,5,42,127,952747272
88,6,9,Ticks_ISO_T2_8,44,1,48,97,953501492
88,6,9,Ticks_ISO_T2_8,45,5,42,127,953547180
88,6,9,Ticks_ISO_T2_8,46,1,48,77,954323244
88,6,9,Ticks_ISO_T2_8,47,5,42,127,954346840
88,6,9,Ticks_ISO_T2_8,48,1,48,64,955114748
88,6,9,Ticks_ISO_T2_8,49,5,42,127,955146572
88,6,9,Ticks_ISO_T2_8,50,1,48,98,955923608
88,6,9,Ticks_ISO_T2_8,51,5,42,127,955947428
88,6,9,Ticks_ISO_T2_8,52,1,48,94,956713464
88,6,9,Ticks_ISO_T2_8,53,5,42,127,956747236
88,6,9,Ticks_ISO_T2_8,54,1,48,95,957507140
88,6,9,Ticks_ISO_T2_8,55,5,42,127,957546892
88,6,9,Ticks_ISO_T2_8,56,1,48,109,958303656
88,6,9,Ticks_ISO_T2_8,57,5,42,127,958346776
88,6,9,Ticks_ISO_T2_8,58,1,48,101,959112740
88,6,9,Ticks_ISO_T2_8,59,5,42,127,959147332
88,6,9,Ticks_ISO_T2_8,60,1,48,105,959908584
88,6,9,Ticks_ISO_T2_8,61,5,42,127,959947016
88,6,9,Ticks_ISO_T2_8,62,1,48,110,960737212
88,6,9,Ticks_ISO_T2_8,63,5,42,127,960746972
88,6,9,Ticks_ISO_T2_8,64,1,48,98,961512112
88,6,9,Ticks_ISO_T2_8,65,5,42,127,961546704
88,6,9,Ticks_ISO_T2_8,66,1,48,86,962334736
88,6,9,Ticks_ISO_T2_8,67,5,42,127,962347340
88,6,9,Ticks_ISO_T2_8,68,1,48,79,963112700
88,6,9,Ticks_ISO_T2_8,69,5,42,127,963147220
88,6,9,Ticks_ISO_T2_8,70,1,48,88,963868156
88,6,9,Ticks_ISO_T2_8,71,5,42,127,963947028
88,6,9,Ticks_ISO_T2_8,72,1,48,88,964633032
88,6,9,Ticks_ISO_T2_8,73,5,42,127,964746748
88,6,9,Ticks_ISO_T2_8,74,1,48,83,965483704
88,6,9,Ticks_ISO_T2_8,75,5,42,127,965547464
88,6,9,Ticks_ISO_T2_8,76,1,48,102,966296372
88,6,9,Ticks_ISO_T2_8,77,5,42,127,966347076
88,6,9,Ticks_ISO_T2_8,78,1,48,85,967064316
88,6,9,Ticks_ISO_T2_8,79,5,42,127,967146880
88,6,9,Ticks_ISO_T2_8,80,1,48,96,967893696
88,6,9,Ticks_ISO_T2_8,81,5,42,127,967946616
88,6,9,Ticks_ISO_T2_8,82,1,48,96,968665532
88,6,9,Ticks_ISO_T2_8,83,5,42,127,968747248
88,6,9,Ticks_ISO_T2_8,84,1,48,104,969468632
88,6,9,Ticks_ISO_T2_8,85,5,42,127,969547052
88,6,9,Ticks_ISO_T2_8,86,1,48,86,970253104
88,6,9,Ticks_ISO_T2_8,87,1,48,55,970299908
88,6,9,Ticks_ISO_T2_8,88,5,42,127,970346840
88,6,9,Ticks_ISO_T2_8,89,1,48,81,971115344
88,6,9,Ticks_ISO_T2_8,90,5,42,127,971146796
88,6,9,Ticks_ISO_T2_8,91,1,48,98,971921960
88,6,9,Ticks_ISO_T2_8,92,5,42,127,971947352
88,6,9,Ticks_ISO_T2_8,93,1,48,101,972718404
88,6,9,Ticks_ISO_T2_8,94,5,42,127,972747112
88,6,9,Ticks_ISO_T2_8,95,1,48,79,973494820
88,6,9,Ticks_ISO_T2_8,96,5,42,127,973546844
88,6,9,Ticks_ISO_T2_8,97,1,48,86,974305476
88,6,9,Ticks_ISO_T2_8,98,5,42,127,974346872
88,6,9,Ticks_ISO_T2_8,99,1,48,81,975094584
88,6,9,Ticks_ISO_T2_8,100,5,42,127,975147356
88,6,9,Ticks_ISO_T2_8,101,1,48,98,975862680
88,6,9,Ticks_ISO_T2_8,102,5,42,127,975947164
88,6,9,Ticks_ISO_T2_8,103,1,48,89,976684628
88,6,9,Ticks_ISO_T2_8,104,5,42,127,976746748
88,6,9,Ticks_ISO_T2_8,105,1,48,81,977476576
88,6,9,Ticks_ISO_T2_8,106,5,42,127,977546852
88,6,9,Ticks_ISO_T2_8,107,1,48,72,978274968
88,6,9,Ticks_ISO_T2_8,108,1,48,47,978328804
88,6,9,Ticks_ISO_T2_8,109,5,42,127,978347388
88,6,9,Ticks_ISO_T2_8,110,1,48,89,979086120
88,6,9,Ticks_ISO_T2_8,111,5,42,127,979146996
88,6,9,Ticks_ISO_T2_8,112,1,48,87,979908624
88,6,9,Ticks_ISO_T2_8,113,5,42,127,979946804
88,6,9,Ticks_ISO_T2_8,114,1,48,80,980716056
88,6,9,Ticks_ISO_T2_8,115,5,42,127,980746612
88,6,9,Ticks_ISO_T2_8,116,1,48,83,981482584
88,6,9,Ticks_ISO_T2_8,117,5,42,127,981547468
88,6,9,Ticks_ISO_T2_8,118,1,48,68,982273340
88,6,9,Ticks_ISO_T2_8,119,5,42,127,982346976
88,6,9,Ticks_ISO_T2_8,120,1,48,85,983080404
88,6,9,Ticks_ISO_T2_8,121,5,42,127,983146856
88,6,9,Ticks_ISO_T2_8,122,1,48,80,983909536
88,6,9,Ticks_ISO_T2_8,123,5,42,127,983946668
88,6,9,Ticks_ISO_T2_8,124,1,48,71,984726544
88,6,9,Ticks_ISO_T2_8,125,5,42,127,984747524
88,6,9,Ticks_ISO_T2_8,126,1,48,86,985529668
88,6,9,Ticks_ISO_T2_8,127,5,42,127,985546980
88,6,9,Ticks_ISO_T2_8,128,1,48,87,986313540
88,6,9,Ticks_ISO_T2_8,129,5,42,127,986346940
88,6,9,Ticks_ISO_T2_8,130,1,48,75,987088816
88,6,9,Ticks_ISO_T2_8,131,5,42,127,987146524
88,6,9,Ticks_ISO_T2_8,132,1,48,70,987891616
88,6,9,Ticks_ISO_T2_8,133,5,42,127,987947524
88,6,9,Ticks_ISO_T2_8,134,1,48,104,988671156
88,6,9,Ticks_ISO_T2_8,135,5,42,127,988747336
88,6,9,Ticks_ISO_T2_8,136,1,48,90,989481660
88,6,9,Ticks_ISO_T2_8,137,5,42,127,989546992
88,6,9,Ticks_ISO_T2_8,138,1,48,82,990276156
88,6,9,Ticks_ISO_T2_8,139,5,42,127,990346504
88,6,9,Ticks_ISO_T2_8,140,1,48,94,991092196
88,6,9,Ticks_ISO_T2_8,141,5,42,127,991147504
88,6,9,Ticks_ISO_T2_8,142,1,48,95,991872484
88,6,9,Ticks_ISO_T2_8,143,5,42,127,991947116
88,6,9,Ticks_ISO_T2_8,144,1,48,72,992686048
88,6,9,Ticks_ISO_T2_8,145,5,42,127,992746776
88,6,9,Ticks_ISO_T2_8,146,1,48,69,993445320
88,6,9,Ticks_ISO_T2_8,147,1,48,21,993539344
88,6,9,Ticks_ISO_T2_8,148,5,42,127,993546560
88,6,9,Ticks_ISO_T2_8,149,1,48,65,994274976
88,6,9,Ticks_ISO_T2_8,150,5,42,127,994347488
88,6,9,Ticks_ISO_T2_8,151,1,48,63,995112852
88,6,9,Ticks_ISO_T2_8,152,5,42,127,995147220
88,6,9,Ticks_ISO_T2_8,153,1,48,51,995898228
88,6,9,Ticks_ISO_T2_8,154,5,42,127,995946732
88,6,9,Ticks_ISO_T2_8,155,1,48,67,996745716
88,6,9,Ticks_ISO_T2_8,156,5,42,127,996747288
88,6,9,Ticks_ISO_T2_8,157,1,48,78,997518416
88,6,9,Ticks_ISO_T2_8,158,5,42,127,997547244
88,6,9,Ticks_ISO_T2_8,159,5,42,127,998347308
88,6,9,Ticks_ISO_T2_8,160,1,48,84,998349172
88,6,9,Ticks_ISO_T2_8,161,5,42,127,999146964
88,6,9,Ticks_ISO_T2_8,162,1,48,75,999153752
88,6,9,Ticks_ISO_T2_8,163,1,48,69,999918688
88,6,9,Ticks_ISO_T2_8,164,5,42,127,999946548
88,6,9,Ticks_ISO_T2_8,165,1,48,80,1000722460
88,6,9,Ticks_ISO_T2_8,166,5,42,127,1000747400
88,6,9,Ticks_ISO_T2_8,167,1,48,54,1001513216
88,6,9,Ticks_ISO_T2_8,168,5,42,127,1001547432
88,6,9,Ticks_ISO_T2_8,169,1,48,73,1002303972
88,6,9,Ticks_ISO_T2_8,170,5,42,127,1002346792
88,6,9,Ticks_ISO_T2_8,171,1,48,81,1003098400
88,6,9,Ticks_ISO_T2_8,172,5,42,127,1003146748
88,6,9,Ticks_ISO_T2_8,173,1,48,82,1003911140
88,6,9,Ticks_ISO_T2_8,174,5,42,127,1003947528
88,6,9,Ticks_ISO_T2_8,175,1,48,84,1004726612
88,6,9,Ticks_ISO_T2_8,176,5,42,127,1004747140
88,6,9,Ticks_ISO_T2_8,177,1,48,100,1005497476
88,6,9,Ticks_ISO_T2_8,178,5,42,127,1005546948
88,6,9,Ticks_ISO_T2_8,179,1,48,94,1006294288
88,6,9,Ticks_ISO_T2_8,180,5,42,127,1006346608
88,6,9,Ticks_ISO_T2_8,181,1,48,96,1007105168
88,6,9,Ticks_ISO_T2_8,182,5,42,127,1007147460
88,6,9,Ticks_ISO_T2_8,183,1,48,95,1007907296
88,6,9,Ticks_ISO_T2_8,184,5,42,127,1007947196
88,6,9,Ticks_ISO_T2_8,185,1,48,68,1008678308
88,6,9,Ticks_ISO_T2_8,186,5,42,127,1008747152
88,6,9,Ticks_ISO_T2_8,187,1,48,97,1009472428
88,6,9,Ticks_ISO_T2_8,188,5,42,127,1009546736
88,6,9,Ticks_ISO_T2_8,189,1,48,91,1010288544
88,6,9,Ticks_ISO_T2_8,190,5,42,127,1010347224
88,6,9,Ticks_ISO_T2_8,191,1,48,87,1011105180
88,6,9,Ticks_ISO_T2_8,192,5,42,127,1011147056
88,6,9,Ticks_ISO_T2_8,193,1,48,70,1011921916
88,6,9,Ticks_ISO_T2_8,194,5,42,127,1011946788
88,6,9,Ticks_ISO_T2_8,195,1,48,77,1012691432
88,6,9,Ticks_ISO_T2_8,196,5,42,127,1012747044
88,6,9,Ticks_ISO_T2_8,197,1,48,84,1013492064
88,6,9,Ticks_ISO_T2_8,198,5,42,127,1013547452
88,6,9,Ticks_ISO_T2_8,199,1,48,99,1014322616
88,6,9,Ticks_ISO_T2_8,200,5,42,127,1014347184
88,6,9,Ticks_ISO_T2_8,201,1,48,83,1015060568
88,6,9,Ticks_ISO_T2_8,202,5,42,127,1015146992
88,6,9,Ticks_ISO_T2_8,203,1,48,96,1015897476
88,6,9,Ticks_ISO_T2_8,204,5,42,127,1015946504
88,6,9,Ticks_ISO_T2_8,205,1,48,105,1016682848
88,6,9,Ticks_ISO_T2_8,206,5,42,127,1016747432
88,6,9,Ticks_ISO_T2_8,207,1,48,107,1017452812
88,6,9,Ticks_ISO_T2_8,208,5,42,127,1017546968
88,6,9,Ticks_ISO_T2_8,209,1,48,93,1018280072
88,6,9,Ticks_ISO_T2_8,210,5,42,127,1018346848
88,6,9,Ticks_ISO_T2_8,211,1,48,80,1019109452
88,6,9,Ticks_ISO_T2_8,212,5,42,127,1019146656
88,6,9,Ticks_ISO_T2_8,213,1,48,95,1019918008
88,6,9,Ticks_ISO_T2_8,214,5,42,127,1019947512
88,6,9,Ticks_ISO_T2_8,215,1,48,94,1020722676
88,6,9,Ticks_ISO_T2_8,216,5,42,127,1020747172
88,6,9,Ticks_ISO_T2_8,217,1,48,92,1021508652
88,6,9,Ticks_ISO_T2_8,218,5,42,127,1021546980
88,6,9,Ticks_ISO_T2_8,219,1,48,77,1022319004
88,6,9,Ticks_ISO_T2_8,220,5,42,127,1022346492
88,6,9,Ticks_ISO_T2_8,221,1,48,100,1023084780
88,6,9,Ticks_ISO_T2_8,222,5,42,127,1023147268
88,6,9,Ticks_ISO_T2_8,223,1,48,87,1023868876
88,6,9,Ticks_ISO_T2_8,224,5,42,127,1023947100
88,6,9,Ticks_ISO_T2_8,225,1,48,74,1024700124
88,6,9,Ticks_ISO_T2_8,226,5,42,127,1024746908
88,6,9,Ticks_ISO_T2_8,227,1,48,95,1025451144
88,6,9,Ticks_ISO_T2_8,228,5,42,127,1025546552
88,6,9,Ticks_ISO_T2_8,229,1,48,96,1026255388
88,6,9,Ticks_ISO_T2_8,230,5,42,127,1026348156
88,6,9,Ticks_ISO_T2_8,231,1,48,95,1027058936
88,6,9,Ticks_ISO_T2_8,232,5,42,127,1027147080
88,6,9,Ticks_ISO_T2_8,233,1,48,86,1027894192
88,6,9,Ticks_ISO_T2_8,234,5,42,127,1027946964
88,6,9,Ticks_ISO_T2_8,235,1,48,82,1028715844
88,6,9,Ticks_ISO_T2_8,236,5,42,127,1028746548
88,6,9,Ticks_ISO_T2_8,237,1,48,80,1029464120
88,6,9,Ticks_ISO_T2_8,238,5,42,127,1029547256
88,6,9,Ticks_ISO_T2_8,239,1,48,87,1030264004
88,6,9,Ticks_ISO_T2_8,0,9999,9999,9999,934344792
88,6,9,Ticks_ISO_T2_8,1,9999,9999,9999,935144548
88,6,9,Ticks_ISO_T2_8,2,9999,9999,9999,935944304
88,6,9,Ticks_ISO_T2_8,3,9999,9999,9999,936745036
88,6,9,Ticks_ISO_T2_8,4,9999,9999,9999,937544788
88,6,9,Ticks_ISO_T2_8,5,9999,9999,9999,938344516
88,6,9,Ticks_ISO_T2_8,6,9999,9999,9999,939144252
88,6,9,Ticks_ISO_T2_8,7,9999,9999,9999,939945032
88,6,9,Ticks_ISO_T2_8,8,9999,9999,9999,940744776
88,6,9,Ticks_ISO_T2_8,9,9999,9999,9999,941544524
88,6,9,Ticks_ISO_T2_8,10,9999,9999,9999,942344260
88,6,9,Ticks_ISO_T2_8,11,9999,9999,9999,943145040
88,6,9,Ticks_ISO_T2_8,12,9999,9999,9999,943944772
88,6,9,Ticks_ISO_T2_8,13,9999,9999,9999,944744508
88,6,9,Ticks_ISO_T2_8,14,9999,9999,9999,945544240
88,6,9,Ticks_ISO_T2_8,15,9999,9999,9999,946345020
88,6,9,Ticks_ISO_T2_8,16,9999,9999,9999,947144752
88,6,9,Ticks_ISO_T2_8,17,9999,9999,9999,947944560
88,6,9,Ticks_ISO_T2_8,18,9999,9999,9999,948744296
88,6,9,Ticks_ISO_T2_8,19,9999,9999,9999,949545076
88,6,9,Ticks_ISO_T2_8,20,9999,9999,9999,950344808
88,6,9,Ticks_ISO_T2_8,21,9999,9999,9999,951144540
88,6,9,Ticks_ISO_T2_8,22,9999,9999,9999,951944276
88,6,9,Ticks_ISO_T2_8,23,9999,9999,9999,952745056
88,6,9,Ticks_ISO_T2_8,24,9999,9999,9999,953544812
88,6,9,Ticks_ISO_T2_8,25,9999,9999,9999,954344548
88,6,9,Ticks_ISO_T2_8,26,9999,9999,9999,955144280
88,6,9,Ticks_ISO_T2_8,27,9999,9999,9999,955945060
88,6,9,Ticks_ISO_T2_8,28,9999,9999,9999,956744796
88,6,9,Ticks_ISO_T2_8,29,9999,9999,9999,957544528
88,6,9,Ticks_ISO_T2_8,30,9999,9999,9999,958344260
88,6,9,Ticks_ISO_T2_8,31,9999,9999,9999,959145040
88,6,9,Ticks_ISO_T2_8,32,9999,9999,9999,959944796
88,6,9,Ticks_ISO_T2_8,33,9999,9999,9999,960744532
88,6,9,Ticks_ISO_T2_8,34,9999,9999,9999,961544264
88,6,9,Ticks_ISO_T2_8,35,9999,9999,9999,962345044
88,6,9,Ticks_ISO_T2_8,36,9999,9999,9999,963144780
88,6,9,Ticks_ISO_T2_8,37,9999,9999,9999,963944512
88,6,9,Ticks_ISO_T2_8,38,9999,9999,9999,964744304
88,6,9,Ticks_ISO_T2_8,39,9999,9999,9999,965545024
88,6,9,Ticks_ISO_T2_8,40,9999,9999,9999,966344784
88,6,9,Ticks_ISO_T2_8,41,9999,9999,9999,967144516
88,6,9,Ticks_ISO_T2_8,42,9999,9999,9999,967944248
88,6,9,Ticks_ISO_T2_8,43,9999,9999,9999,968745028
88,6,9,Ticks_ISO_T2_8,44,9999,9999,9999,969544764
88,6,9,Ticks_ISO_T2_8,45,9999,9999,9999,970344548
88,6,9,Ticks_ISO_T2_8,46,9999,9999,9999,971144280
88,6,9,Ticks_ISO_T2_8,47,9999,9999,9999,971945060
88,6,9,Ticks_ISO_T2_8,48,9999,9999,9999,972744820
88,6,9,Ticks_ISO_T2_8,49,9999,9999,9999,973544552
88,6,9,Ticks_ISO_T2_8,50,9999,9999,9999,974344284
88,6,9,Ticks_ISO_T2_8,51,9999,9999,9999,975145064
88,6,9,Ticks_ISO_T2_8,52,9999,9999,9999,975944796
88,6,9,Ticks_ISO_T2_8,53,9999,9999,9999,976744532
88,6,9,Ticks_ISO_T2_8,54,9999,9999,9999,977544264
88,6,9,Ticks_ISO_T2_8,55,9999,9999,9999,978345020
88,6,9,Ticks_ISO_T2_8,56,9999,9999,9999,979144780
88,6,9,Ticks_ISO_T2_8,57,9999,9999,9999,979944512
88,6,9,Ticks_ISO_T2_8,58,9999,9999,9999,980744248
88,6,9,Ticks_ISO_T2_8,59,9999,9999,9999,981545028
88,6,9,Ticks_ISO_T2_8,60,9999,9999,9999,982344760
88,6,9,Ticks_ISO_T2_8,61,9999,9999,9999,983144568
88,6,9,Ticks_ISO_T2_8,62,9999,9999,9999,983944300
88,6,9,Ticks_ISO_T2_8,63,9999,9999,9999,984745008
88,6,9,Ticks_ISO_T2_8,64,9999,9999,9999,985544764
88,6,9,Ticks_ISO_T2_8,65,9999,9999,9999,986344500
88,6,9,Ticks_ISO_T2_8,66,9999,9999,9999,987144304
88,6,9,Ticks_ISO_T2_8,67,9999,9999,9999,987945012
88,6,9,Ticks_ISO_T2_8,68,9999,9999,9999,988744820
88,6,9,Ticks_ISO_T2_8,69,9999,9999,9999,989544552
88,6,9,Ticks_ISO_T2_8,70,9999,9999,9999,990344284
88,6,9,Ticks_ISO_T2_8,71,9999,9999,9999,991145064
88,6,9,Ticks_ISO_T2_8,72,9999,9999,9999,991944752
88,6,9,Ticks_ISO_T2_8,73,9999,9999,9999,992744556
88,6,9,Ticks_ISO_T2_8,74,9999,9999,9999,993544268
88,6,9,Ticks_ISO_T2_8,75,9999,9999,9999,994345048
88,6,9,Ticks_ISO_T2_8,76,9999,9999,9999,995144780
88,6,9,Ticks_ISO_T2_8,77,9999,9999,9999,995944516
88,6,9,Ticks_ISO_T2_8,78,9999,9999,9999,996744256
88,6,9,Ticks_ISO_T2_8,79,9999,9999,9999,997545028
88,6,9,Ticks_ISO_T2_8,80,9999,9999,9999,998344792
88,6,9,Ticks_ISO_T2_8,81,9999,9999,9999,999144524
88,6,9,Ticks_ISO_T2_8,82,9999,9999,9999,999944256
88,6,9,Ticks_ISO_T2_8,83,9999,9999,9999,1000745036
88,6,9,Ticks_ISO_T2_8,84,9999,9999,9999,1001544768
88,6,9,Ticks_ISO_T2_8,85,9999,9999,9999,1002344500
88,6,9,Ticks_ISO_T2_8,86,9999,9999,9999,1003144308
88,6,9,Ticks_ISO_T2_8,87,9999,9999,9999,1003945016
88,6,9,Ticks_ISO_T2_8,88,9999,9999,9999,1004744776
88,6,9,Ticks_ISO_T2_8,89,9999,9999,9999,1005544508
88,6,9,Ticks_ISO_T2_8,90,9999,9999,9999,1006344240
88,6,9,Ticks_ISO_T2_8,91,9999,9999,9999,1007145020
88,6,9,Ticks_ISO_T2_8,92,9999,9999,9999,1007944756
88,6,9,Ticks_ISO_T2_8,93,9999,9999,9999,1008744564
88,6,9,Ticks_ISO_T2_8,94,9999,9999,9999,1009544296
88,6,9,Ticks_ISO_T2_8,95,9999,9999,9999,1010345004
88,6,9,Ticks_ISO_T2_8,96,9999,9999,9999,1011144764
88,6,9,Ticks_ISO_T2_8,97,9999,9999,9999,1011944496
88,6,9,Ticks_ISO_T2_8,98,9999,9999,9999,1012744304
88,6,9,Ticks_ISO_T2_8,99,9999,9999,9999,1013545008
88,6,9,Ticks_ISO_T2_8,100,9999,9999,9999,1014344820
88,6,9,Ticks_ISO_T2_8,101,9999,9999,9999,1015144552
88,6,9,Ticks_ISO_T2_8,102,9999,9999,9999,1015944288
88,6,9,Ticks_ISO_T2_8,103,9999,9999,9999,1016745068
88,6,9,Ticks_ISO_T2_8,104,9999,9999,9999,1017544752
88,6,9,Ticks_ISO_T2_8,105,9999,9999,9999,1018344560
88,6,9,Ticks_ISO_T2_8,106,9999,9999,9999,1019144292
88,6,9,Ticks_ISO_T2_8,107,9999,9999,9999,1019945072
88,6,9,Ticks_ISO_T2_8,108,9999,9999,9999,1020744808
88,6,9,Ticks_ISO_T2_8,109,9999,9999,9999,1021544540
88,6,9,Ticks_ISO_T2_8,110,9999,9999,9999,1022344272
88,6,9,Ticks_ISO_T2_8,111,9999,9999,9999,1023145052
88,6,9,Ticks_ISO_T2_8,112,9999,9999,9999,1023944812
88,6,9,Ticks_ISO_T2_8,113,9999,9999,9999,1024744544
88,6,9,Ticks_ISO_T2_8,114,9999,9999,9999,1025544276
88,6,9,Ticks_ISO_T2_8,115,9999,9999,9999,1026345056
88,6,9,Ticks_ISO_T2_8,116,9999,9999,9999,1027144788
88,6,9,Ticks_ISO_T2_8,117,9999,9999,9999,1027944524
88,6,9,Ticks_ISO_T2_8,118,9999,9999,9999,1028744256
88,6,9,Ticks_ISO_T2_8,119,9999,9999,9999,1029545036
88,7,23,Ticks_Phase_5,0,5,42,127,1041427880
88,7,23,Ticks_Phase_5,1,5,42,127,1041927736
88,7,23,Ticks_Phase_5,2,5,42,127,1042428196
88,7,23,Ticks_Phase_5,3,5,42,127,1042927980
88,7,23,Ticks_Phase_5,4,5,42,127,1043427692
88,7,23,Ticks_Phase_5,5,1,48,107,1043465172
88,7,23,Ticks_Phase_5,6,5,42,127,1043928576
88,7,23,Ticks_Phase_5,7,1,48,99,1043951312
88,7,23,Ticks_Phase_5,8,5,42,127,1044438524
88,7,23,Ticks_Phase_5,9,1,48,101,1044446964
88,7,23,Ticks_Phase_5,10,5,42,127,1044938136
88,7,23,Ticks_Phase_5,11,1,48,94,1044948300
88,7,23,Ticks_Phase_5,12,5,42,127,1045437752
88,7,23,Ticks_Phase_5,13,1,48,112,1045460564
88,7,23,Ticks_Phase_5,14,5,42,127,1045937664
88,7,23,Ticks_Phase_5,15,1,48,102,1045952760
88,7,23,Ticks_Phase_5,16,5,42,127,1046438224
88,7,23,Ticks_Phase_5,17,1,48,93,1046454988
88,7,23,Ticks_Phase_5,18,5,42,127,1046937912
88,7,23,Ticks_Phase_5,19,1,48,96,1046948820
88,7,23,Ticks_Phase_5,20,1,48,97,1047433136
88,7,23,Ticks_Phase_5,21,5,42,127,1047437744
88,7,23,Ticks_Phase_5,22,5,42,127,1047938556
88,7,23,Ticks_Phase_5,23,1,48,88,1047939524
88,7,23,Ticks_Phase_5,24,1,48,98,1048445172
88,7,23,Ticks_Phase_5,25,5,42,127,1048448428
88,7,23,Ticks_Phase_5,26,1,48,97,1048947292
88,7,23,Ticks_Phase_5,27,5,42,127,1048948940
88,7,23,Ticks_Phase_5,28,5,42,127,1049447808
88,7,23,Ticks_Phase_5,29,1,48,105,1049453696
88,7,23,Ticks_Phase_5,30,1,48,94,1049938920
88,7,23,Ticks_Phase_5,31,5,42,127,1049947640
88,7,23,Ticks_Phase_5,32,1,48,93,1050439508
88,7,23,Ticks_Phase_5,33,5,42,127,1050448376
88,7,23,Ticks_Phase_5,34,5,42,127,1050947920
88,7,23,Ticks_Phase_5,35,1,48,94,1050961448
88,7,23,Ticks_Phase_5,36,5,42,127,1051447684
88,7,23,Ticks_Phase_5,37,1,48,100,1051460536
88,7,23,Ticks_Phase_5,38,1,48,97,1051922916
88,7,23,Ticks_Phase_5,39,5,42,127,1051948560
88,7,23,Ticks_Phase_5,40,1,48,101,1052434356
88,7,23,Ticks_Phase_5,41,5,42,127,1052448100
88,7,23,Ticks_Phase_5,42,1,48,100,1052939896
88,7,23,Ticks_Phase_5,43,5,42,127,1052947864
88,7,23,Ticks_Phase_5,44,1,48,95,1053439212
88,7,23,Ticks_Phase_5,45,5,42,127,1053447700
88,7,23,Ticks_Phase_5,46,1,48,99,1053942936
88,7,23,Ticks_Phase_5,47,5,42,127,1053948436
88,7,23,Ticks_Phase_5,48,1,48,94,1054436792
88,7,23,Ticks_Phase_5,49,5,42,127,1054448124
88,7,23,Ticks_Phase_5,50,1,48,81,1054939092
88,7,23,Ticks_Phase_5,51,5,42,127,1054947812
88,7,23,Ticks_Phase_5,52,5,42,127,1055448552
88,7,23,Ticks_Phase_5,53,1,48,109,1055451596
88,7,23,Ticks_Phase_5,54,1,48,91,1055951572
88,7,23,Ticks_Phase_5,55,5,42,127,1055958348
88,7,23,Ticks_Phase_5,56,5,42,127,1056447856
88,7,23,Ticks_Phase_5,57,1,48,102,1056470148
88,7,23,Ticks_Phase_5,58,5,42,127,1056947692
88,7,23,Ticks_Phase_5,59,1,48,95,1056956660
88,7,23,Ticks_Phase_5,60,5,42,127,1057448476
88,7,23,Ticks_Phase_5,61,1,48,102,1057461804
88,7,23,Ticks_Phase_5,62,5,42,127,1057947940
88,7,23,Ticks_Phase_5,63,1,48,84,1057957428
88,7,23,Ticks_Phase_5,64,5,42,127,1058447704
88,7,23,Ticks_Phase_5,65,1,48,106,1058461908
88,7,23,Ticks_Phase_5,66,5,42,127,1058947468
88,7,23,Ticks_Phase_5,67,1,48,113,1058948508
88,7,23,Ticks_Phase_5,68,1,48,110,1059445608
88,7,23,Ticks_Phase_5,69,5,42,127,1059448272
88,7,23,Ticks_Phase_5,70,1,48,108,1059944480
88,7,23,Ticks_Phase_5,71,5,42,127,1059948108
88,7,23,Ticks_Phase_5,72,1,48,98,1060434280
88,7,23,Ticks_Phase_5,73,5,42,127,1060447572
88,7,23,Ticks_Phase_5,74,5,42,127,1060948316
88,7,23,Ticks_Phase_5,75,1,48,84,1060949356
88,7,23,Ticks_Phase_5,76,1,48,102,1061446412
88,7,23,Ticks_Phase_5,77,5,42,127,1061448220
88,7,23,Ticks_Phase_5,78,1,48,100,1061925408
88,7,23,Ticks_Phase_5,79,5,42,127,1061947688
88,7,23,Ticks_Phase_5,80,1,48,95,1062421808
88,7,23,Ticks_Phase_5,81,5,42,127,1062447452
88,7,23,Ticks_Phase_5,82,1,48,98,1062933696
88,7,23,Ticks_Phase_5,83,5,42,127,1062948408
88,7,23,Ticks_Phase_5,84,1,48,116,1063420880
88,7,23,Ticks_Phase_5,85,5,42,127,1063447872
88,7,23,Ticks_Phase_5,86,1,48,92,1063903344
88,7,23,Ticks_Phase_5,87,5,42,127,1063947560
88,7,23,Ticks_Phase_5,88,1,48,95,1064419132
88,7,23,Ticks_Phase_5,89,5,42,127,1064448368
88,7,23,Ticks_Phase_5,90,1,48,99,1064922784
88,7,23,Ticks_Phase_5,91,5,42,127,1064948132
88,7,23,Ticks_Phase_5,92,1,48,100,1065405320
88,7,23,Ticks_Phase_5,93,5,42,127,1065458156
88,7,23,Ticks_Phase_5,94,1,48,91,1065905992
88,7,23,Ticks_Phase_5,95,5,42,127,1065957768
88,7,23,Ticks_Phase_5,96,1,48,93,1066422152
88,7,23,Ticks_Phase_5,97,5,42,127,1066457384
88,7,23,Ticks_Phase_5,98,1,48,109,1066945124
88,7,23,Ticks_Phase_5,99,5,42,127,1066958268
88,7,23,Ticks_Phase_5,100,5,42,127,1067457888
88,7,23,Ticks_Phase_5,101,1,48,109,1067458856
88,7,23,Ticks_Phase_5,102,5,42,127,1067957652
88,7,23,Ticks_Phase_5,103,1,48,88,1067958692
88,7,23,Ticks_Phase_5,104,5,42,127,1068458288
88,7,23,Ticks_Phase_5,105,1,48,70,1068478356
88,7,23,Ticks_Phase_5,106,5,42,127,1068958196
88,7,23,Ticks_Phase_5,107,1,48,121,1068971428
88,7,23,Ticks_Phase_5,108,1,48,94,1069441744
88,7,23,Ticks_Phase_5,109,5,42,127,1069457656
88,7,23,Ticks_Phase_5,110,1,48,109,1069937616
88,7,23,Ticks_Phase_5,111,5,42,127,1069957416
88,7,23,Ticks_Phase_5,112,1,48,97,1070445160
88,7,23,Ticks_Phase_5,113,5,42,127,1070458156
88,7,23,Ticks_Phase_5,114,1,48,100,1070946956
88,7,23,Ticks_Phase_5,115,5,42,127,1070958064
88,7,23,Ticks_Phase_5,116,1,48,120,1071446200
88,7,23,Ticks_Phase_5,117,5,42,127,1071457680
88,7,23,Ticks_Phase_5,118,1,48,102,1071943324
88,7,23,Ticks_Phase_5,119,5,42,127,1071958416
88,7,23,Ticks_Phase_5,120,1,48,97,1072436960
88,7,23,Ticks_Phase_5,121,5,42,127,1072458104
88,7,23,Ticks_Phase_5,122,1,48,110,1072921964
88,7,23,Ticks_Phase_5,123,5,42,127,1072958164
88,7,23,Ticks_Phase_5,124,1,48,112,1073416420
88,7,23,Ticks_Phase_5,125,5,42,127,1073478072
88,7,23,Ticks_Phase_5,126,1,48,107,1073930924
88,7,23,Ticks_Phase_5,127,5,42,127,1073977688
88,7,23,Ticks_Phase_5,128,1,48,105,1074464456
88,7,23,Ticks_Phase_5,129,5,42,127,1074477376
88,7,23,Ticks_Phase_5,130,1,48,99,1074976748
88,7,23,Ticks_Phase_5,131,5,42,127,1074978484
88,7,23,Ticks_Phase_5,132,5,42,127,1075477956
88,7,23,Ticks_Phase_5,133,1,48,106,1075500172
88,7,23,Ticks_Phase_5,134,5,42,127,1075977568
88,7,23,Ticks_Phase_5,135,1,48,112,1075992968
88,7,23,Ticks_Phase_5,136,5,42,127,1076478304
88,7,23,Ticks_Phase_5,137,1,48,112,1076485548
88,7,23,Ticks_Phase_5,138,1,48,96,1076973456
88,7,23,Ticks_Phase_5,139,5,42,127,1076978136
88,7,23,Ticks_Phase_5,140,5,42,127,1077477604
88,7,23,Ticks_Phase_5,141,1,48,101,1077506116
88,7,23,Ticks_Phase_5,142,5,42,127,1077977368
88,7,23,Ticks_Phase_5,143,1,48,105,1077993884
88,7,23,Ticks_Phase_5,144,5,42,127,1078478328
88,7,23,Ticks_Phase_5,145,1,48,88,1078481072
88,7,23,Ticks_Phase_5,146,1,48,106,1078964420
88,7,23,Ticks_Phase_5,147,5,42,127,1078978008
88,7,23,Ticks_Phase_5,148,1,48,111,1079456152
88,7,23,Ticks_Phase_5,149,5,42,127,1079477548
88,7,23,Ticks_Phase_5,150,1,48,101,1079951496
88,7,23,Ticks_Phase_5,151,5,42,127,1079978332
88,7,23,Ticks_Phase_5,152,1,48,110,1080469128
88,7,23,Ticks_Phase_5,153,5,42,127,1080478072
88,7,23,Ticks_Phase_5,154,1,48,92,1080964468
88,7,23,Ticks_Phase_5,155,5,42,127,1080977984
88,7,23,Ticks_Phase_5,156,1,48,101,1081447544
88,7,23,Ticks_Phase_5,157,5,42,127,1081477600
88,7,23,Ticks_Phase_5,158,1,48,106,1081923556
88,7,23,Ticks_Phase_5,159,5,42,127,1081957964
88,7,23,Ticks_Phase_5,160,1,48,110,1082423548
88,7,23,Ticks_Phase_5,161,5,42,127,1082457356
88,7,23,Ticks_Phase_5,162,1,48,95,1082907068
88,7,23,Ticks_Phase_5,163,5,42,127,1082958316
88,7,23,Ticks_Phase_5,164,1,48,102,1083391100
88,7,23,Ticks_Phase_5,165,5,42,127,1083458228
88,7,23,Ticks_Phase_5,166,1,48,107,1083907420
88,7,23,Ticks_Phase_5,167,5,42,127,1083957472
88,7,23,Ticks_Phase_5,168,1,48,119,1084409796
88,7,23,Ticks_Phase_5,169,5,42,127,1084458280
88,7,23,Ticks_Phase_5,170,1,48,99,1084900948
88,7,23,Ticks_Phase_5,171,5,42,127,1084958192
88,7,23,Ticks_Phase_5,172,1,48,91,1085413360
88,7,23,Ticks_Phase_5,173,5,42,127,1085458104
88,7,23,Ticks_Phase_5,174,1,48,113,1085907816
88,7,23,Ticks_Phase_5,175,5,42,127,1085957348
88,7,23,Ticks_Phase_5,176,1,48,78,1086412364
88,7,23,Ticks_Phase_5,177,5,42,127,1086458156
88,7,23,Ticks_Phase_5,178,1,48,102,1086908016
88,7,23,Ticks_Phase_5,179,5,42,127,1086958064
88,7,23,Ticks_Phase_5,180,1,48,96,1087405980
88,7,23,Ticks_Phase_5,181,5,42,127,1087457828
88,7,23,Ticks_Phase_5,182,1,48,108,1087903016
88,7,23,Ticks_Phase_5,183,5,42,127,1087958340
88,7,23,Ticks_Phase_5,184,1,48,103,1088405392
88,7,23,Ticks_Phase_5,185,5,42,127,1088458104
88,7,23,Ticks_Phase_5,186,1,48,99,1088918648
88,7,23,Ticks_Phase_5,187,5,42,127,1088957940
88,7,23,Ticks_Phase_5,188,1,48,96,1089415564
88,7,23,Ticks_Phase_5,189,5,42,127,1089457552
88,7,23,Ticks_Phase_5,190,1,48,37,1089471212
88,7,23,Ticks_Phase_5,191,5,42,127,1089908076
88,7,23,Ticks_Phase_5,192,1,48,103,1089929692
88,7,23,Ticks_Phase_5,193,5,42,127,1090407912
88,7,23,Ticks_Phase_5,194,1,48,112,1090426832
88,7,23,Ticks_Phase_5,195,5,42,127,1090907452
88,7,23,Ticks_Phase_5,196,1,48,104,1090913184
88,7,23,Ticks_Phase_5,197,5,42,127,1091408112
88,7,23,Ticks_Phase_5,198,1,48,98,1091417452
88,7,23,Ticks_Phase_5,199,1,48,98,1091893900
88,7,23,Ticks_Phase_5,200,5,42,127,1091908092
88,7,23,Ticks_Phase_5,201,1,48,111,1092381608
88,7,23,Ticks_Phase_5,202,5,42,127,1092407928
88,7,23,Ticks_Phase_5,203,1,48,97,1092869324
88,7,23,Ticks_Phase_5,204,5,42,127,1092908292
88,7,23,Ticks_Phase_5,205,1,48,88,1093374168
88,7,23,Ticks_Phase_5,206,5,42,127,1093408052
88,7,23,Ticks_Phase_5,207,1,48,99,1093864120
88,7,23,Ticks_Phase_5,208,5,42,127,1093908040
88,7,23,Ticks_Phase_5,209,1,48,98,1094371676
88,7,23,Ticks_Phase_5,210,5,42,127,1094407804
88,7,23,Ticks_Phase_5,211,1,48,95,1094888816
88,7,23,Ticks_Phase_5,212,5,42,127,1094908316
88,7,23,Ticks_Phase_5,213,1,48,102,1095372172
88,7,23,Ticks_Phase_5,214,5,42,127,1095407928
88,7,23,Ticks_Phase_5,215,1,48,93,1095875148
88,7,23,Ticks_Phase_5,216,5,42,127,1095907912
88,7,23,Ticks_Phase_5,217,1,48,97,1096375676
88,7,23,Ticks_Phase_5,218,5,42,127,1096408648
88,7,23,Ticks_Phase_5,219,1,48,88,1096877756
88,7,23,Ticks_Phase_5,220,5,42,127,1096918376
88,7,23,Ticks_Phase_5,221,1,48,79,1097389204
88,7,23,Ticks_Phase_5,222,5,42,127,1097418060
88,7,23,Ticks_Phase_5,223,1,48,103,1097898080
88,7,23,Ticks_Phase_5,224,5,42,127,1097917900
88,7,23,Ticks_Phase_5,225,1,48,94,1098409744
88,7,23,Ticks_Phase_5,226,5,42,127,1098467692
88,7,23,Ticks_Phase_5,227,1,48,113,1098955132
88,7,23,Ticks_Phase_5,228,5,42,127,1098968648
88,7,23,Ticks_Phase_5,229,1,48,32,1099044092
88,7,23,Ticks_Phase_5,230,5,42,127,1099478356
88,7,23,Ticks_Phase_5,231,1,48,111,1099486724
88,7,23,Ticks_Phase_5,232,5,42,127,1099978120
88,7,23,Ticks_Phase_5,233,1,48,98,1100006708
88,7,23,Ticks_Phase_5,234,5,42,127,1100477808
88,7,23,Ticks_Phase_5,235,1,48,95,1100483092
88,7,23,Ticks_Phase_5,236,1,48,119,1100957744
88,7,23,Ticks_Phase_5,237,5,42,127,1100977788
88,7,23,Ticks_Phase_5,238,1,48,112,1101457580
88,7,23,Ticks_Phase_5,239,5,42,127,1101478272
88,7,23,Ticks_Phase_5,240,1,48,109,1101964596
88,7,23,Ticks_Phase_5,241,5,42,127,1101977964
88,7,23,Ticks_Phase_5,242,1,48,116,1102460692
88,7,23,Ticks_Phase_5,243,5,42,127,1102477652
88,7,23,Ticks_Phase_5,244,1,48,94,1102969148
88,7,23,Ticks_Phase_5,245,5,42,127,1102978532
88,7,23,Ticks_Phase_5,246,1,48,84,1103477372
88,7,23,Ticks_Phase_5,247,5,42,127,1103488480
88,7,23,Ticks_Phase_5,248,1,48,88,1103974204
88,7,23,Ticks_Phase_5,249,5,42,127,1103988020
88,7,23,Ticks_Phase_5,250,1,48,104,1104482956
88,7,23,Ticks_Phase_5,251,5,42,127,1104487784
88,7,23,Ticks_Phase_5,252,5,42,127,1104987776
88,7,23,Ticks_Phase_5,253,1,48,73,1104995080
88,7,23,Ticks_Phase_5,254,5,42,127,1105488212
88,7,23,Ticks_Phase_5,255,1,48,92,1105514464
88,7,23,Ticks_Phase_5,256,5,42,127,1105987904
88,7,23,Ticks_Phase_5,257,1,48,94,1106021124
88,7,23,Ticks_Phase_5,258,5,42,127,1106487740
88,7,23,Ticks_Phase_5,259,1,48,97,1106521412
88,7,23,Ticks_Phase_5,260,1,48,99,1107001016
88,7,23,Ticks_Phase_5,261,5,42,127,1107087620
88,7,23,Ticks_Phase_5,262,1,48,88,1107522420
88,7,23,Ticks_Phase_5,263,5,42,127,1107587532
88,7,23,Ticks_Phase_5,264,5,42,127,1108088272
88,7,23,Ticks_Phase_5,265,1,48,84,1108118056
88,7,23,Ticks_Phase_5,266,5,42,127,1108588036
88,7,23,Ticks_Phase_5,267,1,48,86,1108630696
88,7,23,Ticks_Phase_5,268,5,42,127,1109087576
88,7,23,Ticks_Phase_5,269,1,48,96,1109112032
88,7,23,Ticks_Phase_5,270,1,48,95,1109577492
88,7,23,Ticks_Phase_5,271,5,42,127,1109588524
88,7,23,Ticks_Phase_5,272,1,48,89,1110048048
88,7,23,Ticks_Phase_5,273,5,42,127,1110087988
88,7,23,Ticks_Phase_5,274,1,48,86,1110565324
88,7,23,Ticks_Phase_5,275,5,42,127,1110587676
88,7,23,Ticks_Phase_5,276,1,48,90,1111080444
88,7,23,Ticks_Phase_5,277,5,42,127,1111087440
88,7,23,Ticks_Phase_5,278,1,48,95,1111574736
88,7,23,Ticks_Phase_5,279,5,42,127,1111588324
88,7,23,Ticks_Phase_5,280,1,48,81,1112072104
88,7,23,Ticks_Phase_5,281,5,42,127,1112087792
88,7,23,Ticks_Phase_5,282,1,48,95,1112558020
88,7,23,Ticks_Phase_5,283,5,42,127,1112587700
88,7,23,Ticks_Phase_5,284,1,48,107,1113057256
88,7,23,Ticks_Phase_5,285,5,42,127,1113088808
88,7,23,Ticks_Phase_5,286,1,48,82,1113567360
88,7,23,Ticks_Phase_5,287,5,42,127,1113588052
88,7,23,Ticks_Phase_5,288,1,48,82,1114063216
88,7,23,Ticks_Phase_5,289,5,42,127,1114087812
88,7,23,Ticks_Phase_5,290,1,48,116,1114560284
88,7,23,Ticks_Phase_5,291,5,42,127,1114587576
88,7,23,Ticks_Phase_5,292,1,48,111,1115056388
88,7,23,Ticks_Phase_5,293,5,42,127,1115088460
88,7,23,Ticks_Phase_5,294,1,48,111,1115563776
88,7,23,Ticks_Phase_5,295,5,42,127,1115587852
88,7,23,Ticks_Phase_5,296,1,48,102,1116054004
88,7,23,Ticks_Phase_5,297,5,42,127,1116087616
88,7,23,Ticks_Phase_5,298,5,42,127,1116488132
88,7,23,Ticks_Phase_5,299,1,48,109,1116556636
88,7,23,Ticks_Phase_5,300,5,42,127,1116987672
88,7,23,Ticks_Phase_5,301,1,48,106,1117031528
88,7,23,Ticks_Phase_5,302,5,42,127,1117487432
88,7,23,Ticks_Phase_5,303,1,48,34,1117520580
88,7,23,Ticks_Phase_5,304,1,48,68,1117981912
88,7,23,Ticks_Phase_5,305,5,42,127,1117988456
88,7,23,Ticks_Phase_5,306,1,48,97,1118450972
88,7,23,Ticks_Phase_5,307,5,42,127,1118487848
88,7,23,Ticks_Phase_5,308,1,48,111,1118961440
88,7,23,Ticks_Phase_5,309,5,42,127,1118987612
88,7,23,Ticks_Phase_5,310,1,48,104,1119453640
88,7,23,Ticks_Phase_5,311,5,42,127,1119488644
88,7,23,Ticks_Phase_5,312,1,48,95,1119943660
88,7,23,Ticks_Phase_5,313,5,42,127,1119987960
88,7,23,Ticks_Phase_5,314,1,48,105,1120449576
88,7,23,Ticks_Phase_5,315,5,42,127,1120487720
88,7,23,Ticks_Phase_5,316,1,48,84,1120957424
88,7,23,Ticks_Phase_5,317,5,42,127,1120987484
88,7,23,Ticks_Phase_5,318,1,48,89,1121475764
88,7,23,Ticks_Phase_5,319,5,42,127,1121488516
88,7,23,Ticks_Phase_5,320,1,48,101,1121967512
88,7,23,Ticks_Phase_5,321,5,42,127,1121987832
88,7,23,Ticks_Phase_5,322,1,48,101,1122453836
88,7,23,Ticks_Phase_5,323,5,42,127,1122487596
88,7,23,Ticks_Phase_5,324,1,48,103,1122954792
88,7,23,Ticks_Phase_5,325,5,42,127,1122988476
88,7,23,Ticks_Phase_5,326,1,48,106,1123457560
88,7,23,Ticks_Phase_5,327,5,42,127,1123488364
88,7,23,Ticks_Phase_5,328,1,48,83,1123949908
88,7,23,Ticks_Phase_5,329,5,42,127,1123987904
88,7,23,Ticks_Phase_5,330,1,48,102,1124415360
88,7,23,Ticks_Phase_5,331,5,42,127,1124487444
88,7,23,Ticks_Phase_5,332,1,48,86,1124908020
88,7,23,Ticks_Phase_5,333,5,42,127,1124988476
88,7,23,Ticks_Phase_5,334,1,48,107,1125440732
88,7,23,Ticks_Phase_5,335,5,42,127,1125488016
88,7,23,Ticks_Phase_5,336,5,42,127,1125987560
88,7,23,Ticks_Phase_5,337,1,48,88,1125988528
88,7,23,Ticks_Phase_5,0,9999,9999,9999,1041425516
88,7,23,Ticks_Phase_5,1,9999,9999,9999,1041925224
88,7,23,Ticks_Phase_5,2,9999,9999,9999,1042425980
88,7,23,Ticks_Phase_5,3,9999,9999,9999,1042925692
88,7,23,Ticks_Phase_5,4,9999,9999,9999,1043425400
88,7,23,Ticks_Phase_5,5,9999,9999,9999,1043926136
88,7,23,Ticks_Phase_5,6,9999,9999,9999,1044436084
88,7,23,Ticks_Phase_5,7,9999,9999,9999,1044935772
88,7,23,Ticks_Phase_5,8,9999,9999,9999,1045435460
88,7,23,Ticks_Phase_5,9,9999,9999,9999,1045935224
88,7,23,Ticks_Phase_5,10,9999,9999,9999,1046435936
88,7,23,Ticks_Phase_5,11,9999,9999,9999,1046935620
88,7,23,Ticks_Phase_5,12,9999,9999,9999,1047435380
88,7,23,Ticks_Phase_5,13,9999,9999,9999,1047936120
88,7,23,Ticks_Phase_5,14,9999,9999,9999,1048446064
88,7,23,Ticks_Phase_5,15,9999,9999,9999,1048945756
88,7,23,Ticks_Phase_5,16,9999,9999,9999,1049445444
88,7,23,Ticks_Phase_5,17,9999,9999,9999,1049945200
88,7,23,Ticks_Phase_5,18,9999,9999,9999,1050445940
88,7,23,Ticks_Phase_5,19,9999,9999,9999,1050945632
88,7,23,Ticks_Phase_5,20,9999,9999,9999,1051445320
88,7,23,Ticks_Phase_5,21,9999,9999,9999,1051946048
88,7,23,Ticks_Phase_5,22,9999,9999,9999,1052445812
88,7,23,Ticks_Phase_5,23,9999,9999,9999,1052945500
88,7,23,Ticks_Phase_5,24,9999,9999,9999,1053445188
88,7,23,Ticks_Phase_5,25,9999,9999,9999,1053945924
88,7,23,Ticks_Phase_5,26,9999,9999,9999,1054445684
88,7,23,Ticks_Phase_5,27,9999,9999,9999,1054945372
88,7,23,Ticks_Phase_5,28,9999,9999,9999,1055446116
88,7,23,Ticks_Phase_5,29,9999,9999,9999,1055956056
88,7,23,Ticks_Phase_5,30,9999,9999,9999,1056445564
88,7,23,Ticks_Phase_5,31,9999,9999,9999,1056945256
88,7,23,Ticks_Phase_5,32,9999,9999,9999,1057445964
88,7,23,Ticks_Phase_5,33,9999,9999,9999,1057945728
88,7,23,Ticks_Phase_5,34,9999,9999,9999,1058445416
88,7,23,Ticks_Phase_5,35,9999,9999,9999,1058945104
88,7,23,Ticks_Phase_5,36,9999,9999,9999,1059445832
88,7,23,Ticks_Phase_5,37,9999,9999,9999,1059945596
88,7,23,Ticks_Phase_5,38,9999,9999,9999,1060445284
88,7,23,Ticks_Phase_5,39,9999,9999,9999,1060946024
88,7,23,Ticks_Phase_5,40,9999,9999,9999,1061445720
88,7,23,Ticks_Phase_5,41,9999,9999,9999,1061945400
88,7,23,Ticks_Phase_5,42,9999,9999,9999,1062445160
88,7,23,Ticks_Phase_5,43,9999,9999,9999,1062945896
88,7,23,Ticks_Phase_5,44,9999,9999,9999,1063445584
88,7,23,Ticks_Phase_5,45,9999,9999,9999,1063945272
88,7,23,Ticks_Phase_5,46,9999,9999,9999,1064446004
88,7,23,Ticks_Phase_5,47,9999,9999,9999,1064945768
88,7,23,Ticks_Phase_5,48,9999,9999,9999,1065455716
88,7,23,Ticks_Phase_5,49,9999,9999,9999,1065955404
88,7,23,Ticks_Phase_5,50,9999,9999,9999,1066455096
88,7,23,Ticks_Phase_5,51,9999,9999,9999,1066955832
88,7,23,Ticks_Phase_5,52,9999,9999,9999,1067455600
88,7,23,Ticks_Phase_5,53,9999,9999,9999,1067955288
88,7,23,Ticks_Phase_5,54,9999,9999,9999,1068455996
88,7,23,Ticks_Phase_5,55,9999,9999,9999,1068955760
88,7,23,Ticks_Phase_5,56,9999,9999,9999,1069455440
88,7,23,Ticks_Phase_5,57,9999,9999,9999,1069955128
88,7,23,Ticks_Phase_5,58,9999,9999,9999,1070455864
88,7,23,Ticks_Phase_5,59,9999,9999,9999,1070955628
88,7,23,Ticks_Phase_5,60,9999,9999,9999,1071455316
88,7,23,Ticks_Phase_5,61,9999,9999,9999,1071956052
88,7,23,Ticks_Phase_5,62,9999,9999,9999,1072455740
88,7,23,Ticks_Phase_5,63,9999,9999,9999,1072955504
88,7,23,Ticks_Phase_5,64,9999,9999,9999,1073475708
88,7,23,Ticks_Phase_5,65,9999,9999,9999,1073975400
88,7,23,Ticks_Phase_5,66,9999,9999,9999,1074475088
88,7,23,Ticks_Phase_5,67,9999,9999,9999,1074975828
88,7,23,Ticks_Phase_5,68,9999,9999,9999,1075475516
88,7,23,Ticks_Phase_5,69,9999,9999,9999,1075975280
88,7,23,Ticks_Phase_5,70,9999,9999,9999,1076476016
88,7,23,Ticks_Phase_5,71,9999,9999,9999,1076975696
88,7,23,Ticks_Phase_5,72,9999,9999,9999,1077475392
88,7,23,Ticks_Phase_5,73,9999,9999,9999,1077975152
88,7,23,Ticks_Phase_5,74,9999,9999,9999,1078475888
88,7,23,Ticks_Phase_5,75,9999,9999,9999,1078975572
88,7,23,Ticks_Phase_5,76,9999,9999,9999,1079475260
88,7,23,Ticks_Phase_5,77,9999,9999,9999,1079976044
88,7,23,Ticks_Phase_5,78,9999,9999,9999,1080475708
88,7,23,Ticks_Phase_5,79,9999,9999,9999,1080975468
88,7,23,Ticks_Phase_5,80,9999,9999,9999,1081475160
88,7,23,Ticks_Phase_5,81,9999,9999,9999,1081955452
88,7,23,Ticks_Phase_5,82,9999,9999,9999,1082455144
88,7,23,Ticks_Phase_5,83,9999,9999,9999,1082955876
88,7,23,Ticks_Phase_5,84,9999,9999,9999,1083455568
88,7,23,Ticks_Phase_5,85,9999,9999,9999,1083955256
88,7,23,Ticks_Phase_5,86,9999,9999,9999,1084455992
88,7,23,Ticks_Phase_5,87,9999,9999,9999,1084955756
88,7,23,Ticks_Phase_5,88,9999,9999,9999,1085455444
88,7,23,Ticks_Phase_5,89,9999,9999,9999,1085955132
88,7,23,Ticks_Phase_5,90,9999,9999,9999,1086455868
88,7,23,Ticks_Phase_5,91,9999,9999,9999,1086955628
88,7,23,Ticks_Phase_5,92,9999,9999,9999,1087455316
88,7,23,Ticks_Phase_5,93,9999,9999,9999,1087956052
88,7,23,Ticks_Phase_5,94,9999,9999,9999,1088455740
88,7,23,Ticks_Phase_5,95,9999,9999,9999,1088955500
88,7,23,Ticks_Phase_5,96,9999,9999,9999,1089455188
88,7,23,Ticks_Phase_5,97,9999,9999,9999,1089905788
88,7,23,Ticks_Phase_5,98,9999,9999,9999,1090405476
88,7,23,Ticks_Phase_5,99,9999,9999,9999,1090905164
88,7,23,Ticks_Phase_5,100,9999,9999,9999,1091405896
88,7,23,Ticks_Phase_5,101,9999,9999,9999,1091905652
88,7,23,Ticks_Phase_5,102,9999,9999,9999,1092405340
88,7,23,Ticks_Phase_5,103,9999,9999,9999,1092906076
88,7,23,Ticks_Phase_5,104,9999,9999,9999,1093405764
88,7,23,Ticks_Phase_5,105,9999,9999,9999,1093905528
88,7,23,Ticks_Phase_5,106,9999,9999,9999,1094405216
88,7,23,Ticks_Phase_5,107,9999,9999,9999,1094905952
88,7,23,Ticks_Phase_5,108,9999,9999,9999,1095405640
88,7,23,Ticks_Phase_5,109,9999,9999,9999,1095905400
88,7,23,Ticks_Phase_5,110,9999,9999,9999,1096406140
88,7,23,Ticks_Phase_5,111,9999,9999,9999,1096916084
88,7,23,Ticks_Phase_5,112,9999,9999,9999,1097415772
88,7,23,Ticks_Phase_5,113,9999,9999,9999,1097915464
88,7,23,Ticks_Phase_5,114,9999,9999,9999,1098465400
88,7,23,Ticks_Phase_5,115,9999,9999,9999,1098966140
88,7,23,Ticks_Phase_5,116,9999,9999,9999,1099476068
88,7,23,Ticks_Phase_5,117,9999,9999,9999,1099975756
88,7,23,Ticks_Phase_5,118,9999,9999,9999,1100475516
88,7,23,Ticks_Phase_5,119,9999,9999,9999,1100975200
88,7,23,Ticks_Phase_5,120,9999,9999,9999,1101475908
88,7,23,Ticks_Phase_5,121,9999,9999,9999,1101975672
88,7,23,Ticks_Phase_5,122,9999,9999,9999,1102475360
88,7,23,Ticks_Phase_5,123,9999,9999,9999,1102976100
88,7,23,Ticks_Phase_5,124,9999,9999,9999,1103486044
88,7,23,Ticks_Phase_5,125,9999,9999,9999,1103985732
88,7,23,Ticks_Phase_5,126,9999,9999,9999,1104485496
88,7,23,Ticks_Phase_5,127,9999,9999,9999,1104985192
88,7,23,Ticks_Phase_5,128,9999,9999,9999,1105485924
88,7,23,Ticks_Phase_5,129,9999,9999,9999,1105985612
88,7,23,Ticks_Phase_5,130,9999,9999,9999,1106485300
88,7,23,Ticks_Phase_5,131,9999,9999,9999,1107085404
88,7,23,Ticks_Phase_5,132,9999,9999,9999,1107585096
88,7,23,Ticks_Phase_5,133,9999,9999,9999,1108085836
88,7,23,Ticks_Phase_5,134,9999,9999,9999,1108585596
88,7,23,Ticks_Phase_5,135,9999,9999,9999,1109085284
88,7,23,Ticks_Phase_5,136,9999,9999,9999,1109586012
88,7,23,Ticks_Phase_5,137,9999,9999,9999,1110085700
88,7,23,Ticks_Phase_5,138,9999,9999,9999,1110585464
88,7,23,Ticks_Phase_5,139,9999,9999,9999,1111085152
88,7,23,Ticks_Phase_5,140,9999,9999,9999,1111585888
88,7,23,Ticks_Phase_5,141,9999,9999,9999,1112085576
88,7,23,Ticks_Phase_5,142,9999,9999,9999,1112585336
88,7,23,Ticks_Phase_5,143,9999,9999,9999,1113086072
88,7,23,Ticks_Phase_5,144,9999,9999,9999,1113585764
88,7,23,Ticks_Phase_5,145,9999,9999,9999,1114085452
88,7,23,Ticks_Phase_5,146,9999,9999,9999,1114585212
88,7,23,Ticks_Phase_5,147,9999,9999,9999,1115085948
88,7,23,Ticks_Phase_5,148,9999,9999,9999,1115585636
88,7,23,Ticks_Phase_5,149,9999,9999,9999,1116085324
88,7,23,Ticks_Phase_5,150,9999,9999,9999,1116485692
88,7,23,Ticks_Phase_5,151,9999,9999,9999,1116985456
88,7,23,Ticks_Phase_5,152,9999,9999,9999,1117485144
88,7,23,Ticks_Phase_5,153,9999,9999,9999,1117985872
88,7,23,Ticks_Phase_5,154,9999,9999,9999,1118485560
88,7,23,Ticks_Phase_5,155,9999,9999,9999,1118985320
88,7,23,Ticks_Phase_5,156,9999,9999,9999,1119486056
88,7,23,Ticks_Phase_5,157,9999,9999,9999,1119985744
88,7,23,Ticks_Phase_5,158,9999,9999,9999,1120485432
88,7,23,Ticks_Phase_5,159,9999,9999,9999,1120985196
88,7,23,Ticks_Phase_5,160,9999,9999,9999,1121485928
88,7,23,Ticks_Phase_5,161,9999,9999,9999,1121985620
88,7,23,Ticks_Phase_5,162,9999,9999,9999,1122485308
88,7,23,Ticks_Phase_5,163,9999,9999,9999,1122986040
88,7,23,Ticks_Phase_5,164,9999,9999,9999,1123485780
88,7,23,Ticks_Phase_5,165,9999,9999,9999,1123985468
88,7,23,Ticks_Phase_5,166,9999,9999,9999,1124485228
88,7,23,Ticks_Phase_5,167,9999,9999,9999,1124985964
88,7,23,Ticks_Phase_5,168,9999,9999,9999,1125485652
88,7,23,Ticks_Phase_5,169,9999,9999,9999,1125985348
88,8,22,Ticks_Phase_8,0,5,42,127,1137666280
88,8,22,Ticks_Phase_8,1,5,42,127,1138467136
88,8,22,Ticks_Phase_8,2,5,42,127,1139266944
88,8,22,Ticks_Phase_8,3,5,42,127,1140066604
88,8,22,Ticks_Phase_8,4,5,42,127,1140866484
88,8,22,Ticks_Phase_8,5,1,48,101,1140872968
88,8,22,Ticks_Phase_8,6,1,48,99,1141656572
88,8,22,Ticks_Phase_8,7,5,42,127,1141667240
88,8,22,Ticks_Phase_8,8,5,42,127,1142467056
88,8,22,Ticks_Phase_8,9,1,48,90,1142488152
88,8,22,Ticks_Phase_8,10,5,42,127,1143266844
88,8,22,Ticks_Phase_8,11,1,48,93,1143285244
88,8,22,Ticks_Phase_8,12,5,42,127,1144066480
88,8,22,Ticks_Phase_8,13,1,48,81,1144096260
88,8,22,Ticks_Phase_8,14,1,48,82,1144857392
88,8,22,Ticks_Phase_8,15,5,42,127,1144867160
88,8,22,Ticks_Phase_8,16,1,48,91,1145634628
88,8,22,Ticks_Phase_8,17,5,42,127,1145666944
88,8,22,Ticks_Phase_8,18,1,48,84,1146421540
88,8,22,Ticks_Phase_8,19,5,42,127,1146466584
88,8,22,Ticks_Phase_8,20,1,48,84,1147254348
88,8,22,Ticks_Phase_8,21,5,42,127,1147266444
88,8,22,Ticks_Phase_8,22,1,48,84,1148052936
88,8,22,Ticks_Phase_8,23,5,42,127,1148067128
88,8,22,Ticks_Phase_8,24,1,48,87,1148831456
88,8,22,Ticks_Phase_8,25,5,42,127,1148867160
88,8,22,Ticks_Phase_8,26,1,48,92,1149631192
88,8,22,Ticks_Phase_8,27,5,42,127,1149666872
88,8,22,Ticks_Phase_8,28,1,48,92,1150444452
88,8,22,Ticks_Phase_8,29,5,42,127,1150466512
88,8,22,Ticks_Phase_8,30,1,48,101,1151256688
88,8,22,Ticks_Phase_8,31,5,42,127,1151267196
88,8,22,Ticks_Phase_8,32,5,42,127,1152067060
88,8,22,Ticks_Phase_8,33,1,48,94,1152078420
88,8,22,Ticks_Phase_8,34,5,42,127,1152866848
88,8,22,Ticks_Phase_8,35,1,48,101,1152870416
88,8,22,Ticks_Phase_8,36,1,48,99,1153656864
88,8,22,Ticks_Phase_8,37,5,42,127,1153666328
88,8,22,Ticks_Phase_8,38,1,48,95,1154437704
88,8,22,Ticks_Phase_8,39,5,42,127,1154467160
88,8,22,Ticks_Phase_8,40,1,48,89,1155206712
88,8,22,Ticks_Phase_8,41,5,42,127,1155267048
88,8,22,Ticks_Phase_8,42,1,48,92,1155996760
88,8,22,Ticks_Phase_8,43,5,42,127,1156066904
88,8,22,Ticks_Phase_8,44,1,48,85,1156832584
88,8,22,Ticks_Phase_8,45,5,42,127,1156866396
88,8,22,Ticks_Phase_8,46,1,48,104,1157623084
88,8,22,Ticks_Phase_8,47,5,42,127,1157667300
88,8,22,Ticks_Phase_8,48,1,48,87,1158449164
88,8,22,Ticks_Phase_8,49,5,42,127,1158466864
88,8,22,Ticks_Phase_8,50,1,48,105,1159238988
88,8,22,Ticks_Phase_8,51,5,42,127,1159266948
88,8,22,Ticks_Phase_8,52,1,48,94,1160041164
88,8,22,Ticks_Phase_8,53,5,42,127,1160066440
88,8,22,Ticks_Phase_8,54,1,48,108,1160812868
88,8,22,Ticks_Phase_8,55,5,42,127,1160867124
88,8,22,Ticks_Phase_8,56,1,48,99,1161602768
88,8,22,Ticks_Phase_8,57,5,42,127,1161646344
88,8,22,Ticks_Phase_8,58,1,48,112,1162419060
88,8,22,Ticks_Phase_8,59,5,42,127,1162447176
88,8,22,Ticks_Phase_8,60,1,48,104,1163226936
88,8,22,Ticks_Phase_8,61,5,42,127,1163246888
88,8,22,Ticks_Phase_8,62,1,48,84,1164036908
88,8,22,Ticks_Phase_8,63,5,42,127,1164046672
88,8,22,Ticks_Phase_8,64,1,48,106,1164843800
88,8,22,Ticks_Phase_8,65,5,42,127,1164846608
88,8,22,Ticks_Phase_8,66,1,48,92,1165642768
88,8,22,Ticks_Phase_8,67,5,42,127,1165647144
88,8,22,Ticks_Phase_8,68,1,48,92,1166418888
88,8,22,Ticks_Phase_8,69,5,42,127,1166446856
88,8,22,Ticks_Phase_8,70,1,48,96,1167205348
88,8,22,Ticks_Phase_8,71,5,42,127,1167246640
88,8,22,Ticks_Phase_8,72,1,48,15,1167344416
88,8,22,Ticks_Phase_8,73,1,48,76,1167990204
88,8,22,Ticks_Phase_8,74,5,42,127,1168046576
88,8,22,Ticks_Phase_8,75,1,48,91,1168840716
88,8,22,Ticks_Phase_8,76,5,42,127,1168847260
88,8,22,Ticks_Phase_8,77,1,48,19,1168955588
88,8,22,Ticks_Phase_8,78,1,48,85,1169612764
88,8,22,Ticks_Phase_8,79,5,42,127,1169647100
88,8,22,Ticks_Phase_8,80,1,48,101,1170358344
88,8,22,Ticks_Phase_8,81,5,42,127,1170446736
88,8,22,Ticks_Phase_8,82,1,48,113,1171145176
88,8,22,Ticks_Phase_8,83,5,42,127,1171246584
88,8,22,Ticks_Phase_8,84,1,48,108,1171944420
88,8,22,Ticks_Phase_8,85,5,42,127,1172047264
88,8,22,Ticks_Phase_8,86,1,48,73,1172808100
88,8,22,Ticks_Phase_8,87,5,42,127,1172846920
88,8,22,Ticks_Phase_8,88,1,48,105,1173612968
88,8,22,Ticks_Phase_8,89,5,42,127,1173646704
88,8,22,Ticks_Phase_8,90,1,48,95,1174381828
88,8,22,Ticks_Phase_8,91,5,42,127,1174446516
88,8,22,Ticks_Phase_8,92,1,48,94,1175195776
88,8,22,Ticks_Phase_8,93,5,42,127,1175247276
88,8,22,Ticks_Phase_8,94,1,48,101,1175977612
88,8,22,Ticks_Phase_8,95,5,42,127,1176066460
88,8,22,Ticks_Phase_8,96,1,48,86,1176761144
88,8,22,Ticks_Phase_8,97,5,42,127,1176867280
88,8,22,Ticks_Phase_8,98,1,48,95,1177592084
88,8,22,Ticks_Phase_8,99,5,42,127,1177666856
88,8,22,Ticks_Phase_8,100,1,48,95,1178379068
88,8,22,Ticks_Phase_8,101,5,42,127,1178466720
88,8,22,Ticks_Phase_8,102,1,48,92,1179201772
88,8,22,Ticks_Phase_8,103,5,42,127,1179266584
88,8,22,Ticks_Phase_8,104,1,48,73,1180032780
88,8,22,Ticks_Phase_8,105,5,42,127,1180067116
88,8,22,Ticks_Phase_8,106,1,48,82,1180806816
88,8,22,Ticks_Phase_8,107,5,42,127,1180866928
88,8,22,Ticks_Phase_8,108,1,48,95,1181636884
88,8,22,Ticks_Phase_8,109,5,42,127,1181666640
88,8,22,Ticks_Phase_8,110,1,48,85,1182450292
88,8,22,Ticks_Phase_8,111,5,42,127,1182466428
88,8,22,Ticks_Phase_8,112,1,48,81,1183260716
88,8,22,Ticks_Phase_8,113,5,42,127,1183267184
88,8,22,Ticks_Phase_8,114,1,48,89,1184053380
88,8,22,Ticks_Phase_8,115,5,42,127,1184066896
88,8,22,Ticks_Phase_8,116,1,48,74,1184803292
88,8,22,Ticks_Phase_8,117,5,42,127,1184866684
88,8,22,Ticks_Phase_8,118,1,48,89,1185581216
88,8,22,Ticks_Phase_8,119,5,42,127,1185666320
88,8,22,Ticks_Phase_8,120,1,48,75,1186387816
88,8,22,Ticks_Phase_8,121,5,42,127,1186467376
88,8,22,Ticks_Phase_8,122,1,48,74,1187171272
88,8,22,Ticks_Phase_8,123,5,42,127,1187266952
88,8,22,Ticks_Phase_8,124,1,48,72,1188022980
88,8,22,Ticks_Phase_8,125,5,42,127,1188066604
88,8,22,Ticks_Phase_8,126,1,48,80,1188819256
88,8,22,Ticks_Phase_8,127,5,42,127,1188907500
88,8,22,Ticks_Phase_8,128,5,42,127,1189707368
88,8,22,Ticks_Phase_8,129,1,48,82,1189753248
88,8,22,Ticks_Phase_8,130,5,42,127,1190506932
88,8,22,Ticks_Phase_8,131,1,48,82,1190563588
88,8,22,Ticks_Phase_8,132,5,42,127,1191306496
88,8,22,Ticks_Phase_8,133,1,48,97,1191373136
88,8,22,Ticks_Phase_8,134,1,48,81,1192066260
88,8,22,Ticks_Phase_8,135,5,42,127,1192107268
88,8,22,Ticks_Phase_8,136,1,48,86,1192888532
88,8,22,Ticks_Phase_8,137,5,42,127,1192907352
88,8,22,Ticks_Phase_8,138,1,48,84,1193672280
88,8,22,Ticks_Phase_8,139,5,42,127,1193706916
88,8,22,Ticks_Phase_8,140,1,48,94,1194468252
88,8,22,Ticks_Phase_8,141,5,42,127,1194506628
88,8,22,Ticks_Phase_8,142,1,48,102,1195257408
88,8,22,Ticks_Phase_8,143,5,42,127,1195307460
88,8,22,Ticks_Phase_8,144,1,48,88,1196037872
88,8,22,Ticks_Phase_8,145,5,42,127,1196107396
88,8,22,Ticks_Phase_8,146,1,48,79,1196805832
88,8,22,Ticks_Phase_8,147,5,42,127,1196906720
88,8,22,Ticks_Phase_8,148,1,48,76,1197635652
88,8,22,Ticks_Phase_8,149,5,42,127,1197706596
88,8,22,Ticks_Phase_8,150,1,48,91,1198439028
88,8,22,Ticks_Phase_8,151,5,42,127,1198507304
88,8,22,Ticks_Phase_8,152,1,48,89,1199265104
88,8,22,Ticks_Phase_8,153,5,42,127,1199307164
88,8,22,Ticks_Phase_8,154,5,42,127,1200106732
88,8,22,Ticks_Phase_8,155,1,48,84,1200115692
88,8,22,Ticks_Phase_8,156,5,42,127,1200906520
88,8,22,Ticks_Phase_8,157,1,48,82,1200966328
88,8,22,Ticks_Phase_8,158,1,48,82,1201707724
88,8,22,Ticks_Phase_8,159,5,42,127,1201709068
88,8,22,Ticks_Phase_8,160,5,42,127,1202467076
88,8,22,Ticks_Phase_8,161,1,48,84,1202491464
88,8,22,Ticks_Phase_8,162,1,48,66,1203196880
88,8,22,Ticks_Phase_8,163,5,42,127,1203266860
88,8,22,Ticks_Phase_8,164,1,48,97,1203959448
88,8,22,Ticks_Phase_8,165,5,42,127,1204066628
88,8,22,Ticks_Phase_8,166,1,48,67,1204765304
88,8,22,Ticks_Phase_8,167,5,42,127,1204866416
88,8,22,Ticks_Phase_8,168,1,48,98,1205618632
88,8,22,Ticks_Phase_8,169,5,42,127,1205667264
88,8,22,Ticks_Phase_8,170,5,42,127,1206467012
88,8,22,Ticks_Phase_8,171,1,48,79,1206477696
88,8,22,Ticks_Phase_8,172,1,48,85,1207243092
88,8,22,Ticks_Phase_8,173,5,42,127,1207266568
88,8,22,Ticks_Phase_8,174,1,48,84,1208036144
88,8,22,Ticks_Phase_8,175,5,42,127,1208066356
88,8,22,Ticks_Phase_8,176,1,48,52,1208836080
88,8,22,Ticks_Phase_8,177,5,42,127,1208867112
88,8,22,Ticks_Phase_8,178,1,48,91,1209628376
88,8,22,Ticks_Phase_8,179,5,42,127,1209667048
88,8,22,Ticks_Phase_8,180,1,48,87,1210441264
88,8,22,Ticks_Phase_8,181,5,42,127,1210466612
88,8,22,Ticks_Phase_8,182,1,48,89,1211222108
88,8,22,Ticks_Phase_8,183,5,42,127,1211266400
88,8,22,Ticks_Phase_8,184,1,48,95,1212017404
88,8,22,Ticks_Phase_8,185,5,42,127,1212067156
88,8,22,Ticks_Phase_8,186,1,48,86,1212812092
88,8,22,Ticks_Phase_8,187,5,42,127,1212867120
88,8,22,Ticks_Phase_8,188,1,48,94,1213625016
88,8,22,Ticks_Phase_8,189,5,42,127,1213666532
88,8,22,Ticks_Phase_8,190,1,48,66,1214412732
88,8,22,Ticks_Phase_8,191,5,42,127,1214466396
88,8,22,Ticks_Phase_8,192,5,42,127,1215187256
88,8,22,Ticks_Phase_8,193,1,48,67,1215194188
88,8,22,Ticks_Phase_8,194,1,48,66,1215941916
88,8,22,Ticks_Phase_8,195,5,42,127,1215987032
88,8,22,Ticks_Phase_8,196,1,48,84,1216766272
88,8,22,Ticks_Phase_8,197,5,42,127,1216786820
88,8,22,Ticks_Phase_8,198,1,48,75,1217516860
88,8,22,Ticks_Phase_8,199,5,42,127,1217586456
88,8,22,Ticks_Phase_8,200,1,48,84,1218332064
88,8,22,Ticks_Phase_8,201,5,42,127,1218387364
88,8,22,Ticks_Phase_8,202,1,48,77,1219139412
88,8,22,Ticks_Phase_8,203,5,42,127,1219187076
88,8,22,Ticks_Phase_8,204,1,48,69,1219931036
88,8,22,Ticks_Phase_8,205,5,42,127,1219986936
88,8,22,Ticks_Phase_8,206,1,48,72,1220735844
88,8,22,Ticks_Phase_8,207,5,42,127,1220786676
88,8,22,Ticks_Phase_8,208,1,48,77,1221536984
88,8,22,Ticks_Phase_8,209,5,42,127,1221587284
88,8,22,Ticks_Phase_8,210,5,42,127,1222387076
88,8,22,Ticks_Phase_8,211,1,48,73,1222392436
88,8,22,Ticks_Phase_8,212,1,48,81,1223090892
88,8,22,Ticks_Phase_8,213,5,42,127,1223186840
88,8,22,Ticks_Phase_8,214,1,48,87,1223930296
88,8,22,Ticks_Phase_8,215,5,42,127,1223986420
88,8,22,Ticks_Phase_8,216,1,48,100,1224778764
88,8,22,Ticks_Phase_8,217,5,42,127,1224787328
88,8,22,Ticks_Phase_8,218,5,42,127,1225587196
88,8,22,Ticks_Phase_8,219,1,48,98,1225599896
88,8,22,Ticks_Phase_8,220,1,48,91,1226347784
88,8,22,Ticks_Phase_8,221,5,42,127,1226387048
88,8,22,Ticks_Phase_8,222,5,42,127,1227186492
88,8,22,Ticks_Phase_8,223,1,48,91,1227191632
88,8,22,Ticks_Phase_8,224,1,48,94,1227972084
88,8,22,Ticks_Phase_8,225,5,42,127,1227987320
88,8,22,Ticks_Phase_8,226,1,48,48,1228730084
88,8,22,Ticks_Phase_8,227,5,42,127,1228867000
88,8,22,Ticks_Phase_8,228,1,48,64,1229632768
88,8,22,Ticks_Phase_8,229,5,42,127,1229666800
88,8,22,Ticks_Phase_8,230,1,48,86,1230427912
88,8,22,Ticks_Phase_8,231,5,42,127,1230466360
88,8,22,Ticks_Phase_8,232,1,48,30,1230515096
88,8,22,Ticks_Phase_8,233,1,48,56,1231245728
88,8,22,Ticks_Phase_8,234,5,42,127,1231267100
88,8,22,Ticks_Phase_8,235,1,48,97,1232034120
88,8,22,Ticks_Phase_8,236,5,42,127,1232066908
88,8,22,Ticks_Phase_8,237,1,48,95,1232807956
88,8,22,Ticks_Phase_8,238,5,42,127,1232866768
88,8,22,Ticks_Phase_8,239,1,48,61,1233586996
88,8,22,Ticks_Phase_8,240,5,42,127,1233666404
88,8,22,Ticks_Phase_8,241,1,48,78,1234382800
88,8,22,Ticks_Phase_8,242,5,42,127,1234467388
88,8,22,Ticks_Phase_8,243,1,48,71,1235175932
88,8,22,Ticks_Phase_8,244,5,42,127,1235266948
88,8,22,Ticks_Phase_8,245,1,48,64,1235987400
88,8,22,Ticks_Phase_8,246,5,42,127,1236066660
88,8,22,Ticks_Phase_8,247,1,48,84,1236821332
88,8,22,Ticks_Phase_8,248,5,42,127,1236866520
88,8,22,Ticks_Phase_8,249,1,48,86,1237582324
88,8,22,Ticks_Phase_8,250,1,48,46,1237654264
88,8,22,Ticks_Phase_8,251,5,42,127,1237667108
88,8,22,Ticks_Phase_8,252,1,48,91,1238429120
88,8,22,Ticks_Phase_8,253,5,42,127,1238467068
88,8,22,Ticks_Phase_8,254,1,48,77,1239213720
88,8,22,Ticks_Phase_8,255,5,42,127,1239266704
88,8,22,Ticks_Phase_8,256,1,48,76,1240017116
88,8,22,Ticks_Phase_8,257,5,42,127,1240066564
88,8,22,Ticks_Phase_8,258,1,48,80,1240799672
88,8,22,Ticks_Phase_8,259,5,42,127,1240867176
88,8,22,Ticks_Phase_8,260,1,48,84,1241553392
88,8,22,Ticks_Phase_8,261,5,42,127,1241666796
88,8,22,Ticks_Phase_8,262,1,48,77,1242426732
88,8,22,Ticks_Phase_8,263,5,42,127,1242626420
88,8,22,Ticks_Phase_8,264,5,42,127,1243427272
88,8,22,Ticks_Phase_8,265,1,48,64,1243605432
88,8,22,Ticks_Phase_8,266,1,48,86,1244173096
88,8,22,Ticks_Phase_8,267,1,48,43,1244219212
88,8,22,Ticks_Phase_8,268,5,42,127,1244226884
88,8,22,Ticks_Phase_8,269,1,48,92,1244916480
88,8,22,Ticks_Phase_8,270,1,48,37,1244992688
88,8,22,Ticks_Phase_8,271,5,42,127,1245026648
88,8,22,Ticks_Phase_8,272,1,48,88,1245730244
88,8,22,Ticks_Phase_8,273,1,48,30,1245816876
88,8,22,Ticks_Phase_8,274,5,42,127,1245826564
88,8,22,Ticks_Phase_8,275,1,48,85,1246575700
88,8,22,Ticks_Phase_8,276,5,42,127,1246627468
88,8,22,Ticks_Phase_8,277,1,48,89,1247330400
88,8,22,Ticks_Phase_8,278,5,42,127,1247427264
88,8,22,Ticks_Phase_8,279,1,48,81,1248131752
88,8,22,Ticks_Phase_8,280,5,42,127,1248226692
88,8,22,Ticks_Phase_8,281,1,48,80,1248922176
88,8,22,Ticks_Phase_8,282,1,48,23,1249015716
88,8,22,Ticks_Phase_8,283,5,42,127,1249026384
88,8,22,Ticks_Phase_8,284,1,48,67,1249742112
88,8,22,Ticks_Phase_8,285,5,42,127,1249827588
88,8,22,Ticks_Phase_8,286,1,48,89,1250445124
88,8,22,Ticks_Phase_8,287,1,48,46,1250520608
88,8,22,Ticks_Phase_8,288,5,42,127,1250626964
88,8,22,Ticks_Phase_8,289,1,48,76,1251353940
88,8,22,Ticks_Phase_8,290,5,42,127,1251426620
88,8,22,Ticks_Phase_8,291,1,48,94,1252159576
88,8,22,Ticks_Phase_8,292,5,42,127,1252226332
88,8,22,Ticks_Phase_8,293,1,48,92,1252957940
88,8,22,Ticks_Phase_8,294,5,42,127,1253027464
88,8,22,Ticks_Phase_8,295,1,48,69,1253786912
88,8,22,Ticks_Phase_8,296,5,42,127,1253826804
88,8,22,Ticks_Phase_8,297,1,48,76,1254599748
88,8,22,Ticks_Phase_8,298,5,42,127,1254626736
88,8,22,Ticks_Phase_8,299,1,48,88,1255380288
88,8,22,Ticks_Phase_8,300,5,42,127,1255426524
88,8,22,Ticks_Phase_8,301,1,48,77,1256201784
88,8,22,Ticks_Phase_8,302,5,42,127,1256227280
88,8,22,Ticks_Phase_8,303,1,48,76,1257018728
88,8,22,Ticks_Phase_8,304,5,42,127,1257026920
88,8,22,Ticks_Phase_8,305,5,42,127,1257666904
88,8,22,Ticks_Phase_8,306,1,48,91,1257769400
88,8,22,Ticks_Phase_8,307,5,42,127,1258466620
88,8,22,Ticks_Phase_8,308,1,48,64,1258539456
88,8,22,Ticks_Phase_8,309,1,48,41,1258575908
88,8,22,Ticks_Phase_8,310,1,48,103,1259240204
88,8,22,Ticks_Phase_8,311,5,42,127,1259266524
88,8,22,Ticks_Phase_8,312,1,48,102,1260030256
88,8,22,Ticks_Phase_8,313,5,42,127,1260067208
88,8,22,Ticks_Phase_8,314,1,48,92,1260807360
88,8,22,Ticks_Phase_8,315,5,42,127,1260866920
88,8,22,Ticks_Phase_8,316,1,48,83,1261595608
88,8,22,Ticks_Phase_8,317,5,42,127,1261666556
88,8,22,Ticks_Phase_8,318,1,48,92,1262373596
88,8,22,Ticks_Phase_8,319,5,42,127,1262466272
88,8,22,Ticks_Phase_8,320,1,48,78,1263191656
88,8,22,Ticks_Phase_8,321,5,42,127,1263267648
88,8,22,Ticks_Phase_8,322,1,48,77,1263985084
88,8,22,Ticks_Phase_8,323,5,42,127,1264066988
88,8,22,Ticks_Phase_8,324,1,48,93,1264805416
88,8,22,Ticks_Phase_8,325,5,42,127,1264866776
88,8,22,Ticks_Phase_8,326,1,48,82,1265635080
88,8,22,Ticks_Phase_8,327,5,42,127,1265666412
88,8,22,Ticks_Phase_8,328,1,48,73,1266438084
88,8,22,Ticks_Phase_8,329,5,42,127,1266467468
88,8,22,Ticks_Phase_8,330,1,48,84,1267218320
88,8,22,Ticks_Phase_8,331,5,42,127,1267266884
88,8,22,Ticks_Phase_8,332,1,48,71,1268039080
88,8,22,Ticks_Phase_8,333,5,42,127,1268066668
88,8,22,Ticks_Phase_8,334,1,48,81,1268838792
88,8,22,Ticks_Phase_8,335,5,42,127,1268866380
88,8,22,Ticks_Phase_8,336,1,48,14,1268961764
88,8,22,Ticks_Phase_8,337,1,48,81,1269601180
88,8,22,Ticks_Phase_8,338,5,42,127,1269667436
88,8,22,Ticks_Phase_8,339,1,48,80,1270418344
88,8,22,Ticks_Phase_8,340,5,42,127,1270467148
88,8,22,Ticks_Phase_8,341,1,48,93,1271186080
88,8,22,Ticks_Phase_8,342,5,42,127,1271266636
88,8,22,Ticks_Phase_8,343,1,48,82,1271975108
88,8,22,Ticks_Phase_8,344,5,42,127,1272066348
88,8,22,Ticks_Phase_8,345,1,48,85,1272816228
88,8,22,Ticks_Phase_8,346,5,42,127,1272867256
88,8,22,Ticks_Phase_8,0,9999,9999,9999,1137664068
88,8,22,Ticks_Phase_8,1,9999,9999,9999,1138464848
88,8,22,Ticks_Phase_8,2,9999,9999,9999,1139264580
88,8,22,Ticks_Phase_8,3,9999,9999,9999,1140064312
88,8,22,Ticks_Phase_8,4,9999,9999,9999,1140864124
88,8,22,Ticks_Phase_8,5,9999,9999,9999,1141664876
88,8,22,Ticks_Phase_8,6,9999,9999,9999,1142464620
88,8,22,Ticks_Phase_8,7,9999,9999,9999,1143264332
88,8,22,Ticks_Phase_8,8,9999,9999,9999,1144064116
88,8,22,Ticks_Phase_8,9,9999,9999,9999,1144864868
88,8,22,Ticks_Phase_8,10,9999,9999,9999,1145664580
88,8,22,Ticks_Phase_8,11,9999,9999,9999,1146464368
88,8,22,Ticks_Phase_8,12,9999,9999,9999,1147264080
88,8,22,Ticks_Phase_8,13,9999,9999,9999,1148064836
88,8,22,Ticks_Phase_8,14,9999,9999,9999,1148864572
88,8,22,Ticks_Phase_8,15,9999,9999,9999,1149664360
88,8,22,Ticks_Phase_8,16,9999,9999,9999,1150464072
88,8,22,Ticks_Phase_8,17,9999,9999,9999,1151264832
88,8,22,Ticks_Phase_8,18,9999,9999,9999,1152064624
88,8,22,Ticks_Phase_8,19,9999,9999,9999,1152864336
88,8,22,Ticks_Phase_8,20,9999,9999,9999,1153664116
88,8,22,Ticks_Phase_8,21,9999,9999,9999,1154464872
88,8,22,Ticks_Phase_8,22,9999,9999,9999,1155264608
88,8,22,Ticks_Phase_8,23,9999,9999,9999,1156064320
88,8,22,Ticks_Phase_8,24,9999,9999,9999,1156864104
88,8,22,Ticks_Phase_8,25,9999,9999,9999,1157664864
88,8,22,Ticks_Phase_8,26,9999,9999,9999,1158464576
88,8,22,Ticks_Phase_8,27,9999,9999,9999,1159264364
88,8,22,Ticks_Phase_8,28,9999,9999,9999,1160064076
88,8,22,Ticks_Phase_8,29,9999,9999,9999,1160864832
88,8,22,Ticks_Phase_8,30,9999,9999,9999,1161644128
88,8,22,Ticks_Phase_8,31,9999,9999,9999,1162444884
88,8,22,Ticks_Phase_8,32,9999,9999,9999,1163244600
88,8,22,Ticks_Phase_8,33,9999,9999,9999,1164044384
88,8,22,Ticks_Phase_8,34,9999,9999,9999,1164844096
88,8,22,Ticks_Phase_8,35,9999,9999,9999,1165644856
88,8,22,Ticks_Phase_8,36,9999,9999,9999,1166444640
88,8,22,Ticks_Phase_8,37,9999,9999,9999,1167244352
88,8,22,Ticks_Phase_8,38,9999,9999,9999,1168044140
88,8,22,Ticks_Phase_8,39,9999,9999,9999,1168844896
88,8,22,Ticks_Phase_8,40,9999,9999,9999,1169644660
88,8,22,Ticks_Phase_8,41,9999,9999,9999,1170444376
88,8,22,Ticks_Phase_8,42,9999,9999,9999,1171244144
88,8,22,Ticks_Phase_8,43,9999,9999,9999,1172044904
88,8,22,Ticks_Phase_8,44,9999,9999,9999,1172844628
88,8,22,Ticks_Phase_8,45,9999,9999,9999,1173644416
88,8,22,Ticks_Phase_8,46,9999,9999,9999,1174444152
88,8,22,Ticks_Phase_8,47,9999,9999,9999,1175244912
88,8,22,Ticks_Phase_8,48,9999,9999,9999,1176064096
88,8,22,Ticks_Phase_8,49,9999,9999,9999,1176864840
88,8,22,Ticks_Phase_8,50,9999,9999,9999,1177664568
88,8,22,Ticks_Phase_8,51,9999,9999,9999,1178464356
88,8,22,Ticks_Phase_8,52,9999,9999,9999,1179264068
88,8,22,Ticks_Phase_8,53,9999,9999,9999,1180064828
88,8,22,Ticks_Phase_8,54,9999,9999,9999,1180864640
88,8,22,Ticks_Phase_8,55,9999,9999,9999,1181664352
88,8,22,Ticks_Phase_8,56,9999,9999,9999,1182464064
88,8,22,Ticks_Phase_8,57,9999,9999,9999,1183264820
88,8,22,Ticks_Phase_8,58,9999,9999,9999,1184064608
88,8,22,Ticks_Phase_8,59,9999,9999,9999,1184864320
88,8,22,Ticks_Phase_8,60,9999,9999,9999,1185664104
88,8,22,Ticks_Phase_8,61,9999,9999,9999,1186464864
88,8,22,Ticks_Phase_8,62,9999,9999,9999,1187264588
88,8,22,Ticks_Phase_8,63,9999,9999,9999,1188064312
88,8,22,Ticks_Phase_8,64,9999,9999,9999,1188905060
88,8,22,Ticks_Phase_8,65,9999,9999,9999,1189704780
88,8,22,Ticks_Phase_8,66,9999,9999,9999,1190504568
88,8,22,Ticks_Phase_8,67,9999,9999,9999,1191304280
88,8,22,Ticks_Phase_8,68,9999,9999,9999,1192105056
88,8,22,Ticks_Phase_8,69,9999,9999,9999,1192904768
88,8,22,Ticks_Phase_8,70,9999,9999,9999,1193704552
88,8,22,Ticks_Phase_8,71,9999,9999,9999,1194504264
88,8,22,Ticks_Phase_8,72,9999,9999,9999,1195305024
88,8,22,Ticks_Phase_8,73,9999,9999,9999,1196104808
88,8,22,Ticks_Phase_8,74,9999,9999,9999,1196904504
88,8,22,Ticks_Phase_8,75,9999,9999,9999,1197704308
88,8,22,Ticks_Phase_8,76,9999,9999,9999,1198505016
88,8,22,Ticks_Phase_8,77,9999,9999,9999,1199304800
88,8,22,Ticks_Phase_8,78,9999,9999,9999,1200104520
88,8,22,Ticks_Phase_8,79,9999,9999,9999,1200904304
88,8,22,Ticks_Phase_8,80,9999,9999,9999,1201705064
88,8,22,Ticks_Phase_8,81,9999,9999,9999,1202464860
88,8,22,Ticks_Phase_8,82,9999,9999,9999,1203264572
88,8,22,Ticks_Phase_8,83,9999,9999,9999,1204064340
88,8,22,Ticks_Phase_8,84,9999,9999,9999,1204864128
88,8,22,Ticks_Phase_8,85,9999,9999,9999,1205664828
88,8,22,Ticks_Phase_8,86,9999,9999,9999,1206464572
88,8,22,Ticks_Phase_8,87,9999,9999,9999,1207264356
88,8,22,Ticks_Phase_8,88,9999,9999,9999,1208064064
88,8,22,Ticks_Phase_8,89,9999,9999,9999,1208864824
88,8,22,Ticks_Phase_8,90,9999,9999,9999,1209664612
88,8,22,Ticks_Phase_8,91,9999,9999,9999,1210464324
88,8,22,Ticks_Phase_8,92,9999,9999,9999,1211264112
88,8,22,Ticks_Phase_8,93,9999,9999,9999,1212064868
88,8,22,Ticks_Phase_8,94,9999,9999,9999,1212864608
88,8,22,Ticks_Phase_8,95,9999,9999,9999,1213664316
88,8,22,Ticks_Phase_8,96,9999,9999,9999,1214464104
88,8,22,Ticks_Phase_8,97,9999,9999,9999,1215184964
88,8,22,Ticks_Phase_8,98,9999,9999,9999,1215984744
88,8,22,Ticks_Phase_8,99,9999,9999,9999,1216784456
88,8,22,Ticks_Phase_8,100,9999,9999,9999,1217584240
88,8,22,Ticks_Phase_8,101,9999,9999,9999,1218385000
88,8,22,Ticks_Phase_8,102,9999,9999,9999,1219184712
88,8,22,Ticks_Phase_8,103,9999,9999,9999,1219984500
88,8,22,Ticks_Phase_8,104,9999,9999,9999,1220784236
88,8,22,Ticks_Phase_8,105,9999,9999,9999,1221584996
88,8,22,Ticks_Phase_8,106,9999,9999,9999,1222384716
88,8,22,Ticks_Phase_8,107,9999,9999,9999,1223184476
88,8,22,Ticks_Phase_8,108,9999,9999,9999,1223984204
88,8,22,Ticks_Phase_8,109,9999,9999,9999,1224784964
88,8,22,Ticks_Phase_8,110,9999,9999,9999,1225584756
88,8,22,Ticks_Phase_8,111,9999,9999,9999,1226384464
88,8,22,Ticks_Phase_8,112,9999,9999,9999,1227184204
88,8,22,Ticks_Phase_8,113,9999,9999,9999,1227984956
88,8,22,Ticks_Phase_8,114,9999,9999,9999,1228864632
88,8,22,Ticks_Phase_8,115,9999,9999,9999,1229664360
88,8,22,Ticks_Phase_8,116,9999,9999,9999,1230464072
88,8,22,Ticks_Phase_8,117,9999,9999,9999,1231264884
88,8,22,Ticks_Phase_8,118,9999,9999,9999,1232064620
88,8,22,Ticks_Phase_8,119,9999,9999,9999,1232864332
88,8,22,Ticks_Phase_8,120,9999,9999,9999,1233664116
88,8,22,Ticks_Phase_8,121,9999,9999,9999,1234464876
88,8,22,Ticks_Phase_8,122,9999,9999,9999,1235264588
88,8,22,Ticks_Phase_8,123,9999,9999,9999,1236064372
88,8,22,Ticks_Phase_8,124,9999,9999,9999,1236864084
88,8,22,Ticks_Phase_8,125,9999,9999,9999,1237664896
88,8,22,Ticks_Phase_8,126,9999,9999,9999,1238464632
88,8,22,Ticks_Phase_8,127,9999,9999,9999,1239264344
88,8,22,Ticks_Phase_8,128,9999,9999,9999,1240064128
88,8,22,Ticks_Phase_8,129,9999,9999,9999,1240864884
88,8,22,Ticks_Phase_8,130,9999,9999,9999,1241664580
88,8,22,Ticks_Phase_8,131,9999,9999,9999,1242624056
88,8,22,Ticks_Phase_8,132,9999,9999,9999,1243424836
88,8,22,Ticks_Phase_8,133,9999,9999,9999,1244224592
88,8,22,Ticks_Phase_8,134,9999,9999,9999,1245024356
88,8,22,Ticks_Phase_8,135,9999,9999,9999,1245824124
88,8,22,Ticks_Phase_8,136,9999,9999,9999,1246624880
88,8,22,Ticks_Phase_8,137,9999,9999,9999,1247424620
88,8,22,Ticks_Phase_8,138,9999,9999,9999,1248224332
88,8,22,Ticks_Phase_8,139,9999,9999,9999,1249024096
88,8,22,Ticks_Phase_8,140,9999,9999,9999,1249824852
88,8,22,Ticks_Phase_8,141,9999,9999,9999,1250624600
88,8,22,Ticks_Phase_8,142,9999,9999,9999,1251424328
88,8,22,Ticks_Phase_8,143,9999,9999,9999,1252224116
88,8,22,Ticks_Phase_8,144,9999,9999,9999,1253024876
88,8,22,Ticks_Phase_8,145,9999,9999,9999,1253824588
88,8,22,Ticks_Phase_8,146,9999,9999,9999,1254624372
88,8,22,Ticks_Phase_8,147,9999,9999,9999,1255424084
88,8,22,Ticks_Phase_8,148,9999,9999,9999,1256224844
88,8,22,Ticks_Phase_8,149,9999,9999,9999,1257024632
88,8,22,Ticks_Phase_8,150,9999,9999,9999,1257664616
88,8,22,Ticks_Phase_8,151,9999,9999,9999,1258464328
88,8,22,Ticks_Phase_8,152,9999,9999,9999,1259264088
88,8,22,Ticks_Phase_8,153,9999,9999,9999,1260064844
88,8,22,Ticks_Phase_8,154,9999,9999,9999,1260864632
88,8,22,Ticks_Phase_8,155,9999,9999,9999,1261664344
88,8,22,Ticks_Phase_8,156,9999,9999,9999,1262464056
88,8,22,Ticks_Phase_8,157,9999,9999,9999,1263264888
88,8,22,Ticks_Phase_8,158,9999,9999,9999,1264064624
88,8,22,Ticks_Phase_8,159,9999,9999,9999,1264864336
88,8,22,Ticks_Phase_8,160,9999,9999,9999,1265664124
88,8,22,Ticks_Phase_8,161,9999,9999,9999,1266464880
88,8,22,Ticks_Phase_8,162,9999,9999,9999,1267264592
88,8,22,Ticks_Phase_8,163,9999,9999,9999,1268064380
88,8,22,Ticks_Phase_8,164,9999,9999,9999,1268864092
88,8,22,Ticks_Phase_8,165,9999,9999,9999,1269664828
88,8,22,Ticks_Phase_8,166,9999,9999,9999,1270464636
88,8,22,Ticks_Phase_8,167,9999,9999,9999,1271264348
88,8,22,Ticks_Phase_8,168,9999,9999,9999,1272064060
88,8,22,Ticks_Phase_8,169,9999,9999,9999,1272864892
88,9,21,Ticks_Linear_5,0,5,42,127,1284325696
88,9,21,Ticks_Linear_5,1,5,42,127,1284805944
88,9,21,Ticks_Linear_5,2,5,42,127,1285286192
88,9,21,Ticks_Linear_5,3,5,42,127,1285765524
88,9,21,Ticks_Linear_5,4,5,42,127,1286245848
88,9,21,Ticks_Linear_5,5,1,48,100,1286270984
88,9,21,Ticks_Linear_5,6,1,48,85,1286724384
88,9,21,Ticks_Linear_5,7,5,42,127,1286736256
88,9,21,Ticks_Linear_5,8,1,48,95,1287215920
88,9,21,Ticks_Linear_5,9,5,42,127,1287225916
88,9,21,Ticks_Linear_5,10,1,48,101,1287685964
88,9,21,Ticks_Linear_5,11,5,42,127,1287716108
88,9,21,Ticks_Linear_5,12,1,48,89,1288173912
88,9,21,Ticks_Linear_5,13,5,42,127,1288205772
88,9,21,Ticks_Linear_5,14,1,48,86,1288673220
88,9,21,Ticks_Linear_5,15,5,42,127,1288696184
88,9,21,Ticks_Linear_5,16,1,48,92,1289164616
88,9,21,Ticks_Linear_5,17,5,42,127,1289195884
88,9,21,Ticks_Linear_5,18,1,48,92,1289656532
88,9,21,Ticks_Linear_5,19,5,42,127,1289695584
88,9,21,Ticks_Linear_5,20,1,48,106,1290162960
88,9,21,Ticks_Linear_5,21,5,42,127,1290196332
88,9,21,Ticks_Linear_5,22,1,48,100,1290677720
88,9,21,Ticks_Linear_5,23,5,42,127,1290696104
88,9,21,Ticks_Linear_5,24,5,42,127,1291195888
88,9,21,Ticks_Linear_5,25,1,48,89,1291198560
88,9,21,Ticks_Linear_5,26,1,48,86,1291671320
88,9,21,Ticks_Linear_5,27,5,42,127,1291705836
88,9,21,Ticks_Linear_5,28,1,48,85,1292177240
88,9,21,Ticks_Linear_5,29,5,42,127,1292215796
88,9,21,Ticks_Linear_5,30,1,48,78,1292670344
88,9,21,Ticks_Linear_5,31,5,42,127,1292725604
88,9,21,Ticks_Linear_5,32,1,48,90,1293207720
88,9,21,Ticks_Linear_5,33,5,42,127,1293235712
88,9,21,Ticks_Linear_5,34,1,48,83,1293740392
88,9,21,Ticks_Linear_5,35,5,42,127,1293745528
88,9,21,Ticks_Linear_5,36,1,48,82,1294263860
88,9,21,Ticks_Linear_5,37,5,42,127,1294265744
88,9,21,Ticks_Linear_5,38,1,48,77,1294767872
88,9,21,Ticks_Linear_5,39,5,42,127,1294786036
88,9,21,Ticks_Linear_5,40,1,48,70,1295259760
88,9,21,Ticks_Linear_5,41,5,42,127,1295306180
88,9,21,Ticks_Linear_5,42,1,48,94,1295778280
88,9,21,Ticks_Linear_5,43,5,42,127,1295826248
88,9,21,Ticks_Linear_5,44,1,48,90,1296318944
88,9,21,Ticks_Linear_5,45,5,42,127,1296345420
88,9,21,Ticks_Linear_5,46,1,48,91,1296855340
88,9,21,Ticks_Linear_5,47,5,42,127,1296876044
88,9,21,Ticks_Linear_5,48,1,48,71,1297370760
88,9,21,Ticks_Linear_5,49,5,42,127,1297406300
88,9,21,Ticks_Linear_5,50,1,48,79,1297895780
88,9,21,Ticks_Linear_5,51,5,42,127,1297935880
88,9,21,Ticks_Linear_5,52,1,48,71,1298424088
88,9,21,Ticks_Linear_5,53,5,42,127,1298466284
88,9,21,Ticks_Linear_5,54,1,48,56,1298957484
88,9,21,Ticks_Linear_5,55,5,42,127,1298995860
88,9,21,Ticks_Linear_5,56,1,48,74,1299498592
88,9,21,Ticks_Linear_5,57,5,42,127,1299536224
88,9,21,Ticks_Linear_5,58,1,48,86,1300002776
88,9,21,Ticks_Linear_5,59,5,42,127,1300075840
88,9,21,Ticks_Linear_5,60,1,48,92,1300531156
88,9,21,Ticks_Linear_5,61,5,42,127,1300615676
88,9,21,Ticks_Linear_5,62,1,48,82,1301115712
88,9,21,Ticks_Linear_5,63,5,42,127,1301156140
88,9,21,Ticks_Linear_5,64,1,48,98,1301666212
88,9,21,Ticks_Linear_5,65,5,42,127,1301695980
88,9,21,Ticks_Linear_5,66,1,48,96,1302205752
88,9,21,Ticks_Linear_5,67,5,42,127,1302245704
88,9,21,Ticks_Linear_5,68,1,48,91,1302729708
88,9,21,Ticks_Linear_5,69,5,42,127,1302795580
88,9,21,Ticks_Linear_5,70,1,48,102,1303302424
88,9,21,Ticks_Linear_5,71,5,42,127,1303345528
88,9,21,Ticks_Linear_5,72,1,48,74,1303832224
88,9,21,Ticks_Linear_5,73,5,42,127,1303896600
88,9,21,Ticks_Linear_5,74,1,48,114,1304404576
88,9,21,Ticks_Linear_5,75,5,42,127,1304455760
88,9,21,Ticks_Linear_5,76,1,48,102,1304954300
88,9,21,Ticks_Linear_5,77,5,42,127,1305015844
88,9,21,Ticks_Linear_5,78,1,48,96,1305512872
88,9,21,Ticks_Linear_5,79,5,42,127,1305575900
88,9,21,Ticks_Linear_5,80,1,48,81,1306071288
88,9,21,Ticks_Linear_5,81,5,42,127,1306135960
88,9,21,Ticks_Linear_5,82,1,48,87,1306610452
88,9,21,Ticks_Linear_5,83,5,42,127,1306696020
88,9,21,Ticks_Linear_5,84,1,48,85,1307173428
88,9,21,Ticks_Linear_5,85,5,42,127,1307256080
88,9,21,Ticks_Linear_5,86,1,48,77,1307746004
88,9,21,Ticks_Linear_5,87,5,42,127,1307825744
88,9,21,Ticks_Linear_5,88,1,48,83,1308304792
88,9,21,Ticks_Linear_5,89,5,42,127,1308395840
88,9,21,Ticks_Linear_5,90,1,48,86,1308859552
88,9,21,Ticks_Linear_5,91,5,42,127,1308966144
88,9,21,Ticks_Linear_5,92,1,48,74,1309435784
88,9,21,Ticks_Linear_5,93,5,42,127,1309535712
88,9,21,Ticks_Linear_5,94,1,48,82,1310055232
88,9,21,Ticks_Linear_5,95,5,42,127,1310105968
88,9,21,Ticks_Linear_5,96,1,48,40,1310118388
88,9,21,Ticks_Linear_5,97,1,48,82,1310637984
88,9,21,Ticks_Linear_5,98,5,42,127,1310685656
88,9,21,Ticks_Linear_5,99,1,48,67,1311241404
88,9,21,Ticks_Linear_5,100,5,42,127,1311266084
88,9,21,Ticks_Linear_5,101,1,48,83,1311835912
88,9,21,Ticks_Linear_5,102,5,42,127,1311845612
88,9,21,Ticks_Linear_5,103,1,48,86,1312412888
88,9,21,Ticks_Linear_5,104,5,42,127,1312426584
88,9,21,Ticks_Linear_5,105,1,48,100,1312973788
88,9,21,Ticks_Linear_5,106,5,42,127,1313005892
88,9,21,Ticks_Linear_5,107,1,48,95,1313549060
88,9,21,Ticks_Linear_5,108,5,42,127,1313595832
88,9,21,Ticks_Linear_5,109,1,48,71,1314148132
88,9,21,Ticks_Linear_5,110,5,42,127,1314185472
88,9,21,Ticks_Linear_5,111,1,48,89,1314765732
88,9,21,Ticks_Linear_5,112,5,42,127,1314776560
88,9,21,Ticks_Linear_5,113,1,48,93,1315356124
88,9,21,Ticks_Linear_5,114,5,42,127,1315375408
88,9,21,Ticks_Linear_5,115,5,42,127,1315966476
88,9,21,Ticks_Linear_5,116,1,48,95,1315968920
88,9,21,Ticks_Linear_5,117,1,48,112,1316560956
88,9,21,Ticks_Linear_5,118,5,42,127,1316566616
88,9,21,Ticks_Linear_5,119,5,42,127,1317165548
88,9,21,Ticks_Linear_5,120,1,48,110,1317169640
88,9,21,Ticks_Linear_5,121,5,42,127,1317765448
88,9,21,Ticks_Linear_5,122,1,48,103,1317769764
88,9,21,Ticks_Linear_5,123,1,48,115,1318359408
88,9,21,Ticks_Linear_5,124,5,42,127,1318365516
88,9,21,Ticks_Linear_5,125,1,48,100,1318952336
88,9,21,Ticks_Linear_5,126,5,42,127,1318965492
88,9,21,Ticks_Linear_5,127,1,48,100,1319556960
88,9,21,Ticks_Linear_5,128,5,42,127,1319575796
88,9,21,Ticks_Linear_5,129,1,48,102,1320164296
88,9,21,Ticks_Linear_5,130,5,42,127,1320186500
88,9,21,Ticks_Linear_5,131,1,48,124,1320763528
88,9,21,Ticks_Linear_5,132,5,42,127,1320795616
88,9,21,Ticks_Linear_5,133,1,48,111,1321343420
88,9,21,Ticks_Linear_5,134,5,42,127,1321405796
88,9,21,Ticks_Linear_5,135,1,48,121,1321962360
88,9,21,Ticks_Linear_5,136,5,42,127,1322016328
88,9,21,Ticks_Linear_5,137,1,48,105,1322570504
88,9,21,Ticks_Linear_5,138,5,42,127,1322635624
88,9,21,Ticks_Linear_5,139,1,48,103,1323198360
88,9,21,Ticks_Linear_5,140,5,42,127,1323256440
88,9,21,Ticks_Linear_5,141,1,48,111,1323829864
88,9,21,Ticks_Linear_5,142,5,42,127,1323875664
88,9,21,Ticks_Linear_5,143,1,48,108,1324440320
88,9,21,Ticks_Linear_5,144,5,42,127,1324496624
88,9,21,Ticks_Linear_5,145,1,48,110,1325047736
88,9,21,Ticks_Linear_5,146,5,42,127,1325115700
88,9,21,Ticks_Linear_5,147,1,48,100,1325667032
88,9,21,Ticks_Linear_5,148,1,38,20,1325677576
88,9,21,Ticks_Linear_5,149,5,42,127,1325745488
88,9,21,Ticks_Linear_5,150,1,48,123,1326311160
88,9,21,Ticks_Linear_5,151,5,42,127,1326376432
88,9,21,Ticks_Linear_5,152,1,48,101,1326960336
88,9,21,Ticks_Linear_5,153,5,42,127,1327006284
88,9,21,Ticks_Linear_5,154,1,48,87,1327586828
88,9,21,Ticks_Linear_5,155,5,42,127,1327635768
88,9,21,Ticks_Linear_5,156,1,48,89,1328196684
88,9,21,Ticks_Linear_5,157,5,42,127,1328265472
88,9,21,Ticks_Linear_5,158,1,48,83,1328837272
88,9,21,Ticks_Linear_5,159,5,42,127,1328905536
88,9,21,Ticks_Linear_5,160,1,48,79,1329497004
88,9,21,Ticks_Linear_5,161,5,42,127,1329545500
88,9,21,Ticks_Linear_5,162,1,48,87,1330103452
88,9,21,Ticks_Linear_5,163,5,42,127,1330185708
88,9,21,Ticks_Linear_5,164,1,48,94,1330744608
88,9,21,Ticks_Linear_5,165,5,42,127,1330825672
88,9,21,Ticks_Linear_5,166,1,48,103,1331413640
88,9,21,Ticks_Linear_5,167,5,42,127,1331465588
88,9,21,Ticks_Linear_5,168,1,48,69,1332034972
88,9,21,Ticks_Linear_5,169,5,42,127,1332115884
88,9,21,Ticks_Linear_5,170,1,48,84,1332668360
88,9,21,Ticks_Linear_5,171,5,42,127,1332766268
88,9,21,Ticks_Linear_5,172,1,48,100,1333319712
88,9,21,Ticks_Linear_5,173,5,42,127,1333417264
88,9,21,Ticks_Linear_5,174,1,48,76,1333986960
88,9,21,Ticks_Linear_5,175,5,42,127,1334065480
88,9,21,Ticks_Linear_5,176,1,48,90,1334673192
88,9,21,Ticks_Linear_5,177,5,42,127,1334715728
88,9,21,Ticks_Linear_5,178,1,48,82,1335351076
88,9,21,Ticks_Linear_5,179,5,42,127,1335376136
88,9,21,Ticks_Linear_5,180,1,48,72,1335999304
88,9,21,Ticks_Linear_5,181,5,42,127,1336035668
88,9,21,Ticks_Linear_5,182,1,48,21,1336119200
88,9,21,Ticks_Linear_5,183,1,48,89,1336667184
88,9,21,Ticks_Linear_5,184,5,42,127,1336696052
88,9,21,Ticks_Linear_5,185,5,42,127,1337355520
88,9,21,Ticks_Linear_5,186,1,48,95,1337358492
88,9,21,Ticks_Linear_5,187,1,48,78,1338003828
88,9,21,Ticks_Linear_5,188,5,42,127,1338016464
88,9,21,Ticks_Linear_5,189,1,48,86,1338652416
88,9,21,Ticks_Linear_5,190,5,42,127,1338685788
88,9,21,Ticks_Linear_5,191,1,48,85,1339332096
88,9,21,Ticks_Linear_5,192,5,42,127,1339355436
88,9,21,Ticks_Linear_5,193,1,48,77,1339979032
88,9,21,Ticks_Linear_5,194,5,42,127,1340026248
88,9,21,Ticks_Linear_5,195,1,48,71,1340642004
88,9,21,Ticks_Linear_5,196,5,42,127,1340696044
88,9,21,Ticks_Linear_5,197,1,48,76,1341278380
88,9,21,Ticks_Linear_5,198,5,42,127,1341365612
88,9,21,Ticks_Linear_5,199,1,48,80,1341999988
88,9,21,Ticks_Linear_5,200,5,42,127,1342045492
88,9,21,Ticks_Linear_5,201,1,48,109,1342666492
88,9,21,Ticks_Linear_5,202,5,42,127,1342725544
88,9,21,Ticks_Linear_5,203,1,48,108,1343364048
88,9,21,Ticks_Linear_5,204,5,42,127,1343405300
88,9,21,Ticks_Linear_5,205,1,48,92,1344038404
88,9,21,Ticks_Linear_5,206,5,42,127,1344086448
88,9,21,Ticks_Linear_5,207,1,48,71,1344680040
88,9,21,Ticks_Linear_5,208,5,42,127,1344766276
88,9,21,Ticks_Linear_5,209,1,48,69,1345364416
88,9,21,Ticks_Linear_5,210,5,42,127,1345455540
88,9,21,Ticks_Linear_5,211,1,48,98,1346072840
88,9,21,Ticks_Linear_5,212,5,42,127,1346145824
88,9,21,Ticks_Linear_5,213,1,48,91,1346764064
88,9,21,Ticks_Linear_5,214,5,42,127,1346836064
88,9,21,Ticks_Linear_5,215,1,48,57,1347432172
88,9,21,Ticks_Linear_5,216,5,42,127,1347525928
88,9,21,Ticks_Linear_5,217,1,48,73,1348037272
88,9,21,Ticks_Linear_5,218,5,42,127,1348216276
88,9,21,Ticks_Linear_5,219,1,48,69,1348856020
88,9,21,Ticks_Linear_5,220,5,42,127,1348915516
88,9,21,Ticks_Linear_5,221,1,48,110,1349514780
88,9,21,Ticks_Linear_5,222,5,42,127,1349616148
88,9,21,Ticks_Linear_5,223,1,48,68,1350247176
88,9,21,Ticks_Linear_5,224,5,42,127,1350316512
88,9,21,Ticks_Linear_5,225,1,48,72,1350983684
88,9,21,Ticks_Linear_5,226,5,42,127,1351015932
88,9,21,Ticks_Linear_5,227,1,48,70,1351676548
88,9,21,Ticks_Linear_5,228,5,42,127,1351716132
88,9,21,Ticks_Linear_5,229,1,48,66,1352382808
88,9,21,Ticks_Linear_5,230,5,42,127,1352426064
88,9,21,Ticks_Linear_5,231,1,48,51,1353076176
88,9,21,Ticks_Linear_5,232,5,42,127,1353135548
88,9,21,Ticks_Linear_5,233,1,48,68,1353775400
88,9,21,Ticks_Linear_5,234,5,42,127,1353846132
88,9,21,Ticks_Linear_5,235,1,48,71,1354476724
88,9,21,Ticks_Linear_5,236,5,42,127,1354555988
88,9,21,Ticks_Linear_5,237,1,48,65,1355173240
88,9,21,Ticks_Linear_5,238,5,42,127,1355266360
88,9,21,Ticks_Linear_5,239,1,48,62,1355886448
88,9,21,Ticks_Linear_5,240,5,42,127,1355995388
88,9,21,Ticks_Linear_5,241,1,48,65,1356535052
88,9,21,Ticks_Linear_5,242,5,42,127,1356716400
88,9,21,Ticks_Linear_5,243,5,42,127,1357436216
88,9,21,Ticks_Linear_5,244,1,48,78,1357440828
88,9,21,Ticks_Linear_5,245,1,48,101,1358114880
88,9,21,Ticks_Linear_5,246,5,42,127,1358156024
88,9,21,Ticks_Linear_5,247,1,48,87,1358815220
88,9,21,Ticks_Linear_5,248,5,42,127,1358876144
88,9,21,Ticks_Linear_5,249,1,48,127,1359471280
88,9,21,Ticks_Linear_5,250,5,42,127,1359606280
88,9,21,Ticks_Linear_5,251,1,48,115,1360191920
88,9,21,Ticks_Linear_5,252,5,42,127,1360336136
88,9,21,Ticks_Linear_5,253,1,48,65,1360970304
88,9,21,Ticks_Linear_5,254,5,42,127,1361066300
88,9,21,Ticks_Linear_5,255,1,48,111,1361712584
88,9,21,Ticks_Linear_5,256,5,42,127,1361795384
88,9,21,Ticks_Linear_5,257,1,48,104,1362396616
88,9,21,Ticks_Linear_5,258,5,42,127,1362525744
88,9,21,Ticks_Linear_5,259,1,48,87,1363189668
88,9,21,Ticks_Linear_5,260,5,42,127,1363265800
88,9,21,Ticks_Linear_5,261,1,48,95,1363917800
88,9,21,Ticks_Linear_5,262,5,42,127,1364006136
88,9,21,Ticks_Linear_5,263,1,48,119,1364686076
88,9,21,Ticks_Linear_5,264,5,42,127,1364745800
88,9,21,Ticks_Linear_5,265,1,48,101,1365444688
88,9,21,Ticks_Linear_5,266,5,42,127,1365486060
88,9,21,Ticks_Linear_5,267,1,48,92,1366125312
88,9,21,Ticks_Linear_5,268,5,42,127,1366226232
88,9,21,Ticks_Linear_5,269,1,48,80,1366853660
88,9,21,Ticks_Linear_5,270,5,42,127,1366975856
88,9,21,Ticks_Linear_5,271,1,48,88,1367717516
88,9,21,Ticks_Linear_5,272,5,42,127,1367725496
88,9,21,Ticks_Linear_5,273,1,48,65,1368444724
88,9,21,Ticks_Linear_5,274,5,42,127,1368475916
88,9,21,Ticks_Linear_5,275,1,48,84,1369150808
88,9,21,Ticks_Linear_5,276,5,42,127,1369225588
88,9,21,Ticks_Linear_5,277,1,48,95,1369872400
88,9,21,Ticks_Linear_5,278,5,42,127,1369976148
88,9,21,Ticks_Linear_5,279,1,48,104,1370680808
88,9,21,Ticks_Linear_5,280,5,42,127,1370735896
88,9,21,Ticks_Linear_5,281,1,48,73,1371423928
88,9,21,Ticks_Linear_5,282,5,42,127,1371495704
88,9,21,Ticks_Linear_5,283,1,48,101,1372154748
88,9,21,Ticks_Linear_5,284,5,42,127,1372255796
88,9,21,Ticks_Linear_5,285,1,48,82,1372984732
88,9,21,Ticks_Linear_5,286,5,42,127,1373016444
88,9,21,Ticks_Linear_5,287,1,48,86,1373745660
88,9,21,Ticks_Linear_5,288,5,42,127,1373785688
88,9,21,Ticks_Linear_5,289,1,48,84,1374547924
88,9,21,Ticks_Linear_5,290,5,42,127,1374555608
88,9,21,Ticks_Linear_5,291,1,48,89,1375301364
88,9,21,Ticks_Linear_5,292,5,42,127,1375325676
88,9,21,Ticks_Linear_5,293,1,48,92,1376048600
88,9,21,Ticks_Linear_5,294,5,42,127,1376095668
88,9,21,Ticks_Linear_5,295,1,48,85,1376811176
88,9,21,Ticks_Linear_5,296,5,42,127,1376865588
88,9,21,Ticks_Linear_5,297,1,48,90,1377527180
88,9,21,Ticks_Linear_5,298,5,42,127,1377635568
88,9,21,Ticks_Linear_5,299,1,48,82,1378326904
88,9,21,Ticks_Linear_5,300,5,42,127,1378415908
88,9,21,Ticks_Linear_5,301,1,48,80,1379111344
88,9,21,Ticks_Linear_5,302,5,42,127,1379196384
88,9,21,Ticks_Linear_5,303,1,48,88,1379863436
88,9,21,Ticks_Linear_5,304,5,42,127,1379975652
88,9,21,Ticks_Linear_5,305,1,48,71,1380654856
88,9,21,Ticks_Linear_5,306,5,42,127,1380755756
88,9,21,Ticks_Linear_5,307,1,48,83,1381465812
88,9,21,Ticks_Linear_5,308,1,48,34,1381520756
88,9,21,Ticks_Linear_5,309,5,42,127,1381536248
88,9,21,Ticks_Linear_5,310,1,48,79,1382274504
88,9,21,Ticks_Linear_5,311,5,42,127,1382325564
88,9,21,Ticks_Linear_5,312,1,48,87,1383045392
88,9,21,Ticks_Linear_5,313,5,42,127,1383116444
88,9,21,Ticks_Linear_5,314,1,48,93,1383808864
88,9,21,Ticks_Linear_5,315,5,42,127,1383905760
88,9,21,Ticks_Linear_5,316,1,48,69,1384619772
88,9,21,Ticks_Linear_5,317,5,42,127,1384696124
88,9,21,Ticks_Linear_5,318,1,48,62,1385451468
88,9,21,Ticks_Linear_5,319,5,42,127,1385485592
88,9,21,Ticks_Linear_5,320,1,48,89,1386236448
88,9,21,Ticks_Linear_5,321,5,42,127,1386285464
88,9,21,Ticks_Linear_5,322,1,48,84,1387005172
88,9,21,Ticks_Linear_5,323,5,42,127,1387086232
88,9,21,Ticks_Linear_5,324,1,48,91,1387816944
88,9,21,Ticks_Linear_5,325,5,42,127,1387885884
88,9,21,Ticks_Linear_5,326,1,48,94,1388656136
88,9,21,Ticks_Linear_5,327,5,42,127,1388685604
88,9,21,Ticks_Linear_5,328,1,48,91,1389456612
88,9,21,Ticks_Linear_5,329,5,42,127,1389485428
88,9,21,Ticks_Linear_5,330,1,48,95,1390233944
88,9,21,Ticks_Linear_5,331,5,42,127,1390296312
88,9,21,Ticks_Linear_5,332,1,48,64,1391001904
88,9,21,Ticks_Linear_5,333,5,42,127,1391106500
88,9,21,Ticks_Linear_5,334,1,48,69,1391851604
88,9,21,Ticks_Linear_5,335,5,42,127,1391925712
88,9,21,Ticks_Linear_5,336,1,48,104,1392637328
88,9,21,Ticks_Linear_5,337,5,42,127,1392735528
88,9,21,Ticks_Linear_5,338,1,48,76,1393464688
88,9,21,Ticks_Linear_5,339,5,42,127,1393545604
88,9,21,Ticks_Linear_5,0,9999,9999,9999,1284323396
88,9,21,Ticks_Linear_5,1,9999,9999,9999,1284803648
88,9,21,Ticks_Linear_5,2,9999,9999,9999,1285283896
88,9,21,Ticks_Linear_5,3,9999,9999,9999,1285763148
88,9,21,Ticks_Linear_5,4,9999,9999,9999,1286243400
88,9,21,Ticks_Linear_5,5,9999,9999,9999,1286733880
88,9,21,Ticks_Linear_5,6,9999,9999,9999,1287223396
88,9,21,Ticks_Linear_5,7,9999,9999,9999,1287713884
88,9,21,Ticks_Linear_5,8,9999,9999,9999,1288203324
88,9,21,Ticks_Linear_5,9,9999,9999,9999,1288693884
88,9,21,Ticks_Linear_5,10,9999,9999,9999,1289193584
88,9,21,Ticks_Linear_5,11,9999,9999,9999,1289693288
88,9,21,Ticks_Linear_5,12,9999,9999,9999,1290194032
88,9,21,Ticks_Linear_5,13,9999,9999,9999,1290693732
88,9,21,Ticks_Linear_5,14,9999,9999,9999,1291193440
88,9,21,Ticks_Linear_5,15,9999,9999,9999,1291703392
88,9,21,Ticks_Linear_5,16,9999,9999,9999,1292213348
88,9,21,Ticks_Linear_5,17,9999,9999,9999,1292723308
88,9,21,Ticks_Linear_5,18,9999,9999,9999,1293233264
88,9,21,Ticks_Linear_5,19,9999,9999,9999,1293743228
88,9,21,Ticks_Linear_5,20,9999,9999,9999,1294263396
88,9,21,Ticks_Linear_5,21,9999,9999,9999,1294783588
88,9,21,Ticks_Linear_5,22,9999,9999,9999,1295303808
88,9,21,Ticks_Linear_5,23,9999,9999,9999,1295823948
88,9,21,Ticks_Linear_5,24,9999,9999,9999,1296343120
88,9,21,Ticks_Linear_5,25,9999,9999,9999,1296873600
88,9,21,Ticks_Linear_5,26,9999,9999,9999,1297404000
88,9,21,Ticks_Linear_5,27,9999,9999,9999,1297933432
88,9,21,Ticks_Linear_5,28,9999,9999,9999,1298463836
88,9,21,Ticks_Linear_5,29,9999,9999,9999,1298993264
88,9,21,Ticks_Linear_5,30,9999,9999,9999,1299533928
88,9,21,Ticks_Linear_5,31,9999,9999,9999,1300073540
88,9,21,Ticks_Linear_5,32,9999,9999,9999,1300613228
88,9,21,Ticks_Linear_5,33,9999,9999,9999,1301153916
88,9,21,Ticks_Linear_5,34,9999,9999,9999,1301693532
88,9,21,Ticks_Linear_5,35,9999,9999,9999,1302243408
88,9,21,Ticks_Linear_5,36,9999,9999,9999,1302793284
88,9,21,Ticks_Linear_5,37,9999,9999,9999,1303343156
88,9,21,Ticks_Linear_5,38,9999,9999,9999,1303894076
88,9,21,Ticks_Linear_5,39,9999,9999,9999,1304453240
88,9,21,Ticks_Linear_5,40,9999,9999,9999,1305013324
88,9,21,Ticks_Linear_5,41,9999,9999,9999,1305573456
88,9,21,Ticks_Linear_5,42,9999,9999,9999,1306133588
88,9,21,Ticks_Linear_5,43,9999,9999,9999,1306693720
88,9,21,Ticks_Linear_5,44,9999,9999,9999,1307253856
88,9,21,Ticks_Linear_5,45,9999,9999,9999,1307823224
88,9,21,Ticks_Linear_5,46,9999,9999,9999,1308393540
88,9,21,Ticks_Linear_5,47,9999,9999,9999,1308963920
88,9,21,Ticks_Linear_5,48,9999,9999,9999,1309533308
88,9,21,Ticks_Linear_5,49,9999,9999,9999,1310103672
88,9,21,Ticks_Linear_5,50,9999,9999,9999,1310683208
88,9,21,Ticks_Linear_5,51,9999,9999,9999,1311263860
88,9,21,Ticks_Linear_5,52,9999,9999,9999,1311843388
88,9,21,Ticks_Linear_5,53,9999,9999,9999,1312423988
88,9,21,Ticks_Linear_5,54,9999,9999,9999,1313003596
88,9,21,Ticks_Linear_5,55,9999,9999,9999,1313593460
88,9,21,Ticks_Linear_5,56,9999,9999,9999,1314183248
88,9,21,Ticks_Linear_5,57,9999,9999,9999,1314774108
88,9,21,Ticks_Linear_5,58,9999,9999,9999,1315373112
88,9,21,Ticks_Linear_5,59,9999,9999,9999,1315964028
88,9,21,Ticks_Linear_5,60,9999,9999,9999,1316564092
88,9,21,Ticks_Linear_5,61,9999,9999,9999,1317163100
88,9,21,Ticks_Linear_5,62,9999,9999,9999,1317763148
88,9,21,Ticks_Linear_5,63,9999,9999,9999,1318363216
88,9,21,Ticks_Linear_5,64,9999,9999,9999,1318963264
88,9,21,Ticks_Linear_5,65,9999,9999,9999,1319573572
88,9,21,Ticks_Linear_5,66,9999,9999,9999,1320183904
88,9,21,Ticks_Linear_5,67,9999,9999,9999,1320793168
88,9,21,Ticks_Linear_5,68,9999,9999,9999,1321403500
88,9,21,Ticks_Linear_5,69,9999,9999,9999,1322013804
88,9,21,Ticks_Linear_5,70,9999,9999,9999,1322633328
88,9,21,Ticks_Linear_5,71,9999,9999,9999,1323253844
88,9,21,Ticks_Linear_5,72,9999,9999,9999,1323873364
88,9,21,Ticks_Linear_5,73,9999,9999,9999,1324493880
88,9,21,Ticks_Linear_5,74,9999,9999,9999,1325113404
88,9,21,Ticks_Linear_5,75,9999,9999,9999,1325743188
88,9,21,Ticks_Linear_5,76,9999,9999,9999,1326373988
88,9,21,Ticks_Linear_5,77,9999,9999,9999,1327003764
88,9,21,Ticks_Linear_5,78,9999,9999,9999,1327633468
88,9,21,Ticks_Linear_5,79,9999,9999,9999,1328263248
88,9,21,Ticks_Linear_5,80,9999,9999,9999,1328903236
88,9,21,Ticks_Linear_5,81,9999,9999,9999,1329543272
88,9,21,Ticks_Linear_5,82,9999,9999,9999,1330183260
88,9,21,Ticks_Linear_5,83,9999,9999,9999,1330823228
88,9,21,Ticks_Linear_5,84,9999,9999,9999,1331463292
88,9,21,Ticks_Linear_5,85,9999,9999,9999,1332113512
88,9,21,Ticks_Linear_5,86,9999,9999,9999,1332763760
88,9,21,Ticks_Linear_5,87,9999,9999,9999,1333414008
88,9,21,Ticks_Linear_5,88,9999,9999,9999,1334063184
88,9,21,Ticks_Linear_5,89,9999,9999,9999,1334713428
88,9,21,Ticks_Linear_5,90,9999,9999,9999,1335373912
88,9,21,Ticks_Linear_5,91,9999,9999,9999,1336033372
88,9,21,Ticks_Linear_5,92,9999,9999,9999,1336693828
88,9,21,Ticks_Linear_5,93,9999,9999,9999,1337353296
88,9,21,Ticks_Linear_5,94,9999,9999,9999,1338013772
88,9,21,Ticks_Linear_5,95,9999,9999,9999,1338683492
88,9,21,Ticks_Linear_5,96,9999,9999,9999,1339353212
88,9,21,Ticks_Linear_5,97,9999,9999,9999,1340023876
88,9,21,Ticks_Linear_5,98,9999,9999,9999,1340693596
88,9,21,Ticks_Linear_5,99,9999,9999,9999,1341363316
88,9,21,Ticks_Linear_5,100,9999,9999,9999,1342043192
88,9,21,Ticks_Linear_5,101,9999,9999,9999,1342723172
88,9,21,Ticks_Linear_5,102,9999,9999,9999,1343403076
88,9,21,Ticks_Linear_5,103,9999,9999,9999,1344084072
88,9,21,Ticks_Linear_5,104,9999,9999,9999,1344763980
88,9,21,Ticks_Linear_5,105,9999,9999,9999,1345453168
88,9,21,Ticks_Linear_5,106,9999,9999,9999,1346143304
88,9,21,Ticks_Linear_5,107,9999,9999,9999,1346833468
88,9,21,Ticks_Linear_5,108,9999,9999,9999,1347523704
88,9,21,Ticks_Linear_5,109,9999,9999,9999,1348213828
88,9,21,Ticks_Linear_5,110,9999,9999,9999,1348913220
88,9,21,Ticks_Linear_5,111,9999,9999,9999,1349613624
88,9,21,Ticks_Linear_5,112,9999,9999,9999,1350314060
88,9,21,Ticks_Linear_5,113,9999,9999,9999,1351013484
88,9,21,Ticks_Linear_5,114,9999,9999,9999,1351713908
88,9,21,Ticks_Linear_5,115,9999,9999,9999,1352423544
88,9,21,Ticks_Linear_5,116,9999,9999,9999,1353133176
88,9,21,Ticks_Linear_5,117,9999,9999,9999,1353843832
88,9,21,Ticks_Linear_5,118,9999,9999,9999,1354553468
88,9,21,Ticks_Linear_5,119,9999,9999,9999,1355264092
88,9,21,Ticks_Linear_5,120,9999,9999,9999,1355993164
88,9,21,Ticks_Linear_5,121,9999,9999,9999,1356714100
88,9,21,Ticks_Linear_5,122,9999,9999,9999,1357433916
88,9,21,Ticks_Linear_5,123,9999,9999,9999,1358153804
88,9,21,Ticks_Linear_5,124,9999,9999,9999,1358873696
88,9,21,Ticks_Linear_5,125,9999,9999,9999,1359603832
88,9,21,Ticks_Linear_5,126,9999,9999,9999,1360333912
88,9,21,Ticks_Linear_5,127,9999,9999,9999,1361064004
88,9,21,Ticks_Linear_5,128,9999,9999,9999,1361793084
88,9,21,Ticks_Linear_5,129,9999,9999,9999,1362523220
88,9,21,Ticks_Linear_5,130,9999,9999,9999,1363263576
88,9,21,Ticks_Linear_5,131,9999,9999,9999,1364003912
88,9,21,Ticks_Linear_5,132,9999,9999,9999,1364743276
88,9,21,Ticks_Linear_5,133,9999,9999,9999,1365483612
88,9,21,Ticks_Linear_5,134,9999,9999,9999,1366223932
88,9,21,Ticks_Linear_5,135,9999,9999,9999,1366973556
88,9,21,Ticks_Linear_5,136,9999,9999,9999,1367723120
88,9,21,Ticks_Linear_5,137,9999,9999,9999,1368473692
88,9,21,Ticks_Linear_5,138,9999,9999,9999,1369223292
88,9,21,Ticks_Linear_5,139,9999,9999,9999,1369973848
88,9,21,Ticks_Linear_5,140,9999,9999,9999,1370733672
88,9,21,Ticks_Linear_5,141,9999,9999,9999,1371493480
88,9,21,Ticks_Linear_5,142,9999,9999,9999,1372253276
88,9,21,Ticks_Linear_5,143,9999,9999,9999,1373014072
88,9,21,Ticks_Linear_5,144,9999,9999,9999,1373783168
88,9,21,Ticks_Linear_5,145,9999,9999,9999,1374553160
88,9,21,Ticks_Linear_5,146,9999,9999,9999,1375323228
88,9,21,Ticks_Linear_5,147,9999,9999,9999,1376093296
88,9,21,Ticks_Linear_5,148,9999,9999,9999,1376863292
88,9,21,Ticks_Linear_5,149,9999,9999,9999,1377633340
88,9,21,Ticks_Linear_5,150,9999,9999,9999,1378413684
88,9,21,Ticks_Linear_5,151,9999,9999,9999,1379193936
88,9,21,Ticks_Linear_5,152,9999,9999,9999,1379973204
88,9,21,Ticks_Linear_5,153,9999,9999,9999,1380753532
88,9,21,Ticks_Linear_5,154,9999,9999,9999,1381533800
88,9,21,Ticks_Linear_5,155,9999,9999,9999,1382323264
88,9,21,Ticks_Linear_5,156,9999,9999,9999,1383113848
88,9,21,Ticks_Linear_5,157,9999,9999,9999,1383903316
88,9,21,Ticks_Linear_5,158,9999,9999,9999,1384693824
88,9,21,Ticks_Linear_5,159,9999,9999,9999,1385483364
88,9,21,Ticks_Linear_5,160,9999,9999,9999,1386283092
88,9,21,Ticks_Linear_5,161,9999,9999,9999,1387083860
88,9,21,Ticks_Linear_5,162,9999,9999,9999,1387883584
88,9,21,Ticks_Linear_5,163,9999,9999,9999,1388683380
88,9,21,Ticks_Linear_5,164,9999,9999,9999,1389483128
88,9,21,Ticks_Linear_5,165,9999,9999,9999,1390294084
88,9,21,Ticks_Linear_5,166,9999,9999,9999,1391104128
88,9,21,Ticks_Linear_5,167,9999,9999,9999,1391923264
88,9,21,Ticks_Linear_5,168,9999,9999,9999,1392733304
88,9,21,Ticks_Linear_5,169,9999,9999,9999,1393543228
88,10,20,Ticks_Linear_8,0,5,42,127,1403408832
88,10,20,Ticks_Linear_8,1,5,42,127,1404229172
88,10,20,Ticks_Linear_8,2,5,42,127,1405049284
88,10,20,Ticks_Linear_8,3,5,42,127,1405869500
88,10,20,Ticks_Linear_8,4,5,42,127,1406698976
88,10,20,Ticks_Linear_8,5,1,48,84,1406814124
88,10,20,Ticks_Linear_8,6,1,48,126,1407500600
88,10,20,Ticks_Linear_8,7,5,42,127,1407508952
88,10,20,Ticks_Linear_8,8,1,48,110,1408299724
88,10,20,Ticks_Linear_8,9,5,42,127,1408318860
88,10,20,Ticks_Linear_8,10,1,48,93,1409110976
88,10,20,Ticks_Linear_8,11,5,42,127,1409128920
88,10,20,Ticks_Linear_8,12,1,48,83,1409928080
88,10,20,Ticks_Linear_8,13,5,42,127,1409938900
88,10,20,Ticks_Linear_8,14,5,42,127,1410748992
88,10,20,Ticks_Linear_8,15,1,48,84,1410750560
88,10,20,Ticks_Linear_8,16,5,42,127,1411548644
88,10,20,Ticks_Linear_8,17,1,48,62,1411562316
88,10,20,Ticks_Linear_8,18,5,42,127,1412349264
88,10,20,Ticks_Linear_8,19,1,48,74,1412375516
88,10,20,Ticks_Linear_8,20,5,42,127,1413148988
88,10,20,Ticks_Linear_8,21,1,48,71,1413151812
88,10,20,Ticks_Linear_8,22,1,48,95,1413939156
88,10,20,Ticks_Linear_8,23,5,42,127,1413948932
88,10,20,Ticks_Linear_8,24,5,42,127,1414748516
88,10,20,Ticks_Linear_8,25,1,48,81,1414749928
88,10,20,Ticks_Linear_8,26,1,48,80,1415534928
88,10,20,Ticks_Linear_8,27,5,42,127,1415539092
88,10,20,Ticks_Linear_8,28,1,48,77,1416282832
88,10,20,Ticks_Linear_8,29,5,42,127,1416328560
88,10,20,Ticks_Linear_8,30,1,48,83,1417111240
88,10,20,Ticks_Linear_8,31,5,42,127,1417119096
88,10,20,Ticks_Linear_8,32,5,42,127,1417908640
88,10,20,Ticks_Linear_8,33,1,48,82,1417933400
88,10,20,Ticks_Linear_8,34,5,42,127,1418699080
88,10,20,Ticks_Linear_8,35,1,48,64,1418720772
88,10,20,Ticks_Linear_8,36,1,48,67,1419478880
88,10,20,Ticks_Linear_8,37,5,42,127,1419480224
88,10,20,Ticks_Linear_8,38,1,48,65,1420229736
88,10,20,Ticks_Linear_8,39,5,42,127,1420258904
88,10,20,Ticks_Linear_8,40,1,48,62,1421003840
88,10,20,Ticks_Linear_8,41,5,42,127,1421039004
88,10,20,Ticks_Linear_8,42,1,48,67,1421792332
88,10,20,Ticks_Linear_8,43,5,42,127,1421819408
88,10,20,Ticks_Linear_8,44,1,48,80,1422598092
88,10,20,Ticks_Linear_8,45,5,42,127,1422599736
88,10,20,Ticks_Linear_8,46,5,42,127,1423368836
88,10,20,Ticks_Linear_8,47,1,48,66,1423382668
88,10,20,Ticks_Linear_8,48,5,42,127,1424138832
88,10,20,Ticks_Linear_8,49,1,48,69,1424144116
88,10,20,Ticks_Linear_8,50,1,48,67,1424908452
88,10,20,Ticks_Linear_8,51,5,42,127,1424909940
88,10,20,Ticks_Linear_8,52,5,42,127,1425678744
88,10,20,Ticks_Linear_8,53,1,48,64,1425716916
88,10,20,Ticks_Linear_8,54,5,42,127,1426448888
88,10,20,Ticks_Linear_8,55,1,48,73,1426463608
88,10,20,Ticks_Linear_8,56,1,48,75,1427197420
88,10,20,Ticks_Linear_8,57,5,42,127,1427208760
88,10,20,Ticks_Linear_8,58,1,48,73,1427964704
88,10,20,Ticks_Linear_8,59,5,42,127,1427969320
88,10,20,Ticks_Linear_8,60,5,42,127,1428729208
88,10,20,Ticks_Linear_8,61,1,48,81,1428732400
88,10,20,Ticks_Linear_8,62,1,48,51,1429465596
88,10,20,Ticks_Linear_8,63,5,42,127,1429489012
88,10,20,Ticks_Linear_8,64,1,48,81,1430243684
88,10,20,Ticks_Linear_8,65,5,42,127,1430248820
88,10,20,Ticks_Linear_8,66,1,48,70,1430975404
88,10,20,Ticks_Linear_8,67,5,42,127,1430999492
88,10,20,Ticks_Linear_8,68,1,48,60,1431730428
88,10,20,Ticks_Linear_8,69,5,42,127,1431748892
88,10,20,Ticks_Linear_8,70,1,48,24,1431801948
88,10,20,Ticks_Linear_8,71,1,48,79,1432487820
88,10,20,Ticks_Linear_8,72,5,42,127,1432498644
88,10,20,Ticks_Linear_8,73,1,48,51,1433234644
88,10,20,Ticks_Linear_8,74,5,42,127,1433249020
88,10,20,Ticks_Linear_8,75,5,42,127,1433998700
88,10,20,Ticks_Linear_8,76,1,48,78,1434008936
88,10,20,Ticks_Linear_8,77,1,48,28,1434082620
88,10,20,Ticks_Linear_8,78,5,42,127,1434738940
88,10,20,Ticks_Linear_8,79,1,48,76,1434752540
88,10,20,Ticks_Linear_8,80,1,48,78,1435452340
88,10,20,Ticks_Linear_8,81,5,42,127,1435479640
88,10,20,Ticks_Linear_8,82,1,48,83,1436183536
88,10,20,Ticks_Linear_8,83,5,42,127,1436218708
88,10,20,Ticks_Linear_8,84,1,48,57,1436920140
88,10,20,Ticks_Linear_8,85,5,42,127,1436959048
88,10,20,Ticks_Linear_8,86,1,48,88,1437669236
88,10,20,Ticks_Linear_8,87,5,42,127,1437698488
88,10,20,Ticks_Linear_8,88,1,48,26,1437757236
88,10,20,Ticks_Linear_8,89,5,42,127,1438428624
88,10,20,Ticks_Linear_8,90,1,48,86,1438435256
88,10,20,Ticks_Linear_8,91,5,42,127,1439158628
88,10,20,Ticks_Linear_8,92,1,48,59,1439174848
88,10,20,Ticks_Linear_8,93,1,38,18,1439184264
88,10,20,Ticks_Linear_8,94,5,42,127,1439888708
88,10,20,Ticks_Linear_8,95,1,48,83,1439897752
88,10,20,Ticks_Linear_8,96,5,42,127,1440618836
88,10,20,Ticks_Linear_8,97,1,48,96,1440633556
88,10,20,Ticks_Linear_8,98,5,42,127,1441348988
88,10,20,Ticks_Linear_8,99,1,48,106,1441349880
88,10,20,Ticks_Linear_8,100,5,42,127,1442068736
88,10,20,Ticks_Linear_8,101,1,48,104,1442077176
88,10,20,Ticks_Linear_8,102,1,48,103,1442785800
88,10,20,Ticks_Linear_8,103,5,42,127,1442788624
88,10,20,Ticks_Linear_8,104,5,42,127,1443508524
88,10,20,Ticks_Linear_8,105,1,48,109,1443520476
88,10,20,Ticks_Linear_8,106,5,42,127,1444228616
88,10,20,Ticks_Linear_8,107,1,48,96,1444264704
88,10,20,Ticks_Linear_8,108,1,38,20,1444275168
88,10,20,Ticks_Linear_8,109,5,42,127,1444949360
88,10,20,Ticks_Linear_8,110,1,48,94,1444959148
88,10,20,Ticks_Linear_8,111,5,42,127,1445658920
88,10,20,Ticks_Linear_8,112,1,48,115,1445660936
88,10,20,Ticks_Linear_8,113,5,42,127,1446368632
88,10,20,Ticks_Linear_8,114,1,48,112,1446379692
88,10,20,Ticks_Linear_8,115,5,42,127,1447079312
88,10,20,Ticks_Linear_8,116,1,48,102,1447081904
88,10,20,Ticks_Linear_8,117,5,42,127,1447788848
88,10,20,Ticks_Linear_8,118,1,48,127,1447792864
88,10,20,Ticks_Linear_8,119,1,48,18,1447895456
88,10,20,Ticks_Linear_8,120,1,48,118,1448485900
88,10,20,Ticks_Linear_8,121,5,42,127,1448498604
88,10,20,Ticks_Linear_8,122,1,48,112,1449187304
88,10,20,Ticks_Linear_8,123,5,42,127,1449199100
88,10,20,Ticks_Linear_8,124,1,48,31,1449279864
88,10,20,Ticks_Linear_8,125,5,42,127,1449899508
88,10,20,Ticks_Linear_8,126,1,48,116,1449909144
88,10,20,Ticks_Linear_8,127,1,48,127,1450591092
88,10,20,Ticks_Linear_8,128,5,42,127,1450598776
88,10,20,Ticks_Linear_8,129,1,48,122,1451289276
88,10,20,Ticks_Linear_8,130,5,42,127,1451299128
88,10,20,Ticks_Linear_8,131,1,48,105,1451989252
88,10,20,Ticks_Linear_8,132,5,42,127,1451998576
88,10,20,Ticks_Linear_8,133,1,38,21,1451999764
88,10,20,Ticks_Linear_8,134,5,42,127,1452688832
88,10,20,Ticks_Linear_8,135,1,48,118,1452693444
88,10,20,Ticks_Linear_8,136,5,42,127,1453378848
88,10,20,Ticks_Linear_8,137,1,48,127,1453392896
88,10,20,Ticks_Linear_8,138,5,42,127,1454069532
88,10,20,Ticks_Linear_8,139,1,48,127,1454096776
88,10,20,Ticks_Linear_8,140,1,48,41,1454189612
88,10,20,Ticks_Linear_8,141,5,42,127,1454759448
88,10,20,Ticks_Linear_8,142,1,48,117,1454794020
88,10,20,Ticks_Linear_8,143,5,42,127,1455448392
88,10,20,Ticks_Linear_8,144,1,48,127,1455490380
88,10,20,Ticks_Linear_8,145,1,48,117,1456108252
88,10,20,Ticks_Linear_8,146,5,42,127,1456129260
88,10,20,Ticks_Linear_8,147,5,42,127,1456809324
88,10,20,Ticks_Linear_8,148,1,48,127,1456821052
88,10,20,Ticks_Linear_8,149,5,42,127,1457489276
88,10,20,Ticks_Linear_8,150,1,48,114,1457508796
88,10,20,Ticks_Linear_8,151,5,42,127,1458169252
88,10,20,Ticks_Linear_8,152,1,48,127,1458191544
88,10,20,Ticks_Linear_8,153,5,42,127,1458849232
88,10,20,Ticks_Linear_8,154,1,48,124,1458861264
88,10,20,Ticks_Linear_8,155,5,42,127,1459518704
88,10,20,Ticks_Linear_8,156,1,48,113,1459538304
88,10,20,Ticks_Linear_8,157,5,42,127,1460188496
88,10,20,Ticks_Linear_8,158,1,48,112,1460204940
88,10,20,Ticks_Linear_8,159,5,42,127,1460859240
88,10,20,Ticks_Linear_8,160,1,48,116,1460874036
88,10,20,Ticks_Linear_8,161,1,48,98,1461519100
88,10,20,Ticks_Linear_8,162,5,42,127,1461529248
88,10,20,Ticks_Linear_8,163,5,42,127,1462198528
88,10,20,Ticks_Linear_8,164,1,48,110,1462201120
88,10,20,Ticks_Linear_8,165,5,42,127,1462859232
88,10,20,Ticks_Linear_8,166,1,48,83,1462869396
88,10,20,Ticks_Linear_8,167,5,42,127,1463518616
88,10,20,Ticks_Linear_8,168,1,48,101,1463539188
88,10,20,Ticks_Linear_8,169,5,42,127,1464179024
88,10,20,Ticks_Linear_8,170,1,48,112,1464181692
88,10,20,Ticks_Linear_8,171,1,48,116,1464827880
88,10,20,Ticks_Linear_8,172,5,42,127,1464838480
88,10,20,Ticks_Linear_8,173,1,48,86,1465480796
88,10,20,Ticks_Linear_8,174,5,42,127,1465499060
88,10,20,Ticks_Linear_8,175,1,48,104,1466124376
88,10,20,Ticks_Linear_8,176,5,42,127,1466149284
88,10,20,Ticks_Linear_8,177,1,48,118,1466765084
88,10,20,Ticks_Linear_8,178,5,42,127,1466798336
88,10,20,Ticks_Linear_8,179,1,48,116,1467412116
88,10,20,Ticks_Linear_8,180,5,42,127,1467448784
88,10,20,Ticks_Linear_8,181,1,48,127,1468055972
88,10,20,Ticks_Linear_8,182,5,42,127,1468099180
88,10,20,Ticks_Linear_8,183,1,48,126,1468730864
88,10,20,Ticks_Linear_8,184,5,42,127,1468749184
88,10,20,Ticks_Linear_8,185,1,48,125,1469346136
88,10,20,Ticks_Linear_8,186,5,42,127,1469389172
88,10,20,Ticks_Linear_8,187,1,48,102,1470008428
88,10,20,Ticks_Linear_8,188,5,42,127,1470029132
88,10,20,Ticks_Linear_8,189,1,48,48,1470069308
88,10,20,Ticks_Linear_8,190,5,42,127,1470669180
88,10,20,Ticks_Linear_8,191,1,48,109,1470675512
88,10,20,Ticks_Linear_8,192,1,38,20,1470686200
88,10,20,Ticks_Linear_8,193,1,48,31,1470765036
88,10,20,Ticks_Linear_8,194,5,42,127,1471309224
88,10,20,Ticks_Linear_8,195,1,48,94,1471341776
88,10,20,Ticks_Linear_8,196,5,42,127,1471949212
88,10,20,Ticks_Linear_8,197,1,48,87,1472011044
88,10,20,Ticks_Linear_8,198,1,48,18,1472126860
88,10,20,Ticks_Linear_8,199,5,42,127,1472578896
88,10,20,Ticks_Linear_8,200,1,48,126,1472633604
88,10,20,Ticks_Linear_8,201,5,42,127,1473208848
88,10,20,Ticks_Linear_8,202,1,48,88,1473246352
88,10,20,Ticks_Linear_8,203,1,38,20,1473256500
88,10,20,Ticks_Linear_8,204,1,48,35,1473339012
88,10,20,Ticks_Linear_8,205,5,42,127,1473838496
88,10,20,Ticks_Linear_8,206,1,48,84,1473858920
88,10,20,Ticks_Linear_8,207,1,48,33,1473968184
88,10,20,Ticks_Linear_8,208,1,48,110,1474460592
88,10,20,Ticks_Linear_8,209,5,42,127,1474469096
88,10,20,Ticks_Linear_8,210,5,42,127,1475099180
88,10,20,Ticks_Linear_8,211,1,48,99,1475103492
88,10,20,Ticks_Linear_8,212,5,42,127,1475718404
88,10,20,Ticks_Linear_8,213,1,48,127,1475765648
88,10,20,Ticks_Linear_8,214,5,42,127,1476338996
88,10,20,Ticks_Linear_8,215,1,48,127,1476378436
88,10,20,Ticks_Linear_8,216,5,42,127,1476958740
88,10,20,Ticks_Linear_8,217,1,48,120,1476984468
88,10,20,Ticks_Linear_8,218,5,42,127,1477579108
88,10,20,Ticks_Linear_8,219,1,48,110,1477580220
88,10,20,Ticks_Linear_8,220,1,48,26,1477657700
88,10,20,Ticks_Linear_8,221,5,42,127,1478198828
88,10,20,Ticks_Linear_8,222,1,48,127,1478221644
88,10,20,Ticks_Linear_8,223,5,42,127,1478809016
88,10,20,Ticks_Linear_8,224,1,48,127,1478840668
88,10,20,Ticks_Linear_8,225,5,42,127,1479419176
88,10,20,Ticks_Linear_8,226,1,48,127,1479468652
88,10,20,Ticks_Linear_8,227,5,42,127,1480028512
88,10,20,Ticks_Linear_8,228,1,48,122,1480043684
88,10,20,Ticks_Linear_8,229,1,48,118,1480615420
88,10,20,Ticks_Linear_8,230,5,42,127,1480638836
88,10,20,Ticks_Linear_8,231,1,48,127,1481218024
88,10,20,Ticks_Linear_8,232,5,42,127,1481249072
88,10,20,Ticks_Linear_8,233,1,48,127,1481843676
88,10,20,Ticks_Linear_8,234,5,42,127,1481849192
88,10,20,Ticks_Linear_8,235,5,42,127,1482449200
88,10,20,Ticks_Linear_8,236,1,48,127,1482451864
88,10,20,Ticks_Linear_8,237,5,42,127,1483049320
88,10,20,Ticks_Linear_8,238,1,48,125,1483056640
88,10,20,Ticks_Linear_8,239,5,42,127,1483649368
88,10,20,Ticks_Linear_8,240,1,48,127,1483680824
88,10,20,Ticks_Linear_8,241,1,48,23,1483790284
88,10,20,Ticks_Linear_8,242,5,42,127,1484248824
88,10,20,Ticks_Linear_8,243,1,48,109,1484270292
88,10,20,Ticks_Linear_8,244,5,42,127,1484839364
88,10,20,Ticks_Linear_8,245,1,48,113,1484887796
88,10,20,Ticks_Linear_8,246,5,42,127,1485429076
88,10,20,Ticks_Linear_8,247,1,48,127,1485476692
88,10,20,Ticks_Linear_8,248,5,42,127,1486018968
88,10,20,Ticks_Linear_8,249,1,48,127,1486047704
88,10,20,Ticks_Linear_8,250,5,42,127,1486608828
88,10,20,Ticks_Linear_8,251,1,48,127,1486629624
88,10,20,Ticks_Linear_8,252,5,42,127,1487198844
88,10,20,Ticks_Linear_8,253,1,48,127,1487219488
88,10,20,Ticks_Linear_8,254,5,42,127,1487779148
88,10,20,Ticks_Linear_8,255,1,48,127,1487824200
88,10,20,Ticks_Linear_8,256,1,48,21,1487936820
88,10,20,Ticks_Linear_8,257,5,42,127,1488358880
88,10,20,Ticks_Linear_8,258,1,48,127,1488390080
88,10,20,Ticks_Linear_8,259,5,42,127,1488939384
88,10,20,Ticks_Linear_8,260,1,48,127,1488975296
88,10,20,Ticks_Linear_8,261,1,48,37,1489071460
88,10,20,Ticks_Linear_8,262,5,42,127,1489518964
88,10,20,Ticks_Linear_8,263,1,48,124,1489546268
88,10,20,Ticks_Linear_8,264,5,42,127,1490098596
88,10,20,Ticks_Linear_8,265,1,48,127,1490128824
88,10,20,Ticks_Linear_8,266,5,42,127,1490668988
88,10,20,Ticks_Linear_8,267,1,48,127,1490681688
88,10,20,Ticks_Linear_8,268,1,48,20,1490818420
88,10,20,Ticks_Linear_8,269,1,48,127,1491225448
88,10,20,Ticks_Linear_8,270,5,42,127,1491239352
88,10,20,Ticks_Linear_8,271,1,48,29,1491308888
88,10,20,Ticks_Linear_8,272,5,42,127,1491808608
88,10,20,Ticks_Linear_8,273,1,48,127,1491816976
88,10,20,Ticks_Linear_8,274,1,48,55,1491904356
88,10,20,Ticks_Linear_8,275,5,42,127,1492378928
88,10,20,Ticks_Linear_8,276,1,48,120,1492388416
88,10,20,Ticks_Linear_8,277,1,48,26,1492495848
88,10,20,Ticks_Linear_8,278,5,42,127,1492949228
88,10,20,Ticks_Linear_8,279,1,48,105,1492973084
88,10,20,Ticks_Linear_8,280,5,42,127,1493508760
88,10,20,Ticks_Linear_8,281,1,48,93,1493537420
88,10,20,Ticks_Linear_8,282,5,42,127,1494068892
88,10,20,Ticks_Linear_8,283,1,48,127,1494079584
88,10,20,Ticks_Linear_8,284,5,42,127,1494628880
88,10,20,Ticks_Linear_8,285,1,48,125,1494657016
88,10,20,Ticks_Linear_8,286,5,42,127,1495188716
88,10,20,Ticks_Linear_8,287,1,48,117,1495190052
88,10,20,Ticks_Linear_8,288,5,42,127,1495749024
88,10,20,Ticks_Linear_8,289,1,48,127,1495781428
88,10,20,Ticks_Linear_8,290,5,42,127,1496298748
88,10,20,Ticks_Linear_8,291,1,48,127,1496311828
88,10,20,Ticks_Linear_8,292,5,42,127,1496848772
88,10,20,Ticks_Linear_8,293,1,48,127,1496868520
88,10,20,Ticks_Linear_8,294,5,42,127,1497398944
88,10,20,Ticks_Linear_8,295,1,48,119,1497431792
88,10,20,Ticks_Linear_8,296,5,42,127,1497948744
88,10,20,Ticks_Linear_8,297,1,48,127,1497972604
88,10,20,Ticks_Linear_8,298,5,42,127,1498498472
88,10,20,Ticks_Linear_8,299,1,48,114,1498529548
88,10,20,Ticks_Linear_8,300,5,42,127,1499039084
88,10,20,Ticks_Linear_8,301,1,48,101,1499080616
88,10,20,Ticks_Linear_8,302,5,42,127,1499578848
88,10,20,Ticks_Linear_8,303,1,48,127,1499594244
88,10,20,Ticks_Linear_8,304,5,42,127,1500119584
88,10,20,Ticks_Linear_8,305,1,48,127,1500125396
88,10,20,Ticks_Linear_8,306,1,48,127,1500651288
88,10,20,Ticks_Linear_8,307,5,42,127,1500658968
88,10,20,Ticks_Linear_8,308,1,48,102,1501195236
88,10,20,Ticks_Linear_8,309,5,42,127,1501198808
88,10,20,Ticks_Linear_8,310,5,42,127,1501729516
88,10,20,Ticks_Linear_8,311,1,48,127,1501736748
88,10,20,Ticks_Linear_8,312,1,48,124,1502249768
88,10,20,Ticks_Linear_8,313,5,42,127,1502258572
88,10,20,Ticks_Linear_8,314,1,48,127,1502771032
88,10,20,Ticks_Linear_8,315,5,42,127,1502788976
88,10,20,Ticks_Linear_8,316,1,48,127,1503306292
88,10,20,Ticks_Linear_8,317,5,42,127,1503319520
88,10,20,Ticks_Linear_8,318,1,48,127,1503848660
88,10,20,Ticks_Linear_8,319,5,42,127,1503850368
88,10,20,Ticks_Linear_8,320,1,48,120,1504342320
88,10,20,Ticks_Linear_8,321,5,42,127,1504368948
88,10,20,Ticks_Linear_8,322,1,48,127,1504864256
88,10,20,Ticks_Linear_8,323,5,42,127,1504889316
88,10,20,Ticks_Linear_8,324,1,48,127,1505405740
88,10,20,Ticks_Linear_8,325,5,42,127,1505409460
88,10,20,Ticks_Linear_8,326,5,42,127,1505928488
88,10,20,Ticks_Linear_8,327,1,48,119,1505935340
88,10,20,Ticks_Linear_8,328,5,42,127,1506448708
88,10,20,Ticks_Linear_8,329,1,48,122,1506452724
88,10,20,Ticks_Linear_8,330,1,38,22,1506463596
88,10,20,Ticks_Linear_8,331,5,42,127,1506958784
88,10,20,Ticks_Linear_8,332,1,48,127,1506993748
88,10,20,Ticks_Linear_8,333,5,42,127,1507468668
88,10,20,Ticks_Linear_8,334,1,48,127,1507508060
88,10,20,Ticks_Linear_8,335,5,42,127,1507978628
88,10,20,Ticks_Linear_8,336,1,48,116,1508002808
88,10,20,Ticks_Linear_8,337,5,42,127,1508488512
88,10,20,Ticks_Linear_8,338,1,48,127,1508497480
88,10,20,Ticks_Linear_8,339,5,42,127,1508998396
88,10,20,Ticks_Linear_8,340,1,48,127,1509017344
88,10,20,Ticks_Linear_8,341,5,42,127,1509499440
88,10,20,Ticks_Linear_8,342,1,48,122,1509523604
88,10,20,Ticks_Linear_8,343,1,38,21,1509534548
88,10,20,Ticks_Linear_8,344,5,42,127,1509998956
88,10,20,Ticks_Linear_8,345,1,48,100,1510039848
88,10,20,Ticks_Linear_8,346,5,42,127,1510498656
88,10,20,Ticks_Linear_8,347,1,48,127,1510512932
88,10,20,Ticks_Linear_8,348,5,42,127,1510999552
88,10,20,Ticks_Linear_8,349,1,48,125,1511010388
88,10,20,Ticks_Linear_8,350,5,42,127,1511499176
88,10,20,Ticks_Linear_8,351,1,48,125,1511511508
88,10,20,Ticks_Linear_8,352,1,48,127,1511971420
88,10,20,Ticks_Linear_8,353,5,42,127,1511988536
88,10,20,Ticks_Linear_8,354,1,48,96,1512454488
88,10,20,Ticks_Linear_8,355,5,42,127,1512479248
88,10,20,Ticks_Linear_8,356,1,48,127,1512956136
88,10,20,Ticks_Linear_8,357,5,42,127,1512968540
88,10,20,Ticks_Linear_8,358,1,48,124,1513451572
88,10,20,Ticks_Linear_8,359,5,42,127,1513458952
88,10,20,Ticks_Linear_8,360,1,48,109,1513940264
88,10,20,Ticks_Linear_8,361,5,42,127,1513948472
88,10,20,Ticks_Linear_8,0,9999,9999,9999,1403406460
88,10,20,Ticks_Linear_8,1,9999,9999,9999,1404226648
88,10,20,Ticks_Linear_8,2,9999,9999,9999,1405046912
88,10,20,Ticks_Linear_8,3,9999,9999,9999,1405867128
88,10,20,Ticks_Linear_8,4,9999,9999,9999,1406696528
88,10,20,Ticks_Linear_8,5,9999,9999,9999,1407506508
88,10,20,Ticks_Linear_8,6,9999,9999,9999,1408316488
88,10,20,Ticks_Linear_8,7,9999,9999,9999,1409126472
88,10,20,Ticks_Linear_8,8,9999,9999,9999,1409936456
88,10,20,Ticks_Linear_8,9,9999,9999,9999,1410746472
88,10,20,Ticks_Linear_8,10,9999,9999,9999,1411546196
88,10,20,Ticks_Linear_8,11,9999,9999,9999,1412346968
88,10,20,Ticks_Linear_8,12,9999,9999,9999,1413146688
88,10,20,Ticks_Linear_8,13,9999,9999,9999,1413946484
88,10,20,Ticks_Linear_8,14,9999,9999,9999,1414746216
88,10,20,Ticks_Linear_8,15,9999,9999,9999,1415536720
88,10,20,Ticks_Linear_8,16,9999,9999,9999,1416326260
88,10,20,Ticks_Linear_8,17,9999,9999,9999,1417116796
88,10,20,Ticks_Linear_8,18,9999,9999,9999,1417906268
88,10,20,Ticks_Linear_8,19,9999,9999,9999,1418696780
88,10,20,Ticks_Linear_8,20,9999,9999,9999,1419477108
88,10,20,Ticks_Linear_8,21,9999,9999,9999,1420256380
88,10,20,Ticks_Linear_8,22,9999,9999,9999,1421036632
88,10,20,Ticks_Linear_8,23,9999,9999,9999,1421816960
88,10,20,Ticks_Linear_8,24,9999,9999,9999,1422596172
88,10,20,Ticks_Linear_8,25,9999,9999,9999,1423366240
88,10,20,Ticks_Linear_8,26,9999,9999,9999,1424136308
88,10,20,Ticks_Linear_8,27,9999,9999,9999,1424906304
88,10,20,Ticks_Linear_8,28,9999,9999,9999,1425676368
88,10,20,Ticks_Linear_8,29,9999,9999,9999,1426446436
88,10,20,Ticks_Linear_8,30,9999,9999,9999,1427206240
88,10,20,Ticks_Linear_8,31,9999,9999,9999,1427967096
88,10,20,Ticks_Linear_8,32,9999,9999,9999,1428726908
88,10,20,Ticks_Linear_8,33,9999,9999,9999,1429486712
88,10,20,Ticks_Linear_8,34,9999,9999,9999,1430246524
88,10,20,Ticks_Linear_8,35,9999,9999,9999,1430997120
88,10,20,Ticks_Linear_8,36,9999,9999,9999,1431746668
88,10,20,Ticks_Linear_8,37,9999,9999,9999,1432496196
88,10,20,Ticks_Linear_8,38,9999,9999,9999,1433246796
88,10,20,Ticks_Linear_8,39,9999,9999,9999,1433996400
88,10,20,Ticks_Linear_8,40,9999,9999,9999,1434736716
88,10,20,Ticks_Linear_8,41,9999,9999,9999,1435477120
88,10,20,Ticks_Linear_8,42,9999,9999,9999,1436216412
88,10,20,Ticks_Linear_8,43,9999,9999,9999,1436956748
88,10,20,Ticks_Linear_8,44,9999,9999,9999,1437696112
88,10,20,Ticks_Linear_8,45,9999,9999,9999,1438426176
88,10,20,Ticks_Linear_8,46,9999,9999,9999,1439156332
88,10,20,Ticks_Linear_8,47,9999,9999,9999,1439886412
88,10,20,Ticks_Linear_8,48,9999,9999,9999,1440616536
88,10,20,Ticks_Linear_8,49,9999,9999,9999,1441346688
88,10,20,Ticks_Linear_8,50,9999,9999,9999,1442066508
88,10,20,Ticks_Linear_8,51,9999,9999,9999,1442786400
88,10,20,Ticks_Linear_8,52,9999,9999,9999,1443506300
88,10,20,Ticks_Linear_8,53,9999,9999,9999,1444226168
88,10,20,Ticks_Linear_8,54,9999,9999,9999,1444947060
88,10,20,Ticks_Linear_8,55,9999,9999,9999,1445656696
88,10,20,Ticks_Linear_8,56,9999,9999,9999,1446366332
88,10,20,Ticks_Linear_8,57,9999,9999,9999,1447076936
88,10,20,Ticks_Linear_8,58,9999,9999,9999,1447786624
88,10,20,Ticks_Linear_8,59,9999,9999,9999,1448496228
88,10,20,Ticks_Linear_8,60,9999,9999,9999,1449196652
88,10,20,Ticks_Linear_8,61,9999,9999,9999,1449897060
88,10,20,Ticks_Linear_8,62,9999,9999,9999,1450596480
88,10,20,Ticks_Linear_8,63,9999,9999,9999,1451296828
88,10,20,Ticks_Linear_8,64,9999,9999,9999,1451996276
88,10,20,Ticks_Linear_8,65,9999,9999,9999,1452686460
88,10,20,Ticks_Linear_8,66,9999,9999,9999,1453376624
88,10,20,Ticks_Linear_8,67,9999,9999,9999,1454066788
88,10,20,Ticks_Linear_8,68,9999,9999,9999,1454756928
88,10,20,Ticks_Linear_8,69,9999,9999,9999,1455446092
88,10,20,Ticks_Linear_8,70,9999,9999,9999,1456127036
88,10,20,Ticks_Linear_8,71,9999,9999,9999,1456807024
88,10,20,Ticks_Linear_8,72,9999,9999,9999,1457486976
88,10,20,Ticks_Linear_8,73,9999,9999,9999,1458166880
88,10,20,Ticks_Linear_8,74,9999,9999,9999,1458846784
88,10,20,Ticks_Linear_8,75,9999,9999,9999,1459516480
88,10,20,Ticks_Linear_8,76,9999,9999,9999,1460186196
88,10,20,Ticks_Linear_8,77,9999,9999,9999,1460856940
88,10,20,Ticks_Linear_8,78,9999,9999,9999,1461526652
88,10,20,Ticks_Linear_8,79,9999,9999,9999,1462196300
88,10,20,Ticks_Linear_8,80,9999,9999,9999,1462856784
88,10,20,Ticks_Linear_8,81,9999,9999,9999,1463516244
88,10,20,Ticks_Linear_8,82,9999,9999,9999,1464176728
88,10,20,Ticks_Linear_8,83,9999,9999,9999,1464836184
88,10,20,Ticks_Linear_8,84,9999,9999,9999,1465496688
88,10,20,Ticks_Linear_8,85,9999,9999,9999,1466146912
88,10,20,Ticks_Linear_8,86,9999,9999,9999,1466796112
88,10,20,Ticks_Linear_8,87,9999,9999,9999,1467446336
88,10,20,Ticks_Linear_8,88,9999,9999,9999,1468096584
88,10,20,Ticks_Linear_8,89,9999,9999,9999,1468746880
88,10,20,Ticks_Linear_8,90,9999,9999,9999,1469386872
88,10,20,Ticks_Linear_8,91,9999,9999,9999,1470026836
88,10,20,Ticks_Linear_8,92,9999,9999,9999,1470666880
88,10,20,Ticks_Linear_8,93,9999,9999,9999,1471306852
88,10,20,Ticks_Linear_8,94,9999,9999,9999,1471946840
88,10,20,Ticks_Linear_8,95,9999,9999,9999,1472576596
88,10,20,Ticks_Linear_8,96,9999,9999,9999,1473206400
88,10,20,Ticks_Linear_8,97,9999,9999,9999,1473836124
88,10,20,Ticks_Linear_8,98,9999,9999,9999,1474466872
88,10,20,Ticks_Linear_8,99,9999,9999,9999,1475096656
88,10,20,Ticks_Linear_8,100,9999,9999,9999,1475716180
88,10,20,Ticks_Linear_8,101,9999,9999,9999,1476336696
88,10,20,Ticks_Linear_8,102,9999,9999,9999,1476956216
88,10,20,Ticks_Linear_8,103,9999,9999,9999,1477576808
88,10,20,Ticks_Linear_8,104,9999,9999,9999,1478196308
88,10,20,Ticks_Linear_8,105,9999,9999,9999,1478806616
88,10,20,Ticks_Linear_8,106,9999,9999,9999,1479416948
88,10,20,Ticks_Linear_8,107,9999,9999,9999,1480026212
88,10,20,Ticks_Linear_8,108,9999,9999,9999,1480636536
88,10,20,Ticks_Linear_8,109,9999,9999,9999,1481246844
88,10,20,Ticks_Linear_8,110,9999,9999,9999,1481846896
88,10,20,Ticks_Linear_8,111,9999,9999,9999,1482446976
88,10,20,Ticks_Linear_8,112,9999,9999,9999,1483047020
88,10,20,Ticks_Linear_8,113,9999,9999,9999,1483647068
88,10,20,Ticks_Linear_8,114,9999,9999,9999,1484246080
88,10,20,Ticks_Linear_8,115,9999,9999,9999,1484836988
88,10,20,Ticks_Linear_8,116,9999,9999,9999,1485426776
88,10,20,Ticks_Linear_8,117,9999,9999,9999,1486016592
88,10,20,Ticks_Linear_8,118,9999,9999,9999,1486606456
88,10,20,Ticks_Linear_8,119,9999,9999,9999,1487196248
88,10,20,Ticks_Linear_8,120,9999,9999,9999,1487776848
88,10,20,Ticks_Linear_8,121,9999,9999,9999,1488356432
88,10,20,Ticks_Linear_8,122,9999,9999,9999,1488937084
88,10,20,Ticks_Linear_8,123,9999,9999,9999,1489516664
88,10,20,Ticks_Linear_8,124,9999,9999,9999,1490096220
88,10,20,Ticks_Linear_8,125,9999,9999,9999,1490666616
88,10,20,Ticks_Linear_8,126,9999,9999,9999,1491236980
88,10,20,Ticks_Linear_8,127,9999,9999,9999,1491806308
88,10,20,Ticks_Linear_8,128,9999,9999,9999,1492376704
88,10,20,Ticks_Linear_8,129,9999,9999,9999,1492947000
88,10,20,Ticks_Linear_8,130,9999,9999,9999,1493506164
88,10,20,Ticks_Linear_8,131,9999,9999,9999,1494066296
88,10,20,Ticks_Linear_8,132,9999,9999,9999,1494626432
88,10,20,Ticks_Linear_8,133,9999,9999,9999,1495186492
88,10,20,Ticks_Linear_8,134,9999,9999,9999,1495746652
88,10,20,Ticks_Linear_8,135,9999,9999,9999,1496296524
88,10,20,Ticks_Linear_8,136,9999,9999,9999,1496846400
88,10,20,Ticks_Linear_8,137,9999,9999,9999,1497396348
88,10,20,Ticks_Linear_8,138,9999,9999,9999,1497946224
88,10,20,Ticks_Linear_8,139,9999,9999,9999,1498496096
88,10,20,Ticks_Linear_8,140,9999,9999,9999,1499036784
88,10,20,Ticks_Linear_8,141,9999,9999,9999,1499576400
88,10,20,Ticks_Linear_8,142,9999,9999,9999,1500117060
88,10,20,Ticks_Linear_8,143,9999,9999,9999,1500656744
88,10,20,Ticks_Linear_8,144,9999,9999,9999,1501196360
88,10,20,Ticks_Linear_8,145,9999,9999,9999,1501726844
88,10,20,Ticks_Linear_8,146,9999,9999,9999,1502256200
88,10,20,Ticks_Linear_8,147,9999,9999,9999,1502786676
88,10,20,Ticks_Linear_8,148,9999,9999,9999,1503317072
88,10,20,Ticks_Linear_8,149,9999,9999,9999,1503846508
88,10,20,Ticks_Linear_8,150,9999,9999,9999,1504366648
88,10,20,Ticks_Linear_8,151,9999,9999,9999,1504886868
88,10,20,Ticks_Linear_8,152,9999,9999,9999,1505407088
88,10,20,Ticks_Linear_8,153,9999,9999,9999,1505926264
88,10,20,Ticks_Linear_8,154,9999,9999,9999,1506446408
88,10,20,Ticks_Linear_8,155,9999,9999,9999,1506956408
88,10,20,Ticks_Linear_8,156,9999,9999,9999,1507466368
88,10,20,Ticks_Linear_8,157,9999,9999,9999,1507976252
88,10,20,Ticks_Linear_8,158,9999,9999,9999,1508486212
88,10,20,Ticks_Linear_8,159,9999,9999,9999,1508996172
88,10,20,Ticks_Linear_8,160,9999,9999,9999,1509496916
88,10,20,Ticks_Linear_8,161,9999,9999,9999,1509996656
88,10,20,Ticks_Linear_8,162,9999,9999,9999,1510496360
88,10,20,Ticks_Linear_8,163,9999,9999,9999,1510997104
88,10,20,Ticks_Linear_8,164,9999,9999,9999,1511496804
88,10,20,Ticks_Linear_8,165,9999,9999,9999,1511986240
88,10,20,Ticks_Linear_8,166,9999,9999,9999,1512476800
88,10,20,Ticks_Linear_8,167,9999,9999,9999,1512966240
88,10,20,Ticks_Linear_8,168,9999,9999,9999,1513456728
88,10,20,Ticks_Linear_8,169,9999,9999,9999,1513946172
88,11,25,Jits_Pract_5,0,5,56,103,1559329228
88,11,25,Jits_Pract_5,1,5,63,98,1559332252
88,11,25,Jits_Pract_5,2,5,80,127,1559335372
88,11,25,Jits_Pract_5,0,5,56,103,1559828728
88,11,25,Jits_Pract_5,1,5,63,98,1559831900
88,11,25,Jits_Pract_5,2,5,80,127,1559835024
88,11,25,Jits_Pract_5,0,5,56,103,1560328696
88,11,25,Jits_Pract_5,1,5,80,127,1560338744
88,11,25,Jits_Pract_5,2,5,63,98,1560359576
88,11,25,Jits_Pract_5,0,5,63,98,1560778996
88,11,25,Jits_Pract_5,1,5,80,127,1560808892
88,11,25,Jits_Pract_5,2,5,56,103,1560819236
88,11,25,Jits_Pract_5,0,5,80,127,1561339108
88,11,25,Jits_Pract_5,1,5,56,103,1561348556
88,11,25,Jits_Pract_5,2,5,63,98,1561379052
88,11,25,Jits_Pract_5,0,5,63,98,1561828596
88,11,25,Jits_Pract_5,1,5,56,103,1561858492
88,11,25,Jits_Pract_5,2,5,80,127,1561868840
88,11,25,Jits_Pract_5,0,5,56,103,1562279548
88,11,25,Jits_Pract_5,1,5,63,98,1562328704
88,11,25,Jits_Pract_5,2,5,80,127,1562348944
88,11,25,Jits_Pract_5,0,5,80,127,1562778848
88,11,25,Jits_Pract_5,1,5,63,98,1562829276
88,11,25,Jits_Pract_5,2,5,56,103,1562869064
88,11,25,Jits_Pract_5,0,5,56,103,1563278640
88,11,25,Jits_Pract_5,1,5,63,98,1563309540
88,11,25,Jits_Pract_5,2,5,80,127,1563378920
88,11,25,Jits_Pract_5,0,5,56,103,1563778608
88,11,25,Jits_Pract_5,1,5,80,127,1563838800
88,11,25,Jits_Pract_5,2,5,63,98,1563868476
88,11,25,Jits_Pract_5,0,5,56,103,1564289660
88,11,25,Jits_Pract_5,1,5,63,98,1564298736
88,11,25,Jits_Pract_5,2,5,80,127,1564338624
88,11,25,Jits_Pract_5,0,5,63,98,1564778840
88,11,25,Jits_Pract_5,1,5,80,127,1564858812
88,11,25,Jits_Pract_5,2,5,56,103,1564869080
88,11,25,Jits_Pract_5,0,5,63,98,1565328620
88,11,25,Jits_Pract_5,1,5,56,103,1565368876
88,11,25,Jits_Pract_5,2,5,80,127,1565371868
88,11,25,Jits_Pract_5,0,5,56,103,1565788408
88,11,25,Jits_Pract_5,1,5,63,98,1565798752
88,11,25,Jits_Pract_5,2,5,80,127,1565838692
88,11,25,Jits_Pract_5,0,5,56,103,1566278924
88,11,25,Jits_Pract_5,1,5,63,98,1566282144
88,11,25,Jits_Pract_5,2,5,80,127,1566298488
88,11,25,Jits_Pract_5,0,9999,9999,9999,1559576664
88,11,25,Jits_Pract_5,1,9999,9999,9999,1560076392
88,11,25,Jits_Pract_5,2,9999,9999,9999,1560576064
88,11,25,Jits_Pract_5,3,9999,9999,9999,1561076848
88,11,25,Jits_Pract_5,4,9999,9999,9999,1561576512
88,11,25,Jits_Pract_5,5,9999,9999,9999,1562076260
88,11,25,Jits_Pract_5,6,9999,9999,9999,1562576964
88,11,25,Jits_Pract_5,7,9999,9999,9999,1563076708
88,11,25,Jits_Pract_5,8,9999,9999,9999,1563576376
88,11,25,Jits_Pract_5,9,9999,9999,9999,1564076120
88,11,25,Jits_Pract_5,10,9999,9999,9999,1564576832
88,11,25,Jits_Pract_5,11,9999,9999,9999,1565076576
88,11,25,Jits_Pract_5,12,9999,9999,9999,1565576276
88,11,25,Jits_Pract_5,13,9999,9999,9999,1566077048
88,11,25,Jits_Pract_5,14,9999,9999,9999,1566576700
88,12,25,Jits_Pract_5,0,5,56,103,1620470064
88,12,25,Jits_Pract_5,1,5,63,98,1620473312
88,12,25,Jits_Pract_5,2,5,80,127,1620476508
88,12,25,Jits_Pract_5,0,5,56,103,1620969940
88,12,25,Jits_Pract_5,1,5,63,98,1620973264
88,12,25,Jits_Pract_5,2,5,80,127,1620976160
88,12,25,Jits_Pract_5,0,5,56,103,1621469536
88,12,25,Jits_Pract_5,1,5,80,127,1621479656
88,12,25,Jits_Pract_5,2,5,63,98,1621500560
88,12,25,Jits_Pract_5,0,5,63,98,1621930616
88,12,25,Jits_Pract_5,1,5,80,127,1621959996
88,12,25,Jits_Pract_5,2,5,56,103,1621970412
88,12,25,Jits_Pract_5,0,5,80,127,1622489464
88,12,25,Jits_Pract_5,1,1,48,106,1622498292
88,12,25,Jits_Pract_5,2,5,56,103,1622500096
88,12,25,Jits_Pract_5,3,5,63,98,1622530448
88,12,25,Jits_Pract_5,0,5,63,98,1622979892
88,12,25,Jits_Pract_5,1,5,56,103,1623009644
88,12,25,Jits_Pract_5,2,1,48,101,1623014852
88,12,25,Jits_Pract_5,3,5,80,127,1623019756
88,12,25,Jits_Pract_5,0,5,56,103,1623429376
88,12,25,Jits_Pract_5,1,5,63,98,1623479604
88,12,25,Jits_Pract_5,2,1,48,93,1623485488
88,12,25,Jits_Pract_5,3,5,80,127,1623500500
88,12,25,Jits_Pract_5,0,5,80,127,1623930648
88,12,25,Jits_Pract_5,1,1,48,101,1623964136
88,12,25,Jits_Pract_5,2,5,63,98,1623980500
88,12,25,Jits_Pract_5,3,5,56,103,1624020512
88,12,25,Jits_Pract_5,0,5,56,103,1624429848
88,12,25,Jits_Pract_5,1,5,63,98,1624459672
88,12,25,Jits_Pract_5,2,1,48,87,1624475616
88,12,25,Jits_Pract_5,3,5,80,127,1624530416
88,12,25,Jits_Pract_5,0,5,56,103,1624929628
88,12,25,Jits_Pract_5,1,1,48,95,1624963536
88,12,25,Jits_Pract_5,2,5,80,127,1624989964
88,12,25,Jits_Pract_5,3,5,63,98,1625019712
88,12,25,Jits_Pract_5,0,5,56,103,1625439592
88,12,25,Jits_Pract_5,1,5,63,98,1625449788
88,12,25,Jits_Pract_5,2,1,48,81,1625454548
88,12,25,Jits_Pract_5,3,5,80,127,1625489744
88,12,25,Jits_Pract_5,0,5,63,98,1625940640
88,12,25,Jits_Pract_5,1,1,48,97,1625955144
88,12,25,Jits_Pract_5,2,5,80,127,1626020384
88,12,25,Jits_Pract_5,3,5,56,103,1626029460
88,12,25,Jits_Pract_5,0,1,48,88,1626456184
88,12,25,Jits_Pract_5,1,5,63,98,1626490452
88,12,25,Jits_Pract_5,2,5,56,103,1626530340
88,12,25,Jits_Pract_5,3,5,80,127,1626533256
88,12,25,Jits_Pract_5,0,5,56,103,1626950284
88,12,25,Jits_Pract_5,1,5,63,98,1626960332
88,12,25,Jits_Pract_5,2,5,80,127,1627000416
88,12,25,Jits_Pract_5,3,1,48,91,1627007504
88,12,25,Jits_Pract_5,0,5,56,103,1627439424
88,12,25,Jits_Pract_5,1,5,63,98,1627442416
88,12,25,Jits_Pract_5,2,5,80,127,1627460032
88,12,25,Jits_Pract_5,3,1,48,98,1627497696
88,12,25,Jits_Pract_5,0,9999,9999,9999,1620717652
88,12,25,Jits_Pract_5,1,9999,9999,9999,1621217376
88,12,25,Jits_Pract_5,2,9999,9999,9999,1621718096
88,12,25,Jits_Pract_5,3,9999,9999,9999,1622228024
88,12,25,Jits_Pract_5,4,9999,9999,9999,1622727740
88,12,25,Jits_Pract_5,5,9999,9999,9999,1623227460
88,12,25,Jits_Pract_5,6,9999,9999,9999,1623727160
88,12,25,Jits_Pract_5,7,9999,9999,9999,1624227916
88,12,25,Jits_Pract_5,8,9999,9999,9999,1624727636
88,12,25,Jits_Pract_5,9,9999,9999,9999,1625227316
88,12,25,Jits_Pract_5,10,9999,9999,9999,1625728060
88,12,25,Jits_Pract_5,11,9999,9999,9999,1626238036
88,12,25,Jits_Pract_5,12,9999,9999,9999,1626737724
88,12,25,Jits_Pract_5,13,9999,9999,9999,1627237484
88,12,25,Jits_Pract_5,14,9999,9999,9999,1627737176
88,13,24,Jits_Pract_8,0,5,56,103,1637492000
88,13,24,Jits_Pract_8,1,5,63,98,1637495092
88,13,24,Jits_Pract_8,2,5,80,127,1637498292
88,13,24,Jits_Pract_8,0,5,56,103,1638291964
88,13,24,Jits_Pract_8,1,5,63,98,1638294988
88,13,24,Jits_Pract_8,2,5,80,127,1638298036
88,13,24,Jits_Pract_8,0,5,80,127,1639032260
88,13,24,Jits_Pract_8,1,5,63,98,1639122344
88,13,24,Jits_Pract_8,2,5,56,103,1639131492
88,13,24,Jits_Pract_8,0,5,56,103,1639852472
88,13,24,Jits_Pract_8,1,5,63,98,1639861544
88,13,24,Jits_Pract_8,2,5,80,127,1639951676
88,13,24,Jits_Pract_8,0,5,63,98,1640621408
88,13,24,Jits_Pract_8,1,5,80,127,1640652132
88,13,24,Jits_Pract_8,2,5,56,103,1640682032
88,13,24,Jits_Pract_8,3,1,48,95,1640695040
88,13,24,Jits_Pract_8,0,1,48,95,1641370260
88,13,24,Jits_Pract_8,1,5,56,103,1641422052
88,13,24,Jits_Pract_8,2,5,80,127,1641521464
88,13,24,Jits_Pract_8,3,5,63,98,1641571592
88,13,24,Jits_Pract_8,0,5,56,103,1642221964
88,13,24,Jits_Pract_8,1,5,80,127,1642272316
88,13,24,Jits_Pract_8,2,5,63,98,1642312104
88,13,24,Jits_Pract_8,3,1,48,84,1642325112
88,13,24,Jits_Pract_8,0,5,80,127,1643052376
88,13,24,Jits_Pract_8,1,5,63,98,1643082272
88,13,24,Jits_Pract_8,2,1,48,77,1643118124
88,13,24,Jits_Pract_8,3,5,56,103,1643151968
88,13,24,Jits_Pract_8,0,5,63,98,1643882112
88,13,24,Jits_Pract_8,1,5,56,103,1643911492
88,13,24,Jits_Pract_8,2,1,48,78,1643920712
88,13,24,Jits_Pract_8,3,5,80,127,1643972048
88,13,24,Jits_Pract_8,0,5,56,103,1644622308
88,13,24,Jits_Pract_8,1,5,80,127,1644625372
88,13,24,Jits_Pract_8,2,1,48,79,1644711012
88,13,24,Jits_Pract_8,3,5,63,98,1644742124
88,13,24,Jits_Pract_8,0,5,56,103,1645501884
88,13,24,Jits_Pract_8,1,1,48,77,1645522688
88,13,24,Jits_Pract_8,2,5,80,127,1645541892
88,13,24,Jits_Pract_8,3,5,63,98,1645552012
88,13,24,Jits_Pract_8,0,5,56,103,1646261804
88,13,24,Jits_Pract_8,1,5,80,127,1646282040
88,13,24,Jits_Pract_8,2,1,48,73,1646334084
88,13,24,Jits_Pract_8,3,5,63,98,1646362052
88,13,24,Jits_Pract_8,0,5,80,127,1647052064
88,13,24,Jits_Pract_8,1,5,56,103,1647151488
88,13,24,Jits_Pract_8,2,1,48,83,1647159864
88,13,24,Jits_Pract_8,3,5,63,98,1647161752
88,13,24,Jits_Pract_8,0,5,63,98,1647822168
88,13,24,Jits_Pract_8,1,5,80,127,1647881660
88,13,24,Jits_Pract_8,2,5,56,103,1647892152
88,13,24,Jits_Pract_8,3,1,48,76,1647953632
88,13,24,Jits_Pract_8,0,5,56,103,1648621992
88,13,24,Jits_Pract_8,1,1,48,76,1648652388
88,13,24,Jits_Pract_8,2,5,63,98,1648691516
88,13,24,Jits_Pract_8,3,5,80,127,1648694952
88,13,24,Jits_Pract_8,0,9999,9999,9999,1637889132
88,13,24,Jits_Pract_8,1,9999,9999,9999,1638689896
88,13,24,Jits_Pract_8,2,9999,9999,9999,1639489636
88,13,24,Jits_Pract_8,3,9999,9999,9999,1640289368
88,13,24,Jits_Pract_8,4,9999,9999,9999,1641089148
88,13,24,Jits_Pract_8,5,9999,9999,9999,1641889904
88,13,24,Jits_Pract_8,6,9999,9999,9999,1642689652
88,13,24,Jits_Pract_8,7,9999,9999,9999,1643489348
88,13,24,Jits_Pract_8,8,9999,9999,9999,1644289124
88,13,24,Jits_Pract_8,9,9999,9999,9999,1645089912
88,13,24,Jits_Pract_8,10,9999,9999,9999,1645889616
88,13,24,Jits_Pract_8,11,9999,9999,9999,1646689388
88,13,24,Jits_Pract_8,12,9999,9999,9999,1647489092
88,13,24,Jits_Pract_8,13,9999,9999,9999,1648289852
88,13,24,Jits_Pract_8,14,9999,9999,9999,1649089596
88,14,16,Jits_ISO_5,0,5,56,103,1677216252
88,14,16,Jits_ISO_5,1,5,63,98,1677219356
88,14,16,Jits_ISO_5,2,5,80,127,1677222548
88,14,16,Jits_ISO_5,0,5,56,103,1677715748
88,14,16,Jits_ISO_5,1,5,63,98,1677718920
88,14,16,Jits_ISO_5,2,5,80,127,1677721968
88,14,16,Jits_ISO_5,0,5,56,103,1678215456
88,14,16,Jits_ISO_5,1,5,80,127,1678225680
88,14,16,Jits_ISO_5,2,5,63,98,1678246508
88,14,16,Jits_ISO_5,0,5,63,98,1678676460
88,14,16,Jits_ISO_5,1,5,80,127,1678705984
88,14,16,Jits_ISO_5,2,5,56,103,1678716476
88,14,16,Jits_ISO_5,0,1,48,109,1679187832
88,14,16,Jits_ISO_5,1,5,80,127,1679235660
88,14,16,Jits_ISO_5,2,5,56,103,1679245632
88,14,16,Jits_ISO_5,3,5,63,98,1679276428
88,14,16,Jits_ISO_5,0,1,48,89,1679703164
88,14,16,Jits_ISO_5,1,5,63,98,1679725880
88,14,16,Jits_ISO_5,2,5,56,103,1679755560
88,14,16,Jits_ISO_5,3,5,80,127,1679765904
88,14,16,Jits_ISO_5,0,5,56,103,1680175628
88,14,16,Jits_ISO_5,1,1,48,108,1680213724
88,14,16,Jits_ISO_5,2,5,63,98,1680225600
88,14,16,Jits_ISO_5,3,5,80,127,1680246132
88,14,16,Jits_ISO_5,0,5,80,127,1680676356
88,14,16,Jits_ISO_5,1,1,48,90,1680678652
88,14,16,Jits_ISO_5,2,5,63,98,1680726404
88,14,16,Jits_ISO_5,3,5,56,103,1680766488
88,14,16,Jits_ISO_5,0,5,56,103,1681175876
88,14,16,Jits_ISO_5,1,1,48,94,1681190752
88,14,16,Jits_ISO_5,2,5,63,98,1681205544
88,14,16,Jits_ISO_5,3,5,80,127,1681276416
88,14,16,Jits_ISO_5,0,5,56,103,1681675620
88,14,16,Jits_ISO_5,1,1,48,94,1681681436
88,14,16,Jits_ISO_5,2,5,80,127,1681736228
88,14,16,Jits_ISO_5,3,5,63,98,1681765604
88,14,16,Jits_ISO_5,0,1,48,84,1682176904
88,14,16,Jits_ISO_5,1,5,56,103,1682185548
88,14,16,Jits_ISO_5,2,5,63,98,1682195816
88,14,16,Jits_ISO_5,3,5,80,127,1682235752
88,14,16,Jits_ISO_5,0,1,48,83,1682661264
88,14,16,Jits_ISO_5,1,5,63,98,1682676056
88,14,16,Jits_ISO_5,2,5,80,127,1682755852
88,14,16,Jits_ISO_5,3,5,56,103,1682766480
88,14,16,Jits_ISO_5,0,1,48,71,1683177868
88,14,16,Jits_ISO_5,1,5,63,98,1683226064
88,14,16,Jits_ISO_5,2,5,56,103,1683265924
88,14,16,Jits_ISO_5,3,5,80,127,1683268920
88,14,16,Jits_ISO_5,0,5,56,103,1683685716
88,14,16,Jits_ISO_5,1,5,63,98,1683695912
88,14,16,Jits_ISO_5,2,1,48,82,1683714768
88,14,16,Jits_ISO_5,3,5,80,127,1683735916
88,14,16,Jits_ISO_5,0,5,56,103,1684176168
88,14,16,Jits_ISO_5,1,5,63,98,1684179308
88,14,16,Jits_ISO_5,2,5,80,127,1684195652
88,14,16,Jits_ISO_5,3,1,48,80,1684214884
88,14,16,Jits_ISO_5,0,1,48,73,1684680428
88,14,16,Jits_ISO_5,1,5,80,127,1684686304
88,14,16,Jits_ISO_5,2,5,56,103,1684696652
88,14,16,Jits_ISO_5,3,5,63,98,1684766028
88,14,16,Jits_ISO_5,0,5,63,98,1685175704
88,14,16,Jits_ISO_5,1,1,48,84,1685180544
88,14,16,Jits_ISO_5,2,5,56,103,1685196304
88,14,16,Jits_ISO_5,3,5,80,127,1685276004
88,14,16,Jits_ISO_5,0,1,48,94,1685670080
88,14,16,Jits_ISO_5,1,5,56,103,1685685616
88,14,16,Jits_ISO_5,2,5,80,127,1685725556
88,14,16,Jits_ISO_5,3,5,63,98,1685735824
88,14,16,Jits_ISO_5,0,1,48,110,1686167792
88,14,16,Jits_ISO_5,1,5,80,127,1686186316
88,14,16,Jits_ISO_5,2,5,63,98,1686216288
88,14,16,Jits_ISO_5,3,5,56,103,1686256376
88,14,16,Jits_ISO_5,0,1,48,107,1686696464
88,14,16,Jits_ISO_5,1,5,56,103,1686705404
88,14,16,Jits_ISO_5,2,1,38,20,1686707492
88,14,16,Jits_ISO_5,3,5,63,98,1686736416
88,14,16,Jits_ISO_5,4,5,80,127,1686786396
88,14,16,Jits_ISO_5,0,5,80,127,1687206456
88,14,16,Jits_ISO_5,1,1,48,93,1687214156
88,14,16,Jits_ISO_5,2,5,56,103,1687246164
88,14,16,Jits_ISO_5,3,5,63,98,1687256512
88,14,16,Jits_ISO_5,0,5,80,127,1687685500
88,14,16,Jits_ISO_5,1,1,48,94,1687716812
88,14,16,Jits_ISO_5,2,5,63,98,1687725380
88,14,16,Jits_ISO_5,3,5,56,103,1687785692
88,14,16,Jits_ISO_5,0,5,56,103,1688186440
88,14,16,Jits_ISO_5,1,5,80,127,1688195292
88,14,16,Jits_ISO_5,2,1,48,91,1688212136
88,14,16,Jits_ISO_5,3,5,63,98,1688276520
88,14,16,Jits_ISO_5,0,5,80,127,1688685960
88,14,16,Jits_ISO_5,1,1,48,84,1688712000
88,14,16,Jits_ISO_5,2,5,63,98,1688746224
88,14,16,Jits_ISO_5,3,5,56,103,1688776268
88,14,16,Jits_ISO_5,0,5,56,103,1689185560
88,14,16,Jits_ISO_5,1,1,48,88,1689226064
88,14,16,Jits_ISO_5,2,5,80,127,1689246268
88,14,16,Jits_ISO_5,3,5,63,98,1689285980
88,14,16,Jits_ISO_5,0,5,56,103,1689735500
88,14,16,Jits_ISO_5,1,1,48,96,1689739820
88,14,16,Jits_ISO_5,2,5,63,98,1689745788
88,14,16,Jits_ISO_5,3,5,80,127,1689749152
88,14,16,Jits_ISO_5,4,1,38,20,1689750644
88,14,16,Jits_ISO_5,0,5,80,127,1690196424
88,14,16,Jits_ISO_5,1,1,48,91,1690251460
88,14,16,Jits_ISO_5,2,5,63,98,1690285380
88,14,16,Jits_ISO_5,3,5,56,103,1690295648
88,14,16,Jits_ISO_5,0,5,56,103,1690696232
88,14,16,Jits_ISO_5,1,5,63,98,1690699180
88,14,16,Jits_ISO_5,2,5,80,127,1690702304
88,14,16,Jits_ISO_5,3,1,48,99,1690754284
88,14,16,Jits_ISO_5,4,1,38,20,1690765460
88,14,16,Jits_ISO_5,0,5,80,127,1691216424
88,14,16,Jits_ISO_5,1,5,63,98,1691266404
88,14,16,Jits_ISO_5,2,1,48,98,1691270420
88,14,16,Jits_ISO_5,3,1,38,19,1691281368
88,14,16,Jits_ISO_5,4,5,56,103,1691296236
88,14,16,Jits_ISO_5,0,5,56,103,1691695496
88,14,16,Jits_ISO_5,1,5,80,127,1691705692
88,14,16,Jits_ISO_5,2,5,63,98,1691776348
88,14,16,Jits_ISO_5,3,1,48,99,1691782160
88,14,16,Jits_ISO_5,0,5,56,103,1692205356
88,14,16,Jits_ISO_5,1,5,63,98,1692225816
88,14,16,Jits_ISO_5,2,1,48,96,1692272452
88,14,16,Jits_ISO_5,3,5,80,127,1692286420
88,14,16,Jits_ISO_5,0,5,80,127,1692695808
88,14,16,Jits_ISO_5,1,1,48,93,1692742300
88,14,16,Jits_ISO_5,2,5,63,98,1692765412
88,14,16,Jits_ISO_5,3,5,56,103,1692786312
88,14,16,Jits_ISO_5,0,5,80,127,1693216308
88,14,16,Jits_ISO_5,1,5,56,103,1693226428
88,14,16,Jits_ISO_5,2,5,63,98,1693235504
88,14,16,Jits_ISO_5,3,1,48,101,1693239072
88,14,16,Jits_ISO_5,4,1,38,20,1693249764
88,14,16,Jits_ISO_5,0,5,80,127,1693705564
88,14,16,Jits_ISO_5,1,1,48,91,1693723432
88,14,16,Jits_ISO_5,2,5,56,103,1693726240
88,14,16,Jits_ISO_5,3,5,63,98,1693795696
88,14,16,Jits_ISO_5,0,5,56,103,1694215576
88,14,16,Jits_ISO_5,1,1,48,104,1694242660
88,14,16,Jits_ISO_5,2,5,80,127,1694246364
88,14,16,Jits_ISO_5,3,5,63,98,1694265776
88,14,16,Jits_ISO_5,0,5,63,98,1694706188
88,14,16,Jits_ISO_5,1,1,48,117,1694738228
88,14,16,Jits_ISO_5,2,5,56,103,1694765376
88,14,16,Jits_ISO_5,3,5,80,127,1694796096
88,14,16,Jits_ISO_5,0,5,63,98,1695195596
88,14,16,Jits_ISO_5,1,5,80,127,1695198888
88,14,16,Jits_ISO_5,2,1,48,105,1695215572
88,14,16,Jits_ISO_5,3,5,56,103,1695285644
88,14,16,Jits_ISO_5,0,5,56,103,1695715632
88,14,16,Jits_ISO_5,1,1,48,105,1695717648
88,14,16,Jits_ISO_5,2,1,38,21,1695728632
88,14,16,Jits_ISO_5,3,5,63,98,1695746344
88,14,16,Jits_ISO_5,4,5,80,127,1695786280
88,14,16,Jits_ISO_5,0,5,63,98,1696216596
88,14,16,Jits_ISO_5,1,1,48,103,1696240692
88,14,16,Jits_ISO_5,2,5,56,103,1696256304
88,14,16,Jits_ISO_5,3,5,80,127,1696275860
88,14,16,Jits_ISO_5,0,1,48,100,1696724480
88,14,16,Jits_ISO_5,1,5,63,98,1696726220
88,14,16,Jits_ISO_5,2,5,56,103,1696766232
88,14,16,Jits_ISO_5,3,5,80,127,1696775604
88,14,16,Jits_ISO_5,0,5,80,127,1697205532
88,14,16,Jits_ISO_5,1,1,48,110,1697238472
88,14,16,Jits_ISO_5,2,5,63,98,1697276400
88,14,16,Jits_ISO_5,3,5,56,103,1697295588
88,14,16,Jits_ISO_5,0,5,56,103,1697706488
88,14,16,Jits_ISO_5,1,5,80,127,1697725752
88,14,16,Jits_ISO_5,2,1,48,119,1697736896
88,14,16,Jits_ISO_5,3,5,63,98,1697765608
88,14,16,Jits_ISO_5,0,5,63,98,1698216432
88,14,16,Jits_ISO_5,1,1,48,120,1698226072
88,14,16,Jits_ISO_5,2,5,80,127,1698235616
88,14,16,Jits_ISO_5,3,5,56,103,1698275700
88,14,16,Jits_ISO_5,0,5,63,98,1698716248
88,14,16,Jits_ISO_5,1,5,56,103,1698735436
88,14,16,Jits_ISO_5,2,1,48,126,1698739680
88,14,16,Jits_ISO_5,3,5,80,127,1698745700
88,14,16,Jits_ISO_5,0,5,80,127,1699215688
88,14,16,Jits_ISO_5,1,5,56,103,1699236076
88,14,16,Jits_ISO_5,2,1,48,108,1699244296
88,14,16,Jits_ISO_5,3,5,63,98,1699265964
88,14,16,Jits_ISO_5,0,1,48,100,1699730692
88,14,16,Jits_ISO_5,1,5,56,103,1699786308
88,14,16,Jits_ISO_5,2,5,80,127,1699789376
88,14,16,Jits_ISO_5,3,5,63,98,1699805568
88,14,16,Jits_ISO_5,0,5,63,98,1700206032
88,14,16,Jits_ISO_5,1,5,56,103,1700235632
88,14,16,Jits_ISO_5,2,1,48,127,1700241392
88,14,16,Jits_ISO_5,3,5,80,127,1700296260
88,14,16,Jits_ISO_5,0,1,48,119,1700756340
88,14,16,Jits_ISO_5,1,5,63,98,1700785584
88,14,16,Jits_ISO_5,2,5,56,103,1700796076
88,14,16,Jits_ISO_5,3,5,80,127,1700806124
88,14,16,Jits_ISO_5,0,5,56,103,1701236256
88,14,16,Jits_ISO_5,1,5,80,127,1701265660
88,14,16,Jits_ISO_5,2,5,63,98,1701276152
88,14,16,Jits_ISO_5,3,1,48,120,1701279048
88,14,16,Jits_ISO_5,0,1,48,78,1701757784
88,14,16,Jits_ISO_5,1,5,63,98,1701786152
88,14,16,Jits_ISO_5,2,5,56,103,1701796276
88,14,16,Jits_ISO_5,3,5,80,127,1701815612
88,14,16,Jits_ISO_5,0,5,56,103,1702215972
88,14,16,Jits_ISO_5,1,1,48,108,1702246596
88,14,16,Jits_ISO_5,2,5,63,98,1702275304
88,14,16,Jits_ISO_5,3,5,80,127,1702278672
88,14,16,Jits_ISO_5,0,1,48,123,1702716212
88,14,16,Jits_ISO_5,1,5,80,127,1702736316
88,14,16,Jits_ISO_5,2,5,56,103,1702745392
88,14,16,Jits_ISO_5,3,5,63,98,1702816052
88,14,16,Jits_ISO_5,0,1,48,104,1703221808
88,14,16,Jits_ISO_5,1,5,80,127,1703225588
88,14,16,Jits_ISO_5,2,5,56,103,1703296320
88,14,16,Jits_ISO_5,3,5,63,98,1703305464
88,14,16,Jits_ISO_5,0,1,48,112,1703756192
88,14,16,Jits_ISO_5,1,5,63,98,1703766256
88,14,16,Jits_ISO_5,2,5,56,103,1703775552
88,14,16,Jits_ISO_5,3,5,80,127,1703796308
88,14,16,Jits_ISO_5,0,5,80,127,1704216048
88,14,16,Jits_ISO_5,1,1,48,101,1704274400
88,14,16,Jits_ISO_5,2,5,63,98,1704276284
88,14,16,Jits_ISO_5,3,5,56,103,1704316296
88,14,16,Jits_ISO_5,0,5,56,103,1704755592
88,14,16,Jits_ISO_5,1,1,48,95,1704761252
88,14,16,Jits_ISO_5,2,5,63,98,1704766080
88,14,16,Jits_ISO_5,3,5,80,127,1704805864
88,14,16,Jits_ISO_5,0,5,56,103,1705216456
88,14,16,Jits_ISO_5,1,5,80,127,1705246056
88,14,16,Jits_ISO_5,2,1,48,87,1705258764
88,14,16,Jits_ISO_5,3,5,63,98,1705296172
88,14,16,Jits_ISO_5,0,5,56,103,1705756132
88,14,16,Jits_ISO_5,1,1,48,76,1705767568
88,14,16,Jits_ISO_5,2,5,63,98,1705796288
88,14,16,Jits_ISO_5,3,5,80,127,1705799500
88,14,16,Jits_ISO_5,0,5,56,103,1706255720
88,14,16,Jits_ISO_5,1,1,48,89,1706259288
88,14,16,Jits_ISO_5,2,5,63,98,1706266208
88,14,16,Jits_ISO_5,3,5,80,127,1706285396
88,14,16,Jits_ISO_5,0,5,56,103,1706715532
88,14,16,Jits_ISO_5,1,5,80,127,1706718456
88,14,16,Jits_ISO_5,2,1,48,96,1706747424
88,14,16,Jits_ISO_5,3,5,63,98,1706755316
88,14,16,Jits_ISO_5,0,1,48,86,1707224384
88,14,16,Jits_ISO_5,1,5,63,98,1707256168
88,14,16,Jits_ISO_5,2,5,56,103,1707286068
88,14,16,Jits_ISO_5,3,5,80,127,1707306304
88,14,16,Jits_ISO_5,0,1,48,86,1707720208
88,14,16,Jits_ISO_5,1,5,80,127,1707726232
88,14,16,Jits_ISO_5,2,1,38,20,1707730920
88,14,16,Jits_ISO_5,3,5,56,103,1707736352
88,14,16,Jits_ISO_5,4,5,63,98,1707746092
88,14,16,Jits_ISO_5,0,1,48,88,1708201432
88,14,16,Jits_ISO_5,1,5,56,103,1708226184
88,14,16,Jits_ISO_5,2,5,80,127,1708265976
88,14,16,Jits_ISO_5,3,5,63,98,1708296236
88,14,16,Jits_ISO_5,0,1,48,78,1708698468
88,14,16,Jits_ISO_5,1,5,63,98,1708736256
88,14,16,Jits_ISO_5,2,5,80,127,1708746156
88,14,16,Jits_ISO_5,3,5,56,103,1708756276
88,14,16,Jits_ISO_5,0,1,48,88,1709219476
88,14,16,Jits_ISO_5,1,5,56,103,1709226468
88,14,16,Jits_ISO_5,2,5,63,98,1709296224
88,14,16,Jits_ISO_5,3,5,80,127,1709306196
88,14,16,Jits_ISO_5,0,5,80,127,1709726060
88,14,16,Jits_ISO_5,1,1,48,81,1709729104
88,14,16,Jits_ISO_5,2,5,56,103,1709736324
88,14,16,Jits_ISO_5,3,5,63,98,1709785404
88,14,16,Jits_ISO_5,0,1,48,76,1710218700
88,14,16,Jits_ISO_5,1,5,80,127,1710236208
88,14,16,Jits_ISO_5,2,5,56,103,1710296304
88,14,16,Jits_ISO_5,3,5,63,98,1710326108
88,14,16,Jits_ISO_5,0,5,56,103,1710736028
88,14,16,Jits_ISO_5,1,5,80,127,1710738944
88,14,16,Jits_ISO_5,2,1,48,100,1710743328
88,14,16,Jits_ISO_5,3,5,63,98,1710775876
88,14,16,Jits_ISO_5,0,1,48,117,1711246604
88,14,16,Jits_ISO_5,1,5,56,103,1711266256
88,14,16,Jits_ISO_5,2,5,63,98,1711296080
88,14,16,Jits_ISO_5,3,5,80,127,1711306052
88,14,16,Jits_ISO_5,0,1,48,102,1711745144
88,14,16,Jits_ISO_5,1,5,63,98,1711775980
88,14,16,Jits_ISO_5,2,5,80,127,1711786252
88,14,16,Jits_ISO_5,3,5,56,103,1711795772
88,14,16,Jits_ISO_5,0,5,80,127,1712225748
88,14,16,Jits_ISO_5,1,1,48,113,1712258540
88,14,16,Jits_ISO_5,2,5,56,103,1712275968
88,14,16,Jits_ISO_5,3,5,63,98,1712278960
88,14,16,Jits_ISO_5,0,5,56,103,1712756136
88,14,16,Jits_ISO_5,1,1,48,126,1712771244
88,14,16,Jits_ISO_5,2,5,80,127,1712775616
88,14,16,Jits_ISO_5,3,5,63,98,1712785912
88,14,16,Jits_ISO_5,0,5,63,98,1713245408
88,14,16,Jits_ISO_5,1,1,48,102,1713263276
88,14,16,Jits_ISO_5,2,5,56,103,1713276196
88,14,16,Jits_ISO_5,3,5,80,127,1713296004
88,14,16,Jits_ISO_5,0,1,48,127,1713736276
88,14,16,Jits_ISO_5,1,5,56,103,1713755408
88,14,16,Jits_ISO_5,2,5,80,127,1713765900
88,14,16,Jits_ISO_5,3,5,63,98,1713836264
88,14,16,Jits_ISO_5,0,5,63,98,1714246028
88,14,16,Jits_ISO_5,1,1,48,92,1714248696
88,14,16,Jits_ISO_5,2,5,80,127,1714285960
88,14,16,Jits_ISO_5,3,5,56,103,1714325844
88,14,16,Jits_ISO_5,0,5,56,103,1714756024
88,14,16,Jits_ISO_5,1,5,63,98,1714766072
88,14,16,Jits_ISO_5,2,1,48,82,1714767040
88,14,16,Jits_ISO_5,3,1,38,19,1714777212
88,14,16,Jits_ISO_5,4,5,80,127,1714785696
88,14,16,Jits_ISO_5,0,1,48,102,1715251692
88,14,16,Jits_ISO_5,1,5,63,98,1715295700
88,14,16,Jits_ISO_5,2,5,80,127,1715316012
88,14,16,Jits_ISO_5,3,5,56,103,1715335644
88,14,16,Jits_ISO_5,0,5,56,103,1715735908
88,14,16,Jits_ISO_5,1,1,48,116,1715765552
88,14,16,Jits_ISO_5,2,5,80,127,1715815992
88,14,16,Jits_ISO_5,3,5,63,98,1715825964
88,14,16,Jits_ISO_5,0,1,48,122,1716241696
88,14,16,Jits_ISO_5,1,5,80,127,1716275668
88,14,16,Jits_ISO_5,2,5,63,98,1716285936
88,14,16,Jits_ISO_5,3,5,56,103,1716315536
88,14,16,Jits_ISO_5,0,5,63,98,1716736324
88,14,16,Jits_ISO_5,1,1,48,97,1716761764
88,14,16,Jits_ISO_5,2,5,80,127,1716776252
88,14,16,Jits_ISO_5,3,5,56,103,1716835816
88,14,16,Jits_ISO_5,0,5,63,98,1717246240
88,14,16,Jits_ISO_5,1,1,48,80,1717272352
88,14,16,Jits_ISO_5,2,5,56,103,1717295464
88,14,16,Jits_ISO_5,3,5,80,127,1717326260
88,14,16,Jits_ISO_5,0,5,80,127,1717756168
88,14,16,Jits_ISO_5,1,5,63,98,1717765612
88,14,16,Jits_ISO_5,2,1,48,85,1717778920
88,14,16,Jits_ISO_5,3,5,56,103,1717836104
88,14,16,Jits_ISO_5,0,1,48,76,1718273792
88,14,16,Jits_ISO_5,1,5,80,127,1718325956
88,14,16,Jits_ISO_5,2,5,56,103,1718335924
88,14,16,Jits_ISO_5,3,5,63,98,1718339144
88,14,16,Jits_ISO_5,0,5,56,103,1718765832
88,14,16,Jits_ISO_5,1,5,80,127,1718786516
88,14,16,Jits_ISO_5,2,5,63,98,1718795664
88,14,16,Jits_ISO_5,3,1,48,119,1718801248
88,14,16,Jits_ISO_5,0,5,63,98,1719275928
88,14,16,Jits_ISO_5,1,1,48,101,1719313128
88,14,16,Jits_ISO_5,2,5,56,103,1719315936
88,14,16,Jits_ISO_5,3,5,80,127,1719336244
88,14,16,Jits_ISO_5,0,5,63,98,1719775752
88,14,16,Jits_ISO_5,1,1,48,127,1719804128
88,14,16,Jits_ISO_5,2,5,56,103,1719835904
88,14,16,Jits_ISO_5,3,5,80,127,1719839276
88,14,16,Jits_ISO_5,0,5,56,103,1720236384
88,14,16,Jits_ISO_5,1,5,80,127,1720255944
88,14,16,Jits_ISO_5,2,1,48,127,1720293444
88,14,16,Jits_ISO_5,3,5,63,98,1720295872
88,14,16,Jits_ISO_5,0,5,56,103,1720776072
88,14,16,Jits_ISO_5,1,5,63,98,1720795632
88,14,16,Jits_ISO_5,2,5,80,127,1720805828
88,14,16,Jits_ISO_5,3,1,48,127,1720808348
88,14,16,Jits_ISO_5,0,5,80,127,1721245936
88,14,16,Jits_ISO_5,1,5,56,103,1721275836
88,14,16,Jits_ISO_5,2,1,48,100,1721288996
88,14,16,Jits_ISO_5,3,1,38,20,1721299536
88,14,16,Jits_ISO_5,4,5,63,98,1721315892
88,14,16,Jits_ISO_5,0,5,80,127,1721756020
88,14,16,Jits_ISO_5,1,5,56,103,1721775656
88,14,16,Jits_ISO_5,2,1,48,105,1721812180
88,14,16,Jits_ISO_5,3,5,63,98,1721835812
88,14,16,Jits_ISO_5,0,5,56,103,1722266188
88,14,16,Jits_ISO_5,1,5,80,127,1722285452
88,14,16,Jits_ISO_5,2,1,48,97,1722291112
88,14,16,Jits_ISO_5,3,5,63,98,1722345836
88,14,16,Jits_ISO_5,0,5,80,127,1722746208
88,14,16,Jits_ISO_5,1,5,56,103,1722755432
88,14,16,Jits_ISO_5,2,5,63,98,1722796520
88,14,16,Jits_ISO_5,3,1,48,127,1722816044
88,14,16,Jits_ISO_5,0,5,63,98,1723245892
88,14,16,Jits_ISO_5,1,5,56,103,1723285928
88,14,16,Jits_ISO_5,2,1,48,127,1723288996
88,14,16,Jits_ISO_5,3,5,80,127,1723290556
88,14,16,Jits_ISO_5,0,1,48,97,1723758924
88,14,16,Jits_ISO_5,1,5,63,98,1723766140
88,14,16,Jits_ISO_5,2,5,80,127,1723806028
88,14,16,Jits_ISO_5,3,5,56,103,1723835776
88,14,16,Jits_ISO_5,0,5,56,103,1724255768
88,14,16,Jits_ISO_5,1,5,63,98,1724265816
88,14,16,Jits_ISO_5,2,1,48,89,1724272524
88,14,16,Jits_ISO_5,3,5,80,127,1724295632
88,14,16,Jits_ISO_5,0,5,80,127,1724756264
88,14,16,Jits_ISO_5,1,1,48,119,1724760504
88,14,16,Jits_ISO_5,2,5,63,98,1724825960
88,14,16,Jits_ISO_5,3,5,56,103,1724836228
88,14,16,Jits_ISO_5,0,5,63,98,1725256168
88,14,16,Jits_ISO_5,1,1,48,101,1725274208
88,14,16,Jits_ISO_5,2,5,56,103,1725325868
88,14,16,Jits_ISO_5,3,5,80,127,1725336064
88,14,16,Jits_ISO_5,0,5,63,98,1725755840
88,14,16,Jits_ISO_5,1,5,56,103,1725776148
88,14,16,Jits_ISO_5,2,1,48,110,1725790948
88,14,16,Jits_ISO_5,3,5,80,127,1725816228
88,14,16,Jits_ISO_5,0,5,56,103,1726265916
88,14,16,Jits_ISO_5,1,5,63,98,1726275888
88,14,16,Jits_ISO_5,2,1,48,84,1726296916
88,14,16,Jits_ISO_5,3,5,80,127,1726355772
88,14,16,Jits_ISO_5,0,5,63,98,1726756148
88,14,16,Jits_ISO_5,1,5,56,103,1726785824
88,14,16,Jits_ISO_5,2,1,48,105,1726802124
88,14,16,Jits_ISO_5,3,5,80,127,1726825976
88,14,16,Jits_ISO_5,0,5,56,103,1727255888
88,14,16,Jits_ISO_5,1,1,48,84,1727294160
88,14,16,Jits_ISO_5,2,5,63,98,1727295896
88,14,16,Jits_ISO_5,3,5,80,127,1727335756
88,14,16,Jits_ISO_5,0,5,80,127,1727755860
88,14,16,Jits_ISO_5,1,1,48,111,1727779884
88,14,16,Jits_ISO_5,2,5,56,103,1727835796
88,14,16,Jits_ISO_5,3,5,63,98,1727845696
88,14,16,Jits_ISO_5,0,1,48,122,1728280236
88,14,16,Jits_ISO_5,1,5,56,103,1728296216
88,14,16,Jits_ISO_5,2,5,63,98,1728299364
88,14,16,Jits_ISO_5,3,5,80,127,1728305444
88,14,16,Jits_ISO_5,0,1,48,127,1728781632
88,14,16,Jits_ISO_5,1,5,56,103,1728815456
88,14,16,Jits_ISO_5,2,5,63,98,1728835840
88,14,16,Jits_ISO_5,3,5,80,127,1728846256
88,14,16,Jits_ISO_5,0,5,63,98,1729276408
88,14,16,Jits_ISO_5,1,1,48,115,1729283592
88,14,16,Jits_ISO_5,2,5,80,127,1729285476
88,14,16,Jits_ISO_5,3,5,56,103,1729306008
88,14,16,Jits_ISO_5,0,5,63,98,1729775852
88,14,16,Jits_ISO_5,1,1,48,76,1729793884
88,14,16,Jits_ISO_5,2,5,56,103,1729855708
88,14,16,Jits_ISO_5,3,5,80,127,1729858856
88,14,16,Jits_ISO_5,0,5,63,98,1730275804
88,14,16,Jits_ISO_5,1,1,48,121,1730283408
88,14,16,Jits_ISO_5,2,5,56,103,1730296032
88,14,16,Jits_ISO_5,3,5,80,127,1730325780
88,14,16,Jits_ISO_5,0,5,56,103,1730776596
88,14,16,Jits_ISO_5,1,1,48,97,1730779788
88,14,16,Jits_ISO_5,2,5,63,98,1730795776
88,14,16,Jits_ISO_5,3,5,80,127,1730806192
88,14,16,Jits_ISO_5,0,1,48,93,1731289568
88,14,16,Jits_ISO_5,1,5,56,103,1731305852
88,14,16,Jits_ISO_5,2,5,63,98,1731335824
88,14,16,Jits_ISO_5,3,5,80,127,1731338968
88,14,16,Jits_ISO_5,0,5,56,103,1731756440
88,14,16,Jits_ISO_5,1,5,63,98,1731796524
88,14,16,Jits_ISO_5,2,1,48,107,1731802784
88,14,16,Jits_ISO_5,3,5,80,127,1731855708
88,14,16,Jits_ISO_5,0,5,56,103,1732285788
88,14,16,Jits_ISO_5,1,5,63,98,1732295912
88,14,16,Jits_ISO_5,2,1,48,105,1732313796
88,14,16,Jits_ISO_5,3,5,80,127,1732355468
88,14,16,Jits_ISO_5,0,5,56,103,1732785696
88,14,16,Jits_ISO_5,1,5,80,127,1732805932
88,14,16,Jits_ISO_5,2,1,48,110,1732830996
88,14,16,Jits_ISO_5,3,5,63,98,1732835820
88,14,16,Jits_ISO_5,0,5,80,127,1733286272
88,14,16,Jits_ISO_5,1,5,56,103,1733295424
88,14,16,Jits_ISO_5,2,1,48,95,1733313760
88,14,16,Jits_ISO_5,3,5,63,98,1733315876
88,14,16,Jits_ISO_5,0,5,63,98,1733775684
88,14,16,Jits_ISO_5,1,1,48,96,1733793252
88,14,16,Jits_ISO_5,2,5,80,127,1733855544
88,14,16,Jits_ISO_5,3,5,56,103,1733865888
88,14,16,Jits_ISO_5,0,1,48,104,1734309244
88,14,16,Jits_ISO_5,1,5,80,127,1734335792
88,14,16,Jits_ISO_5,2,5,56,103,1734356624
88,14,16,Jits_ISO_5,3,5,63,98,1734359544
88,14,16,Jits_ISO_5,0,5,63,98,1734805808
88,14,16,Jits_ISO_5,1,5,80,127,1734809176
88,14,16,Jits_ISO_5,2,1,48,92,1734812892
88,14,16,Jits_ISO_5,3,5,56,103,1734866560
88,14,16,Jits_ISO_5,0,5,56,103,1735286108
88,14,16,Jits_ISO_5,1,5,80,127,1735296676
88,14,16,Jits_ISO_5,2,1,48,101,1735316832
88,14,16,Jits_ISO_5,3,5,63,98,1735336256
88,14,16,Jits_ISO_5,0,5,56,103,1735766532
88,14,16,Jits_ISO_5,1,1,48,123,1735796400
88,14,16,Jits_ISO_5,2,5,63,98,1735825744
88,14,16,Jits_ISO_5,3,5,80,127,1735835940
88,14,16,Jits_ISO_5,0,1,48,123,1736269480
88,14,16,Jits_ISO_5,1,5,63,98,1736285688
88,14,16,Jits_ISO_5,2,5,80,127,1736325480
88,14,16,Jits_ISO_5,3,5,56,103,1736365512
88,14,16,Jits_ISO_5,0,1,48,112,1736752000
88,14,16,Jits_ISO_5,1,5,56,103,1736786420
88,14,16,Jits_ISO_5,2,5,63,98,1736866224
88,14,16,Jits_ISO_5,3,5,80,127,1736869736
88,14,16,Jits_ISO_5,0,9999,9999,9999,1677463608
88,14,16,Jits_ISO_5,1,9999,9999,9999,1677963376
88,14,16,Jits_ISO_5,2,9999,9999,9999,1678464088
88,14,16,Jits_ISO_5,3,9999,9999,9999,1678974008
88,14,16,Jits_ISO_5,4,9999,9999,9999,1679473760
88,14,16,Jits_ISO_5,5,9999,9999,9999,1679973428
88,14,16,Jits_ISO_5,6,9999,9999,9999,1680473156
88,14,16,Jits_ISO_5,7,9999,9999,9999,1680973884
88,14,16,Jits_ISO_5,8,9999,9999,9999,1681473628
88,14,16,Jits_ISO_5,9,9999,9999,9999,1681973300
88,14,16,Jits_ISO_5,10,9999,9999,9999,1682474088
88,14,16,Jits_ISO_5,11,9999,9999,9999,1682973744
88,14,16,Jits_ISO_5,12,9999,9999,9999,1683473472
88,14,16,Jits_ISO_5,13,9999,9999,9999,1683973204
88,14,16,Jits_ISO_5,14,9999,9999,9999,1684473908
88,14,16,Jits_ISO_5,15,9999,9999,9999,1684973652
88,14,16,Jits_ISO_5,16,9999,9999,9999,1685473380
88,14,16,Jits_ISO_5,17,9999,9999,9999,1685974084
88,14,16,Jits_ISO_5,18,9999,9999,9999,1686484076
88,14,16,Jits_ISO_5,19,9999,9999,9999,1686983740
88,14,16,Jits_ISO_5,20,9999,9999,9999,1687483460
88,14,16,Jits_ISO_5,21,9999,9999,9999,1687983204
88,14,16,Jits_ISO_5,22,9999,9999,9999,1688483920
88,14,16,Jits_ISO_5,23,9999,9999,9999,1688983668
88,14,16,Jits_ISO_5,24,9999,9999,9999,1689483316
88,14,16,Jits_ISO_5,25,9999,9999,9999,1689984064
88,14,16,Jits_ISO_5,26,9999,9999,9999,1690494032
88,14,16,Jits_ISO_5,27,9999,9999,9999,1690993716
88,14,16,Jits_ISO_5,28,9999,9999,9999,1691493468
88,14,16,Jits_ISO_5,29,9999,9999,9999,1691993176
88,14,16,Jits_ISO_5,30,9999,9999,9999,1692493892
88,14,16,Jits_ISO_5,31,9999,9999,9999,1692993640
88,14,16,Jits_ISO_5,32,9999,9999,9999,1693493336
88,14,16,Jits_ISO_5,33,9999,9999,9999,1693994104
88,14,16,Jits_ISO_5,34,9999,9999,9999,1694493772
88,14,16,Jits_ISO_5,35,9999,9999,9999,1694993532
88,14,16,Jits_ISO_5,36,9999,9999,9999,1695493192
88,14,16,Jits_ISO_5,37,9999,9999,9999,1695993948
88,14,16,Jits_ISO_5,38,9999,9999,9999,1696493672
88,14,16,Jits_ISO_5,39,9999,9999,9999,1696993340
88,14,16,Jits_ISO_5,40,9999,9999,9999,1697494072
88,14,16,Jits_ISO_5,41,9999,9999,9999,1698004092
88,14,16,Jits_ISO_5,42,9999,9999,9999,1698503772
88,14,16,Jits_ISO_5,43,9999,9999,9999,1699003512
88,14,16,Jits_ISO_5,44,9999,9999,9999,1699503176
88,14,16,Jits_ISO_5,45,9999,9999,9999,1700003904
88,14,16,Jits_ISO_5,46,9999,9999,9999,1700503660
88,14,16,Jits_ISO_5,47,9999,9999,9999,1701003388
88,14,16,Jits_ISO_5,48,9999,9999,9999,1701504116
88,14,16,Jits_ISO_5,49,9999,9999,9999,1702014068
88,14,16,Jits_ISO_5,50,9999,9999,9999,1702513716
88,14,16,Jits_ISO_5,51,9999,9999,9999,1703013476
88,14,16,Jits_ISO_5,52,9999,9999,9999,1703513164
88,14,16,Jits_ISO_5,53,9999,9999,9999,1704013896
88,14,16,Jits_ISO_5,54,9999,9999,9999,1704513656
88,14,16,Jits_ISO_5,55,9999,9999,9999,1705013340
88,14,16,Jits_ISO_5,56,9999,9999,9999,1705514056
88,14,16,Jits_ISO_5,57,9999,9999,9999,1706013792
88,14,16,Jits_ISO_5,58,9999,9999,9999,1706513468
88,14,16,Jits_ISO_5,59,9999,9999,9999,1707013200
88,14,16,Jits_ISO_5,60,9999,9999,9999,1707513924
88,14,16,Jits_ISO_5,61,9999,9999,9999,1708013692
88,14,16,Jits_ISO_5,62,9999,9999,9999,1708513384
88,14,16,Jits_ISO_5,63,9999,9999,9999,1709014088
88,14,16,Jits_ISO_5,64,9999,9999,9999,1709524080
88,14,16,Jits_ISO_5,65,9999,9999,9999,1710023736
88,14,16,Jits_ISO_5,66,9999,9999,9999,1710523484
88,14,16,Jits_ISO_5,67,9999,9999,9999,1711023204
88,14,16,Jits_ISO_5,68,9999,9999,9999,1711523936
88,14,16,Jits_ISO_5,69,9999,9999,9999,1712023620
88,14,16,Jits_ISO_5,70,9999,9999,9999,1712523348
88,14,16,Jits_ISO_5,71,9999,9999,9999,1713024072
88,14,16,Jits_ISO_5,72,9999,9999,9999,1713534016
88,14,16,Jits_ISO_5,73,9999,9999,9999,1714033760
88,14,16,Jits_ISO_5,74,9999,9999,9999,1714533444
88,14,16,Jits_ISO_5,75,9999,9999,9999,1715033144
88,14,16,Jits_ISO_5,76,9999,9999,9999,1715533904
88,14,16,Jits_ISO_5,77,9999,9999,9999,1716033588
88,14,16,Jits_ISO_5,78,9999,9999,9999,1716533344
88,14,16,Jits_ISO_5,79,9999,9999,9999,1717034072
88,14,16,Jits_ISO_5,80,9999,9999,9999,1717533808
88,14,16,Jits_ISO_5,81,9999,9999,9999,1718033464
88,14,16,Jits_ISO_5,82,9999,9999,9999,1718533212
88,14,16,Jits_ISO_5,83,9999,9999,9999,1719033916
88,14,16,Jits_ISO_5,84,9999,9999,9999,1719533680
88,14,16,Jits_ISO_5,85,9999,9999,9999,1720033344
88,14,16,Jits_ISO_5,86,9999,9999,9999,1720534132
88,14,16,Jits_ISO_5,87,9999,9999,9999,1721044080
88,14,16,Jits_ISO_5,88,9999,9999,9999,1721543788
88,14,16,Jits_ISO_5,89,9999,9999,9999,1722043508
88,14,16,Jits_ISO_5,90,9999,9999,9999,1722543196
88,14,16,Jits_ISO_5,91,9999,9999,9999,1723043908
88,14,16,Jits_ISO_5,92,9999,9999,9999,1723543656
88,14,16,Jits_ISO_5,93,9999,9999,9999,1724043328
88,14,16,Jits_ISO_5,94,9999,9999,9999,1724544076
88,14,16,Jits_ISO_5,95,9999,9999,9999,1725054016
88,14,16,Jits_ISO_5,96,9999,9999,9999,1725553776
88,14,16,Jits_ISO_5,97,9999,9999,9999,1726053440
88,14,16,Jits_ISO_5,98,9999,9999,9999,1726553180
88,14,16,Jits_ISO_5,99,9999,9999,9999,1727053896
88,14,16,Jits_ISO_5,100,9999,9999,9999,1727553640
88,14,16,Jits_ISO_5,101,9999,9999,9999,1728053320
88,14,16,Jits_ISO_5,102,9999,9999,9999,1728554040
88,14,16,Jits_ISO_5,103,9999,9999,9999,1729053804
88,14,16,Jits_ISO_5,104,9999,9999,9999,1729553484
88,14,16,Jits_ISO_5,105,9999,9999,9999,1730053224
88,14,16,Jits_ISO_5,106,9999,9999,9999,1730553928
88,14,16,Jits_ISO_5,107,9999,9999,9999,1731053668
88,14,16,Jits_ISO_5,108,9999,9999,9999,1731553336
88,14,16,Jits_ISO_5,109,9999,9999,9999,1732054116
88,14,16,Jits_ISO_5,110,9999,9999,9999,1732564060
88,14,16,Jits_ISO_5,111,9999,9999,9999,1733063744
88,14,16,Jits_ISO_5,112,9999,9999,9999,1733563500
88,14,16,Jits_ISO_5,113,9999,9999,9999,1734063172
88,14,16,Jits_ISO_5,114,9999,9999,9999,1734563948
88,14,16,Jits_ISO_5,115,9999,9999,9999,1735063624
88,14,16,Jits_ISO_5,116,9999,9999,9999,1735563356
88,14,16,Jits_ISO_5,117,9999,9999,9999,1736064060
88,14,16,Jits_ISO_5,118,9999,9999,9999,1736574008
88,14,16,Jits_ISO_5,119,9999,9999,9999,1737073760
88,15,7,Jits_ISO_8,0,5,56,103,1747738952
88,15,7,Jits_ISO_8,1,5,63,98,1747742200
88,15,7,Jits_ISO_8,2,5,80,127,1747745316
88,15,7,Jits_ISO_8,0,5,56,103,1748538648
88,15,7,Jits_ISO_8,1,5,63,98,1748541744
88,15,7,Jits_ISO_8,2,5,80,127,1748544944
88,15,7,Jits_ISO_8,0,5,80,127,1749279024
88,15,7,Jits_ISO_8,1,5,63,98,1749369308
88,15,7,Jits_ISO_8,2,5,56,103,1749378460
88,15,7,Jits_ISO_8,0,5,56,103,1750099568
88,15,7,Jits_ISO_8,1,5,63,98,1750108496
88,15,7,Jits_ISO_8,2,5,80,127,1750198656
88,15,7,Jits_ISO_8,0,5,63,98,1750869248
88,15,7,Jits_ISO_8,1,5,80,127,1750899296
88,15,7,Jits_ISO_8,2,5,56,103,1750928696
88,15,7,Jits_ISO_8,3,1,48,107,1750947180
88,15,7,Jits_ISO_8,0,1,48,89,1751662476
88,15,7,Jits_ISO_8,1,5,56,103,1751669252
88,15,7,Jits_ISO_8,2,5,80,127,1751768320
88,15,7,Jits_ISO_8,3,5,63,98,1751818596
88,15,7,Jits_ISO_8,0,5,56,103,1752468848
88,15,7,Jits_ISO_8,1,5,80,127,1752518904
88,15,7,Jits_ISO_8,2,5,63,98,1752558840
88,15,7,Jits_ISO_8,3,1,48,89,1752577772
88,15,7,Jits_ISO_8,0,5,80,127,1753299288
88,15,7,Jits_ISO_8,1,5,63,98,1753329112
88,15,7,Jits_ISO_8,2,1,48,90,1753351336
88,15,7,Jits_ISO_8,3,5,56,103,1753398636
88,15,7,Jits_ISO_8,0,5,63,98,1754128680
88,15,7,Jits_ISO_8,1,5,56,103,1754158432
88,15,7,Jits_ISO_8,2,1,48,92,1754169424
88,15,7,Jits_ISO_8,3,5,80,127,1754218816
88,15,7,Jits_ISO_8,0,5,56,103,1754869124
88,15,7,Jits_ISO_8,1,5,80,127,1754872188
88,15,7,Jits_ISO_8,2,1,48,96,1754977508
88,15,7,Jits_ISO_8,3,5,63,98,1754989064
88,15,7,Jits_ISO_8,0,1,48,94,1755707244
88,15,7,Jits_ISO_8,1,1,38,19,1755717412
88,15,7,Jits_ISO_8,2,5,56,103,1755748680
88,15,7,Jits_ISO_8,3,5,80,127,1755788644
88,15,7,Jits_ISO_8,4,5,63,98,1755798988
88,15,7,Jits_ISO_8,0,5,56,103,1756508548
88,15,7,Jits_ISO_8,1,5,80,127,1756529232
88,15,7,Jits_ISO_8,2,1,48,112,1756551828
88,15,7,Jits_ISO_8,3,5,63,98,1756608896
88,15,7,Jits_ISO_8,0,5,80,127,1757299140
88,15,7,Jits_ISO_8,1,1,48,90,1757392488
88,15,7,Jits_ISO_8,2,5,56,103,1757399488
88,15,7,Jits_ISO_8,3,5,63,98,1757408636
88,15,7,Jits_ISO_8,0,5,63,98,1758069200
88,15,7,Jits_ISO_8,1,5,80,127,1758128496
88,15,7,Jits_ISO_8,2,5,56,103,1758138692
88,15,7,Jits_ISO_8,3,1,48,92,1758177924
88,15,7,Jits_ISO_8,0,5,56,103,1758868708
88,15,7,Jits_ISO_8,1,5,63,98,1758938464
88,15,7,Jits_ISO_8,2,5,80,127,1758941680
88,15,7,Jits_ISO_8,3,1,48,106,1758951548
88,15,7,Jits_ISO_8,0,5,63,98,1759699296
88,15,7,Jits_ISO_8,1,1,48,110,1759742124
88,15,7,Jits_ISO_8,2,5,56,103,1759748596
88,15,7,Jits_ISO_8,3,5,80,127,1759751584
88,15,7,Jits_ISO_8,0,5,56,103,1760459068
88,15,7,Jits_ISO_8,1,5,80,127,1760462136
88,15,7,Jits_ISO_8,2,1,48,100,1760536124
88,15,7,Jits_ISO_8,3,5,63,98,1760549344
88,15,7,Jits_ISO_8,0,5,63,98,1761298800
88,15,7,Jits_ISO_8,1,1,48,95,1761312784
88,15,7,Jits_ISO_8,2,5,56,103,1761389004
88,15,7,Jits_ISO_8,3,5,80,127,1761418540
88,15,7,Jits_ISO_8,0,5,56,103,1762089296
88,15,7,Jits_ISO_8,1,1,48,106,1762099240
88,15,7,Jits_ISO_8,2,5,63,98,1762188664
88,15,7,Jits_ISO_8,3,5,80,127,1762219520
88,15,7,Jits_ISO_8,0,5,63,98,1762908512
88,15,7,Jits_ISO_8,1,5,56,103,1762918636
88,15,7,Jits_ISO_8,2,1,48,124,1762931720
88,15,7,Jits_ISO_8,3,5,80,127,1763009008
88,15,7,Jits_ISO_8,0,5,63,98,1763728640
88,15,7,Jits_ISO_8,1,1,48,97,1763729604
88,15,7,Jits_ISO_8,2,5,56,103,1763808500
88,15,7,Jits_ISO_8,3,5,80,127,1763811568
88,15,7,Jits_ISO_8,0,5,80,127,1764488608
88,15,7,Jits_ISO_8,1,5,63,98,1764509168
88,15,7,Jits_ISO_8,2,1,48,127,1764555956
88,15,7,Jits_ISO_8,3,5,56,103,1764568356
88,15,7,Jits_ISO_8,0,5,56,103,1765329200
88,15,7,Jits_ISO_8,1,5,63,98,1765348604
88,15,7,Jits_ISO_8,2,5,80,127,1765352048
88,15,7,Jits_ISO_8,3,1,48,125,1765353312
88,15,7,Jits_ISO_8,0,5,63,98,1766068612
88,15,7,Jits_ISO_8,1,1,48,127,1766119232
88,15,7,Jits_ISO_8,2,5,80,127,1766148404
88,15,7,Jits_ISO_8,3,5,56,103,1766158820
88,15,7,Jits_ISO_8,0,1,48,127,1766887956
88,15,7,Jits_ISO_8,1,5,63,98,1766889600
88,15,7,Jits_ISO_8,2,5,56,103,1766909236
88,15,7,Jits_ISO_8,3,5,80,127,1766958388
88,15,7,Jits_ISO_8,0,1,48,111,1767678888
88,15,7,Jits_ISO_8,1,5,80,127,1767688580
88,15,7,Jits_ISO_8,2,5,63,98,1767728372
88,15,7,Jits_ISO_8,3,5,56,103,1767749128
88,15,7,Jits_ISO_8,0,1,48,101,1768490236
88,15,7,Jits_ISO_8,1,5,56,103,1768529144
88,15,7,Jits_ISO_8,2,5,63,98,1768538444
88,15,7,Jits_ISO_8,3,5,80,127,1768559276
88,15,7,Jits_ISO_8,4,1,38,15,1768909584
88,15,7,Jits_ISO_8,0,5,56,103,1769259280
88,15,7,Jits_ISO_8,1,1,48,94,1769305100
88,15,7,Jits_ISO_8,2,5,63,98,1769348440
88,15,7,Jits_ISO_8,3,5,80,127,1769408840
88,15,7,Jits_ISO_8,0,1,48,85,1770062192
88,15,7,Jits_ISO_8,1,5,80,127,1770088892
88,15,7,Jits_ISO_8,2,5,56,103,1770099088
88,15,7,Jits_ISO_8,3,5,63,98,1770168556
88,15,7,Jits_ISO_8,0,1,48,104,1770887604
88,15,7,Jits_ISO_8,1,5,63,98,1770919416
88,15,7,Jits_ISO_8,2,5,80,127,1771009612
88,15,7,Jits_ISO_8,3,5,56,103,1771018536
88,15,7,Jits_ISO_8,0,5,63,98,1771658548
88,15,7,Jits_ISO_8,1,5,80,127,1771708900
88,15,7,Jits_ISO_8,2,1,48,103,1771725348
88,15,7,Jits_ISO_8,3,5,56,103,1771769212
88,15,7,Jits_ISO_8,0,5,56,103,1772489056
88,15,7,Jits_ISO_8,1,1,48,101,1772511508
88,15,7,Jits_ISO_8,2,5,80,127,1772539256
88,15,7,Jits_ISO_8,3,5,63,98,1772559040
88,15,7,Jits_ISO_8,0,5,56,103,1773259124
88,15,7,Jits_ISO_8,1,1,48,99,1773289964
88,15,7,Jits_ISO_8,2,5,80,127,1773318460
88,15,7,Jits_ISO_8,3,5,63,98,1773390072
88,15,7,Jits_ISO_8,0,5,56,103,1774058996
88,15,7,Jits_ISO_8,1,5,80,127,1774088596
88,15,7,Jits_ISO_8,2,1,48,74,1774097568
88,15,7,Jits_ISO_8,3,5,63,98,1774119384
88,15,7,Jits_ISO_8,0,1,48,96,1774880932
88,15,7,Jits_ISO_8,1,5,56,103,1774898416
88,15,7,Jits_ISO_8,2,5,80,127,1774919248
88,15,7,Jits_ISO_8,3,5,63,98,1774978352
88,15,7,Jits_ISO_8,0,1,48,92,1775685944
88,15,7,Jits_ISO_8,1,5,80,127,1775779140
88,15,7,Jits_ISO_8,2,5,56,103,1775789396
88,15,7,Jits_ISO_8,3,5,63,98,1775798768
88,15,7,Jits_ISO_8,0,5,56,103,1776538928
88,15,7,Jits_ISO_8,1,1,48,111,1776555968
88,15,7,Jits_ISO_8,2,5,80,127,1776578860
88,15,7,Jits_ISO_8,3,5,63,98,1776608832
88,15,7,Jits_ISO_8,0,5,56,103,1777309072
88,15,7,Jits_ISO_8,1,5,63,98,1777338672
88,15,7,Jits_ISO_8,2,1,48,90,1777376164
88,15,7,Jits_ISO_8,3,5,80,127,1777378900
88,15,7,Jits_ISO_8,0,5,80,127,1778058896
88,15,7,Jits_ISO_8,1,5,63,98,1778108800
88,15,7,Jits_ISO_8,2,5,56,103,1778129408
88,15,7,Jits_ISO_8,3,1,48,116,1778147292
88,15,7,Jits_ISO_8,0,5,56,103,1778889044
88,15,7,Jits_ISO_8,1,1,48,127,1778913512
88,15,7,Jits_ISO_8,2,5,80,127,1778958796
88,15,7,Jits_ISO_8,3,5,63,98,1779019168
88,15,7,Jits_ISO_8,0,5,80,127,1779689004
88,15,7,Jits_ISO_8,1,1,48,119,1779713844
88,15,7,Jits_ISO_8,2,5,63,98,1779779060
88,15,7,Jits_ISO_8,3,5,56,103,1779799296
88,15,7,Jits_ISO_8,0,5,63,98,1780508972
88,15,7,Jits_ISO_8,1,5,56,103,1780528608
88,15,7,Jits_ISO_8,2,1,48,89,1780535988
88,15,7,Jits_ISO_8,3,5,80,127,1780568836
88,15,7,Jits_ISO_8,0,5,80,127,1781268972
88,15,7,Jits_ISO_8,1,5,63,98,1781289284
88,15,7,Jits_ISO_8,2,1,48,112,1781322664
88,15,7,Jits_ISO_8,3,5,56,103,1781369144
88,15,7,Jits_ISO_8,0,5,63,98,1782059336
88,15,7,Jits_ISO_8,1,1,48,74,1782112576
88,15,7,Jits_ISO_8,2,5,56,103,1782168892
88,15,7,Jits_ISO_8,3,5,80,127,1782171884
88,15,7,Jits_ISO_8,0,5,63,98,1782878816
88,15,7,Jits_ISO_8,1,5,56,103,1782889008
88,15,7,Jits_ISO_8,2,5,80,127,1782891928
88,15,7,Jits_ISO_8,3,1,48,110,1782939352
88,15,7,Jits_ISO_8,0,5,56,103,1783658740
88,15,7,Jits_ISO_8,1,1,48,26,1783722936
88,15,7,Jits_ISO_8,2,5,80,127,1783778788
88,15,7,Jits_ISO_8,3,5,63,98,1783818876
88,15,7,Jits_ISO_8,0,5,56,103,1784479020
88,15,7,Jits_ISO_8,1,1,48,78,1784529272
88,15,7,Jits_ISO_8,2,5,80,127,1784558888
88,15,7,Jits_ISO_8,3,5,63,98,1784578820
88,15,7,Jits_ISO_8,0,5,56,103,1785278820
88,15,7,Jits_ISO_8,1,1,48,76,1785344864
88,15,7,Jits_ISO_8,2,5,63,98,1785389320
88,15,7,Jits_ISO_8,3,5,80,127,1785392688
88,15,7,Jits_ISO_8,0,5,56,103,1786109256
88,15,7,Jits_ISO_8,1,5,80,127,1786139080
88,15,7,Jits_ISO_8,2,5,63,98,1786158420
88,15,7,Jits_ISO_8,3,1,48,127,1786163556
88,15,7,Jits_ISO_8,0,5,63,98,1786888836
88,15,7,Jits_ISO_8,1,5,56,103,1786898956
88,15,7,Jits_ISO_8,2,5,80,127,1786908932
88,15,7,Jits_ISO_8,3,1,48,120,1786960816
88,15,7,Jits_ISO_8,0,5,80,127,1787679032
88,15,7,Jits_ISO_8,1,5,56,103,1787729236
88,15,7,Jits_ISO_8,2,1,48,127,1787743964
88,15,7,Jits_ISO_8,3,5,63,98,1787769168
88,15,7,Jits_ISO_8,0,5,80,127,1788499296
88,15,7,Jits_ISO_8,1,1,48,108,1788502936
88,15,7,Jits_ISO_8,2,5,63,98,1788518852
88,15,7,Jits_ISO_8,3,5,56,103,1788568928
88,15,7,Jits_ISO_8,0,5,80,127,1789309220
88,15,7,Jits_ISO_8,1,1,48,118,1789327656
88,15,7,Jits_ISO_8,2,5,56,103,1789338988
88,15,7,Jits_ISO_8,3,5,63,98,1789408892
88,15,7,Jits_ISO_8,0,1,48,110,1790141236
88,15,7,Jits_ISO_8,1,5,56,103,1790159244
88,15,7,Jits_ISO_8,2,5,80,127,1790168544
88,15,7,Jits_ISO_8,3,5,63,98,1790209456
88,15,7,Jits_ISO_8,0,5,56,103,1790868712
88,15,7,Jits_ISO_8,1,5,63,98,1790889472
88,15,7,Jits_ISO_8,2,1,48,123,1790958476
88,15,7,Jits_ISO_8,3,5,80,127,1790960192
88,15,7,Jits_ISO_8,0,5,63,98,1791688972
88,15,7,Jits_ISO_8,1,1,48,126,1791730752
88,15,7,Jits_ISO_8,2,5,80,127,1791748608
88,15,7,Jits_ISO_8,3,5,56,103,1791768992
88,15,7,Jits_ISO_8,0,5,80,127,1792478724
88,15,7,Jits_ISO_8,1,5,56,103,1792509152
88,15,7,Jits_ISO_8,2,1,48,92,1792510116
88,15,7,Jits_ISO_8,3,5,63,98,1792538968
88,15,7,Jits_ISO_8,0,5,56,103,1793279344
88,15,7,Jits_ISO_8,1,1,48,106,1793311456
88,15,7,Jits_ISO_8,2,5,63,98,1793338756
88,15,7,Jits_ISO_8,3,5,80,127,1793399144
88,15,7,Jits_ISO_8,0,1,48,119,1794089164
88,15,7,Jits_ISO_8,1,5,80,127,1794098776
88,15,7,Jits_ISO_8,2,5,56,103,1794119012
88,15,7,Jits_ISO_8,3,5,63,98,1794188628
88,15,7,Jits_ISO_8,0,5,80,127,1794899560
88,15,7,Jits_ISO_8,1,5,63,98,1794918828
88,15,7,Jits_ISO_8,2,1,48,91,1794925684
88,15,7,Jits_ISO_8,3,5,56,103,1794948568
88,15,7,Jits_ISO_8,0,5,80,127,1795688720
88,15,7,Jits_ISO_8,1,5,63,98,1795709400
88,15,7,Jits_ISO_8,2,1,48,101,1795726244
88,15,7,Jits_ISO_8,3,5,56,103,1795768688
88,15,7,Jits_ISO_8,0,5,80,127,1796488548
88,15,7,Jits_ISO_8,1,1,48,111,1796531524
88,15,7,Jits_ISO_8,2,5,56,103,1796588868
88,15,7,Jits_ISO_8,3,5,63,98,1796618688
88,15,7,Jits_ISO_8,0,5,63,98,1797279144
88,15,7,Jits_ISO_8,1,5,80,127,1797329344
88,15,7,Jits_ISO_8,2,5,56,103,1797348684
88,15,7,Jits_ISO_8,3,1,48,127,1797385580
88,15,7,Jits_ISO_8,0,5,80,127,1798118720
88,15,7,Jits_ISO_8,1,5,56,103,1798148396
88,15,7,Jits_ISO_8,2,5,63,98,1798151532
88,15,7,Jits_ISO_8,3,1,48,112,1798176448
88,15,7,Jits_ISO_8,0,5,63,98,1798949536
88,15,7,Jits_ISO_8,1,1,48,74,1798981952
88,15,7,Jits_ISO_8,2,5,56,103,1798989096
88,15,7,Jits_ISO_8,3,5,80,127,1799008584
88,15,7,Jits_ISO_8,0,5,80,127,1799688492
88,15,7,Jits_ISO_8,1,1,48,122,1799767388
88,15,7,Jits_ISO_8,2,5,63,98,1799769256
88,15,7,Jits_ISO_8,3,1,38,21,1799778376
88,15,7,Jits_ISO_8,4,5,56,103,1799809560
88,15,7,Jits_ISO_8,0,5,63,98,1800508964
88,15,7,Jits_ISO_8,1,1,48,106,1800561008
88,15,7,Jits_ISO_8,2,5,80,127,1800588632
88,15,7,Jits_ISO_8,3,5,56,103,1800609088
88,15,7,Jits_ISO_8,0,5,56,103,1801348624
88,15,7,Jits_ISO_8,1,5,63,98,1801358696
88,15,7,Jits_ISO_8,2,1,48,112,1801365924
88,15,7,Jits_ISO_8,3,5,80,127,1801398628
88,15,7,Jits_ISO_8,0,5,56,103,1802069536
88,15,7,Jits_ISO_8,1,5,80,127,1802072680
88,15,7,Jits_ISO_8,2,1,48,86,1802191648
88,15,7,Jits_ISO_8,3,5,63,98,1802208612
88,15,7,Jits_ISO_8,0,5,56,103,1802858916
88,15,7,Jits_ISO_8,1,5,63,98,1802949076
88,15,7,Jits_ISO_8,2,5,80,127,1803018608
88,15,7,Jits_ISO_8,3,1,48,61,1803047208
88,15,7,Jits_ISO_8,0,5,63,98,1803738604
88,15,7,Jits_ISO_8,1,5,80,127,1803741820
88,15,7,Jits_ISO_8,2,5,56,103,1803798848
88,15,7,Jits_ISO_8,3,1,48,84,1803822788
88,15,7,Jits_ISO_8,0,5,80,127,1804579140
88,15,7,Jits_ISO_8,1,5,56,103,1804598628
88,15,7,Jits_ISO_8,2,5,63,98,1804608752
88,15,7,Jits_ISO_8,3,1,48,104,1804635008
88,15,7,Jits_ISO_8,0,5,56,103,1805288824
88,15,7,Jits_ISO_8,1,5,63,98,1805299020
88,15,7,Jits_ISO_8,2,5,80,127,1805368628
88,15,7,Jits_ISO_8,3,1,48,93,1805471256
88,15,7,Jits_ISO_8,0,5,80,127,1806088544
88,15,7,Jits_ISO_8,1,5,56,103,1806138600
88,15,7,Jits_ISO_8,2,5,63,98,1806188800
88,15,7,Jits_ISO_8,3,1,48,83,1806319828
88,15,7,Jits_ISO_8,0,5,56,103,1806969336
88,15,7,Jits_ISO_8,1,5,63,98,1806978560
88,15,7,Jits_ISO_8,2,5,80,127,1807019572
88,15,7,Jits_ISO_8,3,1,48,105,1807085160
88,15,7,Jits_ISO_8,0,5,56,103,1807708392
88,15,7,Jits_ISO_8,1,5,63,98,1807748484
88,15,7,Jits_ISO_8,2,5,80,127,1807798564
88,15,7,Jits_ISO_8,3,1,48,114,1807902660
88,15,7,Jits_ISO_8,0,5,80,127,1808469392
88,15,7,Jits_ISO_8,1,5,56,103,1808518476
88,15,7,Jits_ISO_8,2,5,63,98,1808538956
88,15,7,Jits_ISO_8,3,1,48,96,1808696856
88,15,7,Jits_ISO_8,0,5,80,127,1809279300
88,15,7,Jits_ISO_8,1,5,63,98,1809338820
88,15,7,Jits_ISO_8,2,5,56,103,1809418692
88,15,7,Jits_ISO_8,3,1,48,100,1809495516
88,15,7,Jits_ISO_8,0,5,80,127,1810058684
88,15,7,Jits_ISO_8,1,5,56,103,1810098548
88,15,7,Jits_ISO_8,2,5,63,98,1810119008
88,15,7,Jits_ISO_8,3,1,48,102,1810264456
88,15,7,Jits_ISO_8,0,1,48,76,1810896724
88,15,7,Jits_ISO_8,1,5,56,103,1810908452
88,15,7,Jits_ISO_8,2,5,80,127,1810918800
88,15,7,Jits_ISO_8,3,5,63,98,1810958812
88,15,7,Jits_ISO_8,0,1,48,101,1811684148
88,15,7,Jits_ISO_8,1,5,56,103,1811779036
88,15,7,Jits_ISO_8,2,5,63,98,1811818960
88,15,7,Jits_ISO_8,3,5,80,127,1811822252
88,15,7,Jits_ISO_8,0,5,63,98,1812469388
88,15,7,Jits_ISO_8,1,1,48,104,1812493632
88,15,7,Jits_ISO_8,2,5,80,127,1812509320
88,15,7,Jits_ISO_8,3,5,56,103,1812578628
88,15,7,Jits_ISO_8,0,5,63,98,1813258544
88,15,7,Jits_ISO_8,1,1,48,109,1813259512
88,15,7,Jits_ISO_8,2,5,56,103,1813338412
88,15,7,Jits_ISO_8,3,5,80,127,1813398884
88,15,7,Jits_ISO_8,0,1,48,115,1814057336
88,15,7,Jits_ISO_8,1,5,80,127,1814068668
88,15,7,Jits_ISO_8,2,5,63,98,1814118872
88,15,7,Jits_ISO_8,3,5,56,103,1814148324
88,15,7,Jits_ISO_8,0,1,48,108,1814842968
88,15,7,Jits_ISO_8,1,5,56,103,1814859108
88,15,7,Jits_ISO_8,2,5,63,98,1814909384
88,15,7,Jits_ISO_8,3,5,80,127,1814918460
88,15,7,Jits_ISO_8,0,1,48,94,1815622892
88,15,7,Jits_ISO_8,1,5,56,103,1815669224
88,15,7,Jits_ISO_8,2,5,63,98,1815778552
88,15,7,Jits_ISO_8,3,5,80,127,1815799236
88,15,7,Jits_ISO_8,0,5,63,98,1816468964
88,15,7,Jits_ISO_8,1,1,48,106,1816507080
88,15,7,Jits_ISO_8,2,5,80,127,1816519312
88,15,7,Jits_ISO_8,3,5,56,103,1816609204
88,15,7,Jits_ISO_8,0,5,63,98,1817259320
88,15,7,Jits_ISO_8,1,1,48,90,1817264752
88,15,7,Jits_ISO_8,2,5,80,127,1817289360
88,15,7,Jits_ISO_8,3,5,56,103,1817379104
88,15,7,Jits_ISO_8,0,5,63,98,1818059248
88,15,7,Jits_ISO_8,1,5,56,103,1818069368
88,15,7,Jits_ISO_8,2,1,48,106,1818092116
88,15,7,Jits_ISO_8,3,5,80,127,1818168636
88,15,7,Jits_ISO_8,0,1,48,121,1818901184
88,15,7,Jits_ISO_8,1,5,63,98,1818959352
88,15,7,Jits_ISO_8,2,5,80,127,1818988880
88,15,7,Jits_ISO_8,3,5,56,103,1819018568
88,15,7,Jits_ISO_8,0,1,48,91,1819736604
88,15,7,Jits_ISO_8,1,5,80,127,1819778356
88,15,7,Jits_ISO_8,2,5,63,98,1819788724
88,15,7,Jits_ISO_8,3,5,56,103,1819819448
88,15,7,Jits_ISO_8,0,5,80,127,1820478732
88,15,7,Jits_ISO_8,1,5,63,98,1820499264
88,15,7,Jits_ISO_8,2,5,56,103,1820548420
88,15,7,Jits_ISO_8,3,1,48,111,1820580980
88,15,7,Jits_ISO_8,0,5,63,98,1821309304
88,15,7,Jits_ISO_8,1,5,80,127,1821368672
88,15,7,Jits_ISO_8,2,1,48,97,1821382056
88,15,7,Jits_ISO_8,3,5,56,103,1821389124
88,15,7,Jits_ISO_8,0,5,63,98,1822069080
88,15,7,Jits_ISO_8,1,5,56,103,1822119160
88,15,7,Jits_ISO_8,2,5,80,127,1822128532
88,15,7,Jits_ISO_8,3,1,48,79,1822142512
88,15,7,Jits_ISO_8,0,5,56,103,1822898480
88,15,7,Jits_ISO_8,1,1,48,103,1822899448
88,15,7,Jits_ISO_8,2,5,80,127,1822909192
88,15,7,Jits_ISO_8,3,5,63,98,1823009124
88,15,7,Jits_ISO_8,0,5,80,127,1823659328
88,15,7,Jits_ISO_8,1,5,63,98,1823668552
88,15,7,Jits_ISO_8,2,1,48,115,1823740520
88,15,7,Jits_ISO_8,3,5,56,103,1823818988
88,15,7,Jits_ISO_8,0,5,63,98,1824469324
88,15,7,Jits_ISO_8,1,5,80,127,1824509264
88,15,7,Jits_ISO_8,2,1,48,84,1824518236
88,15,7,Jits_ISO_8,3,5,56,103,1824589200
88,15,7,Jits_ISO_8,0,5,56,103,1825258992
88,15,7,Jits_ISO_8,1,1,48,121,1825305556
88,15,7,Jits_ISO_8,2,5,80,127,1825359312
88,15,7,Jits_ISO_8,3,5,63,98,1825378648
88,15,7,Jits_ISO_8,0,1,48,84,1826114204
88,15,7,Jits_ISO_8,1,5,80,127,1826119108
88,15,7,Jits_ISO_8,2,5,56,103,1826129156
88,15,7,Jits_ISO_8,3,5,63,98,1826219372
88,15,7,Jits_ISO_8,0,5,56,103,1826919200
88,15,7,Jits_ISO_8,1,5,63,98,1826939140
88,15,7,Jits_ISO_8,2,1,48,109,1826940104
88,15,7,Jits_ISO_8,3,5,80,127,1827019100
88,15,7,Jits_ISO_8,0,5,63,98,1827669412
88,15,7,Jits_ISO_8,1,5,56,103,1827758376
88,15,7,Jits_ISO_8,2,1,48,110,1827761516
88,15,7,Jits_ISO_8,3,5,80,127,1827763232
88,15,7,Jits_ISO_8,0,5,56,103,1828498892
88,15,7,Jits_ISO_8,1,1,48,105,1828513620
88,15,7,Jits_ISO_8,2,5,80,127,1828559280
88,15,7,Jits_ISO_8,3,5,63,98,1828568428
88,15,7,Jits_ISO_8,0,1,48,113,1829303536
88,15,7,Jits_ISO_8,1,5,80,127,1829348672
88,15,7,Jits_ISO_8,2,5,56,103,1829359244
88,15,7,Jits_ISO_8,3,5,63,98,1829362228
88,15,7,Jits_ISO_8,0,1,48,87,1830085200
88,15,7,Jits_ISO_8,1,5,56,103,1830108392
88,15,7,Jits_ISO_8,2,5,80,127,1830118736
88,15,7,Jits_ISO_8,3,5,63,98,1830139192
88,15,7,Jits_ISO_8,0,1,48,97,1830864984
88,15,7,Jits_ISO_8,1,5,63,98,1830878504
88,15,7,Jits_ISO_8,2,5,80,127,1830939044
88,15,7,Jits_ISO_8,3,5,56,103,1830989232
88,15,7,Jits_ISO_8,0,1,48,109,1831682000
88,15,7,Jits_ISO_8,1,5,63,98,1831759280
88,15,7,Jits_ISO_8,2,5,56,103,1831768356
88,15,7,Jits_ISO_8,3,5,80,127,1831818644
88,15,7,Jits_ISO_8,0,5,63,98,1832458556
88,15,7,Jits_ISO_8,1,5,80,127,1832479092
88,15,7,Jits_ISO_8,2,5,56,103,1832489360
88,15,7,Jits_ISO_8,3,1,48,90,1832525360
88,15,7,Jits_ISO_8,0,5,63,98,1833259224
88,15,7,Jits_ISO_8,1,5,80,127,1833262816
88,15,7,Jits_ISO_8,2,1,48,84,1833295228
88,15,7,Jits_ISO_8,3,5,56,103,1833299384
88,15,7,Jits_ISO_8,0,1,48,94,1834046064
88,15,7,Jits_ISO_8,1,5,63,98,1834128768
88,15,7,Jits_ISO_8,2,5,80,127,1834158504
88,15,7,Jits_ISO_8,3,5,56,103,1834168924
88,15,7,Jits_ISO_8,0,1,48,89,1834872380
88,15,7,Jits_ISO_8,1,5,56,103,1834879304
88,15,7,Jits_ISO_8,2,5,80,127,1834909080
88,15,7,Jits_ISO_8,3,5,63,98,1834938904
88,15,7,Jits_ISO_8,0,1,48,68,1835686940
88,15,7,Jits_ISO_8,1,5,63,98,1835778388
88,15,7,Jits_ISO_8,2,5,56,103,1835819508
88,15,7,Jits_ISO_8,3,5,80,127,1835822648
88,15,7,Jits_ISO_8,0,5,80,127,1836478900
88,15,7,Jits_ISO_8,1,1,48,86,1836532364
88,15,7,Jits_ISO_8,2,5,56,103,1836558916
88,15,7,Jits_ISO_8,3,5,63,98,1836609120
88,15,7,Jits_ISO_8,0,5,80,127,1837259148
88,15,7,Jits_ISO_8,1,5,56,103,1837278636
88,15,7,Jits_ISO_8,2,1,48,79,1837342136
88,15,7,Jits_ISO_8,3,5,63,98,1837369060
88,15,7,Jits_ISO_8,0,1,48,85,1838043620
88,15,7,Jits_ISO_8,1,5,80,127,1838098944
88,15,7,Jits_ISO_8,2,5,63,98,1838138884
88,15,7,Jits_ISO_8,3,5,56,103,1838178884
88,15,7,Jits_ISO_8,0,1,48,93,1838798160
88,15,7,Jits_ISO_8,1,5,63,98,1838868984
88,15,7,Jits_ISO_8,2,5,80,127,1838929140
88,15,7,Jits_ISO_8,3,5,56,103,1838958964
88,15,7,Jits_ISO_8,0,1,48,115,1839634264
88,15,7,Jits_ISO_8,1,5,56,103,1839668692
88,15,7,Jits_ISO_8,2,5,80,127,1839699340
88,15,7,Jits_ISO_8,3,5,63,98,1839789408
88,15,7,Jits_ISO_8,0,1,48,95,1840460008
88,15,7,Jits_ISO_8,1,5,56,103,1840478540
88,15,7,Jits_ISO_8,2,5,80,127,1840589136
88,15,7,Jits_ISO_8,3,5,63,98,1840618960
88,15,7,Jits_ISO_8,0,1,48,87,1841315928
88,15,7,Jits_ISO_8,1,5,56,103,1841328400
88,15,7,Jits_ISO_8,2,5,63,98,1841389092
88,15,7,Jits_ISO_8,3,5,80,127,1841418680
88,15,7,Jits_ISO_8,0,5,56,103,1842098676
88,15,7,Jits_ISO_8,1,1,48,107,1842133632
88,15,7,Jits_ISO_8,2,5,63,98,1842169176
88,15,7,Jits_ISO_8,3,5,80,127,1842188960
88,15,7,Jits_ISO_8,0,5,80,127,1842868520
88,15,7,Jits_ISO_8,1,5,63,98,1842889204
88,15,7,Jits_ISO_8,2,1,48,116,1842902884
88,15,7,Jits_ISO_8,3,5,56,103,1842939176
88,15,7,Jits_ISO_8,0,9999,9999,9999,1748137064
88,15,7,Jits_ISO_8,1,9999,9999,9999,1748936768
88,15,7,Jits_ISO_8,2,9999,9999,9999,1749736560
88,15,7,Jits_ISO_8,3,9999,9999,9999,1750536280
88,15,7,Jits_ISO_8,4,9999,9999,9999,1751337016
88,15,7,Jits_ISO_8,5,9999,9999,9999,1752136816
88,15,7,Jits_ISO_8,6,9999,9999,9999,1752936524
88,15,7,Jits_ISO_8,7,9999,9999,9999,1753736248
88,15,7,Jits_ISO_8,8,9999,9999,9999,1754537044
88,15,7,Jits_ISO_8,9,9999,9999,9999,1755336812
88,15,7,Jits_ISO_8,10,9999,9999,9999,1756136508
88,15,7,Jits_ISO_8,11,9999,9999,9999,1756936316
88,15,7,Jits_ISO_8,12,9999,9999,9999,1757737028
88,15,7,Jits_ISO_8,13,9999,9999,9999,1758536824
88,15,7,Jits_ISO_8,14,9999,9999,9999,1759336524
88,15,7,Jits_ISO_8,15,9999,9999,9999,1760136244
88,15,7,Jits_ISO_8,16,9999,9999,9999,1760937020
88,15,7,Jits_ISO_8,17,9999,9999,9999,1761736764
88,15,7,Jits_ISO_8,18,9999,9999,9999,1762536548
88,15,7,Jits_ISO_8,19,9999,9999,9999,1763336284
88,15,7,Jits_ISO_8,20,9999,9999,9999,1764137048
88,15,7,Jits_ISO_8,21,9999,9999,9999,1764936828
88,15,7,Jits_ISO_8,22,9999,9999,9999,1765736552
88,15,7,Jits_ISO_8,23,9999,9999,9999,1766536284
88,15,7,Jits_ISO_8,24,9999,9999,9999,1767337076
88,15,7,Jits_ISO_8,25,9999,9999,9999,1768136804
88,15,7,Jits_ISO_8,26,9999,9999,9999,1768936536
88,15,7,Jits_ISO_8,27,9999,9999,9999,1769736276
88,15,7,Jits_ISO_8,28,9999,9999,9999,1770537044
88,15,7,Jits_ISO_8,29,9999,9999,9999,1771336760
88,15,7,Jits_ISO_8,30,9999,9999,9999,1772136560
88,15,7,Jits_ISO_8,31,9999,9999,9999,1772936308
88,15,7,Jits_ISO_8,32,9999,9999,9999,1773737012
88,15,7,Jits_ISO_8,33,9999,9999,9999,1774536804
88,15,7,Jits_ISO_8,34,9999,9999,9999,1775336528
88,15,7,Jits_ISO_8,35,9999,9999,9999,1776136316
88,15,7,Jits_ISO_8,36,9999,9999,9999,1776937076
88,15,7,Jits_ISO_8,37,9999,9999,9999,1777736812
88,15,7,Jits_ISO_8,38,9999,9999,9999,1778536532
88,15,7,Jits_ISO_8,39,9999,9999,9999,1779336296
88,15,7,Jits_ISO_8,40,9999,9999,9999,1780137080
88,15,7,Jits_ISO_8,41,9999,9999,9999,1780936812
88,15,7,Jits_ISO_8,42,9999,9999,9999,1781736520
88,15,7,Jits_ISO_8,43,9999,9999,9999,1782536320
88,15,7,Jits_ISO_8,44,9999,9999,9999,1783337060
88,15,7,Jits_ISO_8,45,9999,9999,9999,1784136784
88,15,7,Jits_ISO_8,46,9999,9999,9999,1784936512
88,15,7,Jits_ISO_8,47,9999,9999,9999,1785736252
88,15,7,Jits_ISO_8,48,9999,9999,9999,1786537024
88,15,7,Jits_ISO_8,49,9999,9999,9999,1787336828
88,15,7,Jits_ISO_8,50,9999,9999,9999,1788136544
88,15,7,Jits_ISO_8,51,9999,9999,9999,1788936280
88,15,7,Jits_ISO_8,52,9999,9999,9999,1789737064
88,15,7,Jits_ISO_8,53,9999,9999,9999,1790536804
88,15,7,Jits_ISO_8,54,9999,9999,9999,1791336536
88,15,7,Jits_ISO_8,55,9999,9999,9999,1792136292
88,15,7,Jits_ISO_8,56,9999,9999,9999,1792937060
88,15,7,Jits_ISO_8,57,9999,9999,9999,1793736780
88,15,7,Jits_ISO_8,58,9999,9999,9999,1794536516
88,15,7,Jits_ISO_8,59,9999,9999,9999,1795336248
88,15,7,Jits_ISO_8,60,9999,9999,9999,1796137088
88,15,7,Jits_ISO_8,61,9999,9999,9999,1796936820
88,15,7,Jits_ISO_8,62,9999,9999,9999,1797736552
88,15,7,Jits_ISO_8,63,9999,9999,9999,1798536288
88,15,7,Jits_ISO_8,64,9999,9999,9999,1799337076
88,15,7,Jits_ISO_8,65,9999,9999,9999,1800136828
88,15,7,Jits_ISO_8,66,9999,9999,9999,1800936512
88,15,7,Jits_ISO_8,67,9999,9999,9999,1801736312
88,15,7,Jits_ISO_8,68,9999,9999,9999,1802537080
88,15,7,Jits_ISO_8,69,9999,9999,9999,1803336808
88,15,7,Jits_ISO_8,70,9999,9999,9999,1804136524
88,15,7,Jits_ISO_8,71,9999,9999,9999,1804936264
88,15,7,Jits_ISO_8,72,9999,9999,9999,1805737044
88,15,7,Jits_ISO_8,73,9999,9999,9999,1806536768
88,15,7,Jits_ISO_8,74,9999,9999,9999,1807336500
88,15,7,Jits_ISO_8,75,9999,9999,9999,1808136316
88,15,7,Jits_ISO_8,76,9999,9999,9999,1808937016
88,15,7,Jits_ISO_8,77,9999,9999,9999,1809736816
88,15,7,Jits_ISO_8,78,9999,9999,9999,1810536544
88,15,7,Jits_ISO_8,79,9999,9999,9999,1811336300
88,15,7,Jits_ISO_8,80,9999,9999,9999,1812137060
88,15,7,Jits_ISO_8,81,9999,9999,9999,1812936788
88,15,7,Jits_ISO_8,82,9999,9999,9999,1813736512
88,15,7,Jits_ISO_8,83,9999,9999,9999,1814536300
88,15,7,Jits_ISO_8,84,9999,9999,9999,1815337048
88,15,7,Jits_ISO_8,85,9999,9999,9999,1816136784
88,15,7,Jits_ISO_8,86,9999,9999,9999,1816936568
88,15,7,Jits_ISO_8,87,9999,9999,9999,1817736308
88,15,7,Jits_ISO_8,88,9999,9999,9999,1818537060
88,15,7,Jits_ISO_8,89,9999,9999,9999,1819336788
88,15,7,Jits_ISO_8,90,9999,9999,9999,1820136532
88,15,7,Jits_ISO_8,91,9999,9999,9999,1820936288
88,15,7,Jits_ISO_8,92,9999,9999,9999,1821737072
88,15,7,Jits_ISO_8,93,9999,9999,9999,1822536776
88,15,7,Jits_ISO_8,94,9999,9999,9999,1823336564
88,15,7,Jits_ISO_8,95,9999,9999,9999,1824136244
88,15,7,Jits_ISO_8,96,9999,9999,9999,1824937024
88,15,7,Jits_ISO_8,97,9999,9999,9999,1825736808
88,15,7,Jits_ISO_8,98,9999,9999,9999,1826536548
88,15,7,Jits_ISO_8,99,9999,9999,9999,1827336260
88,15,7,Jits_ISO_8,100,9999,9999,9999,1828137028
88,15,7,Jits_ISO_8,101,9999,9999,9999,1828936828
88,15,7,Jits_ISO_8,102,9999,9999,9999,1829736556
88,15,7,Jits_ISO_8,103,9999,9999,9999,1830536312
88,15,7,Jits_ISO_8,104,9999,9999,9999,1831337068
88,15,7,Jits_ISO_8,105,9999,9999,9999,1832136788
88,15,7,Jits_ISO_8,106,9999,9999,9999,1832936516
88,15,7,Jits_ISO_8,107,9999,9999,9999,1833736280
88,15,7,Jits_ISO_8,108,9999,9999,9999,1834537036
88,15,7,Jits_ISO_8,109,9999,9999,9999,1835336820
88,15,7,Jits_ISO_8,110,9999,9999,9999,1836136532
88,15,7,Jits_ISO_8,111,9999,9999,9999,1836936268
88,15,7,Jits_ISO_8,112,9999,9999,9999,1837737036
88,15,7,Jits_ISO_8,113,9999,9999,9999,1838536760
88,15,7,Jits_ISO_8,114,9999,9999,9999,1839336544
88,15,7,Jits_ISO_8,115,9999,9999,9999,1840136248
88,15,7,Jits_ISO_8,116,9999,9999,9999,1840937032
88,15,7,Jits_ISO_8,117,9999,9999,9999,1841736824
88,15,7,Jits_ISO_8,118,9999,9999,9999,1842536536
88,15,7,Jits_ISO_8,119,9999,9999,9999,1843336292
88,16,17,Jits_Phase_5,0,5,56,103,1852492084
88,16,17,Jits_Phase_5,1,5,63,98,1852495260
88,16,17,Jits_Phase_5,2,5,80,127,1852498532
88,16,17,Jits_Phase_5,0,5,56,103,1852991872
88,16,17,Jits_Phase_5,1,5,63,98,1852994968
88,16,17,Jits_Phase_5,2,5,80,127,1852998168
88,16,17,Jits_Phase_5,0,5,56,103,1853491600
88,16,17,Jits_Phase_5,1,5,80,127,1853501792
88,16,17,Jits_Phase_5,2,5,63,98,1853522176
88,16,17,Jits_Phase_5,0,5,63,98,1853942176
88,16,17,Jits_Phase_5,1,5,80,127,1853971776
88,16,17,Jits_Phase_5,2,5,56,103,1853981972
88,16,17,Jits_Phase_5,0,1,48,95,1854475340
88,16,17,Jits_Phase_5,1,5,80,127,1854502188
88,16,17,Jits_Phase_5,2,5,56,103,1854511560
88,16,17,Jits_Phase_5,3,5,63,98,1854542060
88,16,17,Jits_Phase_5,0,5,63,98,1854991684
88,16,17,Jits_Phase_5,1,5,56,103,1855021436
88,16,17,Jits_Phase_5,2,5,80,127,1855031780
88,16,17,Jits_Phase_5,3,1,48,81,1855035648
88,16,17,Jits_Phase_5,0,5,56,103,1855442512
88,16,17,Jits_Phase_5,1,5,63,98,1855491516
88,16,17,Jits_Phase_5,2,5,80,127,1855511904
88,16,17,Jits_Phase_5,3,1,48,121,1855514724
88,16,17,Jits_Phase_5,0,5,80,127,1855941916
88,16,17,Jits_Phase_5,1,1,48,99,1855973728
88,16,17,Jits_Phase_5,2,5,63,98,1855992556
88,16,17,Jits_Phase_5,3,5,56,103,1856032120
88,16,17,Jits_Phase_5,0,5,56,103,1856441604
88,16,17,Jits_Phase_5,1,5,63,98,1856472552
88,16,17,Jits_Phase_5,2,1,48,117,1856507652
88,16,17,Jits_Phase_5,3,5,80,127,1856541996
88,16,17,Jits_Phase_5,0,5,56,103,1856941524
88,16,17,Jits_Phase_5,1,1,48,127,1856964724
88,16,17,Jits_Phase_5,2,5,80,127,1857001832
88,16,17,Jits_Phase_5,3,5,63,98,1857031656
88,16,17,Jits_Phase_5,0,5,56,103,1857452460
88,16,17,Jits_Phase_5,1,5,63,98,1857461612
88,16,17,Jits_Phase_5,2,1,48,98,1857464580
88,16,17,Jits_Phase_5,3,5,80,127,1857501540
88,16,17,Jits_Phase_5,0,5,63,98,1857941888
88,16,17,Jits_Phase_5,1,1,48,103,1857961268
88,16,17,Jits_Phase_5,2,5,80,127,1858021748
88,16,17,Jits_Phase_5,3,5,56,103,1858031868
88,16,17,Jits_Phase_5,0,1,48,116,1858461924
88,16,17,Jits_Phase_5,1,1,38,21,1858472388
88,16,17,Jits_Phase_5,2,5,63,98,1858491816
88,16,17,Jits_Phase_5,3,5,56,103,1858531680
88,16,17,Jits_Phase_5,4,5,80,127,1858534744
88,16,17,Jits_Phase_5,0,5,56,103,1858951536
88,16,17,Jits_Phase_5,1,5,63,98,1858961808
88,16,17,Jits_Phase_5,2,5,80,127,1859001744
88,16,17,Jits_Phase_5,3,1,48,101,1859019312
88,16,17,Jits_Phase_5,0,5,56,103,1859442064
88,16,17,Jits_Phase_5,1,5,63,98,1859445056
88,16,17,Jits_Phase_5,2,5,80,127,1859461500
88,16,17,Jits_Phase_5,3,1,48,94,1859522152
88,16,17,Jits_Phase_5,0,5,80,127,1859952080
88,16,17,Jits_Phase_5,1,5,56,103,1859962348
88,16,17,Jits_Phase_5,2,1,48,106,1860006392
88,16,17,Jits_Phase_5,3,1,38,21,1860016788
88,16,17,Jits_Phase_5,4,5,63,98,1860031800
88,16,17,Jits_Phase_5,0,5,63,98,1860441520
88,16,17,Jits_Phase_5,1,5,56,103,1860461976
88,16,17,Jits_Phase_5,2,1,48,97,1860508792
88,16,17,Jits_Phase_5,3,5,80,127,1860541784
88,16,17,Jits_Phase_5,0,5,56,103,1860952652
88,16,17,Jits_Phase_5,1,5,80,127,1860992588
88,16,17,Jits_Phase_5,2,5,63,98,1861001612
88,16,17,Jits_Phase_5,3,1,48,92,1861003024
88,16,17,Jits_Phase_5,0,5,80,127,1861441928
88,16,17,Jits_Phase_5,1,1,48,80,1861470088
88,16,17,Jits_Phase_5,2,5,63,98,1861471672
88,16,17,Jits_Phase_5,3,5,56,103,1861511484
88,16,17,Jits_Phase_5,0,1,48,94,1861956256
88,16,17,Jits_Phase_5,1,5,56,103,1861961984
88,16,17,Jits_Phase_5,2,5,63,98,1861991660
88,16,17,Jits_Phase_5,3,5,80,127,1862041884
88,16,17,Jits_Phase_5,0,5,80,127,1862461668
88,16,17,Jits_Phase_5,1,1,48,120,1862463004
88,16,17,Jits_Phase_5,2,1,38,22,1862473540
88,16,17,Jits_Phase_5,3,5,56,103,1862501740
88,16,17,Jits_Phase_5,4,5,63,98,1862511936
88,16,17,Jits_Phase_5,0,5,80,127,1862942052
88,16,17,Jits_Phase_5,1,1,48,109,1862977228
88,16,17,Jits_Phase_5,2,5,63,98,1862982056
88,16,17,Jits_Phase_5,3,5,56,103,1863042592
88,16,17,Jits_Phase_5,0,5,56,103,1863441744
88,16,17,Jits_Phase_5,1,5,80,127,1863451940
88,16,17,Jits_Phase_5,2,1,48,116,1863478124
88,16,17,Jits_Phase_5,3,1,38,22,1863488820
88,16,17,Jits_Phase_5,4,5,63,98,1863531780
88,16,17,Jits_Phase_5,0,5,80,127,1863941520
88,16,17,Jits_Phase_5,1,1,48,114,1863985988
88,16,17,Jits_Phase_5,2,5,63,98,1864001832
88,16,17,Jits_Phase_5,3,5,56,103,1864031504
88,16,17,Jits_Phase_5,0,5,56,103,1864442416
88,16,17,Jits_Phase_5,1,1,48,127,1864487412
88,16,17,Jits_Phase_5,2,5,80,127,1864501532
88,16,17,Jits_Phase_5,3,5,63,98,1864541540
88,16,17,Jits_Phase_5,0,1,48,127,1864974076
88,16,17,Jits_Phase_5,1,5,56,103,1864992232
88,16,17,Jits_Phase_5,2,5,63,98,1865002656
88,16,17,Jits_Phase_5,3,5,80,127,1865005940
88,16,17,Jits_Phase_5,0,5,80,127,1865441588
88,16,17,Jits_Phase_5,1,1,48,127,1865474968
88,16,17,Jits_Phase_5,2,5,63,98,1865531712
88,16,17,Jits_Phase_5,3,5,56,103,1865542132
88,16,17,Jits_Phase_5,0,5,56,103,1865942472
88,16,17,Jits_Phase_5,1,5,63,98,1865945644
88,16,17,Jits_Phase_5,2,5,80,127,1865948692
88,16,17,Jits_Phase_5,3,1,48,127,1865951900
88,16,17,Jits_Phase_5,0,1,48,127,1866437404
88,16,17,Jits_Phase_5,1,5,80,127,1866471752
88,16,17,Jits_Phase_5,2,5,63,98,1866521952
88,16,17,Jits_Phase_5,3,5,56,103,1866551688
88,16,17,Jits_Phase_5,0,1,48,127,1866944532
88,16,17,Jits_Phase_5,1,5,56,103,1866951976
88,16,17,Jits_Phase_5,2,5,80,127,1866962616
88,16,17,Jits_Phase_5,3,5,63,98,1867031848
88,16,17,Jits_Phase_5,0,1,48,123,1867447968
88,16,17,Jits_Phase_5,1,5,56,103,1867461864
88,16,17,Jits_Phase_5,2,5,63,98,1867481572
88,16,17,Jits_Phase_5,3,5,80,127,1867541736
88,16,17,Jits_Phase_5,0,5,80,127,1867942240
88,16,17,Jits_Phase_5,1,1,48,116,1867982976
88,16,17,Jits_Phase_5,2,5,63,98,1868011916
88,16,17,Jits_Phase_5,3,5,56,103,1868032300
88,16,17,Jits_Phase_5,0,5,80,127,1868461496
88,16,17,Jits_Phase_5,1,5,56,103,1868471620
88,16,17,Jits_Phase_5,2,5,63,98,1868482036
88,16,17,Jits_Phase_5,3,1,48,122,1868512800
88,16,17,Jits_Phase_5,0,5,80,127,1868952052
88,16,17,Jits_Phase_5,1,5,56,103,1868972364
88,16,17,Jits_Phase_5,2,1,48,126,1869012788
88,16,17,Jits_Phase_5,3,5,63,98,1869041884
88,16,17,Jits_Phase_5,0,5,56,103,1869461940
88,16,17,Jits_Phase_5,1,1,48,127,1869488800
88,16,17,Jits_Phase_5,2,5,80,127,1869491756
88,16,17,Jits_Phase_5,3,5,63,98,1869511916
88,16,17,Jits_Phase_5,0,5,63,98,1869952620
88,16,17,Jits_Phase_5,1,1,48,103,1869971660
88,16,17,Jits_Phase_5,2,5,56,103,1870011684
88,16,17,Jits_Phase_5,3,5,80,127,1870041508
88,16,17,Jits_Phase_5,0,5,63,98,1870441740
88,16,17,Jits_Phase_5,1,5,80,127,1870445256
88,16,17,Jits_Phase_5,2,1,48,101,1870492164
88,16,17,Jits_Phase_5,3,5,56,103,1870531816
88,16,17,Jits_Phase_5,0,5,56,103,1870962320
88,16,17,Jits_Phase_5,1,1,48,110,1870983524
88,16,17,Jits_Phase_5,2,5,63,98,1870991716
88,16,17,Jits_Phase_5,3,5,80,127,1871031652
88,16,17,Jits_Phase_5,0,5,63,98,1871461724
88,16,17,Jits_Phase_5,1,5,56,103,1871501612
88,16,17,Jits_Phase_5,2,1,48,90,1871512676
88,16,17,Jits_Phase_5,3,5,80,127,1871522584
88,16,17,Jits_Phase_5,0,5,63,98,1871971732
88,16,17,Jits_Phase_5,1,1,48,84,1871987580
88,16,17,Jits_Phase_5,2,5,56,103,1872011688
88,16,17,Jits_Phase_5,3,5,80,127,1872021808
88,16,17,Jits_Phase_5,0,5,80,127,1872452076
88,16,17,Jits_Phase_5,1,1,48,105,1872484864
88,16,17,Jits_Phase_5,2,5,63,98,1872521552
88,16,17,Jits_Phase_5,3,5,56,103,1872542160
88,16,17,Jits_Phase_5,0,5,56,103,1872941440
88,16,17,Jits_Phase_5,1,5,80,127,1872961900
88,16,17,Jits_Phase_5,2,1,48,73,1872963912
88,16,17,Jits_Phase_5,3,5,63,98,1873001828
88,16,17,Jits_Phase_5,0,5,63,98,1873452360
88,16,17,Jits_Phase_5,1,1,48,79,1873461408
88,16,17,Jits_Phase_5,2,5,80,127,1873471840
88,16,17,Jits_Phase_5,3,5,56,103,1873511700
88,16,17,Jits_Phase_5,0,5,63,98,1873952332
88,16,17,Jits_Phase_5,1,1,48,81,1873961232
88,16,17,Jits_Phase_5,2,5,56,103,1873971516
88,16,17,Jits_Phase_5,3,5,80,127,1873981860
88,16,17,Jits_Phase_5,0,5,80,127,1874451684
88,16,17,Jits_Phase_5,1,1,48,83,1874469772
88,16,17,Jits_Phase_5,2,5,56,103,1874472432
88,16,17,Jits_Phase_5,3,5,63,98,1874501960
88,16,17,Jits_Phase_5,0,1,48,86,1874980936
88,16,17,Jits_Phase_5,1,5,56,103,1875022380
88,16,17,Jits_Phase_5,2,5,80,127,1875025372
88,16,17,Jits_Phase_5,3,5,63,98,1875041720
88,16,17,Jits_Phase_5,0,5,63,98,1875441976
88,16,17,Jits_Phase_5,1,5,56,103,1875471652
88,16,17,Jits_Phase_5,2,1,48,83,1875521072
88,16,17,Jits_Phase_5,3,5,80,127,1875532328
88,16,17,Jits_Phase_5,0,1,48,127,1875966856
88,16,17,Jits_Phase_5,1,5,63,98,1876021584
88,16,17,Jits_Phase_5,2,5,56,103,1876031780
88,16,17,Jits_Phase_5,3,5,80,127,1876042048
88,16,17,Jits_Phase_5,0,1,48,127,1876468288
88,16,17,Jits_Phase_5,1,5,56,103,1876482552
88,16,17,Jits_Phase_5,2,5,80,127,1876512304
88,16,17,Jits_Phase_5,3,5,63,98,1876522500
88,16,17,Jits_Phase_5,0,1,48,127,1876975408
88,16,17,Jits_Phase_5,1,5,63,98,1877022264
88,16,17,Jits_Phase_5,2,5,56,103,1877032384
88,16,17,Jits_Phase_5,3,5,80,127,1877051648
88,16,17,Jits_Phase_5,0,5,56,103,1877452224
88,16,17,Jits_Phase_5,1,1,48,127,1877489496
88,16,17,Jits_Phase_5,2,5,63,98,1877511484
88,16,17,Jits_Phase_5,3,5,80,127,1877514772
88,16,17,Jits_Phase_5,0,5,80,127,1877972292
88,16,17,Jits_Phase_5,1,1,48,127,1877979396
88,16,17,Jits_Phase_5,2,5,56,103,1877981584
88,16,17,Jits_Phase_5,3,5,63,98,1878052232
88,16,17,Jits_Phase_5,0,5,80,127,1878461956
88,16,17,Jits_Phase_5,1,1,48,127,1878472420
88,16,17,Jits_Phase_5,2,5,56,103,1878531408
88,16,17,Jits_Phase_5,3,5,63,98,1878541824
88,16,17,Jits_Phase_5,0,1,48,120,1878985220
88,16,17,Jits_Phase_5,1,5,63,98,1879001360
88,16,17,Jits_Phase_5,2,5,56,103,1879011632
88,16,17,Jits_Phase_5,3,5,80,127,1879032460
88,16,17,Jits_Phase_5,0,5,80,127,1879452220
88,16,17,Jits_Phase_5,1,1,48,88,1879460664
88,16,17,Jits_Phase_5,2,1,38,19,1879470760
88,16,17,Jits_Phase_5,3,5,63,98,1879512436
88,16,17,Jits_Phase_5,4,5,56,103,1879552224
88,16,17,Jits_Phase_5,0,1,48,102,1879970260
88,16,17,Jits_Phase_5,1,1,38,20,1879980728
88,16,17,Jits_Phase_5,2,5,56,103,1879991612
88,16,17,Jits_Phase_5,3,5,63,98,1880001884
88,16,17,Jits_Phase_5,4,5,80,127,1880041744
88,16,17,Jits_Phase_5,0,5,56,103,1880451632
88,16,17,Jits_Phase_5,1,1,48,122,1880471988
88,16,17,Jits_Phase_5,2,5,80,127,1880482348
88,16,17,Jits_Phase_5,3,5,63,98,1880532324
88,16,17,Jits_Phase_5,0,1,48,127,1880952176
88,16,17,Jits_Phase_5,1,5,56,103,1880992304
88,16,17,Jits_Phase_5,2,5,63,98,1881032316
88,16,17,Jits_Phase_5,3,5,80,127,1881035528
88,16,17,Jits_Phase_5,0,1,48,103,1881459572
88,16,17,Jits_Phase_5,1,5,56,103,1881491924
88,16,17,Jits_Phase_5,2,5,63,98,1881502196
88,16,17,Jits_Phase_5,3,5,80,127,1881521460
88,16,17,Jits_Phase_5,0,5,56,103,1881951528
88,16,17,Jits_Phase_5,1,5,80,127,1881954444
88,16,17,Jits_Phase_5,2,1,48,127,1881960044
88,16,17,Jits_Phase_5,3,5,63,98,1881991480
88,16,17,Jits_Phase_5,0,1,48,127,1882469620
88,16,17,Jits_Phase_5,1,5,63,98,1882492188
88,16,17,Jits_Phase_5,2,5,56,103,1882521964
88,16,17,Jits_Phase_5,3,5,80,127,1882541372
88,16,17,Jits_Phase_5,0,5,80,127,1882962224
88,16,17,Jits_Phase_5,1,5,56,103,1882971448
88,16,17,Jits_Phase_5,2,1,48,127,1882974188
88,16,17,Jits_Phase_5,3,5,63,98,1882981932
88,16,17,Jits_Phase_5,0,5,56,103,1883462144
88,16,17,Jits_Phase_5,1,1,48,127,1883486012
88,16,17,Jits_Phase_5,2,5,80,127,1883502076
88,16,17,Jits_Phase_5,3,5,63,98,1883531624
88,16,17,Jits_Phase_5,0,1,48,127,1883968396
88,16,17,Jits_Phase_5,1,5,63,98,1883972328
88,16,17,Jits_Phase_5,2,5,80,127,1883982300
88,16,17,Jits_Phase_5,3,5,56,103,1883992420
88,16,17,Jits_Phase_5,0,1,48,127,1884450356
88,16,17,Jits_Phase_5,1,5,56,103,1884461388
88,16,17,Jits_Phase_5,2,5,63,98,1884532264
88,16,17,Jits_Phase_5,3,5,80,127,1884542312
88,16,17,Jits_Phase_5,0,1,48,126,1884960764
88,16,17,Jits_Phase_5,1,5,80,127,1884972476
88,16,17,Jits_Phase_5,2,5,56,103,1884981624
88,16,17,Jits_Phase_5,3,5,63,98,1885031748
88,16,17,Jits_Phase_5,0,1,48,96,1885488172
88,16,17,Jits_Phase_5,1,5,80,127,1885491648
88,16,17,Jits_Phase_5,2,5,56,103,1885552188
88,16,17,Jits_Phase_5,3,5,63,98,1885581812
88,16,17,Jits_Phase_5,0,5,56,103,1885992228
88,16,17,Jits_Phase_5,1,1,48,127,1885993132
88,16,17,Jits_Phase_5,2,5,80,127,1885996560
88,16,17,Jits_Phase_5,3,5,63,98,1886032232
88,16,17,Jits_Phase_5,0,1,48,127,1886490020
88,16,17,Jits_Phase_5,1,5,56,103,1886521656
88,16,17,Jits_Phase_5,2,5,63,98,1886552524
88,16,17,Jits_Phase_5,3,5,80,127,1886561600
88,16,17,Jits_Phase_5,0,1,48,104,1886999908
88,16,17,Jits_Phase_5,1,5,63,98,1887031692
88,16,17,Jits_Phase_5,2,5,80,127,1887042112
88,16,17,Jits_Phase_5,3,5,56,103,1887052232
88,16,17,Jits_Phase_5,0,5,80,127,1887482180
88,16,17,Jits_Phase_5,1,1,48,88,1887497056
88,16,17,Jits_Phase_5,2,5,56,103,1887532376
88,16,17,Jits_Phase_5,3,5,63,98,1887535440
88,16,17,Jits_Phase_5,0,5,56,103,1888011676
88,16,17,Jits_Phase_5,1,1,48,110,1888016444
88,16,17,Jits_Phase_5,2,5,80,127,1888032280
88,16,17,Jits_Phase_5,3,5,63,98,1888042400
88,16,17,Jits_Phase_5,0,5,63,98,1888492120
88,16,17,Jits_Phase_5,1,5,56,103,1888521496
88,16,17,Jits_Phase_5,2,1,48,127,1888530312
88,16,17,Jits_Phase_5,3,5,80,127,1888542172
88,16,17,Jits_Phase_5,0,5,56,103,1889001768
88,16,17,Jits_Phase_5,1,5,80,127,1889012036
88,16,17,Jits_Phase_5,2,1,48,127,1889014860
88,16,17,Jits_Phase_5,3,5,63,98,1889081632
88,16,17,Jits_Phase_5,0,1,48,111,1889497004
88,16,17,Jits_Phase_5,1,5,63,98,1889501608
88,16,17,Jits_Phase_5,2,5,80,127,1889541548
88,16,17,Jits_Phase_5,3,5,56,103,1889581336
88,16,17,Jits_Phase_5,0,1,48,101,1889997232
88,16,17,Jits_Phase_5,1,5,56,103,1890011496
88,16,17,Jits_Phase_5,2,5,63,98,1890021840
88,16,17,Jits_Phase_5,3,5,80,127,1890042152
88,16,17,Jits_Phase_5,0,1,48,117,1890487340
88,16,17,Jits_Phase_5,1,5,63,98,1890552176
88,16,17,Jits_Phase_5,2,5,80,127,1890571512
88,16,17,Jits_Phase_5,3,5,56,103,1890592104
88,16,17,Jits_Phase_5,0,5,56,103,1890991428
88,16,17,Jits_Phase_5,1,1,48,127,1891008472
88,16,17,Jits_Phase_5,2,5,80,127,1891072336
88,16,17,Jits_Phase_5,3,5,63,98,1891081484
88,16,17,Jits_Phase_5,0,1,48,124,1891508092
88,16,17,Jits_Phase_5,1,5,80,127,1891532100
88,16,17,Jits_Phase_5,2,5,63,98,1891542372
88,16,17,Jits_Phase_5,3,5,56,103,1891571972
88,16,17,Jits_Phase_5,0,5,63,98,1891992100
88,16,17,Jits_Phase_5,1,1,48,127,1892020552
88,16,17,Jits_Phase_5,2,5,80,127,1892031956
88,16,17,Jits_Phase_5,3,5,56,103,1892092268
88,16,17,Jits_Phase_5,0,5,63,98,1892502272
88,16,17,Jits_Phase_5,1,5,56,103,1892552324
88,16,17,Jits_Phase_5,2,1,48,102,1892553364
88,16,17,Jits_Phase_5,3,5,80,127,1892581692
88,16,17,Jits_Phase_5,0,5,80,127,1893001516
88,16,17,Jits_Phase_5,1,5,63,98,1893011860
88,16,17,Jits_Phase_5,2,1,48,127,1893055352
88,16,17,Jits_Phase_5,3,5,56,103,1893081380
88,16,17,Jits_Phase_5,0,1,48,127,1893536244
88,16,17,Jits_Phase_5,1,5,80,127,1893561676
88,16,17,Jits_Phase_5,2,5,56,103,1893571944
88,16,17,Jits_Phase_5,3,5,63,98,1893575304
88,16,17,Jits_Phase_5,0,5,56,103,1894002164
88,16,17,Jits_Phase_5,1,5,80,127,1894021452
88,16,17,Jits_Phase_5,2,5,63,98,1894031872
88,16,17,Jits_Phase_5,3,1,48,127,1894056412
88,16,17,Jits_Phase_5,0,5,63,98,1894511972
88,16,17,Jits_Phase_5,1,5,56,103,1894552084
88,16,17,Jits_Phase_5,2,5,80,127,1894572396
88,16,17,Jits_Phase_5,3,1,48,127,1894577532
88,16,17,Jits_Phase_5,0,5,63,98,1895011812
88,16,17,Jits_Phase_5,1,1,48,127,1895054960
88,16,17,Jits_Phase_5,2,5,56,103,1895071988
88,16,17,Jits_Phase_5,3,5,80,127,1895075208
88,16,17,Jits_Phase_5,0,5,56,103,1895471340
88,16,17,Jits_Phase_5,1,5,80,127,1895492096
88,16,17,Jits_Phase_5,2,5,63,98,1895531880
88,16,17,Jits_Phase_5,3,1,48,127,1895546384
88,16,17,Jits_Phase_5,0,5,56,103,1896002124
88,16,17,Jits_Phase_5,1,1,48,127,1896011920
88,16,17,Jits_Phase_5,2,5,63,98,1896022352
88,16,17,Jits_Phase_5,3,5,80,127,1896031724
88,16,17,Jits_Phase_5,0,5,80,127,1896471852
88,16,17,Jits_Phase_5,1,1,48,127,1896499160
88,16,17,Jits_Phase_5,2,5,56,103,1896501892
88,16,17,Jits_Phase_5,3,5,63,98,1896541532
88,16,17,Jits_Phase_5,0,5,80,127,1896982112
88,16,17,Jits_Phase_5,1,1,48,127,1896989960
88,16,17,Jits_Phase_5,2,5,56,103,1897002340
88,16,17,Jits_Phase_5,3,5,63,98,1897061976
88,16,17,Jits_Phase_5,0,1,48,127,1897482224
88,16,17,Jits_Phase_5,1,5,56,103,1897491988
88,16,17,Jits_Phase_5,2,5,80,127,1897512300
88,16,17,Jits_Phase_5,3,5,63,98,1897571864
88,16,17,Jits_Phase_5,0,5,80,127,1897972144
88,16,17,Jits_Phase_5,1,1,48,127,1897973480
88,16,17,Jits_Phase_5,2,5,56,103,1897982260
88,16,17,Jits_Phase_5,3,5,63,98,1898022196
88,16,17,Jits_Phase_5,0,5,63,98,1898471764
88,16,17,Jits_Phase_5,1,1,48,127,1898491296
88,16,17,Jits_Phase_5,2,5,56,103,1898511992
88,16,17,Jits_Phase_5,3,5,80,127,1898514984
88,16,17,Jits_Phase_5,0,1,48,127,1898984288
88,16,17,Jits_Phase_5,1,5,63,98,1898991960
88,16,17,Jits_Phase_5,2,5,80,127,1899031896
88,16,17,Jits_Phase_5,3,5,56,103,1899061572
88,16,17,Jits_Phase_5,0,1,48,81,1899471260
88,16,17,Jits_Phase_5,1,5,56,103,1899481472
88,16,17,Jits_Phase_5,2,5,63,98,1899491968
88,16,17,Jits_Phase_5,3,5,80,127,1899522388
88,16,17,Jits_Phase_5,0,1,48,123,1899948224
88,16,17,Jits_Phase_5,1,5,80,127,1899972004
88,16,17,Jits_Phase_5,2,5,63,98,1900041444
88,16,17,Jits_Phase_5,3,5,56,103,1900051788
88,16,17,Jits_Phase_5,0,5,63,98,1900471784
88,16,17,Jits_Phase_5,1,1,48,111,1900482024
88,16,17,Jits_Phase_5,2,5,56,103,1900542204
88,16,17,Jits_Phase_5,3,5,80,127,1900551504
88,16,17,Jits_Phase_5,0,5,63,98,1900951920
88,16,17,Jits_Phase_5,1,5,56,103,1900972600
88,16,17,Jits_Phase_5,2,1,48,126,1900984340
88,16,17,Jits_Phase_5,3,5,80,127,1901012380
88,16,17,Jits_Phase_5,0,5,56,103,1901432104
88,16,17,Jits_Phase_5,1,5,63,98,1901442620
88,16,17,Jits_Phase_5,2,1,48,98,1901447316
88,16,17,Jits_Phase_5,3,5,80,127,1901522256
88,16,17,Jits_Phase_5,0,5,63,98,1901921828
88,16,17,Jits_Phase_5,1,1,48,99,1901934012
88,16,17,Jits_Phase_5,2,5,56,103,1901952392
88,16,17,Jits_Phase_5,3,5,80,127,1901992256
88,16,17,Jits_Phase_5,0,5,56,103,1902422300
88,16,17,Jits_Phase_5,1,1,48,89,1902426392
88,16,17,Jits_Phase_5,2,5,63,98,1902462228
88,16,17,Jits_Phase_5,3,5,80,127,1902502188
88,16,17,Jits_Phase_5,0,1,48,127,1902909596
88,16,17,Jits_Phase_5,1,5,80,127,1902932240
88,16,17,Jits_Phase_5,2,5,56,103,1903012116
88,16,17,Jits_Phase_5,3,5,63,98,1903021564
88,16,17,Jits_Phase_5,0,1,48,95,1903437076
88,16,17,Jits_Phase_5,1,5,56,103,1903471864
88,16,17,Jits_Phase_5,2,5,63,98,1903474932
88,16,17,Jits_Phase_5,3,5,80,127,1903482212
88,16,17,Jits_Phase_5,0,1,48,118,1903963936
88,16,17,Jits_Phase_5,1,5,56,103,1903992136
88,16,17,Jits_Phase_5,2,5,63,98,1904011872
88,16,17,Jits_Phase_5,3,5,80,127,1904021920
88,16,17,Jits_Phase_5,0,5,63,98,1904451916
88,16,17,Jits_Phase_5,1,5,80,127,1904462260
88,16,17,Jits_Phase_5,2,1,48,113,1904463300
88,16,17,Jits_Phase_5,3,5,56,103,1904481816
88,16,17,Jits_Phase_5,0,1,48,103,1904949012
88,16,17,Jits_Phase_5,1,5,63,98,1904951820
88,16,17,Jits_Phase_5,2,5,56,103,1905031636
88,16,17,Jits_Phase_5,3,5,80,127,1905034704
88,16,17,Jits_Phase_5,0,1,48,127,1905430668
88,16,17,Jits_Phase_5,1,5,63,98,1905452484
88,16,17,Jits_Phase_5,2,5,56,103,1905471824
88,16,17,Jits_Phase_5,3,5,80,127,1905501792
88,16,17,Jits_Phase_5,0,1,48,105,1905945936
88,16,17,Jits_Phase_5,1,5,56,103,1905952112
88,16,17,Jits_Phase_5,2,5,63,98,1905971672
88,16,17,Jits_Phase_5,3,5,80,127,1905982016
88,16,17,Jits_Phase_5,0,1,48,127,1906440256
88,16,17,Jits_Phase_5,1,5,56,103,1906481628
88,16,17,Jits_Phase_5,2,5,63,98,1906512200
88,16,17,Jits_Phase_5,3,5,80,127,1906515488
88,16,17,Jits_Phase_5,0,5,56,103,1906932108
88,16,17,Jits_Phase_5,1,1,48,122,1906945116
88,16,17,Jits_Phase_5,2,5,63,98,1906972036
88,16,17,Jits_Phase_5,3,5,80,127,1907032424
88,16,17,Jits_Phase_5,0,1,48,97,1907410652
88,16,17,Jits_Phase_5,1,5,56,103,1907452180
88,16,17,Jits_Phase_5,2,5,63,98,1907461776
88,16,17,Jits_Phase_5,3,5,80,127,1907521848
88,16,17,Jits_Phase_5,0,1,48,97,1907907844
88,16,17,Jits_Phase_5,1,5,56,103,1907951928
88,16,17,Jits_Phase_5,2,5,80,127,1907971564
88,16,17,Jits_Phase_5,3,5,63,98,1908002136
88,16,17,Jits_Phase_5,0,1,48,127,1908442812
88,16,17,Jits_Phase_5,1,5,80,127,1908451828
88,16,17,Jits_Phase_5,2,5,56,103,1908461876
88,16,17,Jits_Phase_5,3,5,63,98,1908482632
88,16,17,Jits_Phase_5,0,5,63,98,1908942096
88,16,17,Jits_Phase_5,1,1,48,127,1908960200
88,16,17,Jits_Phase_5,2,5,80,127,1909022104
88,16,17,Jits_Phase_5,3,5,56,103,1909032300
88,16,17,Jits_Phase_5,0,1,48,127,1909453136
88,16,17,Jits_Phase_5,1,5,80,127,1909532052
88,16,17,Jits_Phase_5,2,5,56,103,1909551596
88,16,17,Jits_Phase_5,3,5,63,98,1909554516
88,16,17,Jits_Phase_5,0,1,48,125,1909991864
88,16,17,Jits_Phase_5,1,5,63,98,1910021704
88,16,17,Jits_Phase_5,2,5,80,127,1910024844
88,16,17,Jits_Phase_5,3,5,56,103,1910082016
88,16,17,Jits_Phase_5,0,1,48,88,1910484880
88,16,17,Jits_Phase_5,1,5,56,103,1910501768
88,16,17,Jits_Phase_5,2,5,80,127,1910512112
88,16,17,Jits_Phase_5,3,5,63,98,1910552048
88,16,17,Jits_Phase_5,0,5,56,103,1910981968
88,16,17,Jits_Phase_5,1,1,48,122,1910997368
88,16,17,Jits_Phase_5,2,5,63,98,1911042276
88,16,17,Jits_Phase_5,3,5,80,127,1911051572
88,16,17,Jits_Phase_5,0,1,48,118,1911483732
88,16,17,Jits_Phase_5,1,5,63,98,1911491924
88,16,17,Jits_Phase_5,2,5,80,127,1911531864
88,16,17,Jits_Phase_5,3,5,56,103,1911571800
88,16,17,Jits_Phase_5,0,1,48,124,1911975116
88,16,17,Jits_Phase_5,1,5,56,103,1911991628
88,16,17,Jits_Phase_5,2,5,63,98,1912071628
88,16,17,Jits_Phase_5,3,5,80,127,1912074768
88,16,17,Jits_Phase_5,0,1,48,120,1912467088
88,16,17,Jits_Phase_5,1,1,48,54,1912524388
88,16,17,Jits_Phase_5,2,5,80,127,1912551688
88,16,17,Jits_Phase_5,3,5,56,103,1912581656
88,16,17,Jits_Phase_5,4,5,63,98,1912584796
88,16,17,Jits_Phase_5,0,1,48,90,1912992004
88,16,17,Jits_Phase_5,1,5,56,103,1913011728
88,16,17,Jits_Phase_5,2,5,80,127,1913032112
88,16,17,Jits_Phase_5,3,5,63,98,1913071976
88,16,17,Jits_Phase_5,0,5,80,127,1913491780
88,16,17,Jits_Phase_5,1,1,48,89,1913509276
88,16,17,Jits_Phase_5,2,5,63,98,1913512380
88,16,17,Jits_Phase_5,3,5,56,103,1913571648
88,16,17,Jits_Phase_5,0,5,63,98,1914001736
88,16,17,Jits_Phase_5,1,5,56,103,1914012004
88,16,17,Jits_Phase_5,2,1,48,102,1914025236
88,16,17,Jits_Phase_5,3,5,80,127,1914062124
88,16,17,Jits_Phase_5,0,5,56,103,1914492252
88,16,17,Jits_Phase_5,1,5,63,98,1914511764
88,16,17,Jits_Phase_5,2,1,48,109,1914517200
88,16,17,Jits_Phase_5,3,5,80,127,1914521952
88,16,17,Jits_Phase_5,0,5,56,103,1914981684
88,16,17,Jits_Phase_5,1,5,63,98,1914984824
88,16,17,Jits_Phase_5,2,5,80,127,1915002364
88,16,17,Jits_Phase_5,3,1,48,101,1915013232
88,16,17,Jits_Phase_5,0,5,63,98,1915522524
88,16,17,Jits_Phase_5,1,1,48,63,1915550380
88,16,17,Jits_Phase_5,2,5,56,103,1915552044
88,16,17,Jits_Phase_5,3,5,80,127,1915581792
88,16,17,Jits_Phase_5,0,5,80,127,1915982324
88,16,17,Jits_Phase_5,1,1,48,89,1916013616
88,16,17,Jits_Phase_5,2,5,56,103,1916072248
88,16,17,Jits_Phase_5,3,5,63,98,1916075684
88,16,17,Jits_Phase_5,0,1,48,73,1916479484
88,16,17,Jits_Phase_5,1,5,56,103,1916481840
88,16,17,Jits_Phase_5,2,5,80,127,1916485056
88,16,17,Jits_Phase_5,3,5,63,98,1916561732
88,16,17,Jits_Phase_5,0,5,80,127,1916981516
88,16,17,Jits_Phase_5,1,1,48,57,1916998412
88,16,17,Jits_Phase_5,2,5,63,98,1917041972
88,16,17,Jits_Phase_5,3,5,56,103,1917071672
88,16,17,Jits_Phase_5,0,5,63,98,1917482552
88,16,17,Jits_Phase_5,1,5,80,127,1917491700
88,16,17,Jits_Phase_5,2,1,48,86,1917495344
88,16,17,Jits_Phase_5,3,5,56,103,1917562344
88,16,17,Jits_Phase_5,0,1,48,97,1918000628
88,16,17,Jits_Phase_5,1,5,56,103,1918041704
88,16,17,Jits_Phase_5,2,5,80,127,1918072128
88,16,17,Jits_Phase_5,3,5,63,98,1918122632
88,16,17,Jits_Phase_5,0,1,48,79,1918484108
88,16,17,Jits_Phase_5,1,5,63,98,1918632408
88,16,17,Jits_Phase_5,2,5,56,103,1918661856
88,16,17,Jits_Phase_5,3,5,80,127,1918665076
88,16,17,Jits_Phase_5,0,1,48,94,1919006396
88,16,17,Jits_Phase_5,1,5,63,98,1919132080
88,16,17,Jits_Phase_5,2,5,80,127,1919151792
88,16,17,Jits_Phase_5,3,5,56,103,1919161692
88,16,17,Jits_Phase_5,0,1,48,122,1919570076
88,16,17,Jits_Phase_5,1,5,56,103,1919641892
88,16,17,Jits_Phase_5,2,5,63,98,1919645032
88,16,17,Jits_Phase_5,3,5,80,127,1919661600
88,16,17,Jits_Phase_5,0,5,56,103,1920091672
88,16,17,Jits_Phase_5,1,5,63,98,1920101868
88,16,17,Jits_Phase_5,2,5,80,127,1920131564
88,16,17,Jits_Phase_5,3,1,48,127,1920132532
88,16,17,Jits_Phase_5,0,5,63,98,1920611588
88,16,17,Jits_Phase_5,1,1,48,127,1920630916
88,16,17,Jits_Phase_5,2,5,80,127,1920632708
88,16,17,Jits_Phase_5,3,5,56,103,1920672000
88,16,17,Jits_Phase_5,0,1,48,127,1921114464
88,16,17,Jits_Phase_5,1,5,56,103,1921141988
88,16,17,Jits_Phase_5,2,5,63,98,1921182020
88,16,17,Jits_Phase_5,3,5,80,127,1921185684
88,16,17,Jits_Phase_5,0,5,80,127,1921581380
88,16,17,Jits_Phase_5,1,5,56,103,1921622812
88,16,17,Jits_Phase_5,2,1,48,105,1921641896
88,16,17,Jits_Phase_5,3,5,63,98,1921671684
88,16,17,Jits_Phase_5,0,1,48,59,1922126968
88,16,17,Jits_Phase_5,1,5,56,103,1922141532
88,16,17,Jits_Phase_5,2,5,80,127,1922151728
88,16,17,Jits_Phase_5,3,5,63,98,1922181424
88,16,17,Jits_Phase_5,0,5,56,103,1922592068
88,16,17,Jits_Phase_5,1,1,48,95,1922626576
88,16,17,Jits_Phase_5,2,5,80,127,1922632072
88,16,17,Jits_Phase_5,3,5,63,98,1922682196
88,16,17,Jits_Phase_5,0,5,56,103,1923091904
88,16,17,Jits_Phase_5,1,1,48,78,1923096072
88,16,17,Jits_Phase_5,2,5,80,127,1923131688
88,16,17,Jits_Phase_5,3,5,63,98,1923181888
88,16,17,Jits_Phase_5,4,1,48,35,1923184332
88,16,17,Jits_Phase_5,0,5,80,127,1923582260
88,16,17,Jits_Phase_5,1,1,48,127,1923631240
88,16,17,Jits_Phase_5,2,5,63,98,1923662048
88,16,17,Jits_Phase_5,3,5,56,103,1923672468
88,16,17,Jits_Phase_5,0,5,80,127,1924132160
88,16,17,Jits_Phase_5,1,5,56,103,1924141384
88,16,17,Jits_Phase_5,2,5,63,98,1924161916
88,16,17,Jits_Phase_5,3,1,48,105,1924167280
88,16,17,Jits_Phase_5,0,5,63,98,1924602344
88,16,17,Jits_Phase_5,1,1,48,118,1924651764
88,16,17,Jits_Phase_5,2,5,56,103,1924671940
88,16,17,Jits_Phase_5,3,5,80,127,1924674932
88,16,17,Jits_Phase_5,0,5,80,127,1925091612
88,16,17,Jits_Phase_5,1,1,48,85,1925135328
88,16,17,Jits_Phase_5,2,5,63,98,1925141804
88,16,17,Jits_Phase_5,3,5,56,103,1925181816
88,16,17,Jits_Phase_5,0,1,48,101,1925618836
88,16,17,Jits_Phase_5,1,5,63,98,1925632648
88,16,17,Jits_Phase_5,2,5,56,103,1925672440
88,16,17,Jits_Phase_5,3,5,80,127,1925681660
88,16,17,Jits_Phase_5,0,1,48,63,1926101540
88,16,17,Jits_Phase_5,1,5,63,98,1926121944
88,16,17,Jits_Phase_5,2,5,56,103,1926142476
88,16,17,Jits_Phase_5,3,5,80,127,1926161812
88,16,17,Jits_Phase_5,0,5,80,127,1926581472
88,16,17,Jits_Phase_5,1,5,56,103,1926591816
88,16,17,Jits_Phase_5,2,5,63,98,1926612424
88,16,17,Jits_Phase_5,3,1,48,108,1926628724
88,16,17,Jits_Phase_5,0,1,48,120,1927106828
88,16,17,Jits_Phase_5,1,5,63,98,1927112172
88,16,17,Jits_Phase_5,2,5,56,103,1927151964
88,16,17,Jits_Phase_5,3,5,80,127,1927181712
88,16,17,Jits_Phase_5,0,5,56,103,1927571876
88,16,17,Jits_Phase_5,1,5,63,98,1927601552
88,16,17,Jits_Phase_5,2,1,48,91,1927618972
88,16,17,Jits_Phase_5,3,5,80,127,1927632412
88,16,17,Jits_Phase_5,0,5,80,127,1927991764
88,16,17,Jits_Phase_5,1,5,56,103,1928062488
88,16,17,Jits_Phase_5,2,5,63,98,1928065628
88,16,17,Jits_Phase_5,3,1,48,90,1928070188
88,16,17,Jits_Phase_5,0,5,56,103,1928501760
88,16,17,Jits_Phase_5,1,5,63,98,1928551812
88,16,17,Jits_Phase_5,2,5,80,127,1928581436
88,16,17,Jits_Phase_5,3,1,48,79,1928588816
88,16,17,Jits_Phase_5,0,5,63,98,1928981892
88,16,17,Jits_Phase_5,1,5,80,127,1928985332
88,16,17,Jits_Phase_5,2,5,56,103,1929042428
88,16,17,Jits_Phase_5,3,1,48,124,1929044068
88,16,17,Jits_Phase_5,0,5,56,103,1929512504
88,16,17,Jits_Phase_5,1,1,48,66,1929518768
88,16,17,Jits_Phase_5,2,5,80,127,1929521424
88,16,17,Jits_Phase_5,3,5,63,98,1929571624
88,16,17,Jits_Phase_5,0,1,48,85,1929982528
88,16,17,Jits_Phase_5,1,5,63,98,1929984024
88,16,17,Jits_Phase_5,2,5,56,103,1929991524
88,16,17,Jits_Phase_5,3,5,80,127,1930022688
88,16,17,Jits_Phase_5,0,1,48,122,1930468528
88,16,17,Jits_Phase_5,1,5,63,98,1930511788
88,16,17,Jits_Phase_5,2,5,80,127,1930515000
88,16,17,Jits_Phase_5,3,5,56,103,1930541536
88,16,17,Jits_Phase_5,0,1,48,114,1930943500
88,16,17,Jits_Phase_5,1,5,63,98,1931031780
88,16,17,Jits_Phase_5,2,5,56,103,1931052372
88,16,17,Jits_Phase_5,3,5,80,127,1931055512
88,16,17,Jits_Phase_5,0,1,48,92,1931447384
88,16,17,Jits_Phase_5,1,5,63,98,1931491768
88,16,17,Jits_Phase_5,2,5,56,103,1931562480
88,16,17,Jits_Phase_5,3,5,80,127,1931581744
88,16,17,Jits_Phase_5,0,1,48,119,1931968036
88,16,17,Jits_Phase_5,1,5,56,103,1931982380
88,16,17,Jits_Phase_5,2,5,63,98,1931992576
88,16,17,Jits_Phase_5,3,5,80,127,1932081492
88,16,17,Jits_Phase_5,0,1,48,111,1932483324
88,16,17,Jits_Phase_5,1,5,56,103,1932502380
88,16,17,Jits_Phase_5,2,5,80,127,1932542316
88,16,17,Jits_Phase_5,3,5,63,98,1932551612
88,16,17,Jits_Phase_5,0,1,48,101,1932978448
88,16,17,Jits_Phase_5,1,5,56,103,1933021488
88,16,17,Jits_Phase_5,2,5,63,98,1933052356
88,16,17,Jits_Phase_5,3,5,80,127,1933081868
88,16,17,Jits_Phase_5,0,1,48,118,1933468184
88,16,17,Jits_Phase_5,1,5,80,127,1933482376
88,16,17,Jits_Phase_5,2,5,63,98,1933522464
88,16,17,Jits_Phase_5,3,5,56,103,1933541876
88,16,17,Jits_Phase_5,0,1,48,115,1933991788
88,16,17,Jits_Phase_5,1,5,56,103,1934021856
88,16,17,Jits_Phase_5,2,5,80,127,1934041492
88,16,17,Jits_Phase_5,3,5,63,98,1934061876
88,16,17,Jits_Phase_5,0,1,48,97,1934490304
88,16,17,Jits_Phase_5,1,5,63,98,1934492040
88,16,17,Jits_Phase_5,2,5,56,103,1934502236
88,16,17,Jits_Phase_5,3,5,80,127,1934561648
88,16,17,Jits_Phase_5,0,1,48,125,1934943784
88,16,17,Jits_Phase_5,1,5,56,103,1934991784
88,16,17,Jits_Phase_5,2,5,63,98,1935062424
88,16,17,Jits_Phase_5,3,5,80,127,1935081760
88,16,17,Jits_Phase_5,0,1,48,115,1935449864
88,16,17,Jits_Phase_5,1,5,56,103,1935491416
88,16,17,Jits_Phase_5,2,5,63,98,1935522360
88,16,17,Jits_Phase_5,3,5,80,127,1935562204
88,16,17,Jits_Phase_5,0,1,48,114,1935966260
88,16,17,Jits_Phase_5,1,5,63,98,1935982096
88,16,17,Jits_Phase_5,2,5,56,103,1936032320
88,16,17,Jits_Phase_5,3,5,80,127,1936042368
88,16,17,Jits_Phase_5,0,1,48,119,1936485960
88,16,17,Jits_Phase_5,1,5,56,103,1936521676
88,16,17,Jits_Phase_5,2,5,63,98,1936571804
88,16,17,Jits_Phase_5,3,5,80,127,1936582208
88,16,17,Jits_Phase_5,0,5,56,103,1936991472
88,16,17,Jits_Phase_5,1,5,63,98,1937001820
88,16,17,Jits_Phase_5,2,1,48,91,1937004640
88,16,17,Jits_Phase_5,3,5,80,127,1937081624
88,16,17,Jits_Phase_5,0,9999,9999,9999,1852739672
88,16,17,Jits_Phase_5,1,9999,9999,9999,1853239380
88,16,17,Jits_Phase_5,2,9999,9999,9999,1853739108
88,16,17,Jits_Phase_5,3,9999,9999,9999,1854239804
88,16,17,Jits_Phase_5,4,9999,9999,9999,1854739572
88,16,17,Jits_Phase_5,5,9999,9999,9999,1855239252
88,16,17,Jits_Phase_5,6,9999,9999,9999,1855739972
88,16,17,Jits_Phase_5,7,9999,9999,9999,1856239672
88,16,17,Jits_Phase_5,8,9999,9999,9999,1856739436
88,16,17,Jits_Phase_5,9,9999,9999,9999,1857239136
88,16,17,Jits_Phase_5,10,9999,9999,9999,1857739880
88,16,17,Jits_Phase_5,11,9999,9999,9999,1858239568
88,16,17,Jits_Phase_5,12,9999,9999,9999,1858739280
88,16,17,Jits_Phase_5,13,9999,9999,9999,1859240000
88,16,17,Jits_Phase_5,14,9999,9999,9999,1859739760
88,16,17,Jits_Phase_5,15,9999,9999,9999,1860239476
88,16,17,Jits_Phase_5,16,9999,9999,9999,1860739200
88,16,17,Jits_Phase_5,17,9999,9999,9999,1861239920
88,16,17,Jits_Phase_5,18,9999,9999,9999,1861739608
88,16,17,Jits_Phase_5,19,9999,9999,9999,1862239296
88,16,17,Jits_Phase_5,20,9999,9999,9999,1862740056
88,16,17,Jits_Phase_5,21,9999,9999,9999,1863239804
88,16,17,Jits_Phase_5,22,9999,9999,9999,1863739452
88,16,17,Jits_Phase_5,23,9999,9999,9999,1864239208
88,16,17,Jits_Phase_5,24,9999,9999,9999,1864739952
88,16,17,Jits_Phase_5,25,9999,9999,9999,1865239644
88,16,17,Jits_Phase_5,26,9999,9999,9999,1865739348
88,16,17,Jits_Phase_5,27,9999,9999,9999,1866240072
88,16,17,Jits_Phase_5,28,9999,9999,9999,1866750040
88,16,17,Jits_Phase_5,29,9999,9999,9999,1867249736
88,16,17,Jits_Phase_5,30,9999,9999,9999,1867739248
88,16,17,Jits_Phase_5,31,9999,9999,9999,1868239928
88,16,17,Jits_Phase_5,32,9999,9999,9999,1868739696
88,16,17,Jits_Phase_5,33,9999,9999,9999,1869239396
88,16,17,Jits_Phase_5,34,9999,9999,9999,1869739100
88,16,17,Jits_Phase_5,35,9999,9999,9999,1870239844
88,16,17,Jits_Phase_5,36,9999,9999,9999,1870739520
88,16,17,Jits_Phase_5,37,9999,9999,9999,1871239280
88,16,17,Jits_Phase_5,38,9999,9999,9999,1871740000
88,16,17,Jits_Phase_5,39,9999,9999,9999,1872239672
88,16,17,Jits_Phase_5,40,9999,9999,9999,1872739424
88,16,17,Jits_Phase_5,41,9999,9999,9999,1873239120
88,16,17,Jits_Phase_5,42,9999,9999,9999,1873739856
88,16,17,Jits_Phase_5,43,9999,9999,9999,1874239576
88,16,17,Jits_Phase_5,44,9999,9999,9999,1874739324
88,16,17,Jits_Phase_5,45,9999,9999,9999,1875240056
88,16,17,Jits_Phase_5,46,9999,9999,9999,1875739732
88,16,17,Jits_Phase_5,47,9999,9999,9999,1876239488
88,16,17,Jits_Phase_5,48,9999,9999,9999,1876749380
88,16,17,Jits_Phase_5,49,9999,9999,9999,1877249088
88,16,17,Jits_Phase_5,50,9999,9999,9999,1877749820
88,16,17,Jits_Phase_5,51,9999,9999,9999,1878249600
88,16,17,Jits_Phase_5,52,9999,9999,9999,1878749304
88,16,17,Jits_Phase_5,53,9999,9999,9999,1879249980
88,16,17,Jits_Phase_5,54,9999,9999,9999,1879749720
88,16,17,Jits_Phase_5,55,9999,9999,9999,1880249420
88,16,17,Jits_Phase_5,56,9999,9999,9999,1880749164
88,16,17,Jits_Phase_5,57,9999,9999,9999,1881249908
88,16,17,Jits_Phase_5,58,9999,9999,9999,1881749608
88,16,17,Jits_Phase_5,59,9999,9999,9999,1882249296
88,16,17,Jits_Phase_5,60,9999,9999,9999,1882750024
88,16,17,Jits_Phase_5,61,9999,9999,9999,1883249788
88,16,17,Jits_Phase_5,62,9999,9999,9999,1883749488
88,16,17,Jits_Phase_5,63,9999,9999,9999,1884249188
88,16,17,Jits_Phase_5,64,9999,9999,9999,1884769344
88,16,17,Jits_Phase_5,65,9999,9999,9999,1885270084
88,16,17,Jits_Phase_5,66,9999,9999,9999,1885780048
88,16,17,Jits_Phase_5,67,9999,9999,9999,1886279784
88,16,17,Jits_Phase_5,68,9999,9999,9999,1886779488
88,16,17,Jits_Phase_5,69,9999,9999,9999,1887279192
88,16,17,Jits_Phase_5,70,9999,9999,9999,1887779928
88,16,17,Jits_Phase_5,71,9999,9999,9999,1888279616
88,16,17,Jits_Phase_5,72,9999,9999,9999,1888779388
88,16,17,Jits_Phase_5,73,9999,9999,9999,1889280120
88,16,17,Jits_Phase_5,74,9999,9999,9999,1889790008
88,16,17,Jits_Phase_5,75,9999,9999,9999,1890289780
88,16,17,Jits_Phase_5,76,9999,9999,9999,1890789484
88,16,17,Jits_Phase_5,77,9999,9999,9999,1891289188
88,16,17,Jits_Phase_5,78,9999,9999,9999,1891789932
88,16,17,Jits_Phase_5,79,9999,9999,9999,1892289632
88,16,17,Jits_Phase_5,80,9999,9999,9999,1892789320
88,16,17,Jits_Phase_5,81,9999,9999,9999,1893269608
88,16,17,Jits_Phase_5,82,9999,9999,9999,1893769308
88,16,17,Jits_Phase_5,83,9999,9999,9999,1894270028
88,16,17,Jits_Phase_5,84,9999,9999,9999,1894769728
88,16,17,Jits_Phase_5,85,9999,9999,9999,1895269484
88,16,17,Jits_Phase_5,86,9999,9999,9999,1895769164
88,16,17,Jits_Phase_5,87,9999,9999,9999,1896269912
88,16,17,Jits_Phase_5,88,9999,9999,9999,1896769608
88,16,17,Jits_Phase_5,89,9999,9999,9999,1897269308
88,16,17,Jits_Phase_5,90,9999,9999,9999,1897770052
88,16,17,Jits_Phase_5,91,9999,9999,9999,1898269820
88,16,17,Jits_Phase_5,92,9999,9999,9999,1898769508
88,16,17,Jits_Phase_5,93,9999,9999,9999,1899269200
88,16,17,Jits_Phase_5,94,9999,9999,9999,1899769940
88,16,17,Jits_Phase_5,95,9999,9999,9999,1900269692
88,16,17,Jits_Phase_5,96,9999,9999,9999,1900769392
88,16,17,Jits_Phase_5,97,9999,9999,9999,1901219936
88,16,17,Jits_Phase_5,98,9999,9999,9999,1901719620
88,16,17,Jits_Phase_5,99,9999,9999,9999,1902219356
88,16,17,Jits_Phase_5,100,9999,9999,9999,1902720052
88,16,17,Jits_Phase_5,101,9999,9999,9999,1903230080
88,16,17,Jits_Phase_5,102,9999,9999,9999,1903729764
88,16,17,Jits_Phase_5,103,9999,9999,9999,1904229444
88,16,17,Jits_Phase_5,104,9999,9999,9999,1904729144
88,16,17,Jits_Phase_5,105,9999,9999,9999,1905229948
88,16,17,Jits_Phase_5,106,9999,9999,9999,1905729644
88,16,17,Jits_Phase_5,107,9999,9999,9999,1906229344
88,16,17,Jits_Phase_5,108,9999,9999,9999,1906730088
88,16,17,Jits_Phase_5,109,9999,9999,9999,1907229788
88,16,17,Jits_Phase_5,110,9999,9999,9999,1907729492
88,16,17,Jits_Phase_5,111,9999,9999,9999,1908229240
88,16,17,Jits_Phase_5,112,9999,9999,9999,1908729960
88,16,17,Jits_Phase_5,113,9999,9999,9999,1909229664
88,16,17,Jits_Phase_5,114,9999,9999,9999,1909779540
88,16,17,Jits_Phase_5,115,9999,9999,9999,1910279232
88,16,17,Jits_Phase_5,116,9999,9999,9999,1910779976
88,16,17,Jits_Phase_5,117,9999,9999,9999,1911279724
88,16,17,Jits_Phase_5,118,9999,9999,9999,1911779424
88,16,17,Jits_Phase_5,119,9999,9999,9999,1912279120
88,16,17,Jits_Phase_5,120,9999,9999,9999,1912779848
88,16,17,Jits_Phase_5,121,9999,9999,9999,1913279600
88,16,17,Jits_Phase_5,122,9999,9999,9999,1913779276
88,16,17,Jits_Phase_5,123,9999,9999,9999,1914280012
88,16,17,Jits_Phase_5,124,9999,9999,9999,1914779768
88,16,17,Jits_Phase_5,125,9999,9999,9999,1915279452
88,16,17,Jits_Phase_5,126,9999,9999,9999,1915779160
88,16,17,Jits_Phase_5,127,9999,9999,9999,1916279924
88,16,17,Jits_Phase_5,128,9999,9999,9999,1916779596
88,16,17,Jits_Phase_5,129,9999,9999,9999,1917279348
88,16,17,Jits_Phase_5,130,9999,9999,9999,1917780080
88,16,17,Jits_Phase_5,131,9999,9999,9999,1918379120
88,16,17,Jits_Phase_5,132,9999,9999,9999,1918879840
88,16,17,Jits_Phase_5,133,9999,9999,9999,1919379520
88,16,17,Jits_Phase_5,134,9999,9999,9999,1919879264
88,16,17,Jits_Phase_5,135,9999,9999,9999,1920379984
88,16,17,Jits_Phase_5,136,9999,9999,9999,1920879680
88,16,17,Jits_Phase_5,137,9999,9999,9999,1921379436
88,16,17,Jits_Phase_5,138,9999,9999,9999,1921879136
88,16,17,Jits_Phase_5,139,9999,9999,9999,1922379888
88,16,17,Jits_Phase_5,140,9999,9999,9999,1922879560
88,16,17,Jits_Phase_5,141,9999,9999,9999,1923379304
88,16,17,Jits_Phase_5,142,9999,9999,9999,1923880020
88,16,17,Jits_Phase_5,143,9999,9999,9999,1924379724
88,16,17,Jits_Phase_5,144,9999,9999,9999,1924879420
88,16,17,Jits_Phase_5,145,9999,9999,9999,1925379180
88,16,17,Jits_Phase_5,146,9999,9999,9999,1925879924
88,16,17,Jits_Phase_5,147,9999,9999,9999,1926379628
88,16,17,Jits_Phase_5,148,9999,9999,9999,1926879300
88,16,17,Jits_Phase_5,149,9999,9999,9999,1927380048
88,16,17,Jits_Phase_5,150,9999,9999,9999,1927779416
88,16,17,Jits_Phase_5,151,9999,9999,9999,1928279148
88,16,17,Jits_Phase_5,152,9999,9999,9999,1928779892
88,16,17,Jits_Phase_5,153,9999,9999,9999,1929279564
88,16,17,Jits_Phase_5,154,9999,9999,9999,1929779252
88,16,17,Jits_Phase_5,155,9999,9999,9999,1930280060
88,16,17,Jits_Phase_5,156,9999,9999,9999,1930779724
88,16,17,Jits_Phase_5,157,9999,9999,9999,1931279416
88,16,17,Jits_Phase_5,158,9999,9999,9999,1931779196
88,16,17,Jits_Phase_5,159,9999,9999,9999,1932279916
88,16,17,Jits_Phase_5,160,9999,9999,9999,1932779616
88,16,17,Jits_Phase_5,161,9999,9999,9999,1933279320
88,16,17,Jits_Phase_5,162,9999,9999,9999,1933780064
88,16,17,Jits_Phase_5,163,9999,9999,9999,1934279764
88,16,17,Jits_Phase_5,164,9999,9999,9999,1934779464
88,16,17,Jits_Phase_5,165,9999,9999,9999,1935279216
88,16,17,Jits_Phase_5,166,9999,9999,9999,1935779960
88,16,17,Jits_Phase_5,167,9999,9999,9999,1936279660
88,16,17,Jits_Phase_5,168,9999,9999,9999,1936779364
88,16,17,Jits_Phase_5,169,9999,9999,9999,1937280112
88,17,15,Jits_Phase_8,0,5,56,103,1947325724
88,17,15,Jits_Phase_8,1,5,63,98,1947328828
88,17,15,Jits_Phase_8,2,5,80,127,1947332100
88,17,15,Jits_Phase_8,0,5,56,103,1948125516
88,17,15,Jits_Phase_8,1,5,63,98,1948128544
88,17,15,Jits_Phase_8,2,5,80,127,1948131592
88,17,15,Jits_Phase_8,0,5,80,127,1948866064
88,17,15,Jits_Phase_8,1,5,63,98,1948956200
88,17,15,Jits_Phase_8,2,5,56,103,1948966248
88,17,15,Jits_Phase_8,0,5,56,103,1949686180
88,17,15,Jits_Phase_8,1,5,63,98,1949696452
88,17,15,Jits_Phase_8,2,5,80,127,1949785388
88,17,15,Jits_Phase_8,0,5,63,98,1950456176
88,17,15,Jits_Phase_8,1,5,80,127,1950486000
88,17,15,Jits_Phase_8,2,5,56,103,1950515452
88,17,15,Jits_Phase_8,3,1,48,111,1950518120
88,17,15,Jits_Phase_8,0,1,48,96,1951234336
88,17,15,Jits_Phase_8,1,5,56,103,1951255856
88,17,15,Jits_Phase_8,2,5,80,127,1951356164
88,17,15,Jits_Phase_8,3,5,63,98,1951405492
88,17,15,Jits_Phase_8,0,5,56,103,1952055624
88,17,15,Jits_Phase_8,1,5,80,127,1952105976
88,17,15,Jits_Phase_8,2,1,48,102,1952145032
88,17,15,Jits_Phase_8,3,5,63,98,1952146832
88,17,15,Jits_Phase_8,0,5,80,127,1952886272
88,17,15,Jits_Phase_8,1,5,63,98,1952915824
88,17,15,Jits_Phase_8,2,1,48,75,1952969736
88,17,15,Jits_Phase_8,3,5,56,103,1952985344
88,17,15,Jits_Phase_8,0,5,63,98,1953715516
88,17,15,Jits_Phase_8,1,5,56,103,1953746316
88,17,15,Jits_Phase_8,2,1,48,71,1953754240
88,17,15,Jits_Phase_8,3,5,80,127,1953805648
88,17,15,Jits_Phase_8,0,5,56,103,1954456160
88,17,15,Jits_Phase_8,1,5,80,127,1954459156
88,17,15,Jits_Phase_8,2,1,48,106,1954568884
88,17,15,Jits_Phase_8,3,5,63,98,1954575656
88,17,15,Jits_Phase_8,0,5,56,103,1955335580
88,17,15,Jits_Phase_8,1,1,48,111,1955358180
88,17,15,Jits_Phase_8,2,5,80,127,1955375436
88,17,15,Jits_Phase_8,3,5,63,98,1955385928
88,17,15,Jits_Phase_8,0,5,56,103,1956096336
88,17,15,Jits_Phase_8,1,5,80,127,1956115820
88,17,15,Jits_Phase_8,2,1,48,103,1956137372
88,17,15,Jits_Phase_8,3,5,63,98,1956195828
88,17,15,Jits_Phase_8,0,5,80,127,1956885852
88,17,15,Jits_Phase_8,1,1,48,105,1956931296
88,17,15,Jits_Phase_8,2,5,56,103,1956986168
88,17,15,Jits_Phase_8,3,5,63,98,1956995344
88,17,15,Jits_Phase_8,0,5,63,98,1957656120
88,17,15,Jits_Phase_8,1,5,80,127,1957716436
88,17,15,Jits_Phase_8,2,5,56,103,1957725512
88,17,15,Jits_Phase_8,3,1,48,96,1957751324
88,17,15,Jits_Phase_8,0,5,56,103,1958455876
88,17,15,Jits_Phase_8,1,5,63,98,1958526304
88,17,15,Jits_Phase_8,2,5,80,127,1958529844
88,17,15,Jits_Phase_8,3,1,48,80,1958537620
88,17,15,Jits_Phase_8,0,5,63,98,1959286204
88,17,15,Jits_Phase_8,1,1,48,112,1959314304
88,17,15,Jits_Phase_8,2,5,56,103,1959336424
88,17,15,Jits_Phase_8,3,5,80,127,1959339344
88,17,15,Jits_Phase_8,0,5,56,103,1960045952
88,17,15,Jits_Phase_8,1,5,80,127,1960049172
88,17,15,Jits_Phase_8,2,1,48,92,1960123328
88,17,15,Jits_Phase_8,3,5,63,98,1960136028
88,17,15,Jits_Phase_8,0,5,63,98,1960885744
88,17,15,Jits_Phase_8,1,1,48,93,1960956296
88,17,15,Jits_Phase_8,2,5,56,103,1960975948
88,17,15,Jits_Phase_8,3,5,80,127,1961005472
88,17,15,Jits_Phase_8,0,5,56,103,1961676144
88,17,15,Jits_Phase_8,1,1,48,65,1961759204
88,17,15,Jits_Phase_8,2,5,63,98,1961775564
88,17,15,Jits_Phase_8,3,5,80,127,1961806136
88,17,15,Jits_Phase_8,0,5,63,98,1962496304
88,17,15,Jits_Phase_8,1,5,56,103,1962505748
88,17,15,Jits_Phase_8,2,1,48,106,1962560256
88,17,15,Jits_Phase_8,3,5,80,127,1962595872
88,17,15,Jits_Phase_8,0,5,63,98,1963315556
88,17,15,Jits_Phase_8,1,1,48,114,1963352532
88,17,15,Jits_Phase_8,2,5,56,103,1963395516
88,17,15,Jits_Phase_8,3,5,80,127,1963398436
88,17,15,Jits_Phase_8,0,5,80,127,1964076364
88,17,15,Jits_Phase_8,1,5,63,98,1964095920
88,17,15,Jits_Phase_8,2,1,48,97,1964152224
88,17,15,Jits_Phase_8,3,5,56,103,1964156376
88,17,15,Jits_Phase_8,0,5,56,103,1964916064
88,17,15,Jits_Phase_8,1,1,48,106,1964925036
88,17,15,Jits_Phase_8,2,5,63,98,1964935644
88,17,15,Jits_Phase_8,3,5,80,127,1964939008
88,17,15,Jits_Phase_8,0,5,63,98,1965656580
88,17,15,Jits_Phase_8,1,1,48,114,1965700848
88,17,15,Jits_Phase_8,2,5,80,127,1965736168
88,17,15,Jits_Phase_8,3,5,56,103,1965745688
88,17,15,Jits_Phase_8,0,5,63,98,1966475924
88,17,15,Jits_Phase_8,1,1,48,102,1966485648
88,17,15,Jits_Phase_8,2,5,56,103,1966496080
88,17,15,Jits_Phase_8,3,5,80,127,1966546356
88,17,15,Jits_Phase_8,0,1,48,116,1967256032
88,17,15,Jits_Phase_8,1,5,80,127,1967276364
88,17,15,Jits_Phase_8,2,5,63,98,1967316300
88,17,15,Jits_Phase_8,3,5,56,103,1967335788
88,17,15,Jits_Phase_8,0,1,48,99,1968029964
88,17,15,Jits_Phase_8,1,5,56,103,1968116152
88,17,15,Jits_Phase_8,2,5,63,98,1968126424
88,17,15,Jits_Phase_8,3,5,80,127,1968145744
88,17,15,Jits_Phase_8,0,1,48,107,1968809788
88,17,15,Jits_Phase_8,1,5,56,103,1968846156
88,17,15,Jits_Phase_8,2,5,63,98,1968936424
88,17,15,Jits_Phase_8,3,5,80,127,1968995616
88,17,15,Jits_Phase_8,0,1,48,106,1969558104
88,17,15,Jits_Phase_8,1,5,80,127,1969675816
88,17,15,Jits_Phase_8,2,5,56,103,1969685864
88,17,15,Jits_Phase_8,3,5,63,98,1969755616
88,17,15,Jits_Phase_8,0,1,48,82,1970320496
88,17,15,Jits_Phase_8,1,5,63,98,1970506092
88,17,15,Jits_Phase_8,2,5,80,127,1970596176
88,17,15,Jits_Phase_8,3,5,56,103,1970605324
88,17,15,Jits_Phase_8,0,1,48,92,1971217516
88,17,15,Jits_Phase_8,1,5,63,98,1971236416
88,17,15,Jits_Phase_8,2,5,80,127,1971286472
88,17,15,Jits_Phase_8,3,5,56,103,1971345672
88,17,15,Jits_Phase_8,0,5,56,103,1972056412
88,17,15,Jits_Phase_8,1,5,80,127,1972105812
88,17,15,Jits_Phase_8,2,5,63,98,1972126048
88,17,15,Jits_Phase_8,3,1,48,97,1972130736
88,17,15,Jits_Phase_8,0,5,56,103,1972825536
88,17,15,Jits_Phase_8,1,5,80,127,1972885804
88,17,15,Jits_Phase_8,2,1,48,75,1972889148
88,17,15,Jits_Phase_8,3,5,63,98,1972955700
88,17,15,Jits_Phase_8,0,5,56,103,1973626204
88,17,15,Jits_Phase_8,1,5,80,127,1973655904
88,17,15,Jits_Phase_8,2,5,63,98,1973685804
88,17,15,Jits_Phase_8,3,1,48,89,1973739484
88,17,15,Jits_Phase_8,0,5,56,103,1974465780
88,17,15,Jits_Phase_8,1,5,80,127,1974486464
88,17,15,Jits_Phase_8,2,1,48,100,1974495808
88,17,15,Jits_Phase_8,3,5,63,98,1974545800
88,17,15,Jits_Phase_8,0,1,48,101,1975286724
88,17,15,Jits_Phase_8,1,5,80,127,1975345640
88,17,15,Jits_Phase_8,2,5,56,103,1975355836
88,17,15,Jits_Phase_8,3,5,63,98,1975365956
88,17,15,Jits_Phase_8,0,5,56,103,1976106476
88,17,15,Jits_Phase_8,1,1,48,97,1976126612
88,17,15,Jits_Phase_8,2,5,80,127,1976146556
88,17,15,Jits_Phase_8,3,5,63,98,1976175860
88,17,15,Jits_Phase_8,0,5,56,103,1976876516
88,17,15,Jits_Phase_8,1,5,63,98,1976906040
88,17,15,Jits_Phase_8,2,1,48,104,1976913568
88,17,15,Jits_Phase_8,3,5,80,127,1976946044
88,17,15,Jits_Phase_8,0,5,80,127,1977625952
88,17,15,Jits_Phase_8,1,5,63,98,1977676080
88,17,15,Jits_Phase_8,2,1,48,88,1977687664
88,17,15,Jits_Phase_8,3,5,56,103,1977695704
88,17,15,Jits_Phase_8,0,5,56,103,1978456656
88,17,15,Jits_Phase_8,1,1,48,88,1978526288
88,17,15,Jits_Phase_8,2,5,80,127,1978527856
88,17,15,Jits_Phase_8,3,5,63,98,1978585548
88,17,15,Jits_Phase_8,0,5,80,127,1979256132
88,17,15,Jits_Phase_8,1,1,48,94,1979340188
88,17,15,Jits_Phase_8,2,5,63,98,1979346508
88,17,15,Jits_Phase_8,3,5,56,103,1979365696
88,17,15,Jits_Phase_8,0,5,63,98,1980076684
88,17,15,Jits_Phase_8,1,5,56,103,1980095948
88,17,15,Jits_Phase_8,2,1,48,109,1980129184
88,17,15,Jits_Phase_8,3,5,80,127,1980135804
88,17,15,Jits_Phase_8,0,5,80,127,1980836448
88,17,15,Jits_Phase_8,1,5,63,98,1980855564
88,17,15,Jits_Phase_8,2,1,48,114,1980931420
88,17,15,Jits_Phase_8,3,5,56,103,1980935644
88,17,15,Jits_Phase_8,0,5,63,98,1981625656
88,17,15,Jits_Phase_8,1,1,48,71,1981699424
88,17,15,Jits_Phase_8,2,5,56,103,1981736308
88,17,15,Jits_Phase_8,3,5,80,127,1981739600
88,17,15,Jits_Phase_8,0,5,63,98,1982445856
88,17,15,Jits_Phase_8,1,5,56,103,1982456048
88,17,15,Jits_Phase_8,2,5,80,127,1982459272
88,17,15,Jits_Phase_8,3,1,48,71,1982485548
88,17,15,Jits_Phase_8,0,5,56,103,1983226416
88,17,15,Jits_Phase_8,1,1,48,77,1983254872
88,17,15,Jits_Phase_8,2,5,80,127,1983345992
88,17,15,Jits_Phase_8,3,5,63,98,1983386012
88,17,15,Jits_Phase_8,0,5,56,103,1984045600
88,17,15,Jits_Phase_8,1,1,48,91,1984065132
88,17,15,Jits_Phase_8,2,5,80,127,1984126388
88,17,15,Jits_Phase_8,3,5,63,98,1984145652
88,17,15,Jits_Phase_8,0,5,56,103,1984846568
88,17,15,Jits_Phase_8,1,1,48,73,1984856364
88,17,15,Jits_Phase_8,2,5,63,98,1984955736
88,17,15,Jits_Phase_8,3,5,80,127,1984959028
88,17,15,Jits_Phase_8,0,5,56,103,1985685996
88,17,15,Jits_Phase_8,1,1,48,102,1985710688
88,17,15,Jits_Phase_8,2,5,80,127,1985715588
88,17,15,Jits_Phase_8,3,5,63,98,1985735900
88,17,15,Jits_Phase_8,0,1,48,76,1986143456
88,17,15,Jits_Phase_8,1,5,63,98,1986476616
88,17,15,Jits_Phase_8,2,5,56,103,1986485688
88,17,15,Jits_Phase_8,3,5,80,127,1986495808
88,17,15,Jits_Phase_8,0,5,80,127,1987265904
88,17,15,Jits_Phase_8,1,5,56,103,1987315956
88,17,15,Jits_Phase_8,2,5,63,98,1987355892
88,17,15,Jits_Phase_8,0,5,80,127,1988086236
88,17,15,Jits_Phase_8,1,5,63,98,1988105504
88,17,15,Jits_Phase_8,2,5,56,103,1988155776
88,17,15,Jits_Phase_8,0,5,80,127,1988896312
88,17,15,Jits_Phase_8,1,5,56,103,1988925912
88,17,15,Jits_Phase_8,2,1,48,107,1988937880
88,17,15,Jits_Phase_8,3,5,63,98,1988995612
88,17,15,Jits_Phase_8,0,5,56,103,1989746072
88,17,15,Jits_Phase_8,1,5,80,127,1989756268
88,17,15,Jits_Phase_8,2,1,48,100,1989765188
88,17,15,Jits_Phase_8,3,5,63,98,1989796372
88,17,15,Jits_Phase_8,0,5,56,103,1990455584
88,17,15,Jits_Phase_8,1,5,63,98,1990476412
88,17,15,Jits_Phase_8,2,5,80,127,1990545896
88,17,15,Jits_Phase_8,3,1,48,103,1990564380
88,17,15,Jits_Phase_8,0,1,48,94,1991274376
88,17,15,Jits_Phase_8,1,5,63,98,1991276108
88,17,15,Jits_Phase_8,2,5,80,127,1991336224
88,17,15,Jits_Phase_8,3,5,56,103,1991355788
88,17,15,Jits_Phase_8,0,5,80,127,1992066384
88,17,15,Jits_Phase_8,1,1,48,94,1992078120
88,17,15,Jits_Phase_8,2,5,56,103,1992096276
88,17,15,Jits_Phase_8,3,5,63,98,1992125948
88,17,15,Jits_Phase_8,0,5,56,103,1992866376
88,17,15,Jits_Phase_8,1,1,48,100,1992872116
88,17,15,Jits_Phase_8,2,5,63,98,1992925420
88,17,15,Jits_Phase_8,3,5,80,127,1992985940
88,17,15,Jits_Phase_8,0,5,80,127,1993686320
88,17,15,Jits_Phase_8,1,5,56,103,1993705952
88,17,15,Jits_Phase_8,2,1,48,105,1993706920
88,17,15,Jits_Phase_8,3,5,63,98,1993775476
88,17,15,Jits_Phase_8,0,5,80,127,1994486400
88,17,15,Jits_Phase_8,1,1,48,89,1994503072
88,17,15,Jits_Phase_8,2,5,63,98,1994505732
88,17,15,Jits_Phase_8,3,5,56,103,1994536524
88,17,15,Jits_Phase_8,0,5,80,127,1995275608
88,17,15,Jits_Phase_8,1,5,63,98,1995296364
88,17,15,Jits_Phase_8,2,1,48,82,1995304288
88,17,15,Jits_Phase_8,3,5,56,103,1995355552
88,17,15,Jits_Phase_8,0,5,80,127,1996076500
88,17,15,Jits_Phase_8,1,1,48,72,1996094908
88,17,15,Jits_Phase_8,2,5,56,103,1996175868
88,17,15,Jits_Phase_8,3,5,63,98,1996205528
88,17,15,Jits_Phase_8,0,5,63,98,1996865868
88,17,15,Jits_Phase_8,1,5,80,127,1996916292
88,17,15,Jits_Phase_8,2,5,56,103,1996935432
88,17,15,Jits_Phase_8,3,1,48,74,1996942664
88,17,15,Jits_Phase_8,0,1,48,105,1997639736
88,17,15,Jits_Phase_8,1,5,80,127,1997705572
88,17,15,Jits_Phase_8,2,5,56,103,1997736428
88,17,15,Jits_Phase_8,3,5,63,98,1997739572
88,17,15,Jits_Phase_8,0,1,48,83,1998483432
88,17,15,Jits_Phase_8,1,5,63,98,1998555472
88,17,15,Jits_Phase_8,2,5,56,103,1998595472
88,17,15,Jits_Phase_8,3,5,80,127,1998615780
88,17,15,Jits_Phase_8,0,5,80,127,1999316348
88,17,15,Jits_Phase_8,1,5,63,98,1999396148
88,17,15,Jits_Phase_8,2,1,48,69,1999402332
88,17,15,Jits_Phase_8,3,5,56,103,1999436376
88,17,15,Jits_Phase_8,0,5,63,98,2000135532
88,17,15,Jits_Phase_8,1,1,48,75,2000185484
88,17,15,Jits_Phase_8,2,5,80,127,2000216444
88,17,15,Jits_Phase_8,3,5,56,103,2000235856
88,17,15,Jits_Phase_8,0,5,56,103,2000976128
88,17,15,Jits_Phase_8,1,5,63,98,2000985352
88,17,15,Jits_Phase_8,2,5,80,127,2001026364
88,17,15,Jits_Phase_8,3,1,48,65,2001031352
88,17,15,Jits_Phase_8,0,5,56,103,2001696180
88,17,15,Jits_Phase_8,1,5,80,127,2001699324
88,17,15,Jits_Phase_8,2,1,48,100,2001770244
88,17,15,Jits_Phase_8,3,5,63,98,2001836380
88,17,15,Jits_Phase_8,0,5,56,103,2002485544
88,17,15,Jits_Phase_8,1,1,48,109,2002572516
88,17,15,Jits_Phase_8,2,5,63,98,2002575696
88,17,15,Jits_Phase_8,3,5,80,127,2002646272
88,17,15,Jits_Phase_8,0,5,63,98,2003366340
88,17,15,Jits_Phase_8,1,5,80,127,2003369628
88,17,15,Jits_Phase_8,2,1,48,82,2003379500
88,17,15,Jits_Phase_8,3,5,56,103,2003425528
88,17,15,Jits_Phase_8,0,1,48,78,2004182240
88,17,15,Jits_Phase_8,1,5,80,127,2004206020
88,17,15,Jits_Phase_8,2,5,56,103,2004226408
88,17,15,Jits_Phase_8,3,5,63,98,2004235704
88,17,15,Jits_Phase_8,0,5,56,103,2004915588
88,17,15,Jits_Phase_8,1,5,63,98,2004925936
88,17,15,Jits_Phase_8,2,1,48,75,2004957748
88,17,15,Jits_Phase_8,3,5,80,127,2004995384
88,17,15,Jits_Phase_8,0,5,80,127,2005716324
88,17,15,Jits_Phase_8,1,1,48,75,2005759156
88,17,15,Jits_Phase_8,2,5,56,103,2005765700
88,17,15,Jits_Phase_8,3,5,63,98,2005815748
88,17,15,Jits_Phase_8,0,1,48,80,2006562436
88,17,15,Jits_Phase_8,1,5,56,103,2006596036
88,17,15,Jits_Phase_8,2,5,63,98,2006606156
88,17,15,Jits_Phase_8,3,5,80,127,2006646096
88,17,15,Jits_Phase_8,0,5,56,103,2007336248
88,17,15,Jits_Phase_8,1,1,48,62,2007352844
88,17,15,Jits_Phase_8,2,5,63,98,2007376328
88,17,15,Jits_Phase_8,3,5,80,127,2007426480
88,17,15,Jits_Phase_8,0,5,80,127,2008096236
88,17,15,Jits_Phase_8,1,5,56,103,2008146216
88,17,15,Jits_Phase_8,2,1,48,95,2008147184
88,17,15,Jits_Phase_8,3,5,63,98,2008165768
88,17,15,Jits_Phase_8,0,5,80,127,2008906044
88,17,15,Jits_Phase_8,1,1,48,95,2008943096
88,17,15,Jits_Phase_8,2,5,63,98,2008965480
88,17,15,Jits_Phase_8,3,5,56,103,2009046384
88,17,15,Jits_Phase_8,0,5,80,127,2009686340
88,17,15,Jits_Phase_8,1,5,56,103,2009726228
88,17,15,Jits_Phase_8,2,5,63,98,2009745712
88,17,15,Jits_Phase_8,3,1,48,63,2009811604
88,17,15,Jits_Phase_8,0,5,56,103,2010536252
88,17,15,Jits_Phase_8,1,5,80,127,2010545476
88,17,15,Jits_Phase_8,2,1,48,92,2010553624
88,17,15,Jits_Phase_8,3,5,63,98,2010585404
88,17,15,Jits_Phase_8,0,1,48,84,2011347084
88,17,15,Jits_Phase_8,1,5,56,103,2011405620
88,17,15,Jits_Phase_8,2,5,63,98,2011446304
88,17,15,Jits_Phase_8,3,5,80,127,2011449436
88,17,15,Jits_Phase_8,0,5,63,98,2012076440
88,17,15,Jits_Phase_8,1,5,80,127,2012116452
88,17,15,Jits_Phase_8,2,5,56,103,2012186056
88,17,15,Jits_Phase_8,3,1,48,73,2012253220
88,17,15,Jits_Phase_8,0,5,63,98,2012845336
88,17,15,Jits_Phase_8,1,5,56,103,2012926324
88,17,15,Jits_Phase_8,2,1,48,100,2012980084
88,17,15,Jits_Phase_8,3,5,80,127,2012985660
88,17,15,Jits_Phase_8,0,5,80,127,2013656564
88,17,15,Jits_Phase_8,1,1,48,79,2013663884
88,17,15,Jits_Phase_8,2,5,63,98,2013705488
88,17,15,Jits_Phase_8,3,5,56,103,2013736356
88,17,15,Jits_Phase_8,0,1,48,90,2014439516
88,17,15,Jits_Phase_8,1,5,56,103,2014446136
88,17,15,Jits_Phase_8,2,5,63,98,2014495964
88,17,15,Jits_Phase_8,3,5,80,127,2014506308
88,17,15,Jits_Phase_8,0,5,56,103,2015256084
88,17,15,Jits_Phase_8,1,1,48,107,2015269168
88,17,15,Jits_Phase_8,2,5,63,98,2015365404
88,17,15,Jits_Phase_8,3,5,80,127,2015386084
88,17,15,Jits_Phase_8,0,5,63,98,2016055644
88,17,15,Jits_Phase_8,1,5,80,127,2016105920
88,17,15,Jits_Phase_8,2,1,48,108,2016129812
88,17,15,Jits_Phase_8,3,5,56,103,2016196068
88,17,15,Jits_Phase_8,0,5,63,98,2016846192
88,17,15,Jits_Phase_8,1,5,80,127,2016875944
88,17,15,Jits_Phase_8,2,1,48,111,2016886480
88,17,15,Jits_Phase_8,3,5,56,103,2016966088
88,17,15,Jits_Phase_8,0,5,63,98,2017646032
88,17,15,Jits_Phase_8,1,5,56,103,2017656300
88,17,15,Jits_Phase_8,2,1,48,99,2017678176
88,17,15,Jits_Phase_8,3,5,80,127,2017755520
88,17,15,Jits_Phase_8,0,1,48,94,2018443912
88,17,15,Jits_Phase_8,1,5,63,98,2018545960
88,17,15,Jits_Phase_8,2,5,80,127,2018576008
88,17,15,Jits_Phase_8,3,5,56,103,2018605460
88,17,15,Jits_Phase_8,0,5,80,127,2019366352
88,17,15,Jits_Phase_8,1,1,48,95,2019372688
88,17,15,Jits_Phase_8,2,5,63,98,2019375424
88,17,15,Jits_Phase_8,3,5,56,103,2019406296
88,17,15,Jits_Phase_8,0,5,80,127,2020065740
88,17,15,Jits_Phase_8,1,5,63,98,2020086052
88,17,15,Jits_Phase_8,2,5,56,103,2020136400
88,17,15,Jits_Phase_8,3,1,48,84,2020165296
88,17,15,Jits_Phase_8,0,1,48,76,2020844056
88,17,15,Jits_Phase_8,1,5,63,98,2020896144
88,17,15,Jits_Phase_8,2,5,80,127,2020955400
88,17,15,Jits_Phase_8,3,5,56,103,2020975932
88,17,15,Jits_Phase_8,0,5,63,98,2021656052
88,17,15,Jits_Phase_8,1,1,48,100,2021673624
88,17,15,Jits_Phase_8,2,5,56,103,2021706024
88,17,15,Jits_Phase_8,3,5,80,127,2021716444
88,17,15,Jits_Phase_8,0,1,48,86,2022421988
88,17,15,Jits_Phase_8,1,5,56,103,2022486752
88,17,15,Jits_Phase_8,2,5,80,127,2022495676
88,17,15,Jits_Phase_8,3,5,63,98,2022596152
88,17,15,Jits_Phase_8,0,5,80,127,2023246136
88,17,15,Jits_Phase_8,1,1,48,99,2023256632
88,17,15,Jits_Phase_8,2,5,63,98,2023258124
88,17,15,Jits_Phase_8,3,5,56,103,2023405872
88,17,15,Jits_Phase_8,0,5,63,98,2024056168
88,17,15,Jits_Phase_8,1,1,48,62,2024094168
88,17,15,Jits_Phase_8,2,5,80,127,2024096052
88,17,15,Jits_Phase_8,3,5,56,103,2024176068
88,17,15,Jits_Phase_8,0,5,56,103,2024805876
88,17,15,Jits_Phase_8,1,5,80,127,2024906148
88,17,15,Jits_Phase_8,2,1,48,64,2024908824
88,17,15,Jits_Phase_8,3,5,63,98,2024925480
88,17,15,Jits_Phase_8,0,5,80,127,2025625984
88,17,15,Jits_Phase_8,1,5,56,103,2025636104
88,17,15,Jits_Phase_8,2,1,48,72,2025651432
88,17,15,Jits_Phase_8,3,5,63,98,2025726304
88,17,15,Jits_Phase_8,0,1,48,73,2026377404
88,17,15,Jits_Phase_8,1,5,56,103,2026425900
88,17,15,Jits_Phase_8,2,5,63,98,2026446212
88,17,15,Jits_Phase_8,3,5,80,127,2026525988
88,17,15,Jits_Phase_8,0,1,48,88,2027158428
88,17,15,Jits_Phase_8,1,5,63,98,2027176212
88,17,15,Jits_Phase_8,2,5,56,103,2027266632
88,17,15,Jits_Phase_8,3,5,80,127,2027269772
88,17,15,Jits_Phase_8,0,1,48,85,2027957732
88,17,15,Jits_Phase_8,1,5,56,103,2028005704
88,17,15,Jits_Phase_8,2,5,80,127,2028066156
88,17,15,Jits_Phase_8,3,5,63,98,2028076356
88,17,15,Jits_Phase_8,0,1,48,82,2028752312
88,17,15,Jits_Phase_8,1,5,80,127,2028855872
88,17,15,Jits_Phase_8,2,5,56,103,2028865916
88,17,15,Jits_Phase_8,3,5,63,98,2028869132
88,17,15,Jits_Phase_8,0,1,48,73,2029577844
88,17,15,Jits_Phase_8,1,5,56,103,2029615408
88,17,15,Jits_Phase_8,2,5,80,127,2029625828
88,17,15,Jits_Phase_8,3,5,63,98,2029646212
88,17,15,Jits_Phase_8,0,1,48,87,2030337444
88,17,15,Jits_Phase_8,1,5,63,98,2030385644
88,17,15,Jits_Phase_8,2,5,80,127,2030445944
88,17,15,Jits_Phase_8,3,5,56,103,2030496168
88,17,15,Jits_Phase_8,0,1,48,67,2031104684
88,17,15,Jits_Phase_8,1,5,63,98,2031266176
88,17,15,Jits_Phase_8,2,5,56,103,2031276524
88,17,15,Jits_Phase_8,3,5,80,127,2031325748
88,17,15,Jits_Phase_8,0,5,63,98,2031965544
88,17,15,Jits_Phase_8,1,1,48,76,2031985780
88,17,15,Jits_Phase_8,2,5,80,127,2031987120
88,17,15,Jits_Phase_8,3,5,56,103,2031996736
88,17,15,Jits_Phase_8,0,1,48,88,2032750420
88,17,15,Jits_Phase_8,1,5,63,98,2032766356
88,17,15,Jits_Phase_8,2,5,80,127,2032769720
88,17,15,Jits_Phase_8,3,5,56,103,2032806368
88,17,15,Jits_Phase_8,0,1,48,80,2033528732
88,17,15,Jits_Phase_8,1,5,63,98,2033635836
88,17,15,Jits_Phase_8,2,5,80,127,2033666560
88,17,15,Jits_Phase_8,3,5,56,103,2033675856
88,17,15,Jits_Phase_8,0,5,56,103,2034386244
88,17,15,Jits_Phase_8,1,5,80,127,2034415996
88,17,15,Jits_Phase_8,2,1,48,92,2034430796
88,17,15,Jits_Phase_8,3,5,63,98,2034445664
88,17,15,Jits_Phase_8,0,1,48,92,2035183124
88,17,15,Jits_Phase_8,1,5,63,98,2035286464
88,17,15,Jits_Phase_8,2,5,56,103,2035326348
88,17,15,Jits_Phase_8,3,5,80,127,2035329640
88,17,15,Jits_Phase_8,0,5,80,127,2035985924
88,17,15,Jits_Phase_8,1,1,48,97,2036054976
88,17,15,Jits_Phase_8,2,5,56,103,2036065712
88,17,15,Jits_Phase_8,3,5,63,98,2036115864
88,17,15,Jits_Phase_8,0,5,80,127,2036766068
88,17,15,Jits_Phase_8,1,5,56,103,2036785704
88,17,15,Jits_Phase_8,2,1,48,97,2036857376
88,17,15,Jits_Phase_8,3,5,63,98,2036875632
88,17,15,Jits_Phase_8,0,1,48,116,2037594432
88,17,15,Jits_Phase_8,1,5,80,127,2037605692
88,17,15,Jits_Phase_8,2,5,63,98,2037645580
88,17,15,Jits_Phase_8,3,5,56,103,2037685740
88,17,15,Jits_Phase_8,0,1,48,116,2038396264
88,17,15,Jits_Phase_8,1,5,63,98,2038415840
88,17,15,Jits_Phase_8,2,5,80,127,2038476084
88,17,15,Jits_Phase_8,3,5,56,103,2038505816
88,17,15,Jits_Phase_8,0,1,48,84,2039206528
88,17,15,Jits_Phase_8,1,5,56,103,2039256676
88,17,15,Jits_Phase_8,2,5,80,127,2039286128
88,17,15,Jits_Phase_8,3,5,63,98,2039376392
88,17,15,Jits_Phase_8,0,5,56,103,2040066476
88,17,15,Jits_Phase_8,1,1,48,73,2040081876
88,17,15,Jits_Phase_8,2,5,80,127,2040176084
88,17,15,Jits_Phase_8,3,5,63,98,2040205620
88,17,15,Jits_Phase_8,0,5,56,103,2040916524
88,17,15,Jits_Phase_8,1,1,48,89,2040943608
88,17,15,Jits_Phase_8,2,5,63,98,2040975588
88,17,15,Jits_Phase_8,3,5,80,127,2041005560
88,17,15,Jits_Phase_8,0,5,56,103,2041686484
88,17,15,Jits_Phase_8,1,1,48,92,2041727912
88,17,15,Jits_Phase_8,2,5,63,98,2041755964
88,17,15,Jits_Phase_8,3,5,80,127,2041775596
88,17,15,Jits_Phase_8,0,5,80,127,2042456592
88,17,15,Jits_Phase_8,1,1,48,100,2042465784
88,17,15,Jits_Phase_8,2,5,63,98,2042475772
88,17,15,Jits_Phase_8,3,5,56,103,2042526000
88,17,15,Jits_Phase_8,0,1,48,94,2043220892
88,17,15,Jits_Phase_8,1,5,63,98,2043275496
88,17,15,Jits_Phase_8,2,5,80,127,2043285768
88,17,15,Jits_Phase_8,3,5,56,103,2043336028
88,17,15,Jits_Phase_8,0,1,48,98,2044014440
88,17,15,Jits_Phase_8,1,5,63,98,2044076600
88,17,15,Jits_Phase_8,2,5,80,127,2044145892
88,17,15,Jits_Phase_8,3,5,56,103,2044165528
88,17,15,Jits_Phase_8,0,1,48,82,2044823204
88,17,15,Jits_Phase_8,1,5,63,98,2044905876
88,17,15,Jits_Phase_8,2,5,80,127,2044909392
88,17,15,Jits_Phase_8,3,5,56,103,2044975392
88,17,15,Jits_Phase_8,0,1,48,87,2045640488
88,17,15,Jits_Phase_8,1,5,80,127,2045656628
88,17,15,Jits_Phase_8,2,5,56,103,2045675816
88,17,15,Jits_Phase_8,3,5,63,98,2045686084
88,17,15,Jits_Phase_8,0,1,48,80,2046402400
88,17,15,Jits_Phase_8,1,5,56,103,2046475636
88,17,15,Jits_Phase_8,2,5,63,98,2046565600
88,17,15,Jits_Phase_8,3,5,80,127,2046569044
88,17,15,Jits_Phase_8,0,5,80,127,2047245652
88,17,15,Jits_Phase_8,1,1,48,64,2047250492
88,17,15,Jits_Phase_8,2,5,56,103,2047255988
88,17,15,Jits_Phase_8,3,5,63,98,2047276672
88,17,15,Jits_Phase_8,0,1,48,97,2048034000
88,17,15,Jits_Phase_8,1,5,63,98,2048045336
88,17,15,Jits_Phase_8,2,5,80,127,2048105800
88,17,15,Jits_Phase_8,3,5,56,103,2048116516
88,17,15,Jits_Phase_8,0,1,48,92,2048825728
88,17,15,Jits_Phase_8,1,5,63,98,2048915756
88,17,15,Jits_Phase_8,2,5,80,127,2048945492
88,17,15,Jits_Phase_8,3,5,56,103,2048985356
88,17,15,Jits_Phase_8,0,5,56,103,2049706452
88,17,15,Jits_Phase_8,1,5,80,127,2049715676
88,17,15,Jits_Phase_8,2,1,48,87,2049716644
88,17,15,Jits_Phase_8,3,5,63,98,2049755460
88,17,15,Jits_Phase_8,0,5,80,127,2050466516
88,17,15,Jits_Phase_8,1,5,56,103,2050545940
88,17,15,Jits_Phase_8,2,5,63,98,2050556432
88,17,15,Jits_Phase_8,3,1,48,59,2050581872
88,17,15,Jits_Phase_8,0,1,48,72,2051303008
88,17,15,Jits_Phase_8,1,5,80,127,2051316156
88,17,15,Jits_Phase_8,2,5,56,103,2051395936
88,17,15,Jits_Phase_8,3,5,63,98,2051406428
88,17,15,Jits_Phase_8,0,1,48,85,2052089296
88,17,15,Jits_Phase_8,1,5,80,127,2052155628
88,17,15,Jits_Phase_8,2,5,56,103,2052205892
88,17,15,Jits_Phase_8,3,5,63,98,2052256264
88,17,15,Jits_Phase_8,0,1,48,71,2052940064
88,17,15,Jits_Phase_8,1,5,56,103,2053095708
88,17,15,Jits_Phase_8,2,5,63,98,2053098928
88,17,15,Jits_Phase_8,3,5,80,127,2053145912
88,17,15,Jits_Phase_8,0,1,48,65,2053868712
88,17,15,Jits_Phase_8,1,5,56,103,2053916384
88,17,15,Jits_Phase_8,2,5,63,98,2053945836
88,17,15,Jits_Phase_8,3,5,80,127,2053956108
88,17,15,Jits_Phase_8,0,5,63,98,2054625652
88,17,15,Jits_Phase_8,1,5,56,103,2054696160
88,17,15,Jits_Phase_8,2,1,48,68,2054700848
88,17,15,Jits_Phase_8,3,5,80,127,2054745380
88,17,15,Jits_Phase_8,0,1,48,85,2055422820
88,17,15,Jits_Phase_8,1,5,63,98,2055456120
88,17,15,Jits_Phase_8,2,5,56,103,2055466464
88,17,15,Jits_Phase_8,3,5,80,127,2055469384
88,17,15,Jits_Phase_8,0,1,48,74,2056187140
88,17,15,Jits_Phase_8,1,5,80,127,2056205668
88,17,15,Jits_Phase_8,2,5,56,103,2056266136
88,17,15,Jits_Phase_8,3,5,63,98,2056356424
88,17,15,Jits_Phase_8,0,1,48,95,2057005660
88,17,15,Jits_Phase_8,1,5,80,127,2057007304
88,17,15,Jits_Phase_8,2,5,56,103,2057105912
88,17,15,Jits_Phase_8,3,5,63,98,2057145700
88,17,15,Jits_Phase_8,0,5,56,103,2057856468
88,17,15,Jits_Phase_8,1,5,63,98,2057875804
88,17,15,Jits_Phase_8,2,1,48,82,2057896232
88,17,15,Jits_Phase_8,3,5,80,127,2057915660
88,17,15,Jits_Phase_8,0,5,63,98,2058626272
88,17,15,Jits_Phase_8,1,5,56,103,2058645904
88,17,15,Jits_Phase_8,2,1,48,100,2058691344
88,17,15,Jits_Phase_8,3,5,80,127,2058746216
88,17,15,Jits_Phase_8,0,5,63,98,2059416216
88,17,15,Jits_Phase_8,1,1,48,91,2059440760
88,17,15,Jits_Phase_8,2,5,80,127,2059525524
88,17,15,Jits_Phase_8,3,5,56,103,2059556380
88,17,15,Jits_Phase_8,0,5,56,103,2060236356
88,17,15,Jits_Phase_8,1,5,63,98,2060266032
88,17,15,Jits_Phase_8,2,1,48,89,2060309232
88,17,15,Jits_Phase_8,3,5,80,127,2060316152
88,17,15,Jits_Phase_8,0,5,63,98,2061006088
88,17,15,Jits_Phase_8,1,5,56,103,2061035836
88,17,15,Jits_Phase_8,2,5,80,127,2061086036
88,17,15,Jits_Phase_8,3,1,48,80,2061099048
88,17,15,Jits_Phase_8,0,5,56,103,2061835732
88,17,15,Jits_Phase_8,1,5,63,98,2061856412
88,17,15,Jits_Phase_8,2,1,48,64,2061868676
88,17,15,Jits_Phase_8,3,5,80,127,2061936272
88,17,15,Jits_Phase_8,0,5,63,98,2062605608
88,17,15,Jits_Phase_8,1,1,48,77,2062660268
88,17,15,Jits_Phase_8,2,5,56,103,2062666292
88,17,15,Jits_Phase_8,3,5,80,127,2062695744
88,17,15,Jits_Phase_8,0,1,48,91,2063441584
88,17,15,Jits_Phase_8,1,5,56,103,2063446340
88,17,15,Jits_Phase_8,2,5,80,127,2063505708
88,17,15,Jits_Phase_8,3,5,63,98,2063545704
88,17,15,Jits_Phase_8,0,5,63,98,2064225576
88,17,15,Jits_Phase_8,1,1,48,89,2064240380
88,17,15,Jits_Phase_8,2,5,56,103,2064286060
88,17,15,Jits_Phase_8,3,5,80,127,2064355724
88,17,15,Jits_Phase_8,0,1,48,103,2064983428
88,17,15,Jits_Phase_8,1,5,56,103,2065106252
88,17,15,Jits_Phase_8,2,5,63,98,2065115396
88,17,15,Jits_Phase_8,3,5,80,127,2065119064
88,17,15,Jits_Phase_8,0,1,48,91,2065807648
88,17,15,Jits_Phase_8,1,5,63,98,2065845508
88,17,15,Jits_Phase_8,2,5,56,103,2065906636
88,17,15,Jits_Phase_8,3,5,80,127,2065909472
88,17,15,Jits_Phase_8,0,5,63,98,2066626080
88,17,15,Jits_Phase_8,1,5,80,127,2066655456
88,17,15,Jits_Phase_8,2,1,48,93,2066667416
88,17,15,Jits_Phase_8,3,5,56,103,2066676280
88,17,15,Jits_Phase_8,0,5,56,103,2067356152
88,17,15,Jits_Phase_8,1,5,63,98,2067406132
88,17,15,Jits_Phase_8,2,1,48,86,2067453592
88,17,15,Jits_Phase_8,3,5,80,127,2067486216
88,17,15,Jits_Phase_8,0,5,80,127,2068056424
88,17,15,Jits_Phase_8,1,5,63,98,2068096388
88,17,15,Jits_Phase_8,2,5,56,103,2068115796
88,17,15,Jits_Phase_8,3,1,48,124,2068191352
88,17,15,Jits_Phase_8,0,1,48,80,2068884596
88,17,15,Jits_Phase_8,1,5,56,103,2068925820
88,17,15,Jits_Phase_8,2,5,80,127,2068936240
88,17,15,Jits_Phase_8,3,5,63,98,2068955428
88,17,15,Jits_Phase_8,0,1,48,95,2069635352
88,17,15,Jits_Phase_8,1,5,56,103,2069706100
88,17,15,Jits_Phase_8,2,5,63,98,2069756288
88,17,15,Jits_Phase_8,3,5,80,127,2069786184
88,17,15,Jits_Phase_8,0,5,56,103,2070455596
88,17,15,Jits_Phase_8,1,5,63,98,2070466012
88,17,15,Jits_Phase_8,2,1,48,109,2070467880
88,17,15,Jits_Phase_8,3,5,80,127,2070516060
88,17,15,Jits_Phase_8,0,5,56,103,2071246304
88,17,15,Jits_Phase_8,1,5,80,127,2071249296
88,17,15,Jits_Phase_8,2,1,48,103,2071250188
88,17,15,Jits_Phase_8,3,5,63,98,2071406080
88,17,15,Jits_Phase_8,0,1,48,82,2072039448
88,17,15,Jits_Phase_8,1,5,63,98,2072066372
88,17,15,Jits_Phase_8,2,5,56,103,2072136128
88,17,15,Jits_Phase_8,3,1,48,28,2072143944
88,17,15,Jits_Phase_8,4,5,80,127,2072176044
88,17,15,Jits_Phase_8,0,1,48,103,2072840056
88,17,15,Jits_Phase_8,1,5,63,98,2072906092
88,17,15,Jits_Phase_8,2,5,56,103,2072996160
88,17,15,Jits_Phase_8,3,5,80,127,2072999304
88,17,15,Jits_Phase_8,0,1,48,73,2073625832
88,17,15,Jits_Phase_8,1,5,56,103,2073686392
88,17,15,Jits_Phase_8,2,5,63,98,2073775340
88,17,15,Jits_Phase_8,3,5,80,127,2073786132
88,17,15,Jits_Phase_8,0,5,56,103,2074456564
88,17,15,Jits_Phase_8,1,1,48,86,2074484336
88,17,15,Jits_Phase_8,2,5,63,98,2074505588
88,17,15,Jits_Phase_8,3,5,80,127,2074536232
88,17,15,Jits_Phase_8,0,1,48,95,2075220776
88,17,15,Jits_Phase_8,1,5,63,98,2075336052
88,17,15,Jits_Phase_8,2,5,80,127,2075346468
88,17,15,Jits_Phase_8,3,5,56,103,2075405812
88,17,15,Jits_Phase_8,0,5,63,98,2076055892
88,17,15,Jits_Phase_8,1,1,48,79,2076108684
88,17,15,Jits_Phase_8,2,5,80,127,2076116352
88,17,15,Jits_Phase_8,3,5,56,103,2076156140
88,17,15,Jits_Phase_8,0,1,48,80,2076908888
88,17,15,Jits_Phase_8,1,5,56,103,2076956116
88,17,15,Jits_Phase_8,2,5,80,127,2076975452
88,17,15,Jits_Phase_8,3,5,63,98,2076995912
88,17,15,Jits_Phase_8,0,1,48,91,2077672376
88,17,15,Jits_Phase_8,1,5,63,98,2077676008
88,17,15,Jits_Phase_8,2,5,56,103,2077696248
88,17,15,Jits_Phase_8,3,5,80,127,2077736332
88,17,15,Jits_Phase_8,0,5,63,98,2078485888
88,17,15,Jits_Phase_8,1,1,48,82,2078500092
88,17,15,Jits_Phase_8,2,5,80,127,2078515480
88,17,15,Jits_Phase_8,3,5,56,103,2078536088
88,17,15,Jits_Phase_8,0,5,80,127,2079256048
88,17,15,Jits_Phase_8,1,1,48,78,2079292428
88,17,15,Jits_Phase_8,2,5,56,103,2079306244
88,17,15,Jits_Phase_8,3,5,63,98,2079365388
88,17,15,Jits_Phase_8,0,5,63,98,2080045480
88,17,15,Jits_Phase_8,1,1,48,97,2080131852
88,17,15,Jits_Phase_8,2,5,56,103,2080166196
88,17,15,Jits_Phase_8,3,5,80,127,2080195948
88,17,15,Jits_Phase_8,0,5,80,127,2080886072
88,17,15,Jits_Phase_8,1,5,63,98,2080905584
88,17,15,Jits_Phase_8,2,1,48,94,2080925940
88,17,15,Jits_Phase_8,3,5,56,103,2080976152
88,17,15,Jits_Phase_8,0,1,48,105,2081672864
88,17,15,Jits_Phase_8,1,5,63,98,2081706388
88,17,15,Jits_Phase_8,2,5,56,103,2081715908
88,17,15,Jits_Phase_8,3,5,80,127,2081795320
88,17,15,Jits_Phase_8,0,1,48,91,2082443748
88,17,15,Jits_Phase_8,1,5,56,103,2082565352
88,17,15,Jits_Phase_8,2,5,80,127,2082596148
88,17,15,Jits_Phase_8,3,5,63,98,2082605520
88,17,15,Jits_Phase_8,0,9999,9999,9999,1947723888
88,17,15,Jits_Phase_8,1,9999,9999,9999,1948523604
88,17,15,Jits_Phase_8,2,9999,9999,9999,1949323368
88,17,15,Jits_Phase_8,3,9999,9999,9999,1950123104
88,17,15,Jits_Phase_8,4,9999,9999,9999,1950923860
88,17,15,Jits_Phase_8,5,9999,9999,9999,1951723632
88,17,15,Jits_Phase_8,6,9999,9999,9999,1952523388
88,17,15,Jits_Phase_8,7,9999,9999,9999,1953323100
88,17,15,Jits_Phase_8,8,9999,9999,9999,1954123848
88,17,15,Jits_Phase_8,9,9999,9999,9999,1954923596
88,17,15,Jits_Phase_8,10,9999,9999,9999,1955723336
88,17,15,Jits_Phase_8,11,9999,9999,9999,1956523120
88,17,15,Jits_Phase_8,12,9999,9999,9999,1957323884
88,17,15,Jits_Phase_8,13,9999,9999,9999,1958123584
88,17,15,Jits_Phase_8,14,9999,9999,9999,1958923332
88,17,15,Jits_Phase_8,15,9999,9999,9999,1959723096
88,17,15,Jits_Phase_8,16,9999,9999,9999,1960523896
88,17,15,Jits_Phase_8,17,9999,9999,9999,1961323600
88,17,15,Jits_Phase_8,18,9999,9999,9999,1962123388
88,17,15,Jits_Phase_8,19,9999,9999,9999,1962923092
88,17,15,Jits_Phase_8,20,9999,9999,9999,1963723828
88,17,15,Jits_Phase_8,21,9999,9999,9999,1964523596
88,17,15,Jits_Phase_8,22,9999,9999,9999,1965323364
88,17,15,Jits_Phase_8,23,9999,9999,9999,1966123072
88,17,15,Jits_Phase_8,24,9999,9999,9999,1966923888
88,17,15,Jits_Phase_8,25,9999,9999,9999,1967723580
88,17,15,Jits_Phase_8,26,9999,9999,9999,1968523392
88,17,15,Jits_Phase_8,27,9999,9999,9999,1969323072
88,17,15,Jits_Phase_8,28,9999,9999,9999,1970123896
88,17,15,Jits_Phase_8,29,9999,9999,9999,1970923616
88,17,15,Jits_Phase_8,30,9999,9999,9999,1971703888
88,17,15,Jits_Phase_8,31,9999,9999,9999,1972503648
88,17,15,Jits_Phase_8,32,9999,9999,9999,1973303416
88,17,15,Jits_Phase_8,33,9999,9999,9999,1974103108
88,17,15,Jits_Phase_8,34,9999,9999,9999,1974903928
88,17,15,Jits_Phase_8,35,9999,9999,9999,1975703660
88,17,15,Jits_Phase_8,36,9999,9999,9999,1976503376
88,17,15,Jits_Phase_8,37,9999,9999,9999,1977303152
88,17,15,Jits_Phase_8,38,9999,9999,9999,1978103900
88,17,15,Jits_Phase_8,39,9999,9999,9999,1978903676
88,17,15,Jits_Phase_8,40,9999,9999,9999,1979703376
88,17,15,Jits_Phase_8,41,9999,9999,9999,1980503148
88,17,15,Jits_Phase_8,42,9999,9999,9999,1981303888
88,17,15,Jits_Phase_8,43,9999,9999,9999,1982103676
88,17,15,Jits_Phase_8,44,9999,9999,9999,1982903420
88,17,15,Jits_Phase_8,45,9999,9999,9999,1983703108
88,17,15,Jits_Phase_8,46,9999,9999,9999,1984503928
88,17,15,Jits_Phase_8,47,9999,9999,9999,1985303620
88,17,15,Jits_Phase_8,48,9999,9999,9999,1986123840
88,17,15,Jits_Phase_8,49,9999,9999,9999,1986923620
88,17,15,Jits_Phase_8,50,9999,9999,9999,1987723352
88,17,15,Jits_Phase_8,51,9999,9999,9999,1988523084
88,17,15,Jits_Phase_8,52,9999,9999,9999,1989323852
88,17,15,Jits_Phase_8,53,9999,9999,9999,1990123640
88,17,15,Jits_Phase_8,54,9999,9999,9999,1990923344
88,17,15,Jits_Phase_8,55,9999,9999,9999,1991723128
88,17,15,Jits_Phase_8,56,9999,9999,9999,1992523860
88,17,15,Jits_Phase_8,57,9999,9999,9999,1993323632
88,17,15,Jits_Phase_8,58,9999,9999,9999,1994123368
88,17,15,Jits_Phase_8,59,9999,9999,9999,1994923076
88,17,15,Jits_Phase_8,60,9999,9999,9999,1995723892
88,17,15,Jits_Phase_8,61,9999,9999,9999,1996523596
88,17,15,Jits_Phase_8,62,9999,9999,9999,1997323368
88,17,15,Jits_Phase_8,63,9999,9999,9999,1998123116
88,17,15,Jits_Phase_8,64,9999,9999,9999,1998963808
88,17,15,Jits_Phase_8,65,9999,9999,9999,1999763520
88,17,15,Jits_Phase_8,66,9999,9999,9999,2000563296
88,17,15,Jits_Phase_8,67,9999,9999,9999,2001364032
88,17,15,Jits_Phase_8,68,9999,9999,9999,2002163792
88,17,15,Jits_Phase_8,69,9999,9999,9999,2002963576
88,17,15,Jits_Phase_8,70,9999,9999,9999,2003763280
88,17,15,Jits_Phase_8,71,9999,9999,9999,2004564092
88,17,15,Jits_Phase_8,72,9999,9999,9999,2005363776
88,17,15,Jits_Phase_8,73,9999,9999,9999,2006163568
88,17,15,Jits_Phase_8,74,9999,9999,9999,2006963272
88,17,15,Jits_Phase_8,75,9999,9999,9999,2007764080
88,17,15,Jits_Phase_8,76,9999,9999,9999,2008563776
88,17,15,Jits_Phase_8,77,9999,9999,9999,2009363548
88,17,15,Jits_Phase_8,78,9999,9999,9999,2010163316
88,17,15,Jits_Phase_8,79,9999,9999,9999,2010964060
88,17,15,Jits_Phase_8,80,9999,9999,9999,2011763832
88,17,15,Jits_Phase_8,81,9999,9999,9999,2012523580
88,17,15,Jits_Phase_8,82,9999,9999,9999,2013323364
88,17,15,Jits_Phase_8,83,9999,9999,9999,2014123128
88,17,15,Jits_Phase_8,84,9999,9999,9999,2014923868
88,17,15,Jits_Phase_8,85,9999,9999,9999,2015723628
88,17,15,Jits_Phase_8,86,9999,9999,9999,2016523336
88,17,15,Jits_Phase_8,87,9999,9999,9999,2017323096
88,17,15,Jits_Phase_8,88,9999,9999,9999,2018123836
88,17,15,Jits_Phase_8,89,9999,9999,9999,2018923604
88,17,15,Jits_Phase_8,90,9999,9999,9999,2019723324
88,17,15,Jits_Phase_8,91,9999,9999,9999,2020523092
88,17,15,Jits_Phase_8,92,9999,9999,9999,2021323840
88,17,15,Jits_Phase_8,93,9999,9999,9999,2022123592
88,17,15,Jits_Phase_8,94,9999,9999,9999,2022923364
88,17,15,Jits_Phase_8,95,9999,9999,9999,2023723116
88,17,15,Jits_Phase_8,96,9999,9999,9999,2024523860
88,17,15,Jits_Phase_8,97,9999,9999,9999,2025243756
88,17,15,Jits_Phase_8,98,9999,9999,9999,2026043456
88,17,15,Jits_Phase_8,99,9999,9999,9999,2026843232
88,17,15,Jits_Phase_8,100,9999,9999,9999,2027643976
88,17,15,Jits_Phase_8,101,9999,9999,9999,2028443736
88,17,15,Jits_Phase_8,102,9999,9999,9999,2029243488
88,17,15,Jits_Phase_8,103,9999,9999,9999,2030043244
88,17,15,Jits_Phase_8,104,9999,9999,9999,2030843976
88,17,15,Jits_Phase_8,105,9999,9999,9999,2031643740
88,17,15,Jits_Phase_8,106,9999,9999,9999,2032443492
88,17,15,Jits_Phase_8,107,9999,9999,9999,2033243232
88,17,15,Jits_Phase_8,108,9999,9999,9999,2034043988
88,17,15,Jits_Phase_8,109,9999,9999,9999,2034843744
88,17,15,Jits_Phase_8,110,9999,9999,9999,2035643516
88,17,15,Jits_Phase_8,111,9999,9999,9999,2036443208
88,17,15,Jits_Phase_8,112,9999,9999,9999,2037244020
88,17,15,Jits_Phase_8,113,9999,9999,9999,2038043720
88,17,15,Jits_Phase_8,114,9999,9999,9999,2038923316
88,17,15,Jits_Phase_8,115,9999,9999,9999,2039723100
88,17,15,Jits_Phase_8,116,9999,9999,9999,2040523836
88,17,15,Jits_Phase_8,117,9999,9999,9999,2041323612
88,17,15,Jits_Phase_8,118,9999,9999,9999,2042123388
88,17,15,Jits_Phase_8,119,9999,9999,9999,2042923084
88,17,15,Jits_Phase_8,120,9999,9999,9999,2043723836
88,17,15,Jits_Phase_8,121,9999,9999,9999,2044523596
88,17,15,Jits_Phase_8,122,9999,9999,9999,2045323372
88,17,15,Jits_Phase_8,123,9999,9999,9999,2046123120
88,17,15,Jits_Phase_8,124,9999,9999,9999,2046923848
88,17,15,Jits_Phase_8,125,9999,9999,9999,2047723596
88,17,15,Jits_Phase_8,126,9999,9999,9999,2048523368
88,17,15,Jits_Phase_8,127,9999,9999,9999,2049323124
88,17,15,Jits_Phase_8,128,9999,9999,9999,2050123848
88,17,15,Jits_Phase_8,129,9999,9999,9999,2050923596
88,17,15,Jits_Phase_8,130,9999,9999,9999,2051723324
88,17,15,Jits_Phase_8,131,9999,9999,9999,2052683852
88,17,15,Jits_Phase_8,132,9999,9999,9999,2053483608
88,17,15,Jits_Phase_8,133,9999,9999,9999,2054283324
88,17,15,Jits_Phase_8,134,9999,9999,9999,2055083084
88,17,15,Jits_Phase_8,135,9999,9999,9999,2055883876
88,17,15,Jits_Phase_8,136,9999,9999,9999,2056683632
88,17,15,Jits_Phase_8,137,9999,9999,9999,2057483320
88,17,15,Jits_Phase_8,138,9999,9999,9999,2058283080
88,17,15,Jits_Phase_8,139,9999,9999,9999,2059083892
88,17,15,Jits_Phase_8,140,9999,9999,9999,2059883588
88,17,15,Jits_Phase_8,141,9999,9999,9999,2060683372
88,17,15,Jits_Phase_8,142,9999,9999,9999,2061483064
88,17,15,Jits_Phase_8,143,9999,9999,9999,2062283868
88,17,15,Jits_Phase_8,144,9999,9999,9999,2063083636
88,17,15,Jits_Phase_8,145,9999,9999,9999,2063883324
88,17,15,Jits_Phase_8,146,9999,9999,9999,2064683080
88,17,15,Jits_Phase_8,147,9999,9999,9999,2065483880
88,17,15,Jits_Phase_8,148,9999,9999,9999,2066283580
88,17,15,Jits_Phase_8,149,9999,9999,9999,2067083356
88,17,15,Jits_Phase_8,150,9999,9999,9999,2067723368
88,17,15,Jits_Phase_8,151,9999,9999,9999,2068523060
88,17,15,Jits_Phase_8,152,9999,9999,9999,2069323892
88,17,15,Jits_Phase_8,153,9999,9999,9999,2070123580
88,17,15,Jits_Phase_8,154,9999,9999,9999,2070923356
88,17,15,Jits_Phase_8,155,9999,9999,9999,2071723124
88,17,15,Jits_Phase_8,156,9999,9999,9999,2072523860
88,17,15,Jits_Phase_8,157,9999,9999,9999,2073323592
88,17,15,Jits_Phase_8,158,9999,9999,9999,2074123376
88,17,15,Jits_Phase_8,159,9999,9999,9999,2074923128
88,17,15,Jits_Phase_8,160,9999,9999,9999,2075723876
88,17,15,Jits_Phase_8,161,9999,9999,9999,2076523632
88,17,15,Jits_Phase_8,162,9999,9999,9999,2077323352
88,17,15,Jits_Phase_8,163,9999,9999,9999,2078123104
88,17,15,Jits_Phase_8,164,9999,9999,9999,2078923832
88,17,15,Jits_Phase_8,165,9999,9999,9999,2079723588
88,17,15,Jits_Phase_8,166,9999,9999,9999,2080523364
88,17,15,Jits_Phase_8,167,9999,9999,9999,2081323124
88,17,15,Jits_Phase_8,168,9999,9999,9999,2082123872
88,17,15,Jits_Phase_8,169,9999,9999,9999,2082923588
88,18,19,Jits_Linear_5,0,5,56,103,2091204896
88,18,19,Jits_Linear_5,1,5,63,98,2091208000
88,18,19,Jits_Linear_5,2,5,80,127,2091211124
88,18,19,Jits_Linear_5,0,5,56,103,2091685212
88,18,19,Jits_Linear_5,1,5,63,98,2091688308
88,18,19,Jits_Linear_5,2,5,80,127,2091691580
88,18,19,Jits_Linear_5,0,5,56,103,2092164568
88,18,19,Jits_Linear_5,1,5,80,127,2092174840
88,18,19,Jits_Linear_5,2,5,63,98,2092195152
88,18,19,Jits_Linear_5,0,5,63,98,2092594668
88,18,19,Jits_Linear_5,1,5,80,127,2092625244
88,18,19,Jits_Linear_5,2,5,56,103,2092634840
88,18,19,Jits_Linear_5,0,1,48,89,2093107248
88,18,19,Jits_Linear_5,1,5,80,127,2093135216
88,18,19,Jits_Linear_5,2,5,56,103,2093144368
88,18,19,Jits_Linear_5,3,5,63,98,2093175088
88,18,19,Jits_Linear_5,0,5,63,98,2093614536
88,18,19,Jits_Linear_5,1,1,48,104,2093638260
88,18,19,Jits_Linear_5,2,5,56,103,2093645104
88,18,19,Jits_Linear_5,3,5,80,127,2093655676
88,18,19,Jits_Linear_5,0,5,56,103,2094054752
88,18,19,Jits_Linear_5,1,5,63,98,2094104880
88,18,19,Jits_Linear_5,2,5,80,127,2094125492
88,18,19,Jits_Linear_5,3,1,48,105,2094138124
88,18,19,Jits_Linear_5,0,5,80,127,2094545548
88,18,19,Jits_Linear_5,1,5,63,98,2094594632
88,18,19,Jits_Linear_5,2,1,48,106,2094601940
88,18,19,Jits_Linear_5,3,5,56,103,2094635464
88,18,19,Jits_Linear_5,0,5,56,103,2095034628
88,18,19,Jits_Linear_5,1,5,63,98,2095064600
88,18,19,Jits_Linear_5,2,1,48,115,2095115220
88,18,19,Jits_Linear_5,3,5,80,127,2095134952
88,18,19,Jits_Linear_5,0,5,56,103,2095525348
88,18,19,Jits_Linear_5,1,5,80,127,2095584772
88,18,19,Jits_Linear_5,2,5,63,98,2095615272
88,18,19,Jits_Linear_5,3,1,48,117,2095616612
88,18,19,Jits_Linear_5,0,5,56,103,2096024920
88,18,19,Jits_Linear_5,1,5,63,98,2096035044
88,18,19,Jits_Linear_5,2,5,80,127,2096075132
88,18,19,Jits_Linear_5,3,1,48,108,2096089860
88,18,19,Jits_Linear_5,0,5,63,98,2096514672
88,18,19,Jits_Linear_5,1,1,48,89,2096561912
88,18,19,Jits_Linear_5,2,5,80,127,2096595732
88,18,19,Jits_Linear_5,3,5,56,103,2096604436
88,18,19,Jits_Linear_5,0,5,63,98,2097065536
88,18,19,Jits_Linear_5,1,1,48,127,2097081308
88,18,19,Jits_Linear_5,2,5,56,103,2097105244
88,18,19,Jits_Linear_5,3,5,80,127,2097108536
88,18,19,Jits_Linear_5,0,5,56,103,2097524972
88,18,19,Jits_Linear_5,1,5,63,98,2097535640
88,18,19,Jits_Linear_5,2,5,80,127,2097575136
88,18,19,Jits_Linear_5,3,1,48,127,2097578776
88,18,19,Jits_Linear_5,4,1,48,40,2097644912
88,18,19,Jits_Linear_5,0,5,56,103,2098014684
88,18,19,Jits_Linear_5,1,5,63,98,2098017752
88,18,19,Jits_Linear_5,2,5,80,127,2098035072
88,18,19,Jits_Linear_5,3,1,48,127,2098084368
88,18,19,Jits_Linear_5,0,5,80,127,2098534836
88,18,19,Jits_Linear_5,1,5,56,103,2098545036
88,18,19,Jits_Linear_5,2,1,48,122,2098579192
88,18,19,Jits_Linear_5,3,5,63,98,2098614660
88,18,19,Jits_Linear_5,0,5,63,98,2099034476
88,18,19,Jits_Linear_5,1,5,56,103,2099055008
88,18,19,Jits_Linear_5,2,1,48,123,2099070660
88,18,19,Jits_Linear_5,3,5,80,127,2099134824
88,18,19,Jits_Linear_5,0,5,56,103,2099554628
88,18,19,Jits_Linear_5,1,1,48,126,2099572720
88,18,19,Jits_Linear_5,2,5,80,127,2099594512
88,18,19,Jits_Linear_5,3,5,63,98,2099604784
88,18,19,Jits_Linear_5,0,5,80,127,2100055680
88,18,19,Jits_Linear_5,1,1,48,122,2100063080
88,18,19,Jits_Linear_5,2,5,63,98,2100084980
88,18,19,Jits_Linear_5,3,5,56,103,2100125092
88,18,19,Jits_Linear_5,0,1,48,97,2100541788
88,18,19,Jits_Linear_5,1,5,56,103,2100584832
88,18,19,Jits_Linear_5,2,5,63,98,2100614532
88,18,19,Jits_Linear_5,3,5,80,127,2100664796
88,18,19,Jits_Linear_5,0,1,48,100,2101087340
88,18,19,Jits_Linear_5,1,5,80,127,2101094708
88,18,19,Jits_Linear_5,2,5,56,103,2101134748
88,18,19,Jits_Linear_5,3,5,63,98,2101145096
88,18,19,Jits_Linear_5,0,5,80,127,2101594724
88,18,19,Jits_Linear_5,1,1,48,93,2101603624
88,18,19,Jits_Linear_5,2,5,63,98,2101634608
88,18,19,Jits_Linear_5,3,5,56,103,2101695584
88,18,19,Jits_Linear_5,0,5,56,103,2102114656
88,18,19,Jits_Linear_5,1,5,80,127,2102124852
88,18,19,Jits_Linear_5,2,1,48,119,2102134796
88,18,19,Jits_Linear_5,3,5,63,98,2102204740
88,18,19,Jits_Linear_5,0,5,80,127,2102634816
88,18,19,Jits_Linear_5,1,1,48,119,2102637560
88,18,19,Jits_Linear_5,2,5,63,98,2102695376
88,18,19,Jits_Linear_5,3,5,56,103,2102724904
88,18,19,Jits_Linear_5,0,1,48,122,2103141752
88,18,19,Jits_Linear_5,1,5,56,103,2103155200
88,18,19,Jits_Linear_5,2,5,80,127,2103214572
88,18,19,Jits_Linear_5,3,5,63,98,2103255616
88,18,19,Jits_Linear_5,0,1,48,101,2103654140
88,18,19,Jits_Linear_5,1,5,56,103,2103734660
88,18,19,Jits_Linear_5,2,5,63,98,2103744852
88,18,19,Jits_Linear_5,3,5,80,127,2103748516
88,18,19,Jits_Linear_5,0,1,48,104,2104194256
88,18,19,Jits_Linear_5,1,5,80,127,2104214956
88,18,19,Jits_Linear_5,2,5,63,98,2104305008
88,18,19,Jits_Linear_5,3,5,56,103,2104315428
88,18,19,Jits_Linear_5,0,5,56,103,2104745604
88,18,19,Jits_Linear_5,1,5,63,98,2104748708
88,18,19,Jits_Linear_5,2,5,80,127,2104751752
88,18,19,Jits_Linear_5,3,1,48,123,2104757880
88,18,19,Jits_Linear_5,0,1,48,127,2105282968
88,18,19,Jits_Linear_5,1,5,80,127,2105295648
88,18,19,Jits_Linear_5,2,5,63,98,2105345480
88,18,19,Jits_Linear_5,3,5,56,103,2105375080
88,18,19,Jits_Linear_5,0,5,56,103,2105805108
88,18,19,Jits_Linear_5,1,5,80,127,2105815680
88,18,19,Jits_Linear_5,2,1,48,113,2105828912
88,18,19,Jits_Linear_5,3,5,63,98,2105885056
88,18,19,Jits_Linear_5,0,1,48,113,2106334980
88,18,19,Jits_Linear_5,1,5,56,103,2106344896
88,18,19,Jits_Linear_5,2,5,63,98,2106365580
88,18,19,Jits_Linear_5,3,5,80,127,2106424552
88,18,19,Jits_Linear_5,0,1,48,122,2106840824
88,18,19,Jits_Linear_5,1,5,80,127,2106875472
88,18,19,Jits_Linear_5,2,5,63,98,2106944844
88,18,19,Jits_Linear_5,3,5,56,103,2106965452
88,18,19,Jits_Linear_5,0,1,48,118,2107421152
88,18,19,Jits_Linear_5,1,5,80,127,2107435644
88,18,19,Jits_Linear_5,2,5,56,103,2107444720
88,18,19,Jits_Linear_5,3,5,63,98,2107454916
88,18,19,Jits_Linear_5,0,1,48,113,2107952272
88,18,19,Jits_Linear_5,1,5,80,127,2107964728
88,18,19,Jits_Linear_5,2,5,56,103,2107985560
88,18,19,Jits_Linear_5,3,5,63,98,2108054880
88,18,19,Jits_Linear_5,0,1,48,119,2108484560
88,18,19,Jits_Linear_5,1,5,56,103,2108514556
88,18,19,Jits_Linear_5,2,5,80,127,2108545452
88,18,19,Jits_Linear_5,3,5,63,98,2108564792
88,18,19,Jits_Linear_5,0,1,48,119,2109024804
88,18,19,Jits_Linear_5,1,5,63,98,2109055568
88,18,19,Jits_Linear_5,2,5,56,103,2109114692
88,18,19,Jits_Linear_5,3,5,80,127,2109144428
88,18,19,Jits_Linear_5,0,1,48,123,2109532536
88,18,19,Jits_Linear_5,1,5,63,98,2109595140
88,18,19,Jits_Linear_5,2,5,80,127,2109598432
88,18,19,Jits_Linear_5,3,5,56,103,2109685036
88,18,19,Jits_Linear_5,0,1,48,127,2110070280
88,18,19,Jits_Linear_5,1,5,56,103,2110165476
88,18,19,Jits_Linear_5,2,5,63,98,2110195156
88,18,19,Jits_Linear_5,3,5,80,127,2110234872
88,18,19,Jits_Linear_5,0,1,48,101,2110579960
88,18,19,Jits_Linear_5,1,5,63,98,2110715316
88,18,19,Jits_Linear_5,2,5,56,103,2110755408
88,18,19,Jits_Linear_5,3,5,80,127,2110774744
88,18,19,Jits_Linear_5,0,1,48,127,2111089336
88,18,19,Jits_Linear_5,1,5,63,98,2111275344
88,18,19,Jits_Linear_5,2,5,56,103,2111315656
88,18,19,Jits_Linear_5,3,5,80,127,2111324432
88,18,19,Jits_Linear_5,0,1,48,127,2111616276
88,18,19,Jits_Linear_5,1,5,80,127,2111804872
88,18,19,Jits_Linear_5,2,5,63,98,2111874508
88,18,19,Jits_Linear_5,3,5,56,103,2111895116
88,18,19,Jits_Linear_5,0,1,48,127,2112133752
88,18,19,Jits_Linear_5,1,5,56,103,2112354616
88,18,19,Jits_Linear_5,2,5,80,127,2112375624
88,18,19,Jits_Linear_5,3,5,63,98,2112415192
88,18,19,Jits_Linear_5,4,1,48,127,2112620496
88,18,19,Jits_Linear_5,0,5,63,98,2112935492
88,18,19,Jits_Linear_5,1,5,80,127,2112954832
88,18,19,Jits_Linear_5,2,5,56,103,2112994548
88,18,19,Jits_Linear_5,3,1,48,127,2113137084
88,18,19,Jits_Linear_5,0,5,63,98,2113495572
88,18,19,Jits_Linear_5,1,5,56,103,2113514988
88,18,19,Jits_Linear_5,2,5,80,127,2113525184
88,18,19,Jits_Linear_5,3,1,48,98,2113633940
88,18,19,Jits_Linear_5,0,5,80,127,2114054596
88,18,19,Jits_Linear_5,1,5,56,103,2114074980
88,18,19,Jits_Linear_5,2,5,63,98,2114104880
88,18,19,Jits_Linear_5,3,1,48,100,2114140436
88,18,19,Jits_Linear_5,0,1,48,120,2114637732
88,18,19,Jits_Linear_5,1,5,56,103,2114694500
88,18,19,Jits_Linear_5,2,5,80,127,2114697496
88,18,19,Jits_Linear_5,3,5,63,98,2114714964
88,18,19,Jits_Linear_5,0,1,48,120,2115175348
88,18,19,Jits_Linear_5,1,5,63,98,2115184968
88,18,19,Jits_Linear_5,2,5,56,103,2115214668
88,18,19,Jits_Linear_5,3,5,80,127,2115275640
88,18,19,Jits_Linear_5,0,1,48,103,2115710512
88,18,19,Jits_Linear_5,1,5,63,98,2115835284
88,18,19,Jits_Linear_5,2,5,56,103,2115844436
88,18,19,Jits_Linear_5,3,5,80,127,2115854628
88,18,19,Jits_Linear_5,0,1,48,118,2116281332
88,18,19,Jits_Linear_5,1,5,56,103,2116354348
88,18,19,Jits_Linear_5,2,5,80,127,2116385428
88,18,19,Jits_Linear_5,3,5,63,98,2116395476
88,18,19,Jits_Linear_5,0,1,48,104,2116866248
88,18,19,Jits_Linear_5,1,5,63,98,2116964780
88,18,19,Jits_Linear_5,2,5,56,103,2116975052
88,18,19,Jits_Linear_5,3,5,80,127,2116994492
88,18,19,Jits_Linear_5,0,1,48,119,2117459608
88,18,19,Jits_Linear_5,1,5,56,103,2117464508
88,18,19,Jits_Linear_5,2,5,63,98,2117524928
88,18,19,Jits_Linear_5,3,5,80,127,2117528364
88,18,19,Jits_Linear_5,0,1,48,92,2118040172
88,18,19,Jits_Linear_5,1,5,80,127,2118074744
88,18,19,Jits_Linear_5,2,5,56,103,2118085164
88,18,19,Jits_Linear_5,3,5,63,98,2118154536
88,18,19,Jits_Linear_5,0,1,48,115,2118610360
88,18,19,Jits_Linear_5,1,5,80,127,2118645304
88,18,19,Jits_Linear_5,2,5,56,103,2118714676
88,18,19,Jits_Linear_5,3,5,63,98,2118725096
88,18,19,Jits_Linear_5,0,1,48,92,2119201252
88,18,19,Jits_Linear_5,1,5,63,98,2119264600
88,18,19,Jits_Linear_5,2,5,56,103,2119274944
88,18,19,Jits_Linear_5,3,5,80,127,2119295412
88,18,19,Jits_Linear_5,0,5,80,127,2119795080
88,18,19,Jits_Linear_5,1,1,48,127,2119801892
88,18,19,Jits_Linear_5,2,5,63,98,2119854596
88,18,19,Jits_Linear_5,3,5,56,103,2119896012
88,18,19,Jits_Linear_5,0,1,48,119,2120388964
88,18,19,Jits_Linear_5,1,5,56,103,2120424880
88,18,19,Jits_Linear_5,2,5,63,98,2120435152
88,18,19,Jits_Linear_5,3,5,80,127,2120475088
88,18,19,Jits_Linear_5,0,5,56,103,2120974720
88,18,19,Jits_Linear_5,1,1,48,104,2120977388
88,18,19,Jits_Linear_5,2,5,80,127,2121005364
88,18,19,Jits_Linear_5,3,5,63,98,2121054668
88,18,19,Jits_Linear_5,0,1,48,123,2121543624
88,18,19,Jits_Linear_5,1,5,56,103,2121604440
88,18,19,Jits_Linear_5,2,5,63,98,2121645484
88,18,19,Jits_Linear_5,3,5,80,127,2121648776
88,18,19,Jits_Linear_5,0,1,48,127,2122122312
88,18,19,Jits_Linear_5,1,5,56,103,2122195248
88,18,19,Jits_Linear_5,2,5,63,98,2122204548
88,18,19,Jits_Linear_5,3,5,80,127,2122225140
88,18,19,Jits_Linear_5,0,1,48,113,2122705948
88,18,19,Jits_Linear_5,1,5,56,103,2122745152
88,18,19,Jits_Linear_5,2,5,80,127,2122748148
88,18,19,Jits_Linear_5,3,5,63,98,2122785168
88,18,19,Jits_Linear_5,0,1,48,84,2123295928
88,18,19,Jits_Linear_5,1,5,63,98,2123375072
88,18,19,Jits_Linear_5,2,5,56,103,2123404612
88,18,19,Jits_Linear_5,3,5,80,127,2123425068
88,18,19,Jits_Linear_5,0,1,48,124,2123901940
88,18,19,Jits_Linear_5,1,5,80,127,2123945360
88,18,19,Jits_Linear_5,2,5,56,103,2123954660
88,18,19,Jits_Linear_5,3,5,63,98,2123965080
88,18,19,Jits_Linear_5,0,1,48,84,2124489608
88,18,19,Jits_Linear_5,1,5,56,103,2124545464
88,18,19,Jits_Linear_5,2,5,80,127,2124586288
88,18,19,Jits_Linear_5,3,5,63,98,2124615140
88,18,19,Jits_Linear_5,0,1,48,118,2125102964
88,18,19,Jits_Linear_5,1,5,63,98,2125154536
88,18,19,Jits_Linear_5,2,5,80,127,2125164956
88,18,19,Jits_Linear_5,3,5,56,103,2125175028
88,18,19,Jits_Linear_5,0,1,48,109,2125696424
88,18,19,Jits_Linear_5,1,5,56,103,2125744476
88,18,19,Jits_Linear_5,2,5,63,98,2125815268
88,18,19,Jits_Linear_5,3,5,80,127,2125825316
88,18,19,Jits_Linear_5,0,1,48,112,2126256368
88,18,19,Jits_Linear_5,1,5,80,127,2126354904
88,18,19,Jits_Linear_5,2,5,56,103,2126365176
88,18,19,Jits_Linear_5,3,5,63,98,2126415304
88,18,19,Jits_Linear_5,0,1,48,127,2126847620
88,18,19,Jits_Linear_5,1,5,80,127,2126975332
88,18,19,Jits_Linear_5,2,5,56,103,2127034604
88,18,19,Jits_Linear_5,3,5,63,98,2127064352
88,18,19,Jits_Linear_5,0,1,48,94,2127510160
88,18,19,Jits_Linear_5,1,5,56,103,2127584668
88,18,19,Jits_Linear_5,2,5,80,127,2127587660
88,18,19,Jits_Linear_5,3,5,63,98,2127624444
88,18,19,Jits_Linear_5,0,1,48,76,2128142612
88,18,19,Jits_Linear_5,1,5,56,103,2128224524
88,18,19,Jits_Linear_5,2,5,63,98,2128255336
88,18,19,Jits_Linear_5,3,5,80,127,2128264560
88,18,19,Jits_Linear_5,0,1,48,89,2128774708
88,18,19,Jits_Linear_5,1,5,63,98,2128845236
88,18,19,Jits_Linear_5,2,5,80,127,2128855360
88,18,19,Jits_Linear_5,3,5,56,103,2128864584
88,18,19,Jits_Linear_5,0,5,80,127,2129405240
88,18,19,Jits_Linear_5,1,1,48,85,2129428516
88,18,19,Jits_Linear_5,2,5,56,103,2129454540
88,18,19,Jits_Linear_5,3,5,63,98,2129457756
88,18,19,Jits_Linear_5,0,5,56,103,2130054624
88,18,19,Jits_Linear_5,1,1,48,99,2130055516
88,18,19,Jits_Linear_5,2,5,80,127,2130074932
88,18,19,Jits_Linear_5,3,5,63,98,2130085348
88,18,19,Jits_Linear_5,0,5,63,98,2130654716
88,18,19,Jits_Linear_5,1,1,48,88,2130671612
88,18,19,Jits_Linear_5,2,5,56,103,2130685212
88,18,19,Jits_Linear_5,3,5,80,127,2130704920
88,18,19,Jits_Linear_5,0,1,48,114,2131275516
88,18,19,Jits_Linear_5,1,5,56,103,2131285432
88,18,19,Jits_Linear_5,2,5,80,127,2131294508
88,18,19,Jits_Linear_5,3,5,63,98,2131365188
88,18,19,Jits_Linear_5,0,5,63,98,2131894636
88,18,19,Jits_Linear_5,1,1,48,127,2131900220
88,18,19,Jits_Linear_5,2,5,80,127,2131934568
88,18,19,Jits_Linear_5,3,5,56,103,2131974508
88,18,19,Jits_Linear_5,0,1,48,99,2132504064
88,18,19,Jits_Linear_5,1,5,56,103,2132534580
88,18,19,Jits_Linear_5,2,5,63,98,2132545076
88,18,19,Jits_Linear_5,3,5,80,127,2132565236
88,18,19,Jits_Linear_5,0,1,48,110,2133093728
88,18,19,Jits_Linear_5,1,5,63,98,2133205320
88,18,19,Jits_Linear_5,2,5,80,127,2133225104
88,18,19,Jits_Linear_5,3,5,56,103,2133245268
88,18,19,Jits_Linear_5,0,1,48,102,2133724208
88,18,19,Jits_Linear_5,1,5,56,103,2133774652
88,18,19,Jits_Linear_5,2,5,80,127,2133854440
88,18,19,Jits_Linear_5,3,5,63,98,2133864784
88,18,19,Jits_Linear_5,0,1,48,86,2134398060
88,18,19,Jits_Linear_5,1,5,80,127,2134445512
88,18,19,Jits_Linear_5,2,5,63,98,2134454588
88,18,19,Jits_Linear_5,3,5,56,103,2134485460
88,18,19,Jits_Linear_5,0,1,48,80,2135027360
88,18,19,Jits_Linear_5,1,5,63,98,2135035180
88,18,19,Jits_Linear_5,2,5,80,127,2135075196
88,18,19,Jits_Linear_5,3,5,56,103,2135134452
88,18,19,Jits_Linear_5,0,5,63,98,2135675228
88,18,19,Jits_Linear_5,1,1,48,106,2135692892
88,18,19,Jits_Linear_5,2,5,56,103,2135725352
88,18,19,Jits_Linear_5,3,5,80,127,2135755104
88,18,19,Jits_Linear_5,0,5,80,127,2136324472
88,18,19,Jits_Linear_5,1,5,63,98,2136334964
88,18,19,Jits_Linear_5,2,1,48,66,2136337640
88,18,19,Jits_Linear_5,3,5,56,103,2136405240
88,18,19,Jits_Linear_5,0,1,48,99,2136977080
88,18,19,Jits_Linear_5,1,5,80,127,2137035100
88,18,19,Jits_Linear_5,2,5,56,103,2137045292
88,18,19,Jits_Linear_5,3,5,63,98,2137048360
88,18,19,Jits_Linear_5,0,5,56,103,2137614800
88,18,19,Jits_Linear_5,1,5,80,127,2137635112
88,18,19,Jits_Linear_5,2,5,63,98,2137645384
88,18,19,Jits_Linear_5,3,1,48,127,2137656292
88,18,19,Jits_Linear_5,0,1,48,89,2138238568
88,18,19,Jits_Linear_5,1,5,63,98,2138264896
88,18,19,Jits_Linear_5,2,5,56,103,2138304912
88,18,19,Jits_Linear_5,3,5,80,127,2138325220
88,18,19,Jits_Linear_5,4,1,48,17,2138337468
88,18,19,Jits_Linear_5,0,5,63,98,2138915160
88,18,19,Jits_Linear_5,1,1,48,87,2138923160
88,18,19,Jits_Linear_5,2,5,56,103,2138974868
88,18,19,Jits_Linear_5,3,5,80,127,2138977940
88,18,19,Jits_Linear_5,0,1,48,85,2139520392
88,18,19,Jits_Linear_5,1,5,56,103,2139524324
88,18,19,Jits_Linear_5,2,5,80,127,2139545080
88,18,19,Jits_Linear_5,3,5,63,98,2139584872
88,18,19,Jits_Linear_5,0,1,48,106,2140179208
88,18,19,Jits_Linear_5,1,5,56,103,2140205316
88,18,19,Jits_Linear_5,2,5,63,98,2140225024
88,18,19,Jits_Linear_5,3,5,80,127,2140235224
88,18,19,Jits_Linear_5,0,1,48,102,2140788304
88,18,19,Jits_Linear_5,1,1,38,20,2140799112
88,18,19,Jits_Linear_5,2,5,80,127,2140825064
88,18,19,Jits_Linear_5,3,5,56,103,2140854888
88,18,19,Jits_Linear_5,4,5,63,98,2140894636
88,18,19,Jits_Linear_5,0,1,48,104,2141468480
88,18,19,Jits_Linear_5,1,5,80,127,2141485520
88,18,19,Jits_Linear_5,2,5,56,103,2141504856
88,18,19,Jits_Linear_5,3,5,63,98,2141565408
88,18,19,Jits_Linear_5,0,1,48,89,2142132832
88,18,19,Jits_Linear_5,1,5,56,103,2142144912
88,18,19,Jits_Linear_5,2,5,80,127,2142165224
88,18,19,Jits_Linear_5,3,5,63,98,2142225224
88,18,19,Jits_Linear_5,0,1,48,108,2142773592
88,18,19,Jits_Linear_5,1,5,80,127,2142784776
88,18,19,Jits_Linear_5,2,5,56,103,2142795048
88,18,19,Jits_Linear_5,3,5,63,98,2142834988
88,18,19,Jits_Linear_5,0,1,48,114,2143398804
88,18,19,Jits_Linear_5,1,5,63,98,2143445292
88,18,19,Jits_Linear_5,2,5,56,103,2143485148
88,18,19,Jits_Linear_5,3,5,80,127,2143488296
88,18,19,Jits_Linear_5,0,1,48,88,2144039956
88,18,19,Jits_Linear_5,1,5,63,98,2144125348
88,18,19,Jits_Linear_5,2,5,80,127,2144165272
88,18,19,Jits_Linear_5,3,5,56,103,2144194800
88,18,19,Jits_Linear_5,0,1,48,84,2144743836
88,18,19,Jits_Linear_5,1,5,56,103,2144774728
88,18,19,Jits_Linear_5,2,5,63,98,2144784852
88,18,19,Jits_Linear_5,3,5,80,127,2144814376
88,18,19,Jits_Linear_5,0,1,48,105,2145426272
88,18,19,Jits_Linear_5,1,5,80,127,2145434992
88,18,19,Jits_Linear_5,2,5,63,98,2145504824
88,18,19,Jits_Linear_5,3,5,56,103,2145514872
88,18,19,Jits_Linear_5,0,1,48,112,2146062724
88,18,19,Jits_Linear_5,1,5,63,98,2146104848
88,18,19,Jits_Linear_5,2,5,56,103,2146175364
88,18,19,Jits_Linear_5,3,5,80,127,2146184740
88,18,19,Jits_Linear_5,0,5,63,98,2146775340
88,18,19,Jits_Linear_5,1,5,56,103,2146794976
88,18,19,Jits_Linear_5,2,1,48,87,2146795940
88,18,19,Jits_Linear_5,3,5,80,127,2146834684
88,18,19,Jits_Linear_5,0,5,56,103,2147455308
88,18,19,Jits_Linear_5,1,5,63,98,2147464680
88,18,19,Jits_Linear_5,2,1,48,108,2147485184
88,18,19,Jits_Linear_5,3,5,80,127,2147544692
88,18,19,Jits_Linear_5,0,1,48,118,2148099952
88,18,19,Jits_Linear_5,1,5,63,98,2148114892
88,18,19,Jits_Linear_5,2,5,56,103,2148144424
88,18,19,Jits_Linear_5,3,5,80,127,2148184436
88,18,19,Jits_Linear_5,0,1,48,116,2148739340
88,18,19,Jits_Linear_5,1,5,56,103,2148784624
88,18,19,Jits_Linear_5,2,5,63,98,2148824420
88,18,19,Jits_Linear_5,3,5,80,127,2148865540
88,18,19,Jits_Linear_5,0,1,48,115,2149405756
88,18,19,Jits_Linear_5,1,5,80,127,2149464520
88,18,19,Jits_Linear_5,2,5,56,103,2149545304
88,18,19,Jits_Linear_5,3,5,63,98,2149554752
88,18,19,Jits_Linear_5,0,1,48,89,2150086424
88,18,19,Jits_Linear_5,1,5,56,103,2150185336
88,18,19,Jits_Linear_5,2,5,63,98,2150188256
88,18,19,Jits_Linear_5,3,5,80,127,2150194708
88,18,19,Jits_Linear_5,0,1,48,86,2150776648
88,18,19,Jits_Linear_5,1,5,56,103,2150884780
88,18,19,Jits_Linear_5,2,5,63,98,2150905168
88,18,19,Jits_Linear_5,3,5,80,127,2150914392
88,18,19,Jits_Linear_5,0,1,48,57,2151510912
88,18,19,Jits_Linear_5,1,5,63,98,2151524808
88,18,19,Jits_Linear_5,2,5,80,127,2151534932
88,18,19,Jits_Linear_5,3,5,56,103,2151554516
88,18,19,Jits_Linear_5,0,1,48,80,2152177704
88,18,19,Jits_Linear_5,1,5,63,98,2152214892
88,18,19,Jits_Linear_5,2,5,56,103,2152294752
88,18,19,Jits_Linear_5,3,5,80,127,2152297892
88,18,19,Jits_Linear_5,0,1,48,119,2152827624
88,18,19,Jits_Linear_5,1,5,63,98,2152904976
88,18,19,Jits_Linear_5,2,5,56,103,2152924672
88,18,19,Jits_Linear_5,3,5,80,127,2152955320
88,18,19,Jits_Linear_5,0,1,48,95,2153568436
88,18,19,Jits_Linear_5,1,5,56,103,2153595232
88,18,19,Jits_Linear_5,2,5,63,98,2153614796
88,18,19,Jits_Linear_5,3,5,80,127,2153624920
88,18,19,Jits_Linear_5,0,1,48,91,2154222712
88,18,19,Jits_Linear_5,1,5,56,103,2154315112
88,18,19,Jits_Linear_5,2,1,48,21,2154332144
88,18,19,Jits_Linear_5,3,5,63,98,2154344768
88,18,19,Jits_Linear_5,4,5,80,127,2154347988
88,18,19,Jits_Linear_5,0,1,48,97,2154926624
88,18,19,Jits_Linear_5,1,5,56,103,2154955044
88,18,19,Jits_Linear_5,2,5,63,98,2154995132
88,18,19,Jits_Linear_5,3,5,80,127,2155054688
88,18,19,Jits_Linear_5,0,1,48,54,2155629116
88,18,19,Jits_Linear_5,1,5,56,103,2155664684
88,18,19,Jits_Linear_5,2,5,63,98,2155674880
88,18,19,Jits_Linear_5,3,1,48,27,2155705636
88,18,19,Jits_Linear_5,4,5,80,127,2155735552
88,18,19,Jits_Linear_5,0,1,48,123,2156317452
88,18,19,Jits_Linear_5,1,5,56,103,2156365428
88,18,19,Jits_Linear_5,2,5,80,127,2156384768
88,18,19,Jits_Linear_5,3,5,63,98,2156415292
88,18,19,Jits_Linear_5,0,1,48,114,2157028688
88,18,19,Jits_Linear_5,1,5,80,127,2157064756
88,18,19,Jits_Linear_5,2,5,56,103,2157074804
88,18,19,Jits_Linear_5,3,5,63,98,2157095264
88,18,19,Jits_Linear_5,0,1,48,70,2157716176
88,18,19,Jits_Linear_5,1,5,63,98,2157754716
88,18,19,Jits_Linear_5,2,5,80,127,2157834500
88,18,19,Jits_Linear_5,3,5,56,103,2157844844
88,18,19,Jits_Linear_5,0,1,48,73,2158464188
88,18,19,Jits_Linear_5,1,5,80,127,2158514632
88,18,19,Jits_Linear_5,2,5,56,103,2158535016
88,18,19,Jits_Linear_5,3,5,63,98,2158538084
88,18,19,Jits_Linear_5,0,1,48,84,2159179704
88,18,19,Jits_Linear_5,1,5,63,98,2159194644
88,18,19,Jits_Linear_5,2,5,80,127,2159197788
88,18,19,Jits_Linear_5,3,5,56,103,2159254912
88,18,19,Jits_Linear_5,0,1,48,114,2159847384
88,18,19,Jits_Linear_5,1,5,56,103,2159884652
88,18,19,Jits_Linear_5,2,5,80,127,2159894848
88,18,19,Jits_Linear_5,3,5,63,98,2159934864
88,18,19,Jits_Linear_5,0,1,48,112,2160554732
88,18,19,Jits_Linear_5,1,5,56,103,2160574760
88,18,19,Jits_Linear_5,2,5,63,98,2160635380
88,18,19,Jits_Linear_5,3,5,80,127,2160645932
88,18,19,Jits_Linear_5,0,1,48,76,2161205704
88,18,19,Jits_Linear_5,1,5,63,98,2161294692
88,18,19,Jits_Linear_5,2,5,80,127,2161334696
88,18,19,Jits_Linear_5,3,5,56,103,2161374632
88,18,19,Jits_Linear_5,0,1,48,60,2161976256
88,18,19,Jits_Linear_5,1,5,56,103,2162005504
88,18,19,Jits_Linear_5,2,5,63,98,2162085312
88,18,19,Jits_Linear_5,3,5,80,127,2162088604
88,18,19,Jits_Linear_5,0,1,48,49,2162690980
88,18,19,Jits_Linear_5,1,5,80,127,2162775532
88,18,19,Jits_Linear_5,2,5,56,103,2162804988
88,18,19,Jits_Linear_5,3,5,63,98,2162807988
88,18,19,Jits_Linear_5,0,1,48,96,2163430812
88,18,19,Jits_Linear_5,1,5,56,103,2163455416
88,18,19,Jits_Linear_5,2,5,80,127,2163474832
88,18,19,Jits_Linear_5,3,5,63,98,2163514696
88,18,19,Jits_Linear_5,0,5,80,127,2164154724
88,18,19,Jits_Linear_5,1,1,48,93,2164161732
88,18,19,Jits_Linear_5,2,5,63,98,2164175176
88,18,19,Jits_Linear_5,3,5,56,103,2164234748
88,18,19,Jits_Linear_5,0,1,48,105,2164872520
88,18,19,Jits_Linear_5,1,5,63,98,2164884900
88,18,19,Jits_Linear_5,2,5,56,103,2164895172
88,18,19,Jits_Linear_5,3,5,80,127,2164945372
88,18,19,Jits_Linear_5,0,1,48,122,2165586492
88,18,19,Jits_Linear_5,1,5,56,103,2165594464
88,18,19,Jits_Linear_5,2,5,63,98,2165614924
88,18,19,Jits_Linear_5,3,5,80,127,2165625368
88,18,19,Jits_Linear_5,0,1,48,102,2166263944
88,18,19,Jits_Linear_5,1,5,56,103,2166315436
88,18,19,Jits_Linear_5,2,5,63,98,2166318576
88,18,19,Jits_Linear_5,3,5,80,127,2166334848
88,18,19,Jits_Linear_5,0,1,48,89,2166975912
88,18,19,Jits_Linear_5,1,5,63,98,2167085388
88,18,19,Jits_Linear_5,2,5,56,103,2167115360
88,18,19,Jits_Linear_5,3,5,80,127,2167144816
88,18,19,Jits_Linear_5,0,5,80,127,2167774528
88,18,19,Jits_Linear_5,1,1,48,70,2167849120
88,18,19,Jits_Linear_5,2,5,56,103,2167864656
88,18,19,Jits_Linear_5,3,5,63,98,2167867648
88,18,19,Jits_Linear_5,0,5,56,103,2168504700
88,18,19,Jits_Linear_5,1,5,80,127,2168507544
88,18,19,Jits_Linear_5,2,1,48,123,2168515912
88,18,19,Jits_Linear_5,3,5,63,98,2168584488
88,18,19,Jits_Linear_5,0,1,48,107,2169200052
88,18,19,Jits_Linear_5,1,5,80,127,2169234800
88,18,19,Jits_Linear_5,2,5,63,98,2169295548
88,18,19,Jits_Linear_5,3,5,56,103,2169324780
88,18,19,Jits_Linear_5,0,1,48,112,2169937296
88,18,19,Jits_Linear_5,1,5,63,98,2169975184
88,18,19,Jits_Linear_5,2,5,80,127,2169985604
88,18,19,Jits_Linear_5,3,5,56,103,2170054972
88,18,19,Jits_Linear_5,0,1,48,104,2170657296
88,18,19,Jits_Linear_5,1,5,56,103,2170724756
88,18,19,Jits_Linear_5,2,5,80,127,2170754384
88,18,19,Jits_Linear_5,3,5,63,98,2170804720
88,18,19,Jits_Linear_5,0,1,48,104,2171375424
88,18,19,Jits_Linear_5,1,5,63,98,2171505060
88,18,19,Jits_Linear_5,2,5,56,103,2171534684
88,18,19,Jits_Linear_5,3,5,80,127,2171537752
88,18,19,Jits_Linear_5,0,1,48,76,2172165852
88,18,19,Jits_Linear_5,1,5,63,98,2172245448
88,18,19,Jits_Linear_5,2,5,80,127,2172264700
88,18,19,Jits_Linear_5,3,5,56,103,2172275044
88,18,19,Jits_Linear_5,0,1,48,62,2172905236
88,18,19,Jits_Linear_5,1,5,56,103,2172995024
88,18,19,Jits_Linear_5,2,5,63,98,2172997792
88,18,19,Jits_Linear_5,3,5,80,127,2173015540
88,18,19,Jits_Linear_5,0,1,48,93,2173615020
88,18,19,Jits_Linear_5,1,5,56,103,2173695368
88,18,19,Jits_Linear_5,2,5,63,98,2173704444
88,18,19,Jits_Linear_5,3,5,80,127,2173735600
88,18,19,Jits_Linear_5,0,1,48,74,2174331096
88,18,19,Jits_Linear_5,1,5,63,98,2174465528
88,18,19,Jits_Linear_5,2,5,80,127,2174484720
88,18,19,Jits_Linear_5,3,5,56,103,2174524656
88,18,19,Jits_Linear_5,0,1,48,76,2175147956
88,18,19,Jits_Linear_5,1,5,56,103,2175244640
88,18,19,Jits_Linear_5,2,5,63,98,2175284488
88,18,19,Jits_Linear_5,3,5,80,127,2175287932
88,18,19,Jits_Linear_5,0,1,48,85,2175926752
88,18,19,Jits_Linear_5,1,5,80,127,2175934796
88,18,19,Jits_Linear_5,2,5,56,103,2175974960
88,18,19,Jits_Linear_5,3,5,63,98,2176024852
88,18,19,Jits_Linear_5,0,1,48,111,2176624232
88,18,19,Jits_Linear_5,1,5,56,103,2176744672
88,18,19,Jits_Linear_5,2,5,80,127,2176755388
88,18,19,Jits_Linear_5,3,5,63,98,2176784768
88,18,19,Jits_Linear_5,0,5,56,103,2177445364
88,18,19,Jits_Linear_5,1,1,48,84,2177446332
88,18,19,Jits_Linear_5,2,5,80,127,2177485148
88,18,19,Jits_Linear_5,3,5,63,98,2177535352
88,18,19,Jits_Linear_5,0,1,48,71,2178205064
88,18,19,Jits_Linear_5,1,5,56,103,2178206476
88,18,19,Jits_Linear_5,2,5,80,127,2178245372
88,18,19,Jits_Linear_5,3,5,63,98,2178295128
88,18,19,Jits_Linear_5,0,1,48,89,2178946292
88,18,19,Jits_Linear_5,1,5,80,127,2178954632
88,18,19,Jits_Linear_5,2,5,63,98,2179034432
88,18,19,Jits_Linear_5,3,5,56,103,2179044852
88,18,19,Jits_Linear_5,0,1,48,83,2179744568
88,18,19,Jits_Linear_5,1,5,80,127,2179764672
88,18,19,Jits_Linear_5,2,5,56,103,2179774792
88,18,19,Jits_Linear_5,3,5,63,98,2179795180
88,18,19,Jits_Linear_5,0,5,63,98,2180494772
88,18,19,Jits_Linear_5,1,1,48,80,2180538124
88,18,19,Jits_Linear_5,2,5,56,103,2180565348
88,18,19,Jits_Linear_5,3,5,80,127,2180568488
88,18,19,Jits_Linear_5,0,5,80,127,2181254456
88,18,19,Jits_Linear_5,1,1,48,91,2181289560
88,18,19,Jits_Linear_5,2,5,63,98,2181304580
88,18,19,Jits_Linear_5,3,5,56,103,2181344516
88,18,19,Jits_Linear_5,0,1,48,116,2182042208
88,18,19,Jits_Linear_5,1,5,63,98,2182064572
88,18,19,Jits_Linear_5,2,5,56,103,2182104512
88,18,19,Jits_Linear_5,3,5,80,127,2182114560
88,18,19,Jits_Linear_5,0,1,48,93,2182787476
88,18,19,Jits_Linear_5,1,5,63,98,2182825336
88,18,19,Jits_Linear_5,2,5,56,103,2182844676
88,18,19,Jits_Linear_5,3,5,80,127,2182865208
88,18,19,Jits_Linear_5,0,5,80,127,2183564576
88,18,19,Jits_Linear_5,1,5,56,103,2183575068
88,18,19,Jits_Linear_5,2,1,48,81,2183578188
88,18,19,Jits_Linear_5,3,5,63,98,2183595372
88,18,19,Jits_Linear_5,0,1,48,96,2184294392
88,18,19,Jits_Linear_5,1,5,63,98,2184365324
88,18,19,Jits_Linear_5,2,5,56,103,2184405248
88,18,19,Jits_Linear_5,3,5,80,127,2184435000
88,18,19,Jits_Linear_5,0,1,48,96,2185113008
88,18,19,Jits_Linear_5,1,5,56,103,2185144572
88,18,19,Jits_Linear_5,2,5,63,98,2185175368
88,18,19,Jits_Linear_5,3,5,80,127,2185205268
88,18,19,Jits_Linear_5,0,1,48,114,2185855016
88,18,19,Jits_Linear_5,1,5,80,127,2185895492
88,18,19,Jits_Linear_5,2,5,56,103,2185965016
88,18,19,Jits_Linear_5,3,5,63,98,2185968084
88,18,19,Jits_Linear_5,0,1,48,111,2186637264
88,18,19,Jits_Linear_5,1,5,56,103,2186684648
88,18,19,Jits_Linear_5,2,5,63,98,2186735060
88,18,19,Jits_Linear_5,3,5,80,127,2186764588
88,18,19,Jits_Linear_5,0,5,63,98,2187444588
88,18,19,Jits_Linear_5,1,5,80,127,2187448104
88,18,19,Jits_Linear_5,2,1,48,112,2187491532
88,18,19,Jits_Linear_5,3,5,56,103,2187505196
88,18,19,Jits_Linear_5,0,1,48,102,2188207380
88,18,19,Jits_Linear_5,1,5,56,103,2188254460
88,18,19,Jits_Linear_5,2,5,80,127,2188265104
88,18,19,Jits_Linear_5,3,5,63,98,2188315068
88,18,19,Jits_Linear_5,0,1,48,114,2188944768
88,18,19,Jits_Linear_5,1,5,63,98,2189015444
88,18,19,Jits_Linear_5,2,5,56,103,2189024596
88,18,19,Jits_Linear_5,3,5,80,127,2189055228
88,18,19,Jits_Linear_5,0,1,48,67,2189752880
88,18,19,Jits_Linear_5,1,5,63,98,2189834564
88,18,19,Jits_Linear_5,2,5,80,127,2189838080
88,18,19,Jits_Linear_5,3,5,56,103,2189865272
88,18,19,Jits_Linear_5,0,1,48,99,2190560116
88,18,19,Jits_Linear_5,1,5,63,98,2190644964
88,18,19,Jits_Linear_5,2,5,56,103,2190665032
88,18,19,Jits_Linear_5,3,5,80,127,2190668252
88,18,19,Jits_Linear_5,0,1,48,106,2191345052
88,18,19,Jits_Linear_5,1,5,63,98,2191395128
88,18,19,Jits_Linear_5,2,5,56,103,2191465096
88,18,19,Jits_Linear_5,3,5,80,127,2191485280
88,18,19,Jits_Linear_5,0,5,56,103,2192174552
88,18,19,Jits_Linear_5,1,1,48,65,2192177676
88,18,19,Jits_Linear_5,2,5,63,98,2192184892
88,18,19,Jits_Linear_5,3,5,80,127,2192275936
88,18,19,Jits_Linear_5,0,1,48,68,2192915492
88,18,19,Jits_Linear_5,1,5,56,103,2192984520
88,18,19,Jits_Linear_5,2,5,80,127,2193025444
88,18,19,Jits_Linear_5,3,5,63,98,2193034668
88,18,19,Jits_Linear_5,0,1,48,106,2193738036
88,18,19,Jits_Linear_5,1,5,56,103,2193804620
88,18,19,Jits_Linear_5,2,5,63,98,2193835256
88,18,19,Jits_Linear_5,3,5,80,127,2193865008
88,18,19,Jits_Linear_5,0,5,80,127,2194564488
88,18,19,Jits_Linear_5,1,1,48,103,2194570824
88,18,19,Jits_Linear_5,2,5,63,98,2194605396
88,18,19,Jits_Linear_5,3,5,56,103,2194624808
88,18,19,Jits_Linear_5,0,1,48,127,2195355404
88,18,19,Jits_Linear_5,1,5,56,103,2195405108
88,18,19,Jits_Linear_5,2,5,80,127,2195424820
88,18,19,Jits_Linear_5,3,5,63,98,2195445056
88,18,19,Jits_Linear_5,0,1,48,96,2196148456
88,18,19,Jits_Linear_5,1,5,63,98,2196175156
88,18,19,Jits_Linear_5,2,5,56,103,2196184380
88,18,19,Jits_Linear_5,3,5,80,127,2196244908
88,18,19,Jits_Linear_5,0,5,56,103,2196985344
88,18,19,Jits_Linear_5,1,1,48,84,2197009364
88,18,19,Jits_Linear_5,2,5,63,98,2197054800
88,18,19,Jits_Linear_5,3,5,80,127,2197075484
88,18,19,Jits_Linear_5,0,1,48,66,2197792980
88,18,19,Jits_Linear_5,1,5,56,103,2197795092
88,18,19,Jits_Linear_5,2,5,63,98,2197824844
88,18,19,Jits_Linear_5,3,5,80,127,2197864856
88,18,19,Jits_Linear_5,0,1,48,89,2198482960
88,18,19,Jits_Linear_5,1,5,63,98,2198594996
88,18,19,Jits_Linear_5,2,5,56,103,2198645076
88,18,19,Jits_Linear_5,3,5,80,127,2198655196
88,18,19,Jits_Linear_5,0,1,48,84,2199295328
88,18,19,Jits_Linear_5,1,5,56,103,2199444912
88,18,19,Jits_Linear_5,2,5,63,98,2199494896
88,18,19,Jits_Linear_5,3,5,80,127,2199505240
88,18,19,Jits_Linear_5,0,1,48,92,2200135936
88,18,19,Jits_Linear_5,1,5,56,103,2200225072
88,18,19,Jits_Linear_5,2,5,63,98,2200235776
88,18,19,Jits_Linear_5,3,5,80,127,2200315128
88,18,19,Jits_Linear_5,0,9999,9999,9999,2091442236
88,18,19,Jits_Linear_5,1,9999,9999,9999,2091922548
88,18,19,Jits_Linear_5,2,9999,9999,9999,2092402784
88,18,19,Jits_Linear_5,3,9999,9999,9999,2092883028
88,18,19,Jits_Linear_5,4,9999,9999,9999,2093362280
88,18,19,Jits_Linear_5,5,9999,9999,9999,2093852756
88,18,19,Jits_Linear_5,6,9999,9999,9999,2094342268
88,18,19,Jits_Linear_5,7,9999,9999,9999,2094832768
88,18,19,Jits_Linear_5,8,9999,9999,9999,2095322220
88,18,19,Jits_Linear_5,9,9999,9999,9999,2095812720
88,18,19,Jits_Linear_5,10,9999,9999,9999,2096312436
88,18,19,Jits_Linear_5,11,9999,9999,9999,2096812156
88,18,19,Jits_Linear_5,12,9999,9999,9999,2097312884
88,18,19,Jits_Linear_5,13,9999,9999,9999,2097812564
88,18,19,Jits_Linear_5,14,9999,9999,9999,2098312252
88,18,19,Jits_Linear_5,15,9999,9999,9999,2098822228
88,18,19,Jits_Linear_5,16,9999,9999,9999,2099332204
88,18,19,Jits_Linear_5,17,9999,9999,9999,2099842164
88,18,19,Jits_Linear_5,18,9999,9999,9999,2100352064
88,18,19,Jits_Linear_5,19,9999,9999,9999,2100863088
88,18,19,Jits_Linear_5,20,9999,9999,9999,2101382256
88,18,19,Jits_Linear_5,21,9999,9999,9999,2101902420
88,18,19,Jits_Linear_5,22,9999,9999,9999,2102422644
88,18,19,Jits_Linear_5,23,9999,9999,9999,2102942812
88,18,19,Jits_Linear_5,24,9999,9999,9999,2103462976
88,18,19,Jits_Linear_5,25,9999,9999,9999,2103992424
88,18,19,Jits_Linear_5,26,9999,9999,9999,2104522860
88,18,19,Jits_Linear_5,27,9999,9999,9999,2105052220
88,18,19,Jits_Linear_5,28,9999,9999,9999,2105582648
88,18,19,Jits_Linear_5,29,9999,9999,9999,2106112100
88,18,19,Jits_Linear_5,30,9999,9999,9999,2106652792
88,18,19,Jits_Linear_5,31,9999,9999,9999,2107192436
88,18,19,Jits_Linear_5,32,9999,9999,9999,2107733052
88,18,19,Jits_Linear_5,33,9999,9999,9999,2108272700
88,18,19,Jits_Linear_5,34,9999,9999,9999,2108812364
88,18,19,Jits_Linear_5,35,9999,9999,9999,2109362272
88,18,19,Jits_Linear_5,36,9999,9999,9999,2109912172
88,18,19,Jits_Linear_5,37,9999,9999,9999,2110463056
88,18,19,Jits_Linear_5,38,9999,9999,9999,2111012964
88,18,19,Jits_Linear_5,39,9999,9999,9999,2111562876
88,18,19,Jits_Linear_5,40,9999,9999,9999,2112123000
88,18,19,Jits_Linear_5,41,9999,9999,9999,2112683072
88,18,19,Jits_Linear_5,42,9999,9999,9999,2113252448
88,18,19,Jits_Linear_5,43,9999,9999,9999,2113812604
88,18,19,Jits_Linear_5,44,9999,9999,9999,2114372672
88,18,19,Jits_Linear_5,45,9999,9999,9999,2114943056
88,18,19,Jits_Linear_5,46,9999,9999,9999,2115512444
88,18,19,Jits_Linear_5,47,9999,9999,9999,2116082812
88,18,19,Jits_Linear_5,48,9999,9999,9999,2116652128
88,18,19,Jits_Linear_5,49,9999,9999,9999,2117222496
88,18,19,Jits_Linear_5,50,9999,9999,9999,2117803064
88,18,19,Jits_Linear_5,51,9999,9999,9999,2118392904
88,18,19,Jits_Linear_5,52,9999,9999,9999,2118972536
88,18,19,Jits_Linear_5,53,9999,9999,9999,2119552068
88,18,19,Jits_Linear_5,54,9999,9999,9999,2120132668
88,18,19,Jits_Linear_5,55,9999,9999,9999,2120722512
88,18,19,Jits_Linear_5,56,9999,9999,9999,2121312352
88,18,19,Jits_Linear_5,57,9999,9999,9999,2121902140
88,18,19,Jits_Linear_5,58,9999,9999,9999,2122493028
88,18,19,Jits_Linear_5,59,9999,9999,9999,2123082856
88,18,19,Jits_Linear_5,60,9999,9999,9999,2123682916
88,18,19,Jits_Linear_5,61,9999,9999,9999,2124282996
88,18,19,Jits_Linear_5,62,9999,9999,9999,2124883028
88,18,19,Jits_Linear_5,63,9999,9999,9999,2125483132
88,18,19,Jits_Linear_5,64,9999,9999,9999,2126092380
88,18,19,Jits_Linear_5,65,9999,9999,9999,2126702672
88,18,19,Jits_Linear_5,66,9999,9999,9999,2127312988
88,18,19,Jits_Linear_5,67,9999,9999,9999,2127922296
88,18,19,Jits_Linear_5,68,9999,9999,9999,2128532596
88,18,19,Jits_Linear_5,69,9999,9999,9999,2129142868
88,18,19,Jits_Linear_5,70,9999,9999,9999,2129762392
88,18,19,Jits_Linear_5,71,9999,9999,9999,2130382968
88,18,19,Jits_Linear_5,72,9999,9999,9999,2131002460
88,18,19,Jits_Linear_5,73,9999,9999,9999,2131623020
88,18,19,Jits_Linear_5,74,9999,9999,9999,2132242532
88,18,19,Jits_Linear_5,75,9999,9999,9999,2132872316
88,18,19,Jits_Linear_5,76,9999,9999,9999,2133503040
88,18,19,Jits_Linear_5,77,9999,9999,9999,2134132820
88,18,19,Jits_Linear_5,78,9999,9999,9999,2134762624
88,18,19,Jits_Linear_5,79,9999,9999,9999,2135392376
88,18,19,Jits_Linear_5,80,9999,9999,9999,2136032340
88,18,19,Jits_Linear_5,81,9999,9999,9999,2136672364
88,18,19,Jits_Linear_5,82,9999,9999,9999,2137312344
88,18,19,Jits_Linear_5,83,9999,9999,9999,2137952356
88,18,19,Jits_Linear_5,84,9999,9999,9999,2138592324
88,18,19,Jits_Linear_5,85,9999,9999,9999,2139242596
88,18,19,Jits_Linear_5,86,9999,9999,9999,2139892824
88,18,19,Jits_Linear_5,87,9999,9999,9999,2140543048
88,18,19,Jits_Linear_5,88,9999,9999,9999,2141192264
88,18,19,Jits_Linear_5,89,9999,9999,9999,2141842512
88,18,19,Jits_Linear_5,90,9999,9999,9999,2142503004
88,18,19,Jits_Linear_5,91,9999,9999,9999,2143162444
88,18,19,Jits_Linear_5,92,9999,9999,9999,2143822924
88,18,19,Jits_Linear_5,93,9999,9999,9999,2144482392
88,18,19,Jits_Linear_5,94,9999,9999,9999,2145142876
88,18,19,Jits_Linear_5,95,9999,9999,9999,2145812560
88,18,19,Jits_Linear_5,96,9999,9999,9999,2146482296
88,18,19,Jits_Linear_5,97,9999,9999,9999,2147152976
88,18,19,Jits_Linear_5,98,9999,9999,9999,2147822680
88,18,19,Jits_Linear_5,99,9999,9999,9999,2148492412
88,18,19,Jits_Linear_5,100,9999,9999,9999,2149172308
88,18,19,Jits_Linear_5,101,9999,9999,9999,2149852232
88,18,19,Jits_Linear_5,102,9999,9999,9999,2150532220
88,18,19,Jits_Linear_5,103,9999,9999,9999,2151212096
88,18,19,Jits_Linear_5,104,9999,9999,9999,2151893108
88,18,19,Jits_Linear_5,105,9999,9999,9999,2152582216
88,18,19,Jits_Linear_5,106,9999,9999,9999,2153272428
88,18,19,Jits_Linear_5,107,9999,9999,9999,2153962612
88,18,19,Jits_Linear_5,108,9999,9999,9999,2154652744
88,18,19,Jits_Linear_5,109,9999,9999,9999,2155342952
88,18,19,Jits_Linear_5,110,9999,9999,9999,2156042308
88,18,19,Jits_Linear_5,111,9999,9999,9999,2156742724
88,18,19,Jits_Linear_5,112,9999,9999,9999,2157442124
88,18,19,Jits_Linear_5,113,9999,9999,9999,2158142548
88,18,19,Jits_Linear_5,114,9999,9999,9999,2158842968
88,18,19,Jits_Linear_5,115,9999,9999,9999,2159552604
88,18,19,Jits_Linear_5,116,9999,9999,9999,2160262244
88,18,19,Jits_Linear_5,117,9999,9999,9999,2160972860
88,18,19,Jits_Linear_5,118,9999,9999,9999,2161682524
88,18,19,Jits_Linear_5,119,9999,9999,9999,2162392164
88,18,19,Jits_Linear_5,120,9999,9999,9999,2163113032
88,18,19,Jits_Linear_5,121,9999,9999,9999,2163832936
88,18,19,Jits_Linear_5,122,9999,9999,9999,2164552812
88,18,19,Jits_Linear_5,123,9999,9999,9999,2165272656
88,18,19,Jits_Linear_5,124,9999,9999,9999,2165992504
88,18,19,Jits_Linear_5,125,9999,9999,9999,2166722684
88,18,19,Jits_Linear_5,126,9999,9999,9999,2167452732
88,18,19,Jits_Linear_5,127,9999,9999,9999,2168182896
88,18,19,Jits_Linear_5,128,9999,9999,9999,2168912968
88,18,19,Jits_Linear_5,129,9999,9999,9999,2169643084
88,18,19,Jits_Linear_5,130,9999,9999,9999,2170392684
88,18,19,Jits_Linear_5,131,9999,9999,9999,2171132988
88,18,19,Jits_Linear_5,132,9999,9999,9999,2171872320
88,18,19,Jits_Linear_5,133,9999,9999,9999,2172612700
88,18,19,Jits_Linear_5,134,9999,9999,9999,2173353052
88,18,19,Jits_Linear_5,135,9999,9999,9999,2174102624
88,18,19,Jits_Linear_5,136,9999,9999,9999,2174852200
88,18,19,Jits_Linear_5,137,9999,9999,9999,2175602796
88,18,19,Jits_Linear_5,138,9999,9999,9999,2176352372
88,18,19,Jits_Linear_5,139,9999,9999,9999,2177102920
88,18,19,Jits_Linear_5,140,9999,9999,9999,2177862708
88,18,19,Jits_Linear_5,141,9999,9999,9999,2178622560
88,18,19,Jits_Linear_5,142,9999,9999,9999,2179382400
88,18,19,Jits_Linear_5,143,9999,9999,9999,2180142164
88,18,19,Jits_Linear_5,144,9999,9999,9999,2180902968
88,18,19,Jits_Linear_5,145,9999,9999,9999,2181673068
88,18,19,Jits_Linear_5,146,9999,9999,9999,2182443112
88,18,19,Jits_Linear_5,147,9999,9999,9999,2183222380
88,18,19,Jits_Linear_5,148,9999,9999,9999,2183992400
88,18,19,Jits_Linear_5,149,9999,9999,9999,2184762448
88,18,19,Jits_Linear_5,150,9999,9999,9999,2185542740
88,18,19,Jits_Linear_5,151,9999,9999,9999,2186323024
88,18,19,Jits_Linear_5,152,9999,9999,9999,2187102296
88,18,19,Jits_Linear_5,153,9999,9999,9999,2187882596
88,18,19,Jits_Linear_5,154,9999,9999,9999,2188662840
88,18,19,Jits_Linear_5,155,9999,9999,9999,2189452368
88,18,19,Jits_Linear_5,156,9999,9999,9999,2190242936
88,18,19,Jits_Linear_5,157,9999,9999,9999,2191032436
88,18,19,Jits_Linear_5,158,9999,9999,9999,2191822916
88,18,19,Jits_Linear_5,159,9999,9999,9999,2192612448
88,18,19,Jits_Linear_5,160,9999,9999,9999,2193412156
88,18,19,Jits_Linear_5,161,9999,9999,9999,2194212976
88,18,19,Jits_Linear_5,162,9999,9999,9999,2195012696
88,18,19,Jits_Linear_5,163,9999,9999,9999,2195812416
88,18,19,Jits_Linear_5,164,9999,9999,9999,2196612156
88,18,19,Jits_Linear_5,165,9999,9999,9999,2197422196
88,18,19,Jits_Linear_5,166,9999,9999,9999,2198232168
88,18,19,Jits_Linear_5,167,9999,9999,9999,2199042124
88,18,19,Jits_Linear_5,168,9999,9999,9999,2199852088
88,18,19,Jits_Linear_5,169,9999,9999,9999,2200662124
88,19,18,Jits_Linear_8,0,5,56,103,2210114112
88,19,18,Jits_Linear_8,1,5,63,98,2210117212
88,19,18,Jits_Linear_8,2,5,80,127,2210120480
88,19,18,Jits_Linear_8,0,5,56,103,2210934076
88,19,18,Jits_Linear_8,1,5,63,98,2210937172
88,19,18,Jits_Linear_8,2,5,80,127,2210940296
88,19,18,Jits_Linear_8,0,5,80,127,2211693840
88,19,18,Jits_Linear_8,1,5,63,98,2211784152
88,19,18,Jits_Linear_8,2,5,56,103,2211794420
88,19,18,Jits_Linear_8,0,5,56,103,2212533824
88,19,18,Jits_Linear_8,1,5,63,98,2212543948
88,19,18,Jits_Linear_8,2,5,80,127,2212634004
88,19,18,Jits_Linear_8,0,5,63,98,2213324260
88,19,18,Jits_Linear_8,1,5,80,127,2213353788
88,19,18,Jits_Linear_8,2,5,56,103,2213383536
88,19,18,Jits_Linear_8,3,1,48,102,2213396620
88,19,18,Jits_Linear_8,0,1,48,127,2214139784
88,19,18,Jits_Linear_8,1,5,56,103,2214144240
88,19,18,Jits_Linear_8,2,5,80,127,2214243652
88,19,18,Jits_Linear_8,3,5,63,98,2214293952
88,19,18,Jits_Linear_8,0,5,56,103,2214954292
88,19,18,Jits_Linear_8,1,1,48,106,2214988500
88,19,18,Jits_Linear_8,2,5,80,127,2215003440
88,19,18,Jits_Linear_8,3,5,63,98,2215043700
88,19,18,Jits_Linear_8,0,1,48,97,2215786552
88,19,18,Jits_Linear_8,1,5,80,127,2215794168
88,19,18,Jits_Linear_8,2,5,63,98,2215823696
88,19,18,Jits_Linear_8,3,5,56,103,2215894480
88,19,18,Jits_Linear_8,0,1,48,110,2216591416
88,19,18,Jits_Linear_8,1,5,63,98,2216633708
88,19,18,Jits_Linear_8,2,5,56,103,2216664432
88,19,18,Jits_Linear_8,3,5,80,127,2216723908
88,19,18,Jits_Linear_8,0,5,56,103,2217384492
88,19,18,Jits_Linear_8,1,5,80,127,2217387560
88,19,18,Jits_Linear_8,2,1,48,104,2217424772
88,19,18,Jits_Linear_8,3,5,63,98,2217503988
88,19,18,Jits_Linear_8,0,1,48,86,2218215396
88,19,18,Jits_Linear_8,1,5,56,103,2218263900
88,19,18,Jits_Linear_8,2,5,80,127,2218303916
88,19,18,Jits_Linear_8,3,5,63,98,2218314096
88,19,18,Jits_Linear_8,0,5,56,103,2219023660
88,19,18,Jits_Linear_8,1,5,80,127,2219044340
88,19,18,Jits_Linear_8,2,1,48,76,2219054804
88,19,18,Jits_Linear_8,3,5,63,98,2219124004
88,19,18,Jits_Linear_8,0,5,80,127,2219814436
88,19,18,Jits_Linear_8,1,1,48,90,2219840852
88,19,18,Jits_Linear_8,2,5,56,103,2219913656
88,19,18,Jits_Linear_8,3,5,63,98,2219923928
88,19,18,Jits_Linear_8,0,5,63,98,2220584240
88,19,18,Jits_Linear_8,1,5,80,127,2220643660
88,19,18,Jits_Linear_8,2,5,56,103,2220653856
88,19,18,Jits_Linear_8,3,1,48,76,2220686668
88,19,18,Jits_Linear_8,0,5,56,103,2221384064
88,19,18,Jits_Linear_8,1,1,48,57,2221432844
88,19,18,Jits_Linear_8,2,5,63,98,2221453616
88,19,18,Jits_Linear_8,3,5,80,127,2221456980
88,19,18,Jits_Linear_8,0,1,48,58,2222195276
88,19,18,Jits_Linear_8,1,5,63,98,2222213436
88,19,18,Jits_Linear_8,2,5,56,103,2222263712
88,19,18,Jits_Linear_8,3,5,80,127,2222266780
88,19,18,Jits_Linear_8,0,5,56,103,2222964256
88,19,18,Jits_Linear_8,1,5,80,127,2222967176
88,19,18,Jits_Linear_8,2,1,48,71,2222990672
88,19,18,Jits_Linear_8,3,5,63,98,2223054156
88,19,18,Jits_Linear_8,0,5,63,98,2223793536
88,19,18,Jits_Linear_8,1,1,48,39,2223794500
88,19,18,Jits_Linear_8,2,5,56,103,2223883740
88,19,18,Jits_Linear_8,3,5,80,127,2223914296
88,19,18,Jits_Linear_8,0,1,48,60,2224573892
88,19,18,Jits_Linear_8,1,5,56,103,2224575228
88,19,18,Jits_Linear_8,2,5,63,98,2224674120
88,19,18,Jits_Linear_8,3,5,80,127,2224703796
88,19,18,Jits_Linear_8,0,5,63,98,2225383696
88,19,18,Jits_Linear_8,1,5,56,103,2225393892
88,19,18,Jits_Linear_8,2,1,48,107,2225402336
88,19,18,Jits_Linear_8,3,5,80,127,2225484240
88,19,18,Jits_Linear_8,0,5,63,98,2226183612
88,19,18,Jits_Linear_8,1,1,48,127,2226205536
88,19,18,Jits_Linear_8,2,5,56,103,2226264600
88,19,18,Jits_Linear_8,3,5,80,127,2226267592
88,19,18,Jits_Linear_8,0,5,80,127,2226923812
88,19,18,Jits_Linear_8,1,5,63,98,2226944572
88,19,18,Jits_Linear_8,2,1,48,104,2227002936
88,19,18,Jits_Linear_8,3,5,56,103,2227004656
88,19,18,Jits_Linear_8,0,5,56,103,2227744196
88,19,18,Jits_Linear_8,1,1,48,89,2227754736
88,19,18,Jits_Linear_8,2,5,63,98,2227763448
88,19,18,Jits_Linear_8,3,5,80,127,2227766668
88,19,18,Jits_Linear_8,0,5,63,98,2228463940
88,19,18,Jits_Linear_8,1,1,48,49,2228531576
88,19,18,Jits_Linear_8,2,5,80,127,2228543808
88,19,18,Jits_Linear_8,3,5,56,103,2228554224
88,19,18,Jits_Linear_8,0,1,48,82,2229238184
88,19,18,Jits_Linear_8,1,5,63,98,2229263688
88,19,18,Jits_Linear_8,2,5,56,103,2229284224
88,19,18,Jits_Linear_8,3,5,80,127,2229334500
88,19,18,Jits_Linear_8,4,1,48,16,2229363032
88,19,18,Jits_Linear_8,0,1,48,51,2230022488
88,19,18,Jits_Linear_8,1,5,80,127,2230044008
88,19,18,Jits_Linear_8,2,5,63,98,2230084024
88,19,18,Jits_Linear_8,3,5,56,103,2230104336
88,19,18,Jits_Linear_8,0,1,48,95,2230809264
88,19,18,Jits_Linear_8,1,5,56,103,2230853952
88,19,18,Jits_Linear_8,2,5,63,98,2230864300
88,19,18,Jits_Linear_8,3,5,80,127,2230883784
88,19,18,Jits_Linear_8,0,5,56,103,2231554368
88,19,18,Jits_Linear_8,1,1,48,125,2231614508
88,19,18,Jits_Linear_8,2,5,63,98,2231643452
88,19,18,Jits_Linear_8,3,5,80,127,2231704016
88,19,18,Jits_Linear_8,0,1,48,115,2232327140
88,19,18,Jits_Linear_8,1,5,80,127,2232354220
88,19,18,Jits_Linear_8,2,5,56,103,2232364264
88,19,18,Jits_Linear_8,3,5,63,98,2232434104
88,19,18,Jits_Linear_8,0,1,48,92,2233133296
88,19,18,Jits_Linear_8,1,5,63,98,2233153772
88,19,18,Jits_Linear_8,2,5,80,127,2233243992
88,19,18,Jits_Linear_8,3,5,56,103,2233254192
88,19,18,Jits_Linear_8,0,5,63,98,2233854196
88,19,18,Jits_Linear_8,1,5,80,127,2233903576
88,19,18,Jits_Linear_8,2,1,48,104,2233936436
88,19,18,Jits_Linear_8,3,5,56,103,2233963884
88,19,18,Jits_Linear_8,0,5,56,103,2234643772
88,19,18,Jits_Linear_8,1,5,80,127,2234693976
88,19,18,Jits_Linear_8,2,1,48,90,2234703468
88,19,18,Jits_Linear_8,3,5,63,98,2234713308
88,19,18,Jits_Linear_8,0,1,48,103,2235373488
88,19,18,Jits_Linear_8,1,5,56,103,2235375348
88,19,18,Jits_Linear_8,2,5,80,127,2235434248
88,19,18,Jits_Linear_8,3,5,63,98,2235503916
88,19,18,Jits_Linear_8,0,1,48,96,2236123344
88,19,18,Jits_Linear_8,1,5,56,103,2236133628
88,19,18,Jits_Linear_8,2,5,80,127,2236163528
88,19,18,Jits_Linear_8,3,5,63,98,2236194176
88,19,18,Jits_Linear_8,0,1,48,81,2236837668
88,19,18,Jits_Linear_8,1,5,56,103,2236934560
88,19,18,Jits_Linear_8,2,5,80,127,2236954196
88,19,18,Jits_Linear_8,3,5,63,98,2237014288
88,19,18,Jits_Linear_8,0,1,48,107,2237703368
88,19,18,Jits_Linear_8,1,5,80,127,2237774416
88,19,18,Jits_Linear_8,2,5,56,103,2237784464
88,19,18,Jits_Linear_8,3,5,63,98,2237793692
88,19,18,Jits_Linear_8,0,5,56,103,2238483784
88,19,18,Jits_Linear_8,1,1,48,94,2238497392
88,19,18,Jits_Linear_8,2,5,80,127,2238523720
88,19,18,Jits_Linear_8,3,5,63,98,2238553392
88,19,18,Jits_Linear_8,0,5,56,103,2239203840
88,19,18,Jits_Linear_8,1,5,63,98,2239234344
88,19,18,Jits_Linear_8,2,1,48,96,2239242936
88,19,18,Jits_Linear_8,3,5,80,127,2239274500
88,19,18,Jits_Linear_8,0,5,80,127,2239904264
88,19,18,Jits_Linear_8,1,1,48,82,2239940196
88,19,18,Jits_Linear_8,2,5,63,98,2239954316
88,19,18,Jits_Linear_8,3,5,56,103,2239973728
88,19,18,Jits_Linear_8,0,1,48,83,2240652460
88,19,18,Jits_Linear_8,1,5,56,103,2240684544
88,19,18,Jits_Linear_8,2,5,80,127,2240754216
88,19,18,Jits_Linear_8,3,5,63,98,2240813408
88,19,18,Jits_Linear_8,0,1,48,84,2241412360
88,19,18,Jits_Linear_8,1,5,80,127,2241423620
88,19,18,Jits_Linear_8,2,5,63,98,2241513964
88,19,18,Jits_Linear_8,3,5,56,103,2241534200
88,19,18,Jits_Linear_8,0,1,48,75,2242167308
88,19,18,Jits_Linear_8,1,5,63,98,2242183596
88,19,18,Jits_Linear_8,2,5,56,103,2242204128
88,19,18,Jits_Linear_8,3,5,80,127,2242244068
88,19,18,Jits_Linear_8,0,5,80,127,2242884056
88,19,18,Jits_Linear_8,1,1,48,77,2242885024
88,19,18,Jits_Linear_8,2,5,63,98,2242904288
88,19,18,Jits_Linear_8,3,5,56,103,2242984388
88,19,18,Jits_Linear_8,0,5,63,98,2243614144
88,19,18,Jits_Linear_8,1,1,48,83,2243632332
88,19,18,Jits_Linear_8,2,5,56,103,2243723548
88,19,18,Jits_Linear_8,3,5,80,127,2243726620
88,19,18,Jits_Linear_8,0,1,48,84,2244368152
88,19,18,Jits_Linear_8,1,5,63,98,2244373804
88,19,18,Jits_Linear_8,2,5,56,103,2244384072
88,19,18,Jits_Linear_8,3,5,80,127,2244387216
88,19,18,Jits_Linear_8,0,1,48,91,2245091864
88,19,18,Jits_Linear_8,1,5,56,103,2245093672
88,19,18,Jits_Linear_8,2,5,80,127,2245213464
88,19,18,Jits_Linear_8,3,5,63,98,2245253428
88,19,18,Jits_Linear_8,0,1,48,75,2245837288
88,19,18,Jits_Linear_8,1,5,56,103,2245844356
88,19,18,Jits_Linear_8,2,5,80,127,2245924156
88,19,18,Jits_Linear_8,3,5,63,98,2245943704
88,19,18,Jits_Linear_8,0,5,56,103,2246573396
88,19,18,Jits_Linear_8,1,1,48,91,2246582216
88,19,18,Jits_Linear_8,2,5,63,98,2246684112
88,19,18,Jits_Linear_8,3,5,80,127,2246687480
88,19,18,Jits_Linear_8,0,5,56,103,2247334280
88,19,18,Jits_Linear_8,1,1,48,96,2247335912
88,19,18,Jits_Linear_8,2,5,80,127,2247364248
88,19,18,Jits_Linear_8,3,5,63,98,2247384408
88,19,18,Jits_Linear_8,0,5,63,98,2248044044
88,19,18,Jits_Linear_8,1,5,56,103,2248054116
88,19,18,Jits_Linear_8,2,5,80,127,2248064388
88,19,18,Jits_Linear_8,3,1,48,113,2248070120
88,19,18,Jits_Linear_8,0,5,80,127,2248753528
88,19,18,Jits_Linear_8,1,1,48,98,2248762120
88,19,18,Jits_Linear_8,2,5,56,103,2248803648
88,19,18,Jits_Linear_8,3,5,63,98,2248843836
88,19,18,Jits_Linear_8,0,5,80,127,2249494104
88,19,18,Jits_Linear_8,1,5,63,98,2249514416
88,19,18,Jits_Linear_8,2,1,48,86,2249526000
88,19,18,Jits_Linear_8,3,5,56,103,2249563564
88,19,18,Jits_Linear_8,0,5,80,127,2250224196
88,19,18,Jits_Linear_8,1,1,48,79,2250228068
88,19,18,Jits_Linear_8,2,5,56,103,2250253644
88,19,18,Jits_Linear_8,3,5,63,98,2250324208
88,19,18,Jits_Linear_8,0,1,48,98,2250943032
88,19,18,Jits_Linear_8,1,5,56,103,2250994076
88,19,18,Jits_Linear_8,2,5,80,127,2251004348
88,19,18,Jits_Linear_8,3,5,63,98,2251044272
88,19,18,Jits_Linear_8,0,5,56,103,2251623972
88,19,18,Jits_Linear_8,1,5,63,98,2251644160
88,19,18,Jits_Linear_8,2,1,48,113,2251683692
88,19,18,Jits_Linear_8,3,5,80,127,2251713980
88,19,18,Jits_Linear_8,0,1,48,94,2252341540
88,19,18,Jits_Linear_8,1,5,63,98,2252364036
88,19,18,Jits_Linear_8,2,5,80,127,2252423552
88,19,18,Jits_Linear_8,3,5,56,103,2252443924
88,19,18,Jits_Linear_8,0,5,80,127,2253063556
88,19,18,Jits_Linear_8,1,1,48,111,2253064968
88,19,18,Jits_Linear_8,2,5,56,103,2253094272
88,19,18,Jits_Linear_8,3,5,63,98,2253124096
88,19,18,Jits_Linear_8,4,1,48,38,2253180484
88,19,18,Jits_Linear_8,0,5,56,103,2253774076
88,19,18,Jits_Linear_8,1,1,48,87,2253777120
88,19,18,Jits_Linear_8,2,5,63,98,2253833488
88,19,18,Jits_Linear_8,3,1,48,44,2253872560
88,19,18,Jits_Linear_8,4,5,80,127,2253893932
88,19,18,Jits_Linear_8,0,5,80,127,2254504360
88,19,18,Jits_Linear_8,1,1,48,91,2254519164
88,19,18,Jits_Linear_8,2,5,56,103,2254523844
88,19,18,Jits_Linear_8,3,5,63,98,2254594496
88,19,18,Jits_Linear_8,4,1,48,36,2254637160
88,19,18,Jits_Linear_8,0,5,80,127,2255213948
88,19,18,Jits_Linear_8,1,5,63,98,2255234408
88,19,18,Jits_Linear_8,2,5,56,103,2255264236
88,19,18,Jits_Linear_8,3,1,48,102,2255280008
88,19,18,Jits_Linear_8,0,5,80,127,2255904020
88,19,18,Jits_Linear_8,1,5,63,98,2255923580
88,19,18,Jits_Linear_8,2,1,48,103,2255969996
88,19,18,Jits_Linear_8,3,5,56,103,2255984064
88,19,18,Jits_Linear_8,0,5,80,127,2256603404
88,19,18,Jits_Linear_8,1,1,48,101,2256665860
88,19,18,Jits_Linear_8,2,5,56,103,2256703944
88,19,18,Jits_Linear_8,3,5,63,98,2256733472
88,19,18,Jits_Linear_8,0,5,63,98,2257293800
88,19,18,Jits_Linear_8,1,5,80,127,2257343780
88,19,18,Jits_Linear_8,2,5,56,103,2257364460
88,19,18,Jits_Linear_8,3,1,48,90,2257378740
88,19,18,Jits_Linear_8,0,1,48,95,2258018944
88,19,18,Jits_Linear_8,1,5,80,127,2258033984
88,19,18,Jits_Linear_8,2,5,56,103,2258063956
88,19,18,Jits_Linear_8,3,5,63,98,2258066876
88,19,18,Jits_Linear_8,0,1,48,108,2258717776
88,19,18,Jits_Linear_8,1,5,63,98,2258764108
88,19,18,Jits_Linear_8,2,5,56,103,2258804000
88,19,18,Jits_Linear_8,3,5,80,127,2258823692
88,19,18,Jits_Linear_8,4,1,48,35,2258851228
88,19,18,Jits_Linear_8,0,5,80,127,2259404216
88,19,18,Jits_Linear_8,1,1,48,115,2259426892
88,19,18,Jits_Linear_8,2,5,63,98,2259483936
88,19,18,Jits_Linear_8,3,5,56,103,2259524452
88,19,18,Jits_Linear_8,4,1,48,30,2259558136
88,19,18,Jits_Linear_8,0,5,63,98,2260113848
88,19,18,Jits_Linear_8,1,1,48,102,2260129848
88,19,18,Jits_Linear_8,2,5,80,127,2260194008
88,19,18,Jits_Linear_8,3,5,56,103,2260214172
88,19,18,Jits_Linear_8,0,1,48,80,2260816164
88,19,18,Jits_Linear_8,1,5,56,103,2260843916
88,19,18,Jits_Linear_8,2,5,63,98,2260854284
88,19,18,Jits_Linear_8,3,5,80,127,2260893924
88,19,18,Jits_Linear_8,4,1,48,22,2260927596
88,19,18,Jits_Linear_8,0,5,56,103,2261454172
88,19,18,Jits_Linear_8,1,5,80,127,2261457240
88,19,18,Jits_Linear_8,2,1,48,126,2261487260
88,19,18,Jits_Linear_8,3,5,63,98,2261593360
88,19,18,Jits_Linear_8,4,1,48,28,2261613260
88,19,18,Jits_Linear_8,0,5,56,103,2262134112
88,19,18,Jits_Linear_8,1,1,48,127,2262160000
88,19,18,Jits_Linear_8,2,5,63,98,2262224092
88,19,18,Jits_Linear_8,3,5,80,127,2262293832
88,19,18,Jits_Linear_8,0,1,48,108,2262811556
88,19,18,Jits_Linear_8,1,5,63,98,2262893860
88,19,18,Jits_Linear_8,2,5,80,127,2262897400
88,19,18,Jits_Linear_8,3,5,56,103,2262954408
88,19,18,Jits_Linear_8,0,1,48,114,2263508844
88,19,18,Jits_Linear_8,1,5,80,127,2263613832
88,19,18,Jits_Linear_8,2,5,56,103,2263634144
88,19,18,Jits_Linear_8,3,5,63,98,2263643592
88,19,18,Jits_Linear_8,0,1,48,101,2264170372
88,19,18,Jits_Linear_8,1,5,56,103,2264203924
88,19,18,Jits_Linear_8,2,5,63,98,2264213896
88,19,18,Jits_Linear_8,3,5,80,127,2264283636
88,19,18,Jits_Linear_8,0,1,48,98,2264866848
88,19,18,Jits_Linear_8,1,5,80,127,2264883732
88,19,18,Jits_Linear_8,2,5,56,103,2264933860
88,19,18,Jits_Linear_8,3,5,63,98,2264983848
88,19,18,Jits_Linear_8,0,1,48,97,2265546808
88,19,18,Jits_Linear_8,1,5,56,103,2265644372
88,19,18,Jits_Linear_8,2,5,63,98,2265653596
88,19,18,Jits_Linear_8,3,5,80,127,2265693756
88,19,18,Jits_Linear_8,0,5,56,103,2266264044
88,19,18,Jits_Linear_8,1,1,48,111,2266264936
88,19,18,Jits_Linear_8,2,5,63,98,2266303756
88,19,18,Jits_Linear_8,3,5,80,127,2266353884
88,19,18,Jits_Linear_8,0,5,80,127,2266893880
88,19,18,Jits_Linear_8,1,5,56,103,2266943860
88,19,18,Jits_Linear_8,2,1,48,97,2266957244
88,19,18,Jits_Linear_8,3,5,63,98,2266964240
88,19,18,Jits_Linear_8,0,5,80,127,2267573776
88,19,18,Jits_Linear_8,1,1,48,94,2267610160
88,19,18,Jits_Linear_8,2,5,63,98,2267634016
88,19,18,Jits_Linear_8,3,5,56,103,2267713944
88,19,18,Jits_Linear_8,0,5,80,127,2268223832
88,19,18,Jits_Linear_8,1,5,56,103,2268263772
88,19,18,Jits_Linear_8,2,1,48,111,2268267864
88,19,18,Jits_Linear_8,3,5,63,98,2268284248
88,19,18,Jits_Linear_8,4,1,48,45,2268380912
88,19,18,Jits_Linear_8,0,5,56,103,2268943792
88,19,18,Jits_Linear_8,1,1,48,115,2268952784
88,19,18,Jits_Linear_8,2,5,80,127,2268954732
88,19,18,Jits_Linear_8,3,5,63,98,2268993772
88,19,18,Jits_Linear_8,0,1,48,108,2269597440
88,19,18,Jits_Linear_8,1,5,56,103,2269673892
88,19,18,Jits_Linear_8,2,5,63,98,2269713740
88,19,18,Jits_Linear_8,3,5,80,127,2269717180
88,19,18,Jits_Linear_8,0,5,63,98,2270223868
88,19,18,Jits_Linear_8,1,5,80,127,2270263808
88,19,18,Jits_Linear_8,2,5,56,103,2270334264
88,19,18,Jits_Linear_8,3,1,48,122,2270350712
88,19,18,Jits_Linear_8,0,5,63,98,2270874092
88,19,18,Jits_Linear_8,1,1,48,96,2270929872
88,19,18,Jits_Linear_8,2,5,56,103,2270953960
88,19,18,Jits_Linear_8,3,5,80,127,2271014276
88,19,18,Jits_Linear_8,0,5,80,127,2271543688
88,19,18,Jits_Linear_8,1,5,63,98,2271593816
88,19,18,Jits_Linear_8,2,1,48,111,2271595156
88,19,18,Jits_Linear_8,3,5,56,103,2271623512
88,19,18,Jits_Linear_8,0,5,56,103,2272193924
88,19,18,Jits_Linear_8,1,1,48,108,2272233764
88,19,18,Jits_Linear_8,2,5,63,98,2272244048
88,19,18,Jits_Linear_8,3,5,80,127,2272254172
88,19,18,Jits_Linear_8,4,1,48,26,2272354816
88,19,18,Jits_Linear_8,0,5,56,103,2272863664
88,19,18,Jits_Linear_8,1,1,48,110,2272899472
88,19,18,Jits_Linear_8,2,5,63,98,2272974052
88,19,18,Jits_Linear_8,3,5,80,127,2272994264
88,19,18,Jits_Linear_8,0,5,63,98,2273513908
88,19,18,Jits_Linear_8,1,1,48,104,2273562296
88,19,18,Jits_Linear_8,2,5,80,127,2273563960
88,19,18,Jits_Linear_8,3,5,56,103,2273654192
88,19,18,Jits_Linear_8,0,5,63,98,2274153772
88,19,18,Jits_Linear_8,1,5,80,127,2274183624
88,19,18,Jits_Linear_8,2,1,48,114,2274222412
88,19,18,Jits_Linear_8,3,5,56,103,2274273752
88,19,18,Jits_Linear_8,0,5,63,98,2274804072
88,19,18,Jits_Linear_8,1,5,56,103,2274814420
88,19,18,Jits_Linear_8,2,1,48,117,2274850124
88,19,18,Jits_Linear_8,3,5,80,127,2274913684
88,19,18,Jits_Linear_8,0,1,48,83,2275476284
88,19,18,Jits_Linear_8,1,5,63,98,2275553788
88,19,18,Jits_Linear_8,2,5,80,127,2275584496
88,19,18,Jits_Linear_8,3,5,56,103,2275613948
88,19,18,Jits_Linear_8,0,1,48,102,2276160272
88,19,18,Jits_Linear_8,1,5,80,127,2276214128
88,19,18,Jits_Linear_8,2,5,63,98,2276224324
88,19,18,Jits_Linear_8,3,5,56,103,2276253984
88,19,18,Jits_Linear_8,0,5,80,127,2276753772
88,19,18,Jits_Linear_8,1,5,63,98,2276774452
88,19,18,Jits_Linear_8,2,5,56,103,2276824584
88,19,18,Jits_Linear_8,3,1,48,106,2276865612
88,19,18,Jits_Linear_8,0,5,63,98,2277423616
88,19,18,Jits_Linear_8,1,1,48,97,2277450404
88,19,18,Jits_Linear_8,2,5,80,127,2277483928
88,19,18,Jits_Linear_8,3,5,56,103,2277504412
88,19,18,Jits_Linear_8,0,5,63,98,2278023708
88,19,18,Jits_Linear_8,1,5,56,103,2278073616
88,19,18,Jits_Linear_8,2,5,80,127,2278083812
88,19,18,Jits_Linear_8,3,1,48,114,2278114124
88,19,18,Jits_Linear_8,0,5,56,103,2278694212
88,19,18,Jits_Linear_8,1,5,80,127,2278703584
88,19,18,Jits_Linear_8,2,1,48,70,2278715244
88,19,18,Jits_Linear_8,3,5,63,98,2278803848
88,19,18,Jits_Linear_8,0,5,80,127,2279294616
88,19,18,Jits_Linear_8,1,5,63,98,2279303544
88,19,18,Jits_Linear_8,2,1,48,77,2279353788
88,19,18,Jits_Linear_8,3,5,56,103,2279454036
88,19,18,Jits_Linear_8,0,5,63,98,2279934480
88,19,18,Jits_Linear_8,1,5,80,127,2279974200
88,19,18,Jits_Linear_8,2,1,48,116,2279987132
88,19,18,Jits_Linear_8,3,5,56,103,2280054012
88,19,18,Jits_Linear_8,0,5,56,103,2280553968
88,19,18,Jits_Linear_8,1,1,48,52,2280625740
88,19,18,Jits_Linear_8,2,5,80,127,2280654160
88,19,18,Jits_Linear_8,3,5,63,98,2280673724
88,19,18,Jits_Linear_8,0,5,80,127,2281243912
88,19,18,Jits_Linear_8,1,1,48,87,2281252816
88,19,18,Jits_Linear_8,2,5,56,103,2281254620
88,19,18,Jits_Linear_8,3,1,48,48,2281310464
88,19,18,Jits_Linear_8,4,5,63,98,2281344532
88,19,18,Jits_Linear_8,0,1,48,110,2281863740
88,19,18,Jits_Linear_8,1,5,56,103,2281873728
88,19,18,Jits_Linear_8,2,5,63,98,2281894336
88,19,18,Jits_Linear_8,3,1,48,39,2281921256
88,19,18,Jits_Linear_8,4,5,80,127,2281974112
88,19,18,Jits_Linear_8,0,5,63,98,2282444432
88,19,18,Jits_Linear_8,1,1,48,90,2282501804
88,19,18,Jits_Linear_8,2,5,56,103,2282534488
88,19,18,Jits_Linear_8,3,5,80,127,2282537480
88,19,18,Jits_Linear_8,4,1,48,35,2282567708
88,19,18,Jits_Linear_8,0,5,56,103,2283094364
88,19,18,Jits_Linear_8,1,1,48,94,2283153284
88,19,18,Jits_Linear_8,2,5,80,127,2283155000
88,19,18,Jits_Linear_8,3,5,63,98,2283163928
88,19,18,Jits_Linear_8,4,1,48,38,2283218048
88,19,18,Jits_Linear_8,0,5,80,127,2283764204
88,19,18,Jits_Linear_8,1,5,56,103,2283774472
88,19,18,Jits_Linear_8,2,5,63,98,2283777540
88,19,18,Jits_Linear_8,3,1,48,72,2283804488
88,19,18,Jits_Linear_8,0,5,56,103,2284343604
88,19,18,Jits_Linear_8,1,5,80,127,2284353948
88,19,18,Jits_Linear_8,2,5,63,98,2284374560
88,19,18,Jits_Linear_8,3,1,48,82,2284411036
88,19,18,Jits_Linear_8,0,5,63,98,2284933524
88,19,18,Jits_Linear_8,1,5,80,127,2284993840
88,19,18,Jits_Linear_8,2,1,48,106,2285016368
88,19,18,Jits_Linear_8,3,5,56,103,2285044108
88,19,18,Jits_Linear_8,0,1,48,108,2285577920
88,19,18,Jits_Linear_8,1,5,63,98,2285633844
88,19,18,Jits_Linear_8,2,5,56,103,2285644264
88,19,18,Jits_Linear_8,3,5,80,127,2285694552
88,19,18,Jits_Linear_8,0,5,63,98,2286143820
88,19,18,Jits_Linear_8,1,5,80,127,2286164428
88,19,18,Jits_Linear_8,2,5,56,103,2286173504
88,19,18,Jits_Linear_8,3,1,48,115,2286176020
88,19,18,Jits_Linear_8,0,5,63,98,2286754404
88,19,18,Jits_Linear_8,1,5,80,127,2286757544
88,19,18,Jits_Linear_8,2,1,48,85,2286772212
88,19,18,Jits_Linear_8,3,5,56,103,2286794112
88,19,18,Jits_Linear_8,0,1,48,82,2287356372
88,19,18,Jits_Linear_8,1,5,63,98,2287434320
88,19,18,Jits_Linear_8,2,5,80,127,2287463832
88,19,18,Jits_Linear_8,3,5,56,103,2287474124
88,19,18,Jits_Linear_8,0,5,56,103,2287994412
88,19,18,Jits_Linear_8,1,1,48,89,2288009140
88,19,18,Jits_Linear_8,2,5,80,127,2288023860
88,19,18,Jits_Linear_8,3,5,63,98,2288053684
88,19,18,Jits_Linear_8,0,1,48,84,2288616496
88,19,18,Jits_Linear_8,1,5,63,98,2288693544
88,19,18,Jits_Linear_8,2,1,48,47,2288711792
88,19,18,Jits_Linear_8,3,5,56,103,2288733608
88,19,18,Jits_Linear_8,4,5,80,127,2288736604
88,19,18,Jits_Linear_8,0,5,80,127,2289194540
88,19,18,Jits_Linear_8,1,5,56,103,2289274292
88,19,18,Jits_Linear_8,2,1,48,71,2289283932
88,19,18,Jits_Linear_8,3,5,63,98,2289324488
88,19,18,Jits_Linear_8,0,5,80,127,2289774272
88,19,18,Jits_Linear_8,1,5,56,103,2289794284
88,19,18,Jits_Linear_8,2,5,63,98,2289883444
88,19,18,Jits_Linear_8,3,1,48,86,2289904096
88,19,18,Jits_Linear_8,0,5,80,127,2290413840
88,19,18,Jits_Linear_8,1,5,63,98,2290453780
88,19,18,Jits_Linear_8,2,5,56,103,2290493792
88,19,18,Jits_Linear_8,3,1,48,85,2290511732
88,19,18,Jits_Linear_8,0,5,63,98,2290984176
88,19,18,Jits_Linear_8,1,5,80,127,2291043672
88,19,18,Jits_Linear_8,2,5,56,103,2291074492
88,19,18,Jits_Linear_8,3,1,48,95,2291118736
88,19,18,Jits_Linear_8,0,5,56,103,2291584492
88,19,18,Jits_Linear_8,1,5,80,127,2291614244
88,19,18,Jits_Linear_8,2,5,63,98,2291704524
88,19,18,Jits_Linear_8,3,1,48,86,2291707720
88,19,18,Jits_Linear_8,0,5,56,103,2292184356
88,19,18,Jits_Linear_8,1,1,48,110,2292282484
88,19,18,Jits_Linear_8,2,5,80,127,2292294040
88,19,18,Jits_Linear_8,3,5,63,98,2292323568
88,19,18,Jits_Linear_8,0,5,56,103,2292824392
88,19,18,Jits_Linear_8,1,1,48,95,2292864700
88,19,18,Jits_Linear_8,2,5,63,98,2292883756
88,19,18,Jits_Linear_8,3,5,80,127,2292913504
88,19,18,Jits_Linear_8,0,5,56,103,2293383528
88,19,18,Jits_Linear_8,1,1,48,84,2293447856
88,19,18,Jits_Linear_8,2,5,63,98,2293454400
88,19,18,Jits_Linear_8,3,5,80,127,2293473588
88,19,18,Jits_Linear_8,0,5,80,127,2293943608
88,19,18,Jits_Linear_8,1,5,63,98,2293964440
88,19,18,Jits_Linear_8,2,5,56,103,2294014416
88,19,18,Jits_Linear_8,3,1,48,114,2294048176
88,19,18,Jits_Linear_8,0,5,63,98,2294543700
88,19,18,Jits_Linear_8,1,5,80,127,2294553968
88,19,18,Jits_Linear_8,2,1,48,115,2294590048
88,19,18,Jits_Linear_8,3,5,56,103,2294604092
88,19,18,Jits_Linear_8,0,5,63,98,2295124220
88,19,18,Jits_Linear_8,1,1,48,109,2295142180
88,19,18,Jits_Linear_8,2,5,80,127,2295194296
88,19,18,Jits_Linear_8,3,5,56,103,2295213336
88,19,18,Jits_Linear_8,0,1,48,106,2295707136
88,19,18,Jits_Linear_8,1,5,63,98,2295733528
88,19,18,Jits_Linear_8,2,5,80,127,2295736752
88,19,18,Jits_Linear_8,3,5,56,103,2295804692
88,19,18,Jits_Linear_8,0,5,80,127,2296264252
88,19,18,Jits_Linear_8,1,5,56,103,2296283588
88,19,18,Jits_Linear_8,2,5,63,98,2296293712
88,19,18,Jits_Linear_8,3,1,48,120,2296294824
88,19,18,Jits_Linear_8,0,1,48,122,2296858984
88,19,18,Jits_Linear_8,1,5,56,103,2296864184
88,19,18,Jits_Linear_8,2,5,63,98,2296954344
88,19,18,Jits_Linear_8,3,5,80,127,2296958296
88,19,18,Jits_Linear_8,0,5,80,127,2297414156
88,19,18,Jits_Linear_8,1,5,56,103,2297424352
88,19,18,Jits_Linear_8,2,5,63,98,2297443616
88,19,18,Jits_Linear_8,3,1,48,110,2297454180
88,19,18,Jits_Linear_8,0,5,63,98,2297984380
88,19,18,Jits_Linear_8,1,1,48,122,2297987276
88,19,18,Jits_Linear_8,2,5,80,127,2298043644
88,19,18,Jits_Linear_8,3,5,56,103,2298054136
88,19,18,Jits_Linear_8,0,1,48,124,2298576932
88,19,18,Jits_Linear_8,1,5,63,98,2298624236
88,19,18,Jits_Linear_8,2,5,80,127,2298654284
88,19,18,Jits_Linear_8,3,5,56,103,2298694132
88,19,18,Jits_Linear_8,0,1,48,127,2299166244
88,19,18,Jits_Linear_8,1,5,56,103,2299183428
88,19,18,Jits_Linear_8,2,5,80,127,2299193624
88,19,18,Jits_Linear_8,3,5,63,98,2299233640
88,19,18,Jits_Linear_8,0,5,80,127,2299713852
88,19,18,Jits_Linear_8,1,1,48,116,2299739068
88,19,18,Jits_Linear_8,2,5,56,103,2299793672
88,19,18,Jits_Linear_8,3,5,63,98,2299804164
88,19,18,Jits_Linear_8,0,1,48,115,2300323872
88,19,18,Jits_Linear_8,1,5,80,127,2300325504
88,19,18,Jits_Linear_8,2,5,56,103,2300404256
88,19,18,Jits_Linear_8,3,5,63,98,2300414304
88,19,18,Jits_Linear_8,0,5,80,127,2300844328
88,19,18,Jits_Linear_8,1,5,56,103,2300893408
88,19,18,Jits_Linear_8,2,1,48,100,2300938332
88,19,18,Jits_Linear_8,3,5,63,98,2300943828
88,19,18,Jits_Linear_8,0,5,56,103,2301464204
88,19,18,Jits_Linear_8,1,5,63,98,2301467344
88,19,18,Jits_Linear_8,2,1,48,118,2301485904
88,19,18,Jits_Linear_8,3,5,80,127,2301514248
88,19,18,Jits_Linear_8,0,1,48,106,2302036168
88,19,18,Jits_Linear_8,1,5,56,103,2302043464
88,19,18,Jits_Linear_8,2,5,63,98,2302074212
88,19,18,Jits_Linear_8,3,5,80,127,2302083436
88,19,18,Jits_Linear_8,0,5,63,98,2302513508
88,19,18,Jits_Linear_8,1,5,56,103,2302584264
88,19,18,Jits_Linear_8,2,1,48,127,2302604244
88,19,18,Jits_Linear_8,3,5,80,127,2302634236
88,19,18,Jits_Linear_8,0,5,63,98,2303104404
88,19,18,Jits_Linear_8,1,5,56,103,2303113552
88,19,18,Jits_Linear_8,2,5,80,127,2303116620
88,19,18,Jits_Linear_8,3,1,48,113,2303127908
88,19,18,Jits_Linear_8,0,5,80,127,2303604152
88,19,18,Jits_Linear_8,1,1,48,121,2303651172
88,19,18,Jits_Linear_8,2,5,56,103,2303663568
88,19,18,Jits_Linear_8,3,5,63,98,2303753540
88,19,18,Jits_Linear_8,0,5,80,127,2304154128
88,19,18,Jits_Linear_8,1,1,48,119,2304188716
88,19,18,Jits_Linear_8,2,5,56,103,2304254300
88,19,18,Jits_Linear_8,3,5,63,98,2304294300
88,19,18,Jits_Linear_8,0,1,48,113,2304723108
88,19,18,Jits_Linear_8,1,5,56,103,2304754148
88,19,18,Jits_Linear_8,2,5,63,98,2304773412
88,19,18,Jits_Linear_8,3,5,80,127,2304814532
88,19,18,Jits_Linear_8,0,5,63,98,2305274160
88,19,18,Jits_Linear_8,1,1,48,97,2305288888
88,19,18,Jits_Linear_8,2,5,56,103,2305293792
88,19,18,Jits_Linear_8,3,5,80,127,2305394120
88,19,18,Jits_Linear_8,0,5,63,98,2305803584
88,19,18,Jits_Linear_8,1,1,48,120,2305850900
88,19,18,Jits_Linear_8,2,5,80,127,2305914192
88,19,18,Jits_Linear_8,3,5,56,103,2305943940
88,19,18,Jits_Linear_8,0,5,56,103,2306363736
88,19,18,Jits_Linear_8,1,1,48,121,2306389032
88,19,18,Jits_Linear_8,2,5,63,98,2306393332
88,19,18,Jits_Linear_8,3,5,80,127,2306443556
88,19,18,Jits_Linear_8,0,5,63,98,2306873700
88,19,18,Jits_Linear_8,1,1,48,97,2306898616
88,19,18,Jits_Linear_8,2,5,56,103,2306904340
88,19,18,Jits_Linear_8,3,5,80,127,2306953520
88,19,18,Jits_Linear_8,0,1,48,117,2307430716
88,19,18,Jits_Linear_8,1,5,56,103,2307444112
88,19,18,Jits_Linear_8,2,5,63,98,2307463452
88,19,18,Jits_Linear_8,3,5,80,127,2307544428
88,19,18,Jits_Linear_8,0,5,63,98,2307954008
88,19,18,Jits_Linear_8,1,1,48,105,2307963952
88,19,18,Jits_Linear_8,2,5,56,103,2308013572
88,19,18,Jits_Linear_8,3,5,80,127,2308044144
88,19,18,Jits_Linear_8,0,1,48,100,2308489836
88,19,18,Jits_Linear_8,1,5,56,103,2308533480
88,19,18,Jits_Linear_8,2,5,80,127,2308594152
88,19,18,Jits_Linear_8,3,5,63,98,2308634020
88,19,18,Jits_Linear_8,0,5,63,98,2309043532
88,19,18,Jits_Linear_8,1,1,48,110,2309058108
88,19,18,Jits_Linear_8,2,5,56,103,2309104212
88,19,18,Jits_Linear_8,3,5,80,127,2309173584
88,19,18,Jits_Linear_8,0,1,48,103,2309622536
88,19,18,Jits_Linear_8,1,5,56,103,2309654096
88,19,18,Jits_Linear_8,2,5,63,98,2309664292
88,19,18,Jits_Linear_8,3,5,80,127,2309667508
88,19,18,Jits_Linear_8,0,5,63,98,2310123908
88,19,18,Jits_Linear_8,1,1,48,96,2310173556
88,19,18,Jits_Linear_8,2,5,56,103,2310184368
88,19,18,Jits_Linear_8,3,5,80,127,2310187656
88,19,18,Jits_Linear_8,0,5,63,98,2310633992
88,19,18,Jits_Linear_8,1,5,80,127,2310663668
88,19,18,Jits_Linear_8,2,1,48,89,2310667908
88,19,18,Jits_Linear_8,3,5,56,103,2310683972
88,19,18,Jits_Linear_8,0,5,56,103,2311164236
88,19,18,Jits_Linear_8,1,1,48,102,2311189376
88,19,18,Jits_Linear_8,2,5,63,98,2311213460
88,19,18,Jits_Linear_8,3,5,80,127,2311294384
88,19,18,Jits_Linear_8,4,1,48,35,2311301172
88,19,18,Jits_Linear_8,0,5,80,127,2311664060
88,19,18,Jits_Linear_8,1,5,63,98,2311704004
88,19,18,Jits_Linear_8,2,1,48,94,2311707724
88,19,18,Jits_Linear_8,3,5,56,103,2311724380
88,19,18,Jits_Linear_8,0,1,48,108,2312199148
88,19,18,Jits_Linear_8,1,5,56,103,2312253952
88,19,18,Jits_Linear_8,2,5,80,127,2312264072
88,19,18,Jits_Linear_8,3,5,63,98,2312283412
88,19,18,Jits_Linear_8,0,5,56,103,2312753512
88,19,18,Jits_Linear_8,1,1,48,114,2312754628
88,19,18,Jits_Linear_8,2,5,63,98,2312803636
88,19,18,Jits_Linear_8,3,5,80,127,2312834532
88,19,18,Jits_Linear_8,0,5,56,103,2313223624
88,19,18,Jits_Linear_8,1,5,63,98,2313234044
88,19,18,Jits_Linear_8,2,5,80,127,2313284096
88,19,18,Jits_Linear_8,3,1,48,114,2313304972
88,19,18,Jits_Linear_8,0,5,56,103,2313733508
88,19,18,Jits_Linear_8,1,5,80,127,2313736428
88,19,18,Jits_Linear_8,2,1,48,119,2313786220
88,19,18,Jits_Linear_8,3,5,63,98,2313894292
88,19,18,Jits_Linear_8,0,5,63,98,2314263848
88,19,18,Jits_Linear_8,1,1,48,95,2314265636
88,19,18,Jits_Linear_8,2,5,56,103,2314333448
88,19,18,Jits_Linear_8,3,5,80,127,2314373472
88,19,18,Jits_Linear_8,0,1,48,105,2314793240
88,19,18,Jits_Linear_8,1,5,63,98,2314813792
88,19,18,Jits_Linear_8,2,5,56,103,2314904012
88,19,18,Jits_Linear_8,3,5,80,127,2314907080
88,19,18,Jits_Linear_8,0,5,56,103,2315304356
88,19,18,Jits_Linear_8,1,1,48,119,2315338044
88,19,18,Jits_Linear_8,2,5,63,98,2315394364
88,19,18,Jits_Linear_8,3,5,80,127,2315403584
88,19,18,Jits_Linear_8,0,5,56,103,2315783612
88,19,18,Jits_Linear_8,1,5,63,98,2315833740
88,19,18,Jits_Linear_8,2,1,48,105,2315840896
88,19,18,Jits_Linear_8,3,5,80,127,2315864528
88,19,18,Jits_Linear_8,0,1,48,98,2316330624
88,19,18,Jits_Linear_8,1,5,63,98,2316364076
88,19,18,Jits_Linear_8,2,5,80,127,2316374344
88,19,18,Jits_Linear_8,3,5,56,103,2316434068
88,19,18,Jits_Linear_8,0,5,63,98,2316784048
88,19,18,Jits_Linear_8,1,1,48,127,2316826052
88,19,18,Jits_Linear_8,2,5,80,127,2316844356
88,19,18,Jits_Linear_8,3,5,56,103,2316884368
88,19,18,Jits_Linear_8,0,1,48,123,2317302732
88,19,18,Jits_Linear_8,1,5,56,103,2317384124
88,19,18,Jits_Linear_8,2,5,80,127,2317403448
88,19,18,Jits_Linear_8,3,5,63,98,2317424152
88,19,18,Jits_Linear_8,0,5,63,98,2317803976
88,19,18,Jits_Linear_8,1,1,48,111,2317815412
88,19,18,Jits_Linear_8,2,5,56,103,2317824428
88,19,18,Jits_Linear_8,3,5,80,127,2317864292
88,19,18,Jits_Linear_8,0,1,48,103,2318304528
88,19,18,Jits_Linear_8,1,5,63,98,2318313916
88,19,18,Jits_Linear_8,2,5,80,127,2318343668
88,19,18,Jits_Linear_8,3,5,56,103,2318363980
88,19,18,Jits_Linear_8,0,5,80,127,2318783884
88,19,18,Jits_Linear_8,1,1,48,107,2318807680
88,19,18,Jits_Linear_8,2,5,56,103,2318834080
88,19,18,Jits_Linear_8,3,5,63,98,2318893424
88,19,18,Jits_Linear_8,0,5,63,98,2319264256
88,19,18,Jits_Linear_8,1,1,48,114,2319299892
88,19,18,Jits_Linear_8,2,5,56,103,2319383908
88,19,18,Jits_Linear_8,3,5,80,127,2319413568
88,19,18,Jits_Linear_8,0,5,80,127,2319793472
88,19,18,Jits_Linear_8,1,1,48,124,2319794512
88,19,18,Jits_Linear_8,2,5,63,98,2319814148
88,19,18,Jits_Linear_8,3,5,56,103,2319883756
88,19,18,Jits_Linear_8,0,1,48,112,2320291632
88,19,18,Jits_Linear_8,1,5,63,98,2320303884
88,19,18,Jits_Linear_8,2,5,56,103,2320313928
88,19,18,Jits_Linear_8,3,5,80,127,2320393636
88,19,18,Jits_Linear_8,0,1,48,118,2320793680
88,19,18,Jits_Linear_8,1,5,56,103,2320854316
88,19,18,Jits_Linear_8,2,5,80,127,2320883992
88,19,18,Jits_Linear_8,3,5,63,98,2320894248
88,19,18,Jits_Linear_8,0,9999,9999,9999,2210521148
88,19,18,Jits_Linear_8,1,9999,9999,9999,2211341384
88,19,18,Jits_Linear_8,2,9999,9999,9999,2212161640
88,19,18,Jits_Linear_8,3,9999,9999,9999,2212981844
88,19,18,Jits_Linear_8,4,9999,9999,9999,2213802072
88,19,18,Jits_Linear_8,5,9999,9999,9999,2214612028
88,19,18,Jits_Linear_8,6,9999,9999,9999,2215422068
88,19,18,Jits_Linear_8,7,9999,9999,9999,2216232036
88,19,18,Jits_Linear_8,8,9999,9999,9999,2217041984
88,19,18,Jits_Linear_8,9,9999,9999,9999,2217851964
88,19,18,Jits_Linear_8,10,9999,9999,9999,2218651748
88,19,18,Jits_Linear_8,11,9999,9999,9999,2219451504
88,19,18,Jits_Linear_8,12,9999,9999,9999,2220251204
88,19,18,Jits_Linear_8,13,9999,9999,9999,2221052016
88,19,18,Jits_Linear_8,14,9999,9999,9999,2221851756
88,19,18,Jits_Linear_8,15,9999,9999,9999,2222641252
88,19,18,Jits_Linear_8,16,9999,9999,9999,2223431776
88,19,18,Jits_Linear_8,17,9999,9999,9999,2224221288
88,19,18,Jits_Linear_8,18,9999,9999,9999,2225011784
88,19,18,Jits_Linear_8,19,9999,9999,9999,2225801280
88,19,18,Jits_Linear_8,20,9999,9999,9999,2226581564
88,19,18,Jits_Linear_8,21,9999,9999,9999,2227361848
88,19,18,Jits_Linear_8,22,9999,9999,9999,2228141168
88,19,18,Jits_Linear_8,23,9999,9999,9999,2228921456
88,19,18,Jits_Linear_8,24,9999,9999,9999,2229701708
88,19,18,Jits_Linear_8,25,9999,9999,9999,2230471788
88,19,18,Jits_Linear_8,26,9999,9999,9999,2231241800
88,19,18,Jits_Linear_8,27,9999,9999,9999,2232011888
88,19,18,Jits_Linear_8,28,9999,9999,9999,2232781920
88,19,18,Jits_Linear_8,29,9999,9999,9999,2233551964
88,19,18,Jits_Linear_8,30,9999,9999,9999,2234311784
88,19,18,Jits_Linear_8,31,9999,9999,9999,2235071544
88,19,18,Jits_Linear_8,32,9999,9999,9999,2235831380
88,19,18,Jits_Linear_8,33,9999,9999,9999,2236591220
88,19,18,Jits_Linear_8,34,9999,9999,9999,2237352016
88,19,18,Jits_Linear_8,35,9999,9999,9999,2238101584
88,19,18,Jits_Linear_8,36,9999,9999,9999,2238851176
88,19,18,Jits_Linear_8,37,9999,9999,9999,2239601724
88,19,18,Jits_Linear_8,38,9999,9999,9999,2240351344
88,19,18,Jits_Linear_8,39,9999,9999,9999,2241101892
88,19,18,Jits_Linear_8,40,9999,9999,9999,2241841264
88,19,18,Jits_Linear_8,41,9999,9999,9999,2242581604
88,19,18,Jits_Linear_8,42,9999,9999,9999,2243321944
88,19,18,Jits_Linear_8,43,9999,9999,9999,2244061240
88,19,18,Jits_Linear_8,44,9999,9999,9999,2244801644
88,19,18,Jits_Linear_8,45,9999,9999,9999,2245531720
88,19,18,Jits_Linear_8,46,9999,9999,9999,2246261876
88,19,18,Jits_Linear_8,47,9999,9999,9999,2246991924
88,19,18,Jits_Linear_8,48,9999,9999,9999,2247722092
88,19,18,Jits_Linear_8,49,9999,9999,9999,2248451136
88,19,18,Jits_Linear_8,50,9999,9999,9999,2249172084
88,19,18,Jits_Linear_8,51,9999,9999,9999,2249891912
88,19,18,Jits_Linear_8,52,9999,9999,9999,2250611820
88,19,18,Jits_Linear_8,53,9999,9999,9999,2251331708
88,19,18,Jits_Linear_8,54,9999,9999,9999,2252051520
88,19,18,Jits_Linear_8,55,9999,9999,9999,2252761176
88,19,18,Jits_Linear_8,56,9999,9999,9999,2253471824
88,19,18,Jits_Linear_8,57,9999,9999,9999,2254181500
88,19,18,Jits_Linear_8,58,9999,9999,9999,2254891112
88,19,18,Jits_Linear_8,59,9999,9999,9999,2255601764
88,19,18,Jits_Linear_8,60,9999,9999,9999,2256301152
88,19,18,Jits_Linear_8,61,9999,9999,9999,2257001568
88,19,18,Jits_Linear_8,62,9999,9999,9999,2257701992
88,19,18,Jits_Linear_8,63,9999,9999,9999,2258401348
88,19,18,Jits_Linear_8,64,9999,9999,9999,2259101816
88,19,18,Jits_Linear_8,65,9999,9999,9999,2259791940
88,19,18,Jits_Linear_8,66,9999,9999,9999,2260481140
88,19,18,Jits_Linear_8,67,9999,9999,9999,2261171284
88,19,18,Jits_Linear_8,68,9999,9999,9999,2261861444
88,19,18,Jits_Linear_8,69,9999,9999,9999,2262551676
88,19,18,Jits_Linear_8,70,9999,9999,9999,2263231580
88,19,18,Jits_Linear_8,71,9999,9999,9999,2263911548
88,19,18,Jits_Linear_8,72,9999,9999,9999,2264591448
88,19,18,Jits_Linear_8,73,9999,9999,9999,2265271360
88,19,18,Jits_Linear_8,74,9999,9999,9999,2265951304
88,19,18,Jits_Linear_8,75,9999,9999,9999,2266622048
88,19,18,Jits_Linear_8,76,9999,9999,9999,2267291764
88,19,18,Jits_Linear_8,77,9999,9999,9999,2267961452
88,19,18,Jits_Linear_8,78,9999,9999,9999,2268631128
88,19,18,Jits_Linear_8,79,9999,9999,9999,2269301816
88,19,18,Jits_Linear_8,80,9999,9999,9999,2269961324
88,19,18,Jits_Linear_8,81,9999,9999,9999,2270621752
88,19,18,Jits_Linear_8,82,9999,9999,9999,2271281248
88,19,18,Jits_Linear_8,83,9999,9999,9999,2271941720
88,19,18,Jits_Linear_8,84,9999,9999,9999,2272601200
88,19,18,Jits_Linear_8,85,9999,9999,9999,2273251440
88,19,18,Jits_Linear_8,86,9999,9999,9999,2273901660
88,19,18,Jits_Linear_8,87,9999,9999,9999,2274551880
88,19,18,Jits_Linear_8,88,9999,9999,9999,2275201132
88,19,18,Jits_Linear_8,89,9999,9999,9999,2275851340
88,19,18,Jits_Linear_8,90,9999,9999,9999,2276491376
88,19,18,Jits_Linear_8,91,9999,9999,9999,2277131324
88,19,18,Jits_Linear_8,92,9999,9999,9999,2277771384
88,19,18,Jits_Linear_8,93,9999,9999,9999,2278411380
88,19,18,Jits_Linear_8,94,9999,9999,9999,2279051340
88,19,18,Jits_Linear_8,95,9999,9999,9999,2279681092
88,19,18,Jits_Linear_8,96,9999,9999,9999,2280311916
88,19,18,Jits_Linear_8,97,9999,9999,9999,2280941668
88,19,18,Jits_Linear_8,98,9999,9999,9999,2281571400
88,19,18,Jits_Linear_8,99,9999,9999,9999,2282201152
88,19,18,Jits_Linear_8,100,9999,9999,9999,2282821736
88,19,18,Jits_Linear_8,101,9999,9999,9999,2283441212
88,19,18,Jits_Linear_8,102,9999,9999,9999,2284061812
88,19,18,Jits_Linear_8,103,9999,9999,9999,2284681328
88,19,18,Jits_Linear_8,104,9999,9999,9999,2285301864
88,19,18,Jits_Linear_8,105,9999,9999,9999,2285911100
88,19,18,Jits_Linear_8,106,9999,9999,9999,2286521396
88,19,18,Jits_Linear_8,107,9999,9999,9999,2287131724
88,19,18,Jits_Linear_8,108,9999,9999,9999,2287742008
88,19,18,Jits_Linear_8,109,9999,9999,9999,2288351296
88,19,18,Jits_Linear_8,110,9999,9999,9999,2288951364
88,19,18,Jits_Linear_8,111,9999,9999,9999,2289551456
88,19,18,Jits_Linear_8,112,9999,9999,9999,2290151528
88,19,18,Jits_Linear_8,113,9999,9999,9999,2290751612
88,19,18,Jits_Linear_8,114,9999,9999,9999,2291351644
88,19,18,Jits_Linear_8,115,9999,9999,9999,2291941452
88,19,18,Jits_Linear_8,116,9999,9999,9999,2292531280
88,19,18,Jits_Linear_8,117,9999,9999,9999,2293121144
88,19,18,Jits_Linear_8,118,9999,9999,9999,2293711940
88,19,18,Jits_Linear_8,119,9999,9999,9999,2294301756
88,19,18,Jits_Linear_8,120,9999,9999,9999,2294881400
88,19,18,Jits_Linear_8,121,9999,9999,9999,2295461948
88,19,18,Jits_Linear_8,122,9999,9999,9999,2296041568
88,19,18,Jits_Linear_8,123,9999,9999,9999,2296621128
88,19,18,Jits_Linear_8,124,9999,9999,9999,2297201764
88,19,18,Jits_Linear_8,125,9999,9999,9999,2297771136
88,19,18,Jits_Linear_8,126,9999,9999,9999,2298341484
88,19,18,Jits_Linear_8,127,9999,9999,9999,2298911824
88,19,18,Jits_Linear_8,128,9999,9999,9999,2299481204
88,19,18,Jits_Linear_8,129,9999,9999,9999,2300051584
88,19,18,Jits_Linear_8,130,9999,9999,9999,2300611680
88,19,18,Jits_Linear_8,131,9999,9999,9999,2301171768
88,19,18,Jits_Linear_8,132,9999,9999,9999,2301731924
88,19,18,Jits_Linear_8,133,9999,9999,9999,2302292020
88,19,18,Jits_Linear_8,134,9999,9999,9999,2302851164
88,19,18,Jits_Linear_8,135,9999,9999,9999,2303402088
88,19,18,Jits_Linear_8,136,9999,9999,9999,2303951976
88,19,18,Jits_Linear_8,137,9999,9999,9999,2304501876
88,19,18,Jits_Linear_8,138,9999,9999,9999,2305051776
88,19,18,Jits_Linear_8,139,9999,9999,9999,2305601600
88,19,18,Jits_Linear_8,140,9999,9999,9999,2306141292
88,19,18,Jits_Linear_8,141,9999,9999,9999,2306681980
88,19,18,Jits_Linear_8,142,9999,9999,9999,2307221612
88,19,18,Jits_Linear_8,143,9999,9999,9999,2307761220
88,19,18,Jits_Linear_8,144,9999,9999,9999,2308301900
88,19,18,Jits_Linear_8,145,9999,9999,9999,2308831336
88,19,18,Jits_Linear_8,146,9999,9999,9999,2309361756
88,19,18,Jits_Linear_8,147,9999,9999,9999,2309891184
88,19,18,Jits_Linear_8,148,9999,9999,9999,2310421596
88,19,18,Jits_Linear_8,149,9999,9999,9999,2310952064
88,19,18,Jits_Linear_8,150,9999,9999,9999,2311471204
88,19,18,Jits_Linear_8,151,9999,9999,9999,2311991352
88,19,18,Jits_Linear_8,152,9999,9999,9999,2312511572
88,19,18,Jits_Linear_8,153,9999,9999,9999,2313031808
88,19,18,Jits_Linear_8,154,9999,9999,9999,2313551956
88,19,18,Jits_Linear_8,155,9999,9999,9999,2314061916
88,19,18,Jits_Linear_8,156,9999,9999,9999,2314571884
88,19,18,Jits_Linear_8,157,9999,9999,9999,2315081824
88,19,18,Jits_Linear_8,158,9999,9999,9999,2315591792
88,19,18,Jits_Linear_8,159,9999,9999,9999,2316101684
88,19,18,Jits_Linear_8,160,9999,9999,9999,2316601472
88,19,18,Jits_Linear_8,161,9999,9999,9999,2317101148
88,19,18,Jits_Linear_8,162,9999,9999,9999,2317601892
88,19,18,Jits_Linear_8,163,9999,9999,9999,2318101596
88,19,18,Jits_Linear_8,164,9999,9999,9999,2318601284
88,19,18,Jits_Linear_8,165,9999,9999,9999,2319091772
88,19,18,Jits_Linear_8,166,9999,9999,9999,2319581292
88,19,18,Jits_Linear_8,167,9999,9999,9999,2320071764
88,19,18,Jits_Linear_8,168,9999,9999,9999,2320561208
88,19,18,Jits_Linear_8,169,9999,9999,9999,2321051708
88,20,5,ISIP_5,0,5,42,127,2395020724
88,20,5,ISIP_5,1,5,42,127,2395521560
88,20,5,ISIP_5,2,5,42,127,2396021352
88,20,5,ISIP_5,3,5,42,127,2396520696
88,20,5,ISIP_5,4,1,48,110,2396999104
88,20,5,ISIP_5,5,5,42,127,2397020456
88,20,5,ISIP_5,6,1,48,127,2397502312
88,20,5,ISIP_5,7,5,42,127,2397521496
88,20,5,ISIP_5,8,1,48,127,2398007920
88,20,5,ISIP_5,9,5,42,127,2398020892
88,20,5,ISIP_5,10,1,48,127,2398502304
88,20,5,ISIP_5,11,5,42,127,2398520736
88,20,5,ISIP_5,12,1,48,127,2398995864
88,20,5,ISIP_5,13,1,38,23,2399006312
88,20,5,ISIP_5,14,5,42,127,2399021608
88,20,5,ISIP_5,15,5,42,127,2399521056
88,20,5,ISIP_5,16,1,48,92,2399522920
88,20,5,ISIP_5,17,1,48,127,2400019852
88,20,5,ISIP_5,18,5,42,127,2400021648
88,20,5,ISIP_5,19,5,42,127,2400520524
88,20,5,ISIP_5,20,1,48,127,2400532316
88,20,5,ISIP_5,21,5,42,127,2401021488
88,20,5,ISIP_5,22,1,48,127,2401036504
88,20,5,ISIP_5,23,1,48,127,2401520812
88,20,5,ISIP_5,24,5,42,127,2401522448
88,20,5,ISIP_5,25,1,48,127,2402010144
88,20,5,ISIP_5,26,5,42,127,2402020648
88,20,5,ISIP_5,27,1,48,127,2402519448
88,20,5,ISIP_5,28,5,42,127,2402521316
88,20,5,ISIP_5,29,1,48,127,2403007136
88,20,5,ISIP_5,30,5,42,127,2403021456
88,20,5,ISIP_5,31,1,48,127,2403503616
88,20,5,ISIP_5,32,5,42,127,2403520852
88,20,5,ISIP_5,33,1,48,127,2403991488
88,20,5,ISIP_5,34,5,42,127,2404020476
88,20,5,ISIP_5,35,1,48,127,2404487972
88,20,5,ISIP_5,36,5,42,127,2404521440
88,20,5,ISIP_5,37,1,48,127,2404989388
88,20,5,ISIP_5,38,5,42,127,2405021208
88,20,5,ISIP_5,39,1,48,127,2405457640
88,20,5,ISIP_5,40,5,42,127,2405520756
88,20,5,ISIP_5,41,1,48,114,2405954268
88,20,5,ISIP_5,42,5,42,127,2406020448
88,20,5,ISIP_5,43,1,48,127,2406469296
88,20,5,ISIP_5,44,5,42,127,2406521340
88,20,5,ISIP_5,45,1,48,112,2406976020
88,20,5,ISIP_5,46,5,42,127,2407020808
88,20,5,ISIP_5,47,1,48,127,2407465172
88,20,5,ISIP_5,48,5,42,127,2407520628
88,20,5,ISIP_5,49,1,48,127,2407974808
88,20,5,ISIP_5,50,5,42,127,2408021296
88,20,5,ISIP_5,51,1,48,124,2408481684
88,20,5,ISIP_5,52,5,42,127,2408521212
88,20,5,ISIP_5,53,1,48,127,2408980860
88,20,5,ISIP_5,54,5,42,127,2409020760
88,20,5,ISIP_5,55,1,48,127,2409484296
88,20,5,ISIP_5,56,5,42,127,2409520600
88,20,5,ISIP_5,57,1,48,127,2409990020
88,20,5,ISIP_5,58,5,42,127,2410021096
88,20,5,ISIP_5,59,1,48,127,2410496672
88,20,5,ISIP_5,60,5,42,127,2410521016
88,20,5,ISIP_5,61,1,48,127,2410987388
88,20,5,ISIP_5,62,5,42,127,2411020636
88,20,5,ISIP_5,63,1,48,115,2411469508
88,20,5,ISIP_5,64,5,42,127,2411521304
88,20,5,ISIP_5,65,1,48,127,2411979976
88,20,5,ISIP_5,66,5,42,127,2412021072
88,20,5,ISIP_5,67,1,48,113,2412487152
88,20,5,ISIP_5,68,5,42,127,2412520692
88,20,5,ISIP_5,69,1,48,108,2412967548
88,20,5,ISIP_5,70,5,42,127,2413020388
88,20,5,ISIP_5,71,1,48,110,2413459540
88,20,5,ISIP_5,72,5,42,127,2413521276
88,20,5,ISIP_5,73,1,48,127,2413970528
88,20,5,ISIP_5,74,5,42,127,2414021048
88,20,5,ISIP_5,75,1,48,127,2414476952
88,20,5,ISIP_5,76,5,42,127,2414520816
88,20,5,ISIP_5,77,1,48,127,2414968268
88,20,5,ISIP_5,78,1,48,123,2415442728
88,20,5,ISIP_5,79,1,48,127,2415954756
88,20,5,ISIP_5,80,1,48,127,2416449212
88,20,5,ISIP_5,81,1,48,123,2416934840
88,20,5,ISIP_5,82,1,48,124,2417421216
88,20,5,ISIP_5,83,1,48,127,2417922260
88,20,5,ISIP_5,84,1,48,127,2418420672
88,20,5,ISIP_5,85,1,48,125,2418901888
88,20,5,ISIP_5,86,1,48,127,2419395748
88,20,5,ISIP_5,87,1,48,127,2419877264
88,20,5,ISIP_5,88,1,48,127,2420367004
88,20,5,ISIP_5,89,1,48,111,2420853084
88,20,5,ISIP_5,90,1,38,21,2420863312
88,20,5,ISIP_5,91,1,48,105,2421367236
88,20,5,ISIP_5,92,1,48,119,2421848356
88,20,5,ISIP_5,93,1,48,123,2422337944
88,20,5,ISIP_5,94,1,48,127,2422822304
88,20,5,ISIP_5,95,1,48,127,2423319372
88,20,5,ISIP_5,96,1,48,102,2423784732
88,20,5,ISIP_5,97,1,48,124,2424274552
88,20,5,ISIP_5,98,1,48,127,2424764968
88,20,5,ISIP_5,99,1,48,127,2425265184
88,20,5,ISIP_5,100,1,48,100,2425751860
88,20,5,ISIP_5,101,1,48,127,2426230832
88,20,5,ISIP_5,102,1,48,108,2426704020
88,20,5,ISIP_5,103,1,48,122,2427184708
88,20,5,ISIP_5,104,1,48,96,2427671908
88,20,5,ISIP_5,105,1,48,111,2428158284
88,20,5,ISIP_5,106,1,48,111,2428643688
88,20,5,ISIP_5,107,1,48,127,2429143080
88,20,5,ISIP_5,108,1,48,127,2429620628
88,20,5,ISIP_5,109,1,48,127,2430100872
88,20,5,ISIP_5,110,1,48,127,2430588076
88,20,5,ISIP_5,111,1,48,127,2431077040
88,20,5,ISIP_5,112,1,48,127,2431560728
88,20,5,ISIP_5,113,1,48,118,2432042908
88,20,5,ISIP_5,114,1,48,126,2432522704
88,20,5,ISIP_5,115,1,48,120,2433011460
88,20,5,ISIP_5,116,1,48,127,2433497012
88,20,5,ISIP_5,117,1,48,127,2433988476
88,20,5,ISIP_5,118,1,48,127,2434468876
88,20,5,ISIP_5,119,1,48,127,2434971032
88,20,5,ISIP_5,120,1,48,127,2435471992
88,20,5,ISIP_5,121,1,48,127,2435965848
88,20,5,ISIP_5,122,1,48,118,2436464944
88,20,5,ISIP_5,123,1,48,127,2436951592
88,20,5,ISIP_5,124,1,48,127,2437433484
88,20,5,ISIP_5,125,1,48,127,2437912376
88,20,5,ISIP_5,126,1,48,117,2438418728
88,20,5,ISIP_5,127,1,48,127,2438867776
88,20,5,ISIP_5,128,1,48,127,2439351836
88,20,5,ISIP_5,129,1,48,119,2439831928
88,20,5,ISIP_5,130,1,48,125,2440317556
88,20,5,ISIP_5,131,1,48,127,2440816724
88,20,5,ISIP_5,132,1,48,93,2441295144
88,20,5,ISIP_5,133,1,48,127,2441772992
88,20,5,ISIP_5,134,1,48,127,2442274032
88,20,5,ISIP_5,135,1,48,100,2442763848
88,20,5,ISIP_5,136,1,48,127,2443233324
88,20,5,ISIP_5,137,1,48,110,2443714760
88,20,5,ISIP_5,138,1,48,127,2444178324
88,20,5,ISIP_5,139,1,48,121,2444662752
88,20,5,ISIP_5,140,1,38,22,2444673508
88,20,5,ISIP_5,141,1,48,92,2445151680
88,20,5,ISIP_5,142,1,38,20,2445162168
88,20,5,ISIP_5,143,1,48,105,2445637496
88,20,5,ISIP_5,144,1,48,85,2446120284
88,20,5,ISIP_5,145,1,38,20,2446130660
88,20,5,ISIP_5,146,1,48,84,2446606836
88,20,5,ISIP_5,147,1,48,94,2447083188
88,20,5,ISIP_5,148,1,48,127,2447545632
88,20,5,ISIP_5,149,1,48,127,2448035596
88,20,5,ISIP_5,150,1,48,127,2448522048
88,20,5,ISIP_5,151,1,48,125,2449010652
88,20,5,ISIP_5,152,1,48,127,2449496188
88,20,5,ISIP_5,153,1,48,127,2449988772
88,20,5,ISIP_5,154,1,48,127,2450468784
88,20,5,ISIP_5,155,1,48,124,2450937436
88,20,5,ISIP_5,156,1,48,120,2451424412
88,20,5,ISIP_5,157,1,48,122,2451905472
88,20,5,ISIP_5,158,1,38,22,2451915928
88,20,5,ISIP_5,159,1,48,127,2452395024
88,20,5,ISIP_5,160,1,48,124,2452876688
88,20,5,ISIP_5,161,1,48,122,2453369344
88,20,5,ISIP_5,162,1,38,21,2453380172
88,20,5,ISIP_5,163,1,48,114,2453830516
88,20,5,ISIP_5,164,1,48,124,2454329908
88,20,5,ISIP_5,165,1,48,127,2454811048
88,20,5,ISIP_5,166,1,48,126,2455278348
88,20,5,ISIP_5,167,1,48,121,2455753736
88,20,5,ISIP_5,168,1,48,107,2456239436
88,20,5,ISIP_5,169,1,48,127,2456730000
88,20,5,ISIP_5,170,1,48,121,2457236048
88,20,5,ISIP_5,171,1,48,127,2457706044
88,20,5,ISIP_5,172,1,48,121,2458194416
88,20,5,ISIP_5,173,1,48,118,2458669276
88,20,5,ISIP_5,174,1,48,127,2459182872
88,20,5,ISIP_5,175,1,48,127,2459664764
88,20,5,ISIP_5,176,1,48,127,2460172460
88,20,5,ISIP_5,177,1,48,127,2460665040
88,20,5,ISIP_5,178,1,48,124,2461144008
88,20,5,ISIP_5,179,1,48,127,2461655896
88,20,5,ISIP_5,180,1,48,127,2462144144
88,20,5,ISIP_5,181,1,48,125,2462635004
88,20,5,ISIP_5,182,1,48,127,2463127516
88,20,5,ISIP_5,183,1,48,127,2463628180
88,20,5,ISIP_5,184,1,48,119,2464098300
88,20,5,ISIP_5,185,1,48,114,2464597912
88,20,5,ISIP_5,186,1,38,21,2464608668
88,20,5,ISIP_5,187,1,48,98,2465085216
88,20,5,ISIP_5,188,1,48,110,2465573760
88,20,5,ISIP_5,189,1,48,110,2466080632
88,20,5,ISIP_5,190,1,48,99,2466594016
88,20,5,ISIP_5,191,1,48,83,2467084200
88,20,5,ISIP_5,192,1,48,122,2467563252
88,20,5,ISIP_5,193,1,48,99,2468048208
88,20,5,ISIP_5,194,1,48,127,2468548420
88,20,5,ISIP_5,195,1,48,99,2469023728
88,20,5,ISIP_5,196,1,48,125,2469542492
88,20,5,ISIP_5,197,1,48,121,2470043084
88,20,5,ISIP_5,198,1,38,22,2470053832
88,20,5,ISIP_5,199,1,48,121,2470535916
88,20,5,ISIP_5,200,1,48,117,2471035012
88,20,5,ISIP_5,201,1,48,92,2471509680
88,20,5,ISIP_5,202,1,38,20,2471519848
88,20,5,ISIP_5,203,1,48,98,2472008648
88,20,5,ISIP_5,204,1,38,20,2472018876
88,20,5,ISIP_5,205,1,48,124,2472526932
88,20,5,ISIP_5,206,1,48,115,2473004096
88,20,5,ISIP_5,207,1,48,127,2473496904
88,20,5,ISIP_5,208,1,48,127,2473988960
88,20,5,ISIP_5,209,1,48,127,2474464792
88,20,5,ISIP_5,210,1,48,127,2474950568
88,20,5,ISIP_5,0,9999,9999,9999,2395018360
88,20,5,ISIP_5,1,9999,9999,9999,2395519052
88,20,5,ISIP_5,2,9999,9999,9999,2396018768
88,20,5,ISIP_5,3,9999,9999,9999,2396518460
88,20,5,ISIP_5,4,9999,9999,9999,2397018168
88,20,5,ISIP_5,5,9999,9999,9999,2397518912
88,20,5,ISIP_5,6,9999,9999,9999,2398018680
88,20,5,ISIP_5,7,9999,9999,9999,2398518376
88,20,5,ISIP_5,8,9999,9999,9999,2399019096
88,20,5,ISIP_5,9,9999,9999,9999,2399518768
88,20,5,ISIP_5,10,9999,9999,9999,2400018540
88,20,5,ISIP_5,11,9999,9999,9999,2400518236
88,20,5,ISIP_5,12,9999,9999,9999,2401018980
88,20,5,ISIP_5,13,9999,9999,9999,2401518672
88,20,5,ISIP_5,14,9999,9999,9999,2402018360
88,20,5,ISIP_5,15,9999,9999,9999,2402518136
88,20,5,ISIP_5,16,9999,9999,9999,2403018872
88,20,5,ISIP_5,17,9999,9999,9999,2403518564
88,20,5,ISIP_5,18,9999,9999,9999,2404018260
88,20,5,ISIP_5,19,9999,9999,9999,2404519004
88,20,5,ISIP_5,20,9999,9999,9999,2405018700
88,20,5,ISIP_5,21,9999,9999,9999,2405518396
88,20,5,ISIP_5,22,9999,9999,9999,2406018164
88,20,5,ISIP_5,23,9999,9999,9999,2406518904
88,20,5,ISIP_5,24,9999,9999,9999,2407018596
88,20,5,ISIP_5,25,9999,9999,9999,2407518268
88,20,5,ISIP_5,26,9999,9999,9999,2408019008
88,20,5,ISIP_5,27,9999,9999,9999,2408518704
88,20,5,ISIP_5,28,9999,9999,9999,2409018472
88,20,5,ISIP_5,29,9999,9999,9999,2409518168
88,20,5,ISIP_5,30,9999,9999,9999,2410018884
88,20,5,ISIP_5,31,9999,9999,9999,2410518580
88,20,5,ISIP_5,32,9999,9999,9999,2411018348
88,20,5,ISIP_5,33,9999,9999,9999,2411519092
88,20,5,ISIP_5,34,9999,9999,9999,2412018788
88,20,5,ISIP_5,35,9999,9999,9999,2412518480
88,20,5,ISIP_5,36,9999,9999,9999,2413018176
88,20,5,ISIP_5,37,9999,9999,9999,2413518916
88,20,5,ISIP_5,38,9999,9999,9999,2414018612
88,20,5,ISIP_5,39,9999,9999,9999,2414518380
88,20,5,ISIP_5,40,9999,9999,9999,2415019124
88,20,5,ISIP_5,41,9999,9999,9999,2415518812
88,20,5,ISIP_5,42,9999,9999,9999,2416018504
88,20,5,ISIP_5,43,9999,9999,9999,2416518192
88,20,5,ISIP_5,44,9999,9999,9999,2417018932
88,20,5,ISIP_5,45,9999,9999,9999,2417518680
88,20,5,ISIP_5,46,9999,9999,9999,2418018424
88,20,5,ISIP_5,47,9999,9999,9999,2418518116
88,20,5,ISIP_5,48,9999,9999,9999,2419018852
88,20,5,ISIP_5,49,9999,9999,9999,2419518544
88,20,5,ISIP_5,50,9999,9999,9999,2420018232
88,20,5,ISIP_5,51,9999,9999,9999,2420518972
88,20,5,ISIP_5,52,9999,9999,9999,2421018688
88,20,5,ISIP_5,53,9999,9999,9999,2421518452
88,20,5,ISIP_5,54,9999,9999,9999,2422018144
88,20,5,ISIP_5,55,9999,9999,9999,2422518880
88,20,5,ISIP_5,56,9999,9999,9999,2423018572
88,20,5,ISIP_5,57,9999,9999,9999,2423518264
88,20,5,ISIP_5,58,9999,9999,9999,2424019004
88,20,5,ISIP_5,59,9999,9999,9999,2424518768
88,20,5,ISIP_5,60,9999,9999,9999,2425018460
88,20,5,ISIP_5,61,9999,9999,9999,2425518148
88,20,5,ISIP_5,62,9999,9999,9999,2426018888
88,20,5,ISIP_5,63,9999,9999,9999,2426518580
88,20,5,ISIP_5,64,9999,9999,9999,2427018344
88,20,5,ISIP_5,65,9999,9999,9999,2427519080
88,20,5,ISIP_5,66,9999,9999,9999,2428018768
88,20,5,ISIP_5,67,9999,9999,9999,2428518460
88,20,5,ISIP_5,68,9999,9999,9999,2429018200
88,20,5,ISIP_5,69,9999,9999,9999,2429518936
88,20,5,ISIP_5,70,9999,9999,9999,2430018628
88,20,5,ISIP_5,71,9999,9999,9999,2430518320
88,20,5,ISIP_5,72,9999,9999,9999,2431019056
88,20,5,ISIP_5,73,9999,9999,9999,2431518820
88,20,5,ISIP_5,74,9999,9999,9999,2432018512
88,20,5,ISIP_5,75,9999,9999,9999,2432518200
88,20,5,ISIP_5,76,9999,9999,9999,2433018932
88,20,5,ISIP_5,77,9999,9999,9999,2433518696
88,20,5,ISIP_5,78,9999,9999,9999,2434018388
88,20,5,ISIP_5,79,9999,9999,9999,2434518080
88,20,5,ISIP_5,80,9999,9999,9999,2435018820
88,20,5,ISIP_5,81,9999,9999,9999,2435518584
88,20,5,ISIP_5,82,9999,9999,9999,2436018276
88,20,5,ISIP_5,83,9999,9999,9999,2436519012
88,20,5,ISIP_5,84,9999,9999,9999,2437018704
88,20,5,ISIP_5,85,9999,9999,9999,2437518392
88,20,5,ISIP_5,86,9999,9999,9999,2438018140
88,20,5,ISIP_5,87,9999,9999,9999,2438518880
88,20,5,ISIP_5,88,9999,9999,9999,2439018568
88,20,5,ISIP_5,89,9999,9999,9999,2439518308
88,20,5,ISIP_5,90,9999,9999,9999,2440019048
88,20,5,ISIP_5,91,9999,9999,9999,2440518736
88,20,5,ISIP_5,92,9999,9999,9999,2441018428
88,20,5,ISIP_5,93,9999,9999,9999,2441518192
88,20,5,ISIP_5,94,9999,9999,9999,2442018928
88,20,5,ISIP_5,95,9999,9999,9999,2442518620
88,20,5,ISIP_5,96,9999,9999,9999,2443018308
88,20,5,ISIP_5,97,9999,9999,9999,2443519048
88,20,5,ISIP_5,98,9999,9999,9999,2444018740
88,20,5,ISIP_5,99,9999,9999,9999,2444518504
88,20,5,ISIP_5,100,9999,9999,9999,2445018224
88,20,5,ISIP_5,101,9999,9999,9999,2445518924
88,20,5,ISIP_5,102,9999,9999,9999,2446018616
88,20,5,ISIP_5,103,9999,9999,9999,2446518336
88,20,5,ISIP_5,104,9999,9999,9999,2447019072
88,20,5,ISIP_5,105,9999,9999,9999,2447518836
88,20,5,ISIP_5,106,9999,9999,9999,2448018528
88,20,5,ISIP_5,107,9999,9999,9999,2448518220
88,20,5,ISIP_5,108,9999,9999,9999,2449018948
88,20,5,ISIP_5,109,9999,9999,9999,2449518640
88,20,5,ISIP_5,110,9999,9999,9999,2450018380
88,20,5,ISIP_5,111,9999,9999,9999,2450518072
88,20,5,ISIP_5,112,9999,9999,9999,2451018808
88,20,5,ISIP_5,113,9999,9999,9999,2451518556
88,20,5,ISIP_5,114,9999,9999,9999,2452018276
88,20,5,ISIP_5,115,9999,9999,9999,2452519012
88,20,5,ISIP_5,116,9999,9999,9999,2453018704
88,20,5,ISIP_5,117,9999,9999,9999,2453518420
88,20,5,ISIP_5,118,9999,9999,9999,2454018112
88,20,5,ISIP_5,119,9999,9999,9999,2454518848
88,20,5,ISIP_5,120,9999,9999,9999,2455018612
88,20,5,ISIP_5,121,9999,9999,9999,2455518304
88,20,5,ISIP_5,122,9999,9999,9999,2456019040
88,20,5,ISIP_5,123,9999,9999,9999,2456518732
88,20,5,ISIP_5,124,9999,9999,9999,2457018420
88,20,5,ISIP_5,125,9999,9999,9999,2457518184
88,20,5,ISIP_5,126,9999,9999,9999,2458018924
88,20,5,ISIP_5,127,9999,9999,9999,2458518612
88,20,5,ISIP_5,128,9999,9999,9999,2459018304
88,20,5,ISIP_5,129,9999,9999,9999,2459519040
88,20,5,ISIP_5,130,9999,9999,9999,2460018808
88,20,5,ISIP_5,131,9999,9999,9999,2460518496
88,20,5,ISIP_5,132,9999,9999,9999,2461018164
88,20,5,ISIP_5,133,9999,9999,9999,2461518900
88,20,5,ISIP_5,134,9999,9999,9999,2462018668
88,20,5,ISIP_5,135,9999,9999,9999,2462518356
88,20,5,ISIP_5,136,9999,9999,9999,2463019096
88,20,5,ISIP_5,137,9999,9999,9999,2463518784
88,20,5,ISIP_5,138,9999,9999,9999,2464018552
88,20,5,ISIP_5,139,9999,9999,9999,2464518240
88,20,5,ISIP_5,140,9999,9999,9999,2465018932
88,20,5,ISIP_5,141,9999,9999,9999,2465518696
88,20,5,ISIP_5,142,9999,9999,9999,2466018388
88,20,5,ISIP_5,143,9999,9999,9999,2466518080
88,20,5,ISIP_5,144,9999,9999,9999,2467018816
88,20,5,ISIP_5,145,9999,9999,9999,2467518580
88,20,5,ISIP_5,146,9999,9999,9999,2468018272
88,20,5,ISIP_5,147,9999,9999,9999,2468519012
88,20,5,ISIP_5,148,9999,9999,9999,2469018700
88,20,5,ISIP_5,149,9999,9999,9999,2469518392
88,20,5,ISIP_5,150,9999,9999,9999,2470018160
88,20,5,ISIP_5,151,9999,9999,9999,2470518848
88,20,5,ISIP_5,152,9999,9999,9999,2471018612
88,20,5,ISIP_5,153,9999,9999,9999,2471518272
88,20,5,ISIP_5,154,9999,9999,9999,2472019020
88,20,5,ISIP_5,155,9999,9999,9999,2472518760
88,20,5,ISIP_5,156,9999,9999,9999,2473018444
88,20,5,ISIP_5,157,9999,9999,9999,2473518136
88,20,5,ISIP_5,158,9999,9999,9999,2474018872
88,20,5,ISIP_5,159,9999,9999,9999,2474518636
88,21,3,ISIP_8,0,5,42,127,2496615752
88,21,3,ISIP_8,1,5,42,127,2497415656
88,21,3,ISIP_8,2,5,42,127,2498216384
88,21,3,ISIP_8,3,5,42,127,2499016064
88,21,3,ISIP_8,4,5,42,127,2499815748
88,21,3,ISIP_8,5,1,48,95,2499857160
88,21,3,ISIP_8,6,5,42,127,2500615480
88,21,3,ISIP_8,7,1,48,127,2500623308
88,21,3,ISIP_8,8,5,42,127,2501416480
88,21,3,ISIP_8,9,1,48,123,2501429100
88,21,3,ISIP_8,10,5,42,127,2502216068
88,21,3,ISIP_8,11,1,48,103,2502230780
88,21,3,ISIP_8,12,5,42,127,2503015752
88,21,3,ISIP_8,13,1,48,100,2503060612
88,21,3,ISIP_8,14,5,42,127,2503815484
88,21,3,ISIP_8,15,1,48,104,2503834088
88,21,3,ISIP_8,16,1,48,89,2504610540
88,21,3,ISIP_8,17,5,42,127,2504616408
88,21,3,ISIP_8,18,1,48,85,2505372648
88,21,3,ISIP_8,19,5,42,127,2505415992
88,21,3,ISIP_8,20,1,48,95,2506201032
88,21,3,ISIP_8,21,5,42,127,2506215652
88,21,3,ISIP_8,22,1,48,111,2506977656
88,21,3,ISIP_8,23,5,42,127,2507015532
88,21,3,ISIP_8,24,1,48,99,2507809472
88,21,3,ISIP_8,25,5,42,127,2507816388
88,21,3,ISIP_8,26,5,42,127,2508615908
88,21,3,ISIP_8,27,1,48,81,2508629124
88,21,3,ISIP_8,28,5,42,127,2509415664
88,21,3,ISIP_8,29,1,48,105,2509436808
88,21,3,ISIP_8,30,5,42,127,2510215548
88,21,3,ISIP_8,31,1,48,105,2510254572
88,21,3,ISIP_8,32,1,48,104,2511011204
88,21,3,ISIP_8,33,5,42,127,2511016248
88,21,3,ISIP_8,34,1,48,99,2511775632
88,21,3,ISIP_8,35,5,42,127,2511815908
88,21,3,ISIP_8,36,1,48,105,2512598628
88,21,3,ISIP_8,37,5,42,127,2512615792
88,21,3,ISIP_8,38,1,48,92,2513377420
88,21,3,ISIP_8,39,5,42,127,2513415524
88,21,3,ISIP_8,40,1,48,126,2514207520
88,21,3,ISIP_8,41,5,42,127,2514216308
88,21,3,ISIP_8,42,1,48,29,2514559936
88,21,3,ISIP_8,43,5,42,127,2515016172
88,21,3,ISIP_8,44,1,48,112,2515017660
88,21,3,ISIP_8,45,1,48,109,2515802404
88,21,3,ISIP_8,46,5,42,127,2515815776
88,21,3,ISIP_8,47,1,48,88,2516562864
88,21,3,ISIP_8,48,5,42,127,2516615508
88,21,3,ISIP_8,49,1,48,86,2517377216
88,21,3,ISIP_8,50,5,42,127,2517416216
88,21,3,ISIP_8,51,1,48,127,2518177248
88,21,3,ISIP_8,52,5,42,127,2518216172
88,21,3,ISIP_8,53,1,48,119,2518980944
88,21,3,ISIP_8,54,5,42,127,2519015756
88,21,3,ISIP_8,55,1,48,101,2519780676
88,21,3,ISIP_8,56,5,42,127,2519815492
88,21,3,ISIP_8,57,1,48,105,2520602704
88,21,3,ISIP_8,58,1,48,108,2521426748
88,21,3,ISIP_8,59,1,48,109,2522215060
88,21,3,ISIP_8,60,1,48,109,2523011412
88,21,3,ISIP_8,61,1,48,99,2523813680
88,21,3,ISIP_8,62,1,48,105,2524621724
88,21,3,ISIP_8,63,1,48,106,2525462144
88,21,3,ISIP_8,64,1,48,100,2526262472
88,21,3,ISIP_8,65,1,48,101,2527048288
88,21,3,ISIP_8,66,1,48,105,2527853276
88,21,3,ISIP_8,67,1,48,105,2528670508
88,21,3,ISIP_8,68,1,48,83,2529437180
88,21,3,ISIP_8,69,1,48,113,2530247680
88,21,3,ISIP_8,70,1,48,82,2531050556
88,21,3,ISIP_8,71,1,48,79,2531870104
88,21,3,ISIP_8,72,1,48,127,2532677164
88,21,3,ISIP_8,73,1,48,116,2533483420
88,21,3,ISIP_8,74,1,48,106,2534257496
88,21,3,ISIP_8,75,1,48,117,2535052664
88,21,3,ISIP_8,76,1,48,107,2535851272
88,21,3,ISIP_8,77,1,48,104,2536625420
88,21,3,ISIP_8,78,1,48,112,2537443700
88,21,3,ISIP_8,79,1,48,98,2538222932
88,21,3,ISIP_8,80,1,48,114,2539027600
88,21,3,ISIP_8,81,1,48,108,2539776156
88,21,3,ISIP_8,82,1,48,101,2540625936
88,21,3,ISIP_8,83,1,48,127,2541383164
88,21,3,ISIP_8,84,1,48,111,2542201688
88,21,3,ISIP_8,85,1,48,103,2542977856
88,21,3,ISIP_8,86,1,48,108,2543798008
88,21,3,ISIP_8,87,1,48,103,2544608060
88,21,3,ISIP_8,88,1,48,111,2545430016
88,21,3,ISIP_8,89,1,48,98,2546244856
88,21,3,ISIP_8,90,1,48,74,2547047752
88,21,3,ISIP_8,91,1,48,116,2547872016
88,21,3,ISIP_8,92,1,48,107,2548671068
88,21,3,ISIP_8,93,1,48,106,2549474464
88,21,3,ISIP_8,94,1,48,95,2550282496
88,21,3,ISIP_8,95,1,48,95,2551072500
88,21,3,ISIP_8,96,1,48,95,2551873800
88,21,3,ISIP_8,97,1,48,119,2552649748
88,21,3,ISIP_8,98,1,48,87,2553438404
88,21,3,ISIP_8,99,1,48,109,2554223344
88,21,3,ISIP_8,100,1,48,103,2555002340
88,21,3,ISIP_8,101,1,48,105,2555767968
88,21,3,ISIP_8,102,1,48,105,2556487936
88,21,3,ISIP_8,103,1,48,89,2557312520
88,21,3,ISIP_8,104,1,48,95,2558092728
88,21,3,ISIP_8,105,1,48,95,2558831420
88,21,3,ISIP_8,106,1,48,102,2559572708
88,21,3,ISIP_8,107,1,48,114,2560330548
88,21,3,ISIP_8,108,1,48,88,2561061688
88,21,3,ISIP_8,109,1,48,93,2561810328
88,21,3,ISIP_8,110,1,48,95,2562574756
88,21,3,ISIP_8,111,1,48,81,2563352568
88,21,3,ISIP_8,112,1,48,106,2564151480
88,21,3,ISIP_8,113,1,48,115,2564892488
88,21,3,ISIP_8,114,1,48,99,2565627296
88,21,3,ISIP_8,115,1,48,98,2566376984
88,21,3,ISIP_8,116,1,48,106,2567118896
88,21,3,ISIP_8,117,1,48,87,2567905156
88,21,3,ISIP_8,118,1,48,90,2568664796
88,21,3,ISIP_8,119,1,48,62,2569449340
88,21,3,ISIP_8,120,1,38,19,2569459196
88,21,3,ISIP_8,121,1,48,127,2570228908
88,21,3,ISIP_8,122,1,48,115,2570961748
88,21,3,ISIP_8,123,1,48,103,2571728420
88,21,3,ISIP_8,124,1,48,118,2572447068
88,21,3,ISIP_8,125,1,48,72,2573220764
88,21,3,ISIP_8,126,1,48,92,2574005908
88,21,3,ISIP_8,127,1,48,94,2574778716
88,21,3,ISIP_8,128,1,48,94,2575518304
88,21,3,ISIP_8,129,1,48,102,2576304120
88,21,3,ISIP_8,130,1,48,124,2577055156
88,21,3,ISIP_8,131,1,48,107,2577820708
88,21,3,ISIP_8,132,1,48,112,2578552516
88,21,3,ISIP_8,133,1,48,92,2579311632
88,21,3,ISIP_8,134,1,48,97,2580087128
88,21,3,ISIP_8,135,1,48,118,2580851176
88,21,3,ISIP_8,136,1,48,92,2581626076
88,21,3,ISIP_8,137,1,48,94,2582451756
88,21,3,ISIP_8,138,1,48,86,2583230092
88,21,3,ISIP_8,139,1,48,83,2583992724
88,21,3,ISIP_8,140,1,48,89,2584708828
88,21,3,ISIP_8,141,1,48,108,2585520456
88,21,3,ISIP_8,142,1,48,95,2586293480
88,21,3,ISIP_8,143,1,48,122,2587040028
88,21,3,ISIP_8,144,1,48,92,2587813264
88,21,3,ISIP_8,145,1,48,120,2588547100
88,21,3,ISIP_8,146,1,48,92,2589273944
88,21,3,ISIP_8,147,1,48,103,2590047452
88,21,3,ISIP_8,148,1,48,100,2590783576
88,21,3,ISIP_8,149,1,48,102,2591546952
88,21,3,ISIP_8,150,1,48,98,2592279364
88,21,3,ISIP_8,151,1,48,102,2593045732
88,21,3,ISIP_8,152,1,48,80,2593775372
88,21,3,ISIP_8,153,1,48,79,2594580864
88,21,3,ISIP_8,154,1,48,100,2595309912
88,21,3,ISIP_8,155,1,48,118,2596081512
88,21,3,ISIP_8,156,1,48,106,2596826716
88,21,3,ISIP_8,157,1,48,99,2597568252
88,21,3,ISIP_8,158,1,48,106,2598343672
88,21,3,ISIP_8,159,1,48,124,2599111840
88,21,3,ISIP_8,160,1,48,96,2599877764
88,21,3,ISIP_8,161,1,48,120,2600623932
88,21,3,ISIP_8,162,1,48,100,2601360448
88,21,3,ISIP_8,163,1,48,126,2602106840
88,21,3,ISIP_8,164,1,48,90,2602862744
88,21,3,ISIP_8,165,1,48,93,2603622756
88,21,3,ISIP_8,166,1,48,79,2604372640
88,21,3,ISIP_8,167,1,48,83,2605133548
88,21,3,ISIP_8,168,1,48,80,2605845764
88,21,3,ISIP_8,169,1,48,90,2606592836
88,21,3,ISIP_8,170,1,48,89,2607351352
88,21,3,ISIP_8,171,1,48,125,2608106804
88,21,3,ISIP_8,172,1,48,98,2608842204
88,21,3,ISIP_8,173,1,48,127,2609607452
88,21,3,ISIP_8,174,1,48,119,2610329692
88,21,3,ISIP_8,175,1,48,94,2611080356
88,21,3,ISIP_8,176,1,48,81,2611812824
88,21,3,ISIP_8,177,1,48,73,2612601112
88,21,3,ISIP_8,178,1,48,88,2613368904
88,21,3,ISIP_8,179,1,48,108,2614099864
88,21,3,ISIP_8,180,1,48,95,2614836988
88,21,3,ISIP_8,181,1,48,74,2615570968
88,21,3,ISIP_8,182,1,48,76,2616297320
88,21,3,ISIP_8,0,9999,9999,9999,2496613464
88,21,3,ISIP_8,1,9999,9999,9999,2497413220
88,21,3,ISIP_8,2,9999,9999,9999,2498213948
88,21,3,ISIP_8,3,9999,9999,9999,2499013704
88,21,3,ISIP_8,4,9999,9999,9999,2499813460
88,21,3,ISIP_8,5,9999,9999,9999,2500613192
88,21,3,ISIP_8,6,9999,9999,9999,2501413968
88,21,3,ISIP_8,7,9999,9999,9999,2502213704
88,21,3,ISIP_8,8,9999,9999,9999,2503013464
88,21,3,ISIP_8,9,9999,9999,9999,2503813196
88,21,3,ISIP_8,10,9999,9999,9999,2504613972
88,21,3,ISIP_8,11,9999,9999,9999,2505413704
88,21,3,ISIP_8,12,9999,9999,9999,2506213440
88,21,3,ISIP_8,13,9999,9999,9999,2507013172
88,21,3,ISIP_8,14,9999,9999,9999,2507813952
88,21,3,ISIP_8,15,9999,9999,9999,2508613692
88,21,3,ISIP_8,16,9999,9999,9999,2509413452
88,21,3,ISIP_8,17,9999,9999,9999,2510213188
88,21,3,ISIP_8,18,9999,9999,9999,2511013960
88,21,3,ISIP_8,19,9999,9999,9999,2511813696
88,21,3,ISIP_8,20,9999,9999,9999,2512613428
88,21,3,ISIP_8,21,9999,9999,9999,2513413236
88,21,3,ISIP_8,22,9999,9999,9999,2514213944
88,21,3,ISIP_8,23,9999,9999,9999,2515013736
88,21,3,ISIP_8,24,9999,9999,9999,2515813488
88,21,3,ISIP_8,25,9999,9999,9999,2516613220
88,21,3,ISIP_8,26,9999,9999,9999,2517414000
88,21,3,ISIP_8,27,9999,9999,9999,2518213736
88,21,3,ISIP_8,28,9999,9999,9999,2519013468
88,21,3,ISIP_8,29,9999,9999,9999,2519813204
88,21,3,ISIP_8,30,9999,9999,9999,2520613984
88,21,3,ISIP_8,31,9999,9999,9999,2521413716
88,21,3,ISIP_8,32,9999,9999,9999,2522213472
88,21,3,ISIP_8,33,9999,9999,9999,2523013192
88,21,3,ISIP_8,34,9999,9999,9999,2523813968
88,21,3,ISIP_8,35,9999,9999,9999,2524613704
88,21,3,ISIP_8,36,9999,9999,9999,2525413432
88,21,3,ISIP_8,37,9999,9999,9999,2526213236
88,21,3,ISIP_8,38,9999,9999,9999,2527013936
88,21,3,ISIP_8,39,9999,9999,9999,2527813744
88,21,3,ISIP_8,40,9999,9999,9999,2528613424
88,21,3,ISIP_8,41,9999,9999,9999,2529413228
88,21,3,ISIP_8,42,9999,9999,9999,2530214004
88,21,3,ISIP_8,43,9999,9999,9999,2531013732
88,21,3,ISIP_8,44,9999,9999,9999,2531813464
88,21,3,ISIP_8,45,9999,9999,9999,2532613192
88,21,3,ISIP_8,46,9999,9999,9999,2533413968
88,21,3,ISIP_8,47,9999,9999,9999,2534213700
88,21,3,ISIP_8,48,9999,9999,9999,2535013452
88,21,3,ISIP_8,49,9999,9999,9999,2535813180
88,21,3,ISIP_8,50,9999,9999,9999,2536613956
88,21,3,ISIP_8,51,9999,9999,9999,2537413684
88,21,3,ISIP_8,52,9999,9999,9999,2538213488
88,21,3,ISIP_8,53,9999,9999,9999,2539013220
88,21,3,ISIP_8,54,9999,9999,9999,2539813988
88,21,3,ISIP_8,55,9999,9999,9999,2540613724
88,21,3,ISIP_8,56,9999,9999,9999,2541413468
88,21,3,ISIP_8,57,9999,9999,9999,2542213200
88,21,3,ISIP_8,58,9999,9999,9999,2543013976
88,21,3,ISIP_8,59,9999,9999,9999,2543813704
88,21,3,ISIP_8,60,9999,9999,9999,2544613436
88,21,3,ISIP_8,61,9999,9999,9999,2545413172
88,21,3,ISIP_8,62,9999,9999,9999,2546213944
88,21,3,ISIP_8,63,9999,9999,9999,2547013748
88,21,3,ISIP_8,64,9999,9999,9999,2547813428
88,21,3,ISIP_8,65,9999,9999,9999,2548613232
88,21,3,ISIP_8,66,9999,9999,9999,2549414008
88,21,3,ISIP_8,67,9999,9999,9999,2550213736
88,21,3,ISIP_8,68,9999,9999,9999,2551013464
88,21,3,ISIP_8,69,9999,9999,9999,2551813196
88,21,3,ISIP_8,70,9999,9999,9999,2552613972
88,21,3,ISIP_8,71,9999,9999,9999,2553413700
88,21,3,ISIP_8,72,9999,9999,9999,2554213452
88,21,3,ISIP_8,73,9999,9999,9999,2555013176
88,21,3,ISIP_8,74,9999,9999,9999,2555813952
88,21,3,ISIP_8,75,9999,9999,9999,2556613740
88,21,3,ISIP_8,76,9999,9999,9999,2557413468
88,21,3,ISIP_8,77,9999,9999,9999,2558213200
88,21,3,ISIP_8,78,9999,9999,9999,2559013976
88,21,3,ISIP_8,79,9999,9999,9999,2559813704
88,21,3,ISIP_8,80,9999,9999,9999,2560613460
88,21,3,ISIP_8,81,9999,9999,9999,2561413188
88,21,3,ISIP_8,82,9999,9999,9999,2562213964
88,21,3,ISIP_8,83,9999,9999,9999,2563013692
88,21,3,ISIP_8,84,9999,9999,9999,2563813420
88,21,3,ISIP_8,85,9999,9999,9999,2564613224
88,21,3,ISIP_8,86,9999,9999,9999,2565414000
88,21,3,ISIP_8,87,9999,9999,9999,2566213732
88,21,3,ISIP_8,88,9999,9999,9999,2567013484
88,21,3,ISIP_8,89,9999,9999,9999,2567813216
88,21,3,ISIP_8,90,9999,9999,9999,2568613992
88,21,3,ISIP_8,91,9999,9999,9999,2569413720
88,21,3,ISIP_8,92,9999,9999,9999,2570213476
88,21,3,ISIP_8,93,9999,9999,9999,2571013200
88,21,3,ISIP_8,94,9999,9999,9999,2571813976
88,21,3,ISIP_8,95,9999,9999,9999,2572613692
88,21,3,ISIP_8,96,9999,9999,9999,2573413444
88,21,3,ISIP_8,97,9999,9999,9999,2574213176
88,21,3,ISIP_8,98,9999,9999,9999,2575013948
88,21,3,ISIP_8,99,9999,9999,9999,2575813680
88,21,3,ISIP_8,100,9999,9999,9999,2576613484
88,21,3,ISIP_8,101,9999,9999,9999,2577413212
88,21,3,ISIP_8,102,9999,9999,9999,2578213988
88,21,3,ISIP_8,103,9999,9999,9999,2579013716
88,21,3,ISIP_8,104,9999,9999,9999,2579813472
88,21,3,ISIP_8,105,9999,9999,9999,2580613204
88,21,3,ISIP_8,106,9999,9999,9999,2581413980
88,21,3,ISIP_8,107,9999,9999,9999,2582213708
88,21,3,ISIP_8,108,9999,9999,9999,2583013436
88,21,3,ISIP_8,109,9999,9999,9999,2583813168
88,21,3,ISIP_8,110,9999,9999,9999,2584613944
88,21,3,ISIP_8,111,9999,9999,9999,2585413748
88,21,3,ISIP_8,112,9999,9999,9999,2586213428
88,21,3,ISIP_8,113,9999,9999,9999,2587013232
88,21,3,ISIP_8,114,9999,9999,9999,2587814000
88,21,3,ISIP_8,115,9999,9999,9999,2588613732
88,21,3,ISIP_8,116,9999,9999,9999,2589413444
88,21,3,ISIP_8,117,9999,9999,9999,2590213172
88,21,3,ISIP_8,118,9999,9999,9999,2591013948
88,21,3,ISIP_8,119,9999,9999,9999,2591813680
88,21,3,ISIP_8,120,9999,9999,9999,2592613436
88,21,3,ISIP_8,121,9999,9999,9999,2593413236
88,21,3,ISIP_8,122,9999,9999,9999,2594213940
88,21,3,ISIP_8,123,9999,9999,9999,2595013744
88,21,3,ISIP_8,124,9999,9999,9999,2595813472
88,21,3,ISIP_8,125,9999,9999,9999,2596613200
88,21,3,ISIP_8,126,9999,9999,9999,2597413976
88,21,3,ISIP_8,127,9999,9999,9999,2598213708
88,21,3,ISIP_8,128,9999,9999,9999,2599013460
88,21,3,ISIP_8,129,9999,9999,9999,2599813192
88,21,3,ISIP_8,130,9999,9999,9999,2600613968
88,21,3,ISIP_8,131,9999,9999,9999,2601413688
88,21,3,ISIP_8,132,9999,9999,9999,2602213480
88,21,3,ISIP_8,133,9999,9999,9999,2603013208
88,21,3,ISIP_8,134,9999,9999,9999,2603813984
88,21,3,ISIP_8,135,9999,9999,9999,2604613712
88,21,3,ISIP_8,136,9999,9999,9999,2605413468
88,21,3,ISIP_8,137,9999,9999,9999,2606213196
88,21,3,ISIP_8,138,9999,9999,9999,2607013972
88,21,3,ISIP_8,139,9999,9999,9999,2607813700
88,21,3,ISIP_8,140,9999,9999,9999,2608613432
88,21,3,ISIP_8,141,9999,9999,9999,2609413232
88,21,3,ISIP_8,142,9999,9999,9999,2610213936
88,21,3,ISIP_8,143,9999,9999,9999,2611013736
88,21,3,ISIP_8,144,9999,9999,9999,2611813488
88,21,3,ISIP_8,145,9999,9999,9999,2612613216
88,21,3,ISIP_8,146,9999,9999,9999,2613413992
88,21,3,ISIP_8,147,9999,9999,9999,2614213704
88,21,3,ISIP_8,148,9999,9999,9999,2615013432
88,21,3,ISIP_8,149,9999,9999,9999,2615813236
88,22,11,Pattern_Practice,0,5,42,127,2736138600
88,22,11,Pattern_Practice,1,5,42,127,2736639512
88,22,11,Pattern_Practice,2,5,42,127,2737139224
88,22,11,Pattern_Practice,3,5,42,127,2737638720
88,22,11,Pattern_Practice,4,5,42,127,2738138512
88,22,11,Pattern_Practice,5,5,42,127,2738639424
88,22,11,Pattern_Practice,6,5,42,127,2739139140
88,22,11,Pattern_Practice,7,5,42,127,2739638708
88,22,11,Pattern_Practice,8,5,42,127,2740139320
88,22,11,Pattern_Practice,9,1,48,60,2740153884
88,22,11,Pattern_Practice,10,1,48,64,2740400720
88,22,11,Pattern_Practice,11,5,42,127,2740639368
88,22,11,Pattern_Practice,12,1,48,67,2740668144
88,22,11,Pattern_Practice,13,1,48,62,2740917972
88,22,11,Pattern_Practice,14,5,42,127,2741138824
88,22,11,Pattern_Practice,15,1,48,75,2741159148
88,22,11,Pattern_Practice,16,1,38,73,2741182016
88,22,11,Pattern_Practice,17,1,48,67,2741411168
88,22,11,Pattern_Practice,18,5,42,127,2741638448
88,22,11,Pattern_Practice,19,1,48,80,2741683232
88,22,11,Pattern_Practice,20,1,38,69,2741694280
88,22,11,Pattern_Practice,21,1,48,62,2741934504
88,22,11,Pattern_Practice,22,5,42,127,2742139196
88,22,11,Pattern_Practice,23,1,48,73,2742193400
88,22,11,Pattern_Practice,24,1,38,50,2742195848
88,22,11,Pattern_Practice,25,1,48,59,2742445648
88,22,11,Pattern_Practice,26,5,42,127,2742639192
88,22,11,Pattern_Practice,27,1,48,66,2742722420
88,22,11,Pattern_Practice,28,1,38,50,2742762644
88,22,11,Pattern_Practice,29,1,48,60,2742947968
88,22,11,Pattern_Practice,30,1,38,15,2742963804
88,22,11,Pattern_Practice,31,5,42,127,2743138624
88,22,11,Pattern_Practice,32,1,48,53,2743215344
88,22,11,Pattern_Practice,33,1,38,46,2743243972
88,22,11,Pattern_Practice,34,1,48,55,2743471184
88,22,11,Pattern_Practice,35,5,42,127,2743639296
88,22,11,Pattern_Practice,36,1,48,52,2743742644
88,22,11,Pattern_Practice,37,1,38,37,2743770300
88,22,11,Pattern_Practice,38,1,48,47,2743991752
88,22,11,Pattern_Practice,39,5,42,127,2744139344
88,22,11,Pattern_Practice,40,1,48,53,2744261044
88,22,11,Pattern_Practice,41,1,38,54,2744287952
88,22,11,Pattern_Practice,42,1,48,43,2744509400
88,22,11,Pattern_Practice,43,5,42,127,2744639044
88,22,11,Pattern_Practice,44,1,48,55,2744777124
88,22,11,Pattern_Practice,45,1,38,51,2744810764
88,22,11,Pattern_Practice,46,1,48,42,2745028472
88,22,11,Pattern_Practice,47,5,42,127,2745138596
88,22,11,Pattern_Practice,48,1,48,54,2745292984
88,22,11,Pattern_Practice,49,1,38,49,2745311812
88,22,11,Pattern_Practice,50,1,48,45,2745524208
88,22,11,Pattern_Practice,51,5,42,127,2745639416
88,22,11,Pattern_Practice,52,1,48,47,2745797616
88,22,11,Pattern_Practice,53,1,38,52,2745828192
88,22,11,Pattern_Practice,54,1,48,44,2746031320
88,22,11,Pattern_Practice,55,5,42,127,2746138972
88,22,11,Pattern_Practice,56,1,48,47,2746290136
88,22,11,Pattern_Practice,57,1,38,41,2746313008
88,22,11,Pattern_Practice,58,1,48,39,2746545900
88,22,11,Pattern_Practice,59,5,42,127,2746638612
88,22,11,Pattern_Practice,60,1,48,47,2746827016
88,22,11,Pattern_Practice,61,1,38,38,2746829536
88,22,11,Pattern_Practice,62,1,48,38,2747067368
88,22,11,Pattern_Practice,63,5,42,127,2747138312
88,22,11,Pattern_Practice,64,1,48,61,2747333220
88,22,11,Pattern_Practice,65,1,38,52,2747361848
88,22,11,Pattern_Practice,66,1,48,56,2747598408
88,22,11,Pattern_Practice,67,5,42,127,2747639056
88,22,11,Pattern_Practice,68,1,48,60,2747841148
88,22,11,Pattern_Practice,69,1,38,50,2747862892
88,22,11,Pattern_Practice,70,1,48,62,2748092124
88,22,11,Pattern_Practice,71,1,38,15,2748108336
88,22,11,Pattern_Practice,72,5,42,127,2748138960
88,22,11,Pattern_Practice,73,1,38,22,2748147300
88,22,11,Pattern_Practice,74,1,48,48,2748376460
88,22,11,Pattern_Practice,75,1,48,50,2748601300
88,22,11,Pattern_Practice,76,5,42,127,2748638512
88,22,11,Pattern_Practice,77,1,48,53,2748893108
88,22,11,Pattern_Practice,78,5,42,127,2749139240
88,22,11,Pattern_Practice,79,1,48,63,2749164272
88,22,11,Pattern_Practice,80,1,48,67,2749441552
88,22,11,Pattern_Practice,81,5,42,127,2749638988
88,22,11,Pattern_Practice,82,1,48,55,2749673440
88,22,11,Pattern_Practice,83,1,48,63,2749931496
88,22,11,Pattern_Practice,84,1,38,55,2749955488
88,22,11,Pattern_Practice,85,5,42,127,2750138848
88,22,11,Pattern_Practice,86,1,48,61,2750191328
88,22,11,Pattern_Practice,87,1,48,70,2750454924
88,22,11,Pattern_Practice,88,1,38,44,2750477868
88,22,11,Pattern_Practice,89,5,42,127,2750638336
88,22,11,Pattern_Practice,90,1,48,57,2750704060
88,22,11,Pattern_Practice,91,1,48,77,2750984028
88,22,11,Pattern_Practice,92,1,38,64,2751006076
88,22,11,Pattern_Practice,93,5,42,127,2751139232
88,22,11,Pattern_Practice,94,1,48,61,2751225448
88,22,11,Pattern_Practice,95,1,48,70,2751500488
88,22,11,Pattern_Practice,96,1,38,45,2751526644
88,22,11,Pattern_Practice,97,5,42,127,2751639008
88,22,11,Pattern_Practice,98,1,48,63,2751752528
88,22,11,Pattern_Practice,99,1,48,70,2752039008
88,22,11,Pattern_Practice,100,1,38,65,2752064192
88,22,11,Pattern_Practice,101,5,42,127,2752138660
88,22,11,Pattern_Practice,102,1,48,58,2752307812
88,22,11,Pattern_Practice,103,1,48,73,2752595636
88,22,11,Pattern_Practice,104,1,38,57,2752599248
88,22,11,Pattern_Practice,105,5,42,127,2752639372
88,22,11,Pattern_Practice,106,1,48,61,2752845448
88,22,11,Pattern_Practice,107,1,48,78,2753131496
88,22,11,Pattern_Practice,108,1,38,58,2753137416
88,22,11,Pattern_Practice,109,5,42,127,2753140416
88,22,11,Pattern_Practice,110,1,48,56,2753381000
88,22,11,Pattern_Practice,111,5,42,127,2753638948
88,22,11,Pattern_Practice,112,1,48,92,2753661216
88,22,11,Pattern_Practice,113,1,38,65,2753676152
88,22,11,Pattern_Practice,114,1,48,60,2753924756
88,22,11,Pattern_Practice,115,5,42,127,2754138424
88,22,11,Pattern_Practice,116,1,48,82,2754198912
88,22,11,Pattern_Practice,117,1,38,64,2754212804
88,22,11,Pattern_Practice,118,1,48,59,2754457296
88,22,11,Pattern_Practice,119,5,42,127,2754639296
88,22,11,Pattern_Practice,120,1,48,77,2754732272
88,22,11,Pattern_Practice,121,1,38,57,2754746160
88,22,11,Pattern_Practice,122,1,48,66,2754983544
88,22,11,Pattern_Practice,123,5,42,127,2755138924
88,22,11,Pattern_Practice,124,1,48,73,2755254340
88,22,11,Pattern_Practice,125,1,38,57,2755270700
88,22,11,Pattern_Practice,126,1,48,59,2755523264
88,22,11,Pattern_Practice,127,5,42,127,2755638768
88,22,11,Pattern_Practice,128,1,48,71,2755796964
88,22,11,Pattern_Practice,129,1,38,50,2755815200
88,22,11,Pattern_Practice,130,1,48,66,2756070612
88,22,11,Pattern_Practice,131,5,42,127,2756139384
88,22,11,Pattern_Practice,132,1,48,73,2756335560
88,22,11,Pattern_Practice,133,1,38,52,2756357984
88,22,11,Pattern_Practice,134,1,48,64,2756600764
88,22,11,Pattern_Practice,135,5,42,127,2756638948
88,22,11,Pattern_Practice,136,1,38,74,2756876344
88,22,11,Pattern_Practice,137,1,48,69,2756902800
88,22,11,Pattern_Practice,138,1,48,52,2757133452
88,22,11,Pattern_Practice,139,5,42,127,2757138872
88,22,11,Pattern_Practice,140,1,48,74,2757410744
88,22,11,Pattern_Practice,141,1,38,68,2757419108
88,22,11,Pattern_Practice,142,5,42,127,2757638428
88,22,11,Pattern_Practice,143,1,48,60,2757674084
88,22,11,Pattern_Practice,144,1,48,70,2757947172
88,22,11,Pattern_Practice,145,1,38,71,2757956124
88,22,11,Pattern_Practice,146,5,42,127,2758139248
88,22,11,Pattern_Practice,147,1,48,64,2758202952
88,22,11,Pattern_Practice,148,1,38,62,2758490652
88,22,11,Pattern_Practice,149,5,42,127,2758638920
88,22,11,Pattern_Practice,150,1,48,54,2758720876
88,22,11,Pattern_Practice,151,1,48,22,2759108280
88,22,11,Pattern_Practice,152,1,38,24,2759118508
88,22,11,Pattern_Practice,153,5,42,127,2759138660
88,22,11,Pattern_Practice,154,1,48,61,2759351944
88,22,11,Pattern_Practice,155,1,48,77,2759635800
88,22,11,Pattern_Practice,156,5,42,127,2759639428
88,22,11,Pattern_Practice,157,1,38,62,2759656460
88,22,11,Pattern_Practice,158,1,48,58,2759889956
88,22,11,Pattern_Practice,159,5,42,127,2760139072
88,22,11,Pattern_Practice,160,1,48,79,2760163736
88,22,11,Pattern_Practice,161,1,38,57,2760177548
88,22,11,Pattern_Practice,162,1,48,66,2760424584
88,22,11,Pattern_Practice,163,5,42,127,2760638772
88,22,11,Pattern_Practice,164,1,48,80,2760696344
88,22,11,Pattern_Practice,165,1,38,65,2760731552
88,22,11,Pattern_Practice,166,1,48,61,2760967368
88,22,11,Pattern_Practice,167,5,42,127,2761138624
88,22,11,Pattern_Practice,168,1,48,78,2761232624
88,22,11,Pattern_Practice,169,1,38,48,2761243592
88,22,11,Pattern_Practice,170,1,48,60,2761499232
88,22,11,Pattern_Practice,171,5,42,127,2761639220
88,22,11,Pattern_Practice,172,1,48,78,2761758348
88,22,11,Pattern_Practice,173,1,38,58,2761774488
88,22,11,Pattern_Practice,174,1,48,59,2762016956
88,22,11,Pattern_Practice,175,5,42,127,2762138844
88,22,11,Pattern_Practice,176,1,48,71,2762285572
88,22,11,Pattern_Practice,177,1,38,46,2762305076
88,22,11,Pattern_Practice,178,1,48,60,2762517780
88,22,11,Pattern_Practice,179,5,42,127,2762638768
88,22,11,Pattern_Practice,180,1,48,89,2762786764
88,22,11,Pattern_Practice,181,1,38,70,2762800216
88,22,11,Pattern_Practice,182,1,48,62,2763039244
88,22,11,Pattern_Practice,183,5,42,127,2763138616
88,22,11,Pattern_Practice,184,1,48,76,2763316084
88,22,11,Pattern_Practice,185,1,38,63,2763327740
88,22,11,Pattern_Practice,186,1,48,60,2763586136
88,22,11,Pattern_Practice,187,5,42,127,2763639304
88,22,11,Pattern_Practice,188,1,48,70,2763849000
88,22,11,Pattern_Practice,189,1,38,44,2763860052
88,22,11,Pattern_Practice,190,1,48,62,2764109376
88,22,11,Pattern_Practice,191,5,42,127,2764138976
88,22,11,Pattern_Practice,192,1,48,79,2764389088
88,22,11,Pattern_Practice,193,1,38,71,2764394532
88,22,11,Pattern_Practice,194,5,42,127,2764638832
88,22,11,Pattern_Practice,195,1,48,56,2764666856
88,22,11,Pattern_Practice,196,1,48,77,2764928208
88,22,11,Pattern_Practice,197,1,38,65,2764937012
88,22,11,Pattern_Practice,198,5,42,127,2765139256
88,22,11,Pattern_Practice,199,1,48,66,2765192664
88,22,11,Pattern_Practice,200,1,38,61,2765229220
88,22,11,Pattern_Practice,201,1,48,72,2765469296
88,22,11,Pattern_Practice,202,1,38,55,2765489548
88,22,11,Pattern_Practice,203,5,42,127,2765638984
88,22,11,Pattern_Practice,204,1,48,71,2765742876
88,22,11,Pattern_Practice,205,1,48,71,2766013124
88,22,11,Pattern_Practice,206,1,38,67,2766026948
88,22,11,Pattern_Practice,207,5,42,127,2766138684
88,22,11,Pattern_Practice,208,1,48,70,2766268232
88,22,11,Pattern_Practice,209,1,48,71,2766551424
88,22,11,Pattern_Practice,210,1,38,76,2766565392
88,22,11,Pattern_Practice,211,5,42,127,2766638352
88,22,11,Pattern_Practice,212,1,48,68,2766807576
88,22,11,Pattern_Practice,213,1,48,71,2767101908
88,22,11,Pattern_Practice,214,1,38,70,2767112440
88,22,11,Pattern_Practice,215,5,42,127,2767139176
88,22,11,Pattern_Practice,216,1,38,70,2767362704
88,22,11,Pattern_Practice,217,1,48,70,2767368668
88,22,11,Pattern_Practice,218,1,38,80,2767631328
88,22,11,Pattern_Practice,219,1,48,73,2767637848
88,22,11,Pattern_Practice,220,5,42,127,2767639796
88,22,11,Pattern_Practice,221,1,48,71,2767912692
88,22,11,Pattern_Practice,222,5,42,127,2768138628
88,22,11,Pattern_Practice,223,1,38,52,2768180716
88,22,11,Pattern_Practice,224,1,48,73,2768201412
88,22,11,Pattern_Practice,225,1,48,70,2768432960
88,22,11,Pattern_Practice,226,5,42,127,2768639672
88,22,11,Pattern_Practice,227,1,48,49,2768706968
88,22,11,Pattern_Practice,228,1,38,65,2768717568
88,22,11,Pattern_Practice,229,1,48,65,2768959288
88,22,11,Pattern_Practice,230,5,42,127,2769139072
88,22,11,Pattern_Practice,231,1,48,53,2769243716
88,22,11,Pattern_Practice,232,1,38,81,2769257612
88,22,11,Pattern_Practice,233,1,48,66,2769495440
88,22,11,Pattern_Practice,234,5,42,127,2769638696
88,22,11,Pattern_Practice,235,1,48,62,2769758748
88,22,11,Pattern_Practice,236,1,38,75,2769782588
88,22,11,Pattern_Practice,237,1,48,65,2770045700
88,22,11,Pattern_Practice,238,5,42,127,2770138560
88,22,11,Pattern_Practice,239,1,48,62,2770328236
88,22,11,Pattern_Practice,240,1,38,70,2770347740
88,22,11,Pattern_Practice,241,1,48,64,2770584972
88,22,11,Pattern_Practice,242,5,42,127,2770639084
88,22,11,Pattern_Practice,243,1,48,64,2770869144
88,22,11,Pattern_Practice,244,1,38,82,2770881996
88,22,11,Pattern_Practice,245,1,48,63,2771129552
88,22,11,Pattern_Practice,246,5,42,127,2771138860
88,22,11,Pattern_Practice,247,1,48,63,2771414180
88,22,11,Pattern_Practice,248,1,38,75,2771434276
88,22,11,Pattern_Practice,249,5,42,127,2771638788
88,22,11,Pattern_Practice,250,1,48,61,2771665616
88,22,11,Pattern_Practice,251,1,48,71,2771965336
88,22,11,Pattern_Practice,252,1,38,71,2771983120
88,22,11,Pattern_Practice,253,5,42,127,2772139460
88,22,11,Pattern_Practice,254,1,48,65,2772240188
88,22,11,Pattern_Practice,255,1,48,66,2772507672
88,22,11,Pattern_Practice,256,1,38,77,2772529568
88,22,11,Pattern_Practice,257,5,42,127,2772639012
88,22,11,Pattern_Practice,258,1,48,65,2772764348
88,22,11,Pattern_Practice,259,1,48,72,2773039756
88,22,11,Pattern_Practice,260,1,38,81,2773053576
88,22,11,Pattern_Practice,261,5,42,127,2773139408
88,22,11,Pattern_Practice,262,1,48,72,2773310664
88,22,11,Pattern_Practice,263,1,48,76,2773610704
88,22,11,Pattern_Practice,264,1,38,76,2773626684
88,22,11,Pattern_Practice,265,5,42,127,2773638692
88,22,11,Pattern_Practice,266,1,48,73,2773898348
88,22,11,Pattern_Practice,267,5,42,127,2774139164
88,22,11,Pattern_Practice,268,1,48,71,2774166592
88,22,11,Pattern_Practice,269,1,38,76,2774180036
88,22,11,Pattern_Practice,270,1,48,76,2774434396
88,22,11,Pattern_Practice,271,5,42,127,2774638940
88,22,11,Pattern_Practice,272,1,48,78,2774700024
88,22,11,Pattern_Practice,273,1,38,75,2774732844
88,22,11,Pattern_Practice,274,1,48,78,2774975612
88,22,11,Pattern_Practice,275,5,42,127,2775138640
88,22,11,Pattern_Practice,276,1,48,78,2775238620
88,22,11,Pattern_Practice,277,1,38,73,2775273304
88,22,11,Pattern_Practice,278,1,48,73,2775561776
88,22,11,Pattern_Practice,279,5,42,127,2775639548
88,22,11,Pattern_Practice,280,1,48,78,2775826508
88,22,11,Pattern_Practice,281,1,38,81,2775859096
88,22,11,Pattern_Practice,0,9999,9999,9999,2736136312
88,22,11,Pattern_Practice,1,9999,9999,9999,2736637000
88,22,11,Pattern_Practice,2,9999,9999,9999,2737136716
88,22,11,Pattern_Practice,3,9999,9999,9999,2737636432
88,22,11,Pattern_Practice,4,9999,9999,9999,2738136148
88,22,11,Pattern_Practice,5,9999,9999,9999,2738636912
88,22,11,Pattern_Practice,6,9999,9999,9999,2739136628
88,22,11,Pattern_Practice,7,9999,9999,9999,2739636344
88,22,11,Pattern_Practice,8,9999,9999,9999,2740137036
88,22,11,Pattern_Practice,9,9999,9999,9999,2740636784
88,22,11,Pattern_Practice,10,9999,9999,9999,2741136460
88,22,11,Pattern_Practice,11,9999,9999,9999,2741636164
88,22,11,Pattern_Practice,12,9999,9999,9999,2742136908
88,22,11,Pattern_Practice,13,9999,9999,9999,2742636608
88,22,11,Pattern_Practice,14,9999,9999,9999,2743136340
88,22,11,Pattern_Practice,15,9999,9999,9999,2743637068
88,22,11,Pattern_Practice,16,9999,9999,9999,2744136760
88,22,11,Pattern_Practice,17,9999,9999,9999,2744636536
88,22,11,Pattern_Practice,18,9999,9999,9999,2745136232
88,22,11,Pattern_Practice,19,9999,9999,9999,2745636984
88,22,11,Pattern_Practice,20,9999,9999,9999,2746136684
88,22,11,Pattern_Practice,21,9999,9999,9999,2746636400
88,22,11,Pattern_Practice,22,9999,9999,9999,2747136100
88,22,11,Pattern_Practice,23,9999,9999,9999,2747636844
88,22,11,Pattern_Practice,24,9999,9999,9999,2748136528
88,22,11,Pattern_Practice,25,9999,9999,9999,2748636228
88,22,11,Pattern_Practice,26,9999,9999,9999,2749136952
88,22,11,Pattern_Practice,27,9999,9999,9999,2749636700
88,22,11,Pattern_Practice,28,9999,9999,9999,2750136412
88,22,11,Pattern_Practice,29,9999,9999,9999,2750636124
88,22,11,Pattern_Practice,30,9999,9999,9999,2751136872
88,22,11,Pattern_Practice,31,9999,9999,9999,2751636572
88,22,11,Pattern_Practice,32,9999,9999,9999,2752136300
88,22,11,Pattern_Practice,33,9999,9999,9999,2752637012
88,22,11,Pattern_Practice,34,9999,9999,9999,2753136728
88,22,11,Pattern_Practice,35,9999,9999,9999,2753636436
88,22,11,Pattern_Practice,36,9999,9999,9999,2754136136
88,22,11,Pattern_Practice,37,9999,9999,9999,2754636860
88,22,11,Pattern_Practice,38,9999,9999,9999,2755136636
88,22,11,Pattern_Practice,39,9999,9999,9999,2755636336
88,22,11,Pattern_Practice,40,9999,9999,9999,2756137020
88,22,11,Pattern_Practice,41,9999,9999,9999,2756636736
88,22,11,Pattern_Practice,42,9999,9999,9999,2757136436
88,22,11,Pattern_Practice,43,9999,9999,9999,2757636216
88,22,11,Pattern_Practice,44,9999,9999,9999,2758136888
88,22,11,Pattern_Practice,45,9999,9999,9999,2758636632
88,22,11,Pattern_Practice,46,9999,9999,9999,2759136376
88,22,11,Pattern_Practice,47,9999,9999,9999,2759637068
88,22,11,Pattern_Practice,48,9999,9999,9999,2760136788
88,22,11,Pattern_Practice,49,9999,9999,9999,2760636488
88,22,11,Pattern_Practice,50,9999,9999,9999,2761136188
88,22,11,Pattern_Practice,51,9999,9999,9999,2761636932
88,22,11,Pattern_Practice,52,9999,9999,9999,2762136632
88,22,11,Pattern_Practice,53,9999,9999,9999,2762636408
88,22,11,Pattern_Practice,54,9999,9999,9999,2763136108
88,22,11,Pattern_Practice,55,9999,9999,9999,2763636792
88,22,11,Pattern_Practice,56,9999,9999,9999,2764136544
88,22,11,Pattern_Practice,57,9999,9999,9999,2764636248
88,22,11,Pattern_Practice,58,9999,9999,9999,2765136972
88,22,11,Pattern_Practice,59,9999,9999,9999,2765636696
88,22,11,Pattern_Practice,60,9999,9999,9999,2766136396
88,22,11,Pattern_Practice,61,9999,9999,9999,2766636140
88,22,11,Pattern_Practice,62,9999,9999,9999,2767136888
88,22,11,Pattern_Practice,63,9999,9999,9999,2767636560
88,22,11,Pattern_Practice,64,9999,9999,9999,2768136268
88,22,11,Pattern_Practice,65,9999,9999,9999,2768637012
88,22,11,Pattern_Practice,66,9999,9999,9999,2769136712
88,22,11,Pattern_Practice,67,9999,9999,9999,2769636412
88,22,11,Pattern_Practice,68,9999,9999,9999,2770136124
88,22,11,Pattern_Practice,69,9999,9999,9999,2770636872
88,22,11,Pattern_Practice,70,9999,9999,9999,2771136576
88,22,11,Pattern_Practice,71,9999,9999,9999,2771636280
88,22,11,Pattern_Practice,72,9999,9999,9999,2772137028
88,22,11,Pattern_Practice,73,9999,9999,9999,2772636728
88,22,11,Pattern_Practice,74,9999,9999,9999,2773136468
88,22,11,Pattern_Practice,75,9999,9999,9999,2773636180
88,22,11,Pattern_Practice,76,9999,9999,9999,2774136952
88,22,11,Pattern_Practice,77,9999,9999,9999,2774636652
88,22,11,Pattern_Practice,78,9999,9999,9999,2775136352
88,22,11,Pattern_Practice,79,9999,9999,9999,2775637116
88,23,13,Improv_Metronome,0,1,48,43,2808269320
88,23,13,Improv_Metronome,1,5,42,127,2808373608
88,23,13,Improv_Metronome,2,5,42,127,2808874372
88,23,13,Improv_Metronome,3,5,42,127,2809374160
88,23,13,Improv_Metronome,4,5,42,127,2809873804
88,23,13,Improv_Metronome,5,5,42,127,2810373372
88,23,13,Improv_Metronome,6,5,42,127,2810874356
88,23,13,Improv_Metronome,7,5,42,127,2811373924
88,23,13,Improv_Metronome,8,5,42,127,2811873716
88,23,13,Improv_Metronome,9,1,48,91,2812333300
88,23,13,Improv_Metronome,10,5,42,127,2812374396
88,23,13,Improv_Metronome,11,1,48,68,2812546792
88,23,13,Improv_Metronome,12,1,48,64,2812747380
88,23,13,Improv_Metronome,13,5,42,127,2812874056
88,23,13,Improv_Metronome,14,1,48,75,2812936864
88,23,13,Improv_Metronome,15,1,48,66,2813212420
88,23,13,Improv_Metronome,16,5,42,127,2813373876
88,23,13,Improv_Metronome,17,1,48,62,2813510508
88,23,13,Improv_Metronome,18,1,48,78,2813779364
88,23,13,Improv_Metronome,19,5,42,127,2813873640
88,23,13,Improv_Metronome,20,1,48,70,2814000612
88,23,13,Improv_Metronome,21,1,48,82,2814239740
88,23,13,Improv_Metronome,22,5,42,127,2814374344
88,23,13,Improv_Metronome,23,1,48,74,2814466552
88,23,13,Improv_Metronome,24,1,48,78,2814694612
88,23,13,Improv_Metronome,25,5,42,127,2814873944
88,23,13,Improv_Metronome,26,1,48,85,2814914384
88,23,13,Improv_Metronome,27,1,48,95,2814941368
88,23,13,Improv_Metronome,28,1,48,67,2815129864
88,23,13,Improv_Metronome,29,1,48,75,2815354776
88,23,13,Improv_Metronome,30,5,42,127,2815373812
88,23,13,Improv_Metronome,31,1,48,80,2815576208
88,23,13,Improv_Metronome,32,1,48,90,2815592788
88,23,13,Improv_Metronome,33,1,48,74,2815783796
88,23,13,Improv_Metronome,34,5,42,127,2815874364
88,23,13,Improv_Metronome,35,1,48,93,2816004472
88,23,13,Improv_Metronome,36,1,48,90,2816017544
88,23,13,Improv_Metronome,37,1,48,71,2816235276
88,23,13,Improv_Metronome,38,5,42,127,2816373996
88,23,13,Improv_Metronome,39,1,48,69,2816459920
88,23,13,Improv_Metronome,40,1,48,84,2816670780
88,23,13,Improv_Metronome,41,5,42,127,2816873968
88,23,13,Improv_Metronome,42,1,48,61,2816874936
88,23,13,Improv_Metronome,43,1,48,76,2817097800
88,23,13,Improv_Metronome,44,1,48,82,2817312616
88,23,13,Improv_Metronome,45,5,42,127,2817373712
88,23,13,Improv_Metronome,46,1,48,79,2817517136
88,23,13,Improv_Metronome,47,1,48,89,2817722464
88,23,13,Improv_Metronome,48,1,48,47,2817758936
88,23,13,Improv_Metronome,49,5,42,127,2817874244
88,23,13,Improv_Metronome,50,1,48,78,2817951488
88,23,13,Improv_Metronome,51,1,48,79,2818172000
88,23,13,Improv_Metronome,52,1,48,80,2818372000
88,23,13,Improv_Metronome,53,5,42,127,2818373964
88,23,13,Improv_Metronome,54,1,48,95,2818382600
88,23,13,Improv_Metronome,55,1,48,81,2818584784
88,23,13,Improv_Metronome,56,1,48,40,2818628216
88,23,13,Improv_Metronome,57,1,48,93,2818818728
88,23,13,Improv_Metronome,58,5,42,127,2818873740
88,23,13,Improv_Metronome,59,1,48,97,2819033272
88,23,13,Improv_Metronome,60,1,38,24,2819043800
88,23,13,Improv_Metronome,61,1,48,93,2819234504
88,23,13,Improv_Metronome,62,5,42,127,2819373276
88,23,13,Improv_Metronome,63,1,48,96,2819445980
88,23,13,Improv_Metronome,64,1,48,76,2819461668
88,23,13,Improv_Metronome,65,1,48,83,2819674320
88,23,13,Improv_Metronome,66,1,48,47,2819713272
88,23,13,Improv_Metronome,67,5,42,127,2819874176
88,23,13,Improv_Metronome,68,1,48,78,2819893900
88,23,13,Improv_Metronome,69,1,48,93,2820101768
88,23,13,Improv_Metronome,70,1,48,98,2820114160
88,23,13,Improv_Metronome,71,1,48,83,2820304448
88,23,13,Improv_Metronome,72,5,42,127,2820373744
88,23,13,Improv_Metronome,73,1,48,95,2820539860
88,23,13,Improv_Metronome,74,1,48,99,2820747504
88,23,13,Improv_Metronome,75,5,42,127,2820873700
88,23,13,Improv_Metronome,76,1,48,89,2820960472
88,23,13,Improv_Metronome,77,1,48,118,2821166516
88,23,13,Improv_Metronome,78,5,42,127,2821374272
88,23,13,Improv_Metronome,79,1,48,96,2821398480
88,23,13,Improv_Metronome,80,1,48,92,2821619816
88,23,13,Improv_Metronome,81,1,48,89,2821804936
88,23,13,Improv_Metronome,82,1,48,56,2821840668
88,23,13,Improv_Metronome,83,5,42,127,2821873988
88,23,13,Improv_Metronome,84,1,48,87,2822012952
88,23,13,Improv_Metronome,85,1,48,42,2822057284
88,23,13,Improv_Metronome,86,1,48,99,2822237404
88,23,13,Improv_Metronome,87,5,42,127,2822373848
88,23,13,Improv_Metronome,88,1,48,104,2822458272
88,23,13,Improv_Metronome,89,1,48,84,2822473432
88,23,13,Improv_Metronome,90,1,48,91,2822651984
88,23,13,Improv_Metronome,91,1,48,113,2822865456
88,23,13,Improv_Metronome,92,5,42,127,2822873568
88,23,13,Improv_Metronome,93,1,48,107,2822882580
88,23,13,Improv_Metronome,94,1,48,63,2822904176
88,23,13,Improv_Metronome,95,1,48,86,2823097904
88,23,13,Improv_Metronome,96,1,48,93,2823304048
88,23,13,Improv_Metronome,97,5,42,127,2823374168
88,23,13,Improv_Metronome,98,1,48,99,2823506172
88,23,13,Improv_Metronome,99,1,48,86,2823523804
88,23,13,Improv_Metronome,100,1,48,103,2823712796
88,23,13,Improv_Metronome,101,1,48,57,2823748752
88,23,13,Improv_Metronome,102,5,42,127,2823873856
88,23,13,Improv_Metronome,103,1,48,92,2823925072
88,23,13,Improv_Metronome,104,1,48,112,2824137804
88,23,13,Improv_Metronome,105,1,48,99,2824157228
88,23,13,Improv_Metronome,106,1,48,109,2824338688
88,23,13,Improv_Metronome,107,5,42,127,2824373728
88,23,13,Improv_Metronome,108,1,48,120,2824544480
88,23,13,Improv_Metronome,109,1,48,62,2824579464
88,23,13,Improv_Metronome,110,1,48,97,2824757084
88,23,13,Improv_Metronome,111,1,48,50,2824798452
88,23,13,Improv_Metronome,112,5,42,127,2824874328
88,23,13,Improv_Metronome,113,1,48,100,2824976988
88,23,13,Improv_Metronome,114,1,48,100,2825178944
88,23,13,Improv_Metronome,115,1,48,50,2825218568
88,23,13,Improv_Metronome,116,5,42,127,2825374040
88,23,13,Improv_Metronome,117,1,48,100,2825388528
88,23,13,Improv_Metronome,118,1,48,52,2825431368
88,23,13,Improv_Metronome,119,1,48,113,2825605352
88,23,13,Improv_Metronome,120,1,48,127,2825831768
88,23,13,Improv_Metronome,121,1,38,111,2825842364
88,23,13,Improv_Metronome,122,5,42,127,2825873668
88,23,13,Improv_Metronome,123,1,48,87,2826043912
88,23,13,Improv_Metronome,124,1,38,127,2826274440
88,23,13,Improv_Metronome,125,1,48,127,2826279880
88,23,13,Improv_Metronome,126,5,42,127,2826373572
88,23,13,Improv_Metronome,127,1,48,90,2826458284
88,23,13,Improv_Metronome,128,1,48,41,2826499548
88,23,13,Improv_Metronome,129,1,48,114,2826716088
88,23,13,Improv_Metronome,130,5,42,127,2826874256
88,23,13,Improv_Metronome,131,1,48,105,2826944096
88,23,13,Improv_Metronome,132,1,38,116,2826963376
88,23,13,Improv_Metronome,133,1,48,95,2827154832
88,23,13,Improv_Metronome,134,1,48,93,2827369732
88,23,13,Improv_Metronome,135,5,42,127,2827373880
88,23,13,Improv_Metronome,136,1,48,111,2827604912
88,23,13,Improv_Metronome,137,1,38,101,2827610952
88,23,13,Improv_Metronome,138,1,48,105,2827811660
88,23,13,Improv_Metronome,139,5,42,127,2827873728
88,23,13,Improv_Metronome,140,1,48,109,2828012216
88,23,13,Improv_Metronome,141,1,38,116,2828016012
88,23,13,Improv_Metronome,142,1,48,56,2828045084
88,23,13,Improv_Metronome,143,1,48,107,2828269992
88,23,13,Improv_Metronome,144,1,48,42,2828317844
88,23,13,Improv_Metronome,145,5,42,127,2828374520
88,23,13,Improv_Metronome,146,1,48,89,2828482716
88,23,13,Improv_Metronome,147,1,48,105,2828676968
88,23,13,Improv_Metronome,148,1,38,108,2828689288
88,23,13,Improv_Metronome,149,5,42,127,2828873956
88,23,13,Improv_Metronome,150,1,48,102,2828890416
88,23,13,Improv_Metronome,151,1,48,93,2829123764
88,23,13,Improv_Metronome,152,1,48,102,2829331176
88,23,13,Improv_Metronome,153,1,38,110,2829347836
88,23,13,Improv_Metronome,154,5,42,127,2829373752
88,23,13,Improv_Metronome,155,1,48,99,2829532132
88,23,13,Improv_Metronome,156,1,48,105,2829756684
88,23,13,Improv_Metronome,157,1,38,100,2829763992
88,23,13,Improv_Metronome,158,1,48,49,2829799420
88,23,13,Improv_Metronome,159,5,42,127,2829873788
88,23,13,Improv_Metronome,160,1,48,92,2829968920
88,23,13,Improv_Metronome,161,1,48,82,2830155072
88,23,13,Improv_Metronome,162,5,42,127,2830374348
88,23,13,Improv_Metronome,163,1,48,116,2830378068
88,23,13,Improv_Metronome,164,1,38,115,2830383952
88,23,13,Improv_Metronome,165,1,48,95,2830594632
88,23,13,Improv_Metronome,166,1,48,93,2830815884
88,23,13,Improv_Metronome,167,5,42,127,2830873892
88,23,13,Improv_Metronome,168,1,48,116,2831026992
88,23,13,Improv_Metronome,169,1,38,104,2831038716
88,23,13,Improv_Metronome,170,1,48,122,2831247148
88,23,13,Improv_Metronome,171,5,42,127,2831373800
88,23,13,Improv_Metronome,172,1,48,122,2831467448
88,23,13,Improv_Metronome,173,1,38,93,2831470800
88,23,13,Improv_Metronome,174,1,48,92,2831660732
88,23,13,Improv_Metronome,175,5,42,127,2831874548
88,23,13,Improv_Metronome,176,1,48,106,2831900032
88,23,13,Improv_Metronome,177,1,38,20,2831910556
88,23,13,Improv_Metronome,178,1,48,108,2832119968
88,23,13,Improv_Metronome,179,1,38,110,2832147396
88,23,13,Improv_Metronome,180,1,48,82,2832349552
88,23,13,Improv_Metronome,181,5,42,127,2832374116
88,23,13,Improv_Metronome,182,1,48,85,2832569700
88,23,13,Improv_Metronome,183,1,48,113,2832797016
88,23,13,Improv_Metronome,184,1,38,103,2832812628
88,23,13,Improv_Metronome,185,5,42,127,2832873772
88,23,13,Improv_Metronome,186,1,48,98,2833007992
88,23,13,Improv_Metronome,187,1,48,115,2833235380
88,23,13,Improv_Metronome,188,1,38,103,2833253536
88,23,13,Improv_Metronome,189,5,42,127,2833373652
88,23,13,Improv_Metronome,190,1,48,84,2833453292
88,23,13,Improv_Metronome,191,1,48,112,2833686432
88,23,13,Improv_Metronome,192,5,42,127,2833874372
88,23,13,Improv_Metronome,193,1,48,112,2833892296
88,23,13,Improv_Metronome,194,1,38,21,2833902904
88,23,13,Improv_Metronome,195,1,38,97,2833922108
88,23,13,Improv_Metronome,196,1,48,79,2834121276
88,23,13,Improv_Metronome,197,1,48,102,2834353676
88,23,13,Improv_Metronome,198,5,42,127,2834373908
88,23,13,Improv_Metronome,199,1,48,121,2834566352
88,23,13,Improv_Metronome,200,1,38,95,2834584500
88,23,13,Improv_Metronome,201,1,48,106,2834790020
88,23,13,Improv_Metronome,202,5,42,127,2834873604
88,23,13,Improv_Metronome,203,1,48,127,2835009024
88,23,13,Improv_Metronome,204,1,38,117,2835026996
88,23,13,Improv_Metronome,205,1,48,100,2835260464
88,23,13,Improv_Metronome,206,5,42,127,2835373672
88,23,13,Improv_Metronome,207,1,48,97,2835465728
88,23,13,Improv_Metronome,208,1,48,122,2835683396
88,23,13,Improv_Metronome,209,1,38,21,2835693920
88,23,13,Improv_Metronome,210,1,38,103,2835700928
88,23,13,Improv_Metronome,211,5,42,127,2835874336
88,23,13,Improv_Metronome,212,1,48,111,2835912236
88,23,13,Improv_Metronome,213,1,48,91,2836135360
88,23,13,Improv_Metronome,214,1,48,124,2836346812
88,23,13,Improv_Metronome,215,5,42,127,2836373852
88,23,13,Improv_Metronome,216,1,38,112,2836385572
88,23,13,Improv_Metronome,217,1,48,108,2836570072
88,23,13,Improv_Metronome,218,1,48,127,2836819380
88,23,13,Improv_Metronome,219,1,38,109,2836829384
88,23,13,Improv_Metronome,220,5,42,127,2836873548
88,23,13,Improv_Metronome,221,1,48,126,2837070200
88,23,13,Improv_Metronome,222,1,48,110,2837292800
88,23,13,Improv_Metronome,223,5,42,127,2837374312
88,23,13,Improv_Metronome,224,1,48,98,2837479288
88,23,13,Improv_Metronome,225,1,38,95,2837479872
88,23,13,Improv_Metronome,226,1,48,127,2837739468
88,23,13,Improv_Metronome,227,5,42,127,2837874000
88,23,13,Improv_Metronome,228,1,48,94,2837980340
88,23,13,Improv_Metronome,229,1,48,114,2838191720
88,23,13,Improv_Metronome,230,1,38,102,2838224832
88,23,13,Improv_Metronome,231,5,42,127,2838373776
88,23,13,Improv_Metronome,232,1,48,91,2838410852
88,23,13,Improv_Metronome,233,1,48,106,2838641380
88,23,13,Improv_Metronome,234,1,38,102,2838658040
88,23,13,Improv_Metronome,235,5,42,127,2838873548
88,23,13,Improv_Metronome,236,1,48,89,2838880484
88,23,13,Improv_Metronome,237,1,48,74,2839085632
88,23,13,Improv_Metronome,238,1,48,115,2839306888
88,23,13,Improv_Metronome,239,1,38,103,2839307544
88,23,13,Improv_Metronome,240,5,42,127,2839374292
88,23,13,Improv_Metronome,241,1,48,80,2839534992
88,23,13,Improv_Metronome,242,1,48,67,2839755872
88,23,13,Improv_Metronome,243,5,42,127,2839873920
88,23,13,Improv_Metronome,244,1,48,117,2839968996
88,23,13,Improv_Metronome,245,1,38,104,2839996728
88,23,13,Improv_Metronome,246,1,48,105,2840185636
88,23,13,Improv_Metronome,247,5,42,127,2840373548
88,23,13,Improv_Metronome,248,1,48,124,2840424112
88,23,13,Improv_Metronome,249,1,38,106,2840429032
88,23,13,Improv_Metronome,250,1,48,94,2840676740
88,23,13,Improv_Metronome,251,5,42,127,2840874368
88,23,13,Improv_Metronome,252,1,48,89,2840893196
88,23,13,Improv_Metronome,253,1,38,106,2841102932
88,23,13,Improv_Metronome,254,1,48,92,2841106200
88,23,13,Improv_Metronome,255,1,48,82,2841333788
88,23,13,Improv_Metronome,256,5,42,127,2841373912
88,23,13,Improv_Metronome,257,1,48,81,2841564032
88,23,13,Improv_Metronome,258,1,48,110,2841767860
88,23,13,Improv_Metronome,259,1,38,90,2841794096
88,23,13,Improv_Metronome,260,5,42,127,2841873700
88,23,13,Improv_Metronome,261,1,48,90,2841981692
88,23,13,Improv_Metronome,262,1,48,118,2842205564
88,23,13,Improv_Metronome,263,1,38,109,2842214896
88,23,13,Improv_Metronome,264,5,42,127,2842373608
88,23,13,Improv_Metronome,265,1,48,88,2842452820
88,23,13,Improv_Metronome,266,1,48,91,2842680408
88,23,13,Improv_Metronome,267,5,42,127,2842874176
88,23,13,Improv_Metronome,268,1,48,104,2842885300
88,23,13,Improv_Metronome,269,1,38,106,2842889616
88,23,13,Improv_Metronome,270,1,48,101,2843118848
88,23,13,Improv_Metronome,271,1,48,83,2843332396
88,23,13,Improv_Metronome,272,5,42,127,2843374020
88,23,13,Improv_Metronome,273,1,48,115,2843581120
88,23,13,Improv_Metronome,274,1,38,21,2843591724
88,23,13,Improv_Metronome,275,1,38,100,2843599184
88,23,13,Improv_Metronome,276,1,48,100,2843798116
88,23,13,Improv_Metronome,277,5,42,127,2843873624
88,23,13,Improv_Metronome,278,1,48,119,2844017896
88,23,13,Improv_Metronome,279,1,38,103,2844027376
88,23,13,Improv_Metronome,280,1,48,78,2844243364
88,23,13,Improv_Metronome,281,5,42,127,2844374356
88,23,13,Improv_Metronome,282,1,48,87,2844486600
88,23,13,Improv_Metronome,283,1,48,98,2844675100
88,23,13,Improv_Metronome,284,1,38,104,2844705072
88,23,13,Improv_Metronome,285,5,42,127,2844874204
88,23,13,Improv_Metronome,286,1,48,90,2844904476
88,23,13,Improv_Metronome,287,1,48,103,2845144432
88,23,13,Improv_Metronome,288,5,42,127,2845373728
88,23,13,Improv_Metronome,289,1,48,127,2845398836
88,23,13,Improv_Metronome,290,1,38,22,2845409292
88,23,13,Improv_Metronome,291,1,38,64,2845414128
88,23,13,Improv_Metronome,292,1,48,90,2845598784
88,23,13,Improv_Metronome,293,1,38,110,2845853772
88,23,13,Improv_Metronome,294,1,48,112,2845857040
88,23,13,Improv_Metronome,295,5,42,127,2845873828
88,23,13,Improv_Metronome,296,1,48,118,2846086136
88,23,13,Improv_Metronome,297,1,38,21,2846096668
88,23,13,Improv_Metronome,298,1,48,87,2846315272
88,23,13,Improv_Metronome,299,5,42,127,2846374176
88,23,13,Improv_Metronome,300,1,48,103,2846517528
88,23,13,Improv_Metronome,301,1,38,84,2846522964
88,23,13,Improv_Metronome,302,1,48,83,2846754216
88,23,13,Improv_Metronome,303,5,42,127,2846874156
88,23,13,Improv_Metronome,304,1,48,83,2846979304
88,23,13,Improv_Metronome,305,1,48,119,2847201828
88,23,13,Improv_Metronome,306,1,38,112,2847212280
88,23,13,Improv_Metronome,307,5,42,127,2847373536
88,23,13,Improv_Metronome,308,1,48,98,2847413460
88,23,13,Improv_Metronome,309,1,48,115,2847638448
88,23,13,Improv_Metronome,310,1,38,110,2847642320
88,23,13,Improv_Metronome,311,1,48,35,2847694356
88,23,13,Improv_Metronome,312,5,42,127,2847874416
88,23,13,Improv_Metronome,313,1,48,74,2847878656
88,23,13,Improv_Metronome,314,1,48,74,2848102456
88,23,13,Improv_Metronome,315,1,38,101,2848263696
88,23,13,Improv_Metronome,316,1,48,102,2848282076
88,23,13,Improv_Metronome,317,1,48,50,2848319152
88,23,13,Improv_Metronome,318,5,42,127,2848374248
88,23,13,Improv_Metronome,319,1,48,110,2848516552
88,23,13,Improv_Metronome,320,1,48,79,2848756352
88,23,13,Improv_Metronome,321,5,42,127,2848873980
88,23,13,Improv_Metronome,322,1,48,116,2848980396
88,23,13,Improv_Metronome,323,1,38,21,2848990920
88,23,13,Improv_Metronome,324,1,38,119,2849006528
88,23,13,Improv_Metronome,325,1,48,98,2849197988
88,23,13,Improv_Metronome,326,1,38,19,2849208372
88,23,13,Improv_Metronome,327,5,42,127,2849373536
88,23,13,Improv_Metronome,328,1,48,110,2849431332
88,23,13,Improv_Metronome,329,1,38,120,2849449492
88,23,13,Improv_Metronome,330,1,48,85,2849672736
88,23,13,Improv_Metronome,331,5,42,127,2849874136
88,23,13,Improv_Metronome,332,1,48,110,2849898048
88,23,13,Improv_Metronome,333,1,48,94,2850102824
88,23,13,Improv_Metronome,334,1,38,109,2850131560
88,23,13,Improv_Metronome,335,1,48,103,2850365556
88,23,13,Improv_Metronome,336,5,42,127,2850374116
88,23,13,Improv_Metronome,337,1,48,90,2850563864
88,23,13,Improv_Metronome,338,1,48,113,2850788784
88,23,13,Improv_Metronome,339,1,38,116,2850810308
88,23,13,Improv_Metronome,340,5,42,127,2850873692
88,23,13,Improv_Metronome,341,1,48,94,2851002468
88,23,13,Improv_Metronome,342,1,38,122,2851234196
88,23,13,Improv_Metronome,343,1,48,89,2851237540
88,23,13,Improv_Metronome,344,5,42,127,2851373364
88,23,13,Improv_Metronome,345,1,48,99,2851442032
88,23,13,Improv_Metronome,346,1,48,118,2851669196
88,23,13,Improv_Metronome,347,1,38,21,2851679720
88,23,13,Improv_Metronome,348,1,38,97,2851867192
88,23,13,Improv_Metronome,349,5,42,127,2851874104
88,23,13,Improv_Metronome,350,1,48,93,2851875072
88,23,13,Improv_Metronome,351,1,48,104,2852109448
88,23,13,Improv_Metronome,352,1,38,21,2852119824
88,23,13,Improv_Metronome,353,1,48,104,2852371656
88,23,13,Improv_Metronome,354,5,42,127,2852373768
88,23,13,Improv_Metronome,355,1,48,103,2852548256
88,23,13,Improv_Metronome,356,1,38,99,2852550784
88,23,13,Improv_Metronome,357,1,48,55,2852577688
88,23,13,Improv_Metronome,358,1,48,107,2852752164
88,23,13,Improv_Metronome,359,5,42,127,2852873580
88,23,13,Improv_Metronome,360,1,48,108,2852993260
88,23,13,Improv_Metronome,361,1,38,103,2853009392
88,23,13,Improv_Metronome,362,1,48,105,2853226060
88,23,13,Improv_Metronome,363,5,42,127,2853374252
88,23,13,Improv_Metronome,364,1,48,97,2853436912
88,23,13,Improv_Metronome,365,1,48,103,2853646120
88,23,13,Improv_Metronome,366,1,38,113,2853665324
88,23,13,Improv_Metronome,367,5,42,127,2853874176
88,23,13,Improv_Metronome,368,1,48,115,2853882908
88,23,13,Improv_Metronome,369,1,48,105,2854119116
88,23,13,Improv_Metronome,370,1,48,110,2854356972
88,23,13,Improv_Metronome,371,5,42,127,2854373840
88,23,13,Improv_Metronome,372,1,38,104,2854382872
88,23,13,Improv_Metronome,373,1,48,101,2854599232
88,23,13,Improv_Metronome,374,1,48,97,2854810692
88,23,13,Improv_Metronome,375,1,38,106,2854822412
88,23,13,Improv_Metronome,376,1,48,28,2854872616
88,23,13,Improv_Metronome,377,5,42,127,2854873808
88,23,13,Improv_Metronome,378,1,48,98,2855066076
88,23,13,Improv_Metronome,379,1,48,104,2855283364
88,23,13,Improv_Metronome,380,5,42,127,2855374280
88,23,13,Improv_Metronome,381,1,48,87,2855502072
88,23,13,Improv_Metronome,382,1,38,100,2855508892
88,23,13,Improv_Metronome,383,1,48,100,2855728232
88,23,13,Improv_Metronome,384,5,42,127,2855874128
88,23,13,Improv_Metronome,385,1,48,74,2855957352
88,23,13,Improv_Metronome,386,1,48,98,2856163272
88,23,13,Improv_Metronome,387,1,38,105,2856188016
88,23,13,Improv_Metronome,388,5,42,127,2856373540
88,23,13,Improv_Metronome,389,1,48,81,2856386008
88,23,13,Improv_Metronome,390,1,48,105,2856610776
88,23,13,Improv_Metronome,391,1,38,111,2856624748
88,23,13,Improv_Metronome,392,1,48,90,2856847096
88,23,13,Improv_Metronome,393,5,42,127,2856874356
88,23,13,Improv_Metronome,394,1,48,95,2857070312
88,23,13,Improv_Metronome,395,1,48,100,2857284284
88,23,13,Improv_Metronome,396,1,38,108,2857295652
88,23,13,Improv_Metronome,397,5,42,127,2857374300
88,23,13,Improv_Metronome,398,1,48,97,2857508200
88,23,13,Improv_Metronome,399,1,48,93,2857741944
88,23,13,Improv_Metronome,400,5,42,127,2857874004
88,23,13,Improv_Metronome,401,1,48,101,2857942868
88,23,13,Improv_Metronome,402,1,38,93,2857966336
88,23,13,Improv_Metronome,403,1,48,96,2858143740
88,23,13,Improv_Metronome,404,1,48,38,2858190172
88,23,13,Improv_Metronome,405,5,42,127,2858373396
88,23,13,Improv_Metronome,406,1,48,127,2858394168
88,23,13,Improv_Metronome,407,1,38,122,2858400208
88,23,13,Improv_Metronome,408,1,48,127,2858622108
88,23,13,Improv_Metronome,409,1,48,127,2858860484
88,23,13,Improv_Metronome,410,5,42,127,2858874208
88,23,13,Improv_Metronome,411,1,38,108,2859055184
88,23,13,Improv_Metronome,412,1,48,105,2859062120
88,23,13,Improv_Metronome,413,1,48,114,2859309972
88,23,13,Improv_Metronome,414,5,42,127,2859374208
88,23,13,Improv_Metronome,415,1,48,94,2859535132
88,23,13,Improv_Metronome,416,1,48,114,2859727740
88,23,13,Improv_Metronome,417,1,38,21,2859738196
88,23,13,Improv_Metronome,418,1,38,120,2859762032
88,23,13,Improv_Metronome,419,5,42,127,2859873584
88,23,13,Improv_Metronome,420,1,48,97,2859930036
88,23,13,Improv_Metronome,421,1,48,120,2860179112
88,23,13,Improv_Metronome,422,1,38,101,2860198840
88,23,13,Improv_Metronome,423,1,48,40,2860236892
88,23,13,Improv_Metronome,424,5,42,127,2860374312
88,23,13,Improv_Metronome,425,1,48,114,2860424624
88,23,13,Improv_Metronome,426,1,48,106,2860633096
88,23,13,Improv_Metronome,427,1,38,104,2860830532
88,23,13,Improv_Metronome,428,1,48,98,2860842856
88,23,13,Improv_Metronome,429,5,42,127,2860874232
88,23,13,Improv_Metronome,430,1,48,119,2861078912
88,23,13,Improv_Metronome,431,1,48,99,2861317968
88,23,13,Improv_Metronome,432,5,42,127,2861374024
88,23,13,Improv_Metronome,433,1,48,100,2861505504
88,23,13,Improv_Metronome,434,1,38,95,2861526880
88,23,13,Improv_Metronome,435,1,48,91,2861728064
88,23,13,Improv_Metronome,436,5,42,127,2861873488
88,23,13,Improv_Metronome,437,1,38,97,2861962048
88,23,13,Improv_Metronome,438,1,48,110,2861965324
88,23,13,Improv_Metronome,439,1,48,70,2862158548
88,23,13,Improv_Metronome,440,5,42,127,2862374308
88,23,13,Improv_Metronome,441,1,48,96,2862385952
88,23,13,Improv_Metronome,442,1,48,92,2862589704
88,23,13,Improv_Metronome,443,1,38,99,2862612124
88,23,13,Improv_Metronome,444,1,48,33,2862645464
88,23,13,Improv_Metronome,445,1,48,80,2862819116
88,23,13,Improv_Metronome,446,5,42,127,2862874128
88,23,13,Improv_Metronome,447,1,48,93,2863047200
88,23,13,Improv_Metronome,448,1,48,103,2863258428
88,23,13,Improv_Metronome,449,1,38,105,2863284592
88,23,13,Improv_Metronome,450,5,42,127,2863373916
88,23,13,Improv_Metronome,451,1,48,94,2863493656
88,23,13,Improv_Metronome,452,1,38,112,2863722460
88,23,13,Improv_Metronome,453,1,48,127,2863725660
88,23,13,Improv_Metronome,454,5,42,127,2863874276
88,23,13,Improv_Metronome,455,1,48,88,2863939176
88,23,13,Improv_Metronome,456,1,48,117,2864158560
88,23,13,Improv_Metronome,457,5,42,127,2864374096
88,23,13,Improv_Metronome,458,1,48,111,2864393228
88,23,13,Improv_Metronome,459,1,38,122,2864403152
88,23,13,Improv_Metronome,460,1,48,110,2864637020
88,23,13,Improv_Metronome,461,5,42,127,2864874020
88,23,13,Improv_Metronome,462,1,48,114,2864876536
88,23,13,Improv_Metronome,463,1,48,96,2865096904
88,23,13,Improv_Metronome,464,1,38,111,2865123056
88,23,13,Improv_Metronome,465,1,48,119,2865348472
88,23,13,Improv_Metronome,466,5,42,127,2865373492
88,23,13,Improv_Metronome,467,1,48,104,2865578796
88,23,13,Improv_Metronome,468,1,38,116,2865596508
88,23,13,Improv_Metronome,469,1,48,109,2865809728
88,23,13,Improv_Metronome,470,5,42,127,2865874236
88,23,13,Improv_Metronome,471,1,48,89,2866010056
88,23,13,Improv_Metronome,472,1,48,104,2866230988
88,23,13,Improv_Metronome,473,1,38,97,2866242788
88,23,13,Improv_Metronome,474,5,42,127,2866374072
88,23,13,Improv_Metronome,475,1,48,108,2866469640
88,23,13,Improv_Metronome,476,1,48,103,2866700916
88,23,13,Improv_Metronome,477,5,42,127,2866873892
88,23,13,Improv_Metronome,478,1,48,99,2866915084
88,23,13,Improv_Metronome,479,1,38,104,2866929052
88,23,13,Improv_Metronome,480,1,48,115,2867154776
88,23,13,Improv_Metronome,481,5,42,127,2867373384
88,23,13,Improv_Metronome,482,1,48,117,2867399092
88,23,13,Improv_Metronome,483,1,38,121,2867423080
88,23,13,Improv_Metronome,484,1,48,122,2867632268
88,23,13,Improv_Metronome,485,1,48,110,2867861824
88,23,13,Improv_Metronome,486,5,42,127,2867874124
88,23,13,Improv_Metronome,487,1,48,96,2868075016
88,23,13,Improv_Metronome,488,1,38,90,2868090184
88,23,13,Improv_Metronome,489,1,48,31,2868129280
88,23,13,Improv_Metronome,490,1,48,106,2868318568
88,23,13,Improv_Metronome,491,5,42,127,2868373804
88,23,13,Improv_Metronome,492,1,48,101,2868541464
88,23,13,Improv_Metronome,493,1,48,97,2868751572
88,23,13,Improv_Metronome,494,1,38,108,2868788200
88,23,13,Improv_Metronome,495,1,48,47,2868800524
88,23,13,Improv_Metronome,496,5,42,127,2868873508
88,23,13,Improv_Metronome,497,1,48,125,2869002616
88,23,13,Improv_Metronome,498,1,48,98,2869250128
88,23,13,Improv_Metronome,499,1,38,105,2869267456
88,23,13,Improv_Metronome,500,5,42,127,2869374284
88,23,13,Improv_Metronome,501,1,48,109,2869475464
88,23,13,Improv_Metronome,502,1,48,95,2869677796
88,23,13,Improv_Metronome,503,5,42,127,2869873956
88,23,13,Improv_Metronome,504,1,48,103,2869909840
88,23,13,Improv_Metronome,505,1,38,20,2869920436
88,23,13,Improv_Metronome,506,1,38,74,2869948316
88,23,13,Improv_Metronome,507,1,48,47,2869964600
88,23,13,Improv_Metronome,508,1,48,102,2870155608
88,23,13,Improv_Metronome,509,5,42,127,2870373912
88,23,13,Improv_Metronome,510,1,48,113,2870380700
88,23,13,Improv_Metronome,511,1,48,103,2870595868
88,23,13,Improv_Metronome,512,1,38,79,2870617052
88,23,13,Improv_Metronome,513,1,48,41,2870649344
88,23,13,Improv_Metronome,514,1,48,105,2870815196
88,23,13,Improv_Metronome,515,5,42,127,2870873448
88,23,13,Improv_Metronome,516,1,48,113,2871049412
88,23,13,Improv_Metronome,517,1,38,100,2871067044
88,23,13,Improv_Metronome,518,1,48,113,2871271516
88,23,13,Improv_Metronome,519,5,42,127,2871374156
88,23,13,Improv_Metronome,520,1,48,102,2871478124
88,23,13,Improv_Metronome,521,1,38,86,2871685468
88,23,13,Improv_Metronome,522,1,48,95,2871690388
88,23,13,Improv_Metronome,523,5,42,127,2871873856
88,23,13,Improv_Metronome,524,1,48,105,2871904148
88,23,13,Improv_Metronome,525,1,48,118,2872127176
88,23,13,Improv_Metronome,526,1,48,105,2872343792
88,23,13,Improv_Metronome,527,1,38,114,2872359848
88,23,13,Improv_Metronome,528,5,42,127,2872373576
88,23,13,Improv_Metronome,529,1,48,96,2872549460
88,23,13,Improv_Metronome,530,1,48,103,2872782680
88,23,13,Improv_Metronome,531,1,38,127,2872800392
88,23,13,Improv_Metronome,532,5,42,127,2872874396
88,23,13,Improv_Metronome,533,1,48,85,2873007200
88,23,13,Improv_Metronome,534,1,48,88,2873238472
88,23,13,Improv_Metronome,535,5,42,127,2873374024
88,23,13,Improv_Metronome,536,1,38,101,2873403320
88,23,13,Improv_Metronome,537,1,48,93,2873423088
88,23,13,Improv_Metronome,538,1,48,87,2873654760
88,23,13,Improv_Metronome,539,5,42,127,2873873812
88,23,13,Improv_Metronome,540,1,48,91,2873894728
88,23,13,Improv_Metronome,541,1,38,97,2874097508
88,23,13,Improv_Metronome,542,1,48,102,2874101832
88,23,13,Improv_Metronome,543,1,48,94,2874307496
88,23,13,Improv_Metronome,544,5,42,127,2874373356
88,23,13,Improv_Metronome,545,1,48,105,2874559364
88,23,13,Improv_Metronome,546,1,38,20,2874569968
88,23,13,Improv_Metronome,547,1,38,96,2874579740
88,23,13,Improv_Metronome,548,1,48,77,2874783244
88,23,13,Improv_Metronome,549,5,42,127,2874874304
88,23,13,Improv_Metronome,550,1,48,79,2875018200
88,23,13,Improv_Metronome,551,1,38,105,2875201888
88,23,13,Improv_Metronome,552,1,48,87,2875210540
88,23,13,Improv_Metronome,553,5,42,127,2875373992
88,23,13,Improv_Metronome,554,1,48,77,2875410316
88,23,13,Improv_Metronome,555,1,48,65,2875671512
88,23,13,Improv_Metronome,556,1,48,83,2875853056
88,23,13,Improv_Metronome,557,1,38,91,2875860736
88,23,13,Improv_Metronome,558,5,42,127,2875873788
88,23,13,Improv_Metronome,559,1,48,83,2876078988
88,23,13,Improv_Metronome,560,1,48,94,2876314684
88,23,13,Improv_Metronome,561,1,38,88,2876326552
88,23,13,Improv_Metronome,562,5,42,127,2876374308
88,23,13,Improv_Metronome,563,1,48,65,2876535676
88,23,13,Improv_Metronome,564,1,48,78,2876761648
88,23,13,Improv_Metronome,565,5,42,127,2876874088
88,23,13,Improv_Metronome,566,1,38,86,2876945424
88,23,13,Improv_Metronome,567,1,48,87,2876969340
88,23,13,Improv_Metronome,568,1,48,82,2877200212
88,23,13,Improv_Metronome,569,5,42,127,2877373712
88,23,13,Improv_Metronome,570,1,48,73,2877429792
88,23,13,Improv_Metronome,571,1,48,86,2877634736
88,23,13,Improv_Metronome,572,1,38,95,2877650348
88,23,13,Improv_Metronome,573,1,48,73,2877837548
88,23,13,Improv_Metronome,574,5,42,127,2877873632
88,23,13,Improv_Metronome,575,1,48,83,2878071084
88,23,13,Improv_Metronome,576,1,38,100,2878089316
88,23,13,Improv_Metronome,577,1,48,33,2878126248
88,23,13,Improv_Metronome,578,1,48,70,2878304688
88,23,13,Improv_Metronome,0,9999,9999,9999,2808371320
88,23,13,Improv_Metronome,1,9999,9999,9999,2808872008
88,23,13,Improv_Metronome,2,9999,9999,9999,2809371724
88,23,13,Improv_Metronome,3,9999,9999,9999,2809871444
88,23,13,Improv_Metronome,4,9999,9999,9999,2810371160
88,23,13,Improv_Metronome,5,9999,9999,9999,2810871920
88,23,13,Improv_Metronome,6,9999,9999,9999,2811371636
88,23,13,Improv_Metronome,7,9999,9999,9999,2811871356
88,23,13,Improv_Metronome,8,9999,9999,9999,2812372036
88,23,13,Improv_Metronome,9,9999,9999,9999,2812871768
88,23,13,Improv_Metronome,10,9999,9999,9999,2813371440
88,23,13,Improv_Metronome,11,9999,9999,9999,2813871208
88,23,13,Improv_Metronome,12,9999,9999,9999,2814371912
88,23,13,Improv_Metronome,13,9999,9999,9999,2814871656
88,23,13,Improv_Metronome,14,9999,9999,9999,2815371376
88,23,13,Improv_Metronome,15,9999,9999,9999,2815872076
88,23,13,Improv_Metronome,16,9999,9999,9999,2816371784
88,23,13,Improv_Metronome,17,9999,9999,9999,2816871536
88,23,13,Improv_Metronome,18,9999,9999,9999,2817371200
88,23,13,Improv_Metronome,19,9999,9999,9999,2817871932
88,23,13,Improv_Metronome,20,9999,9999,9999,2818371716
88,23,13,Improv_Metronome,21,9999,9999,9999,2818871380
88,23,13,Improv_Metronome,22,9999,9999,9999,2819371064
88,23,13,Improv_Metronome,23,9999,9999,9999,2819871816
88,23,13,Improv_Metronome,24,9999,9999,9999,2820371532
88,23,13,Improv_Metronome,25,9999,9999,9999,2820871268
88,23,13,Improv_Metronome,26,9999,9999,9999,2821371984
88,23,13,Improv_Metronome,27,9999,9999,9999,2821871704
88,23,13,Improv_Metronome,28,9999,9999,9999,2822371412
88,23,13,Improv_Metronome,29,9999,9999,9999,2822871132
88,23,13,Improv_Metronome,30,9999,9999,9999,2823371880
88,23,13,Improv_Metronome,31,9999,9999,9999,2823871568
88,23,13,Improv_Metronome,32,9999,9999,9999,2824371292
88,23,13,Improv_Metronome,33,9999,9999,9999,2824872044
88,23,13,Improv_Metronome,34,9999,9999,9999,2825371752
88,23,13,Improv_Metronome,35,9999,9999,9999,2825871456
88,23,13,Improv_Metronome,36,9999,9999,9999,2826371136
88,23,13,Improv_Metronome,37,9999,9999,9999,2826871896
88,23,13,Improv_Metronome,38,9999,9999,9999,2827371592
88,23,13,Improv_Metronome,39,9999,9999,9999,2827871292
88,23,13,Improv_Metronome,40,9999,9999,9999,2828372084
88,23,13,Improv_Metronome,41,9999,9999,9999,2828871744
88,23,13,Improv_Metronome,42,9999,9999,9999,2829371468
88,23,13,Improv_Metronome,43,9999,9999,9999,2829871204
88,23,13,Improv_Metronome,44,9999,9999,9999,2830371912
88,23,13,Improv_Metronome,45,9999,9999,9999,2830871604
88,23,13,Improv_Metronome,46,9999,9999,9999,2831371364
88,23,13,Improv_Metronome,47,9999,9999,9999,2831872112
88,23,13,Improv_Metronome,48,9999,9999,9999,2832371832
88,23,13,Improv_Metronome,49,9999,9999,9999,2832871484
88,23,13,Improv_Metronome,50,9999,9999,9999,2833371216
88,23,13,Improv_Metronome,51,9999,9999,9999,2833871936
88,23,13,Improv_Metronome,52,9999,9999,9999,2834371696
88,23,13,Improv_Metronome,53,9999,9999,9999,2834871392
88,23,13,Improv_Metronome,54,9999,9999,9999,2835371088
88,23,13,Improv_Metronome,55,9999,9999,9999,2835871828
88,23,13,Improv_Metronome,56,9999,9999,9999,2836371568
88,23,13,Improv_Metronome,57,9999,9999,9999,2836871260
88,23,13,Improv_Metronome,58,9999,9999,9999,2837372028
88,23,13,Improv_Metronome,59,9999,9999,9999,2837871712
88,23,13,Improv_Metronome,60,9999,9999,9999,2838371416
88,23,13,Improv_Metronome,61,9999,9999,9999,2838871116
88,23,13,Improv_Metronome,62,9999,9999,9999,2839371856
88,23,13,Improv_Metronome,63,9999,9999,9999,2839871560
88,23,13,Improv_Metronome,64,9999,9999,9999,2840371260
88,23,13,Improv_Metronome,65,9999,9999,9999,2840872008
88,23,13,Improv_Metronome,66,9999,9999,9999,2841371700
88,23,13,Improv_Metronome,67,9999,9999,9999,2841871412
88,23,13,Improv_Metronome,68,9999,9999,9999,2842371172
88,23,13,Improv_Metronome,69,9999,9999,9999,2842871888
88,23,13,Improv_Metronome,70,9999,9999,9999,2843371584
88,23,13,Improv_Metronome,71,9999,9999,9999,2843871336
88,23,13,Improv_Metronome,72,9999,9999,9999,2844372068
88,23,13,Improv_Metronome,73,9999,9999,9999,2844871768
88,23,13,Improv_Metronome,74,9999,9999,9999,2845371440
88,23,13,Improv_Metronome,75,9999,9999,9999,2845871168
88,23,13,Improv_Metronome,76,9999,9999,9999,2846371888
88,23,13,Improv_Metronome,77,9999,9999,9999,2846871648
88,23,13,Improv_Metronome,78,9999,9999,9999,2847371324
88,23,13,Improv_Metronome,79,9999,9999,9999,2847872052
88,23,13,Improv_Metronome,80,9999,9999,9999,2848371812
88,23,13,Improv_Metronome,81,9999,9999,9999,2848871544
88,23,13,Improv_Metronome,82,9999,9999,9999,2849371248
88,23,13,Improv_Metronome,83,9999,9999,9999,2849871924
88,23,13,Improv_Metronome,84,9999,9999,9999,2850371680
88,23,13,Improv_Metronome,85,9999,9999,9999,2850871408
88,23,13,Improv_Metronome,86,9999,9999,9999,2851371076
88,23,13,Improv_Metronome,87,9999,9999,9999,2851871820
88,23,13,Improv_Metronome,88,9999,9999,9999,2852371520
88,23,13,Improv_Metronome,89,9999,9999,9999,2852871220
88,23,13,Improv_Metronome,90,9999,9999,9999,2853371964
88,23,13,Improv_Metronome,91,9999,9999,9999,2853871664
88,23,13,Improv_Metronome,92,9999,9999,9999,2854371404
88,23,13,Improv_Metronome,93,9999,9999,9999,2854871116
88,23,13,Improv_Metronome,94,9999,9999,9999,2855371844
88,23,13,Improv_Metronome,95,9999,9999,9999,2855871544
88,23,13,Improv_Metronome,96,9999,9999,9999,2856371256
88,23,13,Improv_Metronome,97,9999,9999,9999,2856871996
88,23,13,Improv_Metronome,98,9999,9999,9999,2857371716
88,23,13,Improv_Metronome,99,9999,9999,9999,2857871420
88,23,13,Improv_Metronome,100,9999,9999,9999,2858371184
88,23,13,Improv_Metronome,101,9999,9999,9999,2858871924
88,23,13,Improv_Metronome,102,9999,9999,9999,2859371624
88,23,13,Improv_Metronome,103,9999,9999,9999,2859871300
88,23,13,Improv_Metronome,104,9999,9999,9999,2860372024
88,23,13,Improv_Metronome,105,9999,9999,9999,2860871796
88,23,13,Improv_Metronome,106,9999,9999,9999,2861371516
88,23,13,Improv_Metronome,107,9999,9999,9999,2861871200
88,23,13,Improv_Metronome,108,9999,9999,9999,2862371948
88,23,13,Improv_Metronome,109,9999,9999,9999,2862871620
88,23,13,Improv_Metronome,110,9999,9999,9999,2863371332
88,23,13,Improv_Metronome,111,9999,9999,9999,2863872064
88,23,13,Improv_Metronome,112,9999,9999,9999,2864371808
88,23,13,Improv_Metronome,113,9999,9999,9999,2864871512
88,23,13,Improv_Metronome,114,9999,9999,9999,2865371204
88,23,13,Improv_Metronome,115,9999,9999,9999,2865871952
88,23,13,Improv_Metronome,116,9999,9999,9999,2866371636
88,23,13,Improv_Metronome,117,9999,9999,9999,2866871384
88,23,13,Improv_Metronome,118,9999,9999,9999,2867371096
88,23,13,Improv_Metronome,119,9999,9999,9999,2867871836
88,23,13,Improv_Metronome,120,9999,9999,9999,2868371516
88,23,13,Improv_Metronome,121,9999,9999,9999,2868871220
88,23,13,Improv_Metronome,122,9999,9999,9999,2869371996
88,23,13,Improv_Metronome,123,9999,9999,9999,2869871672
88,23,13,Improv_Metronome,124,9999,9999,9999,2870371404
88,23,13,Improv_Metronome,125,9999,9999,9999,2870871160
88,23,13,Improv_Metronome,126,9999,9999,9999,2871371868
88,23,13,Improv_Metronome,127,9999,9999,9999,2871871568
88,23,13,Improv_Metronome,128,9999,9999,9999,2872371288
88,23,13,Improv_Metronome,129,9999,9999,9999,2872872036
88,23,13,Improv_Metronome,130,9999,9999,9999,2873371740
88,23,13,Improv_Metronome,131,9999,9999,9999,2873871452
88,23,13,Improv_Metronome,132,9999,9999,9999,2874371144
88,23,13,Improv_Metronome,133,9999,9999,9999,2874871868
88,23,13,Improv_Metronome,134,9999,9999,9999,2875371628
88,23,13,Improv_Metronome,135,9999,9999,9999,2875871352
88,23,13,Improv_Metronome,136,9999,9999,9999,2876372024
88,23,13,Improv_Metronome,137,9999,9999,9999,2876871800
88,23,13,Improv_Metronome,138,9999,9999,9999,2877371500
88,23,13,Improv_Metronome,139,9999,9999,9999,2877871196
88,24,14,Improv_Melody,0,2,48,80,2932355612
88,24,14,Improv_Melody,1,2,72,80,2932357620
88,24,14,Improv_Melody,2,5,42,127,2932360000
88,24,14,Improv_Melody,3,5,42,110,2932853072
88,24,14,Improv_Melody,4,5,42,110,2933352864
88,24,14,Improv_Melody,5,5,42,110,2933852736
88,24,14,Improv_Melody,6,5,42,127,2934353208
88,24,14,Improv_Melody,7,5,42,110,2934852976
88,24,14,Improv_Melody,8,5,42,110,2935352776
88,24,14,Improv_Melody,9,5,42,110,2935853468
88,24,14,Improv_Melody,10,2,43,80,2936355768
88,24,14,Improv_Melody,11,2,67,80,2936357696
88,24,14,Improv_Melody,12,5,42,127,2936360532
88,24,14,Improv_Melody,13,5,42,110,2936852704
88,24,14,Improv_Melody,14,5,42,110,2937352572
88,24,14,Improv_Melody,15,5,42,110,2937853416
88,24,14,Improv_Melody,16,5,42,127,2938353064
88,24,14,Improv_Melody,17,5,42,110,2938852784
88,24,14,Improv_Melody,18,5,42,110,2939352508
88,24,14,Improv_Melody,19,5,42,110,2939853276
88,24,14,Improv_Melody,20,2,45,80,2940355500
88,24,14,Improv_Melody,21,2,69,80,2940357576
88,24,14,Improv_Melody,22,5,42,127,2940360192
88,24,14,Improv_Melody,23,5,42,110,2940852656
88,24,14,Improv_Melody,24,5,42,110,2941353424
88,24,14,Improv_Melody,25,5,42,110,2941853148
88,24,14,Improv_Melody,26,5,42,127,2942352720
88,24,14,Improv_Melody,27,5,42,110,2942852440
88,24,14,Improv_Melody,28,5,42,110,2943353060
88,24,14,Improv_Melody,29,5,42,110,2943853004
88,24,14,Improv_Melody,30,2,41,80,2944355080
88,24,14,Improv_Melody,31,2,65,80,2944357308
88,24,14,Improv_Melody,32,5,42,127,2944359920
88,24,14,Improv_Melody,33,5,42,110,2944853288
88,24,14,Improv_Melody,34,5,42,110,2945352984
88,24,14,Improv_Melody,35,5,42,110,2945852680
88,24,14,Improv_Melody,36,5,42,127,2946352552
88,24,14,Improv_Melody,37,5,42,110,2946853468
88,24,14,Improv_Melody,38,5,42,110,2947352892
88,24,14,Improv_Melody,39,5,42,110,2947852540
88,24,14,Improv_Melody,40,2,48,80,2948355884
88,24,14,Improv_Melody,41,2,72,80,2948358040
88,24,14,Improv_Melody,42,5,42,127,2948360580
88,24,14,Improv_Melody,43,1,48,104,2948363172
88,24,14,Improv_Melody,44,1,48,86,2948850904
88,24,14,Improv_Melody,45,5,42,110,2948853016
88,24,14,Improv_Melody,46,1,48,75,2949346240
88,24,14,Improv_Melody,47,5,42,110,2949352864
88,24,14,Improv_Melody,48,1,48,82,2949799644
88,24,14,Improv_Melody,49,5,42,110,2949852416
88,24,14,Improv_Melody,50,1,48,83,2950324552
88,24,14,Improv_Melody,51,5,42,127,2950353460
88,24,14,Improv_Melody,52,1,48,58,2950542088
88,24,14,Improv_Melody,53,1,48,88,2950796852
88,24,14,Improv_Melody,54,5,42,110,2950852916
88,24,14,Improv_Melody,55,1,48,67,2951059268
88,24,14,Improv_Melody,56,1,48,82,2951309020
88,24,14,Improv_Melody,57,1,48,73,2951322692
88,24,14,Improv_Melody,58,5,42,110,2951352648
88,24,14,Improv_Melody,59,1,48,70,2951504176
88,24,14,Improv_Melody,60,1,48,82,2951766420
88,24,14,Improv_Melody,61,1,48,84,2951783748
88,24,14,Improv_Melody,62,5,42,110,2951853424
88,24,14,Improv_Melody,63,1,48,78,2951986456
88,24,14,Improv_Melody,64,1,48,100,2952269964
88,24,14,Improv_Melody,65,2,43,80,2952356280
88,24,14,Improv_Melody,66,2,67,80,2952358208
88,24,14,Improv_Melody,67,5,42,127,2952360592
88,24,14,Improv_Melody,68,1,48,80,2952815300
88,24,14,Improv_Melody,69,5,42,110,2952852740
88,24,14,Improv_Melody,70,1,48,83,2953312612
88,24,14,Improv_Melody,71,5,42,110,2953352440
88,24,14,Improv_Melody,72,1,48,78,2953820612
88,24,14,Improv_Melody,73,5,42,110,2953853412
88,24,14,Improv_Melody,74,1,48,89,2954314304
88,24,14,Improv_Melody,75,5,42,127,2954353160
88,24,14,Improv_Melody,76,1,48,68,2954613296
88,24,14,Improv_Melody,77,1,48,75,2954850500
88,24,14,Improv_Melody,78,5,42,110,2954852616
88,24,14,Improv_Melody,79,1,48,68,2955085300
88,24,14,Improv_Melody,80,1,48,90,2955338560
88,24,14,Improv_Melody,81,1,38,21,2955349180
88,24,14,Improv_Melody,82,5,42,110,2955352356
88,24,14,Improv_Melody,83,1,48,70,2955565012
88,24,14,Improv_Melody,84,1,48,74,2955817464
88,24,14,Improv_Melody,85,1,48,74,2955828512
88,24,14,Improv_Melody,86,5,42,110,2955853332
88,24,14,Improv_Melody,87,1,48,83,2956023912
88,24,14,Improv_Melody,88,1,48,112,2956310612
88,24,14,Improv_Melody,89,1,38,75,2956321284
88,24,14,Improv_Melody,90,2,45,80,2956355468
88,24,14,Improv_Melody,91,2,69,80,2956357396
88,24,14,Improv_Melody,92,5,42,127,2956360156
88,24,14,Improv_Melody,93,1,48,76,2956843612
88,24,14,Improv_Melody,94,5,42,110,2956852476
88,24,14,Improv_Melody,95,1,48,75,2956857148
88,24,14,Improv_Melody,96,1,48,80,2957327656
88,24,14,Improv_Melody,97,1,48,78,2957347304
88,24,14,Improv_Melody,98,5,42,110,2957353252
88,24,14,Improv_Melody,99,1,48,92,2957820228
88,24,14,Improv_Melody,100,5,42,110,2957853252
88,24,14,Improv_Melody,101,1,48,81,2958340644
88,24,14,Improv_Melody,102,1,38,23,2958351124
88,24,14,Improv_Melody,103,5,42,127,2958353608
88,24,14,Improv_Melody,104,1,48,88,2958593588
88,24,14,Improv_Melody,105,1,48,81,2958850392
88,24,14,Improv_Melody,106,5,42,110,2958852356
88,24,14,Improv_Melody,107,1,48,84,2958860992
88,24,14,Improv_Melody,108,1,48,84,2959064224
88,24,14,Improv_Melody,109,1,48,100,2959335364
88,24,14,Improv_Melody,110,1,48,85,2959350832
88,24,14,Improv_Melody,111,5,42,110,2959353264
88,24,14,Improv_Melody,112,1,48,94,2959568000
88,24,14,Improv_Melody,113,1,48,100,2959820440
88,24,14,Improv_Melody,114,1,38,27,2959845028
88,24,14,Improv_Melody,115,5,42,110,2959853296
88,24,14,Improv_Melody,116,1,48,106,2960048184
88,24,14,Improv_Melody,117,1,48,114,2960326648
88,24,14,Improv_Melody,118,1,38,127,2960333364
88,24,14,Improv_Melody,119,2,41,80,2960355208
88,24,14,Improv_Melody,120,2,65,80,2960357356
88,24,14,Improv_Melody,121,5,42,127,2960360268
88,24,14,Improv_Melody,122,1,48,94,2960849284
88,24,14,Improv_Melody,123,5,42,110,2960853288
88,24,14,Improv_Melody,124,1,48,84,2961345092
88,24,14,Improv_Melody,125,5,42,110,2961352988
88,24,14,Improv_Melody,126,1,48,73,2961387132
88,24,14,Improv_Melody,127,1,48,89,2961846264
88,24,14,Improv_Melody,128,5,42,110,2961852888
88,24,14,Improv_Melody,129,1,48,63,2961864748
88,24,14,Improv_Melody,130,1,48,75,2962344152
88,24,14,Improv_Melody,131,1,48,97,2962350356
88,24,14,Improv_Melody,132,5,42,127,2962352620
88,24,14,Improv_Melody,133,1,48,70,2962593008
88,24,14,Improv_Melody,134,5,42,110,2962853128
88,24,14,Improv_Melody,135,1,48,81,2962856692
88,24,14,Improv_Melody,136,1,48,75,2963094032
88,24,14,Improv_Melody,137,1,48,103,2963340496
88,24,14,Improv_Melody,138,5,42,110,2963352876
88,24,14,Improv_Melody,139,1,48,92,2963576132
88,24,14,Improv_Melody,140,1,48,101,2963840768
88,24,14,Improv_Melody,141,5,42,110,2963852704
88,24,14,Improv_Melody,142,1,48,103,2964071024
88,24,14,Improv_Melody,143,1,48,109,2964337232
88,24,14,Improv_Melody,144,1,38,108,2964353600
88,24,14,Improv_Melody,145,2,48,80,2964358904
88,24,14,Improv_Melody,146,2,72,80,2964360904
88,24,14,Improv_Melody,147,5,42,127,2964363444
88,24,14,Improv_Melody,148,5,42,110,2964853100
88,24,14,Improv_Melody,149,1,48,91,2964872228
88,24,14,Improv_Melody,150,5,42,110,2965352800
88,24,14,Improv_Melody,151,1,48,105,2965366992
88,24,14,Improv_Melody,152,1,48,95,2965389556
88,24,14,Improv_Melody,153,1,48,86,2965848392
88,24,14,Improv_Melody,154,5,42,110,2965852544
88,24,14,Improv_Melody,155,1,48,81,2965889088
88,24,14,Improv_Melody,156,5,42,127,2966353276
88,24,14,Improv_Melody,157,1,48,106,2966371804
88,24,14,Improv_Melody,158,1,48,87,2966642424
88,24,14,Improv_Melody,159,5,42,110,2966853080
88,24,14,Improv_Melody,160,1,48,80,2966887864
88,24,14,Improv_Melody,161,1,48,92,2966896892
88,24,14,Improv_Melody,162,1,48,87,2967135352
88,24,14,Improv_Melody,163,5,42,110,2967352812
88,24,14,Improv_Melody,164,1,48,91,2967370916
88,24,14,Improv_Melody,165,1,48,86,2967618624
88,24,14,Improv_Melody,166,5,42,110,2967853388
88,24,14,Improv_Melody,167,1,48,94,2967872888
88,24,14,Improv_Melody,168,1,48,97,2968083892
88,24,14,Improv_Melody,169,1,48,103,2968349352
88,24,14,Improv_Melody,170,2,43,80,2968355632
88,24,14,Improv_Melody,171,2,67,80,2968357788
88,24,14,Improv_Melody,172,5,42,127,2968360324
88,24,14,Improv_Melody,173,1,38,116,2968363964
88,24,14,Improv_Melody,174,5,42,110,2968852816
88,24,14,Improv_Melody,175,1,48,79,2968856908
88,24,14,Improv_Melody,176,1,48,97,2968865708
88,24,14,Improv_Melody,177,5,42,110,2969352492
88,24,14,Improv_Melody,178,1,48,104,2969368704
88,24,14,Improv_Melody,179,1,48,81,2969384388
88,24,14,Improv_Melody,180,1,48,73,2969842624
88,24,14,Improv_Melody,181,5,42,110,2969853288
88,24,14,Improv_Melody,182,1,48,106,2970351404
88,24,14,Improv_Melody,183,5,42,127,2970353136
88,24,14,Improv_Melody,184,1,48,89,2970594348
88,24,14,Improv_Melody,185,1,48,86,2970847016
88,24,14,Improv_Melody,186,5,42,110,2970852816
88,24,14,Improv_Melody,187,1,48,89,2971059168
88,24,14,Improv_Melody,188,1,48,100,2971335472
88,24,14,Improv_Melody,189,5,42,110,2971352348
88,24,14,Improv_Melody,190,1,48,82,2971576196
88,24,14,Improv_Melody,191,1,48,77,2971811968
88,24,14,Improv_Melody,192,1,48,87,2971822040
88,24,14,Improv_Melody,193,5,42,110,2971853124
88,24,14,Improv_Melody,194,1,48,103,2972037640
88,24,14,Improv_Melody,195,1,48,121,2972314464
88,24,14,Improv_Melody,196,1,38,127,2972331352
88,24,14,Improv_Melody,197,2,45,80,2972355356
88,24,14,Improv_Melody,198,2,69,80,2972357668
88,24,14,Improv_Melody,199,5,42,127,2972360200
88,24,14,Improv_Melody,200,1,48,104,2972816680
88,24,14,Improv_Melody,201,5,42,110,2972852620
88,24,14,Improv_Melody,202,1,48,106,2973331564
88,24,14,Improv_Melody,203,1,48,89,2973343956
88,24,14,Improv_Melody,204,5,42,110,2973353196
88,24,14,Improv_Melody,205,1,48,95,2973810000
88,24,14,Improv_Melody,206,1,48,86,2973826284
88,24,14,Improv_Melody,207,5,42,110,2973852948
88,24,14,Improv_Melody,208,1,48,79,2974304888
88,24,14,Improv_Melody,209,1,48,112,2974316236
88,24,14,Improv_Melody,210,5,42,127,2974352852
88,24,14,Improv_Melody,211,1,48,91,2974569156
88,24,14,Improv_Melody,212,1,48,61,2974831624
88,24,14,Improv_Melody,213,5,42,110,2974852604
88,24,14,Improv_Melody,214,1,48,81,2975045096
88,24,14,Improv_Melody,215,1,48,100,2975306920
88,24,14,Improv_Melody,216,5,42,110,2975353108
88,24,14,Improv_Melody,217,1,48,86,2975532432
88,24,14,Improv_Melody,218,1,48,95,2975805896
88,24,14,Improv_Melody,219,1,48,88,2975815520
88,24,14,Improv_Melody,220,5,42,110,2975852764
88,24,14,Improv_Melody,221,1,48,117,2976040020
88,24,14,Improv_Melody,222,1,48,124,2976324172
88,24,14,Improv_Melody,223,1,38,23,2976334964
88,24,14,Improv_Melody,224,1,38,113,2976344960
88,24,14,Improv_Melody,225,2,41,80,2976355060
88,24,14,Improv_Melody,226,2,65,80,2976357140
88,24,14,Improv_Melody,227,5,42,127,2976359900
88,24,14,Improv_Melody,228,1,48,109,2976712308
88,24,14,Improv_Melody,229,5,42,110,2976853800
88,24,14,Improv_Melody,230,1,48,98,2976953032
88,24,14,Improv_Melody,231,1,38,20,2976963560
88,24,14,Improv_Melody,232,5,42,110,2977352980
88,24,14,Improv_Melody,233,1,48,93,2977426860
88,24,14,Improv_Melody,234,1,48,87,2977457728
88,24,14,Improv_Melody,235,5,42,110,2977852780
88,24,14,Improv_Melody,236,1,48,88,2977928028
88,24,14,Improv_Melody,237,1,48,88,2977937736
88,24,14,Improv_Melody,238,5,42,127,2978352536
88,24,14,Improv_Melody,239,1,48,113,2978411252
88,24,14,Improv_Melody,240,1,48,95,2978424692
88,24,14,Improv_Melody,241,1,48,82,2978626548
88,24,14,Improv_Melody,242,5,42,110,2978853164
88,24,14,Improv_Melody,243,1,48,88,2978892812
88,24,14,Improv_Melody,244,1,48,98,2979144552
88,24,14,Improv_Melody,245,5,42,110,2979352892
88,24,14,Improv_Melody,246,1,48,96,2979378452
88,24,14,Improv_Melody,247,1,48,94,2979619976
88,24,14,Improv_Melody,248,5,42,110,2979852720
88,24,14,Improv_Melody,249,1,48,83,2979865936
88,24,14,Improv_Melody,250,1,48,95,2979884984
88,24,14,Improv_Melody,251,1,48,68,2980096596
88,24,14,Improv_Melody,252,1,48,119,2980344400
88,24,14,Improv_Melody,253,2,48,80,2980356152
88,24,14,Improv_Melody,254,2,72,80,2980358072
88,24,14,Improv_Melody,255,5,42,127,2980360760
88,24,14,Improv_Melody,256,1,38,116,2980374876
88,24,14,Improv_Melody,257,5,42,110,2980853100
88,24,14,Improv_Melody,258,1,48,100,2980888532
88,24,14,Improv_Melody,259,1,48,87,2981340936
88,24,14,Improv_Melody,260,5,42,110,2981352720
88,24,14,Improv_Melody,261,1,48,82,2981375420
88,24,14,Improv_Melody,262,1,48,84,2981801200
88,24,14,Improv_Melody,263,5,42,110,2981852476
88,24,14,Improv_Melody,264,1,48,97,2982301420
88,24,14,Improv_Melody,265,5,42,127,2982353296
88,24,14,Improv_Melody,266,1,48,84,2982531228
88,24,14,Improv_Melody,267,1,48,111,2982801024
88,24,14,Improv_Melody,268,5,42,110,2982852972
88,24,14,Improv_Melody,269,1,48,95,2983038984
88,24,14,Improv_Melody,270,1,48,111,2983299284
88,24,14,Improv_Melody,271,1,38,25,2983309884
88,24,14,Improv_Melody,272,5,42,110,2983352632
88,24,14,Improv_Melody,273,1,48,116,2983561580
88,24,14,Improv_Melody,274,1,48,80,2983792628
88,24,14,Improv_Melody,275,1,48,97,2983811680
88,24,14,Improv_Melody,276,5,42,110,2983853680
88,24,14,Improv_Melody,277,1,48,57,2983989704
88,24,14,Improv_Melody,278,1,48,124,2984295128
88,24,14,Improv_Melody,279,1,38,22,2984305428
88,24,14,Improv_Melody,280,2,43,80,2984356076
88,24,14,Improv_Melody,281,2,67,80,2984358300
88,24,14,Improv_Melody,282,5,42,127,2984360832
88,24,14,Improv_Melody,283,1,48,92,2984842964
88,24,14,Improv_Melody,284,5,42,110,2984852952
88,24,14,Improv_Melody,285,1,48,90,2985336604
88,24,14,Improv_Melody,286,5,42,110,2985352652
88,24,14,Improv_Melody,287,1,48,71,2985376248
88,24,14,Improv_Melody,288,1,48,112,2985821624
88,24,14,Improv_Melody,289,1,48,86,2985837836
88,24,14,Improv_Melody,290,5,42,110,2985853504
88,24,14,Improv_Melody,291,1,48,127,2986312452
88,24,14,Improv_Melody,292,5,42,127,2986352956
88,24,14,Improv_Melody,293,1,48,90,2986554944
88,24,14,Improv_Melody,294,1,48,114,2986813900
88,24,14,Improv_Melody,295,5,42,110,2986852708
88,24,14,Improv_Melody,296,1,48,85,2987052084
88,24,14,Improv_Melody,297,1,48,81,2987313876
88,24,14,Improv_Melody,298,5,42,110,2987352684
88,24,14,Improv_Melody,299,1,48,85,2987553104
88,24,14,Improv_Melody,300,1,48,127,2987822680
88,24,14,Improv_Melody,301,5,42,110,2987853036
88,24,14,Improv_Melody,302,1,48,120,2988047172
88,24,14,Improv_Melody,303,1,48,127,2988340152
88,24,14,Improv_Melody,304,2,45,80,2988355188
88,24,14,Improv_Melody,305,1,38,123,2988356160
88,24,14,Improv_Melody,306,2,69,80,2988359748
88,24,14,Improv_Melody,307,5,42,127,2988362080
88,24,14,Improv_Melody,308,5,42,110,2988852684
88,24,14,Improv_Melody,309,1,48,105,2988868516
88,24,14,Improv_Melody,310,5,42,110,2989353356
88,24,14,Improv_Melody,311,1,48,119,2989357896
88,24,14,Improv_Melody,312,1,48,77,2989380384
88,24,14,Improv_Melody,313,1,48,116,2989841544
88,24,14,Improv_Melody,314,5,42,110,2989853100
88,24,14,Improv_Melody,315,1,48,84,2989858824
88,24,14,Improv_Melody,316,1,48,24,2989929208
88,24,14,Improv_Melody,317,1,48,70,2990345012
88,24,14,Improv_Melody,318,5,42,127,2990352832
88,24,14,Improv_Melody,319,1,48,101,2990594416
88,24,14,Improv_Melody,320,1,48,75,2990837136
88,24,14,Improv_Melody,321,1,48,108,2990847808
88,24,14,Improv_Melody,322,5,42,110,2990852712
88,24,14,Improv_Melody,323,1,48,104,2991116364
88,24,14,Improv_Melody,324,1,48,84,2991349432
88,24,14,Improv_Melody,325,5,42,110,2991353064
88,24,14,Improv_Melody,326,1,48,92,2991359456
88,24,14,Improv_Melody,327,1,48,98,2991572408
88,24,14,Improv_Melody,328,1,48,96,2991851204
88,24,14,Improv_Melody,329,5,42,110,2991852868
88,24,14,Improv_Melody,330,1,48,104,2992069992
88,24,14,Improv_Melody,331,1,48,121,2992339940
88,24,14,Improv_Melody,332,1,38,127,2992350512
88,24,14,Improv_Melody,333,2,41,80,2992355484
88,24,14,Improv_Melody,334,2,65,80,2992357488
88,24,14,Improv_Melody,335,5,42,127,2992359944
88,24,14,Improv_Melody,336,1,48,80,2992851296
88,24,14,Improv_Melody,337,5,42,110,2992853336
88,24,14,Improv_Melody,338,1,48,82,2992864372
88,24,14,Improv_Melody,339,1,48,127,2993347288
88,24,14,Improv_Melody,340,5,42,110,2993352940
88,24,14,Improv_Melody,341,1,48,92,2993374444
88,24,14,Improv_Melody,342,1,48,103,2993837096
88,24,14,Improv_Melody,343,5,42,110,2993852692
88,24,14,Improv_Melody,344,1,48,38,2993923560
88,24,14,Improv_Melody,345,1,48,125,2994336692
88,24,14,Improv_Melody,346,1,48,80,2994352356
88,24,14,Improv_Melody,347,5,42,127,2994353620
88,24,14,Improv_Melody,348,1,48,95,2994578000
88,24,14,Improv_Melody,349,1,48,89,2994823784
88,24,14,Improv_Melody,350,1,48,108,2994831240
88,24,14,Improv_Melody,351,5,42,110,2994853200
88,24,14,Improv_Melody,352,1,48,97,2995067408
88,24,14,Improv_Melody,353,1,48,110,2995310576
88,24,14,Improv_Melody,354,5,42,110,2995352880
88,24,14,Improv_Melody,355,1,48,110,2995604488
88,24,14,Improv_Melody,356,1,48,82,2995823268
88,24,14,Improv_Melody,357,5,42,110,2995852556
88,24,14,Improv_Melody,358,2,48,80,2996355812
88,24,14,Improv_Melody,359,2,72,80,2996358040
88,24,14,Improv_Melody,360,5,42,127,2996360580
88,24,14,Improv_Melody,361,1,48,109,2996381348
88,24,14,Improv_Melody,362,1,38,107,2996384692
88,24,14,Improv_Melody,363,5,42,110,2996853052
88,24,14,Improv_Melody,364,1,48,123,2996898428
88,24,14,Improv_Melody,365,5,42,110,2997352676
88,24,14,Improv_Melody,366,1,48,112,2997408524
88,24,14,Improv_Melody,367,1,48,67,2997440744
88,24,14,Improv_Melody,368,5,42,110,2997852504
88,24,14,Improv_Melody,369,1,48,123,2997890104
88,24,14,Improv_Melody,370,1,48,40,2997950292
88,24,14,Improv_Melody,371,5,42,127,2998353228
88,24,14,Improv_Melody,372,1,48,127,2998368616
88,24,14,Improv_Melody,373,1,38,27,2998379140
88,24,14,Improv_Melody,374,1,48,89,2998587780
88,24,14,Improv_Melody,375,1,48,29,2998649116
88,24,14,Improv_Melody,376,5,42,110,2998852888
88,24,14,Improv_Melody,377,1,48,112,2998859324
88,24,14,Improv_Melody,378,1,48,90,2999081748
88,24,14,Improv_Melody,379,1,48,108,2999341528
88,24,14,Improv_Melody,380,5,42,110,2999352636
88,24,14,Improv_Melody,381,1,48,111,2999596464
88,24,14,Improv_Melody,382,1,48,103,2999846216
88,24,14,Improv_Melody,383,5,42,110,2999853436
88,24,14,Improv_Melody,384,1,48,96,3000027776
88,24,14,Improv_Melody,385,1,48,127,3000323676
88,24,14,Improv_Melody,386,1,38,127,3000350136
88,24,14,Improv_Melody,387,2,43,80,3000355672
88,24,14,Improv_Melody,388,2,67,80,3000357904
88,24,14,Improv_Melody,389,5,42,127,3000360508
88,24,14,Improv_Melody,390,5,42,110,3000852712
88,24,14,Improv_Melody,391,1,48,116,3000874156
88,24,14,Improv_Melody,392,1,38,27,3000884680
88,24,14,Improv_Melody,393,5,42,110,3001352512
88,24,14,Improv_Melody,394,1,48,110,3001362588
88,24,14,Improv_Melody,395,1,48,93,3001386944
88,24,14,Improv_Melody,396,1,48,90,3001832320
88,24,14,Improv_Melody,397,1,48,87,3001852084
88,24,14,Improv_Melody,398,5,42,110,3001853432
88,24,14,Improv_Melody,399,1,48,115,3002317264
88,24,14,Improv_Melody,400,1,48,96,3002328984
88,24,14,Improv_Melody,401,5,42,127,3002353108
88,24,14,Improv_Melody,402,1,48,98,3002544952
88,24,14,Improv_Melody,403,1,48,108,3002811984
88,24,14,Improv_Melody,404,1,48,88,3002823180
88,24,14,Improv_Melody,405,5,42,110,3002852692
88,24,14,Improv_Melody,406,1,48,104,3003039596
88,24,14,Improv_Melody,407,1,48,110,3003315976
88,24,14,Improv_Melody,408,5,42,110,3003352296
88,24,14,Improv_Melody,409,1,48,102,3003549444
88,24,14,Improv_Melody,410,1,48,103,3003815580
88,24,14,Improv_Melody,411,5,42,110,3003853316
88,24,14,Improv_Melody,412,1,48,87,3004031772
88,24,14,Improv_Melody,413,1,48,127,3004313092
88,24,14,Improv_Melody,414,1,38,127,3004331324
88,24,14,Improv_Melody,415,2,45,80,3004355556
88,24,14,Improv_Melody,416,2,69,80,3004357712
88,24,14,Improv_Melody,417,5,42,127,3004360468
88,24,14,Improv_Melody,418,1,48,112,3004822632
88,24,14,Improv_Melody,419,5,42,110,3004852588
88,24,14,Improv_Melody,420,1,48,119,3005322852
88,24,14,Improv_Melody,421,1,48,88,3005344076
88,24,14,Improv_Melody,422,5,42,110,3005353240
88,24,14,Improv_Melody,423,1,48,101,3005809216
88,24,14,Improv_Melody,424,1,48,86,3005826020
88,24,14,Improv_Melody,425,5,42,110,3005853068
88,24,14,Improv_Melody,426,1,48,46,3005883400
88,24,14,Improv_Melody,427,1,48,83,3006330192
88,24,14,Improv_Melody,428,1,48,127,3006335256
88,24,14,Improv_Melody,429,5,42,127,3006352872
88,24,14,Improv_Melody,430,1,48,94,3006569624
88,24,14,Improv_Melody,431,1,48,98,3006827532
88,24,14,Improv_Melody,432,5,42,110,3006852328
88,24,14,Improv_Melody,433,1,48,105,3007056960
88,24,14,Improv_Melody,434,1,48,98,3007320176
88,24,14,Improv_Melody,435,1,48,85,3007333692
88,24,14,Improv_Melody,436,5,42,110,3007353252
88,24,14,Improv_Melody,437,1,48,96,3007553972
88,24,14,Improv_Melody,438,1,48,84,3007816684
88,24,14,Improv_Melody,439,5,42,110,3007853004
88,24,14,Improv_Melody,440,1,48,93,3008032932
88,24,14,Improv_Melody,441,1,48,127,3008323368
88,24,14,Improv_Melody,442,1,38,105,3008344928
88,24,14,Improv_Melody,443,2,41,80,3008355100
88,24,14,Improv_Melody,444,2,65,80,3008357256
88,24,14,Improv_Melody,445,5,42,127,3008359940
88,24,14,Improv_Melody,446,5,42,110,3008853340
88,24,14,Improv_Melody,447,1,48,127,3008868504
88,24,14,Improv_Melody,448,1,38,24,3008878352
88,24,14,Improv_Melody,449,1,48,102,3009350596
88,24,14,Improv_Melody,450,5,42,110,3009353132
88,24,14,Improv_Melody,451,1,48,97,3009393036
88,24,14,Improv_Melody,452,1,48,104,3009830752
88,24,14,Improv_Melody,453,5,42,110,3009852636
88,24,14,Improv_Melody,454,1,48,86,3009863592
88,24,14,Improv_Melody,455,1,48,48,3009895512
88,24,14,Improv_Melody,456,1,48,118,3010339584
88,24,14,Improv_Melody,457,5,42,127,3010352492
88,24,14,Improv_Melody,458,1,48,78,3010547476
88,24,14,Improv_Melody,459,1,48,86,3010824456
88,24,14,Improv_Melody,460,1,48,91,3010834080
88,24,14,Improv_Melody,461,5,42,110,3010853120
88,24,14,Improv_Melody,462,1,48,99,3011087896
88,24,14,Improv_Melody,463,1,48,96,3011352804
88,24,14,Improv_Melody,464,5,42,110,3011354440
88,24,14,Improv_Melody,465,1,48,70,3011386572
88,24,14,Improv_Melody,466,1,48,94,3011529508
88,24,14,Improv_Melody,467,1,48,96,3011810900
88,24,14,Improv_Melody,468,5,42,110,3011852528
88,24,14,Improv_Melody,469,1,48,106,3011903200
88,24,14,Improv_Melody,470,1,48,88,3012070076
88,24,14,Improv_Melody,471,1,48,127,3012165048
88,24,14,Improv_Melody,472,2,48,80,3012355640
88,24,14,Improv_Melody,473,2,72,80,3012357944
88,24,14,Improv_Melody,474,5,42,127,3012360408
88,24,14,Improv_Melody,475,1,38,116,3012453760
88,24,14,Improv_Melody,476,5,42,110,3012853228
88,24,14,Improv_Melody,477,1,48,84,3012934060
88,24,14,Improv_Melody,478,1,48,84,3012943560
88,24,14,Improv_Melody,0,9999,9999,9999,2932351072
88,24,14,Improv_Melody,1,9999,9999,9999,2932850776
88,24,14,Improv_Melody,2,9999,9999,9999,2933350500
88,24,14,Improv_Melody,3,9999,9999,9999,2933850220
88,24,14,Improv_Melody,4,9999,9999,9999,2934350916
88,24,14,Improv_Melody,5,9999,9999,9999,2934850612
88,24,14,Improv_Melody,6,9999,9999,9999,2935350332
88,24,14,Improv_Melody,7,9999,9999,9999,2935851104
88,24,14,Improv_Melody,8,9999,9999,9999,2936350824
88,24,14,Improv_Melody,9,9999,9999,9999,2936850484
88,24,14,Improv_Melody,10,9999,9999,9999,2937350204
88,24,14,Improv_Melody,11,9999,9999,9999,2937850972
88,24,14,Improv_Melody,12,9999,9999,9999,2938350696
88,24,14,Improv_Melody,13,9999,9999,9999,2938850416
88,24,14,Improv_Melody,14,9999,9999,9999,2939350064
88,24,14,Improv_Melody,15,9999,9999,9999,2939850832
88,24,14,Improv_Melody,16,9999,9999,9999,2940350556
88,24,14,Improv_Melody,17,9999,9999,9999,2940850292
88,24,14,Improv_Melody,18,9999,9999,9999,2941350984
88,24,14,Improv_Melody,19,9999,9999,9999,2941850704
88,24,14,Improv_Melody,20,9999,9999,9999,2942350428
88,24,14,Improv_Melody,21,9999,9999,9999,2942850148
88,24,14,Improv_Melody,22,9999,9999,9999,2943350844
88,24,14,Improv_Melody,23,9999,9999,9999,2943850564
88,24,14,Improv_Melody,24,9999,9999,9999,2944350284
88,24,14,Improv_Melody,25,9999,9999,9999,2944850996
88,24,14,Improv_Melody,26,9999,9999,9999,2945350764
88,24,14,Improv_Melody,27,9999,9999,9999,2945850460
88,24,14,Improv_Melody,28,9999,9999,9999,2946350184
88,24,14,Improv_Melody,29,9999,9999,9999,2946850876
88,24,14,Improv_Melody,30,9999,9999,9999,2947350600
88,24,14,Improv_Melody,31,9999,9999,9999,2947850324
88,24,14,Improv_Melody,32,9999,9999,9999,2948351092
88,24,14,Improv_Melody,33,9999,9999,9999,2948850764
88,24,14,Improv_Melody,34,9999,9999,9999,2949350496
88,24,14,Improv_Melody,35,9999,9999,9999,2949850196
88,24,14,Improv_Melody,36,9999,9999,9999,2950350944
88,24,14,Improv_Melody,37,9999,9999,9999,2950850620
88,24,14,Improv_Melody,38,9999,9999,9999,2951350352
88,24,14,Improv_Melody,39,9999,9999,9999,2951851060
88,24,14,Improv_Melody,40,9999,9999,9999,2952350808
88,24,14,Improv_Melody,41,9999,9999,9999,2952850524
88,24,14,Improv_Melody,42,9999,9999,9999,2953350224
88,24,14,Improv_Melody,43,9999,9999,9999,2953850968
88,24,14,Improv_Melody,44,9999,9999,9999,2954350644
88,24,14,Improv_Melody,45,9999,9999,9999,2954850360
88,24,14,Improv_Melody,46,9999,9999,9999,2955350064
88,24,14,Improv_Melody,47,9999,9999,9999,2955850816
88,24,14,Improv_Melody,48,9999,9999,9999,2956350524
88,24,14,Improv_Melody,49,9999,9999,9999,2956850260
88,24,14,Improv_Melody,50,9999,9999,9999,2957350960
88,24,14,Improv_Melody,51,9999,9999,9999,2957850736
88,24,14,Improv_Melody,52,9999,9999,9999,2958350436
88,24,14,Improv_Melody,53,9999,9999,9999,2958850104
88,24,14,Improv_Melody,54,9999,9999,9999,2959350896
88,24,14,Improv_Melody,55,9999,9999,9999,2959850556
88,24,14,Improv_Melody,56,9999,9999,9999,2960350260
88,24,14,Improv_Melody,57,9999,9999,9999,2960850992
88,24,14,Improv_Melody,58,9999,9999,9999,2961350768
88,24,14,Improv_Melody,59,9999,9999,9999,2961850448
88,24,14,Improv_Melody,60,9999,9999,9999,2962350144
88,24,14,Improv_Melody,61,9999,9999,9999,2962850912
88,24,14,Improv_Melody,62,9999,9999,9999,2963350584
88,24,14,Improv_Melody,63,9999,9999,9999,2963850336
88,24,14,Improv_Melody,64,9999,9999,9999,2964351060
88,24,14,Improv_Melody,65,9999,9999,9999,2964850808
88,24,14,Improv_Melody,66,9999,9999,9999,2965350508
88,24,14,Improv_Melody,67,9999,9999,9999,2965850180
88,24,14,Improv_Melody,68,9999,9999,9999,2966350912
88,24,14,Improv_Melody,69,9999,9999,9999,2966850636
88,24,14,Improv_Melody,70,9999,9999,9999,2967350368
88,24,14,Improv_Melody,71,9999,9999,9999,2967851096
88,24,14,Improv_Melody,72,9999,9999,9999,2968350840
88,24,14,Improv_Melody,73,9999,9999,9999,2968850524
88,24,14,Improv_Melody,74,9999,9999,9999,2969350200
88,24,14,Improv_Melody,75,9999,9999,9999,2969850992
88,24,14,Improv_Melody,76,9999,9999,9999,2970350700
88,24,14,Improv_Melody,77,9999,9999,9999,2970850372
88,24,14,Improv_Melody,78,9999,9999,9999,2971350128
88,24,14,Improv_Melody,79,9999,9999,9999,2971850832
88,24,14,Improv_Melody,80,9999,9999,9999,2972350564
88,24,14,Improv_Melody,81,9999,9999,9999,2972850256
88,24,14,Improv_Melody,82,9999,9999,9999,2973350976
88,24,14,Improv_Melody,83,9999,9999,9999,2973850732
88,24,14,Improv_Melody,84,9999,9999,9999,2974350412
88,24,14,Improv_Melody,85,9999,9999,9999,2974850164
88,24,14,Improv_Melody,86,9999,9999,9999,2975350888
88,24,14,Improv_Melody,87,9999,9999,9999,2975850544
88,24,14,Improv_Melody,88,9999,9999,9999,2976350268
88,24,14,Improv_Melody,89,9999,9999,9999,2976851060
88,24,14,Improv_Melody,90,9999,9999,9999,2977350760
88,24,14,Improv_Melody,91,9999,9999,9999,2977850488
88,24,14,Improv_Melody,92,9999,9999,9999,2978350168
88,24,14,Improv_Melody,93,9999,9999,9999,2978850872
88,24,14,Improv_Melody,94,9999,9999,9999,2979350600
88,24,14,Improv_Melody,95,9999,9999,9999,2979850352
88,24,14,Improv_Melody,96,9999,9999,9999,2980351048
88,24,14,Improv_Melody,97,9999,9999,9999,2980850808
88,24,14,Improv_Melody,98,9999,9999,9999,2981350500
88,24,14,Improv_Melody,99,9999,9999,9999,2981850180
88,24,14,Improv_Melody,100,9999,9999,9999,2982350928
88,24,14,Improv_Melody,101,9999,9999,9999,2982850680
88,24,14,Improv_Melody,102,9999,9999,9999,2983350340
88,24,14,Improv_Melody,103,9999,9999,9999,2983851092
88,24,14,Improv_Melody,104,9999,9999,9999,2984350824
88,24,14,Improv_Melody,105,9999,9999,9999,2984850512
88,24,14,Improv_Melody,106,9999,9999,9999,2985350212
88,24,14,Improv_Melody,107,9999,9999,9999,2985850988
88,24,14,Improv_Melody,108,9999,9999,9999,2986350664
88,24,14,Improv_Melody,109,9999,9999,9999,2986850416
88,24,14,Improv_Melody,110,9999,9999,9999,2987350096
88,24,14,Improv_Melody,111,9999,9999,9999,2987850820
88,24,14,Improv_Melody,112,9999,9999,9999,2988350544
88,24,14,Improv_Melody,113,9999,9999,9999,2988850244
88,24,14,Improv_Melody,114,9999,9999,9999,2989350988
88,24,14,Improv_Melody,115,9999,9999,9999,2989850732
88,24,14,Improv_Melody,116,9999,9999,9999,2990350388
88,24,14,Improv_Melody,117,9999,9999,9999,2990850120
88,24,14,Improv_Melody,118,9999,9999,9999,2991350844
88,24,14,Improv_Melody,119,9999,9999,9999,2991850600
88,24,14,Improv_Melody,120,9999,9999,9999,2992350272
88,24,14,Improv_Melody,121,9999,9999,9999,2992851008
88,24,14,Improv_Melody,122,9999,9999,9999,2993350720
88,24,14,Improv_Melody,123,9999,9999,9999,2993850472
88,24,14,Improv_Melody,124,9999,9999,9999,2994350152
88,24,14,Improv_Melody,125,9999,9999,9999,2994850908
88,24,14,Improv_Melody,126,9999,9999,9999,2995350584
88,24,14,Improv_Melody,127,9999,9999,9999,2995850340
88,24,14,Improv_Melody,128,9999,9999,9999,2996351092
88,24,14,Improv_Melody,129,9999,9999,9999,2996850756
88,24,14,Improv_Melody,130,9999,9999,9999,2997350456
88,24,14,Improv_Melody,131,9999,9999,9999,2997850208
88,24,14,Improv_Melody,132,9999,9999,9999,2998350936
88,24,14,Improv_Melody,133,9999,9999,9999,2998850668
88,24,14,Improv_Melody,134,9999,9999,9999,2999350344
88,24,14,Improv_Melody,135,9999,9999,9999,2999851068
88,24,14,Improv_Melody,136,9999,9999,9999,3000350800
88,24,14,Improv_Melody,137,9999,9999,9999,3000850492
88,24,14,Improv_Melody,138,9999,9999,9999,3001350220
88,24,14,Improv_Melody,139,9999,9999,9999,3001850968
88,24,14,Improv_Melody,140,9999,9999,9999,3002350668
88,24,14,Improv_Melody,141,9999,9999,9999,3002850396
88,24,14,Improv_Melody,142,9999,9999,9999,3003350076
88,24,14,Improv_Melody,143,9999,9999,9999,3003850804
88,24,14,Improv_Melody,144,9999,9999,9999,3004350536
88,24,14,Improv_Melody,145,9999,9999,9999,3004850296
88,24,14,Improv_Melody,146,9999,9999,9999,3005351020
88,24,14,Improv_Melody,147,9999,9999,9999,3005850700
88,24,14,Improv_Melody,148,9999,9999,9999,3006350432
88,24,14,Improv_Melody,149,9999,9999,9999,3006850108
88,24,14,Improv_Melody,150,9999,9999,9999,3007350884
88,24,14,Improv_Melody,151,9999,9999,9999,3007850564
88,24,14,Improv_Melody,152,9999,9999,9999,3008350308
88,24,14,Improv_Melody,153,9999,9999,9999,3008851044
88,24,14,Improv_Melody,154,9999,9999,9999,3009350740
88,24,14,Improv_Melody,155,9999,9999,9999,3009850420
88,24,14,Improv_Melody,156,9999,9999,9999,3010350200
88,24,14,Improv_Melody,157,9999,9999,9999,3010850900
88,24,14,Improv_Melody,158,9999,9999,9999,3011350584
88,24,14,Improv_Melody,159,9999,9999,9999,3011850312
88,24,14,Improv_Melody,160,9999,9999,9999,3012351072
88,24,14,Improv_Melody,161,9999,9999,9999,3012850784
