pid,taskRunCount,taskID,taskName,i,channel,pitch,velocity,microseconds
80,1,0,Ticks_Pract_8,0,5,42,127,66488724
80,1,0,Ticks_Pract_8,1,5,42,127,67288504
80,1,0,Ticks_Pract_8,2,5,42,127,68089304
80,1,0,Ticks_Pract_8,3,5,42,127,68888984
80,1,0,Ticks_Pract_8,4,1,48,66,69633204
80,1,0,Ticks_Pract_8,5,5,42,127,69688660
80,1,0,Ticks_Pract_8,6,1,48,70,70388652
80,1,0,Ticks_Pract_8,7,5,42,127,70488604
80,1,0,Ticks_Pract_8,8,1,48,60,71266328
80,1,0,Ticks_Pract_8,9,5,42,127,71289472
80,1,0,Ticks_Pract_8,10,5,42,127,72088840
80,1,0,Ticks_Pract_8,11,1,48,64,72102504
80,1,0,Ticks_Pract_8,12,1,48,49,72881048
80,1,0,Ticks_Pract_8,13,5,42,127,72888788
80,1,0,Ticks_Pract_8,14,5,42,127,73688404
80,1,0,Ticks_Pract_8,15,1,48,52,73745900
80,1,0,Ticks_Pract_8,16,1,48,58,74483232
80,1,0,Ticks_Pract_8,17,5,42,127,74489328
80,1,0,Ticks_Pract_8,18,5,42,127,75289140
80,1,0,Ticks_Pract_8,19,1,48,56,75311260
80,1,0,Ticks_Pract_8,20,5,42,127,76088652
80,1,0,Ticks_Pract_8,21,1,48,52,76103064
80,1,0,Ticks_Pract_8,22,5,42,127,76888460
80,1,0,Ticks_Pract_8,23,1,48,55,76889944
80,1,0,Ticks_Pract_8,24,1,48,50,77689092
80,1,0,Ticks_Pract_8,25,5,42,127,77690356
80,1,0,Ticks_Pract_8,26,5,42,127,78489124
80,1,0,Ticks_Pract_8,27,1,48,61,78521488
80,1,0,Ticks_Pract_8,28,1,48,60,79279540
80,1,0,Ticks_Pract_8,29,5,42,127,79288772
80,1,0,Ticks_Pract_8,30,5,42,127,80088316
80,1,0,Ticks_Pract_8,31,1,48,55,80091132
80,1,0,Ticks_Pract_8,32,1,48,57,80879480
80,1,0,Ticks_Pract_8,33,5,42,127,80889312
80,1,0,Ticks_Pract_8,34,1,48,68,81679444
80,1,0,Ticks_Pract_8,35,5,42,127,81689124
80,1,0,Ticks_Pract_8,36,1,48,66,82462120
80,1,0,Ticks_Pract_8,37,5,42,127,82488708
80,1,0,Ticks_Pract_8,38,1,48,61,83252128
80,1,0,Ticks_Pract_8,39,5,42,127,83288292
80,1,0,Ticks_Pract_8,40,1,48,69,84065400
80,1,0,Ticks_Pract_8,41,5,42,127,84089296
80,1,0,Ticks_Pract_8,42,1,48,63,84888284
80,1,0,Ticks_Pract_8,43,5,42,127,84889852
80,1,0,Ticks_Pract_8,44,1,48,53,85685060
80,1,0,Ticks_Pract_8,45,5,42,127,85688764
80,1,0,Ticks_Pract_8,46,1,48,62,86474052
80,1,0,Ticks_Pract_8,47,5,42,127,86488372
80,1,0,Ticks_Pract_8,48,1,48,27,86557972
80,1,0,Ticks_Pract_8,49,1,48,67,87286548
80,1,0,Ticks_Pract_8,50,5,42,127,87289204
80,1,0,Ticks_Pract_8,51,1,48,38,87332472
80,1,0,Ticks_Pract_8,52,5,42,127,88089072
80,1,0,Ticks_Pract_8,53,1,48,57,88103932
80,1,0,Ticks_Pract_8,54,5,42,127,88888804
80,1,0,Ticks_Pract_8,55,1,48,51,88900524
80,1,0,Ticks_Pract_8,56,1,48,56,89653496
80,1,0,Ticks_Pract_8,57,5,42,127,89688460
80,1,0,Ticks_Pract_8,58,1,48,50,90481728
80,1,0,Ticks_Pract_8,0,9999,9999,9999,66486360
80,1,0,Ticks_Pract_8,1,9999,9999,9999,67286064
80,1,0,Ticks_Pract_8,2,9999,9999,9999,68086868
80,1,0,Ticks_Pract_8,3,9999,9999,9999,68886624
80,1,0,Ticks_Pract_8,4,9999,9999,9999,69686372
80,1,0,Ticks_Pract_8,5,9999,9999,9999,70486108
80,1,0,Ticks_Pract_8,6,9999,9999,9999,71286888
80,1,0,Ticks_Pract_8,7,9999,9999,9999,72086628
80,1,0,Ticks_Pract_8,8,9999,9999,9999,72886352
80,1,0,Ticks_Pract_8,9,9999,9999,9999,73686116
80,1,0,Ticks_Pract_8,10,9999,9999,9999,74486892
80,1,0,Ticks_Pract_8,11,9999,9999,9999,75286632
80,1,0,Ticks_Pract_8,12,9999,9999,9999,76086364
80,1,0,Ticks_Pract_8,13,9999,9999,9999,76886096
80,1,0,Ticks_Pract_8,14,9999,9999,9999,77686876
80,1,0,Ticks_Pract_8,15,9999,9999,9999,78486612
80,1,0,Ticks_Pract_8,16,9999,9999,9999,79286336
80,1,0,Ticks_Pract_8,17,9999,9999,9999,80086104
80,1,0,Ticks_Pract_8,18,9999,9999,9999,80886876
80,1,0,Ticks_Pract_8,19,9999,9999,9999,81686612
80,1,0,Ticks_Pract_8,20,9999,9999,9999,82486344
80,1,0,Ticks_Pract_8,21,9999,9999,9999,83286080
80,1,0,Ticks_Pract_8,22,9999,9999,9999,84086860
80,1,0,Ticks_Pract_8,23,9999,9999,9999,84886600
80,1,0,Ticks_Pract_8,24,9999,9999,9999,85686328
80,1,0,Ticks_Pract_8,25,9999,9999,9999,86486084
80,1,0,Ticks_Pract_8,26,9999,9999,9999,87286844
80,1,0,Ticks_Pract_8,27,9999,9999,9999,88086636
80,1,0,Ticks_Pract_8,28,9999,9999,9999,88886368
80,1,0,Ticks_Pract_8,29,9999,9999,9999,89686096
80,2,1,Ticks_Pract_5,0,5,42,127,122777928
80,2,1,Ticks_Pract_5,1,5,42,127,123277644
80,2,1,Ticks_Pract_5,2,5,42,127,123778484
80,2,1,Ticks_Pract_5,3,5,42,127,124278348
80,2,1,Ticks_Pract_5,4,5,42,127,124777764
80,2,1,Ticks_Pract_5,5,5,42,127,125277484
80,2,1,Ticks_Pract_5,6,5,42,127,125778468
80,2,1,Ticks_Pract_5,7,5,42,127,126278184
80,2,1,Ticks_Pract_5,8,5,42,127,126777680
80,2,1,Ticks_Pract_5,9,1,48,54,126783412
80,2,1,Ticks_Pract_5,10,1,48,55,127236040
80,2,1,Ticks_Pract_5,11,5,42,127,127277292
80,2,1,Ticks_Pract_5,12,5,42,127,127778340
80,2,1,Ticks_Pract_5,13,1,48,56,127787516
80,2,1,Ticks_Pract_5,14,1,48,56,128273204
80,2,1,Ticks_Pract_5,15,5,42,127,128277804
80,2,1,Ticks_Pract_5,16,5,42,127,128777580
80,2,1,Ticks_Pract_5,17,1,48,59,128819140
80,2,1,Ticks_Pract_5,18,5,42,127,129278472
80,2,1,Ticks_Pract_5,19,1,48,51,129317944
80,2,1,Ticks_Pract_5,20,5,42,127,129778464
80,2,1,Ticks_Pract_5,21,1,48,55,129831400
80,2,1,Ticks_Pract_5,22,5,42,127,130277636
80,2,1,Ticks_Pract_5,23,1,48,48,130280304
80,2,1,Ticks_Pract_5,24,5,42,127,130777556
80,2,1,Ticks_Pract_5,25,1,48,58,130816208
80,2,1,Ticks_Pract_5,26,5,42,127,131278220
80,2,1,Ticks_Pract_5,27,1,48,45,131323452
80,2,1,Ticks_Pract_5,28,5,42,127,131777892
80,2,1,Ticks_Pract_5,29,1,48,51,131818884
80,2,1,Ticks_Pract_5,30,5,42,127,132277512
80,2,1,Ticks_Pract_5,31,1,48,50,132320968
80,2,1,Ticks_Pract_5,32,5,42,127,132778328
80,2,1,Ticks_Pract_5,33,1,48,51,132814008
80,2,1,Ticks_Pract_5,34,5,42,127,133278172
80,2,1,Ticks_Pract_5,35,1,48,43,133310760
80,2,1,Ticks_Pract_5,36,5,42,127,133777644
80,2,1,Ticks_Pract_5,37,1,48,58,133786440
80,2,1,Ticks_Pract_5,38,1,48,56,134251936
80,2,1,Ticks_Pract_5,39,5,42,127,134277476
80,2,1,Ticks_Pract_5,40,5,42,127,134778152
80,2,1,Ticks_Pract_5,41,1,48,59,134787776
80,2,1,Ticks_Pract_5,42,5,42,127,135277920
80,2,1,Ticks_Pract_5,43,1,48,54,135287852
80,2,1,Ticks_Pract_5,44,5,42,127,135777540
80,2,1,Ticks_Pract_5,45,1,48,51,135794944
80,2,1,Ticks_Pract_5,46,5,42,127,136278284
80,2,1,Ticks_Pract_5,47,1,48,49,136295160
80,2,1,Ticks_Pract_5,48,5,42,127,136778124
80,2,1,Ticks_Pract_5,49,1,48,52,136835544
80,2,1,Ticks_Pract_5,50,1,48,56,137271868
80,2,1,Ticks_Pract_5,51,5,42,127,137277884
80,2,1,Ticks_Pract_5,52,5,42,127,137777512
80,2,1,Ticks_Pract_5,53,1,48,48,137790952
80,2,1,Ticks_Pract_5,54,5,42,127,138278252
80,2,1,Ticks_Pract_5,55,1,48,51,138303884
80,2,1,Ticks_Pract_5,56,5,42,127,138778024
80,2,1,Ticks_Pract_5,57,1,48,48,138799168
80,2,1,Ticks_Pract_5,58,5,42,127,139277568
80,2,1,Ticks_Pract_5,59,1,48,57,139318232
80,2,1,Ticks_Pract_5,60,5,42,127,139778308
80,2,1,Ticks_Pract_5,61,1,48,41,139809324
80,2,1,Ticks_Pract_5,62,5,42,127,140278152
80,2,1,Ticks_Pract_5,63,1,48,48,140292120
80,2,1,Ticks_Pract_5,64,5,42,127,140777920
80,2,1,Ticks_Pract_5,65,1,48,49,140812604
80,2,1,Ticks_Pract_5,66,5,42,127,141277544
80,2,1,Ticks_Pract_5,67,1,48,50,141316416
80,2,1,Ticks_Pract_5,68,5,42,127,141778284
80,2,1,Ticks_Pract_5,69,1,48,53,141813940
80,2,1,Ticks_Pract_5,70,5,42,127,142277976
80,2,1,Ticks_Pract_5,71,1,48,51,142325296
80,2,1,Ticks_Pract_5,0,9999,9999,9999,122775640
80,2,1,Ticks_Pract_5,1,9999,9999,9999,123275356
80,2,1,Ticks_Pract_5,2,9999,9999,9999,123776124
80,2,1,Ticks_Pract_5,3,9999,9999,9999,124275760
80,2,1,Ticks_Pract_5,4,9999,9999,9999,124775476
80,2,1,Ticks_Pract_5,5,9999,9999,9999,125275192
80,2,1,Ticks_Pract_5,6,9999,9999,9999,125775956
80,2,1,Ticks_Pract_5,7,9999,9999,9999,126275672
80,2,1,Ticks_Pract_5,8,9999,9999,9999,126775388
80,2,1,Ticks_Pract_5,9,9999,9999,9999,127275076
80,2,1,Ticks_Pract_5,10,9999,9999,9999,127775824
80,2,1,Ticks_Pract_5,11,9999,9999,9999,128275516
80,2,1,Ticks_Pract_5,12,9999,9999,9999,128775288
80,2,1,Ticks_Pract_5,13,9999,9999,9999,129275956
80,2,1,Ticks_Pract_5,14,9999,9999,9999,129775728
80,2,1,Ticks_Pract_5,15,9999,9999,9999,130275420
80,2,1,Ticks_Pract_5,16,9999,9999,9999,130775116
80,2,1,Ticks_Pract_5,17,9999,9999,9999,131275856
80,2,1,Ticks_Pract_5,18,9999,9999,9999,131775604
80,2,1,Ticks_Pract_5,19,9999,9999,9999,132275296
80,2,1,Ticks_Pract_5,20,9999,9999,9999,132776036
80,2,1,Ticks_Pract_5,21,9999,9999,9999,133275732
80,2,1,Ticks_Pract_5,22,9999,9999,9999,133775428
80,2,1,Ticks_Pract_5,23,9999,9999,9999,134275188
80,2,1,Ticks_Pract_5,24,9999,9999,9999,134775860
80,2,1,Ticks_Pract_5,25,9999,9999,9999,135275632
80,2,1,Ticks_Pract_5,26,9999,9999,9999,135775324
80,2,1,Ticks_Pract_5,27,9999,9999,9999,136276068
80,2,1,Ticks_Pract_5,28,9999,9999,9999,136775760
80,2,1,Ticks_Pract_5,29,9999,9999,9999,137275448
80,2,1,Ticks_Pract_5,30,9999,9999,9999,137775224
80,2,1,Ticks_Pract_5,31,9999,9999,9999,138275888
80,2,1,Ticks_Pract_5,32,9999,9999,9999,138775656
80,2,1,Ticks_Pract_5,33,9999,9999,9999,139275352
80,2,1,Ticks_Pract_5,34,9999,9999,9999,139776096
80,2,1,Ticks_Pract_5,35,9999,9999,9999,140275788
80,2,1,Ticks_Pract_5,36,9999,9999,9999,140775484
80,2,1,Ticks_Pract_5,37,9999,9999,9999,141275252
80,2,1,Ticks_Pract_5,38,9999,9999,9999,141775992
80,2,1,Ticks_Pract_5,39,9999,9999,9999,142275688
80,3,2,T1_SMS_8,0,5,42,127,218463684
80,3,2,T1_SMS_8,1,5,42,127,219264560
80,3,2,T1_SMS_8,2,5,42,127,220064020
80,3,2,T1_SMS_8,3,5,42,127,220863724
80,3,2,T1_SMS_8,4,1,48,50,221629756
80,3,2,T1_SMS_8,5,5,42,127,221663672
80,3,2,T1_SMS_8,6,1,48,50,222378676
80,3,2,T1_SMS_8,7,5,42,127,222464304
80,3,2,T1_SMS_8,8,1,48,50,223167592
80,3,2,T1_SMS_8,9,5,42,127,223263960
80,3,2,T1_SMS_8,10,1,48,48,223982280
80,3,2,T1_SMS_8,11,5,42,127,224063992
80,3,2,T1_SMS_8,12,1,48,46,224819864
80,3,2,T1_SMS_8,13,5,42,127,224863728
80,3,2,T1_SMS_8,14,1,48,53,225649664
80,3,2,T1_SMS_8,15,5,42,127,225664580
80,3,2,T1_SMS_8,16,1,48,47,226433688
80,3,2,T1_SMS_8,17,5,42,127,226464240
80,3,2,T1_SMS_8,18,1,48,47,227236340
80,3,2,T1_SMS_8,19,5,42,127,227263776
80,3,2,T1_SMS_8,20,1,48,43,228049340
80,3,2,T1_SMS_8,21,5,42,127,228063584
80,3,2,T1_SMS_8,22,1,48,47,228823192
80,3,2,T1_SMS_8,23,5,42,127,228864440
80,3,2,T1_SMS_8,24,1,48,53,229626812
80,3,2,T1_SMS_8,25,5,42,127,229664172
80,3,2,T1_SMS_8,26,1,48,54,230414132
80,3,2,T1_SMS_8,27,5,42,127,230463832
80,3,2,T1_SMS_8,28,1,48,43,231190376
80,3,2,T1_SMS_8,29,5,42,127,231263488
80,3,2,T1_SMS_8,30,1,48,45,231925940
80,3,2,T1_SMS_8,31,5,42,127,232064332
80,3,2,T1_SMS_8,32,1,48,43,232830836
80,3,2,T1_SMS_8,33,5,42,127,232864228
80,3,2,T1_SMS_8,34,5,42,127,233664068
80,3,2,T1_SMS_8,35,1,48,37,233685584
80,3,2,T1_SMS_8,36,5,42,127,234463728
80,3,2,T1_SMS_8,37,1,48,41,234468868
80,3,2,T1_SMS_8,38,5,42,127,235264508
80,3,2,T1_SMS_8,39,1,48,39,235292160
80,3,2,T1_SMS_8,40,5,42,127,236064240
80,3,2,T1_SMS_8,41,1,48,42,236092340
80,3,2,T1_SMS_8,42,5,42,127,236863828
80,3,2,T1_SMS_8,43,1,48,41,236871208
80,3,2,T1_SMS_8,44,5,42,127,237663632
80,3,2,T1_SMS_8,45,1,48,38,237716116
80,3,2,T1_SMS_8,46,5,42,127,238464340
80,3,2,T1_SMS_8,47,1,48,35,238473068
80,3,2,T1_SMS_8,48,1,48,33,239251616
80,3,2,T1_SMS_8,49,5,42,127,239264140
80,3,2,T1_SMS_8,50,1,48,43,240044544
80,3,2,T1_SMS_8,51,5,42,127,240063972
80,3,2,T1_SMS_8,52,1,48,41,240847072
80,3,2,T1_SMS_8,53,5,42,127,240863704
80,3,2,T1_SMS_8,54,1,48,44,241606256
80,3,2,T1_SMS_8,55,5,42,127,241664412
80,3,2,T1_SMS_8,56,5,42,127,242464300
80,3,2,T1_SMS_8,57,1,48,46,242478196
80,3,2,T1_SMS_8,58,1,48,37,243260028
80,3,2,T1_SMS_8,59,5,42,127,243263800
80,3,2,T1_SMS_8,60,1,48,37,244055276
80,3,2,T1_SMS_8,61,5,42,127,244063608
80,3,2,T1_SMS_8,62,1,48,42,244850668
80,3,2,T1_SMS_8,63,5,42,127,244864316
80,3,2,T1_SMS_8,64,1,48,39,245656456
80,3,2,T1_SMS_8,65,5,42,127,245664344
80,3,2,T1_SMS_8,66,1,48,43,246427700
80,3,2,T1_SMS_8,67,5,42,127,246463956
80,3,2,T1_SMS_8,68,5,42,127,247263472
80,3,2,T1_SMS_8,69,1,48,46,247290980
80,3,2,T1_SMS_8,70,1,48,50,248047308
80,3,2,T1_SMS_8,71,5,42,127,248064320
80,3,2,T1_SMS_8,72,1,48,47,248840612
80,3,2,T1_SMS_8,73,5,42,127,248864204
80,3,2,T1_SMS_8,74,1,48,49,249658596
80,3,2,T1_SMS_8,75,5,42,127,249664084
80,3,2,T1_SMS_8,76,5,42,127,250463676
80,3,2,T1_SMS_8,77,1,48,45,250482648
80,3,2,T1_SMS_8,78,1,48,49,251223948
80,3,2,T1_SMS_8,79,5,42,127,251264300
80,3,2,T1_SMS_8,80,5,42,127,252064040
80,3,2,T1_SMS_8,81,1,48,38,252118272
80,3,2,T1_SMS_8,82,5,42,127,252864020
80,3,2,T1_SMS_8,83,1,48,43,252902748
80,3,2,T1_SMS_8,84,5,42,127,253663532
80,3,2,T1_SMS_8,85,1,48,48,253696128
80,3,2,T1_SMS_8,86,5,42,127,254464240
80,3,2,T1_SMS_8,87,1,48,45,254487108
80,3,2,T1_SMS_8,88,5,42,127,255264196
80,3,2,T1_SMS_8,89,1,48,43,255282576
80,3,2,T1_SMS_8,90,5,42,127,256064004
80,3,2,T1_SMS_8,91,1,48,45,256076620
80,3,2,T1_SMS_8,92,1,48,49,256839168
80,3,2,T1_SMS_8,93,5,42,127,256863880
80,3,2,T1_SMS_8,94,1,48,40,257644584
80,3,2,T1_SMS_8,95,5,42,127,257664364
80,3,2,T1_SMS_8,96,1,48,43,258433844
80,3,2,T1_SMS_8,97,5,42,127,258464244
80,3,2,T1_SMS_8,98,5,42,127,259263788
80,3,2,T1_SMS_8,99,1,48,35,259267356
80,3,2,T1_SMS_8,100,1,48,41,260046424
80,3,2,T1_SMS_8,101,5,42,127,260063884
80,3,2,T1_SMS_8,102,1,48,46,260811008
80,3,2,T1_SMS_8,103,5,42,127,260864292
80,3,2,T1_SMS_8,104,5,42,127,261664032
80,3,2,T1_SMS_8,105,1,48,46,261703204
80,3,2,T1_SMS_8,106,5,42,127,262463840
80,3,2,T1_SMS_8,107,1,48,48,262476160
80,3,2,T1_SMS_8,108,5,42,127,263263796
80,3,2,T1_SMS_8,109,1,48,47,263299232
80,3,2,T1_SMS_8,110,1,48,38,264037160
80,3,2,T1_SMS_8,111,5,42,127,264064492
80,3,2,T1_SMS_8,112,5,42,127,264864084
80,3,2,T1_SMS_8,113,1,48,43,264866752
80,3,2,T1_SMS_8,114,5,42,127,265663844
80,3,2,T1_SMS_8,115,1,48,51,266254920
80,3,2,T1_SMS_8,116,1,48,32,266330448
80,3,2,T1_SMS_8,117,5,42,127,266463704
80,3,2,T1_SMS_8,118,1,48,51,267096224
80,3,2,T1_SMS_8,119,5,42,127,267264260
80,3,2,T1_SMS_8,120,1,48,48,268018424
80,3,2,T1_SMS_8,121,5,42,127,268064084
80,3,2,T1_SMS_8,122,1,48,52,268830948
80,3,2,T1_SMS_8,123,5,42,127,268863744
80,3,2,T1_SMS_8,124,1,48,51,269660972
80,3,2,T1_SMS_8,125,5,42,127,269663624
80,3,2,T1_SMS_8,126,5,42,127,270464484
80,3,2,T1_SMS_8,127,1,48,47,270498272
80,3,2,T1_SMS_8,128,5,42,127,271264068
80,3,2,T1_SMS_8,129,1,48,43,271265108
80,3,2,T1_SMS_8,130,5,42,127,272063752
80,3,2,T1_SMS_8,131,1,48,39,272066492
80,3,2,T1_SMS_8,132,1,48,51,272834124
80,3,2,T1_SMS_8,133,5,42,127,272863552
80,3,2,T1_SMS_8,134,1,48,33,272880048
80,3,2,T1_SMS_8,135,1,48,42,273598380
80,3,2,T1_SMS_8,136,5,42,127,273664608
80,3,2,T1_SMS_8,137,5,42,127,274464052
80,3,2,T1_SMS_8,138,1,48,37,274479884
80,3,2,T1_SMS_8,139,1,48,35,275254692
80,3,2,T1_SMS_8,140,5,42,127,275263852
80,3,2,T1_SMS_8,141,5,42,127,276063516
80,3,2,T1_SMS_8,142,1,48,42,276083612
80,3,2,T1_SMS_8,143,5,42,127,276864520
80,3,2,T1_SMS_8,144,1,48,30,276928252
80,3,2,T1_SMS_8,145,1,48,46,277659504
80,3,2,T1_SMS_8,146,5,42,127,277664248
80,3,2,T1_SMS_8,147,1,48,43,278445696
80,3,2,T1_SMS_8,148,5,42,127,278463784
80,3,2,T1_SMS_8,149,5,42,127,279263448
80,3,2,T1_SMS_8,150,1,48,39,279277716
80,3,2,T1_SMS_8,151,1,48,42,280042272
80,3,2,T1_SMS_8,152,5,42,127,280064744
80,3,2,T1_SMS_8,153,1,48,48,280810820
80,3,2,T1_SMS_8,154,5,42,127,280864328
80,3,2,T1_SMS_8,155,1,48,37,281656172
80,3,2,T1_SMS_8,156,5,42,127,281663988
80,3,2,T1_SMS_8,157,1,48,48,282425840
80,3,2,T1_SMS_8,158,5,42,127,282463496
80,3,2,T1_SMS_8,159,1,48,46,283211812
80,3,2,T1_SMS_8,160,5,42,127,283264352
80,3,2,T1_SMS_8,161,1,48,39,284042364
80,3,2,T1_SMS_8,162,5,42,127,284064160
80,3,2,T1_SMS_8,163,1,48,41,284831924
80,3,2,T1_SMS_8,164,5,42,127,284863916
80,3,2,T1_SMS_8,165,1,48,50,285659728
80,3,2,T1_SMS_8,166,5,42,127,285663800
80,3,2,T1_SMS_8,167,5,42,127,286464512
80,3,2,T1_SMS_8,168,1,48,51,286497256
80,3,2,T1_SMS_8,169,5,42,127,287264096
80,3,2,T1_SMS_8,170,1,48,42,287281804
80,3,2,T1_SMS_8,171,1,48,41,288060948
80,3,2,T1_SMS_8,172,5,42,127,288063824
80,3,2,T1_SMS_8,173,1,48,33,288842132
80,3,2,T1_SMS_8,174,5,42,127,288863556
80,3,2,T1_SMS_8,175,1,48,44,289650020
80,3,2,T1_SMS_8,176,5,42,127,289664412
80,3,2,T1_SMS_8,177,1,48,43,290393204
80,3,2,T1_SMS_8,178,5,42,127,290464220
80,3,2,T1_SMS_8,179,1,48,46,291236316
80,3,2,T1_SMS_8,180,5,42,127,291263752
80,3,2,T1_SMS_8,181,1,48,48,292049540
80,3,2,T1_SMS_8,182,5,42,127,292063560
80,3,2,T1_SMS_8,183,1,48,46,292843212
80,3,2,T1_SMS_8,184,5,42,127,292864344
80,3,2,T1_SMS_8,185,1,48,48,293653268
80,3,2,T1_SMS_8,186,5,42,127,293664224
80,3,2,T1_SMS_8,187,1,48,51,294463364
80,3,2,T1_SMS_8,188,5,42,127,294464856
80,3,2,T1_SMS_8,189,5,42,127,295263552
80,3,2,T1_SMS_8,190,1,48,43,295308412
80,3,2,T1_SMS_8,191,1,48,37,296055312
80,3,2,T1_SMS_8,192,5,42,127,296064324
80,3,2,T1_SMS_8,193,5,42,127,296864064
80,3,2,T1_SMS_8,194,1,48,40,296916572
80,3,2,T1_SMS_8,195,1,48,45,297652688
80,3,2,T1_SMS_8,196,5,42,127,297663888
80,3,2,T1_SMS_8,197,5,42,127,298463556
80,3,2,T1_SMS_8,198,1,48,38,298501680
80,3,2,T1_SMS_8,199,1,48,44,299263128
80,3,2,T1_SMS_8,200,5,42,127,299264628
80,3,2,T1_SMS_8,201,1,48,49,300010924
80,3,2,T1_SMS_8,202,5,42,127,300064212
80,3,2,T1_SMS_8,203,1,48,46,300852020
80,3,2,T1_SMS_8,204,5,42,127,300863944
80,3,2,T1_SMS_8,205,1,48,40,301649804
80,3,2,T1_SMS_8,206,5,42,127,301663532
80,3,2,T1_SMS_8,207,1,48,44,302430396
80,3,2,T1_SMS_8,208,5,42,127,302464312
80,3,2,T1_SMS_8,209,1,48,44,303251068
80,3,2,T1_SMS_8,210,5,42,127,303264116
80,3,2,T1_SMS_8,211,5,42,127,304063956
80,3,2,T1_SMS_8,212,1,48,47,304092132
80,3,2,T1_SMS_8,213,5,42,127,304863544
80,3,2,T1_SMS_8,214,1,48,41,304865332
80,3,2,T1_SMS_8,215,5,42,127,305664472
80,3,2,T1_SMS_8,216,1,48,47,305667068
80,3,2,T1_SMS_8,217,5,42,127,306464204
80,3,2,T1_SMS_8,218,1,48,41,306474280
80,3,2,T1_SMS_8,219,1,48,45,307243848
80,3,2,T1_SMS_8,220,5,42,127,307263780
80,3,2,T1_SMS_8,221,1,48,50,308028028
80,3,2,T1_SMS_8,222,5,42,127,308063592
80,3,2,T1_SMS_8,223,1,48,48,308841528
80,3,2,T1_SMS_8,224,5,42,127,308864220
80,3,2,T1_SMS_8,225,1,48,51,309628992
80,3,2,T1_SMS_8,226,5,42,127,309664176
80,3,2,T1_SMS_8,227,1,48,42,310439868
80,3,2,T1_SMS_8,228,5,42,127,310463936
80,3,2,T1_SMS_8,229,1,48,44,311246964
80,3,2,T1_SMS_8,230,5,42,127,311263596
80,3,2,T1_SMS_8,231,1,48,43,312023356
80,3,2,T1_SMS_8,232,5,42,127,312064304
80,3,2,T1_SMS_8,233,1,48,44,312831616
80,3,2,T1_SMS_8,234,5,42,127,312864112
80,3,2,T1_SMS_8,235,5,42,127,313664000
80,3,2,T1_SMS_8,236,1,48,28,313677072
80,3,2,T1_SMS_8,237,1,48,44,314389652
80,3,2,T1_SMS_8,0,9999,9999,9999,218461248
80,3,2,T1_SMS_8,1,9999,9999,9999,219262048
80,3,2,T1_SMS_8,2,9999,9999,9999,220061804
80,3,2,T1_SMS_8,3,9999,9999,9999,220861512
80,3,2,T1_SMS_8,4,9999,9999,9999,221661236
80,3,2,T1_SMS_8,5,9999,9999,9999,222462016
80,3,2,T1_SMS_8,6,9999,9999,9999,223261748
80,3,2,T1_SMS_8,7,9999,9999,9999,224061556
80,3,2,T1_SMS_8,8,9999,9999,9999,224861292
80,3,2,T1_SMS_8,9,9999,9999,9999,225662068
80,3,2,T1_SMS_8,10,9999,9999,9999,226461804
80,3,2,T1_SMS_8,11,9999,9999,9999,227261488
80,3,2,T1_SMS_8,12,9999,9999,9999,228061296
80,3,2,T1_SMS_8,13,9999,9999,9999,228862000
80,3,2,T1_SMS_8,14,9999,9999,9999,229661812
80,3,2,T1_SMS_8,15,9999,9999,9999,230461544
80,3,2,T1_SMS_8,16,9999,9999,9999,231261276
80,3,2,T1_SMS_8,17,9999,9999,9999,232062044
80,3,2,T1_SMS_8,18,9999,9999,9999,232861792
80,3,2,T1_SMS_8,19,9999,9999,9999,233661556
80,3,2,T1_SMS_8,20,9999,9999,9999,234461288
80,3,2,T1_SMS_8,21,9999,9999,9999,235262068
80,3,2,T1_SMS_8,22,9999,9999,9999,236061804
80,3,2,T1_SMS_8,23,9999,9999,9999,236861540
80,3,2,T1_SMS_8,24,9999,9999,9999,237661272
80,3,2,T1_SMS_8,25,9999,9999,9999,238462052
80,3,2,T1_SMS_8,26,9999,9999,9999,239261776
80,3,2,T1_SMS_8,27,9999,9999,9999,240061536
80,3,2,T1_SMS_8,28,9999,9999,9999,240861268
80,3,2,T1_SMS_8,29,9999,9999,9999,241662048
80,3,2,T1_SMS_8,30,9999,9999,9999,242461788
80,3,2,T1_SMS_8,31,9999,9999,9999,243261512
80,3,2,T1_SMS_8,32,9999,9999,9999,244061248
80,3,2,T1_SMS_8,33,9999,9999,9999,244862028
80,3,2,T1_SMS_8,34,9999,9999,9999,245661760
80,3,2,T1_SMS_8,35,9999,9999,9999,246461520
80,3,2,T1_SMS_8,36,9999,9999,9999,247261256
80,3,2,T1_SMS_8,37,9999,9999,9999,248062032
80,3,2,T1_SMS_8,38,9999,9999,9999,248861764
80,3,2,T1_SMS_8,39,9999,9999,9999,249661500
80,3,2,T1_SMS_8,40,9999,9999,9999,250461240
80,3,2,T1_SMS_8,41,9999,9999,9999,251262012
80,3,2,T1_SMS_8,42,9999,9999,9999,252061752
80,3,2,T1_SMS_8,43,9999,9999,9999,252861508
80,3,2,T1_SMS_8,44,9999,9999,9999,253661244
80,3,2,T1_SMS_8,45,9999,9999,9999,254462024
80,3,2,T1_SMS_8,46,9999,9999,9999,255261760
80,3,2,T1_SMS_8,47,9999,9999,9999,256061492
80,3,2,T1_SMS_8,48,9999,9999,9999,256861296
80,3,2,T1_SMS_8,49,9999,9999,9999,257662000
80,3,2,T1_SMS_8,50,9999,9999,9999,258461808
80,3,2,T1_SMS_8,51,9999,9999,9999,259261500
80,3,2,T1_SMS_8,52,9999,9999,9999,260061300
80,3,2,T1_SMS_8,53,9999,9999,9999,260862004
80,3,2,T1_SMS_8,54,9999,9999,9999,261661744
80,3,2,T1_SMS_8,55,9999,9999,9999,262461552
80,3,2,T1_SMS_8,56,9999,9999,9999,263261284
80,3,2,T1_SMS_8,57,9999,9999,9999,264062056
80,3,2,T1_SMS_8,58,9999,9999,9999,264861796
80,3,2,T1_SMS_8,59,9999,9999,9999,265661556
80,3,2,T1_SMS_8,60,9999,9999,9999,266461264
80,3,2,T1_SMS_8,61,9999,9999,9999,267262048
80,3,2,T1_SMS_8,62,9999,9999,9999,268061796
80,3,2,T1_SMS_8,63,9999,9999,9999,268861528
80,3,2,T1_SMS_8,64,9999,9999,9999,269661260
80,3,2,T1_SMS_8,65,9999,9999,9999,270462048
80,3,2,T1_SMS_8,66,9999,9999,9999,271261780
80,3,2,T1_SMS_8,67,9999,9999,9999,272061540
80,3,2,T1_SMS_8,68,9999,9999,9999,272861264
80,3,2,T1_SMS_8,69,9999,9999,9999,273662024
80,3,2,T1_SMS_8,70,9999,9999,9999,274461764
80,3,2,T1_SMS_8,71,9999,9999,9999,275261488
80,3,2,T1_SMS_8,72,9999,9999,9999,276061304
80,3,2,T1_SMS_8,73,9999,9999,9999,276862008
80,3,2,T1_SMS_8,74,9999,9999,9999,277661812
80,3,2,T1_SMS_8,75,9999,9999,9999,278461496
80,3,2,T1_SMS_8,76,9999,9999,9999,279261236
80,3,2,T1_SMS_8,77,9999,9999,9999,280062012
80,3,2,T1_SMS_8,78,9999,9999,9999,280861744
80,3,2,T1_SMS_8,79,9999,9999,9999,281661552
80,3,2,T1_SMS_8,80,9999,9999,9999,282461284
80,3,2,T1_SMS_8,81,9999,9999,9999,283262064
80,3,2,T1_SMS_8,82,9999,9999,9999,284061796
80,3,2,T1_SMS_8,83,9999,9999,9999,284861556
80,3,2,T1_SMS_8,84,9999,9999,9999,285661288
80,3,2,T1_SMS_8,85,9999,9999,9999,286462000
80,3,2,T1_SMS_8,86,9999,9999,9999,287261808
80,3,2,T1_SMS_8,87,9999,9999,9999,288061536
80,3,2,T1_SMS_8,88,9999,9999,9999,288861268
80,3,2,T1_SMS_8,89,9999,9999,9999,289662048
80,3,2,T1_SMS_8,90,9999,9999,9999,290461780
80,3,2,T1_SMS_8,91,9999,9999,9999,291261540
80,3,2,T1_SMS_8,92,9999,9999,9999,292061272
80,3,2,T1_SMS_8,93,9999,9999,9999,292862052
80,3,2,T1_SMS_8,94,9999,9999,9999,293661788
80,3,2,T1_SMS_8,95,9999,9999,9999,294461528
80,3,2,T1_SMS_8,96,9999,9999,9999,295261260
80,3,2,T1_SMS_8,97,9999,9999,9999,296062036
80,3,2,T1_SMS_8,98,9999,9999,9999,296861776
80,3,2,T1_SMS_8,99,9999,9999,9999,297661528
80,3,2,T1_SMS_8,100,9999,9999,9999,298461268
80,3,2,T1_SMS_8,101,9999,9999,9999,299262048
80,3,2,T1_SMS_8,102,9999,9999,9999,300061776
80,3,2,T1_SMS_8,103,9999,9999,9999,300861508
80,3,2,T1_SMS_8,104,9999,9999,9999,301661240
80,3,2,T1_SMS_8,105,9999,9999,9999,302462024
80,3,2,T1_SMS_8,106,9999,9999,9999,303261756
80,3,2,T1_SMS_8,107,9999,9999,9999,304061520
80,3,2,T1_SMS_8,108,9999,9999,9999,304861256
80,3,2,T1_SMS_8,109,9999,9999,9999,305662036
80,3,2,T1_SMS_8,110,9999,9999,9999,306461768
80,3,2,T1_SMS_8,111,9999,9999,9999,307261492
80,3,2,T1_SMS_8,112,9999,9999,9999,308061304
80,3,2,T1_SMS_8,113,9999,9999,9999,308862008
80,3,2,T1_SMS_8,114,9999,9999,9999,309661816
80,3,2,T1_SMS_8,115,9999,9999,9999,310461500
80,3,2,T1_SMS_8,116,9999,9999,9999,311261236
80,3,2,T1_SMS_8,117,9999,9999,9999,312062016
80,3,2,T1_SMS_8,118,9999,9999,9999,312861752
80,3,2,T1_SMS_8,119,9999,9999,9999,313661488
80,4,4,T1_SMS_5,0,5,42,127,377470208
80,4,4,T1_SMS_5,1,5,42,127,377970072
80,4,4,T1_SMS_5,2,5,42,127,378469716
80,4,4,T1_SMS_5,3,5,42,127,378969508
80,4,4,T1_SMS_5,4,5,42,127,379470272
80,4,4,T1_SMS_5,5,1,48,54,379476604
80,4,4,T1_SMS_5,6,1,48,57,379939632
80,4,4,T1_SMS_5,7,5,42,127,379969884
80,4,4,T1_SMS_5,8,5,42,127,380469736
80,4,4,T1_SMS_5,9,1,48,62,380481832
80,4,4,T1_SMS_5,10,5,42,127,380970552
80,4,4,T1_SMS_5,11,1,48,64,380975316
80,4,4,T1_SMS_5,12,1,48,27,381036176
80,4,4,T1_SMS_5,13,5,42,127,381469924
80,4,4,T1_SMS_5,14,1,48,48,381501768
80,4,4,T1_SMS_5,15,5,42,127,381969620
80,4,4,T1_SMS_5,16,1,48,59,382000340
80,4,4,T1_SMS_5,17,5,42,127,382469612
80,4,4,T1_SMS_5,18,1,48,54,382478940
80,4,4,T1_SMS_5,19,5,42,127,382970204
80,4,4,T1_SMS_5,20,1,48,56,383012740
80,4,4,T1_SMS_5,21,5,42,127,383469900
80,4,4,T1_SMS_5,22,1,48,55,383502040
80,4,4,T1_SMS_5,23,5,42,127,383969668
80,4,4,T1_SMS_5,24,1,48,54,383978172
80,4,4,T1_SMS_5,25,5,42,127,384470708
80,4,4,T1_SMS_5,26,1,48,55,384477120
80,4,4,T1_SMS_5,27,5,42,127,384970032
80,4,4,T1_SMS_5,28,1,48,54,384974496
80,4,4,T1_SMS_5,29,5,42,127,385469800
80,4,4,T1_SMS_5,30,1,48,52,385488404
80,4,4,T1_SMS_5,31,5,42,127,385969472
80,4,4,T1_SMS_5,32,1,48,52,385970736
80,4,4,T1_SMS_5,33,5,42,127,386470288
80,4,4,T1_SMS_5,34,1,48,45,386493480
80,4,4,T1_SMS_5,35,5,42,127,386969908
80,4,4,T1_SMS_5,36,1,48,50,386979984
80,4,4,T1_SMS_5,37,5,42,127,387469752
80,4,4,T1_SMS_5,38,1,48,46,387482592
80,4,4,T1_SMS_5,39,5,42,127,387970568
80,4,4,T1_SMS_5,40,1,48,51,387984232
80,4,4,T1_SMS_5,41,5,42,127,388470040
80,4,4,T1_SMS_5,42,1,48,51,388480564
80,4,4,T1_SMS_5,43,5,42,127,388969884
80,4,4,T1_SMS_5,44,1,48,48,388981304
80,4,4,T1_SMS_5,45,5,42,127,389469652
80,4,4,T1_SMS_5,46,1,48,54,389483312
80,4,4,T1_SMS_5,47,1,48,51,389970392
80,4,4,T1_SMS_5,48,5,42,127,389971508
80,4,4,T1_SMS_5,49,5,42,127,390470088
80,4,4,T1_SMS_5,50,1,48,52,390472532
80,4,4,T1_SMS_5,51,5,42,127,390969708
80,4,4,T1_SMS_5,52,1,48,49,391010300
80,4,4,T1_SMS_5,53,5,42,127,391469628
80,4,4,T1_SMS_5,54,1,48,58,391477684
80,4,4,T1_SMS_5,55,5,42,127,391970072
80,4,4,T1_SMS_5,56,1,48,54,391980520
80,4,4,T1_SMS_5,57,5,42,127,392469840
80,4,4,T1_SMS_5,58,1,48,49,392472432
80,4,4,T1_SMS_5,59,5,42,127,392969684
80,4,4,T1_SMS_5,60,1,48,59,392984920
80,4,4,T1_SMS_5,61,5,42,127,393470424
80,4,4,T1_SMS_5,62,1,48,55,393506080
80,4,4,T1_SMS_5,63,1,48,55,393960508
80,4,4,T1_SMS_5,64,5,42,127,393969892
80,4,4,T1_SMS_5,65,5,42,127,394469668
80,4,4,T1_SMS_5,66,1,48,57,394508692
80,4,4,T1_SMS_5,67,1,48,46,394960644
80,4,4,T1_SMS_5,68,5,42,127,394969580
80,4,4,T1_SMS_5,69,1,48,50,395466772
80,4,4,T1_SMS_5,70,5,42,127,395470320
80,4,4,T1_SMS_5,71,5,42,127,395969872
80,4,4,T1_SMS_5,72,1,48,49,395983612
80,4,4,T1_SMS_5,73,5,42,127,396469496
80,4,4,T1_SMS_5,74,1,48,57,396472088
80,4,4,T1_SMS_5,75,1,48,53,396935984
80,4,4,T1_SMS_5,76,5,42,127,396970428
80,4,4,T1_SMS_5,77,5,42,127,397469980
80,4,4,T1_SMS_5,78,1,48,51,397470944
80,4,4,T1_SMS_5,79,1,48,46,397932908
80,4,4,T1_SMS_5,80,5,42,127,397969740
80,4,4,T1_SMS_5,81,5,42,127,398469444
80,4,4,T1_SMS_5,82,1,48,41,398472932
80,4,4,T1_SMS_5,83,5,42,127,398970332
80,4,4,T1_SMS_5,84,1,48,50,398989308
80,4,4,T1_SMS_5,85,5,42,127,399469804
80,4,4,T1_SMS_5,86,1,48,44,399499776
80,4,4,T1_SMS_5,87,5,42,127,399969572
80,4,4,T1_SMS_5,88,1,48,52,399975084
80,4,4,T1_SMS_5,89,5,42,127,400470388
80,4,4,T1_SMS_5,90,1,48,52,400483756
80,4,4,T1_SMS_5,91,1,48,57,400948652
80,4,4,T1_SMS_5,92,5,42,127,400970224
80,4,4,T1_SMS_5,93,5,42,127,401469704
80,4,4,T1_SMS_5,94,1,48,45,401487556
80,4,4,T1_SMS_5,95,1,48,57,401958808
80,4,4,T1_SMS_5,96,5,42,127,401969616
80,4,4,T1_SMS_5,97,1,48,46,402466132
80,4,4,T1_SMS_5,98,5,42,127,402470356
80,4,4,T1_SMS_5,99,1,48,49,402963808
80,4,4,T1_SMS_5,100,5,42,127,402970052
80,4,4,T1_SMS_5,101,1,48,52,403460960
80,4,4,T1_SMS_5,102,5,42,127,403469524
80,4,4,T1_SMS_5,103,1,48,49,403949960
80,4,4,T1_SMS_5,104,5,42,127,403970264
80,4,4,T1_SMS_5,105,1,48,55,404421008
80,4,4,T1_SMS_5,106,5,42,127,404470108
80,4,4,T1_SMS_5,107,5,42,127,404969736
80,4,4,T1_SMS_5,108,1,48,43,405252396
80,4,4,T1_SMS_5,109,5,42,127,405469580
80,4,4,T1_SMS_5,110,1,48,38,405778272
80,4,4,T1_SMS_5,111,5,42,127,405970248
80,4,4,T1_SMS_5,112,1,48,40,406236308
80,4,4,T1_SMS_5,113,5,42,127,406469940
80,4,4,T1_SMS_5,114,5,42,127,406969584
80,4,4,T1_SMS_5,115,1,48,45,407467228
80,4,4,T1_SMS_5,116,5,42,127,407469416
80,4,4,T1_SMS_5,117,1,48,53,407948280
80,4,4,T1_SMS_5,118,5,42,127,407970232
80,4,4,T1_SMS_5,119,1,48,57,408447604
80,4,4,T1_SMS_5,120,5,42,127,408470000
80,4,4,T1_SMS_5,121,1,48,54,408928972
80,4,4,T1_SMS_5,122,5,42,127,408969472
80,4,4,T1_SMS_5,123,1,48,50,409454844
80,4,4,T1_SMS_5,124,5,42,127,409470288
80,4,4,T1_SMS_5,125,1,48,55,409945116
80,4,4,T1_SMS_5,126,5,42,127,409970204
80,4,4,T1_SMS_5,127,1,48,53,410443236
80,4,4,T1_SMS_5,128,5,42,127,410469828
80,4,4,T1_SMS_5,129,1,48,51,410946600
80,4,4,T1_SMS_5,130,5,42,127,410969596
80,4,4,T1_SMS_5,131,1,48,48,411438516
80,4,4,T1_SMS_5,132,5,42,127,411470116
80,4,4,T1_SMS_5,133,5,42,127,411969892
80,4,4,T1_SMS_5,134,1,48,52,411976596
80,4,4,T1_SMS_5,135,1,48,53,412459672
80,4,4,T1_SMS_5,136,5,42,127,412469504
80,4,4,T1_SMS_5,137,1,48,49,412965868
80,4,4,T1_SMS_5,138,5,42,127,412970248
80,4,4,T1_SMS_5,139,1,48,52,413442604
80,4,4,T1_SMS_5,140,5,42,127,413470240
80,4,4,T1_SMS_5,141,5,42,127,413969720
80,4,4,T1_SMS_5,142,1,48,48,413993404
80,4,4,T1_SMS_5,143,5,42,127,414469416
80,4,4,T1_SMS_5,144,1,48,54,414484124
80,4,4,T1_SMS_5,145,5,42,127,414970156
80,4,4,T1_SMS_5,146,1,48,52,414978584
80,4,4,T1_SMS_5,147,5,42,127,415470148
80,4,4,T1_SMS_5,148,1,48,55,415490696
80,4,4,T1_SMS_5,149,5,42,127,415969696
80,4,4,T1_SMS_5,150,1,48,47,415987176
80,4,4,T1_SMS_5,151,5,42,127,416470364
80,4,4,T1_SMS_5,152,1,48,52,416479320
80,4,4,T1_SMS_5,153,1,48,49,416965752
80,4,4,T1_SMS_5,154,5,42,127,416970200
80,4,4,T1_SMS_5,155,5,42,127,417470048
80,4,4,T1_SMS_5,156,1,48,55,417474592
80,4,4,T1_SMS_5,157,1,48,47,417967304
80,4,4,T1_SMS_5,158,5,42,127,417969420
80,4,4,T1_SMS_5,159,5,42,127,418470292
80,4,4,T1_SMS_5,160,1,48,56,418477152
80,4,4,T1_SMS_5,161,1,48,49,418960068
80,4,4,T1_SMS_5,162,5,42,127,418970200
80,4,4,T1_SMS_5,163,5,42,127,419469752
80,4,4,T1_SMS_5,164,1,48,58,419474892
80,4,4,T1_SMS_5,165,5,42,127,419970344
80,4,4,T1_SMS_5,166,1,48,54,419972864
80,4,4,T1_SMS_5,167,5,42,127,420470188
80,4,4,T1_SMS_5,168,1,48,54,420481760
80,4,4,T1_SMS_5,169,1,48,59,420954360
80,4,4,T1_SMS_5,170,5,42,127,420970100
80,4,4,T1_SMS_5,171,5,42,127,421469580
80,4,4,T1_SMS_5,172,1,48,41,421494088
80,4,4,T1_SMS_5,173,5,42,127,421970244
80,4,4,T1_SMS_5,174,1,48,52,421981964
80,4,4,T1_SMS_5,175,1,48,50,422452096
80,4,4,T1_SMS_5,176,5,42,127,422470084
80,4,4,T1_SMS_5,177,1,48,49,422926132
80,4,4,T1_SMS_5,178,5,42,127,422969928
80,4,4,T1_SMS_5,179,1,48,53,423450588
80,4,4,T1_SMS_5,180,5,42,127,423469324
80,4,4,T1_SMS_5,181,1,48,54,423953576
80,4,4,T1_SMS_5,182,5,42,127,423970064
80,4,4,T1_SMS_5,183,5,42,127,424469992
80,4,4,T1_SMS_5,184,1,48,57,424474680
80,4,4,T1_SMS_5,185,1,48,58,424931648
80,4,4,T1_SMS_5,186,5,42,127,424969456
80,4,4,T1_SMS_5,187,1,48,37,424999484
80,4,4,T1_SMS_5,188,5,42,127,425470256
80,4,4,T1_SMS_5,189,1,48,57,425480260
80,4,4,T1_SMS_5,190,5,42,127,425969952
80,4,4,T1_SMS_5,191,1,48,55,425981672
80,4,4,T1_SMS_5,192,5,42,127,426470092
80,4,4,T1_SMS_5,193,1,48,54,426478752
80,4,4,T1_SMS_5,194,5,42,127,426969568
80,4,4,T1_SMS_5,195,1,48,51,426973212
80,4,4,T1_SMS_5,196,5,42,127,427470232
80,4,4,T1_SMS_5,197,1,48,52,427500580
80,4,4,T1_SMS_5,198,1,48,52,427960760
80,4,4,T1_SMS_5,199,5,42,127,427969996
80,4,4,T1_SMS_5,200,5,42,127,428469920
80,4,4,T1_SMS_5,201,1,48,50,428472744
80,4,4,T1_SMS_5,202,1,48,50,428930212
80,4,4,T1_SMS_5,203,5,42,127,428970484
80,4,4,T1_SMS_5,204,1,48,54,429459072
80,4,4,T1_SMS_5,205,5,42,127,429470104
80,4,4,T1_SMS_5,206,1,48,46,429937080
80,4,4,T1_SMS_5,207,5,42,127,429969796
80,4,4,T1_SMS_5,208,5,42,127,430469500
80,4,4,T1_SMS_5,209,1,48,48,430474712
80,4,4,T1_SMS_5,210,1,48,53,430934892
80,4,4,T1_SMS_5,211,5,42,127,430970160
80,4,4,T1_SMS_5,212,1,48,57,431463836
80,4,4,T1_SMS_5,213,5,42,127,431469780
80,4,4,T1_SMS_5,214,1,48,51,431952608
80,4,4,T1_SMS_5,215,5,42,127,431969772
80,4,4,T1_SMS_5,216,1,48,50,432461208
80,4,4,T1_SMS_5,217,5,42,127,432470516
80,4,4,T1_SMS_5,218,5,42,127,432969996
80,4,4,T1_SMS_5,219,1,48,48,432970960
80,4,4,T1_SMS_5,220,5,42,127,433469764
80,4,4,T1_SMS_5,221,1,48,51,433476776
80,4,4,T1_SMS_5,222,1,48,50,433961640
80,4,4,T1_SMS_5,223,5,42,127,433969604
80,4,4,T1_SMS_5,224,5,42,127,434470424
80,4,4,T1_SMS_5,225,1,48,53,434495160
80,4,4,T1_SMS_5,226,1,48,45,434958860
80,4,4,T1_SMS_5,227,5,42,127,434969816
80,4,4,T1_SMS_5,228,1,48,47,435436040
80,4,4,T1_SMS_5,229,5,42,127,435469808
80,4,4,T1_SMS_5,230,1,48,49,435930204
80,4,4,T1_SMS_5,231,5,42,127,435970476
80,4,4,T1_SMS_5,232,1,48,48,436437452
80,4,4,T1_SMS_5,233,5,42,127,436470096
80,4,4,T1_SMS_5,234,1,48,48,436955396
80,4,4,T1_SMS_5,235,5,42,127,436969868
80,4,4,T1_SMS_5,236,1,48,54,437430856
80,4,4,T1_SMS_5,237,5,42,127,437469636
80,4,4,T1_SMS_5,238,1,48,50,437970756
80,4,4,T1_SMS_5,239,5,42,127,437971872
80,4,4,T1_SMS_5,240,5,42,127,438469932
80,4,4,T1_SMS_5,241,1,48,45,438475588
80,4,4,T1_SMS_5,242,1,48,46,438969176
80,4,4,T1_SMS_5,243,5,42,127,438970740
80,4,4,T1_SMS_5,244,1,48,50,439464244
80,4,4,T1_SMS_5,245,5,42,127,439469588
80,4,4,T1_SMS_5,246,5,42,127,439970184
80,4,4,T1_SMS_5,247,1,48,43,439987692
80,4,4,T1_SMS_5,248,1,48,51,440461836
80,4,4,T1_SMS_5,249,5,42,127,440469876
80,4,4,T1_SMS_5,250,5,42,127,440969652
80,4,4,T1_SMS_5,251,1,48,45,440983840
80,4,4,T1_SMS_5,252,1,48,58,441458984
80,4,4,T1_SMS_5,253,5,42,127,441470308
80,4,4,T1_SMS_5,254,1,48,41,441956884
80,4,4,T1_SMS_5,255,5,42,127,441970008
80,4,4,T1_SMS_5,256,1,48,43,442458524
80,4,4,T1_SMS_5,0,9999,9999,9999,377467996
80,4,4,T1_SMS_5,1,9999,9999,9999,377967712
80,4,4,T1_SMS_5,2,9999,9999,9999,378467432
80,4,4,T1_SMS_5,3,9999,9999,9999,378967148
80,4,4,T1_SMS_5,4,9999,9999,9999,379467836
80,4,4,T1_SMS_5,5,9999,9999,9999,379967600
80,4,4,T1_SMS_5,6,9999,9999,9999,380467300
80,4,4,T1_SMS_5,7,9999,9999,9999,380968044
80,4,4,T1_SMS_5,8,9999,9999,9999,381467712
80,4,4,T1_SMS_5,9,9999,9999,9999,381967408
80,4,4,T1_SMS_5,10,9999,9999,9999,382467180
80,4,4,T1_SMS_5,11,9999,9999,9999,382967920
80,4,4,T1_SMS_5,12,9999,9999,9999,383467616
80,4,4,T1_SMS_5,13,9999,9999,9999,383967308
80,4,4,T1_SMS_5,14,9999,9999,9999,384468052
80,4,4,T1_SMS_5,15,9999,9999,9999,384967748
80,4,4,T1_SMS_5,16,9999,9999,9999,385467440
80,4,4,T1_SMS_5,17,9999,9999,9999,385967188
80,4,4,T1_SMS_5,18,9999,9999,9999,386467928
80,4,4,T1_SMS_5,19,9999,9999,9999,386967624
80,4,4,T1_SMS_5,20,9999,9999,9999,387467320
80,4,4,T1_SMS_5,21,9999,9999,9999,387968060
80,4,4,T1_SMS_5,22,9999,9999,9999,388467828
80,4,4,T1_SMS_5,23,9999,9999,9999,388967520
80,4,4,T1_SMS_5,24,9999,9999,9999,389467216
80,4,4,T1_SMS_5,25,9999,9999,9999,389967956
80,4,4,T1_SMS_5,26,9999,9999,9999,390467652
80,4,4,T1_SMS_5,27,9999,9999,9999,390967348
80,4,4,T1_SMS_5,28,9999,9999,9999,391467116
80,4,4,T1_SMS_5,29,9999,9999,9999,391967860
80,4,4,T1_SMS_5,30,9999,9999,9999,392467556
80,4,4,T1_SMS_5,31,9999,9999,9999,392967248
80,4,4,T1_SMS_5,32,9999,9999,9999,393467988
80,4,4,T1_SMS_5,33,9999,9999,9999,393967680
80,4,4,T1_SMS_5,34,9999,9999,9999,394467380
80,4,4,T1_SMS_5,35,9999,9999,9999,394967144
80,4,4,T1_SMS_5,36,9999,9999,9999,395467888
80,4,4,T1_SMS_5,37,9999,9999,9999,395967588
80,4,4,T1_SMS_5,38,9999,9999,9999,396467256
80,4,4,T1_SMS_5,39,9999,9999,9999,396967992
80,4,4,T1_SMS_5,40,9999,9999,9999,397467768
80,4,4,T1_SMS_5,41,9999,9999,9999,397967456
80,4,4,T1_SMS_5,42,9999,9999,9999,398467156
80,4,4,T1_SMS_5,43,9999,9999,9999,398967896
80,4,4,T1_SMS_5,44,9999,9999,9999,399467592
80,4,4,T1_SMS_5,45,9999,9999,9999,399967288
80,4,4,T1_SMS_5,46,9999,9999,9999,400468028
80,4,4,T1_SMS_5,47,9999,9999,9999,400967792
80,4,4,T1_SMS_5,48,9999,9999,9999,401467492
80,4,4,T1_SMS_5,49,9999,9999,9999,401967180
80,4,4,T1_SMS_5,50,9999,9999,9999,402467924
80,4,4,T1_SMS_5,51,9999,9999,9999,402967616
80,4,4,T1_SMS_5,52,9999,9999,9999,403467312
80,4,4,T1_SMS_5,53,9999,9999,9999,403968052
80,4,4,T1_SMS_5,54,9999,9999,9999,404467824
80,4,4,T1_SMS_5,55,9999,9999,9999,404967524
80,4,4,T1_SMS_5,56,9999,9999,9999,405467220
80,4,4,T1_SMS_5,57,9999,9999,9999,405967960
80,4,4,T1_SMS_5,58,9999,9999,9999,406467656
80,4,4,T1_SMS_5,59,9999,9999,9999,406967372
80,4,4,T1_SMS_5,60,9999,9999,9999,407467100
80,4,4,T1_SMS_5,61,9999,9999,9999,407967796
80,4,4,T1_SMS_5,62,9999,9999,9999,408467564
80,4,4,T1_SMS_5,63,9999,9999,9999,408967260
80,4,4,T1_SMS_5,64,9999,9999,9999,409468000
80,4,4,T1_SMS_5,65,9999,9999,9999,409967696
80,4,4,T1_SMS_5,66,9999,9999,9999,410467392
80,4,4,T1_SMS_5,67,9999,9999,9999,410967160
80,4,4,T1_SMS_5,68,9999,9999,9999,411467828
80,4,4,T1_SMS_5,69,9999,9999,9999,411967604
80,4,4,T1_SMS_5,70,9999,9999,9999,412467292
80,4,4,T1_SMS_5,71,9999,9999,9999,412968036
80,4,4,T1_SMS_5,72,9999,9999,9999,413467728
80,4,4,T1_SMS_5,73,9999,9999,9999,413967432
80,4,4,T1_SMS_5,74,9999,9999,9999,414467128
80,4,4,T1_SMS_5,75,9999,9999,9999,414967868
80,4,4,T1_SMS_5,76,9999,9999,9999,415467640
80,4,4,T1_SMS_5,77,9999,9999,9999,415967332
80,4,4,T1_SMS_5,78,9999,9999,9999,416468076
80,4,4,T1_SMS_5,79,9999,9999,9999,416967764
80,4,4,T1_SMS_5,80,9999,9999,9999,417467464
80,4,4,T1_SMS_5,81,9999,9999,9999,417967168
80,4,4,T1_SMS_5,82,9999,9999,9999,418467928
80,4,4,T1_SMS_5,83,9999,9999,9999,418967616
80,4,4,T1_SMS_5,84,9999,9999,9999,419467316
80,4,4,T1_SMS_5,85,9999,9999,9999,419968060
80,4,4,T1_SMS_5,86,9999,9999,9999,420467828
80,4,4,T1_SMS_5,87,9999,9999,9999,420967516
80,4,4,T1_SMS_5,88,9999,9999,9999,421467216
80,4,4,T1_SMS_5,89,9999,9999,9999,421967960
80,4,4,T1_SMS_5,90,9999,9999,9999,422467652
80,4,4,T1_SMS_5,91,9999,9999,9999,422967344
80,4,4,T1_SMS_5,92,9999,9999,9999,423467112
80,4,4,T1_SMS_5,93,9999,9999,9999,423967852
80,4,4,T1_SMS_5,94,9999,9999,9999,424467556
80,4,4,T1_SMS_5,95,9999,9999,9999,424967244
80,4,4,T1_SMS_5,96,9999,9999,9999,425467968
80,4,4,T1_SMS_5,97,9999,9999,9999,425967668
80,4,4,T1_SMS_5,98,9999,9999,9999,426467436
80,4,4,T1_SMS_5,99,9999,9999,9999,426967132
80,4,4,T1_SMS_5,100,9999,9999,9999,427467872
80,4,4,T1_SMS_5,101,9999,9999,9999,427967560
80,4,4,T1_SMS_5,102,9999,9999,9999,428467264
80,4,4,T1_SMS_5,103,9999,9999,9999,428968048
80,4,4,T1_SMS_5,104,9999,9999,9999,429467740
80,4,4,T1_SMS_5,105,9999,9999,9999,429967436
80,4,4,T1_SMS_5,106,9999,9999,9999,430467140
80,4,4,T1_SMS_5,107,9999,9999,9999,430967872
80,4,4,T1_SMS_5,108,9999,9999,9999,431467568
80,4,4,T1_SMS_5,109,9999,9999,9999,431967336
80,4,4,T1_SMS_5,110,9999,9999,9999,432468080
80,4,4,T1_SMS_5,111,9999,9999,9999,432967784
80,4,4,T1_SMS_5,112,9999,9999,9999,433467476
80,4,4,T1_SMS_5,113,9999,9999,9999,433967168
80,4,4,T1_SMS_5,114,9999,9999,9999,434467916
80,4,4,T1_SMS_5,115,9999,9999,9999,434967604
80,4,4,T1_SMS_5,116,9999,9999,9999,435467376
80,4,4,T1_SMS_5,117,9999,9999,9999,435968116
80,4,4,T1_SMS_5,118,9999,9999,9999,436467812
80,4,4,T1_SMS_5,119,9999,9999,9999,436967504
80,4,4,T1_SMS_5,120,9999,9999,9999,437467200
80,4,4,T1_SMS_5,121,9999,9999,9999,437967948
80,4,4,T1_SMS_5,122,9999,9999,9999,438467644
80,4,4,T1_SMS_5,123,9999,9999,9999,438967412
80,4,4,T1_SMS_5,124,9999,9999,9999,439467076
80,4,4,T1_SMS_5,125,9999,9999,9999,439967824
80,4,4,T1_SMS_5,126,9999,9999,9999,440467512
80,4,4,T1_SMS_5,127,9999,9999,9999,440967216
80,4,4,T1_SMS_5,128,9999,9999,9999,441468024
80,4,4,T1_SMS_5,129,9999,9999,9999,441967720
80,5,20,Ticks_Linear_8,0,5,42,127,453931316
80,5,20,Ticks_Linear_8,1,5,42,127,454750536
80,5,20,Ticks_Linear_8,2,5,42,127,455570872
80,5,20,Ticks_Linear_8,3,5,42,127,456391236
80,5,20,Ticks_Linear_8,4,1,48,53,457176256
80,5,20,Ticks_Linear_8,5,5,42,127,457211420
80,5,20,Ticks_Linear_8,6,1,48,51,457940116
80,5,20,Ticks_Linear_8,7,5,42,127,458021400
80,5,20,Ticks_Linear_8,8,1,48,43,458763792
80,5,20,Ticks_Linear_8,9,5,42,127,458831456
80,5,20,Ticks_Linear_8,10,1,48,50,459584784
80,5,20,Ticks_Linear_8,11,5,42,127,459641440
80,5,20,Ticks_Linear_8,12,1,48,54,460403232
80,5,20,Ticks_Linear_8,13,5,42,127,460451348
80,5,20,Ticks_Linear_8,14,5,42,127,461261364
80,5,20,Ticks_Linear_8,15,1,48,51,461262332
80,5,20,Ticks_Linear_8,16,5,42,127,462061088
80,5,20,Ticks_Linear_8,17,1,48,50,462080464
80,5,20,Ticks_Linear_8,18,5,42,127,462860812
80,5,20,Ticks_Linear_8,19,1,48,52,462864376
80,5,20,Ticks_Linear_8,20,1,48,58,463657636
80,5,20,Ticks_Linear_8,21,5,42,127,463661428
80,5,20,Ticks_Linear_8,22,1,48,57,464447776
80,5,20,Ticks_Linear_8,23,5,42,127,464471560
80,5,20,Ticks_Linear_8,24,1,48,49,465199508
80,5,20,Ticks_Linear_8,25,5,42,127,465271284
80,5,20,Ticks_Linear_8,26,1,48,40,466002000
80,5,20,Ticks_Linear_8,27,5,42,127,466060600
80,5,20,Ticks_Linear_8,28,1,48,52,466787036
80,5,20,Ticks_Linear_8,29,5,42,127,466851260
80,5,20,Ticks_Linear_8,30,1,48,54,467581156
80,5,20,Ticks_Linear_8,31,5,42,127,467640752
80,5,20,Ticks_Linear_8,32,1,48,48,468396152
80,5,20,Ticks_Linear_8,33,5,42,127,468431116
80,5,20,Ticks_Linear_8,34,1,48,57,469150196
80,5,20,Ticks_Linear_8,35,5,42,127,469221100
80,5,20,Ticks_Linear_8,36,1,48,55,469970168
80,5,20,Ticks_Linear_8,37,5,42,127,470000984
80,5,20,Ticks_Linear_8,38,1,48,59,470779960
80,5,20,Ticks_Linear_8,39,5,42,127,470781532
80,5,20,Ticks_Linear_8,40,1,48,57,471549396
80,5,20,Ticks_Linear_8,41,5,42,127,471560664
80,5,20,Ticks_Linear_8,42,1,48,53,472337576
80,5,20,Ticks_Linear_8,43,5,42,127,472341140
80,5,20,Ticks_Linear_8,44,1,48,55,473054776
80,5,20,Ticks_Linear_8,45,5,42,127,473121172
80,5,20,Ticks_Linear_8,46,5,42,127,473891096
80,5,20,Ticks_Linear_8,47,1,48,52,473892960
80,5,20,Ticks_Linear_8,48,5,42,127,474661240
80,5,20,Ticks_Linear_8,49,1,48,64,474686672
80,5,20,Ticks_Linear_8,50,1,48,57,475426308
80,5,20,Ticks_Linear_8,51,5,42,127,475431152
80,5,20,Ticks_Linear_8,52,1,48,55,476185296
80,5,20,Ticks_Linear_8,53,5,42,127,476201292
80,5,20,Ticks_Linear_8,54,5,42,127,476971368
80,5,20,Ticks_Linear_8,55,1,48,49,476974264
80,5,20,Ticks_Linear_8,56,1,48,56,477706564
80,5,20,Ticks_Linear_8,57,5,42,127,477731096
80,5,20,Ticks_Linear_8,58,1,48,65,478485464
80,5,20,Ticks_Linear_8,59,5,42,127,478490980
80,5,20,Ticks_Linear_8,60,1,48,64,479190464
80,5,20,Ticks_Linear_8,61,5,42,127,479250936
80,5,20,Ticks_Linear_8,62,1,48,53,479992508
80,5,20,Ticks_Linear_8,63,5,42,127,480010748
80,5,20,Ticks_Linear_8,64,5,42,127,480770340
80,5,20,Ticks_Linear_8,65,1,48,53,480799900
80,5,20,Ticks_Linear_8,66,1,48,51,481516388
80,5,20,Ticks_Linear_8,67,5,42,127,481521080
80,5,20,Ticks_Linear_8,68,1,48,54,482258520
80,5,20,Ticks_Linear_8,69,5,42,127,482270700
80,5,20,Ticks_Linear_8,70,5,42,127,483021156
80,5,20,Ticks_Linear_8,71,1,48,56,483022716
80,5,20,Ticks_Linear_8,72,1,48,54,483720908
80,5,20,Ticks_Linear_8,73,5,42,127,483770772
80,5,20,Ticks_Linear_8,74,5,42,127,484521280
80,5,20,Ticks_Linear_8,75,1,48,52,484522764
80,5,20,Ticks_Linear_8,76,5,42,127,485260792
80,5,20,Ticks_Linear_8,77,1,48,47,485306396
80,5,20,Ticks_Linear_8,78,5,42,127,486001056
80,5,20,Ticks_Linear_8,79,1,48,51,486028896
80,5,20,Ticks_Linear_8,80,5,42,127,486741244
80,5,20,Ticks_Linear_8,81,1,48,51,486782928
80,5,20,Ticks_Linear_8,82,5,42,127,487480684
80,5,20,Ticks_Linear_8,83,1,48,54,487486344
80,5,20,Ticks_Linear_8,84,5,42,127,488221100
80,5,20,Ticks_Linear_8,85,1,48,43,488275512
80,5,20,Ticks_Linear_8,86,5,42,127,488951028
80,5,20,Ticks_Linear_8,87,1,48,50,488957884
80,5,20,Ticks_Linear_8,88,1,48,48,489649684
80,5,20,Ticks_Linear_8,89,5,42,127,489681248
80,5,20,Ticks_Linear_8,90,1,48,47,490317716
80,5,20,Ticks_Linear_8,91,5,42,127,490411672
80,5,20,Ticks_Linear_8,92,1,48,48,491082228
80,5,20,Ticks_Linear_8,93,5,42,127,491140604
80,5,20,Ticks_Linear_8,94,5,42,127,491870768
80,5,20,Ticks_Linear_8,95,1,48,49,491875904
80,5,20,Ticks_Linear_8,96,5,42,127,492590584
80,5,20,Ticks_Linear_8,97,1,48,47,492618336
80,5,20,Ticks_Linear_8,98,5,42,127,493311524
80,5,20,Ticks_Linear_8,99,1,48,46,493342132
80,5,20,Ticks_Linear_8,100,5,42,127,494031196
80,5,20,Ticks_Linear_8,101,1,48,44,494075796
80,5,20,Ticks_Linear_8,102,5,42,127,494751064
80,5,20,Ticks_Linear_8,103,1,48,46,494755232
80,5,20,Ticks_Linear_8,104,5,42,127,495470960
80,5,20,Ticks_Linear_8,105,1,48,39,495527616
80,5,20,Ticks_Linear_8,106,5,42,127,496180668
80,5,20,Ticks_Linear_8,107,1,48,44,496212472
80,5,20,Ticks_Linear_8,108,5,42,127,496891276
80,5,20,Ticks_Linear_8,109,1,48,55,496948236
80,5,20,Ticks_Linear_8,110,1,48,46,497587452
80,5,20,Ticks_Linear_8,111,5,42,127,497600976
80,5,20,Ticks_Linear_8,112,5,42,127,498310444
80,5,20,Ticks_Linear_8,113,1,48,52,498352160
80,5,20,Ticks_Linear_8,114,5,42,127,499021128
80,5,20,Ticks_Linear_8,115,1,48,46,499075988
80,5,20,Ticks_Linear_8,116,5,42,127,499720504
80,5,20,Ticks_Linear_8,117,1,48,52,499777088
80,5,20,Ticks_Linear_8,118,5,42,127,500420852
80,5,20,Ticks_Linear_8,119,1,48,43,500505592
80,5,20,Ticks_Linear_8,120,5,42,127,501121548
80,5,20,Ticks_Linear_8,121,1,48,47,501182432
80,5,20,Ticks_Linear_8,122,5,42,127,501820700
80,5,20,Ticks_Linear_8,123,1,48,48,501858184
80,5,20,Ticks_Linear_8,124,5,42,127,502521200
80,5,20,Ticks_Linear_8,125,1,48,51,502533308
80,5,20,Ticks_Linear_8,126,5,42,127,503211412
80,5,20,Ticks_Linear_8,127,1,48,46,503229616
80,5,20,Ticks_Linear_8,128,1,48,46,503877256
80,5,20,Ticks_Linear_8,129,5,42,127,503900596
80,5,20,Ticks_Linear_8,130,5,42,127,504590616
80,5,20,Ticks_Linear_8,131,1,48,50,504621224
80,5,20,Ticks_Linear_8,132,1,48,53,505278884
80,5,20,Ticks_Linear_8,133,5,42,127,505280848
80,5,20,Ticks_Linear_8,134,5,42,127,505970920
80,5,20,Ticks_Linear_8,135,1,48,44,506004064
80,5,20,Ticks_Linear_8,136,5,42,127,506650972
80,5,20,Ticks_Linear_8,137,1,48,38,506688536
80,5,20,Ticks_Linear_8,138,5,42,127,507330800
80,5,20,Ticks_Linear_8,139,1,48,44,507364992
80,5,20,Ticks_Linear_8,140,5,42,127,508010828
80,5,20,Ticks_Linear_8,141,1,48,45,508029380
80,5,20,Ticks_Linear_8,142,5,42,127,508690732
80,5,20,Ticks_Linear_8,143,1,48,39,508711080
80,5,20,Ticks_Linear_8,144,5,42,127,509370712
80,5,20,Ticks_Linear_8,145,1,48,46,509420264
80,5,20,Ticks_Linear_8,146,1,48,43,510034440
80,5,20,Ticks_Linear_8,147,5,42,127,510040476
80,5,20,Ticks_Linear_8,148,5,42,127,510711320
80,5,20,Ticks_Linear_8,149,1,48,48,510735108
80,5,20,Ticks_Linear_8,150,5,42,127,511380792
80,5,20,Ticks_Linear_8,151,1,48,40,511398880
80,5,20,Ticks_Linear_8,152,1,48,39,512029348
80,5,20,Ticks_Linear_8,153,5,42,127,512050432
80,5,20,Ticks_Linear_8,154,1,48,49,512697488
80,5,20,Ticks_Linear_8,155,5,42,127,512721196
80,5,20,Ticks_Linear_8,156,5,42,127,513380716
80,5,20,Ticks_Linear_8,157,1,48,49,513409152
80,5,20,Ticks_Linear_8,158,1,48,45,514037424
80,5,20,Ticks_Linear_8,159,5,42,127,514041216
80,5,20,Ticks_Linear_8,160,1,48,49,514691176
80,5,20,Ticks_Linear_8,161,5,42,127,514700724
80,5,20,Ticks_Linear_8,162,5,42,127,515361312
80,5,20,Ticks_Linear_8,163,1,48,46,515362648
80,5,20,Ticks_Linear_8,164,5,42,127,516020548
80,5,20,Ticks_Linear_8,165,1,48,41,516022336
80,5,20,Ticks_Linear_8,166,5,42,127,516670696
80,5,20,Ticks_Linear_8,167,1,48,40,516707436
80,5,20,Ticks_Linear_8,168,5,42,127,517321464
80,5,20,Ticks_Linear_8,169,1,48,43,517363008
80,5,20,Ticks_Linear_8,170,5,42,127,517971320
80,5,20,Ticks_Linear_8,171,1,48,43,518039748
80,5,20,Ticks_Linear_8,172,5,42,127,518620444
80,5,20,Ticks_Linear_8,173,1,48,48,518643628
80,5,20,Ticks_Linear_8,174,5,42,127,519270816
80,5,20,Ticks_Linear_8,175,1,48,31,519328520
80,5,20,Ticks_Linear_8,176,5,42,127,519910804
80,5,20,Ticks_Linear_8,177,1,48,34,519933692
80,5,20,Ticks_Linear_8,178,5,42,127,520550844
80,5,20,Ticks_Linear_8,179,1,48,41,520557632
80,5,20,Ticks_Linear_8,180,5,42,127,521191132
80,5,20,Ticks_Linear_8,181,1,48,35,521217388
80,5,20,Ticks_Linear_8,182,5,42,127,521830720
80,5,20,Ticks_Linear_8,183,1,48,47,521859756
80,5,20,Ticks_Linear_8,184,5,42,127,522470712
80,5,20,Ticks_Linear_8,185,1,48,47,522489784
80,5,20,Ticks_Linear_8,186,5,42,127,523100416
80,5,20,Ticks_Linear_8,187,1,48,44,523117832
80,5,20,Ticks_Linear_8,188,5,42,127,523731340
80,5,20,Ticks_Linear_8,189,1,48,45,523744716
80,5,20,Ticks_Linear_8,190,5,42,127,524361048
80,5,20,Ticks_Linear_8,191,1,48,48,524383488
80,5,20,Ticks_Linear_8,192,5,42,127,524990924
80,5,20,Ticks_Linear_8,193,1,48,54,525016508
80,5,20,Ticks_Linear_8,194,5,42,127,525620628
80,5,20,Ticks_Linear_8,195,1,48,45,525654452
80,5,20,Ticks_Linear_8,196,5,42,127,526241120
80,5,20,Ticks_Linear_8,197,1,48,57,526291520
80,5,20,Ticks_Linear_8,198,5,42,127,526860592
80,5,20,Ticks_Linear_8,199,1,48,48,526915304
80,5,20,Ticks_Linear_8,200,5,42,127,527481308
80,5,20,Ticks_Linear_8,201,1,48,49,527541672
80,5,20,Ticks_Linear_8,202,5,42,127,528100704
80,5,20,Ticks_Linear_8,203,1,48,45,528115352
80,5,20,Ticks_Linear_8,204,1,48,51,528706536
80,5,20,Ticks_Linear_8,205,5,42,127,528721412
80,5,20,Ticks_Linear_8,206,1,48,39,529327136
80,5,20,Ticks_Linear_8,207,5,42,127,529330624
80,5,20,Ticks_Linear_8,208,5,42,127,529940864
80,5,20,Ticks_Linear_8,209,1,48,49,529949232
80,5,20,Ticks_Linear_8,210,5,42,127,530551100
80,5,20,Ticks_Linear_8,211,1,48,51,530571892
80,5,20,Ticks_Linear_8,212,1,48,59,531152844
80,5,20,Ticks_Linear_8,213,5,42,127,531160452
80,5,20,Ticks_Linear_8,214,1,48,41,531745700
80,5,20,Ticks_Linear_8,215,5,42,127,531770908
80,5,20,Ticks_Linear_8,216,1,48,48,532350772
80,5,20,Ticks_Linear_8,217,5,42,127,532370808
80,5,20,Ticks_Linear_8,218,1,48,49,532964996
80,5,20,Ticks_Linear_8,219,5,42,127,532971108
80,5,20,Ticks_Linear_8,220,5,42,127,533570940
80,5,20,Ticks_Linear_8,221,1,48,48,533612400
80,5,20,Ticks_Linear_8,222,5,42,127,534171060
80,5,20,Ticks_Linear_8,223,1,48,46,534179576
80,5,20,Ticks_Linear_8,224,5,42,127,534771064
80,5,20,Ticks_Linear_8,225,1,48,49,534780328
80,5,20,Ticks_Linear_8,226,5,42,127,535360852
80,5,20,Ticks_Linear_8,227,1,48,47,535383444
80,5,20,Ticks_Linear_8,228,5,42,127,535950716
80,5,20,Ticks_Linear_8,229,1,48,46,535994600
80,5,20,Ticks_Linear_8,230,1,48,45,536530452
80,5,20,Ticks_Linear_8,231,5,42,127,536540752
80,5,20,Ticks_Linear_8,232,1,48,48,537108176
80,5,20,Ticks_Linear_8,233,5,42,127,537131292
80,5,20,Ticks_Linear_8,234,5,42,127,537721088
80,5,20,Ticks_Linear_8,235,1,48,44,537733196
80,5,20,Ticks_Linear_8,236,5,42,127,538300940
80,5,20,Ticks_Linear_8,237,1,48,42,538337080
80,5,20,Ticks_Linear_8,238,5,42,127,538881296
80,5,20,Ticks_Linear_8,239,1,48,47,538892952
80,5,20,Ticks_Linear_8,240,1,48,47,539458600
80,5,20,Ticks_Linear_8,241,5,42,127,539461040
80,5,20,Ticks_Linear_8,242,1,48,42,540006680
80,5,20,Ticks_Linear_8,243,5,42,127,540040500
80,5,20,Ticks_Linear_8,244,5,42,127,540621256
80,5,20,Ticks_Linear_8,245,1,48,50,540623848
80,5,20,Ticks_Linear_8,246,5,42,127,541190528
80,5,20,Ticks_Linear_8,247,1,48,32,541197464
80,5,20,Ticks_Linear_8,248,1,48,47,541705604
80,5,20,Ticks_Linear_8,249,5,42,127,541760840
80,5,20,Ticks_Linear_8,250,5,42,127,542331312
80,5,20,Ticks_Linear_8,251,1,48,50,542338484
80,5,20,Ticks_Linear_8,252,5,42,127,542900684
80,5,20,Ticks_Linear_8,253,1,48,49,542929048
80,5,20,Ticks_Linear_8,254,5,42,127,543470928
80,5,20,Ticks_Linear_8,255,1,48,45,543508804
80,5,20,Ticks_Linear_8,256,5,42,127,544030988
80,5,20,Ticks_Linear_8,257,1,48,47,544037248
80,5,20,Ticks_Linear_8,258,5,42,127,544591120
80,5,20,Ticks_Linear_8,259,1,48,40,544635128
80,5,20,Ticks_Linear_8,260,1,48,52,545142220
80,5,20,Ticks_Linear_8,261,5,42,127,545151396
80,5,20,Ticks_Linear_8,262,1,48,42,545695836
80,5,20,Ticks_Linear_8,263,5,42,127,545710580
80,5,20,Ticks_Linear_8,264,1,48,44,546265204
80,5,20,Ticks_Linear_8,265,5,42,127,546270568
80,5,20,Ticks_Linear_8,266,1,48,43,546810968
80,5,20,Ticks_Linear_8,267,5,42,127,546820664
80,5,20,Ticks_Linear_8,268,1,48,56,547369552
80,5,20,Ticks_Linear_8,269,5,42,127,547371212
80,5,20,Ticks_Linear_8,270,1,48,40,547916996
80,5,20,Ticks_Linear_8,271,5,42,127,547921236
80,5,20,Ticks_Linear_8,272,5,42,127,548471020
80,5,20,Ticks_Linear_8,273,1,48,38,548489496
80,5,20,Ticks_Linear_8,274,1,48,46,548967448
80,5,20,Ticks_Linear_8,275,5,42,127,549020964
80,5,20,Ticks_Linear_8,276,1,48,43,549516192
80,5,20,Ticks_Linear_8,277,5,42,127,549560752
80,5,20,Ticks_Linear_8,278,5,42,127,550101344
80,5,20,Ticks_Linear_8,279,1,48,43,550153592
80,5,20,Ticks_Linear_8,280,5,42,127,550640960
80,5,20,Ticks_Linear_8,281,1,48,47,550685412
80,5,20,Ticks_Linear_8,282,5,42,127,551180724
80,5,20,Ticks_Linear_8,283,1,48,45,551297516
80,5,20,Ticks_Linear_8,284,5,42,127,551721384
80,5,20,Ticks_Linear_8,285,1,48,42,551842080
80,5,20,Ticks_Linear_8,286,5,42,127,552250740
80,5,20,Ticks_Linear_8,287,1,48,34,552404556
80,5,20,Ticks_Linear_8,288,5,42,127,552781144
80,5,20,Ticks_Linear_8,289,1,48,25,552923952
80,5,20,Ticks_Linear_8,290,5,42,127,553310648
80,5,20,Ticks_Linear_8,291,1,48,19,553438936
80,5,20,Ticks_Linear_8,292,5,42,127,553841052
80,5,20,Ticks_Linear_8,293,1,48,22,553968352
80,5,20,Ticks_Linear_8,294,5,42,127,554370632
80,5,20,Ticks_Linear_8,295,5,42,127,554890500
80,5,20,Ticks_Linear_8,296,5,42,127,555410668
80,5,20,Ticks_Linear_8,297,5,42,127,555931132
80,5,20,Ticks_Linear_8,298,1,48,38,556398444
80,5,20,Ticks_Linear_8,299,5,42,127,556451292
80,5,20,Ticks_Linear_8,300,1,48,40,556952896
80,5,20,Ticks_Linear_8,301,5,42,127,556971660
80,5,20,Ticks_Linear_8,302,1,48,40,557439544
80,5,20,Ticks_Linear_8,303,5,42,127,557481372
80,5,20,Ticks_Linear_8,304,1,48,41,557955412
80,5,20,Ticks_Linear_8,305,5,42,127,557991480
80,5,20,Ticks_Linear_8,306,1,48,41,558473244
80,5,20,Ticks_Linear_8,307,5,42,127,558501216
80,5,20,Ticks_Linear_8,308,1,48,34,558979612
80,5,20,Ticks_Linear_8,309,5,42,127,559011324
80,5,20,Ticks_Linear_8,310,1,48,37,559491960
80,5,20,Ticks_Linear_8,311,5,42,127,559521136
80,5,20,Ticks_Linear_8,312,1,48,37,559985744
80,5,20,Ticks_Linear_8,313,5,42,127,560020908
80,5,20,Ticks_Linear_8,314,5,42,127,560520544
80,5,20,Ticks_Linear_8,315,1,48,22,560546052
80,5,20,Ticks_Linear_8,316,1,48,31,561016144
80,5,20,Ticks_Linear_8,317,5,42,127,561021580
80,5,20,Ticks_Linear_8,318,1,48,41,561496152
80,5,20,Ticks_Linear_8,319,5,42,127,561520908
80,5,20,Ticks_Linear_8,320,5,42,127,562020692
80,5,20,Ticks_Linear_8,321,1,48,35,562033992
80,5,20,Ticks_Linear_8,322,5,42,127,562511328
80,5,20,Ticks_Linear_8,323,1,48,47,562526724
80,5,20,Ticks_Linear_8,324,5,42,127,563000616
80,5,20,Ticks_Linear_8,325,1,48,37,563058396
80,5,20,Ticks_Linear_8,326,5,42,127,563491328
80,5,20,Ticks_Linear_8,327,1,48,40,563529724
80,5,20,Ticks_Linear_8,328,5,42,127,563980620
80,5,20,Ticks_Linear_8,329,1,48,43,564041552
80,5,20,Ticks_Linear_8,330,5,42,127,564471408
80,5,20,Ticks_Linear_8,0,9999,9999,9999,453929016
80,5,20,Ticks_Linear_8,1,9999,9999,9999,454748236
80,5,20,Ticks_Linear_8,2,9999,9999,9999,455568500
80,5,20,Ticks_Linear_8,3,9999,9999,9999,456388712
80,5,20,Ticks_Linear_8,4,9999,9999,9999,457208896
80,5,20,Ticks_Linear_8,5,9999,9999,9999,458018880
80,5,20,Ticks_Linear_8,6,9999,9999,9999,458828860
80,5,20,Ticks_Linear_8,7,9999,9999,9999,459638844
80,5,20,Ticks_Linear_8,8,9999,9999,9999,460448828
80,5,20,Ticks_Linear_8,9,9999,9999,9999,461258844
80,5,20,Ticks_Linear_8,10,9999,9999,9999,462058568
80,5,20,Ticks_Linear_8,11,9999,9999,9999,462858364
80,5,20,Ticks_Linear_8,12,9999,9999,9999,463659132
80,5,20,Ticks_Linear_8,13,9999,9999,9999,464469112
80,5,20,Ticks_Linear_8,14,9999,9999,9999,465268836
80,5,20,Ticks_Linear_8,15,9999,9999,9999,466058304
80,5,20,Ticks_Linear_8,16,9999,9999,9999,466848888
80,5,20,Ticks_Linear_8,17,9999,9999,9999,467638380
80,5,20,Ticks_Linear_8,18,9999,9999,9999,468428892
80,5,20,Ticks_Linear_8,19,9999,9999,9999,469218432
80,5,20,Ticks_Linear_8,20,9999,9999,9999,469998684
80,5,20,Ticks_Linear_8,21,9999,9999,9999,470778944
80,5,20,Ticks_Linear_8,22,9999,9999,9999,471558216
80,5,20,Ticks_Linear_8,23,9999,9999,9999,472338544
80,5,20,Ticks_Linear_8,24,9999,9999,9999,473118796
80,5,20,Ticks_Linear_8,25,9999,9999,9999,473888872
80,5,20,Ticks_Linear_8,26,9999,9999,9999,474658940
80,5,20,Ticks_Linear_8,27,9999,9999,9999,475428928
80,5,20,Ticks_Linear_8,28,9999,9999,9999,476198992
80,5,20,Ticks_Linear_8,29,9999,9999,9999,476969068
80,5,20,Ticks_Linear_8,30,9999,9999,9999,477728872
80,5,20,Ticks_Linear_8,31,9999,9999,9999,478488680
80,5,20,Ticks_Linear_8,32,9999,9999,9999,479248488
80,5,20,Ticks_Linear_8,33,9999,9999,9999,480008300
80,5,20,Ticks_Linear_8,34,9999,9999,9999,480768116
80,5,20,Ticks_Linear_8,35,9999,9999,9999,481518704
80,5,20,Ticks_Linear_8,36,9999,9999,9999,482268256
80,5,20,Ticks_Linear_8,37,9999,9999,9999,483018856
80,5,20,Ticks_Linear_8,38,9999,9999,9999,483768400
80,5,20,Ticks_Linear_8,39,9999,9999,9999,484518980
80,5,20,Ticks_Linear_8,40,9999,9999,9999,485258344
80,5,20,Ticks_Linear_8,41,9999,9999,9999,485998684
80,5,20,Ticks_Linear_8,42,9999,9999,9999,486739020
80,5,20,Ticks_Linear_8,43,9999,9999,9999,487478388
80,5,20,Ticks_Linear_8,44,9999,9999,9999,488218724
80,5,20,Ticks_Linear_8,45,9999,9999,9999,488948804
80,5,20,Ticks_Linear_8,46,9999,9999,9999,489678952
80,5,20,Ticks_Linear_8,47,9999,9999,9999,490409076
80,5,20,Ticks_Linear_8,48,9999,9999,9999,491138156
80,5,20,Ticks_Linear_8,49,9999,9999,9999,491868244
80,5,20,Ticks_Linear_8,50,9999,9999,9999,492588140
80,5,20,Ticks_Linear_8,51,9999,9999,9999,493309004
80,5,20,Ticks_Linear_8,52,9999,9999,9999,494028900
80,5,20,Ticks_Linear_8,53,9999,9999,9999,494748768
80,5,20,Ticks_Linear_8,54,9999,9999,9999,495468660
80,5,20,Ticks_Linear_8,55,9999,9999,9999,496178296
80,5,20,Ticks_Linear_8,56,9999,9999,9999,496888900
80,5,20,Ticks_Linear_8,57,9999,9999,9999,497598528
80,5,20,Ticks_Linear_8,58,9999,9999,9999,498308220
80,5,20,Ticks_Linear_8,59,9999,9999,9999,499018828
80,5,20,Ticks_Linear_8,60,9999,9999,9999,499718204
80,5,20,Ticks_Linear_8,61,9999,9999,9999,500418628
80,5,20,Ticks_Linear_8,62,9999,9999,9999,501119100
80,5,20,Ticks_Linear_8,63,9999,9999,9999,501818476
80,5,20,Ticks_Linear_8,64,9999,9999,9999,502518900
80,5,20,Ticks_Linear_8,65,9999,9999,9999,503209036
80,5,20,Ticks_Linear_8,66,9999,9999,9999,503898220
80,5,20,Ticks_Linear_8,67,9999,9999,9999,504588392
80,5,20,Ticks_Linear_8,68,9999,9999,9999,505278588
80,5,20,Ticks_Linear_8,69,9999,9999,9999,505968696
80,5,20,Ticks_Linear_8,70,9999,9999,9999,506648672
80,5,20,Ticks_Linear_8,71,9999,9999,9999,507328576
80,5,20,Ticks_Linear_8,72,9999,9999,9999,508008532
80,5,20,Ticks_Linear_8,73,9999,9999,9999,508688508
80,5,20,Ticks_Linear_8,74,9999,9999,9999,509368412
80,5,20,Ticks_Linear_8,75,9999,9999,9999,510038104
80,5,20,Ticks_Linear_8,76,9999,9999,9999,510708800
80,5,20,Ticks_Linear_8,77,9999,9999,9999,511378492
80,5,20,Ticks_Linear_8,78,9999,9999,9999,512048208
80,5,20,Ticks_Linear_8,79,9999,9999,9999,512718972
80,5,20,Ticks_Linear_8,80,9999,9999,9999,513378416
80,5,20,Ticks_Linear_8,81,9999,9999,9999,514038840
80,5,20,Ticks_Linear_8,82,9999,9999,9999,514698352
80,5,20,Ticks_Linear_8,83,9999,9999,9999,515358788
80,5,20,Ticks_Linear_8,84,9999,9999,9999,516018248
80,5,20,Ticks_Linear_8,85,9999,9999,9999,516668472
80,5,20,Ticks_Linear_8,86,9999,9999,9999,517318720
80,5,20,Ticks_Linear_8,87,9999,9999,9999,517969020
80,5,20,Ticks_Linear_8,88,9999,9999,9999,518618220
80,5,20,Ticks_Linear_8,89,9999,9999,9999,519268444
80,5,20,Ticks_Linear_8,90,9999,9999,9999,519908432
80,5,20,Ticks_Linear_8,91,9999,9999,9999,520548472
80,5,20,Ticks_Linear_8,92,9999,9999,9999,521188460
80,5,20,Ticks_Linear_8,93,9999,9999,9999,521828424
80,5,20,Ticks_Linear_8,94,9999,9999,9999,522468412
80,5,20,Ticks_Linear_8,95,9999,9999,9999,523098192
80,5,20,Ticks_Linear_8,96,9999,9999,9999,523728968
80,5,20,Ticks_Linear_8,97,9999,9999,9999,524358744
80,5,20,Ticks_Linear_8,98,9999,9999,9999,524988476
80,5,20,Ticks_Linear_8,99,9999,9999,9999,525618256
80,5,20,Ticks_Linear_8,100,9999,9999,9999,526238824
80,5,20,Ticks_Linear_8,101,9999,9999,9999,526858292
80,5,20,Ticks_Linear_8,102,9999,9999,9999,527478860
80,5,20,Ticks_Linear_8,103,9999,9999,9999,528098408
80,5,20,Ticks_Linear_8,104,9999,9999,9999,528718964
80,5,20,Ticks_Linear_8,105,9999,9999,9999,529328252
80,5,20,Ticks_Linear_8,106,9999,9999,9999,529938492
80,5,20,Ticks_Linear_8,107,9999,9999,9999,530548800
80,5,20,Ticks_Linear_8,108,9999,9999,9999,531158080
80,5,20,Ticks_Linear_8,109,9999,9999,9999,531768388
80,5,20,Ticks_Linear_8,110,9999,9999,9999,532368512
80,5,20,Ticks_Linear_8,111,9999,9999,9999,532968512
80,5,20,Ticks_Linear_8,112,9999,9999,9999,533568564
80,5,20,Ticks_Linear_8,113,9999,9999,9999,534168688
80,5,20,Ticks_Linear_8,114,9999,9999,9999,534768764
80,5,20,Ticks_Linear_8,115,9999,9999,9999,535358556
80,5,20,Ticks_Linear_8,116,9999,9999,9999,535948344
80,5,20,Ticks_Linear_8,117,9999,9999,9999,536538228
80,5,20,Ticks_Linear_8,118,9999,9999,9999,537129068
80,5,20,Ticks_Linear_8,119,9999,9999,9999,537718864
80,5,20,Ticks_Linear_8,120,9999,9999,9999,538298492
80,5,20,Ticks_Linear_8,121,9999,9999,9999,538879072
80,5,20,Ticks_Linear_8,122,9999,9999,9999,539458668
80,5,20,Ticks_Linear_8,123,9999,9999,9999,540038200
80,5,20,Ticks_Linear_8,124,9999,9999,9999,540618808
80,5,20,Ticks_Linear_8,125,9999,9999,9999,541188156
80,5,20,Ticks_Linear_8,126,9999,9999,9999,541758540
80,5,20,Ticks_Linear_8,127,9999,9999,9999,542328940
80,5,20,Ticks_Linear_8,128,9999,9999,9999,542898236
80,5,20,Ticks_Linear_8,129,9999,9999,9999,543468632
80,5,20,Ticks_Linear_8,130,9999,9999,9999,544028764
80,5,20,Ticks_Linear_8,131,9999,9999,9999,544588896
80,5,20,Ticks_Linear_8,132,9999,9999,9999,545149024
80,5,20,Ticks_Linear_8,133,9999,9999,9999,545708136
80,5,20,Ticks_Linear_8,134,9999,9999,9999,546268268
80,5,20,Ticks_Linear_8,135,9999,9999,9999,546818144
80,5,20,Ticks_Linear_8,136,9999,9999,9999,547369012
80,5,20,Ticks_Linear_8,137,9999,9999,9999,547918936
80,5,20,Ticks_Linear_8,138,9999,9999,9999,548468792
80,5,20,Ticks_Linear_8,139,9999,9999,9999,549018736
80,5,20,Ticks_Linear_8,140,9999,9999,9999,549558380
80,5,20,Ticks_Linear_8,141,9999,9999,9999,550099048
80,5,20,Ticks_Linear_8,142,9999,9999,9999,550638660
80,5,20,Ticks_Linear_8,143,9999,9999,9999,551178352
80,5,20,Ticks_Linear_8,144,9999,9999,9999,551719012
80,5,20,Ticks_Linear_8,145,9999,9999,9999,552248444
80,5,20,Ticks_Linear_8,146,9999,9999,9999,552778844
80,5,20,Ticks_Linear_8,147,9999,9999,9999,553308276
80,5,20,Ticks_Linear_8,148,9999,9999,9999,553838680
80,5,20,Ticks_Linear_8,149,9999,9999,9999,554368108
80,5,20,Ticks_Linear_8,150,9999,9999,9999,554888276
80,5,20,Ticks_Linear_8,151,9999,9999,9999,555408444
80,5,20,Ticks_Linear_8,152,9999,9999,9999,555928680
80,5,20,Ticks_Linear_8,153,9999,9999,9999,556448840
80,5,20,Ticks_Linear_8,154,9999,9999,9999,556969064
80,5,20,Ticks_Linear_8,155,9999,9999,9999,557478996
80,5,20,Ticks_Linear_8,156,9999,9999,9999,557988956
80,5,20,Ticks_Linear_8,157,9999,9999,9999,558498920
80,5,20,Ticks_Linear_8,158,9999,9999,9999,559008876
80,5,20,Ticks_Linear_8,159,9999,9999,9999,559518836
80,5,20,Ticks_Linear_8,160,9999,9999,9999,560018536
80,5,20,Ticks_Linear_8,161,9999,9999,9999,560518244
80,5,20,Ticks_Linear_8,162,9999,9999,9999,561018984
80,5,20,Ticks_Linear_8,163,9999,9999,9999,561518684
80,5,20,Ticks_Linear_8,164,9999,9999,9999,562018392
80,5,20,Ticks_Linear_8,165,9999,9999,9999,562508880
80,5,20,Ticks_Linear_8,166,9999,9999,9999,562998392
80,5,20,Ticks_Linear_8,167,9999,9999,9999,563488880
80,5,20,Ticks_Linear_8,168,9999,9999,9999,563978320
80,5,20,Ticks_Linear_8,169,9999,9999,9999,564468808
80,6,21,Ticks_Linear_5,0,5,42,127,573509268
80,6,21,Ticks_Linear_5,1,5,42,127,573989224
80,6,21,Ticks_Linear_5,2,5,42,127,574468500
80,6,21,Ticks_Linear_5,3,5,42,127,574948672
80,6,21,Ticks_Linear_5,4,1,48,41,575420640
80,6,21,Ticks_Linear_5,5,5,42,127,575429068
80,6,21,Ticks_Linear_5,6,1,48,46,575872088
80,6,21,Ticks_Linear_5,7,5,42,127,575918432
80,6,21,Ticks_Linear_5,8,1,48,45,576369768
80,6,21,Ticks_Linear_5,9,5,42,127,576409044
80,6,21,Ticks_Linear_5,10,1,48,46,576860848
80,6,21,Ticks_Linear_5,11,5,42,127,576898412
80,6,21,Ticks_Linear_5,12,1,48,43,577330224
80,6,21,Ticks_Linear_5,13,5,42,127,577389124
80,6,21,Ticks_Linear_5,14,1,48,38,577842800
80,6,21,Ticks_Linear_5,15,5,42,127,577879316
80,6,21,Ticks_Linear_5,16,1,48,37,578318616
80,6,21,Ticks_Linear_5,17,5,42,127,578379308
80,6,21,Ticks_Linear_5,18,1,48,36,578827152
80,6,21,Ticks_Linear_5,19,5,42,127,578879084
80,6,21,Ticks_Linear_5,20,1,48,39,579334852
80,6,21,Ticks_Linear_5,21,5,42,127,579378636
80,6,21,Ticks_Linear_5,22,1,48,39,579834032
80,6,21,Ticks_Linear_5,23,5,42,127,579879380
80,6,21,Ticks_Linear_5,24,1,48,37,580349016
80,6,21,Ticks_Linear_5,25,5,42,127,580379156
80,6,21,Ticks_Linear_5,26,1,48,38,580853276
80,6,21,Ticks_Linear_5,27,5,42,127,580889116
80,6,21,Ticks_Linear_5,28,1,48,40,581354100
80,6,21,Ticks_Linear_5,29,5,42,127,581399076
80,6,21,Ticks_Linear_5,30,1,48,38,581896104
80,6,21,Ticks_Linear_5,31,5,42,127,581908964
80,6,21,Ticks_Linear_5,32,1,48,38,582381588
80,6,21,Ticks_Linear_5,33,5,42,127,582418848
80,6,21,Ticks_Linear_5,34,1,48,40,582922020
80,6,21,Ticks_Linear_5,35,5,42,127,582928880
80,6,21,Ticks_Linear_5,36,1,48,40,583427272
80,6,21,Ticks_Linear_5,37,5,42,127,583449100
80,6,21,Ticks_Linear_5,38,1,48,40,583943132
80,6,21,Ticks_Linear_5,39,5,42,127,583969020
80,6,21,Ticks_Linear_5,40,1,48,35,584452720
80,6,21,Ticks_Linear_5,41,5,42,127,584489236
80,6,21,Ticks_Linear_5,42,1,48,38,584966436
80,6,21,Ticks_Linear_5,43,5,42,127,585008556
80,6,21,Ticks_Linear_5,44,1,48,42,585484620
80,6,21,Ticks_Linear_5,45,5,42,127,585528996
80,6,21,Ticks_Linear_5,46,1,48,32,586042808
80,6,21,Ticks_Linear_5,47,5,42,127,586059028
80,6,21,Ticks_Linear_5,48,1,48,27,586552692
80,6,21,Ticks_Linear_5,49,5,42,127,586588536
80,6,21,Ticks_Linear_5,50,1,48,43,587040040
80,6,21,Ticks_Linear_5,51,5,42,127,587118860
80,6,21,Ticks_Linear_5,52,1,48,33,587634240
80,6,21,Ticks_Linear_5,53,5,42,127,587649340
80,6,21,Ticks_Linear_5,54,1,48,35,588143976
80,6,21,Ticks_Linear_5,55,5,42,127,588178844
80,6,21,Ticks_Linear_5,56,1,48,32,588704408
80,6,21,Ticks_Linear_5,57,5,42,127,588718484
80,6,21,Ticks_Linear_5,58,1,48,38,589219540
80,6,21,Ticks_Linear_5,59,5,42,127,589259072
80,6,21,Ticks_Linear_5,60,1,48,35,589771456
80,6,21,Ticks_Linear_5,61,5,42,127,589798836
80,6,21,Ticks_Linear_5,62,1,48,35,590290700
80,6,21,Ticks_Linear_5,63,5,42,127,590338376
80,6,21,Ticks_Linear_5,64,1,48,33,590844688
80,6,21,Ticks_Linear_5,65,5,42,127,590878964
80,6,21,Ticks_Linear_5,66,1,48,37,591395916
80,6,21,Ticks_Linear_5,67,5,42,127,591429136
80,6,21,Ticks_Linear_5,68,1,48,40,591913960
80,6,21,Ticks_Linear_5,69,5,42,127,591978936
80,6,21,Ticks_Linear_5,70,1,48,33,592490652
80,6,21,Ticks_Linear_5,71,5,42,127,592528960
80,6,21,Ticks_Linear_5,72,1,48,41,593062764
80,6,21,Ticks_Linear_5,73,5,42,127,593078784
80,6,21,Ticks_Linear_5,74,1,48,40,593608324
80,6,21,Ticks_Linear_5,75,5,42,127,593628732
80,6,21,Ticks_Linear_5,76,1,48,42,594160968
80,6,21,Ticks_Linear_5,77,5,42,127,594188792
80,6,21,Ticks_Linear_5,78,1,48,38,594728668
80,6,21,Ticks_Linear_5,79,5,42,127,594748852
80,6,21,Ticks_Linear_5,80,1,48,36,595276808
80,6,21,Ticks_Linear_5,81,5,42,127,595308908
80,6,21,Ticks_Linear_5,82,1,48,35,595856504
80,6,21,Ticks_Linear_5,83,5,42,127,595868968
80,6,21,Ticks_Linear_5,84,1,48,43,596419200
80,6,21,Ticks_Linear_5,85,5,42,127,596429276
80,6,21,Ticks_Linear_5,86,5,42,127,596998480
80,6,21,Ticks_Linear_5,87,1,48,43,597003016
80,6,21,Ticks_Linear_5,88,1,48,42,597554736
80,6,21,Ticks_Linear_5,89,5,42,127,597568788
80,6,21,Ticks_Linear_5,90,1,48,43,598114796
80,6,21,Ticks_Linear_5,91,5,42,127,598139404
80,6,21,Ticks_Linear_5,92,1,48,38,598705056
80,6,21,Ticks_Linear_5,93,5,42,127,598708776
80,6,21,Ticks_Linear_5,94,1,48,39,599253436
80,6,21,Ticks_Linear_5,95,5,42,127,599278944
80,6,21,Ticks_Linear_5,96,1,48,41,599789012
80,6,21,Ticks_Linear_5,97,5,42,127,599858844
80,6,21,Ticks_Linear_5,98,1,48,42,600404852
80,6,21,Ticks_Linear_5,99,5,42,127,600439200
80,6,21,Ticks_Linear_5,100,1,48,40,600993224
80,6,21,Ticks_Linear_5,101,5,42,127,601018680
80,6,21,Ticks_Linear_5,102,1,48,37,601547924
80,6,21,Ticks_Linear_5,103,5,42,127,601599480
80,6,21,Ticks_Linear_5,104,1,48,33,602151336
80,6,21,Ticks_Linear_5,105,5,42,127,602178936
80,6,21,Ticks_Linear_5,106,1,48,39,602695812
80,6,21,Ticks_Linear_5,107,5,42,127,602768652
80,6,21,Ticks_Linear_5,108,1,48,34,603344912
80,6,21,Ticks_Linear_5,109,5,42,127,603358736
80,6,21,Ticks_Linear_5,110,5,42,127,603949652
80,6,21,Ticks_Linear_5,111,1,48,24,603956132
80,6,21,Ticks_Linear_5,112,1,48,35,604528844
80,6,21,Ticks_Linear_5,113,5,42,127,604548724
80,6,21,Ticks_Linear_5,114,5,42,127,605139516
80,6,21,Ticks_Linear_5,115,1,48,27,605152144
80,6,21,Ticks_Linear_5,116,1,48,42,605732180
80,6,21,Ticks_Linear_5,117,5,42,127,605739560
80,6,21,Ticks_Linear_5,118,1,48,24,606329536
80,6,21,Ticks_Linear_5,119,5,42,127,606338564
80,6,21,Ticks_Linear_5,120,1,48,34,606864652
80,6,21,Ticks_Linear_5,121,5,42,127,606938784
80,6,21,Ticks_Linear_5,122,1,48,34,607526876
80,6,21,Ticks_Linear_5,123,5,42,127,607538684
80,6,21,Ticks_Linear_5,124,1,48,49,608114424
80,6,21,Ticks_Linear_5,125,5,42,127,608138588
80,6,21,Ticks_Linear_5,126,1,48,27,608709640
80,6,21,Ticks_Linear_5,127,5,42,127,608748916
80,6,21,Ticks_Linear_5,128,1,48,29,609340688
80,6,21,Ticks_Linear_5,129,5,42,127,609359372
80,6,21,Ticks_Linear_5,130,1,48,41,609892656
80,6,21,Ticks_Linear_5,131,5,42,127,609968512
80,6,21,Ticks_Linear_5,132,1,48,57,610539616
80,6,21,Ticks_Linear_5,133,5,42,127,610578668
80,6,21,Ticks_Linear_5,134,1,48,26,611148948
80,6,21,Ticks_Linear_5,135,5,42,127,611188976
80,6,21,Ticks_Linear_5,136,1,48,34,611764292
80,6,21,Ticks_Linear_5,137,5,42,127,611808668
80,6,21,Ticks_Linear_5,138,1,48,40,612353036
80,6,21,Ticks_Linear_5,139,5,42,127,612429160
80,6,21,Ticks_Linear_5,140,1,48,43,612997648
80,6,21,Ticks_Linear_5,141,5,42,127,613048556
80,6,21,Ticks_Linear_5,142,1,48,38,613621600
80,6,21,Ticks_Linear_5,143,5,42,127,613669348
80,6,21,Ticks_Linear_5,144,1,48,43,614264036
80,6,21,Ticks_Linear_5,145,5,42,127,614288720
80,6,21,Ticks_Linear_5,146,1,48,36,614834452
80,6,21,Ticks_Linear_5,147,5,42,127,614918448
80,6,21,Ticks_Linear_5,148,1,48,49,615496504
80,6,21,Ticks_Linear_5,149,5,42,127,615549428
80,6,21,Ticks_Linear_5,150,1,48,36,616105268
80,6,21,Ticks_Linear_5,151,5,42,127,616179228
80,6,21,Ticks_Linear_5,152,1,48,45,616680160
80,6,21,Ticks_Linear_5,153,5,42,127,616808768
80,6,21,Ticks_Linear_5,154,1,48,37,617393312
80,6,21,Ticks_Linear_5,155,5,42,127,617438512
80,6,21,Ticks_Linear_5,156,5,42,127,618078560
80,6,21,Ticks_Linear_5,157,1,48,46,618086556
80,6,21,Ticks_Linear_5,158,5,42,127,618718472
80,6,21,Ticks_Linear_5,159,1,48,43,618747960
80,6,21,Ticks_Linear_5,160,1,48,37,619313452
80,6,21,Ticks_Linear_5,161,5,42,127,619358504
80,6,21,Ticks_Linear_5,162,5,42,127,619998572
80,6,21,Ticks_Linear_5,163,1,48,32,619999540
80,6,21,Ticks_Linear_5,164,5,42,127,620638464
80,6,21,Ticks_Linear_5,165,1,48,49,620665388
80,6,21,Ticks_Linear_5,166,1,48,34,621244024
80,6,21,Ticks_Linear_5,167,5,42,127,621288928
80,6,21,Ticks_Linear_5,168,1,48,41,621901364
80,6,21,Ticks_Linear_5,169,5,42,127,621938928
80,6,21,Ticks_Linear_5,170,1,48,37,622539260
80,6,21,Ticks_Linear_5,171,5,42,127,622589472
80,6,21,Ticks_Linear_5,172,1,48,43,623206096
80,6,21,Ticks_Linear_5,173,5,42,127,623238500
80,6,21,Ticks_Linear_5,174,1,48,37,623851260
80,6,21,Ticks_Linear_5,175,5,42,127,623888748
80,6,21,Ticks_Linear_5,176,1,48,41,624451832
80,6,21,Ticks_Linear_5,177,5,42,127,624549452
80,6,21,Ticks_Linear_5,178,1,48,39,625140800
80,6,21,Ticks_Linear_5,179,5,42,127,625208764
80,6,21,Ticks_Linear_5,180,1,48,43,625849684
80,6,21,Ticks_Linear_5,181,5,42,127,625869268
80,6,21,Ticks_Linear_5,182,1,48,33,626513160
80,6,21,Ticks_Linear_5,183,5,42,127,626528704
80,6,21,Ticks_Linear_5,184,1,48,30,627148960
80,6,21,Ticks_Linear_5,185,5,42,127,627189136
80,6,21,Ticks_Linear_5,186,1,48,42,627784640
80,6,21,Ticks_Linear_5,187,5,42,127,627858904
80,6,21,Ticks_Linear_5,188,1,48,43,628464772
80,6,21,Ticks_Linear_5,189,5,42,127,628528400
80,6,21,Ticks_Linear_5,190,1,48,35,629131700
80,6,21,Ticks_Linear_5,191,5,42,127,629199092
80,6,21,Ticks_Linear_5,192,1,48,35,629812424
80,6,21,Ticks_Linear_5,193,5,42,127,629869080
80,6,21,Ticks_Linear_5,194,5,42,127,630538736
80,6,21,Ticks_Linear_5,195,1,48,30,630540148
80,6,21,Ticks_Linear_5,196,5,42,127,631218488
80,6,21,Ticks_Linear_5,197,1,48,36,631241524
80,6,21,Ticks_Linear_5,198,5,42,127,631898516
80,6,21,Ticks_Linear_5,199,1,48,38,631900528
80,6,21,Ticks_Linear_5,200,1,48,41,632524224
80,6,21,Ticks_Linear_5,201,5,42,127,632578488
80,6,21,Ticks_Linear_5,202,1,48,39,633211744
80,6,21,Ticks_Linear_5,203,5,42,127,633259364
80,6,21,Ticks_Linear_5,204,1,48,43,633912088
80,6,21,Ticks_Linear_5,205,5,42,127,633939320
80,6,21,Ticks_Linear_5,206,1,48,39,634596796
80,6,21,Ticks_Linear_5,207,5,42,127,634628360
80,6,21,Ticks_Linear_5,208,1,48,35,635284976
80,6,21,Ticks_Linear_5,209,5,42,127,635318748
80,6,21,Ticks_Linear_5,210,1,48,39,635989820
80,6,21,Ticks_Linear_5,211,5,42,127,636008960
80,6,21,Ticks_Linear_5,212,1,48,43,636665976
80,6,21,Ticks_Linear_5,213,5,42,127,636699048
80,6,21,Ticks_Linear_5,214,5,42,127,637389140
80,6,21,Ticks_Linear_5,215,1,48,44,637390180
80,6,21,Ticks_Linear_5,216,1,48,39,638064324
80,6,21,Ticks_Linear_5,217,5,42,127,638088484
80,6,21,Ticks_Linear_5,218,1,48,39,638740788
80,6,21,Ticks_Linear_5,219,5,42,127,638788908
80,6,21,Ticks_Linear_5,220,1,48,44,639451468
80,6,21,Ticks_Linear_5,221,5,42,127,639489328
80,6,21,Ticks_Linear_5,222,1,48,40,640147680
80,6,21,Ticks_Linear_5,223,5,42,127,640189076
80,6,21,Ticks_Linear_5,224,1,48,41,640811028
80,6,21,Ticks_Linear_5,225,5,42,127,640889176
80,6,21,Ticks_Linear_5,226,1,48,38,641531888
80,6,21,Ticks_Linear_5,227,5,42,127,641599032
80,6,21,Ticks_Linear_5,228,1,48,35,642229096
80,6,21,Ticks_Linear_5,229,5,42,127,642308592
80,6,21,Ticks_Linear_5,230,1,48,34,643013388
80,6,21,Ticks_Linear_5,231,5,42,127,643019128
80,6,21,Ticks_Linear_5,232,5,42,127,643728892
80,6,21,Ticks_Linear_5,233,1,48,30,643754200
80,6,21,Ticks_Linear_5,234,5,42,127,644439348
80,6,21,Ticks_Linear_5,235,1,48,38,644502904
80,6,21,Ticks_Linear_5,236,5,42,127,645159168
80,6,21,Ticks_Linear_5,237,1,48,35,645161108
80,6,21,Ticks_Linear_5,238,5,42,127,645879136
80,6,21,Ticks_Linear_5,239,1,48,32,645882552
80,6,21,Ticks_Linear_5,240,1,48,21,646578020
80,6,21,Ticks_Linear_5,241,5,42,127,646599028
80,6,21,Ticks_Linear_5,242,1,48,36,647288080
80,6,21,Ticks_Linear_5,243,5,42,127,647319044
80,6,21,Ticks_Linear_5,244,1,48,33,647980708
80,6,21,Ticks_Linear_5,245,5,42,127,648038788
80,6,21,Ticks_Linear_5,246,1,48,35,648698432
80,6,21,Ticks_Linear_5,247,5,42,127,648768864
80,6,21,Ticks_Linear_5,248,1,48,31,649392560
80,6,21,Ticks_Linear_5,249,5,42,127,649499004
80,6,21,Ticks_Linear_5,250,1,48,30,650169144
80,6,21,Ticks_Linear_5,251,5,42,127,650229096
80,6,21,Ticks_Linear_5,252,1,48,29,650950220
80,6,21,Ticks_Linear_5,253,5,42,127,650959172
80,6,21,Ticks_Linear_5,254,5,42,127,651689408
80,6,21,Ticks_Linear_5,255,1,48,31,651701516
80,6,21,Ticks_Linear_5,256,5,42,127,652428748
80,6,21,Ticks_Linear_5,257,1,48,23,652431940
80,6,21,Ticks_Linear_5,258,1,48,28,653161100
80,6,21,Ticks_Linear_5,259,5,42,127,653169004
80,6,21,Ticks_Linear_5,260,1,48,25,653900316
80,6,21,Ticks_Linear_5,261,5,42,127,653909488
80,6,21,Ticks_Linear_5,262,1,48,34,654588828
80,6,21,Ticks_Linear_5,263,5,42,127,654648780
80,6,21,Ticks_Linear_5,264,1,48,39,655317028
80,6,21,Ticks_Linear_5,265,5,42,127,655389044
80,6,21,Ticks_Linear_5,266,1,48,30,656078872
80,6,21,Ticks_Linear_5,267,5,42,127,656138592
80,6,21,Ticks_Linear_5,268,1,48,35,656831856
80,6,21,Ticks_Linear_5,269,5,42,127,656889112
80,6,21,Ticks_Linear_5,270,1,48,40,657555012
80,6,21,Ticks_Linear_5,271,5,42,127,657638736
80,6,21,Ticks_Linear_5,272,1,48,37,658365844
80,6,21,Ticks_Linear_5,273,5,42,127,658389408
80,6,21,Ticks_Linear_5,274,5,42,127,659138816
80,6,21,Ticks_Linear_5,275,1,48,27,659163120
80,6,21,Ticks_Linear_5,276,5,42,127,659898700
80,6,21,Ticks_Linear_5,277,1,48,32,659927956
80,6,21,Ticks_Linear_5,278,5,42,127,660658656
80,6,21,Ticks_Linear_5,279,1,48,30,660663644
80,6,21,Ticks_Linear_5,280,1,48,28,661386348
80,6,21,Ticks_Linear_5,281,5,42,127,661419504
80,6,21,Ticks_Linear_5,282,1,48,36,662118744
80,6,21,Ticks_Linear_5,283,5,42,127,662179064
80,6,21,Ticks_Linear_5,284,1,48,31,662898848
80,6,21,Ticks_Linear_5,285,5,42,127,662938948
80,6,21,Ticks_Linear_5,286,1,48,29,663698572
80,6,21,Ticks_Linear_5,287,5,42,127,663708944
80,6,21,Ticks_Linear_5,288,1,48,30,664436720
80,6,21,Ticks_Linear_5,289,5,42,127,664479088
80,6,21,Ticks_Linear_5,290,5,42,127,665249088
80,6,21,Ticks_Linear_5,291,1,48,28,665272524
80,6,21,Ticks_Linear_5,292,1,48,30,666008100
80,6,21,Ticks_Linear_5,293,5,42,127,666019148
80,6,21,Ticks_Linear_5,294,5,42,127,666789224
80,6,21,Ticks_Linear_5,295,1,48,32,666814004
80,6,21,Ticks_Linear_5,296,1,48,33,667541192
80,6,21,Ticks_Linear_5,297,5,42,127,667568448
80,6,21,Ticks_Linear_5,298,1,48,37,668345052
80,6,21,Ticks_Linear_5,299,5,42,127,668348772
80,6,21,Ticks_Linear_5,300,1,48,36,669082152
80,6,21,Ticks_Linear_5,301,5,42,127,669129100
80,6,21,Ticks_Linear_5,302,1,48,28,669854384
80,6,21,Ticks_Linear_5,303,5,42,127,669909424
80,6,21,Ticks_Linear_5,304,1,48,31,670643280
80,6,21,Ticks_Linear_5,305,5,42,127,670688704
80,6,21,Ticks_Linear_5,306,1,48,32,671429600
80,6,21,Ticks_Linear_5,307,5,42,127,671479292
80,6,21,Ticks_Linear_5,308,1,48,29,672220860
80,6,21,Ticks_Linear_5,309,5,42,127,672268608
80,6,21,Ticks_Linear_5,310,1,48,35,673021852
80,6,21,Ticks_Linear_5,311,5,42,127,673059344
80,6,21,Ticks_Linear_5,312,5,42,127,673848664
80,6,21,Ticks_Linear_5,313,1,48,32,673856808
80,6,21,Ticks_Linear_5,314,1,48,29,674591124
80,6,21,Ticks_Linear_5,315,5,42,127,674639392
80,6,21,Ticks_Linear_5,316,1,48,29,675402080
80,6,21,Ticks_Linear_5,317,5,42,127,675439116
80,6,21,Ticks_Linear_5,318,1,48,29,676215724
80,6,21,Ticks_Linear_5,319,5,42,127,676238688
80,6,21,Ticks_Linear_5,320,1,48,31,677035544
80,6,21,Ticks_Linear_5,321,5,42,127,677038588
80,6,21,Ticks_Linear_5,322,5,42,127,677839436
80,6,21,Ticks_Linear_5,323,1,48,36,677871164
80,6,21,Ticks_Linear_5,324,1,48,32,678638260
80,6,21,Ticks_Linear_5,325,5,42,127,678639832
80,6,21,Ticks_Linear_5,326,5,42,127,679448920
80,6,21,Ticks_Linear_5,327,1,48,33,679486484
80,6,21,Ticks_Linear_5,328,5,42,127,680259052
80,6,21,Ticks_Linear_5,329,1,48,29,680303356
80,6,21,Ticks_Linear_5,330,5,42,127,681068884
80,6,21,Ticks_Linear_5,331,1,48,33,681074996
80,6,21,Ticks_Linear_5,332,1,48,37,681849316
80,6,21,Ticks_Linear_5,333,5,42,127,681878860
80,6,21,Ticks_Linear_5,334,1,48,38,682673176
80,6,21,Ticks_Linear_5,335,5,42,127,682689092
80,6,21,Ticks_Linear_5,0,9999,9999,9999,573506672
80,6,21,Ticks_Linear_5,1,9999,9999,9999,573986924
80,6,21,Ticks_Linear_5,2,9999,9999,9999,574466128
80,6,21,Ticks_Linear_5,3,9999,9999,9999,574946376
80,6,21,Ticks_Linear_5,4,9999,9999,9999,575426620
80,6,21,Ticks_Linear_5,5,9999,9999,9999,575916136
80,6,21,Ticks_Linear_5,6,9999,9999,9999,576406600
80,6,21,Ticks_Linear_5,7,9999,9999,9999,576896116
80,6,21,Ticks_Linear_5,8,9999,9999,9999,577386600
80,6,21,Ticks_Linear_5,9,9999,9999,9999,577877088
80,6,21,Ticks_Linear_5,10,9999,9999,9999,578376788
80,6,21,Ticks_Linear_5,11,9999,9999,9999,578876488
80,6,21,Ticks_Linear_5,12,9999,9999,9999,579376188
80,6,21,Ticks_Linear_5,13,9999,9999,9999,579876936
80,6,21,Ticks_Linear_5,14,9999,9999,9999,580376636
80,6,21,Ticks_Linear_5,15,9999,9999,9999,580886596
80,6,21,Ticks_Linear_5,16,9999,9999,9999,581396556
80,6,21,Ticks_Linear_5,17,9999,9999,9999,581906516
80,6,21,Ticks_Linear_5,18,9999,9999,9999,582416476
80,6,21,Ticks_Linear_5,19,9999,9999,9999,582926432
80,6,21,Ticks_Linear_5,20,9999,9999,9999,583446652
80,6,21,Ticks_Linear_5,21,9999,9999,9999,583966796
80,6,21,Ticks_Linear_5,22,9999,9999,9999,584487012
80,6,21,Ticks_Linear_5,23,9999,9999,9999,585006184
80,6,21,Ticks_Linear_5,24,9999,9999,9999,585526400
80,6,21,Ticks_Linear_5,25,9999,9999,9999,586056804
80,6,21,Ticks_Linear_5,26,9999,9999,9999,586586236
80,6,21,Ticks_Linear_5,27,9999,9999,9999,587116640
80,6,21,Ticks_Linear_5,28,9999,9999,9999,587647040
80,6,21,Ticks_Linear_5,29,9999,9999,9999,588176472
80,6,21,Ticks_Linear_5,30,9999,9999,9999,588716112
80,6,21,Ticks_Linear_5,31,9999,9999,9999,589256772
80,6,21,Ticks_Linear_5,32,9999,9999,9999,589796464
80,6,21,Ticks_Linear_5,33,9999,9999,9999,590336076
80,6,21,Ticks_Linear_5,34,9999,9999,9999,590876740
80,6,21,Ticks_Linear_5,35,9999,9999,9999,591426688
80,6,21,Ticks_Linear_5,36,9999,9999,9999,591976564
80,6,21,Ticks_Linear_5,37,9999,9999,9999,592526436
80,6,21,Ticks_Linear_5,38,9999,9999,9999,593076336
80,6,21,Ticks_Linear_5,39,9999,9999,9999,593626212
80,6,21,Ticks_Linear_5,40,9999,9999,9999,594186344
80,6,21,Ticks_Linear_5,41,9999,9999,9999,594746480
80,6,21,Ticks_Linear_5,42,9999,9999,9999,595306612
80,6,21,Ticks_Linear_5,43,9999,9999,9999,595866744
80,6,21,Ticks_Linear_5,44,9999,9999,9999,596426828
80,6,21,Ticks_Linear_5,45,9999,9999,9999,596996180
80,6,21,Ticks_Linear_5,46,9999,9999,9999,597566564
80,6,21,Ticks_Linear_5,47,9999,9999,9999,598136956
80,6,21,Ticks_Linear_5,48,9999,9999,9999,598706252
80,6,21,Ticks_Linear_5,49,9999,9999,9999,599276644
80,6,21,Ticks_Linear_5,50,9999,9999,9999,599856248
80,6,21,Ticks_Linear_5,51,9999,9999,9999,600436824
80,6,21,Ticks_Linear_5,52,9999,9999,9999,601016380
80,6,21,Ticks_Linear_5,53,9999,9999,9999,601597032
80,6,21,Ticks_Linear_5,54,9999,9999,9999,602176636
80,6,21,Ticks_Linear_5,55,9999,9999,9999,602766428
80,6,21,Ticks_Linear_5,56,9999,9999,9999,603356216
80,6,21,Ticks_Linear_5,57,9999,9999,9999,603947132
80,6,21,Ticks_Linear_5,58,9999,9999,9999,604546128
80,6,21,Ticks_Linear_5,59,9999,9999,9999,605136996
80,6,21,Ticks_Linear_5,60,9999,9999,9999,605737040
80,6,21,Ticks_Linear_5,61,9999,9999,9999,606336116
80,6,21,Ticks_Linear_5,62,9999,9999,9999,606936188
80,6,21,Ticks_Linear_5,63,9999,9999,9999,607536240
80,6,21,Ticks_Linear_5,64,9999,9999,9999,608136288
80,6,21,Ticks_Linear_5,65,9999,9999,9999,608746620
80,6,21,Ticks_Linear_5,66,9999,9999,9999,609356928
80,6,21,Ticks_Linear_5,67,9999,9999,9999,609966136
80,6,21,Ticks_Linear_5,68,9999,9999,9999,610576444
80,6,21,Ticks_Linear_5,69,9999,9999,9999,611186752
80,6,21,Ticks_Linear_5,70,9999,9999,9999,611806296
80,6,21,Ticks_Linear_5,71,9999,9999,9999,612426864
80,6,21,Ticks_Linear_5,72,9999,9999,9999,613046336
80,6,21,Ticks_Linear_5,73,9999,9999,9999,613666900
80,6,21,Ticks_Linear_5,74,9999,9999,9999,614286420
80,6,21,Ticks_Linear_5,75,9999,9999,9999,614916224
80,6,21,Ticks_Linear_5,76,9999,9999,9999,615546980
80,6,21,Ticks_Linear_5,77,9999,9999,9999,616176708
80,6,21,Ticks_Linear_5,78,9999,9999,9999,616806468
80,6,21,Ticks_Linear_5,79,9999,9999,9999,617436288
80,6,21,Ticks_Linear_5,80,9999,9999,9999,618076260
80,6,21,Ticks_Linear_5,81,9999,9999,9999,618716248
80,6,21,Ticks_Linear_5,82,9999,9999,9999,619356280
80,6,21,Ticks_Linear_5,83,9999,9999,9999,619996276
80,6,21,Ticks_Linear_5,84,9999,9999,9999,620636240
80,6,21,Ticks_Linear_5,85,9999,9999,9999,621286480
80,6,21,Ticks_Linear_5,86,9999,9999,9999,621936704
80,6,21,Ticks_Linear_5,87,9999,9999,9999,622586952
80,6,21,Ticks_Linear_5,88,9999,9999,9999,623236200
80,6,21,Ticks_Linear_5,89,9999,9999,9999,623886448
80,6,21,Ticks_Linear_5,90,9999,9999,9999,624546932
80,6,21,Ticks_Linear_5,91,9999,9999,9999,625206388
80,6,21,Ticks_Linear_5,92,9999,9999,9999,625866820
80,6,21,Ticks_Linear_5,93,9999,9999,9999,626526332
80,6,21,Ticks_Linear_5,94,9999,9999,9999,627186760
80,6,21,Ticks_Linear_5,95,9999,9999,9999,627856456
80,6,21,Ticks_Linear_5,96,9999,9999,9999,628526176
80,6,21,Ticks_Linear_5,97,9999,9999,9999,629196868
80,6,21,Ticks_Linear_5,98,9999,9999,9999,629866560
80,6,21,Ticks_Linear_5,99,9999,9999,9999,630536288
80,6,21,Ticks_Linear_5,100,9999,9999,9999,631216188
80,6,21,Ticks_Linear_5,101,9999,9999,9999,631896144
80,6,21,Ticks_Linear_5,102,9999,9999,9999,632576116
80,6,21,Ticks_Linear_5,103,9999,9999,9999,633257068
80,6,21,Ticks_Linear_5,104,9999,9999,9999,633937020
80,6,21,Ticks_Linear_5,105,9999,9999,9999,634626136
80,6,21,Ticks_Linear_5,106,9999,9999,9999,635316300
80,6,21,Ticks_Linear_5,107,9999,9999,9999,636006512
80,6,21,Ticks_Linear_5,108,9999,9999,9999,636696676
80,6,21,Ticks_Linear_5,109,9999,9999,9999,637386844
80,6,21,Ticks_Linear_5,110,9999,9999,9999,638086264
80,6,21,Ticks_Linear_5,111,9999,9999,9999,638786684
80,6,21,Ticks_Linear_5,112,9999,9999,9999,639487104
80,6,21,Ticks_Linear_5,113,9999,9999,9999,640186480
80,6,21,Ticks_Linear_5,114,9999,9999,9999,640886876
80,6,21,Ticks_Linear_5,115,9999,9999,9999,641596512
80,6,21,Ticks_Linear_5,116,9999,9999,9999,642306144
80,6,21,Ticks_Linear_5,117,9999,9999,9999,643016828
80,6,21,Ticks_Linear_5,118,9999,9999,9999,643726444
80,6,21,Ticks_Linear_5,119,9999,9999,9999,644437048
80,6,21,Ticks_Linear_5,120,9999,9999,9999,645156944
80,6,21,Ticks_Linear_5,121,9999,9999,9999,645876840
80,6,21,Ticks_Linear_5,122,9999,9999,9999,646596728
80,6,21,Ticks_Linear_5,123,9999,9999,9999,647316596
80,6,21,Ticks_Linear_5,124,9999,9999,9999,648036412
80,6,21,Ticks_Linear_5,125,9999,9999,9999,648766564
80,6,21,Ticks_Linear_5,126,9999,9999,9999,649496704
80,6,21,Ticks_Linear_5,127,9999,9999,9999,650226796
80,6,21,Ticks_Linear_5,128,9999,9999,9999,650956876
80,6,21,Ticks_Linear_5,129,9999,9999,9999,651687032
80,6,21,Ticks_Linear_5,130,9999,9999,9999,652426300
80,6,21,Ticks_Linear_5,131,9999,9999,9999,653166708
80,6,21,Ticks_Linear_5,132,9999,9999,9999,653907044
80,6,21,Ticks_Linear_5,133,9999,9999,9999,654646332
80,6,21,Ticks_Linear_5,134,9999,9999,9999,655386744
80,6,21,Ticks_Linear_5,135,9999,9999,9999,656136296
80,6,21,Ticks_Linear_5,136,9999,9999,9999,656886888
80,6,21,Ticks_Linear_5,137,9999,9999,9999,657636440
80,6,21,Ticks_Linear_5,138,9999,9999,9999,658387036
80,6,21,Ticks_Linear_5,139,9999,9999,9999,659136592
80,6,21,Ticks_Linear_5,140,9999,9999,9999,659896400
80,6,21,Ticks_Linear_5,141,9999,9999,9999,660656208
80,6,21,Ticks_Linear_5,142,9999,9999,9999,661417056
80,6,21,Ticks_Linear_5,143,9999,9999,9999,662176840
80,6,21,Ticks_Linear_5,144,9999,9999,9999,662936648
80,6,21,Ticks_Linear_5,145,9999,9999,9999,663706720
80,6,21,Ticks_Linear_5,146,9999,9999,9999,664476788
80,6,21,Ticks_Linear_5,147,9999,9999,9999,665246788
80,6,21,Ticks_Linear_5,148,9999,9999,9999,666016848
80,6,21,Ticks_Linear_5,149,9999,9999,9999,666786924
80,6,21,Ticks_Linear_5,150,9999,9999,9999,667566148
80,6,21,Ticks_Linear_5,151,9999,9999,9999,668346476
80,6,21,Ticks_Linear_5,152,9999,9999,9999,669126728
80,6,21,Ticks_Linear_5,153,9999,9999,9999,669907052
80,6,21,Ticks_Linear_5,154,9999,9999,9999,670686332
80,6,21,Ticks_Linear_5,155,9999,9999,9999,671476844
80,6,21,Ticks_Linear_5,156,9999,9999,9999,672266308
80,6,21,Ticks_Linear_5,157,9999,9999,9999,673056896
80,6,21,Ticks_Linear_5,158,9999,9999,9999,673846364
80,6,21,Ticks_Linear_5,159,9999,9999,9999,674636872
80,6,21,Ticks_Linear_5,160,9999,9999,9999,675436668
80,6,21,Ticks_Linear_5,161,9999,9999,9999,676236392
80,6,21,Ticks_Linear_5,162,9999,9999,9999,677036140
80,6,21,Ticks_Linear_5,163,9999,9999,9999,677836916
80,6,21,Ticks_Linear_5,164,9999,9999,9999,678636640
80,6,21,Ticks_Linear_5,165,9999,9999,9999,679446624
80,6,21,Ticks_Linear_5,166,9999,9999,9999,680256604
80,6,21,Ticks_Linear_5,167,9999,9999,9999,681066588
80,6,21,Ticks_Linear_5,168,9999,9999,9999,681876564
80,6,21,Ticks_Linear_5,169,9999,9999,9999,682686568
80,7,9,Ticks_ISO_T2_8,0,5,42,127,692987324
80,7,9,Ticks_ISO_T2_8,1,5,42,127,693787080
80,7,9,Ticks_ISO_T2_8,2,5,42,127,694586760
80,7,9,Ticks_ISO_T2_8,3,5,42,127,695386368
80,7,9,Ticks_ISO_T2_8,4,1,48,44,696182792
80,7,9,Ticks_ISO_T2_8,5,5,42,127,696187236
80,7,9,Ticks_ISO_T2_8,6,1,48,46,696915128
80,7,9,Ticks_ISO_T2_8,7,5,42,127,696986972
80,7,9,Ticks_ISO_T2_8,8,1,48,38,697739168
80,7,9,Ticks_ISO_T2_8,9,5,42,127,697786952
80,7,9,Ticks_ISO_T2_8,10,1,48,41,698521252
80,7,9,Ticks_ISO_T2_8,11,5,42,127,698586388
80,7,9,Ticks_ISO_T2_8,12,1,48,37,699316672
80,7,9,Ticks_ISO_T2_8,13,5,42,127,699387240
80,7,9,Ticks_ISO_T2_8,14,1,48,38,700170932
80,7,9,Ticks_ISO_T2_8,15,5,42,127,700187048
80,7,9,Ticks_ISO_T2_8,16,1,48,35,700970888
80,7,9,Ticks_ISO_T2_8,17,5,42,127,700986856
80,7,9,Ticks_ISO_T2_8,18,1,48,42,701735540
80,7,9,Ticks_ISO_T2_8,19,5,42,127,701786588
80,7,9,Ticks_ISO_T2_8,20,1,48,39,702539464
80,7,9,Ticks_ISO_T2_8,21,5,42,127,702587220
80,7,9,Ticks_ISO_T2_8,22,1,48,38,703367696
80,7,9,Ticks_ISO_T2_8,23,5,42,127,703387028
80,7,9,Ticks_ISO_T2_8,24,1,48,38,704149780
80,7,9,Ticks_ISO_T2_8,25,5,42,127,704186712
80,7,9,Ticks_ISO_T2_8,26,1,48,43,704944300
80,7,9,Ticks_ISO_T2_8,27,5,42,127,704986596
80,7,9,Ticks_ISO_T2_8,28,1,48,39,705725404
80,7,9,Ticks_ISO_T2_8,29,5,42,127,705787300
80,7,9,Ticks_ISO_T2_8,30,1,48,37,706571140
80,7,9,Ticks_ISO_T2_8,31,5,42,127,706586884
80,7,9,Ticks_ISO_T2_8,32,5,42,127,707386848
80,7,9,Ticks_ISO_T2_8,33,1,48,43,707403576
80,7,9,Ticks_ISO_T2_8,34,1,48,40,708178316
80,7,9,Ticks_ISO_T2_8,35,5,42,127,708186500
80,7,9,Ticks_ISO_T2_8,36,1,48,40,708948280
80,7,9,Ticks_ISO_T2_8,37,5,42,127,708987208
80,7,9,Ticks_ISO_T2_8,38,1,48,23,709007812
80,7,9,Ticks_ISO_T2_8,39,5,42,127,709786852
80,7,9,Ticks_ISO_T2_8,40,1,48,37,709797400
80,7,9,Ticks_ISO_T2_8,41,1,48,41,710586080
80,7,9,Ticks_ISO_T2_8,42,5,42,127,710587652
80,7,9,Ticks_ISO_T2_8,43,1,48,34,711370292
80,7,9,Ticks_ISO_T2_8,44,5,42,127,711386632
80,7,9,Ticks_ISO_T2_8,45,1,48,37,712120664
80,7,9,Ticks_ISO_T2_8,46,5,42,127,712187192
80,7,9,Ticks_ISO_T2_8,47,5,42,127,712987080
80,7,9,Ticks_ISO_T2_8,48,1,48,17,713037472
80,7,9,Ticks_ISO_T2_8,49,5,42,127,713786664
80,7,9,Ticks_ISO_T2_8,50,1,48,37,713788000
80,7,9,Ticks_ISO_T2_8,51,1,48,42,714556060
80,7,9,Ticks_ISO_T2_8,52,5,42,127,714586688
80,7,9,Ticks_ISO_T2_8,53,1,48,41,715337544
80,7,9,Ticks_ISO_T2_8,54,5,42,127,715387320
80,7,9,Ticks_ISO_T2_8,55,1,48,41,716148800
80,7,9,Ticks_ISO_T2_8,56,5,42,127,716186980
80,7,9,Ticks_ISO_T2_8,57,5,42,127,716986668
80,7,9,Ticks_ISO_T2_8,58,1,48,35,717035036
80,7,9,Ticks_ISO_T2_8,59,5,42,127,717786628
80,7,9,Ticks_ISO_T2_8,60,1,48,44,717795876
80,7,9,Ticks_ISO_T2_8,61,1,48,44,718522964
80,7,9,Ticks_ISO_T2_8,62,1,48,31,718564384
80,7,9,Ticks_ISO_T2_8,63,5,42,127,718587228
80,7,9,Ticks_ISO_T2_8,64,1,48,46,719366656
80,7,9,Ticks_ISO_T2_8,65,5,42,127,719387036
80,7,9,Ticks_ISO_T2_8,66,1,48,47,720178212
80,7,9,Ticks_ISO_T2_8,67,5,42,127,720186696
80,7,9,Ticks_ISO_T2_8,68,1,48,51,720976440
80,7,9,Ticks_ISO_T2_8,69,5,42,127,720986428
80,7,9,Ticks_ISO_T2_8,70,5,42,127,721787288
80,7,9,Ticks_ISO_T2_8,71,1,48,36,721797216
80,7,9,Ticks_ISO_T2_8,72,5,42,127,722587096
80,7,9,Ticks_ISO_T2_8,73,1,48,42,722601456
80,7,9,Ticks_ISO_T2_8,74,5,42,127,723386852
80,7,9,Ticks_ISO_T2_8,75,1,48,49,723419224
80,7,9,Ticks_ISO_T2_8,76,1,48,48,724153564
80,7,9,Ticks_ISO_T2_8,77,5,42,127,724186508
80,7,9,Ticks_ISO_T2_8,78,5,42,127,724987220
80,7,9,Ticks_ISO_T2_8,79,1,48,28,725030132
80,7,9,Ticks_ISO_T2_8,80,5,42,127,725786880
80,7,9,Ticks_ISO_T2_8,81,1,48,37,725807424
80,7,9,Ticks_ISO_T2_8,82,5,42,127,726586836
80,7,9,Ticks_ISO_T2_8,83,1,48,36,726608056
80,7,9,Ticks_ISO_T2_8,84,5,42,127,727386344
80,7,9,Ticks_ISO_T2_8,85,1,48,43,727405240
80,7,9,Ticks_ISO_T2_8,86,5,42,127,728187568
80,7,9,Ticks_ISO_T2_8,87,1,48,41,728195180
80,7,9,Ticks_ISO_T2_8,88,1,48,35,728985648
80,7,9,Ticks_ISO_T2_8,89,5,42,127,728987148
80,7,9,Ticks_ISO_T2_8,90,1,48,38,729780588
80,7,9,Ticks_ISO_T2_8,91,5,42,127,729786684
80,7,9,Ticks_ISO_T2_8,92,5,42,127,730586424
80,7,9,Ticks_ISO_T2_8,93,1,48,44,730588360
80,7,9,Ticks_ISO_T2_8,94,1,48,40,731284360
80,7,9,Ticks_ISO_T2_8,95,5,42,127,731387404
80,7,9,Ticks_ISO_T2_8,96,1,48,47,732182476
80,7,9,Ticks_ISO_T2_8,97,5,42,127,732187076
80,7,9,Ticks_ISO_T2_8,98,1,48,49,732949376
80,7,9,Ticks_ISO_T2_8,99,5,42,127,732986812
80,7,9,Ticks_ISO_T2_8,100,1,48,39,733745740
80,7,9,Ticks_ISO_T2_8,101,5,42,127,733786468
80,7,9,Ticks_ISO_T2_8,102,1,48,46,734566420
80,7,9,Ticks_ISO_T2_8,103,5,42,127,734587324
80,7,9,Ticks_ISO_T2_8,104,5,42,127,735387212
80,7,9,Ticks_ISO_T2_8,105,1,48,46,735409128
80,7,9,Ticks_ISO_T2_8,106,5,42,127,736186748
80,7,9,Ticks_ISO_T2_8,107,1,48,34,736220236
80,7,9,Ticks_ISO_T2_8,108,5,42,127,736986408
80,7,9,Ticks_ISO_T2_8,109,1,48,40,736995432
80,7,9,Ticks_ISO_T2_8,110,5,42,127,737787184
80,7,9,Ticks_ISO_T2_8,111,1,48,42,737816104
80,7,9,Ticks_ISO_T2_8,112,1,48,19,737890956
80,7,9,Ticks_ISO_T2_8,113,5,42,127,738587192
80,7,9,Ticks_ISO_T2_8,114,1,48,33,738607368
80,7,9,Ticks_ISO_T2_8,115,5,42,127,739386776
80,7,9,Ticks_ISO_T2_8,116,1,48,31,739423332
80,7,9,Ticks_ISO_T2_8,117,1,48,37,740142116
80,7,9,Ticks_ISO_T2_8,118,5,42,127,740186580
80,7,9,Ticks_ISO_T2_8,119,1,48,35,740967128
80,7,9,Ticks_ISO_T2_8,120,5,42,127,740987136
80,7,9,Ticks_ISO_T2_8,121,5,42,127,741787248
80,7,9,Ticks_ISO_T2_8,122,1,48,40,741804304
80,7,9,Ticks_ISO_T2_8,123,5,42,127,742586636
80,7,9,Ticks_ISO_T2_8,124,1,48,39,742593864
80,7,9,Ticks_ISO_T2_8,125,1,48,46,743363508
80,7,9,Ticks_ISO_T2_8,126,5,42,127,743386508
80,7,9,Ticks_ISO_T2_8,127,5,42,127,744187148
80,7,9,Ticks_ISO_T2_8,128,1,48,41,744192136
80,7,9,Ticks_ISO_T2_8,129,5,42,127,744987104
80,7,9,Ticks_ISO_T2_8,130,1,48,38,745032108
80,7,9,Ticks_ISO_T2_8,131,1,48,38,745761964
80,7,9,Ticks_ISO_T2_8,132,5,42,127,745786608
80,7,9,Ticks_ISO_T2_8,133,1,48,47,746580548
80,7,9,Ticks_ISO_T2_8,134,5,42,127,746586416
80,7,9,Ticks_ISO_T2_8,135,1,48,42,747363676
80,7,9,Ticks_ISO_T2_8,136,5,42,127,747387196
80,7,9,Ticks_ISO_T2_8,137,1,48,40,748173508
80,7,9,Ticks_ISO_T2_8,138,5,42,127,748187004
80,7,9,Ticks_ISO_T2_8,139,1,48,38,748951996
80,7,9,Ticks_ISO_T2_8,140,5,42,127,748987060
80,7,9,Ticks_ISO_T2_8,141,1,48,34,749774488
80,7,9,Ticks_ISO_T2_8,142,5,42,127,749786420
80,7,9,Ticks_ISO_T2_8,143,1,48,33,750563976
80,7,9,Ticks_ISO_T2_8,144,5,42,127,750587124
80,7,9,Ticks_ISO_T2_8,145,5,42,127,751386940
80,7,9,Ticks_ISO_T2_8,146,1,48,38,751968376
80,7,9,Ticks_ISO_T2_8,147,1,48,24,752022500
80,7,9,Ticks_ISO_T2_8,148,5,42,127,752186876
80,7,9,Ticks_ISO_T2_8,149,1,48,36,752890104
80,7,9,Ticks_ISO_T2_8,150,5,42,127,752986540
80,7,9,Ticks_ISO_T2_8,151,1,48,34,753689840
80,7,9,Ticks_ISO_T2_8,152,5,42,127,753787764
80,7,9,Ticks_ISO_T2_8,153,1,48,41,754550604
80,7,9,Ticks_ISO_T2_8,154,5,42,127,754586920
80,7,9,Ticks_ISO_T2_8,155,1,48,43,755332984
80,7,9,Ticks_ISO_T2_8,156,5,42,127,755386824
80,7,9,Ticks_ISO_T2_8,157,1,48,39,756146880
80,7,9,Ticks_ISO_T2_8,158,5,42,127,756186484
80,7,9,Ticks_ISO_T2_8,159,1,48,35,756959776
80,7,9,Ticks_ISO_T2_8,160,5,42,127,756987116
80,7,9,Ticks_ISO_T2_8,161,1,48,37,757752776
80,7,9,Ticks_ISO_T2_8,162,5,42,127,757786920
80,7,9,Ticks_ISO_T2_8,163,1,48,41,758490284
80,7,9,Ticks_ISO_T2_8,164,5,42,127,758586656
80,7,9,Ticks_ISO_T2_8,165,1,48,44,759355008
80,7,9,Ticks_ISO_T2_8,166,5,42,127,759386612
80,7,9,Ticks_ISO_T2_8,167,5,42,127,760187100
80,7,9,Ticks_ISO_T2_8,168,1,48,36,760199268
80,7,9,Ticks_ISO_T2_8,169,1,48,34,760985308
80,7,9,Ticks_ISO_T2_8,170,5,42,127,760986976
80,7,9,Ticks_ISO_T2_8,171,5,42,127,761786812
80,7,9,Ticks_ISO_T2_8,172,1,48,35,761801000
80,7,9,Ticks_ISO_T2_8,173,5,42,127,762586548
80,7,9,Ticks_ISO_T2_8,174,1,48,31,762602756
80,7,9,Ticks_ISO_T2_8,175,5,42,127,763387180
80,7,9,Ticks_ISO_T2_8,176,1,48,36,763405176
80,7,9,Ticks_ISO_T2_8,177,1,48,39,764185704
80,7,9,Ticks_ISO_T2_8,178,5,42,127,764187204
80,7,9,Ticks_ISO_T2_8,179,1,48,47,764986264
80,7,9,Ticks_ISO_T2_8,180,5,42,127,764987684
80,7,9,Ticks_ISO_T2_8,181,1,48,48,765772496
80,7,9,Ticks_ISO_T2_8,182,5,42,127,765786596
80,7,9,Ticks_ISO_T2_8,183,1,48,38,766547548
80,7,9,Ticks_ISO_T2_8,184,5,42,127,766587152
80,7,9,Ticks_ISO_T2_8,185,5,42,127,767386968
80,7,9,Ticks_ISO_T2_8,186,1,48,29,767456976
80,7,9,Ticks_ISO_T2_8,187,5,42,127,768186800
80,7,9,Ticks_ISO_T2_8,188,1,48,34,768199796
80,7,9,Ticks_ISO_T2_8,189,1,48,46,768955072
80,7,9,Ticks_ISO_T2_8,190,5,42,127,768986528
80,7,9,Ticks_ISO_T2_8,191,1,48,42,769740300
80,7,9,Ticks_ISO_T2_8,192,5,42,127,769787456
80,7,9,Ticks_ISO_T2_8,193,1,48,45,770563068
80,7,9,Ticks_ISO_T2_8,194,5,42,127,770587040
80,7,9,Ticks_ISO_T2_8,195,5,42,127,771386708
80,7,9,Ticks_ISO_T2_8,196,1,48,30,771387672
80,7,9,Ticks_ISO_T2_8,197,1,48,39,772162240
80,7,9,Ticks_ISO_T2_8,198,5,42,127,772186436
80,7,9,Ticks_ISO_T2_8,199,5,42,127,772987444
80,7,9,Ticks_ISO_T2_8,200,1,48,45,773001632
80,7,9,Ticks_ISO_T2_8,201,1,48,51,773720120
80,7,9,Ticks_ISO_T2_8,202,5,42,127,773786948
80,7,9,Ticks_ISO_T2_8,203,1,48,45,774579416
80,7,9,Ticks_ISO_T2_8,204,5,42,127,774586704
80,7,9,Ticks_ISO_T2_8,205,5,42,127,775386444
80,7,9,Ticks_ISO_T2_8,206,1,48,39,775425012
80,7,9,Ticks_ISO_T2_8,207,1,48,40,776178736
80,7,9,Ticks_ISO_T2_8,208,5,42,127,776187292
80,7,9,Ticks_ISO_T2_8,209,1,48,50,776977120
80,7,9,Ticks_ISO_T2_8,210,5,42,127,776987100
80,7,9,Ticks_ISO_T2_8,211,5,42,127,777786764
80,7,9,Ticks_ISO_T2_8,212,1,48,47,777794820
80,7,9,Ticks_ISO_T2_8,213,1,48,32,778586124
80,7,9,Ticks_ISO_T2_8,214,5,42,127,778587612
80,7,9,Ticks_ISO_T2_8,215,1,48,35,779351336
80,7,9,Ticks_ISO_T2_8,216,5,42,127,779387344
80,7,9,Ticks_ISO_T2_8,217,1,48,28,780156820
80,7,9,Ticks_ISO_T2_8,218,5,42,127,780186932
80,7,9,Ticks_ISO_T2_8,219,1,48,42,780943020
80,7,9,Ticks_ISO_T2_8,220,5,42,127,780986836
80,7,9,Ticks_ISO_T2_8,221,1,48,38,781742704
80,7,9,Ticks_ISO_T2_8,222,5,42,127,781786568
80,7,9,Ticks_ISO_T2_8,223,1,48,45,782544380
80,7,9,Ticks_ISO_T2_8,224,5,42,127,782587348
80,7,9,Ticks_ISO_T2_8,225,5,42,127,783387164
80,7,9,Ticks_ISO_T2_8,226,1,48,44,783390656
80,7,9,Ticks_ISO_T2_8,227,5,42,127,784186824
80,7,9,Ticks_ISO_T2_8,228,1,48,50,784211632
80,7,9,Ticks_ISO_T2_8,229,5,42,127,784986556
80,7,9,Ticks_ISO_T2_8,230,1,48,43,784999552
80,7,9,Ticks_ISO_T2_8,231,5,42,127,785787336
80,7,9,Ticks_ISO_T2_8,232,1,48,48,785791948
80,7,9,Ticks_ISO_T2_8,233,1,48,53,786579624
80,7,9,Ticks_ISO_T2_8,234,5,42,127,786586912
80,7,9,Ticks_ISO_T2_8,235,1,48,44,787371228
80,7,9,Ticks_ISO_T2_8,236,5,42,127,787386744
80,7,9,Ticks_ISO_T2_8,237,1,48,48,788175148
80,7,9,Ticks_ISO_T2_8,238,5,42,127,788186480
80,7,9,Ticks_ISO_T2_8,239,1,48,54,788939724
80,7,9,Ticks_ISO_T2_8,0,9999,9999,9999,692984884
80,7,9,Ticks_ISO_T2_8,1,9999,9999,9999,693784640
80,7,9,Ticks_ISO_T2_8,2,9999,9999,9999,694584396
80,7,9,Ticks_ISO_T2_8,3,9999,9999,9999,695384148
80,7,9,Ticks_ISO_T2_8,4,9999,9999,9999,696184944
80,7,9,Ticks_ISO_T2_8,5,9999,9999,9999,696984680
80,7,9,Ticks_ISO_T2_8,6,9999,9999,9999,697784436
80,7,9,Ticks_ISO_T2_8,7,9999,9999,9999,698584168
80,7,9,Ticks_ISO_T2_8,8,9999,9999,9999,699384948
80,7,9,Ticks_ISO_T2_8,9,9999,9999,9999,700184680
80,7,9,Ticks_ISO_T2_8,10,9999,9999,9999,700984416
80,7,9,Ticks_ISO_T2_8,11,9999,9999,9999,701784148
80,7,9,Ticks_ISO_T2_8,12,9999,9999,9999,702584928
80,7,9,Ticks_ISO_T2_8,13,9999,9999,9999,703384660
80,7,9,Ticks_ISO_T2_8,14,9999,9999,9999,704184420
80,7,9,Ticks_ISO_T2_8,15,9999,9999,9999,704984156
80,7,9,Ticks_ISO_T2_8,16,9999,9999,9999,705784936
80,7,9,Ticks_ISO_T2_8,17,9999,9999,9999,706584668
80,7,9,Ticks_ISO_T2_8,18,9999,9999,9999,707384408
80,7,9,Ticks_ISO_T2_8,19,9999,9999,9999,708184136
80,7,9,Ticks_ISO_T2_8,20,9999,9999,9999,708984916
80,7,9,Ticks_ISO_T2_8,21,9999,9999,9999,709784632
80,7,9,Ticks_ISO_T2_8,22,9999,9999,9999,710584392
80,7,9,Ticks_ISO_T2_8,23,9999,9999,9999,711384120
80,7,9,Ticks_ISO_T2_8,24,9999,9999,9999,712184900
80,7,9,Ticks_ISO_T2_8,25,9999,9999,9999,712984640
80,7,9,Ticks_ISO_T2_8,26,9999,9999,9999,713784372
80,7,9,Ticks_ISO_T2_8,27,9999,9999,9999,714584176
80,7,9,Ticks_ISO_T2_8,28,9999,9999,9999,715384880
80,7,9,Ticks_ISO_T2_8,29,9999,9999,9999,716184688
80,7,9,Ticks_ISO_T2_8,30,9999,9999,9999,716984376
80,7,9,Ticks_ISO_T2_8,31,9999,9999,9999,717784112
80,7,9,Ticks_ISO_T2_8,32,9999,9999,9999,718584936
80,7,9,Ticks_ISO_T2_8,33,9999,9999,9999,719384668
80,7,9,Ticks_ISO_T2_8,34,9999,9999,9999,720184404
80,7,9,Ticks_ISO_T2_8,35,9999,9999,9999,720984136
80,7,9,Ticks_ISO_T2_8,36,9999,9999,9999,721784920
80,7,9,Ticks_ISO_T2_8,37,9999,9999,9999,722584656
80,7,9,Ticks_ISO_T2_8,38,9999,9999,9999,723384412
80,7,9,Ticks_ISO_T2_8,39,9999,9999,9999,724184140
80,7,9,Ticks_ISO_T2_8,40,9999,9999,9999,724984928
80,7,9,Ticks_ISO_T2_8,41,9999,9999,9999,725784660
80,7,9,Ticks_ISO_T2_8,42,9999,9999,9999,726584396
80,7,9,Ticks_ISO_T2_8,43,9999,9999,9999,727384128
80,7,9,Ticks_ISO_T2_8,44,9999,9999,9999,728184908
80,7,9,Ticks_ISO_T2_8,45,9999,9999,9999,728984640
80,7,9,Ticks_ISO_T2_8,46,9999,9999,9999,729784392
80,7,9,Ticks_ISO_T2_8,47,9999,9999,9999,730584132
80,7,9,Ticks_ISO_T2_8,48,9999,9999,9999,731384888
80,7,9,Ticks_ISO_T2_8,49,9999,9999,9999,732184636
80,7,9,Ticks_ISO_T2_8,50,9999,9999,9999,732984372
80,7,9,Ticks_ISO_T2_8,51,9999,9999,9999,733784176
80,7,9,Ticks_ISO_T2_8,52,9999,9999,9999,734584884
80,7,9,Ticks_ISO_T2_8,53,9999,9999,9999,735384624
80,7,9,Ticks_ISO_T2_8,54,9999,9999,9999,736184380
80,7,9,Ticks_ISO_T2_8,55,9999,9999,9999,736984116
80,7,9,Ticks_ISO_T2_8,56,9999,9999,9999,737784892
80,7,9,Ticks_ISO_T2_8,57,9999,9999,9999,738584680
80,7,9,Ticks_ISO_T2_8,58,9999,9999,9999,739384412
80,7,9,Ticks_ISO_T2_8,59,9999,9999,9999,740184140
80,7,9,Ticks_ISO_T2_8,60,9999,9999,9999,740984920
80,7,9,Ticks_ISO_T2_8,61,9999,9999,9999,741784660
80,7,9,Ticks_ISO_T2_8,62,9999,9999,9999,742584416
80,7,9,Ticks_ISO_T2_8,63,9999,9999,9999,743384144
80,7,9,Ticks_ISO_T2_8,64,9999,9999,9999,744184928
80,7,9,Ticks_ISO_T2_8,65,9999,9999,9999,744984664
80,7,9,Ticks_ISO_T2_8,66,9999,9999,9999,745784392
80,7,9,Ticks_ISO_T2_8,67,9999,9999,9999,746584124
80,7,9,Ticks_ISO_T2_8,68,9999,9999,9999,747384904
80,7,9,Ticks_ISO_T2_8,69,9999,9999,9999,748184636
80,7,9,Ticks_ISO_T2_8,70,9999,9999,9999,748984396
80,7,9,Ticks_ISO_T2_8,71,9999,9999,9999,749784128
80,7,9,Ticks_ISO_T2_8,72,9999,9999,9999,750584908
80,7,9,Ticks_ISO_T2_8,73,9999,9999,9999,751384648
80,7,9,Ticks_ISO_T2_8,74,9999,9999,9999,752184436
80,7,9,Ticks_ISO_T2_8,75,9999,9999,9999,752984112
80,7,9,Ticks_ISO_T2_8,76,9999,9999,9999,753784892
80,7,9,Ticks_ISO_T2_8,77,9999,9999,9999,754584628
80,7,9,Ticks_ISO_T2_8,78,9999,9999,9999,755384384
80,7,9,Ticks_ISO_T2_8,79,9999,9999,9999,756184116
80,7,9,Ticks_ISO_T2_8,80,9999,9999,9999,756984896
80,7,9,Ticks_ISO_T2_8,81,9999,9999,9999,757784632
80,7,9,Ticks_ISO_T2_8,82,9999,9999,9999,758584436
80,7,9,Ticks_ISO_T2_8,83,9999,9999,9999,759384172
80,7,9,Ticks_ISO_T2_8,84,9999,9999,9999,760184884
80,7,9,Ticks_ISO_T2_8,85,9999,9999,9999,760984708
80,7,9,Ticks_ISO_T2_8,86,9999,9999,9999,761784372
80,7,9,Ticks_ISO_T2_8,87,9999,9999,9999,762584180
80,7,9,Ticks_ISO_T2_8,88,9999,9999,9999,763384884
80,7,9,Ticks_ISO_T2_8,89,9999,9999,9999,764184696
80,7,9,Ticks_ISO_T2_8,90,9999,9999,9999,764984428
80,7,9,Ticks_ISO_T2_8,91,9999,9999,9999,765784156
80,7,9,Ticks_ISO_T2_8,92,9999,9999,9999,766584936
80,7,9,Ticks_ISO_T2_8,93,9999,9999,9999,767384676
80,7,9,Ticks_ISO_T2_8,94,9999,9999,9999,768184432
80,7,9,Ticks_ISO_T2_8,95,9999,9999,9999,768984160
80,7,9,Ticks_ISO_T2_8,96,9999,9999,9999,769784940
80,7,9,Ticks_ISO_T2_8,97,9999,9999,9999,770584676
80,7,9,Ticks_ISO_T2_8,98,9999,9999,9999,771384416
80,7,9,Ticks_ISO_T2_8,99,9999,9999,9999,772184144
80,7,9,Ticks_ISO_T2_8,100,9999,9999,9999,772984928
80,7,9,Ticks_ISO_T2_8,101,9999,9999,9999,773784656
80,7,9,Ticks_ISO_T2_8,102,9999,9999,9999,774584416
80,7,9,Ticks_ISO_T2_8,103,9999,9999,9999,775384152
80,7,9,Ticks_ISO_T2_8,104,9999,9999,9999,776184928
80,7,9,Ticks_ISO_T2_8,105,9999,9999,9999,776984660
80,7,9,Ticks_ISO_T2_8,106,9999,9999,9999,777784400
80,7,9,Ticks_ISO_T2_8,107,9999,9999,9999,778584132
80,7,9,Ticks_ISO_T2_8,108,9999,9999,9999,779384904
80,7,9,Ticks_ISO_T2_8,109,9999,9999,9999,780184640
80,7,9,Ticks_ISO_T2_8,110,9999,9999,9999,780984396
80,7,9,Ticks_ISO_T2_8,111,9999,9999,9999,781784128
80,7,9,Ticks_ISO_T2_8,112,9999,9999,9999,782584908
80,7,9,Ticks_ISO_T2_8,113,9999,9999,9999,783384648
80,7,9,Ticks_ISO_T2_8,114,9999,9999,9999,784184384
80,7,9,Ticks_ISO_T2_8,115,9999,9999,9999,784984116
80,7,9,Ticks_ISO_T2_8,116,9999,9999,9999,785784896
80,7,9,Ticks_ISO_T2_8,117,9999,9999,9999,786584624
80,7,9,Ticks_ISO_T2_8,118,9999,9999,9999,787384380
80,7,9,Ticks_ISO_T2_8,119,9999,9999,9999,788184112
80,8,10,Ticks_ISO_T2_5,0,5,42,127,798079272
80,8,10,Ticks_ISO_T2_5,1,5,42,127,798579060
80,8,10,Ticks_ISO_T2_5,2,5,42,127,799078928
80,8,10,Ticks_ISO_T2_5,3,5,42,127,799578420
80,8,10,Ticks_ISO_T2_5,4,5,42,127,800079332
80,8,10,Ticks_ISO_T2_5,5,1,48,37,800090900
80,8,10,Ticks_ISO_T2_5,6,1,48,50,800579472
80,8,10,Ticks_ISO_T2_5,7,5,42,127,800580588
80,8,10,Ticks_ISO_T2_5,8,5,42,127,801079072
80,8,10,Ticks_ISO_T2_5,9,1,48,51,801105004
80,8,10,Ticks_ISO_T2_5,10,5,42,127,801579368
80,8,10,Ticks_ISO_T2_5,11,1,48,45,801606720
80,8,10,Ticks_ISO_T2_5,12,5,42,127,802079060
80,8,10,Ticks_ISO_T2_5,13,1,48,49,802096912
80,8,10,Ticks_ISO_T2_5,14,5,42,127,802579052
80,8,10,Ticks_ISO_T2_5,15,1,48,50,802588604
80,8,10,Ticks_ISO_T2_5,16,5,42,127,803078600
80,8,10,Ticks_ISO_T2_5,17,1,48,48,803080160
80,8,10,Ticks_ISO_T2_5,18,5,42,127,803579192
80,8,10,Ticks_ISO_T2_5,19,1,48,46,803605196
80,8,10,Ticks_ISO_T2_5,20,5,42,127,804079112
80,8,10,Ticks_ISO_T2_5,21,1,48,47,804096516
80,8,10,Ticks_ISO_T2_5,22,5,42,127,804579104
80,8,10,Ticks_ISO_T2_5,23,1,48,44,804580216
80,8,10,Ticks_ISO_T2_5,24,1,48,51,805066264
80,8,10,Ticks_ISO_T2_5,25,5,42,127,805079392
80,8,10,Ticks_ISO_T2_5,26,5,42,127,805579020
80,8,10,Ticks_ISO_T2_5,27,1,48,52,805591560
80,8,10,Ticks_ISO_T2_5,28,1,48,50,806063636
80,8,10,Ticks_ISO_T2_5,29,5,42,127,806079004
80,8,10,Ticks_ISO_T2_5,30,1,48,55,806568416
80,8,10,Ticks_ISO_T2_5,31,5,42,127,806578400
80,8,10,Ticks_ISO_T2_5,32,1,48,45,807068012
80,8,10,Ticks_ISO_T2_5,33,5,42,127,807079292
80,8,10,Ticks_ISO_T2_5,34,1,48,53,807576008
80,8,10,Ticks_ISO_T2_5,35,5,42,127,807579036
80,8,10,Ticks_ISO_T2_5,36,5,42,127,808078884
80,8,10,Ticks_ISO_T2_5,37,1,48,53,808090980
80,8,10,Ticks_ISO_T2_5,38,5,42,127,808578728
80,8,10,Ticks_ISO_T2_5,39,1,48,41,808600248
80,8,10,Ticks_ISO_T2_5,40,1,48,50,809052504
80,8,10,Ticks_ISO_T2_5,41,5,42,127,809079092
80,8,10,Ticks_ISO_T2_5,42,5,42,127,809578940
80,8,10,Ticks_ISO_T2_5,43,1,48,48,809579980
80,8,10,Ticks_ISO_T2_5,44,1,48,54,810058776
80,8,10,Ticks_ISO_T2_5,45,5,42,127,810078852
80,8,10,Ticks_ISO_T2_5,46,1,48,51,810553152
80,8,10,Ticks_ISO_T2_5,47,5,42,127,810579220
80,8,10,Ticks_ISO_T2_5,48,1,48,43,811062048
80,8,10,Ticks_ISO_T2_5,49,5,42,127,811078916
80,8,10,Ticks_ISO_T2_5,50,1,48,41,811554264
80,8,10,Ticks_ISO_T2_5,51,5,42,127,811578908
80,8,10,Ticks_ISO_T2_5,52,1,48,48,812025912
80,8,10,Ticks_ISO_T2_5,53,5,42,127,812078676
80,8,10,Ticks_ISO_T2_5,54,5,42,127,812579052
80,8,10,Ticks_ISO_T2_5,55,1,48,29,812857224
80,8,10,Ticks_ISO_T2_5,56,5,42,127,813078824
80,8,10,Ticks_ISO_T2_5,57,5,42,127,813578836
80,8,10,Ticks_ISO_T2_5,58,5,42,127,814079300
80,8,10,Ticks_ISO_T2_5,59,1,48,40,814117424
80,8,10,Ticks_ISO_T2_5,60,1,48,48,814527944
80,8,10,Ticks_ISO_T2_5,61,5,42,127,814579136
80,8,10,Ticks_ISO_T2_5,62,1,48,44,815074832
80,8,10,Ticks_ISO_T2_5,63,5,42,127,815078756
80,8,10,Ticks_ISO_T2_5,64,1,48,50,815569740
80,8,10,Ticks_ISO_T2_5,65,5,42,127,815578604
80,8,10,Ticks_ISO_T2_5,66,1,48,51,816078448
80,8,10,Ticks_ISO_T2_5,67,5,42,127,816079788
80,8,10,Ticks_ISO_T2_5,68,5,42,127,816578820
80,8,10,Ticks_ISO_T2_5,69,1,48,51,816594504
80,8,10,Ticks_ISO_T2_5,70,1,48,54,817072716
80,8,10,Ticks_ISO_T2_5,71,5,42,127,817078660
80,8,10,Ticks_ISO_T2_5,72,1,48,49,817566348
80,8,10,Ticks_ISO_T2_5,73,5,42,127,817579476
80,8,10,Ticks_ISO_T2_5,74,5,42,127,818079104
80,8,10,Ticks_ISO_T2_5,75,1,48,48,818084916
80,8,10,Ticks_ISO_T2_5,76,1,48,41,818562796
80,8,10,Ticks_ISO_T2_5,77,5,42,127,818578692
80,8,10,Ticks_ISO_T2_5,78,1,48,44,819056660
80,8,10,Ticks_ISO_T2_5,79,5,42,127,819078608
80,8,10,Ticks_ISO_T2_5,80,1,48,49,819568024
80,8,10,Ticks_ISO_T2_5,81,5,42,127,819579352
80,8,10,Ticks_ISO_T2_5,82,1,48,47,820057100
80,8,10,Ticks_ISO_T2_5,83,5,42,127,820078896
80,8,10,Ticks_ISO_T2_5,84,1,48,49,820562252
80,8,10,Ticks_ISO_T2_5,85,5,42,127,820578592
80,8,10,Ticks_ISO_T2_5,86,1,48,47,821053572
80,8,10,Ticks_ISO_T2_5,87,5,42,127,821079484
80,8,10,Ticks_ISO_T2_5,88,1,48,50,821558796
80,8,10,Ticks_ISO_T2_5,89,5,42,127,821579100
80,8,10,Ticks_ISO_T2_5,90,5,42,127,822078728
80,8,10,Ticks_ISO_T2_5,91,1,48,43,822108476
80,8,10,Ticks_ISO_T2_5,92,1,48,46,822563568
80,8,10,Ticks_ISO_T2_5,93,5,42,127,822578640
80,8,10,Ticks_ISO_T2_5,94,1,48,47,823078412
80,8,10,Ticks_ISO_T2_5,95,5,42,127,823079900
80,8,10,Ticks_ISO_T2_5,96,5,42,127,823578864
80,8,10,Ticks_ISO_T2_5,97,1,48,46,823588264
80,8,10,Ticks_ISO_T2_5,98,5,42,127,824078632
80,8,10,Ticks_ISO_T2_5,99,1,48,47,824088932
80,8,10,Ticks_ISO_T2_5,100,1,48,42,824563620
80,8,10,Ticks_ISO_T2_5,101,5,42,127,824578468
80,8,10,Ticks_ISO_T2_5,102,5,42,127,825079368
80,8,10,Ticks_ISO_T2_5,103,1,48,43,825101560
80,8,10,Ticks_ISO_T2_5,104,5,42,127,825578764
80,8,10,Ticks_ISO_T2_5,105,1,48,49,825580100
80,8,10,Ticks_ISO_T2_5,106,5,42,127,826078532
80,8,10,Ticks_ISO_T2_5,107,1,48,46,826090628
80,8,10,Ticks_ISO_T2_5,108,5,42,127,826579496
80,8,10,Ticks_ISO_T2_5,109,1,48,47,826590696
80,8,10,Ticks_ISO_T2_5,110,5,42,127,827079044
80,8,10,Ticks_ISO_T2_5,111,1,48,49,827081636
80,8,10,Ticks_ISO_T2_5,112,1,48,53,827564112
80,8,10,Ticks_ISO_T2_5,113,5,42,127,827578584
80,8,10,Ticks_ISO_T2_5,114,5,42,127,828078432
80,8,10,Ticks_ISO_T2_5,115,1,48,46,828102196
80,8,10,Ticks_ISO_T2_5,116,5,42,127,828579396
80,8,10,Ticks_ISO_T2_5,117,1,48,54,828580364
80,8,10,Ticks_ISO_T2_5,118,1,48,40,829069976
80,8,10,Ticks_ISO_T2_5,119,5,42,127,829078912
80,8,10,Ticks_ISO_T2_5,120,5,42,127,829578540
80,8,10,Ticks_ISO_T2_5,121,1,48,51,829581732
80,8,10,Ticks_ISO_T2_5,122,1,48,47,830042512
80,8,10,Ticks_ISO_T2_5,123,5,42,127,830079496
80,8,10,Ticks_ISO_T2_5,124,1,48,56,830579124
80,8,10,Ticks_ISO_T2_5,125,5,42,127,830580460
80,8,10,Ticks_ISO_T2_5,126,5,42,127,831078668
80,8,10,Ticks_ISO_T2_5,127,1,48,53,831083880
80,8,10,Ticks_ISO_T2_5,128,1,48,51,831551772
80,8,10,Ticks_ISO_T2_5,129,5,42,127,831578656
80,8,10,Ticks_ISO_T2_5,130,5,42,127,832079552
80,8,10,Ticks_ISO_T2_5,131,1,48,56,832095536
80,8,10,Ticks_ISO_T2_5,132,1,48,54,832560140
80,8,10,Ticks_ISO_T2_5,133,5,42,127,832578796
80,8,10,Ticks_ISO_T2_5,134,1,48,33,833059008
80,8,10,Ticks_ISO_T2_5,135,5,42,127,833078492
80,8,10,Ticks_ISO_T2_5,136,1,48,47,833563412
80,8,10,Ticks_ISO_T2_5,137,5,42,127,833579456
80,8,10,Ticks_ISO_T2_5,138,1,48,52,834046056
80,8,10,Ticks_ISO_T2_5,139,5,42,127,834079372
80,8,10,Ticks_ISO_T2_5,140,1,48,51,834576656
80,8,10,Ticks_ISO_T2_5,141,5,42,127,834578696
80,8,10,Ticks_ISO_T2_5,142,1,48,49,835060476
80,8,10,Ticks_ISO_T2_5,143,5,42,127,835078464
80,8,10,Ticks_ISO_T2_5,144,5,42,127,835579436
80,8,10,Ticks_ISO_T2_5,145,1,48,46,835614568
80,8,10,Ticks_ISO_T2_5,146,5,42,127,836078908
80,8,10,Ticks_ISO_T2_5,147,1,48,60,836116056
80,8,10,Ticks_ISO_T2_5,148,1,48,49,836564720
80,8,10,Ticks_ISO_T2_5,149,5,42,127,836578524
80,8,10,Ticks_ISO_T2_5,150,5,42,127,837079496
80,8,10,Ticks_ISO_T2_5,151,1,48,40,837097872
80,8,10,Ticks_ISO_T2_5,152,1,48,52,837546608
80,8,10,Ticks_ISO_T2_5,153,5,42,127,837579332
80,8,10,Ticks_ISO_T2_5,154,5,42,127,838078808
80,8,10,Ticks_ISO_T2_5,155,1,48,40,838079924
80,8,10,Ticks_ISO_T2_5,156,1,48,52,838533036
80,8,10,Ticks_ISO_T2_5,157,5,42,127,838578500
80,8,10,Ticks_ISO_T2_5,158,1,48,53,839072924
80,8,10,Ticks_ISO_T2_5,159,5,42,127,839079388
80,8,10,Ticks_ISO_T2_5,160,1,48,52,839540208
80,8,10,Ticks_ISO_T2_5,161,5,42,127,839579212
80,8,10,Ticks_ISO_T2_5,162,1,48,51,840072784
80,8,10,Ticks_ISO_T2_5,163,5,42,127,840078656
80,8,10,Ticks_ISO_T2_5,164,1,48,52,840571584
80,8,10,Ticks_ISO_T2_5,165,5,42,127,840578500
80,8,10,Ticks_ISO_T2_5,166,1,48,52,841070232
80,8,10,Ticks_ISO_T2_5,167,5,42,127,841079092
80,8,10,Ticks_ISO_T2_5,168,1,48,53,841557736
80,8,10,Ticks_ISO_T2_5,169,5,42,127,841578864
80,8,10,Ticks_ISO_T2_5,170,5,42,127,842078564
80,8,10,Ticks_ISO_T2_5,171,1,48,58,842099336
80,8,10,Ticks_ISO_T2_5,172,1,48,48,842555480
80,8,10,Ticks_ISO_T2_5,173,5,42,127,842579300
80,8,10,Ticks_ISO_T2_5,174,1,48,56,843054648
80,8,10,Ticks_ISO_T2_5,175,5,42,127,843079144
80,8,10,Ticks_ISO_T2_5,176,1,48,46,843537144
80,8,10,Ticks_ISO_T2_5,177,5,42,127,843578764
80,8,10,Ticks_ISO_T2_5,178,1,48,54,844065556
80,8,10,Ticks_ISO_T2_5,179,5,42,127,844078384
80,8,10,Ticks_ISO_T2_5,180,1,48,51,844562188
80,8,10,Ticks_ISO_T2_5,181,5,42,127,844579128
80,8,10,Ticks_ISO_T2_5,182,1,48,57,845044832
80,8,10,Ticks_ISO_T2_5,183,5,42,127,845078972
80,8,10,Ticks_ISO_T2_5,184,1,48,51,845555820
80,8,10,Ticks_ISO_T2_5,185,5,42,127,845578592
80,8,10,Ticks_ISO_T2_5,186,1,48,48,846066284
80,8,10,Ticks_ISO_T2_5,187,5,42,127,846079260
80,8,10,Ticks_ISO_T2_5,188,1,48,61,846548552
80,8,10,Ticks_ISO_T2_5,189,5,42,127,846578956
80,8,10,Ticks_ISO_T2_5,190,1,48,55,847054380
80,8,10,Ticks_ISO_T2_5,191,5,42,127,847078876
80,8,10,Ticks_ISO_T2_5,192,1,48,56,847532088
80,8,10,Ticks_ISO_T2_5,193,5,42,127,847578348
80,8,10,Ticks_ISO_T2_5,194,1,48,51,848055188
80,8,10,Ticks_ISO_T2_5,195,5,42,127,848079164
80,8,10,Ticks_ISO_T2_5,196,1,48,59,848531076
80,8,10,Ticks_ISO_T2_5,197,5,42,127,848579004
80,8,10,Ticks_ISO_T2_5,198,1,48,51,849060944
80,8,10,Ticks_ISO_T2_5,199,5,42,127,849078628
80,8,10,Ticks_ISO_T2_5,200,1,48,61,849542732
80,8,10,Ticks_ISO_T2_5,201,5,42,127,849579296
80,8,10,Ticks_ISO_T2_5,202,1,48,48,850057016
80,8,10,Ticks_ISO_T2_5,203,5,42,127,850079064
80,8,10,Ticks_ISO_T2_5,204,1,48,53,850536592
80,8,10,Ticks_ISO_T2_5,205,5,42,127,850578880
80,8,10,Ticks_ISO_T2_5,206,1,48,57,851046608
80,8,10,Ticks_ISO_T2_5,207,5,42,127,851078504
80,8,10,Ticks_ISO_T2_5,208,5,42,127,851579180
80,8,10,Ticks_ISO_T2_5,209,5,42,127,852078968
80,8,10,Ticks_ISO_T2_5,210,1,48,52,852111180
80,8,10,Ticks_ISO_T2_5,211,1,48,55,852555432
80,8,10,Ticks_ISO_T2_5,212,5,42,127,852578804
80,8,10,Ticks_ISO_T2_5,213,5,42,127,853079332
80,8,10,Ticks_ISO_T2_5,214,1,48,59,853086712
80,8,10,Ticks_ISO_T2_5,215,5,42,127,853579172
80,8,10,Ticks_ISO_T2_5,216,1,48,57,853581920
80,8,10,Ticks_ISO_T2_5,217,1,48,62,854058332
80,8,10,Ticks_ISO_T2_5,218,5,42,127,854078936
80,8,10,Ticks_ISO_T2_5,219,1,48,32,854133644
80,8,10,Ticks_ISO_T2_5,220,1,48,60,854544912
80,8,10,Ticks_ISO_T2_5,221,5,42,127,854578460
80,8,10,Ticks_ISO_T2_5,222,1,48,55,855064656
80,8,10,Ticks_ISO_T2_5,223,5,42,127,855079276
80,8,10,Ticks_ISO_T2_5,224,1,48,53,855554328
80,8,10,Ticks_ISO_T2_5,225,5,42,127,855578968
80,8,10,Ticks_ISO_T2_5,226,1,48,53,856040932
80,8,10,Ticks_ISO_T2_5,227,5,42,127,856078812
80,8,10,Ticks_ISO_T2_5,228,1,48,61,856576472
80,8,10,Ticks_ISO_T2_5,229,5,42,127,856578284
80,8,10,Ticks_ISO_T2_5,230,1,48,63,857073832
80,8,10,Ticks_ISO_T2_5,231,5,42,127,857079100
80,8,10,Ticks_ISO_T2_5,232,1,48,56,857552132
80,8,10,Ticks_ISO_T2_5,233,5,42,127,857578868
80,8,10,Ticks_ISO_T2_5,234,1,48,59,858072248
80,8,10,Ticks_ISO_T2_5,235,5,42,127,858078564
80,8,10,Ticks_ISO_T2_5,236,5,42,127,858579388
80,8,10,Ticks_ISO_T2_5,237,1,48,59,858582952
80,8,10,Ticks_ISO_T2_5,238,1,48,54,859071484
80,8,10,Ticks_ISO_T2_5,239,5,42,127,859079076
80,8,10,Ticks_ISO_T2_5,240,1,48,51,859576656
80,8,10,Ticks_ISO_T2_5,241,5,42,127,859578696
80,8,10,Ticks_ISO_T2_5,242,5,42,127,860078472
80,8,10,Ticks_ISO_T2_5,243,1,48,55,860087504
80,8,10,Ticks_ISO_T2_5,244,5,42,127,860579140
80,8,10,Ticks_ISO_T2_5,245,1,48,54,860584872
80,8,10,Ticks_ISO_T2_5,246,5,42,127,861078808
80,8,10,Ticks_ISO_T2_5,247,1,48,62,861086820
80,8,10,Ticks_ISO_T2_5,248,1,48,59,861576136
80,8,10,Ticks_ISO_T2_5,249,5,42,127,861578720
80,8,10,Ticks_ISO_T2_5,250,5,42,127,862079244
80,8,10,Ticks_ISO_T2_5,251,1,48,62,862091860
80,8,10,Ticks_ISO_T2_5,252,1,48,53,862557284
80,8,10,Ticks_ISO_T2_5,253,5,42,127,862578932
80,8,10,Ticks_ISO_T2_5,254,1,48,58,863071488
80,8,10,Ticks_ISO_T2_5,0,9999,9999,9999,798076984
80,8,10,Ticks_ISO_T2_5,1,9999,9999,9999,798576700
80,8,10,Ticks_ISO_T2_5,2,9999,9999,9999,799076416
80,8,10,Ticks_ISO_T2_5,3,9999,9999,9999,799576136
80,8,10,Ticks_ISO_T2_5,4,9999,9999,9999,800076896
80,8,10,Ticks_ISO_T2_5,5,9999,9999,9999,800576592
80,8,10,Ticks_ISO_T2_5,6,9999,9999,9999,801076336
80,8,10,Ticks_ISO_T2_5,7,9999,9999,9999,801577080
80,8,10,Ticks_ISO_T2_5,8,9999,9999,9999,802076772
80,8,10,Ticks_ISO_T2_5,9,9999,9999,9999,802576468
80,8,10,Ticks_ISO_T2_5,10,9999,9999,9999,803076164
80,8,10,Ticks_ISO_T2_5,11,9999,9999,9999,803576908
80,8,10,Ticks_ISO_T2_5,12,9999,9999,9999,804076600
80,8,10,Ticks_ISO_T2_5,13,9999,9999,9999,804576372
80,8,10,Ticks_ISO_T2_5,14,9999,9999,9999,805077108
80,8,10,Ticks_ISO_T2_5,15,9999,9999,9999,805576808
80,8,10,Ticks_ISO_T2_5,16,9999,9999,9999,806076496
80,8,10,Ticks_ISO_T2_5,17,9999,9999,9999,806576188
80,8,10,Ticks_ISO_T2_5,18,9999,9999,9999,807076932
80,8,10,Ticks_ISO_T2_5,19,9999,9999,9999,807576676
80,8,10,Ticks_ISO_T2_5,20,9999,9999,9999,808076376
80,8,10,Ticks_ISO_T2_5,21,9999,9999,9999,808576068
80,8,10,Ticks_ISO_T2_5,22,9999,9999,9999,809076804
80,8,10,Ticks_ISO_T2_5,23,9999,9999,9999,809576504
80,8,10,Ticks_ISO_T2_5,24,9999,9999,9999,810076268
80,8,10,Ticks_ISO_T2_5,25,9999,9999,9999,810577008
80,8,10,Ticks_ISO_T2_5,26,9999,9999,9999,811076704
80,8,10,Ticks_ISO_T2_5,27,9999,9999,9999,811576400
80,8,10,Ticks_ISO_T2_5,28,9999,9999,9999,812076092
80,8,10,Ticks_ISO_T2_5,29,9999,9999,9999,812576840
80,8,10,Ticks_ISO_T2_5,30,9999,9999,9999,813076536
80,8,10,Ticks_ISO_T2_5,31,9999,9999,9999,813576252
80,8,10,Ticks_ISO_T2_5,32,9999,9999,9999,814077016
80,8,10,Ticks_ISO_T2_5,33,9999,9999,9999,814576704
80,8,10,Ticks_ISO_T2_5,34,9999,9999,9999,815076472
80,8,10,Ticks_ISO_T2_5,35,9999,9999,9999,815576168
80,8,10,Ticks_ISO_T2_5,36,9999,9999,9999,816076912
80,8,10,Ticks_ISO_T2_5,37,9999,9999,9999,816576608
80,8,10,Ticks_ISO_T2_5,38,9999,9999,9999,817076300
80,8,10,Ticks_ISO_T2_5,39,9999,9999,9999,817577040
80,8,10,Ticks_ISO_T2_5,40,9999,9999,9999,818076792
80,8,10,Ticks_ISO_T2_5,41,9999,9999,9999,818576480
80,8,10,Ticks_ISO_T2_5,42,9999,9999,9999,819076176
80,8,10,Ticks_ISO_T2_5,43,9999,9999,9999,819576916
80,8,10,Ticks_ISO_T2_5,44,9999,9999,9999,820076612
80,8,10,Ticks_ISO_T2_5,45,9999,9999,9999,820576380
80,8,10,Ticks_ISO_T2_5,46,9999,9999,9999,821077048
80,8,10,Ticks_ISO_T2_5,47,9999,9999,9999,821576816
80,8,10,Ticks_ISO_T2_5,48,9999,9999,9999,822076516
80,8,10,Ticks_ISO_T2_5,49,9999,9999,9999,822576204
80,8,10,Ticks_ISO_T2_5,50,9999,9999,9999,823076952
80,8,10,Ticks_ISO_T2_5,51,9999,9999,9999,823576648
80,8,10,Ticks_ISO_T2_5,52,9999,9999,9999,824076348
80,8,10,Ticks_ISO_T2_5,53,9999,9999,9999,824576108
80,8,10,Ticks_ISO_T2_5,54,9999,9999,9999,825076856
80,8,10,Ticks_ISO_T2_5,55,9999,9999,9999,825576552
80,8,10,Ticks_ISO_T2_5,56,9999,9999,9999,826076248
80,8,10,Ticks_ISO_T2_5,57,9999,9999,9999,826576988
80,8,10,Ticks_ISO_T2_5,58,9999,9999,9999,827076684
80,8,10,Ticks_ISO_T2_5,59,9999,9999,9999,827576372
80,8,10,Ticks_ISO_T2_5,60,9999,9999,9999,828076148
80,8,10,Ticks_ISO_T2_5,61,9999,9999,9999,828576888
80,8,10,Ticks_ISO_T2_5,62,9999,9999,9999,829076552
80,8,10,Ticks_ISO_T2_5,63,9999,9999,9999,829576252
80,8,10,Ticks_ISO_T2_5,64,9999,9999,9999,830076988
80,8,10,Ticks_ISO_T2_5,65,9999,9999,9999,830576764
80,8,10,Ticks_ISO_T2_5,66,9999,9999,9999,831076456
80,8,10,Ticks_ISO_T2_5,67,9999,9999,9999,831576148
80,8,10,Ticks_ISO_T2_5,68,9999,9999,9999,832076896
80,8,10,Ticks_ISO_T2_5,69,9999,9999,9999,832576584
80,8,10,Ticks_ISO_T2_5,70,9999,9999,9999,833076280
80,8,10,Ticks_ISO_T2_5,71,9999,9999,9999,833577020
80,8,10,Ticks_ISO_T2_5,72,9999,9999,9999,834076788
80,8,10,Ticks_ISO_T2_5,73,9999,9999,9999,834576448
80,8,10,Ticks_ISO_T2_5,74,9999,9999,9999,835076180
80,8,10,Ticks_ISO_T2_5,75,9999,9999,9999,835576928
80,8,10,Ticks_ISO_T2_5,76,9999,9999,9999,836076624
80,8,10,Ticks_ISO_T2_5,77,9999,9999,9999,836576312
80,8,10,Ticks_ISO_T2_5,78,9999,9999,9999,837077060
80,8,10,Ticks_ISO_T2_5,79,9999,9999,9999,837576820
80,8,10,Ticks_ISO_T2_5,80,9999,9999,9999,838076524
80,8,10,Ticks_ISO_T2_5,81,9999,9999,9999,838576212
80,8,10,Ticks_ISO_T2_5,82,9999,9999,9999,839076956
80,8,10,Ticks_ISO_T2_5,83,9999,9999,9999,839576700
80,8,10,Ticks_ISO_T2_5,84,9999,9999,9999,840076372
80,8,10,Ticks_ISO_T2_5,85,9999,9999,9999,840576064
80,8,10,Ticks_ISO_T2_5,86,9999,9999,9999,841076808
80,8,10,Ticks_ISO_T2_5,87,9999,9999,9999,841576504
80,8,10,Ticks_ISO_T2_5,88,9999,9999,9999,842076280
80,8,10,Ticks_ISO_T2_5,89,9999,9999,9999,842577012
80,8,10,Ticks_ISO_T2_5,90,9999,9999,9999,843076708
80,8,10,Ticks_ISO_T2_5,91,9999,9999,9999,843576404
80,8,10,Ticks_ISO_T2_5,92,9999,9999,9999,844076100
80,8,10,Ticks_ISO_T2_5,93,9999,9999,9999,844576840
80,8,10,Ticks_ISO_T2_5,94,9999,9999,9999,845076536
80,8,10,Ticks_ISO_T2_5,95,9999,9999,9999,845576304
80,8,10,Ticks_ISO_T2_5,96,9999,9999,9999,846077048
80,8,10,Ticks_ISO_T2_5,97,9999,9999,9999,846576744
80,8,10,Ticks_ISO_T2_5,98,9999,9999,9999,847076440
80,8,10,Ticks_ISO_T2_5,99,9999,9999,9999,847576136
80,8,10,Ticks_ISO_T2_5,100,9999,9999,9999,848076876
80,8,10,Ticks_ISO_T2_5,101,9999,9999,9999,848576572
80,8,10,Ticks_ISO_T2_5,102,9999,9999,9999,849076340
80,8,10,Ticks_ISO_T2_5,103,9999,9999,9999,849577084
80,8,10,Ticks_ISO_T2_5,104,9999,9999,9999,850076780
80,8,10,Ticks_ISO_T2_5,105,9999,9999,9999,850576448
80,8,10,Ticks_ISO_T2_5,106,9999,9999,9999,851076216
80,8,10,Ticks_ISO_T2_5,107,9999,9999,9999,851576892
80,8,10,Ticks_ISO_T2_5,108,9999,9999,9999,852076608
80,8,10,Ticks_ISO_T2_5,109,9999,9999,9999,852576368
80,8,10,Ticks_ISO_T2_5,110,9999,9999,9999,853077044
80,8,10,Ticks_ISO_T2_5,111,9999,9999,9999,853576812
80,8,10,Ticks_ISO_T2_5,112,9999,9999,9999,854076500
80,8,10,Ticks_ISO_T2_5,113,9999,9999,9999,854576248
80,8,10,Ticks_ISO_T2_5,114,9999,9999,9999,855076988
80,8,10,Ticks_ISO_T2_5,115,9999,9999,9999,855576684
80,8,10,Ticks_ISO_T2_5,116,9999,9999,9999,856076376
80,8,10,Ticks_ISO_T2_5,117,9999,9999,9999,856576096
80,8,10,Ticks_ISO_T2_5,118,9999,9999,9999,857076812
80,8,10,Ticks_ISO_T2_5,119,9999,9999,9999,857576508
80,8,10,Ticks_ISO_T2_5,120,9999,9999,9999,858076280
80,8,10,Ticks_ISO_T2_5,121,9999,9999,9999,858576952
80,8,10,Ticks_ISO_T2_5,122,9999,9999,9999,859076716
80,8,10,Ticks_ISO_T2_5,123,9999,9999,9999,859576372
80,8,10,Ticks_ISO_T2_5,124,9999,9999,9999,860076112
80,8,10,Ticks_ISO_T2_5,125,9999,9999,9999,860576852
80,8,10,Ticks_ISO_T2_5,126,9999,9999,9999,861076596
80,8,10,Ticks_ISO_T2_5,127,9999,9999,9999,861576284
80,8,10,Ticks_ISO_T2_5,128,9999,9999,9999,862077032
80,8,10,Ticks_ISO_T2_5,129,9999,9999,9999,862576720
80,9,22,Ticks_Phase_8,0,5,42,127,873172484
80,9,22,Ticks_Phase_8,1,5,42,127,873972220
80,9,22,Ticks_Phase_8,2,5,42,127,874771804
80,9,22,Ticks_Phase_8,3,5,42,127,875571612
80,9,22,Ticks_Phase_8,4,1,48,51,876349432
80,9,22,Ticks_Phase_8,5,5,42,127,876372680
80,9,22,Ticks_Phase_8,6,1,48,55,877105192
80,9,22,Ticks_Phase_8,7,5,42,127,877172020
80,9,22,Ticks_Phase_8,8,1,48,54,877904080
80,9,22,Ticks_Phase_8,9,5,42,127,877971808
80,9,22,Ticks_Phase_8,10,1,48,50,878714052
80,9,22,Ticks_Phase_8,11,5,42,127,878771620
80,9,22,Ticks_Phase_8,12,1,48,49,879521808
80,9,22,Ticks_Phase_8,13,5,42,127,879572600
80,9,22,Ticks_Phase_8,14,1,48,57,880324956
80,9,22,Ticks_Phase_8,15,5,42,127,880372016
80,9,22,Ticks_Phase_8,16,1,48,52,881120480
80,9,22,Ticks_Phase_8,17,5,42,127,881171876
80,9,22,Ticks_Phase_8,18,1,48,51,881949308
80,9,22,Ticks_Phase_8,19,5,42,127,881971512
80,9,22,Ticks_Phase_8,20,1,48,57,882753368
80,9,22,Ticks_Phase_8,21,5,42,127,882772420
80,9,22,Ticks_Phase_8,22,1,48,62,883539220
80,9,22,Ticks_Phase_8,23,5,42,127,883572352
80,9,22,Ticks_Phase_8,24,1,48,48,884371700
80,9,22,Ticks_Phase_8,25,5,42,127,884373112
80,9,22,Ticks_Phase_8,26,1,48,54,885156716
80,9,22,Ticks_Phase_8,27,5,42,127,885171504
80,9,22,Ticks_Phase_8,28,1,48,61,885919508
80,9,22,Ticks_Phase_8,29,5,42,127,885972264
80,9,22,Ticks_Phase_8,30,1,48,62,886729480
80,9,22,Ticks_Phase_8,31,5,42,127,886772348
80,9,22,Ticks_Phase_8,32,1,48,55,887494748
80,9,22,Ticks_Phase_8,33,5,42,127,887571688
80,9,22,Ticks_Phase_8,34,1,48,51,888303824
80,9,22,Ticks_Phase_8,35,5,42,127,888371548
80,9,22,Ticks_Phase_8,36,5,42,127,889172312
80,9,22,Ticks_Phase_8,37,1,48,62,889179632
80,9,22,Ticks_Phase_8,38,5,42,127,889972172
80,9,22,Ticks_Phase_8,39,1,48,61,889973136
80,9,22,Ticks_Phase_8,40,1,48,63,890759352
80,9,22,Ticks_Phase_8,41,5,42,127,890772248
80,9,22,Ticks_Phase_8,42,1,48,54,891554060
80,9,22,Ticks_Phase_8,43,5,42,127,891571612
80,9,22,Ticks_Phase_8,44,1,48,53,892320152
80,9,22,Ticks_Phase_8,45,5,42,127,892372224
80,9,22,Ticks_Phase_8,46,1,48,25,893152664
80,9,22,Ticks_Phase_8,47,5,42,127,893172084
80,9,22,Ticks_Phase_8,48,1,48,41,893953124
80,9,22,Ticks_Phase_8,49,5,42,127,893971868
80,9,22,Ticks_Phase_8,50,1,48,48,894711420
80,9,22,Ticks_Phase_8,51,5,42,127,894771508
80,9,22,Ticks_Phase_8,52,1,48,47,895513300
80,9,22,Ticks_Phase_8,53,5,42,127,895572268
80,9,22,Ticks_Phase_8,54,1,48,50,896307320
80,9,22,Ticks_Phase_8,55,5,42,127,896372052
80,9,22,Ticks_Phase_8,56,1,48,21,897148144
80,9,22,Ticks_Phase_8,57,5,42,127,897152368
80,9,22,Ticks_Phase_8,58,5,42,127,897952036
80,9,22,Ticks_Phase_8,59,1,48,41,897956128
80,9,22,Ticks_Phase_8,60,1,48,57,898713492
80,9,22,Ticks_Phase_8,61,5,42,127,898751940
80,9,22,Ticks_Phase_8,62,1,48,54,899493732
80,9,22,Ticks_Phase_8,63,5,42,127,899551728
80,9,22,Ticks_Phase_8,64,1,48,60,900269712
80,9,22,Ticks_Phase_8,65,5,42,127,900352264
80,9,22,Ticks_Phase_8,66,1,48,51,901091368
80,9,22,Ticks_Phase_8,67,5,42,127,901152348
80,9,22,Ticks_Phase_8,68,1,48,52,901870860
80,9,22,Ticks_Phase_8,69,5,42,127,901951984
80,9,22,Ticks_Phase_8,70,1,48,50,902678048
80,9,22,Ticks_Phase_8,71,5,42,127,902751548
80,9,22,Ticks_Phase_8,72,1,48,55,903479496
80,9,22,Ticks_Phase_8,73,5,42,127,903552304
80,9,22,Ticks_Phase_8,74,1,48,61,904309368
80,9,22,Ticks_Phase_8,75,5,42,127,904352192
80,9,22,Ticks_Phase_8,76,1,48,60,905146404
80,9,22,Ticks_Phase_8,77,5,42,127,905151828
80,9,22,Ticks_Phase_8,78,1,48,53,905842004
80,9,22,Ticks_Phase_8,79,5,42,127,905951452
80,9,22,Ticks_Phase_8,80,1,48,54,906749716
80,9,22,Ticks_Phase_8,81,5,42,127,906752300
80,9,22,Ticks_Phase_8,82,5,42,127,907552092
80,9,22,Ticks_Phase_8,83,1,48,52,907563152
80,9,22,Ticks_Phase_8,84,5,42,127,908352176
80,9,22,Ticks_Phase_8,85,1,48,55,908377240
80,9,22,Ticks_Phase_8,86,1,48,45,909135076
80,9,22,Ticks_Phase_8,87,5,42,127,909151584
80,9,22,Ticks_Phase_8,88,1,48,51,909834736
80,9,22,Ticks_Phase_8,89,5,42,127,909952400
80,9,22,Ticks_Phase_8,90,1,48,46,910697952
80,9,22,Ticks_Phase_8,91,5,42,127,910752004
80,9,22,Ticks_Phase_8,92,1,48,47,911503808
80,9,22,Ticks_Phase_8,93,5,42,127,911572380
80,9,22,Ticks_Phase_8,94,1,48,55,912333644
80,9,22,Ticks_Phase_8,95,5,42,127,912372168
80,9,22,Ticks_Phase_8,96,1,48,51,913130220
80,9,22,Ticks_Phase_8,97,5,42,127,913171956
80,9,22,Ticks_Phase_8,98,1,48,44,913928572
80,9,22,Ticks_Phase_8,99,5,42,127,913971520
80,9,22,Ticks_Phase_8,100,1,48,48,914757644
80,9,22,Ticks_Phase_8,101,5,42,127,914772428
80,9,22,Ticks_Phase_8,102,1,48,40,915559908
80,9,22,Ticks_Phase_8,103,5,42,127,915572064
80,9,22,Ticks_Phase_8,104,5,42,127,916371932
80,9,22,Ticks_Phase_8,105,1,48,46,916389744
80,9,22,Ticks_Phase_8,106,5,42,127,917171668
80,9,22,Ticks_Phase_8,107,1,48,53,917195380
80,9,22,Ticks_Phase_8,108,1,48,46,917912160
80,9,22,Ticks_Phase_8,109,1,48,27,917972900
80,9,22,Ticks_Phase_8,110,5,42,127,917974020
80,9,22,Ticks_Phase_8,111,1,48,48,918739844
80,9,22,Ticks_Phase_8,112,5,42,127,918772012
80,9,22,Ticks_Phase_8,113,1,48,43,919519504
80,9,22,Ticks_Phase_8,114,5,42,127,919572020
80,9,22,Ticks_Phase_8,115,1,48,41,920300792
80,9,22,Ticks_Phase_8,116,5,42,127,920371808
80,9,22,Ticks_Phase_8,117,5,42,127,921172200
80,9,22,Ticks_Phase_8,118,1,48,53,921215084
80,9,22,Ticks_Phase_8,119,5,42,127,921971984
80,9,22,Ticks_Phase_8,120,1,48,51,921994576
80,9,22,Ticks_Phase_8,121,1,48,51,922748664
80,9,22,Ticks_Phase_8,122,5,42,127,922771840
80,9,22,Ticks_Phase_8,123,1,48,50,923530784
80,9,22,Ticks_Phase_8,124,5,42,127,923571796
80,9,22,Ticks_Phase_8,125,1,48,47,924323552
80,9,22,Ticks_Phase_8,126,5,42,127,924412252
80,9,22,Ticks_Phase_8,127,1,48,51,925171124
80,9,22,Ticks_Phase_8,128,5,42,127,925211964
80,9,22,Ticks_Phase_8,129,1,48,58,925985880
80,9,22,Ticks_Phase_8,130,5,42,127,926011824
80,9,22,Ticks_Phase_8,131,5,42,127,926811616
80,9,22,Ticks_Phase_8,132,1,48,55,926821104
80,9,22,Ticks_Phase_8,133,5,42,127,927612524
80,9,22,Ticks_Phase_8,134,1,48,60,927638180
80,9,22,Ticks_Phase_8,135,5,42,127,928412036
80,9,22,Ticks_Phase_8,136,1,48,55,928460244
80,9,22,Ticks_Phase_8,137,5,42,127,929211748
80,9,22,Ticks_Phase_8,138,1,48,56,929235680
80,9,22,Ticks_Phase_8,139,5,42,127,930011608
80,9,22,Ticks_Phase_8,140,1,48,58,930014948
80,9,22,Ticks_Phase_8,141,5,42,127,930812440
80,9,22,Ticks_Phase_8,142,1,48,63,930922656
80,9,22,Ticks_Phase_8,143,5,42,127,931612004
80,9,22,Ticks_Phase_8,144,1,48,50,931624184
80,9,22,Ticks_Phase_8,145,1,48,51,932401044
80,9,22,Ticks_Phase_8,146,5,42,127,932411780
80,9,22,Ticks_Phase_8,147,1,48,54,933167352
80,9,22,Ticks_Phase_8,148,5,42,127,933211492
80,9,22,Ticks_Phase_8,149,1,48,42,933931496
80,9,22,Ticks_Phase_8,150,5,42,127,934012472
80,9,22,Ticks_Phase_8,151,1,48,50,934714656
80,9,22,Ticks_Phase_8,152,5,42,127,934811972
80,9,22,Ticks_Phase_8,153,1,48,58,935479848
80,9,22,Ticks_Phase_8,154,5,42,127,935611612
80,9,22,Ticks_Phase_8,155,1,48,54,936262408
80,9,22,Ticks_Phase_8,156,5,42,127,936411472
80,9,22,Ticks_Phase_8,157,1,48,53,937197532
80,9,22,Ticks_Phase_8,158,5,42,127,937212244
80,9,22,Ticks_Phase_8,159,5,42,127,937972200
80,9,22,Ticks_Phase_8,160,1,48,51,938045712
80,9,22,Ticks_Phase_8,161,5,42,127,938771764
80,9,22,Ticks_Phase_8,162,1,48,55,938812556
80,9,22,Ticks_Phase_8,163,5,42,127,939571548
80,9,22,Ticks_Phase_8,164,1,48,51,939638764
80,9,22,Ticks_Phase_8,165,5,42,127,940372456
80,9,22,Ticks_Phase_8,166,1,48,52,940421564
80,9,22,Ticks_Phase_8,167,5,42,127,941172244
80,9,22,Ticks_Phase_8,168,1,48,55,941186968
80,9,22,Ticks_Phase_8,169,1,48,58,941953944
80,9,22,Ticks_Phase_8,170,5,42,127,941971800
80,9,22,Ticks_Phase_8,171,5,42,127,942771468
80,9,22,Ticks_Phase_8,172,1,48,40,942797276
80,9,22,Ticks_Phase_8,173,1,48,63,943521948
80,9,22,Ticks_Phase_8,174,5,42,127,943572368
80,9,22,Ticks_Phase_8,175,1,48,54,944264636
80,9,22,Ticks_Phase_8,176,5,42,127,944372364
80,9,22,Ticks_Phase_8,177,1,48,48,945093280
80,9,22,Ticks_Phase_8,178,5,42,127,945171720
80,9,22,Ticks_Phase_8,179,1,48,44,945884680
80,9,22,Ticks_Phase_8,180,5,42,127,945971652
80,9,22,Ticks_Phase_8,181,1,48,50,946692032
80,9,22,Ticks_Phase_8,182,5,42,127,946772336
80,9,22,Ticks_Phase_8,183,1,48,57,947461040
80,9,22,Ticks_Phase_8,184,5,42,127,947572332
80,9,22,Ticks_Phase_8,185,1,48,49,948304256
80,9,22,Ticks_Phase_8,186,5,42,127,948371688
80,9,22,Ticks_Phase_8,187,1,48,53,949141568
80,9,22,Ticks_Phase_8,188,5,42,127,949171496
80,9,22,Ticks_Phase_8,189,1,48,60,949914112
80,9,22,Ticks_Phase_8,190,5,42,127,949972332
80,9,22,Ticks_Phase_8,191,5,42,127,950692220
80,9,22,Ticks_Phase_8,192,1,48,57,950749564
80,9,22,Ticks_Phase_8,193,5,42,127,951492080
80,9,22,Ticks_Phase_8,194,1,48,56,951527248
80,9,22,Ticks_Phase_8,195,1,48,54,952284116
80,9,22,Ticks_Phase_8,196,5,42,127,952291784
80,9,22,Ticks_Phase_8,197,1,48,54,953063612
80,9,22,Ticks_Phase_8,198,5,42,127,953091424
80,9,22,Ticks_Phase_8,199,1,48,50,953841380
80,9,22,Ticks_Phase_8,200,5,42,127,953892184
80,9,22,Ticks_Phase_8,201,1,48,51,954648572
80,9,22,Ticks_Phase_8,202,5,42,127,954692044
80,9,22,Ticks_Phase_8,203,1,48,45,955415340
80,9,22,Ticks_Phase_8,204,5,42,127,955491832
80,9,22,Ticks_Phase_8,205,1,48,56,956224264
80,9,22,Ticks_Phase_8,206,5,42,127,956291320
80,9,22,Ticks_Phase_8,207,1,48,55,957023076
80,9,22,Ticks_Phase_8,208,5,42,127,957092104
80,9,22,Ticks_Phase_8,209,1,48,59,957819040
80,9,22,Ticks_Phase_8,210,5,42,127,957892188
80,9,22,Ticks_Phase_8,211,1,48,60,958653304
80,9,22,Ticks_Phase_8,212,5,42,127,958691676
80,9,22,Ticks_Phase_8,213,1,48,65,959402544
80,9,22,Ticks_Phase_8,214,5,42,127,959491464
80,9,22,Ticks_Phase_8,215,1,48,53,960263736
80,9,22,Ticks_Phase_8,216,5,42,127,960292224
80,9,22,Ticks_Phase_8,217,5,42,127,961092092
80,9,22,Ticks_Phase_8,218,1,48,52,961098500
80,9,22,Ticks_Phase_8,219,5,42,127,961891876
80,9,22,Ticks_Phase_8,220,1,48,53,961904956
80,9,22,Ticks_Phase_8,221,1,48,51,962676344
80,9,22,Ticks_Phase_8,222,5,42,127,962691652
80,9,22,Ticks_Phase_8,223,1,48,54,963460636
80,9,22,Ticks_Phase_8,224,5,42,127,963492064
80,9,22,Ticks_Phase_8,225,1,48,52,964274448
80,9,22,Ticks_Phase_8,226,5,42,127,964372936
80,9,22,Ticks_Phase_8,227,1,48,46,965135420
80,9,22,Ticks_Phase_8,228,5,42,127,965171692
80,9,22,Ticks_Phase_8,229,5,42,127,965972308
80,9,22,Ticks_Phase_8,230,1,48,45,966008152
80,9,22,Ticks_Phase_8,231,5,42,127,966772096
80,9,22,Ticks_Phase_8,232,1,48,46,966816720
80,9,22,Ticks_Phase_8,233,5,42,127,967571732
80,9,22,Ticks_Phase_8,234,1,48,45,967618056
80,9,22,Ticks_Phase_8,235,5,42,127,968371740
80,9,22,Ticks_Phase_8,236,1,48,34,968394932
80,9,22,Ticks_Phase_8,237,5,42,127,969172352
80,9,22,Ticks_Phase_8,238,1,48,43,969179452
80,9,22,Ticks_Phase_8,239,1,48,45,969962072
80,9,22,Ticks_Phase_8,240,5,42,127,969972132
80,9,22,Ticks_Phase_8,241,1,48,45,970766044
80,9,22,Ticks_Phase_8,242,5,42,127,970771772
80,9,22,Ticks_Phase_8,243,1,48,40,971527344
80,9,22,Ticks_Phase_8,244,5,42,127,971571704
80,9,22,Ticks_Phase_8,245,1,48,46,972343156
80,9,22,Ticks_Phase_8,246,5,42,127,972372316
80,9,22,Ticks_Phase_8,247,1,48,45,973100116
80,9,22,Ticks_Phase_8,248,5,42,127,973172104
80,9,22,Ticks_Phase_8,249,1,48,56,973946996
80,9,22,Ticks_Phase_8,250,5,42,127,973971888
80,9,22,Ticks_Phase_8,251,1,48,55,974756168
80,9,22,Ticks_Phase_8,252,5,42,127,974771700
80,9,22,Ticks_Phase_8,253,1,48,51,975539252
80,9,22,Ticks_Phase_8,254,5,42,127,975572532
80,9,22,Ticks_Phase_8,255,1,48,54,976340248
80,9,22,Ticks_Phase_8,256,5,42,127,976372020
80,9,22,Ticks_Phase_8,257,1,48,48,977118152
80,9,22,Ticks_Phase_8,258,5,42,127,977171808
80,9,22,Ticks_Phase_8,259,1,48,48,977951644
80,9,22,Ticks_Phase_8,260,5,42,127,978132536
80,9,22,Ticks_Phase_8,261,5,42,127,978932124
80,9,22,Ticks_Phase_8,262,1,48,50,978954860
80,9,22,Ticks_Phase_8,263,5,42,127,979731760
80,9,22,Ticks_Phase_8,264,1,48,54,979765956
80,9,22,Ticks_Phase_8,265,5,42,127,980531548
80,9,22,Ticks_Phase_8,266,1,48,46,980585812
80,9,22,Ticks_Phase_8,267,5,42,127,981332528
80,9,22,Ticks_Phase_8,268,1,48,51,981374068
80,9,22,Ticks_Phase_8,269,1,48,54,982113412
80,9,22,Ticks_Phase_8,270,5,42,127,982132012
80,9,22,Ticks_Phase_8,271,5,42,127,982931804
80,9,22,Ticks_Phase_8,272,1,48,52,982946176
80,9,22,Ticks_Phase_8,273,5,42,127,983731612
80,9,22,Ticks_Phase_8,274,1,48,49,983765064
80,9,22,Ticks_Phase_8,275,5,42,127,984532596
80,9,22,Ticks_Phase_8,276,1,48,51,984582672
80,9,22,Ticks_Phase_8,277,1,48,51,985301572
80,9,22,Ticks_Phase_8,278,5,42,127,985332000
80,9,22,Ticks_Phase_8,279,1,48,49,986074016
80,9,22,Ticks_Phase_8,280,5,42,127,986131788
80,9,22,Ticks_Phase_8,281,1,48,44,986895144
80,9,22,Ticks_Phase_8,282,5,42,127,986931648
80,9,22,Ticks_Phase_8,283,1,48,45,987718072
80,9,22,Ticks_Phase_8,284,5,42,127,987732332
80,9,22,Ticks_Phase_8,285,1,48,50,988527144
80,9,22,Ticks_Phase_8,286,5,42,127,988532120
80,9,22,Ticks_Phase_8,287,5,42,127,989331764
80,9,22,Ticks_Phase_8,288,1,48,44,989332728
80,9,22,Ticks_Phase_8,289,1,48,42,990078760
80,9,22,Ticks_Phase_8,290,5,42,127,990131544
80,9,22,Ticks_Phase_8,291,1,48,33,990920968
80,9,22,Ticks_Phase_8,292,5,42,127,990932300
80,9,22,Ticks_Phase_8,293,1,48,48,991685176
80,9,22,Ticks_Phase_8,294,5,42,127,991732384
80,9,22,Ticks_Phase_8,295,1,48,45,992504360
80,9,22,Ticks_Phase_8,296,5,42,127,992532024
80,9,22,Ticks_Phase_8,297,5,42,127,993171760
80,9,22,Ticks_Phase_8,298,1,48,48,993260808
80,9,22,Ticks_Phase_8,299,5,42,127,993971496
80,9,22,Ticks_Phase_8,300,1,48,43,993998128
80,9,22,Ticks_Phase_8,301,1,48,47,994753424
80,9,22,Ticks_Phase_8,302,5,42,127,994772252
80,9,22,Ticks_Phase_8,303,5,42,127,995572192
80,9,22,Ticks_Phase_8,304,1,48,55,995573604
80,9,22,Ticks_Phase_8,305,1,48,45,996271228
80,9,22,Ticks_Phase_8,306,5,42,127,996371808
80,9,22,Ticks_Phase_8,307,1,48,52,997086204
80,9,22,Ticks_Phase_8,308,5,42,127,997171612
80,9,22,Ticks_Phase_8,309,1,48,56,997923440
80,9,22,Ticks_Phase_8,310,5,42,127,997972296
80,9,22,Ticks_Phase_8,311,1,48,56,998730416
80,9,22,Ticks_Phase_8,312,5,42,127,998772080
80,9,22,Ticks_Phase_8,313,5,42,127,999571948
80,9,22,Ticks_Phase_8,314,1,48,60,999573960
80,9,22,Ticks_Phase_8,315,5,42,127,1000371436
80,9,22,Ticks_Phase_8,316,1,48,50,1000387808
80,9,22,Ticks_Phase_8,317,5,42,127,1001172268
80,9,22,Ticks_Phase_8,318,1,48,42,1001200708
80,9,22,Ticks_Phase_8,319,5,42,127,1001972056
80,9,22,Ticks_Phase_8,320,1,48,54,1001984088
80,9,22,Ticks_Phase_8,321,5,42,127,1002771768
80,9,22,Ticks_Phase_8,322,1,48,54,1002782376
80,9,22,Ticks_Phase_8,323,1,48,58,1003551824
80,9,22,Ticks_Phase_8,324,5,42,127,1003571472
80,9,22,Ticks_Phase_8,325,1,48,56,1004348532
80,9,22,Ticks_Phase_8,326,5,42,127,1004372304
80,9,22,Ticks_Phase_8,327,1,48,55,1005139108
80,9,22,Ticks_Phase_8,328,5,42,127,1005172240
80,9,22,Ticks_Phase_8,329,1,48,48,1005932832
80,9,22,Ticks_Phase_8,330,5,42,127,1005972124
80,9,22,Ticks_Phase_8,331,1,48,48,1006726624
80,9,22,Ticks_Phase_8,332,5,42,127,1006771612
80,9,22,Ticks_Phase_8,333,1,48,59,1007521420
80,9,22,Ticks_Phase_8,334,5,42,127,1007572368
80,9,22,Ticks_Phase_8,335,1,48,54,1008323300
80,9,22,Ticks_Phase_8,336,5,42,127,1008372156
80,9,22,Ticks_Phase_8,0,9999,9999,9999,873169976
80,9,22,Ticks_Phase_8,1,9999,9999,9999,873969784
80,9,22,Ticks_Phase_8,2,9999,9999,9999,874769516
80,9,22,Ticks_Phase_8,3,9999,9999,9999,875569248
80,9,22,Ticks_Phase_8,4,9999,9999,9999,876370024
80,9,22,Ticks_Phase_8,5,9999,9999,9999,877169736
80,9,22,Ticks_Phase_8,6,9999,9999,9999,877969520
80,9,22,Ticks_Phase_8,7,9999,9999,9999,878769260
80,9,22,Ticks_Phase_8,8,9999,9999,9999,879570016
80,9,22,Ticks_Phase_8,9,9999,9999,9999,880369728
80,9,22,Ticks_Phase_8,10,9999,9999,9999,881169516
80,9,22,Ticks_Phase_8,11,9999,9999,9999,881969224
80,9,22,Ticks_Phase_8,12,9999,9999,9999,882769984
80,9,22,Ticks_Phase_8,13,9999,9999,9999,883569768
80,9,22,Ticks_Phase_8,14,9999,9999,9999,884369488
80,9,22,Ticks_Phase_8,15,9999,9999,9999,885169220
80,9,22,Ticks_Phase_8,16,9999,9999,9999,885969980
80,9,22,Ticks_Phase_8,17,9999,9999,9999,886769764
80,9,22,Ticks_Phase_8,18,9999,9999,9999,887569476
80,9,22,Ticks_Phase_8,19,9999,9999,9999,888369264
80,9,22,Ticks_Phase_8,20,9999,9999,9999,889170028
80,9,22,Ticks_Phase_8,21,9999,9999,9999,889969736
80,9,22,Ticks_Phase_8,22,9999,9999,9999,890769516
80,9,22,Ticks_Phase_8,23,9999,9999,9999,891569252
80,9,22,Ticks_Phase_8,24,9999,9999,9999,892370012
80,9,22,Ticks_Phase_8,25,9999,9999,9999,893169724
80,9,22,Ticks_Phase_8,26,9999,9999,9999,893969508
80,9,22,Ticks_Phase_8,27,9999,9999,9999,894769220
80,9,22,Ticks_Phase_8,28,9999,9999,9999,895569980
80,9,22,Ticks_Phase_8,29,9999,9999,9999,896369764
80,9,22,Ticks_Phase_8,30,9999,9999,9999,897150008
80,9,22,Ticks_Phase_8,31,9999,9999,9999,897949752
80,9,22,Ticks_Phase_8,32,9999,9999,9999,898749508
80,9,22,Ticks_Phase_8,33,9999,9999,9999,899549292
80,9,22,Ticks_Phase_8,34,9999,9999,9999,900350052
80,9,22,Ticks_Phase_8,35,9999,9999,9999,901149764
80,9,22,Ticks_Phase_8,36,9999,9999,9999,901949548
80,9,22,Ticks_Phase_8,37,9999,9999,9999,902749260
80,9,22,Ticks_Phase_8,38,9999,9999,9999,903550020
80,9,22,Ticks_Phase_8,39,9999,9999,9999,904349756
80,9,22,Ticks_Phase_8,40,9999,9999,9999,905149544
80,9,22,Ticks_Phase_8,41,9999,9999,9999,905949236
80,9,22,Ticks_Phase_8,42,9999,9999,9999,906750012
80,9,22,Ticks_Phase_8,43,9999,9999,9999,907549804
80,9,22,Ticks_Phase_8,44,9999,9999,9999,908349516
80,9,22,Ticks_Phase_8,45,9999,9999,9999,909149296
80,9,22,Ticks_Phase_8,46,9999,9999,9999,909950040
80,9,22,Ticks_Phase_8,47,9999,9999,9999,910749792
80,9,22,Ticks_Phase_8,48,9999,9999,9999,911570020
80,9,22,Ticks_Phase_8,49,9999,9999,9999,912369732
80,9,22,Ticks_Phase_8,50,9999,9999,9999,913169520
80,9,22,Ticks_Phase_8,51,9999,9999,9999,913969232
80,9,22,Ticks_Phase_8,52,9999,9999,9999,914769992
80,9,22,Ticks_Phase_8,53,9999,9999,9999,915569776
80,9,22,Ticks_Phase_8,54,9999,9999,9999,916369496
80,9,22,Ticks_Phase_8,55,9999,9999,9999,917169232
80,9,22,Ticks_Phase_8,56,9999,9999,9999,917970036
80,9,22,Ticks_Phase_8,57,9999,9999,9999,918769724
80,9,22,Ticks_Phase_8,58,9999,9999,9999,919569508
80,9,22,Ticks_Phase_8,59,9999,9999,9999,920369224
80,9,22,Ticks_Phase_8,60,9999,9999,9999,921169988
80,9,22,Ticks_Phase_8,61,9999,9999,9999,921969772
80,9,22,Ticks_Phase_8,62,9999,9999,9999,922769480
80,9,22,Ticks_Phase_8,63,9999,9999,9999,923569212
80,9,22,Ticks_Phase_8,64,9999,9999,9999,924409964
80,9,22,Ticks_Phase_8,65,9999,9999,9999,925209676
80,9,22,Ticks_Phase_8,66,9999,9999,9999,926009460
80,9,22,Ticks_Phase_8,67,9999,9999,9999,926809180
80,9,22,Ticks_Phase_8,68,9999,9999,9999,927609940
80,9,22,Ticks_Phase_8,69,9999,9999,9999,928409676
80,9,22,Ticks_Phase_8,70,9999,9999,9999,929209460
80,9,22,Ticks_Phase_8,71,9999,9999,9999,930009172
80,9,22,Ticks_Phase_8,72,9999,9999,9999,930809932
80,9,22,Ticks_Phase_8,73,9999,9999,9999,931609716
80,9,22,Ticks_Phase_8,74,9999,9999,9999,932409420
80,9,22,Ticks_Phase_8,75,9999,9999,9999,933209208
80,9,22,Ticks_Phase_8,76,9999,9999,9999,934009964
80,9,22,Ticks_Phase_8,77,9999,9999,9999,934809688
80,9,22,Ticks_Phase_8,78,9999,9999,9999,935609400
80,9,22,Ticks_Phase_8,79,9999,9999,9999,936409184
80,9,22,Ticks_Phase_8,80,9999,9999,9999,937209960
80,9,22,Ticks_Phase_8,81,9999,9999,9999,937969764
80,9,22,Ticks_Phase_8,82,9999,9999,9999,938769476
80,9,22,Ticks_Phase_8,83,9999,9999,9999,939569260
80,9,22,Ticks_Phase_8,84,9999,9999,9999,940370024
80,9,22,Ticks_Phase_8,85,9999,9999,9999,941169736
80,9,22,Ticks_Phase_8,86,9999,9999,9999,941969512
80,9,22,Ticks_Phase_8,87,9999,9999,9999,942769256
80,9,22,Ticks_Phase_8,88,9999,9999,9999,943570008
80,9,22,Ticks_Phase_8,89,9999,9999,9999,944369780
80,9,22,Ticks_Phase_8,90,9999,9999,9999,945169508
80,9,22,Ticks_Phase_8,91,9999,9999,9999,945969216
80,9,22,Ticks_Phase_8,92,9999,9999,9999,946769976
80,9,22,Ticks_Phase_8,93,9999,9999,9999,947569748
80,9,22,Ticks_Phase_8,94,9999,9999,9999,948369476
80,9,22,Ticks_Phase_8,95,9999,9999,9999,949169212
80,9,22,Ticks_Phase_8,96,9999,9999,9999,949970044
80,9,22,Ticks_Phase_8,97,9999,9999,9999,950689856
80,9,22,Ticks_Phase_8,98,9999,9999,9999,951489644
80,9,22,Ticks_Phase_8,99,9999,9999,9999,952289352
80,9,22,Ticks_Phase_8,100,9999,9999,9999,953089136
80,9,22,Ticks_Phase_8,101,9999,9999,9999,953889896
80,9,22,Ticks_Phase_8,102,9999,9999,9999,954689608
80,9,22,Ticks_Phase_8,103,9999,9999,9999,955489396
80,9,22,Ticks_Phase_8,104,9999,9999,9999,956289108
80,9,22,Ticks_Phase_8,105,9999,9999,9999,957089892
80,9,22,Ticks_Phase_8,106,9999,9999,9999,957889604
80,9,22,Ticks_Phase_8,107,9999,9999,9999,958689392
80,9,22,Ticks_Phase_8,108,9999,9999,9999,959489104
80,9,22,Ticks_Phase_8,109,9999,9999,9999,960289860
80,9,22,Ticks_Phase_8,110,9999,9999,9999,961089656
80,9,22,Ticks_Phase_8,111,9999,9999,9999,961889364
80,9,22,Ticks_Phase_8,112,9999,9999,9999,962689144
80,9,22,Ticks_Phase_8,113,9999,9999,9999,963489852
80,9,22,Ticks_Phase_8,114,9999,9999,9999,964369468
80,9,22,Ticks_Phase_8,115,9999,9999,9999,965169260
80,9,22,Ticks_Phase_8,116,9999,9999,9999,965970020
80,9,22,Ticks_Phase_8,117,9999,9999,9999,966769732
80,9,22,Ticks_Phase_8,118,9999,9999,9999,967569520
80,9,22,Ticks_Phase_8,119,9999,9999,9999,968369232
80,9,22,Ticks_Phase_8,120,9999,9999,9999,969169992
80,9,22,Ticks_Phase_8,121,9999,9999,9999,969969772
80,9,22,Ticks_Phase_8,122,9999,9999,9999,970769484
80,9,22,Ticks_Phase_8,123,9999,9999,9999,971569272
80,9,22,Ticks_Phase_8,124,9999,9999,9999,972370028
80,9,22,Ticks_Phase_8,125,9999,9999,9999,973169744
80,9,22,Ticks_Phase_8,126,9999,9999,9999,973969528
80,9,22,Ticks_Phase_8,127,9999,9999,9999,974769264
80,9,22,Ticks_Phase_8,128,9999,9999,9999,975570024
80,9,22,Ticks_Phase_8,129,9999,9999,9999,976369736
80,9,22,Ticks_Phase_8,130,9999,9999,9999,977169524
80,9,22,Ticks_Phase_8,131,9999,9999,9999,978130028
80,9,22,Ticks_Phase_8,132,9999,9999,9999,978929760
80,9,22,Ticks_Phase_8,133,9999,9999,9999,979729476
80,9,22,Ticks_Phase_8,134,9999,9999,9999,980529260
80,9,22,Ticks_Phase_8,135,9999,9999,9999,981330020
80,9,22,Ticks_Phase_8,136,9999,9999,9999,982129724
80,9,22,Ticks_Phase_8,137,9999,9999,9999,982929516
80,9,22,Ticks_Phase_8,138,9999,9999,9999,983729252
80,9,22,Ticks_Phase_8,139,9999,9999,9999,984530012
80,9,22,Ticks_Phase_8,140,9999,9999,9999,985329788
80,9,22,Ticks_Phase_8,141,9999,9999,9999,986129504
80,9,22,Ticks_Phase_8,142,9999,9999,9999,986929212
80,9,22,Ticks_Phase_8,143,9999,9999,9999,987730048
80,9,22,Ticks_Phase_8,144,9999,9999,9999,988529756
80,9,22,Ticks_Phase_8,145,9999,9999,9999,989329476
80,9,22,Ticks_Phase_8,146,9999,9999,9999,990129256
80,9,22,Ticks_Phase_8,147,9999,9999,9999,990930016
80,9,22,Ticks_Phase_8,148,9999,9999,9999,991729728
80,9,22,Ticks_Phase_8,149,9999,9999,9999,992529512
80,9,22,Ticks_Phase_8,150,9999,9999,9999,993169472
80,9,22,Ticks_Phase_8,151,9999,9999,9999,993969212
80,9,22,Ticks_Phase_8,152,9999,9999,9999,994770040
80,9,22,Ticks_Phase_8,153,9999,9999,9999,995569756
80,9,22,Ticks_Phase_8,154,9999,9999,9999,996369520
80,9,22,Ticks_Phase_8,155,9999,9999,9999,997169248
80,9,22,Ticks_Phase_8,156,9999,9999,9999,997970008
80,9,22,Ticks_Phase_8,157,9999,9999,9999,998769720
80,9,22,Ticks_Phase_8,158,9999,9999,9999,999569512
80,9,22,Ticks_Phase_8,159,9999,9999,9999,1000369224
80,9,22,Ticks_Phase_8,160,9999,9999,9999,1001169984
80,9,22,Ticks_Phase_8,161,9999,9999,9999,1001969768
80,9,22,Ticks_Phase_8,162,9999,9999,9999,1002769480
80,9,22,Ticks_Phase_8,163,9999,9999,9999,1003569260
80,9,22,Ticks_Phase_8,164,9999,9999,9999,1004370016
80,9,22,Ticks_Phase_8,165,9999,9999,9999,1005169728
80,9,22,Ticks_Phase_8,166,9999,9999,9999,1005969516
80,9,22,Ticks_Phase_8,167,9999,9999,9999,1006769252
80,9,22,Ticks_Phase_8,168,9999,9999,9999,1007570008
80,9,22,Ticks_Phase_8,169,9999,9999,9999,1008369720
80,10,23,Ticks_Phase_5,0,5,42,127,1018304840
80,10,23,Ticks_Phase_5,1,5,42,127,1018804696
80,10,23,Ticks_Phase_5,2,5,42,127,1019305304
80,10,23,Ticks_Phase_5,3,5,42,127,1019805016
80,10,23,Ticks_Phase_5,4,5,42,127,1020304848
80,10,23,Ticks_Phase_5,5,1,48,57,1020319720
80,10,23,Ticks_Phase_5,6,5,42,127,1020804436
80,10,23,Ticks_Phase_5,7,1,48,58,1020816240
80,10,23,Ticks_Phase_5,8,5,42,127,1021305320
80,10,23,Ticks_Phase_5,9,1,48,57,1021332888
80,10,23,Ticks_Phase_5,10,5,42,127,1021804860
80,10,23,Ticks_Phase_5,11,1,48,56,1021834868
80,10,23,Ticks_Phase_5,12,5,42,127,1022304772
80,10,23,Ticks_Phase_5,13,1,48,57,1022344064
80,10,23,Ticks_Phase_5,14,5,42,127,1022805432
80,10,23,Ticks_Phase_5,15,1,48,59,1022853640
80,10,23,Ticks_Phase_5,16,5,42,127,1023305044
80,10,23,Ticks_Phase_5,17,1,48,57,1023323300
80,10,23,Ticks_Phase_5,18,5,42,127,1023804880
80,10,23,Ticks_Phase_5,19,1,48,61,1023832572
80,10,23,Ticks_Phase_5,20,5,42,127,1024304420
80,10,23,Ticks_Phase_5,21,1,48,59,1024338244
80,10,23,Ticks_Phase_5,22,5,42,127,1024805228
80,10,23,Ticks_Phase_5,23,1,48,57,1024849012
80,10,23,Ticks_Phase_5,24,5,42,127,1025304916
80,10,23,Ticks_Phase_5,25,1,48,58,1025311252
80,10,23,Ticks_Phase_5,26,1,48,55,1025792740
80,10,23,Ticks_Phase_5,27,5,42,127,1025804600
80,10,23,Ticks_Phase_5,28,5,42,127,1026305340
80,10,23,Ticks_Phase_5,29,1,48,53,1026341852
80,10,23,Ticks_Phase_5,30,1,48,49,1026788448
80,10,23,Ticks_Phase_5,31,5,42,127,1026805172
80,10,23,Ticks_Phase_5,32,1,48,52,1027284764
80,10,23,Ticks_Phase_5,33,5,42,127,1027304936
80,10,23,Ticks_Phase_5,34,1,48,62,1027774344
80,10,23,Ticks_Phase_5,35,5,42,127,1027804628
80,10,23,Ticks_Phase_5,36,1,48,52,1028288332
80,10,23,Ticks_Phase_5,37,5,42,127,1028305360
80,10,23,Ticks_Phase_5,38,1,48,53,1028770872
80,10,23,Ticks_Phase_5,39,5,42,127,1028804900
80,10,23,Ticks_Phase_5,40,1,48,46,1029284788
80,10,23,Ticks_Phase_5,41,5,42,127,1029304736
80,10,23,Ticks_Phase_5,42,1,48,51,1029785828
80,10,23,Ticks_Phase_5,43,5,42,127,1029805548
80,10,23,Ticks_Phase_5,44,1,48,52,1030301980
80,10,23,Ticks_Phase_5,45,5,42,127,1030315568
80,10,23,Ticks_Phase_5,46,1,48,52,1030798356
80,10,23,Ticks_Phase_5,47,5,42,127,1030815032
80,10,23,Ticks_Phase_5,48,1,48,51,1031306052
80,10,23,Ticks_Phase_5,49,5,42,127,1031314720
80,10,23,Ticks_Phase_5,50,1,48,60,1031782220
80,10,23,Ticks_Phase_5,51,5,42,127,1031814532
80,10,23,Ticks_Phase_5,52,1,48,42,1032314748
80,10,23,Ticks_Phase_5,53,5,42,127,1032316316
80,10,23,Ticks_Phase_5,54,1,48,60,1032798148
80,10,23,Ticks_Phase_5,55,5,42,127,1032814956
80,10,23,Ticks_Phase_5,56,1,48,54,1033302108
80,10,23,Ticks_Phase_5,57,5,42,127,1033304684
80,10,23,Ticks_Phase_5,58,1,48,57,1033780000
80,10,23,Ticks_Phase_5,59,5,42,127,1033805124
80,10,23,Ticks_Phase_5,60,5,42,127,1034304744
80,10,23,Ticks_Phase_5,61,1,48,54,1034307792
80,10,23,Ticks_Phase_5,62,1,48,53,1034784552
80,10,23,Ticks_Phase_5,63,5,42,127,1034804724
80,10,23,Ticks_Phase_5,64,1,48,56,1035280716
80,10,23,Ticks_Phase_5,65,5,42,127,1035305532
80,10,23,Ticks_Phase_5,66,5,42,127,1035805080
80,10,23,Ticks_Phase_5,67,1,48,46,1035808648
80,10,23,Ticks_Phase_5,68,5,42,127,1036304772
80,10,23,Ticks_Phase_5,69,1,48,59,1036315380
80,10,23,Ticks_Phase_5,70,1,48,53,1036784804
80,10,23,Ticks_Phase_5,71,5,42,127,1036804672
80,10,23,Ticks_Phase_5,72,5,42,127,1037305340
80,10,23,Ticks_Phase_5,73,1,48,58,1037318648
80,10,23,Ticks_Phase_5,74,1,48,57,1037799752
80,10,23,Ticks_Phase_5,75,5,42,127,1037805024
80,10,23,Ticks_Phase_5,76,1,48,58,1038304116
80,10,23,Ticks_Phase_5,77,5,42,127,1038305684
80,10,23,Ticks_Phase_5,78,5,42,127,1038805304
80,10,23,Ticks_Phase_5,79,1,48,54,1038819952
80,10,23,Ticks_Phase_5,80,1,48,50,1039291696
80,10,23,Ticks_Phase_5,81,5,42,127,1039304984
80,10,23,Ticks_Phase_5,82,1,48,60,1039774316
80,10,23,Ticks_Phase_5,83,5,42,127,1039804672
80,10,23,Ticks_Phase_5,84,5,42,127,1040304444
80,10,23,Ticks_Phase_5,85,1,48,55,1040307344
80,10,23,Ticks_Phase_5,86,5,42,127,1040805476
80,10,23,Ticks_Phase_5,87,1,48,51,1040822832
80,10,23,Ticks_Phase_5,88,1,48,57,1041277472
80,10,23,Ticks_Phase_5,89,5,42,127,1041305160
80,10,23,Ticks_Phase_5,90,5,42,127,1041804608
80,10,23,Ticks_Phase_5,91,1,48,48,1041816288
80,10,23,Ticks_Phase_5,92,5,42,127,1042314628
80,10,23,Ticks_Phase_5,93,1,48,56,1042323320
80,10,23,Ticks_Phase_5,94,1,48,58,1042802368
80,10,23,Ticks_Phase_5,95,5,42,127,1042815284
80,10,23,Ticks_Phase_5,96,5,42,127,1043315052
80,10,23,Ticks_Phase_5,97,1,48,60,1043329256
80,10,23,Ticks_Phase_5,98,5,42,127,1043814816
80,10,23,Ticks_Phase_5,99,1,48,51,1043835088
80,10,23,Ticks_Phase_5,100,5,42,127,1044314428
80,10,23,Ticks_Phase_5,101,1,48,62,1044327436
80,10,23,Ticks_Phase_5,102,5,42,127,1044815312
80,10,23,Ticks_Phase_5,103,1,48,52,1044851452
80,10,23,Ticks_Phase_5,104,1,48,49,1045294596
80,10,23,Ticks_Phase_5,105,5,42,127,1045314844
80,10,23,Ticks_Phase_5,106,5,42,127,1045814692
80,10,23,Ticks_Phase_5,107,1,48,58,1045826952
80,10,23,Ticks_Phase_5,108,1,48,54,1046280860
80,10,23,Ticks_Phase_5,109,5,42,127,1046315492
80,10,23,Ticks_Phase_5,110,5,42,127,1046815188
80,10,23,Ticks_Phase_5,111,1,48,50,1046828420
80,10,23,Ticks_Phase_5,112,1,48,57,1047314876
80,10,23,Ticks_Phase_5,113,5,42,127,1047316288
80,10,23,Ticks_Phase_5,114,1,48,44,1047805096
80,10,23,Ticks_Phase_5,115,5,42,127,1047814560
80,10,23,Ticks_Phase_5,116,1,48,54,1048305456
80,10,23,Ticks_Phase_5,117,5,42,127,1048315292
80,10,23,Ticks_Phase_5,118,1,48,46,1048806264
80,10,23,Ticks_Phase_5,119,5,42,127,1048814832
80,10,23,Ticks_Phase_5,120,1,48,62,1049304908
80,10,23,Ticks_Phase_5,121,5,42,127,1049314672
80,10,23,Ticks_Phase_5,122,1,48,53,1049785576
80,10,23,Ticks_Phase_5,123,5,42,127,1049815332
80,10,23,Ticks_Phase_5,124,1,48,59,1050290944
80,10,23,Ticks_Phase_5,125,5,42,127,1050334564
80,10,23,Ticks_Phase_5,126,1,48,56,1050820740
80,10,23,Ticks_Phase_5,127,5,42,127,1050835300
80,10,23,Ticks_Phase_5,128,1,48,56,1051310540
80,10,23,Ticks_Phase_5,129,5,42,127,1051335136
80,10,23,Ticks_Phase_5,130,1,48,56,1051799600
80,10,23,Ticks_Phase_5,131,5,42,127,1051834900
80,10,23,Ticks_Phase_5,132,1,48,59,1052323480
80,10,23,Ticks_Phase_5,133,5,42,127,1052334440
80,10,23,Ticks_Phase_5,134,1,48,57,1052799992
80,10,23,Ticks_Phase_5,135,5,42,127,1052835172
80,10,23,Ticks_Phase_5,136,1,48,59,1053279244
80,10,23,Ticks_Phase_5,137,5,42,127,1053335084
80,10,23,Ticks_Phase_5,138,1,48,56,1053805364
80,10,23,Ticks_Phase_5,139,5,42,127,1053834600
80,10,23,Ticks_Phase_5,140,1,48,61,1054326764
80,10,23,Ticks_Phase_5,141,5,42,127,1054335336
80,10,23,Ticks_Phase_5,142,1,48,63,1054794036
80,10,23,Ticks_Phase_5,143,5,42,127,1054835024
80,10,23,Ticks_Phase_5,144,1,48,59,1055311012
80,10,23,Ticks_Phase_5,145,5,42,127,1055334932
80,10,23,Ticks_Phase_5,146,1,48,57,1055822232
80,10,23,Ticks_Phase_5,147,5,42,127,1055834400
80,10,23,Ticks_Phase_5,148,1,48,65,1056322516
80,10,23,Ticks_Phase_5,149,5,42,127,1056335136
80,10,23,Ticks_Phase_5,150,1,48,62,1056808432
80,10,23,Ticks_Phase_5,151,5,42,127,1056835044
80,10,23,Ticks_Phase_5,152,1,48,59,1057323848
80,10,23,Ticks_Phase_5,153,5,42,127,1057334584
80,10,23,Ticks_Phase_5,154,1,48,62,1057809080
80,10,23,Ticks_Phase_5,155,5,42,127,1057835472
80,10,23,Ticks_Phase_5,156,5,42,127,1058335164
80,10,23,Ticks_Phase_5,157,1,48,55,1058345776
80,10,23,Ticks_Phase_5,158,5,42,127,1058815312
80,10,23,Ticks_Phase_5,159,1,48,62,1058846216
80,10,23,Ticks_Phase_5,160,1,48,54,1059285608
80,10,23,Ticks_Phase_5,161,5,42,127,1059314992
80,10,23,Ticks_Phase_5,162,5,42,127,1059814912
80,10,23,Ticks_Phase_5,163,1,48,57,1059833164
80,10,23,Ticks_Phase_5,164,5,42,127,1060314452
80,10,23,Ticks_Phase_5,165,1,48,57,1060324088
80,10,23,Ticks_Phase_5,166,1,48,54,1060812668
80,10,23,Ticks_Phase_5,167,5,42,127,1060815252
80,10,23,Ticks_Phase_5,168,1,48,60,1061297392
80,10,23,Ticks_Phase_5,169,5,42,127,1061315240
80,10,23,Ticks_Phase_5,170,1,48,49,1061790332
80,10,23,Ticks_Phase_5,171,5,42,127,1061814704
80,10,23,Ticks_Phase_5,172,1,48,68,1062295340
80,10,23,Ticks_Phase_5,173,5,42,127,1062315440
80,10,23,Ticks_Phase_5,174,1,48,38,1062789536
80,10,23,Ticks_Phase_5,175,5,42,127,1062815128
80,10,23,Ticks_Phase_5,176,1,48,51,1063304876
80,10,23,Ticks_Phase_5,177,5,42,127,1063314964
80,10,23,Ticks_Phase_5,178,1,48,48,1063808828
80,10,23,Ticks_Phase_5,179,5,42,127,1063814552
80,10,23,Ticks_Phase_5,180,5,42,127,1064315368
80,10,23,Ticks_Phase_5,181,1,48,66,1064321780
80,10,23,Ticks_Phase_5,182,1,48,54,1064812936
80,10,23,Ticks_Phase_5,183,5,42,127,1064814976
80,10,23,Ticks_Phase_5,184,5,42,127,1065314896
80,10,23,Ticks_Phase_5,185,1,48,51,1065333000
80,10,23,Ticks_Phase_5,186,1,48,51,1065774708
80,10,23,Ticks_Phase_5,187,5,42,127,1065815476
80,10,23,Ticks_Phase_5,188,5,42,127,1066315172
80,10,23,Ticks_Phase_5,189,1,48,61,1066318968
80,10,23,Ticks_Phase_5,190,5,42,127,1066764760
80,10,23,Ticks_Phase_5,191,1,48,44,1066809888
80,10,23,Ticks_Phase_5,192,5,42,127,1067265272
80,10,23,Ticks_Phase_5,193,1,48,55,1067274756
80,10,23,Ticks_Phase_5,194,5,42,127,1067765032
80,10,23,Ticks_Phase_5,195,1,48,48,1067785152
80,10,23,Ticks_Phase_5,196,1,48,65,1068260860
80,10,23,Ticks_Phase_5,197,5,42,127,1068265012
80,10,23,Ticks_Phase_5,198,1,48,58,1068750964
80,10,23,Ticks_Phase_5,199,5,42,127,1068764552
80,10,23,Ticks_Phase_5,200,1,48,55,1069250496
80,10,23,Ticks_Phase_5,201,5,42,127,1069265284
80,10,23,Ticks_Phase_5,202,1,48,57,1069731240
80,10,23,Ticks_Phase_5,203,5,42,127,1069764972
80,10,23,Ticks_Phase_5,204,1,48,60,1070208072
80,10,23,Ticks_Phase_5,205,5,42,127,1070264960
80,10,23,Ticks_Phase_5,206,1,48,53,1070718388
80,10,23,Ticks_Phase_5,207,5,42,127,1070765396
80,10,23,Ticks_Phase_5,208,1,48,63,1071212152
80,10,23,Ticks_Phase_5,209,5,42,127,1071275416
80,10,23,Ticks_Phase_5,210,1,48,59,1071730192
80,10,23,Ticks_Phase_5,211,5,42,127,1071774956
80,10,23,Ticks_Phase_5,212,1,48,57,1072225088
80,10,23,Ticks_Phase_5,213,5,42,127,1072274868
80,10,23,Ticks_Phase_5,214,1,48,59,1072744172
80,10,23,Ticks_Phase_5,215,5,42,127,1072774456
80,10,23,Ticks_Phase_5,216,1,48,45,1073240036
80,10,23,Ticks_Phase_5,217,5,42,127,1073275116
80,10,23,Ticks_Phase_5,218,1,48,70,1073756728
80,10,23,Ticks_Phase_5,219,5,42,127,1073774880
80,10,23,Ticks_Phase_5,220,1,48,53,1074265704
80,10,23,Ticks_Phase_5,221,5,42,127,1074274720
80,10,23,Ticks_Phase_5,222,5,42,127,1074775536
80,10,23,Ticks_Phase_5,223,1,48,49,1074777252
80,10,23,Ticks_Phase_5,224,1,48,47,1075284180
80,10,23,Ticks_Phase_5,225,5,42,127,1075325168
80,10,23,Ticks_Phase_5,226,1,48,56,1075789476
80,10,23,Ticks_Phase_5,227,5,42,127,1075824932
80,10,23,Ticks_Phase_5,228,1,48,51,1076322508
80,10,23,Ticks_Phase_5,229,5,42,127,1076324844
80,10,23,Ticks_Phase_5,230,5,42,127,1076824316
80,10,23,Ticks_Phase_5,231,1,48,45,1076874840
80,10,23,Ticks_Phase_5,232,5,42,127,1077325124
80,10,23,Ticks_Phase_5,233,1,48,47,1077403912
80,10,23,Ticks_Phase_5,234,1,48,40,1077823144
80,10,23,Ticks_Phase_5,235,5,42,127,1077824808
80,10,23,Ticks_Phase_5,236,5,42,127,1078324876
80,10,23,Ticks_Phase_5,237,1,48,51,1078357132
80,10,23,Ticks_Phase_5,238,5,42,127,1078825240
80,10,23,Ticks_Phase_5,239,1,48,33,1078853828
80,10,23,Ticks_Phase_5,240,5,42,127,1079325000
80,10,23,Ticks_Phase_5,241,1,48,26,1079377176
80,10,23,Ticks_Phase_5,242,5,42,127,1079824764
80,10,23,Ticks_Phase_5,243,5,42,127,1080324696
80,10,23,Ticks_Phase_5,244,5,42,127,1080825156
80,10,23,Ticks_Phase_5,245,1,48,55,1081316140
80,10,23,Ticks_Phase_5,246,5,42,127,1081324860
80,10,23,Ticks_Phase_5,247,1,48,53,1081797480
80,10,23,Ticks_Phase_5,248,5,42,127,1081824844
80,10,23,Ticks_Phase_5,249,1,48,56,1082280688
80,10,23,Ticks_Phase_5,250,5,42,127,1082325504
80,10,23,Ticks_Phase_5,251,1,48,52,1082756472
80,10,23,Ticks_Phase_5,252,5,42,127,1082825120
80,10,23,Ticks_Phase_5,253,1,48,41,1083303288
80,10,23,Ticks_Phase_5,254,5,42,127,1083324732
80,10,23,Ticks_Phase_5,255,1,48,46,1083812548
80,10,23,Ticks_Phase_5,256,5,42,127,1083924828
80,10,23,Ticks_Phase_5,257,5,42,127,1084424464
80,10,23,Ticks_Phase_5,258,1,48,37,1084548676
80,10,23,Ticks_Phase_5,259,5,42,127,1084925272
80,10,23,Ticks_Phase_5,260,5,42,127,1085424908
80,10,23,Ticks_Phase_5,261,1,48,47,1085565448
80,10,23,Ticks_Phase_5,262,5,42,127,1085924596
80,10,23,Ticks_Phase_5,263,5,42,127,1086424456
80,10,23,Ticks_Phase_5,264,5,42,127,1086925284
80,10,23,Ticks_Phase_5,265,5,42,127,1087424772
80,10,23,Ticks_Phase_5,266,5,42,127,1087924556
80,10,23,Ticks_Phase_5,267,1,48,28,1087967444
80,10,23,Ticks_Phase_5,268,5,42,127,1088425664
80,10,23,Ticks_Phase_5,269,1,48,35,1088445564
80,10,23,Ticks_Phase_5,270,5,42,127,1088924980
80,10,23,Ticks_Phase_5,271,1,48,38,1088946072
80,10,23,Ticks_Phase_5,272,1,48,41,1089413680
80,10,23,Ticks_Phase_5,273,5,42,127,1089424884
80,10,23,Ticks_Phase_5,274,5,42,127,1089924556
80,10,23,Ticks_Phase_5,275,1,48,46,1089926120
80,10,23,Ticks_Phase_5,276,5,42,127,1090425068
80,10,23,Ticks_Phase_5,277,1,48,44,1090450452
80,10,23,Ticks_Phase_5,278,1,48,48,1090922860
80,10,23,Ticks_Phase_5,279,5,42,127,1090924824
80,10,23,Ticks_Phase_5,280,5,42,127,1091424596
80,10,23,Ticks_Phase_5,281,1,48,44,1091430408
80,10,23,Ticks_Phase_5,282,1,48,42,1091920716
80,10,23,Ticks_Phase_5,283,5,42,127,1091925468
80,10,23,Ticks_Phase_5,284,5,42,127,1092424944
80,10,23,Ticks_Phase_5,285,1,48,38,1092434356
80,10,23,Ticks_Phase_5,286,1,48,40,1092913136
80,10,23,Ticks_Phase_5,287,5,42,127,1092924848
80,10,23,Ticks_Phase_5,288,5,42,127,1093325096
80,10,23,Ticks_Phase_5,289,1,48,39,1093401000
80,10,23,Ticks_Phase_5,290,5,42,127,1093824856
80,10,23,Ticks_Phase_5,291,1,48,37,1093838756
80,10,23,Ticks_Phase_5,292,5,42,127,1094324620
80,10,23,Ticks_Phase_5,293,1,48,27,1094345792
80,10,23,Ticks_Phase_5,294,1,48,36,1094788672
80,10,23,Ticks_Phase_5,295,5,42,127,1094825572
80,10,23,Ticks_Phase_5,296,5,42,127,1095324968
80,10,23,Ticks_Phase_5,297,5,42,127,1095824756
80,10,23,Ticks_Phase_5,298,1,48,21,1095837608
80,10,23,Ticks_Phase_5,299,1,48,31,1096298844
80,10,23,Ticks_Phase_5,300,5,42,127,1096324412
80,10,23,Ticks_Phase_5,301,1,48,33,1096776744
80,10,23,Ticks_Phase_5,302,5,42,127,1096825368
80,10,23,Ticks_Phase_5,303,1,48,34,1097285340
80,10,23,Ticks_Phase_5,304,5,42,127,1097324836
80,10,23,Ticks_Phase_5,305,1,48,33,1097798808
80,10,23,Ticks_Phase_5,306,5,42,127,1097824524
80,10,23,Ticks_Phase_5,307,1,48,35,1098271008
80,10,23,Ticks_Phase_5,308,5,42,127,1098325556
80,10,23,Ticks_Phase_5,309,1,48,39,1098789716
80,10,23,Ticks_Phase_5,310,5,42,127,1098825320
80,10,23,Ticks_Phase_5,311,1,48,34,1099312404
80,10,23,Ticks_Phase_5,312,5,42,127,1099324860
80,10,23,Ticks_Phase_5,313,1,48,43,1099814936
80,10,23,Ticks_Phase_5,314,5,42,127,1099824472
80,10,23,Ticks_Phase_5,315,1,48,35,1100302256
80,10,23,Ticks_Phase_5,316,5,42,127,1100325432
80,10,23,Ticks_Phase_5,317,1,48,39,1100794464
80,10,23,Ticks_Phase_5,318,5,42,127,1100825044
80,10,23,Ticks_Phase_5,319,1,48,32,1101311296
80,10,23,Ticks_Phase_5,320,5,42,127,1101324732
80,10,23,Ticks_Phase_5,321,1,48,37,1101795416
80,10,23,Ticks_Phase_5,322,5,42,127,1101825544
80,10,23,Ticks_Phase_5,323,1,48,42,1102280868
80,10,23,Ticks_Phase_5,324,5,42,127,1102325304
80,10,23,Ticks_Phase_5,325,1,48,33,1102769696
80,10,23,Ticks_Phase_5,326,5,42,127,1102824696
80,10,23,Ticks_Phase_5,0,9999,9999,9999,1018302552
80,10,23,Ticks_Phase_5,1,9999,9999,9999,1018802260
80,10,23,Ticks_Phase_5,2,9999,9999,9999,1019303016
80,10,23,Ticks_Phase_5,3,9999,9999,9999,1019802728
80,10,23,Ticks_Phase_5,4,9999,9999,9999,1020302412
80,10,23,Ticks_Phase_5,5,9999,9999,9999,1020802148
80,10,23,Ticks_Phase_5,6,9999,9999,9999,1021302884
80,10,23,Ticks_Phase_5,7,9999,9999,9999,1021802572
80,10,23,Ticks_Phase_5,8,9999,9999,9999,1022302336
80,10,23,Ticks_Phase_5,9,9999,9999,9999,1022803072
80,10,23,Ticks_Phase_5,10,9999,9999,9999,1023302756
80,10,23,Ticks_Phase_5,11,9999,9999,9999,1023802444
80,10,23,Ticks_Phase_5,12,9999,9999,9999,1024302136
80,10,23,Ticks_Phase_5,13,9999,9999,9999,1024802940
80,10,23,Ticks_Phase_5,14,9999,9999,9999,1025302628
80,10,23,Ticks_Phase_5,15,9999,9999,9999,1025802312
80,10,23,Ticks_Phase_5,16,9999,9999,9999,1026303056
80,10,23,Ticks_Phase_5,17,9999,9999,9999,1026802812
80,10,23,Ticks_Phase_5,18,9999,9999,9999,1027302500
80,10,23,Ticks_Phase_5,19,9999,9999,9999,1027802192
80,10,23,Ticks_Phase_5,20,9999,9999,9999,1028302928
80,10,23,Ticks_Phase_5,21,9999,9999,9999,1028802612
80,10,23,Ticks_Phase_5,22,9999,9999,9999,1029302376
80,10,23,Ticks_Phase_5,23,9999,9999,9999,1029803112
80,10,23,Ticks_Phase_5,24,9999,9999,9999,1030313056
80,10,23,Ticks_Phase_5,25,9999,9999,9999,1030812748
80,10,23,Ticks_Phase_5,26,9999,9999,9999,1031312484
80,10,23,Ticks_Phase_5,27,9999,9999,9999,1031812172
80,10,23,Ticks_Phase_5,28,9999,9999,9999,1032312916
80,10,23,Ticks_Phase_5,29,9999,9999,9999,1032812668
80,10,23,Ticks_Phase_5,30,9999,9999,9999,1033302176
80,10,23,Ticks_Phase_5,31,9999,9999,9999,1033802836
80,10,23,Ticks_Phase_5,32,9999,9999,9999,1034302532
80,10,23,Ticks_Phase_5,33,9999,9999,9999,1034802288
80,10,23,Ticks_Phase_5,34,9999,9999,9999,1035303024
80,10,23,Ticks_Phase_5,35,9999,9999,9999,1035802716
80,10,23,Ticks_Phase_5,36,9999,9999,9999,1036302408
80,10,23,Ticks_Phase_5,37,9999,9999,9999,1036802164
80,10,23,Ticks_Phase_5,38,9999,9999,9999,1037302904
80,10,23,Ticks_Phase_5,39,9999,9999,9999,1037802588
80,10,23,Ticks_Phase_5,40,9999,9999,9999,1038302280
80,10,23,Ticks_Phase_5,41,9999,9999,9999,1038803016
80,10,23,Ticks_Phase_5,42,9999,9999,9999,1039302772
80,10,23,Ticks_Phase_5,43,9999,9999,9999,1039802460
80,10,23,Ticks_Phase_5,44,9999,9999,9999,1040302156
80,10,23,Ticks_Phase_5,45,9999,9999,9999,1040802892
80,10,23,Ticks_Phase_5,46,9999,9999,9999,1041302648
80,10,23,Ticks_Phase_5,47,9999,9999,9999,1041802320
80,10,23,Ticks_Phase_5,48,9999,9999,9999,1042312268
80,10,23,Ticks_Phase_5,49,9999,9999,9999,1042813000
80,10,23,Ticks_Phase_5,50,9999,9999,9999,1043312768
80,10,23,Ticks_Phase_5,51,9999,9999,9999,1043812456
80,10,23,Ticks_Phase_5,52,9999,9999,9999,1044312144
80,10,23,Ticks_Phase_5,53,9999,9999,9999,1044812876
80,10,23,Ticks_Phase_5,54,9999,9999,9999,1045312632
80,10,23,Ticks_Phase_5,55,9999,9999,9999,1045812328
80,10,23,Ticks_Phase_5,56,9999,9999,9999,1046313056
80,10,23,Ticks_Phase_5,57,9999,9999,9999,1046812752
80,10,23,Ticks_Phase_5,58,9999,9999,9999,1047312440
80,10,23,Ticks_Phase_5,59,9999,9999,9999,1047812200
80,10,23,Ticks_Phase_5,60,9999,9999,9999,1048312932
80,10,23,Ticks_Phase_5,61,9999,9999,9999,1048812620
80,10,23,Ticks_Phase_5,62,9999,9999,9999,1049312308
80,10,23,Ticks_Phase_5,63,9999,9999,9999,1049813120
80,10,23,Ticks_Phase_5,64,9999,9999,9999,1050332280
80,10,23,Ticks_Phase_5,65,9999,9999,9999,1050833016
80,10,23,Ticks_Phase_5,66,9999,9999,9999,1051332700
80,10,23,Ticks_Phase_5,67,9999,9999,9999,1051832388
80,10,23,Ticks_Phase_5,68,9999,9999,9999,1052332152
80,10,23,Ticks_Phase_5,69,9999,9999,9999,1052832888
80,10,23,Ticks_Phase_5,70,9999,9999,9999,1053332576
80,10,23,Ticks_Phase_5,71,9999,9999,9999,1053832312
80,10,23,Ticks_Phase_5,72,9999,9999,9999,1054333048
80,10,23,Ticks_Phase_5,73,9999,9999,9999,1054832736
80,10,23,Ticks_Phase_5,74,9999,9999,9999,1055332424
80,10,23,Ticks_Phase_5,75,9999,9999,9999,1055832188
80,10,23,Ticks_Phase_5,76,9999,9999,9999,1056332924
80,10,23,Ticks_Phase_5,77,9999,9999,9999,1056832612
80,10,23,Ticks_Phase_5,78,9999,9999,9999,1057332300
80,10,23,Ticks_Phase_5,79,9999,9999,9999,1057833036
80,10,23,Ticks_Phase_5,80,9999,9999,9999,1058332728
80,10,23,Ticks_Phase_5,81,9999,9999,9999,1058813024
80,10,23,Ticks_Phase_5,82,9999,9999,9999,1059312704
80,10,23,Ticks_Phase_5,83,9999,9999,9999,1059812472
80,10,23,Ticks_Phase_5,84,9999,9999,9999,1060312164
80,10,23,Ticks_Phase_5,85,9999,9999,9999,1060812892
80,10,23,Ticks_Phase_5,86,9999,9999,9999,1061312580
80,10,23,Ticks_Phase_5,87,9999,9999,9999,1061812344
80,10,23,Ticks_Phase_5,88,9999,9999,9999,1062313080
80,10,23,Ticks_Phase_5,89,9999,9999,9999,1062812768
80,10,23,Ticks_Phase_5,90,9999,9999,9999,1063312456
80,10,23,Ticks_Phase_5,91,9999,9999,9999,1063812192
80,10,23,Ticks_Phase_5,92,9999,9999,9999,1064312932
80,10,23,Ticks_Phase_5,93,9999,9999,9999,1064812652
80,10,23,Ticks_Phase_5,94,9999,9999,9999,1065312312
80,10,23,Ticks_Phase_5,95,9999,9999,9999,1065813116
80,10,23,Ticks_Phase_5,96,9999,9999,9999,1066312808
80,10,23,Ticks_Phase_5,97,9999,9999,9999,1066762324
80,10,23,Ticks_Phase_5,98,9999,9999,9999,1067263056
80,10,23,Ticks_Phase_5,99,9999,9999,9999,1067762744
80,10,23,Ticks_Phase_5,100,9999,9999,9999,1068262500
80,10,23,Ticks_Phase_5,101,9999,9999,9999,1068762188
80,10,23,Ticks_Phase_5,102,9999,9999,9999,1069262924
80,10,23,Ticks_Phase_5,103,9999,9999,9999,1069762688
80,10,23,Ticks_Phase_5,104,9999,9999,9999,1070262376
80,10,23,Ticks_Phase_5,105,9999,9999,9999,1070763112
80,10,23,Ticks_Phase_5,106,9999,9999,9999,1071273056
80,10,23,Ticks_Phase_5,107,9999,9999,9999,1071772744
80,10,23,Ticks_Phase_5,108,9999,9999,9999,1072272508
80,10,23,Ticks_Phase_5,109,9999,9999,9999,1072772168
80,10,23,Ticks_Phase_5,110,9999,9999,9999,1073272904
80,10,23,Ticks_Phase_5,111,9999,9999,9999,1073772668
80,10,23,Ticks_Phase_5,112,9999,9999,9999,1074272356
80,10,23,Ticks_Phase_5,113,9999,9999,9999,1074773100
80,10,23,Ticks_Phase_5,114,9999,9999,9999,1075322956
80,10,23,Ticks_Phase_5,115,9999,9999,9999,1075822648
80,10,23,Ticks_Phase_5,116,9999,9999,9999,1076322372
80,10,23,Ticks_Phase_5,117,9999,9999,9999,1076822104
80,10,23,Ticks_Phase_5,118,9999,9999,9999,1077322840
80,10,23,Ticks_Phase_5,119,9999,9999,9999,1077822544
80,10,23,Ticks_Phase_5,120,9999,9999,9999,1078322292
80,10,23,Ticks_Phase_5,121,9999,9999,9999,1078823028
80,10,23,Ticks_Phase_5,122,9999,9999,9999,1079322716
80,10,23,Ticks_Phase_5,123,9999,9999,9999,1079822404
80,10,23,Ticks_Phase_5,124,9999,9999,9999,1080322112
80,10,23,Ticks_Phase_5,125,9999,9999,9999,1080822868
80,10,23,Ticks_Phase_5,126,9999,9999,9999,1081322572
80,10,23,Ticks_Phase_5,127,9999,9999,9999,1081822336
80,10,23,Ticks_Phase_5,128,9999,9999,9999,1082323068
80,10,23,Ticks_Phase_5,129,9999,9999,9999,1082822756
80,10,23,Ticks_Phase_5,130,9999,9999,9999,1083322444
80,10,23,Ticks_Phase_5,131,9999,9999,9999,1083922540
80,10,23,Ticks_Phase_5,132,9999,9999,9999,1084422252
80,10,23,Ticks_Phase_5,133,9999,9999,9999,1084922984
80,10,23,Ticks_Phase_5,134,9999,9999,9999,1085422696
80,10,23,Ticks_Phase_5,135,9999,9999,9999,1085922384
80,10,23,Ticks_Phase_5,136,9999,9999,9999,1086422092
80,10,23,Ticks_Phase_5,137,9999,9999,9999,1086922848
80,10,23,Ticks_Phase_5,138,9999,9999,9999,1087422560
80,10,23,Ticks_Phase_5,139,9999,9999,9999,1087922268
80,10,23,Ticks_Phase_5,140,9999,9999,9999,1088423004
80,10,23,Ticks_Phase_5,141,9999,9999,9999,1088922692
80,10,23,Ticks_Phase_5,142,9999,9999,9999,1089422424
80,10,23,Ticks_Phase_5,143,9999,9999,9999,1089922120
80,10,23,Ticks_Phase_5,144,9999,9999,9999,1090422856
80,10,23,Ticks_Phase_5,145,9999,9999,9999,1090922568
80,10,23,Ticks_Phase_5,146,9999,9999,9999,1091422308
80,10,23,Ticks_Phase_5,147,9999,9999,9999,1091923036
80,10,23,Ticks_Phase_5,148,9999,9999,9999,1092422728
80,10,23,Ticks_Phase_5,149,9999,9999,9999,1092922484
80,10,23,Ticks_Phase_5,150,9999,9999,9999,1093322808
80,10,23,Ticks_Phase_5,151,9999,9999,9999,1093822572
80,10,23,Ticks_Phase_5,152,9999,9999,9999,1094322260
80,10,23,Ticks_Phase_5,153,9999,9999,9999,1094822988
80,10,23,Ticks_Phase_5,154,9999,9999,9999,1095322684
80,10,23,Ticks_Phase_5,155,9999,9999,9999,1095822392
80,10,23,Ticks_Phase_5,156,9999,9999,9999,1096322128
80,10,23,Ticks_Phase_5,157,9999,9999,9999,1096822860
80,10,23,Ticks_Phase_5,158,9999,9999,9999,1097322548
80,10,23,Ticks_Phase_5,159,9999,9999,9999,1097822312
80,10,23,Ticks_Phase_5,160,9999,9999,9999,1098323048
80,10,23,Ticks_Phase_5,161,9999,9999,9999,1098822736
80,10,23,Ticks_Phase_5,162,9999,9999,9999,1099322424
80,10,23,Ticks_Phase_5,163,9999,9999,9999,1099822184
80,10,23,Ticks_Phase_5,164,9999,9999,9999,1100322920
80,10,23,Ticks_Phase_5,165,9999,9999,9999,1100822612
80,10,23,Ticks_Phase_5,166,9999,9999,9999,1101322300
80,10,23,Ticks_Phase_5,167,9999,9999,9999,1101823032
80,10,23,Ticks_Phase_5,168,9999,9999,9999,1102322796
80,10,23,Ticks_Phase_5,169,9999,9999,9999,1102822484
80,11,25,Jits_Pract_5,0,5,56,103,1145279848
80,11,25,Jits_Pract_5,1,5,63,98,1145283100
80,11,25,Jits_Pract_5,2,5,80,127,1145286068
80,11,25,Jits_Pract_5,0,5,56,103,1145779648
80,11,25,Jits_Pract_5,1,5,63,98,1145782672
80,11,25,Jits_Pract_5,2,5,80,127,1145785720
80,11,25,Jits_Pract_5,0,5,56,103,1146280292
80,11,25,Jits_Pract_5,1,5,80,127,1146289664
80,11,25,Jits_Pract_5,2,5,63,98,1146309972
80,11,25,Jits_Pract_5,0,5,63,98,1146729812
80,11,25,Jits_Pract_5,1,5,80,127,1146759488
80,11,25,Jits_Pract_5,2,5,56,103,1146769636
80,11,25,Jits_Pract_5,0,5,80,127,1147290100
80,11,25,Jits_Pract_5,1,5,56,103,1147300520
80,11,25,Jits_Pract_5,2,5,63,98,1147330048
80,11,25,Jits_Pract_5,0,5,63,98,1147779476
80,11,25,Jits_Pract_5,1,5,56,103,1147810152
80,11,25,Jits_Pract_5,2,5,80,127,1147820272
80,11,25,Jits_Pract_5,0,5,56,103,1148230208
80,11,25,Jits_Pract_5,1,5,63,98,1148280260
80,11,25,Jits_Pract_5,2,5,80,127,1148299524
80,11,25,Jits_Pract_5,0,5,80,127,1148729776
80,11,25,Jits_Pract_5,1,5,63,98,1148779832
80,11,25,Jits_Pract_5,2,5,56,103,1148819792
80,11,25,Jits_Pract_5,0,5,56,103,1149229372
80,11,25,Jits_Pract_5,1,5,63,98,1149260244
80,11,25,Jits_Pract_5,2,5,80,127,1149329872
80,11,25,Jits_Pract_5,0,5,56,103,1149730312
80,11,25,Jits_Pract_5,1,5,80,127,1149789584
80,11,25,Jits_Pract_5,2,5,63,98,1149820232
80,11,25,Jits_Pract_5,0,5,56,103,1150240320
80,11,25,Jits_Pract_5,1,5,63,98,1150250368
80,11,25,Jits_Pract_5,2,5,80,127,1150290384
80,11,25,Jits_Pract_5,0,5,63,98,1150729576
80,11,25,Jits_Pract_5,1,5,80,127,1150809520
80,11,25,Jits_Pract_5,2,5,56,103,1150819644
80,11,25,Jits_Pract_5,0,5,63,98,1151279432
80,11,25,Jits_Pract_5,1,5,56,103,1151320416
80,11,25,Jits_Pract_5,2,5,80,127,1151323556
80,11,25,Jits_Pract_5,0,5,56,103,1151740268
80,11,25,Jits_Pract_5,1,5,63,98,1151749344
80,11,25,Jits_Pract_5,2,5,80,127,1151789356
80,11,25,Jits_Pract_5,0,5,56,103,1152229672
80,11,25,Jits_Pract_5,1,5,63,98,1152232740
80,11,25,Jits_Pract_5,2,5,80,127,1152250356
80,11,25,Jits_Pract_5,0,9999,9999,9999,1145527360
80,11,25,Jits_Pract_5,1,9999,9999,9999,1146027088
80,11,25,Jits_Pract_5,2,9999,9999,9999,1146527804
80,11,25,Jits_Pract_5,3,9999,9999,9999,1147027544
80,11,25,Jits_Pract_5,4,9999,9999,9999,1147527256
80,11,25,Jits_Pract_5,5,9999,9999,9999,1148027968
80,11,25,Jits_Pract_5,6,9999,9999,9999,1148527668
80,11,25,Jits_Pract_5,7,9999,9999,9999,1149027416
80,11,25,Jits_Pract_5,8,9999,9999,9999,1149527156
80,11,25,Jits_Pract_5,9,9999,9999,9999,1150027876
80,11,25,Jits_Pract_5,10,9999,9999,9999,1150527544
80,11,25,Jits_Pract_5,11,9999,9999,9999,1151027288
80,11,25,Jits_Pract_5,12,9999,9999,9999,1151527988
80,11,25,Jits_Pract_5,13,9999,9999,9999,1152027712
80,11,25,Jits_Pract_5,14,9999,9999,9999,1152527444
80,12,24,Jits_Pract_8,0,5,56,103,1205555604
80,12,24,Jits_Pract_8,1,5,63,98,1205558852
80,12,24,Jits_Pract_8,2,5,80,127,1205561896
80,12,24,Jits_Pract_8,0,5,56,103,1206356440
80,12,24,Jits_Pract_8,1,5,63,98,1206359460
80,12,24,Jits_Pract_8,2,5,80,127,1206362436
80,12,24,Jits_Pract_8,0,5,80,127,1207095560
80,12,24,Jits_Pract_8,1,5,63,98,1207185944
80,12,24,Jits_Pract_8,2,5,56,103,1207196140
80,12,24,Jits_Pract_8,0,5,56,103,1207915972
80,12,24,Jits_Pract_8,1,5,63,98,1207926092
80,12,24,Jits_Pract_8,2,5,80,127,1208016172
80,12,24,Jits_Pract_8,0,5,63,98,1208686112
80,12,24,Jits_Pract_8,1,5,80,127,1208715664
80,12,24,Jits_Pract_8,2,1,48,58,1208725904
80,12,24,Jits_Pract_8,3,5,56,103,1208746376
80,12,24,Jits_Pract_8,0,1,48,56,1209422732
80,12,24,Jits_Pract_8,1,5,56,103,1209485804
80,12,24,Jits_Pract_8,2,5,80,127,1209586040
80,12,24,Jits_Pract_8,3,5,63,98,1209636164
80,12,24,Jits_Pract_8,0,1,48,53,1210202716
80,12,24,Jits_Pract_8,1,5,56,103,1210285416
80,12,24,Jits_Pract_8,2,5,80,127,1210335528
80,12,24,Jits_Pract_8,3,5,63,98,1210375616
80,12,24,Jits_Pract_8,0,1,48,57,1211006816
80,12,24,Jits_Pract_8,1,5,80,127,1211115868
80,12,24,Jits_Pract_8,2,5,63,98,1211145692
80,12,24,Jits_Pract_8,3,5,56,103,1211216344
80,12,24,Jits_Pract_8,0,1,48,60,1211844068
80,12,24,Jits_Pract_8,1,5,63,98,1211946340
80,12,24,Jits_Pract_8,2,5,56,103,1211976168
80,12,24,Jits_Pract_8,3,5,80,127,1212035360
80,12,24,Jits_Pract_8,0,5,56,103,1212685960
80,12,24,Jits_Pract_8,1,5,80,127,1212688880
80,12,24,Jits_Pract_8,2,1,48,59,1212700016
80,12,24,Jits_Pract_8,3,5,63,98,1212805364
80,12,24,Jits_Pract_8,0,1,48,56,1213483520
80,12,24,Jits_Pract_8,1,5,56,103,1213566180
80,12,24,Jits_Pract_8,2,5,80,127,1213606204
80,12,24,Jits_Pract_8,3,5,63,98,1213615428
80,12,24,Jits_Pract_8,0,1,48,62,1214286952
80,12,24,Jits_Pract_8,1,5,56,103,1214326228
80,12,24,Jits_Pract_8,2,5,80,127,1214345668
80,12,24,Jits_Pract_8,3,5,63,98,1214425444
80,12,24,Jits_Pract_8,0,5,80,127,1215115760
80,12,24,Jits_Pract_8,1,1,48,67,1215129364
80,12,24,Jits_Pract_8,2,5,56,103,1215216000
80,12,24,Jits_Pract_8,3,5,63,98,1215226476
80,12,24,Jits_Pract_8,0,5,63,98,1215885940
80,12,24,Jits_Pract_8,1,5,80,127,1215945960
80,12,24,Jits_Pract_8,2,5,56,103,1215956304
80,12,24,Jits_Pract_8,3,1,48,43,1215969760
80,12,24,Jits_Pract_8,0,5,56,103,1216685544
80,12,24,Jits_Pract_8,1,1,48,54,1216713080
80,12,24,Jits_Pract_8,2,5,63,98,1216756116
80,12,24,Jits_Pract_8,3,5,80,127,1216759404
80,12,24,Jits_Pract_8,0,9999,9999,9999,1205953636
80,12,24,Jits_Pract_8,1,9999,9999,9999,1206753352
80,12,24,Jits_Pract_8,2,9999,9999,9999,1207553084
80,12,24,Jits_Pract_8,3,9999,9999,9999,1208353864
80,12,24,Jits_Pract_8,4,9999,9999,9999,1209153648
80,12,24,Jits_Pract_8,5,9999,9999,9999,1209953332
80,12,24,Jits_Pract_8,6,9999,9999,9999,1210753084
80,12,24,Jits_Pract_8,7,9999,9999,9999,1211553908
80,12,24,Jits_Pract_8,8,9999,9999,9999,1212353600
80,12,24,Jits_Pract_8,9,9999,9999,9999,1213153340
80,12,24,Jits_Pract_8,10,9999,9999,9999,1213953116
80,12,24,Jits_Pract_8,11,9999,9999,9999,1214753848
80,12,24,Jits_Pract_8,12,9999,9999,9999,1215553608
80,12,24,Jits_Pract_8,13,9999,9999,9999,1216353376
80,12,24,Jits_Pract_8,14,9999,9999,9999,1217153124
80,13,25,Jits_Pract_5,0,5,56,103,1227037000
80,13,25,Jits_Pract_5,1,5,63,98,1227040024
80,13,25,Jits_Pract_5,2,5,80,127,1227043296
80,13,25,Jits_Pract_5,0,5,56,103,1227536880
80,13,25,Jits_Pract_5,1,5,63,98,1227539900
80,13,25,Jits_Pract_5,2,5,80,127,1227543024
80,13,25,Jits_Pract_5,0,5,56,103,1228036544
80,13,25,Jits_Pract_5,1,5,80,127,1228046816
80,13,25,Jits_Pract_5,2,5,63,98,1228067052
80,13,25,Jits_Pract_5,0,5,63,98,1228486992
80,13,25,Jits_Pract_5,1,5,80,127,1228516668
80,13,25,Jits_Pract_5,2,5,56,103,1228527012
80,13,25,Jits_Pract_5,0,1,48,51,1228986912
80,13,25,Jits_Pract_5,1,5,80,127,1229047248
80,13,25,Jits_Pract_5,2,5,56,103,1229057372
80,13,25,Jits_Pract_5,3,5,63,98,1229087104
80,13,25,Jits_Pract_5,0,1,48,63,1229532524
80,13,25,Jits_Pract_5,1,5,63,98,1229536752
80,13,25,Jits_Pract_5,2,5,56,103,1229567472
80,13,25,Jits_Pract_5,3,5,80,127,1229576700
80,13,25,Jits_Pract_5,0,5,56,103,1229987156
80,13,25,Jits_Pract_5,1,5,63,98,1230037504
80,13,25,Jits_Pract_5,2,1,48,61,1230049240
80,13,25,Jits_Pract_5,3,5,80,127,1230056764
80,13,25,Jits_Pract_5,0,5,80,127,1230486860
80,13,25,Jits_Pract_5,1,1,48,59,1230502332
80,13,25,Jits_Pract_5,2,5,63,98,1230537056
80,13,25,Jits_Pract_5,3,5,56,103,1230576920
80,13,25,Jits_Pract_5,0,5,56,103,1230986564
80,13,25,Jits_Pract_5,1,5,63,98,1231017584
80,13,25,Jits_Pract_5,2,1,48,62,1231037868
80,13,25,Jits_Pract_5,3,5,80,127,1231086964
80,13,25,Jits_Pract_5,0,5,56,103,1231487444
80,13,25,Jits_Pract_5,1,1,48,59,1231521448
80,13,25,Jits_Pract_5,2,5,80,127,1231546804
80,13,25,Jits_Pract_5,3,5,63,98,1231576408
80,13,25,Jits_Pract_5,0,5,56,103,1231997412
80,13,25,Jits_Pract_5,1,5,63,98,1232006564
80,13,25,Jits_Pract_5,2,1,48,50,1232016828
80,13,25,Jits_Pract_5,3,5,80,127,1232046520
80,13,25,Jits_Pract_5,0,1,48,54,1232484040
80,13,25,Jits_Pract_5,1,5,63,98,1232486700
80,13,25,Jits_Pract_5,2,5,80,127,1232566600
80,13,25,Jits_Pract_5,3,5,56,103,1232576944
80,13,25,Jits_Pract_5,0,1,48,49,1233034032
80,13,25,Jits_Pract_5,1,5,63,98,1233036692
80,13,25,Jits_Pract_5,2,5,56,103,1233076476
80,13,25,Jits_Pract_5,3,5,80,127,1233079696
80,13,25,Jits_Pract_5,0,5,56,103,1233496568
80,13,25,Jits_Pract_5,1,5,63,98,1233506840
80,13,25,Jits_Pract_5,2,1,48,53,1233529964
80,13,25,Jits_Pract_5,3,5,80,127,1233546720
80,13,25,Jits_Pract_5,0,5,56,103,1233987052
80,13,25,Jits_Pract_5,1,5,63,98,1233989968
80,13,25,Jits_Pract_5,2,5,80,127,1234007288
80,13,25,Jits_Pract_5,3,1,48,62,1234014068
80,13,25,Jits_Pract_5,0,9999,9999,9999,1227284588
80,13,25,Jits_Pract_5,1,9999,9999,9999,1227784316
80,13,25,Jits_Pract_5,2,9999,9999,9999,1228285032
80,13,25,Jits_Pract_5,3,9999,9999,9999,1228784700
80,13,25,Jits_Pract_5,4,9999,9999,9999,1229284412
80,13,25,Jits_Pract_5,5,9999,9999,9999,1229784180
80,13,25,Jits_Pract_5,6,9999,9999,9999,1230284916
80,13,25,Jits_Pract_5,7,9999,9999,9999,1230784624
80,13,25,Jits_Pract_5,8,9999,9999,9999,1231284328
80,13,25,Jits_Pract_5,9,9999,9999,9999,1231785080
80,13,25,Jits_Pract_5,10,9999,9999,9999,1232284788
80,13,25,Jits_Pract_5,11,9999,9999,9999,1232784500
80,13,25,Jits_Pract_5,12,9999,9999,9999,1233284160
80,13,25,Jits_Pract_5,13,9999,9999,9999,1233784888
80,13,25,Jits_Pract_5,14,9999,9999,9999,1234284652
80,14,18,Jits_Linear_8,0,5,56,103,1274374448
80,14,18,Jits_Linear_8,1,5,63,98,1274377544
80,14,18,Jits_Linear_8,2,5,80,127,1274380816
80,14,18,Jits_Linear_8,0,5,56,103,1275194832
80,14,18,Jits_Linear_8,1,5,63,98,1275197852
80,14,18,Jits_Linear_8,2,5,80,127,1275201124
80,14,18,Jits_Linear_8,0,5,80,127,1275954472
80,14,18,Jits_Linear_8,1,5,63,98,1276044632
80,14,18,Jits_Linear_8,2,5,56,103,1276054828
80,14,18,Jits_Linear_8,0,5,56,103,1276795328
80,14,18,Jits_Linear_8,1,5,63,98,1276804952
80,14,18,Jits_Linear_8,2,5,80,127,1276894636
80,14,18,Jits_Linear_8,0,5,63,98,1277584820
80,14,18,Jits_Linear_8,1,1,48,47,1277602312
80,14,18,Jits_Linear_8,2,5,80,127,1277614564
80,14,18,Jits_Linear_8,3,5,56,103,1277645284
80,14,18,Jits_Linear_8,0,1,48,51,1278330108
80,14,18,Jits_Linear_8,1,5,56,103,1278404864
80,14,18,Jits_Linear_8,2,5,80,127,1278505548
80,14,18,Jits_Linear_8,3,5,63,98,1278554480
80,14,18,Jits_Linear_8,0,5,56,103,1279214820
80,14,18,Jits_Linear_8,1,1,48,51,1279234352
80,14,18,Jits_Linear_8,2,5,80,127,1279265312
80,14,18,Jits_Linear_8,3,5,63,98,1279305104
80,14,18,Jits_Linear_8,0,5,80,127,1280054744
80,14,18,Jits_Linear_8,1,5,63,98,1280085392
80,14,18,Jits_Linear_8,2,1,48,51,1280087404
80,14,18,Jits_Linear_8,3,5,56,103,1280154944
80,14,18,Jits_Linear_8,0,5,63,98,1280895492
80,14,18,Jits_Linear_8,1,5,56,103,1280924896
80,14,18,Jits_Linear_8,2,1,48,51,1280925860
80,14,18,Jits_Linear_8,3,5,80,127,1280984604
80,14,18,Jits_Linear_8,0,5,56,103,1281644900
80,14,18,Jits_Linear_8,1,5,80,127,1281647892
80,14,18,Jits_Linear_8,2,5,63,98,1281764652
80,14,18,Jits_Linear_8,3,1,48,42,1281771356
80,14,18,Jits_Linear_8,0,5,56,103,1282524476
80,14,18,Jits_Linear_8,1,1,48,48,1282527140
80,14,18,Jits_Linear_8,2,5,80,127,1282564332
80,14,18,Jits_Linear_8,3,5,63,98,1282574828
80,14,18,Jits_Linear_8,0,5,56,103,1283285508
80,14,18,Jits_Linear_8,1,5,80,127,1283304848
80,14,18,Jits_Linear_8,2,1,48,45,1283331708
80,14,18,Jits_Linear_8,3,5,63,98,1283384712
80,14,18,Jits_Linear_8,0,5,80,127,1284075008
80,14,18,Jits_Linear_8,1,1,48,49,1284131916
80,14,18,Jits_Linear_8,2,5,56,103,1284175180
80,14,18,Jits_Linear_8,3,5,63,98,1284184552
80,14,18,Jits_Linear_8,0,5,63,98,1284844864
80,14,18,Jits_Linear_8,1,5,80,127,1284905328
80,14,18,Jits_Linear_8,2,5,56,103,1284914480
80,14,18,Jits_Linear_8,3,1,48,50,1284955508
80,14,18,Jits_Linear_8,0,5,56,103,1285644684
80,14,18,Jits_Linear_8,1,1,48,48,1285700916
80,14,18,Jits_Linear_8,2,5,63,98,1285715480
80,14,18,Jits_Linear_8,3,5,80,127,1285718916
80,14,18,Jits_Linear_8,0,1,48,51,1286475528
80,14,18,Jits_Linear_8,1,5,63,98,1286476792
80,14,18,Jits_Linear_8,2,5,56,103,1286525424
80,14,18,Jits_Linear_8,3,5,80,127,1286528492
80,14,18,Jits_Linear_8,0,5,56,103,1287224544
80,14,18,Jits_Linear_8,1,5,80,127,1287227616
80,14,18,Jits_Linear_8,2,1,48,52,1287247296
80,14,18,Jits_Linear_8,3,5,63,98,1287314848
80,14,18,Jits_Linear_8,0,1,48,56,1288043004
80,14,18,Jits_Linear_8,1,5,63,98,1288055236
80,14,18,Jits_Linear_8,2,5,56,103,1288145384
80,14,18,Jits_Linear_8,3,5,80,127,1288175060
80,14,18,Jits_Linear_8,0,5,56,103,1288834476
80,14,18,Jits_Linear_8,1,1,48,49,1288838812
80,14,18,Jits_Linear_8,2,5,63,98,1288934744
80,14,18,Jits_Linear_8,3,5,80,127,1288964404
80,14,18,Jits_Linear_8,0,1,48,51,1289642988
80,14,18,Jits_Linear_8,1,5,63,98,1289645428
80,14,18,Jits_Linear_8,2,5,56,103,1289654576
80,14,18,Jits_Linear_8,3,5,80,127,1289744620
80,14,18,Jits_Linear_8,0,5,63,98,1290445116
80,14,18,Jits_Linear_8,1,1,48,54,1290478728
80,14,18,Jits_Linear_8,2,5,56,103,1290525276
80,14,18,Jits_Linear_8,3,5,80,127,1290528272
80,14,18,Jits_Linear_8,0,5,80,127,1291184556
80,14,18,Jits_Linear_8,1,5,63,98,1291205236
80,14,18,Jits_Linear_8,2,1,48,53,1291261992
80,14,18,Jits_Linear_8,3,5,56,103,1291265472
80,14,18,Jits_Linear_8,0,5,56,103,1292004776
80,14,18,Jits_Linear_8,1,5,63,98,1292025380
80,14,18,Jits_Linear_8,2,5,80,127,1292028596
80,14,18,Jits_Linear_8,3,1,48,54,1292037420
80,14,18,Jits_Linear_8,0,5,63,98,1292724520
80,14,18,Jits_Linear_8,1,1,48,51,1292791840
80,14,18,Jits_Linear_8,2,5,80,127,1292804608
80,14,18,Jits_Linear_8,3,5,56,103,1292814656
80,14,18,Jits_Linear_8,0,1,48,57,1293519652
80,14,18,Jits_Linear_8,1,5,63,98,1293525304
80,14,18,Jits_Linear_8,2,5,56,103,1293544720
80,14,18,Jits_Linear_8,3,5,80,127,1293595220
80,14,18,Jits_Linear_8,0,1,48,53,1294237516
80,14,18,Jits_Linear_8,1,5,80,127,1294304604
80,14,18,Jits_Linear_8,2,5,63,98,1294344532
80,14,18,Jits_Linear_8,3,5,56,103,1294365136
80,14,18,Jits_Linear_8,0,1,48,55,1295040640
80,14,18,Jits_Linear_8,1,5,56,103,1295114624
80,14,18,Jits_Linear_8,2,5,63,98,1295125044
80,14,18,Jits_Linear_8,3,5,80,127,1295145192
80,14,18,Jits_Linear_8,0,5,56,103,1295815112
80,14,18,Jits_Linear_8,1,1,48,61,1295825056
80,14,18,Jits_Linear_8,2,5,63,98,1295905316
80,14,18,Jits_Linear_8,3,5,80,127,1295964496
80,14,18,Jits_Linear_8,0,1,48,51,1296600084
80,14,18,Jits_Linear_8,1,5,80,127,1296614952
80,14,18,Jits_Linear_8,2,5,56,103,1296625220
80,14,18,Jits_Linear_8,3,5,63,98,1296694604
80,14,18,Jits_Linear_8,0,5,63,98,1297414488
80,14,18,Jits_Linear_8,1,1,48,45,1297429888
80,14,18,Jits_Linear_8,2,5,80,127,1297504616
80,14,18,Jits_Linear_8,3,5,56,103,1297515108
80,14,18,Jits_Linear_8,0,5,63,98,1298114900
80,14,18,Jits_Linear_8,1,5,80,127,1298165252
80,14,18,Jits_Linear_8,2,5,56,103,1298224520
80,14,18,Jits_Linear_8,3,1,48,44,1298241568
80,14,18,Jits_Linear_8,0,5,56,103,1298904388
80,14,18,Jits_Linear_8,1,5,80,127,1298954592
80,14,18,Jits_Linear_8,2,5,63,98,1298975272
80,14,18,Jits_Linear_8,3,1,48,43,1299018468
80,14,18,Jits_Linear_8,0,5,56,103,1299634480
80,14,18,Jits_Linear_8,1,5,80,127,1299695096
80,14,18,Jits_Linear_8,2,5,63,98,1299764552
80,14,18,Jits_Linear_8,3,1,48,38,1299804608
80,14,18,Jits_Linear_8,0,5,56,103,1300395280
80,14,18,Jits_Linear_8,1,5,80,127,1300425180
80,14,18,Jits_Linear_8,2,5,63,98,1300454856
80,14,18,Jits_Linear_8,3,1,48,50,1300566000
80,14,18,Jits_Linear_8,0,5,56,103,1301195048
80,14,18,Jits_Linear_8,1,5,80,127,1301214684
80,14,18,Jits_Linear_8,2,5,63,98,1301274928
80,14,18,Jits_Linear_8,3,1,48,45,1301301560
80,14,18,Jits_Linear_8,0,5,80,127,1302034976
80,14,18,Jits_Linear_8,1,1,48,44,1302041836
80,14,18,Jits_Linear_8,2,5,56,103,1302045240
80,14,18,Jits_Linear_8,3,5,63,98,1302055212
80,14,18,Jits_Linear_8,0,5,56,103,1302744476
80,14,18,Jits_Linear_8,1,5,80,127,1302785464
80,14,18,Jits_Linear_8,2,5,63,98,1302815140
80,14,18,Jits_Linear_8,3,1,48,46,1302826280
80,14,18,Jits_Linear_8,0,5,56,103,1303465360
80,14,18,Jits_Linear_8,1,5,63,98,1303495112
80,14,18,Jits_Linear_8,2,5,80,127,1303535048
80,14,18,Jits_Linear_8,3,1,48,55,1303612940
80,14,18,Jits_Linear_8,0,5,80,127,1304165008
80,14,18,Jits_Linear_8,1,5,63,98,1304214940
80,14,18,Jits_Linear_8,2,5,56,103,1304235324
80,14,18,Jits_Linear_8,3,1,48,42,1304297848
80,14,18,Jits_Linear_8,0,5,56,103,1304945144
80,14,18,Jits_Linear_8,1,1,48,56,1305010396
80,14,18,Jits_Linear_8,2,5,80,127,1305014848
80,14,18,Jits_Linear_8,3,5,63,98,1305075016
80,14,18,Jits_Linear_8,0,5,80,127,1305685432
80,14,18,Jits_Linear_8,1,1,48,51,1305752324
80,14,18,Jits_Linear_8,2,5,63,98,1305774464
80,14,18,Jits_Linear_8,3,5,56,103,1305795076
80,14,18,Jits_Linear_8,0,5,63,98,1306445124
80,14,18,Jits_Linear_8,1,5,56,103,1306464832
80,14,18,Jits_Linear_8,2,5,80,127,1306504424
80,14,18,Jits_Linear_8,3,1,48,53,1306566276
80,14,18,Jits_Linear_8,0,5,80,127,1307144556
80,14,18,Jits_Linear_8,1,5,63,98,1307165020
80,14,18,Jits_Linear_8,2,5,56,103,1307245036
80,14,18,Jits_Linear_8,3,1,48,38,1307275308
80,14,18,Jits_Linear_8,0,5,63,98,1307874944
80,14,18,Jits_Linear_8,1,5,56,103,1307985308
80,14,18,Jits_Linear_8,2,5,80,127,1307988300
80,14,18,Jits_Linear_8,3,1,48,52,1308029252
80,14,18,Jits_Linear_8,0,5,63,98,1308634536
80,14,18,Jits_Linear_8,1,5,56,103,1308644732
80,14,18,Jits_Linear_8,2,5,80,127,1308647796
80,14,18,Jits_Linear_8,3,1,48,54,1308726736
80,14,18,Jits_Linear_8,0,5,56,103,1309355308
80,14,18,Jits_Linear_8,1,1,48,53,1309455828
80,14,18,Jits_Linear_8,2,5,80,127,1309475256
80,14,18,Jits_Linear_8,3,5,63,98,1309515044
80,14,18,Jits_Linear_8,0,5,56,103,1310105036
80,14,18,Jits_Linear_8,1,5,80,127,1310185060
80,14,18,Jits_Linear_8,2,5,63,98,1310205368
80,14,18,Jits_Linear_8,3,1,48,41,1310241820
80,14,18,Jits_Linear_8,0,5,56,103,1310835108
80,14,18,Jits_Linear_8,1,5,63,98,1310944748
80,14,18,Jits_Linear_8,2,5,80,127,1310948112
80,14,18,Jits_Linear_8,3,1,48,49,1310972356
80,14,18,Jits_Linear_8,0,5,56,103,1311594868
80,14,18,Jits_Linear_8,1,5,80,127,1311624496
80,14,18,Jits_Linear_8,2,5,63,98,1311645104
80,14,18,Jits_Linear_8,3,1,48,52,1311670912
80,14,18,Jits_Linear_8,0,5,63,98,1312304432
80,14,18,Jits_Linear_8,1,5,56,103,1312314928
80,14,18,Jits_Linear_8,2,5,80,127,1312325124
80,14,18,Jits_Linear_8,3,1,48,46,1312412532
80,14,18,Jits_Linear_8,0,5,80,127,1313015248
80,14,18,Jits_Linear_8,1,5,56,103,1313065228
80,14,18,Jits_Linear_8,2,5,63,98,1313105240
80,14,18,Jits_Linear_8,3,1,48,51,1313120568
80,14,18,Jits_Linear_8,0,5,80,127,1313754704
80,14,18,Jits_Linear_8,1,5,63,98,1313774940
80,14,18,Jits_Linear_8,2,1,48,53,1313794696
80,14,18,Jits_Linear_8,3,5,56,103,1313825208
80,14,18,Jits_Linear_8,0,5,80,127,1314484720
80,14,18,Jits_Linear_8,1,1,48,49,1314497128
80,14,18,Jits_Linear_8,2,5,56,103,1314515512
80,14,18,Jits_Linear_8,3,5,63,98,1314584972
80,14,18,Jits_Linear_8,0,1,48,49,1315231480
80,14,18,Jits_Linear_8,1,5,56,103,1315254820
80,14,18,Jits_Linear_8,2,5,80,127,1315265016
80,14,18,Jits_Linear_8,3,5,63,98,1315304804
80,14,18,Jits_Linear_8,0,5,56,103,1315885536
80,14,18,Jits_Linear_8,1,5,63,98,1315904876
80,14,18,Jits_Linear_8,2,5,80,127,1315974652
80,14,18,Jits_Linear_8,3,1,48,41,1315998296
80,14,18,Jits_Linear_8,0,5,63,98,1316624840
80,14,18,Jits_Linear_8,1,1,48,41,1316667820
80,14,18,Jits_Linear_8,2,5,80,127,1316685080
80,14,18,Jits_Linear_8,3,5,56,103,1316704640
80,14,18,Jits_Linear_8,0,5,80,127,1317325024
80,14,18,Jits_Linear_8,1,1,48,42,1317348068
80,14,18,Jits_Linear_8,2,5,56,103,1317354920
80,14,18,Jits_Linear_8,3,5,63,98,1317384820
80,14,18,Jits_Linear_8,0,5,56,103,1318034808
80,14,18,Jits_Linear_8,1,5,63,98,1318095352
80,14,18,Jits_Linear_8,2,1,48,39,1318132100
80,14,18,Jits_Linear_8,3,5,80,127,1318154612
80,14,18,Jits_Linear_8,0,5,80,127,1318764880
80,14,18,Jits_Linear_8,1,5,56,103,1318785488
80,14,18,Jits_Linear_8,2,1,48,44,1318851404
80,14,18,Jits_Linear_8,3,5,63,98,1318855112
80,14,18,Jits_Linear_8,0,5,80,127,1319484928
80,14,18,Jits_Linear_8,1,5,63,98,1319505240
80,14,18,Jits_Linear_8,2,5,56,103,1319534840
80,14,18,Jits_Linear_8,3,1,48,50,1319596568
80,14,18,Jits_Linear_8,0,5,80,127,1320174940
80,14,18,Jits_Linear_8,1,5,63,98,1320194576
80,14,18,Jits_Linear_8,2,1,48,45,1320245348
80,14,18,Jits_Linear_8,3,5,56,103,1320254960
80,14,18,Jits_Linear_8,0,5,80,127,1320875580
80,14,18,Jits_Linear_8,1,5,56,103,1320974636
80,14,18,Jits_Linear_8,2,1,48,52,1320978420
80,14,18,Jits_Linear_8,3,5,63,98,1321005576
80,14,18,Jits_Linear_8,0,5,63,98,1321564748
80,14,18,Jits_Linear_8,1,5,80,127,1321614752
80,14,18,Jits_Linear_8,2,5,56,103,1321635136
80,14,18,Jits_Linear_8,3,1,48,51,1321696016
80,14,18,Jits_Linear_8,0,5,80,127,1322304868
80,14,18,Jits_Linear_8,1,5,56,103,1322334764
80,14,18,Jits_Linear_8,2,5,63,98,1322337680
80,14,18,Jits_Linear_8,3,1,48,49,1322368968
80,14,18,Jits_Linear_8,0,5,63,98,1323034952
80,14,18,Jits_Linear_8,1,5,56,103,1323074892
80,14,18,Jits_Linear_8,2,1,48,51,1323090888
80,14,18,Jits_Linear_8,3,5,80,127,1323095568
80,14,18,Jits_Linear_8,0,5,80,127,1323674980
80,14,18,Jits_Linear_8,1,5,63,98,1323754928
80,14,18,Jits_Linear_8,2,5,56,103,1323794940
80,14,18,Jits_Linear_8,3,1,48,51,1323814472
80,14,18,Jits_Linear_8,0,5,63,98,1324384600
80,14,18,Jits_Linear_8,1,5,80,127,1324464796
80,14,18,Jits_Linear_8,2,5,56,103,1324484960
80,14,18,Jits_Linear_8,3,1,48,45,1324506880
80,14,18,Jits_Linear_8,0,5,56,103,1325114764
80,14,18,Jits_Linear_8,1,5,63,98,1325124964
80,14,18,Jits_Linear_8,2,5,80,127,1325164900
80,14,18,Jits_Linear_8,3,1,48,56,1325171156
80,14,18,Jits_Linear_8,0,5,56,103,1325724984
80,14,18,Jits_Linear_8,1,5,80,127,1325728200
80,14,18,Jits_Linear_8,2,5,63,98,1325865536
80,14,18,Jits_Linear_8,3,1,48,49,1325898320
80,14,18,Jits_Linear_8,0,5,56,103,1326405068
80,14,18,Jits_Linear_8,1,5,63,98,1326495084
80,14,18,Jits_Linear_8,2,1,48,41,1326560076
80,14,18,Jits_Linear_8,3,5,80,127,1326564756
80,14,18,Jits_Linear_8,0,5,63,98,1327164912
80,14,18,Jits_Linear_8,1,5,80,127,1327168276
80,14,18,Jits_Linear_8,2,5,56,103,1327225452
80,14,18,Jits_Linear_8,3,1,48,39,1327271216
80,14,18,Jits_Linear_8,0,5,80,127,1327884652
80,14,18,Jits_Linear_8,1,5,56,103,1327905112
80,14,18,Jits_Linear_8,2,5,63,98,1327915608
80,14,18,Jits_Linear_8,3,1,48,47,1327937080
80,14,18,Jits_Linear_8,0,5,56,103,1328474548
80,14,18,Jits_Linear_8,1,5,63,98,1328484744
80,14,18,Jits_Linear_8,2,5,80,127,1328555648
80,14,18,Jits_Linear_8,3,1,48,50,1328592620
80,14,18,Jits_Linear_8,0,5,80,127,1329154596
80,14,18,Jits_Linear_8,1,5,56,103,1329204576
80,14,18,Jits_Linear_8,2,1,48,55,1329217504
80,14,18,Jits_Linear_8,3,5,63,98,1329254696
80,14,18,Jits_Linear_8,0,1,48,46,1329903540
80,14,18,Jits_Linear_8,1,5,56,103,1329915400
80,14,18,Jits_Linear_8,2,5,63,98,1329924400
80,14,18,Jits_Linear_8,3,5,80,127,1329965460
80,14,18,Jits_Linear_8,0,5,56,103,1330534884
80,14,18,Jits_Linear_8,1,5,63,98,1330574848
80,14,18,Jits_Linear_8,2,1,48,50,1330604944
80,14,18,Jits_Linear_8,3,5,80,127,1330624824
80,14,18,Jits_Linear_8,0,5,80,127,1331164664
80,14,18,Jits_Linear_8,1,5,56,103,1331214644
80,14,18,Jits_Linear_8,2,1,48,48,1331231388
80,14,18,Jits_Linear_8,3,5,63,98,1331235468
80,14,18,Jits_Linear_8,0,5,80,127,1331844560
80,14,18,Jits_Linear_8,1,1,48,47,1331871492
80,14,18,Jits_Linear_8,2,5,63,98,1331904944
80,14,18,Jits_Linear_8,3,5,56,103,1331984724
80,14,18,Jits_Linear_8,0,5,80,127,1332494688
80,14,18,Jits_Linear_8,1,5,56,103,1332534628
80,14,18,Jits_Linear_8,2,5,63,98,1332555088
80,14,18,Jits_Linear_8,3,1,48,46,1332556424
80,14,18,Jits_Linear_8,0,1,48,57,1333193652
80,14,18,Jits_Linear_8,1,5,56,103,1333214508
80,14,18,Jits_Linear_8,2,5,80,127,1333224780
80,14,18,Jits_Linear_8,3,5,63,98,1333264716
80,14,18,Jits_Linear_8,0,1,48,50,1333873068
80,14,18,Jits_Linear_8,1,5,56,103,1333944664
80,14,18,Jits_Linear_8,2,5,63,98,1333984664
80,14,18,Jits_Linear_8,3,5,80,127,1333988100
80,14,18,Jits_Linear_8,0,5,63,98,1334494612
80,14,18,Jits_Linear_8,1,5,80,127,1334534480
80,14,18,Jits_Linear_8,2,1,48,49,1334585700
80,14,18,Jits_Linear_8,3,5,56,103,1334605348
80,14,18,Jits_Linear_8,0,5,63,98,1335144872
80,14,18,Jits_Linear_8,1,1,48,59,1335215896
80,14,18,Jits_Linear_8,2,5,56,103,1335224688
80,14,18,Jits_Linear_8,3,5,80,127,1335285228
80,14,18,Jits_Linear_8,0,5,80,127,1335814640
80,14,18,Jits_Linear_8,1,1,48,51,1335863416
80,14,18,Jits_Linear_8,2,5,63,98,1335864764
80,14,18,Jits_Linear_8,3,5,56,103,1335895336
80,14,18,Jits_Linear_8,0,5,56,103,1336464716
80,14,18,Jits_Linear_8,1,5,63,98,1336514848
80,14,18,Jits_Linear_8,2,1,48,54,1336516784
80,14,18,Jits_Linear_8,3,5,80,127,1336525112
80,14,18,Jits_Linear_8,0,5,56,103,1337134396
80,14,18,Jits_Linear_8,1,1,48,44,1337150244
80,14,18,Jits_Linear_8,2,5,63,98,1337245888
80,14,18,Jits_Linear_8,3,5,80,127,1337264624
80,14,18,Jits_Linear_8,0,5,63,98,1337784632
80,14,18,Jits_Linear_8,1,5,80,127,1337834832
80,14,18,Jits_Linear_8,2,1,48,43,1337842212
80,14,18,Jits_Linear_8,3,5,56,103,1337925180
80,14,18,Jits_Linear_8,0,5,63,98,1338424628
80,14,18,Jits_Linear_8,1,5,80,127,1338455424
80,14,18,Jits_Linear_8,2,1,48,57,1338489332
80,14,18,Jits_Linear_8,3,5,56,103,1338544528
80,14,18,Jits_Linear_8,0,5,63,98,1339074836
80,14,18,Jits_Linear_8,1,5,56,103,1339085256
80,14,18,Jits_Linear_8,2,1,48,59,1339136848
80,14,18,Jits_Linear_8,3,5,80,127,1339184524
80,14,18,Jits_Linear_8,0,1,48,59,1339807500
80,14,18,Jits_Linear_8,1,5,63,98,1339824464
80,14,18,Jits_Linear_8,2,5,80,127,1339855340
80,14,18,Jits_Linear_8,3,5,56,103,1339884792
80,14,18,Jits_Linear_8,0,5,80,127,1340484860
80,14,18,Jits_Linear_8,1,1,48,59,1340485828
80,14,18,Jits_Linear_8,2,5,63,98,1340495276
80,14,18,Jits_Linear_8,3,5,56,103,1340524876
80,14,18,Jits_Linear_8,0,5,80,127,1341024488
80,14,18,Jits_Linear_8,1,5,63,98,1341045172
80,14,18,Jits_Linear_8,2,5,56,103,1341095176
80,14,18,Jits_Linear_8,3,1,48,44,1341148188
80,14,18,Jits_Linear_8,0,5,63,98,1341695316
80,14,18,Jits_Linear_8,1,5,80,127,1341754812
80,14,18,Jits_Linear_8,2,1,48,51,1341756372
80,14,18,Jits_Linear_8,3,5,56,103,1341775264
80,14,18,Jits_Linear_8,0,5,63,98,1342295388
80,14,18,Jits_Linear_8,1,5,56,103,1342344420
80,14,18,Jits_Linear_8,2,5,80,127,1342354912
80,14,18,Jits_Linear_8,3,1,48,58,1342440204
80,14,18,Jits_Linear_8,0,5,56,103,1342965076
80,14,18,Jits_Linear_8,1,5,80,127,1342975272
80,14,18,Jits_Linear_8,2,1,48,56,1343027088
80,14,18,Jits_Linear_8,3,5,63,98,1343074616
80,14,18,Jits_Linear_8,0,5,80,127,1343565308
80,14,18,Jits_Linear_8,1,5,63,98,1343575356
80,14,18,Jits_Linear_8,2,1,48,53,1343652804
80,14,18,Jits_Linear_8,3,5,56,103,1343724844
80,14,18,Jits_Linear_8,0,5,63,98,1344205272
80,14,18,Jits_Linear_8,1,5,80,127,1344245212
80,14,18,Jits_Linear_8,2,1,48,53,1344319576
80,14,18,Jits_Linear_8,3,5,56,103,1344325224
80,14,18,Jits_Linear_8,0,5,56,103,1344824812
80,14,18,Jits_Linear_8,1,5,80,127,1344925088
80,14,18,Jits_Linear_8,2,1,48,51,1344936004
80,14,18,Jits_Linear_8,3,5,63,98,1344944496
80,14,18,Jits_Linear_8,0,5,80,127,1345515124
80,14,18,Jits_Linear_8,1,5,56,103,1345525096
80,14,18,Jits_Linear_8,2,1,48,57,1345531356
80,14,18,Jits_Linear_8,3,5,63,98,1345615148
80,14,18,Jits_Linear_8,0,5,56,103,1346144584
80,14,18,Jits_Linear_8,1,5,63,98,1346165044
80,14,18,Jits_Linear_8,2,1,48,50,1346217852
80,14,18,Jits_Linear_8,3,5,80,127,1346245080
80,14,18,Jits_Linear_8,0,5,63,98,1346714948
80,14,18,Jits_Linear_8,1,5,56,103,1346805080
80,14,18,Jits_Linear_8,2,5,80,127,1346808296
80,14,18,Jits_Linear_8,3,1,48,42,1346828576
80,14,18,Jits_Linear_8,0,5,56,103,1347365276
80,14,18,Jits_Linear_8,1,1,48,48,1347407280
80,14,18,Jits_Linear_8,2,5,80,127,1347424540
80,14,18,Jits_Linear_8,3,5,63,98,1347434812
80,14,18,Jits_Linear_8,0,1,48,53,1348029928
80,14,18,Jits_Linear_8,1,5,80,127,1348035056
80,14,18,Jits_Linear_8,2,5,56,103,1348045176
80,14,18,Jits_Linear_8,3,5,63,98,1348048168
80,14,18,Jits_Linear_8,0,5,56,103,1348614444
80,14,18,Jits_Linear_8,1,5,80,127,1348624716
80,14,18,Jits_Linear_8,2,1,48,47,1348644272
80,14,18,Jits_Linear_8,3,5,63,98,1348645916
80,14,18,Jits_Linear_8,0,5,63,98,1349205304
80,14,18,Jits_Linear_8,1,5,80,127,1349265048
80,14,18,Jits_Linear_8,2,1,48,48,1349277380
80,14,18,Jits_Linear_8,3,5,56,103,1349315016
80,14,18,Jits_Linear_8,0,5,63,98,1349904972
80,14,18,Jits_Linear_8,1,5,56,103,1349915020
80,14,18,Jits_Linear_8,2,1,48,39,1349922324
80,14,18,Jits_Linear_8,3,5,80,127,1349965136
80,14,18,Jits_Linear_8,0,5,63,98,1350414836
80,14,18,Jits_Linear_8,1,5,80,127,1350435148
80,14,18,Jits_Linear_8,2,5,56,103,1350445416
80,14,18,Jits_Linear_8,3,1,48,52,1350534568
80,14,18,Jits_Linear_8,0,5,63,98,1351025228
80,14,18,Jits_Linear_8,1,5,80,127,1351028592
80,14,18,Jits_Linear_8,2,5,56,103,1351065044
80,14,18,Jits_Linear_8,3,1,48,48,1351115068
80,14,18,Jits_Linear_8,0,5,63,98,1351705176
80,14,18,Jits_Linear_8,1,5,80,127,1351734556
80,14,18,Jits_Linear_8,2,5,56,103,1351744828
80,14,18,Jits_Linear_8,3,1,48,56,1351753716
80,14,18,Jits_Linear_8,0,5,56,103,1352265164
80,14,18,Jits_Linear_8,1,5,80,127,1352294988
80,14,18,Jits_Linear_8,2,5,63,98,1352324316
80,14,18,Jits_Linear_8,3,1,48,60,1352392076
80,14,18,Jits_Linear_8,0,1,48,57,1352956944
80,14,18,Jits_Linear_8,1,5,63,98,1352964460
80,14,18,Jits_Linear_8,2,5,56,103,1353005448
80,14,18,Jits_Linear_8,3,5,80,127,1353008436
80,14,18,Jits_Linear_8,0,5,80,127,1353465260
80,14,18,Jits_Linear_8,1,5,56,103,1353545060
80,14,18,Jits_Linear_8,2,5,63,98,1353595188
80,14,18,Jits_Linear_8,3,1,48,48,1353626572
80,14,18,Jits_Linear_8,0,5,80,127,1354044892
80,14,18,Jits_Linear_8,1,5,56,103,1354065204
80,14,18,Jits_Linear_8,2,5,63,98,1354155288
80,14,18,Jits_Linear_8,3,1,48,56,1354179608
80,14,18,Jits_Linear_8,0,5,80,127,1354684932
80,14,18,Jits_Linear_8,1,5,63,98,1354724796
80,14,18,Jits_Linear_8,2,5,56,103,1354765032
80,14,18,Jits_Linear_8,3,1,48,55,1354837372
80,14,18,Jits_Linear_8,0,5,63,98,1355255268
80,14,18,Jits_Linear_8,1,5,80,127,1355314760
80,14,18,Jits_Linear_8,2,5,56,103,1355345260
80,14,18,Jits_Linear_8,3,1,48,53,1355449908
80,14,18,Jits_Linear_8,0,5,56,103,1355855184
80,14,18,Jits_Linear_8,1,5,80,127,1355885008
80,14,18,Jits_Linear_8,2,5,63,98,1355975020
80,14,18,Jits_Linear_8,3,1,48,54,1356069824
80,14,18,Jits_Linear_8,0,5,56,103,1356455216
80,14,18,Jits_Linear_8,1,5,80,127,1356564836
80,14,18,Jits_Linear_8,2,5,63,98,1356594660
80,14,18,Jits_Linear_8,3,1,48,42,1356672796
80,14,18,Jits_Linear_8,0,5,56,103,1357095316
80,14,18,Jits_Linear_8,1,5,63,98,1357154960
80,14,18,Jits_Linear_8,2,5,80,127,1357185484
80,14,18,Jits_Linear_8,3,1,48,41,1357233108
80,14,18,Jits_Linear_8,0,5,56,103,1357655396
80,14,18,Jits_Linear_8,1,5,63,98,1357725032
80,14,18,Jits_Linear_8,2,5,80,127,1357744444
80,14,18,Jits_Linear_8,3,1,48,35,1357768912
80,14,18,Jits_Linear_8,0,5,80,127,1358214380
80,14,18,Jits_Linear_8,1,5,63,98,1358235064
80,14,18,Jits_Linear_8,2,1,48,46,1358260124
80,14,18,Jits_Linear_8,3,5,56,103,1358285108
80,14,18,Jits_Linear_8,0,1,48,50,1358780704
80,14,18,Jits_Linear_8,1,5,63,98,1358814676
80,14,18,Jits_Linear_8,2,5,80,127,1358824800
80,14,18,Jits_Linear_8,3,5,56,103,1358874984
80,14,18,Jits_Linear_8,0,1,48,47,1359328624
80,14,18,Jits_Linear_8,1,5,63,98,1359395116
80,14,18,Jits_Linear_8,2,5,80,127,1359465004
80,14,18,Jits_Linear_8,3,5,56,103,1359485316
80,14,18,Jits_Linear_8,0,1,48,44,1359936644
80,14,18,Jits_Linear_8,1,5,63,98,1360004572
80,14,18,Jits_Linear_8,2,5,80,127,1360007936
80,14,18,Jits_Linear_8,3,5,56,103,1360075064
80,14,18,Jits_Linear_8,0,1,48,46,1360522872
80,14,18,Jits_Linear_8,1,5,80,127,1360535032
80,14,18,Jits_Linear_8,2,5,56,103,1360555344
80,14,18,Jits_Linear_8,3,5,63,98,1360564640
80,14,18,Jits_Linear_8,0,1,48,55,1361064196
80,14,18,Jits_Linear_8,1,5,56,103,1361134948
80,14,18,Jits_Linear_8,2,5,63,98,1361225068
80,14,18,Jits_Linear_8,3,5,80,127,1361228432
80,14,18,Jits_Linear_8,0,1,48,46,1361662888
80,14,18,Jits_Linear_8,1,5,80,127,1361684812
80,14,18,Jits_Linear_8,2,5,56,103,1361695228
80,14,18,Jits_Linear_8,3,5,63,98,1361714492
80,14,18,Jits_Linear_8,0,1,48,49,1362216360
80,14,18,Jits_Linear_8,1,5,63,98,1362255196
80,14,18,Jits_Linear_8,2,5,80,127,1362314552
80,14,18,Jits_Linear_8,3,5,56,103,1362324820
80,14,18,Jits_Linear_8,0,1,48,48,1362816376
80,14,18,Jits_Linear_8,1,5,63,98,1362895148
80,14,18,Jits_Linear_8,2,5,80,127,1362924956
80,14,18,Jits_Linear_8,3,5,56,103,1362964820
80,14,18,Jits_Linear_8,0,1,48,44,1363453172
80,14,18,Jits_Linear_8,1,5,56,103,1363455288
80,14,18,Jits_Linear_8,2,5,80,127,1363464808
80,14,18,Jits_Linear_8,3,5,63,98,1363504452
80,14,18,Jits_Linear_8,0,5,80,127,1363985008
80,14,18,Jits_Linear_8,1,5,56,103,1364064660
80,14,18,Jits_Linear_8,2,1,48,41,1364069724
80,14,18,Jits_Linear_8,3,5,63,98,1364074996
80,14,18,Jits_Linear_8,0,5,80,127,1364595136
80,14,18,Jits_Linear_8,1,1,48,50,1364674432
80,14,18,Jits_Linear_8,2,5,56,103,1364676076
80,14,18,Jits_Linear_8,3,5,63,98,1364685296
80,14,18,Jits_Linear_8,0,5,80,127,1365115284
80,14,18,Jits_Linear_8,1,5,56,103,1365165440
80,14,18,Jits_Linear_8,2,5,63,98,1365214668
80,14,18,Jits_Linear_8,3,1,48,49,1365273904
80,14,18,Jits_Linear_8,0,5,56,103,1365734876
80,14,18,Jits_Linear_8,1,5,63,98,1365737864
80,14,18,Jits_Linear_8,2,5,80,127,1365784928
80,14,18,Jits_Linear_8,3,1,48,49,1365807000
80,14,18,Jits_Linear_8,0,5,56,103,1366315476
80,14,18,Jits_Linear_8,1,5,63,98,1366345152
80,14,18,Jits_Linear_8,2,5,80,127,1366355276
80,14,18,Jits_Linear_8,3,1,48,50,1366367388
80,14,18,Jits_Linear_8,0,5,63,98,1366785504
80,14,18,Jits_Linear_8,1,5,56,103,1366854964
80,14,18,Jits_Linear_8,2,5,80,127,1366905092
80,14,18,Jits_Linear_8,3,1,48,44,1366910748
80,14,18,Jits_Linear_8,0,5,63,98,1367375164
80,14,18,Jits_Linear_8,1,5,56,103,1367384304
80,14,18,Jits_Linear_8,2,5,80,127,1367387528
80,14,18,Jits_Linear_8,3,1,48,46,1367452936
80,14,18,Jits_Linear_8,0,5,80,127,1367874968
80,14,18,Jits_Linear_8,1,5,56,103,1367935288
80,14,18,Jits_Linear_8,2,1,48,46,1367993924
80,14,18,Jits_Linear_8,3,5,63,98,1368024516
80,14,18,Jits_Linear_8,0,5,80,127,1368424756
80,14,18,Jits_Linear_8,1,5,56,103,1368525032
80,14,18,Jits_Linear_8,2,1,48,48,1368550392
80,14,18,Jits_Linear_8,3,5,63,98,1368564964
80,14,18,Jits_Linear_8,0,5,56,103,1369024944
80,14,18,Jits_Linear_8,1,5,63,98,1369045328
80,14,18,Jits_Linear_8,2,5,80,127,1369085272
80,14,18,Jits_Linear_8,3,1,48,53,1369107116
80,14,18,Jits_Linear_8,0,5,63,98,1369545088
80,14,18,Jits_Linear_8,1,5,56,103,1369564500
80,14,18,Jits_Linear_8,2,5,80,127,1369664824
80,14,18,Jits_Linear_8,3,1,48,50,1369684128
80,14,18,Jits_Linear_8,0,5,63,98,1370074508
80,14,18,Jits_Linear_8,1,5,80,127,1370185024
80,14,18,Jits_Linear_8,2,1,48,50,1370207472
80,14,18,Jits_Linear_8,3,5,56,103,1370214768
80,14,18,Jits_Linear_8,0,5,56,103,1370634576
80,14,18,Jits_Linear_8,1,5,63,98,1370665448
80,14,18,Jits_Linear_8,2,1,48,39,1370684832
80,14,18,Jits_Linear_8,3,5,80,127,1370714596
80,14,18,Jits_Linear_8,0,5,63,98,1371144600
80,14,18,Jits_Linear_8,1,1,48,40,1371147496
80,14,18,Jits_Linear_8,2,5,56,103,1371175392
80,14,18,Jits_Linear_8,3,5,80,127,1371224768
80,14,18,Jits_Linear_8,0,1,48,40,1371707316
80,14,18,Jits_Linear_8,1,5,56,103,1371714912
80,14,18,Jits_Linear_8,2,5,63,98,1371735448
80,14,18,Jits_Linear_8,3,5,80,127,1371815180
80,14,18,Jits_Linear_8,0,5,63,98,1372224936
80,14,18,Jits_Linear_8,1,1,48,46,1372268060
80,14,18,Jits_Linear_8,2,5,56,103,1372285320
80,14,18,Jits_Linear_8,3,5,80,127,1372314920
80,14,18,Jits_Linear_8,0,1,48,43,1372796324
80,14,18,Jits_Linear_8,1,5,56,103,1372804616
80,14,18,Jits_Linear_8,2,5,80,127,1372865008
80,14,18,Jits_Linear_8,3,5,63,98,1372904784
80,14,18,Jits_Linear_8,0,5,63,98,1373314568
80,14,18,Jits_Linear_8,1,1,48,37,1373322492
80,14,18,Jits_Linear_8,2,5,56,103,1373374804
80,14,18,Jits_Linear_8,3,5,80,127,1373444696
80,14,18,Jits_Linear_8,0,1,48,45,1373912300
80,14,18,Jits_Linear_8,1,5,56,103,1373924680
80,14,18,Jits_Linear_8,2,5,63,98,1373934868
80,14,18,Jits_Linear_8,3,5,80,127,1373938308
80,14,18,Jits_Linear_8,0,5,63,98,1374394688
80,14,18,Jits_Linear_8,1,1,48,46,1374452040
80,14,18,Jits_Linear_8,2,5,56,103,1374455520
80,14,18,Jits_Linear_8,3,5,80,127,1374458656
80,14,18,Jits_Linear_8,0,5,63,98,1374904696
80,14,18,Jits_Linear_8,1,5,80,127,1374935492
80,14,18,Jits_Linear_8,2,5,56,103,1374954756
80,14,18,Jits_Linear_8,3,1,48,42,1374958396
80,14,18,Jits_Linear_8,0,5,56,103,1375435084
80,14,18,Jits_Linear_8,1,5,63,98,1375485364
80,14,18,Jits_Linear_8,2,1,48,41,1375495152
80,14,18,Jits_Linear_8,3,5,80,127,1375565152
80,14,18,Jits_Linear_8,0,5,80,127,1375934704
80,14,18,Jits_Linear_8,1,5,63,98,1375974644
80,14,18,Jits_Linear_8,2,5,56,103,1375995252
80,14,18,Jits_Linear_8,3,1,48,44,1376010652
80,14,18,Jits_Linear_8,0,1,48,46,1376521636
80,14,18,Jits_Linear_8,1,5,56,103,1376524672
80,14,18,Jits_Linear_8,2,5,80,127,1376535088
80,14,18,Jits_Linear_8,3,5,63,98,1376555476
80,14,18,Jits_Linear_8,0,5,56,103,1377025624
80,14,18,Jits_Linear_8,1,1,48,43,1377046280
80,14,18,Jits_Linear_8,2,5,63,98,1377074476
80,14,18,Jits_Linear_8,3,5,80,127,1377105348
80,14,18,Jits_Linear_8,0,5,56,103,1377495572
80,14,18,Jits_Linear_8,1,5,63,98,1377504648
80,14,18,Jits_Linear_8,2,5,80,127,1377554776
80,14,18,Jits_Linear_8,3,1,48,40,1377560956
80,14,18,Jits_Linear_8,0,5,56,103,1378005520
80,14,18,Jits_Linear_8,1,5,80,127,1378008436
80,14,18,Jits_Linear_8,2,1,48,41,1378074648
80,14,18,Jits_Linear_8,3,5,63,98,1378166052
80,14,18,Jits_Linear_8,0,5,63,98,1378534796
80,14,18,Jits_Linear_8,1,5,56,103,1378605528
80,14,18,Jits_Linear_8,2,1,48,39,1378634572
80,14,18,Jits_Linear_8,3,5,80,127,1378645536
80,14,18,Jits_Linear_8,0,5,63,98,1379084600
80,14,18,Jits_Linear_8,1,5,56,103,1379174736
80,14,18,Jits_Linear_8,2,5,80,127,1379177948
80,14,18,Jits_Linear_8,3,1,48,34,1379227024
80,14,18,Jits_Linear_8,0,5,56,103,1379575056
80,14,18,Jits_Linear_8,1,5,63,98,1379665344
80,14,18,Jits_Linear_8,2,5,80,127,1379674640
80,14,18,Jits_Linear_8,3,1,48,52,1379729024
80,14,18,Jits_Linear_8,0,5,56,103,1380055420
80,14,18,Jits_Linear_8,1,5,63,98,1380104504
80,14,18,Jits_Linear_8,2,5,80,127,1380135372
80,14,18,Jits_Linear_8,3,1,48,46,1380247744
80,14,18,Jits_Linear_8,0,5,63,98,1380634908
80,14,18,Jits_Linear_8,1,5,80,127,1380645176
80,14,18,Jits_Linear_8,2,5,56,103,1380704520
80,14,18,Jits_Linear_8,3,1,48,43,1380799052
80,14,18,Jits_Linear_8,0,5,63,98,1381054796
80,14,18,Jits_Linear_8,1,5,80,127,1381115412
80,14,18,Jits_Linear_8,2,5,56,103,1381155128
80,14,18,Jits_Linear_8,3,1,48,38,1381330636
80,14,18,Jits_Linear_8,0,5,56,103,1381654868
80,14,18,Jits_Linear_8,1,5,80,127,1381675480
80,14,18,Jits_Linear_8,2,5,63,98,1381694816
80,14,18,Jits_Linear_8,0,1,48,35,1382014512
80,14,18,Jits_Linear_8,1,5,63,98,1382074776
80,14,18,Jits_Linear_8,2,5,56,103,1382095460
80,14,18,Jits_Linear_8,3,5,80,127,1382135236
80,14,18,Jits_Linear_8,0,5,63,98,1382584800
80,14,18,Jits_Linear_8,1,5,80,127,1382615376
80,14,18,Jits_Linear_8,2,1,48,42,1382626884
80,14,18,Jits_Linear_8,3,5,56,103,1382634928
80,14,18,Jits_Linear_8,0,5,80,127,1383054656
80,14,18,Jits_Linear_8,1,5,56,103,1383104860
80,14,18,Jits_Linear_8,2,5,63,98,1383165624
80,14,18,Jits_Linear_8,3,1,48,38,1383244260
80,14,18,Jits_Linear_8,0,5,63,98,1383534992
80,14,18,Jits_Linear_8,1,5,56,103,1383654672
80,14,18,Jits_Linear_8,2,5,80,127,1383684572
80,14,18,Jits_Linear_8,0,1,48,40,1383881744
80,14,18,Jits_Linear_8,1,5,80,127,1384065352
80,14,18,Jits_Linear_8,2,5,63,98,1384084916
80,14,18,Jits_Linear_8,3,5,56,103,1384154372
80,14,18,Jits_Linear_8,0,1,48,31,1384518388
80,14,18,Jits_Linear_8,1,5,63,98,1384575388
80,14,18,Jits_Linear_8,2,5,56,103,1384584536
80,14,18,Jits_Linear_8,3,5,80,127,1384664464
80,14,18,Jits_Linear_8,0,5,56,103,1385125200
80,14,18,Jits_Linear_8,1,5,80,127,1385154800
80,14,18,Jits_Linear_8,2,1,48,36,1385158968
80,14,18,Jits_Linear_8,3,5,63,98,1385165436
80,14,18,Jits_Linear_8,0,9999,9999,9999,1274782828
80,14,18,Jits_Linear_8,1,9999,9999,9999,1275603064
80,14,18,Jits_Linear_8,2,9999,9999,9999,1276422272
80,14,18,Jits_Linear_8,3,9999,9999,9999,1277242452
80,14,18,Jits_Linear_8,4,9999,9999,9999,1278062680
80,14,18,Jits_Linear_8,5,9999,9999,9999,1278872652
80,14,18,Jits_Linear_8,6,9999,9999,9999,1279682668
80,14,18,Jits_Linear_8,7,9999,9999,9999,1280492628
80,14,18,Jits_Linear_8,8,9999,9999,9999,1281302588
80,14,18,Jits_Linear_8,9,9999,9999,9999,1282112596
80,14,18,Jits_Linear_8,10,9999,9999,9999,1282912368
80,14,18,Jits_Linear_8,11,9999,9999,9999,1283712060
80,14,18,Jits_Linear_8,12,9999,9999,9999,1284512872
80,14,18,Jits_Linear_8,13,9999,9999,9999,1285312636
80,14,18,Jits_Linear_8,14,9999,9999,9999,1286112376
80,14,18,Jits_Linear_8,15,9999,9999,9999,1286902844
80,14,18,Jits_Linear_8,16,9999,9999,9999,1287692392
80,14,18,Jits_Linear_8,17,9999,9999,9999,1288482872
80,14,18,Jits_Linear_8,18,9999,9999,9999,1289272440
80,14,18,Jits_Linear_8,19,9999,9999,9999,1290062916
80,14,18,Jits_Linear_8,20,9999,9999,9999,1290842216
80,14,18,Jits_Linear_8,21,9999,9999,9999,1291622488
80,14,18,Jits_Linear_8,22,9999,9999,9999,1292402768
80,14,18,Jits_Linear_8,23,9999,9999,9999,1293183056
80,14,18,Jits_Linear_8,24,9999,9999,9999,1293962296
80,14,18,Jits_Linear_8,25,9999,9999,9999,1294732384
80,14,18,Jits_Linear_8,26,9999,9999,9999,1295502396
80,14,18,Jits_Linear_8,27,9999,9999,9999,1296272480
80,14,18,Jits_Linear_8,28,9999,9999,9999,1297042504
80,14,18,Jits_Linear_8,29,9999,9999,9999,1297812596
80,14,18,Jits_Linear_8,30,9999,9999,9999,1298572412
80,14,18,Jits_Linear_8,31,9999,9999,9999,1299332160
80,14,18,Jits_Linear_8,32,9999,9999,9999,1300093016
80,14,18,Jits_Linear_8,33,9999,9999,9999,1300852844
80,14,18,Jits_Linear_8,34,9999,9999,9999,1301612604
80,14,18,Jits_Linear_8,35,9999,9999,9999,1302362188
80,14,18,Jits_Linear_8,36,9999,9999,9999,1303112816
80,14,18,Jits_Linear_8,37,9999,9999,9999,1303862392
80,14,18,Jits_Linear_8,38,9999,9999,9999,1304612932
80,14,18,Jits_Linear_8,39,9999,9999,9999,1305362508
80,14,18,Jits_Linear_8,40,9999,9999,9999,1306102872
80,14,18,Jits_Linear_8,41,9999,9999,9999,1306842180
80,14,18,Jits_Linear_8,42,9999,9999,9999,1307582520
80,14,18,Jits_Linear_8,43,9999,9999,9999,1308322940
80,14,18,Jits_Linear_8,44,9999,9999,9999,1309062220
80,14,18,Jits_Linear_8,45,9999,9999,9999,1309792352
80,14,18,Jits_Linear_8,46,9999,9999,9999,1310522448
80,14,18,Jits_Linear_8,47,9999,9999,9999,1311252540
80,14,18,Jits_Linear_8,48,9999,9999,9999,1311982708
80,14,18,Jits_Linear_8,49,9999,9999,9999,1312712796
80,14,18,Jits_Linear_8,50,9999,9999,9999,1313432680
80,14,18,Jits_Linear_8,51,9999,9999,9999,1314152560
80,14,18,Jits_Linear_8,52,9999,9999,9999,1314872392
80,14,18,Jits_Linear_8,53,9999,9999,9999,1315592300
80,14,18,Jits_Linear_8,54,9999,9999,9999,1316312184
80,14,18,Jits_Linear_8,55,9999,9999,9999,1317022796
80,14,18,Jits_Linear_8,56,9999,9999,9999,1317732468
80,14,18,Jits_Linear_8,57,9999,9999,9999,1318443080
80,14,18,Jits_Linear_8,58,9999,9999,9999,1319162984
80,14,18,Jits_Linear_8,59,9999,9999,9999,1319872620
80,14,18,Jits_Linear_8,60,9999,9999,9999,1320573016
80,14,18,Jits_Linear_8,61,9999,9999,9999,1321272396
80,14,18,Jits_Linear_8,62,9999,9999,9999,1321972816
80,14,18,Jits_Linear_8,63,9999,9999,9999,1322672248
80,14,18,Jits_Linear_8,64,9999,9999,9999,1323372648
80,14,18,Jits_Linear_8,65,9999,9999,9999,1324062800
80,14,18,Jits_Linear_8,66,9999,9999,9999,1324752972
80,14,18,Jits_Linear_8,67,9999,9999,9999,1325442148
80,14,18,Jits_Linear_8,68,9999,9999,9999,1326132348
80,14,18,Jits_Linear_8,69,9999,9999,9999,1326822512
80,14,18,Jits_Linear_8,70,9999,9999,9999,1327502404
80,14,18,Jits_Linear_8,71,9999,9999,9999,1328182344
80,14,18,Jits_Linear_8,72,9999,9999,9999,1328862316
80,14,18,Jits_Linear_8,73,9999,9999,9999,1329542216
80,14,18,Jits_Linear_8,74,9999,9999,9999,1330222168
80,14,18,Jits_Linear_8,75,9999,9999,9999,1330892912
80,14,18,Jits_Linear_8,76,9999,9999,9999,1331562592
80,14,18,Jits_Linear_8,77,9999,9999,9999,1332232308
80,14,18,Jits_Linear_8,78,9999,9999,9999,1332902980
80,14,18,Jits_Linear_8,79,9999,9999,9999,1333572736
80,14,18,Jits_Linear_8,80,9999,9999,9999,1334232172
80,14,18,Jits_Linear_8,81,9999,9999,9999,1334892620
80,14,18,Jits_Linear_8,82,9999,9999,9999,1335552124
80,14,18,Jits_Linear_8,83,9999,9999,9999,1336212600
80,14,18,Jits_Linear_8,84,9999,9999,9999,1336873060
80,14,18,Jits_Linear_8,85,9999,9999,9999,1337522244
80,14,18,Jits_Linear_8,86,9999,9999,9999,1338172524
80,14,18,Jits_Linear_8,87,9999,9999,9999,1338822732
80,14,18,Jits_Linear_8,88,9999,9999,9999,1339472992
80,14,18,Jits_Linear_8,89,9999,9999,9999,1340122168
80,14,18,Jits_Linear_8,90,9999,9999,9999,1340762180
80,14,18,Jits_Linear_8,91,9999,9999,9999,1341402216
80,14,18,Jits_Linear_8,92,9999,9999,9999,1342042232
80,14,18,Jits_Linear_8,93,9999,9999,9999,1342682184
80,14,18,Jits_Linear_8,94,9999,9999,9999,1343322180
80,14,18,Jits_Linear_8,95,9999,9999,9999,1343953004
80,14,18,Jits_Linear_8,96,9999,9999,9999,1344582752
80,14,18,Jits_Linear_8,97,9999,9999,9999,1345212512
80,14,18,Jits_Linear_8,98,9999,9999,9999,1345842264
80,14,18,Jits_Linear_8,99,9999,9999,9999,1346473016
80,14,18,Jits_Linear_8,100,9999,9999,9999,1347092568
80,14,18,Jits_Linear_8,101,9999,9999,9999,1347712124
80,14,18,Jits_Linear_8,102,9999,9999,9999,1348332672
80,14,18,Jits_Linear_8,103,9999,9999,9999,1348952140
80,14,18,Jits_Linear_8,104,9999,9999,9999,1349572696
80,14,18,Jits_Linear_8,105,9999,9999,9999,1350183036
80,14,18,Jits_Linear_8,106,9999,9999,9999,1350792264
80,14,18,Jits_Linear_8,107,9999,9999,9999,1351402576
80,14,18,Jits_Linear_8,108,9999,9999,9999,1352012908
80,14,18,Jits_Linear_8,109,9999,9999,9999,1352622140
80,14,18,Jits_Linear_8,110,9999,9999,9999,1353222224
80,14,18,Jits_Linear_8,111,9999,9999,9999,1353822296
80,14,18,Jits_Linear_8,112,9999,9999,9999,1354422400
80,14,18,Jits_Linear_8,113,9999,9999,9999,1355022404
80,14,18,Jits_Linear_8,114,9999,9999,9999,1355622488
80,14,18,Jits_Linear_8,115,9999,9999,9999,1356212316
80,14,18,Jits_Linear_8,116,9999,9999,9999,1356802140
80,14,18,Jits_Linear_8,117,9999,9999,9999,1357393016
80,14,18,Jits_Linear_8,118,9999,9999,9999,1357982788
80,14,18,Jits_Linear_8,119,9999,9999,9999,1358572600
80,14,18,Jits_Linear_8,120,9999,9999,9999,1359152232
80,14,18,Jits_Linear_8,121,9999,9999,9999,1359732820
80,14,18,Jits_Linear_8,122,9999,9999,9999,1360312384
80,14,18,Jits_Linear_8,123,9999,9999,9999,1360893036
80,14,18,Jits_Linear_8,124,9999,9999,9999,1361472572
80,14,18,Jits_Linear_8,125,9999,9999,9999,1362042964
80,14,18,Jits_Linear_8,126,9999,9999,9999,1362612332
80,14,18,Jits_Linear_8,127,9999,9999,9999,1363182660
80,14,18,Jits_Linear_8,128,9999,9999,9999,1363753064
80,14,18,Jits_Linear_8,129,9999,9999,9999,1364322416
80,14,18,Jits_Linear_8,130,9999,9999,9999,1364882524
80,14,18,Jits_Linear_8,131,9999,9999,9999,1365442676
80,14,18,Jits_Linear_8,132,9999,9999,9999,1366002744
80,14,18,Jits_Linear_8,133,9999,9999,9999,1366562904
80,14,18,Jits_Linear_8,134,9999,9999,9999,1367123060
80,14,18,Jits_Linear_8,135,9999,9999,9999,1367672920
80,14,18,Jits_Linear_8,136,9999,9999,9999,1368222788
80,14,18,Jits_Linear_8,137,9999,9999,9999,1368772676
80,14,18,Jits_Linear_8,138,9999,9999,9999,1369322564
80,14,18,Jits_Linear_8,139,9999,9999,9999,1369872452
80,14,18,Jits_Linear_8,140,9999,9999,9999,1370412140
80,14,18,Jits_Linear_8,141,9999,9999,9999,1370952796
80,14,18,Jits_Linear_8,142,9999,9999,9999,1371492412
80,14,18,Jits_Linear_8,143,9999,9999,9999,1372032120
80,14,18,Jits_Linear_8,144,9999,9999,9999,1372572748
80,14,18,Jits_Linear_8,145,9999,9999,9999,1373102176
80,14,18,Jits_Linear_8,146,9999,9999,9999,1373632572
80,14,18,Jits_Linear_8,147,9999,9999,9999,1374163036
80,14,18,Jits_Linear_8,148,9999,9999,9999,1374692448
80,14,18,Jits_Linear_8,149,9999,9999,9999,1375222840
80,14,18,Jits_Linear_8,150,9999,9999,9999,1375743048
80,14,18,Jits_Linear_8,151,9999,9999,9999,1376262216
80,14,18,Jits_Linear_8,152,9999,9999,9999,1376782440
80,14,18,Jits_Linear_8,153,9999,9999,9999,1377302648
80,14,18,Jits_Linear_8,154,9999,9999,9999,1377822784
80,14,18,Jits_Linear_8,155,9999,9999,9999,1378332728
80,14,18,Jits_Linear_8,156,9999,9999,9999,1378842684
80,14,18,Jits_Linear_8,157,9999,9999,9999,1379352696
80,14,18,Jits_Linear_8,158,9999,9999,9999,1379862644
80,14,18,Jits_Linear_8,159,9999,9999,9999,1380372596
80,14,18,Jits_Linear_8,160,9999,9999,9999,1380872308
80,14,18,Jits_Linear_8,161,9999,9999,9999,1381373032
80,14,18,Jits_Linear_8,162,9999,9999,9999,1381872728
80,14,18,Jits_Linear_8,163,9999,9999,9999,1382372476
80,14,18,Jits_Linear_8,164,9999,9999,9999,1382872156
80,14,18,Jits_Linear_8,165,9999,9999,9999,1383362616
80,14,18,Jits_Linear_8,166,9999,9999,9999,1383852148
80,14,18,Jits_Linear_8,167,9999,9999,9999,1384342620
80,14,18,Jits_Linear_8,168,9999,9999,9999,1384832112
80,14,18,Jits_Linear_8,169,9999,9999,9999,1385322560
80,15,19,Jits_Linear_5,0,5,56,103,1394667920
80,15,19,Jits_Linear_5,1,5,63,98,1394670944
80,15,19,Jits_Linear_5,2,5,80,127,1394674216
80,15,19,Jits_Linear_5,0,5,56,103,1395148076
80,15,19,Jits_Linear_5,1,5,63,98,1395151104
80,15,19,Jits_Linear_5,2,5,80,127,1395154452
80,15,19,Jits_Linear_5,0,5,56,103,1395628336
80,15,19,Jits_Linear_5,1,5,80,127,1395637488
80,15,19,Jits_Linear_5,2,5,63,98,1395658168
80,15,19,Jits_Linear_5,0,5,63,98,1396057320
80,15,19,Jits_Linear_5,1,5,80,127,1396088120
80,15,19,Jits_Linear_5,2,5,56,103,1396098268
80,15,19,Jits_Linear_5,0,1,48,54,1396538044
80,15,19,Jits_Linear_5,1,5,80,127,1396598084
80,15,19,Jits_Linear_5,2,5,56,103,1396608232
80,15,19,Jits_Linear_5,3,5,63,98,1396638116
80,15,19,Jits_Linear_5,0,1,48,52,1397045984
80,15,19,Jits_Linear_5,1,5,63,98,1397078372
80,15,19,Jits_Linear_5,2,5,56,103,1397108196
80,15,19,Jits_Linear_5,3,5,80,127,1397118344
80,15,19,Jits_Linear_5,0,5,56,103,1397517756
80,15,19,Jits_Linear_5,1,5,63,98,1397568184
80,15,19,Jits_Linear_5,2,1,48,53,1397580148
80,15,19,Jits_Linear_5,3,5,80,127,1397588264
80,15,19,Jits_Linear_5,0,5,80,127,1398008316
80,15,19,Jits_Linear_5,1,1,48,48,1398046580
80,15,19,Jits_Linear_5,2,5,63,98,1398058216
80,15,19,Jits_Linear_5,3,5,56,103,1398098304
80,15,19,Jits_Linear_5,0,5,56,103,1398497532
80,15,19,Jits_Linear_5,1,1,48,48,1398524468
80,15,19,Jits_Linear_5,2,5,63,98,1398528324
80,15,19,Jits_Linear_5,3,5,80,127,1398598008
80,15,19,Jits_Linear_5,0,5,56,103,1398988092
80,15,19,Jits_Linear_5,1,1,48,47,1399018112
80,15,19,Jits_Linear_5,2,5,80,127,1399047432
80,15,19,Jits_Linear_5,3,5,63,98,1399078228
80,15,19,Jits_Linear_5,0,5,56,103,1399487948
80,15,19,Jits_Linear_5,1,5,63,98,1399498220
80,15,19,Jits_Linear_5,2,1,48,48,1399509136
80,15,19,Jits_Linear_5,3,5,80,127,1399538000
80,15,19,Jits_Linear_5,0,5,63,98,1399978284
80,15,19,Jits_Linear_5,1,1,48,36,1399986128
80,15,19,Jits_Linear_5,2,5,80,127,1400058152
80,15,19,Jits_Linear_5,3,5,56,103,1400067300
80,15,19,Jits_Linear_5,0,1,48,49,1400507540
80,15,19,Jits_Linear_5,1,5,63,98,1400528240
80,15,19,Jits_Linear_5,2,5,56,103,1400568180
80,15,19,Jits_Linear_5,3,5,80,127,1400571168
80,15,19,Jits_Linear_5,0,5,56,103,1400988140
80,15,19,Jits_Linear_5,1,5,63,98,1400998188
80,15,19,Jits_Linear_5,2,1,48,45,1401017796
80,15,19,Jits_Linear_5,3,5,80,127,1401038124
80,15,19,Jits_Linear_5,0,5,56,103,1401477504
80,15,19,Jits_Linear_5,1,5,63,98,1401480344
80,15,19,Jits_Linear_5,2,5,80,127,1401498184
80,15,19,Jits_Linear_5,3,1,48,41,1401503324
80,15,19,Jits_Linear_5,0,1,48,49,1401957280
80,15,19,Jits_Linear_5,1,5,80,127,1401997640
80,15,19,Jits_Linear_5,2,5,56,103,1402008208
80,15,19,Jits_Linear_5,3,5,63,98,1402077656
80,15,19,Jits_Linear_5,0,5,63,98,1402498456
80,15,19,Jits_Linear_5,1,1,48,45,1402504864
80,15,19,Jits_Linear_5,2,5,56,103,1402518084
80,15,19,Jits_Linear_5,3,5,80,127,1402597884
80,15,19,Jits_Linear_5,0,5,56,103,1403017696
80,15,19,Jits_Linear_5,1,1,48,45,1403023060
80,15,19,Jits_Linear_5,2,5,80,127,1403057408
80,15,19,Jits_Linear_5,3,5,63,98,1403068124
80,15,19,Jits_Linear_5,0,5,80,127,1403518444
80,15,19,Jits_Linear_5,1,1,48,47,1403521116
80,15,19,Jits_Linear_5,2,5,63,98,1403548040
80,15,19,Jits_Linear_5,3,5,56,103,1403588056
80,15,19,Jits_Linear_5,0,1,48,46,1404021156
80,15,19,Jits_Linear_5,1,5,56,103,1404047660
80,15,19,Jits_Linear_5,2,5,63,98,1404077412
80,15,19,Jits_Linear_5,3,5,80,127,1404127452
80,15,19,Jits_Linear_5,0,1,48,47,1404543124
80,15,19,Jits_Linear_5,1,5,80,127,1404557688
80,15,19,Jits_Linear_5,2,5,56,103,1404597708
80,15,19,Jits_Linear_5,3,5,63,98,1404607976
80,15,19,Jits_Linear_5,0,5,80,127,1405058284
80,15,19,Jits_Linear_5,1,1,48,51,1405073612
80,15,19,Jits_Linear_5,2,5,63,98,1405098220
80,15,19,Jits_Linear_5,3,5,56,103,1405157860
80,15,19,Jits_Linear_5,0,5,56,103,1405577616
80,15,19,Jits_Linear_5,1,5,80,127,1405588040
80,15,19,Jits_Linear_5,2,1,48,53,1405595816
80,15,19,Jits_Linear_5,3,5,63,98,1405667900
80,15,19,Jits_Linear_5,0,5,80,127,1406097772
80,15,19,Jits_Linear_5,1,1,48,50,1406123732
80,15,19,Jits_Linear_5,2,5,63,98,1406158156
80,15,19,Jits_Linear_5,3,5,56,103,1406187980
80,15,19,Jits_Linear_5,0,5,56,103,1406617924
80,15,19,Jits_Linear_5,1,1,48,52,1406635048
80,15,19,Jits_Linear_5,2,5,80,127,1406678312
80,15,19,Jits_Linear_5,3,5,63,98,1406718252
80,15,19,Jits_Linear_5,0,1,48,60,1407152652
80,15,19,Jits_Linear_5,1,5,56,103,1407197488
80,15,19,Jits_Linear_5,2,5,63,98,1407208136
80,15,19,Jits_Linear_5,3,5,80,127,1407211344
80,15,19,Jits_Linear_5,0,5,80,127,1407677916
80,15,19,Jits_Linear_5,1,1,48,47,1407689576
80,15,19,Jits_Linear_5,2,5,63,98,1407768124
80,15,19,Jits_Linear_5,3,5,56,103,1407778096
80,15,19,Jits_Linear_5,0,1,48,52,1408188608
80,15,19,Jits_Linear_5,1,5,56,103,1408208244
80,15,19,Jits_Linear_5,2,5,63,98,1408211420
80,15,19,Jits_Linear_5,3,5,80,127,1408214464
80,15,19,Jits_Linear_5,0,1,48,57,1408734784
80,15,19,Jits_Linear_5,1,5,80,127,1408758196
80,15,19,Jits_Linear_5,2,5,63,98,1408808328
80,15,19,Jits_Linear_5,3,5,56,103,1408838060
80,15,19,Jits_Linear_5,0,1,48,51,1409263700
80,15,19,Jits_Linear_5,1,5,56,103,1409268076
80,15,19,Jits_Linear_5,2,5,80,127,1409278272
80,15,19,Jits_Linear_5,3,5,63,98,1409347880
80,15,19,Jits_Linear_5,0,1,48,47,1409805108
80,15,19,Jits_Linear_5,1,5,56,103,1409807844
80,15,19,Jits_Linear_5,2,5,63,98,1409828156
80,15,19,Jits_Linear_5,3,5,80,127,1409887872
80,15,19,Jits_Linear_5,0,1,48,56,1410313860
80,15,19,Jits_Linear_5,1,5,80,127,1410338168
80,15,19,Jits_Linear_5,2,5,63,98,1410407764
80,15,19,Jits_Linear_5,3,5,56,103,1410428372
80,15,19,Jits_Linear_5,0,1,48,54,1410884728
80,15,19,Jits_Linear_5,1,5,80,127,1410898244
80,15,19,Jits_Linear_5,2,5,56,103,1410907468
80,15,19,Jits_Linear_5,3,5,63,98,1410917740
80,15,19,Jits_Linear_5,0,1,48,46,1411386816
80,15,19,Jits_Linear_5,1,5,80,127,1411427820
80,15,19,Jits_Linear_5,2,5,56,103,1411448280
80,15,19,Jits_Linear_5,3,5,63,98,1411518120
80,15,19,Jits_Linear_5,0,1,48,48,1411959100
80,15,19,Jits_Linear_5,1,5,56,103,1411977728
80,15,19,Jits_Linear_5,2,5,80,127,1412008380
80,15,19,Jits_Linear_5,3,5,63,98,1412028016
80,15,19,Jits_Linear_5,0,1,48,53,1412513344
80,15,19,Jits_Linear_5,1,5,63,98,1412518176
80,15,19,Jits_Linear_5,2,5,56,103,1412577896
80,15,19,Jits_Linear_5,3,5,80,127,1412608248
80,15,19,Jits_Linear_5,0,5,63,98,1413057880
80,15,19,Jits_Linear_5,1,5,80,127,1413061020
80,15,19,Jits_Linear_5,2,1,48,53,1413085804
80,15,19,Jits_Linear_5,3,5,56,103,1413148080
80,15,19,Jits_Linear_5,0,1,48,52,1413593552
80,15,19,Jits_Linear_5,1,5,56,103,1413628204
80,15,19,Jits_Linear_5,2,5,63,98,1413658028
80,15,19,Jits_Linear_5,3,5,80,127,1413697804
80,15,19,Jits_Linear_5,0,1,48,54,1414118576
80,15,19,Jits_Linear_5,1,5,63,98,1414188580
80,15,19,Jits_Linear_5,2,5,56,103,1414228504
80,15,19,Jits_Linear_5,3,5,80,127,1414247768
80,15,19,Jits_Linear_5,0,1,48,57,1414678352
80,15,19,Jits_Linear_5,1,5,63,98,1414747464
80,15,19,Jits_Linear_5,2,5,56,103,1414787712
80,15,19,Jits_Linear_5,3,5,80,127,1414797760
80,15,19,Jits_Linear_5,0,1,48,51,1415274760
80,15,19,Jits_Linear_5,1,5,80,127,1415288056
80,15,19,Jits_Linear_5,2,5,63,98,1415357840
80,15,19,Jits_Linear_5,3,5,56,103,1415378284
80,15,19,Jits_Linear_5,0,1,48,51,1415822948
80,15,19,Jits_Linear_5,1,5,56,103,1415838264
80,15,19,Jits_Linear_5,2,5,80,127,1415857604
80,15,19,Jits_Linear_5,3,5,63,98,1415897692
80,15,19,Jits_Linear_5,0,1,48,56,1416350504
80,15,19,Jits_Linear_5,1,5,63,98,1416408524
80,15,19,Jits_Linear_5,2,5,80,127,1416427792
80,15,19,Jits_Linear_5,3,5,56,103,1416467864
80,15,19,Jits_Linear_5,0,1,48,50,1416937104
80,15,19,Jits_Linear_5,1,5,63,98,1416967848
80,15,19,Jits_Linear_5,2,5,56,103,1416988084
80,15,19,Jits_Linear_5,3,5,80,127,1416998356
80,15,19,Jits_Linear_5,0,1,48,54,1417481060
80,15,19,Jits_Linear_5,1,5,80,127,1417527844
80,15,19,Jits_Linear_5,2,5,56,103,1417548008
80,15,19,Jits_Linear_5,3,5,63,98,1417577744
80,15,19,Jits_Linear_5,0,1,48,52,1418063004
80,15,19,Jits_Linear_5,1,5,56,103,1418167864
80,15,19,Jits_Linear_5,2,5,80,127,1418170780
80,15,19,Jits_Linear_5,3,5,63,98,1418188248
80,15,19,Jits_Linear_5,0,5,63,98,1418658056
80,15,19,Jits_Linear_5,1,1,48,43,1418670612
80,15,19,Jits_Linear_5,2,5,56,103,1418687724
80,15,19,Jits_Linear_5,3,5,80,127,1418748712
80,15,19,Jits_Linear_5,0,1,48,54,1419204516
80,15,19,Jits_Linear_5,1,5,63,98,1419308388
80,15,19,Jits_Linear_5,2,5,56,103,1419317688
80,15,19,Jits_Linear_5,3,5,80,127,1419327808
80,15,19,Jits_Linear_5,0,5,56,103,1419827656
80,15,19,Jits_Linear_5,1,1,48,45,1419835184
80,15,19,Jits_Linear_5,2,5,80,127,1419858224
80,15,19,Jits_Linear_5,3,5,63,98,1419867596
80,15,19,Jits_Linear_5,0,1,48,50,1420381788
80,15,19,Jits_Linear_5,1,5,63,98,1420437740
80,15,19,Jits_Linear_5,2,5,56,103,1420448084
80,15,19,Jits_Linear_5,3,5,80,127,1420467720
80,15,19,Jits_Linear_5,0,5,56,103,1420937660
80,15,19,Jits_Linear_5,1,1,48,48,1420951488
80,15,19,Jits_Linear_5,2,5,63,98,1420997972
80,15,19,Jits_Linear_5,3,5,80,127,1421001336
80,15,19,Jits_Linear_5,0,1,48,48,1421498976
80,15,19,Jits_Linear_5,1,5,80,127,1421537816
80,15,19,Jits_Linear_5,2,5,56,103,1421548012
80,15,19,Jits_Linear_5,3,5,63,98,1421617604
80,15,19,Jits_Linear_5,0,1,48,50,1422092012
80,15,19,Jits_Linear_5,1,5,80,127,1422107928
80,15,19,Jits_Linear_5,2,5,56,103,1422177540
80,15,19,Jits_Linear_5,3,5,63,98,1422187868
80,15,19,Jits_Linear_5,0,1,48,43,1422675680
80,15,19,Jits_Linear_5,1,5,63,98,1422727744
80,15,19,Jits_Linear_5,2,5,56,103,1422737716
80,15,19,Jits_Linear_5,3,5,80,127,1422758248
80,15,19,Jits_Linear_5,0,1,48,47,1423244248
80,15,19,Jits_Linear_5,1,5,80,127,1423257848
80,15,19,Jits_Linear_5,2,5,63,98,1423318612
80,15,19,Jits_Linear_5,3,5,56,103,1423358464
80,15,19,Jits_Linear_5,0,1,48,45,1423859104
80,15,19,Jits_Linear_5,1,5,56,103,1423887604
80,15,19,Jits_Linear_5,2,5,63,98,1423897948
80,15,19,Jits_Linear_5,3,5,80,127,1423937888
80,15,19,Jits_Linear_5,0,1,48,55,1424432436
80,15,19,Jits_Linear_5,1,5,56,103,1424437640
80,15,19,Jits_Linear_5,2,5,80,127,1424468436
80,15,19,Jits_Linear_5,3,5,63,98,1424517616
80,15,19,Jits_Linear_5,0,1,48,53,1425052544
80,15,19,Jits_Linear_5,1,5,56,103,1425068760
80,15,19,Jits_Linear_5,2,5,63,98,1425108628
80,15,19,Jits_Linear_5,3,5,80,127,1425111840
80,15,19,Jits_Linear_5,0,1,48,44,1425603248
80,15,19,Jits_Linear_5,1,5,56,103,1425658352
80,15,19,Jits_Linear_5,2,5,63,98,1425667652
80,15,19,Jits_Linear_5,3,5,80,127,1425687964
80,15,19,Jits_Linear_5,0,5,56,103,1426218432
80,15,19,Jits_Linear_5,1,5,80,127,1426221496
80,15,19,Jits_Linear_5,2,1,48,39,1426242828
80,15,19,Jits_Linear_5,3,5,63,98,1426258288
80,15,19,Jits_Linear_5,0,1,48,48,1426806652
80,15,19,Jits_Linear_5,1,5,63,98,1426847984
80,15,19,Jits_Linear_5,2,5,56,103,1426877732
80,15,19,Jits_Linear_5,3,5,80,127,1426898268
80,15,19,Jits_Linear_5,0,1,48,51,1427413192
80,15,19,Jits_Linear_5,1,5,80,127,1427417792
80,15,19,Jits_Linear_5,2,5,56,103,1427427764
80,15,19,Jits_Linear_5,3,5,63,98,1427438036
80,15,19,Jits_Linear_5,0,1,48,45,1427969592
80,15,19,Jits_Linear_5,1,5,56,103,1428017496
80,15,19,Jits_Linear_5,2,5,80,127,1428057660
80,15,19,Jits_Linear_5,3,5,63,98,1428088296
80,15,19,Jits_Linear_5,0,1,48,51,1428567580
80,15,19,Jits_Linear_5,1,5,63,98,1428627868
80,15,19,Jits_Linear_5,2,5,80,127,1428637992
80,15,19,Jits_Linear_5,3,5,56,103,1428648336
80,15,19,Jits_Linear_5,0,1,48,48,1429176532
80,15,19,Jits_Linear_5,1,5,56,103,1429208688
80,15,19,Jits_Linear_5,2,5,63,98,1429278060
80,15,19,Jits_Linear_5,3,5,80,127,1429288408
80,15,19,Jits_Linear_5,0,1,48,51,1429765748
80,15,19,Jits_Linear_5,1,5,80,127,1429817768
80,15,19,Jits_Linear_5,2,5,56,103,1429827964
80,15,19,Jits_Linear_5,3,5,63,98,1429878224
80,15,19,Jits_Linear_5,0,1,48,60,1430387696
80,15,19,Jits_Linear_5,1,5,80,127,1430438396
80,15,19,Jits_Linear_5,2,5,56,103,1430497580
80,15,19,Jits_Linear_5,3,5,63,98,1430528452
80,15,19,Jits_Linear_5,0,1,48,45,1431030436
80,15,19,Jits_Linear_5,1,5,56,103,1431047620
80,15,19,Jits_Linear_5,2,5,80,127,1431050684
80,15,19,Jits_Linear_5,3,5,63,98,1431087412
80,15,19,Jits_Linear_5,0,1,48,46,1431592736
80,15,19,Jits_Linear_5,1,5,56,103,1431687712
80,15,19,Jits_Linear_5,2,5,63,98,1431718360
80,15,19,Jits_Linear_5,3,5,80,127,1431727512
80,15,19,Jits_Linear_5,0,1,48,41,1432233160
80,15,19,Jits_Linear_5,1,5,63,98,1432308116
80,15,19,Jits_Linear_5,2,5,80,127,1432318608
80,15,19,Jits_Linear_5,3,5,56,103,1432327448
80,15,19,Jits_Linear_5,0,1,48,48,1432845992
80,15,19,Jits_Linear_5,1,5,80,127,1432868340
80,15,19,Jits_Linear_5,2,5,56,103,1432918468
80,15,19,Jits_Linear_5,3,5,63,98,1432921460
80,15,19,Jits_Linear_5,0,1,48,40,1433458048
80,15,19,Jits_Linear_5,1,5,56,103,1433517288
80,15,19,Jits_Linear_5,2,5,80,127,1433538044
80,15,19,Jits_Linear_5,3,5,63,98,1433548316
80,15,19,Jits_Linear_5,0,1,48,45,1434060396
80,15,19,Jits_Linear_5,1,5,63,98,1434117520
80,15,19,Jits_Linear_5,2,5,56,103,1434148616
80,15,19,Jits_Linear_5,3,5,80,127,1434167792
80,15,19,Jits_Linear_5,0,1,48,48,1434690372
80,15,19,Jits_Linear_5,1,5,56,103,1434748340
80,15,19,Jits_Linear_5,2,5,80,127,1434757416
80,15,19,Jits_Linear_5,3,5,63,98,1434828352
80,15,19,Jits_Linear_5,0,1,48,48,1435312872
80,15,19,Jits_Linear_5,1,5,63,98,1435357560
80,15,19,Jits_Linear_5,2,5,80,127,1435397504
80,15,19,Jits_Linear_5,3,5,56,103,1435437428
80,15,19,Jits_Linear_5,0,1,48,48,1435943448
80,15,19,Jits_Linear_5,1,5,56,103,1435997652
80,15,19,Jits_Linear_5,2,5,63,98,1436007772
80,15,19,Jits_Linear_5,3,5,80,127,1436028480
80,15,19,Jits_Linear_5,0,1,48,42,1436576748
80,15,19,Jits_Linear_5,1,5,63,98,1436668332
80,15,19,Jits_Linear_5,2,5,80,127,1436687584
80,15,19,Jits_Linear_5,3,5,56,103,1436708416
80,15,19,Jits_Linear_5,0,1,48,46,1437229800
80,15,19,Jits_Linear_5,1,5,56,103,1437237548
80,15,19,Jits_Linear_5,2,5,80,127,1437317448
80,15,19,Jits_Linear_5,3,5,63,98,1437327776
80,15,19,Jits_Linear_5,0,1,48,38,1437899736
80,15,19,Jits_Linear_5,1,5,80,127,1437908456
80,15,19,Jits_Linear_5,2,5,63,98,1437917608
80,15,19,Jits_Linear_5,3,5,56,103,1437948404
80,15,19,Jits_Linear_5,0,1,48,46,1438478168
80,15,19,Jits_Linear_5,1,5,63,98,1438498348
80,15,19,Jits_Linear_5,2,5,80,127,1438538212
80,15,19,Jits_Linear_5,3,5,56,103,1438597348
80,15,19,Jits_Linear_5,0,1,48,53,1439134532
80,15,19,Jits_Linear_5,1,5,63,98,1439138240
80,15,19,Jits_Linear_5,2,5,56,103,1439188372
80,15,19,Jits_Linear_5,3,5,80,127,1439217972
80,15,19,Jits_Linear_5,0,5,80,127,1439788452
80,15,19,Jits_Linear_5,1,1,48,50,1439795408
80,15,19,Jits_Linear_5,2,5,63,98,1439797520
80,15,19,Jits_Linear_5,3,5,56,103,1439868272
80,15,19,Jits_Linear_5,0,1,48,51,1440420828
80,15,19,Jits_Linear_5,1,5,80,127,1440497956
80,15,19,Jits_Linear_5,2,5,56,103,1440508228
80,15,19,Jits_Linear_5,3,5,63,98,1440511292
80,15,19,Jits_Linear_5,0,5,56,103,1441077584
80,15,19,Jits_Linear_5,1,1,48,41,1441098268
80,15,19,Jits_Linear_5,2,5,80,127,1441099604
80,15,19,Jits_Linear_5,3,5,63,98,1441108384
80,15,19,Jits_Linear_5,0,1,48,45,1441717980
80,15,19,Jits_Linear_5,1,5,63,98,1441727744
80,15,19,Jits_Linear_5,2,5,56,103,1441767688
80,15,19,Jits_Linear_5,3,5,80,127,1441788444
80,15,19,Jits_Linear_5,0,1,48,51,1442371928
80,15,19,Jits_Linear_5,1,5,63,98,1442378028
80,15,19,Jits_Linear_5,2,5,56,103,1442437472
80,15,19,Jits_Linear_5,3,5,80,127,1442440536
80,15,19,Jits_Linear_5,0,5,56,103,1442988320
80,15,19,Jits_Linear_5,1,1,48,46,1443005760
80,15,19,Jits_Linear_5,2,5,80,127,1443007800
80,15,19,Jits_Linear_5,3,5,63,98,1443047664
80,15,19,Jits_Linear_5,0,1,48,42,1443597292
80,15,19,Jits_Linear_5,1,5,56,103,1443668348
80,15,19,Jits_Linear_5,2,5,63,98,1443687760
80,15,19,Jits_Linear_5,3,5,80,127,1443698164
80,15,19,Jits_Linear_5,0,1,48,53,1444265640
80,15,19,Jits_Linear_5,1,5,80,127,1444287784
80,15,19,Jits_Linear_5,2,5,56,103,1444317532
80,15,19,Jits_Linear_5,3,5,63,98,1444357620
80,15,19,Jits_Linear_5,0,1,48,32,1444874784
80,15,19,Jits_Linear_5,1,5,80,127,1444948392
80,15,19,Jits_Linear_5,2,5,56,103,1444967656
80,15,19,Jits_Linear_5,3,5,63,98,1445028356
80,15,19,Jits_Linear_5,0,1,48,41,1445564268
80,15,19,Jits_Linear_5,1,5,56,103,1445607912
80,15,19,Jits_Linear_5,2,5,80,127,1445628224
80,15,19,Jits_Linear_5,3,5,63,98,1445687552
80,15,19,Jits_Linear_5,0,1,48,40,1446219128
80,15,19,Jits_Linear_5,1,5,80,127,1446247924
80,15,19,Jits_Linear_5,2,5,56,103,1446258196
80,15,19,Jits_Linear_5,3,5,63,98,1446298232
80,15,19,Jits_Linear_5,0,1,48,47,1446841624
80,15,19,Jits_Linear_5,1,5,63,98,1446908264
80,15,19,Jits_Linear_5,2,5,56,103,1446948188
80,15,19,Jits_Linear_5,3,5,80,127,1446951252
80,15,19,Jits_Linear_5,0,1,48,43,1447523268
80,15,19,Jits_Linear_5,1,5,63,98,1447588292
80,15,19,Jits_Linear_5,2,5,80,127,1447628292
80,15,19,Jits_Linear_5,3,5,56,103,1447657820
80,15,19,Jits_Linear_5,0,1,48,47,1448144500
80,15,19,Jits_Linear_5,1,5,56,103,1448237524
80,15,19,Jits_Linear_5,2,5,63,98,1448247780
80,15,19,Jits_Linear_5,3,5,80,127,1448278428
80,15,19,Jits_Linear_5,0,1,48,44,1448838196
80,15,19,Jits_Linear_5,1,5,80,127,1448898008
80,15,19,Jits_Linear_5,2,5,63,98,1448967528
80,15,19,Jits_Linear_5,3,5,56,103,1448977800
80,15,19,Jits_Linear_5,0,1,48,44,1449492512
80,15,19,Jits_Linear_5,1,5,63,98,1449567544
80,15,19,Jits_Linear_5,2,5,56,103,1449638212
80,15,19,Jits_Linear_5,3,5,80,127,1449647584
80,15,19,Jits_Linear_5,0,1,48,44,1450182220
80,15,19,Jits_Linear_5,1,5,63,98,1450238300
80,15,19,Jits_Linear_5,2,5,56,103,1450257784
80,15,19,Jits_Linear_5,3,5,80,127,1450297784
80,15,19,Jits_Linear_5,0,1,48,43,1450872424
80,15,19,Jits_Linear_5,1,5,56,103,1450918336
80,15,19,Jits_Linear_5,2,5,63,98,1450927484
80,15,19,Jits_Linear_5,3,5,80,127,1451008240
80,15,19,Jits_Linear_5,0,1,48,38,1451555244
80,15,19,Jits_Linear_5,1,5,63,98,1451577684
80,15,19,Jits_Linear_5,2,5,56,103,1451608408
80,15,19,Jits_Linear_5,3,5,80,127,1451648284
80,15,19,Jits_Linear_5,0,5,56,103,1452248520
80,15,19,Jits_Linear_5,1,1,48,40,1452259056
80,15,19,Jits_Linear_5,2,5,63,98,1452288376
80,15,19,Jits_Linear_5,3,5,80,127,1452328244
80,15,19,Jits_Linear_5,0,1,48,37,1452890380
80,15,19,Jits_Linear_5,1,5,80,127,1452928492
80,15,19,Jits_Linear_5,2,5,56,103,1453008352
80,15,19,Jits_Linear_5,3,5,63,98,1453017428
80,15,19,Jits_Linear_5,0,1,48,35,1453574764
80,15,19,Jits_Linear_5,1,5,56,103,1453648224
80,15,19,Jits_Linear_5,2,5,63,98,1453651216
80,15,19,Jits_Linear_5,3,5,80,127,1453657524
80,15,19,Jits_Linear_5,0,1,48,48,1454221164
80,15,19,Jits_Linear_5,1,5,56,103,1454347656
80,15,19,Jits_Linear_5,2,5,63,98,1454368192
80,15,19,Jits_Linear_5,3,5,80,127,1454378312
80,15,19,Jits_Linear_5,0,1,48,45,1454953860
80,15,19,Jits_Linear_5,1,5,63,98,1454987560
80,15,19,Jits_Linear_5,2,5,80,127,1454998128
80,15,19,Jits_Linear_5,3,5,56,103,1455018292
80,15,19,Jits_Linear_5,0,1,48,43,1455633228
80,15,19,Jits_Linear_5,1,5,63,98,1455677992
80,15,19,Jits_Linear_5,2,5,56,103,1455757724
80,15,19,Jits_Linear_5,3,5,80,127,1455760940
80,15,19,Jits_Linear_5,0,1,48,49,1456291172
80,15,19,Jits_Linear_5,1,5,63,98,1456368072
80,15,19,Jits_Linear_5,2,5,56,103,1456387488
80,15,19,Jits_Linear_5,3,5,80,127,1456418192
80,15,19,Jits_Linear_5,0,1,48,39,1456970968
80,15,19,Jits_Linear_5,1,5,56,103,1457058160
80,15,19,Jits_Linear_5,2,5,63,98,1457077560
80,15,19,Jits_Linear_5,3,5,80,127,1457087976
80,15,19,Jits_Linear_5,0,1,48,40,1457688548
80,15,19,Jits_Linear_5,1,5,56,103,1457777964
80,15,19,Jits_Linear_5,2,5,63,98,1457807948
80,15,19,Jits_Linear_5,3,5,80,127,1457811312
80,15,19,Jits_Linear_5,0,1,48,46,1458399156
80,15,19,Jits_Linear_5,1,5,56,103,1458418140
80,15,19,Jits_Linear_5,2,5,63,98,1458457932
80,15,19,Jits_Linear_5,3,5,80,127,1458518384
80,15,19,Jits_Linear_5,0,1,48,45,1459089392
80,15,19,Jits_Linear_5,1,5,56,103,1459127932
80,15,19,Jits_Linear_5,2,5,63,98,1459137980
80,15,19,Jits_Linear_5,3,5,80,127,1459198280
80,15,19,Jits_Linear_5,0,1,48,44,1459743480
80,15,19,Jits_Linear_5,1,5,56,103,1459828104
80,15,19,Jits_Linear_5,2,5,80,127,1459847456
80,15,19,Jits_Linear_5,3,5,63,98,1459878252
80,15,19,Jits_Linear_5,0,1,48,42,1460417844
80,15,19,Jits_Linear_5,1,5,80,127,1460527616
80,15,19,Jits_Linear_5,2,5,56,103,1460537888
80,15,19,Jits_Linear_5,3,5,63,98,1460558200
80,15,19,Jits_Linear_5,0,1,48,46,1461048856
80,15,19,Jits_Linear_5,1,5,63,98,1461217852
80,15,19,Jits_Linear_5,2,5,80,127,1461297648
80,15,19,Jits_Linear_5,3,5,56,103,1461308144
80,15,19,Jits_Linear_5,0,1,48,46,1461839864
80,15,19,Jits_Linear_5,1,5,80,127,1461977392
80,15,19,Jits_Linear_5,2,5,56,103,1461998076
80,15,19,Jits_Linear_5,3,5,63,98,1462001064
80,15,19,Jits_Linear_5,0,1,48,45,1462584564
80,15,19,Jits_Linear_5,1,5,63,98,1462658344
80,15,19,Jits_Linear_5,2,5,80,127,1462661932
80,15,19,Jits_Linear_5,3,5,56,103,1462717748
80,15,19,Jits_Linear_5,0,1,48,44,1463304904
80,15,19,Jits_Linear_5,1,5,56,103,1463347500
80,15,19,Jits_Linear_5,2,5,80,127,1463357772
80,15,19,Jits_Linear_5,3,5,63,98,1463397712
80,15,19,Jits_Linear_5,0,1,48,47,1463990800
80,15,19,Jits_Linear_5,1,5,56,103,1464037880
80,15,19,Jits_Linear_5,2,5,63,98,1464098188
80,15,19,Jits_Linear_5,3,5,80,127,1464108532
80,15,19,Jits_Linear_5,0,1,48,36,1464660624
80,15,19,Jits_Linear_5,1,5,63,98,1464757840
80,15,19,Jits_Linear_5,2,5,80,127,1464797708
80,15,19,Jits_Linear_5,3,5,56,103,1464837572
80,15,19,Jits_Linear_5,0,1,48,46,1465402032
80,15,19,Jits_Linear_5,1,5,56,103,1465468248
80,15,19,Jits_Linear_5,2,5,63,98,1465548024
80,15,19,Jits_Linear_5,3,5,80,127,1465551320
80,15,19,Jits_Linear_5,0,1,48,45,1466106732
80,15,19,Jits_Linear_5,1,5,80,127,1466247476
80,15,19,Jits_Linear_5,2,5,56,103,1466278196
80,15,19,Jits_Linear_5,3,5,63,98,1466281264
80,15,19,Jits_Linear_5,0,1,48,32,1466799804
80,15,19,Jits_Linear_5,1,5,56,103,1466927564
80,15,19,Jits_Linear_5,2,5,80,127,1466947952
80,15,19,Jits_Linear_5,3,5,63,98,1466987964
80,15,19,Jits_Linear_5,0,1,48,34,1467595828
80,15,19,Jits_Linear_5,1,5,80,127,1467627856
80,15,19,Jits_Linear_5,2,5,63,98,1467648320
80,15,19,Jits_Linear_5,3,5,56,103,1467707720
80,15,19,Jits_Linear_5,0,1,48,52,1468341368
80,15,19,Jits_Linear_5,1,5,63,98,1468357880
80,15,19,Jits_Linear_5,2,5,56,103,1468368372
80,15,19,Jits_Linear_5,3,5,80,127,1468418428
80,15,19,Jits_Linear_5,0,1,48,52,1469061492
80,15,19,Jits_Linear_5,1,5,56,103,1469067816
80,15,19,Jits_Linear_5,2,5,63,98,1469088052
80,15,19,Jits_Linear_5,3,5,80,127,1469098248
80,15,19,Jits_Linear_5,0,1,48,46,1469779792
80,15,19,Jits_Linear_5,1,5,56,103,1469787612
80,15,19,Jits_Linear_5,2,5,63,98,1469790604
80,15,19,Jits_Linear_5,3,5,80,127,1469807924
80,15,19,Jits_Linear_5,0,1,48,40,1470482216
80,15,19,Jits_Linear_5,1,5,63,98,1470557628
80,15,19,Jits_Linear_5,2,5,56,103,1470588216
80,15,19,Jits_Linear_5,3,5,80,127,1470618040
80,15,19,Jits_Linear_5,0,1,48,47,1471208652
80,15,19,Jits_Linear_5,1,5,80,127,1471247860
80,15,19,Jits_Linear_5,2,5,56,103,1471337908
80,15,19,Jits_Linear_5,3,5,63,98,1471341196
80,15,19,Jits_Linear_5,0,5,56,103,1471977804
80,15,19,Jits_Linear_5,1,5,80,127,1471980944
80,15,19,Jits_Linear_5,2,1,48,41,1471986620
80,15,19,Jits_Linear_5,3,5,63,98,1472057668
80,15,19,Jits_Linear_5,0,1,48,47,1472695592
80,15,19,Jits_Linear_5,1,5,80,127,1472707820
80,15,19,Jits_Linear_5,2,5,63,98,1472768588
80,15,19,Jits_Linear_5,3,5,56,103,1472798024
80,15,19,Jits_Linear_5,0,5,63,98,1473437996
80,15,19,Jits_Linear_5,1,1,48,45,1473439484
80,15,19,Jits_Linear_5,2,5,80,127,1473448412
80,15,19,Jits_Linear_5,3,5,56,103,1473517868
80,15,19,Jits_Linear_5,0,1,48,45,1474161960
80,15,19,Jits_Linear_5,1,5,56,103,1474187564
80,15,19,Jits_Linear_5,2,5,80,127,1474218288
80,15,19,Jits_Linear_5,3,5,63,98,1474267728
80,15,19,Jits_Linear_5,0,1,48,38,1474865612
80,15,19,Jits_Linear_5,1,5,63,98,1474967840
80,15,19,Jits_Linear_5,2,5,56,103,1474997592
80,15,19,Jits_Linear_5,3,5,80,127,1475000728
80,15,19,Jits_Linear_5,0,1,48,40,1475659080
80,15,19,Jits_Linear_5,1,5,63,98,1475708280
80,15,19,Jits_Linear_5,2,5,80,127,1475727620
80,15,19,Jits_Linear_5,3,5,56,103,1475738112
80,15,19,Jits_Linear_5,0,1,48,41,1476319416
80,15,19,Jits_Linear_5,1,5,56,103,1476457732
80,15,19,Jits_Linear_5,2,5,63,98,1476460880
80,15,19,Jits_Linear_5,3,5,80,127,1476478596
80,15,19,Jits_Linear_5,0,1,48,39,1477099928
80,15,19,Jits_Linear_5,1,5,56,103,1477158244
80,15,19,Jits_Linear_5,2,5,63,98,1477167620
80,15,19,Jits_Linear_5,3,5,80,127,1477198176
80,15,19,Jits_Linear_5,0,1,48,31,1477818104
80,15,19,Jits_Linear_5,1,5,63,98,1477928552
80,15,19,Jits_Linear_5,2,5,80,127,1477947740
80,15,19,Jits_Linear_5,3,5,56,103,1477987604
80,15,19,Jits_Linear_5,0,1,48,33,1478648520
80,15,19,Jits_Linear_5,1,5,56,103,1478707588
80,15,19,Jits_Linear_5,2,5,63,98,1478748200
80,15,19,Jits_Linear_5,3,5,80,127,1478751552
80,15,19,Jits_Linear_5,0,5,80,127,1479397676
80,15,19,Jits_Linear_5,1,5,56,103,1479437616
80,15,19,Jits_Linear_5,2,1,48,29,1479449352
80,15,19,Jits_Linear_5,3,5,63,98,1479487888
80,15,19,Jits_Linear_5,0,1,48,35,1480176832
80,15,19,Jits_Linear_5,1,5,56,103,1480207800
80,15,19,Jits_Linear_5,2,5,80,127,1480217920
80,15,19,Jits_Linear_5,3,5,63,98,1480247524
80,15,19,Jits_Linear_5,0,5,56,103,1480908000
80,15,19,Jits_Linear_5,1,1,48,43,1480924448
80,15,19,Jits_Linear_5,2,5,80,127,1480948156
80,15,19,Jits_Linear_5,3,5,63,98,1480998436
80,15,19,Jits_Linear_5,0,5,56,103,1481667928
80,15,19,Jits_Linear_5,1,1,48,38,1481668820
80,15,19,Jits_Linear_5,2,5,80,127,1481707788
80,15,19,Jits_Linear_5,3,5,63,98,1481758140
80,15,19,Jits_Linear_5,0,1,48,44,1482403460
80,15,19,Jits_Linear_5,1,5,80,127,1482417508
80,15,19,Jits_Linear_5,2,5,63,98,1482498636
80,15,19,Jits_Linear_5,3,5,56,103,1482507564
80,15,19,Jits_Linear_5,0,1,48,49,1483167580
80,15,19,Jits_Linear_5,1,5,80,127,1483227620
80,15,19,Jits_Linear_5,2,5,56,103,1483237968
80,15,19,Jits_Linear_5,3,5,63,98,1483258276
80,15,19,Jits_Linear_5,0,1,48,48,1483906892
80,15,19,Jits_Linear_5,1,5,63,98,1483967904
80,15,19,Jits_Linear_5,2,5,56,103,1484037572
80,15,19,Jits_Linear_5,3,5,80,127,1484040564
80,15,19,Jits_Linear_5,0,1,48,45,1484676392
80,15,19,Jits_Linear_5,1,5,80,127,1484727812
80,15,19,Jits_Linear_5,2,5,63,98,1484777780
80,15,19,Jits_Linear_5,3,5,56,103,1484817716
80,15,19,Jits_Linear_5,0,1,48,44,1485499464
80,15,19,Jits_Linear_5,1,5,63,98,1485537628
80,15,19,Jits_Linear_5,2,5,56,103,1485577568
80,15,19,Jits_Linear_5,3,5,80,127,1485587988
80,15,19,Jits_Linear_5,0,1,48,46,1486231352
80,15,19,Jits_Linear_5,1,5,63,98,1486297544
80,15,19,Jits_Linear_5,2,5,56,103,1486318004
80,15,19,Jits_Linear_5,3,5,80,127,1486338372
80,15,19,Jits_Linear_5,0,5,80,127,1487027496
80,15,19,Jits_Linear_5,1,1,48,40,1487033980
80,15,19,Jits_Linear_5,2,5,56,103,1487037688
80,15,19,Jits_Linear_5,3,5,63,98,1487058520
80,15,19,Jits_Linear_5,0,5,63,98,1487828476
80,15,19,Jits_Linear_5,1,1,48,28,1487843728
80,15,19,Jits_Linear_5,2,5,56,103,1487868556
80,15,19,Jits_Linear_5,3,5,80,127,1487897860
80,15,19,Jits_Linear_5,0,1,48,45,1488581912
80,15,19,Jits_Linear_5,1,5,56,103,1488607492
80,15,19,Jits_Linear_5,2,5,63,98,1488638516
80,15,19,Jits_Linear_5,3,5,80,127,1488668116
80,15,19,Jits_Linear_5,0,1,48,51,1489338084
80,15,19,Jits_Linear_5,1,5,80,127,1489358260
80,15,19,Jits_Linear_5,2,5,56,103,1489427716
80,15,19,Jits_Linear_5,3,5,63,98,1489431744
80,15,19,Jits_Linear_5,0,1,48,48,1490102096
80,15,19,Jits_Linear_5,1,5,56,103,1490147760
80,15,19,Jits_Linear_5,2,5,63,98,1490197728
80,15,19,Jits_Linear_5,3,5,80,127,1490227480
80,15,19,Jits_Linear_5,0,5,63,98,1490907456
80,15,19,Jits_Linear_5,1,5,80,127,1490910744
80,15,19,Jits_Linear_5,2,1,48,43,1490929828
80,15,19,Jits_Linear_5,3,5,56,103,1490967912
80,15,19,Jits_Linear_5,0,1,48,47,1491708384
80,15,19,Jits_Linear_5,1,5,56,103,1491717400
80,15,19,Jits_Linear_5,2,5,80,127,1491727672
80,15,19,Jits_Linear_5,3,5,63,98,1491777800
80,15,19,Jits_Linear_5,0,1,48,43,1492476472
80,15,19,Jits_Linear_5,1,5,63,98,1492478284
80,15,19,Jits_Linear_5,2,5,56,103,1492487508
80,15,19,Jits_Linear_5,3,5,80,127,1492518452
80,15,19,Jits_Linear_5,0,1,48,53,1493201300
80,15,19,Jits_Linear_5,1,5,63,98,1493297460
80,15,19,Jits_Linear_5,2,5,80,127,1493301556
80,15,19,Jits_Linear_5,3,5,56,103,1493328392
80,15,19,Jits_Linear_5,0,1,48,54,1493964416
80,15,19,Jits_Linear_5,1,5,63,98,1494107396
80,15,19,Jits_Linear_5,2,5,56,103,1494128228
80,15,19,Jits_Linear_5,3,5,80,127,1494131368
80,15,19,Jits_Linear_5,0,1,48,43,1494759316
80,15,19,Jits_Linear_5,1,5,63,98,1494858232
80,15,19,Jits_Linear_5,2,5,56,103,1494927720
80,15,19,Jits_Linear_5,3,5,80,127,1494948400
80,15,19,Jits_Linear_5,0,1,48,46,1495636204
80,15,19,Jits_Linear_5,1,5,56,103,1495638392
80,15,19,Jits_Linear_5,2,5,63,98,1495647688
80,15,19,Jits_Linear_5,3,5,80,127,1495737684
80,15,19,Jits_Linear_5,0,1,48,50,1496396628
80,15,19,Jits_Linear_5,1,5,56,103,1496448300
80,15,19,Jits_Linear_5,2,5,80,127,1496488240
80,15,19,Jits_Linear_5,3,5,63,98,1496497524
80,15,19,Jits_Linear_5,0,1,48,47,1497260332
80,15,19,Jits_Linear_5,1,5,56,103,1497267480
80,15,19,Jits_Linear_5,2,5,63,98,1497298276
80,15,19,Jits_Linear_5,3,5,80,127,1497328472
80,15,19,Jits_Linear_5,0,5,80,127,1498028516
80,15,19,Jits_Linear_5,1,1,48,47,1498064444
80,15,19,Jits_Linear_5,2,5,63,98,1498068524
80,15,19,Jits_Linear_5,3,5,56,103,1498087716
80,15,19,Jits_Linear_5,0,1,48,51,1498852912
80,15,19,Jits_Linear_5,1,5,56,103,1498868228
80,15,19,Jits_Linear_5,2,5,80,127,1498887564
80,15,19,Jits_Linear_5,3,5,63,98,1498908100
80,15,19,Jits_Linear_5,0,1,48,48,1499624280
80,15,19,Jits_Linear_5,1,5,63,98,1499638252
80,15,19,Jits_Linear_5,2,5,56,103,1499648228
80,15,19,Jits_Linear_5,3,5,80,127,1499707792
80,15,19,Jits_Linear_5,0,1,48,43,1500384268
80,15,19,Jits_Linear_5,1,5,56,103,1500448284
80,15,19,Jits_Linear_5,2,5,63,98,1500518180
80,15,19,Jits_Linear_5,3,5,80,127,1500538216
80,15,19,Jits_Linear_5,0,1,48,48,1501173472
80,15,19,Jits_Linear_5,1,5,56,103,1501258172
80,15,19,Jits_Linear_5,2,5,63,98,1501287912
80,15,19,Jits_Linear_5,3,5,80,127,1501327724
80,15,19,Jits_Linear_5,0,1,48,44,1501975880
80,15,19,Jits_Linear_5,1,5,63,98,1502058016
80,15,19,Jits_Linear_5,2,5,56,103,1502107936
80,15,19,Jits_Linear_5,3,5,80,127,1502118132
80,15,19,Jits_Linear_5,0,1,48,44,1502702580
80,15,19,Jits_Linear_5,1,5,56,103,1502918108
80,15,19,Jits_Linear_5,2,5,63,98,1502968164
80,15,19,Jits_Linear_5,3,5,80,127,1502978360
80,15,19,Jits_Linear_5,0,1,48,36,1503635220
80,15,19,Jits_Linear_5,1,5,56,103,1503698268
80,15,19,Jits_Linear_5,2,5,63,98,1503707496
80,15,19,Jits_Linear_5,3,5,80,127,1503788396
80,15,19,Jits_Linear_5,0,9999,9999,9999,1394905184
80,15,19,Jits_Linear_5,1,9999,9999,9999,1395385420
80,15,19,Jits_Linear_5,2,9999,9999,9999,1395865676
80,15,19,Jits_Linear_5,3,9999,9999,9999,1396345980
80,15,19,Jits_Linear_5,4,9999,9999,9999,1396825148
80,15,19,Jits_Linear_5,5,9999,9999,9999,1397315700
80,15,19,Jits_Linear_5,6,9999,9999,9999,1397805124
80,15,19,Jits_Linear_5,7,9999,9999,9999,1398295608
80,15,19,Jits_Linear_5,8,9999,9999,9999,1398785124
80,15,19,Jits_Linear_5,9,9999,9999,9999,1399275608
80,15,19,Jits_Linear_5,10,9999,9999,9999,1399775312
80,15,19,Jits_Linear_5,11,9999,9999,9999,1400276064
80,15,19,Jits_Linear_5,12,9999,9999,9999,1400775744
80,15,19,Jits_Linear_5,13,9999,9999,9999,1401275508
80,15,19,Jits_Linear_5,14,9999,9999,9999,1401775196
80,15,19,Jits_Linear_5,15,9999,9999,9999,1402285160
80,15,19,Jits_Linear_5,16,9999,9999,9999,1402795112
80,15,19,Jits_Linear_5,17,9999,9999,9999,1403306108
80,15,19,Jits_Linear_5,18,9999,9999,9999,1403816000
80,15,19,Jits_Linear_5,19,9999,9999,9999,1404325968
80,15,19,Jits_Linear_5,20,9999,9999,9999,1404845136
80,15,19,Jits_Linear_5,21,9999,9999,9999,1405365352
80,15,19,Jits_Linear_5,22,9999,9999,9999,1405885508
80,15,19,Jits_Linear_5,23,9999,9999,9999,1406405736
80,15,19,Jits_Linear_5,24,9999,9999,9999,1406925892
80,15,19,Jits_Linear_5,25,9999,9999,9999,1407455328
80,15,19,Jits_Linear_5,26,9999,9999,9999,1407985736
80,15,19,Jits_Linear_5,27,9999,9999,9999,1408515160
80,15,19,Jits_Linear_5,28,9999,9999,9999,1409045568
80,15,19,Jits_Linear_5,29,9999,9999,9999,1409576044
80,15,19,Jits_Linear_5,30,9999,9999,9999,1410115664
80,15,19,Jits_Linear_5,31,9999,9999,9999,1410655288
80,15,19,Jits_Linear_5,32,9999,9999,9999,1411196024
80,15,19,Jits_Linear_5,33,9999,9999,9999,1411735668
80,15,19,Jits_Linear_5,34,9999,9999,9999,1412275288
80,15,19,Jits_Linear_5,35,9999,9999,9999,1412825180
80,15,19,Jits_Linear_5,36,9999,9999,9999,1413376100
80,15,19,Jits_Linear_5,37,9999,9999,9999,1413935204
80,15,19,Jits_Linear_5,38,9999,9999,9999,1414486140
80,15,19,Jits_Linear_5,39,9999,9999,9999,1415045196
80,15,19,Jits_Linear_5,40,9999,9999,9999,1415605348
80,15,19,Jits_Linear_5,41,9999,9999,9999,1416165492
80,15,19,Jits_Linear_5,42,9999,9999,9999,1416725564
80,15,19,Jits_Linear_5,43,9999,9999,9999,1417285708
80,15,19,Jits_Linear_5,44,9999,9999,9999,1417845856
80,15,19,Jits_Linear_5,45,9999,9999,9999,1418415160
80,15,19,Jits_Linear_5,46,9999,9999,9999,1418985572
80,15,19,Jits_Linear_5,47,9999,9999,9999,1419555916
80,15,19,Jits_Linear_5,48,9999,9999,9999,1420125284
80,15,19,Jits_Linear_5,49,9999,9999,9999,1420695664
80,15,19,Jits_Linear_5,50,9999,9999,9999,1421275212
80,15,19,Jits_Linear_5,51,9999,9999,9999,1421855828
80,15,19,Jits_Linear_5,52,9999,9999,9999,1422435456
80,15,19,Jits_Linear_5,53,9999,9999,9999,1423016008
80,15,19,Jits_Linear_5,54,9999,9999,9999,1423595640
80,15,19,Jits_Linear_5,55,9999,9999,9999,1424185460
80,15,19,Jits_Linear_5,56,9999,9999,9999,1424775228
80,15,19,Jits_Linear_5,57,9999,9999,9999,1425366092
80,15,19,Jits_Linear_5,58,9999,9999,9999,1425965128
80,15,19,Jits_Linear_5,59,9999,9999,9999,1426556004
80,15,19,Jits_Linear_5,60,9999,9999,9999,1427156028
80,15,19,Jits_Linear_5,61,9999,9999,9999,1427755128
80,15,19,Jits_Linear_5,62,9999,9999,9999,1428355164
80,15,19,Jits_Linear_5,63,9999,9999,9999,1428955240
80,15,19,Jits_Linear_5,64,9999,9999,9999,1429555324
80,15,19,Jits_Linear_5,65,9999,9999,9999,1430165616
80,15,19,Jits_Linear_5,66,9999,9999,9999,1430775888
80,15,19,Jits_Linear_5,67,9999,9999,9999,1431385176
80,15,19,Jits_Linear_5,68,9999,9999,9999,1431995472
80,15,19,Jits_Linear_5,69,9999,9999,9999,1432605824
80,15,19,Jits_Linear_5,70,9999,9999,9999,1433225324
80,15,19,Jits_Linear_5,71,9999,9999,9999,1433845860
80,15,19,Jits_Linear_5,72,9999,9999,9999,1434465348
80,15,19,Jits_Linear_5,73,9999,9999,9999,1435085904
80,15,19,Jits_Linear_5,74,9999,9999,9999,1435705464
80,15,19,Jits_Linear_5,75,9999,9999,9999,1436335164
80,15,19,Jits_Linear_5,76,9999,9999,9999,1436965964
80,15,19,Jits_Linear_5,77,9999,9999,9999,1437595740
80,15,19,Jits_Linear_5,78,9999,9999,9999,1438225492
80,15,19,Jits_Linear_5,79,9999,9999,9999,1438855268
80,15,19,Jits_Linear_5,80,9999,9999,9999,1439495284
80,15,19,Jits_Linear_5,81,9999,9999,9999,1440135252
80,15,19,Jits_Linear_5,82,9999,9999,9999,1440775276
80,15,19,Jits_Linear_5,83,9999,9999,9999,1441415240
80,15,19,Jits_Linear_5,84,9999,9999,9999,1442055272
80,15,19,Jits_Linear_5,85,9999,9999,9999,1442705496
80,15,19,Jits_Linear_5,86,9999,9999,9999,1443355764
80,15,19,Jits_Linear_5,87,9999,9999,9999,1444006008
80,15,19,Jits_Linear_5,88,9999,9999,9999,1444655164
80,15,19,Jits_Linear_5,89,9999,9999,9999,1445305460
80,15,19,Jits_Linear_5,90,9999,9999,9999,1445965928
80,15,19,Jits_Linear_5,91,9999,9999,9999,1446625368
80,15,19,Jits_Linear_5,92,9999,9999,9999,1447285820
80,15,19,Jits_Linear_5,93,9999,9999,9999,1447945332
80,15,19,Jits_Linear_5,94,9999,9999,9999,1448605824
80,15,19,Jits_Linear_5,95,9999,9999,9999,1449275508
80,15,19,Jits_Linear_5,96,9999,9999,9999,1449945212
80,15,19,Jits_Linear_5,97,9999,9999,9999,1450615868
80,15,19,Jits_Linear_5,98,9999,9999,9999,1451285568
80,15,19,Jits_Linear_5,99,9999,9999,9999,1451955276
80,15,19,Jits_Linear_5,100,9999,9999,9999,1452635220
80,15,19,Jits_Linear_5,101,9999,9999,9999,1453315132
80,15,19,Jits_Linear_5,102,9999,9999,9999,1453995096
80,15,19,Jits_Linear_5,103,9999,9999,9999,1454676092
80,15,19,Jits_Linear_5,104,9999,9999,9999,1455355984
80,15,19,Jits_Linear_5,105,9999,9999,9999,1456045168
80,15,19,Jits_Linear_5,106,9999,9999,9999,1456735304
80,15,19,Jits_Linear_5,107,9999,9999,9999,1457425460
80,15,19,Jits_Linear_5,108,9999,9999,9999,1458115692
80,15,19,Jits_Linear_5,109,9999,9999,9999,1458805828
80,15,19,Jits_Linear_5,110,9999,9999,9999,1459505276
80,15,19,Jits_Linear_5,111,9999,9999,9999,1460205624
80,15,19,Jits_Linear_5,112,9999,9999,9999,1460906048
80,15,19,Jits_Linear_5,113,9999,9999,9999,1461605476
80,15,19,Jits_Linear_5,114,9999,9999,9999,1462305892
80,15,19,Jits_Linear_5,115,9999,9999,9999,1463015528
80,15,19,Jits_Linear_5,116,9999,9999,9999,1463725168
80,15,19,Jits_Linear_5,117,9999,9999,9999,1464435828
80,15,19,Jits_Linear_5,118,9999,9999,9999,1465145468
80,15,19,Jits_Linear_5,119,9999,9999,9999,1465856072
80,15,19,Jits_Linear_5,120,9999,9999,9999,1466585192
80,15,19,Jits_Linear_5,121,9999,9999,9999,1467306072
80,15,19,Jits_Linear_5,122,9999,9999,9999,1468025976
80,15,19,Jits_Linear_5,123,9999,9999,9999,1468745784
80,15,19,Jits_Linear_5,124,9999,9999,9999,1469465680
80,15,19,Jits_Linear_5,125,9999,9999,9999,1470195836
80,15,19,Jits_Linear_5,126,9999,9999,9999,1470925928
80,15,19,Jits_Linear_5,127,9999,9999,9999,1471656016
80,15,19,Jits_Linear_5,128,9999,9999,9999,1472385124
80,15,19,Jits_Linear_5,129,9999,9999,9999,1473115208
80,15,19,Jits_Linear_5,130,9999,9999,9999,1473855564
80,15,19,Jits_Linear_5,131,9999,9999,9999,1474595924
80,15,19,Jits_Linear_5,132,9999,9999,9999,1475335224
80,15,19,Jits_Linear_5,133,9999,9999,9999,1476075580
80,15,19,Jits_Linear_5,134,9999,9999,9999,1476815932
80,15,19,Jits_Linear_5,135,9999,9999,9999,1477565500
80,15,19,Jits_Linear_5,136,9999,9999,9999,1478315076
80,15,19,Jits_Linear_5,137,9999,9999,9999,1479065692
80,15,19,Jits_Linear_5,138,9999,9999,9999,1479815268
80,15,19,Jits_Linear_5,139,9999,9999,9999,1480565884
80,15,19,Jits_Linear_5,140,9999,9999,9999,1481325644
80,15,19,Jits_Linear_5,141,9999,9999,9999,1482085496
80,15,19,Jits_Linear_5,142,9999,9999,9999,1482845272
80,15,19,Jits_Linear_5,143,9999,9999,9999,1483606088
80,15,19,Jits_Linear_5,144,9999,9999,9999,1484375132
80,15,19,Jits_Linear_5,145,9999,9999,9999,1485145164
80,15,19,Jits_Linear_5,146,9999,9999,9999,1485915196
80,15,19,Jits_Linear_5,147,9999,9999,9999,1486685300
80,15,19,Jits_Linear_5,148,9999,9999,9999,1487455324
80,15,19,Jits_Linear_5,149,9999,9999,9999,1488225368
80,15,19,Jits_Linear_5,150,9999,9999,9999,1489005660
80,15,19,Jits_Linear_5,151,9999,9999,9999,1489785968
80,15,19,Jits_Linear_5,152,9999,9999,9999,1490565212
80,15,19,Jits_Linear_5,153,9999,9999,9999,1491345488
80,15,19,Jits_Linear_5,154,9999,9999,9999,1492125780
80,15,19,Jits_Linear_5,155,9999,9999,9999,1492915284
80,15,19,Jits_Linear_5,156,9999,9999,9999,1493705832
80,15,19,Jits_Linear_5,157,9999,9999,9999,1494495328
80,15,19,Jits_Linear_5,158,9999,9999,9999,1495285884
80,15,19,Jits_Linear_5,159,9999,9999,9999,1496075392
80,15,19,Jits_Linear_5,160,9999,9999,9999,1496875088
80,15,19,Jits_Linear_5,161,9999,9999,9999,1497675832
80,15,19,Jits_Linear_5,162,9999,9999,9999,1498475600
80,15,19,Jits_Linear_5,163,9999,9999,9999,1499275336
80,15,19,Jits_Linear_5,164,9999,9999,9999,1500075104
80,15,19,Jits_Linear_5,165,9999,9999,9999,1500886112
80,15,19,Jits_Linear_5,166,9999,9999,9999,1501696072
80,15,19,Jits_Linear_5,167,9999,9999,9999,1502515320
80,15,19,Jits_Linear_5,168,9999,9999,9999,1503325284
80,15,19,Jits_Linear_5,169,9999,9999,9999,1504135272
80,16,7,Jits_ISO_8,0,5,56,103,1513663844
80,16,7,Jits_ISO_8,1,5,63,98,1513667096
80,16,7,Jits_ISO_8,2,5,80,127,1513670140
80,16,7,Jits_ISO_8,0,5,56,103,1514463696
80,16,7,Jits_ISO_8,1,5,63,98,1514466716
80,16,7,Jits_ISO_8,2,5,80,127,1514469988
80,16,7,Jits_ISO_8,0,5,80,127,1515203924
80,16,7,Jits_ISO_8,1,1,48,14,1515246004
80,16,7,Jits_ISO_8,2,5,63,98,1515294056
80,16,7,Jits_ISO_8,3,5,56,103,1515304324
80,16,7,Jits_ISO_8,0,1,48,35,1516014932
80,16,7,Jits_ISO_8,1,5,56,103,1516024172
80,16,7,Jits_ISO_8,2,5,63,98,1516034368
80,16,7,Jits_ISO_8,3,5,80,127,1516123660
80,16,7,Jits_ISO_8,0,1,48,44,1516771020
80,16,7,Jits_ISO_8,1,5,63,98,1516794284
80,16,7,Jits_ISO_8,2,5,80,127,1516823960
80,16,7,Jits_ISO_8,3,5,56,103,1516853712
80,16,7,Jits_ISO_8,0,1,48,44,1517544744
80,16,7,Jits_ISO_8,1,5,56,103,1517593920
80,16,7,Jits_ISO_8,2,5,80,127,1517694328
80,16,7,Jits_ISO_8,3,5,63,98,1517743336
80,16,7,Jits_ISO_8,0,1,48,40,1518344980
80,16,7,Jits_ISO_8,1,5,56,103,1518393856
80,16,7,Jits_ISO_8,2,5,80,127,1518443836
80,16,7,Jits_ISO_8,3,5,63,98,1518483784
80,16,7,Jits_ISO_8,0,1,48,41,1519153532
80,16,7,Jits_ISO_8,1,5,80,127,1519224232
80,16,7,Jits_ISO_8,2,5,63,98,1519253744
80,16,7,Jits_ISO_8,3,5,56,103,1519323796
80,16,7,Jits_ISO_8,0,1,48,42,1519985832
80,16,7,Jits_ISO_8,1,5,63,98,1520053764
80,16,7,Jits_ISO_8,2,5,56,103,1520084324
80,16,7,Jits_ISO_8,3,5,80,127,1520143816
80,16,7,Jits_ISO_8,0,5,56,103,1520793996
80,16,7,Jits_ISO_8,1,5,80,127,1520796988
80,16,7,Jits_ISO_8,2,1,48,39,1520813080
80,16,7,Jits_ISO_8,3,5,63,98,1520913920
80,16,7,Jits_ISO_8,0,1,48,36,1521545864
80,16,7,Jits_ISO_8,1,5,56,103,1521673696
80,16,7,Jits_ISO_8,2,5,80,127,1521713712
80,16,7,Jits_ISO_8,3,5,63,98,1521723760
80,16,7,Jits_ISO_8,0,1,48,34,1522369552
80,16,7,Jits_ISO_8,1,5,56,103,1522434540
80,16,7,Jits_ISO_8,2,5,80,127,1522453804
80,16,7,Jits_ISO_8,3,5,63,98,1522533808
80,16,7,Jits_ISO_8,0,1,48,26,1523187692
80,16,7,Jits_ISO_8,1,5,80,127,1523223840
80,16,7,Jits_ISO_8,2,5,56,103,1523324248
80,16,7,Jits_ISO_8,3,5,63,98,1523333772
80,16,7,Jits_ISO_8,0,5,63,98,1523993892
80,16,7,Jits_ISO_8,1,1,48,21,1524038740
80,16,7,Jits_ISO_8,2,5,80,127,1524054648
80,16,7,Jits_ISO_8,3,5,56,103,1524063576
80,16,7,Jits_ISO_8,0,1,48,32,1524777972
80,16,7,Jits_ISO_8,1,5,56,103,1524793740
80,16,7,Jits_ISO_8,2,5,63,98,1524864640
80,16,7,Jits_ISO_8,3,5,80,127,1524867932
80,16,7,Jits_ISO_8,0,1,48,45,1525529864
80,16,7,Jits_ISO_8,1,5,63,98,1525624240
80,16,7,Jits_ISO_8,2,5,56,103,1525674588
80,16,7,Jits_ISO_8,3,5,80,127,1525677732
80,16,7,Jits_ISO_8,0,1,48,53,1526353404
80,16,7,Jits_ISO_8,1,5,56,103,1526384064
80,16,7,Jits_ISO_8,2,5,80,127,1526387060
80,16,7,Jits_ISO_8,3,5,63,98,1526474060
80,16,7,Jits_ISO_8,0,1,48,54,1527102900
80,16,7,Jits_ISO_8,1,5,63,98,1527223632
80,16,7,Jits_ISO_8,2,5,56,103,1527313768
80,16,7,Jits_ISO_8,3,5,80,127,1527343668
80,16,7,Jits_ISO_8,0,1,48,48,1527943012
80,16,7,Jits_ISO_8,1,5,56,103,1528014216
80,16,7,Jits_ISO_8,2,5,63,98,1528113628
80,16,7,Jits_ISO_8,3,5,80,127,1528144204
80,16,7,Jits_ISO_8,0,1,48,49,1528745720
80,16,7,Jits_ISO_8,1,5,63,98,1528834532
80,16,7,Jits_ISO_8,2,5,56,103,1528843668
80,16,7,Jits_ISO_8,3,5,80,127,1528933872
80,16,7,Jits_ISO_8,0,1,48,43,1529564836
80,16,7,Jits_ISO_8,1,5,63,98,1529653652
80,16,7,Jits_ISO_8,2,5,56,103,1529733532
80,16,7,Jits_ISO_8,3,5,80,127,1529736748
80,16,7,Jits_ISO_8,0,1,48,49,1530372864
80,16,7,Jits_ISO_8,1,5,80,127,1530413648
80,16,7,Jits_ISO_8,2,5,63,98,1530433956
80,16,7,Jits_ISO_8,3,5,56,103,1530494504
80,16,7,Jits_ISO_8,0,1,48,48,1531155332
80,16,7,Jits_ISO_8,1,5,56,103,1531254024
80,16,7,Jits_ISO_8,2,5,63,98,1531273508
80,16,7,Jits_ISO_8,3,5,80,127,1531276948
80,16,7,Jits_ISO_8,0,1,48,50,1531928108
80,16,7,Jits_ISO_8,1,5,63,98,1531993476
80,16,7,Jits_ISO_8,2,5,80,127,1532074332
80,16,7,Jits_ISO_8,3,5,56,103,1532083704
80,16,7,Jits_ISO_8,0,1,48,45,1532739880
80,16,7,Jits_ISO_8,1,5,63,98,1532813664
80,16,7,Jits_ISO_8,2,5,56,103,1532834124
80,16,7,Jits_ISO_8,3,5,80,127,1532884384
80,16,7,Jits_ISO_8,0,1,48,35,1533562028
80,16,7,Jits_ISO_8,1,5,80,127,1533613300
80,16,7,Jits_ISO_8,2,5,63,98,1533654360
80,16,7,Jits_ISO_8,3,5,56,103,1533673908
80,16,7,Jits_ISO_8,0,1,48,38,1534390488
80,16,7,Jits_ISO_8,1,5,56,103,1534453980
80,16,7,Jits_ISO_8,2,5,63,98,1534464328
80,16,7,Jits_ISO_8,3,5,80,127,1534483812
80,16,7,Jits_ISO_8,0,1,48,35,1535140816
80,16,7,Jits_ISO_8,1,5,56,103,1535184608
80,16,7,Jits_ISO_8,2,5,63,98,1535274284
80,16,7,Jits_ISO_8,3,5,80,127,1535333776
80,16,7,Jits_ISO_8,0,1,48,45,1536006548
80,16,7,Jits_ISO_8,1,5,80,127,1536013616
80,16,7,Jits_ISO_8,2,5,56,103,1536024036
80,16,7,Jits_ISO_8,3,5,63,98,1536093644
80,16,7,Jits_ISO_8,0,1,48,40,1536828576
80,16,7,Jits_ISO_8,1,5,63,98,1536844264
80,16,7,Jits_ISO_8,2,5,80,127,1536934484
80,16,7,Jits_ISO_8,3,5,56,103,1536943408
80,16,7,Jits_ISO_8,0,5,63,98,1537583448
80,16,7,Jits_ISO_8,1,1,48,44,1537616308
80,16,7,Jits_ISO_8,2,5,80,127,1537633792
80,16,7,Jits_ISO_8,3,5,56,103,1537694284
80,16,7,Jits_ISO_8,0,1,48,43,1538381236
80,16,7,Jits_ISO_8,1,5,56,103,1538414012
80,16,7,Jits_ISO_8,2,5,80,127,1538464240
80,16,7,Jits_ISO_8,3,5,63,98,1538483564
80,16,7,Jits_ISO_8,0,5,56,103,1539183984
80,16,7,Jits_ISO_8,1,1,48,35,1539198216
80,16,7,Jits_ISO_8,2,5,80,127,1539244396
80,16,7,Jits_ISO_8,3,5,63,98,1539314208
80,16,7,Jits_ISO_8,0,5,56,103,1539983656
80,16,7,Jits_ISO_8,1,1,48,40,1540012956
80,16,7,Jits_ISO_8,2,5,80,127,1540014448
80,16,7,Jits_ISO_8,3,5,63,98,1540044272
80,16,7,Jits_ISO_8,0,1,48,38,1540764680
80,16,7,Jits_ISO_8,1,5,56,103,1540824416
80,16,7,Jits_ISO_8,2,5,80,127,1540843980
80,16,7,Jits_ISO_8,3,5,63,98,1540904280
80,16,7,Jits_ISO_8,0,1,48,42,1541568124
80,16,7,Jits_ISO_8,1,5,80,127,1541704204
80,16,7,Jits_ISO_8,2,5,56,103,1541714252
80,16,7,Jits_ISO_8,3,5,63,98,1541723476
80,16,7,Jits_ISO_8,0,1,48,30,1542396464
80,16,7,Jits_ISO_8,1,5,56,103,1542463924
80,16,7,Jits_ISO_8,2,5,80,127,1542503776
80,16,7,Jits_ISO_8,3,5,63,98,1542533400
80,16,7,Jits_ISO_8,0,1,48,44,1543206372
80,16,7,Jits_ISO_8,1,5,56,103,1543234044
80,16,7,Jits_ISO_8,2,5,63,98,1543263648
80,16,7,Jits_ISO_8,3,5,80,127,1543303524
80,16,7,Jits_ISO_8,0,5,80,127,1543983416
80,16,7,Jits_ISO_8,1,5,63,98,1544033544
80,16,7,Jits_ISO_8,2,1,48,49,1544040780
80,16,7,Jits_ISO_8,3,5,56,103,1544054172
80,16,7,Jits_ISO_8,0,1,48,47,1544805880
80,16,7,Jits_ISO_8,1,5,56,103,1544814220
80,16,7,Jits_ISO_8,2,5,80,127,1544883704
80,16,7,Jits_ISO_8,3,5,63,98,1544944152
80,16,7,Jits_ISO_8,0,5,80,127,1545613668
80,16,7,Jits_ISO_8,1,1,48,41,1545623532
80,16,7,Jits_ISO_8,2,5,63,98,1545703724
80,16,7,Jits_ISO_8,3,5,56,103,1545724240
80,16,7,Jits_ISO_8,0,5,63,98,1546433996
80,16,7,Jits_ISO_8,1,1,48,42,1546450296
80,16,7,Jits_ISO_8,2,5,56,103,1546454524
80,16,7,Jits_ISO_8,3,5,80,127,1546494384
80,16,7,Jits_ISO_8,0,1,48,49,1547181228
80,16,7,Jits_ISO_8,1,5,80,127,1547193684
80,16,7,Jits_ISO_8,2,5,63,98,1547214220
80,16,7,Jits_ISO_8,3,5,56,103,1547294148
80,16,7,Jits_ISO_8,0,1,48,40,1547975008
80,16,7,Jits_ISO_8,1,5,63,98,1547984100
80,16,7,Jits_ISO_8,2,5,56,103,1548093924
80,16,7,Jits_ISO_8,3,5,80,127,1548097136
80,16,7,Jits_ISO_8,0,1,48,48,1548785872
80,16,7,Jits_ISO_8,1,5,63,98,1548803504
80,16,7,Jits_ISO_8,2,5,56,103,1548813772
80,16,7,Jits_ISO_8,3,5,80,127,1548816840
80,16,7,Jits_ISO_8,0,1,48,39,1549551604
80,16,7,Jits_ISO_8,1,5,56,103,1549583716
80,16,7,Jits_ISO_8,2,5,80,127,1549703680
80,16,7,Jits_ISO_8,3,5,63,98,1549743544
80,16,7,Jits_ISO_8,0,1,48,45,1550359192
80,16,7,Jits_ISO_8,1,5,56,103,1550404180
80,16,7,Jits_ISO_8,2,5,80,127,1550483840
80,16,7,Jits_ISO_8,3,5,63,98,1550504372
80,16,7,Jits_ISO_8,0,1,48,36,1551177560
80,16,7,Jits_ISO_8,1,5,56,103,1551203816
80,16,7,Jits_ISO_8,2,5,63,98,1551314184
80,16,7,Jits_ISO_8,3,5,80,127,1551317480
80,16,7,Jits_ISO_8,0,5,56,103,1552034120
80,16,7,Jits_ISO_8,1,1,48,47,1552040308
80,16,7,Jits_ISO_8,2,5,80,127,1552064016
80,16,7,Jits_ISO_8,3,5,63,98,1552084252
80,16,7,Jits_ISO_8,0,5,63,98,1552813468
80,16,7,Jits_ISO_8,1,5,56,103,1552823664
80,16,7,Jits_ISO_8,2,5,80,127,1552834156
80,16,7,Jits_ISO_8,3,1,48,49,1552837876
80,16,7,Jits_ISO_8,0,1,48,35,1553560072
80,16,7,Jits_ISO_8,1,5,80,127,1553603940
80,16,7,Jits_ISO_8,2,5,56,103,1553654056
80,16,7,Jits_ISO_8,3,5,63,98,1553693992
80,16,7,Jits_ISO_8,0,1,48,39,1554369600
80,16,7,Jits_ISO_8,1,5,80,127,1554424176
80,16,7,Jits_ISO_8,2,5,63,98,1554443740
80,16,7,Jits_ISO_8,3,5,56,103,1554493924
80,16,7,Jits_ISO_8,0,1,48,57,1555197856
80,16,7,Jits_ISO_8,1,5,80,127,1555234152
80,16,7,Jits_ISO_8,2,5,56,103,1555263976
80,16,7,Jits_ISO_8,3,5,63,98,1555333592
80,16,7,Jits_ISO_8,0,1,48,43,1555934788
80,16,7,Jits_ISO_8,1,5,56,103,1556084048
80,16,7,Jits_ISO_8,2,5,80,127,1556094268
80,16,7,Jits_ISO_8,3,5,63,98,1556134208
80,16,7,Jits_ISO_8,0,1,48,50,1556768140
80,16,7,Jits_ISO_8,1,5,56,103,1556793796
80,16,7,Jits_ISO_8,2,5,63,98,1556814332
80,16,7,Jits_ISO_8,3,5,80,127,1556884020
80,16,7,Jits_ISO_8,0,1,48,40,1557521704
80,16,7,Jits_ISO_8,1,5,63,98,1557614028
80,16,7,Jits_ISO_8,2,5,80,127,1557674280
80,16,7,Jits_ISO_8,3,5,56,103,1557693916
80,16,7,Jits_ISO_8,0,1,48,30,1558320496
80,16,7,Jits_ISO_8,1,5,80,127,1558403424
80,16,7,Jits_ISO_8,2,5,56,103,1558434204
80,16,7,Jits_ISO_8,3,5,63,98,1558464032
80,16,7,Jits_ISO_8,0,1,48,47,1559098252
80,16,7,Jits_ISO_8,1,5,56,103,1559204160
80,16,7,Jits_ISO_8,2,5,63,98,1559263804
80,16,7,Jits_ISO_8,3,5,80,127,1559323972
80,16,7,Jits_ISO_8,0,1,48,30,1559941824
80,16,7,Jits_ISO_8,1,5,80,127,1560024484
80,16,7,Jits_ISO_8,2,5,56,103,1560044032
80,16,7,Jits_ISO_8,3,5,63,98,1560113712
80,16,7,Jits_ISO_8,0,1,48,43,1560687032
80,16,7,Jits_ISO_8,1,5,80,127,1560824256
80,16,7,Jits_ISO_8,2,5,63,98,1560843816
80,16,7,Jits_ISO_8,3,5,56,103,1560874316
80,16,7,Jits_ISO_8,0,1,48,34,1561523180
80,16,7,Jits_ISO_8,1,5,80,127,1561613640
80,16,7,Jits_ISO_8,2,5,63,98,1561634160
80,16,7,Jits_ISO_8,3,5,56,103,1561693652
80,16,7,Jits_ISO_8,0,1,48,36,1562348584
80,16,7,Jits_ISO_8,1,5,80,127,1562413424
80,16,7,Jits_ISO_8,2,5,56,103,1562513908
80,16,7,Jits_ISO_8,3,5,63,98,1562543432
80,16,7,Jits_ISO_8,0,1,48,28,1563162240
80,16,7,Jits_ISO_8,1,5,63,98,1563203920
80,16,7,Jits_ISO_8,2,5,80,127,1563254884
80,16,7,Jits_ISO_8,3,5,56,103,1563273696
80,16,7,Jits_ISO_8,0,1,48,39,1563956324
80,16,7,Jits_ISO_8,1,5,80,127,1564043884
80,16,7,Jits_ISO_8,2,5,56,103,1564074512
80,16,7,Jits_ISO_8,3,5,63,98,1564077432
80,16,7,Jits_ISO_8,0,1,48,38,1564745528
80,16,7,Jits_ISO_8,1,5,63,98,1564874064
80,16,7,Jits_ISO_8,2,5,56,103,1564914152
80,16,7,Jits_ISO_8,3,5,80,127,1564933340
80,16,7,Jits_ISO_8,0,1,48,31,1565549284
80,16,7,Jits_ISO_8,1,5,80,127,1565613556
80,16,7,Jits_ISO_8,2,5,63,98,1565694460
80,16,7,Jits_ISO_8,3,5,56,103,1565734248
80,16,7,Jits_ISO_8,0,1,48,26,1566385288
80,16,7,Jits_ISO_8,1,5,63,98,1566433788
80,16,7,Jits_ISO_8,2,5,80,127,1566513644
80,16,7,Jits_ISO_8,3,5,56,103,1566533880
80,16,7,Jits_ISO_8,0,1,48,39,1567168436
80,16,7,Jits_ISO_8,1,5,56,103,1567274324
80,16,7,Jits_ISO_8,2,5,63,98,1567283768
80,16,7,Jits_ISO_8,3,5,80,127,1567323708
80,16,7,Jits_ISO_8,0,5,56,103,1567994412
80,16,7,Jits_ISO_8,1,5,80,127,1567997404
80,16,7,Jits_ISO_8,2,5,63,98,1568133568
80,16,7,Jits_ISO_8,0,1,48,37,1568772744
80,16,7,Jits_ISO_8,1,5,56,103,1568783776
80,16,7,Jits_ISO_8,2,5,63,98,1568873752
80,16,7,Jits_ISO_8,3,5,80,127,1568943680
80,16,7,Jits_ISO_8,0,1,48,43,1569593584
80,16,7,Jits_ISO_8,1,5,63,98,1569664504
80,16,7,Jits_ISO_8,2,5,80,127,1569667868
80,16,7,Jits_ISO_8,3,5,56,103,1569723756
80,16,7,Jits_ISO_8,0,1,48,30,1570403476
80,16,7,Jits_ISO_8,1,5,80,127,1570503980
80,16,7,Jits_ISO_8,2,5,56,103,1570523540
80,16,7,Jits_ISO_8,3,5,63,98,1570533884
80,16,7,Jits_ISO_8,0,5,56,103,1571213588
80,16,7,Jits_ISO_8,1,5,63,98,1571223860
80,16,7,Jits_ISO_8,2,1,48,43,1571244364
80,16,7,Jits_ISO_8,3,5,80,127,1571293828
80,16,7,Jits_ISO_8,0,5,80,127,1572013608
80,16,7,Jits_ISO_8,1,1,48,55,1572019720
80,16,7,Jits_ISO_8,2,5,56,103,1572063880
80,16,7,Jits_ISO_8,3,5,63,98,1572114364
80,16,7,Jits_ISO_8,0,1,48,54,1572776508
80,16,7,Jits_ISO_8,1,5,56,103,1572894004
80,16,7,Jits_ISO_8,2,5,63,98,1572904420
80,16,7,Jits_ISO_8,3,5,80,127,1572944136
80,16,7,Jits_ISO_8,0,1,48,55,1573577200
80,16,7,Jits_ISO_8,1,5,56,103,1573634696
80,16,7,Jits_ISO_8,2,5,63,98,1573674412
80,16,7,Jits_ISO_8,3,5,80,127,1573723624
80,16,7,Jits_ISO_8,0,5,80,127,1574394328
80,16,7,Jits_ISO_8,1,1,48,49,1574422400
80,16,7,Jits_ISO_8,2,5,56,103,1574444600
80,16,7,Jits_ISO_8,3,5,63,98,1574463864
80,16,7,Jits_ISO_8,0,5,80,127,1575204164
80,16,7,Jits_ISO_8,1,5,63,98,1575263584
80,16,7,Jits_ISO_8,2,1,48,54,1575265376
80,16,7,Jits_ISO_8,3,5,56,103,1575343472
80,16,7,Jits_ISO_8,0,5,80,127,1575983656
80,16,7,Jits_ISO_8,1,5,56,103,1576024720
80,16,7,Jits_ISO_8,2,5,63,98,1576043832
80,16,7,Jits_ISO_8,3,1,48,49,1576068548
80,16,7,Jits_ISO_8,0,5,56,103,1576834648
80,16,7,Jits_ISO_8,1,5,80,127,1576843572
80,16,7,Jits_ISO_8,2,1,48,44,1576863780
80,16,7,Jits_ISO_8,3,5,63,98,1576883804
80,16,7,Jits_ISO_8,0,5,56,103,1577703828
80,16,7,Jits_ISO_8,1,1,48,50,1577725604
80,16,7,Jits_ISO_8,2,5,63,98,1577743760
80,16,7,Jits_ISO_8,3,5,80,127,1577747048
80,16,7,Jits_ISO_8,0,5,63,98,1578394012
80,16,7,Jits_ISO_8,1,5,80,127,1578433804
80,16,7,Jits_ISO_8,2,5,56,103,1578503704
80,16,7,Jits_ISO_8,3,1,48,47,1578562264
80,16,7,Jits_ISO_8,0,5,63,98,1579183668
80,16,7,Jits_ISO_8,1,1,48,51,1579252500
80,16,7,Jits_ISO_8,2,5,56,103,1579264584
80,16,7,Jits_ISO_8,3,5,80,127,1579323776
80,16,7,Jits_ISO_8,0,5,80,127,1579993644
80,16,7,Jits_ISO_8,1,1,48,51,1579996616
80,16,7,Jits_ISO_8,2,5,63,98,1580043768
80,16,7,Jits_ISO_8,3,5,56,103,1580074340
80,16,7,Jits_ISO_8,0,5,56,103,1580783852
80,16,7,Jits_ISO_8,1,5,63,98,1580834428
80,16,7,Jits_ISO_8,2,5,80,127,1580844548
80,16,7,Jits_ISO_8,3,1,48,29,1580868868
80,16,7,Jits_ISO_8,0,5,56,103,1581593984
80,16,7,Jits_ISO_8,1,1,48,31,1581653300
80,16,7,Jits_ISO_8,2,5,63,98,1581703616
80,16,7,Jits_ISO_8,3,5,80,127,1581723928
80,16,7,Jits_ISO_8,0,5,63,98,1582393856
80,16,7,Jits_ISO_8,1,1,48,39,1582395872
80,16,7,Jits_ISO_8,2,5,80,127,1582443904
80,16,7,Jits_ISO_8,3,5,56,103,1582534048
80,16,7,Jits_ISO_8,0,5,63,98,1583184352
80,16,7,Jits_ISO_8,1,1,48,43,1583211756
80,16,7,Jits_ISO_8,2,5,80,127,1583213872
80,16,7,Jits_ISO_8,3,5,56,103,1583303952
80,16,7,Jits_ISO_8,0,5,63,98,1583984056
80,16,7,Jits_ISO_8,1,1,48,42,1583989820
80,16,7,Jits_ISO_8,2,5,56,103,1583994196
80,16,7,Jits_ISO_8,3,5,80,127,1584093680
80,16,7,Jits_ISO_8,0,1,48,46,1584799256
80,16,7,Jits_ISO_8,1,5,63,98,1584884180
80,16,7,Jits_ISO_8,2,5,80,127,1584913916
80,16,7,Jits_ISO_8,3,5,56,103,1584943664
80,16,7,Jits_ISO_8,0,1,48,44,1585618748
80,16,7,Jits_ISO_8,1,5,80,127,1585704344
80,16,7,Jits_ISO_8,2,5,63,98,1585714304
80,16,7,Jits_ISO_8,3,5,56,103,1585744352
80,16,7,Jits_ISO_8,0,5,80,127,1586403672
80,16,7,Jits_ISO_8,1,5,63,98,1586424280
80,16,7,Jits_ISO_8,2,1,48,45,1586438564
80,16,7,Jits_ISO_8,3,5,56,103,1586474476
80,16,7,Jits_ISO_8,0,1,48,50,1587226212
80,16,7,Jits_ISO_8,1,5,63,98,1587234328
80,16,7,Jits_ISO_8,2,5,80,127,1587293452
80,16,7,Jits_ISO_8,3,5,56,103,1587313908
80,16,7,Jits_ISO_8,0,5,63,98,1587994032
80,16,7,Jits_ISO_8,1,5,56,103,1588044532
80,16,7,Jits_ISO_8,2,1,48,51,1588053228
80,16,7,Jits_ISO_8,3,5,80,127,1588054724
80,16,7,Jits_ISO_8,0,1,48,45,1588813636
80,16,7,Jits_ISO_8,1,5,56,103,1588824376
80,16,7,Jits_ISO_8,2,5,80,127,1588833524
80,16,7,Jits_ISO_8,3,5,63,98,1588934152
80,16,7,Jits_ISO_8,0,5,80,127,1589584232
80,16,7,Jits_ISO_8,1,5,63,98,1589593456
80,16,7,Jits_ISO_8,2,1,48,45,1589598372
80,16,7,Jits_ISO_8,3,5,56,103,1589743972
80,16,7,Jits_ISO_8,0,5,63,98,1590394316
80,16,7,Jits_ISO_8,1,1,48,49,1590412876
80,16,7,Jits_ISO_8,2,5,80,127,1590434248
80,16,7,Jits_ISO_8,3,5,56,103,1590514176
80,16,7,Jits_ISO_8,0,5,56,103,1591183760
80,16,7,Jits_ISO_8,1,1,48,48,1591202172
80,16,7,Jits_ISO_8,2,5,80,127,1591284228
80,16,7,Jits_ISO_8,3,5,63,98,1591303480
80,16,7,Jits_ISO_8,0,1,48,48,1591977228
80,16,7,Jits_ISO_8,1,5,80,127,1592043788
80,16,7,Jits_ISO_8,2,5,56,103,1592054356
80,16,7,Jits_ISO_8,3,5,63,98,1592144252
80,16,7,Jits_ISO_8,0,1,48,51,1592801676
80,16,7,Jits_ISO_8,1,5,56,103,1592843652
80,16,7,Jits_ISO_8,2,5,63,98,1592864336
80,16,7,Jits_ISO_8,3,5,80,127,1592944112
80,16,7,Jits_ISO_8,0,5,63,98,1593594144
80,16,7,Jits_ISO_8,1,1,48,42,1593629548
80,16,7,Jits_ISO_8,2,5,56,103,1593684348
80,16,7,Jits_ISO_8,3,5,80,127,1593687560
80,16,7,Jits_ISO_8,0,5,56,103,1594423740
80,16,7,Jits_ISO_8,1,1,48,45,1594465068
80,16,7,Jits_ISO_8,2,5,80,127,1594484296
80,16,7,Jits_ISO_8,3,5,63,98,1594494344
80,16,7,Jits_ISO_8,0,1,48,59,1595261956
80,16,7,Jits_ISO_8,1,5,80,127,1595273532
80,16,7,Jits_ISO_8,2,5,56,103,1595283720
80,16,7,Jits_ISO_8,3,5,63,98,1595287016
80,16,7,Jits_ISO_8,0,5,56,103,1596034284
80,16,7,Jits_ISO_8,1,1,48,52,1596041608
80,16,7,Jits_ISO_8,2,5,80,127,1596043572
80,16,7,Jits_ISO_8,3,5,63,98,1596064108
80,16,7,Jits_ISO_8,0,5,63,98,1596803360
80,16,7,Jits_ISO_8,1,5,80,127,1596863832
80,16,7,Jits_ISO_8,2,1,48,46,1596875416
80,16,7,Jits_ISO_8,3,5,56,103,1596914176
80,16,7,Jits_ISO_8,0,1,48,46,1597636304
80,16,7,Jits_ISO_8,1,5,63,98,1597684280
80,16,7,Jits_ISO_8,2,5,56,103,1597694180
80,16,7,Jits_ISO_8,3,5,80,127,1597743544
80,16,7,Jits_ISO_8,0,5,63,98,1598383452
80,16,7,Jits_ISO_8,1,5,80,127,1598404060
80,16,7,Jits_ISO_8,2,5,56,103,1598414408
80,16,7,Jits_ISO_8,3,1,48,42,1598471476
80,16,7,Jits_ISO_8,0,5,63,98,1599184348
80,16,7,Jits_ISO_8,1,5,80,127,1599187416
80,16,7,Jits_ISO_8,2,1,48,47,1599199224
80,16,7,Jits_ISO_8,3,5,56,103,1599224208
80,16,7,Jits_ISO_8,0,1,48,42,1599922048
80,16,7,Jits_ISO_8,1,5,63,98,1600053552
80,16,7,Jits_ISO_8,2,5,80,127,1600084348
80,16,7,Jits_ISO_8,3,5,56,103,1600093424
80,16,7,Jits_ISO_8,0,1,48,49,1600739436
80,16,7,Jits_ISO_8,1,5,56,103,1600804200
80,16,7,Jits_ISO_8,2,5,80,127,1600834028
80,16,7,Jits_ISO_8,3,5,63,98,1600863464
80,16,7,Jits_ISO_8,0,1,48,49,1601530368
80,16,7,Jits_ISO_8,1,5,63,98,1601704164
80,16,7,Jits_ISO_8,2,5,56,103,1601744176
80,16,7,Jits_ISO_8,3,5,80,127,1601747244
80,16,7,Jits_ISO_8,0,5,80,127,1602403696
80,16,7,Jits_ISO_8,1,1,48,46,1602425420
80,16,7,Jits_ISO_8,2,5,56,103,1602483440
80,16,7,Jits_ISO_8,3,5,63,98,1602533624
80,16,7,Jits_ISO_8,0,5,80,127,1603184088
80,16,7,Jits_ISO_8,1,5,56,103,1603203452
80,16,7,Jits_ISO_8,2,1,48,58,1603214592
80,16,7,Jits_ISO_8,3,5,63,98,1603293504
80,16,7,Jits_ISO_8,0,1,48,57,1603974584
80,16,7,Jits_ISO_8,1,5,80,127,1604023536
80,16,7,Jits_ISO_8,2,5,63,98,1604063548
80,16,7,Jits_ISO_8,3,5,56,103,1604103472
80,16,7,Jits_ISO_8,0,5,63,98,1604793720
80,16,7,Jits_ISO_8,1,1,48,49,1604799084
80,16,7,Jits_ISO_8,2,5,80,127,1604854180
80,16,7,Jits_ISO_8,3,5,56,103,1604884080
80,16,7,Jits_ISO_8,0,1,48,57,1605557504
80,16,7,Jits_ISO_8,1,5,56,103,1605593424
80,16,7,Jits_ISO_8,2,5,80,127,1605624296
80,16,7,Jits_ISO_8,3,5,63,98,1605714336
80,16,7,Jits_ISO_8,0,5,56,103,1606403400
80,16,7,Jits_ISO_8,1,1,48,58,1606439476
80,16,7,Jits_ISO_8,2,5,80,127,1606514132
80,16,7,Jits_ISO_8,3,5,63,98,1606543716
80,16,7,Jits_ISO_8,0,5,56,103,1607254348
80,16,7,Jits_ISO_8,1,1,48,53,1607277620
80,16,7,Jits_ISO_8,2,5,63,98,1607314008
80,16,7,Jits_ISO_8,3,5,80,127,1607343608
80,16,7,Jits_ISO_8,0,1,48,59,1608021588
80,16,7,Jits_ISO_8,1,5,56,103,1608024476
80,16,7,Jits_ISO_8,2,5,63,98,1608094108
80,16,7,Jits_ISO_8,3,5,80,127,1608113876
80,16,7,Jits_ISO_8,0,5,80,127,1608793476
80,16,7,Jits_ISO_8,1,1,48,58,1608796140
80,16,7,Jits_ISO_8,2,5,63,98,1608814148
80,16,7,Jits_ISO_8,3,5,56,103,1608864300
80,16,7,Jits_ISO_8,0,9999,9999,9999,1514061936
80,16,7,Jits_ISO_8,1,9999,9999,9999,1514861636
80,16,7,Jits_ISO_8,2,9999,9999,9999,1515661364
80,16,7,Jits_ISO_8,3,9999,9999,9999,1516461160
80,16,7,Jits_ISO_8,4,9999,9999,9999,1517261916
80,16,7,Jits_ISO_8,5,9999,9999,9999,1518061632
80,16,7,Jits_ISO_8,6,9999,9999,9999,1518861412
80,16,7,Jits_ISO_8,7,9999,9999,9999,1519661124
80,16,7,Jits_ISO_8,8,9999,9999,9999,1520461888
80,16,7,Jits_ISO_8,9,9999,9999,9999,1521261660
80,16,7,Jits_ISO_8,10,9999,9999,9999,1522061408
80,16,7,Jits_ISO_8,11,9999,9999,9999,1522861120
80,16,7,Jits_ISO_8,12,9999,9999,9999,1523661880
80,16,7,Jits_ISO_8,13,9999,9999,9999,1524461664
80,16,7,Jits_ISO_8,14,9999,9999,9999,1525261436
80,16,7,Jits_ISO_8,15,9999,9999,9999,1526061136
80,16,7,Jits_ISO_8,16,9999,9999,9999,1526861876
80,16,7,Jits_ISO_8,17,9999,9999,9999,1527661668
80,16,7,Jits_ISO_8,18,9999,9999,9999,1528461400
80,16,7,Jits_ISO_8,19,9999,9999,9999,1529261112
80,16,7,Jits_ISO_8,20,9999,9999,9999,1530061940
80,16,7,Jits_ISO_8,21,9999,9999,9999,1530861648
80,16,7,Jits_ISO_8,22,9999,9999,9999,1531661400
80,16,7,Jits_ISO_8,23,9999,9999,9999,1532461108
80,16,7,Jits_ISO_8,24,9999,9999,9999,1533261940
80,16,7,Jits_ISO_8,25,9999,9999,9999,1534061648
80,16,7,Jits_ISO_8,26,9999,9999,9999,1534861376
80,16,7,Jits_ISO_8,27,9999,9999,9999,1535661164
80,16,7,Jits_ISO_8,28,9999,9999,9999,1536461916
80,16,7,Jits_ISO_8,29,9999,9999,9999,1537261632
80,16,7,Jits_ISO_8,30,9999,9999,9999,1538061408
80,16,7,Jits_ISO_8,31,9999,9999,9999,1538861116
80,16,7,Jits_ISO_8,32,9999,9999,9999,1539661944
80,16,7,Jits_ISO_8,33,9999,9999,9999,1540461664
80,16,7,Jits_ISO_8,34,9999,9999,9999,1541261408
80,16,7,Jits_ISO_8,35,9999,9999,9999,1542061124
80,16,7,Jits_ISO_8,36,9999,9999,9999,1542861884
80,16,7,Jits_ISO_8,37,9999,9999,9999,1543661672
80,16,7,Jits_ISO_8,38,9999,9999,9999,1544461376
80,16,7,Jits_ISO_8,39,9999,9999,9999,1545261180
80,16,7,Jits_ISO_8,40,9999,9999,9999,1546061940
80,16,7,Jits_ISO_8,41,9999,9999,9999,1546861660
80,16,7,Jits_ISO_8,42,9999,9999,9999,1547661388
80,16,7,Jits_ISO_8,43,9999,9999,9999,1548461164
80,16,7,Jits_ISO_8,44,9999,9999,9999,1549261900
80,16,7,Jits_ISO_8,45,9999,9999,9999,1550061688
80,16,7,Jits_ISO_8,46,9999,9999,9999,1550861400
80,16,7,Jits_ISO_8,47,9999,9999,9999,1551661180
80,16,7,Jits_ISO_8,48,9999,9999,9999,1552461936
80,16,7,Jits_ISO_8,49,9999,9999,9999,1553261656
80,16,7,Jits_ISO_8,50,9999,9999,9999,1554061380
80,16,7,Jits_ISO_8,51,9999,9999,9999,1554861168
80,16,7,Jits_ISO_8,52,9999,9999,9999,1555661924
80,16,7,Jits_ISO_8,53,9999,9999,9999,1556461644
80,16,7,Jits_ISO_8,54,9999,9999,9999,1557261424
80,16,7,Jits_ISO_8,55,9999,9999,9999,1558061132
80,16,7,Jits_ISO_8,56,9999,9999,9999,1558861884
80,16,7,Jits_ISO_8,57,9999,9999,9999,1559661672
80,16,7,Jits_ISO_8,58,9999,9999,9999,1560461400
80,16,7,Jits_ISO_8,59,9999,9999,9999,1561261108
80,16,7,Jits_ISO_8,60,9999,9999,9999,1562061936
80,16,7,Jits_ISO_8,61,9999,9999,9999,1562861652
80,16,7,Jits_ISO_8,62,9999,9999,9999,1563661364
80,16,7,Jits_ISO_8,63,9999,9999,9999,1564461136
80,16,7,Jits_ISO_8,64,9999,9999,9999,1565261896
80,16,7,Jits_ISO_8,65,9999,9999,9999,1566061684
80,16,7,Jits_ISO_8,66,9999,9999,9999,1566861416
80,16,7,Jits_ISO_8,67,9999,9999,9999,1567661132
80,16,7,Jits_ISO_8,68,9999,9999,9999,1568461900
80,16,7,Jits_ISO_8,69,9999,9999,9999,1569261676
80,16,7,Jits_ISO_8,70,9999,9999,9999,1570061380
80,16,7,Jits_ISO_8,71,9999,9999,9999,1570861172
80,16,7,Jits_ISO_8,72,9999,9999,9999,1571661932
80,16,7,Jits_ISO_8,73,9999,9999,9999,1572461656
80,16,7,Jits_ISO_8,74,9999,9999,9999,1573261408
80,16,7,Jits_ISO_8,75,9999,9999,9999,1574061124
80,16,7,Jits_ISO_8,76,9999,9999,9999,1574861876
80,16,7,Jits_ISO_8,77,9999,9999,9999,1575661676
80,16,7,Jits_ISO_8,78,9999,9999,9999,1576461392
80,16,7,Jits_ISO_8,79,9999,9999,9999,1577261116
80,16,7,Jits_ISO_8,80,9999,9999,9999,1578061888
80,16,7,Jits_ISO_8,81,9999,9999,9999,1578861684
80,16,7,Jits_ISO_8,82,9999,9999,9999,1579661412
80,16,7,Jits_ISO_8,83,9999,9999,9999,1580461120
80,16,7,Jits_ISO_8,84,9999,9999,9999,1581261884
80,16,7,Jits_ISO_8,85,9999,9999,9999,1582061684
80,16,7,Jits_ISO_8,86,9999,9999,9999,1582861412
80,16,7,Jits_ISO_8,87,9999,9999,9999,1583661116
80,16,7,Jits_ISO_8,88,9999,9999,9999,1584461940
80,16,7,Jits_ISO_8,89,9999,9999,9999,1585261664
80,16,7,Jits_ISO_8,90,9999,9999,9999,1586061400
80,16,7,Jits_ISO_8,91,9999,9999,9999,1586861108
80,16,7,Jits_ISO_8,92,9999,9999,9999,1587661880
80,16,7,Jits_ISO_8,93,9999,9999,9999,1588461656
80,16,7,Jits_ISO_8,94,9999,9999,9999,1589261368
80,16,7,Jits_ISO_8,95,9999,9999,9999,1590061144
80,16,7,Jits_ISO_8,96,9999,9999,9999,1590861916
80,16,7,Jits_ISO_8,97,9999,9999,9999,1591661628
80,16,7,Jits_ISO_8,98,9999,9999,9999,1592461372
80,16,7,Jits_ISO_8,99,9999,9999,9999,1593261164
80,16,7,Jits_ISO_8,100,9999,9999,9999,1594061908
80,16,7,Jits_ISO_8,101,9999,9999,9999,1594861620
80,16,7,Jits_ISO_8,102,9999,9999,9999,1595661416
80,16,7,Jits_ISO_8,103,9999,9999,9999,1596461124
80,16,7,Jits_ISO_8,104,9999,9999,9999,1597261900
80,16,7,Jits_ISO_8,105,9999,9999,9999,1598061688
80,16,7,Jits_ISO_8,106,9999,9999,9999,1598861408
80,16,7,Jits_ISO_8,107,9999,9999,9999,1599661176
80,16,7,Jits_ISO_8,108,9999,9999,9999,1600461932
80,16,7,Jits_ISO_8,109,9999,9999,9999,1601261640
80,16,7,Jits_ISO_8,110,9999,9999,9999,1602061424
80,16,7,Jits_ISO_8,111,9999,9999,9999,1602861136
80,16,7,Jits_ISO_8,112,9999,9999,9999,1603661900
80,16,7,Jits_ISO_8,113,9999,9999,9999,1604461620
80,16,7,Jits_ISO_8,114,9999,9999,9999,1605261420
80,16,7,Jits_ISO_8,115,9999,9999,9999,1606061128
80,16,7,Jits_ISO_8,116,9999,9999,9999,1606861936
80,16,7,Jits_ISO_8,117,9999,9999,9999,1607661668
80,16,7,Jits_ISO_8,118,9999,9999,9999,1608461392
80,16,7,Jits_ISO_8,119,9999,9999,9999,1609261168
80,17,16,Jits_ISO_5,0,5,56,103,1617483200
80,17,16,Jits_ISO_5,1,5,63,98,1617486220
80,17,16,Jits_ISO_5,2,5,80,127,1617489268
80,17,16,Jits_ISO_5,0,5,56,103,1617982772
80,17,16,Jits_ISO_5,1,5,63,98,1617985868
80,17,16,Jits_ISO_5,2,5,80,127,1617988992
80,17,16,Jits_ISO_5,0,5,56,103,1618482656
80,17,16,Jits_ISO_5,1,1,48,26,1618485024
80,17,16,Jits_ISO_5,2,5,80,127,1618492772
80,17,16,Jits_ISO_5,3,5,63,98,1618513304
80,17,16,Jits_ISO_5,0,5,63,98,1618943224
80,17,16,Jits_ISO_5,1,1,48,45,1618971156
80,17,16,Jits_ISO_5,2,5,80,127,1618972968
80,17,16,Jits_ISO_5,3,5,56,103,1618983460
80,17,16,Jits_ISO_5,0,1,48,43,1619502816
80,17,16,Jits_ISO_5,1,5,80,127,1619504080
80,17,16,Jits_ISO_5,2,5,56,103,1619512560
80,17,16,Jits_ISO_5,3,5,63,98,1619543504
80,17,16,Jits_ISO_5,0,5,63,98,1619993040
80,17,16,Jits_ISO_5,1,5,56,103,1620022712
80,17,16,Jits_ISO_5,2,1,48,36,1620025304
80,17,16,Jits_ISO_5,3,5,80,127,1620032828
80,17,16,Jits_ISO_5,0,5,56,103,1620442656
80,17,16,Jits_ISO_5,1,5,63,98,1620492856
80,17,16,Jits_ISO_5,2,5,80,127,1620513164
80,17,16,Jits_ISO_5,3,1,48,27,1620545124
80,17,16,Jits_ISO_5,0,5,80,127,1620943296
80,17,16,Jits_ISO_5,1,1,48,39,1620958476
80,17,16,Jits_ISO_5,2,5,63,98,1620993492
80,17,16,Jits_ISO_5,3,5,56,103,1621033204
80,17,16,Jits_ISO_5,0,5,56,103,1621443044
80,17,16,Jits_ISO_5,1,5,63,98,1621472572
80,17,16,Jits_ISO_5,2,1,48,42,1621488268
80,17,16,Jits_ISO_5,3,5,80,127,1621543212
80,17,16,Jits_ISO_5,0,5,56,103,1621942792
80,17,16,Jits_ISO_5,1,1,48,51,1621986212
80,17,16,Jits_ISO_5,2,5,80,127,1622003172
80,17,16,Jits_ISO_5,3,5,63,98,1622032624
80,17,16,Jits_ISO_5,0,5,56,103,1622452804
80,17,16,Jits_ISO_5,1,1,48,46,1622459136
80,17,16,Jits_ISO_5,2,5,63,98,1622462772
80,17,16,Jits_ISO_5,3,5,80,127,1622502704
80,17,16,Jits_ISO_5,0,5,63,98,1622943036
80,17,16,Jits_ISO_5,1,1,48,54,1622980848
80,17,16,Jits_ISO_5,2,5,80,127,1623022824
80,17,16,Jits_ISO_5,3,5,56,103,1623033092
80,17,16,Jits_ISO_5,0,1,48,51,1623464168
80,17,16,Jits_ISO_5,1,5,63,98,1623492960
80,17,16,Jits_ISO_5,2,5,56,103,1623533120
80,17,16,Jits_ISO_5,3,5,80,127,1623536112
80,17,16,Jits_ISO_5,0,5,56,103,1623952688
80,17,16,Jits_ISO_5,1,5,63,98,1623962884
80,17,16,Jits_ISO_5,2,1,48,29,1623978732
80,17,16,Jits_ISO_5,3,5,80,127,1624002888
80,17,16,Jits_ISO_5,0,1,48,39,1624433824
80,17,16,Jits_ISO_5,1,5,56,103,1624443360
80,17,16,Jits_ISO_5,2,5,63,98,1624446352
80,17,16,Jits_ISO_5,3,5,80,127,1624462844
80,17,16,Jits_ISO_5,0,1,48,51,1624901376
80,17,16,Jits_ISO_5,1,5,80,127,1624953268
80,17,16,Jits_ISO_5,2,5,56,103,1624962568
80,17,16,Jits_ISO_5,3,5,63,98,1625033052
80,17,16,Jits_ISO_5,0,1,48,49,1625402156
80,17,16,Jits_ISO_5,1,5,63,98,1625442640
80,17,16,Jits_ISO_5,2,5,56,103,1625463052
80,17,16,Jits_ISO_5,3,5,80,127,1625543048
80,17,16,Jits_ISO_5,0,1,48,44,1625915372
80,17,16,Jits_ISO_5,1,5,56,103,1625952784
80,17,16,Jits_ISO_5,2,5,80,127,1625992600
80,17,16,Jits_ISO_5,3,5,63,98,1626003016
80,17,16,Jits_ISO_5,0,1,48,47,1626409924
80,17,16,Jits_ISO_5,1,5,80,127,1626443076
80,17,16,Jits_ISO_5,2,5,63,98,1626472752
80,17,16,Jits_ISO_5,3,5,56,103,1626512772
80,17,16,Jits_ISO_5,0,1,48,49,1626944500
80,17,16,Jits_ISO_5,1,5,56,103,1626963260
80,17,16,Jits_ISO_5,2,5,63,98,1626992860
80,17,16,Jits_ISO_5,3,5,80,127,1627043280
80,17,16,Jits_ISO_5,0,1,48,52,1627456792
80,17,16,Jits_ISO_5,1,5,80,127,1627463036
80,17,16,Jits_ISO_5,2,5,56,103,1627503048
80,17,16,Jits_ISO_5,3,5,63,98,1627513392
80,17,16,Jits_ISO_5,0,1,48,51,1627922640
80,17,16,Jits_ISO_5,1,5,80,127,1627943412
80,17,16,Jits_ISO_5,2,5,63,98,1627983500
80,17,16,Jits_ISO_5,3,5,56,103,1628042628
80,17,16,Jits_ISO_5,0,5,56,103,1628443004
80,17,16,Jits_ISO_5,1,5,80,127,1628453424
80,17,16,Jits_ISO_5,2,1,48,46,1628459532
80,17,16,Jits_ISO_5,3,5,63,98,1628533080
80,17,16,Jits_ISO_5,0,1,48,40,1628942824
80,17,16,Jits_ISO_5,1,5,80,127,1628944084
80,17,16,Jits_ISO_5,2,5,63,98,1629003280
80,17,16,Jits_ISO_5,3,5,56,103,1629032880
80,17,16,Jits_ISO_5,0,5,56,103,1629442704
80,17,16,Jits_ISO_5,1,1,48,48,1629482092
80,17,16,Jits_ISO_5,2,5,80,127,1629502792
80,17,16,Jits_ISO_5,3,5,63,98,1629542800
80,17,16,Jits_ISO_5,0,1,48,51,1629951192
80,17,16,Jits_ISO_5,1,5,56,103,1629993540
80,17,16,Jits_ISO_5,2,5,63,98,1630002612
80,17,16,Jits_ISO_5,3,5,80,127,1630005904
80,17,16,Jits_ISO_5,0,5,80,127,1630442780
80,17,16,Jits_ISO_5,1,1,48,40,1630518788
80,17,16,Jits_ISO_5,2,5,63,98,1630532832
80,17,16,Jits_ISO_5,3,5,56,103,1630543472
80,17,16,Jits_ISO_5,0,5,56,103,1630942592
80,17,16,Jits_ISO_5,1,5,63,98,1630945768
80,17,16,Jits_ISO_5,2,5,80,127,1630948736
80,17,16,Jits_ISO_5,3,1,48,49,1630973816
80,17,16,Jits_ISO_5,0,1,48,48,1631435328
80,17,16,Jits_ISO_5,1,5,80,127,1631462780
80,17,16,Jits_ISO_5,2,5,63,98,1631513052
80,17,16,Jits_ISO_5,3,5,56,103,1631542636
80,17,16,Jits_ISO_5,0,5,56,103,1631943040
80,17,16,Jits_ISO_5,1,5,80,127,1631953460
80,17,16,Jits_ISO_5,2,1,48,57,1631970280
80,17,16,Jits_ISO_5,3,5,63,98,1632022760
80,17,16,Jits_ISO_5,0,1,48,41,1632422008
80,17,16,Jits_ISO_5,1,5,56,103,1632452896
80,17,16,Jits_ISO_5,2,5,63,98,1632472532
80,17,16,Jits_ISO_5,3,5,80,127,1632532828
80,17,16,Jits_ISO_5,0,1,48,50,1632930956
80,17,16,Jits_ISO_5,1,5,80,127,1632942364
80,17,16,Jits_ISO_5,2,5,63,98,1633013240
80,17,16,Jits_ISO_5,3,5,56,103,1633032488
80,17,16,Jits_ISO_5,0,1,48,53,1633451816
80,17,16,Jits_ISO_5,1,5,80,127,1633462552
80,17,16,Jits_ISO_5,2,5,56,103,1633472748
80,17,16,Jits_ISO_5,3,5,63,98,1633483240
80,17,16,Jits_ISO_5,0,1,48,47,1633926592
80,17,16,Jits_ISO_5,1,5,80,127,1633953216
80,17,16,Jits_ISO_5,2,5,56,103,1633972556
80,17,16,Jits_ISO_5,3,5,63,98,1634043412
80,17,16,Jits_ISO_5,0,1,48,55,1634462920
80,17,16,Jits_ISO_5,1,5,56,103,1634464332
80,17,16,Jits_ISO_5,2,5,80,127,1634492812
80,17,16,Jits_ISO_5,3,5,63,98,1634513344
80,17,16,Jits_ISO_5,0,1,48,43,1634940808
80,17,16,Jits_ISO_5,1,5,63,98,1634952536
80,17,16,Jits_ISO_5,2,5,56,103,1635012924
80,17,16,Jits_ISO_5,3,5,80,127,1635042660
80,17,16,Jits_ISO_5,0,5,63,98,1635443060
80,17,16,Jits_ISO_5,1,5,80,127,1635446572
80,17,16,Jits_ISO_5,2,1,48,62,1635463112
80,17,16,Jits_ISO_5,3,5,56,103,1635533256
80,17,16,Jits_ISO_5,0,1,48,53,1635895304
80,17,16,Jits_ISO_5,1,5,56,103,1635963456
80,17,16,Jits_ISO_5,2,5,63,98,1635992908
80,17,16,Jits_ISO_5,3,5,80,127,1636032976
80,17,16,Jits_ISO_5,0,1,48,41,1636455268
80,17,16,Jits_ISO_5,1,5,63,98,1636463016
80,17,16,Jits_ISO_5,2,5,56,103,1636502904
80,17,16,Jits_ISO_5,3,5,80,127,1636523360
80,17,16,Jits_ISO_5,0,1,48,57,1636951712
80,17,16,Jits_ISO_5,1,5,63,98,1636972864
80,17,16,Jits_ISO_5,2,5,56,103,1637012828
80,17,16,Jits_ISO_5,3,5,80,127,1637023024
80,17,16,Jits_ISO_5,0,1,48,61,1637444704
80,17,16,Jits_ISO_5,1,5,80,127,1637453268
80,17,16,Jits_ISO_5,2,5,63,98,1637522824
80,17,16,Jits_ISO_5,3,5,56,103,1637543492
80,17,16,Jits_ISO_5,0,5,56,103,1637942520
80,17,16,Jits_ISO_5,1,1,48,55,1637953504
80,17,16,Jits_ISO_5,2,5,80,127,1637963196
80,17,16,Jits_ISO_5,3,5,63,98,1638003008
80,17,16,Jits_ISO_5,0,1,48,54,1638444700
80,17,16,Jits_ISO_5,1,5,63,98,1638452524
80,17,16,Jits_ISO_5,2,5,80,127,1638473204
80,17,16,Jits_ISO_5,3,5,56,103,1638513088
80,17,16,Jits_ISO_5,0,1,48,57,1638935588
80,17,16,Jits_ISO_5,1,5,63,98,1638953296
80,17,16,Jits_ISO_5,2,5,56,103,1638972708
80,17,16,Jits_ISO_5,3,5,80,127,1638982976
80,17,16,Jits_ISO_5,0,1,48,47,1639423928
80,17,16,Jits_ISO_5,1,5,80,127,1639453096
80,17,16,Jits_ISO_5,2,5,56,103,1639472436
80,17,16,Jits_ISO_5,3,5,63,98,1639503380
80,17,16,Jits_ISO_5,0,1,48,50,1639919376
80,17,16,Jits_ISO_5,1,5,56,103,1640023384
80,17,16,Jits_ISO_5,2,5,80,127,1640026376
80,17,16,Jits_ISO_5,3,5,63,98,1640043092
80,17,16,Jits_ISO_5,0,1,48,56,1640421596
80,17,16,Jits_ISO_5,1,5,63,98,1640443488
80,17,16,Jits_ISO_5,2,5,56,103,1640473164
80,17,16,Jits_ISO_5,3,5,80,127,1640533388
80,17,16,Jits_ISO_5,0,1,48,54,1640893372
80,17,16,Jits_ISO_5,1,5,63,98,1641022848
80,17,16,Jits_ISO_5,2,5,56,103,1641033192
80,17,16,Jits_ISO_5,3,5,80,127,1641043464
80,17,16,Jits_ISO_5,0,1,48,50,1641456344
80,17,16,Jits_ISO_5,1,5,56,103,1641473452
80,17,16,Jits_ISO_5,2,5,80,127,1641503276
80,17,16,Jits_ISO_5,3,5,63,98,1641513400
80,17,16,Jits_ISO_5,0,1,48,55,1641950076
80,17,16,Jits_ISO_5,1,5,63,98,1642013120
80,17,16,Jits_ISO_5,2,5,56,103,1642023240
80,17,16,Jits_ISO_5,3,5,80,127,1642042948
80,17,16,Jits_ISO_5,0,5,56,103,1642443336
80,17,16,Jits_ISO_5,1,1,48,53,1642478668
80,17,16,Jits_ISO_5,2,5,63,98,1642502520
80,17,16,Jits_ISO_5,3,5,80,127,1642505736
80,17,16,Jits_ISO_5,0,5,80,127,1642963300
80,17,16,Jits_ISO_5,1,5,56,103,1642972524
80,17,16,Jits_ISO_5,2,1,48,53,1642974084
80,17,16,Jits_ISO_5,3,5,63,98,1643043316
80,17,16,Jits_ISO_5,0,5,80,127,1643452636
80,17,16,Jits_ISO_5,1,1,48,49,1643501532
80,17,16,Jits_ISO_5,2,5,56,103,1643522308
80,17,16,Jits_ISO_5,3,5,63,98,1643532652
80,17,16,Jits_ISO_5,0,5,63,98,1643992316
80,17,16,Jits_ISO_5,1,5,56,103,1644002664
80,17,16,Jits_ISO_5,2,1,48,50,1644017764
80,17,16,Jits_ISO_5,3,5,80,127,1644023188
80,17,16,Jits_ISO_5,0,5,80,127,1644443276
80,17,16,Jits_ISO_5,1,1,48,49,1644486780
80,17,16,Jits_ISO_5,2,5,63,98,1644503360
80,17,16,Jits_ISO_5,3,5,56,103,1644543372
80,17,16,Jits_ISO_5,0,5,56,103,1644982732
80,17,16,Jits_ISO_5,1,5,63,98,1644992856
80,17,16,Jits_ISO_5,2,1,48,51,1645004964
80,17,16,Jits_ISO_5,3,5,80,127,1645032932
80,17,16,Jits_ISO_5,0,5,56,103,1645442324
80,17,16,Jits_ISO_5,1,5,80,127,1645473048
80,17,16,Jits_ISO_5,2,1,48,53,1645488892
80,17,16,Jits_ISO_5,3,5,63,98,1645523312
80,17,16,Jits_ISO_5,0,1,48,42,1645981536
80,17,16,Jits_ISO_5,1,5,56,103,1645983048
80,17,16,Jits_ISO_5,2,5,63,98,1646023132
80,17,16,Jits_ISO_5,3,5,80,127,1646026420
80,17,16,Jits_ISO_5,0,5,56,103,1646482704
80,17,16,Jits_ISO_5,1,1,48,52,1646485748
80,17,16,Jits_ISO_5,2,5,63,98,1646493188
80,17,16,Jits_ISO_5,3,5,80,127,1646512376
80,17,16,Jits_ISO_5,0,5,56,103,1646942568
80,17,16,Jits_ISO_5,1,5,80,127,1646945484
80,17,16,Jits_ISO_5,2,1,48,48,1646961972
80,17,16,Jits_ISO_5,3,5,63,98,1646982520
80,17,16,Jits_ISO_5,0,1,48,54,1647432832
80,17,16,Jits_ISO_5,1,5,63,98,1647483224
80,17,16,Jits_ISO_5,2,5,56,103,1647513196
80,17,16,Jits_ISO_5,3,5,80,127,1647533416
80,17,16,Jits_ISO_5,0,1,48,50,1647932188
80,17,16,Jits_ISO_5,1,5,80,127,1647953264
80,17,16,Jits_ISO_5,2,5,56,103,1647962416
80,17,16,Jits_ISO_5,3,5,63,98,1647972612
80,17,16,Jits_ISO_5,0,1,48,54,1648432448
80,17,16,Jits_ISO_5,1,5,56,103,1648453148
80,17,16,Jits_ISO_5,2,5,80,127,1648493012
80,17,16,Jits_ISO_5,3,5,63,98,1648522484
80,17,16,Jits_ISO_5,0,1,48,49,1648917408
80,17,16,Jits_ISO_5,1,5,63,98,1648963068
80,17,16,Jits_ISO_5,2,5,80,127,1648973264
80,17,16,Jits_ISO_5,3,5,56,103,1648983532
80,17,16,Jits_ISO_5,0,1,48,58,1649424936
80,17,16,Jits_ISO_5,1,5,56,103,1649443168
80,17,16,Jits_ISO_5,2,5,63,98,1649512996
80,17,16,Jits_ISO_5,3,5,80,127,1649523140
80,17,16,Jits_ISO_5,0,1,48,45,1649887504
80,17,16,Jits_ISO_5,1,5,80,127,1649943196
80,17,16,Jits_ISO_5,2,5,56,103,1649953168
80,17,16,Jits_ISO_5,3,5,63,98,1650003276
80,17,16,Jits_ISO_5,0,1,48,33,1650411960
80,17,16,Jits_ISO_5,1,5,80,127,1650453112
80,17,16,Jits_ISO_5,2,5,56,103,1650513412
80,17,16,Jits_ISO_5,3,5,63,98,1650542936
80,17,16,Jits_ISO_5,0,1,48,52,1650928540
80,17,16,Jits_ISO_5,1,5,56,103,1650952468
80,17,16,Jits_ISO_5,2,5,80,127,1650955540
80,17,16,Jits_ISO_5,3,5,63,98,1650992412
80,17,16,Jits_ISO_5,0,1,48,59,1651426916
80,17,16,Jits_ISO_5,1,5,56,103,1651483136
80,17,16,Jits_ISO_5,2,5,63,98,1651512588
80,17,16,Jits_ISO_5,3,5,80,127,1651523064
80,17,16,Jits_ISO_5,0,1,48,46,1651889264
80,17,16,Jits_ISO_5,1,5,63,98,1651993044
80,17,16,Jits_ISO_5,2,5,80,127,1652003316
80,17,16,Jits_ISO_5,3,5,56,103,1652013364
80,17,16,Jits_ISO_5,0,5,80,127,1652442384
80,17,16,Jits_ISO_5,1,5,56,103,1652492500
80,17,16,Jits_ISO_5,2,1,48,42,1652493484
80,17,16,Jits_ISO_5,3,5,63,98,1652496764
80,17,16,Jits_ISO_5,0,1,48,52,1652967028
80,17,16,Jits_ISO_5,1,5,56,103,1652972904
80,17,16,Jits_ISO_5,2,5,80,127,1652993512
80,17,16,Jits_ISO_5,3,5,63,98,1653002736
80,17,16,Jits_ISO_5,0,5,63,98,1653453088
80,17,16,Jits_ISO_5,1,5,56,103,1653482836
80,17,16,Jits_ISO_5,2,1,48,53,1653486480
80,17,16,Jits_ISO_5,3,5,80,127,1653503292
80,17,16,Jits_ISO_5,0,1,48,38,1653957728
80,17,16,Jits_ISO_5,1,5,56,103,1653963080
80,17,16,Jits_ISO_5,2,5,80,127,1653973348
80,17,16,Jits_ISO_5,3,5,63,98,1654042948
80,17,16,Jits_ISO_5,0,5,63,98,1654452480
80,17,16,Jits_ISO_5,1,1,48,53,1654456572
80,17,16,Jits_ISO_5,2,5,80,127,1654492484
80,17,16,Jits_ISO_5,3,5,56,103,1654532420
80,17,16,Jits_ISO_5,0,1,48,49,1654927972
80,17,16,Jits_ISO_5,1,5,56,103,1654962472
80,17,16,Jits_ISO_5,2,5,63,98,1654972816
80,17,16,Jits_ISO_5,3,5,80,127,1654993272
80,17,16,Jits_ISO_5,0,1,48,56,1655451988
80,17,16,Jits_ISO_5,1,5,63,98,1655503104
80,17,16,Jits_ISO_5,2,5,80,127,1655523040
80,17,16,Jits_ISO_5,3,5,56,103,1655543124
80,17,16,Jits_ISO_5,0,5,56,103,1655942464
80,17,16,Jits_ISO_5,1,1,48,53,1655955396
80,17,16,Jits_ISO_5,2,5,80,127,1656023448
80,17,16,Jits_ISO_5,3,5,63,98,1656032596
80,17,16,Jits_ISO_5,0,1,48,44,1656468020
80,17,16,Jits_ISO_5,1,5,80,127,1656483260
80,17,16,Jits_ISO_5,2,5,63,98,1656493384
80,17,16,Jits_ISO_5,3,5,56,103,1656523204
80,17,16,Jits_ISO_5,0,5,63,98,1656942820
80,17,16,Jits_ISO_5,1,1,48,48,1656981492
80,17,16,Jits_ISO_5,2,5,80,127,1656982924
80,17,16,Jits_ISO_5,3,5,56,103,1657043240
80,17,16,Jits_ISO_5,0,5,63,98,1657453040
80,17,16,Jits_ISO_5,1,1,48,53,1657502260
80,17,16,Jits_ISO_5,2,5,56,103,1657503760
80,17,16,Jits_ISO_5,3,5,80,127,1657532908
80,17,16,Jits_ISO_5,0,5,80,127,1657963084
80,17,16,Jits_ISO_5,1,5,63,98,1657973008
80,17,16,Jits_ISO_5,2,1,48,48,1657973972
80,17,16,Jits_ISO_5,3,5,56,103,1658042828
80,17,16,Jits_ISO_5,0,1,48,30,1658462356
80,17,16,Jits_ISO_5,1,5,80,127,1658533272
80,17,16,Jits_ISO_5,2,5,56,103,1658542496
80,17,16,Jits_ISO_5,3,5,63,98,1658545560
80,17,16,Jits_ISO_5,0,5,56,103,1658972456
80,17,16,Jits_ISO_5,1,5,80,127,1658993088
80,17,16,Jits_ISO_5,2,5,63,98,1659003208
80,17,16,Jits_ISO_5,3,1,48,50,1659004172
80,17,16,Jits_ISO_5,0,1,48,53,1659476500
80,17,16,Jits_ISO_5,1,5,63,98,1659482452
80,17,16,Jits_ISO_5,2,5,56,103,1659522412
80,17,16,Jits_ISO_5,3,5,80,127,1659542796
80,17,16,Jits_ISO_5,0,1,48,54,1659965752
80,17,16,Jits_ISO_5,1,5,63,98,1659983232
80,17,16,Jits_ISO_5,2,5,56,103,1660042820
80,17,16,Jits_ISO_5,3,5,80,127,1660045888
80,17,16,Jits_ISO_5,0,5,56,103,1660443036
80,17,16,Jits_ISO_5,1,5,80,127,1660462300
80,17,16,Jits_ISO_5,2,1,48,50,1660487436
80,17,16,Jits_ISO_5,3,5,63,98,1660503348
80,17,16,Jits_ISO_5,0,1,48,49,1660959896
80,17,16,Jits_ISO_5,1,5,56,103,1660973340
80,17,16,Jits_ISO_5,2,5,63,98,1660992900
80,17,16,Jits_ISO_5,3,5,80,127,1661003096
80,17,16,Jits_ISO_5,0,5,80,127,1661442440
80,17,16,Jits_ISO_5,1,1,48,61,1661452380
80,17,16,Jits_ISO_5,2,5,56,103,1661473152
80,17,16,Jits_ISO_5,3,5,63,98,1661512940
80,17,16,Jits_ISO_5,0,1,48,46,1661888496
80,17,16,Jits_ISO_5,1,5,80,127,1661953412
80,17,16,Jits_ISO_5,2,5,56,103,1661973120
80,17,16,Jits_ISO_5,3,5,63,98,1662033120
80,17,16,Jits_ISO_5,0,5,56,103,1662463488
80,17,16,Jits_ISO_5,1,1,48,51,1662466536
80,17,16,Jits_ISO_5,2,5,80,127,1662482896
80,17,16,Jits_ISO_5,3,5,63,98,1662543356
80,17,16,Jits_ISO_5,0,5,80,127,1662942716
80,17,16,Jits_ISO_5,1,5,56,103,1662952764
80,17,16,Jits_ISO_5,2,1,48,48,1662979768
80,17,16,Jits_ISO_5,3,5,63,98,1662992840
80,17,16,Jits_ISO_5,0,5,63,98,1663443284
80,17,16,Jits_ISO_5,1,1,48,42,1663483444
80,17,16,Jits_ISO_5,2,5,56,103,1663484956
80,17,16,Jits_ISO_5,3,5,80,127,1663487624
80,17,16,Jits_ISO_5,0,1,48,54,1663912704
80,17,16,Jits_ISO_5,1,5,63,98,1663962848
80,17,16,Jits_ISO_5,2,5,80,127,1664002416
80,17,16,Jits_ISO_5,3,5,56,103,1664033120
80,17,16,Jits_ISO_5,0,1,48,57,1664418276
80,17,16,Jits_ISO_5,1,5,56,103,1664452848
80,17,16,Jits_ISO_5,2,5,63,98,1664463192
80,17,16,Jits_ISO_5,3,5,80,127,1664492868
80,17,16,Jits_ISO_5,0,1,48,49,1664909308
80,17,16,Jits_ISO_5,1,5,80,127,1664942312
80,17,16,Jits_ISO_5,2,5,63,98,1665013024
80,17,16,Jits_ISO_5,3,5,56,103,1665023296
80,17,16,Jits_ISO_5,0,5,63,98,1665443172
80,17,16,Jits_ISO_5,1,1,48,63,1665447488
80,17,16,Jits_ISO_5,2,5,56,103,1665512772
80,17,16,Jits_ISO_5,3,5,80,127,1665523040
80,17,16,Jits_ISO_5,0,5,63,98,1665942756
80,17,16,Jits_ISO_5,1,1,48,55,1665953896
80,17,16,Jits_ISO_5,2,5,56,103,1665963284
80,17,16,Jits_ISO_5,3,5,80,127,1666003296
80,17,16,Jits_ISO_5,0,1,48,45,1666436004
80,17,16,Jits_ISO_5,1,5,56,103,1666452892
80,17,16,Jits_ISO_5,2,5,63,98,1666463236
80,17,16,Jits_ISO_5,3,5,80,127,1666543084
80,17,16,Jits_ISO_5,0,5,63,98,1666943784
80,17,16,Jits_ISO_5,1,1,48,52,1666966688
80,17,16,Jits_ISO_5,2,5,56,103,1666973156
80,17,16,Jits_ISO_5,3,5,80,127,1667012868
80,17,16,Jits_ISO_5,0,1,48,54,1667421220
80,17,16,Jits_ISO_5,1,5,56,103,1667442916
80,17,16,Jits_ISO_5,2,5,63,98,1667482928
80,17,16,Jits_ISO_5,3,5,80,127,1667522848
80,17,16,Jits_ISO_5,0,1,48,50,1667923788
80,17,16,Jits_ISO_5,1,5,80,127,1667942772
80,17,16,Jits_ISO_5,2,5,56,103,1668022648
80,17,16,Jits_ISO_5,3,5,63,98,1668032992
80,17,16,Jits_ISO_5,0,1,48,50,1668436408
80,17,16,Jits_ISO_5,1,5,56,103,1668482460
80,17,16,Jits_ISO_5,2,5,63,98,1668485752
80,17,16,Jits_ISO_5,3,5,80,127,1668492580
80,17,16,Jits_ISO_5,0,1,48,56,1668932460
80,17,16,Jits_ISO_5,1,5,56,103,1669002712
80,17,16,Jits_ISO_5,2,5,63,98,1669023024
80,17,16,Jits_ISO_5,3,5,80,127,1669033280
80,17,16,Jits_ISO_5,0,1,48,51,1669445984
80,17,16,Jits_ISO_5,1,5,63,98,1669463540
80,17,16,Jits_ISO_5,2,5,80,127,1669472840
80,17,16,Jits_ISO_5,3,5,56,103,1669493172
80,17,16,Jits_ISO_5,0,1,48,59,1669954324
80,17,16,Jits_ISO_5,1,5,63,98,1669963120
80,17,16,Jits_ISO_5,2,5,56,103,1670042856
80,17,16,Jits_ISO_5,3,5,80,127,1670045928
80,17,16,Jits_ISO_5,0,1,48,44,1670443864
80,17,16,Jits_ISO_5,1,5,63,98,1670462772
80,17,16,Jits_ISO_5,2,5,56,103,1670483228
80,17,16,Jits_ISO_5,3,5,80,127,1670513148
80,17,16,Jits_ISO_5,0,1,48,50,1670931468
80,17,16,Jits_ISO_5,1,5,56,103,1670962652
80,17,16,Jits_ISO_5,2,5,63,98,1670982888
80,17,16,Jits_ISO_5,3,5,80,127,1670993232
80,17,16,Jits_ISO_5,0,1,48,51,1671440092
80,17,16,Jits_ISO_5,1,5,56,103,1671492952
80,17,16,Jits_ISO_5,2,5,63,98,1671522700
80,17,16,Jits_ISO_5,3,5,80,127,1671525916
80,17,16,Jits_ISO_5,0,1,48,32,1671931148
80,17,16,Jits_ISO_5,1,5,56,103,1671942480
80,17,16,Jits_ISO_5,2,5,63,98,1671982716
80,17,16,Jits_ISO_5,3,5,80,127,1672042788
80,17,16,Jits_ISO_5,0,1,48,51,1672420376
80,17,16,Jits_ISO_5,1,5,56,103,1672462668
80,17,16,Jits_ISO_5,2,5,63,98,1672472864
80,17,16,Jits_ISO_5,3,5,80,127,1672533460
80,17,16,Jits_ISO_5,0,1,48,50,1672935556
80,17,16,Jits_ISO_5,1,5,56,103,1672962552
80,17,16,Jits_ISO_5,2,5,80,127,1672982788
80,17,16,Jits_ISO_5,3,5,63,98,1673012684
80,17,16,Jits_ISO_5,0,5,80,127,1673463188
80,17,16,Jits_ISO_5,1,1,48,55,1673470492
80,17,16,Jits_ISO_5,2,5,56,103,1673473600
80,17,16,Jits_ISO_5,3,5,63,98,1673492864
80,17,16,Jits_ISO_5,0,1,48,51,1673933912
80,17,16,Jits_ISO_5,1,5,63,98,1673952588
80,17,16,Jits_ISO_5,2,5,80,127,1674032664
80,17,16,Jits_ISO_5,3,5,56,103,1674042712
80,17,16,Jits_ISO_5,0,1,48,25,1674478436
80,17,16,Jits_ISO_5,1,5,80,127,1674512860
80,17,16,Jits_ISO_5,2,5,56,103,1674533168
80,17,16,Jits_ISO_5,3,5,63,98,1674536232
80,17,16,Jits_ISO_5,0,1,48,49,1674960408
80,17,16,Jits_ISO_5,1,5,63,98,1674982692
80,17,16,Jits_ISO_5,2,5,80,127,1674985984
80,17,16,Jits_ISO_5,3,5,56,103,1675043304
80,17,16,Jits_ISO_5,0,1,48,53,1675451460
80,17,16,Jits_ISO_5,1,5,56,103,1675463016
80,17,16,Jits_ISO_5,2,5,80,127,1675473212
80,17,16,Jits_ISO_5,3,5,63,98,1675513296
80,17,16,Jits_ISO_5,0,5,56,103,1675943572
80,17,16,Jits_ISO_5,1,1,48,36,1675957028
80,17,16,Jits_ISO_5,2,5,63,98,1676002536
80,17,16,Jits_ISO_5,3,5,80,127,1676012956
80,17,16,Jits_ISO_5,0,5,63,98,1676453660
80,17,16,Jits_ISO_5,1,1,48,51,1676463308
80,17,16,Jits_ISO_5,2,5,80,127,1676493072
80,17,16,Jits_ISO_5,3,5,56,103,1676533156
80,17,16,Jits_ISO_5,0,5,56,103,1676952872
80,17,16,Jits_ISO_5,1,1,48,51,1676963560
80,17,16,Jits_ISO_5,2,5,63,98,1677032808
80,17,16,Jits_ISO_5,3,5,80,127,1677036172
80,17,16,Jits_ISO_5,0,9999,9999,9999,1617730628
80,17,16,Jits_ISO_5,1,9999,9999,9999,1618230348
80,17,16,Jits_ISO_5,2,9999,9999,9999,1618731116
80,17,16,Jits_ISO_5,3,9999,9999,9999,1619241048
80,17,16,Jits_ISO_5,4,9999,9999,9999,1619740788
80,17,16,Jits_ISO_5,5,9999,9999,9999,1620240452
80,17,16,Jits_ISO_5,6,9999,9999,9999,1620740180
80,17,16,Jits_ISO_5,7,9999,9999,9999,1621240900
80,17,16,Jits_ISO_5,8,9999,9999,9999,1621740648
80,17,16,Jits_ISO_5,9,9999,9999,9999,1622240320
80,17,16,Jits_ISO_5,10,9999,9999,9999,1622741116
80,17,16,Jits_ISO_5,11,9999,9999,9999,1623240788
80,17,16,Jits_ISO_5,12,9999,9999,9999,1623740520
80,17,16,Jits_ISO_5,13,9999,9999,9999,1624240252
80,17,16,Jits_ISO_5,14,9999,9999,9999,1624740956
80,17,16,Jits_ISO_5,15,9999,9999,9999,1625240688
80,17,16,Jits_ISO_5,16,9999,9999,9999,1625740348
80,17,16,Jits_ISO_5,17,9999,9999,9999,1626240080
80,17,16,Jits_ISO_5,18,9999,9999,9999,1626740860
80,17,16,Jits_ISO_5,19,9999,9999,9999,1627240544
80,17,16,Jits_ISO_5,20,9999,9999,9999,1627740244
80,17,16,Jits_ISO_5,21,9999,9999,9999,1628240952
80,17,16,Jits_ISO_5,22,9999,9999,9999,1628740680
80,17,16,Jits_ISO_5,23,9999,9999,9999,1629240428
80,17,16,Jits_ISO_5,24,9999,9999,9999,1629740084
80,17,16,Jits_ISO_5,25,9999,9999,9999,1630240872
80,17,16,Jits_ISO_5,26,9999,9999,9999,1630740540
80,17,16,Jits_ISO_5,27,9999,9999,9999,1631240260
80,17,16,Jits_ISO_5,28,9999,9999,9999,1631740984
80,17,16,Jits_ISO_5,29,9999,9999,9999,1632240720
80,17,16,Jits_ISO_5,30,9999,9999,9999,1632740464
80,17,16,Jits_ISO_5,31,9999,9999,9999,1633240124
80,17,16,Jits_ISO_5,32,9999,9999,9999,1633740904
80,17,16,Jits_ISO_5,33,9999,9999,9999,1634240564
80,17,16,Jits_ISO_5,34,9999,9999,9999,1634740296
80,17,16,Jits_ISO_5,35,9999,9999,9999,1635241080
80,17,16,Jits_ISO_5,36,9999,9999,9999,1635740728
80,17,16,Jits_ISO_5,37,9999,9999,9999,1636240464
80,17,16,Jits_ISO_5,38,9999,9999,9999,1636740200
80,17,16,Jits_ISO_5,39,9999,9999,9999,1637240908
80,17,16,Jits_ISO_5,40,9999,9999,9999,1637740620
80,17,16,Jits_ISO_5,41,9999,9999,9999,1638240344
80,17,16,Jits_ISO_5,42,9999,9999,9999,1638741064
80,17,16,Jits_ISO_5,43,9999,9999,9999,1639240788
80,17,16,Jits_ISO_5,44,9999,9999,9999,1639740516
80,17,16,Jits_ISO_5,45,9999,9999,9999,1640240248
80,17,16,Jits_ISO_5,46,9999,9999,9999,1640740952
80,17,16,Jits_ISO_5,47,9999,9999,9999,1641240692
80,17,16,Jits_ISO_5,48,9999,9999,9999,1641740348
80,17,16,Jits_ISO_5,49,9999,9999,9999,1642240088
80,17,16,Jits_ISO_5,50,9999,9999,9999,1642740856
80,17,16,Jits_ISO_5,51,9999,9999,9999,1643240528
80,17,16,Jits_ISO_5,52,9999,9999,9999,1643740276
80,17,16,Jits_ISO_5,53,9999,9999,9999,1644241000
80,17,16,Jits_ISO_5,54,9999,9999,9999,1644740732
80,17,16,Jits_ISO_5,55,9999,9999,9999,1645240404
80,17,16,Jits_ISO_5,56,9999,9999,9999,1645740152
80,17,16,Jits_ISO_5,57,9999,9999,9999,1646240868
80,17,16,Jits_ISO_5,58,9999,9999,9999,1646740600
80,17,16,Jits_ISO_5,59,9999,9999,9999,1647240256
80,17,16,Jits_ISO_5,60,9999,9999,9999,1647740980
80,17,16,Jits_ISO_5,61,9999,9999,9999,1648240712
80,17,16,Jits_ISO_5,62,9999,9999,9999,1648740420
80,17,16,Jits_ISO_5,63,9999,9999,9999,1649240148
80,17,16,Jits_ISO_5,64,9999,9999,9999,1649740852
80,17,16,Jits_ISO_5,65,9999,9999,9999,1650240580
80,17,16,Jits_ISO_5,66,9999,9999,9999,1650740312
80,17,16,Jits_ISO_5,67,9999,9999,9999,1651241080
80,17,16,Jits_ISO_5,68,9999,9999,9999,1651740740
80,17,16,Jits_ISO_5,69,9999,9999,9999,1652240476
80,17,16,Jits_ISO_5,70,9999,9999,9999,1652740200
80,17,16,Jits_ISO_5,71,9999,9999,9999,1653240920
80,17,16,Jits_ISO_5,72,9999,9999,9999,1653740652
80,17,16,Jits_ISO_5,73,9999,9999,9999,1654240308
80,17,16,Jits_ISO_5,74,9999,9999,9999,1654741092
80,17,16,Jits_ISO_5,75,9999,9999,9999,1655240820
80,17,16,Jits_ISO_5,76,9999,9999,9999,1655740484
80,17,16,Jits_ISO_5,77,9999,9999,9999,1656240220
80,17,16,Jits_ISO_5,78,9999,9999,9999,1656740940
80,17,16,Jits_ISO_5,79,9999,9999,9999,1657240672
80,17,16,Jits_ISO_5,80,9999,9999,9999,1657740380
80,17,16,Jits_ISO_5,81,9999,9999,9999,1658240112
80,17,16,Jits_ISO_5,82,9999,9999,9999,1658740828
80,17,16,Jits_ISO_5,83,9999,9999,9999,1659240536
80,17,16,Jits_ISO_5,84,9999,9999,9999,1659740280
80,17,16,Jits_ISO_5,85,9999,9999,9999,1660240980
80,17,16,Jits_ISO_5,86,9999,9999,9999,1660740708
80,17,16,Jits_ISO_5,87,9999,9999,9999,1661240384
80,17,16,Jits_ISO_5,88,9999,9999,9999,1661740116
80,17,16,Jits_ISO_5,89,9999,9999,9999,1662240832
80,17,16,Jits_ISO_5,90,9999,9999,9999,1662740568
80,17,16,Jits_ISO_5,91,9999,9999,9999,1663240312
80,17,16,Jits_ISO_5,92,9999,9999,9999,1663741024
80,17,16,Jits_ISO_5,93,9999,9999,9999,1664240760
80,17,16,Jits_ISO_5,94,9999,9999,9999,1664740416
80,17,16,Jits_ISO_5,95,9999,9999,9999,1665240148
80,17,16,Jits_ISO_5,96,9999,9999,9999,1665740852
80,17,16,Jits_ISO_5,97,9999,9999,9999,1666240584
80,17,16,Jits_ISO_5,98,9999,9999,9999,1666740312
80,17,16,Jits_ISO_5,99,9999,9999,9999,1667241012
80,17,16,Jits_ISO_5,100,9999,9999,9999,1667740748
80,17,16,Jits_ISO_5,101,9999,9999,9999,1668240484
80,17,16,Jits_ISO_5,102,9999,9999,9999,1668740204
80,17,16,Jits_ISO_5,103,9999,9999,9999,1669240916
80,17,16,Jits_ISO_5,104,9999,9999,9999,1669740624
80,17,16,Jits_ISO_5,105,9999,9999,9999,1670240344
80,17,16,Jits_ISO_5,106,9999,9999,9999,1670741048
80,17,16,Jits_ISO_5,107,9999,9999,9999,1671240780
80,17,16,Jits_ISO_5,108,9999,9999,9999,1671740508
80,17,16,Jits_ISO_5,109,9999,9999,9999,1672240240
80,17,16,Jits_ISO_5,110,9999,9999,9999,1672740948
80,17,16,Jits_ISO_5,111,9999,9999,9999,1673240680
80,17,16,Jits_ISO_5,112,9999,9999,9999,1673740412
80,17,16,Jits_ISO_5,113,9999,9999,9999,1674240088
80,17,16,Jits_ISO_5,114,9999,9999,9999,1674740788
80,17,16,Jits_ISO_5,115,9999,9999,9999,1675240516
80,17,16,Jits_ISO_5,116,9999,9999,9999,1675740248
80,17,16,Jits_ISO_5,117,9999,9999,9999,1676240952
80,17,16,Jits_ISO_5,118,9999,9999,9999,1676740704
80,17,16,Jits_ISO_5,119,9999,9999,9999,1677240432
80,18,15,Jits_Phase_8,0,5,56,103,1687245244
80,18,15,Jits_Phase_8,1,5,63,98,1687248420
80,18,15,Jits_Phase_8,2,5,80,127,1687251464
80,18,15,Jits_Phase_8,0,1,48,28,1688022084
80,18,15,Jits_Phase_8,1,5,56,103,1688044872
80,18,15,Jits_Phase_8,2,5,63,98,1688048048
80,18,15,Jits_Phase_8,3,5,80,127,1688051392
80,18,15,Jits_Phase_8,0,5,80,127,1688785376
80,18,15,Jits_Phase_8,1,1,48,42,1688789316
80,18,15,Jits_Phase_8,2,5,63,98,1688875352
80,18,15,Jits_Phase_8,3,5,56,103,1688884564
80,18,15,Jits_Phase_8,0,1,48,41,1689599940
80,18,15,Jits_Phase_8,1,5,56,103,1689604548
80,18,15,Jits_Phase_8,2,5,63,98,1689614744
80,18,15,Jits_Phase_8,3,5,80,127,1689704784
80,18,15,Jits_Phase_8,0,5,63,98,1690374420
80,18,15,Jits_Phase_8,1,1,48,62,1690386080
80,18,15,Jits_Phase_8,2,5,80,127,1690405508
80,18,15,Jits_Phase_8,3,5,56,103,1690434960
80,18,15,Jits_Phase_8,0,1,48,43,1691138916
80,18,15,Jits_Phase_8,1,5,56,103,1691175212
80,18,15,Jits_Phase_8,2,5,80,127,1691274496
80,18,15,Jits_Phase_8,3,5,63,98,1691324772
80,18,15,Jits_Phase_8,0,1,48,54,1691886008
80,18,15,Jits_Phase_8,1,5,56,103,1691975116
80,18,15,Jits_Phase_8,2,5,80,127,1692025400
80,18,15,Jits_Phase_8,3,5,63,98,1692065264
80,18,15,Jits_Phase_8,0,1,48,57,1692648524
80,18,15,Jits_Phase_8,1,5,80,127,1692804548
80,18,15,Jits_Phase_8,2,5,63,98,1692835344
80,18,15,Jits_Phase_8,3,5,56,103,1692904728
80,18,15,Jits_Phase_8,0,1,48,52,1693520948
80,18,15,Jits_Phase_8,1,5,63,98,1693635024
80,18,15,Jits_Phase_8,2,5,56,103,1693664548
80,18,15,Jits_Phase_8,3,5,80,127,1693725160
80,18,15,Jits_Phase_8,0,1,48,51,1694308796
80,18,15,Jits_Phase_8,1,5,56,103,1694375308
80,18,15,Jits_Phase_8,2,5,80,127,1694378444
80,18,15,Jits_Phase_8,3,5,63,98,1694495088
80,18,15,Jits_Phase_8,0,1,48,50,1695110960
80,18,15,Jits_Phase_8,1,5,56,103,1695255056
80,18,15,Jits_Phase_8,2,5,80,127,1695294992
80,18,15,Jits_Phase_8,3,5,63,98,1695305188
80,18,15,Jits_Phase_8,0,1,48,46,1695964604
80,18,15,Jits_Phase_8,1,5,56,103,1696014676
80,18,15,Jits_Phase_8,2,5,80,127,1696035284
80,18,15,Jits_Phase_8,3,5,63,98,1696115012
80,18,15,Jits_Phase_8,0,1,48,50,1696769152
80,18,15,Jits_Phase_8,1,5,80,127,1696805220
80,18,15,Jits_Phase_8,2,5,56,103,1696904432
80,18,15,Jits_Phase_8,3,5,63,98,1696914700
80,18,15,Jits_Phase_8,0,5,63,98,1697575316
80,18,15,Jits_Phase_8,1,5,80,127,1697634808
80,18,15,Jits_Phase_8,2,5,56,103,1697645228
80,18,15,Jits_Phase_8,3,1,48,59,1697657044
80,18,15,Jits_Phase_8,0,5,56,103,1698374972
80,18,15,Jits_Phase_8,1,1,48,54,1698406488
80,18,15,Jits_Phase_8,2,5,63,98,1698444596
80,18,15,Jits_Phase_8,3,5,80,127,1698447956
80,18,15,Jits_Phase_8,0,1,48,56,1699154324
80,18,15,Jits_Phase_8,1,5,63,98,1699204420
80,18,15,Jits_Phase_8,2,5,56,103,1699254984
80,18,15,Jits_Phase_8,3,5,80,127,1699258116
80,18,15,Jits_Phase_8,0,1,48,46,1699937732
80,18,15,Jits_Phase_8,1,5,56,103,1699965352
80,18,15,Jits_Phase_8,2,5,80,127,1699968268
80,18,15,Jits_Phase_8,3,5,63,98,1700055540
80,18,15,Jits_Phase_8,0,1,48,62,1700723344
80,18,15,Jits_Phase_8,1,5,63,98,1700805104
80,18,15,Jits_Phase_8,2,5,56,103,1700895148
80,18,15,Jits_Phase_8,3,5,80,127,1700924748
80,18,15,Jits_Phase_8,0,1,48,60,1701512320
80,18,15,Jits_Phase_8,1,5,56,103,1701594452
80,18,15,Jits_Phase_8,2,5,63,98,1701694908
80,18,15,Jits_Phase_8,3,5,80,127,1701724584
80,18,15,Jits_Phase_8,0,1,48,55,1702355748
80,18,15,Jits_Phase_8,1,5,63,98,1702414960
80,18,15,Jits_Phase_8,2,5,56,103,1702425160
80,18,15,Jits_Phase_8,3,5,80,127,1702514928
80,18,15,Jits_Phase_8,0,1,48,66,1703127860
80,18,15,Jits_Phase_8,1,5,63,98,1703235236
80,18,15,Jits_Phase_8,2,5,56,103,1703314908
80,18,15,Jits_Phase_8,3,5,80,127,1703317972
80,18,15,Jits_Phase_8,0,1,48,59,1703991068
80,18,15,Jits_Phase_8,1,5,80,127,1703994848
80,18,15,Jits_Phase_8,2,5,63,98,1704015160
80,18,15,Jits_Phase_8,3,5,56,103,1704074600
80,18,15,Jits_Phase_8,0,1,48,54,1704806040
80,18,15,Jits_Phase_8,1,5,56,103,1704834340
80,18,15,Jits_Phase_8,2,5,63,98,1704855092
80,18,15,Jits_Phase_8,3,5,80,127,1704858384
80,18,15,Jits_Phase_8,0,5,63,98,1705574728
80,18,15,Jits_Phase_8,1,1,48,63,1705599592
80,18,15,Jits_Phase_8,2,5,80,127,1705654620
80,18,15,Jits_Phase_8,3,5,56,103,1705665112
80,18,15,Jits_Phase_8,0,5,63,98,1706395036
80,18,15,Jits_Phase_8,1,5,56,103,1706414372
80,18,15,Jits_Phase_8,2,1,48,70,1706445364
80,18,15,Jits_Phase_8,3,5,80,127,1706464492
80,18,15,Jits_Phase_8,0,1,48,66,1707188312
80,18,15,Jits_Phase_8,1,5,80,127,1707194932
80,18,15,Jits_Phase_8,2,5,63,98,1707234944
80,18,15,Jits_Phase_8,3,5,56,103,1707255180
80,18,15,Jits_Phase_8,0,1,48,66,1707951496
80,18,15,Jits_Phase_8,1,5,56,103,1708034396
80,18,15,Jits_Phase_8,2,5,63,98,1708044876
80,18,15,Jits_Phase_8,3,5,80,127,1708065036
80,18,15,Jits_Phase_8,0,1,48,72,1708741364
80,18,15,Jits_Phase_8,1,5,56,103,1708764628
80,18,15,Jits_Phase_8,2,5,63,98,1708854596
80,18,15,Jits_Phase_8,3,5,80,127,1708915084
80,18,15,Jits_Phase_8,0,1,48,65,1709571016
80,18,15,Jits_Phase_8,1,5,80,127,1709594880
80,18,15,Jits_Phase_8,2,5,56,103,1709605224
80,18,15,Jits_Phase_8,3,5,63,98,1709675036
80,18,15,Jits_Phase_8,0,1,48,66,1710390628
80,18,15,Jits_Phase_8,1,5,63,98,1710424304
80,18,15,Jits_Phase_8,2,5,80,127,1710514520
80,18,15,Jits_Phase_8,3,5,56,103,1710524716
80,18,15,Jits_Phase_8,0,5,63,98,1711154396
80,18,15,Jits_Phase_8,1,1,48,58,1711190324
80,18,15,Jits_Phase_8,2,5,80,127,1711204740
80,18,15,Jits_Phase_8,3,5,56,103,1711265080
80,18,15,Jits_Phase_8,0,1,48,59,1711953152
80,18,15,Jits_Phase_8,1,5,56,103,1711974824
80,18,15,Jits_Phase_8,2,5,80,127,1712024976
80,18,15,Jits_Phase_8,3,5,63,98,1712045360
80,18,15,Jits_Phase_8,0,1,48,64,1712709292
80,18,15,Jits_Phase_8,1,5,56,103,1712744912
80,18,15,Jits_Phase_8,2,5,80,127,1712805164
80,18,15,Jits_Phase_8,3,5,63,98,1712875064
80,18,15,Jits_Phase_8,0,1,48,50,1713471732
80,18,15,Jits_Phase_8,1,5,56,103,1713544840
80,18,15,Jits_Phase_8,2,5,80,127,1713575396
80,18,15,Jits_Phase_8,3,5,63,98,1713604852
80,18,15,Jits_Phase_8,0,1,48,64,1714288216
80,18,15,Jits_Phase_8,1,5,56,103,1714385120
80,18,15,Jits_Phase_8,2,5,80,127,1714404888
80,18,15,Jits_Phase_8,3,5,63,98,1714465204
80,18,15,Jits_Phase_8,0,1,48,63,1715088572
80,18,15,Jits_Phase_8,1,5,80,127,1715264952
80,18,15,Jits_Phase_8,2,5,56,103,1715275076
80,18,15,Jits_Phase_8,3,5,63,98,1715285496
80,18,15,Jits_Phase_8,0,1,48,62,1715993988
80,18,15,Jits_Phase_8,1,5,56,103,1716024652
80,18,15,Jits_Phase_8,2,5,80,127,1716064888
80,18,15,Jits_Phase_8,3,5,63,98,1716095248
80,18,15,Jits_Phase_8,0,5,56,103,1716794680
80,18,15,Jits_Phase_8,1,1,48,60,1716817424
80,18,15,Jits_Phase_8,2,5,63,98,1716824572
80,18,15,Jits_Phase_8,3,5,80,127,1716865508
80,18,15,Jits_Phase_8,0,5,80,127,1717545300
80,18,15,Jits_Phase_8,1,1,48,60,1717575920
80,18,15,Jits_Phase_8,2,5,63,98,1717594604
80,18,15,Jits_Phase_8,3,5,56,103,1717614864
80,18,15,Jits_Phase_8,0,1,48,62,1718313724
80,18,15,Jits_Phase_8,1,5,56,103,1718374884
80,18,15,Jits_Phase_8,2,5,80,127,1718445472
80,18,15,Jits_Phase_8,3,5,63,98,1718504812
80,18,15,Jits_Phase_8,0,1,48,64,1719085388
80,18,15,Jits_Phase_8,1,5,80,127,1719174444
80,18,15,Jits_Phase_8,2,5,63,98,1719264712
80,18,15,Jits_Phase_8,3,5,56,103,1719285172
80,18,15,Jits_Phase_8,0,1,48,61,1719878700
80,18,15,Jits_Phase_8,1,5,63,98,1719994792
80,18,15,Jits_Phase_8,2,5,56,103,1720015176
80,18,15,Jits_Phase_8,3,5,80,127,1720055188
80,18,15,Jits_Phase_8,0,1,48,60,1720675832
80,18,15,Jits_Phase_8,1,5,80,127,1720754776
80,18,15,Jits_Phase_8,2,5,63,98,1720774996
80,18,15,Jits_Phase_8,3,5,56,103,1720855012
80,18,15,Jits_Phase_8,0,1,48,66,1721463772
80,18,15,Jits_Phase_8,1,5,63,98,1721544936
80,18,15,Jits_Phase_8,2,5,56,103,1721654608
80,18,15,Jits_Phase_8,3,5,80,127,1721657676
80,18,15,Jits_Phase_8,0,1,48,62,1722271224
80,18,15,Jits_Phase_8,1,5,63,98,1722365716
80,18,15,Jits_Phase_8,2,5,56,103,1722374872
80,18,15,Jits_Phase_8,3,5,80,127,1722377932
80,18,15,Jits_Phase_8,0,1,48,66,1723072704
80,18,15,Jits_Phase_8,1,5,56,103,1723144500
80,18,15,Jits_Phase_8,2,5,80,127,1723265508
80,18,15,Jits_Phase_8,3,5,63,98,1723305296
80,18,15,Jits_Phase_8,0,1,48,66,1723833952
80,18,15,Jits_Phase_8,1,5,56,103,1723964848
80,18,15,Jits_Phase_8,2,5,80,127,1724044592
80,18,15,Jits_Phase_8,3,5,63,98,1724065052
80,18,15,Jits_Phase_8,0,1,48,56,1724618564
80,18,15,Jits_Phase_8,1,5,56,103,1724764680
80,18,15,Jits_Phase_8,2,5,63,98,1724875064
80,18,15,Jits_Phase_8,3,5,80,127,1724878428
80,18,15,Jits_Phase_8,0,1,48,66,1725439292
80,18,15,Jits_Phase_8,1,5,56,103,1725605656
80,18,15,Jits_Phase_8,2,5,80,127,1725635036
80,18,15,Jits_Phase_8,3,5,63,98,1725655644
80,18,15,Jits_Phase_8,0,1,48,60,1726215080
80,18,15,Jits_Phase_8,1,5,63,98,1726394708
80,18,15,Jits_Phase_8,2,5,56,103,1726404828
80,18,15,Jits_Phase_8,3,5,80,127,1726415320
80,18,15,Jits_Phase_8,0,1,48,59,1727062492
80,18,15,Jits_Phase_8,1,5,80,127,1727185540
80,18,15,Jits_Phase_8,2,5,56,103,1727234472
80,18,15,Jits_Phase_8,3,5,63,98,1727275532
80,18,15,Jits_Phase_8,0,1,48,58,1727788512
80,18,15,Jits_Phase_8,1,5,80,127,1728004628
80,18,15,Jits_Phase_8,2,5,63,98,1728024936
80,18,15,Jits_Phase_8,3,5,56,103,1728075064
80,18,15,Jits_Phase_8,0,1,48,57,1728609168
80,18,15,Jits_Phase_8,1,5,80,127,1728814500
80,18,15,Jits_Phase_8,2,5,56,103,1728845368
80,18,15,Jits_Phase_8,3,5,63,98,1728914700
80,18,15,Jits_Phase_8,0,1,48,57,1729432792
80,18,15,Jits_Phase_8,1,5,56,103,1729665676
80,18,15,Jits_Phase_8,2,5,80,127,1729674604
80,18,15,Jits_Phase_8,3,5,63,98,1729714540
80,18,15,Jits_Phase_8,0,5,56,103,1730375012
80,18,15,Jits_Phase_8,1,5,63,98,1730394648
80,18,15,Jits_Phase_8,2,5,80,127,1730465248
80,18,15,Jits_Phase_8,3,1,48,45,1730493476
80,18,15,Jits_Phase_8,0,5,63,98,1731195332
80,18,15,Jits_Phase_8,1,5,80,127,1731254680
80,18,15,Jits_Phase_8,2,1,48,55,1731266336
80,18,15,Jits_Phase_8,3,5,56,103,1731275204
80,18,15,Jits_Phase_8,0,5,80,127,1731984752
80,18,15,Jits_Phase_8,1,5,56,103,1732014428
80,18,15,Jits_Phase_8,2,1,48,47,1732015392
80,18,15,Jits_Phase_8,3,5,63,98,1732045144
80,18,15,Jits_Phase_8,0,5,56,103,1732784520
80,18,15,Jits_Phase_8,1,1,48,49,1732817752
80,18,15,Jits_Phase_8,2,5,63,98,1732845052
80,18,15,Jits_Phase_8,3,5,80,127,1732905516
80,18,15,Jits_Phase_8,0,5,80,127,1733604744
80,18,15,Jits_Phase_8,1,1,48,50,1733619620
80,18,15,Jits_Phase_8,2,5,56,103,1733625348
80,18,15,Jits_Phase_8,3,5,63,98,1733694804
80,18,15,Jits_Phase_8,0,5,80,127,1734404592
80,18,15,Jits_Phase_8,1,1,48,27,1734414304
80,18,15,Jits_Phase_8,2,5,63,98,1734425116
80,18,15,Jits_Phase_8,3,5,56,103,1734454644
80,18,15,Jits_Phase_8,0,1,48,49,1735184700
80,18,15,Jits_Phase_8,1,5,80,127,1735195136
80,18,15,Jits_Phase_8,2,5,63,98,1735214476
80,18,15,Jits_Phase_8,3,5,56,103,1735275084
80,18,15,Jits_Phase_8,0,1,48,51,1735953112
80,18,15,Jits_Phase_8,1,5,80,127,1735994864
80,18,15,Jits_Phase_8,2,5,56,103,1736095200
80,18,15,Jits_Phase_8,3,5,63,98,1736124724
80,18,15,Jits_Phase_8,0,1,48,55,1736770844
80,18,15,Jits_Phase_8,1,5,63,98,1736785260
80,18,15,Jits_Phase_8,2,5,80,127,1736834516
80,18,15,Jits_Phase_8,3,5,56,103,1736854900
80,18,15,Jits_Phase_8,0,1,48,56,1737543112
80,18,15,Jits_Phase_8,1,5,80,127,1737625344
80,18,15,Jits_Phase_8,2,5,56,103,1737654780
80,18,15,Jits_Phase_8,3,5,63,98,1737657772
80,18,15,Jits_Phase_8,0,1,48,28,1738371420
80,18,15,Jits_Phase_8,1,5,63,98,1738475056
80,18,15,Jits_Phase_8,2,5,56,103,1738514844
80,18,15,Jits_Phase_8,3,5,80,127,1738535304
80,18,15,Jits_Phase_8,0,1,48,41,1739137844
80,18,15,Jits_Phase_8,1,5,80,127,1739234808
80,18,15,Jits_Phase_8,2,5,63,98,1739314460
80,18,15,Jits_Phase_8,3,5,56,103,1739354468
80,18,15,Jits_Phase_8,0,1,48,67,1740004216
80,18,15,Jits_Phase_8,1,5,63,98,1740054816
80,18,15,Jits_Phase_8,2,5,80,127,1740134820
80,18,15,Jits_Phase_8,3,5,56,103,1740155228
80,18,15,Jits_Phase_8,0,1,48,60,1740816416
80,18,15,Jits_Phase_8,1,5,56,103,1740894584
80,18,15,Jits_Phase_8,2,5,63,98,1740904856
80,18,15,Jits_Phase_8,3,5,80,127,1740944800
80,18,15,Jits_Phase_8,0,5,56,103,1741614408
80,18,15,Jits_Phase_8,1,5,80,127,1741617544
80,18,15,Jits_Phase_8,2,1,48,58,1741683184
80,18,15,Jits_Phase_8,3,5,63,98,1741754672
80,18,15,Jits_Phase_8,0,5,56,103,1742405100
80,18,15,Jits_Phase_8,1,1,48,54,1742473508
80,18,15,Jits_Phase_8,2,5,63,98,1742495252
80,18,15,Jits_Phase_8,3,5,80,127,1742564780
80,18,15,Jits_Phase_8,0,5,63,98,1743284688
80,18,15,Jits_Phase_8,1,5,80,127,1743287904
80,18,15,Jits_Phase_8,2,1,48,56,1743295300
80,18,15,Jits_Phase_8,3,5,56,103,1743345220
80,18,15,Jits_Phase_8,0,1,48,48,1744097888
80,18,15,Jits_Phase_8,1,5,80,127,1744125416
80,18,15,Jits_Phase_8,2,5,56,103,1744144680
80,18,15,Jits_Phase_8,3,5,63,98,1744155172
80,18,15,Jits_Phase_8,0,5,56,103,1744835048
80,18,15,Jits_Phase_8,1,5,63,98,1744845320
80,18,15,Jits_Phase_8,2,1,48,58,1744877428
80,18,15,Jits_Phase_8,3,5,80,127,1744914768
80,18,15,Jits_Phase_8,0,5,80,127,1745634596
80,18,15,Jits_Phase_8,1,1,48,63,1745652932
80,18,15,Jits_Phase_8,2,5,56,103,1745684792
80,18,15,Jits_Phase_8,3,5,63,98,1745735212
80,18,15,Jits_Phase_8,0,1,48,61,1746502200
80,18,15,Jits_Phase_8,1,5,56,103,1746515348
80,18,15,Jits_Phase_8,2,5,63,98,1746524644
80,18,15,Jits_Phase_8,3,5,80,127,1746564608
80,18,15,Jits_Phase_8,0,5,56,103,1747254584
80,18,15,Jits_Phase_8,1,1,48,63,1747277332
80,18,15,Jits_Phase_8,2,5,63,98,1747294444
80,18,15,Jits_Phase_8,3,5,80,127,1747344888
80,18,15,Jits_Phase_8,0,5,80,127,1748014420
80,18,15,Jits_Phase_8,1,1,48,62,1748042624
80,18,15,Jits_Phase_8,2,5,56,103,1748064692
80,18,15,Jits_Phase_8,3,5,63,98,1748085100
80,18,15,Jits_Phase_8,0,1,48,60,1748813188
80,18,15,Jits_Phase_8,1,5,80,127,1748824520
80,18,15,Jits_Phase_8,2,5,63,98,1748885084
80,18,15,Jits_Phase_8,3,5,56,103,1748964864
80,18,15,Jits_Phase_8,0,5,80,127,1749604880
80,18,15,Jits_Phase_8,1,1,48,64,1749613800
80,18,15,Jits_Phase_8,2,5,56,103,1749645060
80,18,15,Jits_Phase_8,3,5,63,98,1749665072
80,18,15,Jits_Phase_8,0,1,48,55,1750370212
80,18,15,Jits_Phase_8,1,5,56,103,1750454784
80,18,15,Jits_Phase_8,2,5,80,127,1750465056
80,18,15,Jits_Phase_8,3,5,63,98,1750505052
80,18,15,Jits_Phase_8,0,1,48,68,1751224696
80,18,15,Jits_Phase_8,1,5,56,103,1751325248
80,18,15,Jits_Phase_8,2,5,63,98,1751365036
80,18,15,Jits_Phase_8,3,5,80,127,1751368324
80,18,15,Jits_Phase_8,0,5,63,98,1751994740
80,18,15,Jits_Phase_8,1,5,80,127,1752034608
80,18,15,Jits_Phase_8,2,1,48,65,1752054212
80,18,15,Jits_Phase_8,3,5,56,103,1752105324
80,18,15,Jits_Phase_8,0,5,63,98,1752765056
80,18,15,Jits_Phase_8,1,1,48,54,1752801056
80,18,15,Jits_Phase_8,2,5,56,103,1752844696
80,18,15,Jits_Phase_8,3,5,80,127,1752904996
80,18,15,Jits_Phase_8,0,1,48,65,1753506192
80,18,15,Jits_Phase_8,1,5,80,127,1753574700
80,18,15,Jits_Phase_8,2,5,63,98,1753624888
80,18,15,Jits_Phase_8,3,5,56,103,1753654636
80,18,15,Jits_Phase_8,0,5,56,103,1754365244
80,18,15,Jits_Phase_8,1,1,48,58,1754376380
80,18,15,Jits_Phase_8,2,5,63,98,1754414464
80,18,15,Jits_Phase_8,3,5,80,127,1754424736
80,18,15,Jits_Phase_8,0,1,48,51,1755173760
80,18,15,Jits_Phase_8,1,5,56,103,1755175192
80,18,15,Jits_Phase_8,2,5,63,98,1755285040
80,18,15,Jits_Phase_8,3,5,80,127,1755305200
80,18,15,Jits_Phase_8,0,5,63,98,1755975032
80,18,15,Jits_Phase_8,1,1,48,58,1755984824
80,18,15,Jits_Phase_8,2,5,80,127,1756025180
80,18,15,Jits_Phase_8,3,5,56,103,1756115444
80,18,15,Jits_Phase_8,0,5,63,98,1756764456
80,18,15,Jits_Phase_8,1,5,80,127,1756795200
80,18,15,Jits_Phase_8,2,1,48,60,1756816300
80,18,15,Jits_Phase_8,3,5,56,103,1756885324
80,18,15,Jits_Phase_8,0,5,63,98,1757565280
80,18,15,Jits_Phase_8,1,5,56,103,1757574432
80,18,15,Jits_Phase_8,2,1,48,65,1757615008
80,18,15,Jits_Phase_8,3,5,80,127,1757674964
80,18,15,Jits_Phase_8,0,1,48,55,1758379084
80,18,15,Jits_Phase_8,1,5,63,98,1758465348
80,18,15,Jits_Phase_8,2,5,80,127,1758495084
80,18,15,Jits_Phase_8,3,5,56,103,1758525056
80,18,15,Jits_Phase_8,0,1,48,57,1759199304
80,18,15,Jits_Phase_8,1,5,80,127,1759284448
80,18,15,Jits_Phase_8,2,5,63,98,1759294796
80,18,15,Jits_Phase_8,3,5,56,103,1759324528
80,18,15,Jits_Phase_8,0,5,80,127,1759984952
80,18,15,Jits_Phase_8,1,5,63,98,1760004588
80,18,15,Jits_Phase_8,2,1,48,54,1760022608
80,18,15,Jits_Phase_8,3,5,56,103,1760054780
80,18,15,Jits_Phase_8,0,1,48,50,1760763268
80,18,15,Jits_Phase_8,1,5,63,98,1760814388
80,18,15,Jits_Phase_8,2,5,80,127,1760874860
80,18,15,Jits_Phase_8,3,5,56,103,1760895244
80,18,15,Jits_Phase_8,0,5,63,98,1761575268
80,18,15,Jits_Phase_8,1,1,48,55,1761584536
80,18,15,Jits_Phase_8,2,5,56,103,1761624344
80,18,15,Jits_Phase_8,3,5,80,127,1761634912
80,18,15,Jits_Phase_8,0,1,48,57,1762344872
80,18,15,Jits_Phase_8,1,5,56,103,1762404984
80,18,15,Jits_Phase_8,2,5,80,127,1762414908
80,18,15,Jits_Phase_8,3,5,63,98,1762515208
80,18,15,Jits_Phase_8,0,5,80,127,1763164888
80,18,15,Jits_Phase_8,1,1,48,53,1763173732
80,18,15,Jits_Phase_8,2,5,63,98,1763175228
80,18,15,Jits_Phase_8,3,5,56,103,1763325228
80,18,15,Jits_Phase_8,0,5,63,98,1763974724
80,18,15,Jits_Phase_8,1,1,48,53,1763988852
80,18,15,Jits_Phase_8,2,5,80,127,1764014432
80,18,15,Jits_Phase_8,3,5,56,103,1764095408
80,18,15,Jits_Phase_8,0,5,56,103,1764725104
80,18,15,Jits_Phase_8,1,1,48,57,1764820964
80,18,15,Jits_Phase_8,2,5,80,127,1764824300
80,18,15,Jits_Phase_8,3,5,63,98,1764844908
80,18,15,Jits_Phase_8,0,1,48,44,1765532404
80,18,15,Jits_Phase_8,1,5,80,127,1765554548
80,18,15,Jits_Phase_8,2,5,56,103,1765564968
80,18,15,Jits_Phase_8,3,5,63,98,1765654860
80,18,15,Jits_Phase_8,0,5,56,103,1766355288
80,18,15,Jits_Phase_8,1,1,48,38,1766365456
80,18,15,Jits_Phase_8,2,5,63,98,1766374768
80,18,15,Jits_Phase_8,3,5,80,127,1766454784
80,18,15,Jits_Phase_8,0,5,63,98,1767104868
80,18,15,Jits_Phase_8,1,1,48,38,1767137800
80,18,15,Jits_Phase_8,2,5,56,103,1767194836
80,18,15,Jits_Phase_8,3,5,80,127,1767197836
80,18,15,Jits_Phase_8,0,1,48,48,1767923992
80,18,15,Jits_Phase_8,1,5,56,103,1767935324
80,18,15,Jits_Phase_8,2,5,80,127,1767994816
80,18,15,Jits_Phase_8,3,5,63,98,1768005012
80,18,15,Jits_Phase_8,0,1,48,18,1768743900
80,18,15,Jits_Phase_8,1,5,80,127,1768785132
80,18,15,Jits_Phase_8,2,5,56,103,1768794652
80,18,15,Jits_Phase_8,3,5,63,98,1768797864
80,18,15,Jits_Phase_8,0,5,56,103,1769544956
80,18,15,Jits_Phase_8,1,5,80,127,1769555820
80,18,15,Jits_Phase_8,2,5,63,98,1769574636
80,18,15,Jits_Phase_8,3,1,48,43,1769584656
80,18,15,Jits_Phase_8,0,5,63,98,1770315180
80,18,15,Jits_Phase_8,1,1,48,54,1770333668
80,18,15,Jits_Phase_8,2,5,80,127,1770374616
80,18,15,Jits_Phase_8,3,5,56,103,1770424744
80,18,15,Jits_Phase_8,0,1,48,48,1771096020
80,18,15,Jits_Phase_8,1,5,63,98,1771194660
80,18,15,Jits_Phase_8,2,5,56,103,1771204856
80,18,15,Jits_Phase_8,3,5,80,127,1771255128
80,18,15,Jits_Phase_8,0,5,63,98,1771895096
80,18,15,Jits_Phase_8,1,5,80,127,1771914732
80,18,15,Jits_Phase_8,2,5,56,103,1771924780
80,18,15,Jits_Phase_8,3,1,48,46,1771950588
80,18,15,Jits_Phase_8,0,5,63,98,1772694844
80,18,15,Jits_Phase_8,1,5,80,127,1772698132
80,18,15,Jits_Phase_8,2,1,48,45,1772710692
80,18,15,Jits_Phase_8,3,5,56,103,1772734848
80,18,15,Jits_Phase_8,0,1,48,45,1773494028
80,18,15,Jits_Phase_8,1,5,63,98,1773565524
80,18,15,Jits_Phase_8,2,5,80,127,1773594968
80,18,15,Jits_Phase_8,3,5,56,103,1773605312
80,18,15,Jits_Phase_8,0,1,48,55,1774282840
80,18,15,Jits_Phase_8,1,5,56,103,1774314720
80,18,15,Jits_Phase_8,2,5,80,127,1774344544
80,18,15,Jits_Phase_8,3,5,63,98,1774375264
80,18,15,Jits_Phase_8,0,1,48,54,1775084328
80,18,15,Jits_Phase_8,1,5,63,98,1775214952
80,18,15,Jits_Phase_8,2,5,56,103,1775254888
80,18,15,Jits_Phase_8,3,5,80,127,1775258028
80,18,15,Jits_Phase_8,0,1,48,34,1775900936
80,18,15,Jits_Phase_8,1,5,80,127,1775915500
80,18,15,Jits_Phase_8,2,5,56,103,1775995308
80,18,15,Jits_Phase_8,3,5,63,98,1776045360
80,18,15,Jits_Phase_8,0,5,80,127,1776694592
80,18,15,Jits_Phase_8,1,1,48,49,1776695560
80,18,15,Jits_Phase_8,2,5,56,103,1776715044
80,18,15,Jits_Phase_8,3,5,63,98,1776805184
80,18,15,Jits_Phase_8,0,1,48,51,1777471388
80,18,15,Jits_Phase_8,1,5,80,127,1777535356
80,18,15,Jits_Phase_8,2,5,63,98,1777575504
80,18,15,Jits_Phase_8,3,5,56,103,1777615292
80,18,15,Jits_Phase_8,0,1,48,51,1778317856
80,18,15,Jits_Phase_8,1,5,63,98,1778345380
80,18,15,Jits_Phase_8,2,5,80,127,1778404724
80,18,15,Jits_Phase_8,3,5,56,103,1778434680
80,18,15,Jits_Phase_8,0,1,48,55,1779128544
80,18,15,Jits_Phase_8,1,5,56,103,1779184916
80,18,15,Jits_Phase_8,2,5,80,127,1779214668
80,18,15,Jits_Phase_8,3,5,63,98,1779305104
80,18,15,Jits_Phase_8,0,1,48,57,1779989956
80,18,15,Jits_Phase_8,1,5,56,103,1779994860
80,18,15,Jits_Phase_8,2,5,80,127,1780104488
80,18,15,Jits_Phase_8,3,5,63,98,1780135508
80,18,15,Jits_Phase_8,0,1,48,39,1780827488
80,18,15,Jits_Phase_8,1,5,56,103,1780844772
80,18,15,Jits_Phase_8,2,5,63,98,1780905612
80,18,15,Jits_Phase_8,3,5,80,127,1780935120
80,18,15,Jits_Phase_8,0,1,48,66,1781612828
80,18,15,Jits_Phase_8,1,5,56,103,1781614944
80,18,15,Jits_Phase_8,2,5,63,98,1781684700
80,18,15,Jits_Phase_8,3,5,80,127,1781704936
80,18,15,Jits_Phase_8,0,5,80,127,1782384968
80,18,15,Jits_Phase_8,1,1,48,57,1782391300
80,18,15,Jits_Phase_8,2,5,63,98,1782404448
80,18,15,Jits_Phase_8,3,5,56,103,1782454648
80,18,15,Jits_Phase_8,0,1,48,57,1783176460
80,18,15,Jits_Phase_8,1,5,63,98,1783205476
80,18,15,Jits_Phase_8,2,5,80,127,1783214404
80,18,15,Jits_Phase_8,3,5,56,103,1783264604
80,18,15,Jits_Phase_8,0,1,48,63,1783951476
80,18,15,Jits_Phase_8,1,5,63,98,1784004852
80,18,15,Jits_Phase_8,2,5,80,127,1784074520
80,18,15,Jits_Phase_8,3,5,56,103,1784095056
80,18,15,Jits_Phase_8,0,1,48,62,1784785852
80,18,15,Jits_Phase_8,1,5,63,98,1784834504
80,18,15,Jits_Phase_8,2,5,80,127,1784837864
80,18,15,Jits_Phase_8,3,5,56,103,1784905364
80,18,15,Jits_Phase_8,0,1,48,57,1785576236
80,18,15,Jits_Phase_8,1,5,80,127,1785584956
80,18,15,Jits_Phase_8,2,5,56,103,1785604444
80,18,15,Jits_Phase_8,3,5,63,98,1785614564
80,18,15,Jits_Phase_8,0,1,48,60,1786402800
80,18,15,Jits_Phase_8,1,5,56,103,1786405460
80,18,15,Jits_Phase_8,2,5,63,98,1786495468
80,18,15,Jits_Phase_8,3,5,80,127,1786499564
80,18,15,Jits_Phase_8,0,5,80,127,1787175324
80,18,15,Jits_Phase_8,1,1,48,62,1787181804
80,18,15,Jits_Phase_8,2,5,56,103,1787184540
80,18,15,Jits_Phase_8,3,5,63,98,1787204924
80,18,15,Jits_Phase_8,0,1,48,59,1787959012
80,18,15,Jits_Phase_8,1,5,63,98,1787975300
80,18,15,Jits_Phase_8,2,5,80,127,1788034372
80,18,15,Jits_Phase_8,3,5,56,103,1788044716
80,18,15,Jits_Phase_8,0,1,48,58,1788713152
80,18,15,Jits_Phase_8,1,5,63,98,1788845416
80,18,15,Jits_Phase_8,2,5,80,127,1788875240
80,18,15,Jits_Phase_8,3,5,56,103,1788915324
80,18,15,Jits_Phase_8,0,1,48,47,1789503844
80,18,15,Jits_Phase_8,1,5,56,103,1789635064
80,18,15,Jits_Phase_8,2,5,80,127,1789645260
80,18,15,Jits_Phase_8,3,5,63,98,1789685196
80,18,15,Jits_Phase_8,0,1,48,51,1790361224
80,18,15,Jits_Phase_8,1,5,80,127,1790394824
80,18,15,Jits_Phase_8,2,5,56,103,1790474604
80,18,15,Jits_Phase_8,3,5,63,98,1790485024
80,18,15,Jits_Phase_8,0,1,48,57,1791230288
80,18,15,Jits_Phase_8,1,5,80,127,1791244632
80,18,15,Jits_Phase_8,2,5,56,103,1791324504
80,18,15,Jits_Phase_8,3,5,63,98,1791334756
80,18,15,Jits_Phase_8,0,1,48,53,1792064156
80,18,15,Jits_Phase_8,1,5,80,127,1792085308
80,18,15,Jits_Phase_8,2,5,56,103,1792134488
80,18,15,Jits_Phase_8,3,5,63,98,1792184676
80,18,15,Jits_Phase_8,0,1,48,63,1792923336
80,18,15,Jits_Phase_8,1,5,56,103,1793025456
80,18,15,Jits_Phase_8,2,5,63,98,1793028376
80,18,15,Jits_Phase_8,3,5,80,127,1793074464
80,18,15,Jits_Phase_8,0,1,48,46,1793764372
80,18,15,Jits_Phase_8,1,5,56,103,1793844484
80,18,15,Jits_Phase_8,2,5,63,98,1793875416
80,18,15,Jits_Phase_8,3,5,80,127,1793884416
80,18,15,Jits_Phase_8,0,5,63,98,1794555172
80,18,15,Jits_Phase_8,1,5,56,103,1794625004
80,18,15,Jits_Phase_8,2,1,48,58,1794662052
80,18,15,Jits_Phase_8,3,5,80,127,1794675296
80,18,15,Jits_Phase_8,0,5,63,98,1795384752
80,18,15,Jits_Phase_8,1,5,56,103,1795395020
80,18,15,Jits_Phase_8,2,5,80,127,1795397936
80,18,15,Jits_Phase_8,3,1,48,45,1795480560
80,18,15,Jits_Phase_8,0,5,80,127,1796135196
80,18,15,Jits_Phase_8,1,5,56,103,1796194692
80,18,15,Jits_Phase_8,2,1,48,54,1796250564
80,18,15,Jits_Phase_8,3,5,63,98,1796284768
80,18,15,Jits_Phase_8,0,5,80,127,1796935192
80,18,15,Jits_Phase_8,1,1,48,49,1797018124
80,18,15,Jits_Phase_8,2,5,56,103,1797035312
80,18,15,Jits_Phase_8,3,5,63,98,1797075248
80,18,15,Jits_Phase_8,0,5,56,103,1797785116
80,18,15,Jits_Phase_8,1,5,63,98,1797805276
80,18,15,Jits_Phase_8,2,1,48,55,1797823616
80,18,15,Jits_Phase_8,3,5,80,127,1797845284
80,18,15,Jits_Phase_8,0,5,63,98,1798555216
80,18,15,Jits_Phase_8,1,5,56,103,1798574408
80,18,15,Jits_Phase_8,2,1,48,55,1798620144
80,18,15,Jits_Phase_8,3,5,80,127,1798675092
80,18,15,Jits_Phase_8,0,5,63,98,1799344628
80,18,15,Jits_Phase_8,1,1,48,55,1799360556
80,18,15,Jits_Phase_8,2,5,80,127,1799455944
80,18,15,Jits_Phase_8,3,5,56,103,1799485020
80,18,15,Jits_Phase_8,0,5,56,103,1800164920
80,18,15,Jits_Phase_8,1,1,48,49,1800184376
80,18,15,Jits_Phase_8,2,5,63,98,1800194516
80,18,15,Jits_Phase_8,3,5,80,127,1800244568
80,18,15,Jits_Phase_8,0,5,63,98,1800934720
80,18,15,Jits_Phase_8,1,1,48,57,1800957244
80,18,15,Jits_Phase_8,2,5,56,103,1800964468
80,18,15,Jits_Phase_8,3,5,80,127,1801014592
80,18,15,Jits_Phase_8,0,1,48,49,1801760280
80,18,15,Jits_Phase_8,1,5,56,103,1801765108
80,18,15,Jits_Phase_8,2,5,63,98,1801784896
80,18,15,Jits_Phase_8,3,5,80,127,1801864700
80,18,15,Jits_Phase_8,0,5,63,98,1802535276
80,18,15,Jits_Phase_8,1,1,48,49,1802551272
80,18,15,Jits_Phase_8,2,5,56,103,1802594692
80,18,15,Jits_Phase_8,3,5,80,127,1802625512
80,18,15,Jits_Phase_8,0,1,48,56,1803323988
80,18,15,Jits_Phase_8,1,5,56,103,1803375132
80,18,15,Jits_Phase_8,2,5,80,127,1803435284
80,18,15,Jits_Phase_8,3,5,63,98,1803475220
80,18,15,Jits_Phase_8,0,5,63,98,1804155192
80,18,15,Jits_Phase_8,1,1,48,57,1804168048
80,18,15,Jits_Phase_8,2,5,56,103,1804214608
80,18,15,Jits_Phase_8,3,5,80,127,1804285392
80,18,15,Jits_Phase_8,0,1,48,52,1804989300
80,18,15,Jits_Phase_8,1,5,56,103,1805034964
80,18,15,Jits_Phase_8,2,5,63,98,1805045232
80,18,15,Jits_Phase_8,3,5,80,127,1805048520
80,18,15,Jits_Phase_8,0,5,63,98,1805775152
80,18,15,Jits_Phase_8,1,1,48,52,1805832284
80,18,15,Jits_Phase_8,2,5,56,103,1805834860
80,18,15,Jits_Phase_8,3,5,80,127,1805837852
80,18,15,Jits_Phase_8,0,5,63,98,1806554448
80,18,15,Jits_Phase_8,1,5,80,127,1806585172
80,18,15,Jits_Phase_8,2,5,56,103,1806604732
80,18,15,Jits_Phase_8,3,1,48,52,1806634228
80,18,15,Jits_Phase_8,0,5,56,103,1807284448
80,18,15,Jits_Phase_8,1,5,63,98,1807334948
80,18,15,Jits_Phase_8,2,1,48,53,1807392148
80,18,15,Jits_Phase_8,3,5,80,127,1807414808
80,18,15,Jits_Phase_8,0,5,80,127,1807984884
80,18,15,Jits_Phase_8,1,5,63,98,1808024896
80,18,15,Jits_Phase_8,2,5,56,103,1808045280
80,18,15,Jits_Phase_8,3,1,48,59,1808132068
80,18,15,Jits_Phase_8,0,1,48,45,1808836764
80,18,15,Jits_Phase_8,1,5,56,103,1808855368
80,18,15,Jits_Phase_8,2,5,80,127,1808864816
80,18,15,Jits_Phase_8,3,5,63,98,1808885200
80,18,15,Jits_Phase_8,0,1,48,48,1809574856
80,18,15,Jits_Phase_8,1,5,56,103,1809634968
80,18,15,Jits_Phase_8,2,5,63,98,1809685084
80,18,15,Jits_Phase_8,3,5,80,127,1809714756
80,18,15,Jits_Phase_8,0,1,48,43,1810355664
80,18,15,Jits_Phase_8,1,5,56,103,1810385280
80,18,15,Jits_Phase_8,2,5,63,98,1810394580
80,18,15,Jits_Phase_8,3,5,80,127,1810445000
80,18,15,Jits_Phase_8,0,1,48,43,1811163660
80,18,15,Jits_Phase_8,1,5,56,103,1811174840
80,18,15,Jits_Phase_8,2,5,80,127,1811177760
80,18,15,Jits_Phase_8,3,5,63,98,1811334504
80,18,15,Jits_Phase_8,0,1,48,43,1811962268
80,18,15,Jits_Phase_8,1,5,63,98,1811994972
80,18,15,Jits_Phase_8,2,5,56,103,1812064860
80,18,15,Jits_Phase_8,3,5,80,127,1812104676
80,18,15,Jits_Phase_8,0,1,48,42,1812748472
80,18,15,Jits_Phase_8,1,5,63,98,1812834812
80,18,15,Jits_Phase_8,2,5,56,103,1812924880
80,18,15,Jits_Phase_8,3,5,80,127,1812927796
80,18,15,Jits_Phase_8,0,1,48,46,1813521772
80,18,15,Jits_Phase_8,1,5,56,103,1813614888
80,18,15,Jits_Phase_8,2,5,63,98,1813705156
80,18,15,Jits_Phase_8,3,5,80,127,1813715280
80,18,15,Jits_Phase_8,0,5,56,103,1814384988
80,18,15,Jits_Phase_8,1,1,48,50,1814392592
80,18,15,Jits_Phase_8,2,5,63,98,1814435108
80,18,15,Jits_Phase_8,3,5,80,127,1814464856
80,18,15,Jits_Phase_8,0,1,48,46,1815157372
80,18,15,Jits_Phase_8,1,5,63,98,1815264900
80,18,15,Jits_Phase_8,2,5,80,127,1815274724
80,18,15,Jits_Phase_8,3,5,56,103,1815335412
80,18,15,Jits_Phase_8,0,1,48,39,1815981772
80,18,15,Jits_Phase_8,1,5,63,98,1815984436
80,18,15,Jits_Phase_8,2,5,80,127,1816044900
80,18,15,Jits_Phase_8,3,5,56,103,1816084824
80,18,15,Jits_Phase_8,0,1,48,49,1816800040
80,18,15,Jits_Phase_8,1,5,56,103,1816884808
80,18,15,Jits_Phase_8,2,5,80,127,1816905032
80,18,15,Jits_Phase_8,3,5,63,98,1816924668
80,18,15,Jits_Phase_8,0,5,63,98,1817604640
80,18,15,Jits_Phase_8,1,5,56,103,1817625024
80,18,15,Jits_Phase_8,2,1,48,49,1817655716
80,18,15,Jits_Phase_8,3,5,80,127,1817664956
80,18,15,Jits_Phase_8,0,5,63,98,1818414508
80,18,15,Jits_Phase_8,1,1,48,25,1818440692
80,18,15,Jits_Phase_8,2,5,80,127,1818445076
80,18,15,Jits_Phase_8,3,5,56,103,1818464712
80,18,15,Jits_Phase_8,0,1,48,48,1819168448
80,18,15,Jits_Phase_8,1,5,80,127,1819184440
80,18,15,Jits_Phase_8,2,5,56,103,1819234568
80,18,15,Jits_Phase_8,3,5,63,98,1819295040
80,18,15,Jits_Phase_8,0,1,48,53,1819941376
80,18,15,Jits_Phase_8,1,5,63,98,1819974904
80,18,15,Jits_Phase_8,2,5,56,103,1820094792
80,18,15,Jits_Phase_8,3,5,80,127,1820124468
80,18,15,Jits_Phase_8,0,1,48,51,1820749380
80,18,15,Jits_Phase_8,1,5,80,127,1820814696
80,18,15,Jits_Phase_8,2,5,63,98,1820835232
80,18,15,Jits_Phase_8,3,5,56,103,1820904748
80,18,15,Jits_Phase_8,0,1,48,52,1821559728
80,18,15,Jits_Phase_8,1,5,63,98,1821634912
80,18,15,Jits_Phase_8,2,5,56,103,1821645036
80,18,15,Jits_Phase_8,3,5,80,127,1821725184
80,18,15,Jits_Phase_8,0,1,48,42,1822334028
80,18,15,Jits_Phase_8,1,5,56,103,1822495116
80,18,15,Jits_Phase_8,2,5,80,127,1822524792
80,18,15,Jits_Phase_8,3,5,63,98,1822535212
80,18,15,Jits_Phase_8,0,9999,9999,9999,1687642208
80,18,15,Jits_Phase_8,1,9999,9999,9999,1688442972
80,18,15,Jits_Phase_8,2,9999,9999,9999,1689242732
80,18,15,Jits_Phase_8,3,9999,9999,9999,1690042428
80,18,15,Jits_Phase_8,4,9999,9999,9999,1690842184
80,18,15,Jits_Phase_8,5,9999,9999,9999,1691642988
80,18,15,Jits_Phase_8,6,9999,9999,9999,1692442736
80,18,15,Jits_Phase_8,7,9999,9999,9999,1693242424
80,18,15,Jits_Phase_8,8,9999,9999,9999,1694042180
80,18,15,Jits_Phase_8,9,9999,9999,9999,1694842996
80,18,15,Jits_Phase_8,10,9999,9999,9999,1695642688
80,18,15,Jits_Phase_8,11,9999,9999,9999,1696442444
80,18,15,Jits_Phase_8,12,9999,9999,9999,1697242208
80,18,15,Jits_Phase_8,13,9999,9999,9999,1698042980
80,18,15,Jits_Phase_8,14,9999,9999,9999,1698842728
80,18,15,Jits_Phase_8,15,9999,9999,9999,1699642492
80,18,15,Jits_Phase_8,16,9999,9999,9999,1700442232
80,18,15,Jits_Phase_8,17,9999,9999,9999,1701242988
80,18,15,Jits_Phase_8,18,9999,9999,9999,1702042748
80,18,15,Jits_Phase_8,19,9999,9999,9999,1702842436
80,18,15,Jits_Phase_8,20,9999,9999,9999,1703642192
80,18,15,Jits_Phase_8,21,9999,9999,9999,1704442992
80,18,15,Jits_Phase_8,22,9999,9999,9999,1705242740
80,18,15,Jits_Phase_8,23,9999,9999,9999,1706042496
80,18,15,Jits_Phase_8,24,9999,9999,9999,1706842176
80,18,15,Jits_Phase_8,25,9999,9999,9999,1707643000
80,18,15,Jits_Phase_8,26,9999,9999,9999,1708442684
80,18,15,Jits_Phase_8,27,9999,9999,9999,1709242440
80,18,15,Jits_Phase_8,28,9999,9999,9999,1710042200
80,18,15,Jits_Phase_8,29,9999,9999,9999,1710843008
80,18,15,Jits_Phase_8,30,9999,9999,9999,1711622240
80,18,15,Jits_Phase_8,31,9999,9999,9999,1712422968
80,18,15,Jits_Phase_8,32,9999,9999,9999,1713222724
80,18,15,Jits_Phase_8,33,9999,9999,9999,1714022476
80,18,15,Jits_Phase_8,34,9999,9999,9999,1714822252
80,18,15,Jits_Phase_8,35,9999,9999,9999,1715622992
80,18,15,Jits_Phase_8,36,9999,9999,9999,1716422756
80,18,15,Jits_Phase_8,37,9999,9999,9999,1717222516
80,18,15,Jits_Phase_8,38,9999,9999,9999,1718022208
80,18,15,Jits_Phase_8,39,9999,9999,9999,1718823032
80,18,15,Jits_Phase_8,40,9999,9999,9999,1719622716
80,18,15,Jits_Phase_8,41,9999,9999,9999,1720422476
80,18,15,Jits_Phase_8,42,9999,9999,9999,1721222248
80,18,15,Jits_Phase_8,43,9999,9999,9999,1722023040
80,18,15,Jits_Phase_8,44,9999,9999,9999,1722822784
80,18,15,Jits_Phase_8,45,9999,9999,9999,1723622468
80,18,15,Jits_Phase_8,46,9999,9999,9999,1724422224
80,18,15,Jits_Phase_8,47,9999,9999,9999,1725223020
80,18,15,Jits_Phase_8,48,9999,9999,9999,1726042184
80,18,15,Jits_Phase_8,49,9999,9999,9999,1726842936
80,18,15,Jits_Phase_8,50,9999,9999,9999,1727642692
80,18,15,Jits_Phase_8,51,9999,9999,9999,1728442448
80,18,15,Jits_Phase_8,52,9999,9999,9999,1729242208
80,18,15,Jits_Phase_8,53,9999,9999,9999,1730042944
80,18,15,Jits_Phase_8,54,9999,9999,9999,1730842700
80,18,15,Jits_Phase_8,55,9999,9999,9999,1731642476
80,18,15,Jits_Phase_8,56,9999,9999,9999,1732442228
80,18,15,Jits_Phase_8,57,9999,9999,9999,1733242996
80,18,15,Jits_Phase_8,58,9999,9999,9999,1734042692
80,18,15,Jits_Phase_8,59,9999,9999,9999,1734842464
80,18,15,Jits_Phase_8,60,9999,9999,9999,1735642208
80,18,15,Jits_Phase_8,61,9999,9999,9999,1736442940
80,18,15,Jits_Phase_8,62,9999,9999,9999,1737242696
80,18,15,Jits_Phase_8,63,9999,9999,9999,1738042444
80,18,15,Jits_Phase_8,64,9999,9999,9999,1738882164
80,18,15,Jits_Phase_8,65,9999,9999,9999,1739682900
80,18,15,Jits_Phase_8,66,9999,9999,9999,1740482660
80,18,15,Jits_Phase_8,67,9999,9999,9999,1741282424
80,18,15,Jits_Phase_8,68,9999,9999,9999,1742082164
80,18,15,Jits_Phase_8,69,9999,9999,9999,1742882908
80,18,15,Jits_Phase_8,70,9999,9999,9999,1743682676
80,18,15,Jits_Phase_8,71,9999,9999,9999,1744482368
80,18,15,Jits_Phase_8,72,9999,9999,9999,1745282140
80,18,15,Jits_Phase_8,73,9999,9999,9999,1746082884
80,18,15,Jits_Phase_8,74,9999,9999,9999,1746882660
80,18,15,Jits_Phase_8,75,9999,9999,9999,1747682420
80,18,15,Jits_Phase_8,76,9999,9999,9999,1748482112
80,18,15,Jits_Phase_8,77,9999,9999,9999,1749282932
80,18,15,Jits_Phase_8,78,9999,9999,9999,1750082680
80,18,15,Jits_Phase_8,79,9999,9999,9999,1750882380
80,18,15,Jits_Phase_8,80,9999,9999,9999,1751682156
80,18,15,Jits_Phase_8,81,9999,9999,9999,1752442956
80,18,15,Jits_Phase_8,82,9999,9999,9999,1753242716
80,18,15,Jits_Phase_8,83,9999,9999,9999,1754042468
80,18,15,Jits_Phase_8,84,9999,9999,9999,1754842224
80,18,15,Jits_Phase_8,85,9999,9999,9999,1755642972
80,18,15,Jits_Phase_8,86,9999,9999,9999,1756442724
80,18,15,Jits_Phase_8,87,9999,9999,9999,1757242484
80,18,15,Jits_Phase_8,88,9999,9999,9999,1758042236
80,18,15,Jits_Phase_8,89,9999,9999,9999,1758843000
80,18,15,Jits_Phase_8,90,9999,9999,9999,1759642696
80,18,15,Jits_Phase_8,91,9999,9999,9999,1760442452
80,18,15,Jits_Phase_8,92,9999,9999,9999,1761242232
80,18,15,Jits_Phase_8,93,9999,9999,9999,1762042956
80,18,15,Jits_Phase_8,94,9999,9999,9999,1762842716
80,18,15,Jits_Phase_8,95,9999,9999,9999,1763642472
80,18,15,Jits_Phase_8,96,9999,9999,9999,1764442168
80,18,15,Jits_Phase_8,97,9999,9999,9999,1765163112
80,18,15,Jits_Phase_8,98,9999,9999,9999,1765973076
80,18,15,Jits_Phase_8,99,9999,9999,9999,1766772860
80,18,15,Jits_Phase_8,100,9999,9999,9999,1767572548
80,18,15,Jits_Phase_8,101,9999,9999,9999,1768372308
80,18,15,Jits_Phase_8,102,9999,9999,9999,1769173108
80,18,15,Jits_Phase_8,103,9999,9999,9999,1769972840
80,18,15,Jits_Phase_8,104,9999,9999,9999,1770772536
80,18,15,Jits_Phase_8,105,9999,9999,9999,1771572296
80,18,15,Jits_Phase_8,106,9999,9999,9999,1772373092
80,18,15,Jits_Phase_8,107,9999,9999,9999,1773172860
80,18,15,Jits_Phase_8,108,9999,9999,9999,1773972548
80,18,15,Jits_Phase_8,109,9999,9999,9999,1774772300
80,18,15,Jits_Phase_8,110,9999,9999,9999,1775573104
80,18,15,Jits_Phase_8,111,9999,9999,9999,1776372792
80,18,15,Jits_Phase_8,112,9999,9999,9999,1777172548
80,18,15,Jits_Phase_8,113,9999,9999,9999,1777972316
80,18,15,Jits_Phase_8,114,9999,9999,9999,1778852932
80,18,15,Jits_Phase_8,115,9999,9999,9999,1779652688
80,18,15,Jits_Phase_8,116,9999,9999,9999,1780452452
80,18,15,Jits_Phase_8,117,9999,9999,9999,1781252216
80,18,15,Jits_Phase_8,118,9999,9999,9999,1782052952
80,18,15,Jits_Phase_8,119,9999,9999,9999,1782852704
80,18,15,Jits_Phase_8,120,9999,9999,9999,1783652472
80,18,15,Jits_Phase_8,121,9999,9999,9999,1784452176
80,18,15,Jits_Phase_8,122,9999,9999,9999,1785252972
80,18,15,Jits_Phase_8,123,9999,9999,9999,1786052724
80,18,15,Jits_Phase_8,124,9999,9999,9999,1786852476
80,18,15,Jits_Phase_8,125,9999,9999,9999,1787652224
80,18,15,Jits_Phase_8,126,9999,9999,9999,1788452960
80,18,15,Jits_Phase_8,127,9999,9999,9999,1789252724
80,18,15,Jits_Phase_8,128,9999,9999,9999,1790052408
80,18,15,Jits_Phase_8,129,9999,9999,9999,1790852184
80,18,15,Jits_Phase_8,130,9999,9999,9999,1791652924
80,18,15,Jits_Phase_8,131,9999,9999,9999,1792612412
80,18,15,Jits_Phase_8,132,9999,9999,9999,1793412180
80,18,15,Jits_Phase_8,133,9999,9999,9999,1794212920
80,18,15,Jits_Phase_8,134,9999,9999,9999,1795012676
80,18,15,Jits_Phase_8,135,9999,9999,9999,1795812424
80,18,15,Jits_Phase_8,136,9999,9999,9999,1796612184
80,18,15,Jits_Phase_8,137,9999,9999,9999,1797412928
80,18,15,Jits_Phase_8,138,9999,9999,9999,1798212700
80,18,15,Jits_Phase_8,139,9999,9999,9999,1799012472
80,18,15,Jits_Phase_8,140,9999,9999,9999,1799812176
80,18,15,Jits_Phase_8,141,9999,9999,9999,1800612980
80,18,15,Jits_Phase_8,142,9999,9999,9999,1801412672
80,18,15,Jits_Phase_8,143,9999,9999,9999,1802212432
80,18,15,Jits_Phase_8,144,9999,9999,9999,1803012184
80,18,15,Jits_Phase_8,145,9999,9999,9999,1803812988
80,18,15,Jits_Phase_8,146,9999,9999,9999,1804612676
80,18,15,Jits_Phase_8,147,9999,9999,9999,1805412428
80,18,15,Jits_Phase_8,148,9999,9999,9999,1806212196
80,18,15,Jits_Phase_8,149,9999,9999,9999,1807012920
80,18,15,Jits_Phase_8,150,9999,9999,9999,1807652932
80,18,15,Jits_Phase_8,151,9999,9999,9999,1808452696
80,18,15,Jits_Phase_8,152,9999,9999,9999,1809252472
80,18,15,Jits_Phase_8,153,9999,9999,9999,1810052176
80,18,15,Jits_Phase_8,154,9999,9999,9999,1810852976
80,18,15,Jits_Phase_8,155,9999,9999,9999,1811652724
80,18,15,Jits_Phase_8,156,9999,9999,9999,1812452408
80,18,15,Jits_Phase_8,157,9999,9999,9999,1813252164
80,18,15,Jits_Phase_8,158,9999,9999,9999,1814052972
80,18,15,Jits_Phase_8,159,9999,9999,9999,1814852728
80,18,15,Jits_Phase_8,160,9999,9999,9999,1815652432
80,18,15,Jits_Phase_8,161,9999,9999,9999,1816452208
80,18,15,Jits_Phase_8,162,9999,9999,9999,1817252948
80,18,15,Jits_Phase_8,163,9999,9999,9999,1818052700
80,18,15,Jits_Phase_8,164,9999,9999,9999,1818852456
80,18,15,Jits_Phase_8,165,9999,9999,9999,1819652212
80,18,15,Jits_Phase_8,166,9999,9999,9999,1820452944
80,18,15,Jits_Phase_8,167,9999,9999,9999,1821252704
80,18,15,Jits_Phase_8,168,9999,9999,9999,1822052468
80,18,15,Jits_Phase_8,169,9999,9999,9999,1822852184
80,19,17,Jits_Phase_5,0,5,56,103,1830735372
80,19,17,Jits_Phase_5,1,5,63,98,1830738400
80,19,17,Jits_Phase_5,2,5,80,127,1830741444
80,19,17,Jits_Phase_5,0,5,56,103,1831234932
80,19,17,Jits_Phase_5,1,5,63,98,1831238108
80,19,17,Jits_Phase_5,2,5,80,127,1831241300
80,19,17,Jits_Phase_5,0,1,48,19,1831700304
80,19,17,Jits_Phase_5,1,5,56,103,1831734580
80,19,17,Jits_Phase_5,2,5,80,127,1831744848
80,19,17,Jits_Phase_5,3,5,63,98,1831765308
80,19,17,Jits_Phase_5,0,5,63,98,1832185488
80,19,17,Jits_Phase_5,1,5,80,127,1832214940
80,19,17,Jits_Phase_5,2,5,56,103,1832225356
80,19,17,Jits_Phase_5,3,1,48,37,1832242348
80,19,17,Jits_Phase_5,0,1,48,45,1832737568
80,19,17,Jits_Phase_5,1,5,80,127,1832745536
80,19,17,Jits_Phase_5,2,5,56,103,1832754536
80,19,17,Jits_Phase_5,3,5,63,98,1832785404
80,19,17,Jits_Phase_5,0,5,63,98,1833234736
80,19,17,Jits_Phase_5,1,5,56,103,1833264560
80,19,17,Jits_Phase_5,2,5,80,127,1833274608
80,19,17,Jits_Phase_5,3,1,48,28,1833279368
80,19,17,Jits_Phase_5,0,5,56,103,1833685564
80,19,17,Jits_Phase_5,1,5,63,98,1833734496
80,19,17,Jits_Phase_5,2,5,80,127,1833754876
80,19,17,Jits_Phase_5,3,1,48,44,1833789756
80,19,17,Jits_Phase_5,0,5,80,127,1834185028
80,19,17,Jits_Phase_5,1,1,48,41,1834222448
80,19,17,Jits_Phase_5,2,5,63,98,1834235372
80,19,17,Jits_Phase_5,3,5,56,103,1834275308
80,19,17,Jits_Phase_5,0,5,56,103,1834684720
80,19,17,Jits_Phase_5,1,5,63,98,1834714544
80,19,17,Jits_Phase_5,2,1,48,41,1834716032
80,19,17,Jits_Phase_5,3,5,80,127,1834785260
80,19,17,Jits_Phase_5,0,5,56,103,1835184636
80,19,17,Jits_Phase_5,1,1,48,43,1835187232
80,19,17,Jits_Phase_5,2,5,80,127,1835244868
80,19,17,Jits_Phase_5,3,5,63,98,1835274616
80,19,17,Jits_Phase_5,0,5,56,103,1835694588
80,19,17,Jits_Phase_5,1,5,63,98,1835704788
80,19,17,Jits_Phase_5,2,1,48,43,1835723344
80,19,17,Jits_Phase_5,3,5,80,127,1835744568
80,19,17,Jits_Phase_5,0,1,48,44,1836174916
80,19,17,Jits_Phase_5,1,5,63,98,1836184904
80,19,17,Jits_Phase_5,2,5,80,127,1836264700
80,19,17,Jits_Phase_5,3,5,56,103,1836275176
80,19,17,Jits_Phase_5,0,1,48,52,1836706956
80,19,17,Jits_Phase_5,1,5,63,98,1836734700
80,19,17,Jits_Phase_5,2,5,56,103,1836774712
80,19,17,Jits_Phase_5,3,5,80,127,1836777776
80,19,17,Jits_Phase_5,0,1,48,52,1837192400
80,19,17,Jits_Phase_5,1,5,56,103,1837194516
80,19,17,Jits_Phase_5,2,5,63,98,1837204860
80,19,17,Jits_Phase_5,3,5,80,127,1837244648
80,19,17,Jits_Phase_5,0,1,48,57,1837686816
80,19,17,Jits_Phase_5,1,5,56,103,1837695456
80,19,17,Jits_Phase_5,2,5,63,98,1837698444
80,19,17,Jits_Phase_5,3,5,80,127,1837714792
80,19,17,Jits_Phase_5,0,1,48,49,1838172524
80,19,17,Jits_Phase_5,1,5,80,127,1838205528
80,19,17,Jits_Phase_5,2,5,56,103,1838214528
80,19,17,Jits_Phase_5,3,5,63,98,1838285308
80,19,17,Jits_Phase_5,0,5,63,98,1838694648
80,19,17,Jits_Phase_5,1,1,48,51,1838696660
80,19,17,Jits_Phase_5,2,5,56,103,1838715172
80,19,17,Jits_Phase_5,3,5,80,127,1838795244
80,19,17,Jits_Phase_5,0,1,48,53,1839196804
80,19,17,Jits_Phase_5,1,5,56,103,1839204848
80,19,17,Jits_Phase_5,2,5,80,127,1839244784
80,19,17,Jits_Phase_5,3,5,63,98,1839254832
80,19,17,Jits_Phase_5,0,1,48,55,1839694080
80,19,17,Jits_Phase_5,1,5,80,127,1839695652
80,19,17,Jits_Phase_5,2,5,63,98,1839725052
80,19,17,Jits_Phase_5,3,5,56,103,1839764916
80,19,17,Jits_Phase_5,0,5,56,103,1840215336
80,19,17,Jits_Phase_5,1,1,48,54,1840220096
80,19,17,Jits_Phase_5,2,5,63,98,1840245028
80,19,17,Jits_Phase_5,3,5,80,127,1840295376
80,19,17,Jits_Phase_5,0,5,80,127,1840715248
80,19,17,Jits_Phase_5,1,1,48,52,1840716216
80,19,17,Jits_Phase_5,2,5,56,103,1840755208
80,19,17,Jits_Phase_5,3,5,63,98,1840765328
80,19,17,Jits_Phase_5,0,5,80,127,1841195308
80,19,17,Jits_Phase_5,1,1,48,57,1841214840
80,19,17,Jits_Phase_5,2,5,63,98,1841235312
80,19,17,Jits_Phase_5,3,5,56,103,1841294676
80,19,17,Jits_Phase_5,0,5,56,103,1841695368
80,19,17,Jits_Phase_5,1,5,80,127,1841705340
80,19,17,Jits_Phase_5,2,1,48,58,1841707932
80,19,17,Jits_Phase_5,3,5,63,98,1841785072
80,19,17,Jits_Phase_5,0,1,48,58,1842185132
80,19,17,Jits_Phase_5,1,5,80,127,1842194900
80,19,17,Jits_Phase_5,2,5,63,98,1842255436
80,19,17,Jits_Phase_5,3,5,56,103,1842284896
80,19,17,Jits_Phase_5,0,5,56,103,1842694656
80,19,17,Jits_Phase_5,1,1,48,60,1842709756
80,19,17,Jits_Phase_5,2,5,80,127,1842755112
80,19,17,Jits_Phase_5,3,5,63,98,1842794848
80,19,17,Jits_Phase_5,0,1,48,58,1843190936
80,19,17,Jits_Phase_5,1,5,56,103,1843245284
80,19,17,Jits_Phase_5,2,5,63,98,1843254656
80,19,17,Jits_Phase_5,3,5,80,127,1843258168
80,19,17,Jits_Phase_5,0,5,80,127,1843695212
80,19,17,Jits_Phase_5,1,1,48,38,1843749272
80,19,17,Jits_Phase_5,2,5,63,98,1843785188
80,19,17,Jits_Phase_5,3,5,56,103,1843795308
80,19,17,Jits_Phase_5,0,5,56,103,1844194584
80,19,17,Jits_Phase_5,1,5,63,98,1844197760
80,19,17,Jits_Phase_5,2,5,80,127,1844200956
80,19,17,Jits_Phase_5,3,1,48,55,1844238396
80,19,17,Jits_Phase_5,0,1,48,60,1844684872
80,19,17,Jits_Phase_5,1,5,80,127,1844715084
80,19,17,Jits_Phase_5,2,5,63,98,1844765284
80,19,17,Jits_Phase_5,3,5,56,103,1844794720
80,19,17,Jits_Phase_5,0,1,48,48,1845191496
80,19,17,Jits_Phase_5,1,5,56,103,1845195204
80,19,17,Jits_Phase_5,2,5,80,127,1845205324
80,19,17,Jits_Phase_5,3,5,63,98,1845275224
80,19,17,Jits_Phase_5,0,1,48,44,1845704096
80,19,17,Jits_Phase_5,1,5,56,103,1845705588
80,19,17,Jits_Phase_5,2,5,63,98,1845724480
80,19,17,Jits_Phase_5,3,5,80,127,1845785088
80,19,17,Jits_Phase_5,0,5,80,127,1846185196
80,19,17,Jits_Phase_5,1,1,48,49,1846203304
80,19,17,Jits_Phase_5,2,5,63,98,1846255016
80,19,17,Jits_Phase_5,3,5,56,103,1846274280
80,19,17,Jits_Phase_5,0,5,80,127,1846704588
80,19,17,Jits_Phase_5,1,5,56,103,1846714856
80,19,17,Jits_Phase_5,2,5,63,98,1846725052
80,19,17,Jits_Phase_5,3,1,48,47,1846746000
80,19,17,Jits_Phase_5,0,5,80,127,1847195056
80,19,17,Jits_Phase_5,1,5,56,103,1847214320
80,19,17,Jits_Phase_5,2,1,48,49,1847215284
80,19,17,Jits_Phase_5,3,5,63,98,1847285188
80,19,17,Jits_Phase_5,0,1,48,52,1847681968
80,19,17,Jits_Phase_5,1,5,56,103,1847705228
80,19,17,Jits_Phase_5,2,5,80,127,1847734604
80,19,17,Jits_Phase_5,3,5,63,98,1847754988
80,19,17,Jits_Phase_5,0,5,63,98,1848194348
80,19,17,Jits_Phase_5,1,1,48,55,1848201580
80,19,17,Jits_Phase_5,2,5,56,103,1848254956
80,19,17,Jits_Phase_5,3,5,80,127,1848284552
80,19,17,Jits_Phase_5,0,5,63,98,1848684956
80,19,17,Jits_Phase_5,1,5,80,127,1848688168
80,19,17,Jits_Phase_5,2,1,48,60,1848709116
80,19,17,Jits_Phase_5,3,5,56,103,1848775296
80,19,17,Jits_Phase_5,0,1,48,54,1849165456
80,19,17,Jits_Phase_5,1,5,56,103,1849205212
80,19,17,Jits_Phase_5,2,5,63,98,1849234740
80,19,17,Jits_Phase_5,3,5,80,127,1849275032
80,19,17,Jits_Phase_5,0,1,48,54,1849666252
80,19,17,Jits_Phase_5,1,5,63,98,1849705036
80,19,17,Jits_Phase_5,2,5,56,103,1849744748
80,19,17,Jits_Phase_5,3,5,80,127,1849765208
80,19,17,Jits_Phase_5,0,1,48,56,1850171684
80,19,17,Jits_Phase_5,1,5,63,98,1850215048
80,19,17,Jits_Phase_5,2,5,56,103,1850254760
80,19,17,Jits_Phase_5,3,5,80,127,1850265180
80,19,17,Jits_Phase_5,0,1,48,65,1850690988
80,19,17,Jits_Phase_5,1,5,80,127,1850695068
80,19,17,Jits_Phase_5,2,5,63,98,1850764552
80,19,17,Jits_Phase_5,3,5,56,103,1850785084
80,19,17,Jits_Phase_5,0,1,48,53,1851167072
80,19,17,Jits_Phase_5,1,5,56,103,1851184556
80,19,17,Jits_Phase_5,2,5,80,127,1851205240
80,19,17,Jits_Phase_5,3,5,63,98,1851245124
80,19,17,Jits_Phase_5,0,1,48,56,1851672744
80,19,17,Jits_Phase_5,1,5,63,98,1851694564
80,19,17,Jits_Phase_5,2,5,80,127,1851715096
80,19,17,Jits_Phase_5,3,5,56,103,1851754980
80,19,17,Jits_Phase_5,0,1,48,54,1852185144
80,19,17,Jits_Phase_5,1,5,63,98,1852195132
80,19,17,Jits_Phase_5,2,5,56,103,1852214620
80,19,17,Jits_Phase_5,3,5,80,127,1852225188
80,19,17,Jits_Phase_5,0,1,48,65,1852640976
80,19,17,Jits_Phase_5,1,5,80,127,1852695100
80,19,17,Jits_Phase_5,2,5,56,103,1852715412
80,19,17,Jits_Phase_5,3,5,63,98,1852745068
80,19,17,Jits_Phase_5,0,1,48,51,1853155492
80,19,17,Jits_Phase_5,1,5,56,103,1853265328
80,19,17,Jits_Phase_5,2,5,80,127,1853268248
80,19,17,Jits_Phase_5,3,5,63,98,1853284988
80,19,17,Jits_Phase_5,0,1,48,55,1853683408
80,19,17,Jits_Phase_5,1,5,63,98,1853695416
80,19,17,Jits_Phase_5,2,5,56,103,1853725016
80,19,17,Jits_Phase_5,3,5,80,127,1853784340
80,19,17,Jits_Phase_5,0,1,48,45,1854195660
80,19,17,Jits_Phase_5,1,5,63,98,1854275100
80,19,17,Jits_Phase_5,2,5,56,103,1854285296
80,19,17,Jits_Phase_5,3,5,80,127,1854295628
80,19,17,Jits_Phase_5,0,1,48,50,1854731300
80,19,17,Jits_Phase_5,1,5,56,103,1854734852
80,19,17,Jits_Phase_5,2,5,80,127,1854765352
80,19,17,Jits_Phase_5,3,5,63,98,1854774500
80,19,17,Jits_Phase_5,0,1,48,49,1855237720
80,19,17,Jits_Phase_5,1,5,63,98,1855275356
80,19,17,Jits_Phase_5,2,5,56,103,1855284580
80,19,17,Jits_Phase_5,3,5,80,127,1855304964
80,19,17,Jits_Phase_5,0,5,56,103,1855704548
80,19,17,Jits_Phase_5,1,1,48,48,1855745128
80,19,17,Jits_Phase_5,2,5,63,98,1855764928
80,19,17,Jits_Phase_5,3,5,80,127,1855768216
80,19,17,Jits_Phase_5,0,1,48,53,1856219016
80,19,17,Jits_Phase_5,1,5,80,127,1856224596
80,19,17,Jits_Phase_5,2,5,56,103,1856234940
80,19,17,Jits_Phase_5,3,5,63,98,1856304468
80,19,17,Jits_Phase_5,0,5,80,127,1856715056
80,19,17,Jits_Phase_5,1,1,48,54,1856722808
80,19,17,Jits_Phase_5,2,5,56,103,1856784952
80,19,17,Jits_Phase_5,3,5,63,98,1856794928
80,19,17,Jits_Phase_5,0,1,48,50,1857233156
80,19,17,Jits_Phase_5,1,5,63,98,1857254900
80,19,17,Jits_Phase_5,2,5,56,103,1857265020
80,19,17,Jits_Phase_5,3,5,80,127,1857284356
80,19,17,Jits_Phase_5,0,5,80,127,1857705284
80,19,17,Jits_Phase_5,1,1,48,57,1857732836
80,19,17,Jits_Phase_5,2,5,63,98,1857764768
80,19,17,Jits_Phase_5,3,5,56,103,1857804780
80,19,17,Jits_Phase_5,0,1,48,48,1858216104
80,19,17,Jits_Phase_5,1,5,56,103,1858245120
80,19,17,Jits_Phase_5,2,5,63,98,1858255244
80,19,17,Jits_Phase_5,3,5,80,127,1858295032
80,19,17,Jits_Phase_5,0,5,56,103,1858704872
80,19,17,Jits_Phase_5,1,1,48,57,1858710012
80,19,17,Jits_Phase_5,2,5,80,127,1858734320
80,19,17,Jits_Phase_5,3,5,63,98,1858784888
80,19,17,Jits_Phase_5,0,1,48,52,1859189536
80,19,17,Jits_Phase_5,1,5,56,103,1859245384
80,19,17,Jits_Phase_5,2,5,63,98,1859285320
80,19,17,Jits_Phase_5,3,5,80,127,1859289344
80,19,17,Jits_Phase_5,0,1,48,56,1859715960
80,19,17,Jits_Phase_5,1,5,56,103,1859745132
80,19,17,Jits_Phase_5,2,5,63,98,1859755328
80,19,17,Jits_Phase_5,3,5,80,127,1859774812
80,19,17,Jits_Phase_5,0,5,56,103,1860204952
80,19,17,Jits_Phase_5,1,5,80,127,1860207868
80,19,17,Jits_Phase_5,2,1,48,44,1860237364
80,19,17,Jits_Phase_5,3,5,63,98,1860244808
80,19,17,Jits_Phase_5,0,1,48,56,1860688680
80,19,17,Jits_Phase_5,1,5,63,98,1860744628
80,19,17,Jits_Phase_5,2,5,56,103,1860775348
80,19,17,Jits_Phase_5,3,5,80,127,1860794968
80,19,17,Jits_Phase_5,0,1,48,45,1861211804
80,19,17,Jits_Phase_5,1,5,80,127,1861214536
80,19,17,Jits_Phase_5,2,5,56,103,1861224980
80,19,17,Jits_Phase_5,3,5,63,98,1861235028
80,19,17,Jits_Phase_5,0,1,48,43,1861704220
80,19,17,Jits_Phase_5,1,5,56,103,1861715256
80,19,17,Jits_Phase_5,2,5,80,127,1861755292
80,19,17,Jits_Phase_5,3,5,63,98,1861784892
80,19,17,Jits_Phase_5,0,1,48,59,1862216028
80,19,17,Jits_Phase_5,1,5,63,98,1862225192
80,19,17,Jits_Phase_5,2,5,80,127,1862234788
80,19,17,Jits_Phase_5,3,5,56,103,1862244784
80,19,17,Jits_Phase_5,0,5,56,103,1862714832
80,19,17,Jits_Phase_5,1,1,48,56,1862719600
80,19,17,Jits_Phase_5,2,5,63,98,1862785356
80,19,17,Jits_Phase_5,3,5,80,127,1862794876
80,19,17,Jits_Phase_5,0,5,80,127,1863224860
80,19,17,Jits_Phase_5,1,1,48,61,1863226344
80,19,17,Jits_Phase_5,2,5,56,103,1863234900
80,19,17,Jits_Phase_5,3,5,63,98,1863285048
80,19,17,Jits_Phase_5,0,1,48,53,1863729228
80,19,17,Jits_Phase_5,1,5,80,127,1863734800
80,19,17,Jits_Phase_5,2,5,56,103,1863794916
80,19,17,Jits_Phase_5,3,5,63,98,1863824888
80,19,17,Jits_Phase_5,0,5,56,103,1864235228
80,19,17,Jits_Phase_5,1,1,48,58,1864236208
80,19,17,Jits_Phase_5,2,5,80,127,1864239484
80,19,17,Jits_Phase_5,3,5,63,98,1864275456
80,19,17,Jits_Phase_5,0,1,48,57,1864722896
80,19,17,Jits_Phase_5,1,5,56,103,1864764792
80,19,17,Jits_Phase_5,2,5,63,98,1864794692
80,19,17,Jits_Phase_5,3,5,80,127,1864804912
80,19,17,Jits_Phase_5,0,1,48,55,1865251472
80,19,17,Jits_Phase_5,1,5,63,98,1865274736
80,19,17,Jits_Phase_5,2,5,80,127,1865285008
80,19,17,Jits_Phase_5,3,5,56,103,1865295204
80,19,17,Jits_Phase_5,0,5,80,127,1865725272
80,19,17,Jits_Phase_5,1,1,48,52,1865773656
80,19,17,Jits_Phase_5,2,5,56,103,1865775180
80,19,17,Jits_Phase_5,3,5,63,98,1865777928
80,19,17,Jits_Phase_5,0,1,48,47,1866223500
80,19,17,Jits_Phase_5,1,5,56,103,1866254688
80,19,17,Jits_Phase_5,2,5,80,127,1866275220
80,19,17,Jits_Phase_5,3,5,63,98,1866285416
80,19,17,Jits_Phase_5,0,1,48,49,1866692760
80,19,17,Jits_Phase_5,1,5,63,98,1866735036
80,19,17,Jits_Phase_5,2,5,56,103,1866764560
80,19,17,Jits_Phase_5,3,5,80,127,1866785224
80,19,17,Jits_Phase_5,0,1,48,53,1867215880
80,19,17,Jits_Phase_5,1,5,56,103,1867245044
80,19,17,Jits_Phase_5,2,5,80,127,1867255164
80,19,17,Jits_Phase_5,3,5,63,98,1867324828
80,19,17,Jits_Phase_5,0,5,63,98,1867735584
80,19,17,Jits_Phase_5,1,1,48,43,1867736848
80,19,17,Jits_Phase_5,2,5,80,127,1867775220
80,19,17,Jits_Phase_5,3,5,56,103,1867815156
80,19,17,Jits_Phase_5,0,1,48,51,1868230728
80,19,17,Jits_Phase_5,1,5,56,103,1868245444
80,19,17,Jits_Phase_5,2,5,63,98,1868254596
80,19,17,Jits_Phase_5,3,5,80,127,1868274980
80,19,17,Jits_Phase_5,0,1,48,51,1868749208
80,19,17,Jits_Phase_5,1,5,63,98,1868784900
80,19,17,Jits_Phase_5,2,5,80,127,1868804760
80,19,17,Jits_Phase_5,3,5,56,103,1868824924
80,19,17,Jits_Phase_5,0,5,56,103,1869225400
80,19,17,Jits_Phase_5,1,1,48,46,1869269420
80,19,17,Jits_Phase_5,2,5,80,127,1869305112
80,19,17,Jits_Phase_5,3,5,63,98,1869314708
80,19,17,Jits_Phase_5,0,1,48,48,1869683628
80,19,17,Jits_Phase_5,1,5,80,127,1869764868
80,19,17,Jits_Phase_5,2,5,63,98,1869775212
80,19,17,Jits_Phase_5,3,5,56,103,1869804944
80,19,17,Jits_Phase_5,0,5,63,98,1870224692
80,19,17,Jits_Phase_5,1,1,48,46,1870239640
80,19,17,Jits_Phase_5,2,5,80,127,1870264620
80,19,17,Jits_Phase_5,3,5,56,103,1870325156
80,19,17,Jits_Phase_5,0,5,63,98,1870734704
80,19,17,Jits_Phase_5,1,1,48,46,1870768908
80,19,17,Jits_Phase_5,2,5,56,103,1870784748
80,19,17,Jits_Phase_5,3,5,80,127,1870814720
80,19,17,Jits_Phase_5,0,5,80,127,1871234604
80,19,17,Jits_Phase_5,1,5,63,98,1871244872
80,19,17,Jits_Phase_5,2,1,48,53,1871260800
80,19,17,Jits_Phase_5,3,5,56,103,1871315440
80,19,17,Jits_Phase_5,0,1,48,46,1871778684
80,19,17,Jits_Phase_5,1,5,80,127,1871794672
80,19,17,Jits_Phase_5,2,5,56,103,1871804792
80,19,17,Jits_Phase_5,3,5,63,98,1871807860
80,19,17,Jits_Phase_5,0,5,56,103,1872234792
80,19,17,Jits_Phase_5,1,5,80,127,1872255548
80,19,17,Jits_Phase_5,2,5,63,98,1872264548
80,19,17,Jits_Phase_5,3,1,48,37,1872290960
80,19,17,Jits_Phase_5,0,5,63,98,1872744744
80,19,17,Jits_Phase_5,1,1,48,53,1872755132
80,19,17,Jits_Phase_5,2,5,56,103,1872784748
80,19,17,Jits_Phase_5,3,5,80,127,1872805356
80,19,17,Jits_Phase_5,0,5,63,98,1873244772
80,19,17,Jits_Phase_5,1,1,48,46,1873247888
80,19,17,Jits_Phase_5,2,5,56,103,1873304952
80,19,17,Jits_Phase_5,3,5,80,127,1873308092
80,19,17,Jits_Phase_5,0,5,56,103,1873705700
80,19,17,Jits_Phase_5,1,5,80,127,1873724812
80,19,17,Jits_Phase_5,2,5,63,98,1873764624
80,19,17,Jits_Phase_5,3,1,48,48,1873765592
80,19,17,Jits_Phase_5,0,1,48,51,1874233012
80,19,17,Jits_Phase_5,1,5,56,103,1874234676
80,19,17,Jits_Phase_5,2,5,63,98,1874255136
80,19,17,Jits_Phase_5,3,5,80,127,1874264504
80,19,17,Jits_Phase_5,0,5,80,127,1874704836
80,19,17,Jits_Phase_5,1,1,48,50,1874721888
80,19,17,Jits_Phase_5,2,5,56,103,1874734580
80,19,17,Jits_Phase_5,3,5,63,98,1874775564
80,19,17,Jits_Phase_5,0,5,80,127,1875214636
80,19,17,Jits_Phase_5,1,1,48,48,1875234872
80,19,17,Jits_Phase_5,2,5,56,103,1875236212
80,19,17,Jits_Phase_5,3,5,63,98,1875294504
80,19,17,Jits_Phase_5,0,1,48,57,1875719456
80,19,17,Jits_Phase_5,1,5,56,103,1875724656
80,19,17,Jits_Phase_5,2,5,80,127,1875745116
80,19,17,Jits_Phase_5,3,5,63,98,1875804680
80,19,17,Jits_Phase_5,0,5,80,127,1876204860
80,19,17,Jits_Phase_5,1,5,56,103,1876215128
80,19,17,Jits_Phase_5,2,1,48,58,1876243580
80,19,17,Jits_Phase_5,3,5,63,98,1876255208
80,19,17,Jits_Phase_5,0,5,63,98,1876704620
80,19,17,Jits_Phase_5,1,1,48,59,1876739128
80,19,17,Jits_Phase_5,2,5,56,103,1876744548
80,19,17,Jits_Phase_5,3,5,80,127,1876747540
80,19,17,Jits_Phase_5,0,1,48,54,1877198252
80,19,17,Jits_Phase_5,1,5,63,98,1877224804
80,19,17,Jits_Phase_5,2,5,80,127,1877264740
80,19,17,Jits_Phase_5,3,5,56,103,1877294416
80,19,17,Jits_Phase_5,0,5,56,103,1877715492
80,19,17,Jits_Phase_5,1,5,63,98,1877724492
80,19,17,Jits_Phase_5,2,1,48,47,1877725384
80,19,17,Jits_Phase_5,3,5,80,127,1877755356
80,19,17,Jits_Phase_5,0,5,80,127,1878204768
80,19,17,Jits_Phase_5,1,1,48,55,1878217548
80,19,17,Jits_Phase_5,2,5,63,98,1878274516
80,19,17,Jits_Phase_5,3,5,56,103,1878284708
80,19,17,Jits_Phase_5,0,5,63,98,1878704684
80,19,17,Jits_Phase_5,1,1,48,48,1878747212
80,19,17,Jits_Phase_5,2,5,56,103,1878775328
80,19,17,Jits_Phase_5,3,5,80,127,1878785596
80,19,17,Jits_Phase_5,0,5,63,98,1879184804
80,19,17,Jits_Phase_5,1,5,56,103,1879205336
80,19,17,Jits_Phase_5,2,1,48,38,1879223524
80,19,17,Jits_Phase_5,3,5,80,127,1879245268
80,19,17,Jits_Phase_5,0,5,56,103,1879664932
80,19,17,Jits_Phase_5,1,5,63,98,1879675276
80,19,17,Jits_Phase_5,2,1,48,49,1879735336
80,19,17,Jits_Phase_5,3,5,80,127,1879754984
80,19,17,Jits_Phase_5,0,1,48,44,1880138784
80,19,17,Jits_Phase_5,1,5,63,98,1880154548
80,19,17,Jits_Phase_5,2,5,56,103,1880185144
80,19,17,Jits_Phase_5,3,5,80,127,1880225080
80,19,17,Jits_Phase_5,0,1,48,62,1880631932
80,19,17,Jits_Phase_5,1,5,56,103,1880655416
80,19,17,Jits_Phase_5,2,5,63,98,1880695008
80,19,17,Jits_Phase_5,3,5,80,127,1880735004
80,19,17,Jits_Phase_5,0,1,48,61,1881116036
80,19,17,Jits_Phase_5,1,5,80,127,1881154796
80,19,17,Jits_Phase_5,2,5,56,103,1881234820
80,19,17,Jits_Phase_5,3,5,63,98,1881245092
80,19,17,Jits_Phase_5,0,1,48,62,1881632404
80,19,17,Jits_Phase_5,1,5,56,103,1881694628
80,19,17,Jits_Phase_5,2,5,63,98,1881697764
80,19,17,Jits_Phase_5,3,5,80,127,1881704844
80,19,17,Jits_Phase_5,0,1,48,55,1882155376
80,19,17,Jits_Phase_5,1,5,56,103,1882214764
80,19,17,Jits_Phase_5,2,5,63,98,1882235372
80,19,17,Jits_Phase_5,3,5,80,127,1882244520
80,19,17,Jits_Phase_5,0,1,48,62,1882660968
80,19,17,Jits_Phase_5,1,5,63,98,1882674412
80,19,17,Jits_Phase_5,2,5,80,127,1882684832
80,19,17,Jits_Phase_5,3,5,56,103,1882705364
80,19,17,Jits_Phase_5,0,1,48,49,1883157796
80,19,17,Jits_Phase_5,1,5,63,98,1883175428
80,19,17,Jits_Phase_5,2,5,56,103,1883255228
80,19,17,Jits_Phase_5,3,5,80,127,1883258296
80,19,17,Jits_Phase_5,0,1,48,60,1883641056
80,19,17,Jits_Phase_5,1,5,63,98,1883675028
80,19,17,Jits_Phase_5,2,5,56,103,1883694660
80,19,17,Jits_Phase_5,3,5,80,127,1883725380
80,19,17,Jits_Phase_5,0,1,48,45,1884162992
80,19,17,Jits_Phase_5,1,5,56,103,1884174628
80,19,17,Jits_Phase_5,2,5,63,98,1884195384
80,19,17,Jits_Phase_5,3,5,80,127,1884205504
80,19,17,Jits_Phase_5,0,1,48,52,1884667304
80,19,17,Jits_Phase_5,1,5,56,103,1884705236
80,19,17,Jits_Phase_5,2,5,63,98,1884734764
80,19,17,Jits_Phase_5,3,5,80,127,1884738348
80,19,17,Jits_Phase_5,0,1,48,58,1885145472
80,19,17,Jits_Phase_5,1,5,56,103,1885154788
80,19,17,Jits_Phase_5,2,5,63,98,1885194652
80,19,17,Jits_Phase_5,3,5,80,127,1885255244
80,19,17,Jits_Phase_5,0,1,48,57,1885646492
80,19,17,Jits_Phase_5,1,5,56,103,1885675284
80,19,17,Jits_Phase_5,2,5,63,98,1885685184
80,19,17,Jits_Phase_5,3,5,80,127,1885744524
80,19,17,Jits_Phase_5,0,1,48,59,1886143324
80,19,17,Jits_Phase_5,1,5,56,103,1886174512
80,19,17,Jits_Phase_5,2,5,80,127,1886195268
80,19,17,Jits_Phase_5,3,5,63,98,1886224796
80,19,17,Jits_Phase_5,0,5,80,127,1886675468
80,19,17,Jits_Phase_5,1,5,56,103,1886684468
80,19,17,Jits_Phase_5,2,1,48,56,1886689152
80,19,17,Jits_Phase_5,3,5,63,98,1886705140
80,19,17,Jits_Phase_5,0,5,63,98,1887164744
80,19,17,Jits_Phase_5,1,1,48,62,1887190108
80,19,17,Jits_Phase_5,2,5,80,127,1887244532
80,19,17,Jits_Phase_5,3,5,56,103,1887254876
80,19,17,Jits_Phase_5,0,1,48,57,1887658840
80,19,17,Jits_Phase_5,1,5,80,127,1887754604
80,19,17,Jits_Phase_5,2,5,56,103,1887775284
80,19,17,Jits_Phase_5,3,5,63,98,1887778204
80,19,17,Jits_Phase_5,0,1,48,55,1888154996
80,19,17,Jits_Phase_5,1,5,63,98,1888245220
80,19,17,Jits_Phase_5,2,5,80,127,1888248584
80,19,17,Jits_Phase_5,3,5,56,103,1888304544
80,19,17,Jits_Phase_5,0,1,48,58,1888682296
80,19,17,Jits_Phase_5,1,5,56,103,1888725408
80,19,17,Jits_Phase_5,2,5,80,127,1888734484
80,19,17,Jits_Phase_5,3,5,63,98,1888774496
80,19,17,Jits_Phase_5,0,1,48,51,1889200096
80,19,17,Jits_Phase_5,1,5,56,103,1889204628
80,19,17,Jits_Phase_5,2,5,63,98,1889264944
80,19,17,Jits_Phase_5,3,5,80,127,1889275140
80,19,17,Jits_Phase_5,0,1,48,54,1889687040
80,19,17,Jits_Phase_5,1,5,63,98,1889714564
80,19,17,Jits_Phase_5,2,5,80,127,1889754504
80,19,17,Jits_Phase_5,3,5,56,103,1889794352
80,19,17,Jits_Phase_5,0,1,48,55,1890205520
80,19,17,Jits_Phase_5,1,5,56,103,1890215364
80,19,17,Jits_Phase_5,2,5,63,98,1890295376
80,19,17,Jits_Phase_5,3,5,80,127,1890298664
80,19,17,Jits_Phase_5,0,1,48,55,1890717776
80,19,17,Jits_Phase_5,1,5,80,127,1890775416
80,19,17,Jits_Phase_5,2,5,56,103,1890805312
80,19,17,Jits_Phase_5,3,5,63,98,1890808380
80,19,17,Jits_Phase_5,0,1,48,49,1891191892
80,19,17,Jits_Phase_5,1,5,56,103,1891235376
80,19,17,Jits_Phase_5,2,5,80,127,1891254640
80,19,17,Jits_Phase_5,3,5,63,98,1891294636
80,19,17,Jits_Phase_5,0,1,48,49,1891671244
80,19,17,Jits_Phase_5,1,5,80,127,1891714380
80,19,17,Jits_Phase_5,2,5,63,98,1891734764
80,19,17,Jits_Phase_5,3,5,56,103,1891795284
80,19,17,Jits_Phase_5,0,1,48,55,1892222480
80,19,17,Jits_Phase_5,1,5,63,98,1892225440
80,19,17,Jits_Phase_5,2,5,56,103,1892234588
80,19,17,Jits_Phase_5,3,5,80,127,1892284712
80,19,17,Jits_Phase_5,0,5,56,103,1892714856
80,19,17,Jits_Phase_5,1,5,63,98,1892735316
80,19,17,Jits_Phase_5,2,5,80,127,1892744616
80,19,17,Jits_Phase_5,3,1,48,58,1892755680
80,19,17,Jits_Phase_5,0,5,56,103,1893205452
80,19,17,Jits_Phase_5,1,5,63,98,1893208368
80,19,17,Jits_Phase_5,2,5,80,127,1893224736
80,19,17,Jits_Phase_5,3,1,48,49,1893235728
80,19,17,Jits_Phase_5,0,1,48,49,1893687032
80,19,17,Jits_Phase_5,1,5,63,98,1893745296
80,19,17,Jits_Phase_5,2,5,56,103,1893774676
80,19,17,Jits_Phase_5,3,5,80,127,1893805380
80,19,17,Jits_Phase_5,0,5,80,127,1894204728
80,19,17,Jits_Phase_5,1,1,48,51,1894221552
80,19,17,Jits_Phase_5,2,5,56,103,1894294880
80,19,17,Jits_Phase_5,3,5,63,98,1894298020
80,19,17,Jits_Phase_5,0,5,56,103,1894704488
80,19,17,Jits_Phase_5,1,5,80,127,1894707628
80,19,17,Jits_Phase_5,2,1,48,56,1894741532
80,19,17,Jits_Phase_5,3,5,63,98,1894785492
80,19,17,Jits_Phase_5,0,5,80,127,1895205204
80,19,17,Jits_Phase_5,1,1,48,50,1895228552
80,19,17,Jits_Phase_5,2,5,63,98,1895264616
80,19,17,Jits_Phase_5,3,5,56,103,1895295288
80,19,17,Jits_Phase_5,0,5,63,98,1895704968
80,19,17,Jits_Phase_5,1,5,80,127,1895715164
80,19,17,Jits_Phase_5,2,1,48,42,1895760528
80,19,17,Jits_Phase_5,3,5,56,103,1895784932
80,19,17,Jits_Phase_5,0,1,48,44,1896243196
80,19,17,Jits_Phase_5,1,5,56,103,1896265092
80,19,17,Jits_Phase_5,2,5,80,127,1896295092
80,19,17,Jits_Phase_5,3,5,63,98,1896345052
80,19,17,Jits_Phase_5,0,1,48,46,1896757020
80,19,17,Jits_Phase_5,1,5,63,98,1896854904
80,19,17,Jits_Phase_5,2,5,56,103,1896884652
80,19,17,Jits_Phase_5,3,5,80,127,1896887716
80,19,17,Jits_Phase_5,0,1,48,51,1897325268
80,19,17,Jits_Phase_5,1,5,63,98,1897354512
80,19,17,Jits_Phase_5,2,5,80,127,1897375196
80,19,17,Jits_Phase_5,3,5,56,103,1897385316
80,19,17,Jits_Phase_5,0,1,48,47,1897830484
80,19,17,Jits_Phase_5,1,5,56,103,1897864600
80,19,17,Jits_Phase_5,2,5,63,98,1897867964
80,19,17,Jits_Phase_5,3,5,80,127,1897885060
80,19,17,Jits_Phase_5,0,5,56,103,1898315176
80,19,17,Jits_Phase_5,1,1,48,35,1898317544
80,19,17,Jits_Phase_5,2,5,63,98,1898325216
80,19,17,Jits_Phase_5,3,5,80,127,1898355136
80,19,17,Jits_Phase_5,0,1,48,57,1898781860
80,19,17,Jits_Phase_5,1,5,63,98,1898835312
80,19,17,Jits_Phase_5,2,5,80,127,1898854748
80,19,17,Jits_Phase_5,3,5,56,103,1898894668
80,19,17,Jits_Phase_5,0,1,48,54,1899317272
80,19,17,Jits_Phase_5,1,5,56,103,1899364972
80,19,17,Jits_Phase_5,2,5,63,98,1899404760
80,19,17,Jits_Phase_5,3,5,80,127,1899408124
80,19,17,Jits_Phase_5,0,1,48,62,1899803172
80,19,17,Jits_Phase_5,1,5,80,127,1899805132
80,19,17,Jits_Phase_5,2,5,56,103,1899845068
80,19,17,Jits_Phase_5,3,5,63,98,1899895144
80,19,17,Jits_Phase_5,0,1,48,60,1900305536
80,19,17,Jits_Phase_5,1,5,56,103,1900365120
80,19,17,Jits_Phase_5,2,5,80,127,1900375464
80,19,17,Jits_Phase_5,3,5,63,98,1900405076
80,19,17,Jits_Phase_5,0,5,56,103,1900815060
80,19,17,Jits_Phase_5,1,1,48,62,1900851136
80,19,17,Jits_Phase_5,2,5,80,127,1900854840
80,19,17,Jits_Phase_5,3,5,63,98,1900904916
80,19,17,Jits_Phase_5,0,5,56,103,1901314300
80,19,17,Jits_Phase_5,1,1,48,47,1901320488
80,19,17,Jits_Phase_5,2,5,80,127,1901355352
80,19,17,Jits_Phase_5,3,5,63,98,1901404504
80,19,17,Jits_Phase_5,0,5,80,127,1901805072
80,19,17,Jits_Phase_5,1,1,48,53,1901861300
80,19,17,Jits_Phase_5,2,5,63,98,1901884712
80,19,17,Jits_Phase_5,3,5,56,103,1901894904
80,19,17,Jits_Phase_5,0,1,48,48,1902342424
80,19,17,Jits_Phase_5,1,5,80,127,1902354876
80,19,17,Jits_Phase_5,2,5,56,103,1902365148
80,19,17,Jits_Phase_5,3,5,63,98,1902384484
80,19,17,Jits_Phase_5,0,1,48,59,1902824144
80,19,17,Jits_Phase_5,1,5,63,98,1902825784
80,19,17,Jits_Phase_5,2,5,56,103,1902894416
80,19,17,Jits_Phase_5,3,5,80,127,1902897404
80,19,17,Jits_Phase_5,0,5,80,127,1903315344
80,19,17,Jits_Phase_5,1,1,48,63,1903364200
80,19,17,Jits_Phase_5,2,5,63,98,1903365760
80,19,17,Jits_Phase_5,3,5,56,103,1903405548
80,19,17,Jits_Phase_5,0,1,48,46,1903846992
80,19,17,Jits_Phase_5,1,5,63,98,1903855036
80,19,17,Jits_Phase_5,2,5,56,103,1903894972
80,19,17,Jits_Phase_5,3,5,80,127,1903905244
80,19,17,Jits_Phase_5,0,1,48,53,1904336780
80,19,17,Jits_Phase_5,1,5,63,98,1904344376
80,19,17,Jits_Phase_5,2,5,56,103,1904364836
80,19,17,Jits_Phase_5,3,5,80,127,1904385516
80,19,17,Jits_Phase_5,0,5,80,127,1904805172
80,19,17,Jits_Phase_5,1,5,56,103,1904814396
80,19,17,Jits_Phase_5,2,1,48,55,1904829120
80,19,17,Jits_Phase_5,3,5,63,98,1904834996
80,19,17,Jits_Phase_5,0,1,48,51,1905329692
80,19,17,Jits_Phase_5,1,5,63,98,1905334520
80,19,17,Jits_Phase_5,2,5,56,103,1905374532
80,19,17,Jits_Phase_5,3,5,80,127,1905405400
80,19,17,Jits_Phase_5,0,5,56,103,1905794496
80,19,17,Jits_Phase_5,1,5,63,98,1905825068
80,19,17,Jits_Phase_5,2,1,48,51,1905846320
80,19,17,Jits_Phase_5,3,5,80,127,1905854960
80,19,17,Jits_Phase_5,0,5,80,127,1906215352
80,19,17,Jits_Phase_5,1,5,56,103,1906284904
80,19,17,Jits_Phase_5,2,5,63,98,1906287972
80,19,17,Jits_Phase_5,3,1,48,51,1906317612
80,19,17,Jits_Phase_5,0,5,56,103,1906725300
80,19,17,Jits_Phase_5,1,5,63,98,1906775424
80,19,17,Jits_Phase_5,2,1,48,52,1906793936
80,19,17,Jits_Phase_5,3,5,80,127,1906804968
80,19,17,Jits_Phase_5,0,5,63,98,1907204608
80,19,17,Jits_Phase_5,1,5,80,127,1907207972
80,19,17,Jits_Phase_5,2,1,48,57,1907239560
80,19,17,Jits_Phase_5,3,5,56,103,1907265064
80,19,17,Jits_Phase_5,0,1,48,57,1907723576
80,19,17,Jits_Phase_5,1,5,56,103,1907734836
80,19,17,Jits_Phase_5,2,5,80,127,1907745252
80,19,17,Jits_Phase_5,3,5,63,98,1907795304
80,19,17,Jits_Phase_5,0,1,48,60,1908192908
80,19,17,Jits_Phase_5,1,5,63,98,1908205064
80,19,17,Jits_Phase_5,2,5,56,103,1908215184
80,19,17,Jits_Phase_5,3,5,80,127,1908244932
80,19,17,Jits_Phase_5,0,1,48,62,1908691588
80,19,17,Jits_Phase_5,1,5,63,98,1908735448
80,19,17,Jits_Phase_5,2,5,80,127,1908738960
80,19,17,Jits_Phase_5,3,5,56,103,1908764972
80,19,17,Jits_Phase_5,0,1,48,59,1909171476
80,19,17,Jits_Phase_5,1,5,63,98,1909254596
80,19,17,Jits_Phase_5,2,5,56,103,1909274964
80,19,17,Jits_Phase_5,3,5,80,127,1909278180
80,19,17,Jits_Phase_5,0,1,48,55,1909678192
80,19,17,Jits_Phase_5,1,5,63,98,1909715452
80,19,17,Jits_Phase_5,2,5,56,103,1909784820
80,19,17,Jits_Phase_5,3,5,80,127,1909805352
80,19,17,Jits_Phase_5,0,5,56,103,1910205024
80,19,17,Jits_Phase_5,1,1,48,60,1910205988
80,19,17,Jits_Phase_5,2,5,63,98,1910215136
80,19,17,Jits_Phase_5,3,5,80,127,1910305324
80,19,17,Jits_Phase_5,0,1,48,49,1910708796
80,19,17,Jits_Phase_5,1,5,56,103,1910724936
80,19,17,Jits_Phase_5,2,5,80,127,1910765020
80,19,17,Jits_Phase_5,3,5,63,98,1910775292
80,19,17,Jits_Phase_5,0,1,48,36,1911194096
80,19,17,Jits_Phase_5,1,5,56,103,1911245064
80,19,17,Jits_Phase_5,2,5,63,98,1911275036
80,19,17,Jits_Phase_5,3,5,80,127,1911304768
80,19,17,Jits_Phase_5,0,1,48,54,1911696396
80,19,17,Jits_Phase_5,1,5,80,127,1911705032
80,19,17,Jits_Phase_5,2,5,63,98,1911744824
80,19,17,Jits_Phase_5,3,5,56,103,1911765352
80,19,17,Jits_Phase_5,0,1,48,52,1912171632
80,19,17,Jits_Phase_5,1,5,56,103,1912244640
80,19,17,Jits_Phase_5,2,5,80,127,1912265156
80,19,17,Jits_Phase_5,3,5,63,98,1912284492
80,19,17,Jits_Phase_5,0,1,48,38,1912692356
80,19,17,Jits_Phase_5,1,5,63,98,1912714944
80,19,17,Jits_Phase_5,2,5,56,103,1912724840
80,19,17,Jits_Phase_5,3,5,80,127,1912786112
80,19,17,Jits_Phase_5,0,1,48,53,1913174492
80,19,17,Jits_Phase_5,1,5,56,103,1913224660
80,19,17,Jits_Phase_5,2,5,63,98,1913295220
80,19,17,Jits_Phase_5,3,5,80,127,1913314780
80,19,17,Jits_Phase_5,0,1,48,49,1913641784
80,19,17,Jits_Phase_5,1,5,56,103,1913725236
80,19,17,Jits_Phase_5,2,5,63,98,1913755044
80,19,17,Jits_Phase_5,3,5,80,127,1913794980
80,19,17,Jits_Phase_5,0,5,63,98,1914214876
80,19,17,Jits_Phase_5,1,5,56,103,1914264856
80,19,17,Jits_Phase_5,2,5,80,127,1914275200
80,19,17,Jits_Phase_5,0,1,48,57,1914669796
80,19,17,Jits_Phase_5,1,5,56,103,1914754440
80,19,17,Jits_Phase_5,2,5,63,98,1914804700
80,19,17,Jits_Phase_5,3,5,80,127,1914814824
80,19,17,Jits_Phase_5,0,5,56,103,1915224284
80,19,17,Jits_Phase_5,1,5,63,98,1915234732
80,19,17,Jits_Phase_5,2,1,48,55,1915235992
80,19,17,Jits_Phase_5,3,5,80,127,1915314512
80,19,17,Jits_Phase_5,0,9999,9999,9999,1830982732
80,19,17,Jits_Phase_5,1,9999,9999,9999,1831482440
80,19,17,Jits_Phase_5,2,9999,9999,9999,1831982148
80,19,17,Jits_Phase_5,3,9999,9999,9999,1832482940
80,19,17,Jits_Phase_5,4,9999,9999,9999,1832982620
80,19,17,Jits_Phase_5,5,9999,9999,9999,1833482300
80,19,17,Jits_Phase_5,6,9999,9999,9999,1833983096
80,19,17,Jits_Phase_5,7,9999,9999,9999,1834482784
80,19,17,Jits_Phase_5,8,9999,9999,9999,1834982476
80,19,17,Jits_Phase_5,9,9999,9999,9999,1835482168
80,19,17,Jits_Phase_5,10,9999,9999,9999,1835982904
80,19,17,Jits_Phase_5,11,9999,9999,9999,1836482668
80,19,17,Jits_Phase_5,12,9999,9999,9999,1836982336
80,19,17,Jits_Phase_5,13,9999,9999,9999,1837483132
80,19,17,Jits_Phase_5,14,9999,9999,9999,1837993056
80,19,17,Jits_Phase_5,15,9999,9999,9999,1838492728
80,19,17,Jits_Phase_5,16,9999,9999,9999,1838992476
80,19,17,Jits_Phase_5,17,9999,9999,9999,1839492196
80,19,17,Jits_Phase_5,18,9999,9999,9999,1839992916
80,19,17,Jits_Phase_5,19,9999,9999,9999,1840492664
80,19,17,Jits_Phase_5,20,9999,9999,9999,1840992332
80,19,17,Jits_Phase_5,21,9999,9999,9999,1841493060
80,19,17,Jits_Phase_5,22,9999,9999,9999,1841992824
80,19,17,Jits_Phase_5,23,9999,9999,9999,1842492512
80,19,17,Jits_Phase_5,24,9999,9999,9999,1842992188
80,19,17,Jits_Phase_5,25,9999,9999,9999,1843492920
80,19,17,Jits_Phase_5,26,9999,9999,9999,1843992672
80,19,17,Jits_Phase_5,27,9999,9999,9999,1844492408
80,19,17,Jits_Phase_5,28,9999,9999,9999,1844992100
80,19,17,Jits_Phase_5,29,9999,9999,9999,1845492816
80,19,17,Jits_Phase_5,30,9999,9999,9999,1845982304
80,19,17,Jits_Phase_5,31,9999,9999,9999,1846483024
80,19,17,Jits_Phase_5,32,9999,9999,9999,1846982712
80,19,17,Jits_Phase_5,33,9999,9999,9999,1847482480
80,19,17,Jits_Phase_5,34,9999,9999,9999,1847982164
80,19,17,Jits_Phase_5,35,9999,9999,9999,1848482888
80,19,17,Jits_Phase_5,36,9999,9999,9999,1848982624
80,19,17,Jits_Phase_5,37,9999,9999,9999,1849482300
80,19,17,Jits_Phase_5,38,9999,9999,9999,1849983096
80,19,17,Jits_Phase_5,39,9999,9999,9999,1850482768
80,19,17,Jits_Phase_5,40,9999,9999,9999,1850982520
80,19,17,Jits_Phase_5,41,9999,9999,9999,1851482168
80,19,17,Jits_Phase_5,42,9999,9999,9999,1851982956
80,19,17,Jits_Phase_5,43,9999,9999,9999,1852482628
80,19,17,Jits_Phase_5,44,9999,9999,9999,1852982376
80,19,17,Jits_Phase_5,45,9999,9999,9999,1853483088
80,19,17,Jits_Phase_5,46,9999,9999,9999,1853993028
80,19,17,Jits_Phase_5,47,9999,9999,9999,1854492784
80,19,17,Jits_Phase_5,48,9999,9999,9999,1855002724
80,19,17,Jits_Phase_5,49,9999,9999,9999,1855502404
80,19,17,Jits_Phase_5,50,9999,9999,9999,1856002140
80,19,17,Jits_Phase_5,51,9999,9999,9999,1856502876
80,19,17,Jits_Phase_5,52,9999,9999,9999,1857002552
80,19,17,Jits_Phase_5,53,9999,9999,9999,1857502320
80,19,17,Jits_Phase_5,54,9999,9999,9999,1858003040
80,19,17,Jits_Phase_5,55,9999,9999,9999,1858502732
80,19,17,Jits_Phase_5,56,9999,9999,9999,1859002480
80,19,17,Jits_Phase_5,57,9999,9999,9999,1859502164
80,19,17,Jits_Phase_5,58,9999,9999,9999,1860002888
80,19,17,Jits_Phase_5,59,9999,9999,9999,1860502620
80,19,17,Jits_Phase_5,60,9999,9999,9999,1861002312
80,19,17,Jits_Phase_5,61,9999,9999,9999,1861503104
80,19,17,Jits_Phase_5,62,9999,9999,9999,1862002780
80,19,17,Jits_Phase_5,63,9999,9999,9999,1862502524
80,19,17,Jits_Phase_5,64,9999,9999,9999,1863022652
80,19,17,Jits_Phase_5,65,9999,9999,9999,1863522388
80,19,17,Jits_Phase_5,66,9999,9999,9999,1864022080
80,19,17,Jits_Phase_5,67,9999,9999,9999,1864522860
80,19,17,Jits_Phase_5,68,9999,9999,9999,1865022556
80,19,17,Jits_Phase_5,69,9999,9999,9999,1865522232
80,19,17,Jits_Phase_5,70,9999,9999,9999,1866023016
80,19,17,Jits_Phase_5,71,9999,9999,9999,1866522708
80,19,17,Jits_Phase_5,72,9999,9999,9999,1867022456
80,19,17,Jits_Phase_5,73,9999,9999,9999,1867522132
80,19,17,Jits_Phase_5,74,9999,9999,9999,1868022856
80,19,17,Jits_Phase_5,75,9999,9999,9999,1868522604
80,19,17,Jits_Phase_5,76,9999,9999,9999,1869022288
80,19,17,Jits_Phase_5,77,9999,9999,9999,1869523008
80,19,17,Jits_Phase_5,78,9999,9999,9999,1870022772
80,19,17,Jits_Phase_5,79,9999,9999,9999,1870522444
80,19,17,Jits_Phase_5,80,9999,9999,9999,1871022196
80,19,17,Jits_Phase_5,81,9999,9999,9999,1871502396
80,19,17,Jits_Phase_5,82,9999,9999,9999,1872002156
80,19,17,Jits_Phase_5,83,9999,9999,9999,1872502880
80,19,17,Jits_Phase_5,84,9999,9999,9999,1873002572
80,19,17,Jits_Phase_5,85,9999,9999,9999,1873502292
80,19,17,Jits_Phase_5,86,9999,9999,9999,1874003004
80,19,17,Jits_Phase_5,87,9999,9999,9999,1874502768
80,19,17,Jits_Phase_5,88,9999,9999,9999,1875002440
80,19,17,Jits_Phase_5,89,9999,9999,9999,1875502204
80,19,17,Jits_Phase_5,90,9999,9999,9999,1876002940
80,19,17,Jits_Phase_5,91,9999,9999,9999,1876502612
80,19,17,Jits_Phase_5,92,9999,9999,9999,1877002364
80,19,17,Jits_Phase_5,93,9999,9999,9999,1877503088
80,19,17,Jits_Phase_5,94,9999,9999,9999,1878002760
80,19,17,Jits_Phase_5,95,9999,9999,9999,1878502524
80,19,17,Jits_Phase_5,96,9999,9999,9999,1879002216
80,19,17,Jits_Phase_5,97,9999,9999,9999,1879452748
80,19,17,Jits_Phase_5,98,9999,9999,9999,1879952496
80,19,17,Jits_Phase_5,99,9999,9999,9999,1880452184
80,19,17,Jits_Phase_5,100,9999,9999,9999,1880952904
80,19,17,Jits_Phase_5,101,9999,9999,9999,1881452656
80,19,17,Jits_Phase_5,102,9999,9999,9999,1881952376
80,19,17,Jits_Phase_5,103,9999,9999,9999,1882453092
80,19,17,Jits_Phase_5,104,9999,9999,9999,1882952764
80,19,17,Jits_Phase_5,105,9999,9999,9999,1883452512
80,19,17,Jits_Phase_5,106,9999,9999,9999,1883952188
80,19,17,Jits_Phase_5,107,9999,9999,9999,1884452984
80,19,17,Jits_Phase_5,108,9999,9999,9999,1884952648
80,19,17,Jits_Phase_5,109,9999,9999,9999,1885452400
80,19,17,Jits_Phase_5,110,9999,9999,9999,1885952076
80,19,17,Jits_Phase_5,111,9999,9999,9999,1886452796
80,19,17,Jits_Phase_5,112,9999,9999,9999,1886952548
80,19,17,Jits_Phase_5,113,9999,9999,9999,1887452240
80,19,17,Jits_Phase_5,114,9999,9999,9999,1888002104
80,19,17,Jits_Phase_5,115,9999,9999,9999,1888502896
80,19,17,Jits_Phase_5,116,9999,9999,9999,1889002572
80,19,17,Jits_Phase_5,117,9999,9999,9999,1889502316
80,19,17,Jits_Phase_5,118,9999,9999,9999,1890003040
80,19,17,Jits_Phase_5,119,9999,9999,9999,1890502780
80,19,17,Jits_Phase_5,120,9999,9999,9999,1891002452
80,19,17,Jits_Phase_5,121,9999,9999,9999,1891502204
80,19,17,Jits_Phase_5,122,9999,9999,9999,1892002924
80,19,17,Jits_Phase_5,123,9999,9999,9999,1892502600
80,19,17,Jits_Phase_5,124,9999,9999,9999,1893002348
80,19,17,Jits_Phase_5,125,9999,9999,9999,1893503068
80,19,17,Jits_Phase_5,126,9999,9999,9999,1894002760
80,19,17,Jits_Phase_5,127,9999,9999,9999,1894502504
80,19,17,Jits_Phase_5,128,9999,9999,9999,1895002232
80,19,17,Jits_Phase_5,129,9999,9999,9999,1895502964
80,19,17,Jits_Phase_5,130,9999,9999,9999,1896002648
80,19,17,Jits_Phase_5,131,9999,9999,9999,1896602736
80,19,17,Jits_Phase_5,132,9999,9999,9999,1897102408
80,19,17,Jits_Phase_5,133,9999,9999,9999,1897602156
80,19,17,Jits_Phase_5,134,9999,9999,9999,1898102872
80,19,17,Jits_Phase_5,135,9999,9999,9999,1898602620
80,19,17,Jits_Phase_5,136,9999,9999,9999,1899102284
80,19,17,Jits_Phase_5,137,9999,9999,9999,1899603000
80,19,17,Jits_Phase_5,138,9999,9999,9999,1900102748
80,19,17,Jits_Phase_5,139,9999,9999,9999,1900602428
80,19,17,Jits_Phase_5,140,9999,9999,9999,1901102184
80,19,17,Jits_Phase_5,141,9999,9999,9999,1901602916
80,19,17,Jits_Phase_5,142,9999,9999,9999,1902102608
80,19,17,Jits_Phase_5,143,9999,9999,9999,1902602300
80,19,17,Jits_Phase_5,144,9999,9999,9999,1903103088
80,19,17,Jits_Phase_5,145,9999,9999,9999,1903602764
80,19,17,Jits_Phase_5,146,9999,9999,9999,1904102460
80,19,17,Jits_Phase_5,147,9999,9999,9999,1904602208
80,19,17,Jits_Phase_5,148,9999,9999,9999,1905102928
80,19,17,Jits_Phase_5,149,9999,9999,9999,1905602616
80,19,17,Jits_Phase_5,150,9999,9999,9999,1906003008
80,19,17,Jits_Phase_5,151,9999,9999,9999,1906502760
80,19,17,Jits_Phase_5,152,9999,9999,9999,1907002456
80,19,17,Jits_Phase_5,153,9999,9999,9999,1907502208
80,19,17,Jits_Phase_5,154,9999,9999,9999,1908002928
80,19,17,Jits_Phase_5,155,9999,9999,9999,1908502600
80,19,17,Jits_Phase_5,156,9999,9999,9999,1909002340
80,19,17,Jits_Phase_5,157,9999,9999,9999,1909503052
80,19,17,Jits_Phase_5,158,9999,9999,9999,1910002804
80,19,17,Jits_Phase_5,159,9999,9999,9999,1910502480
80,19,17,Jits_Phase_5,160,9999,9999,9999,1911002172
80,19,17,Jits_Phase_5,161,9999,9999,9999,1911502972
80,19,17,Jits_Phase_5,162,9999,9999,9999,1912002644
80,19,17,Jits_Phase_5,163,9999,9999,9999,1912502396
80,19,17,Jits_Phase_5,164,9999,9999,9999,1913003116
80,19,17,Jits_Phase_5,165,9999,9999,9999,1913513056
80,19,17,Jits_Phase_5,166,9999,9999,9999,1914012736
80,19,17,Jits_Phase_5,167,9999,9999,9999,1914512504
80,19,17,Jits_Phase_5,168,9999,9999,9999,1915012200
80,19,17,Jits_Phase_5,169,9999,9999,9999,1915512924
80,20,3,ISIP_8,0,5,42,127,1986133284
80,20,3,ISIP_8,1,5,42,127,1986933284
80,20,3,ISIP_8,2,5,42,127,1987732892
80,20,3,ISIP_8,3,5,42,127,1988532496
80,20,3,ISIP_8,4,1,48,56,1989314184
80,20,3,ISIP_8,5,5,42,127,1989333368
80,20,3,ISIP_8,6,1,48,58,1990061112
80,20,3,ISIP_8,7,5,42,127,1990133324
80,20,3,ISIP_8,8,1,48,56,1990824268
80,20,3,ISIP_8,9,5,42,127,1990932968
80,20,3,ISIP_8,10,1,48,57,1991638808
80,20,3,ISIP_8,11,5,42,127,1991732480
80,20,3,ISIP_8,12,1,48,57,1992474296
80,20,3,ISIP_8,13,5,42,127,1992533272
80,20,3,ISIP_8,14,1,48,50,1993271788
80,20,3,ISIP_8,15,5,42,127,1993333184
80,20,3,ISIP_8,16,1,48,46,1994080220
80,20,3,ISIP_8,17,5,42,127,1994133064
80,20,3,ISIP_8,18,1,48,43,1994857520
80,20,3,ISIP_8,19,5,42,127,1994932724
80,20,3,ISIP_8,20,1,48,47,1995638104
80,20,3,ISIP_8,21,5,42,127,1995733428
80,20,3,ISIP_8,22,1,48,46,1996484884
80,20,3,ISIP_8,23,5,42,127,1996533160
80,20,3,ISIP_8,24,1,48,44,1997306308
80,20,3,ISIP_8,25,5,42,127,1997333116
80,20,3,ISIP_8,26,1,48,48,1998085920
80,20,3,ISIP_8,27,5,42,127,1998132628
80,20,3,ISIP_8,28,1,48,51,1998840324
80,20,3,ISIP_8,29,5,42,127,1998933408
80,20,3,ISIP_8,30,1,48,43,1999683896
80,20,3,ISIP_8,31,5,42,127,1999733020
80,20,3,ISIP_8,32,1,48,47,2000466644
80,20,3,ISIP_8,33,5,42,127,2000533052
80,20,3,ISIP_8,34,1,48,39,2001272688
80,20,3,ISIP_8,35,5,42,127,2001332564
80,20,3,ISIP_8,36,1,48,45,2002041012
80,20,3,ISIP_8,37,5,42,127,2002133404
80,20,3,ISIP_8,38,1,48,53,2002837224
80,20,3,ISIP_8,39,5,42,127,2002933004
80,20,3,ISIP_8,40,1,48,51,2003644892
80,20,3,ISIP_8,41,5,42,127,2003732812
80,20,3,ISIP_8,42,1,48,40,2004457488
80,20,3,ISIP_8,43,5,42,127,2004532544
80,20,3,ISIP_8,44,1,48,51,2005245924
80,20,3,ISIP_8,45,5,42,127,2005333248
80,20,3,ISIP_8,46,1,48,48,2006015888
80,20,3,ISIP_8,47,5,42,127,2006133068
80,20,3,ISIP_8,48,1,48,53,2006823328
80,20,3,ISIP_8,49,5,42,127,2006932876
80,20,3,ISIP_8,50,1,48,44,2007655096
80,20,3,ISIP_8,51,5,42,127,2007732848
80,20,3,ISIP_8,52,1,48,54,2008453636
80,20,3,ISIP_8,53,5,42,127,2008533252
80,20,3,ISIP_8,54,1,48,46,2009278420
80,20,3,ISIP_8,55,5,42,127,2009333136
80,20,3,ISIP_8,56,1,48,48,2010076132
80,20,3,ISIP_8,57,1,48,50,2010792836
80,20,3,ISIP_8,58,1,48,53,2011564672
80,20,3,ISIP_8,59,1,48,46,2012338744
80,20,3,ISIP_8,60,1,48,43,2013102200
80,20,3,ISIP_8,61,1,48,43,2013883076
80,20,3,ISIP_8,62,1,48,50,2014594768
80,20,3,ISIP_8,63,1,48,44,2015366072
80,20,3,ISIP_8,64,1,48,44,2016125636
80,20,3,ISIP_8,65,1,48,43,2016871140
80,20,3,ISIP_8,66,1,48,42,2017613476
80,20,3,ISIP_8,67,1,48,50,2018368024
80,20,3,ISIP_8,68,1,48,50,2019087652
80,20,3,ISIP_8,69,1,48,48,2019859628
80,20,3,ISIP_8,70,1,48,44,2020596676
80,20,3,ISIP_8,71,1,48,45,2021379048
80,20,3,ISIP_8,72,1,48,44,2022112428
80,20,3,ISIP_8,73,1,48,43,2022866524
80,20,3,ISIP_8,74,1,48,44,2023602828
80,20,3,ISIP_8,75,1,48,46,2024348620
80,20,3,ISIP_8,76,1,48,46,2025089416
80,20,3,ISIP_8,77,1,48,50,2025835964
80,20,3,ISIP_8,78,1,48,50,2026554960
80,20,3,ISIP_8,79,1,48,50,2027300988
80,20,3,ISIP_8,80,1,48,44,2028044616
80,20,3,ISIP_8,81,1,48,45,2028768944
80,20,3,ISIP_8,82,1,48,52,2029510332
80,20,3,ISIP_8,83,1,48,44,2030258232
80,20,3,ISIP_8,84,1,48,50,2030973884
80,20,3,ISIP_8,85,1,48,45,2031720868
80,20,3,ISIP_8,86,1,48,47,2032434632
80,20,3,ISIP_8,87,1,48,45,2033153876
80,20,3,ISIP_8,88,1,48,42,2033903564
80,20,3,ISIP_8,89,1,48,46,2034610548
80,20,3,ISIP_8,90,1,48,48,2035342280
80,20,3,ISIP_8,91,1,48,47,2036091820
80,20,3,ISIP_8,92,1,48,43,2036800724
80,20,3,ISIP_8,93,1,48,46,2037520264
80,20,3,ISIP_8,94,1,48,40,2038252756
80,20,3,ISIP_8,95,1,48,45,2038988232
80,20,3,ISIP_8,96,1,48,45,2039731340
80,20,3,ISIP_8,97,1,48,57,2040469268
80,20,3,ISIP_8,98,1,48,55,2041206544
80,20,3,ISIP_8,99,1,48,53,2041956980
80,20,3,ISIP_8,100,1,48,48,2042702680
80,20,3,ISIP_8,101,1,48,44,2043428584
80,20,3,ISIP_8,102,1,48,43,2044125320
80,20,3,ISIP_8,103,1,48,40,2044861316
80,20,3,ISIP_8,104,1,48,38,2045605324
80,20,3,ISIP_8,105,1,48,39,2046313804
80,20,3,ISIP_8,106,1,48,42,2047058304
80,20,3,ISIP_8,107,1,48,31,2047809188
80,20,3,ISIP_8,108,1,48,33,2048598672
80,20,3,ISIP_8,109,1,48,41,2049318056
80,20,3,ISIP_8,110,1,48,44,2050009848
80,20,3,ISIP_8,111,1,48,31,2050766272
80,20,3,ISIP_8,112,1,48,45,2051485896
80,20,3,ISIP_8,113,1,48,33,2052227428
80,20,3,ISIP_8,114,1,48,56,2052892948
80,20,3,ISIP_8,115,1,48,31,2053604864
80,20,3,ISIP_8,116,1,48,42,2054331816
80,20,3,ISIP_8,117,1,48,42,2055070580
80,20,3,ISIP_8,118,1,48,48,2055740440
80,20,3,ISIP_8,119,1,48,47,2056440896
80,20,3,ISIP_8,120,1,48,40,2057200760
80,20,3,ISIP_8,121,1,48,44,2057849996
80,20,3,ISIP_8,122,1,48,43,2058506536
80,20,3,ISIP_8,123,1,48,48,2059247248
80,20,3,ISIP_8,124,1,48,41,2059949516
80,20,3,ISIP_8,125,1,48,37,2060597080
80,20,3,ISIP_8,126,1,48,33,2061286244
80,20,3,ISIP_8,127,1,48,50,2062000856
80,20,3,ISIP_8,128,1,48,23,2062684876
80,20,3,ISIP_8,129,1,48,43,2063333416
80,20,3,ISIP_8,130,1,48,56,2063989904
80,20,3,ISIP_8,131,1,48,47,2064645096
80,20,3,ISIP_8,132,1,48,46,2065298884
80,20,3,ISIP_8,133,1,48,45,2065974500
80,20,3,ISIP_8,134,1,48,51,2066664348
80,20,3,ISIP_8,135,1,48,40,2067413144
80,20,3,ISIP_8,136,1,48,32,2068112420
80,20,3,ISIP_8,137,1,48,38,2068803744
80,20,3,ISIP_8,138,1,48,47,2069491568
80,20,3,ISIP_8,139,1,48,36,2070208196
80,20,3,ISIP_8,140,1,48,37,2070862332
80,20,3,ISIP_8,141,1,48,46,2071618756
80,20,3,ISIP_8,142,1,48,49,2072260432
80,20,3,ISIP_8,143,1,48,42,2072943104
80,20,3,ISIP_8,144,1,48,38,2073618944
80,20,3,ISIP_8,145,1,48,40,2074286728
80,20,3,ISIP_8,146,1,48,50,2074916932
80,20,3,ISIP_8,147,1,48,43,2075598624
80,20,3,ISIP_8,148,1,48,42,2076253172
80,20,3,ISIP_8,149,1,48,26,2076919064
80,20,3,ISIP_8,150,1,48,50,2077514420
80,20,3,ISIP_8,151,1,48,44,2078196492
80,20,3,ISIP_8,152,1,48,39,2078890220
80,20,3,ISIP_8,153,1,48,44,2079536664
80,20,3,ISIP_8,154,1,48,47,2080182836
80,20,3,ISIP_8,155,1,48,45,2080873356
80,20,3,ISIP_8,156,1,48,43,2081553236
80,20,3,ISIP_8,157,1,48,22,2082245404
80,20,3,ISIP_8,158,1,48,45,2082883456
80,20,3,ISIP_8,159,1,48,33,2083544216
80,20,3,ISIP_8,160,1,48,29,2084212148
80,20,3,ISIP_8,161,1,48,43,2084866300
80,20,3,ISIP_8,162,1,48,47,2085550240
80,20,3,ISIP_8,163,1,48,34,2086186436
80,20,3,ISIP_8,164,1,48,33,2086897436
80,20,3,ISIP_8,165,1,48,47,2087578088
80,20,3,ISIP_8,166,1,48,40,2088235308
80,20,3,ISIP_8,167,1,48,40,2088950508
80,20,3,ISIP_8,168,1,48,38,2089622640
80,20,3,ISIP_8,169,1,48,32,2090310068
80,20,3,ISIP_8,170,1,48,43,2090955488
80,20,3,ISIP_8,171,1,48,33,2092290076
80,20,3,ISIP_8,172,1,48,38,2092938488
80,20,3,ISIP_8,173,1,48,47,2093585304
80,20,3,ISIP_8,174,1,48,40,2094225940
80,20,3,ISIP_8,175,1,48,24,2094868632
80,20,3,ISIP_8,176,1,48,48,2095472384
80,20,3,ISIP_8,177,1,48,51,2096094824
80,20,3,ISIP_8,178,1,48,46,2096727452
80,20,3,ISIP_8,179,1,48,37,2097374120
80,20,3,ISIP_8,180,1,48,40,2097993924
80,20,3,ISIP_8,181,1,48,45,2098614136
80,20,3,ISIP_8,182,1,48,21,2099255644
80,20,3,ISIP_8,183,1,48,35,2099892688
80,20,3,ISIP_8,184,1,48,45,2100487056
80,20,3,ISIP_8,185,1,48,47,2101102788
80,20,3,ISIP_8,186,1,48,42,2101702404
80,20,3,ISIP_8,187,1,48,46,2102324092
80,20,3,ISIP_8,188,1,48,45,2102905324
80,20,3,ISIP_8,189,1,48,47,2103557896
80,20,3,ISIP_8,190,1,48,45,2104229348
80,20,3,ISIP_8,191,1,48,37,2104906608
80,20,3,ISIP_8,192,1,48,40,2105542836
80,20,3,ISIP_8,0,9999,9999,9999,1986130992
80,20,3,ISIP_8,1,9999,9999,9999,1986930772
80,20,3,ISIP_8,2,9999,9999,9999,1987730528
80,20,3,ISIP_8,3,9999,9999,9999,1988530280
80,20,3,ISIP_8,4,9999,9999,9999,1989331004
80,20,3,ISIP_8,5,9999,9999,9999,1990130736
80,20,3,ISIP_8,6,9999,9999,9999,1990930528
80,20,3,ISIP_8,7,9999,9999,9999,1991730264
80,20,3,ISIP_8,8,9999,9999,9999,1992531056
80,20,3,ISIP_8,9,9999,9999,9999,1993330744
80,20,3,ISIP_8,10,9999,9999,9999,1994130552
80,20,3,ISIP_8,11,9999,9999,9999,1994930284
80,20,3,ISIP_8,12,9999,9999,9999,1995731064
80,20,3,ISIP_8,13,9999,9999,9999,1996530796
80,20,3,ISIP_8,14,9999,9999,9999,1997330532
80,20,3,ISIP_8,15,9999,9999,9999,1998130264
80,20,3,ISIP_8,16,9999,9999,9999,1998931044
80,20,3,ISIP_8,17,9999,9999,9999,1999730804
80,20,3,ISIP_8,18,9999,9999,9999,2000530536
80,20,3,ISIP_8,19,9999,9999,9999,2001330272
80,20,3,ISIP_8,20,9999,9999,9999,2002131056
80,20,3,ISIP_8,21,9999,9999,9999,2002930788
80,20,3,ISIP_8,22,9999,9999,9999,2003730520
80,20,3,ISIP_8,23,9999,9999,9999,2004530252
80,20,3,ISIP_8,24,9999,9999,9999,2005331032
80,20,3,ISIP_8,25,9999,9999,9999,2006130776
80,20,3,ISIP_8,26,9999,9999,9999,2006930508
80,20,3,ISIP_8,27,9999,9999,9999,2007730260
80,20,3,ISIP_8,28,9999,9999,9999,2008531036
80,20,3,ISIP_8,29,9999,9999,9999,2009330772
80,20,3,ISIP_8,30,9999,9999,9999,2010130504
80,20,3,ISIP_8,31,9999,9999,9999,2010930292
80,20,3,ISIP_8,32,9999,9999,9999,2011730996
80,20,3,ISIP_8,33,9999,9999,9999,2012530748
80,20,3,ISIP_8,34,9999,9999,9999,2013330552
80,20,3,ISIP_8,35,9999,9999,9999,2014130284
80,20,3,ISIP_8,36,9999,9999,9999,2014931056
80,20,3,ISIP_8,37,9999,9999,9999,2015730788
80,20,3,ISIP_8,38,9999,9999,9999,2016530516
80,20,3,ISIP_8,39,9999,9999,9999,2017330248
80,20,3,ISIP_8,40,9999,9999,9999,2018131024
80,20,3,ISIP_8,41,9999,9999,9999,2018930776
80,20,3,ISIP_8,42,9999,9999,9999,2019730508
80,20,3,ISIP_8,43,9999,9999,9999,2020530236
80,20,3,ISIP_8,44,9999,9999,9999,2021331016
80,20,3,ISIP_8,45,9999,9999,9999,2022130736
80,20,3,ISIP_8,46,9999,9999,9999,2022930540
80,20,3,ISIP_8,47,9999,9999,9999,2023730256
80,20,3,ISIP_8,48,9999,9999,9999,2024531028
80,20,3,ISIP_8,49,9999,9999,9999,2025330784
80,20,3,ISIP_8,50,9999,9999,9999,2026130516
80,20,3,ISIP_8,51,9999,9999,9999,2026930244
80,20,3,ISIP_8,52,9999,9999,9999,2027731020
80,20,3,ISIP_8,53,9999,9999,9999,2028530748
80,20,3,ISIP_8,54,9999,9999,9999,2029330552
80,20,3,ISIP_8,55,9999,9999,9999,2030130280
80,20,3,ISIP_8,56,9999,9999,9999,2030931056
80,20,3,ISIP_8,57,9999,9999,9999,2031730804
80,20,3,ISIP_8,58,9999,9999,9999,2032530516
80,20,3,ISIP_8,59,9999,9999,9999,2033330248
80,20,3,ISIP_8,60,9999,9999,9999,2034131024
80,20,3,ISIP_8,61,9999,9999,9999,2034930752
80,20,3,ISIP_8,62,9999,9999,9999,2035730484
80,20,3,ISIP_8,63,9999,9999,9999,2036530284
80,20,3,ISIP_8,64,9999,9999,9999,2037331060
80,20,3,ISIP_8,65,9999,9999,9999,2038130740
80,20,3,ISIP_8,66,9999,9999,9999,2038930544
80,20,3,ISIP_8,67,9999,9999,9999,2039730272
80,20,3,ISIP_8,68,9999,9999,9999,2040531044
80,20,3,ISIP_8,69,9999,9999,9999,2041330756
80,20,3,ISIP_8,70,9999,9999,9999,2042130484
80,20,3,ISIP_8,71,9999,9999,9999,2042930288
80,20,3,ISIP_8,72,9999,9999,9999,2043730992
80,20,3,ISIP_8,73,9999,9999,9999,2044530744
80,20,3,ISIP_8,74,9999,9999,9999,2045330548
80,20,3,ISIP_8,75,9999,9999,9999,2046130280
80,20,3,ISIP_8,76,9999,9999,9999,2046931056
80,20,3,ISIP_8,77,9999,9999,9999,2047730784
80,20,3,ISIP_8,78,9999,9999,9999,2048530512
80,20,3,ISIP_8,79,9999,9999,9999,2049330236
80,20,3,ISIP_8,80,9999,9999,9999,2050130996
80,20,3,ISIP_8,81,9999,9999,9999,2050930752
80,20,3,ISIP_8,82,9999,9999,9999,2051730480
80,20,3,ISIP_8,83,9999,9999,9999,2052530284
80,20,3,ISIP_8,84,9999,9999,9999,2053331060
80,20,3,ISIP_8,85,9999,9999,9999,2054130788
80,20,3,ISIP_8,86,9999,9999,9999,2054930520
80,20,3,ISIP_8,87,9999,9999,9999,2055730248
80,20,3,ISIP_8,88,9999,9999,9999,2056531016
80,20,3,ISIP_8,89,9999,9999,9999,2057330756
80,20,3,ISIP_8,90,9999,9999,9999,2058130484
80,20,3,ISIP_8,91,9999,9999,9999,2058930288
80,20,3,ISIP_8,92,9999,9999,9999,2059731064
80,20,3,ISIP_8,93,9999,9999,9999,2060530792
80,20,3,ISIP_8,94,9999,9999,9999,2061330516
80,20,3,ISIP_8,95,9999,9999,9999,2062130232
80,20,3,ISIP_8,96,9999,9999,9999,2062931008
80,20,3,ISIP_8,97,9999,9999,9999,2063730764
80,20,3,ISIP_8,98,9999,9999,9999,2064530492
80,20,3,ISIP_8,99,9999,9999,9999,2065330288
80,20,3,ISIP_8,100,9999,9999,9999,2066131048
80,20,3,ISIP_8,101,9999,9999,9999,2066930776
80,20,3,ISIP_8,102,9999,9999,9999,2067730508
80,20,3,ISIP_8,103,9999,9999,9999,2068530236
80,20,3,ISIP_8,104,9999,9999,9999,2069331012
80,20,3,ISIP_8,105,9999,9999,9999,2070130764
80,20,3,ISIP_8,106,9999,9999,9999,2070930488
80,20,3,ISIP_8,107,9999,9999,9999,2071730276
80,20,3,ISIP_8,108,9999,9999,9999,2072531052
80,20,3,ISIP_8,109,9999,9999,9999,2073330780
80,20,3,ISIP_8,110,9999,9999,9999,2074130508
80,20,3,ISIP_8,111,9999,9999,9999,2074930232
80,20,3,ISIP_8,112,9999,9999,9999,2075730992
80,20,3,ISIP_8,113,9999,9999,9999,2076530744
80,20,3,ISIP_8,114,9999,9999,9999,2077330552
80,20,3,ISIP_8,115,9999,9999,9999,2078130280
80,20,3,ISIP_8,116,9999,9999,9999,2078931048
80,20,3,ISIP_8,117,9999,9999,9999,2079730764
80,20,3,ISIP_8,118,9999,9999,9999,2080530492
80,20,3,ISIP_8,119,9999,9999,9999,2081330296
80,20,3,ISIP_8,120,9999,9999,9999,2082130996
80,20,3,ISIP_8,121,9999,9999,9999,2082930744
80,20,3,ISIP_8,122,9999,9999,9999,2083730532
80,20,3,ISIP_8,123,9999,9999,9999,2084530260
80,20,3,ISIP_8,124,9999,9999,9999,2085331036
80,20,3,ISIP_8,125,9999,9999,9999,2086130768
80,20,3,ISIP_8,126,9999,9999,9999,2086930488
80,20,3,ISIP_8,127,9999,9999,9999,2087730276
80,20,3,ISIP_8,128,9999,9999,9999,2088531052
80,20,3,ISIP_8,129,9999,9999,9999,2089330808
80,20,3,ISIP_8,130,9999,9999,9999,2090130536
80,20,3,ISIP_8,131,9999,9999,9999,2090930264
80,20,3,ISIP_8,132,9999,9999,9999,2091731040
80,20,3,ISIP_8,133,9999,9999,9999,2092530772
80,20,3,ISIP_8,134,9999,9999,9999,2093330500
80,20,3,ISIP_8,135,9999,9999,9999,2094130228
80,20,3,ISIP_8,136,9999,9999,9999,2094931000
80,20,3,ISIP_8,137,9999,9999,9999,2095730740
80,20,3,ISIP_8,138,9999,9999,9999,2096530540
80,20,3,ISIP_8,139,9999,9999,9999,2097330272
80,20,3,ISIP_8,140,9999,9999,9999,2098131024
80,20,3,ISIP_8,141,9999,9999,9999,2098930756
80,20,3,ISIP_8,142,9999,9999,9999,2099730484
80,20,3,ISIP_8,143,9999,9999,9999,2100530280
80,20,3,ISIP_8,144,9999,9999,9999,2101331040
80,20,3,ISIP_8,145,9999,9999,9999,2102130796
80,20,3,ISIP_8,146,9999,9999,9999,2102930520
80,20,3,ISIP_8,147,9999,9999,9999,2103730232
80,20,3,ISIP_8,148,9999,9999,9999,2104531008
80,20,3,ISIP_8,149,9999,9999,9999,2105330736
80,21,5,ISIP_5,0,5,42,127,2141758972
80,21,5,ISIP_5,1,5,42,127,2142258392
80,21,5,ISIP_5,2,5,42,127,2142759228
80,21,5,ISIP_5,3,5,42,127,2143259020
80,21,5,ISIP_5,4,5,42,127,2143758888
80,21,5,ISIP_5,5,1,48,51,2143792824
80,21,5,ISIP_5,6,5,42,127,2144258284
80,21,5,ISIP_5,7,1,48,51,2144271348
80,21,5,ISIP_5,8,5,42,127,2144759024
80,21,5,ISIP_5,9,1,48,46,2144786828
80,21,5,ISIP_5,10,5,42,127,2145258940
80,21,5,ISIP_5,11,1,48,45,2145267000
80,21,5,ISIP_5,12,5,42,127,2145758636
80,21,5,ISIP_5,13,1,48,49,2145761228
80,21,5,ISIP_5,14,1,48,47,2146253728
80,21,5,ISIP_5,15,5,42,127,2146259224
80,21,5,ISIP_5,16,1,48,50,2146740708
80,21,5,ISIP_5,17,5,42,127,2146759068
80,21,5,ISIP_5,18,1,48,51,2147252524
80,21,5,ISIP_5,19,5,42,127,2147258760
80,21,5,ISIP_5,20,1,48,49,2147733668
80,21,5,ISIP_5,21,5,42,127,2147758384
80,21,5,ISIP_5,22,1,48,46,2148233364
80,21,5,ISIP_5,23,5,42,127,2148259048
80,21,5,ISIP_5,24,1,48,48,2148725572
80,21,5,ISIP_5,25,5,42,127,2148758820
80,21,5,ISIP_5,26,1,48,50,2149226916
80,21,5,ISIP_5,27,5,42,127,2149258736
80,21,5,ISIP_5,28,1,48,51,2149737680
80,21,5,ISIP_5,29,5,42,127,2149759404
80,21,5,ISIP_5,30,1,48,49,2150240740
80,21,5,ISIP_5,31,5,42,127,2150259024
80,21,5,ISIP_5,32,1,48,51,2150734576
80,21,5,ISIP_5,33,5,42,127,2150758868
80,21,5,ISIP_5,34,1,48,49,2151214376
80,21,5,ISIP_5,35,5,42,127,2151258416
80,21,5,ISIP_5,36,1,48,52,2151730148
80,21,5,ISIP_5,37,5,42,127,2151759356
80,21,5,ISIP_5,38,1,48,52,2152229544
80,21,5,ISIP_5,39,5,42,127,2152258828
80,21,5,ISIP_5,40,1,48,52,2152727224
80,21,5,ISIP_5,41,5,42,127,2152758744
80,21,5,ISIP_5,42,1,48,45,2153229608
80,21,5,ISIP_5,43,5,42,127,2153259336
80,21,5,ISIP_5,44,1,48,51,2153733944
80,21,5,ISIP_5,45,5,42,127,2153758960
80,21,5,ISIP_5,46,1,48,51,2154202452
80,21,5,ISIP_5,47,5,42,127,2154258804
80,21,5,ISIP_5,48,1,48,51,2154702368
80,21,5,ISIP_5,49,5,42,127,2154758576
80,21,5,ISIP_5,50,1,48,48,2155230636
80,21,5,ISIP_5,51,5,42,127,2155259168
80,21,5,ISIP_5,52,1,48,56,2155725768
80,21,5,ISIP_5,53,5,42,127,2155758864
80,21,5,ISIP_5,54,1,48,48,2156221124
80,21,5,ISIP_5,55,5,42,127,2156258780
80,21,5,ISIP_5,56,1,48,55,2156739892
80,21,5,ISIP_5,57,5,42,127,2156759672
80,21,5,ISIP_5,58,1,48,53,2157220888
80,21,5,ISIP_5,59,5,42,127,2157258992
80,21,5,ISIP_5,60,1,48,54,2157730084
80,21,5,ISIP_5,61,5,42,127,2157758764
80,21,5,ISIP_5,62,1,48,47,2158221996
80,21,5,ISIP_5,63,5,42,127,2158258608
80,21,5,ISIP_5,64,1,48,48,2158712712
80,21,5,ISIP_5,65,5,42,127,2158759272
80,21,5,ISIP_5,66,1,48,54,2159231632
80,21,5,ISIP_5,67,5,42,127,2159259044
80,21,5,ISIP_5,68,1,48,59,2159751972
80,21,5,ISIP_5,69,5,42,127,2159758592
80,21,5,ISIP_5,70,1,48,56,2160249948
80,21,5,ISIP_5,71,5,42,127,2160258360
80,21,5,ISIP_5,72,1,48,51,2160759032
80,21,5,ISIP_5,73,5,42,127,2160760444
80,21,5,ISIP_5,74,5,42,127,2161258876
80,21,5,ISIP_5,75,1,48,49,2161263720
80,21,5,ISIP_5,76,1,48,55,2161744668
80,21,5,ISIP_5,77,1,48,48,2162219972
80,21,5,ISIP_5,78,1,48,50,2162751752
80,21,5,ISIP_5,79,1,48,52,2163237680
80,21,5,ISIP_5,80,1,48,56,2163745596
80,21,5,ISIP_5,81,1,48,45,2164239380
80,21,5,ISIP_5,82,1,48,48,2164760100
80,21,5,ISIP_5,83,1,48,48,2165238756
80,21,5,ISIP_5,84,1,48,53,2165734864
80,21,5,ISIP_5,85,1,48,48,2166244580
80,21,5,ISIP_5,86,1,48,49,2166757364
80,21,5,ISIP_5,87,1,48,54,2167233112
80,21,5,ISIP_5,88,1,48,56,2167726892
80,21,5,ISIP_5,89,1,48,50,2168240272
80,21,5,ISIP_5,90,1,48,50,2168716924
80,21,5,ISIP_5,91,1,48,41,2169216540
80,21,5,ISIP_5,92,1,48,58,2169708224
80,21,5,ISIP_5,93,1,48,44,2170215924
80,21,5,ISIP_5,94,1,48,49,2170693748
80,21,5,ISIP_5,95,1,48,48,2171149080
80,21,5,ISIP_5,96,1,48,52,2171642860
80,21,5,ISIP_5,97,1,48,48,2172137844
80,21,5,ISIP_5,98,1,48,45,2172586672
80,21,5,ISIP_5,99,1,48,52,2173088452
80,21,5,ISIP_5,100,1,48,49,2173610136
80,21,5,ISIP_5,101,1,48,50,2174077068
80,21,5,ISIP_5,102,1,48,49,2174579000
80,21,5,ISIP_5,103,1,48,49,2175060512
80,21,5,ISIP_5,104,1,48,51,2175547540
80,21,5,ISIP_5,105,1,48,50,2176012528
80,21,5,ISIP_5,106,1,48,49,2176536676
80,21,5,ISIP_5,107,1,48,49,2177027460
80,21,5,ISIP_5,108,1,48,51,2177518024
80,21,5,ISIP_5,109,1,48,50,2177992356
80,21,5,ISIP_5,110,1,48,43,2178480236
80,21,5,ISIP_5,111,1,48,53,2178975284
80,21,5,ISIP_5,112,1,48,52,2179446852
80,21,5,ISIP_5,113,1,48,44,2179951252
80,21,5,ISIP_5,114,1,48,47,2180432144
80,21,5,ISIP_5,115,1,48,50,2180882772
80,21,5,ISIP_5,116,1,48,52,2181387696
80,21,5,ISIP_5,117,1,48,42,2181862628
80,21,5,ISIP_5,118,1,48,46,2182373312
80,21,5,ISIP_5,119,1,48,51,2182849512
80,21,5,ISIP_5,120,1,48,50,2183320036
80,21,5,ISIP_5,121,1,48,46,2183800724
80,21,5,ISIP_5,122,1,48,48,2184314852
80,21,5,ISIP_5,123,1,48,50,2184809156
80,21,5,ISIP_5,124,1,48,47,2185274044
80,21,5,ISIP_5,125,1,48,44,2185761540
80,21,5,ISIP_5,126,1,48,44,2186241544
80,21,5,ISIP_5,127,1,48,42,2186740632
80,21,5,ISIP_5,128,1,48,46,2187215196
80,21,5,ISIP_5,129,1,48,46,2187684740
80,21,5,ISIP_5,130,1,48,48,2188173516
80,21,5,ISIP_5,131,1,48,50,2188678440
80,21,5,ISIP_5,132,1,48,49,2189164512
80,21,5,ISIP_5,133,1,48,46,2189665556
80,21,5,ISIP_5,134,1,48,46,2190182748
80,21,5,ISIP_5,135,1,48,46,2190645908
80,21,5,ISIP_5,136,1,48,49,2191106408
80,21,5,ISIP_5,137,1,48,43,2191604376
80,21,5,ISIP_5,138,1,48,50,2192093448
80,21,5,ISIP_5,139,1,48,47,2192528660
80,21,5,ISIP_5,140,1,48,43,2193011296
80,21,5,ISIP_5,141,1,48,39,2193508668
80,21,5,ISIP_5,142,1,48,49,2193983504
80,21,5,ISIP_5,143,1,48,50,2194443248
80,21,5,ISIP_5,144,1,48,44,2194925664
80,21,5,ISIP_5,145,1,48,48,2195401120
80,21,5,ISIP_5,146,1,48,46,2195878444
80,21,5,ISIP_5,147,1,48,46,2196326900
80,21,5,ISIP_5,148,1,48,43,2196804572
80,21,5,ISIP_5,149,1,48,44,2197315036
80,21,5,ISIP_5,150,1,48,46,2197775008
80,21,5,ISIP_5,151,1,48,52,2198234668
80,21,5,ISIP_5,152,1,48,48,2198679080
80,21,5,ISIP_5,153,1,48,42,2199157380
80,21,5,ISIP_5,154,1,48,45,2199611644
80,21,5,ISIP_5,155,1,48,38,2200066456
80,21,5,ISIP_5,156,1,48,42,2200543032
80,21,5,ISIP_5,157,1,48,37,2200983784
80,21,5,ISIP_5,158,1,48,40,2201477492
80,21,5,ISIP_5,159,1,48,44,2201912380
80,21,5,ISIP_5,160,1,48,42,2202389104
80,21,5,ISIP_5,161,1,48,32,2202839800
80,21,5,ISIP_5,162,1,48,34,2203297308
80,21,5,ISIP_5,163,1,48,35,2203787280
80,21,5,ISIP_5,164,1,48,53,2204258692
80,21,5,ISIP_5,165,1,48,47,2204710620
80,21,5,ISIP_5,166,1,48,49,2205186528
80,21,5,ISIP_5,167,1,48,37,2205645980
80,21,5,ISIP_5,168,1,48,53,2206125324
80,21,5,ISIP_5,169,1,48,44,2206568768
80,21,5,ISIP_5,170,1,48,40,2207061056
80,21,5,ISIP_5,171,1,48,54,2207518156
80,21,5,ISIP_5,172,1,48,43,2207982620
80,21,5,ISIP_5,173,1,48,51,2208443716
80,21,5,ISIP_5,174,1,48,43,2208906004
80,21,5,ISIP_5,175,1,48,43,2209388416
80,21,5,ISIP_5,176,1,48,46,2209870356
80,21,5,ISIP_5,177,1,48,42,2210337508
80,21,5,ISIP_5,178,1,48,47,2210797784
80,21,5,ISIP_5,179,1,48,43,2211228120
80,21,5,ISIP_5,180,1,48,49,2211717416
80,21,5,ISIP_5,181,1,48,27,2212166668
80,21,5,ISIP_5,182,1,48,43,2212643544
80,21,5,ISIP_5,183,1,48,52,2213097380
80,21,5,ISIP_5,184,1,48,50,2213566784
80,21,5,ISIP_5,185,1,48,48,2214023540
80,21,5,ISIP_5,186,1,48,39,2214511556
80,21,5,ISIP_5,187,1,48,53,2215403608
80,21,5,ISIP_5,188,1,48,49,2215852140
80,21,5,ISIP_5,189,1,48,35,2216314056
80,21,5,ISIP_5,190,1,48,49,2216777588
80,21,5,ISIP_5,191,1,48,53,2217230520
80,21,5,ISIP_5,192,1,48,51,2217690492
80,21,5,ISIP_5,193,1,48,46,2218156300
80,21,5,ISIP_5,194,1,48,48,2218603856
80,21,5,ISIP_5,195,1,48,53,2219084596
80,21,5,ISIP_5,196,1,48,45,2219531176
80,21,5,ISIP_5,197,1,48,45,2220003044
80,21,5,ISIP_5,198,1,48,46,2220424500
80,21,5,ISIP_5,199,1,48,44,2220882452
80,21,5,ISIP_5,200,1,48,51,2221340832
80,21,5,ISIP_5,0,9999,9999,9999,2141756464
80,21,5,ISIP_5,1,9999,9999,9999,2142256180
80,21,5,ISIP_5,2,9999,9999,9999,2142756944
80,21,5,ISIP_5,3,9999,9999,9999,2143256660
80,21,5,ISIP_5,4,9999,9999,9999,2143756376
80,21,5,ISIP_5,5,9999,9999,9999,2144256072
80,21,5,ISIP_5,6,9999,9999,9999,2144756812
80,21,5,ISIP_5,7,9999,9999,9999,2145256508
80,21,5,ISIP_5,8,9999,9999,9999,2145756276
80,21,5,ISIP_5,9,9999,9999,9999,2146257012
80,21,5,ISIP_5,10,9999,9999,9999,2146756704
80,21,5,ISIP_5,11,9999,9999,9999,2147256400
80,21,5,ISIP_5,12,9999,9999,9999,2147756096
80,21,5,ISIP_5,13,9999,9999,9999,2148256836
80,21,5,ISIP_5,14,9999,9999,9999,2148756532
80,21,5,ISIP_5,15,9999,9999,9999,2149256304
80,21,5,ISIP_5,16,9999,9999,9999,2149757044
80,21,5,ISIP_5,17,9999,9999,9999,2150256740
80,21,5,ISIP_5,18,9999,9999,9999,2150756432
80,21,5,ISIP_5,19,9999,9999,9999,2151256128
80,21,5,ISIP_5,20,9999,9999,9999,2151756920
80,21,5,ISIP_5,21,9999,9999,9999,2152256616
80,21,5,ISIP_5,22,9999,9999,9999,2152756312
80,21,5,ISIP_5,23,9999,9999,9999,2153257052
80,21,5,ISIP_5,24,9999,9999,9999,2153756748
80,21,5,ISIP_5,25,9999,9999,9999,2154256444
80,21,5,ISIP_5,26,9999,9999,9999,2154756216
80,21,5,ISIP_5,27,9999,9999,9999,2155256884
80,21,5,ISIP_5,28,9999,9999,9999,2155756652
80,21,5,ISIP_5,29,9999,9999,9999,2156256348
80,21,5,ISIP_5,30,9999,9999,9999,2156757088
80,21,5,ISIP_5,31,9999,9999,9999,2157256784
80,21,5,ISIP_5,32,9999,9999,9999,2157756476
80,21,5,ISIP_5,33,9999,9999,9999,2158256248
80,21,5,ISIP_5,34,9999,9999,9999,2158756912
80,21,5,ISIP_5,35,9999,9999,9999,2159256684
80,21,5,ISIP_5,36,9999,9999,9999,2159756380
80,21,5,ISIP_5,37,9999,9999,9999,2160256072
80,21,5,ISIP_5,38,9999,9999,9999,2160756820
80,21,5,ISIP_5,39,9999,9999,9999,2161256516
80,21,5,ISIP_5,40,9999,9999,9999,2161756280
80,21,5,ISIP_5,41,9999,9999,9999,2162256992
80,21,5,ISIP_5,42,9999,9999,9999,2162756680
80,21,5,ISIP_5,43,9999,9999,9999,2163256372
80,21,5,ISIP_5,44,9999,9999,9999,2163756136
80,21,5,ISIP_5,45,9999,9999,9999,2164256872
80,21,5,ISIP_5,46,9999,9999,9999,2164756572
80,21,5,ISIP_5,47,9999,9999,9999,2165256256
80,21,5,ISIP_5,48,9999,9999,9999,2165756992
80,21,5,ISIP_5,49,9999,9999,9999,2166256760
80,21,5,ISIP_5,50,9999,9999,9999,2166756456
80,21,5,ISIP_5,51,9999,9999,9999,2167256140
80,21,5,ISIP_5,52,9999,9999,9999,2167756876
80,21,5,ISIP_5,53,9999,9999,9999,2168256568
80,21,5,ISIP_5,54,9999,9999,9999,2168756336
80,21,5,ISIP_5,55,9999,9999,9999,2169257072
80,21,5,ISIP_5,56,9999,9999,9999,2169756764
80,21,5,ISIP_5,57,9999,9999,9999,2170256452
80,21,5,ISIP_5,58,9999,9999,9999,2170756216
80,21,5,ISIP_5,59,9999,9999,9999,2171256940
80,21,5,ISIP_5,60,9999,9999,9999,2171756632
80,21,5,ISIP_5,61,9999,9999,9999,2172256324
80,21,5,ISIP_5,62,9999,9999,9999,2172757060
80,21,5,ISIP_5,63,9999,9999,9999,2173256800
80,21,5,ISIP_5,64,9999,9999,9999,2173756492
80,21,5,ISIP_5,65,9999,9999,9999,2174256184
80,21,5,ISIP_5,66,9999,9999,9999,2174756920
80,21,5,ISIP_5,67,9999,9999,9999,2175256684
80,21,5,ISIP_5,68,9999,9999,9999,2175756376
80,21,5,ISIP_5,69,9999,9999,9999,2176256064
80,21,5,ISIP_5,70,9999,9999,9999,2176756800
80,21,5,ISIP_5,71,9999,9999,9999,2177256564
80,21,5,ISIP_5,72,9999,9999,9999,2177756256
80,21,5,ISIP_5,73,9999,9999,9999,2178256992
80,21,5,ISIP_5,74,9999,9999,9999,2178756684
80,21,5,ISIP_5,75,9999,9999,9999,2179256376
80,21,5,ISIP_5,76,9999,9999,9999,2179756140
80,21,5,ISIP_5,77,9999,9999,9999,2180256876
80,21,5,ISIP_5,78,9999,9999,9999,2180756568
80,21,5,ISIP_5,79,9999,9999,9999,2181256260
80,21,5,ISIP_5,80,9999,9999,9999,2181756996
80,21,5,ISIP_5,81,9999,9999,9999,2182256760
80,21,5,ISIP_5,82,9999,9999,9999,2182756452
80,21,5,ISIP_5,83,9999,9999,9999,2183256144
80,21,5,ISIP_5,84,9999,9999,9999,2183756856
80,21,5,ISIP_5,85,9999,9999,9999,2184256620
80,21,5,ISIP_5,86,9999,9999,9999,2184756312
80,21,5,ISIP_5,87,9999,9999,9999,2185257048
80,21,5,ISIP_5,88,9999,9999,9999,2185756736
80,21,5,ISIP_5,89,9999,9999,9999,2186256496
80,21,5,ISIP_5,90,9999,9999,9999,2186756184
80,21,5,ISIP_5,91,9999,9999,9999,2187256924
80,21,5,ISIP_5,92,9999,9999,9999,2187756612
80,21,5,ISIP_5,93,9999,9999,9999,2188256304
80,21,5,ISIP_5,94,9999,9999,9999,2188757040
80,21,5,ISIP_5,95,9999,9999,9999,2189256792
80,21,5,ISIP_5,96,9999,9999,9999,2189756484
80,21,5,ISIP_5,97,9999,9999,9999,2190256188
80,21,5,ISIP_5,98,9999,9999,9999,2190756984
80,21,5,ISIP_5,99,9999,9999,9999,2191256676
80,21,5,ISIP_5,100,9999,9999,9999,2191756364
80,21,5,ISIP_5,101,9999,9999,9999,2192256056
80,21,5,ISIP_5,102,9999,9999,9999,2192756796
80,21,5,ISIP_5,103,9999,9999,9999,2193256560
80,21,5,ISIP_5,104,9999,9999,9999,2193756252
80,21,5,ISIP_5,105,9999,9999,9999,2194256988
80,21,5,ISIP_5,106,9999,9999,9999,2194756728
80,21,5,ISIP_5,107,9999,9999,9999,2195256420
80,21,5,ISIP_5,108,9999,9999,9999,2195756112
80,21,5,ISIP_5,109,9999,9999,9999,2196256848
80,21,5,ISIP_5,110,9999,9999,9999,2196756536
80,21,5,ISIP_5,111,9999,9999,9999,2197256300
80,21,5,ISIP_5,112,9999,9999,9999,2197757040
80,21,5,ISIP_5,113,9999,9999,9999,2198256724
80,21,5,ISIP_5,114,9999,9999,9999,2198756412
80,21,5,ISIP_5,115,9999,9999,9999,2199256180
80,21,5,ISIP_5,116,9999,9999,9999,2199756900
80,21,5,ISIP_5,117,9999,9999,9999,2200256592
80,21,5,ISIP_5,118,9999,9999,9999,2200756284
80,21,5,ISIP_5,119,9999,9999,9999,2201257020
80,21,5,ISIP_5,120,9999,9999,9999,2201756784
80,21,5,ISIP_5,121,9999,9999,9999,2202256476
80,21,5,ISIP_5,122,9999,9999,9999,2202756164
80,21,5,ISIP_5,123,9999,9999,9999,2203256900
80,21,5,ISIP_5,124,9999,9999,9999,2203756592
80,21,5,ISIP_5,125,9999,9999,9999,2204256356
80,21,5,ISIP_5,126,9999,9999,9999,2204757088
80,21,5,ISIP_5,127,9999,9999,9999,2205256756
80,21,5,ISIP_5,128,9999,9999,9999,2205756504
80,21,5,ISIP_5,129,9999,9999,9999,2206256196
80,21,5,ISIP_5,130,9999,9999,9999,2206756932
80,21,5,ISIP_5,131,9999,9999,9999,2207256624
80,21,5,ISIP_5,132,9999,9999,9999,2207756388
80,21,5,ISIP_5,133,9999,9999,9999,2208256080
80,21,5,ISIP_5,134,9999,9999,9999,2208756816
80,21,5,ISIP_5,135,9999,9999,9999,2209256508
80,21,5,ISIP_5,136,9999,9999,9999,2209756276
80,21,5,ISIP_5,137,9999,9999,9999,2210257012
80,21,5,ISIP_5,138,9999,9999,9999,2210756704
80,21,5,ISIP_5,139,9999,9999,9999,2211256388
80,21,5,ISIP_5,140,9999,9999,9999,2211756152
80,21,5,ISIP_5,141,9999,9999,9999,2212256888
80,21,5,ISIP_5,142,9999,9999,9999,2212756564
80,21,5,ISIP_5,143,9999,9999,9999,2213256256
80,21,5,ISIP_5,144,9999,9999,9999,2213756992
80,21,5,ISIP_5,145,9999,9999,9999,2214256760
80,21,5,ISIP_5,146,9999,9999,9999,2214756448
80,21,5,ISIP_5,147,9999,9999,9999,2215256164
80,21,5,ISIP_5,148,9999,9999,9999,2215756876
80,21,5,ISIP_5,149,9999,9999,9999,2216256564
80,21,5,ISIP_5,150,9999,9999,9999,2216756332
80,21,5,ISIP_5,151,9999,9999,9999,2217257060
80,21,5,ISIP_5,152,9999,9999,9999,2217756752
80,21,5,ISIP_5,153,9999,9999,9999,2218256500
80,21,5,ISIP_5,154,9999,9999,9999,2218756192
80,21,5,ISIP_5,155,9999,9999,9999,2219256932
80,21,5,ISIP_5,156,9999,9999,9999,2219756620
80,21,5,ISIP_5,157,9999,9999,9999,2220256312
80,21,5,ISIP_5,158,9999,9999,9999,2220757048
80,21,5,ISIP_5,159,9999,9999,9999,2221256812
80,22,11,Pattern_Practice,0,1,38,21,2324275512
80,22,11,Pattern_Practice,1,5,42,127,2324777176
80,22,11,Pattern_Practice,2,5,42,127,2325277040
80,22,11,Pattern_Practice,3,5,42,127,2325776684
80,22,11,Pattern_Practice,4,5,42,127,2326276328
80,22,11,Pattern_Practice,5,5,42,127,2326777236
80,22,11,Pattern_Practice,6,1,38,39,2326785224
80,22,11,Pattern_Practice,7,1,48,16,2326799260
80,22,11,Pattern_Practice,8,1,38,38,2327049808
80,22,11,Pattern_Practice,9,1,38,37,2327175920
80,22,11,Pattern_Practice,10,5,42,127,2327276992
80,22,11,Pattern_Practice,11,1,38,44,2327309128
80,22,11,Pattern_Practice,12,1,38,23,2327365432
80,22,11,Pattern_Practice,13,1,48,57,2327577560
80,22,11,Pattern_Practice,14,5,42,127,2327776568
80,22,11,Pattern_Practice,15,1,38,49,2327828304
80,22,11,Pattern_Practice,16,1,38,23,2327892484
80,22,11,Pattern_Practice,17,1,38,31,2328106536
80,22,11,Pattern_Practice,18,5,42,127,2328277416
80,22,11,Pattern_Practice,19,1,38,53,2328373360
80,22,11,Pattern_Practice,20,5,42,127,2328777036
80,22,11,Pattern_Practice,21,1,38,54,2328942116
80,22,11,Pattern_Practice,22,1,38,37,2329159452
80,22,11,Pattern_Practice,23,5,42,127,2329276856
80,22,11,Pattern_Practice,24,1,38,61,2329314756
80,22,11,Pattern_Practice,25,1,38,54,2329442668
80,22,11,Pattern_Practice,26,1,38,28,2329504876
80,22,11,Pattern_Practice,27,1,48,66,2329697928
80,22,11,Pattern_Practice,28,5,42,127,2329776428
80,22,11,Pattern_Practice,29,1,38,51,2329930120
80,22,11,Pattern_Practice,30,1,38,19,2330019332
80,22,11,Pattern_Practice,31,1,48,60,2330210744
80,22,11,Pattern_Practice,32,5,42,127,2330277272
80,22,11,Pattern_Practice,33,1,48,59,2330489984
80,22,11,Pattern_Practice,34,5,42,127,2330777028
80,22,11,Pattern_Practice,35,1,38,67,2331020044
80,22,11,Pattern_Practice,36,1,38,36,2331272720
80,22,11,Pattern_Practice,37,5,42,127,2331276640
80,22,11,Pattern_Practice,38,1,38,44,2331418044
80,22,11,Pattern_Practice,39,1,38,45,2331556572
80,22,11,Pattern_Practice,40,1,38,22,2331622824
80,22,11,Pattern_Practice,41,5,42,127,2331777324
80,22,11,Pattern_Practice,42,1,48,61,2331813428
80,22,11,Pattern_Practice,43,1,38,53,2332086892
80,22,11,Pattern_Practice,44,5,42,127,2332277220
80,22,11,Pattern_Practice,45,1,38,45,2332329704
80,22,11,Pattern_Practice,46,1,38,51,2332585296
80,22,11,Pattern_Practice,47,1,38,31,2332648996
80,22,11,Pattern_Practice,48,5,42,127,2332776796
80,22,11,Pattern_Practice,49,1,48,69,2333090200
80,22,11,Pattern_Practice,50,5,42,127,2333276640
80,22,11,Pattern_Practice,51,1,48,47,2333370416
80,22,11,Pattern_Practice,52,1,48,67,2333494108
80,22,11,Pattern_Practice,53,1,48,55,2333620668
80,22,11,Pattern_Practice,54,5,42,127,2333777188
80,22,11,Pattern_Practice,55,1,48,69,2333851216
80,22,11,Pattern_Practice,56,1,38,57,2334096704
80,22,11,Pattern_Practice,57,1,38,35,2334167144
80,22,11,Pattern_Practice,58,5,42,127,2334276964
80,22,11,Pattern_Practice,59,1,38,68,2334373084
80,22,11,Pattern_Practice,60,1,38,77,2334634280
80,22,11,Pattern_Practice,61,5,42,127,2334776788
80,22,11,Pattern_Practice,62,1,48,68,2335186332
80,22,11,Pattern_Practice,63,5,42,127,2335278128
80,22,11,Pattern_Practice,64,1,48,66,2335477840
80,22,11,Pattern_Practice,65,1,38,60,2335609780
80,22,11,Pattern_Practice,66,5,42,127,2335777052
80,22,11,Pattern_Practice,67,1,38,73,2335781144
80,22,11,Pattern_Practice,68,1,38,61,2336060740
80,22,11,Pattern_Practice,69,1,38,19,2336161944
80,22,11,Pattern_Practice,70,5,42,127,2336276700
80,22,11,Pattern_Practice,71,1,38,47,2336315500
80,22,11,Pattern_Practice,72,1,48,14,2336331668
80,22,11,Pattern_Practice,73,1,38,59,2336566260
80,22,11,Pattern_Practice,74,1,38,31,2336658568
80,22,11,Pattern_Practice,75,1,38,20,2336720176
80,22,11,Pattern_Practice,76,5,42,127,2336776536
80,22,11,Pattern_Practice,77,1,48,77,2336828704
80,22,11,Pattern_Practice,78,5,42,127,2337277184
80,22,11,Pattern_Practice,79,1,38,61,2337385796
80,22,11,Pattern_Practice,80,1,48,16,2337402008
80,22,11,Pattern_Practice,81,1,38,26,2337647540
80,22,11,Pattern_Practice,82,1,38,72,2337768768
80,22,11,Pattern_Practice,83,5,42,127,2337776880
80,22,11,Pattern_Practice,84,1,38,58,2337893556
80,22,11,Pattern_Practice,85,1,38,34,2337959128
80,22,11,Pattern_Practice,86,1,48,67,2338145224
80,22,11,Pattern_Practice,87,5,42,127,2338276740
80,22,11,Pattern_Practice,88,1,48,22,2338420804
80,22,11,Pattern_Practice,89,1,48,76,2338686040
80,22,11,Pattern_Practice,90,5,42,127,2338776280
80,22,11,Pattern_Practice,91,1,38,88,2338938872
80,22,11,Pattern_Practice,92,1,38,34,2339033996
80,22,11,Pattern_Practice,93,1,38,20,2339101516
80,22,11,Pattern_Practice,94,5,42,127,2339277036
80,22,11,Pattern_Practice,95,1,38,79,2339468892
80,22,11,Pattern_Practice,96,1,38,58,2339773024
80,22,11,Pattern_Practice,97,5,42,127,2339776800
80,22,11,Pattern_Practice,98,1,38,67,2339901972
80,22,11,Pattern_Practice,99,1,38,47,2339999064
80,22,11,Pattern_Practice,100,1,38,70,2340229964
80,22,11,Pattern_Practice,101,5,42,127,2340276600
80,22,11,Pattern_Practice,102,1,38,23,2340329440
80,22,11,Pattern_Practice,103,1,48,71,2340454060
80,22,11,Pattern_Practice,104,1,48,59,2340692964
80,22,11,Pattern_Practice,105,5,42,127,2340777296
80,22,11,Pattern_Practice,106,1,48,80,2340962636
80,22,11,Pattern_Practice,107,5,42,127,2341276976
80,22,11,Pattern_Practice,108,1,48,80,2341496660
80,22,11,Pattern_Practice,109,5,42,127,2341776596
80,22,11,Pattern_Practice,110,1,48,37,2341878668
80,22,11,Pattern_Practice,111,1,48,44,2342013536
80,22,11,Pattern_Practice,112,1,48,34,2342127280
80,22,11,Pattern_Practice,113,5,42,127,2342276620
80,22,11,Pattern_Practice,114,1,48,54,2342394776
80,22,11,Pattern_Practice,115,1,38,65,2342700404
80,22,11,Pattern_Practice,116,5,42,127,2342777056
80,22,11,Pattern_Practice,117,1,38,25,2342783748
80,22,11,Pattern_Practice,118,5,42,127,2343276808
80,22,11,Pattern_Practice,119,5,42,127,2343776748
80,22,11,Pattern_Practice,120,1,38,66,2343824972
80,22,11,Pattern_Practice,121,1,38,33,2344080332
80,22,11,Pattern_Practice,122,1,38,49,2344196772
80,22,11,Pattern_Practice,123,5,42,127,2344277312
80,22,11,Pattern_Practice,124,1,38,36,2344325596
80,22,11,Pattern_Practice,125,1,48,61,2344601448
80,22,11,Pattern_Practice,126,5,42,127,2344777268
80,22,11,Pattern_Practice,127,1,48,56,2344847108
80,22,11,Pattern_Practice,128,1,48,64,2345095888
80,22,11,Pattern_Practice,129,1,38,16,2345111656
80,22,11,Pattern_Practice,130,5,42,127,2345276796
80,22,11,Pattern_Practice,131,1,48,54,2345365284
80,22,11,Pattern_Practice,132,1,48,34,2345428468
80,22,11,Pattern_Practice,133,5,42,127,2345776544
80,22,11,Pattern_Practice,134,1,48,76,2345847380
80,22,11,Pattern_Practice,135,1,38,66,2346130116
80,22,11,Pattern_Practice,136,1,48,71,2346265784
80,22,11,Pattern_Practice,137,5,42,127,2346277184
80,22,11,Pattern_Practice,138,1,38,62,2346409112
80,22,11,Pattern_Practice,139,1,38,64,2346665820
80,22,11,Pattern_Practice,140,5,42,127,2346776916
80,22,11,Pattern_Practice,141,1,38,60,2346947832
80,22,11,Pattern_Practice,142,1,38,20,2347052452
80,22,11,Pattern_Practice,143,1,38,48,2347214240
80,22,11,Pattern_Practice,144,5,42,127,2347276804
80,22,11,Pattern_Practice,145,1,38,46,2347406344
80,22,11,Pattern_Practice,146,5,42,127,2347777456
80,22,11,Pattern_Practice,147,1,48,73,2348028776
80,22,11,Pattern_Practice,148,5,42,127,2348277004
80,22,11,Pattern_Practice,149,1,48,43,2348329188
80,22,11,Pattern_Practice,150,1,48,62,2348430616
80,22,11,Pattern_Practice,151,1,48,52,2348560292
80,22,11,Pattern_Practice,152,5,42,127,2348776876
80,22,11,Pattern_Practice,153,1,48,69,2348837216
80,22,11,Pattern_Practice,154,1,38,67,2349088988
80,22,11,Pattern_Practice,155,5,42,127,2349276700
80,22,11,Pattern_Practice,156,1,38,75,2349345268
80,22,11,Pattern_Practice,157,1,38,52,2349630772
80,22,11,Pattern_Practice,158,1,38,16,2349742672
80,22,11,Pattern_Practice,159,5,42,127,2349777112
80,22,11,Pattern_Practice,160,1,38,56,2350150792
80,22,11,Pattern_Practice,161,5,42,127,2350277092
80,22,11,Pattern_Practice,162,1,38,36,2350415840
80,22,11,Pattern_Practice,163,1,38,65,2350543500
80,22,11,Pattern_Practice,164,1,38,58,2350677320
80,22,11,Pattern_Practice,165,5,42,127,2350776592
80,22,11,Pattern_Practice,166,1,48,78,2350945040
80,22,11,Pattern_Practice,167,1,48,52,2351178560
80,22,11,Pattern_Practice,168,5,42,127,2351277464
80,22,11,Pattern_Practice,169,1,48,73,2351416936
80,22,11,Pattern_Practice,170,1,38,70,2351726476
80,22,11,Pattern_Practice,171,5,42,127,2351777224
80,22,11,Pattern_Practice,172,1,38,14,2351867320
80,22,11,Pattern_Practice,173,5,42,127,2352276832
80,22,11,Pattern_Practice,174,1,38,57,2352342704
80,22,11,Pattern_Practice,175,1,38,48,2352679000
80,22,11,Pattern_Practice,176,1,38,43,2352769804
80,22,11,Pattern_Practice,177,5,42,127,2352776572
80,22,11,Pattern_Practice,178,1,38,45,2352915136
80,22,11,Pattern_Practice,179,1,38,71,2353201984
80,22,11,Pattern_Practice,180,5,42,127,2353277368
80,22,11,Pattern_Practice,181,1,48,69,2353442484
80,22,11,Pattern_Practice,182,1,38,68,2353722532
80,22,11,Pattern_Practice,183,5,42,127,2353776892
80,22,11,Pattern_Practice,184,1,38,25,2353850004
80,22,11,Pattern_Practice,185,1,38,55,2353978036
80,22,11,Pattern_Practice,186,5,42,127,2354276700
80,22,11,Pattern_Practice,187,1,38,52,2354528472
80,22,11,Pattern_Practice,188,1,48,15,2354544380
80,22,11,Pattern_Practice,189,5,42,127,2354776568
80,22,11,Pattern_Practice,190,1,38,56,2354849028
80,22,11,Pattern_Practice,191,1,38,48,2354925372
80,22,11,Pattern_Practice,192,1,38,43,2355126132
80,22,11,Pattern_Practice,193,5,42,127,2355277120
80,22,11,Pattern_Practice,194,1,48,83,2355419060
80,22,11,Pattern_Practice,195,1,48,44,2355670312
80,22,11,Pattern_Practice,196,5,42,127,2355776844
80,22,11,Pattern_Practice,197,1,48,72,2355958080
80,22,11,Pattern_Practice,198,1,48,62,2356249868
80,22,11,Pattern_Practice,199,5,42,127,2356276604
80,22,11,Pattern_Practice,200,5,42,127,2356777424
80,22,11,Pattern_Practice,201,1,48,83,2356838612
80,22,11,Pattern_Practice,202,1,38,63,2357131376
80,22,11,Pattern_Practice,203,1,48,81,2357260828
80,22,11,Pattern_Practice,204,5,42,127,2357277016
80,22,11,Pattern_Practice,205,1,38,69,2357415680
80,22,11,Pattern_Practice,206,1,48,69,2357721456
80,22,11,Pattern_Practice,207,5,42,127,2357776840
80,22,11,Pattern_Practice,208,1,48,69,2357993292
80,22,11,Pattern_Practice,209,5,42,127,2358276592
80,22,11,Pattern_Practice,210,1,48,63,2358283080
80,22,11,Pattern_Practice,211,1,48,59,2358553548
80,22,11,Pattern_Practice,212,5,42,127,2358777312
80,22,11,Pattern_Practice,213,1,48,92,2359125600
80,22,11,Pattern_Practice,214,5,42,127,2359276936
80,22,11,Pattern_Practice,215,1,48,83,2359434316
80,22,11,Pattern_Practice,216,1,38,75,2359563168
80,22,11,Pattern_Practice,217,1,38,52,2359721440
80,22,11,Pattern_Practice,218,5,42,127,2359776604
80,22,11,Pattern_Practice,219,1,38,78,2360012648
80,22,11,Pattern_Practice,220,1,48,82,2360265920
80,22,11,Pattern_Practice,221,5,42,127,2360277324
80,22,11,Pattern_Practice,222,1,48,67,2360515536
80,22,11,Pattern_Practice,223,5,42,127,2360777224
80,22,11,Pattern_Practice,224,1,48,78,2360798968
80,22,11,Pattern_Practice,225,5,42,127,2361276772
80,22,11,Pattern_Practice,226,1,48,74,2361364340
80,22,11,Pattern_Practice,227,1,48,66,2361668168
80,22,11,Pattern_Practice,228,5,42,127,2361776448
80,22,11,Pattern_Practice,229,1,48,56,2361779640
80,22,11,Pattern_Practice,230,1,48,71,2361899516
80,22,11,Pattern_Practice,231,1,38,77,2362190284
80,22,11,Pattern_Practice,232,5,42,127,2362277308
80,22,11,Pattern_Practice,233,1,38,73,2362463992
80,22,11,Pattern_Practice,234,1,38,60,2362726832
80,22,11,Pattern_Practice,235,5,42,127,2362776832
80,22,11,Pattern_Practice,236,1,38,84,2362986852
80,22,11,Pattern_Practice,237,5,42,127,2363276736
80,22,11,Pattern_Practice,238,1,48,81,2363512724
80,22,11,Pattern_Practice,239,5,42,127,2363777256
80,22,11,Pattern_Practice,240,1,48,56,2363784188
80,22,11,Pattern_Practice,241,1,48,77,2363884772
80,22,11,Pattern_Practice,242,1,48,59,2364013496
80,22,11,Pattern_Practice,243,5,42,127,2364277204
80,22,11,Pattern_Practice,244,1,48,82,2364279648
80,22,11,Pattern_Practice,245,1,38,70,2364554388
80,22,11,Pattern_Practice,0,9999,9999,9999,2324774964
80,22,11,Pattern_Practice,1,9999,9999,9999,2325274680
80,22,11,Pattern_Practice,2,9999,9999,9999,2325774396
80,22,11,Pattern_Practice,3,9999,9999,9999,2326274116
80,22,11,Pattern_Practice,4,9999,9999,9999,2326774876
80,22,11,Pattern_Practice,5,9999,9999,9999,2327274556
80,22,11,Pattern_Practice,6,9999,9999,9999,2327774284
80,22,11,Pattern_Practice,7,9999,9999,9999,2328275052
80,22,11,Pattern_Practice,8,9999,9999,9999,2328774748
80,22,11,Pattern_Practice,9,9999,9999,9999,2329274420
80,22,11,Pattern_Practice,10,9999,9999,9999,2329774140
80,22,11,Pattern_Practice,11,9999,9999,9999,2330274912
80,22,11,Pattern_Practice,12,9999,9999,9999,2330774592
80,22,11,Pattern_Practice,13,9999,9999,9999,2331274356
80,22,11,Pattern_Practice,14,9999,9999,9999,2331775036
80,22,11,Pattern_Practice,15,9999,9999,9999,2332274784
80,22,11,Pattern_Practice,16,9999,9999,9999,2332774508
80,22,11,Pattern_Practice,17,9999,9999,9999,2333274204
80,22,11,Pattern_Practice,18,9999,9999,9999,2333774904
80,22,11,Pattern_Practice,19,9999,9999,9999,2334274676
80,22,11,Pattern_Practice,20,9999,9999,9999,2334774352
80,22,11,Pattern_Practice,21,9999,9999,9999,2335275108
80,22,11,Pattern_Practice,22,9999,9999,9999,2335774840
80,22,11,Pattern_Practice,23,9999,9999,9999,2336274488
80,22,11,Pattern_Practice,24,9999,9999,9999,2336774248
80,22,11,Pattern_Practice,25,9999,9999,9999,2337274972
80,22,11,Pattern_Practice,26,9999,9999,9999,2337774668
80,22,11,Pattern_Practice,27,9999,9999,9999,2338274380
80,22,11,Pattern_Practice,28,9999,9999,9999,2338774068
80,22,11,Pattern_Practice,29,9999,9999,9999,2339274824
80,22,11,Pattern_Practice,30,9999,9999,9999,2339774512
80,22,11,Pattern_Practice,31,9999,9999,9999,2340274240
80,22,11,Pattern_Practice,32,9999,9999,9999,2340775012
80,22,11,Pattern_Practice,33,9999,9999,9999,2341274688
80,22,11,Pattern_Practice,34,9999,9999,9999,2341774384
80,22,11,Pattern_Practice,35,9999,9999,9999,2342274112
80,22,11,Pattern_Practice,36,9999,9999,9999,2342774844
80,22,11,Pattern_Practice,37,9999,9999,9999,2343274596
80,22,11,Pattern_Practice,38,9999,9999,9999,2343774312
80,22,11,Pattern_Practice,39,9999,9999,9999,2344275028
80,22,11,Pattern_Practice,40,9999,9999,9999,2344774736
80,22,11,Pattern_Practice,41,9999,9999,9999,2345274436
80,22,11,Pattern_Practice,42,9999,9999,9999,2345774184
80,22,11,Pattern_Practice,43,9999,9999,9999,2346274896
80,22,11,Pattern_Practice,44,9999,9999,9999,2346774628
80,22,11,Pattern_Practice,45,9999,9999,9999,2347274296
80,22,11,Pattern_Practice,46,9999,9999,9999,2347775096
80,22,11,Pattern_Practice,47,9999,9999,9999,2348274788
80,22,11,Pattern_Practice,48,9999,9999,9999,2348774516
80,22,11,Pattern_Practice,49,9999,9999,9999,2349274188
80,22,11,Pattern_Practice,50,9999,9999,9999,2349774900
80,22,11,Pattern_Practice,51,9999,9999,9999,2350274656
80,22,11,Pattern_Practice,52,9999,9999,9999,2350774380
80,22,11,Pattern_Practice,53,9999,9999,9999,2351275104
80,22,11,Pattern_Practice,54,9999,9999,9999,2351774792
80,22,11,Pattern_Practice,55,9999,9999,9999,2352274544
80,22,11,Pattern_Practice,56,9999,9999,9999,2352774212
80,22,11,Pattern_Practice,57,9999,9999,9999,2353274932
80,22,11,Pattern_Practice,58,9999,9999,9999,2353774680
80,22,11,Pattern_Practice,59,9999,9999,9999,2354274412
80,22,11,Pattern_Practice,60,9999,9999,9999,2354774136
80,22,11,Pattern_Practice,61,9999,9999,9999,2355274832
80,22,11,Pattern_Practice,62,9999,9999,9999,2355774556
80,22,11,Pattern_Practice,63,9999,9999,9999,2356274244
80,22,11,Pattern_Practice,64,9999,9999,9999,2356774992
80,22,11,Pattern_Practice,65,9999,9999,9999,2357274732
80,22,11,Pattern_Practice,66,9999,9999,9999,2357774404
80,22,11,Pattern_Practice,67,9999,9999,9999,2358274160
80,22,11,Pattern_Practice,68,9999,9999,9999,2358774876
80,22,11,Pattern_Practice,69,9999,9999,9999,2359274576
80,22,11,Pattern_Practice,70,9999,9999,9999,2359774316
80,22,11,Pattern_Practice,71,9999,9999,9999,2360275036
80,22,11,Pattern_Practice,72,9999,9999,9999,2360774716
80,22,11,Pattern_Practice,73,9999,9999,9999,2361274488
80,22,11,Pattern_Practice,74,9999,9999,9999,2361774160
80,22,11,Pattern_Practice,75,9999,9999,9999,2362274872
80,22,11,Pattern_Practice,76,9999,9999,9999,2362774620
80,22,11,Pattern_Practice,77,9999,9999,9999,2363274304
80,22,11,Pattern_Practice,78,9999,9999,9999,2363775044
80,22,11,Pattern_Practice,79,9999,9999,9999,2364274768
80,23,13,Improv_Metronome,0,5,42,127,2397443540
80,23,13,Improv_Metronome,1,5,42,127,2397944080
80,23,13,Improv_Metronome,2,5,42,127,2398443796
80,23,13,Improv_Metronome,3,5,42,127,2398943588
80,23,13,Improv_Metronome,4,1,38,63,2399444128
80,23,13,Improv_Metronome,5,5,42,127,2399446736
80,23,13,Improv_Metronome,6,1,38,51,2399693480
80,23,13,Improv_Metronome,7,1,38,59,2399825652
80,23,13,Improv_Metronome,8,5,42,127,2399944076
80,23,13,Improv_Metronome,9,1,38,57,2399962904
80,23,13,Improv_Metronome,10,1,48,106,2400246536
80,23,13,Improv_Metronome,11,5,42,127,2400443748
80,23,13,Improv_Metronome,12,1,48,66,2400492044
80,23,13,Improv_Metronome,13,1,48,65,2400780544
80,23,13,Improv_Metronome,14,5,42,127,2400943420
80,23,13,Improv_Metronome,15,1,48,73,2401044224
80,23,13,Improv_Metronome,16,5,42,127,2401444164
80,23,13,Improv_Metronome,17,1,48,76,2401506968
80,23,13,Improv_Metronome,18,1,48,52,2401760388
80,23,13,Improv_Metronome,19,1,48,71,2401881412
80,23,13,Improv_Metronome,20,5,42,127,2401943904
80,23,13,Improv_Metronome,21,1,48,53,2401997048
80,23,13,Improv_Metronome,22,1,48,68,2402240140
80,23,13,Improv_Metronome,23,5,42,127,2402443560
80,23,13,Improv_Metronome,24,1,38,75,2402508236
80,23,13,Improv_Metronome,25,1,38,56,2402782748
80,23,13,Improv_Metronome,26,5,42,127,2402944580
80,23,13,Improv_Metronome,27,1,38,62,2403031100
80,23,13,Improv_Metronome,28,5,42,127,2403443976
80,23,13,Improv_Metronome,29,1,38,61,2403517928
80,23,13,Improv_Metronome,30,1,38,45,2403820408
80,23,13,Improv_Metronome,31,1,38,60,2403936576
80,23,13,Improv_Metronome,32,5,42,127,2403943792
80,23,13,Improv_Metronome,33,1,38,43,2404043756
80,23,13,Improv_Metronome,34,1,38,65,2404292312
80,23,13,Improv_Metronome,35,5,42,127,2404443452
80,23,13,Improv_Metronome,36,1,48,80,2404542456
80,23,13,Improv_Metronome,37,1,38,65,2404803736
80,23,13,Improv_Metronome,38,5,42,127,2404944468
80,23,13,Improv_Metronome,39,1,38,62,2405037420
80,23,13,Improv_Metronome,40,1,48,14,2405053708
80,23,13,Improv_Metronome,41,5,42,127,2405443868
80,23,13,Improv_Metronome,42,1,38,75,2405524580
80,23,13,Improv_Metronome,43,1,48,15,2405540040
80,23,13,Improv_Metronome,44,1,38,54,2405790432
80,23,13,Improv_Metronome,45,1,38,70,2405914956
80,23,13,Improv_Metronome,46,5,42,127,2405943636
80,23,13,Improv_Metronome,47,1,38,61,2406033608
80,23,13,Improv_Metronome,48,1,48,71,2406314548
80,23,13,Improv_Metronome,49,5,42,127,2406444492
80,23,13,Improv_Metronome,50,1,38,65,2406562824
80,23,13,Improv_Metronome,51,1,38,76,2406804796
80,23,13,Improv_Metronome,52,5,42,127,2406944312
80,23,13,Improv_Metronome,53,1,38,69,2407095780
80,23,13,Improv_Metronome,54,5,42,127,2407443784
80,23,13,Improv_Metronome,55,1,48,86,2407591656
80,23,13,Improv_Metronome,56,1,48,66,2407839316
80,23,13,Improv_Metronome,57,5,42,127,2407943532
80,23,13,Improv_Metronome,58,1,38,62,2408101876
80,23,13,Improv_Metronome,59,1,48,73,2408356788
80,23,13,Improv_Metronome,60,5,42,127,2408444264
80,23,13,Improv_Metronome,61,1,48,60,2408879748
80,23,13,Improv_Metronome,62,5,42,127,2408944036
80,23,13,Improv_Metronome,63,1,38,55,2409150384
80,23,13,Improv_Metronome,64,5,42,127,2409443640
80,23,13,Improv_Metronome,65,1,38,81,2409627192
80,23,13,Improv_Metronome,66,1,38,39,2409901924
80,23,13,Improv_Metronome,67,5,42,127,2409944448
80,23,13,Improv_Metronome,68,1,38,45,2410003804
80,23,13,Improv_Metronome,69,1,38,39,2410153772
80,23,13,Improv_Metronome,70,1,48,81,2410434120
80,23,13,Improv_Metronome,71,5,42,127,2410444248
80,23,13,Improv_Metronome,72,1,48,55,2410677228
80,23,13,Improv_Metronome,73,5,42,127,2410943932
80,23,13,Improv_Metronome,74,1,48,61,2410945044
80,23,13,Improv_Metronome,75,1,48,55,2411206596
80,23,13,Improv_Metronome,76,5,42,127,2411443528
80,23,13,Improv_Metronome,77,5,42,127,2411944292
80,23,13,Improv_Metronome,78,1,48,71,2411961320
80,23,13,Improv_Metronome,79,5,42,127,2412444212
80,23,13,Improv_Metronome,80,1,48,77,2412459148
80,23,13,Improv_Metronome,81,5,42,127,2412943680
80,23,13,Improv_Metronome,82,1,48,55,2412973356
80,23,13,Improv_Metronome,83,5,42,127,2413443380
80,23,13,Improv_Metronome,84,1,48,74,2413447544
80,23,13,Improv_Metronome,85,5,42,127,2413944192
80,23,13,Improv_Metronome,86,1,38,81,2413984040
80,23,13,Improv_Metronome,87,5,42,127,2414443888
80,23,13,Improv_Metronome,88,1,38,82,2414466972
80,23,13,Improv_Metronome,89,1,48,67,2414938232
80,23,13,Improv_Metronome,90,5,42,127,2414943576
80,23,13,Improv_Metronome,91,1,38,65,2415205952
80,23,13,Improv_Metronome,92,5,42,127,2415444452
80,23,13,Improv_Metronome,93,1,48,71,2415465296
80,23,13,Improv_Metronome,94,5,42,127,2415944144
80,23,13,Improv_Metronome,95,1,48,72,2415964248
80,23,13,Improv_Metronome,96,5,42,127,2416443888
80,23,13,Improv_Metronome,97,1,38,71,2416495276
80,23,13,Improv_Metronome,98,1,48,15,2416510888
80,23,13,Improv_Metronome,99,5,42,127,2416943388
80,23,13,Improv_Metronome,100,1,38,77,2416963636
80,23,13,Improv_Metronome,101,1,38,45,2417182872
80,23,13,Improv_Metronome,102,5,42,127,2417444256
80,23,13,Improv_Metronome,103,1,48,74,2417455076
80,23,13,Improv_Metronome,104,5,42,127,2417944100
80,23,13,Improv_Metronome,105,1,48,73,2417961728
80,23,13,Improv_Metronome,106,1,48,72,2418271044
80,23,13,Improv_Metronome,107,1,38,72,2418400048
80,23,13,Improv_Metronome,108,5,42,127,2418443616
80,23,13,Improv_Metronome,109,1,38,51,2418591852
80,23,13,Improv_Metronome,110,1,38,51,2418876684
80,23,13,Improv_Metronome,111,5,42,127,2418944488
80,23,13,Improv_Metronome,112,1,38,57,2419157644
80,23,13,Improv_Metronome,113,1,38,40,2419408296
80,23,13,Improv_Metronome,114,5,42,127,2419444084
80,23,13,Improv_Metronome,115,1,38,51,2419636076
80,23,13,Improv_Metronome,116,5,42,127,2419943912
80,23,13,Improv_Metronome,117,1,48,89,2420145868
80,23,13,Improv_Metronome,118,5,42,127,2420443460
80,23,13,Improv_Metronome,119,1,48,59,2420634796
80,23,13,Improv_Metronome,120,5,42,127,2420944276
80,23,13,Improv_Metronome,121,1,48,40,2421221552
80,23,13,Improv_Metronome,122,5,42,127,2421444044
80,23,13,Improv_Metronome,123,1,48,60,2421796568
80,23,13,Improv_Metronome,124,5,42,127,2421943588
80,23,13,Improv_Metronome,125,1,38,61,2422399208
80,23,13,Improv_Metronome,126,5,42,127,2422444348
80,23,13,Improv_Metronome,127,1,38,70,2422726320
80,23,13,Improv_Metronome,128,1,38,70,2422826304
80,23,13,Improv_Metronome,129,5,42,127,2422944080
80,23,13,Improv_Metronome,130,1,38,74,2422979508
80,23,13,Improv_Metronome,131,1,38,81,2423233828
80,23,13,Improv_Metronome,132,5,42,127,2423443752
80,23,13,Improv_Metronome,133,1,48,74,2423479856
80,23,13,Improv_Metronome,134,1,38,73,2423755488
80,23,13,Improv_Metronome,135,5,42,127,2423943576
80,23,13,Improv_Metronome,136,1,38,79,2423999576
80,23,13,Improv_Metronome,137,5,42,127,2424444168
80,23,13,Improv_Metronome,138,1,38,82,2424555144
80,23,13,Improv_Metronome,139,1,38,65,2424848952
80,23,13,Improv_Metronome,140,5,42,127,2424944004
80,23,13,Improv_Metronome,141,1,38,68,2424980544
80,23,13,Improv_Metronome,142,1,48,64,2425164696
80,23,13,Improv_Metronome,143,1,48,61,2425421404
80,23,13,Improv_Metronome,144,5,42,127,2425443584
80,23,13,Improv_Metronome,145,1,48,72,2425702364
80,23,13,Improv_Metronome,146,5,42,127,2425944532
80,23,13,Improv_Metronome,147,1,48,71,2425963208
80,23,13,Improv_Metronome,148,1,48,78,2426226728
80,23,13,Improv_Metronome,149,5,42,127,2426444208
80,23,13,Improv_Metronome,150,1,48,73,2426759104
80,23,13,Improv_Metronome,151,5,42,127,2426944024
80,23,13,Improv_Metronome,152,1,48,64,2427068040
80,23,13,Improv_Metronome,153,1,48,67,2427165032
80,23,13,Improv_Metronome,154,1,48,64,2427299520
80,23,13,Improv_Metronome,155,5,42,127,2427443528
80,23,13,Improv_Metronome,156,1,48,58,2427567692
80,23,13,Improv_Metronome,157,1,48,68,2427812356
80,23,13,Improv_Metronome,158,5,42,127,2427944396
80,23,13,Improv_Metronome,159,1,48,50,2428043284
80,23,13,Improv_Metronome,160,1,48,70,2428324744
80,23,13,Improv_Metronome,161,5,42,127,2428443920
80,23,13,Improv_Metronome,162,1,38,70,2428923100
80,23,13,Improv_Metronome,163,5,42,127,2428943852
80,23,13,Improv_Metronome,164,1,38,43,2429190144
80,23,13,Improv_Metronome,165,1,38,63,2429305784
80,23,13,Improv_Metronome,166,1,38,52,2429423568
80,23,13,Improv_Metronome,167,5,42,127,2429443428
80,23,13,Improv_Metronome,168,1,38,62,2429682848
80,23,13,Improv_Metronome,169,5,42,127,2429944080
80,23,13,Improv_Metronome,170,1,38,51,2429959464
80,23,13,Improv_Metronome,171,1,38,66,2430225372
80,23,13,Improv_Metronome,172,5,42,127,2430443756
80,23,13,Improv_Metronome,173,1,38,53,2430476940
80,23,13,Improv_Metronome,174,5,42,127,2430943448
80,23,13,Improv_Metronome,175,1,48,77,2430950828
80,23,13,Improv_Metronome,176,1,48,72,2431266252
80,23,13,Improv_Metronome,177,1,48,60,2431373592
80,23,13,Improv_Metronome,178,5,42,127,2431444236
80,23,13,Improv_Metronome,179,1,48,67,2431519816
80,23,13,Improv_Metronome,180,1,48,67,2431800612
80,23,13,Improv_Metronome,181,5,42,127,2431944040
80,23,13,Improv_Metronome,182,1,48,72,2432078080
80,23,13,Improv_Metronome,183,1,48,54,2432342716
80,23,13,Improv_Metronome,184,5,42,127,2432444008
80,23,13,Improv_Metronome,185,1,48,70,2432584332
80,23,13,Improv_Metronome,186,5,42,127,2432943408
80,23,13,Improv_Metronome,187,1,38,65,2433108856
80,23,13,Improv_Metronome,188,1,38,37,2433396684
80,23,13,Improv_Metronome,189,5,42,127,2433444216
80,23,13,Improv_Metronome,190,1,38,48,2433502672
80,23,13,Improv_Metronome,191,1,38,48,2433648900
80,23,13,Improv_Metronome,192,1,38,60,2433907780
80,23,13,Improv_Metronome,193,5,42,127,2433943868
80,23,13,Improv_Metronome,194,1,38,63,2434171088
80,23,13,Improv_Metronome,195,1,48,74,2434414936
80,23,13,Improv_Metronome,196,5,42,127,2434443836
80,23,13,Improv_Metronome,197,1,38,67,2434744960
80,23,13,Improv_Metronome,198,5,42,127,2434944268
80,23,13,Improv_Metronome,199,1,38,70,2435258792
80,23,13,Improv_Metronome,200,5,42,127,2435444112
80,23,13,Improv_Metronome,201,1,38,51,2435548876
80,23,13,Improv_Metronome,202,1,48,60,2435737520
80,23,13,Improv_Metronome,203,5,42,127,2435943932
80,23,13,Improv_Metronome,204,1,38,60,2436038376
80,23,13,Improv_Metronome,205,5,42,127,2436443776
80,23,13,Improv_Metronome,206,1,38,56,2436604792
80,23,13,Improv_Metronome,207,1,48,66,2436890148
80,23,13,Improv_Metronome,208,5,42,127,2436944212
80,23,13,Improv_Metronome,209,5,42,127,2437444064
80,23,13,Improv_Metronome,210,1,48,73,2437479116
80,23,13,Improv_Metronome,211,1,38,50,2437776520
80,23,13,Improv_Metronome,212,1,48,67,2437917564
80,23,13,Improv_Metronome,213,5,42,127,2437943856
80,23,13,Improv_Metronome,214,1,38,41,2438237448
80,23,13,Improv_Metronome,215,5,42,127,2438444580
80,23,13,Improv_Metronome,216,1,48,66,2438878808
80,23,13,Improv_Metronome,217,5,42,127,2438944068
80,23,13,Improv_Metronome,218,1,38,39,2439159996
80,23,13,Improv_Metronome,219,5,42,127,2439443824
80,23,13,Improv_Metronome,220,1,48,68,2439703896
80,23,13,Improv_Metronome,221,5,42,127,2439943816
80,23,13,Improv_Metronome,222,1,48,49,2440045168
80,23,13,Improv_Metronome,223,1,48,44,2440190328
80,23,13,Improv_Metronome,224,5,42,127,2440444384
80,23,13,Improv_Metronome,225,1,48,49,2440522400
80,23,13,Improv_Metronome,226,1,48,35,2440777240
80,23,13,Improv_Metronome,227,5,42,127,2440943984
80,23,13,Improv_Metronome,228,1,48,39,2441079968
80,23,13,Improv_Metronome,229,1,48,35,2441351784
80,23,13,Improv_Metronome,230,5,42,127,2441443820
80,23,13,Improv_Metronome,231,5,42,127,2441944420
80,23,13,Improv_Metronome,232,1,48,62,2441969156
80,23,13,Improv_Metronome,233,5,42,127,2442444264
80,23,13,Improv_Metronome,234,1,48,70,2442484108
80,23,13,Improv_Metronome,235,5,42,127,2442943808
80,23,13,Improv_Metronome,236,1,48,67,2443015668
80,23,13,Improv_Metronome,237,5,42,127,2443443724
80,23,13,Improv_Metronome,238,1,48,65,2443496060
80,23,13,Improv_Metronome,239,5,42,127,2443944168
80,23,13,Improv_Metronome,240,1,38,61,2444013860
80,23,13,Improv_Metronome,241,5,42,127,2444443936
80,23,13,Improv_Metronome,242,1,38,70,2444513776
80,23,13,Improv_Metronome,243,5,42,127,2444943780
80,23,13,Improv_Metronome,244,1,38,62,2445005612
80,23,13,Improv_Metronome,245,5,42,127,2445443772
80,23,13,Improv_Metronome,246,1,38,59,2445508076
80,23,13,Improv_Metronome,247,5,42,127,2445944144
80,23,13,Improv_Metronome,248,1,38,56,2446027664
80,23,13,Improv_Metronome,249,1,48,64,2446278392
80,23,13,Improv_Metronome,250,1,38,15,2446294160
80,23,13,Improv_Metronome,251,5,42,127,2446443844
80,23,13,Improv_Metronome,252,1,38,44,2446541652
80,23,13,Improv_Metronome,253,1,48,67,2446802476
80,23,13,Improv_Metronome,254,5,42,127,2446943592
80,23,13,Improv_Metronome,255,1,48,61,2447316384
80,23,13,Improv_Metronome,256,5,42,127,2447444404
80,23,13,Improv_Metronome,257,1,38,60,2447593756
80,23,13,Improv_Metronome,258,5,42,127,2447943952
80,23,13,Improv_Metronome,259,1,38,69,2448067120
80,23,13,Improv_Metronome,260,1,48,15,2448083256
80,23,13,Improv_Metronome,261,1,38,42,2448342776
80,23,13,Improv_Metronome,262,5,42,127,2448443700
80,23,13,Improv_Metronome,263,1,38,43,2448449060
80,23,13,Improv_Metronome,264,1,38,41,2448574348
80,23,13,Improv_Metronome,265,1,38,44,2448847140
80,23,13,Improv_Metronome,266,5,42,127,2448943576
80,23,13,Improv_Metronome,267,1,48,90,2449113964
80,23,13,Improv_Metronome,268,1,38,49,2449381068
80,23,13,Improv_Metronome,269,5,42,127,2449444088
80,23,13,Improv_Metronome,270,1,48,80,2449646924
80,23,13,Improv_Metronome,271,5,42,127,2449943840
80,23,13,Improv_Metronome,272,1,48,68,2450171976
80,23,13,Improv_Metronome,273,5,42,127,2450443684
80,23,13,Improv_Metronome,274,1,48,45,2450489512
80,23,13,Improv_Metronome,275,1,48,51,2450615244
80,23,13,Improv_Metronome,276,1,48,58,2450712612
80,23,13,Improv_Metronome,277,1,48,51,2450912924
80,23,13,Improv_Metronome,278,5,42,127,2450944448
80,23,13,Improv_Metronome,279,1,48,63,2451184160
80,23,13,Improv_Metronome,280,5,42,127,2451444052
80,23,13,Improv_Metronome,281,1,48,61,2451676748
80,23,13,Improv_Metronome,282,5,42,127,2451943824
80,23,13,Improv_Metronome,283,1,48,65,2452255428
80,23,13,Improv_Metronome,284,5,42,127,2452443516
80,23,13,Improv_Metronome,285,1,48,59,2452890156
80,23,13,Improv_Metronome,286,5,42,127,2452944420
80,23,13,Improv_Metronome,287,5,42,127,2453443828
80,23,13,Improv_Metronome,288,1,48,59,2453450760
80,23,13,Improv_Metronome,289,5,42,127,2453943596
80,23,13,Improv_Metronome,290,1,48,49,2453958084
80,23,13,Improv_Metronome,291,5,42,127,2454444412
80,23,13,Improv_Metronome,292,1,48,70,2454489120
80,23,13,Improv_Metronome,293,1,48,51,2454698404
80,23,13,Improv_Metronome,294,5,42,127,2454944160
80,23,13,Improv_Metronome,295,1,48,67,2454960892
80,23,13,Improv_Metronome,296,1,48,39,2455197784
80,23,13,Improv_Metronome,297,5,42,127,2455443836
80,23,13,Improv_Metronome,298,1,48,60,2455508360
80,23,13,Improv_Metronome,299,1,48,43,2455760284
80,23,13,Improv_Metronome,300,5,42,127,2455943432
80,23,13,Improv_Metronome,301,1,48,75,2456010572
80,23,13,Improv_Metronome,302,5,42,127,2456444396
80,23,13,Improv_Metronome,303,1,38,61,2456535180
80,23,13,Improv_Metronome,304,1,38,53,2456731524
80,23,13,Improv_Metronome,305,5,42,127,2456943920
80,23,13,Improv_Metronome,306,1,38,63,2457025500
80,23,13,Improv_Metronome,307,1,38,53,2457300236
80,23,13,Improv_Metronome,308,5,42,127,2457443672
80,23,13,Improv_Metronome,309,1,38,67,2457553152
80,23,13,Improv_Metronome,310,1,38,55,2457823624
80,23,13,Improv_Metronome,311,5,42,127,2457944464
80,23,13,Improv_Metronome,312,1,38,60,2458059700
80,23,13,Improv_Metronome,313,5,42,127,2458444532
80,23,13,Improv_Metronome,314,1,38,62,2458580344
80,23,13,Improv_Metronome,315,5,42,127,2458943980
80,23,13,Improv_Metronome,316,1,48,73,2459094920
80,23,13,Improv_Metronome,317,5,42,127,2459443528
80,23,13,Improv_Metronome,318,1,38,62,2459611524
80,23,13,Improv_Metronome,319,5,42,127,2459944416
80,23,13,Improv_Metronome,320,1,48,69,2460128044
80,23,13,Improv_Metronome,321,5,42,127,2460444332
80,23,13,Improv_Metronome,322,1,38,56,2460694088
80,23,13,Improv_Metronome,323,1,48,15,2460710076
80,23,13,Improv_Metronome,324,5,42,127,2460943684
80,23,13,Improv_Metronome,325,1,48,65,2461164412
80,23,13,Improv_Metronome,326,5,42,127,2461443380
80,23,13,Improv_Metronome,327,1,48,73,2461704352
80,23,13,Improv_Metronome,328,5,42,127,2461944344
80,23,13,Improv_Metronome,329,1,48,68,2461965416
80,23,13,Improv_Metronome,330,1,48,73,2462240896
80,23,13,Improv_Metronome,331,5,42,127,2462443792
80,23,13,Improv_Metronome,332,1,48,78,2462741564
80,23,13,Improv_Metronome,333,5,42,127,2462943636
80,23,13,Improv_Metronome,334,1,48,70,2463049548
80,23,13,Improv_Metronome,335,1,48,39,2463203236
80,23,13,Improv_Metronome,336,5,42,127,2463444280
80,23,13,Improv_Metronome,337,1,38,51,2463578172
80,23,13,Improv_Metronome,338,5,42,127,2463944196
80,23,13,Improv_Metronome,339,1,38,62,2464150116
80,23,13,Improv_Metronome,340,1,38,65,2464434208
80,23,13,Improv_Metronome,341,5,42,127,2464443664
80,23,13,Improv_Metronome,342,5,42,127,2464943440
80,23,13,Improv_Metronome,343,1,38,66,2464944404
80,23,13,Improv_Metronome,344,1,38,60,2465272904
80,23,13,Improv_Metronome,345,1,38,59,2465403652
80,23,13,Improv_Metronome,346,5,42,127,2465444524
80,23,13,Improv_Metronome,347,1,38,62,2465698900
80,23,13,Improv_Metronome,348,5,42,127,2465944280
80,23,13,Improv_Metronome,349,1,38,51,2466235168
80,23,13,Improv_Metronome,350,5,42,127,2466443752
80,23,13,Improv_Metronome,351,1,38,86,2466507832
80,23,13,Improv_Metronome,352,5,42,127,2466944348
80,23,13,Improv_Metronome,353,1,48,57,2467029812
80,23,13,Improv_Metronome,0,9999,9999,9999,2397441100
80,23,13,Improv_Metronome,1,9999,9999,9999,2397941864
80,23,13,Improv_Metronome,2,9999,9999,9999,2398441580
80,23,13,Improv_Metronome,3,9999,9999,9999,2398941300
80,23,13,Improv_Metronome,4,9999,9999,9999,2399441988
80,23,13,Improv_Metronome,5,9999,9999,9999,2399941712
80,23,13,Improv_Metronome,6,9999,9999,9999,2400441460
80,23,13,Improv_Metronome,7,9999,9999,9999,2400941132
80,23,13,Improv_Metronome,8,9999,9999,9999,2401441872
80,23,13,Improv_Metronome,9,9999,9999,9999,2401941616
80,23,13,Improv_Metronome,10,9999,9999,9999,2402441272
80,23,13,Improv_Metronome,11,9999,9999,9999,2402942068
80,23,13,Improv_Metronome,12,9999,9999,9999,2403441764
80,23,13,Improv_Metronome,13,9999,9999,9999,2403941428
80,23,13,Improv_Metronome,14,9999,9999,9999,2404441160
80,23,13,Improv_Metronome,15,9999,9999,9999,2404941884
80,23,13,Improv_Metronome,16,9999,9999,9999,2405441656
80,23,13,Improv_Metronome,17,9999,9999,9999,2405941348
80,23,13,Improv_Metronome,18,9999,9999,9999,2406442052
80,23,13,Improv_Metronome,19,9999,9999,9999,2406941800
80,23,13,Improv_Metronome,20,9999,9999,9999,2407441496
80,23,13,Improv_Metronome,21,9999,9999,9999,2407941168
80,23,13,Improv_Metronome,22,9999,9999,9999,2408441976
80,23,13,Improv_Metronome,23,9999,9999,9999,2408941672
80,23,13,Improv_Metronome,24,9999,9999,9999,2409441352
80,23,13,Improv_Metronome,25,9999,9999,9999,2409942088
80,23,13,Improv_Metronome,26,9999,9999,9999,2410441812
80,23,13,Improv_Metronome,27,9999,9999,9999,2410941492
80,23,13,Improv_Metronome,28,9999,9999,9999,2411441240
80,23,13,Improv_Metronome,29,9999,9999,9999,2411942004
80,23,13,Improv_Metronome,30,9999,9999,9999,2412441696
80,23,13,Improv_Metronome,31,9999,9999,9999,2412941392
80,23,13,Improv_Metronome,32,9999,9999,9999,2413441088
80,23,13,Improv_Metronome,33,9999,9999,9999,2413941828
80,23,13,Improv_Metronome,34,9999,9999,9999,2414441524
80,23,13,Improv_Metronome,35,9999,9999,9999,2414941288
80,23,13,Improv_Metronome,36,9999,9999,9999,2415442012
80,23,13,Improv_Metronome,37,9999,9999,9999,2415941708
80,23,13,Improv_Metronome,38,9999,9999,9999,2416441452
80,23,13,Improv_Metronome,39,9999,9999,9999,2416941172
80,23,13,Improv_Metronome,40,9999,9999,9999,2417441892
80,23,13,Improv_Metronome,41,9999,9999,9999,2417941588
80,23,13,Improv_Metronome,42,9999,9999,9999,2418441328
80,23,13,Improv_Metronome,43,9999,9999,9999,2418942048
80,23,13,Improv_Metronome,44,9999,9999,9999,2419441720
80,23,13,Improv_Metronome,45,9999,9999,9999,2419941476
80,23,13,Improv_Metronome,46,9999,9999,9999,2420441172
80,23,13,Improv_Metronome,47,9999,9999,9999,2420941912
80,23,13,Improv_Metronome,48,9999,9999,9999,2421441608
80,23,13,Improv_Metronome,49,9999,9999,9999,2421941300
80,23,13,Improv_Metronome,50,9999,9999,9999,2422442060
80,23,13,Improv_Metronome,51,9999,9999,9999,2422941792
80,23,13,Improv_Metronome,52,9999,9999,9999,2423441464
80,23,13,Improv_Metronome,53,9999,9999,9999,2423941212
80,23,13,Improv_Metronome,54,9999,9999,9999,2424441952
80,23,13,Improv_Metronome,55,9999,9999,9999,2424941640
80,23,13,Improv_Metronome,56,9999,9999,9999,2425441368
80,23,13,Improv_Metronome,57,9999,9999,9999,2425942096
80,23,13,Improv_Metronome,58,9999,9999,9999,2426441844
80,23,13,Improv_Metronome,59,9999,9999,9999,2426941512
80,23,13,Improv_Metronome,60,9999,9999,9999,2427441236
80,23,13,Improv_Metronome,61,9999,9999,9999,2427941956
80,23,13,Improv_Metronome,62,9999,9999,9999,2428441704
80,23,13,Improv_Metronome,63,9999,9999,9999,2428941416
80,23,13,Improv_Metronome,64,9999,9999,9999,2429441140
80,23,13,Improv_Metronome,65,9999,9999,9999,2429941868
80,23,13,Improv_Metronome,66,9999,9999,9999,2430441540
80,23,13,Improv_Metronome,67,9999,9999,9999,2430941232
80,23,13,Improv_Metronome,68,9999,9999,9999,2431442020
80,23,13,Improv_Metronome,69,9999,9999,9999,2431941752
80,23,13,Improv_Metronome,70,9999,9999,9999,2432441396
80,23,13,Improv_Metronome,71,9999,9999,9999,2432941120
80,23,13,Improv_Metronome,72,9999,9999,9999,2433441852
80,23,13,Improv_Metronome,73,9999,9999,9999,2433941576
80,23,13,Improv_Metronome,74,9999,9999,9999,2434441328
80,23,13,Improv_Metronome,75,9999,9999,9999,2434942052
80,23,13,Improv_Metronome,76,9999,9999,9999,2435441748
80,23,13,Improv_Metronome,77,9999,9999,9999,2435941496
80,23,13,Improv_Metronome,78,9999,9999,9999,2436441188
80,23,13,Improv_Metronome,79,9999,9999,9999,2436941924
80,23,13,Improv_Metronome,80,9999,9999,9999,2437441600
80,23,13,Improv_Metronome,81,9999,9999,9999,2437941344
80,23,13,Improv_Metronome,82,9999,9999,9999,2438442068
80,23,13,Improv_Metronome,83,9999,9999,9999,2438941780
80,23,13,Improv_Metronome,84,9999,9999,9999,2439441460
80,23,13,Improv_Metronome,85,9999,9999,9999,2439941228
80,23,13,Improv_Metronome,86,9999,9999,9999,2440441948
80,23,13,Improv_Metronome,87,9999,9999,9999,2440941620
80,23,13,Improv_Metronome,88,9999,9999,9999,2441441384
80,23,13,Improv_Metronome,89,9999,9999,9999,2441942136
80,23,13,Improv_Metronome,90,9999,9999,9999,2442441828
80,23,13,Improv_Metronome,91,9999,9999,9999,2442941520
80,23,13,Improv_Metronome,92,9999,9999,9999,2443441212
80,23,13,Improv_Metronome,93,9999,9999,9999,2443941956
80,23,13,Improv_Metronome,94,9999,9999,9999,2444441648
80,23,13,Improv_Metronome,95,9999,9999,9999,2444941416
80,23,13,Improv_Metronome,96,9999,9999,9999,2445441112
80,23,13,Improv_Metronome,97,9999,9999,9999,2445941856
80,23,13,Improv_Metronome,98,9999,9999,9999,2446441556
80,23,13,Improv_Metronome,99,9999,9999,9999,2446941304
80,23,13,Improv_Metronome,100,9999,9999,9999,2447441968
80,23,13,Improv_Metronome,101,9999,9999,9999,2447941736
80,23,13,Improv_Metronome,102,9999,9999,9999,2448441412
80,23,13,Improv_Metronome,103,9999,9999,9999,2448941136
80,23,13,Improv_Metronome,104,9999,9999,9999,2449441872
80,23,13,Improv_Metronome,105,9999,9999,9999,2449941624
80,23,13,Improv_Metronome,106,9999,9999,9999,2450441320
80,23,13,Improv_Metronome,107,9999,9999,9999,2450942008
80,23,13,Improv_Metronome,108,9999,9999,9999,2451441764
80,23,13,Improv_Metronome,109,9999,9999,9999,2451941456
80,23,13,Improv_Metronome,110,9999,9999,9999,2452441152
80,23,13,Improv_Metronome,111,9999,9999,9999,2452941908
80,23,13,Improv_Metronome,112,9999,9999,9999,2453441612
80,23,13,Improv_Metronome,113,9999,9999,9999,2453941308
80,23,13,Improv_Metronome,114,9999,9999,9999,2454442048
80,23,13,Improv_Metronome,115,9999,9999,9999,2454941796
80,23,13,Improv_Metronome,116,9999,9999,9999,2455441472
80,23,13,Improv_Metronome,117,9999,9999,9999,2455941220
80,23,13,Improv_Metronome,118,9999,9999,9999,2456441960
80,23,13,Improv_Metronome,119,9999,9999,9999,2456941632
80,23,13,Improv_Metronome,120,9999,9999,9999,2457441384
80,23,13,Improv_Metronome,121,9999,9999,9999,2457942104
80,23,13,Improv_Metronome,122,9999,9999,9999,2458441796
80,23,13,Improv_Metronome,123,9999,9999,9999,2458941540
80,23,13,Improv_Metronome,124,9999,9999,9999,2459441236
80,23,13,Improv_Metronome,125,9999,9999,9999,2459941980
80,23,13,Improv_Metronome,126,9999,9999,9999,2460441672
80,23,13,Improv_Metronome,127,9999,9999,9999,2460941396
80,23,13,Improv_Metronome,128,9999,9999,9999,2461441088
80,23,13,Improv_Metronome,129,9999,9999,9999,2461941832
80,23,13,Improv_Metronome,130,9999,9999,9999,2462441576
80,23,13,Improv_Metronome,131,9999,9999,9999,2462941272
80,23,13,Improv_Metronome,132,9999,9999,9999,2463441988
80,23,13,Improv_Metronome,133,9999,9999,9999,2463941684
80,23,13,Improv_Metronome,134,9999,9999,9999,2464441448
80,23,13,Improv_Metronome,135,9999,9999,9999,2464941152
80,23,13,Improv_Metronome,136,9999,9999,9999,2465441864
80,23,13,Improv_Metronome,137,9999,9999,9999,2465941620
80,23,13,Improv_Metronome,138,9999,9999,9999,2466441312
80,23,13,Improv_Metronome,139,9999,9999,9999,2466942056
80,24,14,Improv_Melody,0,2,48,80,2518797792
80,24,14,Improv_Melody,1,2,72,80,2518799876
80,24,14,Improv_Melody,2,5,42,127,2518802408
80,24,14,Improv_Melody,3,5,42,110,2519296228
80,24,14,Improv_Melody,4,5,42,110,2519796172
80,24,14,Improv_Melody,5,5,42,110,2520295968
80,24,14,Improv_Melody,6,5,42,127,2520795392
80,24,14,Improv_Melody,7,5,42,110,2521296160
80,24,14,Improv_Melody,8,5,42,110,2521796180
80,24,14,Improv_Melody,9,5,42,110,2522295528
80,24,14,Improv_Melody,10,2,43,80,2522799024
80,24,14,Improv_Melody,11,2,67,80,2522801100
80,24,14,Improv_Melody,12,5,42,127,2522803564
80,24,14,Improv_Melody,13,5,42,110,2523296108
80,24,14,Improv_Melody,14,5,42,110,2523796052
80,24,14,Improv_Melody,15,5,42,110,2524295476
80,24,14,Improv_Melody,16,5,42,127,2524796168
80,24,14,Improv_Melody,17,5,42,110,2525296112
80,24,14,Improv_Melody,18,5,42,110,2525795908
80,24,14,Improv_Melody,19,5,42,110,2526296380
80,24,14,Improv_Melody,20,2,45,80,2526798756
80,24,14,Improv_Melody,21,2,69,80,2526800828
80,24,14,Improv_Melody,22,5,42,127,2526803224
80,24,14,Improv_Melody,23,5,42,110,2527295912
80,24,14,Improv_Melody,24,5,42,110,2527795760
80,24,14,Improv_Melody,25,5,42,110,2528296228
80,24,14,Improv_Melody,26,5,42,127,2528795952
80,24,14,Improv_Melody,27,5,42,110,2529295896
80,24,14,Improv_Melody,28,5,42,110,2529795396
80,24,14,Improv_Melody,29,5,42,110,2530296236
80,24,14,Improv_Melody,30,2,41,80,2530798464
80,24,14,Improv_Melody,31,2,65,80,2530800536
80,24,14,Improv_Melody,32,5,42,127,2530803080
80,24,14,Improv_Melody,33,5,42,110,2531295844
80,24,14,Improv_Melody,34,5,42,110,2531796316
80,24,14,Improv_Melody,35,5,42,110,2532296112
80,24,14,Improv_Melody,36,5,42,127,2532795760
80,24,14,Improv_Melody,37,5,42,110,2533295556
80,24,14,Improv_Melody,38,5,42,110,2533796176
80,24,14,Improv_Melody,39,5,42,110,2534296048
80,24,14,Improv_Melody,40,2,48,80,2534798044
80,24,14,Improv_Melody,41,2,72,80,2534800272
80,24,14,Improv_Melody,42,5,42,127,2534802812
80,24,14,Improv_Melody,43,1,38,56,2534806828
80,24,14,Improv_Melody,44,1,38,36,2535222488
80,24,14,Improv_Melody,45,5,42,110,2535296296
80,24,14,Improv_Melody,46,1,38,34,2535738640
80,24,14,Improv_Melody,47,5,42,110,2535796072
80,24,14,Improv_Melody,48,1,38,56,2536275684
80,24,14,Improv_Melody,49,5,42,110,2536295772
80,24,14,Improv_Melody,50,5,42,127,2536795552
80,24,14,Improv_Melody,51,1,38,64,2536816324
80,24,14,Improv_Melody,52,1,38,25,2537218140
80,24,14,Improv_Melody,53,5,42,110,2537296216
80,24,14,Improv_Melody,54,1,38,38,2537315404
80,24,14,Improv_Melody,55,1,38,56,2537553636
80,24,14,Improv_Melody,56,5,42,110,2537795808
80,24,14,Improv_Melody,57,1,38,39,2537814484
80,24,14,Improv_Melody,58,1,38,42,2538290868
80,24,14,Improv_Melody,59,5,42,110,2538295696
80,24,14,Improv_Melody,60,2,43,80,2538798876
80,24,14,Improv_Melody,61,2,67,80,2538801028
80,24,14,Improv_Melody,62,5,42,127,2538803644
80,24,14,Improv_Melody,63,1,48,63,2538844564
80,24,14,Improv_Melody,64,5,42,110,2539296088
80,24,14,Improv_Melody,65,1,48,43,2539345384
80,24,14,Improv_Melody,66,5,42,110,2539795716
80,24,14,Improv_Melody,67,1,48,59,2539823816
80,24,14,Improv_Melody,68,1,48,15,2540039908
80,24,14,Improv_Melody,69,5,42,110,2540295468
80,24,14,Improv_Melody,70,1,48,53,2540301728
80,24,14,Improv_Melody,71,5,42,127,2540796364
80,24,14,Improv_Melody,72,1,48,61,2540804720
80,24,14,Improv_Melody,73,1,48,40,2541083568
80,24,14,Improv_Melody,74,1,48,50,2541177516
80,24,14,Improv_Melody,75,1,48,45,2541288644
80,24,14,Improv_Melody,76,5,42,110,2541295940
80,24,14,Improv_Melody,77,1,48,45,2541551584
80,24,14,Improv_Melody,78,5,42,110,2541795700
80,24,14,Improv_Melody,79,1,48,43,2541807420
80,24,14,Improv_Melody,80,1,48,29,2541873596
80,24,14,Improv_Melody,81,1,48,30,2542063508
80,24,14,Improv_Melody,82,5,42,110,2542296628
80,24,14,Improv_Melody,83,1,48,38,2542327496
80,24,14,Improv_Melody,84,1,38,30,2542784912
80,24,14,Improv_Melody,85,2,45,80,2542798520
80,24,14,Improv_Melody,86,2,69,80,2542800376
80,24,14,Improv_Melody,87,5,42,127,2542802992
80,24,14,Improv_Melody,88,1,38,49,2543295592
80,24,14,Improv_Melody,89,5,42,110,2543298348
80,24,14,Improv_Melody,90,1,38,23,2543361740
80,24,14,Improv_Melody,91,5,42,110,2543795420
80,24,14,Improv_Melody,92,1,48,64,2543809608
80,24,14,Improv_Melody,93,5,42,110,2544296464
80,24,14,Improv_Melody,94,1,38,43,2544341320
80,24,14,Improv_Melody,95,5,42,127,2544796016
80,24,14,Improv_Melody,96,1,48,38,2544825236
80,24,14,Improv_Melody,97,5,42,110,2545295716
80,24,14,Improv_Melody,98,1,38,54,2545349320
80,24,14,Improv_Melody,99,5,42,110,2545795340
80,24,14,Improv_Melody,100,1,48,39,2545803324
80,24,14,Improv_Melody,101,1,48,22,2546009764
80,24,14,Improv_Melody,102,5,42,110,2546296364
80,24,14,Improv_Melody,103,1,38,48,2546297932
80,24,14,Improv_Melody,104,2,41,80,2546798420
80,24,14,Improv_Melody,105,2,65,80,2546800568
80,24,14,Improv_Melody,106,5,42,127,2546803184
80,24,14,Improv_Melody,107,1,38,56,2546834052
80,24,14,Improv_Melody,108,5,42,110,2547295484
80,24,14,Improv_Melody,109,1,38,44,2547374372
80,24,14,Improv_Melody,110,1,38,17,2547459168
80,24,14,Improv_Melody,111,5,42,110,2547796504
80,24,14,Improv_Melody,112,1,38,53,2547848016
80,24,14,Improv_Melody,113,5,42,110,2548296056
80,24,14,Improv_Melody,114,1,38,43,2548325800
80,24,14,Improv_Melody,115,1,38,18,2548422564
80,24,14,Improv_Melody,116,5,42,127,2548795708
80,24,14,Improv_Melody,117,1,38,43,2548839092
80,24,14,Improv_Melody,118,5,42,110,2549295332
80,24,14,Improv_Melody,119,1,38,42,2549303316
80,24,14,Improv_Melody,120,5,42,110,2549796376
80,24,14,Improv_Melody,121,1,38,51,2549845820
80,24,14,Improv_Melody,122,1,38,62,2550291472
80,24,14,Improv_Melody,123,5,42,110,2550295776
80,24,14,Improv_Melody,124,2,48,80,2550798208
80,24,14,Improv_Melody,125,2,72,80,2550800208
80,24,14,Improv_Melody,126,1,48,21,2550801700
80,24,14,Improv_Melody,127,5,42,127,2550804236
80,24,14,Improv_Melody,128,1,48,18,2551139192
80,24,14,Improv_Melody,129,1,48,18,2551273060
80,24,14,Improv_Melody,130,5,42,110,2551296436
80,24,14,Improv_Melody,131,1,48,23,2551564948
80,24,14,Improv_Melody,132,5,42,110,2551796492
80,24,14,Improv_Melody,133,1,48,51,2551812108
80,24,14,Improv_Melody,134,1,48,28,2552073752
80,24,14,Improv_Melody,135,5,42,110,2552295724
80,24,14,Improv_Melody,136,1,48,42,2552335116
80,24,14,Improv_Melody,137,5,42,127,2552795648
80,24,14,Improv_Melody,138,1,38,64,2552815372
80,24,14,Improv_Melody,139,1,38,46,2553155576
80,24,14,Improv_Melody,140,1,38,38,2553263416
80,24,14,Improv_Melody,141,5,42,110,2553296440
80,24,14,Improv_Melody,142,1,38,24,2553549468
80,24,14,Improv_Melody,143,1,38,40,2553790696
80,24,14,Improv_Melody,144,5,42,110,2553796192
80,24,14,Improv_Melody,145,1,38,39,2554036952
80,24,14,Improv_Melody,146,5,42,110,2554295656
80,24,14,Improv_Melody,147,1,38,42,2554317620
80,24,14,Improv_Melody,148,1,48,55,2554796364
80,24,14,Improv_Melody,149,2,43,80,2554800176
80,24,14,Improv_Melody,150,2,67,80,2554802168
80,24,14,Improv_Melody,151,5,42,127,2554804784
80,24,14,Improv_Melody,152,1,38,17,2554812164
80,24,14,Improv_Melody,153,1,48,42,2555279352
80,24,14,Improv_Melody,154,5,42,110,2555296372
80,24,14,Improv_Melody,155,1,48,42,2555773372
80,24,14,Improv_Melody,156,5,42,110,2555795852
80,24,14,Improv_Melody,157,1,48,53,2556039380
80,24,14,Improv_Melody,158,1,38,13,2556055140
80,24,14,Improv_Melody,159,5,42,110,2556295412
80,24,14,Improv_Melody,160,1,48,54,2556309900
80,24,14,Improv_Melody,161,1,38,29,2556793572
80,24,14,Improv_Melody,162,5,42,127,2556796228
80,24,14,Improv_Melody,163,1,38,61,2556823940
80,24,14,Improv_Melody,164,1,38,55,2557286144
80,24,14,Improv_Melody,165,5,42,110,2557296056
80,24,14,Improv_Melody,166,1,38,48,2557740044
80,24,14,Improv_Melody,167,5,42,110,2557795684
80,24,14,Improv_Melody,168,1,38,32,2557995280
80,24,14,Improv_Melody,169,1,38,64,2558257300
80,24,14,Improv_Melody,170,5,42,110,2558296332
80,24,14,Improv_Melody,171,1,48,51,2558775400
80,24,14,Improv_Melody,172,2,45,80,2558798608
80,24,14,Improv_Melody,173,2,69,80,2558800916
80,24,14,Improv_Melody,174,1,48,54,2558804184
80,24,14,Improv_Melody,175,5,42,127,2558805228
80,24,14,Improv_Melody,176,5,42,110,2559295880
80,24,14,Improv_Melody,177,1,48,28,2559299972
80,24,14,Improv_Melody,178,1,48,42,2559780844
80,24,14,Improv_Melody,179,5,42,110,2559795548
80,24,14,Improv_Melody,180,1,48,46,2560008108
80,24,14,Improv_Melody,181,1,48,40,2560267364
80,24,14,Improv_Melody,182,5,42,110,2560296348
80,24,14,Improv_Melody,183,1,38,70,2560787032
80,24,14,Improv_Melody,184,5,42,127,2560795900
80,24,14,Improv_Melody,185,5,42,110,2561295608
80,24,14,Improv_Melody,186,1,38,54,2561307776
80,24,14,Improv_Melody,187,1,38,46,2561761380
80,24,14,Improv_Melody,188,5,42,110,2561795448
80,24,14,Improv_Melody,189,1,38,44,2562012576
80,24,14,Improv_Melody,190,1,38,36,2562278560
80,24,14,Improv_Melody,191,5,42,110,2562296172
80,24,14,Improv_Melody,192,1,38,46,2562701664
80,24,14,Improv_Melody,193,1,48,13,2562718172
80,24,14,Improv_Melody,194,2,41,80,2562798432
80,24,14,Improv_Melody,195,2,65,80,2562801856
80,24,14,Improv_Melody,196,5,42,127,2562804240
80,24,14,Improv_Melody,197,1,38,43,2563043280
80,24,14,Improv_Melody,198,1,38,49,2563184280
80,24,14,Improv_Melody,199,1,38,40,2563281944
80,24,14,Improv_Melody,200,5,42,110,2563295520
80,24,14,Improv_Melody,201,1,38,47,2563578392
80,24,14,Improv_Melody,202,5,42,110,2563796400
80,24,14,Improv_Melody,203,1,38,53,2563828992
80,24,14,Improv_Melody,204,1,38,56,2564060940
80,24,14,Improv_Melody,205,5,42,110,2564296076
80,24,14,Improv_Melody,206,1,38,46,2564346616
80,24,14,Improv_Melody,207,1,48,40,2564790868
80,24,14,Improv_Melody,208,5,42,127,2564795772
80,24,14,Improv_Melody,209,1,48,40,2565116860
80,24,14,Improv_Melody,210,1,48,52,2565197572
80,24,14,Improv_Melody,211,5,42,110,2565295432
80,24,14,Improv_Melody,212,1,48,47,2565366692
80,24,14,Improv_Melody,213,1,48,50,2565649876
80,24,14,Improv_Melody,214,5,42,110,2565796232
80,24,14,Improv_Melody,215,1,48,32,2565902192
80,24,14,Improv_Melody,216,1,48,40,2566157256
80,24,14,Improv_Melody,217,5,42,110,2566295908
80,24,14,Improv_Melody,218,1,48,33,2566420124
80,24,14,Improv_Melody,219,2,48,80,2566798188
80,24,14,Improv_Melody,220,2,72,80,2566800416
80,24,14,Improv_Melody,221,5,42,127,2566802952
80,24,14,Improv_Melody,222,1,48,50,2566867552
80,24,14,Improv_Melody,223,1,48,38,2566915700
80,24,14,Improv_Melody,224,1,48,33,2567291808
80,24,14,Improv_Melody,225,5,42,110,2567296340
80,24,14,Improv_Melody,226,1,48,32,2567420316
80,24,14,Improv_Melody,227,1,48,32,2567664384
80,24,14,Improv_Melody,228,5,42,110,2567796004
80,24,14,Improv_Melody,229,1,48,28,2567930836
80,24,14,Improv_Melody,230,1,48,29,2568164736
80,24,14,Improv_Melody,231,5,42,110,2568295904
80,24,14,Improv_Melody,232,1,48,40,2568388928
80,24,14,Improv_Melody,233,5,42,127,2568795380
80,24,14,Improv_Melody,234,1,48,50,2568887956
80,24,14,Improv_Melody,235,1,48,19,2569145188
80,24,14,Improv_Melody,236,1,48,46,2569229088
80,24,14,Improv_Melody,237,5,42,110,2569296172
80,24,14,Improv_Melody,238,1,48,29,2569343188
80,24,14,Improv_Melody,239,1,48,45,2569535792
80,24,14,Improv_Melody,240,1,48,35,2569732344
80,24,14,Improv_Melody,241,5,42,110,2569795980
80,24,14,Improv_Melody,242,1,48,44,2569980692
80,24,14,Improv_Melody,243,1,38,13,2569996232
80,24,14,Improv_Melody,244,1,48,38,2570243268
80,24,14,Improv_Melody,245,5,42,110,2570295736
80,24,14,Improv_Melody,246,1,38,53,2570772432
80,24,14,Improv_Melody,247,2,43,80,2570799060
80,24,14,Improv_Melody,248,2,67,80,2570801364
80,24,14,Improv_Melody,249,5,42,127,2570803828
80,24,14,Improv_Melody,250,1,38,45,2571090536
80,24,14,Improv_Melody,251,1,38,42,2571193368
80,24,14,Improv_Melody,252,5,42,110,2571296084
80,24,14,Improv_Melody,253,1,38,31,2571338048
80,24,14,Improv_Melody,254,1,38,47,2571614880
80,24,14,Improv_Melody,255,5,42,110,2571795764
80,24,14,Improv_Melody,256,1,38,35,2571840796
80,24,14,Improv_Melody,257,1,38,24,2572096904
80,24,14,Improv_Melody,258,5,42,110,2572295664
80,24,14,Improv_Melody,259,1,38,48,2572359772
80,24,14,Improv_Melody,260,5,42,127,2572796336
80,24,14,Improv_Melody,261,1,38,31,2572823768
80,24,14,Improv_Melody,262,1,38,46,2573148268
80,24,14,Improv_Melody,263,1,48,13,2573163584
80,24,14,Improv_Melody,264,1,38,45,2573264876
80,24,14,Improv_Melody,265,5,42,110,2573295960
80,24,14,Improv_Melody,266,1,38,38,2573455116
80,24,14,Improv_Melody,267,1,38,40,2573732544
80,24,14,Improv_Melody,268,5,42,110,2573795640
80,24,14,Improv_Melody,269,1,38,34,2573986960
80,24,14,Improv_Melody,270,1,38,45,2574227432
80,24,14,Improv_Melody,271,5,42,110,2574296736
80,24,14,Improv_Melody,272,1,38,65,2574526428
80,24,14,Improv_Melody,273,2,45,80,2574798776
80,24,14,Improv_Melody,274,2,69,80,2574800776
80,24,14,Improv_Melody,275,5,42,127,2574803468
80,24,14,Improv_Melody,276,1,38,60,2575035116
80,24,14,Improv_Melody,277,5,42,110,2575295764
80,24,14,Improv_Melody,278,1,38,34,2575475648
80,24,14,Improv_Melody,279,1,38,59,2575501660
80,24,14,Improv_Melody,280,5,42,110,2575795664
80,24,14,Improv_Melody,281,1,38,55,2575996124
80,24,14,Improv_Melody,282,1,38,25,2576261808
80,24,14,Improv_Melody,283,5,42,110,2576296256
80,24,14,Improv_Melody,284,1,38,56,2576554148
80,24,14,Improv_Melody,285,5,42,127,2576796088
80,24,14,Improv_Melody,286,1,38,44,2577062816
80,24,14,Improv_Melody,287,5,42,110,2577295640
80,24,14,Improv_Melody,288,1,38,40,2577569100
80,24,14,Improv_Melody,289,5,42,110,2577795564
80,24,14,Improv_Melody,290,1,38,43,2578088544
80,24,14,Improv_Melody,291,5,42,110,2578296236
80,24,14,Improv_Melody,292,1,38,35,2578382452
80,24,14,Improv_Melody,293,1,38,42,2578652332
80,24,14,Improv_Melody,294,2,41,80,2578798564
80,24,14,Improv_Melody,295,2,65,80,2578800492
80,24,14,Improv_Melody,296,5,42,127,2578802960
80,24,14,Improv_Melody,297,1,48,48,2579188844
80,24,14,Improv_Melody,298,5,42,110,2579295552
80,24,14,Improv_Melody,299,1,48,18,2579548592
80,24,14,Improv_Melody,300,1,48,37,2579672140
80,24,14,Improv_Melody,301,5,42,110,2579796796
80,24,14,Improv_Melody,302,1,48,25,2579801192
80,24,14,Improv_Melody,303,1,48,32,2580076972
80,24,14,Improv_Melody,304,5,42,110,2580295956
80,24,14,Improv_Melody,305,1,48,24,2580303856
80,24,14,Improv_Melody,306,1,48,42,2580571564
80,24,14,Improv_Melody,307,5,42,127,2580795928
80,24,14,Improv_Melody,308,1,48,25,2580828068
80,24,14,Improv_Melody,309,5,42,110,2581295532
80,24,14,Improv_Melody,310,1,48,42,2581302540
80,24,14,Improv_Melody,311,5,42,110,2581796128
80,24,14,Improv_Melody,312,1,48,38,2581820740
80,24,14,Improv_Melody,313,1,48,63,2582291220
80,24,14,Improv_Melody,314,5,42,110,2582295896
80,24,14,Improv_Melody,315,1,48,48,2582544136
80,24,14,Improv_Melody,316,2,48,80,2582797936
80,24,14,Improv_Melody,317,2,72,80,2582800088
80,24,14,Improv_Melody,318,5,42,127,2582802704
80,24,14,Improv_Melody,319,1,48,59,2582826020
80,24,14,Improv_Melody,320,5,42,110,2583296492
80,24,14,Improv_Melody,321,1,48,72,2583344640
80,24,14,Improv_Melody,322,1,48,52,2583650516
80,24,14,Improv_Melody,323,1,48,61,2583741672
80,24,14,Improv_Melody,324,5,42,110,2583796240
80,24,14,Improv_Melody,325,1,48,54,2583883820
80,24,14,Improv_Melody,326,1,48,75,2584175980
80,24,14,Improv_Melody,327,5,42,110,2584295752
80,24,14,Improv_Melody,328,1,48,57,2584745536
80,24,14,Improv_Melody,329,1,38,13,2584761148
80,24,14,Improv_Melody,330,5,42,127,2584795672
80,24,14,Improv_Melody,331,1,48,82,2585016808
80,24,14,Improv_Melody,332,5,42,110,2585296376
80,24,14,Improv_Melody,333,1,48,74,2585460628
80,24,14,Improv_Melody,334,1,48,63,2585743452
80,24,14,Improv_Melody,335,5,42,110,2585795844
80,24,14,Improv_Melody,336,1,48,51,2585876288
80,24,14,Improv_Melody,337,1,48,73,2585977492
80,24,14,Improv_Melody,338,1,48,59,2586239216
80,24,14,Improv_Melody,339,5,42,110,2586295652
80,24,14,Improv_Melody,340,1,48,35,2586304664
80,24,14,Improv_Melody,341,1,48,75,2586690944
80,24,14,Improv_Melody,342,2,43,80,2586799168
80,24,14,Improv_Melody,343,2,67,80,2586801316
80,24,14,Improv_Melody,344,5,42,127,2586803776
80,24,14,Improv_Melody,345,1,48,34,2586929036
80,24,14,Improv_Melody,346,5,42,110,2587296220
80,24,14,Improv_Melody,347,1,48,46,2587393660
80,24,14,Improv_Melody,348,5,42,110,2587795772
80,24,14,Improv_Melody,349,1,48,41,2587857380
80,24,14,Improv_Melody,350,5,42,110,2588295620
80,24,14,Improv_Melody,351,1,48,55,2588334344
80,24,14,Improv_Melody,352,5,42,127,2588796368
80,24,14,Improv_Melody,353,1,48,54,2588826560
80,24,14,Improv_Melody,354,5,42,110,2589295920
80,24,14,Improv_Melody,355,1,48,59,2589305468
80,24,14,Improv_Melody,356,5,42,110,2589795620
80,24,14,Improv_Melody,357,1,48,57,2589802928
80,24,14,Improv_Melody,358,5,42,110,2590296440
80,24,14,Improv_Melody,359,1,48,63,2590306592
80,24,14,Improv_Melody,360,2,45,80,2590798796
80,24,14,Improv_Melody,361,2,69,80,2590801024
80,24,14,Improv_Melody,362,5,42,127,2590803484
80,24,14,Improv_Melody,363,1,38,71,2590842652
80,24,14,Improv_Melody,364,5,42,110,2591295856
80,24,14,Improv_Melody,365,1,38,52,2591337268
80,24,14,Improv_Melody,366,5,42,110,2591795532
80,24,14,Improv_Melody,367,1,38,49,2591840336
80,24,14,Improv_Melody,368,5,42,110,2592296352
80,24,14,Improv_Melody,369,1,38,51,2592305008
80,24,14,Improv_Melody,370,5,42,127,2592795904
80,24,14,Improv_Melody,371,1,38,46,2592819296
80,24,14,Improv_Melody,372,1,38,56,2593294240
80,24,14,Improv_Melody,373,5,42,110,2593297240
80,24,14,Improv_Melody,374,5,42,110,2593795380
80,24,14,Improv_Melody,375,1,38,58,2593818020
80,24,14,Improv_Melody,376,1,38,59,2594285836
80,24,14,Improv_Melody,377,5,42,110,2594296344
80,24,14,Improv_Melody,378,2,41,80,2594798556
80,24,14,Improv_Melody,379,2,65,80,2594800712
80,24,14,Improv_Melody,380,5,42,127,2594803248
80,24,14,Improv_Melody,381,1,38,58,2594807336
80,24,14,Improv_Melody,382,5,42,110,2595295692
80,24,14,Improv_Melody,383,1,48,67,2595338152
80,24,14,Improv_Melody,384,5,42,110,2595796216
80,24,14,Improv_Melody,385,1,38,60,2595834784
80,24,14,Improv_Melody,386,5,42,110,2596296064
80,24,14,Improv_Melody,387,1,48,52,2596333892
80,24,14,Improv_Melody,388,5,42,127,2596795616
80,24,14,Improv_Melody,389,1,38,44,2596859616
80,24,14,Improv_Melody,390,1,48,14,2596875976
80,24,14,Improv_Melody,391,5,42,110,2597295488
80,24,14,Improv_Melody,392,1,48,72,2597345360
80,24,14,Improv_Melody,393,5,42,110,2597796160
80,24,14,Improv_Melody,394,1,38,42,2597850220
80,24,14,Improv_Melody,395,1,48,73,2598107888
80,24,14,Improv_Melody,396,5,42,110,2598296128
80,24,14,Improv_Melody,397,1,48,64,2598339336
80,24,14,Improv_Melody,398,2,48,80,2598798260
80,24,14,Improv_Melody,399,2,72,80,2598800256
80,24,14,Improv_Melody,400,5,42,127,2598802948
80,24,14,Improv_Melody,401,1,38,46,2598850948
80,24,14,Improv_Melody,402,5,42,110,2599296292
80,24,14,Improv_Melody,403,1,48,55,2599342420
80,24,14,Improv_Melody,404,1,38,15,2599358032
80,24,14,Improv_Melody,0,9999,9999,9999,2518793332
80,24,14,Improv_Melody,1,9999,9999,9999,2519294008
80,24,14,Improv_Melody,2,9999,9999,9999,2519793732
80,24,14,Improv_Melody,3,9999,9999,9999,2520293452
80,24,14,Improv_Melody,4,9999,9999,9999,2520793172
80,24,14,Improv_Melody,5,9999,9999,9999,2521293940
80,24,14,Improv_Melody,6,9999,9999,9999,2521793588
80,24,14,Improv_Melody,7,9999,9999,9999,2522293312
80,24,14,Improv_Melody,8,9999,9999,9999,2522794080
80,24,14,Improv_Melody,9,9999,9999,9999,2523293816
80,24,14,Improv_Melody,10,9999,9999,9999,2523793464
80,24,14,Improv_Melody,11,9999,9999,9999,2524293184
80,24,14,Improv_Melody,12,9999,9999,9999,2524793952
80,24,14,Improv_Melody,13,9999,9999,9999,2525293672
80,24,14,Improv_Melody,14,9999,9999,9999,2525793396
80,24,14,Improv_Melody,15,9999,9999,9999,2526294088
80,24,14,Improv_Melody,16,9999,9999,9999,2526793808
80,24,14,Improv_Melody,17,9999,9999,9999,2527293520
80,24,14,Improv_Melody,18,9999,9999,9999,2527793244
80,24,14,Improv_Melody,19,9999,9999,9999,2528293936
80,24,14,Improv_Melody,20,9999,9999,9999,2528793660
80,24,14,Improv_Melody,21,9999,9999,9999,2529293380
80,24,14,Improv_Melody,22,9999,9999,9999,2529793104
80,24,14,Improv_Melody,23,9999,9999,9999,2530293872
80,24,14,Improv_Melody,24,9999,9999,9999,2530793592
80,24,14,Improv_Melody,25,9999,9999,9999,2531293256
80,24,14,Improv_Melody,26,9999,9999,9999,2531794024
80,24,14,Improv_Melody,27,9999,9999,9999,2532293748
80,24,14,Improv_Melody,28,9999,9999,9999,2532793392
80,24,14,Improv_Melody,29,9999,9999,9999,2533293116
80,24,14,Improv_Melody,30,9999,9999,9999,2533793884
80,24,14,Improv_Melody,31,9999,9999,9999,2534293608
80,24,14,Improv_Melody,32,9999,9999,9999,2534793328
80,24,14,Improv_Melody,33,9999,9999,9999,2535294004
80,24,14,Improv_Melody,34,9999,9999,9999,2535793780
80,24,14,Improv_Melody,35,9999,9999,9999,2536293480
80,24,14,Improv_Melody,36,9999,9999,9999,2536793184
80,24,14,Improv_Melody,37,9999,9999,9999,2537293928
80,24,14,Improv_Melody,38,9999,9999,9999,2537793588
80,24,14,Improv_Melody,39,9999,9999,9999,2538293332
80,24,14,Improv_Melody,40,9999,9999,9999,2538794084
80,24,14,Improv_Melody,41,9999,9999,9999,2539293796
80,24,14,Improv_Melody,42,9999,9999,9999,2539793500
80,24,14,Improv_Melody,43,9999,9999,9999,2540293176
80,24,14,Improv_Melody,44,9999,9999,9999,2540793924
80,24,14,Improv_Melody,45,9999,9999,9999,2541293648
80,24,14,Improv_Melody,46,9999,9999,9999,2541793336
80,24,14,Improv_Melody,47,9999,9999,9999,2542294112
80,24,14,Improv_Melody,48,9999,9999,9999,2542793804
80,24,14,Improv_Melody,49,9999,9999,9999,2543293524
80,24,14,Improv_Melody,50,9999,9999,9999,2543793204
80,24,14,Improv_Melody,51,9999,9999,9999,2544293948
80,24,14,Improv_Melody,52,9999,9999,9999,2544793648
80,24,14,Improv_Melody,53,9999,9999,9999,2545293424
80,24,14,Improv_Melody,54,9999,9999,9999,2545793124
80,24,14,Improv_Melody,55,9999,9999,9999,2546293848
80,24,14,Improv_Melody,56,9999,9999,9999,2546793548
80,24,14,Improv_Melody,57,9999,9999,9999,2547293264
80,24,14,Improv_Melody,58,9999,9999,9999,2547793988
80,24,14,Improv_Melody,59,9999,9999,9999,2548293688
80,24,14,Improv_Melody,60,9999,9999,9999,2548793416
80,24,14,Improv_Melody,61,9999,9999,9999,2549293116
80,24,14,Improv_Melody,62,9999,9999,9999,2549793864
80,24,14,Improv_Melody,63,9999,9999,9999,2550293556
80,24,14,Improv_Melody,64,9999,9999,9999,2550793336
80,24,14,Improv_Melody,65,9999,9999,9999,2551294068
80,24,14,Improv_Melody,66,9999,9999,9999,2551793756
80,24,14,Improv_Melody,67,9999,9999,9999,2552293432
80,24,14,Improv_Melody,68,9999,9999,9999,2552793208
80,24,14,Improv_Melody,69,9999,9999,9999,2553293924
80,24,14,Improv_Melody,70,9999,9999,9999,2553793604
80,24,14,Improv_Melody,71,9999,9999,9999,2554293364
80,24,14,Improv_Melody,72,9999,9999,9999,2554794036
80,24,14,Improv_Melody,73,9999,9999,9999,2555293784
80,24,14,Improv_Melody,74,9999,9999,9999,2555793484
80,24,14,Improv_Melody,75,9999,9999,9999,2556293196
80,24,14,Improv_Melody,76,9999,9999,9999,2556793936
80,24,14,Improv_Melody,77,9999,9999,9999,2557293616
80,24,14,Improv_Melody,78,9999,9999,9999,2557793392
80,24,14,Improv_Melody,79,9999,9999,9999,2558294116
80,24,14,Improv_Melody,80,9999,9999,9999,2558793816
80,24,14,Improv_Melody,81,9999,9999,9999,2559293516
80,24,14,Improv_Melody,82,9999,9999,9999,2559793260
80,24,14,Improv_Melody,83,9999,9999,9999,2560293984
80,24,14,Improv_Melody,84,9999,9999,9999,2560793684
80,24,14,Improv_Melody,85,9999,9999,9999,2561293388
80,24,14,Improv_Melody,86,9999,9999,9999,2561793084
80,24,14,Improv_Melody,87,9999,9999,9999,2562293808
80,24,14,Improv_Melody,88,9999,9999,9999,2562793564
80,24,14,Improv_Melody,89,9999,9999,9999,2563293304
80,24,14,Improv_Melody,90,9999,9999,9999,2563794036
80,24,14,Improv_Melody,91,9999,9999,9999,2564293712
80,24,14,Improv_Melody,92,9999,9999,9999,2564793408
80,24,14,Improv_Melody,93,9999,9999,9999,2565293156
80,24,14,Improv_Melody,94,9999,9999,9999,2565793864
80,24,14,Improv_Melody,95,9999,9999,9999,2566293620
80,24,14,Improv_Melody,96,9999,9999,9999,2566793316
80,24,14,Improv_Melody,97,9999,9999,9999,2567294048
80,24,14,Improv_Melody,98,9999,9999,9999,2567793712
80,24,14,Improv_Melody,99,9999,9999,9999,2568293464
80,24,14,Improv_Melody,100,9999,9999,9999,2568793164
80,24,14,Improv_Melody,101,9999,9999,9999,2569293880
80,24,14,Improv_Melody,102,9999,9999,9999,2569793616
80,24,14,Improv_Melody,103,9999,9999,9999,2570293296
80,24,14,Improv_Melody,104,9999,9999,9999,2570794044
80,24,14,Improv_Melody,105,9999,9999,9999,2571293792
80,24,14,Improv_Melody,106,9999,9999,9999,2571793472
80,24,14,Improv_Melody,107,9999,9999,9999,2572293224
80,24,14,Improv_Melody,108,9999,9999,9999,2572793972
80,24,14,Improv_Melody,109,9999,9999,9999,2573293668
80,24,14,Improv_Melody,110,9999,9999,9999,2573793348
80,24,14,Improv_Melody,111,9999,9999,9999,2574294072
80,24,14,Improv_Melody,112,9999,9999,9999,2574793832
80,24,14,Improv_Melody,113,9999,9999,9999,2575293544
80,24,14,Improv_Melody,114,9999,9999,9999,2575793224
80,24,14,Improv_Melody,115,9999,9999,9999,2576293964
80,24,14,Improv_Melody,116,9999,9999,9999,2576793648
80,24,14,Improv_Melody,117,9999,9999,9999,2577293420
80,24,14,Improv_Melody,118,9999,9999,9999,2577793120
80,24,14,Improv_Melody,119,9999,9999,9999,2578293868
80,24,14,Improv_Melody,120,9999,9999,9999,2578793548
80,24,14,Improv_Melody,121,9999,9999,9999,2579293260
80,24,14,Improv_Melody,122,9999,9999,9999,2579793984
80,24,14,Improv_Melody,123,9999,9999,9999,2580293736
80,24,14,Improv_Melody,124,9999,9999,9999,2580793464
80,24,14,Improv_Melody,125,9999,9999,9999,2581293164
80,24,14,Improv_Melody,126,9999,9999,9999,2581793912
80,24,14,Improv_Melody,127,9999,9999,9999,2582293608
80,24,14,Improv_Melody,128,9999,9999,9999,2582793292
80,24,14,Improv_Melody,129,9999,9999,9999,2583294052
80,24,14,Improv_Melody,130,9999,9999,9999,2583793724
80,24,14,Improv_Melody,131,9999,9999,9999,2584293460
80,24,14,Improv_Melody,132,9999,9999,9999,2584793156
80,24,14,Improv_Melody,133,9999,9999,9999,2585293932
80,24,14,Improv_Melody,134,9999,9999,9999,2585793628
80,24,14,Improv_Melody,135,9999,9999,9999,2586293360
80,24,14,Improv_Melody,136,9999,9999,9999,2586794068
80,24,14,Improv_Melody,137,9999,9999,9999,2587293780
80,24,14,Improv_Melody,138,9999,9999,9999,2587793480
80,24,14,Improv_Melody,139,9999,9999,9999,2588293180
80,24,14,Improv_Melody,140,9999,9999,9999,2588793928
80,24,14,Improv_Melody,141,9999,9999,9999,2589293628
80,24,14,Improv_Melody,142,9999,9999,9999,2589793328
80,24,14,Improv_Melody,143,9999,9999,9999,2590294076
80,24,14,Improv_Melody,144,9999,9999,9999,2590793776
80,24,14,Improv_Melody,145,9999,9999,9999,2591293488
80,24,14,Improv_Melody,146,9999,9999,9999,2591793240
80,24,14,Improv_Melody,147,9999,9999,9999,2592293988
80,24,14,Improv_Melody,148,9999,9999,9999,2592793688
80,24,14,Improv_Melody,149,9999,9999,9999,2593293388
80,24,14,Improv_Melody,150,9999,9999,9999,2593793088
80,24,14,Improv_Melody,151,9999,9999,9999,2594293828
80,24,14,Improv_Melody,152,9999,9999,9999,2594793536
80,24,14,Improv_Melody,153,9999,9999,9999,2595293252
80,24,14,Improv_Melody,154,9999,9999,9999,2595794000
80,24,14,Improv_Melody,155,9999,9999,9999,2596293696
80,24,14,Improv_Melody,156,9999,9999,9999,2596793396
80,24,14,Improv_Melody,157,9999,9999,9999,2597293124
80,24,14,Improv_Melody,158,9999,9999,9999,2597793868
80,24,14,Improv_Melody,159,9999,9999,9999,2598293616
80,24,14,Improv_Melody,160,9999,9999,9999,2598793312
80,24,14,Improv_Melody,161,9999,9999,9999,2599294000
