pid,taskRunCount,taskID,taskName,i,channel,pitch,velocity,microseconds
87,1,0,Ticks_Pract_8,0,5,42,127,103798072
87,1,0,Ticks_Pract_8,1,5,42,127,104597924
87,1,0,Ticks_Pract_8,2,5,42,127,105397828
87,1,0,Ticks_Pract_8,3,1,48,34,105436024
87,1,0,Ticks_Pract_8,4,1,48,42,106188172
87,1,0,Ticks_Pract_8,5,5,42,127,106198600
87,1,0,Ticks_Pract_8,6,1,48,45,106939736
87,1,0,Ticks_Pract_8,7,5,42,127,106998260
87,1,0,Ticks_Pract_8,8,1,48,48,107762880
87,1,0,Ticks_Pract_8,9,5,42,127,107797772
87,1,0,Ticks_Pract_8,10,1,48,44,108553860
87,1,0,Ticks_Pract_8,11,5,42,127,108597800
87,1,0,Ticks_Pract_8,12,1,48,49,109341400
87,1,0,Ticks_Pract_8,13,5,42,127,109398360
87,1,0,Ticks_Pract_8,14,1,48,51,110139792
87,1,0,Ticks_Pract_8,15,5,42,127,110198168
87,1,0,Ticks_Pract_8,16,1,48,47,110912896
87,1,0,Ticks_Pract_8,17,5,42,127,110997780
87,1,0,Ticks_Pract_8,18,1,48,44,111732900
87,1,0,Ticks_Pract_8,19,5,42,127,111797736
87,1,0,Ticks_Pract_8,20,1,48,51,112519920
87,1,0,Ticks_Pract_8,21,5,42,127,112598292
87,1,0,Ticks_Pract_8,22,1,48,50,113331944
87,1,0,Ticks_Pract_8,23,5,42,127,113398176
87,1,0,Ticks_Pract_8,24,1,48,46,114145064
87,1,0,Ticks_Pract_8,25,5,42,127,114197908
87,1,0,Ticks_Pract_8,26,1,48,41,114943380
87,1,0,Ticks_Pract_8,27,5,42,127,114997644
87,1,0,Ticks_Pract_8,28,1,48,43,115745428
87,1,0,Ticks_Pract_8,29,5,42,127,115798496
87,1,0,Ticks_Pract_8,30,1,48,45,116536112
87,1,0,Ticks_Pract_8,31,5,42,127,116598008
87,1,0,Ticks_Pract_8,32,1,48,43,117310644
87,1,0,Ticks_Pract_8,33,5,42,127,117397840
87,1,0,Ticks_Pract_8,34,1,48,47,118109776
87,1,0,Ticks_Pract_8,35,5,42,127,118197720
87,1,0,Ticks_Pract_8,36,1,48,44,118896192
87,1,0,Ticks_Pract_8,37,5,42,127,118998264
87,1,0,Ticks_Pract_8,38,1,48,44,119666908
87,1,0,Ticks_Pract_8,39,5,42,127,119797996
87,1,0,Ticks_Pract_8,40,1,48,43,120577664
87,1,0,Ticks_Pract_8,41,5,42,127,120598044
87,1,0,Ticks_Pract_8,42,1,48,47,121355480
87,1,0,Ticks_Pract_8,43,5,42,127,121397776
87,1,0,Ticks_Pract_8,44,1,48,41,122149908
87,1,0,Ticks_Pract_8,45,5,42,127,122198780
87,1,0,Ticks_Pract_8,46,1,48,42,122946492
87,1,0,Ticks_Pract_8,47,5,42,127,122998140
87,1,0,Ticks_Pract_8,48,1,48,40,123750044
87,1,0,Ticks_Pract_8,49,5,42,127,123797824
87,1,0,Ticks_Pract_8,50,1,48,46,124564760
87,1,0,Ticks_Pract_8,51,5,42,127,124597632
87,1,0,Ticks_Pract_8,52,1,48,42,125388580
87,1,0,Ticks_Pract_8,53,5,42,127,125398264
87,1,0,Ticks_Pract_8,54,1,48,45,126187864
87,1,0,Ticks_Pract_8,55,5,42,127,126198072
87,1,0,Ticks_Pract_8,56,5,42,127,126997812
87,1,0,Ticks_Pract_8,57,1,48,42,127012076
87,1,0,Ticks_Pract_8,0,9999,9999,9999,103795780
87,1,0,Ticks_Pract_8,1,9999,9999,9999,104595560
87,1,0,Ticks_Pract_8,2,9999,9999,9999,105395312
87,1,0,Ticks_Pract_8,3,9999,9999,9999,106196088
87,1,0,Ticks_Pract_8,4,9999,9999,9999,106995820
87,1,0,Ticks_Pract_8,5,9999,9999,9999,107795552
87,1,0,Ticks_Pract_8,6,9999,9999,9999,108595288
87,1,0,Ticks_Pract_8,7,9999,9999,9999,109396068
87,1,0,Ticks_Pract_8,8,9999,9999,9999,110195804
87,1,0,Ticks_Pract_8,9,9999,9999,9999,110995560
87,1,0,Ticks_Pract_8,10,9999,9999,9999,111795292
87,1,0,Ticks_Pract_8,11,9999,9999,9999,112596076
87,1,0,Ticks_Pract_8,12,9999,9999,9999,113395808
87,1,0,Ticks_Pract_8,13,9999,9999,9999,114195544
87,1,0,Ticks_Pract_8,14,9999,9999,9999,114995276
87,1,0,Ticks_Pract_8,15,9999,9999,9999,115796056
87,1,0,Ticks_Pract_8,16,9999,9999,9999,116595792
87,1,0,Ticks_Pract_8,17,9999,9999,9999,117395548
87,1,0,Ticks_Pract_8,18,9999,9999,9999,118195280
87,1,0,Ticks_Pract_8,19,9999,9999,9999,118996048
87,1,0,Ticks_Pract_8,20,9999,9999,9999,119795780
87,1,0,Ticks_Pract_8,21,9999,9999,9999,120595528
87,1,0,Ticks_Pract_8,22,9999,9999,9999,121395260
87,1,0,Ticks_Pract_8,23,9999,9999,9999,122196044
87,1,0,Ticks_Pract_8,24,9999,9999,9999,122995776
87,1,0,Ticks_Pract_8,25,9999,9999,9999,123795532
87,1,0,Ticks_Pract_8,26,9999,9999,9999,124595268
87,1,0,Ticks_Pract_8,27,9999,9999,9999,125396044
87,1,0,Ticks_Pract_8,28,9999,9999,9999,126195780
87,1,0,Ticks_Pract_8,29,9999,9999,9999,126995520
87,2,1,Ticks_Pract_5,0,5,42,127,172435128
87,2,1,Ticks_Pract_5,1,5,42,127,172934448
87,2,1,Ticks_Pract_5,2,5,42,127,173435360
87,2,1,Ticks_Pract_5,3,1,48,29,173469176
87,2,1,Ticks_Pract_5,4,1,48,26,173894100
87,2,1,Ticks_Pract_5,5,5,42,127,173934824
87,2,1,Ticks_Pract_5,6,1,48,32,174364472
87,2,1,Ticks_Pract_5,7,5,42,127,174434520
87,2,1,Ticks_Pract_5,8,1,48,29,174845244
87,2,1,Ticks_Pract_5,9,5,42,127,174935260
87,2,1,Ticks_Pract_5,10,1,48,34,175333944
87,2,1,Ticks_Pract_5,11,5,42,127,175435088
87,2,1,Ticks_Pract_5,12,1,48,36,175817860
87,2,1,Ticks_Pract_5,13,5,42,127,175934860
87,2,1,Ticks_Pract_5,14,1,48,45,176336548
87,2,1,Ticks_Pract_5,15,5,42,127,176434552
87,2,1,Ticks_Pract_5,16,1,48,41,176836392
87,2,1,Ticks_Pract_5,17,5,42,127,176935296
87,2,1,Ticks_Pract_5,18,1,48,35,177361740
87,2,1,Ticks_Pract_5,19,5,42,127,177435004
87,2,1,Ticks_Pract_5,20,1,48,39,177879392
87,2,1,Ticks_Pract_5,21,5,42,127,177934696
87,2,1,Ticks_Pract_5,22,1,48,47,178376612
87,2,1,Ticks_Pract_5,23,5,42,127,178434320
87,2,1,Ticks_Pract_5,24,1,48,41,178901220
87,2,1,Ticks_Pract_5,25,5,42,127,178935132
87,2,1,Ticks_Pract_5,26,1,48,46,179385804
87,2,1,Ticks_Pract_5,27,5,42,127,179434980
87,2,1,Ticks_Pract_5,28,1,48,46,179880040
87,2,1,Ticks_Pract_5,29,5,42,127,179934672
87,2,1,Ticks_Pract_5,30,1,48,40,180406588
87,2,1,Ticks_Pract_5,31,5,42,127,180435340
87,2,1,Ticks_Pract_5,32,1,48,44,180860552
87,2,1,Ticks_Pract_5,33,5,42,127,180934884
87,2,1,Ticks_Pract_5,34,1,48,43,181373932
87,2,1,Ticks_Pract_5,35,5,42,127,181434876
87,2,1,Ticks_Pract_5,36,1,48,39,181924068
87,2,1,Ticks_Pract_5,37,5,42,127,181934348
87,2,1,Ticks_Pract_5,38,1,48,44,182424884
87,2,1,Ticks_Pract_5,39,5,42,127,182435164
87,2,1,Ticks_Pract_5,40,1,48,43,182905928
87,2,1,Ticks_Pract_5,41,5,42,127,182934856
87,2,1,Ticks_Pract_5,42,1,48,45,183373236
87,2,1,Ticks_Pract_5,43,5,42,127,183434752
87,2,1,Ticks_Pract_5,44,1,48,38,183842312
87,2,1,Ticks_Pract_5,45,5,42,127,183935392
87,2,1,Ticks_Pract_5,46,1,48,52,184383744
87,2,1,Ticks_Pract_5,47,5,42,127,184435160
87,2,1,Ticks_Pract_5,48,1,48,46,184912160
87,2,1,Ticks_Pract_5,49,5,42,127,184934856
87,2,1,Ticks_Pract_5,50,1,48,46,185421056
87,2,1,Ticks_Pract_5,51,5,42,127,185434328
87,2,1,Ticks_Pract_5,52,1,48,47,185899284
87,2,1,Ticks_Pract_5,53,5,42,127,185935144
87,2,1,Ticks_Pract_5,54,1,48,46,186410944
87,2,1,Ticks_Pract_5,55,5,42,127,186434988
87,2,1,Ticks_Pract_5,56,1,48,47,186932944
87,2,1,Ticks_Pract_5,57,5,42,127,186934684
87,2,1,Ticks_Pract_5,58,1,48,48,187409364
87,2,1,Ticks_Pract_5,59,5,42,127,187435648
87,2,1,Ticks_Pract_5,60,1,48,48,187920504
87,2,1,Ticks_Pract_5,61,5,42,127,187935044
87,2,1,Ticks_Pract_5,62,1,48,46,188427900
87,2,1,Ticks_Pract_5,63,5,42,127,188434816
87,2,1,Ticks_Pract_5,64,1,48,45,188924232
87,2,1,Ticks_Pract_5,65,5,42,127,188934584
87,2,1,Ticks_Pract_5,66,1,48,45,189395796
87,2,1,Ticks_Pract_5,67,5,42,127,189435252
87,2,1,Ticks_Pract_5,68,1,48,49,189905740
87,2,1,Ticks_Pract_5,69,5,42,127,189935096
87,2,1,Ticks_Pract_5,70,1,48,49,190404764
87,2,1,Ticks_Pract_5,71,5,42,127,190434640
87,2,1,Ticks_Pract_5,72,1,48,39,190909320
87,2,1,Ticks_Pract_5,73,5,42,127,190935532
87,2,1,Ticks_Pract_5,74,1,48,50,191392112
87,2,1,Ticks_Pract_5,75,5,42,127,191435228
87,2,1,Ticks_Pract_5,76,1,48,42,191894200
87,2,1,Ticks_Pract_5,77,5,42,127,191934848
87,2,1,Ticks_Pract_5,78,1,48,53,192371956
87,2,1,Ticks_Pract_5,0,9999,9999,9999,172432468
87,2,1,Ticks_Pract_5,1,9999,9999,9999,172932164
87,2,1,Ticks_Pract_5,2,9999,9999,9999,173432928
87,2,1,Ticks_Pract_5,3,9999,9999,9999,173932612
87,2,1,Ticks_Pract_5,4,9999,9999,9999,174432308
87,2,1,Ticks_Pract_5,5,9999,9999,9999,174933048
87,2,1,Ticks_Pract_5,6,9999,9999,9999,175432804
87,2,1,Ticks_Pract_5,7,9999,9999,9999,175932496
87,2,1,Ticks_Pract_5,8,9999,9999,9999,176432192
87,2,1,Ticks_Pract_5,9,9999,9999,9999,176932980
87,2,1,Ticks_Pract_5,10,9999,9999,9999,177432644
87,2,1,Ticks_Pract_5,11,9999,9999,9999,177932336
87,2,1,Ticks_Pract_5,12,9999,9999,9999,178432108
87,2,1,Ticks_Pract_5,13,9999,9999,9999,178932848
87,2,1,Ticks_Pract_5,14,9999,9999,9999,179432544
87,2,1,Ticks_Pract_5,15,9999,9999,9999,179932240
87,2,1,Ticks_Pract_5,16,9999,9999,9999,180432980
87,2,1,Ticks_Pract_5,17,9999,9999,9999,180932672
87,2,1,Ticks_Pract_5,18,9999,9999,9999,181432368
87,2,1,Ticks_Pract_5,19,9999,9999,9999,181932136
87,2,1,Ticks_Pract_5,20,9999,9999,9999,182432880
87,2,1,Ticks_Pract_5,21,9999,9999,9999,182932572
87,2,1,Ticks_Pract_5,22,9999,9999,9999,183432244
87,2,1,Ticks_Pract_5,23,9999,9999,9999,183933032
87,2,1,Ticks_Pract_5,24,9999,9999,9999,184432728
87,2,1,Ticks_Pract_5,25,9999,9999,9999,184932420
87,2,1,Ticks_Pract_5,26,9999,9999,9999,185432116
87,2,1,Ticks_Pract_5,27,9999,9999,9999,185932856
87,2,1,Ticks_Pract_5,28,9999,9999,9999,186432628
87,2,1,Ticks_Pract_5,29,9999,9999,9999,186932348
87,2,1,Ticks_Pract_5,30,9999,9999,9999,187433064
87,2,1,Ticks_Pract_5,31,9999,9999,9999,187932760
87,2,1,Ticks_Pract_5,32,9999,9999,9999,188432456
87,2,1,Ticks_Pract_5,33,9999,9999,9999,188932152
87,2,1,Ticks_Pract_5,34,9999,9999,9999,189432892
87,2,1,Ticks_Pract_5,35,9999,9999,9999,189932660
87,2,1,Ticks_Pract_5,36,9999,9999,9999,190432356
87,2,1,Ticks_Pract_5,37,9999,9999,9999,190933096
87,2,1,Ticks_Pract_5,38,9999,9999,9999,191432792
87,2,1,Ticks_Pract_5,39,9999,9999,9999,191932488
87,3,2,T1_SMS_8,0,5,42,127,281180544
87,3,2,T1_SMS_8,1,5,42,127,281981268
87,3,2,T1_SMS_8,2,1,48,47,282196684
87,3,2,T1_SMS_8,3,5,42,127,282781176
87,3,2,T1_SMS_8,4,1,48,52,282886620
87,3,2,T1_SMS_8,5,5,42,127,283580760
87,3,2,T1_SMS_8,6,1,48,49,283620384
87,3,2,T1_SMS_8,7,5,42,127,284380568
87,3,2,T1_SMS_8,8,1,48,51,284383612
87,3,2,T1_SMS_8,9,1,48,52,285165448
87,3,2,T1_SMS_8,10,5,42,127,285181416
87,3,2,T1_SMS_8,11,1,48,52,285942076
87,3,2,T1_SMS_8,12,5,42,127,285980928
87,3,2,T1_SMS_8,13,1,48,54,286758116
87,3,2,T1_SMS_8,14,5,42,127,286780736
87,3,2,T1_SMS_8,15,5,42,127,287580404
87,3,2,T1_SMS_8,16,1,48,59,287601024
87,3,2,T1_SMS_8,17,5,42,127,288381404
87,3,2,T1_SMS_8,18,1,48,51,288407740
87,3,2,T1_SMS_8,19,5,42,127,289181164
87,3,2,T1_SMS_8,20,1,48,54,289202008
87,3,2,T1_SMS_8,21,5,42,127,289980676
87,3,2,T1_SMS_8,22,1,48,54,290011768
87,3,2,T1_SMS_8,23,5,42,127,290780556
87,3,2,T1_SMS_8,24,1,48,53,290805964
87,3,2,T1_SMS_8,25,5,42,127,291581264
87,3,2,T1_SMS_8,26,1,48,53,291646616
87,3,2,T1_SMS_8,27,5,42,127,292381364
87,3,2,T1_SMS_8,28,1,48,49,292401988
87,3,2,T1_SMS_8,29,5,42,127,293180952
87,3,2,T1_SMS_8,30,1,48,55,293220648
87,3,2,T1_SMS_8,31,5,42,127,293980460
87,3,2,T1_SMS_8,32,1,48,41,294040152
87,3,2,T1_SMS_8,33,5,42,127,294781316
87,3,2,T1_SMS_8,34,1,48,39,294834720
87,3,2,T1_SMS_8,35,5,42,127,295581224
87,3,2,T1_SMS_8,36,1,48,46,295598256
87,3,2,T1_SMS_8,37,5,42,127,296380656
87,3,2,T1_SMS_8,38,1,48,48,296411748
87,3,2,T1_SMS_8,39,5,42,127,297180464
87,3,2,T1_SMS_8,40,1,48,53,297222028
87,3,2,T1_SMS_8,41,5,42,127,297981172
87,3,2,T1_SMS_8,42,1,48,51,298039936
87,3,2,T1_SMS_8,43,5,42,127,298781276
87,3,2,T1_SMS_8,44,1,48,57,298860016
87,3,2,T1_SMS_8,45,5,42,127,299580636
87,3,2,T1_SMS_8,46,1,48,46,299646804
87,3,2,T1_SMS_8,47,5,42,127,300380520
87,3,2,T1_SMS_8,48,1,48,43,300396276
87,3,2,T1_SMS_8,49,5,42,127,301181224
87,3,2,T1_SMS_8,50,1,48,42,301185612
87,3,2,T1_SMS_8,51,5,42,127,301981056
87,3,2,T1_SMS_8,52,1,48,43,301992700
87,3,2,T1_SMS_8,53,5,42,127,302780716
87,3,2,T1_SMS_8,54,1,48,46,302781680
87,3,2,T1_SMS_8,55,1,48,54,303575396
87,3,2,T1_SMS_8,56,5,42,127,303580592
87,3,2,T1_SMS_8,57,1,48,47,304340052
87,3,2,T1_SMS_8,58,5,42,127,304381148
87,3,2,T1_SMS_8,59,1,48,53,305113976
87,3,2,T1_SMS_8,60,5,42,127,305181180
87,3,2,T1_SMS_8,61,1,48,52,305912964
87,3,2,T1_SMS_8,62,5,42,127,305980988
87,3,2,T1_SMS_8,63,1,48,59,306746956
87,3,2,T1_SMS_8,64,5,42,127,306780576
87,3,2,T1_SMS_8,65,1,48,48,307567936
87,3,2,T1_SMS_8,66,5,42,127,307581204
87,3,2,T1_SMS_8,67,1,48,55,308370232
87,3,2,T1_SMS_8,68,5,42,127,308380892
87,3,2,T1_SMS_8,69,5,42,127,309180780
87,3,2,T1_SMS_8,70,1,48,53,309209256
87,3,2,T1_SMS_8,71,5,42,127,309980512
87,3,2,T1_SMS_8,72,1,48,46,309991112
87,3,2,T1_SMS_8,73,5,42,127,310781144
87,3,2,T1_SMS_8,74,1,48,48,310815600
87,3,2,T1_SMS_8,75,5,42,127,311581100
87,3,2,T1_SMS_8,76,1,48,51,311598656
87,3,2,T1_SMS_8,77,1,48,46,312377952
87,3,2,T1_SMS_8,78,5,42,127,312380976
87,3,2,T1_SMS_8,79,1,48,51,313176788
87,3,2,T1_SMS_8,80,5,42,127,313180488
87,3,2,T1_SMS_8,81,1,48,57,313969720
87,3,2,T1_SMS_8,82,5,42,127,313981268
87,3,2,T1_SMS_8,83,1,48,37,314776572
87,3,2,T1_SMS_8,84,5,42,127,314781024
87,3,2,T1_SMS_8,85,1,48,52,315562920
87,3,2,T1_SMS_8,86,5,42,127,315580908
87,3,2,T1_SMS_8,87,5,42,127,316380572
87,3,2,T1_SMS_8,88,1,48,45,316404412
87,3,2,T1_SMS_8,89,5,42,127,317181280
87,3,2,T1_SMS_8,90,1,48,51,317212824
87,3,2,T1_SMS_8,91,5,42,127,317981088
87,3,2,T1_SMS_8,92,1,48,46,317984652
87,3,2,T1_SMS_8,93,1,48,47,318775544
87,3,2,T1_SMS_8,94,5,42,127,318780888
87,3,2,T1_SMS_8,95,1,48,43,319579880
87,3,2,T1_SMS_8,96,5,42,127,319581300
87,3,2,T1_SMS_8,97,5,42,127,320381188
87,3,2,T1_SMS_8,98,1,48,44,320405872
87,3,2,T1_SMS_8,99,5,42,127,321181020
87,3,2,T1_SMS_8,100,1,48,45,321208600
87,3,2,T1_SMS_8,101,5,42,127,321980828
87,3,2,T1_SMS_8,102,1,48,51,322040944
87,3,2,T1_SMS_8,103,5,42,127,322780708
87,3,2,T1_SMS_8,104,1,48,46,322782500
87,3,2,T1_SMS_8,105,5,42,127,323581192
87,3,2,T1_SMS_8,106,1,48,46,323615952
87,3,2,T1_SMS_8,107,5,42,127,324381076
87,3,2,T1_SMS_8,108,1,48,40,324416056
87,3,2,T1_SMS_8,109,5,42,127,325180956
87,3,2,T1_SMS_8,110,1,48,37,325286868
87,3,2,T1_SMS_8,111,5,42,127,325980688
87,3,2,T1_SMS_8,112,1,48,46,326013056
87,3,2,T1_SMS_8,113,5,42,127,326781244
87,3,2,T1_SMS_8,114,1,48,41,326820892
87,3,2,T1_SMS_8,115,5,42,127,327581080
87,3,2,T1_SMS_8,116,1,48,39,327590332
87,3,2,T1_SMS_8,117,1,48,42,328295024
87,3,2,T1_SMS_8,118,5,42,127,328380952
87,3,2,T1_SMS_8,119,1,48,43,329098224
87,3,2,T1_SMS_8,120,5,42,127,329180612
87,3,2,T1_SMS_8,121,1,48,49,329872676
87,3,2,T1_SMS_8,122,5,42,127,329981304
87,3,2,T1_SMS_8,123,1,48,44,330775708
87,3,2,T1_SMS_8,124,5,42,127,330780976
87,3,2,T1_SMS_8,125,5,42,127,331580868
87,3,2,T1_SMS_8,126,1,48,41,331599764
87,3,2,T1_SMS_8,127,5,42,127,332380672
87,3,2,T1_SMS_8,128,1,48,43,332401220
87,3,2,T1_SMS_8,129,5,42,127,333181156
87,3,2,T1_SMS_8,130,1,48,45,333239948
87,3,2,T1_SMS_8,131,5,42,127,333980912
87,3,2,T1_SMS_8,132,1,48,42,334066984
87,3,2,T1_SMS_8,133,5,42,127,334780868
87,3,2,T1_SMS_8,134,1,48,39,334816224
87,3,2,T1_SMS_8,135,5,42,127,335580752
87,3,2,T1_SMS_8,136,1,48,39,335624488
87,3,2,T1_SMS_8,137,5,42,127,336381384
87,3,2,T1_SMS_8,138,1,48,38,336382352
87,3,2,T1_SMS_8,139,5,42,127,337180896
87,3,2,T1_SMS_8,140,1,48,40,337213332
87,3,2,T1_SMS_8,141,1,48,44,337963384
87,3,2,T1_SMS_8,142,5,42,127,337980772
87,3,2,T1_SMS_8,143,5,42,127,338780736
87,3,2,T1_SMS_8,144,1,48,40,338784752
87,3,2,T1_SMS_8,145,1,48,45,339523808
87,3,2,T1_SMS_8,146,5,42,127,339581436
87,3,2,T1_SMS_8,147,1,48,42,340300352
87,3,2,T1_SMS_8,148,5,42,127,340381116
87,3,2,T1_SMS_8,149,1,48,44,341084604
87,3,2,T1_SMS_8,150,5,42,127,341180760
87,3,2,T1_SMS_8,151,1,48,50,341910164
87,3,2,T1_SMS_8,152,5,42,127,341980512
87,3,2,T1_SMS_8,153,1,48,44,342755076
87,3,2,T1_SMS_8,154,5,42,127,342781364
87,3,2,T1_SMS_8,155,1,48,29,343531248
87,3,2,T1_SMS_8,156,5,42,127,343580948
87,3,2,T1_SMS_8,157,1,48,50,344318416
87,3,2,T1_SMS_8,158,5,42,127,344380756
87,3,2,T1_SMS_8,159,5,42,127,345180496
87,3,2,T1_SMS_8,160,1,48,42,345220492
87,3,2,T1_SMS_8,161,5,42,127,345981476
87,3,2,T1_SMS_8,162,1,48,48,346072360
87,3,2,T1_SMS_8,163,5,42,127,346781084
87,3,2,T1_SMS_8,164,1,48,50,346873360
87,3,2,T1_SMS_8,165,5,42,127,347580892
87,3,2,T1_SMS_8,166,1,48,47,347624924
87,3,2,T1_SMS_8,167,5,42,127,348380548
87,3,2,T1_SMS_8,168,1,48,48,348390476
87,3,2,T1_SMS_8,169,5,42,127,349181552
87,3,2,T1_SMS_8,170,1,48,45,349190732
87,3,2,T1_SMS_8,171,1,48,48,349959856
87,3,2,T1_SMS_8,172,5,42,127,349981204
87,3,2,T1_SMS_8,173,1,48,50,350753304
87,3,2,T1_SMS_8,174,5,42,127,350780788
87,3,2,T1_SMS_8,175,1,48,45,351573828
87,3,2,T1_SMS_8,176,5,42,127,351580448
87,3,2,T1_SMS_8,177,5,42,127,352381532
87,3,2,T1_SMS_8,178,1,48,48,352384132
87,3,2,T1_SMS_8,179,1,48,46,353181292
87,3,2,T1_SMS_8,180,5,42,127,353182556
87,3,2,T1_SMS_8,181,1,48,50,353931624
87,3,2,T1_SMS_8,182,5,42,127,353980648
87,3,2,T1_SMS_8,183,1,48,49,354760676
87,3,2,T1_SMS_8,184,5,42,127,354780384
87,3,2,T1_SMS_8,185,1,48,47,355554576
87,3,2,T1_SMS_8,186,5,42,127,355581536
87,3,2,T1_SMS_8,187,1,48,42,356367996
87,3,2,T1_SMS_8,188,5,42,127,356381344
87,3,2,T1_SMS_8,189,1,48,40,357121580
87,3,2,T1_SMS_8,190,5,42,127,357180704
87,3,2,T1_SMS_8,191,1,48,44,357930736
87,3,2,T1_SMS_8,192,5,42,127,357980512
87,3,2,T1_SMS_8,193,1,48,40,358780700
87,3,2,T1_SMS_8,194,5,42,127,358782340
87,3,2,T1_SMS_8,195,5,42,127,359581208
87,3,2,T1_SMS_8,196,1,48,47,359609232
87,3,2,T1_SMS_8,197,5,42,127,360380716
87,3,2,T1_SMS_8,198,1,48,53,360433128
87,3,2,T1_SMS_8,199,5,42,127,361180376
87,3,2,T1_SMS_8,200,1,48,36,361274448
87,3,2,T1_SMS_8,201,5,42,127,361981304
87,3,2,T1_SMS_8,202,1,48,47,362045680
87,3,2,T1_SMS_8,203,1,48,45,362776280
87,3,2,T1_SMS_8,204,5,42,127,362781328
87,3,2,T1_SMS_8,205,1,48,46,363540936
87,3,2,T1_SMS_8,206,5,42,127,363581136
87,3,2,T1_SMS_8,207,1,48,43,364301172
87,3,2,T1_SMS_8,208,5,42,127,364380496
87,3,2,T1_SMS_8,209,1,48,46,365078696
87,3,2,T1_SMS_8,210,5,42,127,365181336
87,3,2,T1_SMS_8,211,1,48,47,365848508
87,3,2,T1_SMS_8,212,5,42,127,365981020
87,3,2,T1_SMS_8,213,1,48,38,366704340
87,3,2,T1_SMS_8,214,5,42,127,366781064
87,3,2,T1_SMS_8,215,1,48,40,367572540
87,3,2,T1_SMS_8,216,5,42,127,367580504
87,3,2,T1_SMS_8,217,5,42,127,368381288
87,3,2,T1_SMS_8,218,1,48,41,368417844
87,3,2,T1_SMS_8,219,5,42,127,369181244
87,3,2,T1_SMS_8,220,1,48,50,369194388
87,3,2,T1_SMS_8,221,5,42,127,369980976
87,3,2,T1_SMS_8,222,1,48,42,369984548
87,3,2,T1_SMS_8,223,5,42,127,370780484
87,3,2,T1_SMS_8,224,1,48,39,370795868
87,3,2,T1_SMS_8,225,1,48,42,371554376
87,3,2,T1_SMS_8,226,5,42,127,371581336
87,3,2,T1_SMS_8,227,5,42,127,372381100
87,3,2,T1_SMS_8,228,1,48,30,372387436
87,3,2,T1_SMS_8,229,1,48,44,373143392
87,3,2,T1_SMS_8,230,5,42,127,373180976
87,3,2,T1_SMS_8,231,1,48,43,373936016
87,3,2,T1_SMS_8,232,5,42,127,373980412
87,3,2,T1_SMS_8,233,5,42,127,374781196
87,3,2,T1_SMS_8,234,1,48,43,374812588
87,3,2,T1_SMS_8,235,5,42,127,375581156
87,3,2,T1_SMS_8,236,1,48,48,375699492
87,3,2,T1_SMS_8,237,5,42,127,376380740
87,3,2,T1_SMS_8,238,1,48,38,376466764
87,3,2,T1_SMS_8,0,9999,9999,9999,281178180
87,3,2,T1_SMS_8,1,9999,9999,9999,281978980
87,3,2,T1_SMS_8,2,9999,9999,9999,282778740
87,3,2,T1_SMS_8,3,9999,9999,9999,283578472
87,3,2,T1_SMS_8,4,9999,9999,9999,284378204
87,3,2,T1_SMS_8,5,9999,9999,9999,285178980
87,3,2,T1_SMS_8,6,9999,9999,9999,285978716
87,3,2,T1_SMS_8,7,9999,9999,9999,286778448
87,3,2,T1_SMS_8,8,9999,9999,9999,287578192
87,3,2,T1_SMS_8,9,9999,9999,9999,288378968
87,3,2,T1_SMS_8,10,9999,9999,9999,289178728
87,3,2,T1_SMS_8,11,9999,9999,9999,289978460
87,3,2,T1_SMS_8,12,9999,9999,9999,290778196
87,3,2,T1_SMS_8,13,9999,9999,9999,291578972
87,3,2,T1_SMS_8,14,9999,9999,9999,292378708
87,3,2,T1_SMS_8,15,9999,9999,9999,293178440
87,3,2,T1_SMS_8,16,9999,9999,9999,293978172
87,3,2,T1_SMS_8,17,9999,9999,9999,294778952
87,3,2,T1_SMS_8,18,9999,9999,9999,295578712
87,3,2,T1_SMS_8,19,9999,9999,9999,296378444
87,3,2,T1_SMS_8,20,9999,9999,9999,297178176
87,3,2,T1_SMS_8,21,9999,9999,9999,297978956
87,3,2,T1_SMS_8,22,9999,9999,9999,298778692
87,3,2,T1_SMS_8,23,9999,9999,9999,299578424
87,3,2,T1_SMS_8,24,9999,9999,9999,300378232
87,3,2,T1_SMS_8,25,9999,9999,9999,301178936
87,3,2,T1_SMS_8,26,9999,9999,9999,301978696
87,3,2,T1_SMS_8,27,9999,9999,9999,302778428
87,3,2,T1_SMS_8,28,9999,9999,9999,303578232
87,3,2,T1_SMS_8,29,9999,9999,9999,304378936
87,3,2,T1_SMS_8,30,9999,9999,9999,305178744
87,3,2,T1_SMS_8,31,9999,9999,9999,305978476
87,3,2,T1_SMS_8,32,9999,9999,9999,306778212
87,3,2,T1_SMS_8,33,9999,9999,9999,307578992
87,3,2,T1_SMS_8,34,9999,9999,9999,308378676
87,3,2,T1_SMS_8,35,9999,9999,9999,309178416
87,3,2,T1_SMS_8,36,9999,9999,9999,309978224
87,3,2,T1_SMS_8,37,9999,9999,9999,310778932
87,3,2,T1_SMS_8,38,9999,9999,9999,311578740
87,3,2,T1_SMS_8,39,9999,9999,9999,312378468
87,3,2,T1_SMS_8,40,9999,9999,9999,313178200
87,3,2,T1_SMS_8,41,9999,9999,9999,313978980
87,3,2,T1_SMS_8,42,9999,9999,9999,314778740
87,3,2,T1_SMS_8,43,9999,9999,9999,315578472
87,3,2,T1_SMS_8,44,9999,9999,9999,316378212
87,3,2,T1_SMS_8,45,9999,9999,9999,317178992
87,3,2,T1_SMS_8,46,9999,9999,9999,317978728
87,3,2,T1_SMS_8,47,9999,9999,9999,318778452
87,3,2,T1_SMS_8,48,9999,9999,9999,319578192
87,3,2,T1_SMS_8,49,9999,9999,9999,320378972
87,3,2,T1_SMS_8,50,9999,9999,9999,321178732
87,3,2,T1_SMS_8,51,9999,9999,9999,321978464
87,3,2,T1_SMS_8,52,9999,9999,9999,322778196
87,3,2,T1_SMS_8,53,9999,9999,9999,323578980
87,3,2,T1_SMS_8,54,9999,9999,9999,324378712
87,3,2,T1_SMS_8,55,9999,9999,9999,325178444
87,3,2,T1_SMS_8,56,9999,9999,9999,325978180
87,3,2,T1_SMS_8,57,9999,9999,9999,326778956
87,3,2,T1_SMS_8,58,9999,9999,9999,327578716
87,3,2,T1_SMS_8,59,9999,9999,9999,328378440
87,3,2,T1_SMS_8,60,9999,9999,9999,329178176
87,3,2,T1_SMS_8,61,9999,9999,9999,329978940
87,3,2,T1_SMS_8,62,9999,9999,9999,330778688
87,3,2,T1_SMS_8,63,9999,9999,9999,331578428
87,3,2,T1_SMS_8,64,9999,9999,9999,332378160
87,3,2,T1_SMS_8,65,9999,9999,9999,333178940
87,3,2,T1_SMS_8,66,9999,9999,9999,333978700
87,3,2,T1_SMS_8,67,9999,9999,9999,334778432
87,3,2,T1_SMS_8,68,9999,9999,9999,335578168
87,3,2,T1_SMS_8,69,9999,9999,9999,336378948
87,3,2,T1_SMS_8,70,9999,9999,9999,337178680
87,3,2,T1_SMS_8,71,9999,9999,9999,337978484
87,3,2,T1_SMS_8,72,9999,9999,9999,338778224
87,3,2,T1_SMS_8,73,9999,9999,9999,339579000
87,3,2,T1_SMS_8,74,9999,9999,9999,340378680
87,3,2,T1_SMS_8,75,9999,9999,9999,341178472
87,3,2,T1_SMS_8,76,9999,9999,9999,341978224
87,3,2,T1_SMS_8,77,9999,9999,9999,342778928
87,3,2,T1_SMS_8,78,9999,9999,9999,343578736
87,3,2,T1_SMS_8,79,9999,9999,9999,344378468
87,3,2,T1_SMS_8,80,9999,9999,9999,345178208
87,3,2,T1_SMS_8,81,9999,9999,9999,345978964
87,3,2,T1_SMS_8,82,9999,9999,9999,346778720
87,3,2,T1_SMS_8,83,9999,9999,9999,347578456
87,3,2,T1_SMS_8,84,9999,9999,9999,348378188
87,3,2,T1_SMS_8,85,9999,9999,9999,349178968
87,3,2,T1_SMS_8,86,9999,9999,9999,349978696
87,3,2,T1_SMS_8,87,9999,9999,9999,350778428
87,3,2,T1_SMS_8,88,9999,9999,9999,351578160
87,3,2,T1_SMS_8,89,9999,9999,9999,352378948
87,3,2,T1_SMS_8,90,9999,9999,9999,353178708
87,3,2,T1_SMS_8,91,9999,9999,9999,353978436
87,3,2,T1_SMS_8,92,9999,9999,9999,354778172
87,3,2,T1_SMS_8,93,9999,9999,9999,355578952
87,3,2,T1_SMS_8,94,9999,9999,9999,356378684
87,3,2,T1_SMS_8,95,9999,9999,9999,357178416
87,3,2,T1_SMS_8,96,9999,9999,9999,357978224
87,3,2,T1_SMS_8,97,9999,9999,9999,358778936
87,3,2,T1_SMS_8,98,9999,9999,9999,359578696
87,3,2,T1_SMS_8,99,9999,9999,9999,360378428
87,3,2,T1_SMS_8,100,9999,9999,9999,361178160
87,3,2,T1_SMS_8,101,9999,9999,9999,361978940
87,3,2,T1_SMS_8,102,9999,9999,9999,362778740
87,3,2,T1_SMS_8,103,9999,9999,9999,363578476
87,3,2,T1_SMS_8,104,9999,9999,9999,364378208
87,3,2,T1_SMS_8,105,9999,9999,9999,365178972
87,3,2,T1_SMS_8,106,9999,9999,9999,365978732
87,3,2,T1_SMS_8,107,9999,9999,9999,366778480
87,3,2,T1_SMS_8,108,9999,9999,9999,367578216
87,3,2,T1_SMS_8,109,9999,9999,9999,368378924
87,3,2,T1_SMS_8,110,9999,9999,9999,369178732
87,3,2,T1_SMS_8,111,9999,9999,9999,369978464
87,3,2,T1_SMS_8,112,9999,9999,9999,370778196
87,3,2,T1_SMS_8,113,9999,9999,9999,371578972
87,3,2,T1_SMS_8,114,9999,9999,9999,372378736
87,3,2,T1_SMS_8,115,9999,9999,9999,373178464
87,3,2,T1_SMS_8,116,9999,9999,9999,373978196
87,3,2,T1_SMS_8,117,9999,9999,9999,374778984
87,3,2,T1_SMS_8,118,9999,9999,9999,375578716
87,3,2,T1_SMS_8,119,9999,9999,9999,376378452
87,4,4,T1_SMS_5,0,5,42,127,444030388
87,4,4,T1_SMS_5,1,5,42,127,444529956
87,4,4,T1_SMS_5,2,1,48,31,444755096
87,4,4,T1_SMS_5,3,5,42,127,445030020
87,4,4,T1_SMS_5,4,1,48,35,445063532
87,4,4,T1_SMS_5,5,5,42,127,445529568
87,4,4,T1_SMS_5,6,1,48,38,445543904
87,4,4,T1_SMS_5,7,1,48,36,446018680
87,4,4,T1_SMS_5,8,5,42,127,446030152
87,4,4,T1_SMS_5,9,1,48,37,446527884
87,4,4,T1_SMS_5,10,5,42,127,446529848
87,4,4,T1_SMS_5,11,1,48,41,447028868
87,4,4,T1_SMS_5,12,5,42,127,447030588
87,4,4,T1_SMS_5,13,1,48,44,447529912
87,4,4,T1_SMS_5,14,5,42,127,447531404
87,4,4,T1_SMS_5,15,1,48,39,448013564
87,4,4,T1_SMS_5,16,5,42,127,448030052
87,4,4,T1_SMS_5,17,1,48,42,448508100
87,4,4,T1_SMS_5,18,5,42,127,448529972
87,4,4,T1_SMS_5,19,1,48,47,449014896
87,4,4,T1_SMS_5,20,5,42,127,449029444
87,4,4,T1_SMS_5,21,1,48,46,449485568
87,4,4,T1_SMS_5,22,5,42,127,449530112
87,4,4,T1_SMS_5,23,5,42,127,450029960
87,4,4,T1_SMS_5,24,1,48,40,450044000
87,4,4,T1_SMS_5,25,5,42,127,450529876
87,4,4,T1_SMS_5,26,1,48,42,450537860
87,4,4,T1_SMS_5,27,1,48,45,451022800
87,4,4,T1_SMS_5,28,5,42,127,451030244
87,4,4,T1_SMS_5,29,1,48,39,451525788
87,4,4,T1_SMS_5,30,5,42,127,451530012
87,4,4,T1_SMS_5,31,1,48,40,452006184
87,4,4,T1_SMS_5,32,5,42,127,452029928
87,4,4,T1_SMS_5,33,1,48,40,452506780
87,4,4,T1_SMS_5,34,5,42,127,452529696
87,4,4,T1_SMS_5,35,1,48,40,453018064
87,4,4,T1_SMS_5,36,5,42,127,453030216
87,4,4,T1_SMS_5,37,1,48,42,453513424
87,4,4,T1_SMS_5,38,5,42,127,453529984
87,4,4,T1_SMS_5,39,1,48,48,454019104
87,4,4,T1_SMS_5,40,5,42,127,454029756
87,4,4,T1_SMS_5,41,1,48,35,454518692
87,4,4,T1_SMS_5,42,5,42,127,454530572
87,4,4,T1_SMS_5,43,1,48,46,454993332
87,4,4,T1_SMS_5,44,5,42,127,455030092
87,4,4,T1_SMS_5,45,1,48,40,455527748
87,4,4,T1_SMS_5,46,5,42,127,455529788
87,4,4,T1_SMS_5,47,5,42,127,456029788
87,4,4,T1_SMS_5,48,1,48,42,456033580
87,4,4,T1_SMS_5,49,5,42,127,456530160
87,4,4,T1_SMS_5,50,1,48,41,456559908
87,4,4,T1_SMS_5,51,5,42,127,457029928
87,4,4,T1_SMS_5,52,1,48,36,457072840
87,4,4,T1_SMS_5,53,1,48,43,457455304
87,4,4,T1_SMS_5,54,5,42,127,457529692
87,4,4,T1_SMS_5,55,1,48,43,457994868
87,4,4,T1_SMS_5,56,5,42,127,458029384
87,4,4,T1_SMS_5,57,1,48,39,458482592
87,4,4,T1_SMS_5,58,5,42,127,458530124
87,4,4,T1_SMS_5,59,1,48,40,459010192
87,4,4,T1_SMS_5,60,5,42,127,459029896
87,4,4,T1_SMS_5,61,5,42,127,459529596
87,4,4,T1_SMS_5,62,1,48,37,459545500
87,4,4,T1_SMS_5,63,1,48,39,460030412
87,4,4,T1_SMS_5,64,5,42,127,460031824
87,4,4,T1_SMS_5,65,1,48,37,460524980
87,4,4,T1_SMS_5,66,5,42,127,460529952
87,4,4,T1_SMS_5,67,1,48,43,461005748
87,4,4,T1_SMS_5,68,5,42,127,461029868
87,4,4,T1_SMS_5,69,1,48,40,461496848
87,4,4,T1_SMS_5,70,5,42,127,461529568
87,4,4,T1_SMS_5,71,1,48,38,461989068
87,4,4,T1_SMS_5,72,5,42,127,462030164
87,4,4,T1_SMS_5,73,1,48,38,462487564
87,4,4,T1_SMS_5,74,5,42,127,462529856
87,4,4,T1_SMS_5,75,1,48,44,462971152
87,4,4,T1_SMS_5,76,5,42,127,463029552
87,4,4,T1_SMS_5,77,1,48,34,463483408
87,4,4,T1_SMS_5,78,5,42,127,463530516
87,4,4,T1_SMS_5,79,1,48,43,463970540
87,4,4,T1_SMS_5,80,5,42,127,464029988
87,4,4,T1_SMS_5,81,1,48,38,464483472
87,4,4,T1_SMS_5,82,5,42,127,464529756
87,4,4,T1_SMS_5,83,1,48,45,464957664
87,4,4,T1_SMS_5,84,5,42,127,465029672
87,4,4,T1_SMS_5,85,1,48,42,465499836
87,4,4,T1_SMS_5,86,5,42,127,465530392
87,4,4,T1_SMS_5,87,5,42,127,466029868
87,4,4,T1_SMS_5,88,1,48,45,466031504
87,4,4,T1_SMS_5,89,1,48,38,466516432
87,4,4,T1_SMS_5,90,5,42,127,466529708
87,4,4,T1_SMS_5,91,1,48,44,466991296
87,4,4,T1_SMS_5,92,5,42,127,467030748
87,4,4,T1_SMS_5,93,1,48,48,467489492
87,4,4,T1_SMS_5,94,5,42,127,467530068
87,4,4,T1_SMS_5,95,1,48,42,468003472
87,4,4,T1_SMS_5,96,5,42,127,468029840
87,4,4,T1_SMS_5,97,1,48,47,468482376
87,4,4,T1_SMS_5,98,5,42,127,468529460
87,4,4,T1_SMS_5,99,5,42,127,469030428
87,4,4,T1_SMS_5,100,1,48,42,469031320
87,4,4,T1_SMS_5,101,1,48,46,469514224
87,4,4,T1_SMS_5,102,5,42,127,469529896
87,4,4,T1_SMS_5,103,5,42,127,470029524
87,4,4,T1_SMS_5,104,1,48,40,470032644
87,4,4,T1_SMS_5,105,1,48,49,470497088
87,4,4,T1_SMS_5,106,5,42,127,470530632
87,4,4,T1_SMS_5,107,5,42,127,471030260
87,4,4,T1_SMS_5,108,1,48,45,471044072
87,4,4,T1_SMS_5,109,5,42,127,471529732
87,4,4,T1_SMS_5,110,1,48,40,471541452
87,4,4,T1_SMS_5,111,5,42,127,472029428
87,4,4,T1_SMS_5,112,1,48,43,472038608
87,4,4,T1_SMS_5,113,5,42,127,472530468
87,4,4,T1_SMS_5,114,1,48,38,472551464
87,4,4,T1_SMS_5,115,5,42,127,473029936
87,4,4,T1_SMS_5,116,1,48,45,473043452
87,4,4,T1_SMS_5,117,5,42,127,473529632
87,4,4,T1_SMS_5,118,1,48,40,473571424
87,4,4,T1_SMS_5,119,5,42,127,474029476
87,4,4,T1_SMS_5,120,1,48,41,474097824
87,4,4,T1_SMS_5,121,1,48,39,474516336
87,4,4,T1_SMS_5,122,5,42,127,474530508
87,4,4,T1_SMS_5,123,5,42,127,475029912
87,4,4,T1_SMS_5,124,1,48,42,475052256
87,4,4,T1_SMS_5,125,1,48,44,475523656
87,4,4,T1_SMS_5,126,5,42,127,475529600
87,4,4,T1_SMS_5,127,1,48,41,476005072
87,4,4,T1_SMS_5,128,5,42,127,476030564
87,4,4,T1_SMS_5,129,1,48,45,476483228
87,4,4,T1_SMS_5,130,5,42,127,476529936
87,4,4,T1_SMS_5,131,1,48,42,476989880
87,4,4,T1_SMS_5,132,5,42,127,477029780
87,4,4,T1_SMS_5,133,1,48,46,477447544
87,4,4,T1_SMS_5,134,5,42,127,477529404
87,4,4,T1_SMS_5,135,1,48,44,477986956
87,4,4,T1_SMS_5,136,5,42,127,478030444
87,4,4,T1_SMS_5,137,1,48,44,478510580
87,4,4,T1_SMS_5,138,5,42,127,478529840
87,4,4,T1_SMS_5,139,1,48,43,478995916
87,4,4,T1_SMS_5,140,5,42,127,479029536
87,4,4,T1_SMS_5,141,1,48,39,479516324
87,4,4,T1_SMS_5,142,5,42,127,479530500
87,4,4,T1_SMS_5,143,1,48,44,480019764
87,4,4,T1_SMS_5,144,5,42,127,480030048
87,4,4,T1_SMS_5,145,5,42,127,480529748
87,4,4,T1_SMS_5,146,1,48,39,480538328
87,4,4,T1_SMS_5,147,1,48,43,481018256
87,4,4,T1_SMS_5,148,5,42,127,481029584
87,4,4,T1_SMS_5,149,1,48,43,481502168
87,4,4,T1_SMS_5,150,5,42,127,481530476
87,4,4,T1_SMS_5,151,5,42,127,482029804
87,4,4,T1_SMS_5,152,1,48,42,482031216
87,4,4,T1_SMS_5,153,1,48,44,482512552
87,4,4,T1_SMS_5,154,5,42,127,482529716
87,4,4,T1_SMS_5,155,1,48,43,483008808
87,4,4,T1_SMS_5,156,5,42,127,483030384
87,4,4,T1_SMS_5,157,5,42,127,483530232
87,4,4,T1_SMS_5,158,1,48,40,483533648
87,4,4,T1_SMS_5,159,1,48,45,484011044
87,4,4,T1_SMS_5,160,5,42,127,484029772
87,4,4,T1_SMS_5,161,1,48,40,484515520
87,4,4,T1_SMS_5,162,5,42,127,484529544
87,4,4,T1_SMS_5,163,1,48,43,484984444
87,4,4,T1_SMS_5,164,5,42,127,485030284
87,4,4,T1_SMS_5,165,1,48,42,485463276
87,4,4,T1_SMS_5,166,5,42,127,485529980
87,4,4,T1_SMS_5,167,1,48,38,485961692
87,4,4,T1_SMS_5,168,5,42,127,486029524
87,4,4,T1_SMS_5,169,1,48,45,486474552
87,4,4,T1_SMS_5,170,5,42,127,486530340
87,4,4,T1_SMS_5,171,1,48,42,486997292
87,4,4,T1_SMS_5,172,5,42,127,487030156
87,4,4,T1_SMS_5,173,1,48,42,487507232
87,4,4,T1_SMS_5,174,5,42,127,487529780
87,4,4,T1_SMS_5,175,1,48,43,487975432
87,4,4,T1_SMS_5,176,5,42,127,488029476
87,4,4,T1_SMS_5,177,1,48,46,488509384
87,4,4,T1_SMS_5,178,5,42,127,488530288
87,4,4,T1_SMS_5,179,5,42,127,489030140
87,4,4,T1_SMS_5,180,1,48,43,489040292
87,4,4,T1_SMS_5,181,1,48,44,489448040
87,4,4,T1_SMS_5,182,5,42,127,489529604
87,4,4,T1_SMS_5,183,5,42,127,490029380
87,4,4,T1_SMS_5,184,1,48,47,490086200
87,4,4,T1_SMS_5,185,5,42,127,490530120
87,4,4,T1_SMS_5,186,1,48,43,490559644
87,4,4,T1_SMS_5,187,5,42,127,491029892
87,4,4,T1_SMS_5,188,1,48,47,491035100
87,4,4,T1_SMS_5,189,5,42,127,491529584
87,4,4,T1_SMS_5,190,1,48,44,491540404
87,4,4,T1_SMS_5,191,1,48,48,492017272
87,4,4,T1_SMS_5,192,5,42,127,492030244
87,4,4,T1_SMS_5,193,5,42,127,492530244
87,4,4,T1_SMS_5,194,1,48,44,492535908
87,4,4,T1_SMS_5,195,1,48,43,493025412
87,4,4,T1_SMS_5,196,5,42,127,493029708
87,4,4,T1_SMS_5,197,1,48,44,493492868
87,4,4,T1_SMS_5,198,5,42,127,493529404
87,4,4,T1_SMS_5,199,1,48,38,494028640
87,4,4,T1_SMS_5,200,5,42,127,494030220
87,4,4,T1_SMS_5,201,1,48,42,494529020
87,4,4,T1_SMS_5,202,5,42,127,494530508
87,4,4,T1_SMS_5,203,1,48,43,494998384
87,4,4,T1_SMS_5,204,5,42,127,495029464
87,4,4,T1_SMS_5,205,1,48,46,495502116
87,4,4,T1_SMS_5,206,5,42,127,495530276
87,4,4,T1_SMS_5,207,1,48,46,495978080
87,4,4,T1_SMS_5,208,5,42,127,496030048
87,4,4,T1_SMS_5,209,5,42,127,496529748
87,4,4,T1_SMS_5,210,1,48,43,496538104
87,4,4,T1_SMS_5,211,5,42,127,497029444
87,4,4,T1_SMS_5,212,1,48,41,497066144
87,4,4,T1_SMS_5,213,5,42,127,497530084
87,4,4,T1_SMS_5,214,1,48,37,497557544
87,4,4,T1_SMS_5,215,5,42,127,498030004
87,4,4,T1_SMS_5,216,1,48,46,498037536
87,4,4,T1_SMS_5,217,1,48,43,498527428
87,4,4,T1_SMS_5,218,5,42,127,498529544
87,4,4,T1_SMS_5,219,1,48,44,499025684
87,4,4,T1_SMS_5,220,5,42,127,499030360
87,4,4,T1_SMS_5,221,1,48,39,499526648
87,4,4,T1_SMS_5,222,5,42,127,499530052
87,4,4,T1_SMS_5,223,5,42,127,500029904
87,4,4,T1_SMS_5,224,1,48,43,500036988
87,4,4,T1_SMS_5,225,1,48,42,500518712
87,4,4,T1_SMS_5,226,5,42,127,500529444
87,4,4,T1_SMS_5,227,5,42,127,501030192
87,4,4,T1_SMS_5,228,1,48,43,501044528
87,4,4,T1_SMS_5,229,5,42,127,501530108
87,4,4,T1_SMS_5,230,1,48,38,501547588
87,4,4,T1_SMS_5,231,5,42,127,502029580
87,4,4,T1_SMS_5,232,1,48,41,502043768
87,4,4,T1_SMS_5,233,5,42,127,502530468
87,4,4,T1_SMS_5,234,1,48,38,502596868
87,4,4,T1_SMS_5,235,1,48,36,503014568
87,4,4,T1_SMS_5,236,5,42,127,503030160
87,4,4,T1_SMS_5,237,1,48,42,503500948
87,4,4,T1_SMS_5,238,5,42,127,503529928
87,4,4,T1_SMS_5,239,1,48,43,503971544
87,4,4,T1_SMS_5,240,5,42,127,504029400
87,4,4,T1_SMS_5,241,1,48,46,504458528
87,4,4,T1_SMS_5,242,5,42,127,504530216
87,4,4,T1_SMS_5,243,1,48,40,504973928
87,4,4,T1_SMS_5,244,5,42,127,505030060
87,4,4,T1_SMS_5,245,1,48,37,505456464
87,4,4,T1_SMS_5,246,5,42,127,505529904
87,4,4,T1_SMS_5,247,1,48,44,506013860
87,4,4,T1_SMS_5,248,5,42,127,506029452
87,4,4,T1_SMS_5,249,1,48,43,506509368
87,4,4,T1_SMS_5,250,5,42,127,506530192
87,4,4,T1_SMS_5,251,1,48,40,507012352
87,4,4,T1_SMS_5,252,5,42,127,507029888
87,4,4,T1_SMS_5,253,1,48,40,507484044
87,4,4,T1_SMS_5,254,5,42,127,507529432
87,4,4,T1_SMS_5,255,1,48,38,508019492
87,4,4,T1_SMS_5,256,5,42,127,508030324
87,4,4,T1_SMS_5,257,1,48,38,508512832
87,4,4,T1_SMS_5,258,5,42,127,508529996
87,4,4,T1_SMS_5,259,1,48,45,509007968
87,4,4,T1_SMS_5,0,9999,9999,9999,444027952
87,4,4,T1_SMS_5,1,9999,9999,9999,444527668
87,4,4,T1_SMS_5,2,9999,9999,9999,445027436
87,4,4,T1_SMS_5,3,9999,9999,9999,445527132
87,4,4,T1_SMS_5,4,9999,9999,9999,446027868
87,4,4,T1_SMS_5,5,9999,9999,9999,446527600
87,4,4,T1_SMS_5,6,9999,9999,9999,447027264
87,4,4,T1_SMS_5,7,9999,9999,9999,447528004
87,4,4,T1_SMS_5,8,9999,9999,9999,448027768
87,4,4,T1_SMS_5,9,9999,9999,9999,448527464
87,4,4,T1_SMS_5,10,9999,9999,9999,449027156
87,4,4,T1_SMS_5,11,9999,9999,9999,449527900
87,4,4,T1_SMS_5,12,9999,9999,9999,450027600
87,4,4,T1_SMS_5,13,9999,9999,9999,450527292
87,4,4,T1_SMS_5,14,9999,9999,9999,451028032
87,4,4,T1_SMS_5,15,9999,9999,9999,451527800
87,4,4,T1_SMS_5,16,9999,9999,9999,452027492
87,4,4,T1_SMS_5,17,9999,9999,9999,452527188
87,4,4,T1_SMS_5,18,9999,9999,9999,453027928
87,4,4,T1_SMS_5,19,9999,9999,9999,453527624
87,4,4,T1_SMS_5,20,9999,9999,9999,454027320
87,4,4,T1_SMS_5,21,9999,9999,9999,454528060
87,4,4,T1_SMS_5,22,9999,9999,9999,455027808
87,4,4,T1_SMS_5,23,9999,9999,9999,455527540
87,4,4,T1_SMS_5,24,9999,9999,9999,456027204
87,4,4,T1_SMS_5,25,9999,9999,9999,456527948
87,4,4,T1_SMS_5,26,9999,9999,9999,457027640
87,4,4,T1_SMS_5,27,9999,9999,9999,457527404
87,4,4,T1_SMS_5,28,9999,9999,9999,458027100
87,4,4,T1_SMS_5,29,9999,9999,9999,458527840
87,4,4,T1_SMS_5,30,9999,9999,9999,459027536
87,4,4,T1_SMS_5,31,9999,9999,9999,459527236
87,4,4,T1_SMS_5,32,9999,9999,9999,460027976
87,4,4,T1_SMS_5,33,9999,9999,9999,460527668
87,4,4,T1_SMS_5,34,9999,9999,9999,461027436
87,4,4,T1_SMS_5,35,9999,9999,9999,461527132
87,4,4,T1_SMS_5,36,9999,9999,9999,462027876
87,4,4,T1_SMS_5,37,9999,9999,9999,462527572
87,4,4,T1_SMS_5,38,9999,9999,9999,463027264
87,4,4,T1_SMS_5,39,9999,9999,9999,463528004
87,4,4,T1_SMS_5,40,9999,9999,9999,464027700
87,4,4,T1_SMS_5,41,9999,9999,9999,464527472
87,4,4,T1_SMS_5,42,9999,9999,9999,465027164
87,4,4,T1_SMS_5,43,9999,9999,9999,465527880
87,4,4,T1_SMS_5,44,9999,9999,9999,466027584
87,4,4,T1_SMS_5,45,9999,9999,9999,466527348
87,4,4,T1_SMS_5,46,9999,9999,9999,467028088
87,4,4,T1_SMS_5,47,9999,9999,9999,467527780
87,4,4,T1_SMS_5,48,9999,9999,9999,468027476
87,4,4,T1_SMS_5,49,9999,9999,9999,468527172
87,4,4,T1_SMS_5,50,9999,9999,9999,469027920
87,4,4,T1_SMS_5,51,9999,9999,9999,469527608
87,4,4,T1_SMS_5,52,9999,9999,9999,470027312
87,4,4,T1_SMS_5,53,9999,9999,9999,470528120
87,4,4,T1_SMS_5,54,9999,9999,9999,471027824
87,4,4,T1_SMS_5,55,9999,9999,9999,471527516
87,4,4,T1_SMS_5,56,9999,9999,9999,472027216
87,4,4,T1_SMS_5,57,9999,9999,9999,472527956
87,4,4,T1_SMS_5,58,9999,9999,9999,473027652
87,4,4,T1_SMS_5,59,9999,9999,9999,473527344
87,4,4,T1_SMS_5,60,9999,9999,9999,474027116
87,4,4,T1_SMS_5,61,9999,9999,9999,474527852
87,4,4,T1_SMS_5,62,9999,9999,9999,475027552
87,4,4,T1_SMS_5,63,9999,9999,9999,475527240
87,4,4,T1_SMS_5,64,9999,9999,9999,476027956
87,4,4,T1_SMS_5,65,9999,9999,9999,476527728
87,4,4,T1_SMS_5,66,9999,9999,9999,477027420
87,4,4,T1_SMS_5,67,9999,9999,9999,477527116
87,4,4,T1_SMS_5,68,9999,9999,9999,478027860
87,4,4,T1_SMS_5,69,9999,9999,9999,478527552
87,4,4,T1_SMS_5,70,9999,9999,9999,479027248
87,4,4,T1_SMS_5,71,9999,9999,9999,479527988
87,4,4,T1_SMS_5,72,9999,9999,9999,480027760
87,4,4,T1_SMS_5,73,9999,9999,9999,480527464
87,4,4,T1_SMS_5,74,9999,9999,9999,481027148
87,4,4,T1_SMS_5,75,9999,9999,9999,481527892
87,4,4,T1_SMS_5,76,9999,9999,9999,482027592
87,4,4,T1_SMS_5,77,9999,9999,9999,482527280
87,4,4,T1_SMS_5,78,9999,9999,9999,483028024
87,4,4,T1_SMS_5,79,9999,9999,9999,483527796
87,4,4,T1_SMS_5,80,9999,9999,9999,484027488
87,4,4,T1_SMS_5,81,9999,9999,9999,484527184
87,4,4,T1_SMS_5,82,9999,9999,9999,485027920
87,4,4,T1_SMS_5,83,9999,9999,9999,485527616
87,4,4,T1_SMS_5,84,9999,9999,9999,486027312
87,4,4,T1_SMS_5,85,9999,9999,9999,486528052
87,4,4,T1_SMS_5,86,9999,9999,9999,487027796
87,4,4,T1_SMS_5,87,9999,9999,9999,487527492
87,4,4,T1_SMS_5,88,9999,9999,9999,488027188
87,4,4,T1_SMS_5,89,9999,9999,9999,488527928
87,4,4,T1_SMS_5,90,9999,9999,9999,489027704
87,4,4,T1_SMS_5,91,9999,9999,9999,489527392
87,4,4,T1_SMS_5,92,9999,9999,9999,490027092
87,4,4,T1_SMS_5,93,9999,9999,9999,490527836
87,4,4,T1_SMS_5,94,9999,9999,9999,491027528
87,4,4,T1_SMS_5,95,9999,9999,9999,491527224
87,4,4,T1_SMS_5,96,9999,9999,9999,492027960
87,4,4,T1_SMS_5,97,9999,9999,9999,492527736
87,4,4,T1_SMS_5,98,9999,9999,9999,493027424
87,4,4,T1_SMS_5,99,9999,9999,9999,493527120
87,4,4,T1_SMS_5,100,9999,9999,9999,494027868
87,4,4,T1_SMS_5,101,9999,9999,9999,494527560
87,4,4,T1_SMS_5,102,9999,9999,9999,495027252
87,4,4,T1_SMS_5,103,9999,9999,9999,495527992
87,4,4,T1_SMS_5,104,9999,9999,9999,496027760
87,4,4,T1_SMS_5,105,9999,9999,9999,496527464
87,4,4,T1_SMS_5,106,9999,9999,9999,497027156
87,4,4,T1_SMS_5,107,9999,9999,9999,497527872
87,4,4,T1_SMS_5,108,9999,9999,9999,498027568
87,4,4,T1_SMS_5,109,9999,9999,9999,498527300
87,4,4,T1_SMS_5,110,9999,9999,9999,499028072
87,4,4,T1_SMS_5,111,9999,9999,9999,499527768
87,4,4,T1_SMS_5,112,9999,9999,9999,500027468
87,4,4,T1_SMS_5,113,9999,9999,9999,500527156
87,4,4,T1_SMS_5,114,9999,9999,9999,501027904
87,4,4,T1_SMS_5,115,9999,9999,9999,501527672
87,4,4,T1_SMS_5,116,9999,9999,9999,502027368
87,4,4,T1_SMS_5,117,9999,9999,9999,502528108
87,4,4,T1_SMS_5,118,9999,9999,9999,503027796
87,4,4,T1_SMS_5,119,9999,9999,9999,503527492
87,4,4,T1_SMS_5,120,9999,9999,9999,504027188
87,4,4,T1_SMS_5,121,9999,9999,9999,504527932
87,4,4,T1_SMS_5,122,9999,9999,9999,505027700
87,4,4,T1_SMS_5,123,9999,9999,9999,505527396
87,4,4,T1_SMS_5,124,9999,9999,9999,506027092
87,4,4,T1_SMS_5,125,9999,9999,9999,506527832
87,4,4,T1_SMS_5,126,9999,9999,9999,507027528
87,4,4,T1_SMS_5,127,9999,9999,9999,507527220
87,4,4,T1_SMS_5,128,9999,9999,9999,508027964
87,4,4,T1_SMS_5,129,9999,9999,9999,508527708
87,5,22,Ticks_Phase_8,0,5,42,127,520857948
87,5,22,Ticks_Phase_8,1,5,42,127,521657756
87,5,22,Ticks_Phase_8,2,1,48,29,521916340
87,5,22,Ticks_Phase_8,3,5,42,127,522457616
87,5,22,Ticks_Phase_8,4,1,48,45,522544900
87,5,22,Ticks_Phase_8,5,1,48,43,523248304
87,5,22,Ticks_Phase_8,6,5,42,127,523258292
87,5,22,Ticks_Phase_8,7,1,48,48,524014984
87,5,22,Ticks_Phase_8,8,5,42,127,524057932
87,5,22,Ticks_Phase_8,9,1,48,52,524776668
87,5,22,Ticks_Phase_8,10,5,42,127,524857644
87,5,22,Ticks_Phase_8,11,1,48,50,525621004
87,5,22,Ticks_Phase_8,12,5,42,127,525657656
87,5,22,Ticks_Phase_8,13,1,48,49,526403936
87,5,22,Ticks_Phase_8,14,5,42,127,526458192
87,5,22,Ticks_Phase_8,15,1,48,49,527235736
87,5,22,Ticks_Phase_8,16,5,42,127,527258152
87,5,22,Ticks_Phase_8,17,5,42,127,528057800
87,5,22,Ticks_Phase_8,18,1,48,52,528063008
87,5,22,Ticks_Phase_8,19,5,42,127,528857508
87,5,22,Ticks_Phase_8,20,1,48,51,528871036
87,5,22,Ticks_Phase_8,21,5,42,127,529658192
87,5,22,Ticks_Phase_8,22,1,48,45,529664452
87,5,22,Ticks_Phase_8,23,5,42,127,530457976
87,5,22,Ticks_Phase_8,24,1,48,45,530474496
87,5,22,Ticks_Phase_8,25,1,48,52,531232632
87,5,22,Ticks_Phase_8,26,5,42,127,531257684
87,5,22,Ticks_Phase_8,27,5,42,127,532057624
87,5,22,Ticks_Phase_8,28,1,48,50,532067036
87,5,22,Ticks_Phase_8,29,1,48,50,532839176
87,5,22,Ticks_Phase_8,30,5,42,127,532858152
87,5,22,Ticks_Phase_8,31,5,42,127,533657896
87,5,22,Ticks_Phase_8,32,1,48,46,533687080
87,5,22,Ticks_Phase_8,33,5,42,127,534457684
87,5,22,Ticks_Phase_8,34,1,48,54,534477204
87,5,22,Ticks_Phase_8,35,5,42,127,535257616
87,5,22,Ticks_Phase_8,36,1,48,53,535260512
87,5,22,Ticks_Phase_8,37,1,48,48,536051300
87,5,22,Ticks_Phase_8,38,5,42,127,536058444
87,5,22,Ticks_Phase_8,39,5,42,127,536857936
87,5,22,Ticks_Phase_8,40,1,48,55,536882324
87,5,22,Ticks_Phase_8,41,5,42,127,537657576
87,5,22,Ticks_Phase_8,42,1,48,49,537679860
87,5,22,Ticks_Phase_8,43,5,42,127,538457656
87,5,22,Ticks_Phase_8,44,1,48,51,538504752
87,5,22,Ticks_Phase_8,45,5,42,127,539258192
87,5,22,Ticks_Phase_8,46,1,48,48,539316536
87,5,22,Ticks_Phase_8,47,5,42,127,540058004
87,5,22,Ticks_Phase_8,48,1,48,48,540082536
87,5,22,Ticks_Phase_8,49,5,42,127,540857788
87,5,22,Ticks_Phase_8,50,1,48,47,540886748
87,5,22,Ticks_Phase_8,51,5,42,127,541657428
87,5,22,Ticks_Phase_8,52,1,48,50,541684952
87,5,22,Ticks_Phase_8,53,5,42,127,542458332
87,5,22,Ticks_Phase_8,54,1,48,45,542513868
87,5,22,Ticks_Phase_8,55,5,42,127,543257896
87,5,22,Ticks_Phase_8,56,1,48,48,543279588
87,5,22,Ticks_Phase_8,57,5,42,127,544057608
87,5,22,Ticks_Phase_8,58,1,48,45,544091876
87,5,22,Ticks_Phase_8,59,1,48,43,544829796
87,5,22,Ticks_Phase_8,60,5,42,127,544837992
87,5,22,Ticks_Phase_8,61,1,48,47,545594680
87,5,22,Ticks_Phase_8,62,5,42,127,545637852
87,5,22,Ticks_Phase_8,63,1,48,51,546415660
87,5,22,Ticks_Phase_8,64,5,42,127,546437512
87,5,22,Ticks_Phase_8,65,5,42,127,547238576
87,5,22,Ticks_Phase_8,66,1,48,52,547255484
87,5,22,Ticks_Phase_8,67,5,42,127,548038216
87,5,22,Ticks_Phase_8,68,1,48,54,548067628
87,5,22,Ticks_Phase_8,69,5,42,127,548837704
87,5,22,Ticks_Phase_8,70,1,48,46,548840444
87,5,22,Ticks_Phase_8,71,5,42,127,549637564
87,5,22,Ticks_Phase_8,72,1,48,52,549662848
87,5,22,Ticks_Phase_8,73,5,42,127,550438472
87,5,22,Ticks_Phase_8,74,1,48,47,550491012
87,5,22,Ticks_Phase_8,75,5,42,127,551238184
87,5,22,Ticks_Phase_8,76,1,48,46,551280024
87,5,22,Ticks_Phase_8,77,5,42,127,552037748
87,5,22,Ticks_Phase_8,78,1,48,51,552090092
87,5,22,Ticks_Phase_8,79,5,42,127,552837408
87,5,22,Ticks_Phase_8,80,1,48,48,552874740
87,5,22,Ticks_Phase_8,81,5,42,127,553638392
87,5,22,Ticks_Phase_8,82,1,48,48,553685016
87,5,22,Ticks_Phase_8,83,5,42,127,554437952
87,5,22,Ticks_Phase_8,84,1,48,46,554492068
87,5,22,Ticks_Phase_8,85,5,42,127,555237740
87,5,22,Ticks_Phase_8,86,1,48,55,555303984
87,5,22,Ticks_Phase_8,87,5,42,127,556037600
87,5,22,Ticks_Phase_8,88,1,48,44,556061984
87,5,22,Ticks_Phase_8,89,1,48,48,556815488
87,5,22,Ticks_Phase_8,90,5,42,127,556838128
87,5,22,Ticks_Phase_8,91,1,48,52,557621632
87,5,22,Ticks_Phase_8,92,5,42,127,557638432
87,5,22,Ticks_Phase_8,93,5,42,127,558437632
87,5,22,Ticks_Phase_8,94,1,48,52,558493564
87,5,22,Ticks_Phase_8,95,5,42,127,559258184
87,5,22,Ticks_Phase_8,96,1,48,42,559274628
87,5,22,Ticks_Phase_8,97,1,48,50,560054932
87,5,22,Ticks_Phase_8,98,5,42,127,560057668
87,5,22,Ticks_Phase_8,99,5,42,127,560857536
87,5,22,Ticks_Phase_8,100,1,48,53,560881468
87,5,22,Ticks_Phase_8,101,5,42,127,561658220
87,5,22,Ticks_Phase_8,102,1,48,47,561700652
87,5,22,Ticks_Phase_8,103,5,42,127,562458228
87,5,22,Ticks_Phase_8,104,1,48,42,562521028
87,5,22,Ticks_Phase_8,105,5,42,127,563257792
87,5,22,Ticks_Phase_8,106,1,48,44,563276712
87,5,22,Ticks_Phase_8,107,5,42,127,564057428
87,5,22,Ticks_Phase_8,108,1,48,46,564083084
87,5,22,Ticks_Phase_8,109,5,42,127,564858284
87,5,22,Ticks_Phase_8,110,1,48,29,564873236
87,5,22,Ticks_Phase_8,111,5,42,127,565657996
87,5,22,Ticks_Phase_8,112,1,48,46,565662088
87,5,22,Ticks_Phase_8,113,5,42,127,566457708
87,5,22,Ticks_Phase_8,114,1,48,48,566458672
87,5,22,Ticks_Phase_8,115,5,42,127,567257420
87,5,22,Ticks_Phase_8,116,1,48,44,567290196
87,5,22,Ticks_Phase_8,117,5,42,127,568058328
87,5,22,Ticks_Phase_8,118,1,48,50,568106160
87,5,22,Ticks_Phase_8,119,5,42,127,568858040
87,5,22,Ticks_Phase_8,120,1,48,45,568906688
87,5,22,Ticks_Phase_8,121,5,42,127,569657676
87,5,22,Ticks_Phase_8,122,1,48,45,569709024
87,5,22,Ticks_Phase_8,123,5,42,127,570457388
87,5,22,Ticks_Phase_8,124,1,48,51,570519916
87,5,22,Ticks_Phase_8,125,5,42,127,571258172
87,5,22,Ticks_Phase_8,126,1,48,50,571341492
87,5,22,Ticks_Phase_8,127,1,48,51,572096504
87,5,22,Ticks_Phase_8,128,5,42,127,572098164
87,5,22,Ticks_Phase_8,129,1,48,50,572876960
87,5,22,Ticks_Phase_8,130,5,42,127,572897728
87,5,22,Ticks_Phase_8,131,1,48,48,573687228
87,5,22,Ticks_Phase_8,132,5,42,127,573698336
87,5,22,Ticks_Phase_8,133,5,42,127,574508312
87,5,22,Ticks_Phase_8,134,1,48,57,574527160
87,5,22,Ticks_Phase_8,135,5,42,127,575308248
87,5,22,Ticks_Phase_8,136,1,48,55,575319004
87,5,22,Ticks_Phase_8,137,5,42,127,576108184
87,5,22,Ticks_Phase_8,138,1,48,56,576124204
87,5,22,Ticks_Phase_8,139,5,42,127,576908068
87,5,22,Ticks_Phase_8,140,1,48,51,576935144
87,5,22,Ticks_Phase_8,141,5,42,127,577708452
87,5,22,Ticks_Phase_8,142,1,48,50,577765500
87,5,22,Ticks_Phase_8,143,5,42,127,578508092
87,5,22,Ticks_Phase_8,144,1,48,47,578547988
87,5,22,Ticks_Phase_8,145,1,48,47,579294204
87,5,22,Ticks_Phase_8,146,5,42,127,579307944
87,5,22,Ticks_Phase_8,147,1,48,41,580097524
87,5,22,Ticks_Phase_8,148,5,42,127,580107880
87,5,22,Ticks_Phase_8,149,1,48,48,580883896
87,5,22,Ticks_Phase_8,150,5,42,127,580908344
87,5,22,Ticks_Phase_8,151,1,48,49,581652904
87,5,22,Ticks_Phase_8,152,5,42,127,581708204
87,5,22,Ticks_Phase_8,153,1,48,52,582501968
87,5,22,Ticks_Phase_8,154,5,42,127,582507840
87,5,22,Ticks_Phase_8,155,5,42,127,583307884
87,5,22,Ticks_Phase_8,156,1,48,56,583337744
87,5,22,Ticks_Phase_8,157,5,42,127,584108348
87,5,22,Ticks_Phase_8,158,1,48,50,584127948
87,5,22,Ticks_Phase_8,159,5,42,127,584908136
87,5,22,Ticks_Phase_8,160,1,48,58,584943448
87,5,22,Ticks_Phase_8,161,1,48,34,584991884
87,5,22,Ticks_Phase_8,162,5,42,127,585668132
87,5,22,Ticks_Phase_8,163,1,48,50,585794812
87,5,22,Ticks_Phase_8,164,5,42,127,586467772
87,5,22,Ticks_Phase_8,165,1,48,54,586555280
87,5,22,Ticks_Phase_8,166,5,42,127,587267632
87,5,22,Ticks_Phase_8,167,1,48,55,587327440
87,5,22,Ticks_Phase_8,168,5,42,127,588068168
87,5,22,Ticks_Phase_8,169,1,48,48,588084460
87,5,22,Ticks_Phase_8,170,1,48,49,588808608
87,5,22,Ticks_Phase_8,171,5,42,127,588868092
87,5,22,Ticks_Phase_8,172,1,48,41,589655576
87,5,22,Ticks_Phase_8,173,5,42,127,589667656
87,5,22,Ticks_Phase_8,174,1,48,48,590396724
87,5,22,Ticks_Phase_8,175,5,42,127,590467392
87,5,22,Ticks_Phase_8,176,1,48,43,591210736
87,5,22,Ticks_Phase_8,177,5,42,127,591268300
87,5,22,Ticks_Phase_8,178,5,42,127,592067944
87,5,22,Ticks_Phase_8,179,1,48,44,592077888
87,5,22,Ticks_Phase_8,180,5,42,127,592867956
87,5,22,Ticks_Phase_8,181,1,48,49,592925064
87,5,22,Ticks_Phase_8,182,5,42,127,593667520
87,5,22,Ticks_Phase_8,183,1,48,51,593674380
87,5,22,Ticks_Phase_8,184,1,48,43,594436720
87,5,22,Ticks_Phase_8,185,5,42,127,594468196
87,5,22,Ticks_Phase_8,186,5,42,127,595267992
87,5,22,Ticks_Phase_8,187,1,48,52,595278080
87,5,22,Ticks_Phase_8,188,1,48,50,596033360
87,5,22,Ticks_Phase_8,189,5,42,127,596067844
87,5,22,Ticks_Phase_8,190,1,48,53,596841012
87,5,22,Ticks_Phase_8,191,5,42,127,596867728
87,5,22,Ticks_Phase_8,192,5,42,127,597668196
87,5,22,Ticks_Phase_8,193,1,48,54,597681872
87,5,22,Ticks_Phase_8,194,5,42,127,598387980
87,5,22,Ticks_Phase_8,195,1,48,50,598524488
87,5,22,Ticks_Phase_8,196,5,42,127,599187792
87,5,22,Ticks_Phase_8,197,1,48,50,599241676
87,5,22,Ticks_Phase_8,198,5,42,127,599987428
87,5,22,Ticks_Phase_8,199,1,48,52,600021248
87,5,22,Ticks_Phase_8,200,5,42,127,600788632
87,5,22,Ticks_Phase_8,201,1,48,48,600810028
87,5,22,Ticks_Phase_8,202,5,42,127,601588048
87,5,22,Ticks_Phase_8,203,1,48,47,601594380
87,5,22,Ticks_Phase_8,204,1,48,42,602293660
87,5,22,Ticks_Phase_8,205,5,42,127,602387812
87,5,22,Ticks_Phase_8,206,1,48,52,603066796
87,5,22,Ticks_Phase_8,207,5,42,127,603187524
87,5,22,Ticks_Phase_8,208,1,48,49,603885288
87,5,22,Ticks_Phase_8,209,5,42,127,603988504
87,5,22,Ticks_Phase_8,210,1,48,53,604765520
87,5,22,Ticks_Phase_8,211,5,42,127,604787936
87,5,22,Ticks_Phase_8,212,5,42,127,605587680
87,5,22,Ticks_Phase_8,213,1,48,47,605607724
87,5,22,Ticks_Phase_8,214,5,42,127,606387540
87,5,22,Ticks_Phase_8,215,1,48,43,606474452
87,5,22,Ticks_Phase_8,216,5,42,127,607188448
87,5,22,Ticks_Phase_8,217,1,48,50,607228640
87,5,22,Ticks_Phase_8,218,5,42,127,607988160
87,5,22,Ticks_Phase_8,219,1,48,50,608027228
87,5,22,Ticks_Phase_8,220,5,42,127,608787796
87,5,22,Ticks_Phase_8,221,1,48,45,608856896
87,5,22,Ticks_Phase_8,222,5,42,127,609587436
87,5,22,Ticks_Phase_8,223,1,48,47,609627996
87,5,22,Ticks_Phase_8,224,5,42,127,610388416
87,5,22,Ticks_Phase_8,225,1,48,36,610435452
87,5,22,Ticks_Phase_8,226,5,42,127,611188056
87,5,22,Ticks_Phase_8,227,1,48,42,611255680
87,5,22,Ticks_Phase_8,228,1,48,41,612033584
87,5,22,Ticks_Phase_8,229,5,42,127,612067616
87,5,22,Ticks_Phase_8,230,1,48,42,612836144
87,5,22,Ticks_Phase_8,231,5,42,127,612867400
87,5,22,Ticks_Phase_8,232,5,42,127,613668388
87,5,22,Ticks_Phase_8,233,1,48,39,613680572
87,5,22,Ticks_Phase_8,234,5,42,127,614468100
87,5,22,Ticks_Phase_8,235,1,48,41,614531604
87,5,22,Ticks_Phase_8,236,5,42,127,615267588
87,5,22,Ticks_Phase_8,237,1,48,39,615293716
87,5,22,Ticks_Phase_8,238,5,42,127,616067476
87,5,22,Ticks_Phase_8,239,1,48,29,616080632
87,5,22,Ticks_Phase_8,240,1,48,37,616861984
87,5,22,Ticks_Phase_8,241,5,42,127,616868376
87,5,22,Ticks_Phase_8,242,1,48,47,617658480
87,5,22,Ticks_Phase_8,243,5,42,127,617668092
87,5,22,Ticks_Phase_8,244,1,48,54,618444852
87,5,22,Ticks_Phase_8,245,5,42,127,618467804
87,5,22,Ticks_Phase_8,246,1,48,57,619264112
87,5,22,Ticks_Phase_8,247,5,42,127,619267292
87,5,22,Ticks_Phase_8,248,1,48,53,620055672
87,5,22,Ticks_Phase_8,249,5,42,127,620068348
87,5,22,Ticks_Phase_8,250,1,48,25,620116004
87,5,22,Ticks_Phase_8,251,1,48,50,620856632
87,5,22,Ticks_Phase_8,252,5,42,127,620867888
87,5,22,Ticks_Phase_8,253,5,42,127,621667832
87,5,22,Ticks_Phase_8,254,1,48,54,621686156
87,5,22,Ticks_Phase_8,255,5,42,127,622467392
87,5,22,Ticks_Phase_8,256,1,48,48,622493124
87,5,22,Ticks_Phase_8,257,5,42,127,623268376
87,5,22,Ticks_Phase_8,258,1,48,51,623310212
87,5,22,Ticks_Phase_8,259,5,42,127,624068164
87,5,22,Ticks_Phase_8,260,1,48,47,624128872
87,5,22,Ticks_Phase_8,261,5,42,127,624867652
87,5,22,Ticks_Phase_8,262,1,48,55,625015468
87,5,22,Ticks_Phase_8,263,1,48,49,625741460
87,5,22,Ticks_Phase_8,264,5,42,127,625828316
87,5,22,Ticks_Phase_8,265,1,48,39,626626212
87,5,22,Ticks_Phase_8,266,5,42,127,626628176
87,5,22,Ticks_Phase_8,267,5,42,127,627427596
87,5,22,Ticks_Phase_8,268,1,48,57,627430716
87,5,22,Ticks_Phase_8,269,5,42,127,628227384
87,5,22,Ticks_Phase_8,270,1,48,48,628271316
87,5,22,Ticks_Phase_8,271,5,42,127,629028144
87,5,22,Ticks_Phase_8,272,1,48,50,629095356
87,5,22,Ticks_Phase_8,273,5,42,127,629828152
87,5,22,Ticks_Phase_8,274,1,48,35,629907468
87,5,22,Ticks_Phase_8,275,5,42,127,630627644
87,5,22,Ticks_Phase_8,276,1,48,54,631184772
87,5,22,Ticks_Phase_8,277,5,42,127,631427528
87,5,22,Ticks_Phase_8,278,1,48,60,632202360
87,5,22,Ticks_Phase_8,279,5,42,127,632228228
87,5,22,Ticks_Phase_8,280,5,42,127,633028244
87,5,22,Ticks_Phase_8,281,1,48,57,633079824
87,5,22,Ticks_Phase_8,282,5,42,127,633827808
87,5,22,Ticks_Phase_8,283,1,48,55,633869044
87,5,22,Ticks_Phase_8,284,1,48,35,633917780
87,5,22,Ticks_Phase_8,285,5,42,127,634627428
87,5,22,Ticks_Phase_8,286,1,48,51,634692396
87,5,22,Ticks_Phase_8,287,5,42,127,635428184
87,5,22,Ticks_Phase_8,288,1,48,55,635509860
87,5,22,Ticks_Phase_8,289,5,42,127,636227944
87,5,22,Ticks_Phase_8,290,1,48,53,636337584
87,5,22,Ticks_Phase_8,291,5,42,127,637027808
87,5,22,Ticks_Phase_8,292,1,48,50,637107712
87,5,22,Ticks_Phase_8,293,5,42,127,637827320
87,5,22,Ticks_Phase_8,294,1,48,54,637854688
87,5,22,Ticks_Phase_8,295,5,42,127,638628152
87,5,22,Ticks_Phase_8,296,1,48,56,638672156
87,5,22,Ticks_Phase_8,297,5,42,127,639427936
87,5,22,Ticks_Phase_8,298,1,48,51,639501600
87,5,22,Ticks_Phase_8,299,5,42,127,640228096
87,5,22,Ticks_Phase_8,300,1,48,51,640278700
87,5,22,Ticks_Phase_8,301,5,42,127,640867824
87,5,22,Ticks_Phase_8,302,1,48,50,641027036
87,5,22,Ticks_Phase_8,303,5,42,127,641667564
87,5,22,Ticks_Phase_8,304,1,48,50,641798740
87,5,22,Ticks_Phase_8,305,1,48,47,642468468
87,5,22,Ticks_Phase_8,306,5,42,127,642469880
87,5,22,Ticks_Phase_8,307,1,48,48,643197456
87,5,22,Ticks_Phase_8,308,5,42,127,643267952
87,5,22,Ticks_Phase_8,309,1,48,49,643973344
87,5,22,Ticks_Phase_8,310,5,42,127,644067724
87,5,22,Ticks_Phase_8,311,1,48,45,644749996
87,5,22,Ticks_Phase_8,312,5,42,127,644867584
87,5,22,Ticks_Phase_8,313,1,48,50,645599732
87,5,22,Ticks_Phase_8,314,5,42,127,645668280
87,5,22,Ticks_Phase_8,315,5,42,127,646468000
87,5,22,Ticks_Phase_8,316,1,48,53,646472016
87,5,22,Ticks_Phase_8,317,1,48,52,647206720
87,5,22,Ticks_Phase_8,318,5,42,127,647267708
87,5,22,Ticks_Phase_8,319,5,42,127,648067300
87,5,22,Ticks_Phase_8,320,1,48,50,648086224
87,5,22,Ticks_Phase_8,321,5,42,127,648868284
87,5,22,Ticks_Phase_8,322,1,48,52,648869844
87,5,22,Ticks_Phase_8,323,5,42,127,649667996
87,5,22,Ticks_Phase_8,324,1,48,54,649744948
87,5,22,Ticks_Phase_8,325,5,42,127,650467780
87,5,22,Ticks_Phase_8,326,1,48,50,650542640
87,5,22,Ticks_Phase_8,327,1,48,46,651261164
87,5,22,Ticks_Phase_8,328,5,42,127,651267560
87,5,22,Ticks_Phase_8,329,1,48,48,652050316
87,5,22,Ticks_Phase_8,330,5,42,127,652068248
87,5,22,Ticks_Phase_8,331,1,48,44,652853992
87,5,22,Ticks_Phase_8,332,5,42,127,652867960
87,5,22,Ticks_Phase_8,333,1,48,45,653651760
87,5,22,Ticks_Phase_8,334,5,42,127,653667968
87,5,22,Ticks_Phase_8,335,1,48,45,654444952
87,5,22,Ticks_Phase_8,336,5,42,127,654467408
87,5,22,Ticks_Phase_8,337,1,48,44,655191948
87,5,22,Ticks_Phase_8,338,5,42,127,655268092
87,5,22,Ticks_Phase_8,339,1,48,43,655986804
87,5,22,Ticks_Phase_8,340,5,42,127,656067956
87,5,22,Ticks_Phase_8,0,9999,9999,9999,520855660
87,5,22,Ticks_Phase_8,1,9999,9999,9999,521655392
87,5,22,Ticks_Phase_8,2,9999,9999,9999,522455104
87,5,22,Ticks_Phase_8,3,9999,9999,9999,523255932
87,5,22,Ticks_Phase_8,4,9999,9999,9999,524055644
87,5,22,Ticks_Phase_8,5,9999,9999,9999,524855356
87,5,22,Ticks_Phase_8,6,9999,9999,9999,525655144
87,5,22,Ticks_Phase_8,7,9999,9999,9999,526455900
87,5,22,Ticks_Phase_8,8,9999,9999,9999,527255640
87,5,22,Ticks_Phase_8,9,9999,9999,9999,528055360
87,5,22,Ticks_Phase_8,10,9999,9999,9999,528855144
87,5,22,Ticks_Phase_8,11,9999,9999,9999,529655904
87,5,22,Ticks_Phase_8,12,9999,9999,9999,530455616
87,5,22,Ticks_Phase_8,13,9999,9999,9999,531255392
87,5,22,Ticks_Phase_8,14,9999,9999,9999,532055112
87,5,22,Ticks_Phase_8,15,9999,9999,9999,532855864
87,5,22,Ticks_Phase_8,16,9999,9999,9999,533655608
87,5,22,Ticks_Phase_8,17,9999,9999,9999,534455392
87,5,22,Ticks_Phase_8,18,9999,9999,9999,535255104
87,5,22,Ticks_Phase_8,19,9999,9999,9999,536055932
87,5,22,Ticks_Phase_8,20,9999,9999,9999,536855648
87,5,22,Ticks_Phase_8,21,9999,9999,9999,537655360
87,5,22,Ticks_Phase_8,22,9999,9999,9999,538455144
87,5,22,Ticks_Phase_8,23,9999,9999,9999,539255904
87,5,22,Ticks_Phase_8,24,9999,9999,9999,540055640
87,5,22,Ticks_Phase_8,25,9999,9999,9999,540855352
87,5,22,Ticks_Phase_8,26,9999,9999,9999,541655136
87,5,22,Ticks_Phase_8,27,9999,9999,9999,542455896
87,5,22,Ticks_Phase_8,28,9999,9999,9999,543255608
87,5,22,Ticks_Phase_8,29,9999,9999,9999,544055392
87,5,22,Ticks_Phase_8,30,9999,9999,9999,544835700
87,5,22,Ticks_Phase_8,31,9999,9999,9999,545635412
87,5,22,Ticks_Phase_8,32,9999,9999,9999,546435148
87,5,22,Ticks_Phase_8,33,9999,9999,9999,547235916
87,5,22,Ticks_Phase_8,34,9999,9999,9999,548035704
87,5,22,Ticks_Phase_8,35,9999,9999,9999,548835416
87,5,22,Ticks_Phase_8,36,9999,9999,9999,549635128
87,5,22,Ticks_Phase_8,37,9999,9999,9999,550435960
87,5,22,Ticks_Phase_8,38,9999,9999,9999,551235672
87,5,22,Ticks_Phase_8,39,9999,9999,9999,552035384
87,5,22,Ticks_Phase_8,40,9999,9999,9999,552835196
87,5,22,Ticks_Phase_8,41,9999,9999,9999,553635952
87,5,22,Ticks_Phase_8,42,9999,9999,9999,554435664
87,5,22,Ticks_Phase_8,43,9999,9999,9999,555235452
87,5,22,Ticks_Phase_8,44,9999,9999,9999,556035164
87,5,22,Ticks_Phase_8,45,9999,9999,9999,556835912
87,5,22,Ticks_Phase_8,46,9999,9999,9999,557635700
87,5,22,Ticks_Phase_8,47,9999,9999,9999,558435416
87,5,22,Ticks_Phase_8,48,9999,9999,9999,559255672
87,5,22,Ticks_Phase_8,49,9999,9999,9999,560055380
87,5,22,Ticks_Phase_8,50,9999,9999,9999,560855096
87,5,22,Ticks_Phase_8,51,9999,9999,9999,561655932
87,5,22,Ticks_Phase_8,52,9999,9999,9999,562455640
87,5,22,Ticks_Phase_8,53,9999,9999,9999,563255352
87,5,22,Ticks_Phase_8,54,9999,9999,9999,564055140
87,5,22,Ticks_Phase_8,55,9999,9999,9999,564855896
87,5,22,Ticks_Phase_8,56,9999,9999,9999,565655632
87,5,22,Ticks_Phase_8,57,9999,9999,9999,566455420
87,5,22,Ticks_Phase_8,58,9999,9999,9999,567255132
87,5,22,Ticks_Phase_8,59,9999,9999,9999,568055888
87,5,22,Ticks_Phase_8,60,9999,9999,9999,568855676
87,5,22,Ticks_Phase_8,61,9999,9999,9999,569655388
87,5,22,Ticks_Phase_8,62,9999,9999,9999,570455096
87,5,22,Ticks_Phase_8,63,9999,9999,9999,571255928
87,5,22,Ticks_Phase_8,64,9999,9999,9999,572095584
87,5,22,Ticks_Phase_8,65,9999,9999,9999,572895288
87,5,22,Ticks_Phase_8,66,9999,9999,9999,573696124
87,5,22,Ticks_Phase_8,67,9999,9999,9999,574506100
87,5,22,Ticks_Phase_8,68,9999,9999,9999,575305808
87,5,22,Ticks_Phase_8,69,9999,9999,9999,576105596
87,5,22,Ticks_Phase_8,70,9999,9999,9999,576905332
87,5,22,Ticks_Phase_8,71,9999,9999,9999,577706092
87,5,22,Ticks_Phase_8,72,9999,9999,9999,578505804
87,5,22,Ticks_Phase_8,73,9999,9999,9999,579305584
87,5,22,Ticks_Phase_8,74,9999,9999,9999,580105296
87,5,22,Ticks_Phase_8,75,9999,9999,9999,580906052
87,5,22,Ticks_Phase_8,76,9999,9999,9999,581705840
87,5,22,Ticks_Phase_8,77,9999,9999,9999,582505552
87,5,22,Ticks_Phase_8,78,9999,9999,9999,583305296
87,5,22,Ticks_Phase_8,79,9999,9999,9999,584106060
87,5,22,Ticks_Phase_8,80,9999,9999,9999,584905844
87,5,22,Ticks_Phase_8,81,9999,9999,9999,585665620
87,5,22,Ticks_Phase_8,82,9999,9999,9999,586465408
87,5,22,Ticks_Phase_8,83,9999,9999,9999,587265120
87,5,22,Ticks_Phase_8,84,9999,9999,9999,588065876
87,5,22,Ticks_Phase_8,85,9999,9999,9999,588865656
87,5,22,Ticks_Phase_8,86,9999,9999,9999,589665368
87,5,22,Ticks_Phase_8,87,9999,9999,9999,590465104
87,5,22,Ticks_Phase_8,88,9999,9999,9999,591265864
87,5,22,Ticks_Phase_8,89,9999,9999,9999,592065656
87,5,22,Ticks_Phase_8,90,9999,9999,9999,592865368
87,5,22,Ticks_Phase_8,91,9999,9999,9999,593665080
87,5,22,Ticks_Phase_8,92,9999,9999,9999,594465908
87,5,22,Ticks_Phase_8,93,9999,9999,9999,595265624
87,5,22,Ticks_Phase_8,94,9999,9999,9999,596065408
87,5,22,Ticks_Phase_8,95,9999,9999,9999,596865144
87,5,22,Ticks_Phase_8,96,9999,9999,9999,597665908
87,5,22,Ticks_Phase_8,97,9999,9999,9999,598385764
87,5,22,Ticks_Phase_8,98,9999,9999,9999,599185500
87,5,22,Ticks_Phase_8,99,9999,9999,9999,599985212
87,5,22,Ticks_Phase_8,100,9999,9999,9999,600786048
87,5,22,Ticks_Phase_8,101,9999,9999,9999,601585760
87,5,22,Ticks_Phase_8,102,9999,9999,9999,602385524
87,5,22,Ticks_Phase_8,103,9999,9999,9999,603185236
87,5,22,Ticks_Phase_8,104,9999,9999,9999,603985992
87,5,22,Ticks_Phase_8,105,9999,9999,9999,604785720
87,5,22,Ticks_Phase_8,106,9999,9999,9999,605585464
87,5,22,Ticks_Phase_8,107,9999,9999,9999,606385252
87,5,22,Ticks_Phase_8,108,9999,9999,9999,607186012
87,5,22,Ticks_Phase_8,109,9999,9999,9999,607985720
87,5,22,Ticks_Phase_8,110,9999,9999,9999,608785508
87,5,22,Ticks_Phase_8,111,9999,9999,9999,609585220
87,5,22,Ticks_Phase_8,112,9999,9999,9999,610385976
87,5,22,Ticks_Phase_8,113,9999,9999,9999,611185764
87,5,22,Ticks_Phase_8,114,9999,9999,9999,612065400
87,5,22,Ticks_Phase_8,115,9999,9999,9999,612865112
87,5,22,Ticks_Phase_8,116,9999,9999,9999,613665876
87,5,22,Ticks_Phase_8,117,9999,9999,9999,614465664
87,5,22,Ticks_Phase_8,118,9999,9999,9999,615265376
87,5,22,Ticks_Phase_8,119,9999,9999,9999,616065112
87,5,22,Ticks_Phase_8,120,9999,9999,9999,616865864
87,5,22,Ticks_Phase_8,121,9999,9999,9999,617665652
87,5,22,Ticks_Phase_8,122,9999,9999,9999,618465364
87,5,22,Ticks_Phase_8,123,9999,9999,9999,619265076
87,5,22,Ticks_Phase_8,124,9999,9999,9999,620065912
87,5,22,Ticks_Phase_8,125,9999,9999,9999,620865600
87,5,22,Ticks_Phase_8,126,9999,9999,9999,621665392
87,5,22,Ticks_Phase_8,127,9999,9999,9999,622465104
87,5,22,Ticks_Phase_8,128,9999,9999,9999,623265864
87,5,22,Ticks_Phase_8,129,9999,9999,9999,624065652
87,5,22,Ticks_Phase_8,130,9999,9999,9999,624865360
87,5,22,Ticks_Phase_8,131,9999,9999,9999,625825876
87,5,22,Ticks_Phase_8,132,9999,9999,9999,626625612
87,5,22,Ticks_Phase_8,133,9999,9999,9999,627425380
87,5,22,Ticks_Phase_8,134,9999,9999,9999,628225096
87,5,22,Ticks_Phase_8,135,9999,9999,9999,629025852
87,5,22,Ticks_Phase_8,136,9999,9999,9999,629825640
87,5,22,Ticks_Phase_8,137,9999,9999,9999,630625356
87,5,22,Ticks_Phase_8,138,9999,9999,9999,631425092
87,5,22,Ticks_Phase_8,139,9999,9999,9999,632225864
87,5,22,Ticks_Phase_8,140,9999,9999,9999,633025656
87,5,22,Ticks_Phase_8,141,9999,9999,9999,633825372
87,5,22,Ticks_Phase_8,142,9999,9999,9999,634625136
87,5,22,Ticks_Phase_8,143,9999,9999,9999,635425892
87,5,22,Ticks_Phase_8,144,9999,9999,9999,636225656
87,5,22,Ticks_Phase_8,145,9999,9999,9999,637025368
87,5,22,Ticks_Phase_8,146,9999,9999,9999,637825104
87,5,22,Ticks_Phase_8,147,9999,9999,9999,638625864
87,5,22,Ticks_Phase_8,148,9999,9999,9999,639425648
87,5,22,Ticks_Phase_8,149,9999,9999,9999,640225360
87,5,22,Ticks_Phase_8,150,9999,9999,9999,640865388
87,5,22,Ticks_Phase_8,151,9999,9999,9999,641665124
87,5,22,Ticks_Phase_8,152,9999,9999,9999,642465884
87,5,22,Ticks_Phase_8,153,9999,9999,9999,643265664
87,5,22,Ticks_Phase_8,154,9999,9999,9999,644065376
87,5,22,Ticks_Phase_8,155,9999,9999,9999,644865144
87,5,22,Ticks_Phase_8,156,9999,9999,9999,645665920
87,5,22,Ticks_Phase_8,157,9999,9999,9999,646465636
87,5,22,Ticks_Phase_8,158,9999,9999,9999,647265344
87,5,22,Ticks_Phase_8,159,9999,9999,9999,648065088
87,5,22,Ticks_Phase_8,160,9999,9999,9999,648865920
87,5,22,Ticks_Phase_8,161,9999,9999,9999,649665632
87,5,22,Ticks_Phase_8,162,9999,9999,9999,650465344
87,5,22,Ticks_Phase_8,163,9999,9999,9999,651265124
87,5,22,Ticks_Phase_8,164,9999,9999,9999,652065884
87,5,22,Ticks_Phase_8,165,9999,9999,9999,652865596
87,5,22,Ticks_Phase_8,166,9999,9999,9999,653665384
87,5,22,Ticks_Phase_8,167,9999,9999,9999,654465120
87,5,22,Ticks_Phase_8,168,9999,9999,9999,655265880
87,5,22,Ticks_Phase_8,169,9999,9999,9999,656065592
87,6,23,Ticks_Phase_5,0,5,42,127,666574212
87,6,23,Ticks_Phase_5,1,5,42,127,667073776
87,6,23,Ticks_Phase_5,2,1,48,36,667281888
87,6,23,Ticks_Phase_5,3,5,42,127,667573760
87,6,23,Ticks_Phase_5,4,1,48,37,667621892
87,6,23,Ticks_Phase_5,5,1,48,36,668071984
87,6,23,Ticks_Phase_5,6,5,42,127,668074560
87,6,23,Ticks_Phase_5,7,5,42,127,668574032
87,6,23,Ticks_Phase_5,8,1,48,42,668590480
87,6,23,Ticks_Phase_5,9,5,42,127,669073720
87,6,23,Ticks_Phase_5,10,1,48,40,669088520
87,6,23,Ticks_Phase_5,11,5,42,127,669573484
87,6,23,Ticks_Phase_5,12,1,48,46,669597796
87,6,23,Ticks_Phase_5,13,5,42,127,670074592
87,6,23,Ticks_Phase_5,14,1,48,39,670137248
87,6,23,Ticks_Phase_5,15,1,48,39,670564184
87,6,23,Ticks_Phase_5,16,5,42,127,670573800
87,6,23,Ticks_Phase_5,17,1,48,37,671037888
87,6,23,Ticks_Phase_5,18,5,42,127,671073640
87,6,23,Ticks_Phase_5,19,1,48,38,671535628
87,6,23,Ticks_Phase_5,20,5,42,127,671574596
87,6,23,Ticks_Phase_5,21,1,48,35,672069984
87,6,23,Ticks_Phase_5,22,5,42,127,672074136
87,6,23,Ticks_Phase_5,23,1,48,40,672569452
87,6,23,Ticks_Phase_5,24,5,42,127,672573824
87,6,23,Ticks_Phase_5,25,1,48,43,673045172
87,6,23,Ticks_Phase_5,26,5,42,127,673073588
87,6,23,Ticks_Phase_5,27,1,48,45,673542472
87,6,23,Ticks_Phase_5,28,5,42,127,673574544
87,6,23,Ticks_Phase_5,29,1,48,46,674055032
87,6,23,Ticks_Phase_5,30,5,42,127,674074084
87,6,23,Ticks_Phase_5,31,5,42,127,674573852
87,6,23,Ticks_Phase_5,32,1,48,44,674576448
87,6,23,Ticks_Phase_5,33,1,48,48,675062276
87,6,23,Ticks_Phase_5,34,5,42,127,675074508
87,6,23,Ticks_Phase_5,35,5,42,127,675584536
87,6,23,Ticks_Phase_5,36,1,48,38,675589524
87,6,23,Ticks_Phase_5,37,5,42,127,676084072
87,6,23,Ticks_Phase_5,38,1,48,42,676089140
87,6,23,Ticks_Phase_5,39,5,42,127,676583760
87,6,23,Ticks_Phase_5,40,1,48,42,676597440
87,6,23,Ticks_Phase_5,41,5,42,127,677083448
87,6,23,Ticks_Phase_5,42,1,48,44,677098772
87,6,23,Ticks_Phase_5,43,5,42,127,677584408
87,6,23,Ticks_Phase_5,44,1,48,37,677596516
87,6,23,Ticks_Phase_5,45,5,42,127,678083948
87,6,23,Ticks_Phase_5,46,1,48,37,678084916
87,6,23,Ticks_Phase_5,47,1,48,40,678566820
87,6,23,Ticks_Phase_5,48,5,42,127,678583556
87,6,23,Ticks_Phase_5,49,1,48,44,679057900
87,6,23,Ticks_Phase_5,50,5,42,127,679084440
87,6,23,Ticks_Phase_5,51,1,48,43,679560208
87,6,23,Ticks_Phase_5,52,5,42,127,679584352
87,6,23,Ticks_Phase_5,53,1,48,41,680081156
87,6,23,Ticks_Phase_5,54,5,42,127,680083740
87,6,23,Ticks_Phase_5,55,1,48,39,680552076
87,6,23,Ticks_Phase_5,56,5,42,127,680583580
87,6,23,Ticks_Phase_5,57,1,48,38,681058944
87,6,23,Ticks_Phase_5,58,5,42,127,681084464
87,6,23,Ticks_Phase_5,59,1,48,45,681553696
87,6,23,Ticks_Phase_5,60,5,42,127,681573720
87,6,23,Ticks_Phase_5,61,1,48,43,682054284
87,6,23,Ticks_Phase_5,62,5,42,127,682073336
87,6,23,Ticks_Phase_5,63,1,48,39,682561300
87,6,23,Ticks_Phase_5,64,5,42,127,682574592
87,6,23,Ticks_Phase_5,65,1,48,42,683032996
87,6,23,Ticks_Phase_5,66,5,42,127,683073832
87,6,23,Ticks_Phase_5,67,1,48,43,683550048
87,6,23,Ticks_Phase_5,68,5,42,127,683573744
87,6,23,Ticks_Phase_5,69,1,48,46,684026444
87,6,23,Ticks_Phase_5,70,5,42,127,684074256
87,6,23,Ticks_Phase_5,71,1,48,44,684569196
87,6,23,Ticks_Phase_5,72,5,42,127,684574096
87,6,23,Ticks_Phase_5,73,5,42,127,685073792
87,6,23,Ticks_Phase_5,74,1,48,47,685084328
87,6,23,Ticks_Phase_5,75,1,48,43,685568572
87,6,23,Ticks_Phase_5,76,5,42,127,685573548
87,6,23,Ticks_Phase_5,77,1,48,42,686070652
87,6,23,Ticks_Phase_5,78,5,42,127,686074284
87,6,23,Ticks_Phase_5,79,5,42,127,686574128
87,6,23,Ticks_Phase_5,80,1,48,44,686591172
87,6,23,Ticks_Phase_5,81,1,48,45,687054532
87,6,23,Ticks_Phase_5,82,5,42,127,687073584
87,6,23,Ticks_Phase_5,83,1,48,40,687546436
87,6,23,Ticks_Phase_5,84,5,42,127,687574320
87,6,23,Ticks_Phase_5,85,1,48,45,688050008
87,6,23,Ticks_Phase_5,86,5,42,127,688074232
87,6,23,Ticks_Phase_5,87,1,48,48,688519296
87,6,23,Ticks_Phase_5,88,5,42,127,688573772
87,6,23,Ticks_Phase_5,89,1,48,43,688994400
87,6,23,Ticks_Phase_5,90,5,42,127,689073460
87,6,23,Ticks_Phase_5,91,1,48,43,689517676
87,6,23,Ticks_Phase_5,92,5,42,127,689574192
87,6,23,Ticks_Phase_5,93,1,48,40,690053188
87,6,23,Ticks_Phase_5,94,5,42,127,690074180
87,6,23,Ticks_Phase_5,95,5,42,127,690584132
87,6,23,Ticks_Phase_5,96,1,48,42,690592500
87,6,23,Ticks_Phase_5,97,5,42,127,691083672
87,6,23,Ticks_Phase_5,98,1,48,40,691091428
87,6,23,Ticks_Phase_5,99,5,42,127,691584408
87,6,23,Ticks_Phase_5,100,1,48,39,691605052
87,6,23,Ticks_Phase_5,101,5,42,127,692084096
87,6,23,Ticks_Phase_5,102,1,48,34,692125108
87,6,23,Ticks_Phase_5,103,1,48,44,692572200
87,6,23,Ticks_Phase_5,104,5,42,127,692583752
87,6,23,Ticks_Phase_5,105,5,42,127,693083448
87,6,23,Ticks_Phase_5,106,1,48,40,693109428
87,6,23,Ticks_Phase_5,107,1,48,39,693581668
87,6,23,Ticks_Phase_5,108,5,42,127,693584252
87,6,23,Ticks_Phase_5,109,1,48,40,694068632
87,6,23,Ticks_Phase_5,110,5,42,127,694083940
87,6,23,Ticks_Phase_5,111,1,48,46,694537088
87,6,23,Ticks_Phase_5,112,5,42,127,694583628
87,6,23,Ticks_Phase_5,113,1,48,35,695044868
87,6,23,Ticks_Phase_5,114,5,42,127,695084364
87,6,23,Ticks_Phase_5,115,1,48,42,695532424
87,6,23,Ticks_Phase_5,116,5,42,127,695584052
87,6,23,Ticks_Phase_5,117,1,48,34,696028664
87,6,23,Ticks_Phase_5,118,5,42,127,696083812
87,6,23,Ticks_Phase_5,119,1,48,41,696533672
87,6,23,Ticks_Phase_5,120,5,42,127,696583428
87,6,23,Ticks_Phase_5,121,1,48,40,697019428
87,6,23,Ticks_Phase_5,122,5,42,127,697084236
87,6,23,Ticks_Phase_5,123,1,48,40,697520084
87,6,23,Ticks_Phase_5,124,5,42,127,697583924
87,6,23,Ticks_Phase_5,125,1,48,43,698072728
87,6,23,Ticks_Phase_5,126,5,42,127,698083764
87,6,23,Ticks_Phase_5,127,1,48,43,698574064
87,6,23,Ticks_Phase_5,128,5,42,127,698604120
87,6,23,Ticks_Phase_5,129,1,48,44,699064016
87,6,23,Ticks_Phase_5,130,5,42,127,699103732
87,6,23,Ticks_Phase_5,131,1,48,39,699565204
87,6,23,Ticks_Phase_5,132,5,42,127,699604320
87,6,23,Ticks_Phase_5,133,1,48,40,700088700
87,6,23,Ticks_Phase_5,134,5,42,127,700104156
87,6,23,Ticks_Phase_5,135,1,48,40,700594236
87,6,23,Ticks_Phase_5,136,5,42,127,700603920
87,6,23,Ticks_Phase_5,137,1,48,40,701057820
87,6,23,Ticks_Phase_5,138,5,42,127,701103384
87,6,23,Ticks_Phase_5,139,5,42,127,701604124
87,6,23,Ticks_Phase_5,140,1,48,41,701643568
87,6,23,Ticks_Phase_5,141,5,42,127,702104112
87,6,23,Ticks_Phase_5,142,1,48,40,702112180
87,6,23,Ticks_Phase_5,143,5,42,127,702603504
87,6,23,Ticks_Phase_5,144,1,48,44,702620996
87,6,23,Ticks_Phase_5,145,1,48,43,703076092
87,6,23,Ticks_Phase_5,146,5,42,127,703104304
87,6,23,Ticks_Phase_5,147,5,42,127,703604148
87,6,23,Ticks_Phase_5,148,1,48,40,703621580
87,6,23,Ticks_Phase_5,149,5,42,127,704103736
87,6,23,Ticks_Phase_5,150,1,48,41,704112624
87,6,23,Ticks_Phase_5,151,1,48,44,704601912
87,6,23,Ticks_Phase_5,152,5,42,127,704603492
87,6,23,Ticks_Phase_5,153,5,42,127,705104232
87,6,23,Ticks_Phase_5,154,1,48,39,705110344
87,6,23,Ticks_Phase_5,155,5,42,127,705603996
87,6,23,Ticks_Phase_5,156,1,48,40,705637820
87,6,23,Ticks_Phase_5,157,1,48,39,706062912
87,6,23,Ticks_Phase_5,158,5,42,127,706103828
87,6,23,Ticks_Phase_5,159,1,48,43,706570756
87,6,23,Ticks_Phase_5,160,5,42,127,706604488
87,6,23,Ticks_Phase_5,161,5,42,127,707083592
87,6,23,Ticks_Phase_5,162,1,48,36,707091960
87,6,23,Ticks_Phase_5,163,1,48,46,707540900
87,6,23,Ticks_Phase_5,164,5,42,127,707584296
87,6,23,Ticks_Phase_5,165,1,48,43,708043368
87,6,23,Ticks_Phase_5,166,5,42,127,708084132
87,6,23,Ticks_Phase_5,167,1,48,45,708499540
87,6,23,Ticks_Phase_5,168,5,42,127,708583896
87,6,23,Ticks_Phase_5,169,1,48,38,709016980
87,6,23,Ticks_Phase_5,170,5,42,127,709083360
87,6,23,Ticks_Phase_5,171,1,48,45,709550060
87,6,23,Ticks_Phase_5,172,5,42,127,709584244
87,6,23,Ticks_Phase_5,173,1,48,44,710053280
87,6,23,Ticks_Phase_5,174,5,42,127,710083932
87,6,23,Ticks_Phase_5,175,1,48,39,710568832
87,6,23,Ticks_Phase_5,176,5,42,127,710583772
87,6,23,Ticks_Phase_5,177,1,48,40,711051388
87,6,23,Ticks_Phase_5,178,5,42,127,711084728
87,6,23,Ticks_Phase_5,179,1,48,41,711493004
87,6,23,Ticks_Phase_5,180,5,42,127,711584192
87,6,23,Ticks_Phase_5,181,1,48,39,712021440
87,6,23,Ticks_Phase_5,182,5,42,127,712083880
87,6,23,Ticks_Phase_5,183,1,48,37,712583208
87,6,23,Ticks_Phase_5,184,5,42,127,712584692
87,6,23,Ticks_Phase_5,185,1,48,34,713034376
87,6,23,Ticks_Phase_5,186,5,42,127,713084156
87,6,23,Ticks_Phase_5,187,5,42,127,713583976
87,6,23,Ticks_Phase_5,188,1,48,43,713635472
87,6,23,Ticks_Phase_5,189,5,42,127,714083788
87,6,23,Ticks_Phase_5,190,1,48,36,714151700
87,6,23,Ticks_Phase_5,191,5,42,127,714584372
87,6,23,Ticks_Phase_5,192,1,48,34,714638444
87,6,23,Ticks_Phase_5,193,1,48,38,715010928
87,6,23,Ticks_Phase_5,194,5,42,127,715044140
87,6,23,Ticks_Phase_5,195,5,42,127,715543836
87,6,23,Ticks_Phase_5,196,1,48,37,715635124
87,6,23,Ticks_Phase_5,197,5,42,127,716043748
87,6,23,Ticks_Phase_5,198,1,48,38,716086636
87,6,23,Ticks_Phase_5,199,5,42,127,716544332
87,6,23,Ticks_Phase_5,200,1,48,36,716547004
87,6,23,Ticks_Phase_5,201,5,42,127,717044020
87,6,23,Ticks_Phase_5,202,1,48,25,717097240
87,6,23,Ticks_Phase_5,203,5,42,127,717543860
87,6,23,Ticks_Phase_5,204,1,48,31,717567500
87,6,23,Ticks_Phase_5,205,1,48,38,718028160
87,6,23,Ticks_Phase_5,206,5,42,127,718043692
87,6,23,Ticks_Phase_5,207,1,48,42,718534288
87,6,23,Ticks_Phase_5,208,5,42,127,718544276
87,6,23,Ticks_Phase_5,209,1,48,41,719033300
87,6,23,Ticks_Phase_5,210,5,42,127,719043888
87,6,23,Ticks_Phase_5,211,1,48,41,719526244
87,6,23,Ticks_Phase_5,212,5,42,127,719543652
87,6,23,Ticks_Phase_5,213,1,48,43,720002056
87,6,23,Ticks_Phase_5,214,5,42,127,720044684
87,6,23,Ticks_Phase_5,215,1,48,44,720498136
87,6,23,Ticks_Phase_5,216,5,42,127,720544076
87,6,23,Ticks_Phase_5,217,1,48,44,720981692
87,6,23,Ticks_Phase_5,218,5,42,127,721043764
87,6,23,Ticks_Phase_5,219,1,48,44,721468132
87,6,23,Ticks_Phase_5,220,5,42,127,721543528
87,6,23,Ticks_Phase_5,221,1,48,44,721987364
87,6,23,Ticks_Phase_5,222,5,42,127,722044260
87,6,23,Ticks_Phase_5,223,1,48,42,722490044
87,6,23,Ticks_Phase_5,224,5,42,127,722544072
87,6,23,Ticks_Phase_5,225,1,48,40,723032800
87,6,23,Ticks_Phase_5,226,5,42,127,723043688
87,6,23,Ticks_Phase_5,227,1,48,42,723553612
87,6,23,Ticks_Phase_5,228,5,42,127,723593728
87,6,23,Ticks_Phase_5,229,1,48,43,724080620
87,6,23,Ticks_Phase_5,230,5,42,127,724094312
87,6,23,Ticks_Phase_5,231,5,42,127,724594008
87,6,23,Ticks_Phase_5,232,1,48,45,724628508
87,6,23,Ticks_Phase_5,233,5,42,127,725093744
87,6,23,Ticks_Phase_5,234,1,48,34,725171780
87,6,23,Ticks_Phase_5,235,5,42,127,725593656
87,6,23,Ticks_Phase_5,236,1,48,40,725668836
87,6,23,Ticks_Phase_5,237,1,48,38,726090380
87,6,23,Ticks_Phase_5,238,5,42,127,726094088
87,6,23,Ticks_Phase_5,239,1,48,37,726570748
87,6,23,Ticks_Phase_5,240,5,42,127,726593776
87,6,23,Ticks_Phase_5,241,1,48,36,727089312
87,6,23,Ticks_Phase_5,242,5,42,127,727093836
87,6,23,Ticks_Phase_5,243,1,48,41,727565260
87,6,23,Ticks_Phase_5,244,5,42,127,727594572
87,6,23,Ticks_Phase_5,245,1,48,38,728055892
87,6,23,Ticks_Phase_5,246,5,42,127,728094112
87,6,23,Ticks_Phase_5,247,1,48,45,728543148
87,6,23,Ticks_Phase_5,248,5,42,127,728593872
87,6,23,Ticks_Phase_5,249,1,48,41,729036464
87,6,23,Ticks_Phase_5,250,5,42,127,729093636
87,6,23,Ticks_Phase_5,251,1,48,39,729584308
87,6,23,Ticks_Phase_5,252,5,42,127,729594148
87,6,23,Ticks_Phase_5,253,1,48,44,730057860
87,6,23,Ticks_Phase_5,254,5,42,127,730093912
87,6,23,Ticks_Phase_5,255,1,48,39,730580904
87,6,23,Ticks_Phase_5,256,5,42,127,730593600
87,6,23,Ticks_Phase_5,257,1,48,42,731086664
87,6,23,Ticks_Phase_5,258,5,42,127,731094484
87,6,23,Ticks_Phase_5,259,1,48,45,731588900
87,6,23,Ticks_Phase_5,260,5,42,127,731594100
87,6,23,Ticks_Phase_5,261,1,48,40,732111200
87,6,23,Ticks_Phase_5,262,5,42,127,732194508
87,6,23,Ticks_Phase_5,263,5,42,127,732693832
87,6,23,Ticks_Phase_5,264,1,48,41,732717620
87,6,23,Ticks_Phase_5,265,5,42,127,733193744
87,6,23,Ticks_Phase_5,266,1,48,41,733239548
87,6,23,Ticks_Phase_5,267,5,42,127,733694552
87,6,23,Ticks_Phase_5,268,1,48,43,733734668
87,6,23,Ticks_Phase_5,269,5,42,127,734194020
87,6,23,Ticks_Phase_5,270,1,48,42,734227916
87,6,23,Ticks_Phase_5,271,5,42,127,734693704
87,6,23,Ticks_Phase_5,272,1,48,43,734720708
87,6,23,Ticks_Phase_5,273,1,48,41,735191804
87,6,23,Ticks_Phase_5,274,5,42,127,735193312
87,6,23,Ticks_Phase_5,275,1,48,41,735683988
87,6,23,Ticks_Phase_5,276,5,42,127,735694344
87,6,23,Ticks_Phase_5,277,5,42,127,736193892
87,6,23,Ticks_Phase_5,278,1,48,40,736218800
87,6,23,Ticks_Phase_5,279,1,48,44,736659692
87,6,23,Ticks_Phase_5,280,5,42,127,736693720
87,6,23,Ticks_Phase_5,281,1,48,35,737185664
87,6,23,Ticks_Phase_5,282,5,42,127,737194532
87,6,23,Ticks_Phase_5,283,1,48,45,737631256
87,6,23,Ticks_Phase_5,284,5,42,127,737694144
87,6,23,Ticks_Phase_5,285,1,48,38,738143228
87,6,23,Ticks_Phase_5,286,5,42,127,738193832
87,6,23,Ticks_Phase_5,287,1,48,43,738608468
87,6,23,Ticks_Phase_5,288,5,42,127,738693596
87,6,23,Ticks_Phase_5,289,1,48,37,739142160
87,6,23,Ticks_Phase_5,290,5,42,127,739194404
87,6,23,Ticks_Phase_5,291,1,48,40,739664460
87,6,23,Ticks_Phase_5,292,5,42,127,739694292
87,6,23,Ticks_Phase_5,293,1,48,41,740163628
87,6,23,Ticks_Phase_5,294,5,42,127,740193604
87,6,23,Ticks_Phase_5,295,1,48,43,740625340
87,6,23,Ticks_Phase_5,296,5,42,127,740694488
87,6,23,Ticks_Phase_5,297,1,48,34,741141320
87,6,23,Ticks_Phase_5,298,5,42,127,741194304
87,6,23,Ticks_Phase_5,299,5,42,127,741593500
87,6,23,Ticks_Phase_5,300,1,48,39,741670452
87,6,23,Ticks_Phase_5,301,1,48,40,742072488
87,6,23,Ticks_Phase_5,302,5,42,127,742094304
87,6,23,Ticks_Phase_5,303,1,48,38,742532636
87,6,23,Ticks_Phase_5,304,5,42,127,742593916
87,6,23,Ticks_Phase_5,305,1,48,32,743061828
87,6,23,Ticks_Phase_5,306,5,42,127,743093604
87,6,23,Ticks_Phase_5,307,1,48,36,743517228
87,6,23,Ticks_Phase_5,308,5,42,127,743594340
87,6,23,Ticks_Phase_5,309,1,48,31,744058348
87,6,23,Ticks_Phase_5,310,5,42,127,744094176
87,6,23,Ticks_Phase_5,311,1,48,29,744516224
87,6,23,Ticks_Phase_5,312,5,42,127,744593640
87,6,23,Ticks_Phase_5,313,1,48,33,745055604
87,6,23,Ticks_Phase_5,314,5,42,127,745093552
87,6,23,Ticks_Phase_5,315,1,48,38,745529604
87,6,23,Ticks_Phase_5,316,5,42,127,745594212
87,6,23,Ticks_Phase_5,317,1,48,42,746007424
87,6,23,Ticks_Phase_5,318,5,42,127,746093952
87,6,23,Ticks_Phase_5,319,1,48,38,746547028
87,6,23,Ticks_Phase_5,320,5,42,127,746593640
87,6,23,Ticks_Phase_5,321,1,48,43,747056532
87,6,23,Ticks_Phase_5,322,5,42,127,747094672
87,6,23,Ticks_Phase_5,323,1,48,39,747529332
87,6,23,Ticks_Phase_5,324,5,42,127,747594360
87,6,23,Ticks_Phase_5,325,1,48,38,748045348
87,6,23,Ticks_Phase_5,326,5,42,127,748093752
87,6,23,Ticks_Phase_5,327,1,48,41,748561516
87,6,23,Ticks_Phase_5,328,5,42,127,748593588
87,6,23,Ticks_Phase_5,329,1,48,38,749055208
87,6,23,Ticks_Phase_5,330,5,42,127,749094472
87,6,23,Ticks_Phase_5,331,1,48,40,749551068
87,6,23,Ticks_Phase_5,332,5,42,127,749593936
87,6,23,Ticks_Phase_5,333,1,48,42,750029116
87,6,23,Ticks_Phase_5,334,5,42,127,750093776
87,6,23,Ticks_Phase_5,335,1,48,37,750517644
87,6,23,Ticks_Phase_5,336,5,42,127,750594360
87,6,23,Ticks_Phase_5,337,1,48,44,751020548
87,6,23,Ticks_Phase_5,338,5,42,127,751104384
87,6,23,Ticks_Phase_5,0,9999,9999,9999,666571852
87,6,23,Ticks_Phase_5,1,9999,9999,9999,667071560
87,6,23,Ticks_Phase_5,2,9999,9999,9999,667571324
87,6,23,Ticks_Phase_5,3,9999,9999,9999,668072052
87,6,23,Ticks_Phase_5,4,9999,9999,9999,668571748
87,6,23,Ticks_Phase_5,5,9999,9999,9999,669071432
87,6,23,Ticks_Phase_5,6,9999,9999,9999,669571196
87,6,23,Ticks_Phase_5,7,9999,9999,9999,670071932
87,6,23,Ticks_Phase_5,8,9999,9999,9999,670571588
87,6,23,Ticks_Phase_5,9,9999,9999,9999,671071352
87,6,23,Ticks_Phase_5,10,9999,9999,9999,671572084
87,6,23,Ticks_Phase_5,11,9999,9999,9999,672071776
87,6,23,Ticks_Phase_5,12,9999,9999,9999,672571464
87,6,23,Ticks_Phase_5,13,9999,9999,9999,673071224
87,6,23,Ticks_Phase_5,14,9999,9999,9999,673571960
87,6,23,Ticks_Phase_5,15,9999,9999,9999,674071648
87,6,23,Ticks_Phase_5,16,9999,9999,9999,674571340
87,6,23,Ticks_Phase_5,17,9999,9999,9999,675072072
87,6,23,Ticks_Phase_5,18,9999,9999,9999,675582024
87,6,23,Ticks_Phase_5,19,9999,9999,9999,676081788
87,6,23,Ticks_Phase_5,20,9999,9999,9999,676581476
87,6,23,Ticks_Phase_5,21,9999,9999,9999,677081160
87,6,23,Ticks_Phase_5,22,9999,9999,9999,677581896
87,6,23,Ticks_Phase_5,23,9999,9999,9999,678081660
87,6,23,Ticks_Phase_5,24,9999,9999,9999,678581344
87,6,23,Ticks_Phase_5,25,9999,9999,9999,679082080
87,6,23,Ticks_Phase_5,26,9999,9999,9999,679581768
87,6,23,Ticks_Phase_5,27,9999,9999,9999,680081528
87,6,23,Ticks_Phase_5,28,9999,9999,9999,680581216
87,6,23,Ticks_Phase_5,29,9999,9999,9999,681081952
87,6,23,Ticks_Phase_5,30,9999,9999,9999,681571432
87,6,23,Ticks_Phase_5,31,9999,9999,9999,682071124
87,6,23,Ticks_Phase_5,32,9999,9999,9999,682571856
87,6,23,Ticks_Phase_5,33,9999,9999,9999,683071548
87,6,23,Ticks_Phase_5,34,9999,9999,9999,683571308
87,6,23,Ticks_Phase_5,35,9999,9999,9999,684072044
87,6,23,Ticks_Phase_5,36,9999,9999,9999,684571736
87,6,23,Ticks_Phase_5,37,9999,9999,9999,685071428
87,6,23,Ticks_Phase_5,38,9999,9999,9999,685571188
87,6,23,Ticks_Phase_5,39,9999,9999,9999,686071924
87,6,23,Ticks_Phase_5,40,9999,9999,9999,686571616
87,6,23,Ticks_Phase_5,41,9999,9999,9999,687071300
87,6,23,Ticks_Phase_5,42,9999,9999,9999,687572032
87,6,23,Ticks_Phase_5,43,9999,9999,9999,688071796
87,6,23,Ticks_Phase_5,44,9999,9999,9999,688571484
87,6,23,Ticks_Phase_5,45,9999,9999,9999,689071172
87,6,23,Ticks_Phase_5,46,9999,9999,9999,689571908
87,6,23,Ticks_Phase_5,47,9999,9999,9999,690071668
87,6,23,Ticks_Phase_5,48,9999,9999,9999,690581624
87,6,23,Ticks_Phase_5,49,9999,9999,9999,691081312
87,6,23,Ticks_Phase_5,50,9999,9999,9999,691582048
87,6,23,Ticks_Phase_5,51,9999,9999,9999,692081784
87,6,23,Ticks_Phase_5,52,9999,9999,9999,692581468
87,6,23,Ticks_Phase_5,53,9999,9999,9999,693081160
87,6,23,Ticks_Phase_5,54,9999,9999,9999,693581888
87,6,23,Ticks_Phase_5,55,9999,9999,9999,694081652
87,6,23,Ticks_Phase_5,56,9999,9999,9999,694581340
87,6,23,Ticks_Phase_5,57,9999,9999,9999,695082076
87,6,23,Ticks_Phase_5,58,9999,9999,9999,695581764
87,6,23,Ticks_Phase_5,59,9999,9999,9999,696081524
87,6,23,Ticks_Phase_5,60,9999,9999,9999,696581216
87,6,23,Ticks_Phase_5,61,9999,9999,9999,697081948
87,6,23,Ticks_Phase_5,62,9999,9999,9999,697581640
87,6,23,Ticks_Phase_5,63,9999,9999,9999,698081400
87,6,23,Ticks_Phase_5,64,9999,9999,9999,698601536
87,6,23,Ticks_Phase_5,65,9999,9999,9999,699101300
87,6,23,Ticks_Phase_5,66,9999,9999,9999,699602032
87,6,23,Ticks_Phase_5,67,9999,9999,9999,700101720
87,6,23,Ticks_Phase_5,68,9999,9999,9999,700601408
87,6,23,Ticks_Phase_5,69,9999,9999,9999,701101172
87,6,23,Ticks_Phase_5,70,9999,9999,9999,701601912
87,6,23,Ticks_Phase_5,71,9999,9999,9999,702101600
87,6,23,Ticks_Phase_5,72,9999,9999,9999,702601292
87,6,23,Ticks_Phase_5,73,9999,9999,9999,703102016
87,6,23,Ticks_Phase_5,74,9999,9999,9999,703601764
87,6,23,Ticks_Phase_5,75,9999,9999,9999,704101448
87,6,23,Ticks_Phase_5,76,9999,9999,9999,704601220
87,6,23,Ticks_Phase_5,77,9999,9999,9999,705101948
87,6,23,Ticks_Phase_5,78,9999,9999,9999,705601636
87,6,23,Ticks_Phase_5,79,9999,9999,9999,706101316
87,6,23,Ticks_Phase_5,80,9999,9999,9999,706602052
87,6,23,Ticks_Phase_5,81,9999,9999,9999,707081304
87,6,23,Ticks_Phase_5,82,9999,9999,9999,707582012
87,6,23,Ticks_Phase_5,83,9999,9999,9999,708081772
87,6,23,Ticks_Phase_5,84,9999,9999,9999,708581460
87,6,23,Ticks_Phase_5,85,9999,9999,9999,709081148
87,6,23,Ticks_Phase_5,86,9999,9999,9999,709581884
87,6,23,Ticks_Phase_5,87,9999,9999,9999,710081648
87,6,23,Ticks_Phase_5,88,9999,9999,9999,710581336
87,6,23,Ticks_Phase_5,89,9999,9999,9999,711082072
87,6,23,Ticks_Phase_5,90,9999,9999,9999,711581760
87,6,23,Ticks_Phase_5,91,9999,9999,9999,712081520
87,6,23,Ticks_Phase_5,92,9999,9999,9999,712581216
87,6,23,Ticks_Phase_5,93,9999,9999,9999,713081944
87,6,23,Ticks_Phase_5,94,9999,9999,9999,713581688
87,6,23,Ticks_Phase_5,95,9999,9999,9999,714081352
87,6,23,Ticks_Phase_5,96,9999,9999,9999,714582084
87,6,23,Ticks_Phase_5,97,9999,9999,9999,715041856
87,6,23,Ticks_Phase_5,98,9999,9999,9999,715541624
87,6,23,Ticks_Phase_5,99,9999,9999,9999,716041312
87,6,23,Ticks_Phase_5,100,9999,9999,9999,716542048
87,6,23,Ticks_Phase_5,101,9999,9999,9999,717041736
87,6,23,Ticks_Phase_5,102,9999,9999,9999,717541500
87,6,23,Ticks_Phase_5,103,9999,9999,9999,718041180
87,6,23,Ticks_Phase_5,104,9999,9999,9999,718541916
87,6,23,Ticks_Phase_5,105,9999,9999,9999,719041604
87,6,23,Ticks_Phase_5,106,9999,9999,9999,719541364
87,6,23,Ticks_Phase_5,107,9999,9999,9999,720042100
87,6,23,Ticks_Phase_5,108,9999,9999,9999,720541788
87,6,23,Ticks_Phase_5,109,9999,9999,9999,721041476
87,6,23,Ticks_Phase_5,110,9999,9999,9999,721541240
87,6,23,Ticks_Phase_5,111,9999,9999,9999,722041976
87,6,23,Ticks_Phase_5,112,9999,9999,9999,722541636
87,6,23,Ticks_Phase_5,113,9999,9999,9999,723041400
87,6,23,Ticks_Phase_5,114,9999,9999,9999,723591292
87,6,23,Ticks_Phase_5,115,9999,9999,9999,724092024
87,6,23,Ticks_Phase_5,116,9999,9999,9999,724591696
87,6,23,Ticks_Phase_5,117,9999,9999,9999,725091384
87,6,23,Ticks_Phase_5,118,9999,9999,9999,725591144
87,6,23,Ticks_Phase_5,119,9999,9999,9999,726091876
87,6,23,Ticks_Phase_5,120,9999,9999,9999,726591564
87,6,23,Ticks_Phase_5,121,9999,9999,9999,727091328
87,6,23,Ticks_Phase_5,122,9999,9999,9999,727592060
87,6,23,Ticks_Phase_5,123,9999,9999,9999,728091748
87,6,23,Ticks_Phase_5,124,9999,9999,9999,728591440
87,6,23,Ticks_Phase_5,125,9999,9999,9999,729091128
87,6,23,Ticks_Phase_5,126,9999,9999,9999,729591860
87,6,23,Ticks_Phase_5,127,9999,9999,9999,730091624
87,6,23,Ticks_Phase_5,128,9999,9999,9999,730591312
87,6,23,Ticks_Phase_5,129,9999,9999,9999,731092048
87,6,23,Ticks_Phase_5,130,9999,9999,9999,731591740
87,6,23,Ticks_Phase_5,131,9999,9999,9999,732191848
87,6,23,Ticks_Phase_5,132,9999,9999,9999,732691544
87,6,23,Ticks_Phase_5,133,9999,9999,9999,733191232
87,6,23,Ticks_Phase_5,134,9999,9999,9999,733691968
87,6,23,Ticks_Phase_5,135,9999,9999,9999,734191732
87,6,23,Ticks_Phase_5,136,9999,9999,9999,734691420
87,6,23,Ticks_Phase_5,137,9999,9999,9999,735191108
87,6,23,Ticks_Phase_5,138,9999,9999,9999,735691836
87,6,23,Ticks_Phase_5,139,9999,9999,9999,736191604
87,6,23,Ticks_Phase_5,140,9999,9999,9999,736691288
87,6,23,Ticks_Phase_5,141,9999,9999,9999,737192020
87,6,23,Ticks_Phase_5,142,9999,9999,9999,737691708
87,6,23,Ticks_Phase_5,143,9999,9999,9999,738191472
87,6,23,Ticks_Phase_5,144,9999,9999,9999,738691160
87,6,23,Ticks_Phase_5,145,9999,9999,9999,739191892
87,6,23,Ticks_Phase_5,146,9999,9999,9999,739691632
87,6,23,Ticks_Phase_5,147,9999,9999,9999,740191320
87,6,23,Ticks_Phase_5,148,9999,9999,9999,740692056
87,6,23,Ticks_Phase_5,149,9999,9999,9999,741191792
87,6,23,Ticks_Phase_5,150,9999,9999,9999,741591140
87,6,23,Ticks_Phase_5,151,9999,9999,9999,742091868
87,6,23,Ticks_Phase_5,152,9999,9999,9999,742591556
87,6,23,Ticks_Phase_5,153,9999,9999,9999,743091320
87,6,23,Ticks_Phase_5,154,9999,9999,9999,743592052
87,6,23,Ticks_Phase_5,155,9999,9999,9999,744091740
87,6,23,Ticks_Phase_5,156,9999,9999,9999,744591428
87,6,23,Ticks_Phase_5,157,9999,9999,9999,745091192
87,6,23,Ticks_Phase_5,158,9999,9999,9999,745591928
87,6,23,Ticks_Phase_5,159,9999,9999,9999,746091592
87,6,23,Ticks_Phase_5,160,9999,9999,9999,746591352
87,6,23,Ticks_Phase_5,161,9999,9999,9999,747092088
87,6,23,Ticks_Phase_5,162,9999,9999,9999,747591780
87,6,23,Ticks_Phase_5,163,9999,9999,9999,748091464
87,6,23,Ticks_Phase_5,164,9999,9999,9999,748591228
87,6,23,Ticks_Phase_5,165,9999,9999,9999,749091964
87,6,23,Ticks_Phase_5,166,9999,9999,9999,749591652
87,6,23,Ticks_Phase_5,167,9999,9999,9999,750091340
87,6,23,Ticks_Phase_5,168,9999,9999,9999,750592072
87,6,23,Ticks_Phase_5,169,9999,9999,9999,751102020
87,7,9,Ticks_ISO_T2_8,0,5,42,127,762143164
87,7,9,Ticks_ISO_T2_8,1,1,48,42,762631544
87,7,9,Ticks_ISO_T2_8,2,5,42,127,762942896
87,7,9,Ticks_ISO_T2_8,3,1,48,35,763236404
87,7,9,Ticks_ISO_T2_8,4,5,42,127,763742552
87,7,9,Ticks_ISO_T2_8,5,1,48,48,763857816
87,7,9,Ticks_ISO_T2_8,6,1,48,45,764515544
87,7,9,Ticks_ISO_T2_8,7,5,42,127,764543280
87,7,9,Ticks_ISO_T2_8,8,1,48,48,765223280
87,7,9,Ticks_ISO_T2_8,9,5,42,127,765343072
87,7,9,Ticks_ISO_T2_8,10,1,48,47,766052332
87,7,9,Ticks_ISO_T2_8,11,5,42,127,766143044
87,7,9,Ticks_ISO_T2_8,12,1,48,51,766918740
87,7,9,Ticks_ISO_T2_8,13,5,42,127,766942556
87,7,9,Ticks_ISO_T2_8,14,5,42,127,767743416
87,7,9,Ticks_ISO_T2_8,15,1,48,49,767760452
87,7,9,Ticks_ISO_T2_8,16,5,42,127,768543152
87,7,9,Ticks_ISO_T2_8,17,1,48,55,768561900
87,7,9,Ticks_ISO_T2_8,18,5,42,127,769343104
87,7,9,Ticks_ISO_T2_8,19,1,48,51,769345044
87,7,9,Ticks_ISO_T2_8,20,5,42,127,770142468
87,7,9,Ticks_ISO_T2_8,21,1,48,47,770145060
87,7,9,Ticks_ISO_T2_8,22,5,42,127,770943272
87,7,9,Ticks_ISO_T2_8,23,1,48,48,770982888
87,7,9,Ticks_ISO_T2_8,24,1,48,47,771721724
87,7,9,Ticks_ISO_T2_8,25,5,42,127,771743076
87,7,9,Ticks_ISO_T2_8,26,1,48,48,772483756
87,7,9,Ticks_ISO_T2_8,27,5,42,127,772543032
87,7,9,Ticks_ISO_T2_8,28,1,48,46,773274892
87,7,9,Ticks_ISO_T2_8,29,5,42,127,773342764
87,7,9,Ticks_ISO_T2_8,30,1,48,52,774139324
87,7,9,Ticks_ISO_T2_8,31,5,42,127,774143320
87,7,9,Ticks_ISO_T2_8,32,5,42,127,774943060
87,7,9,Ticks_ISO_T2_8,33,1,48,48,774969668
87,7,9,Ticks_ISO_T2_8,34,5,42,127,775742720
87,7,9,Ticks_ISO_T2_8,35,1,48,47,775757580
87,7,9,Ticks_ISO_T2_8,36,1,48,45,776535004
87,7,9,Ticks_ISO_T2_8,37,5,42,127,776542820
87,7,9,Ticks_ISO_T2_8,38,5,42,127,777343256
87,7,9,Ticks_ISO_T2_8,39,1,48,40,777362084
87,7,9,Ticks_ISO_T2_8,40,1,48,48,778024668
87,7,9,Ticks_ISO_T2_8,41,5,42,127,778142968
87,7,9,Ticks_ISO_T2_8,42,1,48,43,778878580
87,7,9,Ticks_ISO_T2_8,43,5,42,127,778942864
87,7,9,Ticks_ISO_T2_8,44,1,48,52,779719976
87,7,9,Ticks_ISO_T2_8,45,5,42,127,779742748
87,7,9,Ticks_ISO_T2_8,46,5,42,127,780543312
87,7,9,Ticks_ISO_T2_8,47,1,48,49,780571560
87,7,9,Ticks_ISO_T2_8,48,5,42,127,781343120
87,7,9,Ticks_ISO_T2_8,49,1,48,43,781400172
87,7,9,Ticks_ISO_T2_8,50,5,42,127,782142704
87,7,9,Ticks_ISO_T2_8,51,1,48,42,782186516
87,7,9,Ticks_ISO_T2_8,52,5,42,127,782942584
87,7,9,Ticks_ISO_T2_8,53,1,48,42,782982232
87,7,9,Ticks_ISO_T2_8,54,5,42,127,783743240
87,7,9,Ticks_ISO_T2_8,55,1,48,44,783783756
87,7,9,Ticks_ISO_T2_8,56,5,42,127,784543052
87,7,9,Ticks_ISO_T2_8,57,1,48,43,784579080
87,7,9,Ticks_ISO_T2_8,58,1,48,40,785336612
87,7,9,Ticks_ISO_T2_8,59,5,42,127,785342852
87,7,9,Ticks_ISO_T2_8,60,1,48,50,786100136
87,7,9,Ticks_ISO_T2_8,61,5,42,127,786142584
87,7,9,Ticks_ISO_T2_8,62,1,48,48,786930388
87,7,9,Ticks_ISO_T2_8,63,5,42,127,786943288
87,7,9,Ticks_ISO_T2_8,64,5,42,127,787743104
87,7,9,Ticks_ISO_T2_8,65,1,48,48,787789160
87,7,9,Ticks_ISO_T2_8,66,5,42,127,788542840
87,7,9,Ticks_ISO_T2_8,67,1,48,51,788586948
87,7,9,Ticks_ISO_T2_8,68,5,42,127,789342644
87,7,9,Ticks_ISO_T2_8,69,1,48,48,789407876
87,7,9,Ticks_ISO_T2_8,70,5,42,127,790143600
87,7,9,Ticks_ISO_T2_8,71,1,48,48,790233116
87,7,9,Ticks_ISO_T2_8,72,5,42,127,790943036
87,7,9,Ticks_ISO_T2_8,73,1,48,54,791015116
87,7,9,Ticks_ISO_T2_8,74,5,42,127,791742772
87,7,9,Ticks_ISO_T2_8,75,1,48,49,791800416
87,7,9,Ticks_ISO_T2_8,76,5,42,127,792542504
87,7,9,Ticks_ISO_T2_8,77,1,48,54,792578536
87,7,9,Ticks_ISO_T2_8,78,1,48,47,793339724
87,7,9,Ticks_ISO_T2_8,79,5,42,127,793343500
87,7,9,Ticks_ISO_T2_8,80,5,42,127,794142944
87,7,9,Ticks_ISO_T2_8,81,1,48,47,794160868
87,7,9,Ticks_ISO_T2_8,82,5,42,127,794942972
87,7,9,Ticks_ISO_T2_8,83,1,48,53,794967412
87,7,9,Ticks_ISO_T2_8,84,5,42,127,795742708
87,7,9,Ticks_ISO_T2_8,85,1,48,46,795781456
87,7,9,Ticks_ISO_T2_8,86,5,42,127,796543584
87,7,9,Ticks_ISO_T2_8,87,1,48,53,796582684
87,7,9,Ticks_ISO_T2_8,88,5,42,127,797343020
87,7,9,Ticks_ISO_T2_8,89,1,48,43,797366416
87,7,9,Ticks_ISO_T2_8,90,5,42,127,798142680
87,7,9,Ticks_ISO_T2_8,91,1,48,48,798183344
87,7,9,Ticks_ISO_T2_8,92,5,42,127,798942712
87,7,9,Ticks_ISO_T2_8,93,1,48,42,798988092
87,7,9,Ticks_ISO_T2_8,94,5,42,127,799743344
87,7,9,Ticks_ISO_T2_8,95,1,48,43,799756256
87,7,9,Ticks_ISO_T2_8,96,1,48,50,800523368
87,7,9,Ticks_ISO_T2_8,97,5,42,127,800543072
87,7,9,Ticks_ISO_T2_8,98,1,48,50,801315396
87,7,9,Ticks_ISO_T2_8,99,5,42,127,801342880
87,7,9,Ticks_ISO_T2_8,100,5,42,127,802142548
87,7,9,Ticks_ISO_T2_8,101,1,48,47,802149408
87,7,9,Ticks_ISO_T2_8,102,5,42,127,802943424
87,7,9,Ticks_ISO_T2_8,103,1,48,49,802966668
87,7,9,Ticks_ISO_T2_8,104,5,42,127,803743160
87,7,9,Ticks_ISO_T2_8,105,1,48,46,803786896
87,7,9,Ticks_ISO_T2_8,106,5,42,127,804542816
87,7,9,Ticks_ISO_T2_8,107,1,48,46,804599416
87,7,9,Ticks_ISO_T2_8,108,5,42,127,805342552
87,7,9,Ticks_ISO_T2_8,109,1,48,44,805375364
87,7,9,Ticks_ISO_T2_8,110,5,42,127,806143332
87,7,9,Ticks_ISO_T2_8,111,1,48,48,806160960
87,7,9,Ticks_ISO_T2_8,112,5,42,127,806943288
87,7,9,Ticks_ISO_T2_8,113,1,48,46,806958600
87,7,9,Ticks_ISO_T2_8,114,5,42,127,807743244
87,7,9,Ticks_ISO_T2_8,115,1,48,42,807765292
87,7,9,Ticks_ISO_T2_8,116,5,42,127,808542460
87,7,9,Ticks_ISO_T2_8,117,1,48,47,808546624
87,7,9,Ticks_ISO_T2_8,118,5,42,127,809343336
87,7,9,Ticks_ISO_T2_8,119,1,48,47,809387224
87,7,9,Ticks_ISO_T2_8,120,5,42,127,810143144
87,7,9,Ticks_ISO_T2_8,121,1,48,44,810180748
87,7,9,Ticks_ISO_T2_8,122,5,42,127,810943024
87,7,9,Ticks_ISO_T2_8,123,1,48,44,810993868
87,7,9,Ticks_ISO_T2_8,124,5,42,127,811742464
87,7,9,Ticks_ISO_T2_8,125,1,48,39,811756800
87,7,9,Ticks_ISO_T2_8,126,1,48,40,812491588
87,7,9,Ticks_ISO_T2_8,127,5,42,127,812543308
87,7,9,Ticks_ISO_T2_8,128,5,42,127,813343272
87,7,9,Ticks_ISO_T2_8,129,1,48,45,813352676
87,7,9,Ticks_ISO_T2_8,130,5,42,127,814142784
87,7,9,Ticks_ISO_T2_8,131,1,48,48,814168120
87,7,9,Ticks_ISO_T2_8,132,5,42,127,814942592
87,7,9,Ticks_ISO_T2_8,133,1,48,46,814990312
87,7,9,Ticks_ISO_T2_8,134,5,42,127,815743320
87,7,9,Ticks_ISO_T2_8,135,1,48,48,815765516
87,7,9,Ticks_ISO_T2_8,136,1,48,38,816520352
87,7,9,Ticks_ISO_T2_8,137,5,42,127,816543048
87,7,9,Ticks_ISO_T2_8,138,1,48,44,817256632
87,7,9,Ticks_ISO_T2_8,139,5,42,127,817342780
87,7,9,Ticks_ISO_T2_8,140,5,42,127,818142596
87,7,9,Ticks_ISO_T2_8,141,1,48,47,818162920
87,7,9,Ticks_ISO_T2_8,142,1,48,47,818912068
87,7,9,Ticks_ISO_T2_8,143,5,42,127,818943516
87,7,9,Ticks_ISO_T2_8,144,5,42,127,819743184
87,7,9,Ticks_ISO_T2_8,145,1,48,48,819782952
87,7,9,Ticks_ISO_T2_8,146,5,42,127,820542988
87,7,9,Ticks_ISO_T2_8,147,1,48,47,820562340
87,7,9,Ticks_ISO_T2_8,148,5,42,127,821342424
87,7,9,Ticks_ISO_T2_8,149,1,48,46,821358132
87,7,9,Ticks_ISO_T2_8,150,5,42,127,822143380
87,7,9,Ticks_ISO_T2_8,151,1,48,43,822154948
87,7,9,Ticks_ISO_T2_8,152,1,48,49,822925496
87,7,9,Ticks_ISO_T2_8,153,5,42,127,822943180
87,7,9,Ticks_ISO_T2_8,154,5,42,127,823742920
87,7,9,Ticks_ISO_T2_8,155,1,48,48,823747836
87,7,9,Ticks_ISO_T2_8,156,5,42,127,824542580
87,7,9,Ticks_ISO_T2_8,157,1,48,40,824573672
87,7,9,Ticks_ISO_T2_8,158,5,42,127,825343212
87,7,9,Ticks_ISO_T2_8,159,1,48,41,825383132
87,7,9,Ticks_ISO_T2_8,160,5,42,127,826143092
87,7,9,Ticks_ISO_T2_8,161,1,48,45,826175832
87,7,9,Ticks_ISO_T2_8,162,5,42,127,826943048
87,7,9,Ticks_ISO_T2_8,163,1,48,41,826987684
87,7,9,Ticks_ISO_T2_8,164,5,42,127,827742756
87,7,9,Ticks_ISO_T2_8,165,1,48,41,827753280
87,7,9,Ticks_ISO_T2_8,166,1,48,43,828510364
87,7,9,Ticks_ISO_T2_8,167,5,42,127,828543480
87,7,9,Ticks_ISO_T2_8,168,1,48,47,829330616
87,7,9,Ticks_ISO_T2_8,169,5,42,127,829343068
87,7,9,Ticks_ISO_T2_8,170,5,42,127,830143028
87,7,9,Ticks_ISO_T2_8,171,1,48,43,830150412
87,7,9,Ticks_ISO_T2_8,172,5,42,127,830942688
87,7,9,Ticks_ISO_T2_8,173,1,48,48,831012600
87,7,9,Ticks_ISO_T2_8,174,5,42,127,831743320
87,7,9,Ticks_ISO_T2_8,175,1,48,46,831800668
87,7,9,Ticks_ISO_T2_8,176,5,42,127,832543128
87,7,9,Ticks_ISO_T2_8,177,1,48,45,832601896
87,7,9,Ticks_ISO_T2_8,178,5,42,127,833343084
87,7,9,Ticks_ISO_T2_8,179,1,48,50,833427160
87,7,9,Ticks_ISO_T2_8,180,5,42,127,834142820
87,7,9,Ticks_ISO_T2_8,181,1,48,41,834242680
87,7,9,Ticks_ISO_T2_8,182,5,42,127,834943472
87,7,9,Ticks_ISO_T2_8,183,1,48,45,834970376
87,7,9,Ticks_ISO_T2_8,184,5,42,127,835743060
87,7,9,Ticks_ISO_T2_8,185,1,48,46,835747224
87,7,9,Ticks_ISO_T2_8,186,5,42,127,836543016
87,7,9,Ticks_ISO_T2_8,187,1,48,52,836554732
87,7,9,Ticks_ISO_T2_8,188,5,42,127,837342748
87,7,9,Ticks_ISO_T2_8,189,1,48,46,837372864
87,7,9,Ticks_ISO_T2_8,190,1,48,46,838117980
87,7,9,Ticks_ISO_T2_8,191,5,42,127,838143520
87,7,9,Ticks_ISO_T2_8,192,5,42,127,838942964
87,7,9,Ticks_ISO_T2_8,193,1,48,40,838957676
87,7,9,Ticks_ISO_T2_8,194,5,42,127,839742772
87,7,9,Ticks_ISO_T2_8,195,1,48,43,839785080
87,7,9,Ticks_ISO_T2_8,196,5,42,127,840542800
87,7,9,Ticks_ISO_T2_8,197,1,48,44,840578632
87,7,9,Ticks_ISO_T2_8,198,5,42,127,841343456
87,7,9,Ticks_ISO_T2_8,199,1,48,44,841430276
87,7,9,Ticks_ISO_T2_8,200,5,42,127,842143116
87,7,9,Ticks_ISO_T2_8,201,1,48,35,842183936
87,7,9,Ticks_ISO_T2_8,202,5,42,127,842942776
87,7,9,Ticks_ISO_T2_8,203,1,48,48,842943740
87,7,9,Ticks_ISO_T2_8,204,5,42,127,843742660
87,7,9,Ticks_ISO_T2_8,205,1,48,54,843814144
87,7,9,Ticks_ISO_T2_8,206,5,42,127,844543288
87,7,9,Ticks_ISO_T2_8,207,1,48,49,844622032
87,7,9,Ticks_ISO_T2_8,208,5,42,127,845343020
87,7,9,Ticks_ISO_T2_8,209,1,48,50,845450584
87,7,9,Ticks_ISO_T2_8,210,5,42,127,846142828
87,7,9,Ticks_ISO_T2_8,211,1,48,48,846219652
87,7,9,Ticks_ISO_T2_8,212,5,42,127,846942636
87,7,9,Ticks_ISO_T2_8,213,1,48,51,846953688
87,7,9,Ticks_ISO_T2_8,214,1,48,52,847723032
87,7,9,Ticks_ISO_T2_8,215,5,42,127,847743260
87,7,9,Ticks_ISO_T2_8,216,5,42,127,848543076
87,7,9,Ticks_ISO_T2_8,217,1,48,49,848582920
87,7,9,Ticks_ISO_T2_8,218,5,42,127,849342808
87,7,9,Ticks_ISO_T2_8,219,1,48,47,849353332
87,7,9,Ticks_ISO_T2_8,220,1,48,51,850133228
87,7,9,Ticks_ISO_T2_8,221,5,42,127,850142688
87,7,9,Ticks_ISO_T2_8,222,5,42,127,850943324
87,7,9,Ticks_ISO_T2_8,223,1,48,46,850947788
87,7,9,Ticks_ISO_T2_8,224,5,42,127,851742984
87,7,9,Ticks_ISO_T2_8,225,1,48,51,851762032
87,7,9,Ticks_ISO_T2_8,226,5,42,127,852542720
87,7,9,Ticks_ISO_T2_8,227,1,48,46,852586000
87,7,9,Ticks_ISO_T2_8,228,1,48,51,853315404
87,7,9,Ticks_ISO_T2_8,229,5,42,127,853342516
87,7,9,Ticks_ISO_T2_8,230,5,42,127,854143552
87,7,9,Ticks_ISO_T2_8,231,1,48,47,854167316
87,7,9,Ticks_ISO_T2_8,232,5,42,127,854943060
87,7,9,Ticks_ISO_T2_8,233,1,48,48,854960692
87,7,9,Ticks_ISO_T2_8,234,5,42,127,855742724
87,7,9,Ticks_ISO_T2_8,235,1,48,49,855770968
87,7,9,Ticks_ISO_T2_8,236,1,48,44,856536284
87,7,9,Ticks_ISO_T2_8,237,5,42,127,856542524
87,7,9,Ticks_ISO_T2_8,238,1,48,53,857263980
87,7,9,Ticks_ISO_T2_8,239,5,42,127,857343676
87,7,9,Ticks_ISO_T2_8,240,1,48,47,858112636
87,7,9,Ticks_ISO_T2_8,0,9999,9999,9999,762140724
87,7,9,Ticks_ISO_T2_8,1,9999,9999,9999,762940532
87,7,9,Ticks_ISO_T2_8,2,9999,9999,9999,763740264
87,7,9,Ticks_ISO_T2_8,3,9999,9999,9999,764540988
87,7,9,Ticks_ISO_T2_8,4,9999,9999,9999,765340784
87,7,9,Ticks_ISO_T2_8,5,9999,9999,9999,766140532
87,7,9,Ticks_ISO_T2_8,6,9999,9999,9999,766940264
87,7,9,Ticks_ISO_T2_8,7,9999,9999,9999,767740980
87,7,9,Ticks_ISO_T2_8,8,9999,9999,9999,768540788
87,7,9,Ticks_ISO_T2_8,9,9999,9999,9999,769340520
87,7,9,Ticks_ISO_T2_8,10,9999,9999,9999,770140252
87,7,9,Ticks_ISO_T2_8,11,9999,9999,9999,770940980
87,7,9,Ticks_ISO_T2_8,12,9999,9999,9999,771740784
87,7,9,Ticks_ISO_T2_8,13,9999,9999,9999,772540520
87,7,9,Ticks_ISO_T2_8,14,9999,9999,9999,773340252
87,7,9,Ticks_ISO_T2_8,15,9999,9999,9999,774141032
87,7,9,Ticks_ISO_T2_8,16,9999,9999,9999,774940772
87,7,9,Ticks_ISO_T2_8,17,9999,9999,9999,775740504
87,7,9,Ticks_ISO_T2_8,18,9999,9999,9999,776540232
87,7,9,Ticks_ISO_T2_8,19,9999,9999,9999,777341044
87,7,9,Ticks_ISO_T2_8,20,9999,9999,9999,778140752
87,7,9,Ticks_ISO_T2_8,21,9999,9999,9999,778940500
87,7,9,Ticks_ISO_T2_8,22,9999,9999,9999,779740236
87,7,9,Ticks_ISO_T2_8,23,9999,9999,9999,780541024
87,7,9,Ticks_ISO_T2_8,24,9999,9999,9999,781340756
87,7,9,Ticks_ISO_T2_8,25,9999,9999,9999,782140492
87,7,9,Ticks_ISO_T2_8,26,9999,9999,9999,782940220
87,7,9,Ticks_ISO_T2_8,27,9999,9999,9999,783741028
87,7,9,Ticks_ISO_T2_8,28,9999,9999,9999,784540760
87,7,9,Ticks_ISO_T2_8,29,9999,9999,9999,785340488
87,7,9,Ticks_ISO_T2_8,30,9999,9999,9999,786140220
87,7,9,Ticks_ISO_T2_8,31,9999,9999,9999,786941000
87,7,9,Ticks_ISO_T2_8,32,9999,9999,9999,787740740
87,7,9,Ticks_ISO_T2_8,33,9999,9999,9999,788540476
87,7,9,Ticks_ISO_T2_8,34,9999,9999,9999,789340208
87,7,9,Ticks_ISO_T2_8,35,9999,9999,9999,790141012
87,7,9,Ticks_ISO_T2_8,36,9999,9999,9999,790940744
87,7,9,Ticks_ISO_T2_8,37,9999,9999,9999,791740480
87,7,9,Ticks_ISO_T2_8,38,9999,9999,9999,792540216
87,7,9,Ticks_ISO_T2_8,39,9999,9999,9999,793340988
87,7,9,Ticks_ISO_T2_8,40,9999,9999,9999,794140728
87,7,9,Ticks_ISO_T2_8,41,9999,9999,9999,794940536
87,7,9,Ticks_ISO_T2_8,42,9999,9999,9999,795740268
87,7,9,Ticks_ISO_T2_8,43,9999,9999,9999,796541000
87,7,9,Ticks_ISO_T2_8,44,9999,9999,9999,797340732
87,7,9,Ticks_ISO_T2_8,45,9999,9999,9999,798140468
87,7,9,Ticks_ISO_T2_8,46,9999,9999,9999,798940272
87,7,9,Ticks_ISO_T2_8,47,9999,9999,9999,799740980
87,7,9,Ticks_ISO_T2_8,48,9999,9999,9999,800540784
87,7,9,Ticks_ISO_T2_8,49,9999,9999,9999,801340516
87,7,9,Ticks_ISO_T2_8,50,9999,9999,9999,802140256
87,7,9,Ticks_ISO_T2_8,51,9999,9999,9999,802940988
87,7,9,Ticks_ISO_T2_8,52,9999,9999,9999,803740720
87,7,9,Ticks_ISO_T2_8,53,9999,9999,9999,804540528
87,7,9,Ticks_ISO_T2_8,54,9999,9999,9999,805340260
87,7,9,Ticks_ISO_T2_8,55,9999,9999,9999,806141044
87,7,9,Ticks_ISO_T2_8,56,9999,9999,9999,806940776
87,7,9,Ticks_ISO_T2_8,57,9999,9999,9999,807740508
87,7,9,Ticks_ISO_T2_8,58,9999,9999,9999,808540244
87,7,9,Ticks_ISO_T2_8,59,9999,9999,9999,809341048
87,7,9,Ticks_ISO_T2_8,60,9999,9999,9999,810140780
87,7,9,Ticks_ISO_T2_8,61,9999,9999,9999,810940512
87,7,9,Ticks_ISO_T2_8,62,9999,9999,9999,811740248
87,7,9,Ticks_ISO_T2_8,63,9999,9999,9999,812541020
87,7,9,Ticks_ISO_T2_8,64,9999,9999,9999,813340760
87,7,9,Ticks_ISO_T2_8,65,9999,9999,9999,814140496
87,7,9,Ticks_ISO_T2_8,66,9999,9999,9999,814940228
87,7,9,Ticks_ISO_T2_8,67,9999,9999,9999,815741032
87,7,9,Ticks_ISO_T2_8,68,9999,9999,9999,816540760
87,7,9,Ticks_ISO_T2_8,69,9999,9999,9999,817340492
87,7,9,Ticks_ISO_T2_8,70,9999,9999,9999,818140232
87,7,9,Ticks_ISO_T2_8,71,9999,9999,9999,818941004
87,7,9,Ticks_ISO_T2_8,72,9999,9999,9999,819740744
87,7,9,Ticks_ISO_T2_8,73,9999,9999,9999,820540476
87,7,9,Ticks_ISO_T2_8,74,9999,9999,9999,821340208
87,7,9,Ticks_ISO_T2_8,75,9999,9999,9999,822141016
87,7,9,Ticks_ISO_T2_8,76,9999,9999,9999,822940744
87,7,9,Ticks_ISO_T2_8,77,9999,9999,9999,823740484
87,7,9,Ticks_ISO_T2_8,78,9999,9999,9999,824540216
87,7,9,Ticks_ISO_T2_8,79,9999,9999,9999,825340996
87,7,9,Ticks_ISO_T2_8,80,9999,9999,9999,826140728
87,7,9,Ticks_ISO_T2_8,81,9999,9999,9999,826940536
87,7,9,Ticks_ISO_T2_8,82,9999,9999,9999,827740244
87,7,9,Ticks_ISO_T2_8,83,9999,9999,9999,828541044
87,7,9,Ticks_ISO_T2_8,84,9999,9999,9999,829340776
87,7,9,Ticks_ISO_T2_8,85,9999,9999,9999,830140516
87,7,9,Ticks_ISO_T2_8,86,9999,9999,9999,830940248
87,7,9,Ticks_ISO_T2_8,87,9999,9999,9999,831741032
87,7,9,Ticks_ISO_T2_8,88,9999,9999,9999,832540764
87,7,9,Ticks_ISO_T2_8,89,9999,9999,9999,833340496
87,7,9,Ticks_ISO_T2_8,90,9999,9999,9999,834140232
87,7,9,Ticks_ISO_T2_8,91,9999,9999,9999,834941036
87,7,9,Ticks_ISO_T2_8,92,9999,9999,9999,835740768
87,7,9,Ticks_ISO_T2_8,93,9999,9999,9999,836540504
87,7,9,Ticks_ISO_T2_8,94,9999,9999,9999,837340236
87,7,9,Ticks_ISO_T2_8,95,9999,9999,9999,838141008
87,7,9,Ticks_ISO_T2_8,96,9999,9999,9999,838940748
87,7,9,Ticks_ISO_T2_8,97,9999,9999,9999,839740480
87,7,9,Ticks_ISO_T2_8,98,9999,9999,9999,840540216
87,7,9,Ticks_ISO_T2_8,99,9999,9999,9999,841341020
87,7,9,Ticks_ISO_T2_8,100,9999,9999,9999,842140752
87,7,9,Ticks_ISO_T2_8,101,9999,9999,9999,842940488
87,7,9,Ticks_ISO_T2_8,102,9999,9999,9999,843740220
87,7,9,Ticks_ISO_T2_8,103,9999,9999,9999,844541000
87,7,9,Ticks_ISO_T2_8,104,9999,9999,9999,845340732
87,7,9,Ticks_ISO_T2_8,105,9999,9999,9999,846140464
87,7,9,Ticks_ISO_T2_8,106,9999,9999,9999,846940272
87,7,9,Ticks_ISO_T2_8,107,9999,9999,9999,847741048
87,7,9,Ticks_ISO_T2_8,108,9999,9999,9999,848540788
87,7,9,Ticks_ISO_T2_8,109,9999,9999,9999,849340520
87,7,9,Ticks_ISO_T2_8,110,9999,9999,9999,850140248
87,7,9,Ticks_ISO_T2_8,111,9999,9999,9999,850941032
87,7,9,Ticks_ISO_T2_8,112,9999,9999,9999,851740768
87,7,9,Ticks_ISO_T2_8,113,9999,9999,9999,852540504
87,7,9,Ticks_ISO_T2_8,114,9999,9999,9999,853340228
87,7,9,Ticks_ISO_T2_8,115,9999,9999,9999,854141040
87,7,9,Ticks_ISO_T2_8,116,9999,9999,9999,854940772
87,7,9,Ticks_ISO_T2_8,117,9999,9999,9999,855740508
87,7,9,Ticks_ISO_T2_8,118,9999,9999,9999,856540236
87,7,9,Ticks_ISO_T2_8,119,9999,9999,9999,857341016
87,8,10,Ticks_ISO_T2_5,0,5,42,127,867580496
87,8,10,Ticks_ISO_T2_5,1,5,42,127,868080288
87,8,10,Ticks_ISO_T2_5,2,1,48,37,868539876
87,8,10,Ticks_ISO_T2_5,3,5,42,127,868579628
87,8,10,Ticks_ISO_T2_5,4,1,48,42,869034780
87,8,10,Ticks_ISO_T2_5,5,5,42,127,869080296
87,8,10,Ticks_ISO_T2_5,6,1,48,43,869521312
87,8,10,Ticks_ISO_T2_5,7,5,42,127,869580216
87,8,10,Ticks_ISO_T2_5,8,1,48,40,870048460
87,8,10,Ticks_ISO_T2_5,9,5,42,127,870079836
87,8,10,Ticks_ISO_T2_5,10,5,42,127,870579536
87,8,10,Ticks_ISO_T2_5,11,1,48,35,870613992
87,8,10,Ticks_ISO_T2_5,12,1,48,41,871053684
87,8,10,Ticks_ISO_T2_5,13,5,42,127,871080344
87,8,10,Ticks_ISO_T2_5,14,1,48,39,871563996
87,8,10,Ticks_ISO_T2_5,15,5,42,127,871580112
87,8,10,Ticks_ISO_T2_5,16,1,48,41,872051728
87,8,10,Ticks_ISO_T2_5,17,5,42,127,872079736
87,8,10,Ticks_ISO_T2_5,18,1,48,42,872579360
87,8,10,Ticks_ISO_T2_5,19,5,42,127,872580772
87,8,10,Ticks_ISO_T2_5,20,1,48,36,873076848
87,8,10,Ticks_ISO_T2_5,21,5,42,127,873080096
87,8,10,Ticks_ISO_T2_5,22,5,42,127,873579872
87,8,10,Ticks_ISO_T2_5,23,1,48,38,873607676
87,8,10,Ticks_ISO_T2_5,24,5,42,127,874079540
87,8,10,Ticks_ISO_T2_5,25,1,48,37,874085348
87,8,10,Ticks_ISO_T2_5,26,5,42,127,874580284
87,8,10,Ticks_ISO_T2_5,27,1,48,35,874592304
87,8,10,Ticks_ISO_T2_5,28,5,42,127,875079976
87,8,10,Ticks_ISO_T2_5,29,1,48,37,875080944
87,8,10,Ticks_ISO_T2_5,30,1,48,37,875536244
87,8,10,Ticks_ISO_T2_5,31,5,42,127,875579664
87,8,10,Ticks_ISO_T2_5,32,1,48,40,876070200
87,8,10,Ticks_ISO_T2_5,33,5,42,127,876079656
87,8,10,Ticks_ISO_T2_5,34,1,48,40,876532872
87,8,10,Ticks_ISO_T2_5,35,5,42,127,876580176
87,8,10,Ticks_ISO_T2_5,36,1,48,38,877060540
87,8,10,Ticks_ISO_T2_5,37,5,42,127,877080020
87,8,10,Ticks_ISO_T2_5,38,1,48,45,877544224
87,8,10,Ticks_ISO_T2_5,39,5,42,127,877579492
87,8,10,Ticks_ISO_T2_5,40,1,48,42,878038536
87,8,10,Ticks_ISO_T2_5,41,5,42,127,878080232
87,8,10,Ticks_ISO_T2_5,42,1,48,48,878560372
87,8,10,Ticks_ISO_T2_5,43,5,42,127,878580076
87,8,10,Ticks_ISO_T2_5,44,1,48,43,879058052
87,8,10,Ticks_ISO_T2_5,45,5,42,127,879079924
87,8,10,Ticks_ISO_T2_5,46,1,48,46,879555124
87,8,10,Ticks_ISO_T2_5,47,5,42,127,879579468
87,8,10,Ticks_ISO_T2_5,48,1,48,40,880055188
87,8,10,Ticks_ISO_T2_5,49,5,42,127,880080284
87,8,10,Ticks_ISO_T2_5,50,1,48,51,880542924
87,8,10,Ticks_ISO_T2_5,51,5,42,127,880580128
87,8,10,Ticks_ISO_T2_5,52,5,42,127,881079608
87,8,10,Ticks_ISO_T2_5,53,1,48,48,881109504
87,8,10,Ticks_ISO_T2_5,54,5,42,127,881580276
87,8,10,Ticks_ISO_T2_5,55,1,48,39,881609872
87,8,10,Ticks_ISO_T2_5,56,1,48,44,882053524
87,8,10,Ticks_ISO_T2_5,57,5,42,127,882080184
87,8,10,Ticks_ISO_T2_5,58,1,48,42,882535912
87,8,10,Ticks_ISO_T2_5,59,5,42,127,882579804
87,8,10,Ticks_ISO_T2_5,60,1,48,43,883024684
87,8,10,Ticks_ISO_T2_5,61,5,42,127,883079424
87,8,10,Ticks_ISO_T2_5,62,1,48,41,883536124
87,8,10,Ticks_ISO_T2_5,63,5,42,127,883580240
87,8,10,Ticks_ISO_T2_5,64,1,48,46,884027892
87,8,10,Ticks_ISO_T2_5,65,5,42,127,884080008
87,8,10,Ticks_ISO_T2_5,66,1,48,41,884506868
87,8,10,Ticks_ISO_T2_5,67,5,42,127,884579900
87,8,10,Ticks_ISO_T2_5,68,1,48,32,884991896
87,8,10,Ticks_ISO_T2_5,69,5,42,127,885080492
87,8,10,Ticks_ISO_T2_5,70,5,42,127,885580048
87,8,10,Ticks_ISO_T2_5,71,1,48,39,885619168
87,8,10,Ticks_ISO_T2_5,72,5,42,127,886079816
87,8,10,Ticks_ISO_T2_5,73,1,48,43,886121556
87,8,10,Ticks_ISO_T2_5,74,5,42,127,886579508
87,8,10,Ticks_ISO_T2_5,75,1,48,42,886617188
87,8,10,Ticks_ISO_T2_5,76,1,48,32,887035032
87,8,10,Ticks_ISO_T2_5,77,5,42,127,887080316
87,8,10,Ticks_ISO_T2_5,78,5,42,127,887579944
87,8,10,Ticks_ISO_T2_5,79,1,48,36,887647688
87,8,10,Ticks_ISO_T2_5,80,1,48,36,888042948
87,8,10,Ticks_ISO_T2_5,81,5,42,127,888079856
87,8,10,Ticks_ISO_T2_5,82,5,42,127,888579408
87,8,10,Ticks_ISO_T2_5,83,1,48,38,888647376
87,8,10,Ticks_ISO_T2_5,84,1,48,33,889069640
87,8,10,Ticks_ISO_T2_5,85,5,42,127,889080144
87,8,10,Ticks_ISO_T2_5,86,5,42,127,889579920
87,8,10,Ticks_ISO_T2_5,87,1,48,34,889589396
87,8,10,Ticks_ISO_T2_5,88,1,48,39,890063416
87,8,10,Ticks_ISO_T2_5,89,5,42,127,890079532
87,8,10,Ticks_ISO_T2_5,90,1,48,40,890555104
87,8,10,Ticks_ISO_T2_5,91,5,42,127,890580272
87,8,10,Ticks_ISO_T2_5,92,1,48,37,891062288
87,8,10,Ticks_ISO_T2_5,93,5,42,127,891079968
87,8,10,Ticks_ISO_T2_5,94,1,48,43,891580044
87,8,10,Ticks_ISO_T2_5,95,5,42,127,891581304
87,8,10,Ticks_ISO_T2_5,96,1,48,41,892030556
87,8,10,Ticks_ISO_T2_5,97,5,42,127,892079508
87,8,10,Ticks_ISO_T2_5,98,1,48,38,892572892
87,8,10,Ticks_ISO_T2_5,99,5,42,127,892580252
87,8,10,Ticks_ISO_T2_5,100,5,42,127,893080028
87,8,10,Ticks_ISO_T2_5,101,1,48,40,893095784
87,8,10,Ticks_ISO_T2_5,102,1,48,42,893556492
87,8,10,Ticks_ISO_T2_5,103,5,42,127,893579564
87,8,10,Ticks_ISO_T2_5,104,1,48,36,894074808
87,8,10,Ticks_ISO_T2_5,105,5,42,127,894080232
87,8,10,Ticks_ISO_T2_5,106,1,48,45,894550472
87,8,10,Ticks_ISO_T2_5,107,5,42,127,894580148
87,8,10,Ticks_ISO_T2_5,108,5,42,127,895080052
87,8,10,Ticks_ISO_T2_5,109,1,48,36,895085812
87,8,10,Ticks_ISO_T2_5,110,1,48,42,895561980
87,8,10,Ticks_ISO_T2_5,111,5,42,127,895579440
87,8,10,Ticks_ISO_T2_5,112,1,48,41,896040428
87,8,10,Ticks_ISO_T2_5,113,5,42,127,896080108
87,8,10,Ticks_ISO_T2_5,114,5,42,127,896579884
87,8,10,Ticks_ISO_T2_5,115,1,48,39,896583900
87,8,10,Ticks_ISO_T2_5,116,1,48,43,897063980
87,8,10,Ticks_ISO_T2_5,117,5,42,127,897079868
87,8,10,Ticks_ISO_T2_5,118,1,48,37,897567116
87,8,10,Ticks_ISO_T2_5,119,5,42,127,897580460
87,8,10,Ticks_ISO_T2_5,120,1,48,39,898054016
87,8,10,Ticks_ISO_T2_5,121,5,42,127,898080156
87,8,10,Ticks_ISO_T2_5,122,1,48,32,898577812
87,8,10,Ticks_ISO_T2_5,123,5,42,127,898579852
87,8,10,Ticks_ISO_T2_5,124,1,48,40,899069416
87,8,10,Ticks_ISO_T2_5,125,5,42,127,899079472
87,8,10,Ticks_ISO_T2_5,126,1,48,33,899551756
87,8,10,Ticks_ISO_T2_5,127,5,42,127,899580216
87,8,10,Ticks_ISO_T2_5,128,1,48,37,900018988
87,8,10,Ticks_ISO_T2_5,129,5,42,127,900079908
87,8,10,Ticks_ISO_T2_5,130,1,48,38,900578324
87,8,10,Ticks_ISO_T2_5,131,5,42,127,900579976
87,8,10,Ticks_ISO_T2_5,132,1,48,38,901058696
87,8,10,Ticks_ISO_T2_5,133,5,42,127,901080640
87,8,10,Ticks_ISO_T2_5,134,1,48,39,901576716
87,8,10,Ticks_ISO_T2_5,135,5,42,127,901580112
87,8,10,Ticks_ISO_T2_5,136,1,48,36,902042520
87,8,10,Ticks_ISO_T2_5,137,5,42,127,902079956
87,8,10,Ticks_ISO_T2_5,138,1,48,39,902528088
87,8,10,Ticks_ISO_T2_5,139,5,42,127,902579728
87,8,10,Ticks_ISO_T2_5,140,1,48,39,903052012
87,8,10,Ticks_ISO_T2_5,141,5,42,127,903080244
87,8,10,Ticks_ISO_T2_5,142,1,48,40,903553204
87,8,10,Ticks_ISO_T2_5,143,5,42,127,903579940
87,8,10,Ticks_ISO_T2_5,144,1,48,44,904043700
87,8,10,Ticks_ISO_T2_5,145,5,42,127,904079932
87,8,10,Ticks_ISO_T2_5,146,1,48,38,904495868
87,8,10,Ticks_ISO_T2_5,147,5,42,127,904579848
87,8,10,Ticks_ISO_T2_5,148,1,48,37,905019500
87,8,10,Ticks_ISO_T2_5,149,5,42,127,905080216
87,8,10,Ticks_ISO_T2_5,150,1,48,37,905531464
87,8,10,Ticks_ISO_T2_5,151,5,42,127,905579840
87,8,10,Ticks_ISO_T2_5,152,1,48,37,906004528
87,8,10,Ticks_ISO_T2_5,153,5,42,127,906079880
87,8,10,Ticks_ISO_T2_5,154,1,48,41,906542740
87,8,10,Ticks_ISO_T2_5,155,5,42,127,906580248
87,8,10,Ticks_ISO_T2_5,156,1,48,46,907029272
87,8,10,Ticks_ISO_T2_5,157,5,42,127,907080020
87,8,10,Ticks_ISO_T2_5,158,1,48,32,907532780
87,8,10,Ticks_ISO_T2_5,159,5,42,127,907579788
87,8,10,Ticks_ISO_T2_5,160,1,48,39,908050052
87,8,10,Ticks_ISO_T2_5,161,5,42,127,908079704
87,8,10,Ticks_ISO_T2_5,162,1,48,42,908552592
87,8,10,Ticks_ISO_T2_5,163,5,42,127,908580224
87,8,10,Ticks_ISO_T2_5,164,1,48,33,909080000
87,8,10,Ticks_ISO_T2_5,165,5,42,127,909081264
87,8,10,Ticks_ISO_T2_5,166,1,48,40,909573152
87,8,10,Ticks_ISO_T2_5,167,5,42,127,909579616
87,8,10,Ticks_ISO_T2_5,168,1,48,40,910071792
87,8,10,Ticks_ISO_T2_5,169,5,42,127,910080580
87,8,10,Ticks_ISO_T2_5,170,5,42,127,910579984
87,8,10,Ticks_ISO_T2_5,171,1,48,35,910592156
87,8,10,Ticks_ISO_T2_5,172,1,48,38,911063480
87,8,10,Ticks_ISO_T2_5,173,5,42,127,911079744
87,8,10,Ticks_ISO_T2_5,174,5,42,127,911579520
87,8,10,Ticks_ISO_T2_5,175,1,48,38,911590496
87,8,10,Ticks_ISO_T2_5,176,5,42,127,912080188
87,8,10,Ticks_ISO_T2_5,177,1,48,35,912118684
87,8,10,Ticks_ISO_T2_5,178,1,48,40,912540644
87,8,10,Ticks_ISO_T2_5,179,5,42,127,912579952
87,8,10,Ticks_ISO_T2_5,180,1,48,41,913018128
87,8,10,Ticks_ISO_T2_5,181,5,42,127,913079644
87,8,10,Ticks_ISO_T2_5,182,1,48,42,913503512
87,8,10,Ticks_ISO_T2_5,183,5,42,127,913580464
87,8,10,Ticks_ISO_T2_5,184,1,48,38,914031956
87,8,10,Ticks_ISO_T2_5,185,5,42,127,914080080
87,8,10,Ticks_ISO_T2_5,186,1,48,37,914545936
87,8,10,Ticks_ISO_T2_5,187,5,42,127,914579704
87,8,10,Ticks_ISO_T2_5,188,1,48,38,914993472
87,8,10,Ticks_ISO_T2_5,189,5,42,127,915079544
87,8,10,Ticks_ISO_T2_5,190,1,48,39,915535796
87,8,10,Ticks_ISO_T2_5,191,5,42,127,915580136
87,8,10,Ticks_ISO_T2_5,192,1,48,37,915988596
87,8,10,Ticks_ISO_T2_5,193,5,42,127,916079908
87,8,10,Ticks_ISO_T2_5,194,1,48,37,916528532
87,8,10,Ticks_ISO_T2_5,195,5,42,127,916579652
87,8,10,Ticks_ISO_T2_5,196,1,48,34,917074004
87,8,10,Ticks_ISO_T2_5,197,5,42,127,917080468
87,8,10,Ticks_ISO_T2_5,198,5,42,127,917580244
87,8,10,Ticks_ISO_T2_5,199,1,48,35,917586128
87,8,10,Ticks_ISO_T2_5,200,1,48,37,918058800
87,8,10,Ticks_ISO_T2_5,201,5,42,127,918079708
87,8,10,Ticks_ISO_T2_5,202,1,48,37,918571364
87,8,10,Ticks_ISO_T2_5,203,5,42,127,918579476
87,8,10,Ticks_ISO_T2_5,204,1,48,37,919063428
87,8,10,Ticks_ISO_T2_5,205,5,42,127,919080588
87,8,10,Ticks_ISO_T2_5,206,5,42,127,919579992
87,8,10,Ticks_ISO_T2_5,207,1,48,41,919593880
87,8,10,Ticks_ISO_T2_5,208,1,48,41,920077568
87,8,10,Ticks_ISO_T2_5,209,5,42,127,920079680
87,8,10,Ticks_ISO_T2_5,210,5,42,127,920579384
87,8,10,Ticks_ISO_T2_5,211,1,48,34,920597764
87,8,10,Ticks_ISO_T2_5,212,1,48,36,921066624
87,8,10,Ticks_ISO_T2_5,213,5,42,127,921080120
87,8,10,Ticks_ISO_T2_5,214,5,42,127,921579820
87,8,10,Ticks_ISO_T2_5,215,1,48,38,921625048
87,8,10,Ticks_ISO_T2_5,216,1,48,40,922031452
87,8,10,Ticks_ISO_T2_5,217,5,42,127,922079580
87,8,10,Ticks_ISO_T2_5,218,5,42,127,922580552
87,8,10,Ticks_ISO_T2_5,219,1,48,37,922584644
87,8,10,Ticks_ISO_T2_5,220,1,48,36,923062256
87,8,10,Ticks_ISO_T2_5,221,5,42,127,923080168
87,8,10,Ticks_ISO_T2_5,222,1,48,35,923575564
87,8,10,Ticks_ISO_T2_5,223,5,42,127,923579864
87,8,10,Ticks_ISO_T2_5,224,1,48,40,924054992
87,8,10,Ticks_ISO_T2_5,225,5,42,127,924079412
87,8,10,Ticks_ISO_T2_5,226,1,48,39,924544512
87,8,10,Ticks_ISO_T2_5,227,5,42,127,924580376
87,8,10,Ticks_ISO_T2_5,228,1,48,37,925065972
87,8,10,Ticks_ISO_T2_5,229,5,42,127,925079920
87,8,10,Ticks_ISO_T2_5,230,1,48,35,925551232
87,8,10,Ticks_ISO_T2_5,231,5,42,127,925579616
87,8,10,Ticks_ISO_T2_5,232,1,48,37,926043868
87,8,10,Ticks_ISO_T2_5,233,5,42,127,926080580
87,8,10,Ticks_ISO_T2_5,234,1,48,36,926508708
87,8,10,Ticks_ISO_T2_5,235,5,42,127,926580272
87,8,10,Ticks_ISO_T2_5,236,1,48,40,927042588
87,8,10,Ticks_ISO_T2_5,237,5,42,127,927079744
87,8,10,Ticks_ISO_T2_5,238,1,48,34,927537044
87,8,10,Ticks_ISO_T2_5,239,5,42,127,927579564
87,8,10,Ticks_ISO_T2_5,240,1,48,36,928007420
87,8,10,Ticks_ISO_T2_5,241,5,42,127,928080528
87,8,10,Ticks_ISO_T2_5,242,1,48,29,928560148
87,8,10,Ticks_ISO_T2_5,243,5,42,127,928580000
87,8,10,Ticks_ISO_T2_5,244,1,48,39,929074124
87,8,10,Ticks_ISO_T2_5,245,5,42,127,929079768
87,8,10,Ticks_ISO_T2_5,246,1,48,36,929574120
87,8,10,Ticks_ISO_T2_5,247,5,42,127,929580436
87,8,10,Ticks_ISO_T2_5,248,5,42,127,930080284
87,8,10,Ticks_ISO_T2_5,249,1,48,35,930082884
87,8,10,Ticks_ISO_T2_5,250,5,42,127,930579680
87,8,10,Ticks_ISO_T2_5,251,1,48,41,930586388
87,8,10,Ticks_ISO_T2_5,252,5,42,127,931079600
87,8,10,Ticks_ISO_T2_5,253,1,48,37,931106576
87,8,10,Ticks_ISO_T2_5,254,5,42,127,931580416
87,8,10,Ticks_ISO_T2_5,255,1,48,39,931594152
87,8,10,Ticks_ISO_T2_5,256,5,42,127,932080184
87,8,10,Ticks_ISO_T2_5,257,1,48,35,932091160
87,8,10,Ticks_ISO_T2_5,0,9999,9999,9999,867577916
87,8,10,Ticks_ISO_T2_5,1,9999,9999,9999,868077632
87,8,10,Ticks_ISO_T2_5,2,9999,9999,9999,868577340
87,8,10,Ticks_ISO_T2_5,3,9999,9999,9999,869078084
87,8,10,Ticks_ISO_T2_5,4,9999,9999,9999,869577780
87,8,10,Ticks_ISO_T2_5,5,9999,9999,9999,870077548
87,8,10,Ticks_ISO_T2_5,6,9999,9999,9999,870577248
87,8,10,Ticks_ISO_T2_5,7,9999,9999,9999,871077984
87,8,10,Ticks_ISO_T2_5,8,9999,9999,9999,871577680
87,8,10,Ticks_ISO_T2_5,9,9999,9999,9999,872077372
87,8,10,Ticks_ISO_T2_5,10,9999,9999,9999,872577076
87,8,10,Ticks_ISO_T2_5,11,9999,9999,9999,873077812
87,8,10,Ticks_ISO_T2_5,12,9999,9999,9999,873577584
87,8,10,Ticks_ISO_T2_5,13,9999,9999,9999,874077256
87,8,10,Ticks_ISO_T2_5,14,9999,9999,9999,874577996
87,8,10,Ticks_ISO_T2_5,15,9999,9999,9999,875077692
87,8,10,Ticks_ISO_T2_5,16,9999,9999,9999,875577452
87,8,10,Ticks_ISO_T2_5,17,9999,9999,9999,876077148
87,8,10,Ticks_ISO_T2_5,18,9999,9999,9999,876577888
87,8,10,Ticks_ISO_T2_5,19,9999,9999,9999,877077584
87,8,10,Ticks_ISO_T2_5,20,9999,9999,9999,877577280
87,8,10,Ticks_ISO_T2_5,21,9999,9999,9999,878078020
87,8,10,Ticks_ISO_T2_5,22,9999,9999,9999,878577716
87,8,10,Ticks_ISO_T2_5,23,9999,9999,9999,879077488
87,8,10,Ticks_ISO_T2_5,24,9999,9999,9999,879577180
87,8,10,Ticks_ISO_T2_5,25,9999,9999,9999,880077924
87,8,10,Ticks_ISO_T2_5,26,9999,9999,9999,880577620
87,8,10,Ticks_ISO_T2_5,27,9999,9999,9999,881077320
87,8,10,Ticks_ISO_T2_5,28,9999,9999,9999,881578060
87,8,10,Ticks_ISO_T2_5,29,9999,9999,9999,882077748
87,8,10,Ticks_ISO_T2_5,30,9999,9999,9999,882577516
87,8,10,Ticks_ISO_T2_5,31,9999,9999,9999,883077212
87,8,10,Ticks_ISO_T2_5,32,9999,9999,9999,883577952
87,8,10,Ticks_ISO_T2_5,33,9999,9999,9999,884077648
87,8,10,Ticks_ISO_T2_5,34,9999,9999,9999,884577392
87,8,10,Ticks_ISO_T2_5,35,9999,9999,9999,885078132
87,8,10,Ticks_ISO_T2_5,36,9999,9999,9999,885577832
87,8,10,Ticks_ISO_T2_5,37,9999,9999,9999,886077528
87,8,10,Ticks_ISO_T2_5,38,9999,9999,9999,886577224
87,8,10,Ticks_ISO_T2_5,39,9999,9999,9999,887077956
87,8,10,Ticks_ISO_T2_5,40,9999,9999,9999,887577656
87,8,10,Ticks_ISO_T2_5,41,9999,9999,9999,888077420
87,8,10,Ticks_ISO_T2_5,42,9999,9999,9999,888577120
87,8,10,Ticks_ISO_T2_5,43,9999,9999,9999,889077856
87,8,10,Ticks_ISO_T2_5,44,9999,9999,9999,889577556
87,8,10,Ticks_ISO_T2_5,45,9999,9999,9999,890077244
87,8,10,Ticks_ISO_T2_5,46,9999,9999,9999,890577988
87,8,10,Ticks_ISO_T2_5,47,9999,9999,9999,891077684
87,8,10,Ticks_ISO_T2_5,48,9999,9999,9999,891577460
87,8,10,Ticks_ISO_T2_5,49,9999,9999,9999,892077148
87,8,10,Ticks_ISO_T2_5,50,9999,9999,9999,892577892
87,8,10,Ticks_ISO_T2_5,51,9999,9999,9999,893077592
87,8,10,Ticks_ISO_T2_5,52,9999,9999,9999,893577280
87,8,10,Ticks_ISO_T2_5,53,9999,9999,9999,894078020
87,8,10,Ticks_ISO_T2_5,54,9999,9999,9999,894577716
87,8,10,Ticks_ISO_T2_5,55,9999,9999,9999,895077464
87,8,10,Ticks_ISO_T2_5,56,9999,9999,9999,895577152
87,8,10,Ticks_ISO_T2_5,57,9999,9999,9999,896077896
87,8,10,Ticks_ISO_T2_5,58,9999,9999,9999,896577596
87,8,10,Ticks_ISO_T2_5,59,9999,9999,9999,897077360
87,8,10,Ticks_ISO_T2_5,60,9999,9999,9999,897578100
87,8,10,Ticks_ISO_T2_5,61,9999,9999,9999,898077796
87,8,10,Ticks_ISO_T2_5,62,9999,9999,9999,898577528
87,8,10,Ticks_ISO_T2_5,63,9999,9999,9999,899077188
87,8,10,Ticks_ISO_T2_5,64,9999,9999,9999,899577928
87,8,10,Ticks_ISO_T2_5,65,9999,9999,9999,900077624
87,8,10,Ticks_ISO_T2_5,66,9999,9999,9999,900577400
87,8,10,Ticks_ISO_T2_5,67,9999,9999,9999,901078132
87,8,10,Ticks_ISO_T2_5,68,9999,9999,9999,901577828
87,8,10,Ticks_ISO_T2_5,69,9999,9999,9999,902077520
87,8,10,Ticks_ISO_T2_5,70,9999,9999,9999,902577220
87,8,10,Ticks_ISO_T2_5,71,9999,9999,9999,903077960
87,8,10,Ticks_ISO_T2_5,72,9999,9999,9999,903577652
87,8,10,Ticks_ISO_T2_5,73,9999,9999,9999,904077424
87,8,10,Ticks_ISO_T2_5,74,9999,9999,9999,904577116
87,8,10,Ticks_ISO_T2_5,75,9999,9999,9999,905077856
87,8,10,Ticks_ISO_T2_5,76,9999,9999,9999,905577552
87,8,10,Ticks_ISO_T2_5,77,9999,9999,9999,906077296
87,8,10,Ticks_ISO_T2_5,78,9999,9999,9999,906578036
87,8,10,Ticks_ISO_T2_5,79,9999,9999,9999,907077732
87,8,10,Ticks_ISO_T2_5,80,9999,9999,9999,907577428
87,8,10,Ticks_ISO_T2_5,81,9999,9999,9999,908077124
87,8,10,Ticks_ISO_T2_5,82,9999,9999,9999,908577864
87,8,10,Ticks_ISO_T2_5,83,9999,9999,9999,909077564
87,8,10,Ticks_ISO_T2_5,84,9999,9999,9999,909577328
87,8,10,Ticks_ISO_T2_5,85,9999,9999,9999,910078068
87,8,10,Ticks_ISO_T2_5,86,9999,9999,9999,910577772
87,8,10,Ticks_ISO_T2_5,87,9999,9999,9999,911077460
87,8,10,Ticks_ISO_T2_5,88,9999,9999,9999,911577160
87,8,10,Ticks_ISO_T2_5,89,9999,9999,9999,912077900
87,8,10,Ticks_ISO_T2_5,90,9999,9999,9999,912577592
87,8,10,Ticks_ISO_T2_5,91,9999,9999,9999,913077360
87,8,10,Ticks_ISO_T2_5,92,9999,9999,9999,913578100
87,8,10,Ticks_ISO_T2_5,93,9999,9999,9999,914077796
87,8,10,Ticks_ISO_T2_5,94,9999,9999,9999,914577492
87,8,10,Ticks_ISO_T2_5,95,9999,9999,9999,915077184
87,8,10,Ticks_ISO_T2_5,96,9999,9999,9999,915577924
87,8,10,Ticks_ISO_T2_5,97,9999,9999,9999,916077620
87,8,10,Ticks_ISO_T2_5,98,9999,9999,9999,916577364
87,8,10,Ticks_ISO_T2_5,99,9999,9999,9999,917078104
87,8,10,Ticks_ISO_T2_5,100,9999,9999,9999,917577808
87,8,10,Ticks_ISO_T2_5,101,9999,9999,9999,918077496
87,8,10,Ticks_ISO_T2_5,102,9999,9999,9999,918577264
87,8,10,Ticks_ISO_T2_5,103,9999,9999,9999,919078008
87,8,10,Ticks_ISO_T2_5,104,9999,9999,9999,919577708
87,8,10,Ticks_ISO_T2_5,105,9999,9999,9999,920077432
87,8,10,Ticks_ISO_T2_5,106,9999,9999,9999,920577096
87,8,10,Ticks_ISO_T2_5,107,9999,9999,9999,921077832
87,8,10,Ticks_ISO_T2_5,108,9999,9999,9999,921577532
87,8,10,Ticks_ISO_T2_5,109,9999,9999,9999,922077296
87,8,10,Ticks_ISO_T2_5,110,9999,9999,9999,922577968
87,8,10,Ticks_ISO_T2_5,111,9999,9999,9999,923077732
87,8,10,Ticks_ISO_T2_5,112,9999,9999,9999,923577428
87,8,10,Ticks_ISO_T2_5,113,9999,9999,9999,924077124
87,8,10,Ticks_ISO_T2_5,114,9999,9999,9999,924577864
87,8,10,Ticks_ISO_T2_5,115,9999,9999,9999,925077560
87,8,10,Ticks_ISO_T2_5,116,9999,9999,9999,925577328
87,8,10,Ticks_ISO_T2_5,117,9999,9999,9999,926078068
87,8,10,Ticks_ISO_T2_5,118,9999,9999,9999,926577764
87,8,10,Ticks_ISO_T2_5,119,9999,9999,9999,927077432
87,8,10,Ticks_ISO_T2_5,120,9999,9999,9999,927577204
87,8,10,Ticks_ISO_T2_5,121,9999,9999,9999,928077944
87,8,10,Ticks_ISO_T2_5,122,9999,9999,9999,928577640
87,8,10,Ticks_ISO_T2_5,123,9999,9999,9999,929077336
87,8,10,Ticks_ISO_T2_5,124,9999,9999,9999,929578076
87,8,10,Ticks_ISO_T2_5,125,9999,9999,9999,930077776
87,8,10,Ticks_ISO_T2_5,126,9999,9999,9999,930577468
87,8,10,Ticks_ISO_T2_5,127,9999,9999,9999,931077240
87,8,10,Ticks_ISO_T2_5,128,9999,9999,9999,931577904
87,8,10,Ticks_ISO_T2_5,129,9999,9999,9999,932077676
87,9,20,Ticks_Linear_8,0,5,42,127,942802288
87,9,20,Ticks_Linear_8,1,1,48,28,943460432
87,9,20,Ticks_Linear_8,2,5,42,127,943621412
87,9,20,Ticks_Linear_8,3,1,48,38,944375568
87,9,20,Ticks_Linear_8,4,5,42,127,944441888
87,9,20,Ticks_Linear_8,5,1,48,44,945214460
87,9,20,Ticks_Linear_8,6,5,42,127,945262008
87,9,20,Ticks_Linear_8,7,1,48,46,946058160
87,9,20,Ticks_Linear_8,8,5,42,127,946082100
87,9,20,Ticks_Linear_8,9,1,48,37,946874964
87,9,20,Ticks_Linear_8,10,5,42,127,946892084
87,9,20,Ticks_Linear_8,11,1,48,46,947683680
87,9,20,Ticks_Linear_8,12,5,42,127,947701992
87,9,20,Ticks_Linear_8,13,1,48,41,948496348
87,9,20,Ticks_Linear_8,14,5,42,127,948512048
87,9,20,Ticks_Linear_8,15,1,48,42,949299384
87,9,20,Ticks_Linear_8,16,5,42,127,949322032
87,9,20,Ticks_Linear_8,17,1,48,47,950115724
87,9,20,Ticks_Linear_8,18,5,42,127,950132044
87,9,20,Ticks_Linear_8,19,1,48,41,950877176
87,9,20,Ticks_Linear_8,20,5,42,127,950931840
87,9,20,Ticks_Linear_8,21,1,48,44,951650924
87,9,20,Ticks_Linear_8,22,5,42,127,951731564
87,9,20,Ticks_Linear_8,23,1,48,42,952479792
87,9,20,Ticks_Linear_8,24,5,42,127,952532408
87,9,20,Ticks_Linear_8,25,1,48,46,953290308
87,9,20,Ticks_Linear_8,26,5,42,127,953332056
87,9,20,Ticks_Linear_8,27,1,48,49,954097140
87,9,20,Ticks_Linear_8,28,5,42,127,954132004
87,9,20,Ticks_Linear_8,29,5,42,127,954922376
87,9,20,Ticks_Linear_8,30,1,48,47,954929236
87,9,20,Ticks_Linear_8,31,5,42,127,955711840
87,9,20,Ticks_Linear_8,32,1,48,46,955734428
87,9,20,Ticks_Linear_8,33,5,42,127,956502424
87,9,20,Ticks_Linear_8,34,1,48,48,956552076
87,9,20,Ticks_Linear_8,35,1,48,47,957263984
87,9,20,Ticks_Linear_8,36,5,42,127,957291980
87,9,20,Ticks_Linear_8,37,1,48,40,958079824
87,9,20,Ticks_Linear_8,38,5,42,127,958082420
87,9,20,Ticks_Linear_8,39,1,48,42,958851624
87,9,20,Ticks_Linear_8,40,5,42,127,958872032
87,9,20,Ticks_Linear_8,41,1,48,48,959648272
87,9,20,Ticks_Linear_8,42,5,42,127,959652212
87,9,20,Ticks_Linear_8,43,5,42,127,960431424
87,9,20,Ticks_Linear_8,44,1,48,44,960476256
87,9,20,Ticks_Linear_8,45,5,42,127,961211824
87,9,20,Ticks_Linear_8,46,1,48,48,961232840
87,9,20,Ticks_Linear_8,47,1,48,45,961965516
87,9,20,Ticks_Linear_8,48,5,42,127,961991920
87,9,20,Ticks_Linear_8,49,5,42,127,962762072
87,9,20,Ticks_Linear_8,50,1,48,43,962765116
87,9,20,Ticks_Linear_8,51,1,48,37,963527968
87,9,20,Ticks_Linear_8,52,5,42,127,963532132
87,9,20,Ticks_Linear_8,53,1,48,43,964251840
87,9,20,Ticks_Linear_8,54,5,42,127,964302272
87,9,20,Ticks_Linear_8,55,1,48,44,964991276
87,9,20,Ticks_Linear_8,56,5,42,127,965072264
87,9,20,Ticks_Linear_8,57,1,48,46,965749276
87,9,20,Ticks_Linear_8,58,5,42,127,965842260
87,9,20,Ticks_Linear_8,59,1,48,45,966549152
87,9,20,Ticks_Linear_8,60,5,42,127,966602144
87,9,20,Ticks_Linear_8,61,5,42,127,967361888
87,9,20,Ticks_Linear_8,62,1,48,46,967376460
87,9,20,Ticks_Linear_8,63,1,48,40,968120108
87,9,20,Ticks_Linear_8,64,5,42,127,968121764
87,9,20,Ticks_Linear_8,65,5,42,127,968881728
87,9,20,Ticks_Linear_8,66,1,48,47,968894956
87,9,20,Ticks_Linear_8,67,5,42,127,969642512
87,9,20,Ticks_Linear_8,68,1,48,40,969656260
87,9,20,Ticks_Linear_8,69,5,42,127,970391836
87,9,20,Ticks_Linear_8,70,1,48,40,970417272
87,9,20,Ticks_Linear_8,71,1,48,48,971137368
87,9,20,Ticks_Linear_8,72,5,42,127,971141756
87,9,20,Ticks_Linear_8,73,5,42,127,971892208
87,9,20,Ticks_Linear_8,74,1,48,45,971906412
87,9,20,Ticks_Linear_8,75,5,42,127,972641808
87,9,20,Ticks_Linear_8,76,1,48,42,972674532
87,9,20,Ticks_Linear_8,77,5,42,127,973392180
87,9,20,Ticks_Linear_8,78,1,48,43,973405632
87,9,20,Ticks_Linear_8,79,5,42,127,974131696
87,9,20,Ticks_Linear_8,80,1,48,44,974183968
87,9,20,Ticks_Linear_8,81,5,42,127,974871956
87,9,20,Ticks_Linear_8,82,1,48,47,974906680
87,9,20,Ticks_Linear_8,83,5,42,127,975612368
87,9,20,Ticks_Linear_8,84,1,48,42,975669028
87,9,20,Ticks_Linear_8,85,5,42,127,976351584
87,9,20,Ticks_Linear_8,86,1,48,47,976373424
87,9,20,Ticks_Linear_8,87,5,42,127,977091848
87,9,20,Ticks_Linear_8,88,1,48,40,977123652
87,9,20,Ticks_Linear_8,89,5,42,127,977822000
87,9,20,Ticks_Linear_8,90,1,48,44,977864432
87,9,20,Ticks_Linear_8,91,5,42,127,978552152
87,9,20,Ticks_Linear_8,92,1,48,47,978602752
87,9,20,Ticks_Linear_8,93,5,42,127,979282432
87,9,20,Ticks_Linear_8,94,1,48,46,979285400
87,9,20,Ticks_Linear_8,95,1,48,42,979993816
87,9,20,Ticks_Linear_8,96,5,42,127,980012500
87,9,20,Ticks_Linear_8,97,1,48,48,980732508
87,9,20,Ticks_Linear_8,98,5,42,127,980741536
87,9,20,Ticks_Linear_8,99,1,48,46,981448052
87,9,20,Ticks_Linear_8,100,5,42,127,981462548
87,9,20,Ticks_Linear_8,101,1,48,48,982160692
87,9,20,Ticks_Linear_8,102,5,42,127,982182220
87,9,20,Ticks_Linear_8,103,1,48,46,982888284
87,9,20,Ticks_Linear_8,104,5,42,127,982902040
87,9,20,Ticks_Linear_8,105,1,48,42,983597152
87,9,20,Ticks_Linear_8,106,5,42,127,983621908
87,9,20,Ticks_Linear_8,107,1,48,47,984341584
87,9,20,Ticks_Linear_8,108,5,42,127,984342996
87,9,20,Ticks_Linear_8,109,5,42,127,985051368
87,9,20,Ticks_Linear_8,110,1,48,46,985073580
87,9,20,Ticks_Linear_8,111,5,42,127,985762124
87,9,20,Ticks_Linear_8,112,1,48,44,985786812
87,9,20,Ticks_Linear_8,113,1,48,47,986470016
87,9,20,Ticks_Linear_8,114,5,42,127,986471752
87,9,20,Ticks_Linear_8,115,1,48,39,987168728
87,9,20,Ticks_Linear_8,116,5,42,127,987181364
87,9,20,Ticks_Linear_8,117,5,42,127,987892052
87,9,20,Ticks_Linear_8,118,1,48,42,987907152
87,9,20,Ticks_Linear_8,119,1,48,38,988585160
87,9,20,Ticks_Linear_8,120,5,42,127,988591568
87,9,20,Ticks_Linear_8,121,5,42,127,989291772
87,9,20,Ticks_Linear_8,122,1,48,44,989314064
87,9,20,Ticks_Linear_8,123,5,42,127,989992468
87,9,20,Ticks_Linear_8,124,1,48,39,990011392
87,9,20,Ticks_Linear_8,125,5,42,127,990691696
87,9,20,Ticks_Linear_8,126,1,48,40,990694664
87,9,20,Ticks_Linear_8,127,1,48,43,991382860
87,9,20,Ticks_Linear_8,128,5,42,127,991392260
87,9,20,Ticks_Linear_8,129,1,48,46,992078608
87,9,20,Ticks_Linear_8,130,5,42,127,992082324
87,9,20,Ticks_Linear_8,131,5,42,127,992771524
87,9,20,Ticks_Linear_8,132,1,48,44,992813508
87,9,20,Ticks_Linear_8,133,5,42,127,993461608
87,9,20,Ticks_Linear_8,134,1,48,46,993490792
87,9,20,Ticks_Linear_8,135,5,42,127,994151700
87,9,20,Ticks_Linear_8,136,1,48,39,994180436
87,9,20,Ticks_Linear_8,137,5,42,127,994842132
87,9,20,Ticks_Linear_8,138,1,48,46,994857608
87,9,20,Ticks_Linear_8,139,5,42,127,995521964
87,9,20,Ticks_Linear_8,140,1,48,45,995531976
87,9,20,Ticks_Linear_8,141,5,42,127,996201796
87,9,20,Ticks_Linear_8,142,1,48,49,996228572
87,9,20,Ticks_Linear_8,143,5,42,127,996881748
87,9,20,Ticks_Linear_8,144,1,48,45,996928296
87,9,20,Ticks_Linear_8,145,5,42,127,997561652
87,9,20,Ticks_Linear_8,146,1,48,46,997576000
87,9,20,Ticks_Linear_8,147,5,42,127,998241680
87,9,20,Ticks_Linear_8,148,1,48,48,998271836
87,9,20,Ticks_Linear_8,149,5,42,127,998912420
87,9,20,Ticks_Linear_8,150,1,48,45,998949756
87,9,20,Ticks_Linear_8,151,5,42,127,999582364
87,9,20,Ticks_Linear_8,152,1,48,47,999611996
87,9,20,Ticks_Linear_8,153,5,42,127,1000251684
87,9,20,Ticks_Linear_8,154,1,48,46,1000320512
87,9,20,Ticks_Linear_8,155,5,42,127,1000921480
87,9,20,Ticks_Linear_8,156,1,48,46,1000996188
87,9,20,Ticks_Linear_8,157,5,42,127,1001592324
87,9,20,Ticks_Linear_8,158,1,48,42,1001611920
87,9,20,Ticks_Linear_8,159,5,42,127,1002251608
87,9,20,Ticks_Linear_8,160,1,48,38,1002297784
87,9,20,Ticks_Linear_8,161,5,42,127,1002912188
87,9,20,Ticks_Linear_8,162,1,48,44,1002948180
87,9,20,Ticks_Linear_8,163,5,42,127,1003571624
87,9,20,Ticks_Linear_8,164,1,48,46,1003624940
87,9,20,Ticks_Linear_8,165,5,42,127,1004232056
87,9,20,Ticks_Linear_8,166,1,48,43,1004288044
87,9,20,Ticks_Linear_8,167,5,42,127,1004891492
87,9,20,Ticks_Linear_8,168,1,48,44,1004915828
87,9,20,Ticks_Linear_8,169,5,42,127,1005541816
87,9,20,Ticks_Linear_8,170,1,48,45,1005559308
87,9,20,Ticks_Linear_8,171,1,48,44,1006185948
87,9,20,Ticks_Linear_8,172,5,42,127,1006192132
87,9,20,Ticks_Linear_8,173,1,48,45,1006809892
87,9,20,Ticks_Linear_8,174,5,42,127,1006842204
87,9,20,Ticks_Linear_8,175,5,42,127,1007491488
87,9,20,Ticks_Linear_8,176,1,48,44,1007524412
87,9,20,Ticks_Linear_8,177,5,42,127,1008141712
87,9,20,Ticks_Linear_8,178,1,48,46,1008248196
87,9,20,Ticks_Linear_8,179,5,42,127,1008781628
87,9,20,Ticks_Linear_8,180,1,48,45,1008893036
87,9,20,Ticks_Linear_8,181,5,42,127,1009421664
87,9,20,Ticks_Linear_8,182,1,48,36,1009483420
87,9,20,Ticks_Linear_8,183,1,48,42,1010039132
87,9,20,Ticks_Linear_8,184,5,42,127,1010061720
87,9,20,Ticks_Linear_8,185,1,48,38,1010677524
87,9,20,Ticks_Linear_8,186,5,42,127,1010701612
87,9,20,Ticks_Linear_8,187,1,48,43,1011323284
87,9,20,Ticks_Linear_8,188,5,42,127,1011341600
87,9,20,Ticks_Linear_8,189,5,42,127,1011971312
87,9,20,Ticks_Linear_8,190,1,48,41,1011979064
87,9,20,Ticks_Linear_8,191,5,42,127,1012602164
87,9,20,Ticks_Linear_8,192,1,48,43,1012658896
87,9,20,Ticks_Linear_8,193,5,42,127,1013232164
87,9,20,Ticks_Linear_8,194,1,48,43,1013248388
87,9,20,Ticks_Linear_8,195,5,42,127,1013861972
87,9,20,Ticks_Linear_8,196,1,48,43,1013888600
87,9,20,Ticks_Linear_8,197,5,42,127,1014491452
87,9,20,Ticks_Linear_8,198,1,48,44,1014503560
87,9,20,Ticks_Linear_8,199,5,42,127,1015112244
87,9,20,Ticks_Linear_8,200,1,48,49,1015129896
87,9,20,Ticks_Linear_8,201,5,42,127,1015731488
87,9,20,Ticks_Linear_8,202,1,48,42,1015751536
87,9,20,Ticks_Linear_8,203,1,48,48,1016336128
87,9,20,Ticks_Linear_8,204,5,42,127,1016352048
87,9,20,Ticks_Linear_8,205,1,48,44,1016952756
87,9,20,Ticks_Linear_8,206,5,42,127,1016971672
87,9,20,Ticks_Linear_8,207,1,48,40,1017563292
87,9,20,Ticks_Linear_8,208,5,42,127,1017592316
87,9,20,Ticks_Linear_8,209,1,48,44,1018181916
87,9,20,Ticks_Linear_8,210,5,42,127,1018201352
87,9,20,Ticks_Linear_8,211,1,48,47,1018802732
87,9,20,Ticks_Linear_8,212,5,42,127,1018811980
87,9,20,Ticks_Linear_8,213,1,48,49,1019388916
87,9,20,Ticks_Linear_8,214,5,42,127,1019422064
87,9,20,Ticks_Linear_8,215,1,48,40,1020016928
87,9,20,Ticks_Linear_8,216,5,42,127,1020032396
87,9,20,Ticks_Linear_8,217,5,42,127,1020641740
87,9,20,Ticks_Linear_8,218,1,48,45,1020653776
87,9,20,Ticks_Linear_8,219,5,42,127,1021241940
87,9,20,Ticks_Linear_8,220,1,48,44,1021286424
87,9,20,Ticks_Linear_8,221,5,42,127,1021841940
87,9,20,Ticks_Linear_8,222,1,48,43,1021881608
87,9,20,Ticks_Linear_8,223,5,42,127,1022441768
87,9,20,Ticks_Linear_8,224,1,48,46,1022466972
87,9,20,Ticks_Linear_8,225,1,48,43,1023012412
87,9,20,Ticks_Linear_8,226,5,42,127,1023041956
87,9,20,Ticks_Linear_8,227,1,48,39,1023577260
87,9,20,Ticks_Linear_8,228,5,42,127,1023641956
87,9,20,Ticks_Linear_8,229,1,48,41,1024198372
87,9,20,Ticks_Linear_8,230,5,42,127,1024231972
87,9,20,Ticks_Linear_8,231,1,48,42,1024783752
87,9,20,Ticks_Linear_8,232,5,42,127,1024821836
87,9,20,Ticks_Linear_8,233,1,48,42,1025409844
87,9,20,Ticks_Linear_8,234,5,42,127,1025411352
87,9,20,Ticks_Linear_8,235,1,48,47,1025997348
87,9,20,Ticks_Linear_8,236,5,42,127,1026002260
87,9,20,Ticks_Linear_8,237,1,48,42,1026548196
87,9,20,Ticks_Linear_8,238,5,42,127,1026591980
87,9,20,Ticks_Linear_8,239,1,48,42,1027159344
87,9,20,Ticks_Linear_8,240,5,42,127,1027171980
87,9,20,Ticks_Linear_8,241,5,42,127,1027752268
87,9,20,Ticks_Linear_8,242,1,48,42,1027773432
87,9,20,Ticks_Linear_8,243,1,48,41,1028320744
87,9,20,Ticks_Linear_8,244,5,42,127,1028331792
87,9,20,Ticks_Linear_8,245,1,48,42,1028884544
87,9,20,Ticks_Linear_8,246,5,42,127,1028911696
87,9,20,Ticks_Linear_8,247,1,48,47,1029468340
87,9,20,Ticks_Linear_8,248,5,42,127,1029492000
87,9,20,Ticks_Linear_8,249,1,48,40,1030030300
87,9,20,Ticks_Linear_8,250,5,42,127,1030061716
87,9,20,Ticks_Linear_8,251,1,48,41,1030603092
87,9,20,Ticks_Linear_8,252,5,42,127,1030631964
87,9,20,Ticks_Linear_8,253,5,42,127,1031202140
87,9,20,Ticks_Linear_8,254,1,48,42,1031211700
87,9,20,Ticks_Linear_8,255,1,48,42,1031766120
87,9,20,Ticks_Linear_8,256,5,42,127,1031771624
87,9,20,Ticks_Linear_8,257,5,42,127,1032341976
87,9,20,Ticks_Linear_8,258,1,48,41,1032402312
87,9,20,Ticks_Linear_8,259,5,42,127,1032902036
87,9,20,Ticks_Linear_8,260,1,48,42,1032929576
87,9,20,Ticks_Linear_8,261,1,48,44,1033391508
87,9,20,Ticks_Linear_8,262,5,42,127,1033462088
87,9,20,Ticks_Linear_8,263,1,48,43,1033973724
87,9,20,Ticks_Linear_8,264,5,42,127,1034022220
87,9,20,Ticks_Linear_8,265,5,42,127,1034582288
87,9,20,Ticks_Linear_8,266,1,48,43,1034607444
87,9,20,Ticks_Linear_8,267,5,42,127,1035141696
87,9,20,Ticks_Linear_8,268,1,48,42,1035165184
87,9,20,Ticks_Linear_8,269,5,42,127,1035692692
87,9,20,Ticks_Linear_8,270,1,48,41,1035698656
87,9,20,Ticks_Linear_8,271,1,48,41,1036213912
87,9,20,Ticks_Linear_8,272,5,42,127,1036242336
87,9,20,Ticks_Linear_8,273,1,48,39,1036780720
87,9,20,Ticks_Linear_8,274,5,42,127,1036792136
87,9,20,Ticks_Linear_8,275,1,48,40,1037312836
87,9,20,Ticks_Linear_8,276,5,42,127,1037342084
87,9,20,Ticks_Linear_8,277,1,48,39,1037867576
87,9,20,Ticks_Linear_8,278,5,42,127,1037892036
87,9,20,Ticks_Linear_8,279,1,48,42,1038413336
87,9,20,Ticks_Linear_8,280,5,42,127,1038431652
87,9,20,Ticks_Linear_8,281,1,48,43,1038967252
87,9,20,Ticks_Linear_8,282,5,42,127,1038972164
87,9,20,Ticks_Linear_8,283,5,42,127,1039511784
87,9,20,Ticks_Linear_8,284,1,48,38,1039535720
87,9,20,Ticks_Linear_8,285,5,42,127,1040051624
87,9,20,Ticks_Linear_8,286,1,48,37,1040102752
87,9,20,Ticks_Linear_8,287,5,42,127,1040592440
87,9,20,Ticks_Linear_8,288,1,48,38,1040609720
87,9,20,Ticks_Linear_8,289,1,48,40,1041080564
87,9,20,Ticks_Linear_8,290,5,42,127,1041121636
87,9,20,Ticks_Linear_8,291,1,48,39,1041625036
87,9,20,Ticks_Linear_8,292,5,42,127,1041651968
87,9,20,Ticks_Linear_8,293,5,42,127,1042181480
87,9,20,Ticks_Linear_8,294,1,48,35,1042183344
87,9,20,Ticks_Linear_8,295,5,42,127,1042711808
87,9,20,Ticks_Linear_8,296,1,48,40,1042742488
87,9,20,Ticks_Linear_8,297,5,42,127,1043242584
87,9,20,Ticks_Linear_8,298,1,48,40,1043244372
87,9,20,Ticks_Linear_8,299,5,42,127,1043761680
87,9,20,Ticks_Linear_8,300,1,48,41,1043791240
87,9,20,Ticks_Linear_8,301,5,42,127,1044281676
87,9,20,Ticks_Linear_8,302,1,48,39,1044282644
87,9,20,Ticks_Linear_8,303,5,42,127,1044801896
87,9,20,Ticks_Linear_8,304,1,48,42,1044864648
87,9,20,Ticks_Linear_8,305,5,42,127,1045322040
87,9,20,Ticks_Linear_8,306,1,48,41,1045328820
87,9,20,Ticks_Linear_8,307,5,42,127,1045842408
87,9,20,Ticks_Linear_8,308,1,48,38,1045856540
87,9,20,Ticks_Linear_8,309,1,48,38,1046344736
87,9,20,Ticks_Linear_8,310,5,42,127,1046352192
87,9,20,Ticks_Linear_8,311,1,48,40,1046849684
87,9,20,Ticks_Linear_8,312,5,42,127,1046862148
87,9,20,Ticks_Linear_8,313,1,48,38,1047357384
87,9,20,Ticks_Linear_8,314,5,42,127,1047372032
87,9,20,Ticks_Linear_8,315,1,48,39,1047853792
87,9,20,Ticks_Linear_8,316,5,42,127,1047882144
87,9,20,Ticks_Linear_8,317,5,42,127,1048392184
87,9,20,Ticks_Linear_8,318,1,48,27,1048398444
87,9,20,Ticks_Linear_8,319,1,48,35,1048827576
87,9,20,Ticks_Linear_8,320,5,42,127,1048891652
87,9,20,Ticks_Linear_8,321,5,42,127,1049391360
87,9,20,Ticks_Linear_8,322,1,48,32,1049392328
87,9,20,Ticks_Linear_8,323,5,42,127,1049892332
87,9,20,Ticks_Linear_8,324,1,48,43,1049928924
87,9,20,Ticks_Linear_8,325,5,42,127,1050392032
87,9,20,Ticks_Linear_8,326,1,48,38,1050455064
87,9,20,Ticks_Linear_8,327,5,42,127,1050891508
87,9,20,Ticks_Linear_8,328,1,48,41,1050945552
87,9,20,Ticks_Linear_8,329,5,42,127,1051382068
87,9,20,Ticks_Linear_8,330,1,48,40,1051398292
87,9,20,Ticks_Linear_8,331,5,42,127,1051871584
87,9,20,Ticks_Linear_8,332,1,48,37,1051891556
87,9,20,Ticks_Linear_8,333,1,48,41,1052348464
87,9,20,Ticks_Linear_8,334,5,42,127,1052362064
87,9,20,Ticks_Linear_8,335,1,48,40,1052837456
87,9,20,Ticks_Linear_8,336,5,42,127,1052851656
87,9,20,Ticks_Linear_8,337,1,48,39,1053340032
87,9,20,Ticks_Linear_8,338,5,42,127,1053341924
87,9,20,Ticks_Linear_8,0,9999,9999,9999,942799992
87,9,20,Ticks_Linear_8,1,9999,9999,9999,943619188
87,9,20,Ticks_Linear_8,2,9999,9999,9999,944439368
87,9,20,Ticks_Linear_8,3,9999,9999,9999,945259636
87,9,20,Ticks_Linear_8,4,9999,9999,9999,946079800
87,9,20,Ticks_Linear_8,5,9999,9999,9999,946889784
87,9,20,Ticks_Linear_8,6,9999,9999,9999,947699768
87,9,20,Ticks_Linear_8,7,9999,9999,9999,948509752
87,9,20,Ticks_Linear_8,8,9999,9999,9999,949319736
87,9,20,Ticks_Linear_8,9,9999,9999,9999,950129744
87,9,20,Ticks_Linear_8,10,9999,9999,9999,950929468
87,9,20,Ticks_Linear_8,11,9999,9999,9999,951729264
87,9,20,Ticks_Linear_8,12,9999,9999,9999,952530036
87,9,20,Ticks_Linear_8,13,9999,9999,9999,953329760
87,9,20,Ticks_Linear_8,14,9999,9999,9999,954129484
87,9,20,Ticks_Linear_8,15,9999,9999,9999,954920000
87,9,20,Ticks_Linear_8,16,9999,9999,9999,955709540
87,9,20,Ticks_Linear_8,17,9999,9999,9999,956500052
87,9,20,Ticks_Linear_8,18,9999,9999,9999,957289536
87,9,20,Ticks_Linear_8,19,9999,9999,9999,958080120
87,9,20,Ticks_Linear_8,20,9999,9999,9999,958869584
87,9,20,Ticks_Linear_8,21,9999,9999,9999,959649912
87,9,20,Ticks_Linear_8,22,9999,9999,9999,960429124
87,9,20,Ticks_Linear_8,23,9999,9999,9999,961209452
87,9,20,Ticks_Linear_8,24,9999,9999,9999,961989696
87,9,20,Ticks_Linear_8,25,9999,9999,9999,962759772
87,9,20,Ticks_Linear_8,26,9999,9999,9999,963529832
87,9,20,Ticks_Linear_8,27,9999,9999,9999,964299900
87,9,20,Ticks_Linear_8,28,9999,9999,9999,965069892
87,9,20,Ticks_Linear_8,29,9999,9999,9999,965839960
87,9,20,Ticks_Linear_8,30,9999,9999,9999,966599772
87,9,20,Ticks_Linear_8,31,9999,9999,9999,967359588
87,9,20,Ticks_Linear_8,32,9999,9999,9999,968119400
87,9,20,Ticks_Linear_8,33,9999,9999,9999,968879208
87,9,20,Ticks_Linear_8,34,9999,9999,9999,969640064
87,9,20,Ticks_Linear_8,35,9999,9999,9999,970389612
87,9,20,Ticks_Linear_8,36,9999,9999,9999,971139160
87,9,20,Ticks_Linear_8,37,9999,9999,9999,971889760
87,9,20,Ticks_Linear_8,38,9999,9999,9999,972639288
87,9,20,Ticks_Linear_8,39,9999,9999,9999,973389884
87,9,20,Ticks_Linear_8,40,9999,9999,9999,974129248
87,9,20,Ticks_Linear_8,41,9999,9999,9999,974869584
87,9,20,Ticks_Linear_8,42,9999,9999,9999,975609920
87,9,20,Ticks_Linear_8,43,9999,9999,9999,976349284
87,9,20,Ticks_Linear_8,44,9999,9999,9999,977089624
87,9,20,Ticks_Linear_8,45,9999,9999,9999,977819700
87,9,20,Ticks_Linear_8,46,9999,9999,9999,978549852
87,9,20,Ticks_Linear_8,47,9999,9999,9999,979279984
87,9,20,Ticks_Linear_8,48,9999,9999,9999,980010052
87,9,20,Ticks_Linear_8,49,9999,9999,9999,980739160
87,9,20,Ticks_Linear_8,50,9999,9999,9999,981460028
87,9,20,Ticks_Linear_8,51,9999,9999,9999,982179924
87,9,20,Ticks_Linear_8,52,9999,9999,9999,982899816
87,9,20,Ticks_Linear_8,53,9999,9999,9999,983619684
87,9,20,Ticks_Linear_8,54,9999,9999,9999,984339584
87,9,20,Ticks_Linear_8,55,9999,9999,9999,985049144
87,9,20,Ticks_Linear_8,56,9999,9999,9999,985759824
87,9,20,Ticks_Linear_8,57,9999,9999,9999,986469476
87,9,20,Ticks_Linear_8,58,9999,9999,9999,987179064
87,9,20,Ticks_Linear_8,59,9999,9999,9999,987889752
87,9,20,Ticks_Linear_8,60,9999,9999,9999,988589120
87,9,20,Ticks_Linear_8,61,9999,9999,9999,989289548
87,9,20,Ticks_Linear_8,62,9999,9999,9999,989989944
87,9,20,Ticks_Linear_8,63,9999,9999,9999,990689396
87,9,20,Ticks_Linear_8,64,9999,9999,9999,991389812
87,9,20,Ticks_Linear_8,65,9999,9999,9999,992079952
87,9,20,Ticks_Linear_8,66,9999,9999,9999,992769148
87,9,20,Ticks_Linear_8,67,9999,9999,9999,993459312
87,9,20,Ticks_Linear_8,68,9999,9999,9999,994149476
87,9,20,Ticks_Linear_8,69,9999,9999,9999,994839612
87,9,20,Ticks_Linear_8,70,9999,9999,9999,995519588
87,9,20,Ticks_Linear_8,71,9999,9999,9999,996199496
87,9,20,Ticks_Linear_8,72,9999,9999,9999,996879448
87,9,20,Ticks_Linear_8,73,9999,9999,9999,997559352
87,9,20,Ticks_Linear_8,74,9999,9999,9999,998239308
87,9,20,Ticks_Linear_8,75,9999,9999,9999,998910048
87,9,20,Ticks_Linear_8,76,9999,9999,9999,999579768
87,9,20,Ticks_Linear_8,77,9999,9999,9999,1000249460
87,9,20,Ticks_Linear_8,78,9999,9999,9999,1000919104
87,9,20,Ticks_Linear_8,79,9999,9999,9999,1001589876
87,9,20,Ticks_Linear_8,80,9999,9999,9999,1002249312
87,9,20,Ticks_Linear_8,81,9999,9999,9999,1002909816
87,9,20,Ticks_Linear_8,82,9999,9999,9999,1003569252
87,9,20,Ticks_Linear_8,83,9999,9999,9999,1004229756
87,9,20,Ticks_Linear_8,84,9999,9999,9999,1004889192
87,9,20,Ticks_Linear_8,85,9999,9999,9999,1005539440
87,9,20,Ticks_Linear_8,86,9999,9999,9999,1006189684
87,9,20,Ticks_Linear_8,87,9999,9999,9999,1006839908
87,9,20,Ticks_Linear_8,88,9999,9999,9999,1007489112
87,9,20,Ticks_Linear_8,89,9999,9999,9999,1008139340
87,9,20,Ticks_Linear_8,90,9999,9999,9999,1008779328
87,9,20,Ticks_Linear_8,91,9999,9999,9999,1009419364
87,9,20,Ticks_Linear_8,92,9999,9999,9999,1010059344
87,9,20,Ticks_Linear_8,93,9999,9999,9999,1010699388
87,9,20,Ticks_Linear_8,94,9999,9999,9999,1011339376
87,9,20,Ticks_Linear_8,95,9999,9999,9999,1011969088
87,9,20,Ticks_Linear_8,96,9999,9999,9999,1012599868
87,9,20,Ticks_Linear_8,97,9999,9999,9999,1013229644
87,9,20,Ticks_Linear_8,98,9999,9999,9999,1013859448
87,9,20,Ticks_Linear_8,99,9999,9999,9999,1014489152
87,9,20,Ticks_Linear_8,100,9999,9999,9999,1015109720
87,9,20,Ticks_Linear_8,101,9999,9999,9999,1015729264
87,9,20,Ticks_Linear_8,102,9999,9999,9999,1016349752
87,9,20,Ticks_Linear_8,103,9999,9999,9999,1016969296
87,9,20,Ticks_Linear_8,104,9999,9999,9999,1017589868
87,9,20,Ticks_Linear_8,105,9999,9999,9999,1018199128
87,9,20,Ticks_Linear_8,106,9999,9999,9999,1018809460
87,9,20,Ticks_Linear_8,107,9999,9999,9999,1019419768
87,9,20,Ticks_Linear_8,108,9999,9999,9999,1020030024
87,9,20,Ticks_Linear_8,109,9999,9999,9999,1020639292
87,9,20,Ticks_Linear_8,110,9999,9999,9999,1021239416
87,9,20,Ticks_Linear_8,111,9999,9999,9999,1021839416
87,9,20,Ticks_Linear_8,112,9999,9999,9999,1022439540
87,9,20,Ticks_Linear_8,113,9999,9999,9999,1023039584
87,9,20,Ticks_Linear_8,114,9999,9999,9999,1023639656
87,9,20,Ticks_Linear_8,115,9999,9999,9999,1024229448
87,9,20,Ticks_Linear_8,116,9999,9999,9999,1024819312
87,9,20,Ticks_Linear_8,117,9999,9999,9999,1025409140
87,9,20,Ticks_Linear_8,118,9999,9999,9999,1025999964
87,9,20,Ticks_Linear_8,119,9999,9999,9999,1026589752
87,9,20,Ticks_Linear_8,120,9999,9999,9999,1027169368
87,9,20,Ticks_Linear_8,121,9999,9999,9999,1027749968
87,9,20,Ticks_Linear_8,122,9999,9999,9999,1028329568
87,9,20,Ticks_Linear_8,123,9999,9999,9999,1028909172
87,9,20,Ticks_Linear_8,124,9999,9999,9999,1029489776
87,9,20,Ticks_Linear_8,125,9999,9999,9999,1030059120
87,9,20,Ticks_Linear_8,126,9999,9999,9999,1030629440
87,9,20,Ticks_Linear_8,127,9999,9999,9999,1031199840
87,9,20,Ticks_Linear_8,128,9999,9999,9999,1031769180
87,9,20,Ticks_Linear_8,129,9999,9999,9999,1032339528
87,9,20,Ticks_Linear_8,130,9999,9999,9999,1032899664
87,9,20,Ticks_Linear_8,131,9999,9999,9999,1033459788
87,9,20,Ticks_Linear_8,132,9999,9999,9999,1034019920
87,9,20,Ticks_Linear_8,133,9999,9999,9999,1034580064
87,9,20,Ticks_Linear_8,134,9999,9999,9999,1035139176
87,9,20,Ticks_Linear_8,135,9999,9999,9999,1035690096
87,9,20,Ticks_Linear_8,136,9999,9999,9999,1036239964
87,9,20,Ticks_Linear_8,137,9999,9999,9999,1036789840
87,9,20,Ticks_Linear_8,138,9999,9999,9999,1037339712
87,9,20,Ticks_Linear_8,139,9999,9999,9999,1037889660
87,9,20,Ticks_Linear_8,140,9999,9999,9999,1038429276
87,9,20,Ticks_Linear_8,141,9999,9999,9999,1038969940
87,9,20,Ticks_Linear_8,142,9999,9999,9999,1039509560
87,9,20,Ticks_Linear_8,143,9999,9999,9999,1040049252
87,9,20,Ticks_Linear_8,144,9999,9999,9999,1040589916
87,9,20,Ticks_Linear_8,145,9999,9999,9999,1041119340
87,9,20,Ticks_Linear_8,146,9999,9999,9999,1041649744
87,9,20,Ticks_Linear_8,147,9999,9999,9999,1042179184
87,9,20,Ticks_Linear_8,148,9999,9999,9999,1042709584
87,9,20,Ticks_Linear_8,149,9999,9999,9999,1043240060
87,9,20,Ticks_Linear_8,150,9999,9999,9999,1043759160
87,9,20,Ticks_Linear_8,151,9999,9999,9999,1044279380
87,9,20,Ticks_Linear_8,152,9999,9999,9999,1044799596
87,9,20,Ticks_Linear_8,153,9999,9999,9999,1045319740
87,9,20,Ticks_Linear_8,154,9999,9999,9999,1045839960
87,9,20,Ticks_Linear_8,155,9999,9999,9999,1046349892
87,9,20,Ticks_Linear_8,156,9999,9999,9999,1046859852
87,9,20,Ticks_Linear_8,157,9999,9999,9999,1047369808
87,9,20,Ticks_Linear_8,158,9999,9999,9999,1047879768
87,9,20,Ticks_Linear_8,159,9999,9999,9999,1048389736
87,9,20,Ticks_Linear_8,160,9999,9999,9999,1048889428
87,9,20,Ticks_Linear_8,161,9999,9999,9999,1049389136
87,9,20,Ticks_Linear_8,162,9999,9999,9999,1049889884
87,9,20,Ticks_Linear_8,163,9999,9999,9999,1050389584
87,9,20,Ticks_Linear_8,164,9999,9999,9999,1050889284
87,9,20,Ticks_Linear_8,165,9999,9999,9999,1051379772
87,9,20,Ticks_Linear_8,166,9999,9999,9999,1051869284
87,9,20,Ticks_Linear_8,167,9999,9999,9999,1052359764
87,9,20,Ticks_Linear_8,168,9999,9999,9999,1052849208
87,9,20,Ticks_Linear_8,169,9999,9999,9999,1053339736
87,10,21,Ticks_Linear_5,0,5,42,127,1061722592
87,10,21,Ticks_Linear_5,1,5,42,127,1062202696
87,10,21,Ticks_Linear_5,2,1,48,38,1062417916
87,10,21,Ticks_Linear_5,3,5,42,127,1062683220
87,10,21,Ticks_Linear_5,4,1,48,43,1062730068
87,10,21,Ticks_Linear_5,5,1,48,40,1063159352
87,10,21,Ticks_Linear_5,6,5,42,127,1063163440
87,10,21,Ticks_Linear_5,7,1,48,40,1063630516
87,10,21,Ticks_Linear_5,8,5,42,127,1063642476
87,10,21,Ticks_Linear_5,9,5,42,127,1064133044
87,10,21,Ticks_Linear_5,10,1,48,40,1064139380
87,10,21,Ticks_Linear_5,11,1,48,42,1064600640
87,10,21,Ticks_Linear_5,12,5,42,127,1064622328
87,10,21,Ticks_Linear_5,13,1,48,42,1065097496
87,10,21,Ticks_Linear_5,14,5,42,127,1065113188
87,10,21,Ticks_Linear_5,15,5,42,127,1065602416
87,10,21,Ticks_Linear_5,16,1,48,37,1065648516
87,10,21,Ticks_Linear_5,17,1,48,39,1066074628
87,10,21,Ticks_Linear_5,18,5,42,127,1066093192
87,10,21,Ticks_Linear_5,19,1,48,44,1066548712
87,10,21,Ticks_Linear_5,20,5,42,127,1066592668
87,10,21,Ticks_Linear_5,21,1,48,43,1067016736
87,10,21,Ticks_Linear_5,22,5,42,127,1067093240
87,10,21,Ticks_Linear_5,23,1,48,46,1067546608
87,10,21,Ticks_Linear_5,24,5,42,127,1067593012
87,10,21,Ticks_Linear_5,25,1,48,44,1068056948
87,10,21,Ticks_Linear_5,26,5,42,127,1068092788
87,10,21,Ticks_Linear_5,27,1,48,42,1068539716
87,10,21,Ticks_Linear_5,28,5,42,127,1068592564
87,10,21,Ticks_Linear_5,29,1,48,45,1069036424
87,10,21,Ticks_Linear_5,30,5,42,127,1069102448
87,10,21,Ticks_Linear_5,31,1,48,43,1069560160
87,10,21,Ticks_Linear_5,32,5,42,127,1069613376
87,10,21,Ticks_Linear_5,33,1,48,40,1070045856
87,10,21,Ticks_Linear_5,34,5,42,127,1070132472
87,10,21,Ticks_Linear_5,35,1,48,46,1070595140
87,10,21,Ticks_Linear_5,36,5,42,127,1070642432
87,10,21,Ticks_Linear_5,37,1,48,40,1071145012
87,10,21,Ticks_Linear_5,38,5,42,127,1071152392
87,10,21,Ticks_Linear_5,39,1,48,42,1071651824
87,10,21,Ticks_Linear_5,40,5,42,127,1071672756
87,10,21,Ticks_Linear_5,41,1,48,40,1072117000
87,10,21,Ticks_Linear_5,42,5,42,127,1072192904
87,10,21,Ticks_Linear_5,43,1,48,41,1072674140
87,10,21,Ticks_Linear_5,44,5,42,127,1072713124
87,10,21,Ticks_Linear_5,45,1,48,38,1073182528
87,10,21,Ticks_Linear_5,46,5,42,127,1073233340
87,10,21,Ticks_Linear_5,47,1,48,40,1073692188
87,10,21,Ticks_Linear_5,48,5,42,127,1073752436
87,10,21,Ticks_Linear_5,49,1,48,40,1074195400
87,10,21,Ticks_Linear_5,50,5,42,127,1074282864
87,10,21,Ticks_Linear_5,51,1,48,37,1074763772
87,10,21,Ticks_Linear_5,52,5,42,127,1074813264
87,10,21,Ticks_Linear_5,53,1,48,38,1075341724
87,10,21,Ticks_Linear_5,54,5,42,127,1075343292
87,10,21,Ticks_Linear_5,55,1,48,38,1075848040
87,10,21,Ticks_Linear_5,56,5,42,127,1075873248
87,10,21,Ticks_Linear_5,57,1,48,38,1076351940
87,10,21,Ticks_Linear_5,58,5,42,127,1076402676
87,10,21,Ticks_Linear_5,59,1,48,38,1076892304
87,10,21,Ticks_Linear_5,60,5,42,127,1076943340
87,10,21,Ticks_Linear_5,61,1,48,36,1077422636
87,10,21,Ticks_Linear_5,62,5,42,127,1077483028
87,10,21,Ticks_Linear_5,63,1,48,39,1077987028
87,10,21,Ticks_Linear_5,64,5,42,127,1078022568
87,10,21,Ticks_Linear_5,65,1,48,39,1078541028
87,10,21,Ticks_Linear_5,66,5,42,127,1078563232
87,10,21,Ticks_Linear_5,67,1,48,38,1079093676
87,10,21,Ticks_Linear_5,68,5,42,127,1079102924
87,10,21,Ticks_Linear_5,69,1,48,41,1079580632
87,10,21,Ticks_Linear_5,70,5,42,127,1079652896
87,10,21,Ticks_Linear_5,71,1,48,44,1080157624
87,10,21,Ticks_Linear_5,72,5,42,127,1080202696
87,10,21,Ticks_Linear_5,73,1,48,43,1080676744
87,10,21,Ticks_Linear_5,74,5,42,127,1080752500
87,10,21,Ticks_Linear_5,75,1,48,36,1081244964
87,10,21,Ticks_Linear_5,76,5,42,127,1081303492
87,10,21,Ticks_Linear_5,77,1,48,39,1081823972
87,10,21,Ticks_Linear_5,78,5,42,127,1081853440
87,10,21,Ticks_Linear_5,79,1,48,37,1082374968
87,10,21,Ticks_Linear_5,80,5,42,127,1082413576
87,10,21,Ticks_Linear_5,81,1,48,37,1082937268
87,10,21,Ticks_Linear_5,82,5,42,127,1082982796
87,10,21,Ticks_Linear_5,83,1,48,35,1083507684
87,10,21,Ticks_Linear_5,84,5,42,127,1083542928
87,10,21,Ticks_Linear_5,85,1,48,32,1084099344
87,10,21,Ticks_Linear_5,86,5,42,127,1084102988
87,10,21,Ticks_Linear_5,87,1,48,39,1084655364
87,10,21,Ticks_Linear_5,88,5,42,127,1084663120
87,10,21,Ticks_Linear_5,89,1,48,38,1085181504
87,10,21,Ticks_Linear_5,90,5,42,127,1085232540
87,10,21,Ticks_Linear_5,91,1,48,34,1085765296
87,10,21,Ticks_Linear_5,92,5,42,127,1085802732
87,10,21,Ticks_Linear_5,93,1,48,38,1086362452
87,10,21,Ticks_Linear_5,94,5,42,127,1086373276
87,10,21,Ticks_Linear_5,95,1,48,45,1086891512
87,10,21,Ticks_Linear_5,96,5,42,127,1086942768
87,10,21,Ticks_Linear_5,97,5,42,127,1087512944
87,10,21,Ticks_Linear_5,98,1,48,41,1087532620
87,10,21,Ticks_Linear_5,99,5,42,127,1088092476
87,10,21,Ticks_Linear_5,100,1,48,38,1088095816
87,10,21,Ticks_Linear_5,101,5,42,127,1088673200
87,10,21,Ticks_Linear_5,102,1,48,36,1088704556
87,10,21,Ticks_Linear_5,103,5,42,127,1089252804
87,10,21,Ticks_Linear_5,104,1,48,35,1089265884
87,10,21,Ticks_Linear_5,105,1,48,43,1089818576
87,10,21,Ticks_Linear_5,106,5,42,127,1089833300
87,10,21,Ticks_Linear_5,107,1,48,39,1090399928
87,10,21,Ticks_Linear_5,108,5,42,127,1090412856
87,10,21,Ticks_Linear_5,109,1,48,40,1090967632
87,10,21,Ticks_Linear_5,110,5,42,127,1091002720
87,10,21,Ticks_Linear_5,111,1,48,43,1091569024
87,10,21,Ticks_Linear_5,112,5,42,127,1091592732
87,10,21,Ticks_Linear_5,113,1,48,44,1092129232
87,10,21,Ticks_Linear_5,114,5,42,127,1092183348
87,10,21,Ticks_Linear_5,115,1,48,44,1092730352
87,10,21,Ticks_Linear_5,116,5,42,127,1092773160
87,10,21,Ticks_Linear_5,117,1,48,42,1093328304
87,10,21,Ticks_Linear_5,118,5,42,127,1093363024
87,10,21,Ticks_Linear_5,119,1,48,46,1093912480
87,10,21,Ticks_Linear_5,120,5,42,127,1093962996
87,10,21,Ticks_Linear_5,121,1,48,37,1094506640
87,10,21,Ticks_Linear_5,122,5,42,127,1094563144
87,10,21,Ticks_Linear_5,123,1,48,40,1095130436
87,10,21,Ticks_Linear_5,124,5,42,127,1095163120
87,10,21,Ticks_Linear_5,125,5,42,127,1095763176
87,10,21,Ticks_Linear_5,126,1,48,45,1095768312
87,10,21,Ticks_Linear_5,127,1,48,41,1096352044
87,10,21,Ticks_Linear_5,128,5,42,127,1096363388
87,10,21,Ticks_Linear_5,129,5,42,127,1096972880
87,10,21,Ticks_Linear_5,130,1,48,43,1096996516
87,10,21,Ticks_Linear_5,131,1,48,43,1097541432
87,10,21,Ticks_Linear_5,132,5,42,127,1097582836
87,10,21,Ticks_Linear_5,133,1,48,45,1098146972
87,10,21,Ticks_Linear_5,134,5,42,127,1098193216
87,10,21,Ticks_Linear_5,135,5,42,127,1098802484
87,10,21,Ticks_Linear_5,136,1,48,39,1098806948
87,10,21,Ticks_Linear_5,137,5,42,127,1099412744
87,10,21,Ticks_Linear_5,138,1,48,45,1099415788
87,10,21,Ticks_Linear_5,139,1,48,36,1100005556
87,10,21,Ticks_Linear_5,140,5,42,127,1100033528
87,10,21,Ticks_Linear_5,141,1,48,37,1100651268
87,10,21,Ticks_Linear_5,142,5,42,127,1100652776
87,10,21,Ticks_Linear_5,143,1,48,38,1101266332
87,10,21,Ticks_Linear_5,144,5,42,127,1101272664
87,10,21,Ticks_Linear_5,145,1,48,36,1101889596
87,10,21,Ticks_Linear_5,146,5,42,127,1101892860
87,10,21,Ticks_Linear_5,147,1,48,44,1102475816
87,10,21,Ticks_Linear_5,148,5,42,127,1102512556
87,10,21,Ticks_Linear_5,149,1,48,35,1103120424
87,10,21,Ticks_Linear_5,150,5,42,127,1103143308
87,10,21,Ticks_Linear_5,151,5,42,127,1103773120
87,10,21,Ticks_Linear_5,152,1,48,38,1103786940
87,10,21,Ticks_Linear_5,153,1,48,43,1104327212
87,10,21,Ticks_Linear_5,154,5,42,127,1104402740
87,10,21,Ticks_Linear_5,155,1,48,43,1104996632
87,10,21,Ticks_Linear_5,156,5,42,127,1105032692
87,10,21,Ticks_Linear_5,157,1,48,45,1105661184
87,10,21,Ticks_Linear_5,158,5,42,127,1105663444
87,10,21,Ticks_Linear_5,159,1,48,38,1106254968
87,10,21,Ticks_Linear_5,160,5,42,127,1106303408
87,10,21,Ticks_Linear_5,161,1,48,38,1106888960
87,10,21,Ticks_Linear_5,162,5,42,127,1106943520
87,10,21,Ticks_Linear_5,163,1,48,46,1107528996
87,10,21,Ticks_Linear_5,164,5,42,127,1107583432
87,10,21,Ticks_Linear_5,165,1,48,45,1108205528
87,10,21,Ticks_Linear_5,166,5,42,127,1108223396
87,10,21,Ticks_Linear_5,167,1,48,43,1108851892
87,10,21,Ticks_Linear_5,168,5,42,127,1108863312
87,10,21,Ticks_Linear_5,169,1,48,43,1109497168
87,10,21,Ticks_Linear_5,170,5,42,127,1109512636
87,10,21,Ticks_Linear_5,171,1,48,45,1110158348
87,10,21,Ticks_Linear_5,172,5,42,127,1110162884
87,10,21,Ticks_Linear_5,173,1,48,46,1110806700
87,10,21,Ticks_Linear_5,174,5,42,127,1110813028
87,10,21,Ticks_Linear_5,175,5,42,127,1111463356
87,10,21,Ticks_Linear_5,176,1,48,42,1111497180
87,10,21,Ticks_Linear_5,177,5,42,127,1112112536
87,10,21,Ticks_Linear_5,178,1,48,44,1112157064
87,10,21,Ticks_Linear_5,179,5,42,127,1112772944
87,10,21,Ticks_Linear_5,180,1,48,41,1112818820
87,10,21,Ticks_Linear_5,181,5,42,127,1113432524
87,10,21,Ticks_Linear_5,182,1,48,47,1113456484
87,10,21,Ticks_Linear_5,183,5,42,127,1114092808
87,10,21,Ticks_Linear_5,184,1,48,45,1114131728
87,10,21,Ticks_Linear_5,185,5,42,127,1114753388
87,10,21,Ticks_Linear_5,186,1,48,47,1114780540
87,10,21,Ticks_Linear_5,187,5,42,127,1115412824
87,10,21,Ticks_Linear_5,188,1,48,40,1115421868
87,10,21,Ticks_Linear_5,189,1,48,46,1116022292
87,10,21,Ticks_Linear_5,190,5,42,127,1116082468
87,10,21,Ticks_Linear_5,191,1,48,44,1116715572
87,10,21,Ticks_Linear_5,192,5,42,127,1116753208
87,10,21,Ticks_Linear_5,193,1,48,44,1117422180
87,10,21,Ticks_Linear_5,194,5,42,127,1117423748
87,10,21,Ticks_Linear_5,195,5,42,127,1118092576
87,10,21,Ticks_Linear_5,196,1,48,48,1118109392
87,10,21,Ticks_Linear_5,197,5,42,127,1118763540
87,10,21,Ticks_Linear_5,198,1,48,45,1118783288
87,10,21,Ticks_Linear_5,199,5,42,127,1119443444
87,10,21,Ticks_Linear_5,200,1,48,42,1119451288
87,10,21,Ticks_Linear_5,201,1,48,47,1120092800
87,10,21,Ticks_Linear_5,202,5,42,127,1120123316
87,10,21,Ticks_Linear_5,203,1,48,45,1120783232
87,10,21,Ticks_Linear_5,204,5,42,127,1120803268
87,10,21,Ticks_Linear_5,205,5,42,127,1121483252
87,10,21,Ticks_Linear_5,206,1,48,41,1121502552
87,10,21,Ticks_Linear_5,207,5,42,127,1122163232
87,10,21,Ticks_Linear_5,208,1,48,42,1122199296
87,10,21,Ticks_Linear_5,209,1,48,40,1122826960
87,10,21,Ticks_Linear_5,210,5,42,127,1122853508
87,10,21,Ticks_Linear_5,211,5,42,127,1123543456
87,10,21,Ticks_Linear_5,212,1,48,42,1123545972
87,10,21,Ticks_Linear_5,213,1,48,40,1124213208
87,10,21,Ticks_Linear_5,214,5,42,127,1124232568
87,10,21,Ticks_Linear_5,215,1,48,39,1124876460
87,10,21,Ticks_Linear_5,216,5,42,127,1124922780
87,10,21,Ticks_Linear_5,217,1,48,42,1125570428
87,10,21,Ticks_Linear_5,218,5,42,127,1125612792
87,10,21,Ticks_Linear_5,219,5,42,127,1126313220
87,10,21,Ticks_Linear_5,220,1,48,43,1126317984
87,10,21,Ticks_Linear_5,221,5,42,127,1127012672
87,10,21,Ticks_Linear_5,222,1,48,36,1127035484
87,10,21,Ticks_Linear_5,223,5,42,127,1127713364
87,10,21,Ticks_Linear_5,224,1,48,41,1127746512
87,10,21,Ticks_Linear_5,225,5,42,127,1128412516
87,10,21,Ticks_Linear_5,226,1,48,31,1128463116
87,10,21,Ticks_Linear_5,227,5,42,127,1129113088
87,10,21,Ticks_Linear_5,228,1,48,43,1129119496
87,10,21,Ticks_Linear_5,229,1,48,46,1129763944
87,10,21,Ticks_Linear_5,230,5,42,127,1129822568
87,10,21,Ticks_Linear_5,231,1,48,46,1130458664
87,10,21,Ticks_Linear_5,232,5,42,127,1130533296
87,10,21,Ticks_Linear_5,233,1,48,38,1131184184
87,10,21,Ticks_Linear_5,234,5,42,127,1131242932
87,10,21,Ticks_Linear_5,235,5,42,127,1131952500
87,10,21,Ticks_Linear_5,236,1,48,47,1131973144
87,10,21,Ticks_Linear_5,237,1,48,37,1132645156
87,10,21,Ticks_Linear_5,238,5,42,127,1132663248
87,10,21,Ticks_Linear_5,239,5,42,127,1133383124
87,10,21,Ticks_Linear_5,240,1,48,37,1133392988
87,10,21,Ticks_Linear_5,241,1,48,38,1134083276
87,10,21,Ticks_Linear_5,242,5,42,127,1134103080
87,10,21,Ticks_Linear_5,243,1,48,35,1134802124
87,10,21,Ticks_Linear_5,244,5,42,127,1134822828
87,10,21,Ticks_Linear_5,245,5,42,127,1135542656
87,10,21,Ticks_Linear_5,246,1,48,41,1135548468
87,10,21,Ticks_Linear_5,247,5,42,127,1136262476
87,10,21,Ticks_Linear_5,248,1,48,39,1136296972
87,10,21,Ticks_Linear_5,249,1,48,44,1136982224
87,10,21,Ticks_Linear_5,250,5,42,127,1136992544
87,10,21,Ticks_Linear_5,251,5,42,127,1137722680
87,10,21,Ticks_Linear_5,252,1,48,36,1137733588
87,10,21,Ticks_Linear_5,253,5,42,127,1138452980
87,10,21,Ticks_Linear_5,254,1,48,41,1138455800
87,10,21,Ticks_Linear_5,255,1,48,40,1139176044
87,10,21,Ticks_Linear_5,256,5,42,127,1139183124
87,10,21,Ticks_Linear_5,257,1,48,43,1139867780
87,10,21,Ticks_Linear_5,258,5,42,127,1139913128
87,10,21,Ticks_Linear_5,259,1,48,46,1140599280
87,10,21,Ticks_Linear_5,260,5,42,127,1140653320
87,10,21,Ticks_Linear_5,261,1,48,49,1141375268
87,10,21,Ticks_Linear_5,262,5,42,127,1141402940
87,10,21,Ticks_Linear_5,263,1,48,45,1142115828
87,10,21,Ticks_Linear_5,264,5,42,127,1142143352
87,10,21,Ticks_Linear_5,265,1,48,40,1142879376
87,10,21,Ticks_Linear_5,266,5,42,127,1142882568
87,10,21,Ticks_Linear_5,267,1,48,46,1143618488
87,10,21,Ticks_Linear_5,268,5,42,127,1143623028
87,10,21,Ticks_Linear_5,269,5,42,127,1144372880
87,10,21,Ticks_Linear_5,270,1,48,34,1144417964
87,10,21,Ticks_Linear_5,271,1,48,44,1145106956
87,10,21,Ticks_Linear_5,272,5,42,127,1145123176
87,10,21,Ticks_Linear_5,273,1,48,44,1145814792
87,10,21,Ticks_Linear_5,274,5,42,127,1145872948
87,10,21,Ticks_Linear_5,275,1,48,44,1146595648
87,10,21,Ticks_Linear_5,276,5,42,127,1146623324
87,10,21,Ticks_Linear_5,277,1,48,43,1147336208
87,10,21,Ticks_Linear_5,278,5,42,127,1147373020
87,10,21,Ticks_Linear_5,279,1,48,42,1148116016
87,10,21,Ticks_Linear_5,280,5,42,127,1148132980
87,10,21,Ticks_Linear_5,281,1,48,43,1148884436
87,10,21,Ticks_Linear_5,282,5,42,127,1148892416
87,10,21,Ticks_Linear_5,283,1,48,45,1149643344
87,10,21,Ticks_Linear_5,284,5,42,127,1149653644
87,10,21,Ticks_Linear_5,285,1,48,44,1150390876
87,10,21,Ticks_Linear_5,286,5,42,127,1150413080
87,10,21,Ticks_Linear_5,287,1,48,37,1151156296
87,10,21,Ticks_Linear_5,288,5,42,127,1151173112
87,10,21,Ticks_Linear_5,289,1,48,42,1151906664
87,10,21,Ticks_Linear_5,290,5,42,127,1151943104
87,10,21,Ticks_Linear_5,291,1,48,42,1152691420
87,10,21,Ticks_Linear_5,292,5,42,127,1152712948
87,10,21,Ticks_Linear_5,293,1,48,47,1153431612
87,10,21,Ticks_Linear_5,294,5,42,127,1153483016
87,10,21,Ticks_Linear_5,295,1,48,44,1154222868
87,10,21,Ticks_Linear_5,296,5,42,127,1154253160
87,10,21,Ticks_Linear_5,297,1,48,39,1154999520
87,10,21,Ticks_Linear_5,298,5,42,127,1155023152
87,10,21,Ticks_Linear_5,299,1,48,44,1155754688
87,10,21,Ticks_Linear_5,300,5,42,127,1155802508
87,10,21,Ticks_Linear_5,301,1,48,40,1156520332
87,10,21,Ticks_Linear_5,302,5,42,127,1156582984
87,10,21,Ticks_Linear_5,303,1,48,46,1157350696
87,10,21,Ticks_Linear_5,304,5,42,127,1157363088
87,10,21,Ticks_Linear_5,305,1,48,49,1158098808
87,10,21,Ticks_Linear_5,306,5,42,127,1158143340
87,10,21,Ticks_Linear_5,307,5,42,127,1158922772
87,10,21,Ticks_Linear_5,308,1,48,46,1158954132
87,10,21,Ticks_Linear_5,309,1,48,50,1159688672
87,10,21,Ticks_Linear_5,310,5,42,127,1159713056
87,10,21,Ticks_Linear_5,311,1,48,47,1160432164
87,10,21,Ticks_Linear_5,312,5,42,127,1160502672
87,10,21,Ticks_Linear_5,313,1,48,43,1161250376
87,10,21,Ticks_Linear_5,314,5,42,127,1161293108
87,10,21,Ticks_Linear_5,315,1,48,42,1162033632
87,10,21,Ticks_Linear_5,316,5,42,127,1162082820
87,10,21,Ticks_Linear_5,317,1,48,46,1162840844
87,10,21,Ticks_Linear_5,318,5,42,127,1162873108
87,10,21,Ticks_Linear_5,319,1,48,46,1163601404
87,10,21,Ticks_Linear_5,320,5,42,127,1163672908
87,10,21,Ticks_Linear_5,321,1,48,42,1164413724
87,10,21,Ticks_Linear_5,322,5,42,127,1164472704
87,10,21,Ticks_Linear_5,323,1,48,41,1165229916
87,10,21,Ticks_Linear_5,324,5,42,127,1165272724
87,10,21,Ticks_Linear_5,325,1,48,35,1166023356
87,10,21,Ticks_Linear_5,326,5,42,127,1166073120
87,10,21,Ticks_Linear_5,327,1,48,46,1166862920
87,10,21,Ticks_Linear_5,328,5,42,127,1166872920
87,10,21,Ticks_Linear_5,329,5,42,127,1167682836
87,10,21,Ticks_Linear_5,330,1,48,44,1167730456
87,10,21,Ticks_Linear_5,331,5,42,127,1168493064
87,10,21,Ticks_Linear_5,332,1,48,48,1168508992
87,10,21,Ticks_Linear_5,333,5,42,127,1169302824
87,10,21,Ticks_Linear_5,334,1,48,45,1169316052
87,10,21,Ticks_Linear_5,335,1,48,52,1170089540
87,10,21,Ticks_Linear_5,336,5,42,127,1170112876
87,10,21,Ticks_Linear_5,337,1,48,50,1170878400
87,10,21,Ticks_Linear_5,338,5,42,127,1170922932
87,10,21,Ticks_Linear_5,0,9999,9999,9999,1061720148
87,10,21,Ticks_Linear_5,1,9999,9999,9999,1062200396
87,10,21,Ticks_Linear_5,2,9999,9999,9999,1062680700
87,10,21,Ticks_Linear_5,3,9999,9999,9999,1063160920
87,10,21,Ticks_Linear_5,4,9999,9999,9999,1063640176
87,10,21,Ticks_Linear_5,5,9999,9999,9999,1064130672
87,10,21,Ticks_Linear_5,6,9999,9999,9999,1064620108
87,10,21,Ticks_Linear_5,7,9999,9999,9999,1065110592
87,10,21,Ticks_Linear_5,8,9999,9999,9999,1065600116
87,10,21,Ticks_Linear_5,9,9999,9999,9999,1066090596
87,10,21,Ticks_Linear_5,10,9999,9999,9999,1066590272
87,10,21,Ticks_Linear_5,11,9999,9999,9999,1067091016
87,10,21,Ticks_Linear_5,12,9999,9999,9999,1067590716
87,10,21,Ticks_Linear_5,13,9999,9999,9999,1068090488
87,10,21,Ticks_Linear_5,14,9999,9999,9999,1068590188
87,10,21,Ticks_Linear_5,15,9999,9999,9999,1069100148
87,10,21,Ticks_Linear_5,16,9999,9999,9999,1069611080
87,10,21,Ticks_Linear_5,17,9999,9999,9999,1070130248
87,10,21,Ticks_Linear_5,18,9999,9999,9999,1070640208
87,10,21,Ticks_Linear_5,19,9999,9999,9999,1071150168
87,10,21,Ticks_Linear_5,20,9999,9999,9999,1071670384
87,10,21,Ticks_Linear_5,21,9999,9999,9999,1072190532
87,10,21,Ticks_Linear_5,22,9999,9999,9999,1072710748
87,10,21,Ticks_Linear_5,23,9999,9999,9999,1073230968
87,10,21,Ticks_Linear_5,24,9999,9999,9999,1073750140
87,10,21,Ticks_Linear_5,25,9999,9999,9999,1074280564
87,10,21,Ticks_Linear_5,26,9999,9999,9999,1074810968
87,10,21,Ticks_Linear_5,27,9999,9999,9999,1075340404
87,10,21,Ticks_Linear_5,28,9999,9999,9999,1075870800
87,10,21,Ticks_Linear_5,29,9999,9999,9999,1076400232
87,10,21,Ticks_Linear_5,30,9999,9999,9999,1076940892
87,10,21,Ticks_Linear_5,31,9999,9999,9999,1077480508
87,10,21,Ticks_Linear_5,32,9999,9999,9999,1078020196
87,10,21,Ticks_Linear_5,33,9999,9999,9999,1078560860
87,10,21,Ticks_Linear_5,34,9999,9999,9999,1079100476
87,10,21,Ticks_Linear_5,35,9999,9999,9999,1079650376
87,10,21,Ticks_Linear_5,36,9999,9999,9999,1080200248
87,10,21,Ticks_Linear_5,37,9999,9999,9999,1080750200
87,10,21,Ticks_Linear_5,38,9999,9999,9999,1081301120
87,10,21,Ticks_Linear_5,39,9999,9999,9999,1081850996
87,10,21,Ticks_Linear_5,40,9999,9999,9999,1082411128
87,10,21,Ticks_Linear_5,41,9999,9999,9999,1082980424
87,10,21,Ticks_Linear_5,42,9999,9999,9999,1083540556
87,10,21,Ticks_Linear_5,43,9999,9999,9999,1084100688
87,10,21,Ticks_Linear_5,44,9999,9999,9999,1084660824
87,10,21,Ticks_Linear_5,45,9999,9999,9999,1085230168
87,10,21,Ticks_Linear_5,46,9999,9999,9999,1085800508
87,10,21,Ticks_Linear_5,47,9999,9999,9999,1086370904
87,10,21,Ticks_Linear_5,48,9999,9999,9999,1086940248
87,10,21,Ticks_Linear_5,49,9999,9999,9999,1087510644
87,10,21,Ticks_Linear_5,50,9999,9999,9999,1088090176
87,10,21,Ticks_Linear_5,51,9999,9999,9999,1088670828
87,10,21,Ticks_Linear_5,52,9999,9999,9999,1089250356
87,10,21,Ticks_Linear_5,53,9999,9999,9999,1089831000
87,10,21,Ticks_Linear_5,54,9999,9999,9999,1090410560
87,10,21,Ticks_Linear_5,55,9999,9999,9999,1091000424
87,10,21,Ticks_Linear_5,56,9999,9999,9999,1091590212
87,10,21,Ticks_Linear_5,57,9999,9999,9999,1092181048
87,10,21,Ticks_Linear_5,58,9999,9999,9999,1092770936
87,10,21,Ticks_Linear_5,59,9999,9999,9999,1093360724
87,10,21,Ticks_Linear_5,60,9999,9999,9999,1093960772
87,10,21,Ticks_Linear_5,61,9999,9999,9999,1094560848
87,10,21,Ticks_Linear_5,62,9999,9999,9999,1095160896
87,10,21,Ticks_Linear_5,63,9999,9999,9999,1095760952
87,10,21,Ticks_Linear_5,64,9999,9999,9999,1096361016
87,10,21,Ticks_Linear_5,65,9999,9999,9999,1096970356
87,10,21,Ticks_Linear_5,66,9999,9999,9999,1097580612
87,10,21,Ticks_Linear_5,67,9999,9999,9999,1098190916
87,10,21,Ticks_Linear_5,68,9999,9999,9999,1098800184
87,10,21,Ticks_Linear_5,69,9999,9999,9999,1099410516
87,10,21,Ticks_Linear_5,70,9999,9999,9999,1100031080
87,10,21,Ticks_Linear_5,71,9999,9999,9999,1100650556
87,10,21,Ticks_Linear_5,72,9999,9999,9999,1101270144
87,10,21,Ticks_Linear_5,73,9999,9999,9999,1101890636
87,10,21,Ticks_Linear_5,74,9999,9999,9999,1102510184
87,10,21,Ticks_Linear_5,75,9999,9999,9999,1103140936
87,10,21,Ticks_Linear_5,76,9999,9999,9999,1103770744
87,10,21,Ticks_Linear_5,77,9999,9999,9999,1104400444
87,10,21,Ticks_Linear_5,78,9999,9999,9999,1105030244
87,10,21,Ticks_Linear_5,79,9999,9999,9999,1105661040
87,10,21,Ticks_Linear_5,80,9999,9999,9999,1106301036
87,10,21,Ticks_Linear_5,81,9999,9999,9999,1106941000
87,10,21,Ticks_Linear_5,82,9999,9999,9999,1107580988
87,10,21,Ticks_Linear_5,83,9999,9999,9999,1108221024
87,10,21,Ticks_Linear_5,84,9999,9999,9999,1108861012
87,10,21,Ticks_Linear_5,85,9999,9999,9999,1109510264
87,10,21,Ticks_Linear_5,86,9999,9999,9999,1110160512
87,10,21,Ticks_Linear_5,87,9999,9999,9999,1110810732
87,10,21,Ticks_Linear_5,88,9999,9999,9999,1111460984
87,10,21,Ticks_Linear_5,89,9999,9999,9999,1112110164
87,10,21,Ticks_Linear_5,90,9999,9999,9999,1112770644
87,10,21,Ticks_Linear_5,91,9999,9999,9999,1113430080
87,10,21,Ticks_Linear_5,92,9999,9999,9999,1114090584
87,10,21,Ticks_Linear_5,93,9999,9999,9999,1114751088
87,10,21,Ticks_Linear_5,94,9999,9999,9999,1115410524
87,10,21,Ticks_Linear_5,95,9999,9999,9999,1116080244
87,10,21,Ticks_Linear_5,96,9999,9999,9999,1116750908
87,10,21,Ticks_Linear_5,97,9999,9999,9999,1117420632
87,10,21,Ticks_Linear_5,98,9999,9999,9999,1118090352
87,10,21,Ticks_Linear_5,99,9999,9999,9999,1118761016
87,10,21,Ticks_Linear_5,100,9999,9999,9999,1119440996
87,10,21,Ticks_Linear_5,101,9999,9999,9999,1120120944
87,10,21,Ticks_Linear_5,102,9999,9999,9999,1120800820
87,10,21,Ticks_Linear_5,103,9999,9999,9999,1121480804
87,10,21,Ticks_Linear_5,104,9999,9999,9999,1122160708
87,10,21,Ticks_Linear_5,105,9999,9999,9999,1122850912
87,10,21,Ticks_Linear_5,106,9999,9999,9999,1123541084
87,10,21,Ticks_Linear_5,107,9999,9999,9999,1124230268
87,10,21,Ticks_Linear_5,108,9999,9999,9999,1124920408
87,10,21,Ticks_Linear_5,109,9999,9999,9999,1125610568
87,10,21,Ticks_Linear_5,110,9999,9999,9999,1126310996
87,10,21,Ticks_Linear_5,111,9999,9999,9999,1127010372
87,10,21,Ticks_Linear_5,112,9999,9999,9999,1127710844
87,10,21,Ticks_Linear_5,113,9999,9999,9999,1128410220
87,10,21,Ticks_Linear_5,114,9999,9999,9999,1129110640
87,10,21,Ticks_Linear_5,115,9999,9999,9999,1129820268
87,10,21,Ticks_Linear_5,116,9999,9999,9999,1130530924
87,10,21,Ticks_Linear_5,117,9999,9999,9999,1131240560
87,10,21,Ticks_Linear_5,118,9999,9999,9999,1131950200
87,10,21,Ticks_Linear_5,119,9999,9999,9999,1132660800
87,10,21,Ticks_Linear_5,120,9999,9999,9999,1133380676
87,10,21,Ticks_Linear_5,121,9999,9999,9999,1134100560
87,10,21,Ticks_Linear_5,122,9999,9999,9999,1134820456
87,10,21,Ticks_Linear_5,123,9999,9999,9999,1135540280
87,10,21,Ticks_Linear_5,124,9999,9999,9999,1136260176
87,10,21,Ticks_Linear_5,125,9999,9999,9999,1136990320
87,10,21,Ticks_Linear_5,126,9999,9999,9999,1137720380
87,10,21,Ticks_Linear_5,127,9999,9999,9999,1138450532
87,10,21,Ticks_Linear_5,128,9999,9999,9999,1139180604
87,10,21,Ticks_Linear_5,129,9999,9999,9999,1139910756
87,10,21,Ticks_Linear_5,130,9999,9999,9999,1140651096
87,10,21,Ticks_Linear_5,131,9999,9999,9999,1141400644
87,10,21,Ticks_Linear_5,132,9999,9999,9999,1142141056
87,10,21,Ticks_Linear_5,133,9999,9999,9999,1142880344
87,10,21,Ticks_Linear_5,134,9999,9999,9999,1143620728
87,10,21,Ticks_Linear_5,135,9999,9999,9999,1144370284
87,10,21,Ticks_Linear_5,136,9999,9999,9999,1145120876
87,10,21,Ticks_Linear_5,137,9999,9999,9999,1145870428
87,10,21,Ticks_Linear_5,138,9999,9999,9999,1146621024
87,10,21,Ticks_Linear_5,139,9999,9999,9999,1147370572
87,10,21,Ticks_Linear_5,140,9999,9999,9999,1148130384
87,10,21,Ticks_Linear_5,141,9999,9999,9999,1148890192
87,10,21,Ticks_Linear_5,142,9999,9999,9999,1149651048
87,10,21,Ticks_Linear_5,143,9999,9999,9999,1150410856
87,10,21,Ticks_Linear_5,144,9999,9999,9999,1151170664
87,10,21,Ticks_Linear_5,145,9999,9999,9999,1151940732
87,10,21,Ticks_Linear_5,146,9999,9999,9999,1152710724
87,10,21,Ticks_Linear_5,147,9999,9999,9999,1153480792
87,10,21,Ticks_Linear_5,148,9999,9999,9999,1154250864
87,10,21,Ticks_Linear_5,149,9999,9999,9999,1155020856
87,10,21,Ticks_Linear_5,150,9999,9999,9999,1155800136
87,10,21,Ticks_Linear_5,151,9999,9999,9999,1156580464
87,10,21,Ticks_Linear_5,152,9999,9999,9999,1157360712
87,10,21,Ticks_Linear_5,153,9999,9999,9999,1158141040
87,10,21,Ticks_Linear_5,154,9999,9999,9999,1158920252
87,10,21,Ticks_Linear_5,155,9999,9999,9999,1159710832
87,10,21,Ticks_Linear_5,156,9999,9999,9999,1160500300
87,10,21,Ticks_Linear_5,157,9999,9999,9999,1161290808
87,10,21,Ticks_Linear_5,158,9999,9999,9999,1162080376
87,10,21,Ticks_Linear_5,159,9999,9999,9999,1162870884
87,10,21,Ticks_Linear_5,160,9999,9999,9999,1163670608
87,10,21,Ticks_Linear_5,161,9999,9999,9999,1164470332
87,10,21,Ticks_Linear_5,162,9999,9999,9999,1165270128
87,10,21,Ticks_Linear_5,163,9999,9999,9999,1166070896
87,10,21,Ticks_Linear_5,164,9999,9999,9999,1166870620
87,10,21,Ticks_Linear_5,165,9999,9999,9999,1167680612
87,10,21,Ticks_Linear_5,166,9999,9999,9999,1168490620
87,10,21,Ticks_Linear_5,167,9999,9999,9999,1169300600
87,10,21,Ticks_Linear_5,168,9999,9999,9999,1170110576
87,10,21,Ticks_Linear_5,169,9999,9999,9999,1170920560
87,11,25,Jits_Pract_5,0,5,56,103,1230951708
87,11,25,Jits_Pract_5,1,5,63,98,1230954956
87,11,25,Jits_Pract_5,2,5,80,127,1230958000
87,11,25,Jits_Pract_5,0,5,56,103,1231451432
87,11,25,Jits_Pract_5,1,5,63,98,1231454452
87,11,25,Jits_Pract_5,2,5,80,127,1231457576
87,11,25,Jits_Pract_5,0,5,56,103,1231952336
87,11,25,Jits_Pract_5,1,5,80,127,1231961512
87,11,25,Jits_Pract_5,2,5,63,98,1231981820
87,11,25,Jits_Pract_5,0,5,63,98,1232401736
87,11,25,Jits_Pract_5,1,5,80,127,1232431340
87,11,25,Jits_Pract_5,2,5,56,103,1232441832
87,11,25,Jits_Pract_5,0,5,80,127,1232961848
87,11,25,Jits_Pract_5,1,5,56,103,1232972416
87,11,25,Jits_Pract_5,2,5,63,98,1233001820
87,11,25,Jits_Pract_5,0,5,63,98,1233452456
87,11,25,Jits_Pract_5,1,5,56,103,1233482280
87,11,25,Jits_Pract_5,2,5,80,127,1233492328
87,11,25,Jits_Pract_5,0,5,56,103,1233901912
87,11,25,Jits_Pract_5,1,5,63,98,1233952264
87,11,25,Jits_Pract_5,2,5,80,127,1233971528
87,11,25,Jits_Pract_5,0,5,80,127,1234401732
87,11,25,Jits_Pract_5,1,5,63,98,1234451788
87,11,25,Jits_Pract_5,2,5,56,103,1234491724
87,11,25,Jits_Pract_5,0,5,56,103,1234902600
87,11,25,Jits_Pract_5,1,5,63,98,1234932052
87,11,25,Jits_Pract_5,2,5,80,127,1235001584
87,11,25,Jits_Pract_5,0,5,56,103,1235412456
87,11,25,Jits_Pract_5,1,5,80,127,1235471656
87,11,25,Jits_Pract_5,2,5,63,98,1235501328
87,11,25,Jits_Pract_5,0,5,56,103,1235922464
87,11,25,Jits_Pract_5,1,5,63,98,1235931468
87,11,25,Jits_Pract_5,2,5,80,127,1235971404
87,11,25,Jits_Pract_5,0,5,63,98,1236411868
87,11,25,Jits_Pract_5,1,5,80,127,1236491740
87,11,25,Jits_Pract_5,2,5,56,103,1236501860
87,11,25,Jits_Pract_5,0,5,63,98,1236961500
87,11,25,Jits_Pract_5,1,5,56,103,1237001588
87,11,25,Jits_Pract_5,2,5,80,127,1237004504
87,11,25,Jits_Pract_5,0,5,56,103,1237421292
87,11,25,Jits_Pract_5,1,5,63,98,1237431788
87,11,25,Jits_Pract_5,2,5,80,127,1237471500
87,11,25,Jits_Pract_5,0,5,56,103,1237912264
87,11,25,Jits_Pract_5,1,5,63,98,1237915176
87,11,25,Jits_Pract_5,2,5,80,127,1237932272
87,11,25,Jits_Pract_5,0,9999,9999,9999,1231199292
87,11,25,Jits_Pract_5,1,9999,9999,9999,1231700036
87,11,25,Jits_Pract_5,2,9999,9999,9999,1232199776
87,11,25,Jits_Pract_5,3,9999,9999,9999,1232699444
87,11,25,Jits_Pract_5,4,9999,9999,9999,1233199176
87,11,25,Jits_Pract_5,5,9999,9999,9999,1233699896
87,11,25,Jits_Pract_5,6,9999,9999,9999,1234199624
87,11,25,Jits_Pract_5,7,9999,9999,9999,1234699368
87,11,25,Jits_Pract_5,8,9999,9999,9999,1235200088
87,11,25,Jits_Pract_5,9,9999,9999,9999,1235710020
87,11,25,Jits_Pract_5,10,9999,9999,9999,1236209760
87,11,25,Jits_Pract_5,11,9999,9999,9999,1236709432
87,11,25,Jits_Pract_5,12,9999,9999,9999,1237209156
87,11,25,Jits_Pract_5,13,9999,9999,9999,1237709932
87,11,25,Jits_Pract_5,14,9999,9999,9999,1238209584
87,12,24,Jits_Pract_8,0,5,56,103,1288407376
87,12,24,Jits_Pract_8,1,5,63,98,1288410700
87,12,24,Jits_Pract_8,2,5,80,127,1288413816
87,12,24,Jits_Pract_8,0,1,48,37,1288959052
87,12,24,Jits_Pract_8,1,5,56,103,1289207292
87,12,24,Jits_Pract_8,2,5,63,98,1289210540
87,12,24,Jits_Pract_8,3,5,80,127,1289213584
87,12,24,Jits_Pract_8,0,1,48,42,1289939676
87,12,24,Jits_Pract_8,1,5,80,127,1289946452
87,12,24,Jits_Pract_8,2,5,63,98,1290036644
87,12,24,Jits_Pract_8,3,5,56,103,1290046768
87,12,24,Jits_Pract_8,0,5,56,103,1290766592
87,12,24,Jits_Pract_8,1,5,63,98,1290776940
87,12,24,Jits_Pract_8,2,1,48,48,1290783568
87,12,24,Jits_Pract_8,3,5,80,127,1290867160
87,12,24,Jits_Pract_8,0,5,63,98,1291536764
87,12,24,Jits_Pract_8,1,1,48,48,1291552092
87,12,24,Jits_Pract_8,2,5,80,127,1291566360
87,12,24,Jits_Pract_8,3,5,56,103,1291597232
87,12,24,Jits_Pract_8,0,1,48,48,1292324408
87,12,24,Jits_Pract_8,1,5,56,103,1292336508
87,12,24,Jits_Pract_8,2,5,80,127,1292436988
87,12,24,Jits_Pract_8,3,5,63,98,1292487116
87,12,24,Jits_Pract_8,0,5,56,103,1293137172
87,12,24,Jits_Pract_8,1,1,48,48,1293184304
87,12,24,Jits_Pract_8,2,5,80,127,1293186420
87,12,24,Jits_Pract_8,3,5,63,98,1293227328
87,12,24,Jits_Pract_8,0,1,48,48,1293940076
87,12,24,Jits_Pract_8,1,5,80,127,1293966628
87,12,24,Jits_Pract_8,2,5,63,98,1293997424
87,12,24,Jits_Pract_8,3,5,56,103,1294067160
87,12,24,Jits_Pract_8,0,1,48,43,1294751364
87,12,24,Jits_Pract_8,1,5,63,98,1294797248
87,12,24,Jits_Pract_8,2,5,56,103,1294827072
87,12,24,Jits_Pract_8,3,5,80,127,1294887296
87,12,24,Jits_Pract_8,0,5,56,103,1295536552
87,12,24,Jits_Pract_8,1,5,80,127,1295539692
87,12,24,Jits_Pract_8,2,1,48,51,1295581548
87,12,24,Jits_Pract_8,3,5,63,98,1295657316
87,12,24,Jits_Pract_8,0,1,48,48,1296328556
87,12,24,Jits_Pract_8,1,5,56,103,1296417072
87,12,24,Jits_Pract_8,2,5,80,127,1296457216
87,12,24,Jits_Pract_8,3,5,63,98,1296467412
87,12,24,Jits_Pract_8,0,1,48,47,1297152044
87,12,24,Jits_Pract_8,1,5,56,103,1297177024
87,12,24,Jits_Pract_8,2,5,80,127,1297197556
87,12,24,Jits_Pract_8,3,5,63,98,1297277284
87,12,24,Jits_Pract_8,0,1,48,48,1297962884
87,12,24,Jits_Pract_8,1,5,80,127,1297966516
87,12,24,Jits_Pract_8,2,5,56,103,1298066924
87,12,24,Jits_Pract_8,3,5,63,98,1298077044
87,12,24,Jits_Pract_8,0,5,63,98,1298736536
87,12,24,Jits_Pract_8,1,1,48,47,1298786812
87,12,24,Jits_Pract_8,2,5,80,127,1298796872
87,12,24,Jits_Pract_8,3,5,56,103,1298807068
87,12,24,Jits_Pract_8,0,1,48,47,1299532576
87,12,24,Jits_Pract_8,1,5,56,103,1299537256
87,12,24,Jits_Pract_8,2,5,63,98,1299607192
87,12,24,Jits_Pract_8,3,5,80,127,1299610400
87,12,24,Jits_Pract_8,0,9999,9999,9999,1288804432
87,12,24,Jits_Pract_8,1,9999,9999,9999,1289604200
87,12,24,Jits_Pract_8,2,9999,9999,9999,1290404932
87,12,24,Jits_Pract_8,3,9999,9999,9999,1291204688
87,12,24,Jits_Pract_8,4,9999,9999,9999,1292004448
87,12,24,Jits_Pract_8,5,9999,9999,9999,1292804208
87,12,24,Jits_Pract_8,6,9999,9999,9999,1293604932
87,12,24,Jits_Pract_8,7,9999,9999,9999,1294404704
87,12,24,Jits_Pract_8,8,9999,9999,9999,1295204412
87,12,24,Jits_Pract_8,9,9999,9999,9999,1296004156
87,12,24,Jits_Pract_8,10,9999,9999,9999,1296804952
87,12,24,Jits_Pract_8,11,9999,9999,9999,1297604712
87,12,24,Jits_Pract_8,12,9999,9999,9999,1298404472
87,12,24,Jits_Pract_8,13,9999,9999,9999,1299204148
87,12,24,Jits_Pract_8,14,9999,9999,9999,1300004940
87,13,25,Jits_Pract_5,0,5,56,103,1309616576
87,13,25,Jits_Pract_5,1,5,63,98,1309619824
87,13,25,Jits_Pract_5,2,5,80,127,1309622868
87,13,25,Jits_Pract_5,0,5,56,103,1310117272
87,13,25,Jits_Pract_5,1,5,63,98,1310120292
87,13,25,Jits_Pract_5,2,5,80,127,1310123344
87,13,25,Jits_Pract_5,3,1,48,34,1310248804
87,13,25,Jits_Pract_5,0,1,48,27,1310588772
87,13,25,Jits_Pract_5,1,5,56,103,1310616972
87,13,25,Jits_Pract_5,2,5,80,127,1310627168
87,13,25,Jits_Pract_5,3,5,63,98,1310646728
87,13,25,Jits_Pract_5,0,1,48,39,1311059548
87,13,25,Jits_Pract_5,1,5,63,98,1311066472
87,13,25,Jits_Pract_5,2,5,80,127,1311097120
87,13,25,Jits_Pract_5,3,5,56,103,1311106272
87,13,25,Jits_Pract_5,0,1,48,37,1311537188
87,13,25,Jits_Pract_5,1,5,80,127,1311626840
87,13,25,Jits_Pract_5,2,5,56,103,1311636872
87,13,25,Jits_Pract_5,3,5,63,98,1311666400
87,13,25,Jits_Pract_5,0,5,63,98,1312117104
87,13,25,Jits_Pract_5,1,5,56,103,1312146852
87,13,25,Jits_Pract_5,2,5,80,127,1312157124
87,13,25,Jits_Pract_5,3,1,48,35,1312161288
87,13,25,Jits_Pract_5,0,5,56,103,1312566648
87,13,25,Jits_Pract_5,1,5,63,98,1312616952
87,13,25,Jits_Pract_5,2,5,80,127,1312637260
87,13,25,Jits_Pract_5,3,1,48,42,1312651016
87,13,25,Jits_Pract_5,0,5,80,127,1313067320
87,13,25,Jits_Pract_5,1,1,48,35,1313074028
87,13,25,Jits_Pract_5,2,5,63,98,1313116496
87,13,25,Jits_Pract_5,3,5,56,103,1313156360
87,13,25,Jits_Pract_5,0,5,56,103,1313567024
87,13,25,Jits_Pract_5,1,5,63,98,1313596776
87,13,25,Jits_Pract_5,2,1,48,40,1313599672
87,13,25,Jits_Pract_5,3,5,80,127,1313666400
87,13,25,Jits_Pract_5,0,5,56,103,1314066872
87,13,25,Jits_Pract_5,1,1,48,37,1314079060
87,13,25,Jits_Pract_5,2,5,80,127,1314127184
87,13,25,Jits_Pract_5,3,5,63,98,1314156812
87,13,25,Jits_Pract_5,0,1,48,38,1314572608
87,13,25,Jits_Pract_5,1,5,56,103,1314576760
87,13,25,Jits_Pract_5,2,5,63,98,1314587108
87,13,25,Jits_Pract_5,3,5,80,127,1314626896
87,13,25,Jits_Pract_5,0,1,48,37,1315060308
87,13,25,Jits_Pract_5,1,5,63,98,1315067232
87,13,25,Jits_Pract_5,2,5,80,127,1315147104
87,13,25,Jits_Pract_5,3,5,56,103,1315157472
87,13,25,Jits_Pract_5,0,1,48,41,1315594996
87,13,25,Jits_Pract_5,1,5,63,98,1315617120
87,13,25,Jits_Pract_5,2,5,56,103,1315657060
87,13,25,Jits_Pract_5,3,5,80,127,1315660124
87,13,25,Jits_Pract_5,0,5,56,103,1316076880
87,13,25,Jits_Pract_5,1,5,63,98,1316087300
87,13,25,Jits_Pract_5,2,1,48,36,1316110348
87,13,25,Jits_Pract_5,3,5,80,127,1316127080
87,13,25,Jits_Pract_5,0,5,56,103,1316567436
87,13,25,Jits_Pract_5,1,5,63,98,1316570500
87,13,25,Jits_Pract_5,2,1,48,35,1316573168
87,13,25,Jits_Pract_5,3,5,80,127,1316586916
87,13,25,Jits_Pract_5,0,9999,9999,9999,1309865056
87,13,25,Jits_Pract_5,1,9999,9999,9999,1310364760
87,13,25,Jits_Pract_5,2,9999,9999,9999,1310864472
87,13,25,Jits_Pract_5,3,9999,9999,9999,1311364164
87,13,25,Jits_Pract_5,4,9999,9999,9999,1311864904
87,13,25,Jits_Pract_5,5,9999,9999,9999,1312364596
87,13,25,Jits_Pract_5,6,9999,9999,9999,1312864360
87,13,25,Jits_Pract_5,7,9999,9999,9999,1313365108
87,13,25,Jits_Pract_5,8,9999,9999,9999,1313864788
87,13,25,Jits_Pract_5,9,9999,9999,9999,1314364488
87,13,25,Jits_Pract_5,10,9999,9999,9999,1314864188
87,13,25,Jits_Pract_5,11,9999,9999,9999,1315364928
87,13,25,Jits_Pract_5,12,9999,9999,9999,1315864688
87,13,25,Jits_Pract_5,13,9999,9999,9999,1316364376
87,13,25,Jits_Pract_5,14,9999,9999,9999,1316864064
87,14,15,Jits_Phase_8,0,5,56,103,1344301372
87,14,15,Jits_Phase_8,1,5,63,98,1344304468
87,14,15,Jits_Phase_8,2,5,80,127,1344307592
87,14,15,Jits_Phase_8,0,1,48,32,1344941488
87,14,15,Jits_Phase_8,1,5,56,103,1345101364
87,14,15,Jits_Phase_8,2,5,63,98,1345104312
87,14,15,Jits_Phase_8,3,5,80,127,1345107608
87,14,15,Jits_Phase_8,0,1,48,41,1345828644
87,14,15,Jits_Phase_8,1,5,80,127,1345840524
87,14,15,Jits_Phase_8,2,5,63,98,1345930516
87,14,15,Jits_Phase_8,3,5,56,103,1345940788
87,14,15,Jits_Phase_8,0,5,56,103,1346660616
87,14,15,Jits_Phase_8,1,5,63,98,1346670888
87,14,15,Jits_Phase_8,2,1,48,45,1346701356
87,14,15,Jits_Phase_8,3,5,80,127,1346761160
87,14,15,Jits_Phase_8,0,5,63,98,1347430716
87,14,15,Jits_Phase_8,1,5,80,127,1347460468
87,14,15,Jits_Phase_8,2,5,56,103,1347491412
87,14,15,Jits_Phase_8,3,1,48,43,1347492376
87,14,15,Jits_Phase_8,0,5,56,103,1348230392
87,14,15,Jits_Phase_8,1,1,48,49,1348252992
87,14,15,Jits_Phase_8,2,5,80,127,1348331080
87,14,15,Jits_Phase_8,3,5,63,98,1348381120
87,14,15,Jits_Phase_8,0,5,56,103,1349031140
87,14,15,Jits_Phase_8,1,1,48,47,1349064000
87,14,15,Jits_Phase_8,2,5,80,127,1349080364
87,14,15,Jits_Phase_8,3,5,63,98,1349121424
87,14,15,Jits_Phase_8,0,1,48,50,1349842040
87,14,15,Jits_Phase_8,1,5,80,127,1349860648
87,14,15,Jits_Phase_8,2,5,63,98,1349890548
87,14,15,Jits_Phase_8,3,5,56,103,1349961184
87,14,15,Jits_Phase_8,0,1,48,44,1350687416
87,14,15,Jits_Phase_8,1,5,63,98,1350691124
87,14,15,Jits_Phase_8,2,5,56,103,1350721020
87,14,15,Jits_Phase_8,3,5,80,127,1350781268
87,14,15,Jits_Phase_8,0,5,56,103,1351430420
87,14,15,Jits_Phase_8,1,5,80,127,1351433416
87,14,15,Jits_Phase_8,2,1,48,41,1351521972
87,14,15,Jits_Phase_8,3,5,63,98,1351551364
87,14,15,Jits_Phase_8,0,1,48,44,1352281504
87,14,15,Jits_Phase_8,1,5,56,103,1352311196
87,14,15,Jits_Phase_8,2,5,80,127,1352351060
87,14,15,Jits_Phase_8,3,5,63,98,1352361256
87,14,15,Jits_Phase_8,0,5,56,103,1353071108
87,14,15,Jits_Phase_8,1,5,80,127,1353090300
87,14,15,Jits_Phase_8,2,1,48,41,1353130428
87,14,15,Jits_Phase_8,3,5,63,98,1353171352
87,14,15,Jits_Phase_8,0,1,48,47,1353824696
87,14,15,Jits_Phase_8,1,5,80,127,1353860464
87,14,15,Jits_Phase_8,2,5,56,103,1353960920
87,14,15,Jits_Phase_8,3,5,63,98,1353971188
87,14,15,Jits_Phase_8,0,5,63,98,1354630484
87,14,15,Jits_Phase_8,1,1,48,44,1354646260
87,14,15,Jits_Phase_8,2,5,80,127,1354691168
87,14,15,Jits_Phase_8,3,5,56,103,1354701212
87,14,15,Jits_Phase_8,0,5,56,103,1355431356
87,14,15,Jits_Phase_8,1,1,48,44,1355488504
87,14,15,Jits_Phase_8,2,5,63,98,1355501104
87,14,15,Jits_Phase_8,3,5,80,127,1355504392
87,14,15,Jits_Phase_8,0,1,48,41,1356251688
87,14,15,Jits_Phase_8,1,5,63,98,1356260856
87,14,15,Jits_Phase_8,2,5,56,103,1356311284
87,14,15,Jits_Phase_8,3,5,80,127,1356314196
87,14,15,Jits_Phase_8,0,5,56,103,1357020524
87,14,15,Jits_Phase_8,1,5,80,127,1357023592
87,14,15,Jits_Phase_8,2,1,48,35,1357039308
87,14,15,Jits_Phase_8,3,5,63,98,1357110576
87,14,15,Jits_Phase_8,0,5,63,98,1357861112
87,14,15,Jits_Phase_8,1,1,48,31,1357880944
87,14,15,Jits_Phase_8,2,5,56,103,1357951340
87,14,15,Jits_Phase_8,3,5,80,127,1357980924
87,14,15,Jits_Phase_8,0,5,56,103,1358650688
87,14,15,Jits_Phase_8,1,1,48,39,1358683724
87,14,15,Jits_Phase_8,2,5,63,98,1358751028
87,14,15,Jits_Phase_8,3,5,80,127,1358780912
87,14,15,Jits_Phase_8,0,1,48,46,1359431400
87,14,15,Jits_Phase_8,1,5,63,98,1359471084
87,14,15,Jits_Phase_8,2,5,56,103,1359481128
87,14,15,Jits_Phase_8,3,5,80,127,1359571316
87,14,15,Jits_Phase_8,0,5,63,98,1360291228
87,14,15,Jits_Phase_8,1,1,48,51,1360335928
87,14,15,Jits_Phase_8,2,5,56,103,1360371016
87,14,15,Jits_Phase_8,3,5,80,127,1360374080
87,14,15,Jits_Phase_8,0,5,80,127,1361050972
87,14,15,Jits_Phase_8,1,5,63,98,1361070384
87,14,15,Jits_Phase_8,2,1,48,37,1361109840
87,14,15,Jits_Phase_8,3,5,56,103,1361131140
87,14,15,Jits_Phase_8,0,5,56,103,1361890600
87,14,15,Jits_Phase_8,1,1,48,49,1361897684
87,14,15,Jits_Phase_8,2,5,63,98,1361911128
87,14,15,Jits_Phase_8,3,5,80,127,1361914416
87,14,15,Jits_Phase_8,0,5,63,98,1362631100
87,14,15,Jits_Phase_8,1,1,48,47,1362653172
87,14,15,Jits_Phase_8,2,5,80,127,1362710888
87,14,15,Jits_Phase_8,3,5,56,103,1362721232
87,14,15,Jits_Phase_8,0,1,48,46,1363395452
87,14,15,Jits_Phase_8,1,5,63,98,1363451304
87,14,15,Jits_Phase_8,2,5,56,103,1363470716
87,14,15,Jits_Phase_8,3,5,80,127,1363520824
87,14,15,Jits_Phase_8,0,1,48,45,1364171612
87,14,15,Jits_Phase_8,1,5,80,127,1364250980
87,14,15,Jits_Phase_8,2,5,63,98,1364290904
87,14,15,Jits_Phase_8,3,5,56,103,1364311464
87,14,15,Jits_Phase_8,0,1,48,51,1364945140
87,14,15,Jits_Phase_8,1,5,56,103,1365090752
87,14,15,Jits_Phase_8,2,5,63,98,1365100876
87,14,15,Jits_Phase_8,3,5,80,127,1365121332
87,14,15,Jits_Phase_8,0,1,48,41,1365807152
87,14,15,Jits_Phase_8,1,5,56,103,1365820968
87,14,15,Jits_Phase_8,2,5,63,98,1365911040
87,14,15,Jits_Phase_8,3,5,80,127,1365971356
87,14,15,Jits_Phase_8,0,1,48,45,1366632264
87,14,15,Jits_Phase_8,1,5,80,127,1366651248
87,14,15,Jits_Phase_8,2,5,56,103,1366660324
87,14,15,Jits_Phase_8,3,5,63,98,1366731256
87,14,15,Jits_Phase_8,0,5,63,98,1367480824
87,14,15,Jits_Phase_8,1,1,48,37,1367510920
87,14,15,Jits_Phase_8,2,5,80,127,1367570956
87,14,15,Jits_Phase_8,3,5,56,103,1367581152
87,14,15,Jits_Phase_8,0,5,63,98,1368210988
87,14,15,Jits_Phase_8,1,5,80,127,1368261044
87,14,15,Jits_Phase_8,2,5,56,103,1368321360
87,14,15,Jits_Phase_8,3,1,48,43,1368329728
87,14,15,Jits_Phase_8,0,5,56,103,1369031052
87,14,15,Jits_Phase_8,1,1,48,42,1369077688
87,14,15,Jits_Phase_8,2,5,80,127,1369081320
87,14,15,Jits_Phase_8,3,5,63,98,1369100732
87,14,15,Jits_Phase_8,0,5,56,103,1369800932
87,14,15,Jits_Phase_8,1,1,48,46,1369828392
87,14,15,Jits_Phase_8,2,5,80,127,1369860640
87,14,15,Jits_Phase_8,3,5,63,98,1369931128
87,14,15,Jits_Phase_8,0,5,56,103,1370600772
87,14,15,Jits_Phase_8,1,1,48,50,1370601740
87,14,15,Jits_Phase_8,2,5,80,127,1370630668
87,14,15,Jits_Phase_8,3,5,63,98,1370661088
87,14,15,Jits_Phase_8,0,1,48,46,1371365808
87,14,15,Jits_Phase_8,1,5,56,103,1371440468
87,14,15,Jits_Phase_8,2,5,80,127,1371461072
87,14,15,Jits_Phase_8,3,5,63,98,1371521248
87,14,15,Jits_Phase_8,0,1,48,51,1372207892
87,14,15,Jits_Phase_8,1,5,80,127,1372321072
87,14,15,Jits_Phase_8,2,5,56,103,1372331268
87,14,15,Jits_Phase_8,3,5,63,98,1372340864
87,14,15,Jits_Phase_8,0,5,56,103,1373080928
87,14,15,Jits_Phase_8,1,1,48,50,1373083592
87,14,15,Jits_Phase_8,2,5,80,127,1373120784
87,14,15,Jits_Phase_8,3,5,63,98,1373150832
87,14,15,Jits_Phase_8,0,5,56,103,1373850960
87,14,15,Jits_Phase_8,1,5,63,98,1373880636
87,14,15,Jits_Phase_8,2,5,80,127,1373920720
87,14,15,Jits_Phase_8,3,1,48,50,1373925412
87,14,15,Jits_Phase_8,0,5,80,127,1374600676
87,14,15,Jits_Phase_8,1,5,63,98,1374650952
87,14,15,Jits_Phase_8,2,5,56,103,1374671116
87,14,15,Jits_Phase_8,3,1,48,48,1374680456
87,14,15,Jits_Phase_8,0,5,56,103,1375431012
87,14,15,Jits_Phase_8,1,1,48,45,1375438920
87,14,15,Jits_Phase_8,2,5,80,127,1375500612
87,14,15,Jits_Phase_8,3,5,63,98,1375561136
87,14,15,Jits_Phase_8,0,5,80,127,1376230788
87,14,15,Jits_Phase_8,1,1,48,42,1376281112
87,14,15,Jits_Phase_8,2,5,63,98,1376320844
87,14,15,Jits_Phase_8,3,5,56,103,1376341548
87,14,15,Jits_Phase_8,0,1,48,44,1377023192
87,14,15,Jits_Phase_8,1,5,63,98,1377051012
87,14,15,Jits_Phase_8,2,5,56,103,1377070572
87,14,15,Jits_Phase_8,3,5,80,127,1377111360
87,14,15,Jits_Phase_8,0,1,48,42,1377806080
87,14,15,Jits_Phase_8,1,5,80,127,1377810760
87,14,15,Jits_Phase_8,2,5,63,98,1377831296
87,14,15,Jits_Phase_8,3,5,56,103,1377911172
87,14,15,Jits_Phase_8,0,5,63,98,1378601452
87,14,15,Jits_Phase_8,1,1,48,44,1378618200
87,14,15,Jits_Phase_8,2,5,56,103,1378711608
87,14,15,Jits_Phase_8,3,5,80,127,1378714508
87,14,15,Jits_Phase_8,0,5,63,98,1379420484
87,14,15,Jits_Phase_8,1,1,48,47,1379426140
87,14,15,Jits_Phase_8,2,5,56,103,1379430892
87,14,15,Jits_Phase_8,3,5,80,127,1379434032
87,14,15,Jits_Phase_8,0,5,56,103,1380200816
87,14,15,Jits_Phase_8,1,1,48,38,1380213972
87,14,15,Jits_Phase_8,2,5,80,127,1380320596
87,14,15,Jits_Phase_8,3,5,63,98,1380360536
87,14,15,Jits_Phase_8,0,5,56,103,1381021108
87,14,15,Jits_Phase_8,1,1,48,48,1381047524
87,14,15,Jits_Phase_8,2,5,80,127,1381100976
87,14,15,Jits_Phase_8,3,5,63,98,1381121656
87,14,15,Jits_Phase_8,0,5,56,103,1381820732
87,14,15,Jits_Phase_8,1,1,48,51,1381865656
87,14,15,Jits_Phase_8,2,5,63,98,1381931312
87,14,15,Jits_Phase_8,3,5,80,127,1381934824
87,14,15,Jits_Phase_8,0,5,56,103,1382660732
87,14,15,Jits_Phase_8,1,1,48,51,1382678920
87,14,15,Jits_Phase_8,2,5,80,127,1382691076
87,14,15,Jits_Phase_8,3,5,63,98,1382710712
87,14,15,Jits_Phase_8,0,5,63,98,1383450912
87,14,15,Jits_Phase_8,1,5,56,103,1383461108
87,14,15,Jits_Phase_8,2,5,80,127,1383470704
87,14,15,Jits_Phase_8,3,1,48,48,1383482140
87,14,15,Jits_Phase_8,0,5,80,127,1384240476
87,14,15,Jits_Phase_8,1,5,56,103,1384290628
87,14,15,Jits_Phase_8,2,1,48,46,1384293072
87,14,15,Jits_Phase_8,3,5,63,98,1384330632
87,14,15,Jits_Phase_8,0,5,80,127,1385060720
87,14,15,Jits_Phase_8,1,5,63,98,1385081332
87,14,15,Jits_Phase_8,2,1,48,50,1385110604
87,14,15,Jits_Phase_8,3,5,56,103,1385131524
87,14,15,Jits_Phase_8,0,5,80,127,1385870760
87,14,15,Jits_Phase_8,1,5,56,103,1385901408
87,14,15,Jits_Phase_8,2,1,48,46,1385914564
87,14,15,Jits_Phase_8,3,5,63,98,1385971004
87,14,15,Jits_Phase_8,0,1,48,46,1386696868
87,14,15,Jits_Phase_8,1,5,56,103,1386720648
87,14,15,Jits_Phase_8,2,5,80,127,1386730772
87,14,15,Jits_Phase_8,3,5,63,98,1386770784
87,14,15,Jits_Phase_8,0,5,56,103,1387431708
87,14,15,Jits_Phase_8,1,5,63,98,1387450600
87,14,15,Jits_Phase_8,2,5,80,127,1387521548
87,14,15,Jits_Phase_8,3,1,48,48,1387523992
87,14,15,Jits_Phase_8,0,1,48,49,1388244404
87,14,15,Jits_Phase_8,1,5,63,98,1388250428
87,14,15,Jits_Phase_8,2,5,80,127,1388310892
87,14,15,Jits_Phase_8,3,5,56,103,1388331352
87,14,15,Jits_Phase_8,0,5,80,127,1389041048
87,14,15,Jits_Phase_8,1,1,48,50,1389057940
87,14,15,Jits_Phase_8,2,5,56,103,1389070640
87,14,15,Jits_Phase_8,3,5,63,98,1389101440
87,14,15,Jits_Phase_8,0,1,48,46,1389826244
87,14,15,Jits_Phase_8,1,5,56,103,1389840732
87,14,15,Jits_Phase_8,2,5,63,98,1389901052
87,14,15,Jits_Phase_8,3,5,80,127,1389960476
87,14,15,Jits_Phase_8,0,1,48,49,1390622556
87,14,15,Jits_Phase_8,1,5,80,127,1390660868
87,14,15,Jits_Phase_8,2,5,56,103,1390680604
87,14,15,Jits_Phase_8,3,5,63,98,1390751016
87,14,15,Jits_Phase_8,0,5,80,127,1391460732
87,14,15,Jits_Phase_8,1,5,63,98,1391481340
87,14,15,Jits_Phase_8,2,1,48,44,1391490832
87,14,15,Jits_Phase_8,3,5,56,103,1391510784
87,14,15,Jits_Phase_8,0,1,48,48,1392251212
87,14,15,Jits_Phase_8,1,5,80,127,1392252624
87,14,15,Jits_Phase_8,2,5,63,98,1392270840
87,14,15,Jits_Phase_8,3,5,56,103,1392331380
87,14,15,Jits_Phase_8,0,1,48,44,1393017884
87,14,15,Jits_Phase_8,1,5,80,127,1393051108
87,14,15,Jits_Phase_8,2,5,56,103,1393151344
87,14,15,Jits_Phase_8,3,5,63,98,1393180944
87,14,15,Jits_Phase_8,0,5,63,98,1393840464
87,14,15,Jits_Phase_8,1,1,48,48,1393861492
87,14,15,Jits_Phase_8,2,5,80,127,1393890588
87,14,15,Jits_Phase_8,3,5,56,103,1393911268
87,14,15,Jits_Phase_8,0,1,48,41,1394643332
87,14,15,Jits_Phase_8,1,5,80,127,1394681344
87,14,15,Jits_Phase_8,2,5,56,103,1394710944
87,14,15,Jits_Phase_8,3,5,63,98,1394713936
87,14,15,Jits_Phase_8,0,1,48,45,1395428160
87,14,15,Jits_Phase_8,1,5,63,98,1395531200
87,14,15,Jits_Phase_8,2,5,56,103,1395570940
87,14,15,Jits_Phase_8,3,5,80,127,1395590576
87,14,15,Jits_Phase_8,0,1,48,45,1396271984
87,14,15,Jits_Phase_8,1,5,80,127,1396290892
87,14,15,Jits_Phase_8,2,5,63,98,1396370848
87,14,15,Jits_Phase_8,3,5,56,103,1396410860
87,14,15,Jits_Phase_8,0,5,63,98,1397111364
87,14,15,Jits_Phase_8,1,1,48,48,1397125568
87,14,15,Jits_Phase_8,2,5,80,127,1397191004
87,14,15,Jits_Phase_8,3,5,56,103,1397210416
87,14,15,Jits_Phase_8,0,5,56,103,1397950836
87,14,15,Jits_Phase_8,1,5,63,98,1397961328
87,14,15,Jits_Phase_8,2,5,80,127,1398000968
87,14,15,Jits_Phase_8,3,1,48,46,1398011356
87,14,15,Jits_Phase_8,0,5,56,103,1398670744
87,14,15,Jits_Phase_8,1,5,80,127,1398673808
87,14,15,Jits_Phase_8,2,1,48,49,1398799872
87,14,15,Jits_Phase_8,3,5,63,98,1398810984
87,14,15,Jits_Phase_8,0,5,56,103,1399461436
87,14,15,Jits_Phase_8,1,5,63,98,1399551272
87,14,15,Jits_Phase_8,2,5,80,127,1399620876
87,14,15,Jits_Phase_8,3,1,48,46,1399626536
87,14,15,Jits_Phase_8,0,5,63,98,1400340776
87,14,15,Jits_Phase_8,1,5,80,127,1400344288
87,14,15,Jits_Phase_8,2,1,48,44,1400387264
87,14,15,Jits_Phase_8,3,5,56,103,1400401480
87,14,15,Jits_Phase_8,0,1,48,45,1401175208
87,14,15,Jits_Phase_8,1,5,80,127,1401180480
87,14,15,Jits_Phase_8,2,5,56,103,1401201164
87,14,15,Jits_Phase_8,3,5,63,98,1401211508
87,14,15,Jits_Phase_8,0,5,56,103,1401891592
87,14,15,Jits_Phase_8,1,5,63,98,1401901492
87,14,15,Jits_Phase_8,2,5,80,127,1401971344
87,14,15,Jits_Phase_8,3,1,48,42,1402001360
87,14,15,Jits_Phase_8,0,5,80,127,1402691064
87,14,15,Jits_Phase_8,1,5,56,103,1402741216
87,14,15,Jits_Phase_8,2,1,48,48,1402755348
87,14,15,Jits_Phase_8,3,5,63,98,1402791264
87,14,15,Jits_Phase_8,0,1,48,45,1403521848
87,14,15,Jits_Phase_8,1,5,56,103,1403570500
87,14,15,Jits_Phase_8,2,5,63,98,1403580772
87,14,15,Jits_Phase_8,3,5,80,127,1403620696
87,14,15,Jits_Phase_8,0,5,56,103,1404311008
87,14,15,Jits_Phase_8,1,1,48,47,1404314652
87,14,15,Jits_Phase_8,2,5,63,98,1404350940
87,14,15,Jits_Phase_8,3,5,80,127,1404401288
87,14,15,Jits_Phase_8,0,5,80,127,1405070628
87,14,15,Jits_Phase_8,1,5,56,103,1405120980
87,14,15,Jits_Phase_8,2,1,48,46,1405126268
87,14,15,Jits_Phase_8,3,5,63,98,1405141284
87,14,15,Jits_Phase_8,0,5,80,127,1405880736
87,14,15,Jits_Phase_8,1,1,48,54,1405908196
87,14,15,Jits_Phase_8,2,5,63,98,1405941268
87,14,15,Jits_Phase_8,3,5,56,103,1406021192
87,14,15,Jits_Phase_8,0,5,80,127,1406661252
87,14,15,Jits_Phase_8,1,5,56,103,1406701040
87,14,15,Jits_Phase_8,2,1,48,51,1406712180
87,14,15,Jits_Phase_8,3,5,63,98,1406721492
87,14,15,Jits_Phase_8,0,1,48,46,1407475216
87,14,15,Jits_Phase_8,1,5,56,103,1407510984
87,14,15,Jits_Phase_8,2,5,80,127,1407521252
87,14,15,Jits_Phase_8,3,5,63,98,1407561192
87,14,15,Jits_Phase_8,0,1,48,48,1408272952
87,14,15,Jits_Phase_8,1,5,56,103,1408381400
87,14,15,Jits_Phase_8,2,5,63,98,1408421336
87,14,15,Jits_Phase_8,3,5,80,127,1408424552
87,14,15,Jits_Phase_8,0,5,63,98,1409051092
87,14,15,Jits_Phase_8,1,5,80,127,1409091180
87,14,15,Jits_Phase_8,2,1,48,47,1409152316
87,14,15,Jits_Phase_8,3,5,56,103,1409160508
87,14,15,Jits_Phase_8,0,5,63,98,1409821184
87,14,15,Jits_Phase_8,1,1,48,39,1409857784
87,14,15,Jits_Phase_8,2,5,56,103,1409901072
87,14,15,Jits_Phase_8,3,5,80,127,1409961296
87,14,15,Jits_Phase_8,0,5,80,127,1410631128
87,14,15,Jits_Phase_8,1,1,48,47,1410635368
87,14,15,Jits_Phase_8,2,5,63,98,1410681348
87,14,15,Jits_Phase_8,3,5,56,103,1410711100
87,14,15,Jits_Phase_8,0,5,56,103,1411420508
87,14,15,Jits_Phase_8,1,5,63,98,1411470564
87,14,15,Jits_Phase_8,2,1,48,50,1411478860
87,14,15,Jits_Phase_8,3,5,80,127,1411481124
87,14,15,Jits_Phase_8,0,5,56,103,1412230612
87,14,15,Jits_Phase_8,1,1,48,50,1412253812
87,14,15,Jits_Phase_8,2,5,63,98,1412341120
87,14,15,Jits_Phase_8,3,5,80,127,1412360516
87,14,15,Jits_Phase_8,0,5,63,98,1413031284
87,14,15,Jits_Phase_8,1,1,48,48,1413052012
87,14,15,Jits_Phase_8,2,5,80,127,1413080436
87,14,15,Jits_Phase_8,3,5,56,103,1413170476
87,14,15,Jits_Phase_8,0,5,63,98,1413820928
87,14,15,Jits_Phase_8,1,1,48,48,1413840088
87,14,15,Jits_Phase_8,2,5,80,127,1413850376
87,14,15,Jits_Phase_8,3,5,56,103,1413940636
87,14,15,Jits_Phase_8,0,5,63,98,1414620384
87,14,15,Jits_Phase_8,1,5,56,103,1414630728
87,14,15,Jits_Phase_8,2,1,48,48,1414655200
87,14,15,Jits_Phase_8,3,5,80,127,1414731188
87,14,15,Jits_Phase_8,0,1,48,44,1415434460
87,14,15,Jits_Phase_8,1,5,63,98,1415520600
87,14,15,Jits_Phase_8,2,5,80,127,1415551304
87,14,15,Jits_Phase_8,3,5,56,103,1415580908
87,14,15,Jits_Phase_8,0,1,48,45,1416262848
87,14,15,Jits_Phase_8,1,5,80,127,1416340964
87,14,15,Jits_Phase_8,2,5,63,98,1416351236
87,14,15,Jits_Phase_8,3,5,56,103,1416380896
87,14,15,Jits_Phase_8,0,5,80,127,1417041240
87,14,15,Jits_Phase_8,1,5,63,98,1417060580
87,14,15,Jits_Phase_8,2,5,56,103,1417111080
87,14,15,Jits_Phase_8,3,1,48,43,1417112044
87,14,15,Jits_Phase_8,0,5,63,98,1417870756
87,14,15,Jits_Phase_8,1,1,48,49,1417896792
87,14,15,Jits_Phase_8,2,5,80,127,1417931140
87,14,15,Jits_Phase_8,3,5,56,103,1417950552
87,14,15,Jits_Phase_8,0,5,63,98,1418630584
87,14,15,Jits_Phase_8,1,5,56,103,1418680712
87,14,15,Jits_Phase_8,2,5,80,127,1418691060
87,14,15,Jits_Phase_8,3,1,48,42,1418716500
87,14,15,Jits_Phase_8,0,1,48,47,1419452632
87,14,15,Jits_Phase_8,1,5,56,103,1419461120
87,14,15,Jits_Phase_8,2,5,80,127,1419471168
87,14,15,Jits_Phase_8,3,5,63,98,1419570796
87,14,15,Jits_Phase_8,0,5,80,127,1420220880
87,14,15,Jits_Phase_8,1,1,48,49,1420230320
87,14,15,Jits_Phase_8,2,5,63,98,1420231968
87,14,15,Jits_Phase_8,3,5,56,103,1420380468
87,14,15,Jits_Phase_8,0,5,63,98,1421030912
87,14,15,Jits_Phase_8,1,1,48,43,1421045268
87,14,15,Jits_Phase_8,2,5,80,127,1421070844
87,14,15,Jits_Phase_8,3,5,56,103,1421150796
87,14,15,Jits_Phase_8,0,5,56,103,1421781220
87,14,15,Jits_Phase_8,1,1,48,43,1421792804
87,14,15,Jits_Phase_8,2,5,80,127,1421880936
87,14,15,Jits_Phase_8,3,5,63,98,1421901476
87,14,15,Jits_Phase_8,0,5,80,127,1422600776
87,14,15,Jits_Phase_8,1,5,56,103,1422611196
87,14,15,Jits_Phase_8,2,1,48,48,1422615436
87,14,15,Jits_Phase_8,3,5,63,98,1422700972
87,14,15,Jits_Phase_8,0,5,56,103,1423410664
87,14,15,Jits_Phase_8,1,1,48,46,1423420232
87,14,15,Jits_Phase_8,2,5,63,98,1423430968
87,14,15,Jits_Phase_8,3,5,80,127,1423510936
87,14,15,Jits_Phase_8,0,5,63,98,1424161216
87,14,15,Jits_Phase_8,1,1,48,44,1424235980
87,14,15,Jits_Phase_8,2,5,56,103,1424251216
87,14,15,Jits_Phase_8,3,5,80,127,1424254284
87,14,15,Jits_Phase_8,0,5,56,103,1424990880
87,14,15,Jits_Phase_8,1,1,48,48,1425033408
87,14,15,Jits_Phase_8,2,5,80,127,1425051040
87,14,15,Jits_Phase_8,3,5,63,98,1425061088
87,14,15,Jits_Phase_8,0,1,48,45,1425818404
87,14,15,Jits_Phase_8,1,5,80,127,1425840620
87,14,15,Jits_Phase_8,2,5,56,103,1425850964
87,14,15,Jits_Phase_8,3,5,63,98,1425853880
87,14,15,Jits_Phase_8,0,5,56,103,1426601196
87,14,15,Jits_Phase_8,1,5,80,127,1426610420
87,14,15,Jits_Phase_8,2,1,48,52,1426621856
87,14,15,Jits_Phase_8,3,5,63,98,1426631168
87,14,15,Jits_Phase_8,0,5,63,98,1427371368
87,14,15,Jits_Phase_8,1,1,48,46,1427402584
87,14,15,Jits_Phase_8,2,5,80,127,1427431080
87,14,15,Jits_Phase_8,3,5,56,103,1427480908
87,14,15,Jits_Phase_8,0,1,48,45,1428197388
87,14,15,Jits_Phase_8,1,5,63,98,1428251064
87,14,15,Jits_Phase_8,2,5,56,103,1428261332
87,14,15,Jits_Phase_8,3,5,80,127,1428311544
87,14,15,Jits_Phase_8,0,5,63,98,1428951560
87,14,15,Jits_Phase_8,1,5,80,127,1428970752
87,14,15,Jits_Phase_8,2,5,56,103,1428981096
87,14,15,Jits_Phase_8,3,1,48,49,1428989760
87,14,15,Jits_Phase_8,0,1,48,45,1429750472
87,14,15,Jits_Phase_8,1,5,63,98,1429752068
87,14,15,Jits_Phase_8,2,5,80,127,1429755120
87,14,15,Jits_Phase_8,3,5,56,103,1429791016
87,14,15,Jits_Phase_8,0,1,48,46,1430579644
87,14,15,Jits_Phase_8,1,5,63,98,1430620596
87,14,15,Jits_Phase_8,2,5,80,127,1430651320
87,14,15,Jits_Phase_8,3,5,56,103,1430660620
87,14,15,Jits_Phase_8,0,5,56,103,1431371116
87,14,15,Jits_Phase_8,1,1,48,36,1431396656
87,14,15,Jits_Phase_8,2,5,80,127,1431400956
87,14,15,Jits_Phase_8,3,5,63,98,1431430632
87,14,15,Jits_Phase_8,0,1,48,46,1432124844
87,14,15,Jits_Phase_8,1,5,63,98,1432271208
87,14,15,Jits_Phase_8,2,5,56,103,1432311144
87,14,15,Jits_Phase_8,3,5,80,127,1432314136
87,14,15,Jits_Phase_8,0,5,80,127,1432970740
87,14,15,Jits_Phase_8,1,1,48,42,1433002256
87,14,15,Jits_Phase_8,2,5,56,103,1433050680
87,14,15,Jits_Phase_8,3,5,63,98,1433101764
87,14,15,Jits_Phase_8,0,5,80,127,1433750812
87,14,15,Jits_Phase_8,1,5,56,103,1433771572
87,14,15,Jits_Phase_8,2,5,63,98,1433860580
87,14,15,Jits_Phase_8,3,1,48,45,1433872164
87,14,15,Jits_Phase_8,0,5,80,127,1434590664
87,14,15,Jits_Phase_8,1,1,48,52,1434594756
87,14,15,Jits_Phase_8,2,5,63,98,1434630744
87,14,15,Jits_Phase_8,3,5,56,103,1434670536
87,14,15,Jits_Phase_8,0,5,63,98,1435400852
87,14,15,Jits_Phase_8,1,1,48,55,1435413184
87,14,15,Jits_Phase_8,2,5,80,127,1435460936
87,14,15,Jits_Phase_8,3,1,48,30,1435471936
87,14,15,Jits_Phase_8,4,5,56,103,1435490764
87,14,15,Jits_Phase_8,0,1,48,53,1436230948
87,14,15,Jits_Phase_8,1,5,56,103,1436241256
87,14,15,Jits_Phase_8,2,5,80,127,1436270932
87,14,15,Jits_Phase_8,3,5,63,98,1436360972
87,14,15,Jits_Phase_8,0,5,56,103,1437051428
87,14,15,Jits_Phase_8,1,1,48,41,1437060920
87,14,15,Jits_Phase_8,2,5,80,127,1437160948
87,14,15,Jits_Phase_8,3,5,63,98,1437190624
87,14,15,Jits_Phase_8,0,1,48,48,1437840156
87,14,15,Jits_Phase_8,1,5,56,103,1437901168
87,14,15,Jits_Phase_8,2,5,63,98,1437960720
87,14,15,Jits_Phase_8,3,5,80,127,1437991368
87,14,15,Jits_Phase_8,0,1,48,52,1438650188
87,14,15,Jits_Phase_8,1,5,56,103,1438671264
87,14,15,Jits_Phase_8,2,5,63,98,1438740872
87,14,15,Jits_Phase_8,3,5,80,127,1438761240
87,14,15,Jits_Phase_8,0,5,80,127,1439441212
87,14,15,Jits_Phase_8,1,5,63,98,1439460772
87,14,15,Jits_Phase_8,2,5,56,103,1439510824
87,14,15,Jits_Phase_8,3,1,48,52,1439515364
87,14,15,Jits_Phase_8,0,5,63,98,1440260536
87,14,15,Jits_Phase_8,1,5,80,127,1440270656
87,14,15,Jits_Phase_8,2,1,48,57,1440309740
87,14,15,Jits_Phase_8,3,5,56,103,1440320848
87,14,15,Jits_Phase_8,0,5,63,98,1441061260
87,14,15,Jits_Phase_8,1,1,48,47,1441126132
87,14,15,Jits_Phase_8,2,5,80,127,1441130960
87,14,15,Jits_Phase_8,3,5,56,103,1441151420
87,14,15,Jits_Phase_8,0,5,63,98,1441890640
87,14,15,Jits_Phase_8,1,5,80,127,1441893928
87,14,15,Jits_Phase_8,2,1,48,49,1441919756
87,14,15,Jits_Phase_8,3,5,56,103,1441961284
87,14,15,Jits_Phase_8,0,5,80,127,1442641384
87,14,15,Jits_Phase_8,1,5,56,103,1442660872
87,14,15,Jits_Phase_8,2,5,63,98,1442671068
87,14,15,Jits_Phase_8,3,1,48,49,1442685940
87,14,15,Jits_Phase_8,0,1,48,48,1443454076
87,14,15,Jits_Phase_8,1,5,56,103,1443460620
87,14,15,Jits_Phase_8,2,5,63,98,1443550680
87,14,15,Jits_Phase_8,3,5,80,127,1443554852
87,14,15,Jits_Phase_8,0,5,80,127,1444230480
87,14,15,Jits_Phase_8,1,5,56,103,1444240676
87,14,15,Jits_Phase_8,2,5,63,98,1444261432
87,14,15,Jits_Phase_8,3,1,48,43,1444285224
87,14,15,Jits_Phase_8,0,5,63,98,1445031360
87,14,15,Jits_Phase_8,1,1,48,45,1445045568
87,14,15,Jits_Phase_8,2,5,80,127,1445090628
87,14,15,Jits_Phase_8,3,5,56,103,1445100896
87,14,15,Jits_Phase_8,0,1,48,41,1445869372
87,14,15,Jits_Phase_8,1,5,63,98,1445900712
87,14,15,Jits_Phase_8,2,5,80,127,1445931660
87,14,15,Jits_Phase_8,3,5,56,103,1445971384
87,14,15,Jits_Phase_8,0,1,48,53,1446686576
87,14,15,Jits_Phase_8,1,5,56,103,1446691704
87,14,15,Jits_Phase_8,2,5,80,127,1446701528
87,14,15,Jits_Phase_8,3,5,63,98,1446741564
87,14,15,Jits_Phase_8,0,5,80,127,1447450940
87,14,15,Jits_Phase_8,1,1,48,54,1447514616
87,14,15,Jits_Phase_8,2,5,56,103,1447530976
87,14,15,Jits_Phase_8,3,5,63,98,1447541100
87,14,15,Jits_Phase_8,0,1,48,51,1448288920
87,14,15,Jits_Phase_8,1,5,80,127,1448300852
87,14,15,Jits_Phase_8,2,1,48,26,1448362544
87,14,15,Jits_Phase_8,3,5,56,103,1448380704
87,14,15,Jits_Phase_8,4,5,63,98,1448390972
87,14,15,Jits_Phase_8,0,5,80,127,1449140592
87,14,15,Jits_Phase_8,1,1,48,47,1449159076
87,14,15,Jits_Phase_8,2,5,56,103,1449190712
87,14,15,Jits_Phase_8,3,5,63,98,1449240912
87,14,15,Jits_Phase_8,0,1,48,51,1449980924
87,14,15,Jits_Phase_8,1,5,56,103,1450080608
87,14,15,Jits_Phase_8,2,5,63,98,1450083672
87,14,15,Jits_Phase_8,3,5,80,127,1450130656
87,14,15,Jits_Phase_8,0,1,48,55,1450857492
87,14,15,Jits_Phase_8,1,5,56,103,1450900904
87,14,15,Jits_Phase_8,2,5,63,98,1450930432
87,14,15,Jits_Phase_8,3,5,80,127,1450940852
87,14,15,Jits_Phase_8,0,5,63,98,1451610472
87,14,15,Jits_Phase_8,1,5,56,103,1451681424
87,14,15,Jits_Phase_8,2,1,48,52,1451688060
87,14,15,Jits_Phase_8,3,5,80,127,1451731392
87,14,15,Jits_Phase_8,0,5,63,98,1452440872
87,14,15,Jits_Phase_8,1,5,56,103,1452451364
87,14,15,Jits_Phase_8,2,5,80,127,1452454352
87,14,15,Jits_Phase_8,3,1,48,48,1452505420
87,14,15,Jits_Phase_8,0,5,80,127,1453190560
87,14,15,Jits_Phase_8,1,5,56,103,1453250952
87,14,15,Jits_Phase_8,2,1,48,51,1453339192
87,14,15,Jits_Phase_8,3,5,63,98,1453341004
87,14,15,Jits_Phase_8,0,5,80,127,1453991304
87,14,15,Jits_Phase_8,1,1,48,51,1454073388
87,14,15,Jits_Phase_8,2,5,56,103,1454090500
87,14,15,Jits_Phase_8,3,5,63,98,1454130440
87,14,15,Jits_Phase_8,0,5,56,103,1454841204
87,14,15,Jits_Phase_8,1,5,63,98,1454860616
87,14,15,Jits_Phase_8,2,5,80,127,1454900556
87,14,15,Jits_Phase_8,3,1,48,48,1454965720
87,14,15,Jits_Phase_8,0,5,63,98,1455611384
87,14,15,Jits_Phase_8,1,5,56,103,1455630648
87,14,15,Jits_Phase_8,2,1,48,46,1455716192
87,14,15,Jits_Phase_8,3,5,80,127,1455730984
87,14,15,Jits_Phase_8,0,5,63,98,1456400728
87,14,15,Jits_Phase_8,1,1,48,49,1456405116
87,14,15,Jits_Phase_8,2,5,80,127,1456511464
87,14,15,Jits_Phase_8,3,5,56,103,1456540992
87,14,15,Jits_Phase_8,0,1,48,53,1457149360
87,14,15,Jits_Phase_8,1,1,48,34,1457201704
87,14,15,Jits_Phase_8,2,5,56,103,1457220912
87,14,15,Jits_Phase_8,3,5,63,98,1457250612
87,14,15,Jits_Phase_8,4,5,80,127,1457301020
87,14,15,Jits_Phase_8,0,1,48,54,1457970424
87,14,15,Jits_Phase_8,1,5,63,98,1457991124
87,14,15,Jits_Phase_8,2,1,48,34,1458017548
87,14,15,Jits_Phase_8,3,5,56,103,1458020656
87,14,15,Jits_Phase_8,4,5,80,127,1458070852
87,14,15,Jits_Phase_8,0,1,48,52,1458781248
87,14,15,Jits_Phase_8,1,5,56,103,1458820528
87,14,15,Jits_Phase_8,2,5,63,98,1458840840
87,14,15,Jits_Phase_8,3,5,80,127,1458920912
87,14,15,Jits_Phase_8,0,5,63,98,1459590540
87,14,15,Jits_Phase_8,1,1,48,38,1459632992
87,14,15,Jits_Phase_8,2,5,56,103,1459650924
87,14,15,Jits_Phase_8,3,5,80,127,1459680600
87,14,15,Jits_Phase_8,0,1,48,55,1460372504
87,14,15,Jits_Phase_8,1,5,56,103,1460431340
87,14,15,Jits_Phase_8,2,1,48,31,1460433784
87,14,15,Jits_Phase_8,3,5,80,127,1460490664
87,14,15,Jits_Phase_8,4,5,63,98,1460530452
87,14,15,Jits_Phase_8,0,5,63,98,1461210460
87,14,15,Jits_Phase_8,1,1,48,49,1461222048
87,14,15,Jits_Phase_8,2,5,56,103,1461270844
87,14,15,Jits_Phase_8,3,5,80,127,1461340536
87,14,15,Jits_Phase_8,0,1,48,50,1462043748
87,14,15,Jits_Phase_8,1,5,56,103,1462091300
87,14,15,Jits_Phase_8,2,5,63,98,1462101420
87,14,15,Jits_Phase_8,3,5,80,127,1462105080
87,14,15,Jits_Phase_8,0,1,48,47,1462809340
87,14,15,Jits_Phase_8,1,5,63,98,1462830492
87,14,15,Jits_Phase_8,2,5,56,103,1462890832
87,14,15,Jits_Phase_8,3,5,80,127,1462893972
87,14,15,Jits_Phase_8,0,5,63,98,1463610620
87,14,15,Jits_Phase_8,1,1,48,50,1463616276
87,14,15,Jits_Phase_8,2,5,80,127,1463640536
87,14,15,Jits_Phase_8,3,5,56,103,1463660992
87,14,15,Jits_Phase_8,4,1,48,30,1463670172
87,14,15,Jits_Phase_8,0,5,56,103,1464340724
87,14,15,Jits_Phase_8,1,5,63,98,1464391300
87,14,15,Jits_Phase_8,2,1,48,50,1464411076
87,14,15,Jits_Phase_8,3,1,48,32,1464465440
87,14,15,Jits_Phase_8,4,5,80,127,1464471160
87,14,15,Jits_Phase_8,0,5,80,127,1465041192
87,14,15,Jits_Phase_8,1,5,63,98,1465081428
87,14,15,Jits_Phase_8,2,5,56,103,1465100616
87,14,15,Jits_Phase_8,3,1,48,44,1465122388
87,14,15,Jits_Phase_8,0,1,48,41,1465849692
87,14,15,Jits_Phase_8,1,5,56,103,1465910556
87,14,15,Jits_Phase_8,2,5,80,127,1465920828
87,14,15,Jits_Phase_8,3,5,63,98,1465941236
87,14,15,Jits_Phase_8,0,1,48,52,1466649084
87,14,15,Jits_Phase_8,1,5,56,103,1466691060
87,14,15,Jits_Phase_8,2,5,63,98,1466741064
87,14,15,Jits_Phase_8,3,5,80,127,1466770800
87,14,15,Jits_Phase_8,0,5,56,103,1467440484
87,14,15,Jits_Phase_8,1,5,63,98,1467450752
87,14,15,Jits_Phase_8,2,1,48,46,1467488052
87,14,15,Jits_Phase_8,3,5,80,127,1467501048
87,14,15,Jits_Phase_8,0,5,56,103,1468231180
87,14,15,Jits_Phase_8,1,5,80,127,1468234100
87,14,15,Jits_Phase_8,2,1,48,48,1468245980
87,14,15,Jits_Phase_8,3,5,63,98,1468390884
87,14,15,Jits_Phase_8,0,5,63,98,1469051320
87,14,15,Jits_Phase_8,1,1,48,47,1469065676
87,14,15,Jits_Phase_8,2,5,56,103,1469120996
87,14,15,Jits_Phase_8,3,5,80,127,1469161292
87,14,15,Jits_Phase_8,0,5,63,98,1469891008
87,14,15,Jits_Phase_8,1,1,48,50,1469930768
87,14,15,Jits_Phase_8,2,5,56,103,1469981132
87,14,15,Jits_Phase_8,3,5,80,127,1469984344
87,14,15,Jits_Phase_8,0,5,56,103,1470671132
87,14,15,Jits_Phase_8,1,5,63,98,1470761264
87,14,15,Jits_Phase_8,2,1,48,46,1470770488
87,14,15,Jits_Phase_8,3,5,80,127,1470771900
87,14,15,Jits_Phase_8,0,5,56,103,1471441384
87,14,15,Jits_Phase_8,1,5,63,98,1471490468
87,14,15,Jits_Phase_8,2,5,80,127,1471521040
87,14,15,Jits_Phase_8,3,1,48,48,1471542060
87,14,15,Jits_Phase_8,0,1,48,51,1472278668
87,14,15,Jits_Phase_8,1,5,63,98,1472321016
87,14,15,Jits_Phase_8,2,5,80,127,1472331160
87,14,15,Jits_Phase_8,3,5,56,103,1472390488
87,14,15,Jits_Phase_8,0,5,63,98,1473040992
87,14,15,Jits_Phase_8,1,1,48,42,1473086288
87,14,15,Jits_Phase_8,2,5,80,127,1473101104
87,14,15,Jits_Phase_8,3,5,56,103,1473141044
87,14,15,Jits_Phase_8,0,1,48,38,1473901500
87,14,15,Jits_Phase_8,1,5,56,103,1473940936
87,14,15,Jits_Phase_8,2,5,80,127,1473961468
87,14,15,Jits_Phase_8,3,5,63,98,1473981104
87,14,15,Jits_Phase_8,0,5,63,98,1474661068
87,14,15,Jits_Phase_8,1,5,56,103,1474681080
87,14,15,Jits_Phase_8,2,1,48,52,1474688328
87,14,15,Jits_Phase_8,3,5,80,127,1474721084
87,14,15,Jits_Phase_8,0,5,63,98,1475470636
87,14,15,Jits_Phase_8,1,1,48,54,1475482824
87,14,15,Jits_Phase_8,2,5,80,127,1475501428
87,14,15,Jits_Phase_8,3,5,56,103,1475520840
87,14,15,Jits_Phase_8,0,1,48,53,1476178188
87,14,15,Jits_Phase_8,1,5,80,127,1476240712
87,14,15,Jits_Phase_8,2,5,56,103,1476291120
87,14,15,Jits_Phase_8,3,5,63,98,1476351212
87,14,15,Jits_Phase_8,0,1,48,59,1477008436
87,14,15,Jits_Phase_8,1,5,63,98,1477031248
87,14,15,Jits_Phase_8,2,5,56,103,1477151036
87,14,15,Jits_Phase_8,3,5,80,127,1477180860
87,14,15,Jits_Phase_8,0,5,80,127,1477871024
87,14,15,Jits_Phase_8,1,1,48,56,1477871988
87,14,15,Jits_Phase_8,2,5,63,98,1477890504
87,14,15,Jits_Phase_8,3,5,56,103,1477961008
87,14,15,Jits_Phase_8,0,5,63,98,1478691324
87,14,15,Jits_Phase_8,1,5,56,103,1478701444
87,14,15,Jits_Phase_8,2,1,48,46,1478752760
87,14,15,Jits_Phase_8,3,5,80,127,1478781404
87,14,15,Jits_Phase_8,0,5,56,103,1479551344
87,14,15,Jits_Phase_8,1,5,80,127,1479581096
87,14,15,Jits_Phase_8,2,5,63,98,1479591364
87,14,15,Jits_Phase_8,3,1,48,29,1479595532
87,14,15,Jits_Phase_8,0,9999,9999,9999,1344698436
87,14,15,Jits_Phase_8,1,9999,9999,9999,1345498200
87,14,15,Jits_Phase_8,2,9999,9999,9999,1346299008
87,14,15,Jits_Phase_8,3,9999,9999,9999,1347098688
87,14,15,Jits_Phase_8,4,9999,9999,9999,1347898452
87,14,15,Jits_Phase_8,5,9999,9999,9999,1348698240
87,14,15,Jits_Phase_8,6,9999,9999,9999,1349498980
87,14,15,Jits_Phase_8,7,9999,9999,9999,1350298680
87,14,15,Jits_Phase_8,8,9999,9999,9999,1351098440
87,14,15,Jits_Phase_8,9,9999,9999,9999,1351898184
87,14,15,Jits_Phase_8,10,9999,9999,9999,1352698936
87,14,15,Jits_Phase_8,11,9999,9999,9999,1353498692
87,14,15,Jits_Phase_8,12,9999,9999,9999,1354298472
87,14,15,Jits_Phase_8,13,9999,9999,9999,1355098172
87,14,15,Jits_Phase_8,14,9999,9999,9999,1355898964
87,14,15,Jits_Phase_8,15,9999,9999,9999,1356698728
87,14,15,Jits_Phase_8,16,9999,9999,9999,1357498468
87,14,15,Jits_Phase_8,17,9999,9999,9999,1358298168
87,14,15,Jits_Phase_8,18,9999,9999,9999,1359098980
87,14,15,Jits_Phase_8,19,9999,9999,9999,1359898748
87,14,15,Jits_Phase_8,20,9999,9999,9999,1360698432
87,14,15,Jits_Phase_8,21,9999,9999,9999,1361498208
87,14,15,Jits_Phase_8,22,9999,9999,9999,1362298944
87,14,15,Jits_Phase_8,23,9999,9999,9999,1363098716
87,14,15,Jits_Phase_8,24,9999,9999,9999,1363898472
87,14,15,Jits_Phase_8,25,9999,9999,9999,1364698224
87,14,15,Jits_Phase_8,26,9999,9999,9999,1365498952
87,14,15,Jits_Phase_8,27,9999,9999,9999,1366298712
87,14,15,Jits_Phase_8,28,9999,9999,9999,1367098464
87,14,15,Jits_Phase_8,29,9999,9999,9999,1367898180
87,14,15,Jits_Phase_8,30,9999,9999,9999,1368678460
87,14,15,Jits_Phase_8,31,9999,9999,9999,1369478216
87,14,15,Jits_Phase_8,32,9999,9999,9999,1370279032
87,14,15,Jits_Phase_8,33,9999,9999,9999,1371078724
87,14,15,Jits_Phase_8,34,9999,9999,9999,1371878496
87,14,15,Jits_Phase_8,35,9999,9999,9999,1372678260
87,14,15,Jits_Phase_8,36,9999,9999,9999,1373478996
87,14,15,Jits_Phase_8,37,9999,9999,9999,1374278768
87,14,15,Jits_Phase_8,38,9999,9999,9999,1375078480
87,14,15,Jits_Phase_8,39,9999,9999,9999,1375878256
87,14,15,Jits_Phase_8,40,9999,9999,9999,1376679008
87,14,15,Jits_Phase_8,41,9999,9999,9999,1377478776
87,14,15,Jits_Phase_8,42,9999,9999,9999,1378278460
87,14,15,Jits_Phase_8,43,9999,9999,9999,1379078208
87,14,15,Jits_Phase_8,44,9999,9999,9999,1379878992
87,14,15,Jits_Phase_8,45,9999,9999,9999,1380678748
87,14,15,Jits_Phase_8,46,9999,9999,9999,1381478464
87,14,15,Jits_Phase_8,47,9999,9999,9999,1382278228
87,14,15,Jits_Phase_8,48,9999,9999,9999,1383098456
87,14,15,Jits_Phase_8,49,9999,9999,9999,1383898220
87,14,15,Jits_Phase_8,50,9999,9999,9999,1384698948
87,14,15,Jits_Phase_8,51,9999,9999,9999,1385498720
87,14,15,Jits_Phase_8,52,9999,9999,9999,1386298492
87,14,15,Jits_Phase_8,53,9999,9999,9999,1387098224
87,14,15,Jits_Phase_8,54,9999,9999,9999,1387898948
87,14,15,Jits_Phase_8,55,9999,9999,9999,1388698720
87,14,15,Jits_Phase_8,56,9999,9999,9999,1389498472
87,14,15,Jits_Phase_8,57,9999,9999,9999,1390298168
87,14,15,Jits_Phase_8,58,9999,9999,9999,1391098972
87,14,15,Jits_Phase_8,59,9999,9999,9999,1391898728
87,14,15,Jits_Phase_8,60,9999,9999,9999,1392698424
87,14,15,Jits_Phase_8,61,9999,9999,9999,1393498212
87,14,15,Jits_Phase_8,62,9999,9999,9999,1394298940
87,14,15,Jits_Phase_8,63,9999,9999,9999,1395098688
87,14,15,Jits_Phase_8,64,9999,9999,9999,1395938384
87,14,15,Jits_Phase_8,65,9999,9999,9999,1396738144
87,14,15,Jits_Phase_8,66,9999,9999,9999,1397538876
87,14,15,Jits_Phase_8,67,9999,9999,9999,1398338640
87,14,15,Jits_Phase_8,68,9999,9999,9999,1399138424
87,14,15,Jits_Phase_8,69,9999,9999,9999,1399938124
87,14,15,Jits_Phase_8,70,9999,9999,9999,1400738936
87,14,15,Jits_Phase_8,71,9999,9999,9999,1401538628
87,14,15,Jits_Phase_8,72,9999,9999,9999,1402338384
87,14,15,Jits_Phase_8,73,9999,9999,9999,1403138156
87,14,15,Jits_Phase_8,74,9999,9999,9999,1403938912
87,14,15,Jits_Phase_8,75,9999,9999,9999,1404738672
87,14,15,Jits_Phase_8,76,9999,9999,9999,1405538392
87,14,15,Jits_Phase_8,77,9999,9999,9999,1406338164
87,14,15,Jits_Phase_8,78,9999,9999,9999,1407138904
87,14,15,Jits_Phase_8,79,9999,9999,9999,1407938672
87,14,15,Jits_Phase_8,80,9999,9999,9999,1408738360
87,14,15,Jits_Phase_8,81,9999,9999,9999,1409498184
87,14,15,Jits_Phase_8,82,9999,9999,9999,1410298988
87,14,15,Jits_Phase_8,83,9999,9999,9999,1411098744
87,14,15,Jits_Phase_8,84,9999,9999,9999,1411898436
87,14,15,Jits_Phase_8,85,9999,9999,9999,1412698236
87,14,15,Jits_Phase_8,86,9999,9999,9999,1413498976
87,14,15,Jits_Phase_8,87,9999,9999,9999,1414298732
87,14,15,Jits_Phase_8,88,9999,9999,9999,1415098460
87,14,15,Jits_Phase_8,89,9999,9999,9999,1415898224
87,14,15,Jits_Phase_8,90,9999,9999,9999,1416698964
87,14,15,Jits_Phase_8,91,9999,9999,9999,1417498716
87,14,15,Jits_Phase_8,92,9999,9999,9999,1418298496
87,14,15,Jits_Phase_8,93,9999,9999,9999,1419098200
87,14,15,Jits_Phase_8,94,9999,9999,9999,1419899000
87,14,15,Jits_Phase_8,95,9999,9999,9999,1420698684
87,14,15,Jits_Phase_8,96,9999,9999,9999,1421498452
87,14,15,Jits_Phase_8,97,9999,9999,9999,1422218348
87,14,15,Jits_Phase_8,98,9999,9999,9999,1423019096
87,14,15,Jits_Phase_8,99,9999,9999,9999,1423829060
87,14,15,Jits_Phase_8,100,9999,9999,9999,1424628824
87,14,15,Jits_Phase_8,101,9999,9999,9999,1425428580
87,14,15,Jits_Phase_8,102,9999,9999,9999,1426228348
87,14,15,Jits_Phase_8,103,9999,9999,9999,1427029100
87,14,15,Jits_Phase_8,104,9999,9999,9999,1427828800
87,14,15,Jits_Phase_8,105,9999,9999,9999,1428628564
87,14,15,Jits_Phase_8,106,9999,9999,9999,1429428312
87,14,15,Jits_Phase_8,107,9999,9999,9999,1430229100
87,14,15,Jits_Phase_8,108,9999,9999,9999,1431028860
87,14,15,Jits_Phase_8,109,9999,9999,9999,1431828540
87,14,15,Jits_Phase_8,110,9999,9999,9999,1432628316
87,14,15,Jits_Phase_8,111,9999,9999,9999,1433429072
87,14,15,Jits_Phase_8,112,9999,9999,9999,1434228840
87,14,15,Jits_Phase_8,113,9999,9999,9999,1435028536
87,14,15,Jits_Phase_8,114,9999,9999,9999,1435908224
87,14,15,Jits_Phase_8,115,9999,9999,9999,1436708928
87,14,15,Jits_Phase_8,116,9999,9999,9999,1437508688
87,14,15,Jits_Phase_8,117,9999,9999,9999,1438308412
87,14,15,Jits_Phase_8,118,9999,9999,9999,1439108176
87,14,15,Jits_Phase_8,119,9999,9999,9999,1439908972
87,14,15,Jits_Phase_8,120,9999,9999,9999,1440708668
87,14,15,Jits_Phase_8,121,9999,9999,9999,1441508428
87,14,15,Jits_Phase_8,122,9999,9999,9999,1442308176
87,14,15,Jits_Phase_8,123,9999,9999,9999,1443108972
87,14,15,Jits_Phase_8,124,9999,9999,9999,1443908732
87,14,15,Jits_Phase_8,125,9999,9999,9999,1444708428
87,14,15,Jits_Phase_8,126,9999,9999,9999,1445508192
87,14,15,Jits_Phase_8,127,9999,9999,9999,1446308928
87,14,15,Jits_Phase_8,128,9999,9999,9999,1447108688
87,14,15,Jits_Phase_8,129,9999,9999,9999,1447908444
87,14,15,Jits_Phase_8,130,9999,9999,9999,1448708200
87,14,15,Jits_Phase_8,131,9999,9999,9999,1449668732
87,14,15,Jits_Phase_8,132,9999,9999,9999,1450468424
87,14,15,Jits_Phase_8,133,9999,9999,9999,1451268192
87,14,15,Jits_Phase_8,134,9999,9999,9999,1452068920
87,14,15,Jits_Phase_8,135,9999,9999,9999,1452868668
87,14,15,Jits_Phase_8,136,9999,9999,9999,1453668444
87,14,15,Jits_Phase_8,137,9999,9999,9999,1454468216
87,14,15,Jits_Phase_8,138,9999,9999,9999,1455268964
87,14,15,Jits_Phase_8,139,9999,9999,9999,1456068660
87,14,15,Jits_Phase_8,140,9999,9999,9999,1456868420
87,14,15,Jits_Phase_8,141,9999,9999,9999,1457668156
87,14,15,Jits_Phase_8,142,9999,9999,9999,1458468984
87,14,15,Jits_Phase_8,143,9999,9999,9999,1459268720
87,14,15,Jits_Phase_8,144,9999,9999,9999,1460068416
87,14,15,Jits_Phase_8,145,9999,9999,9999,1460868156
87,14,15,Jits_Phase_8,146,9999,9999,9999,1461668936
87,14,15,Jits_Phase_8,147,9999,9999,9999,1462468688
87,14,15,Jits_Phase_8,148,9999,9999,9999,1463268436
87,14,15,Jits_Phase_8,149,9999,9999,9999,1464068168
87,14,15,Jits_Phase_8,150,9999,9999,9999,1464708164
87,14,15,Jits_Phase_8,151,9999,9999,9999,1465508952
87,14,15,Jits_Phase_8,152,9999,9999,9999,1466308728
87,14,15,Jits_Phase_8,153,9999,9999,9999,1467108416
87,14,15,Jits_Phase_8,154,9999,9999,9999,1467908172
87,14,15,Jits_Phase_8,155,9999,9999,9999,1468708952
87,14,15,Jits_Phase_8,156,9999,9999,9999,1469508724
87,14,15,Jits_Phase_8,157,9999,9999,9999,1470308424
87,14,15,Jits_Phase_8,158,9999,9999,9999,1471108184
87,14,15,Jits_Phase_8,159,9999,9999,9999,1471908924
87,14,15,Jits_Phase_8,160,9999,9999,9999,1472708704
87,14,15,Jits_Phase_8,161,9999,9999,9999,1473508460
87,14,15,Jits_Phase_8,162,9999,9999,9999,1474308148
87,14,15,Jits_Phase_8,163,9999,9999,9999,1475108956
87,14,15,Jits_Phase_8,164,9999,9999,9999,1475908708
87,14,15,Jits_Phase_8,165,9999,9999,9999,1476708408
87,14,15,Jits_Phase_8,166,9999,9999,9999,1477508164
87,14,15,Jits_Phase_8,167,9999,9999,9999,1478308972
87,14,15,Jits_Phase_8,168,9999,9999,9999,1479108672
87,14,15,Jits_Phase_8,169,9999,9999,9999,1479908436
87,15,17,Jits_Phase_5,0,5,56,103,1488738764
87,15,17,Jits_Phase_5,1,5,63,98,1488741788
87,15,17,Jits_Phase_5,2,5,80,127,1488744836
87,15,17,Jits_Phase_5,0,5,56,103,1489239364
87,15,17,Jits_Phase_5,1,5,63,98,1489242696
87,15,17,Jits_Phase_5,2,5,80,127,1489245812
87,15,17,Jits_Phase_5,3,1,48,42,1489373064
87,15,17,Jits_Phase_5,0,5,56,103,1489739056
87,15,17,Jits_Phase_5,1,1,48,40,1489745764
87,15,17,Jits_Phase_5,2,5,80,127,1489749468
87,15,17,Jits_Phase_5,3,5,63,98,1489768880
87,15,17,Jits_Phase_5,0,5,63,98,1490188892
87,15,17,Jits_Phase_5,1,5,80,127,1490219392
87,15,17,Jits_Phase_5,2,5,56,103,1490228764
87,15,17,Jits_Phase_5,3,1,48,43,1490245584
87,15,17,Jits_Phase_5,0,1,48,41,1490708164
87,15,17,Jits_Phase_5,1,5,80,127,1490748716
87,15,17,Jits_Phase_5,2,5,56,103,1490759136
87,15,17,Jits_Phase_5,3,5,63,98,1490788612
87,15,17,Jits_Phase_5,0,1,48,43,1491245664
87,15,17,Jits_Phase_5,1,5,63,98,1491248692
87,15,17,Jits_Phase_5,2,5,56,103,1491279216
87,15,17,Jits_Phase_5,3,5,80,127,1491288516
87,15,17,Jits_Phase_5,0,5,56,103,1491699008
87,15,17,Jits_Phase_5,1,5,63,98,1491749136
87,15,17,Jits_Phase_5,2,5,80,127,1491768844
87,15,17,Jits_Phase_5,3,1,48,40,1491801728
87,15,17,Jits_Phase_5,0,5,80,127,1492198848
87,15,17,Jits_Phase_5,1,5,63,98,1492248900
87,15,17,Jits_Phase_5,2,1,48,42,1492271044
87,15,17,Jits_Phase_5,3,5,56,103,1492288828
87,15,17,Jits_Phase_5,0,5,56,103,1492698760
87,15,17,Jits_Phase_5,1,5,63,98,1492729184
87,15,17,Jits_Phase_5,2,1,48,46,1492743760
87,15,17,Jits_Phase_5,3,5,80,127,1492798852
87,15,17,Jits_Phase_5,0,5,56,103,1493199196
87,15,17,Jits_Phase_5,1,1,48,46,1493237308
87,15,17,Jits_Phase_5,2,5,80,127,1493258828
87,15,17,Jits_Phase_5,3,5,63,98,1493289324
87,15,17,Jits_Phase_5,0,5,56,103,1493709224
87,15,17,Jits_Phase_5,1,5,63,98,1493719792
87,15,17,Jits_Phase_5,2,1,48,46,1493725080
87,15,17,Jits_Phase_5,3,5,80,127,1493759496
87,15,17,Jits_Phase_5,0,5,63,98,1494198796
87,15,17,Jits_Phase_5,1,1,48,48,1494217580
87,15,17,Jits_Phase_5,2,5,80,127,1494278732
87,15,17,Jits_Phase_5,3,5,56,103,1494288704
87,15,17,Jits_Phase_5,0,5,63,98,1494748672
87,15,17,Jits_Phase_5,1,1,48,50,1494758912
87,15,17,Jits_Phase_5,2,5,56,103,1494788600
87,15,17,Jits_Phase_5,3,5,80,127,1494791816
87,15,17,Jits_Phase_5,0,5,56,103,1495209208
87,15,17,Jits_Phase_5,1,5,63,98,1495218728
87,15,17,Jits_Phase_5,2,5,80,127,1495258664
87,15,17,Jits_Phase_5,3,1,48,48,1495295340
87,15,17,Jits_Phase_5,0,5,56,103,1495698924
87,15,17,Jits_Phase_5,1,5,63,98,1495701768
87,15,17,Jits_Phase_5,2,5,80,127,1495719308
87,15,17,Jits_Phase_5,3,1,48,54,1495792388
87,15,17,Jits_Phase_5,0,5,80,127,1496208712
87,15,17,Jits_Phase_5,1,5,56,103,1496218984
87,15,17,Jits_Phase_5,2,1,48,53,1496285624
87,15,17,Jits_Phase_5,3,5,63,98,1496288652
87,15,17,Jits_Phase_5,4,1,48,33,1496329516
87,15,17,Jits_Phase_5,0,5,63,98,1496699364
87,15,17,Jits_Phase_5,1,5,56,103,1496718700
87,15,17,Jits_Phase_5,2,1,48,40,1496776644
87,15,17,Jits_Phase_5,3,5,80,127,1496798632
87,15,17,Jits_Phase_5,0,5,56,103,1497209300
87,15,17,Jits_Phase_5,1,1,48,47,1497239844
87,15,17,Jits_Phase_5,2,5,80,127,1497249156
87,15,17,Jits_Phase_5,3,5,63,98,1497259576
87,15,17,Jits_Phase_5,0,5,80,127,1497698800
87,15,17,Jits_Phase_5,1,5,63,98,1497729596
87,15,17,Jits_Phase_5,2,1,48,47,1497754136
87,15,17,Jits_Phase_5,3,5,56,103,1497769452
87,15,17,Jits_Phase_5,0,5,56,103,1498218792
87,15,17,Jits_Phase_5,1,1,48,50,1498246024
87,15,17,Jits_Phase_5,2,5,63,98,1498248536
87,15,17,Jits_Phase_5,3,5,80,127,1498298732
87,15,17,Jits_Phase_5,0,5,80,127,1498718708
87,15,17,Jits_Phase_5,1,1,48,47,1498729096
87,15,17,Jits_Phase_5,2,5,56,103,1498758640
87,15,17,Jits_Phase_5,3,5,63,98,1498768684
87,15,17,Jits_Phase_5,0,5,80,127,1499198896
87,15,17,Jits_Phase_5,1,1,48,39,1499221148
87,15,17,Jits_Phase_5,2,5,63,98,1499238704
87,15,17,Jits_Phase_5,3,5,56,103,1499299684
87,15,17,Jits_Phase_5,0,5,56,103,1499698512
87,15,17,Jits_Phase_5,1,5,80,127,1499708708
87,15,17,Jits_Phase_5,2,1,48,46,1499763916
87,15,17,Jits_Phase_5,3,5,63,98,1499788668
87,15,17,Jits_Phase_5,0,5,80,127,1500199396
87,15,17,Jits_Phase_5,1,1,48,40,1500231288
87,15,17,Jits_Phase_5,2,5,63,98,1500258684
87,15,17,Jits_Phase_5,3,5,56,103,1500289480
87,15,17,Jits_Phase_5,0,5,56,103,1500699012
87,15,17,Jits_Phase_5,1,1,48,51,1500754816
87,15,17,Jits_Phase_5,2,5,80,127,1500759496
87,15,17,Jits_Phase_5,3,5,63,98,1500799504
87,15,17,Jits_Phase_5,0,5,56,103,1501248820
87,15,17,Jits_Phase_5,1,5,63,98,1501259260
87,15,17,Jits_Phase_5,2,5,80,127,1501262700
87,15,17,Jits_Phase_5,3,1,48,43,1501286960
87,15,17,Jits_Phase_5,0,5,80,127,1501698528
87,15,17,Jits_Phase_5,1,1,48,45,1501742772
87,15,17,Jits_Phase_5,2,5,63,98,1501788676
87,15,17,Jits_Phase_5,3,5,56,103,1501798796
87,15,17,Jits_Phase_5,0,5,56,103,1502199248
87,15,17,Jits_Phase_5,1,5,63,98,1502202268
87,15,17,Jits_Phase_5,2,5,80,127,1502205692
87,15,17,Jits_Phase_5,3,1,48,45,1502231072
87,15,17,Jits_Phase_5,0,1,48,44,1502719752
87,15,17,Jits_Phase_5,1,5,80,127,1502720868
87,15,17,Jits_Phase_5,2,5,63,98,1502768528
87,15,17,Jits_Phase_5,3,5,56,103,1502799644
87,15,17,Jits_Phase_5,0,5,56,103,1503198536
87,15,17,Jits_Phase_5,1,5,80,127,1503208880
87,15,17,Jits_Phase_5,2,1,48,42,1503274472
87,15,17,Jits_Phase_5,3,5,63,98,1503278624
87,15,17,Jits_Phase_5,0,5,56,103,1503708564
87,15,17,Jits_Phase_5,1,5,63,98,1503728872
87,15,17,Jits_Phase_5,2,1,48,43,1503731688
87,15,17,Jits_Phase_5,3,5,80,127,1503789552
87,15,17,Jits_Phase_5,0,5,80,127,1504188776
87,15,17,Jits_Phase_5,1,1,48,44,1504238724
87,15,17,Jits_Phase_5,2,5,63,98,1504258524
87,15,17,Jits_Phase_5,3,5,56,103,1504278908
87,15,17,Jits_Phase_5,0,5,80,127,1504708920
87,15,17,Jits_Phase_5,1,5,56,103,1504719412
87,15,17,Jits_Phase_5,2,5,63,98,1504728636
87,15,17,Jits_Phase_5,3,1,48,46,1504754900
87,15,17,Jits_Phase_5,0,5,80,127,1505198564
87,15,17,Jits_Phase_5,1,1,48,44,1505206636
87,15,17,Jits_Phase_5,2,5,56,103,1505218940
87,15,17,Jits_Phase_5,3,5,63,98,1505288544
87,15,17,Jits_Phase_5,0,5,56,103,1505709340
87,15,17,Jits_Phase_5,1,5,80,127,1505739168
87,15,17,Jits_Phase_5,2,5,63,98,1505758504
87,15,17,Jits_Phase_5,3,1,48,39,1505794800
87,15,17,Jits_Phase_5,0,5,63,98,1506198920
87,15,17,Jits_Phase_5,1,5,56,103,1506259532
87,15,17,Jits_Phase_5,2,5,80,127,1506288908
87,15,17,Jits_Phase_5,3,1,48,31,1506300416
87,15,17,Jits_Phase_5,0,5,63,98,1506689524
87,15,17,Jits_Phase_5,1,5,80,127,1506692816
87,15,17,Jits_Phase_5,2,1,48,43,1506749512
87,15,17,Jits_Phase_5,3,5,56,103,1506778672
87,15,17,Jits_Phase_5,0,1,48,48,1507210440
87,15,17,Jits_Phase_5,1,5,56,103,1507218780
87,15,17,Jits_Phase_5,2,5,63,98,1507248456
87,15,17,Jits_Phase_5,3,5,80,127,1507288540
87,15,17,Jits_Phase_5,0,1,48,44,1507710264
87,15,17,Jits_Phase_5,1,5,63,98,1507718456
87,15,17,Jits_Phase_5,2,5,56,103,1507758472
87,15,17,Jits_Phase_5,3,5,80,127,1507778780
87,15,17,Jits_Phase_5,0,1,48,45,1508195476
87,15,17,Jits_Phase_5,1,5,63,98,1508228548
87,15,17,Jits_Phase_5,2,5,56,103,1508269308
87,15,17,Jits_Phase_5,3,5,80,127,1508278604
87,15,17,Jits_Phase_5,0,5,80,127,1508708600
87,15,17,Jits_Phase_5,1,1,48,48,1508721236
87,15,17,Jits_Phase_5,2,5,63,98,1508779472
87,15,17,Jits_Phase_5,3,1,48,24,1508784068
87,15,17,Jits_Phase_5,4,5,56,103,1508798860
87,15,17,Jits_Phase_5,0,5,56,103,1509199480
87,15,17,Jits_Phase_5,1,5,80,127,1509218816
87,15,17,Jits_Phase_5,2,1,48,48,1509226816
87,15,17,Jits_Phase_5,3,5,63,98,1509258748
87,15,17,Jits_Phase_5,0,5,63,98,1509709136
87,15,17,Jits_Phase_5,1,1,48,47,1509726500
87,15,17,Jits_Phase_5,2,5,80,127,1509728540
87,15,17,Jits_Phase_5,3,5,56,103,1509768476
87,15,17,Jits_Phase_5,0,5,63,98,1510208932
87,15,17,Jits_Phase_5,1,5,56,103,1510229268
87,15,17,Jits_Phase_5,2,5,80,127,1510238564
87,15,17,Jits_Phase_5,3,1,48,51,1510252096
87,15,17,Jits_Phase_5,0,5,80,127,1510708528
87,15,17,Jits_Phase_5,1,1,48,47,1510728004
87,15,17,Jits_Phase_5,2,5,56,103,1510729576
87,15,17,Jits_Phase_5,3,5,63,98,1510758728
87,15,17,Jits_Phase_5,0,1,48,39,1511262192
87,15,17,Jits_Phase_5,1,5,56,103,1511278928
87,15,17,Jits_Phase_5,2,5,80,127,1511282068
87,15,17,Jits_Phase_5,3,5,63,98,1511298416
87,15,17,Jits_Phase_5,0,5,63,98,1511698792
87,15,17,Jits_Phase_5,1,5,56,103,1511728468
87,15,17,Jits_Phase_5,2,1,48,52,1511744316
87,15,17,Jits_Phase_5,3,5,80,127,1511788872
87,15,17,Jits_Phase_5,0,1,48,46,1512242336
87,15,17,Jits_Phase_5,1,5,63,98,1512279396
87,15,17,Jits_Phase_5,2,5,56,103,1512288620
87,15,17,Jits_Phase_5,3,5,80,127,1512298744
87,15,17,Jits_Phase_5,0,5,56,103,1512739204
87,15,17,Jits_Phase_5,1,5,80,127,1512768880
87,15,17,Jits_Phase_5,2,1,48,44,1512777740
87,15,17,Jits_Phase_5,3,5,63,98,1512779096
87,15,17,Jits_Phase_5,0,5,63,98,1513278904
87,15,17,Jits_Phase_5,1,1,48,41,1513282700
87,15,17,Jits_Phase_5,2,5,56,103,1513289116
87,15,17,Jits_Phase_5,3,5,80,127,1513308452
87,15,17,Jits_Phase_5,0,5,56,103,1513708832
87,15,17,Jits_Phase_5,1,5,63,98,1513769444
87,15,17,Jits_Phase_5,2,1,48,46,1513771628
87,15,17,Jits_Phase_5,3,5,80,127,1513773996
87,15,17,Jits_Phase_5,0,5,80,127,1514229040
87,15,17,Jits_Phase_5,1,5,56,103,1514239308
87,15,17,Jits_Phase_5,2,1,48,42,1514259588
87,15,17,Jits_Phase_5,3,5,63,98,1514309052
87,15,17,Jits_Phase_5,0,5,80,127,1514718616
87,15,17,Jits_Phase_5,1,1,48,45,1514758376
87,15,17,Jits_Phase_5,2,5,56,103,1514789336
87,15,17,Jits_Phase_5,3,5,63,98,1514798408
87,15,17,Jits_Phase_5,0,5,63,98,1515259436
87,15,17,Jits_Phase_5,1,5,56,103,1515268436
87,15,17,Jits_Phase_5,2,1,48,43,1515286452
87,15,17,Jits_Phase_5,3,5,80,127,1515288960
87,15,17,Jits_Phase_5,0,5,80,127,1515708916
87,15,17,Jits_Phase_5,1,5,63,98,1515769380
87,15,17,Jits_Phase_5,2,1,48,46,1515778280
87,15,17,Jits_Phase_5,3,5,56,103,1515809160
87,15,17,Jits_Phase_5,0,5,56,103,1516248316
87,15,17,Jits_Phase_5,1,5,63,98,1516258660
87,15,17,Jits_Phase_5,2,1,48,48,1516298372
87,15,17,Jits_Phase_5,3,5,80,127,1516299784
87,15,17,Jits_Phase_5,4,1,48,31,1516351132
87,15,17,Jits_Phase_5,0,5,56,103,1516709448
87,15,17,Jits_Phase_5,1,5,80,127,1516739124
87,15,17,Jits_Phase_5,2,1,48,35,1516783516
87,15,17,Jits_Phase_5,3,5,63,98,1516789316
87,15,17,Jits_Phase_5,0,1,48,40,1517223780
87,15,17,Jits_Phase_5,1,5,56,103,1517248764
87,15,17,Jits_Phase_5,2,5,63,98,1517288776
87,15,17,Jits_Phase_5,3,5,80,127,1517292140
87,15,17,Jits_Phase_5,0,1,48,36,1517730796
87,15,17,Jits_Phase_5,1,5,56,103,1517748584
87,15,17,Jits_Phase_5,2,5,63,98,1517758704
87,15,17,Jits_Phase_5,3,5,80,127,1517779236
87,15,17,Jits_Phase_5,0,1,48,51,1518151484
87,15,17,Jits_Phase_5,1,5,56,103,1518209496
87,15,17,Jits_Phase_5,2,5,80,127,1518212564
87,15,17,Jits_Phase_5,3,5,63,98,1518249788
87,15,17,Jits_Phase_5,0,1,48,47,1518683284
87,15,17,Jits_Phase_5,1,5,63,98,1518759428
87,15,17,Jits_Phase_5,2,5,56,103,1518789164
87,15,17,Jits_Phase_5,3,5,80,127,1518808424
87,15,17,Jits_Phase_5,0,5,80,127,1519229220
87,15,17,Jits_Phase_5,1,1,48,40,1519234732
87,15,17,Jits_Phase_5,2,5,56,103,1519238440
87,15,17,Jits_Phase_5,3,5,63,98,1519248856
87,15,17,Jits_Phase_5,0,1,48,47,1519724368
87,15,17,Jits_Phase_5,1,5,56,103,1519729196
87,15,17,Jits_Phase_5,2,5,80,127,1519769360
87,15,17,Jits_Phase_5,3,5,63,98,1519798588
87,15,17,Jits_Phase_5,0,5,63,98,1520239068
87,15,17,Jits_Phase_5,1,5,80,127,1520249192
87,15,17,Jits_Phase_5,2,5,56,103,1520258416
87,15,17,Jits_Phase_5,3,1,48,45,1520267008
87,15,17,Jits_Phase_5,0,5,56,103,1520728404
87,15,17,Jits_Phase_5,1,1,48,46,1520761488
87,15,17,Jits_Phase_5,2,5,63,98,1520799272
87,15,17,Jits_Phase_5,3,5,80,127,1520809468
87,15,17,Jits_Phase_5,0,5,80,127,1521239548
87,15,17,Jits_Phase_5,1,5,56,103,1521248552
87,15,17,Jits_Phase_5,2,1,48,45,1521256624
87,15,17,Jits_Phase_5,3,5,63,98,1521298892
87,15,17,Jits_Phase_5,0,5,80,127,1521749500
87,15,17,Jits_Phase_5,1,1,48,45,1521755388
87,15,17,Jits_Phase_5,2,5,56,103,1521808612
87,15,17,Jits_Phase_5,3,5,63,98,1521838432
87,15,17,Jits_Phase_5,0,5,56,103,1522249040
87,15,17,Jits_Phase_5,1,5,80,127,1522252104
87,15,17,Jits_Phase_5,2,5,63,98,1522289048
87,15,17,Jits_Phase_5,3,1,48,46,1522289940
87,15,17,Jits_Phase_5,0,1,48,43,1522777780
87,15,17,Jits_Phase_5,1,5,56,103,1522779428
87,15,17,Jits_Phase_5,2,5,63,98,1522809176
87,15,17,Jits_Phase_5,3,5,80,127,1522818400
87,15,17,Jits_Phase_5,0,5,63,98,1523288404
87,15,17,Jits_Phase_5,1,1,48,45,1523294664
87,15,17,Jits_Phase_5,2,5,80,127,1523298812
87,15,17,Jits_Phase_5,3,5,56,103,1523308860
87,15,17,Jits_Phase_5,0,5,80,127,1523739124
87,15,17,Jits_Phase_5,1,1,48,41,1523785044
87,15,17,Jits_Phase_5,2,5,56,103,1523789268
87,15,17,Jits_Phase_5,3,5,63,98,1523792484
87,15,17,Jits_Phase_5,0,5,56,103,1524269440
87,15,17,Jits_Phase_5,1,5,80,127,1524288852
87,15,17,Jits_Phase_5,2,5,63,98,1524298996
87,15,17,Jits_Phase_5,3,1,48,41,1524308784
87,15,17,Jits_Phase_5,0,5,63,98,1524748528
87,15,17,Jits_Phase_5,1,1,48,43,1524773968
87,15,17,Jits_Phase_5,2,5,56,103,1524779616
87,15,17,Jits_Phase_5,3,5,80,127,1524798804
87,15,17,Jits_Phase_5,0,5,56,103,1525258540
87,15,17,Jits_Phase_5,1,5,80,127,1525269104
87,15,17,Jits_Phase_5,2,1,48,42,1525275144
87,15,17,Jits_Phase_5,3,5,63,98,1525338356
87,15,17,Jits_Phase_5,0,5,63,98,1525749084
87,15,17,Jits_Phase_5,1,5,80,127,1525789320
87,15,17,Jits_Phase_5,2,1,48,40,1525790288
87,15,17,Jits_Phase_5,3,5,56,103,1525829400
87,15,17,Jits_Phase_5,0,5,56,103,1526259176
87,15,17,Jits_Phase_5,1,5,63,98,1526269448
87,15,17,Jits_Phase_5,2,1,48,46,1526274736
87,15,17,Jits_Phase_5,3,5,80,127,1526288776
87,15,17,Jits_Phase_5,0,1,48,39,1526772464
87,15,17,Jits_Phase_5,1,5,63,98,1526798716
87,15,17,Jits_Phase_5,2,5,80,127,1526819100
87,15,17,Jits_Phase_5,3,5,56,103,1526838588
87,15,17,Jits_Phase_5,0,5,56,103,1527239068
87,15,17,Jits_Phase_5,1,1,48,44,1527310664
87,15,17,Jits_Phase_5,2,5,80,127,1527319004
87,15,17,Jits_Phase_5,3,5,63,98,1527329048
87,15,17,Jits_Phase_5,0,5,80,127,1527778988
87,15,17,Jits_Phase_5,1,5,63,98,1527789332
87,15,17,Jits_Phase_5,2,5,56,103,1527818784
87,15,17,Jits_Phase_5,3,1,48,42,1527827228
87,15,17,Jits_Phase_5,0,5,63,98,1528238452
87,15,17,Jits_Phase_5,1,5,80,127,1528279288
87,15,17,Jits_Phase_5,2,5,56,103,1528338996
87,15,17,Jits_Phase_5,3,1,48,43,1528339964
87,15,17,Jits_Phase_5,0,5,63,98,1528749508
87,15,17,Jits_Phase_5,1,5,56,103,1528798516
87,15,17,Jits_Phase_5,2,1,48,45,1528810704
87,15,17,Jits_Phase_5,3,5,80,127,1528829380
87,15,17,Jits_Phase_5,0,5,80,127,1529249188
87,15,17,Jits_Phase_5,1,5,63,98,1529259312
87,15,17,Jits_Phase_5,2,1,48,44,1529262356
87,15,17,Jits_Phase_5,3,5,56,103,1529329056
87,15,17,Jits_Phase_5,0,1,48,44,1529806600
87,15,17,Jits_Phase_5,1,5,80,127,1529809260
87,15,17,Jits_Phase_5,2,5,56,103,1529818408
87,15,17,Jits_Phase_5,3,5,63,98,1529821552
87,15,17,Jits_Phase_5,0,5,56,103,1530248636
87,15,17,Jits_Phase_5,1,5,80,127,1530269020
87,15,17,Jits_Phase_5,2,5,63,98,1530279364
87,15,17,Jits_Phase_5,3,1,48,45,1530305472
87,15,17,Jits_Phase_5,0,1,48,46,1530736588
87,15,17,Jits_Phase_5,1,5,63,98,1530758432
87,15,17,Jits_Phase_5,2,5,56,103,1530798444
87,15,17,Jits_Phase_5,3,5,80,127,1530819052
87,15,17,Jits_Phase_5,0,1,48,43,1531252240
87,15,17,Jits_Phase_5,1,5,63,98,1531259236
87,15,17,Jits_Phase_5,2,5,56,103,1531318576
87,15,17,Jits_Phase_5,3,5,80,127,1531321716
87,15,17,Jits_Phase_5,0,5,56,103,1531719104
87,15,17,Jits_Phase_5,1,5,80,127,1531738588
87,15,17,Jits_Phase_5,2,5,63,98,1531778376
87,15,17,Jits_Phase_5,3,1,48,47,1531781276
87,15,17,Jits_Phase_5,0,5,56,103,1532248388
87,15,17,Jits_Phase_5,1,5,63,98,1532268996
87,15,17,Jits_Phase_5,2,1,48,47,1532274280
87,15,17,Jits_Phase_5,3,5,80,127,1532279108
87,15,17,Jits_Phase_5,0,5,80,127,1532718456
87,15,17,Jits_Phase_5,1,1,48,46,1532744820
87,15,17,Jits_Phase_5,2,5,56,103,1532749196
87,15,17,Jits_Phase_5,3,5,63,98,1532789056
87,15,17,Jits_Phase_5,0,5,80,127,1533229452
87,15,17,Jits_Phase_5,1,1,48,45,1533232648
87,15,17,Jits_Phase_5,2,5,56,103,1533249080
87,15,17,Jits_Phase_5,3,5,63,98,1533309344
87,15,17,Jits_Phase_5,0,1,48,47,1533736972
87,15,17,Jits_Phase_5,1,5,56,103,1533739328
87,15,17,Jits_Phase_5,2,5,80,127,1533758888
87,15,17,Jits_Phase_5,3,5,63,98,1533819224
87,15,17,Jits_Phase_5,0,5,80,127,1534218552
87,15,17,Jits_Phase_5,1,5,56,103,1534229120
87,15,17,Jits_Phase_5,2,1,48,44,1534260260
87,15,17,Jits_Phase_5,3,5,63,98,1534268824
87,15,17,Jits_Phase_5,0,5,63,98,1534719284
87,15,17,Jits_Phase_5,1,1,48,48,1534756932
87,15,17,Jits_Phase_5,2,5,56,103,1534759284
87,15,17,Jits_Phase_5,3,5,80,127,1534762352
87,15,17,Jits_Phase_5,0,5,63,98,1535238428
87,15,17,Jits_Phase_5,1,1,48,47,1535261252
87,15,17,Jits_Phase_5,2,5,80,127,1535278436
87,15,17,Jits_Phase_5,3,5,56,103,1535309104
87,15,17,Jits_Phase_5,0,5,56,103,1535729036
87,15,17,Jits_Phase_5,1,5,63,98,1535739380
87,15,17,Jits_Phase_5,2,5,80,127,1535768908
87,15,17,Jits_Phase_5,3,1,48,42,1535775392
87,15,17,Jits_Phase_5,0,5,80,127,1536218536
87,15,17,Jits_Phase_5,1,1,48,43,1536259936
87,15,17,Jits_Phase_5,2,5,63,98,1536289108
87,15,17,Jits_Phase_5,3,5,56,103,1536299376
87,15,17,Jits_Phase_5,0,5,63,98,1536719344
87,15,17,Jits_Phase_5,1,5,56,103,1536789100
87,15,17,Jits_Phase_5,2,5,80,127,1536799072
87,15,17,Jits_Phase_5,3,1,48,32,1536803536
87,15,17,Jits_Phase_5,0,5,63,98,1537198420
87,15,17,Jits_Phase_5,1,1,48,46,1537208436
87,15,17,Jits_Phase_5,2,5,56,103,1537218796
87,15,17,Jits_Phase_5,3,5,80,127,1537258956
87,15,17,Jits_Phase_5,0,5,56,103,1537678916
87,15,17,Jits_Phase_5,1,5,63,98,1537688888
87,15,17,Jits_Phase_5,2,1,48,43,1537724516
87,15,17,Jits_Phase_5,3,5,80,127,1537768892
87,15,17,Jits_Phase_5,0,5,63,98,1538169164
87,15,17,Jits_Phase_5,1,5,56,103,1538198840
87,15,17,Jits_Phase_5,2,1,48,46,1538219936
87,15,17,Jits_Phase_5,3,5,80,127,1538239064
87,15,17,Jits_Phase_5,0,1,48,43,1538666468
87,15,17,Jits_Phase_5,1,5,56,103,1538669052
87,15,17,Jits_Phase_5,2,5,63,98,1538708988
87,15,17,Jits_Phase_5,3,5,80,127,1538749000
87,15,17,Jits_Phase_5,0,5,80,127,1539168584
87,15,17,Jits_Phase_5,1,1,48,40,1539180168
87,15,17,Jits_Phase_5,2,5,56,103,1539248444
87,15,17,Jits_Phase_5,3,5,63,98,1539258716
87,15,17,Jits_Phase_5,0,1,48,43,1539653824
87,15,17,Jits_Phase_5,1,5,56,103,1539709164
87,15,17,Jits_Phase_5,2,5,63,98,1539712308
87,15,17,Jits_Phase_5,3,5,80,127,1539718392
87,15,17,Jits_Phase_5,0,1,48,45,1540162780
87,15,17,Jits_Phase_5,1,5,56,103,1540228388
87,15,17,Jits_Phase_5,2,5,63,98,1540248996
87,15,17,Jits_Phase_5,3,5,80,127,1540259104
87,15,17,Jits_Phase_5,0,5,63,98,1540689192
87,15,17,Jits_Phase_5,1,5,80,127,1540698416
87,15,17,Jits_Phase_5,2,1,48,46,1540701156
87,15,17,Jits_Phase_5,3,5,56,103,1540719088
87,15,17,Jits_Phase_5,0,1,48,47,1541167684
87,15,17,Jits_Phase_5,1,5,63,98,1541188908
87,15,17,Jits_Phase_5,2,5,56,103,1541268784
87,15,17,Jits_Phase_5,3,5,80,127,1541271848
87,15,17,Jits_Phase_5,0,5,63,98,1541688952
87,15,17,Jits_Phase_5,1,5,56,103,1541709140
87,15,17,Jits_Phase_5,2,1,48,42,1541712856
87,15,17,Jits_Phase_5,3,5,80,127,1541738956
87,15,17,Jits_Phase_5,0,1,48,46,1542178336
87,15,17,Jits_Phase_5,1,5,56,103,1542189372
87,15,17,Jits_Phase_5,2,5,63,98,1542208932
87,15,17,Jits_Phase_5,3,5,80,127,1542219076
87,15,17,Jits_Phase_5,0,1,48,48,1542681968
87,15,17,Jits_Phase_5,1,5,56,103,1542718708
87,15,17,Jits_Phase_5,2,5,63,98,1542748400
87,15,17,Jits_Phase_5,3,5,80,127,1542751992
87,15,17,Jits_Phase_5,0,5,56,103,1543169380
87,15,17,Jits_Phase_5,1,1,48,44,1543199252
87,15,17,Jits_Phase_5,2,5,63,98,1543209316
87,15,17,Jits_Phase_5,3,5,80,127,1543268752
87,15,17,Jits_Phase_5,0,1,48,44,1543668892
87,15,17,Jits_Phase_5,1,5,56,103,1543698732
87,15,17,Jits_Phase_5,2,5,63,98,1543709152
87,15,17,Jits_Phase_5,3,5,80,127,1543768428
87,15,17,Jits_Phase_5,0,1,48,42,1544198492
87,15,17,Jits_Phase_5,1,5,56,103,1544199900
87,15,17,Jits_Phase_5,2,5,80,127,1544218944
87,15,17,Jits_Phase_5,3,5,63,98,1544248912
87,15,17,Jits_Phase_5,0,1,48,43,1544691308
87,15,17,Jits_Phase_5,1,5,80,127,1544699276
87,15,17,Jits_Phase_5,2,5,56,103,1544708648
87,15,17,Jits_Phase_5,3,5,63,98,1544728884
87,15,17,Jits_Phase_5,0,1,48,45,1545178476
87,15,17,Jits_Phase_5,1,5,63,98,1545188836
87,15,17,Jits_Phase_5,2,5,80,127,1545268704
87,15,17,Jits_Phase_5,3,5,56,103,1545279780
87,15,17,Jits_Phase_5,0,1,48,47,1545726316
87,15,17,Jits_Phase_5,1,5,80,127,1545778568
87,15,17,Jits_Phase_5,2,5,56,103,1545798976
87,15,17,Jits_Phase_5,3,5,63,98,1545802192
87,15,17,Jits_Phase_5,0,1,48,46,1546250496
87,15,17,Jits_Phase_5,1,5,63,98,1546279288
87,15,17,Jits_Phase_5,2,5,80,127,1546282800
87,15,17,Jits_Phase_5,3,5,56,103,1546338724
87,15,17,Jits_Phase_5,0,1,48,49,1546754500
87,15,17,Jits_Phase_5,1,5,56,103,1546758724
87,15,17,Jits_Phase_5,2,5,80,127,1546768696
87,15,17,Jits_Phase_5,3,5,63,98,1546808932
87,15,17,Jits_Phase_5,0,5,56,103,1547238776
87,15,17,Jits_Phase_5,1,1,48,38,1547292236
87,15,17,Jits_Phase_5,2,5,63,98,1547299160
87,15,17,Jits_Phase_5,3,5,80,127,1547309500
87,15,17,Jits_Phase_5,0,5,63,98,1547748876
87,15,17,Jits_Phase_5,1,1,48,50,1547761212
87,15,17,Jits_Phase_5,2,5,80,127,1547788732
87,15,17,Jits_Phase_5,3,5,56,103,1547828668
87,15,17,Jits_Phase_5,0,5,56,103,1548248852
87,15,17,Jits_Phase_5,1,1,48,39,1548290188
87,15,17,Jits_Phase_5,2,5,63,98,1548329312
87,15,17,Jits_Phase_5,3,5,80,127,1548332824
87,15,17,Jits_Phase_5,0,1,48,49,1548773144
87,15,17,Jits_Phase_5,1,5,80,127,1548808840
87,15,17,Jits_Phase_5,2,5,56,103,1548839408
87,15,17,Jits_Phase_5,3,5,63,98,1548842400
87,15,17,Jits_Phase_5,0,5,56,103,1549269260
87,15,17,Jits_Phase_5,1,5,80,127,1549288820
87,15,17,Jits_Phase_5,2,1,48,47,1549289860
87,15,17,Jits_Phase_5,3,5,63,98,1549328676
87,15,17,Jits_Phase_5,0,5,80,127,1549748796
87,15,17,Jits_Phase_5,1,1,48,53,1549766588
87,15,17,Jits_Phase_5,2,5,63,98,1549769028
87,15,17,Jits_Phase_5,3,5,56,103,1549828664
87,15,17,Jits_Phase_5,0,5,63,98,1550258752
87,15,17,Jits_Phase_5,1,5,56,103,1550268724
87,15,17,Jits_Phase_5,2,1,48,48,1550276180
87,15,17,Jits_Phase_5,3,5,80,127,1550318916
87,15,17,Jits_Phase_5,0,1,48,51,1550748232
87,15,17,Jits_Phase_5,1,5,56,103,1550749800
87,15,17,Jits_Phase_5,2,5,63,98,1550768688
87,15,17,Jits_Phase_5,3,5,80,127,1550778588
87,15,17,Jits_Phase_5,0,5,56,103,1551238688
87,15,17,Jits_Phase_5,1,5,63,98,1551241608
87,15,17,Jits_Phase_5,2,5,80,127,1551258848
87,15,17,Jits_Phase_5,3,1,48,51,1551287744
87,15,17,Jits_Phase_5,0,1,48,47,1551765596
87,15,17,Jits_Phase_5,1,5,63,98,1551779040
87,15,17,Jits_Phase_5,2,5,56,103,1551809012
87,15,17,Jits_Phase_5,3,5,80,127,1551838688
87,15,17,Jits_Phase_5,0,5,80,127,1552238868
87,15,17,Jits_Phase_5,1,1,48,48,1552258848
87,15,17,Jits_Phase_5,2,5,56,103,1552329068
87,15,17,Jits_Phase_5,3,5,63,98,1552332060
87,15,17,Jits_Phase_5,0,5,56,103,1552738544
87,15,17,Jits_Phase_5,1,5,80,127,1552741616
87,15,17,Jits_Phase_5,2,1,48,46,1552784440
87,15,17,Jits_Phase_5,3,5,63,98,1552818704
87,15,17,Jits_Phase_5,0,5,80,127,1553239348
87,15,17,Jits_Phase_5,1,1,48,49,1553289068
87,15,17,Jits_Phase_5,2,5,63,98,1553298908
87,15,17,Jits_Phase_5,3,5,56,103,1553328656
87,15,17,Jits_Phase_5,0,5,63,98,1553739192
87,15,17,Jits_Phase_5,1,5,80,127,1553749460
87,15,17,Jits_Phase_5,2,1,48,47,1553786960
87,15,17,Jits_Phase_5,3,5,56,103,1553818908
87,15,17,Jits_Phase_5,0,1,48,49,1554270676
87,15,17,Jits_Phase_5,1,5,56,103,1554299316
87,15,17,Jits_Phase_5,2,5,80,127,1554328920
87,15,17,Jits_Phase_5,3,5,63,98,1554379028
87,15,17,Jits_Phase_5,0,1,48,43,1554817992
87,15,17,Jits_Phase_5,1,5,63,98,1554888968
87,15,17,Jits_Phase_5,2,5,56,103,1554918848
87,15,17,Jits_Phase_5,3,5,80,127,1554921916
87,15,17,Jits_Phase_5,0,5,63,98,1555388720
87,15,17,Jits_Phase_5,1,1,48,51,1555395572
87,15,17,Jits_Phase_5,2,5,80,127,1555409540
87,15,17,Jits_Phase_5,3,5,56,103,1555418540
87,15,17,Jits_Phase_5,0,1,48,48,1555885656
87,15,17,Jits_Phase_5,1,5,56,103,1555898876
87,15,17,Jits_Phase_5,2,5,63,98,1555902092
87,15,17,Jits_Phase_5,3,5,80,127,1555919256
87,15,17,Jits_Phase_5,0,5,56,103,1556349252
87,15,17,Jits_Phase_5,1,5,63,98,1556358624
87,15,17,Jits_Phase_5,2,5,80,127,1556389344
87,15,17,Jits_Phase_5,3,1,48,48,1556407976
87,15,17,Jits_Phase_5,0,5,63,98,1556868572
87,15,17,Jits_Phase_5,1,5,80,127,1556888880
87,15,17,Jits_Phase_5,2,1,48,42,1556905108
87,15,17,Jits_Phase_5,3,5,56,103,1556928960
87,15,17,Jits_Phase_5,0,1,48,45,1557395324
87,15,17,Jits_Phase_5,1,5,56,103,1557399104
87,15,17,Jits_Phase_5,2,5,63,98,1557438968
87,15,17,Jits_Phase_5,3,5,80,127,1557442256
87,15,17,Jits_Phase_5,0,5,80,127,1557839148
87,15,17,Jits_Phase_5,1,5,56,103,1557879084
87,15,17,Jits_Phase_5,2,5,63,98,1557929508
87,15,17,Jits_Phase_5,3,1,48,43,1557951584
87,15,17,Jits_Phase_5,0,1,48,45,1558389600
87,15,17,Jits_Phase_5,1,5,56,103,1558399440
87,15,17,Jits_Phase_5,2,5,80,127,1558408512
87,15,17,Jits_Phase_5,3,5,63,98,1558439384
87,15,17,Jits_Phase_5,0,5,56,103,1558848832
87,15,17,Jits_Phase_5,1,5,80,127,1558888796
87,15,17,Jits_Phase_5,2,1,48,45,1558900452
87,15,17,Jits_Phase_5,3,5,63,98,1558938912
87,15,17,Jits_Phase_5,0,5,56,103,1559348672
87,15,17,Jits_Phase_5,1,1,48,36,1559358088
87,15,17,Jits_Phase_5,2,5,80,127,1559388700
87,15,17,Jits_Phase_5,3,5,63,98,1559438676
87,15,17,Jits_Phase_5,0,5,80,127,1559839072
87,15,17,Jits_Phase_5,1,1,48,46,1559874780
87,15,17,Jits_Phase_5,2,5,63,98,1559918812
87,15,17,Jits_Phase_5,3,5,56,103,1559929080
87,15,17,Jits_Phase_5,0,5,80,127,1560389032
87,15,17,Jits_Phase_5,1,5,56,103,1560399328
87,15,17,Jits_Phase_5,2,5,63,98,1560418740
87,15,17,Jits_Phase_5,3,1,48,42,1560425076
87,15,17,Jits_Phase_5,0,5,63,98,1560859052
87,15,17,Jits_Phase_5,1,5,56,103,1560928756
87,15,17,Jits_Phase_5,2,1,48,49,1560930188
87,15,17,Jits_Phase_5,3,5,80,127,1560932936
87,15,17,Jits_Phase_5,0,5,80,127,1561348384
87,15,17,Jits_Phase_5,1,5,63,98,1561398584
87,15,17,Jits_Phase_5,2,1,48,51,1561411440
87,15,17,Jits_Phase_5,3,5,56,103,1561438540
87,15,17,Jits_Phase_5,4,1,48,34,1561455872
87,15,17,Jits_Phase_5,0,5,63,98,1561889236
87,15,17,Jits_Phase_5,1,1,48,45,1561929196
87,15,17,Jits_Phase_5,2,5,56,103,1561930460
87,15,17,Jits_Phase_5,3,5,80,127,1561939384
87,15,17,Jits_Phase_5,0,5,63,98,1562378652
87,15,17,Jits_Phase_5,1,5,56,103,1562399484
87,15,17,Jits_Phase_5,2,5,80,127,1562418524
87,15,17,Jits_Phase_5,3,1,48,46,1562473504
87,15,17,Jits_Phase_5,0,5,80,127,1562839516
87,15,17,Jits_Phase_5,1,5,56,103,1562848664
87,15,17,Jits_Phase_5,2,5,63,98,1562869048
87,15,17,Jits_Phase_5,3,1,48,46,1562916956
87,15,17,Jits_Phase_5,0,5,63,98,1563368796
87,15,17,Jits_Phase_5,1,1,48,48,1563395508
87,15,17,Jits_Phase_5,2,5,56,103,1563408728
87,15,17,Jits_Phase_5,3,5,80,127,1563438624
87,15,17,Jits_Phase_5,0,5,56,103,1563828544
87,15,17,Jits_Phase_5,1,5,63,98,1563859712
87,15,17,Jits_Phase_5,2,5,80,127,1563888940
87,15,17,Jits_Phase_5,3,1,48,46,1563901868
87,15,17,Jits_Phase_5,0,5,80,127,1564248380
87,15,17,Jits_Phase_5,1,5,56,103,1564319032
87,15,17,Jits_Phase_5,2,5,63,98,1564322172
87,15,17,Jits_Phase_5,3,1,48,48,1564388676
87,15,17,Jits_Phase_5,0,5,56,103,1564759376
87,15,17,Jits_Phase_5,1,5,63,98,1564808528
87,15,17,Jits_Phase_5,2,1,48,44,1564838044
87,15,17,Jits_Phase_5,3,5,80,127,1564839612
87,15,17,Jits_Phase_5,0,5,63,98,1565238588
87,15,17,Jits_Phase_5,1,5,80,127,1565241804
87,15,17,Jits_Phase_5,2,5,56,103,1565298996
87,15,17,Jits_Phase_5,3,1,48,36,1565313796
87,15,17,Jits_Phase_5,0,5,56,103,1565769140
87,15,17,Jits_Phase_5,1,5,80,127,1565779260
87,15,17,Jits_Phase_5,2,1,48,41,1565789800
87,15,17,Jits_Phase_5,3,5,63,98,1565828556
87,15,17,Jits_Phase_5,0,5,63,98,1566239288
87,15,17,Jits_Phase_5,1,5,56,103,1566249556
87,15,17,Jits_Phase_5,2,5,80,127,1566279180
87,15,17,Jits_Phase_5,3,1,48,39,1566292860
87,15,17,Jits_Phase_5,0,1,48,46,1566736448
87,15,17,Jits_Phase_5,1,5,63,98,1566768468
87,15,17,Jits_Phase_5,2,5,80,127,1566771684
87,15,17,Jits_Phase_5,3,5,56,103,1566799512
87,15,17,Jits_Phase_5,0,1,48,45,1567239188
87,15,17,Jits_Phase_5,1,5,63,98,1567288656
87,15,17,Jits_Phase_5,2,5,56,103,1567309436
87,15,17,Jits_Phase_5,3,5,80,127,1567312352
87,15,17,Jits_Phase_5,0,5,63,98,1567748548
87,15,17,Jits_Phase_5,1,1,48,44,1567771748
87,15,17,Jits_Phase_5,2,5,56,103,1567819068
87,15,17,Jits_Phase_5,3,5,80,127,1567838704
87,15,17,Jits_Phase_5,0,5,56,103,1568238860
87,15,17,Jits_Phase_5,1,5,63,98,1568249500
87,15,17,Jits_Phase_5,2,1,48,45,1568270532
87,15,17,Jits_Phase_5,3,5,80,127,1568339496
87,15,17,Jits_Phase_5,0,1,48,40,1568757100
87,15,17,Jits_Phase_5,1,5,56,103,1568759216
87,15,17,Jits_Phase_5,2,5,80,127,1568799524
87,15,17,Jits_Phase_5,3,5,63,98,1568809572
87,15,17,Jits_Phase_5,0,1,48,42,1569254888
87,15,17,Jits_Phase_5,1,5,56,103,1569279272
87,15,17,Jits_Phase_5,2,5,63,98,1569309616
87,15,17,Jits_Phase_5,3,5,80,127,1569338696
87,15,17,Jits_Phase_5,0,5,80,127,1569739472
87,15,17,Jits_Phase_5,1,5,63,98,1569779040
87,15,17,Jits_Phase_5,2,1,48,46,1569785744
87,15,17,Jits_Phase_5,3,5,56,103,1569798444
87,15,17,Jits_Phase_5,0,1,48,43,1570269776
87,15,17,Jits_Phase_5,1,5,56,103,1570278644
87,15,17,Jits_Phase_5,2,5,80,127,1570299476
87,15,17,Jits_Phase_5,3,5,63,98,1570318588
87,15,17,Jits_Phase_5,0,5,63,98,1570748732
87,15,17,Jits_Phase_5,1,5,56,103,1570759004
87,15,17,Jits_Phase_5,2,1,48,43,1570784964
87,15,17,Jits_Phase_5,3,5,80,127,1570818412
87,15,17,Jits_Phase_5,0,5,56,103,1571248484
87,15,17,Jits_Phase_5,1,1,48,40,1571276092
87,15,17,Jits_Phase_5,2,5,63,98,1571319352
87,15,17,Jits_Phase_5,3,5,80,127,1571338616
87,15,17,Jits_Phase_5,0,5,56,103,1571749520
87,15,17,Jits_Phase_5,1,1,48,47,1571750484
87,15,17,Jits_Phase_5,2,5,63,98,1571779040
87,15,17,Jits_Phase_5,3,5,80,127,1571818828
87,15,17,Jits_Phase_5,0,5,63,98,1572238724
87,15,17,Jits_Phase_5,1,1,48,53,1572239688
87,15,17,Jits_Phase_5,2,5,56,103,1572288844
87,15,17,Jits_Phase_5,3,1,48,35,1572290768
87,15,17,Jits_Phase_5,4,5,80,127,1572299240
87,15,17,Jits_Phase_5,0,5,56,103,1572779336
87,15,17,Jits_Phase_5,1,1,48,46,1572782000
87,15,17,Jits_Phase_5,2,5,63,98,1572828556
87,15,17,Jits_Phase_5,3,5,80,127,1572838752
87,15,17,Jits_Phase_5,0,5,56,103,1573249360
87,15,17,Jits_Phase_5,1,5,63,98,1573258660
87,15,17,Jits_Phase_5,2,1,48,44,1573315408
87,15,17,Jits_Phase_5,3,5,80,127,1573338368
87,15,17,Jits_Phase_5,0,9999,9999,9999,1488986196
87,15,17,Jits_Phase_5,1,9999,9999,9999,1489486928
87,15,17,Jits_Phase_5,2,9999,9999,9999,1489986668
87,15,17,Jits_Phase_5,3,9999,9999,9999,1490486348
87,15,17,Jits_Phase_5,4,9999,9999,9999,1490987072
87,15,17,Jits_Phase_5,5,9999,9999,9999,1491497012
87,15,17,Jits_Phase_5,6,9999,9999,9999,1491996764
87,15,17,Jits_Phase_5,7,9999,9999,9999,1492496452
87,15,17,Jits_Phase_5,8,9999,9999,9999,1492996216
87,15,17,Jits_Phase_5,9,9999,9999,9999,1493496952
87,15,17,Jits_Phase_5,10,9999,9999,9999,1493996640
87,15,17,Jits_Phase_5,11,9999,9999,9999,1494496332
87,15,17,Jits_Phase_5,12,9999,9999,9999,1494997100
87,15,17,Jits_Phase_5,13,9999,9999,9999,1495496772
87,15,17,Jits_Phase_5,14,9999,9999,9999,1495996520
87,15,17,Jits_Phase_5,15,9999,9999,9999,1496496184
87,15,17,Jits_Phase_5,16,9999,9999,9999,1496996968
87,15,17,Jits_Phase_5,17,9999,9999,9999,1497496644
87,15,17,Jits_Phase_5,18,9999,9999,9999,1497996404
87,15,17,Jits_Phase_5,19,9999,9999,9999,1498496100
87,15,17,Jits_Phase_5,20,9999,9999,9999,1498996836
87,15,17,Jits_Phase_5,21,9999,9999,9999,1499496528
87,15,17,Jits_Phase_5,22,9999,9999,9999,1499996220
87,15,17,Jits_Phase_5,23,9999,9999,9999,1500496956
87,15,17,Jits_Phase_5,24,9999,9999,9999,1500996696
87,15,17,Jits_Phase_5,25,9999,9999,9999,1501496444
87,15,17,Jits_Phase_5,26,9999,9999,9999,1501996136
87,15,17,Jits_Phase_5,27,9999,9999,9999,1502496844
87,15,17,Jits_Phase_5,28,9999,9999,9999,1502996540
87,15,17,Jits_Phase_5,29,9999,9999,9999,1503496288
87,15,17,Jits_Phase_5,30,9999,9999,9999,1503986768
87,15,17,Jits_Phase_5,31,9999,9999,9999,1504486460
87,15,17,Jits_Phase_5,32,9999,9999,9999,1504986220
87,15,17,Jits_Phase_5,33,9999,9999,9999,1505486956
87,15,17,Jits_Phase_5,34,9999,9999,9999,1505986648
87,15,17,Jits_Phase_5,35,9999,9999,9999,1506486340
87,15,17,Jits_Phase_5,36,9999,9999,9999,1506987124
87,15,17,Jits_Phase_5,37,9999,9999,9999,1507497064
87,15,17,Jits_Phase_5,38,9999,9999,9999,1507996744
87,15,17,Jits_Phase_5,39,9999,9999,9999,1508496492
87,15,17,Jits_Phase_5,40,9999,9999,9999,1508996152
87,15,17,Jits_Phase_5,41,9999,9999,9999,1509496936
87,15,17,Jits_Phase_5,42,9999,9999,9999,1509996624
87,15,17,Jits_Phase_5,43,9999,9999,9999,1510496372
87,15,17,Jits_Phase_5,44,9999,9999,9999,1510997068
87,15,17,Jits_Phase_5,45,9999,9999,9999,1511496824
87,15,17,Jits_Phase_5,46,9999,9999,9999,1511996472
87,15,17,Jits_Phase_5,47,9999,9999,9999,1512496228
87,15,17,Jits_Phase_5,48,9999,9999,9999,1513006172
87,15,17,Jits_Phase_5,49,9999,9999,9999,1513506916
87,15,17,Jits_Phase_5,50,9999,9999,9999,1514006652
87,15,17,Jits_Phase_5,51,9999,9999,9999,1514506344
87,15,17,Jits_Phase_5,52,9999,9999,9999,1515007084
87,15,17,Jits_Phase_5,53,9999,9999,9999,1515506776
87,15,17,Jits_Phase_5,54,9999,9999,9999,1516006524
87,15,17,Jits_Phase_5,55,9999,9999,9999,1516506192
87,15,17,Jits_Phase_5,56,9999,9999,9999,1517006908
87,15,17,Jits_Phase_5,57,9999,9999,9999,1517506664
87,15,17,Jits_Phase_5,58,9999,9999,9999,1518006340
87,15,17,Jits_Phase_5,59,9999,9999,9999,1518507096
87,15,17,Jits_Phase_5,60,9999,9999,9999,1519017040
87,15,17,Jits_Phase_5,61,9999,9999,9999,1519516784
87,15,17,Jits_Phase_5,62,9999,9999,9999,1520016476
87,15,17,Jits_Phase_5,63,9999,9999,9999,1520516220
87,15,17,Jits_Phase_5,64,9999,9999,9999,1521036348
87,15,17,Jits_Phase_5,65,9999,9999,9999,1521536108
87,15,17,Jits_Phase_5,66,9999,9999,9999,1522036844
87,15,17,Jits_Phase_5,67,9999,9999,9999,1522536520
87,15,17,Jits_Phase_5,68,9999,9999,9999,1523036212
87,15,17,Jits_Phase_5,69,9999,9999,9999,1523537008
87,15,17,Jits_Phase_5,70,9999,9999,9999,1524036724
87,15,17,Jits_Phase_5,71,9999,9999,9999,1524536404
87,15,17,Jits_Phase_5,72,9999,9999,9999,1525036092
87,15,17,Jits_Phase_5,73,9999,9999,9999,1525536888
87,15,17,Jits_Phase_5,74,9999,9999,9999,1526036580
87,15,17,Jits_Phase_5,75,9999,9999,9999,1526536256
87,15,17,Jits_Phase_5,76,9999,9999,9999,1527037000
87,15,17,Jits_Phase_5,77,9999,9999,9999,1527536748
87,15,17,Jits_Phase_5,78,9999,9999,9999,1528036440
87,15,17,Jits_Phase_5,79,9999,9999,9999,1528536132
87,15,17,Jits_Phase_5,80,9999,9999,9999,1529036856
87,15,17,Jits_Phase_5,81,9999,9999,9999,1529516156
87,15,17,Jits_Phase_5,82,9999,9999,9999,1530016896
87,15,17,Jits_Phase_5,83,9999,9999,9999,1530516572
87,15,17,Jits_Phase_5,84,9999,9999,9999,1531016268
87,15,17,Jits_Phase_5,85,9999,9999,9999,1531516988
87,15,17,Jits_Phase_5,86,9999,9999,9999,1532016708
87,15,17,Jits_Phase_5,87,9999,9999,9999,1532516472
87,15,17,Jits_Phase_5,88,9999,9999,9999,1533016160
87,15,17,Jits_Phase_5,89,9999,9999,9999,1533516900
87,15,17,Jits_Phase_5,90,9999,9999,9999,1534016636
87,15,17,Jits_Phase_5,91,9999,9999,9999,1534516304
87,15,17,Jits_Phase_5,92,9999,9999,9999,1535017024
87,15,17,Jits_Phase_5,93,9999,9999,9999,1535516780
87,15,17,Jits_Phase_5,94,9999,9999,9999,1536016452
87,15,17,Jits_Phase_5,95,9999,9999,9999,1536516216
87,15,17,Jits_Phase_5,96,9999,9999,9999,1537016952
87,15,17,Jits_Phase_5,97,9999,9999,9999,1537466436
87,15,17,Jits_Phase_5,98,9999,9999,9999,1537966184
87,15,17,Jits_Phase_5,99,9999,9999,9999,1538466916
87,15,17,Jits_Phase_5,100,9999,9999,9999,1538966592
87,15,17,Jits_Phase_5,101,9999,9999,9999,1539466340
87,15,17,Jits_Phase_5,102,9999,9999,9999,1539967064
87,15,17,Jits_Phase_5,103,9999,9999,9999,1540466744
87,15,17,Jits_Phase_5,104,9999,9999,9999,1540966492
87,15,17,Jits_Phase_5,105,9999,9999,9999,1541466236
87,15,17,Jits_Phase_5,106,9999,9999,9999,1541966956
87,15,17,Jits_Phase_5,107,9999,9999,9999,1542466680
87,15,17,Jits_Phase_5,108,9999,9999,9999,1542966344
87,15,17,Jits_Phase_5,109,9999,9999,9999,1543467064
87,15,17,Jits_Phase_5,110,9999,9999,9999,1543977016
87,15,17,Jits_Phase_5,111,9999,9999,9999,1544476764
87,15,17,Jits_Phase_5,112,9999,9999,9999,1544976436
87,15,17,Jits_Phase_5,113,9999,9999,9999,1545476188
87,15,17,Jits_Phase_5,114,9999,9999,9999,1546027104
87,15,17,Jits_Phase_5,115,9999,9999,9999,1546537036
87,15,17,Jits_Phase_5,116,9999,9999,9999,1547036784
87,15,17,Jits_Phase_5,117,9999,9999,9999,1547536456
87,15,17,Jits_Phase_5,118,9999,9999,9999,1548036224
87,15,17,Jits_Phase_5,119,9999,9999,9999,1548536936
87,15,17,Jits_Phase_5,120,9999,9999,9999,1549036624
87,15,17,Jits_Phase_5,121,9999,9999,9999,1549536376
87,15,17,Jits_Phase_5,122,9999,9999,9999,1550037112
87,15,17,Jits_Phase_5,123,9999,9999,9999,1550536804
87,15,17,Jits_Phase_5,124,9999,9999,9999,1551036476
87,15,17,Jits_Phase_5,125,9999,9999,9999,1551536208
87,15,17,Jits_Phase_5,126,9999,9999,9999,1552036948
87,15,17,Jits_Phase_5,127,9999,9999,9999,1552536692
87,15,17,Jits_Phase_5,128,9999,9999,9999,1553036368
87,15,17,Jits_Phase_5,129,9999,9999,9999,1553536064
87,15,17,Jits_Phase_5,130,9999,9999,9999,1554036796
87,15,17,Jits_Phase_5,131,9999,9999,9999,1554636860
87,15,17,Jits_Phase_5,132,9999,9999,9999,1555136604
87,15,17,Jits_Phase_5,133,9999,9999,9999,1555636280
87,15,17,Jits_Phase_5,134,9999,9999,9999,1556137072
87,15,17,Jits_Phase_5,135,9999,9999,9999,1556636744
87,15,17,Jits_Phase_5,136,9999,9999,9999,1557136512
87,15,17,Jits_Phase_5,137,9999,9999,9999,1557636184
87,15,17,Jits_Phase_5,138,9999,9999,9999,1558136904
87,15,17,Jits_Phase_5,139,9999,9999,9999,1558636600
87,15,17,Jits_Phase_5,140,9999,9999,9999,1559136352
87,15,17,Jits_Phase_5,141,9999,9999,9999,1559637088
87,15,17,Jits_Phase_5,142,9999,9999,9999,1560136784
87,15,17,Jits_Phase_5,143,9999,9999,9999,1560636524
87,15,17,Jits_Phase_5,144,9999,9999,9999,1561136200
87,15,17,Jits_Phase_5,145,9999,9999,9999,1561636980
87,15,17,Jits_Phase_5,146,9999,9999,9999,1562136652
87,15,17,Jits_Phase_5,147,9999,9999,9999,1562636404
87,15,17,Jits_Phase_5,148,9999,9999,9999,1563136072
87,15,17,Jits_Phase_5,149,9999,9999,9999,1563636812
87,15,17,Jits_Phase_5,150,9999,9999,9999,1564036180
87,15,17,Jits_Phase_5,151,9999,9999,9999,1564536912
87,15,17,Jits_Phase_5,152,9999,9999,9999,1565036608
87,15,17,Jits_Phase_5,153,9999,9999,9999,1565536356
87,15,17,Jits_Phase_5,154,9999,9999,9999,1566037080
87,15,17,Jits_Phase_5,155,9999,9999,9999,1566536764
87,15,17,Jits_Phase_5,156,9999,9999,9999,1567036480
87,15,17,Jits_Phase_5,157,9999,9999,9999,1567536216
87,15,17,Jits_Phase_5,158,9999,9999,9999,1568036940
87,15,17,Jits_Phase_5,159,9999,9999,9999,1568536684
87,15,17,Jits_Phase_5,160,9999,9999,9999,1569036376
87,15,17,Jits_Phase_5,161,9999,9999,9999,1569536060
87,15,17,Jits_Phase_5,162,9999,9999,9999,1570036856
87,15,17,Jits_Phase_5,163,9999,9999,9999,1570536548
87,15,17,Jits_Phase_5,164,9999,9999,9999,1571036224
87,15,17,Jits_Phase_5,165,9999,9999,9999,1571536952
87,15,17,Jits_Phase_5,166,9999,9999,9999,1572036716
87,15,17,Jits_Phase_5,167,9999,9999,9999,1572536380
87,15,17,Jits_Phase_5,168,9999,9999,9999,1573036116
87,15,17,Jits_Phase_5,169,9999,9999,9999,1573536856
87,16,7,Jits_ISO_8,0,5,56,103,1582179556
87,16,7,Jits_ISO_8,1,5,63,98,1582182808
87,16,7,Jits_ISO_8,2,5,80,127,1582186152
87,16,7,Jits_ISO_8,0,1,48,31,1582636184
87,16,7,Jits_ISO_8,1,5,56,103,1582979388
87,16,7,Jits_ISO_8,2,5,63,98,1582982560
87,16,7,Jits_ISO_8,3,5,80,127,1582985756
87,16,7,Jits_ISO_8,4,1,48,43,1583163060
87,16,7,Jits_ISO_8,0,5,80,127,1583720072
87,16,7,Jits_ISO_8,1,1,48,47,1583784924
87,16,7,Jits_ISO_8,2,5,63,98,1583809984
87,16,7,Jits_ISO_8,3,5,56,103,1583820252
87,16,7,Jits_ISO_8,0,5,56,103,1584540176
87,16,7,Jits_ISO_8,1,5,63,98,1584550300
87,16,7,Jits_ISO_8,2,1,48,48,1584552388
87,16,7,Jits_ISO_8,3,5,80,127,1584640280
87,16,7,Jits_ISO_8,0,5,63,98,1585309932
87,16,7,Jits_ISO_8,1,5,80,127,1585339836
87,16,7,Jits_ISO_8,2,1,48,51,1585343852
87,16,7,Jits_ISO_8,3,5,56,103,1585369356
87,16,7,Jits_ISO_8,4,1,48,32,1585387504
87,16,7,Jits_ISO_8,0,5,56,103,1586110236
87,16,7,Jits_ISO_8,1,1,48,48,1586120856
87,16,7,Jits_ISO_8,2,5,80,127,1586210108
87,16,7,Jits_ISO_8,3,5,63,98,1586260396
87,16,7,Jits_ISO_8,0,5,56,103,1586909516
87,16,7,Jits_ISO_8,1,1,48,47,1586931816
87,16,7,Jits_ISO_8,2,5,80,127,1586959864
87,16,7,Jits_ISO_8,3,5,63,98,1586999800
87,16,7,Jits_ISO_8,0,1,48,50,1587696160
87,16,7,Jits_ISO_8,1,5,80,127,1587740100
87,16,7,Jits_ISO_8,2,5,63,98,1587769852
87,16,7,Jits_ISO_8,3,5,56,103,1587840292
87,16,7,Jits_ISO_8,0,1,48,45,1588557184
87,16,7,Jits_ISO_8,1,5,63,98,1588569432
87,16,7,Jits_ISO_8,2,5,56,103,1588600156
87,16,7,Jits_ISO_8,3,1,48,25,1588613596
87,16,7,Jits_ISO_8,4,5,80,127,1588659700
87,16,7,Jits_ISO_8,0,5,56,103,1589310004
87,16,7,Jits_ISO_8,1,5,80,127,1589313072
87,16,7,Jits_ISO_8,2,1,48,48,1589370688
87,16,7,Jits_ISO_8,3,1,48,27,1589420416
87,16,7,Jits_ISO_8,4,5,63,98,1589429580
87,16,7,Jits_ISO_8,0,1,48,48,1590170176
87,16,7,Jits_ISO_8,1,5,56,103,1590189308
87,16,7,Jits_ISO_8,2,1,48,29,1590219384
87,16,7,Jits_ISO_8,3,5,80,127,1590230420
87,16,7,Jits_ISO_8,4,5,63,98,1590239644
87,16,7,Jits_ISO_8,0,5,56,103,1590950288
87,16,7,Jits_ISO_8,1,5,80,127,1590969776
87,16,7,Jits_ISO_8,2,1,48,50,1590994320
87,16,7,Jits_ISO_8,3,5,63,98,1591049564
87,16,7,Jits_ISO_8,4,1,48,29,1591055660
87,16,7,Jits_ISO_8,0,5,80,127,1591740120
87,16,7,Jits_ISO_8,1,1,48,50,1591814268
87,16,7,Jits_ISO_8,2,5,56,103,1591839996
87,16,7,Jits_ISO_8,3,5,63,98,1591850488
87,16,7,Jits_ISO_8,0,5,63,98,1592509956
87,16,7,Jits_ISO_8,1,5,80,127,1592570276
87,16,7,Jits_ISO_8,2,5,56,103,1592579576
87,16,7,Jits_ISO_8,3,1,48,44,1592603896
87,16,7,Jits_ISO_8,0,5,56,103,1593309444
87,16,7,Jits_ISO_8,1,1,48,52,1593315704
87,16,7,Jits_ISO_8,2,1,48,30,1593365804
87,16,7,Jits_ISO_8,3,5,63,98,1593380144
87,16,7,Jits_ISO_8,4,5,80,127,1593383432
87,16,7,Jits_ISO_8,0,1,48,51,1594078704
87,16,7,Jits_ISO_8,1,1,48,33,1594125120
87,16,7,Jits_ISO_8,2,5,63,98,1594139992
87,16,7,Jits_ISO_8,3,5,56,103,1594190144
87,16,7,Jits_ISO_8,4,5,80,127,1594193136
87,16,7,Jits_ISO_8,0,1,48,51,1594884832
87,16,7,Jits_ISO_8,1,5,56,103,1594899848
87,16,7,Jits_ISO_8,2,5,80,127,1594902840
87,16,7,Jits_ISO_8,3,5,63,98,1594989992
87,16,7,Jits_ISO_8,0,1,48,48,1595678168
87,16,7,Jits_ISO_8,1,5,63,98,1595739428
87,16,7,Jits_ISO_8,2,5,56,103,1595829700
87,16,7,Jits_ISO_8,3,5,80,127,1595860272
87,16,7,Jits_ISO_8,0,5,56,103,1596530228
87,16,7,Jits_ISO_8,1,1,48,45,1596549244
87,16,7,Jits_ISO_8,2,5,63,98,1596630256
87,16,7,Jits_ISO_8,3,5,80,127,1596660060
87,16,7,Jits_ISO_8,0,5,63,98,1597350192
87,16,7,Jits_ISO_8,1,5,56,103,1597359416
87,16,7,Jits_ISO_8,2,1,48,49,1597404560
87,16,7,Jits_ISO_8,3,5,80,127,1597449764
87,16,7,Jits_ISO_8,0,1,48,48,1598153916
87,16,7,Jits_ISO_8,1,5,63,98,1598169308
87,16,7,Jits_ISO_8,2,5,56,103,1598250360
87,16,7,Jits_ISO_8,3,5,80,127,1598253500
87,16,7,Jits_ISO_8,0,5,80,127,1598930208
87,16,7,Jits_ISO_8,1,5,63,98,1598949992
87,16,7,Jits_ISO_8,2,1,48,51,1598956632
87,16,7,Jits_ISO_8,3,1,48,29,1599007176
87,16,7,Jits_ISO_8,4,5,56,103,1599010280
87,16,7,Jits_ISO_8,0,5,56,103,1599769940
87,16,7,Jits_ISO_8,1,1,48,54,1599777100
87,16,7,Jits_ISO_8,2,5,63,98,1599789420
87,16,7,Jits_ISO_8,3,5,80,127,1599792784
87,16,7,Jits_ISO_8,4,1,48,34,1599823632
87,16,7,Jits_ISO_8,0,5,63,98,1600510460
87,16,7,Jits_ISO_8,1,5,80,127,1600590136
87,16,7,Jits_ISO_8,2,5,56,103,1600600332
87,16,7,Jits_ISO_8,3,1,48,53,1600601744
87,16,7,Jits_ISO_8,0,5,63,98,1601329796
87,16,7,Jits_ISO_8,1,1,48,49,1601342060
87,16,7,Jits_ISO_8,2,5,56,103,1601350124
87,16,7,Jits_ISO_8,3,5,80,127,1601400104
87,16,7,Jits_ISO_8,0,5,80,127,1602130204
87,16,7,Jits_ISO_8,1,1,48,54,1602135788
87,16,7,Jits_ISO_8,2,5,63,98,1602170360
87,16,7,Jits_ISO_8,3,1,48,33,1602180140
87,16,7,Jits_ISO_8,4,5,56,103,1602189900
87,16,7,Jits_ISO_8,0,5,56,103,1602970008
87,16,7,Jits_ISO_8,1,5,63,98,1602980276
87,16,7,Jits_ISO_8,2,5,80,127,1602999912
87,16,7,Jits_ISO_8,3,1,48,48,1603005728
87,16,7,Jits_ISO_8,0,5,56,103,1603699976
87,16,7,Jits_ISO_8,1,5,63,98,1603790188
87,16,7,Jits_ISO_8,2,1,48,42,1603793308
87,16,7,Jits_ISO_8,3,5,80,127,1603849672
87,16,7,Jits_ISO_8,0,5,80,127,1604529668
87,16,7,Jits_ISO_8,1,5,56,103,1604539864
87,16,7,Jits_ISO_8,2,1,48,54,1604549884
87,16,7,Jits_ISO_8,3,5,63,98,1604610364
87,16,7,Jits_ISO_8,0,1,48,57,1605354152
87,16,7,Jits_ISO_8,1,5,63,98,1605359952
87,16,7,Jits_ISO_8,2,1,48,36,1605396312
87,16,7,Jits_ISO_8,3,5,80,127,1605450092
87,16,7,Jits_ISO_8,4,5,56,103,1605460288
87,16,7,Jits_ISO_8,0,5,63,98,1606100256
87,16,7,Jits_ISO_8,1,5,80,127,1606149712
87,16,7,Jits_ISO_8,2,5,56,103,1606209880
87,16,7,Jits_ISO_8,3,1,48,57,1606226052
87,16,7,Jits_ISO_8,4,1,48,36,1606268148
87,16,7,Jits_ISO_8,0,5,56,103,1606929632
87,16,7,Jits_ISO_8,1,1,48,54,1606962272
87,16,7,Jits_ISO_8,2,5,80,127,1606979852
87,16,7,Jits_ISO_8,3,5,63,98,1607000464
87,16,7,Jits_ISO_8,4,1,48,37,1607003732
87,16,7,Jits_ISO_8,0,5,56,103,1607699756
87,16,7,Jits_ISO_8,1,5,80,127,1607760248
87,16,7,Jits_ISO_8,2,1,48,51,1607767720
87,16,7,Jits_ISO_8,3,1,48,31,1607814884
87,16,7,Jits_ISO_8,4,5,63,98,1607829828
87,16,7,Jits_ISO_8,0,5,56,103,1608499548
87,16,7,Jits_ISO_8,1,5,80,127,1608530224
87,16,7,Jits_ISO_8,2,1,48,52,1608548332
87,16,7,Jits_ISO_8,3,5,63,98,1608559968
87,16,7,Jits_ISO_8,4,1,48,35,1608595876
87,16,7,Jits_ISO_8,0,5,56,103,1609340492
87,16,7,Jits_ISO_8,1,5,80,127,1609359684
87,16,7,Jits_ISO_8,2,1,48,48,1609379892
87,16,7,Jits_ISO_8,3,5,63,98,1609420364
87,16,7,Jits_ISO_8,0,1,48,53,1610172852
87,16,7,Jits_ISO_8,1,1,48,35,1610220512
87,16,7,Jits_ISO_8,2,5,80,127,1610221632
87,16,7,Jits_ISO_8,3,5,56,103,1610230108
87,16,7,Jits_ISO_8,4,5,63,98,1610240528
87,16,7,Jits_ISO_8,0,5,56,103,1610979644
87,16,7,Jits_ISO_8,1,5,80,127,1611019732
87,16,7,Jits_ISO_8,2,5,63,98,1611050676
87,16,7,Jits_ISO_8,3,1,48,54,1611082296
87,16,7,Jits_ISO_8,4,1,48,36,1611130220
87,16,7,Jits_ISO_8,0,5,56,103,1611749628
87,16,7,Jits_ISO_8,1,5,63,98,1611779604
87,16,7,Jits_ISO_8,2,5,80,127,1611820516
87,16,7,Jits_ISO_8,3,1,48,50,1611881572
87,16,7,Jits_ISO_8,0,5,80,127,1612500424
87,16,7,Jits_ISO_8,1,5,63,98,1612549432
87,16,7,Jits_ISO_8,2,5,56,103,1612570040
87,16,7,Jits_ISO_8,3,1,48,52,1612604920
87,16,7,Jits_ISO_8,4,1,48,31,1612655264
87,16,7,Jits_ISO_8,0,5,56,103,1613329816
87,16,7,Jits_ISO_8,1,1,48,52,1613361104
87,16,7,Jits_ISO_8,2,5,80,127,1613400416
87,16,7,Jits_ISO_8,3,1,48,35,1613412436
87,16,7,Jits_ISO_8,4,5,63,98,1613459960
87,16,7,Jits_ISO_8,0,5,80,127,1614129540
87,16,7,Jits_ISO_8,1,1,48,43,1614155232
87,16,7,Jits_ISO_8,2,5,63,98,1614219768
87,16,7,Jits_ISO_8,3,5,56,103,1614240080
87,16,7,Jits_ISO_8,0,1,48,44,1614935172
87,16,7,Jits_ISO_8,1,5,63,98,1614949740
87,16,7,Jits_ISO_8,2,5,56,103,1614970200
87,16,7,Jits_ISO_8,3,5,80,127,1615010064
87,16,7,Jits_ISO_8,0,5,80,127,1615709668
87,16,7,Jits_ISO_8,1,1,48,48,1615729528
87,16,7,Jits_ISO_8,2,5,63,98,1615731092
87,16,7,Jits_ISO_8,3,1,48,31,1615778408
87,16,7,Jits_ISO_8,4,5,56,103,1615809896
87,16,7,Jits_ISO_8,0,5,63,98,1616500092
87,16,7,Jits_ISO_8,1,1,48,43,1616529668
87,16,7,Jits_ISO_8,2,5,56,103,1616609632
87,16,7,Jits_ISO_8,3,5,80,127,1616612920
87,16,7,Jits_ISO_8,0,1,48,44,1617306196
87,16,7,Jits_ISO_8,1,5,63,98,1617320540
87,16,7,Jits_ISO_8,2,5,56,103,1617329468
87,16,7,Jits_ISO_8,3,5,80,127,1617332460
87,16,7,Jits_ISO_8,4,1,48,30,1617361192
87,16,7,Jits_ISO_8,0,5,56,103,1618099712
87,16,7,Jits_ISO_8,1,1,48,42,1618159552
87,16,7,Jits_ISO_8,2,5,80,127,1618220484
87,16,7,Jits_ISO_8,3,1,48,27,1618233104
87,16,7,Jits_ISO_8,4,5,63,98,1618260424
87,16,7,Jits_ISO_8,0,5,56,103,1618919664
87,16,7,Jits_ISO_8,1,1,48,45,1618990520
87,16,7,Jits_ISO_8,2,5,80,127,1618999532
87,16,7,Jits_ISO_8,3,5,63,98,1619020016
87,16,7,Jits_ISO_8,4,1,48,22,1619067684
87,16,7,Jits_ISO_8,0,5,56,103,1619719464
87,16,7,Jits_ISO_8,1,1,48,51,1619765508
87,16,7,Jits_ISO_8,2,5,63,98,1619830072
87,16,7,Jits_ISO_8,3,5,80,127,1619833584
87,16,7,Jits_ISO_8,4,1,48,35,1619845160
87,16,7,Jits_ISO_8,0,5,56,103,1620550000
87,16,7,Jits_ISO_8,1,5,80,127,1620579604
87,16,7,Jits_ISO_8,2,1,48,50,1620592688
87,16,7,Jits_ISO_8,3,5,63,98,1620600280
87,16,7,Jits_ISO_8,0,5,63,98,1621330392
87,16,7,Jits_ISO_8,1,5,56,103,1621339468
87,16,7,Jits_ISO_8,2,5,80,127,1621349664
87,16,7,Jits_ISO_8,3,1,48,48,1621395252
87,16,7,Jits_ISO_8,0,5,80,127,1622119832
87,16,7,Jits_ISO_8,1,5,56,103,1622169960
87,16,7,Jits_ISO_8,2,1,48,47,1622193980
87,16,7,Jits_ISO_8,3,5,63,98,1622209968
87,16,7,Jits_ISO_8,0,5,80,127,1622940004
87,16,7,Jits_ISO_8,1,5,63,98,1622959420
87,16,7,Jits_ISO_8,2,1,48,57,1622965828
87,16,7,Jits_ISO_8,3,5,56,103,1623009688
87,16,7,Jits_ISO_8,4,1,48,35,1623014284
87,16,7,Jits_ISO_8,0,5,80,127,1623750140
87,16,7,Jits_ISO_8,1,5,56,103,1623779596
87,16,7,Jits_ISO_8,2,1,48,53,1623848956
87,16,7,Jits_ISO_8,3,5,63,98,1623850536
87,16,7,Jits_ISO_8,0,5,56,103,1624599844
87,16,7,Jits_ISO_8,1,5,80,127,1624610264
87,16,7,Jits_ISO_8,2,1,48,53,1624620656
87,16,7,Jits_ISO_8,3,5,63,98,1624650220
87,16,7,Jits_ISO_8,4,1,48,34,1624669136
87,16,7,Jits_ISO_8,0,5,56,103,1625309440
87,16,7,Jits_ISO_8,1,5,63,98,1625330124
87,16,7,Jits_ISO_8,2,5,80,127,1625399580
87,16,7,Jits_ISO_8,3,1,48,50,1625463852
87,16,7,Jits_ISO_8,4,1,48,27,1625529308
87,16,7,Jits_ISO_8,0,5,63,98,1626129760
87,16,7,Jits_ISO_8,1,5,80,127,1626190400
87,16,7,Jits_ISO_8,2,1,48,51,1626206552
87,16,7,Jits_ISO_8,3,5,56,103,1626209660
87,16,7,Jits_ISO_8,0,5,80,127,1626920324
87,16,7,Jits_ISO_8,1,5,56,103,1626950028
87,16,7,Jits_ISO_8,2,5,63,98,1626979704
87,16,7,Jits_ISO_8,3,1,48,49,1627003644
87,16,7,Jits_ISO_8,0,5,56,103,1627719996
87,16,7,Jits_ISO_8,1,1,48,49,1627773988
87,16,7,Jits_ISO_8,2,5,63,98,1627779336
87,16,7,Jits_ISO_8,3,5,80,127,1627839800
87,16,7,Jits_ISO_8,0,1,48,54,1628513164
87,16,7,Jits_ISO_8,1,5,80,127,1628540240
87,16,7,Jits_ISO_8,2,5,56,103,1628559580
87,16,7,Jits_ISO_8,3,5,63,98,1628630372
87,16,7,Jits_ISO_8,0,5,80,127,1629340108
87,16,7,Jits_ISO_8,1,5,63,98,1629359448
87,16,7,Jits_ISO_8,2,1,48,50,1629363316
87,16,7,Jits_ISO_8,3,5,56,103,1629390460
87,16,7,Jits_ISO_8,0,5,80,127,1630129640
87,16,7,Jits_ISO_8,1,1,48,50,1630140636
87,16,7,Jits_ISO_8,2,5,63,98,1630150020
87,16,7,Jits_ISO_8,3,5,56,103,1630210484
87,16,7,Jits_ISO_8,0,5,80,127,1630930260
87,16,7,Jits_ISO_8,1,1,48,50,1630962672
87,16,7,Jits_ISO_8,2,5,56,103,1631029756
87,16,7,Jits_ISO_8,3,5,63,98,1631060268
87,16,7,Jits_ISO_8,0,5,63,98,1631719876
87,16,7,Jits_ISO_8,1,5,80,127,1631770380
87,16,7,Jits_ISO_8,2,1,48,52,1631789124
87,16,7,Jits_ISO_8,3,5,56,103,1631790536
87,16,7,Jits_ISO_8,0,5,80,127,1632559448
87,16,7,Jits_ISO_8,1,1,48,46,1632569088
87,16,7,Jits_ISO_8,2,5,56,103,1632590188
87,16,7,Jits_ISO_8,3,5,63,98,1632593404
87,16,7,Jits_ISO_8,0,1,48,53,1633367404
87,16,7,Jits_ISO_8,1,5,63,98,1633389900
87,16,7,Jits_ISO_8,2,5,56,103,1633429840
87,16,7,Jits_ISO_8,3,5,80,127,1633450296
87,16,7,Jits_ISO_8,0,5,80,127,1634130280
87,16,7,Jits_ISO_8,1,1,48,53,1634195508
87,16,7,Jits_ISO_8,2,5,63,98,1634210296
87,16,7,Jits_ISO_8,3,5,56,103,1634250084
87,16,7,Jits_ISO_8,0,5,63,98,1634949412
87,16,7,Jits_ISO_8,1,1,48,51,1635015984
87,16,7,Jits_ISO_8,2,5,80,127,1635030328
87,16,7,Jits_ISO_8,3,5,56,103,1635049964
87,16,7,Jits_ISO_8,0,5,56,103,1635790188
87,16,7,Jits_ISO_8,1,5,63,98,1635800384
87,16,7,Jits_ISO_8,2,5,80,127,1635840324
87,16,7,Jits_ISO_8,3,1,48,52,1635848164
87,16,7,Jits_ISO_8,0,5,56,103,1636510264
87,16,7,Jits_ISO_8,1,5,80,127,1636513184
87,16,7,Jits_ISO_8,2,1,48,49,1636634676
87,16,7,Jits_ISO_8,3,5,63,98,1636650512
87,16,7,Jits_ISO_8,0,5,56,103,1637299644
87,16,7,Jits_ISO_8,1,5,63,98,1637389704
87,16,7,Jits_ISO_8,2,1,48,49,1637419352
87,16,7,Jits_ISO_8,3,5,80,127,1637460300
87,16,7,Jits_ISO_8,0,5,63,98,1638180136
87,16,7,Jits_ISO_8,1,5,80,127,1638183500
87,16,7,Jits_ISO_8,2,1,48,37,1638191424
87,16,7,Jits_ISO_8,3,5,56,103,1638239720
87,16,7,Jits_ISO_8,0,1,48,48,1638998644
87,16,7,Jits_ISO_8,1,5,80,127,1639020092
87,16,7,Jits_ISO_8,2,5,56,103,1639040404
87,16,7,Jits_ISO_8,3,5,63,98,1639049552
87,16,7,Jits_ISO_8,0,5,56,103,1639729432
87,16,7,Jits_ISO_8,1,5,63,98,1639739704
87,16,7,Jits_ISO_8,2,1,48,51,1639801732
87,16,7,Jits_ISO_8,3,5,80,127,1639810376
87,16,7,Jits_ISO_8,0,5,80,127,1640530296
87,16,7,Jits_ISO_8,1,5,56,103,1640579308
87,16,7,Jits_ISO_8,2,5,63,98,1640629656
87,16,7,Jits_ISO_8,3,1,48,43,1640672104
87,16,7,Jits_ISO_8,0,1,48,51,1641352088
87,16,7,Jits_ISO_8,1,5,56,103,1641410180
87,16,7,Jits_ISO_8,2,5,63,98,1641420228
87,16,7,Jits_ISO_8,3,5,80,127,1641460224
87,16,7,Jits_ISO_8,0,1,48,53,1642042012
87,16,7,Jits_ISO_8,1,5,56,103,1642150244
87,16,7,Jits_ISO_8,2,5,63,98,1642190184
87,16,7,Jits_ISO_8,3,5,80,127,1642240312
87,16,7,Jits_ISO_8,0,1,48,55,1642846908
87,16,7,Jits_ISO_8,1,1,48,32,1642893268
87,16,7,Jits_ISO_8,2,5,80,127,1642910156
87,16,7,Jits_ISO_8,3,5,56,103,1642960360
87,16,7,Jits_ISO_8,4,5,63,98,1642979628
87,16,7,Jits_ISO_8,0,1,48,55,1643683036
87,16,7,Jits_ISO_8,1,5,80,127,1643720220
87,16,7,Jits_ISO_8,2,5,63,98,1643779332
87,16,7,Jits_ISO_8,3,5,56,103,1643860420
87,16,7,Jits_ISO_8,0,5,80,127,1644500308
87,16,7,Jits_ISO_8,1,1,48,48,1644513240
87,16,7,Jits_ISO_8,2,5,56,103,1644540240
87,16,7,Jits_ISO_8,3,5,63,98,1644559580
87,16,7,Jits_ISO_8,0,5,56,103,1645350376
87,16,7,Jits_ISO_8,1,5,80,127,1645359524
87,16,7,Jits_ISO_8,2,1,48,51,1645367896
87,16,7,Jits_ISO_8,3,5,63,98,1645400304
87,16,7,Jits_ISO_8,0,1,48,53,1646156824
87,16,7,Jits_ISO_8,1,5,56,103,1646219572
87,16,7,Jits_ISO_8,2,5,63,98,1646259568
87,16,7,Jits_ISO_8,3,5,80,127,1646263008
87,16,7,Jits_ISO_8,0,5,63,98,1646910016
87,16,7,Jits_ISO_8,1,5,80,127,1646949836
87,16,7,Jits_ISO_8,2,1,48,51,1646984188
87,16,7,Jits_ISO_8,3,5,56,103,1647020332
87,16,7,Jits_ISO_8,0,5,63,98,1647700308
87,16,7,Jits_ISO_8,1,5,56,103,1647780256
87,16,7,Jits_ISO_8,2,1,48,54,1647787728
87,16,7,Jits_ISO_8,3,5,80,127,1647839592
87,16,7,Jits_ISO_8,0,5,80,127,1648510204
87,16,7,Jits_ISO_8,1,1,48,57,1648514820
87,16,7,Jits_ISO_8,2,5,63,98,1648559508
87,16,7,Jits_ISO_8,3,5,56,103,1648590084
87,16,7,Jits_ISO_8,0,5,56,103,1649300036
87,16,7,Jits_ISO_8,1,1,48,57,1649310504
87,16,7,Jits_ISO_8,2,5,63,98,1649350160
87,16,7,Jits_ISO_8,3,5,80,127,1649360356
87,16,7,Jits_ISO_8,0,1,48,55,1650059564
87,16,7,Jits_ISO_8,1,5,56,103,1650110084
87,16,7,Jits_ISO_8,2,1,48,25,1650118368
87,16,7,Jits_ISO_8,3,5,63,98,1650220268
87,16,7,Jits_ISO_8,4,5,80,127,1650240124
87,16,7,Jits_ISO_8,0,5,63,98,1650909504
87,16,7,Jits_ISO_8,1,5,80,127,1650959856
87,16,7,Jits_ISO_8,2,1,48,50,1650975556
87,16,7,Jits_ISO_8,3,5,56,103,1651050008
87,16,7,Jits_ISO_8,0,5,63,98,1651700068
87,16,7,Jits_ISO_8,1,5,80,127,1651729968
87,16,7,Jits_ISO_8,2,1,48,46,1651760960
87,16,7,Jits_ISO_8,3,5,56,103,1651819972
87,16,7,Jits_ISO_8,0,5,63,98,1652499920
87,16,7,Jits_ISO_8,1,5,56,103,1652510040
87,16,7,Jits_ISO_8,2,1,48,54,1652552444
87,16,7,Jits_ISO_8,3,5,80,127,1652610384
87,16,7,Jits_ISO_8,0,1,48,59,1653371996
87,16,7,Jits_ISO_8,1,5,63,98,1653399964
87,16,7,Jits_ISO_8,2,1,48,34,1653413704
87,16,7,Jits_ISO_8,3,5,80,127,1653429768
87,16,7,Jits_ISO_8,4,5,56,103,1653460268
87,16,7,Jits_ISO_8,0,1,48,56,1654172380
87,16,7,Jits_ISO_8,1,5,80,127,1654220136
87,16,7,Jits_ISO_8,2,5,63,98,1654230260
87,16,7,Jits_ISO_8,3,5,56,103,1654260008
87,16,7,Jits_ISO_8,0,5,80,127,1654919612
87,16,7,Jits_ISO_8,1,5,63,98,1654939996
87,16,7,Jits_ISO_8,2,1,48,59,1654975776
87,16,7,Jits_ISO_8,3,5,56,103,1654990044
87,16,7,Jits_ISO_8,0,5,63,98,1655750048
87,16,7,Jits_ISO_8,1,1,48,53,1655755260
87,16,7,Jits_ISO_8,2,5,80,127,1655810584
87,16,7,Jits_ISO_8,3,5,56,103,1655829920
87,16,7,Jits_ISO_8,0,5,63,98,1656509824
87,16,7,Jits_ISO_8,1,5,56,103,1656559880
87,16,7,Jits_ISO_8,2,5,80,127,1656570076
87,16,7,Jits_ISO_8,3,1,48,57,1656584804
87,16,7,Jits_ISO_8,0,5,56,103,1657340248
87,16,7,Jits_ISO_8,1,5,80,127,1657349548
87,16,7,Jits_ISO_8,2,1,48,51,1657382856
87,16,7,Jits_ISO_8,3,5,63,98,1657449812
87,16,7,Jits_ISO_8,0,5,80,127,1658100188
87,16,7,Jits_ISO_8,1,5,63,98,1658110236
87,16,7,Jits_ISO_8,2,1,48,52,1658185820
87,16,7,Jits_ISO_8,3,5,56,103,1658259868
87,16,7,Jits_ISO_8,0,5,63,98,1658910020
87,16,7,Jits_ISO_8,1,5,80,127,1658949912
87,16,7,Jits_ISO_8,2,1,48,56,1658972584
87,16,7,Jits_ISO_8,3,5,56,103,1659029924
87,16,7,Jits_ISO_8,0,5,56,103,1659699612
87,16,7,Jits_ISO_8,1,1,48,63,1659782096
87,16,7,Jits_ISO_8,2,5,80,127,1659799956
87,16,7,Jits_ISO_8,3,5,63,98,1659820344
87,16,7,Jits_ISO_8,4,1,48,38,1659826440
87,16,7,Jits_ISO_8,0,5,80,127,1660559896
87,16,7,Jits_ISO_8,1,5,56,103,1660569868
87,16,7,Jits_ISO_8,2,1,48,54,1660600340
87,16,7,Jits_ISO_8,3,5,63,98,1660660144
87,16,7,Jits_ISO_8,0,5,56,103,1661359696
87,16,7,Jits_ISO_8,1,1,48,60,1661378420
87,16,7,Jits_ISO_8,2,5,63,98,1661379928
87,16,7,Jits_ISO_8,3,1,48,36,1661428064
87,16,7,Jits_ISO_8,4,5,80,127,1661459920
87,16,7,Jits_ISO_8,0,5,63,98,1662110192
87,16,7,Jits_ISO_8,1,5,56,103,1662200108
87,16,7,Jits_ISO_8,2,5,80,127,1662203320
87,16,7,Jits_ISO_8,3,1,48,55,1662218592
87,16,7,Jits_ISO_8,0,5,56,103,1662939788
87,16,7,Jits_ISO_8,1,5,80,127,1662999884
87,16,7,Jits_ISO_8,2,1,48,49,1663006216
87,16,7,Jits_ISO_8,3,5,63,98,1663010072
87,16,7,Jits_ISO_8,0,5,80,127,1663789564
87,16,7,Jits_ISO_8,1,5,56,103,1663799756
87,16,7,Jits_ISO_8,2,5,63,98,1663802824
87,16,7,Jits_ISO_8,3,1,48,53,1663829428
87,16,7,Jits_ISO_8,0,5,56,103,1664550172
87,16,7,Jits_ISO_8,1,5,80,127,1664559768
87,16,7,Jits_ISO_8,2,5,63,98,1664579880
87,16,7,Jits_ISO_8,3,1,48,42,1664653492
87,16,7,Jits_ISO_8,0,5,63,98,1665320444
87,16,7,Jits_ISO_8,1,5,80,127,1665379816
87,16,7,Jits_ISO_8,2,1,48,51,1665383612
87,16,7,Jits_ISO_8,3,5,56,103,1665429788
87,16,7,Jits_ISO_8,0,1,48,52,1666182484
87,16,7,Jits_ISO_8,1,5,63,98,1666199964
87,16,7,Jits_ISO_8,2,5,56,103,1666210164
87,16,7,Jits_ISO_8,3,5,80,127,1666260216
87,16,7,Jits_ISO_8,0,5,63,98,1666900188
87,16,7,Jits_ISO_8,1,5,80,127,1666919900
87,16,7,Jits_ISO_8,2,5,56,103,1666930020
87,16,7,Jits_ISO_8,3,1,48,49,1666948804
87,16,7,Jits_ISO_8,0,5,63,98,1667700036
87,16,7,Jits_ISO_8,1,5,80,127,1667703400
87,16,7,Jits_ISO_8,2,1,48,48,1667705264
87,16,7,Jits_ISO_8,3,5,56,103,1667739968
87,16,7,Jits_ISO_8,0,1,48,44,1668427604
87,16,7,Jits_ISO_8,1,5,63,98,1668569832
87,16,7,Jits_ISO_8,2,5,80,127,1668600036
87,16,7,Jits_ISO_8,3,5,56,103,1668610456
87,16,7,Jits_ISO_8,0,1,48,45,1669270184
87,16,7,Jits_ISO_8,1,5,56,103,1669320036
87,16,7,Jits_ISO_8,2,5,80,127,1669349712
87,16,7,Jits_ISO_8,3,5,63,98,1669379668
87,16,7,Jits_ISO_8,0,1,48,43,1670079560
87,16,7,Jits_ISO_8,1,5,63,98,1670220148
87,16,7,Jits_ISO_8,2,5,56,103,1670259932
87,16,7,Jits_ISO_8,3,5,80,127,1670263004
87,16,7,Jits_ISO_8,0,5,80,127,1670919456
87,16,7,Jits_ISO_8,1,1,48,51,1670992280
87,16,7,Jits_ISO_8,2,5,56,103,1671000472
87,16,7,Jits_ISO_8,3,5,63,98,1671049624
87,16,7,Jits_ISO_8,0,5,80,127,1671699704
87,16,7,Jits_ISO_8,1,5,56,103,1671720756
87,16,7,Jits_ISO_8,2,5,63,98,1671810396
87,16,7,Jits_ISO_8,3,1,48,52,1671847968
87,16,7,Jits_ISO_8,0,1,48,51,1672515508
87,16,7,Jits_ISO_8,1,5,80,127,1672539596
87,16,7,Jits_ISO_8,2,1,48,27,1672571176
87,16,7,Jits_ISO_8,3,5,63,98,1672579664
87,16,7,Jits_ISO_8,4,5,56,103,1672620576
87,16,7,Jits_ISO_8,0,1,48,43,1673295440
87,16,7,Jits_ISO_8,1,5,63,98,1673309484
87,16,7,Jits_ISO_8,2,5,80,127,1673369880
87,16,7,Jits_ISO_8,3,5,56,103,1673399688
87,16,7,Jits_ISO_8,0,1,48,44,1674004240
87,16,7,Jits_ISO_8,1,5,56,103,1674110672
87,16,7,Jits_ISO_8,2,5,80,127,1674140124
87,16,7,Jits_ISO_8,3,5,63,98,1674230404
87,16,7,Jits_ISO_8,0,1,48,48,1674861220
87,16,7,Jits_ISO_8,1,5,56,103,1674920580
87,16,7,Jits_ISO_8,2,5,80,127,1675029888
87,16,7,Jits_ISO_8,3,5,63,98,1675059564
87,16,7,Jits_ISO_8,0,5,56,103,1675770280
87,16,7,Jits_ISO_8,1,1,48,41,1675801800
87,16,7,Jits_ISO_8,2,5,63,98,1675829548
87,16,7,Jits_ISO_8,3,5,80,127,1675860516
87,16,7,Jits_ISO_8,0,5,56,103,1676540564
87,16,7,Jits_ISO_8,1,5,63,98,1676609976
87,16,7,Jits_ISO_8,2,5,80,127,1676630512
87,16,7,Jits_ISO_8,3,1,48,48,1676647948
87,16,7,Jits_ISO_8,0,5,80,127,1677310396
87,16,7,Jits_ISO_8,1,5,63,98,1677329812
87,16,7,Jits_ISO_8,2,5,56,103,1677379888
87,16,7,Jits_ISO_8,3,1,48,51,1677409536
87,16,7,Jits_ISO_8,0,9999,9999,9999,1582577728
87,16,7,Jits_ISO_8,1,9999,9999,9999,1583377460
87,16,7,Jits_ISO_8,2,9999,9999,9999,1584177264
87,16,7,Jits_ISO_8,3,9999,9999,9999,1584977984
87,16,7,Jits_ISO_8,4,9999,9999,9999,1585777756
87,16,7,Jits_ISO_8,5,9999,9999,9999,1586577492
87,16,7,Jits_ISO_8,6,9999,9999,9999,1587377216
87,16,7,Jits_ISO_8,7,9999,9999,9999,1588177992
87,16,7,Jits_ISO_8,8,9999,9999,9999,1588977756
87,16,7,Jits_ISO_8,9,9999,9999,9999,1589777524
87,16,7,Jits_ISO_8,10,9999,9999,9999,1590577252
87,16,7,Jits_ISO_8,11,9999,9999,9999,1591378036
87,16,7,Jits_ISO_8,12,9999,9999,9999,1592177788
87,16,7,Jits_ISO_8,13,9999,9999,9999,1592977508
87,16,7,Jits_ISO_8,14,9999,9999,9999,1593777260
87,16,7,Jits_ISO_8,15,9999,9999,9999,1594578020
87,16,7,Jits_ISO_8,16,9999,9999,9999,1595377732
87,16,7,Jits_ISO_8,17,9999,9999,9999,1596177520
87,16,7,Jits_ISO_8,18,9999,9999,9999,1596977232
87,16,7,Jits_ISO_8,19,9999,9999,9999,1597778036
87,16,7,Jits_ISO_8,20,9999,9999,9999,1598577744
87,16,7,Jits_ISO_8,21,9999,9999,9999,1599377508
87,16,7,Jits_ISO_8,22,9999,9999,9999,1600177224
87,16,7,Jits_ISO_8,23,9999,9999,9999,1600978012
87,16,7,Jits_ISO_8,24,9999,9999,9999,1601777716
87,16,7,Jits_ISO_8,25,9999,9999,9999,1602577476
87,16,7,Jits_ISO_8,26,9999,9999,9999,1603377220
87,16,7,Jits_ISO_8,27,9999,9999,9999,1604178016
87,16,7,Jits_ISO_8,28,9999,9999,9999,1604977740
87,16,7,Jits_ISO_8,29,9999,9999,9999,1605777520
87,16,7,Jits_ISO_8,30,9999,9999,9999,1606577224
87,16,7,Jits_ISO_8,31,9999,9999,9999,1607377976
87,16,7,Jits_ISO_8,32,9999,9999,9999,1608177772
87,16,7,Jits_ISO_8,33,9999,9999,9999,1608977484
87,16,7,Jits_ISO_8,34,9999,9999,9999,1609777228
87,16,7,Jits_ISO_8,35,9999,9999,9999,1610578012
87,16,7,Jits_ISO_8,36,9999,9999,9999,1611377724
87,16,7,Jits_ISO_8,37,9999,9999,9999,1612177468
87,16,7,Jits_ISO_8,38,9999,9999,9999,1612977244
87,16,7,Jits_ISO_8,39,9999,9999,9999,1613778016
87,16,7,Jits_ISO_8,40,9999,9999,9999,1614577764
87,16,7,Jits_ISO_8,41,9999,9999,9999,1615377488
87,16,7,Jits_ISO_8,42,9999,9999,9999,1616177244
87,16,7,Jits_ISO_8,43,9999,9999,9999,1616977976
87,16,7,Jits_ISO_8,44,9999,9999,9999,1617777724
87,16,7,Jits_ISO_8,45,9999,9999,9999,1618577512
87,16,7,Jits_ISO_8,46,9999,9999,9999,1619377232
87,16,7,Jits_ISO_8,47,9999,9999,9999,1620177996
87,16,7,Jits_ISO_8,48,9999,9999,9999,1620977740
87,16,7,Jits_ISO_8,49,9999,9999,9999,1621777460
87,16,7,Jits_ISO_8,50,9999,9999,9999,1622577244
87,16,7,Jits_ISO_8,51,9999,9999,9999,1623378012
87,16,7,Jits_ISO_8,52,9999,9999,9999,1624177760
87,16,7,Jits_ISO_8,53,9999,9999,9999,1624977472
87,16,7,Jits_ISO_8,54,9999,9999,9999,1625777264
87,16,7,Jits_ISO_8,55,9999,9999,9999,1626577980
87,16,7,Jits_ISO_8,56,9999,9999,9999,1627377760
87,16,7,Jits_ISO_8,57,9999,9999,9999,1628177484
87,16,7,Jits_ISO_8,58,9999,9999,9999,1628977208
87,16,7,Jits_ISO_8,59,9999,9999,9999,1629777988
87,16,7,Jits_ISO_8,60,9999,9999,9999,1630577784
87,16,7,Jits_ISO_8,61,9999,9999,9999,1631377516
87,16,7,Jits_ISO_8,62,9999,9999,9999,1632177240
87,16,7,Jits_ISO_8,63,9999,9999,9999,1632977988
87,16,7,Jits_ISO_8,64,9999,9999,9999,1633777716
87,16,7,Jits_ISO_8,65,9999,9999,9999,1634577504
87,16,7,Jits_ISO_8,66,9999,9999,9999,1635377236
87,16,7,Jits_ISO_8,67,9999,9999,9999,1636178024
87,16,7,Jits_ISO_8,68,9999,9999,9999,1636977732
87,16,7,Jits_ISO_8,69,9999,9999,9999,1637777460
87,16,7,Jits_ISO_8,70,9999,9999,9999,1638577252
87,16,7,Jits_ISO_8,71,9999,9999,9999,1639378020
87,16,7,Jits_ISO_8,72,9999,9999,9999,1640177724
87,16,7,Jits_ISO_8,73,9999,9999,9999,1640977520
87,16,7,Jits_ISO_8,74,9999,9999,9999,1641777252
87,16,7,Jits_ISO_8,75,9999,9999,9999,1642578032
87,16,7,Jits_ISO_8,76,9999,9999,9999,1643377716
87,16,7,Jits_ISO_8,77,9999,9999,9999,1644177520
87,16,7,Jits_ISO_8,78,9999,9999,9999,1644977220
87,16,7,Jits_ISO_8,79,9999,9999,9999,1645777988
87,16,7,Jits_ISO_8,80,9999,9999,9999,1646577788
87,16,7,Jits_ISO_8,81,9999,9999,9999,1647377492
87,16,7,Jits_ISO_8,82,9999,9999,9999,1648177200
87,16,7,Jits_ISO_8,83,9999,9999,9999,1648977980
87,16,7,Jits_ISO_8,84,9999,9999,9999,1649777776
87,16,7,Jits_ISO_8,85,9999,9999,9999,1650577476
87,16,7,Jits_ISO_8,86,9999,9999,9999,1651377204
87,16,7,Jits_ISO_8,87,9999,9999,9999,1652178032
87,16,7,Jits_ISO_8,88,9999,9999,9999,1652977732
87,16,7,Jits_ISO_8,89,9999,9999,9999,1653777500
87,16,7,Jits_ISO_8,90,9999,9999,9999,1654577240
87,16,7,Jits_ISO_8,91,9999,9999,9999,1655378016
87,16,7,Jits_ISO_8,92,9999,9999,9999,1656177744
87,16,7,Jits_ISO_8,93,9999,9999,9999,1656977524
87,16,7,Jits_ISO_8,94,9999,9999,9999,1657777232
87,16,7,Jits_ISO_8,95,9999,9999,9999,1658578000
87,16,7,Jits_ISO_8,96,9999,9999,9999,1659377720
87,16,7,Jits_ISO_8,97,9999,9999,9999,1660177484
87,16,7,Jits_ISO_8,98,9999,9999,9999,1660977228
87,16,7,Jits_ISO_8,99,9999,9999,9999,1661778004
87,16,7,Jits_ISO_8,100,9999,9999,9999,1662577736
87,16,7,Jits_ISO_8,101,9999,9999,9999,1663377520
87,16,7,Jits_ISO_8,102,9999,9999,9999,1664177240
87,16,7,Jits_ISO_8,103,9999,9999,9999,1664978008
87,16,7,Jits_ISO_8,104,9999,9999,9999,1665777732
87,16,7,Jits_ISO_8,105,9999,9999,9999,1666577524
87,16,7,Jits_ISO_8,106,9999,9999,9999,1667377224
87,16,7,Jits_ISO_8,107,9999,9999,9999,1668177984
87,16,7,Jits_ISO_8,108,9999,9999,9999,1668977772
87,16,7,Jits_ISO_8,109,9999,9999,9999,1669777476
87,16,7,Jits_ISO_8,110,9999,9999,9999,1670577260
87,16,7,Jits_ISO_8,111,9999,9999,9999,1671378016
87,16,7,Jits_ISO_8,112,9999,9999,9999,1672177740
87,16,7,Jits_ISO_8,113,9999,9999,9999,1672977516
87,16,7,Jits_ISO_8,114,9999,9999,9999,1673777244
87,16,7,Jits_ISO_8,115,9999,9999,9999,1674578020
87,16,7,Jits_ISO_8,116,9999,9999,9999,1675377736
87,16,7,Jits_ISO_8,117,9999,9999,9999,1676177524
87,16,7,Jits_ISO_8,118,9999,9999,9999,1676977252
87,16,7,Jits_ISO_8,119,9999,9999,9999,1677778020
87,17,16,Jits_ISO_5,0,5,56,103,1687244248
87,17,16,Jits_ISO_5,1,5,63,98,1687247420
87,17,16,Jits_ISO_5,2,5,80,127,1687250464
87,17,16,Jits_ISO_5,0,5,56,103,1687743964
87,17,16,Jits_ISO_5,1,5,63,98,1687747216
87,17,16,Jits_ISO_5,2,5,80,127,1687750260
87,17,16,Jits_ISO_5,3,1,48,51,1687892380
87,17,16,Jits_ISO_5,0,5,56,103,1688243564
87,17,16,Jits_ISO_5,1,5,80,127,1688253684
87,17,16,Jits_ISO_5,2,5,63,98,1688274440
87,17,16,Jits_ISO_5,3,1,48,40,1688307372
87,17,16,Jits_ISO_5,0,5,63,98,1688694160
87,17,16,Jits_ISO_5,1,5,80,127,1688724132
87,17,16,Jits_ISO_5,2,5,56,103,1688734476
87,17,16,Jits_ISO_5,3,1,48,51,1688804424
87,17,16,Jits_ISO_5,0,1,48,47,1689248392
87,17,16,Jits_ISO_5,1,5,80,127,1689254192
87,17,16,Jits_ISO_5,2,5,56,103,1689263416
87,17,16,Jits_ISO_5,3,5,63,98,1689294360
87,17,16,Jits_ISO_5,0,5,63,98,1689743672
87,17,16,Jits_ISO_5,1,1,48,51,1689763356
87,17,16,Jits_ISO_5,2,5,56,103,1689773340
87,17,16,Jits_ISO_5,3,5,80,127,1689783612
87,17,16,Jits_ISO_5,0,5,56,103,1690194408
87,17,16,Jits_ISO_5,1,5,63,98,1690243340
87,17,16,Jits_ISO_5,2,5,80,127,1690264020
87,17,16,Jits_ISO_5,3,1,48,45,1690269232
87,17,16,Jits_ISO_5,0,5,80,127,1690694076
87,17,16,Jits_ISO_5,1,5,63,98,1690744128
87,17,16,Jits_ISO_5,2,1,48,40,1690768816
87,17,16,Jits_ISO_5,3,5,56,103,1690784280
87,17,16,Jits_ISO_5,0,5,56,103,1691193576
87,17,16,Jits_ISO_5,1,5,63,98,1691224544
87,17,16,Jits_ISO_5,2,1,48,48,1691254708
87,17,16,Jits_ISO_5,3,5,80,127,1691294360
87,17,16,Jits_ISO_5,0,5,56,103,1691693320
87,17,16,Jits_ISO_5,1,1,48,45,1691723288
87,17,16,Jits_ISO_5,2,5,80,127,1691753952
87,17,16,Jits_ISO_5,3,5,63,98,1691783628
87,17,16,Jits_ISO_5,0,1,48,46,1692195880
87,17,16,Jits_ISO_5,1,5,56,103,1692204520
87,17,16,Jits_ISO_5,2,5,63,98,1692213520
87,17,16,Jits_ISO_5,3,5,80,127,1692253556
87,17,16,Jits_ISO_5,0,5,63,98,1692694064
87,17,16,Jits_ISO_5,1,1,48,48,1692700852
87,17,16,Jits_ISO_5,2,5,80,127,1692773728
87,17,16,Jits_ISO_5,3,5,56,103,1692784368
87,17,16,Jits_ISO_5,0,1,48,49,1693229496
87,17,16,Jits_ISO_5,1,5,63,98,1693243688
87,17,16,Jits_ISO_5,2,5,56,103,1693283652
87,17,16,Jits_ISO_5,3,5,80,127,1693287016
87,17,16,Jits_ISO_5,0,5,56,103,1693703640
87,17,16,Jits_ISO_5,1,5,63,98,1693713988
87,17,16,Jits_ISO_5,2,1,48,44,1693729164
87,17,16,Jits_ISO_5,3,5,80,127,1693753620
87,17,16,Jits_ISO_5,0,5,56,103,1694194168
87,17,16,Jits_ISO_5,1,5,63,98,1694197384
87,17,16,Jits_ISO_5,2,1,48,40,1694202684
87,17,16,Jits_ISO_5,3,5,80,127,1694213572
87,17,16,Jits_ISO_5,0,1,48,44,1694678432
87,17,16,Jits_ISO_5,1,5,80,127,1694704084
87,17,16,Jits_ISO_5,2,5,56,103,1694714428
87,17,16,Jits_ISO_5,3,5,63,98,1694784040
87,17,16,Jits_ISO_5,0,5,63,98,1695193412
87,17,16,Jits_ISO_5,1,5,56,103,1695214092
87,17,16,Jits_ISO_5,2,1,48,45,1695215060
87,17,16,Jits_ISO_5,3,5,80,127,1695294100
87,17,16,Jits_ISO_5,0,1,48,37,1695684320
87,17,16,Jits_ISO_5,1,5,56,103,1695704420
87,17,16,Jits_ISO_5,2,5,80,127,1695744436
87,17,16,Jits_ISO_5,3,5,63,98,1695753508
87,17,16,Jits_ISO_5,0,1,48,44,1696190860
87,17,16,Jits_ISO_5,1,5,80,127,1696194040
87,17,16,Jits_ISO_5,2,5,63,98,1696223640
87,17,16,Jits_ISO_5,3,5,56,103,1696263428
87,17,16,Jits_ISO_5,0,1,48,42,1696679352
87,17,16,Jits_ISO_5,1,5,56,103,1696714000
87,17,16,Jits_ISO_5,2,5,63,98,1696743676
87,17,16,Jits_ISO_5,3,5,80,127,1696794232
87,17,16,Jits_ISO_5,0,1,48,38,1697179688
87,17,16,Jits_ISO_5,1,5,80,127,1697213732
87,17,16,Jits_ISO_5,2,5,56,103,1697253596
87,17,16,Jits_ISO_5,3,5,63,98,1697263940
87,17,16,Jits_ISO_5,0,5,80,127,1697694144
87,17,16,Jits_ISO_5,1,1,48,46,1697723416
87,17,16,Jits_ISO_5,2,5,63,98,1697734224
87,17,16,Jits_ISO_5,3,5,56,103,1697794388
87,17,16,Jits_ISO_5,0,5,56,103,1698193892
87,17,16,Jits_ISO_5,1,5,80,127,1698204012
87,17,16,Jits_ISO_5,2,1,48,45,1698206676
87,17,16,Jits_ISO_5,3,5,63,98,1698284020
87,17,16,Jits_ISO_5,0,1,48,42,1698682668
87,17,16,Jits_ISO_5,1,5,80,127,1698693628
87,17,16,Jits_ISO_5,2,5,63,98,1698754016
87,17,16,Jits_ISO_5,3,5,56,103,1698783528
87,17,16,Jits_ISO_5,0,1,48,46,1699179768
87,17,16,Jits_ISO_5,1,5,56,103,1699194108
87,17,16,Jits_ISO_5,2,5,80,127,1699253748
87,17,16,Jits_ISO_5,3,5,63,98,1699293892
87,17,16,Jits_ISO_5,0,1,48,45,1699693744
87,17,16,Jits_ISO_5,1,5,56,103,1699744040
87,17,16,Jits_ISO_5,2,5,63,98,1699754380
87,17,16,Jits_ISO_5,3,5,80,127,1699757744
87,17,16,Jits_ISO_5,0,1,48,47,1700190536
87,17,16,Jits_ISO_5,1,5,80,127,1700193788
87,17,16,Jits_ISO_5,2,5,63,98,1700283980
87,17,16,Jits_ISO_5,3,5,56,103,1700294248
87,17,16,Jits_ISO_5,0,5,56,103,1700694340
87,17,16,Jits_ISO_5,1,5,63,98,1700697436
87,17,16,Jits_ISO_5,2,5,80,127,1700700708
87,17,16,Jits_ISO_5,3,1,48,43,1700735304
87,17,16,Jits_ISO_5,0,1,48,47,1701212184
87,17,16,Jits_ISO_5,1,5,80,127,1701223888
87,17,16,Jits_ISO_5,2,5,63,98,1701273940
87,17,16,Jits_ISO_5,3,5,56,103,1701304192
87,17,16,Jits_ISO_5,0,5,56,103,1701704148
87,17,16,Jits_ISO_5,1,5,80,127,1701714344
87,17,16,Jits_ISO_5,2,1,48,44,1701742644
87,17,16,Jits_ISO_5,3,5,63,98,1701784016
87,17,16,Jits_ISO_5,0,1,48,47,1702179256
87,17,16,Jits_ISO_5,1,5,56,103,1702214000
87,17,16,Jits_ISO_5,2,5,63,98,1702233412
87,17,16,Jits_ISO_5,3,5,80,127,1702293860
87,17,16,Jits_ISO_5,0,1,48,39,1702677864
87,17,16,Jits_ISO_5,1,5,80,127,1702703592
87,17,16,Jits_ISO_5,2,5,63,98,1702774120
87,17,16,Jits_ISO_5,3,5,56,103,1702793444
87,17,16,Jits_ISO_5,0,1,48,45,1703207716
87,17,16,Jits_ISO_5,1,5,80,127,1703223704
87,17,16,Jits_ISO_5,2,5,56,103,1703233848
87,17,16,Jits_ISO_5,3,5,63,98,1703244344
87,17,16,Jits_ISO_5,0,1,48,48,1703690584
87,17,16,Jits_ISO_5,1,5,80,127,1703714068
87,17,16,Jits_ISO_5,2,5,56,103,1703733776
87,17,16,Jits_ISO_5,3,5,63,98,1703804360
87,17,16,Jits_ISO_5,0,1,48,47,1704215492
87,17,16,Jits_ISO_5,1,5,56,103,1704224136
87,17,16,Jits_ISO_5,2,5,80,127,1704253960
87,17,16,Jits_ISO_5,3,5,63,98,1704274268
87,17,16,Jits_ISO_5,0,5,63,98,1704713728
87,17,16,Jits_ISO_5,1,1,48,43,1704734908
87,17,16,Jits_ISO_5,2,5,56,103,1704773912
87,17,16,Jits_ISO_5,3,5,80,127,1704803884
87,17,16,Jits_ISO_5,0,5,63,98,1705204096
87,17,16,Jits_ISO_5,1,5,80,127,1705207460
87,17,16,Jits_ISO_5,2,1,48,50,1705223024
87,17,16,Jits_ISO_5,3,5,56,103,1705294240
87,17,16,Jits_ISO_5,0,1,48,46,1705715096
87,17,16,Jits_ISO_5,1,5,56,103,1705724336
87,17,16,Jits_ISO_5,2,5,63,98,1705754084
87,17,16,Jits_ISO_5,3,5,80,127,1705794044
87,17,16,Jits_ISO_5,0,5,63,98,1706224004
87,17,16,Jits_ISO_5,1,1,48,44,1706238952
87,17,16,Jits_ISO_5,2,5,56,103,1706264084
87,17,16,Jits_ISO_5,3,5,80,127,1706284320
87,17,16,Jits_ISO_5,0,1,48,44,1706733548
87,17,16,Jits_ISO_5,1,5,63,98,1706734964
87,17,16,Jits_ISO_5,2,5,56,103,1706773928
87,17,16,Jits_ISO_5,3,5,80,127,1706784124
87,17,16,Jits_ISO_5,0,5,80,127,1707214328
87,17,16,Jits_ISO_5,1,1,48,43,1707241412
87,17,16,Jits_ISO_5,2,5,63,98,1707283924
87,17,16,Jits_ISO_5,3,5,56,103,1707304160
87,17,16,Jits_ISO_5,0,5,56,103,1707703960
87,17,16,Jits_ISO_5,1,5,80,127,1707724196
87,17,16,Jits_ISO_5,2,5,63,98,1707764060
87,17,16,Jits_ISO_5,3,1,48,48,1707772204
87,17,16,Jits_ISO_5,0,5,63,98,1708213744
87,17,16,Jits_ISO_5,1,5,80,127,1708234056
87,17,16,Jits_ISO_5,2,1,48,46,1708241584
87,17,16,Jits_ISO_5,3,5,56,103,1708273984
87,17,16,Jits_ISO_5,0,1,48,45,1708713968
87,17,16,Jits_ISO_5,1,5,63,98,1708723512
87,17,16,Jits_ISO_5,2,5,56,103,1708744192
87,17,16,Jits_ISO_5,3,5,80,127,1708754240
87,17,16,Jits_ISO_5,0,1,48,47,1709216020
87,17,16,Jits_ISO_5,1,5,80,127,1709224284
87,17,16,Jits_ISO_5,2,5,56,103,1709243772
87,17,16,Jits_ISO_5,3,5,63,98,1709273520
87,17,16,Jits_ISO_5,0,1,48,48,1709706076
87,17,16,Jits_ISO_5,1,5,56,103,1709793688
87,17,16,Jits_ISO_5,2,5,80,127,1709796680
87,17,16,Jits_ISO_5,3,5,63,98,1709814056
87,17,16,Jits_ISO_5,0,5,63,98,1710213488
87,17,16,Jits_ISO_5,1,5,56,103,1710244208
87,17,16,Jits_ISO_5,2,1,48,42,1710271216
87,17,16,Jits_ISO_5,3,5,80,127,1710303692
87,17,16,Jits_ISO_5,0,1,48,47,1710767200
87,17,16,Jits_ISO_5,1,5,63,98,1710794196
87,17,16,Jits_ISO_5,2,5,56,103,1710804316
87,17,16,Jits_ISO_5,3,5,80,127,1710813912
87,17,16,Jits_ISO_5,0,5,56,103,1711243748
87,17,16,Jits_ISO_5,1,1,48,48,1711274096
87,17,16,Jits_ISO_5,2,5,80,127,1711275656
87,17,16,Jits_ISO_5,3,5,63,98,1711283684
87,17,16,Jits_ISO_5,0,1,48,44,1711749600
87,17,16,Jits_ISO_5,1,5,63,98,1711784244
87,17,16,Jits_ISO_5,2,5,56,103,1711793616
87,17,16,Jits_ISO_5,3,5,80,127,1711813928
87,17,16,Jits_ISO_5,0,5,56,103,1712214312
87,17,16,Jits_ISO_5,1,5,63,98,1712273648
87,17,16,Jits_ISO_5,2,5,80,127,1712277240
87,17,16,Jits_ISO_5,3,1,48,50,1712278280
87,17,16,Jits_ISO_5,0,5,80,127,1712743720
87,17,16,Jits_ISO_5,1,5,56,103,1712754216
87,17,16,Jits_ISO_5,2,1,48,48,1712773748
87,17,16,Jits_ISO_5,3,5,63,98,1712823884
87,17,16,Jits_ISO_5,0,5,80,127,1713234252
87,17,16,Jits_ISO_5,1,1,48,48,1713254456
87,17,16,Jits_ISO_5,2,5,56,103,1713303776
87,17,16,Jits_ISO_5,3,5,63,98,1713314120
87,17,16,Jits_ISO_5,0,1,48,43,1713773336
87,17,16,Jits_ISO_5,1,5,63,98,1713774900
87,17,16,Jits_ISO_5,2,5,56,103,1713784196
87,17,16,Jits_ISO_5,3,5,80,127,1713803760
87,17,16,Jits_ISO_5,0,5,80,127,1714223524
87,17,16,Jits_ISO_5,1,5,63,98,1714283864
87,17,16,Jits_ISO_5,2,1,48,45,1714284828
87,17,16,Jits_ISO_5,3,5,56,103,1714324016
87,17,16,Jits_ISO_5,0,1,48,43,1714729596
87,17,16,Jits_ISO_5,1,5,56,103,1714764192
87,17,16,Jits_ISO_5,2,5,63,98,1714774464
87,17,16,Jits_ISO_5,3,5,80,127,1714814248
87,17,16,Jits_ISO_5,0,5,56,103,1715224052
87,17,16,Jits_ISO_5,1,5,80,127,1715253800
87,17,16,Jits_ISO_5,2,1,48,45,1715288780
87,17,16,Jits_ISO_5,3,5,63,98,1715303648
87,17,16,Jits_ISO_5,0,1,48,51,1715743396
87,17,16,Jits_ISO_5,1,5,56,103,1715763872
87,17,16,Jits_ISO_5,2,5,63,98,1715803608
87,17,16,Jits_ISO_5,3,5,80,127,1715806900
87,17,16,Jits_ISO_5,0,1,48,42,1716261756
87,17,16,Jits_ISO_5,1,5,56,103,1716264416
87,17,16,Jits_ISO_5,2,5,63,98,1716273712
87,17,16,Jits_ISO_5,3,5,80,127,1716293972
87,17,16,Jits_ISO_5,0,5,56,103,1716724148
87,17,16,Jits_ISO_5,1,5,80,127,1716727512
87,17,16,Jits_ISO_5,2,1,48,49,1716728928
87,17,16,Jits_ISO_5,3,5,63,98,1716763928
87,17,16,Jits_ISO_5,0,1,48,45,1717234560
87,17,16,Jits_ISO_5,1,5,63,98,1717263880
87,17,16,Jits_ISO_5,2,5,56,103,1717293556
87,17,16,Jits_ISO_5,3,5,80,127,1717313964
87,17,16,Jits_ISO_5,0,5,80,127,1717733732
87,17,16,Jits_ISO_5,1,1,48,45,1717734696
87,17,16,Jits_ISO_5,2,5,56,103,1717743920
87,17,16,Jits_ISO_5,3,5,63,98,1717754340
87,17,16,Jits_ISO_5,0,1,48,45,1718219428
87,17,16,Jits_ISO_5,1,5,56,103,1718233544
87,17,16,Jits_ISO_5,2,5,80,127,1718274528
87,17,16,Jits_ISO_5,3,5,63,98,1718303980
87,17,16,Jits_ISO_5,0,1,48,45,1718736768
87,17,16,Jits_ISO_5,1,5,63,98,1718744812
87,17,16,Jits_ISO_5,2,5,80,127,1718753664
87,17,16,Jits_ISO_5,3,5,56,103,1718763936
87,17,16,Jits_ISO_5,0,5,56,103,1719223576
87,17,16,Jits_ISO_5,1,1,48,39,1719230512
87,17,16,Jits_ISO_5,2,5,63,98,1719294224
87,17,16,Jits_ISO_5,3,5,80,127,1719303744
87,17,16,Jits_ISO_5,0,5,80,127,1719724596
87,17,16,Jits_ISO_5,1,1,48,45,1719731400
87,17,16,Jits_ISO_5,2,5,56,103,1719733516
87,17,16,Jits_ISO_5,3,5,63,98,1719783936
87,17,16,Jits_ISO_5,0,1,48,44,1720216668
87,17,16,Jits_ISO_5,1,5,80,127,1720243740
87,17,16,Jits_ISO_5,2,5,56,103,1720303980
87,17,16,Jits_ISO_5,3,5,63,98,1720333788
87,17,16,Jits_ISO_5,0,5,56,103,1720744232
87,17,16,Jits_ISO_5,1,5,80,127,1720747672
87,17,16,Jits_ISO_5,2,1,48,44,1720775668
87,17,16,Jits_ISO_5,3,5,63,98,1720784308
87,17,16,Jits_ISO_5,0,1,48,46,1721242068
87,17,16,Jits_ISO_5,1,5,56,103,1721273776
87,17,16,Jits_ISO_5,2,5,63,98,1721304724
87,17,16,Jits_ISO_5,3,5,80,127,1721313576
87,17,16,Jits_ISO_5,0,1,48,48,1721756400
87,17,16,Jits_ISO_5,1,5,63,98,1721783776
87,17,16,Jits_ISO_5,2,5,80,127,1721793896
87,17,16,Jits_ISO_5,3,5,56,103,1721804092
87,17,16,Jits_ISO_5,0,5,80,127,1722234664
87,17,16,Jits_ISO_5,1,1,48,47,1722269848
87,17,16,Jits_ISO_5,2,5,56,103,1722284412
87,17,16,Jits_ISO_5,3,5,63,98,1722287480
87,17,16,Jits_ISO_5,0,1,48,49,1722758344
87,17,16,Jits_ISO_5,1,5,56,103,1722763692
87,17,16,Jits_ISO_5,2,5,80,127,1722784076
87,17,16,Jits_ISO_5,3,5,63,98,1722794640
87,17,16,Jits_ISO_5,0,5,63,98,1723243804
87,17,16,Jits_ISO_5,1,5,56,103,1723273700
87,17,16,Jits_ISO_5,2,1,48,51,1723276220
87,17,16,Jits_ISO_5,3,5,80,127,1723294004
87,17,16,Jits_ISO_5,0,5,56,103,1723753724
87,17,16,Jits_ISO_5,1,5,80,127,1723764068
87,17,16,Jits_ISO_5,2,1,48,50,1723778496
87,17,16,Jits_ISO_5,3,5,63,98,1723833664
87,17,16,Jits_ISO_5,0,5,63,98,1724253620
87,17,16,Jits_ISO_5,1,1,48,50,1724261544
87,17,16,Jits_ISO_5,2,5,80,127,1724293548
87,17,16,Jits_ISO_5,3,5,56,103,1724333632
87,17,16,Jits_ISO_5,0,1,48,52,1724755636
87,17,16,Jits_ISO_5,1,5,56,103,1724763456
87,17,16,Jits_ISO_5,2,5,63,98,1724773800
87,17,16,Jits_ISO_5,3,5,80,127,1724794184
87,17,16,Jits_ISO_5,0,1,48,48,1725264964
87,17,16,Jits_ISO_5,1,5,63,98,1725304168
87,17,16,Jits_ISO_5,2,5,80,127,1725323504
87,17,16,Jits_ISO_5,3,5,56,103,1725344112
87,17,16,Jits_ISO_5,0,5,56,103,1725743576
87,17,16,Jits_ISO_5,1,1,48,53,1725809344
87,17,16,Jits_ISO_5,2,5,80,127,1725824660
87,17,16,Jits_ISO_5,3,5,63,98,1725833660
87,17,16,Jits_ISO_5,4,1,48,33,1725857360
87,17,16,Jits_ISO_5,0,5,80,127,1726284196
87,17,16,Jits_ISO_5,1,1,48,50,1726285088
87,17,16,Jits_ISO_5,2,5,63,98,1726294536
87,17,16,Jits_ISO_5,3,5,56,103,1726323984
87,17,16,Jits_ISO_5,0,5,63,98,1726743840
87,17,16,Jits_ISO_5,1,5,80,127,1726783800
87,17,16,Jits_ISO_5,2,1,48,47,1726791948
87,17,16,Jits_ISO_5,3,5,56,103,1726844404
87,17,16,Jits_ISO_5,0,5,63,98,1727253836
87,17,16,Jits_ISO_5,1,5,56,103,1727303988
87,17,16,Jits_ISO_5,2,1,48,42,1727309348
87,17,16,Jits_ISO_5,3,5,80,127,1727333652
87,17,16,Jits_ISO_5,0,5,80,127,1727763900
87,17,16,Jits_ISO_5,1,5,63,98,1727774248
87,17,16,Jits_ISO_5,2,1,48,47,1727795648
87,17,16,Jits_ISO_5,3,5,56,103,1727843644
87,17,16,Jits_ISO_5,0,1,48,45,1728282200
87,17,16,Jits_ISO_5,1,5,80,127,1728334240
87,17,16,Jits_ISO_5,2,5,56,103,1728344508
87,17,16,Jits_ISO_5,3,5,63,98,1728347576
87,17,16,Jits_ISO_5,0,5,56,103,1728773492
87,17,16,Jits_ISO_5,1,5,80,127,1728793876
87,17,16,Jits_ISO_5,2,1,48,48,1728800656
87,17,16,Jits_ISO_5,3,5,63,98,1728804660
87,17,16,Jits_ISO_5,0,5,63,98,1729283652
87,17,16,Jits_ISO_5,1,1,48,48,1729301144
87,17,16,Jits_ISO_5,2,5,56,103,1729324480
87,17,16,Jits_ISO_5,3,5,80,127,1729343840
87,17,16,Jits_ISO_5,0,5,63,98,1729784284
87,17,16,Jits_ISO_5,1,1,48,47,1729836328
87,17,16,Jits_ISO_5,2,5,56,103,1729843544
87,17,16,Jits_ISO_5,3,5,80,127,1729846684
87,17,16,Jits_ISO_5,0,5,56,103,1730244080
87,17,16,Jits_ISO_5,1,5,80,127,1730264468
87,17,16,Jits_ISO_5,2,5,63,98,1730304624
87,17,16,Jits_ISO_5,3,1,48,48,1730307012
87,17,16,Jits_ISO_5,0,5,56,103,1730774316
87,17,16,Jits_ISO_5,1,5,63,98,1730793876
87,17,16,Jits_ISO_5,2,1,48,48,1730803776
87,17,16,Jits_ISO_5,3,5,80,127,1730805260
87,17,16,Jits_ISO_5,0,5,80,127,1731244544
87,17,16,Jits_ISO_5,1,1,48,51,1731265124
87,17,16,Jits_ISO_5,2,5,56,103,1731274212
87,17,16,Jits_ISO_5,3,1,48,33,1731313084
87,17,16,Jits_ISO_5,4,5,63,98,1731314052
87,17,16,Jits_ISO_5,0,5,80,127,1731763636
87,17,16,Jits_ISO_5,1,1,48,47,1731772004
87,17,16,Jits_ISO_5,2,5,56,103,1731783936
87,17,16,Jits_ISO_5,3,5,63,98,1731843576
87,17,16,Jits_ISO_5,0,1,48,47,1732251052
87,17,16,Jits_ISO_5,1,5,56,103,1732273636
87,17,16,Jits_ISO_5,2,5,80,127,1732293872
87,17,16,Jits_ISO_5,3,5,63,98,1732354316
87,17,16,Jits_ISO_5,0,1,48,45,1732752616
87,17,16,Jits_ISO_5,1,5,80,127,1732754040
87,17,16,Jits_ISO_5,2,5,56,103,1732764084
87,17,16,Jits_ISO_5,3,5,63,98,1732803872
87,17,16,Jits_ISO_5,0,5,63,98,1733253624
87,17,16,Jits_ISO_5,1,1,48,40,1733261384
87,17,16,Jits_ISO_5,2,5,56,103,1733293552
87,17,16,Jits_ISO_5,3,5,80,127,1733296620
87,17,16,Jits_ISO_5,0,5,63,98,1733773644
87,17,16,Jits_ISO_5,1,1,48,50,1733779304
87,17,16,Jits_ISO_5,2,5,80,127,1733813580
87,17,16,Jits_ISO_5,3,5,56,103,1733844300
87,17,16,Jits_ISO_5,0,5,56,103,1734264460
87,17,16,Jits_ISO_5,1,5,63,98,1734274360
87,17,16,Jits_ISO_5,2,1,48,46,1734303124
87,17,16,Jits_ISO_5,3,5,80,127,1734304620
87,17,16,Jits_ISO_5,0,5,80,127,1734753568
87,17,16,Jits_ISO_5,1,1,48,46,1734791384
87,17,16,Jits_ISO_5,2,5,63,98,1734824436
87,17,16,Jits_ISO_5,3,5,56,103,1734833512
87,17,16,Jits_ISO_5,0,5,63,98,1735254512
87,17,16,Jits_ISO_5,1,1,48,47,1735292624
87,17,16,Jits_ISO_5,2,5,56,103,1735323888
87,17,16,Jits_ISO_5,3,5,80,127,1735334232
87,17,16,Jits_ISO_5,0,5,63,98,1735764584
87,17,16,Jits_ISO_5,1,1,48,46,1735778420
87,17,16,Jits_ISO_5,2,5,56,103,1735783696
87,17,16,Jits_ISO_5,3,5,80,127,1735823780
87,17,16,Jits_ISO_5,0,1,48,50,1736274652
87,17,16,Jits_ISO_5,1,5,56,103,1736275916
87,17,16,Jits_ISO_5,2,5,63,98,1736283500
87,17,16,Jits_ISO_5,3,5,80,127,1736364336
87,17,16,Jits_ISO_5,0,5,63,98,1736763728
87,17,16,Jits_ISO_5,1,5,56,103,1736793476
87,17,16,Jits_ISO_5,2,1,48,47,1736808352
87,17,16,Jits_ISO_5,3,5,80,127,1736834452
87,17,16,Jits_ISO_5,0,5,56,103,1737263504
87,17,16,Jits_ISO_5,1,1,48,46,1737281100
87,17,16,Jits_ISO_5,2,5,63,98,1737304356
87,17,16,Jits_ISO_5,3,5,80,127,1737344444
87,17,16,Jits_ISO_5,0,5,80,127,1737764444
87,17,16,Jits_ISO_5,1,1,48,46,1737797256
87,17,16,Jits_ISO_5,2,5,56,103,1737844184
87,17,16,Jits_ISO_5,3,5,63,98,1737854228
87,17,16,Jits_ISO_5,0,5,56,103,1738304000
87,17,16,Jits_ISO_5,1,5,63,98,1738306992
87,17,16,Jits_ISO_5,2,1,48,41,1738307956
87,17,16,Jits_ISO_5,3,5,80,127,1738314336
87,17,16,Jits_ISO_5,0,5,56,103,1738824336
87,17,16,Jits_ISO_5,1,5,63,98,1738843376
87,17,16,Jits_ISO_5,2,1,48,39,1738844344
87,17,16,Jits_ISO_5,3,5,80,127,1738853716
87,17,16,Jits_ISO_5,0,5,63,98,1739283752
87,17,16,Jits_ISO_5,1,5,80,127,1739294172
87,17,16,Jits_ISO_5,2,5,56,103,1739313432
87,17,16,Jits_ISO_5,3,1,48,47,1739320740
87,17,16,Jits_ISO_5,0,5,63,98,1739783484
87,17,16,Jits_ISO_5,1,1,48,43,1739823840
87,17,16,Jits_ISO_5,2,5,56,103,1739864488
87,17,16,Jits_ISO_5,3,5,80,127,1739867556
87,17,16,Jits_ISO_5,0,5,63,98,1740284332
87,17,16,Jits_ISO_5,1,5,56,103,1740303816
87,17,16,Jits_ISO_5,2,1,48,43,1740322452
87,17,16,Jits_ISO_5,3,5,80,127,1740333412
87,17,16,Jits_ISO_5,0,5,56,103,1740784064
87,17,16,Jits_ISO_5,1,1,48,44,1740799764
87,17,16,Jits_ISO_5,2,5,63,98,1740803396
87,17,16,Jits_ISO_5,3,5,80,127,1740813668
87,17,16,Jits_ISO_5,0,1,48,40,1741313320
87,17,16,Jits_ISO_5,1,5,56,103,1741314968
87,17,16,Jits_ISO_5,2,5,63,98,1741344196
87,17,16,Jits_ISO_5,3,5,80,127,1741347560
87,17,16,Jits_ISO_5,0,5,56,103,1741763904
87,17,16,Jits_ISO_5,1,5,63,98,1741803844
87,17,16,Jits_ISO_5,2,1,48,41,1741847412
87,17,16,Jits_ISO_5,3,5,80,127,1741864224
87,17,16,Jits_ISO_5,0,5,56,103,1742284328
87,17,16,Jits_ISO_5,1,5,63,98,1742294376
87,17,16,Jits_ISO_5,2,1,48,44,1742319964
87,17,16,Jits_ISO_5,3,5,80,127,1742353856
87,17,16,Jits_ISO_5,0,5,56,103,1742784000
87,17,16,Jits_ISO_5,1,1,48,42,1742799400
87,17,16,Jits_ISO_5,2,5,80,127,1742804228
87,17,16,Jits_ISO_5,3,5,63,98,1742834200
87,17,16,Jits_ISO_5,0,5,80,127,1743294008
87,17,16,Jits_ISO_5,1,5,56,103,1743304128
87,17,16,Jits_ISO_5,2,1,48,44,1743313100
87,17,16,Jits_ISO_5,3,5,63,98,1743323384
87,17,16,Jits_ISO_5,0,5,63,98,1743784240
87,17,16,Jits_ISO_5,1,1,48,50,1743854112
87,17,16,Jits_ISO_5,2,5,80,127,1743864176
87,17,16,Jits_ISO_5,3,5,56,103,1743874520
87,17,16,Jits_ISO_5,0,1,48,45,1744325148
87,17,16,Jits_ISO_5,1,5,80,127,1744344352
87,17,16,Jits_ISO_5,2,5,56,103,1744363988
87,17,16,Jits_ISO_5,3,5,63,98,1744367052
87,17,16,Jits_ISO_5,0,1,48,44,1744809808
87,17,16,Jits_ISO_5,1,5,63,98,1744813436
87,17,16,Jits_ISO_5,2,5,80,127,1744816728
87,17,16,Jits_ISO_5,3,5,56,103,1744873900
87,17,16,Jits_ISO_5,0,5,56,103,1745293616
87,17,16,Jits_ISO_5,1,5,80,127,1745304036
87,17,16,Jits_ISO_5,2,5,63,98,1745343824
87,17,16,Jits_ISO_5,3,1,48,40,1745389860
87,17,16,Jits_ISO_5,0,5,56,103,1745774176
87,17,16,Jits_ISO_5,1,5,63,98,1745834420
87,17,16,Jits_ISO_5,2,5,80,127,1745843640
87,17,16,Jits_ISO_5,3,1,48,48,1745850948
87,17,16,Jits_ISO_5,0,5,63,98,1746283816
87,17,16,Jits_ISO_5,1,1,48,50,1746293752
87,17,16,Jits_ISO_5,2,5,80,127,1746324044
87,17,16,Jits_ISO_5,3,5,56,103,1746363756
87,17,16,Jits_ISO_5,0,1,48,48,1746764560
87,17,16,Jits_ISO_5,1,5,56,103,1746783692
87,17,16,Jits_ISO_5,2,5,63,98,1746863408
87,17,16,Jits_ISO_5,3,5,80,127,1746867580
87,17,16,Jits_ISO_5,0,9999,9999,9999,1687491672
87,17,16,Jits_ISO_5,1,9999,9999,9999,1687991372
87,17,16,Jits_ISO_5,2,9999,9999,9999,1688491120
87,17,16,Jits_ISO_5,3,9999,9999,9999,1688991836
87,17,16,Jits_ISO_5,4,9999,9999,9999,1689491572
87,17,16,Jits_ISO_5,5,9999,9999,9999,1689991232
87,17,16,Jits_ISO_5,6,9999,9999,9999,1690492008
87,17,16,Jits_ISO_5,7,9999,9999,9999,1690991680
87,17,16,Jits_ISO_5,8,9999,9999,9999,1691491424
87,17,16,Jits_ISO_5,9,9999,9999,9999,1691991100
87,17,16,Jits_ISO_5,10,9999,9999,9999,1692491888
87,17,16,Jits_ISO_5,11,9999,9999,9999,1692991548
87,17,16,Jits_ISO_5,12,9999,9999,9999,1693491252
87,17,16,Jits_ISO_5,13,9999,9999,9999,1693992028
87,17,16,Jits_ISO_5,14,9999,9999,9999,1694491756
87,17,16,Jits_ISO_5,15,9999,9999,9999,1694991432
87,17,16,Jits_ISO_5,16,9999,9999,9999,1695491140
87,17,16,Jits_ISO_5,17,9999,9999,9999,1695991920
87,17,16,Jits_ISO_5,18,9999,9999,9999,1696491572
87,17,16,Jits_ISO_5,19,9999,9999,9999,1696991308
87,17,16,Jits_ISO_5,20,9999,9999,9999,1697492088
87,17,16,Jits_ISO_5,21,9999,9999,9999,1697991748
87,17,16,Jits_ISO_5,22,9999,9999,9999,1698491492
87,17,16,Jits_ISO_5,23,9999,9999,9999,1698991164
87,17,16,Jits_ISO_5,24,9999,9999,9999,1699491944
87,17,16,Jits_ISO_5,25,9999,9999,9999,1699991668
87,17,16,Jits_ISO_5,26,9999,9999,9999,1700491328
87,17,16,Jits_ISO_5,27,9999,9999,9999,1700992080
87,17,16,Jits_ISO_5,28,9999,9999,9999,1701502020
87,17,16,Jits_ISO_5,29,9999,9999,9999,1702001748
87,17,16,Jits_ISO_5,30,9999,9999,9999,1702501496
87,17,16,Jits_ISO_5,31,9999,9999,9999,1703001156
87,17,16,Jits_ISO_5,32,9999,9999,9999,1703501928
87,17,16,Jits_ISO_5,33,9999,9999,9999,1704001588
87,17,16,Jits_ISO_5,34,9999,9999,9999,1704501344
87,17,16,Jits_ISO_5,35,9999,9999,9999,1705002044
87,17,16,Jits_ISO_5,36,9999,9999,9999,1705501764
87,17,16,Jits_ISO_5,37,9999,9999,9999,1706001496
87,17,16,Jits_ISO_5,38,9999,9999,9999,1706501228
87,17,16,Jits_ISO_5,39,9999,9999,9999,1707001936
87,17,16,Jits_ISO_5,40,9999,9999,9999,1707501668
87,17,16,Jits_ISO_5,41,9999,9999,9999,1708001340
87,17,16,Jits_ISO_5,42,9999,9999,9999,1708502132
87,17,16,Jits_ISO_5,43,9999,9999,9999,1709012048
87,17,16,Jits_ISO_5,44,9999,9999,9999,1709511780
87,17,16,Jits_ISO_5,45,9999,9999,9999,1710011508
87,17,16,Jits_ISO_5,46,9999,9999,9999,1710511164
87,17,16,Jits_ISO_5,47,9999,9999,9999,1711011952
87,17,16,Jits_ISO_5,48,9999,9999,9999,1711511608
87,17,16,Jits_ISO_5,49,9999,9999,9999,1712011364
87,17,16,Jits_ISO_5,50,9999,9999,9999,1712512056
87,17,16,Jits_ISO_5,51,9999,9999,9999,1713022068
87,17,16,Jits_ISO_5,52,9999,9999,9999,1713521744
87,17,16,Jits_ISO_5,53,9999,9999,9999,1714021492
87,17,16,Jits_ISO_5,54,9999,9999,9999,1714521152
87,17,16,Jits_ISO_5,55,9999,9999,9999,1715021876
87,17,16,Jits_ISO_5,56,9999,9999,9999,1715521604
87,17,16,Jits_ISO_5,57,9999,9999,9999,1716021320
87,17,16,Jits_ISO_5,58,9999,9999,9999,1716522092
87,17,16,Jits_ISO_5,59,9999,9999,9999,1717021812
87,17,16,Jits_ISO_5,60,9999,9999,9999,1717521488
87,17,16,Jits_ISO_5,61,9999,9999,9999,1718021216
87,17,16,Jits_ISO_5,62,9999,9999,9999,1718521940
87,17,16,Jits_ISO_5,63,9999,9999,9999,1719021672
87,17,16,Jits_ISO_5,64,9999,9999,9999,1719521404
87,17,16,Jits_ISO_5,65,9999,9999,9999,1720022124
87,17,16,Jits_ISO_5,66,9999,9999,9999,1720532064
87,17,16,Jits_ISO_5,67,9999,9999,9999,1721031784
87,17,16,Jits_ISO_5,68,9999,9999,9999,1721531460
87,17,16,Jits_ISO_5,69,9999,9999,9999,1722031192
87,17,16,Jits_ISO_5,70,9999,9999,9999,1722531960
87,17,16,Jits_ISO_5,71,9999,9999,9999,1723031632
87,17,16,Jits_ISO_5,72,9999,9999,9999,1723531364
87,17,16,Jits_ISO_5,73,9999,9999,9999,1724032072
87,17,16,Jits_ISO_5,74,9999,9999,9999,1724542004
87,17,16,Jits_ISO_5,75,9999,9999,9999,1725041736
87,17,16,Jits_ISO_5,76,9999,9999,9999,1725541472
87,17,16,Jits_ISO_5,77,9999,9999,9999,1726041184
87,17,16,Jits_ISO_5,78,9999,9999,9999,1726541944
87,17,16,Jits_ISO_5,79,9999,9999,9999,1727041616
87,17,16,Jits_ISO_5,80,9999,9999,9999,1727541324
87,17,16,Jits_ISO_5,81,9999,9999,9999,1728042100
87,17,16,Jits_ISO_5,82,9999,9999,9999,1728541772
87,17,16,Jits_ISO_5,83,9999,9999,9999,1729041500
87,17,16,Jits_ISO_5,84,9999,9999,9999,1729541176
87,17,16,Jits_ISO_5,85,9999,9999,9999,1730041952
87,17,16,Jits_ISO_5,86,9999,9999,9999,1730541684
87,17,16,Jits_ISO_5,87,9999,9999,9999,1731041356
87,17,16,Jits_ISO_5,88,9999,9999,9999,1731542124
87,17,16,Jits_ISO_5,89,9999,9999,9999,1732052020
87,17,16,Jits_ISO_5,90,9999,9999,9999,1732551768
87,17,16,Jits_ISO_5,91,9999,9999,9999,1733051496
87,17,16,Jits_ISO_5,92,9999,9999,9999,1733551216
87,17,16,Jits_ISO_5,93,9999,9999,9999,1734051920
87,17,16,Jits_ISO_5,94,9999,9999,9999,1734551648
87,17,16,Jits_ISO_5,95,9999,9999,9999,1735051324
87,17,16,Jits_ISO_5,96,9999,9999,9999,1735552116
87,17,16,Jits_ISO_5,97,9999,9999,9999,1736062040
87,17,16,Jits_ISO_5,98,9999,9999,9999,1736561772
87,17,16,Jits_ISO_5,99,9999,9999,9999,1737061476
87,17,16,Jits_ISO_5,100,9999,9999,9999,1737561208
87,17,16,Jits_ISO_5,101,9999,9999,9999,1738061928
87,17,16,Jits_ISO_5,102,9999,9999,9999,1738561588
87,17,16,Jits_ISO_5,103,9999,9999,9999,1739061312
87,17,16,Jits_ISO_5,104,9999,9999,9999,1739562096
87,17,16,Jits_ISO_5,105,9999,9999,9999,1740061748
87,17,16,Jits_ISO_5,106,9999,9999,9999,1740561484
87,17,16,Jits_ISO_5,107,9999,9999,9999,1741061216
87,17,16,Jits_ISO_5,108,9999,9999,9999,1741561928
87,17,16,Jits_ISO_5,109,9999,9999,9999,1742061660
87,17,16,Jits_ISO_5,110,9999,9999,9999,1742561328
87,17,16,Jits_ISO_5,111,9999,9999,9999,1743062124
87,17,16,Jits_ISO_5,112,9999,9999,9999,1743572056
87,17,16,Jits_ISO_5,113,9999,9999,9999,1744071732
87,17,16,Jits_ISO_5,114,9999,9999,9999,1744571460
87,17,16,Jits_ISO_5,115,9999,9999,9999,1745071184
87,17,16,Jits_ISO_5,116,9999,9999,9999,1745571960
87,17,16,Jits_ISO_5,117,9999,9999,9999,1746071632
87,17,16,Jits_ISO_5,118,9999,9999,9999,1746571380
87,17,16,Jits_ISO_5,119,9999,9999,9999,1747072080
87,18,18,Jits_Linear_8,0,5,56,103,1756931320
87,18,18,Jits_Linear_8,1,5,63,98,1756934496
87,18,18,Jits_Linear_8,2,5,80,127,1756937840
87,18,18,Jits_Linear_8,0,1,48,32,1757464632
87,18,18,Jits_Linear_8,1,5,56,103,1757751912
87,18,18,Jits_Linear_8,2,5,63,98,1757755088
87,18,18,Jits_Linear_8,3,5,80,127,1757758132
87,18,18,Jits_Linear_8,4,1,48,43,1757964276
87,18,18,Jits_Linear_8,0,5,80,127,1758511400
87,18,18,Jits_Linear_8,1,1,48,48,1758553356
87,18,18,Jits_Linear_8,2,5,63,98,1758601704
87,18,18,Jits_Linear_8,3,5,56,103,1758612052
87,18,18,Jits_Linear_8,0,1,48,58,1759338268
87,18,18,Jits_Linear_8,1,5,56,103,1759352168
87,18,18,Jits_Linear_8,2,5,63,98,1759362364
87,18,18,Jits_Linear_8,3,1,48,36,1759392292
87,18,18,Jits_Linear_8,4,5,80,127,1759451728
87,18,18,Jits_Linear_8,0,1,48,51,1760112232
87,18,18,Jits_Linear_8,1,5,63,98,1760141776
87,18,18,Jits_Linear_8,2,5,80,127,1760172424
87,18,18,Jits_Linear_8,3,5,56,103,1760202024
87,18,18,Jits_Linear_8,0,1,48,53,1760866112
87,18,18,Jits_Linear_8,1,1,48,32,1760919428
87,18,18,Jits_Linear_8,2,5,56,103,1760961952
87,18,18,Jits_Linear_8,3,5,80,127,1761062112
87,18,18,Jits_Linear_8,4,5,63,98,1761112340
87,18,18,Jits_Linear_8,0,5,56,103,1761771976
87,18,18,Jits_Linear_8,1,5,80,127,1761822028
87,18,18,Jits_Linear_8,2,1,48,49,1761823892
87,18,18,Jits_Linear_8,3,5,63,98,1761861988
87,18,18,Jits_Linear_8,0,5,80,127,1762611676
87,18,18,Jits_Linear_8,1,5,63,98,1762642348
87,18,18,Jits_Linear_8,2,1,48,49,1762650272
87,18,18,Jits_Linear_8,3,5,56,103,1762711872
87,18,18,Jits_Linear_8,0,5,63,98,1763452148
87,18,18,Jits_Linear_8,1,5,56,103,1763481824
87,18,18,Jits_Linear_8,2,1,48,57,1763508312
87,18,18,Jits_Linear_8,3,5,80,127,1763542356
87,18,18,Jits_Linear_8,0,5,56,103,1764202004
87,18,18,Jits_Linear_8,1,5,80,127,1764204996
87,18,18,Jits_Linear_8,2,1,48,57,1764303492
87,18,18,Jits_Linear_8,3,5,63,98,1764321944
87,18,18,Jits_Linear_8,0,1,48,54,1765049984
87,18,18,Jits_Linear_8,1,5,56,103,1765081400
87,18,18,Jits_Linear_8,2,5,80,127,1765122536
87,18,18,Jits_Linear_8,3,5,63,98,1765131908
87,18,18,Jits_Linear_8,0,1,48,51,1765830788
87,18,18,Jits_Linear_8,1,5,56,103,1765842272
87,18,18,Jits_Linear_8,2,5,80,127,1765861684
87,18,18,Jits_Linear_8,3,5,63,98,1765941912
87,18,18,Jits_Linear_8,0,5,80,127,1766631844
87,18,18,Jits_Linear_8,1,1,48,50,1766692504
87,18,18,Jits_Linear_8,2,5,56,103,1766732264
87,18,18,Jits_Linear_8,3,5,63,98,1766742532
87,18,18,Jits_Linear_8,0,5,63,98,1767401796
87,18,18,Jits_Linear_8,1,5,80,127,1767462188
87,18,18,Jits_Linear_8,2,5,56,103,1767471336
87,18,18,Jits_Linear_8,3,1,48,51,1767521228
87,18,18,Jits_Linear_8,0,5,56,103,1768201844
87,18,18,Jits_Linear_8,1,5,63,98,1768272144
87,18,18,Jits_Linear_8,2,5,80,127,1768275812
87,18,18,Jits_Linear_8,3,1,48,40,1768278112
87,18,18,Jits_Linear_8,0,5,63,98,1769031972
87,18,18,Jits_Linear_8,1,1,48,53,1769037108
87,18,18,Jits_Linear_8,2,5,56,103,1769082168
87,18,18,Jits_Linear_8,3,5,80,127,1769085456
87,18,18,Jits_Linear_8,0,5,56,103,1769781568
87,18,18,Jits_Linear_8,1,5,80,127,1769784856
87,18,18,Jits_Linear_8,2,1,48,51,1769837576
87,18,18,Jits_Linear_8,3,5,63,98,1769871620
87,18,18,Jits_Linear_8,0,5,63,98,1770612040
87,18,18,Jits_Linear_8,1,1,48,48,1770633668
87,18,18,Jits_Linear_8,2,5,56,103,1770702172
87,18,18,Jits_Linear_8,3,5,80,127,1770731756
87,18,18,Jits_Linear_8,0,5,56,103,1771392540
87,18,18,Jits_Linear_8,1,1,48,47,1771423760
87,18,18,Jits_Linear_8,2,5,63,98,1771491740
87,18,18,Jits_Linear_8,3,5,80,127,1771522448
87,18,18,Jits_Linear_8,0,5,63,98,1772202352
87,18,18,Jits_Linear_8,1,5,56,103,1772211800
87,18,18,Jits_Linear_8,2,1,48,52,1772260476
87,18,18,Jits_Linear_8,3,5,80,127,1772301704
87,18,18,Jits_Linear_8,0,5,63,98,1773002108
87,18,18,Jits_Linear_8,1,1,48,48,1773019000
87,18,18,Jits_Linear_8,2,5,56,103,1773081900
87,18,18,Jits_Linear_8,3,5,80,127,1773084964
87,18,18,Jits_Linear_8,0,5,80,127,1773741544
87,18,18,Jits_Linear_8,1,5,63,98,1773761784
87,18,18,Jits_Linear_8,2,1,48,45,1773817112
87,18,18,Jits_Linear_8,3,5,56,103,1773822536
87,18,18,Jits_Linear_8,0,5,56,103,1774561616
87,18,18,Jits_Linear_8,1,5,63,98,1774582076
87,18,18,Jits_Linear_8,2,5,80,127,1774585516
87,18,18,Jits_Linear_8,3,1,48,51,1774614860
87,18,18,Jits_Linear_8,0,5,63,98,1775281584
87,18,18,Jits_Linear_8,1,5,80,127,1775362652
87,18,18,Jits_Linear_8,2,5,56,103,1775371652
87,18,18,Jits_Linear_8,3,1,48,42,1775445436
87,18,18,Jits_Linear_8,0,5,63,98,1776082312
87,18,18,Jits_Linear_8,1,5,56,103,1776101652
87,18,18,Jits_Linear_8,2,5,80,127,1776151852
87,18,18,Jits_Linear_8,3,1,48,55,1776160664
87,18,18,Jits_Linear_8,0,5,80,127,1776861532
87,18,18,Jits_Linear_8,1,5,63,98,1776901696
87,18,18,Jits_Linear_8,2,1,48,63,1776910520
87,18,18,Jits_Linear_8,3,5,56,103,1776921928
87,18,18,Jits_Linear_8,0,5,56,103,1777671568
87,18,18,Jits_Linear_8,1,5,63,98,1777681912
87,18,18,Jits_Linear_8,2,5,80,127,1777702220
87,18,18,Jits_Linear_8,3,1,48,55,1777712536
87,18,18,Jits_Linear_8,0,5,56,103,1778371984
87,18,18,Jits_Linear_8,1,5,63,98,1778462048
87,18,18,Jits_Linear_8,2,1,48,56,1778465840
87,18,18,Jits_Linear_8,3,5,80,127,1778521704
87,18,18,Jits_Linear_8,0,5,80,127,1779171756
87,18,18,Jits_Linear_8,1,5,56,103,1779182028
87,18,18,Jits_Linear_8,2,1,48,48,1779192044
87,18,18,Jits_Linear_8,3,5,63,98,1779251628
87,18,18,Jits_Linear_8,0,1,48,52,1779929000
87,18,18,Jits_Linear_8,1,5,63,98,1779971596
87,18,18,Jits_Linear_8,2,5,80,127,1780061668
87,18,18,Jits_Linear_8,3,5,56,103,1780071936
87,18,18,Jits_Linear_8,0,5,63,98,1780671868
87,18,18,Jits_Linear_8,1,1,48,57,1780697080
87,18,18,Jits_Linear_8,2,5,80,127,1780721988
87,18,18,Jits_Linear_8,3,1,48,32,1780752892
87,18,18,Jits_Linear_8,4,5,56,103,1780781756
87,18,18,Jits_Linear_8,0,5,56,103,1781462452
87,18,18,Jits_Linear_8,1,5,80,127,1781511460
87,18,18,Jits_Linear_8,2,5,63,98,1781531996
87,18,18,Jits_Linear_8,3,1,48,57,1781558180
87,18,18,Jits_Linear_8,4,1,48,40,1781616616
87,18,18,Jits_Linear_8,0,5,56,103,1782191400
87,18,18,Jits_Linear_8,1,5,80,127,1782252016
87,18,18,Jits_Linear_8,2,5,63,98,1782321548
87,18,18,Jits_Linear_8,3,1,48,50,1782352708
87,18,18,Jits_Linear_8,0,5,56,103,1782952432
87,18,18,Jits_Linear_8,1,5,80,127,1782981960
87,18,18,Jits_Linear_8,2,5,63,98,1783011632
87,18,18,Jits_Linear_8,3,1,48,54,1783094984
87,18,18,Jits_Linear_8,0,5,56,103,1783752416
87,18,18,Jits_Linear_8,1,5,80,127,1783771684
87,18,18,Jits_Linear_8,2,1,48,53,1783810468
87,18,18,Jits_Linear_8,3,5,63,98,1783831916
87,18,18,Jits_Linear_8,0,1,48,47,1784560180
87,18,18,Jits_Linear_8,1,5,80,127,1784591596
87,18,18,Jits_Linear_8,2,5,56,103,1784601944
87,18,18,Jits_Linear_8,3,5,63,98,1784612436
87,18,18,Jits_Linear_8,0,5,56,103,1785302504
87,18,18,Jits_Linear_8,1,1,48,52,1785317304
87,18,18,Jits_Linear_8,2,5,80,127,1785342288
87,18,18,Jits_Linear_8,3,5,63,98,1785372040
87,18,18,Jits_Linear_8,0,5,56,103,1786022340
87,18,18,Jits_Linear_8,1,5,63,98,1786052092
87,18,18,Jits_Linear_8,2,5,80,127,1786091956
87,18,18,Jits_Linear_8,3,1,48,54,1786094628
87,18,18,Jits_Linear_8,0,5,80,127,1786721712
87,18,18,Jits_Linear_8,1,5,63,98,1786771916
87,18,18,Jits_Linear_8,2,5,56,103,1786792376
87,18,18,Jits_Linear_8,3,1,48,59,1786816916
87,18,18,Jits_Linear_8,0,5,56,103,1787501848
87,18,18,Jits_Linear_8,1,5,80,127,1787571532
87,18,18,Jits_Linear_8,2,1,48,55,1787575096
87,18,18,Jits_Linear_8,3,5,63,98,1787632064
87,18,18,Jits_Linear_8,0,5,80,127,1788242580
87,18,18,Jits_Linear_8,1,1,48,55,1788317244
87,18,18,Jits_Linear_8,2,5,63,98,1788332412
87,18,18,Jits_Linear_8,3,5,56,103,1788351900
87,18,18,Jits_Linear_8,0,5,63,98,1789002048
87,18,18,Jits_Linear_8,1,5,56,103,1789021460
87,18,18,Jits_Linear_8,2,5,80,127,1789061400
87,18,18,Jits_Linear_8,3,1,48,52,1789091044
87,18,18,Jits_Linear_8,0,5,80,127,1789701460
87,18,18,Jits_Linear_8,1,5,63,98,1789721996
87,18,18,Jits_Linear_8,2,5,56,103,1789801816
87,18,18,Jits_Linear_8,3,1,48,56,1789813472
87,18,18,Jits_Linear_8,0,5,63,98,1790431548
87,18,18,Jits_Linear_8,1,1,48,57,1790531416
87,18,18,Jits_Linear_8,2,5,56,103,1790542228
87,18,18,Jits_Linear_8,3,5,80,127,1790545220
87,18,18,Jits_Linear_8,4,1,48,36,1790573200
87,18,18,Jits_Linear_8,0,5,63,98,1791192384
87,18,18,Jits_Linear_8,1,5,56,103,1791201752
87,18,18,Jits_Linear_8,2,5,80,127,1791204820
87,18,18,Jits_Linear_8,3,1,48,52,1791290152
87,18,18,Jits_Linear_8,0,5,56,103,1791912256
87,18,18,Jits_Linear_8,1,1,48,48,1791984448
87,18,18,Jits_Linear_8,2,5,80,127,1792032276
87,18,18,Jits_Linear_8,3,5,63,98,1792072316
87,18,18,Jits_Linear_8,0,5,56,103,1792661840
87,18,18,Jits_Linear_8,1,1,48,57,1792719940
87,18,18,Jits_Linear_8,2,5,80,127,1792741628
87,18,18,Jits_Linear_8,3,5,63,98,1792762384
87,18,18,Jits_Linear_8,0,5,56,103,1793392372
87,18,18,Jits_Linear_8,1,1,48,57,1793443444
87,18,18,Jits_Linear_8,2,5,63,98,1793501608
87,18,18,Jits_Linear_8,3,5,80,127,1793504896
87,18,18,Jits_Linear_8,0,5,56,103,1794151908
87,18,18,Jits_Linear_8,1,5,80,127,1794181436
87,18,18,Jits_Linear_8,2,1,48,54,1794192348
87,18,18,Jits_Linear_8,3,5,63,98,1794202260
87,18,18,Jits_Linear_8,0,1,48,54,1794860920
87,18,18,Jits_Linear_8,1,5,63,98,1794862412
87,18,18,Jits_Linear_8,2,5,56,103,1794871564
87,18,18,Jits_Linear_8,3,5,80,127,1794881784
87,18,18,Jits_Linear_8,0,5,80,127,1795572340
87,18,18,Jits_Linear_8,1,5,56,103,1795622248
87,18,18,Jits_Linear_8,2,1,48,56,1795625292
87,18,18,Jits_Linear_8,3,5,63,98,1795662204
87,18,18,Jits_Linear_8,0,5,80,127,1796312404
87,18,18,Jits_Linear_8,1,5,63,98,1796331892
87,18,18,Jits_Linear_8,2,1,48,53,1796364076
87,18,18,Jits_Linear_8,3,5,56,103,1796382236
87,18,18,Jits_Linear_8,0,5,80,127,1797041448
87,18,18,Jits_Linear_8,1,5,56,103,1797072396
87,18,18,Jits_Linear_8,2,1,48,47,1797080764
87,18,18,Jits_Linear_8,3,5,63,98,1797142292
87,18,18,Jits_Linear_8,4,1,48,15,1797238088
87,18,18,Jits_Linear_8,0,1,48,56,1797766156
87,18,18,Jits_Linear_8,1,5,56,103,1797811440
87,18,18,Jits_Linear_8,2,5,80,127,1797821936
87,18,18,Jits_Linear_8,3,5,63,98,1797861636
87,18,18,Jits_Linear_8,0,5,56,103,1798442380
87,18,18,Jits_Linear_8,1,5,63,98,1798461672
87,18,18,Jits_Linear_8,2,5,80,127,1798531424
87,18,18,Jits_Linear_8,3,1,48,53,1798545324
87,18,18,Jits_Linear_8,0,5,63,98,1799181616
87,18,18,Jits_Linear_8,1,5,80,127,1799242180
87,18,18,Jits_Linear_8,2,1,48,56,1799258480
87,18,18,Jits_Linear_8,3,5,56,103,1799261512
87,18,18,Jits_Linear_8,4,1,48,14,1799454516
87,18,18,Jits_Linear_8,0,5,80,127,1799892484
87,18,18,Jits_Linear_8,1,5,56,103,1799922084
87,18,18,Jits_Linear_8,2,5,63,98,1799951688
87,18,18,Jits_Linear_8,3,1,48,53,1800024424
87,18,18,Jits_Linear_8,0,5,56,103,1800601900
87,18,18,Jits_Linear_8,1,5,63,98,1800662588
87,18,18,Jits_Linear_8,2,5,80,127,1800721856
87,18,18,Jits_Linear_8,3,1,48,55,1800766272
87,18,18,Jits_Linear_8,0,5,80,127,1801332280
87,18,18,Jits_Linear_8,1,5,56,103,1801351472
87,18,18,Jits_Linear_8,2,5,63,98,1801422124
87,18,18,Jits_Linear_8,3,1,48,48,1801454088
87,18,18,Jits_Linear_8,0,5,80,127,1802041700
87,18,18,Jits_Linear_8,1,5,63,98,1802062084
87,18,18,Jits_Linear_8,2,5,56,103,1802092060
87,18,18,Jits_Linear_8,3,1,48,55,1802149780
87,18,18,Jits_Linear_8,0,5,80,127,1802731984
87,18,18,Jits_Linear_8,1,5,63,98,1802752368
87,18,18,Jits_Linear_8,2,5,56,103,1802811736
87,18,18,Jits_Linear_8,3,1,48,54,1802867812
87,18,18,Jits_Linear_8,0,5,80,127,1803432180
87,18,18,Jits_Linear_8,1,1,48,48,1803515912
87,18,18,Jits_Linear_8,2,5,56,103,1803532120
87,18,18,Jits_Linear_8,3,5,63,98,1803562396
87,18,18,Jits_Linear_8,0,5,63,98,1804121444
87,18,18,Jits_Linear_8,1,5,80,127,1804171792
87,18,18,Jits_Linear_8,2,5,56,103,1804192104
87,18,18,Jits_Linear_8,3,1,48,52,1804224140
87,18,18,Jits_Linear_8,0,5,80,127,1804862004
87,18,18,Jits_Linear_8,1,5,56,103,1804891532
87,18,18,Jits_Linear_8,2,5,63,98,1804894820
87,18,18,Jits_Linear_8,3,1,48,52,1804915176
87,18,18,Jits_Linear_8,0,1,48,52,1805582520
87,18,18,Jits_Linear_8,1,5,63,98,1805592132
87,18,18,Jits_Linear_8,2,5,56,103,1805631800
87,18,18,Jits_Linear_8,3,5,80,127,1805652484
87,18,18,Jits_Linear_8,0,5,80,127,1806231944
87,18,18,Jits_Linear_8,1,5,63,98,1806311892
87,18,18,Jits_Linear_8,2,1,48,53,1806317400
87,18,18,Jits_Linear_8,3,5,56,103,1806351972
87,18,18,Jits_Linear_8,0,5,63,98,1806941516
87,18,18,Jits_Linear_8,1,5,80,127,1807021464
87,18,18,Jits_Linear_8,2,5,56,103,1807042072
87,18,18,Jits_Linear_8,3,1,48,51,1807047060
87,18,18,Jits_Linear_8,0,5,56,103,1807671804
87,18,18,Jits_Linear_8,1,5,63,98,1807682100
87,18,18,Jits_Linear_8,2,1,48,53,1807697052
87,18,18,Jits_Linear_8,3,5,80,127,1807722256
87,18,18,Jits_Linear_8,0,5,56,103,1808282100
87,18,18,Jits_Linear_8,1,5,80,127,1808285092
87,18,18,Jits_Linear_8,2,1,48,46,1808396016
87,18,18,Jits_Linear_8,3,5,63,98,1808422196
87,18,18,Jits_Linear_8,0,5,56,103,1808972100
87,18,18,Jits_Linear_8,1,1,48,54,1809016124
87,18,18,Jits_Linear_8,2,5,63,98,1809062376
87,18,18,Jits_Linear_8,3,5,80,127,1809131968
87,18,18,Jits_Linear_8,0,5,63,98,1809732088
87,18,18,Jits_Linear_8,1,5,80,127,1809735304
87,18,18,Jits_Linear_8,2,1,48,52,1809743600
87,18,18,Jits_Linear_8,3,5,56,103,1809792248
87,18,18,Jits_Linear_8,0,5,80,127,1810451952
87,18,18,Jits_Linear_8,1,5,56,103,1810472188
87,18,18,Jits_Linear_8,2,5,63,98,1810481412
87,18,18,Jits_Linear_8,3,1,48,53,1810490176
87,18,18,Jits_Linear_8,0,5,56,103,1811041948
87,18,18,Jits_Linear_8,1,5,63,98,1811051996
87,18,18,Jits_Linear_8,2,5,80,127,1811121380
87,18,18,Jits_Linear_8,3,1,48,57,1811172520
87,18,18,Jits_Linear_8,0,5,80,127,1811721520
87,18,18,Jits_Linear_8,1,5,56,103,1811771896
87,18,18,Jits_Linear_8,2,1,48,54,1811787076
87,18,18,Jits_Linear_8,3,5,63,98,1811821944
87,18,18,Jits_Linear_8,0,1,48,58,1812468056
87,18,18,Jits_Linear_8,1,5,56,103,1812482476
87,18,18,Jits_Linear_8,2,5,63,98,1812491848
87,18,18,Jits_Linear_8,3,5,80,127,1812531564
87,18,18,Jits_Linear_8,0,5,56,103,1813101984
87,18,18,Jits_Linear_8,1,5,63,98,1813141924
87,18,18,Jits_Linear_8,2,1,48,55,1813151412
87,18,18,Jits_Linear_8,3,5,80,127,1813192040
87,18,18,Jits_Linear_8,0,5,80,127,1813732036
87,18,18,Jits_Linear_8,1,5,56,103,1813782016
87,18,18,Jits_Linear_8,2,5,63,98,1813802252
87,18,18,Jits_Linear_8,3,1,48,57,1813839100
87,18,18,Jits_Linear_8,0,5,80,127,1814411928
87,18,18,Jits_Linear_8,1,1,48,57,1814468384
87,18,18,Jits_Linear_8,2,5,63,98,1814472244
87,18,18,Jits_Linear_8,3,5,56,103,1814552112
87,18,18,Jits_Linear_8,0,5,80,127,1815061836
87,18,18,Jits_Linear_8,1,5,56,103,1815101952
87,18,18,Jits_Linear_8,2,5,63,98,1815122188
87,18,18,Jits_Linear_8,3,1,48,55,1815192356
87,18,18,Jits_Linear_8,0,5,56,103,1815782036
87,18,18,Jits_Linear_8,1,5,80,127,1815791936
87,18,18,Jits_Linear_8,2,1,48,50,1815813560
87,18,18,Jits_Linear_8,3,5,63,98,1815831792
87,18,18,Jits_Linear_8,0,1,48,54,1816485952
87,18,18,Jits_Linear_8,1,5,56,103,1816511828
87,18,18,Jits_Linear_8,2,1,48,33,1816530296
87,18,18,Jits_Linear_8,3,5,63,98,1816551968
87,18,18,Jits_Linear_8,4,5,80,127,1816555184
87,18,18,Jits_Linear_8,0,5,63,98,1817061824
87,18,18,Jits_Linear_8,1,5,80,127,1817101840
87,18,18,Jits_Linear_8,2,5,56,103,1817172296
87,18,18,Jits_Linear_8,3,1,48,47,1817182908
87,18,18,Jits_Linear_8,0,5,63,98,1817711892
87,18,18,Jits_Linear_8,1,5,56,103,1817791912
87,18,18,Jits_Linear_8,2,1,48,49,1817841712
87,18,18,Jits_Linear_8,3,5,80,127,1817852296
87,18,18,Jits_Linear_8,0,5,80,127,1818381784
87,18,18,Jits_Linear_8,1,1,48,52,1818430656
87,18,18,Jits_Linear_8,2,5,63,98,1818432228
87,18,18,Jits_Linear_8,3,5,56,103,1818461752
87,18,18,Jits_Linear_8,0,5,56,103,1819031860
87,18,18,Jits_Linear_8,1,5,63,98,1819082064
87,18,18,Jits_Linear_8,2,5,80,127,1819092408
87,18,18,Jits_Linear_8,3,1,48,49,1819106760
87,18,18,Jits_Linear_8,0,5,56,103,1819701756
87,18,18,Jits_Linear_8,1,1,48,52,1819715812
87,18,18,Jits_Linear_8,2,5,63,98,1819812192
87,18,18,Jits_Linear_8,3,5,80,127,1819831812
87,18,18,Jits_Linear_8,0,5,63,98,1820351964
87,18,18,Jits_Linear_8,1,1,48,48,1820400812
87,18,18,Jits_Linear_8,2,5,80,127,1820402532
87,18,18,Jits_Linear_8,3,5,56,103,1820492092
87,18,18,Jits_Linear_8,0,5,63,98,1820991840
87,18,18,Jits_Linear_8,1,5,80,127,1821021516
87,18,18,Jits_Linear_8,2,1,48,50,1821077220
87,18,18,Jits_Linear_8,3,5,56,103,1821111868
87,18,18,Jits_Linear_8,0,5,63,98,1821642176
87,18,18,Jits_Linear_8,1,5,56,103,1821652300
87,18,18,Jits_Linear_8,2,1,48,54,1821702548
87,18,18,Jits_Linear_8,3,5,80,127,1821752036
87,18,18,Jits_Linear_8,0,1,48,57,1822357760
87,18,18,Jits_Linear_8,1,5,63,98,1822391660
87,18,18,Jits_Linear_8,2,5,80,127,1822422604
87,18,18,Jits_Linear_8,3,5,56,103,1822451968
87,18,18,Jits_Linear_8,0,1,48,51,1823042008
87,18,18,Jits_Linear_8,1,5,80,127,1823052000
87,18,18,Jits_Linear_8,2,5,63,98,1823062268
87,18,18,Jits_Linear_8,3,5,56,103,1823092020
87,18,18,Jits_Linear_8,0,5,80,127,1823591840
87,18,18,Jits_Linear_8,1,5,63,98,1823612152
87,18,18,Jits_Linear_8,2,5,56,103,1823661528
87,18,18,Jits_Linear_8,3,1,48,52,1823687044
87,18,18,Jits_Linear_8,0,5,63,98,1824261596
87,18,18,Jits_Linear_8,1,1,48,55,1824291920
87,18,18,Jits_Linear_8,2,5,80,127,1824321932
87,18,18,Jits_Linear_8,3,5,56,103,1824342316
87,18,18,Jits_Linear_8,0,5,63,98,1824861840
87,18,18,Jits_Linear_8,1,5,56,103,1824911672
87,18,18,Jits_Linear_8,2,5,80,127,1824922164
87,18,18,Jits_Linear_8,3,1,48,48,1824943492
87,18,18,Jits_Linear_8,0,5,56,103,1825532328
87,18,18,Jits_Linear_8,1,5,80,127,1825541552
87,18,18,Jits_Linear_8,2,1,48,48,1825576880
87,18,18,Jits_Linear_8,3,5,63,98,1825641820
87,18,18,Jits_Linear_8,0,5,80,127,1826132216
87,18,18,Jits_Linear_8,1,5,63,98,1826141664
87,18,18,Jits_Linear_8,2,1,48,54,1826263900
87,18,18,Jits_Linear_8,3,5,56,103,1826291948
87,18,18,Jits_Linear_8,0,5,63,98,1826772596
87,18,18,Jits_Linear_8,1,5,80,127,1826812164
87,18,18,Jits_Linear_8,2,1,48,53,1826829600
87,18,18,Jits_Linear_8,3,5,56,103,1826892124
87,18,18,Jits_Linear_8,0,5,56,103,1827391796
87,18,18,Jits_Linear_8,1,5,80,127,1827492120
87,18,18,Jits_Linear_8,2,5,63,98,1827511608
87,18,18,Jits_Linear_8,3,1,48,50,1827536744
87,18,18,Jits_Linear_8,0,5,80,127,1828082012
87,18,18,Jits_Linear_8,1,5,56,103,1828092432
87,18,18,Jits_Linear_8,2,1,48,54,1828150400
87,18,18,Jits_Linear_8,3,5,63,98,1828182580
87,18,18,Jits_Linear_8,4,1,48,33,1828194604
87,18,18,Jits_Linear_8,0,5,56,103,1828711692
87,18,18,Jits_Linear_8,1,5,63,98,1828732152
87,18,18,Jits_Linear_8,2,5,80,127,1828812244
87,18,18,Jits_Linear_8,3,1,48,61,1828817904
87,18,18,Jits_Linear_8,0,5,63,98,1829282108
87,18,18,Jits_Linear_8,1,5,56,103,1829372244
87,18,18,Jits_Linear_8,2,5,80,127,1829375232
87,18,18,Jits_Linear_8,3,1,48,54,1829441240
87,18,18,Jits_Linear_8,0,5,56,103,1829932364
87,18,18,Jits_Linear_8,1,5,80,127,1829991732
87,18,18,Jits_Linear_8,2,5,63,98,1830002152
87,18,18,Jits_Linear_8,3,1,48,57,1830091204
87,18,18,Jits_Linear_8,0,5,80,127,1830602228
87,18,18,Jits_Linear_8,1,5,56,103,1830612496
87,18,18,Jits_Linear_8,2,5,63,98,1830615488
87,18,18,Jits_Linear_8,3,1,48,53,1830662064
87,18,18,Jits_Linear_8,0,5,56,103,1831181776
87,18,18,Jits_Linear_8,1,5,80,127,1831192120
87,18,18,Jits_Linear_8,2,5,63,98,1831212580
87,18,18,Jits_Linear_8,3,1,48,51,1831307268
87,18,18,Jits_Linear_8,0,5,63,98,1831771620
87,18,18,Jits_Linear_8,1,5,80,127,1831831788
87,18,18,Jits_Linear_8,2,5,56,103,1831882064
87,18,18,Jits_Linear_8,3,1,48,46,1831933580
87,18,18,Jits_Linear_8,0,5,63,98,1832471788
87,18,18,Jits_Linear_8,1,5,56,103,1832482060
87,18,18,Jits_Linear_8,2,5,80,127,1832532508
87,18,18,Jits_Linear_8,3,1,48,54,1832550992
87,18,18,Jits_Linear_8,0,5,63,98,1832981872
87,18,18,Jits_Linear_8,1,5,80,127,1833002556
87,18,18,Jits_Linear_8,2,5,56,103,1833011556
87,18,18,Jits_Linear_8,3,1,48,54,1833188340
87,18,18,Jits_Linear_8,0,5,63,98,1833592068
87,18,18,Jits_Linear_8,1,5,80,127,1833595660
87,18,18,Jits_Linear_8,2,5,56,103,1833632012
87,18,18,Jits_Linear_8,3,1,48,52,1833807000
87,18,18,Jits_Linear_8,0,5,63,98,1834272072
87,18,18,Jits_Linear_8,1,5,80,127,1834301920
87,18,18,Jits_Linear_8,2,5,56,103,1834311968
87,18,18,Jits_Linear_8,3,1,48,48,1834523948
87,18,18,Jits_Linear_8,0,5,56,103,1834832304
87,18,18,Jits_Linear_8,1,5,80,127,1834861908
87,18,18,Jits_Linear_8,2,5,63,98,1834891584
87,18,18,Jits_Linear_8,0,5,63,98,1835531772
87,18,18,Jits_Linear_8,1,5,56,103,1835571708
87,18,18,Jits_Linear_8,2,5,80,127,1835574700
87,18,18,Jits_Linear_8,0,1,48,22,1835814260
87,18,18,Jits_Linear_8,1,5,80,127,1836032552
87,18,18,Jits_Linear_8,2,5,56,103,1836112448
87,18,18,Jits_Linear_8,3,5,63,98,1836162576
87,18,18,Jits_Linear_8,4,1,48,40,1836335524
87,18,18,Jits_Linear_8,0,5,80,127,1836612040
87,18,18,Jits_Linear_8,1,5,56,103,1836632352
87,18,18,Jits_Linear_8,2,5,63,98,1836721440
87,18,18,Jits_Linear_8,0,1,48,46,1836996536
87,18,18,Jits_Linear_8,1,5,80,127,1837251900
87,18,18,Jits_Linear_8,2,5,63,98,1837291840
87,18,18,Jits_Linear_8,3,5,56,103,1837331780
87,18,18,Jits_Linear_8,0,5,63,98,1837822468
87,18,18,Jits_Linear_8,1,5,80,127,1837881764
87,18,18,Jits_Linear_8,2,5,56,103,1837912564
87,18,18,Jits_Linear_8,3,1,48,33,1838019500
87,18,18,Jits_Linear_8,0,1,48,27,1838398244
87,18,18,Jits_Linear_8,1,5,56,103,1838422556
87,18,18,Jits_Linear_8,2,5,80,127,1838451936
87,18,18,Jits_Linear_8,3,5,63,98,1838542424
87,18,18,Jits_Linear_8,0,1,48,43,1838960872
87,18,18,Jits_Linear_8,1,5,56,103,1839021504
87,18,18,Jits_Linear_8,2,5,80,127,1839132080
87,18,18,Jits_Linear_8,3,5,63,98,1839161856
87,18,18,Jits_Linear_8,0,5,56,103,1839661448
87,18,18,Jits_Linear_8,1,1,48,51,1839672012
87,18,18,Jits_Linear_8,2,5,63,98,1839721788
87,18,18,Jits_Linear_8,3,5,80,127,1839751684
87,18,18,Jits_Linear_8,0,5,56,103,1840221484
87,18,18,Jits_Linear_8,1,5,63,98,1840292436
87,18,18,Jits_Linear_8,2,5,80,127,1840311624
87,18,18,Jits_Linear_8,3,1,48,55,1840548416
87,18,18,Jits_Linear_8,0,5,80,127,1840781560
87,18,18,Jits_Linear_8,1,5,63,98,1840802392
87,18,18,Jits_Linear_8,2,5,56,103,1840852520
87,18,18,Jits_Linear_8,0,1,48,47,1841206288
87,18,18,Jits_Linear_8,1,5,63,98,1841381628
87,18,18,Jits_Linear_8,2,5,80,127,1841391900
87,18,18,Jits_Linear_8,3,5,56,103,1841442396
87,18,18,Jits_Linear_8,0,5,63,98,1841962308
87,18,18,Jits_Linear_8,1,1,48,44,1841970080
87,18,18,Jits_Linear_8,2,5,80,127,1842032012
87,18,18,Jits_Linear_8,3,5,56,103,1842051352
87,18,18,Jits_Linear_8,0,5,63,98,1842571620
87,18,18,Jits_Linear_8,1,5,80,127,1842574984
87,18,18,Jits_Linear_8,2,5,56,103,1842642352
87,18,18,Jits_Linear_8,3,1,48,50,1842704128
87,18,18,Jits_Linear_8,0,5,80,127,1843102080
87,18,18,Jits_Linear_8,1,5,56,103,1843121420
87,18,18,Jits_Linear_8,2,5,63,98,1843131616
87,18,18,Jits_Linear_8,3,1,48,51,1843337168
87,18,18,Jits_Linear_8,0,5,56,103,1843702236
87,18,18,Jits_Linear_8,1,5,63,98,1843792396
87,18,18,Jits_Linear_8,2,5,80,127,1843795536
87,18,18,Jits_Linear_8,0,1,48,45,1844046924
87,18,18,Jits_Linear_8,1,5,80,127,1844252124
87,18,18,Jits_Linear_8,2,5,56,103,1844262244
87,18,18,Jits_Linear_8,3,5,63,98,1844281608
87,18,18,Jits_Linear_8,0,5,63,98,1844822484
87,18,18,Jits_Linear_8,1,5,80,127,1844881680
87,18,18,Jits_Linear_8,2,5,56,103,1844891880
87,18,18,Jits_Linear_8,3,1,48,43,1845137808
87,18,18,Jits_Linear_8,0,5,63,98,1845462336
87,18,18,Jits_Linear_8,1,5,80,127,1845492236
87,18,18,Jits_Linear_8,2,5,56,103,1845531952
87,18,18,Jits_Linear_8,0,1,48,39,1845780900
87,18,18,Jits_Linear_8,1,5,56,103,1846021440
87,18,18,Jits_Linear_8,2,5,80,127,1846031860
87,18,18,Jits_Linear_8,3,5,63,98,1846071824
87,18,18,Jits_Linear_8,0,5,80,127,1846551920
87,18,18,Jits_Linear_8,1,1,48,47,1846610068
87,18,18,Jits_Linear_8,2,5,56,103,1846631740
87,18,18,Jits_Linear_8,3,5,63,98,1846642160
87,18,18,Jits_Linear_8,0,5,80,127,1847162152
87,18,18,Jits_Linear_8,1,5,56,103,1847242320
87,18,18,Jits_Linear_8,2,5,63,98,1847252516
87,18,18,Jits_Linear_8,3,1,48,48,1847266348
87,18,18,Jits_Linear_8,0,5,80,127,1847682372
87,18,18,Jits_Linear_8,1,5,56,103,1847731528
87,18,18,Jits_Linear_8,2,5,63,98,1847781656
87,18,18,Jits_Linear_8,3,1,48,48,1847913276
87,18,18,Jits_Linear_8,0,5,56,103,1848301784
87,18,18,Jits_Linear_8,1,5,63,98,1848305004
87,18,18,Jits_Linear_8,2,5,80,127,1848352212
87,18,18,Jits_Linear_8,3,1,48,38,1848450356
87,18,18,Jits_Linear_8,0,5,56,103,1848881496
87,18,18,Jits_Linear_8,1,5,63,98,1848912244
87,18,18,Jits_Linear_8,2,5,80,127,1848921392
87,18,18,Jits_Linear_8,3,1,48,46,1849062432
87,18,18,Jits_Linear_8,0,5,63,98,1849351448
87,18,18,Jits_Linear_8,1,5,56,103,1849422276
87,18,18,Jits_Linear_8,2,5,80,127,1849472256
87,18,18,Jits_Linear_8,0,1,48,39,1849725688
87,18,18,Jits_Linear_8,1,5,63,98,1849942412
87,18,18,Jits_Linear_8,2,5,56,103,1849951560
87,18,18,Jits_Linear_8,3,5,80,127,1849954700
87,18,18,Jits_Linear_8,0,5,80,127,1850442392
87,18,18,Jits_Linear_8,1,5,56,103,1850501368
87,18,18,Jits_Linear_8,2,1,48,38,1850509120
87,18,18,Jits_Linear_8,3,5,63,98,1850591644
87,18,18,Jits_Linear_8,0,5,80,127,1851002320
87,18,18,Jits_Linear_8,1,5,56,103,1851101676
87,18,18,Jits_Linear_8,2,5,63,98,1851141392
87,18,18,Jits_Linear_8,3,1,48,43,1851177992
87,18,18,Jits_Linear_8,0,5,56,103,1851602260
87,18,18,Jits_Linear_8,1,5,63,98,1851621676
87,18,18,Jits_Linear_8,2,5,80,127,1851661540
87,18,18,Jits_Linear_8,3,1,48,35,1851751960
87,18,18,Jits_Linear_8,0,5,63,98,1852131696
87,18,18,Jits_Linear_8,1,5,56,103,1852152152
87,18,18,Jits_Linear_8,2,5,80,127,1852251452
87,18,18,Jits_Linear_8,3,1,48,35,1852344392
87,18,18,Jits_Linear_8,0,5,63,98,1852662152
87,18,18,Jits_Linear_8,1,5,80,127,1852771572
87,18,18,Jits_Linear_8,2,5,56,103,1852802368
87,18,18,Jits_Linear_8,3,1,48,40,1852992496
87,18,18,Jits_Linear_8,0,5,56,103,1853222144
87,18,18,Jits_Linear_8,1,5,63,98,1853252216
87,18,18,Jits_Linear_8,2,5,80,127,1853302272
87,18,18,Jits_Linear_8,0,1,48,40,1853634468
87,18,18,Jits_Linear_8,1,5,63,98,1853732112
87,18,18,Jits_Linear_8,2,5,56,103,1853762108
87,18,18,Jits_Linear_8,3,5,80,127,1853812236
87,18,18,Jits_Linear_8,0,5,56,103,1854312068
87,18,18,Jits_Linear_8,1,5,63,98,1854332156
87,18,18,Jits_Linear_8,2,1,48,36,1854337220
87,18,18,Jits_Linear_8,3,5,80,127,1854412240
87,18,18,Jits_Linear_8,0,5,63,98,1854821720
87,18,18,Jits_Linear_8,1,5,56,103,1854882264
87,18,18,Jits_Linear_8,2,5,80,127,1854911864
87,18,18,Jits_Linear_8,3,1,48,45,1854956332
87,18,18,Jits_Linear_8,0,5,56,103,1855402460
87,18,18,Jits_Linear_8,1,5,80,127,1855461732
87,18,18,Jits_Linear_8,2,1,48,43,1855500840
87,18,18,Jits_Linear_8,3,5,63,98,1855502412
87,18,18,Jits_Linear_8,0,5,63,98,1855912344
87,18,18,Jits_Linear_8,1,5,56,103,1855971692
87,18,18,Jits_Linear_8,2,5,80,127,1856042272
87,18,18,Jits_Linear_8,3,1,48,45,1856074784
87,18,18,Jits_Linear_8,0,5,56,103,1856521564
87,18,18,Jits_Linear_8,1,5,63,98,1856531832
87,18,18,Jits_Linear_8,2,5,80,127,1856535124
87,18,18,Jits_Linear_8,3,1,48,42,1856589580
87,18,18,Jits_Linear_8,0,5,63,98,1856991580
87,18,18,Jits_Linear_8,1,5,56,103,1857052120
87,18,18,Jits_Linear_8,2,5,80,127,1857055112
87,18,18,Jits_Linear_8,3,1,48,43,1857177364
87,18,18,Jits_Linear_8,0,5,63,98,1857501512
87,18,18,Jits_Linear_8,1,5,80,127,1857532384
87,18,18,Jits_Linear_8,2,5,56,103,1857551720
87,18,18,Jits_Linear_8,3,1,48,42,1857675552
87,18,18,Jits_Linear_8,0,5,56,103,1858031976
87,18,18,Jits_Linear_8,1,5,63,98,1858082256
87,18,18,Jits_Linear_8,2,5,80,127,1858162152
87,18,18,Jits_Linear_8,3,1,48,40,1858270456
87,18,18,Jits_Linear_8,0,5,80,127,1858531596
87,18,18,Jits_Linear_8,1,5,63,98,1858571612
87,18,18,Jits_Linear_8,2,5,56,103,1858592072
87,18,18,Jits_Linear_8,3,1,48,40,1858839576
87,18,18,Jits_Linear_8,0,5,56,103,1859121560
87,18,18,Jits_Linear_8,1,5,80,127,1859131708
87,18,18,Jits_Linear_8,2,5,63,98,1859152316
87,18,18,Jits_Linear_8,3,1,48,44,1859341072
87,18,18,Jits_Linear_8,0,5,56,103,1859622220
87,18,18,Jits_Linear_8,1,5,63,98,1859672376
87,18,18,Jits_Linear_8,2,5,80,127,1859702124
87,18,18,Jits_Linear_8,0,1,48,50,1859963452
87,18,18,Jits_Linear_8,1,5,56,103,1860092260
87,18,18,Jits_Linear_8,2,5,63,98,1860101484
87,18,18,Jits_Linear_8,3,5,80,127,1860151856
87,18,18,Jits_Linear_8,0,1,48,41,1860551236
87,18,18,Jits_Linear_8,1,5,56,103,1860602124
87,18,18,Jits_Linear_8,2,5,80,127,1860605344
87,18,18,Jits_Linear_8,3,5,63,98,1860762172
87,18,18,Jits_Linear_8,0,5,63,98,1861131776
87,18,18,Jits_Linear_8,1,1,48,40,1861193656
87,18,18,Jits_Linear_8,2,5,56,103,1861202152
87,18,18,Jits_Linear_8,3,5,80,127,1861242088
87,18,18,Jits_Linear_8,0,5,63,98,1861681504
87,18,18,Jits_Linear_8,1,1,48,43,1861750432
87,18,18,Jits_Linear_8,2,5,56,103,1861771656
87,18,18,Jits_Linear_8,3,5,80,127,1861774500
87,18,18,Jits_Linear_8,0,5,56,103,1862171964
87,18,18,Jits_Linear_8,1,5,63,98,1862262124
87,18,18,Jits_Linear_8,2,5,80,127,1862272320
87,18,18,Jits_Linear_8,3,1,48,42,1862330732
87,18,18,Jits_Linear_8,0,5,56,103,1862652252
87,18,18,Jits_Linear_8,1,5,63,98,1862701336
87,18,18,Jits_Linear_8,2,5,80,127,1862732156
87,18,18,Jits_Linear_8,3,1,48,48,1862787116
87,18,18,Jits_Linear_8,0,1,48,46,1863196788
87,18,18,Jits_Linear_8,1,5,63,98,1863231832
87,18,18,Jits_Linear_8,2,5,80,127,1863242180
87,18,18,Jits_Linear_8,3,5,56,103,1863301432
87,18,18,Jits_Linear_8,0,5,63,98,1863651996
87,18,18,Jits_Linear_8,1,5,80,127,1863712240
87,18,18,Jits_Linear_8,2,1,48,41,1863746924
87,18,18,Jits_Linear_8,3,5,56,103,1863752048
87,18,18,Jits_Linear_8,0,1,48,39,1864182288
87,18,18,Jits_Linear_8,1,5,56,103,1864251940
87,18,18,Jits_Linear_8,2,5,80,127,1864272104
87,18,18,Jits_Linear_8,3,5,63,98,1864291872
87,18,18,Jits_Linear_8,0,5,63,98,1864671592
87,18,18,Jits_Linear_8,1,5,56,103,1864692052
87,18,18,Jits_Linear_8,2,1,48,40,1864709172
87,18,18,Jits_Linear_8,3,5,80,127,1864732056
87,18,18,Jits_Linear_8,0,1,48,42,1865153100
87,18,18,Jits_Linear_8,1,5,63,98,1865181672
87,18,18,Jits_Linear_8,2,5,80,127,1865212172
87,18,18,Jits_Linear_8,3,5,56,103,1865231808
87,18,18,Jits_Linear_8,0,1,48,41,1865630008
87,18,18,Jits_Linear_8,1,5,80,127,1865651532
87,18,18,Jits_Linear_8,2,5,56,103,1865702032
87,18,18,Jits_Linear_8,3,5,63,98,1865762036
87,18,18,Jits_Linear_8,0,5,63,98,1866131960
87,18,18,Jits_Linear_8,1,1,48,40,1866152244
87,18,18,Jits_Linear_8,2,5,56,103,1866251524
87,18,18,Jits_Linear_8,3,5,80,127,1866282244
87,18,18,Jits_Linear_8,0,5,80,127,1866662140
87,18,18,Jits_Linear_8,1,5,63,98,1866681852
87,18,18,Jits_Linear_8,2,1,48,34,1866701380
87,18,18,Jits_Linear_8,3,5,56,103,1866752272
87,18,18,Jits_Linear_8,0,5,63,98,1867172172
87,18,18,Jits_Linear_8,1,5,56,103,1867181396
87,18,18,Jits_Linear_8,2,1,48,43,1867192684
87,18,18,Jits_Linear_8,3,5,80,127,1867262304
87,18,18,Jits_Linear_8,0,1,48,43,1867674440
87,18,18,Jits_Linear_8,1,5,56,103,1867722048
87,18,18,Jits_Linear_8,2,5,80,127,1867751728
87,18,18,Jits_Linear_8,3,5,63,98,1867761996
87,18,18,Jits_Linear_8,0,9999,9999,9999,1757339704
87,18,18,Jits_Linear_8,1,9999,9999,9999,1758159948
87,18,18,Jits_Linear_8,2,9999,9999,9999,1758979176
87,18,18,Jits_Linear_8,3,9999,9999,9999,1759799376
87,18,18,Jits_Linear_8,4,9999,9999,9999,1760619592
87,18,18,Jits_Linear_8,5,9999,9999,9999,1761429592
87,18,18,Jits_Linear_8,6,9999,9999,9999,1762239600
87,18,18,Jits_Linear_8,7,9999,9999,9999,1763049556
87,18,18,Jits_Linear_8,8,9999,9999,9999,1763859520
87,18,18,Jits_Linear_8,9,9999,9999,9999,1764669548
87,18,18,Jits_Linear_8,10,9999,9999,9999,1765469248
87,18,18,Jits_Linear_8,11,9999,9999,9999,1766270048
87,18,18,Jits_Linear_8,12,9999,9999,9999,1767069804
87,18,18,Jits_Linear_8,13,9999,9999,9999,1767869496
87,18,18,Jits_Linear_8,14,9999,9999,9999,1768669240
87,18,18,Jits_Linear_8,15,9999,9999,9999,1769459784
87,18,18,Jits_Linear_8,16,9999,9999,9999,1770249308
87,18,18,Jits_Linear_8,17,9999,9999,9999,1771039864
87,18,18,Jits_Linear_8,18,9999,9999,9999,1771829360
87,18,18,Jits_Linear_8,19,9999,9999,9999,1772619860
87,18,18,Jits_Linear_8,20,9999,9999,9999,1773399156
87,18,18,Jits_Linear_8,21,9999,9999,9999,1774179428
87,18,18,Jits_Linear_8,22,9999,9999,9999,1774959708
87,18,18,Jits_Linear_8,23,9999,9999,9999,1775739996
87,18,18,Jits_Linear_8,24,9999,9999,9999,1776519292
87,18,18,Jits_Linear_8,25,9999,9999,9999,1777289300
87,18,18,Jits_Linear_8,26,9999,9999,9999,1778059328
87,18,18,Jits_Linear_8,27,9999,9999,9999,1778829424
87,18,18,Jits_Linear_8,28,9999,9999,9999,1779599448
87,18,18,Jits_Linear_8,29,9999,9999,9999,1780369484
87,18,18,Jits_Linear_8,30,9999,9999,9999,1781129284
87,18,18,Jits_Linear_8,31,9999,9999,9999,1781889084
87,18,18,Jits_Linear_8,32,9999,9999,9999,1782649960
87,18,18,Jits_Linear_8,33,9999,9999,9999,1783409792
87,18,18,Jits_Linear_8,34,9999,9999,9999,1784169552
87,18,18,Jits_Linear_8,35,9999,9999,9999,1784919136
87,18,18,Jits_Linear_8,36,9999,9999,9999,1785669748
87,18,18,Jits_Linear_8,37,9999,9999,9999,1786419300
87,18,18,Jits_Linear_8,38,9999,9999,9999,1787169908
87,18,18,Jits_Linear_8,39,9999,9999,9999,1787919484
87,18,18,Jits_Linear_8,40,9999,9999,9999,1788659768
87,18,18,Jits_Linear_8,41,9999,9999,9999,1789399152
87,18,18,Jits_Linear_8,42,9999,9999,9999,1790139492
87,18,18,Jits_Linear_8,43,9999,9999,9999,1790879816
87,18,18,Jits_Linear_8,44,9999,9999,9999,1791619164
87,18,18,Jits_Linear_8,45,9999,9999,9999,1792349248
87,18,18,Jits_Linear_8,46,9999,9999,9999,1793079396
87,18,18,Jits_Linear_8,47,9999,9999,9999,1793809476
87,18,18,Jits_Linear_8,48,9999,9999,9999,1794539648
87,18,18,Jits_Linear_8,49,9999,9999,9999,1795269736
87,18,18,Jits_Linear_8,50,9999,9999,9999,1795989628
87,18,18,Jits_Linear_8,51,9999,9999,9999,1796709460
87,18,18,Jits_Linear_8,52,9999,9999,9999,1797429320
87,18,18,Jits_Linear_8,53,9999,9999,9999,1798149220
87,18,18,Jits_Linear_8,54,9999,9999,9999,1798870076
87,18,18,Jits_Linear_8,55,9999,9999,9999,1799589960
87,18,18,Jits_Linear_8,56,9999,9999,9999,1800299576
87,18,18,Jits_Linear_8,57,9999,9999,9999,1801009268
87,18,18,Jits_Linear_8,58,9999,9999,9999,1801719876
87,18,18,Jits_Linear_8,59,9999,9999,9999,1802429512
87,18,18,Jits_Linear_8,60,9999,9999,9999,1803129936
87,18,18,Jits_Linear_8,61,9999,9999,9999,1803829368
87,18,18,Jits_Linear_8,62,9999,9999,9999,1804529780
87,18,18,Jits_Linear_8,63,9999,9999,9999,1805229136
87,18,18,Jits_Linear_8,64,9999,9999,9999,1805929564
87,18,18,Jits_Linear_8,65,9999,9999,9999,1806619764
87,18,18,Jits_Linear_8,66,9999,9999,9999,1807309932
87,18,18,Jits_Linear_8,67,9999,9999,9999,1808000088
87,18,18,Jits_Linear_8,68,9999,9999,9999,1808699452
87,18,18,Jits_Linear_8,69,9999,9999,9999,1809389664
87,18,18,Jits_Linear_8,70,9999,9999,9999,1810069628
87,18,18,Jits_Linear_8,71,9999,9999,9999,1810749520
87,18,18,Jits_Linear_8,72,9999,9999,9999,1811429464
87,18,18,Jits_Linear_8,73,9999,9999,9999,1812109436
87,18,18,Jits_Linear_8,74,9999,9999,9999,1812789320
87,18,18,Jits_Linear_8,75,9999,9999,9999,1813460060
87,18,18,Jits_Linear_8,76,9999,9999,9999,1814129768
87,18,18,Jits_Linear_8,77,9999,9999,9999,1814799452
87,18,18,Jits_Linear_8,78,9999,9999,9999,1815469156
87,18,18,Jits_Linear_8,79,9999,9999,9999,1816139836
87,18,18,Jits_Linear_8,80,9999,9999,9999,1816799312
87,18,18,Jits_Linear_8,81,9999,9999,9999,1817459784
87,18,18,Jits_Linear_8,82,9999,9999,9999,1818119264
87,18,18,Jits_Linear_8,83,9999,9999,9999,1818779736
87,18,18,Jits_Linear_8,84,9999,9999,9999,1819439228
87,18,18,Jits_Linear_8,85,9999,9999,9999,1820089428
87,18,18,Jits_Linear_8,86,9999,9999,9999,1820739660
87,18,18,Jits_Linear_8,87,9999,9999,9999,1821389920
87,18,18,Jits_Linear_8,88,9999,9999,9999,1822039156
87,18,18,Jits_Linear_8,89,9999,9999,9999,1822689360
87,18,18,Jits_Linear_8,90,9999,9999,9999,1823329396
87,18,18,Jits_Linear_8,91,9999,9999,9999,1823969392
87,18,18,Jits_Linear_8,92,9999,9999,9999,1824609360
87,18,18,Jits_Linear_8,93,9999,9999,9999,1825249356
87,18,18,Jits_Linear_8,94,9999,9999,9999,1825889384
87,18,18,Jits_Linear_8,95,9999,9999,9999,1826519128
87,18,18,Jits_Linear_8,96,9999,9999,9999,1827149880
87,18,18,Jits_Linear_8,97,9999,9999,9999,1827779692
87,18,18,Jits_Linear_8,98,9999,9999,9999,1828409448
87,18,18,Jits_Linear_8,99,9999,9999,9999,1829039204
87,18,18,Jits_Linear_8,100,9999,9999,9999,1829659728
87,18,18,Jits_Linear_8,101,9999,9999,9999,1830279232
87,18,18,Jits_Linear_8,102,9999,9999,9999,1830899832
87,18,18,Jits_Linear_8,103,9999,9999,9999,1831519348
87,18,18,Jits_Linear_8,104,9999,9999,9999,1832139884
87,18,18,Jits_Linear_8,105,9999,9999,9999,1832749180
87,18,18,Jits_Linear_8,106,9999,9999,9999,1833359448
87,18,18,Jits_Linear_8,107,9999,9999,9999,1833969760
87,18,18,Jits_Linear_8,108,9999,9999,9999,1834580068
87,18,18,Jits_Linear_8,109,9999,9999,9999,1835189356
87,18,18,Jits_Linear_8,110,9999,9999,9999,1835789376
87,18,18,Jits_Linear_8,111,9999,9999,9999,1836389476
87,18,18,Jits_Linear_8,112,9999,9999,9999,1836989540
87,18,18,Jits_Linear_8,113,9999,9999,9999,1837589620
87,18,18,Jits_Linear_8,114,9999,9999,9999,1838189640
87,18,18,Jits_Linear_8,115,9999,9999,9999,1838779444
87,18,18,Jits_Linear_8,116,9999,9999,9999,1839369332
87,18,18,Jits_Linear_8,117,9999,9999,9999,1839959096
87,18,18,Jits_Linear_8,118,9999,9999,9999,1840549984
87,18,18,Jits_Linear_8,119,9999,9999,9999,1841139804
87,18,18,Jits_Linear_8,120,9999,9999,9999,1841719372
87,18,18,Jits_Linear_8,121,9999,9999,9999,1842299960
87,18,18,Jits_Linear_8,122,9999,9999,9999,1842879568
87,18,18,Jits_Linear_8,123,9999,9999,9999,1843459180
87,18,18,Jits_Linear_8,124,9999,9999,9999,1844039752
87,18,18,Jits_Linear_8,125,9999,9999,9999,1844609120
87,18,18,Jits_Linear_8,126,9999,9999,9999,1845179456
87,18,18,Jits_Linear_8,127,9999,9999,9999,1845749864
87,18,18,Jits_Linear_8,128,9999,9999,9999,1846319156
87,18,18,Jits_Linear_8,129,9999,9999,9999,1846889576
87,18,18,Jits_Linear_8,130,9999,9999,9999,1847449656
87,18,18,Jits_Linear_8,131,9999,9999,9999,1848009808
87,18,18,Jits_Linear_8,132,9999,9999,9999,1848569956
87,18,18,Jits_Linear_8,133,9999,9999,9999,1849130060
87,18,18,Jits_Linear_8,134,9999,9999,9999,1849689196
87,18,18,Jits_Linear_8,135,9999,9999,9999,1850240116
87,18,18,Jits_Linear_8,136,9999,9999,9999,1850799204
87,18,18,Jits_Linear_8,137,9999,9999,9999,1851350140
87,18,18,Jits_Linear_8,138,9999,9999,9999,1851909244
87,18,18,Jits_Linear_8,139,9999,9999,9999,1852459128
87,18,18,Jits_Linear_8,140,9999,9999,9999,1852999748
87,18,18,Jits_Linear_8,141,9999,9999,9999,1853539440
87,18,18,Jits_Linear_8,142,9999,9999,9999,1854080116
87,18,18,Jits_Linear_8,143,9999,9999,9999,1854629988
87,18,18,Jits_Linear_8,144,9999,9999,9999,1855169612
87,18,18,Jits_Linear_8,145,9999,9999,9999,1855700080
87,18,18,Jits_Linear_8,146,9999,9999,9999,1856229448
87,18,18,Jits_Linear_8,147,9999,9999,9999,1856759916
87,18,18,Jits_Linear_8,148,9999,9999,9999,1857289340
87,18,18,Jits_Linear_8,149,9999,9999,9999,1857819728
87,18,18,Jits_Linear_8,150,9999,9999,9999,1858339956
87,18,18,Jits_Linear_8,151,9999,9999,9999,1858859120
87,18,18,Jits_Linear_8,152,9999,9999,9999,1859379264
87,18,18,Jits_Linear_8,153,9999,9999,9999,1859899512
87,18,18,Jits_Linear_8,154,9999,9999,9999,1860419664
87,18,18,Jits_Linear_8,155,9999,9999,9999,1860929592
87,18,18,Jits_Linear_8,156,9999,9999,9999,1861439612
87,18,18,Jits_Linear_8,157,9999,9999,9999,1861949552
87,18,18,Jits_Linear_8,158,9999,9999,9999,1862459500
87,18,18,Jits_Linear_8,159,9999,9999,9999,1862969452
87,18,18,Jits_Linear_8,160,9999,9999,9999,1863469128
87,18,18,Jits_Linear_8,161,9999,9999,9999,1863969848
87,18,18,Jits_Linear_8,162,9999,9999,9999,1864469608
87,18,18,Jits_Linear_8,163,9999,9999,9999,1864969284
87,18,18,Jits_Linear_8,164,9999,9999,9999,1865470008
87,18,18,Jits_Linear_8,165,9999,9999,9999,1865959500
87,18,18,Jits_Linear_8,166,9999,9999,9999,1866450040
87,18,18,Jits_Linear_8,167,9999,9999,9999,1866939456
87,18,18,Jits_Linear_8,168,9999,9999,9999,1867430012
87,18,18,Jits_Linear_8,169,9999,9999,9999,1867919440
87,19,19,Jits_Linear_5,0,5,56,103,1876443584
87,19,19,Jits_Linear_5,1,5,63,98,1876446604
87,19,19,Jits_Linear_5,2,5,80,127,1876449800
87,19,19,Jits_Linear_5,0,5,56,103,1876923596
87,19,19,Jits_Linear_5,1,5,63,98,1876926768
87,19,19,Jits_Linear_5,2,5,80,127,1876930044
87,19,19,Jits_Linear_5,0,1,48,49,1877219548
87,19,19,Jits_Linear_5,1,5,56,103,1877403984
87,19,19,Jits_Linear_5,2,5,80,127,1877414404
87,19,19,Jits_Linear_5,3,5,63,98,1877433668
87,19,19,Jits_Linear_5,0,1,48,37,1877756256
87,19,19,Jits_Linear_5,1,5,63,98,1877834008
87,19,19,Jits_Linear_5,2,5,80,127,1877863892
87,19,19,Jits_Linear_5,3,5,56,103,1877874016
87,19,19,Jits_Linear_5,0,1,48,46,1878260504
87,19,19,Jits_Linear_5,1,5,80,127,1878373692
87,19,19,Jits_Linear_5,2,5,56,103,1878383960
87,19,19,Jits_Linear_5,3,5,63,98,1878413564
87,19,19,Jits_Linear_5,0,1,48,40,1878844828
87,19,19,Jits_Linear_5,1,5,63,98,1878853992
87,19,19,Jits_Linear_5,2,5,56,103,1878883820
87,19,19,Jits_Linear_5,3,5,80,127,1878893868
87,19,19,Jits_Linear_5,0,5,56,103,1879294476
87,19,19,Jits_Linear_5,1,1,48,44,1879333044
87,19,19,Jits_Linear_5,2,5,63,98,1879343700
87,19,19,Jits_Linear_5,3,5,80,127,1879363888
87,19,19,Jits_Linear_5,0,5,80,127,1879783768
87,19,19,Jits_Linear_5,1,1,48,43,1879814388
87,19,19,Jits_Linear_5,2,5,63,98,1879834040
87,19,19,Jits_Linear_5,3,5,56,103,1879873856
87,19,19,Jits_Linear_5,0,5,56,103,1880274256
87,19,19,Jits_Linear_5,1,5,63,98,1880304004
87,19,19,Jits_Linear_5,2,1,48,36,1880307568
87,19,19,Jits_Linear_5,3,5,80,127,1880373704
87,19,19,Jits_Linear_5,0,5,56,103,1880763768
87,19,19,Jits_Linear_5,1,1,48,38,1880773864
87,19,19,Jits_Linear_5,2,5,80,127,1880824156
87,19,19,Jits_Linear_5,3,5,63,98,1880853980
87,19,19,Jits_Linear_5,0,1,48,38,1881262952
87,19,19,Jits_Linear_5,1,5,56,103,1881264444
87,19,19,Jits_Linear_5,2,5,63,98,1881273740
87,19,19,Jits_Linear_5,3,5,80,127,1881313604
87,19,19,Jits_Linear_5,0,1,48,42,1881747544
87,19,19,Jits_Linear_5,1,5,63,98,1881753868
87,19,19,Jits_Linear_5,2,5,80,127,1881833888
87,19,19,Jits_Linear_5,3,5,56,103,1881844144
87,19,19,Jits_Linear_5,0,1,48,43,1882239656
87,19,19,Jits_Linear_5,1,5,63,98,1882303828
87,19,19,Jits_Linear_5,2,5,56,103,1882343828
87,19,19,Jits_Linear_5,3,5,80,127,1882346820
87,19,19,Jits_Linear_5,0,5,56,103,1882763808
87,19,19,Jits_Linear_5,1,5,63,98,1882774080
87,19,19,Jits_Linear_5,2,1,48,39,1882787608
87,19,19,Jits_Linear_5,3,5,80,127,1882814012
87,19,19,Jits_Linear_5,0,1,48,48,1883244972
87,19,19,Jits_Linear_5,1,5,56,103,1883254136
87,19,19,Jits_Linear_5,2,5,63,98,1883257128
87,19,19,Jits_Linear_5,3,5,80,127,1883273696
87,19,19,Jits_Linear_5,0,1,48,47,1883709644
87,19,19,Jits_Linear_5,1,5,80,127,1883774412
87,19,19,Jits_Linear_5,2,5,56,103,1883783640
87,19,19,Jits_Linear_5,3,5,63,98,1883854204
87,19,19,Jits_Linear_5,0,1,48,46,1884225824
87,19,19,Jits_Linear_5,1,5,63,98,1884274104
87,19,19,Jits_Linear_5,2,5,56,103,1884293668
87,19,19,Jits_Linear_5,3,5,80,127,1884374644
87,19,19,Jits_Linear_5,0,1,48,50,1884747684
87,19,19,Jits_Linear_5,1,5,56,103,1884794168
87,19,19,Jits_Linear_5,2,5,80,127,1884834036
87,19,19,Jits_Linear_5,3,5,63,98,1884844588
87,19,19,Jits_Linear_5,0,1,48,43,1885286036
87,19,19,Jits_Linear_5,1,5,80,127,1885293932
87,19,19,Jits_Linear_5,2,5,63,98,1885323608
87,19,19,Jits_Linear_5,3,5,56,103,1885363548
87,19,19,Jits_Linear_5,0,1,48,46,1885789536
87,19,19,Jits_Linear_5,1,5,56,103,1885824412
87,19,19,Jits_Linear_5,2,5,63,98,1885854092
87,19,19,Jits_Linear_5,3,5,80,127,1885904276
87,19,19,Jits_Linear_5,0,1,48,48,1886293140
87,19,19,Jits_Linear_5,1,5,80,127,1886334516
87,19,19,Jits_Linear_5,2,5,56,103,1886374684
87,19,19,Jits_Linear_5,3,5,63,98,1886383460
87,19,19,Jits_Linear_5,0,5,80,127,1886833916
87,19,19,Jits_Linear_5,1,5,63,98,1886873932
87,19,19,Jits_Linear_5,2,1,48,34,1886912120
87,19,19,Jits_Linear_5,3,5,56,103,1886934612
87,19,19,Jits_Linear_5,0,5,56,103,1887354220
87,19,19,Jits_Linear_5,1,5,80,127,1887363596
87,19,19,Jits_Linear_5,2,1,48,48,1887406644
87,19,19,Jits_Linear_5,3,5,63,98,1887444504
87,19,19,Jits_Linear_5,0,5,80,127,1887874528
87,19,19,Jits_Linear_5,1,1,48,46,1887895184
87,19,19,Jits_Linear_5,2,5,63,98,1887933720
87,19,19,Jits_Linear_5,3,5,56,103,1887963396
87,19,19,Jits_Linear_5,0,5,56,103,1888393564
87,19,19,Jits_Linear_5,1,1,48,50,1888399896
87,19,19,Jits_Linear_5,2,5,80,127,1888453952
87,19,19,Jits_Linear_5,3,5,63,98,1888493964
87,19,19,Jits_Linear_5,0,1,48,46,1888922688
87,19,19,Jits_Linear_5,1,5,56,103,1888974328
87,19,19,Jits_Linear_5,2,5,63,98,1888984376
87,19,19,Jits_Linear_5,3,5,80,127,1888987812
87,19,19,Jits_Linear_5,0,5,80,127,1889453488
87,19,19,Jits_Linear_5,1,1,48,46,1889475936
87,19,19,Jits_Linear_5,2,5,63,98,1889543616
87,19,19,Jits_Linear_5,3,5,56,103,1889553740
87,19,19,Jits_Linear_5,0,5,56,103,1889983888
87,19,19,Jits_Linear_5,1,5,63,98,1889986908
87,19,19,Jits_Linear_5,2,1,48,49,1889988252
87,19,19,Jits_Linear_5,3,5,80,127,1889991072
87,19,19,Jits_Linear_5,0,1,48,50,1890487888
87,19,19,Jits_Linear_5,1,5,80,127,1890533700
87,19,19,Jits_Linear_5,2,5,63,98,1890583892
87,19,19,Jits_Linear_5,3,5,56,103,1890613592
87,19,19,Jits_Linear_5,0,5,56,103,1891043736
87,19,19,Jits_Linear_5,1,1,48,50,1891050292
87,19,19,Jits_Linear_5,2,5,80,127,1891054076
87,19,19,Jits_Linear_5,3,5,63,98,1891123612
87,19,19,Jits_Linear_5,0,1,48,47,1891548168
87,19,19,Jits_Linear_5,1,5,56,103,1891584388
87,19,19,Jits_Linear_5,2,5,63,98,1891603876
87,19,19,Jits_Linear_5,3,5,80,127,1891664280
87,19,19,Jits_Linear_5,0,1,48,44,1892072516
87,19,19,Jits_Linear_5,1,5,80,127,1892113748
87,19,19,Jits_Linear_5,2,5,63,98,1892184564
87,19,19,Jits_Linear_5,3,5,56,103,1892203752
87,19,19,Jits_Linear_5,0,1,48,47,1892642704
87,19,19,Jits_Linear_5,1,5,80,127,1892673996
87,19,19,Jits_Linear_5,2,5,56,103,1892684340
87,19,19,Jits_Linear_5,3,5,63,98,1892694612
87,19,19,Jits_Linear_5,0,1,48,46,1893162692
87,19,19,Jits_Linear_5,1,5,80,127,1893204468
87,19,19,Jits_Linear_5,2,5,56,103,1893223660
87,19,19,Jits_Linear_5,3,5,63,98,1893293552
87,19,19,Jits_Linear_5,0,1,48,45,1893692972
87,19,19,Jits_Linear_5,1,5,56,103,1893754432
87,19,19,Jits_Linear_5,2,5,80,127,1893783812
87,19,19,Jits_Linear_5,3,5,63,98,1893804328
87,19,19,Jits_Linear_5,0,1,48,40,1894277912
87,19,19,Jits_Linear_5,1,5,63,98,1894293980
87,19,19,Jits_Linear_5,2,5,56,103,1894354372
87,19,19,Jits_Linear_5,3,5,80,127,1894383884
87,19,19,Jits_Linear_5,0,1,48,46,1894799024
87,19,19,Jits_Linear_5,1,5,63,98,1894833452
87,19,19,Jits_Linear_5,2,5,80,127,1894836740
87,19,19,Jits_Linear_5,3,5,56,103,1894923496
87,19,19,Jits_Linear_5,0,1,48,47,1895350848
87,19,19,Jits_Linear_5,1,5,56,103,1895404004
87,19,19,Jits_Linear_5,2,5,63,98,1895433608
87,19,19,Jits_Linear_5,3,5,80,127,1895473384
87,19,19,Jits_Linear_5,0,1,48,45,1895941588
87,19,19,Jits_Linear_5,1,5,63,98,1895953820
87,19,19,Jits_Linear_5,2,5,56,103,1895993784
87,19,19,Jits_Linear_5,3,5,80,127,1896014616
87,19,19,Jits_Linear_5,0,1,48,47,1896495440
87,19,19,Jits_Linear_5,1,5,63,98,1896513920
87,19,19,Jits_Linear_5,2,5,56,103,1896553716
87,19,19,Jits_Linear_5,3,5,80,127,1896564356
87,19,19,Jits_Linear_5,0,1,48,49,1897008752
87,19,19,Jits_Linear_5,1,5,80,127,1897044400
87,19,19,Jits_Linear_5,2,5,63,98,1897113924
87,19,19,Jits_Linear_5,3,5,56,103,1897133412
87,19,19,Jits_Linear_5,0,5,56,103,1897594148
87,19,19,Jits_Linear_5,1,5,80,127,1897613636
87,19,19,Jits_Linear_5,2,1,48,48,1897638624
87,19,19,Jits_Linear_5,3,5,63,98,1897653568
87,19,19,Jits_Linear_5,0,1,48,46,1898161552
87,19,19,Jits_Linear_5,1,5,63,98,1898163520
87,19,19,Jits_Linear_5,2,5,80,127,1898183980
87,19,19,Jits_Linear_5,3,5,56,103,1898224068
87,19,19,Jits_Linear_5,0,5,63,98,1898723748
87,19,19,Jits_Linear_5,1,1,48,40,1898742388
87,19,19,Jits_Linear_5,2,5,56,103,1898744124
87,19,19,Jits_Linear_5,3,5,80,127,1898754544
87,19,19,Jits_Linear_5,0,5,80,127,1899283968
87,19,19,Jits_Linear_5,1,1,48,45,1899285004
87,19,19,Jits_Linear_5,2,5,56,103,1899304348
87,19,19,Jits_Linear_5,3,5,63,98,1899334272
87,19,19,Jits_Linear_5,0,1,48,40,1899825136
87,19,19,Jits_Linear_5,1,5,56,103,1899923924
87,19,19,Jits_Linear_5,2,5,80,127,1899927068
87,19,19,Jits_Linear_5,3,5,63,98,1899944236
87,19,19,Jits_Linear_5,0,1,48,40,1900394080
87,19,19,Jits_Linear_5,1,5,63,98,1900414332
87,19,19,Jits_Linear_5,2,5,56,103,1900444084
87,19,19,Jits_Linear_5,3,5,80,127,1900504312
87,19,19,Jits_Linear_5,0,1,48,39,1900971468
87,19,19,Jits_Linear_5,1,5,63,98,1901063496
87,19,19,Jits_Linear_5,2,5,56,103,1901073752
87,19,19,Jits_Linear_5,3,5,80,127,1901084472
87,19,19,Jits_Linear_5,0,1,48,44,1901536032
87,19,19,Jits_Linear_5,1,5,56,103,1901583716
87,19,19,Jits_Linear_5,2,5,80,127,1901613468
87,19,19,Jits_Linear_5,3,5,63,98,1901623764
87,19,19,Jits_Linear_5,0,1,48,44,1902067332
87,19,19,Jits_Linear_5,1,5,63,98,1902204336
87,19,19,Jits_Linear_5,2,5,56,103,1902213488
87,19,19,Jits_Linear_5,3,5,80,127,1902234096
87,19,19,Jits_Linear_5,0,1,48,49,1902693232
87,19,19,Jits_Linear_5,1,5,56,103,1902704268
87,19,19,Jits_Linear_5,2,5,63,98,1902764508
87,19,19,Jits_Linear_5,3,5,80,127,1902767800
87,19,19,Jits_Linear_5,0,1,48,43,1903247292
87,19,19,Jits_Linear_5,1,5,80,127,1903304116
87,19,19,Jits_Linear_5,2,5,56,103,1903314316
87,19,19,Jits_Linear_5,3,5,63,98,1903384056
87,19,19,Jits_Linear_5,0,1,48,44,1903841624
87,19,19,Jits_Linear_5,1,5,80,127,1903874456
87,19,19,Jits_Linear_5,2,5,56,103,1903944004
87,19,19,Jits_Linear_5,3,5,63,98,1903954272
87,19,19,Jits_Linear_5,0,1,48,45,1904412784
87,19,19,Jits_Linear_5,1,5,63,98,1904493900
87,19,19,Jits_Linear_5,2,5,56,103,1904504096
87,19,19,Jits_Linear_5,3,5,80,127,1904523640
87,19,19,Jits_Linear_5,0,1,48,44,1904995508
87,19,19,Jits_Linear_5,1,5,80,127,1905024228
87,19,19,Jits_Linear_5,2,5,63,98,1905083652
87,19,19,Jits_Linear_5,3,5,56,103,1905123648
87,19,19,Jits_Linear_5,0,1,48,44,1905645116
87,19,19,Jits_Linear_5,1,5,56,103,1905654280
87,19,19,Jits_Linear_5,2,5,63,98,1905664328
87,19,19,Jits_Linear_5,3,5,80,127,1905704268
87,19,19,Jits_Linear_5,0,5,56,103,1906204024
87,19,19,Jits_Linear_5,1,1,48,47,1906206920
87,19,19,Jits_Linear_5,2,5,80,127,1906233644
87,19,19,Jits_Linear_5,3,5,63,98,1906284068
87,19,19,Jits_Linear_5,0,1,48,41,1906805232
87,19,19,Jits_Linear_5,1,5,56,103,1906833956
87,19,19,Jits_Linear_5,2,5,63,98,1906873672
87,19,19,Jits_Linear_5,3,5,80,127,1906877108
87,19,19,Jits_Linear_5,0,1,48,48,1907419244
87,19,19,Jits_Linear_5,1,5,56,103,1907423548
87,19,19,Jits_Linear_5,2,5,63,98,1907434040
87,19,19,Jits_Linear_5,3,5,80,127,1907454424
87,19,19,Jits_Linear_5,0,5,56,103,1907973436
87,19,19,Jits_Linear_5,1,5,80,127,1907976504
87,19,19,Jits_Linear_5,2,1,48,46,1908001788
87,19,19,Jits_Linear_5,3,5,63,98,1908013368
87,19,19,Jits_Linear_5,0,1,48,48,1908556128
87,19,19,Jits_Linear_5,1,5,63,98,1908604332
87,19,19,Jits_Linear_5,2,5,56,103,1908633936
87,19,19,Jits_Linear_5,3,5,80,127,1908653408
87,19,19,Jits_Linear_5,0,1,48,46,1909173484
87,19,19,Jits_Linear_5,1,5,80,127,1909174968
87,19,19,Jits_Linear_5,2,5,56,103,1909183968
87,19,19,Jits_Linear_5,3,5,63,98,1909194240
87,19,19,Jits_Linear_5,0,1,48,45,1909761396
87,19,19,Jits_Linear_5,1,5,56,103,1909773552
87,19,19,Jits_Linear_5,2,5,80,127,1909813744
87,19,19,Jits_Linear_5,3,5,63,98,1909844240
87,19,19,Jits_Linear_5,0,5,63,98,1910384076
87,19,19,Jits_Linear_5,1,1,48,45,1910387120
87,19,19,Jits_Linear_5,2,5,80,127,1910394268
87,19,19,Jits_Linear_5,3,5,56,103,1910403416
87,19,19,Jits_Linear_5,0,1,48,40,1910947108
87,19,19,Jits_Linear_5,1,5,56,103,1910963544
87,19,19,Jits_Linear_5,2,5,63,98,1911034204
87,19,19,Jits_Linear_5,3,5,80,127,1911043428
87,19,19,Jits_Linear_5,0,1,48,38,1911564356
87,19,19,Jits_Linear_5,1,5,80,127,1911573968
87,19,19,Jits_Linear_5,2,5,56,103,1911584092
87,19,19,Jits_Linear_5,3,5,63,98,1911634244
87,19,19,Jits_Linear_5,0,1,48,43,1912162212
87,19,19,Jits_Linear_5,1,5,80,127,1912194380
87,19,19,Jits_Linear_5,2,5,56,103,1912253948
87,19,19,Jits_Linear_5,3,5,63,98,1912283536
87,19,19,Jits_Linear_5,0,5,56,103,1912803688
87,19,19,Jits_Linear_5,1,5,80,127,1912806976
87,19,19,Jits_Linear_5,2,1,48,44,1912826436
87,19,19,Jits_Linear_5,3,5,63,98,1912843768
87,19,19,Jits_Linear_5,0,1,48,45,1913386804
87,19,19,Jits_Linear_5,1,5,56,103,1913443804
87,19,19,Jits_Linear_5,2,5,63,98,1913474304
87,19,19,Jits_Linear_5,3,5,80,127,1913483884
87,19,19,Jits_Linear_5,0,1,48,40,1914024680
87,19,19,Jits_Linear_5,1,5,63,98,1914064192
87,19,19,Jits_Linear_5,2,5,80,127,1914073344
87,19,19,Jits_Linear_5,3,5,56,103,1914083836
87,19,19,Jits_Linear_5,0,1,48,39,1914614952
87,19,19,Jits_Linear_5,1,5,80,127,1914624416
87,19,19,Jits_Linear_5,2,5,56,103,1914673496
87,19,19,Jits_Linear_5,3,5,63,98,1914676884
87,19,19,Jits_Linear_5,0,5,56,103,1915273448
87,19,19,Jits_Linear_5,1,1,48,39,1915278732
87,19,19,Jits_Linear_5,2,5,80,127,1915294196
87,19,19,Jits_Linear_5,3,5,63,98,1915304392
87,19,19,Jits_Linear_5,0,5,63,98,1915873616
87,19,19,Jits_Linear_5,1,1,48,27,1915892028
87,19,19,Jits_Linear_5,2,5,56,103,1915904408
87,19,19,Jits_Linear_5,3,5,80,127,1915924044
87,19,19,Jits_Linear_5,0,1,48,43,1916502996
87,19,19,Jits_Linear_5,1,5,56,103,1916504504
87,19,19,Jits_Linear_5,2,5,80,127,1916513728
87,19,19,Jits_Linear_5,3,5,63,98,1916584384
87,19,19,Jits_Linear_5,0,5,63,98,1917113960
87,19,19,Jits_Linear_5,1,1,48,42,1917146376
87,19,19,Jits_Linear_5,2,5,80,127,1917153748
87,19,19,Jits_Linear_5,3,5,56,103,1917193464
87,19,19,Jits_Linear_5,0,1,48,47,1917741044
87,19,19,Jits_Linear_5,1,5,56,103,1917753920
87,19,19,Jits_Linear_5,2,5,63,98,1917763968
87,19,19,Jits_Linear_5,3,5,80,127,1917784356
87,19,19,Jits_Linear_5,0,1,48,43,1918345732
87,19,19,Jits_Linear_5,1,5,63,98,1918424432
87,19,19,Jits_Linear_5,2,5,80,127,1918443828
87,19,19,Jits_Linear_5,3,5,56,103,1918464364
87,19,19,Jits_Linear_5,0,5,56,103,1918994252
87,19,19,Jits_Linear_5,1,1,48,45,1918995144
87,19,19,Jits_Linear_5,2,5,80,127,1919073772
87,19,19,Jits_Linear_5,3,5,63,98,1919083824
87,19,19,Jits_Linear_5,0,1,48,46,1919663384
87,19,19,Jits_Linear_5,1,5,80,127,1919664796
87,19,19,Jits_Linear_5,2,5,63,98,1919673872
87,19,19,Jits_Linear_5,3,5,56,103,1919704520
87,19,19,Jits_Linear_5,0,5,63,98,1920254252
87,19,19,Jits_Linear_5,1,1,48,37,1920285920
87,19,19,Jits_Linear_5,2,5,80,127,1920294260
87,19,19,Jits_Linear_5,3,5,56,103,1920353856
87,19,19,Jits_Linear_5,0,5,63,98,1920894220
87,19,19,Jits_Linear_5,1,1,48,38,1920932112
87,19,19,Jits_Linear_5,2,5,56,103,1920943444
87,19,19,Jits_Linear_5,3,5,80,127,1920974168
87,19,19,Jits_Linear_5,0,1,48,48,1921507296
87,19,19,Jits_Linear_5,1,5,80,127,1921543520
87,19,19,Jits_Linear_5,2,5,63,98,1921554088
87,19,19,Jits_Linear_5,3,5,56,103,1921624380
87,19,19,Jits_Linear_5,0,1,48,46,1922133856
87,19,19,Jits_Linear_5,1,5,80,127,1922254124
87,19,19,Jits_Linear_5,2,5,56,103,1922264392
87,19,19,Jits_Linear_5,3,5,63,98,1922267680
87,19,19,Jits_Linear_5,0,5,56,103,1922833912
87,19,19,Jits_Linear_5,1,1,48,38,1922849312
87,19,19,Jits_Linear_5,2,5,80,127,1922854144
87,19,19,Jits_Linear_5,3,5,63,98,1922863440
87,19,19,Jits_Linear_5,0,1,48,46,1923464168
87,19,19,Jits_Linear_5,1,5,63,98,1923484124
87,19,19,Jits_Linear_5,2,5,56,103,1923523844
87,19,19,Jits_Linear_5,3,5,80,127,1923544452
87,19,19,Jits_Linear_5,0,1,48,40,1924083140
87,19,19,Jits_Linear_5,1,5,63,98,1924134184
87,19,19,Jits_Linear_5,2,5,56,103,1924193992
87,19,19,Jits_Linear_5,3,5,80,127,1924196904
87,19,19,Jits_Linear_5,0,1,48,36,1924736208
87,19,19,Jits_Linear_5,1,5,56,103,1924743800
87,19,19,Jits_Linear_5,2,5,80,127,1924763964
87,19,19,Jits_Linear_5,3,5,63,98,1924804052
87,19,19,Jits_Linear_5,0,1,48,38,1925335084
87,19,19,Jits_Linear_5,1,5,56,103,1925423448
87,19,19,Jits_Linear_5,2,5,63,98,1925443992
87,19,19,Jits_Linear_5,3,5,80,127,1925454188
87,19,19,Jits_Linear_5,0,1,48,42,1926023900
87,19,19,Jits_Linear_5,1,5,80,127,1926044004
87,19,19,Jits_Linear_5,2,5,56,103,1926073684
87,19,19,Jits_Linear_5,3,5,63,98,1926113844
87,19,19,Jits_Linear_5,0,5,80,127,1926703580
87,19,19,Jits_Linear_5,1,5,56,103,1926723992
87,19,19,Jits_Linear_5,2,1,48,31,1926747264
87,19,19,Jits_Linear_5,3,5,63,98,1926784300
87,19,19,Jits_Linear_5,0,5,56,103,1927364016
87,19,19,Jits_Linear_5,1,5,80,127,1927384476
87,19,19,Jits_Linear_5,2,1,48,34,1927403036
87,19,19,Jits_Linear_5,3,5,63,98,1927443812
87,19,19,Jits_Linear_5,0,5,80,127,1928003984
87,19,19,Jits_Linear_5,1,5,56,103,1928014256
87,19,19,Jits_Linear_5,2,1,48,43,1928027340
87,19,19,Jits_Linear_5,3,5,63,98,1928054116
87,19,19,Jits_Linear_5,0,1,48,46,1928655288
87,19,19,Jits_Linear_5,1,5,63,98,1928664528
87,19,19,Jits_Linear_5,2,5,56,103,1928704396
87,19,19,Jits_Linear_5,3,5,80,127,1928707608
87,19,19,Jits_Linear_5,0,1,48,35,1929278824
87,19,19,Jits_Linear_5,1,5,63,98,1929344640
87,19,19,Jits_Linear_5,2,5,80,127,1929384268
87,19,19,Jits_Linear_5,3,5,56,103,1929413944
87,19,19,Jits_Linear_5,0,1,48,48,1929916668
87,19,19,Jits_Linear_5,1,5,56,103,1929993796
87,19,19,Jits_Linear_5,2,5,63,98,1930003768
87,19,19,Jits_Linear_5,3,5,80,127,1930033652
87,19,19,Jits_Linear_5,0,1,48,47,1930617516
87,19,19,Jits_Linear_5,1,5,80,127,1930654188
87,19,19,Jits_Linear_5,2,5,63,98,1930723636
87,19,19,Jits_Linear_5,3,5,56,103,1930733904
87,19,19,Jits_Linear_5,0,1,48,46,1931299408
87,19,19,Jits_Linear_5,1,5,63,98,1931323748
87,19,19,Jits_Linear_5,2,5,56,103,1931394764
87,19,19,Jits_Linear_5,3,5,80,127,1931403540
87,19,19,Jits_Linear_5,0,1,48,46,1931948592
87,19,19,Jits_Linear_5,1,5,63,98,1931993580
87,19,19,Jits_Linear_5,2,5,56,103,1932014040
87,19,19,Jits_Linear_5,3,5,80,127,1932053964
87,19,19,Jits_Linear_5,0,1,48,38,1932634492
87,19,19,Jits_Linear_5,1,5,56,103,1932674448
87,19,19,Jits_Linear_5,2,5,63,98,1932683600
87,19,19,Jits_Linear_5,3,5,80,127,1932763752
87,19,19,Jits_Linear_5,0,1,48,45,1933310308
87,19,19,Jits_Linear_5,1,5,63,98,1933333796
87,19,19,Jits_Linear_5,2,5,56,103,1933363576
87,19,19,Jits_Linear_5,3,5,80,127,1933403588
87,19,19,Jits_Linear_5,0,5,56,103,1934003660
87,19,19,Jits_Linear_5,1,5,63,98,1934043528
87,19,19,Jits_Linear_5,2,1,48,36,1934056540
87,19,19,Jits_Linear_5,3,5,80,127,1934083612
87,19,19,Jits_Linear_5,0,5,80,127,1934683648
87,19,19,Jits_Linear_5,1,1,48,46,1934708192
87,19,19,Jits_Linear_5,2,5,56,103,1934764340
87,19,19,Jits_Linear_5,3,5,63,98,1934773488
87,19,19,Jits_Linear_5,0,1,48,40,1935309396
87,19,19,Jits_Linear_5,1,5,56,103,1935404568
87,19,19,Jits_Linear_5,2,5,63,98,1935407560
87,19,19,Jits_Linear_5,3,5,80,127,1935413716
87,19,19,Jits_Linear_5,0,1,48,45,1936018252
87,19,19,Jits_Linear_5,1,5,56,103,1936103856
87,19,19,Jits_Linear_5,2,5,63,98,1936124376
87,19,19,Jits_Linear_5,3,5,80,127,1936133672
87,19,19,Jits_Linear_5,0,1,48,43,1936697252
87,19,19,Jits_Linear_5,1,5,63,98,1936743888
87,19,19,Jits_Linear_5,2,5,80,127,1936754160
87,19,19,Jits_Linear_5,3,5,56,103,1936773644
87,19,19,Jits_Linear_5,0,1,48,36,1937369848
87,19,19,Jits_Linear_5,1,5,63,98,1937433948
87,19,19,Jits_Linear_5,2,5,56,103,1937513904
87,19,19,Jits_Linear_5,3,5,80,127,1937516968
87,19,19,Jits_Linear_5,0,1,48,44,1938100468
87,19,19,Jits_Linear_5,1,5,63,98,1938124252
87,19,19,Jits_Linear_5,2,5,56,103,1938143592
87,19,19,Jits_Linear_5,3,5,80,127,1938174536
87,19,19,Jits_Linear_5,0,1,48,52,1938798872
87,19,19,Jits_Linear_5,1,5,56,103,1938814264
87,19,19,Jits_Linear_5,2,5,63,98,1938833900
87,19,19,Jits_Linear_5,3,5,80,127,1938844096
87,19,19,Jits_Linear_5,0,1,48,38,1939475076
87,19,19,Jits_Linear_5,1,5,56,103,1939534168
87,19,19,Jits_Linear_5,2,5,63,98,1939563916
87,19,19,Jits_Linear_5,3,5,80,127,1939567428
87,19,19,Jits_Linear_5,0,1,48,47,1940110604
87,19,19,Jits_Linear_5,1,5,56,103,1940174396
87,19,19,Jits_Linear_5,2,5,63,98,1940214028
87,19,19,Jits_Linear_5,3,5,80,127,1940273692
87,19,19,Jits_Linear_5,0,1,48,37,1940827592
87,19,19,Jits_Linear_5,1,5,56,103,1940883816
87,19,19,Jits_Linear_5,2,5,63,98,1940893940
87,19,19,Jits_Linear_5,3,5,80,127,1940953568
87,19,19,Jits_Linear_5,0,1,48,36,1941575300
87,19,19,Jits_Linear_5,1,5,56,103,1941584316
87,19,19,Jits_Linear_5,2,5,80,127,1941603804
87,19,19,Jits_Linear_5,3,5,63,98,1941634380
87,19,19,Jits_Linear_5,0,1,48,38,1942271344
87,19,19,Jits_Linear_5,1,5,80,127,1942283668
87,19,19,Jits_Linear_5,2,5,56,103,1942293864
87,19,19,Jits_Linear_5,3,5,63,98,1942314472
87,19,19,Jits_Linear_5,0,1,48,35,1942814936
87,19,19,Jits_Linear_5,1,5,63,98,1942973740
87,19,19,Jits_Linear_5,2,5,80,127,1943053764
87,19,19,Jits_Linear_5,3,5,56,103,1943063884
87,19,19,Jits_Linear_5,0,1,48,44,1943598600
87,19,19,Jits_Linear_5,1,5,80,127,1943733584
87,19,19,Jits_Linear_5,2,5,56,103,1943754192
87,19,19,Jits_Linear_5,3,5,63,98,1943757332
87,19,19,Jits_Linear_5,0,1,48,45,1944340296
87,19,19,Jits_Linear_5,1,5,63,98,1944413408
87,19,19,Jits_Linear_5,2,5,80,127,1944416928
87,19,19,Jits_Linear_5,3,5,56,103,1944473940
87,19,19,Jits_Linear_5,0,1,48,42,1945082172
87,19,19,Jits_Linear_5,1,5,56,103,1945103696
87,19,19,Jits_Linear_5,2,5,80,127,1945113892
87,19,19,Jits_Linear_5,3,5,63,98,1945153780
87,19,19,Jits_Linear_5,0,5,56,103,1945793864
87,19,19,Jits_Linear_5,1,1,48,43,1945832204
87,19,19,Jits_Linear_5,2,5,63,98,1945854472
87,19,19,Jits_Linear_5,3,5,80,127,1945863476
87,19,19,Jits_Linear_5,0,5,63,98,1946513856
87,19,19,Jits_Linear_5,1,5,80,127,1946553648
87,19,19,Jits_Linear_5,2,1,48,38,1946564860
87,19,19,Jits_Linear_5,3,5,56,103,1946593728
87,19,19,Jits_Linear_5,0,5,56,103,1947224544
87,19,19,Jits_Linear_5,1,1,48,38,1947267296
87,19,19,Jits_Linear_5,2,5,63,98,1947304408
87,19,19,Jits_Linear_5,3,5,80,127,1947307920
87,19,19,Jits_Linear_5,0,1,48,43,1947976340
87,19,19,Jits_Linear_5,1,5,80,127,1947993456
87,19,19,Jits_Linear_5,2,5,56,103,1948024176
87,19,19,Jits_Linear_5,3,5,63,98,1948027244
87,19,19,Jits_Linear_5,0,5,56,103,1948674452
87,19,19,Jits_Linear_5,1,5,80,127,1948693940
87,19,19,Jits_Linear_5,2,1,48,43,1948730492
87,19,19,Jits_Linear_5,3,5,63,98,1948733748
87,19,19,Jits_Linear_5,0,5,80,127,1949373916
87,19,19,Jits_Linear_5,1,5,63,98,1949394156
87,19,19,Jits_Linear_5,2,1,48,42,1949410976
87,19,19,Jits_Linear_5,3,5,56,103,1949453716
87,19,19,Jits_Linear_5,0,5,63,98,1950103804
87,19,19,Jits_Linear_5,1,5,56,103,1950114444
87,19,19,Jits_Linear_5,2,1,48,35,1950131272
87,19,19,Jits_Linear_5,3,5,80,127,1950164344
87,19,19,Jits_Linear_5,0,5,56,103,1950813440
87,19,19,Jits_Linear_5,1,1,48,38,1950814408
87,19,19,Jits_Linear_5,2,5,63,98,1950834268
87,19,19,Jits_Linear_5,3,5,80,127,1950844240
87,19,19,Jits_Linear_5,0,5,56,103,1951533408
87,19,19,Jits_Linear_5,1,1,48,35,1951534308
87,19,19,Jits_Linear_5,2,5,63,98,1951537660
87,19,19,Jits_Linear_5,3,5,80,127,1951554156
87,19,19,Jits_Linear_5,0,1,48,36,1952256772
87,19,19,Jits_Linear_5,1,5,63,98,1952303556
87,19,19,Jits_Linear_5,2,5,56,103,1952334156
87,19,19,Jits_Linear_5,3,5,80,127,1952363892
87,19,19,Jits_Linear_5,0,5,80,127,1952993648
87,19,19,Jits_Linear_5,1,1,48,35,1953000956
87,19,19,Jits_Linear_5,2,5,56,103,1953083732
87,19,19,Jits_Linear_5,3,5,63,98,1953086720
87,19,19,Jits_Linear_5,0,5,56,103,1953723664
87,19,19,Jits_Linear_5,1,5,80,127,1953726664
87,19,19,Jits_Linear_5,2,1,48,34,1953728444
87,19,19,Jits_Linear_5,3,5,63,98,1953803608
87,19,19,Jits_Linear_5,0,1,48,29,1954434332
87,19,19,Jits_Linear_5,1,5,80,127,1954453912
87,19,19,Jits_Linear_5,2,5,63,98,1954514232
87,19,19,Jits_Linear_5,3,5,56,103,1954544188
87,19,19,Jits_Linear_5,0,5,63,98,1955184156
87,19,19,Jits_Linear_5,1,5,80,127,1955194280
87,19,19,Jits_Linear_5,2,1,48,31,1955197320
87,19,19,Jits_Linear_5,3,5,56,103,1955264176
87,19,19,Jits_Linear_5,0,5,56,103,1955933580
87,19,19,Jits_Linear_5,1,5,80,127,1955964228
87,19,19,Jits_Linear_5,2,1,48,34,1955996192
87,19,19,Jits_Linear_5,3,5,63,98,1956013452
87,19,19,Jits_Linear_5,0,1,48,32,1956708076
87,19,19,Jits_Linear_5,1,5,63,98,1956714028
87,19,19,Jits_Linear_5,2,5,56,103,1956743400
87,19,19,Jits_Linear_5,3,5,80,127,1956746548
87,19,19,Jits_Linear_5,0,1,48,37,1957413200
87,19,19,Jits_Linear_5,1,5,63,98,1957454304
87,19,19,Jits_Linear_5,2,5,80,127,1957473644
87,19,19,Jits_Linear_5,3,5,56,103,1957484064
87,19,19,Jits_Linear_5,0,1,48,38,1958135424
87,19,19,Jits_Linear_5,1,5,56,103,1958204032
87,19,19,Jits_Linear_5,2,5,63,98,1958207020
87,19,19,Jits_Linear_5,3,5,80,127,1958224340
87,19,19,Jits_Linear_5,0,5,56,103,1958904056
87,19,19,Jits_Linear_5,1,5,63,98,1958914552
87,19,19,Jits_Linear_5,2,1,48,37,1958922996
87,19,19,Jits_Linear_5,3,5,80,127,1958944220
87,19,19,Jits_Linear_5,0,1,48,39,1959669040
87,19,19,Jits_Linear_5,1,5,63,98,1959674164
87,19,19,Jits_Linear_5,2,5,80,127,1959693804
87,19,19,Jits_Linear_5,3,5,56,103,1959733692
87,19,19,Jits_Linear_5,0,5,56,103,1960453420
87,19,19,Jits_Linear_5,1,1,48,38,1960478704
87,19,19,Jits_Linear_5,2,5,63,98,1960493424
87,19,19,Jits_Linear_5,3,5,80,127,1960496812
87,19,19,Jits_Linear_5,0,5,80,127,1961143660
87,19,19,Jits_Linear_5,1,5,56,103,1961183452
87,19,19,Jits_Linear_5,2,5,63,98,1961233732
87,19,19,Jits_Linear_5,3,1,48,39,1961251744
87,19,19,Jits_Linear_5,0,1,48,39,1961938092
87,19,19,Jits_Linear_5,1,5,56,103,1961953708
87,19,19,Jits_Linear_5,2,5,80,127,1961964128
87,19,19,Jits_Linear_5,3,5,63,98,1961993728
87,19,19,Jits_Linear_5,0,5,56,103,1962654068
87,19,19,Jits_Linear_5,1,5,80,127,1962694228
87,19,19,Jits_Linear_5,2,1,48,37,1962706564
87,19,19,Jits_Linear_5,3,5,63,98,1962744128
87,19,19,Jits_Linear_5,0,5,56,103,1963413992
87,19,19,Jits_Linear_5,1,1,48,38,1963448876
87,19,19,Jits_Linear_5,2,5,80,127,1963454000
87,19,19,Jits_Linear_5,3,5,63,98,1963503980
87,19,19,Jits_Linear_5,0,5,80,127,1964163588
87,19,19,Jits_Linear_5,1,1,48,38,1964198320
87,19,19,Jits_Linear_5,2,5,63,98,1964244276
87,19,19,Jits_Linear_5,3,5,56,103,1964253428
87,19,19,Jits_Linear_5,0,5,80,127,1964973340
87,19,19,Jits_Linear_5,1,1,48,43,1964981168
87,19,19,Jits_Linear_5,2,5,56,103,1964983828
87,19,19,Jits_Linear_5,3,5,63,98,1965004064
87,19,19,Jits_Linear_5,0,5,63,98,1965703520
87,19,19,Jits_Linear_5,1,1,48,36,1965740344
87,19,19,Jits_Linear_5,2,5,56,103,1965774088
87,19,19,Jits_Linear_5,3,5,80,127,1965777308
87,19,19,Jits_Linear_5,0,5,80,127,1966464248
87,19,19,Jits_Linear_5,1,1,48,37,1966511968
87,19,19,Jits_Linear_5,2,5,63,98,1966513476
87,19,19,Jits_Linear_5,3,5,56,103,1966553488
87,19,19,Jits_Linear_5,0,1,48,43,1967269092
87,19,19,Jits_Linear_5,1,5,63,98,1967274296
87,19,19,Jits_Linear_5,2,5,56,103,1967314236
87,19,19,Jits_Linear_5,3,5,80,127,1967323536
87,19,19,Jits_Linear_5,0,5,63,98,1968034216
87,19,19,Jits_Linear_5,1,1,48,34,1968043264
87,19,19,Jits_Linear_5,2,5,56,103,1968053476
87,19,19,Jits_Linear_5,3,5,80,127,1968074160
87,19,19,Jits_Linear_5,0,5,80,127,1968764232
87,19,19,Jits_Linear_5,1,5,56,103,1968773456
87,19,19,Jits_Linear_5,2,1,48,33,1968788104
87,19,19,Jits_Linear_5,3,5,63,98,1968793980
87,19,19,Jits_Linear_5,0,1,48,46,1969521400
87,19,19,Jits_Linear_5,1,5,63,98,1969564072
87,19,19,Jits_Linear_5,2,5,56,103,1969603868
87,19,19,Jits_Linear_5,3,5,80,127,1969633752
87,19,19,Jits_Linear_5,0,1,48,36,1970329792
87,19,19,Jits_Linear_5,1,5,56,103,1970344288
87,19,19,Jits_Linear_5,2,5,63,98,1970373964
87,19,19,Jits_Linear_5,3,5,80,127,1970403936
87,19,19,Jits_Linear_5,0,5,80,127,1971094016
87,19,19,Jits_Linear_5,1,1,48,38,1971098552
87,19,19,Jits_Linear_5,2,5,56,103,1971163468
87,19,19,Jits_Linear_5,3,5,63,98,1971166460
87,19,19,Jits_Linear_5,0,1,48,42,1971880860
87,19,19,Jits_Linear_5,1,5,56,103,1971884424
87,19,19,Jits_Linear_5,2,5,63,98,1971933432
87,19,19,Jits_Linear_5,3,5,80,127,1971964228
87,19,19,Jits_Linear_5,0,5,63,98,1972644340
87,19,19,Jits_Linear_5,1,5,80,127,1972647628
87,19,19,Jits_Linear_5,2,1,48,31,1972690828
87,19,19,Jits_Linear_5,3,5,56,103,1972703752
87,19,19,Jits_Linear_5,0,5,56,103,1973454284
87,19,19,Jits_Linear_5,1,5,80,127,1973464408
87,19,19,Jits_Linear_5,2,1,48,40,1973479060
87,19,19,Jits_Linear_5,3,5,63,98,1973513560
87,19,19,Jits_Linear_5,0,5,63,98,1974213988
87,19,19,Jits_Linear_5,1,5,56,103,1974224184
87,19,19,Jits_Linear_5,2,1,48,43,1974241624
87,19,19,Jits_Linear_5,3,5,80,127,1974253928
87,19,19,Jits_Linear_5,0,1,48,39,1974998728
87,19,19,Jits_Linear_5,1,5,63,98,1975034348
87,19,19,Jits_Linear_5,2,5,80,127,1975037788
87,19,19,Jits_Linear_5,3,5,56,103,1975063952
87,19,19,Jits_Linear_5,0,1,48,28,1975805836
87,19,19,Jits_Linear_5,1,5,63,98,1975844304
87,19,19,Jits_Linear_5,2,5,56,103,1975863664
87,19,19,Jits_Linear_5,3,5,80,127,1975866804
87,19,19,Jits_Linear_5,0,5,63,98,1976593952
87,19,19,Jits_Linear_5,1,1,48,26,1976602848
87,19,19,Jits_Linear_5,2,5,56,103,1976664552
87,19,19,Jits_Linear_5,3,5,80,127,1976683740
87,19,19,Jits_Linear_5,0,1,48,41,1977320924
87,19,19,Jits_Linear_5,1,5,56,103,1977374160
87,19,19,Jits_Linear_5,2,5,63,98,1977384432
87,19,19,Jits_Linear_5,3,5,80,127,1977474352
87,19,19,Jits_Linear_5,0,1,48,32,1978092840
87,19,19,Jits_Linear_5,1,5,56,103,1978184144
87,19,19,Jits_Linear_5,2,5,80,127,1978224072
87,19,19,Jits_Linear_5,3,5,63,98,1978234192
87,19,19,Jits_Linear_5,0,1,48,32,1978882124
87,19,19,Jits_Linear_5,1,5,56,103,1979004204
87,19,19,Jits_Linear_5,2,5,63,98,1979034028
87,19,19,Jits_Linear_5,3,5,80,127,1979063632
87,19,19,Jits_Linear_5,0,1,48,36,1979668616
87,19,19,Jits_Linear_5,1,5,80,127,1979764128
87,19,19,Jits_Linear_5,2,5,63,98,1979803980
87,19,19,Jits_Linear_5,3,5,56,103,1979823616
87,19,19,Jits_Linear_5,0,1,48,37,1980509540
87,19,19,Jits_Linear_5,1,5,56,103,1980603744
87,19,19,Jits_Linear_5,2,5,80,127,1980624128
87,19,19,Jits_Linear_5,3,5,63,98,1980643764
87,19,19,Jits_Linear_5,0,5,63,98,1981373940
87,19,19,Jits_Linear_5,1,1,48,39,1981377056
87,19,19,Jits_Linear_5,2,5,56,103,1981384056
87,19,19,Jits_Linear_5,3,5,80,127,1981443624
87,19,19,Jits_Linear_5,0,5,56,103,1982183900
87,19,19,Jits_Linear_5,1,1,48,40,1982196912
87,19,19,Jits_Linear_5,2,5,63,98,1982253580
87,19,19,Jits_Linear_5,3,5,80,127,1982273768
87,19,19,Jits_Linear_5,0,5,56,103,1982993732
87,19,19,Jits_Linear_5,1,1,48,38,1983012664
87,19,19,Jits_Linear_5,2,5,63,98,1983023500
87,19,19,Jits_Linear_5,3,5,80,127,1983064636
87,19,19,Jits_Linear_5,0,5,63,98,1983793764
87,19,19,Jits_Linear_5,1,1,48,40,1983815692
87,19,19,Jits_Linear_5,2,5,56,103,1983843664
87,19,19,Jits_Linear_5,3,5,80,127,1983853932
87,19,19,Jits_Linear_5,0,1,48,36,1984621136
87,19,19,Jits_Linear_5,1,5,56,103,1984643576
87,19,19,Jits_Linear_5,2,5,63,98,1984693556
87,19,19,Jits_Linear_5,3,5,80,127,1984703828
87,19,19,Jits_Linear_5,0,5,56,103,1985423724
87,19,19,Jits_Linear_5,1,5,63,98,1985434072
87,19,19,Jits_Linear_5,2,1,48,39,1985449844
87,19,19,Jits_Linear_5,3,5,80,127,1985513712
87,19,19,Jits_Linear_5,0,9999,9999,9999,1876681820
87,19,19,Jits_Linear_5,1,9999,9999,9999,1877162060
87,19,19,Jits_Linear_5,2,9999,9999,9999,1877641324
87,19,19,Jits_Linear_5,3,9999,9999,9999,1878121528
87,19,19,Jits_Linear_5,4,9999,9999,9999,1878601816
87,19,19,Jits_Linear_5,5,9999,9999,9999,1879091300
87,19,19,Jits_Linear_5,6,9999,9999,9999,1879581768
87,19,19,Jits_Linear_5,7,9999,9999,9999,1880071284
87,19,19,Jits_Linear_5,8,9999,9999,9999,1880561768
87,19,19,Jits_Linear_5,9,9999,9999,9999,1881051212
87,19,19,Jits_Linear_5,10,9999,9999,9999,1881551960
87,19,19,Jits_Linear_5,11,9999,9999,9999,1882051652
87,19,19,Jits_Linear_5,12,9999,9999,9999,1882551408
87,19,19,Jits_Linear_5,13,9999,9999,9999,1883051096
87,19,19,Jits_Linear_5,14,9999,9999,9999,1883551832
87,19,19,Jits_Linear_5,15,9999,9999,9999,1884061784
87,19,19,Jits_Linear_5,16,9999,9999,9999,1884571740
87,19,19,Jits_Linear_5,17,9999,9999,9999,1885081688
87,19,19,Jits_Linear_5,18,9999,9999,9999,1885591640
87,19,19,Jits_Linear_5,19,9999,9999,9999,1886101596
87,19,19,Jits_Linear_5,20,9999,9999,9999,1886621816
87,19,19,Jits_Linear_5,21,9999,9999,9999,1887141960
87,19,19,Jits_Linear_5,22,9999,9999,9999,1887661140
87,19,19,Jits_Linear_5,23,9999,9999,9999,1888181376
87,19,19,Jits_Linear_5,24,9999,9999,9999,1888701536
87,19,19,Jits_Linear_5,25,9999,9999,9999,1889231948
87,19,19,Jits_Linear_5,26,9999,9999,9999,1889761380
87,19,19,Jits_Linear_5,27,9999,9999,9999,1890291772
87,19,19,Jits_Linear_5,28,9999,9999,9999,1890821224
87,19,19,Jits_Linear_5,29,9999,9999,9999,1891351676
87,19,19,Jits_Linear_5,30,9999,9999,9999,1891891340
87,19,19,Jits_Linear_5,31,9999,9999,9999,1892431932
87,19,19,Jits_Linear_5,32,9999,9999,9999,1892971628
87,19,19,Jits_Linear_5,33,9999,9999,9999,1893511248
87,19,19,Jits_Linear_5,34,9999,9999,9999,1894051916
87,19,19,Jits_Linear_5,35,9999,9999,9999,1894601804
87,19,19,Jits_Linear_5,36,9999,9999,9999,1895151680
87,19,19,Jits_Linear_5,37,9999,9999,9999,1895701568
87,19,19,Jits_Linear_5,38,9999,9999,9999,1896251480
87,19,19,Jits_Linear_5,39,9999,9999,9999,1896801368
87,19,19,Jits_Linear_5,40,9999,9999,9999,1897361520
87,19,19,Jits_Linear_5,41,9999,9999,9999,1897921664
87,19,19,Jits_Linear_5,42,9999,9999,9999,1898481752
87,19,19,Jits_Linear_5,43,9999,9999,9999,1899041896
87,19,19,Jits_Linear_5,44,9999,9999,9999,1899601996
87,19,19,Jits_Linear_5,45,9999,9999,9999,1900171372
87,19,19,Jits_Linear_5,46,9999,9999,9999,1900741712
87,19,19,Jits_Linear_5,47,9999,9999,9999,1901312056
87,19,19,Jits_Linear_5,48,9999,9999,9999,1901891712
87,19,19,Jits_Linear_5,49,9999,9999,9999,1902462056
87,19,19,Jits_Linear_5,50,9999,9999,9999,1903041600
87,19,19,Jits_Linear_5,51,9999,9999,9999,1903621232
87,19,19,Jits_Linear_5,52,9999,9999,9999,1904201788
87,19,19,Jits_Linear_5,53,9999,9999,9999,1904781416
87,19,19,Jits_Linear_5,54,9999,9999,9999,1905362020
87,19,19,Jits_Linear_5,55,9999,9999,9999,1905951836
87,19,19,Jits_Linear_5,56,9999,9999,9999,1906541680
87,19,19,Jits_Linear_5,57,9999,9999,9999,1907131508
87,19,19,Jits_Linear_5,58,9999,9999,9999,1907721328
87,19,19,Jits_Linear_5,59,9999,9999,9999,1908311156
87,19,19,Jits_Linear_5,60,9999,9999,9999,1908911184
87,19,19,Jits_Linear_5,61,9999,9999,9999,1909511260
87,19,19,Jits_Linear_5,62,9999,9999,9999,1910111292
87,19,19,Jits_Linear_5,63,9999,9999,9999,1910711368
87,19,19,Jits_Linear_5,64,9999,9999,9999,1911311452
87,19,19,Jits_Linear_5,65,9999,9999,9999,1911921744
87,19,19,Jits_Linear_5,66,9999,9999,9999,1912532096
87,19,19,Jits_Linear_5,67,9999,9999,9999,1913141336
87,19,19,Jits_Linear_5,68,9999,9999,9999,1913751624
87,19,19,Jits_Linear_5,69,9999,9999,9999,1914361972
87,19,19,Jits_Linear_5,70,9999,9999,9999,1914981472
87,19,19,Jits_Linear_5,71,9999,9999,9999,1915602008
87,19,19,Jits_Linear_5,72,9999,9999,9999,1916221536
87,19,19,Jits_Linear_5,73,9999,9999,9999,1916842068
87,19,19,Jits_Linear_5,74,9999,9999,9999,1917461560
87,19,19,Jits_Linear_5,75,9999,9999,9999,1918091336
87,19,19,Jits_Linear_5,76,9999,9999,9999,1918721092
87,19,19,Jits_Linear_5,77,9999,9999,9999,1919351920
87,19,19,Jits_Linear_5,78,9999,9999,9999,1919981688
87,19,19,Jits_Linear_5,79,9999,9999,9999,1920611392
87,19,19,Jits_Linear_5,80,9999,9999,9999,1921251404
87,19,19,Jits_Linear_5,81,9999,9999,9999,1921891444
87,19,19,Jits_Linear_5,82,9999,9999,9999,1922531456
87,19,19,Jits_Linear_5,83,9999,9999,9999,1923171396
87,19,19,Jits_Linear_5,84,9999,9999,9999,1923811428
87,19,19,Jits_Linear_5,85,9999,9999,9999,1924461652
87,19,19,Jits_Linear_5,86,9999,9999,9999,1925111928
87,19,19,Jits_Linear_5,87,9999,9999,9999,1925761112
87,19,19,Jits_Linear_5,88,9999,9999,9999,1926411388
87,19,19,Jits_Linear_5,89,9999,9999,9999,1927061616
87,19,19,Jits_Linear_5,90,9999,9999,9999,1927722096
87,19,19,Jits_Linear_5,91,9999,9999,9999,1928381544
87,19,19,Jits_Linear_5,92,9999,9999,9999,1929042036
87,19,19,Jits_Linear_5,93,9999,9999,9999,1929701460
87,19,19,Jits_Linear_5,94,9999,9999,9999,1930361924
87,19,19,Jits_Linear_5,95,9999,9999,9999,1931031608
87,19,19,Jits_Linear_5,96,9999,9999,9999,1931701320
87,19,19,Jits_Linear_5,97,9999,9999,9999,1932372068
87,19,19,Jits_Linear_5,98,9999,9999,9999,1933041756
87,19,19,Jits_Linear_5,99,9999,9999,9999,1933711464
87,19,19,Jits_Linear_5,100,9999,9999,9999,1934391364
87,19,19,Jits_Linear_5,101,9999,9999,9999,1935071328
87,19,19,Jits_Linear_5,102,9999,9999,9999,1935751276
87,19,19,Jits_Linear_5,103,9999,9999,9999,1936431228
87,19,19,Jits_Linear_5,104,9999,9999,9999,1937111116
87,19,19,Jits_Linear_5,105,9999,9999,9999,1937801272
87,19,19,Jits_Linear_5,106,9999,9999,9999,1938491504
87,19,19,Jits_Linear_5,107,9999,9999,9999,1939181640
87,19,19,Jits_Linear_5,108,9999,9999,9999,1939871872
87,19,19,Jits_Linear_5,109,9999,9999,9999,1940562032
87,19,19,Jits_Linear_5,110,9999,9999,9999,1941261384
87,19,19,Jits_Linear_5,111,9999,9999,9999,1941961808
87,19,19,Jits_Linear_5,112,9999,9999,9999,1942661184
87,19,19,Jits_Linear_5,113,9999,9999,9999,1943361616
87,19,19,Jits_Linear_5,114,9999,9999,9999,1944062008
87,19,19,Jits_Linear_5,115,9999,9999,9999,1944771644
87,19,19,Jits_Linear_5,116,9999,9999,9999,1945481288
87,19,19,Jits_Linear_5,117,9999,9999,9999,1946191976
87,19,19,Jits_Linear_5,118,9999,9999,9999,1946901604
87,19,19,Jits_Linear_5,119,9999,9999,9999,1947611240
87,19,19,Jits_Linear_5,120,9999,9999,9999,1948331084
87,19,19,Jits_Linear_5,121,9999,9999,9999,1949051960
87,19,19,Jits_Linear_5,122,9999,9999,9999,1949771880
87,19,19,Jits_Linear_5,123,9999,9999,9999,1950491772
87,19,19,Jits_Linear_5,124,9999,9999,9999,1951211604
87,19,19,Jits_Linear_5,125,9999,9999,9999,1951941748
87,19,19,Jits_Linear_5,126,9999,9999,9999,1952671860
87,19,19,Jits_Linear_5,127,9999,9999,9999,1953401944
87,19,19,Jits_Linear_5,128,9999,9999,9999,1954132036
87,19,19,Jits_Linear_5,129,9999,9999,9999,1954861148
87,19,19,Jits_Linear_5,130,9999,9999,9999,1955601496
87,19,19,Jits_Linear_5,131,9999,9999,9999,1956341856
87,19,19,Jits_Linear_5,132,9999,9999,9999,1957081176
87,19,19,Jits_Linear_5,133,9999,9999,9999,1957821532
87,19,19,Jits_Linear_5,134,9999,9999,9999,1958561884
87,19,19,Jits_Linear_5,135,9999,9999,9999,1959311456
87,19,19,Jits_Linear_5,136,9999,9999,9999,1960062020
87,19,19,Jits_Linear_5,137,9999,9999,9999,1960811592
87,19,19,Jits_Linear_5,138,9999,9999,9999,1961561180
87,19,19,Jits_Linear_5,139,9999,9999,9999,1962311744
87,19,19,Jits_Linear_5,140,9999,9999,9999,1963071584
87,19,19,Jits_Linear_5,141,9999,9999,9999,1963831364
87,19,19,Jits_Linear_5,142,9999,9999,9999,1964591196
87,19,19,Jits_Linear_5,143,9999,9999,9999,1965352020
87,19,19,Jits_Linear_5,144,9999,9999,9999,1966111860
87,19,19,Jits_Linear_5,145,9999,9999,9999,1966881892
87,19,19,Jits_Linear_5,146,9999,9999,9999,1967651936
87,19,19,Jits_Linear_5,147,9999,9999,9999,1968421964
87,19,19,Jits_Linear_5,148,9999,9999,9999,1969192056
87,19,19,Jits_Linear_5,149,9999,9999,9999,1969962092
87,19,19,Jits_Linear_5,150,9999,9999,9999,1970741360
87,19,19,Jits_Linear_5,151,9999,9999,9999,1971521640
87,19,19,Jits_Linear_5,152,9999,9999,9999,1972301948
87,19,19,Jits_Linear_5,153,9999,9999,9999,1973081176
87,19,19,Jits_Linear_5,154,9999,9999,9999,1973861464
87,19,19,Jits_Linear_5,155,9999,9999,9999,1974652028
87,19,19,Jits_Linear_5,156,9999,9999,9999,1975441524
87,19,19,Jits_Linear_5,157,9999,9999,9999,1976231996
87,19,19,Jits_Linear_5,158,9999,9999,9999,1977021508
87,19,19,Jits_Linear_5,159,9999,9999,9999,1977812060
87,19,19,Jits_Linear_5,160,9999,9999,9999,1978611832
87,19,19,Jits_Linear_5,161,9999,9999,9999,1979411528
87,19,19,Jits_Linear_5,162,9999,9999,9999,1980211320
87,19,19,Jits_Linear_5,163,9999,9999,9999,1981012064
87,19,19,Jits_Linear_5,164,9999,9999,9999,1981811832
87,19,19,Jits_Linear_5,165,9999,9999,9999,1982621800
87,19,19,Jits_Linear_5,166,9999,9999,9999,1983431772
87,19,19,Jits_Linear_5,167,9999,9999,9999,1984241744
87,19,19,Jits_Linear_5,168,9999,9999,9999,1985051708
87,19,19,Jits_Linear_5,169,9999,9999,9999,1985861696
87,20,3,ISIP_8,0,5,42,127,2058602124
87,20,3,ISIP_8,1,5,42,127,2059401436
87,20,3,ISIP_8,2,1,48,29,2059580728
87,20,3,ISIP_8,3,1,48,40,2060174948
87,20,3,ISIP_8,4,5,42,127,2060202356
87,20,3,ISIP_8,5,1,48,44,2060871456
87,20,3,ISIP_8,6,5,42,127,2061002076
87,20,3,ISIP_8,7,1,48,44,2061670968
87,20,3,ISIP_8,8,5,42,127,2061802032
87,20,3,ISIP_8,9,1,48,42,2062479528
87,20,3,ISIP_8,10,5,42,127,2062601616
87,20,3,ISIP_8,11,1,48,44,2063304844
87,20,3,ISIP_8,12,5,42,127,2063402808
87,20,3,ISIP_8,13,1,48,44,2064137340
87,20,3,ISIP_8,14,5,42,127,2064202020
87,20,3,ISIP_8,15,1,48,42,2064927196
87,20,3,ISIP_8,16,5,42,127,2065001976
87,20,3,ISIP_8,17,1,48,43,2065749836
87,20,3,ISIP_8,18,5,42,127,2065801560
87,20,3,ISIP_8,19,1,48,43,2066533940
87,20,3,ISIP_8,20,5,42,127,2066602268
87,20,3,ISIP_8,21,1,48,44,2067345792
87,20,3,ISIP_8,22,5,42,127,2067402148
87,20,3,ISIP_8,23,1,48,45,2068148444
87,20,3,ISIP_8,24,5,42,127,2068201956
87,20,3,ISIP_8,25,1,48,44,2068965676
87,20,3,ISIP_8,26,5,42,127,2069001836
87,20,3,ISIP_8,27,1,48,46,2069752996
87,20,3,ISIP_8,28,5,42,127,2069802420
87,20,3,ISIP_8,29,1,48,42,2070532164
87,20,3,ISIP_8,30,5,42,127,2070602156
87,20,3,ISIP_8,31,1,48,44,2071311776
87,20,3,ISIP_8,32,5,42,127,2071401740
87,20,3,ISIP_8,33,1,48,41,2072141744
87,20,3,ISIP_8,34,5,42,127,2072201624
87,20,3,ISIP_8,35,1,48,43,2072921960
87,20,3,ISIP_8,36,5,42,127,2073002400
87,20,3,ISIP_8,37,1,48,47,2073765448
87,20,3,ISIP_8,38,5,42,127,2073801984
87,20,3,ISIP_8,39,1,48,37,2074557780
87,20,3,ISIP_8,40,5,42,127,2074601720
87,20,3,ISIP_8,41,1,48,38,2075311140
87,20,3,ISIP_8,42,5,42,127,2075401528
87,20,3,ISIP_8,43,1,48,46,2076138772
87,20,3,ISIP_8,44,5,42,127,2076202332
87,20,3,ISIP_8,45,1,48,41,2076915388
87,20,3,ISIP_8,46,5,42,127,2077002140
87,20,3,ISIP_8,47,1,48,45,2077725296
87,20,3,ISIP_8,48,5,42,127,2077801724
87,20,3,ISIP_8,49,1,48,43,2078507032
87,20,3,ISIP_8,50,5,42,127,2078601608
87,20,3,ISIP_8,51,1,48,41,2079319400
87,20,3,ISIP_8,52,5,42,127,2079402240
87,20,3,ISIP_8,53,1,48,43,2080109712
87,20,3,ISIP_8,54,5,42,127,2080202048
87,20,3,ISIP_8,55,1,48,43,2080938540
87,20,3,ISIP_8,56,5,42,127,2081001928
87,20,3,ISIP_8,57,1,48,46,2081698032
87,20,3,ISIP_8,58,5,42,127,2081801500
87,20,3,ISIP_8,59,1,48,43,2082563588
87,20,3,ISIP_8,60,1,48,35,2083367800
87,20,3,ISIP_8,61,1,48,46,2084195232
87,20,3,ISIP_8,62,1,48,43,2085027584
87,20,3,ISIP_8,63,1,48,40,2085883860
87,20,3,ISIP_8,64,1,48,44,2086721240
87,20,3,ISIP_8,65,1,48,46,2087577216
87,20,3,ISIP_8,66,1,48,51,2088455412
87,20,3,ISIP_8,67,1,48,49,2089335872
87,20,3,ISIP_8,68,1,48,48,2090170532
87,20,3,ISIP_8,69,1,48,49,2091011844
87,20,3,ISIP_8,70,1,48,49,2091886544
87,20,3,ISIP_8,71,1,48,45,2092765936
87,20,3,ISIP_8,72,1,48,51,2093624928
87,20,3,ISIP_8,73,1,48,49,2094530572
87,20,3,ISIP_8,74,1,48,51,2095459368
87,20,3,ISIP_8,75,1,48,52,2096396352
87,20,3,ISIP_8,76,1,48,49,2097275164
87,20,3,ISIP_8,77,1,48,53,2098122316
87,20,3,ISIP_8,78,1,48,50,2099024244
87,20,3,ISIP_8,79,1,48,54,2099915148
87,20,3,ISIP_8,80,1,48,49,2100738736
87,20,3,ISIP_8,81,1,48,49,2101616504
87,20,3,ISIP_8,82,1,48,48,2102496644
87,20,3,ISIP_8,83,1,48,50,2103416012
87,20,3,ISIP_8,84,1,48,51,2104308188
87,20,3,ISIP_8,85,1,48,53,2105198972
87,20,3,ISIP_8,86,1,48,55,2106123544
87,20,3,ISIP_8,87,1,48,48,2107068924
87,20,3,ISIP_8,88,1,48,49,2108001672
87,20,3,ISIP_8,89,1,48,53,2108915916
87,20,3,ISIP_8,90,1,48,50,2109861312
87,20,3,ISIP_8,91,1,48,48,2110791064
87,20,3,ISIP_8,92,1,48,49,2111717504
87,20,3,ISIP_8,93,1,48,49,2112606712
87,20,3,ISIP_8,94,1,48,49,2113526636
87,20,3,ISIP_8,95,1,48,48,2114420188
87,20,3,ISIP_8,96,1,48,50,2115344008
87,20,3,ISIP_8,97,1,48,53,2116188492
87,20,3,ISIP_8,98,1,48,51,2117101632
87,20,3,ISIP_8,99,1,48,56,2118064664
87,20,3,ISIP_8,100,1,48,54,2119019552
87,20,3,ISIP_8,101,1,48,51,2119960420
87,20,3,ISIP_8,102,1,48,50,2120904608
87,20,3,ISIP_8,103,1,48,55,2121879552
87,20,3,ISIP_8,104,1,48,57,2122816484
87,20,3,ISIP_8,105,1,48,53,2123766864
87,20,3,ISIP_8,106,1,48,51,2124714340
87,20,3,ISIP_8,107,1,48,51,2125683284
87,20,3,ISIP_8,108,1,48,57,2126637584
87,20,3,ISIP_8,109,1,48,57,2127609952
87,20,3,ISIP_8,110,1,48,51,2128537528
87,20,3,ISIP_8,111,1,48,57,2129488080
87,20,3,ISIP_8,112,1,48,53,2130478788
87,20,3,ISIP_8,113,1,48,48,2131486100
87,20,3,ISIP_8,114,1,48,54,2132464696
87,20,3,ISIP_8,115,1,48,56,2133443740
87,20,3,ISIP_8,116,1,48,35,2133484932
87,20,3,ISIP_8,117,1,48,58,2134480056
87,20,3,ISIP_8,118,1,48,57,2135488884
87,20,3,ISIP_8,119,1,48,53,2136459996
87,20,3,ISIP_8,120,1,48,54,2137411668
87,20,3,ISIP_8,121,1,48,55,2138362712
87,20,3,ISIP_8,122,1,48,57,2139330688
87,20,3,ISIP_8,123,1,48,57,2140319392
87,20,3,ISIP_8,124,1,48,53,2141354684
87,20,3,ISIP_8,125,1,48,57,2142355196
87,20,3,ISIP_8,126,1,48,53,2143359372
87,20,3,ISIP_8,127,1,48,54,2144346140
87,20,3,ISIP_8,128,1,48,58,2145338340
87,20,3,ISIP_8,129,1,48,37,2145376844
87,20,3,ISIP_8,130,1,48,57,2146332828
87,20,3,ISIP_8,131,1,48,33,2146376812
87,20,3,ISIP_8,132,1,48,53,2147392356
87,20,3,ISIP_8,133,1,48,49,2148264800
87,20,3,ISIP_8,134,1,48,57,2149228960
87,20,3,ISIP_8,135,1,48,47,2150151512
87,20,3,ISIP_8,136,1,48,50,2151107064
87,20,3,ISIP_8,137,1,48,48,2152066068
87,20,3,ISIP_8,138,1,48,52,2153046468
87,20,3,ISIP_8,139,1,48,48,2153981504
87,20,3,ISIP_8,140,1,48,49,2154998620
87,20,3,ISIP_8,141,1,48,51,2155948420
87,20,3,ISIP_8,142,1,48,45,2156903228
87,20,3,ISIP_8,143,1,48,51,2157808064
87,20,3,ISIP_8,144,1,48,54,2158761900
87,20,3,ISIP_8,145,1,48,50,2159672360
87,20,3,ISIP_8,146,1,48,52,2160688500
87,20,3,ISIP_8,147,1,48,57,2161677468
87,20,3,ISIP_8,148,1,48,34,2161728328
87,20,3,ISIP_8,149,1,48,56,2162720904
87,20,3,ISIP_8,150,1,48,56,2163676908
87,20,3,ISIP_8,151,1,48,52,2164664856
87,20,3,ISIP_8,152,1,48,29,2164712180
87,20,3,ISIP_8,153,1,48,53,2165643284
87,20,3,ISIP_8,154,1,48,46,2166595172
87,20,3,ISIP_8,155,1,48,47,2167503668
87,20,3,ISIP_8,156,1,48,40,2168344912
87,20,3,ISIP_8,157,1,48,52,2169237188
87,20,3,ISIP_8,158,1,48,48,2170137592
87,20,3,ISIP_8,159,1,48,49,2171011548
87,20,3,ISIP_8,160,1,48,47,2171918308
87,20,3,ISIP_8,161,1,48,48,2172796456
87,20,3,ISIP_8,162,1,48,43,2173717656
87,20,3,ISIP_8,163,1,48,48,2174627076
87,20,3,ISIP_8,164,1,48,49,2175543440
87,20,3,ISIP_8,165,1,48,30,2175595628
87,20,3,ISIP_8,166,1,48,47,2176456092
87,20,3,ISIP_8,167,1,48,51,2177328696
87,20,3,ISIP_8,168,1,48,43,2178227756
87,20,3,ISIP_8,0,9999,9999,9999,2058599536
87,20,3,ISIP_8,1,9999,9999,9999,2059399216
87,20,3,ISIP_8,2,9999,9999,9999,2060199992
87,20,3,ISIP_8,3,9999,9999,9999,2060999784
87,20,3,ISIP_8,4,9999,9999,9999,2061799516
87,20,3,ISIP_8,5,9999,9999,9999,2062599252
87,20,3,ISIP_8,6,9999,9999,9999,2063400048
87,20,3,ISIP_8,7,9999,9999,9999,2064199732
87,20,3,ISIP_8,8,9999,9999,9999,2064999536
87,20,3,ISIP_8,9,9999,9999,9999,2065799268
87,20,3,ISIP_8,10,9999,9999,9999,2066600048
87,20,3,ISIP_8,11,9999,9999,9999,2067399784
87,20,3,ISIP_8,12,9999,9999,9999,2068199516
87,20,3,ISIP_8,13,9999,9999,9999,2068999248
87,20,3,ISIP_8,14,9999,9999,9999,2069800028
87,20,3,ISIP_8,15,9999,9999,9999,2070599788
87,20,3,ISIP_8,16,9999,9999,9999,2071399524
87,20,3,ISIP_8,17,9999,9999,9999,2072199256
87,20,3,ISIP_8,18,9999,9999,9999,2073000036
87,20,3,ISIP_8,19,9999,9999,9999,2073799768
87,20,3,ISIP_8,20,9999,9999,9999,2074599504
87,20,3,ISIP_8,21,9999,9999,9999,2075399236
87,20,3,ISIP_8,22,9999,9999,9999,2076200016
87,20,3,ISIP_8,23,9999,9999,9999,2076999772
87,20,3,ISIP_8,24,9999,9999,9999,2077799508
87,20,3,ISIP_8,25,9999,9999,9999,2078599244
87,20,3,ISIP_8,26,9999,9999,9999,2079400020
87,20,3,ISIP_8,27,9999,9999,9999,2080199756
87,20,3,ISIP_8,28,9999,9999,9999,2080999488
87,20,3,ISIP_8,29,9999,9999,9999,2081799280
87,20,3,ISIP_8,30,9999,9999,9999,2082600004
87,20,3,ISIP_8,31,9999,9999,9999,2083399756
87,20,3,ISIP_8,32,9999,9999,9999,2084199484
87,20,3,ISIP_8,33,9999,9999,9999,2084999220
87,20,3,ISIP_8,34,9999,9999,9999,2085799996
87,20,3,ISIP_8,35,9999,9999,9999,2086599724
87,20,3,ISIP_8,36,9999,9999,9999,2087399528
87,20,3,ISIP_8,37,9999,9999,9999,2088199256
87,20,3,ISIP_8,38,9999,9999,9999,2089000032
87,20,3,ISIP_8,39,9999,9999,9999,2089799788
87,20,3,ISIP_8,40,9999,9999,9999,2090599516
87,20,3,ISIP_8,41,9999,9999,9999,2091399244
87,20,3,ISIP_8,42,9999,9999,9999,2092200020
87,20,3,ISIP_8,43,9999,9999,9999,2092999748
87,20,3,ISIP_8,44,9999,9999,9999,2093799480
87,20,3,ISIP_8,45,9999,9999,9999,2094599224
87,20,3,ISIP_8,46,9999,9999,9999,2095400008
87,20,3,ISIP_8,47,9999,9999,9999,2096199760
87,20,3,ISIP_8,48,9999,9999,9999,2096999488
87,20,3,ISIP_8,49,9999,9999,9999,2097799220
87,20,3,ISIP_8,50,9999,9999,9999,2098599996
87,20,3,ISIP_8,51,9999,9999,9999,2099399796
87,20,3,ISIP_8,52,9999,9999,9999,2100199528
87,20,3,ISIP_8,53,9999,9999,9999,2100999256
87,20,3,ISIP_8,54,9999,9999,9999,2101799984
87,20,3,ISIP_8,55,9999,9999,9999,2102599788
87,20,3,ISIP_8,56,9999,9999,9999,2103399536
87,20,3,ISIP_8,57,9999,9999,9999,2104199264
87,20,3,ISIP_8,58,9999,9999,9999,2105000040
87,20,3,ISIP_8,59,9999,9999,9999,2105799772
87,20,3,ISIP_8,60,9999,9999,9999,2106599500
87,20,3,ISIP_8,61,9999,9999,9999,2107399228
87,20,3,ISIP_8,62,9999,9999,9999,2108200028
87,20,3,ISIP_8,63,9999,9999,9999,2108999772
87,20,3,ISIP_8,64,9999,9999,9999,2109799512
87,20,3,ISIP_8,65,9999,9999,9999,2110599240
87,20,3,ISIP_8,66,9999,9999,9999,2111400016
87,20,3,ISIP_8,67,9999,9999,9999,2112199744
87,20,3,ISIP_8,68,9999,9999,9999,2112999472
87,20,3,ISIP_8,69,9999,9999,9999,2113799276
87,20,3,ISIP_8,70,9999,9999,9999,2114600000
87,20,3,ISIP_8,71,9999,9999,9999,2115399744
87,20,3,ISIP_8,72,9999,9999,9999,2116199476
87,20,3,ISIP_8,73,9999,9999,9999,2116999284
87,20,3,ISIP_8,74,9999,9999,9999,2117799988
87,20,3,ISIP_8,75,9999,9999,9999,2118599792
87,20,3,ISIP_8,76,9999,9999,9999,2119399520
87,20,3,ISIP_8,77,9999,9999,9999,2120199248
87,20,3,ISIP_8,78,9999,9999,9999,2121000048
87,20,3,ISIP_8,79,9999,9999,9999,2121799724
87,20,3,ISIP_8,80,9999,9999,9999,2122599532
87,20,3,ISIP_8,81,9999,9999,9999,2123399260
87,20,3,ISIP_8,82,9999,9999,9999,2124200036
87,20,3,ISIP_8,83,9999,9999,9999,2124999764
87,20,3,ISIP_8,84,9999,9999,9999,2125799492
87,20,3,ISIP_8,85,9999,9999,9999,2126599244
87,20,3,ISIP_8,86,9999,9999,9999,2127400048
87,20,3,ISIP_8,87,9999,9999,9999,2128199776
87,20,3,ISIP_8,88,9999,9999,9999,2128999504
87,20,3,ISIP_8,89,9999,9999,9999,2129799236
87,20,3,ISIP_8,90,9999,9999,9999,2130600012
87,20,3,ISIP_8,91,9999,9999,9999,2131399760
87,20,3,ISIP_8,92,9999,9999,9999,2132199492
87,20,3,ISIP_8,93,9999,9999,9999,2132999220
87,20,3,ISIP_8,94,9999,9999,9999,2133800000
87,20,3,ISIP_8,95,9999,9999,9999,2134599728
87,20,3,ISIP_8,96,9999,9999,9999,2135399480
87,20,3,ISIP_8,97,9999,9999,9999,2136199284
87,20,3,ISIP_8,98,9999,9999,9999,2136999984
87,20,3,ISIP_8,99,9999,9999,9999,2137799788
87,20,3,ISIP_8,100,9999,9999,9999,2138599520
87,20,3,ISIP_8,101,9999,9999,9999,2139399264
87,20,3,ISIP_8,102,9999,9999,9999,2140199996
87,20,3,ISIP_8,103,9999,9999,9999,2140999728
87,20,3,ISIP_8,104,9999,9999,9999,2141799532
87,20,3,ISIP_8,105,9999,9999,9999,2142599260
87,20,3,ISIP_8,106,9999,9999,9999,2143400052
87,20,3,ISIP_8,107,9999,9999,9999,2144199788
87,20,3,ISIP_8,108,9999,9999,9999,2144999516
87,20,3,ISIP_8,109,9999,9999,9999,2145799224
87,20,3,ISIP_8,110,9999,9999,9999,2146600004
87,20,3,ISIP_8,111,9999,9999,9999,2147399748
87,20,3,ISIP_8,112,9999,9999,9999,2148199484
87,20,3,ISIP_8,113,9999,9999,9999,2148999288
87,20,3,ISIP_8,114,9999,9999,9999,2149799988
87,20,3,ISIP_8,115,9999,9999,9999,2150599792
87,20,3,ISIP_8,116,9999,9999,9999,2151399520
87,20,3,ISIP_8,117,9999,9999,9999,2152199252
87,20,3,ISIP_8,118,9999,9999,9999,2153000000
87,20,3,ISIP_8,119,9999,9999,9999,2153799728
87,20,3,ISIP_8,120,9999,9999,9999,2154599532
87,20,3,ISIP_8,121,9999,9999,9999,2155399264
87,20,3,ISIP_8,122,9999,9999,9999,2156200036
87,20,3,ISIP_8,123,9999,9999,9999,2156999768
87,20,3,ISIP_8,124,9999,9999,9999,2157799516
87,20,3,ISIP_8,125,9999,9999,9999,2158599248
87,20,3,ISIP_8,126,9999,9999,9999,2159400048
87,20,3,ISIP_8,127,9999,9999,9999,2160199776
87,20,3,ISIP_8,128,9999,9999,9999,2160999508
87,20,3,ISIP_8,129,9999,9999,9999,2161799228
87,20,3,ISIP_8,130,9999,9999,9999,2162600012
87,20,3,ISIP_8,131,9999,9999,9999,2163399740
87,20,3,ISIP_8,132,9999,9999,9999,2164199544
87,20,3,ISIP_8,133,9999,9999,9999,2164999252
87,20,3,ISIP_8,134,9999,9999,9999,2165800052
87,20,3,ISIP_8,135,9999,9999,9999,2166599796
87,20,3,ISIP_8,136,9999,9999,9999,2167399532
87,20,3,ISIP_8,137,9999,9999,9999,2168199260
87,20,3,ISIP_8,138,9999,9999,9999,2169000036
87,20,3,ISIP_8,139,9999,9999,9999,2169799764
87,20,3,ISIP_8,140,9999,9999,9999,2170599492
87,20,3,ISIP_8,141,9999,9999,9999,2171399224
87,20,3,ISIP_8,142,9999,9999,9999,2172200024
87,20,3,ISIP_8,143,9999,9999,9999,2172999752
87,20,3,ISIP_8,144,9999,9999,9999,2173799496
87,20,3,ISIP_8,145,9999,9999,9999,2174599232
87,20,3,ISIP_8,146,9999,9999,9999,2175400008
87,20,3,ISIP_8,147,9999,9999,9999,2176199788
87,20,3,ISIP_8,148,9999,9999,9999,2176999516
87,20,3,ISIP_8,149,9999,9999,9999,2177799248
87,21,5,ISIP_5,0,5,42,127,2203441536
87,21,5,ISIP_5,1,5,42,127,2203942300
87,21,5,ISIP_5,2,1,48,44,2204425716
87,21,5,ISIP_5,3,5,42,127,2204441984
87,21,5,ISIP_5,4,1,48,43,2204911200
87,21,5,ISIP_5,5,5,42,127,2204941680
87,21,5,ISIP_5,6,5,42,127,2205442352
87,21,5,ISIP_5,7,1,48,39,2205446064
87,21,5,ISIP_5,8,5,42,127,2205942272
87,21,5,ISIP_5,9,1,48,41,2205969848
87,21,5,ISIP_5,10,5,42,127,2206441816
87,21,5,ISIP_5,11,1,48,42,2206476800
87,21,5,ISIP_5,12,5,42,127,2206941512
87,21,5,ISIP_5,13,1,48,40,2206970136
87,21,5,ISIP_5,14,5,42,127,2207442180
87,21,5,ISIP_5,15,1,48,40,2207514636
87,21,5,ISIP_5,16,5,42,127,2207942020
87,21,5,ISIP_5,17,1,48,43,2207979844
87,21,5,ISIP_5,18,5,42,127,2208441644
87,21,5,ISIP_5,19,1,48,38,2208457924
87,21,5,ISIP_5,20,5,42,127,2208941412
87,21,5,ISIP_5,21,1,48,44,2208944156
87,21,5,ISIP_5,22,5,42,127,2209442152
87,21,5,ISIP_5,23,1,48,38,2209446920
87,21,5,ISIP_5,24,5,42,127,2209941996
87,21,5,ISIP_5,25,1,48,40,2209946088
87,21,5,ISIP_5,26,1,48,40,2210435516
87,21,5,ISIP_5,27,5,42,127,2210441684
87,21,5,ISIP_5,28,1,48,50,2210930196
87,21,5,ISIP_5,29,5,42,127,2210942204
87,21,5,ISIP_5,30,1,48,40,2211431840
87,21,5,ISIP_5,31,5,42,127,2211441972
87,21,5,ISIP_5,32,1,48,43,2211938864
87,21,5,ISIP_5,33,5,42,127,2211941816
87,21,5,ISIP_5,34,1,48,43,2212441144
87,21,5,ISIP_5,35,5,42,127,2212442632
87,21,5,ISIP_5,36,5,42,127,2212942112
87,21,5,ISIP_5,37,1,48,48,2212956224
87,21,5,ISIP_5,38,1,48,49,2213427024
87,21,5,ISIP_5,39,5,42,127,2213442020
87,21,5,ISIP_5,40,1,48,46,2213913084
87,21,5,ISIP_5,41,5,42,127,2213941568
87,21,5,ISIP_5,42,1,48,46,2214397368
87,21,5,ISIP_5,43,5,42,127,2214442236
87,21,5,ISIP_5,44,1,48,45,2214897888
87,21,5,ISIP_5,45,5,42,127,2214942052
87,21,5,ISIP_5,46,1,48,45,2215411344
87,21,5,ISIP_5,47,5,42,127,2215441896
87,21,5,ISIP_5,48,1,48,50,2215885456
87,21,5,ISIP_5,49,5,42,127,2215941444
87,21,5,ISIP_5,50,1,48,49,2216356280
87,21,5,ISIP_5,51,5,42,127,2216442112
87,21,5,ISIP_5,52,1,48,48,2216880056
87,21,5,ISIP_5,53,5,42,127,2216941880
87,21,5,ISIP_5,54,1,48,46,2217397780
87,21,5,ISIP_5,55,5,42,127,2217441724
87,21,5,ISIP_5,56,1,48,41,2217911764
87,21,5,ISIP_5,57,5,42,127,2217942316
87,21,5,ISIP_5,58,1,48,44,2218419388
87,21,5,ISIP_5,59,5,42,127,2218442088
87,21,5,ISIP_5,60,1,48,43,2218907264
87,21,5,ISIP_5,61,5,42,127,2218941932
87,21,5,ISIP_5,62,1,48,44,2219402096
87,21,5,ISIP_5,63,5,42,127,2219441552
87,21,5,ISIP_5,64,1,48,43,2219908228
87,21,5,ISIP_5,65,5,42,127,2219942220
87,21,5,ISIP_5,66,1,48,46,2220402236
87,21,5,ISIP_5,67,5,42,127,2220441840
87,21,5,ISIP_5,68,1,48,44,2220881656
87,21,5,ISIP_5,69,5,42,127,2220941608
87,21,5,ISIP_5,70,1,48,48,2221384272
87,21,5,ISIP_5,71,5,42,127,2221442352
87,21,5,ISIP_5,72,1,48,46,2221874092
87,21,5,ISIP_5,73,5,42,127,2221942120
87,21,5,ISIP_5,74,1,48,46,2222397576
87,21,5,ISIP_5,75,5,42,127,2222441812
87,21,5,ISIP_5,76,1,48,47,2222933992
87,21,5,ISIP_5,77,5,42,127,2222941656
87,21,5,ISIP_5,78,1,48,47,2223441776
87,21,5,ISIP_5,79,1,48,46,2223918420
87,21,5,ISIP_5,80,1,48,44,2224445200
87,21,5,ISIP_5,81,1,48,43,2224956180
87,21,5,ISIP_5,82,1,48,46,2225449068
87,21,5,ISIP_5,83,1,48,44,2225939980
87,21,5,ISIP_5,84,1,48,44,2226459940
87,21,5,ISIP_5,85,1,48,46,2226959032
87,21,5,ISIP_5,86,1,48,42,2227454388
87,21,5,ISIP_5,87,1,48,44,2227966416
87,21,5,ISIP_5,88,1,48,46,2228435872
87,21,5,ISIP_5,89,1,48,45,2228912828
87,21,5,ISIP_5,90,1,48,47,2229406836
87,21,5,ISIP_5,91,1,48,47,2229906824
87,21,5,ISIP_5,92,1,48,42,2230383176
87,21,5,ISIP_5,93,1,48,43,2230865812
87,21,5,ISIP_5,94,1,48,46,2231343516
87,21,5,ISIP_5,95,1,48,47,2231819764
87,21,5,ISIP_5,96,1,48,43,2232307940
87,21,5,ISIP_5,97,1,48,47,2232786536
87,21,5,ISIP_5,98,1,48,50,2233316820
87,21,5,ISIP_5,99,1,48,47,2233802972
87,21,5,ISIP_5,100,1,48,46,2234322112
87,21,5,ISIP_5,101,1,48,47,2234846632
87,21,5,ISIP_5,102,1,48,48,2235374592
87,21,5,ISIP_5,103,1,48,43,2235876680
87,21,5,ISIP_5,104,1,48,41,2236357672
87,21,5,ISIP_5,105,1,48,50,2236865812
87,21,5,ISIP_5,106,1,48,47,2237337828
87,21,5,ISIP_5,107,1,48,48,2237846644
87,21,5,ISIP_5,108,1,48,48,2238350448
87,21,5,ISIP_5,109,1,48,50,2238841756
87,21,5,ISIP_5,110,1,48,47,2239346912
87,21,5,ISIP_5,111,1,48,47,2239877940
87,21,5,ISIP_5,112,1,48,48,2240374196
87,21,5,ISIP_5,113,1,48,49,2240848748
87,21,5,ISIP_5,114,1,48,49,2241352632
87,21,5,ISIP_5,115,1,48,48,2241825024
87,21,5,ISIP_5,116,1,48,44,2242313248
87,21,5,ISIP_5,117,1,48,47,2242748232
87,21,5,ISIP_5,118,1,48,44,2243276876
87,21,5,ISIP_5,119,1,48,48,2243797132
87,21,5,ISIP_5,120,1,48,46,2244306472
87,21,5,ISIP_5,121,1,48,46,2244802048
87,21,5,ISIP_5,122,1,48,48,2245314680
87,21,5,ISIP_5,123,1,48,48,2245837108
87,21,5,ISIP_5,124,1,48,48,2246350112
87,21,5,ISIP_5,125,1,48,47,2246890340
87,21,5,ISIP_5,126,1,48,46,2247382260
87,21,5,ISIP_5,127,1,48,44,2247933780
87,21,5,ISIP_5,128,1,48,50,2248444780
87,21,5,ISIP_5,129,1,48,43,2248996032
87,21,5,ISIP_5,130,1,48,47,2249544720
87,21,5,ISIP_5,131,1,48,49,2250073876
87,21,5,ISIP_5,132,1,48,46,2250585388
87,21,5,ISIP_5,133,1,48,51,2251107212
87,21,5,ISIP_5,134,1,48,46,2251658368
87,21,5,ISIP_5,135,1,48,47,2252187756
87,21,5,ISIP_5,136,1,48,49,2252727160
87,21,5,ISIP_5,137,1,48,46,2253251688
87,21,5,ISIP_5,138,1,48,46,2253786308
87,21,5,ISIP_5,139,1,48,45,2254315840
87,21,5,ISIP_5,140,1,48,45,2254845228
87,21,5,ISIP_5,141,1,48,44,2255344992
87,21,5,ISIP_5,142,1,48,44,2255863452
87,21,5,ISIP_5,143,1,48,42,2256380048
87,21,5,ISIP_5,144,1,48,46,2256876748
87,21,5,ISIP_5,145,1,48,49,2257415332
87,21,5,ISIP_5,146,1,48,48,2257925864
87,21,5,ISIP_5,147,1,48,46,2258369832
87,21,5,ISIP_5,148,1,48,38,2258888420
87,21,5,ISIP_5,149,1,48,45,2259416908
87,21,5,ISIP_5,150,1,48,48,2259950948
87,21,5,ISIP_5,151,1,48,44,2260465148
87,21,5,ISIP_5,152,1,48,46,2261003288
87,21,5,ISIP_5,153,1,48,48,2261517636
87,21,5,ISIP_5,154,1,48,43,2262013584
87,21,5,ISIP_5,155,1,48,49,2262547980
87,21,5,ISIP_5,156,1,48,44,2263081428
87,21,5,ISIP_5,157,1,48,48,2263591220
87,21,5,ISIP_5,158,1,48,47,2264087968
87,21,5,ISIP_5,159,1,48,51,2264611092
87,21,5,ISIP_5,160,1,48,46,2265127684
87,21,5,ISIP_5,161,1,48,47,2265673980
87,21,5,ISIP_5,162,1,48,46,2266171344
87,21,5,ISIP_5,163,1,48,48,2266723024
87,21,5,ISIP_5,164,1,48,46,2267224436
87,21,5,ISIP_5,165,1,48,50,2267757036
87,21,5,ISIP_5,166,1,48,49,2268237728
87,21,5,ISIP_5,167,1,48,49,2268786560
87,21,5,ISIP_5,168,1,48,49,2269347512
87,21,5,ISIP_5,169,1,48,48,2269832844
87,21,5,ISIP_5,170,1,48,50,2270413388
87,21,5,ISIP_5,171,1,48,44,2270986396
87,21,5,ISIP_5,172,1,48,46,2271502396
87,21,5,ISIP_5,173,1,48,45,2272015168
87,21,5,ISIP_5,174,1,48,48,2272492420
87,21,5,ISIP_5,175,1,48,50,2273030336
87,21,5,ISIP_5,176,1,48,46,2273519628
87,21,5,ISIP_5,177,1,48,48,2274062248
87,21,5,ISIP_5,178,1,48,50,2274589536
87,21,5,ISIP_5,179,1,48,49,2275113120
87,21,5,ISIP_5,180,1,48,46,2275656488
87,21,5,ISIP_5,181,1,48,53,2276193728
87,21,5,ISIP_5,182,1,48,51,2276741292
87,21,5,ISIP_5,183,1,48,50,2277266936
87,21,5,ISIP_5,184,1,48,45,2277776796
87,21,5,ISIP_5,185,1,48,43,2278315456
87,21,5,ISIP_5,186,1,48,44,2278862420
87,21,5,ISIP_5,187,1,48,45,2279415588
87,21,5,ISIP_5,188,1,48,41,2279919168
87,21,5,ISIP_5,189,1,48,41,2280485764
87,21,5,ISIP_5,190,1,48,45,2280965240
87,21,5,ISIP_5,191,1,48,49,2281463136
87,21,5,ISIP_5,192,1,48,38,2281997604
87,21,5,ISIP_5,193,1,48,49,2282476348
87,21,5,ISIP_5,194,1,48,47,2282964896
87,21,5,ISIP_5,0,9999,9999,9999,2203439172
87,21,5,ISIP_5,1,9999,9999,9999,2203939932
87,21,5,ISIP_5,2,9999,9999,9999,2204439620
87,21,5,ISIP_5,3,9999,9999,9999,2204939312
87,21,5,ISIP_5,4,9999,9999,9999,2205440064
87,21,5,ISIP_5,5,9999,9999,9999,2205939832
87,21,5,ISIP_5,6,9999,9999,9999,2206439528
87,21,5,ISIP_5,7,9999,9999,9999,2206939224
87,21,5,ISIP_5,8,9999,9999,9999,2207439964
87,21,5,ISIP_5,9,9999,9999,9999,2207939656
87,21,5,ISIP_5,10,9999,9999,9999,2208439352
87,21,5,ISIP_5,11,9999,9999,9999,2208939120
87,21,5,ISIP_5,12,9999,9999,9999,2209439864
87,21,5,ISIP_5,13,9999,9999,9999,2209939560
87,21,5,ISIP_5,14,9999,9999,9999,2210439248
87,21,5,ISIP_5,15,9999,9999,9999,2210939988
87,21,5,ISIP_5,16,9999,9999,9999,2211439684
87,21,5,ISIP_5,17,9999,9999,9999,2211939376
87,21,5,ISIP_5,18,9999,9999,9999,2212439152
87,21,5,ISIP_5,19,9999,9999,9999,2212939892
87,21,5,ISIP_5,20,9999,9999,9999,2213439584
87,21,5,ISIP_5,21,9999,9999,9999,2213939276
87,21,5,ISIP_5,22,9999,9999,9999,2214440020
87,21,5,ISIP_5,23,9999,9999,9999,2214939764
87,21,5,ISIP_5,24,9999,9999,9999,2215439460
87,21,5,ISIP_5,25,9999,9999,9999,2215939152
87,21,5,ISIP_5,26,9999,9999,9999,2216439896
87,21,5,ISIP_5,27,9999,9999,9999,2216939588
87,21,5,ISIP_5,28,9999,9999,9999,2217439284
87,21,5,ISIP_5,29,9999,9999,9999,2217940028
87,21,5,ISIP_5,30,9999,9999,9999,2218439796
87,21,5,ISIP_5,31,9999,9999,9999,2218939492
87,21,5,ISIP_5,32,9999,9999,9999,2219439188
87,21,5,ISIP_5,33,9999,9999,9999,2219939928
87,21,5,ISIP_5,34,9999,9999,9999,2220439624
87,21,5,ISIP_5,35,9999,9999,9999,2220939320
87,21,5,ISIP_5,36,9999,9999,9999,2221440060
87,21,5,ISIP_5,37,9999,9999,9999,2221939828
87,21,5,ISIP_5,38,9999,9999,9999,2222439524
87,21,5,ISIP_5,39,9999,9999,9999,2222939220
87,21,5,ISIP_5,40,9999,9999,9999,2223439968
87,21,5,ISIP_5,41,9999,9999,9999,2223939652
87,21,5,ISIP_5,42,9999,9999,9999,2224439348
87,21,5,ISIP_5,43,9999,9999,9999,2224939112
87,21,5,ISIP_5,44,9999,9999,9999,2225439824
87,21,5,ISIP_5,45,9999,9999,9999,2225939536
87,21,5,ISIP_5,46,9999,9999,9999,2226439280
87,21,5,ISIP_5,47,9999,9999,9999,2226940016
87,21,5,ISIP_5,48,9999,9999,9999,2227439708
87,21,5,ISIP_5,49,9999,9999,9999,2227939400
87,21,5,ISIP_5,50,9999,9999,9999,2228439156
87,21,5,ISIP_5,51,9999,9999,9999,2228939892
87,21,5,ISIP_5,52,9999,9999,9999,2229439584
87,21,5,ISIP_5,53,9999,9999,9999,2229939276
87,21,5,ISIP_5,54,9999,9999,9999,2230440012
87,21,5,ISIP_5,55,9999,9999,9999,2230939704
87,21,5,ISIP_5,56,9999,9999,9999,2231439468
87,21,5,ISIP_5,57,9999,9999,9999,2231939144
87,21,5,ISIP_5,58,9999,9999,9999,2232439880
87,21,5,ISIP_5,59,9999,9999,9999,2232939572
87,21,5,ISIP_5,60,9999,9999,9999,2233439336
87,21,5,ISIP_5,61,9999,9999,9999,2233940072
87,21,5,ISIP_5,62,9999,9999,9999,2234439764
87,21,5,ISIP_5,63,9999,9999,9999,2234939468
87,21,5,ISIP_5,64,9999,9999,9999,2235439160
87,21,5,ISIP_5,65,9999,9999,9999,2235939896
87,21,5,ISIP_5,66,9999,9999,9999,2236439640
87,21,5,ISIP_5,67,9999,9999,9999,2236939328
87,21,5,ISIP_5,68,9999,9999,9999,2237440052
87,21,5,ISIP_5,69,9999,9999,9999,2237939816
87,21,5,ISIP_5,70,9999,9999,9999,2238439520
87,21,5,ISIP_5,71,9999,9999,9999,2238939212
87,21,5,ISIP_5,72,9999,9999,9999,2239439952
87,21,5,ISIP_5,73,9999,9999,9999,2239939640
87,21,5,ISIP_5,74,9999,9999,9999,2240439408
87,21,5,ISIP_5,75,9999,9999,9999,2240939096
87,21,5,ISIP_5,76,9999,9999,9999,2241439836
87,21,5,ISIP_5,77,9999,9999,9999,2241939512
87,21,5,ISIP_5,78,9999,9999,9999,2242439276
87,21,5,ISIP_5,79,9999,9999,9999,2242940016
87,21,5,ISIP_5,80,9999,9999,9999,2243439708
87,21,5,ISIP_5,81,9999,9999,9999,2243939396
87,21,5,ISIP_5,82,9999,9999,9999,2244439088
87,21,5,ISIP_5,83,9999,9999,9999,2244939824
87,21,5,ISIP_5,84,9999,9999,9999,2245439588
87,21,5,ISIP_5,85,9999,9999,9999,2245939284
87,21,5,ISIP_5,86,9999,9999,9999,2246440032
87,21,5,ISIP_5,87,9999,9999,9999,2246939700
87,21,5,ISIP_5,88,9999,9999,9999,2247439468
87,21,5,ISIP_5,89,9999,9999,9999,2247939160
87,21,5,ISIP_5,90,9999,9999,9999,2248439904
87,21,5,ISIP_5,91,9999,9999,9999,2248939592
87,21,5,ISIP_5,92,9999,9999,9999,2249439284
87,21,5,ISIP_5,93,9999,9999,9999,2249940020
87,21,5,ISIP_5,94,9999,9999,9999,2250439784
87,21,5,ISIP_5,95,9999,9999,9999,2250939476
87,21,5,ISIP_5,96,9999,9999,9999,2251439168
87,21,5,ISIP_5,97,9999,9999,9999,2251939904
87,21,5,ISIP_5,98,9999,9999,9999,2252439672
87,21,5,ISIP_5,99,9999,9999,9999,2252939360
87,21,5,ISIP_5,100,9999,9999,9999,2253440100
87,21,5,ISIP_5,101,9999,9999,9999,2253939788
87,21,5,ISIP_5,102,9999,9999,9999,2254439480
87,21,5,ISIP_5,103,9999,9999,9999,2254939244
87,21,5,ISIP_5,104,9999,9999,9999,2255439980
87,21,5,ISIP_5,105,9999,9999,9999,2255939688
87,21,5,ISIP_5,106,9999,9999,9999,2256439376
87,21,5,ISIP_5,107,9999,9999,9999,2256939068
87,21,5,ISIP_5,108,9999,9999,9999,2257439804
87,21,5,ISIP_5,109,9999,9999,9999,2257939544
87,21,5,ISIP_5,110,9999,9999,9999,2258439236
87,21,5,ISIP_5,111,9999,9999,9999,2258940020
87,21,5,ISIP_5,112,9999,9999,9999,2259439712
87,21,5,ISIP_5,113,9999,9999,9999,2259939408
87,21,5,ISIP_5,114,9999,9999,9999,2260439100
87,21,5,ISIP_5,115,9999,9999,9999,2260939836
87,21,5,ISIP_5,116,9999,9999,9999,2261439600
87,21,5,ISIP_5,117,9999,9999,9999,2261939292
87,21,5,ISIP_5,118,9999,9999,9999,2262440028
87,21,5,ISIP_5,119,9999,9999,9999,2262939720
87,21,5,ISIP_5,120,9999,9999,9999,2263439412
87,21,5,ISIP_5,121,9999,9999,9999,2263939176
87,21,5,ISIP_5,122,9999,9999,9999,2264439912
87,21,5,ISIP_5,123,9999,9999,9999,2264939604
87,21,5,ISIP_5,124,9999,9999,9999,2265439296
87,21,5,ISIP_5,125,9999,9999,9999,2265940032
87,21,5,ISIP_5,126,9999,9999,9999,2266439796
87,21,5,ISIP_5,127,9999,9999,9999,2266939488
87,21,5,ISIP_5,128,9999,9999,9999,2267439180
87,21,5,ISIP_5,129,9999,9999,9999,2267939916
87,21,5,ISIP_5,130,9999,9999,9999,2268439656
87,21,5,ISIP_5,131,9999,9999,9999,2268939348
87,21,5,ISIP_5,132,9999,9999,9999,2269440104
87,21,5,ISIP_5,133,9999,9999,9999,2269939780
87,21,5,ISIP_5,134,9999,9999,9999,2270439484
87,21,5,ISIP_5,135,9999,9999,9999,2270939256
87,21,5,ISIP_5,136,9999,9999,9999,2271439992
87,21,5,ISIP_5,137,9999,9999,9999,2271939680
87,21,5,ISIP_5,138,9999,9999,9999,2272439372
87,21,5,ISIP_5,139,9999,9999,9999,2272939060
87,21,5,ISIP_5,140,9999,9999,9999,2273439800
87,21,5,ISIP_5,141,9999,9999,9999,2273939564
87,21,5,ISIP_5,142,9999,9999,9999,2274439252
87,21,5,ISIP_5,143,9999,9999,9999,2274939992
87,21,5,ISIP_5,144,9999,9999,9999,2275439684
87,21,5,ISIP_5,145,9999,9999,9999,2275939448
87,21,5,ISIP_5,146,9999,9999,9999,2276439140
87,21,5,ISIP_5,147,9999,9999,9999,2276939876
87,21,5,ISIP_5,148,9999,9999,9999,2277439568
87,21,5,ISIP_5,149,9999,9999,9999,2277939256
87,21,5,ISIP_5,150,9999,9999,9999,2278439992
87,21,5,ISIP_5,151,9999,9999,9999,2278939748
87,21,5,ISIP_5,152,9999,9999,9999,2279439440
87,21,5,ISIP_5,153,9999,9999,9999,2279939128
87,21,5,ISIP_5,154,9999,9999,9999,2280439872
87,21,5,ISIP_5,155,9999,9999,9999,2280939640
87,21,5,ISIP_5,156,9999,9999,9999,2281439332
87,21,5,ISIP_5,157,9999,9999,9999,2281940068
87,21,5,ISIP_5,158,9999,9999,9999,2282439756
87,21,5,ISIP_5,159,9999,9999,9999,2282939448
87,22,11,Pattern_Practice,0,5,42,127,2405698136
87,22,11,Pattern_Practice,1,5,42,127,2406197552
87,22,11,Pattern_Practice,2,1,48,32,2406462340
87,22,11,Pattern_Practice,3,5,42,127,2406698368
87,22,11,Pattern_Practice,4,1,38,29,2406956200
87,22,11,Pattern_Practice,5,5,42,127,2407198136
87,22,11,Pattern_Practice,6,1,48,41,2407429984
87,22,11,Pattern_Practice,7,5,42,127,2407697956
87,22,11,Pattern_Practice,8,1,38,37,2407704168
87,22,11,Pattern_Practice,9,1,48,40,2408001644
87,22,11,Pattern_Practice,10,5,42,127,2408197404
87,22,11,Pattern_Practice,11,1,38,42,2408278636
87,22,11,Pattern_Practice,12,1,48,48,2408560928
87,22,11,Pattern_Practice,13,5,42,127,2408698200
87,22,11,Pattern_Practice,14,1,38,29,2408953708
87,22,11,Pattern_Practice,15,5,42,127,2409198044
87,22,11,Pattern_Practice,16,1,38,42,2409536452
87,22,11,Pattern_Practice,17,5,42,127,2409698032
87,22,11,Pattern_Practice,18,1,48,40,2410088660
87,22,11,Pattern_Practice,19,5,42,127,2410198328
87,22,11,Pattern_Practice,20,1,48,47,2410682972
87,22,11,Pattern_Practice,21,5,42,127,2410698040
87,22,11,Pattern_Practice,22,5,42,127,2411197964
87,22,11,Pattern_Practice,23,1,38,43,2411260996
87,22,11,Pattern_Practice,24,5,42,127,2411697584
87,22,11,Pattern_Practice,25,1,48,29,2411914500
87,22,11,Pattern_Practice,26,5,42,127,2412198248
87,22,11,Pattern_Practice,27,1,38,38,2412246920
87,22,11,Pattern_Practice,28,1,48,59,2412509760
87,22,11,Pattern_Practice,29,5,42,127,2412697920
87,22,11,Pattern_Practice,30,1,38,35,2412810696
87,22,11,Pattern_Practice,31,1,48,38,2413181568
87,22,11,Pattern_Practice,32,5,42,127,2413197760
87,22,11,Pattern_Practice,33,1,48,46,2413555576
87,22,11,Pattern_Practice,34,5,42,127,2413698336
87,22,11,Pattern_Practice,35,1,48,52,2413868804
87,22,11,Pattern_Practice,36,5,42,127,2414198180
87,22,11,Pattern_Practice,37,1,38,29,2414577932
87,22,11,Pattern_Practice,38,5,42,127,2414697800
87,22,11,Pattern_Practice,39,1,48,46,2414905216
87,22,11,Pattern_Practice,40,5,42,127,2415197644
87,22,11,Pattern_Practice,41,1,38,19,2415232256
87,22,11,Pattern_Practice,42,1,48,45,2415562564
87,22,11,Pattern_Practice,43,5,42,127,2415698216
87,22,11,Pattern_Practice,44,1,38,19,2415873596
87,22,11,Pattern_Practice,45,5,42,127,2416198060
87,22,11,Pattern_Practice,46,1,38,16,2416215016
87,22,11,Pattern_Practice,47,1,38,19,2416545104
87,22,11,Pattern_Practice,48,5,42,127,2416697660
87,22,11,Pattern_Practice,49,1,48,53,2417045468
87,22,11,Pattern_Practice,50,5,42,127,2417197280
87,22,11,Pattern_Practice,51,1,38,18,2417377216
87,22,11,Pattern_Practice,52,5,42,127,2417698244
87,22,11,Pattern_Practice,53,1,48,55,2417705628
87,22,11,Pattern_Practice,54,1,38,22,2417995324
87,22,11,Pattern_Practice,55,5,42,127,2418197816
87,22,11,Pattern_Practice,56,1,48,45,2418345996
87,22,11,Pattern_Practice,57,1,48,47,2418685132
87,22,11,Pattern_Practice,58,5,42,127,2418697728
87,22,11,Pattern_Practice,59,1,48,47,2419008972
87,22,11,Pattern_Practice,60,5,42,127,2419198304
87,22,11,Pattern_Practice,61,1,38,20,2419589228
87,22,11,Pattern_Practice,62,5,42,127,2419698076
87,22,11,Pattern_Practice,63,1,48,27,2419863832
87,22,11,Pattern_Practice,64,1,38,16,2419964784
87,22,11,Pattern_Practice,65,1,48,45,2420105780
87,22,11,Pattern_Practice,66,5,42,127,2420197664
87,22,11,Pattern_Practice,67,1,38,18,2420215432
87,22,11,Pattern_Practice,68,1,48,54,2420418284
87,22,11,Pattern_Practice,69,5,42,127,2420697476
87,22,11,Pattern_Practice,70,1,38,23,2420839292
87,22,11,Pattern_Practice,71,1,38,15,2421107520
87,22,11,Pattern_Practice,72,5,42,127,2421198136
87,22,11,Pattern_Practice,73,1,48,49,2421482280
87,22,11,Pattern_Practice,74,5,42,127,2421697964
87,22,11,Pattern_Practice,75,1,48,41,2422127708
87,22,11,Pattern_Practice,76,5,42,127,2422197672
87,22,11,Pattern_Practice,77,1,38,17,2422431404
87,22,11,Pattern_Practice,78,5,42,127,2422698324
87,22,11,Pattern_Practice,79,1,48,44,2422777440
87,22,11,Pattern_Practice,80,1,48,33,2423081740
87,22,11,Pattern_Practice,81,5,42,127,2423198072
87,22,11,Pattern_Practice,82,1,38,21,2423420076
87,22,11,Pattern_Practice,83,5,42,127,2423697916
87,22,11,Pattern_Practice,84,1,48,38,2423708660
87,22,11,Pattern_Practice,85,1,38,27,2424053188
87,22,11,Pattern_Practice,86,5,42,127,2424197588
87,22,11,Pattern_Practice,87,1,48,51,2424651708
87,22,11,Pattern_Practice,88,5,42,127,2424698120
87,22,11,Pattern_Practice,89,1,38,19,2425017496
87,22,11,Pattern_Practice,90,5,42,127,2425197800
87,22,11,Pattern_Practice,91,1,48,45,2425309072
87,22,11,Pattern_Practice,92,1,38,24,2425631932
87,22,11,Pattern_Practice,93,5,42,127,2425697636
87,22,11,Pattern_Practice,94,1,48,48,2425951788
87,22,11,Pattern_Practice,95,1,38,19,2426172896
87,22,11,Pattern_Practice,96,5,42,127,2426198580
87,22,11,Pattern_Practice,97,1,38,18,2426618632
87,22,11,Pattern_Practice,98,5,42,127,2426698128
87,22,11,Pattern_Practice,99,1,48,48,2426787252
87,22,11,Pattern_Practice,100,1,38,17,2426982552
87,22,11,Pattern_Practice,101,1,48,45,2427076544
87,22,11,Pattern_Practice,102,5,42,127,2427197688
87,22,11,Pattern_Practice,103,1,38,28,2427315548
87,22,11,Pattern_Practice,104,1,48,13,2427328168
87,22,11,Pattern_Practice,105,5,42,127,2427697424
87,22,11,Pattern_Practice,106,1,48,50,2427842736
87,22,11,Pattern_Practice,107,1,48,28,2428104004
87,22,11,Pattern_Practice,108,5,42,127,2428198884
87,22,11,Pattern_Practice,109,1,38,28,2428274264
87,22,11,Pattern_Practice,110,1,38,18,2428569416
87,22,11,Pattern_Practice,111,5,42,127,2428697892
87,22,11,Pattern_Practice,112,1,48,36,2428793684
87,22,11,Pattern_Practice,113,1,38,13,2428928744
87,22,11,Pattern_Practice,114,1,38,22,2428933216
87,22,11,Pattern_Practice,115,1,48,30,2429066508
87,22,11,Pattern_Practice,116,1,38,17,2429179500
87,22,11,Pattern_Practice,117,1,38,27,2429183964
87,22,11,Pattern_Practice,118,5,42,127,2429197616
87,22,11,Pattern_Practice,119,1,48,24,2429268376
87,22,11,Pattern_Practice,120,1,48,46,2429631496
87,22,11,Pattern_Practice,121,5,42,127,2429698620
87,22,11,Pattern_Practice,122,1,48,26,2429940724
87,22,11,Pattern_Practice,123,1,38,19,2430086060
87,22,11,Pattern_Practice,124,5,42,127,2430198056
87,22,11,Pattern_Practice,125,1,48,41,2430302404
87,22,11,Pattern_Practice,126,1,38,15,2430379124
87,22,11,Pattern_Practice,127,1,48,39,2430607532
87,22,11,Pattern_Practice,128,1,38,16,2430694200
87,22,11,Pattern_Practice,129,5,42,127,2430697900
87,22,11,Pattern_Practice,130,1,48,32,2431016908
87,22,11,Pattern_Practice,131,5,42,127,2431197488
87,22,11,Pattern_Practice,132,1,38,25,2431349780
87,22,11,Pattern_Practice,133,1,38,18,2431692284
87,22,11,Pattern_Practice,134,5,42,127,2431698596
87,22,11,Pattern_Practice,135,5,42,127,2432197852
87,22,11,Pattern_Practice,136,1,48,45,2432250112
87,22,11,Pattern_Practice,137,1,48,38,2432541548
87,22,11,Pattern_Practice,138,5,42,127,2432697824
87,22,11,Pattern_Practice,139,1,38,23,2432906136
87,22,11,Pattern_Practice,140,5,42,127,2433197520
87,22,11,Pattern_Practice,141,1,38,16,2433217020
87,22,11,Pattern_Practice,142,1,48,29,2433580932
87,22,11,Pattern_Practice,143,5,42,127,2433698012
87,22,11,Pattern_Practice,144,1,48,37,2433899820
87,22,11,Pattern_Practice,145,5,42,127,2434198008
87,22,11,Pattern_Practice,146,1,38,27,2434246080
87,22,11,Pattern_Practice,147,1,48,13,2434258848
87,22,11,Pattern_Practice,148,5,42,127,2434697432
87,22,11,Pattern_Practice,149,1,38,23,2434899384
87,22,11,Pattern_Practice,150,1,38,20,2435178536
87,22,11,Pattern_Practice,151,5,42,127,2435198460
87,22,11,Pattern_Practice,152,1,48,43,2435513948
87,22,11,Pattern_Practice,153,5,42,127,2435697916
87,22,11,Pattern_Practice,154,1,48,39,2435854296
87,22,11,Pattern_Practice,155,5,42,127,2436197684
87,22,11,Pattern_Practice,156,1,38,26,2436201028
87,22,11,Pattern_Practice,157,1,38,29,2436475612
87,22,11,Pattern_Practice,158,5,42,127,2436697360
87,22,11,Pattern_Practice,159,1,48,58,2436859196
87,22,11,Pattern_Practice,160,5,42,127,2437198172
87,22,11,Pattern_Practice,161,1,48,55,2437475152
87,22,11,Pattern_Practice,162,5,42,127,2437697796
87,22,11,Pattern_Practice,163,1,38,25,2437698832
87,22,11,Pattern_Practice,164,1,38,13,2438026364
87,22,11,Pattern_Practice,165,1,48,43,2438089772
87,22,11,Pattern_Practice,166,5,42,127,2438197584
87,22,11,Pattern_Practice,167,5,42,127,2438698348
87,22,11,Pattern_Practice,168,1,48,35,2438713588
87,22,11,Pattern_Practice,169,1,38,23,2438833540
87,22,11,Pattern_Practice,170,1,48,40,2439021660
87,22,11,Pattern_Practice,171,1,38,18,2439158816
87,22,11,Pattern_Practice,172,5,42,127,2439198064
87,22,11,Pattern_Practice,173,1,48,32,2439353084
87,22,11,Pattern_Practice,174,1,38,21,2439476200
87,22,11,Pattern_Practice,175,5,42,127,2439697624
87,22,11,Pattern_Practice,176,1,48,15,2439983752
87,22,11,Pattern_Practice,177,5,42,127,2440197540
87,22,11,Pattern_Practice,178,1,38,17,2440337568
87,22,11,Pattern_Practice,179,1,48,15,2440640048
87,22,11,Pattern_Practice,180,5,42,127,2440698204
87,22,11,Pattern_Practice,181,1,48,19,2441003840
87,22,11,Pattern_Practice,182,5,42,127,2441197884
87,22,11,Pattern_Practice,183,1,38,18,2441213864
87,22,11,Pattern_Practice,184,1,48,16,2441318664
87,22,11,Pattern_Practice,185,1,38,19,2441526380
87,22,11,Pattern_Practice,186,1,48,24,2441631372
87,22,11,Pattern_Practice,187,5,42,127,2441697528
87,22,11,Pattern_Practice,188,1,48,38,2441936120
87,22,11,Pattern_Practice,189,1,38,58,2441936768
87,22,11,Pattern_Practice,190,1,38,32,2442016284
87,22,11,Pattern_Practice,191,5,42,127,2442198480
87,22,11,Pattern_Practice,192,1,38,34,2442620668
87,22,11,Pattern_Practice,193,1,48,54,2442637252
87,22,11,Pattern_Practice,194,5,42,127,2442698248
87,22,11,Pattern_Practice,195,1,48,39,2443003088
87,22,11,Pattern_Practice,196,1,38,17,2443013688
87,22,11,Pattern_Practice,197,5,42,127,2443197776
87,22,11,Pattern_Practice,198,1,48,48,2443337804
87,22,11,Pattern_Practice,199,1,38,19,2443349896
87,22,11,Pattern_Practice,200,5,42,127,2443697500
87,22,11,Pattern_Practice,201,1,48,44,2443978664
87,22,11,Pattern_Practice,202,5,42,127,2444198168
87,22,11,Pattern_Practice,203,1,48,23,2444339536
87,22,11,Pattern_Practice,204,1,38,19,2444361132
87,22,11,Pattern_Practice,205,1,38,27,2444662848
87,22,11,Pattern_Practice,206,1,48,44,2444666040
87,22,11,Pattern_Practice,207,5,42,127,2444698084
87,22,11,Pattern_Practice,208,5,42,127,2445197536
87,22,11,Pattern_Practice,209,1,48,49,2445316444
87,22,11,Pattern_Practice,210,1,38,28,2445575396
87,22,11,Pattern_Practice,211,1,48,14,2445587864
87,22,11,Pattern_Practice,0,9999,9999,9999,2405695552
87,22,11,Pattern_Practice,1,9999,9999,9999,2406195268
87,22,11,Pattern_Practice,2,9999,9999,9999,2406696008
87,22,11,Pattern_Practice,3,9999,9999,9999,2407195700
87,22,11,Pattern_Practice,4,9999,9999,9999,2407695448
87,22,11,Pattern_Practice,5,9999,9999,9999,2408195192
87,22,11,Pattern_Practice,6,9999,9999,9999,2408695912
87,22,11,Pattern_Practice,7,9999,9999,9999,2409195608
87,22,11,Pattern_Practice,8,9999,9999,9999,2409695300
87,22,11,Pattern_Practice,9,9999,9999,9999,2410196044
87,22,11,Pattern_Practice,10,9999,9999,9999,2410695752
87,22,11,Pattern_Practice,11,9999,9999,9999,2411195452
87,22,11,Pattern_Practice,12,9999,9999,9999,2411695220
87,22,11,Pattern_Practice,13,9999,9999,9999,2412195888
87,22,11,Pattern_Practice,14,9999,9999,9999,2412695636
87,22,11,Pattern_Practice,15,9999,9999,9999,2413195324
87,22,11,Pattern_Practice,16,9999,9999,9999,2413696052
87,22,11,Pattern_Practice,17,9999,9999,9999,2414195820
87,22,11,Pattern_Practice,18,9999,9999,9999,2414695516
87,22,11,Pattern_Practice,19,9999,9999,9999,2415195208
87,22,11,Pattern_Practice,20,9999,9999,9999,2415695928
87,22,11,Pattern_Practice,21,9999,9999,9999,2416195696
87,22,11,Pattern_Practice,22,9999,9999,9999,2416695372
87,22,11,Pattern_Practice,23,9999,9999,9999,2417195068
87,22,11,Pattern_Practice,24,9999,9999,9999,2417695808
87,22,11,Pattern_Practice,25,9999,9999,9999,2418195532
87,22,11,Pattern_Practice,26,9999,9999,9999,2418695220
87,22,11,Pattern_Practice,27,9999,9999,9999,2419196016
87,22,11,Pattern_Practice,28,9999,9999,9999,2419695716
87,22,11,Pattern_Practice,29,9999,9999,9999,2420195380
87,22,11,Pattern_Practice,30,9999,9999,9999,2420695112
87,22,11,Pattern_Practice,31,9999,9999,9999,2421195848
87,22,11,Pattern_Practice,32,9999,9999,9999,2421695604
87,22,11,Pattern_Practice,33,9999,9999,9999,2422195312
87,22,11,Pattern_Practice,34,9999,9999,9999,2422696040
87,22,11,Pattern_Practice,35,9999,9999,9999,2423195712
87,22,11,Pattern_Practice,36,9999,9999,9999,2423695480
87,22,11,Pattern_Practice,37,9999,9999,9999,2424195152
87,22,11,Pattern_Practice,38,9999,9999,9999,2424695908
87,22,11,Pattern_Practice,39,9999,9999,9999,2425195588
87,22,11,Pattern_Practice,40,9999,9999,9999,2425695348
87,22,11,Pattern_Practice,41,9999,9999,9999,2426196072
87,22,11,Pattern_Practice,42,9999,9999,9999,2426695768
87,22,11,Pattern_Practice,43,9999,9999,9999,2427195476
87,22,11,Pattern_Practice,44,9999,9999,9999,2427695212
87,22,11,Pattern_Practice,45,9999,9999,9999,2428195944
87,22,11,Pattern_Practice,46,9999,9999,9999,2428695604
87,22,11,Pattern_Practice,47,9999,9999,9999,2429195328
87,22,11,Pattern_Practice,48,9999,9999,9999,2429696108
87,22,11,Pattern_Practice,49,9999,9999,9999,2430195768
87,22,11,Pattern_Practice,50,9999,9999,9999,2430695540
87,22,11,Pattern_Practice,51,9999,9999,9999,2431195204
87,22,11,Pattern_Practice,52,9999,9999,9999,2431695940
87,22,11,Pattern_Practice,53,9999,9999,9999,2432195640
87,22,11,Pattern_Practice,54,9999,9999,9999,2432695388
87,22,11,Pattern_Practice,55,9999,9999,9999,2433195084
87,22,11,Pattern_Practice,56,9999,9999,9999,2433695800
87,22,11,Pattern_Practice,57,9999,9999,9999,2434195572
87,22,11,Pattern_Practice,58,9999,9999,9999,2434695220
87,22,11,Pattern_Practice,59,9999,9999,9999,2435195952
87,22,11,Pattern_Practice,60,9999,9999,9999,2435695704
87,22,11,Pattern_Practice,61,9999,9999,9999,2436195400
87,22,11,Pattern_Practice,62,9999,9999,9999,2436695144
87,22,11,Pattern_Practice,63,9999,9999,9999,2437195888
87,22,11,Pattern_Practice,64,9999,9999,9999,2437695580
87,22,11,Pattern_Practice,65,9999,9999,9999,2438195296
87,22,11,Pattern_Practice,66,9999,9999,9999,2438695984
87,22,11,Pattern_Practice,67,9999,9999,9999,2439195704
87,22,11,Pattern_Practice,68,9999,9999,9999,2439695412
87,22,11,Pattern_Practice,69,9999,9999,9999,2440195180
87,22,11,Pattern_Practice,70,9999,9999,9999,2440695916
87,22,11,Pattern_Practice,71,9999,9999,9999,2441195596
87,22,11,Pattern_Practice,72,9999,9999,9999,2441695316
87,22,11,Pattern_Practice,73,9999,9999,9999,2442196048
87,22,11,Pattern_Practice,74,9999,9999,9999,2442695740
87,22,11,Pattern_Practice,75,9999,9999,9999,2443195492
87,22,11,Pattern_Practice,76,9999,9999,9999,2443695216
87,22,11,Pattern_Practice,77,9999,9999,9999,2444195952
87,22,11,Pattern_Practice,78,9999,9999,9999,2444695652
87,22,11,Pattern_Practice,79,9999,9999,9999,2445195324
87,23,13,Improv_Metronome,0,5,42,127,2483320308
87,23,13,Improv_Metronome,1,5,42,127,2483819876
87,23,13,Improv_Metronome,2,5,42,127,2484319520
87,23,13,Improv_Metronome,3,1,48,16,2484382700
87,23,13,Improv_Metronome,4,5,42,127,2484820408
87,23,13,Improv_Metronome,5,1,38,16,2484836316
87,23,13,Improv_Metronome,6,1,48,16,2485316400
87,23,13,Improv_Metronome,7,5,42,127,2485320248
87,23,13,Improv_Metronome,8,1,48,16,2485811684
87,23,13,Improv_Metronome,9,1,38,22,2485814952
87,23,13,Improv_Metronome,10,5,42,127,2485819624
87,23,13,Improv_Metronome,11,1,48,16,2486292328
87,23,13,Improv_Metronome,12,5,42,127,2486319440
87,23,13,Improv_Metronome,13,1,48,24,2486797160
87,23,13,Improv_Metronome,14,1,38,23,2486800956
87,23,13,Improv_Metronome,15,5,42,127,2486820312
87,23,13,Improv_Metronome,16,1,48,18,2487249312
87,23,13,Improv_Metronome,17,5,42,127,2487319828
87,23,13,Improv_Metronome,18,1,38,19,2487448892
87,23,13,Improv_Metronome,19,1,48,22,2487652272
87,23,13,Improv_Metronome,20,1,38,19,2487785460
87,23,13,Improv_Metronome,21,5,42,127,2487819604
87,23,13,Improv_Metronome,22,1,48,15,2488021248
87,23,13,Improv_Metronome,23,5,42,127,2488320408
87,23,13,Improv_Metronome,24,1,48,19,2488381520
87,23,13,Improv_Metronome,25,1,38,27,2488799268
87,23,13,Improv_Metronome,26,5,42,127,2488820168
87,23,13,Improv_Metronome,27,5,42,127,2489319648
87,23,13,Improv_Metronome,28,1,48,26,2489414796
87,23,13,Improv_Metronome,29,1,38,13,2489427412
87,23,13,Improv_Metronome,30,1,48,14,2489760160
87,23,13,Improv_Metronome,31,5,42,127,2489819436
87,23,13,Improv_Metronome,32,1,38,28,2490164492
87,23,13,Improv_Metronome,33,1,48,15,2490177480
87,23,13,Improv_Metronome,34,5,42,127,2490320188
87,23,13,Improv_Metronome,35,1,48,15,2490753448
87,23,13,Improv_Metronome,36,5,42,127,2490820120
87,23,13,Improv_Metronome,37,1,48,20,2491056992
87,23,13,Improv_Metronome,38,5,42,127,2491319652
87,23,13,Improv_Metronome,39,1,38,26,2491420032
87,23,13,Improv_Metronome,40,1,38,22,2491773984
87,23,13,Improv_Metronome,41,5,42,127,2491820460
87,23,13,Improv_Metronome,42,1,38,26,2492103184
87,23,13,Improv_Metronome,43,1,48,13,2492115656
87,23,13,Improv_Metronome,44,5,42,127,2492320244
87,23,13,Improv_Metronome,45,1,48,13,2492422696
87,23,13,Improv_Metronome,46,1,38,25,2492643800
87,23,13,Improv_Metronome,47,1,48,13,2492656796
87,23,13,Improv_Metronome,48,1,48,28,2492738628
87,23,13,Improv_Metronome,49,5,42,127,2492819948
87,23,13,Improv_Metronome,50,1,38,22,2492961748
87,23,13,Improv_Metronome,51,1,48,20,2493044912
87,23,13,Improv_Metronome,52,1,48,32,2493049744
87,23,13,Improv_Metronome,53,1,38,14,2493059596
87,23,13,Improv_Metronome,54,5,42,127,2493319388
87,23,13,Improv_Metronome,55,1,38,26,2493412860
87,23,13,Improv_Metronome,56,1,48,16,2493750748
87,23,13,Improv_Metronome,57,5,42,127,2493820344
87,23,13,Improv_Metronome,58,1,48,18,2494069112
87,23,13,Improv_Metronome,59,1,38,21,2494254092
87,23,13,Improv_Metronome,60,5,42,127,2494320164
87,23,13,Improv_Metronome,61,1,48,20,2494432480
87,23,13,Improv_Metronome,62,1,38,31,2494510508
87,23,13,Improv_Metronome,63,1,48,21,2494729320
87,23,13,Improv_Metronome,64,5,42,127,2494819804
87,23,13,Improv_Metronome,65,1,38,26,2495137836
87,23,13,Improv_Metronome,66,1,48,14,2495150384
87,23,13,Improv_Metronome,67,5,42,127,2495320336
87,23,13,Improv_Metronome,68,1,48,19,2495777976
87,23,13,Improv_Metronome,69,5,42,127,2495820268
87,23,13,Improv_Metronome,70,1,48,16,2496010296
87,23,13,Improv_Metronome,71,1,48,16,2496253464
87,23,13,Improv_Metronome,72,5,42,127,2496320092
87,23,13,Improv_Metronome,73,1,38,27,2496603192
87,23,13,Improv_Metronome,74,1,48,14,2496616256
87,23,13,Improv_Metronome,75,5,42,127,2496819500
87,23,13,Improv_Metronome,76,1,38,17,2496889940
87,23,13,Improv_Metronome,77,1,38,23,2497177240
87,23,13,Improv_Metronome,78,5,42,127,2497320448
87,23,13,Improv_Metronome,79,5,42,127,2497820236
87,23,13,Improv_Metronome,80,1,48,35,2497878336
87,23,13,Improv_Metronome,81,1,48,50,2498004348
87,23,13,Improv_Metronome,82,1,48,43,2498146692
87,23,13,Improv_Metronome,83,1,48,41,2498244056
87,23,13,Improv_Metronome,84,5,42,127,2498319632
87,23,13,Improv_Metronome,85,1,48,47,2498373680
87,23,13,Improv_Metronome,86,1,48,40,2498485024
87,23,13,Improv_Metronome,87,1,48,47,2498628116
87,23,13,Improv_Metronome,88,1,48,43,2498741640
87,23,13,Improv_Metronome,89,5,42,127,2498819384
87,23,13,Improv_Metronome,90,1,48,43,2498889132
87,23,13,Improv_Metronome,91,1,48,41,2498996300
87,23,13,Improv_Metronome,92,1,48,47,2499134828
87,23,13,Improv_Metronome,93,1,48,27,2499299584
87,23,13,Improv_Metronome,94,5,42,127,2499320184
87,23,13,Improv_Metronome,95,1,38,76,2499706980
87,23,13,Improv_Metronome,96,5,42,127,2499820088
87,23,13,Improv_Metronome,97,1,38,21,2499984124
87,23,13,Improv_Metronome,98,1,38,24,2500271048
87,23,13,Improv_Metronome,99,5,42,127,2500319552
87,23,13,Improv_Metronome,100,1,48,53,2500761024
87,23,13,Improv_Metronome,101,5,42,127,2500820296
87,23,13,Improv_Metronome,102,1,48,54,2500913928
87,23,13,Improv_Metronome,103,1,48,23,2500983768
87,23,13,Improv_Metronome,104,1,48,43,2500987784
87,23,13,Improv_Metronome,105,1,48,45,2501133920
87,23,13,Improv_Metronome,106,1,48,45,2501172144
87,23,13,Improv_Metronome,107,1,48,16,2501318828
87,23,13,Improv_Metronome,108,5,42,127,2501320324
87,23,13,Improv_Metronome,109,1,48,36,2501367116
87,23,13,Improv_Metronome,110,1,48,28,2501534588
87,23,13,Improv_Metronome,111,1,48,37,2501802072
87,23,13,Improv_Metronome,112,5,42,127,2501820200
87,23,13,Improv_Metronome,113,1,48,51,2502001500
87,23,13,Improv_Metronome,114,1,48,46,2502139480
87,23,13,Improv_Metronome,115,5,42,127,2502319484
87,23,13,Improv_Metronome,116,1,38,50,2502453752
87,23,13,Improv_Metronome,117,1,48,18,2502729012
87,23,13,Improv_Metronome,118,5,42,127,2502820148
87,23,13,Improv_Metronome,119,1,48,59,2503054628
87,23,13,Improv_Metronome,120,1,48,57,2503216936
87,23,13,Improv_Metronome,121,5,42,127,2503320100
87,23,13,Improv_Metronome,122,1,38,68,2503607480
87,23,13,Improv_Metronome,123,5,42,127,2503819500
87,23,13,Improv_Metronome,124,1,48,60,2503912972
87,23,13,Improv_Metronome,125,1,38,27,2504122412
87,23,13,Improv_Metronome,126,1,48,14,2504135476
87,23,13,Improv_Metronome,127,5,42,127,2504320320
87,23,13,Improv_Metronome,128,1,38,59,2504482260
87,23,13,Improv_Metronome,129,1,38,25,2504668336
87,23,13,Improv_Metronome,130,1,48,13,2504681028
87,23,13,Improv_Metronome,131,1,38,28,2504739900
87,23,13,Improv_Metronome,132,5,42,127,2504820024
87,23,13,Improv_Metronome,133,1,38,18,2504917224
87,23,13,Improv_Metronome,134,1,38,46,2504940616
87,23,13,Improv_Metronome,135,1,38,38,2505156408
87,23,13,Improv_Metronome,136,5,42,127,2505319956
87,23,13,Improv_Metronome,137,1,38,21,2505328608
87,23,13,Improv_Metronome,138,1,38,43,2505378108
87,23,13,Improv_Metronome,139,1,38,27,2505575652
87,23,13,Improv_Metronome,140,5,42,127,2505819608
87,23,13,Improv_Metronome,141,1,38,18,2505825948
87,23,13,Improv_Metronome,142,1,38,51,2505891300
87,23,13,Improv_Metronome,143,1,38,26,2506010756
87,23,13,Improv_Metronome,144,1,38,45,2506146340
87,23,13,Improv_Metronome,145,1,38,31,2506235476
87,23,13,Improv_Metronome,146,5,42,127,2506320204
87,23,13,Improv_Metronome,147,1,38,53,2506373128
87,23,13,Improv_Metronome,148,1,38,26,2506464360
87,23,13,Improv_Metronome,149,1,38,49,2506582392
87,23,13,Improv_Metronome,150,1,38,29,2506702568
87,23,13,Improv_Metronome,151,1,38,47,2506782304
87,23,13,Improv_Metronome,152,5,42,127,2506820032
87,23,13,Improv_Metronome,153,1,38,24,2506949396
87,23,13,Improv_Metronome,154,1,48,13,2506962024
87,23,13,Improv_Metronome,155,1,38,36,2507030912
87,23,13,Improv_Metronome,156,5,42,127,2507319940
87,23,13,Improv_Metronome,157,1,48,87,2507389332
87,23,13,Improv_Metronome,158,1,38,19,2507672900
87,23,13,Improv_Metronome,159,1,38,48,2507800656
87,23,13,Improv_Metronome,160,5,42,127,2507820432
87,23,13,Improv_Metronome,161,1,38,23,2507918532
87,23,13,Improv_Metronome,162,1,38,51,2507999060
87,23,13,Improv_Metronome,163,1,38,21,2508187408
87,23,13,Improv_Metronome,164,5,42,127,2508320068
87,23,13,Improv_Metronome,165,1,38,13,2508359020
87,23,13,Improv_Metronome,166,1,38,26,2508432824
87,23,13,Improv_Metronome,167,1,38,33,2508597828
87,23,13,Improv_Metronome,168,1,38,44,2508644256
87,23,13,Improv_Metronome,169,1,38,31,2508806472
87,23,13,Improv_Metronome,170,5,42,127,2508819992
87,23,13,Improv_Metronome,171,1,38,17,2508975908
87,23,13,Improv_Metronome,172,1,38,17,2509183700
87,23,13,Improv_Metronome,173,1,38,19,2509226388
87,23,13,Improv_Metronome,174,5,42,127,2509319380
87,23,13,Improv_Metronome,175,1,48,41,2509646952
87,23,13,Improv_Metronome,176,1,38,30,2509655004
87,23,13,Improv_Metronome,177,5,42,127,2509820300
87,23,13,Improv_Metronome,178,1,48,65,2509985012
87,23,13,Improv_Metronome,179,1,38,55,2510001372
87,23,13,Improv_Metronome,180,5,42,127,2510319884
87,23,13,Improv_Metronome,181,1,48,37,2510352176
87,23,13,Improv_Metronome,182,1,38,19,2510452860
87,23,13,Improv_Metronome,183,1,48,39,2510679052
87,23,13,Improv_Metronome,184,1,38,57,2510758988
87,23,13,Improv_Metronome,185,5,42,127,2510819888
87,23,13,Improv_Metronome,186,1,48,56,2511001788
87,23,13,Improv_Metronome,187,1,38,21,2511183620
87,23,13,Improv_Metronome,188,5,42,127,2511320372
87,23,13,Improv_Metronome,189,1,48,42,2511403028
87,23,13,Improv_Metronome,190,1,38,21,2511659880
87,23,13,Improv_Metronome,191,1,48,51,2511781932
87,23,13,Improv_Metronome,192,5,42,127,2511820184
87,23,13,Improv_Metronome,193,1,38,21,2512057808
87,23,13,Improv_Metronome,194,1,48,13,2512070424
87,23,13,Improv_Metronome,195,1,48,57,2512210276
87,23,13,Improv_Metronome,196,5,42,127,2512319796
87,23,13,Improv_Metronome,197,1,48,51,2512582488
87,23,13,Improv_Metronome,198,5,42,127,2512819492
87,23,13,Improv_Metronome,199,1,48,57,2512914788
87,23,13,Improv_Metronome,200,1,48,51,2513155464
87,23,13,Improv_Metronome,201,5,42,127,2513320284
87,23,13,Improv_Metronome,202,1,48,49,2513415104
87,23,13,Improv_Metronome,203,1,48,50,2513565004
87,23,13,Improv_Metronome,204,1,48,43,2513748336
87,23,13,Improv_Metronome,205,5,42,127,2513819948
87,23,13,Improv_Metronome,206,1,48,46,2513868456
87,23,13,Improv_Metronome,207,1,48,49,2513945728
87,23,13,Improv_Metronome,208,1,48,42,2514092008
87,23,13,Improv_Metronome,209,1,48,40,2514240860
87,23,13,Improv_Metronome,210,5,42,127,2514319728
87,23,13,Improv_Metronome,211,1,38,30,2514518752
87,23,13,Improv_Metronome,212,1,48,62,2514811588
87,23,13,Improv_Metronome,213,5,42,127,2514819552
87,23,13,Improv_Metronome,214,1,48,57,2515036076
87,23,13,Improv_Metronome,215,1,48,57,2515122000
87,23,13,Improv_Metronome,216,1,48,58,2515307424
87,23,13,Improv_Metronome,217,5,42,127,2515320024
87,23,13,Improv_Metronome,218,1,48,48,2515422760
87,23,13,Improv_Metronome,219,1,48,51,2515558968
87,23,13,Improv_Metronome,220,1,48,62,2515643920
87,23,13,Improv_Metronome,221,1,48,45,2515798452
87,23,13,Improv_Metronome,222,5,42,127,2515819952
87,23,13,Improv_Metronome,223,1,38,35,2516182264
87,23,13,Improv_Metronome,224,1,48,16,2516194808
87,23,13,Improv_Metronome,225,5,42,127,2516319732
87,23,13,Improv_Metronome,226,1,48,53,2516674656
87,23,13,Improv_Metronome,227,5,42,127,2516820400
87,23,13,Improv_Metronome,228,1,38,21,2516891136
87,23,13,Improv_Metronome,229,1,48,46,2517055848
87,23,13,Improv_Metronome,230,1,38,21,2517192032
87,23,13,Improv_Metronome,231,1,48,59,2517274628
87,23,13,Improv_Metronome,232,5,42,127,2517319896
87,23,13,Improv_Metronome,233,1,48,45,2517501392
87,23,13,Improv_Metronome,234,1,38,25,2517511248
87,23,13,Improv_Metronome,235,5,42,127,2517819828
87,23,13,Improv_Metronome,236,1,48,67,2517848156
87,23,13,Improv_Metronome,237,1,38,27,2518047640
87,23,13,Improv_Metronome,238,1,48,14,2518060560
87,23,13,Improv_Metronome,239,1,48,54,2518269196
87,23,13,Improv_Metronome,240,5,42,127,2518319520
87,23,13,Improv_Metronome,241,1,38,26,2518412980
87,23,13,Improv_Metronome,242,1,48,14,2518425300
87,23,13,Improv_Metronome,243,1,48,63,2518564328
87,23,13,Improv_Metronome,244,1,38,23,2518729532
87,23,13,Improv_Metronome,245,5,42,127,2518820244
87,23,13,Improv_Metronome,246,1,38,50,2519207608
87,23,13,Improv_Metronome,247,5,42,127,2519319924
87,23,13,Improv_Metronome,248,1,38,25,2519324316
87,23,13,Improv_Metronome,249,1,48,13,2519336860
87,23,13,Improv_Metronome,250,1,38,74,2519619420
87,23,13,Improv_Metronome,251,5,42,127,2519819752
87,23,13,Improv_Metronome,252,1,38,64,2520114336
87,23,13,Improv_Metronome,253,1,38,29,2520283056
87,23,13,Improv_Metronome,254,1,48,14,2520295532
87,23,13,Improv_Metronome,255,5,42,127,2520320248
87,23,13,Improv_Metronome,256,1,38,44,2520369820
87,23,13,Improv_Metronome,257,1,38,18,2520634584
87,23,13,Improv_Metronome,258,5,42,127,2520820096
87,23,13,Improv_Metronome,259,1,38,66,2521060048
87,23,13,Improv_Metronome,260,1,38,28,2521252808
87,23,13,Improv_Metronome,261,1,48,14,2521265876
87,23,13,Improv_Metronome,262,5,42,127,2521319764
87,23,13,Improv_Metronome,263,1,48,39,2521442412
87,23,13,Improv_Metronome,264,1,38,39,2521654688
87,23,13,Improv_Metronome,265,1,48,17,2521667304
87,23,13,Improv_Metronome,266,5,42,127,2521819584
87,23,13,Improv_Metronome,267,1,38,73,2521918624
87,23,13,Improv_Metronome,268,1,38,30,2522115916
87,23,13,Improv_Metronome,269,1,48,17,2522129320
87,23,13,Improv_Metronome,270,1,38,24,2522248948
87,23,13,Improv_Metronome,271,5,42,127,2522320116
87,23,13,Improv_Metronome,272,1,38,15,2522467828
87,23,13,Improv_Metronome,273,1,38,27,2522472368
87,23,13,Improv_Metronome,274,1,48,14,2522481248
87,23,13,Improv_Metronome,275,1,38,24,2522567172
87,23,13,Improv_Metronome,276,1,38,32,2522798884
87,23,13,Improv_Metronome,277,1,48,17,2522812032
87,23,13,Improv_Metronome,278,5,42,127,2522819840
87,23,13,Improv_Metronome,279,1,48,24,2522960480
87,23,13,Improv_Metronome,280,1,38,24,2523230284
87,23,13,Improv_Metronome,281,5,42,127,2523319772
87,23,13,Improv_Metronome,282,1,38,73,2523359148
87,23,13,Improv_Metronome,283,1,38,29,2523629324
87,23,13,Improv_Metronome,284,1,48,16,2523642396
87,23,13,Improv_Metronome,285,1,48,38,2523758380
87,23,13,Improv_Metronome,286,5,42,127,2523820720
87,23,13,Improv_Metronome,287,1,38,29,2523980696
87,23,13,Improv_Metronome,288,1,48,15,2523993548
87,23,13,Improv_Metronome,289,1,38,49,2524141748
87,23,13,Improv_Metronome,290,5,42,127,2524320032
87,23,13,Improv_Metronome,291,1,38,32,2524390392
87,23,13,Improv_Metronome,292,1,48,19,2524403464
87,23,13,Improv_Metronome,293,1,48,73,2524535308
87,23,13,Improv_Metronome,294,5,42,127,2524819732
87,23,13,Improv_Metronome,295,1,38,60,2524929588
87,23,13,Improv_Metronome,296,1,38,27,2525145608
87,23,13,Improv_Metronome,297,1,48,15,2525158224
87,23,13,Improv_Metronome,298,5,42,127,2525319580
87,23,13,Improv_Metronome,299,1,38,61,2525378496
87,23,13,Improv_Metronome,300,1,38,29,2525474320
87,23,13,Improv_Metronome,301,1,38,47,2525659940
87,23,13,Improv_Metronome,302,5,42,127,2525820576
87,23,13,Improv_Metronome,303,1,48,38,2526179608
87,23,13,Improv_Metronome,304,1,38,42,2526216392
87,23,13,Improv_Metronome,305,5,42,127,2526319924
87,23,13,Improv_Metronome,306,1,48,70,2526531080
87,23,13,Improv_Metronome,307,1,38,15,2526614312
87,23,13,Improv_Metronome,308,5,42,127,2526819648
87,23,13,Improv_Metronome,309,1,48,60,2527011056
87,23,13,Improv_Metronome,310,1,38,43,2527144920
87,23,13,Improv_Metronome,311,1,48,17,2527157988
87,23,13,Improv_Metronome,312,1,48,40,2527298900
87,23,13,Improv_Metronome,313,5,42,127,2527320624
87,23,13,Improv_Metronome,314,1,38,22,2527472052
87,23,13,Improv_Metronome,315,1,48,41,2527604824
87,23,13,Improv_Metronome,316,5,42,127,2527820204
87,23,13,Improv_Metronome,317,1,48,51,2527950032
87,23,13,Improv_Metronome,318,1,38,25,2528153712
87,23,13,Improv_Metronome,319,1,48,13,2528166408
87,23,13,Improv_Metronome,320,5,42,127,2528319756
87,23,13,Improv_Metronome,321,1,48,22,2528366636
87,23,13,Improv_Metronome,322,1,38,17,2528588560
87,23,13,Improv_Metronome,323,1,48,38,2528701564
87,23,13,Improv_Metronome,324,5,42,127,2528819708
87,23,13,Improv_Metronome,325,1,38,23,2528926124
87,23,13,Improv_Metronome,326,1,48,63,2529117684
87,23,13,Improv_Metronome,327,5,42,127,2529320648
87,23,13,Improv_Metronome,328,1,38,38,2529321540
87,23,13,Improv_Metronome,329,1,48,64,2529514480
87,23,13,Improv_Metronome,330,1,38,47,2529677020
87,23,13,Improv_Metronome,331,5,42,127,2529820152
87,23,13,Improv_Metronome,332,1,48,76,2529934272
87,23,13,Improv_Metronome,333,1,38,27,2530077816
87,23,13,Improv_Metronome,334,1,48,73,2530294628
87,23,13,Improv_Metronome,335,5,42,127,2530319648
87,23,13,Improv_Metronome,336,1,38,19,2530408340
87,23,13,Improv_Metronome,337,1,48,60,2530676200
87,23,13,Improv_Metronome,338,1,38,21,2530780220
87,23,13,Improv_Metronome,339,5,42,127,2530819520
87,23,13,Improv_Metronome,340,1,48,67,2531062380
87,23,13,Improv_Metronome,341,1,38,28,2531095608
87,23,13,Improv_Metronome,342,5,42,127,2531320436
87,23,13,Improv_Metronome,343,1,48,54,2531608136
87,23,13,Improv_Metronome,344,1,48,64,2531628536
87,23,13,Improv_Metronome,345,5,42,127,2531820032
87,23,13,Improv_Metronome,346,1,48,55,2531949812
87,23,13,Improv_Metronome,347,1,48,52,2531973428
87,23,13,Improv_Metronome,348,5,42,127,2532319708
87,23,13,Improv_Metronome,349,1,38,53,2532371476
87,23,13,Improv_Metronome,350,5,42,127,2532820596
87,23,13,Improv_Metronome,351,1,48,58,2533081204
87,23,13,Improv_Metronome,352,5,42,127,2533319996
87,23,13,Improv_Metronome,353,1,48,54,2533444616
87,23,13,Improv_Metronome,354,5,42,127,2533819840
87,23,13,Improv_Metronome,355,1,38,69,2533832608
87,23,13,Improv_Metronome,356,1,38,78,2533845900
87,23,13,Improv_Metronome,357,5,42,127,2534319588
87,23,13,Improv_Metronome,358,1,48,61,2534500076
87,23,13,Improv_Metronome,359,1,48,66,2534525784
87,23,13,Improv_Metronome,360,5,42,127,2534820308
87,23,13,Improv_Metronome,361,1,48,47,2534870028
87,23,13,Improv_Metronome,362,1,48,56,2534890420
87,23,13,Improv_Metronome,363,1,38,93,2535242596
87,23,13,Improv_Metronome,364,5,42,127,2535319896
87,23,13,Improv_Metronome,365,5,42,127,2535819600
87,23,13,Improv_Metronome,366,1,48,91,2535944340
87,23,13,Improv_Metronome,367,1,38,30,2536058260
87,23,13,Improv_Metronome,368,1,48,15,2536071256
87,23,13,Improv_Metronome,369,5,42,127,2536320272
87,23,13,Improv_Metronome,370,1,48,90,2536398116
87,23,13,Improv_Metronome,371,1,38,32,2536514728
87,23,13,Improv_Metronome,372,1,48,16,2536528096
87,23,13,Improv_Metronome,373,1,48,73,2536739224
87,23,13,Improv_Metronome,374,1,38,25,2536810860
87,23,13,Improv_Metronome,375,5,42,127,2536820240
87,23,13,Improv_Metronome,376,1,48,70,2537060608
87,23,13,Improv_Metronome,377,1,38,26,2537149068
87,23,13,Improv_Metronome,378,1,48,19,2537305316
87,23,13,Improv_Metronome,379,5,42,127,2537319780
87,23,13,Improv_Metronome,380,5,42,127,2537819632
87,23,13,Improv_Metronome,381,1,48,81,2537828284
87,23,13,Improv_Metronome,382,1,38,34,2538214096
87,23,13,Improv_Metronome,383,1,48,17,2538227164
87,23,13,Improv_Metronome,384,5,42,127,2538320328
87,23,13,Improv_Metronome,385,1,48,81,2538625496
87,23,13,Improv_Metronome,386,5,42,127,2538819936
87,23,13,Improv_Metronome,387,1,38,31,2539020968
87,23,13,Improv_Metronome,388,1,48,15,2539034080
87,23,13,Improv_Metronome,389,5,42,127,2539319744
87,23,13,Improv_Metronome,390,1,48,54,2539443220
87,23,13,Improv_Metronome,391,1,48,58,2539723040
87,23,13,Improv_Metronome,392,1,38,29,2539738796
87,23,13,Improv_Metronome,393,5,42,127,2539820444
87,23,13,Improv_Metronome,394,1,48,63,2539963272
87,23,13,Improv_Metronome,395,1,38,41,2540121624
87,23,13,Improv_Metronome,396,1,48,16,2540134016
87,23,13,Improv_Metronome,397,1,48,66,2540291572
87,23,13,Improv_Metronome,398,5,42,127,2540320048
87,23,13,Improv_Metronome,399,1,38,13,2540506632
87,23,13,Improv_Metronome,400,1,38,66,2540732076
87,23,13,Improv_Metronome,401,5,42,127,2540819796
87,23,13,Improv_Metronome,402,1,38,29,2540905480
87,23,13,Improv_Metronome,403,1,38,83,2541078036
87,23,13,Improv_Metronome,404,1,38,38,2541256184
87,23,13,Improv_Metronome,405,1,48,17,2541268876
87,23,13,Improv_Metronome,406,5,42,127,2541319552
87,23,13,Improv_Metronome,407,1,48,81,2541499996
87,23,13,Improv_Metronome,408,1,38,29,2541760672
87,23,13,Improv_Metronome,409,5,42,127,2541820168
87,23,13,Improv_Metronome,410,1,38,68,2541892712
87,23,13,Improv_Metronome,411,1,38,24,2542135432
87,23,13,Improv_Metronome,412,1,38,85,2542278124
87,23,13,Improv_Metronome,413,5,42,127,2542320192
87,23,13,Improv_Metronome,414,1,48,61,2542702724
87,23,13,Improv_Metronome,415,5,42,127,2542819576
87,23,13,Improv_Metronome,416,1,48,53,2543131132
87,23,13,Improv_Metronome,417,1,38,74,2543157296
87,23,13,Improv_Metronome,418,5,42,127,2543320496
87,23,13,Improv_Metronome,419,1,38,81,2543543472
87,23,13,Improv_Metronome,420,1,38,31,2543682896
87,23,13,Improv_Metronome,421,1,48,18,2543695368
87,23,13,Improv_Metronome,422,5,42,127,2543820268
87,23,13,Improv_Metronome,423,1,48,61,2543888188
87,23,13,Improv_Metronome,424,1,38,30,2544011808
87,23,13,Improv_Metronome,425,1,48,15,2544024656
87,23,13,Improv_Metronome,426,1,38,62,2544202720
87,23,13,Improv_Metronome,427,5,42,127,2544319872
87,23,13,Improv_Metronome,428,1,38,32,2544386644
87,23,13,Improv_Metronome,429,1,48,71,2544586208
87,23,13,Improv_Metronome,430,1,38,35,2544808584
87,23,13,Improv_Metronome,431,5,42,127,2544819536
87,23,13,Improv_Metronome,432,1,38,55,2544843960
87,23,13,Improv_Metronome,433,1,38,33,2545165892
87,23,13,Improv_Metronome,434,1,48,17,2545178776
87,23,13,Improv_Metronome,435,1,48,58,2545253924
87,23,13,Improv_Metronome,436,5,42,127,2545320288
87,23,13,Improv_Metronome,437,1,38,76,2545589168
87,23,13,Improv_Metronome,438,1,38,29,2545678012
87,23,13,Improv_Metronome,439,5,42,127,2545819948
87,23,13,Improv_Metronome,440,1,48,54,2545978820
87,23,13,Improv_Metronome,441,1,38,28,2546012684
87,23,13,Improv_Metronome,442,5,42,127,2546319668
87,23,13,Improv_Metronome,443,1,38,60,2546344700
87,23,13,Improv_Metronome,444,1,38,38,2546385668
87,23,13,Improv_Metronome,445,1,48,47,2546704936
87,23,13,Improv_Metronome,446,1,48,20,2546779264
87,23,13,Improv_Metronome,447,5,42,127,2546819460
87,23,13,Improv_Metronome,448,1,38,29,2547156484
87,23,13,Improv_Metronome,449,5,42,127,2547320112
87,23,13,Improv_Metronome,450,1,48,55,2547548096
87,23,13,Improv_Metronome,451,1,48,59,2547570140
87,23,13,Improv_Metronome,452,5,42,127,2547820080
87,23,13,Improv_Metronome,453,1,38,35,2547969432
87,23,13,Improv_Metronome,454,1,48,14,2547981684
87,23,13,Improv_Metronome,455,1,38,66,2547989160
87,23,13,Improv_Metronome,456,5,42,127,2548319560
87,23,13,Improv_Metronome,457,1,48,65,2548372648
87,23,13,Improv_Metronome,458,1,38,25,2548776728
87,23,13,Improv_Metronome,459,1,38,51,2548816500
87,23,13,Improv_Metronome,460,5,42,127,2548820200
87,23,13,Improv_Metronome,461,1,48,65,2549175404
87,23,13,Improv_Metronome,462,5,42,127,2549320104
87,23,13,Improv_Metronome,463,1,38,26,2549595884
87,23,13,Improv_Metronome,464,1,38,61,2549611796
87,23,13,Improv_Metronome,465,5,42,127,2549819776
87,23,13,Improv_Metronome,466,1,48,63,2550000092
87,23,13,Improv_Metronome,467,5,42,127,2550319396
87,23,13,Improv_Metronome,468,1,38,35,2550413396
87,23,13,Improv_Metronome,469,1,48,33,2550432828
87,23,13,Improv_Metronome,470,1,48,17,2550684492
87,23,13,Improv_Metronome,471,1,48,31,2550688960
87,23,13,Improv_Metronome,472,1,38,27,2550708908
87,23,13,Improv_Metronome,473,5,42,127,2550820160
87,23,13,Improv_Metronome,474,1,48,36,2550934880
87,23,13,Improv_Metronome,475,1,38,33,2551072584
87,23,13,Improv_Metronome,476,1,48,68,2551215724
87,23,13,Improv_Metronome,477,5,42,127,2551320036
87,23,13,Improv_Metronome,478,1,38,29,2551344552
87,23,13,Improv_Metronome,479,1,48,15,2551357392
87,23,13,Improv_Metronome,480,1,48,63,2551483532
87,23,13,Improv_Metronome,481,1,38,37,2551711588
87,23,13,Improv_Metronome,482,5,42,127,2551819764
87,23,13,Improv_Metronome,483,1,48,49,2551835032
87,23,13,Improv_Metronome,484,1,48,70,2552267660
87,23,13,Improv_Metronome,485,5,42,127,2552320504
87,23,13,Improv_Metronome,486,1,38,81,2552332676
87,23,13,Improv_Metronome,487,1,48,59,2552629544
87,23,13,Improv_Metronome,488,1,38,26,2552794000
87,23,13,Improv_Metronome,489,5,42,127,2552819992
87,23,13,Improv_Metronome,490,1,48,51,2552922972
87,23,13,Improv_Metronome,491,1,38,26,2553066264
87,23,13,Improv_Metronome,492,1,48,13,2553079036
87,23,13,Improv_Metronome,493,1,48,31,2553231752
87,23,13,Improv_Metronome,494,1,38,13,2553244296
87,23,13,Improv_Metronome,0,9999,9999,9999,2483317876
87,23,13,Improv_Metronome,1,9999,9999,9999,2483817592
87,23,13,Improv_Metronome,2,9999,9999,9999,2484317232
87,23,13,Improv_Metronome,3,9999,9999,9999,2484817972
87,23,13,Improv_Metronome,4,9999,9999,9999,2485317736
87,23,13,Improv_Metronome,5,9999,9999,9999,2485817412
87,23,13,Improv_Metronome,6,9999,9999,9999,2486317152
87,23,13,Improv_Metronome,7,9999,9999,9999,2486817876
87,23,13,Improv_Metronome,8,9999,9999,9999,2487317616
87,23,13,Improv_Metronome,9,9999,9999,9999,2487817320
87,23,13,Improv_Metronome,10,9999,9999,9999,2488318044
87,23,13,Improv_Metronome,11,9999,9999,9999,2488817732
87,23,13,Improv_Metronome,12,9999,9999,9999,2489317432
87,23,13,Improv_Metronome,13,9999,9999,9999,2489817148
87,23,13,Improv_Metronome,14,9999,9999,9999,2490317900
87,23,13,Improv_Metronome,15,9999,9999,9999,2490817612
87,23,13,Improv_Metronome,16,9999,9999,9999,2491317364
87,23,13,Improv_Metronome,17,9999,9999,9999,2491818100
87,23,13,Improv_Metronome,18,9999,9999,9999,2492317808
87,23,13,Improv_Metronome,19,9999,9999,9999,2492817512
87,23,13,Improv_Metronome,20,9999,9999,9999,2493317176
87,23,13,Improv_Metronome,21,9999,9999,9999,2493817908
87,23,13,Improv_Metronome,22,9999,9999,9999,2494317656
87,23,13,Improv_Metronome,23,9999,9999,9999,2494817372
87,23,13,Improv_Metronome,24,9999,9999,9999,2495318124
87,23,13,Improv_Metronome,25,9999,9999,9999,2495817832
87,23,13,Improv_Metronome,26,9999,9999,9999,2496317508
87,23,13,Improv_Metronome,27,9999,9999,9999,2496817212
87,23,13,Improv_Metronome,28,9999,9999,9999,2497317936
87,23,13,Improv_Metronome,29,9999,9999,9999,2497817656
87,23,13,Improv_Metronome,30,9999,9999,9999,2498317420
87,23,13,Improv_Metronome,31,9999,9999,9999,2498817100
87,23,13,Improv_Metronome,32,9999,9999,9999,2499317824
87,23,13,Improv_Metronome,33,9999,9999,9999,2499817580
87,23,13,Improv_Metronome,34,9999,9999,9999,2500317268
87,23,13,Improv_Metronome,35,9999,9999,9999,2500818008
87,23,13,Improv_Metronome,36,9999,9999,9999,2501317748
87,23,13,Improv_Metronome,37,9999,9999,9999,2501817392
87,23,13,Improv_Metronome,38,9999,9999,9999,2502317124
87,23,13,Improv_Metronome,39,9999,9999,9999,2502817860
87,23,13,Improv_Metronome,40,9999,9999,9999,2503317592
87,23,13,Improv_Metronome,41,9999,9999,9999,2503817288
87,23,13,Improv_Metronome,42,9999,9999,9999,2504318032
87,23,13,Improv_Metronome,43,9999,9999,9999,2504817736
87,23,13,Improv_Metronome,44,9999,9999,9999,2505317448
87,23,13,Improv_Metronome,45,9999,9999,9999,2505817176
87,23,13,Improv_Metronome,46,9999,9999,9999,2506317920
87,23,13,Improv_Metronome,47,9999,9999,9999,2506817600
87,23,13,Improv_Metronome,48,9999,9999,9999,2507317356
87,23,13,Improv_Metronome,49,9999,9999,9999,2507818072
87,23,13,Improv_Metronome,50,9999,9999,9999,2508317784
87,23,13,Improv_Metronome,51,9999,9999,9999,2508817484
87,23,13,Improv_Metronome,52,9999,9999,9999,2509317168
87,23,13,Improv_Metronome,53,9999,9999,9999,2509817940
87,23,13,Improv_Metronome,54,9999,9999,9999,2510317672
87,23,13,Improv_Metronome,55,9999,9999,9999,2510817380
87,23,13,Improv_Metronome,56,9999,9999,9999,2511318084
87,23,13,Improv_Metronome,57,9999,9999,9999,2511817824
87,23,13,Improv_Metronome,58,9999,9999,9999,2512317512
87,23,13,Improv_Metronome,59,9999,9999,9999,2512817204
87,23,13,Improv_Metronome,60,9999,9999,9999,2513317996
87,23,13,Improv_Metronome,61,9999,9999,9999,2513817664
87,23,13,Improv_Metronome,62,9999,9999,9999,2514317368
87,23,13,Improv_Metronome,63,9999,9999,9999,2514817116
87,23,13,Improv_Metronome,64,9999,9999,9999,2515317812
87,23,13,Improv_Metronome,65,9999,9999,9999,2515817592
87,23,13,Improv_Metronome,66,9999,9999,9999,2516317296
87,23,13,Improv_Metronome,67,9999,9999,9999,2516818040
87,23,13,Improv_Metronome,68,9999,9999,9999,2517317684
87,23,13,Improv_Metronome,69,9999,9999,9999,2517817464
87,23,13,Improv_Metronome,70,9999,9999,9999,2518317156
87,23,13,Improv_Metronome,71,9999,9999,9999,2518817884
87,23,13,Improv_Metronome,72,9999,9999,9999,2519317564
87,23,13,Improv_Metronome,73,9999,9999,9999,2519817316
87,23,13,Improv_Metronome,74,9999,9999,9999,2520318032
87,23,13,Improv_Metronome,75,9999,9999,9999,2520817736
87,23,13,Improv_Metronome,76,9999,9999,9999,2521317480
87,23,13,Improv_Metronome,77,9999,9999,9999,2521817152
87,23,13,Improv_Metronome,78,9999,9999,9999,2522317904
87,23,13,Improv_Metronome,79,9999,9999,9999,2522817628
87,23,13,Improv_Metronome,80,9999,9999,9999,2523317336
87,23,13,Improv_Metronome,81,9999,9999,9999,2523818060
87,23,13,Improv_Metronome,82,9999,9999,9999,2524317748
87,23,13,Improv_Metronome,83,9999,9999,9999,2524817520
87,23,13,Improv_Metronome,84,9999,9999,9999,2525317220
87,23,13,Improv_Metronome,85,9999,9999,9999,2525817916
87,23,13,Improv_Metronome,86,9999,9999,9999,2526317636
87,23,13,Improv_Metronome,87,9999,9999,9999,2526817360
87,23,13,Improv_Metronome,88,9999,9999,9999,2527318112
87,23,13,Improv_Metronome,89,9999,9999,9999,2527817844
87,23,13,Improv_Metronome,90,9999,9999,9999,2528317544
87,23,13,Improv_Metronome,91,9999,9999,9999,2528817272
87,23,13,Improv_Metronome,92,9999,9999,9999,2529317992
87,23,13,Improv_Metronome,93,9999,9999,9999,2529817716
87,23,13,Improv_Metronome,94,9999,9999,9999,2530317360
87,23,13,Improv_Metronome,95,9999,9999,9999,2530817088
87,23,13,Improv_Metronome,96,9999,9999,9999,2531317852
87,23,13,Improv_Metronome,97,9999,9999,9999,2531817524
87,23,13,Improv_Metronome,98,9999,9999,9999,2532317272
87,23,13,Improv_Metronome,99,9999,9999,9999,2532818012
87,23,13,Improv_Metronome,100,9999,9999,9999,2533317708
87,23,13,Improv_Metronome,101,9999,9999,9999,2533817408
87,23,13,Improv_Metronome,102,9999,9999,9999,2534317152
87,23,13,Improv_Metronome,103,9999,9999,9999,2534817872
87,23,13,Improv_Metronome,104,9999,9999,9999,2535317612
87,23,13,Improv_Metronome,105,9999,9999,9999,2535817312
87,23,13,Improv_Metronome,106,9999,9999,9999,2536318060
87,23,13,Improv_Metronome,107,9999,9999,9999,2536817732
87,23,13,Improv_Metronome,108,9999,9999,9999,2537317496
87,23,13,Improv_Metronome,109,9999,9999,9999,2537817196
87,23,13,Improv_Metronome,110,9999,9999,9999,2538317896
87,23,13,Improv_Metronome,111,9999,9999,9999,2538817648
87,23,13,Improv_Metronome,112,9999,9999,9999,2539317308
87,23,13,Improv_Metronome,113,9999,9999,9999,2539818084
87,23,13,Improv_Metronome,114,9999,9999,9999,2540317764
87,23,13,Improv_Metronome,115,9999,9999,9999,2540817508
87,23,13,Improv_Metronome,116,9999,9999,9999,2541317188
87,23,13,Improv_Metronome,117,9999,9999,9999,2541817956
87,23,13,Improv_Metronome,118,9999,9999,9999,2542317680
87,23,13,Improv_Metronome,119,9999,9999,9999,2542817360
87,23,13,Improv_Metronome,120,9999,9999,9999,2543318132
87,23,13,Improv_Metronome,121,9999,9999,9999,2543817832
87,23,13,Improv_Metronome,122,9999,9999,9999,2544317512
87,23,13,Improv_Metronome,123,9999,9999,9999,2544817252
87,23,13,Improv_Metronome,124,9999,9999,9999,2545318000
87,23,13,Improv_Metronome,125,9999,9999,9999,2545817660
87,23,13,Improv_Metronome,126,9999,9999,9999,2546317380
87,23,13,Improv_Metronome,127,9999,9999,9999,2546817100
87,23,13,Improv_Metronome,128,9999,9999,9999,2547317824
87,23,13,Improv_Metronome,129,9999,9999,9999,2547817572
87,23,13,Improv_Metronome,130,9999,9999,9999,2548317276
87,23,13,Improv_Metronome,131,9999,9999,9999,2548817988
87,23,13,Improv_Metronome,132,9999,9999,9999,2549317740
87,23,13,Improv_Metronome,133,9999,9999,9999,2549817416
87,23,13,Improv_Metronome,134,9999,9999,9999,2550317108
87,23,13,Improv_Metronome,135,9999,9999,9999,2550817876
87,23,13,Improv_Metronome,136,9999,9999,9999,2551317600
87,23,13,Improv_Metronome,137,9999,9999,9999,2551817328
87,23,13,Improv_Metronome,138,9999,9999,9999,2552318068
87,23,13,Improv_Metronome,139,9999,9999,9999,2552817780
87,24,14,Improv_Melody,0,2,48,80,2606112124
87,24,14,Improv_Melody,1,2,72,80,2606114432
87,24,14,Improv_Melody,2,5,42,127,2606117048
87,24,14,Improv_Melody,3,5,42,110,2606609884
87,24,14,Improv_Melody,4,5,42,110,2607109356
87,24,14,Improv_Melody,5,5,42,110,2607610200
87,24,14,Improv_Melody,6,5,42,127,2608109920
87,24,14,Improv_Melody,7,5,42,110,2608609792
87,24,14,Improv_Melody,8,5,42,110,2609110340
87,24,14,Improv_Melody,9,5,42,110,2609610136
87,24,14,Improv_Melody,10,2,43,80,2610112364
87,24,14,Improv_Melody,11,2,67,80,2610114512
87,24,14,Improv_Melody,12,5,42,127,2610117052
87,24,14,Improv_Melody,13,5,42,110,2610609444
87,24,14,Improv_Melody,14,5,42,110,2611110360
87,24,14,Improv_Melody,15,5,42,110,2611609860
87,24,14,Improv_Melody,16,5,42,127,2612109880
87,24,14,Improv_Melody,17,5,42,110,2612610500
87,24,14,Improv_Melody,18,5,42,110,2613109996
87,24,14,Improv_Melody,19,5,42,110,2613609792
87,24,14,Improv_Melody,20,2,45,80,2614112096
87,24,14,Improv_Melody,21,2,69,80,2614114476
87,24,14,Improv_Melody,22,5,42,127,2614116784
87,24,14,Improv_Melody,23,5,42,110,2614610296
87,24,14,Improv_Melody,24,5,42,110,2615110020
87,24,14,Improv_Melody,25,5,42,110,2615609816
87,24,14,Improv_Melody,26,5,42,127,2616109612
87,24,14,Improv_Melody,27,5,42,110,2616610156
87,24,14,Improv_Melody,28,5,42,110,2617109804
87,24,14,Improv_Melody,29,5,42,110,2617609800
87,24,14,Improv_Melody,30,2,41,80,2618112828
87,24,14,Improv_Melody,31,2,65,80,2618114976
87,24,14,Improv_Melody,32,5,42,127,2618117588
87,24,14,Improv_Melody,33,5,42,110,2618609908
87,24,14,Improv_Melody,34,5,42,110,2619109700
87,24,14,Improv_Melody,35,5,42,110,2619609720
87,24,14,Improv_Melody,36,5,42,127,2620110116
87,24,14,Improv_Melody,37,5,42,110,2620609840
87,24,14,Improv_Melody,38,5,42,110,2621109636
87,24,14,Improv_Melody,39,1,48,29,2621140952
87,24,14,Improv_Melody,40,5,42,110,2621610308
87,24,14,Improv_Melody,41,1,48,44,2621635564
87,24,14,Improv_Melody,42,2,48,80,2622112588
87,24,14,Improv_Melody,43,2,72,80,2622114664
87,24,14,Improv_Melody,44,5,42,127,2622117424
87,24,14,Improv_Melody,45,1,48,43,2622154504
87,24,14,Improv_Melody,46,5,42,110,2622609796
87,24,14,Improv_Melody,47,1,38,16,2622668116
87,24,14,Improv_Melody,48,5,42,110,2623109644
87,24,14,Improv_Melody,49,1,38,14,2623124512
87,24,14,Improv_Melody,50,1,38,15,2623579976
87,24,14,Improv_Melody,51,5,42,110,2623610384
87,24,14,Improv_Melody,52,1,48,30,2623714916
87,24,14,Improv_Melody,53,5,42,127,2624109844
87,24,14,Improv_Melody,54,1,48,38,2624138696
87,24,14,Improv_Melody,55,5,42,110,2624609696
87,24,14,Improv_Melody,56,1,38,20,2624662932
87,24,14,Improv_Melody,57,1,48,28,2625081296
87,24,14,Improv_Melody,58,5,42,110,2625110360
87,24,14,Improv_Melody,59,1,38,19,2625259392
87,24,14,Improv_Melody,60,1,48,16,2625527692
87,24,14,Improv_Melody,61,5,42,110,2625610112
87,24,14,Improv_Melody,62,1,48,39,2626061228
87,24,14,Improv_Melody,63,2,43,80,2626112392
87,24,14,Improv_Melody,64,2,67,80,2626114540
87,24,14,Improv_Melody,65,5,42,127,2626117228
87,24,14,Improv_Melody,66,5,42,110,2626609384
87,24,14,Improv_Melody,67,1,38,50,2626638752
87,24,14,Improv_Melody,68,5,42,110,2627110276
87,24,14,Improv_Melody,69,1,48,41,2627156260
87,24,14,Improv_Melody,70,5,42,110,2627609904
87,24,14,Improv_Melody,71,1,38,20,2627652820
87,24,14,Improv_Melody,72,1,38,23,2628102432
87,24,14,Improv_Melody,73,5,42,127,2628109672
87,24,14,Improv_Melody,74,5,42,110,2628610328
87,24,14,Improv_Melody,75,1,38,13,2628657900
87,24,14,Improv_Melody,76,5,42,110,2629110248
87,24,14,Improv_Melody,77,1,48,50,2629136056
87,24,14,Improv_Melody,78,5,42,110,2629609948
87,24,14,Improv_Melody,79,1,48,50,2629654308
87,24,14,Improv_Melody,80,1,38,33,2630095320
87,24,14,Improv_Melody,81,2,45,80,2630111924
87,24,14,Improv_Melody,82,2,69,80,2630114148
87,24,14,Improv_Melody,83,5,42,127,2630116688
87,24,14,Improv_Melody,84,5,42,110,2630610260
87,24,14,Improv_Melody,85,1,48,42,2630648828
87,24,14,Improv_Melody,86,5,42,110,2631110180
87,24,14,Improv_Melody,87,1,38,24,2631146288
87,24,14,Improv_Melody,88,5,42,110,2631609660
87,24,14,Improv_Melody,89,1,38,22,2631647560
87,24,14,Improv_Melody,90,5,42,127,2632109284
87,24,14,Improv_Melody,91,1,48,44,2632133200
87,24,14,Improv_Melody,92,5,42,110,2632610180
87,24,14,Improv_Melody,93,1,48,42,2632624896
87,24,14,Improv_Melody,94,1,38,26,2633071536
87,24,14,Improv_Melody,95,5,42,110,2633109800
87,24,14,Improv_Melody,96,5,42,110,2633609580
87,24,14,Improv_Melody,97,1,38,51,2634055252
87,24,14,Improv_Melody,98,2,41,80,2634112772
87,24,14,Improv_Melody,99,2,65,80,2634114996
87,24,14,Improv_Melody,100,5,42,127,2634117536
87,24,14,Improv_Melody,101,1,38,21,2634541280
87,24,14,Improv_Melody,102,5,42,110,2634610132
87,24,14,Improv_Melody,103,1,48,48,2635051972
87,24,14,Improv_Melody,104,5,42,110,2635109680
87,24,14,Improv_Melody,105,1,48,43,2635522028
87,24,14,Improv_Melody,106,5,42,110,2635609380
87,24,14,Improv_Melody,107,1,38,26,2636019108
87,24,14,Improv_Melody,108,5,42,127,2636110276
87,24,14,Improv_Melody,109,1,48,42,2636521880
87,24,14,Improv_Melody,110,5,42,110,2636609752
87,24,14,Improv_Melody,111,1,48,50,2637047456
87,24,14,Improv_Melody,112,5,42,110,2637109528
87,24,14,Improv_Melody,113,1,38,37,2637572064
87,24,14,Improv_Melody,114,1,48,13,2637584948
87,24,14,Improv_Melody,115,5,42,110,2637610340
87,24,14,Improv_Melody,116,1,38,60,2638093448
87,24,14,Improv_Melody,117,2,48,80,2638112744
87,24,14,Improv_Melody,118,2,72,80,2638114900
87,24,14,Improv_Melody,119,5,42,127,2638117432
87,24,14,Improv_Melody,120,1,48,46,2638607144
87,24,14,Improv_Melody,121,5,42,110,2638609728
87,24,14,Improv_Melody,122,1,48,45,2639098440
87,24,14,Improv_Melody,123,5,42,110,2639109476
87,24,14,Improv_Melody,124,1,38,24,2639603228
87,24,14,Improv_Melody,125,5,42,110,2639610220
87,24,14,Improv_Melody,126,1,48,43,2640107732
87,24,14,Improv_Melody,127,5,42,127,2640110072
87,24,14,Improv_Melody,128,1,38,58,2640583480
87,24,14,Improv_Melody,129,5,42,110,2640609772
87,24,14,Improv_Melody,130,1,48,45,2641097092
87,24,14,Improv_Melody,131,5,42,110,2641110296
87,24,14,Improv_Melody,132,1,48,40,2641594548
87,24,14,Improv_Melody,133,5,42,110,2641610216
87,24,14,Improv_Melody,134,1,38,28,2642069040
87,24,14,Improv_Melody,135,1,48,13,2642081660
87,24,14,Improv_Melody,136,2,43,80,2642112252
87,24,14,Improv_Melody,137,2,67,80,2642114636
87,24,14,Improv_Melody,138,5,42,127,2642117092
87,24,14,Improv_Melody,139,1,38,44,2642604012
87,24,14,Improv_Melody,140,5,42,110,2642609512
87,24,14,Improv_Melody,141,1,48,54,2643079552
87,24,14,Improv_Melody,142,5,42,110,2643110184
87,24,14,Improv_Melody,143,1,38,25,2643581200
87,24,14,Improv_Melody,144,5,42,110,2643610108
87,24,14,Improv_Melody,145,5,42,127,2644109888
87,24,14,Improv_Melody,146,1,48,54,2644124600
87,24,14,Improv_Melody,147,1,38,57,2644575136
87,24,14,Improv_Melody,148,5,42,110,2644610556
87,24,14,Improv_Melody,149,5,42,110,2645110112
87,24,14,Improv_Melody,150,1,48,57,2645118912
87,24,14,Improv_Melody,151,5,42,110,2645610108
87,24,14,Improv_Melody,152,1,38,63,2645651448
87,24,14,Improv_Melody,153,2,45,80,2646112244
87,24,14,Improv_Melody,154,2,69,80,2646114168
87,24,14,Improv_Melody,155,5,42,127,2646116784
87,24,14,Improv_Melody,156,1,48,48,2646187220
87,24,14,Improv_Melody,157,5,42,110,2646610348
87,24,14,Improv_Melody,158,1,48,51,2646692232
87,24,14,Improv_Melody,159,5,42,110,2647110048
87,24,14,Improv_Melody,160,1,38,44,2647129100
87,24,14,Improv_Melody,161,1,38,57,2647607856
87,24,14,Improv_Melody,162,5,42,110,2647610716
87,24,14,Improv_Melody,163,5,42,127,2648109300
87,24,14,Improv_Melody,164,1,48,42,2648168668
87,24,14,Improv_Melody,165,5,42,110,2648610120
87,24,14,Improv_Melody,166,1,48,41,2648644428
87,24,14,Improv_Melody,167,5,42,110,2649109968
87,24,14,Improv_Melody,168,1,38,56,2649126256
87,24,14,Improv_Melody,169,5,42,110,2649609892
87,24,14,Improv_Melody,170,1,38,26,2649973040
87,24,14,Improv_Melody,171,2,41,80,2650112820
87,24,14,Improv_Melody,172,2,65,80,2650114972
87,24,14,Improv_Melody,173,5,42,127,2650117736
87,24,14,Improv_Melody,174,1,38,50,2650509404
87,24,14,Improv_Melody,175,5,42,110,2650609956
87,24,14,Improv_Melody,176,1,38,44,2651020696
87,24,14,Improv_Melody,177,5,42,110,2651109668
87,24,14,Improv_Melody,178,1,38,47,2651567520
87,24,14,Improv_Melody,179,5,42,110,2651609372
87,24,14,Improv_Melody,180,1,38,38,2652092728
87,24,14,Improv_Melody,181,5,42,127,2652110116
87,24,14,Improv_Melody,182,5,42,110,2652609824
87,24,14,Improv_Melody,183,1,38,44,2652637028
87,24,14,Improv_Melody,184,1,38,21,2653087188
87,24,14,Improv_Melody,185,5,42,110,2653109740
87,24,14,Improv_Melody,186,5,42,110,2653610344
87,24,14,Improv_Melody,187,1,38,53,2653684596
87,24,14,Improv_Melody,188,2,48,80,2654112700
87,24,14,Improv_Melody,189,2,72,80,2654114776
87,24,14,Improv_Melody,190,5,42,127,2654117312
87,24,14,Improv_Melody,191,1,38,40,2654122304
87,24,14,Improv_Melody,192,5,42,110,2654609756
87,24,14,Improv_Melody,193,1,38,57,2654640924
87,24,14,Improv_Melody,194,1,38,44,2655006564
87,24,14,Improv_Melody,195,5,42,110,2655109584
87,24,14,Improv_Melody,196,1,38,61,2655588092
87,24,14,Improv_Melody,197,5,42,110,2655610196
87,24,14,Improv_Melody,198,1,38,30,2656071112
87,24,14,Improv_Melody,199,5,42,127,2656109820
87,24,14,Improv_Melody,200,5,42,110,2656609752
87,24,14,Improv_Melody,201,1,48,20,2656628956
87,24,14,Improv_Melody,202,5,42,110,2657110352
87,24,14,Improv_Melody,203,1,48,51,2657162764
87,24,14,Improv_Melody,204,1,38,48,2657166108
87,24,14,Improv_Melody,205,5,42,110,2657610004
87,24,14,Improv_Melody,206,1,48,50,2657699140
87,24,14,Improv_Melody,207,1,38,48,2657709664
87,24,14,Improv_Melody,208,2,43,80,2658112172
87,24,14,Improv_Melody,209,2,67,80,2658114400
87,24,14,Improv_Melody,210,5,42,127,2658117012
87,24,14,Improv_Melody,211,1,38,20,2658235020
87,24,14,Improv_Melody,212,1,48,38,2658237472
87,24,14,Improv_Melody,213,5,42,110,2658609632
87,24,14,Improv_Melody,214,1,48,38,2658723084
87,24,14,Improv_Melody,215,5,42,110,2659110228
87,24,14,Improv_Melody,216,1,48,34,2659276408
87,24,14,Improv_Melody,217,5,42,110,2659609932
87,24,14,Improv_Melody,218,1,48,25,2659830864
87,24,14,Improv_Melody,219,5,42,127,2660109556
87,24,14,Improv_Melody,220,1,48,41,2660387960
87,24,14,Improv_Melody,221,5,42,110,2660610576
87,24,14,Improv_Melody,222,1,38,25,2660920264
87,24,14,Improv_Melody,223,1,48,14,2660932440
87,24,14,Improv_Melody,224,5,42,110,2661110004
87,24,14,Improv_Melody,225,1,48,43,2661512224
87,24,14,Improv_Melody,226,5,42,110,2661609780
87,24,14,Improv_Melody,227,1,38,30,2662058964
87,24,14,Improv_Melody,228,1,48,16,2662072036
87,24,14,Improv_Melody,229,2,45,80,2662112132
87,24,14,Improv_Melody,230,2,69,80,2662114436
87,24,14,Improv_Melody,231,5,42,127,2662116892
87,24,14,Improv_Melody,232,5,42,110,2662610216
87,24,14,Improv_Melody,233,1,48,57,2662648040
87,24,14,Improv_Melody,234,5,42,110,2663109988
87,24,14,Improv_Melody,235,1,38,30,2663143252
87,24,14,Improv_Melody,236,5,42,110,2663609688
87,24,14,Improv_Melody,237,1,48,57,2663719124
87,24,14,Improv_Melody,238,5,42,127,2664109464
87,24,14,Improv_Melody,239,1,38,25,2664225256
87,24,14,Improv_Melody,240,5,42,110,2664610136
87,24,14,Improv_Melody,241,1,48,45,2664729668
87,24,14,Improv_Melody,242,5,42,110,2665109836
87,24,14,Improv_Melody,243,1,38,29,2665217152
87,24,14,Improv_Melody,244,1,48,15,2665230180
87,24,14,Improv_Melody,245,5,42,110,2665609500
87,24,14,Improv_Melody,246,1,48,60,2665740624
87,24,14,Improv_Melody,247,1,38,40,2666076692
87,24,14,Improv_Melody,248,1,48,14,2666089236
87,24,14,Improv_Melody,249,2,41,80,2666112880
87,24,14,Improv_Melody,250,2,65,80,2666115328
87,24,14,Improv_Melody,251,5,42,127,2666117716
87,24,14,Improv_Melody,252,1,48,44,2666334592
87,24,14,Improv_Melody,253,5,42,110,2666609972
87,24,14,Improv_Melody,254,1,48,30,2666801608
87,24,14,Improv_Melody,255,5,42,110,2667109744
87,24,14,Improv_Melody,256,1,48,51,2667277372
87,24,14,Improv_Melody,257,5,42,110,2667609444
87,24,14,Improv_Melody,258,1,48,16,2667788064
87,24,14,Improv_Melody,259,5,42,127,2668110340
87,24,14,Improv_Melody,260,1,48,54,2668242636
87,24,14,Improv_Melody,261,5,42,110,2668609964
87,24,14,Improv_Melody,262,1,48,15,2668772180
87,24,14,Improv_Melody,263,5,42,110,2669109588
87,24,14,Improv_Melody,264,1,48,49,2669234632
87,24,14,Improv_Melody,265,5,42,110,2669610556
87,24,14,Improv_Melody,266,1,48,15,2669734252
87,24,14,Improv_Melody,267,2,48,80,2670112920
87,24,14,Improv_Melody,268,2,72,80,2670115144
87,24,14,Improv_Melody,269,5,42,127,2670117600
87,24,14,Improv_Melody,270,1,48,30,2670230900
87,24,14,Improv_Melody,271,5,42,110,2670609748
87,24,14,Improv_Melody,272,1,48,23,2670732920
87,24,14,Improv_Melody,273,5,42,110,2671109424
87,24,14,Improv_Melody,274,1,48,18,2671200076
87,24,14,Improv_Melody,275,5,42,110,2671610468
87,24,14,Improv_Melody,276,1,38,20,2671723720
87,24,14,Improv_Melody,277,5,42,127,2672109944
87,24,14,Improv_Melody,278,1,38,38,2672263584
87,24,14,Improv_Melody,279,5,42,110,2672609720
87,24,14,Improv_Melody,280,1,38,16,2672764108
87,24,14,Improv_Melody,281,5,42,110,2673110544
87,24,14,Improv_Melody,282,1,38,45,2673250940
87,24,14,Improv_Melody,283,5,42,110,2673610316
87,24,14,Improv_Melody,284,1,38,17,2673705240
87,24,14,Improv_Melody,285,2,43,80,2674112604
87,24,14,Improv_Melody,286,2,67,80,2674114604
87,24,14,Improv_Melody,287,5,42,127,2674117360
87,24,14,Improv_Melody,288,1,38,46,2674221188
87,24,14,Improv_Melody,289,5,42,110,2674609432
87,24,14,Improv_Melody,290,5,42,110,2675110496
87,24,14,Improv_Melody,291,1,38,28,2675224872
87,24,14,Improv_Melody,292,5,42,110,2675610048
87,24,14,Improv_Melody,293,1,38,35,2675707340
87,24,14,Improv_Melody,294,5,42,127,2676109672
87,24,14,Improv_Melody,295,1,38,52,2676207640
87,24,14,Improv_Melody,296,5,42,110,2676610348
87,24,14,Improv_Melody,297,1,38,46,2676710028
87,24,14,Improv_Melody,298,5,42,110,2677110120
87,24,14,Improv_Melody,299,1,38,42,2677207560
87,24,14,Improv_Melody,300,5,42,110,2677609820
87,24,14,Improv_Melody,301,1,38,53,2677694320
87,24,14,Improv_Melody,302,2,45,80,2678112252
87,24,14,Improv_Melody,303,2,69,80,2678114176
87,24,14,Improv_Melody,304,5,42,127,2678116640
87,24,14,Improv_Melody,305,1,38,20,2678155064
87,24,14,Improv_Melody,306,5,42,110,2678610208
87,24,14,Improv_Melody,307,1,38,35,2678628280
87,24,14,Improv_Melody,308,1,38,48,2679107932
87,24,14,Improv_Melody,309,5,42,110,2679110120
87,24,14,Improv_Melody,310,1,38,17,2679596100
87,24,14,Improv_Melody,311,5,42,110,2679609600
87,24,14,Improv_Melody,312,1,48,42,2680088916
87,24,14,Improv_Melody,313,5,42,127,2680109372
87,24,14,Improv_Melody,314,1,48,49,2680571240
87,24,14,Improv_Melody,315,5,42,110,2680610196
87,24,14,Improv_Melody,316,1,48,41,2681099232
87,24,14,Improv_Melody,317,5,42,110,2681109748
87,24,14,Improv_Melody,318,1,38,23,2681582156
87,24,14,Improv_Melody,319,5,42,110,2681609520
87,24,14,Improv_Melody,320,1,48,51,2682105420
87,24,14,Improv_Melody,321,2,41,80,2682112976
87,24,14,Improv_Melody,322,2,65,80,2682114976
87,24,14,Improv_Melody,323,5,42,127,2682117512
87,24,14,Improv_Melody,324,1,38,23,2682593440
87,24,14,Improv_Melody,325,5,42,110,2682610156
87,24,14,Improv_Melody,326,5,42,110,2683110012
87,24,14,Improv_Melody,327,1,48,46,2683118820
87,24,14,Improv_Melody,328,5,42,110,2683609488
87,24,14,Improv_Melody,329,1,48,47,2683650680
87,24,14,Improv_Melody,330,1,38,40,2684069424
87,24,14,Improv_Melody,331,5,42,127,2684110076
87,24,14,Improv_Melody,332,1,38,24,2684597324
87,24,14,Improv_Melody,333,5,42,110,2684609928
87,24,14,Improv_Melody,334,1,48,43,2685086548
87,24,14,Improv_Melody,335,5,42,110,2685109628
87,24,14,Improv_Melody,336,1,38,49,2685542868
87,24,14,Improv_Melody,337,5,42,110,2685610300
87,24,14,Improv_Melody,338,1,48,57,2686075404
87,24,14,Improv_Melody,339,2,48,80,2686112500
87,24,14,Improv_Melody,340,2,72,80,2686114884
87,24,14,Improv_Melody,341,5,42,127,2686117492
87,24,14,Improv_Melody,342,1,48,51,2686605560
87,24,14,Improv_Melody,343,5,42,110,2686609936
87,24,14,Improv_Melody,344,1,48,59,2687099952
87,24,14,Improv_Melody,0,9999,9999,9999,2606107740
87,24,14,Improv_Melody,1,9999,9999,9999,2606607444
87,24,14,Improv_Melody,2,9999,9999,9999,2607107140
87,24,14,Improv_Melody,3,9999,9999,9999,2607607908
87,24,14,Improv_Melody,4,9999,9999,9999,2608107628
87,24,14,Improv_Melody,5,9999,9999,9999,2608607352
87,24,14,Improv_Melody,6,9999,9999,9999,2609108048
87,24,14,Improv_Melody,7,9999,9999,9999,2609607768
87,24,14,Improv_Melody,8,9999,9999,9999,2610107492
87,24,14,Improv_Melody,9,9999,9999,9999,2610607152
87,24,14,Improv_Melody,10,9999,9999,9999,2611107920
87,24,14,Improv_Melody,11,9999,9999,9999,2611607640
87,24,14,Improv_Melody,12,9999,9999,9999,2612107364
87,24,14,Improv_Melody,13,9999,9999,9999,2612608056
87,24,14,Improv_Melody,14,9999,9999,9999,2613107780
87,24,14,Improv_Melody,15,9999,9999,9999,2613607500
87,24,14,Improv_Melody,16,9999,9999,9999,2614107224
87,24,14,Improv_Melody,17,9999,9999,9999,2614607932
87,24,14,Improv_Melody,18,9999,9999,9999,2615107652
87,24,14,Improv_Melody,19,9999,9999,9999,2615607376
87,24,14,Improv_Melody,20,9999,9999,9999,2616107096
87,24,14,Improv_Melody,21,9999,9999,9999,2616607864
87,24,14,Improv_Melody,22,9999,9999,9999,2617107512
87,24,14,Improv_Melody,23,9999,9999,9999,2617607284
87,24,14,Improv_Melody,24,9999,9999,9999,2618107952
87,24,14,Improv_Melody,25,9999,9999,9999,2618607688
87,24,14,Improv_Melody,26,9999,9999,9999,2619107408
87,24,14,Improv_Melody,27,9999,9999,9999,2619607132
87,24,14,Improv_Melody,28,9999,9999,9999,2620107824
87,24,14,Improv_Melody,29,9999,9999,9999,2620607548
87,24,14,Improv_Melody,30,9999,9999,9999,2621107268
87,24,14,Improv_Melody,31,9999,9999,9999,2621608016
87,24,14,Improv_Melody,32,9999,9999,9999,2622107716
87,24,14,Improv_Melody,33,9999,9999,9999,2622607428
87,24,14,Improv_Melody,34,9999,9999,9999,2623107128
87,24,14,Improv_Melody,35,9999,9999,9999,2623607868
87,24,14,Improv_Melody,36,9999,9999,9999,2624107628
87,24,14,Improv_Melody,37,9999,9999,9999,2624607328
87,24,14,Improv_Melody,38,9999,9999,9999,2625108068
87,24,14,Improv_Melody,39,9999,9999,9999,2625607744
87,24,14,Improv_Melody,40,9999,9999,9999,2626107444
87,24,14,Improv_Melody,41,9999,9999,9999,2626607164
87,24,14,Improv_Melody,42,9999,9999,9999,2627107912
87,24,14,Improv_Melody,43,9999,9999,9999,2627607612
87,24,14,Improv_Melody,44,9999,9999,9999,2628107380
87,24,14,Improv_Melody,45,9999,9999,9999,2628608108
87,24,14,Improv_Melody,46,9999,9999,9999,2629107808
87,24,14,Improv_Melody,47,9999,9999,9999,2629607508
87,24,14,Improv_Melody,48,9999,9999,9999,2630107204
87,24,14,Improv_Melody,49,9999,9999,9999,2630607968
87,24,14,Improv_Melody,50,9999,9999,9999,2631107668
87,24,14,Improv_Melody,51,9999,9999,9999,2631607368
87,24,14,Improv_Melody,52,9999,9999,9999,2632107068
87,24,14,Improv_Melody,53,9999,9999,9999,2632607816
87,24,14,Improv_Melody,54,9999,9999,9999,2633107508
87,24,14,Improv_Melody,55,9999,9999,9999,2633607288
87,24,14,Improv_Melody,56,9999,9999,9999,2634107976
87,24,14,Improv_Melody,57,9999,9999,9999,2634607692
87,24,14,Improv_Melody,58,9999,9999,9999,2635107388
87,24,14,Improv_Melody,59,9999,9999,9999,2635607092
87,24,14,Improv_Melody,60,9999,9999,9999,2636107836
87,24,14,Improv_Melody,61,9999,9999,9999,2636607536
87,24,14,Improv_Melody,62,9999,9999,9999,2637107312
87,24,14,Improv_Melody,63,9999,9999,9999,2637608048
87,24,14,Improv_Melody,64,9999,9999,9999,2638107720
87,24,14,Improv_Melody,65,9999,9999,9999,2638607436
87,24,14,Improv_Melody,66,9999,9999,9999,2639107184
87,24,14,Improv_Melody,67,9999,9999,9999,2639607856
87,24,14,Improv_Melody,68,9999,9999,9999,2640107596
87,24,14,Improv_Melody,69,9999,9999,9999,2640607332
87,24,14,Improv_Melody,70,9999,9999,9999,2641108076
87,24,14,Improv_Melody,71,9999,9999,9999,2641607776
87,24,14,Improv_Melody,72,9999,9999,9999,2642107456
87,24,14,Improv_Melody,73,9999,9999,9999,2642607220
87,24,14,Improv_Melody,74,9999,9999,9999,2643107892
87,24,14,Improv_Melody,75,9999,9999,9999,2643607668
87,24,14,Improv_Melody,76,9999,9999,9999,2644107372
87,24,14,Improv_Melody,77,9999,9999,9999,2644608116
87,24,14,Improv_Melody,78,9999,9999,9999,2645107820
87,24,14,Improv_Melody,79,9999,9999,9999,2645607520
87,24,14,Improv_Melody,80,9999,9999,9999,2646107220
87,24,14,Improv_Melody,81,9999,9999,9999,2646607984
87,24,14,Improv_Melody,82,9999,9999,9999,2647107680
87,24,14,Improv_Melody,83,9999,9999,9999,2647607400
87,24,14,Improv_Melody,84,9999,9999,9999,2648107080
87,24,14,Improv_Melody,85,9999,9999,9999,2648607828
87,24,14,Improv_Melody,86,9999,9999,9999,2649107528
87,24,14,Improv_Melody,87,9999,9999,9999,2649607276
87,24,14,Improv_Melody,88,9999,9999,9999,2650108024
87,24,14,Improv_Melody,89,9999,9999,9999,2650607700
87,24,14,Improv_Melody,90,9999,9999,9999,2651107380
87,24,14,Improv_Melody,91,9999,9999,9999,2651607152
87,24,14,Improv_Melody,92,9999,9999,9999,2652107824
87,24,14,Improv_Melody,93,9999,9999,9999,2652607608
87,24,14,Improv_Melody,94,9999,9999,9999,2653107300
87,24,14,Improv_Melody,95,9999,9999,9999,2653608052
87,24,14,Improv_Melody,96,9999,9999,9999,2654107752
87,24,14,Improv_Melody,97,9999,9999,9999,2654607464
87,24,14,Improv_Melody,98,9999,9999,9999,2655107144
87,24,14,Improv_Melody,99,9999,9999,9999,2655607904
87,24,14,Improv_Melody,100,9999,9999,9999,2656107604
87,24,14,Improv_Melody,101,9999,9999,9999,2656607312
87,24,14,Improv_Melody,102,9999,9999,9999,2657108060
87,24,14,Improv_Melody,103,9999,9999,9999,2657607784
87,24,14,Improv_Melody,104,9999,9999,9999,2658107452
87,24,14,Improv_Melody,105,9999,9999,9999,2658607192
87,24,14,Improv_Melody,106,9999,9999,9999,2659107940
87,24,14,Improv_Melody,107,9999,9999,9999,2659607640
87,24,14,Improv_Melody,108,9999,9999,9999,2660107340
87,24,14,Improv_Melody,109,9999,9999,9999,2660608060
87,24,14,Improv_Melody,110,9999,9999,9999,2661107788
87,24,14,Improv_Melody,111,9999,9999,9999,2661607488
87,24,14,Improv_Melody,112,9999,9999,9999,2662107256
87,24,14,Improv_Melody,113,9999,9999,9999,2662607924
87,24,14,Improv_Melody,114,9999,9999,9999,2663107696
87,24,14,Improv_Melody,115,9999,9999,9999,2663607396
87,24,14,Improv_Melody,116,9999,9999,9999,2664107096
87,24,14,Improv_Melody,117,9999,9999,9999,2664607844
87,24,14,Improv_Melody,118,9999,9999,9999,2665107544
87,24,14,Improv_Melody,119,9999,9999,9999,2665607284
87,24,14,Improv_Melody,120,9999,9999,9999,2666108004
87,24,14,Improv_Melody,121,9999,9999,9999,2666607680
87,24,14,Improv_Melody,122,9999,9999,9999,2667107376
87,24,14,Improv_Melody,123,9999,9999,9999,2667607152
87,24,14,Improv_Melody,124,9999,9999,9999,2668107824
87,24,14,Improv_Melody,125,9999,9999,9999,2668607600
87,24,14,Improv_Melody,126,9999,9999,9999,2669107296
87,24,14,Improv_Melody,127,9999,9999,9999,2669608044
87,24,14,Improv_Melody,128,9999,9999,9999,2670107744
87,24,14,Improv_Melody,129,9999,9999,9999,2670607456
87,24,14,Improv_Melody,130,9999,9999,9999,2671107132
87,24,14,Improv_Melody,131,9999,9999,9999,2671607876
87,24,14,Improv_Melody,132,9999,9999,9999,2672107576
87,24,14,Improv_Melody,133,9999,9999,9999,2672607352
87,24,14,Improv_Melody,134,9999,9999,9999,2673108028
87,24,14,Improv_Melody,135,9999,9999,9999,2673607800
87,24,14,Improv_Melody,136,9999,9999,9999,2674107500
87,24,14,Improv_Melody,137,9999,9999,9999,2674607216
87,24,14,Improv_Melody,138,9999,9999,9999,2675107908
87,24,14,Improv_Melody,139,9999,9999,9999,2675607608
87,24,14,Improv_Melody,140,9999,9999,9999,2676107380
87,24,14,Improv_Melody,141,9999,9999,9999,2676608056
87,24,14,Improv_Melody,142,9999,9999,9999,2677107828
87,24,14,Improv_Melody,143,9999,9999,9999,2677607528
87,24,14,Improv_Melody,144,9999,9999,9999,2678107228
87,24,14,Improv_Melody,145,9999,9999,9999,2678607988
87,24,14,Improv_Melody,146,9999,9999,9999,2679107644
87,24,14,Improv_Melody,147,9999,9999,9999,2679607380
87,24,14,Improv_Melody,148,9999,9999,9999,2680107080
87,24,14,Improv_Melody,149,9999,9999,9999,2680607832
87,24,14,Improv_Melody,150,9999,9999,9999,2681107532
87,24,14,Improv_Melody,151,9999,9999,9999,2681607228
87,24,14,Improv_Melody,152,9999,9999,9999,2682107952
87,24,14,Improv_Melody,153,9999,9999,9999,2682607716
87,24,14,Improv_Melody,154,9999,9999,9999,2683107420
87,24,14,Improv_Melody,155,9999,9999,9999,2683607124
87,24,14,Improv_Melody,156,9999,9999,9999,2684107860
87,24,14,Improv_Melody,157,9999,9999,9999,2684607560
87,24,14,Improv_Melody,158,9999,9999,9999,2685107260
87,24,14,Improv_Melody,159,9999,9999,9999,2685608008
87,24,14,Improv_Melody,160,9999,9999,9999,2686107708
87,24,14,Improv_Melody,161,9999,9999,9999,2686607420
