pid,taskRunCount,taskID,taskName,i,channel,pitch,velocity,microseconds
84,1,1,Ticks_Pract_5,0,5,42,127,320264500
84,1,1,Ticks_Pract_5,1,5,42,127,320765336
84,1,1,Ticks_Pract_5,2,5,42,127,321265352
84,1,1,Ticks_Pract_5,3,5,42,127,321764772
84,1,1,Ticks_Pract_5,4,1,38,28,322223160
84,1,1,Ticks_Pract_5,5,5,42,127,322264404
84,1,1,Ticks_Pract_5,6,1,38,25,322684852
84,1,1,Ticks_Pract_5,7,5,42,127,322765220
84,1,1,Ticks_Pract_5,8,1,38,34,323236988
84,1,1,Ticks_Pract_5,9,5,42,127,323265064
84,1,1,Ticks_Pract_5,10,5,42,127,323764688
84,1,1,Ticks_Pract_5,11,5,42,127,324265304
84,1,1,Ticks_Pract_5,12,1,38,29,324292884
84,1,1,Ticks_Pract_5,13,5,42,127,324765148
84,1,1,Ticks_Pract_5,14,1,38,35,324804244
84,1,1,Ticks_Pract_5,15,5,42,127,325264992
84,1,1,Ticks_Pract_5,16,1,38,24,325300948
84,1,1,Ticks_Pract_5,17,5,42,127,325764464
84,1,1,Ticks_Pract_5,18,5,42,127,326265076
84,1,1,Ticks_Pract_5,19,1,48,29,326413828
84,1,1,Ticks_Pract_5,20,5,42,127,326765072
84,1,1,Ticks_Pract_5,21,5,42,127,327264688
84,1,1,Ticks_Pract_5,22,5,42,127,327765300
84,1,1,Ticks_Pract_5,23,1,48,23,328247252
84,1,1,Ticks_Pract_5,24,5,42,127,328265088
84,1,1,Ticks_Pract_5,25,1,48,24,328744104
84,1,1,Ticks_Pract_5,26,5,42,127,328765228
84,1,1,Ticks_Pract_5,27,1,48,26,329247916
84,1,1,Ticks_Pract_5,28,5,42,127,329264400
84,1,1,Ticks_Pract_5,29,1,48,23,329748056
84,1,1,Ticks_Pract_5,30,5,42,127,329765220
84,1,1,Ticks_Pract_5,31,1,48,29,330243116
84,1,1,Ticks_Pract_5,32,5,42,127,330265060
84,1,1,Ticks_Pract_5,33,1,48,27,330748864
84,1,1,Ticks_Pract_5,34,5,42,127,330764828
84,1,1,Ticks_Pract_5,35,1,48,26,331246016
84,1,1,Ticks_Pract_5,36,5,42,127,331265348
84,1,1,Ticks_Pract_5,37,1,48,25,331762692
84,1,1,Ticks_Pract_5,38,5,42,127,331765044
84,1,1,Ticks_Pract_5,39,1,48,27,332262700
84,1,1,Ticks_Pract_5,40,5,42,127,332264812
84,1,1,Ticks_Pract_5,41,1,48,25,332731936
84,1,1,Ticks_Pract_5,42,5,42,127,332764656
84,1,1,Ticks_Pract_5,43,1,48,23,333247864
84,1,1,Ticks_Pract_5,44,5,42,127,333265396
84,1,1,Ticks_Pract_5,45,1,48,27,333752868
84,1,1,Ticks_Pract_5,46,5,42,127,333764868
84,1,1,Ticks_Pract_5,47,5,42,127,334264792
84,1,1,Ticks_Pract_5,48,1,48,24,334275840
84,1,1,Ticks_Pract_5,49,5,42,127,334765312
84,1,1,Ticks_Pract_5,50,1,48,27,334799100
84,1,1,Ticks_Pract_5,51,5,42,127,335265004
84,1,1,Ticks_Pract_5,52,1,48,25,335278600
84,1,1,Ticks_Pract_5,53,5,42,127,335764776
84,1,1,Ticks_Pract_5,54,1,48,25,335783748
84,1,1,Ticks_Pract_5,55,5,42,127,336264692
84,1,1,Ticks_Pract_5,56,1,48,25,336272752
84,1,1,Ticks_Pract_5,57,1,48,26,336751184
84,1,1,Ticks_Pract_5,58,5,42,127,336765204
84,1,1,Ticks_Pract_5,59,5,42,127,337264980
84,1,1,Ticks_Pract_5,60,1,48,24,337285604
84,1,1,Ticks_Pract_5,61,5,42,127,337764876
84,1,1,Ticks_Pract_5,62,1,48,21,337770116
84,1,1,Ticks_Pract_5,63,5,42,127,338264420
84,1,1,Ticks_Pract_5,64,1,48,29,338280632
84,1,1,Ticks_Pract_5,65,5,42,127,338765136
84,1,1,Ticks_Pract_5,66,1,48,32,338771548
84,1,1,Ticks_Pract_5,67,5,42,127,339264828
84,1,1,Ticks_Pract_5,68,1,48,26,339286800
84,1,1,Ticks_Pract_5,69,1,48,27,339760668
84,1,1,Ticks_Pract_5,70,5,42,127,339764664
84,1,1,Ticks_Pract_5,71,1,48,28,340256848
84,1,1,Ticks_Pract_5,0,9999,9999,9999,320262212
84,1,1,Ticks_Pract_5,1,9999,9999,9999,320762976
84,1,1,Ticks_Pract_5,2,9999,9999,9999,321262692
84,1,1,Ticks_Pract_5,3,9999,9999,9999,321762408
84,1,1,Ticks_Pract_5,4,9999,9999,9999,322262120
84,1,1,Ticks_Pract_5,5,9999,9999,9999,322762860
84,1,1,Ticks_Pract_5,6,9999,9999,9999,323262552
84,1,1,Ticks_Pract_5,7,9999,9999,9999,323762256
84,1,1,Ticks_Pract_5,8,9999,9999,9999,324263016
84,1,1,Ticks_Pract_5,9,9999,9999,9999,324762712
84,1,1,Ticks_Pract_5,10,9999,9999,9999,325262408
84,1,1,Ticks_Pract_5,11,9999,9999,9999,325762100
84,1,1,Ticks_Pract_5,12,9999,9999,9999,326262864
84,1,1,Ticks_Pract_5,13,9999,9999,9999,326762560
84,1,1,Ticks_Pract_5,14,9999,9999,9999,327262328
84,1,1,Ticks_Pract_5,15,9999,9999,9999,327763016
84,1,1,Ticks_Pract_5,16,9999,9999,9999,328262728
84,1,1,Ticks_Pract_5,17,9999,9999,9999,328762420
84,1,1,Ticks_Pract_5,18,9999,9999,9999,329262188
84,1,1,Ticks_Pract_5,19,9999,9999,9999,329762932
84,1,1,Ticks_Pract_5,20,9999,9999,9999,330262624
84,1,1,Ticks_Pract_5,21,9999,9999,9999,330762320
84,1,1,Ticks_Pract_5,22,9999,9999,9999,331263060
84,1,1,Ticks_Pract_5,23,9999,9999,9999,331762756
84,1,1,Ticks_Pract_5,24,9999,9999,9999,332262488
84,1,1,Ticks_Pract_5,25,9999,9999,9999,332762220
84,1,1,Ticks_Pract_5,26,9999,9999,9999,333262960
84,1,1,Ticks_Pract_5,27,9999,9999,9999,333762656
84,1,1,Ticks_Pract_5,28,9999,9999,9999,334262356
84,1,1,Ticks_Pract_5,29,9999,9999,9999,334763100
84,1,1,Ticks_Pract_5,30,9999,9999,9999,335262792
84,1,1,Ticks_Pract_5,31,9999,9999,9999,335762488
84,1,1,Ticks_Pract_5,32,9999,9999,9999,336262260
84,1,1,Ticks_Pract_5,33,9999,9999,9999,336762992
84,1,1,Ticks_Pract_5,34,9999,9999,9999,337262696
84,1,1,Ticks_Pract_5,35,9999,9999,9999,337762364
84,1,1,Ticks_Pract_5,36,9999,9999,9999,338262136
84,1,1,Ticks_Pract_5,37,9999,9999,9999,338762852
84,1,1,Ticks_Pract_5,38,9999,9999,9999,339262544
84,1,1,Ticks_Pract_5,39,9999,9999,9999,339762232
84,2,0,Ticks_Pract_8,0,5,42,127,387815812
84,2,0,Ticks_Pract_8,1,5,42,127,388615420
84,2,0,Ticks_Pract_8,2,5,42,127,389416296
84,2,0,Ticks_Pract_8,3,1,48,32,389451356
84,2,0,Ticks_Pract_8,4,5,42,127,390215952
84,2,0,Ticks_Pract_8,5,1,48,37,390231864
84,2,0,Ticks_Pract_8,6,5,42,127,391015712
84,2,0,Ticks_Pract_8,7,1,48,37,391072016
84,2,0,Ticks_Pract_8,8,5,42,127,391815596
84,2,0,Ticks_Pract_8,9,1,48,34,391820284
84,2,0,Ticks_Pract_8,10,5,42,127,392616224
84,2,0,Ticks_Pract_8,11,1,48,29,392640668
84,2,0,Ticks_Pract_8,12,5,42,127,393416036
84,2,0,Ticks_Pract_8,13,1,48,37,393431496
84,2,0,Ticks_Pract_8,14,5,42,127,394215840
84,2,0,Ticks_Pract_8,15,1,48,29,394264436
84,2,0,Ticks_Pract_8,16,5,42,127,395015652
84,2,0,Ticks_Pract_8,17,1,48,34,395058936
84,2,0,Ticks_Pract_8,18,5,42,127,395816284
84,2,0,Ticks_Pract_8,19,1,48,34,395845280
84,2,0,Ticks_Pract_8,20,5,42,127,396616016
84,2,0,Ticks_Pract_8,21,1,48,28,396620108
84,2,0,Ticks_Pract_8,22,1,48,31,397405536
84,2,0,Ticks_Pract_8,23,5,42,127,397415768
84,2,0,Ticks_Pract_8,24,5,42,127,398215508
84,2,0,Ticks_Pract_8,25,1,48,31,398229548
84,2,0,Ticks_Pract_8,26,1,48,30,398984904
84,2,0,Ticks_Pract_8,27,5,42,127,399016576
84,2,0,Ticks_Pract_8,28,1,48,19,399784640
84,2,0,Ticks_Pract_8,29,5,42,127,399816088
84,2,0,Ticks_Pract_8,30,1,48,34,400615604
84,2,0,Ticks_Pract_8,31,5,42,127,400617020
84,2,0,Ticks_Pract_8,32,5,42,127,401415636
84,2,0,Ticks_Pract_8,33,1,48,38,401454136
84,2,0,Ticks_Pract_8,34,5,42,127,402216640
84,2,0,Ticks_Pract_8,35,1,48,24,402229264
84,2,0,Ticks_Pract_8,36,5,42,127,403015924
84,2,0,Ticks_Pract_8,37,1,48,22,403024208
84,2,0,Ticks_Pract_8,38,1,48,28,403767224
84,2,0,Ticks_Pract_8,39,5,42,127,403815824
84,2,0,Ticks_Pract_8,40,5,42,127,404615716
84,2,0,Ticks_Pract_8,41,1,48,35,404618160
84,2,0,Ticks_Pract_8,42,1,48,23,405402396
84,2,0,Ticks_Pract_8,43,5,42,127,405416416
84,2,0,Ticks_Pract_8,44,5,42,127,406216152
84,2,0,Ticks_Pract_8,45,1,48,29,406242084
84,2,0,Ticks_Pract_8,46,5,42,127,407015740
84,2,0,Ticks_Pract_8,47,1,48,29,407029480
84,2,0,Ticks_Pract_8,48,1,48,33,407814192
84,2,0,Ticks_Pract_8,49,5,42,127,407815688
84,2,0,Ticks_Pract_8,50,1,48,21,408613444
84,2,0,Ticks_Pract_8,51,5,42,127,408616468
84,2,0,Ticks_Pract_8,52,1,48,33,409388424
84,2,0,Ticks_Pract_8,53,5,42,127,409415976
84,2,0,Ticks_Pract_8,54,1,48,23,410144920
84,2,0,Ticks_Pract_8,55,5,42,127,410215812
84,2,0,Ticks_Pract_8,56,1,48,32,411010352
84,2,0,Ticks_Pract_8,57,5,42,127,411015544
84,2,0,Ticks_Pract_8,58,1,48,34,411793104
84,2,0,Ticks_Pract_8,0,9999,9999,9999,387813452
84,2,0,Ticks_Pract_8,1,9999,9999,9999,388613204
84,2,0,Ticks_Pract_8,2,9999,9999,9999,389414008
84,2,0,Ticks_Pract_8,3,9999,9999,9999,390213740
84,2,0,Ticks_Pract_8,4,9999,9999,9999,391013424
84,2,0,Ticks_Pract_8,5,9999,9999,9999,391813232
84,2,0,Ticks_Pract_8,6,9999,9999,9999,392613936
84,2,0,Ticks_Pract_8,7,9999,9999,9999,393413748
84,2,0,Ticks_Pract_8,8,9999,9999,9999,394213480
84,2,0,Ticks_Pract_8,9,9999,9999,9999,395013212
84,2,0,Ticks_Pract_8,10,9999,9999,9999,395813996
84,2,0,Ticks_Pract_8,11,9999,9999,9999,396613728
84,2,0,Ticks_Pract_8,12,9999,9999,9999,397413480
84,2,0,Ticks_Pract_8,13,9999,9999,9999,398213216
84,2,0,Ticks_Pract_8,14,9999,9999,9999,399013992
84,2,0,Ticks_Pract_8,15,9999,9999,9999,399813728
84,2,0,Ticks_Pract_8,16,9999,9999,9999,400613464
84,2,0,Ticks_Pract_8,17,9999,9999,9999,401413200
84,2,0,Ticks_Pract_8,18,9999,9999,9999,402213976
84,2,0,Ticks_Pract_8,19,9999,9999,9999,403013712
84,2,0,Ticks_Pract_8,20,9999,9999,9999,403813464
84,2,0,Ticks_Pract_8,21,9999,9999,9999,404613204
84,2,0,Ticks_Pract_8,22,9999,9999,9999,405413980
84,2,0,Ticks_Pract_8,23,9999,9999,9999,406213716
84,2,0,Ticks_Pract_8,24,9999,9999,9999,407013452
84,2,0,Ticks_Pract_8,25,9999,9999,9999,407813184
84,2,0,Ticks_Pract_8,26,9999,9999,9999,408613956
84,2,0,Ticks_Pract_8,27,9999,9999,9999,409413692
84,2,0,Ticks_Pract_8,28,9999,9999,9999,410213448
84,2,0,Ticks_Pract_8,29,9999,9999,9999,411013180
84,3,4,T1_SMS_5,0,5,42,127,491113004
84,3,4,T1_SMS_5,1,5,42,127,491612472
84,3,4,T1_SMS_5,2,1,48,42,492057848
84,3,4,T1_SMS_5,3,5,42,127,492113380
84,3,4,T1_SMS_5,4,1,48,43,492535176
84,3,4,T1_SMS_5,5,5,42,127,492612924
84,3,4,T1_SMS_5,6,1,48,39,493034492
84,3,4,T1_SMS_5,7,5,42,127,493112916
84,3,4,T1_SMS_5,8,1,48,38,493521104
84,3,4,T1_SMS_5,9,5,42,127,493613364
84,3,4,T1_SMS_5,10,1,48,35,494034408
84,3,4,T1_SMS_5,11,5,42,127,494113204
84,3,4,T1_SMS_5,12,1,48,35,494501492
84,3,4,T1_SMS_5,13,5,42,127,494613036
84,3,4,T1_SMS_5,14,1,48,37,495045696
84,3,4,T1_SMS_5,15,5,42,127,495112748
84,3,4,T1_SMS_5,16,1,48,38,495564312
84,3,4,T1_SMS_5,17,5,42,127,495613416
84,3,4,T1_SMS_5,18,1,48,38,496058176
84,3,4,T1_SMS_5,19,5,42,127,496112960
84,3,4,T1_SMS_5,20,1,48,38,496566772
84,3,4,T1_SMS_5,21,5,42,127,496612880
84,3,4,T1_SMS_5,22,1,48,40,497078288
84,3,4,T1_SMS_5,23,5,42,127,497112500
84,3,4,T1_SMS_5,24,1,48,39,497556740
84,3,4,T1_SMS_5,25,5,42,127,497613240
84,3,4,T1_SMS_5,26,1,48,39,498079616
84,3,4,T1_SMS_5,27,5,42,127,498112860
84,3,4,T1_SMS_5,28,1,48,41,498599732
84,3,4,T1_SMS_5,29,5,42,127,498612780
84,3,4,T1_SMS_5,30,1,48,40,499112404
84,3,4,T1_SMS_5,31,5,42,127,499113892
84,3,4,T1_SMS_5,32,1,48,39,499586556
84,3,4,T1_SMS_5,33,5,42,127,499612920
84,3,4,T1_SMS_5,34,5,42,127,500112844
84,3,4,T1_SMS_5,35,1,48,36,500127784
84,3,4,T1_SMS_5,36,5,42,127,500612612
84,3,4,T1_SMS_5,37,1,48,41,500619920
84,3,4,T1_SMS_5,38,5,42,127,501113056
84,3,4,T1_SMS_5,39,1,48,41,501115796
84,3,4,T1_SMS_5,40,1,48,35,501584040
84,3,4,T1_SMS_5,41,5,42,127,501612968
84,3,4,T1_SMS_5,42,5,42,127,502112820
84,3,4,T1_SMS_5,43,1,48,35,502118412
84,3,4,T1_SMS_5,44,1,48,35,502598388
84,3,4,T1_SMS_5,45,5,42,127,502613452
84,3,4,T1_SMS_5,46,1,48,31,503111340
84,3,4,T1_SMS_5,47,5,42,127,503113000
84,3,4,T1_SMS_5,48,1,48,41,503602416
84,3,4,T1_SMS_5,49,5,42,127,503612696
84,3,4,T1_SMS_5,50,1,48,38,504105620
84,3,4,T1_SMS_5,51,5,42,127,504112540
84,3,4,T1_SMS_5,52,1,48,37,504611468
84,3,4,T1_SMS_5,53,5,42,127,504613132
84,3,4,T1_SMS_5,54,1,48,35,505067840
84,3,4,T1_SMS_5,55,5,42,127,505112824
84,3,4,T1_SMS_5,56,1,48,38,505592364
84,3,4,T1_SMS_5,57,5,42,127,505612668
84,3,4,T1_SMS_5,58,1,48,39,506094080
84,3,4,T1_SMS_5,59,5,42,127,506113484
84,3,4,T1_SMS_5,60,5,42,127,506613112
84,3,4,T1_SMS_5,61,1,48,37,506616380
84,3,4,T1_SMS_5,62,1,48,32,507076868
84,3,4,T1_SMS_5,63,5,42,127,507112728
84,3,4,T1_SMS_5,64,5,42,127,507612576
84,3,4,T1_SMS_5,65,1,48,35,507617116
84,3,4,T1_SMS_5,66,1,48,35,508110436
84,3,4,T1_SMS_5,67,5,42,127,508113388
84,3,4,T1_SMS_5,68,5,42,127,508613012
84,3,4,T1_SMS_5,69,1,48,28,508616284
84,3,4,T1_SMS_5,70,5,42,127,509112636
84,3,4,T1_SMS_5,71,1,48,36,509115376
84,3,4,T1_SMS_5,72,1,48,38,509578108
84,3,4,T1_SMS_5,73,5,42,127,509613520
84,3,4,T1_SMS_5,74,5,42,127,510113224
84,3,4,T1_SMS_5,75,1,48,35,510142748
84,3,4,T1_SMS_5,76,1,48,33,510595820
84,3,4,T1_SMS_5,77,5,42,127,510612764
84,3,4,T1_SMS_5,78,1,48,34,511102700
84,3,4,T1_SMS_5,79,5,42,127,511112608
84,3,4,T1_SMS_5,80,5,42,127,511613576
84,3,4,T1_SMS_5,81,1,48,38,511617596
84,3,4,T1_SMS_5,82,5,42,127,512112900
84,3,4,T1_SMS_5,83,1,48,31,512119536
84,3,4,T1_SMS_5,84,1,48,35,512595772
84,3,4,T1_SMS_5,85,5,42,127,512612588
84,3,4,T1_SMS_5,86,5,42,127,513112488
84,3,4,T1_SMS_5,87,1,48,35,513125584
84,3,4,T1_SMS_5,88,1,48,35,513585664
84,3,4,T1_SMS_5,89,5,42,127,513613448
84,3,4,T1_SMS_5,90,5,42,127,514112852
84,3,4,T1_SMS_5,91,1,48,33,514136244
84,3,4,T1_SMS_5,92,1,48,30,514593280
84,3,4,T1_SMS_5,93,5,42,127,514612540
84,3,4,T1_SMS_5,94,1,48,31,515111920
84,3,4,T1_SMS_5,95,5,42,127,515113504
84,3,4,T1_SMS_5,96,1,48,37,515592144
84,3,4,T1_SMS_5,97,5,42,127,515612976
84,3,4,T1_SMS_5,98,1,48,35,516075540
84,3,4,T1_SMS_5,99,5,42,127,516112672
84,3,4,T1_SMS_5,100,1,48,31,516604696
84,3,4,T1_SMS_5,101,5,42,127,516612588
84,3,4,T1_SMS_5,102,1,48,36,517079192
84,3,4,T1_SMS_5,103,5,42,127,517113404
84,3,4,T1_SMS_5,104,1,48,36,517593396
84,3,4,T1_SMS_5,105,5,42,127,517612876
84,3,4,T1_SMS_5,106,1,48,40,518097356
84,3,4,T1_SMS_5,107,5,42,127,518112496
84,3,4,T1_SMS_5,108,1,48,31,518585828
84,3,4,T1_SMS_5,109,5,42,127,518613460
84,3,4,T1_SMS_5,110,1,48,32,519058000
84,3,4,T1_SMS_5,111,5,42,127,519113008
84,3,4,T1_SMS_5,112,1,48,38,519590752
84,3,4,T1_SMS_5,113,5,42,127,519612704
84,3,4,T1_SMS_5,114,1,48,34,520088732
84,3,4,T1_SMS_5,115,5,42,127,520112472
84,3,4,T1_SMS_5,116,1,48,35,520563288
84,3,4,T1_SMS_5,117,5,42,127,520613512
84,3,4,T1_SMS_5,118,1,48,35,521071136
84,3,4,T1_SMS_5,119,5,42,127,521112832
84,3,4,T1_SMS_5,120,1,48,32,521560340
84,3,4,T1_SMS_5,121,5,42,127,521612680
84,3,4,T1_SMS_5,122,1,48,32,522062644
84,3,4,T1_SMS_5,123,5,42,127,522113492
84,3,4,T1_SMS_5,124,1,48,32,522547388
84,3,4,T1_SMS_5,125,5,42,127,522613412
84,3,4,T1_SMS_5,126,1,48,34,523045280
84,3,4,T1_SMS_5,127,5,42,127,523112660
84,3,4,T1_SMS_5,128,1,48,34,523554548
84,3,4,T1_SMS_5,129,5,42,127,523612552
84,3,4,T1_SMS_5,130,1,48,35,524081672
84,3,4,T1_SMS_5,131,5,42,127,524113492
84,3,4,T1_SMS_5,132,1,48,36,524604100
84,3,4,T1_SMS_5,133,5,42,127,524613188
84,3,4,T1_SMS_5,134,1,48,34,525088688
84,3,4,T1_SMS_5,135,5,42,127,525112660
84,3,4,T1_SMS_5,136,5,42,127,525613556
84,3,4,T1_SMS_5,137,1,48,35,525622664
84,3,4,T1_SMS_5,138,1,48,34,526105056
84,3,4,T1_SMS_5,139,5,42,127,526113392
84,3,4,T1_SMS_5,140,1,48,34,526607524
84,3,4,T1_SMS_5,141,5,42,127,526612792
84,3,4,T1_SMS_5,142,5,42,127,527112568
84,3,4,T1_SMS_5,143,1,48,32,527121972
84,3,4,T1_SMS_5,144,5,42,127,527613160
84,3,4,T1_SMS_5,145,1,48,31,527618300
84,3,4,T1_SMS_5,146,5,42,127,528113152
84,3,4,T1_SMS_5,147,1,48,28,528128320
84,3,4,T1_SMS_5,148,1,48,28,528600616
84,3,4,T1_SMS_5,149,5,42,127,528612620
84,3,4,T1_SMS_5,150,1,48,30,529091636
84,3,4,T1_SMS_5,151,5,42,127,529112464
84,3,4,T1_SMS_5,152,1,48,30,529612080
84,3,4,T1_SMS_5,153,5,42,127,529613648
84,3,4,T1_SMS_5,154,1,48,33,530063196
84,3,4,T1_SMS_5,155,5,42,127,530112824
84,3,4,T1_SMS_5,156,5,42,127,530612452
84,3,4,T1_SMS_5,157,1,48,30,530620132
84,3,4,T1_SMS_5,158,5,42,127,531113196
84,3,4,T1_SMS_5,159,1,48,29,531124164
84,3,4,T1_SMS_5,160,1,48,28,531568120
84,3,4,T1_SMS_5,161,5,42,127,531613032
84,3,4,T1_SMS_5,162,5,42,127,532112660
84,3,4,T1_SMS_5,163,1,48,25,532129092
84,3,4,T1_SMS_5,164,5,42,127,532612576
84,3,4,T1_SMS_5,165,1,48,29,532621608
84,3,4,T1_SMS_5,166,5,42,127,533113096
84,3,4,T1_SMS_5,167,1,48,22,533151968
84,3,4,T1_SMS_5,168,1,48,27,533589092
84,3,4,T1_SMS_5,169,5,42,127,533612932
84,3,4,T1_SMS_5,170,1,48,24,534080632
84,3,4,T1_SMS_5,171,5,42,127,534112624
84,3,4,T1_SMS_5,172,5,42,127,534613276
84,3,4,T1_SMS_5,173,1,48,27,534620436
84,3,4,T1_SMS_5,174,1,48,22,535109644
84,3,4,T1_SMS_5,175,5,42,127,535113036
84,3,4,T1_SMS_5,176,1,48,27,535599164
84,3,4,T1_SMS_5,177,5,42,127,535612656
84,3,4,T1_SMS_5,178,5,42,127,536112360
84,3,4,T1_SMS_5,179,1,48,27,536113772
84,3,4,T1_SMS_5,180,5,42,127,536613176
84,3,4,T1_SMS_5,181,1,48,24,536665140
84,3,4,T1_SMS_5,182,1,48,25,537110900
84,3,4,T1_SMS_5,183,5,42,127,537113012
84,3,4,T1_SMS_5,184,1,48,26,537609236
84,3,4,T1_SMS_5,185,5,42,127,537612560
84,3,4,T1_SMS_5,186,1,48,26,538087912
84,3,4,T1_SMS_5,187,5,42,127,538113372
84,3,4,T1_SMS_5,188,1,48,25,538602640
84,3,4,T1_SMS_5,189,5,42,127,538612996
84,3,4,T1_SMS_5,190,1,48,24,539101808
84,3,4,T1_SMS_5,191,5,42,127,539112764
84,3,4,T1_SMS_5,192,1,48,21,539603076
84,3,4,T1_SMS_5,193,5,42,127,539612608
84,3,4,T1_SMS_5,194,1,48,23,540077936
84,3,4,T1_SMS_5,195,5,42,127,540113200
84,3,4,T1_SMS_5,196,1,48,24,540594084
84,3,4,T1_SMS_5,197,5,42,127,540613044
84,3,4,T1_SMS_5,198,1,48,27,541076880
84,3,4,T1_SMS_5,199,5,42,127,541112816
84,3,4,T1_SMS_5,200,1,48,25,541594224
84,3,4,T1_SMS_5,201,5,42,127,541613556
84,3,4,T1_SMS_5,202,5,42,127,542113256
84,3,4,T1_SMS_5,203,1,48,27,542126328
84,3,4,T1_SMS_5,204,1,48,24,542590328
84,3,4,T1_SMS_5,205,5,42,127,542612948
84,3,4,T1_SMS_5,206,1,48,22,543098028
84,3,4,T1_SMS_5,207,5,42,127,543112492
84,3,4,T1_SMS_5,208,1,48,28,543611652
84,3,4,T1_SMS_5,209,5,42,127,543613160
84,3,4,T1_SMS_5,210,1,48,25,544113384
84,3,4,T1_SMS_5,211,5,42,127,544114572
84,3,4,T1_SMS_5,212,5,42,127,544612856
84,3,4,T1_SMS_5,213,1,48,27,544644104
84,3,4,T1_SMS_5,214,5,42,127,545112380
84,3,4,T1_SMS_5,215,1,48,27,545113344
84,3,4,T1_SMS_5,216,1,48,26,545611608
84,3,4,T1_SMS_5,217,5,42,127,545613116
84,3,4,T1_SMS_5,218,5,42,127,546112964
84,3,4,T1_SMS_5,219,1,48,28,546159120
84,3,4,T1_SMS_5,220,5,42,127,546612588
84,3,4,T1_SMS_5,221,1,48,27,546615252
84,3,4,T1_SMS_5,222,1,48,22,547105284
84,3,4,T1_SMS_5,223,5,42,127,547113172
84,3,4,T1_SMS_5,224,5,42,127,547613096
84,3,4,T1_SMS_5,225,1,48,26,547618988
84,3,4,T1_SMS_5,226,5,42,127,548112792
84,3,4,T1_SMS_5,227,1,48,26,548130052
84,3,4,T1_SMS_5,228,1,48,25,548594044
84,3,4,T1_SMS_5,229,5,42,127,548612404
84,3,4,T1_SMS_5,230,1,48,28,549097856
84,3,4,T1_SMS_5,231,5,42,127,549113220
84,3,4,T1_SMS_5,232,1,48,27,549586180
84,3,4,T1_SMS_5,233,5,42,127,549612844
84,3,4,T1_SMS_5,234,1,48,27,550076532
84,3,4,T1_SMS_5,235,5,42,127,550112760
84,3,4,T1_SMS_5,236,5,42,127,550613364
84,3,4,T1_SMS_5,237,1,48,26,550640796
84,3,4,T1_SMS_5,238,1,48,24,551113208
84,3,4,T1_SMS_5,239,5,42,127,551114620
84,3,4,T1_SMS_5,240,1,48,21,551562596
84,3,4,T1_SMS_5,241,5,42,127,551612744
84,3,4,T1_SMS_5,242,5,42,127,552112892
84,3,4,T1_SMS_5,243,1,48,26,552121848
84,3,4,T1_SMS_5,244,1,48,21,552592728
84,3,4,T1_SMS_5,245,5,42,127,552613180
84,3,4,T1_SMS_5,246,1,48,20,553070132
84,3,4,T1_SMS_5,247,5,42,127,553112952
84,3,4,T1_SMS_5,248,1,48,24,553612052
84,3,4,T1_SMS_5,249,5,42,127,553613692
84,3,4,T1_SMS_5,250,5,42,127,554113320
84,3,4,T1_SMS_5,251,1,48,19,554123844
84,3,4,T1_SMS_5,252,1,48,26,554605044
84,3,4,T1_SMS_5,253,5,42,127,554613084
84,3,4,T1_SMS_5,254,1,48,24,555089236
84,3,4,T1_SMS_5,255,5,42,127,555112928
84,3,4,T1_SMS_5,256,1,48,21,555578684
84,3,4,T1_SMS_5,257,5,42,127,555612448
84,3,4,T1_SMS_5,0,9999,9999,9999,491110496
84,3,4,T1_SMS_5,1,9999,9999,9999,491610188
84,3,4,T1_SMS_5,2,9999,9999,9999,492110944
84,3,4,T1_SMS_5,3,9999,9999,9999,492610640
84,3,4,T1_SMS_5,4,9999,9999,9999,493110332
84,3,4,T1_SMS_5,5,9999,9999,9999,493611076
84,3,4,T1_SMS_5,6,9999,9999,9999,494110772
84,3,4,T1_SMS_5,7,9999,9999,9999,494610524
84,3,4,T1_SMS_5,8,9999,9999,9999,495110236
84,3,4,T1_SMS_5,9,9999,9999,9999,495610980
84,3,4,T1_SMS_5,10,9999,9999,9999,496110676
84,3,4,T1_SMS_5,11,9999,9999,9999,496610368
84,3,4,T1_SMS_5,12,9999,9999,9999,497110064
84,3,4,T1_SMS_5,13,9999,9999,9999,497610808
84,3,4,T1_SMS_5,14,9999,9999,9999,498110576
84,3,4,T1_SMS_5,15,9999,9999,9999,498610272
84,3,4,T1_SMS_5,16,9999,9999,9999,499111020
84,3,4,T1_SMS_5,17,9999,9999,9999,499610708
84,3,4,T1_SMS_5,18,9999,9999,9999,500110408
84,3,4,T1_SMS_5,19,9999,9999,9999,500610104
84,3,4,T1_SMS_5,20,9999,9999,9999,501110844
84,3,4,T1_SMS_5,21,9999,9999,9999,501610608
84,3,4,T1_SMS_5,22,9999,9999,9999,502110284
84,3,4,T1_SMS_5,23,9999,9999,9999,502611020
84,3,4,T1_SMS_5,24,9999,9999,9999,503110740
84,3,4,T1_SMS_5,25,9999,9999,9999,503610484
84,3,4,T1_SMS_5,26,9999,9999,9999,504110176
84,3,4,T1_SMS_5,27,9999,9999,9999,504610868
84,3,4,T1_SMS_5,28,9999,9999,9999,505110612
84,3,4,T1_SMS_5,29,9999,9999,9999,505610308
84,3,4,T1_SMS_5,30,9999,9999,9999,506111048
84,3,4,T1_SMS_5,31,9999,9999,9999,506610752
84,3,4,T1_SMS_5,32,9999,9999,9999,507110516
84,3,4,T1_SMS_5,33,9999,9999,9999,507610216
84,3,4,T1_SMS_5,34,9999,9999,9999,508110952
84,3,4,T1_SMS_5,35,9999,9999,9999,508610652
84,3,4,T1_SMS_5,36,9999,9999,9999,509110348
84,3,4,T1_SMS_5,37,9999,9999,9999,509611084
84,3,4,T1_SMS_5,38,9999,9999,9999,510110788
84,3,4,T1_SMS_5,39,9999,9999,9999,510610552
84,3,4,T1_SMS_5,40,9999,9999,9999,511110248
84,3,4,T1_SMS_5,41,9999,9999,9999,511610992
84,3,4,T1_SMS_5,42,9999,9999,9999,512110688
84,3,4,T1_SMS_5,43,9999,9999,9999,512610376
84,3,4,T1_SMS_5,44,9999,9999,9999,513110128
84,3,4,T1_SMS_5,45,9999,9999,9999,513610864
84,3,4,T1_SMS_5,46,9999,9999,9999,514110564
84,3,4,T1_SMS_5,47,9999,9999,9999,514610252
84,3,4,T1_SMS_5,48,9999,9999,9999,515111000
84,3,4,T1_SMS_5,49,9999,9999,9999,515610688
84,3,4,T1_SMS_5,50,9999,9999,9999,516110384
84,3,4,T1_SMS_5,51,9999,9999,9999,516610152
84,3,4,T1_SMS_5,52,9999,9999,9999,517110896
84,3,4,T1_SMS_5,53,9999,9999,9999,517610592
84,3,4,T1_SMS_5,54,9999,9999,9999,518110284
84,3,4,T1_SMS_5,55,9999,9999,9999,518611028
84,3,4,T1_SMS_5,56,9999,9999,9999,519110724
84,3,4,T1_SMS_5,57,9999,9999,9999,519610416
84,3,4,T1_SMS_5,58,9999,9999,9999,520110188
84,3,4,T1_SMS_5,59,9999,9999,9999,520610928
84,3,4,T1_SMS_5,60,9999,9999,9999,521110620
84,3,4,T1_SMS_5,61,9999,9999,9999,521610316
84,3,4,T1_SMS_5,62,9999,9999,9999,522111056
84,3,4,T1_SMS_5,63,9999,9999,9999,522610752
84,3,4,T1_SMS_5,64,9999,9999,9999,523110448
84,3,4,T1_SMS_5,65,9999,9999,9999,523610192
84,3,4,T1_SMS_5,66,9999,9999,9999,524110908
84,3,4,T1_SMS_5,67,9999,9999,9999,524610676
84,3,4,T1_SMS_5,68,9999,9999,9999,525110372
84,3,4,T1_SMS_5,69,9999,9999,9999,525611124
84,3,4,T1_SMS_5,70,9999,9999,9999,526110808
84,3,4,T1_SMS_5,71,9999,9999,9999,526610504
84,3,4,T1_SMS_5,72,9999,9999,9999,527110208
84,3,4,T1_SMS_5,73,9999,9999,9999,527610948
84,3,4,T1_SMS_5,74,9999,9999,9999,528110644
84,3,4,T1_SMS_5,75,9999,9999,9999,528610408
84,3,4,T1_SMS_5,76,9999,9999,9999,529110104
84,3,4,T1_SMS_5,77,9999,9999,9999,529610848
84,3,4,T1_SMS_5,78,9999,9999,9999,530110536
84,3,4,T1_SMS_5,79,9999,9999,9999,530610240
84,3,4,T1_SMS_5,80,9999,9999,9999,531110980
84,3,4,T1_SMS_5,81,9999,9999,9999,531610744
84,3,4,T1_SMS_5,82,9999,9999,9999,532110444
84,3,4,T1_SMS_5,83,9999,9999,9999,532610140
84,3,4,T1_SMS_5,84,9999,9999,9999,533110884
84,3,4,T1_SMS_5,85,9999,9999,9999,533610572
84,3,4,T1_SMS_5,86,9999,9999,9999,534110264
84,3,4,T1_SMS_5,87,9999,9999,9999,534611064
84,3,4,T1_SMS_5,88,9999,9999,9999,535110752
84,3,4,T1_SMS_5,89,9999,9999,9999,535610444
84,3,4,T1_SMS_5,90,9999,9999,9999,536110148
84,3,4,T1_SMS_5,91,9999,9999,9999,536610888
84,3,4,T1_SMS_5,92,9999,9999,9999,537110616
84,3,4,T1_SMS_5,93,9999,9999,9999,537610348
84,3,4,T1_SMS_5,94,9999,9999,9999,538111088
84,3,4,T1_SMS_5,95,9999,9999,9999,538610784
84,3,4,T1_SMS_5,96,9999,9999,9999,539110480
84,3,4,T1_SMS_5,97,9999,9999,9999,539610172
84,3,4,T1_SMS_5,98,9999,9999,9999,540110916
84,3,4,T1_SMS_5,99,9999,9999,9999,540610608
84,3,4,T1_SMS_5,100,9999,9999,9999,541110380
84,3,4,T1_SMS_5,101,9999,9999,9999,541611124
84,3,4,T1_SMS_5,102,9999,9999,9999,542110824
84,3,4,T1_SMS_5,103,9999,9999,9999,542610512
84,3,4,T1_SMS_5,104,9999,9999,9999,543110208
84,3,4,T1_SMS_5,105,9999,9999,9999,543610956
84,3,4,T1_SMS_5,106,9999,9999,9999,544110652
84,3,4,T1_SMS_5,107,9999,9999,9999,544610420
84,3,4,T1_SMS_5,108,9999,9999,9999,545110092
84,3,4,T1_SMS_5,109,9999,9999,9999,545610836
84,3,4,T1_SMS_5,110,9999,9999,9999,546110528
84,3,4,T1_SMS_5,111,9999,9999,9999,546610224
84,3,4,T1_SMS_5,112,9999,9999,9999,547110960
84,3,4,T1_SMS_5,113,9999,9999,9999,547610736
84,3,4,T1_SMS_5,114,9999,9999,9999,548110432
84,3,4,T1_SMS_5,115,9999,9999,9999,548610120
84,3,4,T1_SMS_5,116,9999,9999,9999,549110860
84,3,4,T1_SMS_5,117,9999,9999,9999,549610556
84,3,4,T1_SMS_5,118,9999,9999,9999,550110328
84,3,4,T1_SMS_5,119,9999,9999,9999,550611000
84,3,4,T1_SMS_5,120,9999,9999,9999,551110772
84,3,4,T1_SMS_5,121,9999,9999,9999,551610460
84,3,4,T1_SMS_5,122,9999,9999,9999,552110160
84,3,4,T1_SMS_5,123,9999,9999,9999,552610896
84,3,4,T1_SMS_5,124,9999,9999,9999,553110588
84,3,4,T1_SMS_5,125,9999,9999,9999,553610292
84,3,4,T1_SMS_5,126,9999,9999,9999,554111032
84,3,4,T1_SMS_5,127,9999,9999,9999,554610796
84,3,4,T1_SMS_5,128,9999,9999,9999,555110492
84,3,4,T1_SMS_5,129,9999,9999,9999,555610164
84,4,2,T1_SMS_8,0,5,42,127,626033040
84,4,2,T1_SMS_8,1,5,42,127,626832796
84,4,2,T1_SMS_8,2,1,48,38,627602888
84,4,2,T1_SMS_8,3,5,42,127,627632396
84,4,2,T1_SMS_8,4,1,48,38,628362228
84,4,2,T1_SMS_8,5,5,42,127,628433324
84,4,2,T1_SMS_8,6,1,48,37,629148880
84,4,2,T1_SMS_8,7,5,42,127,629233132
84,4,2,T1_SMS_8,8,1,48,37,629966336
84,4,2,T1_SMS_8,9,5,42,127,630032792
84,4,2,T1_SMS_8,10,1,48,34,630760616
84,4,2,T1_SMS_8,11,5,42,127,630832376
84,4,2,T1_SMS_8,12,1,48,35,631602532
84,4,2,T1_SMS_8,13,5,42,127,631633232
84,4,2,T1_SMS_8,14,1,48,39,632392992
84,4,2,T1_SMS_8,15,5,42,127,632433140
84,4,2,T1_SMS_8,16,1,48,40,633230608
84,4,2,T1_SMS_8,17,5,42,127,633232648
84,4,2,T1_SMS_8,18,5,42,127,634032540
84,4,2,T1_SMS_8,19,1,48,41,634062808
84,4,2,T1_SMS_8,20,1,48,39,634819072
84,4,2,T1_SMS_8,21,5,42,127,634833388
84,4,2,T1_SMS_8,22,1,48,33,635614616
84,4,2,T1_SMS_8,23,5,42,127,635633124
84,4,2,T1_SMS_8,24,1,48,36,636414868
84,4,2,T1_SMS_8,25,5,42,127,636432708
84,4,2,T1_SMS_8,26,1,48,38,637196432
84,4,2,T1_SMS_8,27,5,42,127,637232440
84,4,2,T1_SMS_8,28,1,48,36,637989728
84,4,2,T1_SMS_8,29,5,42,127,638033220
84,4,2,T1_SMS_8,30,1,48,34,638784300
84,4,2,T1_SMS_8,31,5,42,127,638833276
84,4,2,T1_SMS_8,32,1,48,28,639556508
84,4,2,T1_SMS_8,33,5,42,127,639632716
84,4,2,T1_SMS_8,34,1,48,35,640431088
84,4,2,T1_SMS_8,35,5,42,127,640432596
84,4,2,T1_SMS_8,36,5,42,127,641233236
84,4,2,T1_SMS_8,37,1,48,33,641236724
84,4,2,T1_SMS_8,38,1,48,29,642015576
84,4,2,T1_SMS_8,39,5,42,127,642033184
84,4,2,T1_SMS_8,40,5,42,127,642832924
84,4,2,T1_SMS_8,41,1,48,35,642835368
84,4,2,T1_SMS_8,42,5,42,127,643632436
84,4,2,T1_SMS_8,43,1,48,38,643644004
84,4,2,T1_SMS_8,44,5,42,127,644433212
84,4,2,T1_SMS_8,45,1,48,29,644457752
84,4,2,T1_SMS_8,46,1,48,37,645223732
84,4,2,T1_SMS_8,47,5,42,127,645233188
84,4,2,T1_SMS_8,48,1,48,37,646028700
84,4,2,T1_SMS_8,49,5,42,127,646032996
84,4,2,T1_SMS_8,50,1,48,32,646821252
84,4,2,T1_SMS_8,51,5,42,127,646832504
84,4,2,T1_SMS_8,52,1,48,35,647622184
84,4,2,T1_SMS_8,53,5,42,127,647633136
84,4,2,T1_SMS_8,54,5,42,127,648433172
84,4,2,T1_SMS_8,55,1,48,32,648444224
84,4,2,T1_SMS_8,56,5,42,127,649232980
84,4,2,T1_SMS_8,57,1,48,32,649256744
84,4,2,T1_SMS_8,58,1,48,29,650022724
84,4,2,T1_SMS_8,59,5,42,127,650032484
84,4,2,T1_SMS_8,60,1,48,25,650778552
84,4,2,T1_SMS_8,61,5,42,127,650833116
84,4,2,T1_SMS_8,62,1,48,37,651569540
84,4,2,T1_SMS_8,63,5,42,127,651632876
84,4,2,T1_SMS_8,64,1,48,34,652391884
84,4,2,T1_SMS_8,65,5,42,127,652432904
84,4,2,T1_SMS_8,66,1,48,35,653226916
84,4,2,T1_SMS_8,67,5,42,127,653232416
84,4,2,T1_SMS_8,68,1,48,27,654022316
84,4,2,T1_SMS_8,69,5,42,127,654033344
84,4,2,T1_SMS_8,70,1,48,26,654804620
84,4,2,T1_SMS_8,71,5,42,127,654832932
84,4,2,T1_SMS_8,72,1,48,29,655594856
84,4,2,T1_SMS_8,73,5,42,127,655632888
84,4,2,T1_SMS_8,74,5,42,127,656432628
84,4,2,T1_SMS_8,75,1,48,31,656435820
84,4,2,T1_SMS_8,76,5,42,127,657233184
84,4,2,T1_SMS_8,77,1,48,30,657252784
84,4,2,T1_SMS_8,78,1,48,32,658023776
84,4,2,T1_SMS_8,79,5,42,127,658032860
84,4,2,T1_SMS_8,80,1,48,23,658830092
84,4,2,T1_SMS_8,81,5,42,127,658832820
84,4,2,T1_SMS_8,82,1,48,30,659626236
84,4,2,T1_SMS_8,83,5,42,127,659632776
84,4,2,T1_SMS_8,84,5,42,127,660433340
84,4,2,T1_SMS_8,85,1,48,29,660455008
84,4,2,T1_SMS_8,86,5,42,127,661232852
84,4,2,T1_SMS_8,87,1,48,26,661235592
84,4,2,T1_SMS_8,88,5,42,127,662032808
84,4,2,T1_SMS_8,89,1,48,26,662038024
84,4,2,T1_SMS_8,90,1,48,24,662788968
84,4,2,T1_SMS_8,91,5,42,127,662832684
84,4,2,T1_SMS_8,92,1,48,24,663599400
84,4,2,T1_SMS_8,93,5,42,127,663633168
84,4,2,T1_SMS_8,94,1,48,23,664392852
84,4,2,T1_SMS_8,95,5,42,127,664432924
84,4,2,T1_SMS_8,96,5,42,127,665232664
84,4,2,T1_SMS_8,97,1,48,24,665254184
84,4,2,T1_SMS_8,98,5,42,127,666032620
84,4,2,T1_SMS_8,99,1,48,26,666093036
84,4,2,T1_SMS_8,100,1,48,17,666826780
84,4,2,T1_SMS_8,101,5,42,127,666833172
84,4,2,T1_SMS_8,102,1,48,19,667586948
84,4,2,T1_SMS_8,103,5,42,127,667632980
84,4,2,T1_SMS_8,104,1,48,22,668410540
84,4,2,T1_SMS_8,105,5,42,127,668432640
84,4,2,T1_SMS_8,106,1,48,19,669196512
84,4,2,T1_SMS_8,107,5,42,127,669232596
84,4,2,T1_SMS_8,108,1,48,23,669973728
84,4,2,T1_SMS_8,109,5,42,127,670033596
84,4,2,T1_SMS_8,110,1,48,18,670778404
84,4,2,T1_SMS_8,111,5,42,127,670832984
84,4,2,T1_SMS_8,112,1,48,20,671554792
84,4,2,T1_SMS_8,113,5,42,127,671632716
84,4,2,T1_SMS_8,114,1,48,26,672390080
84,4,2,T1_SMS_8,115,5,42,127,672432672
84,4,2,T1_SMS_8,116,1,48,30,673192060
84,4,2,T1_SMS_8,117,5,42,127,673233452
84,4,2,T1_SMS_8,118,1,48,29,674026652
84,4,2,T1_SMS_8,119,5,42,127,674032964
84,4,2,T1_SMS_8,120,5,42,127,674832628
84,4,2,T1_SMS_8,121,1,48,33,674834116
84,4,2,T1_SMS_8,122,5,42,127,675632364
84,4,2,T1_SMS_8,123,1,48,33,675678892
84,4,2,T1_SMS_8,124,5,42,127,676433144
84,4,2,T1_SMS_8,125,1,48,27,676462316
84,4,2,T1_SMS_8,126,1,48,33,677181604
84,4,2,T1_SMS_8,127,5,42,127,677232896
84,4,2,T1_SMS_8,128,1,48,32,677987572
84,4,2,T1_SMS_8,129,5,42,127,678032852
84,4,2,T1_SMS_8,130,1,48,26,678798448
84,4,2,T1_SMS_8,131,5,42,127,678832588
84,4,2,T1_SMS_8,132,1,48,26,679549040
84,4,2,T1_SMS_8,133,5,42,127,679633440
84,4,2,T1_SMS_8,134,1,48,20,680424468
84,4,2,T1_SMS_8,135,5,42,127,680433024
84,4,2,T1_SMS_8,136,1,48,20,681223304
84,4,2,T1_SMS_8,137,5,42,127,681232756
84,4,2,T1_SMS_8,138,1,48,23,681976884
84,4,2,T1_SMS_8,139,5,42,127,682032564
84,4,2,T1_SMS_8,140,1,48,24,682795096
84,4,2,T1_SMS_8,141,5,42,127,682833348
84,4,2,T1_SMS_8,142,1,48,29,683603428
84,4,2,T1_SMS_8,143,5,42,127,683632956
84,4,2,T1_SMS_8,144,5,42,127,684432624
84,4,2,T1_SMS_8,145,1,48,20,684470148
84,4,2,T1_SMS_8,146,1,48,27,685191552
84,4,2,T1_SMS_8,147,5,42,127,685232500
84,4,2,T1_SMS_8,148,1,48,26,686024120
84,4,2,T1_SMS_8,149,5,42,127,686033204
84,4,2,T1_SMS_8,150,1,48,27,686818772
84,4,2,T1_SMS_8,151,5,42,127,686832864
84,4,2,T1_SMS_8,152,1,48,24,687631852
84,4,2,T1_SMS_8,153,5,42,127,687633572
84,4,2,T1_SMS_8,154,1,48,27,688404320
84,4,2,T1_SMS_8,155,5,42,127,688432480
84,4,2,T1_SMS_8,156,1,48,21,689227996
84,4,2,T1_SMS_8,157,5,42,127,689233260
84,4,2,T1_SMS_8,158,1,48,26,690017728
84,4,2,T1_SMS_8,159,5,42,127,690033240
84,4,2,T1_SMS_8,160,5,42,127,690832832
84,4,2,T1_SMS_8,161,1,48,29,690837076
84,4,2,T1_SMS_8,162,1,48,24,691613376
84,4,2,T1_SMS_8,163,5,42,127,691632560
84,4,2,T1_SMS_8,164,1,48,20,692390672
84,4,2,T1_SMS_8,165,5,42,127,692433264
84,4,2,T1_SMS_8,166,1,48,21,693208136
84,4,2,T1_SMS_8,167,5,42,127,693233148
84,4,2,T1_SMS_8,168,5,42,127,694032740
84,4,2,T1_SMS_8,169,1,48,26,694042744
84,4,2,T1_SMS_8,170,1,48,21,694810068
84,4,2,T1_SMS_8,171,5,42,127,694832540
84,4,2,T1_SMS_8,172,1,48,21,695603964
84,4,2,T1_SMS_8,173,5,42,127,695633396
84,4,2,T1_SMS_8,174,1,48,19,696421680
84,4,2,T1_SMS_8,175,5,42,127,696433080
84,4,2,T1_SMS_8,176,1,48,21,697230780
84,4,2,T1_SMS_8,177,5,42,127,697232668
84,4,2,T1_SMS_8,178,1,48,27,698026604
84,4,2,T1_SMS_8,179,5,42,127,698032476
84,4,2,T1_SMS_8,180,1,48,21,698823272
84,4,2,T1_SMS_8,181,5,42,127,698833256
84,4,2,T1_SMS_8,182,1,48,22,699611936
84,4,2,T1_SMS_8,183,5,42,127,699632988
84,4,2,T1_SMS_8,184,1,48,19,700433024
84,4,2,T1_SMS_8,185,5,42,127,700434364
84,4,2,T1_SMS_8,186,1,48,23,701213872
84,4,2,T1_SMS_8,187,5,42,127,701232528
84,4,2,T1_SMS_8,188,1,48,20,702033612
84,4,2,T1_SMS_8,189,5,42,127,702034728
84,4,2,T1_SMS_8,190,1,48,20,702831408
84,4,2,T1_SMS_8,191,5,42,127,702833068
84,4,2,T1_SMS_8,192,1,48,27,703622596
84,4,2,T1_SMS_8,193,5,42,127,703632948
84,4,2,T1_SMS_8,194,1,48,22,704355008
84,4,2,T1_SMS_8,195,5,42,127,704432608
84,4,2,T1_SMS_8,196,1,48,18,705195580
84,4,2,T1_SMS_8,197,5,42,127,705233240
84,4,2,T1_SMS_8,198,5,42,127,706033128
84,4,2,T1_SMS_8,199,1,48,21,706034092
84,4,2,T1_SMS_8,200,1,48,21,706826316
84,4,2,T1_SMS_8,201,5,42,127,706832852
84,4,2,T1_SMS_8,202,1,48,26,707621708
84,4,2,T1_SMS_8,203,5,42,127,707632588
84,4,2,T1_SMS_8,204,5,42,127,708433224
84,4,2,T1_SMS_8,205,1,48,22,708442876
84,4,2,T1_SMS_8,206,5,42,127,709233060
84,4,2,T1_SMS_8,207,1,48,22,709249496
84,4,2,T1_SMS_8,208,1,48,21,710031352
84,4,2,T1_SMS_8,209,5,42,127,710032860
84,4,2,T1_SMS_8,210,1,48,21,710819396
84,4,2,T1_SMS_8,211,5,42,127,710832368
84,4,2,T1_SMS_8,212,1,48,19,711596988
84,4,2,T1_SMS_8,213,5,42,127,711633300
84,4,2,T1_SMS_8,214,5,42,127,712432964
84,4,2,T1_SMS_8,215,1,48,22,712435788
84,4,2,T1_SMS_8,216,1,48,24,713219644
84,4,2,T1_SMS_8,217,5,42,127,713233064
84,4,2,T1_SMS_8,218,1,48,19,713954824
84,4,2,T1_SMS_8,219,5,42,127,714032572
84,4,2,T1_SMS_8,220,1,48,22,714785300
84,4,2,T1_SMS_8,221,5,42,127,714833352
84,4,2,T1_SMS_8,222,1,48,21,715607500
84,4,2,T1_SMS_8,223,5,42,127,715632888
84,4,2,T1_SMS_8,224,1,48,23,716427952
84,4,2,T1_SMS_8,225,5,42,127,716432920
84,4,2,T1_SMS_8,226,5,42,127,717232660
84,4,2,T1_SMS_8,227,1,48,24,717241912
84,4,2,T1_SMS_8,228,5,42,127,718033216
84,4,2,T1_SMS_8,229,1,48,22,718077624
84,4,2,T1_SMS_8,230,1,48,20,718798428
84,4,2,T1_SMS_8,231,5,42,127,718832868
84,4,2,T1_SMS_8,232,5,42,127,719632608
84,4,2,T1_SMS_8,233,1,48,19,719645668
84,4,2,T1_SMS_8,234,1,48,21,720427812
84,4,2,T1_SMS_8,235,5,42,127,720432852
84,4,2,T1_SMS_8,236,1,48,23,721224252
84,4,2,T1_SMS_8,237,5,42,127,721233188
84,4,2,T1_SMS_8,0,9999,9999,9999,626030676
84,4,2,T1_SMS_8,1,9999,9999,9999,626830432
84,4,2,T1_SMS_8,2,9999,9999,9999,627630184
84,4,2,T1_SMS_8,3,9999,9999,9999,628430960
84,4,2,T1_SMS_8,4,9999,9999,9999,629230696
84,4,2,T1_SMS_8,5,9999,9999,9999,630030428
84,4,2,T1_SMS_8,6,9999,9999,9999,630830164
84,4,2,T1_SMS_8,7,9999,9999,9999,631630944
84,4,2,T1_SMS_8,8,9999,9999,9999,632430704
84,4,2,T1_SMS_8,9,9999,9999,9999,633230400
84,4,2,T1_SMS_8,10,9999,9999,9999,634030176
84,4,2,T1_SMS_8,11,9999,9999,9999,634830952
84,4,2,T1_SMS_8,12,9999,9999,9999,635630688
84,4,2,T1_SMS_8,13,9999,9999,9999,636430420
84,4,2,T1_SMS_8,14,9999,9999,9999,637230152
84,4,2,T1_SMS_8,15,9999,9999,9999,638030932
84,4,2,T1_SMS_8,16,9999,9999,9999,638830692
84,4,2,T1_SMS_8,17,9999,9999,9999,639630428
84,4,2,T1_SMS_8,18,9999,9999,9999,640430168
84,4,2,T1_SMS_8,19,9999,9999,9999,641230948
84,4,2,T1_SMS_8,20,9999,9999,9999,642030676
84,4,2,T1_SMS_8,21,9999,9999,9999,642830416
84,4,2,T1_SMS_8,22,9999,9999,9999,643630148
84,4,2,T1_SMS_8,23,9999,9999,9999,644430924
84,4,2,T1_SMS_8,24,9999,9999,9999,645230676
84,4,2,T1_SMS_8,25,9999,9999,9999,646030408
84,4,2,T1_SMS_8,26,9999,9999,9999,646830144
84,4,2,T1_SMS_8,27,9999,9999,9999,647630924
84,4,2,T1_SMS_8,28,9999,9999,9999,648430664
84,4,2,T1_SMS_8,29,9999,9999,9999,649230396
84,4,2,T1_SMS_8,30,9999,9999,9999,650030196
84,4,2,T1_SMS_8,31,9999,9999,9999,650830900
84,4,2,T1_SMS_8,32,9999,9999,9999,651630660
84,4,2,T1_SMS_8,33,9999,9999,9999,652430392
84,4,2,T1_SMS_8,34,9999,9999,9999,653230128
84,4,2,T1_SMS_8,35,9999,9999,9999,654030908
84,4,2,T1_SMS_8,36,9999,9999,9999,654830644
84,4,2,T1_SMS_8,37,9999,9999,9999,655630452
84,4,2,T1_SMS_8,38,9999,9999,9999,656430192
84,4,2,T1_SMS_8,39,9999,9999,9999,657230896
84,4,2,T1_SMS_8,40,9999,9999,9999,658030648
84,4,2,T1_SMS_8,41,9999,9999,9999,658830380
84,4,2,T1_SMS_8,42,9999,9999,9999,659630192
84,4,2,T1_SMS_8,43,9999,9999,9999,660430904
84,4,2,T1_SMS_8,44,9999,9999,9999,661230640
84,4,2,T1_SMS_8,45,9999,9999,9999,662030444
84,4,2,T1_SMS_8,46,9999,9999,9999,662830172
84,4,2,T1_SMS_8,47,9999,9999,9999,663630952
84,4,2,T1_SMS_8,48,9999,9999,9999,664430712
84,4,2,T1_SMS_8,49,9999,9999,9999,665230452
84,4,2,T1_SMS_8,50,9999,9999,9999,666030184
84,4,2,T1_SMS_8,51,9999,9999,9999,666830960
84,4,2,T1_SMS_8,52,9999,9999,9999,667630692
84,4,2,T1_SMS_8,53,9999,9999,9999,668430424
84,4,2,T1_SMS_8,54,9999,9999,9999,669230160
84,4,2,T1_SMS_8,55,9999,9999,9999,670030936
84,4,2,T1_SMS_8,56,9999,9999,9999,670830696
84,4,2,T1_SMS_8,57,9999,9999,9999,671630428
84,4,2,T1_SMS_8,58,9999,9999,9999,672430160
84,4,2,T1_SMS_8,59,9999,9999,9999,673230940
84,4,2,T1_SMS_8,60,9999,9999,9999,674030676
84,4,2,T1_SMS_8,61,9999,9999,9999,674830416
84,4,2,T1_SMS_8,62,9999,9999,9999,675630152
84,4,2,T1_SMS_8,63,9999,9999,9999,676430928
84,4,2,T1_SMS_8,64,9999,9999,9999,677230684
84,4,2,T1_SMS_8,65,9999,9999,9999,678030416
84,4,2,T1_SMS_8,66,9999,9999,9999,678830152
84,4,2,T1_SMS_8,67,9999,9999,9999,679630932
84,4,2,T1_SMS_8,68,9999,9999,9999,680430664
84,4,2,T1_SMS_8,69,9999,9999,9999,681230396
84,4,2,T1_SMS_8,70,9999,9999,9999,682030128
84,4,2,T1_SMS_8,71,9999,9999,9999,682830912
84,4,2,T1_SMS_8,72,9999,9999,9999,683630668
84,4,2,T1_SMS_8,73,9999,9999,9999,684430408
84,4,2,T1_SMS_8,74,9999,9999,9999,685230136
84,4,2,T1_SMS_8,75,9999,9999,9999,686030916
84,4,2,T1_SMS_8,76,9999,9999,9999,686830652
84,4,2,T1_SMS_8,77,9999,9999,9999,687630392
84,4,2,T1_SMS_8,78,9999,9999,9999,688430192
84,4,2,T1_SMS_8,79,9999,9999,9999,689230900
84,4,2,T1_SMS_8,80,9999,9999,9999,690030656
84,4,2,T1_SMS_8,81,9999,9999,9999,690830396
84,4,2,T1_SMS_8,82,9999,9999,9999,691630200
84,4,2,T1_SMS_8,83,9999,9999,9999,692430904
84,4,2,T1_SMS_8,84,9999,9999,9999,693230712
84,4,2,T1_SMS_8,85,9999,9999,9999,694030452
84,4,2,T1_SMS_8,86,9999,9999,9999,694830180
84,4,2,T1_SMS_8,87,9999,9999,9999,695630960
84,4,2,T1_SMS_8,88,9999,9999,9999,696430644
84,4,2,T1_SMS_8,89,9999,9999,9999,697230408
84,4,2,T1_SMS_8,90,9999,9999,9999,698030188
84,4,2,T1_SMS_8,91,9999,9999,9999,698830968
84,4,2,T1_SMS_8,92,9999,9999,9999,699630700
84,4,2,T1_SMS_8,93,9999,9999,9999,700430440
84,4,2,T1_SMS_8,94,9999,9999,9999,701230168
84,4,2,T1_SMS_8,95,9999,9999,9999,702030952
84,4,2,T1_SMS_8,96,9999,9999,9999,702830716
84,4,2,T1_SMS_8,97,9999,9999,9999,703630436
84,4,2,T1_SMS_8,98,9999,9999,9999,704430168
84,4,2,T1_SMS_8,99,9999,9999,9999,705230952
84,4,2,T1_SMS_8,100,9999,9999,9999,706030692
84,4,2,T1_SMS_8,101,9999,9999,9999,706830416
84,4,2,T1_SMS_8,102,9999,9999,9999,707630152
84,4,2,T1_SMS_8,103,9999,9999,9999,708430936
84,4,2,T1_SMS_8,104,9999,9999,9999,709230696
84,4,2,T1_SMS_8,105,9999,9999,9999,710030428
84,4,2,T1_SMS_8,106,9999,9999,9999,710830156
84,4,2,T1_SMS_8,107,9999,9999,9999,711630936
84,4,2,T1_SMS_8,108,9999,9999,9999,712430676
84,4,2,T1_SMS_8,109,9999,9999,9999,713230404
84,4,2,T1_SMS_8,110,9999,9999,9999,714030136
84,4,2,T1_SMS_8,111,9999,9999,9999,714830916
84,4,2,T1_SMS_8,112,9999,9999,9999,715630676
84,4,2,T1_SMS_8,113,9999,9999,9999,716430408
84,4,2,T1_SMS_8,114,9999,9999,9999,717230148
84,4,2,T1_SMS_8,115,9999,9999,9999,718030928
84,4,2,T1_SMS_8,116,9999,9999,9999,718830656
84,4,2,T1_SMS_8,117,9999,9999,9999,719630396
84,4,2,T1_SMS_8,118,9999,9999,9999,720430196
84,4,2,T1_SMS_8,119,9999,9999,9999,721230900
84,5,21,Ticks_Linear_5,0,5,42,127,733511016
84,5,21,Ticks_Linear_5,1,5,42,127,733991488
84,5,21,Ticks_Linear_5,2,1,48,28,734276956
84,5,21,Ticks_Linear_5,3,5,42,127,734470520
84,5,21,Ticks_Linear_5,4,1,48,31,734803640
84,5,21,Ticks_Linear_5,5,5,42,127,734950748
84,5,21,Ticks_Linear_5,6,1,48,30,735321840
84,5,21,Ticks_Linear_5,7,5,42,127,735430980
84,5,21,Ticks_Linear_5,8,1,48,33,735809840
84,5,21,Ticks_Linear_5,9,5,42,127,735920492
84,5,21,Ticks_Linear_5,10,1,48,34,736321740
84,5,21,Ticks_Linear_5,11,5,42,127,736411068
84,5,21,Ticks_Linear_5,12,1,48,29,736816420
84,5,21,Ticks_Linear_5,13,5,42,127,736900512
84,5,21,Ticks_Linear_5,14,1,48,31,737313424
84,5,21,Ticks_Linear_5,15,5,42,127,737390852
84,5,21,Ticks_Linear_5,16,1,48,28,737816792
84,5,21,Ticks_Linear_5,17,5,42,127,737880440
84,5,21,Ticks_Linear_5,18,1,48,30,738330128
84,5,21,Ticks_Linear_5,19,5,42,127,738381460
84,5,21,Ticks_Linear_5,20,1,48,29,738845920
84,5,21,Ticks_Linear_5,21,5,42,127,738880788
84,5,21,Ticks_Linear_5,22,1,48,28,739313120
84,5,21,Ticks_Linear_5,23,5,42,127,739380488
84,5,21,Ticks_Linear_5,24,1,48,32,739847036
84,5,21,Ticks_Linear_5,25,5,42,127,739881532
84,5,21,Ticks_Linear_5,26,1,48,31,740345688
84,5,21,Ticks_Linear_5,27,5,42,127,740381308
84,5,21,Ticks_Linear_5,28,1,48,29,740837080
84,5,21,Ticks_Linear_5,29,5,42,127,740890968
84,5,21,Ticks_Linear_5,30,1,48,30,741356320
84,5,21,Ticks_Linear_5,31,5,42,127,741400852
84,5,21,Ticks_Linear_5,32,1,48,27,741868840
84,5,21,Ticks_Linear_5,33,5,42,127,741910812
84,5,21,Ticks_Linear_5,34,1,48,29,742385300
84,5,21,Ticks_Linear_5,35,5,42,127,742420844
84,5,21,Ticks_Linear_5,36,1,48,28,742882464
84,5,21,Ticks_Linear_5,37,5,42,127,742930804
84,5,21,Ticks_Linear_5,38,1,48,27,743382756
84,5,21,Ticks_Linear_5,39,5,42,127,743451168
84,5,21,Ticks_Linear_5,40,1,48,26,743944084
84,5,21,Ticks_Linear_5,41,5,42,127,743971312
84,5,21,Ticks_Linear_5,42,1,48,27,744441468
84,5,21,Ticks_Linear_5,43,5,42,127,744491532
84,5,21,Ticks_Linear_5,44,1,48,27,744949408
84,5,21,Ticks_Linear_5,45,5,42,127,745010480
84,5,21,Ticks_Linear_5,46,1,48,29,745442812
84,5,21,Ticks_Linear_5,47,5,42,127,745530700
84,5,21,Ticks_Linear_5,48,1,48,27,745975984
84,5,21,Ticks_Linear_5,49,5,42,127,746061324
84,5,21,Ticks_Linear_5,50,1,48,27,746491712
84,5,21,Ticks_Linear_5,51,5,42,127,746590464
84,5,21,Ticks_Linear_5,52,1,48,26,747027348
84,5,21,Ticks_Linear_5,53,5,42,127,747121168
84,5,21,Ticks_Linear_5,54,1,48,25,747617616
84,5,21,Ticks_Linear_5,55,5,42,127,747650316
84,5,21,Ticks_Linear_5,56,1,48,26,748177676
84,5,21,Ticks_Linear_5,57,5,42,127,748180940
84,5,21,Ticks_Linear_5,58,1,48,26,748697968
84,5,21,Ticks_Linear_5,59,5,42,127,748720480
84,5,21,Ticks_Linear_5,60,1,48,24,749208984
84,5,21,Ticks_Linear_5,61,5,42,127,749261288
84,5,21,Ticks_Linear_5,62,1,48,28,749756676
84,5,21,Ticks_Linear_5,63,5,42,127,749800828
84,5,21,Ticks_Linear_5,64,1,48,27,750310300
84,5,21,Ticks_Linear_5,65,5,42,127,750340372
84,5,21,Ticks_Linear_5,66,1,48,27,750853804
84,5,21,Ticks_Linear_5,67,5,42,127,750881256
84,5,21,Ticks_Linear_5,68,1,48,27,751391624
84,5,21,Ticks_Linear_5,69,5,42,127,751431128
84,5,21,Ticks_Linear_5,70,1,48,21,751915208
84,5,21,Ticks_Linear_5,71,5,42,127,751981104
84,5,21,Ticks_Linear_5,72,1,48,23,752446208
84,5,21,Ticks_Linear_5,73,5,42,127,752530680
84,5,21,Ticks_Linear_5,74,1,48,22,753065008
84,5,21,Ticks_Linear_5,75,5,42,127,753080628
84,5,21,Ticks_Linear_5,76,1,48,20,753598864
84,5,21,Ticks_Linear_5,77,5,42,127,753630576
84,5,21,Ticks_Linear_5,78,1,48,25,754150832
84,5,21,Ticks_Linear_5,79,5,42,127,754190788
84,5,21,Ticks_Linear_5,80,1,48,24,754727060
84,5,21,Ticks_Linear_5,81,5,42,127,754750696
84,5,21,Ticks_Linear_5,82,1,48,27,755263156
84,5,21,Ticks_Linear_5,83,5,42,127,755311000
84,5,21,Ticks_Linear_5,84,1,48,25,755801972
84,5,21,Ticks_Linear_5,85,5,42,127,755870984
84,5,21,Ticks_Linear_5,86,1,48,23,756376928
84,5,21,Ticks_Linear_5,87,5,42,127,756431340
84,5,21,Ticks_Linear_5,88,1,48,23,756998016
84,5,21,Ticks_Linear_5,89,5,42,127,757000612
84,5,21,Ticks_Linear_5,90,5,42,127,757571084
84,5,21,Ticks_Linear_5,91,1,48,23,757586432
84,5,21,Ticks_Linear_5,92,1,48,24,758129780
84,5,21,Ticks_Linear_5,93,5,42,127,758141348
84,5,21,Ticks_Linear_5,94,1,48,22,758689684
84,5,21,Ticks_Linear_5,95,5,42,127,758710692
84,5,21,Ticks_Linear_5,96,1,48,24,759274448
84,5,21,Ticks_Linear_5,97,5,42,127,759281160
84,5,21,Ticks_Linear_5,98,5,42,127,759860548
84,5,21,Ticks_Linear_5,99,1,48,24,759879324
84,5,21,Ticks_Linear_5,100,5,42,127,760441224
84,5,21,Ticks_Linear_5,101,1,48,21,760454528
84,5,21,Ticks_Linear_5,102,1,48,21,761016956
84,5,21,Ticks_Linear_5,103,5,42,127,761021044
84,5,21,Ticks_Linear_5,104,1,48,27,761569160
84,5,21,Ticks_Linear_5,105,5,42,127,761601324
84,5,21,Ticks_Linear_5,106,1,48,25,762142772
84,5,21,Ticks_Linear_5,107,5,42,127,762180856
84,5,21,Ticks_Linear_5,108,5,42,127,762770900
84,5,21,Ticks_Linear_5,109,1,48,21,763351824
84,5,21,Ticks_Linear_5,110,5,42,127,763360628
84,5,21,Ticks_Linear_5,111,1,48,24,763887536
84,5,21,Ticks_Linear_5,112,5,42,127,763950344
84,5,21,Ticks_Linear_5,113,1,48,19,764493508
84,5,21,Ticks_Linear_5,114,5,42,127,764541352
84,5,21,Ticks_Linear_5,115,1,48,22,765088860
84,5,21,Ticks_Linear_5,116,5,42,127,765131068
84,5,21,Ticks_Linear_5,117,1,48,25,765663224
84,5,21,Ticks_Linear_5,118,5,42,127,765731116
84,5,21,Ticks_Linear_5,119,1,48,29,766260208
84,5,21,Ticks_Linear_5,120,5,42,127,766331340
84,5,21,Ticks_Linear_5,121,1,48,32,766881248
84,5,21,Ticks_Linear_5,122,5,42,127,766931312
84,5,21,Ticks_Linear_5,123,1,48,35,767468944
84,5,21,Ticks_Linear_5,124,5,42,127,767531432
84,5,21,Ticks_Linear_5,125,1,48,33,768053856
84,5,21,Ticks_Linear_5,126,5,42,127,768130460
84,5,21,Ticks_Linear_5,127,1,48,29,768658808
84,5,21,Ticks_Linear_5,128,5,42,127,768740992
84,5,21,Ticks_Linear_5,129,1,48,32,769243276
84,5,21,Ticks_Linear_5,130,5,42,127,769350988
84,5,21,Ticks_Linear_5,131,1,48,30,769866228
84,5,21,Ticks_Linear_5,132,5,42,127,769961392
84,5,21,Ticks_Linear_5,133,1,48,30,770546732
84,5,21,Ticks_Linear_5,134,5,42,127,770570816
84,5,21,Ticks_Linear_5,135,1,48,24,771141896
84,5,21,Ticks_Linear_5,136,5,42,127,771180976
84,5,21,Ticks_Linear_5,137,1,48,29,771769456
84,5,21,Ticks_Linear_5,138,5,42,127,771800420
84,5,21,Ticks_Linear_5,139,1,48,31,772391068
84,5,21,Ticks_Linear_5,140,5,42,127,772420984
84,5,21,Ticks_Linear_5,141,1,48,30,772988964
84,5,21,Ticks_Linear_5,142,5,42,127,773040680
84,5,21,Ticks_Linear_5,143,1,48,31,773579584
84,5,21,Ticks_Linear_5,144,5,42,127,773660952
84,5,21,Ticks_Linear_5,145,1,48,24,774211088
84,5,21,Ticks_Linear_5,146,5,42,127,774280644
84,5,21,Ticks_Linear_5,147,1,48,30,774806884
84,5,21,Ticks_Linear_5,148,5,42,127,774911232
84,5,21,Ticks_Linear_5,149,1,48,29,775373160
84,5,21,Ticks_Linear_5,150,5,42,127,775541112
84,5,21,Ticks_Linear_5,151,1,48,23,775977548
84,5,21,Ticks_Linear_5,152,5,42,127,776170740
84,5,21,Ticks_Linear_5,153,1,48,36,776686432
84,5,21,Ticks_Linear_5,154,5,42,127,776800816
84,5,21,Ticks_Linear_5,155,1,48,31,777334488
84,5,21,Ticks_Linear_5,156,5,42,127,777431344
84,5,21,Ticks_Linear_5,157,1,48,26,777969512
84,5,21,Ticks_Linear_5,158,5,42,127,778071632
84,5,21,Ticks_Linear_5,159,1,48,34,778555776
84,5,21,Ticks_Linear_5,160,5,42,127,778711668
84,5,21,Ticks_Linear_5,161,1,48,33,779255004
84,5,21,Ticks_Linear_5,162,5,42,127,779351508
84,5,21,Ticks_Linear_5,163,1,48,35,779954524
84,5,21,Ticks_Linear_5,164,5,42,127,779991560
84,5,21,Ticks_Linear_5,165,1,48,32,780585724
84,5,21,Ticks_Linear_5,166,5,42,127,780631404
84,5,21,Ticks_Linear_5,167,1,48,32,781276268
84,5,21,Ticks_Linear_5,168,5,42,127,781280580
84,5,21,Ticks_Linear_5,169,1,48,32,781882080
84,5,21,Ticks_Linear_5,170,5,42,127,781930748
84,5,21,Ticks_Linear_5,171,1,48,29,782561464
84,5,21,Ticks_Linear_5,172,5,42,127,782580972
84,5,21,Ticks_Linear_5,173,1,48,27,783193288
84,5,21,Ticks_Linear_5,174,5,42,127,783231368
84,5,21,Ticks_Linear_5,175,1,48,28,783822092
84,5,21,Ticks_Linear_5,176,5,42,127,783880768
84,5,21,Ticks_Linear_5,177,1,48,29,784477204
84,5,21,Ticks_Linear_5,178,5,42,127,784540900
84,5,21,Ticks_Linear_5,179,1,48,30,785131248
84,5,21,Ticks_Linear_5,180,5,42,127,785200636
84,5,21,Ticks_Linear_5,181,1,48,21,785774304
84,5,21,Ticks_Linear_5,182,5,42,127,785860844
84,5,21,Ticks_Linear_5,183,1,48,30,786475820
84,5,21,Ticks_Linear_5,184,5,42,127,786520600
84,5,21,Ticks_Linear_5,185,1,48,27,787170188
84,5,21,Ticks_Linear_5,186,5,42,127,787180936
84,5,21,Ticks_Linear_5,187,1,48,26,787798128
84,5,21,Ticks_Linear_5,188,5,42,127,787850656
84,5,21,Ticks_Linear_5,189,1,48,27,788423400
84,5,21,Ticks_Linear_5,190,5,42,127,788521676
84,5,21,Ticks_Linear_5,191,1,48,30,789123972
84,5,21,Ticks_Linear_5,192,5,42,127,789190892
84,5,21,Ticks_Linear_5,193,1,48,29,789771200
84,5,21,Ticks_Linear_5,194,5,42,127,789860608
84,5,21,Ticks_Linear_5,195,1,48,32,790423468
84,5,21,Ticks_Linear_5,196,5,42,127,790530364
84,5,21,Ticks_Linear_5,197,1,48,32,791101488
84,5,21,Ticks_Linear_5,198,5,42,127,791211468
84,5,21,Ticks_Linear_5,199,1,48,35,791755848
84,5,21,Ticks_Linear_5,200,5,42,127,791891444
84,5,21,Ticks_Linear_5,201,1,48,36,792449464
84,5,21,Ticks_Linear_5,202,5,42,127,792571400
84,5,21,Ticks_Linear_5,203,1,48,31,793147828
84,5,21,Ticks_Linear_5,204,5,42,127,793251156
84,5,21,Ticks_Linear_5,205,1,48,29,793893408
84,5,21,Ticks_Linear_5,206,5,42,127,793931268
84,5,21,Ticks_Linear_5,207,1,48,32,794534596
84,5,21,Ticks_Linear_5,208,5,42,127,794621360
84,5,21,Ticks_Linear_5,209,1,48,30,795209988
84,5,21,Ticks_Linear_5,210,5,42,127,795310384
84,5,21,Ticks_Linear_5,211,1,48,28,795933844
84,5,21,Ticks_Linear_5,212,5,42,127,796000560
84,5,21,Ticks_Linear_5,213,1,48,33,796612176
84,5,21,Ticks_Linear_5,214,5,42,127,796690776
84,5,21,Ticks_Linear_5,215,1,48,32,797273360
84,5,21,Ticks_Linear_5,216,5,42,127,797380996
84,5,21,Ticks_Linear_5,217,1,48,34,797949348
84,5,21,Ticks_Linear_5,218,5,42,127,798081564
84,5,21,Ticks_Linear_5,219,1,48,29,798602208
84,5,21,Ticks_Linear_5,220,5,42,127,798780692
84,5,21,Ticks_Linear_5,221,1,48,28,799228832
84,5,21,Ticks_Linear_5,222,5,42,127,799481408
84,5,21,Ticks_Linear_5,223,1,48,29,800155444
84,5,21,Ticks_Linear_5,224,5,42,127,800180580
84,5,21,Ticks_Linear_5,225,5,42,127,800881156
84,5,21,Ticks_Linear_5,226,1,48,27,800897084
84,5,21,Ticks_Linear_5,227,5,42,127,801590544
84,5,21,Ticks_Linear_5,228,1,48,27,801666624
84,5,21,Ticks_Linear_5,229,1,48,24,802300848
84,5,21,Ticks_Linear_5,230,5,42,127,802302488
84,5,21,Ticks_Linear_5,231,1,48,27,803006456
84,5,21,Ticks_Linear_5,232,5,42,127,803010924
84,5,21,Ticks_Linear_5,233,1,48,26,803671248
84,5,21,Ticks_Linear_5,234,5,42,127,803720560
84,5,21,Ticks_Linear_5,235,1,48,27,804339748
84,5,21,Ticks_Linear_5,236,5,42,127,804431368
84,5,21,Ticks_Linear_5,237,1,48,27,805074432
84,5,21,Ticks_Linear_5,238,5,42,127,805151236
84,5,21,Ticks_Linear_5,239,1,48,25,805811408
84,5,21,Ticks_Linear_5,240,5,42,127,805871132
84,5,21,Ticks_Linear_5,241,1,48,27,806547920
84,5,21,Ticks_Linear_5,242,5,42,127,806590728
84,5,21,Ticks_Linear_5,243,1,48,29,807270444
84,5,21,Ticks_Linear_5,244,5,42,127,807310768
84,5,21,Ticks_Linear_5,245,1,48,28,807972184
84,5,21,Ticks_Linear_5,246,5,42,127,808030588
84,5,21,Ticks_Linear_5,247,1,48,27,808631044
84,5,21,Ticks_Linear_5,248,5,42,127,808760552
84,5,21,Ticks_Linear_5,249,1,48,28,809313940
84,5,21,Ticks_Linear_5,250,5,42,127,809490780
84,5,21,Ticks_Linear_5,251,1,48,29,810012844
84,5,21,Ticks_Linear_5,252,5,42,127,810221004
84,5,21,Ticks_Linear_5,253,1,48,30,810673048
84,5,21,Ticks_Linear_5,254,5,42,127,810951232
84,5,21,Ticks_Linear_5,255,1,48,34,811430388
84,5,21,Ticks_Linear_5,256,5,42,127,811681088
84,5,21,Ticks_Linear_5,257,1,48,35,812265228
84,5,21,Ticks_Linear_5,258,5,42,127,812420452
84,5,21,Ticks_Linear_5,259,1,48,27,813056268
84,5,21,Ticks_Linear_5,260,5,42,127,813160936
84,5,21,Ticks_Linear_5,261,1,48,28,813833748
84,5,21,Ticks_Linear_5,262,5,42,127,813901040
84,5,21,Ticks_Linear_5,263,1,48,26,814581180
84,5,21,Ticks_Linear_5,264,5,42,127,814640456
84,5,21,Ticks_Linear_5,265,1,48,29,815326828
84,5,21,Ticks_Linear_5,266,5,42,127,815381164
84,5,21,Ticks_Linear_5,267,1,48,29,816108200
84,5,21,Ticks_Linear_5,268,5,42,127,816130416
84,5,21,Ticks_Linear_5,269,1,48,24,816870116
84,5,21,Ticks_Linear_5,270,5,42,127,816881164
84,5,21,Ticks_Linear_5,271,1,48,22,817627372
84,5,21,Ticks_Linear_5,272,5,42,127,817631008
84,5,21,Ticks_Linear_5,273,1,48,26,818375948
84,5,21,Ticks_Linear_5,274,5,42,127,818381308
84,5,21,Ticks_Linear_5,275,1,48,28,819084612
84,5,21,Ticks_Linear_5,276,5,42,127,819130860
84,5,21,Ticks_Linear_5,277,1,48,28,819781720
84,5,21,Ticks_Linear_5,278,5,42,127,819890652
84,5,21,Ticks_Linear_5,279,1,48,25,820604228
84,5,21,Ticks_Linear_5,280,5,42,127,820651524
84,5,21,Ticks_Linear_5,281,1,48,23,821386724
84,5,21,Ticks_Linear_5,282,5,42,127,821411184
84,5,21,Ticks_Linear_5,283,1,48,22,822123172
84,5,21,Ticks_Linear_5,284,5,42,127,822170992
84,5,21,Ticks_Linear_5,285,1,48,26,822847680
84,5,21,Ticks_Linear_5,286,5,42,127,822930800
84,5,21,Ticks_Linear_5,287,1,48,24,823559864
84,5,21,Ticks_Linear_5,288,5,42,127,823700780
84,5,21,Ticks_Linear_5,289,5,42,127,824470940
84,5,21,Ticks_Linear_5,290,1,48,24,824471908
84,5,21,Ticks_Linear_5,291,1,48,23,825157956
84,5,21,Ticks_Linear_5,292,5,42,127,825241004
84,5,21,Ticks_Linear_5,293,1,48,28,825932592
84,5,21,Ticks_Linear_5,294,5,42,127,826011068
84,5,21,Ticks_Linear_5,295,1,48,26,826723276
84,5,21,Ticks_Linear_5,296,5,42,127,826781136
84,5,21,Ticks_Linear_5,297,1,48,29,827451988
84,5,21,Ticks_Linear_5,298,5,42,127,827561296
84,5,21,Ticks_Linear_5,299,1,48,25,828255996
84,5,21,Ticks_Linear_5,300,5,42,127,828340892
84,5,21,Ticks_Linear_5,301,5,42,127,829120780
84,5,21,Ticks_Linear_5,302,1,48,19,829123520
84,5,21,Ticks_Linear_5,303,5,42,127,829901180
84,5,21,Ticks_Linear_5,304,1,48,33,829956644
84,5,21,Ticks_Linear_5,305,5,42,127,830680460
84,5,21,Ticks_Linear_5,306,1,48,24,830686724
84,5,21,Ticks_Linear_5,307,1,48,29,831430340
84,5,21,Ticks_Linear_5,308,5,42,127,831470968
84,5,21,Ticks_Linear_5,309,1,48,32,832136672
84,5,21,Ticks_Linear_5,310,5,42,127,832260564
84,5,21,Ticks_Linear_5,311,1,48,29,832969880
84,5,21,Ticks_Linear_5,312,5,42,127,833050868
84,5,21,Ticks_Linear_5,313,1,48,31,833781056
84,5,21,Ticks_Linear_5,314,5,42,127,833840628
84,5,21,Ticks_Linear_5,315,1,48,27,834546700
84,5,21,Ticks_Linear_5,316,5,42,127,834631068
84,5,21,Ticks_Linear_5,317,1,48,28,835366416
84,5,21,Ticks_Linear_5,318,5,42,127,835430668
84,5,21,Ticks_Linear_5,319,1,48,24,836149000
84,5,21,Ticks_Linear_5,320,5,42,127,836230688
84,5,21,Ticks_Linear_5,321,1,48,25,836980876
84,5,21,Ticks_Linear_5,322,5,42,127,837031160
84,5,21,Ticks_Linear_5,323,1,48,24,837745768
84,5,21,Ticks_Linear_5,324,5,42,127,837831180
84,5,21,Ticks_Linear_5,325,1,48,29,838524744
84,5,21,Ticks_Linear_5,326,5,42,127,838630744
84,5,21,Ticks_Linear_5,327,1,48,25,839355476
84,5,21,Ticks_Linear_5,328,5,42,127,839440740
84,5,21,Ticks_Linear_5,329,1,48,25,840097832
84,5,21,Ticks_Linear_5,330,5,42,127,840250708
84,5,21,Ticks_Linear_5,331,1,48,28,840884224
84,5,21,Ticks_Linear_5,332,5,42,127,841060640
84,5,21,Ticks_Linear_5,333,1,48,25,841730164
84,5,21,Ticks_Linear_5,334,5,42,127,841870696
84,5,21,Ticks_Linear_5,335,1,48,26,842608844
84,5,21,Ticks_Linear_5,336,5,42,127,842680696
84,5,21,Ticks_Linear_5,0,9999,9999,9999,733508716
84,5,21,Ticks_Linear_5,1,9999,9999,9999,733988964
84,5,21,Ticks_Linear_5,2,9999,9999,9999,734468224
84,5,21,Ticks_Linear_5,3,9999,9999,9999,734948452
84,5,21,Ticks_Linear_5,4,9999,9999,9999,735428680
84,5,21,Ticks_Linear_5,5,9999,9999,9999,735918196
84,5,21,Ticks_Linear_5,6,9999,9999,9999,736408696
84,5,21,Ticks_Linear_5,7,9999,9999,9999,736898140
84,5,21,Ticks_Linear_5,8,9999,9999,9999,737388628
84,5,21,Ticks_Linear_5,9,9999,9999,9999,737878140
84,5,21,Ticks_Linear_5,10,9999,9999,9999,738378864
84,5,21,Ticks_Linear_5,11,9999,9999,9999,738878564
84,5,21,Ticks_Linear_5,12,9999,9999,9999,739378264
84,5,21,Ticks_Linear_5,13,9999,9999,9999,739879008
84,5,21,Ticks_Linear_5,14,9999,9999,9999,740378708
84,5,21,Ticks_Linear_5,15,9999,9999,9999,740888672
84,5,21,Ticks_Linear_5,16,9999,9999,9999,741398628
84,5,21,Ticks_Linear_5,17,9999,9999,9999,741908588
84,5,21,Ticks_Linear_5,18,9999,9999,9999,742418548
84,5,21,Ticks_Linear_5,19,9999,9999,9999,742928504
84,5,21,Ticks_Linear_5,20,9999,9999,9999,743448648
84,5,21,Ticks_Linear_5,21,9999,9999,9999,743968868
84,5,21,Ticks_Linear_5,22,9999,9999,9999,744489084
84,5,21,Ticks_Linear_5,23,9999,9999,9999,745008256
84,5,21,Ticks_Linear_5,24,9999,9999,9999,745528400
84,5,21,Ticks_Linear_5,25,9999,9999,9999,746058876
84,5,21,Ticks_Linear_5,26,9999,9999,9999,746588240
84,5,21,Ticks_Linear_5,27,9999,9999,9999,747118676
84,5,21,Ticks_Linear_5,28,9999,9999,9999,747648092
84,5,21,Ticks_Linear_5,29,9999,9999,9999,748178492
84,5,21,Ticks_Linear_5,30,9999,9999,9999,748718184
84,5,21,Ticks_Linear_5,31,9999,9999,9999,749258844
84,5,21,Ticks_Linear_5,32,9999,9999,9999,749798456
84,5,21,Ticks_Linear_5,33,9999,9999,9999,750338148
84,5,21,Ticks_Linear_5,34,9999,9999,9999,750878808
84,5,21,Ticks_Linear_5,35,9999,9999,9999,751428684
84,5,21,Ticks_Linear_5,36,9999,9999,9999,751978580
84,5,21,Ticks_Linear_5,37,9999,9999,9999,752528456
84,5,21,Ticks_Linear_5,38,9999,9999,9999,753078328
84,5,21,Ticks_Linear_5,39,9999,9999,9999,753628280
84,5,21,Ticks_Linear_5,40,9999,9999,9999,754188412
84,5,21,Ticks_Linear_5,41,9999,9999,9999,754748472
84,5,21,Ticks_Linear_5,42,9999,9999,9999,755308628
84,5,21,Ticks_Linear_5,43,9999,9999,9999,755868760
84,5,21,Ticks_Linear_5,44,9999,9999,9999,756428892
84,5,21,Ticks_Linear_5,45,9999,9999,9999,756998240
84,5,21,Ticks_Linear_5,46,9999,9999,9999,757568636
84,5,21,Ticks_Linear_5,47,9999,9999,9999,758138976
84,5,21,Ticks_Linear_5,48,9999,9999,9999,758708320
84,5,21,Ticks_Linear_5,49,9999,9999,9999,759278712
84,5,21,Ticks_Linear_5,50,9999,9999,9999,759858248
84,5,21,Ticks_Linear_5,51,9999,9999,9999,760438852
84,5,21,Ticks_Linear_5,52,9999,9999,9999,761018448
84,5,21,Ticks_Linear_5,53,9999,9999,9999,761599100
84,5,21,Ticks_Linear_5,54,9999,9999,9999,762178632
84,5,21,Ticks_Linear_5,55,9999,9999,9999,762768452
84,5,21,Ticks_Linear_5,56,9999,9999,9999,763358332
84,5,21,Ticks_Linear_5,57,9999,9999,9999,763948120
84,5,21,Ticks_Linear_5,58,9999,9999,9999,764538980
84,5,21,Ticks_Linear_5,59,9999,9999,9999,765128772
84,5,21,Ticks_Linear_5,60,9999,9999,9999,765728892
84,5,21,Ticks_Linear_5,61,9999,9999,9999,766328892
84,5,21,Ticks_Linear_5,62,9999,9999,9999,766929016
84,5,21,Ticks_Linear_5,63,9999,9999,9999,767529060
84,5,21,Ticks_Linear_5,64,9999,9999,9999,768128088
84,5,21,Ticks_Linear_5,65,9999,9999,9999,768738396
84,5,21,Ticks_Linear_5,66,9999,9999,9999,769348688
84,5,21,Ticks_Linear_5,67,9999,9999,9999,769958976
84,5,21,Ticks_Linear_5,68,9999,9999,9999,770568296
84,5,21,Ticks_Linear_5,69,9999,9999,9999,771178604
84,5,21,Ticks_Linear_5,70,9999,9999,9999,771798124
84,5,21,Ticks_Linear_5,71,9999,9999,9999,772418688
84,5,21,Ticks_Linear_5,72,9999,9999,9999,773038160
84,5,21,Ticks_Linear_5,73,9999,9999,9999,773658728
84,5,21,Ticks_Linear_5,74,9999,9999,9999,774278200
84,5,21,Ticks_Linear_5,75,9999,9999,9999,774909008
84,5,21,Ticks_Linear_5,76,9999,9999,9999,775538812
84,5,21,Ticks_Linear_5,77,9999,9999,9999,776168516
84,5,21,Ticks_Linear_5,78,9999,9999,9999,776798296
84,5,21,Ticks_Linear_5,79,9999,9999,9999,777429048
84,5,21,Ticks_Linear_5,80,9999,9999,9999,778069108
84,5,21,Ticks_Linear_5,81,9999,9999,9999,778709072
84,5,21,Ticks_Linear_5,82,9999,9999,9999,779349076
84,5,21,Ticks_Linear_5,83,9999,9999,9999,779989112
84,5,21,Ticks_Linear_5,84,9999,9999,9999,780629104
84,5,21,Ticks_Linear_5,85,9999,9999,9999,781278280
84,5,21,Ticks_Linear_5,86,9999,9999,9999,781928524
84,5,21,Ticks_Linear_5,87,9999,9999,9999,782578748
84,5,21,Ticks_Linear_5,88,9999,9999,9999,783228996
84,5,21,Ticks_Linear_5,89,9999,9999,9999,783878248
84,5,21,Ticks_Linear_5,90,9999,9999,9999,784538680
84,5,21,Ticks_Linear_5,91,9999,9999,9999,785198188
84,5,21,Ticks_Linear_5,92,9999,9999,9999,785858620
84,5,21,Ticks_Linear_5,93,9999,9999,9999,786518080
84,5,21,Ticks_Linear_5,94,9999,9999,9999,787178564
84,5,21,Ticks_Linear_5,95,9999,9999,9999,787848284
84,5,21,Ticks_Linear_5,96,9999,9999,9999,788519024
84,5,21,Ticks_Linear_5,97,9999,9999,9999,789188668
84,5,21,Ticks_Linear_5,98,9999,9999,9999,789858384
84,5,21,Ticks_Linear_5,99,9999,9999,9999,790528068
84,5,21,Ticks_Linear_5,100,9999,9999,9999,791209020
84,5,21,Ticks_Linear_5,101,9999,9999,9999,791888996
84,5,21,Ticks_Linear_5,102,9999,9999,9999,792568952
84,5,21,Ticks_Linear_5,103,9999,9999,9999,793248856
84,5,21,Ticks_Linear_5,104,9999,9999,9999,793928824
84,5,21,Ticks_Linear_5,105,9999,9999,9999,794618988
84,5,21,Ticks_Linear_5,106,9999,9999,9999,795308088
84,5,21,Ticks_Linear_5,107,9999,9999,9999,795998264
84,5,21,Ticks_Linear_5,108,9999,9999,9999,796688476
84,5,21,Ticks_Linear_5,109,9999,9999,9999,797378624
84,5,21,Ticks_Linear_5,110,9999,9999,9999,798079044
84,5,21,Ticks_Linear_5,111,9999,9999,9999,798778468
84,5,21,Ticks_Linear_5,112,9999,9999,9999,799478888
84,5,21,Ticks_Linear_5,113,9999,9999,9999,800178280
84,5,21,Ticks_Linear_5,114,9999,9999,9999,800878708
84,5,21,Ticks_Linear_5,115,9999,9999,9999,801588320
84,5,21,Ticks_Linear_5,116,9999,9999,9999,802299000
84,5,21,Ticks_Linear_5,117,9999,9999,9999,803008628
84,5,21,Ticks_Linear_5,118,9999,9999,9999,803718264
84,5,21,Ticks_Linear_5,119,9999,9999,9999,804428920
84,5,21,Ticks_Linear_5,120,9999,9999,9999,805148788
84,5,21,Ticks_Linear_5,121,9999,9999,9999,805868608
84,5,21,Ticks_Linear_5,122,9999,9999,9999,806588504
84,5,21,Ticks_Linear_5,123,9999,9999,9999,807308396
84,5,21,Ticks_Linear_5,124,9999,9999,9999,808028212
84,5,21,Ticks_Linear_5,125,9999,9999,9999,808758328
84,5,21,Ticks_Linear_5,126,9999,9999,9999,809488480
84,5,21,Ticks_Linear_5,127,9999,9999,9999,810218556
84,5,21,Ticks_Linear_5,128,9999,9999,9999,810948708
84,5,21,Ticks_Linear_5,129,9999,9999,9999,811678788
84,5,21,Ticks_Linear_5,130,9999,9999,9999,812418152
84,5,21,Ticks_Linear_5,131,9999,9999,9999,813158492
84,5,21,Ticks_Linear_5,132,9999,9999,9999,813898816
84,5,21,Ticks_Linear_5,133,9999,9999,9999,814638156
84,5,21,Ticks_Linear_5,134,9999,9999,9999,815378496
84,5,21,Ticks_Linear_5,135,9999,9999,9999,816128120
84,5,21,Ticks_Linear_5,136,9999,9999,9999,816878716
84,5,21,Ticks_Linear_5,137,9999,9999,9999,817628264
84,5,21,Ticks_Linear_5,138,9999,9999,9999,818378864
84,5,21,Ticks_Linear_5,139,9999,9999,9999,819128412
84,5,21,Ticks_Linear_5,140,9999,9999,9999,819888208
84,5,21,Ticks_Linear_5,141,9999,9999,9999,820649076
84,5,21,Ticks_Linear_5,142,9999,9999,9999,821408884
84,5,21,Ticks_Linear_5,143,9999,9999,9999,822168696
84,5,21,Ticks_Linear_5,144,9999,9999,9999,822928504
84,5,21,Ticks_Linear_5,145,9999,9999,9999,823698556
84,5,21,Ticks_Linear_5,146,9999,9999,9999,824468568
84,5,21,Ticks_Linear_5,147,9999,9999,9999,825238628
84,5,21,Ticks_Linear_5,148,9999,9999,9999,826008696
84,5,21,Ticks_Linear_5,149,9999,9999,9999,826778688
84,5,21,Ticks_Linear_5,150,9999,9999,9999,827559000
84,5,21,Ticks_Linear_5,151,9999,9999,9999,828338296
84,5,21,Ticks_Linear_5,152,9999,9999,9999,829118556
84,5,21,Ticks_Linear_5,153,9999,9999,9999,829898804
84,5,21,Ticks_Linear_5,154,9999,9999,9999,830678088
84,5,21,Ticks_Linear_5,155,9999,9999,9999,831468668
84,5,21,Ticks_Linear_5,156,9999,9999,9999,832258120
84,5,21,Ticks_Linear_5,157,9999,9999,9999,833048644
84,5,21,Ticks_Linear_5,158,9999,9999,9999,833838184
84,5,21,Ticks_Linear_5,159,9999,9999,9999,834628696
84,5,21,Ticks_Linear_5,160,9999,9999,9999,835428444
84,5,21,Ticks_Linear_5,161,9999,9999,9999,836228168
84,5,21,Ticks_Linear_5,162,9999,9999,9999,837028936
84,5,21,Ticks_Linear_5,163,9999,9999,9999,837828736
84,5,21,Ticks_Linear_5,164,9999,9999,9999,838628444
84,5,21,Ticks_Linear_5,165,9999,9999,9999,839438440
84,5,21,Ticks_Linear_5,166,9999,9999,9999,840248408
84,5,21,Ticks_Linear_5,167,9999,9999,9999,841058416
84,5,21,Ticks_Linear_5,168,9999,9999,9999,841868400
84,5,21,Ticks_Linear_5,169,9999,9999,9999,842678396
84,6,20,Ticks_Linear_8,0,5,42,127,853271884
84,6,20,Ticks_Linear_8,1,5,42,127,854092296
84,6,20,Ticks_Linear_8,2,1,48,19,854274348
84,6,20,Ticks_Linear_8,3,5,42,127,854912416
84,6,20,Ticks_Linear_8,4,1,48,24,855085000
84,6,20,Ticks_Linear_8,5,5,42,127,855731536
84,6,20,Ticks_Linear_8,6,1,48,23,855941968
84,6,20,Ticks_Linear_8,7,5,42,127,856551928
84,6,20,Ticks_Linear_8,8,5,42,127,857361708
84,6,20,Ticks_Linear_8,9,1,48,33,857488260
84,6,20,Ticks_Linear_8,10,5,42,127,858171768
84,6,20,Ticks_Linear_8,11,1,48,26,858241488
84,6,20,Ticks_Linear_8,12,1,48,23,858949880
84,6,20,Ticks_Linear_8,13,5,42,127,858981616
84,6,20,Ticks_Linear_8,14,1,48,34,859716340
84,6,20,Ticks_Linear_8,15,5,42,127,859791748
84,6,20,Ticks_Linear_8,16,1,48,26,860529116
84,6,20,Ticks_Linear_8,17,5,42,127,860601584
84,6,20,Ticks_Linear_8,18,1,48,26,861366444
84,6,20,Ticks_Linear_8,19,5,42,127,861401456
84,6,20,Ticks_Linear_8,20,1,48,27,862174176
84,6,20,Ticks_Linear_8,21,5,42,127,862202304
84,6,20,Ticks_Linear_8,22,1,48,27,862960880
84,6,20,Ticks_Linear_8,23,5,42,127,863002176
84,6,20,Ticks_Linear_8,24,1,48,25,863756024
84,6,20,Ticks_Linear_8,25,5,42,127,863801600
84,6,20,Ticks_Linear_8,26,1,48,26,864575216
84,6,20,Ticks_Linear_8,27,5,42,127,864601424
84,6,20,Ticks_Linear_8,28,1,48,24,865301184
84,6,20,Ticks_Linear_8,29,5,42,127,865392384
84,6,20,Ticks_Linear_8,30,1,48,23,866118348
84,6,20,Ticks_Linear_8,31,5,42,127,866181476
84,6,20,Ticks_Linear_8,32,1,48,25,866961388
84,6,20,Ticks_Linear_8,33,5,42,127,866972136
84,6,20,Ticks_Linear_8,34,5,42,127,867761536
84,6,20,Ticks_Linear_8,35,1,48,23,867779864
84,6,20,Ticks_Linear_8,36,5,42,127,868552048
84,6,20,Ticks_Linear_8,37,1,48,25,868575008
84,6,20,Ticks_Linear_8,38,5,42,127,869332300
84,6,20,Ticks_Linear_8,39,1,48,22,869337516
84,6,20,Ticks_Linear_8,40,5,42,127,870111656
84,6,20,Ticks_Linear_8,41,1,48,24,870117316
84,6,20,Ticks_Linear_8,42,1,48,26,870838460
84,6,20,Ticks_Linear_8,43,5,42,127,870892048
84,6,20,Ticks_Linear_8,44,5,42,127,871672084
84,6,20,Ticks_Linear_8,45,1,48,28,872314364
84,6,20,Ticks_Linear_8,46,5,42,127,872451364
84,6,20,Ticks_Linear_8,47,1,48,26,873107344
84,6,20,Ticks_Linear_8,48,5,42,127,873221432
84,6,20,Ticks_Linear_8,49,1,48,23,873905500
84,6,20,Ticks_Linear_8,50,5,42,127,873991512
84,6,20,Ticks_Linear_8,51,1,48,25,874669660
84,6,20,Ticks_Linear_8,52,5,42,127,874762088
84,6,20,Ticks_Linear_8,53,1,48,26,875454848
84,6,20,Ticks_Linear_8,54,5,42,127,875531800
84,6,20,Ticks_Linear_8,55,1,48,26,876278908
84,6,20,Ticks_Linear_8,56,5,42,127,876301868
84,6,20,Ticks_Linear_8,57,5,42,127,877061532
84,6,20,Ticks_Linear_8,58,1,48,25,877149684
84,6,20,Ticks_Linear_8,59,1,48,16,877816348
84,6,20,Ticks_Linear_8,60,5,42,127,877822236
84,6,20,Ticks_Linear_8,61,5,42,127,878582124
84,6,20,Ticks_Linear_8,62,1,48,23,878590120
84,6,20,Ticks_Linear_8,63,1,48,23,879323984
84,6,20,Ticks_Linear_8,64,5,42,127,879341924
84,6,20,Ticks_Linear_8,65,5,42,127,880101964
84,6,20,Ticks_Linear_8,66,1,48,30,880131748
84,6,20,Ticks_Linear_8,67,5,42,127,880852336
84,6,20,Ticks_Linear_8,68,1,48,30,880869768
84,6,20,Ticks_Linear_8,69,5,42,127,881601960
84,6,20,Ticks_Linear_8,70,1,48,27,881637280
84,6,20,Ticks_Linear_8,71,5,42,127,882351588
84,6,20,Ticks_Linear_8,72,1,48,24,882415960
84,6,20,Ticks_Linear_8,73,5,42,127,883102184
84,6,20,Ticks_Linear_8,74,1,48,22,883141624
84,6,20,Ticks_Linear_8,75,5,42,127,883851884
84,6,20,Ticks_Linear_8,76,1,48,21,883922776
84,6,20,Ticks_Linear_8,77,5,42,127,884591920
84,6,20,Ticks_Linear_8,78,1,48,23,884666636
84,6,20,Ticks_Linear_8,79,1,48,19,885315184
84,6,20,Ticks_Linear_8,80,5,42,127,885332400
84,6,20,Ticks_Linear_8,81,5,42,127,886071600
84,6,20,Ticks_Linear_8,82,1,48,16,886197032
84,6,20,Ticks_Linear_8,83,5,42,127,886812008
84,6,20,Ticks_Linear_8,84,1,48,20,886948672
84,6,20,Ticks_Linear_8,85,5,42,127,887552348
84,6,20,Ticks_Linear_8,86,1,48,15,887751928
84,6,20,Ticks_Linear_8,87,5,42,127,888281604
84,6,20,Ticks_Linear_8,88,1,48,18,888411312
84,6,20,Ticks_Linear_8,89,5,42,127,889011608
84,6,20,Ticks_Linear_8,90,1,48,18,889131852
84,6,20,Ticks_Linear_8,91,5,42,127,889741760
84,6,20,Ticks_Linear_8,92,1,48,19,890398464
84,6,20,Ticks_Linear_8,93,5,42,127,890471780
84,6,20,Ticks_Linear_8,94,5,42,127,891201988
84,6,20,Ticks_Linear_8,95,1,48,25,891789912
84,6,20,Ticks_Linear_8,96,5,42,127,891921808
84,6,20,Ticks_Linear_8,97,1,48,34,892569552
84,6,20,Ticks_Linear_8,98,5,42,127,892641720
84,6,20,Ticks_Linear_8,99,5,42,127,893361692
84,6,20,Ticks_Linear_8,100,1,48,29,893401956
84,6,20,Ticks_Linear_8,101,1,48,27,894080744
84,6,20,Ticks_Linear_8,102,5,42,127,894082552
84,6,20,Ticks_Linear_8,103,1,48,27,894788748
84,6,20,Ticks_Linear_8,104,5,42,127,894811732
84,6,20,Ticks_Linear_8,105,5,42,127,895522100
84,6,20,Ticks_Linear_8,106,1,48,29,895554948
84,6,20,Ticks_Linear_8,107,5,42,127,896231732
84,6,20,Ticks_Linear_8,108,1,48,27,896285248
84,6,20,Ticks_Linear_8,109,1,48,27,896927908
84,6,20,Ticks_Linear_8,110,5,42,127,896941804
84,6,20,Ticks_Linear_8,111,1,48,25,897636192
84,6,20,Ticks_Linear_8,112,5,42,127,897652044
84,6,20,Ticks_Linear_8,113,1,48,29,898349784
84,6,20,Ticks_Linear_8,114,5,42,127,898361652
84,6,20,Ticks_Linear_8,115,1,48,28,899013808
84,6,20,Ticks_Linear_8,116,5,42,127,899062224
84,6,20,Ticks_Linear_8,117,1,48,28,899758336
84,6,20,Ticks_Linear_8,118,5,42,127,899761528
84,6,20,Ticks_Linear_8,119,5,42,127,900461956
84,6,20,Ticks_Linear_8,120,1,48,28,900490616
84,6,20,Ticks_Linear_8,121,1,48,28,901156756
84,6,20,Ticks_Linear_8,122,5,42,127,901162568
84,6,20,Ticks_Linear_8,123,1,48,31,901833824
84,6,20,Ticks_Linear_8,124,5,42,127,901861720
84,6,20,Ticks_Linear_8,125,1,48,31,902531996
84,6,20,Ticks_Linear_8,126,5,42,127,902551884
84,6,20,Ticks_Linear_8,127,1,48,29,903185592
84,6,20,Ticks_Linear_8,128,5,42,127,903242172
84,6,20,Ticks_Linear_8,129,1,48,31,903898344
84,6,20,Ticks_Linear_8,130,5,42,127,903932384
84,6,20,Ticks_Linear_8,131,1,48,35,904583864
84,6,20,Ticks_Linear_8,132,5,42,127,904621356
84,6,20,Ticks_Linear_8,133,1,48,29,905253188
84,6,20,Ticks_Linear_8,134,5,42,127,905311592
84,6,20,Ticks_Linear_8,135,5,42,127,905991476
84,6,20,Ticks_Linear_8,136,1,48,29,906048736
84,6,20,Ticks_Linear_8,137,5,42,127,906671680
84,6,20,Ticks_Linear_8,138,1,48,24,906732536
84,6,20,Ticks_Linear_8,139,5,42,127,907352404
84,6,20,Ticks_Linear_8,140,1,48,29,907435724
84,6,20,Ticks_Linear_8,141,5,42,127,908041572
84,6,20,Ticks_Linear_8,142,1,48,24,908077860
84,6,20,Ticks_Linear_8,143,5,42,127,908721404
84,6,20,Ticks_Linear_8,144,1,48,29,908745708
84,6,20,Ticks_Linear_8,145,1,48,30,909385128
84,6,20,Ticks_Linear_8,146,5,42,127,909392236
84,6,20,Ticks_Linear_8,147,5,42,127,910062088
84,6,20,Ticks_Linear_8,148,1,48,26,910101156
84,6,20,Ticks_Linear_8,149,1,48,27,910709208
84,6,20,Ticks_Linear_8,150,5,42,127,910731576
84,6,20,Ticks_Linear_8,151,1,48,30,911394484
84,6,20,Ticks_Linear_8,152,5,42,127,911402392
84,6,20,Ticks_Linear_8,153,1,48,29,912025788
84,6,20,Ticks_Linear_8,154,5,42,127,912072184
84,6,20,Ticks_Linear_8,155,1,48,25,912731128
84,6,20,Ticks_Linear_8,156,5,42,127,912732544
84,6,20,Ticks_Linear_8,157,1,48,28,913369012
84,6,20,Ticks_Linear_8,158,5,42,127,913392128
84,6,20,Ticks_Linear_8,159,5,42,127,914051444
84,6,20,Ticks_Linear_8,160,1,48,17,914072312
84,6,20,Ticks_Linear_8,161,5,42,127,914712076
84,6,20,Ticks_Linear_8,162,1,48,29,914745748
84,6,20,Ticks_Linear_8,163,5,42,127,915372436
84,6,20,Ticks_Linear_8,164,1,48,31,915416964
84,6,20,Ticks_Linear_8,165,5,42,127,916021536
84,6,20,Ticks_Linear_8,166,1,48,29,916059660
84,6,20,Ticks_Linear_8,167,5,42,127,916672080
84,6,20,Ticks_Linear_8,168,1,48,32,916721112
84,6,20,Ticks_Linear_8,169,5,42,127,917322032
84,6,20,Ticks_Linear_8,170,1,48,31,917330396
84,6,20,Ticks_Linear_8,171,1,48,27,917962320
84,6,20,Ticks_Linear_8,172,5,42,127,917972320
84,6,20,Ticks_Linear_8,173,1,48,24,918597716
84,6,20,Ticks_Linear_8,174,5,42,127,918621448
84,6,20,Ticks_Linear_8,175,1,48,31,919224224
84,6,20,Ticks_Linear_8,176,5,42,127,919261564
84,6,20,Ticks_Linear_8,177,1,48,27,919873852
84,6,20,Ticks_Linear_8,178,5,42,127,919901552
84,6,20,Ticks_Linear_8,179,5,42,127,920541596
84,6,20,Ticks_Linear_8,180,1,48,26,920552728
84,6,20,Ticks_Linear_8,181,5,42,127,921181508
84,6,20,Ticks_Linear_8,182,1,48,23,921197880
84,6,20,Ticks_Linear_8,183,1,48,29,921789900
84,6,20,Ticks_Linear_8,184,5,42,127,921821540
84,6,20,Ticks_Linear_8,185,1,48,22,922431060
84,6,20,Ticks_Linear_8,186,5,42,127,922452316
84,6,20,Ticks_Linear_8,187,1,48,22,923064456
84,6,20,Ticks_Linear_8,188,5,42,127,923082168
84,6,20,Ticks_Linear_8,189,5,42,127,923711956
84,6,20,Ticks_Linear_8,190,1,48,27,923776284
84,6,20,Ticks_Linear_8,191,1,48,30,924336768
84,6,20,Ticks_Linear_8,192,5,42,127,924341528
84,6,20,Ticks_Linear_8,193,1,48,27,924955984
84,6,20,Ticks_Linear_8,194,5,42,127,924972280
84,6,20,Ticks_Linear_8,195,1,48,26,925576508
84,6,20,Ticks_Linear_8,196,5,42,127,925592048
84,6,20,Ticks_Linear_8,197,5,42,127,926211504
84,6,20,Ticks_Linear_8,198,1,48,26,926236036
84,6,20,Ticks_Linear_8,199,1,48,29,926810632
84,6,20,Ticks_Linear_8,200,5,42,127,926832012
84,6,20,Ticks_Linear_8,201,1,48,26,927403340
84,6,20,Ticks_Linear_8,202,5,42,127,927451384
84,6,20,Ticks_Linear_8,203,1,48,27,928037908
84,6,20,Ticks_Linear_8,204,5,42,127,928072172
84,6,20,Ticks_Linear_8,205,1,48,27,928663820
84,6,20,Ticks_Linear_8,206,5,42,127,928682284
84,6,20,Ticks_Linear_8,207,1,48,26,929226796
84,6,20,Ticks_Linear_8,208,5,42,127,929291620
84,6,20,Ticks_Linear_8,209,1,48,29,929871732
84,6,20,Ticks_Linear_8,210,5,42,127,929901804
84,6,20,Ticks_Linear_8,211,1,48,30,930498060
84,6,20,Ticks_Linear_8,212,5,42,127,930512184
84,6,20,Ticks_Linear_8,213,5,42,127,931121528
84,6,20,Ticks_Linear_8,214,1,48,30,931211168
84,6,20,Ticks_Linear_8,215,5,42,127,931721528
84,6,20,Ticks_Linear_8,216,1,48,33,931754304
84,6,20,Ticks_Linear_8,217,1,48,25,932308788
84,6,20,Ticks_Linear_8,218,5,42,127,932321868
84,6,20,Ticks_Linear_8,219,1,48,29,932911472
84,6,20,Ticks_Linear_8,220,5,42,127,932921692
84,6,20,Ticks_Linear_8,221,5,42,127,933521996
84,6,20,Ticks_Linear_8,222,1,48,26,933543392
84,6,20,Ticks_Linear_8,223,5,42,127,934121824
84,6,20,Ticks_Linear_8,224,1,48,29,934125840
84,6,20,Ticks_Linear_8,225,5,42,127,934711908
84,6,20,Ticks_Linear_8,226,1,48,29,934713624
84,6,20,Ticks_Linear_8,227,5,42,127,935301500
84,6,20,Ticks_Linear_8,228,1,48,27,935310616
84,6,20,Ticks_Linear_8,229,1,48,31,935886896
84,6,20,Ticks_Linear_8,230,5,42,127,935892256
84,6,20,Ticks_Linear_8,231,1,48,30,936468744
84,6,20,Ticks_Linear_8,232,5,42,127,936482196
84,6,20,Ticks_Linear_8,233,1,48,24,937015924
84,6,20,Ticks_Linear_8,234,5,42,127,937071936
84,6,20,Ticks_Linear_8,235,1,48,27,937642588
84,6,20,Ticks_Linear_8,236,5,42,127,937651840
84,6,20,Ticks_Linear_8,237,1,48,29,938227808
84,6,20,Ticks_Linear_8,238,5,42,127,938232044
84,6,20,Ticks_Linear_8,239,5,42,127,938811656
84,6,20,Ticks_Linear_8,240,1,48,33,938843188
84,6,20,Ticks_Linear_8,241,1,48,25,939351548
84,6,20,Ticks_Linear_8,242,5,42,127,939392252
84,6,20,Ticks_Linear_8,243,1,48,22,939964700
84,6,20,Ticks_Linear_8,244,5,42,127,939972080
84,6,20,Ticks_Linear_8,245,5,42,127,940542404
84,6,20,Ticks_Linear_8,246,1,48,26,940590612
84,6,20,Ticks_Linear_8,247,5,42,127,941111752
84,6,20,Ticks_Linear_8,248,1,48,34,941183716
84,6,20,Ticks_Linear_8,249,5,42,127,941681948
84,6,20,Ticks_Linear_8,250,1,48,29,941760332
84,6,20,Ticks_Linear_8,251,5,42,127,942252264
84,6,20,Ticks_Linear_8,252,1,48,32,942304884
84,6,20,Ticks_Linear_8,253,1,48,27,942806208
84,6,20,Ticks_Linear_8,254,5,42,127,942821828
84,6,20,Ticks_Linear_8,255,5,42,127,943381744
84,6,20,Ticks_Linear_8,256,1,48,31,943390708
84,6,20,Ticks_Linear_8,257,5,42,127,943941880
84,6,20,Ticks_Linear_8,258,1,48,25,944014268
84,6,20,Ticks_Linear_8,259,5,42,127,944502236
84,6,20,Ticks_Linear_8,260,1,48,21,944568488
84,6,20,Ticks_Linear_8,261,5,42,127,945062372
84,6,20,Ticks_Linear_8,262,1,48,21,945102044
84,6,20,Ticks_Linear_8,263,5,42,127,945622656
84,6,20,Ticks_Linear_8,264,1,48,27,945665840
84,6,20,Ticks_Linear_8,265,5,42,127,946172160
84,6,20,Ticks_Linear_8,266,1,48,25,946255652
84,6,20,Ticks_Linear_8,267,5,42,127,946722108
84,6,20,Ticks_Linear_8,268,1,48,22,946781644
84,6,20,Ticks_Linear_8,269,5,42,127,947272304
84,6,20,Ticks_Linear_8,270,1,48,17,947374048
84,6,20,Ticks_Linear_8,271,5,42,127,947821880
84,6,20,Ticks_Linear_8,272,1,48,25,947924600
84,6,20,Ticks_Linear_8,273,5,42,127,948371832
84,6,20,Ticks_Linear_8,274,1,48,25,948492076
84,6,20,Ticks_Linear_8,275,5,42,127,948911744
84,6,20,Ticks_Linear_8,276,1,48,24,949058868
84,6,20,Ticks_Linear_8,277,5,42,127,949452032
84,6,20,Ticks_Linear_8,278,1,48,22,949588252
84,6,20,Ticks_Linear_8,279,5,42,127,949991796
84,6,20,Ticks_Linear_8,280,1,48,18,950103900
84,6,20,Ticks_Linear_8,281,5,42,127,950531636
84,6,20,Ticks_Linear_8,282,1,48,17,950654004
84,6,20,Ticks_Linear_8,283,5,42,127,951072004
84,6,20,Ticks_Linear_8,284,1,48,21,951189120
84,6,20,Ticks_Linear_8,285,5,42,127,951601732
84,6,20,Ticks_Linear_8,286,1,48,24,951722232
84,6,20,Ticks_Linear_8,287,5,42,127,952131912
84,6,20,Ticks_Linear_8,288,1,48,24,952219596
84,6,20,Ticks_Linear_8,289,5,42,127,952662492
84,6,20,Ticks_Linear_8,290,1,48,19,952736152
84,6,20,Ticks_Linear_8,291,5,42,127,953191696
84,6,20,Ticks_Linear_8,292,1,48,23,953270904
84,6,20,Ticks_Linear_8,293,5,42,127,953722396
84,6,20,Ticks_Linear_8,294,1,48,27,953781392
84,6,20,Ticks_Linear_8,295,5,42,127,954242540
84,6,20,Ticks_Linear_8,296,1,48,26,954270156
84,6,20,Ticks_Linear_8,297,1,48,29,954761372
84,6,20,Ticks_Linear_8,298,5,42,127,954771816
84,6,20,Ticks_Linear_8,299,5,42,127,955291892
84,6,20,Ticks_Linear_8,300,1,48,27,955309620
84,6,20,Ticks_Linear_8,301,1,48,31,955807264
84,6,20,Ticks_Linear_8,302,5,42,127,955812252
84,6,20,Ticks_Linear_8,303,5,42,127,956332552
84,6,20,Ticks_Linear_8,304,1,48,29,956365928
84,6,20,Ticks_Linear_8,305,1,48,29,956832808
84,6,20,Ticks_Linear_8,306,5,42,127,956842504
84,6,20,Ticks_Linear_8,307,1,48,29,957317228
84,6,20,Ticks_Linear_8,308,5,42,127,957352392
84,6,20,Ticks_Linear_8,309,1,48,24,957820156
84,6,20,Ticks_Linear_8,310,5,42,127,957862352
84,6,20,Ticks_Linear_8,311,1,48,27,958330116
84,6,20,Ticks_Linear_8,312,5,42,127,958372236
84,6,20,Ticks_Linear_8,313,5,42,127,958882352
84,6,20,Ticks_Linear_8,314,1,48,29,958889140
84,6,20,Ticks_Linear_8,315,1,48,28,959370328
84,6,20,Ticks_Linear_8,316,5,42,127,959381748
84,6,20,Ticks_Linear_8,317,1,48,29,959844784
84,6,20,Ticks_Linear_8,318,5,42,127,959881672
84,6,20,Ticks_Linear_8,319,1,48,23,960337292
84,6,20,Ticks_Linear_8,320,5,42,127,960382344
84,6,20,Ticks_Linear_8,321,1,48,29,960882128
84,6,20,Ticks_Linear_8,322,5,42,127,960883392
84,6,20,Ticks_Linear_8,323,5,42,127,961381756
84,6,20,Ticks_Linear_8,324,1,48,34,961406364
84,6,20,Ticks_Linear_8,325,5,42,127,961872316
84,6,20,Ticks_Linear_8,326,1,48,25,961888012
84,6,20,Ticks_Linear_8,327,5,42,127,962361584
84,6,20,Ticks_Linear_8,328,1,48,28,962403144
84,6,20,Ticks_Linear_8,329,5,42,127,962852368
84,6,20,Ticks_Linear_8,330,1,48,27,962853336
84,6,20,Ticks_Linear_8,331,5,42,127,963341664
84,6,20,Ticks_Linear_8,332,1,48,31,963343676
84,6,20,Ticks_Linear_8,333,1,48,25,963827380
84,6,20,Ticks_Linear_8,334,5,42,127,963832516
84,6,20,Ticks_Linear_8,0,9999,9999,9999,853269588
84,6,20,Ticks_Linear_8,1,9999,9999,9999,854089848
84,6,20,Ticks_Linear_8,2,9999,9999,9999,854910040
84,6,20,Ticks_Linear_8,3,9999,9999,9999,855729236
84,6,20,Ticks_Linear_8,4,9999,9999,9999,856549480
84,6,20,Ticks_Linear_8,5,9999,9999,9999,857359484
84,6,20,Ticks_Linear_8,6,9999,9999,9999,858169468
84,6,20,Ticks_Linear_8,7,9999,9999,9999,858979392
84,6,20,Ticks_Linear_8,8,9999,9999,9999,859789376
84,6,20,Ticks_Linear_8,9,9999,9999,9999,860599360
84,6,20,Ticks_Linear_8,10,9999,9999,9999,861399160
84,6,20,Ticks_Linear_8,11,9999,9999,9999,862199932
84,6,20,Ticks_Linear_8,12,9999,9999,9999,862999652
84,6,20,Ticks_Linear_8,13,9999,9999,9999,863799376
84,6,20,Ticks_Linear_8,14,9999,9999,9999,864599124
84,6,20,Ticks_Linear_8,15,9999,9999,9999,865389640
84,6,20,Ticks_Linear_8,16,9999,9999,9999,866179180
84,6,20,Ticks_Linear_8,17,9999,9999,9999,866969688
84,6,20,Ticks_Linear_8,18,9999,9999,9999,867759160
84,6,20,Ticks_Linear_8,19,9999,9999,9999,868549748
84,6,20,Ticks_Linear_8,20,9999,9999,9999,869330000
84,6,20,Ticks_Linear_8,21,9999,9999,9999,870109280
84,6,20,Ticks_Linear_8,22,9999,9999,9999,870889528
84,6,20,Ticks_Linear_8,23,9999,9999,9999,871669860
84,6,20,Ticks_Linear_8,24,9999,9999,9999,872449140
84,6,20,Ticks_Linear_8,25,9999,9999,9999,873219132
84,6,20,Ticks_Linear_8,26,9999,9999,9999,873989216
84,6,20,Ticks_Linear_8,27,9999,9999,9999,874759284
84,6,20,Ticks_Linear_8,28,9999,9999,9999,875529276
84,6,20,Ticks_Linear_8,29,9999,9999,9999,876299344
84,6,20,Ticks_Linear_8,30,9999,9999,9999,877059160
84,6,20,Ticks_Linear_8,31,9999,9999,9999,877820012
84,6,20,Ticks_Linear_8,32,9999,9999,9999,878579824
84,6,20,Ticks_Linear_8,33,9999,9999,9999,879339628
84,6,20,Ticks_Linear_8,34,9999,9999,9999,880099444
84,6,20,Ticks_Linear_8,35,9999,9999,9999,880850040
84,6,20,Ticks_Linear_8,36,9999,9999,9999,881599588
84,6,20,Ticks_Linear_8,37,9999,9999,9999,882349140
84,6,20,Ticks_Linear_8,38,9999,9999,9999,883099732
84,6,20,Ticks_Linear_8,39,9999,9999,9999,883849284
84,6,20,Ticks_Linear_8,40,9999,9999,9999,884589624
84,6,20,Ticks_Linear_8,41,9999,9999,9999,885330028
84,6,20,Ticks_Linear_8,42,9999,9999,9999,886069376
84,6,20,Ticks_Linear_8,43,9999,9999,9999,886809712
84,6,20,Ticks_Linear_8,44,9999,9999,9999,887550048
84,6,20,Ticks_Linear_8,45,9999,9999,9999,888279156
84,6,20,Ticks_Linear_8,46,9999,9999,9999,889009232
84,6,20,Ticks_Linear_8,47,9999,9999,9999,889739388
84,6,20,Ticks_Linear_8,48,9999,9999,9999,890469480
84,6,20,Ticks_Linear_8,49,9999,9999,9999,891199616
84,6,20,Ticks_Linear_8,50,9999,9999,9999,891919436
84,6,20,Ticks_Linear_8,51,9999,9999,9999,892639348
84,6,20,Ticks_Linear_8,52,9999,9999,9999,893359172
84,6,20,Ticks_Linear_8,53,9999,9999,9999,894080128
84,6,20,Ticks_Linear_8,54,9999,9999,9999,894809212
84,6,20,Ticks_Linear_8,55,9999,9999,9999,895519800
84,6,20,Ticks_Linear_8,56,9999,9999,9999,896229436
84,6,20,Ticks_Linear_8,57,9999,9999,9999,896939136
84,6,20,Ticks_Linear_8,58,9999,9999,9999,897649744
84,6,20,Ticks_Linear_8,59,9999,9999,9999,898359352
84,6,20,Ticks_Linear_8,60,9999,9999,9999,899059776
84,6,20,Ticks_Linear_8,61,9999,9999,9999,899759228
84,6,20,Ticks_Linear_8,62,9999,9999,9999,900459580
84,6,20,Ticks_Linear_8,63,9999,9999,9999,901160048
84,6,20,Ticks_Linear_8,64,9999,9999,9999,901859424
84,6,20,Ticks_Linear_8,65,9999,9999,9999,902549584
84,6,20,Ticks_Linear_8,66,9999,9999,9999,903239800
84,6,20,Ticks_Linear_8,67,9999,9999,9999,903929936
84,6,20,Ticks_Linear_8,68,9999,9999,9999,904619128
84,6,20,Ticks_Linear_8,69,9999,9999,9999,905309292
84,6,20,Ticks_Linear_8,70,9999,9999,9999,905989176
84,6,20,Ticks_Linear_8,71,9999,9999,9999,906669156
84,6,20,Ticks_Linear_8,72,9999,9999,9999,907350108
84,6,20,Ticks_Linear_8,73,9999,9999,9999,908039272
84,6,20,Ticks_Linear_8,74,9999,9999,9999,908719176
84,6,20,Ticks_Linear_8,75,9999,9999,9999,909389936
84,6,20,Ticks_Linear_8,76,9999,9999,9999,910059640
84,6,20,Ticks_Linear_8,77,9999,9999,9999,910729276
84,6,20,Ticks_Linear_8,78,9999,9999,9999,911400016
84,6,20,Ticks_Linear_8,79,9999,9999,9999,912069736
84,6,20,Ticks_Linear_8,80,9999,9999,9999,912729204
84,6,20,Ticks_Linear_8,81,9999,9999,9999,913389680
84,6,20,Ticks_Linear_8,82,9999,9999,9999,914049148
84,6,20,Ticks_Linear_8,83,9999,9999,9999,914709628
84,6,20,Ticks_Linear_8,84,9999,9999,9999,915370060
84,6,20,Ticks_Linear_8,85,9999,9999,9999,916019312
84,6,20,Ticks_Linear_8,86,9999,9999,9999,916669560
84,6,20,Ticks_Linear_8,87,9999,9999,9999,917319780
84,6,20,Ticks_Linear_8,88,9999,9999,9999,917970020
84,6,20,Ticks_Linear_8,89,9999,9999,9999,918619224
84,6,20,Ticks_Linear_8,90,9999,9999,9999,919259188
84,6,20,Ticks_Linear_8,91,9999,9999,9999,919899252
84,6,20,Ticks_Linear_8,92,9999,9999,9999,920539220
84,6,20,Ticks_Linear_8,93,9999,9999,9999,921179208
84,6,20,Ticks_Linear_8,94,9999,9999,9999,921819240
84,6,20,Ticks_Linear_8,95,9999,9999,9999,922450016
84,6,20,Ticks_Linear_8,96,9999,9999,9999,923079796
84,6,20,Ticks_Linear_8,97,9999,9999,9999,923709508
84,6,20,Ticks_Linear_8,98,9999,9999,9999,924339304
84,6,20,Ticks_Linear_8,99,9999,9999,9999,924970056
84,6,20,Ticks_Linear_8,100,9999,9999,9999,925589604
84,6,20,Ticks_Linear_8,101,9999,9999,9999,926209128
84,6,20,Ticks_Linear_8,102,9999,9999,9999,926829640
84,6,20,Ticks_Linear_8,103,9999,9999,9999,927449160
84,6,20,Ticks_Linear_8,104,9999,9999,9999,928069724
84,6,20,Ticks_Linear_8,105,9999,9999,9999,928680060
84,6,20,Ticks_Linear_8,106,9999,9999,9999,929289320
84,6,20,Ticks_Linear_8,107,9999,9999,9999,929899580
84,6,20,Ticks_Linear_8,108,9999,9999,9999,930509888
84,6,20,Ticks_Linear_8,109,9999,9999,9999,931119228
84,6,20,Ticks_Linear_8,110,9999,9999,9999,931719232
84,6,20,Ticks_Linear_8,111,9999,9999,9999,932319344
84,6,20,Ticks_Linear_8,112,9999,9999,9999,932919396
84,6,20,Ticks_Linear_8,113,9999,9999,9999,933519476
84,6,20,Ticks_Linear_8,114,9999,9999,9999,934119524
84,6,20,Ticks_Linear_8,115,9999,9999,9999,934709312
84,6,20,Ticks_Linear_8,116,9999,9999,9999,935299128
84,6,20,Ticks_Linear_8,117,9999,9999,9999,935890032
84,6,20,Ticks_Linear_8,118,9999,9999,9999,936479820
84,6,20,Ticks_Linear_8,119,9999,9999,9999,937069636
84,6,20,Ticks_Linear_8,120,9999,9999,9999,937649244
84,6,20,Ticks_Linear_8,121,9999,9999,9999,938229820
84,6,20,Ticks_Linear_8,122,9999,9999,9999,938809432
84,6,20,Ticks_Linear_8,123,9999,9999,9999,939390028
84,6,20,Ticks_Linear_8,124,9999,9999,9999,939969632
84,6,20,Ticks_Linear_8,125,9999,9999,9999,940540032
84,6,20,Ticks_Linear_8,126,9999,9999,9999,941109304
84,6,20,Ticks_Linear_8,127,9999,9999,9999,941679724
84,6,20,Ticks_Linear_8,128,9999,9999,9999,942250040
84,6,20,Ticks_Linear_8,129,9999,9999,9999,942819452
84,6,20,Ticks_Linear_8,130,9999,9999,9999,943379520
84,6,20,Ticks_Linear_8,131,9999,9999,9999,943939656
84,6,20,Ticks_Linear_8,132,9999,9999,9999,944499788
84,6,20,Ticks_Linear_8,133,9999,9999,9999,945059924
84,6,20,Ticks_Linear_8,134,9999,9999,9999,945620060
84,6,20,Ticks_Linear_8,135,9999,9999,9999,946169932
84,6,20,Ticks_Linear_8,136,9999,9999,9999,946719808
84,6,20,Ticks_Linear_8,137,9999,9999,9999,947269756
84,6,20,Ticks_Linear_8,138,9999,9999,9999,947819584
84,6,20,Ticks_Linear_8,139,9999,9999,9999,948369532
84,6,20,Ticks_Linear_8,140,9999,9999,9999,948909148
84,6,20,Ticks_Linear_8,141,9999,9999,9999,949449808
84,6,20,Ticks_Linear_8,142,9999,9999,9999,949989500
84,6,20,Ticks_Linear_8,143,9999,9999,9999,950529116
84,6,20,Ticks_Linear_8,144,9999,9999,9999,951069776
84,6,20,Ticks_Linear_8,145,9999,9999,9999,951599208
84,6,20,Ticks_Linear_8,146,9999,9999,9999,952129616
84,6,20,Ticks_Linear_8,147,9999,9999,9999,952660044
84,6,20,Ticks_Linear_8,148,9999,9999,9999,953189472
84,6,20,Ticks_Linear_8,149,9999,9999,9999,953719876
84,6,20,Ticks_Linear_8,150,9999,9999,9999,954240096
84,6,20,Ticks_Linear_8,151,9999,9999,9999,954769516
84,6,20,Ticks_Linear_8,152,9999,9999,9999,955289668
84,6,20,Ticks_Linear_8,153,9999,9999,9999,955809880
84,6,20,Ticks_Linear_8,154,9999,9999,9999,956330104
84,6,20,Ticks_Linear_8,155,9999,9999,9999,956840060
84,6,20,Ticks_Linear_8,156,9999,9999,9999,957349944
84,6,20,Ticks_Linear_8,157,9999,9999,9999,957859904
84,6,20,Ticks_Linear_8,158,9999,9999,9999,958369864
84,6,20,Ticks_Linear_8,159,9999,9999,9999,958879828
84,6,20,Ticks_Linear_8,160,9999,9999,9999,959379524
84,6,20,Ticks_Linear_8,161,9999,9999,9999,959879224
84,6,20,Ticks_Linear_8,162,9999,9999,9999,960379972
84,6,20,Ticks_Linear_8,163,9999,9999,9999,960879680
84,6,20,Ticks_Linear_8,164,9999,9999,9999,961379456
84,6,20,Ticks_Linear_8,165,9999,9999,9999,961869944
84,6,20,Ticks_Linear_8,166,9999,9999,9999,962359360
84,6,20,Ticks_Linear_8,167,9999,9999,9999,962849848
84,6,20,Ticks_Linear_8,168,9999,9999,9999,963339364
84,6,20,Ticks_Linear_8,169,9999,9999,9999,963829848
84,7,10,Ticks_ISO_T2_5,0,5,42,127,973620504
84,7,10,Ticks_ISO_T2_5,1,5,42,127,974121268
84,7,10,Ticks_ISO_T2_5,2,1,48,17,974133584
84,7,10,Ticks_ISO_T2_5,3,1,48,19,974610748
84,7,10,Ticks_ISO_T2_5,4,5,42,127,974621028
84,7,10,Ticks_ISO_T2_5,5,1,48,21,975071772
84,7,10,Ticks_ISO_T2_5,6,5,42,127,975120724
84,7,10,Ticks_ISO_T2_5,7,1,48,29,975596672
84,7,10,Ticks_ISO_T2_5,8,5,42,127,975620340
84,7,10,Ticks_ISO_T2_5,9,1,48,27,976088364
84,7,10,Ticks_ISO_T2_5,10,5,42,127,976121084
84,7,10,Ticks_ISO_T2_5,11,1,48,29,976605932
84,7,10,Ticks_ISO_T2_5,12,5,42,127,976621076
84,7,10,Ticks_ISO_T2_5,13,1,48,32,977088648
84,7,10,Ticks_ISO_T2_5,14,5,42,127,977120620
84,7,10,Ticks_ISO_T2_5,15,1,48,31,977606588
84,7,10,Ticks_ISO_T2_5,16,5,42,127,977621212
84,7,10,Ticks_ISO_T2_5,17,1,48,32,978078092
84,7,10,Ticks_ISO_T2_5,18,5,42,127,978120984
84,7,10,Ticks_ISO_T2_5,19,1,48,29,978582872
84,7,10,Ticks_ISO_T2_5,20,5,42,127,978620904
84,7,10,Ticks_ISO_T2_5,21,1,48,28,979101868
84,7,10,Ticks_ISO_T2_5,22,5,42,127,979120524
84,7,10,Ticks_ISO_T2_5,23,1,48,31,979604700
84,7,10,Ticks_ISO_T2_5,24,5,42,127,979621264
84,7,10,Ticks_ISO_T2_5,25,1,48,30,980116060
84,7,10,Ticks_ISO_T2_5,26,5,42,127,980120884
84,7,10,Ticks_ISO_T2_5,27,1,48,30,980595412
84,7,10,Ticks_ISO_T2_5,28,5,42,127,980620804
84,7,10,Ticks_ISO_T2_5,29,1,48,27,981089796
84,7,10,Ticks_ISO_T2_5,30,5,42,127,981121320
84,7,10,Ticks_ISO_T2_5,31,1,48,31,981613652
84,7,10,Ticks_ISO_T2_5,32,5,42,127,981621092
84,7,10,Ticks_ISO_T2_5,33,1,48,34,982101084
84,7,10,Ticks_ISO_T2_5,34,5,42,127,982120936
84,7,10,Ticks_ISO_T2_5,35,1,48,30,982613860
84,7,10,Ticks_ISO_T2_5,36,5,42,127,982620556
84,7,10,Ticks_ISO_T2_5,37,5,42,127,983121232
84,7,10,Ticks_ISO_T2_5,38,1,48,34,983124648
84,7,10,Ticks_ISO_T2_5,39,5,42,127,983621048
84,7,10,Ticks_ISO_T2_5,40,1,48,27,983627332
84,7,10,Ticks_ISO_T2_5,41,1,48,34,984098560
84,7,10,Ticks_ISO_T2_5,42,5,42,127,984120812
84,7,10,Ticks_ISO_T2_5,43,1,48,32,984588980
84,7,10,Ticks_ISO_T2_5,44,5,42,127,984621480
84,7,10,Ticks_ISO_T2_5,45,1,48,27,985121552
84,7,10,Ticks_ISO_T2_5,46,5,42,127,985122740
84,7,10,Ticks_ISO_T2_5,47,1,48,35,985598024
84,7,10,Ticks_ISO_T2_5,48,5,42,127,985620940
84,7,10,Ticks_ISO_T2_5,49,1,48,34,986088964
84,7,10,Ticks_ISO_T2_5,50,5,42,127,986120560
84,7,10,Ticks_ISO_T2_5,51,1,48,33,986558516
84,7,10,Ticks_ISO_T2_5,52,5,42,127,986621228
84,7,10,Ticks_ISO_T2_5,53,5,42,127,987120928
84,7,10,Ticks_ISO_T2_5,54,1,48,32,987127040
84,7,10,Ticks_ISO_T2_5,55,5,42,127,987620920
84,7,10,Ticks_ISO_T2_5,56,1,48,35,987627784
84,7,10,Ticks_ISO_T2_5,57,1,48,32,988097764
84,7,10,Ticks_ISO_T2_5,58,5,42,127,988120388
84,7,10,Ticks_ISO_T2_5,59,1,48,32,988594392
84,7,10,Ticks_ISO_T2_5,60,5,42,127,988621204
84,7,10,Ticks_ISO_T2_5,61,1,48,33,989098424
84,7,10,Ticks_ISO_T2_5,62,5,42,127,989120896
84,7,10,Ticks_ISO_T2_5,63,1,48,34,989607764
84,7,10,Ticks_ISO_T2_5,64,5,42,127,989620668
84,7,10,Ticks_ISO_T2_5,65,1,48,33,990120888
84,7,10,Ticks_ISO_T2_5,66,5,42,127,990122380
84,7,10,Ticks_ISO_T2_5,67,1,48,31,990597880
84,7,10,Ticks_ISO_T2_5,68,5,42,127,990620956
84,7,10,Ticks_ISO_T2_5,69,1,48,28,991062644
84,7,10,Ticks_ISO_T2_5,70,5,42,127,991120800
84,7,10,Ticks_ISO_T2_5,71,1,48,34,991586724
84,7,10,Ticks_ISO_T2_5,72,5,42,127,991620416
84,7,10,Ticks_ISO_T2_5,73,1,48,35,992077668
84,7,10,Ticks_ISO_T2_5,74,5,42,127,992121308
84,7,10,Ticks_ISO_T2_5,75,1,48,34,992595536
84,7,10,Ticks_ISO_T2_5,76,5,42,127,992620780
84,7,10,Ticks_ISO_T2_5,77,1,48,33,993095604
84,7,10,Ticks_ISO_T2_5,78,5,42,127,993120696
84,7,10,Ticks_ISO_T2_5,79,1,48,34,993594976
84,7,10,Ticks_ISO_T2_5,80,5,42,127,993621440
84,7,10,Ticks_ISO_T2_5,81,1,48,37,994061616
84,7,10,Ticks_ISO_T2_5,82,5,42,127,994121212
84,7,10,Ticks_ISO_T2_5,83,1,48,29,994592124
84,7,10,Ticks_ISO_T2_5,84,5,42,127,994620880
84,7,10,Ticks_ISO_T2_5,85,1,48,33,995045892
84,7,10,Ticks_ISO_T2_5,86,5,42,127,995120648
84,7,10,Ticks_ISO_T2_5,87,1,48,32,995563460
84,7,10,Ticks_ISO_T2_5,88,5,42,127,995621168
84,7,10,Ticks_ISO_T2_5,89,1,48,31,996067352
84,7,10,Ticks_ISO_T2_5,90,5,42,127,996121012
84,7,10,Ticks_ISO_T2_5,91,1,48,31,996582528
84,7,10,Ticks_ISO_T2_5,92,5,42,127,996620856
84,7,10,Ticks_ISO_T2_5,93,1,48,38,997063892
84,7,10,Ticks_ISO_T2_5,94,5,42,127,997121520
84,7,10,Ticks_ISO_T2_5,95,1,48,32,997593580
84,7,10,Ticks_ISO_T2_5,96,5,42,127,997621068
84,7,10,Ticks_ISO_T2_5,97,1,48,37,998067472
84,7,10,Ticks_ISO_T2_5,98,5,42,127,998120912
84,7,10,Ticks_ISO_T2_5,99,1,48,33,998552956
84,7,10,Ticks_ISO_T2_5,100,5,42,127,998620680
84,7,10,Ticks_ISO_T2_5,101,1,48,30,999034544
84,7,10,Ticks_ISO_T2_5,102,5,42,127,999121124
84,7,10,Ticks_ISO_T2_5,103,1,48,24,999582408
84,7,10,Ticks_ISO_T2_5,104,5,42,127,999620968
84,7,10,Ticks_ISO_T2_5,105,1,48,36,1000055104
84,7,10,Ticks_ISO_T2_5,106,5,42,127,1000120808
84,7,10,Ticks_ISO_T2_5,107,1,48,20,1000122732
84,7,10,Ticks_ISO_T2_5,108,1,48,36,1000546476
84,7,10,Ticks_ISO_T2_5,109,5,42,127,1000621528
84,7,10,Ticks_ISO_T2_5,110,1,48,34,1001071900
84,7,10,Ticks_ISO_T2_5,111,5,42,127,1001121000
84,7,10,Ticks_ISO_T2_5,112,1,48,27,1001597028
84,7,10,Ticks_ISO_T2_5,113,5,42,127,1001620844
84,7,10,Ticks_ISO_T2_5,114,1,48,32,1002095444
84,7,10,Ticks_ISO_T2_5,115,5,42,127,1002120764
84,7,10,Ticks_ISO_T2_5,116,1,48,37,1002603744
84,7,10,Ticks_ISO_T2_5,117,5,42,127,1002621428
84,7,10,Ticks_ISO_T2_5,118,1,48,33,1003099476
84,7,10,Ticks_ISO_T2_5,119,5,42,127,1003120900
84,7,10,Ticks_ISO_T2_5,120,1,48,35,1003602756
84,7,10,Ticks_ISO_T2_5,121,5,42,127,1003620668
84,7,10,Ticks_ISO_T2_5,122,1,48,38,1004091884
84,7,10,Ticks_ISO_T2_5,123,5,42,127,1004120664
84,7,10,Ticks_ISO_T2_5,124,1,48,36,1004587836
84,7,10,Ticks_ISO_T2_5,125,5,42,127,1004621032
84,7,10,Ticks_ISO_T2_5,126,1,48,37,1005094116
84,7,10,Ticks_ISO_T2_5,127,5,42,127,1005120852
84,7,10,Ticks_ISO_T2_5,128,1,48,35,1005600760
84,7,10,Ticks_ISO_T2_5,129,5,42,127,1005620768
84,7,10,Ticks_ISO_T2_5,130,1,48,37,1006085424
84,7,10,Ticks_ISO_T2_5,131,5,42,127,1006121288
84,7,10,Ticks_ISO_T2_5,132,1,48,32,1006597760
84,7,10,Ticks_ISO_T2_5,133,5,42,127,1006620980
84,7,10,Ticks_ISO_T2_5,134,1,48,30,1007064616
84,7,10,Ticks_ISO_T2_5,135,5,42,127,1007120752
84,7,10,Ticks_ISO_T2_5,136,1,48,33,1007613896
84,7,10,Ticks_ISO_T2_5,137,5,42,127,1007620668
84,7,10,Ticks_ISO_T2_5,138,1,48,35,1008086820
84,7,10,Ticks_ISO_T2_5,139,5,42,127,1008121188
84,7,10,Ticks_ISO_T2_5,140,1,48,30,1008556896
84,7,10,Ticks_ISO_T2_5,141,5,42,127,1008620884
84,7,10,Ticks_ISO_T2_5,142,1,48,35,1009088904
84,7,10,Ticks_ISO_T2_5,143,5,42,127,1009120576
84,7,10,Ticks_ISO_T2_5,144,1,48,37,1009593832
84,7,10,Ticks_ISO_T2_5,145,5,42,127,1009621392
84,7,10,Ticks_ISO_T2_5,146,1,48,41,1010065176
84,7,10,Ticks_ISO_T2_5,147,5,42,127,1010121016
84,7,10,Ticks_ISO_T2_5,148,1,48,31,1010573024
84,7,10,Ticks_ISO_T2_5,149,5,42,127,1010620708
84,7,10,Ticks_ISO_T2_5,150,1,48,35,1011092092
84,7,10,Ticks_ISO_T2_5,151,5,42,127,1011120552
84,7,10,Ticks_ISO_T2_5,152,1,48,30,1011606600
84,7,10,Ticks_ISO_T2_5,153,5,42,127,1011621368
84,7,10,Ticks_ISO_T2_5,154,5,42,127,1012120992
84,7,10,Ticks_ISO_T2_5,155,1,48,35,1012123584
84,7,10,Ticks_ISO_T2_5,156,1,48,32,1012605464
84,7,10,Ticks_ISO_T2_5,157,5,42,127,1012620608
84,7,10,Ticks_ISO_T2_5,158,1,48,30,1013098580
84,7,10,Ticks_ISO_T2_5,159,5,42,127,1013121348
84,7,10,Ticks_ISO_T2_5,160,1,48,34,1013605528
84,7,10,Ticks_ISO_T2_5,161,5,42,127,1013621268
84,7,10,Ticks_ISO_T2_5,162,1,48,38,1014094820
84,7,10,Ticks_ISO_T2_5,163,5,42,127,1014120664
84,7,10,Ticks_ISO_T2_5,164,5,42,127,1014620516
84,7,10,Ticks_ISO_T2_5,165,1,48,32,1014626404
84,7,10,Ticks_ISO_T2_5,166,1,48,30,1015098456
84,7,10,Ticks_ISO_T2_5,167,5,42,127,1015121396
84,7,10,Ticks_ISO_T2_5,168,1,48,32,1015570320
84,7,10,Ticks_ISO_T2_5,169,5,42,127,1015621092
84,7,10,Ticks_ISO_T2_5,170,1,48,30,1016081012
84,7,10,Ticks_ISO_T2_5,171,5,42,127,1016120540
84,7,10,Ticks_ISO_T2_5,172,1,48,32,1016589460
84,7,10,Ticks_ISO_T2_5,173,5,42,127,1016621432
84,7,10,Ticks_ISO_T2_5,174,1,48,32,1017061404
84,7,10,Ticks_ISO_T2_5,175,5,42,127,1017121124
84,7,10,Ticks_ISO_T2_5,176,1,48,35,1017583212
84,7,10,Ticks_ISO_T2_5,177,5,42,127,1017620796
84,7,10,Ticks_ISO_T2_5,178,1,48,35,1018069444
84,7,10,Ticks_ISO_T2_5,179,5,42,127,1018120492
84,7,10,Ticks_ISO_T2_5,180,1,48,36,1018554028
84,7,10,Ticks_ISO_T2_5,181,5,42,127,1018621304
84,7,10,Ticks_ISO_T2_5,182,1,48,32,1019084316
84,7,10,Ticks_ISO_T2_5,183,5,42,127,1019120852
84,7,10,Ticks_ISO_T2_5,184,1,48,32,1019582140
84,7,10,Ticks_ISO_T2_5,185,5,42,127,1019620696
84,7,10,Ticks_ISO_T2_5,186,1,48,31,1020102856
84,7,10,Ticks_ISO_T2_5,187,5,42,127,1020120316
84,7,10,Ticks_ISO_T2_5,188,1,48,30,1020587516
84,7,10,Ticks_ISO_T2_5,189,5,42,127,1020621356
84,7,10,Ticks_ISO_T2_5,190,1,48,29,1021060056
84,7,10,Ticks_ISO_T2_5,191,5,42,127,1021120828
84,7,10,Ticks_ISO_T2_5,192,1,48,33,1021579120
84,7,10,Ticks_ISO_T2_5,193,5,42,127,1021620672
84,7,10,Ticks_ISO_T2_5,194,1,48,35,1022057876
84,7,10,Ticks_ISO_T2_5,195,5,42,127,1022121336
84,7,10,Ticks_ISO_T2_5,196,1,48,20,1022533712
84,7,10,Ticks_ISO_T2_5,197,5,42,127,1022621328
84,7,10,Ticks_ISO_T2_5,198,1,48,37,1023042500
84,7,10,Ticks_ISO_T2_5,199,5,42,127,1023120876
84,7,10,Ticks_ISO_T2_5,200,1,48,37,1023544288
84,7,10,Ticks_ISO_T2_5,201,5,42,127,1023620496
84,7,10,Ticks_ISO_T2_5,202,1,48,33,1024045556
84,7,10,Ticks_ISO_T2_5,203,5,42,127,1024121312
84,7,10,Ticks_ISO_T2_5,204,1,48,30,1024554452
84,7,10,Ticks_ISO_T2_5,205,5,42,127,1024621228
84,7,10,Ticks_ISO_T2_5,206,1,48,33,1025041128
84,7,10,Ticks_ISO_T2_5,207,5,42,127,1025120552
84,7,10,Ticks_ISO_T2_5,208,1,48,37,1025557584
84,7,10,Ticks_ISO_T2_5,209,5,42,127,1025621292
84,7,10,Ticks_ISO_T2_5,210,1,48,35,1026085996
84,7,10,Ticks_ISO_T2_5,211,5,42,127,1026121284
84,7,10,Ticks_ISO_T2_5,212,1,48,32,1026615008
84,7,10,Ticks_ISO_T2_5,213,5,42,127,1026620732
84,7,10,Ticks_ISO_T2_5,214,1,48,32,1027109244
84,7,10,Ticks_ISO_T2_5,215,5,42,127,1027120424
84,7,10,Ticks_ISO_T2_5,216,1,48,34,1027602956
84,7,10,Ticks_ISO_T2_5,217,5,42,127,1027621244
84,7,10,Ticks_ISO_T2_5,218,1,48,32,1028120420
84,7,10,Ticks_ISO_T2_5,219,5,42,127,1028121912
84,7,10,Ticks_ISO_T2_5,220,5,42,127,1028620788
84,7,10,Ticks_ISO_T2_5,221,1,48,32,1028632588
84,7,10,Ticks_ISO_T2_5,222,5,42,127,1029121380
84,7,10,Ticks_ISO_T2_5,223,1,48,30,1029127640
84,7,10,Ticks_ISO_T2_5,224,5,42,127,1029621224
84,7,10,Ticks_ISO_T2_5,225,1,48,31,1029672512
84,7,10,Ticks_ISO_T2_5,226,1,48,30,1030086320
84,7,10,Ticks_ISO_T2_5,227,5,42,127,1030120764
84,7,10,Ticks_ISO_T2_5,228,1,48,30,1030614064
84,7,10,Ticks_ISO_T2_5,229,5,42,127,1030620456
84,7,10,Ticks_ISO_T2_5,230,1,48,24,1031094612
84,7,10,Ticks_ISO_T2_5,231,5,42,127,1031121200
84,7,10,Ticks_ISO_T2_5,232,1,48,36,1031590340
84,7,10,Ticks_ISO_T2_5,233,5,42,127,1031621340
84,7,10,Ticks_ISO_T2_5,234,1,48,30,1032093324
84,7,10,Ticks_ISO_T2_5,235,5,42,127,1032120664
84,7,10,Ticks_ISO_T2_5,236,1,48,36,1032566616
84,7,10,Ticks_ISO_T2_5,237,5,42,127,1032621480
84,7,10,Ticks_ISO_T2_5,238,1,48,31,1033094880
84,7,10,Ticks_ISO_T2_5,239,5,42,127,1033121096
84,7,10,Ticks_ISO_T2_5,240,1,48,29,1033571396
84,7,10,Ticks_ISO_T2_5,241,5,42,127,1033621016
84,7,10,Ticks_ISO_T2_5,242,1,48,34,1034087244
84,7,10,Ticks_ISO_T2_5,243,5,42,127,1034120488
84,7,10,Ticks_ISO_T2_5,244,1,48,32,1034580060
84,7,10,Ticks_ISO_T2_5,245,5,42,127,1034621156
84,7,10,Ticks_ISO_T2_5,246,1,48,29,1035064396
84,7,10,Ticks_ISO_T2_5,247,5,42,127,1035121000
84,7,10,Ticks_ISO_T2_5,248,1,48,35,1035573660
84,7,10,Ticks_ISO_T2_5,249,5,42,127,1035620768
84,7,10,Ticks_ISO_T2_5,250,1,48,35,1036120248
84,7,10,Ticks_ISO_T2_5,251,5,42,127,1036121512
84,7,10,Ticks_ISO_T2_5,252,5,42,127,1036621212
84,7,10,Ticks_ISO_T2_5,253,1,48,30,1036638092
84,7,10,Ticks_ISO_T2_5,254,1,48,24,1037090924
84,7,10,Ticks_ISO_T2_5,255,5,42,127,1037120876
84,7,10,Ticks_ISO_T2_5,256,1,48,32,1037575432
84,7,10,Ticks_ISO_T2_5,257,5,42,127,1037620868
84,7,10,Ticks_ISO_T2_5,258,1,48,33,1038057252
84,7,10,Ticks_ISO_T2_5,259,5,42,127,1038121312
84,7,10,Ticks_ISO_T2_5,260,1,48,32,1038552004
84,7,10,Ticks_ISO_T2_5,0,9999,9999,9999,973618292
84,7,10,Ticks_ISO_T2_5,1,9999,9999,9999,974118980
84,7,10,Ticks_ISO_T2_5,2,9999,9999,9999,974618740
84,7,10,Ticks_ISO_T2_5,3,9999,9999,9999,975118436
84,7,10,Ticks_ISO_T2_5,4,9999,9999,9999,975618128
84,7,10,Ticks_ISO_T2_5,5,9999,9999,9999,976118872
84,7,10,Ticks_ISO_T2_5,6,9999,9999,9999,976618564
84,7,10,Ticks_ISO_T2_5,7,9999,9999,9999,977118260
84,7,10,Ticks_ISO_T2_5,8,9999,9999,9999,977619000
84,7,10,Ticks_ISO_T2_5,9,9999,9999,9999,978118768
84,7,10,Ticks_ISO_T2_5,10,9999,9999,9999,978618468
84,7,10,Ticks_ISO_T2_5,11,9999,9999,9999,979118160
84,7,10,Ticks_ISO_T2_5,12,9999,9999,9999,979618900
84,7,10,Ticks_ISO_T2_5,13,9999,9999,9999,980118600
84,7,10,Ticks_ISO_T2_5,14,9999,9999,9999,980618292
84,7,10,Ticks_ISO_T2_5,15,9999,9999,9999,981119032
84,7,10,Ticks_ISO_T2_5,16,9999,9999,9999,981618804
84,7,10,Ticks_ISO_T2_5,17,9999,9999,9999,982118500
84,7,10,Ticks_ISO_T2_5,18,9999,9999,9999,982618192
84,7,10,Ticks_ISO_T2_5,19,9999,9999,9999,983118944
84,7,10,Ticks_ISO_T2_5,20,9999,9999,9999,983618612
84,7,10,Ticks_ISO_T2_5,21,9999,9999,9999,984118376
84,7,10,Ticks_ISO_T2_5,22,9999,9999,9999,984619120
84,7,10,Ticks_ISO_T2_5,23,9999,9999,9999,985118816
84,7,10,Ticks_ISO_T2_5,24,9999,9999,9999,985618504
84,7,10,Ticks_ISO_T2_5,25,9999,9999,9999,986118200
84,7,10,Ticks_ISO_T2_5,26,9999,9999,9999,986618940
84,7,10,Ticks_ISO_T2_5,27,9999,9999,9999,987118644
84,7,10,Ticks_ISO_T2_5,28,9999,9999,9999,987618408
84,7,10,Ticks_ISO_T2_5,29,9999,9999,9999,988118100
84,7,10,Ticks_ISO_T2_5,30,9999,9999,9999,988618840
84,7,10,Ticks_ISO_T2_5,31,9999,9999,9999,989118536
84,7,10,Ticks_ISO_T2_5,32,9999,9999,9999,989618232
84,7,10,Ticks_ISO_T2_5,33,9999,9999,9999,990118980
84,7,10,Ticks_ISO_T2_5,34,9999,9999,9999,990618740
84,7,10,Ticks_ISO_T2_5,35,9999,9999,9999,991118436
84,7,10,Ticks_ISO_T2_5,36,9999,9999,9999,991618132
84,7,10,Ticks_ISO_T2_5,37,9999,9999,9999,992118872
84,7,10,Ticks_ISO_T2_5,38,9999,9999,9999,992618568
84,7,10,Ticks_ISO_T2_5,39,9999,9999,9999,993118260
84,7,10,Ticks_ISO_T2_5,40,9999,9999,9999,993619004
84,7,10,Ticks_ISO_T2_5,41,9999,9999,9999,994118772
84,7,10,Ticks_ISO_T2_5,42,9999,9999,9999,994618444
84,7,10,Ticks_ISO_T2_5,43,9999,9999,9999,995118140
84,7,10,Ticks_ISO_T2_5,44,9999,9999,9999,995618880
84,7,10,Ticks_ISO_T2_5,45,9999,9999,9999,996118648
84,7,10,Ticks_ISO_T2_5,46,9999,9999,9999,996618344
84,7,10,Ticks_ISO_T2_5,47,9999,9999,9999,997119084
84,7,10,Ticks_ISO_T2_5,48,9999,9999,9999,997618780
84,7,10,Ticks_ISO_T2_5,49,9999,9999,9999,998118476
84,7,10,Ticks_ISO_T2_5,50,9999,9999,9999,998618168
84,7,10,Ticks_ISO_T2_5,51,9999,9999,9999,999118912
84,7,10,Ticks_ISO_T2_5,52,9999,9999,9999,999618680
84,7,10,Ticks_ISO_T2_5,53,9999,9999,9999,1000118372
84,7,10,Ticks_ISO_T2_5,54,9999,9999,9999,1000619096
84,7,10,Ticks_ISO_T2_5,55,9999,9999,9999,1001118788
84,7,10,Ticks_ISO_T2_5,56,9999,9999,9999,1001618484
84,7,10,Ticks_ISO_T2_5,57,9999,9999,9999,1002118252
84,7,10,Ticks_ISO_T2_5,58,9999,9999,9999,1002618992
84,7,10,Ticks_ISO_T2_5,59,9999,9999,9999,1003118688
84,7,10,Ticks_ISO_T2_5,60,9999,9999,9999,1003618384
84,7,10,Ticks_ISO_T2_5,61,9999,9999,9999,1004118076
84,7,10,Ticks_ISO_T2_5,62,9999,9999,9999,1004618820
84,7,10,Ticks_ISO_T2_5,63,9999,9999,9999,1005118564
84,7,10,Ticks_ISO_T2_5,64,9999,9999,9999,1005618260
84,7,10,Ticks_ISO_T2_5,65,9999,9999,9999,1006119000
84,7,10,Ticks_ISO_T2_5,66,9999,9999,9999,1006618692
84,7,10,Ticks_ISO_T2_5,67,9999,9999,9999,1007118388
84,7,10,Ticks_ISO_T2_5,68,9999,9999,9999,1007618156
84,7,10,Ticks_ISO_T2_5,69,9999,9999,9999,1008118900
84,7,10,Ticks_ISO_T2_5,70,9999,9999,9999,1008618596
84,7,10,Ticks_ISO_T2_5,71,9999,9999,9999,1009118288
84,7,10,Ticks_ISO_T2_5,72,9999,9999,9999,1009619032
84,7,10,Ticks_ISO_T2_5,73,9999,9999,9999,1010118728
84,7,10,Ticks_ISO_T2_5,74,9999,9999,9999,1010618420
84,7,10,Ticks_ISO_T2_5,75,9999,9999,9999,1011118192
84,7,10,Ticks_ISO_T2_5,76,9999,9999,9999,1011618932
84,7,10,Ticks_ISO_T2_5,77,9999,9999,9999,1012118632
84,7,10,Ticks_ISO_T2_5,78,9999,9999,9999,1012618320
84,7,10,Ticks_ISO_T2_5,79,9999,9999,9999,1013119060
84,7,10,Ticks_ISO_T2_5,80,9999,9999,9999,1013618756
84,7,10,Ticks_ISO_T2_5,81,9999,9999,9999,1014118452
84,7,10,Ticks_ISO_T2_5,82,9999,9999,9999,1014618228
84,7,10,Ticks_ISO_T2_5,83,9999,9999,9999,1015118960
84,7,10,Ticks_ISO_T2_5,84,9999,9999,9999,1015618632
84,7,10,Ticks_ISO_T2_5,85,9999,9999,9999,1016118328
84,7,10,Ticks_ISO_T2_5,86,9999,9999,9999,1016619072
84,7,10,Ticks_ISO_T2_5,87,9999,9999,9999,1017118836
84,7,10,Ticks_ISO_T2_5,88,9999,9999,9999,1017618508
84,7,10,Ticks_ISO_T2_5,89,9999,9999,9999,1018118204
84,7,10,Ticks_ISO_T2_5,90,9999,9999,9999,1018618944
84,7,10,Ticks_ISO_T2_5,91,9999,9999,9999,1019118640
84,7,10,Ticks_ISO_T2_5,92,9999,9999,9999,1019618408
84,7,10,Ticks_ISO_T2_5,93,9999,9999,9999,1020118104
84,7,10,Ticks_ISO_T2_5,94,9999,9999,9999,1020618844
84,7,10,Ticks_ISO_T2_5,95,9999,9999,9999,1021118540
84,7,10,Ticks_ISO_T2_5,96,9999,9999,9999,1021618236
84,7,10,Ticks_ISO_T2_5,97,9999,9999,9999,1022118976
84,7,10,Ticks_ISO_T2_5,98,9999,9999,9999,1022618744
84,7,10,Ticks_ISO_T2_5,99,9999,9999,9999,1023118440
84,7,10,Ticks_ISO_T2_5,100,9999,9999,9999,1023618132
84,7,10,Ticks_ISO_T2_5,101,9999,9999,9999,1024118876
84,7,10,Ticks_ISO_T2_5,102,9999,9999,9999,1024618568
84,7,10,Ticks_ISO_T2_5,103,9999,9999,9999,1025118264
84,7,10,Ticks_ISO_T2_5,104,9999,9999,9999,1025619004
84,7,10,Ticks_ISO_T2_5,105,9999,9999,9999,1026118772
84,7,10,Ticks_ISO_T2_5,106,9999,9999,9999,1026618444
84,7,10,Ticks_ISO_T2_5,107,9999,9999,9999,1027118136
84,7,10,Ticks_ISO_T2_5,108,9999,9999,9999,1027618880
84,7,10,Ticks_ISO_T2_5,109,9999,9999,9999,1028118584
84,7,10,Ticks_ISO_T2_5,110,9999,9999,9999,1028618352
84,7,10,Ticks_ISO_T2_5,111,9999,9999,9999,1029119092
84,7,10,Ticks_ISO_T2_5,112,9999,9999,9999,1029618788
84,7,10,Ticks_ISO_T2_5,113,9999,9999,9999,1030118476
84,7,10,Ticks_ISO_T2_5,114,9999,9999,9999,1030618168
84,7,10,Ticks_ISO_T2_5,115,9999,9999,9999,1031118912
84,7,10,Ticks_ISO_T2_5,116,9999,9999,9999,1031618680
84,7,10,Ticks_ISO_T2_5,117,9999,9999,9999,1032118376
84,7,10,Ticks_ISO_T2_5,118,9999,9999,9999,1032619120
84,7,10,Ticks_ISO_T2_5,119,9999,9999,9999,1033118812
84,7,10,Ticks_ISO_T2_5,120,9999,9999,9999,1033618504
84,7,10,Ticks_ISO_T2_5,121,9999,9999,9999,1034118200
84,7,10,Ticks_ISO_T2_5,122,9999,9999,9999,1034618944
84,7,10,Ticks_ISO_T2_5,123,9999,9999,9999,1035118712
84,7,10,Ticks_ISO_T2_5,124,9999,9999,9999,1035618408
84,7,10,Ticks_ISO_T2_5,125,9999,9999,9999,1036118108
84,7,10,Ticks_ISO_T2_5,126,9999,9999,9999,1036618852
84,7,10,Ticks_ISO_T2_5,127,9999,9999,9999,1037118516
84,7,10,Ticks_ISO_T2_5,128,9999,9999,9999,1037618284
84,7,10,Ticks_ISO_T2_5,129,9999,9999,9999,1038119024
84,8,9,Ticks_ISO_T2_8,0,5,42,127,1049479636
84,8,9,Ticks_ISO_T2_8,1,5,42,127,1050280440
84,8,9,Ticks_ISO_T2_8,2,1,48,23,1051042528
84,8,9,Ticks_ISO_T2_8,3,5,42,127,1051080188
84,8,9,Ticks_ISO_T2_8,4,1,48,30,1051857004
84,8,9,Ticks_ISO_T2_8,5,5,42,127,1051879920
84,8,9,Ticks_ISO_T2_8,6,5,42,127,1052679588
84,8,9,Ticks_ISO_T2_8,7,1,48,30,1052682704
84,8,9,Ticks_ISO_T2_8,8,5,42,127,1053480292
84,8,9,Ticks_ISO_T2_8,9,1,48,32,1053508792
84,8,9,Ticks_ISO_T2_8,10,5,42,127,1054279900
84,8,9,Ticks_ISO_T2_8,11,1,48,30,1054304636
84,8,9,Ticks_ISO_T2_8,12,1,48,25,1055076296
84,8,9,Ticks_ISO_T2_8,13,5,42,127,1055079776
84,8,9,Ticks_ISO_T2_8,14,1,48,28,1055878076
84,8,9,Ticks_ISO_T2_8,15,5,42,127,1055879660
84,8,9,Ticks_ISO_T2_8,16,1,48,28,1056661932
84,8,9,Ticks_ISO_T2_8,17,5,42,127,1056680292
84,8,9,Ticks_ISO_T2_8,18,1,48,26,1057450448
84,8,9,Ticks_ISO_T2_8,19,5,42,127,1057479952
84,8,9,Ticks_ISO_T2_8,20,1,48,28,1058278788
84,8,9,Ticks_ISO_T2_8,21,5,42,127,1058280428
84,8,9,Ticks_ISO_T2_8,22,1,48,29,1059069880
84,8,9,Ticks_ISO_T2_8,23,5,42,127,1059079716
84,8,9,Ticks_ISO_T2_8,24,1,48,30,1059858320
84,8,9,Ticks_ISO_T2_8,25,5,42,127,1059880496
84,8,9,Ticks_ISO_T2_8,26,5,42,127,1060680040
84,8,9,Ticks_ISO_T2_8,27,1,48,32,1060697592
84,8,9,Ticks_ISO_T2_8,28,5,42,127,1061479844
84,8,9,Ticks_ISO_T2_8,29,1,48,30,1061480812
84,8,9,Ticks_ISO_T2_8,30,1,48,31,1062243636
84,8,9,Ticks_ISO_T2_8,31,5,42,127,1062279500
84,8,9,Ticks_ISO_T2_8,32,1,48,33,1063042020
84,8,9,Ticks_ISO_T2_8,33,5,42,127,1063080428
84,8,9,Ticks_ISO_T2_8,34,1,48,37,1063843624
84,8,9,Ticks_ISO_T2_8,35,5,42,127,1063880088
84,8,9,Ticks_ISO_T2_8,36,1,48,29,1064618152
84,8,9,Ticks_ISO_T2_8,37,5,42,127,1064679820
84,8,9,Ticks_ISO_T2_8,38,1,48,29,1065432472
84,8,9,Ticks_ISO_T2_8,39,5,42,127,1065479480
84,8,9,Ticks_ISO_T2_8,40,5,42,127,1066280416
84,8,9,Ticks_ISO_T2_8,41,1,48,34,1066317144
84,8,9,Ticks_ISO_T2_8,42,1,48,31,1067077216
84,8,9,Ticks_ISO_T2_8,43,5,42,127,1067079944
84,8,9,Ticks_ISO_T2_8,44,1,48,30,1067853388
84,8,9,Ticks_ISO_T2_8,45,5,42,127,1067879752
84,8,9,Ticks_ISO_T2_8,46,1,48,29,1068642428
84,8,9,Ticks_ISO_T2_8,47,5,42,127,1068679412
84,8,9,Ticks_ISO_T2_8,48,5,42,127,1069480272
84,8,9,Ticks_ISO_T2_8,49,1,48,32,1069503660
84,8,9,Ticks_ISO_T2_8,50,1,48,30,1070268672
84,8,9,Ticks_ISO_T2_8,51,5,42,127,1070280148
84,8,9,Ticks_ISO_T2_8,52,1,48,17,1070992780
84,8,9,Ticks_ISO_T2_8,53,5,42,127,1071079732
84,8,9,Ticks_ISO_T2_8,54,1,48,26,1071868960
84,8,9,Ticks_ISO_T2_8,55,5,42,127,1071879388
84,8,9,Ticks_ISO_T2_8,56,1,48,25,1072654252
84,8,9,Ticks_ISO_T2_8,57,5,42,127,1072680392
84,8,9,Ticks_ISO_T2_8,58,1,48,32,1073433340
84,8,9,Ticks_ISO_T2_8,59,5,42,127,1073480148
84,8,9,Ticks_ISO_T2_8,60,1,48,25,1074205100
84,8,9,Ticks_ISO_T2_8,61,5,42,127,1074279808
84,8,9,Ticks_ISO_T2_8,62,1,48,25,1075067168
84,8,9,Ticks_ISO_T2_8,63,5,42,127,1075079540
84,8,9,Ticks_ISO_T2_8,64,5,42,127,1075880404
84,8,9,Ticks_ISO_T2_8,65,1,48,34,1075890852
84,8,9,Ticks_ISO_T2_8,66,1,48,31,1076654292
84,8,9,Ticks_ISO_T2_8,67,5,42,127,1076680128
84,8,9,Ticks_ISO_T2_8,68,1,48,30,1077398076
84,8,9,Ticks_ISO_T2_8,69,5,42,127,1077479640
84,8,9,Ticks_ISO_T2_8,70,1,48,27,1078244408
84,8,9,Ticks_ISO_T2_8,71,5,42,127,1078279596
84,8,9,Ticks_ISO_T2_8,72,1,48,23,1079053936
84,8,9,Ticks_ISO_T2_8,73,5,42,127,1079080224
84,8,9,Ticks_ISO_T2_8,74,1,48,19,1079850900
84,8,9,Ticks_ISO_T2_8,75,5,42,127,1079880280
84,8,9,Ticks_ISO_T2_8,76,1,48,27,1080654324
84,8,9,Ticks_ISO_T2_8,77,5,42,127,1080679644
84,8,9,Ticks_ISO_T2_8,78,1,48,28,1081470664
84,8,9,Ticks_ISO_T2_8,79,5,42,127,1081479600
84,8,9,Ticks_ISO_T2_8,80,5,42,127,1082280312
84,8,9,Ticks_ISO_T2_8,81,1,48,25,1082299516
84,8,9,Ticks_ISO_T2_8,82,1,48,24,1083055768
84,8,9,Ticks_ISO_T2_8,83,5,42,127,1083080188
84,8,9,Ticks_ISO_T2_8,84,1,48,30,1083845104
84,8,9,Ticks_ISO_T2_8,85,5,42,127,1083879920
84,8,9,Ticks_ISO_T2_8,86,1,48,30,1084636084
84,8,9,Ticks_ISO_T2_8,87,5,42,127,1084679432
84,8,9,Ticks_ISO_T2_8,88,1,48,25,1085414580
84,8,9,Ticks_ISO_T2_8,89,5,42,127,1085480284
84,8,9,Ticks_ISO_T2_8,90,1,48,36,1086213192
84,8,9,Ticks_ISO_T2_8,91,5,42,127,1086280120
84,8,9,Ticks_ISO_T2_8,92,1,48,32,1087046232
84,8,9,Ticks_ISO_T2_8,93,5,42,127,1087080076
84,8,9,Ticks_ISO_T2_8,94,5,42,127,1087879516
84,8,9,Ticks_ISO_T2_8,95,1,48,36,1087881076
84,8,9,Ticks_ISO_T2_8,96,5,42,127,1088680300
84,8,9,Ticks_ISO_T2_8,97,1,48,24,1088697180
84,8,9,Ticks_ISO_T2_8,98,5,42,127,1089480032
84,8,9,Ticks_ISO_T2_8,99,1,48,25,1089481516
84,8,9,Ticks_ISO_T2_8,100,5,42,127,1090279988
84,8,9,Ticks_ISO_T2_8,101,1,48,26,1090301580
84,8,9,Ticks_ISO_T2_8,102,1,48,28,1091054700
84,8,9,Ticks_ISO_T2_8,103,5,42,127,1091079492
84,8,9,Ticks_ISO_T2_8,104,1,48,30,1091866100
84,8,9,Ticks_ISO_T2_8,105,5,42,127,1091880272
84,8,9,Ticks_ISO_T2_8,106,1,48,31,1092638532
84,8,9,Ticks_ISO_T2_8,107,5,42,127,1092680032
84,8,9,Ticks_ISO_T2_8,108,1,48,30,1093419792
84,8,9,Ticks_ISO_T2_8,109,5,42,127,1093480060
84,8,9,Ticks_ISO_T2_8,110,1,48,30,1094204264
84,8,9,Ticks_ISO_T2_8,111,5,42,127,1094279496
84,8,9,Ticks_ISO_T2_8,112,1,48,35,1095028932
84,8,9,Ticks_ISO_T2_8,113,5,42,127,1095080200
84,8,9,Ticks_ISO_T2_8,114,1,48,35,1095869732
84,8,9,Ticks_ISO_T2_8,115,5,42,127,1095879936
84,8,9,Ticks_ISO_T2_8,116,5,42,127,1096679752
84,8,9,Ticks_ISO_T2_8,117,1,48,31,1096688624
84,8,9,Ticks_ISO_T2_8,118,5,42,127,1097479484
84,8,9,Ticks_ISO_T2_8,119,1,48,37,1097505560
84,8,9,Ticks_ISO_T2_8,120,1,48,31,1098268256
84,8,9,Ticks_ISO_T2_8,121,5,42,127,1098280256
84,8,9,Ticks_ISO_T2_8,122,1,48,32,1099033504
84,8,9,Ticks_ISO_T2_8,123,5,42,127,1099080012
84,8,9,Ticks_ISO_T2_8,124,1,48,27,1099837200
84,8,9,Ticks_ISO_T2_8,125,5,42,127,1099879896
84,8,9,Ticks_ISO_T2_8,126,5,42,127,1100679860
84,8,9,Ticks_ISO_T2_8,127,1,48,34,1100698912
84,8,9,Ticks_ISO_T2_8,128,5,42,127,1101480192
84,8,9,Ticks_ISO_T2_8,129,1,48,29,1101495428
84,8,9,Ticks_ISO_T2_8,130,1,48,35,1102276440
84,8,9,Ticks_ISO_T2_8,131,5,42,127,1102280216
84,8,9,Ticks_ISO_T2_8,132,5,42,127,1103079736
84,8,9,Ticks_ISO_T2_8,133,1,48,33,1103115160
84,8,9,Ticks_ISO_T2_8,134,1,48,30,1103876436
84,8,9,Ticks_ISO_T2_8,135,5,42,127,1103879608
84,8,9,Ticks_ISO_T2_8,136,1,48,28,1104666896
84,8,9,Ticks_ISO_T2_8,137,5,42,127,1104680316
84,8,9,Ticks_ISO_T2_8,138,1,48,35,1105461616
84,8,9,Ticks_ISO_T2_8,139,5,42,127,1105479924
84,8,9,Ticks_ISO_T2_8,140,5,42,127,1106279740
84,8,9,Ticks_ISO_T2_8,141,1,48,35,1106286520
84,8,9,Ticks_ISO_T2_8,142,1,48,34,1107042856
84,8,9,Ticks_ISO_T2_8,143,5,42,127,1107079616
84,8,9,Ticks_ISO_T2_8,144,1,48,36,1107868392
84,8,9,Ticks_ISO_T2_8,145,5,42,127,1107880396
84,8,9,Ticks_ISO_T2_8,146,1,48,28,1108653616
84,8,9,Ticks_ISO_T2_8,147,5,42,127,1108679904
84,8,9,Ticks_ISO_T2_8,148,1,48,28,1109424624
84,8,9,Ticks_ISO_T2_8,149,5,42,127,1109479784
84,8,9,Ticks_ISO_T2_8,150,1,48,29,1110230492
84,8,9,Ticks_ISO_T2_8,151,5,42,127,1110279520
84,8,9,Ticks_ISO_T2_8,152,1,48,31,1111072484
84,8,9,Ticks_ISO_T2_8,153,5,42,127,1111080520
84,8,9,Ticks_ISO_T2_8,154,5,42,127,1111879916
84,8,9,Ticks_ISO_T2_8,155,1,48,27,1111895076
84,8,9,Ticks_ISO_T2_8,156,5,42,127,1112679796
84,8,9,Ticks_ISO_T2_8,157,1,48,27,1112731012
84,8,9,Ticks_ISO_T2_8,158,1,48,27,1113464676
84,8,9,Ticks_ISO_T2_8,159,5,42,127,1113479448
84,8,9,Ticks_ISO_T2_8,160,1,48,21,1114210784
84,8,9,Ticks_ISO_T2_8,161,5,42,127,1114280528
84,8,9,Ticks_ISO_T2_8,162,1,48,29,1115066088
84,8,9,Ticks_ISO_T2_8,163,5,42,127,1115080108
84,8,9,Ticks_ISO_T2_8,164,5,42,127,1115879776
84,8,9,Ticks_ISO_T2_8,165,1,48,29,1115886108
84,8,9,Ticks_ISO_T2_8,166,5,42,127,1116679584
84,8,9,Ticks_ISO_T2_8,167,1,48,29,1116690928
84,8,9,Ticks_ISO_T2_8,168,5,42,127,1117480512
84,8,9,Ticks_ISO_T2_8,169,1,48,29,1117525392
84,8,9,Ticks_ISO_T2_8,170,5,42,127,1118279972
84,8,9,Ticks_ISO_T2_8,171,1,48,29,1118312784
84,8,9,Ticks_ISO_T2_8,172,5,42,127,1119079928
84,8,9,Ticks_ISO_T2_8,173,1,48,24,1119089328
84,8,9,Ticks_ISO_T2_8,174,1,48,26,1119874756
84,8,9,Ticks_ISO_T2_8,175,5,42,127,1119879508
84,8,9,Ticks_ISO_T2_8,176,1,48,28,1120658112
84,8,9,Ticks_ISO_T2_8,177,5,42,127,1120680288
84,8,9,Ticks_ISO_T2_8,178,1,48,26,1121412220
84,8,9,Ticks_ISO_T2_8,179,5,42,127,1121480316
84,8,9,Ticks_ISO_T2_8,180,1,48,24,1122240976
84,8,9,Ticks_ISO_T2_8,181,5,42,127,1122279752
84,8,9,Ticks_ISO_T2_8,182,5,42,127,1123079492
84,8,9,Ticks_ISO_T2_8,183,1,48,29,1123086728
84,8,9,Ticks_ISO_T2_8,184,5,42,127,1123880276
84,8,9,Ticks_ISO_T2_8,185,1,48,27,1123899924
84,8,9,Ticks_ISO_T2_8,186,1,48,27,1124674080
84,8,9,Ticks_ISO_T2_8,187,5,42,127,1124680324
84,8,9,Ticks_ISO_T2_8,188,5,42,127,1125479692
84,8,9,Ticks_ISO_T2_8,189,1,48,27,1125481104
84,8,9,Ticks_ISO_T2_8,190,1,48,29,1126267420
84,8,9,Ticks_ISO_T2_8,191,5,42,127,1126279420
84,8,9,Ticks_ISO_T2_8,192,1,48,27,1127066176
84,8,9,Ticks_ISO_T2_8,193,5,42,127,1127080276
84,8,9,Ticks_ISO_T2_8,194,1,48,29,1127831584
84,8,9,Ticks_ISO_T2_8,195,5,42,127,1127880232
84,8,9,Ticks_ISO_T2_8,196,1,48,29,1128666620
84,8,9,Ticks_ISO_T2_8,197,5,42,127,1128679668
84,8,9,Ticks_ISO_T2_8,198,1,48,25,1129457676
84,8,9,Ticks_ISO_T2_8,199,5,42,127,1129479548
84,8,9,Ticks_ISO_T2_8,200,1,48,27,1130250304
84,8,9,Ticks_ISO_T2_8,201,5,42,127,1130280256
84,8,9,Ticks_ISO_T2_8,202,1,48,33,1131035520
84,8,9,Ticks_ISO_T2_8,203,5,42,127,1131080012
84,8,9,Ticks_ISO_T2_8,204,1,48,27,1131842616
84,8,9,Ticks_ISO_T2_8,205,5,42,127,1131879672
84,8,9,Ticks_ISO_T2_8,206,1,48,31,1132657684
84,8,9,Ticks_ISO_T2_8,207,5,42,127,1132679556
84,8,9,Ticks_ISO_T2_8,208,1,48,29,1133458612
84,8,9,Ticks_ISO_T2_8,209,5,42,127,1133480260
84,8,9,Ticks_ISO_T2_8,210,5,42,127,1134280000
84,8,9,Ticks_ISO_T2_8,211,1,48,31,1134298824
84,8,9,Ticks_ISO_T2_8,212,1,48,23,1135065632
84,8,9,Ticks_ISO_T2_8,213,5,42,127,1135079728
84,8,9,Ticks_ISO_T2_8,214,1,48,24,1135875388
84,8,9,Ticks_ISO_T2_8,215,5,42,127,1135879612
84,8,9,Ticks_ISO_T2_8,216,1,48,19,1136649988
84,8,9,Ticks_ISO_T2_8,217,5,42,127,1136680244
84,8,9,Ticks_ISO_T2_8,218,1,48,29,1137446432
84,8,9,Ticks_ISO_T2_8,219,5,42,127,1137480152
84,8,9,Ticks_ISO_T2_8,220,1,48,24,1138199340
84,8,9,Ticks_ISO_T2_8,221,5,42,127,1138279884
84,8,9,Ticks_ISO_T2_8,222,5,42,127,1139079476
84,8,9,Ticks_ISO_T2_8,223,1,48,19,1139088504
84,8,9,Ticks_ISO_T2_8,224,5,42,127,1139880328
84,8,9,Ticks_ISO_T2_8,225,1,48,22,1139899980
84,8,9,Ticks_ISO_T2_8,226,1,48,25,1140650032
84,8,9,Ticks_ISO_T2_8,227,5,42,127,1140679984
84,8,9,Ticks_ISO_T2_8,228,1,48,26,1141424780
84,8,9,Ticks_ISO_T2_8,229,5,42,127,1141479940
84,8,9,Ticks_ISO_T2_8,230,1,48,29,1142231544
84,8,9,Ticks_ISO_T2_8,231,5,42,127,1142279672
84,8,9,Ticks_ISO_T2_8,232,1,48,29,1143022604
84,8,9,Ticks_ISO_T2_8,233,5,42,127,1143080228
84,8,9,Ticks_ISO_T2_8,234,1,48,29,1143838716
84,8,9,Ticks_ISO_T2_8,235,5,42,127,1143880140
84,8,9,Ticks_ISO_T2_8,236,1,48,29,1144625956
84,8,9,Ticks_ISO_T2_8,237,5,42,127,1144679872
84,8,9,Ticks_ISO_T2_8,0,9999,9999,9999,1049477200
84,8,9,Ticks_ISO_T2_8,1,9999,9999,9999,1050278000
84,8,9,Ticks_ISO_T2_8,2,9999,9999,9999,1051077748
84,8,9,Ticks_ISO_T2_8,3,9999,9999,9999,1051877484
84,8,9,Ticks_ISO_T2_8,4,9999,9999,9999,1052677224
84,8,9,Ticks_ISO_T2_8,5,9999,9999,9999,1053478000
84,8,9,Ticks_ISO_T2_8,6,9999,9999,9999,1054277688
84,8,9,Ticks_ISO_T2_8,7,9999,9999,9999,1055077488
84,8,9,Ticks_ISO_T2_8,8,9999,9999,9999,1055877228
84,8,9,Ticks_ISO_T2_8,9,9999,9999,9999,1056678004
84,8,9,Ticks_ISO_T2_8,10,9999,9999,9999,1057477736
84,8,9,Ticks_ISO_T2_8,11,9999,9999,9999,1058277476
84,8,9,Ticks_ISO_T2_8,12,9999,9999,9999,1059077204
84,8,9,Ticks_ISO_T2_8,13,9999,9999,9999,1059877984
84,8,9,Ticks_ISO_T2_8,14,9999,9999,9999,1060677748
84,8,9,Ticks_ISO_T2_8,15,9999,9999,9999,1061477480
84,8,9,Ticks_ISO_T2_8,16,9999,9999,9999,1062277212
84,8,9,Ticks_ISO_T2_8,17,9999,9999,9999,1063077988
84,8,9,Ticks_ISO_T2_8,18,9999,9999,9999,1063877724
84,8,9,Ticks_ISO_T2_8,19,9999,9999,9999,1064677456
84,8,9,Ticks_ISO_T2_8,20,9999,9999,9999,1065477192
84,8,9,Ticks_ISO_T2_8,21,9999,9999,9999,1066277976
84,8,9,Ticks_ISO_T2_8,22,9999,9999,9999,1067077728
84,8,9,Ticks_ISO_T2_8,23,9999,9999,9999,1067877460
84,8,9,Ticks_ISO_T2_8,24,9999,9999,9999,1068677196
84,8,9,Ticks_ISO_T2_8,25,9999,9999,9999,1069477980
84,8,9,Ticks_ISO_T2_8,26,9999,9999,9999,1070277708
84,8,9,Ticks_ISO_T2_8,27,9999,9999,9999,1071077440
84,8,9,Ticks_ISO_T2_8,28,9999,9999,9999,1071877176
84,8,9,Ticks_ISO_T2_8,29,9999,9999,9999,1072677956
84,8,9,Ticks_ISO_T2_8,30,9999,9999,9999,1073477712
84,8,9,Ticks_ISO_T2_8,31,9999,9999,9999,1074277444
84,8,9,Ticks_ISO_T2_8,32,9999,9999,9999,1075077176
84,8,9,Ticks_ISO_T2_8,33,9999,9999,9999,1075877964
84,8,9,Ticks_ISO_T2_8,34,9999,9999,9999,1076677692
84,8,9,Ticks_ISO_T2_8,35,9999,9999,9999,1077477424
84,8,9,Ticks_ISO_T2_8,36,9999,9999,9999,1078277232
84,8,9,Ticks_ISO_T2_8,37,9999,9999,9999,1079077936
84,8,9,Ticks_ISO_T2_8,38,9999,9999,9999,1079877696
84,8,9,Ticks_ISO_T2_8,39,9999,9999,9999,1080677428
84,8,9,Ticks_ISO_T2_8,40,9999,9999,9999,1081477236
84,8,9,Ticks_ISO_T2_8,41,9999,9999,9999,1082277948
84,8,9,Ticks_ISO_T2_8,42,9999,9999,9999,1083077748
84,8,9,Ticks_ISO_T2_8,43,9999,9999,9999,1083877484
84,8,9,Ticks_ISO_T2_8,44,9999,9999,9999,1084677216
84,8,9,Ticks_ISO_T2_8,45,9999,9999,9999,1085477996
84,8,9,Ticks_ISO_T2_8,46,9999,9999,9999,1086277680
84,8,9,Ticks_ISO_T2_8,47,9999,9999,9999,1087077488
84,8,9,Ticks_ISO_T2_8,48,9999,9999,9999,1087877228
84,8,9,Ticks_ISO_T2_8,49,9999,9999,9999,1088677936
84,8,9,Ticks_ISO_T2_8,50,9999,9999,9999,1089477744
84,8,9,Ticks_ISO_T2_8,51,9999,9999,9999,1090277476
84,8,9,Ticks_ISO_T2_8,52,9999,9999,9999,1091077200
84,8,9,Ticks_ISO_T2_8,53,9999,9999,9999,1091877984
84,8,9,Ticks_ISO_T2_8,54,9999,9999,9999,1092677740
84,8,9,Ticks_ISO_T2_8,55,9999,9999,9999,1093477472
84,8,9,Ticks_ISO_T2_8,56,9999,9999,9999,1094277208
84,8,9,Ticks_ISO_T2_8,57,9999,9999,9999,1095077988
84,8,9,Ticks_ISO_T2_8,58,9999,9999,9999,1095877720
84,8,9,Ticks_ISO_T2_8,59,9999,9999,9999,1096677464
84,8,9,Ticks_ISO_T2_8,60,9999,9999,9999,1097477196
84,8,9,Ticks_ISO_T2_8,61,9999,9999,9999,1098277968
84,8,9,Ticks_ISO_T2_8,62,9999,9999,9999,1099077724
84,8,9,Ticks_ISO_T2_8,63,9999,9999,9999,1099877460
84,8,9,Ticks_ISO_T2_8,64,9999,9999,9999,1100677200
84,8,9,Ticks_ISO_T2_8,65,9999,9999,9999,1101477976
84,8,9,Ticks_ISO_T2_8,66,9999,9999,9999,1102277704
84,8,9,Ticks_ISO_T2_8,67,9999,9999,9999,1103077444
84,8,9,Ticks_ISO_T2_8,68,9999,9999,9999,1103877172
84,8,9,Ticks_ISO_T2_8,69,9999,9999,9999,1104677952
84,8,9,Ticks_ISO_T2_8,70,9999,9999,9999,1105477708
84,8,9,Ticks_ISO_T2_8,71,9999,9999,9999,1106277452
84,8,9,Ticks_ISO_T2_8,72,9999,9999,9999,1107077176
84,8,9,Ticks_ISO_T2_8,73,9999,9999,9999,1107877956
84,8,9,Ticks_ISO_T2_8,74,9999,9999,9999,1108677692
84,8,9,Ticks_ISO_T2_8,75,9999,9999,9999,1109477424
84,8,9,Ticks_ISO_T2_8,76,9999,9999,9999,1110277232
84,8,9,Ticks_ISO_T2_8,77,9999,9999,9999,1111077936
84,8,9,Ticks_ISO_T2_8,78,9999,9999,9999,1111877700
84,8,9,Ticks_ISO_T2_8,79,9999,9999,9999,1112677432
84,8,9,Ticks_ISO_T2_8,80,9999,9999,9999,1113477236
84,8,9,Ticks_ISO_T2_8,81,9999,9999,9999,1114277940
84,8,9,Ticks_ISO_T2_8,82,9999,9999,9999,1115077748
84,8,9,Ticks_ISO_T2_8,83,9999,9999,9999,1115877488
84,8,9,Ticks_ISO_T2_8,84,9999,9999,9999,1116677220
84,8,9,Ticks_ISO_T2_8,85,9999,9999,9999,1117477996
84,8,9,Ticks_ISO_T2_8,86,9999,9999,9999,1118277684
84,8,9,Ticks_ISO_T2_8,87,9999,9999,9999,1119077488
84,8,9,Ticks_ISO_T2_8,88,9999,9999,9999,1119877216
84,8,9,Ticks_ISO_T2_8,89,9999,9999,9999,1120677996
84,8,9,Ticks_ISO_T2_8,90,9999,9999,9999,1121477732
84,8,9,Ticks_ISO_T2_8,91,9999,9999,9999,1122277464
84,8,9,Ticks_ISO_T2_8,92,9999,9999,9999,1123077204
84,8,9,Ticks_ISO_T2_8,93,9999,9999,9999,1123877984
84,8,9,Ticks_ISO_T2_8,94,9999,9999,9999,1124677736
84,8,9,Ticks_ISO_T2_8,95,9999,9999,9999,1125477476
84,8,9,Ticks_ISO_T2_8,96,9999,9999,9999,1126277208
84,8,9,Ticks_ISO_T2_8,97,9999,9999,9999,1127077984
84,8,9,Ticks_ISO_T2_8,98,9999,9999,9999,1127877720
84,8,9,Ticks_ISO_T2_8,99,9999,9999,9999,1128677452
84,8,9,Ticks_ISO_T2_8,100,9999,9999,9999,1129477188
84,8,9,Ticks_ISO_T2_8,101,9999,9999,9999,1130277968
84,8,9,Ticks_ISO_T2_8,102,9999,9999,9999,1131077724
84,8,9,Ticks_ISO_T2_8,103,9999,9999,9999,1131877460
84,8,9,Ticks_ISO_T2_8,104,9999,9999,9999,1132677192
84,8,9,Ticks_ISO_T2_8,105,9999,9999,9999,1133477972
84,8,9,Ticks_ISO_T2_8,106,9999,9999,9999,1134277712
84,8,9,Ticks_ISO_T2_8,107,9999,9999,9999,1135077440
84,8,9,Ticks_ISO_T2_8,108,9999,9999,9999,1135877172
84,8,9,Ticks_ISO_T2_8,109,9999,9999,9999,1136677952
84,8,9,Ticks_ISO_T2_8,110,9999,9999,9999,1137477712
84,8,9,Ticks_ISO_T2_8,111,9999,9999,9999,1138277448
84,8,9,Ticks_ISO_T2_8,112,9999,9999,9999,1139077184
84,8,9,Ticks_ISO_T2_8,113,9999,9999,9999,1139877968
84,8,9,Ticks_ISO_T2_8,114,9999,9999,9999,1140677692
84,8,9,Ticks_ISO_T2_8,115,9999,9999,9999,1141477428
84,8,9,Ticks_ISO_T2_8,116,9999,9999,9999,1142277236
84,8,9,Ticks_ISO_T2_8,117,9999,9999,9999,1143077940
84,8,9,Ticks_ISO_T2_8,118,9999,9999,9999,1143877700
84,8,9,Ticks_ISO_T2_8,119,9999,9999,9999,1144677436
84,9,23,Ticks_Phase_5,0,5,42,127,1154189796
84,9,23,Ticks_Phase_5,1,5,42,127,1154690480
84,9,23,Ticks_Phase_5,2,1,48,18,1155186176
84,9,23,Ticks_Phase_5,3,5,42,127,1155200368
84,9,23,Ticks_Phase_5,4,1,48,20,1155674484
84,9,23,Ticks_Phase_5,5,5,42,127,1155700056
84,9,23,Ticks_Phase_5,6,1,48,20,1156161896
84,9,23,Ticks_Phase_5,7,5,42,127,1156199744
84,9,23,Ticks_Phase_5,8,1,48,23,1156684272
84,9,23,Ticks_Phase_5,9,5,42,127,1156699580
84,9,23,Ticks_Phase_5,10,5,42,127,1157200320
84,9,23,Ticks_Phase_5,11,1,48,28,1157206656
84,9,23,Ticks_Phase_5,12,5,42,127,1157699936
84,9,23,Ticks_Phase_5,13,1,48,25,1157700900
84,9,23,Ticks_Phase_5,14,1,48,17,1158192068
84,9,23,Ticks_Phase_5,15,5,42,127,1158199592
84,9,23,Ticks_Phase_5,16,1,48,23,1158692580
84,9,23,Ticks_Phase_5,17,5,42,127,1158700476
84,9,23,Ticks_Phase_5,18,5,42,127,1159200244
84,9,23,Ticks_Phase_5,19,1,48,24,1159205384
84,9,23,Ticks_Phase_5,20,1,48,19,1159692780
84,9,23,Ticks_Phase_5,21,5,42,127,1159699704
84,9,23,Ticks_Phase_5,22,1,48,21,1160186692
84,9,23,Ticks_Phase_5,23,5,42,127,1160199612
84,9,23,Ticks_Phase_5,24,5,42,127,1160700132
84,9,23,Ticks_Phase_5,25,1,48,24,1160716352
84,9,23,Ticks_Phase_5,26,1,48,25,1161179936
84,9,23,Ticks_Phase_5,27,5,42,127,1161199960
84,9,23,Ticks_Phase_5,28,5,42,127,1161699808
84,9,23,Ticks_Phase_5,29,1,48,23,1161700696
84,9,23,Ticks_Phase_5,30,1,48,22,1162167488
84,9,23,Ticks_Phase_5,31,5,42,127,1162200608
84,9,23,Ticks_Phase_5,32,1,48,25,1162694948
84,9,23,Ticks_Phase_5,33,5,42,127,1162710480
84,9,23,Ticks_Phase_5,34,1,48,19,1163182508
84,9,23,Ticks_Phase_5,35,5,42,127,1163209948
84,9,23,Ticks_Phase_5,36,5,42,127,1163709864
84,9,23,Ticks_Phase_5,37,1,48,26,1163714028
84,9,23,Ticks_Phase_5,38,5,42,127,1164209552
84,9,23,Ticks_Phase_5,39,1,48,26,1164214616
84,9,23,Ticks_Phase_5,40,1,48,23,1164683592
84,9,23,Ticks_Phase_5,41,5,42,127,1164710356
84,9,23,Ticks_Phase_5,42,5,42,127,1165209828
84,9,23,Ticks_Phase_5,43,1,48,26,1165228824
84,9,23,Ticks_Phase_5,44,5,42,127,1165709664
84,9,23,Ticks_Phase_5,45,1,48,24,1165714424
84,9,23,Ticks_Phase_5,46,1,48,21,1166189848
84,9,23,Ticks_Phase_5,47,5,42,127,1166210392
84,9,23,Ticks_Phase_5,48,1,48,29,1166690508
84,9,23,Ticks_Phase_5,49,5,42,127,1166720488
84,9,23,Ticks_Phase_5,50,1,48,29,1167191016
84,9,23,Ticks_Phase_5,51,5,42,127,1167219956
84,9,23,Ticks_Phase_5,52,1,48,27,1167675400
84,9,23,Ticks_Phase_5,53,5,42,127,1167719640
84,9,23,Ticks_Phase_5,54,5,42,127,1168219484
84,9,23,Ticks_Phase_5,55,1,48,26,1168259528
84,9,23,Ticks_Phase_5,56,1,48,29,1168678528
84,9,23,Ticks_Phase_5,57,5,42,127,1168720364
84,9,23,Ticks_Phase_5,58,1,48,28,1169176932
84,9,23,Ticks_Phase_5,59,5,42,127,1169209620
84,9,23,Ticks_Phase_5,60,1,48,29,1169663568
84,9,23,Ticks_Phase_5,61,5,42,127,1169709432
84,9,23,Ticks_Phase_5,62,1,48,28,1170150532
84,9,23,Ticks_Phase_5,63,5,42,127,1170210388
84,9,23,Ticks_Phase_5,64,1,48,33,1170640480
84,9,23,Ticks_Phase_5,65,5,42,127,1170709780
84,9,23,Ticks_Phase_5,66,1,48,28,1171156560
84,9,23,Ticks_Phase_5,67,5,42,127,1171209544
84,9,23,Ticks_Phase_5,68,1,48,28,1171650412
84,9,23,Ticks_Phase_5,69,5,42,127,1171710500
84,9,23,Ticks_Phase_5,70,1,48,21,1172154816
84,9,23,Ticks_Phase_5,71,5,42,127,1172209892
84,9,23,Ticks_Phase_5,72,1,48,27,1172666932
84,9,23,Ticks_Phase_5,73,5,42,127,1172709728
84,9,23,Ticks_Phase_5,74,1,48,26,1173164896
84,9,23,Ticks_Phase_5,75,5,42,127,1173209344
84,9,23,Ticks_Phase_5,76,1,48,29,1173684656
84,9,23,Ticks_Phase_5,77,5,42,127,1173710524
84,9,23,Ticks_Phase_5,78,1,48,30,1174179036
84,9,23,Ticks_Phase_5,79,5,42,127,1174209988
84,9,23,Ticks_Phase_5,80,1,48,29,1174697436
84,9,23,Ticks_Phase_5,81,5,42,127,1174709752
84,9,23,Ticks_Phase_5,82,1,48,28,1175185140
84,9,23,Ticks_Phase_5,83,5,42,127,1175210412
84,9,23,Ticks_Phase_5,84,1,48,27,1175655696
84,9,23,Ticks_Phase_5,85,5,42,127,1175710248
84,9,23,Ticks_Phase_5,86,1,48,29,1176165868
84,9,23,Ticks_Phase_5,87,5,42,127,1176209712
84,9,23,Ticks_Phase_5,88,1,48,25,1176668264
84,9,23,Ticks_Phase_5,89,5,42,127,1176709404
84,9,23,Ticks_Phase_5,90,1,48,33,1177171912
84,9,23,Ticks_Phase_5,91,5,42,127,1177210432
84,9,23,Ticks_Phase_5,92,1,48,31,1177665232
84,9,23,Ticks_Phase_5,93,5,42,127,1177710420
84,9,23,Ticks_Phase_5,94,1,48,25,1178179232
84,9,23,Ticks_Phase_5,95,5,42,127,1178219772
84,9,23,Ticks_Phase_5,96,1,48,29,1178676036
84,9,23,Ticks_Phase_5,97,5,42,127,1178719612
84,9,23,Ticks_Phase_5,98,1,48,25,1179167416
84,9,23,Ticks_Phase_5,99,5,42,127,1179220348
84,9,23,Ticks_Phase_5,100,1,48,25,1179671980
84,9,23,Ticks_Phase_5,101,5,42,127,1179720260
84,9,23,Ticks_Phase_5,102,1,48,26,1180158640
84,9,23,Ticks_Phase_5,103,5,42,127,1180219800
84,9,23,Ticks_Phase_5,104,1,48,25,1180663708
84,9,23,Ticks_Phase_5,105,5,42,127,1180719388
84,9,23,Ticks_Phase_5,106,1,48,27,1181145572
84,9,23,Ticks_Phase_5,107,5,42,127,1181220344
84,9,23,Ticks_Phase_5,108,1,48,26,1181646828
84,9,23,Ticks_Phase_5,109,5,42,127,1181720108
84,9,23,Ticks_Phase_5,110,1,48,23,1182155136
84,9,23,Ticks_Phase_5,111,5,42,127,1182219572
84,9,23,Ticks_Phase_5,112,1,48,26,1182645984
84,9,23,Ticks_Phase_5,113,5,42,127,1182720308
84,9,23,Ticks_Phase_5,114,1,48,27,1183175104
84,9,23,Ticks_Phase_5,115,5,42,127,1183220292
84,9,23,Ticks_Phase_5,116,1,48,21,1183675692
84,9,23,Ticks_Phase_5,117,5,42,127,1183719760
84,9,23,Ticks_Phase_5,118,1,48,26,1184157404
84,9,23,Ticks_Phase_5,119,5,42,127,1184219524
84,9,23,Ticks_Phase_5,120,1,48,26,1184645192
84,9,23,Ticks_Phase_5,121,5,42,127,1184720188
84,9,23,Ticks_Phase_5,122,1,48,23,1185117556
84,9,23,Ticks_Phase_5,123,5,42,127,1185220232
84,9,23,Ticks_Phase_5,124,1,48,25,1185631164
84,9,23,Ticks_Phase_5,125,5,42,127,1185719788
84,9,23,Ticks_Phase_5,126,1,48,21,1186138276
84,9,23,Ticks_Phase_5,127,5,42,127,1186239980
84,9,23,Ticks_Phase_5,128,1,48,30,1186600636
84,9,23,Ticks_Phase_5,129,5,42,127,1186739520
84,9,23,Ticks_Phase_5,130,1,48,17,1187148960
84,9,23,Ticks_Phase_5,131,5,42,127,1187240344
84,9,23,Ticks_Phase_5,132,1,48,21,1187684584
84,9,23,Ticks_Phase_5,133,5,42,127,1187740180
84,9,23,Ticks_Phase_5,134,1,48,24,1188159116
84,9,23,Ticks_Phase_5,135,5,42,127,1188240020
84,9,23,Ticks_Phase_5,136,1,48,23,1188658852
84,9,23,Ticks_Phase_5,137,5,42,127,1188739336
84,9,23,Ticks_Phase_5,138,1,48,22,1189132924
84,9,23,Ticks_Phase_5,139,5,42,127,1189240128
84,9,23,Ticks_Phase_5,140,1,48,19,1189632016
84,9,23,Ticks_Phase_5,141,5,42,127,1189740040
84,9,23,Ticks_Phase_5,142,1,48,17,1190169224
84,9,23,Ticks_Phase_5,143,5,42,127,1190239968
84,9,23,Ticks_Phase_5,144,1,48,18,1190714516
84,9,23,Ticks_Phase_5,145,5,42,127,1190740232
84,9,23,Ticks_Phase_5,146,1,48,18,1191224060
84,9,23,Ticks_Phase_5,147,5,42,127,1191240144
84,9,23,Ticks_Phase_5,148,1,48,20,1191707272
84,9,23,Ticks_Phase_5,149,5,42,127,1191739980
84,9,23,Ticks_Phase_5,150,1,48,21,1192212056
84,9,23,Ticks_Phase_5,151,5,42,127,1192239348
84,9,23,Ticks_Phase_5,152,1,48,21,1192675044
84,9,23,Ticks_Phase_5,153,5,42,127,1192740160
84,9,23,Ticks_Phase_5,154,1,48,20,1193204768
84,9,23,Ticks_Phase_5,155,5,42,127,1193240068
84,9,23,Ticks_Phase_5,156,1,48,21,1193685356
84,9,23,Ticks_Phase_5,157,5,42,127,1193739908
84,9,23,Ticks_Phase_5,158,1,48,20,1194186388
84,9,23,Ticks_Phase_5,159,5,42,127,1194240344
84,9,23,Ticks_Phase_5,160,1,48,20,1194699868
84,9,23,Ticks_Phase_5,161,5,42,127,1194719812
84,9,23,Ticks_Phase_5,162,1,48,22,1195171396
84,9,23,Ticks_Phase_5,163,5,42,127,1195220328
84,9,23,Ticks_Phase_5,164,1,48,24,1195667488
84,9,23,Ticks_Phase_5,165,5,42,127,1195720092
84,9,23,Ticks_Phase_5,166,1,48,19,1196159768
84,9,23,Ticks_Phase_5,167,5,42,127,1196219704
84,9,23,Ticks_Phase_5,168,1,48,18,1196622828
84,9,23,Ticks_Phase_5,169,5,42,127,1196719544
84,9,23,Ticks_Phase_5,170,1,48,20,1197139004
84,9,23,Ticks_Phase_5,171,5,42,127,1197220276
84,9,23,Ticks_Phase_5,172,1,48,20,1197667672
84,9,23,Ticks_Phase_5,173,5,42,127,1197720040
84,9,23,Ticks_Phase_5,174,1,48,22,1198191092
84,9,23,Ticks_Phase_5,175,5,42,127,1198219580
84,9,23,Ticks_Phase_5,176,1,48,21,1198689208
84,9,23,Ticks_Phase_5,177,5,42,127,1198720316
84,9,23,Ticks_Phase_5,178,1,48,25,1199216148
84,9,23,Ticks_Phase_5,179,5,42,127,1199220080
84,9,23,Ticks_Phase_5,180,1,48,19,1199673800
84,9,23,Ticks_Phase_5,181,5,42,127,1199719740
84,9,23,Ticks_Phase_5,182,5,42,127,1200219512
84,9,23,Ticks_Phase_5,183,1,48,24,1200224724
84,9,23,Ticks_Phase_5,184,1,48,21,1200704400
84,9,23,Ticks_Phase_5,185,5,42,127,1200720164
84,9,23,Ticks_Phase_5,186,1,48,24,1201200848
84,9,23,Ticks_Phase_5,187,5,42,127,1201219924
84,9,23,Ticks_Phase_5,188,5,42,127,1201719744
84,9,23,Ticks_Phase_5,189,1,48,19,1201726104
84,9,23,Ticks_Phase_5,190,1,48,20,1202203892
84,9,23,Ticks_Phase_5,191,5,42,127,1202220548
84,9,23,Ticks_Phase_5,192,5,42,127,1202669924
84,9,23,Ticks_Phase_5,193,1,48,21,1202699252
84,9,23,Ticks_Phase_5,194,1,48,16,1203049756
84,9,23,Ticks_Phase_5,195,5,42,127,1203169740
84,9,23,Ticks_Phase_5,196,1,48,17,1203639312
84,9,23,Ticks_Phase_5,197,5,42,127,1203670340
84,9,23,Ticks_Phase_5,198,1,48,18,1204116748
84,9,23,Ticks_Phase_5,199,5,42,127,1204170104
84,9,23,Ticks_Phase_5,200,1,48,18,1204629924
84,9,23,Ticks_Phase_5,201,5,42,127,1204669936
84,9,23,Ticks_Phase_5,202,1,48,18,1205135448
84,9,23,Ticks_Phase_5,203,5,42,127,1205169700
84,9,23,Ticks_Phase_5,204,1,48,19,1205637912
84,9,23,Ticks_Phase_5,205,5,42,127,1205670212
84,9,23,Ticks_Phase_5,206,1,48,19,1206113028
84,9,23,Ticks_Phase_5,207,5,42,127,1206169976
84,9,23,Ticks_Phase_5,208,1,48,19,1206613392
84,9,23,Ticks_Phase_5,209,5,42,127,1206669664
84,9,23,Ticks_Phase_5,210,1,48,21,1207096428
84,9,23,Ticks_Phase_5,211,5,42,127,1207170548
84,9,23,Ticks_Phase_5,212,1,48,19,1207595288
84,9,23,Ticks_Phase_5,213,5,42,127,1207680272
84,9,23,Ticks_Phase_5,214,1,48,20,1208119248
84,9,23,Ticks_Phase_5,215,5,42,127,1208180108
84,9,23,Ticks_Phase_5,216,1,48,23,1208633608
84,9,23,Ticks_Phase_5,217,5,42,127,1208679772
84,9,23,Ticks_Phase_5,218,1,48,19,1209125848
84,9,23,Ticks_Phase_5,219,5,42,127,1209179680
84,9,23,Ticks_Phase_5,220,1,48,24,1209629368
84,9,23,Ticks_Phase_5,221,5,42,127,1209680120
84,9,23,Ticks_Phase_5,222,5,42,127,1210179964
84,9,23,Ticks_Phase_5,223,1,48,20,1210183232
84,9,23,Ticks_Phase_5,224,1,48,20,1210669112
84,9,23,Ticks_Phase_5,225,5,42,127,1210679772
84,9,23,Ticks_Phase_5,226,1,48,20,1211162928
84,9,23,Ticks_Phase_5,227,5,42,127,1211229636
84,9,23,Ticks_Phase_5,228,1,48,18,1211681636
84,9,23,Ticks_Phase_5,229,5,42,127,1211730220
84,9,23,Ticks_Phase_5,230,1,48,15,1212182676
84,9,23,Ticks_Phase_5,231,5,42,127,1212230060
84,9,23,Ticks_Phase_5,232,1,48,18,1212700040
84,9,23,Ticks_Phase_5,233,5,42,127,1212729820
84,9,23,Ticks_Phase_5,234,1,48,24,1213212080
84,9,23,Ticks_Phase_5,235,5,42,127,1213229408
84,9,23,Ticks_Phase_5,236,5,42,127,1213730524
84,9,23,Ticks_Phase_5,237,1,48,20,1213757868
84,9,23,Ticks_Phase_5,238,1,48,17,1214219548
84,9,23,Ticks_Phase_5,239,5,42,127,1214229836
84,9,23,Ticks_Phase_5,240,5,42,127,1214729456
84,9,23,Ticks_Phase_5,241,1,48,19,1214746724
84,9,23,Ticks_Phase_5,242,5,42,127,1215230636
84,9,23,Ticks_Phase_5,243,1,48,18,1215240428
84,9,23,Ticks_Phase_5,244,1,48,21,1215707980
84,9,23,Ticks_Phase_5,245,5,42,127,1215730020
84,9,23,Ticks_Phase_5,246,1,48,20,1216178760
84,9,23,Ticks_Phase_5,247,5,42,127,1216229708
84,9,23,Ticks_Phase_5,248,1,48,20,1216684208
84,9,23,Ticks_Phase_5,249,5,42,127,1216729472
84,9,23,Ticks_Phase_5,250,1,48,19,1217217904
84,9,23,Ticks_Phase_5,251,5,42,127,1217230504
84,9,23,Ticks_Phase_5,252,1,48,20,1217708084
84,9,23,Ticks_Phase_5,253,5,42,127,1217729896
84,9,23,Ticks_Phase_5,254,1,48,19,1218186264
84,9,23,Ticks_Phase_5,255,5,42,127,1218229584
84,9,23,Ticks_Phase_5,256,1,48,21,1218727660
84,9,23,Ticks_Phase_5,257,5,42,127,1218730688
84,9,23,Ticks_Phase_5,258,1,48,20,1219207444
84,9,23,Ticks_Phase_5,259,5,42,127,1219230008
84,9,23,Ticks_Phase_5,260,1,48,22,1219698744
84,9,23,Ticks_Phase_5,261,5,42,127,1219830104
84,9,23,Ticks_Phase_5,262,5,42,127,1220329888
84,9,23,Ticks_Phase_5,263,1,48,18,1220764332
84,9,23,Ticks_Phase_5,264,5,42,127,1220829520
84,9,23,Ticks_Phase_5,265,1,48,18,1221271360
84,9,23,Ticks_Phase_5,266,5,42,127,1221330400
84,9,23,Ticks_Phase_5,267,5,42,127,1221829948
84,9,23,Ticks_Phase_5,268,1,48,15,1221831656
84,9,23,Ticks_Phase_5,269,1,48,13,1222278532
84,9,23,Ticks_Phase_5,270,5,42,127,1222329780
84,9,23,Ticks_Phase_5,271,5,42,127,1222829324
84,9,23,Ticks_Phase_5,272,1,48,17,1222841880
84,9,23,Ticks_Phase_5,273,1,48,24,1223311976
84,9,23,Ticks_Phase_5,274,5,42,127,1223330280
84,9,23,Ticks_Phase_5,275,1,48,17,1223825592
84,9,23,Ticks_Phase_5,276,5,42,127,1223829820
84,9,23,Ticks_Phase_5,277,1,48,16,1224314420
84,9,23,Ticks_Phase_5,278,5,42,127,1224329508
84,9,23,Ticks_Phase_5,279,1,48,24,1224817400
84,9,23,Ticks_Phase_5,280,5,42,127,1224830244
84,9,23,Ticks_Phase_5,281,1,48,29,1225300472
84,9,23,Ticks_Phase_5,282,5,42,127,1225330004
84,9,23,Ticks_Phase_5,283,1,48,29,1225825236
84,9,23,Ticks_Phase_5,284,5,42,127,1225829620
84,9,23,Ticks_Phase_5,285,5,42,127,1226329536
84,9,23,Ticks_Phase_5,286,1,48,23,1226331096
84,9,23,Ticks_Phase_5,287,1,48,19,1226828228
84,9,23,Ticks_Phase_5,288,5,42,127,1226830188
84,9,23,Ticks_Phase_5,289,1,48,27,1227328524
84,9,23,Ticks_Phase_5,290,5,42,127,1227330024
84,9,23,Ticks_Phase_5,291,1,48,27,1227812732
84,9,23,Ticks_Phase_5,292,5,42,127,1227829464
84,9,23,Ticks_Phase_5,293,1,48,24,1228310704
84,9,23,Ticks_Phase_5,294,5,42,127,1228330348
84,9,23,Ticks_Phase_5,295,1,48,23,1228787316
84,9,23,Ticks_Phase_5,296,5,42,127,1228830112
84,9,23,Ticks_Phase_5,297,5,42,127,1229229388
84,9,23,Ticks_Phase_5,298,1,48,26,1229254144
84,9,23,Ticks_Phase_5,299,1,48,24,1229640748
84,9,23,Ticks_Phase_5,300,5,42,127,1229730264
84,9,23,Ticks_Phase_5,301,1,48,14,1230211800
84,9,23,Ticks_Phase_5,302,5,42,127,1230229728
84,9,23,Ticks_Phase_5,303,1,48,19,1230726684
84,9,23,Ticks_Phase_5,304,5,42,127,1230729568
84,9,23,Ticks_Phase_5,305,5,42,127,1231230308
84,9,23,Ticks_Phase_5,306,1,48,20,1231234100
84,9,23,Ticks_Phase_5,307,1,48,25,1231720300
84,9,23,Ticks_Phase_5,308,5,42,127,1231729988
84,9,23,Ticks_Phase_5,309,1,48,20,1232207176
84,9,23,Ticks_Phase_5,310,5,42,127,1232229680
84,9,23,Ticks_Phase_5,311,5,42,127,1232729596
84,9,23,Ticks_Phase_5,312,1,48,23,1232737444
84,9,23,Ticks_Phase_5,313,5,42,127,1233230184
84,9,23,Ticks_Phase_5,314,1,48,19,1233231596
84,9,23,Ticks_Phase_5,315,1,48,18,1233729496
84,9,23,Ticks_Phase_5,316,5,42,127,1233731136
84,9,23,Ticks_Phase_5,317,1,48,19,1234188912
84,9,23,Ticks_Phase_5,318,5,42,127,1234229528
84,9,23,Ticks_Phase_5,319,1,48,19,1234723120
84,9,23,Ticks_Phase_5,320,5,42,127,1234730412
84,9,23,Ticks_Phase_5,321,5,42,127,1235230184
84,9,23,Ticks_Phase_5,322,1,48,29,1235236068
84,9,23,Ticks_Phase_5,323,1,48,18,1235728132
84,9,23,Ticks_Phase_5,324,5,42,127,1235729716
84,9,23,Ticks_Phase_5,325,1,48,19,1236189012
84,9,23,Ticks_Phase_5,326,5,42,127,1236229476
84,9,23,Ticks_Phase_5,327,1,48,18,1236710188
84,9,23,Ticks_Phase_5,328,5,42,127,1236730436
84,9,23,Ticks_Phase_5,329,1,48,21,1237224172
84,9,23,Ticks_Phase_5,330,5,42,127,1237230048
84,9,23,Ticks_Phase_5,331,5,42,127,1237729596
84,9,23,Ticks_Phase_5,332,1,48,21,1237749640
84,9,23,Ticks_Phase_5,333,5,42,127,1238230332
84,9,23,Ticks_Phase_5,334,1,48,24,1238231296
84,9,23,Ticks_Phase_5,335,1,48,20,1238726156
84,9,23,Ticks_Phase_5,336,5,42,127,1238730088
84,9,23,Ticks_Phase_5,0,9999,9999,9999,1154187360
84,9,23,Ticks_Phase_5,1,9999,9999,9999,1154688116
84,9,23,Ticks_Phase_5,2,9999,9999,9999,1155198008
84,9,23,Ticks_Phase_5,3,9999,9999,9999,1155697768
84,9,23,Ticks_Phase_5,4,9999,9999,9999,1156197456
84,9,23,Ticks_Phase_5,5,9999,9999,9999,1156697144
84,9,23,Ticks_Phase_5,6,9999,9999,9999,1157197884
84,9,23,Ticks_Phase_5,7,9999,9999,9999,1157697648
84,9,23,Ticks_Phase_5,8,9999,9999,9999,1158197304
84,9,23,Ticks_Phase_5,9,9999,9999,9999,1158698040
84,9,23,Ticks_Phase_5,10,9999,9999,9999,1159197808
84,9,23,Ticks_Phase_5,11,9999,9999,9999,1159697488
84,9,23,Ticks_Phase_5,12,9999,9999,9999,1160197180
84,9,23,Ticks_Phase_5,13,9999,9999,9999,1160697920
84,9,23,Ticks_Phase_5,14,9999,9999,9999,1161197676
84,9,23,Ticks_Phase_5,15,9999,9999,9999,1161697372
84,9,23,Ticks_Phase_5,16,9999,9999,9999,1162198100
84,9,23,Ticks_Phase_5,17,9999,9999,9999,1162708048
84,9,23,Ticks_Phase_5,18,9999,9999,9999,1163207736
84,9,23,Ticks_Phase_5,19,9999,9999,9999,1163707504
84,9,23,Ticks_Phase_5,20,9999,9999,9999,1164207192
84,9,23,Ticks_Phase_5,21,9999,9999,9999,1164707920
84,9,23,Ticks_Phase_5,22,9999,9999,9999,1165207616
84,9,23,Ticks_Phase_5,23,9999,9999,9999,1165707380
84,9,23,Ticks_Phase_5,24,9999,9999,9999,1166208108
84,9,23,Ticks_Phase_5,25,9999,9999,9999,1166718052
84,9,23,Ticks_Phase_5,26,9999,9999,9999,1167217744
84,9,23,Ticks_Phase_5,27,9999,9999,9999,1167717428
84,9,23,Ticks_Phase_5,28,9999,9999,9999,1168217200
84,9,23,Ticks_Phase_5,29,9999,9999,9999,1168717928
84,9,23,Ticks_Phase_5,30,9999,9999,9999,1169207404
84,9,23,Ticks_Phase_5,31,9999,9999,9999,1169707072
84,9,23,Ticks_Phase_5,32,9999,9999,9999,1170207804
84,9,23,Ticks_Phase_5,33,9999,9999,9999,1170707568
84,9,23,Ticks_Phase_5,34,9999,9999,9999,1171207256
84,9,23,Ticks_Phase_5,35,9999,9999,9999,1171707992
84,9,23,Ticks_Phase_5,36,9999,9999,9999,1172207680
84,9,23,Ticks_Phase_5,37,9999,9999,9999,1172707444
84,9,23,Ticks_Phase_5,38,9999,9999,9999,1173207128
84,9,23,Ticks_Phase_5,39,9999,9999,9999,1173707864
84,9,23,Ticks_Phase_5,40,9999,9999,9999,1174207552
84,9,23,Ticks_Phase_5,41,9999,9999,9999,1174707316
84,9,23,Ticks_Phase_5,42,9999,9999,9999,1175208052
84,9,23,Ticks_Phase_5,43,9999,9999,9999,1175707736
84,9,23,Ticks_Phase_5,44,9999,9999,9999,1176207428
84,9,23,Ticks_Phase_5,45,9999,9999,9999,1176707188
84,9,23,Ticks_Phase_5,46,9999,9999,9999,1177207924
84,9,23,Ticks_Phase_5,47,9999,9999,9999,1177707612
84,9,23,Ticks_Phase_5,48,9999,9999,9999,1178217560
84,9,23,Ticks_Phase_5,49,9999,9999,9999,1178717248
84,9,23,Ticks_Phase_5,50,9999,9999,9999,1179217984
84,9,23,Ticks_Phase_5,51,9999,9999,9999,1179717748
84,9,23,Ticks_Phase_5,52,9999,9999,9999,1180217412
84,9,23,Ticks_Phase_5,53,9999,9999,9999,1180717176
84,9,23,Ticks_Phase_5,54,9999,9999,9999,1181217908
84,9,23,Ticks_Phase_5,55,9999,9999,9999,1181717596
84,9,23,Ticks_Phase_5,56,9999,9999,9999,1182217288
84,9,23,Ticks_Phase_5,57,9999,9999,9999,1182718020
84,9,23,Ticks_Phase_5,58,9999,9999,9999,1183217784
84,9,23,Ticks_Phase_5,59,9999,9999,9999,1183717472
84,9,23,Ticks_Phase_5,60,9999,9999,9999,1184217164
84,9,23,Ticks_Phase_5,61,9999,9999,9999,1184717900
84,9,23,Ticks_Phase_5,62,9999,9999,9999,1185217648
84,9,23,Ticks_Phase_5,63,9999,9999,9999,1185717352
84,9,23,Ticks_Phase_5,64,9999,9999,9999,1186237544
84,9,23,Ticks_Phase_5,65,9999,9999,9999,1186737232
84,9,23,Ticks_Phase_5,66,9999,9999,9999,1187237984
84,9,23,Ticks_Phase_5,67,9999,9999,9999,1187737672
84,9,23,Ticks_Phase_5,68,9999,9999,9999,1188237436
84,9,23,Ticks_Phase_5,69,9999,9999,9999,1188737124
84,9,23,Ticks_Phase_5,70,9999,9999,9999,1189237840
84,9,23,Ticks_Phase_5,71,9999,9999,9999,1189737528
84,9,23,Ticks_Phase_5,72,9999,9999,9999,1190237308
84,9,23,Ticks_Phase_5,73,9999,9999,9999,1190738020
84,9,23,Ticks_Phase_5,74,9999,9999,9999,1191237712
84,9,23,Ticks_Phase_5,75,9999,9999,9999,1191737448
84,9,23,Ticks_Phase_5,76,9999,9999,9999,1192237136
84,9,23,Ticks_Phase_5,77,9999,9999,9999,1192737872
84,9,23,Ticks_Phase_5,78,9999,9999,9999,1193237560
84,9,23,Ticks_Phase_5,79,9999,9999,9999,1193737324
84,9,23,Ticks_Phase_5,80,9999,9999,9999,1194238056
84,9,23,Ticks_Phase_5,81,9999,9999,9999,1194717304
84,9,23,Ticks_Phase_5,82,9999,9999,9999,1195218040
84,9,23,Ticks_Phase_5,83,9999,9999,9999,1195717732
84,9,23,Ticks_Phase_5,84,9999,9999,9999,1196217420
84,9,23,Ticks_Phase_5,85,9999,9999,9999,1196717180
84,9,23,Ticks_Phase_5,86,9999,9999,9999,1197217916
84,9,23,Ticks_Phase_5,87,9999,9999,9999,1197717604
84,9,23,Ticks_Phase_5,88,9999,9999,9999,1198217292
84,9,23,Ticks_Phase_5,89,9999,9999,9999,1198718028
84,9,23,Ticks_Phase_5,90,9999,9999,9999,1199217716
84,9,23,Ticks_Phase_5,91,9999,9999,9999,1199717456
84,9,23,Ticks_Phase_5,92,9999,9999,9999,1200217148
84,9,23,Ticks_Phase_5,93,9999,9999,9999,1200717876
84,9,23,Ticks_Phase_5,94,9999,9999,9999,1201217640
84,9,23,Ticks_Phase_5,95,9999,9999,9999,1201717308
84,9,23,Ticks_Phase_5,96,9999,9999,9999,1202218112
84,9,23,Ticks_Phase_5,97,9999,9999,9999,1202667636
84,9,23,Ticks_Phase_5,98,9999,9999,9999,1203167304
84,9,23,Ticks_Phase_5,99,9999,9999,9999,1203668052
84,9,23,Ticks_Phase_5,100,9999,9999,9999,1204167740
84,9,23,Ticks_Phase_5,101,9999,9999,9999,1204667504
84,9,23,Ticks_Phase_5,102,9999,9999,9999,1205167192
84,9,23,Ticks_Phase_5,103,9999,9999,9999,1205667928
84,9,23,Ticks_Phase_5,104,9999,9999,9999,1206167616
84,9,23,Ticks_Phase_5,105,9999,9999,9999,1206667380
84,9,23,Ticks_Phase_5,106,9999,9999,9999,1207168112
84,9,23,Ticks_Phase_5,107,9999,9999,9999,1207678060
84,9,23,Ticks_Phase_5,108,9999,9999,9999,1208177748
84,9,23,Ticks_Phase_5,109,9999,9999,9999,1208677484
84,9,23,Ticks_Phase_5,110,9999,9999,9999,1209177172
84,9,23,Ticks_Phase_5,111,9999,9999,9999,1209677908
84,9,23,Ticks_Phase_5,112,9999,9999,9999,1210177600
84,9,23,Ticks_Phase_5,113,9999,9999,9999,1210677336
84,9,23,Ticks_Phase_5,114,9999,9999,9999,1211227200
84,9,23,Ticks_Phase_5,115,9999,9999,9999,1211727932
84,9,23,Ticks_Phase_5,116,9999,9999,9999,1212227696
84,9,23,Ticks_Phase_5,117,9999,9999,9999,1212727360
84,9,23,Ticks_Phase_5,118,9999,9999,9999,1213227124
84,9,23,Ticks_Phase_5,119,9999,9999,9999,1213727864
84,9,23,Ticks_Phase_5,120,9999,9999,9999,1214227548
84,9,23,Ticks_Phase_5,121,9999,9999,9999,1214727244
84,9,23,Ticks_Phase_5,122,9999,9999,9999,1215227976
84,9,23,Ticks_Phase_5,123,9999,9999,9999,1215727736
84,9,23,Ticks_Phase_5,124,9999,9999,9999,1216227424
84,9,23,Ticks_Phase_5,125,9999,9999,9999,1216727112
84,9,23,Ticks_Phase_5,126,9999,9999,9999,1217227848
84,9,23,Ticks_Phase_5,127,9999,9999,9999,1217727608
84,9,23,Ticks_Phase_5,128,9999,9999,9999,1218227296
84,9,23,Ticks_Phase_5,129,9999,9999,9999,1218728032
84,9,23,Ticks_Phase_5,130,9999,9999,9999,1219227720
84,9,23,Ticks_Phase_5,131,9999,9999,9999,1219827816
84,9,23,Ticks_Phase_5,132,9999,9999,9999,1220327528
84,9,23,Ticks_Phase_5,133,9999,9999,9999,1220827232
84,9,23,Ticks_Phase_5,134,9999,9999,9999,1221327968
84,9,23,Ticks_Phase_5,135,9999,9999,9999,1221827660
84,9,23,Ticks_Phase_5,136,9999,9999,9999,1222327416
84,9,23,Ticks_Phase_5,137,9999,9999,9999,1222827112
84,9,23,Ticks_Phase_5,138,9999,9999,9999,1223327844
84,9,23,Ticks_Phase_5,139,9999,9999,9999,1223827532
84,9,23,Ticks_Phase_5,140,9999,9999,9999,1224327296
84,9,23,Ticks_Phase_5,141,9999,9999,9999,1224828032
84,9,23,Ticks_Phase_5,142,9999,9999,9999,1225327716
84,9,23,Ticks_Phase_5,143,9999,9999,9999,1225827408
84,9,23,Ticks_Phase_5,144,9999,9999,9999,1226327100
84,9,23,Ticks_Phase_5,145,9999,9999,9999,1226827860
84,9,23,Ticks_Phase_5,146,9999,9999,9999,1227327596
84,9,23,Ticks_Phase_5,147,9999,9999,9999,1227827252
84,9,23,Ticks_Phase_5,148,9999,9999,9999,1228328064
84,9,23,Ticks_Phase_5,149,9999,9999,9999,1228827752
84,9,23,Ticks_Phase_5,150,9999,9999,9999,1229227100
84,9,23,Ticks_Phase_5,151,9999,9999,9999,1229727828
84,9,23,Ticks_Phase_5,152,9999,9999,9999,1230227516
84,9,23,Ticks_Phase_5,153,9999,9999,9999,1230727280
84,9,23,Ticks_Phase_5,154,9999,9999,9999,1231228020
84,9,23,Ticks_Phase_5,155,9999,9999,9999,1231727704
84,9,23,Ticks_Phase_5,156,9999,9999,9999,1232227392
84,9,23,Ticks_Phase_5,157,9999,9999,9999,1232727160
84,9,23,Ticks_Phase_5,158,9999,9999,9999,1233227896
84,9,23,Ticks_Phase_5,159,9999,9999,9999,1233727584
84,9,23,Ticks_Phase_5,160,9999,9999,9999,1234227316
84,9,23,Ticks_Phase_5,161,9999,9999,9999,1234728052
84,9,23,Ticks_Phase_5,162,9999,9999,9999,1235227748
84,9,23,Ticks_Phase_5,163,9999,9999,9999,1235727432
84,9,23,Ticks_Phase_5,164,9999,9999,9999,1236227192
84,9,23,Ticks_Phase_5,165,9999,9999,9999,1236727928
84,9,23,Ticks_Phase_5,166,9999,9999,9999,1237227612
84,9,23,Ticks_Phase_5,167,9999,9999,9999,1237727308
84,9,23,Ticks_Phase_5,168,9999,9999,9999,1238228044
84,9,23,Ticks_Phase_5,169,9999,9999,9999,1238727800
84,10,22,Ticks_Phase_8,0,5,42,127,1248829892
84,10,22,Ticks_Phase_8,1,1,48,25,1249367080
84,10,22,Ticks_Phase_8,2,5,42,127,1249629680
84,10,22,Ticks_Phase_8,3,1,48,17,1250313120
84,10,22,Ticks_Phase_8,4,5,42,127,1250430436
84,10,22,Ticks_Phase_8,5,5,42,127,1251230024
84,10,22,Ticks_Phase_8,6,1,48,21,1251313196
84,10,22,Ticks_Phase_8,7,5,42,127,1252030032
84,10,22,Ticks_Phase_8,8,1,48,21,1252051128
84,10,22,Ticks_Phase_8,9,5,42,127,1252829744
84,10,22,Ticks_Phase_8,10,1,48,21,1252851812
84,10,22,Ticks_Phase_8,11,5,42,127,1253630352
84,10,22,Ticks_Phase_8,12,1,48,27,1253655712
84,10,22,Ticks_Phase_8,13,1,48,19,1254404636
84,10,22,Ticks_Phase_8,14,5,42,127,1254430056
84,10,22,Ticks_Phase_8,15,1,48,21,1255171256
84,10,22,Ticks_Phase_8,16,5,42,127,1255229940
84,10,22,Ticks_Phase_8,17,1,48,20,1255985708
84,10,22,Ticks_Phase_8,18,5,42,127,1256029504
84,10,22,Ticks_Phase_8,19,1,48,22,1256761336
84,10,22,Ticks_Phase_8,20,5,42,127,1256830336
84,10,22,Ticks_Phase_8,21,1,48,21,1257560080
84,10,22,Ticks_Phase_8,22,5,42,127,1257630048
84,10,22,Ticks_Phase_8,23,1,48,20,1258364724
84,10,22,Ticks_Phase_8,24,5,42,127,1258429836
84,10,22,Ticks_Phase_8,25,1,48,19,1259178820
84,10,22,Ticks_Phase_8,26,5,42,127,1259229920
84,10,22,Ticks_Phase_8,27,1,48,20,1259965044
84,10,22,Ticks_Phase_8,28,5,42,127,1260030232
84,10,22,Ticks_Phase_8,29,1,48,20,1260761620
84,10,22,Ticks_Phase_8,30,5,42,127,1260830020
84,10,22,Ticks_Phase_8,31,1,48,20,1261578560
84,10,22,Ticks_Phase_8,32,5,42,127,1261629756
84,10,22,Ticks_Phase_8,33,1,48,19,1262325236
84,10,22,Ticks_Phase_8,34,5,42,127,1262429896
84,10,22,Ticks_Phase_8,35,1,48,19,1263171556
84,10,22,Ticks_Phase_8,36,5,42,127,1263230300
84,10,22,Ticks_Phase_8,37,1,48,20,1263981904
84,10,22,Ticks_Phase_8,38,5,42,127,1264030008
84,10,22,Ticks_Phase_8,39,1,48,22,1264731812
84,10,22,Ticks_Phase_8,40,5,42,127,1264829780
84,10,22,Ticks_Phase_8,41,1,48,30,1265584468
84,10,22,Ticks_Phase_8,42,5,42,127,1265629732
84,10,22,Ticks_Phase_8,43,1,48,26,1266422300
84,10,22,Ticks_Phase_8,44,5,42,127,1266430416
84,10,22,Ticks_Phase_8,45,1,48,22,1267188244
84,10,22,Ticks_Phase_8,46,5,42,127,1267229980
84,10,22,Ticks_Phase_8,47,1,48,28,1268000008
84,10,22,Ticks_Phase_8,48,5,42,127,1268029788
84,10,22,Ticks_Phase_8,49,1,48,25,1268795912
84,10,22,Ticks_Phase_8,50,5,42,127,1268829500
84,10,22,Ticks_Phase_8,51,1,48,24,1269567240
84,10,22,Ticks_Phase_8,52,5,42,127,1269630332
84,10,22,Ticks_Phase_8,53,1,48,30,1270383736
84,10,22,Ticks_Phase_8,54,5,42,127,1270430044
84,10,22,Ticks_Phase_8,55,1,48,25,1271199852
84,10,22,Ticks_Phase_8,56,5,42,127,1271229908
84,10,22,Ticks_Phase_8,57,5,42,127,1272029404
84,10,22,Ticks_Phase_8,58,1,48,30,1272062028
84,10,22,Ticks_Phase_8,59,5,42,127,1272810016
84,10,22,Ticks_Phase_8,60,1,48,23,1272852300
84,10,22,Ticks_Phase_8,61,5,42,127,1273609580
84,10,22,Ticks_Phase_8,62,1,48,24,1273620336
84,10,22,Ticks_Phase_8,63,1,48,20,1274393596
84,10,22,Ticks_Phase_8,64,5,42,127,1274410552
84,10,22,Ticks_Phase_8,65,1,48,19,1275165448
84,10,22,Ticks_Phase_8,66,5,42,127,1275210292
84,10,22,Ticks_Phase_8,67,1,48,24,1275962944
84,10,22,Ticks_Phase_8,68,5,42,127,1276009928
84,10,22,Ticks_Phase_8,69,1,48,21,1276693060
84,10,22,Ticks_Phase_8,70,5,42,127,1276809552
84,10,22,Ticks_Phase_8,71,1,48,17,1277588428
84,10,22,Ticks_Phase_8,72,5,42,127,1277610548
84,10,22,Ticks_Phase_8,73,5,42,127,1278410264
84,10,22,Ticks_Phase_8,74,1,48,19,1278422668
84,10,22,Ticks_Phase_8,75,1,48,18,1279110196
84,10,22,Ticks_Phase_8,76,5,42,127,1279209956
84,10,22,Ticks_Phase_8,77,5,42,127,1280009540
84,10,22,Ticks_Phase_8,78,1,48,14,1280010728
84,10,22,Ticks_Phase_8,79,1,48,19,1280792436
84,10,22,Ticks_Phase_8,80,5,42,127,1280810220
84,10,22,Ticks_Phase_8,81,1,48,21,1281590156
84,10,22,Ticks_Phase_8,82,5,42,127,1281610328
84,10,22,Ticks_Phase_8,83,5,42,127,1282409824
84,10,22,Ticks_Phase_8,84,1,48,24,1282431588
84,10,22,Ticks_Phase_8,85,5,42,127,1283209536
84,10,22,Ticks_Phase_8,86,1,48,22,1283257356
84,10,22,Ticks_Phase_8,87,5,42,127,1284010292
84,10,22,Ticks_Phase_8,88,1,48,25,1284026664
84,10,22,Ticks_Phase_8,89,5,42,127,1284810452
84,10,22,Ticks_Phase_8,90,1,48,20,1284814688
84,10,22,Ticks_Phase_8,91,5,42,127,1285609792
84,10,22,Ticks_Phase_8,92,1,48,22,1285610756
84,10,22,Ticks_Phase_8,93,5,42,127,1286409580
84,10,22,Ticks_Phase_8,94,1,48,24,1286452392
84,10,22,Ticks_Phase_8,95,1,48,24,1287186328
84,10,22,Ticks_Phase_8,96,5,42,127,1287229680
84,10,22,Ticks_Phase_8,97,1,48,20,1287950632
84,10,22,Ticks_Phase_8,98,5,42,127,1288029540
84,10,22,Ticks_Phase_8,99,1,48,26,1288777468
84,10,22,Ticks_Phase_8,100,5,42,127,1288830448
84,10,22,Ticks_Phase_8,101,1,48,21,1289517780
84,10,22,Ticks_Phase_8,102,5,42,127,1289630292
84,10,22,Ticks_Phase_8,103,1,48,25,1290380344
84,10,22,Ticks_Phase_8,104,5,42,127,1290430020
84,10,22,Ticks_Phase_8,105,1,48,20,1291161256
84,10,22,Ticks_Phase_8,106,5,42,127,1291229508
84,10,22,Ticks_Phase_8,107,1,48,23,1291944340
84,10,22,Ticks_Phase_8,108,5,42,127,1292030340
84,10,22,Ticks_Phase_8,109,1,48,18,1292785688
84,10,22,Ticks_Phase_8,110,5,42,127,1292830128
84,10,22,Ticks_Phase_8,111,1,48,20,1293553048
84,10,22,Ticks_Phase_8,112,5,42,127,1293630012
84,10,22,Ticks_Phase_8,113,5,42,127,1294429732
84,10,22,Ticks_Phase_8,114,1,48,24,1294432248
84,10,22,Ticks_Phase_8,115,1,48,23,1295227528
84,10,22,Ticks_Phase_8,116,5,42,127,1295230188
84,10,22,Ticks_Phase_8,117,1,48,25,1295976316
84,10,22,Ticks_Phase_8,118,5,42,127,1296030048
84,10,22,Ticks_Phase_8,119,1,48,24,1296749004
84,10,22,Ticks_Phase_8,120,5,42,127,1296829984
84,10,22,Ticks_Phase_8,121,1,48,18,1297624864
84,10,22,Ticks_Phase_8,122,5,42,127,1297629620
84,10,22,Ticks_Phase_8,123,1,48,22,1298368576
84,10,22,Ticks_Phase_8,124,5,42,127,1298430304
84,10,22,Ticks_Phase_8,125,1,48,23,1299165356
84,10,22,Ticks_Phase_8,126,5,42,127,1299230016
84,10,22,Ticks_Phase_8,127,1,48,16,1300007820
84,10,22,Ticks_Phase_8,128,5,42,127,1300070040
84,10,22,Ticks_Phase_8,129,1,48,16,1300783724
84,10,22,Ticks_Phase_8,130,5,42,127,1300869604
84,10,22,Ticks_Phase_8,131,1,48,26,1301663364
84,10,22,Ticks_Phase_8,132,5,42,127,1301670212
84,10,22,Ticks_Phase_8,133,1,48,22,1302417164
84,10,22,Ticks_Phase_8,134,5,42,127,1302470000
84,10,22,Ticks_Phase_8,135,1,48,22,1303163712
84,10,22,Ticks_Phase_8,136,5,42,127,1303270144
84,10,22,Ticks_Phase_8,137,1,48,16,1303997416
84,10,22,Ticks_Phase_8,138,5,42,127,1304069572
84,10,22,Ticks_Phase_8,139,1,48,23,1304787396
84,10,22,Ticks_Phase_8,140,5,42,127,1304870332
84,10,22,Ticks_Phase_8,141,1,48,21,1305582464
84,10,22,Ticks_Phase_8,142,5,42,127,1305669996
84,10,22,Ticks_Phase_8,143,1,48,20,1306352376
84,10,22,Ticks_Phase_8,144,5,42,127,1306469912
84,10,22,Ticks_Phase_8,145,1,48,18,1307191952
84,10,22,Ticks_Phase_8,146,5,42,127,1307269492
84,10,22,Ticks_Phase_8,147,1,48,19,1307998856
84,10,22,Ticks_Phase_8,148,5,42,127,1308070248
84,10,22,Ticks_Phase_8,149,1,48,16,1308783284
84,10,22,Ticks_Phase_8,150,5,42,127,1308869888
84,10,22,Ticks_Phase_8,151,1,48,20,1309638640
84,10,22,Ticks_Phase_8,152,5,42,127,1309669824
84,10,22,Ticks_Phase_8,153,1,48,18,1310446428
84,10,22,Ticks_Phase_8,154,5,42,127,1310469680
84,10,22,Ticks_Phase_8,155,1,48,24,1311194328
84,10,22,Ticks_Phase_8,156,5,42,127,1311270292
84,10,22,Ticks_Phase_8,157,5,42,127,1312070108
84,10,22,Ticks_Phase_8,158,1,48,20,1312084904
84,10,22,Ticks_Phase_8,159,5,42,127,1312869672
84,10,22,Ticks_Phase_8,160,1,48,16,1312878264
84,10,22,Ticks_Phase_8,161,5,42,127,1313629696
84,10,22,Ticks_Phase_8,162,1,48,23,1314395760
84,10,22,Ticks_Phase_8,163,5,42,127,1314430244
84,10,22,Ticks_Phase_8,164,1,48,16,1315163796
84,10,22,Ticks_Phase_8,165,5,42,127,1315230104
84,10,22,Ticks_Phase_8,166,1,48,21,1316002004
84,10,22,Ticks_Phase_8,167,5,42,127,1316029816
84,10,22,Ticks_Phase_8,168,1,48,25,1316828856
84,10,22,Ticks_Phase_8,169,5,42,127,1316830424
84,10,22,Ticks_Phase_8,170,1,48,23,1317549456
84,10,22,Ticks_Phase_8,171,5,42,127,1317630660
84,10,22,Ticks_Phase_8,172,1,48,25,1318424872
84,10,22,Ticks_Phase_8,173,5,42,127,1318430148
84,10,22,Ticks_Phase_8,174,5,42,127,1319229744
84,10,22,Ticks_Phase_8,175,1,48,27,1319233760
84,10,22,Ticks_Phase_8,176,5,42,127,1320029752
84,10,22,Ticks_Phase_8,177,1,48,25,1320085812
84,10,22,Ticks_Phase_8,178,5,42,127,1320830436
84,10,22,Ticks_Phase_8,179,1,48,14,1321535172
84,10,22,Ticks_Phase_8,180,5,42,127,1321630000
84,10,22,Ticks_Phase_8,181,1,48,18,1322361624
84,10,22,Ticks_Phase_8,182,5,42,127,1322429728
84,10,22,Ticks_Phase_8,183,1,48,27,1323189576
84,10,22,Ticks_Phase_8,184,5,42,127,1323229740
84,10,22,Ticks_Phase_8,185,1,48,22,1323979028
84,10,22,Ticks_Phase_8,186,5,42,127,1324030348
84,10,22,Ticks_Phase_8,187,1,48,21,1324760092
84,10,22,Ticks_Phase_8,188,5,42,127,1324830060
84,10,22,Ticks_Phase_8,189,1,48,19,1325606296
84,10,22,Ticks_Phase_8,190,5,42,127,1325629872
84,10,22,Ticks_Phase_8,191,5,42,127,1326349588
84,10,22,Ticks_Phase_8,192,1,48,18,1326432560
84,10,22,Ticks_Phase_8,193,1,48,16,1327100880
84,10,22,Ticks_Phase_8,194,5,42,127,1327149516
84,10,22,Ticks_Phase_8,195,1,48,18,1327875280
84,10,22,Ticks_Phase_8,196,5,42,127,1327950448
84,10,22,Ticks_Phase_8,197,1,48,14,1328669456
84,10,22,Ticks_Phase_8,198,5,42,127,1328749864
84,10,22,Ticks_Phase_8,199,1,48,24,1329442724
84,10,22,Ticks_Phase_8,200,5,42,127,1329549780
84,10,22,Ticks_Phase_8,201,1,48,27,1330285744
84,10,22,Ticks_Phase_8,202,5,42,127,1330349432
84,10,22,Ticks_Phase_8,203,1,48,27,1331104104
84,10,22,Ticks_Phase_8,204,5,42,127,1331150416
84,10,22,Ticks_Phase_8,205,1,48,26,1331889816
84,10,22,Ticks_Phase_8,206,5,42,127,1331949976
84,10,22,Ticks_Phase_8,207,1,48,28,1332707420
84,10,22,Ticks_Phase_8,208,5,42,127,1332749692
84,10,22,Ticks_Phase_8,209,1,48,28,1333460852
84,10,22,Ticks_Phase_8,210,5,42,127,1333549400
84,10,22,Ticks_Phase_8,211,1,48,28,1334282732
84,10,22,Ticks_Phase_8,212,5,42,127,1334350260
84,10,22,Ticks_Phase_8,213,1,48,29,1335078848
84,10,22,Ticks_Phase_8,214,5,42,127,1335150044
84,10,22,Ticks_Phase_8,215,1,48,28,1335823440
84,10,22,Ticks_Phase_8,216,5,42,127,1335949668
84,10,22,Ticks_Phase_8,217,1,48,21,1336663760
84,10,22,Ticks_Phase_8,218,5,42,127,1336749320
84,10,22,Ticks_Phase_8,219,5,42,127,1337550308
84,10,22,Ticks_Phase_8,220,1,48,29,1337563536
84,10,22,Ticks_Phase_8,221,5,42,127,1338349872
84,10,22,Ticks_Phase_8,222,1,48,25,1338414096
84,10,22,Ticks_Phase_8,223,1,48,19,1339088216
84,10,22,Ticks_Phase_8,224,5,42,127,1339149576
84,10,22,Ticks_Phase_8,225,1,48,25,1339899528
84,10,22,Ticks_Phase_8,226,5,42,127,1340030320
84,10,22,Ticks_Phase_8,227,5,42,127,1340830348
84,10,22,Ticks_Phase_8,228,1,48,17,1340845820
84,10,22,Ticks_Phase_8,229,5,42,127,1341629692
84,10,22,Ticks_Phase_8,230,1,48,24,1341682384
84,10,22,Ticks_Phase_8,231,1,48,21,1342418732
84,10,22,Ticks_Phase_8,232,5,42,127,1342429620
84,10,22,Ticks_Phase_8,233,1,48,25,1343215868
84,10,22,Ticks_Phase_8,234,5,42,127,1343230280
84,10,22,Ticks_Phase_8,235,1,48,23,1343962412
84,10,22,Ticks_Phase_8,236,5,42,127,1344030288
84,10,22,Ticks_Phase_8,237,1,48,28,1344796636
84,10,22,Ticks_Phase_8,238,5,42,127,1344829952
84,10,22,Ticks_Phase_8,239,1,48,27,1345553596
84,10,22,Ticks_Phase_8,240,5,42,127,1345629512
84,10,22,Ticks_Phase_8,241,1,48,27,1346367944
84,10,22,Ticks_Phase_8,242,5,42,127,1346430272
84,10,22,Ticks_Phase_8,243,1,48,27,1347155584
84,10,22,Ticks_Phase_8,244,5,42,127,1347230280
84,10,22,Ticks_Phase_8,245,1,48,28,1347989080
84,10,22,Ticks_Phase_8,246,5,42,127,1348029916
84,10,22,Ticks_Phase_8,247,1,48,27,1348758160
84,10,22,Ticks_Phase_8,248,5,42,127,1348829408
84,10,22,Ticks_Phase_8,249,1,48,24,1349555164
84,10,22,Ticks_Phase_8,250,5,42,127,1349630240
84,10,22,Ticks_Phase_8,251,1,48,20,1350400864
84,10,22,Ticks_Phase_8,252,5,42,127,1350430248
84,10,22,Ticks_Phase_8,253,1,48,26,1351201104
84,10,22,Ticks_Phase_8,254,5,42,127,1351229764
84,10,22,Ticks_Phase_8,255,5,42,127,1352029480
84,10,22,Ticks_Phase_8,256,1,48,24,1352066220
84,10,22,Ticks_Phase_8,257,1,48,21,1352813876
84,10,22,Ticks_Phase_8,258,5,42,127,1352830236
84,10,22,Ticks_Phase_8,259,1,48,24,1353568736
84,10,22,Ticks_Phase_8,260,5,42,127,1353789916
84,10,22,Ticks_Phase_8,261,5,42,127,1354589648
84,10,22,Ticks_Phase_8,262,1,48,17,1354653200
84,10,22,Ticks_Phase_8,263,5,42,127,1355390256
84,10,22,Ticks_Phase_8,264,1,48,19,1355434932
84,10,22,Ticks_Phase_8,265,5,42,127,1356190116
84,10,22,Ticks_Phase_8,266,1,48,19,1356217880
84,10,22,Ticks_Phase_8,267,1,48,20,1356960364
84,10,22,Ticks_Phase_8,268,5,42,127,1356989972
84,10,22,Ticks_Phase_8,269,5,42,127,1357789688
84,10,22,Ticks_Phase_8,270,1,48,16,1357797144
84,10,22,Ticks_Phase_8,271,5,42,127,1358590448
84,10,22,Ticks_Phase_8,272,1,48,19,1358669680
84,10,22,Ticks_Phase_8,273,5,42,127,1359390008
84,10,22,Ticks_Phase_8,274,1,48,27,1360081864
84,10,22,Ticks_Phase_8,275,5,42,127,1360189968
84,10,22,Ticks_Phase_8,276,1,48,16,1360976328
84,10,22,Ticks_Phase_8,277,5,42,127,1360989696
84,10,22,Ticks_Phase_8,278,1,48,21,1361749688
84,10,22,Ticks_Phase_8,279,5,42,127,1361790304
84,10,22,Ticks_Phase_8,280,1,48,21,1362481772
84,10,22,Ticks_Phase_8,281,5,42,127,1362590000
84,10,22,Ticks_Phase_8,282,1,48,22,1363302376
84,10,22,Ticks_Phase_8,283,5,42,127,1363389952
84,10,22,Ticks_Phase_8,284,1,48,21,1364124404
84,10,22,Ticks_Phase_8,285,5,42,127,1364189736
84,10,22,Ticks_Phase_8,286,1,48,20,1364975712
84,10,22,Ticks_Phase_8,287,5,42,127,1364990348
84,10,22,Ticks_Phase_8,288,1,48,23,1365762768
84,10,22,Ticks_Phase_8,289,5,42,127,1365790060
84,10,22,Ticks_Phase_8,290,1,48,19,1366511480
84,10,22,Ticks_Phase_8,291,5,42,127,1366589796
84,10,22,Ticks_Phase_8,292,1,48,21,1367360420
84,10,22,Ticks_Phase_8,293,5,42,127,1367389804
84,10,22,Ticks_Phase_8,294,1,48,20,1368149800
84,10,22,Ticks_Phase_8,295,5,42,127,1368190268
84,10,22,Ticks_Phase_8,296,5,42,127,1368830300
84,10,22,Ticks_Phase_8,297,1,48,25,1368975124
84,10,22,Ticks_Phase_8,298,1,48,16,1369571416
84,10,22,Ticks_Phase_8,299,5,42,127,1369630004
84,10,22,Ticks_Phase_8,300,1,48,16,1370395832
84,10,22,Ticks_Phase_8,301,5,42,127,1370429740
84,10,22,Ticks_Phase_8,302,1,48,19,1371160500
84,10,22,Ticks_Phase_8,303,5,42,127,1371229604
84,10,22,Ticks_Phase_8,304,1,48,19,1371997148
84,10,22,Ticks_Phase_8,305,5,42,127,1372030288
84,10,22,Ticks_Phase_8,306,1,48,20,1372712892
84,10,22,Ticks_Phase_8,307,5,42,127,1372829984
84,10,22,Ticks_Phase_8,308,1,48,21,1373570300
84,10,22,Ticks_Phase_8,309,5,42,127,1373629788
84,10,22,Ticks_Phase_8,310,1,48,18,1374410000
84,10,22,Ticks_Phase_8,311,5,42,127,1374429572
84,10,22,Ticks_Phase_8,312,1,48,16,1375216820
84,10,22,Ticks_Phase_8,313,5,42,127,1375230556
84,10,22,Ticks_Phase_8,314,1,48,24,1376003576
84,10,22,Ticks_Phase_8,315,5,42,127,1376030044
84,10,22,Ticks_Phase_8,316,1,48,22,1376829640
84,10,22,Ticks_Phase_8,317,5,42,127,1376831052
84,10,22,Ticks_Phase_8,318,5,42,127,1377629648
84,10,22,Ticks_Phase_8,319,1,48,21,1377643324
84,10,22,Ticks_Phase_8,320,1,48,20,1378394044
84,10,22,Ticks_Phase_8,321,5,42,127,1378430696
84,10,22,Ticks_Phase_8,322,1,48,21,1379204840
84,10,22,Ticks_Phase_8,323,5,42,127,1379230036
84,10,22,Ticks_Phase_8,324,1,48,21,1379985680
84,10,22,Ticks_Phase_8,325,5,42,127,1380029896
84,10,22,Ticks_Phase_8,326,1,48,22,1380790564
84,10,22,Ticks_Phase_8,327,5,42,127,1380829536
84,10,22,Ticks_Phase_8,328,1,48,20,1381573648
84,10,22,Ticks_Phase_8,329,5,42,127,1381630664
84,10,22,Ticks_Phase_8,330,1,48,25,1382402936
84,10,22,Ticks_Phase_8,331,5,42,127,1382430004
84,10,22,Ticks_Phase_8,332,1,48,22,1383194860
84,10,22,Ticks_Phase_8,333,5,42,127,1383229744
84,10,22,Ticks_Phase_8,334,1,48,18,1384007936
84,10,22,Ticks_Phase_8,335,5,42,127,1384029528
84,10,22,Ticks_Phase_8,0,9999,9999,9999,1248827456
84,10,22,Ticks_Phase_8,1,9999,9999,9999,1249627244
84,10,22,Ticks_Phase_8,2,9999,9999,9999,1250428000
84,10,22,Ticks_Phase_8,3,9999,9999,9999,1251227736
84,10,22,Ticks_Phase_8,4,9999,9999,9999,1252027448
84,10,22,Ticks_Phase_8,5,9999,9999,9999,1252827232
84,10,22,Ticks_Phase_8,6,9999,9999,9999,1253627992
84,10,22,Ticks_Phase_8,7,9999,9999,9999,1254427772
84,10,22,Ticks_Phase_8,8,9999,9999,9999,1255227508
84,10,22,Ticks_Phase_8,9,9999,9999,9999,1256027216
84,10,22,Ticks_Phase_8,10,9999,9999,9999,1256827976
84,10,22,Ticks_Phase_8,11,9999,9999,9999,1257627764
84,10,22,Ticks_Phase_8,12,9999,9999,9999,1258427476
84,10,22,Ticks_Phase_8,13,9999,9999,9999,1259227260
84,10,22,Ticks_Phase_8,14,9999,9999,9999,1260028020
84,10,22,Ticks_Phase_8,15,9999,9999,9999,1260827732
84,10,22,Ticks_Phase_8,16,9999,9999,9999,1261627468
84,10,22,Ticks_Phase_8,17,9999,9999,9999,1262427240
84,10,22,Ticks_Phase_8,18,9999,9999,9999,1263228012
84,10,22,Ticks_Phase_8,19,9999,9999,9999,1264027724
84,10,22,Ticks_Phase_8,20,9999,9999,9999,1264827496
84,10,22,Ticks_Phase_8,21,9999,9999,9999,1265627224
84,10,22,Ticks_Phase_8,22,9999,9999,9999,1266427980
84,10,22,Ticks_Phase_8,23,9999,9999,9999,1267227768
84,10,22,Ticks_Phase_8,24,9999,9999,9999,1268027500
84,10,22,Ticks_Phase_8,25,9999,9999,9999,1268827212
84,10,22,Ticks_Phase_8,26,9999,9999,9999,1269627972
84,10,22,Ticks_Phase_8,27,9999,9999,9999,1270427760
84,10,22,Ticks_Phase_8,28,9999,9999,9999,1271227472
84,10,22,Ticks_Phase_8,29,9999,9999,9999,1272027192
84,10,22,Ticks_Phase_8,30,9999,9999,9999,1272807504
84,10,22,Ticks_Phase_8,31,9999,9999,9999,1273607292
84,10,22,Ticks_Phase_8,32,9999,9999,9999,1274408044
84,10,22,Ticks_Phase_8,33,9999,9999,9999,1275207780
84,10,22,Ticks_Phase_8,34,9999,9999,9999,1276007492
84,10,22,Ticks_Phase_8,35,9999,9999,9999,1276807264
84,10,22,Ticks_Phase_8,36,9999,9999,9999,1277608036
84,10,22,Ticks_Phase_8,37,9999,9999,9999,1278407756
84,10,22,Ticks_Phase_8,38,9999,9999,9999,1279207520
84,10,22,Ticks_Phase_8,39,9999,9999,9999,1280007252
84,10,22,Ticks_Phase_8,40,9999,9999,9999,1280808008
84,10,22,Ticks_Phase_8,41,9999,9999,9999,1281607744
84,10,22,Ticks_Phase_8,42,9999,9999,9999,1282407536
84,10,22,Ticks_Phase_8,43,9999,9999,9999,1283207248
84,10,22,Ticks_Phase_8,44,9999,9999,9999,1284008004
84,10,22,Ticks_Phase_8,45,9999,9999,9999,1284807792
84,10,22,Ticks_Phase_8,46,9999,9999,9999,1285607504
84,10,22,Ticks_Phase_8,47,9999,9999,9999,1286407292
84,10,22,Ticks_Phase_8,48,9999,9999,9999,1287227468
84,10,22,Ticks_Phase_8,49,9999,9999,9999,1288027252
84,10,22,Ticks_Phase_8,50,9999,9999,9999,1288828012
84,10,22,Ticks_Phase_8,51,9999,9999,9999,1289627708
84,10,22,Ticks_Phase_8,52,9999,9999,9999,1290427508
84,10,22,Ticks_Phase_8,53,9999,9999,9999,1291227220
84,10,22,Ticks_Phase_8,54,9999,9999,9999,1292027980
84,10,22,Ticks_Phase_8,55,9999,9999,9999,1292827768
84,10,22,Ticks_Phase_8,56,9999,9999,9999,1293627504
84,10,22,Ticks_Phase_8,57,9999,9999,9999,1294427220
84,10,22,Ticks_Phase_8,58,9999,9999,9999,1295227976
84,10,22,Ticks_Phase_8,59,9999,9999,9999,1296027760
84,10,22,Ticks_Phase_8,60,9999,9999,9999,1296827472
84,10,22,Ticks_Phase_8,61,9999,9999,9999,1297627260
84,10,22,Ticks_Phase_8,62,9999,9999,9999,1298428016
84,10,22,Ticks_Phase_8,63,9999,9999,9999,1299227728
84,10,22,Ticks_Phase_8,64,9999,9999,9999,1300067456
84,10,22,Ticks_Phase_8,65,9999,9999,9999,1300867168
84,10,22,Ticks_Phase_8,66,9999,9999,9999,1301667928
84,10,22,Ticks_Phase_8,67,9999,9999,9999,1302467636
84,10,22,Ticks_Phase_8,68,9999,9999,9999,1303267408
84,10,22,Ticks_Phase_8,69,9999,9999,9999,1304067136
84,10,22,Ticks_Phase_8,70,9999,9999,9999,1304867896
84,10,22,Ticks_Phase_8,71,9999,9999,9999,1305667708
84,10,22,Ticks_Phase_8,72,9999,9999,9999,1306467404
84,10,22,Ticks_Phase_8,73,9999,9999,9999,1307267132
84,10,22,Ticks_Phase_8,74,9999,9999,9999,1308067964
84,10,22,Ticks_Phase_8,75,9999,9999,9999,1308867676
84,10,22,Ticks_Phase_8,76,9999,9999,9999,1309667388
84,10,22,Ticks_Phase_8,77,9999,9999,9999,1310467172
84,10,22,Ticks_Phase_8,78,9999,9999,9999,1311267932
84,10,22,Ticks_Phase_8,79,9999,9999,9999,1312067676
84,10,22,Ticks_Phase_8,80,9999,9999,9999,1312867384
84,10,22,Ticks_Phase_8,81,9999,9999,9999,1313627260
84,10,22,Ticks_Phase_8,82,9999,9999,9999,1314427960
84,10,22,Ticks_Phase_8,83,9999,9999,9999,1315227744
84,10,22,Ticks_Phase_8,84,9999,9999,9999,1316027456
84,10,22,Ticks_Phase_8,85,9999,9999,9999,1316827248
84,10,22,Ticks_Phase_8,86,9999,9999,9999,1317628000
84,10,22,Ticks_Phase_8,87,9999,9999,9999,1318427712
84,10,22,Ticks_Phase_8,88,9999,9999,9999,1319227456
84,10,22,Ticks_Phase_8,89,9999,9999,9999,1320027240
84,10,22,Ticks_Phase_8,90,9999,9999,9999,1320828000
84,10,22,Ticks_Phase_8,91,9999,9999,9999,1321627760
84,10,22,Ticks_Phase_8,92,9999,9999,9999,1322427516
84,10,22,Ticks_Phase_8,93,9999,9999,9999,1323227228
84,10,22,Ticks_Phase_8,94,9999,9999,9999,1324027988
84,10,22,Ticks_Phase_8,95,9999,9999,9999,1324827772
84,10,22,Ticks_Phase_8,96,9999,9999,9999,1325627512
84,10,22,Ticks_Phase_8,97,9999,9999,9999,1326347376
84,10,22,Ticks_Phase_8,98,9999,9999,9999,1327147080
84,10,22,Ticks_Phase_8,99,9999,9999,9999,1327947864
84,10,22,Ticks_Phase_8,100,9999,9999,9999,1328747576
84,10,22,Ticks_Phase_8,101,9999,9999,9999,1329547344
84,10,22,Ticks_Phase_8,102,9999,9999,9999,1330347072
84,10,22,Ticks_Phase_8,103,9999,9999,9999,1331147832
84,10,22,Ticks_Phase_8,104,9999,9999,9999,1331947616
84,10,22,Ticks_Phase_8,105,9999,9999,9999,1332747328
84,10,22,Ticks_Phase_8,106,9999,9999,9999,1333547116
84,10,22,Ticks_Phase_8,107,9999,9999,9999,1334347900
84,10,22,Ticks_Phase_8,108,9999,9999,9999,1335147612
84,10,22,Ticks_Phase_8,109,9999,9999,9999,1335947380
84,10,22,Ticks_Phase_8,110,9999,9999,9999,1336747108
84,10,22,Ticks_Phase_8,111,9999,9999,9999,1337547872
84,10,22,Ticks_Phase_8,112,9999,9999,9999,1338347584
84,10,22,Ticks_Phase_8,113,9999,9999,9999,1339147364
84,10,22,Ticks_Phase_8,114,9999,9999,9999,1340028032
84,10,22,Ticks_Phase_8,115,9999,9999,9999,1340827764
84,10,22,Ticks_Phase_8,116,9999,9999,9999,1341627480
84,10,22,Ticks_Phase_8,117,9999,9999,9999,1342427260
84,10,22,Ticks_Phase_8,118,9999,9999,9999,1343227996
84,10,22,Ticks_Phase_8,119,9999,9999,9999,1344027704
84,10,22,Ticks_Phase_8,120,9999,9999,9999,1344827516
84,10,22,Ticks_Phase_8,121,9999,9999,9999,1345627228
84,10,22,Ticks_Phase_8,122,9999,9999,9999,1346427984
84,10,22,Ticks_Phase_8,123,9999,9999,9999,1347227772
84,10,22,Ticks_Phase_8,124,9999,9999,9999,1348027484
84,10,22,Ticks_Phase_8,125,9999,9999,9999,1348827192
84,10,22,Ticks_Phase_8,126,9999,9999,9999,1349628028
84,10,22,Ticks_Phase_8,127,9999,9999,9999,1350427740
84,10,22,Ticks_Phase_8,128,9999,9999,9999,1351227476
84,10,22,Ticks_Phase_8,129,9999,9999,9999,1352027196
84,10,22,Ticks_Phase_8,130,9999,9999,9999,1352828020
84,10,22,Ticks_Phase_8,131,9999,9999,9999,1353787476
84,10,22,Ticks_Phase_8,132,9999,9999,9999,1354587212
84,10,22,Ticks_Phase_8,133,9999,9999,9999,1355387972
84,10,22,Ticks_Phase_8,134,9999,9999,9999,1356187756
84,10,22,Ticks_Phase_8,135,9999,9999,9999,1356987460
84,10,22,Ticks_Phase_8,136,9999,9999,9999,1357787252
84,10,22,Ticks_Phase_8,137,9999,9999,9999,1358588012
84,10,22,Ticks_Phase_8,138,9999,9999,9999,1359387724
84,10,22,Ticks_Phase_8,139,9999,9999,9999,1360187460
84,10,22,Ticks_Phase_8,140,9999,9999,9999,1360987260
84,10,22,Ticks_Phase_8,141,9999,9999,9999,1361788020
84,10,22,Ticks_Phase_8,142,9999,9999,9999,1362587712
84,10,22,Ticks_Phase_8,143,9999,9999,9999,1363387516
84,10,22,Ticks_Phase_8,144,9999,9999,9999,1364187228
84,10,22,Ticks_Phase_8,145,9999,9999,9999,1364987988
84,10,22,Ticks_Phase_8,146,9999,9999,9999,1365787772
84,10,22,Ticks_Phase_8,147,9999,9999,9999,1366587508
84,10,22,Ticks_Phase_8,148,9999,9999,9999,1367387220
84,10,22,Ticks_Phase_8,149,9999,9999,9999,1368187980
84,10,22,Ticks_Phase_8,150,9999,9999,9999,1368828012
84,10,22,Ticks_Phase_8,151,9999,9999,9999,1369627720
84,10,22,Ticks_Phase_8,152,9999,9999,9999,1370427456
84,10,22,Ticks_Phase_8,153,9999,9999,9999,1371227240
84,10,22,Ticks_Phase_8,154,9999,9999,9999,1372028000
84,10,22,Ticks_Phase_8,155,9999,9999,9999,1372827772
84,10,22,Ticks_Phase_8,156,9999,9999,9999,1373627500
84,10,22,Ticks_Phase_8,157,9999,9999,9999,1374427212
84,10,22,Ticks_Phase_8,158,9999,9999,9999,1375227972
84,10,22,Ticks_Phase_8,159,9999,9999,9999,1376027756
84,10,22,Ticks_Phase_8,160,9999,9999,9999,1376827504
84,10,22,Ticks_Phase_8,161,9999,9999,9999,1377627216
84,10,22,Ticks_Phase_8,162,9999,9999,9999,1378427964
84,10,22,Ticks_Phase_8,163,9999,9999,9999,1379227752
84,10,22,Ticks_Phase_8,164,9999,9999,9999,1380027460
84,10,22,Ticks_Phase_8,165,9999,9999,9999,1380827248
84,10,22,Ticks_Phase_8,166,9999,9999,9999,1381628008
84,10,22,Ticks_Phase_8,167,9999,9999,9999,1382427720
84,10,22,Ticks_Phase_8,168,9999,9999,9999,1383227456
84,10,22,Ticks_Phase_8,169,9999,9999,9999,1384027240
84,11,25,Jits_Pract_5,0,5,56,103,1430376796
84,11,25,Jits_Pract_5,1,5,63,98,1430379968
84,11,25,Jits_Pract_5,2,5,80,127,1430383088
84,11,25,Jits_Pract_5,0,5,56,103,1430876596
84,11,25,Jits_Pract_5,1,5,63,98,1430879844
84,11,25,Jits_Pract_5,2,5,80,127,1430882888
84,11,25,Jits_Pract_5,0,5,56,103,1431377460
84,11,25,Jits_Pract_5,1,5,80,127,1431386612
84,11,25,Jits_Pract_5,2,5,63,98,1431406924
84,11,25,Jits_Pract_5,0,5,63,98,1431826688
84,11,25,Jits_Pract_5,1,5,80,127,1431856388
84,11,25,Jits_Pract_5,2,5,56,103,1431866884
84,11,25,Jits_Pract_5,0,5,80,127,1432387052
84,11,25,Jits_Pract_5,1,5,56,103,1432397396
84,11,25,Jits_Pract_5,2,5,63,98,1432426772
84,11,25,Jits_Pract_5,0,5,63,98,1432877876
84,11,25,Jits_Pract_5,1,5,56,103,1432907400
84,11,25,Jits_Pract_5,2,5,80,127,1432917448
84,11,25,Jits_Pract_5,0,5,56,103,1433327088
84,11,25,Jits_Pract_5,1,5,63,98,1433377216
84,11,25,Jits_Pract_5,2,5,80,127,1433396580
84,11,25,Jits_Pract_5,0,5,80,127,1433826756
84,11,25,Jits_Pract_5,1,5,63,98,1433876812
84,11,25,Jits_Pract_5,2,5,56,103,1433916772
84,11,25,Jits_Pract_5,0,5,56,103,1434327472
84,11,25,Jits_Pract_5,1,5,63,98,1434357224
84,11,25,Jits_Pract_5,2,5,80,127,1434426776
84,11,25,Jits_Pract_5,0,5,56,103,1434827064
84,11,25,Jits_Pract_5,1,5,80,127,1434886484
84,11,25,Jits_Pract_5,2,5,63,98,1434917352
84,11,25,Jits_Pract_5,0,5,56,103,1435337076
84,11,25,Jits_Pract_5,1,5,63,98,1435347568
84,11,25,Jits_Pract_5,2,5,80,127,1435387356
84,11,25,Jits_Pract_5,0,5,63,98,1435826476
84,11,25,Jits_Pract_5,1,5,80,127,1435906348
84,11,25,Jits_Pract_5,2,5,56,103,1435916768
84,11,25,Jits_Pract_5,0,5,63,98,1436376556
84,11,25,Jits_Pract_5,1,5,56,103,1436417464
84,11,25,Jits_Pract_5,2,5,80,127,1436420604
84,11,25,Jits_Pract_5,0,5,56,103,1436837468
84,11,25,Jits_Pract_5,1,5,63,98,1436846468
84,11,25,Jits_Pract_5,2,5,80,127,1436887304
84,11,25,Jits_Pract_5,0,5,56,103,1437326644
84,11,25,Jits_Pract_5,1,5,63,98,1437329636
84,11,25,Jits_Pract_5,2,5,80,127,1437347472
84,11,25,Jits_Pract_5,0,9999,9999,9999,1430624308
84,11,25,Jits_Pract_5,1,9999,9999,9999,1431125080
84,11,25,Jits_Pract_5,2,9999,9999,9999,1431624756
84,11,25,Jits_Pract_5,3,9999,9999,9999,1432124496
84,11,25,Jits_Pract_5,4,9999,9999,9999,1432624232
84,11,25,Jits_Pract_5,5,9999,9999,9999,1433124920
84,11,25,Jits_Pract_5,6,9999,9999,9999,1433624648
84,11,25,Jits_Pract_5,7,9999,9999,9999,1434124392
84,11,25,Jits_Pract_5,8,9999,9999,9999,1434624060
84,11,25,Jits_Pract_5,9,9999,9999,9999,1435124852
84,11,25,Jits_Pract_5,10,9999,9999,9999,1435624520
84,11,25,Jits_Pract_5,11,9999,9999,9999,1436124264
84,11,25,Jits_Pract_5,12,9999,9999,9999,1436624960
84,11,25,Jits_Pract_5,13,9999,9999,9999,1437124688
84,11,25,Jits_Pract_5,14,9999,9999,9999,1437624416
84,12,25,Jits_Pract_5,0,5,56,103,1485268420
84,12,25,Jits_Pract_5,1,5,63,98,1485271672
84,12,25,Jits_Pract_5,2,5,80,127,1485274716
84,12,25,Jits_Pract_5,0,5,56,103,1485768000
84,12,25,Jits_Pract_5,1,5,63,98,1485771320
84,12,25,Jits_Pract_5,2,5,80,127,1485774364
84,12,25,Jits_Pract_5,0,5,56,103,1486267664
84,12,25,Jits_Pract_5,1,1,48,28,1486274820
84,12,25,Jits_Pract_5,2,5,80,127,1486278448
84,12,25,Jits_Pract_5,3,5,63,98,1486297412
84,12,25,Jits_Pract_5,0,5,63,98,1486718520
84,12,25,Jits_Pract_5,1,5,80,127,1486748120
84,12,25,Jits_Pract_5,2,5,56,103,1486758464
84,12,25,Jits_Pract_5,3,1,48,28,1486794092
84,12,25,Jits_Pract_5,0,1,48,25,1487260356
84,12,25,Jits_Pract_5,1,5,80,127,1487277468
84,12,25,Jits_Pract_5,2,5,56,103,1487287588
84,12,25,Jits_Pract_5,3,5,63,98,1487318384
84,12,25,Jits_Pract_5,0,5,63,98,1487767876
84,12,25,Jits_Pract_5,1,1,48,27,1487776844
84,12,25,Jits_Pract_5,2,5,56,103,1487797472
84,12,25,Jits_Pract_5,3,5,80,127,1487807964
84,12,25,Jits_Pract_5,0,5,56,103,1488217376
84,12,25,Jits_Pract_5,1,5,63,98,1488267504
84,12,25,Jits_Pract_5,2,1,48,28,1488275948
84,12,25,Jits_Pract_5,3,5,80,127,1488288400
84,12,25,Jits_Pract_5,0,5,80,127,1488718424
84,12,25,Jits_Pract_5,1,1,48,27,1488741320
84,12,25,Jits_Pract_5,2,5,63,98,1488768324
84,12,25,Jits_Pract_5,3,5,56,103,1488808260
84,12,25,Jits_Pract_5,0,5,56,103,1489217832
84,12,25,Jits_Pract_5,1,5,63,98,1489247732
84,12,25,Jits_Pract_5,2,1,48,29,1489253316
84,12,25,Jits_Pract_5,3,5,80,127,1489318152
84,12,25,Jits_Pract_5,0,5,56,103,1489717612
84,12,25,Jits_Pract_5,1,1,48,27,1489761932
84,12,25,Jits_Pract_5,2,5,80,127,1489778296
84,12,25,Jits_Pract_5,3,5,63,98,1489807820
84,12,25,Jits_Pract_5,0,5,56,103,1490227432
84,12,25,Jits_Pract_5,1,5,63,98,1490238000
84,12,25,Jits_Pract_5,2,1,48,26,1490244184
84,12,25,Jits_Pract_5,3,5,80,127,1490277860
84,12,25,Jits_Pract_5,0,5,63,98,1490718264
84,12,25,Jits_Pract_5,1,1,48,26,1490733764
84,12,25,Jits_Pract_5,2,5,80,127,1490798156
84,12,25,Jits_Pract_5,3,5,56,103,1490808128
84,12,25,Jits_Pract_5,0,1,48,24,1491250472
84,12,25,Jits_Pract_5,1,5,63,98,1491267880
84,12,25,Jits_Pract_5,2,5,56,103,1491307740
84,12,25,Jits_Pract_5,3,5,80,127,1491311108
84,12,25,Jits_Pract_5,0,5,56,103,1491727764
84,12,25,Jits_Pract_5,1,5,63,98,1491738404
84,12,25,Jits_Pract_5,2,1,48,29,1491762148
84,12,25,Jits_Pract_5,3,5,80,127,1491778064
84,12,25,Jits_Pract_5,0,5,56,103,1492218320
84,12,25,Jits_Pract_5,1,5,63,98,1492221240
84,12,25,Jits_Pract_5,2,1,48,26,1492224284
84,12,25,Jits_Pract_5,3,5,80,127,1492237656
84,12,25,Jits_Pract_5,0,9999,9999,9999,1485515856
84,12,25,Jits_Pract_5,1,9999,9999,9999,1486015580
84,12,25,Jits_Pract_5,2,9999,9999,9999,1486515304
84,12,25,Jits_Pract_5,3,9999,9999,9999,1487016052
84,12,25,Jits_Pract_5,4,9999,9999,9999,1487515748
84,12,25,Jits_Pract_5,5,9999,9999,9999,1488015444
84,12,25,Jits_Pract_5,6,9999,9999,9999,1488515136
84,12,25,Jits_Pract_5,7,9999,9999,9999,1489015888
84,12,25,Jits_Pract_5,8,9999,9999,9999,1489515592
84,12,25,Jits_Pract_5,9,9999,9999,9999,1490015300
84,12,25,Jits_Pract_5,10,9999,9999,9999,1490516048
84,12,25,Jits_Pract_5,11,9999,9999,9999,1491015756
84,12,25,Jits_Pract_5,12,9999,9999,9999,1491515444
84,12,25,Jits_Pract_5,13,9999,9999,9999,1492015208
84,12,25,Jits_Pract_5,14,9999,9999,9999,1492515920
84,13,24,Jits_Pract_8,0,5,56,103,1500917216
84,13,24,Jits_Pract_8,1,5,63,98,1500920392
84,13,24,Jits_Pract_8,2,5,80,127,1500923508
84,13,24,Jits_Pract_8,0,5,56,103,1501717160
84,13,24,Jits_Pract_8,1,5,63,98,1501720032
84,13,24,Jits_Pract_8,2,5,80,127,1501723152
84,13,24,Jits_Pract_8,3,1,48,21,1501908792
84,13,24,Jits_Pract_8,0,5,80,127,1502457284
84,13,24,Jits_Pract_8,1,5,63,98,1502547220
84,13,24,Jits_Pract_8,2,5,56,103,1502556520
84,13,24,Jits_Pract_8,3,1,48,21,1502614856
84,13,24,Jits_Pract_8,0,5,56,103,1503277464
84,13,24,Jits_Pract_8,1,5,63,98,1503286984
84,13,24,Jits_Pract_8,2,1,48,19,1503334068
84,13,24,Jits_Pract_8,3,5,80,127,1503376880
84,13,24,Jits_Pract_8,0,5,63,98,1504046440
84,13,24,Jits_Pract_8,1,5,80,127,1504077164
84,13,24,Jits_Pract_8,2,1,48,19,1504089128
84,13,24,Jits_Pract_8,3,5,56,103,1504107052
84,13,24,Jits_Pract_8,0,1,48,20,1504823000
84,13,24,Jits_Pract_8,1,5,56,103,1504847232
84,13,24,Jits_Pract_8,2,5,80,127,1504946644
84,13,24,Jits_Pract_8,3,5,63,98,1504996920
84,13,24,Jits_Pract_8,0,5,56,103,1505647072
84,13,24,Jits_Pract_8,1,1,48,21,1505681656
84,13,24,Jits_Pract_8,2,5,80,127,1505697192
84,13,24,Jits_Pract_8,3,5,63,98,1505737052
84,13,24,Jits_Pract_8,0,1,48,26,1506456624
84,13,24,Jits_Pract_8,1,5,80,127,1506477400
84,13,24,Jits_Pract_8,2,5,63,98,1506507148
84,13,24,Jits_Pract_8,3,5,56,103,1506576888
84,13,24,Jits_Pract_8,0,1,48,30,1507278780
84,13,24,Jits_Pract_8,1,5,63,98,1507306756
84,13,24,Jits_Pract_8,2,5,56,103,1507336656
84,13,24,Jits_Pract_8,3,5,80,127,1507396980
84,13,24,Jits_Pract_8,0,5,56,103,1508047104
84,13,24,Jits_Pract_8,1,5,80,127,1508050252
84,13,24,Jits_Pract_8,2,1,48,30,1508067392
84,13,24,Jits_Pract_8,3,5,63,98,1508166988
84,13,24,Jits_Pract_8,0,1,48,29,1508844672
84,13,24,Jits_Pract_8,1,5,56,103,1508926904
84,13,24,Jits_Pract_8,2,5,80,127,1508966904
84,13,24,Jits_Pract_8,3,5,63,98,1508977172
84,13,24,Jits_Pract_8,0,5,56,103,1509686740
84,13,24,Jits_Pract_8,1,5,80,127,1509706976
84,13,24,Jits_Pract_8,2,1,48,27,1509709720
84,13,24,Jits_Pract_8,3,5,63,98,1509787060
84,13,24,Jits_Pract_8,0,5,80,127,1510477224
84,13,24,Jits_Pract_8,1,1,48,23,1510489188
84,13,24,Jits_Pract_8,2,5,56,103,1510576640
84,13,24,Jits_Pract_8,3,5,63,98,1510586896
84,13,24,Jits_Pract_8,0,5,63,98,1511247180
84,13,24,Jits_Pract_8,1,5,80,127,1511306600
84,13,24,Jits_Pract_8,2,5,56,103,1511316944
84,13,24,Jits_Pract_8,3,1,48,31,1511340140
84,13,24,Jits_Pract_8,0,5,56,103,1512047076
84,13,24,Jits_Pract_8,1,1,48,23,1512067804
84,13,24,Jits_Pract_8,2,5,63,98,1512116824
84,13,24,Jits_Pract_8,3,5,80,127,1512120040
84,13,24,Jits_Pract_8,0,9999,9999,9999,1501314124
84,13,24,Jits_Pract_8,1,9999,9999,9999,1502114936
84,13,24,Jits_Pract_8,2,9999,9999,9999,1502914636
84,13,24,Jits_Pract_8,3,9999,9999,9999,1503714408
84,13,24,Jits_Pract_8,4,9999,9999,9999,1504514100
84,13,24,Jits_Pract_8,5,9999,9999,9999,1505314908
84,13,24,Jits_Pract_8,6,9999,9999,9999,1506114680
84,13,24,Jits_Pract_8,7,9999,9999,9999,1506914380
84,13,24,Jits_Pract_8,8,9999,9999,9999,1507714144
84,13,24,Jits_Pract_8,9,9999,9999,9999,1508514936
84,13,24,Jits_Pract_8,10,9999,9999,9999,1509314640
84,13,24,Jits_Pract_8,11,9999,9999,9999,1510114400
84,13,24,Jits_Pract_8,12,9999,9999,9999,1510914100
84,13,24,Jits_Pract_8,13,9999,9999,9999,1511714916
84,13,24,Jits_Pract_8,14,9999,9999,9999,1512514676
84,14,19,Jits_Linear_5,0,5,56,103,1543232060
84,14,19,Jits_Linear_5,1,5,63,98,1543235160
84,14,19,Jits_Linear_5,2,5,80,127,1543238280
84,14,19,Jits_Linear_5,0,5,56,103,1543712048
84,14,19,Jits_Linear_5,1,5,63,98,1543715068
84,14,19,Jits_Linear_5,2,5,80,127,1543718268
84,14,19,Jits_Linear_5,3,1,48,15,1543774612
84,14,19,Jits_Linear_5,0,5,56,103,1544192416
84,14,19,Jits_Linear_5,1,5,80,127,1544201564
84,14,19,Jits_Linear_5,2,5,63,98,1544222096
84,14,19,Jits_Linear_5,3,1,48,16,1544230096
84,14,19,Jits_Linear_5,0,5,63,98,1544621388
84,14,19,Jits_Linear_5,1,5,80,127,1544652112
84,14,19,Jits_Linear_5,2,5,56,103,1544662532
84,14,19,Jits_Linear_5,3,1,48,19,1544732180
84,14,19,Jits_Linear_5,0,1,48,23,1545151460
84,14,19,Jits_Linear_5,1,5,80,127,1545162048
84,14,19,Jits_Linear_5,2,5,56,103,1545172396
84,14,19,Jits_Linear_5,3,5,63,98,1545202072
84,14,19,Jits_Linear_5,0,1,48,20,1545640832
84,14,19,Jits_Linear_5,1,5,63,98,1545642264
84,14,19,Jits_Linear_5,2,5,56,103,1545672240
84,14,19,Jits_Linear_5,3,5,80,127,1545682360
84,14,19,Jits_Linear_5,0,5,56,103,1546081648
84,14,19,Jits_Linear_5,1,5,63,98,1546132000
84,14,19,Jits_Linear_5,2,1,48,26,1546149948
84,14,19,Jits_Linear_5,3,5,80,127,1546152452
84,14,19,Jits_Linear_5,0,5,80,127,1546572056
84,14,19,Jits_Linear_5,1,1,48,27,1546608664
84,14,19,Jits_Linear_5,2,5,63,98,1546622332
84,14,19,Jits_Linear_5,3,5,56,103,1546662120
84,14,19,Jits_Linear_5,0,5,56,103,1547061496
84,14,19,Jits_Linear_5,1,5,63,98,1547092224
84,14,19,Jits_Linear_5,2,1,48,25,1547105228
84,14,19,Jits_Linear_5,3,5,80,127,1547162048
84,14,19,Jits_Linear_5,0,5,56,103,1547552108
84,14,19,Jits_Linear_5,1,1,48,23,1547606792
84,14,19,Jits_Linear_5,2,5,80,127,1547611620
84,14,19,Jits_Linear_5,3,5,63,98,1547642196
84,14,19,Jits_Linear_5,0,5,56,103,1548062224
84,14,19,Jits_Linear_5,1,5,63,98,1548072220
84,14,19,Jits_Linear_5,2,1,48,26,1548099528
84,14,19,Jits_Linear_5,3,5,80,127,1548112228
84,14,19,Jits_Linear_5,0,5,63,98,1548551584
84,14,19,Jits_Linear_5,1,1,48,26,1548573812
84,14,19,Jits_Linear_5,2,5,80,127,1548632524
84,14,19,Jits_Linear_5,3,5,56,103,1548641600
84,14,19,Jits_Linear_5,0,1,48,23,1549078356
84,14,19,Jits_Linear_5,1,5,63,98,1549101420
84,14,19,Jits_Linear_5,2,5,56,103,1549142408
84,14,19,Jits_Linear_5,3,5,80,127,1549145476
84,14,19,Jits_Linear_5,0,5,56,103,1549562196
84,14,19,Jits_Linear_5,1,5,63,98,1549571424
84,14,19,Jits_Linear_5,2,1,48,25,1549582036
84,14,19,Jits_Linear_5,3,5,80,127,1549612352
84,14,19,Jits_Linear_5,0,1,48,29,1550049344
84,14,19,Jits_Linear_5,1,5,56,103,1550051920
84,14,19,Jits_Linear_5,2,5,63,98,1550054764
84,14,19,Jits_Linear_5,3,5,80,127,1550072380
84,14,19,Jits_Linear_5,0,1,48,27,1550521460
84,14,19,Jits_Linear_5,1,5,80,127,1550572052
84,14,19,Jits_Linear_5,2,5,56,103,1550582172
84,14,19,Jits_Linear_5,3,5,63,98,1550651868
84,14,19,Jits_Linear_5,0,1,48,24,1551030208
84,14,19,Jits_Linear_5,1,5,63,98,1551071664
84,14,19,Jits_Linear_5,2,5,56,103,1551091980
84,14,19,Jits_Linear_5,3,5,80,127,1551171936
84,14,19,Jits_Linear_5,0,1,48,27,1551519692
84,14,19,Jits_Linear_5,1,5,56,103,1551591812
84,14,19,Jits_Linear_5,2,5,80,127,1551631664
84,14,19,Jits_Linear_5,3,5,63,98,1551642156
84,14,19,Jits_Linear_5,0,1,48,27,1552042400
84,14,19,Jits_Linear_5,1,5,80,127,1552091504
84,14,19,Jits_Linear_5,2,5,63,98,1552122080
84,14,19,Jits_Linear_5,3,5,56,103,1552162076
84,14,19,Jits_Linear_5,0,1,48,24,1552593260
84,14,19,Jits_Linear_5,1,5,56,103,1552622056
84,14,19,Jits_Linear_5,2,5,63,98,1552651660
84,14,19,Jits_Linear_5,3,5,80,127,1552702020
84,14,19,Jits_Linear_5,0,1,48,28,1553105232
84,14,19,Jits_Linear_5,1,5,80,127,1553132084
84,14,19,Jits_Linear_5,2,5,56,103,1553171952
84,14,19,Jits_Linear_5,3,5,63,98,1553182148
84,14,19,Jits_Linear_5,0,1,48,27,1553628668
84,14,19,Jits_Linear_5,1,5,80,127,1553631552
84,14,19,Jits_Linear_5,2,5,63,98,1553671420
84,14,19,Jits_Linear_5,3,5,56,103,1553731896
84,14,19,Jits_Linear_5,0,1,48,24,1554118312
84,14,19,Jits_Linear_5,1,5,56,103,1554151988
84,14,19,Jits_Linear_5,2,5,80,127,1554162036
84,14,19,Jits_Linear_5,3,5,63,98,1554241916
84,14,19,Jits_Linear_5,0,1,48,29,1554662356
84,14,19,Jits_Linear_5,1,5,80,127,1554671976
84,14,19,Jits_Linear_5,2,5,63,98,1554732468
84,14,19,Jits_Linear_5,3,5,56,103,1554761996
84,14,19,Jits_Linear_5,0,1,48,29,1555180328
84,14,19,Jits_Linear_5,1,5,56,103,1555192264
84,14,19,Jits_Linear_5,2,5,80,127,1555251488
84,14,19,Jits_Linear_5,3,5,63,98,1555291412
84,14,19,Jits_Linear_5,0,1,48,26,1555715600
84,14,19,Jits_Linear_5,1,5,56,103,1555771996
84,14,19,Jits_Linear_5,2,5,63,98,1555782044
84,14,19,Jits_Linear_5,3,5,80,127,1555785556
84,14,19,Jits_Linear_5,0,1,48,24,1556236852
84,14,19,Jits_Linear_5,1,5,80,127,1556252020
84,14,19,Jits_Linear_5,2,5,63,98,1556342168
84,14,19,Jits_Linear_5,3,5,56,103,1556352588
84,14,19,Jits_Linear_5,0,1,48,28,1556745392
84,14,19,Jits_Linear_5,1,5,56,103,1556781540
84,14,19,Jits_Linear_5,2,5,63,98,1556784864
84,14,19,Jits_Linear_5,3,5,80,127,1556788060
84,14,19,Jits_Linear_5,0,1,48,24,1557223548
84,14,19,Jits_Linear_5,1,5,80,127,1557332300
84,14,19,Jits_Linear_5,2,5,63,98,1557381384
84,14,19,Jits_Linear_5,3,5,56,103,1557412108
84,14,19,Jits_Linear_5,0,1,48,21,1557756796
84,14,19,Jits_Linear_5,1,5,56,103,1557842268
84,14,19,Jits_Linear_5,2,5,80,127,1557851556
84,14,19,Jits_Linear_5,3,5,63,98,1557922284
84,14,19,Jits_Linear_5,0,1,48,26,1558278436
84,14,19,Jits_Linear_5,1,5,56,103,1558382028
84,14,19,Jits_Linear_5,2,5,63,98,1558402416
84,14,19,Jits_Linear_5,3,5,80,127,1558461908
84,14,19,Jits_Linear_5,0,1,48,29,1558848348
84,14,19,Jits_Linear_5,1,5,80,127,1558912372
84,14,19,Jits_Linear_5,2,5,63,98,1558981892
84,14,19,Jits_Linear_5,3,5,56,103,1559001380
84,14,19,Jits_Linear_5,0,1,48,31,1559375612
84,14,19,Jits_Linear_5,1,5,80,127,1559471400
84,14,19,Jits_Linear_5,2,5,56,103,1559481880
84,14,19,Jits_Linear_5,3,5,63,98,1559492076
84,14,19,Jits_Linear_5,0,1,48,32,1559926616
84,14,19,Jits_Linear_5,1,5,80,127,1560002024
84,14,19,Jits_Linear_5,2,5,56,103,1560022336
84,14,19,Jits_Linear_5,3,5,63,98,1560092004
84,14,19,Jits_Linear_5,0,1,48,31,1560421144
84,14,19,Jits_Linear_5,1,5,56,103,1560551824
84,14,19,Jits_Linear_5,2,5,80,127,1560581424
84,14,19,Jits_Linear_5,3,5,63,98,1560602108
84,14,19,Jits_Linear_5,0,1,48,26,1561028860
84,14,19,Jits_Linear_5,1,5,63,98,1561091312
84,14,19,Jits_Linear_5,2,5,56,103,1561151940
84,14,19,Jits_Linear_5,3,5,80,127,1561181692
84,14,19,Jits_Linear_5,0,1,48,27,1561609636
84,14,19,Jits_Linear_5,1,5,63,98,1561632132
84,14,19,Jits_Linear_5,2,5,80,127,1561635344
84,14,19,Jits_Linear_5,3,5,56,103,1561722200
84,14,19,Jits_Linear_5,0,1,48,25,1562162672
84,14,19,Jits_Linear_5,1,5,56,103,1562201732
84,14,19,Jits_Linear_5,2,5,63,98,1562232088
84,14,19,Jits_Linear_5,3,5,80,127,1562272012
84,14,19,Jits_Linear_5,0,1,48,25,1562708656
84,14,19,Jits_Linear_5,1,5,63,98,1562752372
84,14,19,Jits_Linear_5,2,5,56,103,1562792240
84,14,19,Jits_Linear_5,3,5,80,127,1562811636
84,14,19,Jits_Linear_5,0,1,48,28,1563264616
84,14,19,Jits_Linear_5,1,5,63,98,1563311624
84,14,19,Jits_Linear_5,2,5,56,103,1563352684
84,14,19,Jits_Linear_5,3,5,80,127,1563362568
84,14,19,Jits_Linear_5,0,5,80,127,1563841960
84,14,19,Jits_Linear_5,1,1,48,29,1563849960
84,14,19,Jits_Linear_5,2,5,63,98,1563911492
84,14,19,Jits_Linear_5,3,5,56,103,1563932024
84,14,19,Jits_Linear_5,0,5,56,103,1564402052
84,14,19,Jits_Linear_5,1,5,80,127,1564421688
84,14,19,Jits_Linear_5,2,1,48,28,1564434848
84,14,19,Jits_Linear_5,3,5,63,98,1564461496
84,14,19,Jits_Linear_5,0,1,48,27,1564939168
84,14,19,Jits_Linear_5,1,5,63,98,1564972496
84,14,19,Jits_Linear_5,2,5,80,127,1564991836
84,14,19,Jits_Linear_5,3,5,56,103,1565031920
84,14,19,Jits_Linear_5,0,1,48,27,1565506688
84,14,19,Jits_Linear_5,1,5,63,98,1565531744
84,14,19,Jits_Linear_5,2,5,56,103,1565552056
84,14,19,Jits_Linear_5,3,5,80,127,1565562328
84,14,19,Jits_Linear_5,0,1,48,29,1566024804
84,14,19,Jits_Linear_5,1,5,80,127,1566091812
84,14,19,Jits_Linear_5,2,5,56,103,1566112124
84,14,19,Jits_Linear_5,3,5,63,98,1566141936
84,14,19,Jits_Linear_5,0,1,48,27,1566610736
84,14,19,Jits_Linear_5,1,5,56,103,1566731744
84,14,19,Jits_Linear_5,2,5,80,127,1566734888
84,14,19,Jits_Linear_5,3,5,63,98,1566752060
84,14,19,Jits_Linear_5,0,5,63,98,1567222160
84,14,19,Jits_Linear_5,1,1,48,22,1567228572
84,14,19,Jits_Linear_5,2,5,56,103,1567251684
84,14,19,Jits_Linear_5,3,5,80,127,1567312100
84,14,19,Jits_Linear_5,0,1,48,24,1567748256
84,14,19,Jits_Linear_5,1,5,63,98,1567872296
84,14,19,Jits_Linear_5,2,5,56,103,1567881744
84,14,19,Jits_Linear_5,3,5,80,127,1567891868
84,14,19,Jits_Linear_5,0,1,48,18,1568294352
84,14,19,Jits_Linear_5,1,5,56,103,1568391484
84,14,19,Jits_Linear_5,2,5,80,127,1568422192
84,14,19,Jits_Linear_5,3,5,63,98,1568431568
84,14,19,Jits_Linear_5,0,1,48,15,1568885372
84,14,19,Jits_Linear_5,1,5,63,98,1569001820
84,14,19,Jits_Linear_5,2,5,56,103,1569011944
84,14,19,Jits_Linear_5,3,5,80,127,1569031880
84,14,19,Jits_Linear_5,0,1,48,31,1569441412
84,14,19,Jits_Linear_5,1,5,56,103,1569501752
84,14,19,Jits_Linear_5,2,5,63,98,1569561904
84,14,19,Jits_Linear_5,3,5,80,127,1569565196
84,14,19,Jits_Linear_5,0,1,48,28,1570023200
84,14,19,Jits_Linear_5,1,5,80,127,1570101848
84,14,19,Jits_Linear_5,2,5,56,103,1570111820
84,14,19,Jits_Linear_5,3,5,63,98,1570181564
84,14,19,Jits_Linear_5,0,1,48,27,1570596528
84,14,19,Jits_Linear_5,1,5,80,127,1570671888
84,14,19,Jits_Linear_5,2,5,56,103,1570741556
84,14,19,Jits_Linear_5,3,5,63,98,1570751976
84,14,19,Jits_Linear_5,0,1,48,30,1571152440
84,14,19,Jits_Linear_5,1,5,63,98,1571291888
84,14,19,Jits_Linear_5,2,5,56,103,1571301636
84,14,19,Jits_Linear_5,3,5,80,127,1571322168
84,14,19,Jits_Linear_5,0,1,48,24,1571785636
84,14,19,Jits_Linear_5,1,5,80,127,1571821932
84,14,19,Jits_Linear_5,2,5,63,98,1571882340
84,14,19,Jits_Linear_5,3,5,56,103,1571922280
84,14,19,Jits_Linear_5,0,1,48,29,1572356580
84,14,19,Jits_Linear_5,1,5,56,103,1572452600
84,14,19,Jits_Linear_5,2,5,63,98,1572461900
84,14,19,Jits_Linear_5,3,5,80,127,1572501764
84,14,19,Jits_Linear_5,0,1,48,30,1572969816
84,14,19,Jits_Linear_5,1,5,56,103,1573001456
84,14,19,Jits_Linear_5,2,5,80,127,1573032252
84,14,19,Jits_Linear_5,3,5,63,98,1573081540
84,14,19,Jits_Linear_5,0,1,48,27,1573585540
84,14,19,Jits_Linear_5,1,5,56,103,1573632548
84,14,19,Jits_Linear_5,2,5,63,98,1573672512
84,14,19,Jits_Linear_5,3,5,80,127,1573675728
84,14,19,Jits_Linear_5,0,5,56,103,1574222244
84,14,19,Jits_Linear_5,1,1,48,28,1574231764
84,14,19,Jits_Linear_5,2,5,63,98,1574233404
84,14,19,Jits_Linear_5,3,5,80,127,1574251772
84,14,19,Jits_Linear_5,0,5,56,103,1574771984
84,14,19,Jits_Linear_5,1,5,80,127,1574775132
84,14,19,Jits_Linear_5,2,1,48,29,1574798628
84,14,19,Jits_Linear_5,3,5,63,98,1574811996
84,14,19,Jits_Linear_5,0,1,48,24,1575346636
84,14,19,Jits_Linear_5,1,5,63,98,1575401740
84,14,19,Jits_Linear_5,2,5,56,103,1575431492
84,14,19,Jits_Linear_5,3,5,80,127,1575452008
84,14,19,Jits_Linear_5,0,1,48,28,1575942824
84,14,19,Jits_Linear_5,1,5,80,127,1575972292
84,14,19,Jits_Linear_5,2,5,56,103,1575981692
84,14,19,Jits_Linear_5,3,5,63,98,1575991592
84,14,19,Jits_Linear_5,0,1,48,30,1576543896
84,14,19,Jits_Linear_5,1,5,56,103,1576572616
84,14,19,Jits_Linear_5,2,5,80,127,1576612408
84,14,19,Jits_Linear_5,3,5,63,98,1576641996
84,14,19,Jits_Linear_5,0,1,48,29,1577170064
84,14,19,Jits_Linear_5,1,5,63,98,1577181472
84,14,19,Jits_Linear_5,2,5,80,127,1577191668
84,14,19,Jits_Linear_5,3,5,56,103,1577202088
84,14,19,Jits_Linear_5,0,5,56,103,1577762448
84,14,19,Jits_Linear_5,1,1,48,30,1577822464
84,14,19,Jits_Linear_5,2,5,63,98,1577831852
84,14,19,Jits_Linear_5,3,5,80,127,1577841900
84,14,19,Jits_Linear_5,0,1,48,20,1578334440
84,14,19,Jits_Linear_5,1,5,80,127,1578371404
84,14,19,Jits_Linear_5,2,5,56,103,1578381604
84,14,19,Jits_Linear_5,3,5,63,98,1578431792
84,14,19,Jits_Linear_5,0,1,48,24,1578974300
84,14,19,Jits_Linear_5,1,5,80,127,1578992008
84,14,19,Jits_Linear_5,2,5,56,103,1579052432
84,14,19,Jits_Linear_5,3,5,63,98,1579082240
84,14,19,Jits_Linear_5,0,1,48,24,1579572616
84,14,19,Jits_Linear_5,1,5,56,103,1579602380
84,14,19,Jits_Linear_5,2,5,80,127,1579605228
84,14,19,Jits_Linear_5,3,5,63,98,1579642172
84,14,19,Jits_Linear_5,0,1,48,28,1580158364
84,14,19,Jits_Linear_5,1,5,56,103,1580242240
84,14,19,Jits_Linear_5,2,5,63,98,1580271976
84,14,19,Jits_Linear_5,3,5,80,127,1580282320
84,14,19,Jits_Linear_5,0,1,48,20,1580808720
84,14,19,Jits_Linear_5,1,5,63,98,1580861756
84,14,19,Jits_Linear_5,2,5,80,127,1580871952
84,14,19,Jits_Linear_5,3,5,56,103,1580882520
84,14,19,Jits_Linear_5,0,5,80,127,1581421908
84,14,19,Jits_Linear_5,1,1,48,21,1581463688
84,14,19,Jits_Linear_5,2,5,56,103,1581472252
84,14,19,Jits_Linear_5,3,5,63,98,1581475096
84,14,19,Jits_Linear_5,0,1,48,22,1582061368
84,14,19,Jits_Linear_5,1,5,56,103,1582072404
84,14,19,Jits_Linear_5,2,5,80,127,1582091520
84,14,19,Jits_Linear_5,3,5,63,98,1582102016
84,14,19,Jits_Linear_5,0,1,48,26,1582657648
84,14,19,Jits_Linear_5,1,5,63,98,1582672364
84,14,19,Jits_Linear_5,2,5,56,103,1582701892
84,14,19,Jits_Linear_5,3,5,80,127,1582722428
84,14,19,Jits_Linear_5,0,1,48,25,1583244472
84,14,19,Jits_Linear_5,1,5,56,103,1583302040
84,14,19,Jits_Linear_5,2,5,80,127,1583312384
84,14,19,Jits_Linear_5,3,5,63,98,1583381828
84,14,19,Jits_Linear_5,0,1,48,24,1583883888
84,14,19,Jits_Linear_5,1,5,63,98,1583912484
84,14,19,Jits_Linear_5,2,5,80,127,1583952500
84,14,19,Jits_Linear_5,3,5,56,103,1583992348
84,14,19,Jits_Linear_5,0,1,48,27,1584469596
84,14,19,Jits_Linear_5,1,5,56,103,1584552424
84,14,19,Jits_Linear_5,2,5,63,98,1584561500
84,14,19,Jits_Linear_5,3,5,80,127,1584582096
84,14,19,Jits_Linear_5,0,1,48,23,1585128124
84,14,19,Jits_Linear_5,1,5,63,98,1585221976
84,14,19,Jits_Linear_5,2,5,80,127,1585241388
84,14,19,Jits_Linear_5,3,5,56,103,1585261920
84,14,19,Jits_Linear_5,0,5,56,103,1585792260
84,14,19,Jits_Linear_5,1,1,48,24,1585804596
84,14,19,Jits_Linear_5,2,5,80,127,1585872204
84,14,19,Jits_Linear_5,3,5,63,98,1585881648
84,14,19,Jits_Linear_5,0,5,80,127,1586462036
84,14,19,Jits_Linear_5,1,1,48,25,1586468072
84,14,19,Jits_Linear_5,2,5,63,98,1586472548
84,14,19,Jits_Linear_5,3,5,56,103,1586501852
84,14,19,Jits_Linear_5,0,5,63,98,1587051964
84,14,19,Jits_Linear_5,1,5,80,127,1587091760
84,14,19,Jits_Linear_5,2,1,48,22,1587101928
84,14,19,Jits_Linear_5,3,5,56,103,1587152516
84,14,19,Jits_Linear_5,0,5,63,98,1587691908
84,14,19,Jits_Linear_5,1,1,48,22,1587697272
84,14,19,Jits_Linear_5,2,5,56,103,1587742032
84,14,19,Jits_Linear_5,3,5,80,127,1587771808
84,14,19,Jits_Linear_5,0,1,48,21,1588303148
84,14,19,Jits_Linear_5,1,5,80,127,1588342356
84,14,19,Jits_Linear_5,2,5,63,98,1588352328
84,14,19,Jits_Linear_5,3,5,56,103,1588422220
84,14,19,Jits_Linear_5,0,1,48,24,1588958440
84,14,19,Jits_Linear_5,1,5,80,127,1589051704
84,14,19,Jits_Linear_5,2,5,56,103,1589061960
84,14,19,Jits_Linear_5,3,5,63,98,1589065100
84,14,19,Jits_Linear_5,0,5,56,103,1589632456
84,14,19,Jits_Linear_5,1,5,80,127,1589651796
84,14,19,Jits_Linear_5,2,5,63,98,1589662288
84,14,19,Jits_Linear_5,3,1,48,19,1589665704
84,14,19,Jits_Linear_5,0,1,48,25,1590261664
84,14,19,Jits_Linear_5,1,5,63,98,1590281548
84,14,19,Jits_Linear_5,2,5,56,103,1590321584
84,14,19,Jits_Linear_5,3,5,80,127,1590342268
84,14,19,Jits_Linear_5,0,1,48,24,1590920892
84,14,19,Jits_Linear_5,1,5,63,98,1590931704
84,14,19,Jits_Linear_5,2,5,56,103,1590992392
84,14,19,Jits_Linear_5,3,5,80,127,1590995460
84,14,19,Jits_Linear_5,0,5,56,103,1591542120
84,14,19,Jits_Linear_5,1,5,80,127,1591561536
84,14,19,Jits_Linear_5,2,1,48,22,1591568316
84,14,19,Jits_Linear_5,3,5,63,98,1591601492
84,14,19,Jits_Linear_5,0,1,48,21,1592173896
84,14,19,Jits_Linear_5,1,5,56,103,1592222324
84,14,19,Jits_Linear_5,2,5,63,98,1592241512
84,14,19,Jits_Linear_5,3,5,80,127,1592251784
84,14,19,Jits_Linear_5,0,1,48,21,1592817424
84,14,19,Jits_Linear_5,1,5,80,127,1592841512
84,14,19,Jits_Linear_5,2,5,56,103,1592872408
84,14,19,Jits_Linear_5,3,5,63,98,1592912496
84,14,19,Jits_Linear_5,0,1,48,17,1593470512
84,14,19,Jits_Linear_5,1,5,80,127,1593502224
84,14,19,Jits_Linear_5,2,5,56,103,1593521416
84,14,19,Jits_Linear_5,3,5,63,98,1593582164
84,14,19,Jits_Linear_5,0,1,48,16,1594155800
84,14,19,Jits_Linear_5,1,5,56,103,1594161524
84,14,19,Jits_Linear_5,2,5,80,127,1594182132
84,14,19,Jits_Linear_5,3,5,63,98,1594242376
84,14,19,Jits_Linear_5,0,5,80,127,1594801472
84,14,19,Jits_Linear_5,1,5,56,103,1594811964
84,14,19,Jits_Linear_5,2,1,48,21,1594824448
84,14,19,Jits_Linear_5,3,5,63,98,1594851752
84,14,19,Jits_Linear_5,0,1,48,27,1595438928
84,14,19,Jits_Linear_5,1,5,63,98,1595462268
84,14,19,Jits_Linear_5,2,5,56,103,1595502132
84,14,19,Jits_Linear_5,3,5,80,127,1595505196
84,14,19,Jits_Linear_5,0,1,48,27,1596073620
84,14,19,Jits_Linear_5,1,5,63,98,1596142132
84,14,19,Jits_Linear_5,2,5,80,127,1596181984
84,14,19,Jits_Linear_5,3,5,56,103,1596211684
84,14,19,Jits_Linear_5,0,1,48,24,1596737332
84,14,19,Jits_Linear_5,1,5,56,103,1596792284
84,14,19,Jits_Linear_5,2,5,63,98,1596802480
84,14,19,Jits_Linear_5,3,5,80,127,1596832156
84,14,19,Jits_Linear_5,0,1,48,22,1597442164
84,14,19,Jits_Linear_5,1,5,80,127,1597451700
84,14,19,Jits_Linear_5,2,5,63,98,1597522236
84,14,19,Jits_Linear_5,3,5,56,103,1597531388
84,14,19,Jits_Linear_5,0,5,63,98,1598122312
84,14,19,Jits_Linear_5,1,1,48,29,1598135476
84,14,19,Jits_Linear_5,2,5,56,103,1598192068
84,14,19,Jits_Linear_5,3,5,80,127,1598202336
84,14,19,Jits_Linear_5,0,1,48,28,1598774904
84,14,19,Jits_Linear_5,1,5,63,98,1598792240
84,14,19,Jits_Linear_5,2,5,56,103,1598811428
84,14,19,Jits_Linear_5,3,5,80,127,1598851444
84,14,19,Jits_Linear_5,0,1,48,31,1599427200
84,14,19,Jits_Linear_5,1,5,56,103,1599472336
84,14,19,Jits_Linear_5,2,5,63,98,1599482232
84,14,19,Jits_Linear_5,3,5,80,127,1599562264
84,14,19,Jits_Linear_5,0,1,48,27,1600118704
84,14,19,Jits_Linear_5,1,5,63,98,1600131408
84,14,19,Jits_Linear_5,2,5,56,103,1600162132
84,14,19,Jits_Linear_5,3,5,80,127,1600202144
84,14,19,Jits_Linear_5,0,1,48,30,1600744260
84,14,19,Jits_Linear_5,1,5,56,103,1600802284
84,14,19,Jits_Linear_5,2,5,63,98,1600842224
84,14,19,Jits_Linear_5,3,5,80,127,1600882000
84,14,19,Jits_Linear_5,0,1,48,32,1601428844
84,14,19,Jits_Linear_5,1,5,80,127,1601482224
84,14,19,Jits_Linear_5,2,5,56,103,1601562012
84,14,19,Jits_Linear_5,3,5,63,98,1601572132
84,14,19,Jits_Linear_5,0,1,48,28,1602163420
84,14,19,Jits_Linear_5,1,5,56,103,1602202104
84,14,19,Jits_Linear_5,2,5,63,98,1602205096
84,14,19,Jits_Linear_5,3,5,80,127,1602212152
84,14,19,Jits_Linear_5,0,1,48,24,1602827464
84,14,19,Jits_Linear_5,1,5,56,103,1602902372
84,14,19,Jits_Linear_5,2,5,63,98,1602922068
84,14,19,Jits_Linear_5,3,5,80,127,1602932192
84,14,19,Jits_Linear_5,0,5,63,98,1603542244
84,14,19,Jits_Linear_5,1,5,80,127,1603551468
84,14,19,Jits_Linear_5,2,1,48,27,1603554960
84,14,19,Jits_Linear_5,3,5,56,103,1603572144
84,14,19,Jits_Linear_5,0,1,48,25,1604205320
84,14,19,Jits_Linear_5,1,5,63,98,1604231652
84,14,19,Jits_Linear_5,2,5,56,103,1604312404
84,14,19,Jits_Linear_5,3,5,80,127,1604315772
84,14,19,Jits_Linear_5,0,1,48,28,1604898968
84,14,19,Jits_Linear_5,1,5,63,98,1604921732
84,14,19,Jits_Linear_5,2,5,56,103,1604942192
84,14,19,Jits_Linear_5,3,5,80,127,1604972016
84,14,19,Jits_Linear_5,0,1,48,25,1605563660
84,14,19,Jits_Linear_5,1,5,56,103,1605612088
84,14,19,Jits_Linear_5,2,5,63,98,1605632252
84,14,19,Jits_Linear_5,3,5,80,127,1605641548
84,14,19,Jits_Linear_5,0,1,48,24,1606233364
84,14,19,Jits_Linear_5,1,5,56,103,1606331976
84,14,19,Jits_Linear_5,2,5,63,98,1606361428
84,14,19,Jits_Linear_5,3,5,80,127,1606364720
84,14,19,Jits_Linear_5,0,1,48,23,1606963384
84,14,19,Jits_Linear_5,1,5,56,103,1606971872
84,14,19,Jits_Linear_5,2,5,63,98,1607011668
84,14,19,Jits_Linear_5,3,5,80,127,1607072040
84,14,19,Jits_Linear_5,0,1,48,20,1607626840
84,14,19,Jits_Linear_5,1,5,56,103,1607682464
84,14,19,Jits_Linear_5,2,5,63,98,1607691764
84,14,19,Jits_Linear_5,3,5,80,127,1607752012
84,14,19,Jits_Linear_5,0,1,48,25,1608369684
84,14,19,Jits_Linear_5,1,5,56,103,1608381912
84,14,19,Jits_Linear_5,2,5,80,127,1608402224
84,14,19,Jits_Linear_5,3,5,63,98,1608432048
84,14,19,Jits_Linear_5,0,1,48,23,1609062608
84,14,19,Jits_Linear_5,1,5,80,127,1609082188
84,14,19,Jits_Linear_5,2,5,56,103,1609091484
84,14,19,Jits_Linear_5,3,5,63,98,1609112096
84,14,19,Jits_Linear_5,0,1,48,26,1609747788
84,14,19,Jits_Linear_5,1,5,63,98,1609772344
84,14,19,Jits_Linear_5,2,5,80,127,1609852128
84,14,19,Jits_Linear_5,3,5,56,103,1609861500
84,14,19,Jits_Linear_5,0,1,48,21,1610468444
84,14,19,Jits_Linear_5,1,5,80,127,1610532112
84,14,19,Jits_Linear_5,2,5,56,103,1610551820
84,14,19,Jits_Linear_5,3,5,63,98,1610554812
84,14,19,Jits_Linear_5,0,5,63,98,1611212280
84,14,19,Jits_Linear_5,1,1,48,20,1611213788
84,14,19,Jits_Linear_5,2,5,80,127,1611216836
84,14,19,Jits_Linear_5,3,5,56,103,1611271472
84,14,19,Jits_Linear_5,0,5,56,103,1611902212
84,14,19,Jits_Linear_5,1,5,80,127,1611911584
84,14,19,Jits_Linear_5,2,1,48,24,1611913144
84,14,19,Jits_Linear_5,3,5,63,98,1611951444
84,14,19,Jits_Linear_5,0,1,48,25,1612553664
84,14,19,Jits_Linear_5,1,5,56,103,1612591332
84,14,19,Jits_Linear_5,2,5,63,98,1612651860
84,14,19,Jits_Linear_5,3,5,80,127,1612662132
84,14,19,Jits_Linear_5,0,1,48,23,1613283464
84,14,19,Jits_Linear_5,1,5,63,98,1613312336
84,14,19,Jits_Linear_5,2,5,80,127,1613352224
84,14,19,Jits_Linear_5,3,5,56,103,1613392296
84,14,19,Jits_Linear_5,0,1,48,24,1613975192
84,14,19,Jits_Linear_5,1,5,56,103,1614022048
84,14,19,Jits_Linear_5,2,5,63,98,1614101832
84,14,19,Jits_Linear_5,3,5,80,127,1614105048
84,14,19,Jits_Linear_5,0,1,48,24,1614695016
84,14,19,Jits_Linear_5,1,5,80,127,1614792072
84,14,19,Jits_Linear_5,2,5,56,103,1614821956
84,14,19,Jits_Linear_5,3,5,63,98,1614825096
84,14,19,Jits_Linear_5,0,1,48,27,1615423304
84,14,19,Jits_Linear_5,1,5,56,103,1615472108
84,14,19,Jits_Linear_5,2,5,80,127,1615491296
84,14,19,Jits_Linear_5,3,5,63,98,1615532268
84,14,19,Jits_Linear_5,0,1,48,26,1616158684
84,14,19,Jits_Linear_5,1,5,80,127,1616172456
84,14,19,Jits_Linear_5,2,5,63,98,1616191944
84,14,19,Jits_Linear_5,3,5,56,103,1616252408
84,14,19,Jits_Linear_5,0,1,48,20,1616888404
84,14,19,Jits_Linear_5,1,5,63,98,1616901476
84,14,19,Jits_Linear_5,2,5,56,103,1616911672
84,14,19,Jits_Linear_5,3,5,80,127,1616961900
84,14,19,Jits_Linear_5,0,1,48,24,1617564404
84,14,19,Jits_Linear_5,1,5,56,103,1617612088
84,14,19,Jits_Linear_5,2,5,63,98,1617631800
84,14,19,Jits_Linear_5,3,5,80,127,1617641924
84,14,19,Jits_Linear_5,0,1,48,26,1618274420
84,14,19,Jits_Linear_5,1,5,56,103,1618331988
84,14,19,Jits_Linear_5,2,5,63,98,1618335204
84,14,19,Jits_Linear_5,3,5,80,127,1618351324
84,14,19,Jits_Linear_5,0,1,48,24,1618978088
84,14,19,Jits_Linear_5,1,5,63,98,1619102136
84,14,19,Jits_Linear_5,2,5,56,103,1619131888
84,14,19,Jits_Linear_5,3,5,80,127,1619161340
84,14,19,Jits_Linear_5,0,1,48,21,1619720488
84,14,19,Jits_Linear_5,1,5,80,127,1619792308
84,14,19,Jits_Linear_5,2,5,56,103,1619882284
84,14,19,Jits_Linear_5,3,5,63,98,1619885424
84,14,19,Jits_Linear_5,0,5,56,103,1620522472
84,14,19,Jits_Linear_5,1,5,80,127,1620525392
84,14,19,Jits_Linear_5,2,1,48,21,1620599528
84,14,19,Jits_Linear_5,3,5,63,98,1620602188
84,14,19,Jits_Linear_5,0,5,80,127,1621251648
84,14,19,Jits_Linear_5,1,1,48,23,1621276268
84,14,19,Jits_Linear_5,2,5,63,98,1621311764
84,14,19,Jits_Linear_5,3,5,56,103,1621341588
84,14,19,Jits_Linear_5,0,1,48,20,1621938932
84,14,19,Jits_Linear_5,1,5,63,98,1621981752
84,14,19,Jits_Linear_5,2,5,80,127,1621991800
84,14,19,Jits_Linear_5,3,5,56,103,1622061564
84,14,19,Jits_Linear_5,0,1,48,20,1622676600
84,14,19,Jits_Linear_5,1,5,56,103,1622742560
84,14,19,Jits_Linear_5,2,5,80,127,1622772088
84,14,19,Jits_Linear_5,3,5,63,98,1622822152
84,14,19,Jits_Linear_5,0,1,48,19,1623443180
84,14,19,Jits_Linear_5,1,5,63,98,1623521804
84,14,19,Jits_Linear_5,2,5,56,103,1623552364
84,14,19,Jits_Linear_5,3,5,80,127,1623555652
84,14,19,Jits_Linear_5,0,1,48,22,1624167720
84,14,19,Jits_Linear_5,1,5,63,98,1624261932
84,14,19,Jits_Linear_5,2,5,80,127,1624281556
84,14,19,Jits_Linear_5,3,5,56,103,1624291824
84,14,19,Jits_Linear_5,0,1,48,20,1624928384
84,14,19,Jits_Linear_5,1,5,56,103,1625011804
84,14,19,Jits_Linear_5,2,5,63,98,1625014796
84,14,19,Jits_Linear_5,3,5,80,127,1625032024
84,14,19,Jits_Linear_5,0,1,48,21,1625664988
84,14,19,Jits_Linear_5,1,5,56,103,1625711992
84,14,19,Jits_Linear_5,2,5,63,98,1625722188
84,14,19,Jits_Linear_5,3,5,80,127,1625751792
84,14,19,Jits_Linear_5,0,1,48,16,1626351072
84,14,19,Jits_Linear_5,1,5,63,98,1626482072
84,14,19,Jits_Linear_5,2,5,80,127,1626501636
84,14,19,Jits_Linear_5,3,5,56,103,1626541500
84,14,19,Jits_Linear_5,0,1,48,24,1627173792
84,14,19,Jits_Linear_5,1,5,56,103,1627262604
84,14,19,Jits_Linear_5,2,5,63,98,1627302756
84,14,19,Jits_Linear_5,3,5,80,127,1627305892
84,14,19,Jits_Linear_5,0,1,48,21,1627937868
84,14,19,Jits_Linear_5,1,5,80,127,1627951636
84,14,19,Jits_Linear_5,2,5,56,103,1627992700
84,14,19,Jits_Linear_5,3,5,63,98,1628041692
84,14,19,Jits_Linear_5,0,1,48,24,1628639948
84,14,19,Jits_Linear_5,1,5,56,103,1628761660
84,14,19,Jits_Linear_5,2,5,80,127,1628771780
84,14,19,Jits_Linear_5,3,5,63,98,1628802580
84,14,19,Jits_Linear_5,0,1,48,24,1629411632
84,14,19,Jits_Linear_5,1,5,56,103,1629461852
84,14,19,Jits_Linear_5,2,5,80,127,1629501748
84,14,19,Jits_Linear_5,3,5,63,98,1629551860
84,14,19,Jits_Linear_5,0,1,48,29,1630193044
84,14,19,Jits_Linear_5,1,5,56,103,1630221616
84,14,19,Jits_Linear_5,2,5,80,127,1630261584
84,14,19,Jits_Linear_5,3,5,63,98,1630311844
84,14,19,Jits_Linear_5,0,1,48,24,1630950940
84,14,19,Jits_Linear_5,1,5,80,127,1630972460
84,14,19,Jits_Linear_5,2,5,63,98,1631052124
84,14,19,Jits_Linear_5,3,5,56,103,1631062616
84,14,19,Jits_Linear_5,0,1,48,24,1631748600
84,14,19,Jits_Linear_5,1,5,80,127,1631782448
84,14,19,Jits_Linear_5,2,5,56,103,1631791452
84,14,19,Jits_Linear_5,3,5,63,98,1631811912
84,14,19,Jits_Linear_5,0,1,48,24,1632470840
84,14,19,Jits_Linear_5,1,5,63,98,1632512444
84,14,19,Jits_Linear_5,2,5,56,103,1632582136
84,14,19,Jits_Linear_5,3,5,80,127,1632585128
84,14,19,Jits_Linear_5,0,1,48,22,1633259824
84,14,19,Jits_Linear_5,1,5,80,127,1633272276
84,14,19,Jits_Linear_5,2,5,63,98,1633322360
84,14,19,Jits_Linear_5,3,5,56,103,1633362580
84,14,19,Jits_Linear_5,0,1,48,24,1634017996
84,14,19,Jits_Linear_5,1,5,63,98,1634082316
84,14,19,Jits_Linear_5,2,5,56,103,1634122168
84,14,19,Jits_Linear_5,3,5,80,127,1634132364
84,14,19,Jits_Linear_5,0,1,48,20,1634785912
84,14,19,Jits_Linear_5,1,5,63,98,1634841984
84,14,19,Jits_Linear_5,2,5,56,103,1634861352
84,14,19,Jits_Linear_5,3,5,80,127,1634882016
84,14,19,Jits_Linear_5,0,1,48,26,1635529632
84,14,19,Jits_Linear_5,1,5,80,127,1635572152
84,14,19,Jits_Linear_5,2,5,56,103,1635582424
84,14,19,Jits_Linear_5,3,5,63,98,1635601764
84,14,19,Jits_Linear_5,0,1,48,24,1636262508
84,14,19,Jits_Linear_5,1,5,63,98,1636371760
84,14,19,Jits_Linear_5,2,5,56,103,1636411652
84,14,19,Jits_Linear_5,3,5,80,127,1636441328
84,14,19,Jits_Linear_5,0,1,48,24,1637015900
84,14,19,Jits_Linear_5,1,5,56,103,1637152056
84,14,19,Jits_Linear_5,2,5,63,98,1637181808
84,14,19,Jits_Linear_5,3,5,80,127,1637211484
84,14,19,Jits_Linear_5,0,1,48,27,1637868244
84,14,19,Jits_Linear_5,1,5,80,127,1637901696
84,14,19,Jits_Linear_5,2,5,56,103,1637972360
84,14,19,Jits_Linear_5,3,5,63,98,1637975352
84,14,19,Jits_Linear_5,0,5,56,103,1638692496
84,14,19,Jits_Linear_5,1,1,48,30,1638705284
84,14,19,Jits_Linear_5,2,5,63,98,1638742620
84,14,19,Jits_Linear_5,3,5,80,127,1638772072
84,14,19,Jits_Linear_5,0,5,63,98,1639451868
84,14,19,Jits_Linear_5,1,5,80,127,1639455460
84,14,19,Jits_Linear_5,2,1,48,30,1639463932
84,14,19,Jits_Linear_5,3,5,56,103,1639512504
84,14,19,Jits_Linear_5,0,1,48,33,1640199608
84,14,19,Jits_Linear_5,1,5,56,103,1640262060
84,14,19,Jits_Linear_5,2,5,80,127,1640272404
84,14,19,Jits_Linear_5,3,5,63,98,1640322520
84,14,19,Jits_Linear_5,0,1,48,29,1640989020
84,14,19,Jits_Linear_5,1,5,63,98,1641021820
84,14,19,Jits_Linear_5,2,5,56,103,1641032164
84,14,19,Jits_Linear_5,3,5,80,127,1641061692
84,14,19,Jits_Linear_5,0,1,48,19,1641749444
84,14,19,Jits_Linear_5,1,5,63,98,1641842112
84,14,19,Jits_Linear_5,2,5,80,127,1641846284
84,14,19,Jits_Linear_5,3,5,56,103,1641871772
84,14,19,Jits_Linear_5,0,1,48,30,1642536272
84,14,19,Jits_Linear_5,1,5,63,98,1642651896
84,14,19,Jits_Linear_5,2,5,56,103,1642671532
84,14,19,Jits_Linear_5,3,5,80,127,1642674672
84,14,19,Jits_Linear_5,0,1,48,30,1643391552
84,14,19,Jits_Linear_5,1,5,63,98,1643401540
84,14,19,Jits_Linear_5,2,5,56,103,1643472200
84,14,19,Jits_Linear_5,3,5,80,127,1643491748
84,14,19,Jits_Linear_5,0,1,48,31,1644158572
84,14,19,Jits_Linear_5,1,5,56,103,1644181760
84,14,19,Jits_Linear_5,2,5,63,98,1644192404
84,14,19,Jits_Linear_5,3,5,80,127,1644282224
84,14,19,Jits_Linear_5,0,1,48,31,1644940524
84,14,19,Jits_Linear_5,1,5,56,103,1644991792
84,14,19,Jits_Linear_5,2,5,80,127,1645032988
84,14,19,Jits_Linear_5,3,5,63,98,1645041916
84,14,19,Jits_Linear_5,0,1,48,30,1645717128
84,14,19,Jits_Linear_5,1,5,56,103,1645812240
84,14,19,Jits_Linear_5,2,5,63,98,1645841756
84,14,19,Jits_Linear_5,3,5,80,127,1645871604
84,14,19,Jits_Linear_5,0,1,48,26,1646557808
84,14,19,Jits_Linear_5,1,5,80,127,1646571856
84,14,19,Jits_Linear_5,2,5,63,98,1646611872
84,14,19,Jits_Linear_5,3,5,56,103,1646632284
84,14,19,Jits_Linear_5,0,5,56,103,1647411592
84,14,19,Jits_Linear_5,1,1,48,27,1647430536
84,14,19,Jits_Linear_5,2,5,80,127,1647432116
84,14,19,Jits_Linear_5,3,5,63,98,1647451456
84,14,19,Jits_Linear_5,0,5,63,98,1648181480
84,14,19,Jits_Linear_5,1,5,56,103,1648191972
84,14,19,Jits_Linear_5,2,1,48,26,1648199972
84,14,19,Jits_Linear_5,3,5,80,127,1648252356
84,14,19,Jits_Linear_5,0,1,48,27,1648963904
84,14,19,Jits_Linear_5,1,5,56,103,1648991652
84,14,19,Jits_Linear_5,2,5,63,98,1649062296
84,14,19,Jits_Linear_5,3,5,80,127,1649081708
84,14,19,Jits_Linear_5,0,1,48,31,1649771172
84,14,19,Jits_Linear_5,1,5,56,103,1649801612
84,14,19,Jits_Linear_5,2,5,63,98,1649832484
84,14,19,Jits_Linear_5,3,5,80,127,1649872112
84,14,19,Jits_Linear_5,0,1,48,27,1650554076
84,14,19,Jits_Linear_5,1,5,63,98,1650602276
84,14,19,Jits_Linear_5,2,5,56,103,1650651572
84,14,19,Jits_Linear_5,3,5,80,127,1650661692
84,14,19,Jits_Linear_5,0,1,48,29,1651327908
84,14,19,Jits_Linear_5,1,5,56,103,1651452308
84,14,19,Jits_Linear_5,2,5,63,98,1651501340
84,14,19,Jits_Linear_5,3,5,80,127,1651511684
84,14,19,Jits_Linear_5,0,1,48,29,1652165228
84,14,19,Jits_Linear_5,1,5,56,103,1652231496
84,14,19,Jits_Linear_5,2,5,63,98,1652241692
84,14,19,Jits_Linear_5,3,5,80,127,1652321644
84,14,19,Jits_Linear_5,0,9999,9999,9999,1543469172
84,14,19,Jits_Linear_5,1,9999,9999,9999,1543949436
84,14,19,Jits_Linear_5,2,9999,9999,9999,1544429656
84,14,19,Jits_Linear_5,3,9999,9999,9999,1544909948
84,14,19,Jits_Linear_5,4,9999,9999,9999,1545389112
84,14,19,Jits_Linear_5,5,9999,9999,9999,1545879664
84,14,19,Jits_Linear_5,6,9999,9999,9999,1546369088
84,14,19,Jits_Linear_5,7,9999,9999,9999,1546859572
84,14,19,Jits_Linear_5,8,9999,9999,9999,1547350136
84,14,19,Jits_Linear_5,9,9999,9999,9999,1547849836
84,14,19,Jits_Linear_5,10,9999,9999,9999,1548349536
84,14,19,Jits_Linear_5,11,9999,9999,9999,1548849244
84,14,19,Jits_Linear_5,12,9999,9999,9999,1549349948
84,14,19,Jits_Linear_5,13,9999,9999,9999,1549849708
84,14,19,Jits_Linear_5,14,9999,9999,9999,1550349400
84,14,19,Jits_Linear_5,15,9999,9999,9999,1550859348
84,14,19,Jits_Linear_5,16,9999,9999,9999,1551369304
84,14,19,Jits_Linear_5,17,9999,9999,9999,1551879260
84,14,19,Jits_Linear_5,18,9999,9999,9999,1552389212
84,14,19,Jits_Linear_5,19,9999,9999,9999,1552899164
84,14,19,Jits_Linear_5,20,9999,9999,9999,1553419384
84,14,19,Jits_Linear_5,21,9999,9999,9999,1553939524
84,14,19,Jits_Linear_5,22,9999,9999,9999,1554459740
84,14,19,Jits_Linear_5,23,9999,9999,9999,1554979948
84,14,19,Jits_Linear_5,24,9999,9999,9999,1555499068
84,14,19,Jits_Linear_5,25,9999,9999,9999,1556029540
84,14,19,Jits_Linear_5,26,9999,9999,9999,1556559948
84,14,19,Jits_Linear_5,27,9999,9999,9999,1557089356
84,14,19,Jits_Linear_5,28,9999,9999,9999,1557619764
84,14,19,Jits_Linear_5,29,9999,9999,9999,1558149196
84,14,19,Jits_Linear_5,30,9999,9999,9999,1558689868
84,14,19,Jits_Linear_5,31,9999,9999,9999,1559229564
84,14,19,Jits_Linear_5,32,9999,9999,9999,1559769180
84,14,19,Jits_Linear_5,33,9999,9999,9999,1560309848
84,14,19,Jits_Linear_5,34,9999,9999,9999,1560849472
84,14,19,Jits_Linear_5,35,9999,9999,9999,1561399388
84,14,19,Jits_Linear_5,36,9999,9999,9999,1561949260
84,14,19,Jits_Linear_5,37,9999,9999,9999,1562499148
84,14,19,Jits_Linear_5,38,9999,9999,9999,1563050080
84,14,19,Jits_Linear_5,39,9999,9999,9999,1563599968
84,14,19,Jits_Linear_5,40,9999,9999,9999,1564160116
84,14,19,Jits_Linear_5,41,9999,9999,9999,1564729448
84,14,19,Jits_Linear_5,42,9999,9999,9999,1565289532
84,14,19,Jits_Linear_5,43,9999,9999,9999,1565849680
84,14,19,Jits_Linear_5,44,9999,9999,9999,1566409828
84,14,19,Jits_Linear_5,45,9999,9999,9999,1566979192
84,14,19,Jits_Linear_5,46,9999,9999,9999,1567549556
84,14,19,Jits_Linear_5,47,9999,9999,9999,1568119900
84,14,19,Jits_Linear_5,48,9999,9999,9999,1568689268
84,14,19,Jits_Linear_5,49,9999,9999,9999,1569259616
84,14,19,Jits_Linear_5,50,9999,9999,9999,1569839184
84,14,19,Jits_Linear_5,51,9999,9999,9999,1570419784
84,14,19,Jits_Linear_5,52,9999,9999,9999,1570999416
84,14,19,Jits_Linear_5,53,9999,9999,9999,1571580016
84,14,19,Jits_Linear_5,54,9999,9999,9999,1572159604
84,14,19,Jits_Linear_5,55,9999,9999,9999,1572749424
84,14,19,Jits_Linear_5,56,9999,9999,9999,1573339244
84,14,19,Jits_Linear_5,57,9999,9999,9999,1573930048
84,14,19,Jits_Linear_5,58,9999,9999,9999,1574519868
84,14,19,Jits_Linear_5,59,9999,9999,9999,1575109688
84,14,19,Jits_Linear_5,60,9999,9999,9999,1575709784
84,14,19,Jits_Linear_5,61,9999,9999,9999,1576309880
84,14,19,Jits_Linear_5,62,9999,9999,9999,1576909888
84,14,19,Jits_Linear_5,63,9999,9999,9999,1577509992
84,14,19,Jits_Linear_5,64,9999,9999,9999,1578110068
84,14,19,Jits_Linear_5,65,9999,9999,9999,1578719308
84,14,19,Jits_Linear_5,66,9999,9999,9999,1579329604
84,14,19,Jits_Linear_5,67,9999,9999,9999,1579939936
84,14,19,Jits_Linear_5,68,9999,9999,9999,1580549236
84,14,19,Jits_Linear_5,69,9999,9999,9999,1581159536
84,14,19,Jits_Linear_5,70,9999,9999,9999,1581780056
84,14,19,Jits_Linear_5,71,9999,9999,9999,1582399580
84,14,19,Jits_Linear_5,72,9999,9999,9999,1583019068
84,14,19,Jits_Linear_5,73,9999,9999,9999,1583639680
84,14,19,Jits_Linear_5,74,9999,9999,9999,1584259192
84,14,19,Jits_Linear_5,75,9999,9999,9999,1584889916
84,14,19,Jits_Linear_5,76,9999,9999,9999,1585519696
84,14,19,Jits_Linear_5,77,9999,9999,9999,1586149448
84,14,19,Jits_Linear_5,78,9999,9999,9999,1586779240
84,14,19,Jits_Linear_5,79,9999,9999,9999,1587409976
84,14,19,Jits_Linear_5,80,9999,9999,9999,1588050020
84,14,19,Jits_Linear_5,81,9999,9999,9999,1588690036
84,14,19,Jits_Linear_5,82,9999,9999,9999,1589329996
84,14,19,Jits_Linear_5,83,9999,9999,9999,1589970008
84,14,19,Jits_Linear_5,84,9999,9999,9999,1590609992
84,14,19,Jits_Linear_5,85,9999,9999,9999,1591259220
84,14,19,Jits_Linear_5,86,9999,9999,9999,1591909444
84,14,19,Jits_Linear_5,87,9999,9999,9999,1592559736
84,14,19,Jits_Linear_5,88,9999,9999,9999,1593209964
84,14,19,Jits_Linear_5,89,9999,9999,9999,1593859196
84,14,19,Jits_Linear_5,90,9999,9999,9999,1594519616
84,14,19,Jits_Linear_5,91,9999,9999,9999,1595179132
84,14,19,Jits_Linear_5,92,9999,9999,9999,1595839604
84,14,19,Jits_Linear_5,93,9999,9999,9999,1596500024
84,14,19,Jits_Linear_5,94,9999,9999,9999,1597159512
84,14,19,Jits_Linear_5,95,9999,9999,9999,1597829224
84,14,19,Jits_Linear_5,96,9999,9999,9999,1598499904
84,14,19,Jits_Linear_5,97,9999,9999,9999,1599169660
84,14,19,Jits_Linear_5,98,9999,9999,9999,1599839292
84,14,19,Jits_Linear_5,99,9999,9999,9999,1600510020
84,14,19,Jits_Linear_5,100,9999,9999,9999,1601189968
84,14,19,Jits_Linear_5,101,9999,9999,9999,1601869912
84,14,19,Jits_Linear_5,102,9999,9999,9999,1602549844
84,14,19,Jits_Linear_5,103,9999,9999,9999,1603229824
84,14,19,Jits_Linear_5,104,9999,9999,9999,1603909716
84,14,19,Jits_Linear_5,105,9999,9999,9999,1604599920
84,14,19,Jits_Linear_5,106,9999,9999,9999,1605290080
84,14,19,Jits_Linear_5,107,9999,9999,9999,1605979192
84,14,19,Jits_Linear_5,108,9999,9999,9999,1606669400
84,14,19,Jits_Linear_5,109,9999,9999,9999,1607359560
84,14,19,Jits_Linear_5,110,9999,9999,9999,1608059980
84,14,19,Jits_Linear_5,111,9999,9999,9999,1608759360
84,14,19,Jits_Linear_5,112,9999,9999,9999,1609459828
84,14,19,Jits_Linear_5,113,9999,9999,9999,1610159204
84,14,19,Jits_Linear_5,114,9999,9999,9999,1610859624
84,14,19,Jits_Linear_5,115,9999,9999,9999,1611569260
84,14,19,Jits_Linear_5,116,9999,9999,9999,1612279920
84,14,19,Jits_Linear_5,117,9999,9999,9999,1612989500
84,14,19,Jits_Linear_5,118,9999,9999,9999,1613699144
84,14,19,Jits_Linear_5,119,9999,9999,9999,1614409824
84,14,19,Jits_Linear_5,120,9999,9999,9999,1615129700
84,14,19,Jits_Linear_5,121,9999,9999,9999,1615849600
84,14,19,Jits_Linear_5,122,9999,9999,9999,1616569428
84,14,19,Jits_Linear_5,123,9999,9999,9999,1617289332
84,14,19,Jits_Linear_5,124,9999,9999,9999,1618009156
84,14,19,Jits_Linear_5,125,9999,9999,9999,1618739308
84,14,19,Jits_Linear_5,126,9999,9999,9999,1619469380
84,14,19,Jits_Linear_5,127,9999,9999,9999,1620199540
84,14,19,Jits_Linear_5,128,9999,9999,9999,1620929620
84,14,19,Jits_Linear_5,129,9999,9999,9999,1621659732
84,14,19,Jits_Linear_5,130,9999,9999,9999,1622400100
84,14,19,Jits_Linear_5,131,9999,9999,9999,1623149672
84,14,19,Jits_Linear_5,132,9999,9999,9999,1623890024
84,14,19,Jits_Linear_5,133,9999,9999,9999,1624629336
84,14,19,Jits_Linear_5,134,9999,9999,9999,1625369660
84,14,19,Jits_Linear_5,135,9999,9999,9999,1626119224
84,14,19,Jits_Linear_5,136,9999,9999,9999,1626869844
84,14,19,Jits_Linear_5,137,9999,9999,9999,1627619416
84,14,19,Jits_Linear_5,138,9999,9999,9999,1628370036
84,14,19,Jits_Linear_5,139,9999,9999,9999,1629119616
84,14,19,Jits_Linear_5,140,9999,9999,9999,1629879380
84,14,19,Jits_Linear_5,141,9999,9999,9999,1630639216
84,14,19,Jits_Linear_5,142,9999,9999,9999,1631400028
84,14,19,Jits_Linear_5,143,9999,9999,9999,1632159868
84,14,19,Jits_Linear_5,144,9999,9999,9999,1632919624
84,14,19,Jits_Linear_5,145,9999,9999,9999,1633689656
84,14,19,Jits_Linear_5,146,9999,9999,9999,1634459736
84,14,19,Jits_Linear_5,147,9999,9999,9999,1635229768
84,14,19,Jits_Linear_5,148,9999,9999,9999,1635999864
84,14,19,Jits_Linear_5,149,9999,9999,9999,1636769896
84,14,19,Jits_Linear_5,150,9999,9999,9999,1637549116
84,14,19,Jits_Linear_5,151,9999,9999,9999,1638329400
84,14,19,Jits_Linear_5,152,9999,9999,9999,1639109692
84,14,19,Jits_Linear_5,153,9999,9999,9999,1639889980
84,14,19,Jits_Linear_5,154,9999,9999,9999,1640669296
84,14,19,Jits_Linear_5,155,9999,9999,9999,1641459768
84,14,19,Jits_Linear_5,156,9999,9999,9999,1642249336
84,14,19,Jits_Linear_5,157,9999,9999,9999,1643039804
84,14,19,Jits_Linear_5,158,9999,9999,9999,1643829332
84,14,19,Jits_Linear_5,159,9999,9999,9999,1644619884
84,14,19,Jits_Linear_5,160,9999,9999,9999,1645419580
84,14,19,Jits_Linear_5,161,9999,9999,9999,1646219352
84,14,19,Jits_Linear_5,162,9999,9999,9999,1647019120
84,14,19,Jits_Linear_5,163,9999,9999,9999,1647819864
84,14,19,Jits_Linear_5,164,9999,9999,9999,1648619644
84,14,19,Jits_Linear_5,165,9999,9999,9999,1649429604
84,14,19,Jits_Linear_5,166,9999,9999,9999,1650239588
84,14,19,Jits_Linear_5,167,9999,9999,9999,1651049544
84,14,19,Jits_Linear_5,168,9999,9999,9999,1651859584
84,14,19,Jits_Linear_5,169,9999,9999,9999,1652669544
84,15,18,Jits_Linear_8,0,5,56,103,1662678256
84,15,18,Jits_Linear_8,1,5,63,98,1662681504
84,15,18,Jits_Linear_8,2,5,80,127,1662684628
84,15,18,Jits_Linear_8,0,1,48,22,1663271984
84,15,18,Jits_Linear_8,1,5,56,103,1663497504
84,15,18,Jits_Linear_8,2,5,63,98,1663500600
84,15,18,Jits_Linear_8,3,5,80,127,1663503944
84,15,18,Jits_Linear_8,0,1,48,29,1664233924
84,15,18,Jits_Linear_8,1,5,80,127,1664258456
84,15,18,Jits_Linear_8,2,5,63,98,1664347556
84,15,18,Jits_Linear_8,3,5,56,103,1664357828
84,15,18,Jits_Linear_8,0,5,56,103,1665108364
84,15,18,Jits_Linear_8,1,1,48,28,1665111032
84,15,18,Jits_Linear_8,2,5,63,98,1665117508
84,15,18,Jits_Linear_8,3,5,80,127,1665207628
84,15,18,Jits_Linear_8,0,1,48,24,1665888620
84,15,18,Jits_Linear_8,1,5,63,98,1665898008
84,15,18,Jits_Linear_8,2,5,80,127,1665927536
84,15,18,Jits_Linear_8,3,5,56,103,1665958260
84,15,18,Jits_Linear_8,0,1,48,30,1666703264
84,15,18,Jits_Linear_8,1,5,56,103,1666718212
84,15,18,Jits_Linear_8,2,5,80,127,1666818296
84,15,18,Jits_Linear_8,3,5,63,98,1666867700
84,15,18,Jits_Linear_8,0,1,48,27,1667527332
84,15,18,Jits_Linear_8,1,5,56,103,1667528904
84,15,18,Jits_Linear_8,2,5,80,127,1667578136
84,15,18,Jits_Linear_8,3,5,63,98,1667618176
84,15,18,Jits_Linear_8,0,1,48,33,1668318968
84,15,18,Jits_Linear_8,1,5,80,127,1668367844
84,15,18,Jits_Linear_8,2,5,63,98,1668397396
84,15,18,Jits_Linear_8,3,5,56,103,1668467960
84,15,18,Jits_Linear_8,0,1,48,30,1669175228
84,15,18,Jits_Linear_8,1,5,63,98,1669208532
84,15,18,Jits_Linear_8,2,5,56,103,1669238212
84,15,18,Jits_Linear_8,3,5,80,127,1669297612
84,15,18,Jits_Linear_8,0,5,56,103,1669958024
84,15,18,Jits_Linear_8,1,5,80,127,1669961012
84,15,18,Jits_Linear_8,2,1,48,32,1670002340
84,15,18,Jits_Linear_8,3,5,63,98,1670078040
84,15,18,Jits_Linear_8,0,1,48,30,1670773392
84,15,18,Jits_Linear_8,1,5,56,103,1670837712
84,15,18,Jits_Linear_8,2,5,80,127,1670877712
84,15,18,Jits_Linear_8,3,5,63,98,1670888056
84,15,18,Jits_Linear_8,0,5,56,103,1671597320
84,15,18,Jits_Linear_8,1,5,80,127,1671617856
84,15,18,Jits_Linear_8,2,1,48,33,1671645780
84,15,18,Jits_Linear_8,3,5,63,98,1671697940
84,15,18,Jits_Linear_8,0,5,80,127,1672387948
84,15,18,Jits_Linear_8,1,1,48,36,1672466744
84,15,18,Jits_Linear_8,2,5,56,103,1672488292
84,15,18,Jits_Linear_8,3,5,63,98,1672497516
84,15,18,Jits_Linear_8,0,5,63,98,1673157980
84,15,18,Jits_Linear_8,1,5,80,127,1673218520
84,15,18,Jits_Linear_8,2,5,56,103,1673227744
84,15,18,Jits_Linear_8,3,1,48,32,1673279132
84,15,18,Jits_Linear_8,0,5,56,103,1673957952
84,15,18,Jits_Linear_8,1,5,63,98,1674028556
84,15,18,Jits_Linear_8,2,5,80,127,1674031768
84,15,18,Jits_Linear_8,3,1,48,31,1674090636
84,15,18,Jits_Linear_8,0,5,63,98,1674788152
84,15,18,Jits_Linear_8,1,1,48,30,1674833004
84,15,18,Jits_Linear_8,2,5,56,103,1674838572
84,15,18,Jits_Linear_8,3,5,80,127,1674841416
84,15,18,Jits_Linear_8,0,5,56,103,1675537824
84,15,18,Jits_Linear_8,1,5,80,127,1675541036
84,15,18,Jits_Linear_8,2,1,48,30,1675627304
84,15,18,Jits_Linear_8,3,5,63,98,1675628800
84,15,18,Jits_Linear_8,0,1,48,25,1676282920
84,15,18,Jits_Linear_8,1,5,63,98,1676368316
84,15,18,Jits_Linear_8,2,5,56,103,1676458364
84,15,18,Jits_Linear_8,3,5,80,127,1676488188
84,15,18,Jits_Linear_8,0,5,56,103,1677147928
84,15,18,Jits_Linear_8,1,1,48,29,1677160640
84,15,18,Jits_Linear_8,2,5,63,98,1677247876
84,15,18,Jits_Linear_8,3,5,80,127,1677277756
84,15,18,Jits_Linear_8,0,5,63,98,1677957964
84,15,18,Jits_Linear_8,1,5,56,103,1677967864
84,15,18,Jits_Linear_8,2,1,48,28,1677986644
84,15,18,Jits_Linear_8,3,5,80,127,1678057692
84,15,18,Jits_Linear_8,0,1,48,25,1678740452
84,15,18,Jits_Linear_8,1,5,63,98,1678758240
84,15,18,Jits_Linear_8,2,5,56,103,1678838168
84,15,18,Jits_Linear_8,3,5,80,127,1678841088
84,15,18,Jits_Linear_8,0,5,80,127,1679497536
84,15,18,Jits_Linear_8,1,5,63,98,1679518144
84,15,18,Jits_Linear_8,2,1,48,31,1679557904
84,15,18,Jits_Linear_8,3,5,56,103,1679577404
84,15,18,Jits_Linear_8,0,5,56,103,1680317756
84,15,18,Jits_Linear_8,1,1,48,30,1680320420
84,15,18,Jits_Linear_8,2,5,63,98,1680338356
84,15,18,Jits_Linear_8,3,5,80,127,1680341792
84,15,18,Jits_Linear_8,0,5,63,98,1681037868
84,15,18,Jits_Linear_8,1,5,80,127,1681117592
84,15,18,Jits_Linear_8,2,5,56,103,1681127712
84,15,18,Jits_Linear_8,3,1,48,27,1681143936
84,15,18,Jits_Linear_8,0,5,63,98,1681837616
84,15,18,Jits_Linear_8,1,1,48,28,1681855260
84,15,18,Jits_Linear_8,2,5,56,103,1681857848
84,15,18,Jits_Linear_8,3,5,80,127,1681907976
84,15,18,Jits_Linear_8,0,1,48,24,1682605872
84,15,18,Jits_Linear_8,1,5,80,127,1682617732
84,15,18,Jits_Linear_8,2,5,63,98,1682657820
84,15,18,Jits_Linear_8,3,5,56,103,1682677984
84,15,18,Jits_Linear_8,0,1,48,38,1683369656
84,15,18,Jits_Linear_8,1,5,56,103,1683427600
84,15,18,Jits_Linear_8,2,5,63,98,1683437872
84,15,18,Jits_Linear_8,3,5,80,127,1683458552
84,15,18,Jits_Linear_8,0,5,56,103,1684128308
84,15,18,Jits_Linear_8,1,1,48,37,1684198040
84,15,18,Jits_Linear_8,2,5,63,98,1684218364
84,15,18,Jits_Linear_8,3,5,80,127,1684277808
84,15,18,Jits_Linear_8,0,5,80,127,1684927928
84,15,18,Jits_Linear_8,1,5,56,103,1684938128
84,15,18,Jits_Linear_8,2,1,48,34,1684944828
84,15,18,Jits_Linear_8,3,5,63,98,1685007652
84,15,18,Jits_Linear_8,0,1,48,33,1685678664
84,15,18,Jits_Linear_8,1,5,63,98,1685727764
84,15,18,Jits_Linear_8,2,5,80,127,1685817764
84,15,18,Jits_Linear_8,3,5,56,103,1685827884
84,15,18,Jits_Linear_8,0,5,63,98,1686428036
84,15,18,Jits_Linear_8,1,5,80,127,1686478164
84,15,18,Jits_Linear_8,2,1,48,33,1686522708
84,15,18,Jits_Linear_8,3,5,56,103,1686537724
84,15,18,Jits_Linear_8,0,5,56,103,1687217896
84,15,18,Jits_Linear_8,1,1,48,27,1687236456
84,15,18,Jits_Linear_8,2,5,80,127,1687267572
84,15,18,Jits_Linear_8,3,5,63,98,1687288256
84,15,18,Jits_Linear_8,0,5,56,103,1687947612
84,15,18,Jits_Linear_8,1,1,48,30,1687998308
84,15,18,Jits_Linear_8,2,5,80,127,1688007924
84,15,18,Jits_Linear_8,3,5,63,98,1688077604
84,15,18,Jits_Linear_8,0,5,56,103,1688717636
84,15,18,Jits_Linear_8,1,5,80,127,1688748656
84,15,18,Jits_Linear_8,2,1,48,33,1688754544
84,15,18,Jits_Linear_8,3,5,63,98,1688778028
84,15,18,Jits_Linear_8,0,1,48,31,1689485900
84,15,18,Jits_Linear_8,1,5,56,103,1689517464
84,15,18,Jits_Linear_8,2,5,80,127,1689537852
84,15,18,Jits_Linear_8,3,5,63,98,1689598524
84,15,18,Jits_Linear_8,0,1,48,37,1690334496
84,15,18,Jits_Linear_8,1,5,80,127,1690358056
84,15,18,Jits_Linear_8,2,5,56,103,1690368696
84,15,18,Jits_Linear_8,3,5,63,98,1690377476
84,15,18,Jits_Linear_8,0,5,56,103,1691067692
84,15,18,Jits_Linear_8,1,5,80,127,1691107632
84,15,18,Jits_Linear_8,2,5,63,98,1691138652
84,15,18,Jits_Linear_8,3,1,48,34,1691147772
84,15,18,Jits_Linear_8,0,5,56,103,1691787600
84,15,18,Jits_Linear_8,1,5,63,98,1691818548
84,15,18,Jits_Linear_8,2,5,80,127,1691858408
84,15,18,Jits_Linear_8,3,1,48,28,1691880932
84,15,18,Jits_Linear_8,0,5,80,127,1692488012
84,15,18,Jits_Linear_8,1,5,63,98,1692538292
84,15,18,Jits_Linear_8,2,5,56,103,1692557704
84,15,18,Jits_Linear_8,3,1,48,29,1692615892
84,15,18,Jits_Linear_8,0,5,56,103,1693268592
84,15,18,Jits_Linear_8,1,5,80,127,1693337828
84,15,18,Jits_Linear_8,2,1,48,28,1693371812
84,15,18,Jits_Linear_8,3,5,63,98,1693398512
84,15,18,Jits_Linear_8,0,5,80,127,1694007608
84,15,18,Jits_Linear_8,1,5,63,98,1694097668
84,15,18,Jits_Linear_8,2,5,56,103,1694118352
84,15,18,Jits_Linear_8,3,1,48,35,1694156840
84,15,18,Jits_Linear_8,0,5,63,98,1694767448
84,15,18,Jits_Linear_8,1,5,56,103,1694787832
84,15,18,Jits_Linear_8,2,5,80,127,1694827844
84,15,18,Jits_Linear_8,3,1,48,31,1694865188
84,15,18,Jits_Linear_8,0,5,80,127,1695467752
84,15,18,Jits_Linear_8,1,5,63,98,1695488508
84,15,18,Jits_Linear_8,2,5,56,103,1695568404
84,15,18,Jits_Linear_8,3,1,48,32,1695605920
84,15,18,Jits_Linear_8,0,5,63,98,1696197916
84,15,18,Jits_Linear_8,1,5,56,103,1696307476
84,15,18,Jits_Linear_8,2,5,80,127,1696310620
84,15,18,Jits_Linear_8,3,1,48,34,1696359744
84,15,18,Jits_Linear_8,0,5,63,98,1696957800
84,15,18,Jits_Linear_8,1,5,56,103,1696967996
84,15,18,Jits_Linear_8,2,5,80,127,1696971284
84,15,18,Jits_Linear_8,3,1,48,33,1697113472
84,15,18,Jits_Linear_8,0,5,56,103,1697677676
84,15,18,Jits_Linear_8,1,5,80,127,1697797556
84,15,18,Jits_Linear_8,2,1,48,27,1697825040
84,15,18,Jits_Linear_8,3,5,63,98,1697837436
84,15,18,Jits_Linear_8,0,5,56,103,1698428224
84,15,18,Jits_Linear_8,1,1,48,27,1698501612
84,15,18,Jits_Linear_8,2,5,80,127,1698508092
84,15,18,Jits_Linear_8,3,5,63,98,1698527576
84,15,18,Jits_Linear_8,0,5,56,103,1699158320
84,15,18,Jits_Linear_8,1,1,48,26,1699225640
84,15,18,Jits_Linear_8,2,5,63,98,1699267848
84,15,18,Jits_Linear_8,3,5,80,127,1699271364
84,15,18,Jits_Linear_8,0,5,56,103,1699918300
84,15,18,Jits_Linear_8,1,5,80,127,1699947828
84,15,18,Jits_Linear_8,2,5,63,98,1699968364
84,15,18,Jits_Linear_8,3,1,48,34,1699999276
84,15,18,Jits_Linear_8,0,5,63,98,1700627916
84,15,18,Jits_Linear_8,1,5,56,103,1700638040
84,15,18,Jits_Linear_8,2,5,80,127,1700648556
84,15,18,Jits_Linear_8,3,1,48,34,1700720300
84,15,18,Jits_Linear_8,0,5,80,127,1701337312
84,15,18,Jits_Linear_8,1,5,56,103,1701387592
84,15,18,Jits_Linear_8,2,5,63,98,1701427480
84,15,18,Jits_Linear_8,3,1,48,30,1701438620
84,15,18,Jits_Linear_8,0,5,80,127,1702077816
84,15,18,Jits_Linear_8,1,1,48,28,1702081908
84,15,18,Jits_Linear_8,2,5,63,98,1702098196
84,15,18,Jits_Linear_8,3,5,56,103,1702147428
84,15,18,Jits_Linear_8,0,5,80,127,1702807836
84,15,18,Jits_Linear_8,1,1,48,28,1702835224
84,15,18,Jits_Linear_8,2,5,56,103,1702837580
84,15,18,Jits_Linear_8,3,5,63,98,1702908380
84,15,18,Jits_Linear_8,0,5,56,103,1703578084
84,15,18,Jits_Linear_8,1,5,80,127,1703588504
84,15,18,Jits_Linear_8,2,5,63,98,1703628220
84,15,18,Jits_Linear_8,3,1,48,30,1703644520
84,15,18,Jits_Linear_8,0,5,56,103,1704207612
84,15,18,Jits_Linear_8,1,5,63,98,1704228396
84,15,18,Jits_Linear_8,2,5,80,127,1704297928
84,15,18,Jits_Linear_8,3,1,48,31,1704325404
84,15,18,Jits_Linear_8,0,5,63,98,1704948040
84,15,18,Jits_Linear_8,1,5,80,127,1705007412
84,15,18,Jits_Linear_8,2,5,56,103,1705028240
84,15,18,Jits_Linear_8,3,1,48,27,1705081180
84,15,18,Jits_Linear_8,0,5,80,127,1705647404
84,15,18,Jits_Linear_8,1,5,56,103,1705678200
84,15,18,Jits_Linear_8,2,5,63,98,1705707800
84,15,18,Jits_Linear_8,3,1,48,29,1705738344
84,15,18,Jits_Linear_8,0,5,56,103,1706358308
84,15,18,Jits_Linear_8,1,1,48,23,1706404352
84,15,18,Jits_Linear_8,2,5,63,98,1706417500
84,15,18,Jits_Linear_8,3,5,80,127,1706477888
84,15,18,Jits_Linear_8,0,5,80,127,1707088404
84,15,18,Jits_Linear_8,1,5,56,103,1707107668
84,15,18,Jits_Linear_8,2,1,48,32,1707126900
84,15,18,Jits_Linear_8,3,5,63,98,1707178464
84,15,18,Jits_Linear_8,0,5,80,127,1707797796
84,15,18,Jits_Linear_8,1,5,63,98,1707818356
84,15,18,Jits_Linear_8,2,1,48,30,1707829040
84,15,18,Jits_Linear_8,3,5,56,103,1707848320
84,15,18,Jits_Linear_8,0,5,80,127,1708488176
84,15,18,Jits_Linear_8,1,5,63,98,1708507440
84,15,18,Jits_Linear_8,2,1,48,34,1708545256
84,15,18,Jits_Linear_8,3,5,56,103,1708567900
84,15,18,Jits_Linear_8,0,5,80,127,1709197668
84,15,18,Jits_Linear_8,1,1,48,28,1709235708
84,15,18,Jits_Linear_8,2,5,56,103,1709298284
84,15,18,Jits_Linear_8,3,5,63,98,1709327664
84,15,18,Jits_Linear_8,0,5,63,98,1709887976
84,15,18,Jits_Linear_8,1,5,80,127,1709938180
84,15,18,Jits_Linear_8,2,5,56,103,1709957444
84,15,18,Jits_Linear_8,3,1,48,35,1709970604
84,15,18,Jits_Linear_8,0,1,48,29,1710623336
84,15,18,Jits_Linear_8,1,5,80,127,1710628312
84,15,18,Jits_Linear_8,2,5,56,103,1710657988
84,15,18,Jits_Linear_8,3,5,63,98,1710661276
84,15,18,Jits_Linear_8,0,1,48,28,1711304304
84,15,18,Jits_Linear_8,1,5,63,98,1711358436
84,15,18,Jits_Linear_8,2,5,56,103,1711398252
84,15,18,Jits_Linear_8,3,5,80,127,1711417720
84,15,18,Jits_Linear_8,0,5,80,127,1711998320
84,15,18,Jits_Linear_8,1,1,48,33,1712020696
84,15,18,Jits_Linear_8,2,5,63,98,1712078260
84,15,18,Jits_Linear_8,3,5,56,103,1712118124
84,15,18,Jits_Linear_8,0,5,63,98,1712708116
84,15,18,Jits_Linear_8,1,1,48,29,1712747204
84,15,18,Jits_Linear_8,2,5,80,127,1712788132
84,15,18,Jits_Linear_8,3,5,56,103,1712808368
84,15,18,Jits_Linear_8,0,5,56,103,1713438028
84,15,18,Jits_Linear_8,1,1,48,29,1713447020
84,15,18,Jits_Linear_8,2,5,63,98,1713448516
84,15,18,Jits_Linear_8,3,5,80,127,1713488308
84,15,18,Jits_Linear_8,0,5,56,103,1714048300
84,15,18,Jits_Linear_8,1,5,80,127,1714051368
84,15,18,Jits_Linear_8,2,1,48,27,1714156688
84,15,18,Jits_Linear_8,3,5,63,98,1714187576
84,15,18,Jits_Linear_8,0,5,56,103,1714728408
84,15,18,Jits_Linear_8,1,5,63,98,1714818396
84,15,18,Jits_Linear_8,2,1,48,26,1714833648
84,15,18,Jits_Linear_8,3,5,80,127,1714887996
84,15,18,Jits_Linear_8,0,5,63,98,1715488176
84,15,18,Jits_Linear_8,1,5,80,127,1715491540
84,15,18,Jits_Linear_8,2,5,56,103,1715547444
84,15,18,Jits_Linear_8,3,1,48,33,1715592132
84,15,18,Jits_Linear_8,0,5,80,127,1716207964
84,15,18,Jits_Linear_8,1,5,56,103,1716227528
84,15,18,Jits_Linear_8,2,5,63,98,1716237796
84,15,18,Jits_Linear_8,3,1,48,23,1716250732
84,15,18,Jits_Linear_8,0,5,56,103,1716798032
84,15,18,Jits_Linear_8,1,5,63,98,1716808004
84,15,18,Jits_Linear_8,2,5,80,127,1716877612
84,15,18,Jits_Linear_8,3,1,48,27,1716944924
84,15,18,Jits_Linear_8,0,5,80,127,1717477976
84,15,18,Jits_Linear_8,1,5,56,103,1717528032
84,15,18,Jits_Linear_8,2,5,63,98,1717578184
84,15,18,Jits_Linear_8,3,1,48,23,1717591864
84,15,18,Jits_Linear_8,0,1,48,28,1718217040
84,15,18,Jits_Linear_8,1,5,56,103,1718237516
84,15,18,Jits_Linear_8,2,5,63,98,1718248084
84,15,18,Jits_Linear_8,3,5,80,127,1718287728
84,15,18,Jits_Linear_8,0,5,56,103,1718858076
84,15,18,Jits_Linear_8,1,5,63,98,1718898016
84,15,18,Jits_Linear_8,2,5,80,127,1718948216
84,15,18,Jits_Linear_8,3,1,48,27,1718964588
84,15,18,Jits_Linear_8,0,5,80,127,1719488272
84,15,18,Jits_Linear_8,1,5,56,103,1719538108
84,15,18,Jits_Linear_8,2,5,63,98,1719557596
84,15,18,Jits_Linear_8,3,1,48,21,1719666448
84,15,18,Jits_Linear_8,0,5,80,127,1720168100
84,15,18,Jits_Linear_8,1,5,63,98,1720228192
84,15,18,Jits_Linear_8,2,5,56,103,1720308136
84,15,18,Jits_Linear_8,3,1,48,22,1720432188
84,15,18,Jits_Linear_8,0,5,80,127,1720818080
84,15,18,Jits_Linear_8,1,5,56,103,1720858020
84,15,18,Jits_Linear_8,2,5,63,98,1720877528
84,15,18,Jits_Linear_8,3,1,48,21,1721189092
84,15,18,Jits_Linear_8,0,5,56,103,1721537904
84,15,18,Jits_Linear_8,1,5,80,127,1721548324
84,15,18,Jits_Linear_8,2,5,63,98,1721588112
84,15,18,Jits_Linear_8,0,1,48,27,1722054880
84,15,18,Jits_Linear_8,1,5,56,103,1722268084
84,15,18,Jits_Linear_8,2,5,63,98,1722308100
84,15,18,Jits_Linear_8,3,5,80,127,1722311316
84,15,18,Jits_Linear_8,0,5,63,98,1722817900
84,15,18,Jits_Linear_8,1,1,48,26,1722839080
84,15,18,Jits_Linear_8,2,5,80,127,1722858056
84,15,18,Jits_Linear_8,3,5,56,103,1722927540
84,15,18,Jits_Linear_8,0,5,63,98,1723468260
84,15,18,Jits_Linear_8,1,1,48,27,1723519556
84,15,18,Jits_Linear_8,2,5,56,103,1723548128
84,15,18,Jits_Linear_8,3,5,80,127,1723608368
84,15,18,Jits_Linear_8,0,5,80,127,1724137860
84,15,18,Jits_Linear_8,1,5,63,98,1724187988
84,15,18,Jits_Linear_8,2,5,56,103,1724217836
84,15,18,Jits_Linear_8,3,1,48,27,1724295652
84,15,18,Jits_Linear_8,0,5,56,103,1724788008
84,15,18,Jits_Linear_8,1,5,63,98,1724838360
84,15,18,Jits_Linear_8,2,5,80,127,1724847436
84,15,18,Jits_Linear_8,3,1,48,27,1724977416
84,15,18,Jits_Linear_8,0,5,56,103,1725457836
84,15,18,Jits_Linear_8,1,5,63,98,1725568304
84,15,18,Jits_Linear_8,2,5,80,127,1725587940
84,15,18,Jits_Linear_8,3,1,48,26,1725665368
84,15,18,Jits_Linear_8,0,5,63,98,1726108068
84,15,18,Jits_Linear_8,1,5,80,127,1726158048
84,15,18,Jits_Linear_8,2,5,56,103,1726248280
84,15,18,Jits_Linear_8,3,1,48,22,1726367296
84,15,18,Jits_Linear_8,0,5,63,98,1726747996
84,15,18,Jits_Linear_8,1,5,80,127,1726777844
84,15,18,Jits_Linear_8,2,5,56,103,1726868052
84,15,18,Jits_Linear_8,0,1,48,26,1727212816
84,15,18,Jits_Linear_8,1,5,63,98,1727398368
84,15,18,Jits_Linear_8,2,5,56,103,1727407520
84,15,18,Jits_Linear_8,3,5,80,127,1727508060
84,15,18,Jits_Linear_8,0,1,48,21,1727827740
84,15,18,Jits_Linear_8,1,5,63,98,1728147856
84,15,18,Jits_Linear_8,2,5,80,127,1728177536
84,15,18,Jits_Linear_8,3,5,56,103,1728208184
84,15,18,Jits_Linear_8,0,1,48,19,1728778940
84,15,18,Jits_Linear_8,1,5,80,127,1728808436
84,15,18,Jits_Linear_8,2,5,63,98,1728817436
84,15,18,Jits_Linear_8,3,5,56,103,1728848380
84,15,18,Jits_Linear_8,0,5,80,127,1729348124
84,15,18,Jits_Linear_8,1,5,63,98,1729368512
84,15,18,Jits_Linear_8,2,5,56,103,1729417668
84,15,18,Jits_Linear_8,0,1,48,20,1729885260
84,15,18,Jits_Linear_8,1,5,63,98,1730017820
84,15,18,Jits_Linear_8,2,5,80,127,1730078088
84,15,18,Jits_Linear_8,3,5,56,103,1730097652
84,15,18,Jits_Linear_8,0,1,48,28,1730477848
84,15,18,Jits_Linear_8,1,5,63,98,1730617988
84,15,18,Jits_Linear_8,2,5,56,103,1730667824
84,15,18,Jits_Linear_8,3,5,80,127,1730678020
84,15,18,Jits_Linear_8,0,1,48,21,1731146268
84,15,18,Jits_Linear_8,1,5,56,103,1731288480
84,15,18,Jits_Linear_8,2,5,80,127,1731297704
84,15,18,Jits_Linear_8,3,5,63,98,1731398052
84,15,18,Jits_Linear_8,0,1,48,28,1731834576
84,15,18,Jits_Linear_8,1,5,80,127,1731887612
84,15,18,Jits_Linear_8,2,5,63,98,1731897808
84,15,18,Jits_Linear_8,3,5,56,103,1732048308
84,15,18,Jits_Linear_8,0,1,48,30,1732473556
84,15,18,Jits_Linear_8,1,5,63,98,1732527612
84,15,18,Jits_Linear_8,2,5,80,127,1732568360
84,15,18,Jits_Linear_8,3,5,56,103,1732648256
84,15,18,Jits_Linear_8,0,5,56,103,1733147916
84,15,18,Jits_Linear_8,1,1,48,26,1733151956
84,15,18,Jits_Linear_8,2,5,80,127,1733248320
84,15,18,Jits_Linear_8,3,5,63,98,1733267880
84,15,18,Jits_Linear_8,0,1,48,29,1733762072
84,15,18,Jits_Linear_8,1,5,80,127,1733838148
84,15,18,Jits_Linear_8,2,5,56,103,1733848420
84,15,18,Jits_Linear_8,3,5,63,98,1733937736
84,15,18,Jits_Linear_8,0,1,48,32,1734442472
84,15,18,Jits_Linear_8,1,5,56,103,1734467904
84,15,18,Jits_Linear_8,2,5,63,98,1734488368
84,15,18,Jits_Linear_8,3,5,80,127,1734568296
84,15,18,Jits_Linear_8,0,5,63,98,1735038460
84,15,18,Jits_Linear_8,1,1,48,29,1735062328
84,15,18,Jits_Linear_8,2,5,56,103,1735128444
84,15,18,Jits_Linear_8,3,5,80,127,1735131656
84,15,18,Jits_Linear_8,0,1,48,30,1735643800
84,15,18,Jits_Linear_8,1,5,56,103,1735687740
84,15,18,Jits_Linear_8,2,5,80,127,1735747920
84,15,18,Jits_Linear_8,3,5,63,98,1735758264
84,15,18,Jits_Linear_8,0,1,48,28,1736247656
84,15,18,Jits_Linear_8,1,5,80,127,1736358176
84,15,18,Jits_Linear_8,2,5,56,103,1736367544
84,15,18,Jits_Linear_8,3,5,63,98,1736370536
84,15,18,Jits_Linear_8,0,1,48,27,1736921056
84,15,18,Jits_Linear_8,1,5,56,103,1736937796
84,15,18,Jits_Linear_8,2,5,80,127,1736948068
84,15,18,Jits_Linear_8,3,5,63,98,1736967628
84,15,18,Jits_Linear_8,0,1,48,29,1737526348
84,15,18,Jits_Linear_8,1,5,63,98,1737527772
84,15,18,Jits_Linear_8,2,5,80,127,1737588016
84,15,18,Jits_Linear_8,3,5,56,103,1737638128
84,15,18,Jits_Linear_8,0,1,48,29,1738127892
84,15,18,Jits_Linear_8,1,5,63,98,1738228824
84,15,18,Jits_Linear_8,2,5,56,103,1738238420
84,15,18,Jits_Linear_8,3,5,80,127,1738287600
84,15,18,Jits_Linear_8,0,5,63,98,1738737964
84,15,18,Jits_Linear_8,1,5,80,127,1738757748
84,15,18,Jits_Linear_8,2,5,56,103,1738767720
84,15,18,Jits_Linear_8,3,1,48,29,1738792212
84,15,18,Jits_Linear_8,0,1,48,27,1739298308
84,15,18,Jits_Linear_8,1,5,63,98,1739348528
84,15,18,Jits_Linear_8,2,5,80,127,1739351892
84,15,18,Jits_Linear_8,3,5,56,103,1739388392
84,15,18,Jits_Linear_8,0,1,48,31,1739923444
84,15,18,Jits_Linear_8,1,5,63,98,1740028360
84,15,18,Jits_Linear_8,2,5,80,127,1740057964
84,15,18,Jits_Linear_8,3,5,56,103,1740068332
84,15,18,Jits_Linear_8,0,1,48,29,1740586276
84,15,18,Jits_Linear_8,1,5,56,103,1740588388
84,15,18,Jits_Linear_8,2,5,80,127,1740617992
84,15,18,Jits_Linear_8,3,5,63,98,1740647744
84,15,18,Jits_Linear_8,0,1,48,32,1741150964
84,15,18,Jits_Linear_8,1,5,63,98,1741287796
84,15,18,Jits_Linear_8,2,5,56,103,1741327732
84,15,18,Jits_Linear_8,3,5,80,127,1741330800
84,15,18,Jits_Linear_8,0,5,80,127,1741787636
84,15,18,Jits_Linear_8,1,1,48,28,1741792548
84,15,18,Jits_Linear_8,2,5,56,103,1741868424
84,15,18,Jits_Linear_8,3,5,63,98,1741917488
84,15,18,Jits_Linear_8,0,5,80,127,1742368040
84,15,18,Jits_Linear_8,1,5,56,103,1742387824
84,15,18,Jits_Linear_8,2,1,48,26,1742423304
84,15,18,Jits_Linear_8,3,5,63,98,1742477576
84,15,18,Jits_Linear_8,0,1,48,27,1742975784
84,15,18,Jits_Linear_8,1,5,80,127,1743007968
84,15,18,Jits_Linear_8,2,5,63,98,1743047984
84,15,18,Jits_Linear_8,3,5,56,103,1743087980
84,15,18,Jits_Linear_8,0,5,63,98,1743577700
84,15,18,Jits_Linear_8,1,1,48,26,1743580520
84,15,18,Jits_Linear_8,2,5,80,127,1743637788
84,15,18,Jits_Linear_8,3,5,56,103,1743667564
84,15,18,Jits_Linear_8,0,5,56,103,1744177496
84,15,18,Jits_Linear_8,1,1,48,30,1744183228
84,15,18,Jits_Linear_8,2,5,80,127,1744208360
84,15,18,Jits_Linear_8,3,5,63,98,1744298624
84,15,18,Jits_Linear_8,0,5,56,103,1744777652
84,15,18,Jits_Linear_8,1,1,48,25,1744790588
84,15,18,Jits_Linear_8,2,5,80,127,1744888296
84,15,18,Jits_Linear_8,3,5,63,98,1744917896
84,15,18,Jits_Linear_8,0,5,56,103,1745417528
84,15,18,Jits_Linear_8,1,1,48,29,1745460752
84,15,18,Jits_Linear_8,2,5,63,98,1745477940
84,15,18,Jits_Linear_8,3,5,80,127,1745507688
84,15,18,Jits_Linear_8,0,5,56,103,1745977780
84,15,18,Jits_Linear_8,1,5,63,98,1746048584
84,15,18,Jits_Linear_8,2,5,80,127,1746067700
84,15,18,Jits_Linear_8,3,1,48,28,1746088204
84,15,18,Jits_Linear_8,0,5,80,127,1746537856
84,15,18,Jits_Linear_8,1,5,63,98,1746558540
84,15,18,Jits_Linear_8,2,5,56,103,1746607548
84,15,18,Jits_Linear_8,3,1,48,25,1746686632
84,15,18,Jits_Linear_8,0,5,63,98,1747137788
84,15,18,Jits_Linear_8,1,1,48,25,1747142776
84,15,18,Jits_Linear_8,2,5,80,127,1747148124
84,15,18,Jits_Linear_8,3,5,56,103,1747198400
84,15,18,Jits_Linear_8,0,1,48,24,1747651196
84,15,18,Jits_Linear_8,1,5,63,98,1747717612
84,15,18,Jits_Linear_8,2,5,80,127,1747788128
84,15,18,Jits_Linear_8,3,5,56,103,1747807540
84,15,18,Jits_Linear_8,0,1,48,23,1748293172
84,15,18,Jits_Linear_8,1,5,63,98,1748327820
84,15,18,Jits_Linear_8,2,5,80,127,1748331332
84,15,18,Jits_Linear_8,3,5,56,103,1748397708
84,15,18,Jits_Linear_8,0,5,80,127,1748858432
84,15,18,Jits_Linear_8,1,5,56,103,1748877624
84,15,18,Jits_Linear_8,2,5,63,98,1748887968
84,15,18,Jits_Linear_8,3,1,48,23,1748896632
84,15,18,Jits_Linear_8,0,1,48,21,1749419740
84,15,18,Jits_Linear_8,1,5,56,103,1749458428
84,15,18,Jits_Linear_8,2,5,63,98,1749548648
84,15,18,Jits_Linear_8,3,5,80,127,1749551936
84,15,18,Jits_Linear_8,0,5,80,127,1750008152
84,15,18,Jits_Linear_8,1,5,56,103,1750018572
84,15,18,Jits_Linear_8,2,1,48,21,1750031352
84,15,18,Jits_Linear_8,3,5,63,98,1750037980
84,15,18,Jits_Linear_8,0,1,48,23,1750504644
84,15,18,Jits_Linear_8,1,5,63,98,1750577456
84,15,18,Jits_Linear_8,2,5,80,127,1750637988
84,15,18,Jits_Linear_8,3,5,56,103,1750648332
84,15,18,Jits_Linear_8,0,1,48,19,1751119508
84,15,18,Jits_Linear_8,1,5,63,98,1751217672
84,15,18,Jits_Linear_8,2,5,80,127,1751248472
84,15,18,Jits_Linear_8,3,5,56,103,1751288260
84,15,18,Jits_Linear_8,0,1,48,20,1751719808
84,15,18,Jits_Linear_8,1,5,56,103,1751777756
84,15,18,Jits_Linear_8,2,5,80,127,1751787876
84,15,18,Jits_Linear_8,3,5,63,98,1751827800
84,15,18,Jits_Linear_8,0,1,48,22,1752304816
84,15,18,Jits_Linear_8,1,5,80,127,1752308072
84,15,18,Jits_Linear_8,2,5,56,103,1752387896
84,15,18,Jits_Linear_8,3,5,63,98,1752398316
84,15,18,Jits_Linear_8,0,1,48,23,1752853716
84,15,18,Jits_Linear_8,1,5,80,127,1752918360
84,15,18,Jits_Linear_8,2,5,56,103,1752998440
84,15,18,Jits_Linear_8,3,5,63,98,1753007444
84,15,18,Jits_Linear_8,0,5,80,127,1753437528
84,15,18,Jits_Linear_8,1,5,56,103,1753487808
84,15,18,Jits_Linear_8,2,1,48,19,1753501116
84,15,18,Jits_Linear_8,3,5,63,98,1753537928
84,15,18,Jits_Linear_8,0,1,48,20,1754037136
84,15,18,Jits_Linear_8,1,5,56,103,1754058064
84,15,18,Jits_Linear_8,2,5,63,98,1754061276
84,15,18,Jits_Linear_8,3,5,80,127,1754108340
84,15,18,Jits_Linear_8,0,1,48,23,1754612920
84,15,18,Jits_Linear_8,1,5,56,103,1754647868
84,15,18,Jits_Linear_8,2,5,63,98,1754677644
84,15,18,Jits_Linear_8,3,5,80,127,1754687840
84,15,18,Jits_Linear_8,0,5,63,98,1755118036
84,15,18,Jits_Linear_8,1,5,56,103,1755187596
84,15,18,Jits_Linear_8,2,1,48,22,1755217836
84,15,18,Jits_Linear_8,3,5,80,127,1755237716
84,15,18,Jits_Linear_8,0,5,63,98,1755707724
84,15,18,Jits_Linear_8,1,5,56,103,1755718068
84,15,18,Jits_Linear_8,2,5,80,127,1755720984
84,15,18,Jits_Linear_8,3,1,48,21,1755764700
84,15,18,Jits_Linear_8,0,5,80,127,1756207540
84,15,18,Jits_Linear_8,1,1,48,22,1756229388
84,15,18,Jits_Linear_8,2,5,56,103,1756267852
84,15,18,Jits_Linear_8,3,5,63,98,1756357892
84,15,18,Jits_Linear_8,0,5,80,127,1756758472
84,15,18,Jits_Linear_8,1,1,48,24,1756803248
84,15,18,Jits_Linear_8,2,5,56,103,1756857596
84,15,18,Jits_Linear_8,3,5,63,98,1756897536
84,15,18,Jits_Linear_8,0,1,48,21,1757352904
84,15,18,Jits_Linear_8,1,5,56,103,1757357360
84,15,18,Jits_Linear_8,2,5,63,98,1757377896
84,15,18,Jits_Linear_8,3,5,80,127,1757417760
84,15,18,Jits_Linear_8,0,5,63,98,1757877572
84,15,18,Jits_Linear_8,1,1,48,26,1757894616
84,15,18,Jits_Linear_8,2,5,56,103,1757898176
84,15,18,Jits_Linear_8,3,5,80,127,1757997312
84,15,18,Jits_Linear_8,0,5,63,98,1758408192
84,15,18,Jits_Linear_8,1,1,48,27,1758437236
84,15,18,Jits_Linear_8,2,5,80,127,1758517604
84,15,18,Jits_Linear_8,3,5,56,103,1758548308
84,15,18,Jits_Linear_8,0,5,56,103,1758968252
84,15,18,Jits_Linear_8,1,1,48,31,1758983580
84,15,18,Jits_Linear_8,2,5,63,98,1758997776
84,15,18,Jits_Linear_8,3,5,80,127,1759048148
84,15,18,Jits_Linear_8,0,5,63,98,1759478284
84,15,18,Jits_Linear_8,1,5,56,103,1759507960
84,15,18,Jits_Linear_8,2,1,48,32,1759511524
84,15,18,Jits_Linear_8,3,5,80,127,1759557956
84,15,18,Jits_Linear_8,0,5,56,103,1760047584
84,15,18,Jits_Linear_8,1,5,63,98,1760067896
84,15,18,Jits_Linear_8,2,1,48,27,1760124272
84,15,18,Jits_Linear_8,3,5,80,127,1760147832
84,15,18,Jits_Linear_8,0,5,63,98,1760557608
84,15,18,Jits_Linear_8,1,5,56,103,1760617708
84,15,18,Jits_Linear_8,2,5,80,127,1760647456
84,15,18,Jits_Linear_8,3,1,48,21,1760834880
84,15,18,Jits_Linear_8,0,5,56,103,1761138348
84,15,18,Jits_Linear_8,1,5,80,127,1761197472
84,15,18,Jits_Linear_8,2,5,63,98,1761238380
84,15,18,Jits_Linear_8,3,1,48,27,1761312464
84,15,18,Jits_Linear_8,0,5,63,98,1761648160
84,15,18,Jits_Linear_8,1,1,48,24,1761701624
84,15,18,Jits_Linear_8,2,5,56,103,1761708472
84,15,18,Jits_Linear_8,3,5,80,127,1761778004
84,15,18,Jits_Linear_8,0,5,56,103,1762258276
84,15,18,Jits_Linear_8,1,5,63,98,1762267572
84,15,18,Jits_Linear_8,2,5,80,127,1762271236
84,15,18,Jits_Linear_8,3,1,48,28,1762302004
84,15,18,Jits_Linear_8,0,5,63,98,1762728288
84,15,18,Jits_Linear_8,1,5,56,103,1762787636
84,15,18,Jits_Linear_8,2,5,80,127,1762790700
84,15,18,Jits_Linear_8,3,1,48,25,1762847564
84,15,18,Jits_Linear_8,0,5,63,98,1763238220
84,15,18,Jits_Linear_8,1,5,80,127,1763267900
84,15,18,Jits_Linear_8,2,5,56,103,1763288504
84,15,18,Jits_Linear_8,3,1,48,26,1763323756
84,15,18,Jits_Linear_8,0,1,48,24,1763732536
84,15,18,Jits_Linear_8,1,5,56,103,1763767780
84,15,18,Jits_Linear_8,2,5,63,98,1763817760
84,15,18,Jits_Linear_8,3,5,80,127,1763897568
84,15,18,Jits_Linear_8,0,5,80,127,1764268364
84,15,18,Jits_Linear_8,1,5,63,98,1764308308
84,15,18,Jits_Linear_8,2,1,48,24,1764312472
84,15,18,Jits_Linear_8,3,5,56,103,1764327860
84,15,18,Jits_Linear_8,0,1,48,21,1764831100
84,15,18,Jits_Linear_8,1,5,56,103,1764858328
84,15,18,Jits_Linear_8,2,5,80,127,1764867476
84,15,18,Jits_Linear_8,3,5,63,98,1764887788
84,15,18,Jits_Linear_8,0,1,48,24,1765316628
84,15,18,Jits_Linear_8,1,5,56,103,1765358152
84,15,18,Jits_Linear_8,2,5,63,98,1765409044
84,15,18,Jits_Linear_8,3,5,80,127,1765437968
84,15,18,Jits_Linear_8,0,5,56,103,1765828320
84,15,18,Jits_Linear_8,1,5,63,98,1765838368
84,15,18,Jits_Linear_8,2,1,48,23,1765871452
84,15,18,Jits_Linear_8,3,5,80,127,1765888264
84,15,18,Jits_Linear_8,0,5,56,103,1766338200
84,15,18,Jits_Linear_8,1,5,80,127,1766341260
84,15,18,Jits_Linear_8,2,1,48,25,1766389340
84,15,18,Jits_Linear_8,3,5,63,98,1766497628
84,15,18,Jits_Linear_8,0,5,63,98,1766868296
84,15,18,Jits_Linear_8,1,1,48,23,1766922204
84,15,18,Jits_Linear_8,2,5,56,103,1766937972
84,15,18,Jits_Linear_8,3,5,80,127,1766977860
84,15,18,Jits_Linear_8,0,1,48,21,1767369660
84,15,18,Jits_Linear_8,1,5,63,98,1767418164
84,15,18,Jits_Linear_8,2,5,56,103,1767508308
84,15,18,Jits_Linear_8,3,5,80,127,1767511376
84,15,18,Jits_Linear_8,0,1,48,28,1767889492
84,15,18,Jits_Linear_8,1,5,56,103,1767907652
84,15,18,Jits_Linear_8,2,5,63,98,1767997800
84,15,18,Jits_Linear_8,3,5,80,127,1768007996
84,15,18,Jits_Linear_8,0,5,56,103,1768388232
84,15,18,Jits_Linear_8,1,1,48,31,1768430536
84,15,18,Jits_Linear_8,2,5,63,98,1768438060
84,15,18,Jits_Linear_8,3,5,80,127,1768468180
84,15,18,Jits_Linear_8,0,1,48,28,1768947236
84,15,18,Jits_Linear_8,1,5,63,98,1768967492
84,15,18,Jits_Linear_8,2,5,80,127,1768977688
84,15,18,Jits_Linear_8,3,5,56,103,1769038176
84,15,18,Jits_Linear_8,0,5,63,98,1769388360
84,15,18,Jits_Linear_8,1,5,80,127,1769447852
84,15,18,Jits_Linear_8,2,1,48,30,1769480116
84,15,18,Jits_Linear_8,3,5,56,103,1769487636
84,15,18,Jits_Linear_8,0,1,48,25,1769892120
84,15,18,Jits_Linear_8,1,5,56,103,1769987532
84,15,18,Jits_Linear_8,2,5,80,127,1770008048
84,15,18,Jits_Linear_8,3,5,63,98,1770028384
84,15,18,Jits_Linear_8,0,5,63,98,1770408324
84,15,18,Jits_Linear_8,1,1,48,31,1770426760
84,15,18,Jits_Linear_8,2,5,56,103,1770428400
84,15,18,Jits_Linear_8,3,5,80,127,1770467668
84,15,18,Jits_Linear_8,0,5,63,98,1770918260
84,15,18,Jits_Linear_8,1,5,80,127,1770948084
84,15,18,Jits_Linear_8,2,5,56,103,1770968396
84,15,18,Jits_Linear_8,3,1,48,26,1770975100
84,15,18,Jits_Linear_8,0,5,80,127,1771388340
84,15,18,Jits_Linear_8,1,5,56,103,1771437500
84,15,18,Jits_Linear_8,2,1,48,30,1771440840
84,15,18,Jits_Linear_8,3,5,63,98,1771497956
84,15,18,Jits_Linear_8,0,5,63,98,1771867432
84,15,18,Jits_Linear_8,1,1,48,25,1771924564
84,15,18,Jits_Linear_8,2,5,56,103,1771988204
84,15,18,Jits_Linear_8,3,5,80,127,1772018176
84,15,18,Jits_Linear_8,0,1,48,24,1772392100
84,15,18,Jits_Linear_8,1,5,80,127,1772398348
84,15,18,Jits_Linear_8,2,5,63,98,1772418288
84,15,18,Jits_Linear_8,3,5,56,103,1772488028
84,15,18,Jits_Linear_8,0,1,48,29,1772887148
84,15,18,Jits_Linear_8,1,5,63,98,1772908072
84,15,18,Jits_Linear_8,2,5,56,103,1772918192
84,15,18,Jits_Linear_8,3,5,80,127,1772998120
84,15,18,Jits_Linear_8,0,1,48,18,1773362688
84,15,18,Jits_Linear_8,1,5,56,103,1773458008
84,15,18,Jits_Linear_8,2,5,80,127,1773487464
84,15,18,Jits_Linear_8,3,5,63,98,1773497884
84,15,18,Jits_Linear_8,0,9999,9999,9999,1663085668
84,15,18,Jits_Linear_8,1,9999,9999,9999,1663905884
84,15,18,Jits_Linear_8,2,9999,9999,9999,1664726096
84,15,18,Jits_Linear_8,3,9999,9999,9999,1665555516
84,15,18,Jits_Linear_8,4,9999,9999,9999,1666375756
84,15,18,Jits_Linear_8,5,9999,9999,9999,1667185776
84,15,18,Jits_Linear_8,6,9999,9999,9999,1667995716
84,15,18,Jits_Linear_8,7,9999,9999,9999,1668805736
84,15,18,Jits_Linear_8,8,9999,9999,9999,1669615688
84,15,18,Jits_Linear_8,9,9999,9999,9999,1670425692
84,15,18,Jits_Linear_8,10,9999,9999,9999,1671225412
84,15,18,Jits_Linear_8,11,9999,9999,9999,1672025168
84,15,18,Jits_Linear_8,12,9999,9999,9999,1672825912
84,15,18,Jits_Linear_8,13,9999,9999,9999,1673625680
84,15,18,Jits_Linear_8,14,9999,9999,9999,1674425420
84,15,18,Jits_Linear_8,15,9999,9999,9999,1675215964
84,15,18,Jits_Linear_8,16,9999,9999,9999,1676005440
84,15,18,Jits_Linear_8,17,9999,9999,9999,1676796000
84,15,18,Jits_Linear_8,18,9999,9999,9999,1677585496
84,15,18,Jits_Linear_8,19,9999,9999,9999,1678376000
84,15,18,Jits_Linear_8,20,9999,9999,9999,1679155296
84,15,18,Jits_Linear_8,21,9999,9999,9999,1679935568
84,15,18,Jits_Linear_8,22,9999,9999,9999,1680715848
84,15,18,Jits_Linear_8,23,9999,9999,9999,1681495156
84,15,18,Jits_Linear_8,24,9999,9999,9999,1682275424
84,15,18,Jits_Linear_8,25,9999,9999,9999,1683045432
84,15,18,Jits_Linear_8,26,9999,9999,9999,1683815520
84,15,18,Jits_Linear_8,27,9999,9999,9999,1684585528
84,15,18,Jits_Linear_8,28,9999,9999,9999,1685355624
84,15,18,Jits_Linear_8,29,9999,9999,9999,1686125656
84,15,18,Jits_Linear_8,30,9999,9999,9999,1686885476
84,15,18,Jits_Linear_8,31,9999,9999,9999,1687645296
84,15,18,Jits_Linear_8,32,9999,9999,9999,1688406100
84,15,18,Jits_Linear_8,33,9999,9999,9999,1689175144
84,15,18,Jits_Linear_8,34,9999,9999,9999,1689935952
84,15,18,Jits_Linear_8,35,9999,9999,9999,1690685520
84,15,18,Jits_Linear_8,36,9999,9999,9999,1691435084
84,15,18,Jits_Linear_8,37,9999,9999,9999,1692185680
84,15,18,Jits_Linear_8,38,9999,9999,9999,1692935236
84,15,18,Jits_Linear_8,39,9999,9999,9999,1693685856
84,15,18,Jits_Linear_8,40,9999,9999,9999,1694425168
84,15,18,Jits_Linear_8,41,9999,9999,9999,1695165524
84,15,18,Jits_Linear_8,42,9999,9999,9999,1695905864
84,15,18,Jits_Linear_8,43,9999,9999,9999,1696645236
84,15,18,Jits_Linear_8,44,9999,9999,9999,1697385560
84,15,18,Jits_Linear_8,45,9999,9999,9999,1698115640
84,15,18,Jits_Linear_8,46,9999,9999,9999,1698845784
84,15,18,Jits_Linear_8,47,9999,9999,9999,1699575872
84,15,18,Jits_Linear_8,48,9999,9999,9999,1700306040
84,15,18,Jits_Linear_8,49,9999,9999,9999,1701035084
84,15,18,Jits_Linear_8,50,9999,9999,9999,1701756020
84,15,18,Jits_Linear_8,51,9999,9999,9999,1702475848
84,15,18,Jits_Linear_8,52,9999,9999,9999,1703195728
84,15,18,Jits_Linear_8,53,9999,9999,9999,1703915632
84,15,18,Jits_Linear_8,54,9999,9999,9999,1704635460
84,15,18,Jits_Linear_8,55,9999,9999,9999,1705345100
84,15,18,Jits_Linear_8,56,9999,9999,9999,1706055768
84,15,18,Jits_Linear_8,57,9999,9999,9999,1706765384
84,15,18,Jits_Linear_8,58,9999,9999,9999,1707476072
84,15,18,Jits_Linear_8,59,9999,9999,9999,1708185708
84,15,18,Jits_Linear_8,60,9999,9999,9999,1708886132
84,15,18,Jits_Linear_8,61,9999,9999,9999,1709595756
84,15,18,Jits_Linear_8,62,9999,9999,9999,1710295124
84,15,18,Jits_Linear_8,63,9999,9999,9999,1710995524
84,15,18,Jits_Linear_8,64,9999,9999,9999,1711695940
84,15,18,Jits_Linear_8,65,9999,9999,9999,1712385096
84,15,18,Jits_Linear_8,66,9999,9999,9999,1713075264
84,15,18,Jits_Linear_8,67,9999,9999,9999,1713765464
84,15,18,Jits_Linear_8,68,9999,9999,9999,1714455668
84,15,18,Jits_Linear_8,69,9999,9999,9999,1715145824
84,15,18,Jits_Linear_8,70,9999,9999,9999,1715825792
84,15,18,Jits_Linear_8,71,9999,9999,9999,1716505656
84,15,18,Jits_Linear_8,72,9999,9999,9999,1717185624
84,15,18,Jits_Linear_8,73,9999,9999,9999,1717865600
84,15,18,Jits_Linear_8,74,9999,9999,9999,1718545480
84,15,18,Jits_Linear_8,75,9999,9999,9999,1719215180
84,15,18,Jits_Linear_8,76,9999,9999,9999,1719885936
84,15,18,Jits_Linear_8,77,9999,9999,9999,1720555620
84,15,18,Jits_Linear_8,78,9999,9999,9999,1721225340
84,15,18,Jits_Linear_8,79,9999,9999,9999,1721896024
84,15,18,Jits_Linear_8,80,9999,9999,9999,1722555456
84,15,18,Jits_Linear_8,81,9999,9999,9999,1723215932
84,15,18,Jits_Linear_8,82,9999,9999,9999,1723875416
84,15,18,Jits_Linear_8,83,9999,9999,9999,1724535888
84,15,18,Jits_Linear_8,84,9999,9999,9999,1725195376
84,15,18,Jits_Linear_8,85,9999,9999,9999,1725845612
84,15,18,Jits_Linear_8,86,9999,9999,9999,1726495840
84,15,18,Jits_Linear_8,87,9999,9999,9999,1727146052
84,15,18,Jits_Linear_8,88,9999,9999,9999,1727795300
84,15,18,Jits_Linear_8,89,9999,9999,9999,1728445500
84,15,18,Jits_Linear_8,90,9999,9999,9999,1729085536
84,15,18,Jits_Linear_8,91,9999,9999,9999,1729725556
84,15,18,Jits_Linear_8,92,9999,9999,9999,1730365536
84,15,18,Jits_Linear_8,93,9999,9999,9999,1731005528
84,15,18,Jits_Linear_8,94,9999,9999,9999,1731645556
84,15,18,Jits_Linear_8,95,9999,9999,9999,1732275292
84,15,18,Jits_Linear_8,96,9999,9999,9999,1732906096
84,15,18,Jits_Linear_8,97,9999,9999,9999,1733535836
84,15,18,Jits_Linear_8,98,9999,9999,9999,1734165592
84,15,18,Jits_Linear_8,99,9999,9999,9999,1734795352
84,15,18,Jits_Linear_8,100,9999,9999,9999,1735415936
84,15,18,Jits_Linear_8,101,9999,9999,9999,1736035436
84,15,18,Jits_Linear_8,102,9999,9999,9999,1736655952
84,15,18,Jits_Linear_8,103,9999,9999,9999,1737275452
84,15,18,Jits_Linear_8,104,9999,9999,9999,1737896044
84,15,18,Jits_Linear_8,105,9999,9999,9999,1738505340
84,15,18,Jits_Linear_8,106,9999,9999,9999,1739115612
84,15,18,Jits_Linear_8,107,9999,9999,9999,1739725928
84,15,18,Jits_Linear_8,108,9999,9999,9999,1740335172
84,15,18,Jits_Linear_8,109,9999,9999,9999,1740945500
84,15,18,Jits_Linear_8,110,9999,9999,9999,1741545572
84,15,18,Jits_Linear_8,111,9999,9999,9999,1742145592
84,15,18,Jits_Linear_8,112,9999,9999,9999,1742745668
84,15,18,Jits_Linear_8,113,9999,9999,9999,1743345748
84,15,18,Jits_Linear_8,114,9999,9999,9999,1743945844
84,15,18,Jits_Linear_8,115,9999,9999,9999,1744535644
84,15,18,Jits_Linear_8,116,9999,9999,9999,1745125472
84,15,18,Jits_Linear_8,117,9999,9999,9999,1745715324
84,15,18,Jits_Linear_8,118,9999,9999,9999,1746305148
84,15,18,Jits_Linear_8,119,9999,9999,9999,1746895932
84,15,18,Jits_Linear_8,120,9999,9999,9999,1747475560
84,15,18,Jits_Linear_8,121,9999,9999,9999,1748055120
84,15,18,Jits_Linear_8,122,9999,9999,9999,1748635700
84,15,18,Jits_Linear_8,123,9999,9999,9999,1749215308
84,15,18,Jits_Linear_8,124,9999,9999,9999,1749795932
84,15,18,Jits_Linear_8,125,9999,9999,9999,1750365280
84,15,18,Jits_Linear_8,126,9999,9999,9999,1750935620
84,15,18,Jits_Linear_8,127,9999,9999,9999,1751506024
84,15,18,Jits_Linear_8,128,9999,9999,9999,1752075380
84,15,18,Jits_Linear_8,129,9999,9999,9999,1752645732
84,15,18,Jits_Linear_8,130,9999,9999,9999,1753205880
84,15,18,Jits_Linear_8,131,9999,9999,9999,1753765944
84,15,18,Jits_Linear_8,132,9999,9999,9999,1754326092
84,15,18,Jits_Linear_8,133,9999,9999,9999,1754895452
84,15,18,Jits_Linear_8,134,9999,9999,9999,1755455616
84,15,18,Jits_Linear_8,135,9999,9999,9999,1756005480
84,15,18,Jits_Linear_8,136,9999,9999,9999,1756555356
84,15,18,Jits_Linear_8,137,9999,9999,9999,1757105248
84,15,18,Jits_Linear_8,138,9999,9999,9999,1757655140
84,15,18,Jits_Linear_8,139,9999,9999,9999,1758206060
84,15,18,Jits_Linear_8,140,9999,9999,9999,1758745676
84,15,18,Jits_Linear_8,141,9999,9999,9999,1759285304
84,15,18,Jits_Linear_8,142,9999,9999,9999,1759826044
84,15,18,Jits_Linear_8,143,9999,9999,9999,1760365656
84,15,18,Jits_Linear_8,144,9999,9999,9999,1760905292
84,15,18,Jits_Linear_8,145,9999,9999,9999,1761435748
84,15,18,Jits_Linear_8,146,9999,9999,9999,1761965116
84,15,18,Jits_Linear_8,147,9999,9999,9999,1762495576
84,15,18,Jits_Linear_8,148,9999,9999,9999,1763025976
84,15,18,Jits_Linear_8,149,9999,9999,9999,1763555392
84,15,18,Jits_Linear_8,150,9999,9999,9999,1764075600
84,15,18,Jits_Linear_8,151,9999,9999,9999,1764595800
84,15,18,Jits_Linear_8,152,9999,9999,9999,1765116024
84,15,18,Jits_Linear_8,153,9999,9999,9999,1765635188
84,15,18,Jits_Linear_8,154,9999,9999,9999,1766155384
84,15,18,Jits_Linear_8,155,9999,9999,9999,1766665328
84,15,18,Jits_Linear_8,156,9999,9999,9999,1767175284
84,15,18,Jits_Linear_8,157,9999,9999,9999,1767685224
84,15,18,Jits_Linear_8,158,9999,9999,9999,1768195172
84,15,18,Jits_Linear_8,159,9999,9999,9999,1768705112
84,15,18,Jits_Linear_8,160,9999,9999,9999,1769205860
84,15,18,Jits_Linear_8,161,9999,9999,9999,1769705536
84,15,18,Jits_Linear_8,162,9999,9999,9999,1770205300
84,15,18,Jits_Linear_8,163,9999,9999,9999,1770706020
84,15,18,Jits_Linear_8,164,9999,9999,9999,1771205692
84,15,18,Jits_Linear_8,165,9999,9999,9999,1771695184
84,15,18,Jits_Linear_8,166,9999,9999,9999,1772185664
84,15,18,Jits_Linear_8,167,9999,9999,9999,1772675156
84,15,18,Jits_Linear_8,168,9999,9999,9999,1773165696
84,15,18,Jits_Linear_8,169,9999,9999,9999,1773655120
84,16,16,Jits_ISO_5,0,5,56,103,1782644156
84,16,16,Jits_ISO_5,1,5,63,98,1782647404
84,16,16,Jits_ISO_5,2,5,80,127,1782650524
84,16,16,Jits_ISO_5,0,1,48,16,1783124904
84,16,16,Jits_ISO_5,1,5,56,103,1783143940
84,16,16,Jits_ISO_5,2,5,63,98,1783147192
84,16,16,Jits_ISO_5,3,5,80,127,1783150236
84,16,16,Jits_ISO_5,0,1,48,29,1783581152
84,16,16,Jits_ISO_5,1,5,56,103,1783643524
84,16,16,Jits_ISO_5,2,5,80,127,1783653868
84,16,16,Jits_ISO_5,3,5,63,98,1783674176
84,16,16,Jits_ISO_5,0,5,63,98,1784094040
84,16,16,Jits_ISO_5,1,1,48,26,1784122048
84,16,16,Jits_ISO_5,2,5,80,127,1784123936
84,16,16,Jits_ISO_5,3,5,56,103,1784134056
84,16,16,Jits_ISO_5,0,1,48,33,1784620328
84,16,16,Jits_ISO_5,1,5,80,127,1784654148
84,16,16,Jits_ISO_5,2,5,56,103,1784664568
84,16,16,Jits_ISO_5,3,5,63,98,1784694096
84,16,16,Jits_ISO_5,0,5,63,98,1785143928
84,16,16,Jits_ISO_5,1,5,56,103,1785174356
84,16,16,Jits_ISO_5,2,1,48,36,1785181532
84,16,16,Jits_ISO_5,3,5,80,127,1785183572
84,16,16,Jits_ISO_5,0,5,56,103,1785594344
84,16,16,Jits_ISO_5,1,5,63,98,1785644276
84,16,16,Jits_ISO_5,2,1,48,21,1785654588
84,16,16,Jits_ISO_5,3,5,80,127,1785663752
84,16,16,Jits_ISO_5,0,5,80,127,1786094020
84,16,16,Jits_ISO_5,1,1,48,34,1786127856
84,16,16,Jits_ISO_5,2,5,63,98,1786144092
84,16,16,Jits_ISO_5,3,5,56,103,1786184176
84,16,16,Jits_ISO_5,0,5,56,103,1786593760
84,16,16,Jits_ISO_5,1,5,63,98,1786624336
84,16,16,Jits_ISO_5,2,1,48,39,1786664340
84,16,16,Jits_ISO_5,3,5,80,127,1786694104
84,16,16,Jits_ISO_5,0,5,56,103,1787094332
84,16,16,Jits_ISO_5,1,1,48,36,1787103824
84,16,16,Jits_ISO_5,2,5,80,127,1787153744
84,16,16,Jits_ISO_5,3,5,63,98,1787183440
84,16,16,Jits_ISO_5,0,5,56,103,1787613708
84,16,16,Jits_ISO_5,1,5,63,98,1787623680
84,16,16,Jits_ISO_5,2,1,48,34,1787657516
84,16,16,Jits_ISO_5,3,5,80,127,1787663832
84,16,16,Jits_ISO_5,0,1,48,36,1788087720
84,16,16,Jits_ISO_5,1,5,63,98,1788103932
84,16,16,Jits_ISO_5,2,5,80,127,1788183936
84,16,16,Jits_ISO_5,3,5,56,103,1788194156
84,16,16,Jits_ISO_5,0,1,48,36,1788596300
84,16,16,Jits_ISO_5,1,5,63,98,1788653936
84,16,16,Jits_ISO_5,2,5,56,103,1788694008
84,16,16,Jits_ISO_5,3,5,80,127,1788697000
84,16,16,Jits_ISO_5,0,1,48,36,1789113888
84,16,16,Jits_ISO_5,1,5,56,103,1789115152
84,16,16,Jits_ISO_5,2,5,63,98,1789124080
84,16,16,Jits_ISO_5,3,5,80,127,1789163944
84,16,16,Jits_ISO_5,0,5,56,103,1789604256
84,16,16,Jits_ISO_5,1,5,63,98,1789607172
84,16,16,Jits_ISO_5,2,1,48,38,1789622464
84,16,16,Jits_ISO_5,3,5,80,127,1789623960
84,16,16,Jits_ISO_5,0,1,48,39,1790091504
84,16,16,Jits_ISO_5,1,5,80,127,1790114220
84,16,16,Jits_ISO_5,2,5,56,103,1790124344
84,16,16,Jits_ISO_5,3,5,63,98,1790194004
84,16,16,Jits_ISO_5,0,5,63,98,1790603696
84,16,16,Jits_ISO_5,1,1,48,39,1790611992
84,16,16,Jits_ISO_5,2,5,56,103,1790624000
84,16,16,Jits_ISO_5,3,5,80,127,1790704896
84,16,16,Jits_ISO_5,0,1,48,21,1791104224
84,16,16,Jits_ISO_5,1,5,56,103,1791113684
84,16,16,Jits_ISO_5,2,5,80,127,1791153696
84,16,16,Jits_ISO_5,3,5,63,98,1791163744
84,16,16,Jits_ISO_5,0,1,48,29,1791588588
84,16,16,Jits_ISO_5,1,5,80,127,1791604124
84,16,16,Jits_ISO_5,2,5,63,98,1791633948
84,16,16,Jits_ISO_5,3,5,56,103,1791673808
84,16,16,Jits_ISO_5,0,1,48,39,1792115592
84,16,16,Jits_ISO_5,1,5,56,103,1792124164
84,16,16,Jits_ISO_5,2,5,63,98,1792153912
84,16,16,Jits_ISO_5,3,5,80,127,1792204112
84,16,16,Jits_ISO_5,0,5,80,127,1792624052
84,16,16,Jits_ISO_5,1,1,48,36,1792629792
84,16,16,Jits_ISO_5,2,5,56,103,1792664060
84,16,16,Jits_ISO_5,3,5,63,98,1792674104
84,16,16,Jits_ISO_5,0,5,80,127,1793104096
84,16,16,Jits_ISO_5,1,5,63,98,1793144036
84,16,16,Jits_ISO_5,2,1,48,39,1793167228
84,16,16,Jits_ISO_5,3,5,56,103,1793203816
84,16,16,Jits_ISO_5,0,5,56,103,1793603844
84,16,16,Jits_ISO_5,1,5,80,127,1793614112
84,16,16,Jits_ISO_5,2,1,48,39,1793637760
84,16,16,Jits_ISO_5,3,5,63,98,1793694048
84,16,16,Jits_ISO_5,0,5,80,127,1794103584
84,16,16,Jits_ISO_5,1,5,63,98,1794163976
84,16,16,Jits_ISO_5,2,1,48,36,1794178628
84,16,16,Jits_ISO_5,3,5,56,103,1794193792
84,16,16,Jits_ISO_5,0,5,56,103,1794604604
84,16,16,Jits_ISO_5,1,1,48,37,1794661908
84,16,16,Jits_ISO_5,2,5,80,127,1794663716
84,16,16,Jits_ISO_5,3,5,63,98,1794703876
84,16,16,Jits_ISO_5,0,1,48,33,1795114216
84,16,16,Jits_ISO_5,1,5,56,103,1795163688
84,16,16,Jits_ISO_5,2,5,63,98,1795173880
84,16,16,Jits_ISO_5,3,5,80,127,1795177096
84,16,16,Jits_ISO_5,0,1,48,35,1795598772
84,16,16,Jits_ISO_5,1,5,80,127,1795613964
84,16,16,Jits_ISO_5,2,5,63,98,1795704228
84,16,16,Jits_ISO_5,3,5,56,103,1795714496
84,16,16,Jits_ISO_5,0,5,56,103,1796113812
84,16,16,Jits_ISO_5,1,5,63,98,1796116832
84,16,16,Jits_ISO_5,2,5,80,127,1796120032
84,16,16,Jits_ISO_5,3,1,48,38,1796138368
84,16,16,Jits_ISO_5,0,1,48,37,1796623536
84,16,16,Jits_ISO_5,1,5,80,127,1796634140
84,16,16,Jits_ISO_5,2,5,63,98,1796684116
84,16,16,Jits_ISO_5,3,5,56,103,1796713864
84,16,16,Jits_ISO_5,0,5,56,103,1797114076
84,16,16,Jits_ISO_5,1,5,80,127,1797123524
84,16,16,Jits_ISO_5,2,1,48,33,1797126044
84,16,16,Jits_ISO_5,3,5,63,98,1797194116
84,16,16,Jits_ISO_5,0,5,56,103,1797624088
84,16,16,Jits_ISO_5,1,1,48,33,1797630792
84,16,16,Jits_ISO_5,2,5,63,98,1797643716
84,16,16,Jits_ISO_5,3,5,80,127,1797704052
84,16,16,Jits_ISO_5,0,5,80,127,1798113636
84,16,16,Jits_ISO_5,1,1,48,33,1798139304
84,16,16,Jits_ISO_5,2,5,63,98,1798184160
84,16,16,Jits_ISO_5,3,5,56,103,1798203720
84,16,16,Jits_ISO_5,0,5,80,127,1798633692
84,16,16,Jits_ISO_5,1,5,56,103,1798644184
84,16,16,Jits_ISO_5,2,5,63,98,1798654456
84,16,16,Jits_ISO_5,3,1,48,39,1798668208
84,16,16,Jits_ISO_5,0,5,80,127,1799133512
84,16,16,Jits_ISO_5,1,5,56,103,1799153972
84,16,16,Jits_ISO_5,2,1,48,35,1799173652
84,16,16,Jits_ISO_5,3,5,63,98,1799223668
84,16,16,Jits_ISO_5,0,5,56,103,1799643600
84,16,16,Jits_ISO_5,1,1,48,30,1799668440
84,16,16,Jits_ISO_5,2,5,80,127,1799674240
84,16,16,Jits_ISO_5,3,5,63,98,1799693724
84,16,16,Jits_ISO_5,0,5,63,98,1800133980
84,16,16,Jits_ISO_5,1,1,48,33,1800162804
84,16,16,Jits_ISO_5,2,5,56,103,1800194660
84,16,16,Jits_ISO_5,3,5,80,127,1800224064
84,16,16,Jits_ISO_5,0,5,63,98,1800623528
84,16,16,Jits_ISO_5,1,5,80,127,1800626816
84,16,16,Jits_ISO_5,2,1,48,29,1800627784
84,16,16,Jits_ISO_5,3,5,56,103,1800713796
84,16,16,Jits_ISO_5,0,5,56,103,1801143776
84,16,16,Jits_ISO_5,1,1,48,36,1801146072
84,16,16,Jits_ISO_5,2,5,63,98,1801174564
84,16,16,Jits_ISO_5,3,5,80,127,1801214352
84,16,16,Jits_ISO_5,0,5,63,98,1801644424
84,16,16,Jits_ISO_5,1,1,48,29,1801650684
84,16,16,Jits_ISO_5,2,5,56,103,1801684504
84,16,16,Jits_ISO_5,3,5,80,127,1801703692
84,16,16,Jits_ISO_5,0,5,63,98,1802154496
84,16,16,Jits_ISO_5,1,1,48,32,1802178964
84,16,16,Jits_ISO_5,2,5,56,103,1802194500
84,16,16,Jits_ISO_5,3,5,80,127,1802203576
84,16,16,Jits_ISO_5,0,5,80,127,1802633632
84,16,16,Jits_ISO_5,1,1,48,27,1802687696
84,16,16,Jits_ISO_5,2,5,63,98,1802704424
84,16,16,Jits_ISO_5,3,5,56,103,1802723688
84,16,16,Jits_ISO_5,0,5,56,103,1803124164
84,16,16,Jits_ISO_5,1,5,80,127,1803143576
84,16,16,Jits_ISO_5,2,1,48,37,1803172844
84,16,16,Jits_ISO_5,3,5,63,98,1803183580
84,16,16,Jits_ISO_5,0,1,48,29,1803633568
84,16,16,Jits_ISO_5,1,5,63,98,1803635136
84,16,16,Jits_ISO_5,2,5,80,127,1803653576
84,16,16,Jits_ISO_5,3,5,56,103,1803693364
84,16,16,Jits_ISO_5,0,1,48,28,1804102480
84,16,16,Jits_ISO_5,1,5,63,98,1804133672
84,16,16,Jits_ISO_5,2,5,56,103,1804154352
84,16,16,Jits_ISO_5,3,5,80,127,1804163652
84,16,16,Jits_ISO_5,0,1,48,32,1804595612
84,16,16,Jits_ISO_5,1,5,80,127,1804633476
84,16,16,Jits_ISO_5,2,5,56,103,1804654008
84,16,16,Jits_ISO_5,3,5,63,98,1804683536
84,16,16,Jits_ISO_5,0,1,48,29,1805110992
84,16,16,Jits_ISO_5,1,5,56,103,1805203852
84,16,16,Jits_ISO_5,2,5,80,127,1805207804
84,16,16,Jits_ISO_5,3,5,63,98,1805224368
84,16,16,Jits_ISO_5,0,5,63,98,1805623576
84,16,16,Jits_ISO_5,1,1,48,33,1805635988
84,16,16,Jits_ISO_5,2,5,56,103,1805654364
84,16,16,Jits_ISO_5,3,5,80,127,1805713780
84,16,16,Jits_ISO_5,0,1,48,30,1806128660
84,16,16,Jits_ISO_5,1,5,63,98,1806204360
84,16,16,Jits_ISO_5,2,5,56,103,1806213360
84,16,16,Jits_ISO_5,3,5,80,127,1806223852
84,16,16,Jits_ISO_5,0,1,48,30,1806627352
84,16,16,Jits_ISO_5,1,5,56,103,1806664164
84,16,16,Jits_ISO_5,2,5,80,127,1806693692
84,16,16,Jits_ISO_5,3,5,63,98,1806703960
84,16,16,Jits_ISO_5,0,1,48,29,1807128180
84,16,16,Jits_ISO_5,1,5,63,98,1807203756
84,16,16,Jits_ISO_5,2,5,56,103,1807213880
84,16,16,Jits_ISO_5,3,5,80,127,1807234472
84,16,16,Jits_ISO_5,0,1,48,27,1807607468
84,16,16,Jits_ISO_5,1,5,56,103,1807633720
84,16,16,Jits_ISO_5,2,5,63,98,1807694432
84,16,16,Jits_ISO_5,3,5,80,127,1807697496
84,16,16,Jits_ISO_5,0,1,48,27,1808113340
84,16,16,Jits_ISO_5,1,5,80,127,1808153920
84,16,16,Jits_ISO_5,2,5,56,103,1808164412
84,16,16,Jits_ISO_5,3,5,63,98,1808233776
84,16,16,Jits_ISO_5,0,1,48,31,1808641480
84,16,16,Jits_ISO_5,1,5,80,127,1808643364
84,16,16,Jits_ISO_5,2,5,56,103,1808713968
84,16,16,Jits_ISO_5,3,5,63,98,1808724460
84,16,16,Jits_ISO_5,0,1,48,29,1809121428
84,16,16,Jits_ISO_5,1,5,63,98,1809184100
84,16,16,Jits_ISO_5,2,5,56,103,1809194592
84,16,16,Jits_ISO_5,3,5,80,127,1809213708
84,16,16,Jits_ISO_5,0,1,48,29,1809631424
84,16,16,Jits_ISO_5,1,5,80,127,1809633540
84,16,16,Jits_ISO_5,2,5,63,98,1809694028
84,16,16,Jits_ISO_5,3,5,56,103,1809733876
84,16,16,Jits_ISO_5,0,1,48,32,1810129564
84,16,16,Jits_ISO_5,1,5,56,103,1810174324
84,16,16,Jits_ISO_5,2,5,63,98,1810183476
84,16,16,Jits_ISO_5,3,5,80,127,1810223436
84,16,16,Jits_ISO_5,0,1,48,30,1810623544
84,16,16,Jits_ISO_5,1,5,56,103,1810644464
84,16,16,Jits_ISO_5,2,5,80,127,1810674140
84,16,16,Jits_ISO_5,3,5,63,98,1810724276
84,16,16,Jits_ISO_5,0,1,48,28,1811148512
84,16,16,Jits_ISO_5,1,5,56,103,1811183984
84,16,16,Jits_ISO_5,2,5,63,98,1811223844
84,16,16,Jits_ISO_5,3,5,80,127,1811227232
84,16,16,Jits_ISO_5,0,1,48,32,1811635588
84,16,16,Jits_ISO_5,1,5,56,103,1811683636
84,16,16,Jits_ISO_5,2,5,63,98,1811693832
84,16,16,Jits_ISO_5,3,5,80,127,1811714512
84,16,16,Jits_ISO_5,0,1,48,29,1812138088
84,16,16,Jits_ISO_5,1,5,56,103,1812143436
84,16,16,Jits_ISO_5,2,5,80,127,1812146500
84,16,16,Jits_ISO_5,3,5,63,98,1812184568
84,16,16,Jits_ISO_5,0,1,48,28,1812611296
84,16,16,Jits_ISO_5,1,5,63,98,1812684284
84,16,16,Jits_ISO_5,2,5,56,103,1812713724
84,16,16,Jits_ISO_5,3,5,80,127,1812734404
84,16,16,Jits_ISO_5,0,1,48,37,1813120604
84,16,16,Jits_ISO_5,1,5,80,127,1813154276
84,16,16,Jits_ISO_5,2,5,56,103,1813164548
84,16,16,Jits_ISO_5,3,5,63,98,1813173548
84,16,16,Jits_ISO_5,0,5,56,103,1813653864
84,16,16,Jits_ISO_5,1,1,48,32,1813663284
84,16,16,Jits_ISO_5,2,5,80,127,1813693796
84,16,16,Jits_ISO_5,3,5,63,98,1813723544
84,16,16,Jits_ISO_5,0,1,48,37,1814128176
84,16,16,Jits_ISO_5,1,5,63,98,1814163868
84,16,16,Jits_ISO_5,2,5,80,127,1814174212
84,16,16,Jits_ISO_5,3,5,56,103,1814184260
84,16,16,Jits_ISO_5,0,1,48,24,1814618616
84,16,16,Jits_ISO_5,1,5,56,103,1814644344
84,16,16,Jits_ISO_5,2,5,63,98,1814713652
84,16,16,Jits_ISO_5,3,5,80,127,1814724056
84,16,16,Jits_ISO_5,0,1,48,38,1815103444
84,16,16,Jits_ISO_5,1,5,80,127,1815143852
84,16,16,Jits_ISO_5,2,5,56,103,1815154420
84,16,16,Jits_ISO_5,3,5,63,98,1815204528
84,16,16,Jits_ISO_5,0,1,48,30,1815598524
84,16,16,Jits_ISO_5,1,5,80,127,1815653696
84,16,16,Jits_ISO_5,2,5,56,103,1815714516
84,16,16,Jits_ISO_5,3,5,63,98,1815743968
84,16,16,Jits_ISO_5,0,1,48,37,1816089268
84,16,16,Jits_ISO_5,1,5,56,103,1816153432
84,16,16,Jits_ISO_5,2,5,80,127,1816156572
84,16,16,Jits_ISO_5,3,5,63,98,1816194400
84,16,16,Jits_ISO_5,0,1,48,35,1816608316
84,16,16,Jits_ISO_5,1,5,56,103,1816683944
84,16,16,Jits_ISO_5,2,5,63,98,1816713528
84,16,16,Jits_ISO_5,3,5,80,127,1816723800
84,16,16,Jits_ISO_5,0,1,48,34,1817121012
84,16,16,Jits_ISO_5,1,5,63,98,1817194016
84,16,16,Jits_ISO_5,2,5,80,127,1817204508
84,16,16,Jits_ISO_5,3,5,56,103,1817214316
84,16,16,Jits_ISO_5,0,1,48,40,1817642492
84,16,16,Jits_ISO_5,1,5,80,127,1817644304
84,16,16,Jits_ISO_5,2,5,56,103,1817693528
84,16,16,Jits_ISO_5,3,5,63,98,1817696668
84,16,16,Jits_ISO_5,0,1,48,39,1818163928
84,16,16,Jits_ISO_5,1,5,56,103,1818184180
84,16,16,Jits_ISO_5,2,5,80,127,1818203368
84,16,16,Jits_ISO_5,3,5,63,98,1818213636
84,16,16,Jits_ISO_5,0,5,63,98,1818664288
84,16,16,Jits_ISO_5,1,1,48,36,1818665776
84,16,16,Jits_ISO_5,2,5,56,103,1818694180
84,16,16,Jits_ISO_5,3,5,80,127,1818713520
84,16,16,Jits_ISO_5,0,1,48,38,1819143220
84,16,16,Jits_ISO_5,1,5,56,103,1819174352
84,16,16,Jits_ISO_5,2,5,80,127,1819183428
84,16,16,Jits_ISO_5,3,5,63,98,1819254284
84,16,16,Jits_ISO_5,0,5,63,98,1819663656
84,16,16,Jits_ISO_5,1,1,48,36,1819682464
84,16,16,Jits_ISO_5,2,5,80,127,1819703684
84,16,16,Jits_ISO_5,3,5,56,103,1819743620
84,16,16,Jits_ISO_5,0,1,48,38,1820158852
84,16,16,Jits_ISO_5,1,5,56,103,1820173720
84,16,16,Jits_ISO_5,2,5,63,98,1820184064
84,16,16,Jits_ISO_5,3,5,80,127,1820204372
84,16,16,Jits_ISO_5,0,1,48,37,1820609784
84,16,16,Jits_ISO_5,1,5,63,98,1820714488
84,16,16,Jits_ISO_5,2,5,80,127,1820733752
84,16,16,Jits_ISO_5,3,5,56,103,1820754432
84,16,16,Jits_ISO_5,0,5,56,103,1821153540
84,16,16,Jits_ISO_5,1,1,48,37,1821167296
84,16,16,Jits_ISO_5,2,5,80,127,1821233576
84,16,16,Jits_ISO_5,3,5,63,98,1821243772
84,16,16,Jits_ISO_5,0,5,80,127,1821694272
84,16,16,Jits_ISO_5,1,5,63,98,1821703420
84,16,16,Jits_ISO_5,2,1,48,35,1821721164
84,16,16,Jits_ISO_5,3,5,56,103,1821734156
84,16,16,Jits_ISO_5,0,5,63,98,1822164280
84,16,16,Jits_ISO_5,1,1,48,41,1822202096
84,16,16,Jits_ISO_5,2,5,80,127,1822204208
84,16,16,Jits_ISO_5,3,5,56,103,1822263724
84,16,16,Jits_ISO_5,0,5,63,98,1822674500
84,16,16,Jits_ISO_5,1,1,48,40,1822682204
84,16,16,Jits_ISO_5,2,5,56,103,1822723424
84,16,16,Jits_ISO_5,3,5,80,127,1822754168
84,16,16,Jits_ISO_5,0,1,48,39,1823161480
84,16,16,Jits_ISO_5,1,5,80,127,1823184196
84,16,16,Jits_ISO_5,2,5,63,98,1823193492
84,16,16,Jits_ISO_5,3,5,56,103,1823264076
84,16,16,Jits_ISO_5,0,1,48,35,1823703684
84,16,16,Jits_ISO_5,1,5,80,127,1823753532
84,16,16,Jits_ISO_5,2,5,56,103,1823764096
84,16,16,Jits_ISO_5,3,5,63,98,1823767088
84,16,16,Jits_ISO_5,0,1,48,36,1824187532
84,16,16,Jits_ISO_5,1,5,56,103,1824193924
84,16,16,Jits_ISO_5,2,5,80,127,1824214384
84,16,16,Jits_ISO_5,3,5,63,98,1824223604
84,16,16,Jits_ISO_5,0,1,48,35,1824702576
84,16,16,Jits_ISO_5,1,5,63,98,1824704072
84,16,16,Jits_ISO_5,2,5,56,103,1824743784
84,16,16,Jits_ISO_5,3,5,80,127,1824764244
84,16,16,Jits_ISO_5,0,1,48,39,1825174264
84,16,16,Jits_ISO_5,1,5,63,98,1825203660
84,16,16,Jits_ISO_5,2,5,56,103,1825263972
84,16,16,Jits_ISO_5,3,5,80,127,1825267112
84,16,16,Jits_ISO_5,0,1,48,39,1825645448
84,16,16,Jits_ISO_5,1,5,56,103,1825664280
84,16,16,Jits_ISO_5,2,5,80,127,1825683916
84,16,16,Jits_ISO_5,3,5,63,98,1825724000
84,16,16,Jits_ISO_5,0,1,48,36,1826120824
84,16,16,Jits_ISO_5,1,5,56,103,1826193752
84,16,16,Jits_ISO_5,2,5,63,98,1826214344
84,16,16,Jits_ISO_5,3,5,80,127,1826223420
84,16,16,Jits_ISO_5,0,1,48,33,1826657192
84,16,16,Jits_ISO_5,1,5,80,127,1826663744
84,16,16,Jits_ISO_5,2,5,56,103,1826693568
84,16,16,Jits_ISO_5,3,5,63,98,1826733428
84,16,16,Jits_ISO_5,0,1,48,39,1827146216
84,16,16,Jits_ISO_5,1,5,80,127,1827173888
84,16,16,Jits_ISO_5,2,5,56,103,1827194420
84,16,16,Jits_ISO_5,3,5,63,98,1827253596
84,16,16,Jits_ISO_5,0,1,48,35,1827645052
84,16,16,Jits_ISO_5,1,5,56,103,1827683660
84,16,16,Jits_ISO_5,2,5,80,127,1827704196
84,16,16,Jits_ISO_5,3,5,63,98,1827763444
84,16,16,Jits_ISO_5,0,1,48,40,1828134076
84,16,16,Jits_ISO_5,1,5,80,127,1828164136
84,16,16,Jits_ISO_5,2,5,56,103,1828174188
84,16,16,Jits_ISO_5,3,5,63,98,1828214048
84,16,16,Jits_ISO_5,0,5,63,98,1828663652
84,16,16,Jits_ISO_5,1,1,48,35,1828667744
84,16,16,Jits_ISO_5,2,5,56,103,1828703584
84,16,16,Jits_ISO_5,3,5,80,127,1828706648
84,16,16,Jits_ISO_5,0,1,48,40,1829166636
84,16,16,Jits_ISO_5,1,5,63,98,1829183968
84,16,16,Jits_ISO_5,2,5,80,127,1829223980
84,16,16,Jits_ISO_5,3,5,56,103,1829253432
84,16,16,Jits_ISO_5,0,1,48,37,1829666520
84,16,16,Jits_ISO_5,1,5,56,103,1829683704
84,16,16,Jits_ISO_5,2,5,63,98,1829693976
84,16,16,Jits_ISO_5,3,5,80,127,1829723500
84,16,16,Jits_ISO_5,0,1,48,39,1830160900
84,16,16,Jits_ISO_5,1,5,80,127,1830174220
84,16,16,Jits_ISO_5,2,5,63,98,1830243824
84,16,16,Jits_ISO_5,3,5,56,103,1830253932
84,16,16,Jits_ISO_5,0,5,63,98,1830673936
84,16,16,Jits_ISO_5,1,1,48,37,1830678556
84,16,16,Jits_ISO_5,2,5,56,103,1830744456
84,16,16,Jits_ISO_5,3,5,80,127,1830753532
84,16,16,Jits_ISO_5,0,1,48,42,1831166372
84,16,16,Jits_ISO_5,1,5,63,98,1831173368
84,16,16,Jits_ISO_5,2,5,56,103,1831193924
84,16,16,Jits_ISO_5,3,5,80,127,1831234084
84,16,16,Jits_ISO_5,0,5,56,103,1831683296
84,16,16,Jits_ISO_5,1,5,63,98,1831693864
84,16,16,Jits_ISO_5,2,1,48,40,1831704276
84,16,16,Jits_ISO_5,3,5,80,127,1831773448
84,16,16,Jits_ISO_5,0,1,48,35,1832148316
84,16,16,Jits_ISO_5,1,5,63,98,1832174116
84,16,16,Jits_ISO_5,2,5,56,103,1832203644
84,16,16,Jits_ISO_5,3,5,80,127,1832243456
84,16,16,Jits_ISO_5,0,5,56,103,1832673632
84,16,16,Jits_ISO_5,1,1,48,35,1832680268
84,16,16,Jits_ISO_5,2,5,63,98,1832713492
84,16,16,Jits_ISO_5,3,5,80,127,1832753528
84,16,16,Jits_ISO_5,0,1,48,33,1833155512
84,16,16,Jits_ISO_5,1,5,80,127,1833174348
84,16,16,Jits_ISO_5,2,5,56,103,1833254224
84,16,16,Jits_ISO_5,3,5,63,98,1833263596
84,16,16,Jits_ISO_5,0,1,48,37,1833683872
84,16,16,Jits_ISO_5,1,5,56,103,1833724204
84,16,16,Jits_ISO_5,2,5,63,98,1833727196
84,16,16,Jits_ISO_5,3,5,80,127,1833733504
84,16,16,Jits_ISO_5,0,1,48,35,1834184272
84,16,16,Jits_ISO_5,1,5,56,103,1834243408
84,16,16,Jits_ISO_5,2,5,63,98,1834264188
84,16,16,Jits_ISO_5,3,5,80,127,1834274088
84,16,16,Jits_ISO_5,0,1,48,34,1834676964
84,16,16,Jits_ISO_5,1,5,63,98,1834704188
84,16,16,Jits_ISO_5,2,5,80,127,1834713336
84,16,16,Jits_ISO_5,3,5,56,103,1834734092
84,16,16,Jits_ISO_5,0,1,48,32,1835152204
84,16,16,Jits_ISO_5,1,5,63,98,1835203996
84,16,16,Jits_ISO_5,2,5,56,103,1835283848
84,16,16,Jits_ISO_5,3,5,80,127,1835286916
84,16,16,Jits_ISO_5,0,1,48,35,1835680312
84,16,16,Jits_ISO_5,1,5,63,98,1835703796
84,16,16,Jits_ISO_5,2,5,56,103,1835724108
84,16,16,Jits_ISO_5,3,5,80,127,1835754004
84,16,16,Jits_ISO_5,0,1,48,35,1836178248
84,16,16,Jits_ISO_5,1,5,56,103,1836204352
84,16,16,Jits_ISO_5,2,5,63,98,1836223912
84,16,16,Jits_ISO_5,3,5,80,127,1836234108
84,16,16,Jits_ISO_5,0,1,48,35,1836665924
84,16,16,Jits_ISO_5,1,5,56,103,1836734052
84,16,16,Jits_ISO_5,2,5,63,98,1836763420
84,16,16,Jits_ISO_5,3,5,80,127,1836767748
84,16,16,Jits_ISO_5,0,5,56,103,1837184412
84,16,16,Jits_ISO_5,1,1,48,36,1837189996
84,16,16,Jits_ISO_5,2,5,63,98,1837224268
84,16,16,Jits_ISO_5,3,5,80,127,1837283680
84,16,16,Jits_ISO_5,0,1,48,39,1837689288
84,16,16,Jits_ISO_5,1,5,56,103,1837703708
84,16,16,Jits_ISO_5,2,5,63,98,1837713976
84,16,16,Jits_ISO_5,3,5,80,127,1837774064
84,16,16,Jits_ISO_5,0,1,48,36,1838192404
84,16,16,Jits_ISO_5,1,5,56,103,1838204336
84,16,16,Jits_ISO_5,2,5,80,127,1838223824
84,16,16,Jits_ISO_5,3,5,63,98,1838253348
84,16,16,Jits_ISO_5,0,5,80,127,1838703928
84,16,16,Jits_ISO_5,1,5,56,103,1838714124
84,16,16,Jits_ISO_5,2,5,63,98,1838733832
84,16,16,Jits_ISO_5,3,1,48,33,1838737248
84,16,16,Jits_ISO_5,0,5,63,98,1839193560
84,16,16,Jits_ISO_5,1,1,48,31,1839215864
84,16,16,Jits_ISO_5,2,5,80,127,1839274320
84,16,16,Jits_ISO_5,3,5,56,103,1839283768
84,16,16,Jits_ISO_5,0,1,48,38,1839721816
84,16,16,Jits_ISO_5,1,5,80,127,1839753528
84,16,16,Jits_ISO_5,2,5,56,103,1839774132
84,16,16,Jits_ISO_5,3,5,63,98,1839777052
84,16,16,Jits_ISO_5,0,5,63,98,1840223740
84,16,16,Jits_ISO_5,1,5,80,127,1840227032
84,16,16,Jits_ISO_5,2,1,48,30,1840232112
84,16,16,Jits_ISO_5,3,5,56,103,1840283896
84,16,16,Jits_ISO_5,0,5,56,103,1840703844
84,16,16,Jits_ISO_5,1,1,48,32,1840710180
84,16,16,Jits_ISO_5,2,5,80,127,1840714332
84,16,16,Jits_ISO_5,3,5,63,98,1840753968
84,16,16,Jits_ISO_5,0,5,56,103,1841194448
84,16,16,Jits_ISO_5,1,1,48,32,1841206560
84,16,16,Jits_ISO_5,2,5,63,98,1841253932
84,16,16,Jits_ISO_5,3,5,80,127,1841264052
84,16,16,Jits_ISO_5,0,1,48,36,1841691528
84,16,16,Jits_ISO_5,1,5,63,98,1841704228
84,16,16,Jits_ISO_5,2,5,80,127,1841744092
84,16,16,Jits_ISO_5,3,5,56,103,1841784104
84,16,16,Jits_ISO_5,0,5,56,103,1842204044
84,16,16,Jits_ISO_5,1,1,48,38,1842225820
84,16,16,Jits_ISO_5,2,5,63,98,1842283828
84,16,16,Jits_ISO_5,3,5,80,127,1842287044
84,16,16,Jits_ISO_5,0,9999,9999,9999,1782891584
84,16,16,Jits_ISO_5,1,9999,9999,9999,1783391356
84,16,16,Jits_ISO_5,2,9999,9999,9999,1783892064
84,16,16,Jits_ISO_5,3,9999,9999,9999,1784391792
84,16,16,Jits_ISO_5,4,9999,9999,9999,1784891456
84,16,16,Jits_ISO_5,5,9999,9999,9999,1785391196
84,16,16,Jits_ISO_5,6,9999,9999,9999,1785891900
84,16,16,Jits_ISO_5,7,9999,9999,9999,1786391624
84,16,16,Jits_ISO_5,8,9999,9999,9999,1786891364
84,16,16,Jits_ISO_5,9,9999,9999,9999,1787392084
84,16,16,Jits_ISO_5,10,9999,9999,9999,1787902020
84,16,16,Jits_ISO_5,11,9999,9999,9999,1788401768
84,16,16,Jits_ISO_5,12,9999,9999,9999,1788901496
84,16,16,Jits_ISO_5,13,9999,9999,9999,1789401156
84,16,16,Jits_ISO_5,14,9999,9999,9999,1789901896
84,16,16,Jits_ISO_5,15,9999,9999,9999,1790401640
84,16,16,Jits_ISO_5,16,9999,9999,9999,1790901300
84,16,16,Jits_ISO_5,17,9999,9999,9999,1791402076
84,16,16,Jits_ISO_5,18,9999,9999,9999,1791901808
84,16,16,Jits_ISO_5,19,9999,9999,9999,1792401472
84,16,16,Jits_ISO_5,20,9999,9999,9999,1792901208
84,16,16,Jits_ISO_5,21,9999,9999,9999,1793401924
84,16,16,Jits_ISO_5,22,9999,9999,9999,1793901668
84,16,16,Jits_ISO_5,23,9999,9999,9999,1794401340
84,16,16,Jits_ISO_5,24,9999,9999,9999,1794902136
84,16,16,Jits_ISO_5,25,9999,9999,9999,1795412064
84,16,16,Jits_ISO_5,26,9999,9999,9999,1795911800
84,16,16,Jits_ISO_5,27,9999,9999,9999,1796411484
84,16,16,Jits_ISO_5,28,9999,9999,9999,1796911224
84,16,16,Jits_ISO_5,29,9999,9999,9999,1797411928
84,16,16,Jits_ISO_5,30,9999,9999,9999,1797911648
84,16,16,Jits_ISO_5,31,9999,9999,9999,1798411320
84,16,16,Jits_ISO_5,32,9999,9999,9999,1798912108
84,16,16,Jits_ISO_5,33,9999,9999,9999,1799422048
84,16,16,Jits_ISO_5,34,9999,9999,9999,1799921724
84,16,16,Jits_ISO_5,35,9999,9999,9999,1800421472
84,16,16,Jits_ISO_5,36,9999,9999,9999,1800921196
84,16,16,Jits_ISO_5,37,9999,9999,9999,1801421900
84,16,16,Jits_ISO_5,38,9999,9999,9999,1801921648
84,16,16,Jits_ISO_5,39,9999,9999,9999,1802421312
84,16,16,Jits_ISO_5,40,9999,9999,9999,1802922096
84,16,16,Jits_ISO_5,41,9999,9999,9999,1803421764
84,16,16,Jits_ISO_5,42,9999,9999,9999,1803921508
84,16,16,Jits_ISO_5,43,9999,9999,9999,1804421240
84,16,16,Jits_ISO_5,44,9999,9999,9999,1804921940
84,16,16,Jits_ISO_5,45,9999,9999,9999,1805421668
84,16,16,Jits_ISO_5,46,9999,9999,9999,1805921400
84,16,16,Jits_ISO_5,47,9999,9999,9999,1806422112
84,16,16,Jits_ISO_5,48,9999,9999,9999,1806932032
84,16,16,Jits_ISO_5,49,9999,9999,9999,1807431772
84,16,16,Jits_ISO_5,50,9999,9999,9999,1807931496
84,16,16,Jits_ISO_5,51,9999,9999,9999,1808431228
84,16,16,Jits_ISO_5,52,9999,9999,9999,1808931936
84,16,16,Jits_ISO_5,53,9999,9999,9999,1809431640
84,16,16,Jits_ISO_5,54,9999,9999,9999,1809931372
84,16,16,Jits_ISO_5,55,9999,9999,9999,1810432080
84,16,16,Jits_ISO_5,56,9999,9999,9999,1810942076
84,16,16,Jits_ISO_5,57,9999,9999,9999,1811441728
84,16,16,Jits_ISO_5,58,9999,9999,9999,1811941464
84,16,16,Jits_ISO_5,59,9999,9999,9999,1812441184
84,16,16,Jits_ISO_5,60,9999,9999,9999,1812941892
84,16,16,Jits_ISO_5,61,9999,9999,9999,1813441620
84,16,16,Jits_ISO_5,62,9999,9999,9999,1813941352
84,16,16,Jits_ISO_5,63,9999,9999,9999,1814442072
84,16,16,Jits_ISO_5,64,9999,9999,9999,1814941804
84,16,16,Jits_ISO_5,65,9999,9999,9999,1815441460
84,16,16,Jits_ISO_5,66,9999,9999,9999,1815941196
84,16,16,Jits_ISO_5,67,9999,9999,9999,1816441960
84,16,16,Jits_ISO_5,68,9999,9999,9999,1816941624
84,16,16,Jits_ISO_5,69,9999,9999,9999,1817441356
84,16,16,Jits_ISO_5,70,9999,9999,9999,1817942124
84,16,16,Jits_ISO_5,71,9999,9999,9999,1818452048
84,16,16,Jits_ISO_5,72,9999,9999,9999,1818951780
84,16,16,Jits_ISO_5,73,9999,9999,9999,1819451512
84,16,16,Jits_ISO_5,74,9999,9999,9999,1819951168
84,16,16,Jits_ISO_5,75,9999,9999,9999,1820451920
84,16,16,Jits_ISO_5,76,9999,9999,9999,1820951636
84,16,16,Jits_ISO_5,77,9999,9999,9999,1821451368
84,16,16,Jits_ISO_5,78,9999,9999,9999,1821952092
84,16,16,Jits_ISO_5,79,9999,9999,9999,1822462032
84,16,16,Jits_ISO_5,80,9999,9999,9999,1822961764
84,16,16,Jits_ISO_5,81,9999,9999,9999,1823461428
84,16,16,Jits_ISO_5,82,9999,9999,9999,1823961160
84,16,16,Jits_ISO_5,83,9999,9999,9999,1824461940
84,16,16,Jits_ISO_5,84,9999,9999,9999,1824961604
84,16,16,Jits_ISO_5,85,9999,9999,9999,1825461332
84,16,16,Jits_ISO_5,86,9999,9999,9999,1825962036
84,16,16,Jits_ISO_5,87,9999,9999,9999,1826461768
84,16,16,Jits_ISO_5,88,9999,9999,9999,1826961500
84,16,16,Jits_ISO_5,89,9999,9999,9999,1827461236
84,16,16,Jits_ISO_5,90,9999,9999,9999,1827961940
84,16,16,Jits_ISO_5,91,9999,9999,9999,1828461672
84,16,16,Jits_ISO_5,92,9999,9999,9999,1828961392
84,16,16,Jits_ISO_5,93,9999,9999,9999,1829462100
84,16,16,Jits_ISO_5,94,9999,9999,9999,1829972024
84,16,16,Jits_ISO_5,95,9999,9999,9999,1830471756
84,16,16,Jits_ISO_5,96,9999,9999,9999,1830971492
84,16,16,Jits_ISO_5,97,9999,9999,9999,1831471224
84,16,16,Jits_ISO_5,98,9999,9999,9999,1831971932
84,16,16,Jits_ISO_5,99,9999,9999,9999,1832471600
84,16,16,Jits_ISO_5,100,9999,9999,9999,1832971388
84,16,16,Jits_ISO_5,101,9999,9999,9999,1833472108
84,16,16,Jits_ISO_5,102,9999,9999,9999,1833982024
84,16,16,Jits_ISO_5,103,9999,9999,9999,1834481760
84,16,16,Jits_ISO_5,104,9999,9999,9999,1834981492
84,16,16,Jits_ISO_5,105,9999,9999,9999,1835481148
84,16,16,Jits_ISO_5,106,9999,9999,9999,1835981928
84,16,16,Jits_ISO_5,107,9999,9999,9999,1836481656
84,16,16,Jits_ISO_5,108,9999,9999,9999,1836981308
84,16,16,Jits_ISO_5,109,9999,9999,9999,1837482088
84,16,16,Jits_ISO_5,110,9999,9999,9999,1837981760
84,16,16,Jits_ISO_5,111,9999,9999,9999,1838481492
84,16,16,Jits_ISO_5,112,9999,9999,9999,1838981224
84,16,16,Jits_ISO_5,113,9999,9999,9999,1839481948
84,16,16,Jits_ISO_5,114,9999,9999,9999,1839981680
84,16,16,Jits_ISO_5,115,9999,9999,9999,1840481332
84,16,16,Jits_ISO_5,116,9999,9999,9999,1840982116
84,16,16,Jits_ISO_5,117,9999,9999,9999,1841492052
84,16,16,Jits_ISO_5,118,9999,9999,9999,1841991800
84,16,16,Jits_ISO_5,119,9999,9999,9999,1842491452
84,17,7,Jits_ISO_8,0,5,56,103,1852414564
84,17,7,Jits_ISO_8,1,5,63,98,1852417596
84,17,7,Jits_ISO_8,2,5,80,127,1852420788
84,17,7,Jits_ISO_8,0,1,48,26,1852855344
84,17,7,Jits_ISO_8,1,5,56,103,1853214048
84,17,7,Jits_ISO_8,2,5,63,98,1853217216
84,17,7,Jits_ISO_8,3,5,80,127,1853220416
84,17,7,Jits_ISO_8,0,1,48,25,1853866636
84,17,7,Jits_ISO_8,1,5,80,127,1853954476
84,17,7,Jits_ISO_8,2,5,63,98,1854043648
84,17,7,Jits_ISO_8,3,5,56,103,1854053696
84,17,7,Jits_ISO_8,0,5,56,103,1854773772
84,17,7,Jits_ISO_8,1,5,63,98,1854783968
84,17,7,Jits_ISO_8,2,1,48,26,1854789036
84,17,7,Jits_ISO_8,3,5,80,127,1854873944
84,17,7,Jits_ISO_8,0,5,63,98,1855543524
84,17,7,Jits_ISO_8,1,5,80,127,1855574472
84,17,7,Jits_ISO_8,2,5,56,103,1855604000
84,17,7,Jits_ISO_8,3,1,48,32,1855605412
84,17,7,Jits_ISO_8,0,1,48,35,1856319516
84,17,7,Jits_ISO_8,1,5,56,103,1856344716
84,17,7,Jits_ISO_8,2,5,80,127,1856443760
84,17,7,Jits_ISO_8,3,5,63,98,1856493960
84,17,7,Jits_ISO_8,0,1,48,38,1857142248
84,17,7,Jits_ISO_8,1,5,56,103,1857144132
84,17,7,Jits_ISO_8,2,5,80,127,1857194560
84,17,7,Jits_ISO_8,3,5,63,98,1857234644
84,17,7,Jits_ISO_8,0,1,48,34,1857903576
84,17,7,Jits_ISO_8,1,5,80,127,1857973508
84,17,7,Jits_ISO_8,2,5,63,98,1858004512
84,17,7,Jits_ISO_8,3,5,56,103,1858073996
84,17,7,Jits_ISO_8,0,1,48,37,1858763832
84,17,7,Jits_ISO_8,1,5,63,98,1858804012
84,17,7,Jits_ISO_8,2,5,56,103,1858833764
84,17,7,Jits_ISO_8,3,5,80,127,1858894384
84,17,7,Jits_ISO_8,0,5,56,103,1859544612
84,17,7,Jits_ISO_8,1,5,80,127,1859547680
84,17,7,Jits_ISO_8,2,1,48,36,1859578900
84,17,7,Jits_ISO_8,3,5,63,98,1859664504
84,17,7,Jits_ISO_8,0,1,48,39,1860383584
84,17,7,Jits_ISO_8,1,5,56,103,1860423992
84,17,7,Jits_ISO_8,2,5,80,127,1860463932
84,17,7,Jits_ISO_8,3,5,63,98,1860474348
84,17,7,Jits_ISO_8,0,5,56,103,1861183708
84,17,7,Jits_ISO_8,1,1,48,38,1861184672
84,17,7,Jits_ISO_8,2,5,80,127,1861204456
84,17,7,Jits_ISO_8,3,5,63,98,1861284384
84,17,7,Jits_ISO_8,0,5,80,127,1861974364
84,17,7,Jits_ISO_8,1,1,48,37,1862010444
84,17,7,Jits_ISO_8,2,5,56,103,1862073712
84,17,7,Jits_ISO_8,3,5,63,98,1862083908
84,17,7,Jits_ISO_8,0,5,63,98,1862744572
84,17,7,Jits_ISO_8,1,5,80,127,1862803696
84,17,7,Jits_ISO_8,2,5,56,103,1862814040
84,17,7,Jits_ISO_8,3,1,48,37,1862826524
84,17,7,Jits_ISO_8,0,1,48,29,1863520640
84,17,7,Jits_ISO_8,1,5,56,103,1863544496
84,17,7,Jits_ISO_8,2,5,63,98,1863613804
84,17,7,Jits_ISO_8,3,5,80,127,1863618056
84,17,7,Jits_ISO_8,0,1,48,37,1864366044
84,17,7,Jits_ISO_8,1,5,63,98,1864373564
84,17,7,Jits_ISO_8,2,5,56,103,1864423988
84,17,7,Jits_ISO_8,3,5,80,127,1864427204
84,17,7,Jits_ISO_8,0,5,56,103,1865133484
84,17,7,Jits_ISO_8,1,5,80,127,1865136552
84,17,7,Jits_ISO_8,2,1,48,33,1865147544
84,17,7,Jits_ISO_8,3,5,63,98,1865223460
84,17,7,Jits_ISO_8,0,1,48,32,1865951824
84,17,7,Jits_ISO_8,1,5,63,98,1865974244
84,17,7,Jits_ISO_8,2,5,56,103,1866064388
84,17,7,Jits_ISO_8,3,5,80,127,1866094064
84,17,7,Jits_ISO_8,0,5,56,103,1866763628
84,17,7,Jits_ISO_8,1,1,48,32,1866807828
84,17,7,Jits_ISO_8,2,5,63,98,1866863972
84,17,7,Jits_ISO_8,3,5,80,127,1866893572
84,17,7,Jits_ISO_8,0,5,63,98,1867583984
84,17,7,Jits_ISO_8,1,5,56,103,1867594032
84,17,7,Jits_ISO_8,2,1,48,27,1867607712
84,17,7,Jits_ISO_8,3,5,80,127,1867684456
84,17,7,Jits_ISO_8,0,5,63,98,1868404300
84,17,7,Jits_ISO_8,1,1,48,27,1868410632
84,17,7,Jits_ISO_8,2,5,56,103,1868484088
84,17,7,Jits_ISO_8,3,5,80,127,1868487156
84,17,7,Jits_ISO_8,0,5,80,127,1869163920
84,17,7,Jits_ISO_8,1,5,63,98,1869184380
84,17,7,Jits_ISO_8,2,5,56,103,1869243800
84,17,7,Jits_ISO_8,3,1,48,35,1869258600
84,17,7,Jits_ISO_8,0,5,56,103,1870003504
84,17,7,Jits_ISO_8,1,1,48,30,1870015236
84,17,7,Jits_ISO_8,2,5,63,98,1870024176
84,17,7,Jits_ISO_8,3,5,80,127,1870027320
84,17,7,Jits_ISO_8,0,5,63,98,1870743804
84,17,7,Jits_ISO_8,1,5,80,127,1870823752
84,17,7,Jits_ISO_8,2,1,48,31,1870827916
84,17,7,Jits_ISO_8,3,5,56,103,1870834164
84,17,7,Jits_ISO_8,0,5,63,98,1871564336
84,17,7,Jits_ISO_8,1,5,56,103,1871583452
84,17,7,Jits_ISO_8,2,1,48,30,1871585392
84,17,7,Jits_ISO_8,3,5,80,127,1871633724
84,17,7,Jits_ISO_8,0,5,80,127,1872364048
84,17,7,Jits_ISO_8,1,1,48,29,1872368216
84,17,7,Jits_ISO_8,2,5,63,98,1872403980
84,17,7,Jits_ISO_8,3,5,56,103,1872424244
84,17,7,Jits_ISO_8,0,1,48,25,1873161720
84,17,7,Jits_ISO_8,1,5,56,103,1873203500
84,17,7,Jits_ISO_8,2,5,63,98,1873213696
84,17,7,Jits_ISO_8,3,5,80,127,1873234228
84,17,7,Jits_ISO_8,0,5,56,103,1873933808
84,17,7,Jits_ISO_8,1,1,48,28,1874013528
84,17,7,Jits_ISO_8,2,5,63,98,1874023664
84,17,7,Jits_ISO_8,3,5,80,127,1874084276
84,17,7,Jits_ISO_8,0,1,48,25,1874732928
84,17,7,Jits_ISO_8,1,5,80,127,1874764268
84,17,7,Jits_ISO_8,2,5,56,103,1874774312
84,17,7,Jits_ISO_8,3,5,63,98,1874843980
84,17,7,Jits_ISO_8,0,1,48,29,1875576160
84,17,7,Jits_ISO_8,1,5,63,98,1875593496
84,17,7,Jits_ISO_8,2,5,80,127,1875683764
84,17,7,Jits_ISO_8,3,5,56,103,1875694184
84,17,7,Jits_ISO_8,0,5,63,98,1876334176
84,17,7,Jits_ISO_8,1,5,80,127,1876384376
84,17,7,Jits_ISO_8,2,1,48,27,1876388024
84,17,7,Jits_ISO_8,3,5,56,103,1876443492
84,17,7,Jits_ISO_8,0,1,48,25,1877111508
84,17,7,Jits_ISO_8,1,5,56,103,1877164296
84,17,7,Jits_ISO_8,2,5,80,127,1877213584
84,17,7,Jits_ISO_8,3,5,63,98,1877233968
84,17,7,Jits_ISO_8,0,1,48,32,1877923896
84,17,7,Jits_ISO_8,1,5,56,103,1877933508
84,17,7,Jits_ISO_8,2,5,80,127,1877993900
84,17,7,Jits_ISO_8,3,5,63,98,1878063516
84,17,7,Jits_ISO_8,0,5,56,103,1878734196
84,17,7,Jits_ISO_8,1,5,80,127,1878764096
84,17,7,Jits_ISO_8,2,1,48,33,1878768788
84,17,7,Jits_ISO_8,3,5,63,98,1878793540
84,17,7,Jits_ISO_8,0,1,48,30,1879526984
84,17,7,Jits_ISO_8,1,5,56,103,1879574236
84,17,7,Jits_ISO_8,2,5,80,127,1879594252
84,17,7,Jits_ISO_8,3,5,63,98,1879653880
84,17,7,Jits_ISO_8,0,1,48,35,1880358856
84,17,7,Jits_ISO_8,1,5,80,127,1880453508
84,17,7,Jits_ISO_8,2,5,56,103,1880463780
84,17,7,Jits_ISO_8,3,5,63,98,1880474048
84,17,7,Jits_ISO_8,0,5,56,103,1881214284
84,17,7,Jits_ISO_8,1,5,80,127,1881254300
84,17,7,Jits_ISO_8,2,1,48,32,1881283448
84,17,7,Jits_ISO_8,3,5,63,98,1881285088
84,17,7,Jits_ISO_8,0,5,56,103,1881984268
84,17,7,Jits_ISO_8,1,5,63,98,1882014168
84,17,7,Jits_ISO_8,2,5,80,127,1882053956
84,17,7,Jits_ISO_8,3,1,48,33,1882092440
84,17,7,Jits_ISO_8,0,5,80,127,1882733944
84,17,7,Jits_ISO_8,1,5,63,98,1882784148
84,17,7,Jits_ISO_8,2,5,56,103,1882803488
84,17,7,Jits_ISO_8,3,1,48,30,1882819112
84,17,7,Jits_ISO_8,0,5,56,103,1883564456
84,17,7,Jits_ISO_8,1,1,48,33,1883590644
84,17,7,Jits_ISO_8,2,5,80,127,1883633984
84,17,7,Jits_ISO_8,3,5,63,98,1883693488
84,17,7,Jits_ISO_8,0,5,80,127,1884364112
84,17,7,Jits_ISO_8,1,1,48,32,1884390076
84,17,7,Jits_ISO_8,2,5,63,98,1884454192
84,17,7,Jits_ISO_8,3,5,56,103,1884473824
84,17,7,Jits_ISO_8,0,5,63,98,1885184440
84,17,7,Jits_ISO_8,1,5,56,103,1885204004
84,17,7,Jits_ISO_8,2,1,48,29,1885242000
84,17,7,Jits_ISO_8,3,5,80,127,1885243736
84,17,7,Jits_ISO_8,0,5,80,127,1885944140
84,17,7,Jits_ISO_8,1,5,63,98,1885963776
84,17,7,Jits_ISO_8,2,1,48,24,1885983256
84,17,7,Jits_ISO_8,3,5,56,103,1886043512
84,17,7,Jits_ISO_8,0,1,48,30,1886699620
84,17,7,Jits_ISO_8,1,5,63,98,1886733812
84,17,7,Jits_ISO_8,2,5,56,103,1886844264
84,17,7,Jits_ISO_8,3,5,80,127,1886847328
84,17,7,Jits_ISO_8,0,1,48,26,1887530508
84,17,7,Jits_ISO_8,1,5,63,98,1887553844
84,17,7,Jits_ISO_8,2,5,56,103,1887564260
84,17,7,Jits_ISO_8,3,5,80,127,1887567180
84,17,7,Jits_ISO_8,0,5,56,103,1888334132
84,17,7,Jits_ISO_8,1,1,48,34,1888335692
84,17,7,Jits_ISO_8,2,5,80,127,1888453988
84,17,7,Jits_ISO_8,3,5,63,98,1888493928
84,17,7,Jits_ISO_8,0,5,56,103,1889154460
84,17,7,Jits_ISO_8,1,1,48,26,1889223368
84,17,7,Jits_ISO_8,2,5,80,127,1889234252
84,17,7,Jits_ISO_8,3,5,63,98,1889253888
84,17,7,Jits_ISO_8,0,5,56,103,1889954184
84,17,7,Jits_ISO_8,1,1,48,31,1889980148
84,17,7,Jits_ISO_8,2,5,63,98,1890063940
84,17,7,Jits_ISO_8,3,5,80,127,1890067156
84,17,7,Jits_ISO_8,0,5,56,103,1890783564
84,17,7,Jits_ISO_8,1,1,48,35,1890787056
84,17,7,Jits_ISO_8,2,5,80,127,1890814284
84,17,7,Jits_ISO_8,3,5,63,98,1890833992
84,17,7,Jits_ISO_8,0,5,63,98,1891564032
84,17,7,Jits_ISO_8,1,5,56,103,1891574080
84,17,7,Jits_ISO_8,2,5,80,127,1891584348
84,17,7,Jits_ISO_8,3,1,48,31,1891614092
84,17,7,Jits_ISO_8,0,1,48,34,1892335980
84,17,7,Jits_ISO_8,1,5,80,127,1892354288
84,17,7,Jits_ISO_8,2,5,56,103,1892403768
84,17,7,Jits_ISO_8,3,5,63,98,1892443540
84,17,7,Jits_ISO_8,0,5,80,127,1893173664
84,17,7,Jits_ISO_8,1,1,48,33,1893176488
84,17,7,Jits_ISO_8,2,5,63,98,1893194044
84,17,7,Jits_ISO_8,3,5,56,103,1893244392
84,17,7,Jits_ISO_8,0,1,48,35,1893968776
84,17,7,Jits_ISO_8,1,5,80,127,1893983792
84,17,7,Jits_ISO_8,2,5,56,103,1894014220
84,17,7,Jits_ISO_8,3,5,63,98,1894083812
84,17,7,Jits_ISO_8,0,1,48,32,1894811040
84,17,7,Jits_ISO_8,1,5,56,103,1894833628
84,17,7,Jits_ISO_8,2,5,80,127,1894844196
84,17,7,Jits_ISO_8,3,5,63,98,1894883908
84,17,7,Jits_ISO_8,0,5,56,103,1895544260
84,17,7,Jits_ISO_8,1,5,63,98,1895563676
84,17,7,Jits_ISO_8,2,1,48,32,1895613244
84,17,7,Jits_ISO_8,3,5,80,127,1895634248
84,17,7,Jits_ISO_8,0,5,63,98,1896364360
84,17,7,Jits_ISO_8,1,1,48,31,1896368600
84,17,7,Jits_ISO_8,2,5,80,127,1896423996
84,17,7,Jits_ISO_8,3,5,56,103,1896444308
84,17,7,Jits_ISO_8,0,1,48,31,1897140652
84,17,7,Jits_ISO_8,1,5,80,127,1897154024
84,17,7,Jits_ISO_8,2,5,56,103,1897183700
84,17,7,Jits_ISO_8,3,5,63,98,1897214348
84,17,7,Jits_ISO_8,0,1,48,30,1897910908
84,17,7,Jits_ISO_8,1,5,56,103,1897953652
84,17,7,Jits_ISO_8,2,5,63,98,1898014056
84,17,7,Jits_ISO_8,3,5,80,127,1898073548
84,17,7,Jits_ISO_8,0,1,48,34,1898748240
84,17,7,Jits_ISO_8,1,5,80,127,1898773916
84,17,7,Jits_ISO_8,2,5,56,103,1898794300
84,17,7,Jits_ISO_8,3,5,63,98,1898864116
84,17,7,Jits_ISO_8,0,5,80,127,1899573708
84,17,7,Jits_ISO_8,1,5,63,98,1899594240
84,17,7,Jits_ISO_8,2,1,48,26,1899621796
84,17,7,Jits_ISO_8,3,5,56,103,1899623764
84,17,7,Jits_ISO_8,0,5,80,127,1900364140
84,17,7,Jits_ISO_8,1,1,48,24,1900366660
84,17,7,Jits_ISO_8,2,5,63,98,1900383696
84,17,7,Jits_ISO_8,3,5,56,103,1900444084
84,17,7,Jits_ISO_8,0,5,80,127,1901163860
84,17,7,Jits_ISO_8,1,1,48,28,1901224000
84,17,7,Jits_ISO_8,2,5,56,103,1901264104
84,17,7,Jits_ISO_8,3,5,63,98,1901293852
84,17,7,Jits_ISO_8,0,5,63,98,1901954592
84,17,7,Jits_ISO_8,1,5,80,127,1902003600
84,17,7,Jits_ISO_8,2,5,56,103,1902023984
84,17,7,Jits_ISO_8,3,1,48,24,1902056696
84,17,7,Jits_ISO_8,0,1,48,29,1902778836
84,17,7,Jits_ISO_8,1,5,80,127,1902794004
84,17,7,Jits_ISO_8,2,5,56,103,1902823752
84,17,7,Jits_ISO_8,3,5,63,98,1902826744
84,17,7,Jits_ISO_8,0,1,48,34,1903573972
84,17,7,Jits_ISO_8,1,5,63,98,1903623748
84,17,7,Jits_ISO_8,2,5,56,103,1903663564
84,17,7,Jits_ISO_8,3,5,80,127,1903683932
84,17,7,Jits_ISO_8,0,5,80,127,1904363984
84,17,7,Jits_ISO_8,1,1,48,30,1904423844
84,17,7,Jits_ISO_8,2,5,63,98,1904443872
84,17,7,Jits_ISO_8,3,5,56,103,1904483812
84,17,7,Jits_ISO_8,0,5,63,98,1905184188
84,17,7,Jits_ISO_8,1,1,48,29,1905201164
84,17,7,Jits_ISO_8,2,5,80,127,1905263980
84,17,7,Jits_ISO_8,3,5,56,103,1905283468
84,17,7,Jits_ISO_8,0,5,56,103,1906023764
84,17,7,Jits_ISO_8,1,1,48,32,1906033812
84,17,7,Jits_ISO_8,2,5,63,98,1906035148
84,17,7,Jits_ISO_8,3,5,80,127,1906073892
84,17,7,Jits_ISO_8,0,5,56,103,1906743772
84,17,7,Jits_ISO_8,1,5,80,127,1906746764
84,17,7,Jits_ISO_8,2,1,48,35,1906833428
84,17,7,Jits_ISO_8,3,5,63,98,1906883940
84,17,7,Jits_ISO_8,0,5,56,103,1907534264
84,17,7,Jits_ISO_8,1,1,48,28,1907583912
84,17,7,Jits_ISO_8,2,5,63,98,1907624392
84,17,7,Jits_ISO_8,3,5,80,127,1907693984
84,17,7,Jits_ISO_8,0,1,48,29,1908409320
84,17,7,Jits_ISO_8,1,5,63,98,1908413924
84,17,7,Jits_ISO_8,2,5,80,127,1908417212
84,17,7,Jits_ISO_8,3,5,56,103,1908474088
84,17,7,Jits_ISO_8,0,1,48,26,1909159796
84,17,7,Jits_ISO_8,1,5,80,127,1909253636
84,17,7,Jits_ISO_8,2,5,56,103,1909273960
84,17,7,Jits_ISO_8,3,5,63,98,1909284080
84,17,7,Jits_ISO_8,0,5,56,103,1909964424
84,17,7,Jits_ISO_8,1,5,63,98,1909974472
84,17,7,Jits_ISO_8,2,1,48,27,1910029360
84,17,7,Jits_ISO_8,3,5,80,127,1910043948
84,17,7,Jits_ISO_8,0,1,48,17,1910748004
84,17,7,Jits_ISO_8,1,5,80,127,1910763992
84,17,7,Jits_ISO_8,2,5,56,103,1910814220
84,17,7,Jits_ISO_8,3,5,63,98,1910864412
84,17,7,Jits_ISO_8,0,1,48,25,1911593232
84,17,7,Jits_ISO_8,1,5,56,103,1911643452
84,17,7,Jits_ISO_8,2,5,63,98,1911653724
84,17,7,Jits_ISO_8,3,5,80,127,1911693648
84,17,7,Jits_ISO_8,0,5,56,103,1912383836
84,17,7,Jits_ISO_8,1,5,63,98,1912423700
84,17,7,Jits_ISO_8,2,1,48,27,1912445848
84,17,7,Jits_ISO_8,3,5,80,127,1912473896
84,17,7,Jits_ISO_8,0,5,80,127,1913143556
84,17,7,Jits_ISO_8,1,5,56,103,1913193908
84,17,7,Jits_ISO_8,2,5,63,98,1913214664
84,17,7,Jits_ISO_8,3,1,48,23,1913245576
84,17,7,Jits_ISO_8,0,5,80,127,1913953608
84,17,7,Jits_ISO_8,1,1,48,21,1913981220
84,17,7,Jits_ISO_8,2,5,63,98,1914013920
84,17,7,Jits_ISO_8,3,5,56,103,1914093996
84,17,7,Jits_ISO_8,0,5,80,127,1914733852
84,17,7,Jits_ISO_8,1,5,56,103,1914773944
84,17,7,Jits_ISO_8,2,5,63,98,1914794328
84,17,7,Jits_ISO_8,3,1,48,23,1914851768
84,17,7,Jits_ISO_8,0,5,56,103,1915583772
84,17,7,Jits_ISO_8,1,5,80,127,1915594044
84,17,7,Jits_ISO_8,2,5,63,98,1915633984
84,17,7,Jits_ISO_8,3,1,48,18,1915661216
84,17,7,Jits_ISO_8,0,1,48,23,1916365480
84,17,7,Jits_ISO_8,1,5,56,103,1916454392
84,17,7,Jits_ISO_8,2,5,63,98,1916494316
84,17,7,Jits_ISO_8,3,5,80,127,1916497532
84,17,7,Jits_ISO_8,0,5,63,98,1917144320
84,17,7,Jits_ISO_8,1,5,80,127,1917184412
84,17,7,Jits_ISO_8,2,5,56,103,1917253968
84,17,7,Jits_ISO_8,3,1,48,19,1917272896
84,17,7,Jits_ISO_8,0,5,63,98,1917933912
84,17,7,Jits_ISO_8,1,1,48,19,1917998564
84,17,7,Jits_ISO_8,2,5,56,103,1918013804
84,17,7,Jits_ISO_8,3,5,80,127,1918074344
84,17,7,Jits_ISO_8,0,5,80,127,1918743840
84,17,7,Jits_ISO_8,1,5,63,98,1918794044
84,17,7,Jits_ISO_8,2,1,48,16,1918800904
84,17,7,Jits_ISO_8,3,5,56,103,1918823784
84,17,7,Jits_ISO_8,0,5,56,103,1919533444
84,17,7,Jits_ISO_8,1,5,63,98,1919583724
84,17,7,Jits_ISO_8,2,5,80,127,1919593772
84,17,7,Jits_ISO_8,3,1,48,15,1919601228
84,17,7,Jits_ISO_8,0,5,56,103,1920344472
84,17,7,Jits_ISO_8,1,1,48,22,1920356660
84,17,7,Jits_ISO_8,2,5,63,98,1920454140
84,17,7,Jits_ISO_8,3,5,80,127,1920473404
84,17,7,Jits_ISO_8,0,5,63,98,1921144272
84,17,7,Jits_ISO_8,1,5,80,127,1921194404
84,17,7,Jits_ISO_8,2,1,48,24,1921247116
84,17,7,Jits_ISO_8,3,5,56,103,1921283480
84,17,7,Jits_ISO_8,0,5,63,98,1921933644
84,17,7,Jits_ISO_8,1,5,80,127,1921964444
84,17,7,Jits_ISO_8,2,1,48,25,1921992892
84,17,7,Jits_ISO_8,3,5,56,103,1922053520
84,17,7,Jits_ISO_8,0,5,63,98,1922733348
84,17,7,Jits_ISO_8,1,5,56,103,1922743620
84,17,7,Jits_ISO_8,2,1,48,24,1922755732
84,17,7,Jits_ISO_8,3,5,80,127,1922843884
84,17,7,Jits_ISO_8,0,1,48,24,1923529192
84,17,7,Jits_ISO_8,1,5,63,98,1923633604
84,17,7,Jits_ISO_8,2,5,80,127,1923664476
84,17,7,Jits_ISO_8,3,5,56,103,1923693852
84,17,7,Jits_ISO_8,0,5,80,127,1924453648
84,17,7,Jits_ISO_8,1,5,63,98,1924464140
84,17,7,Jits_ISO_8,2,1,48,24,1924476252
84,17,7,Jits_ISO_8,3,5,56,103,1924493660
84,17,7,Jits_ISO_8,0,5,80,127,1925154256
84,17,7,Jits_ISO_8,1,5,63,98,1925173744
84,17,7,Jits_ISO_8,2,5,56,103,1925223648
84,17,7,Jits_ISO_8,3,1,48,26,1925255008
84,17,7,Jits_ISO_8,0,5,63,98,1925983716
84,17,7,Jits_ISO_8,1,5,80,127,1926044184
84,17,7,Jits_ISO_8,2,1,48,24,1926051788
84,17,7,Jits_ISO_8,3,5,56,103,1926063440
84,17,7,Jits_ISO_8,0,5,63,98,1926744536
84,17,7,Jits_ISO_8,1,5,56,103,1926793472
84,17,7,Jits_ISO_8,2,5,80,127,1926804040
84,17,7,Jits_ISO_8,3,1,48,25,1926817716
84,17,7,Jits_ISO_8,0,5,56,103,1927573912
84,17,7,Jits_ISO_8,1,5,80,127,1927584184
84,17,7,Jits_ISO_8,2,1,48,25,1927635628
84,17,7,Jits_ISO_8,3,5,63,98,1927683380
84,17,7,Jits_ISO_8,0,5,80,127,1928333632
84,17,7,Jits_ISO_8,1,5,63,98,1928344052
84,17,7,Jits_ISO_8,2,1,48,20,1928388076
84,17,7,Jits_ISO_8,3,5,56,103,1928493524
84,17,7,Jits_ISO_8,0,5,63,98,1929143616
84,17,7,Jits_ISO_8,1,5,80,127,1929183560
84,17,7,Jits_ISO_8,2,1,48,23,1929184600
84,17,7,Jits_ISO_8,3,5,56,103,1929263448
84,17,7,Jits_ISO_8,0,5,56,103,1929934332
84,17,7,Jits_ISO_8,1,1,48,22,1929992304
84,17,7,Jits_ISO_8,2,5,80,127,1930033480
84,17,7,Jits_ISO_8,3,5,63,98,1930054312
84,17,7,Jits_ISO_8,0,1,48,20,1930779520
84,17,7,Jits_ISO_8,1,5,80,127,1930794460
84,17,7,Jits_ISO_8,2,5,56,103,1930803536
84,17,7,Jits_ISO_8,3,5,63,98,1930893728
84,17,7,Jits_ISO_8,0,5,56,103,1931594180
84,17,7,Jits_ISO_8,1,5,63,98,1931613444
84,17,7,Jits_ISO_8,2,1,48,20,1931649892
84,17,7,Jits_ISO_8,3,5,80,127,1931693528
84,17,7,Jits_ISO_8,0,5,63,98,1932343636
84,17,7,Jits_ISO_8,1,1,48,20,1932408336
84,17,7,Jits_ISO_8,2,5,56,103,1932433988
84,17,7,Jits_ISO_8,3,5,80,127,1932436832
84,17,7,Jits_ISO_8,0,5,56,103,1933174268
84,17,7,Jits_ISO_8,1,1,48,21,1933179632
84,17,7,Jits_ISO_8,2,5,80,127,1933233608
84,17,7,Jits_ISO_8,3,5,63,98,1933243804
84,17,7,Jits_ISO_8,0,1,48,23,1933982960
84,17,7,Jits_ISO_8,1,5,80,127,1934024188
84,17,7,Jits_ISO_8,2,5,56,103,1934034232
84,17,7,Jits_ISO_8,3,5,63,98,1934037300
84,17,7,Jits_ISO_8,0,5,56,103,1934783964
84,17,7,Jits_ISO_8,1,5,80,127,1934794084
84,17,7,Jits_ISO_8,2,1,48,24,1934811452
84,17,7,Jits_ISO_8,3,5,63,98,1934813492
84,17,7,Jits_ISO_8,0,5,63,98,1935554164
84,17,7,Jits_ISO_8,1,1,48,26,1935606288
84,17,7,Jits_ISO_8,2,5,80,127,1935614256
84,17,7,Jits_ISO_8,3,5,56,103,1935663436
84,17,7,Jits_ISO_8,0,1,48,22,1936358260
84,17,7,Jits_ISO_8,1,5,63,98,1936433392
84,17,7,Jits_ISO_8,2,5,56,103,1936443736
84,17,7,Jits_ISO_8,3,5,80,127,1936494144
84,17,7,Jits_ISO_8,0,5,63,98,1937134184
84,17,7,Jits_ISO_8,1,1,48,19,1937147124
84,17,7,Jits_ISO_8,2,5,80,127,1937154416
84,17,7,Jits_ISO_8,3,5,56,103,1937163564
84,17,7,Jits_ISO_8,0,1,48,23,1937885380
84,17,7,Jits_ISO_8,1,5,63,98,1937933952
84,17,7,Jits_ISO_8,2,5,80,127,1937937092
84,17,7,Jits_ISO_8,3,5,56,103,1937973616
84,17,7,Jits_ISO_8,0,1,48,20,1938697052
84,17,7,Jits_ISO_8,1,5,63,98,1938804084
84,17,7,Jits_ISO_8,2,5,80,127,1938833984
84,17,7,Jits_ISO_8,3,5,56,103,1938844032
84,17,7,Jits_ISO_8,0,5,56,103,1939553760
84,17,7,Jits_ISO_8,1,5,80,127,1939584412
84,17,7,Jits_ISO_8,2,5,63,98,1939614012
84,17,7,Jits_ISO_8,3,1,48,21,1939665976
84,17,7,Jits_ISO_8,0,5,63,98,1940454028
84,17,7,Jits_ISO_8,1,5,56,103,1940493820
84,17,7,Jits_ISO_8,2,1,48,17,1940495484
84,17,7,Jits_ISO_8,3,5,80,127,1940498000
84,17,7,Jits_ISO_8,0,5,80,127,1941154144
84,17,7,Jits_ISO_8,1,5,56,103,1941234016
84,17,7,Jits_ISO_8,2,5,63,98,1941284092
84,17,7,Jits_ISO_8,3,1,48,19,1941356428
84,17,7,Jits_ISO_8,0,5,80,127,1941933564
84,17,7,Jits_ISO_8,1,5,56,103,1941954024
84,17,7,Jits_ISO_8,2,5,63,98,1942043960
84,17,7,Jits_ISO_8,3,1,48,18,1942119964
84,17,7,Jits_ISO_8,0,5,80,127,1942774116
84,17,7,Jits_ISO_8,1,5,63,98,1942814008
84,17,7,Jits_ISO_8,2,5,56,103,1942853872
84,17,7,Jits_ISO_8,3,1,48,19,1942881648
84,17,7,Jits_ISO_8,0,5,63,98,1943544244
84,17,7,Jits_ISO_8,1,5,80,127,1943603544
84,17,7,Jits_ISO_8,2,1,48,21,1943616776
84,17,7,Jits_ISO_8,3,5,56,103,1943634332
84,17,7,Jits_ISO_8,0,5,56,103,1944343832
84,17,7,Jits_ISO_8,1,5,80,127,1944373804
84,17,7,Jits_ISO_8,2,5,63,98,1944463864
84,17,7,Jits_ISO_8,3,1,48,21,1944502424
84,17,7,Jits_ISO_8,0,5,56,103,1945153868
84,17,7,Jits_ISO_8,1,5,80,127,1945263336
84,17,7,Jits_ISO_8,2,1,48,20,1945280156
84,17,7,Jits_ISO_8,3,5,63,98,1945294276
84,17,7,Jits_ISO_8,0,5,56,103,1946003864
84,17,7,Jits_ISO_8,1,1,48,20,1946048712
84,17,7,Jits_ISO_8,2,5,63,98,1946064100
84,17,7,Jits_ISO_8,3,5,80,127,1946093852
84,17,7,Jits_ISO_8,0,5,56,103,1946774000
84,17,7,Jits_ISO_8,1,5,63,98,1946843608
84,17,7,Jits_ISO_8,2,5,80,127,1946863844
84,17,7,Jits_ISO_8,3,1,48,18,1946933292
84,17,7,Jits_ISO_8,0,5,80,127,1947543980
84,17,7,Jits_ISO_8,1,5,63,98,1947564288
84,17,7,Jits_ISO_8,2,5,56,103,1947613444
84,17,7,Jits_ISO_8,3,1,48,26,1947652308
84,17,7,Jits_ISO_8,0,9999,9999,9999,1852811340
84,17,7,Jits_ISO_8,1,9999,9999,9999,1853611092
84,17,7,Jits_ISO_8,2,9999,9999,9999,1854411848
84,17,7,Jits_ISO_8,3,9999,9999,9999,1855211628
84,17,7,Jits_ISO_8,4,9999,9999,9999,1856011348
84,17,7,Jits_ISO_8,5,9999,9999,9999,1856811084
84,17,7,Jits_ISO_8,6,9999,9999,9999,1857611836
84,17,7,Jits_ISO_8,7,9999,9999,9999,1858411624
84,17,7,Jits_ISO_8,8,9999,9999,9999,1859211336
84,17,7,Jits_ISO_8,9,9999,9999,9999,1860011108
84,17,7,Jits_ISO_8,10,9999,9999,9999,1860811888
84,17,7,Jits_ISO_8,11,9999,9999,9999,1861611600
84,17,7,Jits_ISO_8,12,9999,9999,9999,1862411328
84,17,7,Jits_ISO_8,13,9999,9999,9999,1863211076
84,17,7,Jits_ISO_8,14,9999,9999,9999,1864011896
84,17,7,Jits_ISO_8,15,9999,9999,9999,1864811592
84,17,7,Jits_ISO_8,16,9999,9999,9999,1865611360
84,17,7,Jits_ISO_8,17,9999,9999,9999,1866411092
84,17,7,Jits_ISO_8,18,9999,9999,9999,1867211856
84,17,7,Jits_ISO_8,19,9999,9999,9999,1868011580
84,17,7,Jits_ISO_8,20,9999,9999,9999,1868811360
84,17,7,Jits_ISO_8,21,9999,9999,9999,1869611092
84,17,7,Jits_ISO_8,22,9999,9999,9999,1870411856
84,17,7,Jits_ISO_8,23,9999,9999,9999,1871211580
84,17,7,Jits_ISO_8,24,9999,9999,9999,1872011360
84,17,7,Jits_ISO_8,25,9999,9999,9999,1872811072
84,17,7,Jits_ISO_8,26,9999,9999,9999,1873611840
84,17,7,Jits_ISO_8,27,9999,9999,9999,1874411624
84,17,7,Jits_ISO_8,28,9999,9999,9999,1875211344
84,17,7,Jits_ISO_8,29,9999,9999,9999,1876011088
84,17,7,Jits_ISO_8,30,9999,9999,9999,1876811840
84,17,7,Jits_ISO_8,31,9999,9999,9999,1877611620
84,17,7,Jits_ISO_8,32,9999,9999,9999,1878411328
84,17,7,Jits_ISO_8,33,9999,9999,9999,1879211108
84,17,7,Jits_ISO_8,34,9999,9999,9999,1880011880
84,17,7,Jits_ISO_8,35,9999,9999,9999,1880811600
84,17,7,Jits_ISO_8,36,9999,9999,9999,1881611316
84,17,7,Jits_ISO_8,37,9999,9999,9999,1882411064
84,17,7,Jits_ISO_8,38,9999,9999,9999,1883211832
84,17,7,Jits_ISO_8,39,9999,9999,9999,1884011632
84,17,7,Jits_ISO_8,40,9999,9999,9999,1884811360
84,17,7,Jits_ISO_8,41,9999,9999,9999,1885611088
84,17,7,Jits_ISO_8,42,9999,9999,9999,1886411836
84,17,7,Jits_ISO_8,43,9999,9999,9999,1887211628
84,17,7,Jits_ISO_8,44,9999,9999,9999,1888011324
84,17,7,Jits_ISO_8,45,9999,9999,9999,1888811128
84,17,7,Jits_ISO_8,46,9999,9999,9999,1889611900
84,17,7,Jits_ISO_8,47,9999,9999,9999,1890411608
84,17,7,Jits_ISO_8,48,9999,9999,9999,1891211332
84,17,7,Jits_ISO_8,49,9999,9999,9999,1892011124
84,17,7,Jits_ISO_8,50,9999,9999,9999,1892811884
84,17,7,Jits_ISO_8,51,9999,9999,9999,1893611596
84,17,7,Jits_ISO_8,52,9999,9999,9999,1894411324
84,17,7,Jits_ISO_8,53,9999,9999,9999,1895211060
84,17,7,Jits_ISO_8,54,9999,9999,9999,1896011884
84,17,7,Jits_ISO_8,55,9999,9999,9999,1896811608
84,17,7,Jits_ISO_8,56,9999,9999,9999,1897611388
84,17,7,Jits_ISO_8,57,9999,9999,9999,1898411096
84,17,7,Jits_ISO_8,58,9999,9999,9999,1899211856
84,17,7,Jits_ISO_8,59,9999,9999,9999,1900011636
84,17,7,Jits_ISO_8,60,9999,9999,9999,1900811360
84,17,7,Jits_ISO_8,61,9999,9999,9999,1901611112
84,17,7,Jits_ISO_8,62,9999,9999,9999,1902411876
84,17,7,Jits_ISO_8,63,9999,9999,9999,1903211580
84,17,7,Jits_ISO_8,64,9999,9999,9999,1904011372
84,17,7,Jits_ISO_8,65,9999,9999,9999,1904811084
84,17,7,Jits_ISO_8,66,9999,9999,9999,1905611864
84,17,7,Jits_ISO_8,67,9999,9999,9999,1906411576
84,17,7,Jits_ISO_8,68,9999,9999,9999,1907211364
84,17,7,Jits_ISO_8,69,9999,9999,9999,1908011108
84,17,7,Jits_ISO_8,70,9999,9999,9999,1908811872
84,17,7,Jits_ISO_8,71,9999,9999,9999,1909611592
84,17,7,Jits_ISO_8,72,9999,9999,9999,1910411372
84,17,7,Jits_ISO_8,73,9999,9999,9999,1911211104
84,17,7,Jits_ISO_8,74,9999,9999,9999,1912011868
84,17,7,Jits_ISO_8,75,9999,9999,9999,1912811580
84,17,7,Jits_ISO_8,76,9999,9999,9999,1913611376
84,17,7,Jits_ISO_8,77,9999,9999,9999,1914411124
84,17,7,Jits_ISO_8,78,9999,9999,9999,1915211888
84,17,7,Jits_ISO_8,79,9999,9999,9999,1916011612
84,17,7,Jits_ISO_8,80,9999,9999,9999,1916811340
84,17,7,Jits_ISO_8,81,9999,9999,9999,1917611120
84,17,7,Jits_ISO_8,82,9999,9999,9999,1918411880
84,17,7,Jits_ISO_8,83,9999,9999,9999,1919211588
84,17,7,Jits_ISO_8,84,9999,9999,9999,1920011380
84,17,7,Jits_ISO_8,85,9999,9999,9999,1920811128
84,17,7,Jits_ISO_8,86,9999,9999,9999,1921611824
84,17,7,Jits_ISO_8,87,9999,9999,9999,1922411608
84,17,7,Jits_ISO_8,88,9999,9999,9999,1923211384
84,17,7,Jits_ISO_8,89,9999,9999,9999,1924011100
84,17,7,Jits_ISO_8,90,9999,9999,9999,1924811868
84,17,7,Jits_ISO_8,91,9999,9999,9999,1925611588
84,17,7,Jits_ISO_8,92,9999,9999,9999,1926411316
84,17,7,Jits_ISO_8,93,9999,9999,9999,1927211112
84,17,7,Jits_ISO_8,94,9999,9999,9999,1928011872
84,17,7,Jits_ISO_8,95,9999,9999,9999,1928811596
84,17,7,Jits_ISO_8,96,9999,9999,9999,1929611320
84,17,7,Jits_ISO_8,97,9999,9999,9999,1930411104
84,17,7,Jits_ISO_8,98,9999,9999,9999,1931211876
84,17,7,Jits_ISO_8,99,9999,9999,9999,1932011584
84,17,7,Jits_ISO_8,100,9999,9999,9999,1932811376
84,17,7,Jits_ISO_8,101,9999,9999,9999,1933611104
84,17,7,Jits_ISO_8,102,9999,9999,9999,1934411872
84,17,7,Jits_ISO_8,103,9999,9999,9999,1935211580
84,17,7,Jits_ISO_8,104,9999,9999,9999,1936011380
84,17,7,Jits_ISO_8,105,9999,9999,9999,1936811096
84,17,7,Jits_ISO_8,106,9999,9999,9999,1937611844
84,17,7,Jits_ISO_8,107,9999,9999,9999,1938411608
84,17,7,Jits_ISO_8,108,9999,9999,9999,1939211324
84,17,7,Jits_ISO_8,109,9999,9999,9999,1940011120
84,17,7,Jits_ISO_8,110,9999,9999,9999,1940811872
84,17,7,Jits_ISO_8,111,9999,9999,9999,1941611580
84,17,7,Jits_ISO_8,112,9999,9999,9999,1942411376
84,17,7,Jits_ISO_8,113,9999,9999,9999,1943211104
84,17,7,Jits_ISO_8,114,9999,9999,9999,1944011872
84,17,7,Jits_ISO_8,115,9999,9999,9999,1944811628
84,17,7,Jits_ISO_8,116,9999,9999,9999,1945611360
84,17,7,Jits_ISO_8,117,9999,9999,9999,1946411108
84,17,7,Jits_ISO_8,118,9999,9999,9999,1947211884
84,17,7,Jits_ISO_8,119,9999,9999,9999,1948011600
84,18,17,Jits_Phase_5,0,5,56,103,1956130196
84,18,17,Jits_Phase_5,1,5,63,98,1956133216
84,18,17,Jits_Phase_5,2,5,80,127,1956136340
84,18,17,Jits_Phase_5,0,5,56,103,1956629976
84,18,17,Jits_Phase_5,1,5,63,98,1956632924
84,18,17,Jits_Phase_5,2,5,80,127,1956636048
84,18,17,Jits_Phase_5,3,1,48,29,1956723524
84,18,17,Jits_Phase_5,0,1,48,22,1957123976
84,18,17,Jits_Phase_5,1,5,56,103,1957129776
84,18,17,Jits_Phase_5,2,5,80,127,1957139700
84,18,17,Jits_Phase_5,3,5,63,98,1957160532
84,18,17,Jits_Phase_5,0,5,63,98,1957580088
84,18,17,Jits_Phase_5,1,5,80,127,1957609840
84,18,17,Jits_Phase_5,2,1,48,29,1957619280
84,18,17,Jits_Phase_5,3,5,56,103,1957620928
84,18,17,Jits_Phase_5,0,1,48,30,1958090516
84,18,17,Jits_Phase_5,1,5,80,127,1958140140
84,18,17,Jits_Phase_5,2,5,56,103,1958149440
84,18,17,Jits_Phase_5,3,5,63,98,1958180184
84,18,17,Jits_Phase_5,0,5,63,98,1958629788
84,18,17,Jits_Phase_5,1,1,48,30,1958635676
84,18,17,Jits_Phase_5,2,5,56,103,1958659532
84,18,17,Jits_Phase_5,3,5,80,127,1958669800
84,18,17,Jits_Phase_5,0,5,56,103,1959080168
84,18,17,Jits_Phase_5,1,5,63,98,1959129620
84,18,17,Jits_Phase_5,2,1,48,30,1959138668
84,18,17,Jits_Phase_5,3,5,80,127,1959149924
84,18,17,Jits_Phase_5,0,5,80,127,1959580080
84,18,17,Jits_Phase_5,1,1,48,32,1959583720
84,18,17,Jits_Phase_5,2,5,63,98,1959630128
84,18,17,Jits_Phase_5,3,5,56,103,1959669988
84,18,17,Jits_Phase_5,0,5,56,103,1960079844
84,18,17,Jits_Phase_5,1,1,48,33,1960104240
84,18,17,Jits_Phase_5,2,5,63,98,1960109512
84,18,17,Jits_Phase_5,3,5,80,127,1960180016
84,18,17,Jits_Phase_5,0,5,56,103,1960579384
84,18,17,Jits_Phase_5,1,1,48,35,1960616804
84,18,17,Jits_Phase_5,2,5,80,127,1960639844
84,18,17,Jits_Phase_5,3,5,63,98,1960669516
84,18,17,Jits_Phase_5,0,5,56,103,1961090684
84,18,17,Jits_Phase_5,1,5,63,98,1961099536
84,18,17,Jits_Phase_5,2,1,48,38,1961134788
84,18,17,Jits_Phase_5,3,5,80,127,1961139540
84,18,17,Jits_Phase_5,0,5,63,98,1961579884
84,18,17,Jits_Phase_5,1,1,48,35,1961599864
84,18,17,Jits_Phase_5,2,5,80,127,1961659672
84,18,17,Jits_Phase_5,3,5,56,103,1961669944
84,18,17,Jits_Phase_5,0,1,48,33,1962108752
84,18,17,Jits_Phase_5,1,5,63,98,1962129752
84,18,17,Jits_Phase_5,2,5,56,103,1962169688
84,18,17,Jits_Phase_5,3,5,80,127,1962172904
84,18,17,Jits_Phase_5,0,5,56,103,1962589572
84,18,17,Jits_Phase_5,1,5,63,98,1962599696
84,18,17,Jits_Phase_5,2,1,48,34,1962621912
84,18,17,Jits_Phase_5,3,5,80,127,1962639700
84,18,17,Jits_Phase_5,0,1,48,36,1963075732
84,18,17,Jits_Phase_5,1,5,56,103,1963080036
84,18,17,Jits_Phase_5,2,5,63,98,1963083324
84,18,17,Jits_Phase_5,3,5,80,127,1963099596
84,18,17,Jits_Phase_5,0,1,48,35,1963575768
84,18,17,Jits_Phase_5,1,5,80,127,1963589884
84,18,17,Jits_Phase_5,2,5,56,103,1963600228
84,18,17,Jits_Phase_5,3,5,63,98,1963669832
84,18,17,Jits_Phase_5,0,1,48,32,1964077332
84,18,17,Jits_Phase_5,1,5,63,98,1964079596
84,18,17,Jits_Phase_5,2,5,56,103,1964099980
84,18,17,Jits_Phase_5,3,5,80,127,1964179756
84,18,17,Jits_Phase_5,0,5,56,103,1964589540
84,18,17,Jits_Phase_5,1,1,48,36,1964606888
84,18,17,Jits_Phase_5,2,5,80,127,1964630520
84,18,17,Jits_Phase_5,3,5,63,98,1964639672
84,18,17,Jits_Phase_5,0,1,48,33,1965073164
84,18,17,Jits_Phase_5,1,5,80,127,1965079864
84,18,17,Jits_Phase_5,2,5,63,98,1965109612
84,18,17,Jits_Phase_5,3,5,56,103,1965149548
84,18,17,Jits_Phase_5,0,1,48,32,1965561728
84,18,17,Jits_Phase_5,1,5,56,103,1965600436
84,18,17,Jits_Phase_5,2,5,63,98,1965629740
84,18,17,Jits_Phase_5,3,5,80,127,1965679924
84,18,17,Jits_Phase_5,0,1,48,34,1966096236
84,18,17,Jits_Phase_5,1,5,80,127,1966099940
84,18,17,Jits_Phase_5,2,5,56,103,1966139656
84,18,17,Jits_Phase_5,3,5,63,98,1966150076
84,18,17,Jits_Phase_5,0,5,80,127,1966580040
84,18,17,Jits_Phase_5,1,1,48,35,1966593052
84,18,17,Jits_Phase_5,2,5,63,98,1966619924
84,18,17,Jits_Phase_5,3,5,56,103,1966680608
84,18,17,Jits_Phase_5,0,5,56,103,1967079728
84,18,17,Jits_Phase_5,1,5,80,127,1967089924
84,18,17,Jits_Phase_5,2,1,48,32,1967128812
84,18,17,Jits_Phase_5,3,5,63,98,1967169884
84,18,17,Jits_Phase_5,0,5,80,127,1967579640
84,18,17,Jits_Phase_5,1,1,48,34,1967588236
84,18,17,Jits_Phase_5,2,5,63,98,1967639976
84,18,17,Jits_Phase_5,3,5,56,103,1967669500
84,18,17,Jits_Phase_5,0,1,48,29,1968079172
84,18,17,Jits_Phase_5,1,5,56,103,1968080740
84,18,17,Jits_Phase_5,2,5,80,127,1968139564
84,18,17,Jits_Phase_5,3,5,63,98,1968179436
84,18,17,Jits_Phase_5,0,1,48,34,1968611184
84,18,17,Jits_Phase_5,1,5,56,103,1968630020
84,18,17,Jits_Phase_5,2,5,63,98,1968640508
84,18,17,Jits_Phase_5,3,5,80,127,1968643800
84,18,17,Jits_Phase_5,0,5,80,127,1969079796
84,18,17,Jits_Phase_5,1,1,48,33,1969083888
84,18,17,Jits_Phase_5,2,5,63,98,1969169944
84,18,17,Jits_Phase_5,3,5,56,103,1969180128
84,18,17,Jits_Phase_5,0,5,56,103,1969580444
84,18,17,Jits_Phase_5,1,5,63,98,1969583392
84,18,17,Jits_Phase_5,2,5,80,127,1969586588
84,18,17,Jits_Phase_5,3,1,48,27,1969605072
84,18,17,Jits_Phase_5,0,1,48,32,1970078524
84,18,17,Jits_Phase_5,1,5,80,127,1970109936
84,18,17,Jits_Phase_5,2,5,63,98,1970159916
84,18,17,Jits_Phase_5,3,5,56,103,1970189572
84,18,17,Jits_Phase_5,0,1,48,31,1970562092
84,18,17,Jits_Phase_5,1,5,56,103,1970589984
84,18,17,Jits_Phase_5,2,5,80,127,1970600552
84,18,17,Jits_Phase_5,3,5,63,98,1970669844
84,18,17,Jits_Phase_5,0,1,48,29,1971090980
84,18,17,Jits_Phase_5,1,5,56,103,1971099996
84,18,17,Jits_Phase_5,2,5,63,98,1971119332
84,18,17,Jits_Phase_5,3,5,80,127,1971179944
84,18,17,Jits_Phase_5,0,5,80,127,1971580272
84,18,17,Jits_Phase_5,1,1,48,37,1971585932
84,18,17,Jits_Phase_5,2,5,63,98,1971649948
84,18,17,Jits_Phase_5,3,5,56,103,1971670552
84,18,17,Jits_Phase_5,0,1,48,31,1972059928
84,18,17,Jits_Phase_5,1,5,80,127,1972099436
84,18,17,Jits_Phase_5,2,5,56,103,1972109560
84,18,17,Jits_Phase_5,3,5,63,98,1972120128
84,18,17,Jits_Phase_5,0,1,48,31,1972557864
84,18,17,Jits_Phase_5,1,5,80,127,1972589892
84,18,17,Jits_Phase_5,2,5,56,103,1972610724
84,18,17,Jits_Phase_5,3,5,63,98,1972680016
84,18,17,Jits_Phase_5,0,1,48,33,1973043832
84,18,17,Jits_Phase_5,1,5,56,103,1973099828
84,18,17,Jits_Phase_5,2,5,80,127,1973129504
84,18,17,Jits_Phase_5,3,5,63,98,1973150024
84,18,17,Jits_Phase_5,0,1,48,31,1973549136
84,18,17,Jits_Phase_5,1,5,63,98,1973590360
84,18,17,Jits_Phase_5,2,5,56,103,1973649912
84,18,17,Jits_Phase_5,3,5,80,127,1973679512
84,18,17,Jits_Phase_5,0,1,48,33,1974044684
84,18,17,Jits_Phase_5,1,5,63,98,1974079996
84,18,17,Jits_Phase_5,2,5,80,127,1974083288
84,18,17,Jits_Phase_5,3,5,56,103,1974170108
84,18,17,Jits_Phase_5,0,1,48,34,1974574760
84,18,17,Jits_Phase_5,1,5,56,103,1974600040
84,18,17,Jits_Phase_5,2,5,63,98,1974629864
84,18,17,Jits_Phase_5,3,5,80,127,1974669728
84,18,17,Jits_Phase_5,0,1,48,36,1975059012
84,18,17,Jits_Phase_5,1,5,63,98,1975099792
84,18,17,Jits_Phase_5,2,5,56,103,1975139804
84,18,17,Jits_Phase_5,3,5,80,127,1975160172
84,18,17,Jits_Phase_5,0,1,48,31,1975549148
84,18,17,Jits_Phase_5,1,5,63,98,1975609728
84,18,17,Jits_Phase_5,2,5,56,103,1975649504
84,18,17,Jits_Phase_5,3,5,80,127,1975659924
84,18,17,Jits_Phase_5,0,1,48,34,1976071596
84,18,17,Jits_Phase_5,1,5,80,127,1976090148
84,18,17,Jits_Phase_5,2,5,63,98,1976159460
84,18,17,Jits_Phase_5,3,5,56,103,1976180272
84,18,17,Jits_Phase_5,0,5,56,103,1976579472
84,18,17,Jits_Phase_5,1,5,80,127,1976599804
84,18,17,Jits_Phase_5,2,1,48,34,1976615504
84,18,17,Jits_Phase_5,3,5,63,98,1976639808
84,18,17,Jits_Phase_5,0,1,48,36,1977058896
84,18,17,Jits_Phase_5,1,5,63,98,1977090384
84,18,17,Jits_Phase_5,2,5,80,127,1977109972
84,18,17,Jits_Phase_5,3,5,56,103,1977149760
84,18,17,Jits_Phase_5,0,1,48,35,1977577284
84,18,17,Jits_Phase_5,1,5,63,98,1977590208
84,18,17,Jits_Phase_5,2,5,56,103,1977609544
84,18,17,Jits_Phase_5,3,5,80,127,1977619692
84,18,17,Jits_Phase_5,0,1,48,34,1978059292
84,18,17,Jits_Phase_5,1,5,80,127,1978089732
84,18,17,Jits_Phase_5,2,5,56,103,1978110412
84,18,17,Jits_Phase_5,3,5,63,98,1978139964
84,18,17,Jits_Phase_5,0,1,48,32,1978566664
84,18,17,Jits_Phase_5,1,5,56,103,1978660280
84,18,17,Jits_Phase_5,2,5,80,127,1978663196
84,18,17,Jits_Phase_5,3,5,63,98,1978679540
84,18,17,Jits_Phase_5,0,5,63,98,1979080080
84,18,17,Jits_Phase_5,1,1,48,28,1979102608
84,18,17,Jits_Phase_5,2,5,56,103,1979109676
84,18,17,Jits_Phase_5,3,5,80,127,1979170312
84,18,17,Jits_Phase_5,0,1,48,38,1979586228
84,18,17,Jits_Phase_5,1,5,63,98,1979659616
84,18,17,Jits_Phase_5,2,5,56,103,1979669836
84,18,17,Jits_Phase_5,3,5,80,127,1979680548
84,18,17,Jits_Phase_5,0,5,56,103,1980120420
84,18,17,Jits_Phase_5,1,1,48,36,1980124588
84,18,17,Jits_Phase_5,2,5,80,127,1980150236
84,18,17,Jits_Phase_5,3,5,63,98,1980160356
84,18,17,Jits_Phase_5,0,1,48,38,1980634308
84,18,17,Jits_Phase_5,1,5,63,98,1980660108
84,18,17,Jits_Phase_5,2,5,56,103,1980670304
84,18,17,Jits_Phase_5,3,5,80,127,1980689744
84,18,17,Jits_Phase_5,0,5,56,103,1981090268
84,18,17,Jits_Phase_5,1,1,48,42,1981143136
84,18,17,Jits_Phase_5,2,5,63,98,1981149448
84,18,17,Jits_Phase_5,3,5,80,127,1981152744
84,18,17,Jits_Phase_5,0,5,80,127,1981610328
84,18,17,Jits_Phase_5,1,5,56,103,1981619480
84,18,17,Jits_Phase_5,2,1,48,41,1981627380
84,18,17,Jits_Phase_5,3,5,63,98,1981690344
84,18,17,Jits_Phase_5,0,5,80,127,1982099756
84,18,17,Jits_Phase_5,1,1,48,38,1982137248
84,18,17,Jits_Phase_5,2,5,56,103,1982169352
84,18,17,Jits_Phase_5,3,5,63,98,1982179548
84,18,17,Jits_Phase_5,0,5,63,98,1982639456
84,18,17,Jits_Phase_5,1,1,48,38,1982646536
84,18,17,Jits_Phase_5,2,5,56,103,1982649792
84,18,17,Jits_Phase_5,3,5,80,127,1982670176
84,18,17,Jits_Phase_5,0,5,80,127,1983090128
84,18,17,Jits_Phase_5,1,5,63,98,1983149472
84,18,17,Jits_Phase_5,2,1,48,37,1983172220
84,18,17,Jits_Phase_5,3,5,56,103,1983190452
84,18,17,Jits_Phase_5,0,5,56,103,1983629828
84,18,17,Jits_Phase_5,1,5,63,98,1983640024
84,18,17,Jits_Phase_5,2,1,48,38,1983648392
84,18,17,Jits_Phase_5,3,5,80,127,1983680100
84,18,17,Jits_Phase_5,0,5,56,103,1984089588
84,18,17,Jits_Phase_5,1,1,48,33,1984110692
84,18,17,Jits_Phase_5,2,5,80,127,1984120304
84,18,17,Jits_Phase_5,3,5,63,98,1984170352
84,18,17,Jits_Phase_5,0,5,56,103,1984630256
84,18,17,Jits_Phase_5,1,1,48,31,1984634348
84,18,17,Jits_Phase_5,2,5,63,98,1984670184
84,18,17,Jits_Phase_5,3,5,80,127,1984673472
84,18,17,Jits_Phase_5,0,5,56,103,1985129716
84,18,17,Jits_Phase_5,1,1,48,30,1985133732
84,18,17,Jits_Phase_5,2,5,63,98,1985140052
84,18,17,Jits_Phase_5,3,5,80,127,1985159388
84,18,17,Jits_Phase_5,0,5,56,103,1985589692
84,18,17,Jits_Phase_5,1,5,80,127,1985592536
84,18,17,Jits_Phase_5,2,5,63,98,1985629632
84,18,17,Jits_Phase_5,3,1,48,34,1985638528
84,18,17,Jits_Phase_5,0,1,48,36,1986099152
84,18,17,Jits_Phase_5,1,5,63,98,1986130268
84,18,17,Jits_Phase_5,2,5,56,103,1986160168
84,18,17,Jits_Phase_5,3,5,80,127,1986179428
84,18,17,Jits_Phase_5,0,5,80,127,1986600360
84,18,17,Jits_Phase_5,1,5,56,103,1986609508
84,18,17,Jits_Phase_5,2,5,63,98,1986619708
84,18,17,Jits_Phase_5,3,1,48,34,1986635476
84,18,17,Jits_Phase_5,0,1,48,35,1987078492
84,18,17,Jits_Phase_5,1,5,56,103,1987099964
84,18,17,Jits_Phase_5,2,5,80,127,1987140200
84,18,17,Jits_Phase_5,3,5,63,98,1987169576
84,18,17,Jits_Phase_5,0,5,63,98,1987610056
84,18,17,Jits_Phase_5,1,1,48,38,1987614748
84,18,17,Jits_Phase_5,2,5,80,127,1987620172
84,18,17,Jits_Phase_5,3,5,56,103,1987629320
84,18,17,Jits_Phase_5,0,5,56,103,1988099364
84,18,17,Jits_Phase_5,1,1,48,38,1988115688
84,18,17,Jits_Phase_5,2,5,63,98,1988170184
84,18,17,Jits_Phase_5,3,5,80,127,1988180308
84,18,17,Jits_Phase_5,0,5,80,127,1988610440
84,18,17,Jits_Phase_5,1,5,56,103,1988619588
84,18,17,Jits_Phase_5,2,1,48,36,1988633368
84,18,17,Jits_Phase_5,3,5,63,98,1988669804
84,18,17,Jits_Phase_5,0,1,48,32,1989095396
84,18,17,Jits_Phase_5,1,5,80,127,1989120308
84,18,17,Jits_Phase_5,2,5,56,103,1989179748
84,18,17,Jits_Phase_5,3,5,63,98,1989209484
84,18,17,Jits_Phase_5,0,5,56,103,1989620068
84,18,17,Jits_Phase_5,1,5,80,127,1989623060
84,18,17,Jits_Phase_5,2,1,48,37,1989630232
84,18,17,Jits_Phase_5,3,5,63,98,1989660096
84,18,17,Jits_Phase_5,0,1,48,37,1990123456
84,18,17,Jits_Phase_5,1,5,56,103,1990149632
84,18,17,Jits_Phase_5,2,5,63,98,1990180156
84,18,17,Jits_Phase_5,3,5,80,127,1990189380
84,18,17,Jits_Phase_5,0,1,48,35,1990622460
84,18,17,Jits_Phase_5,1,5,63,98,1990659348
84,18,17,Jits_Phase_5,2,5,80,127,1990669616
84,18,17,Jits_Phase_5,3,5,56,103,1990680056
84,18,17,Jits_Phase_5,0,5,80,127,1991109952
84,18,17,Jits_Phase_5,1,1,48,35,1991122512
84,18,17,Jits_Phase_5,2,5,56,103,1991160064
84,18,17,Jits_Phase_5,3,5,63,98,1991163284
84,18,17,Jits_Phase_5,0,1,48,34,1991627964
84,18,17,Jits_Phase_5,1,5,56,103,1991640492
84,18,17,Jits_Phase_5,2,5,80,127,1991660052
84,18,17,Jits_Phase_5,3,5,63,98,1991670248
84,18,17,Jits_Phase_5,0,5,63,98,1992119576
84,18,17,Jits_Phase_5,1,1,48,38,1992136996
84,18,17,Jits_Phase_5,2,5,56,103,1992150440
84,18,17,Jits_Phase_5,3,5,80,127,1992169776
84,18,17,Jits_Phase_5,0,1,48,37,1992620120
84,18,17,Jits_Phase_5,1,5,56,103,1992629952
84,18,17,Jits_Phase_5,2,5,80,127,1992640072
84,18,17,Jits_Phase_5,3,5,63,98,1992709456
84,18,17,Jits_Phase_5,0,5,63,98,1993120120
84,18,17,Jits_Phase_5,1,1,48,37,1993153660
84,18,17,Jits_Phase_5,2,5,80,127,1993160052
84,18,17,Jits_Phase_5,3,5,56,103,1993200136
84,18,17,Jits_Phase_5,0,5,56,103,1993630208
84,18,17,Jits_Phase_5,1,1,48,39,1993636244
84,18,17,Jits_Phase_5,2,5,63,98,1993640472
84,18,17,Jits_Phase_5,3,5,80,127,1993659884
84,18,17,Jits_Phase_5,0,1,48,36,1994132708
84,18,17,Jits_Phase_5,1,5,63,98,1994169596
84,18,17,Jits_Phase_5,2,5,80,127,1994190280
84,18,17,Jits_Phase_5,3,5,56,103,1994209692
84,18,17,Jits_Phase_5,0,5,56,103,1994610096
84,18,17,Jits_Phase_5,1,1,48,39,1994634492
84,18,17,Jits_Phase_5,2,5,80,127,1994690032
84,18,17,Jits_Phase_5,3,5,63,98,1994700156
84,18,17,Jits_Phase_5,0,1,48,36,1995109008
84,18,17,Jits_Phase_5,1,5,80,127,1995149568
84,18,17,Jits_Phase_5,2,5,63,98,1995159912
84,18,17,Jits_Phase_5,3,5,56,103,1995189512
84,18,17,Jits_Phase_5,0,5,63,98,1995609392
84,18,17,Jits_Phase_5,1,1,48,37,1995625768
84,18,17,Jits_Phase_5,2,5,80,127,1995650296
84,18,17,Jits_Phase_5,3,5,56,103,1995710084
84,18,17,Jits_Phase_5,0,1,48,37,1996080640
84,18,17,Jits_Phase_5,1,5,63,98,1996120448
84,18,17,Jits_Phase_5,2,5,56,103,1996169676
84,18,17,Jits_Phase_5,3,5,80,127,1996200308
84,18,17,Jits_Phase_5,0,5,80,127,1996620056
84,18,17,Jits_Phase_5,1,5,63,98,1996630476
84,18,17,Jits_Phase_5,2,1,48,37,1996631588
84,18,17,Jits_Phase_5,3,5,56,103,1996700072
84,18,17,Jits_Phase_5,0,1,48,35,1997119120
84,18,17,Jits_Phase_5,1,5,80,127,1997180128
84,18,17,Jits_Phase_5,2,5,56,103,1997189344
84,18,17,Jits_Phase_5,3,5,63,98,1997192568
84,18,17,Jits_Phase_5,0,1,48,33,1997611448
84,18,17,Jits_Phase_5,1,5,56,103,1997619492
84,18,17,Jits_Phase_5,2,5,80,127,1997640176
84,18,17,Jits_Phase_5,3,5,63,98,1997650372
84,18,17,Jits_Phase_5,0,1,48,35,1998049892
84,18,17,Jits_Phase_5,1,5,63,98,1998129728
84,18,17,Jits_Phase_5,2,5,56,103,1998169576
84,18,17,Jits_Phase_5,3,5,80,127,1998189888
84,18,17,Jits_Phase_5,0,1,48,34,1998563424
84,18,17,Jits_Phase_5,1,5,63,98,1998630304
84,18,17,Jits_Phase_5,2,5,56,103,1998689780
84,18,17,Jits_Phase_5,3,5,80,127,1998692700
84,18,17,Jits_Phase_5,0,5,56,103,1999090024
84,18,17,Jits_Phase_5,1,1,48,31,1999106472
84,18,17,Jits_Phase_5,2,5,80,127,1999109652
84,18,17,Jits_Phase_5,3,5,63,98,1999149320
84,18,17,Jits_Phase_5,0,1,48,31,1999581736
84,18,17,Jits_Phase_5,1,5,56,103,1999619376
84,18,17,Jits_Phase_5,2,5,63,98,1999640080
84,18,17,Jits_Phase_5,3,5,80,127,1999650128
84,18,17,Jits_Phase_5,0,1,48,30,2000044472
84,18,17,Jits_Phase_5,1,5,80,127,2000089532
84,18,17,Jits_Phase_5,2,5,56,103,2000120104
84,18,17,Jits_Phase_5,3,5,63,98,2000159976
84,18,17,Jits_Phase_5,0,1,48,32,2000547804
84,18,17,Jits_Phase_5,1,5,80,127,2000600364
84,18,17,Jits_Phase_5,2,5,56,103,2000619776
84,18,17,Jits_Phase_5,3,5,63,98,2000680396
84,18,17,Jits_Phase_5,0,1,48,26,2001050416
84,18,17,Jits_Phase_5,1,5,56,103,2001110376
84,18,17,Jits_Phase_5,2,5,80,127,2001129936
84,18,17,Jits_Phase_5,3,5,63,98,2001190112
84,18,17,Jits_Phase_5,0,1,48,32,2001575256
84,18,17,Jits_Phase_5,1,5,80,127,2001589820
84,18,17,Jits_Phase_5,2,5,56,103,2001599944
84,18,17,Jits_Phase_5,3,5,63,98,2001639952
84,18,17,Jits_Phase_5,0,1,48,29,2002020988
84,18,17,Jits_Phase_5,1,5,63,98,2002090392
84,18,17,Jits_Phase_5,2,5,56,103,2002130312
84,18,17,Jits_Phase_5,3,5,80,127,2002133304
84,18,17,Jits_Phase_5,0,1,48,19,2002515400
84,18,17,Jits_Phase_5,1,5,63,98,2002609384
84,18,17,Jits_Phase_5,2,5,80,127,2002649308
84,18,17,Jits_Phase_5,3,5,56,103,2002680028
84,18,17,Jits_Phase_5,0,1,48,33,2003073368
84,18,17,Jits_Phase_5,1,5,56,103,2003100068
84,18,17,Jits_Phase_5,2,5,63,98,2003110188
84,18,17,Jits_Phase_5,3,5,80,127,2003139940
84,18,17,Jits_Phase_5,0,5,80,127,2003589632
84,18,17,Jits_Phase_5,1,1,48,30,2003596112
84,18,17,Jits_Phase_5,2,5,63,98,2003660128
84,18,17,Jits_Phase_5,3,5,56,103,2003670324
84,18,17,Jits_Phase_5,0,5,63,98,2004090216
84,18,17,Jits_Phase_5,1,1,48,30,2004133492
84,18,17,Jits_Phase_5,2,5,56,103,2004159968
84,18,17,Jits_Phase_5,3,5,80,127,2004170236
84,18,17,Jits_Phase_5,0,5,63,98,2004569444
84,18,17,Jits_Phase_5,1,5,56,103,2004589900
84,18,17,Jits_Phase_5,2,5,80,127,2004629764
84,18,17,Jits_Phase_5,3,1,48,28,2004639032
84,18,17,Jits_Phase_5,0,5,56,103,2005049792
84,18,17,Jits_Phase_5,1,5,63,98,2005060060
84,18,17,Jits_Phase_5,2,1,48,32,2005090604
84,18,17,Jits_Phase_5,3,5,80,127,2005139920
84,18,17,Jits_Phase_5,0,5,63,98,2005540336
84,18,17,Jits_Phase_5,1,1,48,33,2005562036
84,18,17,Jits_Phase_5,2,5,56,103,2005569856
84,18,17,Jits_Phase_5,3,5,80,127,2005609868
84,18,17,Jits_Phase_5,0,5,56,103,2006040008
84,18,17,Jits_Phase_5,1,1,48,35,2006067488
84,18,17,Jits_Phase_5,2,5,63,98,2006079864
84,18,17,Jits_Phase_5,3,5,80,127,2006119728
84,18,17,Jits_Phase_5,0,5,80,127,2006539820
84,18,17,Jits_Phase_5,1,1,48,34,2006552404
84,18,17,Jits_Phase_5,2,5,56,103,2006619560
84,18,17,Jits_Phase_5,3,5,63,98,2006629904
84,18,17,Jits_Phase_5,0,1,48,32,2007017836
84,18,17,Jits_Phase_5,1,5,56,103,2007080284
84,18,17,Jits_Phase_5,2,5,63,98,2007083424
84,18,17,Jits_Phase_5,3,5,80,127,2007089804
84,18,17,Jits_Phase_5,0,1,48,28,2007576024
84,18,17,Jits_Phase_5,1,5,56,103,2007599732
84,18,17,Jits_Phase_5,2,5,63,98,2007619892
84,18,17,Jits_Phase_5,3,5,80,127,2007630088
84,18,17,Jits_Phase_5,0,5,63,98,2008060132
84,18,17,Jits_Phase_5,1,5,80,127,2008069356
84,18,17,Jits_Phase_5,2,5,56,103,2008089988
84,18,17,Jits_Phase_5,3,1,48,33,2008102844
84,18,17,Jits_Phase_5,0,5,63,98,2008559880
84,18,17,Jits_Phase_5,1,1,48,30,2008581952
84,18,17,Jits_Phase_5,2,5,56,103,2008639840
84,18,17,Jits_Phase_5,3,5,80,127,2008642908
84,18,17,Jits_Phase_5,0,5,63,98,2009059692
84,18,17,Jits_Phase_5,1,5,56,103,2009080300
84,18,17,Jits_Phase_5,2,1,48,29,2009086708
84,18,17,Jits_Phase_5,3,5,80,127,2009109844
84,18,17,Jits_Phase_5,0,1,48,33,2009554532
84,18,17,Jits_Phase_5,1,5,56,103,2009560408
84,18,17,Jits_Phase_5,2,5,63,98,2009579748
84,18,17,Jits_Phase_5,3,5,80,127,2009590164
84,18,17,Jits_Phase_5,0,5,56,103,2010089908
84,18,17,Jits_Phase_5,1,1,48,31,2010092500
84,18,17,Jits_Phase_5,2,5,63,98,2010119648
84,18,17,Jits_Phase_5,3,5,80,127,2010122936
84,18,17,Jits_Phase_5,0,5,56,103,2010540368
84,18,17,Jits_Phase_5,1,5,63,98,2010580304
84,18,17,Jits_Phase_5,2,1,48,28,2010600208
84,18,17,Jits_Phase_5,3,5,80,127,2010639664
84,18,17,Jits_Phase_5,0,5,56,103,2011069728
84,18,17,Jits_Phase_5,1,5,63,98,2011080148
84,18,17,Jits_Phase_5,2,1,48,32,2011081788
84,18,17,Jits_Phase_5,3,5,80,127,2011139484
84,18,17,Jits_Phase_5,0,1,48,32,2011557312
84,18,17,Jits_Phase_5,1,5,56,103,2011569560
84,18,17,Jits_Phase_5,2,5,80,127,2011589944
84,18,17,Jits_Phase_5,3,5,63,98,2011619768
84,18,17,Jits_Phase_5,0,5,80,127,2012070144
84,18,17,Jits_Phase_5,1,1,48,30,2012073188
84,18,17,Jits_Phase_5,2,5,56,103,2012079656
84,18,17,Jits_Phase_5,3,5,63,98,2012099892
84,18,17,Jits_Phase_5,0,5,63,98,2012559716
84,18,17,Jits_Phase_5,1,1,48,32,2012568088
84,18,17,Jits_Phase_5,2,5,80,127,2012639652
84,18,17,Jits_Phase_5,3,5,56,103,2012649848
84,18,17,Jits_Phase_5,0,1,48,31,2013078624
84,18,17,Jits_Phase_5,1,5,80,127,2013149592
84,18,17,Jits_Phase_5,2,5,56,103,2013169976
84,18,17,Jits_Phase_5,3,5,63,98,2013172968
84,18,17,Jits_Phase_5,0,1,48,27,2013591024
84,18,17,Jits_Phase_5,1,5,63,98,2013650384
84,18,17,Jits_Phase_5,2,5,80,127,2013653824
84,18,17,Jits_Phase_5,3,5,56,103,2013709560
84,18,17,Jits_Phase_5,0,1,48,26,2014122952
84,18,17,Jits_Phase_5,1,5,56,103,2014129504
84,18,17,Jits_Phase_5,2,5,80,127,2014139700
84,18,17,Jits_Phase_5,3,5,63,98,2014179784
84,18,17,Jits_Phase_5,0,1,48,27,2014547696
84,18,17,Jits_Phase_5,1,5,56,103,2014609920
84,18,17,Jits_Phase_5,2,5,63,98,2014670148
84,18,17,Jits_Phase_5,3,5,80,127,2014680568
84,18,17,Jits_Phase_5,0,1,48,24,2015090316
84,18,17,Jits_Phase_5,1,5,63,98,2015119788
84,18,17,Jits_Phase_5,2,5,80,127,2015159800
84,18,17,Jits_Phase_5,3,5,56,103,2015199648
84,18,17,Jits_Phase_5,0,1,48,28,2015584444
84,18,17,Jits_Phase_5,1,5,56,103,2015619688
84,18,17,Jits_Phase_5,2,5,63,98,2015700288
84,18,17,Jits_Phase_5,3,5,80,127,2015703876
84,18,17,Jits_Phase_5,0,1,48,29,2016122324
84,18,17,Jits_Phase_5,1,5,80,127,2016179668
84,18,17,Jits_Phase_5,2,5,56,103,2016210384
84,18,17,Jits_Phase_5,3,5,63,98,2016213528
84,18,17,Jits_Phase_5,0,1,48,30,2016602060
84,18,17,Jits_Phase_5,1,5,56,103,2016640524
84,18,17,Jits_Phase_5,2,5,80,127,2016659712
84,18,17,Jits_Phase_5,3,5,63,98,2016699636
84,18,17,Jits_Phase_5,0,1,48,38,2017092900
84,18,17,Jits_Phase_5,1,5,80,127,2017119676
84,18,17,Jits_Phase_5,2,5,63,98,2017140060
84,18,17,Jits_Phase_5,3,5,56,103,2017199532
84,18,17,Jits_Phase_5,0,1,48,35,2017589584
84,18,17,Jits_Phase_5,1,5,63,98,2017639804
84,18,17,Jits_Phase_5,2,5,56,103,2017650000
84,18,17,Jits_Phase_5,3,5,80,127,2017700256
84,18,17,Jits_Phase_5,0,1,48,38,2018103256
84,18,17,Jits_Phase_5,1,5,56,103,2018130556
84,18,17,Jits_Phase_5,2,5,63,98,2018149672
84,18,17,Jits_Phase_5,3,5,80,127,2018159940
84,18,17,Jits_Phase_5,0,1,48,33,2018603900
84,18,17,Jits_Phase_5,1,5,56,103,2018619740
84,18,17,Jits_Phase_5,2,5,63,98,2018622808
84,18,17,Jits_Phase_5,3,5,80,127,2018640124
84,18,17,Jits_Phase_5,0,1,48,34,2019142676
84,18,17,Jits_Phase_5,1,5,63,98,2019160456
84,18,17,Jits_Phase_5,2,5,56,103,2019190132
84,18,17,Jits_Phase_5,3,5,80,127,2019219804
84,18,17,Jits_Phase_5,0,1,48,34,2019584780
84,18,17,Jits_Phase_5,1,5,80,127,2019620200
84,18,17,Jits_Phase_5,2,5,56,103,2019710612
84,18,17,Jits_Phase_5,3,5,63,98,2019713604
84,18,17,Jits_Phase_5,0,1,48,34,2020117356
84,18,17,Jits_Phase_5,1,5,56,103,2020119940
84,18,17,Jits_Phase_5,2,5,80,127,2020122932
84,18,17,Jits_Phase_5,3,5,63,98,2020199728
84,18,17,Jits_Phase_5,0,5,80,127,2020619660
84,18,17,Jits_Phase_5,1,1,48,34,2020640788
84,18,17,Jits_Phase_5,2,5,63,98,2020679920
84,18,17,Jits_Phase_5,3,5,56,103,2020709668
84,18,17,Jits_Phase_5,0,5,63,98,2021120548
84,18,17,Jits_Phase_5,1,5,80,127,2021129696
84,18,17,Jits_Phase_5,2,1,48,31,2021148576
84,18,17,Jits_Phase_5,3,5,56,103,2021200436
84,18,17,Jits_Phase_5,0,1,48,29,2021622284
84,18,17,Jits_Phase_5,1,5,56,103,2021679576
84,18,17,Jits_Phase_5,2,5,80,127,2021710148
84,18,17,Jits_Phase_5,3,5,63,98,2021760556
84,18,17,Jits_Phase_5,0,1,48,31,2022182512
84,18,17,Jits_Phase_5,1,5,63,98,2022270568
84,18,17,Jits_Phase_5,2,5,56,103,2022299924
84,18,17,Jits_Phase_5,3,5,80,127,2022302996
84,18,17,Jits_Phase_5,0,5,63,98,2022770172
84,18,17,Jits_Phase_5,1,1,48,31,2022774336
84,18,17,Jits_Phase_5,2,5,80,127,2022789500
84,18,17,Jits_Phase_5,3,5,56,103,2022799696
84,18,17,Jits_Phase_5,0,1,48,36,2023256172
84,18,17,Jits_Phase_5,1,5,56,103,2023279876
84,18,17,Jits_Phase_5,2,5,63,98,2023283020
84,18,17,Jits_Phase_5,3,5,80,127,2023299664
84,18,17,Jits_Phase_5,0,5,56,103,2023729436
84,18,17,Jits_Phase_5,1,5,63,98,2023739856
84,18,17,Jits_Phase_5,2,1,48,30,2023755256
84,18,17,Jits_Phase_5,3,5,80,127,2023769376
84,18,17,Jits_Phase_5,0,5,63,98,2024249652
84,18,17,Jits_Phase_5,1,5,80,127,2024270480
84,18,17,Jits_Phase_5,2,5,56,103,2024310268
84,18,17,Jits_Phase_5,3,1,48,35,2024326196
84,18,17,Jits_Phase_5,0,5,56,103,2024780416
84,18,17,Jits_Phase_5,1,1,48,32,2024819592
84,18,17,Jits_Phase_5,2,5,63,98,2024821260
84,18,17,Jits_Phase_5,3,5,80,127,2024824312
84,18,17,Jits_Phase_5,0,5,80,127,2025219396
84,18,17,Jits_Phase_5,1,5,56,103,2025260404
84,18,17,Jits_Phase_5,2,5,63,98,2025309484
84,18,17,Jits_Phase_5,3,1,48,34,2025317160
84,18,17,Jits_Phase_5,0,5,56,103,2025779568
84,18,17,Jits_Phase_5,1,1,48,34,2025786504
84,18,17,Jits_Phase_5,2,5,80,127,2025789684
84,18,17,Jits_Phase_5,3,5,63,98,2025819580
84,18,17,Jits_Phase_5,0,5,56,103,2026230308
84,18,17,Jits_Phase_5,1,1,48,35,2026256748
84,18,17,Jits_Phase_5,2,5,80,127,2026270416
84,18,17,Jits_Phase_5,3,5,63,98,2026320244
84,18,17,Jits_Phase_5,0,5,56,103,2026729704
84,18,17,Jits_Phase_5,1,1,48,40,2026746376
84,18,17,Jits_Phase_5,2,5,80,127,2026769884
84,18,17,Jits_Phase_5,3,5,63,98,2026819860
84,18,17,Jits_Phase_5,0,5,80,127,2027220468
84,18,17,Jits_Phase_5,1,1,48,35,2027249820
84,18,17,Jits_Phase_5,2,5,63,98,2027300356
84,18,17,Jits_Phase_5,3,5,56,103,2027309580
84,18,17,Jits_Phase_5,0,1,48,35,2027739084
84,18,17,Jits_Phase_5,1,5,80,127,2027770424
84,18,17,Jits_Phase_5,2,5,56,103,2027779424
84,18,17,Jits_Phase_5,3,5,63,98,2027799908
84,18,17,Jits_Phase_5,0,1,48,38,2028231192
84,18,17,Jits_Phase_5,1,5,63,98,2028240208
84,18,17,Jits_Phase_5,2,5,56,103,2028309988
84,18,17,Jits_Phase_5,3,5,80,127,2028313052
84,18,17,Jits_Phase_5,0,1,48,38,2028722548
84,18,17,Jits_Phase_5,1,5,80,127,2028729692
84,18,17,Jits_Phase_5,2,5,63,98,2028779968
84,18,17,Jits_Phase_5,3,5,56,103,2028820812
84,18,17,Jits_Phase_5,0,1,48,38,2029192032
84,18,17,Jits_Phase_5,1,5,63,98,2029270572
84,18,17,Jits_Phase_5,2,5,56,103,2029310420
84,18,17,Jits_Phase_5,3,5,80,127,2029319568
84,18,17,Jits_Phase_5,0,1,48,41,2029719212
84,18,17,Jits_Phase_5,1,5,63,98,2029759840
84,18,17,Jits_Phase_5,2,5,56,103,2029780520
84,18,17,Jits_Phase_5,3,5,80,127,2029799712
84,18,17,Jits_Phase_5,0,5,80,127,2030219668
84,18,17,Jits_Phase_5,1,1,48,39,2030226000
84,18,17,Jits_Phase_5,2,5,56,103,2030230080
84,18,17,Jits_Phase_5,3,5,63,98,2030250316
84,18,17,Jits_Phase_5,0,1,48,40,2030669952
84,18,17,Jits_Phase_5,1,5,63,98,2030750140
84,18,17,Jits_Phase_5,2,5,56,103,2030790208
84,18,17,Jits_Phase_5,3,5,80,127,2030819660
84,18,17,Jits_Phase_5,0,1,48,37,2031207844
84,18,17,Jits_Phase_5,1,5,56,103,2031209812
84,18,17,Jits_Phase_5,2,5,63,98,2031239412
84,18,17,Jits_Phase_5,3,5,80,127,2031270208
84,18,17,Jits_Phase_5,0,5,80,127,2031629716
84,18,17,Jits_Phase_5,1,1,48,40,2031691344
84,18,17,Jits_Phase_5,2,5,56,103,2031700284
84,18,17,Jits_Phase_5,3,5,63,98,2031703276
84,18,17,Jits_Phase_5,0,5,56,103,2032139560
84,18,17,Jits_Phase_5,1,1,48,32,2032179016
84,18,17,Jits_Phase_5,2,5,63,98,2032189756
84,18,17,Jits_Phase_5,3,5,80,127,2032219428
84,18,17,Jits_Phase_5,0,1,48,33,2032617448
84,18,17,Jits_Phase_5,1,5,63,98,2032620032
84,18,17,Jits_Phase_5,2,5,80,127,2032623324
84,18,17,Jits_Phase_5,3,5,56,103,2032680296
84,18,17,Jits_Phase_5,0,1,48,31,2033118100
84,18,17,Jits_Phase_5,1,5,56,103,2033150488
84,18,17,Jits_Phase_5,2,5,80,127,2033159412
84,18,17,Jits_Phase_5,3,5,63,98,2033210364
84,18,17,Jits_Phase_5,0,5,63,98,2033620272
84,18,17,Jits_Phase_5,1,5,56,103,2033629496
84,18,17,Jits_Phase_5,2,1,48,35,2033645868
84,18,17,Jits_Phase_5,3,5,80,127,2033660508
84,18,17,Jits_Phase_5,0,1,48,33,2034099532
84,18,17,Jits_Phase_5,1,5,63,98,2034149676
84,18,17,Jits_Phase_5,2,5,80,127,2034153116
84,18,17,Jits_Phase_5,3,5,56,103,2034179500
84,18,17,Jits_Phase_5,0,1,48,31,2034594464
84,18,17,Jits_Phase_5,1,5,63,98,2034670092
84,18,17,Jits_Phase_5,2,5,56,103,2034690320
84,18,17,Jits_Phase_5,3,5,80,127,2034694424
84,18,17,Jits_Phase_5,0,5,63,98,2035129684
84,18,17,Jits_Phase_5,1,1,48,36,2035130876
84,18,17,Jits_Phase_5,2,5,56,103,2035200256
84,18,17,Jits_Phase_5,3,5,80,127,2035219988
84,18,17,Jits_Phase_5,0,5,56,103,2035620292
84,18,17,Jits_Phase_5,1,5,63,98,2035629296
84,18,17,Jits_Phase_5,2,1,48,37,2035646260
84,18,17,Jits_Phase_5,3,5,80,127,2035719488
84,18,17,Jits_Phase_5,0,1,48,38,2036127652
84,18,17,Jits_Phase_5,1,5,56,103,2036140428
84,18,17,Jits_Phase_5,2,5,80,127,2036180368
84,18,17,Jits_Phase_5,3,5,63,98,2036189516
84,18,17,Jits_Phase_5,0,1,48,38,2036624416
84,18,17,Jits_Phase_5,1,5,56,103,2036659436
84,18,17,Jits_Phase_5,2,5,63,98,2036690232
84,18,17,Jits_Phase_5,3,5,80,127,2036720264
84,18,17,Jits_Phase_5,0,5,80,127,2037120312
84,18,17,Jits_Phase_5,1,1,48,33,2037121576
84,18,17,Jits_Phase_5,2,5,63,98,2037160392
84,18,17,Jits_Phase_5,3,5,56,103,2037179728
84,18,17,Jits_Phase_5,0,1,48,40,2037607688
84,18,17,Jits_Phase_5,1,5,56,103,2037660296
84,18,17,Jits_Phase_5,2,5,80,127,2037679412
84,18,17,Jits_Phase_5,3,5,63,98,2037700376
84,18,17,Jits_Phase_5,0,1,48,34,2038124280
84,18,17,Jits_Phase_5,1,5,63,98,2038130232
84,18,17,Jits_Phase_5,2,5,56,103,2038140352
84,18,17,Jits_Phase_5,3,5,80,127,2038199544
84,18,17,Jits_Phase_5,0,5,56,103,2038629836
84,18,17,Jits_Phase_5,1,1,48,38,2038642616
84,18,17,Jits_Phase_5,2,5,63,98,2038700408
84,18,17,Jits_Phase_5,3,5,80,127,2038719744
84,18,17,Jits_Phase_5,0,1,48,41,2039129308
84,18,17,Jits_Phase_5,1,5,56,103,2039130644
84,18,17,Jits_Phase_5,2,5,63,98,2039160320
84,18,17,Jits_Phase_5,3,5,80,127,2039200256
84,18,17,Jits_Phase_5,0,5,63,98,2039620212
84,18,17,Jits_Phase_5,1,1,48,39,2039628732
84,18,17,Jits_Phase_5,2,5,56,103,2039670332
84,18,17,Jits_Phase_5,3,5,80,127,2039680304
84,18,17,Jits_Phase_5,0,1,48,33,2040142184
84,18,17,Jits_Phase_5,1,5,56,103,2040159516
84,18,17,Jits_Phase_5,2,5,63,98,2040209716
84,18,17,Jits_Phase_5,3,5,80,127,2040220136
84,18,17,Jits_Phase_5,0,1,48,32,2040626196
84,18,17,Jits_Phase_5,1,5,56,103,2040629900
84,18,17,Jits_Phase_5,2,5,63,98,2040639796
84,18,17,Jits_Phase_5,3,5,80,127,2040719812
84,18,17,Jits_Phase_5,0,9999,9999,9999,1956377700
84,18,17,Jits_Phase_5,1,9999,9999,9999,1956877436
84,18,17,Jits_Phase_5,2,9999,9999,9999,1957377124
84,18,17,Jits_Phase_5,3,9999,9999,9999,1957877844
84,18,17,Jits_Phase_5,4,9999,9999,9999,1958377596
84,18,17,Jits_Phase_5,5,9999,9999,9999,1958877276
84,18,17,Jits_Phase_5,6,9999,9999,9999,1959378000
84,18,17,Jits_Phase_5,7,9999,9999,9999,1959877688
84,18,17,Jits_Phase_5,8,9999,9999,9999,1960377452
84,18,17,Jits_Phase_5,9,9999,9999,9999,1960877144
84,18,17,Jits_Phase_5,10,9999,9999,9999,1961377880
84,18,17,Jits_Phase_5,11,9999,9999,9999,1961877568
84,18,17,Jits_Phase_5,12,9999,9999,9999,1962377316
84,18,17,Jits_Phase_5,13,9999,9999,9999,1962878036
84,18,17,Jits_Phase_5,14,9999,9999,9999,1963377784
84,18,17,Jits_Phase_5,15,9999,9999,9999,1963877460
84,18,17,Jits_Phase_5,16,9999,9999,9999,1964377208
84,18,17,Jits_Phase_5,17,9999,9999,9999,1964877936
84,18,17,Jits_Phase_5,18,9999,9999,9999,1965377624
84,18,17,Jits_Phase_5,19,9999,9999,9999,1965877304
84,18,17,Jits_Phase_5,20,9999,9999,9999,1966378076
84,18,17,Jits_Phase_5,21,9999,9999,9999,1966877824
84,18,17,Jits_Phase_5,22,9999,9999,9999,1967377512
84,18,17,Jits_Phase_5,23,9999,9999,9999,1967877248
84,18,17,Jits_Phase_5,24,9999,9999,9999,1968377912
84,18,17,Jits_Phase_5,25,9999,9999,9999,1968877652
84,18,17,Jits_Phase_5,26,9999,9999,9999,1969377404
84,18,17,Jits_Phase_5,27,9999,9999,9999,1969878116
84,18,17,Jits_Phase_5,28,9999,9999,9999,1970388072
84,18,17,Jits_Phase_5,29,9999,9999,9999,1970887744
84,18,17,Jits_Phase_5,30,9999,9999,9999,1971377232
84,18,17,Jits_Phase_5,31,9999,9999,9999,1971877960
84,18,17,Jits_Phase_5,32,9999,9999,9999,1972377716
84,18,17,Jits_Phase_5,33,9999,9999,9999,1972877392
84,18,17,Jits_Phase_5,34,9999,9999,9999,1973377140
84,18,17,Jits_Phase_5,35,9999,9999,9999,1973877864
84,18,17,Jits_Phase_5,36,9999,9999,9999,1974377528
84,18,17,Jits_Phase_5,37,9999,9999,9999,1974877276
84,18,17,Jits_Phase_5,38,9999,9999,9999,1975378000
84,18,17,Jits_Phase_5,39,9999,9999,9999,1975877752
84,18,17,Jits_Phase_5,40,9999,9999,9999,1976377428
84,18,17,Jits_Phase_5,41,9999,9999,9999,1976877176
84,18,17,Jits_Phase_5,42,9999,9999,9999,1977377908
84,18,17,Jits_Phase_5,43,9999,9999,9999,1977877580
84,18,17,Jits_Phase_5,44,9999,9999,9999,1978377304
84,18,17,Jits_Phase_5,45,9999,9999,9999,1978878016
84,18,17,Jits_Phase_5,46,9999,9999,9999,1979377764
84,18,17,Jits_Phase_5,47,9999,9999,9999,1979877444
84,18,17,Jits_Phase_5,48,9999,9999,9999,1980387384
84,18,17,Jits_Phase_5,49,9999,9999,9999,1980887156
84,18,17,Jits_Phase_5,50,9999,9999,9999,1981387868
84,18,17,Jits_Phase_5,51,9999,9999,9999,1981887560
84,18,17,Jits_Phase_5,52,9999,9999,9999,1982387324
84,18,17,Jits_Phase_5,53,9999,9999,9999,1982888064
84,18,17,Jits_Phase_5,54,9999,9999,9999,1983387740
84,18,17,Jits_Phase_5,55,9999,9999,9999,1983887432
84,18,17,Jits_Phase_5,56,9999,9999,9999,1984387192
84,18,17,Jits_Phase_5,57,9999,9999,9999,1984887924
84,18,17,Jits_Phase_5,58,9999,9999,9999,1985387612
84,18,17,Jits_Phase_5,59,9999,9999,9999,1985887288
84,18,17,Jits_Phase_5,60,9999,9999,9999,1986388028
84,18,17,Jits_Phase_5,61,9999,9999,9999,1986887776
84,18,17,Jits_Phase_5,62,9999,9999,9999,1987387464
84,18,17,Jits_Phase_5,63,9999,9999,9999,1987887208
84,18,17,Jits_Phase_5,64,9999,9999,9999,1988407408
84,18,17,Jits_Phase_5,65,9999,9999,9999,1988907096
84,18,17,Jits_Phase_5,66,9999,9999,9999,1989407836
84,18,17,Jits_Phase_5,67,9999,9999,9999,1989907576
84,18,17,Jits_Phase_5,68,9999,9999,9999,1990407244
84,18,17,Jits_Phase_5,69,9999,9999,9999,1990908032
84,18,17,Jits_Phase_5,70,9999,9999,9999,1991407700
84,18,17,Jits_Phase_5,71,9999,9999,9999,1991907388
84,18,17,Jits_Phase_5,72,9999,9999,9999,1992407140
84,18,17,Jits_Phase_5,73,9999,9999,9999,1992907864
84,18,17,Jits_Phase_5,74,9999,9999,9999,1993407616
84,18,17,Jits_Phase_5,75,9999,9999,9999,1993907284
84,18,17,Jits_Phase_5,76,9999,9999,9999,1994408028
84,18,17,Jits_Phase_5,77,9999,9999,9999,1994907704
84,18,17,Jits_Phase_5,78,9999,9999,9999,1995407472
84,18,17,Jits_Phase_5,79,9999,9999,9999,1995907152
84,18,17,Jits_Phase_5,80,9999,9999,9999,1996407872
84,18,17,Jits_Phase_5,81,9999,9999,9999,1996887100
84,18,17,Jits_Phase_5,82,9999,9999,9999,1997387836
84,18,17,Jits_Phase_5,83,9999,9999,9999,1997887588
84,18,17,Jits_Phase_5,84,9999,9999,9999,1998387268
84,18,17,Jits_Phase_5,85,9999,9999,9999,1998888056
84,18,17,Jits_Phase_5,86,9999,9999,9999,1999387728
84,18,17,Jits_Phase_5,87,9999,9999,9999,1999887420
84,18,17,Jits_Phase_5,88,9999,9999,9999,2000387144
84,18,17,Jits_Phase_5,89,9999,9999,9999,2000887864
84,18,17,Jits_Phase_5,90,9999,9999,9999,2001387612
84,18,17,Jits_Phase_5,91,9999,9999,9999,2001887356
84,18,17,Jits_Phase_5,92,9999,9999,9999,2002388068
84,18,17,Jits_Phase_5,93,9999,9999,9999,2002887744
84,18,17,Jits_Phase_5,94,9999,9999,9999,2003387492
84,18,17,Jits_Phase_5,95,9999,9999,9999,2003887164
84,18,17,Jits_Phase_5,96,9999,9999,9999,2004387900
84,18,17,Jits_Phase_5,97,9999,9999,9999,2004837460
84,18,17,Jits_Phase_5,98,9999,9999,9999,2005337208
84,18,17,Jits_Phase_5,99,9999,9999,9999,2005837944
84,18,17,Jits_Phase_5,100,9999,9999,9999,2006337616
84,18,17,Jits_Phase_5,101,9999,9999,9999,2006837308
84,18,17,Jits_Phase_5,102,9999,9999,9999,2007338108
84,18,17,Jits_Phase_5,103,9999,9999,9999,2007837788
84,18,17,Jits_Phase_5,104,9999,9999,9999,2008337536
84,18,17,Jits_Phase_5,105,9999,9999,9999,2008837180
84,18,17,Jits_Phase_5,106,9999,9999,9999,2009337968
84,18,17,Jits_Phase_5,107,9999,9999,9999,2009837644
84,18,17,Jits_Phase_5,108,9999,9999,9999,2010337388
84,18,17,Jits_Phase_5,109,9999,9999,9999,2010838124
84,18,17,Jits_Phase_5,110,9999,9999,9999,2011348080
84,18,17,Jits_Phase_5,111,9999,9999,9999,2011847772
84,18,17,Jits_Phase_5,112,9999,9999,9999,2012347520
84,18,17,Jits_Phase_5,113,9999,9999,9999,2012847212
84,18,17,Jits_Phase_5,114,9999,9999,9999,2013398128
84,18,17,Jits_Phase_5,115,9999,9999,9999,2013908036
84,18,17,Jits_Phase_5,116,9999,9999,9999,2014407788
84,18,17,Jits_Phase_5,117,9999,9999,9999,2014907460
84,18,17,Jits_Phase_5,118,9999,9999,9999,2015407212
84,18,17,Jits_Phase_5,119,9999,9999,9999,2015907932
84,18,17,Jits_Phase_5,120,9999,9999,9999,2016407676
84,18,17,Jits_Phase_5,121,9999,9999,9999,2016907352
84,18,17,Jits_Phase_5,122,9999,9999,9999,2017408072
84,18,17,Jits_Phase_5,123,9999,9999,9999,2017918008
84,18,17,Jits_Phase_5,124,9999,9999,9999,2018417756
84,18,17,Jits_Phase_5,125,9999,9999,9999,2018917488
84,18,17,Jits_Phase_5,126,9999,9999,9999,2019417168
84,18,17,Jits_Phase_5,127,9999,9999,9999,2019917884
84,18,17,Jits_Phase_5,128,9999,9999,9999,2020417616
84,18,17,Jits_Phase_5,129,9999,9999,9999,2020917368
84,18,17,Jits_Phase_5,130,9999,9999,9999,2021418100
84,18,17,Jits_Phase_5,131,9999,9999,9999,2022017116
84,18,17,Jits_Phase_5,132,9999,9999,9999,2022517832
84,18,17,Jits_Phase_5,133,9999,9999,9999,2023017584
84,18,17,Jits_Phase_5,134,9999,9999,9999,2023517252
84,18,17,Jits_Phase_5,135,9999,9999,9999,2024018048
84,18,17,Jits_Phase_5,136,9999,9999,9999,2024517740
84,18,17,Jits_Phase_5,137,9999,9999,9999,2025017412
84,18,17,Jits_Phase_5,138,9999,9999,9999,2025517176
84,18,17,Jits_Phase_5,139,9999,9999,9999,2026017916
84,18,17,Jits_Phase_5,140,9999,9999,9999,2026517608
84,18,17,Jits_Phase_5,141,9999,9999,9999,2027017272
84,18,17,Jits_Phase_5,142,9999,9999,9999,2027518080
84,18,17,Jits_Phase_5,143,9999,9999,9999,2028017772
84,18,17,Jits_Phase_5,144,9999,9999,9999,2028517440
84,18,17,Jits_Phase_5,145,9999,9999,9999,2029017192
84,18,17,Jits_Phase_5,146,9999,9999,9999,2029517924
84,18,17,Jits_Phase_5,147,9999,9999,9999,2030017600
84,18,17,Jits_Phase_5,148,9999,9999,9999,2030517344
84,18,17,Jits_Phase_5,149,9999,9999,9999,2031018084
84,18,17,Jits_Phase_5,150,9999,9999,9999,2031417456
84,18,17,Jits_Phase_5,151,9999,9999,9999,2031917128
84,18,17,Jits_Phase_5,152,9999,9999,9999,2032417912
84,18,17,Jits_Phase_5,153,9999,9999,9999,2032917588
84,18,17,Jits_Phase_5,154,9999,9999,9999,2033417312
84,18,17,Jits_Phase_5,155,9999,9999,9999,2033918024
84,18,17,Jits_Phase_5,156,9999,9999,9999,2034417764
84,18,17,Jits_Phase_5,157,9999,9999,9999,2034917504
84,18,17,Jits_Phase_5,158,9999,9999,9999,2035417180
84,18,17,Jits_Phase_5,159,9999,9999,9999,2035917900
84,18,17,Jits_Phase_5,160,9999,9999,9999,2036417592
84,18,17,Jits_Phase_5,161,9999,9999,9999,2036917344
84,18,17,Jits_Phase_5,162,9999,9999,9999,2037418064
84,18,17,Jits_Phase_5,163,9999,9999,9999,2037917756
84,18,17,Jits_Phase_5,164,9999,9999,9999,2038417504
84,18,17,Jits_Phase_5,165,9999,9999,9999,2038917184
84,18,17,Jits_Phase_5,166,9999,9999,9999,2039417920
84,18,17,Jits_Phase_5,167,9999,9999,9999,2039917672
84,18,17,Jits_Phase_5,168,9999,9999,9999,2040417352
84,18,17,Jits_Phase_5,169,9999,9999,9999,2040918072
84,19,15,Jits_Phase_8,0,5,56,103,2049737192
84,19,15,Jits_Phase_8,1,5,63,98,2049740140
84,19,15,Jits_Phase_8,2,5,80,127,2049743192
84,19,15,Jits_Phase_8,0,1,48,27,2050304912
84,19,15,Jits_Phase_8,1,5,56,103,2050536812
84,19,15,Jits_Phase_8,2,5,63,98,2050539908
84,19,15,Jits_Phase_8,3,5,80,127,2050542884
84,19,15,Jits_Phase_8,0,1,48,27,2051263724
84,19,15,Jits_Phase_8,1,5,80,127,2051277168
84,19,15,Jits_Phase_8,2,5,63,98,2051367236
84,19,15,Jits_Phase_8,3,5,56,103,2051376460
84,19,15,Jits_Phase_8,0,5,56,103,2052097460
84,19,15,Jits_Phase_8,1,5,63,98,2052106536
84,19,15,Jits_Phase_8,2,1,48,31,2052122860
84,19,15,Jits_Phase_8,3,5,80,127,2052196832
84,19,15,Jits_Phase_8,0,5,63,98,2052866288
84,19,15,Jits_Phase_8,1,5,80,127,2052897112
84,19,15,Jits_Phase_8,2,1,48,34,2052909968
84,19,15,Jits_Phase_8,3,5,56,103,2052927000
84,19,15,Jits_Phase_8,0,1,48,35,2053624956
84,19,15,Jits_Phase_8,1,5,56,103,2053667180
84,19,15,Jits_Phase_8,2,5,80,127,2053766444
84,19,15,Jits_Phase_8,3,5,63,98,2053816864
84,19,15,Jits_Phase_8,0,5,56,103,2054466948
84,19,15,Jits_Phase_8,1,1,48,38,2054470068
84,19,15,Jits_Phase_8,2,5,80,127,2054517072
84,19,15,Jits_Phase_8,3,5,63,98,2054556936
84,19,15,Jits_Phase_8,0,1,48,35,2055225416
84,19,15,Jits_Phase_8,1,5,80,127,2055297360
84,19,15,Jits_Phase_8,2,5,63,98,2055327020
84,19,15,Jits_Phase_8,3,5,56,103,2055396848
84,19,15,Jits_Phase_8,0,1,48,34,2056057752
84,19,15,Jits_Phase_8,1,5,63,98,2056126936
84,19,15,Jits_Phase_8,2,5,56,103,2056156668
84,19,15,Jits_Phase_8,3,5,80,127,2056216932
84,19,15,Jits_Phase_8,0,5,56,103,2056867140
84,19,15,Jits_Phase_8,1,5,80,127,2056870204
84,19,15,Jits_Phase_8,2,1,48,32,2056888688
84,19,15,Jits_Phase_8,3,5,63,98,2056986936
84,19,15,Jits_Phase_8,0,1,48,35,2057698184
84,19,15,Jits_Phase_8,1,5,56,103,2057746932
84,19,15,Jits_Phase_8,2,5,80,127,2057786800
84,19,15,Jits_Phase_8,3,5,63,98,2057796832
84,19,15,Jits_Phase_8,0,1,48,34,2058468652
84,19,15,Jits_Phase_8,1,5,56,103,2058507036
84,19,15,Jits_Phase_8,2,5,80,127,2058527072
84,19,15,Jits_Phase_8,3,5,63,98,2058607000
84,19,15,Jits_Phase_8,0,1,48,36,2059295272
84,19,15,Jits_Phase_8,1,5,80,127,2059297008
84,19,15,Jits_Phase_8,2,5,56,103,2059396568
84,19,15,Jits_Phase_8,3,5,63,98,2059406760
84,19,15,Jits_Phase_8,0,5,63,98,2060067180
84,19,15,Jits_Phase_8,1,1,48,33,2060082584
84,19,15,Jits_Phase_8,2,5,80,127,2060126892
84,19,15,Jits_Phase_8,3,5,56,103,2060136940
84,19,15,Jits_Phase_8,0,5,56,103,2060866936
84,19,15,Jits_Phase_8,1,1,48,34,2060871476
84,19,15,Jits_Phase_8,2,5,63,98,2060936760
84,19,15,Jits_Phase_8,3,5,80,127,2060939900
84,19,15,Jits_Phase_8,0,1,48,35,2061662832
84,19,15,Jits_Phase_8,1,5,63,98,2061697256
84,19,15,Jits_Phase_8,2,5,56,103,2061746708
84,19,15,Jits_Phase_8,3,5,80,127,2061749848
84,19,15,Jits_Phase_8,0,5,56,103,2062457224
84,19,15,Jits_Phase_8,1,5,80,127,2062460440
84,19,15,Jits_Phase_8,2,1,48,36,2062499448
84,19,15,Jits_Phase_8,3,5,63,98,2062547272
84,19,15,Jits_Phase_8,0,1,48,28,2063256128
84,19,15,Jits_Phase_8,1,5,63,98,2063296760
84,19,15,Jits_Phase_8,2,5,56,103,2063387128
84,19,15,Jits_Phase_8,3,5,80,127,2063416576
84,19,15,Jits_Phase_8,0,5,56,103,2064087832
84,19,15,Jits_Phase_8,1,1,48,34,2064144560
84,19,15,Jits_Phase_8,2,5,63,98,2064186904
84,19,15,Jits_Phase_8,3,5,80,127,2064216432
84,19,15,Jits_Phase_8,0,1,48,35,2064903680
84,19,15,Jits_Phase_8,1,5,63,98,2064906712
84,19,15,Jits_Phase_8,2,5,56,103,2064916712
84,19,15,Jits_Phase_8,3,5,80,127,2065007048
84,19,15,Jits_Phase_8,0,1,48,42,2065720924
84,19,15,Jits_Phase_8,1,5,63,98,2065726800
84,19,15,Jits_Phase_8,2,5,56,103,2065806668
84,19,15,Jits_Phase_8,3,5,80,127,2065809736
84,19,15,Jits_Phase_8,0,5,80,127,2066486624
84,19,15,Jits_Phase_8,1,5,63,98,2066507084
84,19,15,Jits_Phase_8,2,1,48,38,2066541364
84,19,15,Jits_Phase_8,3,5,56,103,2066566940
84,19,15,Jits_Phase_8,0,1,48,31,2067272048
84,19,15,Jits_Phase_8,1,5,56,103,2067327516
84,19,15,Jits_Phase_8,2,5,63,98,2067346700
84,19,15,Jits_Phase_8,3,5,80,127,2067349996
84,19,15,Jits_Phase_8,0,5,63,98,2068066660
84,19,15,Jits_Phase_8,1,1,48,36,2068087164
84,19,15,Jits_Phase_8,2,5,80,127,2068146824
84,19,15,Jits_Phase_8,3,5,56,103,2068156724
84,19,15,Jits_Phase_8,0,1,48,40,2068885664
84,19,15,Jits_Phase_8,1,5,63,98,2068887160
84,19,15,Jits_Phase_8,2,5,56,103,2068907624
84,19,15,Jits_Phase_8,3,5,80,127,2068956700
84,19,15,Jits_Phase_8,0,1,48,37,2069663656
84,19,15,Jits_Phase_8,1,5,80,127,2069686696
84,19,15,Jits_Phase_8,2,5,63,98,2069726636
84,19,15,Jits_Phase_8,3,5,56,103,2069746944
84,19,15,Jits_Phase_8,0,1,48,41,2070484764
84,19,15,Jits_Phase_8,1,5,56,103,2070527432
84,19,15,Jits_Phase_8,2,5,63,98,2070536656
84,19,15,Jits_Phase_8,3,5,80,127,2070556964
84,19,15,Jits_Phase_8,0,5,56,103,2071256520
84,19,15,Jits_Phase_8,1,1,48,39,2071274932
84,19,15,Jits_Phase_8,2,5,63,98,2071346452
84,19,15,Jits_Phase_8,3,5,80,127,2071406896
84,19,15,Jits_Phase_8,0,1,48,39,2072083320
84,19,15,Jits_Phase_8,1,5,80,127,2072086952
84,19,15,Jits_Phase_8,2,5,56,103,2072097224
84,19,15,Jits_Phase_8,3,5,63,98,2072166756
84,19,15,Jits_Phase_8,0,1,48,36,2072900616
84,19,15,Jits_Phase_8,1,5,63,98,2072917572
84,19,15,Jits_Phase_8,2,5,80,127,2073006572
84,19,15,Jits_Phase_8,3,5,56,103,2073016692
84,19,15,Jits_Phase_8,0,5,63,98,2073646772
84,19,15,Jits_Phase_8,1,5,80,127,2073696676
84,19,15,Jits_Phase_8,2,5,56,103,2073756992
84,19,15,Jits_Phase_8,3,1,48,39,2073761676
84,19,15,Jits_Phase_8,0,5,56,103,2074466600
84,19,15,Jits_Phase_8,1,1,48,24,2074482376
84,19,15,Jits_Phase_8,2,5,80,127,2074516800
84,19,15,Jits_Phase_8,3,5,63,98,2074537480
84,19,15,Jits_Phase_8,0,1,48,23,2075216148
84,19,15,Jits_Phase_8,1,5,56,103,2075236624
84,19,15,Jits_Phase_8,2,5,80,127,2075297088
84,19,15,Jits_Phase_8,3,5,63,98,2075366680
84,19,15,Jits_Phase_8,0,1,48,31,2076017544
84,19,15,Jits_Phase_8,1,5,56,103,2076036676
84,19,15,Jits_Phase_8,2,5,80,127,2076067324
84,19,15,Jits_Phase_8,3,5,63,98,2076096852
84,19,15,Jits_Phase_8,0,1,48,28,2076800288
84,19,15,Jits_Phase_8,1,5,56,103,2076877112
84,19,15,Jits_Phase_8,2,5,80,127,2076897028
84,19,15,Jits_Phase_8,3,5,63,98,2076957068
84,19,15,Jits_Phase_8,0,1,48,32,2077643792
84,19,15,Jits_Phase_8,1,5,80,127,2077756744
84,19,15,Jits_Phase_8,2,5,56,103,2077767016
84,19,15,Jits_Phase_8,3,5,63,98,2077777284
84,19,15,Jits_Phase_8,0,5,56,103,2078516672
84,19,15,Jits_Phase_8,1,1,48,31,2078549384
84,19,15,Jits_Phase_8,2,5,80,127,2078556456
84,19,15,Jits_Phase_8,3,5,63,98,2078587324
84,19,15,Jits_Phase_8,0,5,56,103,2079286708
84,19,15,Jits_Phase_8,1,5,63,98,2079317504
84,19,15,Jits_Phase_8,2,1,48,34,2079342196
84,19,15,Jits_Phase_8,3,5,80,127,2079357508
84,19,15,Jits_Phase_8,0,5,80,127,2080037256
84,19,15,Jits_Phase_8,1,5,63,98,2080087384
84,19,15,Jits_Phase_8,2,5,56,103,2080106872
84,19,15,Jits_Phase_8,3,1,48,32,2080123692
84,19,15,Jits_Phase_8,0,5,56,103,2080866540
84,19,15,Jits_Phase_8,1,1,48,31,2080901272
84,19,15,Jits_Phase_8,2,5,80,127,2080937556
84,19,15,Jits_Phase_8,3,5,63,98,2080996660
84,19,15,Jits_Phase_8,0,5,80,127,2081666536
84,19,15,Jits_Phase_8,1,1,48,35,2081701864
84,19,15,Jits_Phase_8,2,5,63,98,2081756664
84,19,15,Jits_Phase_8,3,5,56,103,2081776900
84,19,15,Jits_Phase_8,0,5,63,98,2082486540
84,19,15,Jits_Phase_8,1,5,56,103,2082507372
84,19,15,Jits_Phase_8,2,1,48,32,2082536644
84,19,15,Jits_Phase_8,3,5,80,127,2082546928
84,19,15,Jits_Phase_8,0,5,80,127,2083246440
84,19,15,Jits_Phase_8,1,1,48,33,2083257804
84,19,15,Jits_Phase_8,2,5,63,98,2083266892
84,19,15,Jits_Phase_8,3,5,56,103,2083346784
84,19,15,Jits_Phase_8,0,5,63,98,2084036840
84,19,15,Jits_Phase_8,1,1,48,36,2084086340
84,19,15,Jits_Phase_8,2,5,56,103,2084146620
84,19,15,Jits_Phase_8,3,5,80,127,2084149540
84,19,15,Jits_Phase_8,0,1,48,34,2084788680
84,19,15,Jits_Phase_8,1,5,63,98,2084857408
84,19,15,Jits_Phase_8,2,5,56,103,2084866408
84,19,15,Jits_Phase_8,3,5,80,127,2084869472
84,19,15,Jits_Phase_8,0,1,48,37,2085628132
84,19,15,Jits_Phase_8,1,5,56,103,2085636472
84,19,15,Jits_Phase_8,2,5,80,127,2085757408
84,19,15,Jits_Phase_8,3,5,63,98,2085797268
84,19,15,Jits_Phase_8,0,1,48,37,2086446500
84,19,15,Jits_Phase_8,1,5,56,103,2086456636
84,19,15,Jits_Phase_8,2,5,80,127,2086536508
84,19,15,Jits_Phase_8,3,5,63,98,2086557320
84,19,15,Jits_Phase_8,0,5,56,103,2087256468
84,19,15,Jits_Phase_8,1,1,48,33,2087275556
84,19,15,Jits_Phase_8,2,5,63,98,2087367048
84,19,15,Jits_Phase_8,3,5,80,127,2087371220
84,19,15,Jits_Phase_8,0,5,56,103,2088097292
84,19,15,Jits_Phase_8,1,1,48,40,2088107088
84,19,15,Jits_Phase_8,2,5,80,127,2088126960
84,19,15,Jits_Phase_8,3,5,63,98,2088147272
84,19,15,Jits_Phase_8,0,5,63,98,2088886576
84,19,15,Jits_Phase_8,1,5,56,103,2088896772
84,19,15,Jits_Phase_8,2,5,80,127,2088907340
84,19,15,Jits_Phase_8,3,1,48,41,2088936232
84,19,15,Jits_Phase_8,0,5,80,127,2089677112
84,19,15,Jits_Phase_8,1,1,48,37,2089716124
84,19,15,Jits_Phase_8,2,5,56,103,2089727380
84,19,15,Jits_Phase_8,3,5,63,98,2089767268
84,19,15,Jits_Phase_8,0,5,80,127,2090497484
84,19,15,Jits_Phase_8,1,5,63,98,2090516700
84,19,15,Jits_Phase_8,2,1,48,42,2090535556
84,19,15,Jits_Phase_8,3,5,56,103,2090567264
84,19,15,Jits_Phase_8,0,1,48,35,2091298828
84,19,15,Jits_Phase_8,1,5,80,127,2091307316
84,19,15,Jits_Phase_8,2,5,56,103,2091337212
84,19,15,Jits_Phase_8,3,5,63,98,2091406656
84,19,15,Jits_Phase_8,0,1,48,36,2092084728
84,19,15,Jits_Phase_8,1,5,56,103,2092157272
84,19,15,Jits_Phase_8,2,5,80,127,2092166496
84,19,15,Jits_Phase_8,3,5,63,98,2092206420
84,19,15,Jits_Phase_8,0,5,56,103,2092867060
84,19,15,Jits_Phase_8,1,5,63,98,2092887296
84,19,15,Jits_Phase_8,2,1,48,33,2092909820
84,19,15,Jits_Phase_8,3,5,80,127,2092957264
84,19,15,Jits_Phase_8,0,1,48,28,2093638328
84,19,15,Jits_Phase_8,1,5,63,98,2093687200
84,19,15,Jits_Phase_8,2,5,80,127,2093746532
84,19,15,Jits_Phase_8,3,5,56,103,2093767212
84,19,15,Jits_Phase_8,0,5,80,127,2094476704
84,19,15,Jits_Phase_8,1,5,56,103,2094507500
84,19,15,Jits_Phase_8,2,1,48,29,2094516396
84,19,15,Jits_Phase_8,3,5,63,98,2094537168
84,19,15,Jits_Phase_8,0,1,48,35,2095249844
84,19,15,Jits_Phase_8,1,5,56,103,2095277440
84,19,15,Jits_Phase_8,2,5,63,98,2095336784
84,19,15,Jits_Phase_8,3,5,80,127,2095397332
84,19,15,Jits_Phase_8,0,5,80,127,2096096684
84,19,15,Jits_Phase_8,1,5,56,103,2096117072
84,19,15,Jits_Phase_8,2,1,48,35,2096121832
84,19,15,Jits_Phase_8,3,5,63,98,2096186916
84,19,15,Jits_Phase_8,0,5,80,127,2096897356
84,19,15,Jits_Phase_8,1,5,63,98,2096916944
84,19,15,Jits_Phase_8,2,5,56,103,2096946468
84,19,15,Jits_Phase_8,3,1,48,30,2096958276
84,19,15,Jits_Phase_8,0,5,80,127,2097687036
84,19,15,Jits_Phase_8,1,5,63,98,2097707276
84,19,15,Jits_Phase_8,2,1,48,36,2097759536
84,19,15,Jits_Phase_8,3,5,56,103,2097766980
84,19,15,Jits_Phase_8,0,5,80,127,2098486504
84,19,15,Jits_Phase_8,1,1,48,36,2098524620
84,19,15,Jits_Phase_8,2,5,56,103,2098587416
84,19,15,Jits_Phase_8,3,5,63,98,2098616792
84,19,15,Jits_Phase_8,0,1,48,26,2099248636
84,19,15,Jits_Phase_8,1,5,63,98,2099277132
84,19,15,Jits_Phase_8,2,5,80,127,2099327332
84,19,15,Jits_Phase_8,3,5,56,103,2099347028
84,19,15,Jits_Phase_8,0,1,48,32,2100033988
84,19,15,Jits_Phase_8,1,5,80,127,2100117036
84,19,15,Jits_Phase_8,2,5,56,103,2100146396
84,19,15,Jits_Phase_8,3,5,63,98,2100149764
84,19,15,Jits_Phase_8,0,1,48,28,2100880572
84,19,15,Jits_Phase_8,1,5,63,98,2100966984
84,19,15,Jits_Phase_8,2,5,56,103,2101006708
84,19,15,Jits_Phase_8,3,5,80,127,2101027168
84,19,15,Jits_Phase_8,0,1,48,33,2101713292
84,19,15,Jits_Phase_8,1,5,80,127,2101726660
84,19,15,Jits_Phase_8,2,5,63,98,2101806560
84,19,15,Jits_Phase_8,3,5,56,103,2101847528
84,19,15,Jits_Phase_8,0,5,63,98,2102546904
84,19,15,Jits_Phase_8,1,1,48,27,2102597152
84,19,15,Jits_Phase_8,2,5,80,127,2102626696
84,19,15,Jits_Phase_8,3,5,56,103,2102647080
84,19,15,Jits_Phase_8,0,5,56,103,2103386452
84,19,15,Jits_Phase_8,1,5,63,98,2103396648
84,19,15,Jits_Phase_8,2,1,48,31,2103400740
84,19,15,Jits_Phase_8,3,5,80,127,2103436800
84,19,15,Jits_Phase_8,0,5,56,103,2104107328
84,19,15,Jits_Phase_8,1,5,80,127,2104110468
84,19,15,Jits_Phase_8,2,1,48,32,2104171128
84,19,15,Jits_Phase_8,3,5,63,98,2104246528
84,19,15,Jits_Phase_8,0,5,56,103,2104897120
84,19,15,Jits_Phase_8,1,1,48,22,2104959652
84,19,15,Jits_Phase_8,2,5,63,98,2104986948
84,19,15,Jits_Phase_8,3,5,80,127,2105056480
84,19,15,Jits_Phase_8,0,1,48,26,2105707652
84,19,15,Jits_Phase_8,1,5,63,98,2105776372
84,19,15,Jits_Phase_8,2,5,80,127,2105779968
84,19,15,Jits_Phase_8,3,5,56,103,2105837052
84,19,15,Jits_Phase_8,0,1,48,24,2106555656
84,19,15,Jits_Phase_8,1,5,80,127,2106617112
84,19,15,Jits_Phase_8,2,5,56,103,2106636772
84,19,15,Jits_Phase_8,3,5,63,98,2106646968
84,19,15,Jits_Phase_8,0,5,56,103,2107326828
84,19,15,Jits_Phase_8,1,5,63,98,2107337024
84,19,15,Jits_Phase_8,2,5,80,127,2107406876
84,19,15,Jits_Phase_8,3,1,48,24,2107417192
84,19,15,Jits_Phase_8,0,1,48,20,2108086780
84,19,15,Jits_Phase_8,1,5,80,127,2108126592
84,19,15,Jits_Phase_8,2,5,56,103,2108176744
84,19,15,Jits_Phase_8,3,5,63,98,2108227000
84,19,15,Jits_Phase_8,0,1,48,27,2108947776
84,19,15,Jits_Phase_8,1,5,56,103,2109007212
84,19,15,Jits_Phase_8,2,5,63,98,2109016360
84,19,15,Jits_Phase_8,3,5,80,127,2109057404
84,19,15,Jits_Phase_8,0,1,48,23,2109745244
84,19,15,Jits_Phase_8,1,5,56,103,2109746664
84,19,15,Jits_Phase_8,2,5,63,98,2109786828
84,19,15,Jits_Phase_8,3,5,80,127,2109836732
84,19,15,Jits_Phase_8,0,5,80,127,2110507324
84,19,15,Jits_Phase_8,1,1,48,25,2110538912
84,19,15,Jits_Phase_8,2,5,56,103,2110556620
84,19,15,Jits_Phase_8,3,5,63,98,2110577004
84,19,15,Jits_Phase_8,0,5,80,127,2111317348
84,19,15,Jits_Phase_8,1,1,48,24,2111323684
84,19,15,Jits_Phase_8,2,5,63,98,2111376832
84,19,15,Jits_Phase_8,3,5,56,103,2111456760
84,19,15,Jits_Phase_8,0,5,80,127,2112096892
84,19,15,Jits_Phase_8,1,5,56,103,2112136608
84,19,15,Jits_Phase_8,2,5,63,98,2112156992
84,19,15,Jits_Phase_8,3,1,48,27,2112180412
84,19,15,Jits_Phase_8,0,5,56,103,2112946704
84,19,15,Jits_Phase_8,1,5,80,127,2112956748
84,19,15,Jits_Phase_8,2,1,48,25,2112960768
84,19,15,Jits_Phase_8,3,5,63,98,2112996828
84,19,15,Jits_Phase_8,0,1,48,27,2113716176
84,19,15,Jits_Phase_8,1,5,56,103,2113816832
84,19,15,Jits_Phase_8,2,5,63,98,2113856844
84,19,15,Jits_Phase_8,3,5,80,127,2113860132
84,19,15,Jits_Phase_8,0,5,63,98,2114486816
84,19,15,Jits_Phase_8,1,5,80,127,2114526532
84,19,15,Jits_Phase_8,2,1,48,24,2114553840
84,19,15,Jits_Phase_8,3,5,56,103,2114597276
84,19,15,Jits_Phase_8,0,5,63,98,2115256684
84,19,15,Jits_Phase_8,1,1,48,27,2115259804
84,19,15,Jits_Phase_8,2,5,56,103,2115337016
84,19,15,Jits_Phase_8,3,5,80,127,2115396940
84,19,15,Jits_Phase_8,0,5,80,127,2116066624
84,19,15,Jits_Phase_8,1,1,48,29,2116068636
84,19,15,Jits_Phase_8,2,5,63,98,2116116844
84,19,15,Jits_Phase_8,3,5,56,103,2116146592
84,19,15,Jits_Phase_8,0,1,48,25,2116818704
84,19,15,Jits_Phase_8,1,5,56,103,2116857240
84,19,15,Jits_Phase_8,2,5,63,98,2116907472
84,19,15,Jits_Phase_8,3,5,80,127,2116916824
84,19,15,Jits_Phase_8,0,1,48,40,2117644712
84,19,15,Jits_Phase_8,1,5,56,103,2117667132
84,19,15,Jits_Phase_8,2,5,63,98,2117776732
84,19,15,Jits_Phase_8,3,5,80,127,2117797116
84,19,15,Jits_Phase_8,0,1,48,34,2118397092
84,19,15,Jits_Phase_8,1,5,63,98,2118466892
84,19,15,Jits_Phase_8,2,5,80,127,2118517076
84,19,15,Jits_Phase_8,3,5,56,103,2118607132
84,19,15,Jits_Phase_8,0,5,63,98,2119256616
84,19,15,Jits_Phase_8,1,1,48,37,2119263404
84,19,15,Jits_Phase_8,2,5,80,127,2119287036
84,19,15,Jits_Phase_8,3,5,56,103,2119377224
84,19,15,Jits_Phase_8,0,5,63,98,2120057196
84,19,15,Jits_Phase_8,1,1,48,35,2120060832
84,19,15,Jits_Phase_8,2,5,56,103,2120066636
84,19,15,Jits_Phase_8,3,5,80,127,2120166864
84,19,15,Jits_Phase_8,0,1,48,34,2120772920
84,19,15,Jits_Phase_8,1,5,63,98,2120957616
84,19,15,Jits_Phase_8,2,5,80,127,2120987096
84,19,15,Jits_Phase_8,3,5,56,103,2121016696
84,19,15,Jits_Phase_8,0,1,48,27,2121589472
84,19,15,Jits_Phase_8,1,5,80,127,2121776668
84,19,15,Jits_Phase_8,2,5,63,98,2121786788
84,19,15,Jits_Phase_8,3,5,56,103,2121816612
84,19,15,Jits_Phase_8,0,1,48,28,2122399428
84,19,15,Jits_Phase_8,1,5,80,127,2122476780
84,19,15,Jits_Phase_8,2,5,63,98,2122497820
84,19,15,Jits_Phase_8,3,5,56,103,2122546700
84,19,15,Jits_Phase_8,0,1,48,34,2123216272
84,19,15,Jits_Phase_8,1,5,63,98,2123307424
84,19,15,Jits_Phase_8,2,5,80,127,2123366828
84,19,15,Jits_Phase_8,3,5,56,103,2123387136
84,19,15,Jits_Phase_8,0,5,63,98,2124067184
84,19,15,Jits_Phase_8,1,1,48,30,2124075776
84,19,15,Jits_Phase_8,2,5,56,103,2124117528
84,19,15,Jits_Phase_8,3,5,80,127,2124126752
84,19,15,Jits_Phase_8,0,1,48,27,2124810032
84,19,15,Jits_Phase_8,1,5,56,103,2124896600
84,19,15,Jits_Phase_8,2,5,80,127,2124906928
84,19,15,Jits_Phase_8,3,5,63,98,2125007248
84,19,15,Jits_Phase_8,0,1,48,32,2125630992
84,19,15,Jits_Phase_8,1,5,80,127,2125656572
84,19,15,Jits_Phase_8,2,5,63,98,2125666768
84,19,15,Jits_Phase_8,3,5,56,103,2125817264
84,19,15,Jits_Phase_8,0,5,63,98,2126466448
84,19,15,Jits_Phase_8,1,1,48,36,2126488000
84,19,15,Jits_Phase_8,2,5,80,127,2126507576
84,19,15,Jits_Phase_8,3,5,56,103,2126587204
84,19,15,Jits_Phase_8,0,5,56,103,2127217052
84,19,15,Jits_Phase_8,1,5,80,127,2127317448
84,19,15,Jits_Phase_8,2,5,63,98,2127336860
84,19,15,Jits_Phase_8,3,1,48,32,2127343196
84,19,15,Jits_Phase_8,0,5,80,127,2128037208
84,19,15,Jits_Phase_8,1,5,56,103,2128046504
84,19,15,Jits_Phase_8,2,5,63,98,2128136660
84,19,15,Jits_Phase_8,3,1,48,33,2128144956
84,19,15,Jits_Phase_8,0,5,56,103,2128837056
84,19,15,Jits_Phase_8,1,5,63,98,2128856392
84,19,15,Jits_Phase_8,2,1,48,28,2128913244
84,19,15,Jits_Phase_8,3,5,80,127,2128937472
84,19,15,Jits_Phase_8,0,5,63,98,2129586412
84,19,15,Jits_Phase_8,1,5,56,103,2129676644
84,19,15,Jits_Phase_8,2,5,80,127,2129679712
84,19,15,Jits_Phase_8,3,1,48,36,2129758572
84,19,15,Jits_Phase_8,0,5,56,103,2130416952
84,19,15,Jits_Phase_8,1,5,80,127,2130477592
84,19,15,Jits_Phase_8,2,5,63,98,2130486592
84,19,15,Jits_Phase_8,3,1,48,25,2130490684
84,19,15,Jits_Phase_8,0,1,48,25,2131208848
84,19,15,Jits_Phase_8,1,5,80,127,2131267016
84,19,15,Jits_Phase_8,2,5,56,103,2131277584
84,19,15,Jits_Phase_8,3,5,63,98,2131280500
84,19,15,Jits_Phase_8,0,5,56,103,2132026688
84,19,15,Jits_Phase_8,1,5,80,127,2132036960
84,19,15,Jits_Phase_8,2,5,63,98,2132056444
84,19,15,Jits_Phase_8,3,1,48,23,2132167440
84,19,15,Jits_Phase_8,0,5,63,98,2132796640
84,19,15,Jits_Phase_8,1,5,80,127,2132857476
84,19,15,Jits_Phase_8,2,5,56,103,2132907676
84,19,15,Jits_Phase_8,0,1,48,22,2133398276
84,19,15,Jits_Phase_8,1,5,63,98,2133677328
84,19,15,Jits_Phase_8,2,5,56,103,2133686624
84,19,15,Jits_Phase_8,3,5,80,127,2133736900
84,19,15,Jits_Phase_8,0,1,48,23,2134332476
84,19,15,Jits_Phase_8,1,5,63,98,2134376860
84,19,15,Jits_Phase_8,2,5,80,127,2134397244
84,19,15,Jits_Phase_8,3,5,56,103,2134406392
84,19,15,Jits_Phase_8,0,5,63,98,2135176612
84,19,15,Jits_Phase_8,1,5,80,127,2135179756
84,19,15,Jits_Phase_8,2,1,48,25,2135190440
84,19,15,Jits_Phase_8,3,5,56,103,2135216544
84,19,15,Jits_Phase_8,0,1,48,31,2135989204
84,19,15,Jits_Phase_8,1,5,63,98,2136046848
84,19,15,Jits_Phase_8,2,5,80,127,2136076624
84,19,15,Jits_Phase_8,3,5,56,103,2136087704
84,19,15,Jits_Phase_8,0,5,56,103,2136796492
84,19,15,Jits_Phase_8,1,5,80,127,2136827212
84,19,15,Jits_Phase_8,2,1,48,28,2136828180
84,19,15,Jits_Phase_8,3,5,63,98,2136856832
84,19,15,Jits_Phase_8,0,1,48,32,2137611308
84,19,15,Jits_Phase_8,1,5,63,98,2137696524
84,19,15,Jits_Phase_8,2,5,56,103,2137736524
84,19,15,Jits_Phase_8,3,5,80,127,2137739516
84,19,15,Jits_Phase_8,0,5,80,127,2138397240
84,19,15,Jits_Phase_8,1,5,56,103,2138476960
84,19,15,Jits_Phase_8,2,1,48,33,2138484044
84,19,15,Jits_Phase_8,3,5,63,98,2138527228
84,19,15,Jits_Phase_8,0,5,80,127,2139177460
84,19,15,Jits_Phase_8,1,5,56,103,2139196724
84,19,15,Jits_Phase_8,2,5,63,98,2139286780
84,19,15,Jits_Phase_8,3,1,48,31,2139313268
84,19,15,Jits_Phase_8,0,5,80,127,2140017084
84,19,15,Jits_Phase_8,1,5,63,98,2140056876
84,19,15,Jits_Phase_8,2,1,48,34,2140065692
84,19,15,Jits_Phase_8,3,5,56,103,2140096808
84,19,15,Jits_Phase_8,0,5,63,98,2140827196
84,19,15,Jits_Phase_8,1,1,48,32,2140831816
84,19,15,Jits_Phase_8,2,5,80,127,2140887288
84,19,15,Jits_Phase_8,3,5,56,103,2140917332
84,19,15,Jits_Phase_8,0,1,48,36,2141631032
84,19,15,Jits_Phase_8,1,5,56,103,2141666652
84,19,15,Jits_Phase_8,2,5,80,127,2141697376
84,19,15,Jits_Phase_8,3,5,63,98,2141786468
84,19,15,Jits_Phase_8,0,1,48,31,2142441276
84,19,15,Jits_Phase_8,1,5,56,103,2142476624
84,19,15,Jits_Phase_8,2,5,80,127,2142587120
84,19,15,Jits_Phase_8,3,5,63,98,2142616796
84,19,15,Jits_Phase_8,0,1,48,38,2143282120
84,19,15,Jits_Phase_8,1,5,56,103,2143326508
84,19,15,Jits_Phase_8,2,5,63,98,2143387108
84,19,15,Jits_Phase_8,3,5,80,127,2143416560
84,19,15,Jits_Phase_8,0,5,56,103,2144096536
84,19,15,Jits_Phase_8,1,5,63,98,2144167192
84,19,15,Jits_Phase_8,2,1,48,36,2144174960
84,19,15,Jits_Phase_8,3,5,80,127,2144186744
84,19,15,Jits_Phase_8,0,5,80,127,2144866640
84,19,15,Jits_Phase_8,1,5,63,98,2144887248
84,19,15,Jits_Phase_8,2,5,56,103,2144937448
84,19,15,Jits_Phase_8,3,1,48,34,2145009716
84,19,15,Jits_Phase_8,0,5,63,98,2145686860
84,19,15,Jits_Phase_8,1,5,80,127,2145697128
84,19,15,Jits_Phase_8,2,5,56,103,2145747256
84,19,15,Jits_Phase_8,3,1,48,28,2145891152
84,19,15,Jits_Phase_8,0,5,63,98,2146486612
84,19,15,Jits_Phase_8,1,1,48,27,2146496328
84,19,15,Jits_Phase_8,2,5,80,127,2146557408
84,19,15,Jits_Phase_8,3,5,56,103,2146576696
84,19,15,Jits_Phase_8,0,5,63,98,2147317308
84,19,15,Jits_Phase_8,1,5,80,127,2147320448
84,19,15,Jits_Phase_8,2,1,48,21,2147368552
84,19,15,Jits_Phase_8,3,5,56,103,2147386708
84,19,15,Jits_Phase_8,0,5,80,127,2148066564
84,19,15,Jits_Phase_8,1,1,48,23,2148072824
84,19,15,Jits_Phase_8,2,5,56,103,2148087016
84,19,15,Jits_Phase_8,3,5,63,98,2148097512
84,19,15,Jits_Phase_8,0,5,56,103,2148886956
84,19,15,Jits_Phase_8,1,1,48,31,2148897948
84,19,15,Jits_Phase_8,2,5,63,98,2148977008
84,19,15,Jits_Phase_8,3,5,80,127,2148980296
84,19,15,Jits_Phase_8,0,5,80,127,2149657124
84,19,15,Jits_Phase_8,1,5,56,103,2149667172
84,19,15,Jits_Phase_8,2,5,63,98,2149686660
84,19,15,Jits_Phase_8,3,1,48,20,2149709856
84,19,15,Jits_Phase_8,0,1,48,24,2150419768
84,19,15,Jits_Phase_8,1,5,63,98,2150456656
84,19,15,Jits_Phase_8,2,5,80,127,2150517196
84,19,15,Jits_Phase_8,3,5,56,103,2150527452
84,19,15,Jits_Phase_8,0,1,48,24,2151306284
84,19,15,Jits_Phase_8,1,5,63,98,2151327208
84,19,15,Jits_Phase_8,2,5,80,127,2151356884
84,19,15,Jits_Phase_8,3,5,56,103,2151396672
84,19,15,Jits_Phase_8,0,5,56,103,2152116560
84,19,15,Jits_Phase_8,1,5,80,127,2152127056
84,19,15,Jits_Phase_8,2,5,63,98,2152166696
84,19,15,Jits_Phase_8,3,1,48,19,2152170564
84,19,15,Jits_Phase_8,0,5,80,127,2152877372
84,19,15,Jits_Phase_8,1,5,56,103,2152957168
84,19,15,Jits_Phase_8,2,5,63,98,2152966540
84,19,15,Jits_Phase_8,3,1,48,28,2153032732
84,19,15,Jits_Phase_8,0,1,48,26,2153722480
84,19,15,Jits_Phase_8,1,5,80,127,2153727308
84,19,15,Jits_Phase_8,2,5,56,103,2153807280
84,19,15,Jits_Phase_8,3,5,63,98,2153816860
84,19,15,Jits_Phase_8,0,5,80,127,2154567188
84,19,15,Jits_Phase_8,1,1,48,27,2154613008
84,19,15,Jits_Phase_8,2,5,56,103,2154617384
84,19,15,Jits_Phase_8,3,5,63,98,2154667588
84,19,15,Jits_Phase_8,0,1,48,26,2155421084
84,19,15,Jits_Phase_8,1,5,56,103,2155507196
84,19,15,Jits_Phase_8,2,5,63,98,2155510264
84,19,15,Jits_Phase_8,3,5,80,127,2155557112
84,19,15,Jits_Phase_8,0,1,48,28,2156255540
84,19,15,Jits_Phase_8,1,5,56,103,2156327356
84,19,15,Jits_Phase_8,2,5,63,98,2156357092
84,19,15,Jits_Phase_8,3,5,80,127,2156367288
84,19,15,Jits_Phase_8,0,5,63,98,2157036900
84,19,15,Jits_Phase_8,1,1,48,32,2157069340
84,19,15,Jits_Phase_8,2,5,56,103,2157106524
84,19,15,Jits_Phase_8,3,5,80,127,2157156800
84,19,15,Jits_Phase_8,0,5,63,98,2157867404
84,19,15,Jits_Phase_8,1,5,56,103,2157876700
84,19,15,Jits_Phase_8,2,5,80,127,2157879840
84,19,15,Jits_Phase_8,3,1,48,29,2157925220
84,19,15,Jits_Phase_8,0,5,80,127,2158616876
84,19,15,Jits_Phase_8,1,1,48,25,2158665780
84,19,15,Jits_Phase_8,2,5,56,103,2158677260
84,19,15,Jits_Phase_8,3,5,63,98,2158766552
84,19,15,Jits_Phase_8,0,5,80,127,2159416872
84,19,15,Jits_Phase_8,1,1,48,26,2159495668
84,19,15,Jits_Phase_8,2,5,56,103,2159517040
84,19,15,Jits_Phase_8,3,5,63,98,2159556976
84,19,15,Jits_Phase_8,0,5,56,103,2160266692
84,19,15,Jits_Phase_8,1,1,48,28,2160277232
84,19,15,Jits_Phase_8,2,5,63,98,2160287072
84,19,15,Jits_Phase_8,3,5,80,127,2160327008
84,19,15,Jits_Phase_8,0,5,63,98,2161036720
84,19,15,Jits_Phase_8,1,5,56,103,2161057104
84,19,15,Jits_Phase_8,2,1,48,30,2161100304
84,19,15,Jits_Phase_8,3,5,80,127,2161156520
84,19,15,Jits_Phase_8,0,5,63,98,2161827112
84,19,15,Jits_Phase_8,1,1,48,24,2161850684
84,19,15,Jits_Phase_8,2,5,80,127,2161936892
84,19,15,Jits_Phase_8,3,5,56,103,2161966552
84,19,15,Jits_Phase_8,0,5,56,103,2162647404
84,19,15,Jits_Phase_8,1,5,63,98,2162677152
84,19,15,Jits_Phase_8,2,1,48,28,2162680272
84,19,15,Jits_Phase_8,3,5,80,127,2162727220
84,19,15,Jits_Phase_8,0,5,63,98,2163416304
84,19,15,Jits_Phase_8,1,5,56,103,2163447252
84,19,15,Jits_Phase_8,2,5,80,127,2163497328
84,19,15,Jits_Phase_8,3,1,48,29,2163500520
84,19,15,Jits_Phase_8,0,5,56,103,2164247020
84,19,15,Jits_Phase_8,1,1,48,24,2164256364
84,19,15,Jits_Phase_8,2,5,63,98,2164267252
84,19,15,Jits_Phase_8,3,5,80,127,2164347192
84,19,15,Jits_Phase_8,0,5,63,98,2165016976
84,19,15,Jits_Phase_8,1,1,48,32,2165029160
84,19,15,Jits_Phase_8,2,5,56,103,2165077208
84,19,15,Jits_Phase_8,3,5,80,127,2165106960
84,19,15,Jits_Phase_8,0,5,56,103,2165856664
84,19,15,Jits_Phase_8,1,1,48,30,2165895600
84,19,15,Jits_Phase_8,2,5,80,127,2165917048
84,19,15,Jits_Phase_8,3,5,63,98,2165956984
84,19,15,Jits_Phase_8,0,5,63,98,2166636880
84,19,15,Jits_Phase_8,1,5,56,103,2166697200
84,19,15,Jits_Phase_8,2,1,48,28,2166732976
84,19,15,Jits_Phase_8,3,5,80,127,2166766948
84,19,15,Jits_Phase_8,0,1,48,29,2167512944
84,19,15,Jits_Phase_8,1,5,56,103,2167516800
84,19,15,Jits_Phase_8,2,5,63,98,2167526916
84,19,15,Jits_Phase_8,3,5,80,127,2167530208
84,19,15,Jits_Phase_8,0,5,63,98,2168256996
84,19,15,Jits_Phase_8,1,5,56,103,2168317156
84,19,15,Jits_Phase_8,2,1,48,31,2168318140
84,19,15,Jits_Phase_8,3,5,80,127,2168321644
84,19,15,Jits_Phase_8,0,5,63,98,2169037192
84,19,15,Jits_Phase_8,1,5,80,127,2169066792
84,19,15,Jits_Phase_8,2,1,48,27,2169074172
84,19,15,Jits_Phase_8,3,5,56,103,2169087616
84,19,15,Jits_Phase_8,0,5,56,103,2169767268
84,19,15,Jits_Phase_8,1,5,63,98,2169816424
84,19,15,Jits_Phase_8,2,1,48,24,2169831076
84,19,15,Jits_Phase_8,3,5,80,127,2169897280
84,19,15,Jits_Phase_8,0,5,80,127,2170466808
84,19,15,Jits_Phase_8,1,5,63,98,2170506672
84,19,15,Jits_Phase_8,2,5,56,103,2170526984
84,19,15,Jits_Phase_8,3,1,48,22,2170640168
84,19,15,Jits_Phase_8,0,5,56,103,2171337004
84,19,15,Jits_Phase_8,1,5,80,127,2171347496
84,19,15,Jits_Phase_8,2,1,48,23,2171348464
84,19,15,Jits_Phase_8,3,5,63,98,2171366752
84,19,15,Jits_Phase_8,0,1,48,25,2172074620
84,19,15,Jits_Phase_8,1,5,56,103,2172117292
84,19,15,Jits_Phase_8,2,5,63,98,2172167432
84,19,15,Jits_Phase_8,3,5,80,127,2172197104
84,19,15,Jits_Phase_8,0,1,48,27,2172864196
84,19,15,Jits_Phase_8,1,5,56,103,2172866932
84,19,15,Jits_Phase_8,2,5,63,98,2172877128
84,19,15,Jits_Phase_8,3,5,80,127,2172927700
84,19,15,Jits_Phase_8,0,1,48,26,2173619824
84,19,15,Jits_Phase_8,1,5,56,103,2173656640
84,19,15,Jits_Phase_8,2,5,80,127,2173659852
84,19,15,Jits_Phase_8,3,5,63,98,2173817124
84,19,15,Jits_Phase_8,0,1,48,22,2174342396
84,19,15,Jits_Phase_8,1,5,63,98,2174476776
84,19,15,Jits_Phase_8,2,5,56,103,2174547504
84,19,15,Jits_Phase_8,3,5,80,127,2174587216
84,19,15,Jits_Phase_8,0,1,48,23,2175185324
84,19,15,Jits_Phase_8,1,5,63,98,2175317588
84,19,15,Jits_Phase_8,2,5,56,103,2175406672
84,19,15,Jits_Phase_8,3,5,80,127,2175409664
84,19,15,Jits_Phase_8,0,1,48,21,2176037920
84,19,15,Jits_Phase_8,1,5,56,103,2176096756
84,19,15,Jits_Phase_8,2,5,63,98,2176186652
84,19,15,Jits_Phase_8,3,5,80,127,2176196924
84,19,15,Jits_Phase_8,0,5,56,103,2176866780
84,19,15,Jits_Phase_8,1,1,48,29,2176885636
84,19,15,Jits_Phase_8,2,5,63,98,2176916972
84,19,15,Jits_Phase_8,3,5,80,127,2176946500
84,19,15,Jits_Phase_8,0,1,48,24,2177617368
84,19,15,Jits_Phase_8,1,5,63,98,2177747516
84,19,15,Jits_Phase_8,2,5,80,127,2177756588
84,19,15,Jits_Phase_8,3,5,56,103,2177816928
84,19,15,Jits_Phase_8,0,5,63,98,2178467280
84,19,15,Jits_Phase_8,1,5,80,127,2178526552
84,19,15,Jits_Phase_8,2,5,56,103,2178566440
84,19,15,Jits_Phase_8,3,1,48,19,2178577276
84,19,15,Jits_Phase_8,0,1,48,28,2179346900
84,19,15,Jits_Phase_8,1,5,56,103,2179367228
84,19,15,Jits_Phase_8,2,5,80,127,2179386716
84,19,15,Jits_Phase_8,3,5,63,98,2179407320
84,19,15,Jits_Phase_8,0,5,63,98,2180087108
84,19,15,Jits_Phase_8,1,5,56,103,2180106692
84,19,15,Jits_Phase_8,2,1,48,27,2180121048
84,19,15,Jits_Phase_8,3,5,80,127,2180146476
84,19,15,Jits_Phase_8,0,1,48,24,2180862028
84,19,15,Jits_Phase_8,1,5,63,98,2180897072
84,19,15,Jits_Phase_8,2,5,80,127,2180926820
84,19,15,Jits_Phase_8,3,5,56,103,2180947576
84,19,15,Jits_Phase_8,0,1,48,23,2181660836
84,19,15,Jits_Phase_8,1,5,80,127,2181667456
84,19,15,Jits_Phase_8,2,5,56,103,2181717432
84,19,15,Jits_Phase_8,3,5,63,98,2181776836
84,19,15,Jits_Phase_8,0,5,63,98,2182456800
84,19,15,Jits_Phase_8,1,1,48,29,2182535072
84,19,15,Jits_Phase_8,2,5,56,103,2182576524
84,19,15,Jits_Phase_8,3,5,80,127,2182607320
84,19,15,Jits_Phase_8,0,5,80,127,2183297540
84,19,15,Jits_Phase_8,1,5,63,98,2183316952
84,19,15,Jits_Phase_8,2,1,48,22,2183340448
84,19,15,Jits_Phase_8,3,5,56,103,2183386476
84,19,15,Jits_Phase_8,0,1,48,23,2184115584
84,19,15,Jits_Phase_8,1,5,63,98,2184117228
84,19,15,Jits_Phase_8,2,5,56,103,2184126908
84,19,15,Jits_Phase_8,3,5,80,127,2184206652
84,19,15,Jits_Phase_8,0,1,48,23,2184947016
84,19,15,Jits_Phase_8,1,5,56,103,2184976880
84,19,15,Jits_Phase_8,2,5,80,127,2185006480
84,19,15,Jits_Phase_8,3,5,63,98,2185016752
84,19,15,Jits_Phase_8,0,9999,9999,9999,2050134104
84,19,15,Jits_Phase_8,1,9999,9999,9999,2050934848
84,19,15,Jits_Phase_8,2,9999,9999,9999,2051734604
84,19,15,Jits_Phase_8,3,9999,9999,9999,2052534360
84,19,15,Jits_Phase_8,4,9999,9999,9999,2053334124
84,19,15,Jits_Phase_8,5,9999,9999,9999,2054134856
84,19,15,Jits_Phase_8,6,9999,9999,9999,2054934644
84,19,15,Jits_Phase_8,7,9999,9999,9999,2055734340
84,19,15,Jits_Phase_8,8,9999,9999,9999,2056534104
84,19,15,Jits_Phase_8,9,9999,9999,9999,2057334892
84,19,15,Jits_Phase_8,10,9999,9999,9999,2058134600
84,19,15,Jits_Phase_8,11,9999,9999,9999,2058934356
84,19,15,Jits_Phase_8,12,9999,9999,9999,2059734120
84,19,15,Jits_Phase_8,13,9999,9999,9999,2060534844
84,19,15,Jits_Phase_8,14,9999,9999,9999,2061334616
84,19,15,Jits_Phase_8,15,9999,9999,9999,2062134380
84,19,15,Jits_Phase_8,16,9999,9999,9999,2062934120
84,19,15,Jits_Phase_8,17,9999,9999,9999,2063734868
84,19,15,Jits_Phase_8,18,9999,9999,9999,2064534632
84,19,15,Jits_Phase_8,19,9999,9999,9999,2065334332
84,19,15,Jits_Phase_8,20,9999,9999,9999,2066134084
84,19,15,Jits_Phase_8,21,9999,9999,9999,2066934884
84,19,15,Jits_Phase_8,22,9999,9999,9999,2067734596
84,19,15,Jits_Phase_8,23,9999,9999,9999,2068534352
84,19,15,Jits_Phase_8,24,9999,9999,9999,2069334108
84,19,15,Jits_Phase_8,25,9999,9999,9999,2070134840
84,19,15,Jits_Phase_8,26,9999,9999,9999,2070934644
84,19,15,Jits_Phase_8,27,9999,9999,9999,2071734328
84,19,15,Jits_Phase_8,28,9999,9999,9999,2072534096
84,19,15,Jits_Phase_8,29,9999,9999,9999,2073334908
84,19,15,Jits_Phase_8,30,9999,9999,9999,2074114140
84,19,15,Jits_Phase_8,31,9999,9999,9999,2074914888
84,19,15,Jits_Phase_8,32,9999,9999,9999,2075714660
84,19,15,Jits_Phase_8,33,9999,9999,9999,2076514408
84,19,15,Jits_Phase_8,34,9999,9999,9999,2077314168
84,19,15,Jits_Phase_8,35,9999,9999,9999,2078114904
84,19,15,Jits_Phase_8,36,9999,9999,9999,2078914668
84,19,15,Jits_Phase_8,37,9999,9999,9999,2079714368
84,19,15,Jits_Phase_8,38,9999,9999,9999,2080514136
84,19,15,Jits_Phase_8,39,9999,9999,9999,2081314900
84,19,15,Jits_Phase_8,40,9999,9999,9999,2082114676
84,19,15,Jits_Phase_8,41,9999,9999,9999,2082914372
84,19,15,Jits_Phase_8,42,9999,9999,9999,2083714128
84,19,15,Jits_Phase_8,43,9999,9999,9999,2084514936
84,19,15,Jits_Phase_8,44,9999,9999,9999,2085314680
84,19,15,Jits_Phase_8,45,9999,9999,9999,2086114364
84,19,15,Jits_Phase_8,46,9999,9999,9999,2086914120
84,19,15,Jits_Phase_8,47,9999,9999,9999,2087714936
84,19,15,Jits_Phase_8,48,9999,9999,9999,2088534116
84,19,15,Jits_Phase_8,49,9999,9999,9999,2089334856
84,19,15,Jits_Phase_8,50,9999,9999,9999,2090134612
84,19,15,Jits_Phase_8,51,9999,9999,9999,2090934384
84,19,15,Jits_Phase_8,52,9999,9999,9999,2091734084
84,19,15,Jits_Phase_8,53,9999,9999,9999,2092534896
84,19,15,Jits_Phase_8,54,9999,9999,9999,2093334600
84,19,15,Jits_Phase_8,55,9999,9999,9999,2094134372
84,19,15,Jits_Phase_8,56,9999,9999,9999,2094934128
84,19,15,Jits_Phase_8,57,9999,9999,9999,2095734876
84,19,15,Jits_Phase_8,58,9999,9999,9999,2096534632
84,19,15,Jits_Phase_8,59,9999,9999,9999,2097334328
84,19,15,Jits_Phase_8,60,9999,9999,9999,2098134100
84,19,15,Jits_Phase_8,61,9999,9999,9999,2098934844
84,19,15,Jits_Phase_8,62,9999,9999,9999,2099734636
84,19,15,Jits_Phase_8,63,9999,9999,9999,2100534384
84,19,15,Jits_Phase_8,64,9999,9999,9999,2101375048
84,19,15,Jits_Phase_8,65,9999,9999,9999,2102174808
84,19,15,Jits_Phase_8,66,9999,9999,9999,2102974568
84,19,15,Jits_Phase_8,67,9999,9999,9999,2103774332
84,19,15,Jits_Phase_8,68,9999,9999,9999,2104575060
84,19,15,Jits_Phase_8,69,9999,9999,9999,2105374780
84,19,15,Jits_Phase_8,70,9999,9999,9999,2106174544
84,19,15,Jits_Phase_8,71,9999,9999,9999,2106974308
84,19,15,Jits_Phase_8,72,9999,9999,9999,2107775036
84,19,15,Jits_Phase_8,73,9999,9999,9999,2108574808
84,19,15,Jits_Phase_8,74,9999,9999,9999,2109374572
84,19,15,Jits_Phase_8,75,9999,9999,9999,2110174336
84,19,15,Jits_Phase_8,76,9999,9999,9999,2110975060
84,19,15,Jits_Phase_8,77,9999,9999,9999,2111774776
84,19,15,Jits_Phase_8,78,9999,9999,9999,2112574544
84,19,15,Jits_Phase_8,79,9999,9999,9999,2113374312
84,19,15,Jits_Phase_8,80,9999,9999,9999,2114175060
84,19,15,Jits_Phase_8,81,9999,9999,9999,2114934884
84,19,15,Jits_Phase_8,82,9999,9999,9999,2115734636
84,19,15,Jits_Phase_8,83,9999,9999,9999,2116534384
84,19,15,Jits_Phase_8,84,9999,9999,9999,2117334076
84,19,15,Jits_Phase_8,85,9999,9999,9999,2118134884
84,19,15,Jits_Phase_8,86,9999,9999,9999,2118934588
84,19,15,Jits_Phase_8,87,9999,9999,9999,2119734348
84,19,15,Jits_Phase_8,88,9999,9999,9999,2120534096
84,19,15,Jits_Phase_8,89,9999,9999,9999,2121334836
84,19,15,Jits_Phase_8,90,9999,9999,9999,2122134604
84,19,15,Jits_Phase_8,91,9999,9999,9999,2122934360
84,19,15,Jits_Phase_8,92,9999,9999,9999,2123734120
84,19,15,Jits_Phase_8,93,9999,9999,9999,2124534844
84,19,15,Jits_Phase_8,94,9999,9999,9999,2125334632
84,19,15,Jits_Phase_8,95,9999,9999,9999,2126134384
84,19,15,Jits_Phase_8,96,9999,9999,9999,2126934136
84,19,15,Jits_Phase_8,97,9999,9999,9999,2127655004
84,19,15,Jits_Phase_8,98,9999,9999,9999,2128454780
84,19,15,Jits_Phase_8,99,9999,9999,9999,2129254480
84,19,15,Jits_Phase_8,100,9999,9999,9999,2130054244
84,19,15,Jits_Phase_8,101,9999,9999,9999,2130854976
84,19,15,Jits_Phase_8,102,9999,9999,9999,2131654740
84,19,15,Jits_Phase_8,103,9999,9999,9999,2132454496
84,19,15,Jits_Phase_8,104,9999,9999,9999,2133254212
84,19,15,Jits_Phase_8,105,9999,9999,9999,2134054988
84,19,15,Jits_Phase_8,106,9999,9999,9999,2134854740
84,19,15,Jits_Phase_8,107,9999,9999,9999,2135654480
84,19,15,Jits_Phase_8,108,9999,9999,9999,2136454236
84,19,15,Jits_Phase_8,109,9999,9999,9999,2137255040
84,19,15,Jits_Phase_8,110,9999,9999,9999,2138054736
84,19,15,Jits_Phase_8,111,9999,9999,9999,2138854496
84,19,15,Jits_Phase_8,112,9999,9999,9999,2139654264
84,19,15,Jits_Phase_8,113,9999,9999,9999,2140455036
84,19,15,Jits_Phase_8,114,9999,9999,9999,2141334592
84,19,15,Jits_Phase_8,115,9999,9999,9999,2142134348
84,19,15,Jits_Phase_8,116,9999,9999,9999,2142934112
84,19,15,Jits_Phase_8,117,9999,9999,9999,2143734852
84,19,15,Jits_Phase_8,118,9999,9999,9999,2144534632
84,19,15,Jits_Phase_8,119,9999,9999,9999,2145334328
84,19,15,Jits_Phase_8,120,9999,9999,9999,2146134096
84,19,15,Jits_Phase_8,121,9999,9999,9999,2146934900
84,19,15,Jits_Phase_8,122,9999,9999,9999,2147734648
84,19,15,Jits_Phase_8,123,9999,9999,9999,2148534400
84,19,15,Jits_Phase_8,124,9999,9999,9999,2149334088
84,19,15,Jits_Phase_8,125,9999,9999,9999,2150134900
84,19,15,Jits_Phase_8,126,9999,9999,9999,2150934616
84,19,15,Jits_Phase_8,127,9999,9999,9999,2151734376
84,19,15,Jits_Phase_8,128,9999,9999,9999,2152534132
84,19,15,Jits_Phase_8,129,9999,9999,9999,2153334848
84,19,15,Jits_Phase_8,130,9999,9999,9999,2154134628
84,19,15,Jits_Phase_8,131,9999,9999,9999,2155094136
84,19,15,Jits_Phase_8,132,9999,9999,9999,2155894880
84,19,15,Jits_Phase_8,133,9999,9999,9999,2156694648
84,19,15,Jits_Phase_8,134,9999,9999,9999,2157494332
84,19,15,Jits_Phase_8,135,9999,9999,9999,2158294080
84,19,15,Jits_Phase_8,136,9999,9999,9999,2159094884
84,19,15,Jits_Phase_8,137,9999,9999,9999,2159894608
84,19,15,Jits_Phase_8,138,9999,9999,9999,2160694380
84,19,15,Jits_Phase_8,139,9999,9999,9999,2161494072
84,19,15,Jits_Phase_8,140,9999,9999,9999,2162294884
84,19,15,Jits_Phase_8,141,9999,9999,9999,2163094636
84,19,15,Jits_Phase_8,142,9999,9999,9999,2163894332
84,19,15,Jits_Phase_8,143,9999,9999,9999,2164694088
84,19,15,Jits_Phase_8,144,9999,9999,9999,2165494904
84,19,15,Jits_Phase_8,145,9999,9999,9999,2166294612
84,19,15,Jits_Phase_8,146,9999,9999,9999,2167094388
84,19,15,Jits_Phase_8,147,9999,9999,9999,2167894140
84,19,15,Jits_Phase_8,148,9999,9999,9999,2168694864
84,19,15,Jits_Phase_8,149,9999,9999,9999,2169494616
84,19,15,Jits_Phase_8,150,9999,9999,9999,2170134656
84,19,15,Jits_Phase_8,151,9999,9999,9999,2170934348
84,19,15,Jits_Phase_8,152,9999,9999,9999,2171734124
84,19,15,Jits_Phase_8,153,9999,9999,9999,2172534872
84,19,15,Jits_Phase_8,154,9999,9999,9999,2173334624
84,19,15,Jits_Phase_8,155,9999,9999,9999,2174134368
84,19,15,Jits_Phase_8,156,9999,9999,9999,2174934124
84,19,15,Jits_Phase_8,157,9999,9999,9999,2175734852
84,19,15,Jits_Phase_8,158,9999,9999,9999,2176534640
84,19,15,Jits_Phase_8,159,9999,9999,9999,2177334396
84,19,15,Jits_Phase_8,160,9999,9999,9999,2178134096
84,19,15,Jits_Phase_8,161,9999,9999,9999,2178934900
84,19,15,Jits_Phase_8,162,9999,9999,9999,2179734588
84,19,15,Jits_Phase_8,163,9999,9999,9999,2180534344
84,19,15,Jits_Phase_8,164,9999,9999,9999,2181334100
84,19,15,Jits_Phase_8,165,9999,9999,9999,2182134904
84,19,15,Jits_Phase_8,166,9999,9999,9999,2182934612
84,19,15,Jits_Phase_8,167,9999,9999,9999,2183734368
84,19,15,Jits_Phase_8,168,9999,9999,9999,2184534140
84,19,15,Jits_Phase_8,169,9999,9999,9999,2185334880
84,20,5,ISIP_5,0,5,42,127,2247944480
84,20,5,ISIP_5,1,5,42,127,2248445368
84,20,5,ISIP_5,2,5,42,127,2248945084
84,20,5,ISIP_5,3,5,42,127,2249444576
84,20,5,ISIP_5,4,1,48,35,2249907152
84,20,5,ISIP_5,5,5,42,127,2249944436
84,20,5,ISIP_5,6,1,48,36,2250411192
84,20,5,ISIP_5,7,5,42,127,2250445032
84,20,5,ISIP_5,8,1,48,36,2250920380
84,20,5,ISIP_5,9,5,42,127,2250945024
84,20,5,ISIP_5,10,1,48,35,2251443600
84,20,5,ISIP_5,11,5,42,127,2251445164
84,20,5,ISIP_5,12,5,42,127,2251945316
84,20,5,ISIP_5,13,1,48,33,2251950976
84,20,5,ISIP_5,14,1,48,29,2252435696
84,20,5,ISIP_5,15,5,42,127,2252445152
84,20,5,ISIP_5,16,5,42,127,2252944856
84,20,5,ISIP_5,17,1,48,33,2252963384
84,20,5,ISIP_5,18,1,48,29,2253435608
84,20,5,ISIP_5,19,5,42,127,2253444468
84,20,5,ISIP_5,20,5,42,127,2253945220
84,20,5,ISIP_5,21,1,48,31,2253960456
84,20,5,ISIP_5,22,5,42,127,2254444988
84,20,5,ISIP_5,23,1,48,33,2254449080
84,20,5,ISIP_5,24,5,42,127,2254944684
84,20,5,ISIP_5,25,1,48,37,2254950340
84,20,5,ISIP_5,26,1,48,35,2255433792
84,20,5,ISIP_5,27,5,42,127,2255445268
84,20,5,ISIP_5,28,5,42,127,2255945124
84,20,5,ISIP_5,29,1,48,37,2255946684
84,20,5,ISIP_5,30,1,48,35,2256443764
84,20,5,ISIP_5,31,5,42,127,2256445332
84,20,5,ISIP_5,32,5,42,127,2256944588
84,20,5,ISIP_5,33,1,48,35,2256945552
84,20,5,ISIP_5,34,1,48,37,2257440128
84,20,5,ISIP_5,35,5,42,127,2257445248
84,20,5,ISIP_5,36,5,42,127,2257944948
84,20,5,ISIP_5,37,1,48,35,2257967292
84,20,5,ISIP_5,38,5,42,127,2258444792
84,20,5,ISIP_5,39,1,48,34,2258451800
84,20,5,ISIP_5,40,5,42,127,2258945532
84,20,5,ISIP_5,41,1,48,36,2258963464
84,20,5,ISIP_5,42,5,42,127,2259445056
84,20,5,ISIP_5,43,1,48,30,2259449896
84,20,5,ISIP_5,44,1,48,32,2259928256
84,20,5,ISIP_5,45,5,42,127,2259944892
84,20,5,ISIP_5,46,5,42,127,2260444444
84,20,5,ISIP_5,47,1,48,34,2260470076
84,20,5,ISIP_5,48,1,48,30,2260940880
84,20,5,ISIP_5,49,5,42,127,2260945176
84,20,5,ISIP_5,50,5,42,127,2261444880
84,20,5,ISIP_5,51,1,48,30,2261450168
84,20,5,ISIP_5,52,1,48,33,2261914164
84,20,5,ISIP_5,53,5,42,127,2261944644
84,20,5,ISIP_5,54,1,48,25,2262437420
84,20,5,ISIP_5,55,5,42,127,2262445532
84,20,5,ISIP_5,56,1,48,30,2262925820
84,20,5,ISIP_5,57,5,42,127,2262945152
84,20,5,ISIP_5,58,1,48,35,2263427088
84,20,5,ISIP_5,59,5,42,127,2263444848
84,20,5,ISIP_5,60,1,48,36,2263942732
84,20,5,ISIP_5,61,5,42,127,2263944472
84,20,5,ISIP_5,62,1,48,35,2264439488
84,20,5,ISIP_5,63,5,42,127,2264445284
84,20,5,ISIP_5,64,1,48,34,2264924752
84,20,5,ISIP_5,65,5,42,127,2264945056
84,20,5,ISIP_5,66,5,42,127,2265444684
84,20,5,ISIP_5,67,1,48,35,2265445720
84,20,5,ISIP_5,68,1,48,31,2265936852
84,20,5,ISIP_5,69,5,42,127,2265944372
84,20,5,ISIP_5,70,1,48,29,2266425252
84,20,5,ISIP_5,71,5,42,127,2266445112
84,20,5,ISIP_5,72,1,48,36,2266917024
84,20,5,ISIP_5,73,5,42,127,2266944808
84,20,5,ISIP_5,74,1,48,34,2267441996
84,20,5,ISIP_5,75,5,42,127,2267444800
84,20,5,ISIP_5,76,1,48,33,2267944848
84,20,5,ISIP_5,77,1,48,32,2268446936
84,20,5,ISIP_5,78,1,48,29,2268929484
84,20,5,ISIP_5,79,1,48,30,2269419724
84,20,5,ISIP_5,80,1,48,30,2269910292
84,20,5,ISIP_5,81,1,48,26,2270425168
84,20,5,ISIP_5,82,1,48,25,2270887824
84,20,5,ISIP_5,83,1,48,31,2271376000
84,20,5,ISIP_5,84,1,48,35,2271873224
84,20,5,ISIP_5,85,1,48,31,2272360872
84,20,5,ISIP_5,86,1,48,32,2272845380
84,20,5,ISIP_5,87,1,48,35,2273328396
84,20,5,ISIP_5,88,1,48,34,2273858076
84,20,5,ISIP_5,89,1,48,29,2274360684
84,20,5,ISIP_5,90,1,48,29,2274847360
84,20,5,ISIP_5,91,1,48,29,2275342936
84,20,5,ISIP_5,92,1,48,30,2275797944
84,20,5,ISIP_5,93,1,48,26,2276284772
84,20,5,ISIP_5,94,1,48,30,2276764268
84,20,5,ISIP_5,95,1,48,32,2277231648
84,20,5,ISIP_5,96,1,48,28,2277717800
84,20,5,ISIP_5,97,1,48,25,2278200364
84,20,5,ISIP_5,98,1,48,29,2278688164
84,20,5,ISIP_5,99,1,48,29,2279170428
84,20,5,ISIP_5,100,1,48,35,2279643316
84,20,5,ISIP_5,101,1,48,27,2280142628
84,20,5,ISIP_5,102,1,48,32,2280622944
84,20,5,ISIP_5,103,1,48,31,2281113360
84,20,5,ISIP_5,104,1,48,27,2281601608
84,20,5,ISIP_5,105,1,48,29,2282098528
84,20,5,ISIP_5,106,1,48,28,2282589248
84,20,5,ISIP_5,107,1,48,28,2283065528
84,20,5,ISIP_5,108,1,48,22,2283533652
84,20,5,ISIP_5,109,1,48,33,2284030324
84,20,5,ISIP_5,110,1,48,31,2284532632
84,20,5,ISIP_5,111,1,48,25,2285051248
84,20,5,ISIP_5,112,1,48,24,2285528204
84,20,5,ISIP_5,113,1,48,27,2286025716
84,20,5,ISIP_5,114,1,48,29,2286522720
84,20,5,ISIP_5,115,1,48,31,2287015980
84,20,5,ISIP_5,116,1,48,32,2287505268
84,20,5,ISIP_5,117,1,48,31,2287999724
84,20,5,ISIP_5,118,1,48,27,2288475104
84,20,5,ISIP_5,119,1,48,32,2288952208
84,20,5,ISIP_5,120,1,48,31,2289478680
84,20,5,ISIP_5,121,1,48,29,2289994372
84,20,5,ISIP_5,122,1,48,25,2290460032
84,20,5,ISIP_5,123,1,48,28,2290923852
84,20,5,ISIP_5,124,1,48,30,2291393700
84,20,5,ISIP_5,125,1,48,25,2291896532
84,20,5,ISIP_5,126,1,48,28,2292392852
84,20,5,ISIP_5,127,1,48,27,2292872652
84,20,5,ISIP_5,128,1,48,32,2293374732
84,20,5,ISIP_5,129,1,48,28,2293868668
84,20,5,ISIP_5,130,1,48,26,2294376136
84,20,5,ISIP_5,131,1,48,28,2294858248
84,20,5,ISIP_5,132,1,48,30,2295355320
84,20,5,ISIP_5,133,1,48,27,2295847828
84,20,5,ISIP_5,134,1,48,27,2296357924
84,20,5,ISIP_5,135,1,48,27,2296873020
84,20,5,ISIP_5,136,1,48,34,2297350868
84,20,5,ISIP_5,137,1,48,27,2297850160
84,20,5,ISIP_5,138,1,48,27,2298373660
84,20,5,ISIP_5,139,1,48,30,2298862404
84,20,5,ISIP_5,140,1,48,27,2299319012
84,20,5,ISIP_5,141,1,48,28,2299816088
84,20,5,ISIP_5,142,1,48,24,2300294008
84,20,5,ISIP_5,143,1,48,29,2300763484
84,20,5,ISIP_5,144,1,48,30,2301240508
84,20,5,ISIP_5,145,1,48,27,2301738552
84,20,5,ISIP_5,146,1,48,24,2302203364
84,20,5,ISIP_5,147,1,48,26,2302705896
84,20,5,ISIP_5,148,1,48,25,2303173496
84,20,5,ISIP_5,149,1,48,24,2303704976
84,20,5,ISIP_5,150,1,48,29,2304180880
84,20,5,ISIP_5,151,1,48,28,2304626796
84,20,5,ISIP_5,152,1,48,29,2305115112
84,20,5,ISIP_5,153,1,48,24,2305597976
84,20,5,ISIP_5,154,1,48,24,2306091456
84,20,5,ISIP_5,155,1,48,23,2306570800
84,20,5,ISIP_5,156,1,48,24,2307042720
84,20,5,ISIP_5,157,1,48,27,2307551836
84,20,5,ISIP_5,158,1,48,28,2308041500
84,20,5,ISIP_5,159,1,48,27,2308567372
84,20,5,ISIP_5,160,1,48,29,2309059060
84,20,5,ISIP_5,161,1,48,25,2309566680
84,20,5,ISIP_5,162,1,48,29,2310039816
84,20,5,ISIP_5,163,1,48,29,2310516020
84,20,5,ISIP_5,164,1,48,31,2310984440
84,20,5,ISIP_5,165,1,48,26,2311442696
84,20,5,ISIP_5,166,1,48,26,2311945076
84,20,5,ISIP_5,167,1,48,24,2312406284
84,20,5,ISIP_5,168,1,48,24,2312884956
84,20,5,ISIP_5,169,1,48,25,2313402072
84,20,5,ISIP_5,170,1,48,28,2313887252
84,20,5,ISIP_5,171,1,48,26,2314376096
84,20,5,ISIP_5,172,1,48,26,2314886932
84,20,5,ISIP_5,173,1,48,22,2315355884
84,20,5,ISIP_5,174,1,48,28,2315851912
84,20,5,ISIP_5,175,1,48,25,2316329680
84,20,5,ISIP_5,176,1,48,28,2316850248
84,20,5,ISIP_5,177,1,48,23,2317330636
84,20,5,ISIP_5,178,1,48,24,2317828080
84,20,5,ISIP_5,179,1,48,27,2318303740
84,20,5,ISIP_5,180,1,48,27,2318802308
84,20,5,ISIP_5,181,1,48,25,2319297504
84,20,5,ISIP_5,182,1,48,27,2319765860
84,20,5,ISIP_5,183,1,48,21,2320259492
84,20,5,ISIP_5,184,1,48,24,2320773172
84,20,5,ISIP_5,185,1,48,28,2321267924
84,20,5,ISIP_5,186,1,48,24,2321756840
84,20,5,ISIP_5,187,1,48,24,2322242244
84,20,5,ISIP_5,188,1,48,23,2322739992
84,20,5,ISIP_5,189,1,48,27,2323231756
84,20,5,ISIP_5,190,1,48,28,2323721044
84,20,5,ISIP_5,191,1,48,27,2324215404
84,20,5,ISIP_5,192,1,48,25,2324708960
84,20,5,ISIP_5,193,1,48,24,2325190472
84,20,5,ISIP_5,194,1,48,27,2325668176
84,20,5,ISIP_5,195,1,48,29,2326140412
84,20,5,ISIP_5,196,1,48,24,2326655212
84,20,5,ISIP_5,197,1,48,27,2327135156
84,20,5,ISIP_5,198,1,48,26,2327594156
84,20,5,ISIP_5,0,9999,9999,9999,2247942192
84,20,5,ISIP_5,1,9999,9999,9999,2248442928
84,20,5,ISIP_5,2,9999,9999,9999,2248942648
84,20,5,ISIP_5,3,9999,9999,9999,2249442364
84,20,5,ISIP_5,4,9999,9999,9999,2249942076
84,20,5,ISIP_5,5,9999,9999,9999,2250442820
84,20,5,ISIP_5,6,9999,9999,9999,2250942512
84,20,5,ISIP_5,7,9999,9999,9999,2251442288
84,20,5,ISIP_5,8,9999,9999,9999,2251943028
84,20,5,ISIP_5,9,9999,9999,9999,2252442716
84,20,5,ISIP_5,10,9999,9999,9999,2252942420
84,20,5,ISIP_5,11,9999,9999,9999,2253442108
84,20,5,ISIP_5,12,9999,9999,9999,2253942856
84,20,5,ISIP_5,13,9999,9999,9999,2254442552
84,20,5,ISIP_5,14,9999,9999,9999,2254942320
84,20,5,ISIP_5,15,9999,9999,9999,2255443056
84,20,5,ISIP_5,16,9999,9999,9999,2255942760
84,20,5,ISIP_5,17,9999,9999,9999,2256442456
84,20,5,ISIP_5,18,9999,9999,9999,2256942148
84,20,5,ISIP_5,19,9999,9999,9999,2257442884
84,20,5,ISIP_5,20,9999,9999,9999,2257942584
84,20,5,ISIP_5,21,9999,9999,9999,2258442356
84,20,5,ISIP_5,22,9999,9999,9999,2258943072
84,20,5,ISIP_5,23,9999,9999,9999,2259442768
84,20,5,ISIP_5,24,9999,9999,9999,2259942456
84,20,5,ISIP_5,25,9999,9999,9999,2260442228
84,20,5,ISIP_5,26,9999,9999,9999,2260942964
84,20,5,ISIP_5,27,9999,9999,9999,2261442664
84,20,5,ISIP_5,28,9999,9999,9999,2261942356
84,20,5,ISIP_5,29,9999,9999,9999,2262443096
84,20,5,ISIP_5,30,9999,9999,9999,2262942792
84,20,5,ISIP_5,31,9999,9999,9999,2263442488
84,20,5,ISIP_5,32,9999,9999,9999,2263942208
84,20,5,ISIP_5,33,9999,9999,9999,2264442996
84,20,5,ISIP_5,34,9999,9999,9999,2264942692
84,20,5,ISIP_5,35,9999,9999,9999,2265442392
84,20,5,ISIP_5,36,9999,9999,9999,2265942084
84,20,5,ISIP_5,37,9999,9999,9999,2266442824
84,20,5,ISIP_5,38,9999,9999,9999,2266942520
84,20,5,ISIP_5,39,9999,9999,9999,2267442288
84,20,5,ISIP_5,40,9999,9999,9999,2267942964
84,20,5,ISIP_5,41,9999,9999,9999,2268442728
84,20,5,ISIP_5,42,9999,9999,9999,2268942412
84,20,5,ISIP_5,43,9999,9999,9999,2269442104
84,20,5,ISIP_5,44,9999,9999,9999,2269942892
84,20,5,ISIP_5,45,9999,9999,9999,2270442584
84,20,5,ISIP_5,46,9999,9999,9999,2270942272
84,20,5,ISIP_5,47,9999,9999,9999,2271443008
84,20,5,ISIP_5,48,9999,9999,9999,2271942776
84,20,5,ISIP_5,49,9999,9999,9999,2272442468
84,20,5,ISIP_5,50,9999,9999,9999,2272942144
84,20,5,ISIP_5,51,9999,9999,9999,2273442884
84,20,5,ISIP_5,52,9999,9999,9999,2273942588
84,20,5,ISIP_5,53,9999,9999,9999,2274442356
84,20,5,ISIP_5,54,9999,9999,9999,2274943048
84,20,5,ISIP_5,55,9999,9999,9999,2275442768
84,20,5,ISIP_5,56,9999,9999,9999,2275942456
84,20,5,ISIP_5,57,9999,9999,9999,2276442220
84,20,5,ISIP_5,58,9999,9999,9999,2276942960
84,20,5,ISIP_5,59,9999,9999,9999,2277442652
84,20,5,ISIP_5,60,9999,9999,9999,2277942344
84,20,5,ISIP_5,61,9999,9999,9999,2278443084
84,20,5,ISIP_5,62,9999,9999,9999,2278942776
84,20,5,ISIP_5,63,9999,9999,9999,2279442540
84,20,5,ISIP_5,64,9999,9999,9999,2279942232
84,20,5,ISIP_5,65,9999,9999,9999,2280442944
84,20,5,ISIP_5,66,9999,9999,9999,2280942708
84,20,5,ISIP_5,67,9999,9999,9999,2281442396
84,20,5,ISIP_5,68,9999,9999,9999,2281942088
84,20,5,ISIP_5,69,9999,9999,9999,2282442828
84,20,5,ISIP_5,70,9999,9999,9999,2282942516
84,20,5,ISIP_5,71,9999,9999,9999,2283442280
84,20,5,ISIP_5,72,9999,9999,9999,2283943020
84,20,5,ISIP_5,73,9999,9999,9999,2284442708
84,20,5,ISIP_5,74,9999,9999,9999,2284942400
84,20,5,ISIP_5,75,9999,9999,9999,2285442164
84,20,5,ISIP_5,76,9999,9999,9999,2285942904
84,20,5,ISIP_5,77,9999,9999,9999,2286442592
84,20,5,ISIP_5,78,9999,9999,9999,2286942284
84,20,5,ISIP_5,79,9999,9999,9999,2287443020
84,20,5,ISIP_5,80,9999,9999,9999,2287942712
84,20,5,ISIP_5,81,9999,9999,9999,2288442476
84,20,5,ISIP_5,82,9999,9999,9999,2288942168
84,20,5,ISIP_5,83,9999,9999,9999,2289442904
84,20,5,ISIP_5,84,9999,9999,9999,2289942596
84,20,5,ISIP_5,85,9999,9999,9999,2290442288
84,20,5,ISIP_5,86,9999,9999,9999,2290943092
84,20,5,ISIP_5,87,9999,9999,9999,2291442760
84,20,5,ISIP_5,88,9999,9999,9999,2291942448
84,20,5,ISIP_5,89,9999,9999,9999,2292442212
84,20,5,ISIP_5,90,9999,9999,9999,2292942952
84,20,5,ISIP_5,91,9999,9999,9999,2293442640
84,20,5,ISIP_5,92,9999,9999,9999,2293942332
84,20,5,ISIP_5,93,9999,9999,9999,2294443072
84,20,5,ISIP_5,94,9999,9999,9999,2294942836
84,20,5,ISIP_5,95,9999,9999,9999,2295442528
84,20,5,ISIP_5,96,9999,9999,9999,2295942204
84,20,5,ISIP_5,97,9999,9999,9999,2296442956
84,20,5,ISIP_5,98,9999,9999,9999,2296942648
84,20,5,ISIP_5,99,9999,9999,9999,2297442360
84,20,5,ISIP_5,100,9999,9999,9999,2297942104
84,20,5,ISIP_5,101,9999,9999,9999,2298442840
84,20,5,ISIP_5,102,9999,9999,9999,2298942528
84,20,5,ISIP_5,103,9999,9999,9999,2299442280
84,20,5,ISIP_5,104,9999,9999,9999,2299943016
84,20,5,ISIP_5,105,9999,9999,9999,2300442708
84,20,5,ISIP_5,106,9999,9999,9999,2300942400
84,20,5,ISIP_5,107,9999,9999,9999,2301442164
84,20,5,ISIP_5,108,9999,9999,9999,2301942876
84,20,5,ISIP_5,109,9999,9999,9999,2302442568
84,20,5,ISIP_5,110,9999,9999,9999,2302942256
84,20,5,ISIP_5,111,9999,9999,9999,2303442996
84,20,5,ISIP_5,112,9999,9999,9999,2303942760
84,20,5,ISIP_5,113,9999,9999,9999,2304442448
84,20,5,ISIP_5,114,9999,9999,9999,2304942140
84,20,5,ISIP_5,115,9999,9999,9999,2305442876
84,20,5,ISIP_5,116,9999,9999,9999,2305942644
84,20,5,ISIP_5,117,9999,9999,9999,2306442332
84,20,5,ISIP_5,118,9999,9999,9999,2306943072
84,20,5,ISIP_5,119,9999,9999,9999,2307442764
84,20,5,ISIP_5,120,9999,9999,9999,2307942456
84,20,5,ISIP_5,121,9999,9999,9999,2308442220
84,20,5,ISIP_5,122,9999,9999,9999,2308942956
84,20,5,ISIP_5,123,9999,9999,9999,2309442644
84,20,5,ISIP_5,124,9999,9999,9999,2309942336
84,20,5,ISIP_5,125,9999,9999,9999,2310443072
84,20,5,ISIP_5,126,9999,9999,9999,2310942836
84,20,5,ISIP_5,127,9999,9999,9999,2311442488
84,20,5,ISIP_5,128,9999,9999,9999,2311942220
84,20,5,ISIP_5,129,9999,9999,9999,2312443000
84,20,5,ISIP_5,130,9999,9999,9999,2312942688
84,20,5,ISIP_5,131,9999,9999,9999,2313442380
84,20,5,ISIP_5,132,9999,9999,9999,2313942072
84,20,5,ISIP_5,133,9999,9999,9999,2314442812
84,20,5,ISIP_5,134,9999,9999,9999,2314942576
84,20,5,ISIP_5,135,9999,9999,9999,2315442268
84,20,5,ISIP_5,136,9999,9999,9999,2315943008
84,20,5,ISIP_5,137,9999,9999,9999,2316442680
84,20,5,ISIP_5,138,9999,9999,9999,2316942388
84,20,5,ISIP_5,139,9999,9999,9999,2317442136
84,20,5,ISIP_5,140,9999,9999,9999,2317942872
84,20,5,ISIP_5,141,9999,9999,9999,2318442564
84,20,5,ISIP_5,142,9999,9999,9999,2318942328
84,20,5,ISIP_5,143,9999,9999,9999,2319443064
84,20,5,ISIP_5,144,9999,9999,9999,2319942756
84,20,5,ISIP_5,145,9999,9999,9999,2320442444
84,20,5,ISIP_5,146,9999,9999,9999,2320942136
84,20,5,ISIP_5,147,9999,9999,9999,2321442872
84,20,5,ISIP_5,148,9999,9999,9999,2321942640
84,20,5,ISIP_5,149,9999,9999,9999,2322442332
84,20,5,ISIP_5,150,9999,9999,9999,2322943068
84,20,5,ISIP_5,151,9999,9999,9999,2323442808
84,20,5,ISIP_5,152,9999,9999,9999,2323942500
84,20,5,ISIP_5,153,9999,9999,9999,2324442188
84,20,5,ISIP_5,154,9999,9999,9999,2324942928
84,20,5,ISIP_5,155,9999,9999,9999,2325442616
84,20,5,ISIP_5,156,9999,9999,9999,2325942380
84,20,5,ISIP_5,157,9999,9999,9999,2326443120
84,20,5,ISIP_5,158,9999,9999,9999,2326942808
84,20,5,ISIP_5,159,9999,9999,9999,2327442500
84,21,3,ISIP_8,0,5,42,127,2350447952
84,21,3,ISIP_8,1,5,42,127,2351247628
84,21,3,ISIP_8,2,1,48,18,2352043456
84,21,3,ISIP_8,3,5,42,127,2352047600
84,21,3,ISIP_8,4,5,42,127,2352848092
84,21,3,ISIP_8,5,1,48,28,2352863252
84,21,3,ISIP_8,6,5,42,127,2353648120
84,21,3,ISIP_8,7,1,48,27,2353655956
84,21,3,ISIP_8,8,5,42,127,2354447656
84,21,3,ISIP_8,9,1,48,24,2354470596
84,21,3,ISIP_8,10,5,42,127,2355247464
84,21,3,ISIP_8,11,1,48,21,2355269576
84,21,3,ISIP_8,12,1,48,25,2356043792
84,21,3,ISIP_8,13,5,42,127,2356048164
84,21,3,ISIP_8,14,5,42,127,2356847976
84,21,3,ISIP_8,15,1,48,24,2356873008
84,21,3,ISIP_8,16,1,48,26,2357646504
84,21,3,ISIP_8,17,5,42,127,2357647928
84,21,3,ISIP_8,18,1,48,27,2358422196
84,21,3,ISIP_8,19,5,42,127,2358447512
84,21,3,ISIP_8,20,1,48,32,2359224024
84,21,3,ISIP_8,21,5,42,127,2359248216
84,21,3,ISIP_8,22,1,48,26,2360020020
84,21,3,ISIP_8,23,5,42,127,2360047952
84,21,3,ISIP_8,24,1,48,28,2360834736
84,21,3,ISIP_8,25,5,42,127,2360847784
84,21,3,ISIP_8,26,1,48,28,2361590164
84,21,3,ISIP_8,27,5,42,127,2361647368
84,21,3,ISIP_8,28,1,48,31,2362435996
84,21,3,ISIP_8,29,5,42,127,2362448300
84,21,3,ISIP_8,30,1,48,30,2363191752
84,21,3,ISIP_8,31,5,42,127,2363248032
84,21,3,ISIP_8,32,5,42,127,2364047848
84,21,3,ISIP_8,33,1,48,29,2364082904
84,21,3,ISIP_8,34,1,48,26,2364829660
84,21,3,ISIP_8,35,5,42,127,2364847424
84,21,3,ISIP_8,36,1,48,27,2365614216
84,21,3,ISIP_8,37,5,42,127,2365648280
84,21,3,ISIP_8,38,1,48,28,2366427708
84,21,3,ISIP_8,39,5,42,127,2366448088
84,21,3,ISIP_8,40,1,48,29,2367244220
84,21,3,ISIP_8,41,5,42,127,2367247844
84,21,3,ISIP_8,42,1,48,28,2368014488
84,21,3,ISIP_8,43,5,42,127,2368047432
84,21,3,ISIP_8,44,1,48,26,2368842268
84,21,3,ISIP_8,45,5,42,127,2368848136
84,21,3,ISIP_8,46,1,48,30,2369636840
84,21,3,ISIP_8,47,5,42,127,2369647944
84,21,3,ISIP_8,48,5,42,127,2370447684
84,21,3,ISIP_8,49,1,48,25,2370456640
84,21,3,ISIP_8,50,5,42,127,2371247320
84,21,3,ISIP_8,51,1,48,29,2371253052
84,21,3,ISIP_8,52,1,48,25,2372041248
84,21,3,ISIP_8,53,5,42,127,2372048092
84,21,3,ISIP_8,54,1,48,23,2372808148
84,21,3,ISIP_8,55,5,42,127,2372847972
84,21,3,ISIP_8,56,1,48,32,2373642612
84,21,3,ISIP_8,57,5,42,127,2373647880
84,21,3,ISIP_8,58,1,48,24,2374457844
84,21,3,ISIP_8,59,1,48,29,2375279412
84,21,3,ISIP_8,60,1,48,26,2376073980
84,21,3,ISIP_8,61,1,48,27,2376871020
84,21,3,ISIP_8,62,1,48,26,2377623012
84,21,3,ISIP_8,63,1,48,23,2378504908
84,21,3,ISIP_8,64,1,48,26,2379336648
84,21,3,ISIP_8,65,1,48,24,2380167796
84,21,3,ISIP_8,66,1,48,23,2380980616
84,21,3,ISIP_8,67,1,48,25,2381810712
84,21,3,ISIP_8,68,1,48,26,2382638888
84,21,3,ISIP_8,69,1,48,22,2383494116
84,21,3,ISIP_8,70,1,48,21,2384287560
84,21,3,ISIP_8,71,1,48,29,2385123644
84,21,3,ISIP_8,72,1,48,24,2385938132
84,21,3,ISIP_8,73,1,48,30,2386733600
84,21,3,ISIP_8,74,1,48,25,2387515228
84,21,3,ISIP_8,75,1,48,27,2388423716
84,21,3,ISIP_8,76,1,48,27,2389215960
84,21,3,ISIP_8,77,1,48,29,2390050872
84,21,3,ISIP_8,78,1,48,25,2390879252
84,21,3,ISIP_8,79,1,48,29,2391722212
84,21,3,ISIP_8,80,1,48,24,2392520664
84,21,3,ISIP_8,81,1,48,23,2393331388
84,21,3,ISIP_8,82,1,48,27,2394164284
84,21,3,ISIP_8,83,1,48,26,2395035816
84,21,3,ISIP_8,84,1,48,24,2395837716
84,21,3,ISIP_8,85,1,48,22,2396678756
84,21,3,ISIP_8,86,1,48,27,2397453356
84,21,3,ISIP_8,87,1,48,19,2398303348
84,21,3,ISIP_8,88,1,48,23,2399097612
84,21,3,ISIP_8,89,1,48,25,2399935264
84,21,3,ISIP_8,90,1,48,24,2400740300
84,21,3,ISIP_8,91,1,48,24,2401576856
84,21,3,ISIP_8,92,1,48,25,2402408680
84,21,3,ISIP_8,93,1,48,20,2403248140
84,21,3,ISIP_8,94,1,48,27,2404109972
84,21,3,ISIP_8,95,1,48,17,2404980988
84,21,3,ISIP_8,96,1,48,24,2405817288
84,21,3,ISIP_8,97,1,48,25,2406647688
84,21,3,ISIP_8,98,1,48,25,2407448488
84,21,3,ISIP_8,99,1,48,21,2408267968
84,21,3,ISIP_8,100,1,48,21,2409075176
84,21,3,ISIP_8,101,1,48,23,2409980172
84,21,3,ISIP_8,102,1,48,22,2410794780
84,21,3,ISIP_8,103,1,48,25,2411597576
84,21,3,ISIP_8,104,1,48,23,2412392968
84,21,3,ISIP_8,105,1,48,24,2413266004
84,21,3,ISIP_8,106,1,48,22,2414030648
84,21,3,ISIP_8,107,1,48,21,2414777192
84,21,3,ISIP_8,108,1,48,22,2415642100
84,21,3,ISIP_8,109,1,48,27,2416443996
84,21,3,ISIP_8,110,1,48,22,2417235424
84,21,3,ISIP_8,111,1,48,27,2418055204
84,21,3,ISIP_8,112,1,48,23,2418873556
84,21,3,ISIP_8,113,1,48,24,2419696244
84,21,3,ISIP_8,114,1,48,21,2420474008
84,21,3,ISIP_8,115,1,48,22,2421354744
84,21,3,ISIP_8,116,1,48,19,2422133904
84,21,3,ISIP_8,117,1,48,25,2422883368
84,21,3,ISIP_8,118,1,48,19,2423729620
84,21,3,ISIP_8,119,1,48,25,2424490084
84,21,3,ISIP_8,120,1,48,20,2425307908
84,21,3,ISIP_8,121,1,48,28,2426112304
84,21,3,ISIP_8,122,1,48,25,2426950852
84,21,3,ISIP_8,123,1,48,22,2427745944
84,21,3,ISIP_8,124,1,48,24,2428511268
84,21,3,ISIP_8,125,1,48,27,2429323784
84,21,3,ISIP_8,126,1,48,25,2430106236
84,21,3,ISIP_8,127,1,48,25,2430898636
84,21,3,ISIP_8,128,1,48,26,2431695668
84,21,3,ISIP_8,129,1,48,27,2432502056
84,21,3,ISIP_8,130,1,48,25,2433291636
84,21,3,ISIP_8,131,1,48,26,2434065416
84,21,3,ISIP_8,132,1,48,26,2434876584
84,21,3,ISIP_8,133,1,48,21,2435692244
84,21,3,ISIP_8,134,1,48,18,2436445600
84,21,3,ISIP_8,135,1,48,23,2437372804
84,21,3,ISIP_8,136,1,48,20,2438179416
84,21,3,ISIP_8,137,1,48,21,2438960820
84,21,3,ISIP_8,138,1,48,21,2439787556
84,21,3,ISIP_8,139,1,48,23,2440582868
84,21,3,ISIP_8,140,1,48,19,2441355672
84,21,3,ISIP_8,141,1,48,26,2442140216
84,21,3,ISIP_8,142,1,48,22,2442965080
84,21,3,ISIP_8,143,1,48,22,2443786672
84,21,3,ISIP_8,144,1,48,20,2444631652
84,21,3,ISIP_8,145,1,48,22,2445408496
84,21,3,ISIP_8,146,1,48,21,2446196404
84,21,3,ISIP_8,147,1,48,22,2447061436
84,21,3,ISIP_8,148,1,48,23,2447848368
84,21,3,ISIP_8,149,1,48,21,2448702352
84,21,3,ISIP_8,150,1,48,18,2449516444
84,21,3,ISIP_8,151,1,48,26,2450271448
84,21,3,ISIP_8,152,1,48,22,2451133180
84,21,3,ISIP_8,153,1,48,21,2451942640
84,21,3,ISIP_8,154,1,48,20,2452733560
84,21,3,ISIP_8,155,1,48,18,2453544364
84,21,3,ISIP_8,156,1,48,24,2454332428
84,21,3,ISIP_8,157,1,48,26,2455228792
84,21,3,ISIP_8,158,1,48,27,2456054964
84,21,3,ISIP_8,159,1,48,23,2456934576
84,21,3,ISIP_8,160,1,48,21,2457788684
84,21,3,ISIP_8,161,1,48,16,2458622396
84,21,3,ISIP_8,162,1,48,19,2459467672
84,21,3,ISIP_8,163,1,48,20,2460233444
84,21,3,ISIP_8,164,1,48,22,2461044772
84,21,3,ISIP_8,165,1,48,20,2461850856
84,21,3,ISIP_8,166,1,48,25,2462587900
84,21,3,ISIP_8,167,1,48,21,2463420472
84,21,3,ISIP_8,168,1,48,26,2464224316
84,21,3,ISIP_8,169,1,48,18,2465028628
84,21,3,ISIP_8,170,1,48,25,2465776872
84,21,3,ISIP_8,171,1,48,24,2466572736
84,21,3,ISIP_8,172,1,48,25,2467333200
84,21,3,ISIP_8,173,1,48,19,2468176084
84,21,3,ISIP_8,174,1,48,22,2469029144
84,21,3,ISIP_8,175,1,48,21,2469870380
84,21,3,ISIP_8,0,9999,9999,9999,2350445660
84,21,3,ISIP_8,1,9999,9999,9999,2351245416
84,21,3,ISIP_8,2,9999,9999,9999,2352045164
84,21,3,ISIP_8,3,9999,9999,9999,2352845876
84,21,3,ISIP_8,4,9999,9999,9999,2353645684
84,21,3,ISIP_8,5,9999,9999,9999,2354445368
84,21,3,ISIP_8,6,9999,9999,9999,2355245176
84,21,3,ISIP_8,7,9999,9999,9999,2356045876
84,21,3,ISIP_8,8,9999,9999,9999,2356845688
84,21,3,ISIP_8,9,9999,9999,9999,2357645420
84,21,3,ISIP_8,10,9999,9999,9999,2358445148
84,21,3,ISIP_8,11,9999,9999,9999,2359245928
84,21,3,ISIP_8,12,9999,9999,9999,2360045660
84,21,3,ISIP_8,13,9999,9999,9999,2360845420
84,21,3,ISIP_8,14,9999,9999,9999,2361645156
84,21,3,ISIP_8,15,9999,9999,9999,2362445936
84,21,3,ISIP_8,16,9999,9999,9999,2363245668
84,21,3,ISIP_8,17,9999,9999,9999,2364045412
84,21,3,ISIP_8,18,9999,9999,9999,2364845136
84,21,3,ISIP_8,19,9999,9999,9999,2365645916
84,21,3,ISIP_8,20,9999,9999,9999,2366445648
84,21,3,ISIP_8,21,9999,9999,9999,2367245408
84,21,3,ISIP_8,22,9999,9999,9999,2368045140
84,21,3,ISIP_8,23,9999,9999,9999,2368845920
84,21,3,ISIP_8,24,9999,9999,9999,2369645656
84,21,3,ISIP_8,25,9999,9999,9999,2370445396
84,21,3,ISIP_8,26,9999,9999,9999,2371245104
84,21,3,ISIP_8,27,9999,9999,9999,2372045876
84,21,3,ISIP_8,28,9999,9999,9999,2372845684
84,21,3,ISIP_8,29,9999,9999,9999,2373645368
84,21,3,ISIP_8,30,9999,9999,9999,2374445108
84,21,3,ISIP_8,31,9999,9999,9999,2375245884
84,21,3,ISIP_8,32,9999,9999,9999,2376045616
84,21,3,ISIP_8,33,9999,9999,9999,2376845416
84,21,3,ISIP_8,34,9999,9999,9999,2377645144
84,21,3,ISIP_8,35,9999,9999,9999,2378445924
84,21,3,ISIP_8,36,9999,9999,9999,2379245656
84,21,3,ISIP_8,37,9999,9999,9999,2380045408
84,21,3,ISIP_8,38,9999,9999,9999,2380845136
84,21,3,ISIP_8,39,9999,9999,9999,2381645912
84,21,3,ISIP_8,40,9999,9999,9999,2382445644
84,21,3,ISIP_8,41,9999,9999,9999,2383245372
84,21,3,ISIP_8,42,9999,9999,9999,2384045100
84,21,3,ISIP_8,43,9999,9999,9999,2384845876
84,21,3,ISIP_8,44,9999,9999,9999,2385645680
84,21,3,ISIP_8,45,9999,9999,9999,2386445360
84,21,3,ISIP_8,46,9999,9999,9999,2387245164
84,21,3,ISIP_8,47,9999,9999,9999,2388045940
84,21,3,ISIP_8,48,9999,9999,9999,2388845668
84,21,3,ISIP_8,49,9999,9999,9999,2389645396
84,21,3,ISIP_8,50,9999,9999,9999,2390445128
84,21,3,ISIP_8,51,9999,9999,9999,2391245904
84,21,3,ISIP_8,52,9999,9999,9999,2392045636
84,21,3,ISIP_8,53,9999,9999,9999,2392845388
84,21,3,ISIP_8,54,9999,9999,9999,2393645116
84,21,3,ISIP_8,55,9999,9999,9999,2394445892
84,21,3,ISIP_8,56,9999,9999,9999,2395245620
84,21,3,ISIP_8,57,9999,9999,9999,2396045424
84,21,3,ISIP_8,58,9999,9999,9999,2396845156
84,21,3,ISIP_8,59,9999,9999,9999,2397645932
84,21,3,ISIP_8,60,9999,9999,9999,2398445660
84,21,3,ISIP_8,61,9999,9999,9999,2399245412
84,21,3,ISIP_8,62,9999,9999,9999,2400045144
84,21,3,ISIP_8,63,9999,9999,9999,2400845916
84,21,3,ISIP_8,64,9999,9999,9999,2401645664
84,21,3,ISIP_8,65,9999,9999,9999,2402445392
84,21,3,ISIP_8,66,9999,9999,9999,2403245128
84,21,3,ISIP_8,67,9999,9999,9999,2404045904
84,21,3,ISIP_8,68,9999,9999,9999,2404845632
84,21,3,ISIP_8,69,9999,9999,9999,2405645392
84,21,3,ISIP_8,70,9999,9999,9999,2406445120
84,21,3,ISIP_8,71,9999,9999,9999,2407245896
84,21,3,ISIP_8,72,9999,9999,9999,2408045624
84,21,3,ISIP_8,73,9999,9999,9999,2408845428
84,21,3,ISIP_8,74,9999,9999,9999,2409645156
84,21,3,ISIP_8,75,9999,9999,9999,2410445932
84,21,3,ISIP_8,76,9999,9999,9999,2411245660
84,21,3,ISIP_8,77,9999,9999,9999,2412045416
84,21,3,ISIP_8,78,9999,9999,9999,2412845144
84,21,3,ISIP_8,79,9999,9999,9999,2413645920
84,21,3,ISIP_8,80,9999,9999,9999,2414445652
84,21,3,ISIP_8,81,9999,9999,9999,2415245380
84,21,3,ISIP_8,82,9999,9999,9999,2416045108
84,21,3,ISIP_8,83,9999,9999,9999,2416845884
84,21,3,ISIP_8,84,9999,9999,9999,2417645616
84,21,3,ISIP_8,85,9999,9999,9999,2418445368
84,21,3,ISIP_8,86,9999,9999,9999,2419245172
84,21,3,ISIP_8,87,9999,9999,9999,2420045872
84,21,3,ISIP_8,88,9999,9999,9999,2420845676
84,21,3,ISIP_8,89,9999,9999,9999,2421645404
84,21,3,ISIP_8,90,9999,9999,9999,2422445136
84,21,3,ISIP_8,91,9999,9999,9999,2423245912
84,21,3,ISIP_8,92,9999,9999,9999,2424045640
84,21,3,ISIP_8,93,9999,9999,9999,2424845392
84,21,3,ISIP_8,94,9999,9999,9999,2425645124
84,21,3,ISIP_8,95,9999,9999,9999,2426445900
84,21,3,ISIP_8,96,9999,9999,9999,2427245628
84,21,3,ISIP_8,97,9999,9999,9999,2428045356
84,21,3,ISIP_8,98,9999,9999,9999,2428845160
84,21,3,ISIP_8,99,9999,9999,9999,2429645936
84,21,3,ISIP_8,100,9999,9999,9999,2430445668
84,21,3,ISIP_8,101,9999,9999,9999,2431245420
84,21,3,ISIP_8,102,9999,9999,9999,2432045148
84,21,3,ISIP_8,103,9999,9999,9999,2432845924
84,21,3,ISIP_8,104,9999,9999,9999,2433645652
84,21,3,ISIP_8,105,9999,9999,9999,2434445384
84,21,3,ISIP_8,106,9999,9999,9999,2435245112
84,21,3,ISIP_8,107,9999,9999,9999,2436045888
84,21,3,ISIP_8,108,9999,9999,9999,2436845616
84,21,3,ISIP_8,109,9999,9999,9999,2437645372
84,21,3,ISIP_8,110,9999,9999,9999,2438445176
84,21,3,ISIP_8,111,9999,9999,9999,2439245876
84,21,3,ISIP_8,112,9999,9999,9999,2440045680
84,21,3,ISIP_8,113,9999,9999,9999,2440845408
84,21,3,ISIP_8,114,9999,9999,9999,2441645136
84,21,3,ISIP_8,115,9999,9999,9999,2442445912
84,21,3,ISIP_8,116,9999,9999,9999,2443245640
84,21,3,ISIP_8,117,9999,9999,9999,2444045396
84,21,3,ISIP_8,118,9999,9999,9999,2444845124
84,21,3,ISIP_8,119,9999,9999,9999,2445645900
84,21,3,ISIP_8,120,9999,9999,9999,2446445632
84,21,3,ISIP_8,121,9999,9999,9999,2447245360
84,21,3,ISIP_8,122,9999,9999,9999,2448045164
84,21,3,ISIP_8,123,9999,9999,9999,2448845940
84,21,3,ISIP_8,124,9999,9999,9999,2449645668
84,21,3,ISIP_8,125,9999,9999,9999,2450445424
84,21,3,ISIP_8,126,9999,9999,9999,2451245152
84,21,3,ISIP_8,127,9999,9999,9999,2452045928
84,21,3,ISIP_8,128,9999,9999,9999,2452845660
84,21,3,ISIP_8,129,9999,9999,9999,2453645388
84,21,3,ISIP_8,130,9999,9999,9999,2454445120
84,21,3,ISIP_8,131,9999,9999,9999,2455245908
84,21,3,ISIP_8,132,9999,9999,9999,2456045644
84,21,3,ISIP_8,133,9999,9999,9999,2456845400
84,21,3,ISIP_8,134,9999,9999,9999,2457645128
84,21,3,ISIP_8,135,9999,9999,9999,2458445904
84,21,3,ISIP_8,136,9999,9999,9999,2459245632
84,21,3,ISIP_8,137,9999,9999,9999,2460045364
84,21,3,ISIP_8,138,9999,9999,9999,2460845168
84,21,3,ISIP_8,139,9999,9999,9999,2461645944
84,21,3,ISIP_8,140,9999,9999,9999,2462445672
84,21,3,ISIP_8,141,9999,9999,9999,2463245424
84,21,3,ISIP_8,142,9999,9999,9999,2464045156
84,21,3,ISIP_8,143,9999,9999,9999,2464845928
84,21,3,ISIP_8,144,9999,9999,9999,2465645660
84,21,3,ISIP_8,145,9999,9999,9999,2466445388
84,21,3,ISIP_8,146,9999,9999,9999,2467245116
84,21,3,ISIP_8,147,9999,9999,9999,2468045892
84,21,3,ISIP_8,148,9999,9999,9999,2468845620
84,21,3,ISIP_8,149,9999,9999,9999,2469645376
84,22,11,Pattern_Practice,0,5,42,127,2573918704
84,22,11,Pattern_Practice,1,5,42,127,2574419244
84,22,11,Pattern_Practice,2,5,42,127,2574918960
84,22,11,Pattern_Practice,3,5,42,127,2575418604
84,22,11,Pattern_Practice,4,5,42,127,2575918616
84,22,11,Pattern_Practice,5,5,42,127,2576419156
84,22,11,Pattern_Practice,6,5,42,127,2576918876
84,22,11,Pattern_Practice,7,1,38,21,2577348140
84,22,11,Pattern_Practice,8,5,42,127,2577418732
84,22,11,Pattern_Practice,9,5,42,127,2577919256
84,22,11,Pattern_Practice,10,1,38,23,2577971064
84,22,11,Pattern_Practice,11,5,42,127,2578418952
84,22,11,Pattern_Practice,12,1,38,23,2578487448
84,22,11,Pattern_Practice,13,5,42,127,2578918696
84,22,11,Pattern_Practice,14,1,38,17,2578989680
84,22,11,Pattern_Practice,15,5,42,127,2579418612
84,22,11,Pattern_Practice,16,1,38,21,2579443224
84,22,11,Pattern_Practice,17,5,42,127,2579919356
84,22,11,Pattern_Practice,18,1,38,17,2579939828
84,22,11,Pattern_Practice,19,5,42,127,2580418900
84,22,11,Pattern_Practice,20,1,38,23,2580425012
84,22,11,Pattern_Practice,21,5,42,127,2580918596
84,22,11,Pattern_Practice,22,1,38,25,2580930916
84,22,11,Pattern_Practice,23,5,42,127,2581419708
84,22,11,Pattern_Practice,24,1,38,27,2581450056
84,22,11,Pattern_Practice,25,5,42,127,2581919032
84,22,11,Pattern_Practice,26,1,48,32,2582064292
84,22,11,Pattern_Practice,27,1,48,27,2582261532
84,22,11,Pattern_Practice,28,1,48,19,2582348056
84,22,11,Pattern_Practice,29,5,42,127,2582418772
84,22,11,Pattern_Practice,30,1,38,47,2582702468
84,22,11,Pattern_Practice,31,5,42,127,2582918676
84,22,11,Pattern_Practice,32,1,38,19,2583230280
84,22,11,Pattern_Practice,33,5,42,127,2583419268
84,22,11,Pattern_Practice,34,1,38,22,2583749652
84,22,11,Pattern_Practice,35,5,42,127,2583918812
84,22,11,Pattern_Practice,36,5,42,127,2584418752
84,22,11,Pattern_Practice,37,1,38,21,2584647184
84,22,11,Pattern_Practice,38,1,38,17,2584808804
84,22,11,Pattern_Practice,39,5,42,127,2584919548
84,22,11,Pattern_Practice,40,1,38,23,2585006368
84,22,11,Pattern_Practice,41,1,38,23,2585137192
84,22,11,Pattern_Practice,42,1,38,26,2585361208
84,22,11,Pattern_Practice,43,5,42,127,2585419064
84,22,11,Pattern_Practice,44,5,42,127,2585918764
84,22,11,Pattern_Practice,45,1,48,22,2585940360
84,22,11,Pattern_Practice,46,5,42,127,2586418680
84,22,11,Pattern_Practice,47,1,48,21,2586459800
84,22,11,Pattern_Practice,48,5,42,127,2586919348
84,22,11,Pattern_Practice,49,1,48,45,2586961660
84,22,11,Pattern_Practice,50,5,42,127,2587418896
84,22,11,Pattern_Practice,51,1,48,53,2587456796
84,22,11,Pattern_Practice,52,5,42,127,2587918668
84,22,11,Pattern_Practice,53,1,38,28,2587951184
84,22,11,Pattern_Practice,54,1,38,20,2588069564
84,22,11,Pattern_Practice,55,1,38,25,2588242500
84,22,11,Pattern_Practice,56,1,38,23,2588335748
84,22,11,Pattern_Practice,57,5,42,127,2588418608
84,22,11,Pattern_Practice,58,1,48,28,2588901188
84,22,11,Pattern_Practice,59,5,42,127,2588919348
84,22,11,Pattern_Practice,60,5,42,127,2589418728
84,22,11,Pattern_Practice,61,1,48,52,2589420592
84,22,11,Pattern_Practice,62,1,48,57,2589916376
84,22,11,Pattern_Practice,63,5,42,127,2589918492
84,22,11,Pattern_Practice,64,1,38,22,2590391748
84,22,11,Pattern_Practice,65,5,42,127,2590419456
84,22,11,Pattern_Practice,66,1,38,25,2590499624
84,22,11,Pattern_Practice,67,1,38,19,2590638952
84,22,11,Pattern_Practice,68,1,38,16,2590788324
84,22,11,Pattern_Practice,69,5,42,127,2590919016
84,22,11,Pattern_Practice,70,5,42,127,2591418656
84,22,11,Pattern_Practice,71,1,48,72,2591460220
84,22,11,Pattern_Practice,72,1,48,51,2591917368
84,22,11,Pattern_Practice,73,5,42,127,2591918940
84,22,11,Pattern_Practice,74,5,42,127,2592419168
84,22,11,Pattern_Practice,75,1,48,51,2592430736
84,22,11,Pattern_Practice,76,1,48,48,2592905436
84,22,11,Pattern_Practice,77,5,42,127,2592918856
84,22,11,Pattern_Practice,78,1,48,20,2593400192
84,22,11,Pattern_Practice,79,5,42,127,2593418476
84,22,11,Pattern_Practice,80,5,42,127,2593919372
84,22,11,Pattern_Practice,81,1,38,23,2593968716
84,22,11,Pattern_Practice,82,1,38,30,2594070820
84,22,11,Pattern_Practice,83,1,38,42,2594209544
84,22,11,Pattern_Practice,84,1,38,27,2594313220
84,22,11,Pattern_Practice,85,5,42,127,2594419000
84,22,11,Pattern_Practice,86,1,38,41,2594459896
84,22,11,Pattern_Practice,87,1,38,42,2594580392
84,22,11,Pattern_Practice,88,1,38,49,2594688308
84,22,11,Pattern_Practice,89,5,42,127,2594918876
84,22,11,Pattern_Practice,90,1,48,59,2595048100
84,22,11,Pattern_Practice,91,5,42,127,2595418496
84,22,11,Pattern_Practice,92,1,48,46,2595498356
84,22,11,Pattern_Practice,93,1,48,31,2595583700
84,22,11,Pattern_Practice,94,1,48,51,2595747484
84,22,11,Pattern_Practice,95,5,42,127,2595919264
84,22,11,Pattern_Practice,96,1,48,48,2596101404
84,22,11,Pattern_Practice,97,5,42,127,2596419036
84,22,11,Pattern_Practice,98,1,38,39,2596629744
84,22,11,Pattern_Practice,99,5,42,127,2596918508
84,22,11,Pattern_Practice,100,1,48,64,2597151724
84,22,11,Pattern_Practice,101,5,42,127,2597419400
84,22,11,Pattern_Practice,102,1,48,46,2597560144
84,22,11,Pattern_Practice,103,1,48,27,2597641152
84,22,11,Pattern_Practice,104,1,48,19,2597823412
84,22,11,Pattern_Practice,105,5,42,127,2597919196
84,22,11,Pattern_Practice,106,1,48,21,2597943560
84,22,11,Pattern_Practice,107,1,38,34,2598315756
84,22,11,Pattern_Practice,108,5,42,127,2598418648
84,22,11,Pattern_Practice,109,5,42,127,2598918440
84,22,11,Pattern_Practice,110,5,42,127,2599419352
84,22,11,Pattern_Practice,111,1,48,42,2599495100
84,22,11,Pattern_Practice,112,5,42,127,2599919120
84,22,11,Pattern_Practice,113,5,42,127,2600418664
84,22,11,Pattern_Practice,114,1,38,29,2600473720
84,22,11,Pattern_Practice,115,5,42,127,2600919404
84,22,11,Pattern_Practice,116,1,38,32,2600995104
84,22,11,Pattern_Practice,117,5,42,127,2601419100
84,22,11,Pattern_Practice,118,1,38,24,2601510208
84,22,11,Pattern_Practice,119,5,42,127,2601918720
84,22,11,Pattern_Practice,120,1,38,23,2601965520
84,22,11,Pattern_Practice,121,5,42,127,2602418392
84,22,11,Pattern_Practice,122,1,38,24,2602460184
84,22,11,Pattern_Practice,123,5,42,127,2602919208
84,22,11,Pattern_Practice,124,1,38,33,2602994304
84,22,11,Pattern_Practice,125,5,42,127,2603419124
84,22,11,Pattern_Practice,126,1,48,17,2603472660
84,22,11,Pattern_Practice,127,1,48,44,2603623904
84,22,11,Pattern_Practice,128,1,48,21,2603734804
84,22,11,Pattern_Practice,129,1,48,43,2603870188
84,22,11,Pattern_Practice,130,5,42,127,2603918696
84,22,11,Pattern_Practice,131,1,48,26,2603984552
84,22,11,Pattern_Practice,132,5,42,127,2604418376
84,22,11,Pattern_Practice,133,1,38,58,2604487092
84,22,11,Pattern_Practice,134,5,42,127,2604919116
84,22,11,Pattern_Practice,135,1,38,45,2604971748
84,22,11,Pattern_Practice,136,5,42,127,2605418956
84,22,11,Pattern_Practice,137,1,38,46,2605511236
84,22,11,Pattern_Practice,138,5,42,127,2605918504
84,22,11,Pattern_Practice,139,1,38,46,2605976520
84,22,11,Pattern_Practice,140,1,38,18,2606056308
84,22,11,Pattern_Practice,141,5,42,127,2606419448
84,22,11,Pattern_Practice,142,1,48,17,2606458768
84,22,11,Pattern_Practice,143,1,48,41,2606604332
84,22,11,Pattern_Practice,144,1,48,22,2606740740
84,22,11,Pattern_Practice,145,1,48,22,2606894896
84,22,11,Pattern_Practice,146,5,42,127,2606919092
84,22,11,Pattern_Practice,147,1,48,42,2607097844
84,22,11,Pattern_Practice,148,5,42,127,2607418700
84,22,11,Pattern_Practice,149,1,38,49,2607624248
84,22,11,Pattern_Practice,150,5,42,127,2607918540
84,22,11,Pattern_Practice,151,1,38,25,2608090628
84,22,11,Pattern_Practice,152,5,42,127,2608419284
84,22,11,Pattern_Practice,153,1,38,24,2608705912
84,22,11,Pattern_Practice,154,5,42,127,2608919128
84,22,11,Pattern_Practice,155,1,38,42,2609253176
84,22,11,Pattern_Practice,156,5,42,127,2609418524
84,22,11,Pattern_Practice,157,1,38,47,2609882496
84,22,11,Pattern_Practice,158,5,42,127,2609919356
84,22,11,Pattern_Practice,159,1,38,40,2610411356
84,22,11,Pattern_Practice,160,5,42,127,2610419196
84,22,11,Pattern_Practice,161,1,48,24,2610914796
84,22,11,Pattern_Practice,162,5,42,127,2610918716
84,22,11,Pattern_Practice,163,1,48,48,2611069420
84,22,11,Pattern_Practice,164,1,48,30,2611224104
84,22,11,Pattern_Practice,165,1,48,40,2611361116
84,22,11,Pattern_Practice,166,5,42,127,2611418368
84,22,11,Pattern_Practice,167,1,48,40,2611548876
84,22,11,Pattern_Practice,168,5,42,127,2611919168
84,22,11,Pattern_Practice,169,1,38,46,2612006904
84,22,11,Pattern_Practice,170,1,38,29,2612056700
84,22,11,Pattern_Practice,171,5,42,127,2612419212
84,22,11,Pattern_Practice,172,1,38,53,2612551984
84,22,11,Pattern_Practice,173,5,42,127,2612918612
84,22,11,Pattern_Practice,174,1,38,27,2613017048
84,22,11,Pattern_Practice,175,1,38,52,2613119052
84,22,11,Pattern_Practice,176,1,38,34,2613159268
84,22,11,Pattern_Practice,177,1,38,24,2613305428
84,22,11,Pattern_Practice,178,1,38,44,2613379304
84,22,11,Pattern_Practice,179,5,42,127,2613419280
84,22,11,Pattern_Practice,180,1,38,38,2613526076
84,22,11,Pattern_Practice,0,9999,9999,9999,2573916268
84,22,11,Pattern_Practice,1,9999,9999,9999,2574416956
84,22,11,Pattern_Practice,2,9999,9999,9999,2574916672
84,22,11,Pattern_Practice,3,9999,9999,9999,2575416392
84,22,11,Pattern_Practice,4,9999,9999,9999,2575916104
84,22,11,Pattern_Practice,5,9999,9999,9999,2576416868
84,22,11,Pattern_Practice,6,9999,9999,9999,2576916588
84,22,11,Pattern_Practice,7,9999,9999,9999,2577416296
84,22,11,Pattern_Practice,8,9999,9999,9999,2577917044
84,22,11,Pattern_Practice,9,9999,9999,9999,2578416736
84,22,11,Pattern_Practice,10,9999,9999,9999,2578916408
84,22,11,Pattern_Practice,11,9999,9999,9999,2579416176
84,22,11,Pattern_Practice,12,9999,9999,9999,2579916920
84,22,11,Pattern_Practice,13,9999,9999,9999,2580416612
84,22,11,Pattern_Practice,14,9999,9999,9999,2580916308
84,22,11,Pattern_Practice,15,9999,9999,9999,2581417048
84,22,11,Pattern_Practice,16,9999,9999,9999,2581916744
84,22,11,Pattern_Practice,17,9999,9999,9999,2582416484
84,22,11,Pattern_Practice,18,9999,9999,9999,2582916164
84,22,11,Pattern_Practice,19,9999,9999,9999,2583416904
84,22,11,Pattern_Practice,20,9999,9999,9999,2583916596
84,22,11,Pattern_Practice,21,9999,9999,9999,2584416316
84,22,11,Pattern_Practice,22,9999,9999,9999,2584917108
84,22,11,Pattern_Practice,23,9999,9999,9999,2585416776
84,22,11,Pattern_Practice,24,9999,9999,9999,2585916476
84,22,11,Pattern_Practice,25,9999,9999,9999,2586416244
84,22,11,Pattern_Practice,26,9999,9999,9999,2586916912
84,22,11,Pattern_Practice,27,9999,9999,9999,2587416684
84,22,11,Pattern_Practice,28,9999,9999,9999,2587916380
84,22,11,Pattern_Practice,29,9999,9999,9999,2588416096
84,22,11,Pattern_Practice,30,9999,9999,9999,2588916840
84,22,11,Pattern_Practice,31,9999,9999,9999,2589416516
84,22,11,Pattern_Practice,32,9999,9999,9999,2589916240
84,22,11,Pattern_Practice,33,9999,9999,9999,2590416944
84,22,11,Pattern_Practice,34,9999,9999,9999,2590916728
84,22,11,Pattern_Practice,35,9999,9999,9999,2591416372
84,22,11,Pattern_Practice,36,9999,9999,9999,2591916140
84,22,11,Pattern_Practice,37,9999,9999,9999,2592416880
84,22,11,Pattern_Practice,38,9999,9999,9999,2592916568
84,22,11,Pattern_Practice,39,9999,9999,9999,2593416264
84,22,11,Pattern_Practice,40,9999,9999,9999,2593917012
84,22,11,Pattern_Practice,41,9999,9999,9999,2594416712
84,22,11,Pattern_Practice,42,9999,9999,9999,2594916440
84,22,11,Pattern_Practice,43,9999,9999,9999,2595416132
84,22,11,Pattern_Practice,44,9999,9999,9999,2595916904
84,22,11,Pattern_Practice,45,9999,9999,9999,2596416600
84,22,11,Pattern_Practice,46,9999,9999,9999,2596916296
84,22,11,Pattern_Practice,47,9999,9999,9999,2597417036
84,22,11,Pattern_Practice,48,9999,9999,9999,2597916760
84,22,11,Pattern_Practice,49,9999,9999,9999,2598416436
84,22,11,Pattern_Practice,50,9999,9999,9999,2598916152
84,22,11,Pattern_Practice,51,9999,9999,9999,2599416916
84,22,11,Pattern_Practice,52,9999,9999,9999,2599916660
84,22,11,Pattern_Practice,53,9999,9999,9999,2600416376
84,22,11,Pattern_Practice,54,9999,9999,9999,2600917044
84,22,11,Pattern_Practice,55,9999,9999,9999,2601416812
84,22,11,Pattern_Practice,56,9999,9999,9999,2601916508
84,22,11,Pattern_Practice,57,9999,9999,9999,2602416176
84,22,11,Pattern_Practice,58,9999,9999,9999,2602916920
84,22,11,Pattern_Practice,59,9999,9999,9999,2603416688
84,22,11,Pattern_Practice,60,9999,9999,9999,2603916408
84,22,11,Pattern_Practice,61,9999,9999,9999,2604416088
84,22,11,Pattern_Practice,62,9999,9999,9999,2604916828
84,22,11,Pattern_Practice,63,9999,9999,9999,2605416520
84,22,11,Pattern_Practice,64,9999,9999,9999,2605916216
84,22,11,Pattern_Practice,65,9999,9999,9999,2606417008
84,22,11,Pattern_Practice,66,9999,9999,9999,2606916656
84,22,11,Pattern_Practice,67,9999,9999,9999,2607416412
84,22,11,Pattern_Practice,68,9999,9999,9999,2607916104
84,22,11,Pattern_Practice,69,9999,9999,9999,2608416848
84,22,11,Pattern_Practice,70,9999,9999,9999,2608916540
84,22,11,Pattern_Practice,71,9999,9999,9999,2609416312
84,22,11,Pattern_Practice,72,9999,9999,9999,2609916992
84,22,11,Pattern_Practice,73,9999,9999,9999,2610416760
84,22,11,Pattern_Practice,74,9999,9999,9999,2610916432
84,22,11,Pattern_Practice,75,9999,9999,9999,2611416156
84,22,11,Pattern_Practice,76,9999,9999,9999,2611916880
84,22,11,Pattern_Practice,77,9999,9999,9999,2612416628
84,22,11,Pattern_Practice,78,9999,9999,9999,2612916324
84,22,11,Pattern_Practice,79,9999,9999,9999,2613417064
84,23,13,Improv_Metronome,0,5,42,127,2645946596
84,23,13,Improv_Metronome,1,5,42,127,2646446312
84,23,13,Improv_Metronome,2,5,42,127,2646947448
84,23,13,Improv_Metronome,3,5,42,127,2647446792
84,23,13,Improv_Metronome,4,1,38,23,2647939884
84,23,13,Improv_Metronome,5,5,42,127,2647946652
84,23,13,Improv_Metronome,6,5,42,127,2648447472
84,23,13,Improv_Metronome,7,1,38,29,2648450072
84,23,13,Improv_Metronome,8,5,42,127,2648947320
84,23,13,Improv_Metronome,9,1,38,23,2648955600
84,23,13,Improv_Metronome,10,5,42,127,2649446792
84,23,13,Improv_Metronome,11,1,38,18,2649469060
84,23,13,Improv_Metronome,12,5,42,127,2649946412
84,23,13,Improv_Metronome,13,1,38,18,2649952744
84,23,13,Improv_Metronome,14,5,42,127,2650447376
84,23,13,Improv_Metronome,15,1,38,15,2650521176
84,23,13,Improv_Metronome,16,5,42,127,2650947144
84,23,13,Improv_Metronome,17,1,38,15,2650964104
84,23,13,Improv_Metronome,18,5,42,127,2651446616
84,23,13,Improv_Metronome,19,1,38,26,2651455340
84,23,13,Improv_Metronome,20,1,38,27,2651941256
84,23,13,Improv_Metronome,21,5,42,127,2651947424
84,23,13,Improv_Metronome,22,5,42,127,2652447272
84,23,13,Improv_Metronome,23,1,48,21,2652466400
84,23,13,Improv_Metronome,24,1,48,20,2652916788
84,23,13,Improv_Metronome,25,5,42,127,2652946740
84,23,13,Improv_Metronome,26,1,48,50,2653040196
84,23,13,Improv_Metronome,27,1,48,42,2653232504
84,23,13,Improv_Metronome,28,5,42,127,2653446620
84,23,13,Improv_Metronome,29,1,48,51,2653591632
84,23,13,Improv_Metronome,30,5,42,127,2653947360
84,23,13,Improv_Metronome,31,1,48,49,2654082204
84,23,13,Improv_Metronome,32,5,42,127,2654447204
84,23,13,Improv_Metronome,33,1,48,51,2654611888
84,23,13,Improv_Metronome,34,5,42,127,2654946800
84,23,13,Improv_Metronome,35,1,48,28,2655091608
84,23,13,Improv_Metronome,36,5,42,127,2655447468
84,23,13,Improv_Metronome,37,1,38,22,2655487340
84,23,13,Improv_Metronome,38,1,38,50,2655623072
84,23,13,Improv_Metronome,39,1,38,24,2655722384
84,23,13,Improv_Metronome,40,1,38,39,2655855280
84,23,13,Improv_Metronome,41,1,38,25,2655938808
84,23,13,Improv_Metronome,42,5,42,127,2655947292
84,23,13,Improv_Metronome,43,1,38,51,2656109892
84,23,13,Improv_Metronome,44,1,38,39,2656346256
84,23,13,Improv_Metronome,45,5,42,127,2656446800
84,23,13,Improv_Metronome,46,1,48,70,2656695804
84,23,13,Improv_Metronome,47,5,42,127,2656946420
84,23,13,Improv_Metronome,48,1,48,55,2657189440
84,23,13,Improv_Metronome,49,5,42,127,2657447384
84,23,13,Improv_Metronome,50,1,48,46,2657702668
84,23,13,Improv_Metronome,51,5,42,127,2657947152
84,23,13,Improv_Metronome,52,1,48,61,2658213508
84,23,13,Improv_Metronome,53,5,42,127,2658446696
84,23,13,Improv_Metronome,54,1,38,41,2658671316
84,23,13,Improv_Metronome,55,1,38,29,2658762620
84,23,13,Improv_Metronome,56,1,48,14,2658773596
84,23,13,Improv_Metronome,57,1,38,49,2658915164
84,23,13,Improv_Metronome,58,5,42,127,2658946388
84,23,13,Improv_Metronome,59,1,38,35,2658984572
84,23,13,Improv_Metronome,60,1,38,45,2659159528
84,23,13,Improv_Metronome,61,1,38,33,2659200348
84,23,13,Improv_Metronome,62,1,38,18,2659406788
84,23,13,Improv_Metronome,63,5,42,127,2659447140
84,23,13,Improv_Metronome,64,1,48,70,2659807356
84,23,13,Improv_Metronome,65,5,42,127,2659946968
84,23,13,Improv_Metronome,66,1,48,53,2660327844
84,23,13,Improv_Metronome,67,5,42,127,2660446440
84,23,13,Improv_Metronome,68,1,48,56,2660843192
84,23,13,Improv_Metronome,69,5,42,127,2660947332
84,23,13,Improv_Metronome,70,1,48,58,2661410724
84,23,13,Improv_Metronome,71,5,42,127,2661446964
84,23,13,Improv_Metronome,72,5,42,127,2661946592
84,23,13,Improv_Metronome,73,1,38,58,2661990552
84,23,13,Improv_Metronome,74,1,38,48,2662060688
84,23,13,Improv_Metronome,75,1,38,51,2662208116
84,23,13,Improv_Metronome,76,1,38,43,2662271076
84,23,13,Improv_Metronome,77,5,42,127,2662446368
84,23,13,Improv_Metronome,78,1,38,47,2662448160
84,23,13,Improv_Metronome,79,1,38,52,2662513564
84,23,13,Improv_Metronome,80,5,42,127,2662947088
84,23,13,Improv_Metronome,81,1,48,62,2662976984
84,23,13,Improv_Metronome,82,1,48,47,2663087140
84,23,13,Improv_Metronome,83,1,48,43,2663201356
84,23,13,Improv_Metronome,84,1,48,34,2663316528
84,23,13,Improv_Metronome,85,1,48,45,2663424388
84,23,13,Improv_Metronome,86,5,42,127,2663447008
84,23,13,Improv_Metronome,87,1,48,46,2663544884
84,23,13,Improv_Metronome,88,1,48,54,2663682436
84,23,13,Improv_Metronome,89,5,42,127,2663946588
84,23,13,Improv_Metronome,90,1,38,50,2663981424
84,23,13,Improv_Metronome,91,1,38,25,2664082080
84,23,13,Improv_Metronome,92,1,38,46,2664248660
84,23,13,Improv_Metronome,93,1,38,37,2664371904
84,23,13,Improv_Metronome,94,5,42,127,2664447284
84,23,13,Improv_Metronome,95,1,38,45,2664518300
84,23,13,Improv_Metronome,96,1,38,38,2664547976
84,23,13,Improv_Metronome,97,5,42,127,2664947016
84,23,13,Improv_Metronome,98,1,48,67,2664973624
84,23,13,Improv_Metronome,99,1,48,43,2665139280
84,23,13,Improv_Metronome,100,1,48,60,2665210708
84,23,13,Improv_Metronome,101,1,48,29,2665358640
84,23,13,Improv_Metronome,102,5,42,127,2665446708
84,23,13,Improv_Metronome,103,1,48,46,2665465172
84,23,13,Improv_Metronome,104,1,48,30,2665588116
84,23,13,Improv_Metronome,105,1,48,56,2665660504
84,23,13,Improv_Metronome,106,5,42,127,2665946420
84,23,13,Improv_Metronome,107,1,38,60,2665978808
84,23,13,Improv_Metronome,108,5,42,127,2666447312
84,23,13,Improv_Metronome,109,1,38,32,2666507604
84,23,13,Improv_Metronome,110,1,48,14,2666520676
84,23,13,Improv_Metronome,111,5,42,127,2666946960
84,23,13,Improv_Metronome,112,1,38,58,2667009048
84,23,13,Improv_Metronome,113,5,42,127,2667446508
84,23,13,Improv_Metronome,114,1,38,46,2667486948
84,23,13,Improv_Metronome,115,5,42,127,2667947544
84,23,13,Improv_Metronome,116,1,38,49,2667996064
84,23,13,Improv_Metronome,117,5,42,127,2668446944
84,23,13,Improv_Metronome,118,1,38,39,2668494416
84,23,13,Improv_Metronome,119,5,42,127,2668946860
84,23,13,Improv_Metronome,120,1,38,37,2668983416
84,23,13,Improv_Metronome,121,5,42,127,2669446480
84,23,13,Improv_Metronome,122,1,48,63,2669473984
84,23,13,Improv_Metronome,123,1,48,27,2669532900
84,23,13,Improv_Metronome,124,5,42,127,2669947200
84,23,13,Improv_Metronome,125,1,48,62,2669964828
84,23,13,Improv_Metronome,126,5,42,127,2670446968
84,23,13,Improv_Metronome,127,1,48,61,2670449412
84,23,13,Improv_Metronome,128,1,48,61,2670940416
84,23,13,Improv_Metronome,129,5,42,127,2670946732
84,23,13,Improv_Metronome,130,5,42,127,2671447332
84,23,13,Improv_Metronome,131,1,48,51,2671461448
84,23,13,Improv_Metronome,132,1,38,43,2671484612
84,23,13,Improv_Metronome,133,1,48,56,2671919560
84,23,13,Improv_Metronome,134,1,38,38,2671933976
84,23,13,Improv_Metronome,135,5,42,127,2671947100
84,23,13,Improv_Metronome,136,5,42,127,2672446848
84,23,13,Improv_Metronome,137,1,38,49,2672450716
84,23,13,Improv_Metronome,138,1,48,55,2672461092
84,23,13,Improv_Metronome,139,1,48,37,2672505280
84,23,13,Improv_Metronome,140,5,42,127,2672946624
84,23,13,Improv_Metronome,141,1,48,51,2672957148
84,23,13,Improv_Metronome,142,1,38,44,2672961464
84,23,13,Improv_Metronome,143,5,42,127,2673447320
84,23,13,Improv_Metronome,144,1,48,46,2673454628
84,23,13,Improv_Metronome,145,1,38,45,2673476296
84,23,13,Improv_Metronome,146,5,42,127,2673946968
84,23,13,Improv_Metronome,147,1,48,48,2673959064
84,23,13,Improv_Metronome,148,1,38,39,2673983420
84,23,13,Improv_Metronome,149,1,48,50,2674439688
84,23,13,Improv_Metronome,150,5,42,127,2674446828
84,23,13,Improv_Metronome,151,1,38,40,2674453388
84,23,13,Improv_Metronome,152,1,38,35,2674937032
84,23,13,Improv_Metronome,153,5,42,127,2674946416
84,23,13,Improv_Metronome,154,1,48,48,2674960904
84,23,13,Improv_Metronome,155,1,38,51,2675439236
84,23,13,Improv_Metronome,156,5,42,127,2675447348
84,23,13,Improv_Metronome,157,1,48,54,2675458176
84,23,13,Improv_Metronome,158,1,38,35,2675475056
84,23,13,Improv_Metronome,159,5,42,127,2675946996
84,23,13,Improv_Metronome,160,1,38,50,2675985868
84,23,13,Improv_Metronome,161,1,48,55,2676006492
84,23,13,Improv_Metronome,162,1,48,19,2676433264
84,23,13,Improv_Metronome,163,5,42,127,2676446688
84,23,13,Improv_Metronome,164,1,48,40,2676505536
84,23,13,Improv_Metronome,165,1,48,27,2676647260
84,23,13,Improv_Metronome,166,1,48,35,2676746068
84,23,13,Improv_Metronome,167,1,48,47,2676892428
84,23,13,Improv_Metronome,168,5,42,127,2676947288
84,23,13,Improv_Metronome,169,1,48,39,2676954360
84,23,13,Improv_Metronome,170,1,48,64,2677120260
84,23,13,Improv_Metronome,171,1,48,39,2677162204
84,23,13,Improv_Metronome,172,5,42,127,2677447000
84,23,13,Improv_Metronome,173,1,38,51,2677558900
84,23,13,Improv_Metronome,174,5,42,127,2677946696
84,23,13,Improv_Metronome,175,1,38,46,2678009904
84,23,13,Improv_Metronome,176,5,42,127,2678446392
84,23,13,Improv_Metronome,177,1,38,46,2678531292
84,23,13,Improv_Metronome,178,1,38,50,2678941552
84,23,13,Improv_Metronome,179,5,42,127,2678947348
84,23,13,Improv_Metronome,180,1,38,45,2679033428
84,23,13,Improv_Metronome,181,1,38,49,2679193776
84,23,13,Improv_Metronome,182,1,38,38,2679272140
84,23,13,Improv_Metronome,183,1,38,38,2679425108
84,23,13,Improv_Metronome,184,5,42,127,2679446756
84,23,13,Improv_Metronome,185,1,38,57,2679453444
84,23,13,Improv_Metronome,186,5,42,127,2679946580
84,23,13,Improv_Metronome,187,1,38,21,2679947996
84,23,13,Improv_Metronome,188,1,48,42,2680032348
84,23,13,Improv_Metronome,189,5,42,127,2680447364
84,23,13,Improv_Metronome,190,1,38,29,2680459980
84,23,13,Improv_Metronome,191,5,42,127,2680946908
84,23,13,Improv_Metronome,192,1,38,57,2680968948
84,23,13,Improv_Metronome,193,1,48,64,2681432796
84,23,13,Improv_Metronome,194,5,42,127,2681446672
84,23,13,Improv_Metronome,195,1,48,48,2681471168
84,23,13,Improv_Metronome,196,5,42,127,2681946648
84,23,13,Improv_Metronome,197,1,38,55,2682004896
84,23,13,Improv_Metronome,198,1,38,44,2682443532
84,23,13,Improv_Metronome,199,5,42,127,2682447308
84,23,13,Improv_Metronome,200,1,38,52,2682942108
84,23,13,Improv_Metronome,201,5,42,127,2682946928
84,23,13,Improv_Metronome,202,1,48,60,2683420788
84,23,13,Improv_Metronome,203,5,42,127,2683446772
84,23,13,Improv_Metronome,204,1,38,43,2683946920
84,23,13,Improv_Metronome,205,5,42,127,2683949088
84,23,13,Improv_Metronome,206,1,38,45,2684446468
84,23,13,Improv_Metronome,207,5,42,127,2684448704
84,23,13,Improv_Metronome,208,1,38,47,2684926676
84,23,13,Improv_Metronome,209,5,42,127,2684946904
84,23,13,Improv_Metronome,210,1,48,59,2685437588
84,23,13,Improv_Metronome,211,5,42,127,2685446672
84,23,13,Improv_Metronome,212,1,48,29,2685490840
84,23,13,Improv_Metronome,213,5,42,127,2685947176
84,23,13,Improv_Metronome,214,1,38,49,2685952760
84,23,13,Improv_Metronome,215,5,42,127,2686446872
84,23,13,Improv_Metronome,216,1,38,43,2686456424
84,23,13,Improv_Metronome,217,5,42,127,2686946692
84,23,13,Improv_Metronome,218,1,38,50,2686955820
84,23,13,Improv_Metronome,219,5,42,127,2687447360
84,23,13,Improv_Metronome,220,1,48,57,2687478552
84,23,13,Improv_Metronome,221,5,42,127,2687946980
84,23,13,Improv_Metronome,222,1,38,47,2687960568
84,23,13,Improv_Metronome,223,5,42,127,2688446824
84,23,13,Improv_Metronome,224,1,38,45,2688450764
84,23,13,Improv_Metronome,225,5,42,127,2688946740
84,23,13,Improv_Metronome,226,1,38,49,2688952252
84,23,13,Improv_Metronome,227,5,42,127,2689447408
84,23,13,Improv_Metronome,228,1,48,59,2689462572
84,23,13,Improv_Metronome,229,1,48,42,2689892684
84,23,13,Improv_Metronome,230,5,42,127,2689946944
84,23,13,Improv_Metronome,231,1,48,52,2689970844
84,23,13,Improv_Metronome,232,1,48,28,2690208552
84,23,13,Improv_Metronome,233,1,48,56,2690243616
84,23,13,Improv_Metronome,234,5,42,127,2690446656
84,23,13,Improv_Metronome,235,1,38,61,2690861216
84,23,13,Improv_Metronome,236,5,42,127,2690946588
84,23,13,Improv_Metronome,237,1,38,57,2691192512
84,23,13,Improv_Metronome,238,5,42,127,2691447092
84,23,13,Improv_Metronome,239,1,38,48,2691856036
84,23,13,Improv_Metronome,240,5,42,127,2691946800
84,23,13,Improv_Metronome,241,1,38,43,2692428140
84,23,13,Improv_Metronome,242,5,42,127,2692446496
84,23,13,Improv_Metronome,243,5,42,127,2692947320
84,23,13,Improv_Metronome,244,1,38,45,2692951488
84,23,13,Improv_Metronome,245,1,38,43,2693441436
84,23,13,Improv_Metronome,246,5,42,127,2693447156
84,23,13,Improv_Metronome,247,5,42,127,2693946708
84,23,13,Improv_Metronome,248,1,38,42,2693978996
84,23,13,Improv_Metronome,249,5,42,127,2694446552
84,23,13,Improv_Metronome,250,1,48,61,2694449448
84,23,13,Improv_Metronome,251,5,42,127,2694947292
84,23,13,Improv_Metronome,252,1,38,52,2694989384
84,23,13,Improv_Metronome,253,1,38,49,2695440216
84,23,13,Improv_Metronome,254,5,42,127,2695446832
84,23,13,Improv_Metronome,255,5,42,127,2695946460
84,23,13,Improv_Metronome,256,1,38,46,2695950552
84,23,13,Improv_Metronome,257,5,42,127,2696447424
84,23,13,Improv_Metronome,258,1,48,52,2696477244
84,23,13,Improv_Metronome,259,1,48,50,2696935760
84,23,13,Improv_Metronome,260,5,42,127,2696947036
84,23,13,Improv_Metronome,261,5,42,127,2697446712
84,23,13,Improv_Metronome,262,1,48,58,2697470252
84,23,13,Improv_Metronome,263,5,42,127,2697946608
84,23,13,Improv_Metronome,264,1,48,58,2697971144
84,23,13,Improv_Metronome,265,5,42,127,2698447348
84,23,13,Improv_Metronome,266,1,38,26,2698450024
84,23,13,Improv_Metronome,267,1,38,36,2698545016
84,23,13,Improv_Metronome,268,1,38,29,2698721296
84,23,13,Improv_Metronome,269,1,38,32,2698806040
84,23,13,Improv_Metronome,270,5,42,127,2698947052
84,23,13,Improv_Metronome,271,1,38,44,2699010632
84,23,13,Improv_Metronome,272,1,38,44,2699040604
84,23,13,Improv_Metronome,273,5,42,127,2699446504
84,23,13,Improv_Metronome,274,1,48,37,2699459048
84,23,13,Improv_Metronome,275,1,48,49,2699945424
84,23,13,Improv_Metronome,276,5,42,127,2699947312
84,23,13,Improv_Metronome,277,1,48,46,2700414136
84,23,13,Improv_Metronome,278,5,42,127,2700447228
84,23,13,Improv_Metronome,279,5,42,127,2700946708
84,23,13,Improv_Metronome,280,1,48,40,2700967256
84,23,13,Improv_Metronome,281,1,48,37,2701413528
84,23,13,Improv_Metronome,282,5,42,127,2701446616
84,23,13,Improv_Metronome,283,1,48,51,2701511652
84,23,13,Improv_Metronome,284,1,48,30,2701694316
84,23,13,Improv_Metronome,285,1,48,45,2701758244
84,23,13,Improv_Metronome,286,5,42,127,2701947376
84,23,13,Improv_Metronome,287,1,48,28,2701963732
84,23,13,Improv_Metronome,288,1,48,51,2702031848
84,23,13,Improv_Metronome,289,5,42,127,2702446972
84,23,13,Improv_Metronome,290,1,38,64,2702477016
84,23,13,Improv_Metronome,291,5,42,127,2702946520
84,23,13,Improv_Metronome,292,1,38,51,2703013664
84,23,13,Improv_Metronome,293,5,42,127,2703447264
84,23,13,Improv_Metronome,294,1,38,51,2703448228
84,23,13,Improv_Metronome,295,5,42,127,2703947252
84,23,13,Improv_Metronome,296,1,38,43,2703969376
84,23,13,Improv_Metronome,297,5,42,127,2704446724
84,23,13,Improv_Metronome,298,1,38,48,2704453432
84,23,13,Improv_Metronome,299,1,38,23,2704624948
84,23,13,Improv_Metronome,300,1,38,36,2704723584
84,23,13,Improv_Metronome,301,1,38,47,2704875728
84,23,13,Improv_Metronome,302,1,38,41,2704930908
84,23,13,Improv_Metronome,303,5,42,127,2704946572
84,23,13,Improv_Metronome,304,1,38,45,2705128992
84,23,13,Improv_Metronome,305,5,42,127,2705447376
84,23,13,Improv_Metronome,306,1,48,56,2705547956
84,23,13,Improv_Metronome,307,5,42,127,2705947072
84,23,13,Improv_Metronome,308,1,48,57,2706030520
84,23,13,Improv_Metronome,309,5,42,127,2706446616
84,23,13,Improv_Metronome,310,1,48,53,2706493644
84,23,13,Improv_Metronome,311,1,48,45,2706945256
84,23,13,Improv_Metronome,312,5,42,127,2706946900
84,23,13,Improv_Metronome,313,1,38,48,2707380864
84,23,13,Improv_Metronome,314,5,42,127,2707447120
84,23,13,Improv_Metronome,315,1,38,45,2707495180
84,23,13,Improv_Metronome,316,1,38,46,2707651408
84,23,13,Improv_Metronome,317,1,38,33,2707736304
84,23,13,Improv_Metronome,318,1,38,40,2707931128
84,23,13,Improv_Metronome,319,5,42,127,2707946824
84,23,13,Improv_Metronome,320,5,42,127,2708446500
84,23,13,Improv_Metronome,321,1,48,71,2708469768
84,23,13,Improv_Metronome,322,1,48,21,2708558680
84,23,13,Improv_Metronome,323,5,42,127,2708947448
84,23,13,Improv_Metronome,324,1,48,52,2708966576
84,23,13,Improv_Metronome,325,5,42,127,2709447216
84,23,13,Improv_Metronome,326,1,48,56,2709480424
84,23,13,Improv_Metronome,327,5,42,127,2709946612
84,23,13,Improv_Metronome,328,1,48,51,2709963268
84,23,13,Improv_Metronome,329,1,48,32,2710403852
84,23,13,Improv_Metronome,330,5,42,127,2710446372
84,23,13,Improv_Metronome,331,1,48,40,2710529464
84,23,13,Improv_Metronome,332,1,48,46,2710690180
84,23,13,Improv_Metronome,333,1,48,18,2710781960
84,23,13,Improv_Metronome,334,5,42,127,2710947504
84,23,13,Improv_Metronome,335,1,48,46,2710952196
84,23,13,Improv_Metronome,336,1,48,21,2711082644
84,23,13,Improv_Metronome,337,5,42,127,2711447100
84,23,13,Improv_Metronome,338,1,38,54,2711558704
84,23,13,Improv_Metronome,339,5,42,127,2711946572
84,23,13,Improv_Metronome,340,1,38,56,2712068200
84,23,13,Improv_Metronome,341,5,42,127,2712447316
84,23,13,Improv_Metronome,342,1,38,48,2712584200
84,23,13,Improv_Metronome,343,5,42,127,2712947308
84,23,13,Improv_Metronome,344,1,38,41,2713087036
84,23,13,Improv_Metronome,345,5,42,127,2713446708
84,23,13,Improv_Metronome,346,1,38,49,2713517296
84,23,13,Improv_Metronome,347,1,38,52,2713617676
84,23,13,Improv_Metronome,348,1,38,48,2713789236
84,23,13,Improv_Metronome,349,1,38,38,2713878472
84,23,13,Improv_Metronome,350,5,42,127,2713946424
84,23,13,Improv_Metronome,351,1,38,52,2714057460
84,23,13,Improv_Metronome,352,5,42,127,2714447152
84,23,13,Improv_Metronome,353,1,48,57,2714545112
84,23,13,Improv_Metronome,354,1,48,44,2714575016
84,23,13,Improv_Metronome,355,5,42,127,2714947120
84,23,13,Improv_Metronome,356,1,48,56,2715057948
84,23,13,Improv_Metronome,357,5,42,127,2715446592
84,23,13,Improv_Metronome,358,1,48,51,2715546124
84,23,13,Improv_Metronome,0,9999,9999,9999,2645944384
84,23,13,Improv_Metronome,1,9999,9999,9999,2646444100
84,23,13,Improv_Metronome,2,9999,9999,9999,2646944864
84,23,13,Improv_Metronome,3,9999,9999,9999,2647444580
84,23,13,Improv_Metronome,4,9999,9999,9999,2647944292
84,23,13,Improv_Metronome,5,9999,9999,9999,2648445040
84,23,13,Improv_Metronome,6,9999,9999,9999,2648944732
84,23,13,Improv_Metronome,7,9999,9999,9999,2649444428
84,23,13,Improv_Metronome,8,9999,9999,9999,2649944124
84,23,13,Improv_Metronome,9,9999,9999,9999,2650444864
84,23,13,Improv_Metronome,10,9999,9999,9999,2650944632
84,23,13,Improv_Metronome,11,9999,9999,9999,2651444328
84,23,13,Improv_Metronome,12,9999,9999,9999,2651945064
84,23,13,Improv_Metronome,13,9999,9999,9999,2652444764
84,23,13,Improv_Metronome,14,9999,9999,9999,2652944452
84,23,13,Improv_Metronome,15,9999,9999,9999,2653444184
84,23,13,Improv_Metronome,16,9999,9999,9999,2653944924
84,23,13,Improv_Metronome,17,9999,9999,9999,2654444620
84,23,13,Improv_Metronome,18,9999,9999,9999,2654944364
84,23,13,Improv_Metronome,19,9999,9999,9999,2655445108
84,23,13,Improv_Metronome,20,9999,9999,9999,2655944780
84,23,13,Improv_Metronome,21,9999,9999,9999,2656444528
84,23,13,Improv_Metronome,22,9999,9999,9999,2656944208
84,23,13,Improv_Metronome,23,9999,9999,9999,2657444948
84,23,13,Improv_Metronome,24,9999,9999,9999,2657944644
84,23,13,Improv_Metronome,25,9999,9999,9999,2658444408
84,23,13,Improv_Metronome,26,9999,9999,9999,2658944104
84,23,13,Improv_Metronome,27,9999,9999,9999,2659444852
84,23,13,Improv_Metronome,28,9999,9999,9999,2659944532
84,23,13,Improv_Metronome,29,9999,9999,9999,2660444228
84,23,13,Improv_Metronome,30,9999,9999,9999,2660944968
84,23,13,Improv_Metronome,31,9999,9999,9999,2661444680
84,23,13,Improv_Metronome,32,9999,9999,9999,2661944380
84,23,13,Improv_Metronome,33,9999,9999,9999,2662444080
84,23,13,Improv_Metronome,34,9999,9999,9999,2662944876
84,23,13,Improv_Metronome,35,9999,9999,9999,2663444572
84,23,13,Improv_Metronome,36,9999,9999,9999,2663944304
84,23,13,Improv_Metronome,37,9999,9999,9999,2664444996
84,23,13,Improv_Metronome,38,9999,9999,9999,2664944728
84,23,13,Improv_Metronome,39,9999,9999,9999,2665444424
84,23,13,Improv_Metronome,40,9999,9999,9999,2665944136
84,23,13,Improv_Metronome,41,9999,9999,9999,2666444876
84,23,13,Improv_Metronome,42,9999,9999,9999,2666944600
84,23,13,Improv_Metronome,43,9999,9999,9999,2667444296
84,23,13,Improv_Metronome,44,9999,9999,9999,2667945032
84,23,13,Improv_Metronome,45,9999,9999,9999,2668444728
84,23,13,Improv_Metronome,46,9999,9999,9999,2668944500
84,23,13,Improv_Metronome,47,9999,9999,9999,2669444192
84,23,13,Improv_Metronome,48,9999,9999,9999,2669944912
84,23,13,Improv_Metronome,49,9999,9999,9999,2670444604
84,23,13,Improv_Metronome,50,9999,9999,9999,2670944372
84,23,13,Improv_Metronome,51,9999,9999,9999,2671445044
84,23,13,Improv_Metronome,52,9999,9999,9999,2671944812
84,23,13,Improv_Metronome,53,9999,9999,9999,2672444488
84,23,13,Improv_Metronome,54,9999,9999,9999,2672944192
84,23,13,Improv_Metronome,55,9999,9999,9999,2673444956
84,23,13,Improv_Metronome,56,9999,9999,9999,2673944680
84,23,13,Improv_Metronome,57,9999,9999,9999,2674444392
84,23,13,Improv_Metronome,58,9999,9999,9999,2674944056
84,23,13,Improv_Metronome,59,9999,9999,9999,2675444840
84,23,13,Improv_Metronome,60,9999,9999,9999,2675944536
84,23,13,Improv_Metronome,61,9999,9999,9999,2676444252
84,23,13,Improv_Metronome,62,9999,9999,9999,2676945004
84,23,13,Improv_Metronome,63,9999,9999,9999,2677444712
84,23,13,Improv_Metronome,64,9999,9999,9999,2677944408
84,23,13,Improv_Metronome,65,9999,9999,9999,2678444104
84,23,13,Improv_Metronome,66,9999,9999,9999,2678944840
84,23,13,Improv_Metronome,67,9999,9999,9999,2679444544
84,23,13,Improv_Metronome,68,9999,9999,9999,2679944296
84,23,13,Improv_Metronome,69,9999,9999,9999,2680445000
84,23,13,Improv_Metronome,70,9999,9999,9999,2680944696
84,23,13,Improv_Metronome,71,9999,9999,9999,2681444460
84,23,13,Improv_Metronome,72,9999,9999,9999,2681944140
84,23,13,Improv_Metronome,73,9999,9999,9999,2682444872
84,23,13,Improv_Metronome,74,9999,9999,9999,2682944568
84,23,13,Improv_Metronome,75,9999,9999,9999,2683444336
84,23,13,Improv_Metronome,76,9999,9999,9999,2683945012
84,23,13,Improv_Metronome,77,9999,9999,9999,2684444780
84,23,13,Improv_Metronome,78,9999,9999,9999,2684944468
84,23,13,Improv_Metronome,79,9999,9999,9999,2685444164
84,23,13,Improv_Metronome,80,9999,9999,9999,2685944888
84,23,13,Improv_Metronome,81,9999,9999,9999,2686444660
84,23,13,Improv_Metronome,82,9999,9999,9999,2686944332
84,23,13,Improv_Metronome,83,9999,9999,9999,2687445072
84,23,13,Improv_Metronome,84,9999,9999,9999,2687944768
84,23,13,Improv_Metronome,85,9999,9999,9999,2688444536
84,23,13,Improv_Metronome,86,9999,9999,9999,2688944232
84,23,13,Improv_Metronome,87,9999,9999,9999,2689444972
84,23,13,Improv_Metronome,88,9999,9999,9999,2689944660
84,23,13,Improv_Metronome,89,9999,9999,9999,2690444368
84,23,13,Improv_Metronome,90,9999,9999,9999,2690944080
84,23,13,Improv_Metronome,91,9999,9999,9999,2691444808
84,23,13,Improv_Metronome,92,9999,9999,9999,2691944516
84,23,13,Improv_Metronome,93,9999,9999,9999,2692444212
84,23,13,Improv_Metronome,94,9999,9999,9999,2692944960
84,23,13,Improv_Metronome,95,9999,9999,9999,2693444720
84,23,13,Improv_Metronome,96,9999,9999,9999,2693944424
84,23,13,Improv_Metronome,97,9999,9999,9999,2694444116
84,23,13,Improv_Metronome,98,9999,9999,9999,2694944860
84,23,13,Improv_Metronome,99,9999,9999,9999,2695444548
84,23,13,Improv_Metronome,100,9999,9999,9999,2695944248
84,23,13,Improv_Metronome,101,9999,9999,9999,2696444988
84,23,13,Improv_Metronome,102,9999,9999,9999,2696944752
84,23,13,Improv_Metronome,103,9999,9999,9999,2697444428
84,23,13,Improv_Metronome,104,9999,9999,9999,2697944172
84,23,13,Improv_Metronome,105,9999,9999,9999,2698444912
84,23,13,Improv_Metronome,106,9999,9999,9999,2698944620
84,23,13,Improv_Metronome,107,9999,9999,9999,2699444292
84,23,13,Improv_Metronome,108,9999,9999,9999,2699945056
84,23,13,Improv_Metronome,109,9999,9999,9999,2700444796
84,23,13,Improv_Metronome,110,9999,9999,9999,2700944496
84,23,13,Improv_Metronome,111,9999,9999,9999,2701444184
84,23,13,Improv_Metronome,112,9999,9999,9999,2701944940
84,23,13,Improv_Metronome,113,9999,9999,9999,2702444612
84,23,13,Improv_Metronome,114,9999,9999,9999,2702944308
84,23,13,Improv_Metronome,115,9999,9999,9999,2703445048
84,23,13,Improv_Metronome,116,9999,9999,9999,2703944816
84,23,13,Improv_Metronome,117,9999,9999,9999,2704444512
84,23,13,Improv_Metronome,118,9999,9999,9999,2704944212
84,23,13,Improv_Metronome,119,9999,9999,9999,2705444940
84,23,13,Improv_Metronome,120,9999,9999,9999,2705944636
84,23,13,Improv_Metronome,121,9999,9999,9999,2706444404
84,23,13,Improv_Metronome,122,9999,9999,9999,2706944100
84,23,13,Improv_Metronome,123,9999,9999,9999,2707444836
84,23,13,Improv_Metronome,124,9999,9999,9999,2707944536
84,23,13,Improv_Metronome,125,9999,9999,9999,2708444216
84,23,13,Improv_Metronome,126,9999,9999,9999,2708945012
84,23,13,Improv_Metronome,127,9999,9999,9999,2709444704
84,23,13,Improv_Metronome,128,9999,9999,9999,2709944400
84,23,13,Improv_Metronome,129,9999,9999,9999,2710444088
84,23,13,Improv_Metronome,130,9999,9999,9999,2710944844
84,23,13,Improv_Metronome,131,9999,9999,9999,2711444592
84,23,13,Improv_Metronome,132,9999,9999,9999,2711944288
84,23,13,Improv_Metronome,133,9999,9999,9999,2712445028
84,23,13,Improv_Metronome,134,9999,9999,9999,2712944724
84,23,13,Improv_Metronome,135,9999,9999,9999,2713444420
84,23,13,Improv_Metronome,136,9999,9999,9999,2713944136
84,23,13,Improv_Metronome,137,9999,9999,9999,2714444864
84,23,13,Improv_Metronome,138,9999,9999,9999,2714944612
84,23,13,Improv_Metronome,139,9999,9999,9999,2715444308
84,24,14,Improv_Melody,0,2,48,80,2765930996
84,24,14,Improv_Melody,1,2,72,80,2765933592
84,24,14,Improv_Melody,2,5,42,127,2765935228
84,24,14,Improv_Melody,3,5,42,110,2766427472
84,24,14,Improv_Melody,4,5,42,110,2766928092
84,24,14,Improv_Melody,5,5,42,110,2767428040
84,24,14,Improv_Melody,6,5,42,127,2767927836
84,24,14,Improv_Melody,7,5,42,110,2768428308
84,24,14,Improv_Melody,8,5,42,110,2768928180
84,24,14,Improv_Melody,9,5,42,110,2769427824
84,24,14,Improv_Melody,10,2,43,80,2769929972
84,24,14,Improv_Melody,11,2,67,80,2769931976
84,24,14,Improv_Melody,12,5,42,127,2769934444
84,24,14,Improv_Melody,13,5,42,110,2770428328
84,24,14,Improv_Melody,14,5,42,110,2770927976
84,24,14,Improv_Melody,15,5,42,110,2771427748
84,24,14,Improv_Melody,16,5,42,127,2771928364
84,24,14,Improv_Melody,17,5,42,110,2772428012
84,24,14,Improv_Melody,18,5,42,110,2772927884
84,24,14,Improv_Melody,19,5,42,110,2773427532
84,24,14,Improv_Melody,20,2,45,80,2773930800
84,24,14,Improv_Melody,21,2,69,80,2773932732
84,24,14,Improv_Melody,22,5,42,127,2773935568
84,24,14,Improv_Melody,23,5,42,110,2774428032
84,24,14,Improv_Melody,24,5,42,110,2774927832
84,24,14,Improv_Melody,25,5,42,110,2775427552
84,24,14,Improv_Melody,26,5,42,127,2775928172
84,24,14,Improv_Melody,27,5,42,110,2776427820
84,24,14,Improv_Melody,28,5,42,110,2776927616
84,24,14,Improv_Melody,29,5,42,110,2777428312
84,24,14,Improv_Melody,30,2,41,80,2777930536
84,24,14,Improv_Melody,31,2,65,80,2777932688
84,24,14,Improv_Melody,32,5,42,127,2777935304
84,24,14,Improv_Melody,33,5,42,110,2778427768
84,24,14,Improv_Melody,34,5,42,110,2778927640
84,24,14,Improv_Melody,35,5,42,110,2779428260
84,24,14,Improv_Melody,36,5,42,127,2779927980
84,24,14,Improv_Melody,37,5,42,110,2780427628
84,24,14,Improv_Melody,38,5,42,110,2780928324
84,24,14,Improv_Melody,39,5,42,110,2781428120
84,24,14,Improv_Melody,40,2,48,80,2781930192
84,24,14,Improv_Melody,41,2,72,80,2781932420
84,24,14,Improv_Melody,42,5,42,127,2781934888
84,24,14,Improv_Melody,43,1,48,24,2782034716
84,24,14,Improv_Melody,44,5,42,110,2782427680
84,24,14,Improv_Melody,45,1,48,27,2782514448
84,24,14,Improv_Melody,46,5,42,110,2782928204
84,24,14,Improv_Melody,47,1,48,39,2783025520
84,24,14,Improv_Melody,48,5,42,110,2783428052
84,24,14,Improv_Melody,49,1,48,33,2783508540
84,24,14,Improv_Melody,50,5,42,127,2783927752
84,24,14,Improv_Melody,51,1,48,27,2783974128
84,24,14,Improv_Melody,52,5,42,110,2784428572
84,24,14,Improv_Melody,53,1,48,32,2784463480
84,24,14,Improv_Melody,54,5,42,110,2784927976
84,24,14,Improv_Melody,55,1,48,35,2784977616
84,24,14,Improv_Melody,56,5,42,110,2785427824
84,24,14,Improv_Melody,57,1,48,28,2785429384
84,24,14,Improv_Melody,58,2,43,80,2785930024
84,24,14,Improv_Melody,59,2,67,80,2785932180
84,24,14,Improv_Melody,60,1,48,35,2785934868
84,24,14,Improv_Melody,61,5,42,127,2785936204
84,24,14,Improv_Melody,62,1,48,24,2786190360
84,24,14,Improv_Melody,63,5,42,110,2786428188
84,24,14,Improv_Melody,64,1,48,38,2786443572
84,24,14,Improv_Melody,65,5,42,110,2786927960
84,24,14,Improv_Melody,66,1,48,34,2786929076
84,24,14,Improv_Melody,67,5,42,110,2787427660
84,24,14,Improv_Melody,68,1,48,31,2787446188
84,24,14,Improv_Melody,69,1,48,35,2787895676
84,24,14,Improv_Melody,70,5,42,127,2787928476
84,24,14,Improv_Melody,71,1,48,31,2788123760
84,24,14,Improv_Melody,72,1,48,41,2788417340
84,24,14,Improv_Melody,73,5,42,110,2788428152
84,24,14,Improv_Melody,74,1,48,35,2788910240
84,24,14,Improv_Melody,75,5,42,110,2788927780
84,24,14,Improv_Melody,76,5,42,110,2789427784
84,24,14,Improv_Melody,77,1,48,35,2789438304
84,24,14,Improv_Melody,78,1,48,29,2789895872
84,24,14,Improv_Melody,79,2,45,80,2789930880
84,24,14,Improv_Melody,80,2,69,80,2789933108
84,24,14,Improv_Melody,81,5,42,127,2789935716
84,24,14,Improv_Melody,82,1,48,28,2790094772
84,24,14,Improv_Melody,83,1,48,38,2790417856
84,24,14,Improv_Melody,84,5,42,110,2790428140
84,24,14,Improv_Melody,85,5,42,110,2790927772
84,24,14,Improv_Melody,86,1,48,27,2790949216
84,24,14,Improv_Melody,87,5,42,110,2791427548
84,24,14,Improv_Melody,88,1,48,32,2791454452
84,24,14,Improv_Melody,89,1,48,39,2791884540
84,24,14,Improv_Melody,90,5,42,127,2791928136
84,24,14,Improv_Melody,91,1,48,31,2792179520
84,24,14,Improv_Melody,92,5,42,110,2792427896
84,24,14,Improv_Melody,93,1,48,32,2792484948
84,24,14,Improv_Melody,94,5,42,110,2792927572
84,24,14,Improv_Melody,95,1,48,27,2792969012
84,24,14,Improv_Melody,96,5,42,110,2793428468
84,24,14,Improv_Melody,97,1,48,27,2793452480
84,24,14,Improv_Melody,98,1,48,27,2793908528
84,24,14,Improv_Melody,99,2,41,80,2793930744
84,24,14,Improv_Melody,100,2,65,80,2793932668
84,24,14,Improv_Melody,101,5,42,127,2793935136
84,24,14,Improv_Melody,102,1,48,35,2794141560
84,24,14,Improv_Melody,103,1,48,26,2794422508
84,24,14,Improv_Melody,104,5,42,110,2794427856
84,24,14,Improv_Melody,105,5,42,110,2794927564
84,24,14,Improv_Melody,106,1,48,26,2794945568
84,24,14,Improv_Melody,107,5,42,110,2795428384
84,24,14,Improv_Melody,108,1,48,36,2795455964
84,24,14,Improv_Melody,109,1,48,30,2795917716
84,24,14,Improv_Melody,110,5,42,127,2795927780
84,24,14,Improv_Melody,111,1,48,32,2796147444
84,24,14,Improv_Melody,112,1,48,29,2796426096
84,24,14,Improv_Melody,113,5,42,110,2796427604
84,24,14,Improv_Melody,114,5,42,110,2796928360
84,24,14,Improv_Melody,115,1,48,39,2796930148
84,24,14,Improv_Melody,116,5,42,110,2797428208
84,24,14,Improv_Melody,117,1,48,47,2797431252
84,24,14,Improv_Melody,118,1,38,38,2797930488
84,24,14,Improv_Melody,119,2,48,80,2797932500
84,24,14,Improv_Melody,120,2,72,80,2797934276
84,24,14,Improv_Melody,121,5,42,127,2797936744
84,24,14,Improv_Melody,122,1,38,27,2798421220
84,24,14,Improv_Melody,123,5,42,110,2798427540
84,24,14,Improv_Melody,124,1,38,36,2798920616
84,24,14,Improv_Melody,125,5,42,110,2798928436
84,24,14,Improv_Melody,126,1,38,33,2799420168
84,24,14,Improv_Melody,127,5,42,110,2799427912
84,24,14,Improv_Melody,128,5,42,127,2799927544
84,24,14,Improv_Melody,129,1,38,42,2799962748
84,24,14,Improv_Melody,130,1,38,27,2800172860
84,24,14,Improv_Melody,131,5,42,110,2800428420
84,24,14,Improv_Melody,132,1,38,26,2800434752
84,24,14,Improv_Melody,133,5,42,110,2800928268
84,24,14,Improv_Melody,134,1,38,31,2800932508
84,24,14,Improv_Melody,135,1,38,34,2801420296
84,24,14,Improv_Melody,136,5,42,110,2801427812
84,24,14,Improv_Melody,137,2,43,80,2801930100
84,24,14,Improv_Melody,138,2,67,80,2801932328
84,24,14,Improv_Melody,139,5,42,127,2801934788
84,24,14,Improv_Melody,140,1,38,42,2801976580
84,24,14,Improv_Melody,141,1,38,22,2802170980
84,24,14,Improv_Melody,142,5,42,110,2802428256
84,24,14,Improv_Melody,143,1,38,27,2802450148
84,24,14,Improv_Melody,144,1,38,27,2802918712
84,24,14,Improv_Melody,145,5,42,110,2802927952
84,24,14,Improv_Melody,146,5,42,110,2803427660
84,24,14,Improv_Melody,147,1,38,32,2803432420
84,24,14,Improv_Melody,148,1,38,41,2803918536
84,24,14,Improv_Melody,149,5,42,127,2803928448
84,24,14,Improv_Melody,150,1,38,29,2804165920
84,24,14,Improv_Melody,151,1,38,26,2804409988
84,24,14,Improv_Melody,152,5,42,110,2804428276
84,24,14,Improv_Melody,153,1,38,26,2804902580
84,24,14,Improv_Melody,154,5,42,110,2804927976
84,24,14,Improv_Melody,155,5,42,110,2805427460
84,24,14,Improv_Melody,156,1,38,35,2805438056
84,24,14,Improv_Melody,157,2,45,80,2805930780
84,24,14,Improv_Melody,158,2,69,80,2805933008
84,24,14,Improv_Melody,159,5,42,127,2805935548
84,24,14,Improv_Melody,160,1,48,27,2805954076
84,24,14,Improv_Melody,161,5,42,110,2806428216
84,24,14,Improv_Melody,162,1,48,36,2806455796
84,24,14,Improv_Melody,163,5,42,110,2806927696
84,24,14,Improv_Melody,164,1,48,30,2806948916
84,24,14,Improv_Melody,165,1,48,22,2807421660
84,24,14,Improv_Melody,166,5,42,110,2807427540
84,24,14,Improv_Melody,167,1,48,32,2807927540
84,24,14,Improv_Melody,168,5,42,127,2807929180
84,24,14,Improv_Melody,169,1,48,43,2808146904
84,24,14,Improv_Melody,170,5,42,110,2808428044
84,24,14,Improv_Melody,171,1,48,38,2808440144
84,24,14,Improv_Melody,172,1,48,29,2808887684
84,24,14,Improv_Melody,173,5,42,110,2808927592
84,24,14,Improv_Melody,174,5,42,110,2809428268
84,24,14,Improv_Melody,175,1,48,34,2809453228
84,24,14,Improv_Melody,176,2,41,80,2809930468
84,24,14,Improv_Melody,177,2,65,80,2809932772
84,24,14,Improv_Melody,178,5,42,127,2809935312
84,24,14,Improv_Melody,179,1,48,39,2809968348
84,24,14,Improv_Melody,180,1,48,33,2810177188
84,24,14,Improv_Melody,181,5,42,110,2810427660
84,24,14,Improv_Melody,182,1,48,36,2810489196
84,24,14,Improv_Melody,183,5,42,110,2810927436
84,24,14,Improv_Melody,184,1,48,27,2810937060
84,24,14,Improv_Melody,185,1,48,32,2811419760
84,24,14,Improv_Melody,186,5,42,110,2811428248
84,24,14,Improv_Melody,187,1,48,37,2811918108
84,24,14,Improv_Melody,188,5,42,127,2811928096
84,24,14,Improv_Melody,189,1,48,29,2812161084
84,24,14,Improv_Melody,190,5,42,110,2812427560
84,24,14,Improv_Melody,191,1,48,33,2812463960
84,24,14,Improv_Melody,192,5,42,110,2812928456
84,24,14,Improv_Melody,193,1,48,34,2812931048
84,24,14,Improv_Melody,194,5,42,110,2813428080
84,24,14,Improv_Melody,195,1,48,46,2813439056
84,24,14,Improv_Melody,196,2,48,80,2813930208
84,24,14,Improv_Melody,197,1,38,24,2813931176
84,24,14,Improv_Melody,198,2,72,80,2813934916
84,24,14,Improv_Melody,199,5,42,127,2813937224
84,24,14,Improv_Melody,200,5,42,110,2814427484
84,24,14,Improv_Melody,201,1,38,26,2814443868
84,24,14,Improv_Melody,202,5,42,110,2814928232
84,24,14,Improv_Melody,203,1,38,35,2814953740
84,24,14,Improv_Melody,204,5,42,110,2815428156
84,24,14,Improv_Melody,205,1,38,42,2815434564
84,24,14,Improv_Melody,206,5,42,127,2815927632
84,24,14,Improv_Melody,207,1,38,39,2815945188
84,24,14,Improv_Melody,208,5,42,110,2816428528
84,24,14,Improv_Melody,209,1,48,31,2816460516
84,24,14,Improv_Melody,210,5,42,110,2816928080
84,24,14,Improv_Melody,211,1,48,27,2816952140
84,24,14,Improv_Melody,212,5,42,110,2817428076
84,24,14,Improv_Melody,213,1,48,30,2817456328
84,24,14,Improv_Melody,214,2,43,80,2817930132
84,24,14,Improv_Melody,215,2,67,80,2817932208
84,24,14,Improv_Melody,216,5,42,127,2817934820
84,24,14,Improv_Melody,217,1,38,36,2818005780
84,24,14,Improv_Melody,218,5,42,110,2818428164
84,24,14,Improv_Melody,219,1,38,34,2818434424
84,24,14,Improv_Melody,220,5,42,110,2818928084
84,24,14,Improv_Melody,221,1,38,33,2818988056
84,24,14,Improv_Melody,222,1,38,28,2819397520
84,24,14,Improv_Melody,223,5,42,110,2819427928
84,24,14,Improv_Melody,224,1,38,26,2819899616
84,24,14,Improv_Melody,225,5,42,127,2819928304
84,24,14,Improv_Melody,226,5,42,110,2820428160
84,24,14,Improv_Melody,227,1,38,38,2820439060
84,24,14,Improv_Melody,228,5,42,110,2820928160
84,24,14,Improv_Melody,229,1,38,16,2820947660
84,24,14,Improv_Melody,230,1,38,30,2821167868
84,24,14,Improv_Melody,231,1,38,35,2821415824
84,24,14,Improv_Melody,232,5,42,110,2821427756
84,24,14,Improv_Melody,233,1,38,37,2821903332
84,24,14,Improv_Melody,234,2,45,80,2821931016
84,24,14,Improv_Melody,235,2,69,80,2821933088
84,24,14,Improv_Melody,236,5,42,127,2821935548
84,24,14,Improv_Melody,237,1,38,33,2822403944
84,24,14,Improv_Melody,238,5,42,110,2822428144
84,24,14,Improv_Melody,239,1,38,30,2822911572
84,24,14,Improv_Melody,240,5,42,110,2822927920
84,24,14,Improv_Melody,241,1,38,32,2823146092
84,24,14,Improv_Melody,242,1,38,40,2823405944
84,24,14,Improv_Melody,243,5,42,110,2823427448
84,24,14,Improv_Melody,244,1,38,40,2823884372
84,24,14,Improv_Melody,245,5,42,127,2823928120
84,24,14,Improv_Melody,246,5,42,110,2824428048
84,24,14,Improv_Melody,247,1,38,40,2824429016
84,24,14,Improv_Melody,248,1,38,35,2824924168
84,24,14,Improv_Melody,249,5,42,110,2824927868
84,24,14,Improv_Melody,250,1,38,33,2825188600
84,24,14,Improv_Melody,251,1,38,31,2825350064
84,24,14,Improv_Melody,252,5,42,110,2825428268
84,24,14,Improv_Melody,253,2,41,80,2825930552
84,24,14,Improv_Melody,254,2,65,80,2825932856
84,24,14,Improv_Melody,255,5,42,127,2825935316
84,24,14,Improv_Melody,256,1,38,42,2825947788
84,24,14,Improv_Melody,257,5,42,110,2826427912
84,24,14,Improv_Melody,258,1,38,36,2826443148
84,24,14,Improv_Melody,259,1,38,40,2826903180
84,24,14,Improv_Melody,260,5,42,110,2826927380
84,24,14,Improv_Melody,261,1,38,32,2827147648
84,24,14,Improv_Melody,262,1,38,42,2827421936
84,24,14,Improv_Melody,263,5,42,110,2827428184
84,24,14,Improv_Melody,264,1,38,35,2827900092
84,24,14,Improv_Melody,265,5,42,127,2827927956
84,24,14,Improv_Melody,266,1,38,39,2828428112
84,24,14,Improv_Melody,267,5,42,110,2828430048
84,24,14,Improv_Melody,268,1,38,40,2828884384
84,24,14,Improv_Melody,269,5,42,110,2828928256
84,24,14,Improv_Melody,270,1,38,34,2829147920
84,24,14,Improv_Melody,271,1,38,36,2829415176
84,24,14,Improv_Melody,272,5,42,110,2829428008
84,24,14,Improv_Melody,273,1,38,28,2829913608
84,24,14,Improv_Melody,274,2,48,80,2829930284
84,24,14,Improv_Melody,275,2,72,80,2829932512
84,24,14,Improv_Melody,276,5,42,127,2829935052
84,24,14,Improv_Melody,277,1,38,32,2830397988
84,24,14,Improv_Melody,278,5,42,110,2830427644
84,24,14,Improv_Melody,279,1,38,34,2830910552
84,24,14,Improv_Melody,280,5,42,110,2830928168
84,24,14,Improv_Melody,281,1,38,26,2831114924
84,24,14,Improv_Melody,282,1,38,39,2831401180
84,24,14,Improv_Melody,283,5,42,110,2831427920
84,24,14,Improv_Melody,284,1,38,38,2831917032
84,24,14,Improv_Melody,285,5,42,127,2831927696
84,24,14,Improv_Melody,286,1,38,42,2832406864
84,24,14,Improv_Melody,287,5,42,110,2832428444
84,24,14,Improv_Melody,288,1,38,39,2832910676
84,24,14,Improv_Melody,289,5,42,110,2832928068
84,24,14,Improv_Melody,290,1,38,33,2833159028
84,24,14,Improv_Melody,291,1,38,37,2833421872
84,24,14,Improv_Melody,292,5,42,110,2833427972
84,24,14,Improv_Melody,293,2,43,80,2833930028
84,24,14,Improv_Melody,294,2,67,80,2833932256
84,24,14,Improv_Melody,295,5,42,127,2833934872
84,24,14,Improv_Melody,296,1,38,42,2833948764
84,24,14,Improv_Melody,297,5,42,110,2834428288
84,24,14,Improv_Melody,298,1,38,40,2834456092
84,24,14,Improv_Melody,299,1,38,38,2834866584
84,24,14,Improv_Melody,300,5,42,110,2834927836
84,24,14,Improv_Melody,301,1,38,32,2835110376
84,24,14,Improv_Melody,302,1,38,47,2835407104
84,24,14,Improv_Melody,303,5,42,110,2835427660
84,24,14,Improv_Melody,304,5,42,127,2835928612
84,24,14,Improv_Melody,305,1,48,44,2835961004
84,24,14,Improv_Melody,306,5,42,110,2836428016
84,24,14,Improv_Melody,307,1,48,32,2836444968
84,24,14,Improv_Melody,308,5,42,110,2836927864
84,24,14,Improv_Melody,309,1,48,36,2836949384
84,24,14,Improv_Melody,310,1,48,25,2837168616
84,24,14,Improv_Melody,311,5,42,110,2837427540
84,24,14,Improv_Melody,312,1,48,36,2837449808
84,24,14,Improv_Melody,313,2,45,80,2837930940
84,24,14,Improv_Melody,314,2,69,80,2837933016
84,24,14,Improv_Melody,315,5,42,127,2837935556
84,24,14,Improv_Melody,316,1,48,41,2837938072
84,24,14,Improv_Melody,317,5,42,110,2838428000
84,24,14,Improv_Melody,318,1,48,39,2838442932
84,24,14,Improv_Melody,319,1,48,36,2838913588
84,24,14,Improv_Melody,320,5,42,110,2838927768
84,24,14,Improv_Melody,321,1,48,19,2839139556
84,24,14,Improv_Melody,322,5,42,110,2839427428
84,24,14,Improv_Melody,323,1,48,38,2839440192
84,24,14,Improv_Melody,324,5,42,127,2839928100
84,24,14,Improv_Melody,325,1,48,37,2839936900
84,24,14,Improv_Melody,326,5,42,110,2840427876
84,24,14,Improv_Melody,327,1,48,37,2840439592
84,24,14,Improv_Melody,328,1,48,31,2840910252
84,24,14,Improv_Melody,329,5,42,110,2840927568
84,24,14,Improv_Melody,330,1,48,35,2841174008
84,24,14,Improv_Melody,331,5,42,110,2841428596
84,24,14,Improv_Melody,332,1,48,35,2841458492
84,24,14,Improv_Melody,333,1,48,35,2841917780
84,24,14,Improv_Melody,334,2,41,80,2841930572
84,24,14,Improv_Melody,335,2,65,80,2841932572
84,24,14,Improv_Melody,336,5,42,127,2841935260
84,24,14,Improv_Melody,337,1,48,28,2842399464
84,24,14,Improv_Melody,338,5,42,110,2842427632
84,24,14,Improv_Melody,339,1,48,29,2842910764
84,24,14,Improv_Melody,340,5,42,110,2842927408
84,24,14,Improv_Melody,341,1,48,28,2843174224
84,24,14,Improv_Melody,342,5,42,110,2843428436
84,24,14,Improv_Melody,343,1,48,36,2843450480
84,24,14,Improv_Melody,344,1,48,32,2843922928
84,24,14,Improv_Melody,345,5,42,127,2843927832
84,24,14,Improv_Melody,346,1,38,34,2843968124
84,24,14,Improv_Melody,347,1,48,31,2844422668
84,24,14,Improv_Melody,348,5,42,110,2844427496
84,24,14,Improv_Melody,349,1,38,33,2844447292
84,24,14,Improv_Melody,350,1,38,31,2844906852
84,24,14,Improv_Melody,351,1,48,31,2844910120
84,24,14,Improv_Melody,352,5,42,110,2844928560
84,24,14,Improv_Melody,353,1,48,35,2845152912
84,24,14,Improv_Melody,354,1,38,50,2845423532
84,24,14,Improv_Melody,355,5,42,110,2845428360
84,24,14,Improv_Melody,356,2,48,80,2845930504
84,24,14,Improv_Melody,357,2,72,80,2845932424
84,24,14,Improv_Melody,358,5,42,127,2845935036
84,24,14,Improv_Melody,359,1,48,38,2845954012
84,24,14,Improv_Melody,360,5,42,110,2846427460
84,24,14,Improv_Melody,361,1,48,32,2846439128
84,24,14,Improv_Melody,0,9999,9999,9999,2765925496
84,24,14,Improv_Melody,1,9999,9999,9999,2766425180
84,24,14,Improv_Melody,2,9999,9999,9999,2766925876
84,24,14,Improv_Melody,3,9999,9999,9999,2767425600
84,24,14,Improv_Melody,4,9999,9999,9999,2767925320
84,24,14,Improv_Melody,5,9999,9999,9999,2768426088
84,24,14,Improv_Melody,6,9999,9999,9999,2768925812
84,24,14,Improv_Melody,7,9999,9999,9999,2769425460
84,24,14,Improv_Melody,8,9999,9999,9999,2769925180
84,24,14,Improv_Melody,9,9999,9999,9999,2770425960
84,24,14,Improv_Melody,10,9999,9999,9999,2770925684
84,24,14,Improv_Melody,11,9999,9999,9999,2771425380
84,24,14,Improv_Melody,12,9999,9999,9999,2771926072
84,24,14,Improv_Melody,13,9999,9999,9999,2772425796
84,24,14,Improv_Melody,14,9999,9999,9999,2772925516
84,24,14,Improv_Melody,15,9999,9999,9999,2773425236
84,24,14,Improv_Melody,16,9999,9999,9999,2773926004
84,24,14,Improv_Melody,17,9999,9999,9999,2774425668
84,24,14,Improv_Melody,18,9999,9999,9999,2774925388
84,24,14,Improv_Melody,19,9999,9999,9999,2775425112
84,24,14,Improv_Melody,20,9999,9999,9999,2775925880
84,24,14,Improv_Melody,21,9999,9999,9999,2776425528
84,24,14,Improv_Melody,22,9999,9999,9999,2776925248
84,24,14,Improv_Melody,23,9999,9999,9999,2777426016
84,24,14,Improv_Melody,24,9999,9999,9999,2777925740
84,24,14,Improv_Melody,25,9999,9999,9999,2778425400
84,24,14,Improv_Melody,26,9999,9999,9999,2778925124
84,24,14,Improv_Melody,27,9999,9999,9999,2779425892
84,24,14,Improv_Melody,28,9999,9999,9999,2779925612
84,24,14,Improv_Melody,29,9999,9999,9999,2780425336
84,24,14,Improv_Melody,30,9999,9999,9999,2780926032
84,24,14,Improv_Melody,31,9999,9999,9999,2781425752
84,24,14,Improv_Melody,32,9999,9999,9999,2781925476
84,24,14,Improv_Melody,33,9999,9999,9999,2782425160
84,24,14,Improv_Melody,34,9999,9999,9999,2782925912
84,24,14,Improv_Melody,35,9999,9999,9999,2783425612
84,24,14,Improv_Melody,36,9999,9999,9999,2783925308
84,24,14,Improv_Melody,37,9999,9999,9999,2784426056
84,24,14,Improv_Melody,38,9999,9999,9999,2784925756
84,24,14,Improv_Melody,39,9999,9999,9999,2785425456
84,24,14,Improv_Melody,40,9999,9999,9999,2785925232
84,24,14,Improv_Melody,41,9999,9999,9999,2786425968
84,24,14,Improv_Melody,42,9999,9999,9999,2786925668
84,24,14,Improv_Melody,43,9999,9999,9999,2787425368
84,24,14,Improv_Melody,44,9999,9999,9999,2787926108
84,24,14,Improv_Melody,45,9999,9999,9999,2788425788
84,24,14,Improv_Melody,46,9999,9999,9999,2788925560
84,24,14,Improv_Melody,47,9999,9999,9999,2789425268
84,24,14,Improv_Melody,48,9999,9999,9999,2789926008
84,24,14,Improv_Melody,49,9999,9999,9999,2790425700
84,24,14,Improv_Melody,50,9999,9999,9999,2790925404
84,24,14,Improv_Melody,51,9999,9999,9999,2791425108
84,24,14,Improv_Melody,52,9999,9999,9999,2791925844
84,24,14,Improv_Melody,53,9999,9999,9999,2792425532
84,24,14,Improv_Melody,54,9999,9999,9999,2792925280
84,24,14,Improv_Melody,55,9999,9999,9999,2793426028
84,24,14,Improv_Melody,56,9999,9999,9999,2793925720
84,24,14,Improv_Melody,57,9999,9999,9999,2794425412
84,24,14,Improv_Melody,58,9999,9999,9999,2794925120
84,24,14,Improv_Melody,59,9999,9999,9999,2795425868
84,24,14,Improv_Melody,60,9999,9999,9999,2795925560
84,24,14,Improv_Melody,61,9999,9999,9999,2796425320
84,24,14,Improv_Melody,62,9999,9999,9999,2796926068
84,24,14,Improv_Melody,63,9999,9999,9999,2797425764
84,24,14,Improv_Melody,64,9999,9999,9999,2797925464
84,24,14,Improv_Melody,65,9999,9999,9999,2798425172
84,24,14,Improv_Melody,66,9999,9999,9999,2798925920
84,24,14,Improv_Melody,67,9999,9999,9999,2799425620
84,24,14,Improv_Melody,68,9999,9999,9999,2799925324
84,24,14,Improv_Melody,69,9999,9999,9999,2800426052
84,24,14,Improv_Melody,70,9999,9999,9999,2800925752
84,24,14,Improv_Melody,71,9999,9999,9999,2801425520
84,24,14,Improv_Melody,72,9999,9999,9999,2801925228
84,24,14,Improv_Melody,73,9999,9999,9999,2802425964
84,24,14,Improv_Melody,74,9999,9999,9999,2802925660
84,24,14,Improv_Melody,75,9999,9999,9999,2803425340
84,24,14,Improv_Melody,76,9999,9999,9999,2803926080
84,24,14,Improv_Melody,77,9999,9999,9999,2804425836
84,24,14,Improv_Melody,78,9999,9999,9999,2804925536
84,24,14,Improv_Melody,79,9999,9999,9999,2805425240
84,24,14,Improv_Melody,80,9999,9999,9999,2805925988
84,24,14,Improv_Melody,81,9999,9999,9999,2806425700
84,24,14,Improv_Melody,82,9999,9999,9999,2806925400
84,24,14,Improv_Melody,83,9999,9999,9999,2807425096
84,24,14,Improv_Melody,84,9999,9999,9999,2807925848
84,24,14,Improv_Melody,85,9999,9999,9999,2808425528
84,24,14,Improv_Melody,86,9999,9999,9999,2808925300
84,24,14,Improv_Melody,87,9999,9999,9999,2809425976
84,24,14,Improv_Melody,88,9999,9999,9999,2809925752
84,24,14,Improv_Melody,89,9999,9999,9999,2810425444
84,24,14,Improv_Melody,90,9999,9999,9999,2810925144
84,24,14,Improv_Melody,91,9999,9999,9999,2811425884
84,24,14,Improv_Melody,92,9999,9999,9999,2811925580
84,24,14,Improv_Melody,93,9999,9999,9999,2812425268
84,24,14,Improv_Melody,94,9999,9999,9999,2812926016
84,24,14,Improv_Melody,95,9999,9999,9999,2813425712
84,24,14,Improv_Melody,96,9999,9999,9999,2813925488
84,24,14,Improv_Melody,97,9999,9999,9999,2814425192
84,24,14,Improv_Melody,98,9999,9999,9999,2814925940
84,24,14,Improv_Melody,99,9999,9999,9999,2815425640
84,24,14,Improv_Melody,100,9999,9999,9999,2815925340
84,24,14,Improv_Melody,101,9999,9999,9999,2816426088
84,24,14,Improv_Melody,102,9999,9999,9999,2816925784
84,24,14,Improv_Melody,103,9999,9999,9999,2817425484
84,24,14,Improv_Melody,104,9999,9999,9999,2817925184
84,24,14,Improv_Melody,105,9999,9999,9999,2818425944
84,24,14,Improv_Melody,106,9999,9999,9999,2818925644
84,24,14,Improv_Melody,107,9999,9999,9999,2819425340
84,24,14,Improv_Melody,108,9999,9999,9999,2819926084
84,24,14,Improv_Melody,109,9999,9999,9999,2820425792
84,24,14,Improv_Melody,110,9999,9999,9999,2820925496
84,24,14,Improv_Melody,111,9999,9999,9999,2821425240
84,24,14,Improv_Melody,112,9999,9999,9999,2821925988
84,24,14,Improv_Melody,113,9999,9999,9999,2822425704
84,24,14,Improv_Melody,114,9999,9999,9999,2822925404
84,24,14,Improv_Melody,115,9999,9999,9999,2823425084
84,24,14,Improv_Melody,116,9999,9999,9999,2823925828
84,24,14,Improv_Melody,117,9999,9999,9999,2824425536
84,24,14,Improv_Melody,118,9999,9999,9999,2824925276
84,24,14,Improv_Melody,119,9999,9999,9999,2825425976
84,24,14,Improv_Melody,120,9999,9999,9999,2825925684
84,24,14,Improv_Melody,121,9999,9999,9999,2826425396
84,24,14,Improv_Melody,122,9999,9999,9999,2826925164
84,24,14,Improv_Melody,123,9999,9999,9999,2827425892
84,24,14,Improv_Melody,124,9999,9999,9999,2827925588
84,24,14,Improv_Melody,125,9999,9999,9999,2828425296
84,24,14,Improv_Melody,126,9999,9999,9999,2828926036
84,24,14,Improv_Melody,127,9999,9999,9999,2829425716
84,24,14,Improv_Melody,128,9999,9999,9999,2829925492
84,24,14,Improv_Melody,129,9999,9999,9999,2830425204
84,24,14,Improv_Melody,130,9999,9999,9999,2830925876
84,24,14,Improv_Melody,131,9999,9999,9999,2831425628
84,24,14,Improv_Melody,132,9999,9999,9999,2831925328
84,24,14,Improv_Melody,133,9999,9999,9999,2832426076
84,24,14,Improv_Melody,134,9999,9999,9999,2832925776
84,24,14,Improv_Melody,135,9999,9999,9999,2833425528
84,24,14,Improv_Melody,136,9999,9999,9999,2833925236
84,24,14,Improv_Melody,137,9999,9999,9999,2834425920
84,24,14,Improv_Melody,138,9999,9999,9999,2834925616
84,24,14,Improv_Melody,139,9999,9999,9999,2835425368
84,24,14,Improv_Melody,140,9999,9999,9999,2835926096
84,24,14,Improv_Melody,141,9999,9999,9999,2836425796
84,24,14,Improv_Melody,142,9999,9999,9999,2836925496
84,24,14,Improv_Melody,143,9999,9999,9999,2837425248
84,24,14,Improv_Melody,144,9999,9999,9999,2837925992
84,24,14,Improv_Melody,145,9999,9999,9999,2838425708
84,24,14,Improv_Melody,146,9999,9999,9999,2838925400
84,24,14,Improv_Melody,147,9999,9999,9999,2839425136
84,24,14,Improv_Melody,148,9999,9999,9999,2839925880
84,24,14,Improv_Melody,149,9999,9999,9999,2840425580
84,24,14,Improv_Melody,150,9999,9999,9999,2840925276
84,24,14,Improv_Melody,151,9999,9999,9999,2841426004
84,24,14,Improv_Melody,152,9999,9999,9999,2841925700
84,24,14,Improv_Melody,153,9999,9999,9999,2842425412
84,24,14,Improv_Melody,154,9999,9999,9999,2842925112
84,24,14,Improv_Melody,155,9999,9999,9999,2843425844
84,24,14,Improv_Melody,156,9999,9999,9999,2843925612
84,24,14,Improv_Melody,157,9999,9999,9999,2844425276
84,24,14,Improv_Melody,158,9999,9999,9999,2844926044
84,24,14,Improv_Melody,159,9999,9999,9999,2845425768
84,24,14,Improv_Melody,160,9999,9999,9999,2845925476
84,24,14,Improv_Melody,161,9999,9999,9999,2846425164
