pid,taskRunCount,taskID,taskName,i,channel,pitch,velocity,microseconds
83,1,0,Ticks_Pract_8,0,5,42,127,528289128
83,1,0,Ticks_Pract_8,1,5,42,127,529088984
83,1,0,Ticks_Pract_8,2,5,42,127,529888812
83,1,0,Ticks_Pract_8,3,1,48,35,529942724
83,1,0,Ticks_Pract_8,4,1,48,35,530640264
83,1,0,Ticks_Pract_8,5,5,42,127,530689440
83,1,0,Ticks_Pract_8,6,1,48,33,531464236
83,1,0,Ticks_Pract_8,7,5,42,127,531489176
83,1,0,Ticks_Pract_8,8,1,48,34,532251252
83,1,0,Ticks_Pract_8,9,5,42,127,532289060
83,1,0,Ticks_Pract_8,10,1,48,37,533030716
83,1,0,Ticks_Pract_8,11,5,42,127,533088572
83,1,0,Ticks_Pract_8,12,1,48,37,533882960
83,1,0,Ticks_Pract_8,13,5,42,127,533889348
83,1,0,Ticks_Pract_8,14,1,48,26,534647684
83,1,0,Ticks_Pract_8,15,5,42,127,534689012
83,1,0,Ticks_Pract_8,16,1,48,35,535426852
83,1,0,Ticks_Pract_8,17,5,42,127,535488992
83,1,0,Ticks_Pract_8,18,1,48,29,536238132
83,1,0,Ticks_Pract_8,19,5,42,127,536288800
83,1,0,Ticks_Pract_8,20,1,48,33,537047812
83,1,0,Ticks_Pract_8,21,5,42,127,537089432
83,1,0,Ticks_Pract_8,22,1,48,35,537877312
83,1,0,Ticks_Pract_8,23,5,42,127,537889168
83,1,0,Ticks_Pract_8,24,1,48,37,538687320
83,1,0,Ticks_Pract_8,25,5,42,127,538688828
83,1,0,Ticks_Pract_8,26,5,42,127,539488792
83,1,0,Ticks_Pract_8,27,1,48,35,539516516
83,1,0,Ticks_Pract_8,28,5,42,127,540289348
83,1,0,Ticks_Pract_8,29,1,48,39,540294032
83,1,0,Ticks_Pract_8,30,5,42,127,541089080
83,1,0,Ticks_Pract_8,31,1,48,33,541093688
83,1,0,Ticks_Pract_8,32,1,48,36,541850996
83,1,0,Ticks_Pract_8,33,5,42,127,541888904
83,1,0,Ticks_Pract_8,34,1,48,41,542677832
83,1,0,Ticks_Pract_8,35,5,42,127,542688784
83,1,0,Ticks_Pract_8,36,1,48,40,543485268
83,1,0,Ticks_Pract_8,37,5,42,127,543489492
83,1,0,Ticks_Pract_8,38,5,42,127,544289156
83,1,0,Ticks_Pract_8,39,1,48,29,544305588
83,1,0,Ticks_Pract_8,40,1,48,34,545017120
83,1,0,Ticks_Pract_8,41,5,42,127,545088736
83,1,0,Ticks_Pract_8,42,1,48,17,545128116
83,1,0,Ticks_Pract_8,43,5,42,127,545888752
83,1,0,Ticks_Pract_8,44,1,48,32,545907880
83,1,0,Ticks_Pract_8,45,1,48,32,546682384
83,1,0,Ticks_Pract_8,46,5,42,127,546689452
83,1,0,Ticks_Pract_8,47,1,48,32,547470152
83,1,0,Ticks_Pract_8,48,5,42,127,547489112
83,1,0,Ticks_Pract_8,49,1,48,34,548255668
83,1,0,Ticks_Pract_8,50,5,42,127,548288868
83,1,0,Ticks_Pract_8,51,1,48,28,549071892
83,1,0,Ticks_Pract_8,52,5,42,127,549088604
83,1,0,Ticks_Pract_8,53,1,48,34,549867956
83,1,0,Ticks_Pract_8,54,5,42,127,549889604
83,1,0,Ticks_Pract_8,55,1,48,31,550654748
83,1,0,Ticks_Pract_8,56,5,42,127,550689044
83,1,0,Ticks_Pract_8,57,1,48,31,551459272
83,1,0,Ticks_Pract_8,58,5,42,127,551488776
83,1,0,Ticks_Pract_8,59,1,48,30,552269104
83,1,0,Ticks_Pract_8,0,9999,9999,9999,528286840
83,1,0,Ticks_Pract_8,1,9999,9999,9999,529086548
83,1,0,Ticks_Pract_8,2,9999,9999,9999,529886304
83,1,0,Ticks_Pract_8,3,9999,9999,9999,530687080
83,1,0,Ticks_Pract_8,4,9999,9999,9999,531486812
83,1,0,Ticks_Pract_8,5,9999,9999,9999,532286548
83,1,0,Ticks_Pract_8,6,9999,9999,9999,533086284
83,1,0,Ticks_Pract_8,7,9999,9999,9999,533887060
83,1,0,Ticks_Pract_8,8,9999,9999,9999,534686796
83,1,0,Ticks_Pract_8,9,9999,9999,9999,535486556
83,1,0,Ticks_Pract_8,10,9999,9999,9999,536286292
83,1,0,Ticks_Pract_8,11,9999,9999,9999,537087072
83,1,0,Ticks_Pract_8,12,9999,9999,9999,537886804
83,1,0,Ticks_Pract_8,13,9999,9999,9999,538686544
83,1,0,Ticks_Pract_8,14,9999,9999,9999,539486280
83,1,0,Ticks_Pract_8,15,9999,9999,9999,540287056
83,1,0,Ticks_Pract_8,16,9999,9999,9999,541086792
83,1,0,Ticks_Pract_8,17,9999,9999,9999,541886540
83,1,0,Ticks_Pract_8,18,9999,9999,9999,542686276
83,1,0,Ticks_Pract_8,19,9999,9999,9999,543487056
83,1,0,Ticks_Pract_8,20,9999,9999,9999,544286796
83,1,0,Ticks_Pract_8,21,9999,9999,9999,545086520
83,1,0,Ticks_Pract_8,22,9999,9999,9999,545886316
83,1,0,Ticks_Pract_8,23,9999,9999,9999,546687088
83,1,0,Ticks_Pract_8,24,9999,9999,9999,547486824
83,1,0,Ticks_Pract_8,25,9999,9999,9999,548286580
83,1,0,Ticks_Pract_8,26,9999,9999,9999,549086316
83,1,0,Ticks_Pract_8,27,9999,9999,9999,549887096
83,1,0,Ticks_Pract_8,28,9999,9999,9999,550686828
83,1,0,Ticks_Pract_8,29,9999,9999,9999,551486564
83,2,1,Ticks_Pract_5,0,5,42,127,601775608
83,2,1,Ticks_Pract_5,1,5,42,127,602276148
83,2,1,Ticks_Pract_5,2,5,42,127,602775764
83,2,1,Ticks_Pract_5,3,5,42,127,603275480
83,2,1,Ticks_Pract_5,4,5,42,127,603776472
83,2,1,Ticks_Pract_5,5,1,48,27,603785796
83,2,1,Ticks_Pract_5,6,1,48,29,604208208
83,2,1,Ticks_Pract_5,7,5,42,127,604276004
83,2,1,Ticks_Pract_5,8,1,48,23,604748820
83,2,1,Ticks_Pract_5,9,5,42,127,604775700
83,2,1,Ticks_Pract_5,10,1,48,35,605234896
83,2,1,Ticks_Pract_5,11,5,42,127,605275544
83,2,1,Ticks_Pract_5,12,5,42,127,605776216
83,2,1,Ticks_Pract_5,13,1,48,34,605778888
83,2,1,Ticks_Pract_5,14,1,48,31,606266000
83,2,1,Ticks_Pract_5,15,5,42,127,606275980
83,2,1,Ticks_Pract_5,16,1,48,29,606774244
83,2,1,Ticks_Pract_5,17,5,42,127,606775752
83,2,1,Ticks_Pract_5,18,5,42,127,607276576
83,2,1,Ticks_Pract_5,19,1,48,32,607283732
83,2,1,Ticks_Pract_5,20,1,48,30,607770772
83,2,1,Ticks_Pract_5,21,5,42,127,607776036
83,2,1,Ticks_Pract_5,22,1,48,32,608239872
83,2,1,Ticks_Pract_5,23,5,42,127,608275804
83,2,1,Ticks_Pract_5,24,1,48,27,608762228
83,2,1,Ticks_Pract_5,25,5,42,127,608775500
83,2,1,Ticks_Pract_5,26,1,48,35,609266036
83,2,1,Ticks_Pract_5,27,5,42,127,609276240
83,2,1,Ticks_Pract_5,28,1,48,34,609763036
83,2,1,Ticks_Pract_5,29,5,42,127,609775932
83,2,1,Ticks_Pract_5,30,1,48,29,610245004
83,2,1,Ticks_Pract_5,31,5,42,127,610275628
83,2,1,Ticks_Pract_5,32,1,48,31,610756440
83,2,1,Ticks_Pract_5,33,5,42,127,610776524
83,2,1,Ticks_Pract_5,34,1,48,28,611266452
83,2,1,Ticks_Pract_5,35,5,42,127,611276064
83,2,1,Ticks_Pract_5,36,1,48,32,611774864
83,2,1,Ticks_Pract_5,37,5,42,127,611776584
83,2,1,Ticks_Pract_5,38,1,48,34,612254672
83,2,1,Ticks_Pract_5,39,5,42,127,612275528
83,2,1,Ticks_Pract_5,40,5,42,127,612776500
83,2,1,Ticks_Pract_5,41,1,48,27,612790768
83,2,1,Ticks_Pract_5,42,1,48,29,613267156
83,2,1,Ticks_Pract_5,43,5,42,127,613276016
83,2,1,Ticks_Pract_5,44,1,48,32,613740296
83,2,1,Ticks_Pract_5,45,5,42,127,613775636
83,2,1,Ticks_Pract_5,46,1,48,29,614254652
83,2,1,Ticks_Pract_5,47,5,42,127,614275552
83,2,1,Ticks_Pract_5,48,1,48,33,614770128
83,2,1,Ticks_Pract_5,49,5,42,127,614776440
83,2,1,Ticks_Pract_5,50,1,48,31,615271840
83,2,1,Ticks_Pract_5,51,5,42,127,615275988
83,2,1,Ticks_Pract_5,52,5,42,127,615775540
83,2,1,Ticks_Pract_5,53,1,48,35,615792196
83,2,1,Ticks_Pract_5,54,5,42,127,616276504
83,2,1,Ticks_Pract_5,55,1,48,28,616278952
83,2,1,Ticks_Pract_5,56,5,42,127,616776272
83,2,1,Ticks_Pract_5,57,1,48,37,616791884
83,2,1,Ticks_Pract_5,58,5,42,127,617275892
83,2,1,Ticks_Pract_5,59,1,48,34,617299732
83,2,1,Ticks_Pract_5,60,5,42,127,617775584
83,2,1,Ticks_Pract_5,61,1,48,35,617807504
83,2,1,Ticks_Pract_5,62,5,42,127,618276476
83,2,1,Ticks_Pract_5,63,1,48,28,618292912
83,2,1,Ticks_Pract_5,64,5,42,127,618775876
83,2,1,Ticks_Pract_5,65,1,48,28,618802408
83,2,1,Ticks_Pract_5,66,5,42,127,619275716
83,2,1,Ticks_Pract_5,67,1,48,31,619285120
83,2,1,Ticks_Pract_5,68,5,42,127,619776388
83,2,1,Ticks_Pract_5,69,1,48,38,619800600
83,2,1,Ticks_Pract_5,70,5,42,127,620276300
83,2,1,Ticks_Pract_5,71,1,48,33,620277268
83,2,1,Ticks_Pract_5,72,5,42,127,620775772
83,2,1,Ticks_Pract_5,73,1,48,32,620807692
83,2,1,Ticks_Pract_5,74,5,42,127,621275396
83,2,1,Ticks_Pract_5,75,1,48,31,621276364
83,2,1,Ticks_Pract_5,0,9999,9999,9999,601773172
83,2,1,Ticks_Pract_5,1,9999,9999,9999,602273912
83,2,1,Ticks_Pract_5,2,9999,9999,9999,602773552
83,2,1,Ticks_Pract_5,3,9999,9999,9999,603273268
83,2,1,Ticks_Pract_5,4,9999,9999,9999,603774032
83,2,1,Ticks_Pract_5,5,9999,9999,9999,604273720
83,2,1,Ticks_Pract_5,6,9999,9999,9999,604773488
83,2,1,Ticks_Pract_5,7,9999,9999,9999,605273184
83,2,1,Ticks_Pract_5,8,9999,9999,9999,605773932
83,2,1,Ticks_Pract_5,9,9999,9999,9999,606273620
83,2,1,Ticks_Pract_5,10,9999,9999,9999,606773324
83,2,1,Ticks_Pract_5,11,9999,9999,9999,607274060
83,2,1,Ticks_Pract_5,12,9999,9999,9999,607773752
83,2,1,Ticks_Pract_5,13,9999,9999,9999,608273516
83,2,1,Ticks_Pract_5,14,9999,9999,9999,608773212
83,2,1,Ticks_Pract_5,15,9999,9999,9999,609273956
83,2,1,Ticks_Pract_5,16,9999,9999,9999,609773648
83,2,1,Ticks_Pract_5,17,9999,9999,9999,610273344
83,2,1,Ticks_Pract_5,18,9999,9999,9999,610774084
83,2,1,Ticks_Pract_5,19,9999,9999,9999,611273780
83,2,1,Ticks_Pract_5,20,9999,9999,9999,611773556
83,2,1,Ticks_Pract_5,21,9999,9999,9999,612273240
83,2,1,Ticks_Pract_5,22,9999,9999,9999,612773988
83,2,1,Ticks_Pract_5,23,9999,9999,9999,613273656
83,2,1,Ticks_Pract_5,24,9999,9999,9999,613773424
83,2,1,Ticks_Pract_5,25,9999,9999,9999,614273116
83,2,1,Ticks_Pract_5,26,9999,9999,9999,614773860
83,2,1,Ticks_Pract_5,27,9999,9999,9999,615273552
83,2,1,Ticks_Pract_5,28,9999,9999,9999,615773252
83,2,1,Ticks_Pract_5,29,9999,9999,9999,616273996
83,2,1,Ticks_Pract_5,30,9999,9999,9999,616773688
83,2,1,Ticks_Pract_5,31,9999,9999,9999,617273456
83,2,1,Ticks_Pract_5,32,9999,9999,9999,617773152
83,2,1,Ticks_Pract_5,33,9999,9999,9999,618273892
83,2,1,Ticks_Pract_5,34,9999,9999,9999,618773588
83,2,1,Ticks_Pract_5,35,9999,9999,9999,619273280
83,2,1,Ticks_Pract_5,36,9999,9999,9999,619774024
83,2,1,Ticks_Pract_5,37,9999,9999,9999,620273716
83,2,1,Ticks_Pract_5,38,9999,9999,9999,620773484
83,2,1,Ticks_Pract_5,39,9999,9999,9999,621273184
83,3,2,T1_SMS_8,0,5,42,127,694139172
83,3,2,T1_SMS_8,1,5,42,127,694939076
83,3,2,T1_SMS_8,2,5,42,127,695738932
83,3,2,T1_SMS_8,3,1,48,34,695773240
83,3,2,T1_SMS_8,4,5,42,127,696538440
83,3,2,T1_SMS_8,5,1,48,25,696541108
83,3,2,T1_SMS_8,6,5,42,127,697339148
83,3,2,T1_SMS_8,7,1,48,34,697365900
83,3,2,T1_SMS_8,8,5,42,127,698138884
83,3,2,T1_SMS_8,9,1,48,26,698145140
83,3,2,T1_SMS_8,10,1,48,26,698885692
83,3,2,T1_SMS_8,11,5,42,127,698938908
83,3,2,T1_SMS_8,12,1,48,32,699681836
83,3,2,T1_SMS_8,13,5,42,127,699738344
83,3,2,T1_SMS_8,14,1,48,29,700491144
83,3,2,T1_SMS_8,15,5,42,127,700539200
83,3,2,T1_SMS_8,16,1,48,30,701298884
83,3,2,T1_SMS_8,17,5,42,127,701338932
83,3,2,T1_SMS_8,18,1,48,30,702092704
83,3,2,T1_SMS_8,19,5,42,127,702138912
83,3,2,T1_SMS_8,20,1,48,29,702870296
83,3,2,T1_SMS_8,21,5,42,127,702938720
83,3,2,T1_SMS_8,22,1,48,32,703690852
83,3,2,T1_SMS_8,23,5,42,127,703739276
83,3,2,T1_SMS_8,24,1,48,32,704489612
83,3,2,T1_SMS_8,25,5,42,127,704538860
83,3,2,T1_SMS_8,26,1,48,36,705284112
83,3,2,T1_SMS_8,27,5,42,127,705338672
83,3,2,T1_SMS_8,28,1,48,29,706066488
83,3,2,T1_SMS_8,29,5,42,127,706138328
83,3,2,T1_SMS_8,30,1,48,29,706877744
83,3,2,T1_SMS_8,31,5,42,127,706939184
83,3,2,T1_SMS_8,32,1,48,33,707697072
83,3,2,T1_SMS_8,33,5,42,127,707738840
83,3,2,T1_SMS_8,34,5,42,127,708538684
83,3,2,T1_SMS_8,35,1,48,29,708549280
83,3,2,T1_SMS_8,36,1,48,32,709305088
83,3,2,T1_SMS_8,37,5,42,127,709338708
83,3,2,T1_SMS_8,38,1,48,32,710110132
83,3,2,T1_SMS_8,39,5,42,127,710139116
83,3,2,T1_SMS_8,40,1,48,37,710877856
83,3,2,T1_SMS_8,41,5,42,127,710939000
83,3,2,T1_SMS_8,42,1,48,39,711719100
83,3,2,T1_SMS_8,43,5,42,127,711738732
83,3,2,T1_SMS_8,44,1,48,31,712531772
83,3,2,T1_SMS_8,45,5,42,127,712538616
83,3,2,T1_SMS_8,46,5,42,127,713339180
83,3,2,T1_SMS_8,47,1,48,34,713353444
83,3,2,T1_SMS_8,48,1,48,32,714134304
83,3,2,T1_SMS_8,49,5,42,127,714138980
83,3,2,T1_SMS_8,50,1,48,37,714932572
83,3,2,T1_SMS_8,51,5,42,127,714938664
83,3,2,T1_SMS_8,52,1,48,35,715681664
83,3,2,T1_SMS_8,53,5,42,127,715738472
83,3,2,T1_SMS_8,54,1,48,31,716531660
83,3,2,T1_SMS_8,55,5,42,127,716539176
83,3,2,T1_SMS_8,56,1,48,29,717330724
83,3,2,T1_SMS_8,57,5,42,127,717339060
83,3,2,T1_SMS_8,58,5,42,127,718138724
83,3,2,T1_SMS_8,59,1,48,28,718149324
83,3,2,T1_SMS_8,60,1,48,30,718866764
83,3,2,T1_SMS_8,61,5,42,127,718938380
83,3,2,T1_SMS_8,62,1,48,26,719696484
83,3,2,T1_SMS_8,63,5,42,127,719739456
83,3,2,T1_SMS_8,64,1,48,33,720526284
83,3,2,T1_SMS_8,65,5,42,127,720538892
83,3,2,T1_SMS_8,66,1,48,25,721336536
83,3,2,T1_SMS_8,67,5,42,127,721338652
83,3,2,T1_SMS_8,68,1,48,27,722129300
83,3,2,T1_SMS_8,69,5,42,127,722138384
83,3,2,T1_SMS_8,70,1,48,30,722897244
83,3,2,T1_SMS_8,71,5,42,127,722939460
83,3,2,T1_SMS_8,72,1,48,32,723691664
83,3,2,T1_SMS_8,73,5,42,127,723738968
83,3,2,T1_SMS_8,74,5,42,127,724538712
83,3,2,T1_SMS_8,75,1,48,29,724589472
83,3,2,T1_SMS_8,76,5,42,127,725338368
83,3,2,T1_SMS_8,77,1,48,29,725382400
83,3,2,T1_SMS_8,78,5,42,127,726139444
83,3,2,T1_SMS_8,79,1,48,30,726181260
83,3,2,T1_SMS_8,80,5,42,127,726938956
83,3,2,T1_SMS_8,81,1,48,20,726962496
83,3,2,T1_SMS_8,82,1,48,30,727718676
83,3,2,T1_SMS_8,83,5,42,127,727738680
83,3,2,T1_SMS_8,84,1,48,21,728526040
83,3,2,T1_SMS_8,85,5,42,127,728538488
83,3,2,T1_SMS_8,86,5,42,127,729339276
83,3,2,T1_SMS_8,87,1,48,27,729350400
83,3,2,T1_SMS_8,88,5,42,127,730138860
83,3,2,T1_SMS_8,89,1,48,31,730157164
83,3,2,T1_SMS_8,90,1,48,32,730936696
83,3,2,T1_SMS_8,91,5,42,127,730938660
83,3,2,T1_SMS_8,92,1,48,32,731696476
83,3,2,T1_SMS_8,93,5,42,127,731738544
83,3,2,T1_SMS_8,94,5,42,127,732539256
83,3,2,T1_SMS_8,95,1,48,27,732556060
83,3,2,T1_SMS_8,96,1,48,26,733325108
83,3,2,T1_SMS_8,97,5,42,127,733339280
83,3,2,T1_SMS_8,98,1,48,26,734106968
83,3,2,T1_SMS_8,99,5,42,127,734138592
83,3,2,T1_SMS_8,100,5,42,127,734938556
83,3,2,T1_SMS_8,101,1,48,30,734966504
83,3,2,T1_SMS_8,102,5,42,127,735739336
83,3,2,T1_SMS_8,103,1,48,26,735747244
83,3,2,T1_SMS_8,104,1,48,28,736506636
83,3,2,T1_SMS_8,105,5,42,127,736538912
83,3,2,T1_SMS_8,106,1,48,31,737302936
83,3,2,T1_SMS_8,107,5,42,127,737338872
83,3,2,T1_SMS_8,108,1,48,28,738138084
83,3,2,T1_SMS_8,109,5,42,127,738139576
83,3,2,T1_SMS_8,110,1,48,25,738910780
83,3,2,T1_SMS_8,111,5,42,127,738939312
83,3,2,T1_SMS_8,112,1,48,28,739689868
83,3,2,T1_SMS_8,113,5,42,127,739739116
83,3,2,T1_SMS_8,114,1,48,33,740508776
83,3,2,T1_SMS_8,115,5,42,127,740538876
83,3,2,T1_SMS_8,116,1,48,27,741310828
83,3,2,T1_SMS_8,117,5,42,127,741338536
83,3,2,T1_SMS_8,118,1,48,31,742105020
83,3,2,T1_SMS_8,119,5,42,127,742139168
83,3,2,T1_SMS_8,120,1,48,21,742912536
83,3,2,T1_SMS_8,121,5,42,127,742939124
83,3,2,T1_SMS_8,122,1,48,29,743647724
83,3,2,T1_SMS_8,123,5,42,127,743738932
83,3,2,T1_SMS_8,124,5,42,127,744538452
83,3,2,T1_SMS_8,125,1,48,21,744604948
83,3,2,T1_SMS_8,126,5,42,127,745339308
83,3,2,T1_SMS_8,127,1,48,27,745368452
83,3,2,T1_SMS_8,128,5,42,127,746138964
83,3,2,T1_SMS_8,129,1,48,27,746185560
83,3,2,T1_SMS_8,130,5,42,127,746938796
83,3,2,T1_SMS_8,131,1,48,31,746979912
83,3,2,T1_SMS_8,132,1,48,28,747735868
83,3,2,T1_SMS_8,133,5,42,127,747738376
83,3,2,T1_SMS_8,134,5,42,127,748539384
83,3,2,T1_SMS_8,135,1,48,27,748540868
83,3,2,T1_SMS_8,136,1,48,24,749288520
83,3,2,T1_SMS_8,137,5,42,127,749339184
83,3,2,T1_SMS_8,138,1,48,20,750101112
83,3,2,T1_SMS_8,139,5,42,127,750138920
83,3,2,T1_SMS_8,140,1,48,21,750868236
83,3,2,T1_SMS_8,141,5,42,127,750938428
83,3,2,T1_SMS_8,142,1,48,31,751715160
83,3,2,T1_SMS_8,143,5,42,127,751739208
83,3,2,T1_SMS_8,144,1,48,21,752536064
83,3,2,T1_SMS_8,145,5,42,127,752539092
83,3,2,T1_SMS_8,146,1,48,26,753315776
83,3,2,T1_SMS_8,147,5,42,127,753338852
83,3,2,T1_SMS_8,148,1,48,31,754133312
83,3,2,T1_SMS_8,149,5,42,127,754138508
83,3,2,T1_SMS_8,150,5,42,127,754939224
83,3,2,T1_SMS_8,151,1,48,35,754976072
83,3,2,T1_SMS_8,152,5,42,127,755738956
83,3,2,T1_SMS_8,153,1,48,27,755765932
83,3,2,T1_SMS_8,154,1,48,27,756533784
83,3,2,T1_SMS_8,155,5,42,127,756538980
83,3,2,T1_SMS_8,156,5,42,127,757338348
83,3,2,T1_SMS_8,157,1,48,23,757353132
83,3,2,T1_SMS_8,158,1,48,29,758138980
83,3,2,T1_SMS_8,159,5,42,127,758140464
83,3,2,T1_SMS_8,160,1,48,38,758923340
83,3,2,T1_SMS_8,161,5,42,127,758938928
83,3,2,T1_SMS_8,162,5,42,127,759738968
83,3,2,T1_SMS_8,163,1,48,21,759752628
83,3,2,T1_SMS_8,164,5,42,127,760538328
83,3,2,T1_SMS_8,165,1,48,27,760594852
83,3,2,T1_SMS_8,166,5,42,127,761339184
83,3,2,T1_SMS_8,167,1,48,16,761391296
83,3,2,T1_SMS_8,168,1,48,23,762103944
83,3,2,T1_SMS_8,169,5,42,127,762139056
83,3,2,T1_SMS_8,170,1,48,29,762895148
83,3,2,T1_SMS_8,171,5,42,127,762938940
83,3,2,T1_SMS_8,172,1,48,45,763735944
83,3,2,T1_SMS_8,173,5,42,127,763738672
83,3,2,T1_SMS_8,174,5,42,127,764539312
83,3,2,T1_SMS_8,175,1,48,37,764550360
83,3,2,T1_SMS_8,176,1,48,23,764615736
83,3,2,T1_SMS_8,177,5,42,127,765338876
83,3,2,T1_SMS_8,178,1,48,39,765352612
83,3,2,T1_SMS_8,179,5,42,127,766138832
83,3,2,T1_SMS_8,180,1,48,28,766147408
83,3,2,T1_SMS_8,181,5,42,127,766938640
83,3,2,T1_SMS_8,182,1,48,32,766958584
83,3,2,T1_SMS_8,183,5,42,127,767739268
83,3,2,T1_SMS_8,184,1,48,37,767802380
83,3,2,T1_SMS_8,185,5,42,127,768539004
83,3,2,T1_SMS_8,186,1,48,27,768590892
83,3,2,T1_SMS_8,187,1,48,31,769334804
83,3,2,T1_SMS_8,188,5,42,127,769338804
83,3,2,T1_SMS_8,189,5,42,127,770138692
83,3,2,T1_SMS_8,190,1,48,32,770152808
83,3,2,T1_SMS_8,191,5,42,127,770939324
83,3,2,T1_SMS_8,192,1,48,26,770964660
83,3,2,T1_SMS_8,193,1,48,27,771730940
83,3,2,T1_SMS_8,194,5,42,127,771739076
83,3,2,T1_SMS_8,195,5,42,127,772538592
83,3,2,T1_SMS_8,196,1,48,32,772540604
83,3,2,T1_SMS_8,197,5,42,127,773338552
83,3,2,T1_SMS_8,198,1,48,32,773371808
83,3,2,T1_SMS_8,199,5,42,127,774139180
83,3,2,T1_SMS_8,200,1,48,23,774166532
83,3,2,T1_SMS_8,201,1,48,28,774895864
83,3,2,T1_SMS_8,202,5,42,127,774938984
83,3,2,T1_SMS_8,203,1,48,25,775731500
83,3,2,T1_SMS_8,204,5,42,127,775738864
83,3,2,T1_SMS_8,205,5,42,127,776538604
83,3,2,T1_SMS_8,206,1,48,40,776556608
83,3,2,T1_SMS_8,207,5,42,127,777339236
83,3,2,T1_SMS_8,208,1,48,33,777344296
83,3,2,T1_SMS_8,209,5,42,127,778138916
83,3,2,T1_SMS_8,210,1,48,23,778183776
83,3,2,T1_SMS_8,211,5,42,127,778938652
83,3,2,T1_SMS_8,212,1,48,31,778971540
83,3,2,T1_SMS_8,213,1,48,34,779695928
83,3,2,T1_SMS_8,214,5,42,127,779738600
83,3,2,T1_SMS_8,215,5,42,127,780539464
83,3,2,T1_SMS_8,216,1,48,18,780629496
83,3,2,T1_SMS_8,217,5,42,127,781338900
83,3,2,T1_SMS_8,218,1,48,28,781356156
83,3,2,T1_SMS_8,219,1,48,28,782129468
83,3,2,T1_SMS_8,220,5,42,127,782138624
83,3,2,T1_SMS_8,221,1,48,33,782897860
83,3,2,T1_SMS_8,222,5,42,127,782938508
83,3,2,T1_SMS_8,223,1,48,32,783737024
83,3,2,T1_SMS_8,224,5,42,127,783739512
83,3,2,T1_SMS_8,225,5,42,127,784538980
83,3,2,T1_SMS_8,226,1,48,29,784560648
83,3,2,T1_SMS_8,227,5,42,127,785338864
83,3,2,T1_SMS_8,228,1,48,36,785360384
83,3,2,T1_SMS_8,229,5,42,127,786138524
83,3,2,T1_SMS_8,230,1,48,29,786159744
83,3,2,T1_SMS_8,231,5,42,127,786939524
83,3,2,T1_SMS_8,232,1,48,31,786965304
83,3,2,T1_SMS_8,233,5,42,127,787739036
83,3,2,T1_SMS_8,234,1,48,26,787752252
83,3,2,T1_SMS_8,235,5,42,127,788538692
83,3,2,T1_SMS_8,236,1,48,18,788548392
83,3,2,T1_SMS_8,237,1,48,40,789258052
83,3,2,T1_SMS_8,238,5,42,127,789338496
83,3,2,T1_SMS_8,239,1,48,26,790131768
83,3,2,T1_SMS_8,0,9999,9999,9999,694136884
83,3,2,T1_SMS_8,1,9999,9999,9999,694936640
83,3,2,T1_SMS_8,2,9999,9999,9999,695736420
83,3,2,T1_SMS_8,3,9999,9999,9999,696536152
83,3,2,T1_SMS_8,4,9999,9999,9999,697336936
83,3,2,T1_SMS_8,5,9999,9999,9999,698136668
83,3,2,T1_SMS_8,6,9999,9999,9999,698936396
83,3,2,T1_SMS_8,7,9999,9999,9999,699736128
83,3,2,T1_SMS_8,8,9999,9999,9999,700536912
83,3,2,T1_SMS_8,9,9999,9999,9999,701336644
83,3,2,T1_SMS_8,10,9999,9999,9999,702136400
83,3,2,T1_SMS_8,11,9999,9999,9999,702936136
83,3,2,T1_SMS_8,12,9999,9999,9999,703736912
83,3,2,T1_SMS_8,13,9999,9999,9999,704536648
83,3,2,T1_SMS_8,14,9999,9999,9999,705336384
83,3,2,T1_SMS_8,15,9999,9999,9999,706136116
83,3,2,T1_SMS_8,16,9999,9999,9999,706936896
83,3,2,T1_SMS_8,17,9999,9999,9999,707736628
83,3,2,T1_SMS_8,18,9999,9999,9999,708536392
83,3,2,T1_SMS_8,19,9999,9999,9999,709336124
83,3,2,T1_SMS_8,20,9999,9999,9999,710136904
83,3,2,T1_SMS_8,21,9999,9999,9999,710936636
83,3,2,T1_SMS_8,22,9999,9999,9999,711736444
83,3,2,T1_SMS_8,23,9999,9999,9999,712536176
83,3,2,T1_SMS_8,24,9999,9999,9999,713336892
83,3,2,T1_SMS_8,25,9999,9999,9999,714136692
83,3,2,T1_SMS_8,26,9999,9999,9999,714936376
83,3,2,T1_SMS_8,27,9999,9999,9999,715736184
83,3,2,T1_SMS_8,28,9999,9999,9999,716536888
83,3,2,T1_SMS_8,29,9999,9999,9999,717336700
83,3,2,T1_SMS_8,30,9999,9999,9999,718136436
83,3,2,T1_SMS_8,31,9999,9999,9999,718936164
83,3,2,T1_SMS_8,32,9999,9999,9999,719736944
83,3,2,T1_SMS_8,33,9999,9999,9999,720536676
83,3,2,T1_SMS_8,34,9999,9999,9999,721336400
83,3,2,T1_SMS_8,35,9999,9999,9999,722136168
83,3,2,T1_SMS_8,36,9999,9999,9999,722936948
83,3,2,T1_SMS_8,37,9999,9999,9999,723736680
83,3,2,T1_SMS_8,38,9999,9999,9999,724536424
83,3,2,T1_SMS_8,39,9999,9999,9999,725336156
83,3,2,T1_SMS_8,40,9999,9999,9999,726136932
83,3,2,T1_SMS_8,41,9999,9999,9999,726936668
83,3,2,T1_SMS_8,42,9999,9999,9999,727736396
83,3,2,T1_SMS_8,43,9999,9999,9999,728536128
83,3,2,T1_SMS_8,44,9999,9999,9999,729336912
83,3,2,T1_SMS_8,45,9999,9999,9999,730136648
83,3,2,T1_SMS_8,46,9999,9999,9999,730936412
83,3,2,T1_SMS_8,47,9999,9999,9999,731736180
83,3,2,T1_SMS_8,48,9999,9999,9999,732536892
83,3,2,T1_SMS_8,49,9999,9999,9999,733336696
83,3,2,T1_SMS_8,50,9999,9999,9999,734136376
83,3,2,T1_SMS_8,51,9999,9999,9999,734936120
83,3,2,T1_SMS_8,52,9999,9999,9999,735736896
83,3,2,T1_SMS_8,53,9999,9999,9999,736536624
83,3,2,T1_SMS_8,54,9999,9999,9999,737336436
83,3,2,T1_SMS_8,55,9999,9999,9999,738136176
83,3,2,T1_SMS_8,56,9999,9999,9999,738936948
83,3,2,T1_SMS_8,57,9999,9999,9999,739736680
83,3,2,T1_SMS_8,58,9999,9999,9999,740536440
83,3,2,T1_SMS_8,59,9999,9999,9999,741336176
83,3,2,T1_SMS_8,60,9999,9999,9999,742136952
83,3,2,T1_SMS_8,61,9999,9999,9999,742936688
83,3,2,T1_SMS_8,62,9999,9999,9999,743736420
83,3,2,T1_SMS_8,63,9999,9999,9999,744536164
83,3,2,T1_SMS_8,64,9999,9999,9999,745336944
83,3,2,T1_SMS_8,65,9999,9999,9999,746136676
83,3,2,T1_SMS_8,66,9999,9999,9999,746936436
83,3,2,T1_SMS_8,67,9999,9999,9999,747736160
83,3,2,T1_SMS_8,68,9999,9999,9999,748536948
83,3,2,T1_SMS_8,69,9999,9999,9999,749336676
83,3,2,T1_SMS_8,70,9999,9999,9999,750136408
83,3,2,T1_SMS_8,71,9999,9999,9999,750936140
83,3,2,T1_SMS_8,72,9999,9999,9999,751736920
83,3,2,T1_SMS_8,73,9999,9999,9999,752536656
83,3,2,T1_SMS_8,74,9999,9999,9999,753336412
83,3,2,T1_SMS_8,75,9999,9999,9999,754136148
83,3,2,T1_SMS_8,76,9999,9999,9999,754936932
83,3,2,T1_SMS_8,77,9999,9999,9999,755736668
83,3,2,T1_SMS_8,78,9999,9999,9999,756536396
83,3,2,T1_SMS_8,79,9999,9999,9999,757336136
83,3,2,T1_SMS_8,80,9999,9999,9999,758136916
83,3,2,T1_SMS_8,81,9999,9999,9999,758936644
83,3,2,T1_SMS_8,82,9999,9999,9999,759736380
83,3,2,T1_SMS_8,83,9999,9999,9999,760536116
83,3,2,T1_SMS_8,84,9999,9999,9999,761336896
83,3,2,T1_SMS_8,85,9999,9999,9999,762136696
83,3,2,T1_SMS_8,86,9999,9999,9999,762936428
83,3,2,T1_SMS_8,87,9999,9999,9999,763736160
83,3,2,T1_SMS_8,88,9999,9999,9999,764536948
83,3,2,T1_SMS_8,89,9999,9999,9999,765336660
83,3,2,T1_SMS_8,90,9999,9999,9999,766136392
83,3,2,T1_SMS_8,91,9999,9999,9999,766936128
83,3,2,T1_SMS_8,92,9999,9999,9999,767736908
83,3,2,T1_SMS_8,93,9999,9999,9999,768536640
83,3,2,T1_SMS_8,94,9999,9999,9999,769336444
83,3,2,T1_SMS_8,95,9999,9999,9999,770136180
83,3,2,T1_SMS_8,96,9999,9999,9999,770936888
83,3,2,T1_SMS_8,97,9999,9999,9999,771736688
83,3,2,T1_SMS_8,98,9999,9999,9999,772536380
83,3,2,T1_SMS_8,99,9999,9999,9999,773336112
83,3,2,T1_SMS_8,100,9999,9999,9999,774136892
83,3,2,T1_SMS_8,101,9999,9999,9999,774936696
83,3,2,T1_SMS_8,102,9999,9999,9999,775736428
83,3,2,T1_SMS_8,103,9999,9999,9999,776536168
83,3,2,T1_SMS_8,104,9999,9999,9999,777336948
83,3,2,T1_SMS_8,105,9999,9999,9999,778136680
83,3,2,T1_SMS_8,106,9999,9999,9999,778936440
83,3,2,T1_SMS_8,107,9999,9999,9999,779736164
83,3,2,T1_SMS_8,108,9999,9999,9999,780536952
83,3,2,T1_SMS_8,109,9999,9999,9999,781336684
83,3,2,T1_SMS_8,110,9999,9999,9999,782136412
83,3,2,T1_SMS_8,111,9999,9999,9999,782936148
83,3,2,T1_SMS_8,112,9999,9999,9999,783736888
83,3,2,T1_SMS_8,113,9999,9999,9999,784536668
83,3,2,T1_SMS_8,114,9999,9999,9999,785336424
83,3,2,T1_SMS_8,115,9999,9999,9999,786136160
83,3,2,T1_SMS_8,116,9999,9999,9999,786936940
83,3,2,T1_SMS_8,117,9999,9999,9999,787736672
83,3,2,T1_SMS_8,118,9999,9999,9999,788536404
83,3,2,T1_SMS_8,119,9999,9999,9999,789336136
83,4,4,T1_SMS_5,0,5,42,127,858414476
83,4,4,T1_SMS_5,1,5,42,127,858915240
83,4,4,T1_SMS_5,2,1,48,36,859061100
83,4,4,T1_SMS_5,3,5,42,127,859415160
83,4,4,T1_SMS_5,4,1,48,29,859418428
83,4,4,T1_SMS_5,5,1,48,35,859912812
83,4,4,T1_SMS_5,6,5,42,127,859914552
83,4,4,T1_SMS_5,7,1,48,32,860409052
83,4,4,T1_SMS_5,8,5,42,127,860415292
83,4,4,T1_SMS_5,9,1,48,32,860904180
83,4,4,T1_SMS_5,10,5,42,127,860915136
83,4,4,T1_SMS_5,11,1,48,36,861412252
83,4,4,T1_SMS_5,12,5,42,127,861415056
83,4,4,T1_SMS_5,13,1,48,35,861911280
83,4,4,T1_SMS_5,14,5,42,127,861914524
83,4,4,T1_SMS_5,15,5,42,127,862415128
83,4,4,T1_SMS_5,16,1,48,32,862420120
83,4,4,T1_SMS_5,17,5,42,127,862915116
83,4,4,T1_SMS_5,18,1,48,30,862919964
83,4,4,T1_SMS_5,19,5,42,127,863414516
83,4,4,T1_SMS_5,20,1,48,29,863417188
83,4,4,T1_SMS_5,21,5,42,127,863915332
83,4,4,T1_SMS_5,22,1,48,30,863921744
83,4,4,T1_SMS_5,23,5,42,127,864415028
83,4,4,T1_SMS_5,24,1,48,36,864417624
83,4,4,T1_SMS_5,25,5,42,127,864914996
83,4,4,T1_SMS_5,26,1,48,33,864931680
83,4,4,T1_SMS_5,27,5,42,127,865414468
83,4,4,T1_SMS_5,28,1,48,32,865424020
83,4,4,T1_SMS_5,29,1,48,35,865914004
83,4,4,T1_SMS_5,30,5,42,127,865915500
83,4,4,T1_SMS_5,31,5,42,127,866415052
83,4,4,T1_SMS_5,32,1,48,36,866418620
83,4,4,T1_SMS_5,33,1,48,32,866907380
83,4,4,T1_SMS_5,34,5,42,127,866914816
83,4,4,T1_SMS_5,35,1,48,30,867401388
83,4,4,T1_SMS_5,36,5,42,127,867415408
83,4,4,T1_SMS_5,37,1,48,35,867906316
83,4,4,T1_SMS_5,38,5,42,127,867915176
83,4,4,T1_SMS_5,39,5,42,127,868415100
83,4,4,T1_SMS_5,40,1,48,30,868425176
83,4,4,T1_SMS_5,41,5,42,127,868914496
83,4,4,T1_SMS_5,42,1,48,36,868917396
83,4,4,T1_SMS_5,43,5,42,127,869415240
83,4,4,T1_SMS_5,44,1,48,30,869471016
83,4,4,T1_SMS_5,45,5,42,127,869915080
83,4,4,T1_SMS_5,46,1,48,30,869932116
83,4,4,T1_SMS_5,47,1,48,35,870408080
83,4,4,T1_SMS_5,48,5,42,127,870414920
83,4,4,T1_SMS_5,49,5,42,127,870914324
83,4,4,T1_SMS_5,50,1,48,29,870940256
83,4,4,T1_SMS_5,51,1,48,33,871400212
83,4,4,T1_SMS_5,52,5,42,127,871415204
83,4,4,T1_SMS_5,53,1,48,33,871887268
83,4,4,T1_SMS_5,54,5,42,127,871915048
83,4,4,T1_SMS_5,55,1,48,31,872406708
83,4,4,T1_SMS_5,56,5,42,127,872414744
83,4,4,T1_SMS_5,57,1,48,32,872890320
83,4,4,T1_SMS_5,58,5,42,127,872915412
83,4,4,T1_SMS_5,59,1,48,36,873410964
83,4,4,T1_SMS_5,60,5,42,127,873415108
83,4,4,T1_SMS_5,61,1,48,34,873893228
83,4,4,T1_SMS_5,62,5,42,127,873914876
83,4,4,T1_SMS_5,63,1,48,34,874409824
83,4,4,T1_SMS_5,64,5,42,127,874414496
83,4,4,T1_SMS_5,65,5,42,127,874915172
83,4,4,T1_SMS_5,66,1,48,37,874920532
83,4,4,T1_SMS_5,67,1,48,38,875412256
83,4,4,T1_SMS_5,68,5,42,127,875414856
83,4,4,T1_SMS_5,69,5,42,127,875914684
83,4,4,T1_SMS_5,70,1,48,37,875934208
83,4,4,T1_SMS_5,71,5,42,127,876415204
83,4,4,T1_SMS_5,72,1,48,38,876417072
83,4,4,T1_SMS_5,73,5,42,127,876915120
83,4,4,T1_SMS_5,74,1,48,41,876917716
83,4,4,T1_SMS_5,75,5,42,127,877414744
83,4,4,T1_SMS_5,76,1,48,38,877455560
83,4,4,T1_SMS_5,77,5,42,127,877914508
83,4,4,T1_SMS_5,78,1,48,27,877934612
83,4,4,T1_SMS_5,79,5,42,127,878415252
83,4,4,T1_SMS_5,80,1,48,40,878425776
83,4,4,T1_SMS_5,81,1,48,39,878915020
83,4,4,T1_SMS_5,82,5,42,127,878916356
83,4,4,T1_SMS_5,83,5,42,127,879414716
83,4,4,T1_SMS_5,84,1,48,41,879436756
83,4,4,T1_SMS_5,85,1,48,41,879898816
83,4,4,T1_SMS_5,86,5,42,127,879915524
83,4,4,T1_SMS_5,87,5,42,127,880415152
83,4,4,T1_SMS_5,88,1,48,46,880430836
83,4,4,T1_SMS_5,89,5,42,127,880914844
83,4,4,T1_SMS_5,90,1,48,40,880933224
83,4,4,T1_SMS_5,91,5,42,127,881414616
83,4,4,T1_SMS_5,92,1,48,43,881418412
83,4,4,T1_SMS_5,93,5,42,127,881915208
83,4,4,T1_SMS_5,94,1,48,36,881921320
83,4,4,T1_SMS_5,95,5,42,127,882414828
83,4,4,T1_SMS_5,96,1,48,37,882443676
83,4,4,T1_SMS_5,97,5,42,127,882914672
83,4,4,T1_SMS_5,98,1,48,41,882924148
83,4,4,T1_SMS_5,99,5,42,127,883415784
83,4,4,T1_SMS_5,100,1,48,42,883429152
83,4,4,T1_SMS_5,101,1,48,41,883912224
83,4,4,T1_SMS_5,102,5,42,127,883915024
83,4,4,T1_SMS_5,103,5,42,127,884414728
83,4,4,T1_SMS_5,104,1,48,46,884419940
83,4,4,T1_SMS_5,105,1,48,41,884909076
83,4,4,T1_SMS_5,106,5,42,127,884914564
83,4,4,T1_SMS_5,107,5,42,127,885415388
83,4,4,T1_SMS_5,108,1,48,39,885430628
83,4,4,T1_SMS_5,109,1,48,45,885906264
83,4,4,T1_SMS_5,110,5,42,127,885914924
83,4,4,T1_SMS_5,111,1,48,38,886413700
83,4,4,T1_SMS_5,112,5,42,127,886415264
83,4,4,T1_SMS_5,113,5,42,127,886914520
83,4,4,T1_SMS_5,114,1,48,39,886941156
83,4,4,T1_SMS_5,115,5,42,127,887415188
83,4,4,T1_SMS_5,116,1,48,41,887428484
83,4,4,T1_SMS_5,117,1,48,38,887914356
83,4,4,T1_SMS_5,118,5,42,127,887915924
83,4,4,T1_SMS_5,119,5,42,127,888414504
83,4,4,T1_SMS_5,120,1,48,46,888439760
83,4,4,T1_SMS_5,121,1,48,46,888895756
83,4,4,T1_SMS_5,122,5,42,127,888915608
83,4,4,T1_SMS_5,123,5,42,127,889415012
83,4,4,T1_SMS_5,124,1,48,35,889449320
83,4,4,T1_SMS_5,125,5,42,127,889914708
83,4,4,T1_SMS_5,126,1,48,42,889917376
83,4,4,T1_SMS_5,127,5,42,127,890414400
83,4,4,T1_SMS_5,128,1,48,43,890415368
83,4,4,T1_SMS_5,129,1,48,46,890879424
83,4,4,T1_SMS_5,130,5,42,127,890915508
83,4,4,T1_SMS_5,131,5,42,127,891414912
83,4,4,T1_SMS_5,132,1,48,42,891425584
83,4,4,T1_SMS_5,133,5,42,127,891914608
83,4,4,T1_SMS_5,134,1,48,35,891920424
83,4,4,T1_SMS_5,135,5,42,127,892415572
83,4,4,T1_SMS_5,136,1,48,43,892429840
83,4,4,T1_SMS_5,137,5,42,127,892914972
83,4,4,T1_SMS_5,138,1,48,35,893002608
83,4,4,T1_SMS_5,139,5,42,127,893414740
83,4,4,T1_SMS_5,140,1,48,35,893443368
83,4,4,T1_SMS_5,141,5,42,127,893914360
83,4,4,T1_SMS_5,142,1,48,43,893957200
83,4,4,T1_SMS_5,143,5,42,127,894415472
83,4,4,T1_SMS_5,144,1,48,43,894443804
83,4,4,T1_SMS_5,145,1,48,45,894901888
83,4,4,T1_SMS_5,146,5,42,127,894914864
83,4,4,T1_SMS_5,147,1,48,46,895407044
83,4,4,T1_SMS_5,148,5,42,127,895414560
83,4,4,T1_SMS_5,149,1,48,43,895875676
83,4,4,T1_SMS_5,150,5,42,127,895915524
83,4,4,T1_SMS_5,151,5,42,127,896415300
83,4,4,T1_SMS_5,152,1,48,40,896430984
83,4,4,T1_SMS_5,153,5,42,127,896914748
83,4,4,T1_SMS_5,154,1,48,32,896936068
83,4,4,T1_SMS_5,155,5,42,127,897414440
83,4,4,T1_SMS_5,156,1,48,38,897453340
83,4,4,T1_SMS_5,157,5,42,127,897915332
83,4,4,T1_SMS_5,158,1,48,45,897922120
83,4,4,T1_SMS_5,159,5,42,127,898414952
83,4,4,T1_SMS_5,160,1,48,44,898440960
83,4,4,T1_SMS_5,161,5,42,127,898914644
83,4,4,T1_SMS_5,162,1,48,42,898923076
83,4,4,T1_SMS_5,163,5,42,127,899415536
83,4,4,T1_SMS_5,164,1,48,46,899437208
83,4,4,T1_SMS_5,165,1,48,39,899913412
83,4,4,T1_SMS_5,166,5,42,127,899915152
83,4,4,T1_SMS_5,167,1,48,46,900414024
83,4,4,T1_SMS_5,168,5,42,127,900415668
83,4,4,T1_SMS_5,169,5,42,127,900914620
83,4,4,T1_SMS_5,170,1,48,46,900929036
83,4,4,T1_SMS_5,171,1,48,51,901386528
83,4,4,T1_SMS_5,172,5,42,127,901415428
83,4,4,T1_SMS_5,173,5,42,127,901915208
83,4,4,T1_SMS_5,174,1,48,36,901927828
83,4,4,T1_SMS_5,175,5,42,127,902414604
83,4,4,T1_SMS_5,176,1,48,38,902459160
83,4,4,T1_SMS_5,177,5,42,127,902914524
83,4,4,T1_SMS_5,178,1,48,40,902958336
83,4,4,T1_SMS_5,179,5,42,127,903415264
83,4,4,T1_SMS_5,180,1,48,34,903478672
83,4,4,T1_SMS_5,181,5,42,127,903914812
83,4,4,T1_SMS_5,182,1,48,44,903962432
83,4,4,T1_SMS_5,183,5,42,127,904414580
83,4,4,T1_SMS_5,184,1,48,46,904456968
83,4,4,T1_SMS_5,185,5,42,127,904915172
83,4,4,T1_SMS_5,186,1,48,35,904939908
83,4,4,T1_SMS_5,187,5,42,127,905414944
83,4,4,T1_SMS_5,188,1,48,46,905417540
83,4,4,T1_SMS_5,189,5,42,127,905914860
83,4,4,T1_SMS_5,190,1,48,46,905930100
83,4,4,T1_SMS_5,191,5,42,127,906414408
83,4,4,T1_SMS_5,192,1,48,47,906458964
83,4,4,T1_SMS_5,193,5,42,127,906915148
83,4,4,T1_SMS_5,194,1,48,42,906932256
83,4,4,T1_SMS_5,195,5,42,127,907414992
83,4,4,T1_SMS_5,196,1,48,43,907459548
83,4,4,T1_SMS_5,197,1,48,41,907912392
83,4,4,T1_SMS_5,198,5,42,127,907914580
83,4,4,T1_SMS_5,199,5,42,127,908415252
83,4,4,T1_SMS_5,200,1,48,46,908429968
83,4,4,T1_SMS_5,201,5,42,127,908915096
83,4,4,T1_SMS_5,202,1,48,48,908942676
83,4,4,T1_SMS_5,203,1,48,40,909411612
83,4,4,T1_SMS_5,204,5,42,127,909414788
83,4,4,T1_SMS_5,205,5,42,127,909914416
83,4,4,T1_SMS_5,206,1,48,38,909935480
83,4,4,T1_SMS_5,207,1,48,45,910384820
83,4,4,T1_SMS_5,208,5,42,127,910415372
83,4,4,T1_SMS_5,209,1,48,39,910906732
83,4,4,T1_SMS_5,210,5,42,127,910914916
83,4,4,T1_SMS_5,211,1,48,37,911394836
83,4,4,T1_SMS_5,212,5,42,127,911414612
83,4,4,T1_SMS_5,213,1,48,43,911888320
83,4,4,T1_SMS_5,214,5,42,127,911915432
83,4,4,T1_SMS_5,215,1,48,34,912364448
83,4,4,T1_SMS_5,216,5,42,127,912415124
83,4,4,T1_SMS_5,217,1,48,37,912871028
83,4,4,T1_SMS_5,218,5,42,127,912914744
83,4,4,T1_SMS_5,219,5,42,127,913414448
83,4,4,T1_SMS_5,220,1,48,30,913443224
83,4,4,T1_SMS_5,221,5,42,127,913915188
83,4,4,T1_SMS_5,222,1,48,32,913927512
83,4,4,T1_SMS_5,223,1,48,43,914408188
83,4,4,T1_SMS_5,224,5,42,127,914415100
83,4,4,T1_SMS_5,225,1,48,41,914887016
83,4,4,T1_SMS_5,226,5,42,127,914914796
83,4,4,T1_SMS_5,227,5,42,127,915415396
83,4,4,T1_SMS_5,228,1,48,41,915466612
83,4,4,T1_SMS_5,229,5,42,127,915915016
83,4,4,T1_SMS_5,230,1,48,42,915929284
83,4,4,T1_SMS_5,231,1,48,43,916411152
83,4,4,T1_SMS_5,232,5,42,127,916415000
83,4,4,T1_SMS_5,233,5,42,127,916914404
83,4,4,T1_SMS_5,234,1,48,48,916917152
83,4,4,T1_SMS_5,235,1,48,48,917397608
83,4,4,T1_SMS_5,236,5,42,127,917415292
83,4,4,T1_SMS_5,237,1,48,49,917893008
83,4,4,T1_SMS_5,238,5,42,127,917915136
83,4,4,T1_SMS_5,239,5,42,127,918414884
83,4,4,T1_SMS_5,240,1,48,46,918419752
83,4,4,T1_SMS_5,241,1,48,40,918896964
83,4,4,T1_SMS_5,242,5,42,127,918914276
83,4,4,T1_SMS_5,243,1,48,39,919383568
83,4,4,T1_SMS_5,244,5,42,127,919415168
83,4,4,T1_SMS_5,245,1,48,31,919904508
83,4,4,T1_SMS_5,246,5,42,127,919914788
83,4,4,T1_SMS_5,247,5,42,127,920414712
83,4,4,T1_SMS_5,248,1,48,41,920425384
83,4,4,T1_SMS_5,249,1,48,39,920910180
83,4,4,T1_SMS_5,250,5,42,127,920915372
83,4,4,T1_SMS_5,251,1,48,43,921396032
83,4,4,T1_SMS_5,252,5,42,127,921414992
83,4,4,T1_SMS_5,253,5,42,127,921914916
83,4,4,T1_SMS_5,254,1,48,35,921923420
83,4,4,T1_SMS_5,255,5,42,127,922414392
83,4,4,T1_SMS_5,256,1,48,35,922437860
83,4,4,T1_SMS_5,257,1,48,41,922902676
83,4,4,T1_SMS_5,258,5,42,127,922915272
83,4,4,T1_SMS_5,0,9999,9999,9999,858412116
83,4,4,T1_SMS_5,1,9999,9999,9999,858912880
83,4,4,T1_SMS_5,2,9999,9999,9999,859412576
83,4,4,T1_SMS_5,3,9999,9999,9999,859912288
83,4,4,T1_SMS_5,4,9999,9999,9999,860413004
83,4,4,T1_SMS_5,5,9999,9999,9999,860912700
83,4,4,T1_SMS_5,6,9999,9999,9999,861412468
83,4,4,T1_SMS_5,7,9999,9999,9999,861912164
83,4,4,T1_SMS_5,8,9999,9999,9999,862412916
83,4,4,T1_SMS_5,9,9999,9999,9999,862912608
83,4,4,T1_SMS_5,10,9999,9999,9999,863412304
83,4,4,T1_SMS_5,11,9999,9999,9999,863913048
83,4,4,T1_SMS_5,12,9999,9999,9999,864412740
83,4,4,T1_SMS_5,13,9999,9999,9999,864912488
83,4,4,T1_SMS_5,14,9999,9999,9999,865412180
83,4,4,T1_SMS_5,15,9999,9999,9999,865912924
83,4,4,T1_SMS_5,16,9999,9999,9999,866412620
83,4,4,T1_SMS_5,17,9999,9999,9999,866912304
83,4,4,T1_SMS_5,18,9999,9999,9999,867413048
83,4,4,T1_SMS_5,19,9999,9999,9999,867912816
83,4,4,T1_SMS_5,20,9999,9999,9999,868412516
83,4,4,T1_SMS_5,21,9999,9999,9999,868912212
83,4,4,T1_SMS_5,22,9999,9999,9999,869412952
83,4,4,T1_SMS_5,23,9999,9999,9999,869912644
83,4,4,T1_SMS_5,24,9999,9999,9999,870412408
83,4,4,T1_SMS_5,25,9999,9999,9999,870912108
83,4,4,T1_SMS_5,26,9999,9999,9999,871412844
83,4,4,T1_SMS_5,27,9999,9999,9999,871912540
83,4,4,T1_SMS_5,28,9999,9999,9999,872412236
83,4,4,T1_SMS_5,29,9999,9999,9999,872912976
83,4,4,T1_SMS_5,30,9999,9999,9999,873412672
83,4,4,T1_SMS_5,31,9999,9999,9999,873912440
83,4,4,T1_SMS_5,32,9999,9999,9999,874412136
83,4,4,T1_SMS_5,33,9999,9999,9999,874912884
83,4,4,T1_SMS_5,34,9999,9999,9999,875412552
83,4,4,T1_SMS_5,35,9999,9999,9999,875912248
83,4,4,T1_SMS_5,36,9999,9999,9999,876412988
83,4,4,T1_SMS_5,37,9999,9999,9999,876912760
83,4,4,T1_SMS_5,38,9999,9999,9999,877412456
83,4,4,T1_SMS_5,39,9999,9999,9999,877912148
83,4,4,T1_SMS_5,40,9999,9999,9999,878412888
83,4,4,T1_SMS_5,41,9999,9999,9999,878912584
83,4,4,T1_SMS_5,42,9999,9999,9999,879412280
83,4,4,T1_SMS_5,43,9999,9999,9999,879913016
83,4,4,T1_SMS_5,44,9999,9999,9999,880412788
83,4,4,T1_SMS_5,45,9999,9999,9999,880912484
83,4,4,T1_SMS_5,46,9999,9999,9999,881412180
83,4,4,T1_SMS_5,47,9999,9999,9999,881912920
83,4,4,T1_SMS_5,48,9999,9999,9999,882412616
83,4,4,T1_SMS_5,49,9999,9999,9999,882912308
83,4,4,T1_SMS_5,50,9999,9999,9999,883413052
83,4,4,T1_SMS_5,51,9999,9999,9999,883912812
83,4,4,T1_SMS_5,52,9999,9999,9999,884412516
83,4,4,T1_SMS_5,53,9999,9999,9999,884912204
83,4,4,T1_SMS_5,54,9999,9999,9999,885412952
83,4,4,T1_SMS_5,55,9999,9999,9999,885912640
83,4,4,T1_SMS_5,56,9999,9999,9999,886412392
83,4,4,T1_SMS_5,57,9999,9999,9999,886912084
83,4,4,T1_SMS_5,58,9999,9999,9999,887412828
83,4,4,T1_SMS_5,59,9999,9999,9999,887912520
83,4,4,T1_SMS_5,60,9999,9999,9999,888412216
83,4,4,T1_SMS_5,61,9999,9999,9999,888912952
83,4,4,T1_SMS_5,62,9999,9999,9999,889412728
83,4,4,T1_SMS_5,63,9999,9999,9999,889912420
83,4,4,T1_SMS_5,64,9999,9999,9999,890412116
83,4,4,T1_SMS_5,65,9999,9999,9999,890912848
83,4,4,T1_SMS_5,66,9999,9999,9999,891412552
83,4,4,T1_SMS_5,67,9999,9999,9999,891912248
83,4,4,T1_SMS_5,68,9999,9999,9999,892412988
83,4,4,T1_SMS_5,69,9999,9999,9999,892912756
83,4,4,T1_SMS_5,70,9999,9999,9999,893412452
83,4,4,T1_SMS_5,71,9999,9999,9999,893912148
83,4,4,T1_SMS_5,72,9999,9999,9999,894412888
83,4,4,T1_SMS_5,73,9999,9999,9999,894912576
83,4,4,T1_SMS_5,74,9999,9999,9999,895412272
83,4,4,T1_SMS_5,75,9999,9999,9999,895913016
83,4,4,T1_SMS_5,76,9999,9999,9999,896412788
83,4,4,T1_SMS_5,77,9999,9999,9999,896912460
83,4,4,T1_SMS_5,78,9999,9999,9999,897412156
83,4,4,T1_SMS_5,79,9999,9999,9999,897912896
83,4,4,T1_SMS_5,80,9999,9999,9999,898412664
83,4,4,T1_SMS_5,81,9999,9999,9999,898912360
83,4,4,T1_SMS_5,82,9999,9999,9999,899413100
83,4,4,T1_SMS_5,83,9999,9999,9999,899912812
83,4,4,T1_SMS_5,84,9999,9999,9999,900412492
83,4,4,T1_SMS_5,85,9999,9999,9999,900912184
83,4,4,T1_SMS_5,86,9999,9999,9999,901412920
83,4,4,T1_SMS_5,87,9999,9999,9999,901912696
83,4,4,T1_SMS_5,88,9999,9999,9999,902412392
83,4,4,T1_SMS_5,89,9999,9999,9999,902912084
83,4,4,T1_SMS_5,90,9999,9999,9999,903412828
83,4,4,T1_SMS_5,91,9999,9999,9999,903912524
83,4,4,T1_SMS_5,92,9999,9999,9999,904412216
83,4,4,T1_SMS_5,93,9999,9999,9999,904912960
83,4,4,T1_SMS_5,94,9999,9999,9999,905412656
83,4,4,T1_SMS_5,95,9999,9999,9999,905912424
83,4,4,T1_SMS_5,96,9999,9999,9999,906412120
83,4,4,T1_SMS_5,97,9999,9999,9999,906912860
83,4,4,T1_SMS_5,98,9999,9999,9999,907412556
83,4,4,T1_SMS_5,99,9999,9999,9999,907912264
83,4,4,T1_SMS_5,100,9999,9999,9999,908413040
83,4,4,T1_SMS_5,101,9999,9999,9999,908912736
83,4,4,T1_SMS_5,102,9999,9999,9999,909412424
83,4,4,T1_SMS_5,103,9999,9999,9999,909912128
83,4,4,T1_SMS_5,104,9999,9999,9999,910412864
83,4,4,T1_SMS_5,105,9999,9999,9999,910912632
83,4,4,T1_SMS_5,106,9999,9999,9999,911412328
83,4,4,T1_SMS_5,107,9999,9999,9999,911913068
83,4,4,T1_SMS_5,108,9999,9999,9999,912412764
83,4,4,T1_SMS_5,109,9999,9999,9999,912912460
83,4,4,T1_SMS_5,110,9999,9999,9999,913412160
83,4,4,T1_SMS_5,111,9999,9999,9999,913912900
83,4,4,T1_SMS_5,112,9999,9999,9999,914412664
83,4,4,T1_SMS_5,113,9999,9999,9999,914912360
83,4,4,T1_SMS_5,114,9999,9999,9999,915413108
83,4,4,T1_SMS_5,115,9999,9999,9999,915912804
83,4,4,T1_SMS_5,116,9999,9999,9999,916412492
83,4,4,T1_SMS_5,117,9999,9999,9999,916912192
83,4,4,T1_SMS_5,118,9999,9999,9999,917412928
83,4,4,T1_SMS_5,119,9999,9999,9999,917912624
83,4,4,T1_SMS_5,120,9999,9999,9999,918412376
83,4,4,T1_SMS_5,121,9999,9999,9999,918912064
83,4,4,T1_SMS_5,122,9999,9999,9999,919412804
83,4,4,T1_SMS_5,123,9999,9999,9999,919912500
83,4,4,T1_SMS_5,124,9999,9999,9999,920412276
83,4,4,T1_SMS_5,125,9999,9999,9999,920913012
83,4,4,T1_SMS_5,126,9999,9999,9999,921412708
83,4,4,T1_SMS_5,127,9999,9999,9999,921912408
83,4,4,T1_SMS_5,128,9999,9999,9999,922412104
83,4,4,T1_SMS_5,129,9999,9999,9999,922912840
83,5,22,Ticks_Phase_8,0,5,42,127,934688164
83,5,22,Ticks_Phase_8,1,1,48,21,935165440
83,5,22,Ticks_Phase_8,2,5,42,127,935487804
83,5,22,Ticks_Phase_8,3,5,42,127,936287612
83,5,22,Ticks_Phase_8,4,1,48,34,936396876
83,5,22,Ticks_Phase_8,5,1,48,35,937063468
83,5,22,Ticks_Phase_8,6,5,42,127,937088364
83,5,22,Ticks_Phase_8,7,5,42,127,937888180
83,5,22,Ticks_Phase_8,8,1,48,32,937899244
83,5,22,Ticks_Phase_8,9,5,42,127,938687820
83,5,22,Ticks_Phase_8,10,1,48,28,938708836
83,5,22,Ticks_Phase_8,11,5,42,127,939487680
83,5,22,Ticks_Phase_8,12,1,48,30,939493788
83,5,22,Ticks_Phase_8,13,5,42,127,940288584
83,5,22,Ticks_Phase_8,14,1,48,32,940318220
83,5,22,Ticks_Phase_8,15,5,42,127,941088148
83,5,22,Ticks_Phase_8,16,1,48,29,941133200
83,5,22,Ticks_Phase_8,17,5,42,127,941887788
83,5,22,Ticks_Phase_8,18,1,48,27,941911572
83,5,22,Ticks_Phase_8,19,5,42,127,942687720
83,5,22,Ticks_Phase_8,20,1,48,27,942720348
83,5,22,Ticks_Phase_8,21,5,42,127,943488480
83,5,22,Ticks_Phase_8,22,1,48,33,943494440
83,5,22,Ticks_Phase_8,23,5,42,127,944288140
83,5,22,Ticks_Phase_8,24,1,48,42,944294472
83,5,22,Ticks_Phase_8,25,1,48,45,945083916
83,5,22,Ticks_Phase_8,26,5,42,127,945087848
83,5,22,Ticks_Phase_8,27,5,42,127,945887712
83,5,22,Ticks_Phase_8,28,1,48,41,945910376
83,5,22,Ticks_Phase_8,29,5,42,127,946688472
83,5,22,Ticks_Phase_8,30,1,48,39,946690484
83,5,22,Ticks_Phase_8,31,1,48,44,947472868
83,5,22,Ticks_Phase_8,32,5,42,127,947488028
83,5,22,Ticks_Phase_8,33,5,42,127,948287896
83,5,22,Ticks_Phase_8,34,1,48,34,948297840
83,5,22,Ticks_Phase_8,35,5,42,127,949087612
83,5,22,Ticks_Phase_8,36,1,48,45,949122924
83,5,22,Ticks_Phase_8,37,5,42,127,949888440
83,5,22,Ticks_Phase_8,38,1,48,43,949952316
83,5,22,Ticks_Phase_8,39,5,42,127,950688180
83,5,22,Ticks_Phase_8,40,1,48,38,950725440
83,5,22,Ticks_Phase_8,41,1,48,37,951484032
83,5,22,Ticks_Phase_8,42,5,42,127,951487812
83,5,22,Ticks_Phase_8,43,5,42,127,952287756
83,5,22,Ticks_Phase_8,44,1,48,43,952331760
83,5,22,Ticks_Phase_8,45,1,48,46,953083528
83,5,22,Ticks_Phase_8,46,5,42,127,953088432
83,5,22,Ticks_Phase_8,47,5,42,127,953888224
83,5,22,Ticks_Phase_8,48,1,48,45,953912388
83,5,22,Ticks_Phase_8,49,5,42,127,954687788
83,5,22,Ticks_Phase_8,50,1,48,33,954750812
83,5,22,Ticks_Phase_8,51,5,42,127,955487576
83,5,22,Ticks_Phase_8,52,1,48,36,955543356
83,5,22,Ticks_Phase_8,53,5,42,127,956288480
83,5,22,Ticks_Phase_8,54,1,48,26,956342920
83,5,22,Ticks_Phase_8,55,5,42,127,957088292
83,5,22,Ticks_Phase_8,56,1,48,37,957113576
83,5,22,Ticks_Phase_8,57,5,42,127,957888004
83,5,22,Ticks_Phase_8,58,1,48,40,957913812
83,5,22,Ticks_Phase_8,59,5,42,127,958668248
83,5,22,Ticks_Phase_8,60,1,48,38,958728060
83,5,22,Ticks_Phase_8,61,5,42,127,959467812
83,5,22,Ticks_Phase_8,62,1,48,37,959480892
83,5,22,Ticks_Phase_8,63,1,48,40,960245384
83,5,22,Ticks_Phase_8,64,5,42,127,960267516
83,5,22,Ticks_Phase_8,65,5,42,127,961068356
83,5,22,Ticks_Phase_8,66,1,48,45,961076572
83,5,22,Ticks_Phase_8,67,1,48,47,961832824
83,5,22,Ticks_Phase_8,68,5,42,127,961868356
83,5,22,Ticks_Phase_8,69,1,48,46,962648044
83,5,22,Ticks_Phase_8,70,5,42,127,962667772
83,5,22,Ticks_Phase_8,71,5,42,127,963467564
83,5,22,Ticks_Phase_8,72,1,48,39,963488984
83,5,22,Ticks_Phase_8,73,5,42,127,964268348
83,5,22,Ticks_Phase_8,74,1,48,46,964284792
83,5,22,Ticks_Phase_8,75,1,48,46,965054384
83,5,22,Ticks_Phase_8,76,5,42,127,965068424
83,5,22,Ticks_Phase_8,77,5,42,127,965867996
83,5,22,Ticks_Phase_8,78,1,48,47,965894176
83,5,22,Ticks_Phase_8,79,5,42,127,966667632
83,5,22,Ticks_Phase_8,80,1,48,46,966674568
83,5,22,Ticks_Phase_8,81,5,42,127,967468320
83,5,22,Ticks_Phase_8,82,1,48,41,967469732
83,5,22,Ticks_Phase_8,83,5,42,127,968268328
83,5,22,Ticks_Phase_8,84,1,48,50,968274884
83,5,22,Ticks_Phase_8,85,5,42,127,969068116
83,5,22,Ticks_Phase_8,86,1,48,46,969105640
83,5,22,Ticks_Phase_8,87,5,42,127,969867676
83,5,22,Ticks_Phase_8,88,1,48,43,969894108
83,5,22,Ticks_Phase_8,89,5,42,127,970668388
83,5,22,Ticks_Phase_8,90,1,48,38,970707900
83,5,22,Ticks_Phase_8,91,1,48,38,971386188
83,5,22,Ticks_Phase_8,92,5,42,127,971468168
83,5,22,Ticks_Phase_8,93,1,48,37,972211080
83,5,22,Ticks_Phase_8,94,5,42,127,972268100
83,5,22,Ticks_Phase_8,95,1,48,38,973085152
83,5,22,Ticks_Phase_8,96,5,42,127,973088332
83,5,22,Ticks_Phase_8,97,5,42,127,973888048
83,5,22,Ticks_Phase_8,98,1,48,38,973914380
83,5,22,Ticks_Phase_8,99,5,42,127,974687612
83,5,22,Ticks_Phase_8,100,1,48,36,974695068
83,5,22,Ticks_Phase_8,101,5,42,127,975488444
83,5,22,Ticks_Phase_8,102,1,48,36,975509040
83,5,22,Ticks_Phase_8,103,1,48,44,976282676
83,5,22,Ticks_Phase_8,104,5,42,127,976288024
83,5,22,Ticks_Phase_8,105,5,42,127,977088116
83,5,22,Ticks_Phase_8,106,1,48,43,977096556
83,5,22,Ticks_Phase_8,107,1,48,33,977882844
83,5,22,Ticks_Phase_8,108,5,42,127,977887600
83,5,22,Ticks_Phase_8,109,1,48,40,978678824
83,5,22,Ticks_Phase_8,110,5,42,127,978688356
83,5,22,Ticks_Phase_8,111,5,42,127,979488076
83,5,22,Ticks_Phase_8,112,1,48,37,979496516
83,5,22,Ticks_Phase_8,113,1,48,34,980275548
83,5,22,Ticks_Phase_8,114,5,42,127,980288152
83,5,22,Ticks_Phase_8,115,5,42,127,981087576
83,5,22,Ticks_Phase_8,116,1,48,30,981095480
83,5,22,Ticks_Phase_8,117,1,48,38,981867032
83,5,22,Ticks_Phase_8,118,5,42,127,981888400
83,5,22,Ticks_Phase_8,119,1,48,36,982685552
83,5,22,Ticks_Phase_8,120,5,42,127,982688136
83,5,22,Ticks_Phase_8,121,1,48,32,983486652
83,5,22,Ticks_Phase_8,122,5,42,127,983488072
83,5,22,Ticks_Phase_8,123,5,42,127,984287568
83,5,22,Ticks_Phase_8,124,1,48,38,984349620
83,5,22,Ticks_Phase_8,125,5,42,127,985088328
83,5,22,Ticks_Phase_8,126,1,48,28,985153604
83,5,22,Ticks_Phase_8,127,1,48,32,985892268
83,5,22,Ticks_Phase_8,128,5,42,127,985927952
83,5,22,Ticks_Phase_8,129,5,42,127,986727964
83,5,22,Ticks_Phase_8,130,1,48,19,986826372
83,5,22,Ticks_Phase_8,131,5,42,127,987527828
83,5,22,Ticks_Phase_8,132,1,48,20,987576736
83,5,22,Ticks_Phase_8,133,1,48,24,988312848
83,5,22,Ticks_Phase_8,134,5,42,127,988328160
83,5,22,Ticks_Phase_8,135,1,48,33,989062512
83,5,22,Ticks_Phase_8,136,5,42,127,989127944
83,5,22,Ticks_Phase_8,137,1,48,39,989844944
83,5,22,Ticks_Phase_8,138,5,42,127,989927880
83,5,22,Ticks_Phase_8,139,1,48,38,990674984
83,5,22,Ticks_Phase_8,140,5,42,127,990727816
83,5,22,Ticks_Phase_8,141,5,42,127,991528208
83,5,22,Ticks_Phase_8,142,1,48,40,991549228
83,5,22,Ticks_Phase_8,143,1,48,41,992301892
83,5,22,Ticks_Phase_8,144,5,42,127,992327988
83,5,22,Ticks_Phase_8,145,1,48,44,993113956
83,5,22,Ticks_Phase_8,146,5,42,127,993127848
83,5,22,Ticks_Phase_8,147,5,42,127,993927792
83,5,22,Ticks_Phase_8,148,1,48,42,993951524
83,5,22,Ticks_Phase_8,149,5,42,127,994728200
83,5,22,Ticks_Phase_8,150,1,48,36,994732884
83,5,22,Ticks_Phase_8,151,1,48,37,995505180
83,5,22,Ticks_Phase_8,152,5,42,127,995527908
83,5,22,Ticks_Phase_8,153,1,48,41,996266928
83,5,22,Ticks_Phase_8,154,5,42,127,996327764
83,5,22,Ticks_Phase_8,155,1,48,37,997076896
83,5,22,Ticks_Phase_8,156,5,42,127,997127700
83,5,22,Ticks_Phase_8,157,1,48,44,997883344
83,5,22,Ticks_Phase_8,158,5,42,127,997928384
83,5,22,Ticks_Phase_8,159,5,42,127,998727956
83,5,22,Ticks_Phase_8,160,1,48,39,998751668
83,5,22,Ticks_Phase_8,161,5,42,127,999487904
83,5,22,Ticks_Phase_8,162,1,48,40,999494236
83,5,22,Ticks_Phase_8,163,5,42,127,1000287616
83,5,22,Ticks_Phase_8,164,1,48,38,1000323456
83,5,22,Ticks_Phase_8,165,1,48,41,1001066924
83,5,22,Ticks_Phase_8,166,5,42,127,1001088740
83,5,22,Ticks_Phase_8,167,1,48,45,1001881780
83,5,22,Ticks_Phase_8,168,5,42,127,1001888100
83,5,22,Ticks_Phase_8,169,1,48,44,1002660076
83,5,22,Ticks_Phase_8,170,5,42,127,1002687740
83,5,22,Ticks_Phase_8,171,1,48,44,1003457768
83,5,22,Ticks_Phase_8,172,5,42,127,1003487600
83,5,22,Ticks_Phase_8,173,1,48,48,1004288736
83,5,22,Ticks_Phase_8,174,5,42,127,1004290000
83,5,22,Ticks_Phase_8,175,5,42,127,1005088076
83,5,22,Ticks_Phase_8,176,1,48,31,1005209844
83,5,22,Ticks_Phase_8,177,1,48,42,1005866188
83,5,22,Ticks_Phase_8,178,5,42,127,1005888004
83,5,22,Ticks_Phase_8,179,1,48,48,1006640136
83,5,22,Ticks_Phase_8,180,5,42,127,1006687568
83,5,22,Ticks_Phase_8,181,1,48,37,1007477512
83,5,22,Ticks_Phase_8,182,5,42,127,1007488400
83,5,22,Ticks_Phase_8,183,1,48,35,1008258428
83,5,22,Ticks_Phase_8,184,5,42,127,1008288060
83,5,22,Ticks_Phase_8,185,1,48,46,1009035900
83,5,22,Ticks_Phase_8,186,5,42,127,1009087772
83,5,22,Ticks_Phase_8,187,1,48,40,1009802052
83,5,22,Ticks_Phase_8,188,5,42,127,1009887556
83,5,22,Ticks_Phase_8,189,5,42,127,1010688324
83,5,22,Ticks_Phase_8,190,1,48,46,1010694580
83,5,22,Ticks_Phase_8,191,5,42,127,1011488408
83,5,22,Ticks_Phase_8,192,1,48,50,1011522376
83,5,22,Ticks_Phase_8,193,5,42,127,1012208140
83,5,22,Ticks_Phase_8,194,1,48,41,1012269080
83,5,22,Ticks_Phase_8,195,5,42,127,1013007704
83,5,22,Ticks_Phase_8,196,1,48,45,1013018016
83,5,22,Ticks_Phase_8,197,1,48,36,1013783480
83,5,22,Ticks_Phase_8,198,5,42,127,1013807484
83,5,22,Ticks_Phase_8,199,1,48,46,1014574056
83,5,22,Ticks_Phase_8,200,5,42,127,1014608540
83,5,22,Ticks_Phase_8,201,1,48,41,1015393688
83,5,22,Ticks_Phase_8,202,5,42,127,1015408252
83,5,22,Ticks_Phase_8,203,5,42,127,1016207844
83,5,22,Ticks_Phase_8,204,1,48,39,1016210364
83,5,22,Ticks_Phase_8,205,5,42,127,1017007412
83,5,22,Ticks_Phase_8,206,1,48,40,1017025664
83,5,22,Ticks_Phase_8,207,1,48,41,1017781844
83,5,22,Ticks_Phase_8,208,5,42,127,1017808460
83,5,22,Ticks_Phase_8,209,1,48,47,1018589796
83,5,22,Ticks_Phase_8,210,5,42,127,1018607948
83,5,22,Ticks_Phase_8,211,5,42,127,1019407812
83,5,22,Ticks_Phase_8,212,1,48,35,1019462376
83,5,22,Ticks_Phase_8,213,1,48,45,1020183368
83,5,22,Ticks_Phase_8,214,5,42,127,1020207444
83,5,22,Ticks_Phase_8,215,1,48,42,1020953348
83,5,22,Ticks_Phase_8,216,5,42,127,1021008204
83,5,22,Ticks_Phase_8,217,1,48,45,1021749400
83,5,22,Ticks_Phase_8,218,5,42,127,1021808284
83,5,22,Ticks_Phase_8,219,1,48,43,1022607436
83,5,22,Ticks_Phase_8,220,5,42,127,1022608996
83,5,22,Ticks_Phase_8,221,5,42,127,1023407444
83,5,22,Ticks_Phase_8,222,1,48,45,1023420072
83,5,22,Ticks_Phase_8,223,5,42,127,1024208200
83,5,22,Ticks_Phase_8,224,1,48,55,1024242024
83,5,22,Ticks_Phase_8,225,1,48,48,1024962268
83,5,22,Ticks_Phase_8,226,5,42,127,1025007984
83,5,22,Ticks_Phase_8,227,1,48,44,1025803840
83,5,22,Ticks_Phase_8,228,5,42,127,1025887676
83,5,22,Ticks_Phase_8,229,5,42,127,1026688292
83,5,22,Ticks_Phase_8,230,1,48,49,1026691264
83,5,22,Ticks_Phase_8,231,5,42,127,1027488104
83,5,22,Ticks_Phase_8,232,1,48,46,1027490696
83,5,22,Ticks_Phase_8,233,5,42,127,1028287888
83,5,22,Ticks_Phase_8,234,1,48,51,1028295044
83,5,22,Ticks_Phase_8,235,1,48,42,1029077460
83,5,22,Ticks_Phase_8,236,5,42,127,1029087520
83,5,22,Ticks_Phase_8,237,1,48,43,1029872368
83,5,22,Ticks_Phase_8,238,5,42,127,1029888352
83,5,22,Ticks_Phase_8,239,1,48,48,1030685256
83,5,22,Ticks_Phase_8,240,5,42,127,1030688136
83,5,22,Ticks_Phase_8,241,1,48,46,1031464372
83,5,22,Ticks_Phase_8,242,5,42,127,1031487924
83,5,22,Ticks_Phase_8,243,5,42,127,1032287568
83,5,22,Ticks_Phase_8,244,1,48,41,1032302888
83,5,22,Ticks_Phase_8,245,1,48,46,1033072860
83,5,22,Ticks_Phase_8,246,5,42,127,1033088320
83,5,22,Ticks_Phase_8,247,5,42,127,1033888284
83,5,22,Ticks_Phase_8,248,1,48,36,1033979324
83,5,22,Ticks_Phase_8,249,5,42,127,1034688072
83,5,22,Ticks_Phase_8,250,1,48,30,1034704808
83,5,22,Ticks_Phase_8,251,1,48,44,1035478536
83,5,22,Ticks_Phase_8,252,5,42,127,1035487552
83,5,22,Ticks_Phase_8,253,5,42,127,1036288316
83,5,22,Ticks_Phase_8,254,1,48,41,1036301396
83,5,22,Ticks_Phase_8,255,5,42,127,1037088176
83,5,22,Ticks_Phase_8,256,1,48,53,1037097072
83,5,22,Ticks_Phase_8,257,1,48,42,1037824044
83,5,22,Ticks_Phase_8,258,5,42,127,1037888032
83,5,22,Ticks_Phase_8,259,5,42,127,1038687528
83,5,22,Ticks_Phase_8,260,1,48,39,1038731980
83,5,22,Ticks_Phase_8,261,1,48,43,1039491144
83,5,22,Ticks_Phase_8,262,5,42,127,1039648148
83,5,22,Ticks_Phase_8,263,5,42,127,1040448032
83,5,22,Ticks_Phase_8,264,1,48,38,1040524232
83,5,22,Ticks_Phase_8,265,5,42,127,1041247568
83,5,22,Ticks_Phase_8,266,1,48,43,1041252108
83,5,22,Ticks_Phase_8,267,1,48,21,1041338468
83,5,22,Ticks_Phase_8,268,5,42,127,1042048308
83,5,22,Ticks_Phase_8,269,1,48,29,1042120424
83,5,22,Ticks_Phase_8,270,1,48,35,1042845080
83,5,22,Ticks_Phase_8,271,5,42,127,1042848040
83,5,22,Ticks_Phase_8,272,5,42,127,1043647832
83,5,22,Ticks_Phase_8,273,1,48,40,1043684792
83,5,22,Ticks_Phase_8,274,1,48,38,1044444876
83,5,22,Ticks_Phase_8,275,5,42,127,1044447540
83,5,22,Ticks_Phase_8,276,5,42,127,1045248228
83,5,22,Ticks_Phase_8,277,1,48,35,1045256520
83,5,22,Ticks_Phase_8,278,5,42,127,1046048164
83,5,22,Ticks_Phase_8,279,1,48,33,1046074340
83,5,22,Ticks_Phase_8,280,5,42,127,1046847948
83,5,22,Ticks_Phase_8,281,1,48,33,1046860204
83,5,22,Ticks_Phase_8,282,1,48,27,1047620668
83,5,22,Ticks_Phase_8,283,5,42,127,1047647876
83,5,22,Ticks_Phase_8,284,1,48,36,1048397016
83,5,22,Ticks_Phase_8,285,5,42,127,1048448264
83,5,22,Ticks_Phase_8,286,1,48,33,1049205776
83,5,22,Ticks_Phase_8,287,5,42,127,1049248000
83,5,22,Ticks_Phase_8,288,5,42,127,1050047720
83,5,22,Ticks_Phase_8,289,1,48,31,1050049656
83,5,22,Ticks_Phase_8,290,5,42,127,1050847728
83,5,22,Ticks_Phase_8,291,1,48,30,1050854584
83,5,22,Ticks_Phase_8,292,5,42,127,1051648336
83,5,22,Ticks_Phase_8,293,1,48,37,1051655432
83,5,22,Ticks_Phase_8,294,1,48,42,1052433704
83,5,22,Ticks_Phase_8,295,5,42,127,1052448120
83,5,22,Ticks_Phase_8,296,1,48,36,1053223456
83,5,22,Ticks_Phase_8,297,5,42,127,1053247756
83,5,22,Ticks_Phase_8,298,1,48,34,1054043464
83,5,22,Ticks_Phase_8,299,5,42,127,1054047768
83,5,22,Ticks_Phase_8,300,5,42,127,1054687452
83,5,22,Ticks_Phase_8,301,1,48,48,1054812632
83,5,22,Ticks_Phase_8,302,1,48,41,1055388732
83,5,22,Ticks_Phase_8,303,5,42,127,1055488488
83,5,22,Ticks_Phase_8,304,1,48,38,1056246400
83,5,22,Ticks_Phase_8,305,5,42,127,1056288068
83,5,22,Ticks_Phase_8,306,1,48,37,1057049932
83,5,22,Ticks_Phase_8,307,5,42,127,1057088004
83,5,22,Ticks_Phase_8,308,1,48,29,1057844248
83,5,22,Ticks_Phase_8,309,5,42,127,1057887640
83,5,22,Ticks_Phase_8,310,1,48,38,1058658940
83,5,22,Ticks_Phase_8,311,5,42,127,1058688548
83,5,22,Ticks_Phase_8,312,1,48,32,1059455348
83,5,22,Ticks_Phase_8,313,5,42,127,1059488284
83,5,22,Ticks_Phase_8,314,1,48,37,1060234764
83,5,22,Ticks_Phase_8,315,5,42,127,1060287824
83,5,22,Ticks_Phase_8,316,1,48,41,1061065624
83,5,22,Ticks_Phase_8,317,5,42,127,1061087608
83,5,22,Ticks_Phase_8,318,1,48,53,1061825348
83,5,22,Ticks_Phase_8,319,5,42,127,1061888588
83,5,22,Ticks_Phase_8,320,5,42,127,1062688088
83,5,22,Ticks_Phase_8,321,1,48,35,1062717120
83,5,22,Ticks_Phase_8,322,5,42,127,1063487876
83,5,22,Ticks_Phase_8,323,1,48,29,1063534344
83,5,22,Ticks_Phase_8,324,1,48,38,1064231232
83,5,22,Ticks_Phase_8,325,5,42,127,1064287576
83,5,22,Ticks_Phase_8,326,1,48,39,1065073996
83,5,22,Ticks_Phase_8,327,5,42,127,1065088484
83,5,22,Ticks_Phase_8,328,1,48,43,1065862028
83,5,22,Ticks_Phase_8,329,5,42,127,1065888296
83,5,22,Ticks_Phase_8,330,1,48,39,1066673668
83,5,22,Ticks_Phase_8,331,5,42,127,1066687708
83,5,22,Ticks_Phase_8,332,1,48,49,1067480796
83,5,22,Ticks_Phase_8,333,5,42,127,1067487496
83,5,22,Ticks_Phase_8,334,5,42,127,1068288332
83,5,22,Ticks_Phase_8,335,1,48,39,1068316468
83,5,22,Ticks_Phase_8,336,1,48,44,1069069516
83,5,22,Ticks_Phase_8,337,5,42,127,1069088336
83,5,22,Ticks_Phase_8,338,1,48,29,1069859636
83,5,22,Ticks_Phase_8,339,5,42,127,1069887824
83,5,22,Ticks_Phase_8,0,9999,9999,9999,934685800
83,5,22,Ticks_Phase_8,1,9999,9999,9999,935485516
83,5,22,Ticks_Phase_8,2,9999,9999,9999,936285248
83,5,22,Ticks_Phase_8,3,9999,9999,9999,937086076
83,5,22,Ticks_Phase_8,4,9999,9999,9999,937885816
83,5,22,Ticks_Phase_8,5,9999,9999,9999,938685528
83,5,22,Ticks_Phase_8,6,9999,9999,9999,939485240
83,5,22,Ticks_Phase_8,7,9999,9999,9999,940286072
83,5,22,Ticks_Phase_8,8,9999,9999,9999,941085784
83,5,22,Ticks_Phase_8,9,9999,9999,9999,941885496
83,5,22,Ticks_Phase_8,10,9999,9999,9999,942685284
83,5,22,Ticks_Phase_8,11,9999,9999,9999,943486044
83,5,22,Ticks_Phase_8,12,9999,9999,9999,944285776
83,5,22,Ticks_Phase_8,13,9999,9999,9999,945085560
83,5,22,Ticks_Phase_8,14,9999,9999,9999,945885276
83,5,22,Ticks_Phase_8,15,9999,9999,9999,946686036
83,5,22,Ticks_Phase_8,16,9999,9999,9999,947485816
83,5,22,Ticks_Phase_8,17,9999,9999,9999,948285532
83,5,22,Ticks_Phase_8,18,9999,9999,9999,949085248
83,5,22,Ticks_Phase_8,19,9999,9999,9999,949886080
83,5,22,Ticks_Phase_8,20,9999,9999,9999,950685816
83,5,22,Ticks_Phase_8,21,9999,9999,9999,951485524
83,5,22,Ticks_Phase_8,22,9999,9999,9999,952285240
83,5,22,Ticks_Phase_8,23,9999,9999,9999,953086068
83,5,22,Ticks_Phase_8,24,9999,9999,9999,953885784
83,5,22,Ticks_Phase_8,25,9999,9999,9999,954685500
83,5,22,Ticks_Phase_8,26,9999,9999,9999,955485284
83,5,22,Ticks_Phase_8,27,9999,9999,9999,956286044
83,5,22,Ticks_Phase_8,28,9999,9999,9999,957085780
83,5,22,Ticks_Phase_8,29,9999,9999,9999,957885568
83,5,22,Ticks_Phase_8,30,9999,9999,9999,958665808
83,5,22,Ticks_Phase_8,31,9999,9999,9999,959465596
83,5,22,Ticks_Phase_8,32,9999,9999,9999,960265300
83,5,22,Ticks_Phase_8,33,9999,9999,9999,961066064
83,5,22,Ticks_Phase_8,34,9999,9999,9999,961865844
83,5,22,Ticks_Phase_8,35,9999,9999,9999,962665556
83,5,22,Ticks_Phase_8,36,9999,9999,9999,963465276
83,5,22,Ticks_Phase_8,37,9999,9999,9999,964266060
83,5,22,Ticks_Phase_8,38,9999,9999,9999,965065840
83,5,22,Ticks_Phase_8,39,9999,9999,9999,965865556
83,5,22,Ticks_Phase_8,40,9999,9999,9999,966665268
83,5,22,Ticks_Phase_8,41,9999,9999,9999,967466104
83,5,22,Ticks_Phase_8,42,9999,9999,9999,968265816
83,5,22,Ticks_Phase_8,43,9999,9999,9999,969065528
83,5,22,Ticks_Phase_8,44,9999,9999,9999,969865312
83,5,22,Ticks_Phase_8,45,9999,9999,9999,970666096
83,5,22,Ticks_Phase_8,46,9999,9999,9999,971465804
83,5,22,Ticks_Phase_8,47,9999,9999,9999,972265588
83,5,22,Ticks_Phase_8,48,9999,9999,9999,973085820
83,5,22,Ticks_Phase_8,49,9999,9999,9999,973885536
83,5,22,Ticks_Phase_8,50,9999,9999,9999,974685248
83,5,22,Ticks_Phase_8,51,9999,9999,9999,975486008
83,5,22,Ticks_Phase_8,52,9999,9999,9999,976285812
83,5,22,Ticks_Phase_8,53,9999,9999,9999,977085532
83,5,22,Ticks_Phase_8,54,9999,9999,9999,977885312
83,5,22,Ticks_Phase_8,55,9999,9999,9999,978686068
83,5,22,Ticks_Phase_8,56,9999,9999,9999,979485788
83,5,22,Ticks_Phase_8,57,9999,9999,9999,980285568
83,5,22,Ticks_Phase_8,58,9999,9999,9999,981085284
83,5,22,Ticks_Phase_8,59,9999,9999,9999,981886036
83,5,22,Ticks_Phase_8,60,9999,9999,9999,982685776
83,5,22,Ticks_Phase_8,61,9999,9999,9999,983485496
83,5,22,Ticks_Phase_8,62,9999,9999,9999,984285280
83,5,22,Ticks_Phase_8,63,9999,9999,9999,985086036
83,5,22,Ticks_Phase_8,64,9999,9999,9999,985925736
83,5,22,Ticks_Phase_8,65,9999,9999,9999,986725452
83,5,22,Ticks_Phase_8,66,9999,9999,9999,987525240
83,5,22,Ticks_Phase_8,67,9999,9999,9999,988325944
83,5,22,Ticks_Phase_8,68,9999,9999,9999,989125732
83,5,22,Ticks_Phase_8,69,9999,9999,9999,989925444
83,5,22,Ticks_Phase_8,70,9999,9999,9999,990725228
83,5,22,Ticks_Phase_8,71,9999,9999,9999,991525996
83,5,22,Ticks_Phase_8,72,9999,9999,9999,992325700
83,5,22,Ticks_Phase_8,73,9999,9999,9999,993125484
83,5,22,Ticks_Phase_8,74,9999,9999,9999,993925204
83,5,22,Ticks_Phase_8,75,9999,9999,9999,994725984
83,5,22,Ticks_Phase_8,76,9999,9999,9999,995525692
83,5,22,Ticks_Phase_8,77,9999,9999,9999,996325476
83,5,22,Ticks_Phase_8,78,9999,9999,9999,997125188
83,5,22,Ticks_Phase_8,79,9999,9999,9999,997925948
83,5,22,Ticks_Phase_8,80,9999,9999,9999,998725740
83,5,22,Ticks_Phase_8,81,9999,9999,9999,999485540
83,5,22,Ticks_Phase_8,82,9999,9999,9999,1000285248
83,5,22,Ticks_Phase_8,83,9999,9999,9999,1001086076
83,5,22,Ticks_Phase_8,84,9999,9999,9999,1001885812
83,5,22,Ticks_Phase_8,85,9999,9999,9999,1002685524
83,5,22,Ticks_Phase_8,86,9999,9999,9999,1003485312
83,5,22,Ticks_Phase_8,87,9999,9999,9999,1004286076
83,5,22,Ticks_Phase_8,88,9999,9999,9999,1005085788
83,5,22,Ticks_Phase_8,89,9999,9999,9999,1005885564
83,5,22,Ticks_Phase_8,90,9999,9999,9999,1006685276
83,5,22,Ticks_Phase_8,91,9999,9999,9999,1007486036
83,5,22,Ticks_Phase_8,92,9999,9999,9999,1008285772
83,5,22,Ticks_Phase_8,93,9999,9999,9999,1009085556
83,5,22,Ticks_Phase_8,94,9999,9999,9999,1009885268
83,5,22,Ticks_Phase_8,95,9999,9999,9999,1010686032
83,5,22,Ticks_Phase_8,96,9999,9999,9999,1011485820
83,5,22,Ticks_Phase_8,97,9999,9999,9999,1012205628
83,5,22,Ticks_Phase_8,98,9999,9999,9999,1013005416
83,5,22,Ticks_Phase_8,99,9999,9999,9999,1013805120
83,5,22,Ticks_Phase_8,100,9999,9999,9999,1014605880
83,5,22,Ticks_Phase_8,101,9999,9999,9999,1015405664
83,5,22,Ticks_Phase_8,102,9999,9999,9999,1016205408
83,5,22,Ticks_Phase_8,103,9999,9999,9999,1017005120
83,5,22,Ticks_Phase_8,104,9999,9999,9999,1017805948
83,5,22,Ticks_Phase_8,105,9999,9999,9999,1018605660
83,5,22,Ticks_Phase_8,106,9999,9999,9999,1019405376
83,5,22,Ticks_Phase_8,107,9999,9999,9999,1020205156
83,5,22,Ticks_Phase_8,108,9999,9999,9999,1021005916
83,5,22,Ticks_Phase_8,109,9999,9999,9999,1021805624
83,5,22,Ticks_Phase_8,110,9999,9999,9999,1022605368
83,5,22,Ticks_Phase_8,111,9999,9999,9999,1023405152
83,5,22,Ticks_Phase_8,112,9999,9999,9999,1024205912
83,5,22,Ticks_Phase_8,113,9999,9999,9999,1025005696
83,5,22,Ticks_Phase_8,114,9999,9999,9999,1025885312
83,5,22,Ticks_Phase_8,115,9999,9999,9999,1026686076
83,5,22,Ticks_Phase_8,116,9999,9999,9999,1027485816
83,5,22,Ticks_Phase_8,117,9999,9999,9999,1028285524
83,5,22,Ticks_Phase_8,118,9999,9999,9999,1029085304
83,5,22,Ticks_Phase_8,119,9999,9999,9999,1029886064
83,5,22,Ticks_Phase_8,120,9999,9999,9999,1030685776
83,5,22,Ticks_Phase_8,121,9999,9999,9999,1031485560
83,5,22,Ticks_Phase_8,122,9999,9999,9999,1032285280
83,5,22,Ticks_Phase_8,123,9999,9999,9999,1033086028
83,5,22,Ticks_Phase_8,124,9999,9999,9999,1033885772
83,5,22,Ticks_Phase_8,125,9999,9999,9999,1034685560
83,5,22,Ticks_Phase_8,126,9999,9999,9999,1035485264
83,5,22,Ticks_Phase_8,127,9999,9999,9999,1036286028
83,5,22,Ticks_Phase_8,128,9999,9999,9999,1037085816
83,5,22,Ticks_Phase_8,129,9999,9999,9999,1037885520
83,5,22,Ticks_Phase_8,130,9999,9999,9999,1038685236
83,5,22,Ticks_Phase_8,131,9999,9999,9999,1039645784
83,5,22,Ticks_Phase_8,132,9999,9999,9999,1040445520
83,5,22,Ticks_Phase_8,133,9999,9999,9999,1041245280
83,5,22,Ticks_Phase_8,134,9999,9999,9999,1042046020
83,5,22,Ticks_Phase_8,135,9999,9999,9999,1042845748
83,5,22,Ticks_Phase_8,136,9999,9999,9999,1043645544
83,5,22,Ticks_Phase_8,137,9999,9999,9999,1044445248
83,5,22,Ticks_Phase_8,138,9999,9999,9999,1045246012
83,5,22,Ticks_Phase_8,139,9999,9999,9999,1046045800
83,5,22,Ticks_Phase_8,140,9999,9999,9999,1046845512
83,5,22,Ticks_Phase_8,141,9999,9999,9999,1047645292
83,5,22,Ticks_Phase_8,142,9999,9999,9999,1048446048
83,5,22,Ticks_Phase_8,143,9999,9999,9999,1049245784
83,5,22,Ticks_Phase_8,144,9999,9999,9999,1050045504
83,5,22,Ticks_Phase_8,145,9999,9999,9999,1050845288
83,5,22,Ticks_Phase_8,146,9999,9999,9999,1051646048
83,5,22,Ticks_Phase_8,147,9999,9999,9999,1052445756
83,5,22,Ticks_Phase_8,148,9999,9999,9999,1053245540
83,5,22,Ticks_Phase_8,149,9999,9999,9999,1054045256
83,5,22,Ticks_Phase_8,150,9999,9999,9999,1054685236
83,5,22,Ticks_Phase_8,151,9999,9999,9999,1055486052
83,5,22,Ticks_Phase_8,152,9999,9999,9999,1056285776
83,5,22,Ticks_Phase_8,153,9999,9999,9999,1057085568
83,5,22,Ticks_Phase_8,154,9999,9999,9999,1057885276
83,5,22,Ticks_Phase_8,155,9999,9999,9999,1058686036
83,5,22,Ticks_Phase_8,156,9999,9999,9999,1059485772
83,5,22,Ticks_Phase_8,157,9999,9999,9999,1060285532
83,5,22,Ticks_Phase_8,158,9999,9999,9999,1061085248
83,5,22,Ticks_Phase_8,159,9999,9999,9999,1061886076
83,5,22,Ticks_Phase_8,160,9999,9999,9999,1062685796
83,5,22,Ticks_Phase_8,161,9999,9999,9999,1063485508
83,5,22,Ticks_Phase_8,162,9999,9999,9999,1064285288
83,5,22,Ticks_Phase_8,163,9999,9999,9999,1065086048
83,5,22,Ticks_Phase_8,164,9999,9999,9999,1065885784
83,5,22,Ticks_Phase_8,165,9999,9999,9999,1066685496
83,5,22,Ticks_Phase_8,166,9999,9999,9999,1067485280
83,5,22,Ticks_Phase_8,167,9999,9999,9999,1068286044
83,5,22,Ticks_Phase_8,168,9999,9999,9999,1069085752
83,5,22,Ticks_Phase_8,169,9999,9999,9999,1069885536
83,6,23,Ticks_Phase_5,0,5,42,127,1081194284
83,6,23,Ticks_Phase_5,1,5,42,127,1081693548
83,6,23,Ticks_Phase_5,2,1,48,37,1081894468
83,6,23,Ticks_Phase_5,3,5,42,127,1082194432
83,6,23,Ticks_Phase_5,4,1,48,37,1082267972
83,6,23,Ticks_Phase_5,5,5,42,127,1082694120
83,6,23,Ticks_Phase_5,6,1,48,44,1082731456
83,6,23,Ticks_Phase_5,7,5,42,127,1083193588
83,6,23,Ticks_Phase_5,8,1,48,51,1083229356
83,6,23,Ticks_Phase_5,9,5,42,127,1083693496
83,6,23,Ticks_Phase_5,10,1,48,50,1083717432
83,6,23,Ticks_Phase_5,11,5,42,127,1084194156
83,6,23,Ticks_Phase_5,12,1,48,52,1084239136
83,6,23,Ticks_Phase_5,13,5,42,127,1084694140
83,6,23,Ticks_Phase_5,14,1,48,47,1084726844
83,6,23,Ticks_Phase_5,15,5,42,127,1085193532
83,6,23,Ticks_Phase_5,16,1,48,50,1085220832
83,6,23,Ticks_Phase_5,17,5,42,127,1085694192
83,6,23,Ticks_Phase_5,18,1,48,48,1085719324
83,6,23,Ticks_Phase_5,19,5,42,127,1086194180
83,6,23,Ticks_Phase_5,20,1,48,54,1086211312
83,6,23,Ticks_Phase_5,21,5,42,127,1086693940
83,6,23,Ticks_Phase_5,22,1,48,54,1086705076
83,6,23,Ticks_Phase_5,23,5,42,127,1087193404
83,6,23,Ticks_Phase_5,24,1,48,53,1087210900
83,6,23,Ticks_Phase_5,25,1,48,59,1087693168
83,6,23,Ticks_Phase_5,26,5,42,127,1087694888
83,6,23,Ticks_Phase_5,27,5,42,127,1088194056
83,6,23,Ticks_Phase_5,28,1,48,57,1088211400
83,6,23,Ticks_Phase_5,29,1,48,51,1088679552
83,6,23,Ticks_Phase_5,30,5,42,127,1088693588
83,6,23,Ticks_Phase_5,31,5,42,127,1089194256
83,6,23,Ticks_Phase_5,32,1,48,54,1089207036
83,6,23,Ticks_Phase_5,33,1,48,54,1089689712
83,6,23,Ticks_Phase_5,34,5,42,127,1089694164
83,6,23,Ticks_Phase_5,35,5,42,127,1090193784
83,6,23,Ticks_Phase_5,36,1,48,55,1090213232
83,6,23,Ticks_Phase_5,37,5,42,127,1090693444
83,6,23,Ticks_Phase_5,38,1,48,53,1090701616
83,6,23,Ticks_Phase_5,39,1,48,54,1091183064
83,6,23,Ticks_Phase_5,40,5,42,127,1091194172
83,6,23,Ticks_Phase_5,41,1,48,55,1091675780
83,6,23,Ticks_Phase_5,42,5,42,127,1091693788
83,6,23,Ticks_Phase_5,43,1,48,51,1092188576
83,6,23,Ticks_Phase_5,44,5,42,127,1092193772
83,6,23,Ticks_Phase_5,45,1,48,53,1092653968
83,6,23,Ticks_Phase_5,46,5,42,127,1092694360
83,6,23,Ticks_Phase_5,47,5,42,127,1093194052
83,6,23,Ticks_Phase_5,48,1,48,56,1093223984
83,6,23,Ticks_Phase_5,49,5,42,127,1093693816
83,6,23,Ticks_Phase_5,50,1,48,48,1093707716
83,6,23,Ticks_Phase_5,51,5,42,127,1094193652
83,6,23,Ticks_Phase_5,52,1,48,54,1094201796
83,6,23,Ticks_Phase_5,53,5,42,127,1094694312
83,6,23,Ticks_Phase_5,54,1,48,43,1094712864
83,6,23,Ticks_Phase_5,55,1,48,48,1095192720
83,6,23,Ticks_Phase_5,56,5,42,127,1095194292
83,6,23,Ticks_Phase_5,57,5,42,127,1095693764
83,6,23,Ticks_Phase_5,58,1,48,49,1095703852
83,6,23,Ticks_Phase_5,59,1,48,49,1096164808
83,6,23,Ticks_Phase_5,60,5,42,127,1096184160
83,6,23,Ticks_Phase_5,61,5,42,127,1096684004
83,6,23,Ticks_Phase_5,62,1,48,46,1096699700
83,6,23,Ticks_Phase_5,63,5,42,127,1097183692
83,6,23,Ticks_Phase_5,64,1,48,49,1097203140
83,6,23,Ticks_Phase_5,65,5,42,127,1097684352
83,6,23,Ticks_Phase_5,66,1,48,46,1097692200
83,6,23,Ticks_Phase_5,67,5,42,127,1098184040
83,6,23,Ticks_Phase_5,68,1,48,50,1098207456
83,6,23,Ticks_Phase_5,69,5,42,127,1098683728
83,6,23,Ticks_Phase_5,70,1,48,50,1098691112
83,6,23,Ticks_Phase_5,71,5,42,127,1099183640
83,6,23,Ticks_Phase_5,72,1,48,59,1099192008
83,6,23,Ticks_Phase_5,73,5,42,127,1099684152
83,6,23,Ticks_Phase_5,74,1,48,47,1099697904
83,6,23,Ticks_Phase_5,75,5,42,127,1100183916
83,6,23,Ticks_Phase_5,76,1,48,51,1100190548
83,6,23,Ticks_Phase_5,77,5,42,127,1100683752
83,6,23,Ticks_Phase_5,78,1,48,41,1100741996
83,6,23,Ticks_Phase_5,79,1,48,47,1101144588
83,6,23,Ticks_Phase_5,80,5,42,127,1101184308
83,6,23,Ticks_Phase_5,81,5,42,127,1101684152
83,6,23,Ticks_Phase_5,82,1,48,51,1101703676
83,6,23,Ticks_Phase_5,83,5,42,127,1102183916
83,6,23,Ticks_Phase_5,84,1,48,48,1102229364
83,6,23,Ticks_Phase_5,85,1,48,50,1102672636
83,6,23,Ticks_Phase_5,86,5,42,127,1102683596
83,6,23,Ticks_Phase_5,87,1,48,48,1103183512
83,6,23,Ticks_Phase_5,88,5,42,127,1103185080
83,6,23,Ticks_Phase_5,89,1,48,59,1103657256
83,6,23,Ticks_Phase_5,90,5,42,127,1103683944
83,6,23,Ticks_Phase_5,91,1,48,58,1104173796
83,6,23,Ticks_Phase_5,92,5,42,127,1104183632
83,6,23,Ticks_Phase_5,93,5,42,127,1104684748
83,6,23,Ticks_Phase_5,94,1,48,54,1104725764
83,6,23,Ticks_Phase_5,95,1,48,60,1105146880
83,6,23,Ticks_Phase_5,96,5,42,127,1105194316
83,6,23,Ticks_Phase_5,97,1,48,56,1105688736
83,6,23,Ticks_Phase_5,98,5,42,127,1105694080
83,6,23,Ticks_Phase_5,99,5,42,127,1106193852
83,6,23,Ticks_Phase_5,100,1,48,43,1106242428
83,6,23,Ticks_Phase_5,101,5,42,127,1106693688
83,6,23,Ticks_Phase_5,102,1,48,53,1106697780
83,6,23,Ticks_Phase_5,103,1,48,45,1107161136
83,6,23,Ticks_Phase_5,104,5,42,127,1107194268
83,6,23,Ticks_Phase_5,105,1,48,59,1107656404
83,6,23,Ticks_Phase_5,106,5,42,127,1107694028
83,6,23,Ticks_Phase_5,107,1,48,55,1108145388
83,6,23,Ticks_Phase_5,108,5,42,127,1108193568
83,6,23,Ticks_Phase_5,109,5,42,127,1108694532
83,6,23,Ticks_Phase_5,110,1,48,58,1108725216
83,6,23,Ticks_Phase_5,111,5,42,127,1109194592
83,6,23,Ticks_Phase_5,112,1,48,52,1109204236
83,6,23,Ticks_Phase_5,113,5,42,127,1109693760
83,6,23,Ticks_Phase_5,114,1,48,48,1109723016
83,6,23,Ticks_Phase_5,115,5,42,127,1110193524
83,6,23,Ticks_Phase_5,116,1,48,51,1110194936
83,6,23,Ticks_Phase_5,117,1,48,56,1110691000
83,6,23,Ticks_Phase_5,118,5,42,127,1110694624
83,6,23,Ticks_Phase_5,119,1,48,52,1111178708
83,6,23,Ticks_Phase_5,120,5,42,127,1111194016
83,6,23,Ticks_Phase_5,121,1,48,52,1111662728
83,6,23,Ticks_Phase_5,122,5,42,127,1111693776
83,6,23,Ticks_Phase_5,123,1,48,45,1112145260
83,6,23,Ticks_Phase_5,124,5,42,127,1112194636
83,6,23,Ticks_Phase_5,125,1,48,51,1112642856
83,6,23,Ticks_Phase_5,126,5,42,127,1112704660
83,6,23,Ticks_Phase_5,127,1,48,50,1113199224
83,6,23,Ticks_Phase_5,128,5,42,127,1113223596
83,6,23,Ticks_Phase_5,129,5,42,127,1113724488
83,6,23,Ticks_Phase_5,130,1,48,57,1113779232
83,6,23,Ticks_Phase_5,131,5,42,127,1114223952
83,6,23,Ticks_Phase_5,132,1,48,40,1114253984
83,6,23,Ticks_Phase_5,133,5,42,127,1114723644
83,6,23,Ticks_Phase_5,134,1,48,51,1114732532
83,6,23,Ticks_Phase_5,135,5,42,127,1115224376
83,6,23,Ticks_Phase_5,136,1,48,46,1115252660
83,6,23,Ticks_Phase_5,137,5,42,127,1115734396
83,6,23,Ticks_Phase_5,138,1,48,52,1115735364
83,6,23,Ticks_Phase_5,139,5,42,127,1116234236
83,6,23,Ticks_Phase_5,140,1,48,53,1116239976
83,6,23,Ticks_Phase_5,141,1,48,46,1116732792
83,6,23,Ticks_Phase_5,142,5,42,127,1116734364
83,6,23,Ticks_Phase_5,143,1,48,58,1117209232
83,6,23,Ticks_Phase_5,144,5,42,127,1117233532
83,6,23,Ticks_Phase_5,145,1,48,46,1117686160
83,6,23,Ticks_Phase_5,146,5,42,127,1117734340
83,6,23,Ticks_Phase_5,147,1,48,54,1118230472
83,6,23,Ticks_Phase_5,148,5,42,127,1118234252
83,6,23,Ticks_Phase_5,149,1,48,48,1118694824
83,6,23,Ticks_Phase_5,150,5,42,127,1118733568
83,6,23,Ticks_Phase_5,151,1,48,41,1119186124
83,6,23,Ticks_Phase_5,152,5,42,127,1119234380
83,6,23,Ticks_Phase_5,153,1,48,45,1119743200
83,6,23,Ticks_Phase_5,154,5,42,127,1119744624
83,6,23,Ticks_Phase_5,155,1,48,48,1120239560
83,6,23,Ticks_Phase_5,156,5,42,127,1120244012
83,6,23,Ticks_Phase_5,157,1,48,43,1120731548
83,6,23,Ticks_Phase_5,158,5,42,127,1120743780
83,6,23,Ticks_Phase_5,159,5,42,127,1121243548
83,6,23,Ticks_Phase_5,160,1,48,45,1121254084
83,6,23,Ticks_Phase_5,161,5,42,127,1121723840
83,6,23,Ticks_Phase_5,162,1,48,50,1121754068
83,6,23,Ticks_Phase_5,163,5,42,127,1122223528
83,6,23,Ticks_Phase_5,164,1,48,50,1122243876
83,6,23,Ticks_Phase_5,165,1,48,49,1122721672
83,6,23,Ticks_Phase_5,166,5,42,127,1122724480
83,6,23,Ticks_Phase_5,167,5,42,127,1123224248
83,6,23,Ticks_Phase_5,168,1,48,43,1123252540
83,6,23,Ticks_Phase_5,169,1,48,51,1123719080
83,6,23,Ticks_Phase_5,170,5,42,127,1123723632
83,6,23,Ticks_Phase_5,171,5,42,127,1124224424
83,6,23,Ticks_Phase_5,172,1,48,48,1124241420
83,6,23,Ticks_Phase_5,173,1,48,44,1124709920
83,6,23,Ticks_Phase_5,174,5,42,127,1124724328
83,6,23,Ticks_Phase_5,175,1,48,41,1125206988
83,6,23,Ticks_Phase_5,176,5,42,127,1125223868
83,6,23,Ticks_Phase_5,177,5,42,127,1125723488
83,6,23,Ticks_Phase_5,178,1,48,52,1125737240
83,6,23,Ticks_Phase_5,179,5,42,127,1126224372
83,6,23,Ticks_Phase_5,180,1,48,39,1126230188
83,6,23,Ticks_Phase_5,181,5,42,127,1126724208
83,6,23,Ticks_Phase_5,182,1,48,51,1126737216
83,6,23,Ticks_Phase_5,183,5,42,127,1127223600
83,6,23,Ticks_Phase_5,184,1,48,28,1127230084
83,6,23,Ticks_Phase_5,185,1,48,45,1127707676
83,6,23,Ticks_Phase_5,186,5,42,127,1127724476
83,6,23,Ticks_Phase_5,187,1,48,47,1128193808
83,6,23,Ticks_Phase_5,188,5,42,127,1128224316
83,6,23,Ticks_Phase_5,189,1,48,55,1128701724
83,6,23,Ticks_Phase_5,190,5,42,127,1128723856
83,6,23,Ticks_Phase_5,191,1,48,56,1129219540
83,6,23,Ticks_Phase_5,192,5,42,127,1129223468
83,6,23,Ticks_Phase_5,193,5,42,127,1129674260
83,6,23,Ticks_Phase_5,194,1,48,64,1129715952
83,6,23,Ticks_Phase_5,195,5,42,127,1130173948
83,6,23,Ticks_Phase_5,196,1,48,61,1130177744
83,6,23,Ticks_Phase_5,197,1,48,60,1130660860
83,6,23,Ticks_Phase_5,198,5,42,127,1130673480
83,6,23,Ticks_Phase_5,199,1,48,63,1131171260
83,6,23,Ticks_Phase_5,200,5,42,127,1131174216
83,6,23,Ticks_Phase_5,201,5,42,127,1131674284
83,6,23,Ticks_Phase_5,202,1,48,59,1131687144
83,6,23,Ticks_Phase_5,203,5,42,127,1132173600
83,6,23,Ticks_Phase_5,204,1,48,63,1132178668
83,6,23,Ticks_Phase_5,205,1,48,60,1132657952
83,6,23,Ticks_Phase_5,206,5,42,127,1132674456
83,6,23,Ticks_Phase_5,207,1,48,56,1133163108
83,6,23,Ticks_Phase_5,208,5,42,127,1133184328
83,6,23,Ticks_Phase_5,209,1,48,58,1133676120
83,6,23,Ticks_Phase_5,210,5,42,127,1133684240
83,6,23,Ticks_Phase_5,211,1,48,55,1134162636
83,6,23,Ticks_Phase_5,212,5,42,127,1134184076
83,6,23,Ticks_Phase_5,213,1,48,61,1134657076
83,6,23,Ticks_Phase_5,214,5,42,127,1134683616
83,6,23,Ticks_Phase_5,215,5,42,127,1135184208
83,6,23,Ticks_Phase_5,216,1,48,28,1135203880
83,6,23,Ticks_Phase_5,217,5,42,127,1135684268
83,6,23,Ticks_Phase_5,218,1,48,58,1135687612
83,6,23,Ticks_Phase_5,219,5,42,127,1136183660
83,6,23,Ticks_Phase_5,220,1,48,61,1136186556
83,6,23,Ticks_Phase_5,221,5,42,127,1136684320
83,6,23,Ticks_Phase_5,222,1,48,50,1136698524
83,6,23,Ticks_Phase_5,223,1,48,57,1137184452
83,6,23,Ticks_Phase_5,224,5,42,127,1137185568
83,6,23,Ticks_Phase_5,225,1,48,44,1137649356
83,6,23,Ticks_Phase_5,226,5,42,127,1137683988
83,6,23,Ticks_Phase_5,227,1,48,54,1138187688
83,6,23,Ticks_Phase_5,228,5,42,127,1138234148
83,6,23,Ticks_Phase_5,229,5,42,127,1138733396
83,6,23,Ticks_Phase_5,230,1,48,49,1138738012
83,6,23,Ticks_Phase_5,231,5,42,127,1139234132
83,6,23,Ticks_Phase_5,232,1,48,58,1139289668
83,6,23,Ticks_Phase_5,233,1,48,49,1139719996
83,6,23,Ticks_Phase_5,234,5,42,127,1139734108
83,6,23,Ticks_Phase_5,235,1,48,52,1140214372
83,6,23,Ticks_Phase_5,236,5,42,127,1140233500
83,6,23,Ticks_Phase_5,237,5,42,127,1140734316
83,6,23,Ticks_Phase_5,238,1,48,51,1140736332
83,6,23,Ticks_Phase_5,239,5,42,127,1141234080
83,6,23,Ticks_Phase_5,240,1,48,60,1141246184
83,6,23,Ticks_Phase_5,241,1,48,51,1141706172
83,6,23,Ticks_Phase_5,242,5,42,127,1141733836
83,6,23,Ticks_Phase_5,243,1,48,51,1142204740
83,6,23,Ticks_Phase_5,244,5,42,127,1142233376
83,6,23,Ticks_Phase_5,245,1,48,59,1142714760
83,6,23,Ticks_Phase_5,246,5,42,127,1142734260
83,6,23,Ticks_Phase_5,247,1,48,52,1143209276
83,6,23,Ticks_Phase_5,248,5,42,127,1143233872
83,6,23,Ticks_Phase_5,249,1,48,51,1143713464
83,6,23,Ticks_Phase_5,250,5,42,127,1143733560
83,6,23,Ticks_Phase_5,251,1,48,54,1144187064
83,6,23,Ticks_Phase_5,252,5,42,127,1144234368
83,6,23,Ticks_Phase_5,253,1,48,51,1144719576
83,6,23,Ticks_Phase_5,254,5,42,127,1144733984
83,6,23,Ticks_Phase_5,255,5,42,127,1145233976
83,6,23,Ticks_Phase_5,256,1,48,52,1145240164
83,6,23,Ticks_Phase_5,257,5,42,127,1145733564
83,6,23,Ticks_Phase_5,258,1,48,44,1145757228
83,6,23,Ticks_Phase_5,259,1,48,49,1146228796
83,6,23,Ticks_Phase_5,260,5,42,127,1146234220
83,6,23,Ticks_Phase_5,261,1,48,50,1146718972
83,6,23,Ticks_Phase_5,262,5,42,127,1146834340
83,6,23,Ticks_Phase_5,263,5,42,127,1147333976
83,6,23,Ticks_Phase_5,264,1,48,51,1147443516
83,6,23,Ticks_Phase_5,265,5,42,127,1147833740
83,6,23,Ticks_Phase_5,266,1,48,41,1147897812
83,6,23,Ticks_Phase_5,267,5,42,127,1148333276
83,6,23,Ticks_Phase_5,268,1,48,51,1148358112
83,6,23,Ticks_Phase_5,269,5,42,127,1148834164
83,6,23,Ticks_Phase_5,270,1,48,47,1148884164
83,6,23,Ticks_Phase_5,271,5,42,127,1149333848
83,6,23,Ticks_Phase_5,272,1,48,45,1149374192
83,6,23,Ticks_Phase_5,273,1,48,44,1149817820
83,6,23,Ticks_Phase_5,274,5,42,127,1149833756
83,6,23,Ticks_Phase_5,275,1,48,48,1150306200
83,6,23,Ticks_Phase_5,276,5,42,127,1150334316
83,6,23,Ticks_Phase_5,277,1,48,44,1150824692
83,6,23,Ticks_Phase_5,278,5,42,127,1150834076
83,6,23,Ticks_Phase_5,279,1,48,52,1151328940
83,6,23,Ticks_Phase_5,280,5,42,127,1151333840
83,6,23,Ticks_Phase_5,281,1,48,52,1151802276
83,6,23,Ticks_Phase_5,282,5,42,127,1151833680
83,6,23,Ticks_Phase_5,283,1,48,57,1152299336
83,6,23,Ticks_Phase_5,284,5,42,127,1152334264
83,6,23,Ticks_Phase_5,285,1,48,49,1152802624
83,6,23,Ticks_Phase_5,286,5,42,127,1152833952
83,6,23,Ticks_Phase_5,287,1,48,57,1153297440
83,6,23,Ticks_Phase_5,288,5,42,127,1153333788
83,6,23,Ticks_Phase_5,289,1,48,51,1153804468
83,6,23,Ticks_Phase_5,290,5,42,127,1153834300
83,6,23,Ticks_Phase_5,291,1,48,49,1154309392
83,6,23,Ticks_Phase_5,292,5,42,127,1154334136
83,6,23,Ticks_Phase_5,293,1,48,59,1154783996
83,6,23,Ticks_Phase_5,294,5,42,127,1154833900
83,6,23,Ticks_Phase_5,295,1,48,29,1154852288
83,6,23,Ticks_Phase_5,296,1,48,57,1155317888
83,6,23,Ticks_Phase_5,297,5,42,127,1155333640
83,6,23,Ticks_Phase_5,298,1,48,44,1155827456
83,6,23,Ticks_Phase_5,299,5,42,127,1155834080
83,6,23,Ticks_Phase_5,300,5,42,127,1156233728
83,6,23,Ticks_Phase_5,301,1,48,49,1156339440
83,6,23,Ticks_Phase_5,302,1,48,44,1156734512
83,6,23,Ticks_Phase_5,303,5,42,127,1156735776
83,6,23,Ticks_Phase_5,304,5,42,127,1157233900
83,6,23,Ticks_Phase_5,305,1,48,40,1157279132
83,6,23,Ticks_Phase_5,306,1,48,43,1157734036
83,6,23,Ticks_Phase_5,307,5,42,127,1157735376
83,6,23,Ticks_Phase_5,308,5,42,127,1158233576
83,6,23,Ticks_Phase_5,309,1,48,43,1158236696
83,6,23,Ticks_Phase_5,310,1,48,45,1158692872
83,6,23,Ticks_Phase_5,311,5,42,127,1158734304
83,6,23,Ticks_Phase_5,312,1,48,42,1159217936
83,6,23,Ticks_Phase_5,313,5,42,127,1159233844
83,6,23,Ticks_Phase_5,314,1,48,43,1159690208
83,6,23,Ticks_Phase_5,315,5,42,127,1159733756
83,6,23,Ticks_Phase_5,316,1,48,42,1160198888
83,6,23,Ticks_Phase_5,317,5,42,127,1160234564
83,6,23,Ticks_Phase_5,318,1,48,45,1160717972
83,6,23,Ticks_Phase_5,319,5,42,127,1160734032
83,6,23,Ticks_Phase_5,320,1,48,47,1161201552
83,6,23,Ticks_Phase_5,321,5,42,127,1161233720
83,6,23,Ticks_Phase_5,322,1,48,43,1161688964
83,6,23,Ticks_Phase_5,323,5,42,127,1161733484
83,6,23,Ticks_Phase_5,324,1,48,41,1162232868
83,6,23,Ticks_Phase_5,325,5,42,127,1162234144
83,6,23,Ticks_Phase_5,326,5,42,127,1162733912
83,6,23,Ticks_Phase_5,327,1,48,44,1162751776
83,6,23,Ticks_Phase_5,328,1,48,46,1163200380
83,6,23,Ticks_Phase_5,329,5,42,127,1163233744
83,6,23,Ticks_Phase_5,330,1,48,40,1163712360
83,6,23,Ticks_Phase_5,331,5,42,127,1163734700
83,6,23,Ticks_Phase_5,332,1,48,47,1164167860
83,6,23,Ticks_Phase_5,333,5,42,127,1164234092
83,6,23,Ticks_Phase_5,334,1,48,46,1164732804
83,6,23,Ticks_Phase_5,335,5,42,127,1164734152
83,6,23,Ticks_Phase_5,336,5,42,127,1165233476
83,6,23,Ticks_Phase_5,337,1,48,46,1165265128
83,6,23,Ticks_Phase_5,338,1,48,44,1165726460
83,6,23,Ticks_Phase_5,339,5,42,127,1165734280
83,6,23,Ticks_Phase_5,0,9999,9999,9999,1081191548
83,6,23,Ticks_Phase_5,1,9999,9999,9999,1081691260
83,6,23,Ticks_Phase_5,2,9999,9999,9999,1082191996
83,6,23,Ticks_Phase_5,3,9999,9999,9999,1082691684
83,6,23,Ticks_Phase_5,4,9999,9999,9999,1083191372
83,6,23,Ticks_Phase_5,5,9999,9999,9999,1083691136
83,6,23,Ticks_Phase_5,6,9999,9999,9999,1084191868
83,6,23,Ticks_Phase_5,7,9999,9999,9999,1084691556
83,6,23,Ticks_Phase_5,8,9999,9999,9999,1085191244
83,6,23,Ticks_Phase_5,9,9999,9999,9999,1085691980
83,6,23,Ticks_Phase_5,10,9999,9999,9999,1086191744
83,6,23,Ticks_Phase_5,11,9999,9999,9999,1086691432
83,6,23,Ticks_Phase_5,12,9999,9999,9999,1087191120
83,6,23,Ticks_Phase_5,13,9999,9999,9999,1087691856
83,6,23,Ticks_Phase_5,14,9999,9999,9999,1088191544
83,6,23,Ticks_Phase_5,15,9999,9999,9999,1088691304
83,6,23,Ticks_Phase_5,16,9999,9999,9999,1089192044
83,6,23,Ticks_Phase_5,17,9999,9999,9999,1089691728
83,6,23,Ticks_Phase_5,18,9999,9999,9999,1090191420
83,6,23,Ticks_Phase_5,19,9999,9999,9999,1090691160
83,6,23,Ticks_Phase_5,20,9999,9999,9999,1091191888
83,6,23,Ticks_Phase_5,21,9999,9999,9999,1091691576
83,6,23,Ticks_Phase_5,22,9999,9999,9999,1092191336
83,6,23,Ticks_Phase_5,23,9999,9999,9999,1092692072
83,6,23,Ticks_Phase_5,24,9999,9999,9999,1093191768
83,6,23,Ticks_Phase_5,25,9999,9999,9999,1093691456
83,6,23,Ticks_Phase_5,26,9999,9999,9999,1094191216
83,6,23,Ticks_Phase_5,27,9999,9999,9999,1094691952
83,6,23,Ticks_Phase_5,28,9999,9999,9999,1095191640
83,6,23,Ticks_Phase_5,29,9999,9999,9999,1095691328
83,6,23,Ticks_Phase_5,30,9999,9999,9999,1096181872
83,6,23,Ticks_Phase_5,31,9999,9999,9999,1096681568
83,6,23,Ticks_Phase_5,32,9999,9999,9999,1097181256
83,6,23,Ticks_Phase_5,33,9999,9999,9999,1097681992
83,6,23,Ticks_Phase_5,34,9999,9999,9999,1098181752
83,6,23,Ticks_Phase_5,35,9999,9999,9999,1098681440
83,6,23,Ticks_Phase_5,36,9999,9999,9999,1099181132
83,6,23,Ticks_Phase_5,37,9999,9999,9999,1099681864
83,6,23,Ticks_Phase_5,38,9999,9999,9999,1100181628
83,6,23,Ticks_Phase_5,39,9999,9999,9999,1100681316
83,6,23,Ticks_Phase_5,40,9999,9999,9999,1101182020
83,6,23,Ticks_Phase_5,41,9999,9999,9999,1101681788
83,6,23,Ticks_Phase_5,42,9999,9999,9999,1102181480
83,6,23,Ticks_Phase_5,43,9999,9999,9999,1102681160
83,6,23,Ticks_Phase_5,44,9999,9999,9999,1103181904
83,6,23,Ticks_Phase_5,45,9999,9999,9999,1103681660
83,6,23,Ticks_Phase_5,46,9999,9999,9999,1104181348
83,6,23,Ticks_Phase_5,47,9999,9999,9999,1104682088
83,6,23,Ticks_Phase_5,48,9999,9999,9999,1105192028
83,6,23,Ticks_Phase_5,49,9999,9999,9999,1105691720
83,6,23,Ticks_Phase_5,50,9999,9999,9999,1106191416
83,6,23,Ticks_Phase_5,51,9999,9999,9999,1106691176
83,6,23,Ticks_Phase_5,52,9999,9999,9999,1107191904
83,6,23,Ticks_Phase_5,53,9999,9999,9999,1107691596
83,6,23,Ticks_Phase_5,54,9999,9999,9999,1108191356
83,6,23,Ticks_Phase_5,55,9999,9999,9999,1108692024
83,6,23,Ticks_Phase_5,56,9999,9999,9999,1109191784
83,6,23,Ticks_Phase_5,57,9999,9999,9999,1109691472
83,6,23,Ticks_Phase_5,58,9999,9999,9999,1110191164
83,6,23,Ticks_Phase_5,59,9999,9999,9999,1110691964
83,6,23,Ticks_Phase_5,60,9999,9999,9999,1111191656
83,6,23,Ticks_Phase_5,61,9999,9999,9999,1111691340
83,6,23,Ticks_Phase_5,62,9999,9999,9999,1112192128
83,6,23,Ticks_Phase_5,63,9999,9999,9999,1112702072
83,6,23,Ticks_Phase_5,64,9999,9999,9999,1113221232
83,6,23,Ticks_Phase_5,65,9999,9999,9999,1113721976
83,6,23,Ticks_Phase_5,66,9999,9999,9999,1114221664
83,6,23,Ticks_Phase_5,67,9999,9999,9999,1114721356
83,6,23,Ticks_Phase_5,68,9999,9999,9999,1115222092
83,6,23,Ticks_Phase_5,69,9999,9999,9999,1115732036
83,6,23,Ticks_Phase_5,70,9999,9999,9999,1116231800
83,6,23,Ticks_Phase_5,71,9999,9999,9999,1116731488
83,6,23,Ticks_Phase_5,72,9999,9999,9999,1117231168
83,6,23,Ticks_Phase_5,73,9999,9999,9999,1117731904
83,6,23,Ticks_Phase_5,74,9999,9999,9999,1118231668
83,6,23,Ticks_Phase_5,75,9999,9999,9999,1118731356
83,6,23,Ticks_Phase_5,76,9999,9999,9999,1119232092
83,6,23,Ticks_Phase_5,77,9999,9999,9999,1119742044
83,6,23,Ticks_Phase_5,78,9999,9999,9999,1120241728
83,6,23,Ticks_Phase_5,79,9999,9999,9999,1120741492
83,6,23,Ticks_Phase_5,80,9999,9999,9999,1121241184
83,6,23,Ticks_Phase_5,81,9999,9999,9999,1121721404
83,6,23,Ticks_Phase_5,82,9999,9999,9999,1122221168
83,6,23,Ticks_Phase_5,83,9999,9999,9999,1122721896
83,6,23,Ticks_Phase_5,84,9999,9999,9999,1123221592
83,6,23,Ticks_Phase_5,85,9999,9999,9999,1123721272
83,6,23,Ticks_Phase_5,86,9999,9999,9999,1124222064
83,6,23,Ticks_Phase_5,87,9999,9999,9999,1124721744
83,6,23,Ticks_Phase_5,88,9999,9999,9999,1125221432
83,6,23,Ticks_Phase_5,89,9999,9999,9999,1125721204
83,6,23,Ticks_Phase_5,90,9999,9999,9999,1126221936
83,6,23,Ticks_Phase_5,91,9999,9999,9999,1126721624
83,6,23,Ticks_Phase_5,92,9999,9999,9999,1127221312
83,6,23,Ticks_Phase_5,93,9999,9999,9999,1127722040
83,6,23,Ticks_Phase_5,94,9999,9999,9999,1128221804
83,6,23,Ticks_Phase_5,95,9999,9999,9999,1128721496
83,6,23,Ticks_Phase_5,96,9999,9999,9999,1129221184
83,6,23,Ticks_Phase_5,97,9999,9999,9999,1129671752
83,6,23,Ticks_Phase_5,98,9999,9999,9999,1130171512
83,6,23,Ticks_Phase_5,99,9999,9999,9999,1130671196
83,6,23,Ticks_Phase_5,100,9999,9999,9999,1131171932
83,6,23,Ticks_Phase_5,101,9999,9999,9999,1131671624
83,6,23,Ticks_Phase_5,102,9999,9999,9999,1132171388
83,6,23,Ticks_Phase_5,103,9999,9999,9999,1132672092
83,6,23,Ticks_Phase_5,104,9999,9999,9999,1133182040
83,6,23,Ticks_Phase_5,105,9999,9999,9999,1133681728
83,6,23,Ticks_Phase_5,106,9999,9999,9999,1134181492
83,6,23,Ticks_Phase_5,107,9999,9999,9999,1134681180
83,6,23,Ticks_Phase_5,108,9999,9999,9999,1135181920
83,6,23,Ticks_Phase_5,109,9999,9999,9999,1135681608
83,6,23,Ticks_Phase_5,110,9999,9999,9999,1136181372
83,6,23,Ticks_Phase_5,111,9999,9999,9999,1136682108
83,6,23,Ticks_Phase_5,112,9999,9999,9999,1137181792
83,6,23,Ticks_Phase_5,113,9999,9999,9999,1137681476
83,6,23,Ticks_Phase_5,114,9999,9999,9999,1138231416
83,6,23,Ticks_Phase_5,115,9999,9999,9999,1138731108
83,6,23,Ticks_Phase_5,116,9999,9999,9999,1139231844
83,6,23,Ticks_Phase_5,117,9999,9999,9999,1139731524
83,6,23,Ticks_Phase_5,118,9999,9999,9999,1140231288
83,6,23,Ticks_Phase_5,119,9999,9999,9999,1140732028
83,6,23,Ticks_Phase_5,120,9999,9999,9999,1141231716
83,6,23,Ticks_Phase_5,121,9999,9999,9999,1141731400
83,6,23,Ticks_Phase_5,122,9999,9999,9999,1142231164
83,6,23,Ticks_Phase_5,123,9999,9999,9999,1142731896
83,6,23,Ticks_Phase_5,124,9999,9999,9999,1143231584
83,6,23,Ticks_Phase_5,125,9999,9999,9999,1143731272
83,6,23,Ticks_Phase_5,126,9999,9999,9999,1144232008
83,6,23,Ticks_Phase_5,127,9999,9999,9999,1144731772
83,6,23,Ticks_Phase_5,128,9999,9999,9999,1145231468
83,6,23,Ticks_Phase_5,129,9999,9999,9999,1145731128
83,6,23,Ticks_Phase_5,130,9999,9999,9999,1146231932
83,6,23,Ticks_Phase_5,131,9999,9999,9999,1146831976
83,6,23,Ticks_Phase_5,132,9999,9999,9999,1147331688
83,6,23,Ticks_Phase_5,133,9999,9999,9999,1147831376
83,6,23,Ticks_Phase_5,134,9999,9999,9999,1148331064
83,6,23,Ticks_Phase_5,135,9999,9999,9999,1148831800
83,6,23,Ticks_Phase_5,136,9999,9999,9999,1149331564
83,6,23,Ticks_Phase_5,137,9999,9999,9999,1149831244
83,6,23,Ticks_Phase_5,138,9999,9999,9999,1150332028
83,6,23,Ticks_Phase_5,139,9999,9999,9999,1150831716
83,6,23,Ticks_Phase_5,140,9999,9999,9999,1151331404
83,6,23,Ticks_Phase_5,141,9999,9999,9999,1151831096
83,6,23,Ticks_Phase_5,142,9999,9999,9999,1152331904
83,6,23,Ticks_Phase_5,143,9999,9999,9999,1152831592
83,6,23,Ticks_Phase_5,144,9999,9999,9999,1153331280
83,6,23,Ticks_Phase_5,145,9999,9999,9999,1153832012
83,6,23,Ticks_Phase_5,146,9999,9999,9999,1154331704
83,6,23,Ticks_Phase_5,147,9999,9999,9999,1154831464
83,6,23,Ticks_Phase_5,148,9999,9999,9999,1155331132
83,6,23,Ticks_Phase_5,149,9999,9999,9999,1155831868
83,6,23,Ticks_Phase_5,150,9999,9999,9999,1156231292
83,6,23,Ticks_Phase_5,151,9999,9999,9999,1156732004
83,6,23,Ticks_Phase_5,152,9999,9999,9999,1157231688
83,6,23,Ticks_Phase_5,153,9999,9999,9999,1157731452
83,6,23,Ticks_Phase_5,154,9999,9999,9999,1158231140
83,6,23,Ticks_Phase_5,155,9999,9999,9999,1158731868
83,6,23,Ticks_Phase_5,156,9999,9999,9999,1159231556
83,6,23,Ticks_Phase_5,157,9999,9999,9999,1159731320
83,6,23,Ticks_Phase_5,158,9999,9999,9999,1160232056
83,6,23,Ticks_Phase_5,159,9999,9999,9999,1160731744
83,6,23,Ticks_Phase_5,160,9999,9999,9999,1161231432
83,6,23,Ticks_Phase_5,161,9999,9999,9999,1161731196
83,6,23,Ticks_Phase_5,162,9999,9999,9999,1162231864
83,6,23,Ticks_Phase_5,163,9999,9999,9999,1162731624
83,6,23,Ticks_Phase_5,164,9999,9999,9999,1163231308
83,6,23,Ticks_Phase_5,165,9999,9999,9999,1163732040
83,6,23,Ticks_Phase_5,166,9999,9999,9999,1164231804
83,6,23,Ticks_Phase_5,167,9999,9999,9999,1164731500
83,6,23,Ticks_Phase_5,168,9999,9999,9999,1165231188
83,6,23,Ticks_Phase_5,169,9999,9999,9999,1165731916
83,7,20,Ticks_Linear_8,0,5,42,127,1177347428
83,7,20,Ticks_Linear_8,1,1,48,22,1177895316
83,7,20,Ticks_Linear_8,2,5,42,127,1178167668
83,7,20,Ticks_Linear_8,3,1,48,38,1178910296
83,7,20,Ticks_Linear_8,4,5,42,127,1178987776
83,7,20,Ticks_Linear_8,5,5,42,127,1179808348
83,7,20,Ticks_Linear_8,6,1,48,38,1179856256
83,7,20,Ticks_Linear_8,7,5,42,127,1180628292
83,7,20,Ticks_Linear_8,8,1,48,45,1180658076
83,7,20,Ticks_Linear_8,9,5,42,127,1181438276
83,7,20,Ticks_Linear_8,10,1,48,46,1181456756
83,7,20,Ticks_Linear_8,11,1,48,40,1182241688
83,7,20,Ticks_Linear_8,12,5,42,127,1182248328
83,7,20,Ticks_Linear_8,13,1,48,37,1183045080
83,7,20,Ticks_Linear_8,14,5,42,127,1183058384
83,7,20,Ticks_Linear_8,15,1,48,51,1183849156
83,7,20,Ticks_Linear_8,16,5,42,127,1183868368
83,7,20,Ticks_Linear_8,17,5,42,127,1184678384
83,7,20,Ticks_Linear_8,18,1,48,49,1184684936
83,7,20,Ticks_Linear_8,19,5,42,127,1185478108
83,7,20,Ticks_Linear_8,20,1,48,47,1185506164
83,7,20,Ticks_Linear_8,21,5,42,127,1186277904
83,7,20,Ticks_Linear_8,22,1,48,51,1186374624
83,7,20,Ticks_Linear_8,23,5,42,127,1187077480
83,7,20,Ticks_Linear_8,24,1,48,46,1187088312
83,7,20,Ticks_Linear_8,25,1,48,48,1187858584
83,7,20,Ticks_Linear_8,26,5,42,127,1187878316
83,7,20,Ticks_Linear_8,27,5,42,127,1188678048
83,7,20,Ticks_Linear_8,28,1,48,39,1188702880
83,7,20,Ticks_Linear_8,29,5,42,127,1189467512
83,7,20,Ticks_Linear_8,30,1,48,42,1189473324
83,7,20,Ticks_Linear_8,31,5,42,127,1190258172
83,7,20,Ticks_Linear_8,32,1,48,55,1190315540
83,7,20,Ticks_Linear_8,33,1,48,64,1191009772
83,7,20,Ticks_Linear_8,34,5,42,127,1191047508
83,7,20,Ticks_Linear_8,35,5,42,127,1191838172
83,7,20,Ticks_Linear_8,36,1,48,49,1191852448
83,7,20,Ticks_Linear_8,37,5,42,127,1192627564
83,7,20,Ticks_Linear_8,38,1,48,50,1192666856
83,7,20,Ticks_Linear_8,39,5,42,127,1193408040
83,7,20,Ticks_Linear_8,40,1,48,50,1193435040
83,7,20,Ticks_Linear_8,41,1,48,45,1194169072
83,7,20,Ticks_Linear_8,42,5,42,127,1194188212
83,7,20,Ticks_Linear_8,43,1,48,44,1194917648
83,7,20,Ticks_Linear_8,44,5,42,127,1194968316
83,7,20,Ticks_Linear_8,45,1,48,51,1195707188
83,7,20,Ticks_Linear_8,46,5,42,127,1195758076
83,7,20,Ticks_Linear_8,47,1,48,49,1196500988
83,7,20,Ticks_Linear_8,48,5,42,127,1196538256
83,7,20,Ticks_Linear_8,49,1,48,53,1197306584
83,7,20,Ticks_Linear_8,50,5,42,127,1197308248
83,7,20,Ticks_Linear_8,51,1,48,48,1198070260
83,7,20,Ticks_Linear_8,52,5,42,127,1198078240
83,7,20,Ticks_Linear_8,53,1,48,54,1198846012
83,7,20,Ticks_Linear_8,54,5,42,127,1198848384
83,7,20,Ticks_Linear_8,55,5,42,127,1199618384
83,7,20,Ticks_Linear_8,56,1,48,54,1199648916
83,7,20,Ticks_Linear_8,57,1,48,54,1200337560
83,7,20,Ticks_Linear_8,58,5,42,127,1200398032
83,7,20,Ticks_Linear_8,59,5,42,127,1201157548
83,7,20,Ticks_Linear_8,60,1,48,52,1201162688
83,7,20,Ticks_Linear_8,61,5,42,127,1201918260
83,7,20,Ticks_Linear_8,62,1,48,51,1201963460
83,7,20,Ticks_Linear_8,63,1,48,57,1202657356
83,7,20,Ticks_Linear_8,64,5,42,127,1202678060
83,7,20,Ticks_Linear_8,65,1,48,57,1203351476
83,7,20,Ticks_Linear_8,66,5,42,127,1203437944
83,7,20,Ticks_Linear_8,67,1,48,52,1204170744
83,7,20,Ticks_Linear_8,68,5,42,127,1204197828
83,7,20,Ticks_Linear_8,69,1,48,51,1204927192
83,7,20,Ticks_Linear_8,70,5,42,127,1204948276
83,7,20,Ticks_Linear_8,71,1,48,57,1205670296
83,7,20,Ticks_Linear_8,72,5,42,127,1205697972
83,7,20,Ticks_Linear_8,73,1,48,56,1206438052
83,7,20,Ticks_Linear_8,74,5,42,127,1206447448
83,7,20,Ticks_Linear_8,75,5,42,127,1207198052
83,7,20,Ticks_Linear_8,76,1,48,57,1207232624
83,7,20,Ticks_Linear_8,77,5,42,127,1207947752
83,7,20,Ticks_Linear_8,78,1,48,42,1207963148
83,7,20,Ticks_Linear_8,79,1,48,43,1208672736
83,7,20,Ticks_Linear_8,80,5,42,127,1208687984
83,7,20,Ticks_Linear_8,81,5,42,127,1209428252
83,7,20,Ticks_Linear_8,82,1,48,47,1209430992
83,7,20,Ticks_Linear_8,83,1,48,51,1210151316
83,7,20,Ticks_Linear_8,84,5,42,127,1210167760
83,7,20,Ticks_Linear_8,85,5,42,127,1210907952
83,7,20,Ticks_Linear_8,86,1,48,53,1210940876
83,7,20,Ticks_Linear_8,87,1,48,48,1211616720
83,7,20,Ticks_Linear_8,88,5,42,127,1211648580
83,7,20,Ticks_Linear_8,89,1,48,53,1212354496
83,7,20,Ticks_Linear_8,90,5,42,127,1212377612
83,7,20,Ticks_Linear_8,91,1,48,48,1213070880
83,7,20,Ticks_Linear_8,92,5,42,127,1213107768
83,7,20,Ticks_Linear_8,93,5,42,127,1213837628
83,7,20,Ticks_Linear_8,94,1,48,51,1213864552
83,7,20,Ticks_Linear_8,95,1,48,52,1214536184
83,7,20,Ticks_Linear_8,96,5,42,127,1214567748
83,7,20,Ticks_Linear_8,97,5,42,127,1215297908
83,7,20,Ticks_Linear_8,98,1,48,54,1215325596
83,7,20,Ticks_Linear_8,99,5,42,127,1216017728
83,7,20,Ticks_Linear_8,100,1,48,54,1216025256
83,7,20,Ticks_Linear_8,101,5,42,127,1216737624
83,7,20,Ticks_Linear_8,102,1,48,53,1216764548
83,7,20,Ticks_Linear_8,103,1,48,44,1217405312
83,7,20,Ticks_Linear_8,104,5,42,127,1217457436
83,7,20,Ticks_Linear_8,105,1,48,47,1218101696
83,7,20,Ticks_Linear_8,106,5,42,127,1218178576
83,7,20,Ticks_Linear_8,107,1,48,47,1218875644
83,7,20,Ticks_Linear_8,108,5,42,127,1218907508
83,7,20,Ticks_Linear_8,109,1,48,43,1219599580
83,7,20,Ticks_Linear_8,110,5,42,127,1219618188
83,7,20,Ticks_Linear_8,111,1,48,41,1220322612
83,7,20,Ticks_Linear_8,112,5,42,127,1220327824
83,7,20,Ticks_Linear_8,113,5,42,127,1221037540
83,7,20,Ticks_Linear_8,114,1,48,43,1221060352
83,7,20,Ticks_Linear_8,115,5,42,127,1221748272
83,7,20,Ticks_Linear_8,116,1,48,41,1221751240
83,7,20,Ticks_Linear_8,117,5,42,127,1222457684
83,7,20,Ticks_Linear_8,118,1,48,35,1222477356
83,7,20,Ticks_Linear_8,119,1,48,36,1223125768
83,7,20,Ticks_Linear_8,120,5,42,127,1223158096
83,7,20,Ticks_Linear_8,121,5,42,127,1223857556
83,7,20,Ticks_Linear_8,122,1,48,37,1223871452
83,7,20,Ticks_Linear_8,123,5,42,127,1224558100
83,7,20,Ticks_Linear_8,124,1,48,46,1224571404
83,7,20,Ticks_Linear_8,125,5,42,127,1225258448
83,7,20,Ticks_Linear_8,126,1,48,47,1225273844
83,7,20,Ticks_Linear_8,127,1,48,54,1225897868
83,7,20,Ticks_Linear_8,128,5,42,127,1225957820
83,7,20,Ticks_Linear_8,129,1,48,35,1226640824
83,7,20,Ticks_Linear_8,130,5,42,127,1226647832
83,7,20,Ticks_Linear_8,131,1,48,46,1227312612
83,7,20,Ticks_Linear_8,132,5,42,127,1227338492
83,7,20,Ticks_Linear_8,133,5,42,127,1228028440
83,7,20,Ticks_Linear_8,134,1,48,46,1228033500
83,7,20,Ticks_Linear_8,135,5,42,127,1228717556
83,7,20,Ticks_Linear_8,136,1,48,47,1228720228
83,7,20,Ticks_Linear_8,137,5,42,127,1229407548
83,7,20,Ticks_Linear_8,138,1,48,47,1229451200
83,7,20,Ticks_Linear_8,139,1,48,47,1230078192
83,7,20,Ticks_Linear_8,140,5,42,127,1230087444
83,7,20,Ticks_Linear_8,141,1,48,52,1230759516
83,7,20,Ticks_Linear_8,142,5,42,127,1230767348
83,7,20,Ticks_Linear_8,143,1,48,53,1231398960
83,7,20,Ticks_Linear_8,144,5,42,127,1231448348
83,7,20,Ticks_Linear_8,145,5,42,127,1232137472
83,7,20,Ticks_Linear_8,146,1,48,46,1232177136
83,7,20,Ticks_Linear_8,147,5,42,127,1232817524
83,7,20,Ticks_Linear_8,148,1,48,48,1232822136
83,7,20,Ticks_Linear_8,149,5,42,127,1233488268
83,7,20,Ticks_Linear_8,150,1,48,35,1233489828
83,7,20,Ticks_Linear_8,151,5,42,127,1234157988
83,7,20,Ticks_Linear_8,152,1,48,35,1234183040
83,7,20,Ticks_Linear_8,153,1,48,38,1234816092
83,7,20,Ticks_Linear_8,154,5,42,127,1234827772
83,7,20,Ticks_Linear_8,155,1,48,23,1235442228
83,7,20,Ticks_Linear_8,156,5,42,127,1235498364
83,7,20,Ticks_Linear_8,157,1,48,39,1236144296
83,7,20,Ticks_Linear_8,158,5,42,127,1236168232
83,7,20,Ticks_Linear_8,159,1,48,34,1236772884
83,7,20,Ticks_Linear_8,160,5,42,127,1236827372
83,7,20,Ticks_Linear_8,161,1,48,55,1237454652
83,7,20,Ticks_Linear_8,162,5,42,127,1237488176
83,7,20,Ticks_Linear_8,163,1,48,50,1238144940
83,7,20,Ticks_Linear_8,164,5,42,127,1238147488
83,7,20,Ticks_Linear_8,165,5,42,127,1238808052
83,7,20,Ticks_Linear_8,166,1,48,51,1238880368
83,7,20,Ticks_Linear_8,167,1,48,46,1239447396
83,7,20,Ticks_Linear_8,168,5,42,127,1239468476
83,7,20,Ticks_Linear_8,169,1,48,41,1240092220
83,7,20,Ticks_Linear_8,170,5,42,127,1240117580
83,7,20,Ticks_Linear_8,171,1,48,39,1240755952
83,7,20,Ticks_Linear_8,172,5,42,127,1240767828
83,7,20,Ticks_Linear_8,173,1,48,38,1241414628
83,7,20,Ticks_Linear_8,174,5,42,127,1241418348
83,7,20,Ticks_Linear_8,175,1,48,52,1242009320
83,7,20,Ticks_Linear_8,176,5,42,127,1242068296
83,7,20,Ticks_Linear_8,177,1,48,46,1242715356
83,7,20,Ticks_Linear_8,178,5,42,127,1242717472
83,7,20,Ticks_Linear_8,179,5,42,127,1243357544
83,7,20,Ticks_Linear_8,180,1,48,37,1243442132
83,7,20,Ticks_Linear_8,181,5,42,127,1243997432
83,7,20,Ticks_Linear_8,182,1,48,46,1244019048
83,7,20,Ticks_Linear_8,183,5,42,127,1244637420
83,7,20,Ticks_Linear_8,184,1,48,42,1244638388
83,7,20,Ticks_Linear_8,185,1,48,47,1245268124
83,7,20,Ticks_Linear_8,186,5,42,127,1245277452
83,7,20,Ticks_Linear_8,187,1,48,47,1245910728
83,7,20,Ticks_Linear_8,188,5,42,127,1245917440
83,7,20,Ticks_Linear_8,189,5,42,127,1246548348
83,7,20,Ticks_Linear_8,190,1,48,37,1246555292
83,7,20,Ticks_Linear_8,191,1,48,42,1247168296
83,7,20,Ticks_Linear_8,192,5,42,127,1247178144
83,7,20,Ticks_Linear_8,193,5,42,127,1247808080
83,7,20,Ticks_Linear_8,194,1,48,42,1247820488
83,7,20,Ticks_Linear_8,195,5,42,127,1248437512
83,7,20,Ticks_Linear_8,196,1,48,43,1248438480
83,7,20,Ticks_Linear_8,197,5,42,127,1249068340
83,7,20,Ticks_Linear_8,198,1,48,44,1249069308
83,7,20,Ticks_Linear_8,199,5,42,127,1249688108
83,7,20,Ticks_Linear_8,200,1,48,43,1249710548
83,7,20,Ticks_Linear_8,201,5,42,127,1250307480
83,7,20,Ticks_Linear_8,202,1,48,37,1250324968
83,7,20,Ticks_Linear_8,203,5,42,127,1250928048
83,7,20,Ticks_Linear_8,204,1,48,43,1250938960
83,7,20,Ticks_Linear_8,205,5,42,127,1251547516
83,7,20,Ticks_Linear_8,206,1,48,52,1251550712
83,7,20,Ticks_Linear_8,207,5,42,127,1252168012
83,7,20,Ticks_Linear_8,208,1,48,51,1252202804
83,7,20,Ticks_Linear_8,209,1,48,35,1252749320
83,7,20,Ticks_Linear_8,210,5,42,127,1252778412
83,7,20,Ticks_Linear_8,211,5,42,127,1253387828
83,7,20,Ticks_Linear_8,212,1,48,42,1253408176
83,7,20,Ticks_Linear_8,213,5,42,127,1253998060
83,7,20,Ticks_Linear_8,214,1,48,45,1254026300
83,7,20,Ticks_Linear_8,215,1,48,50,1254555696
83,7,20,Ticks_Linear_8,216,5,42,127,1254608388
83,7,20,Ticks_Linear_8,217,5,42,127,1255217436
83,7,20,Ticks_Linear_8,218,1,48,44,1255235836
83,7,20,Ticks_Linear_8,219,5,42,127,1255817508
83,7,20,Ticks_Linear_8,220,1,48,43,1255859192
83,7,20,Ticks_Linear_8,221,1,48,48,1256409492
83,7,20,Ticks_Linear_8,222,5,42,127,1256417772
83,7,20,Ticks_Linear_8,223,5,42,127,1257017904
83,7,20,Ticks_Linear_8,224,1,48,43,1257031132
83,7,20,Ticks_Linear_8,225,5,42,127,1257617752
83,7,20,Ticks_Linear_8,226,1,48,36,1257634568
83,7,20,Ticks_Linear_8,227,1,48,51,1258216128
83,7,20,Ticks_Linear_8,228,5,42,127,1258217720
83,7,20,Ticks_Linear_8,229,5,42,127,1258807812
83,7,20,Ticks_Linear_8,230,1,48,54,1258841632
83,7,20,Ticks_Linear_8,231,1,48,40,1259392608
83,7,20,Ticks_Linear_8,232,5,42,127,1259397372
83,7,20,Ticks_Linear_8,233,5,42,127,1259988364
83,7,20,Ticks_Linear_8,234,1,48,46,1260015832
83,7,20,Ticks_Linear_8,235,1,48,56,1260562004
83,7,20,Ticks_Linear_8,236,5,42,127,1260578076
83,7,20,Ticks_Linear_8,237,5,42,127,1261167872
83,7,20,Ticks_Linear_8,238,1,48,43,1261185772
83,7,20,Ticks_Linear_8,239,5,42,127,1261747724
83,7,20,Ticks_Linear_8,240,1,48,40,1261755104
83,7,20,Ticks_Linear_8,241,5,42,127,1262328152
83,7,20,Ticks_Linear_8,242,1,48,48,1262352012
83,7,20,Ticks_Linear_8,243,5,42,127,1262907908
83,7,20,Ticks_Linear_8,244,1,48,50,1262935372
83,7,20,Ticks_Linear_8,245,1,48,47,1263472108
83,7,20,Ticks_Linear_8,246,5,42,127,1263488644
83,7,20,Ticks_Linear_8,247,1,48,51,1264063936
83,7,20,Ticks_Linear_8,248,5,42,127,1264068028
83,7,20,Ticks_Linear_8,249,1,48,39,1264597196
83,7,20,Ticks_Linear_8,250,5,42,127,1264638196
83,7,20,Ticks_Linear_8,251,1,48,58,1265182628
83,7,20,Ticks_Linear_8,252,5,42,127,1265207912
83,7,20,Ticks_Linear_8,253,1,48,40,1265775188
83,7,20,Ticks_Linear_8,254,5,42,127,1265778008
83,7,20,Ticks_Linear_8,255,1,48,48,1266347832
83,7,20,Ticks_Linear_8,256,5,42,127,1266349472
83,7,20,Ticks_Linear_8,257,5,42,127,1266917780
83,7,20,Ticks_Linear_8,258,1,48,52,1266926072
83,7,20,Ticks_Linear_8,259,5,42,127,1267477916
83,7,20,Ticks_Linear_8,260,1,48,37,1267520876
83,7,20,Ticks_Linear_8,261,5,42,127,1268037976
83,7,20,Ticks_Linear_8,262,1,48,30,1268060712
83,7,20,Ticks_Linear_8,263,1,48,38,1268565996
83,7,20,Ticks_Linear_8,264,5,42,127,1268598028
83,7,20,Ticks_Linear_8,265,1,48,43,1269103672
83,7,20,Ticks_Linear_8,266,5,42,127,1269158184
83,7,20,Ticks_Linear_8,267,1,48,57,1269673712
83,7,20,Ticks_Linear_8,268,5,42,127,1269718392
83,7,20,Ticks_Linear_8,269,5,42,127,1270268348
83,7,20,Ticks_Linear_8,270,1,48,40,1270269316
83,7,20,Ticks_Linear_8,271,5,42,127,1270818220
83,7,20,Ticks_Linear_8,272,1,48,30,1270879308
83,7,20,Ticks_Linear_8,273,5,42,127,1271368020
83,7,20,Ticks_Linear_8,274,1,48,46,1271374800
83,7,20,Ticks_Linear_8,275,5,42,127,1271917900
83,7,20,Ticks_Linear_8,276,1,48,24,1271922064
83,7,20,Ticks_Linear_8,277,1,48,46,1272440684
83,7,20,Ticks_Linear_8,278,5,42,127,1272467792
83,7,20,Ticks_Linear_8,279,5,42,127,1273007560
83,7,20,Ticks_Linear_8,280,1,48,35,1273014940
83,7,20,Ticks_Linear_8,281,5,42,127,1273548152
83,7,20,Ticks_Linear_8,282,1,48,32,1273576888
83,7,20,Ticks_Linear_8,283,5,42,127,1274087764
83,7,20,Ticks_Linear_8,284,1,48,27,1274131696
83,7,20,Ticks_Linear_8,285,1,48,35,1274596328
83,7,20,Ticks_Linear_8,286,5,42,127,1274627596
83,7,20,Ticks_Linear_8,287,1,48,34,1275144096
83,7,20,Ticks_Linear_8,288,5,42,127,1275168036
83,7,20,Ticks_Linear_8,289,1,48,37,1275692024
83,7,20,Ticks_Linear_8,290,5,42,127,1275697464
83,7,20,Ticks_Linear_8,291,5,42,127,1276227952
83,7,20,Ticks_Linear_8,292,1,48,33,1276253828
83,7,20,Ticks_Linear_8,293,1,48,44,1276725956
83,7,20,Ticks_Linear_8,294,5,42,127,1276758572
83,7,20,Ticks_Linear_8,295,1,48,35,1277274176
83,7,20,Ticks_Linear_8,296,5,42,127,1277287924
83,7,20,Ticks_Linear_8,297,1,48,40,1277801284
83,7,20,Ticks_Linear_8,298,5,42,127,1277818404
83,7,20,Ticks_Linear_8,299,1,48,30,1278326984
83,7,20,Ticks_Linear_8,300,5,42,127,1278338352
83,7,20,Ticks_Linear_8,301,5,42,127,1278867712
83,7,20,Ticks_Linear_8,302,1,48,40,1278875464
83,7,20,Ticks_Linear_8,303,1,48,33,1279380620
83,7,20,Ticks_Linear_8,304,5,42,127,1279388000
83,7,20,Ticks_Linear_8,305,1,48,37,1279905024
83,7,20,Ticks_Linear_8,306,5,42,127,1279908440
83,7,20,Ticks_Linear_8,307,1,48,35,1280418064
83,7,20,Ticks_Linear_8,308,5,42,127,1280428436
83,7,20,Ticks_Linear_8,309,5,42,127,1280938628
83,7,20,Ticks_Linear_8,310,1,48,44,1280941520
83,7,20,Ticks_Linear_8,311,5,42,127,1281448512
83,7,20,Ticks_Linear_8,312,1,48,43,1281450956
83,7,20,Ticks_Linear_8,313,5,42,127,1281958468
83,7,20,Ticks_Linear_8,314,1,48,52,1281994532
83,7,20,Ticks_Linear_8,315,1,48,40,1282441424
83,7,20,Ticks_Linear_8,316,5,42,127,1282468348
83,7,20,Ticks_Linear_8,317,1,48,43,1282959920
83,7,20,Ticks_Linear_8,318,5,42,127,1282978384
83,7,20,Ticks_Linear_8,319,1,48,43,1283477720
83,7,20,Ticks_Linear_8,320,5,42,127,1283478984
83,7,20,Ticks_Linear_8,321,5,42,127,1283977568
83,7,20,Ticks_Linear_8,322,1,48,40,1284009296
83,7,20,Ticks_Linear_8,323,5,42,127,1284478436
83,7,20,Ticks_Linear_8,324,1,48,48,1284490720
83,7,20,Ticks_Linear_8,325,5,42,127,1284977916
83,7,20,Ticks_Linear_8,326,1,48,47,1284981480
83,7,20,Ticks_Linear_8,327,1,48,44,1285464604
83,7,20,Ticks_Linear_8,328,5,42,127,1285477832
83,7,20,Ticks_Linear_8,329,1,48,43,1285966204
83,7,20,Ticks_Linear_8,330,5,42,127,1285968172
83,7,20,Ticks_Linear_8,331,1,48,41,1286435544
83,7,20,Ticks_Linear_8,332,5,42,127,1286457836
83,7,20,Ticks_Linear_8,333,1,48,43,1286933376
83,7,20,Ticks_Linear_8,334,5,42,127,1286948400
83,7,20,Ticks_Linear_8,335,1,48,46,1287438144
83,7,20,Ticks_Linear_8,336,5,42,127,1287439184
83,7,20,Ticks_Linear_8,337,5,42,127,1287928336
83,7,20,Ticks_Linear_8,0,9999,9999,9999,1177345128
83,7,20,Ticks_Linear_8,1,9999,9999,9999,1178165368
83,7,20,Ticks_Linear_8,2,9999,9999,9999,1178985552
83,7,20,Ticks_Linear_8,3,9999,9999,9999,1179805824
83,7,20,Ticks_Linear_8,4,9999,9999,9999,1180625992
83,7,20,Ticks_Linear_8,5,9999,9999,9999,1181435976
83,7,20,Ticks_Linear_8,6,9999,9999,9999,1182245952
83,7,20,Ticks_Linear_8,7,9999,9999,9999,1183055936
83,7,20,Ticks_Linear_8,8,9999,9999,9999,1183865916
83,7,20,Ticks_Linear_8,9,9999,9999,9999,1184675932
83,7,20,Ticks_Linear_8,10,9999,9999,9999,1185475656
83,7,20,Ticks_Linear_8,11,9999,9999,9999,1186275456
83,7,20,Ticks_Linear_8,12,9999,9999,9999,1187075176
83,7,20,Ticks_Linear_8,13,9999,9999,9999,1187875940
83,7,20,Ticks_Linear_8,14,9999,9999,9999,1188675672
83,7,20,Ticks_Linear_8,15,9999,9999,9999,1189465212
83,7,20,Ticks_Linear_8,16,9999,9999,9999,1190255720
83,7,20,Ticks_Linear_8,17,9999,9999,9999,1191045204
83,7,20,Ticks_Linear_8,18,9999,9999,9999,1191835720
83,7,20,Ticks_Linear_8,19,9999,9999,9999,1192625260
83,7,20,Ticks_Linear_8,20,9999,9999,9999,1193405516
83,7,20,Ticks_Linear_8,21,9999,9999,9999,1194185836
83,7,20,Ticks_Linear_8,22,9999,9999,9999,1194966092
83,7,20,Ticks_Linear_8,23,9999,9999,9999,1195755628
83,7,20,Ticks_Linear_8,24,9999,9999,9999,1196535880
83,7,20,Ticks_Linear_8,25,9999,9999,9999,1197305960
83,7,20,Ticks_Linear_8,26,9999,9999,9999,1198076016
83,7,20,Ticks_Linear_8,27,9999,9999,9999,1198846080
83,7,20,Ticks_Linear_8,28,9999,9999,9999,1199616088
83,7,20,Ticks_Linear_8,29,9999,9999,9999,1200395356
83,7,20,Ticks_Linear_8,30,9999,9999,9999,1201155172
83,7,20,Ticks_Linear_8,31,9999,9999,9999,1201915956
83,7,20,Ticks_Linear_8,32,9999,9999,9999,1202675832
83,7,20,Ticks_Linear_8,33,9999,9999,9999,1203435644
83,7,20,Ticks_Linear_8,34,9999,9999,9999,1204195452
83,7,20,Ticks_Linear_8,35,9999,9999,9999,1204945976
83,7,20,Ticks_Linear_8,36,9999,9999,9999,1205695596
83,7,20,Ticks_Linear_8,37,9999,9999,9999,1206445148
83,7,20,Ticks_Linear_8,38,9999,9999,9999,1207195752
83,7,20,Ticks_Linear_8,39,9999,9999,9999,1207945300
83,7,20,Ticks_Linear_8,40,9999,9999,9999,1208685684
83,7,20,Ticks_Linear_8,41,9999,9999,9999,1209426024
83,7,20,Ticks_Linear_8,42,9999,9999,9999,1210165308
83,7,20,Ticks_Linear_8,43,9999,9999,9999,1210905724
83,7,20,Ticks_Linear_8,44,9999,9999,9999,1211646056
83,7,20,Ticks_Linear_8,45,9999,9999,9999,1212375164
83,7,20,Ticks_Linear_8,46,9999,9999,9999,1213105244
83,7,20,Ticks_Linear_8,47,9999,9999,9999,1213835328
83,7,20,Ticks_Linear_8,48,9999,9999,9999,1214565448
83,7,20,Ticks_Linear_8,49,9999,9999,9999,1215295608
83,7,20,Ticks_Linear_8,50,9999,9999,9999,1216015428
83,7,20,Ticks_Linear_8,51,9999,9999,9999,1216735320
83,7,20,Ticks_Linear_8,52,9999,9999,9999,1217455212
83,7,20,Ticks_Linear_8,53,9999,9999,9999,1218176128
83,7,20,Ticks_Linear_8,54,9999,9999,9999,1218905204
83,7,20,Ticks_Linear_8,55,9999,9999,9999,1219615816
83,7,20,Ticks_Linear_8,56,9999,9999,9999,1220325448
83,7,20,Ticks_Linear_8,57,9999,9999,9999,1221035092
83,7,20,Ticks_Linear_8,58,9999,9999,9999,1221745748
83,7,20,Ticks_Linear_8,59,9999,9999,9999,1222455380
83,7,20,Ticks_Linear_8,60,9999,9999,9999,1223155796
83,7,20,Ticks_Linear_8,61,9999,9999,9999,1223855180
83,7,20,Ticks_Linear_8,62,9999,9999,9999,1224555576
83,7,20,Ticks_Linear_8,63,9999,9999,9999,1225256000
83,7,20,Ticks_Linear_8,64,9999,9999,9999,1225955444
83,7,20,Ticks_Linear_8,65,9999,9999,9999,1226645604
83,7,20,Ticks_Linear_8,66,9999,9999,9999,1227335744
83,7,20,Ticks_Linear_8,67,9999,9999,9999,1228025916
83,7,20,Ticks_Linear_8,68,9999,9999,9999,1228715104
83,7,20,Ticks_Linear_8,69,9999,9999,9999,1229405244
83,7,20,Ticks_Linear_8,70,9999,9999,9999,1230085216
83,7,20,Ticks_Linear_8,71,9999,9999,9999,1230765120
83,7,20,Ticks_Linear_8,72,9999,9999,9999,1231446124
83,7,20,Ticks_Linear_8,73,9999,9999,9999,1232135244
83,7,20,Ticks_Linear_8,74,9999,9999,9999,1232815224
83,7,20,Ticks_Linear_8,75,9999,9999,9999,1233485892
83,7,20,Ticks_Linear_8,76,9999,9999,9999,1234155612
83,7,20,Ticks_Linear_8,77,9999,9999,9999,1234825320
83,7,20,Ticks_Linear_8,78,9999,9999,9999,1235495988
83,7,20,Ticks_Linear_8,79,9999,9999,9999,1236165708
83,7,20,Ticks_Linear_8,80,9999,9999,9999,1236825144
83,7,20,Ticks_Linear_8,81,9999,9999,9999,1237485652
83,7,20,Ticks_Linear_8,82,9999,9999,9999,1238145088
83,7,20,Ticks_Linear_8,83,9999,9999,9999,1238805600
83,7,20,Ticks_Linear_8,84,9999,9999,9999,1239466100
83,7,20,Ticks_Linear_8,85,9999,9999,9999,1240115276
83,7,20,Ticks_Linear_8,86,9999,9999,9999,1240765524
83,7,20,Ticks_Linear_8,87,9999,9999,9999,1241415748
83,7,20,Ticks_Linear_8,88,9999,9999,9999,1242065996
83,7,20,Ticks_Linear_8,89,9999,9999,9999,1242715208
83,7,20,Ticks_Linear_8,90,9999,9999,9999,1243355240
83,7,20,Ticks_Linear_8,91,9999,9999,9999,1243995204
83,7,20,Ticks_Linear_8,92,9999,9999,9999,1244635192
83,7,20,Ticks_Linear_8,93,9999,9999,9999,1245275224
83,7,20,Ticks_Linear_8,94,9999,9999,9999,1245915212
83,7,20,Ticks_Linear_8,95,9999,9999,9999,1246546048
83,7,20,Ticks_Linear_8,96,9999,9999,9999,1247175768
83,7,20,Ticks_Linear_8,97,9999,9999,9999,1247805556
83,7,20,Ticks_Linear_8,98,9999,9999,9999,1248435288
83,7,20,Ticks_Linear_8,99,9999,9999,9999,1249066040
83,7,20,Ticks_Linear_8,100,9999,9999,9999,1249685584
83,7,20,Ticks_Linear_8,101,9999,9999,9999,1250305104
83,7,20,Ticks_Linear_8,102,9999,9999,9999,1250925672
83,7,20,Ticks_Linear_8,103,9999,9999,9999,1251545144
83,7,20,Ticks_Linear_8,104,9999,9999,9999,1252165708
83,7,20,Ticks_Linear_8,105,9999,9999,9999,1252776036
83,7,20,Ticks_Linear_8,106,9999,9999,9999,1253385304
83,7,20,Ticks_Linear_8,107,9999,9999,9999,1253995612
83,7,20,Ticks_Linear_8,108,9999,9999,9999,1254605940
83,7,20,Ticks_Linear_8,109,9999,9999,9999,1255215208
83,7,20,Ticks_Linear_8,110,9999,9999,9999,1255815280
83,7,20,Ticks_Linear_8,111,9999,9999,9999,1256415324
83,7,20,Ticks_Linear_8,112,9999,9999,9999,1257015376
83,7,20,Ticks_Linear_8,113,9999,9999,9999,1257615452
83,7,20,Ticks_Linear_8,114,9999,9999,9999,1258215504
83,7,20,Ticks_Linear_8,115,9999,9999,9999,1258805364
83,7,20,Ticks_Linear_8,116,9999,9999,9999,1259395148
83,7,20,Ticks_Linear_8,117,9999,9999,9999,1259985988
83,7,20,Ticks_Linear_8,118,9999,9999,9999,1260575848
83,7,20,Ticks_Linear_8,119,9999,9999,9999,1261165644
83,7,20,Ticks_Linear_8,120,9999,9999,9999,1261745272
83,7,20,Ticks_Linear_8,121,9999,9999,9999,1262325852
83,7,20,Ticks_Linear_8,122,9999,9999,9999,1262905456
83,7,20,Ticks_Linear_8,123,9999,9999,9999,1263486028
83,7,20,Ticks_Linear_8,124,9999,9999,9999,1264065652
83,7,20,Ticks_Linear_8,125,9999,9999,9999,1264635972
83,7,20,Ticks_Linear_8,126,9999,9999,9999,1265205316
83,7,20,Ticks_Linear_8,127,9999,9999,9999,1265775708
83,7,20,Ticks_Linear_8,128,9999,9999,9999,1266346056
83,7,20,Ticks_Linear_8,129,9999,9999,9999,1266915404
83,7,20,Ticks_Linear_8,130,9999,9999,9999,1267475540
83,7,20,Ticks_Linear_8,131,9999,9999,9999,1268035672
83,7,20,Ticks_Linear_8,132,9999,9999,9999,1268595800
83,7,20,Ticks_Linear_8,133,9999,9999,9999,1269155956
83,7,20,Ticks_Linear_8,134,9999,9999,9999,1269716092
83,7,20,Ticks_Linear_8,135,9999,9999,9999,1270265972
83,7,20,Ticks_Linear_8,136,9999,9999,9999,1270815848
83,7,20,Ticks_Linear_8,137,9999,9999,9999,1271365720
83,7,20,Ticks_Linear_8,138,9999,9999,9999,1271915596
83,7,20,Ticks_Linear_8,139,9999,9999,9999,1272465488
83,7,20,Ticks_Linear_8,140,9999,9999,9999,1273005112
83,7,20,Ticks_Linear_8,141,9999,9999,9999,1273545848
83,7,20,Ticks_Linear_8,142,9999,9999,9999,1274085464
83,7,20,Ticks_Linear_8,143,9999,9999,9999,1274625148
83,7,20,Ticks_Linear_8,144,9999,9999,9999,1275165808
83,7,20,Ticks_Linear_8,145,9999,9999,9999,1275695164
83,7,20,Ticks_Linear_8,146,9999,9999,9999,1276225648
83,7,20,Ticks_Linear_8,147,9999,9999,9999,1276756048
83,7,20,Ticks_Linear_8,148,9999,9999,9999,1277285476
83,7,20,Ticks_Linear_8,149,9999,9999,9999,1277815880
83,7,20,Ticks_Linear_8,150,9999,9999,9999,1278336128
83,7,20,Ticks_Linear_8,151,9999,9999,9999,1278865484
83,7,20,Ticks_Linear_8,152,9999,9999,9999,1279385696
83,7,20,Ticks_Linear_8,153,9999,9999,9999,1279905916
83,7,20,Ticks_Linear_8,154,9999,9999,9999,1280426060
83,7,20,Ticks_Linear_8,155,9999,9999,9999,1280936028
83,7,20,Ticks_Linear_8,156,9999,9999,9999,1281445988
83,7,20,Ticks_Linear_8,157,9999,9999,9999,1281955944
83,7,20,Ticks_Linear_8,158,9999,9999,9999,1282465900
83,7,20,Ticks_Linear_8,159,9999,9999,9999,1282975860
83,7,20,Ticks_Linear_8,160,9999,9999,9999,1283475568
83,7,20,Ticks_Linear_8,161,9999,9999,9999,1283975268
83,7,20,Ticks_Linear_8,162,9999,9999,9999,1284475988
83,7,20,Ticks_Linear_8,163,9999,9999,9999,1284975688
83,7,20,Ticks_Linear_8,164,9999,9999,9999,1285475384
83,7,20,Ticks_Linear_8,165,9999,9999,9999,1285965908
83,7,20,Ticks_Linear_8,166,9999,9999,9999,1286455388
83,7,20,Ticks_Linear_8,167,9999,9999,9999,1286945876
83,7,20,Ticks_Linear_8,168,9999,9999,9999,1287435324
83,7,20,Ticks_Linear_8,169,9999,9999,9999,1287925884
83,8,21,Ticks_Linear_5,0,5,42,127,1296938432
83,8,21,Ticks_Linear_5,1,5,42,127,1297417636
83,8,21,Ticks_Linear_5,2,5,42,127,1297897736
83,8,21,Ticks_Linear_5,3,1,48,33,1297906176
83,8,21,Ticks_Linear_5,4,1,48,47,1298356124
83,8,21,Ticks_Linear_5,5,5,42,127,1298378256
83,8,21,Ticks_Linear_5,6,1,48,51,1298832752
83,8,21,Ticks_Linear_5,7,5,42,127,1298858260
83,8,21,Ticks_Linear_5,8,1,48,51,1299270200
83,8,21,Ticks_Linear_5,9,5,42,127,1299347852
83,8,21,Ticks_Linear_5,10,1,48,39,1299789000
83,8,21,Ticks_Linear_5,11,5,42,127,1299838240
83,8,21,Ticks_Linear_5,12,5,42,127,1300327660
83,8,21,Ticks_Linear_5,13,1,48,37,1300330252
83,8,21,Ticks_Linear_5,14,5,42,127,1300818296
83,8,21,Ticks_Linear_5,15,1,48,34,1300836320
83,8,21,Ticks_Linear_5,16,1,48,44,1301280500
83,8,21,Ticks_Linear_5,17,5,42,127,1301307656
83,8,21,Ticks_Linear_5,18,1,48,45,1301773388
83,8,21,Ticks_Linear_5,19,5,42,127,1301807432
83,8,21,Ticks_Linear_5,20,1,48,41,1302236328
83,8,21,Ticks_Linear_5,21,5,42,127,1302308328
83,8,21,Ticks_Linear_5,22,1,48,46,1302786276
83,8,21,Ticks_Linear_5,23,5,42,127,1302807952
83,8,21,Ticks_Linear_5,24,1,48,43,1303289264
83,8,21,Ticks_Linear_5,25,5,42,127,1303307580
83,8,21,Ticks_Linear_5,26,1,48,37,1303784384
83,8,21,Ticks_Linear_5,27,5,42,127,1303808252
83,8,21,Ticks_Linear_5,28,1,48,35,1304283040
83,8,21,Ticks_Linear_5,29,5,42,127,1304318356
83,8,21,Ticks_Linear_5,30,1,48,42,1304762296
83,8,21,Ticks_Linear_5,31,5,42,127,1304828244
83,8,21,Ticks_Linear_5,32,1,48,38,1305283188
83,8,21,Ticks_Linear_5,33,5,42,127,1305338128
83,8,21,Ticks_Linear_5,34,1,48,36,1305830968
83,8,21,Ticks_Linear_5,35,5,42,127,1305848236
83,8,21,Ticks_Linear_5,36,1,48,38,1306345192
83,8,21,Ticks_Linear_5,37,5,42,127,1306358124
83,8,21,Ticks_Linear_5,38,1,48,41,1306844068
83,8,21,Ticks_Linear_5,39,5,42,127,1306878192
83,8,21,Ticks_Linear_5,40,1,48,40,1307380924
83,8,21,Ticks_Linear_5,41,5,42,127,1307397364
83,8,21,Ticks_Linear_5,42,1,48,40,1307883164
83,8,21,Ticks_Linear_5,43,5,42,127,1307917660
83,8,21,Ticks_Linear_5,44,1,48,41,1308399564
83,8,21,Ticks_Linear_5,45,5,42,127,1308437876
83,8,21,Ticks_Linear_5,46,1,48,31,1308946000
83,8,21,Ticks_Linear_5,47,5,42,127,1308958020
83,8,21,Ticks_Linear_5,48,1,48,31,1309465684
83,8,21,Ticks_Linear_5,49,5,42,127,1309487452
83,8,21,Ticks_Linear_5,50,1,48,34,1309976852
83,8,21,Ticks_Linear_5,51,5,42,127,1310018000
83,8,21,Ticks_Linear_5,52,1,48,36,1310492492
83,8,21,Ticks_Linear_5,53,5,42,127,1310548332
83,8,21,Ticks_Linear_5,54,1,48,39,1311044088
83,8,21,Ticks_Linear_5,55,5,42,127,1311077688
83,8,21,Ticks_Linear_5,56,1,48,36,1311584076
83,8,21,Ticks_Linear_5,57,5,42,127,1311608164
83,8,21,Ticks_Linear_5,58,1,48,46,1312104440
83,8,21,Ticks_Linear_5,59,5,42,127,1312147952
83,8,21,Ticks_Linear_5,60,1,48,46,1312630960
83,8,21,Ticks_Linear_5,61,5,42,127,1312687344
83,8,21,Ticks_Linear_5,62,1,48,40,1313192388
83,8,21,Ticks_Linear_5,63,5,42,127,1313228152
83,8,21,Ticks_Linear_5,64,1,48,51,1313743908
83,8,21,Ticks_Linear_5,65,5,42,127,1313767844
83,8,21,Ticks_Linear_5,66,1,48,33,1314279856
83,8,21,Ticks_Linear_5,67,5,42,127,1314307532
83,8,21,Ticks_Linear_5,68,1,48,47,1314793632
83,8,21,Ticks_Linear_5,69,5,42,127,1314858304
83,8,21,Ticks_Linear_5,70,1,48,39,1315359912
83,8,21,Ticks_Linear_5,71,5,42,127,1315408256
83,8,21,Ticks_Linear_5,72,1,48,43,1315948056
83,8,21,Ticks_Linear_5,73,5,42,127,1315958056
83,8,21,Ticks_Linear_5,74,5,42,127,1316507964
83,8,21,Ticks_Linear_5,75,1,48,44,1316510480
83,8,21,Ticks_Linear_5,76,5,42,127,1317057912
83,8,21,Ticks_Linear_5,77,1,48,46,1317075624
83,8,21,Ticks_Linear_5,78,1,48,45,1317598900
83,8,21,Ticks_Linear_5,79,5,42,127,1317618036
83,8,21,Ticks_Linear_5,80,5,42,127,1318178104
83,8,21,Ticks_Linear_5,81,1,48,47,1318195064
83,8,21,Ticks_Linear_5,82,5,42,127,1318738232
83,8,21,Ticks_Linear_5,83,1,48,40,1318768540
83,8,21,Ticks_Linear_5,84,1,48,41,1319289336
83,8,21,Ticks_Linear_5,85,5,42,127,1319298608
83,8,21,Ticks_Linear_5,86,1,48,40,1319839084
83,8,21,Ticks_Linear_5,87,5,42,127,1319867732
83,8,21,Ticks_Linear_5,88,1,48,43,1320403480
83,8,21,Ticks_Linear_5,89,5,42,127,1320438124
83,8,21,Ticks_Linear_5,90,1,48,43,1320967296
83,8,21,Ticks_Linear_5,91,5,42,127,1321007768
83,8,21,Ticks_Linear_5,92,5,42,127,1321577868
83,8,21,Ticks_Linear_5,93,1,48,34,1321579504
83,8,21,Ticks_Linear_5,94,1,48,38,1322140976
83,8,21,Ticks_Linear_5,95,5,42,127,1322148132
83,8,21,Ticks_Linear_5,96,5,42,127,1322717708
83,8,21,Ticks_Linear_5,97,1,48,38,1322752648
83,8,21,Ticks_Linear_5,98,1,48,42,1323259224
83,8,21,Ticks_Linear_5,99,5,42,127,1323298056
83,8,21,Ticks_Linear_5,100,1,48,30,1323866688
83,8,21,Ticks_Linear_5,101,5,42,127,1323877736
83,8,21,Ticks_Linear_5,102,1,48,27,1324452004
83,8,21,Ticks_Linear_5,103,5,42,127,1324458560
83,8,21,Ticks_Linear_5,104,1,48,34,1324995576
83,8,21,Ticks_Linear_5,105,5,42,127,1325038016
83,8,21,Ticks_Linear_5,106,1,48,29,1325595704
83,8,21,Ticks_Linear_5,107,5,42,127,1325617620
83,8,21,Ticks_Linear_5,108,5,42,127,1326208316
83,8,21,Ticks_Linear_5,109,1,48,41,1326210908
83,8,21,Ticks_Linear_5,110,1,48,45,1326782776
83,8,21,Ticks_Linear_5,111,5,42,127,1326798248
83,8,21,Ticks_Linear_5,112,1,48,49,1327364624
83,8,21,Ticks_Linear_5,113,5,42,127,1327387964
83,8,21,Ticks_Linear_5,114,1,48,38,1327951572
83,8,21,Ticks_Linear_5,115,5,42,127,1327977904
83,8,21,Ticks_Linear_5,116,1,48,49,1328509932
83,8,21,Ticks_Linear_5,117,5,42,127,1328567568
83,8,21,Ticks_Linear_5,118,1,48,47,1329103240
83,8,21,Ticks_Linear_5,119,5,42,127,1329167616
83,8,21,Ticks_Linear_5,120,1,48,35,1329753684
83,8,21,Ticks_Linear_5,121,5,42,127,1329767736
83,8,21,Ticks_Linear_5,122,5,42,127,1330367744
83,8,21,Ticks_Linear_5,123,1,48,42,1330388312
83,8,21,Ticks_Linear_5,124,5,42,127,1330967792
83,8,21,Ticks_Linear_5,125,1,48,38,1330995556
83,8,21,Ticks_Linear_5,126,1,48,42,1331516344
83,8,21,Ticks_Linear_5,127,5,42,127,1331567984
83,8,21,Ticks_Linear_5,128,1,48,46,1332127280
83,8,21,Ticks_Linear_5,129,5,42,127,1332178540
83,8,21,Ticks_Linear_5,130,1,48,44,1332739608
83,8,21,Ticks_Linear_5,131,5,42,127,1332787504
83,8,21,Ticks_Linear_5,132,1,48,40,1333366616
83,8,21,Ticks_Linear_5,133,5,42,127,1333397832
83,8,21,Ticks_Linear_5,134,1,48,30,1333981960
83,8,21,Ticks_Linear_5,135,5,42,127,1334008364
83,8,21,Ticks_Linear_5,136,1,48,38,1334611740
83,8,21,Ticks_Linear_5,137,5,42,127,1334617476
83,8,21,Ticks_Linear_5,138,1,48,33,1335181260
83,8,21,Ticks_Linear_5,139,5,42,127,1335238068
83,8,21,Ticks_Linear_5,140,1,48,42,1335794184
83,8,21,Ticks_Linear_5,141,5,42,127,1335857440
83,8,21,Ticks_Linear_5,142,1,48,40,1336427196
83,8,21,Ticks_Linear_5,143,5,42,127,1336478180
83,8,21,Ticks_Linear_5,144,1,48,34,1337069424
83,8,21,Ticks_Linear_5,145,5,42,127,1337097700
83,8,21,Ticks_Linear_5,146,1,48,43,1337664000
83,8,21,Ticks_Linear_5,147,5,42,127,1337718116
83,8,21,Ticks_Linear_5,148,1,48,43,1338301528
83,8,21,Ticks_Linear_5,149,5,42,127,1338347848
83,8,21,Ticks_Linear_5,150,1,48,37,1338977488
83,8,21,Ticks_Linear_5,151,5,42,127,1338978896
83,8,21,Ticks_Linear_5,152,5,42,127,1339608336
83,8,21,Ticks_Linear_5,153,1,48,40,1339624628
83,8,21,Ticks_Linear_5,154,5,42,127,1340248520
83,8,21,Ticks_Linear_5,155,1,48,42,1340267372
83,8,21,Ticks_Linear_5,156,1,48,41,1340859708
83,8,21,Ticks_Linear_5,157,5,42,127,1340888356
83,8,21,Ticks_Linear_5,158,1,48,43,1341502436
83,8,21,Ticks_Linear_5,159,5,42,127,1341528392
83,8,21,Ticks_Linear_5,160,1,48,44,1342132616
83,8,21,Ticks_Linear_5,161,5,42,127,1342168308
83,8,21,Ticks_Linear_5,162,1,48,41,1342746676
83,8,21,Ticks_Linear_5,163,5,42,127,1342808416
83,8,21,Ticks_Linear_5,164,1,48,37,1343418260
83,8,21,Ticks_Linear_5,165,5,42,127,1343448408
83,8,21,Ticks_Linear_5,166,1,48,38,1344040548
83,8,21,Ticks_Linear_5,167,5,42,127,1344088444
83,8,21,Ticks_Linear_5,168,1,48,37,1344704796
83,8,21,Ticks_Linear_5,169,5,42,127,1344747904
83,8,21,Ticks_Linear_5,170,1,48,47,1345328064
83,8,21,Ticks_Linear_5,171,5,42,127,1345398276
83,8,21,Ticks_Linear_5,172,1,48,44,1346014776
83,8,21,Ticks_Linear_5,173,5,42,127,1346048300
83,8,21,Ticks_Linear_5,174,1,48,45,1346677144
83,8,21,Ticks_Linear_5,175,5,42,127,1346697648
83,8,21,Ticks_Linear_5,176,1,48,40,1347292108
83,8,21,Ticks_Linear_5,177,5,42,127,1347347724
83,8,21,Ticks_Linear_5,178,1,48,44,1347934844
83,8,21,Ticks_Linear_5,179,5,42,127,1348008456
83,8,21,Ticks_Linear_5,180,1,48,40,1348635560
83,8,21,Ticks_Linear_5,181,5,42,127,1348667888
83,8,21,Ticks_Linear_5,182,1,48,42,1349323108
83,8,21,Ticks_Linear_5,183,5,42,127,1349328392
83,8,21,Ticks_Linear_5,184,5,42,127,1349987688
83,8,21,Ticks_Linear_5,185,1,48,39,1350031424
83,8,21,Ticks_Linear_5,186,1,48,40,1350643124
83,8,21,Ticks_Linear_5,187,5,42,127,1350648412
83,8,21,Ticks_Linear_5,188,1,48,49,1351291628
83,8,21,Ticks_Linear_5,189,5,42,127,1351317808
83,8,21,Ticks_Linear_5,190,1,48,43,1351952560
83,8,21,Ticks_Linear_5,191,5,42,127,1351987576
83,8,21,Ticks_Linear_5,192,1,48,33,1352651112
83,8,21,Ticks_Linear_5,193,5,42,127,1352658268
83,8,21,Ticks_Linear_5,194,5,42,127,1353328264
83,8,21,Ticks_Linear_5,195,1,48,30,1353335420
83,8,21,Ticks_Linear_5,196,1,48,35,1353983628
83,8,21,Ticks_Linear_5,197,5,42,127,1353997756
83,8,21,Ticks_Linear_5,198,1,48,41,1354649012
83,8,21,Ticks_Linear_5,199,5,42,127,1354677584
83,8,21,Ticks_Linear_5,200,1,48,30,1355299308
83,8,21,Ticks_Linear_5,201,5,42,127,1355357688
83,8,21,Ticks_Linear_5,202,5,42,127,1356037376
83,8,21,Ticks_Linear_5,203,1,48,26,1356070592
83,8,21,Ticks_Linear_5,204,5,42,127,1356717576
83,8,21,Ticks_Linear_5,205,1,48,33,1356722636
83,8,21,Ticks_Linear_5,206,1,48,42,1357377564
83,8,21,Ticks_Linear_5,207,5,42,127,1357398344
83,8,21,Ticks_Linear_5,208,1,48,44,1358039340
83,8,21,Ticks_Linear_5,209,5,42,127,1358087532
83,8,21,Ticks_Linear_5,210,1,48,35,1358760876
83,8,21,Ticks_Linear_5,211,5,42,127,1358777696
83,8,21,Ticks_Linear_5,212,1,48,39,1359436268
83,8,21,Ticks_Linear_5,213,5,42,127,1359468056
83,8,21,Ticks_Linear_5,214,1,48,33,1360149944
83,8,21,Ticks_Linear_5,215,5,42,127,1360158296
83,8,21,Ticks_Linear_5,216,1,48,30,1360818160
83,8,21,Ticks_Linear_5,217,5,42,127,1360848232
83,8,21,Ticks_Linear_5,218,1,48,37,1361490108
83,8,21,Ticks_Linear_5,219,5,42,127,1361547536
83,8,21,Ticks_Linear_5,220,1,48,37,1362243992
83,8,21,Ticks_Linear_5,221,5,42,127,1362248080
83,8,21,Ticks_Linear_5,222,5,42,127,1362947464
83,8,21,Ticks_Linear_5,223,1,48,37,1362948504
83,8,21,Ticks_Linear_5,224,5,42,127,1363648036
83,8,21,Ticks_Linear_5,225,1,48,40,1363653772
83,8,21,Ticks_Linear_5,226,1,48,38,1364347480
83,8,21,Ticks_Linear_5,227,5,42,127,1364349048
83,8,21,Ticks_Linear_5,228,5,42,127,1365057844
83,8,21,Ticks_Linear_5,229,1,48,44,1365111284
83,8,21,Ticks_Linear_5,230,1,48,40,1365747136
83,8,21,Ticks_Linear_5,231,5,42,127,1365767692
83,8,21,Ticks_Linear_5,232,1,48,38,1366466132
83,8,21,Ticks_Linear_5,233,5,42,127,1366478228
83,8,21,Ticks_Linear_5,234,5,42,127,1367187868
83,8,21,Ticks_Linear_5,235,1,48,44,1367200420
83,8,21,Ticks_Linear_5,236,1,48,22,1367896196
83,8,21,Ticks_Linear_5,237,5,42,127,1367897768
83,8,21,Ticks_Linear_5,238,1,48,41,1368592376
83,8,21,Ticks_Linear_5,239,5,42,127,1368618336
83,8,21,Ticks_Linear_5,240,1,48,42,1369267648
83,8,21,Ticks_Linear_5,241,5,42,127,1369338152
83,8,21,Ticks_Linear_5,242,1,48,43,1370024896
83,8,21,Ticks_Linear_5,243,5,42,127,1370058120
83,8,21,Ticks_Linear_5,244,1,48,48,1370730092
83,8,21,Ticks_Linear_5,245,5,42,127,1370777940
83,8,21,Ticks_Linear_5,246,1,48,40,1371422728
83,8,21,Ticks_Linear_5,247,5,42,127,1371497956
83,8,21,Ticks_Linear_5,248,1,48,38,1372215868
83,8,21,Ticks_Linear_5,249,5,42,127,1372227960
83,8,21,Ticks_Linear_5,250,1,48,23,1372938832
83,8,21,Ticks_Linear_5,251,5,42,127,1372958116
83,8,21,Ticks_Linear_5,252,1,48,57,1373634828
83,8,21,Ticks_Linear_5,253,5,42,127,1373688120
83,8,21,Ticks_Linear_5,254,5,42,127,1374418280
83,8,21,Ticks_Linear_5,255,1,48,50,1374423788
83,8,21,Ticks_Linear_5,256,1,48,57,1375126972
83,8,21,Ticks_Linear_5,257,5,42,127,1375148500
83,8,21,Ticks_Linear_5,258,1,48,54,1375814028
83,8,21,Ticks_Linear_5,259,5,42,127,1375887864
83,8,21,Ticks_Linear_5,260,1,48,44,1376586956
83,8,21,Ticks_Linear_5,261,5,42,127,1376627952
83,8,21,Ticks_Linear_5,262,1,48,51,1377355896
83,8,21,Ticks_Linear_5,263,5,42,127,1377368588
83,8,21,Ticks_Linear_5,264,1,48,48,1378074732
83,8,21,Ticks_Linear_5,265,5,42,127,1378118212
83,8,21,Ticks_Linear_5,266,1,48,54,1378831320
83,8,21,Ticks_Linear_5,267,5,42,127,1378858328
83,8,21,Ticks_Linear_5,268,5,42,127,1379607808
83,8,21,Ticks_Linear_5,269,1,48,54,1379658704
83,8,21,Ticks_Linear_5,270,1,48,44,1380321436
83,8,21,Ticks_Linear_5,271,5,42,127,1380357572
83,8,21,Ticks_Linear_5,272,1,48,57,1381054728
83,8,21,Ticks_Linear_5,273,5,42,127,1381108024
83,8,21,Ticks_Linear_5,274,1,48,46,1381851084
83,8,21,Ticks_Linear_5,275,5,42,127,1381857644
83,8,21,Ticks_Linear_5,276,1,48,49,1382580268
83,8,21,Ticks_Linear_5,277,5,42,127,1382608464
83,8,21,Ticks_Linear_5,278,1,48,41,1383367684
83,8,21,Ticks_Linear_5,279,5,42,127,1383369172
83,8,21,Ticks_Linear_5,280,5,42,127,1384128016
83,8,21,Ticks_Linear_5,281,1,48,48,1384128908
83,8,21,Ticks_Linear_5,282,1,48,25,1384239404
83,8,21,Ticks_Linear_5,283,5,42,127,1384887804
83,8,21,Ticks_Linear_5,284,1,48,45,1384974640
83,8,21,Ticks_Linear_5,285,1,48,44,1385576396
83,8,21,Ticks_Linear_5,286,5,42,127,1385647680
83,8,21,Ticks_Linear_5,287,1,48,48,1386361808
83,8,21,Ticks_Linear_5,288,5,42,127,1386408212
83,8,21,Ticks_Linear_5,289,5,42,127,1387178588
83,8,21,Ticks_Linear_5,290,1,48,36,1387194584
83,8,21,Ticks_Linear_5,291,1,48,38,1387938572
83,8,21,Ticks_Linear_5,292,5,42,127,1387948572
83,8,21,Ticks_Linear_5,293,1,48,46,1388687000
83,8,21,Ticks_Linear_5,294,5,42,127,1388717520
83,8,21,Ticks_Linear_5,295,5,42,127,1389487668
83,8,21,Ticks_Linear_5,296,1,48,47,1389502544
83,8,21,Ticks_Linear_5,297,5,42,127,1390257664
83,8,21,Ticks_Linear_5,298,1,48,26,1390293352
83,8,21,Ticks_Linear_5,299,1,48,39,1390986276
83,8,21,Ticks_Linear_5,300,5,42,127,1391037760
83,8,21,Ticks_Linear_5,301,1,48,43,1391747280
83,8,21,Ticks_Linear_5,302,5,42,127,1391818084
83,8,21,Ticks_Linear_5,303,1,48,34,1392579948
83,8,21,Ticks_Linear_5,304,5,42,127,1392598636
83,8,21,Ticks_Linear_5,305,1,48,36,1393355400
83,8,21,Ticks_Linear_5,306,5,42,127,1393377544
83,8,21,Ticks_Linear_5,307,1,48,27,1394156976
83,8,21,Ticks_Linear_5,308,5,42,127,1394158696
83,8,21,Ticks_Linear_5,309,1,48,43,1394945976
83,8,21,Ticks_Linear_5,310,5,42,127,1394947560
83,8,21,Ticks_Linear_5,311,1,48,47,1395679544
83,8,21,Ticks_Linear_5,312,5,42,127,1395737920
83,8,21,Ticks_Linear_5,313,1,48,24,1395747468
83,8,21,Ticks_Linear_5,314,1,48,31,1396511368
83,8,21,Ticks_Linear_5,315,5,42,127,1396527512
83,8,21,Ticks_Linear_5,316,1,48,19,1397290572
83,8,21,Ticks_Linear_5,317,5,42,127,1397317948
83,8,21,Ticks_Linear_5,318,1,48,35,1398064976
83,8,21,Ticks_Linear_5,319,5,42,127,1398107492
83,8,21,Ticks_Linear_5,320,1,48,36,1398793264
83,8,21,Ticks_Linear_5,321,5,42,127,1398908420
83,8,21,Ticks_Linear_5,322,5,42,127,1399708164
83,8,21,Ticks_Linear_5,323,1,48,39,1399717652
83,8,21,Ticks_Linear_5,324,1,48,41,1400453688
83,8,21,Ticks_Linear_5,325,5,42,127,1400507880
83,8,21,Ticks_Linear_5,326,1,48,40,1401303660
83,8,21,Ticks_Linear_5,327,5,42,127,1401307380
83,8,21,Ticks_Linear_5,328,1,48,43,1402103756
83,8,21,Ticks_Linear_5,329,5,42,127,1402108448
83,8,21,Ticks_Linear_5,330,1,48,40,1402898624
83,8,21,Ticks_Linear_5,331,5,42,127,1402918208
83,8,21,Ticks_Linear_5,332,1,48,34,1403674596
83,8,21,Ticks_Linear_5,333,5,42,127,1403728340
83,8,21,Ticks_Linear_5,334,1,48,41,1404510124
83,8,21,Ticks_Linear_5,335,5,42,127,1404538276
83,8,21,Ticks_Linear_5,336,5,42,127,1405348264
83,8,21,Ticks_Linear_5,337,1,48,40,1405375952
83,8,21,Ticks_Linear_5,338,5,42,127,1406158248
83,8,21,Ticks_Linear_5,0,9999,9999,9999,1296936056
83,8,21,Ticks_Linear_5,1,9999,9999,9999,1297415260
83,8,21,Ticks_Linear_5,2,9999,9999,9999,1297895512
83,8,21,Ticks_Linear_5,3,9999,9999,9999,1298375808
83,8,21,Ticks_Linear_5,4,9999,9999,9999,1298856036
83,8,21,Ticks_Linear_5,5,9999,9999,9999,1299345476
83,8,21,Ticks_Linear_5,6,9999,9999,9999,1299836016
83,8,21,Ticks_Linear_5,7,9999,9999,9999,1300325436
83,8,21,Ticks_Linear_5,8,9999,9999,9999,1300815996
83,8,21,Ticks_Linear_5,9,9999,9999,9999,1301305428
83,8,21,Ticks_Linear_5,10,9999,9999,9999,1301805132
83,8,21,Ticks_Linear_5,11,9999,9999,9999,1302305876
83,8,21,Ticks_Linear_5,12,9999,9999,9999,1302805576
83,8,21,Ticks_Linear_5,13,9999,9999,9999,1303305276
83,8,21,Ticks_Linear_5,14,9999,9999,9999,1303806024
83,8,21,Ticks_Linear_5,15,9999,9999,9999,1304315984
83,8,21,Ticks_Linear_5,16,9999,9999,9999,1304825944
83,8,21,Ticks_Linear_5,17,9999,9999,9999,1305335900
83,8,21,Ticks_Linear_5,18,9999,9999,9999,1305845860
83,8,21,Ticks_Linear_5,19,9999,9999,9999,1306355820
83,8,21,Ticks_Linear_5,20,9999,9999,9999,1306875964
83,8,21,Ticks_Linear_5,21,9999,9999,9999,1307395140
83,8,21,Ticks_Linear_5,22,9999,9999,9999,1307915360
83,8,21,Ticks_Linear_5,23,9999,9999,9999,1308435576
83,8,21,Ticks_Linear_5,24,9999,9999,9999,1308955720
83,8,21,Ticks_Linear_5,25,9999,9999,9999,1309485152
83,8,21,Ticks_Linear_5,26,9999,9999,9999,1310015552
83,8,21,Ticks_Linear_5,27,9999,9999,9999,1310546028
83,8,21,Ticks_Linear_5,28,9999,9999,9999,1311075388
83,8,21,Ticks_Linear_5,29,9999,9999,9999,1311605864
83,8,21,Ticks_Linear_5,30,9999,9999,9999,1312145504
83,8,21,Ticks_Linear_5,31,9999,9999,9999,1312685116
83,8,21,Ticks_Linear_5,32,9999,9999,9999,1313225852
83,8,21,Ticks_Linear_5,33,9999,9999,9999,1313765468
83,8,21,Ticks_Linear_5,34,9999,9999,9999,1314305084
83,8,21,Ticks_Linear_5,35,9999,9999,9999,1314856004
83,8,21,Ticks_Linear_5,36,9999,9999,9999,1315405880
83,8,21,Ticks_Linear_5,37,9999,9999,9999,1315955828
83,8,21,Ticks_Linear_5,38,9999,9999,9999,1316505660
83,8,21,Ticks_Linear_5,39,9999,9999,9999,1317055608
83,8,21,Ticks_Linear_5,40,9999,9999,9999,1317615736
83,8,21,Ticks_Linear_5,41,9999,9999,9999,1318175800
83,8,21,Ticks_Linear_5,42,9999,9999,9999,1318735932
83,8,21,Ticks_Linear_5,43,9999,9999,9999,1319296088
83,8,21,Ticks_Linear_5,44,9999,9999,9999,1319865432
83,8,21,Ticks_Linear_5,45,9999,9999,9999,1320435824
83,8,21,Ticks_Linear_5,46,9999,9999,9999,1321005172
83,8,21,Ticks_Linear_5,47,9999,9999,9999,1321575496
83,8,21,Ticks_Linear_5,48,9999,9999,9999,1322145904
83,8,21,Ticks_Linear_5,49,9999,9999,9999,1322715256
83,8,21,Ticks_Linear_5,50,9999,9999,9999,1323295828
83,8,21,Ticks_Linear_5,51,9999,9999,9999,1323875436
83,8,21,Ticks_Linear_5,52,9999,9999,9999,1324456036
83,8,21,Ticks_Linear_5,53,9999,9999,9999,1325035640
83,8,21,Ticks_Linear_5,54,9999,9999,9999,1325615172
83,8,21,Ticks_Linear_5,55,9999,9999,9999,1326206016
83,8,21,Ticks_Linear_5,56,9999,9999,9999,1326795872
83,8,21,Ticks_Linear_5,57,9999,9999,9999,1327385664
83,8,21,Ticks_Linear_5,58,9999,9999,9999,1327975528
83,8,21,Ticks_Linear_5,59,9999,9999,9999,1328565340
83,8,21,Ticks_Linear_5,60,9999,9999,9999,1329165388
83,8,21,Ticks_Linear_5,61,9999,9999,9999,1329765436
83,8,21,Ticks_Linear_5,62,9999,9999,9999,1330365516
83,8,21,Ticks_Linear_5,63,9999,9999,9999,1330965564
83,8,21,Ticks_Linear_5,64,9999,9999,9999,1331565680
83,8,21,Ticks_Linear_5,65,9999,9999,9999,1332175940
83,8,21,Ticks_Linear_5,66,9999,9999,9999,1332785276
83,8,21,Ticks_Linear_5,67,9999,9999,9999,1333395532
83,8,21,Ticks_Linear_5,68,9999,9999,9999,1334005840
83,8,21,Ticks_Linear_5,69,9999,9999,9999,1334615100
83,8,21,Ticks_Linear_5,70,9999,9999,9999,1335235696
83,8,21,Ticks_Linear_5,71,9999,9999,9999,1335855212
83,8,21,Ticks_Linear_5,72,9999,9999,9999,1336475732
83,8,21,Ticks_Linear_5,73,9999,9999,9999,1337095248
83,8,21,Ticks_Linear_5,74,9999,9999,9999,1337715816
83,8,21,Ticks_Linear_5,75,9999,9999,9999,1338345548
83,8,21,Ticks_Linear_5,76,9999,9999,9999,1338975332
83,8,21,Ticks_Linear_5,77,9999,9999,9999,1339606112
83,8,21,Ticks_Linear_5,78,9999,9999,9999,1340246072
83,8,21,Ticks_Linear_5,79,9999,9999,9999,1340886132
83,8,21,Ticks_Linear_5,80,9999,9999,9999,1341526096
83,8,21,Ticks_Linear_5,81,9999,9999,9999,1342166084
83,8,21,Ticks_Linear_5,82,9999,9999,9999,1342806120
83,8,21,Ticks_Linear_5,83,9999,9999,9999,1343446108
83,8,21,Ticks_Linear_5,84,9999,9999,9999,1344086144
83,8,21,Ticks_Linear_5,85,9999,9999,9999,1344745528
83,8,21,Ticks_Linear_5,86,9999,9999,9999,1345395828
83,8,21,Ticks_Linear_5,87,9999,9999,9999,1346046072
83,8,21,Ticks_Linear_5,88,9999,9999,9999,1346695272
83,8,21,Ticks_Linear_5,89,9999,9999,9999,1347345496
83,8,21,Ticks_Linear_5,90,9999,9999,9999,1348006004
83,8,21,Ticks_Linear_5,91,9999,9999,9999,1348665440
83,8,21,Ticks_Linear_5,92,9999,9999,9999,1349325944
83,8,21,Ticks_Linear_5,93,9999,9999,9999,1349985388
83,8,21,Ticks_Linear_5,94,9999,9999,9999,1350645812
83,8,21,Ticks_Linear_5,95,9999,9999,9999,1351315584
83,8,21,Ticks_Linear_5,96,9999,9999,9999,1351985276
83,8,21,Ticks_Linear_5,97,9999,9999,9999,1352655968
83,8,21,Ticks_Linear_5,98,9999,9999,9999,1353325664
83,8,21,Ticks_Linear_5,99,9999,9999,9999,1353995380
83,8,21,Ticks_Linear_5,100,9999,9999,9999,1354675284
83,8,21,Ticks_Linear_5,101,9999,9999,9999,1355355236
83,8,21,Ticks_Linear_5,102,9999,9999,9999,1356035148
83,8,21,Ticks_Linear_5,103,9999,9999,9999,1356715124
83,8,21,Ticks_Linear_5,104,9999,9999,9999,1357396044
83,8,21,Ticks_Linear_5,105,9999,9999,9999,1358085232
83,8,21,Ticks_Linear_5,106,9999,9999,9999,1358775396
83,8,21,Ticks_Linear_5,107,9999,9999,9999,1359465536
83,8,21,Ticks_Linear_5,108,9999,9999,9999,1360155772
83,8,21,Ticks_Linear_5,109,9999,9999,9999,1360845932
83,8,21,Ticks_Linear_5,110,9999,9999,9999,1361545308
83,8,21,Ticks_Linear_5,111,9999,9999,9999,1362245708
83,8,21,Ticks_Linear_5,112,9999,9999,9999,1362945088
83,8,21,Ticks_Linear_5,113,9999,9999,9999,1363645512
83,8,21,Ticks_Linear_5,114,9999,9999,9999,1364345980
83,8,21,Ticks_Linear_5,115,9999,9999,9999,1365055540
83,8,21,Ticks_Linear_5,116,9999,9999,9999,1365765244
83,8,21,Ticks_Linear_5,117,9999,9999,9999,1366475852
83,8,21,Ticks_Linear_5,118,9999,9999,9999,1367185492
83,8,21,Ticks_Linear_5,119,9999,9999,9999,1367895100
83,8,21,Ticks_Linear_5,120,9999,9999,9999,1368616036
83,8,21,Ticks_Linear_5,121,9999,9999,9999,1369335928
83,8,21,Ticks_Linear_5,122,9999,9999,9999,1370055748
83,8,21,Ticks_Linear_5,123,9999,9999,9999,1370775640
83,8,21,Ticks_Linear_5,124,9999,9999,9999,1371495508
83,8,21,Ticks_Linear_5,125,9999,9999,9999,1372225660
83,8,21,Ticks_Linear_5,126,9999,9999,9999,1372955740
83,8,21,Ticks_Linear_5,127,9999,9999,9999,1373685820
83,8,21,Ticks_Linear_5,128,9999,9999,9999,1374415980
83,8,21,Ticks_Linear_5,129,9999,9999,9999,1375146052
83,8,21,Ticks_Linear_5,130,9999,9999,9999,1375885416
83,8,21,Ticks_Linear_5,131,9999,9999,9999,1376625728
83,8,21,Ticks_Linear_5,132,9999,9999,9999,1377366140
83,8,21,Ticks_Linear_5,133,9999,9999,9999,1378115688
83,8,21,Ticks_Linear_5,134,9999,9999,9999,1378856024
83,8,21,Ticks_Linear_5,135,9999,9999,9999,1379605580
83,8,21,Ticks_Linear_5,136,9999,9999,9999,1380355200
83,8,21,Ticks_Linear_5,137,9999,9999,9999,1381105720
83,8,21,Ticks_Linear_5,138,9999,9999,9999,1381855344
83,8,21,Ticks_Linear_5,139,9999,9999,9999,1382605940
83,8,21,Ticks_Linear_5,140,9999,9999,9999,1383365756
83,8,21,Ticks_Linear_5,141,9999,9999,9999,1384125564
83,8,21,Ticks_Linear_5,142,9999,9999,9999,1384885352
83,8,21,Ticks_Linear_5,143,9999,9999,9999,1385645156
83,8,21,Ticks_Linear_5,144,9999,9999,9999,1386405984
83,8,21,Ticks_Linear_5,145,9999,9999,9999,1387176060
83,8,21,Ticks_Linear_5,146,9999,9999,9999,1387946048
83,8,21,Ticks_Linear_5,147,9999,9999,9999,1388715068
83,8,21,Ticks_Linear_5,148,9999,9999,9999,1389485144
83,8,21,Ticks_Linear_5,149,9999,9999,9999,1390255212
83,8,21,Ticks_Linear_5,150,9999,9999,9999,1391035460
83,8,21,Ticks_Linear_5,151,9999,9999,9999,1391815784
83,8,21,Ticks_Linear_5,152,9999,9999,9999,1392596036
83,8,21,Ticks_Linear_5,153,9999,9999,9999,1393375316
83,8,21,Ticks_Linear_5,154,9999,9999,9999,1394155576
83,8,21,Ticks_Linear_5,155,9999,9999,9999,1394945116
83,8,21,Ticks_Linear_5,156,9999,9999,9999,1395735620
83,8,21,Ticks_Linear_5,157,9999,9999,9999,1396525136
83,8,21,Ticks_Linear_5,158,9999,9999,9999,1397315648
83,8,21,Ticks_Linear_5,159,9999,9999,9999,1398105188
83,8,21,Ticks_Linear_5,160,9999,9999,9999,1398905968
83,8,21,Ticks_Linear_5,161,9999,9999,9999,1399705712
83,8,21,Ticks_Linear_5,162,9999,9999,9999,1400505432
83,8,21,Ticks_Linear_5,163,9999,9999,9999,1401305156
83,8,21,Ticks_Linear_5,164,9999,9999,9999,1402105924
83,8,21,Ticks_Linear_5,165,9999,9999,9999,1402915908
83,8,21,Ticks_Linear_5,166,9999,9999,9999,1403725888
83,8,21,Ticks_Linear_5,167,9999,9999,9999,1404535876
83,8,21,Ticks_Linear_5,168,9999,9999,9999,1405345888
83,8,21,Ticks_Linear_5,169,9999,9999,9999,1406155872
83,9,9,Ticks_ISO_T2_8,0,5,42,127,1416183084
83,9,9,Ticks_ISO_T2_8,1,1,48,19,1416825948
83,9,9,Ticks_ISO_T2_8,2,5,42,127,1416983040
83,9,9,Ticks_ISO_T2_8,3,1,48,26,1417766824
83,9,9,Ticks_ISO_T2_8,4,5,42,127,1417782568
83,9,9,Ticks_ISO_T2_8,5,1,48,28,1418564620
83,9,9,Ticks_ISO_T2_8,6,5,42,127,1418583276
83,9,9,Ticks_ISO_T2_8,7,1,48,27,1419346916
83,9,9,Ticks_ISO_T2_8,8,5,42,127,1419383080
83,9,9,Ticks_ISO_T2_8,9,1,48,30,1420182320
83,9,9,Ticks_ISO_T2_8,10,5,42,127,1420183812
83,9,9,Ticks_ISO_T2_8,11,5,42,127,1420982508
83,9,9,Ticks_ISO_T2_8,12,1,48,33,1421002380
83,9,9,Ticks_ISO_T2_8,13,1,48,35,1421771724
83,9,9,Ticks_ISO_T2_8,14,5,42,127,1421783356
83,9,9,Ticks_ISO_T2_8,15,1,48,36,1422569668
83,9,9,Ticks_ISO_T2_8,16,5,42,127,1422583088
83,9,9,Ticks_ISO_T2_8,17,1,48,35,1423351972
83,9,9,Ticks_ISO_T2_8,18,5,42,127,1423382968
83,9,9,Ticks_ISO_T2_8,19,1,48,37,1424177660
83,9,9,Ticks_ISO_T2_8,20,5,42,127,1424182628
83,9,9,Ticks_ISO_T2_8,21,1,48,39,1424970064
83,9,9,Ticks_ISO_T2_8,22,5,42,127,1424983484
83,9,9,Ticks_ISO_T2_8,23,5,42,127,1425783000
83,9,9,Ticks_ISO_T2_8,24,1,48,36,1425798340
83,9,9,Ticks_ISO_T2_8,25,1,48,36,1426549936
83,9,9,Ticks_ISO_T2_8,26,5,42,127,1426583048
83,9,9,Ticks_ISO_T2_8,27,1,48,30,1427333312
83,9,9,Ticks_ISO_T2_8,28,5,42,127,1427382560
83,9,9,Ticks_ISO_T2_8,29,1,48,41,1428145008
83,9,9,Ticks_ISO_T2_8,30,5,42,127,1428183268
83,9,9,Ticks_ISO_T2_8,31,5,42,127,1428983080
83,9,9,Ticks_ISO_T2_8,32,1,48,43,1429045960
83,9,9,Ticks_ISO_T2_8,33,1,48,40,1429766468
83,9,9,Ticks_ISO_T2_8,34,5,42,127,1429782956
83,9,9,Ticks_ISO_T2_8,35,1,48,46,1430553860
83,9,9,Ticks_ISO_T2_8,36,5,42,127,1430582836
83,9,9,Ticks_ISO_T2_8,37,1,48,41,1431375656
83,9,9,Ticks_ISO_T2_8,38,5,42,127,1431383320
83,9,9,Ticks_ISO_T2_8,39,1,48,47,1432176212
83,9,9,Ticks_ISO_T2_8,40,5,42,127,1432183204
83,9,9,Ticks_ISO_T2_8,41,1,48,47,1432945780
83,9,9,Ticks_ISO_T2_8,42,5,42,127,1432982864
83,9,9,Ticks_ISO_T2_8,43,1,48,50,1433741872
83,9,9,Ticks_ISO_T2_8,44,5,42,127,1433782892
83,9,9,Ticks_ISO_T2_8,45,1,48,46,1434532480
83,9,9,Ticks_ISO_T2_8,46,5,42,127,1434583452
83,9,9,Ticks_ISO_T2_8,47,1,48,49,1435350688
83,9,9,Ticks_ISO_T2_8,48,5,42,127,1435383036
83,9,9,Ticks_ISO_T2_8,49,1,48,44,1436160968
83,9,9,Ticks_ISO_T2_8,50,5,42,127,1436182768
83,9,9,Ticks_ISO_T2_8,51,1,48,48,1436980464
83,9,9,Ticks_ISO_T2_8,52,5,42,127,1436982800
83,9,9,Ticks_ISO_T2_8,53,1,48,54,1437751832
83,9,9,Ticks_ISO_T2_8,54,5,42,127,1437783504
83,9,9,Ticks_ISO_T2_8,55,5,42,127,1438583412
83,9,9,Ticks_ISO_T2_8,56,1,48,41,1438650860
83,9,9,Ticks_ISO_T2_8,57,1,48,55,1439353412
83,9,9,Ticks_ISO_T2_8,58,5,42,127,1439382840
83,9,9,Ticks_ISO_T2_8,59,1,48,54,1440139388
83,9,9,Ticks_ISO_T2_8,60,5,42,127,1440182800
83,9,9,Ticks_ISO_T2_8,61,1,48,48,1440955344
83,9,9,Ticks_ISO_T2_8,62,5,42,127,1440983580
83,9,9,Ticks_ISO_T2_8,63,1,48,48,1441772808
83,9,9,Ticks_ISO_T2_8,64,5,42,127,1441783088
83,9,9,Ticks_ISO_T2_8,65,1,48,51,1442539784
83,9,9,Ticks_ISO_T2_8,66,5,42,127,1442582748
83,9,9,Ticks_ISO_T2_8,67,1,48,53,1443355516
83,9,9,Ticks_ISO_T2_8,68,5,42,127,1443382704
83,9,9,Ticks_ISO_T2_8,69,1,48,48,1444131024
83,9,9,Ticks_ISO_T2_8,70,5,42,127,1444183412
83,9,9,Ticks_ISO_T2_8,71,5,42,127,1444983176
83,9,9,Ticks_ISO_T2_8,72,1,48,51,1445000132
83,9,9,Ticks_ISO_T2_8,73,1,48,48,1445727720
83,9,9,Ticks_ISO_T2_8,74,5,42,127,1445782828
83,9,9,Ticks_ISO_T2_8,75,1,48,46,1446560912
83,9,9,Ticks_ISO_T2_8,76,5,42,127,1446582636
83,9,9,Ticks_ISO_T2_8,77,1,48,38,1447318380
83,9,9,Ticks_ISO_T2_8,78,5,42,127,1447383340
83,9,9,Ticks_ISO_T2_8,79,5,42,127,1448183304
83,9,9,Ticks_ISO_T2_8,80,1,48,40,1448215596
83,9,9,Ticks_ISO_T2_8,81,1,48,46,1448954424
83,9,9,Ticks_ISO_T2_8,82,5,42,127,1448982956
83,9,9,Ticks_ISO_T2_8,83,5,42,127,1449782696
83,9,9,Ticks_ISO_T2_8,84,1,48,51,1449809008
83,9,9,Ticks_ISO_T2_8,85,5,42,127,1450583552
83,9,9,Ticks_ISO_T2_8,86,1,48,51,1450642268
83,9,9,Ticks_ISO_T2_8,87,1,48,43,1451380940
83,9,9,Ticks_ISO_T2_8,88,5,42,127,1451383080
83,9,9,Ticks_ISO_T2_8,89,1,48,42,1452134060
83,9,9,Ticks_ISO_T2_8,90,5,42,127,1452182888
83,9,9,Ticks_ISO_T2_8,91,1,48,44,1452932696
83,9,9,Ticks_ISO_T2_8,92,5,42,127,1452982696
83,9,9,Ticks_ISO_T2_8,93,1,48,39,1453745596
83,9,9,Ticks_ISO_T2_8,94,5,42,127,1453783700
83,9,9,Ticks_ISO_T2_8,95,1,48,40,1454560368
83,9,9,Ticks_ISO_T2_8,96,5,42,127,1454583136
83,9,9,Ticks_ISO_T2_8,97,1,48,49,1455276400
83,9,9,Ticks_ISO_T2_8,98,5,42,127,1455382852
83,9,9,Ticks_ISO_T2_8,99,5,42,127,1456182536
83,9,9,Ticks_ISO_T2_8,100,1,48,48,1456205696
83,9,9,Ticks_ISO_T2_8,101,5,42,127,1456983464
83,9,9,Ticks_ISO_T2_8,102,1,48,40,1456993468
83,9,9,Ticks_ISO_T2_8,103,1,48,38,1457742392
83,9,9,Ticks_ISO_T2_8,104,5,42,127,1457783360
83,9,9,Ticks_ISO_T2_8,105,1,48,28,1458549456
83,9,9,Ticks_ISO_T2_8,106,5,42,127,1458583020
83,9,9,Ticks_ISO_T2_8,107,1,48,49,1459324676
83,9,9,Ticks_ISO_T2_8,108,5,42,127,1459382532
83,9,9,Ticks_ISO_T2_8,109,1,48,59,1460179540
83,9,9,Ticks_ISO_T2_8,110,5,42,127,1460183312
83,9,9,Ticks_ISO_T2_8,111,5,42,127,1460983424
83,9,9,Ticks_ISO_T2_8,112,1,48,65,1461006288
83,9,9,Ticks_ISO_T2_8,113,1,48,41,1461762180
83,9,9,Ticks_ISO_T2_8,114,5,42,127,1461782856
83,9,9,Ticks_ISO_T2_8,115,5,42,127,1462582524
83,9,9,Ticks_ISO_T2_8,116,1,48,44,1462653212
83,9,9,Ticks_ISO_T2_8,117,1,48,46,1463300984
83,9,9,Ticks_ISO_T2_8,118,5,42,127,1463383596
83,9,9,Ticks_ISO_T2_8,119,5,42,127,1464183360
83,9,9,Ticks_ISO_T2_8,120,1,48,47,1464229860
83,9,9,Ticks_ISO_T2_8,121,1,48,47,1464962264
83,9,9,Ticks_ISO_T2_8,122,5,42,127,1464982864
83,9,9,Ticks_ISO_T2_8,123,1,48,45,1465766332
83,9,9,Ticks_ISO_T2_8,124,5,42,127,1465782672
83,9,9,Ticks_ISO_T2_8,125,1,48,47,1466487676
83,9,9,Ticks_ISO_T2_8,126,5,42,127,1466583304
83,9,9,Ticks_ISO_T2_8,127,5,42,127,1467383044
83,9,9,Ticks_ISO_T2_8,128,1,48,44,1467391252
83,9,9,Ticks_ISO_T2_8,129,1,48,47,1468167028
83,9,9,Ticks_ISO_T2_8,130,5,42,127,1468183144
83,9,9,Ticks_ISO_T2_8,131,5,42,127,1468982660
83,9,9,Ticks_ISO_T2_8,132,1,48,50,1468994608
83,9,9,Ticks_ISO_T2_8,133,5,42,127,1469783364
83,9,9,Ticks_ISO_T2_8,134,1,48,52,1469794636
83,9,9,Ticks_ISO_T2_8,135,5,42,127,1470583196
83,9,9,Ticks_ISO_T2_8,136,1,48,51,1470635684
83,9,9,Ticks_ISO_T2_8,137,1,48,46,1471301408
83,9,9,Ticks_ISO_T2_8,138,5,42,127,1471383148
83,9,9,Ticks_ISO_T2_8,139,5,42,127,1472182516
83,9,9,Ticks_ISO_T2_8,140,1,48,48,1472187508
83,9,9,Ticks_ISO_T2_8,141,5,42,127,1472983296
83,9,9,Ticks_ISO_T2_8,142,1,48,49,1473021420
83,9,9,Ticks_ISO_T2_8,143,1,48,46,1473771172
83,9,9,Ticks_ISO_T2_8,144,5,42,127,1473783100
83,9,9,Ticks_ISO_T2_8,145,5,42,127,1474582988
83,9,9,Ticks_ISO_T2_8,146,1,48,45,1474591944
83,9,9,Ticks_ISO_T2_8,147,5,42,127,1475382496
83,9,9,Ticks_ISO_T2_8,148,1,48,44,1475414708
83,9,9,Ticks_ISO_T2_8,149,1,48,50,1476112176
83,9,9,Ticks_ISO_T2_8,150,5,42,127,1476183420
83,9,9,Ticks_ISO_T2_8,151,1,48,43,1476981596
83,9,9,Ticks_ISO_T2_8,152,5,42,127,1476983104
83,9,9,Ticks_ISO_T2_8,153,5,42,127,1477782992
83,9,9,Ticks_ISO_T2_8,154,1,48,49,1477798380
83,9,9,Ticks_ISO_T2_8,155,1,48,44,1478580068
83,9,9,Ticks_ISO_T2_8,156,5,42,127,1478582644
83,9,9,Ticks_ISO_T2_8,157,1,48,47,1479375460
83,9,9,Ticks_ISO_T2_8,158,5,42,127,1479383500
83,9,9,Ticks_ISO_T2_8,159,5,42,127,1480183016
83,9,9,Ticks_ISO_T2_8,160,1,48,51,1480208504
83,9,9,Ticks_ISO_T2_8,161,5,42,127,1480982900
83,9,9,Ticks_ISO_T2_8,162,1,48,46,1481051172
83,9,9,Ticks_ISO_T2_8,163,5,42,127,1481782708
83,9,9,Ticks_ISO_T2_8,164,1,48,50,1481850328
83,9,9,Ticks_ISO_T2_8,165,1,48,45,1482571032
83,9,9,Ticks_ISO_T2_8,166,5,42,127,1482583256
83,9,9,Ticks_ISO_T2_8,167,5,42,127,1483383244
83,9,9,Ticks_ISO_T2_8,168,1,48,46,1483396836
83,9,9,Ticks_ISO_T2_8,169,1,48,46,1484120684
83,9,9,Ticks_ISO_T2_8,170,5,42,127,1484182824
83,9,9,Ticks_ISO_T2_8,171,5,42,127,1484982712
83,9,9,Ticks_ISO_T2_8,172,1,48,50,1485018816
83,9,9,Ticks_ISO_T2_8,173,5,42,127,1485783416
83,9,9,Ticks_ISO_T2_8,174,1,48,46,1485807108
83,9,9,Ticks_ISO_T2_8,175,5,42,127,1486583148
83,9,9,Ticks_ISO_T2_8,176,1,48,46,1486589932
83,9,9,Ticks_ISO_T2_8,177,5,42,127,1487382956
83,9,9,Ticks_ISO_T2_8,178,1,48,45,1487463496
83,9,9,Ticks_ISO_T2_8,179,5,42,127,1488182692
83,9,9,Ticks_ISO_T2_8,180,1,48,46,1488224332
83,9,9,Ticks_ISO_T2_8,181,1,48,38,1488955080
83,9,9,Ticks_ISO_T2_8,182,5,42,127,1488983688
83,9,9,Ticks_ISO_T2_8,183,1,48,45,1489762968
83,9,9,Ticks_ISO_T2_8,184,5,42,127,1489783220
83,9,9,Ticks_ISO_T2_8,185,5,42,127,1490582816
83,9,9,Ticks_ISO_T2_8,186,1,48,44,1490592216
83,9,9,Ticks_ISO_T2_8,187,1,48,41,1491357452
83,9,9,Ticks_ISO_T2_8,188,5,42,127,1491382764
83,9,9,Ticks_ISO_T2_8,189,5,42,127,1492183552
83,9,9,Ticks_ISO_T2_8,190,1,48,46,1492206192
83,9,9,Ticks_ISO_T2_8,191,5,42,127,1492983136
83,9,9,Ticks_ISO_T2_8,192,1,48,40,1493019092
83,9,9,Ticks_ISO_T2_8,193,5,42,127,1493782868
83,9,9,Ticks_ISO_T2_8,194,1,48,42,1493799980
83,9,9,Ticks_ISO_T2_8,195,5,42,127,1494582752
83,9,9,Ticks_ISO_T2_8,196,1,48,43,1494591708
83,9,9,Ticks_ISO_T2_8,197,5,42,127,1495383680
83,9,9,Ticks_ISO_T2_8,198,1,48,49,1495436792
83,9,9,Ticks_ISO_T2_8,199,5,42,127,1496183140
83,9,9,Ticks_ISO_T2_8,200,1,48,47,1496234280
83,9,9,Ticks_ISO_T2_8,201,5,42,127,1496982800
83,9,9,Ticks_ISO_T2_8,202,1,48,46,1497009632
83,9,9,Ticks_ISO_T2_8,203,5,42,127,1497782828
83,9,9,Ticks_ISO_T2_8,204,1,48,44,1497830976
83,9,9,Ticks_ISO_T2_8,205,5,42,127,1498583608
83,9,9,Ticks_ISO_T2_8,206,1,48,45,1498611488
83,9,9,Ticks_ISO_T2_8,207,5,42,127,1499383192
83,9,9,Ticks_ISO_T2_8,208,1,48,40,1499391624
83,9,9,Ticks_ISO_T2_8,209,1,48,43,1500162544
83,9,9,Ticks_ISO_T2_8,210,5,42,127,1500182772
83,9,9,Ticks_ISO_T2_8,211,1,48,44,1500968712
83,9,9,Ticks_ISO_T2_8,212,5,42,127,1500982804
83,9,9,Ticks_ISO_T2_8,213,1,48,47,1501713092
83,9,9,Ticks_ISO_T2_8,214,5,42,127,1501783584
83,9,9,Ticks_ISO_T2_8,215,5,42,127,1502583100
83,9,9,Ticks_ISO_T2_8,216,1,48,43,1502637680
83,9,9,Ticks_ISO_T2_8,217,5,42,127,1503382908
83,9,9,Ticks_ISO_T2_8,218,1,48,46,1503402928
83,9,9,Ticks_ISO_T2_8,219,1,48,51,1504162776
83,9,9,Ticks_ISO_T2_8,220,5,42,127,1504182784
83,9,9,Ticks_ISO_T2_8,221,5,42,127,1504983424
83,9,9,Ticks_ISO_T2_8,222,1,48,49,1505028728
83,9,9,Ticks_ISO_T2_8,223,5,42,127,1505783080
83,9,9,Ticks_ISO_T2_8,224,1,48,45,1505808568
83,9,9,Ticks_ISO_T2_8,225,5,42,127,1506582816
83,9,9,Ticks_ISO_T2_8,226,1,48,49,1506643896
83,9,9,Ticks_ISO_T2_8,227,5,42,127,1507382620
83,9,9,Ticks_ISO_T2_8,228,1,48,51,1507441916
83,9,9,Ticks_ISO_T2_8,229,5,42,127,1508183328
83,9,9,Ticks_ISO_T2_8,230,1,48,42,1508221252
83,9,9,Ticks_ISO_T2_8,231,5,42,127,1508983088
83,9,9,Ticks_ISO_T2_8,232,1,48,51,1509058532
83,9,9,Ticks_ISO_T2_8,233,1,48,41,1509757796
83,9,9,Ticks_ISO_T2_8,234,5,42,127,1509782812
83,9,9,Ticks_ISO_T2_8,235,1,48,38,1510569944
83,9,9,Ticks_ISO_T2_8,236,5,42,127,1510582548
83,9,9,Ticks_ISO_T2_8,237,5,42,127,1511383480
83,9,9,Ticks_ISO_T2_8,238,1,48,53,1511440832
83,9,9,Ticks_ISO_T2_8,0,9999,9999,9999,1416180796
83,9,9,Ticks_ISO_T2_8,1,9999,9999,9999,1416980532
83,9,9,Ticks_ISO_T2_8,2,9999,9999,9999,1417780280
83,9,9,Ticks_ISO_T2_8,3,9999,9999,9999,1418581060
83,9,9,Ticks_ISO_T2_8,4,9999,9999,9999,1419380792
83,9,9,Ticks_ISO_T2_8,5,9999,9999,9999,1420180560
83,9,9,Ticks_ISO_T2_8,6,9999,9999,9999,1420980296
83,9,9,Ticks_ISO_T2_8,7,9999,9999,9999,1421781068
83,9,9,Ticks_ISO_T2_8,8,9999,9999,9999,1422580800
83,9,9,Ticks_ISO_T2_8,9,9999,9999,9999,1423380532
83,9,9,Ticks_ISO_T2_8,10,9999,9999,9999,1424180340
83,9,9,Ticks_ISO_T2_8,11,9999,9999,9999,1424981048
83,9,9,Ticks_ISO_T2_8,12,9999,9999,9999,1425780788
83,9,9,Ticks_ISO_T2_8,13,9999,9999,9999,1426580540
83,9,9,Ticks_ISO_T2_8,14,9999,9999,9999,1427380272
83,9,9,Ticks_ISO_T2_8,15,9999,9999,9999,1428181052
83,9,9,Ticks_ISO_T2_8,16,9999,9999,9999,1428980792
83,9,9,Ticks_ISO_T2_8,17,9999,9999,9999,1429780592
83,9,9,Ticks_ISO_T2_8,18,9999,9999,9999,1430580328
83,9,9,Ticks_ISO_T2_8,19,9999,9999,9999,1431381108
83,9,9,Ticks_ISO_T2_8,20,9999,9999,9999,1432180840
83,9,9,Ticks_ISO_T2_8,21,9999,9999,9999,1432980576
83,9,9,Ticks_ISO_T2_8,22,9999,9999,9999,1433780308
83,9,9,Ticks_ISO_T2_8,23,9999,9999,9999,1434581088
83,9,9,Ticks_ISO_T2_8,24,9999,9999,9999,1435380820
83,9,9,Ticks_ISO_T2_8,25,9999,9999,9999,1436180556
83,9,9,Ticks_ISO_T2_8,26,9999,9999,9999,1436980332
83,9,9,Ticks_ISO_T2_8,27,9999,9999,9999,1437781068
83,9,9,Ticks_ISO_T2_8,28,9999,9999,9999,1438580808
83,9,9,Ticks_ISO_T2_8,29,9999,9999,9999,1439380552
83,9,9,Ticks_ISO_T2_8,30,9999,9999,9999,1440180288
83,9,9,Ticks_ISO_T2_8,31,9999,9999,9999,1440981068
83,9,9,Ticks_ISO_T2_8,32,9999,9999,9999,1441780800
83,9,9,Ticks_ISO_T2_8,33,9999,9999,9999,1442580536
83,9,9,Ticks_ISO_T2_8,34,9999,9999,9999,1443380340
83,9,9,Ticks_ISO_T2_8,35,9999,9999,9999,1444181048
83,9,9,Ticks_ISO_T2_8,36,9999,9999,9999,1444980788
83,9,9,Ticks_ISO_T2_8,37,9999,9999,9999,1445780540
83,9,9,Ticks_ISO_T2_8,38,9999,9999,9999,1446580272
83,9,9,Ticks_ISO_T2_8,39,9999,9999,9999,1447381052
83,9,9,Ticks_ISO_T2_8,40,9999,9999,9999,1448180792
83,9,9,Ticks_ISO_T2_8,41,9999,9999,9999,1448980592
83,9,9,Ticks_ISO_T2_8,42,9999,9999,9999,1449780332
83,9,9,Ticks_ISO_T2_8,43,9999,9999,9999,1450581040
83,9,9,Ticks_ISO_T2_8,44,9999,9999,9999,1451380808
83,9,9,Ticks_ISO_T2_8,45,9999,9999,9999,1452180600
83,9,9,Ticks_ISO_T2_8,46,9999,9999,9999,1452980332
83,9,9,Ticks_ISO_T2_8,47,9999,9999,9999,1453781040
83,9,9,Ticks_ISO_T2_8,48,9999,9999,9999,1454580848
83,9,9,Ticks_ISO_T2_8,49,9999,9999,9999,1455380564
83,9,9,Ticks_ISO_T2_8,50,9999,9999,9999,1456180320
83,9,9,Ticks_ISO_T2_8,51,9999,9999,9999,1456981100
83,9,9,Ticks_ISO_T2_8,52,9999,9999,9999,1457780828
83,9,9,Ticks_ISO_T2_8,53,9999,9999,9999,1458580584
83,9,9,Ticks_ISO_T2_8,54,9999,9999,9999,1459380316
83,9,9,Ticks_ISO_T2_8,55,9999,9999,9999,1460181100
83,9,9,Ticks_ISO_T2_8,56,9999,9999,9999,1460980840
83,9,9,Ticks_ISO_T2_8,57,9999,9999,9999,1461780568
83,9,9,Ticks_ISO_T2_8,58,9999,9999,9999,1462580312
83,9,9,Ticks_ISO_T2_8,59,9999,9999,9999,1463381084
83,9,9,Ticks_ISO_T2_8,60,9999,9999,9999,1464180824
83,9,9,Ticks_ISO_T2_8,61,9999,9999,9999,1464980576
83,9,9,Ticks_ISO_T2_8,62,9999,9999,9999,1465780308
83,9,9,Ticks_ISO_T2_8,63,9999,9999,9999,1466581088
83,9,9,Ticks_ISO_T2_8,64,9999,9999,9999,1467380828
83,9,9,Ticks_ISO_T2_8,65,9999,9999,9999,1468180556
83,9,9,Ticks_ISO_T2_8,66,9999,9999,9999,1468980300
83,9,9,Ticks_ISO_T2_8,67,9999,9999,9999,1469781076
83,9,9,Ticks_ISO_T2_8,68,9999,9999,9999,1470580812
83,9,9,Ticks_ISO_T2_8,69,9999,9999,9999,1471380560
83,9,9,Ticks_ISO_T2_8,70,9999,9999,9999,1472180300
83,9,9,Ticks_ISO_T2_8,71,9999,9999,9999,1472981084
83,9,9,Ticks_ISO_T2_8,72,9999,9999,9999,1473780812
83,9,9,Ticks_ISO_T2_8,73,9999,9999,9999,1474580552
83,9,9,Ticks_ISO_T2_8,74,9999,9999,9999,1475380284
83,9,9,Ticks_ISO_T2_8,75,9999,9999,9999,1476181056
83,9,9,Ticks_ISO_T2_8,76,9999,9999,9999,1476980824
83,9,9,Ticks_ISO_T2_8,77,9999,9999,9999,1477780556
83,9,9,Ticks_ISO_T2_8,78,9999,9999,9999,1478580284
83,9,9,Ticks_ISO_T2_8,79,9999,9999,9999,1479381060
83,9,9,Ticks_ISO_T2_8,80,9999,9999,9999,1480180800
83,9,9,Ticks_ISO_T2_8,81,9999,9999,9999,1480980536
83,9,9,Ticks_ISO_T2_8,82,9999,9999,9999,1481780344
83,9,9,Ticks_ISO_T2_8,83,9999,9999,9999,1482581044
83,9,9,Ticks_ISO_T2_8,84,9999,9999,9999,1483380808
83,9,9,Ticks_ISO_T2_8,85,9999,9999,9999,1484180536
83,9,9,Ticks_ISO_T2_8,86,9999,9999,9999,1484980276
83,9,9,Ticks_ISO_T2_8,87,9999,9999,9999,1485781052
83,9,9,Ticks_ISO_T2_8,88,9999,9999,9999,1486580788
83,9,9,Ticks_ISO_T2_8,89,9999,9999,9999,1487380592
83,9,9,Ticks_ISO_T2_8,90,9999,9999,9999,1488180328
83,9,9,Ticks_ISO_T2_8,91,9999,9999,9999,1488981104
83,9,9,Ticks_ISO_T2_8,92,9999,9999,9999,1489780784
83,9,9,Ticks_ISO_T2_8,93,9999,9999,9999,1490580528
83,9,9,Ticks_ISO_T2_8,94,9999,9999,9999,1491380328
83,9,9,Ticks_ISO_T2_8,95,9999,9999,9999,1492181040
83,9,9,Ticks_ISO_T2_8,96,9999,9999,9999,1492980848
83,9,9,Ticks_ISO_T2_8,97,9999,9999,9999,1493780580
83,9,9,Ticks_ISO_T2_8,98,9999,9999,9999,1494580316
83,9,9,Ticks_ISO_T2_8,99,9999,9999,9999,1495381092
83,9,9,Ticks_ISO_T2_8,100,9999,9999,9999,1496180852
83,9,9,Ticks_ISO_T2_8,101,9999,9999,9999,1496980588
83,9,9,Ticks_ISO_T2_8,102,9999,9999,9999,1497780320
83,9,9,Ticks_ISO_T2_8,103,9999,9999,9999,1498581100
83,9,9,Ticks_ISO_T2_8,104,9999,9999,9999,1499380832
83,9,9,Ticks_ISO_T2_8,105,9999,9999,9999,1500180560
83,9,9,Ticks_ISO_T2_8,106,9999,9999,9999,1500980296
83,9,9,Ticks_ISO_T2_8,107,9999,9999,9999,1501781072
83,9,9,Ticks_ISO_T2_8,108,9999,9999,9999,1502580812
83,9,9,Ticks_ISO_T2_8,109,9999,9999,9999,1503380544
83,9,9,Ticks_ISO_T2_8,110,9999,9999,9999,1504180272
83,9,9,Ticks_ISO_T2_8,111,9999,9999,9999,1504981060
83,9,9,Ticks_ISO_T2_8,112,9999,9999,9999,1505780792
83,9,9,Ticks_ISO_T2_8,113,9999,9999,9999,1506580528
83,9,9,Ticks_ISO_T2_8,114,9999,9999,9999,1507380332
83,9,9,Ticks_ISO_T2_8,115,9999,9999,9999,1508181040
83,9,9,Ticks_ISO_T2_8,116,9999,9999,9999,1508980800
83,9,9,Ticks_ISO_T2_8,117,9999,9999,9999,1509780600
83,9,9,Ticks_ISO_T2_8,118,9999,9999,9999,1510580332
83,9,9,Ticks_ISO_T2_8,119,9999,9999,9999,1511381044
83,10,10,Ticks_ISO_T2_5,0,5,42,127,1521518820
83,10,10,Ticks_ISO_T2_5,1,5,42,127,1522018688
83,10,10,Ticks_ISO_T2_5,2,1,48,41,1522510956
83,10,10,Ticks_ISO_T2_5,3,5,42,127,1522519368
83,10,10,Ticks_ISO_T2_5,4,5,42,127,1523019068
83,10,10,Ticks_ISO_T2_5,5,1,48,65,1523021660
83,10,10,Ticks_ISO_T2_5,6,5,42,127,1523518688
83,10,10,Ticks_ISO_T2_5,7,1,48,50,1523563620
83,10,10,Ticks_ISO_T2_5,8,5,42,127,1524018532
83,10,10,Ticks_ISO_T2_5,9,1,48,43,1524041172
83,10,10,Ticks_ISO_T2_5,10,5,42,127,1524519272
83,10,10,Ticks_ISO_T2_5,11,1,48,53,1524546172
83,10,10,Ticks_ISO_T2_5,12,1,48,54,1525012792
83,10,10,Ticks_ISO_T2_5,13,5,42,127,1525018960
83,10,10,Ticks_ISO_T2_5,14,1,48,62,1525505752
83,10,10,Ticks_ISO_T2_5,15,5,42,127,1525518580
83,10,10,Ticks_ISO_T2_5,16,1,48,50,1526017604
83,10,10,Ticks_ISO_T2_5,17,5,42,127,1526019100
83,10,10,Ticks_ISO_T2_5,18,5,42,127,1526519320
83,10,10,Ticks_ISO_T2_5,19,1,48,52,1526546976
83,10,10,Ticks_ISO_T2_5,20,1,48,51,1526998188
83,10,10,Ticks_ISO_T2_5,21,5,42,127,1527018712
83,10,10,Ticks_ISO_T2_5,22,5,42,127,1527518564
83,10,10,Ticks_ISO_T2_5,23,1,48,53,1527534996
83,10,10,Ticks_ISO_T2_5,24,1,48,46,1528012160
83,10,10,Ticks_ISO_T2_5,25,5,42,127,1528019300
83,10,10,Ticks_ISO_T2_5,26,1,48,51,1528516044
83,10,10,Ticks_ISO_T2_5,27,5,42,127,1528519216
83,10,10,Ticks_ISO_T2_5,28,1,48,59,1529018624
83,10,10,Ticks_ISO_T2_5,29,5,42,127,1529020108
83,10,10,Ticks_ISO_T2_5,30,5,42,127,1529518468
83,10,10,Ticks_ISO_T2_5,31,1,48,57,1529543800
83,10,10,Ticks_ISO_T2_5,32,1,48,57,1530015424
83,10,10,Ticks_ISO_T2_5,33,5,42,127,1530019128
83,10,10,Ticks_ISO_T2_5,34,5,42,127,1530519124
83,10,10,Ticks_ISO_T2_5,35,1,48,48,1530526356
83,10,10,Ticks_ISO_T2_5,36,1,48,53,1530961904
83,10,10,Ticks_ISO_T2_5,37,5,42,127,1531018588
83,10,10,Ticks_ISO_T2_5,38,1,48,60,1531498180
83,10,10,Ticks_ISO_T2_5,39,5,42,127,1531519404
83,10,10,Ticks_ISO_T2_5,40,1,48,53,1531987328
83,10,10,Ticks_ISO_T2_5,41,5,42,127,1532019172
83,10,10,Ticks_ISO_T2_5,42,5,42,127,1532519072
83,10,10,Ticks_ISO_T2_5,43,1,48,57,1532526832
83,10,10,Ticks_ISO_T2_5,44,1,48,64,1533012816
83,10,10,Ticks_ISO_T2_5,45,5,42,127,1533018612
83,10,10,Ticks_ISO_T2_5,46,5,42,127,1533519212
83,10,10,Ticks_ISO_T2_5,47,1,48,52,1533548884
83,10,10,Ticks_ISO_T2_5,48,1,48,63,1533998068
83,10,10,Ticks_ISO_T2_5,49,5,42,127,1534019196
83,10,10,Ticks_ISO_T2_5,50,1,48,63,1534508760
83,10,10,Ticks_ISO_T2_5,51,5,42,127,1534518744
83,10,10,Ticks_ISO_T2_5,52,1,48,63,1534994472
83,10,10,Ticks_ISO_T2_5,53,5,42,127,1535019336
83,10,10,Ticks_ISO_T2_5,54,1,48,65,1535500000
83,10,10,Ticks_ISO_T2_5,55,5,42,127,1535519108
83,10,10,Ticks_ISO_T2_5,56,5,42,127,1536018956
83,10,10,Ticks_ISO_T2_5,57,1,48,72,1536032024
83,10,10,Ticks_ISO_T2_5,58,1,48,65,1536496776
83,10,10,Ticks_ISO_T2_5,59,5,42,127,1536518648
83,10,10,Ticks_ISO_T2_5,60,1,48,61,1537017656
83,10,10,Ticks_ISO_T2_5,61,5,42,127,1537019164
83,10,10,Ticks_ISO_T2_5,62,1,48,63,1537493540
83,10,10,Ticks_ISO_T2_5,63,5,42,127,1537519080
83,10,10,Ticks_ISO_T2_5,64,1,48,64,1537995332
83,10,10,Ticks_ISO_T2_5,65,5,42,127,1538018852
83,10,10,Ticks_ISO_T2_5,66,5,42,127,1538519452
83,10,10,Ticks_ISO_T2_5,67,1,48,64,1538523244
83,10,10,Ticks_ISO_T2_5,68,1,48,67,1539006692
83,10,10,Ticks_ISO_T2_5,69,5,42,127,1539019068
83,10,10,Ticks_ISO_T2_5,70,1,48,63,1539490904
83,10,10,Ticks_ISO_T2_5,71,5,42,127,1539518984
83,10,10,Ticks_ISO_T2_5,72,1,48,67,1539970400
83,10,10,Ticks_ISO_T2_5,73,5,42,127,1540018752
83,10,10,Ticks_ISO_T2_5,74,1,48,77,1540513324
83,10,10,Ticks_ISO_T2_5,75,5,42,127,1540519420
83,10,10,Ticks_ISO_T2_5,76,1,48,64,1541007712
83,10,10,Ticks_ISO_T2_5,77,5,42,127,1541018964
83,10,10,Ticks_ISO_T2_5,78,1,48,65,1541516996
83,10,10,Ticks_ISO_T2_5,79,5,42,127,1541518884
83,10,10,Ticks_ISO_T2_5,80,1,48,70,1542012484
83,10,10,Ticks_ISO_T2_5,81,5,42,127,1542018356
83,10,10,Ticks_ISO_T2_5,82,5,42,127,1542519176
83,10,10,Ticks_ISO_T2_5,83,1,48,71,1542544808
83,10,10,Ticks_ISO_T2_5,84,1,48,73,1542987844
83,10,10,Ticks_ISO_T2_5,85,5,42,127,1543018988
83,10,10,Ticks_ISO_T2_5,86,5,42,127,1543518616
83,10,10,Ticks_ISO_T2_5,87,1,48,62,1543528092
83,10,10,Ticks_ISO_T2_5,88,1,48,55,1544011384
83,10,10,Ticks_ISO_T2_5,89,5,42,127,1544019348
83,10,10,Ticks_ISO_T2_5,90,1,48,61,1544507116
83,10,10,Ticks_ISO_T2_5,91,5,42,127,1544518896
83,10,10,Ticks_ISO_T2_5,92,1,48,61,1545005540
83,10,10,Ticks_ISO_T2_5,93,5,42,127,1545018812
83,10,10,Ticks_ISO_T2_5,94,5,42,127,1545518516
83,10,10,Ticks_ISO_T2_5,95,1,48,63,1545524996
83,10,10,Ticks_ISO_T2_5,96,1,48,67,1545976428
83,10,10,Ticks_ISO_T2_5,97,5,42,127,1546019100
83,10,10,Ticks_ISO_T2_5,98,5,42,127,1546518876
83,10,10,Ticks_ISO_T2_5,99,1,48,52,1546524236
83,10,10,Ticks_ISO_T2_5,100,1,48,64,1547010676
83,10,10,Ticks_ISO_T2_5,101,5,42,127,1547018712
83,10,10,Ticks_ISO_T2_5,102,1,48,73,1547468864
83,10,10,Ticks_ISO_T2_5,103,5,42,127,1547519308
83,10,10,Ticks_ISO_T2_5,104,1,48,65,1548015076
83,10,10,Ticks_ISO_T2_5,105,5,42,127,1548019076
83,10,10,Ticks_ISO_T2_5,106,5,42,127,1548518704
83,10,10,Ticks_ISO_T2_5,107,1,48,67,1548528552
83,10,10,Ticks_ISO_T2_5,108,1,48,61,1549007892
83,10,10,Ticks_ISO_T2_5,109,5,42,127,1549018616
83,10,10,Ticks_ISO_T2_5,110,1,48,68,1549517252
83,10,10,Ticks_ISO_T2_5,111,5,42,127,1549519136
83,10,10,Ticks_ISO_T2_5,112,5,42,127,1550018912
83,10,10,Ticks_ISO_T2_5,113,1,48,54,1550025772
83,10,10,Ticks_ISO_T2_5,114,5,42,127,1550518608
83,10,10,Ticks_ISO_T2_5,115,1,48,58,1550519872
83,10,10,Ticks_ISO_T2_5,116,5,42,127,1551019276
83,10,10,Ticks_ISO_T2_5,117,1,48,68,1551034584
83,10,10,Ticks_ISO_T2_5,118,5,42,127,1551519120
83,10,10,Ticks_ISO_T2_5,119,1,48,65,1551546624
83,10,10,Ticks_ISO_T2_5,120,1,48,57,1552013980
83,10,10,Ticks_ISO_T2_5,121,5,42,127,1552018732
83,10,10,Ticks_ISO_T2_5,122,1,48,69,1552516920
83,10,10,Ticks_ISO_T2_5,123,5,42,127,1552518504
83,10,10,Ticks_ISO_T2_5,124,1,48,77,1552993604
83,10,10,Ticks_ISO_T2_5,125,5,42,127,1553019168
83,10,10,Ticks_ISO_T2_5,126,1,48,49,1553514236
83,10,10,Ticks_ISO_T2_5,127,5,42,127,1553519060
83,10,10,Ticks_ISO_T2_5,128,5,42,127,1554018812
83,10,10,Ticks_ISO_T2_5,129,1,48,62,1554039532
83,10,10,Ticks_ISO_T2_5,130,1,48,67,1554497520
83,10,10,Ticks_ISO_T2_5,131,5,42,127,1554519696
83,10,10,Ticks_ISO_T2_5,132,1,48,80,1554996992
83,10,10,Ticks_ISO_T2_5,133,5,42,127,1555019240
83,10,10,Ticks_ISO_T2_5,134,1,48,82,1555492572
83,10,10,Ticks_ISO_T2_5,135,5,42,127,1555518788
83,10,10,Ticks_ISO_T2_5,136,1,48,75,1556015456
83,10,10,Ticks_ISO_T2_5,137,5,42,127,1556018704
83,10,10,Ticks_ISO_T2_5,138,1,48,66,1556474384
83,10,10,Ticks_ISO_T2_5,139,5,42,127,1556519148
83,10,10,Ticks_ISO_T2_5,140,1,48,73,1556994352
83,10,10,Ticks_ISO_T2_5,141,5,42,127,1557018920
83,10,10,Ticks_ISO_T2_5,142,1,48,61,1557470932
83,10,10,Ticks_ISO_T2_5,143,5,42,127,1557518836
83,10,10,Ticks_ISO_T2_5,144,1,48,79,1557992992
83,10,10,Ticks_ISO_T2_5,145,5,42,127,1558018460
83,10,10,Ticks_ISO_T2_5,146,5,42,127,1558519060
83,10,10,Ticks_ISO_T2_5,147,1,48,76,1558520024
83,10,10,Ticks_ISO_T2_5,148,1,48,59,1559005548
83,10,10,Ticks_ISO_T2_5,149,5,42,127,1559018824
83,10,10,Ticks_ISO_T2_5,150,1,48,86,1559492828
83,10,10,Ticks_ISO_T2_5,151,5,42,127,1559518668
83,10,10,Ticks_ISO_T2_5,152,1,48,109,1559965368
83,10,10,Ticks_ISO_T2_5,153,5,42,127,1560019556
83,10,10,Ticks_ISO_T2_5,154,1,48,62,1560483464
83,10,10,Ticks_ISO_T2_5,155,5,42,127,1560518956
83,10,10,Ticks_ISO_T2_5,156,1,48,67,1560986904
83,10,10,Ticks_ISO_T2_5,157,5,42,127,1561018724
83,10,10,Ticks_ISO_T2_5,158,5,42,127,1561518576
83,10,10,Ticks_ISO_T2_5,159,1,48,78,1561521172
83,10,10,Ticks_ISO_T2_5,160,5,42,127,1562019240
83,10,10,Ticks_ISO_T2_5,161,1,48,62,1562033208
83,10,10,Ticks_ISO_T2_5,162,5,42,127,1562518860
83,10,10,Ticks_ISO_T2_5,163,1,48,71,1562534616
83,10,10,Ticks_ISO_T2_5,164,5,42,127,1563018556
83,10,10,Ticks_ISO_T2_5,165,1,48,69,1563044188
83,10,10,Ticks_ISO_T2_5,166,5,42,127,1563519596
83,10,10,Ticks_ISO_T2_5,167,1,48,69,1563526312
83,10,10,Ticks_ISO_T2_5,168,5,42,127,1564019144
83,10,10,Ticks_ISO_T2_5,169,1,48,61,1564041932
83,10,10,Ticks_ISO_T2_5,170,1,48,71,1564499028
83,10,10,Ticks_ISO_T2_5,171,5,42,127,1564518732
83,10,10,Ticks_ISO_T2_5,172,5,42,127,1565018432
83,10,10,Ticks_ISO_T2_5,173,1,48,45,1565026788
83,10,10,Ticks_ISO_T2_5,174,1,48,67,1565499312
83,10,10,Ticks_ISO_T2_5,175,5,42,127,1565519392
83,10,10,Ticks_ISO_T2_5,176,1,48,52,1565993620
83,10,10,Ticks_ISO_T2_5,177,5,42,127,1566018868
83,10,10,Ticks_ISO_T2_5,178,1,48,71,1566498180
83,10,10,Ticks_ISO_T2_5,179,5,42,127,1566518708
83,10,10,Ticks_ISO_T2_5,180,5,42,127,1567019608
83,10,10,Ticks_ISO_T2_5,181,1,48,62,1567038512
83,10,10,Ticks_ISO_T2_5,182,5,42,127,1567519080
83,10,10,Ticks_ISO_T2_5,183,1,48,62,1567523024
83,10,10,Ticks_ISO_T2_5,184,1,48,63,1568010580
83,10,10,Ticks_ISO_T2_5,185,5,42,127,1568018768
83,10,10,Ticks_ISO_T2_5,186,1,48,69,1568503612
83,10,10,Ticks_ISO_T2_5,187,5,42,127,1568518612
83,10,10,Ticks_ISO_T2_5,188,1,48,62,1569013036
83,10,10,Ticks_ISO_T2_5,189,5,42,127,1569019204
83,10,10,Ticks_ISO_T2_5,190,5,42,127,1569518976
83,10,10,Ticks_ISO_T2_5,191,1,48,75,1569523588
83,10,10,Ticks_ISO_T2_5,192,1,48,74,1569963432
83,10,10,Ticks_ISO_T2_5,193,5,42,127,1570018668
83,10,10,Ticks_ISO_T2_5,194,1,48,72,1570505604
83,10,10,Ticks_ISO_T2_5,195,5,42,127,1570519332
83,10,10,Ticks_ISO_T2_5,196,1,48,63,1571000448
83,10,10,Ticks_ISO_T2_5,197,5,42,127,1571019176
83,10,10,Ticks_ISO_T2_5,198,1,48,59,1571493256
83,10,10,Ticks_ISO_T2_5,199,5,42,127,1571518796
83,10,10,Ticks_ISO_T2_5,200,1,48,65,1571986892
83,10,10,Ticks_ISO_T2_5,201,5,42,127,1572018492
83,10,10,Ticks_ISO_T2_5,202,1,48,59,1572493092
83,10,10,Ticks_ISO_T2_5,203,5,42,127,1572519232
83,10,10,Ticks_ISO_T2_5,204,1,48,68,1572984864
83,10,10,Ticks_ISO_T2_5,205,5,42,127,1573018928
83,10,10,Ticks_ISO_T2_5,206,1,48,73,1573499368
83,10,10,Ticks_ISO_T2_5,207,5,42,127,1573518700
83,10,10,Ticks_ISO_T2_5,208,1,48,44,1574005712
83,10,10,Ticks_ISO_T2_5,209,5,42,127,1574018392
83,10,10,Ticks_ISO_T2_5,210,1,48,79,1574512512
83,10,10,Ticks_ISO_T2_5,211,5,42,127,1574519208
83,10,10,Ticks_ISO_T2_5,212,1,48,64,1574993340
83,10,10,Ticks_ISO_T2_5,213,5,42,127,1575018804
83,10,10,Ticks_ISO_T2_5,214,5,42,127,1575518580
83,10,10,Ticks_ISO_T2_5,215,1,48,65,1575524840
83,10,10,Ticks_ISO_T2_5,216,1,48,57,1576002004
83,10,10,Ticks_ISO_T2_5,217,5,42,127,1576019240
83,10,10,Ticks_ISO_T2_5,218,1,48,70,1576512168
83,10,10,Ticks_ISO_T2_5,219,5,42,127,1576519236
83,10,10,Ticks_ISO_T2_5,220,5,42,127,1577018712
83,10,10,Ticks_ISO_T2_5,221,1,48,54,1577037240
83,10,10,Ticks_ISO_T2_5,222,1,48,84,1577508640
83,10,10,Ticks_ISO_T2_5,223,5,42,127,1577518400
83,10,10,Ticks_ISO_T2_5,224,5,42,127,1578019296
83,10,10,Ticks_ISO_T2_5,225,1,48,38,1578030944
83,10,10,Ticks_ISO_T2_5,226,1,48,73,1578516724
83,10,10,Ticks_ISO_T2_5,227,5,42,127,1578518836
83,10,10,Ticks_ISO_T2_5,228,1,48,70,1578992916
83,10,10,Ticks_ISO_T2_5,229,5,42,127,1579018532
83,10,10,Ticks_ISO_T2_5,230,1,48,58,1579506752
83,10,10,Ticks_ISO_T2_5,231,5,42,127,1579519348
83,10,10,Ticks_ISO_T2_5,232,5,42,127,1580019200
83,10,10,Ticks_ISO_T2_5,233,1,48,65,1580020312
83,10,10,Ticks_ISO_T2_5,234,1,48,65,1580470012
83,10,10,Ticks_ISO_T2_5,235,5,42,127,1580518888
83,10,10,Ticks_ISO_T2_5,236,1,48,62,1580958632
83,10,10,Ticks_ISO_T2_5,237,5,42,127,1581018436
83,10,10,Ticks_ISO_T2_5,238,5,42,127,1581519180
83,10,10,Ticks_ISO_T2_5,239,1,48,72,1581561048
83,10,10,Ticks_ISO_T2_5,240,5,42,127,1582019100
83,10,10,Ticks_ISO_T2_5,241,1,48,42,1582056248
83,10,10,Ticks_ISO_T2_5,242,1,48,74,1582514712
83,10,10,Ticks_ISO_T2_5,243,5,42,127,1582518564
83,10,10,Ticks_ISO_T2_5,244,1,48,56,1582998252
83,10,10,Ticks_ISO_T2_5,245,5,42,127,1583019456
83,10,10,Ticks_ISO_T2_5,246,1,48,68,1583500116
83,10,10,Ticks_ISO_T2_5,247,5,42,127,1583519148
83,10,10,Ticks_ISO_T2_5,248,1,48,64,1583990240
83,10,10,Ticks_ISO_T2_5,249,5,42,127,1584018992
83,10,10,Ticks_ISO_T2_5,250,1,48,70,1584494768
83,10,10,Ticks_ISO_T2_5,251,5,42,127,1584518540
83,10,10,Ticks_ISO_T2_5,252,1,48,78,1584993716
83,10,10,Ticks_ISO_T2_5,253,5,42,127,1585019356
83,10,10,Ticks_ISO_T2_5,254,1,48,74,1585502388
83,10,10,Ticks_ISO_T2_5,255,5,42,127,1585518952
83,10,10,Ticks_ISO_T2_5,256,1,48,84,1586005940
83,10,10,Ticks_ISO_T2_5,257,5,42,127,1586018620
83,10,10,Ticks_ISO_T2_5,258,1,48,76,1586489560
83,10,10,Ticks_ISO_T2_5,0,9999,9999,9999,1521516608
83,10,10,Ticks_ISO_T2_5,1,9999,9999,9999,1522016324
83,10,10,Ticks_ISO_T2_5,2,9999,9999,9999,1522517080
83,10,10,Ticks_ISO_T2_5,3,9999,9999,9999,1523016784
83,10,10,Ticks_ISO_T2_5,4,9999,9999,9999,1523516476
83,10,10,Ticks_ISO_T2_5,5,9999,9999,9999,1524016244
83,10,10,Ticks_ISO_T2_5,6,9999,9999,9999,1524516984
83,10,10,Ticks_ISO_T2_5,7,9999,9999,9999,1525016672
83,10,10,Ticks_ISO_T2_5,8,9999,9999,9999,1525516368
83,10,10,Ticks_ISO_T2_5,9,9999,9999,9999,1526016072
83,10,10,Ticks_ISO_T2_5,10,9999,9999,9999,1526516812
83,10,10,Ticks_ISO_T2_5,11,9999,9999,9999,1527016500
83,10,10,Ticks_ISO_T2_5,12,9999,9999,9999,1527516276
83,10,10,Ticks_ISO_T2_5,13,9999,9999,9999,1528017012
83,10,10,Ticks_ISO_T2_5,14,9999,9999,9999,1528516708
83,10,10,Ticks_ISO_T2_5,15,9999,9999,9999,1529016412
83,10,10,Ticks_ISO_T2_5,16,9999,9999,9999,1529516104
83,10,10,Ticks_ISO_T2_5,17,9999,9999,9999,1530016840
83,10,10,Ticks_ISO_T2_5,18,9999,9999,9999,1530516540
83,10,10,Ticks_ISO_T2_5,19,9999,9999,9999,1531016304
83,10,10,Ticks_ISO_T2_5,20,9999,9999,9999,1531517044
83,10,10,Ticks_ISO_T2_5,21,9999,9999,9999,1532016712
83,10,10,Ticks_ISO_T2_5,22,9999,9999,9999,1532516412
83,10,10,Ticks_ISO_T2_5,23,9999,9999,9999,1533016176
83,10,10,Ticks_ISO_T2_5,24,9999,9999,9999,1533516924
83,10,10,Ticks_ISO_T2_5,25,9999,9999,9999,1534016612
83,10,10,Ticks_ISO_T2_5,26,9999,9999,9999,1534516308
83,10,10,Ticks_ISO_T2_5,27,9999,9999,9999,1535017052
83,10,10,Ticks_ISO_T2_5,28,9999,9999,9999,1535516748
83,10,10,Ticks_ISO_T2_5,29,9999,9999,9999,1536016448
83,10,10,Ticks_ISO_T2_5,30,9999,9999,9999,1536516212
83,10,10,Ticks_ISO_T2_5,31,9999,9999,9999,1537016884
83,10,10,Ticks_ISO_T2_5,32,9999,9999,9999,1537516648
83,10,10,Ticks_ISO_T2_5,33,9999,9999,9999,1538016344
83,10,10,Ticks_ISO_T2_5,34,9999,9999,9999,1538517088
83,10,10,Ticks_ISO_T2_5,35,9999,9999,9999,1539016780
83,10,10,Ticks_ISO_T2_5,36,9999,9999,9999,1539516476
83,10,10,Ticks_ISO_T2_5,37,9999,9999,9999,1540016244
83,10,10,Ticks_ISO_T2_5,38,9999,9999,9999,1540516984
83,10,10,Ticks_ISO_T2_5,39,9999,9999,9999,1541016680
83,10,10,Ticks_ISO_T2_5,40,9999,9999,9999,1541516400
83,10,10,Ticks_ISO_T2_5,41,9999,9999,9999,1542016068
83,10,10,Ticks_ISO_T2_5,42,9999,9999,9999,1542516816
83,10,10,Ticks_ISO_T2_5,43,9999,9999,9999,1543016556
83,10,10,Ticks_ISO_T2_5,44,9999,9999,9999,1543516256
83,10,10,Ticks_ISO_T2_5,45,9999,9999,9999,1544016988
83,10,10,Ticks_ISO_T2_5,46,9999,9999,9999,1544516684
83,10,10,Ticks_ISO_T2_5,47,9999,9999,9999,1545016380
83,10,10,Ticks_ISO_T2_5,48,9999,9999,9999,1545516152
83,10,10,Ticks_ISO_T2_5,49,9999,9999,9999,1546016888
83,10,10,Ticks_ISO_T2_5,50,9999,9999,9999,1546516588
83,10,10,Ticks_ISO_T2_5,51,9999,9999,9999,1547016280
83,10,10,Ticks_ISO_T2_5,52,9999,9999,9999,1547517020
83,10,10,Ticks_ISO_T2_5,53,9999,9999,9999,1548016716
83,10,10,Ticks_ISO_T2_5,54,9999,9999,9999,1548516420
83,10,10,Ticks_ISO_T2_5,55,9999,9999,9999,1549016184
83,10,10,Ticks_ISO_T2_5,56,9999,9999,9999,1549516880
83,10,10,Ticks_ISO_T2_5,57,9999,9999,9999,1550016624
83,10,10,Ticks_ISO_T2_5,58,9999,9999,9999,1550516320
83,10,10,Ticks_ISO_T2_5,59,9999,9999,9999,1551017064
83,10,10,Ticks_ISO_T2_5,60,9999,9999,9999,1551516756
83,10,10,Ticks_ISO_T2_5,61,9999,9999,9999,1552016444
83,10,10,Ticks_ISO_T2_5,62,9999,9999,9999,1552516148
83,10,10,Ticks_ISO_T2_5,63,9999,9999,9999,1553016884
83,10,10,Ticks_ISO_T2_5,64,9999,9999,9999,1553516624
83,10,10,Ticks_ISO_T2_5,65,9999,9999,9999,1554016376
83,10,10,Ticks_ISO_T2_5,66,9999,9999,9999,1554517112
83,10,10,Ticks_ISO_T2_5,67,9999,9999,9999,1555016804
83,10,10,Ticks_ISO_T2_5,68,9999,9999,9999,1555516500
83,10,10,Ticks_ISO_T2_5,69,9999,9999,9999,1556016196
83,10,10,Ticks_ISO_T2_5,70,9999,9999,9999,1556516940
83,10,10,Ticks_ISO_T2_5,71,9999,9999,9999,1557016632
83,10,10,Ticks_ISO_T2_5,72,9999,9999,9999,1557516400
83,10,10,Ticks_ISO_T2_5,73,9999,9999,9999,1558016100
83,10,10,Ticks_ISO_T2_5,74,9999,9999,9999,1558516848
83,10,10,Ticks_ISO_T2_5,75,9999,9999,9999,1559016536
83,10,10,Ticks_ISO_T2_5,76,9999,9999,9999,1559516232
83,10,10,Ticks_ISO_T2_5,77,9999,9999,9999,1560016976
83,10,10,Ticks_ISO_T2_5,78,9999,9999,9999,1560516668
83,10,10,Ticks_ISO_T2_5,79,9999,9999,9999,1561016440
83,10,10,Ticks_ISO_T2_5,80,9999,9999,9999,1561516140
83,10,10,Ticks_ISO_T2_5,81,9999,9999,9999,1562016880
83,10,10,Ticks_ISO_T2_5,82,9999,9999,9999,1562516572
83,10,10,Ticks_ISO_T2_5,83,9999,9999,9999,1563016272
83,10,10,Ticks_ISO_T2_5,84,9999,9999,9999,1563517012
83,10,10,Ticks_ISO_T2_5,85,9999,9999,9999,1564016708
83,10,10,Ticks_ISO_T2_5,86,9999,9999,9999,1564516444
83,10,10,Ticks_ISO_T2_5,87,9999,9999,9999,1565016148
83,10,10,Ticks_ISO_T2_5,88,9999,9999,9999,1565516884
83,10,10,Ticks_ISO_T2_5,89,9999,9999,9999,1566016580
83,10,10,Ticks_ISO_T2_5,90,9999,9999,9999,1566516348
83,10,10,Ticks_ISO_T2_5,91,9999,9999,9999,1567017024
83,10,10,Ticks_ISO_T2_5,92,9999,9999,9999,1567516792
83,10,10,Ticks_ISO_T2_5,93,9999,9999,9999,1568016480
83,10,10,Ticks_ISO_T2_5,94,9999,9999,9999,1568516176
83,10,10,Ticks_ISO_T2_5,95,9999,9999,9999,1569016916
83,10,10,Ticks_ISO_T2_5,96,9999,9999,9999,1569516616
83,10,10,Ticks_ISO_T2_5,97,9999,9999,9999,1570016304
83,10,10,Ticks_ISO_T2_5,98,9999,9999,9999,1570517044
83,10,10,Ticks_ISO_T2_5,99,9999,9999,9999,1571016816
83,10,10,Ticks_ISO_T2_5,100,9999,9999,9999,1571516512
83,10,10,Ticks_ISO_T2_5,101,9999,9999,9999,1572016204
83,10,10,Ticks_ISO_T2_5,102,9999,9999,9999,1572516948
83,10,10,Ticks_ISO_T2_5,103,9999,9999,9999,1573016644
83,10,10,Ticks_ISO_T2_5,104,9999,9999,9999,1573516412
83,10,10,Ticks_ISO_T2_5,105,9999,9999,9999,1574016108
83,10,10,Ticks_ISO_T2_5,106,9999,9999,9999,1574516848
83,10,10,Ticks_ISO_T2_5,107,9999,9999,9999,1575016520
83,10,10,Ticks_ISO_T2_5,108,9999,9999,9999,1575516220
83,10,10,Ticks_ISO_T2_5,109,9999,9999,9999,1576016956
83,10,10,Ticks_ISO_T2_5,110,9999,9999,9999,1576516724
83,10,10,Ticks_ISO_T2_5,111,9999,9999,9999,1577016428
83,10,10,Ticks_ISO_T2_5,112,9999,9999,9999,1577516116
83,10,10,Ticks_ISO_T2_5,113,9999,9999,9999,1578016860
83,10,10,Ticks_ISO_T2_5,114,9999,9999,9999,1578516588
83,10,10,Ticks_ISO_T2_5,115,9999,9999,9999,1579016248
83,10,10,Ticks_ISO_T2_5,116,9999,9999,9999,1579516988
83,10,10,Ticks_ISO_T2_5,117,9999,9999,9999,1580016764
83,10,10,Ticks_ISO_T2_5,118,9999,9999,9999,1580516452
83,10,10,Ticks_ISO_T2_5,119,9999,9999,9999,1581016148
83,10,10,Ticks_ISO_T2_5,120,9999,9999,9999,1581516896
83,10,10,Ticks_ISO_T2_5,121,9999,9999,9999,1582016592
83,10,10,Ticks_ISO_T2_5,122,9999,9999,9999,1582516276
83,10,10,Ticks_ISO_T2_5,123,9999,9999,9999,1583017020
83,10,10,Ticks_ISO_T2_5,124,9999,9999,9999,1583516788
83,10,10,Ticks_ISO_T2_5,125,9999,9999,9999,1584016484
83,10,10,Ticks_ISO_T2_5,126,9999,9999,9999,1584516180
83,10,10,Ticks_ISO_T2_5,127,9999,9999,9999,1585016920
83,10,10,Ticks_ISO_T2_5,128,9999,9999,9999,1585516664
83,10,10,Ticks_ISO_T2_5,129,9999,9999,9999,1586016336
83,11,25,Jits_Pract_5,0,5,56,103,1631606216
83,11,25,Jits_Pract_5,1,5,63,98,1631609316
83,11,25,Jits_Pract_5,2,5,80,127,1631612508
83,11,25,Jits_Pract_5,0,5,56,103,1632105764
83,11,25,Jits_Pract_5,1,5,63,98,1632109188
83,11,25,Jits_Pract_5,2,5,80,127,1632112232
83,11,25,Jits_Pract_5,0,5,56,103,1632605508
83,11,25,Jits_Pract_5,1,5,80,127,1632615924
83,11,25,Jits_Pract_5,2,5,63,98,1632636484
83,11,25,Jits_Pract_5,0,5,63,98,1633066292
83,11,25,Jits_Pract_5,1,5,80,127,1633096264
83,11,25,Jits_Pract_5,2,5,56,103,1633106312
83,11,25,Jits_Pract_5,0,5,80,127,1633625356
83,11,25,Jits_Pract_5,1,5,56,103,1633635556
83,11,25,Jits_Pract_5,2,5,63,98,1633666300
83,11,25,Jits_Pract_5,0,5,63,98,1634116036
83,11,25,Jits_Pract_5,1,5,56,103,1634145564
83,11,25,Jits_Pract_5,2,5,80,127,1634155760
83,11,25,Jits_Pract_5,0,5,56,103,1634565348
83,11,25,Jits_Pract_5,1,5,63,98,1634615628
83,11,25,Jits_Pract_5,2,5,80,127,1634636384
83,11,25,Jits_Pract_5,0,5,80,127,1635066288
83,11,25,Jits_Pract_5,1,5,63,98,1635116344
83,11,25,Jits_Pract_5,2,5,56,103,1635156428
83,11,25,Jits_Pract_5,0,5,56,103,1635566108
83,11,25,Jits_Pract_5,1,5,63,98,1635595560
83,11,25,Jits_Pract_5,2,5,80,127,1635666284
83,11,25,Jits_Pract_5,0,5,56,103,1636065552
83,11,25,Jits_Pract_5,1,5,80,127,1636126020
83,11,25,Jits_Pract_5,2,5,63,98,1636155692
83,11,25,Jits_Pract_5,0,5,56,103,1636575488
83,11,25,Jits_Pract_5,1,5,63,98,1636585832
83,11,25,Jits_Pract_5,2,5,80,127,1636625768
83,11,25,Jits_Pract_5,0,5,63,98,1637076276
83,11,25,Jits_Pract_5,1,5,80,127,1637156148
83,11,25,Jits_Pract_5,2,5,56,103,1637165296
83,11,25,Jits_Pract_5,0,5,63,98,1637626204
83,11,25,Jits_Pract_5,1,5,56,103,1637666064
83,11,25,Jits_Pract_5,2,5,80,127,1637669284
83,11,25,Jits_Pract_5,0,5,56,103,1638086224
83,11,25,Jits_Pract_5,1,5,63,98,1638096196
83,11,25,Jits_Pract_5,2,5,80,127,1638136132
83,11,25,Jits_Pract_5,0,5,56,103,1638575320
83,11,25,Jits_Pract_5,1,5,63,98,1638578468
83,11,25,Jits_Pract_5,2,5,80,127,1638596232
83,11,25,Jits_Pract_5,0,9999,9999,9999,1631853648
83,11,25,Jits_Pract_5,1,9999,9999,9999,1632353352
83,11,25,Jits_Pract_5,2,9999,9999,9999,1632854068
83,11,25,Jits_Pract_5,3,9999,9999,9999,1633364072
83,11,25,Jits_Pract_5,4,9999,9999,9999,1633863732
83,11,25,Jits_Pract_5,5,9999,9999,9999,1634363476
83,11,25,Jits_Pract_5,6,9999,9999,9999,1634863208
83,11,25,Jits_Pract_5,7,9999,9999,9999,1635363920
83,11,25,Jits_Pract_5,8,9999,9999,9999,1635863668
83,11,25,Jits_Pract_5,9,9999,9999,9999,1636363336
83,11,25,Jits_Pract_5,10,9999,9999,9999,1636864048
83,11,25,Jits_Pract_5,11,9999,9999,9999,1637374060
83,11,25,Jits_Pract_5,12,9999,9999,9999,1637873716
83,11,25,Jits_Pract_5,13,9999,9999,9999,1638373440
83,11,25,Jits_Pract_5,14,9999,9999,9999,1638873172
83,12,24,Jits_Pract_8,0,5,56,103,1692692016
83,12,24,Jits_Pract_8,1,5,63,98,1692695116
83,12,24,Jits_Pract_8,2,5,80,127,1692698088
83,12,24,Jits_Pract_8,0,5,56,103,1693491656
83,12,24,Jits_Pract_8,1,5,63,98,1693494756
83,12,24,Jits_Pract_8,2,5,80,127,1693497952
83,12,24,Jits_Pract_8,0,5,80,127,1694232196
83,12,24,Jits_Pract_8,1,5,63,98,1694321984
83,12,24,Jits_Pract_8,2,5,56,103,1694332252
83,12,24,Jits_Pract_8,0,5,56,103,1695052160
83,12,24,Jits_Pract_8,1,5,63,98,1695062504
83,12,24,Jits_Pract_8,2,5,80,127,1695151540
83,12,24,Jits_Pract_8,0,5,63,98,1695822296
83,12,24,Jits_Pract_8,1,5,80,127,1695852072
83,12,24,Jits_Pract_8,2,5,56,103,1695881448
83,12,24,Jits_Pract_8,0,5,56,103,1696622112
83,12,24,Jits_Pract_8,1,5,80,127,1696722284
83,12,24,Jits_Pract_8,2,5,63,98,1696771660
83,12,24,Jits_Pract_8,0,5,56,103,1697421920
83,12,24,Jits_Pract_8,1,5,80,127,1697472048
83,12,24,Jits_Pract_8,2,5,63,98,1697511836
83,12,24,Jits_Pract_8,0,5,80,127,1698252140
83,12,24,Jits_Pract_8,1,5,63,98,1698282116
83,12,24,Jits_Pract_8,2,5,56,103,1698351348
83,12,24,Jits_Pract_8,0,5,63,98,1699081696
83,12,24,Jits_Pract_8,1,5,56,103,1699112416
83,12,24,Jits_Pract_8,2,5,80,127,1699171980
83,12,24,Jits_Pract_8,0,5,56,103,1699822000
83,12,24,Jits_Pract_8,1,5,80,127,1699824916
83,12,24,Jits_Pract_8,2,5,63,98,1699941796
83,12,24,Jits_Pract_8,0,5,56,103,1700701668
83,12,24,Jits_Pract_8,1,5,80,127,1700741408
83,12,24,Jits_Pract_8,2,5,63,98,1700751900
83,12,24,Jits_Pract_8,0,5,56,103,1701462296
83,12,24,Jits_Pract_8,1,5,80,127,1701481956
83,12,24,Jits_Pract_8,2,5,63,98,1701561824
83,12,24,Jits_Pract_8,0,5,80,127,1702251792
83,12,24,Jits_Pract_8,1,5,56,103,1702352264
83,12,24,Jits_Pract_8,2,5,63,98,1702361416
83,12,24,Jits_Pract_8,0,5,63,98,1703021788
83,12,24,Jits_Pract_8,1,5,80,127,1703082256
83,12,24,Jits_Pract_8,2,5,56,103,1703091704
83,12,24,Jits_Pract_8,0,5,56,103,1703821728
83,12,24,Jits_Pract_8,1,5,63,98,1703892308
83,12,24,Jits_Pract_8,2,5,80,127,1703895744
83,12,24,Jits_Pract_8,0,9999,9999,9999,1693089900
83,12,24,Jits_Pract_8,1,9999,9999,9999,1693889616
83,12,24,Jits_Pract_8,2,9999,9999,9999,1694689348
83,12,24,Jits_Pract_8,3,9999,9999,9999,1695489080
83,12,24,Jits_Pract_8,4,9999,9999,9999,1696289856
83,12,24,Jits_Pract_8,5,9999,9999,9999,1697089652
83,12,24,Jits_Pract_8,6,9999,9999,9999,1697889380
83,12,24,Jits_Pract_8,7,9999,9999,9999,1698689136
83,12,24,Jits_Pract_8,8,9999,9999,9999,1699489848
83,12,24,Jits_Pract_8,9,9999,9999,9999,1700289628
83,12,24,Jits_Pract_8,10,9999,9999,9999,1701089368
83,12,24,Jits_Pract_8,11,9999,9999,9999,1701889104
83,12,24,Jits_Pract_8,12,9999,9999,9999,1702689892
83,12,24,Jits_Pract_8,13,9999,9999,9999,1703489620
83,12,24,Jits_Pract_8,14,9999,9999,9999,1704289404
83,13,25,Jits_Pract_5,0,5,56,103,1713315316
83,13,25,Jits_Pract_5,1,5,63,98,1713318416
83,13,25,Jits_Pract_5,2,5,80,127,1713321684
83,13,25,Jits_Pract_5,0,5,56,103,1713814816
83,13,25,Jits_Pract_5,1,5,63,98,1713817912
83,13,25,Jits_Pract_5,2,5,80,127,1713821112
83,13,25,Jits_Pract_5,0,5,56,103,1714314484
83,13,25,Jits_Pract_5,1,5,80,127,1714324828
83,13,25,Jits_Pract_5,2,5,63,98,1714345584
83,13,25,Jits_Pract_5,0,5,63,98,1714765128
83,13,25,Jits_Pract_5,1,5,80,127,1714794756
83,13,25,Jits_Pract_5,2,5,56,103,1714805320
83,13,25,Jits_Pract_5,0,5,80,127,1715325264
83,13,25,Jits_Pract_5,1,5,56,103,1715334712
83,13,25,Jits_Pract_5,2,5,63,98,1715365284
83,13,25,Jits_Pract_5,0,5,63,98,1715814648
83,13,25,Jits_Pract_5,1,5,56,103,1715844648
83,13,25,Jits_Pract_5,2,5,80,127,1715854768
83,13,25,Jits_Pract_5,0,5,56,103,1716265452
83,13,25,Jits_Pract_5,1,5,63,98,1716314608
83,13,25,Jits_Pract_5,2,5,80,127,1716334868
83,13,25,Jits_Pract_5,0,5,80,127,1716765044
83,13,25,Jits_Pract_5,1,5,63,98,1716815320
83,13,25,Jits_Pract_5,2,5,56,103,1716855132
83,13,25,Jits_Pract_5,0,5,56,103,1717264788
83,13,25,Jits_Pract_5,1,5,63,98,1717294536
83,13,25,Jits_Pract_5,2,5,80,127,1717365064
83,13,25,Jits_Pract_5,0,5,56,103,1717764604
83,13,25,Jits_Pract_5,1,5,80,127,1717824776
83,13,25,Jits_Pract_5,2,5,63,98,1717854448
83,13,25,Jits_Pract_5,0,5,56,103,1718274612
83,13,25,Jits_Pract_5,1,5,63,98,1718284512
83,13,25,Jits_Pract_5,2,5,80,127,1718324596
83,13,25,Jits_Pract_5,0,5,63,98,1718764764
83,13,25,Jits_Pract_5,1,5,80,127,1718844636
83,13,25,Jits_Pract_5,2,5,56,103,1718855128
83,13,25,Jits_Pract_5,0,5,63,98,1719314692
83,13,25,Jits_Pract_5,1,5,56,103,1719354776
83,13,25,Jits_Pract_5,2,5,80,127,1719357844
83,13,25,Jits_Pract_5,0,5,56,103,1719774632
83,13,25,Jits_Pract_5,1,5,63,98,1719784904
83,13,25,Jits_Pract_5,2,5,80,127,1719824692
83,13,25,Jits_Pract_5,0,5,56,103,1720265008
83,13,25,Jits_Pract_5,1,5,63,98,1720268072
83,13,25,Jits_Pract_5,2,5,80,127,1720284492
83,13,25,Jits_Pract_5,0,9999,9999,9999,1713562676
83,13,25,Jits_Pract_5,1,9999,9999,9999,1714062404
83,13,25,Jits_Pract_5,2,9999,9999,9999,1714562148
83,13,25,Jits_Pract_5,3,9999,9999,9999,1715062860
83,13,25,Jits_Pract_5,4,9999,9999,9999,1715562592
83,13,25,Jits_Pract_5,5,9999,9999,9999,1716062316
83,13,25,Jits_Pract_5,6,9999,9999,9999,1716563012
83,13,25,Jits_Pract_5,7,9999,9999,9999,1717062756
83,13,25,Jits_Pract_5,8,9999,9999,9999,1717562424
83,13,25,Jits_Pract_5,9,9999,9999,9999,1718062168
83,13,25,Jits_Pract_5,10,9999,9999,9999,1718562880
83,13,25,Jits_Pract_5,11,9999,9999,9999,1719062624
83,13,25,Jits_Pract_5,12,9999,9999,9999,1719562352
83,13,25,Jits_Pract_5,13,9999,9999,9999,1720063048
83,13,25,Jits_Pract_5,14,9999,9999,9999,1720562780
83,14,24,Jits_Pract_8,0,5,56,103,1740142888
83,14,24,Jits_Pract_8,1,5,63,98,1740145984
83,14,24,Jits_Pract_8,2,5,80,127,1740149184
83,14,24,Jits_Pract_8,0,5,56,103,1740942680
83,14,24,Jits_Pract_8,1,5,63,98,1740945776
83,14,24,Jits_Pract_8,2,5,80,127,1740948976
83,14,24,Jits_Pract_8,0,5,80,127,1741682924
83,14,24,Jits_Pract_8,1,1,48,44,1741742684
83,14,24,Jits_Pract_8,2,5,63,98,1741773124
83,14,24,Jits_Pract_8,3,5,56,103,1741783468
83,14,24,Jits_Pract_8,0,5,56,103,1742503368
83,14,24,Jits_Pract_8,1,5,63,98,1742512516
83,14,24,Jits_Pract_8,2,1,48,48,1742520444
83,14,24,Jits_Pract_8,3,5,80,127,1742602496
83,14,24,Jits_Pract_8,0,5,63,98,1743273240
83,14,24,Jits_Pract_8,1,5,80,127,1743302988
83,14,24,Jits_Pract_8,2,5,56,103,1743332812
83,14,24,Jits_Pract_8,3,1,48,44,1743349188
83,14,24,Jits_Pract_8,0,5,56,103,1744073064
83,14,24,Jits_Pract_8,1,1,48,50,1744074104
83,14,24,Jits_Pract_8,2,5,80,127,1744173292
83,14,24,Jits_Pract_8,3,5,63,98,1744222444
83,14,24,Jits_Pract_8,0,5,56,103,1744872912
83,14,24,Jits_Pract_8,1,5,80,127,1744923040
83,14,24,Jits_Pract_8,2,1,48,46,1744925480
83,14,24,Jits_Pract_8,3,5,63,98,1744962820
83,14,24,Jits_Pract_8,0,5,80,127,1745703248
83,14,24,Jits_Pract_8,1,1,48,49,1745716856
83,14,24,Jits_Pract_8,2,5,63,98,1745733140
83,14,24,Jits_Pract_8,3,5,56,103,1745802624
83,14,24,Jits_Pract_8,0,5,63,98,1746532992
83,14,24,Jits_Pract_8,1,5,56,103,1746562320
83,14,24,Jits_Pract_8,2,1,48,46,1746567312
83,14,24,Jits_Pract_8,3,5,80,127,1746622924
83,14,24,Jits_Pract_8,0,5,56,103,1747273036
83,14,24,Jits_Pract_8,1,5,80,127,1747276028
83,14,24,Jits_Pract_8,2,1,48,45,1747355744
83,14,24,Jits_Pract_8,3,5,63,98,1747392928
83,14,24,Jits_Pract_8,0,1,48,48,1748138264
83,14,24,Jits_Pract_8,1,5,56,103,1748152756
83,14,24,Jits_Pract_8,2,5,80,127,1748192696
83,14,24,Jits_Pract_8,3,5,63,98,1748202816
83,14,24,Jits_Pract_8,0,5,56,103,1748912440
83,14,24,Jits_Pract_8,1,5,80,127,1748933048
83,14,24,Jits_Pract_8,2,1,48,43,1748961120
83,14,24,Jits_Pract_8,3,5,63,98,1749012908
83,14,24,Jits_Pract_8,0,5,80,127,1749703064
83,14,24,Jits_Pract_8,1,1,48,47,1749793692
83,14,24,Jits_Pract_8,2,5,56,103,1749803232
83,14,24,Jits_Pract_8,3,5,63,98,1749812680
83,14,24,Jits_Pract_8,0,5,63,98,1750473020
83,14,24,Jits_Pract_8,1,5,80,127,1750532368
83,14,24,Jits_Pract_8,2,5,56,103,1750542932
83,14,24,Jits_Pract_8,3,1,48,47,1750574448
83,14,24,Jits_Pract_8,0,5,56,103,1751272772
83,14,24,Jits_Pract_8,1,1,48,47,1751286908
83,14,24,Jits_Pract_8,2,5,63,98,1751342520
83,14,24,Jits_Pract_8,3,5,80,127,1751345884
83,14,24,Jits_Pract_8,0,9999,9999,9999,1740541044
83,14,24,Jits_Pract_8,1,9999,9999,9999,1741340760
83,14,24,Jits_Pract_8,2,9999,9999,9999,1742140472
83,14,24,Jits_Pract_8,3,9999,9999,9999,1742940244
83,14,24,Jits_Pract_8,4,9999,9999,9999,1743741000
83,14,24,Jits_Pract_8,5,9999,9999,9999,1744540756
83,14,24,Jits_Pract_8,6,9999,9999,9999,1745340524
83,14,24,Jits_Pract_8,7,9999,9999,9999,1746140224
83,14,24,Jits_Pract_8,8,9999,9999,9999,1746941048
83,14,24,Jits_Pract_8,9,9999,9999,9999,1747740788
83,14,24,Jits_Pract_8,10,9999,9999,9999,1748540492
83,14,24,Jits_Pract_8,11,9999,9999,9999,1749340248
83,14,24,Jits_Pract_8,12,9999,9999,9999,1750141016
83,14,24,Jits_Pract_8,13,9999,9999,9999,1750940780
83,14,24,Jits_Pract_8,14,9999,9999,9999,1751740528
83,15,25,Jits_Pract_5,0,5,56,103,1759522164
83,15,25,Jits_Pract_5,1,5,63,98,1759525112
83,15,25,Jits_Pract_5,2,5,80,127,1759528236
83,15,25,Jits_Pract_5,0,1,48,39,1759998712
83,15,25,Jits_Pract_5,1,5,56,103,1760021956
83,15,25,Jits_Pract_5,2,5,63,98,1760024980
83,15,25,Jits_Pract_5,3,5,80,127,1760028104
83,15,25,Jits_Pract_5,0,1,48,47,1760492932
83,15,25,Jits_Pract_5,1,5,56,103,1760521728
83,15,25,Jits_Pract_5,2,5,80,127,1760531700
83,15,25,Jits_Pract_5,3,5,63,98,1760552232
83,15,25,Jits_Pract_5,0,5,63,98,1760972272
83,15,25,Jits_Pract_5,1,1,48,51,1761000744
83,15,25,Jits_Pract_5,2,5,80,127,1761002240
83,15,25,Jits_Pract_5,3,5,56,103,1761011992
83,15,25,Jits_Pract_5,0,1,48,47,1761471480
83,15,25,Jits_Pract_5,1,5,80,127,1761532416
83,15,25,Jits_Pract_5,2,5,56,103,1761541644
83,15,25,Jits_Pract_5,3,5,63,98,1761572348
83,15,25,Jits_Pract_5,0,1,48,49,1762016428
83,15,25,Jits_Pract_5,1,5,63,98,1762021700
83,15,25,Jits_Pract_5,2,5,56,103,1762051528
83,15,25,Jits_Pract_5,3,5,80,127,1762061724
83,15,25,Jits_Pract_5,0,5,56,103,1762472400
83,15,25,Jits_Pract_5,1,5,63,98,1762521556
83,15,25,Jits_Pract_5,2,1,48,54,1762541792
83,15,25,Jits_Pract_5,3,5,80,127,1762543204
83,15,25,Jits_Pract_5,0,5,80,127,1762971952
83,15,25,Jits_Pract_5,1,1,48,50,1763016052
83,15,25,Jits_Pract_5,2,5,63,98,1763022076
83,15,25,Jits_Pract_5,3,5,56,103,1763062088
83,15,25,Jits_Pract_5,0,5,56,103,1763471660
83,15,25,Jits_Pract_5,1,5,63,98,1763501560
83,15,25,Jits_Pract_5,2,1,48,53,1763544008
83,15,25,Jits_Pract_5,3,5,80,127,1763572128
83,15,25,Jits_Pract_5,0,5,56,103,1763971660
83,15,25,Jits_Pract_5,1,1,48,52,1763992616
83,15,25,Jits_Pract_5,2,5,80,127,1764031748
83,15,25,Jits_Pract_5,3,5,63,98,1764061500
83,15,25,Jits_Pract_5,0,5,56,103,1764482532
83,15,25,Jits_Pract_5,1,5,63,98,1764491756
83,15,25,Jits_Pract_5,2,1,48,52,1764526488
83,15,25,Jits_Pract_5,3,5,80,127,1764531760
83,15,25,Jits_Pract_5,0,5,63,98,1764971896
83,15,25,Jits_Pract_5,1,1,48,53,1764996516
83,15,25,Jits_Pract_5,2,5,80,127,1765051764
83,15,25,Jits_Pract_5,3,5,56,103,1765062108
83,15,25,Jits_Pract_5,0,1,48,54,1765513584
83,15,25,Jits_Pract_5,1,5,63,98,1765521780
83,15,25,Jits_Pract_5,2,5,56,103,1765561560
83,15,25,Jits_Pract_5,3,5,80,127,1765564780
83,15,25,Jits_Pract_5,0,5,56,103,1765981512
83,15,25,Jits_Pract_5,1,5,63,98,1765991884
83,15,25,Jits_Pract_5,2,1,48,52,1766031600
83,15,25,Jits_Pract_5,3,5,80,127,1766033012
83,15,25,Jits_Pract_5,0,5,56,103,1766472072
83,15,25,Jits_Pract_5,1,5,63,98,1766475064
83,15,25,Jits_Pract_5,2,5,80,127,1766491632
83,15,25,Jits_Pract_5,3,1,48,54,1766499704
83,15,25,Jits_Pract_5,0,9999,9999,9999,1759769676
83,15,25,Jits_Pract_5,1,9999,9999,9999,1760269380
83,15,25,Jits_Pract_5,2,9999,9999,9999,1760769080
83,15,25,Jits_Pract_5,3,9999,9999,9999,1761269812
83,15,25,Jits_Pract_5,4,9999,9999,9999,1761769580
83,15,25,Jits_Pract_5,5,9999,9999,9999,1762269276
83,15,25,Jits_Pract_5,6,9999,9999,9999,1762770016
83,15,25,Jits_Pract_5,7,9999,9999,9999,1763269716
83,15,25,Jits_Pract_5,8,9999,9999,9999,1763769424
83,15,25,Jits_Pract_5,9,9999,9999,9999,1764269132
83,15,25,Jits_Pract_5,10,9999,9999,9999,1764769880
83,15,25,Jits_Pract_5,11,9999,9999,9999,1765269588
83,15,25,Jits_Pract_5,12,9999,9999,9999,1765769272
83,15,25,Jits_Pract_5,13,9999,9999,9999,1766270008
83,15,25,Jits_Pract_5,14,9999,9999,9999,1766769776
83,16,15,Jits_Phase_8,0,5,56,103,1794344272
83,16,15,Jits_Phase_8,1,5,63,98,1794347296
83,16,15,Jits_Phase_8,2,5,80,127,1794350492
83,16,15,Jits_Phase_8,0,1,48,21,1794878192
83,16,15,Jits_Phase_8,1,5,56,103,1795144044
83,16,15,Jits_Phase_8,2,5,63,98,1795147140
83,16,15,Jits_Phase_8,3,5,80,127,1795150040
83,16,15,Jits_Phase_8,0,5,80,127,1795893548
83,16,15,Jits_Phase_8,1,1,48,41,1795901152
83,16,15,Jits_Phase_8,2,5,63,98,1795983924
83,16,15,Jits_Phase_8,3,5,56,103,1795994180
83,16,15,Jits_Phase_8,0,5,56,103,1796724064
83,16,15,Jits_Phase_8,1,5,63,98,1796734188
83,16,15,Jits_Phase_8,2,1,48,45,1796789068
83,16,15,Jits_Phase_8,3,5,80,127,1796824384
83,16,15,Jits_Phase_8,0,5,63,98,1797494168
83,16,15,Jits_Phase_8,1,5,80,127,1797523844
83,16,15,Jits_Phase_8,2,5,56,103,1797553444
83,16,15,Jits_Phase_8,3,1,48,48,1797577312
83,16,15,Jits_Phase_8,0,5,56,103,1798294068
83,16,15,Jits_Phase_8,1,1,48,47,1798313004
83,16,15,Jits_Phase_8,2,5,80,127,1798394160
83,16,15,Jits_Phase_8,3,5,63,98,1798444420
83,16,15,Jits_Phase_8,0,5,56,103,1799093696
83,16,15,Jits_Phase_8,1,5,80,127,1799143824
83,16,15,Jits_Phase_8,2,1,48,43,1799159080
83,16,15,Jits_Phase_8,3,5,63,98,1799183832
83,16,15,Jits_Phase_8,0,5,80,127,1799924036
83,16,15,Jits_Phase_8,1,5,63,98,1799953860
83,16,15,Jits_Phase_8,2,1,48,47,1799967020
83,16,15,Jits_Phase_8,3,5,56,103,1800024356
83,16,15,Jits_Phase_8,0,5,63,98,1800753704
83,16,15,Jits_Phase_8,1,5,56,103,1800784280
83,16,15,Jits_Phase_8,2,1,48,46,1800808096
83,16,15,Jits_Phase_8,3,5,80,127,1800843788
83,16,15,Jits_Phase_8,0,5,56,103,1801493900
83,16,15,Jits_Phase_8,1,5,80,127,1801496968
83,16,15,Jits_Phase_8,2,1,48,46,1801574360
83,16,15,Jits_Phase_8,3,5,63,98,1801613940
83,16,15,Jits_Phase_8,0,1,48,47,1802365208
83,16,15,Jits_Phase_8,1,5,56,103,1802373772
83,16,15,Jits_Phase_8,2,5,80,127,1802413712
83,16,15,Jits_Phase_8,3,5,63,98,1802423980
83,16,15,Jits_Phase_8,0,5,56,103,1803134284
83,16,15,Jits_Phase_8,1,5,80,127,1803153772
83,16,15,Jits_Phase_8,2,1,48,49,1803196368
83,16,15,Jits_Phase_8,3,5,63,98,1803233928
83,16,15,Jits_Phase_8,0,5,80,127,1803923872
83,16,15,Jits_Phase_8,1,1,48,53,1804002812
83,16,15,Jits_Phase_8,2,5,56,103,1804024112
83,16,15,Jits_Phase_8,3,5,63,98,1804034308
83,16,15,Jits_Phase_8,0,5,63,98,1804693976
83,16,15,Jits_Phase_8,1,5,80,127,1804754220
83,16,15,Jits_Phase_8,2,5,56,103,1804763592
83,16,15,Jits_Phase_8,3,1,48,52,1804801012
83,16,15,Jits_Phase_8,0,5,56,103,1805493804
83,16,15,Jits_Phase_8,1,5,63,98,1805564236
83,16,15,Jits_Phase_8,2,1,48,47,1805567824
83,16,15,Jits_Phase_8,3,5,80,127,1805568864
83,16,15,Jits_Phase_8,0,1,48,52,1806316908
83,16,15,Jits_Phase_8,1,5,63,98,1806324200
83,16,15,Jits_Phase_8,2,5,56,103,1806374400
83,16,15,Jits_Phase_8,3,5,80,127,1806377468
83,16,15,Jits_Phase_8,0,5,56,103,1807083944
83,16,15,Jits_Phase_8,1,5,80,127,1807086864
83,16,15,Jits_Phase_8,2,5,63,98,1807173924
83,16,15,Jits_Phase_8,3,1,48,66,1807174892
83,16,15,Jits_Phase_8,0,5,63,98,1807923860
83,16,15,Jits_Phase_8,1,1,48,59,1807934480
83,16,15,Jits_Phase_8,2,5,56,103,1808013788
83,16,15,Jits_Phase_8,3,5,80,127,1808044496
83,16,15,Jits_Phase_8,0,5,56,103,1808713960
83,16,15,Jits_Phase_8,1,1,48,56,1808777184
83,16,15,Jits_Phase_8,2,5,63,98,1808813700
83,16,15,Jits_Phase_8,3,5,80,127,1808844124
83,16,15,Jits_Phase_8,0,5,63,98,1809534292
83,16,15,Jits_Phase_8,1,5,56,103,1809543664
83,16,15,Jits_Phase_8,2,1,48,52,1809577124
83,16,15,Jits_Phase_8,3,5,80,127,1809633788
83,16,15,Jits_Phase_8,0,1,48,58,1810352628
83,16,15,Jits_Phase_8,1,5,63,98,1810354276
83,16,15,Jits_Phase_8,2,5,56,103,1810434516
83,16,15,Jits_Phase_8,3,5,80,127,1810437656
83,16,15,Jits_Phase_8,0,5,80,127,1811114476
83,16,15,Jits_Phase_8,1,5,63,98,1811133740
83,16,15,Jits_Phase_8,2,1,48,50,1811166972
83,16,15,Jits_Phase_8,3,5,56,103,1811194120
83,16,15,Jits_Phase_8,0,1,48,52,1811953276
83,16,15,Jits_Phase_8,1,5,56,103,1811954848
83,16,15,Jits_Phase_8,2,5,63,98,1811973584
83,16,15,Jits_Phase_8,3,5,80,127,1811976948
83,16,15,Jits_Phase_8,0,5,63,98,1812694588
83,16,15,Jits_Phase_8,1,1,48,61,1812739140
83,16,15,Jits_Phase_8,2,5,80,127,1812774232
83,16,15,Jits_Phase_8,3,5,56,103,1812783452
83,16,15,Jits_Phase_8,0,1,48,48,1813510340
83,16,15,Jits_Phase_8,1,5,63,98,1813513816
83,16,15,Jits_Phase_8,2,5,56,103,1813534056
83,16,15,Jits_Phase_8,3,5,80,127,1813584180
83,16,15,Jits_Phase_8,0,1,48,56,1814290764
83,16,15,Jits_Phase_8,1,5,80,127,1814314320
83,16,15,Jits_Phase_8,2,5,63,98,1814354260
83,16,15,Jits_Phase_8,3,5,56,103,1814373772
83,16,15,Jits_Phase_8,0,1,48,60,1815085212
83,16,15,Jits_Phase_8,1,5,56,103,1815154036
83,16,15,Jits_Phase_8,2,5,63,98,1815164528
83,16,15,Jits_Phase_8,3,5,80,127,1815184676
83,16,15,Jits_Phase_8,0,5,56,103,1815884096
83,16,15,Jits_Phase_8,1,1,48,57,1815895008
83,16,15,Jits_Phase_8,2,5,63,98,1815974620
83,16,15,Jits_Phase_8,3,5,80,127,1816033652
83,16,15,Jits_Phase_8,0,5,80,127,1816713640
83,16,15,Jits_Phase_8,1,5,56,103,1816723908
83,16,15,Jits_Phase_8,2,1,48,58,1816744416
83,16,15,Jits_Phase_8,3,5,63,98,1816793584
83,16,15,Jits_Phase_8,0,1,48,62,1817516600
83,16,15,Jits_Phase_8,1,5,63,98,1817543972
83,16,15,Jits_Phase_8,2,5,80,127,1817634016
83,16,15,Jits_Phase_8,3,5,56,103,1817644584
83,16,15,Jits_Phase_8,0,5,63,98,1818274292
83,16,15,Jits_Phase_8,1,5,80,127,1818324420
83,16,15,Jits_Phase_8,2,1,48,51,1818342680
83,16,15,Jits_Phase_8,3,5,56,103,1818383680
83,16,15,Jits_Phase_8,0,1,48,52,1819072448
83,16,15,Jits_Phase_8,1,5,56,103,1819094644
83,16,15,Jits_Phase_8,2,5,80,127,1819143652
83,16,15,Jits_Phase_8,3,5,63,98,1819163960
83,16,15,Jits_Phase_8,0,1,48,58,1819854896
83,16,15,Jits_Phase_8,1,5,56,103,1819864504
83,16,15,Jits_Phase_8,2,5,80,127,1819923776
83,16,15,Jits_Phase_8,3,5,63,98,1819993364
83,16,15,Jits_Phase_8,0,1,48,58,1820647824
83,16,15,Jits_Phase_8,1,5,56,103,1820664412
83,16,15,Jits_Phase_8,2,5,80,127,1820693864
83,16,15,Jits_Phase_8,3,5,63,98,1820723464
83,16,15,Jits_Phase_8,0,1,48,57,1821469000
83,16,15,Jits_Phase_8,1,5,56,103,1821514136
83,16,15,Jits_Phase_8,2,5,80,127,1821533624
83,16,15,Jits_Phase_8,3,5,63,98,1821594024
83,16,15,Jits_Phase_8,0,1,48,49,1822364464
83,16,15,Jits_Phase_8,1,5,80,127,1822403900
83,16,15,Jits_Phase_8,2,5,56,103,1822414468
83,16,15,Jits_Phase_8,3,5,63,98,1822424664
83,16,15,Jits_Phase_8,0,5,56,103,1823163668
83,16,15,Jits_Phase_8,1,5,80,127,1823203756
83,16,15,Jits_Phase_8,2,5,63,98,1823234552
83,16,15,Jits_Phase_8,3,1,48,56,1823288684
83,16,15,Jits_Phase_8,0,5,56,103,1823933928
83,16,15,Jits_Phase_8,1,5,63,98,1823963604
83,16,15,Jits_Phase_8,2,5,80,127,1824003464
83,16,15,Jits_Phase_8,3,1,48,48,1824033036
83,16,15,Jits_Phase_8,0,5,80,127,1824684328
83,16,15,Jits_Phase_8,1,5,63,98,1824733484
83,16,15,Jits_Phase_8,2,5,56,103,1824754240
83,16,15,Jits_Phase_8,3,1,48,47,1824784856
83,16,15,Jits_Phase_8,0,5,56,103,1825513764
83,16,15,Jits_Phase_8,1,1,48,48,1825525952
83,16,15,Jits_Phase_8,2,5,80,127,1825583588
83,16,15,Jits_Phase_8,3,5,63,98,1825643840
83,16,15,Jits_Phase_8,0,5,80,127,1826313540
83,16,15,Jits_Phase_8,1,1,48,50,1826348792
83,16,15,Jits_Phase_8,2,5,63,98,1826403616
83,16,15,Jits_Phase_8,3,5,56,103,1826424448
83,16,15,Jits_Phase_8,0,1,48,47,1827129080
83,16,15,Jits_Phase_8,1,5,63,98,1827133836
83,16,15,Jits_Phase_8,2,5,56,103,1827154296
83,16,15,Jits_Phase_8,3,5,80,127,1827194332
83,16,15,Jits_Phase_8,0,1,48,51,1827893592
83,16,15,Jits_Phase_8,1,5,80,127,1827895004
83,16,15,Jits_Phase_8,2,5,63,98,1827914196
83,16,15,Jits_Phase_8,3,5,56,103,1827994072
83,16,15,Jits_Phase_8,0,5,63,98,1828684352
83,16,15,Jits_Phase_8,1,1,48,51,1828702840
83,16,15,Jits_Phase_8,2,5,56,103,1828794808
83,16,15,Jits_Phase_8,3,5,80,127,1828797636
83,16,15,Jits_Phase_8,0,5,63,98,1829504360
83,16,15,Jits_Phase_8,1,5,56,103,1829513500
83,16,15,Jits_Phase_8,2,5,80,127,1829516724
83,16,15,Jits_Phase_8,3,1,48,52,1829537224
83,16,15,Jits_Phase_8,0,5,56,103,1830283648
83,16,15,Jits_Phase_8,1,1,48,57,1830300172
83,16,15,Jits_Phase_8,2,5,80,127,1830403428
83,16,15,Jits_Phase_8,3,5,63,98,1830444264
83,16,15,Jits_Phase_8,0,1,48,51,1831066756
83,16,15,Jits_Phase_8,1,5,56,103,1831103796
83,16,15,Jits_Phase_8,2,5,80,127,1831183800
83,16,15,Jits_Phase_8,3,5,63,98,1831204332
83,16,15,Jits_Phase_8,0,5,56,103,1831903560
83,16,15,Jits_Phase_8,1,1,48,53,1831904524
83,16,15,Jits_Phase_8,2,5,63,98,1832014124
83,16,15,Jits_Phase_8,3,5,80,127,1832017488
83,16,15,Jits_Phase_8,0,5,56,103,1832744460
83,16,15,Jits_Phase_8,1,5,80,127,1832774136
83,16,15,Jits_Phase_8,2,1,48,48,1832793696
83,16,15,Jits_Phase_8,3,5,63,98,1832794884
83,16,15,Jits_Phase_8,0,5,63,98,1833533748
83,16,15,Jits_Phase_8,1,5,56,103,1833544240
83,16,15,Jits_Phase_8,2,5,80,127,1833554512
83,16,15,Jits_Phase_8,3,1,48,58,1833578784
83,16,15,Jits_Phase_8,0,5,80,127,1834324360
83,16,15,Jits_Phase_8,1,1,48,50,1834328600
83,16,15,Jits_Phase_8,2,5,56,103,1834373532
83,16,15,Jits_Phase_8,3,5,63,98,1834413472
83,16,15,Jits_Phase_8,0,1,48,41,1835086040
83,16,15,Jits_Phase_8,1,5,80,127,1835143632
83,16,15,Jits_Phase_8,2,5,63,98,1835164016
83,16,15,Jits_Phase_8,3,5,56,103,1835214128
83,16,15,Jits_Phase_8,0,1,48,40,1835887988
83,16,15,Jits_Phase_8,1,5,80,127,1835953500
83,16,15,Jits_Phase_8,2,5,56,103,1835984208
83,16,15,Jits_Phase_8,3,5,63,98,1836053964
83,16,15,Jits_Phase_8,0,1,48,40,1836770076
83,16,15,Jits_Phase_8,1,5,56,103,1836803304
83,16,15,Jits_Phase_8,2,5,80,127,1836813872
83,16,15,Jits_Phase_8,3,5,63,98,1836853664
83,16,15,Jits_Phase_8,0,5,56,103,1837514288
83,16,15,Jits_Phase_8,1,5,63,98,1837533480
83,16,15,Jits_Phase_8,2,5,80,127,1837604280
83,16,15,Jits_Phase_8,3,1,48,45,1837609568
83,16,15,Jits_Phase_8,0,1,48,47,1838332700
83,16,15,Jits_Phase_8,1,5,63,98,1838334208
83,16,15,Jits_Phase_8,2,5,80,127,1838393628
83,16,15,Jits_Phase_8,3,5,56,103,1838414160
83,16,15,Jits_Phase_8,0,5,80,127,1839124080
83,16,15,Jits_Phase_8,1,5,56,103,1839153460
83,16,15,Jits_Phase_8,2,1,48,64,1839174188
83,16,15,Jits_Phase_8,3,5,63,98,1839184252
83,16,15,Jits_Phase_8,0,5,56,103,1839923552
83,16,15,Jits_Phase_8,1,1,48,67,1839950116
83,16,15,Jits_Phase_8,2,5,63,98,1839984108
83,16,15,Jits_Phase_8,3,5,80,127,1840044424
83,16,15,Jits_Phase_8,0,5,80,127,1840743652
83,16,15,Jits_Phase_8,1,1,48,55,1840744620
83,16,15,Jits_Phase_8,2,5,56,103,1840764256
83,16,15,Jits_Phase_8,3,5,63,98,1840834008
83,16,15,Jits_Phase_8,0,1,48,56,1841538516
83,16,15,Jits_Phase_8,1,5,80,127,1841543420
83,16,15,Jits_Phase_8,2,5,63,98,1841564176
83,16,15,Jits_Phase_8,3,5,56,103,1841593848
83,16,15,Jits_Phase_8,0,1,48,51,1842331596
83,16,15,Jits_Phase_8,1,5,80,127,1842334256
83,16,15,Jits_Phase_8,2,5,63,98,1842353596
83,16,15,Jits_Phase_8,3,5,56,103,1842413984
83,16,15,Jits_Phase_8,0,5,80,127,1843133792
83,16,15,Jits_Phase_8,1,1,48,50,1843136612
83,16,15,Jits_Phase_8,2,5,56,103,1843234108
83,16,15,Jits_Phase_8,3,5,63,98,1843264064
83,16,15,Jits_Phase_8,0,5,63,98,1843924352
83,16,15,Jits_Phase_8,1,1,48,54,1843968820
83,16,15,Jits_Phase_8,2,5,80,127,1843973576
83,16,15,Jits_Phase_8,3,5,56,103,1843994108
83,16,15,Jits_Phase_8,0,1,48,53,1844731036
83,16,15,Jits_Phase_8,1,5,80,127,1844764332
83,16,15,Jits_Phase_8,2,5,56,103,1844793856
83,16,15,Jits_Phase_8,3,5,63,98,1844796924
83,16,15,Jits_Phase_8,0,1,48,59,1845590204
83,16,15,Jits_Phase_8,1,5,63,98,1845614160
83,16,15,Jits_Phase_8,2,5,56,103,1845654024
83,16,15,Jits_Phase_8,3,5,80,127,1845674336
83,16,15,Jits_Phase_8,0,5,80,127,1846373700
83,16,15,Jits_Phase_8,1,1,48,59,1846383644
83,16,15,Jits_Phase_8,2,5,63,98,1846453492
83,16,15,Jits_Phase_8,3,5,56,103,1846493560
83,16,15,Jits_Phase_8,0,5,63,98,1847194376
83,16,15,Jits_Phase_8,1,1,48,66,1847199144
83,16,15,Jits_Phase_8,2,5,80,127,1847274092
83,16,15,Jits_Phase_8,3,5,56,103,1847294256
83,16,15,Jits_Phase_8,0,1,48,64,1847984892
83,16,15,Jits_Phase_8,1,5,56,103,1848033624
83,16,15,Jits_Phase_8,2,5,63,98,1848044040
83,16,15,Jits_Phase_8,3,5,80,127,1848084036
83,16,15,Jits_Phase_8,0,5,56,103,1848753448
83,16,15,Jits_Phase_8,1,5,80,127,1848756516
83,16,15,Jits_Phase_8,2,1,48,66,1848809300
83,16,15,Jits_Phase_8,3,5,63,98,1848894060
83,16,15,Jits_Phase_8,0,5,56,103,1849543916
83,16,15,Jits_Phase_8,1,1,48,62,1849569732
83,16,15,Jits_Phase_8,2,5,63,98,1849634048
83,16,15,Jits_Phase_8,3,5,80,127,1849704032
83,16,15,Jits_Phase_8,0,1,48,66,1850385764
83,16,15,Jits_Phase_8,1,5,63,98,1850423544
83,16,15,Jits_Phase_8,2,5,80,127,1850426988
83,16,15,Jits_Phase_8,3,5,56,103,1850484172
83,16,15,Jits_Phase_8,0,1,48,64,1851239028
83,16,15,Jits_Phase_8,1,5,80,127,1851264460
83,16,15,Jits_Phase_8,2,5,56,103,1851284020
83,16,15,Jits_Phase_8,3,5,63,98,1851294068
83,16,15,Jits_Phase_8,0,5,56,103,1851974076
83,16,15,Jits_Phase_8,1,5,63,98,1851984344
83,16,15,Jits_Phase_8,2,5,80,127,1852053976
83,16,15,Jits_Phase_8,3,1,48,64,1852114852
83,16,15,Jits_Phase_8,0,5,80,127,1852773944
83,16,15,Jits_Phase_8,1,1,48,64,1852799088
83,16,15,Jits_Phase_8,2,5,56,103,1852823844
83,16,15,Jits_Phase_8,3,5,63,98,1852874116
83,16,15,Jits_Phase_8,0,1,48,57,1853577432
83,16,15,Jits_Phase_8,1,5,56,103,1853654476
83,16,15,Jits_Phase_8,2,5,63,98,1853663552
83,16,15,Jits_Phase_8,3,5,80,127,1853703400
83,16,15,Jits_Phase_8,0,5,56,103,1854393860
83,16,15,Jits_Phase_8,1,1,48,61,1854400796
83,16,15,Jits_Phase_8,2,5,63,98,1854433720
83,16,15,Jits_Phase_8,3,5,80,127,1854483920
83,16,15,Jits_Phase_8,0,5,80,127,1855153852
83,16,15,Jits_Phase_8,1,1,48,55,1855191744
83,16,15,Jits_Phase_8,2,5,56,103,1855203900
83,16,15,Jits_Phase_8,3,5,63,98,1855224060
83,16,15,Jits_Phase_8,0,1,48,56,1855928108
83,16,15,Jits_Phase_8,1,5,80,127,1855963580
83,16,15,Jits_Phase_8,2,5,63,98,1856024932
83,16,15,Jits_Phase_8,3,5,56,103,1856104148
83,16,15,Jits_Phase_8,0,5,80,127,1856743720
83,16,15,Jits_Phase_8,1,5,56,103,1856783956
83,16,15,Jits_Phase_8,2,1,48,64,1856804412
83,16,15,Jits_Phase_8,3,5,63,98,1856805904
83,16,15,Jits_Phase_8,0,1,48,55,1857553868
83,16,15,Jits_Phase_8,1,5,56,103,1857593972
83,16,15,Jits_Phase_8,2,5,80,127,1857604168
83,16,15,Jits_Phase_8,3,5,63,98,1857643832
83,16,15,Jits_Phase_8,0,1,48,59,1858382172
83,16,15,Jits_Phase_8,1,5,56,103,1858464104
83,16,15,Jits_Phase_8,2,5,63,98,1858504032
83,16,15,Jits_Phase_8,3,5,80,127,1858507320
83,16,15,Jits_Phase_8,0,5,63,98,1859133784
83,16,15,Jits_Phase_8,1,5,80,127,1859173824
83,16,15,Jits_Phase_8,2,1,48,59,1859214852
83,16,15,Jits_Phase_8,3,5,56,103,1859244396
83,16,15,Jits_Phase_8,0,5,63,98,1859904024
83,16,15,Jits_Phase_8,1,1,48,53,1859958040
83,16,15,Jits_Phase_8,2,5,56,103,1859983912
83,16,15,Jits_Phase_8,3,5,80,127,1860044080
83,16,15,Jits_Phase_8,0,5,80,127,1860713772
83,16,15,Jits_Phase_8,1,1,48,54,1860718836
83,16,15,Jits_Phase_8,2,5,63,98,1860764116
83,16,15,Jits_Phase_8,3,5,56,103,1860793864
83,16,15,Jits_Phase_8,0,5,56,103,1861504324
83,16,15,Jits_Phase_8,1,1,48,61,1861521540
83,16,15,Jits_Phase_8,2,5,63,98,1861553472
83,16,15,Jits_Phase_8,3,5,80,127,1861563892
83,16,15,Jits_Phase_8,0,1,48,52,1862282556
83,16,15,Jits_Phase_8,1,5,56,103,1862314340
83,16,15,Jits_Phase_8,2,5,63,98,1862424012
83,16,15,Jits_Phase_8,3,5,80,127,1862444396
83,16,15,Jits_Phase_8,0,5,63,98,1863114108
83,16,15,Jits_Phase_8,1,1,48,59,1863145552
83,16,15,Jits_Phase_8,2,5,80,127,1863164228
83,16,15,Jits_Phase_8,3,5,56,103,1863254788
83,16,15,Jits_Phase_8,0,5,63,98,1863903752
83,16,15,Jits_Phase_8,1,5,80,127,1863934248
83,16,15,Jits_Phase_8,2,1,48,54,1863952660
83,16,15,Jits_Phase_8,3,5,56,103,1864024524
83,16,15,Jits_Phase_8,0,5,63,98,1864704700
83,16,15,Jits_Phase_8,1,5,56,103,1864713552
83,16,15,Jits_Phase_8,2,1,48,57,1864751440
83,16,15,Jits_Phase_8,3,5,80,127,1864813960
83,16,15,Jits_Phase_8,0,1,48,56,1865479392
83,16,15,Jits_Phase_8,1,5,63,98,1865603728
83,16,15,Jits_Phase_8,2,5,80,127,1865634300
83,16,15,Jits_Phase_8,3,5,56,103,1865663904
83,16,15,Jits_Phase_8,0,1,48,57,1866315952
83,16,15,Jits_Phase_8,1,5,80,127,1866423872
83,16,15,Jits_Phase_8,2,5,63,98,1866433992
83,16,15,Jits_Phase_8,3,5,56,103,1866463820
83,16,15,Jits_Phase_8,0,5,80,127,1867124168
83,16,15,Jits_Phase_8,1,5,63,98,1867143656
83,16,15,Jits_Phase_8,2,1,48,53,1867180928
83,16,15,Jits_Phase_8,3,5,56,103,1867193772
83,16,15,Jits_Phase_8,0,5,63,98,1867953604
83,16,15,Jits_Phase_8,1,1,48,53,1867992992
83,16,15,Jits_Phase_8,2,5,80,127,1868013916
83,16,15,Jits_Phase_8,3,5,56,103,1868034524
83,16,15,Jits_Phase_8,0,5,63,98,1868714472
83,16,15,Jits_Phase_8,1,5,56,103,1868763704
83,16,15,Jits_Phase_8,2,5,80,127,1868773604
83,16,15,Jits_Phase_8,3,1,48,54,1868813732
83,16,15,Jits_Phase_8,0,5,56,103,1869543752
83,16,15,Jits_Phase_8,1,5,80,127,1869554096
83,16,15,Jits_Phase_8,2,1,48,75,1869558864
83,16,15,Jits_Phase_8,3,5,63,98,1869655368
83,16,15,Jits_Phase_8,0,5,80,127,1870303736
83,16,15,Jits_Phase_8,1,5,63,98,1870313784
83,16,15,Jits_Phase_8,2,1,48,78,1870376760
83,16,15,Jits_Phase_8,3,5,56,103,1870464316
83,16,15,Jits_Phase_8,0,5,63,98,1871113776
83,16,15,Jits_Phase_8,1,5,80,127,1871153564
83,16,15,Jits_Phase_8,2,1,48,67,1871191604
83,16,15,Jits_Phase_8,3,5,56,103,1871234500
83,16,15,Jits_Phase_8,0,5,56,103,1871864308
83,16,15,Jits_Phase_8,1,1,48,70,1871945716
83,16,15,Jits_Phase_8,2,5,80,127,1871963576
83,16,15,Jits_Phase_8,3,5,63,98,1871983912
83,16,15,Jits_Phase_8,0,5,80,127,1872684616
83,16,15,Jits_Phase_8,1,5,56,103,1872693692
83,16,15,Jits_Phase_8,2,1,48,69,1872704004
83,16,15,Jits_Phase_8,3,5,63,98,1872783840
83,16,15,Jits_Phase_8,0,1,48,69,1873481972
83,16,15,Jits_Phase_8,1,5,56,103,1873484088
83,16,15,Jits_Phase_8,2,5,63,98,1873503972
83,16,15,Jits_Phase_8,3,5,80,127,1873583600
83,16,15,Jits_Phase_8,0,5,63,98,1874233660
83,16,15,Jits_Phase_8,1,5,56,103,1874323816
83,16,15,Jits_Phase_8,2,5,80,127,1874327104
83,16,15,Jits_Phase_8,3,1,48,70,1874348580
83,16,15,Jits_Phase_8,0,5,56,103,1875064224
83,16,15,Jits_Phase_8,1,1,48,74,1875100228
83,16,15,Jits_Phase_8,2,5,80,127,1875123560
83,16,15,Jits_Phase_8,3,5,63,98,1875133756
83,16,15,Jits_Phase_8,0,1,48,71,1875847028
83,16,15,Jits_Phase_8,1,5,80,127,1875913964
83,16,15,Jits_Phase_8,2,5,56,103,1875924532
83,16,15,Jits_Phase_8,3,5,63,98,1875927448
83,16,15,Jits_Phase_8,0,1,48,71,1876660184
83,16,15,Jits_Phase_8,1,5,56,103,1876673856
83,16,15,Jits_Phase_8,2,5,80,127,1876684200
83,16,15,Jits_Phase_8,3,5,63,98,1876703612
83,16,15,Jits_Phase_8,0,5,63,98,1877443952
83,16,15,Jits_Phase_8,1,1,48,70,1877462512
83,16,15,Jits_Phase_8,2,5,80,127,1877504336
83,16,15,Jits_Phase_8,3,5,56,103,1877553712
83,16,15,Jits_Phase_8,0,1,48,73,1878280532
83,16,15,Jits_Phase_8,1,5,63,98,1878323572
83,16,15,Jits_Phase_8,2,5,56,103,1878333696
83,16,15,Jits_Phase_8,3,5,80,127,1878383980
83,16,15,Jits_Phase_8,0,5,63,98,1879023924
83,16,15,Jits_Phase_8,1,5,80,127,1879043408
83,16,15,Jits_Phase_8,2,5,56,103,1879053752
83,16,15,Jits_Phase_8,3,1,48,69,1879131420
83,16,15,Jits_Phase_8,0,5,63,98,1879823672
83,16,15,Jits_Phase_8,1,5,80,127,1879827036
83,16,15,Jits_Phase_8,2,5,56,103,1879863608
83,16,15,Jits_Phase_8,3,1,48,66,1879897960
83,16,15,Jits_Phase_8,0,1,48,63,1880637384
83,16,15,Jits_Phase_8,1,5,63,98,1880694304
83,16,15,Jits_Phase_8,2,5,80,127,1880723836
83,16,15,Jits_Phase_8,3,5,56,103,1880734164
83,16,15,Jits_Phase_8,0,1,48,64,1881441836
83,16,15,Jits_Phase_8,1,5,56,103,1881443648
83,16,15,Jits_Phase_8,2,5,80,127,1881474520
83,16,15,Jits_Phase_8,3,5,63,98,1881504048
83,16,15,Jits_Phase_8,0,1,48,62,1882226440
83,16,15,Jits_Phase_8,1,5,63,98,1882343712
83,16,15,Jits_Phase_8,2,5,56,103,1882383724
83,16,15,Jits_Phase_8,3,5,80,127,1882386792
83,16,15,Jits_Phase_8,0,5,80,127,1883044368
83,16,15,Jits_Phase_8,1,1,48,55,1883096488
83,16,15,Jits_Phase_8,2,5,56,103,1883123936
83,16,15,Jits_Phase_8,3,5,63,98,1883174356
83,16,15,Jits_Phase_8,0,5,80,127,1883823468
83,16,15,Jits_Phase_8,1,5,56,103,1883843924
83,16,15,Jits_Phase_8,2,5,63,98,1883934204
83,16,15,Jits_Phase_8,3,1,48,61,1883959944
83,16,15,Jits_Phase_8,0,5,80,127,1884664440
83,16,15,Jits_Phase_8,1,1,48,65,1884696552
83,16,15,Jits_Phase_8,2,5,63,98,1884704224
83,16,15,Jits_Phase_8,3,5,56,103,1884743936
83,16,15,Jits_Phase_8,0,1,48,56,1885456836
83,16,15,Jits_Phase_8,1,5,63,98,1885474320
83,16,15,Jits_Phase_8,2,5,80,127,1885533520
83,16,15,Jits_Phase_8,3,5,56,103,1885564248
83,16,15,Jits_Phase_8,0,1,48,56,1886268872
83,16,15,Jits_Phase_8,1,5,56,103,1886313808
83,16,15,Jits_Phase_8,2,5,80,127,1886343408
83,16,15,Jits_Phase_8,3,5,63,98,1886433600
83,16,15,Jits_Phase_8,0,5,56,103,1887123688
83,16,15,Jits_Phase_8,1,1,48,68,1887139388
83,16,15,Jits_Phase_8,2,5,80,127,1887234476
83,16,15,Jits_Phase_8,3,5,63,98,1887264224
83,16,15,Jits_Phase_8,0,5,56,103,1887973736
83,16,15,Jits_Phase_8,1,1,48,60,1887985848
83,16,15,Jits_Phase_8,2,5,63,98,1888034496
83,16,15,Jits_Phase_8,3,5,80,127,1888063872
83,16,15,Jits_Phase_8,0,5,56,103,1888743772
83,16,15,Jits_Phase_8,1,5,63,98,1888813456
83,16,15,Jits_Phase_8,2,5,80,127,1888833988
83,16,15,Jits_Phase_8,3,1,48,61,1888834952
83,16,15,Jits_Phase_8,0,5,80,127,1889513876
83,16,15,Jits_Phase_8,1,5,63,98,1889534488
83,16,15,Jits_Phase_8,2,5,56,103,1889583492
83,16,15,Jits_Phase_8,3,1,48,55,1889591096
83,16,15,Jits_Phase_8,0,5,63,98,1890334024
83,16,15,Jits_Phase_8,1,1,48,60,1890339680
83,16,15,Jits_Phase_8,2,5,80,127,1890344360
83,16,15,Jits_Phase_8,3,5,56,103,1890393516
83,16,15,Jits_Phase_8,0,5,63,98,1891133780
83,16,15,Jits_Phase_8,1,1,48,66,1891194992
83,16,15,Jits_Phase_8,2,5,80,127,1891203556
83,16,15,Jits_Phase_8,3,5,56,103,1891223940
83,16,15,Jits_Phase_8,0,5,63,98,1891964124
83,16,15,Jits_Phase_8,1,5,80,127,1891967424
83,16,15,Jits_Phase_8,2,1,48,58,1891972428
83,16,15,Jits_Phase_8,3,5,56,103,1892034028
83,16,15,Jits_Phase_8,0,5,80,127,1892713836
83,16,15,Jits_Phase_8,1,5,56,103,1892734296
83,16,15,Jits_Phase_8,2,5,63,98,1892743520
83,16,15,Jits_Phase_8,3,1,48,63,1892757724
83,16,15,Jits_Phase_8,0,1,48,61,1893504132
83,16,15,Jits_Phase_8,1,5,56,103,1893534196
83,16,15,Jits_Phase_8,2,5,63,98,1893624312
83,16,15,Jits_Phase_8,3,5,80,127,1893627528
83,16,15,Jits_Phase_8,0,5,80,127,1894304280
83,16,15,Jits_Phase_8,1,5,56,103,1894314328
83,16,15,Jits_Phase_8,2,5,63,98,1894333668
83,16,15,Jits_Phase_8,3,1,48,68,1894349968
83,16,15,Jits_Phase_8,0,5,63,98,1895103824
83,16,15,Jits_Phase_8,1,1,48,59,1895107840
83,16,15,Jits_Phase_8,2,5,80,127,1895164208
83,16,15,Jits_Phase_8,3,5,56,103,1895173356
83,16,15,Jits_Phase_8,0,1,48,63,1895878436
83,16,15,Jits_Phase_8,1,5,63,98,1895974280
83,16,15,Jits_Phase_8,2,5,80,127,1896004180
83,16,15,Jits_Phase_8,3,5,56,103,1896043844
83,16,15,Jits_Phase_8,0,5,56,103,1896763652
83,16,15,Jits_Phase_8,1,5,80,127,1896774144
83,16,15,Jits_Phase_8,2,1,48,64,1896777040
83,16,15,Jits_Phase_8,3,5,63,98,1896814248
83,16,15,Jits_Phase_8,0,5,80,127,1897523564
83,16,15,Jits_Phase_8,1,5,56,103,1897603384
83,16,15,Jits_Phase_8,2,5,63,98,1897613580
83,16,15,Jits_Phase_8,3,1,48,70,1897617148
83,16,15,Jits_Phase_8,0,5,80,127,1898373484
83,16,15,Jits_Phase_8,1,1,48,73,1898427620
83,16,15,Jits_Phase_8,2,5,56,103,1898454244
83,16,15,Jits_Phase_8,3,5,63,98,1898463616
83,16,15,Jits_Phase_8,0,1,48,60,1899204400
83,16,15,Jits_Phase_8,1,5,80,127,1899214164
83,16,15,Jits_Phase_8,2,5,56,103,1899264368
83,16,15,Jits_Phase_8,3,5,63,98,1899313428
83,16,15,Jits_Phase_8,0,1,48,67,1900089100
83,16,15,Jits_Phase_8,1,5,56,103,1900154336
83,16,15,Jits_Phase_8,2,5,63,98,1900157184
83,16,15,Jits_Phase_8,3,5,80,127,1900204452
83,16,15,Jits_Phase_8,0,1,48,52,1900949264
83,16,15,Jits_Phase_8,1,5,56,103,1900973276
83,16,15,Jits_Phase_8,2,5,63,98,1901004300
83,16,15,Jits_Phase_8,3,5,80,127,1901014344
83,16,15,Jits_Phase_8,0,5,63,98,1901684188
83,16,15,Jits_Phase_8,1,5,56,103,1901753648
83,16,15,Jits_Phase_8,2,1,48,51,1901779236
83,16,15,Jits_Phase_8,3,5,80,127,1901804064
83,16,15,Jits_Phase_8,0,5,63,98,1902513472
83,16,15,Jits_Phase_8,1,5,56,103,1902523812
83,16,15,Jits_Phase_8,2,5,80,127,1902526880
83,16,15,Jits_Phase_8,3,1,48,52,1902570676
83,16,15,Jits_Phase_8,0,5,80,127,1903264140
83,16,15,Jits_Phase_8,1,5,56,103,1903323484
83,16,15,Jits_Phase_8,2,1,48,49,1903370644
83,16,15,Jits_Phase_8,3,5,63,98,1903413608
83,16,15,Jits_Phase_8,0,5,80,127,1904064060
83,16,15,Jits_Phase_8,1,1,48,57,1904143900
83,16,15,Jits_Phase_8,2,5,56,103,1904164076
83,16,15,Jits_Phase_8,3,5,63,98,1904204088
83,16,15,Jits_Phase_8,0,5,56,103,1904913876
83,16,15,Jits_Phase_8,1,5,63,98,1904934188
83,16,15,Jits_Phase_8,2,5,80,127,1904974052
83,16,15,Jits_Phase_8,3,1,48,51,1904983248
83,16,15,Jits_Phase_8,0,5,63,98,1905684128
83,16,15,Jits_Phase_8,1,5,56,103,1905704292
83,16,15,Jits_Phase_8,2,1,48,55,1905759796
83,16,15,Jits_Phase_8,3,5,80,127,1905803804
83,16,15,Jits_Phase_8,0,5,63,98,1906474296
83,16,15,Jits_Phase_8,1,1,48,59,1906552664
83,16,15,Jits_Phase_8,2,5,80,127,1906583928
83,16,15,Jits_Phase_8,3,5,56,103,1906613828
83,16,15,Jits_Phase_8,0,5,56,103,1907293536
83,16,15,Jits_Phase_8,1,1,48,69,1907321372
83,16,15,Jits_Phase_8,2,5,63,98,1907324252
83,16,15,Jits_Phase_8,3,5,80,127,1907373332
83,16,15,Jits_Phase_8,0,5,63,98,1908063564
83,16,15,Jits_Phase_8,1,5,56,103,1908094284
83,16,15,Jits_Phase_8,2,1,48,68,1908132324
83,16,15,Jits_Phase_8,3,5,80,127,1908143508
83,16,15,Jits_Phase_8,0,1,48,64,1908874968
83,16,15,Jits_Phase_8,1,5,56,103,1908894024
83,16,15,Jits_Phase_8,2,5,63,98,1908913736
83,16,15,Jits_Phase_8,3,5,80,127,1908994412
83,16,15,Jits_Phase_8,0,5,63,98,1909664192
83,16,15,Jits_Phase_8,1,5,56,103,1909723464
83,16,15,Jits_Phase_8,2,1,48,64,1909730624
83,16,15,Jits_Phase_8,3,5,80,127,1909754104
83,16,15,Jits_Phase_8,0,1,48,60,1910482576
83,16,15,Jits_Phase_8,1,5,56,103,1910503948
83,16,15,Jits_Phase_8,2,5,80,127,1910564196
83,16,15,Jits_Phase_8,3,5,63,98,1910604192
83,16,15,Jits_Phase_8,0,5,63,98,1911283940
83,16,15,Jits_Phase_8,1,1,48,61,1911320916
83,16,15,Jits_Phase_8,2,5,56,103,1911343500
83,16,15,Jits_Phase_8,3,5,80,127,1911414028
83,16,15,Jits_Phase_8,0,1,48,59,1912140748
83,16,15,Jits_Phase_8,1,5,56,103,1912163736
83,16,15,Jits_Phase_8,2,5,63,98,1912173928
83,16,15,Jits_Phase_8,3,5,80,127,1912177148
83,16,15,Jits_Phase_8,0,5,63,98,1912903912
83,16,15,Jits_Phase_8,1,1,48,65,1912961824
83,16,15,Jits_Phase_8,2,5,56,103,1912963420
83,16,15,Jits_Phase_8,3,5,80,127,1912966264
83,16,15,Jits_Phase_8,0,5,63,98,1913684328
83,16,15,Jits_Phase_8,1,1,48,70,1913707176
83,16,15,Jits_Phase_8,2,5,80,127,1913714024
83,16,15,Jits_Phase_8,3,5,56,103,1913733360
83,16,15,Jits_Phase_8,0,5,56,103,1914413580
83,16,15,Jits_Phase_8,1,1,48,60,1914463288
83,16,15,Jits_Phase_8,2,5,63,98,1914464848
83,16,15,Jits_Phase_8,3,5,80,127,1914543520
83,16,15,Jits_Phase_8,4,1,48,38,1914551800
83,16,15,Jits_Phase_8,0,5,80,127,1915113756
83,16,15,Jits_Phase_8,1,5,63,98,1915153992
83,16,15,Jits_Phase_8,2,5,56,103,1915174376
83,16,15,Jits_Phase_8,3,1,48,62,1915260892
83,16,15,Jits_Phase_8,0,1,48,50,1915954476
83,16,15,Jits_Phase_8,1,5,56,103,1915984244
83,16,15,Jits_Phase_8,2,5,80,127,1915993392
83,16,15,Jits_Phase_8,3,5,63,98,1916013876
83,16,15,Jits_Phase_8,0,1,48,65,1916742552
83,16,15,Jits_Phase_8,1,5,56,103,1916763704
83,16,15,Jits_Phase_8,2,5,63,98,1916813756
83,16,15,Jits_Phase_8,3,5,80,127,1916844312
83,16,15,Jits_Phase_8,0,5,56,103,1917514072
83,16,15,Jits_Phase_8,1,5,63,98,1917524272
83,16,15,Jits_Phase_8,2,5,80,127,1917573672
83,16,15,Jits_Phase_8,3,1,48,65,1917578736
83,16,15,Jits_Phase_8,0,5,56,103,1918303600
83,16,15,Jits_Phase_8,1,5,80,127,1918306668
83,16,15,Jits_Phase_8,2,1,48,63,1918355116
83,16,15,Jits_Phase_8,3,5,63,98,1918464500
83,16,15,Jits_Phase_8,0,5,63,98,1919123744
83,16,15,Jits_Phase_8,1,1,48,64,1919143056
83,16,15,Jits_Phase_8,2,5,56,103,1919193644
83,16,15,Jits_Phase_8,3,5,80,127,1919234912
83,16,15,Jits_Phase_8,0,1,48,66,1919891320
83,16,15,Jits_Phase_8,1,5,63,98,1919963584
83,16,15,Jits_Phase_8,2,5,56,103,1920053700
83,16,15,Jits_Phase_8,3,5,80,127,1920056840
83,16,15,Jits_Phase_8,0,5,56,103,1920743864
83,16,15,Jits_Phase_8,1,1,48,64,1920796208
83,16,15,Jits_Phase_8,2,5,63,98,1920833844
83,16,15,Jits_Phase_8,3,5,80,127,1920844040
83,16,15,Jits_Phase_8,0,5,56,103,1921513820
83,16,15,Jits_Phase_8,1,1,48,65,1921562968
83,16,15,Jits_Phase_8,2,5,63,98,1921564612
83,16,15,Jits_Phase_8,3,5,80,127,1921593840
83,16,15,Jits_Phase_8,0,1,48,63,1922306812
83,16,15,Jits_Phase_8,1,5,63,98,1922393604
83,16,15,Jits_Phase_8,2,5,80,127,1922403808
83,16,15,Jits_Phase_8,3,5,56,103,1922464196
83,16,15,Jits_Phase_8,0,5,63,98,1923114328
83,16,15,Jits_Phase_8,1,1,48,66,1923157828
83,16,15,Jits_Phase_8,2,5,80,127,1923173692
83,16,15,Jits_Phase_8,3,5,56,103,1923213852
83,16,15,Jits_Phase_8,0,1,48,67,1923960896
83,16,15,Jits_Phase_8,1,5,56,103,1924013600
83,16,15,Jits_Phase_8,2,5,80,127,1924033764
83,16,15,Jits_Phase_8,3,5,63,98,1924055404
83,16,15,Jits_Phase_8,0,5,63,98,1924734404
83,16,15,Jits_Phase_8,1,5,56,103,1924753744
83,16,15,Jits_Phase_8,2,5,80,127,1924793756
83,16,15,Jits_Phase_8,3,1,48,65,1924805716
83,16,15,Jits_Phase_8,0,5,63,98,1925544496
83,16,15,Jits_Phase_8,1,1,48,64,1925566724
83,16,15,Jits_Phase_8,2,5,80,127,1925573944
83,16,15,Jits_Phase_8,3,5,56,103,1925593652
83,16,15,Jits_Phase_8,0,5,80,127,1926314360
83,16,15,Jits_Phase_8,1,1,48,60,1926335460
83,16,15,Jits_Phase_8,2,5,56,103,1926363584
83,16,15,Jits_Phase_8,3,5,63,98,1926423972
83,16,15,Jits_Phase_8,0,5,63,98,1927103944
83,16,15,Jits_Phase_8,1,1,48,62,1927124896
83,16,15,Jits_Phase_8,2,5,56,103,1927223652
83,16,15,Jits_Phase_8,3,5,80,127,1927254672
83,16,15,Jits_Phase_8,0,5,80,127,1927943492
83,16,15,Jits_Phase_8,1,1,48,55,1927957920
83,16,15,Jits_Phase_8,2,5,63,98,1927964020
83,16,15,Jits_Phase_8,3,5,56,103,1928033724
83,16,15,Jits_Phase_8,0,5,63,98,1928763792
83,16,15,Jits_Phase_8,1,5,56,103,1928773988
83,16,15,Jits_Phase_8,2,1,48,59,1928794940
83,16,15,Jits_Phase_8,3,5,80,127,1928853948
83,16,15,Jits_Phase_8,0,1,48,47,1929593372
83,16,15,Jits_Phase_8,1,5,56,103,1929623812
83,16,15,Jits_Phase_8,2,5,80,127,1929653636
83,16,15,Jits_Phase_8,3,5,63,98,1929663832
83,16,15,Jits_Phase_8,0,9999,9999,9999,1794741336
83,16,15,Jits_Phase_8,1,9999,9999,9999,1795542080
83,16,15,Jits_Phase_8,2,9999,9999,9999,1796352100
83,16,15,Jits_Phase_8,3,9999,9999,9999,1797162064
83,16,15,Jits_Phase_8,4,9999,9999,9999,1797961832
83,16,15,Jits_Phase_8,5,9999,9999,9999,1798761540
83,16,15,Jits_Phase_8,6,9999,9999,9999,1799561316
83,16,15,Jits_Phase_8,7,9999,9999,9999,1800362060
83,16,15,Jits_Phase_8,8,9999,9999,9999,1801161840
83,16,15,Jits_Phase_8,9,9999,9999,9999,1801961584
83,16,15,Jits_Phase_8,10,9999,9999,9999,1802761288
83,16,15,Jits_Phase_8,11,9999,9999,9999,1803562096
83,16,15,Jits_Phase_8,12,9999,9999,9999,1804361800
83,16,15,Jits_Phase_8,13,9999,9999,9999,1805161592
83,16,15,Jits_Phase_8,14,9999,9999,9999,1805961340
83,16,15,Jits_Phase_8,15,9999,9999,9999,1806762072
83,16,15,Jits_Phase_8,16,9999,9999,9999,1807561816
83,16,15,Jits_Phase_8,17,9999,9999,9999,1808361592
83,16,15,Jits_Phase_8,18,9999,9999,9999,1809161280
83,16,15,Jits_Phase_8,19,9999,9999,9999,1809962100
83,16,15,Jits_Phase_8,20,9999,9999,9999,1810761784
83,16,15,Jits_Phase_8,21,9999,9999,9999,1811561564
83,16,15,Jits_Phase_8,22,9999,9999,9999,1812361328
83,16,15,Jits_Phase_8,23,9999,9999,9999,1813162056
83,16,15,Jits_Phase_8,24,9999,9999,9999,1813961812
83,16,15,Jits_Phase_8,25,9999,9999,9999,1814761568
83,16,15,Jits_Phase_8,26,9999,9999,9999,1815561328
83,16,15,Jits_Phase_8,27,9999,9999,9999,1816362056
83,16,15,Jits_Phase_8,28,9999,9999,9999,1817161828
83,16,15,Jits_Phase_8,29,9999,9999,9999,1817961556
83,16,15,Jits_Phase_8,30,9999,9999,9999,1818741832
83,16,15,Jits_Phase_8,31,9999,9999,9999,1819541592
83,16,15,Jits_Phase_8,32,9999,9999,9999,1820341348
83,16,15,Jits_Phase_8,33,9999,9999,9999,1821142072
83,16,15,Jits_Phase_8,34,9999,9999,9999,1821952092
83,16,15,Jits_Phase_8,35,9999,9999,9999,1822762048
83,16,15,Jits_Phase_8,36,9999,9999,9999,1823561816
83,16,15,Jits_Phase_8,37,9999,9999,9999,1824361540
83,16,15,Jits_Phase_8,38,9999,9999,9999,1825161308
83,16,15,Jits_Phase_8,39,9999,9999,9999,1825962056
83,16,15,Jits_Phase_8,40,9999,9999,9999,1826761828
83,16,15,Jits_Phase_8,41,9999,9999,9999,1827561532
83,16,15,Jits_Phase_8,42,9999,9999,9999,1828361284
83,16,15,Jits_Phase_8,43,9999,9999,9999,1829162080
83,16,15,Jits_Phase_8,44,9999,9999,9999,1829961820
83,16,15,Jits_Phase_8,45,9999,9999,9999,1830761532
83,16,15,Jits_Phase_8,46,9999,9999,9999,1831561308
83,16,15,Jits_Phase_8,47,9999,9999,9999,1832362104
83,16,15,Jits_Phase_8,48,9999,9999,9999,1833181288
83,16,15,Jits_Phase_8,49,9999,9999,9999,1833982032
83,16,15,Jits_Phase_8,50,9999,9999,9999,1834781788
83,16,15,Jits_Phase_8,51,9999,9999,9999,1835581560
83,16,15,Jits_Phase_8,52,9999,9999,9999,1836381244
83,16,15,Jits_Phase_8,53,9999,9999,9999,1837182076
83,16,15,Jits_Phase_8,54,9999,9999,9999,1837981756
83,16,15,Jits_Phase_8,55,9999,9999,9999,1838781528
83,16,15,Jits_Phase_8,56,9999,9999,9999,1839581284
83,16,15,Jits_Phase_8,57,9999,9999,9999,1840382028
83,16,15,Jits_Phase_8,58,9999,9999,9999,1841181800
83,16,15,Jits_Phase_8,59,9999,9999,9999,1841981496
83,16,15,Jits_Phase_8,60,9999,9999,9999,1842781256
83,16,15,Jits_Phase_8,61,9999,9999,9999,1843582008
83,16,15,Jits_Phase_8,62,9999,9999,9999,1844381780
83,16,15,Jits_Phase_8,63,9999,9999,9999,1845181528
83,16,15,Jits_Phase_8,64,9999,9999,9999,1846021232
83,16,15,Jits_Phase_8,65,9999,9999,9999,1846821964
83,16,15,Jits_Phase_8,66,9999,9999,9999,1847621748
83,16,15,Jits_Phase_8,67,9999,9999,9999,1848421460
83,16,15,Jits_Phase_8,68,9999,9999,9999,1849221204
83,16,15,Jits_Phase_8,69,9999,9999,9999,1850021952
83,16,15,Jits_Phase_8,70,9999,9999,9999,1850821716
83,16,15,Jits_Phase_8,71,9999,9999,9999,1851621484
83,16,15,Jits_Phase_8,72,9999,9999,9999,1852421240
83,16,15,Jits_Phase_8,73,9999,9999,9999,1853221984
83,16,15,Jits_Phase_8,74,9999,9999,9999,1854021692
83,16,15,Jits_Phase_8,75,9999,9999,9999,1854821476
83,16,15,Jits_Phase_8,76,9999,9999,9999,1855621244
83,16,15,Jits_Phase_8,77,9999,9999,9999,1856421992
83,16,15,Jits_Phase_8,78,9999,9999,9999,1857221744
83,16,15,Jits_Phase_8,79,9999,9999,9999,1858021440
83,16,15,Jits_Phase_8,80,9999,9999,9999,1858821200
83,16,15,Jits_Phase_8,81,9999,9999,9999,1859582076
83,16,15,Jits_Phase_8,82,9999,9999,9999,1860381760
83,16,15,Jits_Phase_8,83,9999,9999,9999,1861181512
83,16,15,Jits_Phase_8,84,9999,9999,9999,1861981280
83,16,15,Jits_Phase_8,85,9999,9999,9999,1862782044
83,16,15,Jits_Phase_8,86,9999,9999,9999,1863581800
83,16,15,Jits_Phase_8,87,9999,9999,9999,1864381556
83,16,15,Jits_Phase_8,88,9999,9999,9999,1865181308
83,16,15,Jits_Phase_8,89,9999,9999,9999,1865982044
83,16,15,Jits_Phase_8,90,9999,9999,9999,1866781812
83,16,15,Jits_Phase_8,91,9999,9999,9999,1867581496
83,16,15,Jits_Phase_8,92,9999,9999,9999,1868381272
83,16,15,Jits_Phase_8,93,9999,9999,9999,1869182016
83,16,15,Jits_Phase_8,94,9999,9999,9999,1869981776
83,16,15,Jits_Phase_8,95,9999,9999,9999,1870781544
83,16,15,Jits_Phase_8,96,9999,9999,9999,1871581244
83,16,15,Jits_Phase_8,97,9999,9999,9999,1872301140
83,16,15,Jits_Phase_8,98,9999,9999,9999,1873101892
83,16,15,Jits_Phase_8,99,9999,9999,9999,1873901668
83,16,15,Jits_Phase_8,100,9999,9999,9999,1874701416
83,16,15,Jits_Phase_8,101,9999,9999,9999,1875501176
83,16,15,Jits_Phase_8,102,9999,9999,9999,1876301916
83,16,15,Jits_Phase_8,103,9999,9999,9999,1877101624
83,16,15,Jits_Phase_8,104,9999,9999,9999,1877901384
83,16,15,Jits_Phase_8,105,9999,9999,9999,1878701148
83,16,15,Jits_Phase_8,106,9999,9999,9999,1879501944
83,16,15,Jits_Phase_8,107,9999,9999,9999,1880301684
83,16,15,Jits_Phase_8,108,9999,9999,9999,1881101376
83,16,15,Jits_Phase_8,109,9999,9999,9999,1881901132
83,16,15,Jits_Phase_8,110,9999,9999,9999,1882701940
83,16,15,Jits_Phase_8,111,9999,9999,9999,1883501652
83,16,15,Jits_Phase_8,112,9999,9999,9999,1884301420
83,16,15,Jits_Phase_8,113,9999,9999,9999,1885101120
83,16,15,Jits_Phase_8,114,9999,9999,9999,1885981800
83,16,15,Jits_Phase_8,115,9999,9999,9999,1886781556
83,16,15,Jits_Phase_8,116,9999,9999,9999,1887581244
83,16,15,Jits_Phase_8,117,9999,9999,9999,1888382024
83,16,15,Jits_Phase_8,118,9999,9999,9999,1889181800
83,16,15,Jits_Phase_8,119,9999,9999,9999,1889981564
83,16,15,Jits_Phase_8,120,9999,9999,9999,1890781264
83,16,15,Jits_Phase_8,121,9999,9999,9999,1891582068
83,16,15,Jits_Phase_8,122,9999,9999,9999,1892381820
83,16,15,Jits_Phase_8,123,9999,9999,9999,1893181500
83,16,15,Jits_Phase_8,124,9999,9999,9999,1893981260
83,16,15,Jits_Phase_8,125,9999,9999,9999,1894782008
83,16,15,Jits_Phase_8,126,9999,9999,9999,1895581776
83,16,15,Jits_Phase_8,127,9999,9999,9999,1896381536
83,16,15,Jits_Phase_8,128,9999,9999,9999,1897181296
83,16,15,Jits_Phase_8,129,9999,9999,9999,1897982040
83,16,15,Jits_Phase_8,130,9999,9999,9999,1898781820
83,16,15,Jits_Phase_8,131,9999,9999,9999,1899741268
83,16,15,Jits_Phase_8,132,9999,9999,9999,1900542068
83,16,15,Jits_Phase_8,133,9999,9999,9999,1901341760
83,16,15,Jits_Phase_8,134,9999,9999,9999,1902141520
83,16,15,Jits_Phase_8,135,9999,9999,9999,1902941268
83,16,15,Jits_Phase_8,136,9999,9999,9999,1903742020
83,16,15,Jits_Phase_8,137,9999,9999,9999,1904541792
83,16,15,Jits_Phase_8,138,9999,9999,9999,1905341564
83,16,15,Jits_Phase_8,139,9999,9999,9999,1906141260
83,16,15,Jits_Phase_8,140,9999,9999,9999,1906942064
83,16,15,Jits_Phase_8,141,9999,9999,9999,1907741796
83,16,15,Jits_Phase_8,142,9999,9999,9999,1908541564
83,16,15,Jits_Phase_8,143,9999,9999,9999,1909341272
83,16,15,Jits_Phase_8,144,9999,9999,9999,1910142072
83,16,15,Jits_Phase_8,145,9999,9999,9999,1910941764
83,16,15,Jits_Phase_8,146,9999,9999,9999,1911741520
83,16,15,Jits_Phase_8,147,9999,9999,9999,1912541276
83,16,15,Jits_Phase_8,148,9999,9999,9999,1913342072
83,16,15,Jits_Phase_8,149,9999,9999,9999,1914141756
83,16,15,Jits_Phase_8,150,9999,9999,9999,1914781772
83,16,15,Jits_Phase_8,151,9999,9999,9999,1915581520
83,16,15,Jits_Phase_8,152,9999,9999,9999,1916381296
83,16,15,Jits_Phase_8,153,9999,9999,9999,1917182008
83,16,15,Jits_Phase_8,154,9999,9999,9999,1917981760
83,16,15,Jits_Phase_8,155,9999,9999,9999,1918781524
83,16,15,Jits_Phase_8,156,9999,9999,9999,1919581252
83,16,15,Jits_Phase_8,157,9999,9999,9999,1920382056
83,16,15,Jits_Phase_8,158,9999,9999,9999,1921181820
83,16,15,Jits_Phase_8,159,9999,9999,9999,1921981512
83,16,15,Jits_Phase_8,160,9999,9999,9999,1922781292
83,16,15,Jits_Phase_8,161,9999,9999,9999,1923582020
83,16,15,Jits_Phase_8,162,9999,9999,9999,1924381788
83,16,15,Jits_Phase_8,163,9999,9999,9999,1925181544
83,16,15,Jits_Phase_8,164,9999,9999,9999,1925981252
83,16,15,Jits_Phase_8,165,9999,9999,9999,1926782056
83,16,15,Jits_Phase_8,166,9999,9999,9999,1927581756
83,16,15,Jits_Phase_8,167,9999,9999,9999,1928381516
83,16,15,Jits_Phase_8,168,9999,9999,9999,1929181292
83,16,15,Jits_Phase_8,169,9999,9999,9999,1929982032
83,17,17,Jits_Phase_5,0,5,56,103,1938714936
83,17,17,Jits_Phase_5,1,5,63,98,1938718104
83,17,17,Jits_Phase_5,2,5,80,127,1938721304
83,17,17,Jits_Phase_5,0,5,56,103,1939214644
83,17,17,Jits_Phase_5,1,5,63,98,1939217816
83,17,17,Jits_Phase_5,2,5,80,127,1939220940
83,17,17,Jits_Phase_5,3,1,48,51,1939383436
83,17,17,Jits_Phase_5,0,5,56,103,1939714408
83,17,17,Jits_Phase_5,1,5,80,127,1939724604
83,17,17,Jits_Phase_5,2,5,63,98,1939745356
83,17,17,Jits_Phase_5,3,1,48,59,1939791692
83,17,17,Jits_Phase_5,0,5,63,98,1940165024
83,17,17,Jits_Phase_5,1,5,80,127,1940194700
83,17,17,Jits_Phase_5,2,5,56,103,1940205044
83,17,17,Jits_Phase_5,3,1,48,66,1940285100
83,17,17,Jits_Phase_5,0,1,48,62,1940709908
83,17,17,Jits_Phase_5,1,5,80,127,1940725296
83,17,17,Jits_Phase_5,2,5,56,103,1940735568
83,17,17,Jits_Phase_5,3,5,63,98,1940765168
83,17,17,Jits_Phase_5,0,5,63,98,1941214572
83,17,17,Jits_Phase_5,1,1,48,60,1941219564
83,17,17,Jits_Phase_5,2,5,56,103,1941245512
83,17,17,Jits_Phase_5,3,5,80,127,1941254512
83,17,17,Jits_Phase_5,0,5,56,103,1941665324
83,17,17,Jits_Phase_5,1,5,63,98,1941715304
83,17,17,Jits_Phase_5,2,5,80,127,1941734716
83,17,17,Jits_Phase_5,3,1,48,62,1941745856
83,17,17,Jits_Phase_5,0,5,80,127,1942164792
83,17,17,Jits_Phase_5,1,1,48,50,1942212800
83,17,17,Jits_Phase_5,2,5,63,98,1942215060
83,17,17,Jits_Phase_5,3,5,56,103,1942255144
83,17,17,Jits_Phase_5,0,5,56,103,1942664632
83,17,17,Jits_Phase_5,1,5,63,98,1942695428
83,17,17,Jits_Phase_5,2,1,48,59,1942733020
83,17,17,Jits_Phase_5,3,5,80,127,1942764800
83,17,17,Jits_Phase_5,0,5,56,103,1943165516
83,17,17,Jits_Phase_5,1,1,48,63,1943220024
83,17,17,Jits_Phase_5,2,5,80,127,1943224628
83,17,17,Jits_Phase_5,3,5,63,98,1943255424
83,17,17,Jits_Phase_5,0,5,56,103,1943675620
83,17,17,Jits_Phase_5,1,5,63,98,1943684472
83,17,17,Jits_Phase_5,2,5,80,127,1943725308
83,17,17,Jits_Phase_5,3,1,48,52,1943742124
83,17,17,Jits_Phase_5,0,5,63,98,1944164596
83,17,17,Jits_Phase_5,1,1,48,52,1944230268
83,17,17,Jits_Phase_5,2,5,80,127,1944244532
83,17,17,Jits_Phase_5,3,5,56,103,1944254804
83,17,17,Jits_Phase_5,0,1,48,57,1944709636
83,17,17,Jits_Phase_5,1,5,63,98,1944714464
83,17,17,Jits_Phase_5,2,5,56,103,1944754548
83,17,17,Jits_Phase_5,3,5,80,127,1944757540
83,17,17,Jits_Phase_5,0,5,56,103,1945175528
83,17,17,Jits_Phase_5,1,5,63,98,1945184552
83,17,17,Jits_Phase_5,2,5,80,127,1945224416
83,17,17,Jits_Phase_5,3,1,48,59,1945244916
83,17,17,Jits_Phase_5,0,5,56,103,1945664948
83,17,17,Jits_Phase_5,1,5,63,98,1945668088
83,17,17,Jits_Phase_5,2,5,80,127,1945685332
83,17,17,Jits_Phase_5,3,1,48,59,1945713276
83,17,17,Jits_Phase_5,0,5,80,127,1946174960
83,17,17,Jits_Phase_5,1,5,56,103,1946185304
83,17,17,Jits_Phase_5,2,1,48,54,1946208976
83,17,17,Jits_Phase_5,3,5,63,98,1946254628
83,17,17,Jits_Phase_5,0,5,63,98,1946665288
83,17,17,Jits_Phase_5,1,5,56,103,1946684700
83,17,17,Jits_Phase_5,2,1,48,60,1946713068
83,17,17,Jits_Phase_5,3,5,80,127,1946764728
83,17,17,Jits_Phase_5,0,5,56,103,1947175436
83,17,17,Jits_Phase_5,1,1,48,56,1947190468
83,17,17,Jits_Phase_5,2,5,80,127,1947215368
83,17,17,Jits_Phase_5,3,5,63,98,1947224444
83,17,17,Jits_Phase_5,0,5,80,127,1947664716
83,17,17,Jits_Phase_5,1,5,63,98,1947694392
83,17,17,Jits_Phase_5,2,1,48,61,1947698780
83,17,17,Jits_Phase_5,3,5,56,103,1947735440
83,17,17,Jits_Phase_5,0,5,56,103,1948185228
83,17,17,Jits_Phase_5,1,1,48,63,1948195920
83,17,17,Jits_Phase_5,2,5,63,98,1948214524
83,17,17,Jits_Phase_5,3,5,80,127,1948264896
83,17,17,Jits_Phase_5,0,5,80,127,1948684620
83,17,17,Jits_Phase_5,1,5,56,103,1948724556
83,17,17,Jits_Phase_5,2,1,48,65,1948731188
83,17,17,Jits_Phase_5,3,5,63,98,1948735268
83,17,17,Jits_Phase_5,0,5,80,127,1949164904
83,17,17,Jits_Phase_5,1,5,63,98,1949204844
83,17,17,Jits_Phase_5,2,1,48,59,1949213064
83,17,17,Jits_Phase_5,3,5,56,103,1949265148
83,17,17,Jits_Phase_5,0,5,56,103,1949664520
83,17,17,Jits_Phase_5,1,5,80,127,1949674788
83,17,17,Jits_Phase_5,2,1,48,63,1949715140
83,17,17,Jits_Phase_5,3,5,63,98,1949754796
83,17,17,Jits_Phase_5,0,5,80,127,1950165256
83,17,17,Jits_Phase_5,1,1,48,67,1950193032
83,17,17,Jits_Phase_5,2,5,63,98,1950224740
83,17,17,Jits_Phase_5,3,5,56,103,1950254412
83,17,17,Jits_Phase_5,0,5,56,103,1950665244
83,17,17,Jits_Phase_5,1,5,80,127,1950724588
83,17,17,Jits_Phase_5,2,1,48,61,1950740364
83,17,17,Jits_Phase_5,3,5,63,98,1950765416
83,17,17,Jits_Phase_5,0,5,56,103,1951215060
83,17,17,Jits_Phase_5,1,5,63,98,1951225328
83,17,17,Jits_Phase_5,2,5,80,127,1951228544
83,17,17,Jits_Phase_5,3,1,48,62,1951229508
83,17,17,Jits_Phase_5,0,5,80,127,1951664548
83,17,17,Jits_Phase_5,1,1,48,57,1951736664
83,17,17,Jits_Phase_5,2,5,63,98,1951754596
83,17,17,Jits_Phase_5,3,5,56,103,1951764792
83,17,17,Jits_Phase_5,0,5,56,103,1952165268
83,17,17,Jits_Phase_5,1,5,63,98,1952168444
83,17,17,Jits_Phase_5,2,5,80,127,1952171412
83,17,17,Jits_Phase_5,3,1,48,59,1952234628
83,17,17,Jits_Phase_5,0,5,80,127,1952685400
83,17,17,Jits_Phase_5,1,1,48,59,1952700876
83,17,17,Jits_Phase_5,2,5,63,98,1952734620
83,17,17,Jits_Phase_5,3,5,56,103,1952765416
83,17,17,Jits_Phase_5,0,5,56,103,1953164716
83,17,17,Jits_Phase_5,1,5,80,127,1953174984
83,17,17,Jits_Phase_5,2,1,48,55,1953210016
83,17,17,Jits_Phase_5,3,5,63,98,1953244508
83,17,17,Jits_Phase_5,0,5,56,103,1953674596
83,17,17,Jits_Phase_5,1,5,63,98,1953695352
83,17,17,Jits_Phase_5,2,1,48,65,1953697364
83,17,17,Jits_Phase_5,3,5,80,127,1953754460
83,17,17,Jits_Phase_5,0,5,80,127,1954154804
83,17,17,Jits_Phase_5,1,1,48,60,1954200544
83,17,17,Jits_Phase_5,2,5,63,98,1954224404
83,17,17,Jits_Phase_5,3,5,56,103,1954245232
83,17,17,Jits_Phase_5,0,5,80,127,1954675172
83,17,17,Jits_Phase_5,1,5,56,103,1954685296
83,17,17,Jits_Phase_5,2,5,63,98,1954694368
83,17,17,Jits_Phase_5,3,1,48,61,1954706556
83,17,17,Jits_Phase_5,0,5,80,127,1955164524
83,17,17,Jits_Phase_5,1,1,48,65,1955179248
83,17,17,Jits_Phase_5,2,5,56,103,1955185272
83,17,17,Jits_Phase_5,3,5,63,98,1955254580
83,17,17,Jits_Phase_5,0,5,56,103,1955674528
83,17,17,Jits_Phase_5,1,5,80,127,1955705276
83,17,17,Jits_Phase_5,2,5,63,98,1955724612
83,17,17,Jits_Phase_5,3,1,48,61,1955727584
83,17,17,Jits_Phase_5,0,5,63,98,1956165152
83,17,17,Jits_Phase_5,1,1,48,62,1956191888
83,17,17,Jits_Phase_5,2,5,56,103,1956225340
83,17,17,Jits_Phase_5,3,5,80,127,1956255232
83,17,17,Jits_Phase_5,0,5,63,98,1956654416
83,17,17,Jits_Phase_5,1,5,80,127,1956657780
83,17,17,Jits_Phase_5,2,1,48,72,1956693496
83,17,17,Jits_Phase_5,3,5,56,103,1956744560
83,17,17,Jits_Phase_5,0,5,56,103,1957174748
83,17,17,Jits_Phase_5,1,1,48,71,1957178396
83,17,17,Jits_Phase_5,2,5,63,98,1957205388
83,17,17,Jits_Phase_5,3,5,80,127,1957245276
83,17,17,Jits_Phase_5,0,5,63,98,1957675412
83,17,17,Jits_Phase_5,1,1,48,62,1957696592
83,17,17,Jits_Phase_5,2,5,56,103,1957715268
83,17,17,Jits_Phase_5,3,5,80,127,1957734704
83,17,17,Jits_Phase_5,0,1,48,79,1958179924
83,17,17,Jits_Phase_5,1,5,63,98,1958185272
83,17,17,Jits_Phase_5,2,5,56,103,1958225212
83,17,17,Jits_Phase_5,3,5,80,127,1958234360
83,17,17,Jits_Phase_5,0,5,80,127,1958664504
83,17,17,Jits_Phase_5,1,1,48,68,1958673172
83,17,17,Jits_Phase_5,2,5,63,98,1958735152
83,17,17,Jits_Phase_5,3,5,56,103,1958754808
83,17,17,Jits_Phase_5,0,5,56,103,1959155128
83,17,17,Jits_Phase_5,1,5,80,127,1959174468
83,17,17,Jits_Phase_5,2,1,48,63,1959213040
83,17,17,Jits_Phase_5,3,5,63,98,1959214548
83,17,17,Jits_Phase_5,0,5,63,98,1959664936
83,17,17,Jits_Phase_5,1,1,48,69,1959673156
83,17,17,Jits_Phase_5,2,5,80,127,1959684340
83,17,17,Jits_Phase_5,3,5,56,103,1959725400
83,17,17,Jits_Phase_5,0,1,48,63,1960156188
83,17,17,Jits_Phase_5,1,5,63,98,1960164900
83,17,17,Jits_Phase_5,2,5,56,103,1960185060
83,17,17,Jits_Phase_5,3,5,80,127,1960194360
83,17,17,Jits_Phase_5,0,1,48,73,1960663152
83,17,17,Jits_Phase_5,1,5,80,127,1960664572
83,17,17,Jits_Phase_5,2,5,56,103,1960685104
83,17,17,Jits_Phase_5,3,5,63,98,1960714484
83,17,17,Jits_Phase_5,0,1,48,53,1961134260
83,17,17,Jits_Phase_5,1,5,56,103,1961234804
83,17,17,Jits_Phase_5,2,5,80,127,1961237872
83,17,17,Jits_Phase_5,3,5,63,98,1961255264
83,17,17,Jits_Phase_5,0,5,63,98,1961654636
83,17,17,Jits_Phase_5,1,1,48,68,1961684676
83,17,17,Jits_Phase_5,2,5,56,103,1961686176
83,17,17,Jits_Phase_5,3,5,80,127,1961744840
83,17,17,Jits_Phase_5,0,1,48,62,1962183880
83,17,17,Jits_Phase_5,1,5,63,98,1962235216
83,17,17,Jits_Phase_5,2,5,56,103,1962244516
83,17,17,Jits_Phase_5,3,5,80,127,1962254784
83,17,17,Jits_Phase_5,0,5,56,103,1962695124
83,17,17,Jits_Phase_5,1,5,80,127,1962724652
83,17,17,Jits_Phase_5,2,1,48,61,1962728520
83,17,17,Jits_Phase_5,3,5,63,98,1962735060
83,17,17,Jits_Phase_5,0,1,48,61,1963225280
83,17,17,Jits_Phase_5,1,5,63,98,1963234740
83,17,17,Jits_Phase_5,2,5,56,103,1963245012
83,17,17,Jits_Phase_5,3,5,80,127,1963265248
83,17,17,Jits_Phase_5,0,5,56,103,1963664828
83,17,17,Jits_Phase_5,1,5,63,98,1963725140
83,17,17,Jits_Phase_5,2,5,80,127,1963728580
83,17,17,Jits_Phase_5,3,1,48,63,1963749008
83,17,17,Jits_Phase_5,0,5,80,127,1964184884
83,17,17,Jits_Phase_5,1,5,56,103,1964195156
83,17,17,Jits_Phase_5,2,1,48,62,1964197748
83,17,17,Jits_Phase_5,3,5,63,98,1964265048
83,17,17,Jits_Phase_5,0,5,80,127,1964674536
83,17,17,Jits_Phase_5,1,1,48,67,1964735948
83,17,17,Jits_Phase_5,2,5,56,103,1964745036
83,17,17,Jits_Phase_5,3,5,63,98,1964755380
83,17,17,Jits_Phase_5,0,5,63,98,1965215288
83,17,17,Jits_Phase_5,1,5,56,103,1965225408
83,17,17,Jits_Phase_5,2,5,80,127,1965244892
83,17,17,Jits_Phase_5,3,1,48,63,1965248688
83,17,17,Jits_Phase_5,0,5,80,127,1965664620
83,17,17,Jits_Phase_5,1,5,63,98,1965725160
83,17,17,Jits_Phase_5,2,1,48,71,1965731872
83,17,17,Jits_Phase_5,3,5,56,103,1965765164
83,17,17,Jits_Phase_5,0,5,56,103,1966205292
83,17,17,Jits_Phase_5,1,5,63,98,1966214444
83,17,17,Jits_Phase_5,2,1,48,63,1966220632
83,17,17,Jits_Phase_5,3,5,80,127,1966254448
83,17,17,Jits_Phase_5,0,5,56,103,1966665028
83,17,17,Jits_Phase_5,1,5,80,127,1966694804
83,17,17,Jits_Phase_5,2,1,48,58,1966725496
83,17,17,Jits_Phase_5,3,5,63,98,1966744992
83,17,17,Jits_Phase_5,0,1,48,60,1967184916
83,17,17,Jits_Phase_5,1,5,56,103,1967204960
83,17,17,Jits_Phase_5,2,5,63,98,1967244824
83,17,17,Jits_Phase_5,3,5,80,127,1967247964
83,17,17,Jits_Phase_5,0,5,56,103,1967704388
83,17,17,Jits_Phase_5,1,1,48,66,1967711772
83,17,17,Jits_Phase_5,2,5,63,98,1967714952
83,17,17,Jits_Phase_5,3,5,80,127,1967735112
83,17,17,Jits_Phase_5,0,5,56,103,1968165168
83,17,17,Jits_Phase_5,1,5,80,127,1968168308
83,17,17,Jits_Phase_5,2,1,48,61,1968204880
83,17,17,Jits_Phase_5,3,5,63,98,1968206292
83,17,17,Jits_Phase_5,0,1,48,60,1968681808
83,17,17,Jits_Phase_5,1,5,63,98,1968705068
83,17,17,Jits_Phase_5,2,5,56,103,1968734472
83,17,17,Jits_Phase_5,3,5,80,127,1968755228
83,17,17,Jits_Phase_5,0,5,80,127,1969174860
83,17,17,Jits_Phase_5,1,5,56,103,1969185132
83,17,17,Jits_Phase_5,2,5,63,98,1969195328
83,17,17,Jits_Phase_5,3,1,48,56,1969212912
83,17,17,Jits_Phase_5,0,5,56,103,1969674696
83,17,17,Jits_Phase_5,1,1,48,61,1969688824
83,17,17,Jits_Phase_5,2,5,80,127,1969714476
83,17,17,Jits_Phase_5,3,5,63,98,1969745272
83,17,17,Jits_Phase_5,0,1,48,58,1970189404
83,17,17,Jits_Phase_5,1,5,63,98,1970194904
83,17,17,Jits_Phase_5,2,5,80,127,1970205024
83,17,17,Jits_Phase_5,3,5,56,103,1970215220
83,17,17,Jits_Phase_5,0,5,56,103,1970685292
83,17,17,Jits_Phase_5,1,1,48,62,1970716808
83,17,17,Jits_Phase_5,2,5,63,98,1970754964
83,17,17,Jits_Phase_5,3,5,80,127,1970765160
83,17,17,Jits_Phase_5,0,5,80,127,1971195320
83,17,17,Jits_Phase_5,1,1,48,60,1971203340
83,17,17,Jits_Phase_5,2,5,56,103,1971204908
83,17,17,Jits_Phase_5,3,5,63,98,1971254588
83,17,17,Jits_Phase_5,0,5,80,127,1971705196
83,17,17,Jits_Phase_5,1,1,48,69,1971721648
83,17,17,Jits_Phase_5,2,5,56,103,1971764532
83,17,17,Jits_Phase_5,3,5,63,98,1971795404
83,17,17,Jits_Phase_5,0,5,56,103,1972204808
83,17,17,Jits_Phase_5,1,5,80,127,1972207880
83,17,17,Jits_Phase_5,2,1,48,62,1972230180
83,17,17,Jits_Phase_5,3,5,63,98,1972244816
83,17,17,Jits_Phase_5,0,1,48,69,1972730296
83,17,17,Jits_Phase_5,1,5,56,103,1972735272
83,17,17,Jits_Phase_5,2,5,63,98,1972765096
83,17,17,Jits_Phase_5,3,5,80,127,1972775216
83,17,17,Jits_Phase_5,0,1,48,73,1973233132
83,17,17,Jits_Phase_5,1,5,63,98,1973245360
83,17,17,Jits_Phase_5,2,5,80,127,1973254660
83,17,17,Jits_Phase_5,3,5,56,103,1973264928
83,17,17,Jits_Phase_5,0,5,80,127,1973694776
83,17,17,Jits_Phase_5,1,5,56,103,1973745120
83,17,17,Jits_Phase_5,2,5,63,98,1973748112
83,17,17,Jits_Phase_5,3,1,48,77,1973756260
83,17,17,Jits_Phase_5,0,1,48,78,1974211192
83,17,17,Jits_Phase_5,1,5,56,103,1974225236
83,17,17,Jits_Phase_5,2,5,80,127,1974244648
83,17,17,Jits_Phase_5,3,5,63,98,1974254844
83,17,17,Jits_Phase_5,0,5,63,98,1974704468
83,17,17,Jits_Phase_5,1,1,48,71,1974720096
83,17,17,Jits_Phase_5,2,5,56,103,1974735332
83,17,17,Jits_Phase_5,3,5,80,127,1974754668
83,17,17,Jits_Phase_5,0,1,48,67,1975196316
83,17,17,Jits_Phase_5,1,5,56,103,1975214324
83,17,17,Jits_Phase_5,2,5,80,127,1975224964
83,17,17,Jits_Phase_5,3,5,63,98,1975295452
83,17,17,Jits_Phase_5,0,5,63,98,1975704940
83,17,17,Jits_Phase_5,1,1,48,84,1975728288
83,17,17,Jits_Phase_5,2,5,80,127,1975744796
83,17,17,Jits_Phase_5,3,5,56,103,1975784808
83,17,17,Jits_Phase_5,0,5,56,103,1976214956
83,17,17,Jits_Phase_5,1,5,63,98,1976225228
83,17,17,Jits_Phase_5,2,1,48,69,1976227092
83,17,17,Jits_Phase_5,3,5,80,127,1976244704
83,17,17,Jits_Phase_5,0,1,48,85,1976744136
83,17,17,Jits_Phase_5,1,5,63,98,1976754720
83,17,17,Jits_Phase_5,2,5,80,127,1976774952
83,17,17,Jits_Phase_5,3,5,56,103,1976794884
83,17,17,Jits_Phase_5,0,5,56,103,1977194840
83,17,17,Jits_Phase_5,1,1,48,66,1977238188
83,17,17,Jits_Phase_5,2,5,80,127,1977274776
83,17,17,Jits_Phase_5,3,5,63,98,1977285124
83,17,17,Jits_Phase_5,0,1,48,69,1977715552
83,17,17,Jits_Phase_5,1,5,80,127,1977734680
83,17,17,Jits_Phase_5,2,5,63,98,1977744728
83,17,17,Jits_Phase_5,3,5,56,103,1977774552
83,17,17,Jits_Phase_5,0,5,63,98,1978195308
83,17,17,Jits_Phase_5,1,5,80,127,1978235272
83,17,17,Jits_Phase_5,2,1,48,62,1978242224
83,17,17,Jits_Phase_5,3,5,56,103,1978294828
83,17,17,Jits_Phase_5,0,5,63,98,1978705172
83,17,17,Jits_Phase_5,1,1,48,81,1978716560
83,17,17,Jits_Phase_5,2,5,56,103,1978754492
83,17,17,Jits_Phase_5,3,5,80,127,1978785140
83,17,17,Jits_Phase_5,0,5,80,127,1979205000
83,17,17,Jits_Phase_5,1,5,63,98,1979215196
83,17,17,Jits_Phase_5,2,1,48,76,1979227408
83,17,17,Jits_Phase_5,3,5,56,103,1979284964
83,17,17,Jits_Phase_5,0,1,48,71,1979705324
83,17,17,Jits_Phase_5,1,5,80,127,1979765164
83,17,17,Jits_Phase_5,2,5,56,103,1979775504
83,17,17,Jits_Phase_5,3,5,63,98,1979778720
83,17,17,Jits_Phase_5,0,5,56,103,1980205704
83,17,17,Jits_Phase_5,1,5,80,127,1980224816
83,17,17,Jits_Phase_5,2,5,63,98,1980235160
83,17,17,Jits_Phase_5,3,1,48,69,1980252152
83,17,17,Jits_Phase_5,0,5,63,98,1980715580
83,17,17,Jits_Phase_5,1,1,48,73,1980726644
83,17,17,Jits_Phase_5,2,5,56,103,1980755288
83,17,17,Jits_Phase_5,3,5,80,127,1980774724
83,17,17,Jits_Phase_5,0,1,48,74,1981212916
83,17,17,Jits_Phase_5,1,5,63,98,1981215032
83,17,17,Jits_Phase_5,2,5,56,103,1981274620
83,17,17,Jits_Phase_5,3,5,80,127,1981277612
83,17,17,Jits_Phase_5,0,5,56,103,1981674924
83,17,17,Jits_Phase_5,1,5,80,127,1981695532
83,17,17,Jits_Phase_5,2,1,48,76,1981725704
83,17,17,Jits_Phase_5,3,5,63,98,1981735388
83,17,17,Jits_Phase_5,0,1,48,61,1982178172
83,17,17,Jits_Phase_5,1,5,56,103,1982205248
83,17,17,Jits_Phase_5,2,5,63,98,1982224808
83,17,17,Jits_Phase_5,3,5,80,127,1982234928
83,17,17,Jits_Phase_5,0,1,48,65,1982659644
83,17,17,Jits_Phase_5,1,5,80,127,1982675328
83,17,17,Jits_Phase_5,2,5,56,103,1982705004
83,17,17,Jits_Phase_5,3,5,63,98,1982744940
83,17,17,Jits_Phase_5,0,1,48,65,1983182084
83,17,17,Jits_Phase_5,1,5,80,127,1983185340
83,17,17,Jits_Phase_5,2,5,56,103,1983204604
83,17,17,Jits_Phase_5,3,5,63,98,1983265288
83,17,17,Jits_Phase_5,0,5,56,103,1983695136
83,17,17,Jits_Phase_5,1,1,48,68,1983712952
83,17,17,Jits_Phase_5,2,5,80,127,1983714540
83,17,17,Jits_Phase_5,3,5,63,98,1983775000
83,17,17,Jits_Phase_5,0,5,80,127,1984174668
83,17,17,Jits_Phase_5,1,5,56,103,1984184716
83,17,17,Jits_Phase_5,2,1,48,55,1984215336
83,17,17,Jits_Phase_5,3,5,63,98,1984224572
83,17,17,Jits_Phase_5,0,5,63,98,1984675104
83,17,17,Jits_Phase_5,1,1,48,73,1984693884
83,17,17,Jits_Phase_5,2,5,56,103,1984715104
83,17,17,Jits_Phase_5,3,5,80,127,1984718248
83,17,17,Jits_Phase_5,0,1,48,65,1985175184
83,17,17,Jits_Phase_5,1,5,63,98,1985195660
83,17,17,Jits_Phase_5,2,5,80,127,1985235448
83,17,17,Jits_Phase_5,3,5,56,103,1985264900
83,17,17,Jits_Phase_5,0,5,56,103,1985684928
83,17,17,Jits_Phase_5,1,5,63,98,1985695052
83,17,17,Jits_Phase_5,2,1,48,75,1985711424
83,17,17,Jits_Phase_5,3,5,80,127,1985724716
83,17,17,Jits_Phase_5,0,5,80,127,1986175548
83,17,17,Jits_Phase_5,1,1,48,67,1986207288
83,17,17,Jits_Phase_5,2,5,63,98,1986244924
83,17,17,Jits_Phase_5,3,5,56,103,1986255120
83,17,17,Jits_Phase_5,0,5,63,98,1986674944
83,17,17,Jits_Phase_5,1,5,56,103,1986744772
83,17,17,Jits_Phase_5,2,1,48,69,1986749760
83,17,17,Jits_Phase_5,3,5,80,127,1986755032
83,17,17,Jits_Phase_5,0,5,63,98,1987155408
83,17,17,Jits_Phase_5,1,5,56,103,1987174772
83,17,17,Jits_Phase_5,2,5,80,127,1987214636
83,17,17,Jits_Phase_5,3,1,48,67,1987216724
83,17,17,Jits_Phase_5,0,5,56,103,1987634636
83,17,17,Jits_Phase_5,1,5,63,98,1987644760
83,17,17,Jits_Phase_5,2,1,48,59,1987693156
83,17,17,Jits_Phase_5,3,5,80,127,1987724640
83,17,17,Jits_Phase_5,0,5,63,98,1988125104
83,17,17,Jits_Phase_5,1,5,56,103,1988154704
83,17,17,Jits_Phase_5,2,1,48,58,1988163444
83,17,17,Jits_Phase_5,3,5,80,127,1988194660
83,17,17,Jits_Phase_5,0,5,56,103,1988624700
83,17,17,Jits_Phase_5,1,1,48,59,1988639356
83,17,17,Jits_Phase_5,2,5,63,98,1988664636
83,17,17,Jits_Phase_5,3,5,80,127,1988704596
83,17,17,Jits_Phase_5,0,5,80,127,1989124616
83,17,17,Jits_Phase_5,1,1,48,63,1989135608
83,17,17,Jits_Phase_5,2,5,56,103,1989205672
83,17,17,Jits_Phase_5,3,5,63,98,1989214472
83,17,17,Jits_Phase_5,0,5,56,103,1989665060
83,17,17,Jits_Phase_5,1,5,63,98,1989668052
83,17,17,Jits_Phase_5,2,5,80,127,1989675480
83,17,17,Jits_Phase_5,3,1,48,56,1989687212
83,17,17,Jits_Phase_5,0,1,48,54,1990170096
83,17,17,Jits_Phase_5,1,5,56,103,1990185412
83,17,17,Jits_Phase_5,2,5,63,98,1990204748
83,17,17,Jits_Phase_5,3,5,80,127,1990214944
83,17,17,Jits_Phase_5,0,5,63,98,1990645240
83,17,17,Jits_Phase_5,1,5,80,127,1990655660
83,17,17,Jits_Phase_5,2,1,48,57,1990668668
83,17,17,Jits_Phase_5,3,5,56,103,1990674764
83,17,17,Jits_Phase_5,0,5,63,98,1991144764
83,17,17,Jits_Phase_5,1,1,48,64,1991159044
83,17,17,Jits_Phase_5,2,5,56,103,1991224624
83,17,17,Jits_Phase_5,3,5,80,127,1991227692
83,17,17,Jits_Phase_5,0,5,63,98,1991644660
83,17,17,Jits_Phase_5,1,5,56,103,1991664896
83,17,17,Jits_Phase_5,2,1,48,76,1991685996
83,17,17,Jits_Phase_5,3,5,80,127,1991694636
83,17,17,Jits_Phase_5,0,1,48,72,1992142416
83,17,17,Jits_Phase_5,1,5,56,103,1992145596
83,17,17,Jits_Phase_5,2,5,63,98,1992164788
83,17,17,Jits_Phase_5,3,5,80,127,1992174908
83,17,17,Jits_Phase_5,0,1,48,68,1992641268
83,17,17,Jits_Phase_5,1,5,56,103,1992674792
83,17,17,Jits_Phase_5,2,5,63,98,1992705588
83,17,17,Jits_Phase_5,3,5,80,127,1992709028
83,17,17,Jits_Phase_5,0,5,56,103,1993125172
83,17,17,Jits_Phase_5,1,1,48,62,1993151060
83,17,17,Jits_Phase_5,2,5,63,98,1993165180
83,17,17,Jits_Phase_5,3,5,80,127,1993224516
83,17,17,Jits_Phase_5,0,1,48,63,1993645536
83,17,17,Jits_Phase_5,1,5,56,103,1993646872
83,17,17,Jits_Phase_5,2,5,63,98,1993654604
83,17,17,Jits_Phase_5,3,5,80,127,1993715136
83,17,17,Jits_Phase_5,0,1,48,84,1994141948
83,17,17,Jits_Phase_5,1,5,56,103,1994145576
83,17,17,Jits_Phase_5,2,5,80,127,1994164616
83,17,17,Jits_Phase_5,3,5,63,98,1994195336
83,17,17,Jits_Phase_5,0,1,48,78,1994642692
83,17,17,Jits_Phase_5,1,5,80,127,1994645028
83,17,17,Jits_Phase_5,2,5,56,103,1994655520
83,17,17,Jits_Phase_5,3,5,63,98,1994674488
83,17,17,Jits_Phase_5,0,1,48,80,1995130732
83,17,17,Jits_Phase_5,1,5,63,98,1995144556
83,17,17,Jits_Phase_5,2,5,80,127,1995224408
83,17,17,Jits_Phase_5,3,5,56,103,1995234528
83,17,17,Jits_Phase_5,0,1,48,66,1995674256
83,17,17,Jits_Phase_5,1,5,80,127,1995735488
83,17,17,Jits_Phase_5,2,5,56,103,1995754896
83,17,17,Jits_Phase_5,3,5,63,98,1995757888
83,17,17,Jits_Phase_5,0,5,63,98,1996224896
83,17,17,Jits_Phase_5,1,5,80,127,1996228336
83,17,17,Jits_Phase_5,2,1,48,71,1996270640
83,17,17,Jits_Phase_5,3,5,56,103,1996285496
83,17,17,Jits_Phase_5,0,5,56,103,1996705084
83,17,17,Jits_Phase_5,1,5,80,127,1996715580
83,17,17,Jits_Phase_5,2,5,63,98,1996755440
83,17,17,Jits_Phase_5,3,1,48,76,1996773552
83,17,17,Jits_Phase_5,0,5,56,103,1997185444
83,17,17,Jits_Phase_5,1,1,48,67,1997214192
83,17,17,Jits_Phase_5,2,5,63,98,1997244780
83,17,17,Jits_Phase_5,3,5,80,127,1997255124
83,17,17,Jits_Phase_5,0,5,63,98,1997704540
83,17,17,Jits_Phase_5,1,1,48,76,1997724000
83,17,17,Jits_Phase_5,2,5,80,127,1997744400
83,17,17,Jits_Phase_5,3,5,56,103,1997784412
83,17,17,Jits_Phase_5,0,5,56,103,1998205336
83,17,17,Jits_Phase_5,1,1,48,76,1998225844
83,17,17,Jits_Phase_5,2,5,63,98,1998285420
83,17,17,Jits_Phase_5,3,5,80,127,1998288564
83,17,17,Jits_Phase_5,0,1,48,71,1998752948
83,17,17,Jits_Phase_5,1,5,80,127,1998765328
83,17,17,Jits_Phase_5,2,5,56,103,1998795372
83,17,17,Jits_Phase_5,3,5,63,98,1998798140
83,17,17,Jits_Phase_5,0,5,56,103,1999225372
83,17,17,Jits_Phase_5,1,1,48,68,1999243272
83,17,17,Jits_Phase_5,2,5,80,127,1999244776
83,17,17,Jits_Phase_5,3,5,63,98,1999284564
83,17,17,Jits_Phase_5,0,5,80,127,1999704584
83,17,17,Jits_Phase_5,1,5,63,98,1999724972
83,17,17,Jits_Phase_5,2,1,48,59,1999757680
83,17,17,Jits_Phase_5,3,5,56,103,1999785500
83,17,17,Jits_Phase_5,0,5,63,98,2000215488
83,17,17,Jits_Phase_5,1,1,48,70,2000219456
83,17,17,Jits_Phase_5,2,5,56,103,2000224576
83,17,17,Jits_Phase_5,3,5,80,127,2000274776
83,17,17,Jits_Phase_5,0,5,56,103,2000704820
83,17,17,Jits_Phase_5,1,5,63,98,2000725576
83,17,17,Jits_Phase_5,2,5,80,127,2000734528
83,17,17,Jits_Phase_5,3,1,48,67,2000740116
83,17,17,Jits_Phase_5,0,5,56,103,2001195364
83,17,17,Jits_Phase_5,1,5,63,98,2001198356
83,17,17,Jits_Phase_5,2,5,80,127,2001214776
83,17,17,Jits_Phase_5,3,1,48,74,2001215744
83,17,17,Jits_Phase_5,0,1,48,81,2001709608
83,17,17,Jits_Phase_5,1,5,63,98,2001735184
83,17,17,Jits_Phase_5,2,5,56,103,2001764660
83,17,17,Jits_Phase_5,3,5,80,127,2001794336
83,17,17,Jits_Phase_5,0,5,80,127,2002194864
83,17,17,Jits_Phase_5,1,1,48,77,2002241580
83,17,17,Jits_Phase_5,2,5,56,103,2002284864
83,17,17,Jits_Phase_5,3,5,63,98,2002288228
83,17,17,Jits_Phase_5,0,5,56,103,2002694392
83,17,17,Jits_Phase_5,1,5,80,127,2002697464
83,17,17,Jits_Phase_5,2,1,48,74,2002738864
83,17,17,Jits_Phase_5,3,5,63,98,2002775304
83,17,17,Jits_Phase_5,0,5,80,127,2003195348
83,17,17,Jits_Phase_5,1,1,48,82,2003233164
83,17,17,Jits_Phase_5,2,5,63,98,2003254608
83,17,17,Jits_Phase_5,3,5,56,103,2003285480
83,17,17,Jits_Phase_5,0,5,63,98,2003694892
83,17,17,Jits_Phase_5,1,5,80,127,2003705312
83,17,17,Jits_Phase_5,2,1,48,74,2003726112
83,17,17,Jits_Phase_5,3,5,56,103,2003774832
83,17,17,Jits_Phase_5,0,5,56,103,2004255100
83,17,17,Jits_Phase_5,1,1,48,84,2004265044
83,17,17,Jits_Phase_5,2,5,80,127,2004284696
83,17,17,Jits_Phase_5,3,5,63,98,2004335068
83,17,17,Jits_Phase_5,0,1,48,84,2004826176
83,17,17,Jits_Phase_5,1,5,63,98,2004844856
83,17,17,Jits_Phase_5,2,5,56,103,2004874604
83,17,17,Jits_Phase_5,3,5,80,127,2004877668
83,17,17,Jits_Phase_5,0,1,48,82,2005343624
83,17,17,Jits_Phase_5,1,5,63,98,2005345348
83,17,17,Jits_Phase_5,2,5,80,127,2005365280
83,17,17,Jits_Phase_5,3,5,56,103,2005375328
83,17,17,Jits_Phase_5,0,5,56,103,2005854696
83,17,17,Jits_Phase_5,1,5,63,98,2005857836
83,17,17,Jits_Phase_5,2,1,48,81,2005865456
83,17,17,Jits_Phase_5,3,5,80,127,2005875148
83,17,17,Jits_Phase_5,0,5,56,103,2006305356
83,17,17,Jits_Phase_5,1,5,63,98,2006315480
83,17,17,Jits_Phase_5,2,5,80,127,2006345152
83,17,17,Jits_Phase_5,3,1,48,73,2006362316
83,17,17,Jits_Phase_5,0,1,48,73,2006816328
83,17,17,Jits_Phase_5,1,5,63,98,2006825416
83,17,17,Jits_Phase_5,2,5,80,127,2006844680
83,17,17,Jits_Phase_5,3,5,56,103,2006884792
83,17,17,Jits_Phase_5,0,1,48,78,2007335260
83,17,17,Jits_Phase_5,1,5,56,103,2007354612
83,17,17,Jits_Phase_5,2,5,63,98,2007394568
83,17,17,Jits_Phase_5,3,5,80,127,2007398088
83,17,17,Jits_Phase_5,0,5,80,127,2007795324
83,17,17,Jits_Phase_5,1,5,56,103,2007835116
83,17,17,Jits_Phase_5,2,1,48,66,2007863788
83,17,17,Jits_Phase_5,3,5,63,98,2007885160
83,17,17,Jits_Phase_5,0,1,48,72,2008329892
83,17,17,Jits_Phase_5,1,5,56,103,2008355320
83,17,17,Jits_Phase_5,2,5,80,127,2008365444
83,17,17,Jits_Phase_5,3,5,63,98,2008395188
83,17,17,Jits_Phase_5,0,5,56,103,2008804736
83,17,17,Jits_Phase_5,1,1,48,75,2008843468
83,17,17,Jits_Phase_5,2,5,80,127,2008845112
83,17,17,Jits_Phase_5,3,5,63,98,2008894716
83,17,17,Jits_Phase_5,0,5,56,103,2009304428
83,17,17,Jits_Phase_5,1,1,48,80,2009305320
83,17,17,Jits_Phase_5,2,5,80,127,2009345332
83,17,17,Jits_Phase_5,3,5,63,98,2009394408
83,17,17,Jits_Phase_5,0,5,80,127,2009795196
83,17,17,Jits_Phase_5,1,1,48,80,2009857800
83,17,17,Jits_Phase_5,2,5,63,98,2009874764
83,17,17,Jits_Phase_5,3,5,56,103,2009885032
83,17,17,Jits_Phase_5,0,1,48,95,2010339956
83,17,17,Jits_Phase_5,1,5,80,127,2010345008
83,17,17,Jits_Phase_5,2,5,56,103,2010355352
83,17,17,Jits_Phase_5,3,5,63,98,2010374540
83,17,17,Jits_Phase_5,0,5,63,98,2010814948
83,17,17,Jits_Phase_5,1,1,48,76,2010855832
83,17,17,Jits_Phase_5,2,5,56,103,2010884396
83,17,17,Jits_Phase_5,3,5,80,127,2010887464
83,17,17,Jits_Phase_5,0,5,80,127,2011305324
83,17,17,Jits_Phase_5,1,1,48,83,2011315268
83,17,17,Jits_Phase_5,2,5,63,98,2011354472
83,17,17,Jits_Phase_5,3,5,56,103,2011394412
83,17,17,Jits_Phase_5,0,1,48,78,2011836900
83,17,17,Jits_Phase_5,1,5,63,98,2011845092
83,17,17,Jits_Phase_5,2,5,56,103,2011884956
83,17,17,Jits_Phase_5,3,5,80,127,2011895152
83,17,17,Jits_Phase_5,0,5,63,98,2012334444
83,17,17,Jits_Phase_5,1,5,56,103,2012354976
83,17,17,Jits_Phase_5,2,1,48,72,2012362284
83,17,17,Jits_Phase_5,3,5,80,127,2012375428
83,17,17,Jits_Phase_5,0,5,80,127,2012795236
83,17,17,Jits_Phase_5,1,5,56,103,2012804460
83,17,17,Jits_Phase_5,2,5,63,98,2012825064
83,17,17,Jits_Phase_5,3,1,48,69,2012831476
83,17,17,Jits_Phase_5,0,1,48,82,2013265568
83,17,17,Jits_Phase_5,1,5,63,98,2013324508
83,17,17,Jits_Phase_5,2,5,56,103,2013364580
83,17,17,Jits_Phase_5,3,5,80,127,2013395300
83,17,17,Jits_Phase_5,0,5,56,103,2013784560
83,17,17,Jits_Phase_5,1,1,48,68,2013815136
83,17,17,Jits_Phase_5,2,5,63,98,2013816548
83,17,17,Jits_Phase_5,3,5,80,127,2013844952
83,17,17,Jits_Phase_5,0,5,80,127,2014205196
83,17,17,Jits_Phase_5,1,5,56,103,2014275024
83,17,17,Jits_Phase_5,2,5,63,98,2014278092
83,17,17,Jits_Phase_5,3,1,48,65,2014316148
83,17,17,Jits_Phase_5,0,5,56,103,2014715292
83,17,17,Jits_Phase_5,1,5,63,98,2014765420
83,17,17,Jits_Phase_5,2,1,48,57,2014789212
83,17,17,Jits_Phase_5,3,5,80,127,2014795160
83,17,17,Jits_Phase_5,0,5,63,98,2015194456
83,17,17,Jits_Phase_5,1,5,80,127,2015197748
83,17,17,Jits_Phase_5,2,1,48,72,2015240572
83,17,17,Jits_Phase_5,3,5,56,103,2015255132
83,17,17,Jits_Phase_5,0,1,48,57,2015696708
83,17,17,Jits_Phase_5,1,5,56,103,2015724904
83,17,17,Jits_Phase_5,2,5,80,127,2015735028
83,17,17,Jits_Phase_5,3,5,63,98,2015785224
83,17,17,Jits_Phase_5,0,5,63,98,2016195144
83,17,17,Jits_Phase_5,1,5,56,103,2016205264
83,17,17,Jits_Phase_5,2,1,48,65,2016213112
83,17,17,Jits_Phase_5,3,5,80,127,2016235004
83,17,17,Jits_Phase_5,0,1,48,78,2016688108
83,17,17,Jits_Phase_5,1,5,63,98,2016725368
83,17,17,Jits_Phase_5,2,5,80,127,2016728584
83,17,17,Jits_Phase_5,3,5,56,103,2016755192
83,17,17,Jits_Phase_5,0,1,48,79,2017178108
83,17,17,Jits_Phase_5,1,5,63,98,2017244516
83,17,17,Jits_Phase_5,2,5,56,103,2017265048
83,17,17,Jits_Phase_5,3,5,80,127,2017268264
83,17,17,Jits_Phase_5,0,5,63,98,2017705304
83,17,17,Jits_Phase_5,1,1,48,75,2017726560
83,17,17,Jits_Phase_5,2,5,56,103,2017775052
83,17,17,Jits_Phase_5,3,5,80,127,2017794392
83,17,17,Jits_Phase_5,0,5,56,103,2018195016
83,17,17,Jits_Phase_5,1,5,63,98,2018204916
83,17,17,Jits_Phase_5,2,1,48,67,2018235004
83,17,17,Jits_Phase_5,3,5,80,127,2018295036
83,17,17,Jits_Phase_5,0,1,48,68,2018705236
83,17,17,Jits_Phase_5,1,5,56,103,2018714928
83,17,17,Jits_Phase_5,2,5,80,127,2018755164
83,17,17,Jits_Phase_5,3,5,63,98,2018765288
83,17,17,Jits_Phase_5,0,1,48,72,2019201680
83,17,17,Jits_Phase_5,1,5,56,103,2019235132
83,17,17,Jits_Phase_5,2,5,63,98,2019265104
83,17,17,Jits_Phase_5,3,5,80,127,2019295736
83,17,17,Jits_Phase_5,0,5,80,127,2019695108
83,17,17,Jits_Phase_5,1,1,48,58,2019712008
83,17,17,Jits_Phase_5,2,5,63,98,2019734964
83,17,17,Jits_Phase_5,3,5,56,103,2019755348
83,17,17,Jits_Phase_5,0,1,48,67,2020199780
83,17,17,Jits_Phase_5,1,5,56,103,2020234796
83,17,17,Jits_Phase_5,2,5,80,127,2020255104
83,17,17,Jits_Phase_5,3,5,63,98,2020274516
83,17,17,Jits_Phase_5,0,1,48,60,2020698852
83,17,17,Jits_Phase_5,1,5,63,98,2020704580
83,17,17,Jits_Phase_5,2,5,56,103,2020714924
83,17,17,Jits_Phase_5,3,5,80,127,2020775236
83,17,17,Jits_Phase_5,0,1,48,84,2021181944
83,17,17,Jits_Phase_5,1,5,56,103,2021205424
83,17,17,Jits_Phase_5,2,5,63,98,2021274980
83,17,17,Jits_Phase_5,3,5,80,127,2021294452
83,17,17,Jits_Phase_5,0,5,56,103,2021705036
83,17,17,Jits_Phase_5,1,1,48,77,2021707704
83,17,17,Jits_Phase_5,2,5,63,98,2021734804
83,17,17,Jits_Phase_5,3,5,80,127,2021774664
83,17,17,Jits_Phase_5,0,5,63,98,2022194684
83,17,17,Jits_Phase_5,1,1,48,76,2022233796
83,17,17,Jits_Phase_5,2,5,56,103,2022244680
83,17,17,Jits_Phase_5,3,5,80,127,2022255172
83,17,17,Jits_Phase_5,0,1,48,74,2022689828
83,17,17,Jits_Phase_5,1,5,56,103,2022735184
83,17,17,Jits_Phase_5,2,5,63,98,2022785396
83,17,17,Jits_Phase_5,3,5,80,127,2022794616
83,17,17,Jits_Phase_5,0,5,56,103,2023205192
83,17,17,Jits_Phase_5,1,5,63,98,2023214416
83,17,17,Jits_Phase_5,2,1,48,67,2023230264
83,17,17,Jits_Phase_5,3,5,80,127,2023295344
83,17,17,Jits_Phase_5,0,9999,9999,9999,1938962516
83,17,17,Jits_Phase_5,1,9999,9999,9999,1939462220
83,17,17,Jits_Phase_5,2,9999,9999,9999,1939962940
83,17,17,Jits_Phase_5,3,9999,9999,9999,1940462704
83,17,17,Jits_Phase_5,4,9999,9999,9999,1940962384
83,17,17,Jits_Phase_5,5,9999,9999,9999,1941462136
83,17,17,Jits_Phase_5,6,9999,9999,9999,1941962860
83,17,17,Jits_Phase_5,7,9999,9999,9999,1942462548
83,17,17,Jits_Phase_5,8,9999,9999,9999,1942962236
83,17,17,Jits_Phase_5,9,9999,9999,9999,1943462976
83,17,17,Jits_Phase_5,10,9999,9999,9999,1943962736
83,17,17,Jits_Phase_5,11,9999,9999,9999,1944462428
83,17,17,Jits_Phase_5,12,9999,9999,9999,1944962176
83,17,17,Jits_Phase_5,13,9999,9999,9999,1945462892
83,17,17,Jits_Phase_5,14,9999,9999,9999,1945962568
83,17,17,Jits_Phase_5,15,9999,9999,9999,1946462332
83,17,17,Jits_Phase_5,16,9999,9999,9999,1946963040
83,17,17,Jits_Phase_5,17,9999,9999,9999,1947462780
83,17,17,Jits_Phase_5,18,9999,9999,9999,1947962468
83,17,17,Jits_Phase_5,19,9999,9999,9999,1948462160
83,17,17,Jits_Phase_5,20,9999,9999,9999,1948962896
83,17,17,Jits_Phase_5,21,9999,9999,9999,1949462588
83,17,17,Jits_Phase_5,22,9999,9999,9999,1949962348
83,17,17,Jits_Phase_5,23,9999,9999,9999,1950463088
83,17,17,Jits_Phase_5,24,9999,9999,9999,1950962780
83,17,17,Jits_Phase_5,25,9999,9999,9999,1951462464
83,17,17,Jits_Phase_5,26,9999,9999,9999,1951962228
83,17,17,Jits_Phase_5,27,9999,9999,9999,1952462940
83,17,17,Jits_Phase_5,28,9999,9999,9999,1952962632
83,17,17,Jits_Phase_5,29,9999,9999,9999,1953462396
83,17,17,Jits_Phase_5,30,9999,9999,9999,1953952872
83,17,17,Jits_Phase_5,31,9999,9999,9999,1954452560
83,17,17,Jits_Phase_5,32,9999,9999,9999,1954952252
83,17,17,Jits_Phase_5,33,9999,9999,9999,1955452992
83,17,17,Jits_Phase_5,34,9999,9999,9999,1955952756
83,17,17,Jits_Phase_5,35,9999,9999,9999,1956452448
83,17,17,Jits_Phase_5,36,9999,9999,9999,1956952160
83,17,17,Jits_Phase_5,37,9999,9999,9999,1957452876
83,17,17,Jits_Phase_5,38,9999,9999,9999,1957952568
83,17,17,Jits_Phase_5,39,9999,9999,9999,1958452320
83,17,17,Jits_Phase_5,40,9999,9999,9999,1958953048
83,17,17,Jits_Phase_5,41,9999,9999,9999,1959452736
83,17,17,Jits_Phase_5,42,9999,9999,9999,1959952500
83,17,17,Jits_Phase_5,43,9999,9999,9999,1960452172
83,17,17,Jits_Phase_5,44,9999,9999,9999,1960952892
83,17,17,Jits_Phase_5,45,9999,9999,9999,1961452640
83,17,17,Jits_Phase_5,46,9999,9999,9999,1961952320
83,17,17,Jits_Phase_5,47,9999,9999,9999,1962453048
83,17,17,Jits_Phase_5,48,9999,9999,9999,1962963064
83,17,17,Jits_Phase_5,49,9999,9999,9999,1963462760
83,17,17,Jits_Phase_5,50,9999,9999,9999,1963962424
83,17,17,Jits_Phase_5,51,9999,9999,9999,1964462192
83,17,17,Jits_Phase_5,52,9999,9999,9999,1964962932
83,17,17,Jits_Phase_5,53,9999,9999,9999,1965462624
83,17,17,Jits_Phase_5,54,9999,9999,9999,1965962304
83,17,17,Jits_Phase_5,55,9999,9999,9999,1966463048
83,17,17,Jits_Phase_5,56,9999,9999,9999,1966962808
83,17,17,Jits_Phase_5,57,9999,9999,9999,1967462488
83,17,17,Jits_Phase_5,58,9999,9999,9999,1967962212
83,17,17,Jits_Phase_5,59,9999,9999,9999,1968462912
83,17,17,Jits_Phase_5,60,9999,9999,9999,1968962680
83,17,17,Jits_Phase_5,61,9999,9999,9999,1969462352
83,17,17,Jits_Phase_5,62,9999,9999,9999,1969963084
83,17,17,Jits_Phase_5,63,9999,9999,9999,1970473032
83,17,17,Jits_Phase_5,64,9999,9999,9999,1970992188
83,17,17,Jits_Phase_5,65,9999,9999,9999,1971492924
83,17,17,Jits_Phase_5,66,9999,9999,9999,1971992692
83,17,17,Jits_Phase_5,67,9999,9999,9999,1972492368
83,17,17,Jits_Phase_5,68,9999,9999,9999,1972992060
83,17,17,Jits_Phase_5,69,9999,9999,9999,1973492852
83,17,17,Jits_Phase_5,70,9999,9999,9999,1973992520
83,17,17,Jits_Phase_5,71,9999,9999,9999,1974492284
83,17,17,Jits_Phase_5,72,9999,9999,9999,1974993008
83,17,17,Jits_Phase_5,73,9999,9999,9999,1975492680
83,17,17,Jits_Phase_5,74,9999,9999,9999,1975992432
83,17,17,Jits_Phase_5,75,9999,9999,9999,1976492108
83,17,17,Jits_Phase_5,76,9999,9999,9999,1976992852
83,17,17,Jits_Phase_5,77,9999,9999,9999,1977492600
83,17,17,Jits_Phase_5,78,9999,9999,9999,1977992292
83,17,17,Jits_Phase_5,79,9999,9999,9999,1978493016
83,17,17,Jits_Phase_5,80,9999,9999,9999,1978992764
83,17,17,Jits_Phase_5,81,9999,9999,9999,1979473016
83,17,17,Jits_Phase_5,82,9999,9999,9999,1979972696
83,17,17,Jits_Phase_5,83,9999,9999,9999,1980472444
83,17,17,Jits_Phase_5,84,9999,9999,9999,1980972136
83,17,17,Jits_Phase_5,85,9999,9999,9999,1981472856
83,17,17,Jits_Phase_5,86,9999,9999,9999,1981972604
83,17,17,Jits_Phase_5,87,9999,9999,9999,1982472292
83,17,17,Jits_Phase_5,88,9999,9999,9999,1982973016
83,17,17,Jits_Phase_5,89,9999,9999,9999,1983472764
83,17,17,Jits_Phase_5,90,9999,9999,9999,1983972440
83,17,17,Jits_Phase_5,91,9999,9999,9999,1984472124
83,17,17,Jits_Phase_5,92,9999,9999,9999,1984972920
83,17,17,Jits_Phase_5,93,9999,9999,9999,1985472596
83,17,17,Jits_Phase_5,94,9999,9999,9999,1985972344
83,17,17,Jits_Phase_5,95,9999,9999,9999,1986473084
83,17,17,Jits_Phase_5,96,9999,9999,9999,1986972772
83,17,17,Jits_Phase_5,97,9999,9999,9999,1987422328
83,17,17,Jits_Phase_5,98,9999,9999,9999,1987923024
83,17,17,Jits_Phase_5,99,9999,9999,9999,1988422784
83,17,17,Jits_Phase_5,100,9999,9999,9999,1988922456
83,17,17,Jits_Phase_5,101,9999,9999,9999,1989422148
83,17,17,Jits_Phase_5,102,9999,9999,9999,1989922876
83,17,17,Jits_Phase_5,103,9999,9999,9999,1990422644
83,17,17,Jits_Phase_5,104,9999,9999,9999,1990922316
83,17,17,Jits_Phase_5,105,9999,9999,9999,1991423036
83,17,17,Jits_Phase_5,106,9999,9999,9999,1991922788
83,17,17,Jits_Phase_5,107,9999,9999,9999,1992422460
83,17,17,Jits_Phase_5,108,9999,9999,9999,1992922204
83,17,17,Jits_Phase_5,109,9999,9999,9999,1993422928
83,17,17,Jits_Phase_5,110,9999,9999,9999,1993922616
83,17,17,Jits_Phase_5,111,9999,9999,9999,1994422364
83,17,17,Jits_Phase_5,112,9999,9999,9999,1994923088
83,17,17,Jits_Phase_5,113,9999,9999,9999,1995433032
83,17,17,Jits_Phase_5,114,9999,9999,9999,1995982968
83,17,17,Jits_Phase_5,115,9999,9999,9999,1996482640
83,17,17,Jits_Phase_5,116,9999,9999,9999,1996982388
83,17,17,Jits_Phase_5,117,9999,9999,9999,1997483128
83,17,17,Jits_Phase_5,118,9999,9999,9999,1997993084
83,17,17,Jits_Phase_5,119,9999,9999,9999,1998492748
83,17,17,Jits_Phase_5,120,9999,9999,9999,1998992440
83,17,17,Jits_Phase_5,121,9999,9999,9999,1999492188
83,17,17,Jits_Phase_5,122,9999,9999,9999,1999992900
83,17,17,Jits_Phase_5,123,9999,9999,9999,2000492664
83,17,17,Jits_Phase_5,124,9999,9999,9999,2000992340
83,17,17,Jits_Phase_5,125,9999,9999,9999,2001493108
83,17,17,Jits_Phase_5,126,9999,9999,9999,2001992792
83,17,17,Jits_Phase_5,127,9999,9999,9999,2002492540
83,17,17,Jits_Phase_5,128,9999,9999,9999,2002992216
83,17,17,Jits_Phase_5,129,9999,9999,9999,2003492956
83,17,17,Jits_Phase_5,130,9999,9999,9999,2003992644
83,17,17,Jits_Phase_5,131,9999,9999,9999,2004592732
83,17,17,Jits_Phase_5,132,9999,9999,9999,2005092420
83,17,17,Jits_Phase_5,133,9999,9999,9999,2005592168
83,17,17,Jits_Phase_5,134,9999,9999,9999,2006092864
83,17,17,Jits_Phase_5,135,9999,9999,9999,2006592628
83,17,17,Jits_Phase_5,136,9999,9999,9999,2007092316
83,17,17,Jits_Phase_5,137,9999,9999,9999,2007593036
83,17,17,Jits_Phase_5,138,9999,9999,9999,2008092784
83,17,17,Jits_Phase_5,139,9999,9999,9999,2008592480
83,17,17,Jits_Phase_5,140,9999,9999,9999,2009092156
83,17,17,Jits_Phase_5,141,9999,9999,9999,2009592892
83,17,17,Jits_Phase_5,142,9999,9999,9999,2010092660
83,17,17,Jits_Phase_5,143,9999,9999,9999,2010592356
83,17,17,Jits_Phase_5,144,9999,9999,9999,2011093072
83,17,17,Jits_Phase_5,145,9999,9999,9999,2011592820
83,17,17,Jits_Phase_5,146,9999,9999,9999,2012092516
83,17,17,Jits_Phase_5,147,9999,9999,9999,2012592196
83,17,17,Jits_Phase_5,148,9999,9999,9999,2013092988
83,17,17,Jits_Phase_5,149,9999,9999,9999,2013592680
83,17,17,Jits_Phase_5,150,9999,9999,9999,2013993072
83,17,17,Jits_Phase_5,151,9999,9999,9999,2014492756
83,17,17,Jits_Phase_5,152,9999,9999,9999,2014992448
83,17,17,Jits_Phase_5,153,9999,9999,9999,2015492200
83,17,17,Jits_Phase_5,154,9999,9999,9999,2015992924
83,17,17,Jits_Phase_5,155,9999,9999,9999,2016492668
83,17,17,Jits_Phase_5,156,9999,9999,9999,2016992336
83,17,17,Jits_Phase_5,157,9999,9999,9999,2017493048
83,17,17,Jits_Phase_5,158,9999,9999,9999,2017992800
83,17,17,Jits_Phase_5,159,9999,9999,9999,2018492472
83,17,17,Jits_Phase_5,160,9999,9999,9999,2018992240
83,17,17,Jits_Phase_5,161,9999,9999,9999,2019492968
83,17,17,Jits_Phase_5,162,9999,9999,9999,2019992636
83,17,17,Jits_Phase_5,163,9999,9999,9999,2020492404
83,17,17,Jits_Phase_5,164,9999,9999,9999,2020992080
83,17,17,Jits_Phase_5,165,9999,9999,9999,2021492804
83,17,17,Jits_Phase_5,166,9999,9999,9999,2021992552
83,17,17,Jits_Phase_5,167,9999,9999,9999,2022492240
83,17,17,Jits_Phase_5,168,9999,9999,9999,2022993016
83,17,17,Jits_Phase_5,169,9999,9999,9999,2023492684
83,18,18,Jits_Linear_8,0,5,56,103,2032312628
83,18,18,Jits_Linear_8,1,5,63,98,2032315876
83,18,18,Jits_Linear_8,2,5,80,127,2032319068
83,18,18,Jits_Linear_8,0,5,56,103,2033132856
83,18,18,Jits_Linear_8,1,5,63,98,2033136028
83,18,18,Jits_Linear_8,2,5,80,127,2033139152
83,18,18,Jits_Linear_8,0,5,80,127,2033892868
83,18,18,Jits_Linear_8,1,1,48,65,2033977724
83,18,18,Jits_Linear_8,2,5,63,98,2033982776
83,18,18,Jits_Linear_8,3,5,56,103,2033993044
83,18,18,Jits_Linear_8,0,5,56,103,2034733396
83,18,18,Jits_Linear_8,1,1,48,74,2034740176
83,18,18,Jits_Linear_8,2,5,63,98,2034742764
83,18,18,Jits_Linear_8,3,5,80,127,2034832772
83,18,18,Jits_Linear_8,0,5,63,98,2035522976
83,18,18,Jits_Linear_8,1,1,48,67,2035540172
83,18,18,Jits_Linear_8,2,5,80,127,2035552892
83,18,18,Jits_Linear_8,3,5,56,103,2035583240
83,18,18,Jits_Linear_8,0,1,48,64,2036326904
83,18,18,Jits_Linear_8,1,5,56,103,2036343192
83,18,18,Jits_Linear_8,2,5,80,127,2036442680
83,18,18,Jits_Linear_8,3,5,63,98,2036492880
83,18,18,Jits_Linear_8,0,5,56,103,2037153072
83,18,18,Jits_Linear_8,1,1,48,64,2037170584
83,18,18,Jits_Linear_8,2,5,80,127,2037203344
83,18,18,Jits_Linear_8,3,5,63,98,2037243356
83,18,18,Jits_Linear_8,0,1,48,62,2037987264
83,18,18,Jits_Linear_8,1,5,80,127,2037992916
83,18,18,Jits_Linear_8,2,5,63,98,2038022668
83,18,18,Jits_Linear_8,3,5,56,103,2038093160
83,18,18,Jits_Linear_8,0,1,48,78,2038813328
83,18,18,Jits_Linear_8,1,5,63,98,2038832684
83,18,18,Jits_Linear_8,2,5,56,103,2038863256
83,18,18,Jits_Linear_8,3,5,80,127,2038922980
83,18,18,Jits_Linear_8,0,5,56,103,2039582992
83,18,18,Jits_Linear_8,1,5,80,127,2039586136
83,18,18,Jits_Linear_8,2,1,48,73,2039659252
83,18,18,Jits_Linear_8,3,5,63,98,2039702964
83,18,18,Jits_Linear_8,0,1,48,59,2040382348
83,18,18,Jits_Linear_8,1,5,56,103,2040462640
83,18,18,Jits_Linear_8,2,5,80,127,2040502568
83,18,18,Jits_Linear_8,3,5,63,98,2040512764
83,18,18,Jits_Linear_8,0,1,48,66,2041190064
83,18,18,Jits_Linear_8,1,5,56,103,2041222620
83,18,18,Jits_Linear_8,2,5,80,127,2041243152
83,18,18,Jits_Linear_8,3,5,63,98,2041322860
83,18,18,Jits_Linear_8,0,5,80,127,2042013016
83,18,18,Jits_Linear_8,1,1,48,63,2042061176
83,18,18,Jits_Linear_8,2,5,56,103,2042113488
83,18,18,Jits_Linear_8,3,5,63,98,2042122712
83,18,18,Jits_Linear_8,0,5,63,98,2042783040
83,18,18,Jits_Linear_8,1,1,48,79,2042837328
83,18,18,Jits_Linear_8,2,5,80,127,2042842604
83,18,18,Jits_Linear_8,3,5,56,103,2042852652
83,18,18,Jits_Linear_8,0,1,48,65,2043570484
83,18,18,Jits_Linear_8,1,5,56,103,2043582860
83,18,18,Jits_Linear_8,2,5,63,98,2043652544
83,18,18,Jits_Linear_8,3,5,80,127,2043655760
83,18,18,Jits_Linear_8,0,1,48,63,2044384452
83,18,18,Jits_Linear_8,1,5,63,98,2044413396
83,18,18,Jits_Linear_8,2,5,56,103,2044462476
83,18,18,Jits_Linear_8,3,5,80,127,2044465544
83,18,18,Jits_Linear_8,0,5,56,103,2045162800
83,18,18,Jits_Linear_8,1,5,80,127,2045165868
83,18,18,Jits_Linear_8,2,1,48,49,2045166836
83,18,18,Jits_Linear_8,3,5,63,98,2045253000
83,18,18,Jits_Linear_8,0,1,48,57,2045967236
83,18,18,Jits_Linear_8,1,5,63,98,2045993564
83,18,18,Jits_Linear_8,2,5,56,103,2046082368
83,18,18,Jits_Linear_8,3,5,80,127,2046113240
83,18,18,Jits_Linear_8,0,5,56,103,2046772508
83,18,18,Jits_Linear_8,1,1,48,46,2046786488
83,18,18,Jits_Linear_8,2,5,63,98,2046872928
83,18,18,Jits_Linear_8,3,5,80,127,2046902588
83,18,18,Jits_Linear_8,0,1,48,61,2047487056
83,18,18,Jits_Linear_8,1,5,63,98,2047582476
83,18,18,Jits_Linear_8,2,5,56,103,2047592748
83,18,18,Jits_Linear_8,3,5,80,127,2047682880
83,18,18,Jits_Linear_8,0,1,48,55,2048353308
83,18,18,Jits_Linear_8,1,5,63,98,2048383372
83,18,18,Jits_Linear_8,2,5,56,103,2048463376
83,18,18,Jits_Linear_8,3,5,80,127,2048466516
83,18,18,Jits_Linear_8,0,5,80,127,2049122744
83,18,18,Jits_Linear_8,1,5,63,98,2049143128
83,18,18,Jits_Linear_8,2,1,48,57,2049200956
83,18,18,Jits_Linear_8,3,5,56,103,2049202464
83,18,18,Jits_Linear_8,0,1,48,53,2049894604
83,18,18,Jits_Linear_8,1,5,56,103,2049943028
83,18,18,Jits_Linear_8,2,5,63,98,2049963560
83,18,18,Jits_Linear_8,3,5,80,127,2049966852
83,18,18,Jits_Linear_8,0,1,48,57,2050657252
83,18,18,Jits_Linear_8,1,5,63,98,2050662832
83,18,18,Jits_Linear_8,2,5,80,127,2050742776
83,18,18,Jits_Linear_8,3,5,56,103,2050752828
83,18,18,Jits_Linear_8,0,5,63,98,2051462440
83,18,18,Jits_Linear_8,1,1,48,59,2051466832
83,18,18,Jits_Linear_8,2,5,56,103,2051482968
83,18,18,Jits_Linear_8,3,5,80,127,2051533320
83,18,18,Jits_Linear_8,0,5,80,127,2052242784
83,18,18,Jits_Linear_8,1,1,48,64,2052249644
83,18,18,Jits_Linear_8,2,5,63,98,2052282720
83,18,18,Jits_Linear_8,3,5,56,103,2052303324
83,18,18,Jits_Linear_8,0,1,48,64,2053039140
83,18,18,Jits_Linear_8,1,5,56,103,2053052808
83,18,18,Jits_Linear_8,2,5,63,98,2053063156
83,18,18,Jits_Linear_8,3,5,80,127,2053082496
83,18,18,Jits_Linear_8,0,1,48,56,2053741284
83,18,18,Jits_Linear_8,1,5,56,103,2053753288
83,18,18,Jits_Linear_8,2,5,63,98,2053843560
83,18,18,Jits_Linear_8,3,5,80,127,2053902608
83,18,18,Jits_Linear_8,0,1,48,65,2054506188
83,18,18,Jits_Linear_8,1,5,80,127,2054552896
83,18,18,Jits_Linear_8,2,5,56,103,2054563316
83,18,18,Jits_Linear_8,3,5,63,98,2054632836
83,18,18,Jits_Linear_8,0,1,48,59,2055315612
83,18,18,Jits_Linear_8,1,5,63,98,2055352724
83,18,18,Jits_Linear_8,2,5,80,127,2055442772
83,18,18,Jits_Linear_8,3,5,56,103,2055452896
83,18,18,Jits_Linear_8,0,5,63,98,2056053220
83,18,18,Jits_Linear_8,1,5,80,127,2056103496
83,18,18,Jits_Linear_8,2,5,56,103,2056162616
83,18,18,Jits_Linear_8,3,1,48,65,2056207908
83,18,18,Jits_Linear_8,0,1,48,63,2056839592
83,18,18,Jits_Linear_8,1,5,56,103,2056842624
83,18,18,Jits_Linear_8,2,5,80,127,2056892756
83,18,18,Jits_Linear_8,3,5,63,98,2056913436
83,18,18,Jits_Linear_8,0,5,56,103,2057572632
83,18,18,Jits_Linear_8,1,1,48,62,2057577772
83,18,18,Jits_Linear_8,2,5,80,127,2057633244
83,18,18,Jits_Linear_8,3,5,63,98,2057702760
83,18,18,Jits_Linear_8,0,5,56,103,2058332468
83,18,18,Jits_Linear_8,1,1,48,59,2058362512
83,18,18,Jits_Linear_8,2,5,80,127,2058364156
83,18,18,Jits_Linear_8,3,5,63,98,2058392860
83,18,18,Jits_Linear_8,0,1,48,55,2059112644
83,18,18,Jits_Linear_8,1,5,56,103,2059133268
83,18,18,Jits_Linear_8,2,5,80,127,2059152684
83,18,18,Jits_Linear_8,3,5,63,98,2059213280
83,18,18,Jits_Linear_8,0,1,48,80,2059878672
83,18,18,Jits_Linear_8,1,5,80,127,2059973184
83,18,18,Jits_Linear_8,2,5,56,103,2059983588
83,18,18,Jits_Linear_8,3,5,63,98,2059992292
83,18,18,Jits_Linear_8,0,1,48,65,2060677168
83,18,18,Jits_Linear_8,1,5,56,103,2060682516
83,18,18,Jits_Linear_8,2,5,80,127,2060722532
83,18,18,Jits_Linear_8,3,5,63,98,2060753252
83,18,18,Jits_Linear_8,0,5,56,103,2061402344
83,18,18,Jits_Linear_8,1,1,48,70,2061413928
83,18,18,Jits_Linear_8,2,5,63,98,2061433356
83,18,18,Jits_Linear_8,3,5,80,127,2061473520
83,18,18,Jits_Linear_8,0,5,80,127,2062103188
83,18,18,Jits_Linear_8,1,5,63,98,2062153244
83,18,18,Jits_Linear_8,2,5,56,103,2062172456
83,18,18,Jits_Linear_8,3,1,48,69,2062178792
83,18,18,Jits_Linear_8,0,1,48,54,2062856248
83,18,18,Jits_Linear_8,1,5,56,103,2062883096
83,18,18,Jits_Linear_8,2,5,80,127,2062952936
83,18,18,Jits_Linear_8,3,5,63,98,2063013328
83,18,18,Jits_Linear_8,0,5,80,127,2063622700
83,18,18,Jits_Linear_8,1,1,48,56,2063650608
83,18,18,Jits_Linear_8,2,5,63,98,2063712556
83,18,18,Jits_Linear_8,3,5,56,103,2063733312
83,18,18,Jits_Linear_8,0,5,63,98,2064383360
83,18,18,Jits_Linear_8,1,1,48,57,2064398692
83,18,18,Jits_Linear_8,2,5,56,103,2064402844
83,18,18,Jits_Linear_8,3,5,80,127,2064442708
83,18,18,Jits_Linear_8,0,5,80,127,2065082728
83,18,18,Jits_Linear_8,1,5,63,98,2065103412
83,18,18,Jits_Linear_8,2,1,48,58,2065129972
83,18,18,Jits_Linear_8,3,5,56,103,2065183496
83,18,18,Jits_Linear_8,0,5,63,98,2065812964
83,18,18,Jits_Linear_8,1,1,48,58,2065819596
83,18,18,Jits_Linear_8,2,5,56,103,2065922484
83,18,18,Jits_Linear_8,3,5,80,127,2065925404
83,18,18,Jits_Linear_8,0,1,48,75,2066549212
83,18,18,Jits_Linear_8,1,5,63,98,2066572696
83,18,18,Jits_Linear_8,2,5,56,103,2066582892
83,18,18,Jits_Linear_8,3,5,80,127,2066586036
83,18,18,Jits_Linear_8,0,1,48,70,2067276184
83,18,18,Jits_Linear_8,1,5,56,103,2067292496
83,18,18,Jits_Linear_8,2,5,80,127,2067413480
83,18,18,Jits_Linear_8,3,5,63,98,2067453272
83,18,18,Jits_Linear_8,0,5,56,103,2068043384
83,18,18,Jits_Linear_8,1,1,48,65,2068079940
83,18,18,Jits_Linear_8,2,5,80,127,2068123276
83,18,18,Jits_Linear_8,3,5,63,98,2068142392
83,18,18,Jits_Linear_8,0,1,48,51,2068747372
83,18,18,Jits_Linear_8,1,5,56,103,2068773172
83,18,18,Jits_Linear_8,2,5,63,98,2068882800
83,18,18,Jits_Linear_8,3,5,80,127,2068886236
83,18,18,Jits_Linear_8,0,1,48,57,2069512884
83,18,18,Jits_Linear_8,1,5,56,103,2069533064
83,18,18,Jits_Linear_8,2,5,80,127,2069562668
83,18,18,Jits_Linear_8,3,5,63,98,2069583276
83,18,18,Jits_Linear_8,0,5,63,98,2070242624
83,18,18,Jits_Linear_8,1,1,48,63,2070247612
83,18,18,Jits_Linear_8,2,5,56,103,2070253108
83,18,18,Jits_Linear_8,3,5,80,127,2070263156
83,18,18,Jits_Linear_8,0,5,80,127,2070953292
83,18,18,Jits_Linear_8,1,1,48,58,2070956040
83,18,18,Jits_Linear_8,2,5,56,103,2071002516
83,18,18,Jits_Linear_8,3,5,63,98,2071042380
83,18,18,Jits_Linear_8,0,5,80,127,2071692592
83,18,18,Jits_Linear_8,1,1,48,81,2071698028
83,18,18,Jits_Linear_8,2,5,63,98,2071713120
83,18,18,Jits_Linear_8,3,5,56,103,2071763248
83,18,18,Jits_Linear_8,0,1,48,67,2072400964
83,18,18,Jits_Linear_8,1,5,80,127,2072422900
83,18,18,Jits_Linear_8,2,5,56,103,2072452504
83,18,18,Jits_Linear_8,3,5,63,98,2072522992
83,18,18,Jits_Linear_8,0,1,48,82,2073166196
83,18,18,Jits_Linear_8,1,5,56,103,2073193068
83,18,18,Jits_Linear_8,2,5,80,127,2073202968
83,18,18,Jits_Linear_8,3,5,63,98,2073243204
83,18,18,Jits_Linear_8,0,5,56,103,2073822516
83,18,18,Jits_Linear_8,1,5,63,98,2073843048
83,18,18,Jits_Linear_8,2,1,48,67,2073908720
83,18,18,Jits_Linear_8,3,5,80,127,2073912872
83,18,18,Jits_Linear_8,0,5,63,98,2074563092
83,18,18,Jits_Linear_8,1,1,48,61,2074575352
83,18,18,Jits_Linear_8,2,5,80,127,2074623404
83,18,18,Jits_Linear_8,3,5,56,103,2074642744
83,18,18,Jits_Linear_8,0,5,80,127,2075263272
83,18,18,Jits_Linear_8,1,1,48,59,2075282204
83,18,18,Jits_Linear_8,2,5,56,103,2075292940
83,18,18,Jits_Linear_8,3,5,63,98,2075322988
83,18,18,Jits_Linear_8,0,1,48,62,2075929384
83,18,18,Jits_Linear_8,1,5,56,103,2075972952
83,18,18,Jits_Linear_8,2,5,63,98,2076033356
83,18,18,Jits_Linear_8,3,5,80,127,2076092848
83,18,18,Jits_Linear_8,0,1,48,63,2076680988
83,18,18,Jits_Linear_8,1,5,80,127,2076703112
83,18,18,Jits_Linear_8,2,5,56,103,2076722448
83,18,18,Jits_Linear_8,3,5,63,98,2076793260
83,18,18,Jits_Linear_8,0,5,80,127,2077412816
83,18,18,Jits_Linear_8,1,5,63,98,2077433276
83,18,18,Jits_Linear_8,2,5,56,103,2077462876
83,18,18,Jits_Linear_8,3,1,48,62,2077473268
83,18,18,Jits_Linear_8,0,5,80,127,2078102976
83,18,18,Jits_Linear_8,1,5,63,98,2078123288
83,18,18,Jits_Linear_8,2,1,48,56,2078129400
83,18,18,Jits_Linear_8,3,5,56,103,2078182996
83,18,18,Jits_Linear_8,0,5,80,127,2078803300
83,18,18,Jits_Linear_8,1,1,48,55,2078831176
83,18,18,Jits_Linear_8,2,5,56,103,2078902524
83,18,18,Jits_Linear_8,3,5,63,98,2078933228
83,18,18,Jits_Linear_8,0,5,63,98,2079492416
83,18,18,Jits_Linear_8,1,5,80,127,2079542772
83,18,18,Jits_Linear_8,2,1,48,59,2079560720
83,18,18,Jits_Linear_8,3,5,56,103,2079563224
83,18,18,Jits_Linear_8,0,1,48,44,2080177948
83,18,18,Jits_Linear_8,1,5,80,127,2080232900
83,18,18,Jits_Linear_8,2,5,56,103,2080262576
83,18,18,Jits_Linear_8,3,5,63,98,2080265496
83,18,18,Jits_Linear_8,0,1,48,55,2080923988
83,18,18,Jits_Linear_8,1,5,63,98,2080962824
83,18,18,Jits_Linear_8,2,5,56,103,2081003060
83,18,18,Jits_Linear_8,3,5,80,127,2081023432
83,18,18,Jits_Linear_8,0,5,80,127,2081602908
83,18,18,Jits_Linear_8,1,1,48,60,2081640604
83,18,18,Jits_Linear_8,2,5,63,98,2081682876
83,18,18,Jits_Linear_8,3,5,56,103,2081722816
83,18,18,Jits_Linear_8,0,5,63,98,2082312704
83,18,18,Jits_Linear_8,1,1,48,62,2082374488
83,18,18,Jits_Linear_8,2,5,80,127,2082392372
83,18,18,Jits_Linear_8,3,5,56,103,2082412908
83,18,18,Jits_Linear_8,0,1,48,51,2083016912
83,18,18,Jits_Linear_8,1,5,56,103,2083042864
83,18,18,Jits_Linear_8,2,5,63,98,2083052836
83,18,18,Jits_Linear_8,3,5,80,127,2083092924
83,18,18,Jits_Linear_8,0,5,56,103,2083652904
83,18,18,Jits_Linear_8,1,5,80,127,2083656120
83,18,18,Jits_Linear_8,2,1,48,69,2083720340
83,18,18,Jits_Linear_8,3,5,63,98,2083793176
83,18,18,Jits_Linear_8,0,5,56,103,2084343132
83,18,18,Jits_Linear_8,1,1,48,51,2084382292
83,18,18,Jits_Linear_8,2,5,63,98,2084433260
83,18,18,Jits_Linear_8,3,5,80,127,2084502804
83,18,18,Jits_Linear_8,0,1,48,64,2085049368
83,18,18,Jits_Linear_8,1,5,63,98,2085103044
83,18,18,Jits_Linear_8,2,5,80,127,2085106256
83,18,18,Jits_Linear_8,3,5,56,103,2085163416
83,18,18,Jits_Linear_8,0,1,48,56,2085785068
83,18,18,Jits_Linear_8,1,5,80,127,2085822932
83,18,18,Jits_Linear_8,2,5,56,103,2085843168
83,18,18,Jits_Linear_8,3,5,63,98,2085852616
83,18,18,Jits_Linear_8,0,5,56,103,2086412820
83,18,18,Jits_Linear_8,1,5,63,98,2086423016
83,18,18,Jits_Linear_8,2,1,48,61,2086492720
83,18,18,Jits_Linear_8,3,5,80,127,2086494132
83,18,18,Jits_Linear_8,0,1,48,63,2087083544
83,18,18,Jits_Linear_8,1,5,80,127,2087092856
83,18,18,Jits_Linear_8,2,5,56,103,2087142912
83,18,18,Jits_Linear_8,3,5,63,98,2087193024
83,18,18,Jits_Linear_8,0,1,48,60,2087777056
83,18,18,Jits_Linear_8,1,5,56,103,2087853284
83,18,18,Jits_Linear_8,2,5,63,98,2087862584
83,18,18,Jits_Linear_8,3,5,80,127,2087902804
83,18,18,Jits_Linear_8,0,5,56,103,2088472996
83,18,18,Jits_Linear_8,1,1,48,62,2088502040
83,18,18,Jits_Linear_8,2,5,63,98,2088513004
83,18,18,Jits_Linear_8,3,5,80,127,2088563156
83,18,18,Jits_Linear_8,0,5,80,127,2089102848
83,18,18,Jits_Linear_8,1,5,56,103,2089152828
83,18,18,Jits_Linear_8,2,1,48,58,2089169796
83,18,18,Jits_Linear_8,3,5,63,98,2089173432
83,18,18,Jits_Linear_8,0,5,80,127,2089782796
83,18,18,Jits_Linear_8,1,1,48,54,2089817108
83,18,18,Jits_Linear_8,2,5,63,98,2089842984
83,18,18,Jits_Linear_8,3,5,56,103,2089922836
83,18,18,Jits_Linear_8,0,5,80,127,2090432800
83,18,18,Jits_Linear_8,1,5,56,103,2090472892
83,18,18,Jits_Linear_8,2,5,63,98,2090493276
83,18,18,Jits_Linear_8,3,1,48,46,2090522696
83,18,18,Jits_Linear_8,0,1,48,60,2091088724
83,18,18,Jits_Linear_8,1,5,56,103,2091152844
83,18,18,Jits_Linear_8,2,5,80,127,2091162892
83,18,18,Jits_Linear_8,3,5,63,98,2091202892
83,18,18,Jits_Linear_8,0,1,48,58,2091777304
83,18,18,Jits_Linear_8,1,5,56,103,2091882912
83,18,18,Jits_Linear_8,2,5,63,98,2091922852
83,18,18,Jits_Linear_8,3,5,80,127,2091926140
83,18,18,Jits_Linear_8,0,5,63,98,2092432728
83,18,18,Jits_Linear_8,1,5,80,127,2092472892
83,18,18,Jits_Linear_8,2,1,48,56,2092519008
83,18,18,Jits_Linear_8,3,1,38,13,2092534432
83,18,18,Jits_Linear_8,4,5,56,103,2092543224
83,18,18,Jits_Linear_8,0,5,63,98,2093082940
83,18,18,Jits_Linear_8,1,1,48,37,2093142208
83,18,18,Jits_Linear_8,2,5,56,103,2093162832
83,18,18,Jits_Linear_8,3,5,80,127,2093223368
83,18,18,Jits_Linear_8,0,1,48,56,2093741292
83,18,18,Jits_Linear_8,1,5,80,127,2093752552
83,18,18,Jits_Linear_8,2,5,63,98,2093802832
83,18,18,Jits_Linear_8,3,5,56,103,2093832804
83,18,18,Jits_Linear_8,0,5,56,103,2094403044
83,18,18,Jits_Linear_8,1,1,48,54,2094434660
83,18,18,Jits_Linear_8,2,5,63,98,2094453116
83,18,18,Jits_Linear_8,3,5,80,127,2094463388
83,18,18,Jits_Linear_8,0,5,56,103,2095072748
83,18,18,Jits_Linear_8,1,1,48,40,2095089048
83,18,18,Jits_Linear_8,2,5,63,98,2095183688
83,18,18,Jits_Linear_8,3,5,80,127,2095202608
83,18,18,Jits_Linear_8,0,5,63,98,2095722984
83,18,18,Jits_Linear_8,1,1,48,54,2095761476
83,18,18,Jits_Linear_8,2,5,80,127,2095773108
83,18,18,Jits_Linear_8,3,5,56,103,2095863076
83,18,18,Jits_Linear_8,0,5,63,98,2096362912
83,18,18,Jits_Linear_8,1,1,48,40,2096374200
83,18,18,Jits_Linear_8,2,5,80,127,2096392584
83,18,18,Jits_Linear_8,3,5,56,103,2096482724
83,18,18,Jits_Linear_8,0,1,48,57,2097010460
83,18,18,Jits_Linear_8,1,5,63,98,2097013044
83,18,18,Jits_Linear_8,2,5,56,103,2097023540
83,18,18,Jits_Linear_8,3,5,80,127,2097122648
83,18,18,Jits_Linear_8,0,1,48,48,2097611436
83,18,18,Jits_Linear_8,1,5,63,98,2097762668
83,18,18,Jits_Linear_8,2,5,80,127,2097793464
83,18,18,Jits_Linear_8,3,5,56,103,2097823064
83,18,18,Jits_Linear_8,0,1,48,50,2098373672
83,18,18,Jits_Linear_8,1,5,80,127,2098423068
83,18,18,Jits_Linear_8,2,5,63,98,2098433636
83,18,18,Jits_Linear_8,3,5,56,103,2098463016
83,18,18,Jits_Linear_8,0,5,80,127,2098962912
83,18,18,Jits_Linear_8,1,5,63,98,2098983372
83,18,18,Jits_Linear_8,2,1,48,33,2099006496
83,18,18,Jits_Linear_8,3,5,56,103,2099032768
83,18,18,Jits_Linear_8,0,1,48,51,2099603436
83,18,18,Jits_Linear_8,1,5,63,98,2099632460
83,18,18,Jits_Linear_8,2,5,80,127,2099692780
83,18,18,Jits_Linear_8,3,5,56,103,2099713596
83,18,18,Jits_Linear_8,0,5,63,98,2100232684
83,18,18,Jits_Linear_8,1,1,48,57,2100281608
83,18,18,Jits_Linear_8,2,5,56,103,2100283104
83,18,18,Jits_Linear_8,3,5,80,127,2100293004
83,18,18,Jits_Linear_8,0,1,48,38,2100849508
83,18,18,Jits_Linear_8,1,5,56,103,2100903412
83,18,18,Jits_Linear_8,2,5,80,127,2100912712
83,18,18,Jits_Linear_8,3,5,63,98,2101012720
83,18,18,Jits_Linear_8,0,5,80,127,2101503636
83,18,18,Jits_Linear_8,1,5,63,98,2101512488
83,18,18,Jits_Linear_8,2,1,48,40,2101569916
83,18,18,Jits_Linear_8,3,5,56,103,2101662948
83,18,18,Jits_Linear_8,0,5,63,98,2102143380
83,18,18,Jits_Linear_8,1,5,80,127,2102183244
83,18,18,Jits_Linear_8,2,1,48,43,2102197376
83,18,18,Jits_Linear_8,3,5,56,103,2102263104
83,18,18,Jits_Linear_8,0,5,56,103,2102762776
83,18,18,Jits_Linear_8,1,1,48,39,2102776456
83,18,18,Jits_Linear_8,2,5,80,127,2102863092
83,18,18,Jits_Linear_8,3,5,63,98,2102882740
83,18,18,Jits_Linear_8,0,1,48,52,2103446984
83,18,18,Jits_Linear_8,1,5,80,127,2103452932
83,18,18,Jits_Linear_8,2,5,56,103,2103463424
83,18,18,Jits_Linear_8,3,5,63,98,2103553468
83,18,18,Jits_Linear_8,0,5,56,103,2104082756
83,18,18,Jits_Linear_8,1,5,63,98,2104103216
83,18,18,Jits_Linear_8,2,1,48,46,2104138540
83,18,18,Jits_Linear_8,3,5,80,127,2104183176
83,18,18,Jits_Linear_8,0,5,63,98,2104653244
83,18,18,Jits_Linear_8,1,1,48,54,2104731920
83,18,18,Jits_Linear_8,2,5,56,103,2104743396
83,18,18,Jits_Linear_8,3,5,80,127,2104746388
83,18,18,Jits_Linear_8,0,5,56,103,2105303524
83,18,18,Jits_Linear_8,1,1,48,51,2105327772
83,18,18,Jits_Linear_8,2,5,80,127,2105362712
83,18,18,Jits_Linear_8,3,5,63,98,2105372984
83,18,18,Jits_Linear_8,0,1,48,57,2105947576
83,18,18,Jits_Linear_8,1,5,80,127,2105973156
83,18,18,Jits_Linear_8,2,5,56,103,2105983496
83,18,18,Jits_Linear_8,3,5,63,98,2105986564
83,18,18,Jits_Linear_8,0,5,56,103,2106552692
83,18,18,Jits_Linear_8,1,5,80,127,2106563036
83,18,18,Jits_Linear_8,2,5,63,98,2106583572
83,18,18,Jits_Linear_8,3,1,48,70,2106593212
83,18,18,Jits_Linear_8,0,5,63,98,2107142436
83,18,18,Jits_Linear_8,1,1,48,49,2107167200
83,18,18,Jits_Linear_8,2,5,80,127,2107202896
83,18,18,Jits_Linear_8,3,5,56,103,2107253416
83,18,18,Jits_Linear_8,0,1,48,55,2107752536
83,18,18,Jits_Linear_8,1,5,63,98,2107843064
83,18,18,Jits_Linear_8,2,5,56,103,2107853320
83,18,18,Jits_Linear_8,3,5,80,127,2107903296
83,18,18,Jits_Linear_8,0,5,63,98,2108352864
83,18,18,Jits_Linear_8,1,5,80,127,2108373324
83,18,18,Jits_Linear_8,2,5,56,103,2108382548
83,18,18,Jits_Linear_8,3,1,48,57,2108422004
83,18,18,Jits_Linear_8,0,1,48,55,2108953792
83,18,18,Jits_Linear_8,1,5,63,98,2108963476
83,18,18,Jits_Linear_8,2,5,80,127,2108966688
83,18,18,Jits_Linear_8,3,5,56,103,2109003264
83,18,18,Jits_Linear_8,0,1,48,50,2109549660
83,18,18,Jits_Linear_8,1,5,63,98,2109643420
83,18,18,Jits_Linear_8,2,5,80,127,2109672784
83,18,18,Jits_Linear_8,3,5,56,103,2109683204
83,18,18,Jits_Linear_8,0,5,56,103,2110203488
83,18,18,Jits_Linear_8,1,1,48,35,2110220484
83,18,18,Jits_Linear_8,2,5,80,127,2110232936
83,18,18,Jits_Linear_8,3,5,63,98,2110262612
83,18,18,Jits_Linear_8,0,1,48,50,2110789748
83,18,18,Jits_Linear_8,1,5,63,98,2110902628
83,18,18,Jits_Linear_8,2,5,56,103,2110942640
83,18,18,Jits_Linear_8,3,5,80,127,2110945708
83,18,18,Jits_Linear_8,0,5,80,127,2111403520
83,18,18,Jits_Linear_8,1,1,48,32,2111469488
83,18,18,Jits_Linear_8,2,5,56,103,2111483236
83,18,18,Jits_Linear_8,3,5,63,98,2111533364
83,18,18,Jits_Linear_8,0,5,80,127,2111982852
83,18,18,Jits_Linear_8,1,5,56,103,2112002560
83,18,18,Jits_Linear_8,2,1,48,46,2112032884
83,18,18,Jits_Linear_8,3,5,63,98,2112092564
83,18,18,Jits_Linear_8,0,1,48,54,2112579292
83,18,18,Jits_Linear_8,1,5,80,127,2112622884
83,18,18,Jits_Linear_8,2,5,63,98,2112662824
83,18,18,Jits_Linear_8,3,5,56,103,2112703044
83,18,18,Jits_Linear_8,0,5,63,98,2113193288
83,18,18,Jits_Linear_8,1,1,48,36,2113198796
83,18,18,Jits_Linear_8,2,5,80,127,2113252700
83,18,18,Jits_Linear_8,3,5,56,103,2113282376
83,18,18,Jits_Linear_8,0,1,48,34,2113768664
83,18,18,Jits_Linear_8,1,5,56,103,2113793424
83,18,18,Jits_Linear_8,2,5,80,127,2113823248
83,18,18,Jits_Linear_8,3,5,63,98,2113913240
83,18,18,Jits_Linear_8,0,1,48,29,2114354576
83,18,18,Jits_Linear_8,1,5,56,103,2114392392
83,18,18,Jits_Linear_8,2,5,80,127,2114503040
83,18,18,Jits_Linear_8,3,5,63,98,2114532792
83,18,18,Jits_Linear_8,0,1,48,38,2114965016
83,18,18,Jits_Linear_8,1,5,56,103,2115032480
83,18,18,Jits_Linear_8,2,5,63,98,2115092860
83,18,18,Jits_Linear_8,3,5,80,127,2115122532
83,18,18,Jits_Linear_8,0,5,56,103,2115592704
83,18,18,Jits_Linear_8,1,1,48,53,2115614404
83,18,18,Jits_Linear_8,2,5,63,98,2115663204
83,18,18,Jits_Linear_8,3,5,80,127,2115682640
83,18,18,Jits_Linear_8,0,5,80,127,2116152624
83,18,18,Jits_Linear_8,1,5,63,98,2116173308
83,18,18,Jits_Linear_8,2,1,48,54,2116201936
83,18,18,Jits_Linear_8,3,5,56,103,2116223456
83,18,18,Jits_Linear_8,0,5,63,98,2116752732
83,18,18,Jits_Linear_8,1,5,80,127,2116763080
83,18,18,Jits_Linear_8,2,1,48,53,2116778332
83,18,18,Jits_Linear_8,3,5,56,103,2116813272
83,18,18,Jits_Linear_8,0,5,63,98,2117333320
83,18,18,Jits_Linear_8,1,1,48,66,2117376224
83,18,18,Jits_Linear_8,2,5,80,127,2117403220
83,18,18,Jits_Linear_8,3,5,56,103,2117422408
83,18,18,Jits_Linear_8,0,5,63,98,2117942608
83,18,18,Jits_Linear_8,1,1,48,49,2117945012
83,18,18,Jits_Linear_8,2,5,80,127,2117947160
83,18,18,Jits_Linear_8,3,5,56,103,2118013276
83,18,18,Jits_Linear_8,0,5,80,127,2118473360
83,18,18,Jits_Linear_8,1,5,56,103,2118492576
83,18,18,Jits_Linear_8,2,5,63,98,2118502848
83,18,18,Jits_Linear_8,3,1,48,55,2118556684
83,18,18,Jits_Linear_8,0,1,48,59,2119040548
83,18,18,Jits_Linear_8,1,5,56,103,2119073084
83,18,18,Jits_Linear_8,2,5,63,98,2119163352
83,18,18,Jits_Linear_8,3,5,80,127,2119166792
83,18,18,Jits_Linear_8,0,5,80,127,2119622956
83,18,18,Jits_Linear_8,1,5,56,103,2119633152
83,18,18,Jits_Linear_8,2,5,63,98,2119652712
83,18,18,Jits_Linear_8,3,1,48,62,2119660464
83,18,18,Jits_Linear_8,0,5,63,98,2120193364
83,18,18,Jits_Linear_8,1,5,80,127,2120252784
83,18,18,Jits_Linear_8,2,1,48,63,2120254796
83,18,18,Jits_Linear_8,3,5,56,103,2120263120
83,18,18,Jits_Linear_8,0,1,48,52,2120769784
83,18,18,Jits_Linear_8,1,5,63,98,2120833380
83,18,18,Jits_Linear_8,2,5,80,127,2120863056
83,18,18,Jits_Linear_8,3,5,56,103,2120903200
83,18,18,Jits_Linear_8,0,1,48,54,2121338120
83,18,18,Jits_Linear_8,1,5,56,103,2121392620
83,18,18,Jits_Linear_8,2,5,80,127,2121402744
83,18,18,Jits_Linear_8,3,5,63,98,2121442592
83,18,18,Jits_Linear_8,0,5,80,127,2121922872
83,18,18,Jits_Linear_8,1,1,48,65,2121936404
83,18,18,Jits_Linear_8,2,5,56,103,2122002888
83,18,18,Jits_Linear_8,3,5,63,98,2122013008
83,18,18,Jits_Linear_8,0,1,48,55,2122499012
83,18,18,Jits_Linear_8,1,5,80,127,2122533292
83,18,18,Jits_Linear_8,2,5,56,103,2122613100
83,18,18,Jits_Linear_8,3,5,63,98,2122623368
83,18,18,Jits_Linear_8,0,5,80,127,2123053356
83,18,18,Jits_Linear_8,1,1,48,58,2123080072
83,18,18,Jits_Linear_8,2,5,56,103,2123102456
83,18,18,Jits_Linear_8,3,5,63,98,2123152808
83,18,18,Jits_Linear_8,0,1,48,61,2123615752
83,18,18,Jits_Linear_8,1,5,56,103,2123673248
83,18,18,Jits_Linear_8,2,5,63,98,2123676160
83,18,18,Jits_Linear_8,3,5,80,127,2123723428
83,18,18,Jits_Linear_8,0,1,48,57,2124239708
83,18,18,Jits_Linear_8,1,5,56,103,2124252484
83,18,18,Jits_Linear_8,2,5,63,98,2124283208
83,18,18,Jits_Linear_8,3,5,80,127,2124292432
83,18,18,Jits_Linear_8,0,5,63,98,2124722576
83,18,18,Jits_Linear_8,1,5,56,103,2124793232
83,18,18,Jits_Linear_8,2,1,48,60,2124801528
83,18,18,Jits_Linear_8,3,5,80,127,2124843424
83,18,18,Jits_Linear_8,0,1,48,62,2125305232
83,18,18,Jits_Linear_8,1,5,63,98,2125313352
83,18,18,Jits_Linear_8,2,5,56,103,2125322724
83,18,18,Jits_Linear_8,3,5,80,127,2125325640
83,18,18,Jits_Linear_8,0,5,80,127,2125813172
83,18,18,Jits_Linear_8,1,5,56,103,2125872444
83,18,18,Jits_Linear_8,2,1,48,67,2125907868
83,18,18,Jits_Linear_8,3,5,63,98,2125962596
83,18,18,Jits_Linear_8,0,5,80,127,2126373252
83,18,18,Jits_Linear_8,1,5,56,103,2126472556
83,18,18,Jits_Linear_8,2,1,48,43,2126484888
83,18,18,Jits_Linear_8,3,5,63,98,2126512560
83,18,18,Jits_Linear_8,0,5,56,103,2126973440
83,18,18,Jits_Linear_8,1,5,63,98,2126992628
83,18,18,Jits_Linear_8,2,5,80,127,2127033016
83,18,18,Jits_Linear_8,3,1,48,63,2127039652
83,18,18,Jits_Linear_8,0,5,63,98,2127492536
83,18,18,Jits_Linear_8,1,5,56,103,2127513072
83,18,18,Jits_Linear_8,2,1,48,67,2127542644
83,18,18,Jits_Linear_8,3,5,80,127,2127613236
83,18,18,Jits_Linear_8,0,5,63,98,2128023004
83,18,18,Jits_Linear_8,1,1,48,71,2128124196
83,18,18,Jits_Linear_8,2,5,80,127,2128132388
83,18,18,Jits_Linear_8,3,5,56,103,2128163260
83,18,18,Jits_Linear_8,0,5,56,103,2128582996
83,18,18,Jits_Linear_8,1,5,63,98,2128612596
83,18,18,Jits_Linear_8,2,1,48,70,2128655044
83,18,18,Jits_Linear_8,3,5,80,127,2128663164
83,18,18,Jits_Linear_8,0,5,63,98,2129093096
83,18,18,Jits_Linear_8,1,5,56,103,2129122552
83,18,18,Jits_Linear_8,2,5,80,127,2129173124
83,18,18,Jits_Linear_8,3,1,48,78,2129177140
83,18,18,Jits_Linear_8,0,5,56,103,2129663196
83,18,18,Jits_Linear_8,1,5,63,98,2129683056
83,18,18,Jits_Linear_8,2,1,48,73,2129688120
83,18,18,Jits_Linear_8,3,5,80,127,2129762720
83,18,18,Jits_Linear_8,0,5,63,98,2130173224
83,18,18,Jits_Linear_8,1,1,48,53,2130191640
83,18,18,Jits_Linear_8,2,5,56,103,2130232640
83,18,18,Jits_Linear_8,3,5,80,127,2130263536
83,18,18,Jits_Linear_8,0,1,48,53,2130737068
83,18,18,Jits_Linear_8,1,5,56,103,2130752984
83,18,18,Jits_Linear_8,2,5,80,127,2130813252
83,18,18,Jits_Linear_8,3,5,63,98,2130853252
83,18,18,Jits_Linear_8,0,1,48,68,2131234880
83,18,18,Jits_Linear_8,1,5,63,98,2131263000
83,18,18,Jits_Linear_8,2,5,56,103,2131323196
83,18,18,Jits_Linear_8,3,5,80,127,2131392936
83,18,18,Jits_Linear_8,0,1,48,76,2131829720
83,18,18,Jits_Linear_8,1,5,56,103,2131873288
83,18,18,Jits_Linear_8,2,5,63,98,2131883408
83,18,18,Jits_Linear_8,3,5,80,127,2131886996
83,18,18,Jits_Linear_8,0,5,63,98,2132343148
83,18,18,Jits_Linear_8,1,1,48,43,2132376836
83,18,18,Jits_Linear_8,2,5,56,103,2132402636
83,18,18,Jits_Linear_8,3,5,80,127,2132405556
83,18,18,Jits_Linear_8,0,5,63,98,2132853080
83,18,18,Jits_Linear_8,1,5,80,127,2132882908
83,18,18,Jits_Linear_8,2,5,56,103,2132903140
83,18,18,Jits_Linear_8,3,1,48,69,2132924164
83,18,18,Jits_Linear_8,0,5,56,103,2133382424
83,18,18,Jits_Linear_8,1,1,48,50,2133383760
83,18,18,Jits_Linear_8,2,5,63,98,2133432772
83,18,18,Jits_Linear_8,3,5,80,127,2133512552
83,18,18,Jits_Linear_8,0,5,80,127,2133883312
83,18,18,Jits_Linear_8,1,5,63,98,2133923180
83,18,18,Jits_Linear_8,2,1,48,67,2133941312
83,18,18,Jits_Linear_8,3,5,56,103,2133942736
83,18,18,Jits_Linear_8,0,1,48,56,2134405372
83,18,18,Jits_Linear_8,1,5,56,103,2134473128
83,18,18,Jits_Linear_8,2,5,80,127,2134483252
83,18,18,Jits_Linear_8,3,5,63,98,2134503020
83,18,18,Jits_Linear_8,0,5,56,103,2134972960
83,18,18,Jits_Linear_8,1,1,48,53,2134980120
83,18,18,Jits_Linear_8,2,5,63,98,2135022936
83,18,18,Jits_Linear_8,3,5,80,127,2135052760
83,18,18,Jits_Linear_8,0,5,56,103,2135442988
83,18,18,Jits_Linear_8,1,5,63,98,2135453032
83,18,18,Jits_Linear_8,2,1,48,62,2135480348
83,18,18,Jits_Linear_8,3,5,80,127,2135503228
83,18,18,Jits_Linear_8,0,5,56,103,2135952860
83,18,18,Jits_Linear_8,1,5,80,127,2135956000
83,18,18,Jits_Linear_8,2,1,48,66,2135988340
83,18,18,Jits_Linear_8,3,5,63,98,2136112420
83,18,18,Jits_Linear_8,0,5,63,98,2136483112
83,18,18,Jits_Linear_8,1,1,48,68,2136526684
83,18,18,Jits_Linear_8,2,5,56,103,2136553088
83,18,18,Jits_Linear_8,3,5,80,127,2136592952
83,18,18,Jits_Linear_8,0,5,63,98,2137032988
83,18,18,Jits_Linear_8,1,1,48,72,2137041288
83,18,18,Jits_Linear_8,2,5,56,103,2137123264
83,18,18,Jits_Linear_8,3,5,80,127,2137126332
83,18,18,Jits_Linear_8,0,5,56,103,2137522400
83,18,18,Jits_Linear_8,1,1,48,60,2137602320
83,18,18,Jits_Linear_8,2,5,63,98,2137612604
83,18,18,Jits_Linear_8,3,5,80,127,2137623024
83,18,18,Jits_Linear_8,0,5,56,103,2138002988
83,18,18,Jits_Linear_8,1,5,63,98,2138053192
83,18,18,Jits_Linear_8,2,1,48,53,2138081056
83,18,18,Jits_Linear_8,3,5,80,127,2138082716
83,18,18,Jits_Linear_8,0,1,48,52,2138564456
83,18,18,Jits_Linear_8,1,5,63,98,2138583444
83,18,18,Jits_Linear_8,2,5,80,127,2138592740
83,18,18,Jits_Linear_8,3,5,56,103,2138653056
83,18,18,Jits_Linear_8,0,5,63,98,2139003188
83,18,18,Jits_Linear_8,1,5,80,127,2139062832
83,18,18,Jits_Linear_8,2,5,56,103,2139102548
83,18,18,Jits_Linear_8,3,1,48,64,2139106188
83,18,18,Jits_Linear_8,0,1,48,65,2139570648
83,18,18,Jits_Linear_8,1,5,56,103,2139603408
83,18,18,Jits_Linear_8,2,5,80,127,2139623044
83,18,18,Jits_Linear_8,3,5,63,98,2139643352
83,18,18,Jits_Linear_8,0,5,63,98,2140023156
83,18,18,Jits_Linear_8,1,5,56,103,2140042716
83,18,18,Jits_Linear_8,2,1,48,61,2140065536
83,18,18,Jits_Linear_8,3,5,80,127,2140082724
83,18,18,Jits_Linear_8,0,1,48,65,2140525868
83,18,18,Jits_Linear_8,1,5,63,98,2140533012
83,18,18,Jits_Linear_8,2,5,80,127,2140562988
83,18,18,Jits_Linear_8,3,5,56,103,2140583148
83,18,18,Jits_Linear_8,0,5,80,127,2141003224
83,18,18,Jits_Linear_8,1,1,48,56,2141016856
83,18,18,Jits_Linear_8,2,5,56,103,2141053224
83,18,18,Jits_Linear_8,3,5,63,98,2141112792
83,18,18,Jits_Linear_8,0,5,63,98,2141483288
83,18,18,Jits_Linear_8,1,1,48,57,2141521252
83,18,18,Jits_Linear_8,2,5,56,103,2141603164
83,18,18,Jits_Linear_8,3,5,80,127,2141632896
83,18,18,Jits_Linear_8,0,5,80,127,2142012984
83,18,18,Jits_Linear_8,1,5,63,98,2142033148
83,18,18,Jits_Linear_8,2,1,48,62,2142037836
83,18,18,Jits_Linear_8,3,5,56,103,2142102748
83,18,18,Jits_Linear_8,0,5,63,98,2142522844
83,18,18,Jits_Linear_8,1,5,56,103,2142533040
83,18,18,Jits_Linear_8,2,1,48,59,2142539904
83,18,18,Jits_Linear_8,3,5,80,127,2142612784
83,18,18,Jits_Linear_8,0,1,48,57,2143044448
83,18,18,Jits_Linear_8,1,5,56,103,2143072824
83,18,18,Jits_Linear_8,2,5,80,127,2143103396
83,18,18,Jits_Linear_8,3,5,63,98,2143112620
83,18,18,Jits_Linear_8,0,9999,9999,9999,2032720984
83,18,18,Jits_Linear_8,1,9999,9999,9999,2033540192
83,18,18,Jits_Linear_8,2,9999,9999,9999,2034360424
83,18,18,Jits_Linear_8,3,9999,9999,9999,2035180644
83,18,18,Jits_Linear_8,4,9999,9999,9999,2036000860
83,18,18,Jits_Linear_8,5,9999,9999,9999,2036810808
83,18,18,Jits_Linear_8,6,9999,9999,9999,2037620848
83,18,18,Jits_Linear_8,7,9999,9999,9999,2038430808
83,18,18,Jits_Linear_8,8,9999,9999,9999,2039240760
83,18,18,Jits_Linear_8,9,9999,9999,9999,2040050764
83,18,18,Jits_Linear_8,10,9999,9999,9999,2040850540
83,18,18,Jits_Linear_8,11,9999,9999,9999,2041650300
83,18,18,Jits_Linear_8,12,9999,9999,9999,2042451032
83,18,18,Jits_Linear_8,13,9999,9999,9999,2043250744
83,18,18,Jits_Linear_8,14,9999,9999,9999,2044050484
83,18,18,Jits_Linear_8,15,9999,9999,9999,2044841016
83,18,18,Jits_Linear_8,16,9999,9999,9999,2045630568
83,18,18,Jits_Linear_8,17,9999,9999,9999,2046421052
83,18,18,Jits_Linear_8,18,9999,9999,9999,2047210620
83,18,18,Jits_Linear_8,19,9999,9999,9999,2048000056
83,18,18,Jits_Linear_8,20,9999,9999,9999,2048780404
83,18,18,Jits_Linear_8,21,9999,9999,9999,2049560676
83,18,18,Jits_Linear_8,22,9999,9999,9999,2050340952
83,18,18,Jits_Linear_8,23,9999,9999,9999,2051120252
83,18,18,Jits_Linear_8,24,9999,9999,9999,2051900524
83,18,18,Jits_Linear_8,25,9999,9999,9999,2052670532
83,18,18,Jits_Linear_8,26,9999,9999,9999,2053440632
83,18,18,Jits_Linear_8,27,9999,9999,9999,2054210644
83,18,18,Jits_Linear_8,28,9999,9999,9999,2054980724
83,18,18,Jits_Linear_8,29,9999,9999,9999,2055750744
83,18,18,Jits_Linear_8,30,9999,9999,9999,2056510560
83,18,18,Jits_Linear_8,31,9999,9999,9999,2057270380
83,18,18,Jits_Linear_8,32,9999,9999,9999,2058030200
83,18,18,Jits_Linear_8,33,9999,9999,9999,2058791000
83,18,18,Jits_Linear_8,34,9999,9999,9999,2059550836
83,18,18,Jits_Linear_8,35,9999,9999,9999,2060300400
83,18,18,Jits_Linear_8,36,9999,9999,9999,2061050940
83,18,18,Jits_Linear_8,37,9999,9999,9999,2061800572
83,18,18,Jits_Linear_8,38,9999,9999,9999,2062550140
83,18,18,Jits_Linear_8,39,9999,9999,9999,2063300692
83,18,18,Jits_Linear_8,40,9999,9999,9999,2064041036
83,18,18,Jits_Linear_8,41,9999,9999,9999,2064780344
83,18,18,Jits_Linear_8,42,9999,9999,9999,2065520764
83,18,18,Jits_Linear_8,43,9999,9999,9999,2066261108
83,18,18,Jits_Linear_8,44,9999,9999,9999,2067000436
83,18,18,Jits_Linear_8,45,9999,9999,9999,2067730520
83,18,18,Jits_Linear_8,46,9999,9999,9999,2068460600
83,18,18,Jits_Linear_8,47,9999,9999,9999,2069190760
83,18,18,Jits_Linear_8,48,9999,9999,9999,2069920836
83,18,18,Jits_Linear_8,49,9999,9999,9999,2070650988
83,18,18,Jits_Linear_8,50,9999,9999,9999,2071370848
83,18,18,Jits_Linear_8,51,9999,9999,9999,2072090744
83,18,18,Jits_Linear_8,52,9999,9999,9999,2072810576
83,18,18,Jits_Linear_8,53,9999,9999,9999,2073530476
83,18,18,Jits_Linear_8,54,9999,9999,9999,2074250360
83,18,18,Jits_Linear_8,55,9999,9999,9999,2074960952
83,18,18,Jits_Linear_8,56,9999,9999,9999,2075670644
83,18,18,Jits_Linear_8,57,9999,9999,9999,2076380284
83,18,18,Jits_Linear_8,58,9999,9999,9999,2077090888
83,18,18,Jits_Linear_8,59,9999,9999,9999,2077800508
83,18,18,Jits_Linear_8,60,9999,9999,9999,2078500980
83,18,18,Jits_Linear_8,61,9999,9999,9999,2079200364
83,18,18,Jits_Linear_8,62,9999,9999,9999,2079900784
83,18,18,Jits_Linear_8,63,9999,9999,9999,2080600140
83,18,18,Jits_Linear_8,64,9999,9999,9999,2081300604
83,18,18,Jits_Linear_8,65,9999,9999,9999,2081990760
83,18,18,Jits_Linear_8,66,9999,9999,9999,2082680928
83,18,18,Jits_Linear_8,67,9999,9999,9999,2083371128
83,18,18,Jits_Linear_8,68,9999,9999,9999,2084070484
83,18,18,Jits_Linear_8,69,9999,9999,9999,2084760648
83,18,18,Jits_Linear_8,70,9999,9999,9999,2085440588
83,18,18,Jits_Linear_8,71,9999,9999,9999,2086120556
83,18,18,Jits_Linear_8,72,9999,9999,9999,2086800440
83,18,18,Jits_Linear_8,73,9999,9999,9999,2087480384
83,18,18,Jits_Linear_8,74,9999,9999,9999,2088160352
83,18,18,Jits_Linear_8,75,9999,9999,9999,2088831096
83,18,18,Jits_Linear_8,76,9999,9999,9999,2089500780
83,18,18,Jits_Linear_8,77,9999,9999,9999,2090170492
83,18,18,Jits_Linear_8,78,9999,9999,9999,2090840124
83,18,18,Jits_Linear_8,79,9999,9999,9999,2091510852
83,18,18,Jits_Linear_8,80,9999,9999,9999,2092170360
83,18,18,Jits_Linear_8,81,9999,9999,9999,2092830840
83,18,18,Jits_Linear_8,82,9999,9999,9999,2093490264
83,18,18,Jits_Linear_8,83,9999,9999,9999,2094150716
83,18,18,Jits_Linear_8,84,9999,9999,9999,2094810216
83,18,18,Jits_Linear_8,85,9999,9999,9999,2095460452
83,18,18,Jits_Linear_8,86,9999,9999,9999,2096110660
83,18,18,Jits_Linear_8,87,9999,9999,9999,2096760944
83,18,18,Jits_Linear_8,88,9999,9999,9999,2097410160
83,18,18,Jits_Linear_8,89,9999,9999,9999,2098060384
83,18,18,Jits_Linear_8,90,9999,9999,9999,2098700396
83,18,18,Jits_Linear_8,91,9999,9999,9999,2099340412
83,18,18,Jits_Linear_8,92,9999,9999,9999,2099980356
83,18,18,Jits_Linear_8,93,9999,9999,9999,2100620380
83,18,18,Jits_Linear_8,94,9999,9999,9999,2101260380
83,18,18,Jits_Linear_8,95,9999,9999,9999,2101890140
83,18,18,Jits_Linear_8,96,9999,9999,9999,2102520936
83,18,18,Jits_Linear_8,97,9999,9999,9999,2103150696
83,18,18,Jits_Linear_8,98,9999,9999,9999,2103780452
83,18,18,Jits_Linear_8,99,9999,9999,9999,2104410220
83,18,18,Jits_Linear_8,100,9999,9999,9999,2105030744
83,18,18,Jits_Linear_8,101,9999,9999,9999,2105650292
83,18,18,Jits_Linear_8,102,9999,9999,9999,2106270844
83,18,18,Jits_Linear_8,103,9999,9999,9999,2106890316
83,18,18,Jits_Linear_8,104,9999,9999,9999,2107510876
83,18,18,Jits_Linear_8,105,9999,9999,9999,2108120168
83,18,18,Jits_Linear_8,106,9999,9999,9999,2108730492
83,18,18,Jits_Linear_8,107,9999,9999,9999,2109340752
83,18,18,Jits_Linear_8,108,9999,9999,9999,2109951088
83,18,18,Jits_Linear_8,109,9999,9999,9999,2110560320
83,18,18,Jits_Linear_8,110,9999,9999,9999,2111160408
83,18,18,Jits_Linear_8,111,9999,9999,9999,2111760480
83,18,18,Jits_Linear_8,112,9999,9999,9999,2112360508
83,18,18,Jits_Linear_8,113,9999,9999,9999,2112960592
83,18,18,Jits_Linear_8,114,9999,9999,9999,2113560656
83,18,18,Jits_Linear_8,115,9999,9999,9999,2114150488
83,18,18,Jits_Linear_8,116,9999,9999,9999,2114740296
83,18,18,Jits_Linear_8,117,9999,9999,9999,2115330112
83,18,18,Jits_Linear_8,118,9999,9999,9999,2115920968
83,18,18,Jits_Linear_8,119,9999,9999,9999,2116510804
83,18,18,Jits_Linear_8,120,9999,9999,9999,2117090360
83,18,18,Jits_Linear_8,121,9999,9999,9999,2117671020
83,18,18,Jits_Linear_8,122,9999,9999,9999,2118250580
83,18,18,Jits_Linear_8,123,9999,9999,9999,2118830192
83,18,18,Jits_Linear_8,124,9999,9999,9999,2119410788
83,18,18,Jits_Linear_8,125,9999,9999,9999,2119980128
83,18,18,Jits_Linear_8,126,9999,9999,9999,2120550492
83,18,18,Jits_Linear_8,127,9999,9999,9999,2121120896
83,18,18,Jits_Linear_8,128,9999,9999,9999,2121690176
83,18,18,Jits_Linear_8,129,9999,9999,9999,2122260576
83,18,18,Jits_Linear_8,130,9999,9999,9999,2122820736
83,18,18,Jits_Linear_8,131,9999,9999,9999,2123380824
83,18,18,Jits_Linear_8,132,9999,9999,9999,2123940968
83,18,18,Jits_Linear_8,133,9999,9999,9999,2124501116
83,18,18,Jits_Linear_8,134,9999,9999,9999,2125060208
83,18,18,Jits_Linear_8,135,9999,9999,9999,2125611116
83,18,18,Jits_Linear_8,136,9999,9999,9999,2126170236
83,18,18,Jits_Linear_8,137,9999,9999,9999,2126720128
83,18,18,Jits_Linear_8,138,9999,9999,9999,2127270988
83,18,18,Jits_Linear_8,139,9999,9999,9999,2127820872
83,18,18,Jits_Linear_8,140,9999,9999,9999,2128360560
83,18,18,Jits_Linear_8,141,9999,9999,9999,2128900168
83,18,18,Jits_Linear_8,142,9999,9999,9999,2129440836
83,18,18,Jits_Linear_8,143,9999,9999,9999,2129980520
83,18,18,Jits_Linear_8,144,9999,9999,9999,2130520168
83,18,18,Jits_Linear_8,145,9999,9999,9999,2131050568
83,18,18,Jits_Linear_8,146,9999,9999,9999,2131581036
83,18,18,Jits_Linear_8,147,9999,9999,9999,2132110452
83,18,18,Jits_Linear_8,148,9999,9999,9999,2132640840
83,18,18,Jits_Linear_8,149,9999,9999,9999,2133170256
83,18,18,Jits_Linear_8,150,9999,9999,9999,2133690464
83,18,18,Jits_Linear_8,151,9999,9999,9999,2134210680
83,18,18,Jits_Linear_8,152,9999,9999,9999,2134730828
83,18,18,Jits_Linear_8,153,9999,9999,9999,2135251032
83,18,18,Jits_Linear_8,154,9999,9999,9999,2135770200
83,18,18,Jits_Linear_8,155,9999,9999,9999,2136280144
83,18,18,Jits_Linear_8,156,9999,9999,9999,2136790100
83,18,18,Jits_Linear_8,157,9999,9999,9999,2137301088
83,18,18,Jits_Linear_8,158,9999,9999,9999,2137811036
83,18,18,Jits_Linear_8,159,9999,9999,9999,2138320988
83,18,18,Jits_Linear_8,160,9999,9999,9999,2138820692
83,18,18,Jits_Linear_8,161,9999,9999,9999,2139320440
83,18,18,Jits_Linear_8,162,9999,9999,9999,2139820128
83,18,18,Jits_Linear_8,163,9999,9999,9999,2140320848
83,18,18,Jits_Linear_8,164,9999,9999,9999,2140820600
83,18,18,Jits_Linear_8,165,9999,9999,9999,2141311064
83,18,18,Jits_Linear_8,166,9999,9999,9999,2141800548
83,18,18,Jits_Linear_8,167,9999,9999,9999,2142291056
83,18,18,Jits_Linear_8,168,9999,9999,9999,2142780540
83,18,18,Jits_Linear_8,169,9999,9999,9999,2143271012
83,19,19,Jits_Linear_5,0,5,56,103,2151440804
83,19,19,Jits_Linear_5,1,5,63,98,2151443896
83,19,19,Jits_Linear_5,2,5,80,127,2151446872
83,19,19,Jits_Linear_5,0,5,56,103,2151921036
83,19,19,Jits_Linear_5,1,5,63,98,2151924212
83,19,19,Jits_Linear_5,2,5,80,127,2151927256
83,19,19,Jits_Linear_5,0,5,56,103,2152401144
83,19,19,Jits_Linear_5,1,5,80,127,2152410740
83,19,19,Jits_Linear_5,2,5,63,98,2152431048
83,19,19,Jits_Linear_5,0,5,63,98,2152831496
83,19,19,Jits_Linear_5,1,5,80,127,2152861100
83,19,19,Jits_Linear_5,2,5,56,103,2152871668
83,19,19,Jits_Linear_5,0,1,48,71,2153335904
83,19,19,Jits_Linear_5,1,5,80,127,2153370848
83,19,19,Jits_Linear_5,2,5,56,103,2153381196
83,19,19,Jits_Linear_5,3,5,63,98,2153411020
83,19,19,Jits_Linear_5,0,1,48,81,2153840704
83,19,19,Jits_Linear_5,1,5,63,98,2153851360
83,19,19,Jits_Linear_5,2,5,56,103,2153880888
83,19,19,Jits_Linear_5,3,5,80,127,2153891160
83,19,19,Jits_Linear_5,0,5,56,103,2154290720
83,19,19,Jits_Linear_5,1,1,48,76,2154339972
83,19,19,Jits_Linear_5,2,5,63,98,2154341616
83,19,19,Jits_Linear_5,3,5,80,127,2154361476
83,19,19,Jits_Linear_5,0,1,48,76,2154780684
83,19,19,Jits_Linear_5,1,5,80,127,2154782168
83,19,19,Jits_Linear_5,2,5,63,98,2154831180
83,19,19,Jits_Linear_5,3,5,56,103,2154871144
83,19,19,Jits_Linear_5,0,5,56,103,2155270556
83,19,19,Jits_Linear_5,1,1,48,66,2155291136
83,19,19,Jits_Linear_5,2,5,63,98,2155301200
83,19,19,Jits_Linear_5,3,5,80,127,2155370756
83,19,19,Jits_Linear_5,0,1,48,61,2155755984
83,19,19,Jits_Linear_5,1,5,56,103,2155760960
83,19,19,Jits_Linear_5,2,5,80,127,2155821652
83,19,19,Jits_Linear_5,3,5,63,98,2155851016
83,19,19,Jits_Linear_5,0,5,56,103,2156260736
83,19,19,Jits_Linear_5,1,5,63,98,2156270932
83,19,19,Jits_Linear_5,2,1,48,65,2156288296
83,19,19,Jits_Linear_5,3,5,80,127,2156310864
83,19,19,Jits_Linear_5,0,5,63,98,2156751512
83,19,19,Jits_Linear_5,1,1,48,66,2156759884
83,19,19,Jits_Linear_5,2,5,80,127,2156831008
83,19,19,Jits_Linear_5,3,5,56,103,2156841504
83,19,19,Jits_Linear_5,0,5,63,98,2157301032
83,19,19,Jits_Linear_5,1,1,48,56,2157311496
83,19,19,Jits_Linear_5,2,5,56,103,2157341040
83,19,19,Jits_Linear_5,3,5,80,127,2157344028
83,19,19,Jits_Linear_5,0,5,56,103,2157760852
83,19,19,Jits_Linear_5,1,5,63,98,2157770976
83,19,19,Jits_Linear_5,2,1,48,58,2157796188
83,19,19,Jits_Linear_5,3,5,80,127,2157810908
83,19,19,Jits_Linear_5,0,1,48,59,2158235188
83,19,19,Jits_Linear_5,1,5,56,103,2158251780
83,19,19,Jits_Linear_5,2,5,63,98,2158254764
83,19,19,Jits_Linear_5,3,5,80,127,2158270888
83,19,19,Jits_Linear_5,0,1,48,60,2158700856
83,19,19,Jits_Linear_5,1,5,80,127,2158770412
83,19,19,Jits_Linear_5,2,5,56,103,2158780832
83,19,19,Jits_Linear_5,3,5,63,98,2158850576
83,19,19,Jits_Linear_5,0,1,48,64,2159251496
83,19,19,Jits_Linear_5,1,5,63,98,2159271444
83,19,19,Jits_Linear_5,2,5,56,103,2159290712
83,19,19,Jits_Linear_5,3,5,80,127,2159370640
83,19,19,Jits_Linear_5,0,1,48,64,2159752528
83,19,19,Jits_Linear_5,1,5,56,103,2159790616
83,19,19,Jits_Linear_5,2,5,80,127,2159831528
83,19,19,Jits_Linear_5,3,5,63,98,2159840676
83,19,19,Jits_Linear_5,0,5,80,127,2160291132
83,19,19,Jits_Linear_5,1,1,48,59,2160295148
83,19,19,Jits_Linear_5,2,5,63,98,2160320804
83,19,19,Jits_Linear_5,3,5,56,103,2160360744
83,19,19,Jits_Linear_5,0,1,48,56,2160817244
83,19,19,Jits_Linear_5,1,5,56,103,2160820572
83,19,19,Jits_Linear_5,2,5,63,98,2160851448
83,19,19,Jits_Linear_5,3,5,80,127,2160900528
83,19,19,Jits_Linear_5,0,5,80,127,2161330608
83,19,19,Jits_Linear_5,1,1,48,59,2161335600
83,19,19,Jits_Linear_5,2,5,56,103,2161370468
83,19,19,Jits_Linear_5,3,5,63,98,2161380664
83,19,19,Jits_Linear_5,0,5,80,127,2161831432
83,19,19,Jits_Linear_5,1,1,48,48,2161862728
83,19,19,Jits_Linear_5,2,5,63,98,2161871364
83,19,19,Jits_Linear_5,3,5,56,103,2161930560
83,19,19,Jits_Linear_5,0,5,56,103,2162350616
83,19,19,Jits_Linear_5,1,5,80,127,2162360812
83,19,19,Jits_Linear_5,2,1,48,62,2162366624
83,19,19,Jits_Linear_5,3,5,63,98,2162440528
83,19,19,Jits_Linear_5,0,5,80,127,2162870620
83,19,19,Jits_Linear_5,1,1,48,48,2162871584
83,19,19,Jits_Linear_5,2,5,63,98,2162930932
83,19,19,Jits_Linear_5,3,5,56,103,2162960608
83,19,19,Jits_Linear_5,0,5,56,103,2163390776
83,19,19,Jits_Linear_5,1,1,48,57,2163418552
83,19,19,Jits_Linear_5,2,5,80,127,2163451460
83,19,19,Jits_Linear_5,3,5,63,98,2163491400
83,19,19,Jits_Linear_5,0,1,48,53,2163914116
83,19,19,Jits_Linear_5,1,5,56,103,2163970492
83,19,19,Jits_Linear_5,2,5,63,98,2163980688
83,19,19,Jits_Linear_5,3,5,80,127,2163984048
83,19,19,Jits_Linear_5,0,1,48,59,2164448804
83,19,19,Jits_Linear_5,1,5,80,127,2164450692
83,19,19,Jits_Linear_5,2,5,63,98,2164540828
83,19,19,Jits_Linear_5,3,5,56,103,2164550936
83,19,19,Jits_Linear_5,0,5,56,103,2164981088
83,19,19,Jits_Linear_5,1,5,63,98,2164984184
83,19,19,Jits_Linear_5,2,5,80,127,2164987532
83,19,19,Jits_Linear_5,3,1,48,57,2164994780
83,19,19,Jits_Linear_5,0,1,48,76,2165489968
83,19,19,Jits_Linear_5,1,5,80,127,2165530976
83,19,19,Jits_Linear_5,2,5,63,98,2165581400
83,19,19,Jits_Linear_5,3,5,56,103,2165611012
83,19,19,Jits_Linear_5,0,5,56,103,2166040932
83,19,19,Jits_Linear_5,1,5,80,127,2166051352
83,19,19,Jits_Linear_5,2,1,48,66,2166085260
83,19,19,Jits_Linear_5,3,5,63,98,2166120828
83,19,19,Jits_Linear_5,0,5,56,103,2166580488
83,19,19,Jits_Linear_5,1,1,48,79,2166596860
83,19,19,Jits_Linear_5,2,5,63,98,2166601164
83,19,19,Jits_Linear_5,3,5,80,127,2166660384
83,19,19,Jits_Linear_5,0,5,80,127,2167110904
83,19,19,Jits_Linear_5,1,1,48,63,2167136740
83,19,19,Jits_Linear_5,2,5,63,98,2167180604
83,19,19,Jits_Linear_5,3,5,56,103,2167201064
83,19,19,Jits_Linear_5,0,1,48,66,2167657336
83,19,19,Jits_Linear_5,1,5,80,127,2167671236
83,19,19,Jits_Linear_5,2,5,56,103,2167681356
83,19,19,Jits_Linear_5,3,5,63,98,2167690584
83,19,19,Jits_Linear_5,0,1,48,55,2168177104
83,19,19,Jits_Linear_5,1,5,80,127,2168200440
83,19,19,Jits_Linear_5,2,5,56,103,2168220900
83,19,19,Jits_Linear_5,3,5,63,98,2168290644
83,19,19,Jits_Linear_5,0,5,56,103,2168750556
83,19,19,Jits_Linear_5,1,1,48,56,2168780608
83,19,19,Jits_Linear_5,2,5,80,127,2168782024
83,19,19,Jits_Linear_5,3,5,63,98,2168800760
83,19,19,Jits_Linear_5,0,1,48,52,2169283192
83,19,19,Jits_Linear_5,1,5,63,98,2169291236
83,19,19,Jits_Linear_5,2,5,56,103,2169350508
83,19,19,Jits_Linear_5,3,5,80,127,2169381216
83,19,19,Jits_Linear_5,0,5,63,98,2169830712
83,19,19,Jits_Linear_5,1,5,80,127,2169833928
83,19,19,Jits_Linear_5,2,1,48,54,2169860808
83,19,19,Jits_Linear_5,3,5,56,103,2169920840
83,19,19,Jits_Linear_5,0,1,48,52,2170368796
83,19,19,Jits_Linear_5,1,5,56,103,2170401408
83,19,19,Jits_Linear_5,2,5,63,98,2170430788
83,19,19,Jits_Linear_5,3,5,80,127,2170470664
83,19,19,Jits_Linear_5,0,1,48,59,2170888632
83,19,19,Jits_Linear_5,1,5,63,98,2170951288
83,19,19,Jits_Linear_5,2,5,56,103,2170991164
83,19,19,Jits_Linear_5,3,5,80,127,2171010504
83,19,19,Jits_Linear_5,0,1,48,52,2171427412
83,19,19,Jits_Linear_5,1,5,63,98,2171511312
83,19,19,Jits_Linear_5,2,5,56,103,2171551240
83,19,19,Jits_Linear_5,3,5,80,127,2171561436
83,19,19,Jits_Linear_5,0,1,48,51,2171992840
83,19,19,Jits_Linear_5,1,5,80,127,2172040672
83,19,19,Jits_Linear_5,2,5,63,98,2172111168
83,19,19,Jits_Linear_5,3,5,56,103,2172130652
83,19,19,Jits_Linear_5,0,5,56,103,2172590420
83,19,19,Jits_Linear_5,1,5,80,127,2172610804
83,19,19,Jits_Linear_5,2,1,48,59,2172617064
83,19,19,Jits_Linear_5,3,5,63,98,2172650884
83,19,19,Jits_Linear_5,0,1,48,59,2173146864
83,19,19,Jits_Linear_5,1,5,63,98,2173160760
83,19,19,Jits_Linear_5,2,5,80,127,2173181372
83,19,19,Jits_Linear_5,3,5,56,103,2173221384
83,19,19,Jits_Linear_5,0,1,48,50,2173718172
83,19,19,Jits_Linear_5,1,5,63,98,2173721280
83,19,19,Jits_Linear_5,2,5,56,103,2173741368
83,19,19,Jits_Linear_5,3,5,80,127,2173750520
83,19,19,Jits_Linear_5,0,1,48,47,2174257272
83,19,19,Jits_Linear_5,1,5,80,127,2174281280
83,19,19,Jits_Linear_5,2,5,56,103,2174300644
83,19,19,Jits_Linear_5,3,5,63,98,2174331364
83,19,19,Jits_Linear_5,0,1,48,58,2174795092
83,19,19,Jits_Linear_5,1,5,56,103,2174921156
83,19,19,Jits_Linear_5,2,5,80,127,2174924300
83,19,19,Jits_Linear_5,3,5,63,98,2174940572
83,19,19,Jits_Linear_5,0,1,48,66,2175343732
83,19,19,Jits_Linear_5,1,5,63,98,2175410520
83,19,19,Jits_Linear_5,2,5,56,103,2175441304
83,19,19,Jits_Linear_5,3,5,80,127,2175500648
83,19,19,Jits_Linear_5,0,1,48,60,2175960384
83,19,19,Jits_Linear_5,1,5,63,98,2176060640
83,19,19,Jits_Linear_5,2,5,56,103,2176071208
83,19,19,Jits_Linear_5,3,5,80,127,2176081356
83,19,19,Jits_Linear_5,0,5,56,103,2176581104
83,19,19,Jits_Linear_5,1,5,80,127,2176610584
83,19,19,Jits_Linear_5,2,5,63,98,2176621004
83,19,19,Jits_Linear_5,3,1,48,56,2176628312
83,19,19,Jits_Linear_5,0,5,63,98,2177191348
83,19,19,Jits_Linear_5,1,5,56,103,2177200572
83,19,19,Jits_Linear_5,2,1,48,61,2177203764
83,19,19,Jits_Linear_5,3,5,80,127,2177221172
83,19,19,Jits_Linear_5,0,5,56,103,2177691108
83,19,19,Jits_Linear_5,1,5,63,98,2177751352
83,19,19,Jits_Linear_5,2,5,80,127,2177754716
83,19,19,Jits_Linear_5,3,1,48,55,2177823096
83,19,19,Jits_Linear_5,0,5,80,127,2178291640
83,19,19,Jits_Linear_5,1,5,56,103,2178301168
83,19,19,Jits_Linear_5,2,1,48,56,2178319200
83,19,19,Jits_Linear_5,3,5,63,98,2178371068
83,19,19,Jits_Linear_5,0,5,80,127,2178861544
83,19,19,Jits_Linear_5,1,1,48,60,2178903872
83,19,19,Jits_Linear_5,2,5,56,103,2178931176
83,19,19,Jits_Linear_5,3,5,63,98,2178941520
83,19,19,Jits_Linear_5,0,1,48,58,2179460520
83,19,19,Jits_Linear_5,1,5,63,98,2179481144
83,19,19,Jits_Linear_5,2,5,56,103,2179491268
83,19,19,Jits_Linear_5,3,5,80,127,2179510680
83,19,19,Jits_Linear_5,0,5,80,127,2180011404
83,19,19,Jits_Linear_5,1,1,48,71,2180020972
83,19,19,Jits_Linear_5,2,5,63,98,2180070896
83,19,19,Jits_Linear_5,3,5,56,103,2180110908
83,19,19,Jits_Linear_5,0,1,48,55,2180590048
83,19,19,Jits_Linear_5,1,5,56,103,2180641244
83,19,19,Jits_Linear_5,2,5,63,98,2180651364
83,19,19,Jits_Linear_5,3,5,80,127,2180691316
83,19,19,Jits_Linear_5,0,1,48,78,2181172216
83,19,19,Jits_Linear_5,1,5,56,103,2181191048
83,19,19,Jits_Linear_5,2,5,80,127,2181220676
83,19,19,Jits_Linear_5,3,5,63,98,2181270936
83,19,19,Jits_Linear_5,0,5,56,103,2181820756
83,19,19,Jits_Linear_5,1,1,48,56,2181838772
83,19,19,Jits_Linear_5,2,5,63,98,2181860688
83,19,19,Jits_Linear_5,3,5,80,127,2181864272
83,19,19,Jits_Linear_5,0,5,56,103,2182410504
83,19,19,Jits_Linear_5,1,5,63,98,2182420852
83,19,19,Jits_Linear_5,2,1,48,86,2182441756
83,19,19,Jits_Linear_5,3,5,80,127,2182443100
83,19,19,Jits_Linear_5,0,5,56,103,2182960472
83,19,19,Jits_Linear_5,1,5,80,127,2182963464
83,19,19,Jits_Linear_5,2,1,48,54,2182999532
83,19,19,Jits_Linear_5,3,5,63,98,2183000948
83,19,19,Jits_Linear_5,0,1,48,69,2183523388
83,19,19,Jits_Linear_5,1,5,63,98,2183591296
83,19,19,Jits_Linear_5,2,5,56,103,2183621108
83,19,19,Jits_Linear_5,3,5,80,127,2183640372
83,19,19,Jits_Linear_5,0,1,48,69,2184121452
83,19,19,Jits_Linear_5,1,5,80,127,2184160660
83,19,19,Jits_Linear_5,2,5,56,103,2184171080
83,19,19,Jits_Linear_5,3,5,63,98,2184180980
83,19,19,Jits_Linear_5,0,1,48,66,2184741604
83,19,19,Jits_Linear_5,1,5,56,103,2184760664
83,19,19,Jits_Linear_5,2,5,80,127,2184800552
83,19,19,Jits_Linear_5,3,5,63,98,2184831276
83,19,19,Jits_Linear_5,0,1,48,65,2185362984
83,19,19,Jits_Linear_5,1,5,63,98,2185371104
83,19,19,Jits_Linear_5,2,5,80,127,2185381228
83,19,19,Jits_Linear_5,3,5,56,103,2185390376
83,19,19,Jits_Linear_5,0,5,56,103,2185950512
83,19,19,Jits_Linear_5,1,1,48,62,2186012368
83,19,19,Jits_Linear_5,2,5,63,98,2186021164
83,19,19,Jits_Linear_5,3,5,80,127,2186030388
83,19,19,Jits_Linear_5,0,5,80,127,2186561024
83,19,19,Jits_Linear_5,1,1,48,61,2186569024
83,19,19,Jits_Linear_5,2,5,56,103,2186571064
83,19,19,Jits_Linear_5,3,5,63,98,2186621368
83,19,19,Jits_Linear_5,0,1,48,64,2187170852
83,19,19,Jits_Linear_5,1,5,80,127,2187181364
83,19,19,Jits_Linear_5,2,5,56,103,2187241008
83,19,19,Jits_Linear_5,3,5,63,98,2187270444
83,19,19,Jits_Linear_5,0,5,56,103,2187790668
83,19,19,Jits_Linear_5,1,5,80,127,2187793884
83,19,19,Jits_Linear_5,2,1,48,67,2187805320
83,19,19,Jits_Linear_5,3,5,63,98,2187830600
83,19,19,Jits_Linear_5,0,1,48,60,2188405720
83,19,19,Jits_Linear_5,1,5,56,103,2188430856
83,19,19,Jits_Linear_5,2,5,63,98,2188461356
83,19,19,Jits_Linear_5,3,5,80,127,2188470580
83,19,19,Jits_Linear_5,0,1,48,60,2189023120
83,19,19,Jits_Linear_5,1,5,63,98,2189051248
83,19,19,Jits_Linear_5,2,5,80,127,2189060324
83,19,19,Jits_Linear_5,3,5,56,103,2189070816
83,19,19,Jits_Linear_5,0,5,80,127,2189611328
83,19,19,Jits_Linear_5,1,5,56,103,2189660508
83,19,19,Jits_Linear_5,2,1,48,59,2189663720
83,19,19,Jits_Linear_5,3,5,63,98,2189664984
83,19,19,Jits_Linear_5,0,1,48,64,2190244888
83,19,19,Jits_Linear_5,1,5,56,103,2190260728
83,19,19,Jits_Linear_5,2,5,80,127,2190280964
83,19,19,Jits_Linear_5,3,5,63,98,2190291308
83,19,19,Jits_Linear_5,0,5,63,98,2190860588
83,19,19,Jits_Linear_5,1,1,48,53,2190884828
83,19,19,Jits_Linear_5,2,5,56,103,2190891380
83,19,19,Jits_Linear_5,3,5,80,127,2190910868
83,19,19,Jits_Linear_5,0,1,48,54,2191448304
83,19,19,Jits_Linear_5,1,5,56,103,2191490356
83,19,19,Jits_Linear_5,2,5,80,127,2191501000
83,19,19,Jits_Linear_5,3,5,63,98,2191571344
83,19,19,Jits_Linear_5,0,5,63,98,2192100856
83,19,19,Jits_Linear_5,1,1,48,63,2192128856
83,19,19,Jits_Linear_5,2,5,80,127,2192140644
83,19,19,Jits_Linear_5,3,5,56,103,2192180508
83,19,19,Jits_Linear_5,0,1,48,72,2192736060
83,19,19,Jits_Linear_5,1,5,56,103,2192740964
83,19,19,Jits_Linear_5,2,5,63,98,2192751088
83,19,19,Jits_Linear_5,3,5,80,127,2192770276
83,19,19,Jits_Linear_5,0,1,48,70,2193314484
83,19,19,Jits_Linear_5,1,5,63,98,2193410556
83,19,19,Jits_Linear_5,2,5,80,127,2193431092
83,19,19,Jits_Linear_5,3,5,56,103,2193451256
83,19,19,Jits_Linear_5,0,1,48,78,2193944540
83,19,19,Jits_Linear_5,1,5,56,103,2193980836
83,19,19,Jits_Linear_5,2,5,80,127,2194060944
83,19,19,Jits_Linear_5,3,5,63,98,2194070992
83,19,19,Jits_Linear_5,0,1,48,73,2194648436
83,19,19,Jits_Linear_5,1,5,80,127,2194650400
83,19,19,Jits_Linear_5,2,5,63,98,2194660896
83,19,19,Jits_Linear_5,3,5,56,103,2194690272
83,19,19,Jits_Linear_5,0,5,63,98,2195241344
83,19,19,Jits_Linear_5,1,5,80,127,2195281160
83,19,19,Jits_Linear_5,2,1,48,68,2195292820
83,19,19,Jits_Linear_5,3,5,56,103,2195340796
83,19,19,Jits_Linear_5,0,5,63,98,2195881312
83,19,19,Jits_Linear_5,1,1,48,74,2195892896
83,19,19,Jits_Linear_5,2,5,56,103,2195930760
83,19,19,Jits_Linear_5,3,5,80,127,2195961184
83,19,19,Jits_Linear_5,0,1,48,71,2196436840
83,19,19,Jits_Linear_5,1,5,80,127,2196530684
83,19,19,Jits_Linear_5,2,5,63,98,2196540940
83,19,19,Jits_Linear_5,3,5,56,103,2196610348
83,19,19,Jits_Linear_5,0,1,48,56,2197132636
83,19,19,Jits_Linear_5,1,5,80,127,2197241140
83,19,19,Jits_Linear_5,2,5,56,103,2197250284
83,19,19,Jits_Linear_5,3,5,63,98,2197253428
83,19,19,Jits_Linear_5,0,5,56,103,2197821080
83,19,19,Jits_Linear_5,1,1,48,55,2197836556
83,19,19,Jits_Linear_5,2,5,80,127,2197841336
83,19,19,Jits_Linear_5,3,5,63,98,2197850336
83,19,19,Jits_Linear_5,0,1,48,54,2198463196
83,19,19,Jits_Linear_5,1,5,63,98,2198471020
83,19,19,Jits_Linear_5,2,5,56,103,2198511036
83,19,19,Jits_Linear_5,3,5,80,127,2198530524
83,19,19,Jits_Linear_5,0,1,48,64,2199100752
83,19,19,Jits_Linear_5,1,5,63,98,2199121332
83,19,19,Jits_Linear_5,2,5,56,103,2199180900
83,19,19,Jits_Linear_5,3,5,80,127,2199183964
83,19,19,Jits_Linear_5,0,5,56,103,2199730632
83,19,19,Jits_Linear_5,1,5,80,127,2199750944
83,19,19,Jits_Linear_5,2,5,63,98,2199790956
83,19,19,Jits_Linear_5,3,1,48,67,2199791996
83,19,19,Jits_Linear_5,0,1,48,41,2200395048
83,19,19,Jits_Linear_5,1,5,56,103,2200410464
83,19,19,Jits_Linear_5,2,5,63,98,2200430996
83,19,19,Jits_Linear_5,3,5,80,127,2200441192
83,19,19,Jits_Linear_5,0,5,80,127,2201031076
83,19,19,Jits_Linear_5,1,1,48,54,2201044308
83,19,19,Jits_Linear_5,2,5,56,103,2201060892
83,19,19,Jits_Linear_5,3,5,63,98,2201100684
83,19,19,Jits_Linear_5,0,1,48,75,2201654952
83,19,19,Jits_Linear_5,1,5,80,127,2201690896
83,19,19,Jits_Linear_5,2,5,56,103,2201710912
83,19,19,Jits_Linear_5,3,5,63,98,2201771288
83,19,19,Jits_Linear_5,0,5,56,103,2202351000
83,19,19,Jits_Linear_5,1,1,48,70,2202368444
83,19,19,Jits_Linear_5,2,5,80,127,2202370332
83,19,19,Jits_Linear_5,3,5,63,98,2202430796
83,19,19,Jits_Linear_5,0,5,80,127,2202990828
83,19,19,Jits_Linear_5,1,5,56,103,2203001324
83,19,19,Jits_Linear_5,2,5,63,98,2203041040
83,19,19,Jits_Linear_5,3,1,48,61,2203044680
83,19,19,Jits_Linear_5,0,5,63,98,2203650336
83,19,19,Jits_Linear_5,1,1,48,73,2203670840
83,19,19,Jits_Linear_5,2,5,56,103,2203691460
83,19,19,Jits_Linear_5,3,5,80,127,2203694600
83,19,19,Jits_Linear_5,0,1,48,56,2204311752
83,19,19,Jits_Linear_5,1,5,63,98,2204331404
83,19,19,Jits_Linear_5,2,5,80,127,2204371272
83,19,19,Jits_Linear_5,3,5,56,103,2204401096
83,19,19,Jits_Linear_5,0,5,56,103,2204980716
83,19,19,Jits_Linear_5,1,5,63,98,2204990988
83,19,19,Jits_Linear_5,2,1,48,61,2205005196
83,19,19,Jits_Linear_5,3,5,80,127,2205020684
83,19,19,Jits_Linear_5,0,1,48,58,2205626572
83,19,19,Jits_Linear_5,1,5,80,127,2205641068
83,19,19,Jits_Linear_5,2,5,63,98,2205710824
83,19,19,Jits_Linear_5,3,5,56,103,2205721008
83,19,19,Jits_Linear_5,0,5,63,98,2206310708
83,19,19,Jits_Linear_5,1,1,48,62,2206345516
83,19,19,Jits_Linear_5,2,5,56,103,2206381508
83,19,19,Jits_Linear_5,3,5,80,127,2206390804
83,19,19,Jits_Linear_5,0,1,48,62,2206968880
83,19,19,Jits_Linear_5,1,5,63,98,2206980680
83,19,19,Jits_Linear_5,2,5,56,103,2207000916
83,19,19,Jits_Linear_5,3,5,80,127,2207040784
83,19,19,Jits_Linear_5,0,1,48,54,2207635968
83,19,19,Jits_Linear_5,1,5,56,103,2207661620
83,19,19,Jits_Linear_5,2,5,63,98,2207670848
83,19,19,Jits_Linear_5,3,5,80,127,2207750700
83,19,19,Jits_Linear_5,0,5,63,98,2208320828
83,19,19,Jits_Linear_5,1,1,48,65,2208343228
83,19,19,Jits_Linear_5,2,5,56,103,2208350744
83,19,19,Jits_Linear_5,3,5,80,127,2208390760
83,19,19,Jits_Linear_5,0,5,56,103,2208990680
83,19,19,Jits_Linear_5,1,1,48,61,2209013428
83,19,19,Jits_Linear_5,2,5,63,98,2209030540
83,19,19,Jits_Linear_5,3,5,80,127,2209070628
83,19,19,Jits_Linear_5,0,1,48,72,2209621556
83,19,19,Jits_Linear_5,1,5,80,127,2209670584
83,19,19,Jits_Linear_5,2,5,56,103,2209751416
83,19,19,Jits_Linear_5,3,5,63,98,2209760716
83,19,19,Jits_Linear_5,0,1,48,65,2210381304
83,19,19,Jits_Linear_5,1,5,56,103,2210391588
83,19,19,Jits_Linear_5,2,5,63,98,2210394580
83,19,19,Jits_Linear_5,3,5,80,127,2210400740
83,19,19,Jits_Linear_5,0,1,48,84,2211035908
83,19,19,Jits_Linear_5,1,5,56,103,2211090936
83,19,19,Jits_Linear_5,2,5,63,98,2211111544
83,19,19,Jits_Linear_5,3,5,80,127,2211120472
83,19,19,Jits_Linear_5,0,5,63,98,2211730760
83,19,19,Jits_Linear_5,1,5,80,127,2211741108
83,19,19,Jits_Linear_5,2,1,48,78,2211761116
83,19,19,Jits_Linear_5,3,5,56,103,2211762156
83,19,19,Jits_Linear_5,0,1,48,72,2212412920
83,19,19,Jits_Linear_5,1,5,63,98,2212420964
83,19,19,Jits_Linear_5,2,5,56,103,2212500936
83,19,19,Jits_Linear_5,3,5,80,127,2212503852
83,19,19,Jits_Linear_5,0,5,63,98,2213111128
83,19,19,Jits_Linear_5,1,5,56,103,2213130468
83,19,19,Jits_Linear_5,2,1,48,73,2213135080
83,19,19,Jits_Linear_5,3,5,80,127,2213161404
83,19,19,Jits_Linear_5,0,1,48,62,2213768372
83,19,19,Jits_Linear_5,1,5,56,103,2213801508
83,19,19,Jits_Linear_5,2,5,63,98,2213820696
83,19,19,Jits_Linear_5,3,5,80,127,2213830968
83,19,19,Jits_Linear_5,0,1,48,74,2214478664
83,19,19,Jits_Linear_5,1,5,56,103,2214521336
83,19,19,Jits_Linear_5,2,5,63,98,2214551012
83,19,19,Jits_Linear_5,3,5,80,127,2214554452
83,19,19,Jits_Linear_5,0,5,56,103,2215161420
83,19,19,Jits_Linear_5,1,5,63,98,2215201288
83,19,19,Jits_Linear_5,2,1,48,63,2215241872
83,19,19,Jits_Linear_5,3,5,80,127,2215260576
83,19,19,Jits_Linear_5,0,5,56,103,2215870780
83,19,19,Jits_Linear_5,1,5,63,98,2215881052
83,19,19,Jits_Linear_5,2,1,48,70,2215927844
83,19,19,Jits_Linear_5,3,5,80,127,2215940540
83,19,19,Jits_Linear_5,0,1,48,75,2216535516
83,19,19,Jits_Linear_5,1,5,56,103,2216571360
83,19,19,Jits_Linear_5,2,5,80,127,2216590924
83,19,19,Jits_Linear_5,3,5,63,98,2216621572
83,19,19,Jits_Linear_5,0,5,80,127,2217270648
83,19,19,Jits_Linear_5,1,5,56,103,2217280992
83,19,19,Jits_Linear_5,2,1,48,66,2217289288
83,19,19,Jits_Linear_5,3,5,63,98,2217301544
83,19,19,Jits_Linear_5,0,1,48,61,2217947736
83,19,19,Jits_Linear_5,1,5,63,98,2217960812
83,19,19,Jits_Linear_5,2,5,80,127,2218040684
83,19,19,Jits_Linear_5,3,5,56,103,2218050868
83,19,19,Jits_Linear_5,0,1,48,60,2218690288
83,19,19,Jits_Linear_5,1,5,80,127,2218720580
83,19,19,Jits_Linear_5,2,5,56,103,2218741112
83,19,19,Jits_Linear_5,3,5,63,98,2218744328
83,19,19,Jits_Linear_5,0,5,63,98,2219400624
83,19,19,Jits_Linear_5,1,5,80,127,2219403912
83,19,19,Jits_Linear_5,2,1,48,56,2219428236
83,19,19,Jits_Linear_5,3,5,56,103,2219460936
83,19,19,Jits_Linear_5,0,5,56,103,2220090680
83,19,19,Jits_Linear_5,1,5,80,127,2220101100
83,19,19,Jits_Linear_5,2,1,48,68,2220106388
83,19,19,Jits_Linear_5,3,5,63,98,2220140912
83,19,19,Jits_Linear_5,0,5,56,103,2220780856
83,19,19,Jits_Linear_5,1,1,48,59,2220801880
83,19,19,Jits_Linear_5,2,5,63,98,2220841316
83,19,19,Jits_Linear_5,3,5,80,127,2220850692
83,19,19,Jits_Linear_5,0,1,48,59,2221467536
83,19,19,Jits_Linear_5,1,5,63,98,2221500768
83,19,19,Jits_Linear_5,2,5,80,127,2221540636
83,19,19,Jits_Linear_5,3,5,56,103,2221580560
83,19,19,Jits_Linear_5,0,5,56,103,2222210344
83,19,19,Jits_Linear_5,1,1,48,62,2222217872
83,19,19,Jits_Linear_5,2,5,63,98,2222291408
83,19,19,Jits_Linear_5,3,5,80,127,2222294620
83,19,19,Jits_Linear_5,0,1,48,58,2222976448
83,19,19,Jits_Linear_5,1,5,80,127,2222980600
83,19,19,Jits_Linear_5,2,5,56,103,2223011396
83,19,19,Jits_Linear_5,3,5,63,98,2223014684
83,19,19,Jits_Linear_5,0,5,56,103,2223661520
83,19,19,Jits_Linear_5,1,5,80,127,2223680784
83,19,19,Jits_Linear_5,2,5,63,98,2223720748
83,19,19,Jits_Linear_5,3,1,48,38,2223749572
83,19,19,Jits_Linear_5,0,5,80,127,2224360916
83,19,19,Jits_Linear_5,1,5,63,98,2224381448
83,19,19,Jits_Linear_5,2,1,48,73,2224386660
83,19,19,Jits_Linear_5,3,5,56,103,2224440788
83,19,19,Jits_Linear_5,0,5,63,98,2225090800
83,19,19,Jits_Linear_5,1,5,56,103,2225101220
83,19,19,Jits_Linear_5,2,1,48,58,2225141424
83,19,19,Jits_Linear_5,3,5,80,127,2225151412
83,19,19,Jits_Linear_5,0,1,48,72,2225758276
83,19,19,Jits_Linear_5,1,5,56,103,2225800648
83,19,19,Jits_Linear_5,2,5,63,98,2225821332
83,19,19,Jits_Linear_5,3,5,80,127,2225831380
83,19,19,Jits_Linear_5,0,1,48,60,2226436276
83,19,19,Jits_Linear_5,1,5,56,103,2226520400
83,19,19,Jits_Linear_5,2,5,63,98,2226523616
83,19,19,Jits_Linear_5,3,5,80,127,2226540920
83,19,19,Jits_Linear_5,0,1,48,54,2227149884
83,19,19,Jits_Linear_5,1,5,63,98,2227290476
83,19,19,Jits_Linear_5,2,5,56,103,2227321420
83,19,19,Jits_Linear_5,3,5,80,127,2227350876
83,19,19,Jits_Linear_5,0,5,80,127,2227980708
83,19,19,Jits_Linear_5,1,1,48,57,2227988012
83,19,19,Jits_Linear_5,2,5,56,103,2228070864
83,19,19,Jits_Linear_5,3,5,63,98,2228073856
83,19,19,Jits_Linear_5,0,5,56,103,2228710736
83,19,19,Jits_Linear_5,1,5,80,127,2228713800
83,19,19,Jits_Linear_5,2,5,63,98,2228790604
83,19,19,Jits_Linear_5,3,1,48,56,2228795140
83,19,19,Jits_Linear_5,0,1,48,56,2229440000
83,19,19,Jits_Linear_5,1,5,80,127,2229441492
83,19,19,Jits_Linear_5,2,5,63,98,2229501292
83,19,19,Jits_Linear_5,3,5,56,103,2229531116
83,19,19,Jits_Linear_5,0,5,63,98,2230171072
83,19,19,Jits_Linear_5,1,5,80,127,2230181120
83,19,19,Jits_Linear_5,2,1,48,59,2230203264
83,19,19,Jits_Linear_5,3,5,56,103,2230250868
83,19,19,Jits_Linear_5,0,1,48,56,2230904052
83,19,19,Jits_Linear_5,1,5,56,103,2230920488
83,19,19,Jits_Linear_5,2,5,80,127,2230951360
83,19,19,Jits_Linear_5,3,5,63,98,2231000368
83,19,19,Jits_Linear_5,0,1,48,58,2231631820
83,19,19,Jits_Linear_5,1,5,63,98,2231700932
83,19,19,Jits_Linear_5,2,5,56,103,2231730516
83,19,19,Jits_Linear_5,3,5,80,127,2231733584
83,19,19,Jits_Linear_5,0,1,48,43,2232365104
83,19,19,Jits_Linear_5,1,5,63,98,2232441132
83,19,19,Jits_Linear_5,2,5,80,127,2232460608
83,19,19,Jits_Linear_5,3,5,56,103,2232470876
83,19,19,Jits_Linear_5,0,1,48,59,2233067772
83,19,19,Jits_Linear_5,1,5,56,103,2233190768
83,19,19,Jits_Linear_5,2,5,63,98,2233193756
83,19,19,Jits_Linear_5,3,5,80,127,2233211300
83,19,19,Jits_Linear_5,0,1,48,52,2233853308
83,19,19,Jits_Linear_5,1,5,56,103,2233891320
83,19,19,Jits_Linear_5,2,5,63,98,2233901444
83,19,19,Jits_Linear_5,3,5,80,127,2233931120
83,19,19,Jits_Linear_5,0,1,48,51,2234584744
83,19,19,Jits_Linear_5,1,5,63,98,2234661348
83,19,19,Jits_Linear_5,2,5,80,127,2234681568
83,19,19,Jits_Linear_5,3,5,56,103,2234720560
83,19,19,Jits_Linear_5,0,1,48,45,2235376420
83,19,19,Jits_Linear_5,1,5,56,103,2235440444
83,19,19,Jits_Linear_5,2,5,63,98,2235480392
83,19,19,Jits_Linear_5,3,5,80,127,2235483832
83,19,19,Jits_Linear_5,0,5,80,127,2236130680
83,19,19,Jits_Linear_5,1,1,48,67,2236156944
83,19,19,Jits_Linear_5,2,5,56,103,2236170540
83,19,19,Jits_Linear_5,3,5,63,98,2236220668
83,19,19,Jits_Linear_5,0,1,48,48,2236919348
83,19,19,Jits_Linear_5,1,5,56,103,2236940652
83,19,19,Jits_Linear_5,2,5,80,127,2236951292
83,19,19,Jits_Linear_5,3,5,63,98,2236980672
83,19,19,Jits_Linear_5,0,5,56,103,2237641380
83,19,19,Jits_Linear_5,1,1,48,54,2237679508
83,19,19,Jits_Linear_5,2,5,80,127,2237681092
83,19,19,Jits_Linear_5,3,5,63,98,2237731072
83,19,19,Jits_Linear_5,0,1,48,57,2238345148
83,19,19,Jits_Linear_5,1,5,56,103,2238401076
83,19,19,Jits_Linear_5,2,5,80,127,2238440928
83,19,19,Jits_Linear_5,3,5,63,98,2238491056
83,19,19,Jits_Linear_5,0,1,48,49,2239120808
83,19,19,Jits_Linear_5,1,5,80,127,2239150428
83,19,19,Jits_Linear_5,2,5,63,98,2239231408
83,19,19,Jits_Linear_5,3,5,56,103,2239240560
83,19,19,Jits_Linear_5,0,1,48,43,2239935180
83,19,19,Jits_Linear_5,1,5,80,127,2239960392
83,19,19,Jits_Linear_5,2,5,56,103,2239970664
83,19,19,Jits_Linear_5,3,5,63,98,2239991124
83,19,19,Jits_Linear_5,0,1,48,48,2240687756
83,19,19,Jits_Linear_5,1,5,63,98,2240690416
83,19,19,Jits_Linear_5,2,5,56,103,2240761220
83,19,19,Jits_Linear_5,3,5,80,127,2240764212
83,19,19,Jits_Linear_5,0,1,48,40,2241431040
83,19,19,Jits_Linear_5,1,5,80,127,2241451440
83,19,19,Jits_Linear_5,2,5,63,98,2241500524
83,19,19,Jits_Linear_5,3,5,56,103,2241540524
83,19,19,Jits_Linear_5,0,1,48,48,2242195140
83,19,19,Jits_Linear_5,1,5,63,98,2242261256
83,19,19,Jits_Linear_5,2,5,56,103,2242301256
83,19,19,Jits_Linear_5,3,5,80,127,2242310480
83,19,19,Jits_Linear_5,0,1,48,43,2242954832
83,19,19,Jits_Linear_5,1,5,63,98,2243021248
83,19,19,Jits_Linear_5,2,5,56,103,2243040588
83,19,19,Jits_Linear_5,3,5,80,127,2243061032
83,19,19,Jits_Linear_5,0,1,48,58,2243701268
83,19,19,Jits_Linear_5,1,5,80,127,2243751268
83,19,19,Jits_Linear_5,2,5,56,103,2243760492
83,19,19,Jits_Linear_5,3,5,63,98,2243781248
83,19,19,Jits_Linear_5,0,1,48,59,2244427124
83,19,19,Jits_Linear_5,1,5,63,98,2244551020
83,19,19,Jits_Linear_5,2,5,56,103,2244591112
83,19,19,Jits_Linear_5,3,5,80,127,2244620636
83,19,19,Jits_Linear_5,0,1,48,47,2245278692
83,19,19,Jits_Linear_5,1,5,56,103,2245331256
83,19,19,Jits_Linear_5,2,5,63,98,2245361008
83,19,19,Jits_Linear_5,3,5,80,127,2245390816
83,19,19,Jits_Linear_5,0,1,48,46,2246047672
83,19,19,Jits_Linear_5,1,5,80,127,2246080976
83,19,19,Jits_Linear_5,2,5,56,103,2246150572
83,19,19,Jits_Linear_5,3,5,63,98,2246153564
83,19,19,Jits_Linear_5,0,5,56,103,2246871380
83,19,19,Jits_Linear_5,1,5,63,98,2246920540
83,19,19,Jits_Linear_5,2,5,80,127,2246951188
83,19,19,Jits_Linear_5,3,1,48,42,2246954752
83,19,19,Jits_Linear_5,0,5,63,98,2247631156
83,19,19,Jits_Linear_5,1,5,80,127,2247634520
83,19,19,Jits_Linear_5,2,1,48,45,2247677048
83,19,19,Jits_Linear_5,3,5,56,103,2247690716
83,19,19,Jits_Linear_5,0,1,48,54,2248385172
83,19,19,Jits_Linear_5,1,5,56,103,2248441100
83,19,19,Jits_Linear_5,2,5,80,127,2248450324
83,19,19,Jits_Linear_5,3,5,63,98,2248500736
83,19,19,Jits_Linear_5,0,1,48,61,2249188928
83,19,19,Jits_Linear_5,1,5,63,98,2249200940
83,19,19,Jits_Linear_5,2,5,56,103,2249211136
83,19,19,Jits_Linear_5,3,5,80,127,2249241032
83,19,19,Jits_Linear_5,0,1,48,52,2249947092
83,19,19,Jits_Linear_5,1,5,63,98,2250021232
83,19,19,Jits_Linear_5,2,5,80,127,2250024816
83,19,19,Jits_Linear_5,3,5,56,103,2250051116
83,19,19,Jits_Linear_5,0,1,48,55,2250704304
83,19,19,Jits_Linear_5,1,5,63,98,2250831344
83,19,19,Jits_Linear_5,2,5,56,103,2250850608
83,19,19,Jits_Linear_5,3,5,80,127,2250853820
83,19,19,Jits_Linear_5,0,1,48,52,2251569716
83,19,19,Jits_Linear_5,1,5,63,98,2251580824
83,19,19,Jits_Linear_5,2,5,56,103,2251650388
83,19,19,Jits_Linear_5,3,5,80,127,2251671056
83,19,19,Jits_Linear_5,0,5,56,103,2252361200
83,19,19,Jits_Linear_5,1,5,63,98,2252371420
83,19,19,Jits_Linear_5,2,1,48,47,2252381888
83,19,19,Jits_Linear_5,3,5,80,127,2252461400
83,19,19,Jits_Linear_5,0,1,48,54,2253150044
83,19,19,Jits_Linear_5,1,5,56,103,2253170972
83,19,19,Jits_Linear_5,2,5,80,127,2253210988
83,19,19,Jits_Linear_5,3,5,63,98,2253221408
83,19,19,Jits_Linear_5,0,1,48,67,2253901408
83,19,19,Jits_Linear_5,1,5,56,103,2253991268
83,19,19,Jits_Linear_5,2,5,63,98,2254020932
83,19,19,Jits_Linear_5,3,5,80,127,2254050832
83,19,19,Jits_Linear_5,0,5,80,127,2254751040
83,19,19,Jits_Linear_5,1,1,48,64,2254774608
83,19,19,Jits_Linear_5,2,5,63,98,2254791048
83,19,19,Jits_Linear_5,3,5,56,103,2254810384
83,19,19,Jits_Linear_5,0,5,56,103,2255590828
83,19,19,Jits_Linear_5,1,1,48,59,2255602416
83,19,19,Jits_Linear_5,2,5,80,127,2255611208
83,19,19,Jits_Linear_5,3,5,63,98,2255630920
83,19,19,Jits_Linear_5,0,5,63,98,2256361016
83,19,19,Jits_Linear_5,1,5,56,103,2256371064
83,19,19,Jits_Linear_5,2,1,48,57,2256407140
83,19,19,Jits_Linear_5,3,5,80,127,2256430848
83,19,19,Jits_Linear_5,0,1,48,62,2257170372
83,19,19,Jits_Linear_5,1,5,56,103,2257171940
83,19,19,Jits_Linear_5,2,5,63,98,2257240676
83,19,19,Jits_Linear_5,3,5,80,127,2257261720
83,19,19,Jits_Linear_5,0,5,56,103,2257980936
83,19,19,Jits_Linear_5,1,5,63,98,2258010340
83,19,19,Jits_Linear_5,2,1,48,60,2258021776
83,19,19,Jits_Linear_5,3,5,80,127,2258050496
83,19,19,Jits_Linear_5,0,5,63,98,2258780668
83,19,19,Jits_Linear_5,1,1,48,62,2258785880
83,19,19,Jits_Linear_5,2,5,56,103,2258830792
83,19,19,Jits_Linear_5,3,5,80,127,2258841064
83,19,19,Jits_Linear_5,0,5,56,103,2259630712
83,19,19,Jits_Linear_5,1,1,48,80,2259653236
83,19,19,Jits_Linear_5,2,5,63,98,2259680908
83,19,19,Jits_Linear_5,3,5,80,127,2259691032
83,19,19,Jits_Linear_5,0,5,56,103,2260410864
83,19,19,Jits_Linear_5,1,5,63,98,2260421060
83,19,19,Jits_Linear_5,2,1,48,60,2260477592
83,19,19,Jits_Linear_5,3,5,80,127,2260500928
83,19,19,Jits_Linear_5,0,9999,9999,9999,2151679036
83,19,19,Jits_Linear_5,1,9999,9999,9999,2152158300
83,19,19,Jits_Linear_5,2,9999,9999,9999,2152638556
83,19,19,Jits_Linear_5,3,9999,9999,9999,2153118808
83,19,19,Jits_Linear_5,4,9999,9999,9999,2153599032
83,19,19,Jits_Linear_5,5,9999,9999,9999,2154088540
83,19,19,Jits_Linear_5,6,9999,9999,9999,2154579008
83,19,19,Jits_Linear_5,7,9999,9999,9999,2155068496
83,19,19,Jits_Linear_5,8,9999,9999,9999,2155558968
83,19,19,Jits_Linear_5,9,9999,9999,9999,2156048484
83,19,19,Jits_Linear_5,10,9999,9999,9999,2156548172
83,19,19,Jits_Linear_5,11,9999,9999,9999,2157048920
83,19,19,Jits_Linear_5,12,9999,9999,9999,2157548604
83,19,19,Jits_Linear_5,13,9999,9999,9999,2158048364
83,19,19,Jits_Linear_5,14,9999,9999,9999,2158549100
83,19,19,Jits_Linear_5,15,9999,9999,9999,2159059056
83,19,19,Jits_Linear_5,16,9999,9999,9999,2159569008
83,19,19,Jits_Linear_5,17,9999,9999,9999,2160078956
83,19,19,Jits_Linear_5,18,9999,9999,9999,2160588908
83,19,19,Jits_Linear_5,19,9999,9999,9999,2161098880
83,19,19,Jits_Linear_5,20,9999,9999,9999,2161619020
83,19,19,Jits_Linear_5,21,9999,9999,9999,2162138204
83,19,19,Jits_Linear_5,22,9999,9999,9999,2162658432
83,19,19,Jits_Linear_5,23,9999,9999,9999,2163178588
83,19,19,Jits_Linear_5,24,9999,9999,9999,2163698744
83,19,19,Jits_Linear_5,25,9999,9999,9999,2164228184
83,19,19,Jits_Linear_5,26,9999,9999,9999,2164758592
83,19,19,Jits_Linear_5,27,9999,9999,9999,2165289044
83,19,19,Jits_Linear_5,28,9999,9999,9999,2165818496
83,19,19,Jits_Linear_5,29,9999,9999,9999,2166348896
83,19,19,Jits_Linear_5,30,9999,9999,9999,2166888548
83,19,19,Jits_Linear_5,31,9999,9999,9999,2167428184
83,19,19,Jits_Linear_5,32,9999,9999,9999,2167968864
83,19,19,Jits_Linear_5,33,9999,9999,9999,2168508488
83,19,19,Jits_Linear_5,34,9999,9999,9999,2169048184
83,19,19,Jits_Linear_5,35,9999,9999,9999,2169599060
83,19,19,Jits_Linear_5,36,9999,9999,9999,2170148932
83,19,19,Jits_Linear_5,37,9999,9999,9999,2170698820
83,19,19,Jits_Linear_5,38,9999,9999,9999,2171248724
83,19,19,Jits_Linear_5,39,9999,9999,9999,2171798608
83,19,19,Jits_Linear_5,40,9999,9999,9999,2172358760
83,19,19,Jits_Linear_5,41,9999,9999,9999,2172918904
83,19,19,Jits_Linear_5,42,9999,9999,9999,2173478992
83,19,19,Jits_Linear_5,43,9999,9999,9999,2174038120
83,19,19,Jits_Linear_5,44,9999,9999,9999,2174598268
83,19,19,Jits_Linear_5,45,9999,9999,9999,2175168604
83,19,19,Jits_Linear_5,46,9999,9999,9999,2175738944
83,19,19,Jits_Linear_5,47,9999,9999,9999,2176308316
83,19,19,Jits_Linear_5,48,9999,9999,9999,2176878684
83,19,19,Jits_Linear_5,49,9999,9999,9999,2177449040
83,19,19,Jits_Linear_5,50,9999,9999,9999,2178028660
83,19,19,Jits_Linear_5,51,9999,9999,9999,2178608228
83,19,19,Jits_Linear_5,52,9999,9999,9999,2179188792
83,19,19,Jits_Linear_5,53,9999,9999,9999,2179768440
83,19,19,Jits_Linear_5,54,9999,9999,9999,2180349040
83,19,19,Jits_Linear_5,55,9999,9999,9999,2180938872
83,19,19,Jits_Linear_5,56,9999,9999,9999,2181528636
83,19,19,Jits_Linear_5,57,9999,9999,9999,2182118520
83,19,19,Jits_Linear_5,58,9999,9999,9999,2182708280
83,19,19,Jits_Linear_5,59,9999,9999,9999,2183298120
83,19,19,Jits_Linear_5,60,9999,9999,9999,2183898220
83,19,19,Jits_Linear_5,61,9999,9999,9999,2184498296
83,19,19,Jits_Linear_5,62,9999,9999,9999,2185098324
83,19,19,Jits_Linear_5,63,9999,9999,9999,2185698400
83,19,19,Jits_Linear_5,64,9999,9999,9999,2186298484
83,19,19,Jits_Linear_5,65,9999,9999,9999,2186908792
83,19,19,Jits_Linear_5,66,9999,9999,9999,2187519076
83,19,19,Jits_Linear_5,67,9999,9999,9999,2188128316
83,19,19,Jits_Linear_5,68,9999,9999,9999,2188738676
83,19,19,Jits_Linear_5,69,9999,9999,9999,2189348948
83,19,19,Jits_Linear_5,70,9999,9999,9999,2189968452
83,19,19,Jits_Linear_5,71,9999,9999,9999,2190589000
83,19,19,Jits_Linear_5,72,9999,9999,9999,2191208504
83,19,19,Jits_Linear_5,73,9999,9999,9999,2191829116
83,19,19,Jits_Linear_5,74,9999,9999,9999,2192448604
83,19,19,Jits_Linear_5,75,9999,9999,9999,2193078376
83,19,19,Jits_Linear_5,76,9999,9999,9999,2193708132
83,19,19,Jits_Linear_5,77,9999,9999,9999,2194338880
83,19,19,Jits_Linear_5,78,9999,9999,9999,2194968628
83,19,19,Jits_Linear_5,79,9999,9999,9999,2195598408
83,19,19,Jits_Linear_5,80,9999,9999,9999,2196238420
83,19,19,Jits_Linear_5,81,9999,9999,9999,2196878460
83,19,19,Jits_Linear_5,82,9999,9999,9999,2197518400
83,19,19,Jits_Linear_5,83,9999,9999,9999,2198158436
83,19,19,Jits_Linear_5,84,9999,9999,9999,2198798396
83,19,19,Jits_Linear_5,85,9999,9999,9999,2199448696
83,19,19,Jits_Linear_5,86,9999,9999,9999,2200098900
83,19,19,Jits_Linear_5,87,9999,9999,9999,2200748096
83,19,19,Jits_Linear_5,88,9999,9999,9999,2201398372
83,19,19,Jits_Linear_5,89,9999,9999,9999,2202048616
83,19,19,Jits_Linear_5,90,9999,9999,9999,2202709108
83,19,19,Jits_Linear_5,91,9999,9999,9999,2203368536
83,19,19,Jits_Linear_5,92,9999,9999,9999,2204029028
83,19,19,Jits_Linear_5,93,9999,9999,9999,2204688448
83,19,19,Jits_Linear_5,94,9999,9999,9999,2205348936
83,19,19,Jits_Linear_5,95,9999,9999,9999,2206018636
83,19,19,Jits_Linear_5,96,9999,9999,9999,2206688344
83,19,19,Jits_Linear_5,97,9999,9999,9999,2207359092
83,19,19,Jits_Linear_5,98,9999,9999,9999,2208028780
83,19,19,Jits_Linear_5,99,9999,9999,9999,2208698488
83,19,19,Jits_Linear_5,100,9999,9999,9999,2209378384
83,19,19,Jits_Linear_5,101,9999,9999,9999,2210058344
83,19,19,Jits_Linear_5,102,9999,9999,9999,2210738284
83,19,19,Jits_Linear_5,103,9999,9999,9999,2211418184
83,19,19,Jits_Linear_5,104,9999,9999,9999,2212098132
83,19,19,Jits_Linear_5,105,9999,9999,9999,2212788288
83,19,19,Jits_Linear_5,106,9999,9999,9999,2213478524
83,19,19,Jits_Linear_5,107,9999,9999,9999,2214168660
83,19,19,Jits_Linear_5,108,9999,9999,9999,2214858816
83,19,19,Jits_Linear_5,109,9999,9999,9999,2215549048
83,19,19,Jits_Linear_5,110,9999,9999,9999,2216248416
83,19,19,Jits_Linear_5,111,9999,9999,9999,2216948852
83,19,19,Jits_Linear_5,112,9999,9999,9999,2217648228
83,19,19,Jits_Linear_5,113,9999,9999,9999,2218348668
83,19,19,Jits_Linear_5,114,9999,9999,9999,2219049064
83,19,19,Jits_Linear_5,115,9999,9999,9999,2219758700
83,19,19,Jits_Linear_5,116,9999,9999,9999,2220468340
83,19,19,Jits_Linear_5,117,9999,9999,9999,2221178968
83,19,19,Jits_Linear_5,118,9999,9999,9999,2221888600
83,19,19,Jits_Linear_5,119,9999,9999,9999,2222598236
83,19,19,Jits_Linear_5,120,9999,9999,9999,2223318080
83,19,19,Jits_Linear_5,121,9999,9999,9999,2224039032
83,19,19,Jits_Linear_5,122,9999,9999,9999,2224758876
83,19,19,Jits_Linear_5,123,9999,9999,9999,2225478768
83,19,19,Jits_Linear_5,124,9999,9999,9999,2226198588
83,19,19,Jits_Linear_5,125,9999,9999,9999,2226928744
83,19,19,Jits_Linear_5,126,9999,9999,9999,2227658840
83,19,19,Jits_Linear_5,127,9999,9999,9999,2228388928
83,19,19,Jits_Linear_5,128,9999,9999,9999,2229119100
83,19,19,Jits_Linear_5,129,9999,9999,9999,2229848160
83,19,19,Jits_Linear_5,130,9999,9999,9999,2230588488
83,19,19,Jits_Linear_5,131,9999,9999,9999,2231328844
83,19,19,Jits_Linear_5,132,9999,9999,9999,2232068152
83,19,19,Jits_Linear_5,133,9999,9999,9999,2232808508
83,19,19,Jits_Linear_5,134,9999,9999,9999,2233548860
83,19,19,Jits_Linear_5,135,9999,9999,9999,2234298428
83,19,19,Jits_Linear_5,136,9999,9999,9999,2235049052
83,19,19,Jits_Linear_5,137,9999,9999,9999,2235798620
83,19,19,Jits_Linear_5,138,9999,9999,9999,2236548196
83,19,19,Jits_Linear_5,139,9999,9999,9999,2237298764
83,19,19,Jits_Linear_5,140,9999,9999,9999,2238058600
83,19,19,Jits_Linear_5,141,9999,9999,9999,2238818376
83,19,19,Jits_Linear_5,142,9999,9999,9999,2239578220
83,19,19,Jits_Linear_5,143,9999,9999,9999,2240339028
83,19,19,Jits_Linear_5,144,9999,9999,9999,2241098840
83,19,19,Jits_Linear_5,145,9999,9999,9999,2241868892
83,19,19,Jits_Linear_5,146,9999,9999,9999,2242638924
83,19,19,Jits_Linear_5,147,9999,9999,9999,2243408952
83,19,19,Jits_Linear_5,148,9999,9999,9999,2244179048
83,19,19,Jits_Linear_5,149,9999,9999,9999,2244949076
83,19,19,Jits_Linear_5,150,9999,9999,9999,2245728324
83,19,19,Jits_Linear_5,151,9999,9999,9999,2246508604
83,19,19,Jits_Linear_5,152,9999,9999,9999,2247288896
83,19,19,Jits_Linear_5,153,9999,9999,9999,2248068216
83,19,19,Jits_Linear_5,154,9999,9999,9999,2248848508
83,19,19,Jits_Linear_5,155,9999,9999,9999,2249638980
83,19,19,Jits_Linear_5,156,9999,9999,9999,2250428480
83,19,19,Jits_Linear_5,157,9999,9999,9999,2251219028
83,19,19,Jits_Linear_5,158,9999,9999,9999,2252008536
83,19,19,Jits_Linear_5,159,9999,9999,9999,2252799092
83,19,19,Jits_Linear_5,160,9999,9999,9999,2253598804
83,19,19,Jits_Linear_5,161,9999,9999,9999,2254398576
83,19,19,Jits_Linear_5,162,9999,9999,9999,2255198292
83,19,19,Jits_Linear_5,163,9999,9999,9999,2255999052
83,19,19,Jits_Linear_5,164,9999,9999,9999,2256798832
83,19,19,Jits_Linear_5,165,9999,9999,9999,2257608792
83,19,19,Jits_Linear_5,166,9999,9999,9999,2258418752
83,19,19,Jits_Linear_5,167,9999,9999,9999,2259228800
83,19,19,Jits_Linear_5,168,9999,9999,9999,2260038764
83,19,19,Jits_Linear_5,169,9999,9999,9999,2260848756
83,20,7,Jits_ISO_8,0,5,56,103,2270086700
83,20,7,Jits_ISO_8,1,5,63,98,2270089724
83,20,7,Jits_ISO_8,2,5,80,127,2270092844
83,20,7,Jits_ISO_8,0,5,56,103,2270887372
83,20,7,Jits_ISO_8,1,5,63,98,2270890620
83,20,7,Jits_ISO_8,2,5,80,127,2270893664
83,20,7,Jits_ISO_8,0,5,80,127,2271626628
83,20,7,Jits_ISO_8,1,5,63,98,2271716764
83,20,7,Jits_ISO_8,2,5,56,103,2271727036
83,20,7,Jits_ISO_8,3,1,48,61,2271755780
83,20,7,Jits_ISO_8,0,5,56,103,2272446880
83,20,7,Jits_ISO_8,1,5,63,98,2272457004
83,20,7,Jits_ISO_8,2,1,48,60,2272498328
83,20,7,Jits_ISO_8,3,5,80,127,2272547128
83,20,7,Jits_ISO_8,0,5,63,98,2273216784
83,20,7,Jits_ISO_8,1,5,80,127,2273246536
83,20,7,Jits_ISO_8,2,1,48,57,2273263428
83,20,7,Jits_ISO_8,3,5,56,103,2273277400
83,20,7,Jits_ISO_8,0,1,48,50,2273991876
83,20,7,Jits_ISO_8,1,5,56,103,2274016632
83,20,7,Jits_ISO_8,2,5,80,127,2274116868
83,20,7,Jits_ISO_8,3,5,63,98,2274167020
83,20,7,Jits_ISO_8,0,5,56,103,2274817544
83,20,7,Jits_ISO_8,1,1,48,56,2274853844
83,20,7,Jits_ISO_8,2,5,80,127,2274866472
83,20,7,Jits_ISO_8,3,5,63,98,2274906584
83,20,7,Jits_ISO_8,0,5,80,127,2275646788
83,20,7,Jits_ISO_8,1,1,48,57,2275664308
83,20,7,Jits_ISO_8,2,5,63,98,2275676632
83,20,7,Jits_ISO_8,3,5,56,103,2275747136
83,20,7,Jits_ISO_8,0,5,63,98,2276477332
83,20,7,Jits_ISO_8,1,5,56,103,2276507008
83,20,7,Jits_ISO_8,2,1,48,55,2276517028
83,20,7,Jits_ISO_8,3,5,80,127,2276567540
83,20,7,Jits_ISO_8,0,5,56,103,2277216584
83,20,7,Jits_ISO_8,1,5,80,127,2277219500
83,20,7,Jits_ISO_8,2,1,48,75,2277284420
83,20,7,Jits_ISO_8,3,5,63,98,2277336452
83,20,7,Jits_ISO_8,0,5,56,103,2278097360
83,20,7,Jits_ISO_8,1,1,48,65,2278120184
83,20,7,Jits_ISO_8,2,5,80,127,2278137444
83,20,7,Jits_ISO_8,3,5,63,98,2278146516
83,20,7,Jits_ISO_8,0,5,56,103,2278857008
83,20,7,Jits_ISO_8,1,5,80,127,2278876420
83,20,7,Jits_ISO_8,2,1,48,61,2278929588
83,20,7,Jits_ISO_8,3,5,63,98,2278957628
83,20,7,Jits_ISO_8,0,5,80,127,2279646544
83,20,7,Jits_ISO_8,1,1,48,65,2279697016
83,20,7,Jits_ISO_8,2,5,56,103,2279746788
83,20,7,Jits_ISO_8,3,5,63,98,2279757456
83,20,7,Jits_ISO_8,0,5,63,98,2280416532
83,20,7,Jits_ISO_8,1,1,48,64,2280454348
83,20,7,Jits_ISO_8,2,5,80,127,2280477212
83,20,7,Jits_ISO_8,3,5,56,103,2280487408
83,20,7,Jits_ISO_8,0,5,56,103,2281217360
83,20,7,Jits_ISO_8,1,1,48,71,2281234944
83,20,7,Jits_ISO_8,2,5,63,98,2281287108
83,20,7,Jits_ISO_8,3,5,80,127,2281290644
83,20,7,Jits_ISO_8,0,1,48,68,2282027528
83,20,7,Jits_ISO_8,1,5,63,98,2282046808
83,20,7,Jits_ISO_8,2,5,56,103,2282097108
83,20,7,Jits_ISO_8,3,5,80,127,2282100324
83,20,7,Jits_ISO_8,0,5,56,103,2282806496
83,20,7,Jits_ISO_8,1,5,80,127,2282809720
83,20,7,Jits_ISO_8,2,1,48,64,2282857524
83,20,7,Jits_ISO_8,3,5,63,98,2282896728
83,20,7,Jits_ISO_8,0,1,48,62,2283610472
83,20,7,Jits_ISO_8,1,5,63,98,2283647512
83,20,7,Jits_ISO_8,2,5,56,103,2283736364
83,20,7,Jits_ISO_8,3,5,80,127,2283767532
83,20,7,Jits_ISO_8,0,5,56,103,2284436744
83,20,7,Jits_ISO_8,1,1,48,57,2284438084
83,20,7,Jits_ISO_8,2,5,63,98,2284537272
83,20,7,Jits_ISO_8,3,5,80,127,2284566876
83,20,7,Jits_ISO_8,0,5,63,98,2285257080
83,20,7,Jits_ISO_8,1,5,56,103,2285267276
83,20,7,Jits_ISO_8,2,1,48,53,2285330176
83,20,7,Jits_ISO_8,3,5,80,127,2285357400
83,20,7,Jits_ISO_8,0,5,63,98,2286077396
83,20,7,Jits_ISO_8,1,5,56,103,2286157444
83,20,7,Jits_ISO_8,2,5,80,127,2286160356
83,20,7,Jits_ISO_8,3,1,48,57,2286176072
83,20,7,Jits_ISO_8,0,5,80,127,2286837392
83,20,7,Jits_ISO_8,1,5,63,98,2286856508
83,20,7,Jits_ISO_8,2,5,56,103,2286917120
83,20,7,Jits_ISO_8,3,1,48,54,2286939744
83,20,7,Jits_ISO_8,0,5,56,103,2287676752
83,20,7,Jits_ISO_8,1,5,63,98,2287697236
83,20,7,Jits_ISO_8,2,5,80,127,2287700600
83,20,7,Jits_ISO_8,3,1,48,62,2287867784
83,20,7,Jits_ISO_8,0,5,63,98,2288417128
83,20,7,Jits_ISO_8,1,5,80,127,2288497100
83,20,7,Jits_ISO_8,2,5,56,103,2288507220
83,20,7,Jits_ISO_8,3,1,48,50,2288528244
83,20,7,Jits_ISO_8,0,1,48,52,2289208416
83,20,7,Jits_ISO_8,1,5,63,98,2289237308
83,20,7,Jits_ISO_8,2,5,56,103,2289256796
83,20,7,Jits_ISO_8,3,5,80,127,2289307204
83,20,7,Jits_ISO_8,0,1,48,57,2289967508
83,20,7,Jits_ISO_8,1,5,80,127,2290037312
83,20,7,Jits_ISO_8,2,5,63,98,2290077160
83,20,7,Jits_ISO_8,3,5,56,103,2290096352
83,20,7,Jits_ISO_8,0,1,48,50,2290771952
83,20,7,Jits_ISO_8,1,5,56,103,2290876640
83,20,7,Jits_ISO_8,2,5,63,98,2290887060
83,20,7,Jits_ISO_8,3,5,80,127,2290906472
83,20,7,Jits_ISO_8,0,5,56,103,2291606992
83,20,7,Jits_ISO_8,1,1,48,61,2291652512
83,20,7,Jits_ISO_8,2,5,63,98,2291697196
83,20,7,Jits_ISO_8,3,5,80,127,2291757424
83,20,7,Jits_ISO_8,0,5,80,127,2292437212
83,20,7,Jits_ISO_8,1,5,56,103,2292446660
83,20,7,Jits_ISO_8,2,5,63,98,2292517164
83,20,7,Jits_ISO_8,3,1,48,58,2292572068
83,20,7,Jits_ISO_8,0,5,63,98,2293266904
83,20,7,Jits_ISO_8,1,1,48,51,2293353508
83,20,7,Jits_ISO_8,2,5,80,127,2293357060
83,20,7,Jits_ISO_8,3,5,56,103,2293367184
83,20,7,Jits_ISO_8,0,5,63,98,2294007060
83,20,7,Jits_ISO_8,1,5,80,127,2294057340
83,20,7,Jits_ISO_8,2,1,48,57,2294115956
83,20,7,Jits_ISO_8,3,5,56,103,2294117372
83,20,7,Jits_ISO_8,0,1,48,58,2294743116
83,20,7,Jits_ISO_8,1,5,56,103,2294836716
83,20,7,Jits_ISO_8,2,5,80,127,2294886720
83,20,7,Jits_ISO_8,3,5,63,98,2294907256
83,20,7,Jits_ISO_8,0,1,48,62,2295591528
83,20,7,Jits_ISO_8,1,5,56,103,2295606620
83,20,7,Jits_ISO_8,2,5,80,127,2295667184
83,20,7,Jits_ISO_8,3,5,63,98,2295736628
83,20,7,Jits_ISO_8,0,5,56,103,2296407480
83,20,7,Jits_ISO_8,1,1,48,58,2296421160
83,20,7,Jits_ISO_8,2,5,80,127,2296437072
83,20,7,Jits_ISO_8,3,5,63,98,2296466748
83,20,7,Jits_ISO_8,0,1,48,75,2297174652
83,20,7,Jits_ISO_8,1,5,56,103,2297246976
83,20,7,Jits_ISO_8,2,5,80,127,2297266688
83,20,7,Jits_ISO_8,3,5,63,98,2297326912
83,20,7,Jits_ISO_8,0,1,48,64,2298004540
83,20,7,Jits_ISO_8,1,5,80,127,2298126836
83,20,7,Jits_ISO_8,2,5,56,103,2298136960
83,20,7,Jits_ISO_8,3,5,63,98,2298147156
83,20,7,Jits_ISO_8,0,5,56,103,2298886416
83,20,7,Jits_ISO_8,1,1,48,56,2298926728
83,20,7,Jits_ISO_8,2,5,80,127,2298928068
83,20,7,Jits_ISO_8,3,5,63,98,2298957024
83,20,7,Jits_ISO_8,0,5,56,103,2299656552
83,20,7,Jits_ISO_8,1,1,48,65,2299671352
83,20,7,Jits_ISO_8,2,5,63,98,2299687192
83,20,7,Jits_ISO_8,3,5,80,127,2299727156
83,20,7,Jits_ISO_8,0,5,80,127,2300407124
83,20,7,Jits_ISO_8,1,5,63,98,2300457252
83,20,7,Jits_ISO_8,2,1,48,51,2300461864
83,20,7,Jits_ISO_8,3,5,56,103,2300477032
83,20,7,Jits_ISO_8,0,1,48,54,2301191672
83,20,7,Jits_ISO_8,1,5,56,103,2301236732
83,20,7,Jits_ISO_8,2,5,80,127,2301307180
83,20,7,Jits_ISO_8,3,5,63,98,2301366744
83,20,7,Jits_ISO_8,0,5,80,127,2302037308
83,20,7,Jits_ISO_8,1,1,48,69,2302085388
83,20,7,Jits_ISO_8,2,5,63,98,2302126388
83,20,7,Jits_ISO_8,3,5,56,103,2302146996
83,20,7,Jits_ISO_8,0,5,63,98,2302856588
83,20,7,Jits_ISO_8,1,5,56,103,2302876976
83,20,7,Jits_ISO_8,2,1,48,58,2302894264
83,20,7,Jits_ISO_8,3,5,80,127,2302917056
83,20,7,Jits_ISO_8,0,5,80,127,2303617336
83,20,7,Jits_ISO_8,1,5,63,98,2303637048
83,20,7,Jits_ISO_8,2,1,48,67,2303675760
83,20,7,Jits_ISO_8,3,5,56,103,2303716908
83,20,7,Jits_ISO_8,0,5,63,98,2304406868
83,20,7,Jits_ISO_8,1,1,48,64,2304469324
83,20,7,Jits_ISO_8,2,5,56,103,2304516476
83,20,7,Jits_ISO_8,3,5,80,127,2304519544
83,20,7,Jits_ISO_8,0,5,63,98,2305227096
83,20,7,Jits_ISO_8,1,5,56,103,2305237364
83,20,7,Jits_ISO_8,2,5,80,127,2305240356
83,20,7,Jits_ISO_8,3,1,48,59,2305259664
83,20,7,Jits_ISO_8,0,1,48,68,2305994748
83,20,7,Jits_ISO_8,1,5,56,103,2306007596
83,20,7,Jits_ISO_8,2,5,80,127,2306127116
83,20,7,Jits_ISO_8,3,5,63,98,2306167132
83,20,7,Jits_ISO_8,0,5,56,103,2306826724
83,20,7,Jits_ISO_8,1,1,48,62,2306904352
83,20,7,Jits_ISO_8,2,5,80,127,2306906392
83,20,7,Jits_ISO_8,3,5,63,98,2306927000
83,20,7,Jits_ISO_8,0,1,48,73,2307623784
83,20,7,Jits_ISO_8,1,5,56,103,2307627340
83,20,7,Jits_ISO_8,2,5,63,98,2307736968
83,20,7,Jits_ISO_8,3,5,80,127,2307740332
83,20,7,Jits_ISO_8,0,5,56,103,2308456744
83,20,7,Jits_ISO_8,1,5,80,127,2308486720
83,20,7,Jits_ISO_8,2,1,48,65,2308487684
83,20,7,Jits_ISO_8,3,5,63,98,2308506948
83,20,7,Jits_ISO_8,0,5,63,98,2309237064
83,20,7,Jits_ISO_8,1,1,48,65,2309238028
83,20,7,Jits_ISO_8,2,5,56,103,2309247252
83,20,7,Jits_ISO_8,3,5,80,127,2309256848
83,20,7,Jits_ISO_8,0,1,48,63,2309993940
83,20,7,Jits_ISO_8,1,5,80,127,2310026720
83,20,7,Jits_ISO_8,2,5,56,103,2310076700
83,20,7,Jits_ISO_8,3,5,63,98,2310116996
83,20,7,Jits_ISO_8,0,1,48,61,2310843996
83,20,7,Jits_ISO_8,1,5,80,127,2310846880
83,20,7,Jits_ISO_8,2,5,63,98,2310867264
83,20,7,Jits_ISO_8,3,5,56,103,2310916644
83,20,7,Jits_ISO_8,0,1,48,61,2311640492
83,20,7,Jits_ISO_8,1,5,80,127,2311656780
83,20,7,Jits_ISO_8,2,5,56,103,2311686456
83,20,7,Jits_ISO_8,3,5,63,98,2311757044
83,20,7,Jits_ISO_8,0,1,48,68,2312463868
83,20,7,Jits_ISO_8,1,5,56,103,2312506984
83,20,7,Jits_ISO_8,2,5,80,127,2312516960
83,20,7,Jits_ISO_8,3,5,63,98,2312556924
83,20,7,Jits_ISO_8,0,5,56,103,2313217324
83,20,7,Jits_ISO_8,1,5,63,98,2313236736
83,20,7,Jits_ISO_8,2,5,80,127,2313306664
83,20,7,Jits_ISO_8,3,1,48,58,2313343564
83,20,7,Jits_ISO_8,0,1,48,60,2314022172
83,20,7,Jits_ISO_8,1,5,63,98,2314036592
83,20,7,Jits_ISO_8,2,5,80,127,2314097008
83,20,7,Jits_ISO_8,3,5,56,103,2314117076
83,20,7,Jits_ISO_8,0,5,80,127,2314827112
83,20,7,Jits_ISO_8,1,1,48,68,2314841096
83,20,7,Jits_ISO_8,2,5,56,103,2314856708
83,20,7,Jits_ISO_8,3,5,63,98,2314886756
83,20,7,Jits_ISO_8,0,1,48,64,2315564596
83,20,7,Jits_ISO_8,1,5,56,103,2315626976
83,20,7,Jits_ISO_8,2,5,63,98,2315687204
83,20,7,Jits_ISO_8,3,5,80,127,2315746844
83,20,7,Jits_ISO_8,0,1,48,74,2316415948
83,20,7,Jits_ISO_8,1,5,80,127,2316447064
83,20,7,Jits_ISO_8,2,5,56,103,2316466628
83,20,7,Jits_ISO_8,3,5,63,98,2316537192
83,20,7,Jits_ISO_8,0,1,48,58,2317229144
83,20,7,Jits_ISO_8,1,5,80,127,2317246776
83,20,7,Jits_ISO_8,2,5,63,98,2317267312
83,20,7,Jits_ISO_8,3,5,56,103,2317296988
83,20,7,Jits_ISO_8,0,5,80,127,2318037352
83,20,7,Jits_ISO_8,1,1,48,63,2318053048
83,20,7,Jits_ISO_8,2,5,63,98,2318056756
83,20,7,Jits_ISO_8,3,5,56,103,2318117220
83,20,7,Jits_ISO_8,0,5,80,127,2318837148
83,20,7,Jits_ISO_8,1,1,48,58,2318864080
83,20,7,Jits_ISO_8,2,5,56,103,2318936668
83,20,7,Jits_ISO_8,3,5,63,98,2318967076
83,20,7,Jits_ISO_8,0,5,63,98,2319626760
83,20,7,Jits_ISO_8,1,5,80,127,2319676816
83,20,7,Jits_ISO_8,2,5,56,103,2319697148
83,20,7,Jits_ISO_8,3,1,48,73,2319728212
83,20,7,Jits_ISO_8,0,5,80,127,2320467324
83,20,7,Jits_ISO_8,1,5,56,103,2320497000
83,20,7,Jits_ISO_8,2,5,63,98,2320500068
83,20,7,Jits_ISO_8,3,1,48,70,2320502812
83,20,7,Jits_ISO_8,0,1,48,59,2321282804
83,20,7,Jits_ISO_8,1,5,63,98,2321296700
83,20,7,Jits_ISO_8,2,5,56,103,2321336644
83,20,7,Jits_ISO_8,3,5,80,127,2321357104
83,20,7,Jits_ISO_8,0,5,80,127,2322037308
83,20,7,Jits_ISO_8,1,1,48,67,2322082380
83,20,7,Jits_ISO_8,2,5,63,98,2322116952
83,20,7,Jits_ISO_8,3,5,56,103,2322156892
83,20,7,Jits_ISO_8,0,1,48,63,2322854004
83,20,7,Jits_ISO_8,1,5,63,98,2322857560
83,20,7,Jits_ISO_8,2,5,80,127,2322937356
83,20,7,Jits_ISO_8,3,5,56,103,2322956680
83,20,7,Jits_ISO_8,0,1,48,65,2323692084
83,20,7,Jits_ISO_8,1,5,56,103,2323697060
83,20,7,Jits_ISO_8,2,5,63,98,2323707556
83,20,7,Jits_ISO_8,3,5,80,127,2323747492
83,20,7,Jits_ISO_8,0,5,56,103,2324416836
83,20,7,Jits_ISO_8,1,5,80,127,2324419976
83,20,7,Jits_ISO_8,2,1,48,70,2324503180
83,20,7,Jits_ISO_8,3,5,63,98,2324557032
83,20,7,Jits_ISO_8,0,5,56,103,2325207556
83,20,7,Jits_ISO_8,1,1,48,71,2325287772
83,20,7,Jits_ISO_8,2,5,63,98,2325296568
83,20,7,Jits_ISO_8,3,5,80,127,2325367096
83,20,7,Jits_ISO_8,0,1,48,76,2326012044
83,20,7,Jits_ISO_8,1,5,63,98,2326086996
83,20,7,Jits_ISO_8,2,5,80,127,2326090360
83,20,7,Jits_ISO_8,3,5,56,103,2326146696
83,20,7,Jits_ISO_8,0,1,48,78,2326870936
83,20,7,Jits_ISO_8,1,5,80,127,2326926564
83,20,7,Jits_ISO_8,2,5,56,103,2326947320
83,20,7,Jits_ISO_8,3,5,63,98,2326957592
83,20,7,Jits_ISO_8,0,5,56,103,2327637500
83,20,7,Jits_ISO_8,1,5,63,98,2327646724
83,20,7,Jits_ISO_8,2,1,48,65,2327690452
83,20,7,Jits_ISO_8,3,5,80,127,2327717296
83,20,7,Jits_ISO_8,0,5,80,127,2328437228
83,20,7,Jits_ISO_8,1,1,48,84,2328458336
83,20,7,Jits_ISO_8,2,5,56,103,2328487720
83,20,7,Jits_ISO_8,3,5,63,98,2328536504
83,20,7,Jits_ISO_8,0,1,48,67,2329303816
83,20,7,Jits_ISO_8,1,5,56,103,2329316668
83,20,7,Jits_ISO_8,2,5,63,98,2329327084
83,20,7,Jits_ISO_8,3,5,80,127,2329366876
83,20,7,Jits_ISO_8,0,5,56,103,2330057052
83,20,7,Jits_ISO_8,1,1,48,62,2330082264
83,20,7,Jits_ISO_8,2,5,63,98,2330097132
83,20,7,Jits_ISO_8,3,5,80,127,2330147036
83,20,7,Jits_ISO_8,0,5,80,127,2330816840
83,20,7,Jits_ISO_8,1,5,56,103,2330866972
83,20,7,Jits_ISO_8,2,1,48,72,2330872108
83,20,7,Jits_ISO_8,3,5,63,98,2330886524
83,20,7,Jits_ISO_8,0,5,80,127,2331626900
83,20,7,Jits_ISO_8,1,1,48,67,2331639016
83,20,7,Jits_ISO_8,2,5,63,98,2331687660
83,20,7,Jits_ISO_8,3,5,56,103,2331767240
83,20,7,Jits_ISO_8,0,5,80,127,2332407148
83,20,7,Jits_ISO_8,1,5,56,103,2332447088
83,20,7,Jits_ISO_8,2,5,63,98,2332466724
83,20,7,Jits_ISO_8,3,1,48,66,2332505160
83,20,7,Jits_ISO_8,0,1,48,61,2333235684
83,20,7,Jits_ISO_8,1,5,56,103,2333257008
83,20,7,Jits_ISO_8,2,5,80,127,2333267428
83,20,7,Jits_ISO_8,3,5,63,98,2333307440
83,20,7,Jits_ISO_8,0,1,48,62,2334063724
83,20,7,Jits_ISO_8,1,5,56,103,2334126396
83,20,7,Jits_ISO_8,2,5,63,98,2334167364
83,20,7,Jits_ISO_8,3,5,80,127,2334170656
83,20,7,Jits_ISO_8,0,5,63,98,2334816648
83,20,7,Jits_ISO_8,1,5,80,127,2334856588
83,20,7,Jits_ISO_8,2,1,48,75,2334924572
83,20,7,Jits_ISO_8,3,5,56,103,2334927384
83,20,7,Jits_ISO_8,0,5,63,98,2335607284
83,20,7,Jits_ISO_8,1,1,48,71,2335677088
83,20,7,Jits_ISO_8,2,5,56,103,2335686928
83,20,7,Jits_ISO_8,3,5,80,127,2335746348
83,20,7,Jits_ISO_8,0,5,80,127,2336417184
83,20,7,Jits_ISO_8,1,1,48,65,2336447128
83,20,7,Jits_ISO_8,2,5,63,98,2336467380
83,20,7,Jits_ISO_8,3,5,56,103,2336496908
83,20,7,Jits_ISO_8,0,5,56,103,2337206568
83,20,7,Jits_ISO_8,1,5,63,98,2337256844
83,20,7,Jits_ISO_8,2,5,80,127,2337267188
83,20,7,Jits_ISO_8,3,1,48,73,2337268980
83,20,7,Jits_ISO_8,0,1,48,56,2338002644
83,20,7,Jits_ISO_8,1,5,56,103,2338016616
83,20,7,Jits_ISO_8,2,5,63,98,2338127440
83,20,7,Jits_ISO_8,3,5,80,127,2338146628
83,20,7,Jits_ISO_8,0,5,63,98,2338817528
83,20,7,Jits_ISO_8,1,5,80,127,2338866684
83,20,7,Jits_ISO_8,2,1,48,65,2338894096
83,20,7,Jits_ISO_8,3,5,56,103,2338956764
83,20,7,Jits_ISO_8,0,5,63,98,2339606828
83,20,7,Jits_ISO_8,1,5,80,127,2339636504
83,20,7,Jits_ISO_8,2,1,48,60,2339651156
83,20,7,Jits_ISO_8,3,5,56,103,2339726728
83,20,7,Jits_ISO_8,0,5,63,98,2340406608
83,20,7,Jits_ISO_8,1,1,48,49,2340410172
83,20,7,Jits_ISO_8,2,5,56,103,2340416796
83,20,7,Jits_ISO_8,3,5,80,127,2340517276
83,20,7,Jits_ISO_8,0,1,48,55,2341155188
83,20,7,Jits_ISO_8,1,5,63,98,2341306640
83,20,7,Jits_ISO_8,2,5,80,127,2341336392
83,20,7,Jits_ISO_8,3,5,56,103,2341367184
83,20,7,Jits_ISO_8,0,1,48,61,2342010288
83,20,7,Jits_ISO_8,1,5,80,127,2342127184
83,20,7,Jits_ISO_8,2,5,63,98,2342137604
83,20,7,Jits_ISO_8,3,5,56,103,2342166832
83,20,7,Jits_ISO_8,0,5,80,127,2342827500
83,20,7,Jits_ISO_8,1,5,63,98,2342846840
83,20,7,Jits_ISO_8,2,5,56,103,2342896968
83,20,7,Jits_ISO_8,3,1,48,57,2342902552
83,20,7,Jits_ISO_8,0,1,48,57,2343627048
83,20,7,Jits_ISO_8,1,5,63,98,2343656816
83,20,7,Jits_ISO_8,2,5,80,127,2343717284
83,20,7,Jits_ISO_8,3,5,56,103,2343736604
83,20,7,Jits_ISO_8,0,5,63,98,2344416600
83,20,7,Jits_ISO_8,1,1,48,62,2344448564
83,20,7,Jits_ISO_8,2,5,56,103,2344466944
83,20,7,Jits_ISO_8,3,5,80,127,2344477216
83,20,7,Jits_ISO_8,0,1,48,71,2345235532
83,20,7,Jits_ISO_8,1,5,56,103,2345247164
83,20,7,Jits_ISO_8,2,5,80,127,2345257288
83,20,7,Jits_ISO_8,3,5,63,98,2345356648
83,20,7,Jits_ISO_8,0,5,80,127,2346007096
83,20,7,Jits_ISO_8,1,5,63,98,2346017296
83,20,7,Jits_ISO_8,2,1,48,59,2346057304
83,20,7,Jits_ISO_8,3,5,56,103,2346166764
83,20,7,Jits_ISO_8,0,5,63,98,2346817156
83,20,7,Jits_ISO_8,1,5,80,127,2346856752
83,20,7,Jits_ISO_8,2,1,48,64,2346893272
83,20,7,Jits_ISO_8,3,5,56,103,2346936688
83,20,7,Jits_ISO_8,0,5,56,103,2347607376
83,20,7,Jits_ISO_8,1,1,48,69,2347651920
83,20,7,Jits_ISO_8,2,5,80,127,2347706724
83,20,7,Jits_ISO_8,3,5,63,98,2347727180
83,20,7,Jits_ISO_8,0,1,48,67,2348442948
83,20,7,Jits_ISO_8,1,5,80,127,2348466508
83,20,7,Jits_ISO_8,2,5,56,103,2348476704
83,20,7,Jits_ISO_8,3,5,63,98,2348566972
83,20,7,Jits_ISO_8,0,1,48,70,2349245296
83,20,7,Jits_ISO_8,1,5,56,103,2349267196
83,20,7,Jits_ISO_8,2,5,63,98,2349286980
83,20,7,Jits_ISO_8,3,5,80,127,2349366760
83,20,7,Jits_ISO_8,0,5,63,98,2350017164
83,20,7,Jits_ISO_8,1,1,48,70,2350088840
83,20,7,Jits_ISO_8,2,5,56,103,2350106996
83,20,7,Jits_ISO_8,3,5,80,127,2350110064
83,20,7,Jits_ISO_8,0,5,56,103,2350847360
83,20,7,Jits_ISO_8,1,1,48,64,2350863884
83,20,7,Jits_ISO_8,2,5,80,127,2350906700
83,20,7,Jits_ISO_8,3,5,63,98,2350917120
83,20,7,Jits_ISO_8,0,1,48,55,2351649748
83,20,7,Jits_ISO_8,1,5,80,127,2351697232
83,20,7,Jits_ISO_8,2,5,56,103,2351706372
83,20,7,Jits_ISO_8,3,5,63,98,2351709592
83,20,7,Jits_ISO_8,0,1,48,78,2352438372
83,20,7,Jits_ISO_8,1,5,56,103,2352457148
83,20,7,Jits_ISO_8,2,5,80,127,2352467268
83,20,7,Jits_ISO_8,3,5,63,98,2352486756
83,20,7,Jits_ISO_8,0,1,48,84,2353200164
83,20,7,Jits_ISO_8,1,5,63,98,2353227260
83,20,7,Jits_ISO_8,2,5,80,127,2353286456
83,20,7,Jits_ISO_8,3,5,56,103,2353337012
83,20,7,Jits_ISO_8,0,1,48,71,2354068752
83,20,7,Jits_ISO_8,1,5,63,98,2354106912
83,20,7,Jits_ISO_8,2,5,56,103,2354117036
83,20,7,Jits_ISO_8,3,5,80,127,2354167148
83,20,7,Jits_ISO_8,0,5,63,98,2354807064
83,20,7,Jits_ISO_8,1,5,80,127,2354826476
83,20,7,Jits_ISO_8,2,5,56,103,2354837116
83,20,7,Jits_ISO_8,3,1,48,77,2354966848
83,20,7,Jits_ISO_8,0,5,63,98,2355606984
83,20,7,Jits_ISO_8,1,5,80,127,2355610348
83,20,7,Jits_ISO_8,2,5,56,103,2355647072
83,20,7,Jits_ISO_8,3,1,48,48,2355692740
83,20,7,Jits_ISO_8,0,1,48,67,2356420056
83,20,7,Jits_ISO_8,1,5,63,98,2356477396
83,20,7,Jits_ISO_8,2,5,80,127,2356507000
83,20,7,Jits_ISO_8,3,5,56,103,2356517420
83,20,7,Jits_ISO_8,0,5,56,103,2357227068
83,20,7,Jits_ISO_8,1,5,80,127,2357256520
83,20,7,Jits_ISO_8,2,5,63,98,2357287316
83,20,7,Jits_ISO_8,3,1,48,57,2357290436
83,20,7,Jits_ISO_8,0,1,48,67,2358033340
83,20,7,Jits_ISO_8,1,5,63,98,2358126980
83,20,7,Jits_ISO_8,2,5,56,103,2358167132
83,20,7,Jits_ISO_8,3,5,80,127,2358169972
83,20,7,Jits_ISO_8,0,5,80,127,2358827320
83,20,7,Jits_ISO_8,1,1,48,62,2358901708
83,20,7,Jits_ISO_8,2,5,56,103,2358907288
83,20,7,Jits_ISO_8,3,5,63,98,2358957560
83,20,7,Jits_ISO_8,0,5,80,127,2359606820
83,20,7,Jits_ISO_8,1,5,56,103,2359627080
83,20,7,Jits_ISO_8,2,5,63,98,2359717136
83,20,7,Jits_ISO_8,3,1,48,68,2359740256
83,20,7,Jits_ISO_8,0,5,80,127,2360447392
83,20,7,Jits_ISO_8,1,1,48,72,2360474944
83,20,7,Jits_ISO_8,2,5,63,98,2360487176
83,20,7,Jits_ISO_8,3,5,56,103,2360527192
83,20,7,Jits_ISO_8,0,5,63,98,2361217444
83,20,7,Jits_ISO_8,1,5,80,127,2361277016
83,20,7,Jits_ISO_8,2,5,56,103,2361306468
83,20,7,Jits_ISO_8,3,1,48,71,2361321868
83,20,7,Jits_ISO_8,0,5,56,103,2362017152
83,20,7,Jits_ISO_8,1,5,80,127,2362047128
83,20,7,Jits_ISO_8,2,1,48,72,2362096548
83,20,7,Jits_ISO_8,3,5,63,98,2362136804
83,20,7,Jits_ISO_8,0,5,56,103,2362826988
83,20,7,Jits_ISO_8,1,1,48,65,2362858952
83,20,7,Jits_ISO_8,2,5,80,127,2362936820
83,20,7,Jits_ISO_8,3,5,63,98,2362967480
83,20,7,Jits_ISO_8,0,1,48,69,2363665800
83,20,7,Jits_ISO_8,1,5,56,103,2363676908
83,20,7,Jits_ISO_8,2,5,63,98,2363736428
83,20,7,Jits_ISO_8,3,5,80,127,2363767136
83,20,7,Jits_ISO_8,0,5,56,103,2364447256
83,20,7,Jits_ISO_8,1,5,63,98,2364516892
83,20,7,Jits_ISO_8,2,5,80,127,2364537056
83,20,7,Jits_ISO_8,3,1,48,62,2364554024
83,20,7,Jits_ISO_8,0,5,80,127,2365217016
83,20,7,Jits_ISO_8,1,5,63,98,2365236876
83,20,7,Jits_ISO_8,2,5,56,103,2365287028
83,20,7,Jits_ISO_8,3,1,48,68,2365311944
83,20,7,Jits_ISO_8,0,9999,9999,9999,2270484564
83,20,7,Jits_ISO_8,1,9999,9999,9999,2271284340
83,20,7,Jits_ISO_8,2,9999,9999,9999,2272085112
83,20,7,Jits_ISO_8,3,9999,9999,9999,2272884836
83,20,7,Jits_ISO_8,4,9999,9999,9999,2273684552
83,20,7,Jits_ISO_8,5,9999,9999,9999,2274484340
83,20,7,Jits_ISO_8,6,9999,9999,9999,2275285092
83,20,7,Jits_ISO_8,7,9999,9999,9999,2276084820
83,20,7,Jits_ISO_8,8,9999,9999,9999,2276884548
83,20,7,Jits_ISO_8,9,9999,9999,9999,2277684320
83,20,7,Jits_ISO_8,10,9999,9999,9999,2278485048
83,20,7,Jits_ISO_8,11,9999,9999,9999,2279284848
83,20,7,Jits_ISO_8,12,9999,9999,9999,2280084580
83,20,7,Jits_ISO_8,13,9999,9999,9999,2280884300
83,20,7,Jits_ISO_8,14,9999,9999,9999,2281685044
83,20,7,Jits_ISO_8,15,9999,9999,9999,2282484832
83,20,7,Jits_ISO_8,16,9999,9999,9999,2283284600
83,20,7,Jits_ISO_8,17,9999,9999,9999,2284084332
83,20,7,Jits_ISO_8,18,9999,9999,9999,2284885044
83,20,7,Jits_ISO_8,19,9999,9999,9999,2285684848
83,20,7,Jits_ISO_8,20,9999,9999,9999,2286484552
83,20,7,Jits_ISO_8,21,9999,9999,9999,2287284336
83,20,7,Jits_ISO_8,22,9999,9999,9999,2288085100
83,20,7,Jits_ISO_8,23,9999,9999,9999,2288884824
83,20,7,Jits_ISO_8,24,9999,9999,9999,2289684532
83,20,7,Jits_ISO_8,25,9999,9999,9999,2290484312
83,20,7,Jits_ISO_8,26,9999,9999,9999,2291285096
83,20,7,Jits_ISO_8,27,9999,9999,9999,2292084808
83,20,7,Jits_ISO_8,28,9999,9999,9999,2292884532
83,20,7,Jits_ISO_8,29,9999,9999,9999,2293684340
83,20,7,Jits_ISO_8,30,9999,9999,9999,2294485096
83,20,7,Jits_ISO_8,31,9999,9999,9999,2295284808
83,20,7,Jits_ISO_8,32,9999,9999,9999,2296084588
83,20,7,Jits_ISO_8,33,9999,9999,9999,2296884288
83,20,7,Jits_ISO_8,34,9999,9999,9999,2297685084
83,20,7,Jits_ISO_8,35,9999,9999,9999,2298484804
83,20,7,Jits_ISO_8,36,9999,9999,9999,2299284592
83,20,7,Jits_ISO_8,37,9999,9999,9999,2300084316
83,20,7,Jits_ISO_8,38,9999,9999,9999,2300885084
83,20,7,Jits_ISO_8,39,9999,9999,9999,2301684816
83,20,7,Jits_ISO_8,40,9999,9999,9999,2302484604
83,20,7,Jits_ISO_8,41,9999,9999,9999,2303284328
83,20,7,Jits_ISO_8,42,9999,9999,9999,2304085108
83,20,7,Jits_ISO_8,43,9999,9999,9999,2304884820
83,20,7,Jits_ISO_8,44,9999,9999,9999,2305684588
83,20,7,Jits_ISO_8,45,9999,9999,9999,2306484300
83,20,7,Jits_ISO_8,46,9999,9999,9999,2307285060
83,20,7,Jits_ISO_8,47,9999,9999,9999,2308084852
83,20,7,Jits_ISO_8,48,9999,9999,9999,2308884560
83,20,7,Jits_ISO_8,49,9999,9999,9999,2309684280
83,20,7,Jits_ISO_8,50,9999,9999,9999,2310485056
83,20,7,Jits_ISO_8,51,9999,9999,9999,2311284840
83,20,7,Jits_ISO_8,52,9999,9999,9999,2312084552
83,20,7,Jits_ISO_8,53,9999,9999,9999,2312884340
83,20,7,Jits_ISO_8,54,9999,9999,9999,2313685092
83,20,7,Jits_ISO_8,55,9999,9999,9999,2314484816
83,20,7,Jits_ISO_8,56,9999,9999,9999,2315284596
83,20,7,Jits_ISO_8,57,9999,9999,9999,2316084320
83,20,7,Jits_ISO_8,58,9999,9999,9999,2316885100
83,20,7,Jits_ISO_8,59,9999,9999,9999,2317684812
83,20,7,Jits_ISO_8,60,9999,9999,9999,2318484592
83,20,7,Jits_ISO_8,61,9999,9999,9999,2319284324
83,20,7,Jits_ISO_8,62,9999,9999,9999,2320085092
83,20,7,Jits_ISO_8,63,9999,9999,9999,2320884792
83,20,7,Jits_ISO_8,64,9999,9999,9999,2321684596
83,20,7,Jits_ISO_8,65,9999,9999,9999,2322484312
83,20,7,Jits_ISO_8,66,9999,9999,9999,2323285112
83,20,7,Jits_ISO_8,67,9999,9999,9999,2324084828
83,20,7,Jits_ISO_8,68,9999,9999,9999,2324884600
83,20,7,Jits_ISO_8,69,9999,9999,9999,2325684328
83,20,7,Jits_ISO_8,70,9999,9999,9999,2326485068
83,20,7,Jits_ISO_8,71,9999,9999,9999,2327284788
83,20,7,Jits_ISO_8,72,9999,9999,9999,2328084572
83,20,7,Jits_ISO_8,73,9999,9999,9999,2328884300
83,20,7,Jits_ISO_8,74,9999,9999,9999,2329685104
83,20,7,Jits_ISO_8,75,9999,9999,9999,2330484816
83,20,7,Jits_ISO_8,76,9999,9999,9999,2331284540
83,20,7,Jits_ISO_8,77,9999,9999,9999,2332084340
83,20,7,Jits_ISO_8,78,9999,9999,9999,2332885104
83,20,7,Jits_ISO_8,79,9999,9999,9999,2333684828
83,20,7,Jits_ISO_8,80,9999,9999,9999,2334484536
83,20,7,Jits_ISO_8,81,9999,9999,9999,2335284320
83,20,7,Jits_ISO_8,82,9999,9999,9999,2336085100
83,20,7,Jits_ISO_8,83,9999,9999,9999,2336884808
83,20,7,Jits_ISO_8,84,9999,9999,9999,2337684600
83,20,7,Jits_ISO_8,85,9999,9999,9999,2338484324
83,20,7,Jits_ISO_8,86,9999,9999,9999,2339285080
83,20,7,Jits_ISO_8,87,9999,9999,9999,2340084784
83,20,7,Jits_ISO_8,88,9999,9999,9999,2340884568
83,20,7,Jits_ISO_8,89,9999,9999,9999,2341684284
83,20,7,Jits_ISO_8,90,9999,9999,9999,2342485076
83,20,7,Jits_ISO_8,91,9999,9999,9999,2343284784
83,20,7,Jits_ISO_8,92,9999,9999,9999,2344084592
83,20,7,Jits_ISO_8,93,9999,9999,9999,2344884296
83,20,7,Jits_ISO_8,94,9999,9999,9999,2345685052
83,20,7,Jits_ISO_8,95,9999,9999,9999,2346484836
83,20,7,Jits_ISO_8,96,9999,9999,9999,2347284556
83,20,7,Jits_ISO_8,97,9999,9999,9999,2348084344
83,20,7,Jits_ISO_8,98,9999,9999,9999,2348885068
83,20,7,Jits_ISO_8,99,9999,9999,9999,2349684856
83,20,7,Jits_ISO_8,100,9999,9999,9999,2350484556
83,20,7,Jits_ISO_8,101,9999,9999,9999,2351284344
83,20,7,Jits_ISO_8,102,9999,9999,9999,2352085112
83,20,7,Jits_ISO_8,103,9999,9999,9999,2352884816
83,20,7,Jits_ISO_8,104,9999,9999,9999,2353684600
83,20,7,Jits_ISO_8,105,9999,9999,9999,2354484316
83,20,7,Jits_ISO_8,106,9999,9999,9999,2355285092
83,20,7,Jits_ISO_8,107,9999,9999,9999,2356084856
83,20,7,Jits_ISO_8,108,9999,9999,9999,2356884568
83,20,7,Jits_ISO_8,109,9999,9999,9999,2357684276
83,20,7,Jits_ISO_8,110,9999,9999,9999,2358485048
83,20,7,Jits_ISO_8,111,9999,9999,9999,2359284832
83,20,7,Jits_ISO_8,112,9999,9999,9999,2360084556
83,20,7,Jits_ISO_8,113,9999,9999,9999,2360884276
83,20,7,Jits_ISO_8,114,9999,9999,9999,2361685068
83,20,7,Jits_ISO_8,115,9999,9999,9999,2362484848
83,20,7,Jits_ISO_8,116,9999,9999,9999,2363284576
83,20,7,Jits_ISO_8,117,9999,9999,9999,2364084308
83,20,7,Jits_ISO_8,118,9999,9999,9999,2364885068
83,20,7,Jits_ISO_8,119,9999,9999,9999,2365684788
83,21,16,Jits_ISO_5,0,5,56,103,2372727108
83,21,16,Jits_ISO_5,1,5,63,98,2372730204
83,21,16,Jits_ISO_5,2,5,80,127,2372733328
83,21,16,Jits_ISO_5,0,5,56,103,2373226904
83,21,16,Jits_ISO_5,1,5,63,98,2373230000
83,21,16,Jits_ISO_5,2,5,80,127,2373232976
83,21,16,Jits_ISO_5,0,1,48,43,2373707276
83,21,16,Jits_ISO_5,1,5,56,103,2373726780
83,21,16,Jits_ISO_5,2,5,80,127,2373736904
83,21,16,Jits_ISO_5,3,5,63,98,2373757212
83,21,16,Jits_ISO_5,0,5,63,98,2374177128
83,21,16,Jits_ISO_5,1,5,80,127,2374206800
83,21,16,Jits_ISO_5,2,5,56,103,2374217020
83,21,16,Jits_ISO_5,3,1,48,65,2374228756
83,21,16,Jits_ISO_5,0,1,48,77,2374732508
83,21,16,Jits_ISO_5,1,5,80,127,2374737260
83,21,16,Jits_ISO_5,2,5,56,103,2374746632
83,21,16,Jits_ISO_5,3,5,63,98,2374777056
83,21,16,Jits_ISO_5,0,5,63,98,2375226712
83,21,16,Jits_ISO_5,1,1,48,66,2375243860
83,21,16,Jits_ISO_5,2,5,56,103,2375256776
83,21,16,Jits_ISO_5,3,5,80,127,2375266600
83,21,16,Jits_ISO_5,0,5,56,103,2375677304
83,21,16,Jits_ISO_5,1,5,63,98,2375726608
83,21,16,Jits_ISO_5,2,1,48,63,2375736700
83,21,16,Jits_ISO_5,3,5,80,127,2375746908
83,21,16,Jits_ISO_5,0,5,80,127,2376176880
83,21,16,Jits_ISO_5,1,1,48,78,2376193776
83,21,16,Jits_ISO_5,2,5,63,98,2376227300
83,21,16,Jits_ISO_5,3,5,56,103,2376267112
83,21,16,Jits_ISO_5,0,5,56,103,2376676704
83,21,16,Jits_ISO_5,1,5,63,98,2376706528
83,21,16,Jits_ISO_5,2,1,48,67,2376707568
83,21,16,Jits_ISO_5,3,5,80,127,2376777048
83,21,16,Jits_ISO_5,0,5,56,103,2377176600
83,21,16,Jits_ISO_5,1,1,48,77,2377188712
83,21,16,Jits_ISO_5,2,5,80,127,2377236760
83,21,16,Jits_ISO_5,3,5,63,98,2377266656
83,21,16,Jits_ISO_5,0,5,56,103,2377687508
83,21,16,Jits_ISO_5,1,5,63,98,2377696884
83,21,16,Jits_ISO_5,2,5,80,127,2377736744
83,21,16,Jits_ISO_5,3,1,48,80,2377741660
83,21,16,Jits_ISO_5,0,5,63,98,2378176844
83,21,16,Jits_ISO_5,1,1,48,63,2378233744
83,21,16,Jits_ISO_5,2,5,80,127,2378256856
83,21,16,Jits_ISO_5,3,5,56,103,2378267200
83,21,16,Jits_ISO_5,0,1,48,78,2378722616
83,21,16,Jits_ISO_5,1,5,63,98,2378726844
83,21,16,Jits_ISO_5,2,5,56,103,2378766632
83,21,16,Jits_ISO_5,3,5,80,127,2378769772
83,21,16,Jits_ISO_5,0,5,56,103,2379186720
83,21,16,Jits_ISO_5,1,5,63,98,2379196768
83,21,16,Jits_ISO_5,2,5,80,127,2379236704
83,21,16,Jits_ISO_5,3,1,48,72,2379242364
83,21,16,Jits_ISO_5,0,5,56,103,2379676944
83,21,16,Jits_ISO_5,1,5,63,98,2379680016
83,21,16,Jits_ISO_5,2,5,80,127,2379696732
83,21,16,Jits_ISO_5,3,1,48,75,2379713856
83,21,16,Jits_ISO_5,0,5,80,127,2380187024
83,21,16,Jits_ISO_5,1,5,56,103,2380197368
83,21,16,Jits_ISO_5,2,1,48,69,2380223708
83,21,16,Jits_ISO_5,3,5,63,98,2380266740
83,21,16,Jits_ISO_5,0,5,63,98,2380676580
83,21,16,Jits_ISO_5,1,5,56,103,2380696964
83,21,16,Jits_ISO_5,2,1,48,72,2380713856
83,21,16,Jits_ISO_5,3,5,80,127,2380776672
83,21,16,Jits_ISO_5,0,5,56,103,2381186576
83,21,16,Jits_ISO_5,1,1,48,66,2381212540
83,21,16,Jits_ISO_5,2,5,80,127,2381227704
83,21,16,Jits_ISO_5,3,5,63,98,2381236484
83,21,16,Jits_ISO_5,0,5,80,127,2381676812
83,21,16,Jits_ISO_5,1,1,48,89,2381703300
83,21,16,Jits_ISO_5,2,5,63,98,2381706552
83,21,16,Jits_ISO_5,3,5,56,103,2381746712
83,21,16,Jits_ISO_5,0,5,56,103,2382197008
83,21,16,Jits_ISO_5,1,1,48,73,2382213160
83,21,16,Jits_ISO_5,2,5,63,98,2382226676
83,21,16,Jits_ISO_5,3,5,80,127,2382277024
83,21,16,Jits_ISO_5,0,5,80,127,2382696684
83,21,16,Jits_ISO_5,1,1,48,66,2382698168
83,21,16,Jits_ISO_5,2,5,56,103,2382736616
83,21,16,Jits_ISO_5,3,5,63,98,2382747108
83,21,16,Jits_ISO_5,0,5,80,127,2383176952
83,21,16,Jits_ISO_5,1,5,63,98,2383216964
83,21,16,Jits_ISO_5,2,1,48,69,2383221956
83,21,16,Jits_ISO_5,3,5,56,103,2383277640
83,21,16,Jits_ISO_5,0,5,56,103,2383676752
83,21,16,Jits_ISO_5,1,5,80,127,2383687268
83,21,16,Jits_ISO_5,2,5,63,98,2383766984
83,21,16,Jits_ISO_5,3,1,48,72,2383772724
83,21,16,Jits_ISO_5,0,5,80,127,2384176348
83,21,16,Jits_ISO_5,1,5,63,98,2384236840
83,21,16,Jits_ISO_5,2,1,48,75,2384240552
83,21,16,Jits_ISO_5,3,5,56,103,2384266580
83,21,16,Jits_ISO_5,0,5,56,103,2384677216
83,21,16,Jits_ISO_5,1,5,80,127,2384736584
83,21,16,Jits_ISO_5,2,1,48,57,2384752508
83,21,16,Jits_ISO_5,3,5,63,98,2384776440
83,21,16,Jits_ISO_5,0,5,56,103,2385227112
83,21,16,Jits_ISO_5,1,5,63,98,2385237456
83,21,16,Jits_ISO_5,2,5,80,127,2385240896
83,21,16,Jits_ISO_5,3,1,48,72,2385245976
83,21,16,Jits_ISO_5,0,5,80,127,2385676556
83,21,16,Jits_ISO_5,1,1,48,81,2385762924
83,21,16,Jits_ISO_5,2,5,63,98,2385766704
83,21,16,Jits_ISO_5,3,5,56,103,2385776900
83,21,16,Jits_ISO_5,0,5,56,103,2386177412
83,21,16,Jits_ISO_5,1,5,63,98,2386180660
83,21,16,Jits_ISO_5,2,5,80,127,2386183704
83,21,16,Jits_ISO_5,3,1,48,71,2386261988
83,21,16,Jits_ISO_5,0,1,48,73,2386701160
83,21,16,Jits_ISO_5,1,5,80,127,2386706736
83,21,16,Jits_ISO_5,2,5,63,98,2386756964
83,21,16,Jits_ISO_5,3,5,56,103,2386786712
83,21,16,Jits_ISO_5,0,5,56,103,2387186924
83,21,16,Jits_ISO_5,1,5,80,127,2387197492
83,21,16,Jits_ISO_5,2,1,48,88,2387228860
83,21,16,Jits_ISO_5,3,5,63,98,2387266940
83,21,16,Jits_ISO_5,0,5,56,103,2387697008
83,21,16,Jits_ISO_5,1,5,63,98,2387716496
83,21,16,Jits_ISO_5,2,1,48,82,2387721412
83,21,16,Jits_ISO_5,3,5,80,127,2387776876
83,21,16,Jits_ISO_5,0,5,80,127,2388186568
83,21,16,Jits_ISO_5,1,1,48,89,2388211860
83,21,16,Jits_ISO_5,2,5,63,98,2388257064
83,21,16,Jits_ISO_5,3,5,56,103,2388276548
83,21,16,Jits_ISO_5,0,5,80,127,2388706620
83,21,16,Jits_ISO_5,1,5,56,103,2388717036
83,21,16,Jits_ISO_5,2,5,63,98,2388727380
83,21,16,Jits_ISO_5,3,1,48,47,2388749456
83,21,16,Jits_ISO_5,0,5,80,127,2389197296
83,21,16,Jits_ISO_5,1,5,56,103,2389216560
83,21,16,Jits_ISO_5,2,1,48,72,2389217452
83,21,16,Jits_ISO_5,3,5,63,98,2389287572
83,21,16,Jits_ISO_5,0,5,56,103,2389707008
83,21,16,Jits_ISO_5,1,1,48,108,2389710052
83,21,16,Jits_ISO_5,2,5,80,127,2389736676
83,21,16,Jits_ISO_5,3,5,63,98,2389757284
83,21,16,Jits_ISO_5,0,5,63,98,2390196508
83,21,16,Jits_ISO_5,1,5,56,103,2390256968
83,21,16,Jits_ISO_5,2,1,48,42,2390271324
83,21,16,Jits_ISO_5,3,5,80,127,2390286636
83,21,16,Jits_ISO_5,0,5,63,98,2390687024
83,21,16,Jits_ISO_5,1,5,80,127,2390690540
83,21,16,Jits_ISO_5,2,1,48,81,2390733436
83,21,16,Jits_ISO_5,3,5,56,103,2390777296
83,21,16,Jits_ISO_5,0,5,56,103,2391207280
83,21,16,Jits_ISO_5,1,1,48,81,2391226284
83,21,16,Jits_ISO_5,2,5,63,98,2391236872
83,21,16,Jits_ISO_5,3,5,80,127,2391276956
83,21,16,Jits_ISO_5,0,5,63,98,2391707176
83,21,16,Jits_ISO_5,1,1,48,91,2391741908
83,21,16,Jits_ISO_5,2,5,56,103,2391746884
83,21,16,Jits_ISO_5,3,5,80,127,2391767340
83,21,16,Jits_ISO_5,0,1,48,82,2392181928
83,21,16,Jits_ISO_5,1,5,63,98,2392216872
83,21,16,Jits_ISO_5,2,5,56,103,2392256808
83,21,16,Jits_ISO_5,3,5,80,127,2392267300
83,21,16,Jits_ISO_5,0,1,48,65,2392696152
83,21,16,Jits_ISO_5,1,5,80,127,2392697644
83,21,16,Jits_ISO_5,2,5,63,98,2392766880
83,21,16,Jits_ISO_5,3,5,56,103,2392787488
83,21,16,Jits_ISO_5,0,5,56,103,2393186604
83,21,16,Jits_ISO_5,1,5,80,127,2393207212
83,21,16,Jits_ISO_5,2,5,63,98,2393247148
83,21,16,Jits_ISO_5,3,1,48,86,2393250716
83,21,16,Jits_ISO_5,0,1,48,82,2393693724
83,21,16,Jits_ISO_5,1,5,63,98,2393696608
83,21,16,Jits_ISO_5,2,5,80,127,2393717216
83,21,16,Jits_ISO_5,3,5,56,103,2393757152
83,21,16,Jits_ISO_5,0,1,48,72,2394192780
83,21,16,Jits_ISO_5,1,5,63,98,2394197460
83,21,16,Jits_ISO_5,2,5,56,103,2394216724
83,21,16,Jits_ISO_5,3,5,80,127,2394226996
83,21,16,Jits_ISO_5,0,5,80,127,2394697200
83,21,16,Jits_ISO_5,1,1,48,84,2394698164
83,21,16,Jits_ISO_5,2,5,56,103,2394716604
83,21,16,Jits_ISO_5,3,5,63,98,2394747400
83,21,16,Jits_ISO_5,0,1,48,72,2395207708
83,21,16,Jits_ISO_5,1,5,56,103,2395266540
83,21,16,Jits_ISO_5,2,5,80,127,2395269608
83,21,16,Jits_ISO_5,3,5,63,98,2395286776
83,21,16,Jits_ISO_5,0,5,63,98,2395687436
83,21,16,Jits_ISO_5,1,5,56,103,2395717140
83,21,16,Jits_ISO_5,2,1,48,93,2395752620
83,21,16,Jits_ISO_5,3,5,80,127,2395777444
83,21,16,Jits_ISO_5,0,1,48,91,2396197408
83,21,16,Jits_ISO_5,1,5,63,98,2396266832
83,21,16,Jits_ISO_5,2,5,56,103,2396277400
83,21,16,Jits_ISO_5,3,5,80,127,2396287300
83,21,16,Jits_ISO_5,0,5,56,103,2396717480
83,21,16,Jits_ISO_5,1,1,48,66,2396736860
83,21,16,Jits_ISO_5,2,5,80,127,2396747244
83,21,16,Jits_ISO_5,3,5,63,98,2396757440
83,21,16,Jits_ISO_5,0,5,63,98,2397257188
83,21,16,Jits_ISO_5,1,1,48,69,2397262324
83,21,16,Jits_ISO_5,2,5,56,103,2397267228
83,21,16,Jits_ISO_5,3,5,80,127,2397286712
83,21,16,Jits_ISO_5,0,5,56,103,2397687448
83,21,16,Jits_ISO_5,1,5,63,98,2397746568
83,21,16,Jits_ISO_5,2,5,80,127,2397749632
83,21,16,Jits_ISO_5,3,1,48,85,2397757328
83,21,16,Jits_ISO_5,0,5,80,127,2398207416
83,21,16,Jits_ISO_5,1,5,56,103,2398216568
83,21,16,Jits_ISO_5,2,1,48,97,2398219012
83,21,16,Jits_ISO_5,3,5,63,98,2398287308
83,21,16,Jits_ISO_5,0,5,80,127,2398696908
83,21,16,Jits_ISO_5,1,5,56,103,2398766440
83,21,16,Jits_ISO_5,2,1,48,59,2398774192
83,21,16,Jits_ISO_5,3,5,63,98,2398776852
83,21,16,Jits_ISO_5,0,5,63,98,2399236516
83,21,16,Jits_ISO_5,1,5,56,103,2399246564
83,21,16,Jits_ISO_5,2,5,80,127,2399267172
83,21,16,Jits_ISO_5,3,1,48,71,2399278236
83,21,16,Jits_ISO_5,0,5,80,127,2399687252
83,21,16,Jits_ISO_5,1,5,63,98,2399746448
83,21,16,Jits_ISO_5,2,1,48,68,2399776388
83,21,16,Jits_ISO_5,3,5,56,103,2399787272
83,21,16,Jits_ISO_5,0,5,56,103,2400226716
83,21,16,Jits_ISO_5,1,5,63,98,2400237208
83,21,16,Jits_ISO_5,2,1,48,70,2400257932
83,21,16,Jits_ISO_5,3,5,80,127,2400276912
83,21,16,Jits_ISO_5,0,5,56,103,2400686384
83,21,16,Jits_ISO_5,1,5,80,127,2400717104
83,21,16,Jits_ISO_5,2,1,48,61,2400747572
83,21,16,Jits_ISO_5,3,5,63,98,2400767444
83,21,16,Jits_ISO_5,0,1,48,83,2401224516
83,21,16,Jits_ISO_5,1,5,56,103,2401227324
83,21,16,Jits_ISO_5,2,5,63,98,2401267184
83,21,16,Jits_ISO_5,3,5,80,127,2401270624
83,21,16,Jits_ISO_5,0,1,48,73,2401711736
83,21,16,Jits_ISO_5,1,5,56,103,2401726756
83,21,16,Jits_ISO_5,2,5,63,98,2401737320
83,21,16,Jits_ISO_5,3,5,80,127,2401756436
83,21,16,Jits_ISO_5,0,5,56,103,2402186564
83,21,16,Jits_ISO_5,1,5,80,127,2402189480
83,21,16,Jits_ISO_5,2,1,48,82,2402213048
83,21,16,Jits_ISO_5,3,5,63,98,2402226492
83,21,16,Jits_ISO_5,0,1,48,60,2402722740
83,21,16,Jits_ISO_5,1,5,63,98,2402727268
83,21,16,Jits_ISO_5,2,5,56,103,2402757244
83,21,16,Jits_ISO_5,3,5,80,127,2402776432
83,21,16,Jits_ISO_5,0,5,80,127,2403197344
83,21,16,Jits_ISO_5,1,5,56,103,2403206492
83,21,16,Jits_ISO_5,2,5,63,98,2403216612
83,21,16,Jits_ISO_5,3,1,48,85,2403219656
83,21,16,Jits_ISO_5,0,5,56,103,2403697312
83,21,16,Jits_ISO_5,1,1,48,62,2403698428
83,21,16,Jits_ISO_5,2,5,80,127,2403736944
83,21,16,Jits_ISO_5,3,5,63,98,2403766840
83,21,16,Jits_ISO_5,0,1,48,84,2404203236
83,21,16,Jits_ISO_5,1,5,63,98,2404207092
83,21,16,Jits_ISO_5,2,5,80,127,2404217068
83,21,16,Jits_ISO_5,3,5,56,103,2404226364
83,21,16,Jits_ISO_5,0,5,56,103,2404687276
83,21,16,Jits_ISO_5,1,1,48,70,2404708456
83,21,16,Jits_ISO_5,2,5,63,98,2404757100
83,21,16,Jits_ISO_5,3,5,80,127,2404767144
83,21,16,Jits_ISO_5,0,5,80,127,2405187300
83,21,16,Jits_ISO_5,1,5,56,103,2405197420
83,21,16,Jits_ISO_5,2,1,48,69,2405215384
83,21,16,Jits_ISO_5,3,5,63,98,2405247388
83,21,16,Jits_ISO_5,0,5,80,127,2405697204
83,21,16,Jits_ISO_5,1,1,48,81,2405714956
83,21,16,Jits_ISO_5,2,5,56,103,2405757240
83,21,16,Jits_ISO_5,3,5,63,98,2405787140
83,21,16,Jits_ISO_5,0,5,56,103,2406196584
83,21,16,Jits_ISO_5,1,5,80,127,2406199724
83,21,16,Jits_ISO_5,2,1,48,62,2406223688
83,21,16,Jits_ISO_5,3,5,63,98,2406236388
83,21,16,Jits_ISO_5,0,1,48,68,2406703396
83,21,16,Jits_ISO_5,1,5,56,103,2406727056
83,21,16,Jits_ISO_5,2,5,63,98,2406756656
83,21,16,Jits_ISO_5,3,5,80,127,2406767220
83,21,16,Jits_ISO_5,0,5,63,98,2407237060
83,21,16,Jits_ISO_5,1,1,48,62,2407243020
83,21,16,Jits_ISO_5,2,5,80,127,2407247248
83,21,16,Jits_ISO_5,3,5,56,103,2407256324
83,21,16,Jits_ISO_5,0,5,80,127,2407686644
83,21,16,Jits_ISO_5,1,5,56,103,2407736616
83,21,16,Jits_ISO_5,2,5,63,98,2407739760
83,21,16,Jits_ISO_5,3,1,48,76,2407745060
83,21,16,Jits_ISO_5,0,1,48,77,2408207552
83,21,16,Jits_ISO_5,1,5,56,103,2408217088
83,21,16,Jits_ISO_5,2,5,80,127,2408237396
83,21,16,Jits_ISO_5,3,5,63,98,2408246620
83,21,16,Jits_ISO_5,0,5,63,98,2408697272
83,21,16,Jits_ISO_5,1,1,48,73,2408705792
83,21,16,Jits_ISO_5,2,5,56,103,2408727012
83,21,16,Jits_ISO_5,3,5,80,127,2408747248
83,21,16,Jits_ISO_5,0,1,48,80,2409154872
83,21,16,Jits_ISO_5,1,5,56,103,2409207112
83,21,16,Jits_ISO_5,2,5,80,127,2409217532
83,21,16,Jits_ISO_5,3,5,63,98,2409286996
83,21,16,Jits_ISO_5,0,1,48,73,2409692504
83,21,16,Jits_ISO_5,1,5,63,98,2409696732
83,21,16,Jits_ISO_5,2,5,80,127,2409736520
83,21,16,Jits_ISO_5,3,5,56,103,2409776456
83,21,16,Jits_ISO_5,0,5,56,103,2410206736
83,21,16,Jits_ISO_5,1,5,63,98,2410216856
83,21,16,Jits_ISO_5,2,5,80,127,2410237240
83,21,16,Jits_ISO_5,3,1,48,64,2410270248
83,21,16,Jits_ISO_5,0,5,63,98,2410747164
83,21,16,Jits_ISO_5,1,1,48,77,2410761888
83,21,16,Jits_ISO_5,2,5,80,127,2410766940
83,21,16,Jits_ISO_5,3,5,56,103,2410787100
83,21,16,Jits_ISO_5,0,5,56,103,2411186520
83,21,16,Jits_ISO_5,1,5,80,127,2411266460
83,21,16,Jits_ISO_5,2,5,63,98,2411276584
83,21,16,Jits_ISO_5,3,1,48,73,2411291528
83,21,16,Jits_ISO_5,0,5,80,127,2411727176
83,21,16,Jits_ISO_5,1,5,63,98,2411736324
83,21,16,Jits_ISO_5,2,5,56,103,2411767044
83,21,16,Jits_ISO_5,3,1,48,67,2411775860
83,21,16,Jits_ISO_5,0,5,63,98,2412186992
83,21,16,Jits_ISO_5,1,5,80,127,2412226928
83,21,16,Jits_ISO_5,2,1,48,62,2412275900
83,21,16,Jits_ISO_5,3,5,56,103,2412287308
83,21,16,Jits_ISO_5,0,5,63,98,2412697132
83,21,16,Jits_ISO_5,1,5,56,103,2412747188
83,21,16,Jits_ISO_5,2,1,48,73,2412752324
83,21,16,Jits_ISO_5,3,5,80,127,2412776928
83,21,16,Jits_ISO_5,0,1,48,84,2413183940
83,21,16,Jits_ISO_5,1,5,80,127,2413207128
83,21,16,Jits_ISO_5,2,5,63,98,2413217100
83,21,16,Jits_ISO_5,3,5,56,103,2413286908
83,21,16,Jits_ISO_5,0,1,48,97,2413697472
83,21,16,Jits_ISO_5,1,5,80,127,2413777288
83,21,16,Jits_ISO_5,2,5,56,103,2413786436
83,21,16,Jits_ISO_5,3,5,63,98,2413789500
83,21,16,Jits_ISO_5,0,5,56,103,2414216416
83,21,16,Jits_ISO_5,1,5,80,127,2414236948
83,21,16,Jits_ISO_5,2,5,63,98,2414247220
83,21,16,Jits_ISO_5,3,1,48,80,2414266072
83,21,16,Jits_ISO_5,0,5,63,98,2414726500
83,21,16,Jits_ISO_5,1,1,48,100,2414752684
83,21,16,Jits_ISO_5,2,5,56,103,2414766432
83,21,16,Jits_ISO_5,3,5,80,127,2414786888
83,21,16,Jits_ISO_5,0,5,63,98,2415227220
83,21,16,Jits_ISO_5,1,1,48,70,2415247724
83,21,16,Jits_ISO_5,2,5,56,103,2415286776
83,21,16,Jits_ISO_5,3,5,80,127,2415289992
83,21,16,Jits_ISO_5,0,5,56,103,2415686944
83,21,16,Jits_ISO_5,1,5,80,127,2415706576
83,21,16,Jits_ISO_5,2,5,63,98,2415746292
83,21,16,Jits_ISO_5,3,1,48,81,2415773076
83,21,16,Jits_ISO_5,0,5,56,103,2416216508
83,21,16,Jits_ISO_5,1,1,48,73,2416223964
83,21,16,Jits_ISO_5,2,5,63,98,2416236812
83,21,16,Jits_ISO_5,3,5,80,127,2416247156
83,21,16,Jits_ISO_5,0,5,80,127,2416686488
83,21,16,Jits_ISO_5,1,5,56,103,2416717308
83,21,16,Jits_ISO_5,2,1,48,70,2416731516
83,21,16,Jits_ISO_5,3,5,63,98,2416757240
83,21,16,Jits_ISO_5,0,1,48,72,2417186352
83,21,16,Jits_ISO_5,1,5,80,127,2417197388
83,21,16,Jits_ISO_5,2,5,56,103,2417217024
83,21,16,Jits_ISO_5,3,5,63,98,2417277188
83,21,16,Jits_ISO_5,0,5,56,103,2417707440
83,21,16,Jits_ISO_5,1,1,48,72,2417712504
83,21,16,Jits_ISO_5,2,5,80,127,2417726920
83,21,16,Jits_ISO_5,3,5,63,98,2417787108
83,21,16,Jits_ISO_5,0,5,80,127,2418186732
83,21,16,Jits_ISO_5,1,5,56,103,2418196924
83,21,16,Jits_ISO_5,2,5,63,98,2418236860
83,21,16,Jits_ISO_5,3,1,48,76,2418246828
83,21,16,Jits_ISO_5,0,1,48,73,2418683880
83,21,16,Jits_ISO_5,1,5,63,98,2418687216
83,21,16,Jits_ISO_5,2,5,56,103,2418727300
83,21,16,Jits_ISO_5,3,5,80,127,2418730368
83,21,16,Jits_ISO_5,0,1,48,79,2419204304
83,21,16,Jits_ISO_5,1,5,63,98,2419206416
83,21,16,Jits_ISO_5,2,5,80,127,2419246356
83,21,16,Jits_ISO_5,3,5,56,103,2419277100
83,21,16,Jits_ISO_5,0,5,56,103,2419696944
83,21,16,Jits_ISO_5,1,5,63,98,2419707436
83,21,16,Jits_ISO_5,2,1,48,65,2419717452
83,21,16,Jits_ISO_5,3,5,80,127,2419736952
83,21,16,Jits_ISO_5,0,5,80,127,2420186424
83,21,16,Jits_ISO_5,1,1,48,73,2420192684
83,21,16,Jits_ISO_5,2,5,63,98,2420257068
83,21,16,Jits_ISO_5,3,5,56,103,2420267412
83,21,16,Jits_ISO_5,0,5,63,98,2420687292
83,21,16,Jits_ISO_5,1,1,48,70,2420710492
83,21,16,Jits_ISO_5,2,5,56,103,2420756892
83,21,16,Jits_ISO_5,3,5,80,127,2420767236
83,21,16,Jits_ISO_5,0,5,63,98,2421186956
83,21,16,Jits_ISO_5,1,5,56,103,2421207264
83,21,16,Jits_ISO_5,2,1,48,60,2421209932
83,21,16,Jits_ISO_5,3,5,80,127,2421247344
83,21,16,Jits_ISO_5,0,5,56,103,2421696876
83,21,16,Jits_ISO_5,1,5,63,98,2421707068
83,21,16,Jits_ISO_5,2,1,48,71,2421712208
83,21,16,Jits_ISO_5,3,5,80,127,2421787076
83,21,16,Jits_ISO_5,0,5,63,98,2422187332
83,21,16,Jits_ISO_5,1,5,56,103,2422217008
83,21,16,Jits_ISO_5,2,1,48,71,2422230908
83,21,16,Jits_ISO_5,3,5,80,127,2422256860
83,21,16,Jits_ISO_5,0,5,56,103,2422687064
83,21,16,Jits_ISO_5,1,1,48,69,2422721872
83,21,16,Jits_ISO_5,2,5,63,98,2422727068
83,21,16,Jits_ISO_5,3,5,80,127,2422766932
83,21,16,Jits_ISO_5,0,5,80,127,2423186960
83,21,16,Jits_ISO_5,1,1,48,61,2423210680
83,21,16,Jits_ISO_5,2,5,56,103,2423266820
83,21,16,Jits_ISO_5,3,5,63,98,2423276868
83,21,16,Jits_ISO_5,0,1,48,69,2423700836
83,21,16,Jits_ISO_5,1,5,56,103,2423726332
83,21,16,Jits_ISO_5,2,5,63,98,2423729476
83,21,16,Jits_ISO_5,3,5,80,127,2423736828
83,21,16,Jits_ISO_5,0,1,48,87,2424205740
83,21,16,Jits_ISO_5,1,5,56,103,2424246740
83,21,16,Jits_ISO_5,2,5,63,98,2424267048
83,21,16,Jits_ISO_5,3,5,80,127,2424277320
83,21,16,Jits_ISO_5,0,5,63,98,2424706552
83,21,16,Jits_ISO_5,1,5,80,127,2424716896
83,21,16,Jits_ISO_5,2,1,48,77,2424736076
83,21,16,Jits_ISO_5,3,5,56,103,2424737424
83,21,16,Jits_ISO_5,0,5,63,98,2425207040
83,21,16,Jits_ISO_5,1,1,48,90,2425208004
83,21,16,Jits_ISO_5,2,5,56,103,2425286972
83,21,16,Jits_ISO_5,3,5,80,127,2425289964
83,21,16,Jits_ISO_5,0,5,63,98,2425706764
83,21,16,Jits_ISO_5,1,5,56,103,2425727224
83,21,16,Jits_ISO_5,2,1,48,63,2425737836
83,21,16,Jits_ISO_5,3,5,80,127,2425756964
83,21,16,Jits_ISO_5,0,1,48,79,2426197400
83,21,16,Jits_ISO_5,1,5,56,103,2426206712
83,21,16,Jits_ISO_5,2,5,63,98,2426227096
83,21,16,Jits_ISO_5,3,5,80,127,2426237292
83,21,16,Jits_ISO_5,0,1,48,70,2426683460
83,21,16,Jits_ISO_5,1,5,56,103,2426736936
83,21,16,Jits_ISO_5,2,5,63,98,2426766760
83,21,16,Jits_ISO_5,3,5,80,127,2426769900
83,21,16,Jits_ISO_5,0,1,48,64,2427183188
83,21,16,Jits_ISO_5,1,5,56,103,2427186668
83,21,16,Jits_ISO_5,2,5,63,98,2427226704
83,21,16,Jits_ISO_5,3,5,80,127,2427286852
83,21,16,Jits_ISO_5,0,5,56,103,2427706936
83,21,16,Jits_ISO_5,1,1,48,74,2427714096
83,21,16,Jits_ISO_5,2,5,63,98,2427717276
83,21,16,Jits_ISO_5,3,5,80,127,2427777292
83,21,16,Jits_ISO_5,0,5,56,103,2428206660
83,21,16,Jits_ISO_5,1,5,80,127,2428226848
83,21,16,Jits_ISO_5,2,1,48,62,2428242028
83,21,16,Jits_ISO_5,3,5,63,98,2428256740
83,21,16,Jits_ISO_5,0,5,80,127,2428707232
83,21,16,Jits_ISO_5,1,1,48,59,2428715232
83,21,16,Jits_ISO_5,2,5,56,103,2428717348
83,21,16,Jits_ISO_5,3,5,63,98,2428736836
83,21,16,Jits_ISO_5,0,1,48,53,2429179372
83,21,16,Jits_ISO_5,1,5,63,98,2429196780
83,21,16,Jits_ISO_5,2,5,80,127,2429276732
83,21,16,Jits_ISO_5,3,5,56,103,2429286928
83,21,16,Jits_ISO_5,0,5,80,127,2429756760
83,21,16,Jits_ISO_5,1,5,56,103,2429777240
83,21,16,Jits_ISO_5,2,5,63,98,2429780232
83,21,16,Jits_ISO_5,3,1,48,72,2429782248
83,21,16,Jits_ISO_5,0,5,63,98,2430226760
83,21,16,Jits_ISO_5,1,5,80,127,2430230048
83,21,16,Jits_ISO_5,2,5,56,103,2430287168
83,21,16,Jits_ISO_5,3,1,48,63,2430302644
83,21,16,Jits_ISO_5,0,5,56,103,2430707008
83,21,16,Jits_ISO_5,1,5,80,127,2430717276
83,21,16,Jits_ISO_5,2,1,48,65,2430752084
83,21,16,Jits_ISO_5,3,5,63,98,2430757280
83,21,16,Jits_ISO_5,0,5,56,103,2431187352
83,21,16,Jits_ISO_5,1,1,48,66,2431202152
83,21,16,Jits_ISO_5,2,5,63,98,2431246760
83,21,16,Jits_ISO_5,3,5,80,127,2431256956
83,21,16,Jits_ISO_5,0,5,63,98,2431697364
83,21,16,Jits_ISO_5,1,1,48,65,2431731644
83,21,16,Jits_ISO_5,2,5,80,127,2431737144
83,21,16,Jits_ISO_5,3,5,56,103,2431777008
83,21,16,Jits_ISO_5,0,5,56,103,2432196876
83,21,16,Jits_ISO_5,1,1,48,66,2432204628
83,21,16,Jits_ISO_5,2,5,63,98,2432276732
83,21,16,Jits_ISO_5,3,5,80,127,2432280100
83,21,16,Jits_ISO_5,0,9999,9999,9999,2372974684
83,21,16,Jits_ISO_5,1,9999,9999,9999,2373474404
83,21,16,Jits_ISO_5,2,9999,9999,9999,2373974124
83,21,16,Jits_ISO_5,3,9999,9999,9999,2374474824
83,21,16,Jits_ISO_5,4,9999,9999,9999,2374974540
83,21,16,Jits_ISO_5,5,9999,9999,9999,2375474272
83,21,16,Jits_ISO_5,6,9999,9999,9999,2375975028
83,21,16,Jits_ISO_5,7,9999,9999,9999,2376474708
83,21,16,Jits_ISO_5,8,9999,9999,9999,2376974456
83,21,16,Jits_ISO_5,9,9999,9999,9999,2377474128
83,21,16,Jits_ISO_5,10,9999,9999,9999,2377974848
83,21,16,Jits_ISO_5,11,9999,9999,9999,2378474596
83,21,16,Jits_ISO_5,12,9999,9999,9999,2378974328
83,21,16,Jits_ISO_5,13,9999,9999,9999,2379475028
83,21,16,Jits_ISO_5,14,9999,9999,9999,2379974764
83,21,16,Jits_ISO_5,15,9999,9999,9999,2380474436
83,21,16,Jits_ISO_5,16,9999,9999,9999,2380974180
83,21,16,Jits_ISO_5,17,9999,9999,9999,2381474888
83,21,16,Jits_ISO_5,18,9999,9999,9999,2381974636
83,21,16,Jits_ISO_5,19,9999,9999,9999,2382474308
83,21,16,Jits_ISO_5,20,9999,9999,9999,2382975028
83,21,16,Jits_ISO_5,21,9999,9999,9999,2383474780
83,21,16,Jits_ISO_5,22,9999,9999,9999,2383974524
83,21,16,Jits_ISO_5,23,9999,9999,9999,2384474200
83,21,16,Jits_ISO_5,24,9999,9999,9999,2384974920
83,21,16,Jits_ISO_5,25,9999,9999,9999,2385474636
83,21,16,Jits_ISO_5,26,9999,9999,9999,2385974384
83,21,16,Jits_ISO_5,27,9999,9999,9999,2386475080
83,21,16,Jits_ISO_5,28,9999,9999,9999,2386985016
83,21,16,Jits_ISO_5,29,9999,9999,9999,2387484748
83,21,16,Jits_ISO_5,30,9999,9999,9999,2387984496
83,21,16,Jits_ISO_5,31,9999,9999,9999,2388484172
83,21,16,Jits_ISO_5,32,9999,9999,9999,2388984888
83,21,16,Jits_ISO_5,33,9999,9999,9999,2389484636
83,21,16,Jits_ISO_5,34,9999,9999,9999,2389984308
83,21,16,Jits_ISO_5,35,9999,9999,9999,2390485044
83,21,16,Jits_ISO_5,36,9999,9999,9999,2390984768
83,21,16,Jits_ISO_5,37,9999,9999,9999,2391484504
83,21,16,Jits_ISO_5,38,9999,9999,9999,2391984252
83,21,16,Jits_ISO_5,39,9999,9999,9999,2392484960
83,21,16,Jits_ISO_5,40,9999,9999,9999,2392984696
83,21,16,Jits_ISO_5,41,9999,9999,9999,2393484356
83,21,16,Jits_ISO_5,42,9999,9999,9999,2393984100
83,21,16,Jits_ISO_5,43,9999,9999,9999,2394484804
83,21,16,Jits_ISO_5,44,9999,9999,9999,2394984536
83,21,16,Jits_ISO_5,45,9999,9999,9999,2395484212
83,21,16,Jits_ISO_5,46,9999,9999,9999,2395984992
83,21,16,Jits_ISO_5,47,9999,9999,9999,2396484656
83,21,16,Jits_ISO_5,48,9999,9999,9999,2396984440
83,21,16,Jits_ISO_5,49,9999,9999,9999,2397484120
83,21,16,Jits_ISO_5,50,9999,9999,9999,2397984820
83,21,16,Jits_ISO_5,51,9999,9999,9999,2398484568
83,21,16,Jits_ISO_5,52,9999,9999,9999,2398984248
83,21,16,Jits_ISO_5,53,9999,9999,9999,2399485048
83,21,16,Jits_ISO_5,54,9999,9999,9999,2399984708
83,21,16,Jits_ISO_5,55,9999,9999,9999,2400484460
83,21,16,Jits_ISO_5,56,9999,9999,9999,2400984132
83,21,16,Jits_ISO_5,57,9999,9999,9999,2401484920
83,21,16,Jits_ISO_5,58,9999,9999,9999,2401984584
83,21,16,Jits_ISO_5,59,9999,9999,9999,2402484300
83,21,16,Jits_ISO_5,60,9999,9999,9999,2402985024
83,21,16,Jits_ISO_5,61,9999,9999,9999,2403484752
83,21,16,Jits_ISO_5,62,9999,9999,9999,2403984500
83,21,16,Jits_ISO_5,63,9999,9999,9999,2404484172
83,21,16,Jits_ISO_5,64,9999,9999,9999,2404984956
83,21,16,Jits_ISO_5,65,9999,9999,9999,2405484600
83,21,16,Jits_ISO_5,66,9999,9999,9999,2405984348
83,21,16,Jits_ISO_5,67,9999,9999,9999,2406485056
83,21,16,Jits_ISO_5,68,9999,9999,9999,2406984808
83,21,16,Jits_ISO_5,69,9999,9999,9999,2407484516
83,21,16,Jits_ISO_5,70,9999,9999,9999,2407984232
83,21,16,Jits_ISO_5,71,9999,9999,9999,2408484952
83,21,16,Jits_ISO_5,72,9999,9999,9999,2408984684
83,21,16,Jits_ISO_5,73,9999,9999,9999,2409484344
83,21,16,Jits_ISO_5,74,9999,9999,9999,2409984080
83,21,16,Jits_ISO_5,75,9999,9999,9999,2410484856
83,21,16,Jits_ISO_5,76,9999,9999,9999,2410984536
83,21,16,Jits_ISO_5,77,9999,9999,9999,2411484272
83,21,16,Jits_ISO_5,78,9999,9999,9999,2411984996
83,21,16,Jits_ISO_5,79,9999,9999,9999,2412484668
83,21,16,Jits_ISO_5,80,9999,9999,9999,2412984400
83,21,16,Jits_ISO_5,81,9999,9999,9999,2413484136
83,21,16,Jits_ISO_5,82,9999,9999,9999,2413984840
83,21,16,Jits_ISO_5,83,9999,9999,9999,2414484572
83,21,16,Jits_ISO_5,84,9999,9999,9999,2414984248
83,21,16,Jits_ISO_5,85,9999,9999,9999,2415485036
83,21,16,Jits_ISO_5,86,9999,9999,9999,2415984692
83,21,16,Jits_ISO_5,87,9999,9999,9999,2416484444
83,21,16,Jits_ISO_5,88,9999,9999,9999,2416984116
83,21,16,Jits_ISO_5,89,9999,9999,9999,2417484880
83,21,16,Jits_ISO_5,90,9999,9999,9999,2417984592
83,21,16,Jits_ISO_5,91,9999,9999,9999,2418484328
83,21,16,Jits_ISO_5,92,9999,9999,9999,2418985036
83,21,16,Jits_ISO_5,93,9999,9999,9999,2419484772
83,21,16,Jits_ISO_5,94,9999,9999,9999,2419984500
83,21,16,Jits_ISO_5,95,9999,9999,9999,2420484176
83,21,16,Jits_ISO_5,96,9999,9999,9999,2420984896
83,21,16,Jits_ISO_5,97,9999,9999,9999,2421484628
83,21,16,Jits_ISO_5,98,9999,9999,9999,2421984364
83,21,16,Jits_ISO_5,99,9999,9999,9999,2422485080
83,21,16,Jits_ISO_5,100,9999,9999,9999,2422984812
83,21,16,Jits_ISO_5,101,9999,9999,9999,2423484488
83,21,16,Jits_ISO_5,102,9999,9999,9999,2423984228
83,21,16,Jits_ISO_5,103,9999,9999,9999,2424484940
83,21,16,Jits_ISO_5,104,9999,9999,9999,2424984676
83,21,16,Jits_ISO_5,105,9999,9999,9999,2425484404
83,21,16,Jits_ISO_5,106,9999,9999,9999,2425984064
83,21,16,Jits_ISO_5,107,9999,9999,9999,2426484840
83,21,16,Jits_ISO_5,108,9999,9999,9999,2426984568
83,21,16,Jits_ISO_5,109,9999,9999,9999,2427484228
83,21,16,Jits_ISO_5,110,9999,9999,9999,2427984984
83,21,16,Jits_ISO_5,111,9999,9999,9999,2428484660
83,21,16,Jits_ISO_5,112,9999,9999,9999,2428984384
83,21,16,Jits_ISO_5,113,9999,9999,9999,2429484128
83,21,16,Jits_ISO_5,114,9999,9999,9999,2429984832
83,21,16,Jits_ISO_5,115,9999,9999,9999,2430484572
83,21,16,Jits_ISO_5,116,9999,9999,9999,2430984304
83,21,16,Jits_ISO_5,117,9999,9999,9999,2431485028
83,21,16,Jits_ISO_5,118,9999,9999,9999,2431984704
83,21,16,Jits_ISO_5,119,9999,9999,9999,2432484432
83,22,3,ISIP_8,0,5,42,127,2503506292
83,22,3,ISIP_8,1,5,42,127,2504306348
83,22,3,ISIP_8,2,5,42,127,2505105732
83,22,3,ISIP_8,3,1,48,62,2505125156
83,22,3,ISIP_8,4,1,48,58,2505876924
83,22,3,ISIP_8,5,5,42,127,2505905456
83,22,3,ISIP_8,6,1,48,62,2506687880
83,22,3,ISIP_8,7,5,42,127,2506706388
83,22,3,ISIP_8,8,1,48,51,2507446400
83,22,3,ISIP_8,9,5,42,127,2507506268
83,22,3,ISIP_8,10,1,48,62,2508280240
83,22,3,ISIP_8,11,5,42,127,2508305704
83,22,3,ISIP_8,12,5,42,127,2509105520
83,22,3,ISIP_8,13,1,48,58,2509116644
83,22,3,ISIP_8,14,5,42,127,2509906252
83,22,3,ISIP_8,15,1,48,56,2509949164
83,22,3,ISIP_8,16,5,42,127,2510705984
83,22,3,ISIP_8,17,1,48,57,2510730120
83,22,3,ISIP_8,18,5,42,127,2511505716
83,22,3,ISIP_8,19,1,48,65,2511521928
83,22,3,ISIP_8,20,5,42,127,2512305528
83,22,3,ISIP_8,21,1,48,60,2512310888
83,22,3,ISIP_8,22,5,42,127,2513106160
83,22,3,ISIP_8,23,1,48,63,2513121544
83,22,3,ISIP_8,24,5,42,127,2513906116
83,22,3,ISIP_8,25,1,48,68,2513931672
83,22,3,ISIP_8,26,1,48,67,2514702964
83,22,3,ISIP_8,27,5,42,127,2514705768
83,22,3,ISIP_8,28,1,48,77,2515488260
83,22,3,ISIP_8,29,5,42,127,2515505500
83,22,3,ISIP_8,30,1,48,74,2516297664
83,22,3,ISIP_8,31,5,42,127,2516306228
83,22,3,ISIP_8,32,1,48,62,2517070104
83,22,3,ISIP_8,33,5,42,127,2517106040
83,22,3,ISIP_8,34,1,48,75,2517906148
83,22,3,ISIP_8,35,5,42,127,2517907340
83,22,3,ISIP_8,36,1,48,78,2518663584
83,22,3,ISIP_8,37,5,42,127,2518705504
83,22,3,ISIP_8,38,1,48,73,2519488748
83,22,3,ISIP_8,39,5,42,127,2519506208
83,22,3,ISIP_8,40,1,48,67,2520301048
83,22,3,ISIP_8,41,5,42,127,2520305944
83,22,3,ISIP_8,42,5,42,127,2521105760
83,22,3,ISIP_8,43,1,48,73,2521122712
83,22,3,ISIP_8,44,5,42,127,2521905416
83,22,3,ISIP_8,45,1,48,70,2521920076
83,22,3,ISIP_8,46,1,48,70,2522686060
83,22,3,ISIP_8,47,5,42,127,2522706292
83,22,3,ISIP_8,48,1,48,64,2523459164
83,22,3,ISIP_8,49,5,42,127,2523506024
83,22,3,ISIP_8,50,1,48,77,2524270120
83,22,3,ISIP_8,51,5,42,127,2524305832
83,22,3,ISIP_8,52,5,42,127,2525105500
83,22,3,ISIP_8,53,1,48,59,2525113628
83,22,3,ISIP_8,54,5,42,127,2525906280
83,22,3,ISIP_8,55,1,48,67,2525913060
83,22,3,ISIP_8,56,1,48,60,2526705184
83,22,3,ISIP_8,57,5,42,127,2526706904
83,22,3,ISIP_8,58,1,48,61,2527542596
83,22,3,ISIP_8,59,1,48,67,2528355812
83,22,3,ISIP_8,60,1,48,59,2529163992
83,22,3,ISIP_8,61,1,48,59,2529970976
83,22,3,ISIP_8,62,1,48,59,2530831068
83,22,3,ISIP_8,63,1,48,59,2531631176
83,22,3,ISIP_8,64,1,48,59,2532446856
83,22,3,ISIP_8,65,1,48,67,2533239480
83,22,3,ISIP_8,66,1,48,74,2534085816
83,22,3,ISIP_8,67,1,48,63,2534901620
83,22,3,ISIP_8,68,1,48,68,2535689756
83,22,3,ISIP_8,69,1,48,67,2536538952
83,22,3,ISIP_8,70,1,48,67,2537324244
83,22,3,ISIP_8,71,1,48,73,2538109392
83,22,3,ISIP_8,72,1,48,68,2538943972
83,22,3,ISIP_8,73,1,48,65,2539735996
83,22,3,ISIP_8,74,1,48,65,2540580908
83,22,3,ISIP_8,75,1,48,65,2541410432
83,22,3,ISIP_8,76,1,48,66,2542186524
83,22,3,ISIP_8,77,1,48,72,2542988648
83,22,3,ISIP_8,78,1,48,69,2543818440
83,22,3,ISIP_8,79,1,48,78,2544614508
83,22,3,ISIP_8,80,1,48,66,2545437196
83,22,3,ISIP_8,81,1,48,69,2546217924
83,22,3,ISIP_8,82,1,48,64,2547044908
83,22,3,ISIP_8,83,1,48,66,2547845756
83,22,3,ISIP_8,84,1,48,70,2548636508
83,22,3,ISIP_8,85,1,48,60,2549430852
83,22,3,ISIP_8,86,1,48,70,2550203508
83,22,3,ISIP_8,87,1,48,69,2551027544
83,22,3,ISIP_8,88,1,48,65,2551812536
83,22,3,ISIP_8,89,1,48,63,2552612116
83,22,3,ISIP_8,90,1,48,79,2553462884
83,22,3,ISIP_8,91,1,48,72,2554297468
83,22,3,ISIP_8,92,1,48,62,2555097944
83,22,3,ISIP_8,93,1,48,62,2555913456
83,22,3,ISIP_8,94,1,48,71,2556772220
83,22,3,ISIP_8,95,1,48,65,2557533436
83,22,3,ISIP_8,96,1,48,64,2558317080
83,22,3,ISIP_8,97,1,48,68,2559096316
83,22,3,ISIP_8,98,1,48,68,2559938228
83,22,3,ISIP_8,99,1,48,79,2560729136
83,22,3,ISIP_8,100,1,48,64,2561577704
83,22,3,ISIP_8,101,1,48,65,2562377760
83,22,3,ISIP_8,102,1,48,67,2563238596
83,22,3,ISIP_8,103,1,48,71,2564076628
83,22,3,ISIP_8,104,1,48,65,2564886148
83,22,3,ISIP_8,105,1,48,78,2565693460
83,22,3,ISIP_8,106,1,48,65,2566532456
83,22,3,ISIP_8,107,1,48,65,2567311840
83,22,3,ISIP_8,108,1,48,75,2568209928
83,22,3,ISIP_8,109,1,48,73,2569025616
83,22,3,ISIP_8,110,1,48,84,2569893184
83,22,3,ISIP_8,111,1,48,62,2570710504
83,22,3,ISIP_8,112,1,48,78,2571567976
83,22,3,ISIP_8,113,1,48,76,2572383440
83,22,3,ISIP_8,114,1,48,62,2573241808
83,22,3,ISIP_8,115,1,48,65,2574104216
83,22,3,ISIP_8,116,1,48,66,2574890412
83,22,3,ISIP_8,117,1,48,60,2575700560
83,22,3,ISIP_8,118,1,48,65,2576556760
83,22,3,ISIP_8,119,1,48,65,2577345872
83,22,3,ISIP_8,120,1,48,57,2578145528
83,22,3,ISIP_8,121,1,48,72,2578955352
83,22,3,ISIP_8,122,1,48,77,2579811652
83,22,3,ISIP_8,123,1,48,66,2580589912
83,22,3,ISIP_8,124,1,48,72,2581451272
83,22,3,ISIP_8,125,1,48,73,2582284516
83,22,3,ISIP_8,126,1,48,71,2583160040
83,22,3,ISIP_8,127,1,48,69,2583995448
83,22,3,ISIP_8,128,1,48,64,2584861296
83,22,3,ISIP_8,129,1,48,81,2585644496
83,22,3,ISIP_8,130,1,48,68,2586493016
83,22,3,ISIP_8,131,1,48,71,2587279280
83,22,3,ISIP_8,132,1,48,62,2588124788
83,22,3,ISIP_8,133,1,48,73,2588948528
83,22,3,ISIP_8,134,1,48,65,2589756884
83,22,3,ISIP_8,135,1,48,60,2590567304
83,22,3,ISIP_8,136,1,48,76,2591436744
83,22,3,ISIP_8,137,1,48,81,2592267820
83,22,3,ISIP_8,138,1,48,62,2593106108
83,22,3,ISIP_8,139,1,48,88,2593962232
83,22,3,ISIP_8,140,1,48,66,2594783876
83,22,3,ISIP_8,141,1,48,72,2595546056
83,22,3,ISIP_8,142,1,48,69,2596401364
83,22,3,ISIP_8,143,1,48,74,2597176632
83,22,3,ISIP_8,144,1,48,62,2598002240
83,22,3,ISIP_8,145,1,48,76,2598821944
83,22,3,ISIP_8,146,1,48,54,2599601924
83,22,3,ISIP_8,147,1,48,73,2600475856
83,22,3,ISIP_8,148,1,48,70,2601320860
83,22,3,ISIP_8,149,1,48,67,2602081992
83,22,3,ISIP_8,150,1,48,59,2602977688
83,22,3,ISIP_8,151,1,48,69,2603814884
83,22,3,ISIP_8,152,1,48,83,2604692656
83,22,3,ISIP_8,153,1,48,67,2605510484
83,22,3,ISIP_8,154,1,48,67,2606326148
83,22,3,ISIP_8,155,1,48,68,2607152804
83,22,3,ISIP_8,156,1,48,86,2607972976
83,22,3,ISIP_8,157,1,48,79,2608795820
83,22,3,ISIP_8,158,1,48,89,2609600712
83,22,3,ISIP_8,159,1,48,79,2610425872
83,22,3,ISIP_8,160,1,48,73,2611257260
83,22,3,ISIP_8,161,1,48,64,2612038892
83,22,3,ISIP_8,162,1,48,73,2612866148
83,22,3,ISIP_8,163,1,48,76,2613656976
83,22,3,ISIP_8,164,1,48,80,2614467100
83,22,3,ISIP_8,165,1,48,58,2615233316
83,22,3,ISIP_8,166,1,48,81,2616110912
83,22,3,ISIP_8,167,1,48,74,2616982700
83,22,3,ISIP_8,168,1,48,78,2617754448
83,22,3,ISIP_8,169,1,48,68,2618532788
83,22,3,ISIP_8,170,1,48,67,2619415468
83,22,3,ISIP_8,171,1,48,70,2620279548
83,22,3,ISIP_8,172,1,48,61,2621166432
83,22,3,ISIP_8,173,1,48,70,2622024300
83,22,3,ISIP_8,174,1,48,70,2622887684
83,22,3,ISIP_8,0,9999,9999,9999,2503503928
83,22,3,ISIP_8,1,9999,9999,9999,2504303684
83,22,3,ISIP_8,2,9999,9999,9999,2505103440
83,22,3,ISIP_8,3,9999,9999,9999,2505903168
83,22,3,ISIP_8,4,9999,9999,9999,2506703948
83,22,3,ISIP_8,5,9999,9999,9999,2507503680
83,22,3,ISIP_8,6,9999,9999,9999,2508303416
83,22,3,ISIP_8,7,9999,9999,9999,2509103156
83,22,3,ISIP_8,8,9999,9999,9999,2509903960
83,22,3,ISIP_8,9,9999,9999,9999,2510703692
83,22,3,ISIP_8,10,9999,9999,9999,2511503428
83,22,3,ISIP_8,11,9999,9999,9999,2512303160
83,22,3,ISIP_8,12,9999,9999,9999,2513103944
83,22,3,ISIP_8,13,9999,9999,9999,2513903676
83,22,3,ISIP_8,14,9999,9999,9999,2514703476
83,22,3,ISIP_8,15,9999,9999,9999,2515503208
83,22,3,ISIP_8,16,9999,9999,9999,2516303940
83,22,3,ISIP_8,17,9999,9999,9999,2517103672
83,22,3,ISIP_8,18,9999,9999,9999,2517903412
83,22,3,ISIP_8,19,9999,9999,9999,2518703216
83,22,3,ISIP_8,20,9999,9999,9999,2519503920
83,22,3,ISIP_8,21,9999,9999,9999,2520303728
83,22,3,ISIP_8,22,9999,9999,9999,2521103468
83,22,3,ISIP_8,23,9999,9999,9999,2521903200
83,22,3,ISIP_8,24,9999,9999,9999,2522703928
83,22,3,ISIP_8,25,9999,9999,9999,2523503732
83,22,3,ISIP_8,26,9999,9999,9999,2524303468
83,22,3,ISIP_8,27,9999,9999,9999,2525103208
83,22,3,ISIP_8,28,9999,9999,9999,2525903988
83,22,3,ISIP_8,29,9999,9999,9999,2526703724
83,22,3,ISIP_8,30,9999,9999,9999,2527503456
83,22,3,ISIP_8,31,9999,9999,9999,2528303184
83,22,3,ISIP_8,32,9999,9999,9999,2529103988
83,22,3,ISIP_8,33,9999,9999,9999,2529903716
83,22,3,ISIP_8,34,9999,9999,9999,2530703448
83,22,3,ISIP_8,35,9999,9999,9999,2531503176
83,22,3,ISIP_8,36,9999,9999,9999,2532303952
83,22,3,ISIP_8,37,9999,9999,9999,2533103680
83,22,3,ISIP_8,38,9999,9999,9999,2533903412
83,22,3,ISIP_8,39,9999,9999,9999,2534703216
83,22,3,ISIP_8,40,9999,9999,9999,2535503940
83,22,3,ISIP_8,41,9999,9999,9999,2536303668
83,22,3,ISIP_8,42,9999,9999,9999,2537103472
83,22,3,ISIP_8,43,9999,9999,9999,2537903204
83,22,3,ISIP_8,44,9999,9999,9999,2538703980
83,22,3,ISIP_8,45,9999,9999,9999,2539503708
83,22,3,ISIP_8,46,9999,9999,9999,2540303436
83,22,3,ISIP_8,47,9999,9999,9999,2541103168
83,22,3,ISIP_8,48,9999,9999,9999,2541903964
83,22,3,ISIP_8,49,9999,9999,9999,2542703696
83,22,3,ISIP_8,50,9999,9999,9999,2543503424
83,22,3,ISIP_8,51,9999,9999,9999,2544303156
83,22,3,ISIP_8,52,9999,9999,9999,2545103928
83,22,3,ISIP_8,53,9999,9999,9999,2545903732
83,22,3,ISIP_8,54,9999,9999,9999,2546703460
83,22,3,ISIP_8,55,9999,9999,9999,2547503188
83,22,3,ISIP_8,56,9999,9999,9999,2548303992
83,22,3,ISIP_8,57,9999,9999,9999,2549103720
83,22,3,ISIP_8,58,9999,9999,9999,2549903448
83,22,3,ISIP_8,59,9999,9999,9999,2550703176
83,22,3,ISIP_8,60,9999,9999,9999,2551503952
83,22,3,ISIP_8,61,9999,9999,9999,2552303680
83,22,3,ISIP_8,62,9999,9999,9999,2553103412
83,22,3,ISIP_8,63,9999,9999,9999,2553903212
83,22,3,ISIP_8,64,9999,9999,9999,2554703940
83,22,3,ISIP_8,65,9999,9999,9999,2555503668
83,22,3,ISIP_8,66,9999,9999,9999,2556303472
83,22,3,ISIP_8,67,9999,9999,9999,2557103204
83,22,3,ISIP_8,68,9999,9999,9999,2557903980
83,22,3,ISIP_8,69,9999,9999,9999,2558703708
83,22,3,ISIP_8,70,9999,9999,9999,2559503436
83,22,3,ISIP_8,71,9999,9999,9999,2560303168
83,22,3,ISIP_8,72,9999,9999,9999,2561103968
83,22,3,ISIP_8,73,9999,9999,9999,2561903696
83,22,3,ISIP_8,74,9999,9999,9999,2562703424
83,22,3,ISIP_8,75,9999,9999,9999,2563503156
83,22,3,ISIP_8,76,9999,9999,9999,2564303928
83,22,3,ISIP_8,77,9999,9999,9999,2565103732
83,22,3,ISIP_8,78,9999,9999,9999,2565903464
83,22,3,ISIP_8,79,9999,9999,9999,2566703192
83,22,3,ISIP_8,80,9999,9999,9999,2567503992
83,22,3,ISIP_8,81,9999,9999,9999,2568303660
83,22,3,ISIP_8,82,9999,9999,9999,2569103464
83,22,3,ISIP_8,83,9999,9999,9999,2569903196
83,22,3,ISIP_8,84,9999,9999,9999,2570703976
83,22,3,ISIP_8,85,9999,9999,9999,2571503704
83,22,3,ISIP_8,86,9999,9999,9999,2572303436
83,22,3,ISIP_8,87,9999,9999,9999,2573103164
83,22,3,ISIP_8,88,9999,9999,9999,2573903968
83,22,3,ISIP_8,89,9999,9999,9999,2574703696
83,22,3,ISIP_8,90,9999,9999,9999,2575503424
83,22,3,ISIP_8,91,9999,9999,9999,2576303152
83,22,3,ISIP_8,92,9999,9999,9999,2577103932
83,22,3,ISIP_8,93,9999,9999,9999,2577903732
83,22,3,ISIP_8,94,9999,9999,9999,2578703460
83,22,3,ISIP_8,95,9999,9999,9999,2579503188
83,22,3,ISIP_8,96,9999,9999,9999,2580303992
83,22,3,ISIP_8,97,9999,9999,9999,2581103720
83,22,3,ISIP_8,98,9999,9999,9999,2581903448
83,22,3,ISIP_8,99,9999,9999,9999,2582703180
83,22,3,ISIP_8,100,9999,9999,9999,2583503956
83,22,3,ISIP_8,101,9999,9999,9999,2584303684
83,22,3,ISIP_8,102,9999,9999,9999,2585103412
83,22,3,ISIP_8,103,9999,9999,9999,2585903216
83,22,3,ISIP_8,104,9999,9999,9999,2586703944
83,22,3,ISIP_8,105,9999,9999,9999,2587503672
83,22,3,ISIP_8,106,9999,9999,9999,2588303476
83,22,3,ISIP_8,107,9999,9999,9999,2589103204
83,22,3,ISIP_8,108,9999,9999,9999,2589903980
83,22,3,ISIP_8,109,9999,9999,9999,2590703712
83,22,3,ISIP_8,110,9999,9999,9999,2591503456
83,22,3,ISIP_8,111,9999,9999,9999,2592303188
83,22,3,ISIP_8,112,9999,9999,9999,2593103920
83,22,3,ISIP_8,113,9999,9999,9999,2593903720
83,22,3,ISIP_8,114,9999,9999,9999,2594703452
83,22,3,ISIP_8,115,9999,9999,9999,2595503180
83,22,3,ISIP_8,116,9999,9999,9999,2596303956
83,22,3,ISIP_8,117,9999,9999,9999,2597103684
83,22,3,ISIP_8,118,9999,9999,9999,2597903464
83,22,3,ISIP_8,119,9999,9999,9999,2598703196
83,22,3,ISIP_8,120,9999,9999,9999,2599503920
83,22,3,ISIP_8,121,9999,9999,9999,2600303724
83,22,3,ISIP_8,122,9999,9999,9999,2601103452
83,22,3,ISIP_8,123,9999,9999,9999,2601903180
83,22,3,ISIP_8,124,9999,9999,9999,2602703956
83,22,3,ISIP_8,125,9999,9999,9999,2603503684
83,22,3,ISIP_8,126,9999,9999,9999,2604303416
83,22,3,ISIP_8,127,9999,9999,9999,2605103220
83,22,3,ISIP_8,128,9999,9999,9999,2605903944
83,22,3,ISIP_8,129,9999,9999,9999,2606703676
83,22,3,ISIP_8,130,9999,9999,9999,2607503476
83,22,3,ISIP_8,131,9999,9999,9999,2608303208
83,22,3,ISIP_8,132,9999,9999,9999,2609103984
83,22,3,ISIP_8,133,9999,9999,9999,2609903712
83,22,3,ISIP_8,134,9999,9999,9999,2610703440
83,22,3,ISIP_8,135,9999,9999,9999,2611503168
83,22,3,ISIP_8,136,9999,9999,9999,2612303972
83,22,3,ISIP_8,137,9999,9999,9999,2613103700
83,22,3,ISIP_8,138,9999,9999,9999,2613903428
83,22,3,ISIP_8,139,9999,9999,9999,2614703160
83,22,3,ISIP_8,140,9999,9999,9999,2615503936
83,22,3,ISIP_8,141,9999,9999,9999,2616303664
83,22,3,ISIP_8,142,9999,9999,9999,2617103468
83,22,3,ISIP_8,143,9999,9999,9999,2617903196
83,22,3,ISIP_8,144,9999,9999,9999,2618703924
83,22,3,ISIP_8,145,9999,9999,9999,2619503668
83,22,3,ISIP_8,146,9999,9999,9999,2620303472
83,22,3,ISIP_8,147,9999,9999,9999,2621103208
83,22,3,ISIP_8,148,9999,9999,9999,2621903984
83,22,3,ISIP_8,149,9999,9999,9999,2622703712
83,23,5,ISIP_5,0,1,48,16,2644550720
83,23,5,ISIP_5,1,5,42,127,2645051652
83,23,5,ISIP_5,2,5,42,127,2645551348
83,23,5,ISIP_5,3,5,42,127,2646052332
83,23,5,ISIP_5,4,5,42,127,2646551900
83,23,5,ISIP_5,5,5,42,127,2647051764
83,23,5,ISIP_5,6,1,48,62,2647124916
83,23,5,ISIP_5,7,5,42,127,2647552508
83,23,5,ISIP_5,8,1,48,79,2647640104
83,23,5,ISIP_5,9,5,42,127,2648052052
83,23,5,ISIP_5,10,1,48,65,2648148396
83,23,5,ISIP_5,11,5,42,127,2648551752
83,23,5,ISIP_5,12,1,48,65,2648614780
83,23,5,ISIP_5,13,5,42,127,2649051444
83,23,5,ISIP_5,14,1,48,64,2649100788
83,23,5,ISIP_5,15,5,42,127,2649552188
83,23,5,ISIP_5,16,1,48,60,2649582608
83,23,5,ISIP_5,17,5,42,127,2650051880
83,23,5,ISIP_5,18,1,48,63,2650091876
83,23,5,ISIP_5,19,5,42,127,2650551648
83,23,5,ISIP_5,20,1,48,52,2650573992
83,23,5,ISIP_5,21,5,42,127,2651052392
83,23,5,ISIP_5,22,1,48,59,2651071892
83,23,5,ISIP_5,23,5,42,127,2651552084
83,23,5,ISIP_5,24,1,48,62,2651576376
83,23,5,ISIP_5,25,5,42,127,2652051856
83,23,5,ISIP_5,26,1,48,70,2652070828
83,23,5,ISIP_5,27,5,42,127,2652551772
83,23,5,ISIP_5,28,1,48,76,2652582640
83,23,5,ISIP_5,29,5,42,127,2653052292
83,23,5,ISIP_5,30,1,48,81,2653072840
83,23,5,ISIP_5,31,5,42,127,2653551912
83,23,5,ISIP_5,32,1,48,69,2653557880
83,23,5,ISIP_5,33,5,42,127,2654051760
83,23,5,ISIP_5,34,1,48,91,2654079564
83,23,5,ISIP_5,35,1,48,79,2654543556
83,23,5,ISIP_5,36,5,42,127,2654552496
83,23,5,ISIP_5,37,1,48,82,2655042132
83,23,5,ISIP_5,38,5,42,127,2655052116
83,23,5,ISIP_5,39,1,48,72,2655526172
83,23,5,ISIP_5,40,5,42,127,2655551808
83,23,5,ISIP_5,41,5,42,127,2656051784
83,23,5,ISIP_5,42,1,48,77,2656058968
83,23,5,ISIP_5,43,5,42,127,2656552300
83,23,5,ISIP_5,44,1,48,65,2656577284
83,23,5,ISIP_5,45,5,42,127,2657051996
83,23,5,ISIP_5,46,1,48,75,2657089624
83,23,5,ISIP_5,47,5,42,127,2657551688
83,23,5,ISIP_5,48,1,48,62,2657583080
83,23,5,ISIP_5,49,5,42,127,2658051608
83,23,5,ISIP_5,50,1,48,66,2658087192
83,23,5,ISIP_5,51,5,42,127,2658552128
83,23,5,ISIP_5,52,1,48,70,2658566320
83,23,5,ISIP_5,53,5,42,127,2659051820
83,23,5,ISIP_5,54,1,48,77,2659089272
83,23,5,ISIP_5,55,5,42,127,2659551664
83,23,5,ISIP_5,56,1,48,61,2659565256
83,23,5,ISIP_5,57,5,42,127,2660052480
83,23,5,ISIP_5,58,1,48,78,2660076020
83,23,5,ISIP_5,59,1,48,57,2660541136
83,23,5,ISIP_5,60,5,42,127,2660552020
83,23,5,ISIP_5,61,1,48,65,2661045244
83,23,5,ISIP_5,62,5,42,127,2661051712
83,23,5,ISIP_5,63,5,42,127,2661551712
83,23,5,ISIP_5,64,1,48,67,2661557380
83,23,5,ISIP_5,65,5,42,127,2662052156
83,23,5,ISIP_5,66,1,48,58,2662063432
83,23,5,ISIP_5,67,1,48,81,2662543660
83,23,5,ISIP_5,68,5,42,127,2662551844
83,23,5,ISIP_5,69,1,48,87,2663032208
83,23,5,ISIP_5,70,5,42,127,2663051540
83,23,5,ISIP_5,71,5,42,127,2663552364
83,23,5,ISIP_5,72,1,48,81,2663571788
83,23,5,ISIP_5,73,5,42,127,2664052060
83,23,5,ISIP_5,74,1,48,70,2664091304
83,23,5,ISIP_5,75,5,42,127,2664551680
83,23,5,ISIP_5,76,1,48,74,2664570504
83,23,5,ISIP_5,77,1,48,82,2665082536
83,23,5,ISIP_5,78,1,48,72,2665595540
83,23,5,ISIP_5,79,1,48,66,2666110568
83,23,5,ISIP_5,80,1,48,59,2666598520
83,23,5,ISIP_5,81,1,48,73,2667117804
83,23,5,ISIP_5,82,1,48,66,2667628340
83,23,5,ISIP_5,83,1,48,79,2668147780
83,23,5,ISIP_5,84,1,48,68,2668666544
83,23,5,ISIP_5,85,1,48,72,2669189572
83,23,5,ISIP_5,86,1,48,65,2669704892
83,23,5,ISIP_5,87,1,48,70,2670240936
83,23,5,ISIP_5,88,1,48,69,2670755808
83,23,5,ISIP_5,89,1,48,75,2671266720
83,23,5,ISIP_5,90,1,48,68,2671783168
83,23,5,ISIP_5,91,1,48,67,2672304920
83,23,5,ISIP_5,92,1,48,89,2672816208
83,23,5,ISIP_5,93,1,48,96,2673351728
83,23,5,ISIP_5,94,1,48,78,2673862336
83,23,5,ISIP_5,95,1,48,90,2674419772
83,23,5,ISIP_5,96,1,48,76,2674913924
83,23,5,ISIP_5,97,1,48,82,2675448248
83,23,5,ISIP_5,98,1,48,73,2675959912
83,23,5,ISIP_5,99,1,48,75,2676453764
83,23,5,ISIP_5,100,1,48,78,2676974172
83,23,5,ISIP_5,101,1,48,75,2677476332
83,23,5,ISIP_5,102,1,48,85,2678004668
83,23,5,ISIP_5,103,1,48,87,2678524480
83,23,5,ISIP_5,104,1,48,75,2679054628
83,23,5,ISIP_5,105,1,48,80,2679574664
83,23,5,ISIP_5,106,1,48,69,2680100456
83,23,5,ISIP_5,107,1,48,69,2680626332
83,23,5,ISIP_5,108,1,48,67,2681151320
83,23,5,ISIP_5,109,1,48,65,2681683104
83,23,5,ISIP_5,110,1,48,71,2682194164
83,23,5,ISIP_5,111,1,48,64,2682707616
83,23,5,ISIP_5,112,1,48,54,2683227652
83,23,5,ISIP_5,113,1,48,67,2683760252
83,23,5,ISIP_5,114,1,48,103,2684285076
83,23,5,ISIP_5,115,1,48,91,2684826656
83,23,5,ISIP_5,116,1,48,74,2685335096
83,23,5,ISIP_5,117,1,48,81,2685853036
83,23,5,ISIP_5,118,1,48,87,2686366636
83,23,5,ISIP_5,119,1,48,99,2686876732
83,23,5,ISIP_5,120,1,48,77,2687404172
83,23,5,ISIP_5,121,1,48,68,2687966988
83,23,5,ISIP_5,122,1,48,77,2688468696
83,23,5,ISIP_5,123,1,48,66,2688986268
83,23,5,ISIP_5,124,1,48,68,2689511836
83,23,5,ISIP_5,125,1,48,76,2690008536
83,23,5,ISIP_5,126,1,48,66,2690564188
83,23,5,ISIP_5,127,1,48,67,2691082356
83,23,5,ISIP_5,128,1,48,86,2691586904
83,23,5,ISIP_5,129,1,48,81,2692072832
83,23,5,ISIP_5,130,1,48,97,2692599376
83,23,5,ISIP_5,131,1,48,94,2693128084
83,23,5,ISIP_5,132,1,48,90,2693673700
83,23,5,ISIP_5,133,1,48,94,2694199072
83,23,5,ISIP_5,134,1,48,86,2694736388
83,23,5,ISIP_5,135,1,48,78,2695252160
83,23,5,ISIP_5,136,1,48,60,2695828672
83,23,5,ISIP_5,137,1,48,78,2696344892
83,23,5,ISIP_5,138,1,48,89,2696877864
83,23,5,ISIP_5,139,1,48,75,2697402236
83,23,5,ISIP_5,140,1,48,90,2697927584
83,23,5,ISIP_5,141,1,48,68,2698454800
83,23,5,ISIP_5,142,1,48,76,2699012312
83,23,5,ISIP_5,143,1,48,76,2699528236
83,23,5,ISIP_5,144,1,48,82,2700051796
83,23,5,ISIP_5,145,1,48,93,2700580584
83,23,5,ISIP_5,146,1,48,76,2701107976
83,23,5,ISIP_5,147,1,48,97,2701639008
83,23,5,ISIP_5,148,1,48,81,2702140940
83,23,5,ISIP_5,149,1,48,102,2702678480
83,23,5,ISIP_5,150,1,48,86,2703194328
83,23,5,ISIP_5,151,1,48,96,2703735380
83,23,5,ISIP_5,152,1,48,72,2704279876
83,23,5,ISIP_5,153,1,48,89,2704825336
83,23,5,ISIP_5,154,1,48,97,2705319868
83,23,5,ISIP_5,155,1,48,73,2705870948
83,23,5,ISIP_5,156,1,48,81,2706389712
83,23,5,ISIP_5,157,1,48,69,2706946152
83,23,5,ISIP_5,158,1,48,86,2707479048
83,23,5,ISIP_5,159,1,48,94,2708018904
83,23,5,ISIP_5,160,1,48,83,2708546496
83,23,5,ISIP_5,161,1,48,72,2709078960
83,23,5,ISIP_5,162,1,48,59,2709594588
83,23,5,ISIP_5,163,1,48,82,2710157780
83,23,5,ISIP_5,164,1,48,83,2710683572
83,23,5,ISIP_5,165,1,48,79,2711211392
83,23,5,ISIP_5,166,1,48,82,2711750876
83,23,5,ISIP_5,167,1,48,79,2712315192
83,23,5,ISIP_5,168,1,48,85,2712846820
83,23,5,ISIP_5,169,1,48,83,2713386304
83,23,5,ISIP_5,170,1,48,91,2713930372
83,23,5,ISIP_5,171,1,48,73,2714476884
83,23,5,ISIP_5,172,1,48,82,2715023996
83,23,5,ISIP_5,173,1,48,70,2715594384
83,23,5,ISIP_5,174,1,48,99,2716100660
83,23,5,ISIP_5,175,1,48,100,2716663328
83,23,5,ISIP_5,176,1,48,74,2717232284
83,23,5,ISIP_5,177,1,48,90,2717779864
83,23,5,ISIP_5,178,1,48,97,2718307608
83,23,5,ISIP_5,179,1,48,68,2718845972
83,23,5,ISIP_5,180,1,48,68,2719416348
83,23,5,ISIP_5,181,1,48,79,2719975728
83,23,5,ISIP_5,182,1,48,58,2720551948
83,23,5,ISIP_5,183,1,48,78,2721097812
83,23,5,ISIP_5,184,1,48,64,2721654048
83,23,5,ISIP_5,185,1,48,65,2722175876
83,23,5,ISIP_5,186,1,48,83,2722754708
83,23,5,ISIP_5,187,1,48,75,2723312964
83,23,5,ISIP_5,188,1,48,64,2723878324
83,23,5,ISIP_5,189,1,48,74,2724424864
83,23,5,ISIP_5,190,1,48,72,2724968984
83,23,5,ISIP_5,0,9999,9999,9999,2645049440
83,23,5,ISIP_5,1,9999,9999,9999,2645549132
83,23,5,ISIP_5,2,9999,9999,9999,2646049896
83,23,5,ISIP_5,3,9999,9999,9999,2646549612
83,23,5,ISIP_5,4,9999,9999,9999,2647049332
83,23,5,ISIP_5,5,9999,9999,9999,2647550072
83,23,5,ISIP_5,6,9999,9999,9999,2648049768
83,23,5,ISIP_5,7,9999,9999,9999,2648549464
83,23,5,ISIP_5,8,9999,9999,9999,2649049156
83,23,5,ISIP_5,9,9999,9999,9999,2649549900
83,23,5,ISIP_5,10,9999,9999,9999,2650049596
83,23,5,ISIP_5,11,9999,9999,9999,2650549364
83,23,5,ISIP_5,12,9999,9999,9999,2651050104
83,23,5,ISIP_5,13,9999,9999,9999,2651549800
83,23,5,ISIP_5,14,9999,9999,9999,2652049496
83,23,5,ISIP_5,15,9999,9999,9999,2652549188
83,23,5,ISIP_5,16,9999,9999,9999,2653049928
83,23,5,ISIP_5,17,9999,9999,9999,2653549628
83,23,5,ISIP_5,18,9999,9999,9999,2654049400
83,23,5,ISIP_5,19,9999,9999,9999,2654550132
83,23,5,ISIP_5,20,9999,9999,9999,2655049828
83,23,5,ISIP_5,21,9999,9999,9999,2655549524
83,23,5,ISIP_5,22,9999,9999,9999,2656049272
83,23,5,ISIP_5,23,9999,9999,9999,2656549940
83,23,5,ISIP_5,24,9999,9999,9999,2657049708
83,23,5,ISIP_5,25,9999,9999,9999,2657549404
83,23,5,ISIP_5,26,9999,9999,9999,2658049100
83,23,5,ISIP_5,27,9999,9999,9999,2658549840
83,23,5,ISIP_5,28,9999,9999,9999,2659049536
83,23,5,ISIP_5,29,9999,9999,9999,2659549304
83,23,5,ISIP_5,30,9999,9999,9999,2660049968
83,23,5,ISIP_5,31,9999,9999,9999,2660549732
83,23,5,ISIP_5,32,9999,9999,9999,2661049428
83,23,5,ISIP_5,33,9999,9999,9999,2661549128
83,23,5,ISIP_5,34,9999,9999,9999,2662049872
83,23,5,ISIP_5,35,9999,9999,9999,2662549560
83,23,5,ISIP_5,36,9999,9999,9999,2663049328
83,23,5,ISIP_5,37,9999,9999,9999,2663550004
83,23,5,ISIP_5,38,9999,9999,9999,2664049772
83,23,5,ISIP_5,39,9999,9999,9999,2664549468
83,23,5,ISIP_5,40,9999,9999,9999,2665049164
83,23,5,ISIP_5,41,9999,9999,9999,2665549900
83,23,5,ISIP_5,42,9999,9999,9999,2666049592
83,23,5,ISIP_5,43,9999,9999,9999,2666549356
83,23,5,ISIP_5,44,9999,9999,9999,2667050068
83,23,5,ISIP_5,45,9999,9999,9999,2667549764
83,23,5,ISIP_5,46,9999,9999,9999,2668049528
83,23,5,ISIP_5,47,9999,9999,9999,2668549220
83,23,5,ISIP_5,48,9999,9999,9999,2669049956
83,23,5,ISIP_5,49,9999,9999,9999,2669549648
83,23,5,ISIP_5,50,9999,9999,9999,2670049340
83,23,5,ISIP_5,51,9999,9999,9999,2670550076
83,23,5,ISIP_5,52,9999,9999,9999,2671049840
83,23,5,ISIP_5,53,9999,9999,9999,2671549532
83,23,5,ISIP_5,54,9999,9999,9999,2672049224
83,23,5,ISIP_5,55,9999,9999,9999,2672549960
83,23,5,ISIP_5,56,9999,9999,9999,2673049652
83,23,5,ISIP_5,57,9999,9999,9999,2673549416
83,23,5,ISIP_5,58,9999,9999,9999,2674049108
83,23,5,ISIP_5,59,9999,9999,9999,2674549844
83,23,5,ISIP_5,60,9999,9999,9999,2675049536
83,23,5,ISIP_5,61,9999,9999,9999,2675549304
83,23,5,ISIP_5,62,9999,9999,9999,2676049980
83,23,5,ISIP_5,63,9999,9999,9999,2676549732
83,23,5,ISIP_5,64,9999,9999,9999,2677049436
83,23,5,ISIP_5,65,9999,9999,9999,2677549176
83,23,5,ISIP_5,66,9999,9999,9999,2678049840
83,23,5,ISIP_5,67,9999,9999,9999,2678549604
83,23,5,ISIP_5,68,9999,9999,9999,2679049300
83,23,5,ISIP_5,69,9999,9999,9999,2679550040
83,23,5,ISIP_5,70,9999,9999,9999,2680049728
83,23,5,ISIP_5,71,9999,9999,9999,2680549496
83,23,5,ISIP_5,72,9999,9999,9999,2681049184
83,23,5,ISIP_5,73,9999,9999,9999,2681549920
83,23,5,ISIP_5,74,9999,9999,9999,2682049612
83,23,5,ISIP_5,75,9999,9999,9999,2682549304
83,23,5,ISIP_5,76,9999,9999,9999,2683050040
83,23,5,ISIP_5,77,9999,9999,9999,2683549804
83,23,5,ISIP_5,78,9999,9999,9999,2684049496
83,23,5,ISIP_5,79,9999,9999,9999,2684549188
83,23,5,ISIP_5,80,9999,9999,9999,2685049924
83,23,5,ISIP_5,81,9999,9999,9999,2685549616
83,23,5,ISIP_5,82,9999,9999,9999,2686049380
83,23,5,ISIP_5,83,9999,9999,9999,2686550120
83,23,5,ISIP_5,84,9999,9999,9999,2687049812
83,23,5,ISIP_5,85,9999,9999,9999,2687549500
83,23,5,ISIP_5,86,9999,9999,9999,2688049256
83,23,5,ISIP_5,87,9999,9999,9999,2688549996
83,23,5,ISIP_5,88,9999,9999,9999,2689049684
83,23,5,ISIP_5,89,9999,9999,9999,2689549376
83,23,5,ISIP_5,90,9999,9999,9999,2690049140
83,23,5,ISIP_5,91,9999,9999,9999,2690549812
83,23,5,ISIP_5,92,9999,9999,9999,2691049576
83,23,5,ISIP_5,93,9999,9999,9999,2691549268
83,23,5,ISIP_5,94,9999,9999,9999,2692050004
83,23,5,ISIP_5,95,9999,9999,9999,2692549692
83,23,5,ISIP_5,96,9999,9999,9999,2693049460
83,23,5,ISIP_5,97,9999,9999,9999,2693549148
83,23,5,ISIP_5,98,9999,9999,9999,2694049888
83,23,5,ISIP_5,99,9999,9999,9999,2694549576
83,23,5,ISIP_5,100,9999,9999,9999,2695049268
83,23,5,ISIP_5,101,9999,9999,9999,2695550008
83,23,5,ISIP_5,102,9999,9999,9999,2696049772
83,23,5,ISIP_5,103,9999,9999,9999,2696549464
83,23,5,ISIP_5,104,9999,9999,9999,2697049152
83,23,5,ISIP_5,105,9999,9999,9999,2697549892
83,23,5,ISIP_5,106,9999,9999,9999,2698049656
83,23,5,ISIP_5,107,9999,9999,9999,2698549348
83,23,5,ISIP_5,108,9999,9999,9999,2699050076
83,23,5,ISIP_5,109,9999,9999,9999,2699549768
83,23,5,ISIP_5,110,9999,9999,9999,2700049460
83,23,5,ISIP_5,111,9999,9999,9999,2700549228
83,23,5,ISIP_5,112,9999,9999,9999,2701049964
83,23,5,ISIP_5,113,9999,9999,9999,2701549656
83,23,5,ISIP_5,114,9999,9999,9999,2702049348
83,23,5,ISIP_5,115,9999,9999,9999,2702550084
83,23,5,ISIP_5,116,9999,9999,9999,2703049776
83,23,5,ISIP_5,117,9999,9999,9999,2703549544
83,23,5,ISIP_5,118,9999,9999,9999,2704049232
83,23,5,ISIP_5,119,9999,9999,9999,2704549972
83,23,5,ISIP_5,120,9999,9999,9999,2705049660
83,23,5,ISIP_5,121,9999,9999,9999,2705549428
83,23,5,ISIP_5,122,9999,9999,9999,2706049116
83,23,5,ISIP_5,123,9999,9999,9999,2706549828
83,23,5,ISIP_5,124,9999,9999,9999,2707049520
83,23,5,ISIP_5,125,9999,9999,9999,2707549300
83,23,5,ISIP_5,126,9999,9999,9999,2708050012
83,23,5,ISIP_5,127,9999,9999,9999,2708549704
83,23,5,ISIP_5,128,9999,9999,9999,2709049404
83,23,5,ISIP_5,129,9999,9999,9999,2709549144
83,23,5,ISIP_5,130,9999,9999,9999,2710049880
83,23,5,ISIP_5,131,9999,9999,9999,2710549572
83,23,5,ISIP_5,132,9999,9999,9999,2711049264
83,23,5,ISIP_5,133,9999,9999,9999,2711550000
83,23,5,ISIP_5,134,9999,9999,9999,2712049768
83,23,5,ISIP_5,135,9999,9999,9999,2712549456
83,23,5,ISIP_5,136,9999,9999,9999,2713049148
83,23,5,ISIP_5,137,9999,9999,9999,2713549884
83,23,5,ISIP_5,138,9999,9999,9999,2714049648
83,23,5,ISIP_5,139,9999,9999,9999,2714549356
83,23,5,ISIP_5,140,9999,9999,9999,2715050092
83,23,5,ISIP_5,141,9999,9999,9999,2715549792
83,23,5,ISIP_5,142,9999,9999,9999,2716049480
83,23,5,ISIP_5,143,9999,9999,9999,2716549172
83,23,5,ISIP_5,144,9999,9999,9999,2717049908
83,23,5,ISIP_5,145,9999,9999,9999,2717549672
83,23,5,ISIP_5,146,9999,9999,9999,2718049364
83,23,5,ISIP_5,147,9999,9999,9999,2718550104
83,23,5,ISIP_5,148,9999,9999,9999,2719049796
83,23,5,ISIP_5,149,9999,9999,9999,2719549560
83,23,5,ISIP_5,150,9999,9999,9999,2720049240
83,23,5,ISIP_5,151,9999,9999,9999,2720549984
83,23,5,ISIP_5,152,9999,9999,9999,2721049676
83,23,5,ISIP_5,153,9999,9999,9999,2721549364
83,23,5,ISIP_5,154,9999,9999,9999,2722049132
83,23,5,ISIP_5,155,9999,9999,9999,2722549868
83,23,5,ISIP_5,156,9999,9999,9999,2723049560
83,23,5,ISIP_5,157,9999,9999,9999,2723549248
83,23,5,ISIP_5,158,9999,9999,9999,2724049984
83,23,5,ISIP_5,159,9999,9999,9999,2724549752
83,24,11,Pattern_Practice,0,5,42,127,2831281508
83,24,11,Pattern_Practice,1,5,42,127,2831782492
83,24,11,Pattern_Practice,2,5,42,127,2832281912
83,24,11,Pattern_Practice,3,1,38,43,2832312032
83,24,11,Pattern_Practice,4,1,38,42,2832712676
83,24,11,Pattern_Practice,5,1,38,39,2832760976
83,24,11,Pattern_Practice,6,5,42,127,2832781800
83,24,11,Pattern_Practice,7,1,38,50,2833254836
83,24,11,Pattern_Practice,8,5,42,127,2833282544
83,24,11,Pattern_Practice,9,1,38,49,2833288268
83,24,11,Pattern_Practice,10,1,38,24,2833353916
83,24,11,Pattern_Practice,11,5,42,127,2833782276
83,24,11,Pattern_Practice,12,1,38,51,2833798032
83,24,11,Pattern_Practice,13,1,38,57,2834276168
83,24,11,Pattern_Practice,14,5,42,127,2834282036
83,24,11,Pattern_Practice,15,1,38,52,2834297336
83,24,11,Pattern_Practice,16,1,38,54,2834666540
83,24,11,Pattern_Practice,17,1,38,60,2834718276
83,24,11,Pattern_Practice,18,5,42,127,2834781540
83,24,11,Pattern_Practice,19,1,38,30,2834786736
83,24,11,Pattern_Practice,20,1,38,61,2834843712
83,24,11,Pattern_Practice,21,1,38,57,2835142380
83,24,11,Pattern_Practice,22,1,38,36,2835226808
83,24,11,Pattern_Practice,23,5,42,127,2835282436
83,24,11,Pattern_Practice,24,1,38,61,2835364008
83,24,11,Pattern_Practice,25,1,38,54,2835771684
83,24,11,Pattern_Practice,26,5,42,127,2835781968
83,24,11,Pattern_Practice,27,1,38,57,2835798608
83,24,11,Pattern_Practice,28,5,42,127,2836281572
83,24,11,Pattern_Practice,29,1,38,59,2836286860
83,24,11,Pattern_Practice,30,1,38,57,2836308156
83,24,11,Pattern_Practice,31,1,38,62,2836740860
83,24,11,Pattern_Practice,32,1,38,61,2836765296
83,24,11,Pattern_Practice,33,5,42,127,2836781364
83,24,11,Pattern_Practice,34,1,38,35,2836826804
83,24,11,Pattern_Practice,35,1,38,42,2837002632
83,24,11,Pattern_Practice,36,1,38,61,2837268020
83,24,11,Pattern_Practice,37,5,42,127,2837282188
83,24,11,Pattern_Practice,38,5,42,127,2837781816
83,24,11,Pattern_Practice,39,1,38,48,2837784408
83,24,11,Pattern_Practice,40,5,42,127,2838281436
83,24,11,Pattern_Practice,41,1,38,66,2838324820
83,24,11,Pattern_Practice,42,1,38,56,2838757604
83,24,11,Pattern_Practice,43,5,42,127,2838782320
83,24,11,Pattern_Practice,44,1,38,57,2838799256
83,24,11,Pattern_Practice,45,1,38,31,2838859548
83,24,11,Pattern_Practice,46,1,38,36,2839112292
83,24,11,Pattern_Practice,47,1,38,61,2839256112
83,24,11,Pattern_Practice,48,5,42,127,2839282172
83,24,11,Pattern_Practice,49,1,38,59,2839746376
83,24,11,Pattern_Practice,50,5,42,127,2839781792
83,24,11,Pattern_Practice,51,1,38,52,2840238372
83,24,11,Pattern_Practice,52,5,42,127,2840281412
83,24,11,Pattern_Practice,53,1,38,60,2840738584
83,24,11,Pattern_Practice,54,5,42,127,2840782152
83,24,11,Pattern_Practice,55,1,38,57,2840785052
83,24,11,Pattern_Practice,56,1,38,57,2841187848
83,24,11,Pattern_Practice,57,5,42,127,2841281816
83,24,11,Pattern_Practice,58,1,38,53,2841321132
83,24,11,Pattern_Practice,59,5,42,127,2841781656
83,24,11,Pattern_Practice,60,1,38,59,2841811404
83,24,11,Pattern_Practice,61,5,42,127,2842282400
83,24,11,Pattern_Practice,62,1,38,59,2842350292
83,24,11,Pattern_Practice,63,1,38,50,2842782020
83,24,11,Pattern_Practice,64,5,42,127,2842784628
83,24,11,Pattern_Practice,65,1,38,57,2842808532
83,24,11,Pattern_Practice,66,1,38,54,2843168680
83,24,11,Pattern_Practice,67,5,42,127,2843281892
83,24,11,Pattern_Practice,68,1,38,55,2843308052
83,24,11,Pattern_Practice,69,5,42,127,2843781364
83,24,11,Pattern_Practice,70,1,38,55,2843788748
83,24,11,Pattern_Practice,71,5,42,127,2844282180
83,24,11,Pattern_Practice,72,1,38,70,2844299364
83,24,11,Pattern_Practice,73,1,38,46,2844752216
83,24,11,Pattern_Practice,74,5,42,127,2844781796
83,24,11,Pattern_Practice,75,1,38,30,2844931052
83,24,11,Pattern_Practice,76,1,38,52,2845176992
83,24,11,Pattern_Practice,77,1,38,50,2845257780
83,24,11,Pattern_Practice,78,5,42,127,2845281596
83,24,11,Pattern_Practice,79,1,38,50,2845653772
83,24,11,Pattern_Practice,80,1,38,45,2845707008
83,24,11,Pattern_Practice,81,5,42,127,2845782240
83,24,11,Pattern_Practice,82,1,38,58,2846281340
83,24,11,Pattern_Practice,83,5,42,127,2846284252
83,24,11,Pattern_Practice,84,1,38,61,2846338224
83,24,11,Pattern_Practice,85,5,42,127,2846781692
83,24,11,Pattern_Practice,86,1,38,55,2846783704
83,24,11,Pattern_Practice,87,1,38,51,2846876340
83,24,11,Pattern_Practice,88,5,42,127,2847281436
83,24,11,Pattern_Practice,89,1,38,51,2847291884
83,24,11,Pattern_Practice,90,1,38,60,2847402564
83,24,11,Pattern_Practice,91,5,42,127,2847782208
83,24,11,Pattern_Practice,92,1,38,56,2847890668
83,24,11,Pattern_Practice,93,1,48,51,2847902988
83,24,11,Pattern_Practice,94,5,42,127,2848282152
83,24,11,Pattern_Practice,95,1,38,50,2848368024
83,24,11,Pattern_Practice,96,1,48,37,2848387824
83,24,11,Pattern_Practice,97,5,42,127,2848781576
83,24,11,Pattern_Practice,98,1,48,33,2848825784
83,24,11,Pattern_Practice,99,5,42,127,2849282540
83,24,11,Pattern_Practice,100,1,48,32,2849314380
83,24,11,Pattern_Practice,101,1,48,51,2849767380
83,24,11,Pattern_Practice,102,5,42,127,2849782152
83,24,11,Pattern_Practice,103,1,48,51,2850228560
83,24,11,Pattern_Practice,104,5,42,127,2850281772
83,24,11,Pattern_Practice,105,1,48,17,2850381760
83,24,11,Pattern_Practice,106,1,48,48,2850708784
83,24,11,Pattern_Practice,107,5,42,127,2850781672
83,24,11,Pattern_Practice,108,1,48,51,2850812820
83,24,11,Pattern_Practice,109,1,48,60,2851178616
83,24,11,Pattern_Practice,110,1,48,57,2851240820
83,24,11,Pattern_Practice,111,5,42,127,2851282220
83,24,11,Pattern_Practice,112,1,48,60,2851766920
83,24,11,Pattern_Practice,113,5,42,127,2851782064
83,24,11,Pattern_Practice,114,1,48,56,2852270432
83,24,11,Pattern_Practice,115,5,42,127,2852281908
83,24,11,Pattern_Practice,116,1,48,59,2852751504
83,24,11,Pattern_Practice,117,5,42,127,2852781380
83,24,11,Pattern_Practice,118,1,48,53,2852826448
83,24,11,Pattern_Practice,119,1,48,57,2853242052
83,24,11,Pattern_Practice,120,5,42,127,2853282176
83,24,11,Pattern_Practice,121,5,42,127,2853781952
83,24,11,Pattern_Practice,122,1,48,59,2853786944
83,24,11,Pattern_Practice,123,1,48,57,2854253108
83,24,11,Pattern_Practice,124,5,42,127,2854281716
83,24,11,Pattern_Practice,125,1,48,60,2854745104
83,24,11,Pattern_Practice,126,5,42,127,2854782308
83,24,11,Pattern_Practice,127,1,48,64,2855232680
83,24,11,Pattern_Practice,128,5,42,127,2855282004
83,24,11,Pattern_Practice,129,1,48,64,2855284448
83,24,11,Pattern_Practice,130,1,48,59,2855764288
83,24,11,Pattern_Practice,131,5,42,127,2855781824
83,24,11,Pattern_Practice,132,5,42,127,2856281380
83,24,11,Pattern_Practice,133,1,48,59,2856290332
83,24,11,Pattern_Practice,134,5,42,127,2856782120
83,24,11,Pattern_Practice,135,1,48,63,2856795264
83,24,11,Pattern_Practice,136,1,48,57,2857248464
83,24,11,Pattern_Practice,137,5,42,127,2857281880
83,24,11,Pattern_Practice,138,1,48,61,2857739252
83,24,11,Pattern_Practice,139,5,42,127,2857781576
83,24,11,Pattern_Practice,140,1,48,53,2857806668
83,24,11,Pattern_Practice,141,1,48,51,2858197640
83,24,11,Pattern_Practice,142,1,48,65,2858272940
83,24,11,Pattern_Practice,143,5,42,127,2858282248
83,24,11,Pattern_Practice,144,1,48,58,2858726256
83,24,11,Pattern_Practice,145,5,42,127,2858782016
83,24,11,Pattern_Practice,146,1,48,62,2858808336
83,24,11,Pattern_Practice,147,5,42,127,2859281844
83,24,11,Pattern_Practice,148,1,48,54,2859303064
83,24,11,Pattern_Practice,149,1,48,61,2859355428
83,24,11,Pattern_Practice,150,5,42,127,2859781592
83,24,11,Pattern_Practice,151,1,48,56,2859844344
83,24,11,Pattern_Practice,152,1,48,62,2859922188
83,24,11,Pattern_Practice,153,1,48,53,2860069000
83,24,11,Pattern_Practice,154,5,42,127,2860282212
83,24,11,Pattern_Practice,155,1,48,54,2860481324
83,24,11,Pattern_Practice,156,5,42,127,2860781984
83,24,11,Pattern_Practice,157,5,42,127,2861281848
83,24,11,Pattern_Practice,158,5,42,127,2861782316
83,24,11,Pattern_Practice,159,1,48,57,2861795684
83,24,11,Pattern_Practice,160,5,42,127,2862282084
83,24,11,Pattern_Practice,161,1,48,63,2862294184
83,24,11,Pattern_Practice,162,1,48,54,2862765660
83,24,11,Pattern_Practice,163,5,42,127,2862781996
83,24,11,Pattern_Practice,164,1,48,68,2862785552
83,24,11,Pattern_Practice,165,1,48,60,2863242064
83,24,11,Pattern_Practice,166,5,42,127,2863281372
83,24,11,Pattern_Practice,167,1,48,36,2863359868
83,24,11,Pattern_Practice,168,1,48,59,2863754308
83,24,11,Pattern_Practice,169,5,42,127,2863782388
83,24,11,Pattern_Practice,170,1,48,57,2864222660
83,24,11,Pattern_Practice,171,1,48,63,2864249492
83,24,11,Pattern_Practice,172,5,42,127,2864281912
83,24,11,Pattern_Practice,173,1,48,59,2864774992
83,24,11,Pattern_Practice,174,5,42,127,2864781908
83,24,11,Pattern_Practice,175,1,48,70,2865267884
83,24,11,Pattern_Practice,176,5,42,127,2865282428
83,24,11,Pattern_Practice,177,1,48,58,2865321284
83,24,11,Pattern_Practice,178,5,42,127,2865782104
83,24,11,Pattern_Practice,179,1,48,63,2865808036
83,24,11,Pattern_Practice,180,1,48,55,2866183524
83,24,11,Pattern_Practice,181,1,48,64,2866276876
83,24,11,Pattern_Practice,182,5,42,127,2866281920
83,24,11,Pattern_Practice,183,1,48,55,2866767520
83,24,11,Pattern_Practice,184,5,42,127,2866781764
83,24,11,Pattern_Practice,185,1,38,64,2867260484
83,24,11,Pattern_Practice,186,5,42,127,2867282280
83,24,11,Pattern_Practice,187,1,38,48,2867284352
83,24,11,Pattern_Practice,188,1,38,36,2867342132
83,24,11,Pattern_Practice,189,1,38,67,2867765216
83,24,11,Pattern_Practice,190,5,42,127,2867781932
83,24,11,Pattern_Practice,191,1,38,62,2868228760
83,24,11,Pattern_Practice,192,5,42,127,2868281924
83,24,11,Pattern_Practice,193,1,38,80,2868779660
83,24,11,Pattern_Practice,194,5,42,127,2868782220
83,24,11,Pattern_Practice,195,1,38,74,2869263080
83,24,11,Pattern_Practice,196,5,42,127,2869282040
83,24,11,Pattern_Practice,197,1,38,59,2869311048
83,24,11,Pattern_Practice,198,1,38,72,2869751084
83,24,11,Pattern_Practice,199,5,42,127,2869781860
83,24,11,Pattern_Practice,200,1,38,72,2870242552
83,24,11,Pattern_Practice,201,1,38,67,2870261376
83,24,11,Pattern_Practice,202,5,42,127,2870281828
83,24,11,Pattern_Practice,203,1,38,46,2870377784
83,24,11,Pattern_Practice,204,1,38,30,2870462880
83,24,11,Pattern_Practice,205,1,38,77,2870740904
83,24,11,Pattern_Practice,206,5,42,127,2870782304
83,24,11,Pattern_Practice,207,1,38,60,2871231704
83,24,11,Pattern_Practice,208,1,38,60,2871253816
83,24,11,Pattern_Practice,0,9999,9999,9999,2831279220
83,24,11,Pattern_Practice,1,9999,9999,9999,2831779908
83,24,11,Pattern_Practice,2,9999,9999,9999,2832279624
83,24,11,Pattern_Practice,3,9999,9999,9999,2832779368
83,24,11,Pattern_Practice,4,9999,9999,9999,2833280108
83,24,11,Pattern_Practice,5,9999,9999,9999,2833779764
83,24,11,Pattern_Practice,6,9999,9999,9999,2834279528
83,24,11,Pattern_Practice,7,9999,9999,9999,2834779252
83,24,11,Pattern_Practice,8,9999,9999,9999,2835279928
83,24,11,Pattern_Practice,9,9999,9999,9999,2835779680
83,24,11,Pattern_Practice,10,9999,9999,9999,2836279360
83,24,11,Pattern_Practice,11,9999,9999,9999,2836779128
83,24,11,Pattern_Practice,12,9999,9999,9999,2837279828
83,24,11,Pattern_Practice,13,9999,9999,9999,2837779528
83,24,11,Pattern_Practice,14,9999,9999,9999,2838279224
83,24,11,Pattern_Practice,15,9999,9999,9999,2838779956
83,24,11,Pattern_Practice,16,9999,9999,9999,2839279736
83,24,11,Pattern_Practice,17,9999,9999,9999,2839779432
83,24,11,Pattern_Practice,18,9999,9999,9999,2840279124
83,24,11,Pattern_Practice,19,9999,9999,9999,2840779868
83,24,11,Pattern_Practice,20,9999,9999,9999,2841279544
83,24,11,Pattern_Practice,21,9999,9999,9999,2841779296
83,24,11,Pattern_Practice,22,9999,9999,9999,2842280036
83,24,11,Pattern_Practice,23,9999,9999,9999,2842779732
83,24,11,Pattern_Practice,24,9999,9999,9999,2843279456
83,24,11,Pattern_Practice,25,9999,9999,9999,2843779152
83,24,11,Pattern_Practice,26,9999,9999,9999,2844279896
83,24,11,Pattern_Practice,27,9999,9999,9999,2844779584
83,24,11,Pattern_Practice,28,9999,9999,9999,2845279308
83,24,11,Pattern_Practice,29,9999,9999,9999,2845780028
83,24,11,Pattern_Practice,30,9999,9999,9999,2846279732
83,24,11,Pattern_Practice,31,9999,9999,9999,2846779480
83,24,11,Pattern_Practice,32,9999,9999,9999,2847279224
83,24,11,Pattern_Practice,33,9999,9999,9999,2847779920
83,24,11,Pattern_Practice,34,9999,9999,9999,2848279640
83,24,11,Pattern_Practice,35,9999,9999,9999,2848779364
83,24,11,Pattern_Practice,36,9999,9999,9999,2849280104
83,24,11,Pattern_Practice,37,9999,9999,9999,2849779792
83,24,11,Pattern_Practice,38,9999,9999,9999,2850279488
83,24,11,Pattern_Practice,39,9999,9999,9999,2850779236
83,24,11,Pattern_Practice,40,9999,9999,9999,2851279932
83,24,11,Pattern_Practice,41,9999,9999,9999,2851779704
83,24,11,Pattern_Practice,42,9999,9999,9999,2852279400
83,24,11,Pattern_Practice,43,9999,9999,9999,2852779096
83,24,11,Pattern_Practice,44,9999,9999,9999,2853279816
83,24,11,Pattern_Practice,45,9999,9999,9999,2853779516
83,24,11,Pattern_Practice,46,9999,9999,9999,2854279280
83,24,11,Pattern_Practice,47,9999,9999,9999,2854780024
83,24,11,Pattern_Practice,48,9999,9999,9999,2855279716
83,24,11,Pattern_Practice,49,9999,9999,9999,2855779392
83,24,11,Pattern_Practice,50,9999,9999,9999,2856279092
83,24,11,Pattern_Practice,51,9999,9999,9999,2856779832
83,24,11,Pattern_Practice,52,9999,9999,9999,2857279596
83,24,11,Pattern_Practice,53,9999,9999,9999,2857779288
83,24,11,Pattern_Practice,54,9999,9999,9999,2858280036
83,24,11,Pattern_Practice,55,9999,9999,9999,2858779732
83,24,11,Pattern_Practice,56,9999,9999,9999,2859279408
83,24,11,Pattern_Practice,57,9999,9999,9999,2859779156
83,24,11,Pattern_Practice,58,9999,9999,9999,2860279928
83,24,11,Pattern_Practice,59,9999,9999,9999,2860779620
83,24,11,Pattern_Practice,60,9999,9999,9999,2861279340
83,24,11,Pattern_Practice,61,9999,9999,9999,2861780028
83,24,11,Pattern_Practice,62,9999,9999,9999,2862279796
83,24,11,Pattern_Practice,63,9999,9999,9999,2862779488
83,24,11,Pattern_Practice,64,9999,9999,9999,2863279160
83,24,11,Pattern_Practice,65,9999,9999,9999,2863779956
83,24,11,Pattern_Practice,66,9999,9999,9999,2864279628
83,24,11,Pattern_Practice,67,9999,9999,9999,2864779324
83,24,11,Pattern_Practice,68,9999,9999,9999,2865280068
83,24,11,Pattern_Practice,69,9999,9999,9999,2865779820
83,24,11,Pattern_Practice,70,9999,9999,9999,2866279484
83,24,11,Pattern_Practice,71,9999,9999,9999,2866779256
83,24,11,Pattern_Practice,72,9999,9999,9999,2867279920
83,24,11,Pattern_Practice,73,9999,9999,9999,2867779648
83,24,11,Pattern_Practice,74,9999,9999,9999,2868279416
83,24,11,Pattern_Practice,75,9999,9999,9999,2868779060
83,24,11,Pattern_Practice,76,9999,9999,9999,2869279828
83,24,11,Pattern_Practice,77,9999,9999,9999,2869779572
83,24,11,Pattern_Practice,78,9999,9999,9999,2870279248
83,24,11,Pattern_Practice,79,9999,9999,9999,2870780020
83,25,13,Improv_Metronome,0,5,42,127,2910917996
83,25,13,Improv_Metronome,1,5,42,127,2911417636
83,25,13,Improv_Metronome,2,5,42,127,2911917356
83,25,13,Improv_Metronome,3,1,38,51,2911925784
83,25,13,Improv_Metronome,4,1,38,54,2911941168
83,25,13,Improv_Metronome,5,1,38,60,2912398664
83,25,13,Improv_Metronome,6,5,42,127,2912418216
83,25,13,Improv_Metronome,7,1,38,65,2912909800
83,25,13,Improv_Metronome,8,5,42,127,2912917836
83,25,13,Improv_Metronome,9,1,38,36,2912988560
83,25,13,Improv_Metronome,10,1,38,18,2913080112
83,25,13,Improv_Metronome,11,1,38,64,2913417944
83,25,13,Improv_Metronome,12,5,42,127,2913420484
83,25,13,Improv_Metronome,13,5,42,127,2913918312
83,25,13,Improv_Metronome,14,1,38,68,2913925696
83,25,13,Improv_Metronome,15,1,38,65,2913954172
83,25,13,Improv_Metronome,16,1,38,37,2913991176
83,25,13,Improv_Metronome,17,5,42,127,2914417892
83,25,13,Improv_Metronome,18,1,38,70,2914461704
83,25,13,Improv_Metronome,19,1,38,66,2914870352
83,25,13,Improv_Metronome,20,1,38,68,2914893288
83,25,13,Improv_Metronome,21,5,42,127,2914917780
83,25,13,Improv_Metronome,22,1,38,68,2915383412
83,25,13,Improv_Metronome,23,5,42,127,2915417404
83,25,13,Improv_Metronome,24,1,38,70,2915836704
83,25,13,Improv_Metronome,25,1,38,54,2915871464
83,25,13,Improv_Metronome,26,5,42,127,2915918048
83,25,13,Improv_Metronome,27,1,38,46,2916281924
83,25,13,Improv_Metronome,28,5,42,127,2916417952
83,25,13,Improv_Metronome,29,1,38,72,2916875792
83,25,13,Improv_Metronome,30,1,38,62,2916910572
83,25,13,Improv_Metronome,31,5,42,127,2916917712
83,25,13,Improv_Metronome,32,5,42,127,2917418236
83,25,13,Improv_Metronome,33,1,38,71,2917423896
83,25,13,Improv_Metronome,34,1,38,65,2917880244
83,25,13,Improv_Metronome,35,1,38,66,2917916364
83,25,13,Improv_Metronome,36,5,42,127,2917919076
83,25,13,Improv_Metronome,37,1,38,42,2917948084
83,25,13,Improv_Metronome,38,1,38,65,2918403900
83,25,13,Improv_Metronome,39,5,42,127,2918418000
83,25,13,Improv_Metronome,40,5,42,127,2918917552
83,25,13,Improv_Metronome,41,1,48,75,2918923736
83,25,13,Improv_Metronome,42,1,48,65,2918938900
83,25,13,Improv_Metronome,43,1,48,40,2918997024
83,25,13,Improv_Metronome,44,1,48,80,2919410880
83,25,13,Improv_Metronome,45,5,42,127,2919418092
83,25,13,Improv_Metronome,46,1,48,70,2919868912
83,25,13,Improv_Metronome,47,5,42,127,2919918088
83,25,13,Improv_Metronome,48,1,48,76,2920394408
83,25,13,Improv_Metronome,49,5,42,127,2920417856
83,25,13,Improv_Metronome,50,1,48,73,2920840996
83,25,13,Improv_Metronome,51,1,48,61,2920877404
83,25,13,Improv_Metronome,52,5,42,127,2920918352
83,25,13,Improv_Metronome,53,1,48,81,2921397068
83,25,13,Improv_Metronome,54,5,42,127,2921418048
83,25,13,Improv_Metronome,55,1,48,73,2921850388
83,25,13,Improv_Metronome,56,1,48,46,2921911852
83,25,13,Improv_Metronome,57,5,42,127,2921918020
83,25,13,Improv_Metronome,58,5,42,127,2922417496
83,25,13,Improv_Metronome,59,1,48,92,2922418464
83,25,13,Improv_Metronome,60,1,48,84,2922902940
83,25,13,Improv_Metronome,61,5,42,127,2922918232
83,25,13,Improv_Metronome,62,1,48,65,2923272312
83,25,13,Improv_Metronome,63,1,48,94,2923352272
83,25,13,Improv_Metronome,64,1,48,47,2923397504
83,25,13,Improv_Metronome,65,5,42,127,2923417956
83,25,13,Improv_Metronome,66,1,48,81,2923735908
83,25,13,Improv_Metronome,67,1,48,61,2923886632
83,25,13,Improv_Metronome,68,5,42,127,2923917928
83,25,13,Improv_Metronome,69,1,48,71,2924290112
83,25,13,Improv_Metronome,70,1,48,61,2924413600
83,25,13,Improv_Metronome,71,5,42,127,2924418352
83,25,13,Improv_Metronome,72,1,48,76,2924872084
83,25,13,Improv_Metronome,73,5,42,127,2924918268
83,25,13,Improv_Metronome,74,1,48,76,2925346768
83,25,13,Improv_Metronome,75,5,42,127,2925417960
83,25,13,Improv_Metronome,76,1,48,84,2925465196
83,25,13,Improv_Metronome,77,5,42,127,2925917940
83,25,13,Improv_Metronome,78,1,48,83,2925924652
83,25,13,Improv_Metronome,79,1,48,72,2926063524
83,25,13,Improv_Metronome,80,5,42,127,2926418136
83,25,13,Improv_Metronome,81,1,48,78,2926459032
83,25,13,Improv_Metronome,82,1,48,73,2926616904
83,25,13,Improv_Metronome,83,5,42,127,2926917884
83,25,13,Improv_Metronome,84,1,48,63,2926973808
83,25,13,Improv_Metronome,85,1,48,57,2927099304
83,25,13,Improv_Metronome,86,5,42,127,2927417856
83,25,13,Improv_Metronome,87,1,48,75,2927427408
83,25,13,Improv_Metronome,88,1,48,62,2927576164
83,25,13,Improv_Metronome,89,5,42,127,2927917680
83,25,13,Improv_Metronome,90,1,48,67,2927966048
83,25,13,Improv_Metronome,91,1,48,64,2928137244
83,25,13,Improv_Metronome,92,5,42,127,2928418224
83,25,13,Improv_Metronome,93,1,48,60,2928484724
83,25,13,Improv_Metronome,94,1,48,61,2928618888
83,25,13,Improv_Metronome,95,5,42,127,2928917824
83,25,13,Improv_Metronome,96,1,38,56,2929004360
83,25,13,Improv_Metronome,97,1,38,60,2929066128
83,25,13,Improv_Metronome,98,5,42,127,2929417720
83,25,13,Improv_Metronome,99,1,38,61,2929459236
83,25,13,Improv_Metronome,100,1,38,83,2929864188
83,25,13,Improv_Metronome,101,5,42,127,2929918452
83,25,13,Improv_Metronome,102,1,38,48,2929934196
83,25,13,Improv_Metronome,103,1,38,33,2929977588
83,25,13,Improv_Metronome,104,1,38,70,2930370800
83,25,13,Improv_Metronome,105,5,42,127,2930417956
83,25,13,Improv_Metronome,106,1,38,61,2930805716
83,25,13,Improv_Metronome,107,1,38,59,2930828208
83,25,13,Improv_Metronome,108,1,38,45,2930900444
83,25,13,Improv_Metronome,109,5,42,127,2930917832
83,25,13,Improv_Metronome,110,1,38,71,2931325488
83,25,13,Improv_Metronome,111,5,42,127,2931417600
83,25,13,Improv_Metronome,112,1,38,64,2931788460
83,25,13,Improv_Metronome,113,1,38,77,2931814768
83,25,13,Improv_Metronome,114,1,38,45,2931871516
83,25,13,Improv_Metronome,115,5,42,127,2931918152
83,25,13,Improv_Metronome,116,1,38,77,2932352960
83,25,13,Improv_Metronome,117,5,42,127,2932417844
83,25,13,Improv_Metronome,118,1,38,75,2932814656
83,25,13,Improv_Metronome,119,1,38,33,2932910972
83,25,13,Improv_Metronome,120,5,42,127,2932917888
83,25,13,Improv_Metronome,121,1,38,75,2933366688
83,25,13,Improv_Metronome,122,5,42,127,2933418480
83,25,13,Improv_Metronome,123,1,38,76,2933878720
83,25,13,Improv_Metronome,124,1,38,102,2933909368
83,25,13,Improv_Metronome,125,5,42,127,2933917932
83,25,13,Improv_Metronome,126,1,38,42,2933967112
83,25,13,Improv_Metronome,127,1,38,73,2934145060
83,25,13,Improv_Metronome,128,1,38,86,2934273312
83,25,13,Improv_Metronome,129,5,42,127,2934417864
83,25,13,Improv_Metronome,130,1,38,64,2934679812
83,25,13,Improv_Metronome,131,1,38,69,2934722872
83,25,13,Improv_Metronome,132,1,38,45,2934759504
83,25,13,Improv_Metronome,133,5,42,127,2934917592
83,25,13,Improv_Metronome,134,1,38,63,2935002984
83,25,13,Improv_Metronome,135,1,38,92,2935200752
83,25,13,Improv_Metronome,136,1,38,46,2935255192
83,25,13,Improv_Metronome,137,5,42,127,2935418140
83,25,13,Improv_Metronome,138,1,38,86,2935431952
83,25,13,Improv_Metronome,139,1,38,73,2935838704
83,25,13,Improv_Metronome,140,5,42,127,2935917976
83,25,13,Improv_Metronome,141,1,38,91,2935942768
83,25,13,Improv_Metronome,142,1,38,30,2936051280
83,25,13,Improv_Metronome,143,1,38,68,2936236780
83,25,13,Improv_Metronome,144,1,38,69,2936388396
83,25,13,Improv_Metronome,145,5,42,127,2936417604
83,25,13,Improv_Metronome,146,1,38,80,2936581600
83,25,13,Improv_Metronome,147,1,38,42,2936647876
83,25,13,Improv_Metronome,148,1,38,75,2936807768
83,25,13,Improv_Metronome,149,5,42,127,2936918512
83,25,13,Improv_Metronome,150,1,38,66,2937041012
83,25,13,Improv_Metronome,151,1,38,95,2937164796
83,25,13,Improv_Metronome,152,1,38,50,2937214668
83,25,13,Improv_Metronome,153,5,42,127,2937418088
83,25,13,Improv_Metronome,154,1,38,70,2937514256
83,25,13,Improv_Metronome,155,5,42,127,2937917784
83,25,13,Improv_Metronome,156,1,38,57,2938018064
83,25,13,Improv_Metronome,157,5,42,127,2938417628
83,25,13,Improv_Metronome,158,1,38,67,2938428604
83,25,13,Improv_Metronome,159,1,38,66,2938883820
83,25,13,Improv_Metronome,160,5,42,127,2938918336
83,25,13,Improv_Metronome,161,1,38,68,2939409296
83,25,13,Improv_Metronome,162,5,42,127,2939417932
83,25,13,Improv_Metronome,163,5,42,127,2939917632
83,25,13,Improv_Metronome,164,1,38,65,2939926588
83,25,13,Improv_Metronome,165,5,42,127,2940418524
83,25,13,Improv_Metronome,166,1,38,63,2940428528
83,25,13,Improv_Metronome,167,1,38,62,2940891996
83,25,13,Improv_Metronome,168,5,42,127,2940918060
83,25,13,Improv_Metronome,169,1,38,81,2941367460
83,25,13,Improv_Metronome,170,1,38,78,2941392640
83,25,13,Improv_Metronome,171,5,42,127,2941417808
83,25,13,Improv_Metronome,172,1,38,37,2941435048
83,25,13,Improv_Metronome,173,1,38,58,2941787448
83,25,13,Improv_Metronome,174,5,42,127,2941917540
83,25,13,Improv_Metronome,175,1,38,59,2941936440
83,25,13,Improv_Metronome,176,1,38,76,2942269168
83,25,13,Improv_Metronome,177,1,38,50,2942304528
83,25,13,Improv_Metronome,178,1,38,52,2942391496
83,25,13,Improv_Metronome,179,5,42,127,2942418380
83,25,13,Improv_Metronome,180,1,38,60,2942777724
83,25,13,Improv_Metronome,181,1,38,60,2942901492
83,25,13,Improv_Metronome,182,5,42,127,2942918648
83,25,13,Improv_Metronome,183,1,38,80,2943352268
83,25,13,Improv_Metronome,184,1,38,92,2943412156
83,25,13,Improv_Metronome,185,5,42,127,2943417656
83,25,13,Improv_Metronome,186,1,38,42,2943451352
83,25,13,Improv_Metronome,187,1,38,77,2943823048
83,25,13,Improv_Metronome,188,5,42,127,2943918508
83,25,13,Improv_Metronome,189,1,38,67,2944272300
83,25,13,Improv_Metronome,190,1,38,64,2944391536
83,25,13,Improv_Metronome,191,5,42,127,2944418568
83,25,13,Improv_Metronome,192,1,38,66,2944803836
83,25,13,Improv_Metronome,193,5,42,127,2944917800
83,25,13,Improv_Metronome,194,1,38,65,2944951512
83,25,13,Improv_Metronome,195,5,42,127,2945417572
83,25,13,Improv_Metronome,196,1,38,84,2945432884
83,25,13,Improv_Metronome,197,1,38,45,2945481104
83,25,13,Improv_Metronome,198,1,38,66,2945869628
83,25,13,Improv_Metronome,199,5,42,127,2945918580
83,25,13,Improv_Metronome,200,1,38,67,2946333848
83,25,13,Improv_Metronome,201,5,42,127,2946417980
83,25,13,Improv_Metronome,202,1,38,63,2946452576
83,25,13,Improv_Metronome,203,1,38,61,2946857928
83,25,13,Improv_Metronome,204,5,42,127,2946917728
83,25,13,Improv_Metronome,205,1,38,64,2946959432
83,25,13,Improv_Metronome,206,5,42,127,2947417408
83,25,13,Improv_Metronome,207,1,48,80,2947437132
83,25,13,Improv_Metronome,208,1,48,73,2947461644
83,25,13,Improv_Metronome,209,1,48,87,2947871764
83,25,13,Improv_Metronome,210,5,42,127,2947918492
83,25,13,Improv_Metronome,211,1,48,76,2948309376
83,25,13,Improv_Metronome,212,1,48,67,2948355580
83,25,13,Improv_Metronome,213,1,48,37,2948396496
83,25,13,Improv_Metronome,214,5,42,127,2948417848
83,25,13,Improv_Metronome,215,1,48,81,2948727792
83,25,13,Improv_Metronome,216,1,48,80,2948842812
83,25,13,Improv_Metronome,217,5,42,127,2948917668
83,25,13,Improv_Metronome,218,1,48,86,2949292168
83,25,13,Improv_Metronome,219,1,48,77,2949308224
83,25,13,Improv_Metronome,220,1,48,49,2949350316
83,25,13,Improv_Metronome,221,5,42,127,2949418516
83,25,13,Improv_Metronome,222,1,48,90,2949863324
83,25,13,Improv_Metronome,223,5,42,127,2949918260
83,25,13,Improv_Metronome,224,1,48,82,2950370200
83,25,13,Improv_Metronome,225,1,48,81,2950381324
83,25,13,Improv_Metronome,226,5,42,127,2950417860
83,25,13,Improv_Metronome,227,1,48,40,2950443356
83,25,13,Improv_Metronome,228,1,48,75,2950824820
83,25,13,Improv_Metronome,229,5,42,127,2950917384
83,25,13,Improv_Metronome,230,1,48,83,2950945996
83,25,13,Improv_Metronome,231,1,48,76,2951411412
83,25,13,Improv_Metronome,232,5,42,127,2951418400
83,25,13,Improv_Metronome,233,1,48,78,2951446564
83,25,13,Improv_Metronome,234,1,48,44,2951497804
83,25,13,Improv_Metronome,235,5,42,127,2951918060
83,25,13,Improv_Metronome,236,1,48,83,2951936736
83,25,13,Improv_Metronome,237,1,48,73,2952401184
83,25,13,Improv_Metronome,238,5,42,127,2952417524
83,25,13,Improv_Metronome,239,1,48,69,2952424288
83,25,13,Improv_Metronome,240,1,48,30,2952497596
83,25,13,Improv_Metronome,241,1,48,102,2952845256
83,25,13,Improv_Metronome,242,5,42,127,2952918444
83,25,13,Improv_Metronome,243,1,48,47,2952978772
83,25,13,Improv_Metronome,244,5,42,127,2953418420
83,25,13,Improv_Metronome,245,1,48,82,2953428128
83,25,13,Improv_Metronome,246,1,48,79,2953440520
83,25,13,Improv_Metronome,247,1,48,68,2953901152
83,25,13,Improv_Metronome,248,5,42,127,2953917864
83,25,13,Improv_Metronome,249,1,48,66,2953926208
83,25,13,Improv_Metronome,250,5,42,127,2954417548
83,25,13,Improv_Metronome,251,1,38,78,2954435028
83,25,13,Improv_Metronome,252,1,48,79,2954905528
83,25,13,Improv_Metronome,253,1,38,63,2954915912
83,25,13,Improv_Metronome,254,5,42,127,2954918856
83,25,13,Improv_Metronome,255,1,38,66,2955386480
83,25,13,Improv_Metronome,256,1,48,25,2955396632
83,25,13,Improv_Metronome,257,5,42,127,2955418132
83,25,13,Improv_Metronome,258,1,48,72,2955873184
83,25,13,Improv_Metronome,259,1,38,58,2955877432
83,25,13,Improv_Metronome,260,5,42,127,2955917632
83,25,13,Improv_Metronome,261,1,48,72,2956363484
83,25,13,Improv_Metronome,262,1,38,63,2956366828
83,25,13,Improv_Metronome,263,5,42,127,2956418404
83,25,13,Improv_Metronome,264,1,38,80,2956836628
83,25,13,Improv_Metronome,265,1,48,64,2956839340
83,25,13,Improv_Metronome,266,5,42,127,2956918284
83,25,13,Improv_Metronome,267,1,38,42,2956922964
83,25,13,Improv_Metronome,268,1,38,73,2957316524
83,25,13,Improv_Metronome,269,5,42,127,2957417768
83,25,13,Improv_Metronome,270,1,38,79,2957848304
83,25,13,Improv_Metronome,271,5,42,127,2957917476
83,25,13,Improv_Metronome,272,1,38,25,2958180828
83,25,13,Improv_Metronome,273,1,38,70,2958380688
83,25,13,Improv_Metronome,274,5,42,127,2958418272
83,25,13,Improv_Metronome,275,1,38,68,2958845280
83,25,13,Improv_Metronome,276,1,38,76,2958871360
83,25,13,Improv_Metronome,277,5,42,127,2958918168
83,25,13,Improv_Metronome,278,1,38,33,2958938328
83,25,13,Improv_Metronome,279,1,38,71,2959355028
83,25,13,Improv_Metronome,280,5,42,127,2959417616
83,25,13,Improv_Metronome,281,1,38,68,2959883216
83,25,13,Improv_Metronome,282,1,38,74,2959904288
83,25,13,Improv_Metronome,283,5,42,127,2959917512
83,25,13,Improv_Metronome,284,1,38,13,2960063556
83,25,13,Improv_Metronome,285,1,38,75,2960398952
83,25,13,Improv_Metronome,286,5,42,127,2960418136
83,25,13,Improv_Metronome,287,1,38,67,2960891916
83,25,13,Improv_Metronome,288,5,42,127,2960917976
83,25,13,Improv_Metronome,289,1,38,73,2960926096
83,25,13,Improv_Metronome,290,1,38,30,2961005304
83,25,13,Improv_Metronome,291,5,42,127,2961417560
83,25,13,Improv_Metronome,292,1,38,57,2961580920
83,25,13,Improv_Metronome,293,5,42,127,2961918304
83,25,13,Improv_Metronome,294,1,38,62,2961961760
83,25,13,Improv_Metronome,295,1,38,67,2961990092
83,25,13,Improv_Metronome,296,1,38,27,2962064568
83,25,13,Improv_Metronome,297,1,38,68,2962415672
83,25,13,Improv_Metronome,298,5,42,127,2962418468
83,25,13,Improv_Metronome,299,1,38,65,2962881780
83,25,13,Improv_Metronome,300,5,42,127,2962917644
83,25,13,Improv_Metronome,301,1,38,63,2962925456
83,25,13,Improv_Metronome,302,1,38,31,2963021280
83,25,13,Improv_Metronome,303,5,42,127,2963417452
83,25,13,Improv_Metronome,304,1,38,68,2963435080
83,25,13,Improv_Metronome,305,1,38,60,2963864896
83,25,13,Improv_Metronome,306,5,42,127,2963918260
83,25,13,Improv_Metronome,307,1,38,58,2963922932
83,25,13,Improv_Metronome,308,1,38,25,2964052112
83,25,13,Improv_Metronome,309,5,42,127,2964417920
83,25,13,Improv_Metronome,310,1,38,75,2964423504
83,25,13,Improv_Metronome,311,1,38,60,2964832532
83,25,13,Improv_Metronome,312,1,38,68,2964882772
83,25,13,Improv_Metronome,313,5,42,127,2964917512
83,25,13,Improv_Metronome,314,1,38,35,2964946048
83,25,13,Improv_Metronome,315,1,38,80,2965391268
83,25,13,Improv_Metronome,316,5,42,127,2965418308
83,25,13,Improv_Metronome,317,1,38,67,2965818036
83,25,13,Improv_Metronome,318,1,38,69,2965915868
83,25,13,Improv_Metronome,319,5,42,127,2965918428
83,25,13,Improv_Metronome,320,1,38,37,2965986536
83,25,13,Improv_Metronome,321,1,38,76,2966321652
83,25,13,Improv_Metronome,322,5,42,127,2966418384
83,25,13,Improv_Metronome,323,1,38,57,2966822924
83,25,13,Improv_Metronome,324,1,38,70,2966852748
83,25,13,Improv_Metronome,325,5,42,127,2966917556
83,25,13,Improv_Metronome,326,1,38,61,2966992612
83,25,13,Improv_Metronome,327,1,38,77,2967216856
83,25,13,Improv_Metronome,328,1,38,39,2967284376
83,25,13,Improv_Metronome,329,1,38,72,2967405780
83,25,13,Improv_Metronome,330,5,42,127,2967418228
83,25,13,Improv_Metronome,331,1,38,65,2967733188
83,25,13,Improv_Metronome,332,1,38,76,2967795100
83,25,13,Improv_Metronome,333,1,38,37,2967858080
83,25,13,Improv_Metronome,334,5,42,127,2967917956
83,25,13,Improv_Metronome,335,1,38,72,2968173824
83,25,13,Improv_Metronome,336,1,38,66,2968324968
83,25,13,Improv_Metronome,337,5,42,127,2968417552
83,25,13,Improv_Metronome,338,1,38,60,2968789656
83,25,13,Improv_Metronome,339,5,42,127,2968918352
83,25,13,Improv_Metronome,340,1,38,68,2969383172
83,25,13,Improv_Metronome,341,5,42,127,2969417988
83,25,13,Improv_Metronome,342,5,42,127,2969917912
83,25,13,Improv_Metronome,343,1,38,70,2969929704
83,25,13,Improv_Metronome,344,5,42,127,2970417456
83,25,13,Improv_Metronome,345,1,38,70,2970459096
83,25,13,Improv_Metronome,346,5,42,127,2970918272
83,25,13,Improv_Metronome,347,1,38,62,2970939868
83,25,13,Improv_Metronome,348,5,42,127,2971417868
83,25,13,Improv_Metronome,349,1,38,65,2971443824
83,25,13,Improv_Metronome,350,1,48,68,2971903460
83,25,13,Improv_Metronome,351,5,42,127,2971917780
83,25,13,Improv_Metronome,352,1,48,69,2971930764
83,25,13,Improv_Metronome,353,1,48,35,2971998384
83,25,13,Improv_Metronome,354,1,48,83,2972394208
83,25,13,Improv_Metronome,355,5,42,127,2972418332
83,25,13,Improv_Metronome,356,1,48,71,2972838404
83,25,13,Improv_Metronome,357,5,42,127,2972918024
83,25,13,Improv_Metronome,358,1,48,59,2973314984
83,25,13,Improv_Metronome,359,1,48,56,2973378620
83,25,13,Improv_Metronome,360,5,42,127,2973417772
83,25,13,Improv_Metronome,361,1,48,24,2973465452
83,25,13,Improv_Metronome,362,1,48,73,2973871928
83,25,13,Improv_Metronome,363,5,42,127,2973917592
83,25,13,Improv_Metronome,364,1,48,65,2974356672
83,25,13,Improv_Metronome,365,1,48,67,2974397712
83,25,13,Improv_Metronome,366,5,42,127,2974418164
83,25,13,Improv_Metronome,367,1,48,13,2974605292
83,25,13,Improv_Metronome,368,1,48,73,2974864320
83,25,13,Improv_Metronome,369,5,42,127,2974917916
83,25,13,Improv_Metronome,370,1,48,57,2975261820
83,25,13,Improv_Metronome,371,1,48,63,2975319048
83,25,13,Improv_Metronome,372,1,48,38,2975377588
83,25,13,Improv_Metronome,373,5,42,127,2975417712
83,25,13,Improv_Metronome,374,1,48,78,2975856040
83,25,13,Improv_Metronome,375,5,42,127,2975917408
83,25,13,Improv_Metronome,376,1,48,75,2976405700
83,25,13,Improv_Metronome,377,5,42,127,2976418148
83,25,13,Improv_Metronome,378,1,48,70,2976885420
83,25,13,Improv_Metronome,379,5,42,127,2976917844
83,25,13,Improv_Metronome,380,1,48,29,2976972256
83,25,13,Improv_Metronome,381,1,48,70,2977347772
83,25,13,Improv_Metronome,382,5,42,127,2977417664
83,25,13,Improv_Metronome,383,1,48,61,2977433936
83,25,13,Improv_Metronome,384,5,42,127,2977918320
83,25,13,Improv_Metronome,385,1,48,77,2977922932
83,25,13,Improv_Metronome,386,1,48,70,2978392912
83,25,13,Improv_Metronome,387,5,42,127,2978418008
83,25,13,Improv_Metronome,388,5,42,127,2978917712
83,25,13,Improv_Metronome,389,1,48,73,2978936164
83,25,13,Improv_Metronome,390,1,48,80,2979348900
83,25,13,Improv_Metronome,391,1,48,74,2979364884
83,25,13,Improv_Metronome,392,5,42,127,2979417424
83,25,13,Improv_Metronome,393,1,48,38,2979428684
83,25,13,Improv_Metronome,394,1,48,69,2979848676
83,25,13,Improv_Metronome,395,5,42,127,2979918144
83,25,13,Improv_Metronome,396,1,48,70,2980357496
83,25,13,Improv_Metronome,397,5,42,127,2980418064
83,25,13,Improv_Metronome,0,9999,9999,9999,2910915636
83,25,13,Improv_Metronome,1,9999,9999,9999,2911415348
83,25,13,Improv_Metronome,2,9999,9999,9999,2911915068
83,25,13,Improv_Metronome,3,9999,9999,9999,2912415856
83,25,13,Improv_Metronome,4,9999,9999,9999,2912915548
83,25,13,Improv_Metronome,5,9999,9999,9999,2913415284
83,25,13,Improv_Metronome,6,9999,9999,9999,2913916028
83,25,13,Improv_Metronome,7,9999,9999,9999,2914415680
83,25,13,Improv_Metronome,8,9999,9999,9999,2914915420
83,25,13,Improv_Metronome,9,9999,9999,9999,2915415116
83,25,13,Improv_Metronome,10,9999,9999,9999,2915915836
83,25,13,Improv_Metronome,11,9999,9999,9999,2916415592
83,25,13,Improv_Metronome,12,9999,9999,9999,2916915276
83,25,13,Improv_Metronome,13,9999,9999,9999,2917416024
83,25,13,Improv_Metronome,14,9999,9999,9999,2917915768
83,25,13,Improv_Metronome,15,9999,9999,9999,2918415416
83,25,13,Improv_Metronome,16,9999,9999,9999,2918915192
83,25,13,Improv_Metronome,17,9999,9999,9999,2919415880
83,25,13,Improv_Metronome,18,9999,9999,9999,2919915576
83,25,13,Improv_Metronome,19,9999,9999,9999,2920415348
83,25,13,Improv_Metronome,20,9999,9999,9999,2920916064
83,25,13,Improv_Metronome,21,9999,9999,9999,2921415760
83,25,13,Improv_Metronome,22,9999,9999,9999,2921915512
83,25,13,Improv_Metronome,23,9999,9999,9999,2922415212
83,25,13,Improv_Metronome,24,9999,9999,9999,2922915944
83,25,13,Improv_Metronome,25,9999,9999,9999,2923415668
83,25,13,Improv_Metronome,26,9999,9999,9999,2923915344
83,25,13,Improv_Metronome,27,9999,9999,9999,2924416064
83,25,13,Improv_Metronome,28,9999,9999,9999,2924915832
83,25,13,Improv_Metronome,29,9999,9999,9999,2925415528
83,25,13,Improv_Metronome,30,9999,9999,9999,2925915208
83,25,13,Improv_Metronome,31,9999,9999,9999,2926415924
83,25,13,Improv_Metronome,32,9999,9999,9999,2926915672
83,25,13,Improv_Metronome,33,9999,9999,9999,2927415348
83,25,13,Improv_Metronome,34,9999,9999,9999,2927915096
83,25,13,Improv_Metronome,35,9999,9999,9999,2928415864
83,25,13,Improv_Metronome,36,9999,9999,9999,2928915536
83,25,13,Improv_Metronome,37,9999,9999,9999,2929415284
83,25,13,Improv_Metronome,38,9999,9999,9999,2929916016
83,25,13,Improv_Metronome,39,9999,9999,9999,2930415672
83,25,13,Improv_Metronome,40,9999,9999,9999,2930915396
83,25,13,Improv_Metronome,41,9999,9999,9999,2931415092
83,25,13,Improv_Metronome,42,9999,9999,9999,2931915864
83,25,13,Improv_Metronome,43,9999,9999,9999,2932415560
83,25,13,Improv_Metronome,44,9999,9999,9999,2932915304
83,25,13,Improv_Metronome,45,9999,9999,9999,2933416048
83,25,13,Improv_Metronome,46,9999,9999,9999,2933915720
83,25,13,Improv_Metronome,47,9999,9999,9999,2934415428
83,25,13,Improv_Metronome,48,9999,9999,9999,2934915156
83,25,13,Improv_Metronome,49,9999,9999,9999,2935415928
83,25,13,Improv_Metronome,50,9999,9999,9999,2935915616
83,25,13,Improv_Metronome,51,9999,9999,9999,2936415320
83,25,13,Improv_Metronome,52,9999,9999,9999,2936916076
83,25,13,Improv_Metronome,53,9999,9999,9999,2937415804
83,25,13,Improv_Metronome,54,9999,9999,9999,2937915496
83,25,13,Improv_Metronome,55,9999,9999,9999,2938415192
83,25,13,Improv_Metronome,56,9999,9999,9999,2938915904
83,25,13,Improv_Metronome,57,9999,9999,9999,2939415644
83,25,13,Improv_Metronome,58,9999,9999,9999,2939915348
83,25,13,Improv_Metronome,59,9999,9999,9999,2940416088
83,25,13,Improv_Metronome,60,9999,9999,9999,2940915776
83,25,13,Improv_Metronome,61,9999,9999,9999,2941415520
83,25,13,Improv_Metronome,62,9999,9999,9999,2941915256
83,25,13,Improv_Metronome,63,9999,9999,9999,2942415944
83,25,13,Improv_Metronome,64,9999,9999,9999,2942915692
83,25,13,Improv_Metronome,65,9999,9999,9999,2943415368
83,25,13,Improv_Metronome,66,9999,9999,9999,2943915116
83,25,13,Improv_Metronome,67,9999,9999,9999,2944415836
83,25,13,Improv_Metronome,68,9999,9999,9999,2944915516
83,25,13,Improv_Metronome,69,9999,9999,9999,2945415284
83,25,13,Improv_Metronome,70,9999,9999,9999,2945915996
83,25,13,Improv_Metronome,71,9999,9999,9999,2946415692
83,25,13,Improv_Metronome,72,9999,9999,9999,2946915444
83,25,13,Improv_Metronome,73,9999,9999,9999,2947415120
83,25,13,Improv_Metronome,74,9999,9999,9999,2947915836
83,25,13,Improv_Metronome,75,9999,9999,9999,2948415564
83,25,13,Improv_Metronome,76,9999,9999,9999,2948915308
83,25,13,Improv_Metronome,77,9999,9999,9999,2949416008
83,25,13,Improv_Metronome,78,9999,9999,9999,2949915752
83,25,13,Improv_Metronome,79,9999,9999,9999,2950415424
83,25,13,Improv_Metronome,80,9999,9999,9999,2950915172
83,25,13,Improv_Metronome,81,9999,9999,9999,2951415892
83,25,13,Improv_Metronome,82,9999,9999,9999,2951915624
83,25,13,Improv_Metronome,83,9999,9999,9999,2952415312
83,25,13,Improv_Metronome,84,9999,9999,9999,2952916084
83,25,13,Improv_Metronome,85,9999,9999,9999,2953415764
83,25,13,Improv_Metronome,86,9999,9999,9999,2953915504
83,25,13,Improv_Metronome,87,9999,9999,9999,2954415184
83,25,13,Improv_Metronome,88,9999,9999,9999,2954915976
83,25,13,Improv_Metronome,89,9999,9999,9999,2955415624
83,25,13,Improv_Metronome,90,9999,9999,9999,2955915344
83,25,13,Improv_Metronome,91,9999,9999,9999,2956416116
83,25,13,Improv_Metronome,92,9999,9999,9999,2956915776
83,25,13,Improv_Metronome,93,9999,9999,9999,2957415480
83,25,13,Improv_Metronome,94,9999,9999,9999,2957915192
83,25,13,Improv_Metronome,95,9999,9999,9999,2958415984
83,25,13,Improv_Metronome,96,9999,9999,9999,2958915660
83,25,13,Improv_Metronome,97,9999,9999,9999,2959415404
83,25,13,Improv_Metronome,98,9999,9999,9999,2959915076
83,25,13,Improv_Metronome,99,9999,9999,9999,2960415848
83,25,13,Improv_Metronome,100,9999,9999,9999,2960915544
83,25,13,Improv_Metronome,101,9999,9999,9999,2961415276
83,25,13,Improv_Metronome,102,9999,9999,9999,2961916016
83,25,13,Improv_Metronome,103,9999,9999,9999,2962415736
83,25,13,Improv_Metronome,104,9999,9999,9999,2962915432
83,25,13,Improv_Metronome,105,9999,9999,9999,2963415088
83,25,13,Improv_Metronome,106,9999,9999,9999,2963915900
83,25,13,Improv_Metronome,107,9999,9999,9999,2964415556
83,25,13,Improv_Metronome,108,9999,9999,9999,2964915300
83,25,13,Improv_Metronome,109,9999,9999,9999,2965416020
83,25,13,Improv_Metronome,110,9999,9999,9999,2965915732
83,25,13,Improv_Metronome,111,9999,9999,9999,2966415440
83,25,13,Improv_Metronome,112,9999,9999,9999,2966915192
83,25,13,Improv_Metronome,113,9999,9999,9999,2967415868
83,25,13,Improv_Metronome,114,9999,9999,9999,2967915596
83,25,13,Improv_Metronome,115,9999,9999,9999,2968415340
83,25,13,Improv_Metronome,116,9999,9999,9999,2968916064
83,25,13,Improv_Metronome,117,9999,9999,9999,2969415776
83,25,13,Improv_Metronome,118,9999,9999,9999,2969915476
83,25,13,Improv_Metronome,119,9999,9999,9999,2970415172
83,25,13,Improv_Metronome,120,9999,9999,9999,2970915960
83,25,13,Improv_Metronome,121,9999,9999,9999,2971415656
83,25,13,Improv_Metronome,122,9999,9999,9999,2971915344
83,25,13,Improv_Metronome,123,9999,9999,9999,2972416120
83,25,13,Improv_Metronome,124,9999,9999,9999,2972915812
83,25,13,Improv_Metronome,125,9999,9999,9999,2973415484
83,25,13,Improv_Metronome,126,9999,9999,9999,2973915232
83,25,13,Improv_Metronome,127,9999,9999,9999,2974415952
83,25,13,Improv_Metronome,128,9999,9999,9999,2974915704
83,25,13,Improv_Metronome,129,9999,9999,9999,2975415352
83,25,13,Improv_Metronome,130,9999,9999,9999,2975915120
83,25,13,Improv_Metronome,131,9999,9999,9999,2976415864
83,25,13,Improv_Metronome,132,9999,9999,9999,2976915556
83,25,13,Improv_Metronome,133,9999,9999,9999,2977415232
83,25,13,Improv_Metronome,134,9999,9999,9999,2977915960
83,25,13,Improv_Metronome,135,9999,9999,9999,2978415720
83,25,13,Improv_Metronome,136,9999,9999,9999,2978915424
83,25,13,Improv_Metronome,137,9999,9999,9999,2979415140
83,25,13,Improv_Metronome,138,9999,9999,9999,2979915860
83,25,13,Improv_Metronome,139,9999,9999,9999,2980415556
83,26,14,Improv_Melody,0,2,48,80,3033626824
83,26,14,Improv_Melody,1,2,72,80,3033628984
83,26,14,Improv_Melody,2,5,42,127,3033631588
83,26,14,Improv_Melody,3,5,42,110,3034124956
83,26,14,Improv_Melody,4,5,42,110,3034625276
83,26,14,Improv_Melody,5,5,42,110,3035125148
83,26,14,Improv_Melody,6,5,42,127,3035624868
83,26,14,Improv_Melody,7,1,38,56,3035648484
83,26,14,Improv_Melody,8,1,38,58,3035674640
83,26,14,Improv_Melody,9,1,38,32,3035730144
83,26,14,Improv_Melody,10,1,38,17,3035813000
83,26,14,Improv_Melody,11,5,42,110,3036124800
83,26,14,Improv_Melody,12,1,38,57,3036162552
83,26,14,Improv_Melody,13,1,38,50,3036599924
83,26,14,Improv_Melody,14,5,42,110,3036625244
83,26,14,Improv_Melody,15,1,38,60,3036639792
83,26,14,Improv_Melody,16,1,38,35,3036719076
83,26,14,Improv_Melody,17,1,38,21,3036794304
83,26,14,Improv_Melody,18,5,42,110,3037124960
83,26,14,Improv_Melody,19,1,38,51,3037133988
83,26,14,Improv_Melody,20,2,43,80,3037627008
83,26,14,Improv_Melody,21,2,67,80,3037629540
83,26,14,Improv_Melody,22,5,42,127,3037631924
83,26,14,Improv_Melody,23,1,48,56,3037666760
83,26,14,Improv_Melody,24,5,42,110,3038125568
83,26,14,Improv_Melody,25,1,48,56,3038147088
83,26,14,Improv_Melody,26,1,48,46,3038595080
83,26,14,Improv_Melody,27,5,42,110,3038625036
83,26,14,Improv_Melody,28,1,48,54,3038648708
83,26,14,Improv_Melody,29,5,42,110,3039124720
83,26,14,Improv_Melody,30,1,48,55,3039145936
83,26,14,Improv_Melody,31,1,48,45,3039558704
83,26,14,Improv_Melody,32,1,48,59,3039596228
83,26,14,Improv_Melody,33,5,42,127,3039624840
83,26,14,Improv_Melody,34,1,48,33,3039675288
83,26,14,Improv_Melody,35,5,42,110,3040125272
83,26,14,Improv_Melody,36,1,48,65,3040149408
83,26,14,Improv_Melody,37,1,48,58,3040607500
83,26,14,Improv_Melody,38,5,42,110,3040624968
83,26,14,Improv_Melody,39,1,48,61,3040657840
83,26,14,Improv_Melody,40,1,48,59,3041116456
83,26,14,Improv_Melody,41,5,42,110,3041124796
83,26,14,Improv_Melody,42,2,45,80,3041627080
83,26,14,Improv_Melody,43,2,69,80,3041629236
83,26,14,Improv_Melody,44,5,42,127,3041631692
83,26,14,Improv_Melody,45,1,48,52,3041639456
83,26,14,Improv_Melody,46,1,48,56,3041979712
83,26,14,Improv_Melody,47,5,42,110,3042125164
83,26,14,Improv_Melody,48,1,48,47,3042147732
83,26,14,Improv_Melody,49,1,48,52,3042561588
83,26,14,Improv_Melody,50,5,42,110,3042624856
83,26,14,Improv_Melody,51,1,48,46,3043002648
83,26,14,Improv_Melody,52,5,42,110,3043124768
83,26,14,Improv_Melody,53,1,48,49,3043149652
83,26,14,Improv_Melody,54,5,42,127,3043625292
83,26,14,Improv_Melody,55,1,48,53,3043658552
83,26,14,Improv_Melody,56,1,48,52,3044036060
83,26,14,Improv_Melody,57,5,42,110,3044124960
83,26,14,Improv_Melody,58,1,48,50,3044168228
83,26,14,Improv_Melody,59,5,42,110,3044624692
83,26,14,Improv_Melody,60,1,48,54,3044631704
83,26,14,Improv_Melody,61,1,48,57,3045071016
83,26,14,Improv_Melody,62,5,42,110,3045124460
83,26,14,Improv_Melody,63,1,48,52,3045203952
83,26,14,Improv_Melody,64,2,41,80,3045627772
83,26,14,Improv_Melody,65,2,65,80,3045629772
83,26,14,Improv_Melody,66,5,42,127,3045632536
83,26,14,Improv_Melody,67,1,48,59,3045718632
83,26,14,Improv_Melody,68,1,48,52,3046121268
83,26,14,Improv_Melody,69,5,42,110,3046125048
83,26,14,Improv_Melody,70,1,48,56,3046226836
83,26,14,Improv_Melody,71,5,42,110,3046624584
83,26,14,Improv_Melody,72,1,48,55,3046672508
83,26,14,Improv_Melody,73,1,48,59,3047097612
83,26,14,Improv_Melody,74,5,42,110,3047125548
83,26,14,Improv_Melody,75,1,48,54,3047233920
83,26,14,Improv_Melody,76,5,42,127,3047625084
83,26,14,Improv_Melody,77,1,48,57,3047723076
83,26,14,Improv_Melody,78,1,48,52,3048118980
83,26,14,Improv_Melody,79,5,42,110,3048124780
83,26,14,Improv_Melody,80,1,48,46,3048243396
83,26,14,Improv_Melody,81,5,42,110,3048624464
83,26,14,Improv_Melody,82,1,48,46,3048669324
83,26,14,Improv_Melody,83,1,48,51,3049090388
83,26,14,Improv_Melody,84,5,42,110,3049125204
83,26,14,Improv_Melody,85,1,48,49,3049213800
83,26,14,Improv_Melody,86,2,48,80,3049627544
83,26,14,Improv_Melody,87,2,72,80,3049629620
83,26,14,Improv_Melody,88,5,42,127,3049632308
83,26,14,Improv_Melody,89,1,48,61,3049656596
83,26,14,Improv_Melody,90,1,48,58,3050110420
83,26,14,Improv_Melody,91,5,42,110,3050124596
83,26,14,Improv_Melody,92,1,48,38,3050245432
83,26,14,Improv_Melody,93,5,42,110,3050625476
83,26,14,Improv_Melody,94,1,48,59,3050634052
83,26,14,Improv_Melody,95,1,48,56,3051028696
83,26,14,Improv_Melody,96,5,42,110,3051125304
83,26,14,Improv_Melody,97,1,48,50,3051165668
83,26,14,Improv_Melody,98,5,42,127,3051624780
83,26,14,Improv_Melody,99,1,48,56,3051652580
83,26,14,Improv_Melody,100,5,42,110,3052124480
83,26,14,Improv_Melody,101,1,48,57,3052143528
83,26,14,Improv_Melody,102,5,42,110,3052625448
83,26,14,Improv_Melody,103,1,48,49,3052651980
83,26,14,Improv_Melody,104,5,42,110,3053124928
83,26,14,Improv_Melody,105,1,48,51,3053139416
83,26,14,Improv_Melody,106,2,43,80,3053627208
83,26,14,Improv_Melody,107,2,67,80,3053629432
83,26,14,Improv_Melody,108,5,42,127,3053631896
83,26,14,Improv_Melody,109,1,48,59,3053635236
83,26,14,Improv_Melody,110,1,48,53,3054060540
83,26,14,Improv_Melody,111,5,42,110,3054125380
83,26,14,Improv_Melody,112,1,48,53,3054175312
83,26,14,Improv_Melody,113,1,48,57,3054619236
83,26,14,Improv_Melody,114,5,42,110,3054625356
83,26,14,Improv_Melody,115,1,48,54,3055096872
83,26,14,Improv_Melody,116,5,42,110,3055124732
83,26,14,Improv_Melody,117,1,48,46,3055234672
83,26,14,Improv_Melody,118,5,42,127,3055624420
83,26,14,Improv_Melody,119,1,48,56,3055685832
83,26,14,Improv_Melody,120,1,48,56,3056088840
83,26,14,Improv_Melody,121,5,42,110,3056125528
83,26,14,Improv_Melody,122,1,48,42,3056211908
83,26,14,Improv_Melody,123,5,42,110,3056624992
83,26,14,Improv_Melody,124,1,48,55,3056668952
83,26,14,Improv_Melody,125,1,48,61,3057093452
83,26,14,Improv_Melody,126,5,42,110,3057124688
83,26,14,Improv_Melody,127,1,48,45,3057225348
83,26,14,Improv_Melody,128,2,45,80,3057626724
83,26,14,Improv_Melody,129,2,69,80,3057629028
83,26,14,Improv_Melody,130,5,42,127,3057631640
83,26,14,Improv_Melody,131,1,48,59,3057685920
83,26,14,Improv_Melody,132,5,42,110,3058125428
83,26,14,Improv_Melody,133,1,48,60,3058157196
83,26,14,Improv_Melody,134,5,42,110,3058624756
83,26,14,Improv_Melody,135,1,48,59,3058642460
83,26,14,Improv_Melody,136,1,48,59,3059104588
83,26,14,Improv_Melody,137,5,42,110,3059124524
83,26,14,Improv_Melody,138,1,48,67,3059618352
83,26,14,Improv_Melody,139,5,42,127,3059625496
83,26,14,Improv_Melody,140,1,48,60,3060021416
83,26,14,Improv_Melody,141,5,42,110,3060125480
83,26,14,Improv_Melody,142,1,48,55,3060153880
83,26,14,Improv_Melody,143,5,42,110,3060624880
83,26,14,Improv_Melody,144,1,48,61,3060631216
83,26,14,Improv_Melody,145,1,48,61,3061067464
83,26,14,Improv_Melody,146,5,42,110,3061124428
83,26,14,Improv_Melody,147,1,48,65,3061198364
83,26,14,Improv_Melody,148,2,41,80,3061627884
83,26,14,Improv_Melody,149,2,65,80,3061630264
83,26,14,Improv_Melody,150,5,42,127,3061632572
83,26,14,Improv_Melody,151,1,48,55,3061686556
83,26,14,Improv_Melody,152,1,48,57,3062085256
83,26,14,Improv_Melody,153,5,42,110,3062125012
83,26,14,Improv_Melody,154,1,48,46,3062218544
83,26,14,Improv_Melody,155,5,42,110,3062624620
83,26,14,Improv_Melody,156,1,48,62,3062670528
83,26,14,Improv_Melody,157,1,48,55,3063073116
83,26,14,Improv_Melody,158,5,42,110,3063125436
83,26,14,Improv_Melody,159,1,48,57,3063180224
83,26,14,Improv_Melody,160,5,42,127,3063625272
83,26,14,Improv_Melody,161,1,48,70,3063695260
83,26,14,Improv_Melody,162,1,48,66,3064124224
83,26,14,Improv_Melody,163,5,42,110,3064125792
83,26,14,Improv_Melody,164,5,42,110,3064624524
83,26,14,Improv_Melody,165,1,48,65,3064635344
83,26,14,Improv_Melody,166,1,48,53,3065102160
83,26,14,Improv_Melody,167,5,42,110,3065125412
83,26,14,Improv_Melody,168,2,48,80,3065627684
83,26,14,Improv_Melody,169,2,72,80,3065629832
83,26,14,Improv_Melody,170,5,42,127,3065632388
83,26,14,Improv_Melody,171,1,48,78,3065633428
83,26,14,Improv_Melody,172,1,48,50,3066100680
83,26,14,Improv_Melody,173,5,42,110,3066124580
83,26,14,Improv_Melody,174,1,48,73,3066611900
83,26,14,Improv_Melody,175,5,42,110,3066625328
83,26,14,Improv_Melody,176,5,42,110,3067125256
83,26,14,Improv_Melody,177,1,48,70,3067139072
83,26,14,Improv_Melody,178,5,42,127,3067624732
83,26,14,Improv_Melody,179,1,48,71,3067642212
83,26,14,Improv_Melody,180,1,48,67,3067998800
83,26,14,Improv_Melody,181,1,48,48,3068123804
83,26,14,Improv_Melody,182,5,42,110,3068125380
83,26,14,Improv_Melody,183,5,42,110,3068625232
83,26,14,Improv_Melody,184,1,48,68,3068631492
83,26,14,Improv_Melody,185,5,42,110,3069125156
83,26,14,Improv_Melody,186,1,48,67,3069126124
83,26,14,Improv_Melody,187,1,48,46,3069238152
83,26,14,Improv_Melody,188,2,43,80,3069627420
83,26,14,Improv_Melody,189,2,67,80,3069629568
83,26,14,Improv_Melody,190,5,42,127,3069632400
83,26,14,Improv_Melody,191,1,48,59,3069692216
83,26,14,Improv_Melody,192,1,48,65,3070115376
83,26,14,Improv_Melody,193,5,42,110,3070125292
83,26,14,Improv_Melody,194,5,42,110,3070625072
83,26,14,Improv_Melody,195,1,48,60,3070626556
83,26,14,Improv_Melody,196,1,48,65,3071113356
83,26,14,Improv_Melody,197,5,42,110,3071124988
83,26,14,Improv_Melody,198,5,42,127,3071624544
83,26,14,Improv_Melody,199,1,48,66,3071629388
83,26,14,Improv_Melody,200,1,48,53,3072040500
83,26,14,Improv_Melody,201,5,42,110,3072125284
83,26,14,Improv_Melody,202,1,48,58,3072158308
83,26,14,Improv_Melody,203,5,42,110,3072624968
83,26,14,Improv_Melody,204,1,48,62,3072636464
83,26,14,Improv_Melody,205,5,42,110,3073124596
83,26,14,Improv_Melody,206,1,48,68,3073132496
83,26,14,Improv_Melody,207,2,45,80,3073626720
83,26,14,Improv_Melody,208,2,69,80,3073628952
83,26,14,Improv_Melody,209,5,42,127,3073631340
83,26,14,Improv_Melody,210,1,48,63,3073654352
83,26,14,Improv_Melody,211,5,42,110,3074125128
83,26,14,Improv_Melody,212,1,48,74,3074127572
83,26,14,Improv_Melody,213,5,42,110,3074624976
83,26,14,Improv_Melody,214,1,48,76,3074625868
83,26,14,Improv_Melody,215,1,48,75,3075080028
83,26,14,Improv_Melody,216,5,42,110,3075124448
83,26,14,Improv_Melody,217,1,48,54,3075201820
83,26,14,Improv_Melody,218,5,42,127,3075625252
83,26,14,Improv_Melody,219,1,48,74,3075674148
83,26,14,Improv_Melody,220,1,48,68,3076029436
83,26,14,Improv_Melody,221,5,42,110,3076124996
83,26,14,Improv_Melody,222,1,48,61,3076154604
83,26,14,Improv_Melody,223,5,42,110,3076624828
83,26,14,Improv_Melody,224,1,48,78,3076643380
83,26,14,Improv_Melody,225,1,48,66,3077119920
83,26,14,Improv_Melody,226,5,42,110,3077124524
83,26,14,Improv_Melody,227,1,48,58,3077221972
83,26,14,Improv_Melody,228,2,41,80,3077627836
83,26,14,Improv_Melody,229,2,65,80,3077629908
83,26,14,Improv_Melody,230,5,42,127,3077632372
83,26,14,Improv_Melody,231,1,48,70,3077695956
83,26,14,Improv_Melody,232,1,48,66,3078123304
83,26,14,Improv_Melody,233,5,42,110,3078124888
83,26,14,Improv_Melody,234,1,48,54,3078242904
83,26,14,Improv_Melody,235,5,42,110,3078624572
83,26,14,Improv_Melody,236,1,48,64,3078674668
83,26,14,Improv_Melody,237,1,48,65,3079081668
83,26,14,Improv_Melody,238,5,42,110,3079125464
83,26,14,Improv_Melody,239,1,48,52,3079208624
83,26,14,Improv_Melody,240,5,42,127,3079625076
83,26,14,Improv_Melody,241,1,48,64,3079683844
83,26,14,Improv_Melody,242,1,48,70,3080054044
83,26,14,Improv_Melody,243,5,42,110,3080124916
83,26,14,Improv_Melody,244,1,48,57,3080214640
83,26,14,Improv_Melody,245,5,42,110,3080624452
83,26,14,Improv_Melody,246,1,48,73,3080648964
83,26,14,Improv_Melody,247,1,48,68,3081067708
83,26,14,Improv_Melody,248,5,42,110,3081125268
83,26,14,Improv_Melody,249,1,48,64,3081205412
83,26,14,Improv_Melody,250,2,48,80,3081627376
83,26,14,Improv_Melody,251,2,72,80,3081629604
83,26,14,Improv_Melody,252,5,42,127,3081632068
83,26,14,Improv_Melody,253,1,48,84,3081669520
83,26,14,Improv_Melody,254,1,48,69,3082089164
83,26,14,Improv_Melody,255,5,42,110,3082124584
83,26,14,Improv_Melody,256,1,48,64,3082603444
83,26,14,Improv_Melody,257,5,42,110,3082625328
83,26,14,Improv_Melody,258,1,48,66,3083118632
83,26,14,Improv_Melody,259,5,42,110,3083125176
83,26,14,Improv_Melody,260,5,42,127,3083624884
83,26,14,Improv_Melody,261,1,48,73,3083631668
83,26,14,Improv_Melody,262,1,48,67,3084046724
83,26,14,Improv_Melody,263,5,42,110,3084124652
83,26,14,Improv_Melody,264,1,48,61,3084162908
83,26,14,Improv_Melody,265,5,42,110,3084625236
83,26,14,Improv_Melody,266,1,48,74,3084684304
83,26,14,Improv_Melody,267,1,48,69,3085002492
83,26,14,Improv_Melody,268,5,42,110,3085124836
83,26,14,Improv_Melody,269,1,48,63,3085226540
83,26,14,Improv_Melody,270,2,43,80,3085627340
83,26,14,Improv_Melody,271,2,67,80,3085629496
83,26,14,Improv_Melody,272,5,42,127,3085632176
83,26,14,Improv_Melody,273,1,48,68,3085743156
83,26,14,Improv_Melody,274,5,42,110,3086125372
83,26,14,Improv_Melody,275,1,48,61,3086168732
83,26,14,Improv_Melody,276,1,48,56,3086264600
83,26,14,Improv_Melody,277,5,42,110,3086625272
83,26,14,Improv_Melody,278,1,48,68,3086692268
83,26,14,Improv_Melody,279,1,48,73,3087091992
83,26,14,Improv_Melody,280,5,42,110,3087124940
83,26,14,Improv_Melody,281,1,48,54,3087220668
83,26,14,Improv_Melody,282,5,42,127,3087624776
83,26,14,Improv_Melody,283,1,48,70,3087680732
83,26,14,Improv_Melody,284,1,48,70,3088089204
83,26,14,Improv_Melody,285,5,42,110,3088125216
83,26,14,Improv_Melody,286,1,48,63,3088222064
83,26,14,Improv_Melody,287,5,42,110,3088625124
83,26,14,Improv_Melody,288,1,48,72,3088687808
83,26,14,Improv_Melody,289,1,48,72,3089099052
83,26,14,Improv_Melody,290,5,42,110,3089124748
83,26,14,Improv_Melody,291,1,48,61,3089241492
83,26,14,Improv_Melody,292,2,45,80,3089627084
83,26,14,Improv_Melody,293,2,69,80,3089629316
83,26,14,Improv_Melody,294,5,42,127,3089631848
83,26,14,Improv_Melody,295,1,48,62,3089710388
83,26,14,Improv_Melody,296,1,48,54,3090083184
83,26,14,Improv_Melody,297,5,42,110,3090125108
83,26,14,Improv_Melody,298,1,48,44,3090193284
83,26,14,Improv_Melody,299,1,48,62,3090553988
83,26,14,Improv_Melody,300,5,42,110,3090624860
83,26,14,Improv_Melody,301,1,48,48,3090677628
83,26,14,Improv_Melody,302,1,48,67,3091055456
83,26,14,Improv_Melody,303,5,42,110,3091124612
83,26,14,Improv_Melody,304,1,48,38,3091212836
83,26,14,Improv_Melody,305,1,48,65,3091588948
83,26,14,Improv_Melody,306,5,42,127,3091625264
83,26,14,Improv_Melody,307,1,48,49,3091723732
83,26,14,Improv_Melody,308,1,48,62,3092097000
83,26,14,Improv_Melody,309,5,42,110,3092125164
83,26,14,Improv_Melody,310,1,48,45,3092228648
83,26,14,Improv_Melody,311,1,48,61,3092608572
83,26,14,Improv_Melody,312,5,42,110,3092624692
83,26,14,Improv_Melody,313,5,42,110,3093124548
83,26,14,Improv_Melody,314,1,48,77,3093178680
83,26,14,Improv_Melody,315,1,48,65,3093613880
83,26,14,Improv_Melody,316,2,41,80,3093627948
83,26,14,Improv_Melody,317,2,65,80,3093629868
83,26,14,Improv_Melody,318,5,42,127,3093632628
83,26,14,Improv_Melody,319,1,48,60,3094100800
83,26,14,Improv_Melody,320,5,42,110,3094124852
83,26,14,Improv_Melody,321,1,48,65,3094605888
83,26,14,Improv_Melody,322,5,42,110,3094624624
83,26,14,Improv_Melody,323,1,48,71,3095000920
83,26,14,Improv_Melody,324,5,42,110,3095125356
83,26,14,Improv_Melody,325,1,48,53,3095139172
83,26,14,Improv_Melody,326,1,48,56,3095545624
83,26,14,Improv_Melody,327,5,42,127,3095625124
83,26,14,Improv_Melody,328,1,48,58,3095792480
83,26,14,Improv_Melody,329,5,42,110,3096124732
83,26,14,Improv_Melody,330,1,48,83,3096194348
83,26,14,Improv_Melody,331,1,48,48,3096311984
83,26,14,Improv_Melody,332,5,42,110,3096624784
83,26,14,Improv_Melody,333,1,48,62,3096650796
83,26,14,Improv_Melody,334,1,48,45,3096785704
83,26,14,Improv_Melody,335,1,48,62,3097124080
83,26,14,Improv_Melody,336,5,42,110,3097125724
83,26,14,Improv_Melody,337,1,48,49,3097265108
83,26,14,Improv_Melody,338,2,48,80,3097627748
83,26,14,Improv_Melody,339,2,72,80,3097629592
83,26,14,Improv_Melody,340,5,42,127,3097632156
83,26,14,Improv_Melody,341,1,48,61,3097636620
83,26,14,Improv_Melody,342,1,48,44,3097786792
83,26,14,Improv_Melody,343,1,48,61,3098122656
83,26,14,Improv_Melody,344,5,42,110,3098124624
83,26,14,Improv_Melody,345,1,48,44,3098270168
83,26,14,Improv_Melody,346,1,48,60,3098586492
83,26,14,Improv_Melody,347,5,42,110,3098625352
83,26,14,Improv_Melody,348,1,48,47,3098735588
83,26,14,Improv_Melody,349,1,48,67,3099100680
83,26,14,Improv_Melody,350,5,42,110,3099125176
83,26,14,Improv_Melody,351,1,48,43,3099247532
83,26,14,Improv_Melody,352,1,48,63,3099590260
83,26,14,Improv_Melody,353,5,42,127,3099624780
83,26,14,Improv_Melody,354,1,48,52,3099731132
83,26,14,Improv_Melody,355,1,48,66,3100062112
83,26,14,Improv_Melody,356,5,42,110,3100124756
83,26,14,Improv_Melody,357,1,48,46,3100229688
83,26,14,Improv_Melody,358,1,48,62,3100598744
83,26,14,Improv_Melody,359,5,42,110,3100625408
83,26,14,Improv_Melody,360,1,48,55,3100736548
83,26,14,Improv_Melody,361,1,48,51,3101085552
83,26,14,Improv_Melody,362,5,42,110,3101124936
83,26,14,Improv_Melody,363,1,48,48,3101244000
83,26,14,Improv_Melody,364,1,48,61,3101607520
83,26,14,Improv_Melody,365,2,43,80,3101627040
83,26,14,Improv_Melody,366,2,67,80,3101629500
83,26,14,Improv_Melody,367,5,42,127,3101631884
83,26,14,Improv_Melody,368,1,48,53,3101755960
83,26,14,Improv_Melody,369,1,48,59,3102110956
83,26,14,Improv_Melody,370,5,42,110,3102125504
83,26,14,Improv_Melody,371,1,48,54,3102253320
83,26,14,Improv_Melody,372,1,48,62,3102587888
83,26,14,Improv_Melody,373,5,42,110,3102625180
83,26,14,Improv_Melody,374,1,48,54,3102730080
83,26,14,Improv_Melody,375,1,48,71,3103053088
83,26,14,Improv_Melody,376,5,42,110,3103124780
83,26,14,Improv_Melody,377,1,48,52,3103229684
83,26,14,Improv_Melody,378,1,48,68,3103565932
83,26,14,Improv_Melody,379,5,42,127,3103624608
83,26,14,Improv_Melody,380,1,48,56,3103712908
83,26,14,Improv_Melody,381,1,48,64,3104047728
83,26,14,Improv_Melody,382,5,42,110,3104125484
83,26,14,Improv_Melody,383,1,48,54,3104204728
83,26,14,Improv_Melody,384,5,42,110,3104624872
83,26,14,Improv_Melody,385,1,48,69,3104687976
83,26,14,Improv_Melody,386,5,42,110,3105124720
83,26,14,Improv_Melody,387,1,48,67,3105158056
83,26,14,Improv_Melody,388,2,45,80,3105627228
83,26,14,Improv_Melody,389,2,69,80,3105629304
83,26,14,Improv_Melody,390,5,42,127,3105631688
83,26,14,Improv_Melody,391,1,48,66,3105668088
83,26,14,Improv_Melody,392,1,48,64,3106122216
83,26,14,Improv_Melody,393,5,42,110,3106125096
83,26,14,Improv_Melody,394,1,48,79,3106622680
83,26,14,Improv_Melody,395,5,42,110,3106624796
83,26,14,Improv_Melody,396,1,48,64,3107000496
83,26,14,Improv_Melody,397,1,48,65,3107102444
83,26,14,Improv_Melody,398,5,42,110,3107124700
83,26,14,Improv_Melody,399,1,48,76,3107539736
83,26,14,Improv_Melody,400,5,42,127,3107625444
83,26,14,Improv_Melody,401,1,48,59,3107682408
83,26,14,Improv_Melody,402,5,42,110,3108125104
83,26,14,Improv_Melody,403,1,38,46,3108126844
83,26,14,Improv_Melody,404,1,48,60,3108598280
83,26,14,Improv_Melody,405,5,42,110,3108624724
83,26,14,Improv_Melody,406,1,48,66,3109041656
83,26,14,Improv_Melody,407,5,42,110,3109124496
83,26,14,Improv_Melody,408,1,48,64,3109159712
83,26,14,Improv_Melody,409,1,48,66,3109610972
83,26,14,Improv_Melody,410,2,41,80,3109627800
83,26,14,Improv_Melody,411,1,38,53,3109629516
83,26,14,Improv_Melody,412,2,65,80,3109632652
83,26,14,Improv_Melody,413,5,42,127,3109635116
83,26,14,Improv_Melody,414,1,48,72,3110045212
83,26,14,Improv_Melody,415,5,42,110,3110124764
83,26,14,Improv_Melody,416,1,48,61,3110181372
83,26,14,Improv_Melody,417,1,38,55,3110610268
83,26,14,Improv_Melody,418,5,42,110,3110624516
83,26,14,Improv_Melody,419,1,48,82,3110656360
83,26,14,Improv_Melody,420,1,48,64,3111012472
83,26,14,Improv_Melody,421,5,42,110,3111125436
83,26,14,Improv_Melody,422,1,48,61,3111138056
83,26,14,Improv_Melody,423,5,42,127,3111625064
83,26,14,Improv_Melody,424,1,48,79,3111639852
83,26,14,Improv_Melody,425,1,38,57,3111647760
83,26,14,Improv_Melody,426,1,48,71,3111990636
83,26,14,Improv_Melody,427,5,42,110,3112124696
83,26,14,Improv_Melody,428,1,48,56,3112137388
83,26,14,Improv_Melody,429,1,38,58,3112599364
83,26,14,Improv_Melody,430,1,48,69,3112602560
83,26,14,Improv_Melody,431,5,42,110,3112624368
83,26,14,Improv_Melody,432,1,48,65,3113028036
83,26,14,Improv_Melody,433,5,42,110,3113125372
83,26,14,Improv_Melody,434,1,48,55,3113170980
83,26,14,Improv_Melody,435,1,38,61,3113610136
83,26,14,Improv_Melody,436,1,48,77,3113623564
83,26,14,Improv_Melody,437,2,48,80,3113627624
83,26,14,Improv_Melody,438,2,72,80,3113629852
83,26,14,Improv_Melody,439,5,42,127,3113632460
83,26,14,Improv_Melody,440,1,38,27,3113678572
83,26,14,Improv_Melody,441,1,48,68,3114051380
83,26,14,Improv_Melody,442,5,42,110,3114124648
83,26,14,Improv_Melody,443,1,48,56,3114170388
83,26,14,Improv_Melody,444,1,38,65,3114618004
83,26,14,Improv_Melody,0,9999,9999,9999,3033622584
83,26,14,Improv_Melody,1,9999,9999,9999,3034122292
83,26,14,Improv_Melody,2,9999,9999,9999,3034623056
83,26,14,Improv_Melody,3,9999,9999,9999,3035122780
83,26,14,Improv_Melody,4,9999,9999,9999,3035622500
83,26,14,Improv_Melody,5,9999,9999,9999,3036122212
83,26,14,Improv_Melody,6,9999,9999,9999,3036622952
83,26,14,Improv_Melody,7,9999,9999,9999,3037122668
83,26,14,Improv_Melody,8,9999,9999,9999,3037622364
83,26,14,Improv_Melody,9,9999,9999,9999,3038123124
83,26,14,Improv_Melody,10,9999,9999,9999,3038622816
83,26,14,Improv_Melody,11,9999,9999,9999,3039122500
83,26,14,Improv_Melody,12,9999,9999,9999,3039622248
83,26,14,Improv_Melody,13,9999,9999,9999,3040122980
83,26,14,Improv_Melody,14,9999,9999,9999,3040622672
83,26,14,Improv_Melody,15,9999,9999,9999,3041122352
83,26,14,Improv_Melody,16,9999,9999,9999,3041622132
83,26,14,Improv_Melody,17,9999,9999,9999,3042122872
83,26,14,Improv_Melody,18,9999,9999,9999,3042622564
83,26,14,Improv_Melody,19,9999,9999,9999,3043122248
83,26,14,Improv_Melody,20,9999,9999,9999,3043622996
83,26,14,Improv_Melody,21,9999,9999,9999,3044122740
83,26,14,Improv_Melody,22,9999,9999,9999,3044622400
83,26,14,Improv_Melody,23,9999,9999,9999,3045122168
83,26,14,Improv_Melody,24,9999,9999,9999,3045622900
83,26,14,Improv_Melody,25,9999,9999,9999,3046122608
83,26,14,Improv_Melody,26,9999,9999,9999,3046622292
83,26,14,Improv_Melody,27,9999,9999,9999,3047123032
83,26,14,Improv_Melody,28,9999,9999,9999,3047622716
83,26,14,Improv_Melody,29,9999,9999,9999,3048122484
83,26,14,Improv_Melody,30,9999,9999,9999,3048622172
83,26,14,Improv_Melody,31,9999,9999,9999,3049122912
83,26,14,Improv_Melody,32,9999,9999,9999,3049622596
83,26,14,Improv_Melody,33,9999,9999,9999,3050122304
83,26,14,Improv_Melody,34,9999,9999,9999,3050623032
83,26,14,Improv_Melody,35,9999,9999,9999,3051122804
83,26,14,Improv_Melody,36,9999,9999,9999,3051622488
83,26,14,Improv_Melody,37,9999,9999,9999,3052122188
83,26,14,Improv_Melody,38,9999,9999,9999,3052622932
83,26,14,Improv_Melody,39,9999,9999,9999,3053122636
83,26,14,Improv_Melody,40,9999,9999,9999,3053622332
83,26,14,Improv_Melody,41,9999,9999,9999,3054123088
83,26,14,Improv_Melody,42,9999,9999,9999,3054622816
83,26,14,Improv_Melody,43,9999,9999,9999,3055122516
83,26,14,Improv_Melody,44,9999,9999,9999,3055622200
83,26,14,Improv_Melody,45,9999,9999,9999,3056122940
83,26,14,Improv_Melody,46,9999,9999,9999,3056622700
83,26,14,Improv_Melody,47,9999,9999,9999,3057122392
83,26,14,Improv_Melody,48,9999,9999,9999,3057622076
83,26,14,Improv_Melody,49,9999,9999,9999,3058122840
83,26,14,Improv_Melody,50,9999,9999,9999,3058622540
83,26,14,Improv_Melody,51,9999,9999,9999,3059122232
83,26,14,Improv_Melody,52,9999,9999,9999,3059622980
83,26,14,Improv_Melody,53,9999,9999,9999,3060122740
83,26,14,Improv_Melody,54,9999,9999,9999,3060622440
83,26,14,Improv_Melody,55,9999,9999,9999,3061122136
83,26,14,Improv_Melody,56,9999,9999,9999,3061622864
83,26,14,Improv_Melody,57,9999,9999,9999,3062122572
83,26,14,Improv_Melody,58,9999,9999,9999,3062622328
83,26,14,Improv_Melody,59,9999,9999,9999,3063122996
83,26,14,Improv_Melody,60,9999,9999,9999,3063622756
83,26,14,Improv_Melody,61,9999,9999,9999,3064122456
83,26,14,Improv_Melody,62,9999,9999,9999,3064622160
83,26,14,Improv_Melody,63,9999,9999,9999,3065122900
83,26,14,Improv_Melody,64,9999,9999,9999,3065622580
83,26,14,Improv_Melody,65,9999,9999,9999,3066122288
83,26,14,Improv_Melody,66,9999,9999,9999,3066623036
83,26,14,Improv_Melody,67,9999,9999,9999,3067122740
83,26,14,Improv_Melody,68,9999,9999,9999,3067622516
83,26,14,Improv_Melody,69,9999,9999,9999,3068122192
83,26,14,Improv_Melody,70,9999,9999,9999,3068622940
83,26,14,Improv_Melody,71,9999,9999,9999,3069122640
83,26,14,Improv_Melody,72,9999,9999,9999,3069622392
83,26,14,Improv_Melody,73,9999,9999,9999,3070123072
83,26,14,Improv_Melody,74,9999,9999,9999,3070622776
83,26,14,Improv_Melody,75,9999,9999,9999,3071122548
83,26,14,Improv_Melody,76,9999,9999,9999,3071622252
83,26,14,Improv_Melody,77,9999,9999,9999,3072122992
83,26,14,Improv_Melody,78,9999,9999,9999,3072622676
83,26,14,Improv_Melody,79,9999,9999,9999,3073122376
83,26,14,Improv_Melody,80,9999,9999,9999,3073622076
83,26,14,Improv_Melody,81,9999,9999,9999,3074122836
83,26,14,Improv_Melody,82,9999,9999,9999,3074622536
83,26,14,Improv_Melody,83,9999,9999,9999,3075122228
83,26,14,Improv_Melody,84,9999,9999,9999,3075622960
83,26,14,Improv_Melody,85,9999,9999,9999,3076122704
83,26,14,Improv_Melody,86,9999,9999,9999,3076622388
83,26,14,Improv_Melody,87,9999,9999,9999,3077122156
83,26,14,Improv_Melody,88,9999,9999,9999,3077622888
83,26,14,Improv_Melody,89,9999,9999,9999,3078122608
83,26,14,Improv_Melody,90,9999,9999,9999,3078622280
83,26,14,Improv_Melody,91,9999,9999,9999,3079123020
83,26,14,Improv_Melody,92,9999,9999,9999,3079622708
83,26,14,Improv_Melody,93,9999,9999,9999,3080122476
83,26,14,Improv_Melody,94,9999,9999,9999,3080622160
83,26,14,Improv_Melody,95,9999,9999,9999,3081122900
83,26,14,Improv_Melody,96,9999,9999,9999,3081622584
83,26,14,Improv_Melody,97,9999,9999,9999,3082122288
83,26,14,Improv_Melody,98,9999,9999,9999,3082623036
83,26,14,Improv_Melody,99,9999,9999,9999,3083122808
83,26,14,Improv_Melody,100,9999,9999,9999,3083622516
83,26,14,Improv_Melody,101,9999,9999,9999,3084122208
83,26,14,Improv_Melody,102,9999,9999,9999,3084622940
83,26,14,Improv_Melody,103,9999,9999,9999,3085122620
83,26,14,Improv_Melody,104,9999,9999,9999,3085622392
83,26,14,Improv_Melody,105,9999,9999,9999,3086123076
83,26,14,Improv_Melody,106,9999,9999,9999,3086622828
83,26,14,Improv_Melody,107,9999,9999,9999,3087122500
83,26,14,Improv_Melody,108,9999,9999,9999,3087622260
83,26,14,Improv_Melody,109,9999,9999,9999,3088123000
83,26,14,Improv_Melody,110,9999,9999,9999,3088622684
83,26,14,Improv_Melody,111,9999,9999,9999,3089122380
83,26,14,Improv_Melody,112,9999,9999,9999,3089622136
83,26,14,Improv_Melody,113,9999,9999,9999,3090122816
83,26,14,Improv_Melody,114,9999,9999,9999,3090622568
83,26,14,Improv_Melody,115,9999,9999,9999,3091122244
83,26,14,Improv_Melody,116,9999,9999,9999,3091622972
83,26,14,Improv_Melody,117,9999,9999,9999,3092122720
83,26,14,Improv_Melody,118,9999,9999,9999,3092622400
83,26,14,Improv_Melody,119,9999,9999,9999,3093122108
83,26,14,Improv_Melody,120,9999,9999,9999,3093622848
83,26,14,Improv_Melody,121,9999,9999,9999,3094122560
83,26,14,Improv_Melody,122,9999,9999,9999,3094622260
83,26,14,Improv_Melody,123,9999,9999,9999,3095123064
83,26,14,Improv_Melody,124,9999,9999,9999,3095622756
83,26,14,Improv_Melody,125,9999,9999,9999,3096122440
83,26,14,Improv_Melody,126,9999,9999,9999,3096622192
83,26,14,Improv_Melody,127,9999,9999,9999,3097122916
83,26,14,Improv_Melody,128,9999,9999,9999,3097622644
83,26,14,Improv_Melody,129,9999,9999,9999,3098122364
83,26,14,Improv_Melody,130,9999,9999,9999,3098623056
83,26,14,Improv_Melody,131,9999,9999,9999,3099122736
83,26,14,Improv_Melody,132,9999,9999,9999,3099622488
83,26,14,Improv_Melody,133,9999,9999,9999,3100122168
83,26,14,Improv_Melody,134,9999,9999,9999,3100622968
83,26,14,Improv_Melody,135,9999,9999,9999,3101122644
83,26,14,Improv_Melody,136,9999,9999,9999,3101622324
83,26,14,Improv_Melody,137,9999,9999,9999,3102123060
83,26,14,Improv_Melody,138,9999,9999,9999,3102622812
83,26,14,Improv_Melody,139,9999,9999,9999,3103122488
83,26,14,Improv_Melody,140,9999,9999,9999,3103622244
83,26,14,Improv_Melody,141,9999,9999,9999,3104122968
83,26,14,Improv_Melody,142,9999,9999,9999,3104622652
83,26,14,Improv_Melody,143,9999,9999,9999,3105122352
83,26,14,Improv_Melody,144,9999,9999,9999,3105622124
83,26,14,Improv_Melody,145,9999,9999,9999,3106122804
83,26,14,Improv_Melody,146,9999,9999,9999,3106622544
83,26,14,Improv_Melody,147,9999,9999,9999,3107122256
83,26,14,Improv_Melody,148,9999,9999,9999,3107623004
83,26,14,Improv_Melody,149,9999,9999,9999,3108122736
83,26,14,Improv_Melody,150,9999,9999,9999,3108622432
83,26,14,Improv_Melody,151,9999,9999,9999,3109122132
83,26,14,Improv_Melody,152,9999,9999,9999,3109622852
83,26,14,Improv_Melody,153,9999,9999,9999,3110122544
83,26,14,Improv_Melody,154,9999,9999,9999,3110622300
83,26,14,Improv_Melody,155,9999,9999,9999,3111122996
83,26,14,Improv_Melody,156,9999,9999,9999,3111622772
83,26,14,Improv_Melody,157,9999,9999,9999,3112122476
83,26,14,Improv_Melody,158,9999,9999,9999,3112622152
83,26,14,Improv_Melody,159,9999,9999,9999,3113122928
83,26,14,Improv_Melody,160,9999,9999,9999,3113622620
83,26,14,Improv_Melody,161,9999,9999,9999,3114122356
