pid,taskRunCount,taskID,taskName,i,channel,pitch,velocity,microseconds
1,1,Ticks_Pract_5,0,5,42,127,83158236
861,1,Ticks_Pract_5,1,5,42,127,83658024
861,1,Ticks_Pract_5,2,5,42,127,84158040
861,1,Ticks_Pract_5,3,5,42,127,84657456
861,1,Ticks_Pract_5,4,1,48,29,84692736
861,1,Ticks_Pract_5,5,5,42,127,85158124
861,1,Ticks_Pract_5,6,1,48,32,85172908
861,1,Ticks_Pract_5,7,1,48,31,85639072
861,1,Ticks_Pract_5,8,5,42,127,85658108
861,1,Ticks_Pract_5,9,1,48,19,86151108
861,1,Ticks_Pract_5,10,5,42,127,86157656
861,1,Ticks_Pract_5,11,1,48,30,86621784
861,1,Ticks_Pract_5,12,5,42,127,86658396
861,1,Ticks_Pract_5,13,1,48,37,87144068
861,1,Ticks_Pract_5,14,5,42,127,87158092
861,1,Ticks_Pract_5,15,1,48,40,87646536
861,1,Ticks_Pract_5,16,5,42,127,87658160
861,1,Ticks_Pract_5,17,1,48,35,88143756
861,1,Ticks_Pract_5,18,5,42,127,88157408
861,1,Ticks_Pract_5,19,1,48,37,88647344
861,1,Ticks_Pract_5,20,5,42,127,88658148
861,1,Ticks_Pract_5,21,1,48,33,89132896
861,1,Ticks_Pract_5,22,5,42,127,89157992
861,1,Ticks_Pract_5,23,1,48,35,89627556
861,1,Ticks_Pract_5,24,5,42,127,89657908
861,1,Ticks_Pract_5,25,1,48,35,90120744
861,1,Ticks_Pract_5,26,5,42,127,90157528
861,1,Ticks_Pract_5,27,1,48,39,90609892
861,1,Ticks_Pract_5,28,5,42,127,90658048
861,1,Ticks_Pract_5,29,1,48,31,91109960
861,1,Ticks_Pract_5,30,5,42,127,91158088
861,1,Ticks_Pract_5,31,1,48,30,91655368
861,1,Ticks_Pract_5,32,5,42,127,91657484
861,1,Ticks_Pract_5,33,1,48,33,92143908
861,1,Ticks_Pract_5,34,5,42,127,92158452
861,1,Ticks_Pract_5,35,1,48,32,92650632
861,1,Ticks_Pract_5,36,5,42,127,92658144
861,1,Ticks_Pract_5,37,1,48,21,93131548
861,1,Ticks_Pract_5,38,5,42,127,93157840
861,1,Ticks_Pract_5,39,1,48,38,93622868
861,1,Ticks_Pract_5,40,5,42,127,93657460
861,1,Ticks_Pract_5,41,1,48,32,94138796
861,1,Ticks_Pract_5,42,5,42,127,94158052
861,1,Ticks_Pract_5,43,1,48,39,94647768
861,1,Ticks_Pract_5,44,5,42,127,94657896
861,1,Ticks_Pract_5,45,1,48,38,95143568
861,1,Ticks_Pract_5,46,5,42,127,95157740
861,1,Ticks_Pract_5,47,1,48,36,95628384
861,1,Ticks_Pract_5,48,5,42,127,95658408
861,1,Ticks_Pract_5,49,1,48,28,96127848
861,1,Ticks_Pract_5,50,5,42,127,96157952
861,1,Ticks_Pract_5,51,1,48,42,96638240
861,1,Ticks_Pract_5,52,5,42,127,96657796
861,1,Ticks_Pract_5,53,1,48,39,97075328
861,1,Ticks_Pract_5,54,5,42,127,97157416
861,1,Ticks_Pract_5,55,5,42,127,97658236
861,1,Ticks_Pract_5,56,1,48,29,97705708
861,1,Ticks_Pract_5,57,5,42,127,98157784
861,1,Ticks_Pract_5,58,1,48,40,98159720
861,1,Ticks_Pract_5,59,5,42,127,98657848
861,1,Ticks_Pract_5,60,1,48,33,98696796
861,1,Ticks_Pract_5,61,5,42,127,99158516
861,1,Ticks_Pract_5,62,1,48,37,99172484
861,1,Ticks_Pract_5,63,1,48,31,99636556
861,1,Ticks_Pract_5,64,5,42,127,99657980
861,1,Ticks_Pract_5,65,5,42,127,100157684
861,1,Ticks_Pract_5,66,1,48,28,100171720
861,1,Ticks_Pract_5,67,1,48,38,100647536
861,1,Ticks_Pract_5,68,5,42,127,100657596
861,1,Ticks_Pract_5,69,1,48,15,101155160
861,1,Ticks_Pract_5,70,5,42,127,101158188
861,1,Ticks_Pract_5,71,5,42,127,101657940
861,1,Ticks_Pract_5,72,1,48,38,101665340
861,1,Ticks_Pract_5,73,5,42,127,102157780
861,1,Ticks_Pract_5,74,1,48,35,102160456
861,1,Ticks_Pract_5,75,5,42,127,102658300
861,1,Ticks_Pract_5,76,1,48,28,102692184
861,1,Ticks_Pract_5,0,9999,9999,9999,83156020
861,1,Ticks_Pract_5,1,9999,9999,9999,83655736
861,1,Ticks_Pract_5,2,9999,9999,9999,84155452
861,1,Ticks_Pract_5,3,9999,9999,9999,84655168
861,1,Ticks_Pract_5,4,9999,9999,9999,85155908
861,1,Ticks_Pract_5,5,9999,9999,9999,85655668
861,1,Ticks_Pract_5,6,9999,9999,9999,86155364
861,1,Ticks_Pract_5,7,9999,9999,9999,86656112
861,1,Ticks_Pract_5,8,9999,9999,9999,87155800
861,1,Ticks_Pract_5,9,9999,9999,9999,87655496
861,1,Ticks_Pract_5,10,9999,9999,9999,88155192
861,1,Ticks_Pract_5,11,9999,9999,9999,88655932
861,1,Ticks_Pract_5,12,9999,9999,9999,89155704
861,1,Ticks_Pract_5,13,9999,9999,9999,89655396
861,1,Ticks_Pract_5,14,9999,9999,9999,90155092
861,1,Ticks_Pract_5,15,9999,9999,9999,90655808
861,1,Ticks_Pract_5,16,9999,9999,9999,91155576
861,1,Ticks_Pract_5,17,9999,9999,9999,91655240
861,1,Ticks_Pract_5,18,9999,9999,9999,92156012
861,1,Ticks_Pract_5,19,9999,9999,9999,92655708
861,1,Ticks_Pract_5,20,9999,9999,9999,93155400
861,1,Ticks_Pract_5,21,9999,9999,9999,93655096
861,1,Ticks_Pract_5,22,9999,9999,9999,94155836
861,1,Ticks_Pract_5,23,9999,9999,9999,94655608
861,1,Ticks_Pract_5,24,9999,9999,9999,95155300
861,1,Ticks_Pract_5,25,9999,9999,9999,95656044
861,1,Ticks_Pract_5,26,9999,9999,9999,96155740
861,1,Ticks_Pract_5,27,9999,9999,9999,96655432
861,1,Ticks_Pract_5,28,9999,9999,9999,97155128
861,1,Ticks_Pract_5,29,9999,9999,9999,97655872
861,1,Ticks_Pract_5,30,9999,9999,9999,98155568
861,1,Ticks_Pract_5,31,9999,9999,9999,98655336
861,1,Ticks_Pract_5,32,9999,9999,9999,99156076
861,1,Ticks_Pract_5,33,9999,9999,9999,99655764
861,1,Ticks_Pract_5,34,9999,9999,9999,100155468
861,1,Ticks_Pract_5,35,9999,9999,9999,100655156
861,1,Ticks_Pract_5,36,9999,9999,9999,101155900
861,1,Ticks_Pract_5,37,9999,9999,9999,101655648
861,1,Ticks_Pract_5,38,9999,9999,9999,102155344
861,1,Ticks_Pract_5,39,9999,9999,9999,102656088
862,0,Ticks_Pract_8,0,5,42,127,127643108
862,0,Ticks_Pract_8,1,5,42,127,128442640
862,0,Ticks_Pract_8,2,1,48,18,128838876
862,0,Ticks_Pract_8,3,5,42,127,129242448
862,0,Ticks_Pract_8,4,1,48,26,129439392
862,0,Ticks_Pract_8,5,5,42,127,130043376
862,0,Ticks_Pract_8,6,1,48,25,130243464
862,0,Ticks_Pract_8,7,5,42,127,130842964
862,0,Ticks_Pract_8,8,1,48,23,131055536
862,0,Ticks_Pract_8,9,5,42,127,131642792
862,0,Ticks_Pract_8,10,1,48,20,131909900
862,0,Ticks_Pract_8,11,5,42,127,132442452
862,0,Ticks_Pract_8,12,1,48,17,132707016
862,0,Ticks_Pract_8,13,5,42,127,133243308
862,0,Ticks_Pract_8,14,1,48,16,133391760
862,0,Ticks_Pract_8,15,5,42,127,134042964
862,0,Ticks_Pract_8,16,1,48,17,134122752
862,0,Ticks_Pract_8,17,5,42,127,134842700
862,0,Ticks_Pract_8,18,1,48,31,134928696
862,0,Ticks_Pract_8,19,5,42,127,135642432
862,0,Ticks_Pract_8,20,1,48,26,135648544
862,0,Ticks_Pract_8,21,1,48,32,136407716
862,0,Ticks_Pract_8,22,5,42,127,136443424
862,0,Ticks_Pract_8,23,1,48,32,137184564
862,0,Ticks_Pract_8,24,5,42,127,137242864
862,0,Ticks_Pract_8,25,1,48,32,138018800
862,0,Ticks_Pract_8,26,5,42,127,138042844
862,0,Ticks_Pract_8,27,1,48,37,138780888
862,0,Ticks_Pract_8,28,5,42,127,138842504
862,0,Ticks_Pract_8,29,1,48,28,139629260
862,0,Ticks_Pract_8,30,5,42,127,139643432
862,0,Ticks_Pract_8,31,1,48,29,140416360
862,0,Ticks_Pract_8,32,5,42,127,140443168
862,0,Ticks_Pract_8,33,1,48,21,140471628
862,0,Ticks_Pract_8,34,1,48,35,141234468
862,0,Ticks_Pract_8,35,5,42,127,141242656
862,0,Ticks_Pract_8,36,1,48,35,142033528
862,0,Ticks_Pract_8,37,5,42,127,142042536
862,0,Ticks_Pract_8,38,1,48,33,142831020
862,0,Ticks_Pract_8,39,5,42,127,142843316
862,0,Ticks_Pract_8,40,1,48,16,142927452
862,0,Ticks_Pract_8,41,5,42,127,143643184
862,0,Ticks_Pract_8,42,1,48,39,143665256
862,0,Ticks_Pract_8,43,1,48,23,143724696
862,0,Ticks_Pract_8,44,5,42,127,144442700
862,0,Ticks_Pract_8,45,1,48,36,144485536
862,0,Ticks_Pract_8,46,5,42,127,145242432
862,0,Ticks_Pract_8,47,1,48,35,145294544
862,0,Ticks_Pract_8,48,5,42,127,146043212
862,0,Ticks_Pract_8,49,1,48,35,146079240
862,0,Ticks_Pract_8,50,5,42,127,146843244
862,0,Ticks_Pract_8,51,1,48,36,146897228
862,0,Ticks_Pract_8,52,5,42,127,147642680
862,0,Ticks_Pract_8,53,1,48,37,147721644
862,0,Ticks_Pract_8,54,5,42,127,148442560
862,0,Ticks_Pract_8,55,1,48,27,148485324
862,0,Ticks_Pract_8,56,5,42,127,149243120
862,0,Ticks_Pract_8,57,1,48,33,149271672
862,0,Ticks_Pract_8,58,5,42,127,150043148
862,0,Ticks_Pract_8,59,1,48,24,150062228
862,0,Ticks_Pract_8,60,5,42,127,150842608
862,0,Ticks_Pract_8,61,1,48,29,150858368
862,0,Ticks_Pract_8,0,9999,9999,9999,127640672
862,0,Ticks_Pract_8,1,9999,9999,9999,128440428
862,0,Ticks_Pract_8,2,9999,9999,9999,129240160
862,0,Ticks_Pract_8,3,9999,9999,9999,130040940
862,0,Ticks_Pract_8,4,9999,9999,9999,130840672
862,0,Ticks_Pract_8,5,9999,9999,9999,131640432
862,0,Ticks_Pract_8,6,9999,9999,9999,132440164
862,0,Ticks_Pract_8,7,9999,9999,9999,133240944
862,0,Ticks_Pract_8,8,9999,9999,9999,134040676
862,0,Ticks_Pract_8,9,9999,9999,9999,134840408
862,0,Ticks_Pract_8,10,9999,9999,9999,135640140
862,0,Ticks_Pract_8,11,9999,9999,9999,136440916
862,0,Ticks_Pract_8,12,9999,9999,9999,137240648
862,0,Ticks_Pract_8,13,9999,9999,9999,138040408
862,0,Ticks_Pract_8,14,9999,9999,9999,138840140
862,0,Ticks_Pract_8,15,9999,9999,9999,139640920
862,0,Ticks_Pract_8,16,9999,9999,9999,140440656
862,0,Ticks_Pract_8,17,9999,9999,9999,141240368
862,0,Ticks_Pract_8,18,9999,9999,9999,142040176
862,0,Ticks_Pract_8,19,9999,9999,9999,142840880
862,0,Ticks_Pract_8,20,9999,9999,9999,143640672
862,0,Ticks_Pract_8,21,9999,9999,9999,144440408
862,0,Ticks_Pract_8,22,9999,9999,9999,145240144
862,0,Ticks_Pract_8,23,9999,9999,9999,146040924
862,0,Ticks_Pract_8,24,9999,9999,9999,146840656
862,0,Ticks_Pract_8,25,9999,9999,9999,147640388
862,0,Ticks_Pract_8,26,9999,9999,9999,148440124
862,0,Ticks_Pract_8,27,9999,9999,9999,149240904
862,0,Ticks_Pract_8,28,9999,9999,9999,150040636
862,0,Ticks_Pract_8,29,9999,9999,9999,150840396
863,4,T1_SMS_5,0,5,42,127,256300632
863,4,T1_SMS_5,1,5,42,127,256800200
863,4,T1_SMS_5,2,1,48,15,256966828
863,4,T1_SMS_5,3,5,42,127,257299796
863,4,T1_SMS_5,4,5,42,127,257799732
863,4,T1_SMS_5,5,5,42,127,258300200
863,4,T1_SMS_5,6,5,42,127,258799916
863,4,T1_SMS_5,7,5,42,127,259299780
863,4,T1_SMS_5,8,5,42,127,259800692
863,4,T1_SMS_5,9,5,42,127,260300112
863,4,T1_SMS_5,10,1,48,19,260328136
863,4,T1_SMS_5,11,5,42,127,260799880
863,4,T1_SMS_5,12,1,48,23,260804120
863,4,T1_SMS_5,13,1,48,28,261231612
863,4,T1_SMS_5,14,5,42,127,261299568
863,4,T1_SMS_5,15,5,42,127,261800168
863,4,T1_SMS_5,16,1,48,23,261808072
863,4,T1_SMS_5,17,1,48,29,262268704
863,4,T1_SMS_5,18,5,42,127,262300152
863,4,T1_SMS_5,19,1,48,28,262775204
863,4,T1_SMS_5,20,5,42,127,262799772
863,4,T1_SMS_5,21,1,48,29,263271160
863,4,T1_SMS_5,22,5,42,127,263299544
863,4,T1_SMS_5,23,1,48,34,263778108
863,4,T1_SMS_5,24,5,42,127,263800136
863,4,T1_SMS_5,25,1,48,32,264291644
863,4,T1_SMS_5,26,5,42,127,264299904
863,4,T1_SMS_5,27,1,48,32,264797412
863,4,T1_SMS_5,28,5,42,127,264799528
863,4,T1_SMS_5,29,1,48,31,265283328
863,4,T1_SMS_5,30,5,42,127,265300564
863,4,T1_SMS_5,31,5,42,127,265799968
863,4,T1_SMS_5,32,1,48,25,265851776
863,4,T1_SMS_5,33,1,48,38,266294612
863,4,T1_SMS_5,34,5,42,127,266299808
863,4,T1_SMS_5,35,1,48,36,266786744
863,4,T1_SMS_5,36,5,42,127,266799424
863,4,T1_SMS_5,37,1,48,40,267279540
863,4,T1_SMS_5,38,5,42,127,267300388
863,4,T1_SMS_5,39,1,48,24,267347028
863,4,T1_SMS_5,40,1,48,28,267797776
863,4,T1_SMS_5,41,5,42,127,267799816
863,4,T1_SMS_5,42,1,48,35,268275460
863,4,T1_SMS_5,43,5,42,127,268299584
863,4,T1_SMS_5,44,1,48,21,268763492
863,4,T1_SMS_5,45,5,42,127,268800548
863,4,T1_SMS_5,46,5,42,127,269300176
863,4,T1_SMS_5,47,1,48,20,269337880
863,4,T1_SMS_5,48,5,42,127,269799720
863,4,T1_SMS_5,49,1,48,23,269815108
863,4,T1_SMS_5,50,1,48,25,270291596
863,4,T1_SMS_5,51,5,42,127,270299560
863,4,T1_SMS_5,52,1,48,26,270791288
863,4,T1_SMS_5,53,5,42,127,270800372
863,4,T1_SMS_5,54,5,42,127,271299928
863,4,T1_SMS_5,55,1,48,19,271335056
863,4,T1_SMS_5,56,5,42,127,271799624
863,4,T1_SMS_5,57,1,48,24,271839840
863,4,T1_SMS_5,58,5,42,127,272300288
863,4,T1_SMS_5,59,1,48,19,272346716
863,4,T1_SMS_5,60,1,48,25,272778628
863,4,T1_SMS_5,61,5,42,127,272800124
863,4,T1_SMS_5,62,5,42,127,273299752
863,4,T1_SMS_5,63,1,48,25,273326056
863,4,T1_SMS_5,64,5,42,127,273799524
863,4,T1_SMS_5,65,1,48,27,273815656
863,4,T1_SMS_5,66,5,42,127,274300264
863,4,T1_SMS_5,67,1,48,26,274305848
863,4,T1_SMS_5,68,1,48,26,274793408
863,4,T1_SMS_5,69,5,42,127,274799880
863,4,T1_SMS_5,70,1,48,24,275288468
863,4,T1_SMS_5,71,5,42,127,275299720
863,4,T1_SMS_5,72,5,42,127,275800472
863,4,T1_SMS_5,73,1,48,22,275812116
863,4,T1_SMS_5,74,1,48,27,276275592
863,4,T1_SMS_5,75,5,42,127,276300232
863,4,T1_SMS_5,76,1,48,27,276780524
863,4,T1_SMS_5,77,5,42,127,276799856
863,4,T1_SMS_5,78,1,48,29,277265832
863,4,T1_SMS_5,79,5,42,127,277299700
863,4,T1_SMS_5,80,1,48,25,277793228
863,4,T1_SMS_5,81,5,42,127,277800444
863,4,T1_SMS_5,82,5,42,127,278299996
863,4,T1_SMS_5,83,1,48,29,278325552
863,4,T1_SMS_5,84,5,42,127,278799664
863,4,T1_SMS_5,85,1,48,28,278800704
863,4,T1_SMS_5,86,1,48,30,279221456
863,4,T1_SMS_5,87,5,42,127,279299428
863,4,T1_SMS_5,88,5,42,127,279800252
863,4,T1_SMS_5,89,1,48,22,279811448
863,4,T1_SMS_5,90,1,48,20,280268940
863,4,T1_SMS_5,91,5,42,127,280299864
863,4,T1_SMS_5,92,5,42,127,280799568
863,4,T1_SMS_5,93,1,48,23,280837088
863,4,T1_SMS_5,94,5,42,127,281300308
863,4,T1_SMS_5,95,1,48,29,281333344
863,4,T1_SMS_5,96,1,48,25,281788364
863,4,T1_SMS_5,97,5,42,127,281799996
863,4,T1_SMS_5,98,1,48,22,282292996
863,4,T1_SMS_5,99,5,42,127,282299692
863,4,T1_SMS_5,100,1,48,25,282765012
863,4,T1_SMS_5,101,5,42,127,282799460
863,4,T1_SMS_5,102,5,42,127,283300280
863,4,T1_SMS_5,103,1,48,20,283317160
863,4,T1_SMS_5,104,5,42,127,283799828
863,4,T1_SMS_5,105,1,48,21,283808256
863,4,T1_SMS_5,106,1,48,15,284265292
863,4,T1_SMS_5,107,5,42,127,284299516
863,4,T1_SMS_5,108,1,48,23,284773892
863,4,T1_SMS_5,109,5,42,127,284800260
863,4,T1_SMS_5,110,1,48,25,285262372
863,4,T1_SMS_5,111,5,42,127,285300176
863,4,T1_SMS_5,112,1,48,32,285796096
863,4,T1_SMS_5,113,5,42,127,285799872
863,4,T1_SMS_5,114,1,48,31,286293252
863,4,T1_SMS_5,115,5,42,127,286299492
863,4,T1_SMS_5,116,5,42,127,286800164
863,4,T1_SMS_5,117,1,48,35,286813752
863,4,T1_SMS_5,118,5,42,127,287299860
863,4,T1_SMS_5,119,1,48,32,287325196
863,4,T1_SMS_5,120,5,42,127,287799632
863,4,T1_SMS_5,121,1,48,29,287829972
863,4,T1_SMS_5,122,1,48,31,288270760
863,4,T1_SMS_5,123,5,42,127,288300364
863,4,T1_SMS_5,124,5,42,127,288800068
863,4,T1_SMS_5,125,1,48,29,288809024
863,4,T1_SMS_5,126,1,48,35,289278752
863,4,T1_SMS_5,127,5,42,127,289299804
863,4,T1_SMS_5,128,5,42,127,289799432
863,4,T1_SMS_5,129,1,48,23,289832268
863,4,T1_SMS_5,130,5,42,127,290300472
863,4,T1_SMS_5,131,1,48,34,290332040
863,4,T1_SMS_5,132,5,42,127,290799944
863,4,T1_SMS_5,133,1,48,30,290835296
863,4,T1_SMS_5,134,1,48,29,291286136
863,4,T1_SMS_5,135,5,42,127,291299632
863,4,T1_SMS_5,136,5,42,127,291800308
863,4,T1_SMS_5,137,1,48,30,291833192
863,4,T1_SMS_5,138,1,48,32,292290760
863,4,T1_SMS_5,139,5,42,127,292300292
863,4,T1_SMS_5,140,1,48,33,292794568
863,4,T1_SMS_5,141,5,42,127,292799840
863,4,T1_SMS_5,142,1,48,33,293278704
863,4,T1_SMS_5,143,5,42,127,293299608
863,4,T1_SMS_5,144,1,48,32,293765832
863,4,T1_SMS_5,145,5,42,127,293800348
863,4,T1_SMS_5,146,1,48,32,294256856
863,4,T1_SMS_5,147,5,42,127,294300192
863,4,T1_SMS_5,148,5,42,127,294799744
863,4,T1_SMS_5,149,1,48,32,294804956
863,4,T1_SMS_5,150,5,42,127,295299368
863,4,T1_SMS_5,151,1,48,30,295326564
863,4,T1_SMS_5,152,5,42,127,295800332
863,4,T1_SMS_5,153,1,48,31,295814820
863,4,T1_SMS_5,154,1,48,39,296292360
863,4,T1_SMS_5,155,5,42,127,296300168
863,4,T1_SMS_5,156,5,42,127,296799720
863,4,T1_SMS_5,157,1,48,33,296820944
863,4,T1_SMS_5,158,1,48,40,297295632
863,4,T1_SMS_5,159,5,42,127,297300460
863,4,T1_SMS_5,160,5,42,127,297800232
863,4,T1_SMS_5,161,1,48,32,297810308
863,4,T1_SMS_5,162,1,48,31,298291512
863,4,T1_SMS_5,163,5,42,127,298299776
863,4,T1_SMS_5,164,1,48,29,298771512
863,4,T1_SMS_5,165,5,42,127,298799392
863,4,T1_SMS_5,166,1,48,31,299289404
863,4,T1_SMS_5,167,5,42,127,299300212
863,4,T1_SMS_5,168,1,48,32,299778904
863,4,T1_SMS_5,169,5,42,127,299800128
863,4,T1_SMS_5,170,5,42,127,300299732
863,4,T1_SMS_5,171,1,48,36,300305240
863,4,T1_SMS_5,172,1,48,29,300794000
863,4,T1_SMS_5,173,5,42,127,300800316
863,4,T1_SMS_5,174,1,48,27,301261680
863,4,T1_SMS_5,175,5,42,127,301300160
863,4,T1_SMS_5,176,1,48,28,301788304
863,4,T1_SMS_5,177,5,42,127,301799780
863,4,T1_SMS_5,178,5,42,127,302299484
863,4,T1_SMS_5,179,1,48,33,302310080
863,4,T1_SMS_5,180,1,48,26,302777372
863,4,T1_SMS_5,181,5,42,127,302800292
863,4,T1_SMS_5,182,1,48,28,303295312
863,4,T1_SMS_5,183,5,42,127,303300136
863,4,T1_SMS_5,184,1,48,32,303770400
863,4,T1_SMS_5,185,5,42,127,303799532
863,4,T1_SMS_5,186,1,48,26,304282284
863,4,T1_SMS_5,187,5,42,127,304300424
863,4,T1_SMS_5,188,1,48,30,304789088
863,4,T1_SMS_5,189,5,42,127,304800192
863,4,T1_SMS_5,190,5,42,127,305299968
863,4,T1_SMS_5,191,1,48,28,305304060
863,4,T1_SMS_5,192,1,48,26,305796028
863,4,T1_SMS_5,193,5,42,127,305799580
863,4,T1_SMS_5,194,5,42,127,306300404
863,4,T1_SMS_5,195,1,48,25,306303524
863,4,T1_SMS_5,196,5,42,127,306800172
863,4,T1_SMS_5,197,1,48,21,306809648
863,4,T1_SMS_5,198,5,42,127,307299572
863,4,T1_SMS_5,199,1,48,23,307319072
863,4,T1_SMS_5,200,5,42,127,307800312
863,4,T1_SMS_5,201,1,48,16,307804848
863,4,T1_SMS_5,202,5,42,127,308300080
863,4,T1_SMS_5,203,1,48,25,308333716
863,4,T1_SMS_5,204,5,42,127,308799924
863,4,T1_SMS_5,205,1,48,23,308827208
863,4,T1_SMS_5,206,1,48,23,309290304
863,4,T1_SMS_5,207,5,42,127,309299540
863,4,T1_SMS_5,208,5,42,127,309800212
863,4,T1_SMS_5,209,1,48,25,309844616
863,4,T1_SMS_5,210,1,48,34,310294008
863,4,T1_SMS_5,211,5,42,127,310299952
863,4,T1_SMS_5,212,5,42,127,310799776
863,4,T1_SMS_5,213,1,48,21,310809576
863,4,T1_SMS_5,214,5,42,127,311299324
863,4,T1_SMS_5,215,1,48,22,311320416
863,4,T1_SMS_5,216,5,42,127,311800212
863,4,T1_SMS_5,217,1,48,24,311804980
863,4,T1_SMS_5,218,1,48,24,312294632
863,4,T1_SMS_5,219,5,42,127,312299900
863,4,T1_SMS_5,220,5,42,127,312799456
863,4,T1_SMS_5,221,1,48,24,312824336
863,4,T1_SMS_5,222,1,48,30,313295812
863,4,T1_SMS_5,223,5,42,127,313300264
863,4,T1_SMS_5,224,5,42,127,313799964
863,4,T1_SMS_5,225,1,48,21,313833296
863,4,T1_SMS_5,226,5,42,127,314299736
863,4,T1_SMS_5,227,1,48,33,314315944
863,4,T1_SMS_5,228,1,48,32,314786072
863,4,T1_SMS_5,229,5,42,127,314799568
863,4,T1_SMS_5,230,5,42,127,315300172
863,4,T1_SMS_5,231,1,48,30,315302912
863,4,T1_SMS_5,232,5,42,127,315799940
863,4,T1_SMS_5,233,1,48,22,315819368
863,4,T1_SMS_5,234,5,42,127,316299560
863,4,T1_SMS_5,235,1,48,24,316312100
863,4,T1_SMS_5,236,5,42,127,316800376
863,4,T1_SMS_5,237,1,48,35,316813216
863,4,T1_SMS_5,238,5,42,127,317300072
863,4,T1_SMS_5,239,1,48,32,317305060
863,4,T1_SMS_5,240,5,42,127,317799988
863,4,T1_SMS_5,241,1,48,20,317841328
863,4,T1_SMS_5,242,5,42,127,318299388
863,4,T1_SMS_5,243,1,48,28,318324640
863,4,T1_SMS_5,244,1,48,29,318774876
863,4,T1_SMS_5,245,5,42,127,318800196
863,4,T1_SMS_5,246,1,48,23,319299000
863,4,T1_SMS_5,247,5,42,127,319300792
863,4,T1_SMS_5,248,1,48,35,319795960
863,4,T1_SMS_5,249,5,42,127,319799740
863,4,T1_SMS_5,250,1,48,31,320281592
863,4,T1_SMS_5,251,5,42,127,320300332
863,4,T1_SMS_5,252,5,42,127,320800108
863,4,T1_SMS_5,253,1,48,27,320811752
863,4,T1_SMS_5,0,9999,9999,9999,256298048
863,4,T1_SMS_5,1,9999,9999,9999,256797764
863,4,T1_SMS_5,2,9999,9999,9999,257297508
863,4,T1_SMS_5,3,9999,9999,9999,257797224
863,4,T1_SMS_5,4,9999,9999,9999,258297912
863,4,T1_SMS_5,5,9999,9999,9999,258797628
863,4,T1_SMS_5,6,9999,9999,9999,259297344
863,4,T1_SMS_5,7,9999,9999,9999,259798108
863,4,T1_SMS_5,8,9999,9999,9999,260297824
863,4,T1_SMS_5,9,9999,9999,9999,260797520
863,4,T1_SMS_5,10,9999,9999,9999,261297208
863,4,T1_SMS_5,11,9999,9999,9999,261797956
863,4,T1_SMS_5,12,9999,9999,9999,262297720
863,4,T1_SMS_5,13,9999,9999,9999,262797412
863,4,T1_SMS_5,14,9999,9999,9999,263297108
863,4,T1_SMS_5,15,9999,9999,9999,263797848
863,4,T1_SMS_5,16,9999,9999,9999,264297544
863,4,T1_SMS_5,17,9999,9999,9999,264797284
863,4,T1_SMS_5,18,9999,9999,9999,265297980
863,4,T1_SMS_5,19,9999,9999,9999,265797680
863,4,T1_SMS_5,20,9999,9999,9999,266297444
863,4,T1_SMS_5,21,9999,9999,9999,266797140
863,4,T1_SMS_5,22,9999,9999,9999,267297880
863,4,T1_SMS_5,23,9999,9999,9999,267797568
863,4,T1_SMS_5,24,9999,9999,9999,268297296
863,4,T1_SMS_5,25,9999,9999,9999,268798040
863,4,T1_SMS_5,26,9999,9999,9999,269297740
863,4,T1_SMS_5,27,9999,9999,9999,269797436
863,4,T1_SMS_5,28,9999,9999,9999,270297200
863,4,T1_SMS_5,29,9999,9999,9999,270797940
863,4,T1_SMS_5,30,9999,9999,9999,271297640
863,4,T1_SMS_5,31,9999,9999,9999,271797336
863,4,T1_SMS_5,32,9999,9999,9999,272298076
863,4,T1_SMS_5,33,9999,9999,9999,272797764
863,4,T1_SMS_5,34,9999,9999,9999,273297468
863,4,T1_SMS_5,35,9999,9999,9999,273797236
863,4,T1_SMS_5,36,9999,9999,9999,274297904
863,4,T1_SMS_5,37,9999,9999,9999,274797668
863,4,T1_SMS_5,38,9999,9999,9999,275297360
863,4,T1_SMS_5,39,9999,9999,9999,275798108
863,4,T1_SMS_5,40,9999,9999,9999,276297800
863,4,T1_SMS_5,41,9999,9999,9999,276797496
863,4,T1_SMS_5,42,9999,9999,9999,277297264
863,4,T1_SMS_5,43,9999,9999,9999,277798008
863,4,T1_SMS_5,44,9999,9999,9999,278297708
863,4,T1_SMS_5,45,9999,9999,9999,278797380
863,4,T1_SMS_5,46,9999,9999,9999,279297144
863,4,T1_SMS_5,47,9999,9999,9999,279797816
863,4,T1_SMS_5,48,9999,9999,9999,280297576
863,4,T1_SMS_5,49,9999,9999,9999,280797280
863,4,T1_SMS_5,50,9999,9999,9999,281298020
863,4,T1_SMS_5,51,9999,9999,9999,281797708
863,4,T1_SMS_5,52,9999,9999,9999,282297404
863,4,T1_SMS_5,53,9999,9999,9999,282797172
863,4,T1_SMS_5,54,9999,9999,9999,283297844
863,4,T1_SMS_5,55,9999,9999,9999,283797616
863,4,T1_SMS_5,56,9999,9999,9999,284297304
863,4,T1_SMS_5,57,9999,9999,9999,284798044
863,4,T1_SMS_5,58,9999,9999,9999,285297744
863,4,T1_SMS_5,59,9999,9999,9999,285797436
863,4,T1_SMS_5,60,9999,9999,9999,286297208
863,4,T1_SMS_5,61,9999,9999,9999,286797880
863,4,T1_SMS_5,62,9999,9999,9999,287297648
863,4,T1_SMS_5,63,9999,9999,9999,287797344
863,4,T1_SMS_5,64,9999,9999,9999,288298080
863,4,T1_SMS_5,65,9999,9999,9999,288797780
863,4,T1_SMS_5,66,9999,9999,9999,289297520
863,4,T1_SMS_5,67,9999,9999,9999,289797220
863,4,T1_SMS_5,68,9999,9999,9999,290297960
863,4,T1_SMS_5,69,9999,9999,9999,290797656
863,4,T1_SMS_5,70,9999,9999,9999,291297344
863,4,T1_SMS_5,71,9999,9999,9999,291798096
863,4,T1_SMS_5,72,9999,9999,9999,292297784
863,4,T1_SMS_5,73,9999,9999,9999,292797552
863,4,T1_SMS_5,74,9999,9999,9999,293297248
863,4,T1_SMS_5,75,9999,9999,9999,293797988
863,4,T1_SMS_5,76,9999,9999,9999,294297684
863,4,T1_SMS_5,77,9999,9999,9999,294797384
863,4,T1_SMS_5,78,9999,9999,9999,295297080
863,4,T1_SMS_5,79,9999,9999,9999,295797820
863,4,T1_SMS_5,80,9999,9999,9999,296297584
863,4,T1_SMS_5,81,9999,9999,9999,296797288
863,4,T1_SMS_5,82,9999,9999,9999,297298024
863,4,T1_SMS_5,83,9999,9999,9999,297797724
863,4,T1_SMS_5,84,9999,9999,9999,298297412
863,4,T1_SMS_5,85,9999,9999,9999,298797108
863,4,T1_SMS_5,86,9999,9999,9999,299297852
863,4,T1_SMS_5,87,9999,9999,9999,299797596
863,4,T1_SMS_5,88,9999,9999,9999,300297296
863,4,T1_SMS_5,89,9999,9999,9999,300798028
863,4,T1_SMS_5,90,9999,9999,9999,301297724
863,4,T1_SMS_5,91,9999,9999,9999,301797492
863,4,T1_SMS_5,92,9999,9999,9999,302297196
863,4,T1_SMS_5,93,9999,9999,9999,302797932
863,4,T1_SMS_5,94,9999,9999,9999,303297624
863,4,T1_SMS_5,95,9999,9999,9999,303797320
863,4,T1_SMS_5,96,9999,9999,9999,304298060
863,4,T1_SMS_5,97,9999,9999,9999,304797756
863,4,T1_SMS_5,98,9999,9999,9999,305297460
863,4,T1_SMS_5,99,9999,9999,9999,305797220
863,4,T1_SMS_5,100,9999,9999,9999,306297968
863,4,T1_SMS_5,101,9999,9999,9999,306797664
863,4,T1_SMS_5,102,9999,9999,9999,307297356
863,4,T1_SMS_5,103,9999,9999,9999,307798100
863,4,T1_SMS_5,104,9999,9999,9999,308297792
863,4,T1_SMS_5,105,9999,9999,9999,308797488
863,4,T1_SMS_5,106,9999,9999,9999,309297252
863,4,T1_SMS_5,107,9999,9999,9999,309798000
863,4,T1_SMS_5,108,9999,9999,9999,310297664
863,4,T1_SMS_5,109,9999,9999,9999,310797416
863,4,T1_SMS_5,110,9999,9999,9999,311297112
863,4,T1_SMS_5,111,9999,9999,9999,311797852
863,4,T1_SMS_5,112,9999,9999,9999,312297540
863,4,T1_SMS_5,113,9999,9999,9999,312797240
863,4,T1_SMS_5,114,9999,9999,9999,313297976
863,4,T1_SMS_5,115,9999,9999,9999,313797752
863,4,T1_SMS_5,116,9999,9999,9999,314297448
863,4,T1_SMS_5,117,9999,9999,9999,314797136
863,4,T1_SMS_5,118,9999,9999,9999,315297884
863,4,T1_SMS_5,119,9999,9999,9999,315797580
863,4,T1_SMS_5,120,9999,9999,9999,316297272
863,4,T1_SMS_5,121,9999,9999,9999,316798016
863,4,T1_SMS_5,122,9999,9999,9999,317297784
863,4,T1_SMS_5,123,9999,9999,9999,317797480
863,4,T1_SMS_5,124,9999,9999,9999,318297176
863,4,T1_SMS_5,125,9999,9999,9999,318797908
863,4,T1_SMS_5,126,9999,9999,9999,319297612
863,4,T1_SMS_5,127,9999,9999,9999,319797304
863,4,T1_SMS_5,128,9999,9999,9999,320298044
863,4,T1_SMS_5,129,9999,9999,9999,320797748
864,2,T1_SMS_8,0,5,42,127,395909452
864,2,T1_SMS_8,1,5,42,127,396710256
864,2,T1_SMS_8,2,5,42,127,397510084
864,2,T1_SMS_8,3,5,42,127,398309840
864,2,T1_SMS_8,4,5,42,127,399109448
864,2,T1_SMS_8,5,5,42,127,399910200
864,2,T1_SMS_8,6,5,42,127,400710028
864,2,T1_SMS_8,7,1,48,21,400724740
864,2,T1_SMS_8,8,1,48,28,401508248
864,2,T1_SMS_8,9,5,42,127,401509756
864,2,T1_SMS_8,10,5,42,127,402309348
864,2,T1_SMS_8,11,1,48,26,402318224
864,2,T1_SMS_8,12,5,42,127,403110204
864,2,T1_SMS_8,13,1,48,26,403164104
864,2,T1_SMS_8,14,5,42,127,403909936
864,2,T1_SMS_8,15,1,48,16,404000444
864,2,T1_SMS_8,16,5,42,127,404709820
864,2,T1_SMS_8,17,1,48,15,404727152
864,2,T1_SMS_8,18,5,42,127,405509776
864,2,T1_SMS_8,19,1,48,25,405522416
864,2,T1_SMS_8,20,1,48,28,406276784
864,2,T1_SMS_8,21,5,42,127,406310128
864,2,T1_SMS_8,22,5,42,127,407109868
864,2,T1_SMS_8,23,1,48,24,407135724
864,2,T1_SMS_8,24,5,42,127,407909824
864,2,T1_SMS_8,25,1,48,21,407941592
864,2,T1_SMS_8,26,5,42,127,408709484
864,2,T1_SMS_8,27,1,48,24,408738184
864,2,T1_SMS_8,28,5,42,127,409510188
864,2,T1_SMS_8,29,1,48,22,409542624
864,2,T1_SMS_8,30,1,48,34,410275548
864,2,T1_SMS_8,31,5,42,127,410309844
864,2,T1_SMS_8,32,1,48,26,411086204
864,2,T1_SMS_8,33,5,42,127,411109800
864,2,T1_SMS_8,34,1,48,32,411876964
864,2,T1_SMS_8,35,5,42,127,411909608
864,2,T1_SMS_8,36,1,48,36,412676992
864,2,T1_SMS_8,37,5,42,127,412710260
864,2,T1_SMS_8,38,5,42,127,413509928
864,2,T1_SMS_8,39,1,48,29,413511636
864,2,T1_SMS_8,40,1,48,34,414274016
864,2,T1_SMS_8,41,5,42,127,414309732
864,2,T1_SMS_8,42,1,48,26,415095816
864,2,T1_SMS_8,43,5,42,127,415109464
864,2,T1_SMS_8,44,1,48,21,415880960
864,2,T1_SMS_8,45,5,42,127,415910540
864,2,T1_SMS_8,46,1,48,27,416709688
864,2,T1_SMS_8,47,5,42,127,416711024
864,2,T1_SMS_8,48,1,48,34,417492772
864,2,T1_SMS_8,49,5,42,127,417509712
864,2,T1_SMS_8,50,1,48,30,418276652
864,2,T1_SMS_8,51,5,42,127,418309668
864,2,T1_SMS_8,52,5,42,127,419110404
864,2,T1_SMS_8,53,1,48,23,419112924
864,2,T1_SMS_8,54,1,48,29,419813956
864,2,T1_SMS_8,55,5,42,127,419909984
864,2,T1_SMS_8,56,1,48,29,420663156
864,2,T1_SMS_8,57,5,42,127,420709716
864,2,T1_SMS_8,58,1,48,16,421504552
864,2,T1_SMS_8,59,5,42,127,421509748
864,2,T1_SMS_8,60,5,42,127,422310384
864,2,T1_SMS_8,61,1,48,31,422321212
864,2,T1_SMS_8,62,5,42,127,423109972
864,2,T1_SMS_8,63,1,48,25,423170088
864,2,T1_SMS_8,64,5,42,127,423909632
864,2,T1_SMS_8,65,1,48,23,423969320
864,2,T1_SMS_8,66,5,42,127,424709584
864,2,T1_SMS_8,67,1,48,22,424747808
864,2,T1_SMS_8,68,1,48,31,425448920
864,2,T1_SMS_8,69,5,42,127,425510456
864,2,T1_SMS_8,70,1,48,27,426269392
864,2,T1_SMS_8,71,5,42,127,426309968
864,2,T1_SMS_8,72,5,42,127,427109632
864,2,T1_SMS_8,73,1,48,28,427116944
864,2,T1_SMS_8,74,5,42,127,427909592
864,2,T1_SMS_8,75,1,48,27,427917948
864,2,T1_SMS_8,76,5,42,127,428710296
864,2,T1_SMS_8,77,1,48,35,428734808
864,2,T1_SMS_8,78,1,48,31,429504376
864,2,T1_SMS_8,79,5,42,127,429510096
864,2,T1_SMS_8,80,5,42,127,430309836
864,2,T1_SMS_8,81,1,48,26,430380820
864,2,T1_SMS_8,82,5,42,127,431109572
864,2,T1_SMS_8,83,1,48,29,431120544
864,2,T1_SMS_8,84,5,42,127,431910352
864,2,T1_SMS_8,85,1,48,22,431978020
864,2,T1_SMS_8,86,5,42,127,432710156
864,2,T1_SMS_8,87,1,48,22,432755608
864,2,T1_SMS_8,88,1,48,22,433502376
864,2,T1_SMS_8,89,5,42,127,433509736
864,2,T1_SMS_8,90,1,48,29,434235084
864,2,T1_SMS_8,91,5,42,127,434309472
864,2,T1_SMS_8,92,1,48,31,435072220
864,2,T1_SMS_8,93,5,42,127,435110400
864,2,T1_SMS_8,94,1,48,31,435879508
864,2,T1_SMS_8,95,5,42,127,435909984
864,2,T1_SMS_8,96,1,48,34,436708516
864,2,T1_SMS_8,97,5,42,127,436710160
864,2,T1_SMS_8,98,5,42,127,437509384
864,2,T1_SMS_8,99,1,48,29,437528232
864,2,T1_SMS_8,100,1,48,18,438282892
864,2,T1_SMS_8,101,5,42,127,438310404
864,2,T1_SMS_8,102,5,42,127,439109844
864,2,T1_SMS_8,103,1,48,22,439131808
864,2,T1_SMS_8,104,5,42,127,439909876
864,2,T1_SMS_8,105,1,48,27,439924964
864,2,T1_SMS_8,106,5,42,127,440709460
864,2,T1_SMS_8,107,1,48,33,440725964
864,2,T1_SMS_8,108,5,42,127,441510464
864,2,T1_SMS_8,109,1,48,33,441555616
864,2,T1_SMS_8,110,5,42,127,442310196
864,2,T1_SMS_8,111,1,48,33,442333288
864,2,T1_SMS_8,112,5,42,127,443109632
864,2,T1_SMS_8,113,5,42,127,443909388
864,2,T1_SMS_8,114,1,48,33,444632952
864,2,T1_SMS_8,115,5,42,127,444710352
864,2,T1_SMS_8,116,1,48,29,445471160
864,2,T1_SMS_8,117,5,42,127,445509864
864,2,T1_SMS_8,118,1,48,38,446288544
864,2,T1_SMS_8,119,5,42,127,446309676
864,2,T1_SMS_8,120,1,48,37,447080424
864,2,T1_SMS_8,121,5,42,127,447109408
864,2,T1_SMS_8,122,1,48,29,447864900
864,2,T1_SMS_8,123,5,42,127,447910260
864,2,T1_SMS_8,124,1,48,28,448687596
864,2,T1_SMS_8,125,5,42,127,448710144
864,2,T1_SMS_8,126,5,42,127,449510180
864,2,T1_SMS_8,127,1,48,28,449540304
864,2,T1_SMS_8,128,1,48,35,450306212
864,2,T1_SMS_8,129,5,42,127,450309460
864,2,T1_SMS_8,130,5,42,127,451110196
864,2,T1_SMS_8,131,1,48,32,451111756
864,2,T1_SMS_8,132,1,48,29,451905472
864,2,T1_SMS_8,133,5,42,127,451910076
864,2,T1_SMS_8,134,1,48,31,452647468
864,2,T1_SMS_8,135,5,42,127,452709732
864,2,T1_SMS_8,136,1,48,28,453433588
864,2,T1_SMS_8,137,5,42,127,453509540
864,2,T1_SMS_8,138,1,48,34,454237808
864,2,T1_SMS_8,139,5,42,127,454310320
864,2,T1_SMS_8,140,1,48,35,455041060
864,2,T1_SMS_8,141,5,42,127,455110052
864,2,T1_SMS_8,142,1,48,38,455877068
864,2,T1_SMS_8,143,5,42,127,455909788
864,2,T1_SMS_8,144,1,48,31,456707332
864,2,T1_SMS_8,145,5,42,127,456709372
864,2,T1_SMS_8,146,5,42,127,457510108
864,2,T1_SMS_8,147,1,48,28,457526396
864,2,T1_SMS_8,148,1,48,32,458310436
864,2,T1_SMS_8,149,5,42,127,458311624
864,2,T1_SMS_8,150,1,48,33,459088216
864,2,T1_SMS_8,151,5,42,127,459109716
864,2,T1_SMS_8,152,1,48,29,459853316
864,2,T1_SMS_8,153,5,42,127,459909452
864,2,T1_SMS_8,154,1,48,32,460667116
864,2,T1_SMS_8,155,5,42,127,460710232
864,2,T1_SMS_8,156,1,48,38,461453756
864,2,T1_SMS_8,157,5,42,127,461510112
864,2,T1_SMS_8,158,5,42,127,462309852
864,2,T1_SMS_8,159,1,48,28,462310820
864,2,T1_SMS_8,160,1,48,29,463083216
864,2,T1_SMS_8,161,5,42,127,463109504
864,2,T1_SMS_8,162,1,48,31,463899056
864,2,T1_SMS_8,163,5,42,127,463910236
864,2,T1_SMS_8,164,5,42,127,464709976
864,2,T1_SMS_8,165,1,48,34,464713992
864,2,T1_SMS_8,166,5,42,127,465509708
864,2,T1_SMS_8,167,1,48,24,465517016
864,2,T1_SMS_8,168,1,48,33,466301696
864,2,T1_SMS_8,169,5,42,127,466309512
864,2,T1_SMS_8,170,5,42,127,467110300
864,2,T1_SMS_8,171,1,48,29,467154776
864,2,T1_SMS_8,172,1,48,41,467895776
864,2,T1_SMS_8,173,5,42,127,467910100
864,2,T1_SMS_8,174,5,42,127,468709912
864,2,T1_SMS_8,175,1,48,42,468718044
864,2,T1_SMS_8,176,5,42,127,469509424
864,2,T1_SMS_8,177,1,48,31,469515456
864,2,T1_SMS_8,178,1,48,39,470273956
864,2,T1_SMS_8,179,5,42,127,470310148
864,2,T1_SMS_8,180,1,48,38,471064368
864,2,T1_SMS_8,181,5,42,127,471109956
864,2,T1_SMS_8,182,1,48,39,471854000
864,2,T1_SMS_8,183,5,42,127,471909836
864,2,T1_SMS_8,184,1,48,39,472668024
864,2,T1_SMS_8,185,5,42,127,472709420
864,2,T1_SMS_8,186,5,42,127,473510132
864,2,T1_SMS_8,187,1,48,30,473513176
864,2,T1_SMS_8,188,5,42,127,474310016
864,2,T1_SMS_8,189,1,48,29,474320688
864,2,T1_SMS_8,190,1,48,36,475086896
864,2,T1_SMS_8,191,5,42,127,475109888
864,2,T1_SMS_8,192,1,48,38,475850804
864,2,T1_SMS_8,193,5,42,127,475909548
864,2,T1_SMS_8,194,1,48,30,476656436
864,2,T1_SMS_8,195,5,42,127,476710356
864,2,T1_SMS_8,196,1,48,39,477419752
864,2,T1_SMS_8,197,5,42,127,477509940
864,2,T1_SMS_8,198,1,48,39,478249796
864,2,T1_SMS_8,199,5,42,127,478309968
864,2,T1_SMS_8,200,1,48,35,479100768
864,2,T1_SMS_8,201,5,42,127,479109332
864,2,T1_SMS_8,202,1,48,33,479876644
864,2,T1_SMS_8,203,5,42,127,479910260
864,2,T1_SMS_8,204,1,48,38,480697992
864,2,T1_SMS_8,205,5,42,127,480709848
864,2,T1_SMS_8,206,5,42,127,481509960
864,2,T1_SMS_8,207,1,48,29,481524972
864,2,T1_SMS_8,208,1,48,30,482248468
864,2,T1_SMS_8,209,5,42,127,482309464
864,2,T1_SMS_8,210,1,48,31,483073856
864,2,T1_SMS_8,211,5,42,127,483110192
864,2,T1_SMS_8,212,5,42,127,483909860
864,2,T1_SMS_8,213,1,48,30,483936312
864,2,T1_SMS_8,214,5,42,127,484709664
864,2,T1_SMS_8,215,1,48,30,484751300
864,2,T1_SMS_8,216,5,42,127,485509772
864,2,T1_SMS_8,217,1,48,30,485527928
864,2,T1_SMS_8,218,5,42,127,486310180
864,2,T1_SMS_8,219,1,48,35,486378600
864,2,T1_SMS_8,220,1,48,32,487108316
864,2,T1_SMS_8,221,5,42,127,487109980
864,2,T1_SMS_8,222,5,42,127,487909720
864,2,T1_SMS_8,223,1,48,39,487933780
864,2,T1_SMS_8,224,5,42,127,488709676
864,2,T1_SMS_8,225,1,48,28,488720752
864,2,T1_SMS_8,226,1,48,40,489509208
864,2,T1_SMS_8,227,5,42,127,489510848
864,2,T1_SMS_8,228,5,42,127,490309996
864,2,T1_SMS_8,229,1,48,31,490324852
864,2,T1_SMS_8,230,1,48,36,491076628
864,2,T1_SMS_8,231,5,42,127,491109796
864,2,T1_SMS_8,0,9999,9999,9999,395907164
864,2,T1_SMS_8,1,9999,9999,9999,396707892
864,2,T1_SMS_8,2,9999,9999,9999,397507648
864,2,T1_SMS_8,3,9999,9999,9999,398307404
864,2,T1_SMS_8,4,9999,9999,9999,399107156
864,2,T1_SMS_8,5,9999,9999,9999,399907912
864,2,T1_SMS_8,6,9999,9999,9999,400707664
864,2,T1_SMS_8,7,9999,9999,9999,401507400
864,2,T1_SMS_8,8,9999,9999,9999,402307136
864,2,T1_SMS_8,9,9999,9999,9999,403107916
864,2,T1_SMS_8,10,9999,9999,9999,403907648
864,2,T1_SMS_8,11,9999,9999,9999,404707380
864,2,T1_SMS_8,12,9999,9999,9999,405507188
864,2,T1_SMS_8,13,9999,9999,9999,406307912
864,2,T1_SMS_8,14,9999,9999,9999,407107652
864,2,T1_SMS_8,15,9999,9999,9999,407907388
864,2,T1_SMS_8,16,9999,9999,9999,408707120
864,2,T1_SMS_8,17,9999,9999,9999,409507900
864,2,T1_SMS_8,18,9999,9999,9999,410307628
864,2,T1_SMS_8,19,9999,9999,9999,411107436
864,2,T1_SMS_8,20,9999,9999,9999,411907172
864,2,T1_SMS_8,21,9999,9999,9999,412707900
864,2,T1_SMS_8,22,9999,9999,9999,413507640
864,2,T1_SMS_8,23,9999,9999,9999,414307444
864,2,T1_SMS_8,24,9999,9999,9999,415107176
864,2,T1_SMS_8,25,9999,9999,9999,415907956
864,2,T1_SMS_8,26,9999,9999,9999,416707696
864,2,T1_SMS_8,27,9999,9999,9999,417507424
864,2,T1_SMS_8,28,9999,9999,9999,418307160
864,2,T1_SMS_8,29,9999,9999,9999,419107896
864,2,T1_SMS_8,30,9999,9999,9999,419907696
864,2,T1_SMS_8,31,9999,9999,9999,420707428
864,2,T1_SMS_8,32,9999,9999,9999,421507160
864,2,T1_SMS_8,33,9999,9999,9999,422307948
864,2,T1_SMS_8,34,9999,9999,9999,423107684
864,2,T1_SMS_8,35,9999,9999,9999,423907416
864,2,T1_SMS_8,36,9999,9999,9999,424707148
864,2,T1_SMS_8,37,9999,9999,9999,425507948
864,2,T1_SMS_8,38,9999,9999,9999,426307680
864,2,T1_SMS_8,39,9999,9999,9999,427107420
864,2,T1_SMS_8,40,9999,9999,9999,427907156
864,2,T1_SMS_8,41,9999,9999,9999,428707932
864,2,T1_SMS_8,42,9999,9999,9999,429507660
864,2,T1_SMS_8,43,9999,9999,9999,430307400
864,2,T1_SMS_8,44,9999,9999,9999,431107132
864,2,T1_SMS_8,45,9999,9999,9999,431907912
864,2,T1_SMS_8,46,9999,9999,9999,432707648
864,2,T1_SMS_8,47,9999,9999,9999,433507376
864,2,T1_SMS_8,48,9999,9999,9999,434307184
864,2,T1_SMS_8,49,9999,9999,9999,435107888
864,2,T1_SMS_8,50,9999,9999,9999,435907696
864,2,T1_SMS_8,51,9999,9999,9999,436707436
864,2,T1_SMS_8,52,9999,9999,9999,437507168
864,2,T1_SMS_8,53,9999,9999,9999,438307892
864,2,T1_SMS_8,54,9999,9999,9999,439107632
864,2,T1_SMS_8,55,9999,9999,9999,439907440
864,2,T1_SMS_8,56,9999,9999,9999,440707172
864,2,T1_SMS_8,57,9999,9999,9999,441507952
864,2,T1_SMS_8,58,9999,9999,9999,442307688
864,2,T1_SMS_8,59,9999,9999,9999,443107416
864,2,T1_SMS_8,60,9999,9999,9999,443907172
864,2,T1_SMS_8,61,9999,9999,9999,444707916
864,2,T1_SMS_8,62,9999,9999,9999,445507652
864,2,T1_SMS_8,63,9999,9999,9999,446307384
864,2,T1_SMS_8,64,9999,9999,9999,447107120
864,2,T1_SMS_8,65,9999,9999,9999,447907900
864,2,T1_SMS_8,66,9999,9999,9999,448707632
864,2,T1_SMS_8,67,9999,9999,9999,449507448
864,2,T1_SMS_8,68,9999,9999,9999,450307172
864,2,T1_SMS_8,69,9999,9999,9999,451107908
864,2,T1_SMS_8,70,9999,9999,9999,451907636
864,2,T1_SMS_8,71,9999,9999,9999,452707444
864,2,T1_SMS_8,72,9999,9999,9999,453507176
864,2,T1_SMS_8,73,9999,9999,9999,454307956
864,2,T1_SMS_8,74,9999,9999,9999,455107692
864,2,T1_SMS_8,75,9999,9999,9999,455907424
864,2,T1_SMS_8,76,9999,9999,9999,456707120
864,2,T1_SMS_8,77,9999,9999,9999,457507896
864,2,T1_SMS_8,78,9999,9999,9999,458307704
864,2,T1_SMS_8,79,9999,9999,9999,459107428
864,2,T1_SMS_8,80,9999,9999,9999,459907164
864,2,T1_SMS_8,81,9999,9999,9999,460707944
864,2,T1_SMS_8,82,9999,9999,9999,461507676
864,2,T1_SMS_8,83,9999,9999,9999,462307416
864,2,T1_SMS_8,84,9999,9999,9999,463107144
864,2,T1_SMS_8,85,9999,9999,9999,463907948
864,2,T1_SMS_8,86,9999,9999,9999,464707688
864,2,T1_SMS_8,87,9999,9999,9999,465507420
864,2,T1_SMS_8,88,9999,9999,9999,466307148
864,2,T1_SMS_8,89,9999,9999,9999,467107936
864,2,T1_SMS_8,90,9999,9999,9999,467907664
864,2,T1_SMS_8,91,9999,9999,9999,468707400
864,2,T1_SMS_8,92,9999,9999,9999,469507136
864,2,T1_SMS_8,93,9999,9999,9999,470307932
864,2,T1_SMS_8,94,9999,9999,9999,471107668
864,2,T1_SMS_8,95,9999,9999,9999,471907400
864,2,T1_SMS_8,96,9999,9999,9999,472707132
864,2,T1_SMS_8,97,9999,9999,9999,473507920
864,2,T1_SMS_8,98,9999,9999,9999,474307652
864,2,T1_SMS_8,99,9999,9999,9999,475107380
864,2,T1_SMS_8,100,9999,9999,9999,475907188
864,2,T1_SMS_8,101,9999,9999,9999,476707916
864,2,T1_SMS_8,102,9999,9999,9999,477507652
864,2,T1_SMS_8,103,9999,9999,9999,478307384
864,2,T1_SMS_8,104,9999,9999,9999,479107116
864,2,T1_SMS_8,105,9999,9999,9999,479907900
864,2,T1_SMS_8,106,9999,9999,9999,480707632
864,2,T1_SMS_8,107,9999,9999,9999,481507372
864,2,T1_SMS_8,108,9999,9999,9999,482307176
864,2,T1_SMS_8,109,9999,9999,9999,483107904
864,2,T1_SMS_8,110,9999,9999,9999,483907644
864,2,T1_SMS_8,111,9999,9999,9999,484707376
864,2,T1_SMS_8,112,9999,9999,9999,485507184
864,2,T1_SMS_8,113,9999,9999,9999,486307892
864,2,T1_SMS_8,114,9999,9999,9999,487107716
864,2,T1_SMS_8,115,9999,9999,9999,487907432
864,2,T1_SMS_8,116,9999,9999,9999,488707164
864,2,T1_SMS_8,117,9999,9999,9999,489507896
864,2,T1_SMS_8,118,9999,9999,9999,490307632
864,2,T1_SMS_8,119,9999,9999,9999,491107432
865,10,Ticks_ISO_T2_5,0,5,42,127,502252856
865,10,Ticks_ISO_T2_5,1,5,42,127,502752648
865,10,Ticks_ISO_T2_5,2,5,42,127,503253560
865,10,Ticks_ISO_T2_5,3,5,42,127,503753424
865,10,Ticks_ISO_T2_5,4,5,42,127,504252772
865,10,Ticks_ISO_T2_5,5,5,42,127,504752712
865,10,Ticks_ISO_T2_5,6,5,42,127,505253472
865,10,Ticks_ISO_T2_5,7,5,42,127,505752968
865,10,Ticks_ISO_T2_5,8,5,42,127,506252608
865,10,Ticks_ISO_T2_5,9,1,48,34,506257296
865,10,Ticks_ISO_T2_5,10,1,48,39,506746500
865,10,Ticks_ISO_T2_5,11,5,42,127,506753568
865,10,Ticks_ISO_T2_5,12,1,48,36,507217776
865,10,Ticks_ISO_T2_5,13,5,42,127,507253116
865,10,Ticks_ISO_T2_5,14,1,48,32,507701764
865,10,Ticks_ISO_T2_5,15,5,42,127,507752808
865,10,Ticks_ISO_T2_5,16,1,48,30,508201756
865,10,Ticks_ISO_T2_5,17,5,42,127,508252580
865,10,Ticks_ISO_T2_5,18,1,48,38,508717088
865,10,Ticks_ISO_T2_5,19,5,42,127,508753468
865,10,Ticks_ISO_T2_5,20,1,48,39,509239816
865,10,Ticks_ISO_T2_5,21,5,42,127,509252864
865,10,Ticks_ISO_T2_5,22,1,48,41,509737864
865,10,Ticks_ISO_T2_5,23,5,42,127,509752708
865,10,Ticks_ISO_T2_5,24,1,48,39,510245856
865,10,Ticks_ISO_T2_5,25,5,42,127,510253376
865,10,Ticks_ISO_T2_5,26,1,48,39,510746300
865,10,Ticks_ISO_T2_5,27,5,42,127,510753292
865,10,Ticks_ISO_T2_5,28,1,48,40,511223460
865,10,Ticks_ISO_T2_5,29,5,42,127,511252916
865,10,Ticks_ISO_T2_5,30,1,48,43,511704828
865,10,Ticks_ISO_T2_5,31,5,42,127,511752736
865,10,Ticks_ISO_T2_5,32,1,48,41,512230256
865,10,Ticks_ISO_T2_5,33,5,42,127,512253328
865,10,Ticks_ISO_T2_5,34,5,42,127,512752880
865,10,Ticks_ISO_T2_5,35,1,48,38,512767444
865,10,Ticks_ISO_T2_5,36,1,48,36,513239372
865,10,Ticks_ISO_T2_5,37,5,42,127,513252792
865,10,Ticks_ISO_T2_5,38,5,42,127,513752568
865,10,Ticks_ISO_T2_5,39,1,48,36,513755088
865,10,Ticks_ISO_T2_5,40,5,42,127,514253308
865,10,Ticks_ISO_T2_5,41,1,48,34,514274456
865,10,Ticks_ISO_T2_5,42,1,48,37,514737632
865,10,Ticks_ISO_T2_5,43,5,42,127,514752776
865,10,Ticks_ISO_T2_5,44,5,42,127,515252624
865,10,Ticks_ISO_T2_5,45,1,48,40,515263676
865,10,Ticks_ISO_T2_5,46,1,48,43,515750856
865,10,Ticks_ISO_T2_5,47,5,42,127,515753432
865,10,Ticks_ISO_T2_5,48,5,42,127,516252988
865,10,Ticks_ISO_T2_5,49,1,48,32,516285800
865,10,Ticks_ISO_T2_5,50,5,42,127,516752608
865,10,Ticks_ISO_T2_5,51,1,48,35,516784224
865,10,Ticks_ISO_T2_5,52,5,42,127,517252520
865,10,Ticks_ISO_T2_5,53,1,48,38,517281740
865,10,Ticks_ISO_T2_5,54,1,48,40,517753408
865,10,Ticks_ISO_T2_5,55,5,42,127,517754672
865,10,Ticks_ISO_T2_5,56,5,42,127,518252880
865,10,Ticks_ISO_T2_5,57,1,48,44,518262808
865,10,Ticks_ISO_T2_5,58,5,42,127,518752576
865,10,Ticks_ISO_T2_5,59,1,48,44,518759356
865,10,Ticks_ISO_T2_5,60,1,48,47,519246316
865,10,Ticks_ISO_T2_5,61,5,42,127,519253384
865,10,Ticks_ISO_T2_5,62,1,48,38,519743844
865,10,Ticks_ISO_T2_5,63,5,42,127,519752928
865,10,Ticks_ISO_T2_5,64,1,48,47,520219380
865,10,Ticks_ISO_T2_5,65,5,42,127,520252772
865,10,Ticks_ISO_T2_5,66,1,48,46,520735604
865,10,Ticks_ISO_T2_5,67,5,42,127,520752472
865,10,Ticks_ISO_T2_5,68,1,48,46,521244572
865,10,Ticks_ISO_T2_5,69,5,42,127,521253212
865,10,Ticks_ISO_T2_5,70,1,48,46,521742248
865,10,Ticks_ISO_T2_5,71,5,42,127,521753132
865,10,Ticks_ISO_T2_5,72,5,42,127,522252756
865,10,Ticks_ISO_T2_5,73,1,48,45,522272256
865,10,Ticks_ISO_T2_5,74,1,48,47,522751204
865,10,Ticks_ISO_T2_5,75,5,42,127,522753316
865,10,Ticks_ISO_T2_5,76,5,42,127,523253244
865,10,Ticks_ISO_T2_5,77,1,48,48,523286684
865,10,Ticks_ISO_T2_5,78,5,42,127,523752788
865,10,Ticks_ISO_T2_5,79,1,48,42,523784852
865,10,Ticks_ISO_T2_5,80,5,42,127,524252484
865,10,Ticks_ISO_T2_5,81,1,48,46,524255600
865,10,Ticks_ISO_T2_5,82,1,48,40,524727384
865,10,Ticks_ISO_T2_5,83,5,42,127,524753216
865,10,Ticks_ISO_T2_5,84,1,48,44,525230144
865,10,Ticks_ISO_T2_5,85,5,42,127,525252912
865,10,Ticks_ISO_T2_5,86,1,48,41,525712032
865,10,Ticks_ISO_T2_5,87,5,42,127,525752608
865,10,Ticks_ISO_T2_5,88,1,48,42,526247632
865,10,Ticks_ISO_T2_5,89,5,42,127,526253348
865,10,Ticks_ISO_T2_5,90,5,42,127,526753100
865,10,Ticks_ISO_T2_5,91,1,48,39,526770432
865,10,Ticks_ISO_T2_5,92,1,48,44,527249764
865,10,Ticks_ISO_T2_5,93,5,42,127,527252788
865,10,Ticks_ISO_T2_5,94,1,48,43,527733448
865,10,Ticks_ISO_T2_5,95,5,42,127,527752556
865,10,Ticks_ISO_T2_5,96,1,48,43,528210704
865,10,Ticks_ISO_T2_5,97,5,42,127,528253224
865,10,Ticks_ISO_T2_5,98,1,48,36,528740472
865,10,Ticks_ISO_T2_5,99,5,42,127,528752992
865,10,Ticks_ISO_T2_5,100,5,42,127,529252916
865,10,Ticks_ISO_T2_5,101,1,48,39,529255516
865,10,Ticks_ISO_T2_5,102,1,48,42,529739112
865,10,Ticks_ISO_T2_5,103,5,42,127,529752532
865,10,Ticks_ISO_T2_5,104,1,48,41,530234840
865,10,Ticks_ISO_T2_5,105,5,42,127,530253124
865,10,Ticks_ISO_T2_5,106,5,42,127,530752976
865,10,Ticks_ISO_T2_5,107,1,48,41,530775168
865,10,Ticks_ISO_T2_5,108,5,42,127,531252520
865,10,Ticks_ISO_T2_5,109,1,48,37,531298724
865,10,Ticks_ISO_T2_5,110,1,48,39,531732580
865,10,Ticks_ISO_T2_5,111,5,42,127,531753328
865,10,Ticks_ISO_T2_5,112,1,48,33,532251140
865,10,Ticks_ISO_T2_5,113,5,42,127,532253172
865,10,Ticks_ISO_T2_5,114,5,42,127,532752728
865,10,Ticks_ISO_T2_5,115,1,48,32,532794592
865,10,Ticks_ISO_T2_5,116,5,42,127,533252396
865,10,Ticks_ISO_T2_5,117,1,48,39,533280224
865,10,Ticks_ISO_T2_5,118,1,48,39,533700216
865,10,Ticks_ISO_T2_5,119,5,42,127,533753280
865,10,Ticks_ISO_T2_5,120,5,42,127,534252832
865,10,Ticks_ISO_T2_5,121,1,48,36,534266348
865,10,Ticks_ISO_T2_5,122,1,48,40,534737984
865,10,Ticks_ISO_T2_5,123,5,42,127,534752524
865,10,Ticks_ISO_T2_5,124,5,42,127,535253420
865,10,Ticks_ISO_T2_5,125,1,48,46,535271124
865,10,Ticks_ISO_T2_5,126,5,42,127,535753260
865,10,Ticks_ISO_T2_5,127,1,48,51,535767456
865,10,Ticks_ISO_T2_5,128,5,42,127,536252884
865,10,Ticks_ISO_T2_5,129,1,48,41,536299012
865,10,Ticks_ISO_T2_5,130,5,42,127,536752356
865,10,Ticks_ISO_T2_5,131,1,48,48,536753692
865,10,Ticks_ISO_T2_5,132,5,42,127,537253320
865,10,Ticks_ISO_T2_5,133,1,48,42,537255692
865,10,Ticks_ISO_T2_5,134,5,42,127,537753092
865,10,Ticks_ISO_T2_5,135,1,48,31,537783736
865,10,Ticks_ISO_T2_5,136,1,48,51,538235464
865,10,Ticks_ISO_T2_5,137,5,42,127,538253148
865,10,Ticks_ISO_T2_5,138,5,42,127,538753452
865,10,Ticks_ISO_T2_5,139,1,48,46,538774672
865,10,Ticks_ISO_T2_5,140,1,48,47,539249968
865,10,Ticks_ISO_T2_5,141,5,42,127,539253216
865,10,Ticks_ISO_T2_5,142,1,48,52,539738888
865,10,Ticks_ISO_T2_5,143,5,42,127,539752760
865,10,Ticks_ISO_T2_5,144,1,48,49,540217792
865,10,Ticks_ISO_T2_5,145,5,42,127,540252456
865,10,Ticks_ISO_T2_5,146,1,48,43,540740296
865,10,Ticks_ISO_T2_5,147,5,42,127,540753196
865,10,Ticks_ISO_T2_5,148,1,48,46,541252748
865,10,Ticks_ISO_T2_5,149,5,42,127,541254232
865,10,Ticks_ISO_T2_5,150,1,48,45,541743128
865,10,Ticks_ISO_T2_5,151,5,42,127,541752660
865,10,Ticks_ISO_T2_5,152,5,42,127,542253480
865,10,Ticks_ISO_T2_5,153,1,48,47,542304920
865,10,Ticks_ISO_T2_5,154,1,48,48,542733988
865,10,Ticks_ISO_T2_5,155,5,42,127,542753244
865,10,Ticks_ISO_T2_5,156,5,42,127,543253244
865,10,Ticks_ISO_T2_5,157,1,48,43,543262800
865,10,Ticks_ISO_T2_5,158,1,48,55,543735368
865,10,Ticks_ISO_T2_5,159,5,42,127,543752536
865,10,Ticks_ISO_T2_5,160,1,48,46,544197748
865,10,Ticks_ISO_T2_5,161,5,42,127,544253276
865,10,Ticks_ISO_T2_5,162,1,48,25,544259376
865,10,Ticks_ISO_T2_5,163,5,42,127,544753180
865,10,Ticks_ISO_T2_5,164,1,48,43,544773204
865,10,Ticks_ISO_T2_5,165,5,42,127,545252724
865,10,Ticks_ISO_T2_5,166,1,48,44,545275068
865,10,Ticks_ISO_T2_5,167,5,42,127,545752344
865,10,Ticks_ISO_T2_5,168,1,48,32,545796900
865,10,Ticks_ISO_T2_5,169,5,42,127,546253160
865,10,Ticks_ISO_T2_5,170,1,48,46,546271240
865,10,Ticks_ISO_T2_5,171,5,42,127,546753152
865,10,Ticks_ISO_T2_5,172,1,48,45,546763600
865,10,Ticks_ISO_T2_5,173,5,42,127,547252624
865,10,Ticks_ISO_T2_5,174,1,48,42,547287680
865,10,Ticks_ISO_T2_5,175,5,42,127,547753288
865,10,Ticks_ISO_T2_5,176,1,48,35,547773308
865,10,Ticks_ISO_T2_5,177,1,48,47,548191460
865,10,Ticks_ISO_T2_5,178,5,42,127,548253052
865,10,Ticks_ISO_T2_5,179,1,48,42,548750560
865,10,Ticks_ISO_T2_5,180,5,42,127,548752748
865,10,Ticks_ISO_T2_5,181,5,42,127,549252524
865,10,Ticks_ISO_T2_5,182,1,48,36,549293264
865,10,Ticks_ISO_T2_5,183,5,42,127,549753188
865,10,Ticks_ISO_T2_5,184,1,48,35,549790944
865,10,Ticks_ISO_T2_5,185,5,42,127,550252884
865,10,Ticks_ISO_T2_5,186,1,48,35,550300360
865,10,Ticks_ISO_T2_5,187,5,42,127,550752580
865,10,Ticks_ISO_T2_5,188,1,48,38,550824808
865,10,Ticks_ISO_T2_5,189,5,42,127,551253248
865,10,Ticks_ISO_T2_5,190,1,48,35,551347472
865,10,Ticks_ISO_T2_5,191,5,42,127,551753016
865,10,Ticks_ISO_T2_5,192,1,48,28,551770044
865,10,Ticks_ISO_T2_5,193,1,48,37,552223644
865,10,Ticks_ISO_T2_5,194,5,42,127,552252852
865,10,Ticks_ISO_T2_5,195,1,48,38,552703792
865,10,Ticks_ISO_T2_5,196,5,42,127,552752396
865,10,Ticks_ISO_T2_5,197,5,42,127,553253220
865,10,Ticks_ISO_T2_5,198,1,48,26,553260604
865,10,Ticks_ISO_T2_5,199,5,42,127,553752916
865,10,Ticks_ISO_T2_5,200,1,48,32,553762844
865,10,Ticks_ISO_T2_5,201,1,48,38,554252608
865,10,Ticks_ISO_T2_5,202,5,42,127,554253872
865,10,Ticks_ISO_T2_5,203,1,48,47,554748424
865,10,Ticks_ISO_T2_5,204,5,42,127,554753244
865,10,Ticks_ISO_T2_5,205,5,42,127,555253096
865,10,Ticks_ISO_T2_5,206,1,48,44,555264812
865,10,Ticks_ISO_T2_5,207,1,48,46,555715344
865,10,Ticks_ISO_T2_5,208,5,42,127,555752928
865,10,Ticks_ISO_T2_5,209,1,48,41,556230524
865,10,Ticks_ISO_T2_5,210,5,42,127,556252552
865,10,Ticks_ISO_T2_5,211,1,48,43,556735832
865,10,Ticks_ISO_T2_5,212,5,42,127,556753144
865,10,Ticks_ISO_T2_5,213,1,48,40,557248916
865,10,Ticks_ISO_T2_5,214,5,42,127,557253060
865,10,Ticks_ISO_T2_5,215,5,42,127,557752692
865,10,Ticks_ISO_T2_5,216,1,48,40,557781612
865,10,Ticks_ISO_T2_5,217,1,48,41,558251768
865,10,Ticks_ISO_T2_5,218,5,42,127,558253348
865,10,Ticks_ISO_T2_5,219,5,42,127,558753052
865,10,Ticks_ISO_T2_5,220,1,48,43,558762380
865,10,Ticks_ISO_T2_5,221,5,42,127,559252820
865,10,Ticks_ISO_T2_5,222,1,48,43,559271720
865,10,Ticks_ISO_T2_5,223,5,42,127,559752512
865,10,Ticks_ISO_T2_5,224,1,48,50,559753480
865,10,Ticks_ISO_T2_5,225,5,42,127,560253256
865,10,Ticks_ISO_T2_5,226,1,48,44,560279040
865,10,Ticks_ISO_T2_5,227,5,42,127,560752956
865,10,Ticks_ISO_T2_5,228,1,48,44,560773948
865,10,Ticks_ISO_T2_5,229,5,42,127,561252872
865,10,Ticks_ISO_T2_5,230,1,48,39,561328548
865,10,Ticks_ISO_T2_5,231,5,42,127,561752568
865,10,Ticks_ISO_T2_5,232,1,48,36,561801612
865,10,Ticks_ISO_T2_5,233,5,42,127,562253084
865,10,Ticks_ISO_T2_5,234,1,48,43,562258224
865,10,Ticks_ISO_T2_5,235,5,42,127,562752928
865,10,Ticks_ISO_T2_5,236,1,48,50,562786260
865,10,Ticks_ISO_T2_5,237,5,42,127,563252772
865,10,Ticks_ISO_T2_5,238,1,48,44,563312364
865,10,Ticks_ISO_T2_5,239,5,42,127,563753292
865,10,Ticks_ISO_T2_5,240,1,48,44,563764488
865,10,Ticks_ISO_T2_5,241,1,48,49,564251928
865,10,Ticks_ISO_T2_5,242,5,42,127,564253276
865,10,Ticks_ISO_T2_5,243,5,42,127,564752832
865,10,Ticks_ISO_T2_5,244,1,48,47,564755800
865,10,Ticks_ISO_T2_5,245,5,42,127,565252576
865,10,Ticks_ISO_T2_5,246,1,48,46,565259684
865,10,Ticks_ISO_T2_5,247,5,42,127,565753168
865,10,Ticks_ISO_T2_5,248,1,48,50,565784736
865,10,Ticks_ISO_T2_5,249,1,48,50,566246916
865,10,Ticks_ISO_T2_5,250,5,42,127,566252784
865,10,Ticks_ISO_T2_5,251,1,48,44,566749604
865,10,Ticks_ISO_T2_5,252,5,42,127,566752704
865,10,Ticks_ISO_T2_5,253,1,48,37,567248400
865,10,Ticks_ISO_T2_5,0,9999,9999,9999,502250572
865,10,Ticks_ISO_T2_5,1,9999,9999,9999,502750288
865,10,Ticks_ISO_T2_5,2,9999,9999,9999,503251052
865,10,Ticks_ISO_T2_5,3,9999,9999,9999,503750768
865,10,Ticks_ISO_T2_5,4,9999,9999,9999,504250484
865,10,Ticks_ISO_T2_5,5,9999,9999,9999,504750200
865,10,Ticks_ISO_T2_5,6,9999,9999,9999,505250888
865,10,Ticks_ISO_T2_5,7,9999,9999,9999,505750608
865,10,Ticks_ISO_T2_5,8,9999,9999,9999,506250320
865,10,Ticks_ISO_T2_5,9,9999,9999,9999,506751056
865,10,Ticks_ISO_T2_5,10,9999,9999,9999,507250752
865,10,Ticks_ISO_T2_5,11,9999,9999,9999,507750448
865,10,Ticks_ISO_T2_5,12,9999,9999,9999,508250216
865,10,Ticks_ISO_T2_5,13,9999,9999,9999,508750960
865,10,Ticks_ISO_T2_5,14,9999,9999,9999,509250652
865,10,Ticks_ISO_T2_5,15,9999,9999,9999,509750348
865,10,Ticks_ISO_T2_5,16,9999,9999,9999,510251088
865,10,Ticks_ISO_T2_5,17,9999,9999,9999,510750784
865,10,Ticks_ISO_T2_5,18,9999,9999,9999,511250480
865,10,Ticks_ISO_T2_5,19,9999,9999,9999,511750224
865,10,Ticks_ISO_T2_5,20,9999,9999,9999,512250968
865,10,Ticks_ISO_T2_5,21,9999,9999,9999,512750668
865,10,Ticks_ISO_T2_5,22,9999,9999,9999,513250356
865,10,Ticks_ISO_T2_5,23,9999,9999,9999,513750136
865,10,Ticks_ISO_T2_5,24,9999,9999,9999,514250800
865,10,Ticks_ISO_T2_5,25,9999,9999,9999,514750564
865,10,Ticks_ISO_T2_5,26,9999,9999,9999,515250264
865,10,Ticks_ISO_T2_5,27,9999,9999,9999,515751000
865,10,Ticks_ISO_T2_5,28,9999,9999,9999,516250700
865,10,Ticks_ISO_T2_5,29,9999,9999,9999,516750396
865,10,Ticks_ISO_T2_5,30,9999,9999,9999,517250156
865,10,Ticks_ISO_T2_5,31,9999,9999,9999,517750900
865,10,Ticks_ISO_T2_5,32,9999,9999,9999,518250592
865,10,Ticks_ISO_T2_5,33,9999,9999,9999,518750288
865,10,Ticks_ISO_T2_5,34,9999,9999,9999,519251024
865,10,Ticks_ISO_T2_5,35,9999,9999,9999,519750716
865,10,Ticks_ISO_T2_5,36,9999,9999,9999,520250484
865,10,Ticks_ISO_T2_5,37,9999,9999,9999,520750184
865,10,Ticks_ISO_T2_5,38,9999,9999,9999,521250924
865,10,Ticks_ISO_T2_5,39,9999,9999,9999,521750620
865,10,Ticks_ISO_T2_5,40,9999,9999,9999,522250296
865,10,Ticks_ISO_T2_5,41,9999,9999,9999,522751068
865,10,Ticks_ISO_T2_5,42,9999,9999,9999,523250808
865,10,Ticks_ISO_T2_5,43,9999,9999,9999,523750500
865,10,Ticks_ISO_T2_5,44,9999,9999,9999,524250196
865,10,Ticks_ISO_T2_5,45,9999,9999,9999,524750932
865,10,Ticks_ISO_T2_5,46,9999,9999,9999,525250624
865,10,Ticks_ISO_T2_5,47,9999,9999,9999,525750320
865,10,Ticks_ISO_T2_5,48,9999,9999,9999,526251064
865,10,Ticks_ISO_T2_5,49,9999,9999,9999,526750812
865,10,Ticks_ISO_T2_5,50,9999,9999,9999,527250500
865,10,Ticks_ISO_T2_5,51,9999,9999,9999,527750196
865,10,Ticks_ISO_T2_5,52,9999,9999,9999,528250936
865,10,Ticks_ISO_T2_5,53,9999,9999,9999,528750708
865,10,Ticks_ISO_T2_5,54,9999,9999,9999,529250408
865,10,Ticks_ISO_T2_5,55,9999,9999,9999,529750096
865,10,Ticks_ISO_T2_5,56,9999,9999,9999,530250836
865,10,Ticks_ISO_T2_5,57,9999,9999,9999,530750540
865,10,Ticks_ISO_T2_5,58,9999,9999,9999,531250236
865,10,Ticks_ISO_T2_5,59,9999,9999,9999,531750968
865,10,Ticks_ISO_T2_5,60,9999,9999,9999,532250688
865,10,Ticks_ISO_T2_5,61,9999,9999,9999,532750440
865,10,Ticks_ISO_T2_5,62,9999,9999,9999,533250108
865,10,Ticks_ISO_T2_5,63,9999,9999,9999,533750844
865,10,Ticks_ISO_T2_5,64,9999,9999,9999,534250548
865,10,Ticks_ISO_T2_5,65,9999,9999,9999,534750312
865,10,Ticks_ISO_T2_5,66,9999,9999,9999,535251060
865,10,Ticks_ISO_T2_5,67,9999,9999,9999,535750752
865,10,Ticks_ISO_T2_5,68,9999,9999,9999,536250448
865,10,Ticks_ISO_T2_5,69,9999,9999,9999,536750144
865,10,Ticks_ISO_T2_5,70,9999,9999,9999,537250884
865,10,Ticks_ISO_T2_5,71,9999,9999,9999,537750580
865,10,Ticks_ISO_T2_5,72,9999,9999,9999,538250344
865,10,Ticks_ISO_T2_5,73,9999,9999,9999,538751092
865,10,Ticks_ISO_T2_5,74,9999,9999,9999,539250780
865,10,Ticks_ISO_T2_5,75,9999,9999,9999,539750472
865,10,Ticks_ISO_T2_5,76,9999,9999,9999,540250168
865,10,Ticks_ISO_T2_5,77,9999,9999,9999,540750908
865,10,Ticks_ISO_T2_5,78,9999,9999,9999,541250608
865,10,Ticks_ISO_T2_5,79,9999,9999,9999,541750372
865,10,Ticks_ISO_T2_5,80,9999,9999,9999,542251120
865,10,Ticks_ISO_T2_5,81,9999,9999,9999,542750808
865,10,Ticks_ISO_T2_5,82,9999,9999,9999,543250512
865,10,Ticks_ISO_T2_5,83,9999,9999,9999,543750248
865,10,Ticks_ISO_T2_5,84,9999,9999,9999,544250992
865,10,Ticks_ISO_T2_5,85,9999,9999,9999,544750668
865,10,Ticks_ISO_T2_5,86,9999,9999,9999,545250364
865,10,Ticks_ISO_T2_5,87,9999,9999,9999,545750132
865,10,Ticks_ISO_T2_5,88,9999,9999,9999,546250872
865,10,Ticks_ISO_T2_5,89,9999,9999,9999,546750568
865,10,Ticks_ISO_T2_5,90,9999,9999,9999,547250260
865,10,Ticks_ISO_T2_5,91,9999,9999,9999,547751004
865,10,Ticks_ISO_T2_5,92,9999,9999,9999,548250692
865,10,Ticks_ISO_T2_5,93,9999,9999,9999,548750424
865,10,Ticks_ISO_T2_5,94,9999,9999,9999,549250160
865,10,Ticks_ISO_T2_5,95,9999,9999,9999,549750904
865,10,Ticks_ISO_T2_5,96,9999,9999,9999,550250596
865,10,Ticks_ISO_T2_5,97,9999,9999,9999,550750296
865,10,Ticks_ISO_T2_5,98,9999,9999,9999,551251036
865,10,Ticks_ISO_T2_5,99,9999,9999,9999,551750728
865,10,Ticks_ISO_T2_5,100,9999,9999,9999,552250416
865,10,Ticks_ISO_T2_5,101,9999,9999,9999,552750184
865,10,Ticks_ISO_T2_5,102,9999,9999,9999,553250932
865,10,Ticks_ISO_T2_5,103,9999,9999,9999,553750628
865,10,Ticks_ISO_T2_5,104,9999,9999,9999,554250320
865,10,Ticks_ISO_T2_5,105,9999,9999,9999,554751032
865,10,Ticks_ISO_T2_5,106,9999,9999,9999,555250808
865,10,Ticks_ISO_T2_5,107,9999,9999,9999,555750496
865,10,Ticks_ISO_T2_5,108,9999,9999,9999,556250192
865,10,Ticks_ISO_T2_5,109,9999,9999,9999,556750932
865,10,Ticks_ISO_T2_5,110,9999,9999,9999,557250628
865,10,Ticks_ISO_T2_5,111,9999,9999,9999,557750328
865,10,Ticks_ISO_T2_5,112,9999,9999,9999,558251076
865,10,Ticks_ISO_T2_5,113,9999,9999,9999,558750840
865,10,Ticks_ISO_T2_5,114,9999,9999,9999,559250532
865,10,Ticks_ISO_T2_5,115,9999,9999,9999,559750228
865,10,Ticks_ISO_T2_5,116,9999,9999,9999,560250972
865,10,Ticks_ISO_T2_5,117,9999,9999,9999,560750668
865,10,Ticks_ISO_T2_5,118,9999,9999,9999,561250364
865,10,Ticks_ISO_T2_5,119,9999,9999,9999,561750132
865,10,Ticks_ISO_T2_5,120,9999,9999,9999,562250872
865,10,Ticks_ISO_T2_5,121,9999,9999,9999,562750568
865,10,Ticks_ISO_T2_5,122,9999,9999,9999,563250264
865,10,Ticks_ISO_T2_5,123,9999,9999,9999,563751004
865,10,Ticks_ISO_T2_5,124,9999,9999,9999,564250700
865,10,Ticks_ISO_T2_5,125,9999,9999,9999,564750396
865,10,Ticks_ISO_T2_5,126,9999,9999,9999,565250140
865,10,Ticks_ISO_T2_5,127,9999,9999,9999,565750880
865,10,Ticks_ISO_T2_5,128,9999,9999,9999,566250572
865,10,Ticks_ISO_T2_5,129,9999,9999,9999,566750268
866,9,Ticks_ISO_T2_8,0,5,42,127,577783108
866,9,Ticks_ISO_T2_8,1,5,42,127,578582816
866,9,Ticks_ISO_T2_8,2,5,42,127,579382720
866,9,Ticks_ISO_T2_8,3,5,42,127,580183520
866,9,Ticks_ISO_T2_8,4,5,42,127,580983276
866,9,Ticks_ISO_T2_8,5,5,42,127,581782884
866,9,Ticks_ISO_T2_8,6,5,42,127,582582564
866,9,Ticks_ISO_T2_8,7,5,42,127,583383512
866,9,Ticks_ISO_T2_8,8,5,42,127,584183120
866,9,Ticks_ISO_T2_8,9,5,42,127,584982824
866,9,Ticks_ISO_T2_8,10,1,48,31,585695528
866,9,Ticks_ISO_T2_8,11,5,42,127,585782648
866,9,Ticks_ISO_T2_8,12,1,48,34,586514508
866,9,Ticks_ISO_T2_8,13,5,42,127,586583428
866,9,Ticks_ISO_T2_8,14,1,48,35,587347600
866,9,Ticks_ISO_T2_8,15,5,42,127,587383012
866,9,Ticks_ISO_T2_8,16,5,42,127,588182828
866,9,Ticks_ISO_T2_8,17,1,48,39,588204348
866,9,Ticks_ISO_T2_8,18,5,42,127,588982636
866,9,Ticks_ISO_T2_8,19,1,48,34,589078608
866,9,Ticks_ISO_T2_8,20,5,42,127,589783488
866,9,Ticks_ISO_T2_8,21,1,48,35,589788480
866,9,Ticks_ISO_T2_8,22,1,48,35,590580488
866,9,Ticks_ISO_T2_8,23,5,42,127,590583140
866,9,Ticks_ISO_T2_8,24,5,42,127,591382756
866,9,Ticks_ISO_T2_8,25,1,48,30,591421484
866,9,Ticks_ISO_T2_8,26,1,48,30,592165468
866,9,Ticks_ISO_T2_8,27,5,42,127,592182632
866,9,Ticks_ISO_T2_8,28,5,42,127,592983496
866,9,Ticks_ISO_T2_8,29,1,48,30,593002920
866,9,Ticks_ISO_T2_8,30,1,48,24,593772344
866,9,Ticks_ISO_T2_8,31,5,42,127,593783224
866,9,Ticks_ISO_T2_8,32,1,48,32,594569464
866,9,Ticks_ISO_T2_8,33,5,42,127,594582880
866,9,Ticks_ISO_T2_8,34,1,48,35,595368448
866,9,Ticks_ISO_T2_8,35,5,42,127,595382540
866,9,Ticks_ISO_T2_8,36,1,48,37,596156508
866,9,Ticks_ISO_T2_8,37,5,42,127,596183544
866,9,Ticks_ISO_T2_8,38,1,48,39,596936948
866,9,Ticks_ISO_T2_8,39,5,42,127,596983428
866,9,Ticks_ISO_T2_8,40,1,48,39,597774924
866,9,Ticks_ISO_T2_8,41,5,42,127,597782888
866,9,Ticks_ISO_T2_8,42,5,42,127,598582776
866,9,Ticks_ISO_T2_8,43,1,48,34,598591056
866,9,Ticks_ISO_T2_8,44,5,42,127,599383260
866,9,Ticks_ISO_T2_8,45,1,48,29,599418616
866,9,Ticks_ISO_T2_8,46,1,48,32,600139344
866,9,Ticks_ISO_T2_8,47,5,42,127,600183356
866,9,Ticks_ISO_T2_8,48,1,48,30,600928312
866,9,Ticks_ISO_T2_8,49,5,42,127,600982796
866,9,Ticks_ISO_T2_8,50,1,48,32,601725272
866,9,Ticks_ISO_T2_8,51,5,42,127,601782604
866,9,Ticks_ISO_T2_8,52,1,48,42,602550740
866,9,Ticks_ISO_T2_8,53,5,42,127,602583384
866,9,Ticks_ISO_T2_8,54,1,48,40,603353612
866,9,Ticks_ISO_T2_8,55,5,42,127,603383340
866,9,Ticks_ISO_T2_8,56,1,48,40,604155144
866,9,Ticks_ISO_T2_8,57,5,42,127,604183248
866,9,Ticks_ISO_T2_8,58,1,48,35,604926152
866,9,Ticks_ISO_T2_8,59,5,42,127,604982684
866,9,Ticks_ISO_T2_8,60,5,42,127,605783396
866,9,Ticks_ISO_T2_8,61,1,48,42,605784360
866,9,Ticks_ISO_T2_8,62,5,42,127,606583276
866,9,Ticks_ISO_T2_8,63,1,48,40,606601804
866,9,Ticks_ISO_T2_8,64,1,48,51,607368240
866,9,Ticks_ISO_T2_8,65,5,42,127,607383152
866,9,Ticks_ISO_T2_8,66,5,42,127,608182596
866,9,Ticks_ISO_T2_8,67,1,48,40,608197532
866,9,Ticks_ISO_T2_8,68,5,42,127,608983376
866,9,Ticks_ISO_T2_8,69,1,48,43,609003700
866,9,Ticks_ISO_T2_8,70,1,48,45,609762872
866,9,Ticks_ISO_T2_8,71,5,42,127,609783176
866,9,Ticks_ISO_T2_8,72,1,48,47,610572204
866,9,Ticks_ISO_T2_8,73,5,42,127,610583156
866,9,Ticks_ISO_T2_8,74,1,48,43,611381236
866,9,Ticks_ISO_T2_8,75,5,42,127,611382596
866,9,Ticks_ISO_T2_8,76,1,48,39,612171152
866,9,Ticks_ISO_T2_8,77,5,42,127,612183376
866,9,Ticks_ISO_T2_8,78,1,48,44,612933632
866,9,Ticks_ISO_T2_8,79,5,42,127,612983108
866,9,Ticks_ISO_T2_8,80,1,48,33,613742044
866,9,Ticks_ISO_T2_8,81,5,42,127,613782844
866,9,Ticks_ISO_T2_8,82,1,48,39,614549856
866,9,Ticks_ISO_T2_8,83,5,42,127,614582576
866,9,Ticks_ISO_T2_8,84,1,48,42,615337844
866,9,Ticks_ISO_T2_8,85,5,42,127,615383356
866,9,Ticks_ISO_T2_8,86,1,48,46,616151492
866,9,Ticks_ISO_T2_8,87,5,42,127,616183088
866,9,Ticks_ISO_T2_8,88,1,48,44,616917940
866,9,Ticks_ISO_T2_8,89,5,42,127,616982996
866,9,Ticks_ISO_T2_8,90,1,48,38,617716852
866,9,Ticks_ISO_T2_8,91,5,42,127,617782504
866,9,Ticks_ISO_T2_8,92,1,48,41,618516304
866,9,Ticks_ISO_T2_8,93,5,42,127,618583436
866,9,Ticks_ISO_T2_8,94,5,42,127,619383248
866,9,Ticks_ISO_T2_8,95,1,48,33,619425112
866,9,Ticks_ISO_T2_8,96,5,42,127,620182832
866,9,Ticks_ISO_T2_8,97,1,48,38,620201136
866,9,Ticks_ISO_T2_8,98,1,48,42,620939116
866,9,Ticks_ISO_T2_8,99,5,42,127,620982536
866,9,Ticks_ISO_T2_8,100,1,48,46,621729876
866,9,Ticks_ISO_T2_8,101,5,42,127,621783464
866,9,Ticks_ISO_T2_8,102,1,48,49,622495124
866,9,Ticks_ISO_T2_8,103,5,42,127,622583196
866,9,Ticks_ISO_T2_8,104,1,48,43,623339740
866,9,Ticks_ISO_T2_8,105,5,42,127,623383028
866,9,Ticks_ISO_T2_8,106,1,48,43,624111048
866,9,Ticks_ISO_T2_8,107,5,42,127,624182612
866,9,Ticks_ISO_T2_8,108,1,48,40,624839724
866,9,Ticks_ISO_T2_8,109,5,42,127,624983524
866,9,Ticks_ISO_T2_8,110,1,48,42,625636912
866,9,Ticks_ISO_T2_8,111,5,42,127,625783108
866,9,Ticks_ISO_T2_8,112,1,48,43,626562028
866,9,Ticks_ISO_T2_8,113,5,42,127,626582932
866,9,Ticks_ISO_T2_8,114,5,42,127,627382596
866,9,Ticks_ISO_T2_8,115,1,48,39,627387136
866,9,Ticks_ISO_T2_8,116,5,42,127,628183376
866,9,Ticks_ISO_T2_8,117,1,48,41,628192776
866,9,Ticks_ISO_T2_8,118,5,42,127,628983108
866,9,Ticks_ISO_T2_8,119,1,48,42,629006900
866,9,Ticks_ISO_T2_8,120,1,48,42,629776996
866,9,Ticks_ISO_T2_8,121,5,42,127,629783008
866,9,Ticks_ISO_T2_8,122,1,48,47,630560944
866,9,Ticks_ISO_T2_8,123,5,42,127,630582668
866,9,Ticks_ISO_T2_8,124,1,48,45,631352072
866,9,Ticks_ISO_T2_8,125,5,42,127,631383448
866,9,Ticks_ISO_T2_8,126,1,48,48,632133108
866,9,Ticks_ISO_T2_8,127,5,42,127,632183032
866,9,Ticks_ISO_T2_8,128,1,48,50,632958872
866,9,Ticks_ISO_T2_8,129,5,42,127,632982992
866,9,Ticks_ISO_T2_8,130,1,48,43,633721432
866,9,Ticks_ISO_T2_8,131,5,42,127,633782576
866,9,Ticks_ISO_T2_8,132,1,48,48,634538444
866,9,Ticks_ISO_T2_8,133,5,42,127,634583280
866,9,Ticks_ISO_T2_8,134,1,48,30,635375652
866,9,Ticks_ISO_T2_8,135,5,42,127,635383016
866,9,Ticks_ISO_T2_8,136,1,48,52,636156012
866,9,Ticks_ISO_T2_8,137,5,42,127,636182996
866,9,Ticks_ISO_T2_8,138,1,48,37,636972448
866,9,Ticks_ISO_T2_8,139,5,42,127,636982804
866,9,Ticks_ISO_T2_8,140,5,42,127,637783296
866,9,Ticks_ISO_T2_8,141,1,48,42,637799580
866,9,Ticks_ISO_T2_8,142,5,42,127,638583100
866,9,Ticks_ISO_T2_8,143,1,48,34,638589436
866,9,Ticks_ISO_T2_8,144,1,48,49,639307176
866,9,Ticks_ISO_T2_8,145,5,42,127,639382904
866,9,Ticks_ISO_T2_8,146,1,48,38,640106912
866,9,Ticks_ISO_T2_8,147,5,42,127,640182784
866,9,Ticks_ISO_T2_8,148,1,48,46,640921676
866,9,Ticks_ISO_T2_8,149,5,42,127,640983340
866,9,Ticks_ISO_T2_8,150,1,48,38,641744296
866,9,Ticks_ISO_T2_8,151,5,42,127,641783224
866,9,Ticks_ISO_T2_8,152,1,48,57,642489952
866,9,Ticks_ISO_T2_8,153,5,42,127,642582832
866,9,Ticks_ISO_T2_8,154,1,48,30,643346400
866,9,Ticks_ISO_T2_8,155,5,42,127,643382788
866,9,Ticks_ISO_T2_8,156,5,42,127,644183500
866,9,Ticks_ISO_T2_8,157,1,48,30,644226268
866,9,Ticks_ISO_T2_8,158,5,42,127,644983160
866,9,Ticks_ISO_T2_8,159,1,48,34,645108052
866,9,Ticks_ISO_T2_8,160,5,42,127,645782820
866,9,Ticks_ISO_T2_8,161,1,48,34,645825728
866,9,Ticks_ISO_T2_8,162,5,42,127,646582772
866,9,Ticks_ISO_T2_8,163,1,48,35,646663188
866,9,Ticks_ISO_T2_8,164,1,48,24,647343944
866,9,Ticks_ISO_T2_8,165,5,42,127,647383396
866,9,Ticks_ISO_T2_8,166,1,48,42,648138148
866,9,Ticks_ISO_T2_8,167,5,42,127,648183208
866,9,Ticks_ISO_T2_8,168,1,48,26,648982300
866,9,Ticks_ISO_T2_8,169,5,42,127,648983716
866,9,Ticks_ISO_T2_8,170,1,48,42,649750952
866,9,Ticks_ISO_T2_8,171,5,42,127,649782624
866,9,Ticks_ISO_T2_8,172,1,48,35,650565648
866,9,Ticks_ISO_T2_8,173,5,42,127,650583480
866,9,Ticks_ISO_T2_8,174,1,48,34,651352664
866,9,Ticks_ISO_T2_8,175,5,42,127,651383292
866,9,Ticks_ISO_T2_8,176,1,48,35,652147612
866,9,Ticks_ISO_T2_8,177,5,42,127,652182876
866,9,Ticks_ISO_T2_8,178,1,48,34,652937848
866,9,Ticks_ISO_T2_8,179,5,42,127,652982760
866,9,Ticks_ISO_T2_8,180,1,48,43,653692624
866,9,Ticks_ISO_T2_8,181,5,42,127,653783612
866,9,Ticks_ISO_T2_8,182,1,48,34,654524452
866,9,Ticks_ISO_T2_8,183,5,42,127,654583048
866,9,Ticks_ISO_T2_8,184,1,48,38,655332784
866,9,Ticks_ISO_T2_8,185,5,42,127,655382880
866,9,Ticks_ISO_T2_8,186,1,48,40,656081208
866,9,Ticks_ISO_T2_8,187,5,42,127,656182524
866,9,Ticks_ISO_T2_8,188,5,42,127,656983548
866,9,Ticks_ISO_T2_8,189,1,48,36,656989368
866,9,Ticks_ISO_T2_8,190,5,42,127,657783136
866,9,Ticks_ISO_T2_8,191,1,48,35,657784620
866,9,Ticks_ISO_T2_8,192,1,48,42,658548048
866,9,Ticks_ISO_T2_8,193,5,42,127,658582860
866,9,Ticks_ISO_T2_8,194,1,48,38,659352944
866,9,Ticks_ISO_T2_8,195,5,42,127,659382520
866,9,Ticks_ISO_T2_8,196,1,48,38,660159636
866,9,Ticks_ISO_T2_8,197,5,42,127,660183672
866,9,Ticks_ISO_T2_8,198,1,48,38,660955400
866,9,Ticks_ISO_T2_8,199,5,42,127,660983184
866,9,Ticks_ISO_T2_8,200,5,42,127,661782948
866,9,Ticks_ISO_T2_8,201,1,48,37,661794592
866,9,Ticks_ISO_T2_8,202,1,48,22,662564540
866,9,Ticks_ISO_T2_8,203,5,42,127,662582676
866,9,Ticks_ISO_T2_8,204,5,42,127,663383392
866,9,Ticks_ISO_T2_8,205,1,48,31,663385252
866,9,Ticks_ISO_T2_8,206,1,48,35,664146432
866,9,Ticks_ISO_T2_8,207,5,42,127,664183488
866,9,Ticks_ISO_T2_8,208,5,42,127,664982932
866,9,Ticks_ISO_T2_8,209,1,48,34,664992332
866,9,Ticks_ISO_T2_8,210,1,48,33,665751960
866,9,Ticks_ISO_T2_8,211,5,42,127,665782584
866,9,Ticks_ISO_T2_8,212,1,48,43,666506440
866,9,Ticks_ISO_T2_8,213,5,42,127,666583436
866,9,Ticks_ISO_T2_8,214,1,48,44,667345664
866,9,Ticks_ISO_T2_8,215,5,42,127,667383468
866,9,Ticks_ISO_T2_8,216,1,48,38,668177440
866,9,Ticks_ISO_T2_8,217,5,42,127,668182780
866,9,Ticks_ISO_T2_8,218,5,42,127,668982596
866,9,Ticks_ISO_T2_8,219,1,48,32,669015928
866,9,Ticks_ISO_T2_8,220,1,48,35,669708840
866,9,Ticks_ISO_T2_8,221,5,42,127,669783296
866,9,Ticks_ISO_T2_8,222,1,48,36,670581668
866,9,Ticks_ISO_T2_8,223,5,42,127,670583252
866,9,Ticks_ISO_T2_8,224,1,48,40,671309652
866,9,Ticks_ISO_T2_8,225,5,42,127,671382836
866,9,Ticks_ISO_T2_8,226,1,48,37,672122472
866,9,Ticks_ISO_T2_8,227,5,42,127,672182644
866,9,Ticks_ISO_T2_8,228,1,48,36,672958408
866,9,Ticks_ISO_T2_8,229,5,42,127,672983500
866,9,Ticks_ISO_T2_8,0,9999,9999,9999,577780820
866,9,Ticks_ISO_T2_8,1,9999,9999,9999,578580528
866,9,Ticks_ISO_T2_8,2,9999,9999,9999,579380280
866,9,Ticks_ISO_T2_8,3,9999,9999,9999,580181084
866,9,Ticks_ISO_T2_8,4,9999,9999,9999,580980836
866,9,Ticks_ISO_T2_8,5,9999,9999,9999,581780592
866,9,Ticks_ISO_T2_8,6,9999,9999,9999,582580276
866,9,Ticks_ISO_T2_8,7,9999,9999,9999,583381076
866,9,Ticks_ISO_T2_8,8,9999,9999,9999,584180832
866,9,Ticks_ISO_T2_8,9,9999,9999,9999,584980536
866,9,Ticks_ISO_T2_8,10,9999,9999,9999,585780288
866,9,Ticks_ISO_T2_8,11,9999,9999,9999,586581068
866,9,Ticks_ISO_T2_8,12,9999,9999,9999,587380800
866,9,Ticks_ISO_T2_8,13,9999,9999,9999,588180540
866,9,Ticks_ISO_T2_8,14,9999,9999,9999,588980272
866,9,Ticks_ISO_T2_8,15,9999,9999,9999,589781052
866,9,Ticks_ISO_T2_8,16,9999,9999,9999,590580852
866,9,Ticks_ISO_T2_8,17,9999,9999,9999,591380544
866,9,Ticks_ISO_T2_8,18,9999,9999,9999,592180272
866,9,Ticks_ISO_T2_8,19,9999,9999,9999,592981060
866,9,Ticks_ISO_T2_8,20,9999,9999,9999,593780788
866,9,Ticks_ISO_T2_8,21,9999,9999,9999,594580596
866,9,Ticks_ISO_T2_8,22,9999,9999,9999,595380328
866,9,Ticks_ISO_T2_8,23,9999,9999,9999,596181108
866,9,Ticks_ISO_T2_8,24,9999,9999,9999,596980840
866,9,Ticks_ISO_T2_8,25,9999,9999,9999,597780524
866,9,Ticks_ISO_T2_8,26,9999,9999,9999,598580340
866,9,Ticks_ISO_T2_8,27,9999,9999,9999,599381044
866,9,Ticks_ISO_T2_8,28,9999,9999,9999,600180848
866,9,Ticks_ISO_T2_8,29,9999,9999,9999,600980580
866,9,Ticks_ISO_T2_8,30,9999,9999,9999,601780316
866,9,Ticks_ISO_T2_8,31,9999,9999,9999,602581096
866,9,Ticks_ISO_T2_8,32,9999,9999,9999,603380828
866,9,Ticks_ISO_T2_8,33,9999,9999,9999,604180588
866,9,Ticks_ISO_T2_8,34,9999,9999,9999,604980320
866,9,Ticks_ISO_T2_8,35,9999,9999,9999,605781108
866,9,Ticks_ISO_T2_8,36,9999,9999,9999,606580840
866,9,Ticks_ISO_T2_8,37,9999,9999,9999,607380568
866,9,Ticks_ISO_T2_8,38,9999,9999,9999,608180308
866,9,Ticks_ISO_T2_8,39,9999,9999,9999,608981088
866,9,Ticks_ISO_T2_8,40,9999,9999,9999,609780816
866,9,Ticks_ISO_T2_8,41,9999,9999,9999,610580572
866,9,Ticks_ISO_T2_8,42,9999,9999,9999,611380312
866,9,Ticks_ISO_T2_8,43,9999,9999,9999,612181088
866,9,Ticks_ISO_T2_8,44,9999,9999,9999,612980820
866,9,Ticks_ISO_T2_8,45,9999,9999,9999,613780556
866,9,Ticks_ISO_T2_8,46,9999,9999,9999,614580288
866,9,Ticks_ISO_T2_8,47,9999,9999,9999,615381068
866,9,Ticks_ISO_T2_8,48,9999,9999,9999,616180800
866,9,Ticks_ISO_T2_8,49,9999,9999,9999,616980560
866,9,Ticks_ISO_T2_8,50,9999,9999,9999,617780292
866,9,Ticks_ISO_T2_8,51,9999,9999,9999,618581072
866,9,Ticks_ISO_T2_8,52,9999,9999,9999,619380812
866,9,Ticks_ISO_T2_8,53,9999,9999,9999,620180544
866,9,Ticks_ISO_T2_8,54,9999,9999,9999,620980320
866,9,Ticks_ISO_T2_8,55,9999,9999,9999,621781100
866,9,Ticks_ISO_T2_8,56,9999,9999,9999,622580832
866,9,Ticks_ISO_T2_8,57,9999,9999,9999,623380592
866,9,Ticks_ISO_T2_8,58,9999,9999,9999,624180324
866,9,Ticks_ISO_T2_8,59,9999,9999,9999,624981088
866,9,Ticks_ISO_T2_8,60,9999,9999,9999,625780820
866,9,Ticks_ISO_T2_8,61,9999,9999,9999,626580568
866,9,Ticks_ISO_T2_8,62,9999,9999,9999,627380308
866,9,Ticks_ISO_T2_8,63,9999,9999,9999,628181088
866,9,Ticks_ISO_T2_8,64,9999,9999,9999,628980820
866,9,Ticks_ISO_T2_8,65,9999,9999,9999,629780572
866,9,Ticks_ISO_T2_8,66,9999,9999,9999,630580304
866,9,Ticks_ISO_T2_8,67,9999,9999,9999,631381084
866,9,Ticks_ISO_T2_8,68,9999,9999,9999,632180816
866,9,Ticks_ISO_T2_8,69,9999,9999,9999,632980556
866,9,Ticks_ISO_T2_8,70,9999,9999,9999,633780288
866,9,Ticks_ISO_T2_8,71,9999,9999,9999,634581068
866,9,Ticks_ISO_T2_8,72,9999,9999,9999,635380800
866,9,Ticks_ISO_T2_8,73,9999,9999,9999,636180560
866,9,Ticks_ISO_T2_8,74,9999,9999,9999,636980292
866,9,Ticks_ISO_T2_8,75,9999,9999,9999,637781080
866,9,Ticks_ISO_T2_8,76,9999,9999,9999,638580812
866,9,Ticks_ISO_T2_8,77,9999,9999,9999,639380540
866,9,Ticks_ISO_T2_8,78,9999,9999,9999,640180272
866,9,Ticks_ISO_T2_8,79,9999,9999,9999,640981052
866,9,Ticks_ISO_T2_8,80,9999,9999,9999,641780788
866,9,Ticks_ISO_T2_8,81,9999,9999,9999,642580544
866,9,Ticks_ISO_T2_8,82,9999,9999,9999,643380280
866,9,Ticks_ISO_T2_8,83,9999,9999,9999,644181064
866,9,Ticks_ISO_T2_8,84,9999,9999,9999,644980796
866,9,Ticks_ISO_T2_8,85,9999,9999,9999,645780532
866,9,Ticks_ISO_T2_8,86,9999,9999,9999,646580336
866,9,Ticks_ISO_T2_8,87,9999,9999,9999,647381108
866,9,Ticks_ISO_T2_8,88,9999,9999,9999,648180844
866,9,Ticks_ISO_T2_8,89,9999,9999,9999,648980536
866,9,Ticks_ISO_T2_8,90,9999,9999,9999,649780336
866,9,Ticks_ISO_T2_8,91,9999,9999,9999,650581044
866,9,Ticks_ISO_T2_8,92,9999,9999,9999,651380852
866,9,Ticks_ISO_T2_8,93,9999,9999,9999,652180588
866,9,Ticks_ISO_T2_8,94,9999,9999,9999,652980324
866,9,Ticks_ISO_T2_8,95,9999,9999,9999,653781104
866,9,Ticks_ISO_T2_8,96,9999,9999,9999,654580836
866,9,Ticks_ISO_T2_8,97,9999,9999,9999,655380592
866,9,Ticks_ISO_T2_8,98,9999,9999,9999,656180312
866,9,Ticks_ISO_T2_8,99,9999,9999,9999,656981040
866,9,Ticks_ISO_T2_8,100,9999,9999,9999,657780848
866,9,Ticks_ISO_T2_8,101,9999,9999,9999,658580572
866,9,Ticks_ISO_T2_8,102,9999,9999,9999,659380308
866,9,Ticks_ISO_T2_8,103,9999,9999,9999,660181088
866,9,Ticks_ISO_T2_8,104,9999,9999,9999,660980820
866,9,Ticks_ISO_T2_8,105,9999,9999,9999,661780588
866,9,Ticks_ISO_T2_8,106,9999,9999,9999,662580316
866,9,Ticks_ISO_T2_8,107,9999,9999,9999,663381100
866,9,Ticks_ISO_T2_8,108,9999,9999,9999,664180828
866,9,Ticks_ISO_T2_8,109,9999,9999,9999,664980568
866,9,Ticks_ISO_T2_8,110,9999,9999,9999,665780296
866,9,Ticks_ISO_T2_8,111,9999,9999,9999,666581076
866,9,Ticks_ISO_T2_8,112,9999,9999,9999,667380808
866,9,Ticks_ISO_T2_8,113,9999,9999,9999,668180568
866,9,Ticks_ISO_T2_8,114,9999,9999,9999,668980308
866,9,Ticks_ISO_T2_8,115,9999,9999,9999,669781084
866,9,Ticks_ISO_T2_8,116,9999,9999,9999,670580820
866,9,Ticks_ISO_T2_8,117,9999,9999,9999,671380548
866,9,Ticks_ISO_T2_8,118,9999,9999,9999,672180284
866,9,Ticks_ISO_T2_8,119,9999,9999,9999,672981064
867,21,Ticks_Linear_5,0,5,42,127,684675336
867,21,Ticks_Linear_5,1,5,42,127,685155660
867,21,Ticks_Linear_5,2,5,42,127,685635984
867,21,Ticks_Linear_5,3,5,42,127,686116308
867,21,Ticks_Linear_5,4,5,42,127,686595340
867,21,Ticks_Linear_5,5,5,42,127,687085996
867,21,Ticks_Linear_5,6,5,42,127,687576360
867,21,Ticks_Linear_5,7,5,42,127,688076152
867,21,Ticks_Linear_5,8,5,42,127,688565540
867,21,Ticks_Linear_5,9,1,48,30,688692168
867,21,Ticks_Linear_5,10,5,42,127,689056104
867,21,Ticks_Linear_5,11,1,48,44,689083328
867,21,Ticks_Linear_5,12,1,48,44,689527824
867,21,Ticks_Linear_5,13,5,42,127,689555720
867,21,Ticks_Linear_5,14,1,48,47,690027896
867,21,Ticks_Linear_5,15,5,42,127,690055496
867,21,Ticks_Linear_5,16,5,42,127,690556248
867,21,Ticks_Linear_5,17,1,48,44,690558768
867,21,Ticks_Linear_5,18,5,42,127,691056172
867,21,Ticks_Linear_5,19,1,48,45,691066704
867,21,Ticks_Linear_5,20,5,42,127,691555796
867,21,Ticks_Linear_5,21,1,48,43,691564092
867,21,Ticks_Linear_5,22,5,42,127,692065756
867,21,Ticks_Linear_5,23,1,48,44,692067168
867,21,Ticks_Linear_5,24,5,42,127,692575788
867,21,Ticks_Linear_5,25,1,48,42,692577656
867,21,Ticks_Linear_5,26,5,42,127,693085524
867,21,Ticks_Linear_5,27,1,48,44,693112380
867,21,Ticks_Linear_5,28,1,48,45,693584136
867,21,Ticks_Linear_5,29,5,42,127,693595476
867,21,Ticks_Linear_5,30,5,42,127,694105372
867,21,Ticks_Linear_5,31,1,48,43,694118372
867,21,Ticks_Linear_5,32,5,42,127,694625664
867,21,Ticks_Linear_5,33,1,48,40,694675740
867,21,Ticks_Linear_5,34,5,42,127,695145880
867,21,Ticks_Linear_5,35,1,48,37,695170416
867,21,Ticks_Linear_5,36,1,48,40,695662448
867,21,Ticks_Linear_5,37,5,42,127,695666164
867,21,Ticks_Linear_5,38,5,42,127,696186168
867,21,Ticks_Linear_5,39,1,48,43,696189808
867,21,Ticks_Linear_5,40,1,48,46,696678408
867,21,Ticks_Linear_5,41,5,42,127,696706528
867,21,Ticks_Linear_5,42,1,48,42,697235992
867,21,Ticks_Linear_5,43,5,42,127,697246288
867,21,Ticks_Linear_5,44,1,48,43,697717640
867,21,Ticks_Linear_5,45,5,42,127,697775348
867,21,Ticks_Linear_5,46,5,42,127,698306204
867,21,Ticks_Linear_5,47,1,48,41,698311944
867,21,Ticks_Linear_5,48,1,48,43,698817548
867,21,Ticks_Linear_5,49,5,42,127,698836380
867,21,Ticks_Linear_5,50,1,48,50,699335292
867,21,Ticks_Linear_5,51,5,42,127,699365736
867,21,Ticks_Linear_5,52,1,48,49,699859400
867,21,Ticks_Linear_5,53,5,42,127,699906548
867,21,Ticks_Linear_5,54,1,48,51,700384864
867,21,Ticks_Linear_5,55,5,42,127,700456220
867,21,Ticks_Linear_5,56,1,48,47,700994712
867,21,Ticks_Linear_5,57,5,42,127,700996208
867,21,Ticks_Linear_5,58,1,48,49,701535456
867,21,Ticks_Linear_5,59,5,42,127,701536944
867,21,Ticks_Linear_5,60,5,42,127,702076268
867,21,Ticks_Linear_5,61,1,48,49,702092040
867,21,Ticks_Linear_5,62,1,48,53,702616888
867,21,Ticks_Linear_5,63,5,42,127,702626136
867,21,Ticks_Linear_5,64,1,48,55,703139948
867,21,Ticks_Linear_5,65,5,42,127,703176012
867,21,Ticks_Linear_5,66,1,48,46,703721872
867,21,Ticks_Linear_5,67,5,42,127,703725960
867,21,Ticks_Linear_5,68,5,42,127,704275868
867,21,Ticks_Linear_5,69,1,48,51,704289848
867,21,Ticks_Linear_5,70,1,48,41,704819024
867,21,Ticks_Linear_5,71,5,42,127,704825956
867,21,Ticks_Linear_5,72,5,42,127,705386020
867,21,Ticks_Linear_5,73,1,48,42,705390116
867,21,Ticks_Linear_5,74,5,42,127,705946156
867,21,Ticks_Linear_5,75,1,48,53,705965756
867,21,Ticks_Linear_5,76,1,48,52,706432548
867,21,Ticks_Linear_5,77,1,48,32,706501200
867,21,Ticks_Linear_5,78,5,42,127,706506184
867,21,Ticks_Linear_5,79,5,42,127,707066176
867,21,Ticks_Linear_5,80,1,48,44,707083320
867,21,Ticks_Linear_5,81,5,42,127,707626336
867,21,Ticks_Linear_5,82,1,48,45,707654996
867,21,Ticks_Linear_5,83,5,42,127,708195904
867,21,Ticks_Linear_5,84,1,48,40,708205992
867,21,Ticks_Linear_5,85,5,42,127,708766072
867,21,Ticks_Linear_5,86,1,48,35,708778256
867,21,Ticks_Linear_5,87,5,42,127,709336468
867,21,Ticks_Linear_5,88,1,48,40,709355388
867,21,Ticks_Linear_5,89,1,48,44,709895904
867,21,Ticks_Linear_5,90,5,42,127,709915940
867,21,Ticks_Linear_5,91,5,42,127,710486264
867,21,Ticks_Linear_5,92,1,48,41,710492896
867,21,Ticks_Linear_5,93,1,48,42,711064196
867,21,Ticks_Linear_5,94,5,42,127,711065860
867,21,Ticks_Linear_5,95,1,48,43,711633360
867,21,Ticks_Linear_5,96,5,42,127,711645540
867,21,Ticks_Linear_5,97,1,48,51,712209320
867,21,Ticks_Linear_5,98,5,42,127,712226216
867,21,Ticks_Linear_5,99,5,42,127,712805824
867,21,Ticks_Linear_5,100,1,48,43,712819428
867,21,Ticks_Linear_5,101,1,48,43,713334988
867,21,Ticks_Linear_5,102,5,42,127,713386248
867,21,Ticks_Linear_5,103,1,48,46,713960568
867,21,Ticks_Linear_5,104,5,42,127,713976036
867,21,Ticks_Linear_5,105,1,48,40,714538252
867,21,Ticks_Linear_5,106,5,42,127,714566000
867,21,Ticks_Linear_5,107,5,42,127,715156020
867,21,Ticks_Linear_5,108,1,48,39,715184828
867,21,Ticks_Linear_5,109,5,42,127,715745584
867,21,Ticks_Linear_5,110,1,48,31,715775148
867,21,Ticks_Linear_5,111,5,42,127,716335476
867,21,Ticks_Linear_5,112,1,48,27,716361208
867,21,Ticks_Linear_5,113,5,42,127,716935448
867,21,Ticks_Linear_5,114,1,48,34,716941108
867,21,Ticks_Linear_5,115,5,42,127,717535720
867,21,Ticks_Linear_5,116,1,48,28,717552916
867,21,Ticks_Linear_5,117,1,48,26,718109608
867,21,Ticks_Linear_5,118,5,42,127,718135636
867,21,Ticks_Linear_5,119,1,48,34,718691228
867,21,Ticks_Linear_5,120,5,42,127,718735760
867,21,Ticks_Linear_5,121,1,48,35,719271880
867,21,Ticks_Linear_5,122,5,42,127,719335960
867,21,Ticks_Linear_5,123,1,48,32,719925060
867,21,Ticks_Linear_5,124,5,42,127,719946216
867,21,Ticks_Linear_5,125,1,48,25,720534700
867,21,Ticks_Linear_5,126,5,42,127,720556600
867,21,Ticks_Linear_5,127,1,48,29,721133532
867,21,Ticks_Linear_5,128,5,42,127,721165956
867,21,Ticks_Linear_5,129,1,48,33,721750684
867,21,Ticks_Linear_5,130,5,42,127,721775968
867,21,Ticks_Linear_5,131,1,48,44,722368036
867,21,Ticks_Linear_5,132,5,42,127,722386272
867,21,Ticks_Linear_5,133,1,48,39,722941868
867,21,Ticks_Linear_5,134,5,42,127,723005892
867,21,Ticks_Linear_5,135,1,48,42,723577740
867,21,Ticks_Linear_5,136,5,42,127,723626308
867,21,Ticks_Linear_5,137,1,48,45,724206396
867,21,Ticks_Linear_5,138,5,42,127,724245780
867,21,Ticks_Linear_5,139,1,48,41,724831028
867,21,Ticks_Linear_5,140,5,42,127,724866648
867,21,Ticks_Linear_5,141,1,48,40,725456768
867,21,Ticks_Linear_5,142,5,42,127,725496052
867,21,Ticks_Linear_5,143,1,48,46,726052272
867,21,Ticks_Linear_5,144,5,42,127,726125856
867,21,Ticks_Linear_5,145,5,42,127,726755644
867,21,Ticks_Linear_5,146,1,48,40,726759208
867,21,Ticks_Linear_5,147,1,48,33,727379332
867,21,Ticks_Linear_5,148,5,42,127,727385664
867,21,Ticks_Linear_5,149,1,48,36,727992176
867,21,Ticks_Linear_5,150,5,42,127,728016116
867,21,Ticks_Linear_5,151,1,48,40,728616372
867,21,Ticks_Linear_5,152,5,42,127,728646068
867,21,Ticks_Linear_5,153,1,48,33,729254840
867,21,Ticks_Linear_5,154,5,42,127,729286108
867,21,Ticks_Linear_5,155,1,48,37,729911072
867,21,Ticks_Linear_5,156,5,42,127,729925948
867,21,Ticks_Linear_5,157,1,48,40,730517044
867,21,Ticks_Linear_5,158,5,42,127,730566056
867,21,Ticks_Linear_5,159,1,48,21,730583992
867,21,Ticks_Linear_5,160,1,48,34,731193632
867,21,Ticks_Linear_5,161,5,42,127,731206096
867,21,Ticks_Linear_5,162,1,48,46,731830892
867,21,Ticks_Linear_5,163,5,42,127,731845988
867,21,Ticks_Linear_5,164,1,48,34,732480168
867,21,Ticks_Linear_5,165,5,42,127,732496236
867,21,Ticks_Linear_5,166,1,48,37,733111216
867,21,Ticks_Linear_5,167,5,42,127,733145632
867,21,Ticks_Linear_5,168,1,48,36,733745444
867,21,Ticks_Linear_5,169,5,42,127,733795660
867,21,Ticks_Linear_5,170,1,48,38,734425024
867,21,Ticks_Linear_5,171,5,42,127,734445808
867,21,Ticks_Linear_5,172,1,48,29,735088004
867,21,Ticks_Linear_5,173,5,42,127,735096056
867,21,Ticks_Linear_5,174,1,48,36,735724520
867,21,Ticks_Linear_5,175,5,42,127,735755592
867,21,Ticks_Linear_5,176,1,48,33,736381504
867,21,Ticks_Linear_5,177,5,42,127,736416000
867,21,Ticks_Linear_5,178,1,48,43,737065384
867,21,Ticks_Linear_5,179,5,42,127,737075456
867,21,Ticks_Linear_5,180,1,48,40,737725116
867,21,Ticks_Linear_5,181,5,42,127,737736012
867,21,Ticks_Linear_5,182,1,48,40,738395028
867,21,Ticks_Linear_5,183,5,42,127,738396596
867,21,Ticks_Linear_5,184,1,48,40,739032692
867,21,Ticks_Linear_5,185,5,42,127,739066364
867,21,Ticks_Linear_5,186,1,48,43,739652164
867,21,Ticks_Linear_5,187,5,42,127,739735784
867,21,Ticks_Linear_5,188,1,48,36,740361576
867,21,Ticks_Linear_5,189,5,42,127,740405504
867,21,Ticks_Linear_5,190,1,48,45,741007160
867,21,Ticks_Linear_5,191,5,42,127,741076544
867,21,Ticks_Linear_5,192,1,48,35,741731016
867,21,Ticks_Linear_5,193,5,42,127,741746112
867,21,Ticks_Linear_5,194,1,48,19,742337888
867,21,Ticks_Linear_5,195,5,42,127,742426092
867,21,Ticks_Linear_5,196,1,48,32,743005584
867,21,Ticks_Linear_5,197,5,42,127,743105880
867,21,Ticks_Linear_5,198,1,48,36,743695968
867,21,Ticks_Linear_5,199,5,42,127,743785724
867,21,Ticks_Linear_5,200,1,48,32,744309796
867,21,Ticks_Linear_5,201,5,42,127,744465688
867,21,Ticks_Linear_5,202,1,48,36,744951104
867,21,Ticks_Linear_5,203,5,42,127,745145864
867,21,Ticks_Linear_5,204,1,48,30,745631832
867,21,Ticks_Linear_5,205,5,42,127,745836028
867,21,Ticks_Linear_5,206,1,48,40,746354428
867,21,Ticks_Linear_5,207,5,42,127,746525968
867,21,Ticks_Linear_5,208,1,48,39,747130108
867,21,Ticks_Linear_5,209,5,42,127,747216492
867,21,Ticks_Linear_5,210,1,48,43,747837724
867,21,Ticks_Linear_5,211,5,42,127,747906508
867,21,Ticks_Linear_5,212,5,42,127,748605740
867,21,Ticks_Linear_5,213,1,48,35,748610356
867,21,Ticks_Linear_5,214,1,48,47,749224244
867,21,Ticks_Linear_5,215,5,42,127,749306280
867,21,Ticks_Linear_5,216,1,48,42,749932220
867,21,Ticks_Linear_5,217,5,42,127,750005508
867,21,Ticks_Linear_5,218,1,48,35,750683428
867,21,Ticks_Linear_5,219,5,42,127,750706152
867,21,Ticks_Linear_5,220,1,48,42,751357536
867,21,Ticks_Linear_5,221,5,42,127,751405304
867,21,Ticks_Linear_5,222,1,48,49,752050616
867,21,Ticks_Linear_5,223,5,42,127,752105852
867,21,Ticks_Linear_5,224,1,48,44,752772160
867,21,Ticks_Linear_5,225,5,42,127,752815340
867,21,Ticks_Linear_5,226,1,48,50,753483360
867,21,Ticks_Linear_5,227,5,42,127,753526240
867,21,Ticks_Linear_5,228,1,48,53,754173868
867,21,Ticks_Linear_5,229,5,42,127,754235652
867,21,Ticks_Linear_5,230,1,48,46,754886136
867,21,Ticks_Linear_5,231,5,42,127,754946336
867,21,Ticks_Linear_5,232,1,48,40,755571128
867,21,Ticks_Linear_5,233,5,42,127,755666484
867,21,Ticks_Linear_5,234,1,48,42,756331084
867,21,Ticks_Linear_5,235,5,42,127,756386096
867,21,Ticks_Linear_5,236,1,48,35,757088652
867,21,Ticks_Linear_5,237,5,42,127,757106288
867,21,Ticks_Linear_5,238,5,42,127,757825964
867,21,Ticks_Linear_5,239,1,48,31,757855676
867,21,Ticks_Linear_5,240,5,42,127,758545784
867,21,Ticks_Linear_5,241,1,48,25,758558564
867,21,Ticks_Linear_5,242,1,48,34,759177764
867,21,Ticks_Linear_5,243,5,42,127,759265648
867,21,Ticks_Linear_5,244,1,48,41,759989320
867,21,Ticks_Linear_5,245,5,42,127,759995724
867,21,Ticks_Linear_5,246,1,48,51,760668020
867,21,Ticks_Linear_5,247,5,42,127,760726024
867,21,Ticks_Linear_5,248,1,48,47,761411876
867,21,Ticks_Linear_5,249,5,42,127,761456104
867,21,Ticks_Linear_5,250,1,48,39,762142928
867,21,Ticks_Linear_5,251,5,42,127,762186328
867,21,Ticks_Linear_5,252,1,48,41,762906260
867,21,Ticks_Linear_5,253,5,42,127,762916260
867,21,Ticks_Linear_5,254,5,42,127,763655632
867,21,Ticks_Linear_5,255,1,48,41,763658676
867,21,Ticks_Linear_5,256,5,42,127,764395868
867,21,Ticks_Linear_5,257,1,48,43,764408276
867,21,Ticks_Linear_5,258,1,48,47,765102600
867,21,Ticks_Linear_5,259,5,42,127,765136196
867,21,Ticks_Linear_5,260,1,48,50,765812236
867,21,Ticks_Linear_5,261,5,42,127,765875488
867,21,Ticks_Linear_5,262,1,48,50,766528616
867,21,Ticks_Linear_5,263,5,42,127,766616200
867,21,Ticks_Linear_5,264,1,48,55,767288124
867,21,Ticks_Linear_5,265,5,42,127,767365376
867,21,Ticks_Linear_5,266,1,48,47,768047032
867,21,Ticks_Linear_5,267,5,42,127,768116268
867,21,Ticks_Linear_5,268,1,48,48,768796960
867,21,Ticks_Linear_5,269,5,42,127,768865596
867,21,Ticks_Linear_5,270,1,48,49,769495032
867,21,Ticks_Linear_5,271,5,42,127,769616248
867,21,Ticks_Linear_5,272,1,48,44,770304124
867,21,Ticks_Linear_5,273,5,42,127,770365788
867,21,Ticks_Linear_5,274,5,42,127,771125604
867,21,Ticks_Linear_5,275,1,48,46,771180096
867,21,Ticks_Linear_5,276,5,42,127,771885412
867,21,Ticks_Linear_5,277,1,48,32,771941996
867,21,Ticks_Linear_5,278,5,42,127,772646120
867,21,Ticks_Linear_5,279,1,48,38,772693116
867,21,Ticks_Linear_5,280,1,48,38,773376748
867,21,Ticks_Linear_5,281,5,42,127,773406144
867,21,Ticks_Linear_5,282,1,48,40,774135112
867,21,Ticks_Linear_5,283,5,42,127,774166024
867,21,Ticks_Linear_5,284,1,48,40,774855756
867,21,Ticks_Linear_5,285,5,42,127,774935944
867,21,Ticks_Linear_5,286,1,48,45,775618180
867,21,Ticks_Linear_5,287,5,42,127,775706236
867,21,Ticks_Linear_5,288,1,48,39,776434156
867,21,Ticks_Linear_5,289,5,42,127,776475932
867,21,Ticks_Linear_5,290,1,48,34,777140036
867,21,Ticks_Linear_5,291,5,42,127,777246056
867,21,Ticks_Linear_5,292,1,48,33,777950096
867,21,Ticks_Linear_5,293,5,42,127,778016064
867,21,Ticks_Linear_5,294,1,48,35,778674936
867,21,Ticks_Linear_5,295,5,42,127,778796528
867,21,Ticks_Linear_5,296,1,48,39,779455716
867,21,Ticks_Linear_5,297,5,42,127,779575728
867,21,Ticks_Linear_5,298,5,42,127,780355932
867,21,Ticks_Linear_5,299,1,48,39,780420080
867,21,Ticks_Linear_5,300,1,48,41,781075780
867,21,Ticks_Linear_5,301,5,42,127,781136176
867,21,Ticks_Linear_5,302,1,48,35,781851684
867,21,Ticks_Linear_5,303,5,42,127,781915460
867,21,Ticks_Linear_5,304,1,48,42,782648188
867,21,Ticks_Linear_5,305,5,42,127,782705968
867,21,Ticks_Linear_5,306,1,48,36,783450904
867,21,Ticks_Linear_5,307,5,42,127,783495432
867,21,Ticks_Linear_5,308,1,48,52,784233024
867,21,Ticks_Linear_5,309,5,42,127,784286020
867,21,Ticks_Linear_5,310,5,42,127,785075712
867,21,Ticks_Linear_5,311,1,48,40,785081380
867,21,Ticks_Linear_5,312,1,38,34,785814212
867,21,Ticks_Linear_5,313,5,42,127,785866068
867,21,Ticks_Linear_5,314,1,48,23,786598056
867,21,Ticks_Linear_5,315,5,42,127,786666016
867,21,Ticks_Linear_5,316,1,48,28,787456964
867,21,Ticks_Linear_5,317,5,42,127,787465912
867,21,Ticks_Linear_5,318,1,48,36,788164632
867,21,Ticks_Linear_5,319,5,42,127,788266372
867,21,Ticks_Linear_5,320,5,42,127,789066192
867,21,Ticks_Linear_5,321,1,48,23,789703648
867,21,Ticks_Linear_5,322,5,42,127,789865916
867,21,Ticks_Linear_5,323,1,48,26,790569976
867,21,Ticks_Linear_5,324,5,42,127,790675748
867,21,Ticks_Linear_5,325,1,48,29,791294944
867,21,Ticks_Linear_5,326,5,42,127,791485932
867,21,Ticks_Linear_5,327,1,48,31,792113916
867,21,Ticks_Linear_5,328,5,42,127,792295912
867,21,Ticks_Linear_5,329,1,48,33,792799180
867,21,Ticks_Linear_5,330,5,42,127,793105920
867,21,Ticks_Linear_5,331,1,48,37,793517052
867,21,Ticks_Linear_5,332,5,42,127,793915908
867,21,Ticks_Linear_5,0,9999,9999,9999,684673112
867,21,Ticks_Linear_5,1,9999,9999,9999,685153360
867,21,Ticks_Linear_5,2,9999,9999,9999,685633608
867,21,Ticks_Linear_5,3,9999,9999,9999,686113860
867,21,Ticks_Linear_5,4,9999,9999,9999,686593116
867,21,Ticks_Linear_5,5,9999,9999,9999,687083624
867,21,Ticks_Linear_5,6,9999,9999,9999,687574132
867,21,Ticks_Linear_5,7,9999,9999,9999,688073852
867,21,Ticks_Linear_5,8,9999,9999,9999,688563316
867,21,Ticks_Linear_5,9,9999,9999,9999,689053804
867,21,Ticks_Linear_5,10,9999,9999,9999,689553496
867,21,Ticks_Linear_5,11,9999,9999,9999,690053196
867,21,Ticks_Linear_5,12,9999,9999,9999,690553948
867,21,Ticks_Linear_5,13,9999,9999,9999,691053648
867,21,Ticks_Linear_5,14,9999,9999,9999,691553352
867,21,Ticks_Linear_5,15,9999,9999,9999,692063308
867,21,Ticks_Linear_5,16,9999,9999,9999,692573268
867,21,Ticks_Linear_5,17,9999,9999,9999,693083228
867,21,Ticks_Linear_5,18,9999,9999,9999,693593180
867,21,Ticks_Linear_5,19,9999,9999,9999,694103144
867,21,Ticks_Linear_5,20,9999,9999,9999,694623288
867,21,Ticks_Linear_5,21,9999,9999,9999,695143508
867,21,Ticks_Linear_5,22,9999,9999,9999,695663720
867,21,Ticks_Linear_5,23,9999,9999,9999,696183868
867,21,Ticks_Linear_5,24,9999,9999,9999,696704080
867,21,Ticks_Linear_5,25,9999,9999,9999,697243768
867,21,Ticks_Linear_5,26,9999,9999,9999,697773124
867,21,Ticks_Linear_5,27,9999,9999,9999,698303608
867,21,Ticks_Linear_5,28,9999,9999,9999,698834008
867,21,Ticks_Linear_5,29,9999,9999,9999,699363436
867,21,Ticks_Linear_5,30,9999,9999,9999,699904100
867,21,Ticks_Linear_5,31,9999,9999,9999,700453996
867,21,Ticks_Linear_5,32,9999,9999,9999,700993620
867,21,Ticks_Linear_5,33,9999,9999,9999,701533308
867,21,Ticks_Linear_5,34,9999,9999,9999,702073968
867,21,Ticks_Linear_5,35,9999,9999,9999,702623840
867,21,Ticks_Linear_5,36,9999,9999,9999,703173712
867,21,Ticks_Linear_5,37,9999,9999,9999,703723588
867,21,Ticks_Linear_5,38,9999,9999,9999,704273496
867,21,Ticks_Linear_5,39,9999,9999,9999,704823360
867,21,Ticks_Linear_5,40,9999,9999,9999,705383500
867,21,Ticks_Linear_5,41,9999,9999,9999,705943636
867,21,Ticks_Linear_5,42,9999,9999,9999,706503740
867,21,Ticks_Linear_5,43,9999,9999,9999,707063876
867,21,Ticks_Linear_5,44,9999,9999,9999,707624036
867,21,Ticks_Linear_5,45,9999,9999,9999,708193380
867,21,Ticks_Linear_5,46,9999,9999,9999,708763776
867,21,Ticks_Linear_5,47,9999,9999,9999,709334092
867,21,Ticks_Linear_5,48,9999,9999,9999,709913716
867,21,Ticks_Linear_5,49,9999,9999,9999,710484036
867,21,Ticks_Linear_5,50,9999,9999,9999,711063660
867,21,Ticks_Linear_5,51,9999,9999,9999,711643240
867,21,Ticks_Linear_5,52,9999,9999,9999,712223840
867,21,Ticks_Linear_5,53,9999,9999,9999,712803452
867,21,Ticks_Linear_5,54,9999,9999,9999,713384024
867,21,Ticks_Linear_5,55,9999,9999,9999,713973816
867,21,Ticks_Linear_5,56,9999,9999,9999,714563700
867,21,Ticks_Linear_5,57,9999,9999,9999,715153496
867,21,Ticks_Linear_5,58,9999,9999,9999,715743288
867,21,Ticks_Linear_5,59,9999,9999,9999,716333176
867,21,Ticks_Linear_5,60,9999,9999,9999,716933224
867,21,Ticks_Linear_5,61,9999,9999,9999,717533272
867,21,Ticks_Linear_5,62,9999,9999,9999,718133340
867,21,Ticks_Linear_5,63,9999,9999,9999,718733388
867,21,Ticks_Linear_5,64,9999,9999,9999,719333436
867,21,Ticks_Linear_5,65,9999,9999,9999,719943768
867,21,Ticks_Linear_5,66,9999,9999,9999,720554076
867,21,Ticks_Linear_5,67,9999,9999,9999,721163360
867,21,Ticks_Linear_5,68,9999,9999,9999,721773668
867,21,Ticks_Linear_5,69,9999,9999,9999,722383976
867,21,Ticks_Linear_5,70,9999,9999,9999,723003444
867,21,Ticks_Linear_5,71,9999,9999,9999,723624012
867,21,Ticks_Linear_5,72,9999,9999,9999,724243556
867,21,Ticks_Linear_5,73,9999,9999,9999,724864124
867,21,Ticks_Linear_5,74,9999,9999,9999,725493828
867,21,Ticks_Linear_5,75,9999,9999,9999,726123632
867,21,Ticks_Linear_5,76,9999,9999,9999,726753344
867,21,Ticks_Linear_5,77,9999,9999,9999,727383140
867,21,Ticks_Linear_5,78,9999,9999,9999,728013892
867,21,Ticks_Linear_5,79,9999,9999,9999,728643696
867,21,Ticks_Linear_5,80,9999,9999,9999,729283660
867,21,Ticks_Linear_5,81,9999,9999,9999,729923648
867,21,Ticks_Linear_5,82,9999,9999,9999,730563684
867,21,Ticks_Linear_5,83,9999,9999,9999,731203648
867,21,Ticks_Linear_5,84,9999,9999,9999,731843688
867,21,Ticks_Linear_5,85,9999,9999,9999,732493936
867,21,Ticks_Linear_5,86,9999,9999,9999,733143112
867,21,Ticks_Linear_5,87,9999,9999,9999,733793360
867,21,Ticks_Linear_5,88,9999,9999,9999,734443584
867,21,Ticks_Linear_5,89,9999,9999,9999,735093832
867,21,Ticks_Linear_5,90,9999,9999,9999,735753292
867,21,Ticks_Linear_5,91,9999,9999,9999,736413776
867,21,Ticks_Linear_5,92,9999,9999,9999,737073236
867,21,Ticks_Linear_5,93,9999,9999,9999,737733712
867,21,Ticks_Linear_5,94,9999,9999,9999,738393180
867,21,Ticks_Linear_5,95,9999,9999,9999,739063916
867,21,Ticks_Linear_5,96,9999,9999,9999,739733560
867,21,Ticks_Linear_5,97,9999,9999,9999,740403280
867,21,Ticks_Linear_5,98,9999,9999,9999,741074024
867,21,Ticks_Linear_5,99,9999,9999,9999,741743740
867,21,Ticks_Linear_5,100,9999,9999,9999,742423644
867,21,Ticks_Linear_5,101,9999,9999,9999,743103580
867,21,Ticks_Linear_5,102,9999,9999,9999,743783500
867,21,Ticks_Linear_5,103,9999,9999,9999,744463464
867,21,Ticks_Linear_5,104,9999,9999,9999,745143416
867,21,Ticks_Linear_5,105,9999,9999,9999,745833580
867,21,Ticks_Linear_5,106,9999,9999,9999,746523744
867,21,Ticks_Linear_5,107,9999,9999,9999,747213896
867,21,Ticks_Linear_5,108,9999,9999,9999,747904060
867,21,Ticks_Linear_5,109,9999,9999,9999,748603516
867,21,Ticks_Linear_5,110,9999,9999,9999,749303908
867,21,Ticks_Linear_5,111,9999,9999,9999,750003284
867,21,Ticks_Linear_5,112,9999,9999,9999,750703704
867,21,Ticks_Linear_5,113,9999,9999,9999,751403080
867,21,Ticks_Linear_5,114,9999,9999,9999,752103476
867,21,Ticks_Linear_5,115,9999,9999,9999,752813116
867,21,Ticks_Linear_5,116,9999,9999,9999,753523796
867,21,Ticks_Linear_5,117,9999,9999,9999,754233428
867,21,Ticks_Linear_5,118,9999,9999,9999,754944084
867,21,Ticks_Linear_5,119,9999,9999,9999,755663980
867,21,Ticks_Linear_5,120,9999,9999,9999,756383800
867,21,Ticks_Linear_5,121,9999,9999,9999,757103692
867,21,Ticks_Linear_5,122,9999,9999,9999,757823592
867,21,Ticks_Linear_5,123,9999,9999,9999,758543484
867,21,Ticks_Linear_5,124,9999,9999,9999,759263348
867,21,Ticks_Linear_5,125,9999,9999,9999,759993424
867,21,Ticks_Linear_5,126,9999,9999,9999,760723576
867,21,Ticks_Linear_5,127,9999,9999,9999,761453656
867,21,Ticks_Linear_5,128,9999,9999,9999,762183736
867,21,Ticks_Linear_5,129,9999,9999,9999,762913888
867,21,Ticks_Linear_5,130,9999,9999,9999,763653184
867,21,Ticks_Linear_5,131,9999,9999,9999,764393568
867,21,Ticks_Linear_5,132,9999,9999,9999,765133900
867,21,Ticks_Linear_5,133,9999,9999,9999,765873264
867,21,Ticks_Linear_5,134,9999,9999,9999,766613604
867,21,Ticks_Linear_5,135,9999,9999,9999,767363152
867,21,Ticks_Linear_5,136,9999,9999,9999,768113748
867,21,Ticks_Linear_5,137,9999,9999,9999,768863296
867,21,Ticks_Linear_5,138,9999,9999,9999,769613948
867,21,Ticks_Linear_5,139,9999,9999,9999,770363488
867,21,Ticks_Linear_5,140,9999,9999,9999,771123304
867,21,Ticks_Linear_5,141,9999,9999,9999,771883116
867,21,Ticks_Linear_5,142,9999,9999,9999,772643896
867,21,Ticks_Linear_5,143,9999,9999,9999,773403772
867,21,Ticks_Linear_5,144,9999,9999,9999,774163576
867,21,Ticks_Linear_5,145,9999,9999,9999,774933572
867,21,Ticks_Linear_5,146,9999,9999,9999,775703640
867,21,Ticks_Linear_5,147,9999,9999,9999,776473708
867,21,Ticks_Linear_5,148,9999,9999,9999,777243760
867,21,Ticks_Linear_5,149,9999,9999,9999,778013768
867,21,Ticks_Linear_5,150,9999,9999,9999,778794076
867,21,Ticks_Linear_5,151,9999,9999,9999,779573356
867,21,Ticks_Linear_5,152,9999,9999,9999,780353632
867,21,Ticks_Linear_5,153,9999,9999,9999,781133876
867,21,Ticks_Linear_5,154,9999,9999,9999,781913160
867,21,Ticks_Linear_5,155,9999,9999,9999,782703672
867,21,Ticks_Linear_5,156,9999,9999,9999,783493208
867,21,Ticks_Linear_5,157,9999,9999,9999,784283720
867,21,Ticks_Linear_5,158,9999,9999,9999,785073264
867,21,Ticks_Linear_5,159,9999,9999,9999,785863772
867,21,Ticks_Linear_5,160,9999,9999,9999,786663496
867,21,Ticks_Linear_5,161,9999,9999,9999,787463244
867,21,Ticks_Linear_5,162,9999,9999,9999,788264000
867,21,Ticks_Linear_5,163,9999,9999,9999,789063744
867,21,Ticks_Linear_5,164,9999,9999,9999,789863544
867,21,Ticks_Linear_5,165,9999,9999,9999,790673524
867,21,Ticks_Linear_5,166,9999,9999,9999,791483484
867,21,Ticks_Linear_5,167,9999,9999,9999,792293468
867,21,Ticks_Linear_5,168,9999,9999,9999,793103472
867,21,Ticks_Linear_5,169,9999,9999,9999,793913460
868,20,Ticks_Linear_8,0,5,42,127,803029576
868,20,Ticks_Linear_8,1,5,42,127,803848672
868,20,Ticks_Linear_8,2,5,42,127,804668712
868,20,Ticks_Linear_8,3,5,42,127,805488900
868,20,Ticks_Linear_8,4,5,42,127,806309388
868,20,Ticks_Linear_8,5,5,42,127,807119320
868,20,Ticks_Linear_8,6,5,42,127,807929100
868,20,Ticks_Linear_8,7,5,42,127,808739204
868,20,Ticks_Linear_8,8,5,42,127,809549060
868,20,Ticks_Linear_8,9,5,42,127,810359064
868,20,Ticks_Linear_8,10,5,42,127,811158808
868,20,Ticks_Linear_8,11,5,42,127,811958632
868,20,Ticks_Linear_8,12,5,42,127,812759572
868,20,Ticks_Linear_8,13,5,42,127,813559092
868,20,Ticks_Linear_8,14,1,48,18,813594060
868,20,Ticks_Linear_8,15,1,48,25,814344488
868,20,Ticks_Linear_8,16,5,42,127,814358840
868,20,Ticks_Linear_8,17,1,48,30,815128340
868,20,Ticks_Linear_8,18,5,42,127,815149424
868,20,Ticks_Linear_8,19,1,48,25,815893312
868,20,Ticks_Linear_8,20,5,42,127,815949372
868,20,Ticks_Linear_8,21,5,42,127,816738620
868,20,Ticks_Linear_8,22,1,48,30,816753564
868,20,Ticks_Linear_8,23,5,42,127,817529280
868,20,Ticks_Linear_8,24,1,48,31,817539148
868,20,Ticks_Linear_8,25,5,42,127,818318600
868,20,Ticks_Linear_8,26,1,48,34,818347188
868,20,Ticks_Linear_8,27,1,48,30,819052216
868,20,Ticks_Linear_8,28,5,42,127,819098920
868,20,Ticks_Linear_8,29,1,48,26,819876052
868,20,Ticks_Linear_8,30,5,42,127,819879320
868,20,Ticks_Linear_8,31,5,42,127,820658608
868,20,Ticks_Linear_8,32,1,48,26,820685160
868,20,Ticks_Linear_8,33,5,42,127,821438712
868,20,Ticks_Linear_8,34,1,48,32,821443172
868,20,Ticks_Linear_8,35,5,42,127,822219260
868,20,Ticks_Linear_8,36,1,48,21,822231296
868,20,Ticks_Linear_8,37,1,48,39,822932212
868,20,Ticks_Linear_8,38,5,42,127,822989396
868,20,Ticks_Linear_8,39,1,48,40,823740628
868,20,Ticks_Linear_8,40,5,42,127,823759388
868,20,Ticks_Linear_8,41,1,48,33,824500808
868,20,Ticks_Linear_8,42,5,42,127,824529232
868,20,Ticks_Linear_8,43,5,42,127,825299456
868,20,Ticks_Linear_8,44,1,48,36,825356680
868,20,Ticks_Linear_8,45,5,42,127,826069524
868,20,Ticks_Linear_8,46,1,48,30,826110340
868,20,Ticks_Linear_8,47,5,42,127,826829112
868,20,Ticks_Linear_8,48,1,48,29,826846468
868,20,Ticks_Linear_8,49,5,42,127,827588992
868,20,Ticks_Linear_8,50,1,48,31,827633972
868,20,Ticks_Linear_8,51,1,48,35,828334520
868,20,Ticks_Linear_8,52,5,42,127,828348720
868,20,Ticks_Linear_8,53,1,48,30,829070892
868,20,Ticks_Linear_8,54,5,42,127,829108528
868,20,Ticks_Linear_8,55,1,48,25,829782324
868,20,Ticks_Linear_8,56,5,42,127,829869460
868,20,Ticks_Linear_8,57,5,42,127,830629424
868,20,Ticks_Linear_8,58,1,48,27,830636820
868,20,Ticks_Linear_8,59,5,42,127,831378748
868,20,Ticks_Linear_8,60,1,48,36,831405452
868,20,Ticks_Linear_8,61,5,42,127,832129344
868,20,Ticks_Linear_8,62,1,48,30,832167144
868,20,Ticks_Linear_8,63,5,42,127,832879340
868,20,Ticks_Linear_8,64,1,48,25,832970908
868,20,Ticks_Linear_8,65,5,42,127,833628520
868,20,Ticks_Linear_8,66,1,48,32,833734304
868,20,Ticks_Linear_8,67,5,42,127,834368856
868,20,Ticks_Linear_8,68,1,48,34,834443116
868,20,Ticks_Linear_8,69,5,42,127,835109196
868,20,Ticks_Linear_8,70,1,48,38,835210492
868,20,Ticks_Linear_8,71,5,42,127,835848636
868,20,Ticks_Linear_8,72,1,48,36,835920204
868,20,Ticks_Linear_8,73,5,42,127,836588796
868,20,Ticks_Linear_8,74,1,48,37,836596028
868,20,Ticks_Linear_8,75,1,48,33,837300556
868,20,Ticks_Linear_8,76,5,42,127,837329356
868,20,Ticks_Linear_8,77,1,48,27,838000980
868,20,Ticks_Linear_8,78,5,42,127,838059284
868,20,Ticks_Linear_8,79,5,42,127,838788472
868,20,Ticks_Linear_8,80,1,48,25,838791216
868,20,Ticks_Linear_8,81,1,48,29,839440316
868,20,Ticks_Linear_8,82,5,42,127,839518540
868,20,Ticks_Linear_8,83,1,48,33,840242508
868,20,Ticks_Linear_8,84,5,42,127,840248696
868,20,Ticks_Linear_8,85,5,42,127,840978928
868,20,Ticks_Linear_8,86,1,48,19,841075952
868,20,Ticks_Linear_8,87,5,42,127,841698648
868,20,Ticks_Linear_8,88,1,48,13,841906148
868,20,Ticks_Linear_8,89,5,42,127,842418540
868,20,Ticks_Linear_8,90,1,48,20,842935360
868,20,Ticks_Linear_8,91,5,42,127,843138360
868,20,Ticks_Linear_8,92,1,48,24,843582460
868,20,Ticks_Linear_8,93,5,42,127,843859376
868,20,Ticks_Linear_8,94,1,48,24,844299068
868,20,Ticks_Linear_8,95,5,42,127,844579120
868,20,Ticks_Linear_8,96,1,48,30,844938660
868,20,Ticks_Linear_8,97,5,42,127,845289028
868,20,Ticks_Linear_8,98,1,48,27,845557576
868,20,Ticks_Linear_8,99,5,42,127,845998516
868,20,Ticks_Linear_8,100,5,42,127,846709216
868,20,Ticks_Linear_8,101,1,48,37,847281976
868,20,Ticks_Linear_8,102,5,42,127,847418924
868,20,Ticks_Linear_8,103,1,48,36,847858588
868,20,Ticks_Linear_8,104,5,42,127,848129380
868,20,Ticks_Linear_8,105,1,48,32,848525080
868,20,Ticks_Linear_8,106,5,42,127,848828956
868,20,Ticks_Linear_8,107,1,48,22,849282944
868,20,Ticks_Linear_8,108,5,42,127,849529156
868,20,Ticks_Linear_8,109,1,48,28,849951688
868,20,Ticks_Linear_8,110,5,42,127,850228604
868,20,Ticks_Linear_8,111,1,48,20,850705656
868,20,Ticks_Linear_8,112,5,42,127,850929076
868,20,Ticks_Linear_8,113,1,48,28,851443276
868,20,Ticks_Linear_8,114,5,42,127,851629500
868,20,Ticks_Linear_8,115,1,48,32,852147000
868,20,Ticks_Linear_8,116,5,42,127,852328948
868,20,Ticks_Linear_8,117,1,48,36,852939456
868,20,Ticks_Linear_8,118,5,42,127,853019052
868,20,Ticks_Linear_8,119,5,42,127,853709120
868,20,Ticks_Linear_8,120,1,48,29,853752304
868,20,Ticks_Linear_8,121,1,48,28,854320904
868,20,Ticks_Linear_8,122,5,42,127,854399352
868,20,Ticks_Linear_8,123,1,48,32,855018612
868,20,Ticks_Linear_8,124,5,42,127,855088396
868,20,Ticks_Linear_8,125,5,42,127,855768432
868,20,Ticks_Linear_8,126,1,48,40,855793936
868,20,Ticks_Linear_8,127,5,42,127,856449380
868,20,Ticks_Linear_8,128,1,48,43,856483276
868,20,Ticks_Linear_8,129,5,42,127,857129432
868,20,Ticks_Linear_8,130,1,48,32,857179512
868,20,Ticks_Linear_8,131,5,42,127,857809164
868,20,Ticks_Linear_8,132,1,48,37,857825532
868,20,Ticks_Linear_8,133,5,42,127,858489216
868,20,Ticks_Linear_8,134,1,48,35,858508888
868,20,Ticks_Linear_8,135,1,48,40,859158936
868,20,Ticks_Linear_8,136,5,42,127,859160200
868,20,Ticks_Linear_8,137,5,42,127,859828704
868,20,Ticks_Linear_8,138,1,48,36,859904708
868,20,Ticks_Linear_8,139,5,42,127,860499320
868,20,Ticks_Linear_8,140,1,48,21,860624352
868,20,Ticks_Linear_8,141,5,42,127,861169016
868,20,Ticks_Linear_8,142,1,48,32,861173108
868,20,Ticks_Linear_8,143,5,42,127,861838812
868,20,Ticks_Linear_8,144,1,48,34,861859456
868,20,Ticks_Linear_8,145,5,42,127,862499168
868,20,Ticks_Linear_8,146,1,48,28,862626984
868,20,Ticks_Linear_8,147,5,42,127,863158748
868,20,Ticks_Linear_8,148,1,48,27,863276096
868,20,Ticks_Linear_8,149,5,42,127,863819108
868,20,Ticks_Linear_8,150,1,48,26,863989676
868,20,Ticks_Linear_8,151,5,42,127,864478544
868,20,Ticks_Linear_8,152,1,48,31,864636996
868,20,Ticks_Linear_8,153,5,42,127,865139052
868,20,Ticks_Linear_8,154,1,48,34,865281932
868,20,Ticks_Linear_8,155,5,42,127,865789372
868,20,Ticks_Linear_8,156,1,48,29,865965776
868,20,Ticks_Linear_8,157,5,42,127,866438472
868,20,Ticks_Linear_8,158,1,48,30,866572668
868,20,Ticks_Linear_8,159,5,42,127,867088796
868,20,Ticks_Linear_8,160,5,42,127,867739040
868,20,Ticks_Linear_8,161,1,48,30,867969020
868,20,Ticks_Linear_8,162,5,42,127,868389216
868,20,Ticks_Linear_8,163,1,48,25,868622712
868,20,Ticks_Linear_8,164,5,42,127,869029180
868,20,Ticks_Linear_8,165,1,48,31,869223808
868,20,Ticks_Linear_8,166,5,42,127,869669244
868,20,Ticks_Linear_8,167,1,48,28,869881224
868,20,Ticks_Linear_8,168,5,42,127,870309208
868,20,Ticks_Linear_8,169,1,48,28,870497924
868,20,Ticks_Linear_8,170,5,42,127,870949120
868,20,Ticks_Linear_8,171,1,48,25,871105524
868,20,Ticks_Linear_8,172,5,42,127,871589232
868,20,Ticks_Linear_8,173,1,48,19,871824296
868,20,Ticks_Linear_8,174,5,42,127,872218964
868,20,Ticks_Linear_8,175,1,48,27,872388112
868,20,Ticks_Linear_8,176,5,42,127,872848740
868,20,Ticks_Linear_8,177,1,48,27,873051980
868,20,Ticks_Linear_8,178,5,42,127,873478620
868,20,Ticks_Linear_8,179,1,48,27,873663860
868,20,Ticks_Linear_8,180,5,42,127,874109224
868,20,Ticks_Linear_8,181,1,48,24,874258480
868,20,Ticks_Linear_8,182,5,42,127,874738928
868,20,Ticks_Linear_8,183,1,48,15,874932208
868,20,Ticks_Linear_8,184,5,42,127,875358772
868,20,Ticks_Linear_8,185,1,48,25,875546428
868,20,Ticks_Linear_8,186,5,42,127,875979188
868,20,Ticks_Linear_8,187,1,48,26,876173372
868,20,Ticks_Linear_8,188,5,42,127,876598732
868,20,Ticks_Linear_8,189,1,48,18,876808720
868,20,Ticks_Linear_8,190,5,42,127,877219076
868,20,Ticks_Linear_8,191,1,48,28,877442836
868,20,Ticks_Linear_8,192,5,42,127,877838848
868,20,Ticks_Linear_8,193,5,42,127,878449028
868,20,Ticks_Linear_8,194,1,48,14,878724384
868,20,Ticks_Linear_8,195,5,42,127,879059408
868,20,Ticks_Linear_8,196,1,48,24,879263696
868,20,Ticks_Linear_8,197,5,42,127,879668696
868,20,Ticks_Linear_8,198,5,42,127,880278804
868,20,Ticks_Linear_8,199,1,48,21,880506524
868,20,Ticks_Linear_8,200,5,42,127,880889184
868,20,Ticks_Linear_8,201,1,48,24,881046284
868,20,Ticks_Linear_8,202,5,42,127,881489176
868,20,Ticks_Linear_8,203,1,48,25,881700060
868,20,Ticks_Linear_8,204,5,42,127,882089376
868,20,Ticks_Linear_8,205,1,48,21,882288732
868,20,Ticks_Linear_8,206,5,42,127,882689596
868,20,Ticks_Linear_8,207,5,42,127,883288548
868,20,Ticks_Linear_8,208,1,48,24,883509616
868,20,Ticks_Linear_8,209,5,42,127,883888520
868,20,Ticks_Linear_8,210,1,48,28,884036264
868,20,Ticks_Linear_8,211,5,42,127,884479532
868,20,Ticks_Linear_8,212,1,48,27,884709336
868,20,Ticks_Linear_8,213,5,42,127,885069248
868,20,Ticks_Linear_8,214,1,48,32,885321020
868,20,Ticks_Linear_8,215,5,42,127,885658888
868,20,Ticks_Linear_8,216,1,48,27,886001344
868,20,Ticks_Linear_8,217,5,42,127,886248828
868,20,Ticks_Linear_8,218,1,48,26,886653908
868,20,Ticks_Linear_8,219,5,42,127,886838792
868,20,Ticks_Linear_8,220,1,48,24,887373956
868,20,Ticks_Linear_8,221,5,42,127,887419308
868,20,Ticks_Linear_8,222,5,42,127,887998772
868,20,Ticks_Linear_8,223,1,48,21,888079800
868,20,Ticks_Linear_8,224,5,42,127,888578548
868,20,Ticks_Linear_8,225,1,48,27,888722228
868,20,Ticks_Linear_8,226,5,42,127,889158976
868,20,Ticks_Linear_8,227,1,48,24,889328276
868,20,Ticks_Linear_8,228,5,42,127,889738580
868,20,Ticks_Linear_8,229,1,48,32,889984952
868,20,Ticks_Linear_8,230,5,42,127,890308900
868,20,Ticks_Linear_8,231,1,48,26,890647272
868,20,Ticks_Linear_8,232,5,42,127,890879540
868,20,Ticks_Linear_8,233,1,48,37,891283032
868,20,Ticks_Linear_8,234,5,42,127,891448816
868,20,Ticks_Linear_8,235,1,48,35,891920704
868,20,Ticks_Linear_8,236,5,42,127,892018984
868,20,Ticks_Linear_8,237,5,42,127,892589472
868,20,Ticks_Linear_8,238,1,48,32,892624860
868,20,Ticks_Linear_8,239,5,42,127,893158672
868,20,Ticks_Linear_8,240,1,48,38,893289348
868,20,Ticks_Linear_8,241,5,42,127,893718828
868,20,Ticks_Linear_8,242,1,48,39,893930432
868,20,Ticks_Linear_8,243,5,42,127,894278888
868,20,Ticks_Linear_8,244,1,48,31,894563456
868,20,Ticks_Linear_8,245,5,42,127,894839020
868,20,Ticks_Linear_8,246,1,48,34,895245972
868,20,Ticks_Linear_8,247,5,42,127,895399380
868,20,Ticks_Linear_8,248,1,48,37,895910064
868,20,Ticks_Linear_8,249,5,42,127,895949344
868,20,Ticks_Linear_8,250,5,42,127,896499152
868,20,Ticks_Linear_8,251,1,48,32,896584892
868,20,Ticks_Linear_8,252,5,42,127,897048900
868,20,Ticks_Linear_8,253,1,48,39,897163452
868,20,Ticks_Linear_8,254,5,42,127,897598776
868,20,Ticks_Linear_8,255,1,48,39,897703292
868,20,Ticks_Linear_8,256,5,42,127,898148728
868,20,Ticks_Linear_8,257,1,48,33,898258936
868,20,Ticks_Linear_8,258,5,42,127,898689540
868,20,Ticks_Linear_8,259,1,48,31,898724404
868,20,Ticks_Linear_8,260,5,42,127,899229004
868,20,Ticks_Linear_8,261,1,48,27,899268372
868,20,Ticks_Linear_8,262,5,42,127,899768692
868,20,Ticks_Linear_8,263,1,48,37,899778708
868,20,Ticks_Linear_8,264,5,42,127,900309356
868,20,Ticks_Linear_8,265,1,48,35,900324152
868,20,Ticks_Linear_8,266,5,42,127,900849196
868,20,Ticks_Linear_8,267,1,48,29,900921160
868,20,Ticks_Linear_8,268,5,42,127,901378356
868,20,Ticks_Linear_8,269,1,48,32,901407388
868,20,Ticks_Linear_8,270,1,48,35,901906640
868,20,Ticks_Linear_8,271,5,42,127,901908828
868,20,Ticks_Linear_8,272,1,48,38,902394472
868,20,Ticks_Linear_8,273,5,42,127,902439304
868,20,Ticks_Linear_8,274,5,42,127,902968592
868,20,Ticks_Linear_8,275,1,48,38,902997700
868,20,Ticks_Linear_8,276,5,42,127,903499148
868,20,Ticks_Linear_8,277,1,48,39,903536872
868,20,Ticks_Linear_8,278,1,48,45,904012200
868,20,Ticks_Linear_8,279,5,42,127,904019504
868,20,Ticks_Linear_8,280,5,42,127,904538388
868,20,Ticks_Linear_8,281,1,48,43,904554080
868,20,Ticks_Linear_8,282,1,48,49,905056484
868,20,Ticks_Linear_8,283,5,42,127,905058676
868,20,Ticks_Linear_8,284,1,48,46,905553384
868,20,Ticks_Linear_8,285,5,42,127,905578820
868,20,Ticks_Linear_8,286,1,48,47,906060356
868,20,Ticks_Linear_8,287,5,42,127,906099040
868,20,Ticks_Linear_8,288,1,48,43,906553536
868,20,Ticks_Linear_8,289,5,42,127,906609000
868,20,Ticks_Linear_8,290,1,48,35,907091136
868,20,Ticks_Linear_8,291,5,42,127,907119032
868,20,Ticks_Linear_8,292,5,42,127,907628924
868,20,Ticks_Linear_8,293,1,48,24,907635256
868,20,Ticks_Linear_8,294,5,42,127,908138812
868,20,Ticks_Linear_8,295,1,48,39,908152484
868,20,Ticks_Linear_8,296,5,42,127,908648772
868,20,Ticks_Linear_8,297,1,48,22,908679524
868,20,Ticks_Linear_8,298,5,42,127,909148472
868,20,Ticks_Linear_8,299,1,48,43,909222208
868,20,Ticks_Linear_8,300,5,42,127,909649364
868,20,Ticks_Linear_8,301,1,48,48,909695164
868,20,Ticks_Linear_8,302,5,42,127,910148840
868,20,Ticks_Linear_8,303,1,48,46,910198540
868,20,Ticks_Linear_8,304,5,42,127,910648692
868,20,Ticks_Linear_8,305,1,48,37,910721900
868,20,Ticks_Linear_8,306,5,42,127,911149436
868,20,Ticks_Linear_8,307,1,48,43,911213212
868,20,Ticks_Linear_8,308,5,42,127,911649436
868,20,Ticks_Linear_8,309,1,48,38,911722724
868,20,Ticks_Linear_8,310,5,42,127,912138652
868,20,Ticks_Linear_8,311,1,48,29,912223096
868,20,Ticks_Linear_8,312,5,42,127,912629264
868,20,Ticks_Linear_8,313,1,48,44,912728940
868,20,Ticks_Linear_8,314,5,42,127,913118632
868,20,Ticks_Linear_8,315,1,48,37,913196520
868,20,Ticks_Linear_8,316,5,42,127,913609416
868,20,Ticks_Linear_8,0,9999,9999,9999,803027056
868,20,Ticks_Linear_8,1,9999,9999,9999,803846224
868,20,Ticks_Linear_8,2,9999,9999,9999,804666488
868,20,Ticks_Linear_8,3,9999,9999,9999,805486676
868,20,Ticks_Linear_8,4,9999,9999,9999,806306940
868,20,Ticks_Linear_8,5,9999,9999,9999,807116872
868,20,Ticks_Linear_8,6,9999,9999,9999,807926876
868,20,Ticks_Linear_8,7,9999,9999,9999,808736828
868,20,Ticks_Linear_8,8,9999,9999,9999,809546836
868,20,Ticks_Linear_8,9,9999,9999,9999,810356840
868,20,Ticks_Linear_8,10,9999,9999,9999,811156584
868,20,Ticks_Linear_8,11,9999,9999,9999,811956332
868,20,Ticks_Linear_8,12,9999,9999,9999,812757048
868,20,Ticks_Linear_8,13,9999,9999,9999,813556796
868,20,Ticks_Linear_8,14,9999,9999,9999,814356540
868,20,Ticks_Linear_8,15,9999,9999,9999,815147124
868,20,Ticks_Linear_8,16,9999,9999,9999,815946852
868,20,Ticks_Linear_8,17,9999,9999,9999,816736320
868,20,Ticks_Linear_8,18,9999,9999,9999,817526908
868,20,Ticks_Linear_8,19,9999,9999,9999,818316372
868,20,Ticks_Linear_8,20,9999,9999,9999,819096696
868,20,Ticks_Linear_8,21,9999,9999,9999,819876948
868,20,Ticks_Linear_8,22,9999,9999,9999,820656236
868,20,Ticks_Linear_8,23,9999,9999,9999,821436488
868,20,Ticks_Linear_8,24,9999,9999,9999,822216812
868,20,Ticks_Linear_8,25,9999,9999,9999,822986876
868,20,Ticks_Linear_8,26,9999,9999,9999,823756868
868,20,Ticks_Linear_8,27,9999,9999,9999,824526936
868,20,Ticks_Linear_8,28,9999,9999,9999,825297008
868,20,Ticks_Linear_8,29,9999,9999,9999,826067000
868,20,Ticks_Linear_8,30,9999,9999,9999,826826812
868,20,Ticks_Linear_8,31,9999,9999,9999,827586620
868,20,Ticks_Linear_8,32,9999,9999,9999,828346496
868,20,Ticks_Linear_8,33,9999,9999,9999,829106304
868,20,Ticks_Linear_8,34,9999,9999,9999,829867088
868,20,Ticks_Linear_8,35,9999,9999,9999,830626900
868,20,Ticks_Linear_8,36,9999,9999,9999,831376452
868,20,Ticks_Linear_8,37,9999,9999,9999,832127044
868,20,Ticks_Linear_8,38,9999,9999,9999,832876668
868,20,Ticks_Linear_8,39,9999,9999,9999,833626220
868,20,Ticks_Linear_8,40,9999,9999,9999,834366560
868,20,Ticks_Linear_8,41,9999,9999,9999,835106896
868,20,Ticks_Linear_8,42,9999,9999,9999,835846260
868,20,Ticks_Linear_8,43,9999,9999,9999,836586572
868,20,Ticks_Linear_8,44,9999,9999,9999,837326904
868,20,Ticks_Linear_8,45,9999,9999,9999,838057060
868,20,Ticks_Linear_8,46,9999,9999,9999,838786172
868,20,Ticks_Linear_8,47,9999,9999,9999,839516244
868,20,Ticks_Linear_8,48,9999,9999,9999,840246396
868,20,Ticks_Linear_8,49,9999,9999,9999,840976480
868,20,Ticks_Linear_8,50,9999,9999,9999,841696348
868,20,Ticks_Linear_8,51,9999,9999,9999,842416244
868,20,Ticks_Linear_8,52,9999,9999,9999,843136060
868,20,Ticks_Linear_8,53,9999,9999,9999,843857000
868,20,Ticks_Linear_8,54,9999,9999,9999,844576896
868,20,Ticks_Linear_8,55,9999,9999,9999,845286508
868,20,Ticks_Linear_8,56,9999,9999,9999,845996140
868,20,Ticks_Linear_8,57,9999,9999,9999,846706768
868,20,Ticks_Linear_8,58,9999,9999,9999,847416404
868,20,Ticks_Linear_8,59,9999,9999,9999,848127084
868,20,Ticks_Linear_8,60,9999,9999,9999,848826436
868,20,Ticks_Linear_8,61,9999,9999,9999,849526856
868,20,Ticks_Linear_8,62,9999,9999,9999,850226304
868,20,Ticks_Linear_8,63,9999,9999,9999,850926704
868,20,Ticks_Linear_8,64,9999,9999,9999,851627124
868,20,Ticks_Linear_8,65,9999,9999,9999,852326500
868,20,Ticks_Linear_8,66,9999,9999,9999,853016680
868,20,Ticks_Linear_8,67,9999,9999,9999,853706824
868,20,Ticks_Linear_8,68,9999,9999,9999,854397052
868,20,Ticks_Linear_8,69,9999,9999,9999,855086172
868,20,Ticks_Linear_8,70,9999,9999,9999,855766132
868,20,Ticks_Linear_8,71,9999,9999,9999,856447080
868,20,Ticks_Linear_8,72,9999,9999,9999,857126984
868,20,Ticks_Linear_8,73,9999,9999,9999,857806940
868,20,Ticks_Linear_8,74,9999,9999,9999,858486840
868,20,Ticks_Linear_8,75,9999,9999,9999,859156564
868,20,Ticks_Linear_8,76,9999,9999,9999,859826256
868,20,Ticks_Linear_8,77,9999,9999,9999,860497024
868,20,Ticks_Linear_8,78,9999,9999,9999,861166716
868,20,Ticks_Linear_8,79,9999,9999,9999,861836364
868,20,Ticks_Linear_8,80,9999,9999,9999,862496868
868,20,Ticks_Linear_8,81,9999,9999,9999,863156304
868,20,Ticks_Linear_8,82,9999,9999,9999,863816812
868,20,Ticks_Linear_8,83,9999,9999,9999,864476244
868,20,Ticks_Linear_8,84,9999,9999,9999,865136752
868,20,Ticks_Linear_8,85,9999,9999,9999,865786976
868,20,Ticks_Linear_8,86,9999,9999,9999,866436176
868,20,Ticks_Linear_8,87,9999,9999,9999,867086424
868,20,Ticks_Linear_8,88,9999,9999,9999,867736668
868,20,Ticks_Linear_8,89,9999,9999,9999,868386916
868,20,Ticks_Linear_8,90,9999,9999,9999,869026880
868,20,Ticks_Linear_8,91,9999,9999,9999,869666944
868,20,Ticks_Linear_8,92,9999,9999,9999,870306908
868,20,Ticks_Linear_8,93,9999,9999,9999,870946896
868,20,Ticks_Linear_8,94,9999,9999,9999,871586932
868,20,Ticks_Linear_8,95,9999,9999,9999,872216664
868,20,Ticks_Linear_8,96,9999,9999,9999,872846444
868,20,Ticks_Linear_8,97,9999,9999,9999,873476172
868,20,Ticks_Linear_8,98,9999,9999,9999,874106996
868,20,Ticks_Linear_8,99,9999,9999,9999,874736704
868,20,Ticks_Linear_8,100,9999,9999,9999,875356248
868,20,Ticks_Linear_8,101,9999,9999,9999,875976816
868,20,Ticks_Linear_8,102,9999,9999,9999,876596288
868,20,Ticks_Linear_8,103,9999,9999,9999,877216852
868,20,Ticks_Linear_8,104,9999,9999,9999,877836400
868,20,Ticks_Linear_8,105,9999,9999,9999,878446652
868,20,Ticks_Linear_8,106,9999,9999,9999,879056960
868,20,Ticks_Linear_8,107,9999,9999,9999,879666248
868,20,Ticks_Linear_8,108,9999,9999,9999,880276580
868,20,Ticks_Linear_8,109,9999,9999,9999,880886884
868,20,Ticks_Linear_8,110,9999,9999,9999,881486952
868,20,Ticks_Linear_8,111,9999,9999,9999,882087000
868,20,Ticks_Linear_8,112,9999,9999,9999,882687076
868,20,Ticks_Linear_8,113,9999,9999,9999,883286100
868,20,Ticks_Linear_8,114,9999,9999,9999,883886148
868,20,Ticks_Linear_8,115,9999,9999,9999,884477008
868,20,Ticks_Linear_8,116,9999,9999,9999,885066876
868,20,Ticks_Linear_8,117,9999,9999,9999,885656664
868,20,Ticks_Linear_8,118,9999,9999,9999,886246528
868,20,Ticks_Linear_8,119,9999,9999,9999,886836344
868,20,Ticks_Linear_8,120,9999,9999,9999,887416936
868,20,Ticks_Linear_8,121,9999,9999,9999,887996472
868,20,Ticks_Linear_8,122,9999,9999,9999,888576100
868,20,Ticks_Linear_8,123,9999,9999,9999,889156680
868,20,Ticks_Linear_8,124,9999,9999,9999,889736280
868,20,Ticks_Linear_8,125,9999,9999,9999,890306676
868,20,Ticks_Linear_8,126,9999,9999,9999,890877020
868,20,Ticks_Linear_8,127,9999,9999,9999,891446368
868,20,Ticks_Linear_8,128,9999,9999,9999,892016716
868,20,Ticks_Linear_8,129,9999,9999,9999,892587100
868,20,Ticks_Linear_8,130,9999,9999,9999,893156448
868,20,Ticks_Linear_8,131,9999,9999,9999,893716604
868,20,Ticks_Linear_8,132,9999,9999,9999,894276664
868,20,Ticks_Linear_8,133,9999,9999,9999,894836796
868,20,Ticks_Linear_8,134,9999,9999,9999,895396932
868,20,Ticks_Linear_8,135,9999,9999,9999,895946820
868,20,Ticks_Linear_8,136,9999,9999,9999,896496704
868,20,Ticks_Linear_8,137,9999,9999,9999,897046604
868,20,Ticks_Linear_8,138,9999,9999,9999,897596480
868,20,Ticks_Linear_8,139,9999,9999,9999,898146428
868,20,Ticks_Linear_8,140,9999,9999,9999,898687092
868,20,Ticks_Linear_8,141,9999,9999,9999,899226704
868,20,Ticks_Linear_8,142,9999,9999,9999,899766396
868,20,Ticks_Linear_8,143,9999,9999,9999,900307056
868,20,Ticks_Linear_8,144,9999,9999,9999,900846672
868,20,Ticks_Linear_8,145,9999,9999,9999,901376056
868,20,Ticks_Linear_8,146,9999,9999,9999,901906496
868,20,Ticks_Linear_8,147,9999,9999,9999,902436932
868,20,Ticks_Linear_8,148,9999,9999,9999,902966368
868,20,Ticks_Linear_8,149,9999,9999,9999,903496772
868,20,Ticks_Linear_8,150,9999,9999,9999,904016984
868,20,Ticks_Linear_8,151,9999,9999,9999,904536164
868,20,Ticks_Linear_8,152,9999,9999,9999,905056340
868,20,Ticks_Linear_8,153,9999,9999,9999,905576520
868,20,Ticks_Linear_8,154,9999,9999,9999,906096740
868,20,Ticks_Linear_8,155,9999,9999,9999,906606700
868,20,Ticks_Linear_8,156,9999,9999,9999,907116660
868,20,Ticks_Linear_8,157,9999,9999,9999,907626624
868,20,Ticks_Linear_8,158,9999,9999,9999,908136512
868,20,Ticks_Linear_8,159,9999,9999,9999,908646472
868,20,Ticks_Linear_8,160,9999,9999,9999,909146172
868,20,Ticks_Linear_8,161,9999,9999,9999,909646916
868,20,Ticks_Linear_8,162,9999,9999,9999,910146616
868,20,Ticks_Linear_8,163,9999,9999,9999,910646392
868,20,Ticks_Linear_8,164,9999,9999,9999,911147136
868,20,Ticks_Linear_8,165,9999,9999,9999,911646840
868,20,Ticks_Linear_8,166,9999,9999,9999,912136280
868,20,Ticks_Linear_8,167,9999,9999,9999,912626816
868,20,Ticks_Linear_8,168,9999,9999,9999,913116260
868,20,Ticks_Linear_8,169,9999,9999,9999,913606748
869,23,Ticks_Phase_5,0,5,42,127,922340660
869,23,Ticks_Phase_5,1,5,42,127,922840372
869,23,Ticks_Phase_5,2,5,42,127,923341124
869,23,Ticks_Phase_5,3,5,42,127,923841060
869,23,Ticks_Phase_5,4,5,42,127,924340548
869,23,Ticks_Phase_5,5,5,42,127,924841304
869,23,Ticks_Phase_5,6,5,42,127,925341160
869,23,Ticks_Phase_5,7,5,42,127,925840944
869,23,Ticks_Phase_5,8,5,42,127,926340580
869,23,Ticks_Phase_5,9,5,42,127,926841340
869,23,Ticks_Phase_5,10,1,38,18,927279756
869,23,Ticks_Phase_5,11,5,42,127,927340964
869,23,Ticks_Phase_5,12,5,42,127,927840588
869,23,Ticks_Phase_5,13,5,42,127,928341420
869,23,Ticks_Phase_5,14,5,42,127,928841128
869,23,Ticks_Phase_5,15,5,42,127,929340916
869,23,Ticks_Phase_5,16,5,42,127,929840480
869,23,Ticks_Phase_5,17,5,42,127,930341236
869,23,Ticks_Phase_5,18,5,42,127,930840872
869,23,Ticks_Phase_5,19,5,42,127,931340656
869,23,Ticks_Phase_5,20,5,42,127,931841340
869,23,Ticks_Phase_5,21,5,42,127,932341248
869,23,Ticks_Phase_5,22,5,42,127,932840956
869,23,Ticks_Phase_5,23,5,42,127,933340444
869,23,Ticks_Phase_5,24,5,42,127,933841276
869,23,Ticks_Phase_5,25,5,42,127,934340836
869,23,Ticks_Phase_5,26,1,48,20,934504688
869,23,Ticks_Phase_5,27,5,42,127,934840824
869,23,Ticks_Phase_5,28,1,48,28,934914508
869,23,Ticks_Phase_5,29,5,42,127,935341556
869,23,Ticks_Phase_5,30,1,48,32,935356880
869,23,Ticks_Phase_5,31,1,48,40,935829232
869,23,Ticks_Phase_5,32,5,42,127,935851272
869,23,Ticks_Phase_5,33,5,42,127,936351116
869,23,Ticks_Phase_5,34,1,48,38,936400000
869,23,Ticks_Phase_5,35,5,42,127,936850804
869,23,Ticks_Phase_5,36,1,48,40,936904692
869,23,Ticks_Phase_5,37,5,42,127,937341208
869,23,Ticks_Phase_5,38,1,48,38,937436212
869,23,Ticks_Phase_5,39,5,42,127,937841048
869,23,Ticks_Phase_5,40,1,48,44,937921900
869,23,Ticks_Phase_5,41,5,42,127,938340880
869,23,Ticks_Phase_5,42,1,48,37,938411180
869,23,Ticks_Phase_5,43,5,42,127,938840348
869,23,Ticks_Phase_5,44,1,48,44,938912364
869,23,Ticks_Phase_5,45,5,42,127,939341080
869,23,Ticks_Phase_5,46,1,48,38,939395572
869,23,Ticks_Phase_5,47,5,42,127,939840992
869,23,Ticks_Phase_5,48,1,48,41,939886872
869,23,Ticks_Phase_5,49,5,42,127,940340608
869,23,Ticks_Phase_5,50,1,48,42,940383344
869,23,Ticks_Phase_5,51,5,42,127,940841344
869,23,Ticks_Phase_5,52,1,48,40,940882656
869,23,Ticks_Phase_5,53,5,42,127,941340956
869,23,Ticks_Phase_5,54,1,48,37,941385260
869,23,Ticks_Phase_5,55,5,42,127,941840724
869,23,Ticks_Phase_5,56,1,48,38,941887500
869,23,Ticks_Phase_5,57,5,42,127,942340484
869,23,Ticks_Phase_5,58,1,48,46,942377820
869,23,Ticks_Phase_5,59,5,42,127,942841220
869,23,Ticks_Phase_5,60,1,48,42,942866876
869,23,Ticks_Phase_5,61,5,42,127,943340808
869,23,Ticks_Phase_5,62,1,48,42,943368748
869,23,Ticks_Phase_5,63,5,42,127,943840720
869,23,Ticks_Phase_5,64,1,48,43,943849012
869,23,Ticks_Phase_5,65,5,42,127,944341752
869,23,Ticks_Phase_5,66,1,48,40,944407800
869,23,Ticks_Phase_5,67,5,42,127,944841140
869,23,Ticks_Phase_5,68,1,48,35,944898128
869,23,Ticks_Phase_5,69,5,42,127,945340756
869,23,Ticks_Phase_5,70,1,48,41,945451516
869,23,Ticks_Phase_5,71,5,42,127,945840596
869,23,Ticks_Phase_5,72,1,48,43,945944612
869,23,Ticks_Phase_5,73,5,42,127,946350544
869,23,Ticks_Phase_5,74,1,48,38,946466916
869,23,Ticks_Phase_5,75,5,42,127,946851280
869,23,Ticks_Phase_5,76,1,48,39,946969980
869,23,Ticks_Phase_5,77,5,42,127,947350892
869,23,Ticks_Phase_5,78,1,48,38,947439464
869,23,Ticks_Phase_5,79,5,42,127,947850804
869,23,Ticks_Phase_5,80,1,48,43,947912112
869,23,Ticks_Phase_5,81,5,42,127,948351240
869,23,Ticks_Phase_5,82,1,48,41,948411504
869,23,Ticks_Phase_5,83,5,42,127,948850928
869,23,Ticks_Phase_5,84,1,48,43,948895232
869,23,Ticks_Phase_5,85,5,42,127,949350764
869,23,Ticks_Phase_5,86,1,48,41,949369920
869,23,Ticks_Phase_5,87,1,48,38,949836936
869,23,Ticks_Phase_5,88,5,42,127,949850596
869,23,Ticks_Phase_5,89,5,42,127,950351188
869,23,Ticks_Phase_5,90,1,48,37,950357448
869,23,Ticks_Phase_5,91,1,48,43,950799624
869,23,Ticks_Phase_5,92,5,42,127,950850944
869,23,Ticks_Phase_5,93,5,42,127,951350712
869,23,Ticks_Phase_5,94,1,48,43,951373600
869,23,Ticks_Phase_5,95,5,42,127,951851448
869,23,Ticks_Phase_5,96,1,48,52,951863104
869,23,Ticks_Phase_5,97,1,48,45,952320776
869,23,Ticks_Phase_5,98,5,42,127,952350984
869,23,Ticks_Phase_5,99,5,42,127,952850752
869,23,Ticks_Phase_5,100,1,48,37,952885840
869,23,Ticks_Phase_5,101,5,42,127,953350516
869,23,Ticks_Phase_5,102,1,48,33,953380520
869,23,Ticks_Phase_5,103,1,48,42,953802964
869,23,Ticks_Phase_5,104,5,42,127,953851168
869,23,Ticks_Phase_5,105,1,48,49,954335448
869,23,Ticks_Phase_5,106,5,42,127,954370552
869,23,Ticks_Phase_5,107,1,48,51,954838368
869,23,Ticks_Phase_5,108,5,42,127,954871264
869,23,Ticks_Phase_5,109,1,48,46,955347304
869,23,Ticks_Phase_5,110,5,42,127,955370852
869,23,Ticks_Phase_5,111,5,42,127,955870620
869,23,Ticks_Phase_5,112,1,48,56,955876956
869,23,Ticks_Phase_5,113,5,42,127,956371580
869,23,Ticks_Phase_5,114,1,48,53,956414116
869,23,Ticks_Phase_5,115,5,42,127,956870968
869,23,Ticks_Phase_5,116,1,48,50,956930208
869,23,Ticks_Phase_5,117,5,42,127,957370880
869,23,Ticks_Phase_5,118,1,48,56,957414588
869,23,Ticks_Phase_5,119,5,42,127,957870492
869,23,Ticks_Phase_5,120,1,48,51,957948296
869,23,Ticks_Phase_5,121,5,42,127,958371152
869,23,Ticks_Phase_5,122,1,48,54,958453128
869,23,Ticks_Phase_5,123,5,42,127,958870916
869,23,Ticks_Phase_5,124,1,48,52,958941512
869,23,Ticks_Phase_5,125,5,42,127,959370528
869,23,Ticks_Phase_5,126,1,48,51,959431236
869,23,Ticks_Phase_5,127,5,42,127,959871632
869,23,Ticks_Phase_5,128,1,48,50,959890564
869,23,Ticks_Phase_5,129,5,42,127,960371100
869,23,Ticks_Phase_5,130,1,48,47,960394736
869,23,Ticks_Phase_5,131,5,42,127,960870860
869,23,Ticks_Phase_5,132,1,48,52,960883940
869,23,Ticks_Phase_5,133,1,48,54,961315688
869,23,Ticks_Phase_5,134,5,42,127,961370764
869,23,Ticks_Phase_5,135,5,42,127,961871136
869,23,Ticks_Phase_5,136,1,48,46,961874776
869,23,Ticks_Phase_5,137,5,42,127,962370900
869,23,Ticks_Phase_5,138,1,48,45,962373564
869,23,Ticks_Phase_5,139,5,42,127,962851040
869,23,Ticks_Phase_5,140,1,48,41,962891308
869,23,Ticks_Phase_5,141,1,48,46,963333840
869,23,Ticks_Phase_5,142,5,42,127,963350872
869,23,Ticks_Phase_5,143,5,42,127,963850716
869,23,Ticks_Phase_5,144,1,48,48,963857048
869,23,Ticks_Phase_5,145,5,42,127,964351448
869,23,Ticks_Phase_5,146,1,48,50,964373816
869,23,Ticks_Phase_5,147,1,48,50,964851484
869,23,Ticks_Phase_5,148,5,42,127,964852600
869,23,Ticks_Phase_5,149,5,42,127,965350728
869,23,Ticks_Phase_5,150,1,48,46,965355640
869,23,Ticks_Phase_5,151,5,42,127,965850712
869,23,Ticks_Phase_5,152,1,48,47,965853308
869,23,Ticks_Phase_5,153,1,48,54,966343700
869,23,Ticks_Phase_5,154,5,42,127,966351364
869,23,Ticks_Phase_5,155,1,48,51,966827208
869,23,Ticks_Phase_5,156,5,42,127,966850904
869,23,Ticks_Phase_5,157,1,48,36,967336624
869,23,Ticks_Phase_5,158,5,42,127,967350592
869,23,Ticks_Phase_5,159,1,48,51,967787188
869,23,Ticks_Phase_5,160,5,42,127,967851476
869,23,Ticks_Phase_5,161,1,48,54,968335408
869,23,Ticks_Phase_5,162,5,42,127,968351164
869,23,Ticks_Phase_5,163,1,48,54,968817720
869,23,Ticks_Phase_5,164,5,42,127,968850776
869,23,Ticks_Phase_5,165,1,48,53,969299812
869,23,Ticks_Phase_5,166,5,42,127,969350616
869,23,Ticks_Phase_5,167,5,42,127,969851208
869,23,Ticks_Phase_5,168,1,48,55,969865408
869,23,Ticks_Phase_5,169,5,42,127,970350896
869,23,Ticks_Phase_5,170,1,48,47,970382848
869,23,Ticks_Phase_5,171,5,42,127,970800560
869,23,Ticks_Phase_5,172,1,48,55,970886204
869,23,Ticks_Phase_5,173,5,42,127,971301444
869,23,Ticks_Phase_5,174,1,48,60,971346124
869,23,Ticks_Phase_5,175,5,42,127,971800908
869,23,Ticks_Phase_5,176,1,48,59,971819236
869,23,Ticks_Phase_5,177,5,42,127,972300748
869,23,Ticks_Phase_5,178,1,48,60,972349852
869,23,Ticks_Phase_5,179,5,42,127,972801404
869,23,Ticks_Phase_5,180,1,48,62,972826608
869,23,Ticks_Phase_5,181,5,42,127,973301068
869,23,Ticks_Phase_5,182,1,48,58,973306752
869,23,Ticks_Phase_5,183,5,42,127,973800760
869,23,Ticks_Phase_5,184,1,48,48,973813464
869,23,Ticks_Phase_5,185,1,48,53,974282360
869,23,Ticks_Phase_5,186,5,42,127,974300516
869,23,Ticks_Phase_5,187,1,48,58,974756208
869,23,Ticks_Phase_5,188,5,42,127,974801396
869,23,Ticks_Phase_5,189,1,48,59,975240552
869,23,Ticks_Phase_5,190,5,42,127,975300936
869,23,Ticks_Phase_5,191,1,48,55,975756856
869,23,Ticks_Phase_5,192,5,42,127,975800700
869,23,Ticks_Phase_5,193,1,48,59,976257368
869,23,Ticks_Phase_5,194,5,42,127,976301288
869,23,Ticks_Phase_5,195,1,48,56,976756228
869,23,Ticks_Phase_5,196,5,42,127,976811308
869,23,Ticks_Phase_5,197,1,48,55,977282584
869,23,Ticks_Phase_5,198,5,42,127,977311220
869,23,Ticks_Phase_5,199,5,42,127,977810764
869,23,Ticks_Phase_5,200,1,48,50,977813432
869,23,Ticks_Phase_5,201,5,42,127,978310452
869,23,Ticks_Phase_5,202,1,48,57,978314544
869,23,Ticks_Phase_5,203,1,48,52,978766140
869,23,Ticks_Phase_5,204,5,42,127,978811256
869,23,Ticks_Phase_5,205,1,48,48,979291968
869,23,Ticks_Phase_5,206,5,42,127,979361120
869,23,Ticks_Phase_5,207,5,42,127,979860816
869,23,Ticks_Phase_5,208,1,48,47,979868272
869,23,Ticks_Phase_5,209,1,48,55,980351480
869,23,Ticks_Phase_5,210,5,42,127,980360572
869,23,Ticks_Phase_5,211,5,42,127,980861236
869,23,Ticks_Phase_5,212,1,48,48,980910196
869,23,Ticks_Phase_5,213,5,42,127,981361148
869,23,Ticks_Phase_5,214,1,48,53,981390332
869,23,Ticks_Phase_5,215,5,42,127,981860840
869,23,Ticks_Phase_5,216,1,48,51,981914576
869,23,Ticks_Phase_5,217,1,48,62,982358560
869,23,Ticks_Phase_5,218,5,42,127,982360372
869,23,Ticks_Phase_5,219,1,48,60,982840860
869,23,Ticks_Phase_5,220,5,42,127,982861180
869,23,Ticks_Phase_5,221,1,48,61,983330584
869,23,Ticks_Phase_5,222,5,42,127,983360868
869,23,Ticks_Phase_5,223,1,48,56,983807796
869,23,Ticks_Phase_5,224,5,42,127,983860556
869,23,Ticks_Phase_5,225,5,42,127,984361296
869,23,Ticks_Phase_5,226,1,48,54,984377292
869,23,Ticks_Phase_5,227,5,42,127,984861136
869,23,Ticks_Phase_5,228,1,48,60,984890992
869,23,Ticks_Phase_5,229,1,48,19,984986444
869,23,Ticks_Phase_5,230,5,42,127,985360800
869,23,Ticks_Phase_5,231,1,48,58,985366612
869,23,Ticks_Phase_5,232,5,42,127,985860488
869,23,Ticks_Phase_5,233,1,48,53,985894312
869,23,Ticks_Phase_5,234,5,42,127,986361224
869,23,Ticks_Phase_5,235,1,48,53,986367484
869,23,Ticks_Phase_5,236,5,42,127,986860888
869,23,Ticks_Phase_5,237,1,48,48,986960860
869,23,Ticks_Phase_5,238,5,42,127,987360576
869,23,Ticks_Phase_5,239,1,48,55,987412320
869,23,Ticks_Phase_5,240,1,48,17,987506132
869,23,Ticks_Phase_5,241,1,48,52,987887984
869,23,Ticks_Phase_5,242,5,42,127,987960684
869,23,Ticks_Phase_5,243,5,42,127,988461352
869,23,Ticks_Phase_5,244,1,48,59,988479680
869,23,Ticks_Phase_5,245,5,42,127,988971300
869,23,Ticks_Phase_5,246,1,48,48,988982132
869,23,Ticks_Phase_5,247,1,48,55,989461216
869,23,Ticks_Phase_5,248,5,42,127,989471204
869,23,Ticks_Phase_5,249,1,48,62,989938480
869,23,Ticks_Phase_5,250,5,42,127,989970744
869,23,Ticks_Phase_5,251,1,48,21,990038024
869,23,Ticks_Phase_5,252,5,42,127,990470492
869,23,Ticks_Phase_5,253,1,48,56,990493980
869,23,Ticks_Phase_5,254,5,42,127,990971304
869,23,Ticks_Phase_5,255,1,48,55,990984828
869,23,Ticks_Phase_5,256,1,48,57,991470820
869,23,Ticks_Phase_5,257,5,42,127,991472232
869,23,Ticks_Phase_5,258,1,48,57,991938332
869,23,Ticks_Phase_5,259,5,42,127,991970648
869,23,Ticks_Phase_5,260,1,48,58,992440204
869,23,Ticks_Phase_5,261,5,42,127,992471384
869,23,Ticks_Phase_5,262,1,48,57,992910540
869,23,Ticks_Phase_5,263,5,42,127,992971444
869,23,Ticks_Phase_5,264,1,48,51,993458976
869,23,Ticks_Phase_5,265,5,42,127,993470688
869,23,Ticks_Phase_5,266,1,48,48,993729332
869,23,Ticks_Phase_5,267,5,42,127,993970436
869,23,Ticks_Phase_5,268,1,48,49,994024848
869,23,Ticks_Phase_5,269,1,48,36,994471244
869,23,Ticks_Phase_5,270,5,42,127,994472656
869,23,Ticks_Phase_5,271,5,42,127,994970932
869,23,Ticks_Phase_5,272,1,48,34,995038684
869,23,Ticks_Phase_5,273,5,42,127,995470768
869,23,Ticks_Phase_5,274,1,48,31,995590140
869,23,Ticks_Phase_5,275,5,42,127,995970456
869,23,Ticks_Phase_5,276,1,48,43,996052804
869,23,Ticks_Phase_5,277,5,42,127,996471116
869,23,Ticks_Phase_5,278,1,48,49,996522096
869,23,Ticks_Phase_5,279,5,42,127,996970808
869,23,Ticks_Phase_5,280,1,48,40,997058020
869,23,Ticks_Phase_5,281,5,42,127,997371344
869,23,Ticks_Phase_5,282,1,48,50,997545056
869,23,Ticks_Phase_5,283,5,42,127,997871156
869,23,Ticks_Phase_5,284,1,48,48,998073652
869,23,Ticks_Phase_5,285,5,42,127,998370696
869,23,Ticks_Phase_5,286,1,48,43,998782676
869,23,Ticks_Phase_5,287,5,42,127,998871372
869,23,Ticks_Phase_5,288,5,42,127,999371216
869,23,Ticks_Phase_5,289,1,48,42,999376500
869,23,Ticks_Phase_5,290,5,42,127,999871052
869,23,Ticks_Phase_5,291,1,48,51,999902632
869,23,Ticks_Phase_5,292,5,42,127,1000370444
869,23,Ticks_Phase_5,293,1,48,45,1000450500
869,23,Ticks_Phase_5,294,5,42,127,1000871404
869,23,Ticks_Phase_5,295,1,48,46,1000944612
869,23,Ticks_Phase_5,296,5,42,127,1001371164
869,23,Ticks_Phase_5,297,1,48,47,1001475256
869,23,Ticks_Phase_5,298,5,42,127,1001870780
869,23,Ticks_Phase_5,299,1,48,48,1001966156
869,23,Ticks_Phase_5,300,5,42,127,1002370468
869,23,Ticks_Phase_5,301,1,48,50,1002441960
869,23,Ticks_Phase_5,302,5,42,127,1002871128
869,23,Ticks_Phase_5,303,1,48,53,1002958564
869,23,Ticks_Phase_5,304,5,42,127,1003371036
869,23,Ticks_Phase_5,305,1,48,54,1003424704
869,23,Ticks_Phase_5,306,5,42,127,1003870652
869,23,Ticks_Phase_5,307,1,48,54,1003943044
869,23,Ticks_Phase_5,308,5,42,127,1004371240
869,23,Ticks_Phase_5,309,1,48,51,1004427224
869,23,Ticks_Phase_5,310,5,42,127,1004871152
869,23,Ticks_Phase_5,311,1,48,38,1004946080
869,23,Ticks_Phase_5,312,5,42,127,1005370988
869,23,Ticks_Phase_5,313,1,48,51,1005494000
869,23,Ticks_Phase_5,314,5,42,127,1005870528
869,23,Ticks_Phase_5,315,1,48,51,1006027384
869,23,Ticks_Phase_5,316,5,42,127,1006371184
869,23,Ticks_Phase_5,317,1,48,45,1006596144
869,23,Ticks_Phase_5,318,5,42,127,1006871172
869,23,Ticks_Phase_5,0,9999,9999,9999,922338372
869,23,Ticks_Phase_5,1,9999,9999,9999,922838084
869,23,Ticks_Phase_5,2,9999,9999,9999,923338840
869,23,Ticks_Phase_5,3,9999,9999,9999,923838548
869,23,Ticks_Phase_5,4,9999,9999,9999,924338260
869,23,Ticks_Phase_5,5,9999,9999,9999,924839016
869,23,Ticks_Phase_5,6,9999,9999,9999,925338724
869,23,Ticks_Phase_5,7,9999,9999,9999,925838436
869,23,Ticks_Phase_5,8,9999,9999,9999,926338144
869,23,Ticks_Phase_5,9,9999,9999,9999,926838904
869,23,Ticks_Phase_5,10,9999,9999,9999,927338604
869,23,Ticks_Phase_5,11,9999,9999,9999,927838300
869,23,Ticks_Phase_5,12,9999,9999,9999,928339060
869,23,Ticks_Phase_5,13,9999,9999,9999,928838768
869,23,Ticks_Phase_5,14,9999,9999,9999,929338480
869,23,Ticks_Phase_5,15,9999,9999,9999,929838192
869,23,Ticks_Phase_5,16,9999,9999,9999,930338876
869,23,Ticks_Phase_5,17,9999,9999,9999,930838584
869,23,Ticks_Phase_5,18,9999,9999,9999,931338296
869,23,Ticks_Phase_5,19,9999,9999,9999,931839052
869,23,Ticks_Phase_5,20,9999,9999,9999,932338812
869,23,Ticks_Phase_5,21,9999,9999,9999,932838520
869,23,Ticks_Phase_5,22,9999,9999,9999,933338232
869,23,Ticks_Phase_5,23,9999,9999,9999,933838912
869,23,Ticks_Phase_5,24,9999,9999,9999,934338624
869,23,Ticks_Phase_5,25,9999,9999,9999,934838388
869,23,Ticks_Phase_5,26,9999,9999,9999,935339120
869,23,Ticks_Phase_5,27,9999,9999,9999,935849060
869,23,Ticks_Phase_5,28,9999,9999,9999,936348756
869,23,Ticks_Phase_5,29,9999,9999,9999,936848444
869,23,Ticks_Phase_5,30,9999,9999,9999,937338992
869,23,Ticks_Phase_5,31,9999,9999,9999,937838684
869,23,Ticks_Phase_5,32,9999,9999,9999,938338372
869,23,Ticks_Phase_5,33,9999,9999,9999,938838136
869,23,Ticks_Phase_5,34,9999,9999,9999,939338868
869,23,Ticks_Phase_5,35,9999,9999,9999,939838556
869,23,Ticks_Phase_5,36,9999,9999,9999,940338244
869,23,Ticks_Phase_5,37,9999,9999,9999,940838980
869,23,Ticks_Phase_5,38,9999,9999,9999,941338744
869,23,Ticks_Phase_5,39,9999,9999,9999,941838436
869,23,Ticks_Phase_5,40,9999,9999,9999,942338124
869,23,Ticks_Phase_5,41,9999,9999,9999,942838908
869,23,Ticks_Phase_5,42,9999,9999,9999,943338596
869,23,Ticks_Phase_5,43,9999,9999,9999,943838284
869,23,Ticks_Phase_5,44,9999,9999,9999,944339020
869,23,Ticks_Phase_5,45,9999,9999,9999,944838780
869,23,Ticks_Phase_5,46,9999,9999,9999,945338472
869,23,Ticks_Phase_5,47,9999,9999,9999,945838160
869,23,Ticks_Phase_5,48,9999,9999,9999,946348108
869,23,Ticks_Phase_5,49,9999,9999,9999,946848844
869,23,Ticks_Phase_5,50,9999,9999,9999,947348604
869,23,Ticks_Phase_5,51,9999,9999,9999,947848296
869,23,Ticks_Phase_5,52,9999,9999,9999,948349028
869,23,Ticks_Phase_5,53,9999,9999,9999,948848716
869,23,Ticks_Phase_5,54,9999,9999,9999,949348480
869,23,Ticks_Phase_5,55,9999,9999,9999,949848160
869,23,Ticks_Phase_5,56,9999,9999,9999,950348900
869,23,Ticks_Phase_5,57,9999,9999,9999,950848584
869,23,Ticks_Phase_5,58,9999,9999,9999,951348276
869,23,Ticks_Phase_5,59,9999,9999,9999,951849012
869,23,Ticks_Phase_5,60,9999,9999,9999,952348772
869,23,Ticks_Phase_5,61,9999,9999,9999,952848464
869,23,Ticks_Phase_5,62,9999,9999,9999,953348152
869,23,Ticks_Phase_5,63,9999,9999,9999,953848956
869,23,Ticks_Phase_5,64,9999,9999,9999,954368116
869,23,Ticks_Phase_5,65,9999,9999,9999,954868828
869,23,Ticks_Phase_5,66,9999,9999,9999,955368564
869,23,Ticks_Phase_5,67,9999,9999,9999,955868260
869,23,Ticks_Phase_5,68,9999,9999,9999,956368996
869,23,Ticks_Phase_5,69,9999,9999,9999,956868680
869,23,Ticks_Phase_5,70,9999,9999,9999,957368444
869,23,Ticks_Phase_5,71,9999,9999,9999,957868132
869,23,Ticks_Phase_5,72,9999,9999,9999,958368864
869,23,Ticks_Phase_5,73,9999,9999,9999,958868552
869,23,Ticks_Phase_5,74,9999,9999,9999,959368316
869,23,Ticks_Phase_5,75,9999,9999,9999,959869048
869,23,Ticks_Phase_5,76,9999,9999,9999,960368736
869,23,Ticks_Phase_5,77,9999,9999,9999,960868424
869,23,Ticks_Phase_5,78,9999,9999,9999,961368180
869,23,Ticks_Phase_5,79,9999,9999,9999,961868924
869,23,Ticks_Phase_5,80,9999,9999,9999,962368612
869,23,Ticks_Phase_5,81,9999,9999,9999,962848828
869,23,Ticks_Phase_5,82,9999,9999,9999,963348584
869,23,Ticks_Phase_5,83,9999,9999,9999,963848280
869,23,Ticks_Phase_5,84,9999,9999,9999,964349016
869,23,Ticks_Phase_5,85,9999,9999,9999,964848752
869,23,Ticks_Phase_5,86,9999,9999,9999,965348440
869,23,Ticks_Phase_5,87,9999,9999,9999,965848128
869,23,Ticks_Phase_5,88,9999,9999,9999,966348856
869,23,Ticks_Phase_5,89,9999,9999,9999,966848620
869,23,Ticks_Phase_5,90,9999,9999,9999,967348304
869,23,Ticks_Phase_5,91,9999,9999,9999,967849040
869,23,Ticks_Phase_5,92,9999,9999,9999,968348728
869,23,Ticks_Phase_5,93,9999,9999,9999,968848488
869,23,Ticks_Phase_5,94,9999,9999,9999,969348180
869,23,Ticks_Phase_5,95,9999,9999,9999,969848920
869,23,Ticks_Phase_5,96,9999,9999,9999,970348608
869,23,Ticks_Phase_5,97,9999,9999,9999,970798200
869,23,Ticks_Phase_5,98,9999,9999,9999,971298932
869,23,Ticks_Phase_5,99,9999,9999,9999,971798624
869,23,Ticks_Phase_5,100,9999,9999,9999,972298312
869,23,Ticks_Phase_5,101,9999,9999,9999,972799044
869,23,Ticks_Phase_5,102,9999,9999,9999,973298780
869,23,Ticks_Phase_5,103,9999,9999,9999,973798472
869,23,Ticks_Phase_5,104,9999,9999,9999,974298228
869,23,Ticks_Phase_5,105,9999,9999,9999,974798964
869,23,Ticks_Phase_5,106,9999,9999,9999,975298648
869,23,Ticks_Phase_5,107,9999,9999,9999,975798340
869,23,Ticks_Phase_5,108,9999,9999,9999,976299076
869,23,Ticks_Phase_5,109,9999,9999,9999,976809020
869,23,Ticks_Phase_5,110,9999,9999,9999,977308784
869,23,Ticks_Phase_5,111,9999,9999,9999,977808480
869,23,Ticks_Phase_5,112,9999,9999,9999,978308168
869,23,Ticks_Phase_5,113,9999,9999,9999,978808896
869,23,Ticks_Phase_5,114,9999,9999,9999,979358832
869,23,Ticks_Phase_5,115,9999,9999,9999,979858528
869,23,Ticks_Phase_5,116,9999,9999,9999,980358208
869,23,Ticks_Phase_5,117,9999,9999,9999,980858952
869,23,Ticks_Phase_5,118,9999,9999,9999,981358716
869,23,Ticks_Phase_5,119,9999,9999,9999,981858404
869,23,Ticks_Phase_5,120,9999,9999,9999,982358108
869,23,Ticks_Phase_5,121,9999,9999,9999,982858820
869,23,Ticks_Phase_5,122,9999,9999,9999,983358580
869,23,Ticks_Phase_5,123,9999,9999,9999,983858268
869,23,Ticks_Phase_5,124,9999,9999,9999,984359012
869,23,Ticks_Phase_5,125,9999,9999,9999,984858700
869,23,Ticks_Phase_5,126,9999,9999,9999,985358440
869,23,Ticks_Phase_5,127,9999,9999,9999,985858128
869,23,Ticks_Phase_5,128,9999,9999,9999,986358860
869,23,Ticks_Phase_5,129,9999,9999,9999,986858600
869,23,Ticks_Phase_5,130,9999,9999,9999,987358288
869,23,Ticks_Phase_5,131,9999,9999,9999,987958396
869,23,Ticks_Phase_5,132,9999,9999,9999,988459064
869,23,Ticks_Phase_5,133,9999,9999,9999,988969084
869,23,Ticks_Phase_5,134,9999,9999,9999,989468768
869,23,Ticks_Phase_5,135,9999,9999,9999,989968456
869,23,Ticks_Phase_5,136,9999,9999,9999,990468204
869,23,Ticks_Phase_5,137,9999,9999,9999,990968940
869,23,Ticks_Phase_5,138,9999,9999,9999,991468608
869,23,Ticks_Phase_5,139,9999,9999,9999,991968360
869,23,Ticks_Phase_5,140,9999,9999,9999,992469096
869,23,Ticks_Phase_5,141,9999,9999,9999,992968784
869,23,Ticks_Phase_5,142,9999,9999,9999,993468476
869,23,Ticks_Phase_5,143,9999,9999,9999,993968224
869,23,Ticks_Phase_5,144,9999,9999,9999,994468956
869,23,Ticks_Phase_5,145,9999,9999,9999,994968644
869,23,Ticks_Phase_5,146,9999,9999,9999,995468408
869,23,Ticks_Phase_5,147,9999,9999,9999,995968096
869,23,Ticks_Phase_5,148,9999,9999,9999,996468832
869,23,Ticks_Phase_5,149,9999,9999,9999,996968520
869,23,Ticks_Phase_5,150,9999,9999,9999,997368908
869,23,Ticks_Phase_5,151,9999,9999,9999,997868648
869,23,Ticks_Phase_5,152,9999,9999,9999,998368336
869,23,Ticks_Phase_5,153,9999,9999,9999,998869088
869,23,Ticks_Phase_5,154,9999,9999,9999,999368780
869,23,Ticks_Phase_5,155,9999,9999,9999,999868544
869,23,Ticks_Phase_5,156,9999,9999,9999,1000368232
869,23,Ticks_Phase_5,157,9999,9999,9999,1000868964
869,23,Ticks_Phase_5,158,9999,9999,9999,1001368656
869,23,Ticks_Phase_5,159,9999,9999,9999,1001868344
869,23,Ticks_Phase_5,160,9999,9999,9999,1002368104
869,23,Ticks_Phase_5,161,9999,9999,9999,1002868840
869,23,Ticks_Phase_5,162,9999,9999,9999,1003368528
869,23,Ticks_Phase_5,163,9999,9999,9999,1003868216
869,23,Ticks_Phase_5,164,9999,9999,9999,1004368952
869,23,Ticks_Phase_5,165,9999,9999,9999,1004868716
869,23,Ticks_Phase_5,166,9999,9999,9999,1005368404
869,23,Ticks_Phase_5,167,9999,9999,9999,1005868092
869,23,Ticks_Phase_5,168,9999,9999,9999,1006368824
869,23,Ticks_Phase_5,169,9999,9999,9999,1006868588
8610,22,Ticks_Phase_8,0,5,42,127,1017484888
8610,22,Ticks_Phase_8,1,5,42,127,1018285372
8610,22,Ticks_Phase_8,2,5,42,127,1019095292
8610,22,Ticks_Phase_8,3,5,42,127,1019895124
8610,22,Ticks_Phase_8,4,5,42,127,1020694932
8610,22,Ticks_Phase_8,5,5,42,127,1021494816
8610,22,Ticks_Phase_8,6,5,42,127,1022295300
8610,22,Ticks_Phase_8,7,5,42,127,1023095108
8610,22,Ticks_Phase_8,8,5,42,127,1023894840
8610,22,Ticks_Phase_8,9,5,42,127,1024694872
8610,22,Ticks_Phase_8,10,5,42,127,1025495504
8610,22,Ticks_Phase_8,11,5,42,127,1026295112
8610,22,Ticks_Phase_8,12,5,42,127,1027094772
8610,22,Ticks_Phase_8,13,5,42,127,1027894804
8610,22,Ticks_Phase_8,14,1,48,32,1027901516
8610,22,Ticks_Phase_8,15,1,48,36,1028673892
8610,22,Ticks_Phase_8,16,5,42,127,1028695332
8610,22,Ticks_Phase_8,17,1,48,31,1029482668
8610,22,Ticks_Phase_8,18,5,42,127,1029495044
8610,22,Ticks_Phase_8,19,1,48,24,1030294764
8610,22,Ticks_Phase_8,20,5,42,127,1030296248
8610,22,Ticks_Phase_8,21,1,48,30,1031093344
8610,22,Ticks_Phase_8,22,5,42,127,1031094840
8610,22,Ticks_Phase_8,23,1,48,36,1031863748
8610,22,Ticks_Phase_8,24,5,42,127,1031895376
8610,22,Ticks_Phase_8,25,1,48,42,1032691932
8610,22,Ticks_Phase_8,26,5,42,127,1032695112
8610,22,Ticks_Phase_8,27,5,42,127,1033494980
8610,22,Ticks_Phase_8,28,1,48,35,1033611100
8610,22,Ticks_Phase_8,29,5,42,127,1034294620
8610,22,Ticks_Phase_8,30,1,48,27,1034352396
8610,22,Ticks_Phase_8,31,1,48,34,1034948688
8610,22,Ticks_Phase_8,32,5,42,127,1035095576
8610,22,Ticks_Phase_8,33,1,48,39,1035754096
8610,22,Ticks_Phase_8,34,5,42,127,1035895144
8610,22,Ticks_Phase_8,35,5,42,127,1036694952
8610,22,Ticks_Phase_8,36,1,48,30,1036709676
8610,22,Ticks_Phase_8,37,5,42,127,1037494664
8610,22,Ticks_Phase_8,38,1,48,32,1037522192
8610,22,Ticks_Phase_8,39,5,42,127,1038295568
8610,22,Ticks_Phase_8,40,1,48,36,1038334588
8610,22,Ticks_Phase_8,41,1,48,37,1039095528
8610,22,Ticks_Phase_8,42,5,42,127,1039096644
8610,22,Ticks_Phase_8,43,5,42,127,1039894796
8610,22,Ticks_Phase_8,44,1,48,47,1039895760
8610,22,Ticks_Phase_8,45,1,48,42,1040686608
8610,22,Ticks_Phase_8,46,5,42,127,1040694572
8610,22,Ticks_Phase_8,47,5,42,127,1041474820
8610,22,Ticks_Phase_8,48,1,48,40,1041498608
8610,22,Ticks_Phase_8,49,1,48,45,1042148208
8610,22,Ticks_Phase_8,50,5,42,127,1042274660
8610,22,Ticks_Phase_8,51,1,48,37,1042983076
8610,22,Ticks_Phase_8,52,5,42,127,1043074388
8610,22,Ticks_Phase_8,53,1,48,32,1043800972
8610,22,Ticks_Phase_8,54,5,42,127,1043875144
8610,22,Ticks_Phase_8,55,5,42,127,1044675012
8610,22,Ticks_Phase_8,56,1,48,35,1044732592
8610,22,Ticks_Phase_8,57,5,42,127,1045474648
8610,22,Ticks_Phase_8,58,1,48,32,1045487204
8610,22,Ticks_Phase_8,59,1,48,38,1046263492
8610,22,Ticks_Phase_8,60,5,42,127,1046274380
8610,22,Ticks_Phase_8,61,1,48,29,1047064704
8610,22,Ticks_Phase_8,62,5,42,127,1047075136
8610,22,Ticks_Phase_8,63,1,48,32,1047828016
8610,22,Ticks_Phase_8,64,5,42,127,1047874996
8610,22,Ticks_Phase_8,65,1,48,34,1048673888
8610,22,Ticks_Phase_8,66,5,42,127,1048675456
8610,22,Ticks_Phase_8,67,5,42,127,1049474500
8610,22,Ticks_Phase_8,68,1,48,35,1049511912
8610,22,Ticks_Phase_8,69,1,48,38,1050222196
8610,22,Ticks_Phase_8,70,5,42,127,1050275180
8610,22,Ticks_Phase_8,71,1,48,41,1051072380
8610,22,Ticks_Phase_8,72,5,42,127,1051075040
8610,22,Ticks_Phase_8,73,1,48,38,1051852620
8610,22,Ticks_Phase_8,74,5,42,127,1051874676
8610,22,Ticks_Phase_8,75,5,42,127,1052674492
8610,22,Ticks_Phase_8,76,1,48,49,1053133184
8610,22,Ticks_Phase_8,77,5,42,127,1053475400
8610,22,Ticks_Phase_8,78,1,48,40,1053929668
8610,22,Ticks_Phase_8,79,5,42,127,1054274888
8610,22,Ticks_Phase_8,80,1,48,39,1054856864
8610,22,Ticks_Phase_8,81,5,42,127,1055074528
8610,22,Ticks_Phase_8,82,5,42,127,1055894856
8610,22,Ticks_Phase_8,83,5,42,127,1056694588
8610,22,Ticks_Phase_8,84,1,48,19,1056918876
8610,22,Ticks_Phase_8,85,5,42,127,1057495420
8610,22,Ticks_Phase_8,86,1,48,27,1057756184
8610,22,Ticks_Phase_8,87,5,42,127,1058295304
8610,22,Ticks_Phase_8,88,1,48,40,1058348676
8610,22,Ticks_Phase_8,89,5,42,127,1059094868
8610,22,Ticks_Phase_8,90,1,48,36,1059103012
8610,22,Ticks_Phase_8,91,1,48,35,1059886980
8610,22,Ticks_Phase_8,92,5,42,127,1059894572
8610,22,Ticks_Phase_8,93,1,48,45,1060695336
8610,22,Ticks_Phase_8,94,5,42,127,1060696676
8610,22,Ticks_Phase_8,95,1,48,39,1061450600
8610,22,Ticks_Phase_8,96,5,42,127,1061495116
8610,22,Ticks_Phase_8,97,1,48,38,1062244628
8610,22,Ticks_Phase_8,98,5,42,127,1062294980
8610,22,Ticks_Phase_8,99,1,48,37,1063081328
8610,22,Ticks_Phase_8,100,5,42,127,1063094692
8610,22,Ticks_Phase_8,101,1,48,45,1063849660
8610,22,Ticks_Phase_8,102,5,42,127,1063895448
8610,22,Ticks_Phase_8,103,1,48,43,1064641736
8610,22,Ticks_Phase_8,104,5,42,127,1064695112
8610,22,Ticks_Phase_8,105,1,48,39,1065425200
8610,22,Ticks_Phase_8,106,5,42,127,1065494748
8610,22,Ticks_Phase_8,107,1,48,40,1066195032
8610,22,Ticks_Phase_8,108,5,42,127,1066294596
8610,22,Ticks_Phase_8,109,1,48,37,1066929588
8610,22,Ticks_Phase_8,110,5,42,127,1067095352
8610,22,Ticks_Phase_8,111,1,48,29,1067827576
8610,22,Ticks_Phase_8,112,5,42,127,1067895080
8610,22,Ticks_Phase_8,113,1,48,34,1068694988
8610,22,Ticks_Phase_8,114,5,42,127,1068734928
8610,22,Ticks_Phase_8,115,5,42,127,1069534500
8610,22,Ticks_Phase_8,116,1,48,37,1069583408
8610,22,Ticks_Phase_8,117,1,48,37,1070297484
8610,22,Ticks_Phase_8,118,5,42,127,1070335276
8610,22,Ticks_Phase_8,119,5,42,127,1071135216
8610,22,Ticks_Phase_8,120,1,48,39,1071200864
8610,22,Ticks_Phase_8,121,5,42,127,1071934780
8610,22,Ticks_Phase_8,122,1,48,40,1071952052
8610,22,Ticks_Phase_8,123,1,48,44,1072719548
8610,22,Ticks_Phase_8,124,5,42,127,1072734560
8610,22,Ticks_Phase_8,125,5,42,127,1073535472
8610,22,Ticks_Phase_8,126,1,48,37,1073548556
8610,22,Ticks_Phase_8,127,5,42,127,1074334964
8610,22,Ticks_Phase_8,128,1,48,42,1074375752
8610,22,Ticks_Phase_8,129,5,42,127,1075134896
8610,22,Ticks_Phase_8,130,1,48,38,1075151192
8610,22,Ticks_Phase_8,131,5,42,127,1075934460
8610,22,Ticks_Phase_8,132,1,48,38,1076008972
8610,22,Ticks_Phase_8,133,1,48,38,1076703584
8610,22,Ticks_Phase_8,134,5,42,127,1076735308
8610,22,Ticks_Phase_8,135,1,48,37,1077530648
8610,22,Ticks_Phase_8,136,5,42,127,1077535168
8610,22,Ticks_Phase_8,137,5,42,127,1078334888
8610,22,Ticks_Phase_8,138,1,48,21,1078346248
8610,22,Ticks_Phase_8,139,1,48,34,1079130888
8610,22,Ticks_Phase_8,140,5,42,127,1079134668
8610,22,Ticks_Phase_8,141,1,48,27,1079865904
8610,22,Ticks_Phase_8,142,5,42,127,1079935356
8610,22,Ticks_Phase_8,143,1,48,39,1080716164
8610,22,Ticks_Phase_8,144,5,42,127,1080735216
8610,22,Ticks_Phase_8,145,1,48,40,1081532496
8610,22,Ticks_Phase_8,146,5,42,127,1081535000
8610,22,Ticks_Phase_8,147,5,42,127,1082294584
8610,22,Ticks_Phase_8,148,1,48,23,1082370444
8610,22,Ticks_Phase_8,149,1,48,42,1083080400
8610,22,Ticks_Phase_8,150,5,42,127,1083095412
8610,22,Ticks_Phase_8,151,1,48,34,1083848740
8610,22,Ticks_Phase_8,152,5,42,127,1083895148
8610,22,Ticks_Phase_8,153,1,48,43,1084551392
8610,22,Ticks_Phase_8,154,5,42,127,1084694992
8610,22,Ticks_Phase_8,155,1,48,38,1085387500
8610,22,Ticks_Phase_8,156,5,42,127,1085494628
8610,22,Ticks_Phase_8,157,5,42,127,1086295260
8610,22,Ticks_Phase_8,158,1,48,42,1086315156
8610,22,Ticks_Phase_8,159,5,42,127,1087095196
8610,22,Ticks_Phase_8,160,1,48,40,1087115472
8610,22,Ticks_Phase_8,161,5,42,127,1087894836
8610,22,Ticks_Phase_8,162,1,48,41,1087939216
8610,22,Ticks_Phase_8,163,5,42,127,1088694920
8610,22,Ticks_Phase_8,164,1,48,35,1088719156
8610,22,Ticks_Phase_8,165,5,42,127,1089495380
8610,22,Ticks_Phase_8,166,1,48,35,1089517072
8610,22,Ticks_Phase_8,167,1,48,42,1090236720
8610,22,Ticks_Phase_8,168,5,42,127,1090295036
8610,22,Ticks_Phase_8,169,5,42,127,1091094828
8610,22,Ticks_Phase_8,170,1,48,41,1091125284
8610,22,Ticks_Phase_8,171,5,42,127,1091894760
8610,22,Ticks_Phase_8,172,1,48,40,1091967748
8610,22,Ticks_Phase_8,173,5,42,127,1092695520
8610,22,Ticks_Phase_8,174,1,48,49,1092752028
8610,22,Ticks_Phase_8,175,5,42,127,1093495008
8610,22,Ticks_Phase_8,176,1,48,48,1093542824
8610,22,Ticks_Phase_8,177,5,42,127,1094294944
8610,22,Ticks_Phase_8,178,1,48,48,1094324504
8610,22,Ticks_Phase_8,179,5,42,127,1095014900
8610,22,Ticks_Phase_8,180,1,48,46,1095081144
8610,22,Ticks_Phase_8,181,5,42,127,1095814460
8610,22,Ticks_Phase_8,182,1,48,43,1095841240
8610,22,Ticks_Phase_8,183,5,42,127,1096615368
8610,22,Ticks_Phase_8,184,1,48,49,1096656232
8610,22,Ticks_Phase_8,185,5,42,127,1097415004
8610,22,Ticks_Phase_8,186,1,48,48,1097416640
8610,22,Ticks_Phase_8,187,5,42,127,1098214940
8610,22,Ticks_Phase_8,188,1,48,52,1098228048
8610,22,Ticks_Phase_8,189,5,42,127,1099014680
8610,22,Ticks_Phase_8,190,1,48,56,1099042056
8610,22,Ticks_Phase_8,191,5,42,127,1099815288
8610,22,Ticks_Phase_8,192,1,48,46,1099847540
8610,22,Ticks_Phase_8,193,1,48,44,1100535656
8610,22,Ticks_Phase_8,194,5,42,127,1100614920
8610,22,Ticks_Phase_8,195,1,48,48,1101372436
8610,22,Ticks_Phase_8,196,5,42,127,1101414780
8610,22,Ticks_Phase_8,197,1,48,42,1102202320
8610,22,Ticks_Phase_8,198,5,42,127,1102214788
8610,22,Ticks_Phase_8,199,1,48,55,1102987664
8610,22,Ticks_Phase_8,200,5,42,127,1103015248
8610,22,Ticks_Phase_8,201,1,48,55,1103746560
8610,22,Ticks_Phase_8,202,5,42,127,1103814960
8610,22,Ticks_Phase_8,203,5,42,127,1104614756
8610,22,Ticks_Phase_8,204,1,48,53,1104623720
8610,22,Ticks_Phase_8,205,5,42,127,1105414616
8610,22,Ticks_Phase_8,206,1,48,57,1105458920
8610,22,Ticks_Phase_8,207,5,42,127,1106215148
8610,22,Ticks_Phase_8,208,1,48,58,1106256832
8610,22,Ticks_Phase_8,209,5,42,127,1107015008
8610,22,Ticks_Phase_8,210,1,48,58,1107028388
8610,22,Ticks_Phase_8,211,5,42,127,1107814724
8610,22,Ticks_Phase_8,212,1,48,51,1107877304
8610,22,Ticks_Phase_8,213,1,48,53,1108643680
8610,22,Ticks_Phase_8,214,5,42,127,1108695456
8610,22,Ticks_Phase_8,215,5,42,127,1109495048
8610,22,Ticks_Phase_8,216,1,48,38,1109504540
8610,22,Ticks_Phase_8,217,5,42,127,1110294836
8610,22,Ticks_Phase_8,218,1,48,53,1110350976
8610,22,Ticks_Phase_8,219,1,48,52,1111041784
8610,22,Ticks_Phase_8,220,5,42,127,1111094764
8610,22,Ticks_Phase_8,221,1,48,49,1111871532
8610,22,Ticks_Phase_8,222,5,42,127,1111895524
8610,22,Ticks_Phase_8,223,1,48,57,1112675212
8610,22,Ticks_Phase_8,224,5,42,127,1112695088
8610,22,Ticks_Phase_8,225,1,48,46,1113477020
8610,22,Ticks_Phase_8,226,5,42,127,1113494948
8610,22,Ticks_Phase_8,227,1,48,46,1114254420
8610,22,Ticks_Phase_8,228,5,42,127,1114294660
8610,22,Ticks_Phase_8,229,1,48,51,1115088200
8610,22,Ticks_Phase_8,230,5,42,127,1115095420
8610,22,Ticks_Phase_8,231,5,42,127,1115895312
8610,22,Ticks_Phase_8,232,1,48,52,1115933784
8610,22,Ticks_Phase_8,233,5,42,127,1116694796
8610,22,Ticks_Phase_8,234,1,48,45,1116720828
8610,22,Ticks_Phase_8,235,1,48,48,1117477624
8610,22,Ticks_Phase_8,236,5,42,127,1117494580
8610,22,Ticks_Phase_8,237,1,48,43,1118274416
8610,22,Ticks_Phase_8,238,5,42,127,1118295488
8610,22,Ticks_Phase_8,239,5,42,127,1119095280
8610,22,Ticks_Phase_8,240,1,48,36,1119136896
8610,22,Ticks_Phase_8,241,5,42,127,1119894768
8610,22,Ticks_Phase_8,242,1,48,35,1119947020
8610,22,Ticks_Phase_8,243,5,42,127,1120694780
8610,22,Ticks_Phase_8,244,1,48,47,1120766596
8610,22,Ticks_Phase_8,245,5,42,127,1121495464
8610,22,Ticks_Phase_8,246,1,48,40,1121563244
8610,22,Ticks_Phase_8,247,1,48,46,1122382104
8610,22,Ticks_Phase_8,248,5,42,127,1122454780
8610,22,Ticks_Phase_8,249,5,42,127,1123254500
8610,22,Ticks_Phase_8,250,1,48,42,1123293200
8610,22,Ticks_Phase_8,251,5,42,127,1124055480
8610,22,Ticks_Phase_8,252,1,48,32,1124132996
8610,22,Ticks_Phase_8,253,5,42,127,1124855292
8610,22,Ticks_Phase_8,254,1,48,43,1124885900
8610,22,Ticks_Phase_8,255,1,48,50,1125650476
8610,22,Ticks_Phase_8,256,5,42,127,1125654848
8610,22,Ticks_Phase_8,257,1,48,42,1126454716
8610,22,Ticks_Phase_8,258,5,42,127,1126456200
8610,22,Ticks_Phase_8,259,1,48,46,1127234172
8610,22,Ticks_Phase_8,260,5,42,127,1127255392
8610,22,Ticks_Phase_8,261,1,48,32,1127999512
8610,22,Ticks_Phase_8,262,5,42,127,1128055104
8610,22,Ticks_Phase_8,263,1,48,44,1128843856
8610,22,Ticks_Phase_8,264,5,42,127,1128854968
8610,22,Ticks_Phase_8,265,1,48,49,1129650452
8610,22,Ticks_Phase_8,266,5,42,127,1129654680
8610,22,Ticks_Phase_8,267,1,48,53,1130437664
8610,22,Ticks_Phase_8,268,5,42,127,1130455364
8610,22,Ticks_Phase_8,269,5,42,127,1131255332
8610,22,Ticks_Phase_8,270,1,48,39,1131327580
8610,22,Ticks_Phase_8,271,5,42,127,1132054820
8610,22,Ticks_Phase_8,272,1,48,46,1132192356
8610,22,Ticks_Phase_8,273,5,42,127,1132854756
8610,22,Ticks_Phase_8,274,1,48,49,1132923484
8610,22,Ticks_Phase_8,275,1,48,59,1133637884
8610,22,Ticks_Phase_8,276,5,42,127,1133655360
8610,22,Ticks_Phase_8,277,1,48,53,1134356568
8610,22,Ticks_Phase_8,278,5,42,127,1134455280
8610,22,Ticks_Phase_8,279,1,48,54,1135177844
8610,22,Ticks_Phase_8,280,5,42,127,1135254784
8610,22,Ticks_Phase_8,281,1,48,48,1136019716
8610,22,Ticks_Phase_8,282,5,42,127,1136054716
8610,22,Ticks_Phase_8,283,1,48,56,1136774048
8610,22,Ticks_Phase_8,284,5,42,127,1136855480
8610,22,Ticks_Phase_8,285,5,42,127,1137495388
8610,22,Ticks_Phase_8,286,1,48,51,1137609340
8610,22,Ticks_Phase_8,287,5,42,127,1138295400
8610,22,Ticks_Phase_8,288,1,48,39,1138378720
8610,22,Ticks_Phase_8,289,5,42,127,1139095108
8610,22,Ticks_Phase_8,290,1,48,51,1139132688
8610,22,Ticks_Phase_8,291,1,48,39,1139876588
8610,22,Ticks_Phase_8,292,5,42,127,1139894516
8610,22,Ticks_Phase_8,293,1,48,40,1140656308
8610,22,Ticks_Phase_8,294,5,42,127,1140695348
8610,22,Ticks_Phase_8,295,1,48,39,1141454076
8610,22,Ticks_Phase_8,296,5,42,127,1141495312
8610,22,Ticks_Phase_8,297,1,48,38,1142201056
8610,22,Ticks_Phase_8,298,5,42,127,1142294860
8610,22,Ticks_Phase_8,299,1,48,58,1143017396
8610,22,Ticks_Phase_8,300,5,42,127,1143094584
8610,22,Ticks_Phase_8,301,1,48,54,1143799456
8610,22,Ticks_Phase_8,302,5,42,127,1143896152
8610,22,Ticks_Phase_8,303,1,48,52,1144583000
8610,22,Ticks_Phase_8,304,5,42,127,1144695116
8610,22,Ticks_Phase_8,305,1,48,41,1145359416
8610,22,Ticks_Phase_8,306,5,42,127,1145494828
8610,22,Ticks_Phase_8,307,1,48,51,1146205336
8610,22,Ticks_Phase_8,308,5,42,127,1146294628
8610,22,Ticks_Phase_8,309,5,42,127,1147095320
8610,22,Ticks_Phase_8,310,1,48,54,1147120180
8610,22,Ticks_Phase_8,311,5,42,127,1147895056
8610,22,Ticks_Phase_8,312,1,48,56,1147944832
8610,22,Ticks_Phase_8,313,5,42,127,1148694992
8610,22,Ticks_Phase_8,314,1,48,50,1148800484
8610,22,Ticks_Phase_8,315,5,42,127,1149494632
8610,22,Ticks_Phase_8,316,1,48,49,1149601240
8610,22,Ticks_Phase_8,317,5,42,127,1150295540
8610,22,Ticks_Phase_8,318,1,48,35,1150396088
8610,22,Ticks_Phase_8,319,5,42,127,1151095176
8610,22,Ticks_Phase_8,320,1,48,47,1151119112
8610,22,Ticks_Phase_8,321,1,48,46,1151855312
8610,22,Ticks_Phase_8,322,5,42,127,1151895028
8610,22,Ticks_Phase_8,323,5,42,127,1152694672
8610,22,Ticks_Phase_8,324,1,48,45,1152698316
8610,22,Ticks_Phase_8,0,9999,9999,9999,1017482304
8610,22,Ticks_Phase_8,1,9999,9999,9999,1018283088
8610,22,Ticks_Phase_8,2,9999,9999,9999,1019093080
8610,22,Ticks_Phase_8,3,9999,9999,9999,1019892840
8610,22,Ticks_Phase_8,4,9999,9999,9999,1020692572
8610,22,Ticks_Phase_8,5,9999,9999,9999,1021492304
8610,22,Ticks_Phase_8,6,9999,9999,9999,1022293084
8610,22,Ticks_Phase_8,7,9999,9999,9999,1023092820
8610,22,Ticks_Phase_8,8,9999,9999,9999,1023892552
8610,22,Ticks_Phase_8,9,9999,9999,9999,1024692288
8610,22,Ticks_Phase_8,10,9999,9999,9999,1025493068
8610,22,Ticks_Phase_8,11,9999,9999,9999,1026292824
8610,22,Ticks_Phase_8,12,9999,9999,9999,1027092560
8610,22,Ticks_Phase_8,13,9999,9999,9999,1027892292
8610,22,Ticks_Phase_8,14,9999,9999,9999,1028693044
8610,22,Ticks_Phase_8,15,9999,9999,9999,1029492832
8610,22,Ticks_Phase_8,16,9999,9999,9999,1030292552
8610,22,Ticks_Phase_8,17,9999,9999,9999,1031092336
8610,22,Ticks_Phase_8,18,9999,9999,9999,1031893088
8610,22,Ticks_Phase_8,19,9999,9999,9999,1032692824
8610,22,Ticks_Phase_8,20,9999,9999,9999,1033492544
8610,22,Ticks_Phase_8,21,9999,9999,9999,1034292332
8610,22,Ticks_Phase_8,22,9999,9999,9999,1035093068
8610,22,Ticks_Phase_8,23,9999,9999,9999,1035892856
8610,22,Ticks_Phase_8,24,9999,9999,9999,1036692588
8610,22,Ticks_Phase_8,25,9999,9999,9999,1037492300
8610,22,Ticks_Phase_8,26,9999,9999,9999,1038293060
8610,22,Ticks_Phase_8,27,9999,9999,9999,1039092796
8610,22,Ticks_Phase_8,28,9999,9999,9999,1039892580
8610,22,Ticks_Phase_8,29,9999,9999,9999,1040692288
8610,22,Ticks_Phase_8,30,9999,9999,9999,1041472608
8610,22,Ticks_Phase_8,31,9999,9999,9999,1042272372
8610,22,Ticks_Phase_8,32,9999,9999,9999,1043072100
8610,22,Ticks_Phase_8,33,9999,9999,9999,1043872860
8610,22,Ticks_Phase_8,34,9999,9999,9999,1044672576
8610,22,Ticks_Phase_8,35,9999,9999,9999,1045472364
8610,22,Ticks_Phase_8,36,9999,9999,9999,1046272092
8610,22,Ticks_Phase_8,37,9999,9999,9999,1047072852
8610,22,Ticks_Phase_8,38,9999,9999,9999,1047872636
8610,22,Ticks_Phase_8,39,9999,9999,9999,1048672352
8610,22,Ticks_Phase_8,40,9999,9999,9999,1049472068
8610,22,Ticks_Phase_8,41,9999,9999,9999,1050272892
8610,22,Ticks_Phase_8,42,9999,9999,9999,1051072604
8610,22,Ticks_Phase_8,43,9999,9999,9999,1051872316
8610,22,Ticks_Phase_8,44,9999,9999,9999,1052672060
8610,22,Ticks_Phase_8,45,9999,9999,9999,1053472892
8610,22,Ticks_Phase_8,46,9999,9999,9999,1054272604
8610,22,Ticks_Phase_8,47,9999,9999,9999,1055072312
8610,22,Ticks_Phase_8,48,9999,9999,9999,1055892568
8610,22,Ticks_Phase_8,49,9999,9999,9999,1056692300
8610,22,Ticks_Phase_8,50,9999,9999,9999,1057493060
8610,22,Ticks_Phase_8,51,9999,9999,9999,1058292796
8610,22,Ticks_Phase_8,52,9999,9999,9999,1059092580
8610,22,Ticks_Phase_8,53,9999,9999,9999,1059892288
8610,22,Ticks_Phase_8,54,9999,9999,9999,1060693052
8610,22,Ticks_Phase_8,55,9999,9999,9999,1061492832
8610,22,Ticks_Phase_8,56,9999,9999,9999,1062292544
8610,22,Ticks_Phase_8,57,9999,9999,9999,1063092332
8610,22,Ticks_Phase_8,58,9999,9999,9999,1063893088
8610,22,Ticks_Phase_8,59,9999,9999,9999,1064692824
8610,22,Ticks_Phase_8,60,9999,9999,9999,1065492536
8610,22,Ticks_Phase_8,61,9999,9999,9999,1066292324
8610,22,Ticks_Phase_8,62,9999,9999,9999,1067093064
8610,22,Ticks_Phase_8,63,9999,9999,9999,1067892792
8610,22,Ticks_Phase_8,64,9999,9999,9999,1068732492
8610,22,Ticks_Phase_8,65,9999,9999,9999,1069532212
8610,22,Ticks_Phase_8,66,9999,9999,9999,1070332992
8610,22,Ticks_Phase_8,67,9999,9999,9999,1071132784
8610,22,Ticks_Phase_8,68,9999,9999,9999,1071932496
8610,22,Ticks_Phase_8,69,9999,9999,9999,1072732272
8610,22,Ticks_Phase_8,70,9999,9999,9999,1073533040
8610,22,Ticks_Phase_8,71,9999,9999,9999,1074332752
8610,22,Ticks_Phase_8,72,9999,9999,9999,1075132536
8610,22,Ticks_Phase_8,73,9999,9999,9999,1075932248
8610,22,Ticks_Phase_8,74,9999,9999,9999,1076733024
8610,22,Ticks_Phase_8,75,9999,9999,9999,1077532736
8610,22,Ticks_Phase_8,76,9999,9999,9999,1078332528
8610,22,Ticks_Phase_8,77,9999,9999,9999,1079132232
8610,22,Ticks_Phase_8,78,9999,9999,9999,1079932992
8610,22,Ticks_Phase_8,79,9999,9999,9999,1080732780
8610,22,Ticks_Phase_8,80,9999,9999,9999,1081532564
8610,22,Ticks_Phase_8,81,9999,9999,9999,1082292296
8610,22,Ticks_Phase_8,82,9999,9999,9999,1083093052
8610,22,Ticks_Phase_8,83,9999,9999,9999,1083892860
8610,22,Ticks_Phase_8,84,9999,9999,9999,1084692556
8610,22,Ticks_Phase_8,85,9999,9999,9999,1085492344
8610,22,Ticks_Phase_8,86,9999,9999,9999,1086293048
8610,22,Ticks_Phase_8,87,9999,9999,9999,1087092836
8610,22,Ticks_Phase_8,88,9999,9999,9999,1087892548
8610,22,Ticks_Phase_8,89,9999,9999,9999,1088692336
8610,22,Ticks_Phase_8,90,9999,9999,9999,1089493092
8610,22,Ticks_Phase_8,91,9999,9999,9999,1090292824
8610,22,Ticks_Phase_8,92,9999,9999,9999,1091092540
8610,22,Ticks_Phase_8,93,9999,9999,9999,1091892324
8610,22,Ticks_Phase_8,94,9999,9999,9999,1092693084
8610,22,Ticks_Phase_8,95,9999,9999,9999,1093492796
8610,22,Ticks_Phase_8,96,9999,9999,9999,1094292580
8610,22,Ticks_Phase_8,97,9999,9999,9999,1095012460
8610,22,Ticks_Phase_8,98,9999,9999,9999,1095812176
8610,22,Ticks_Phase_8,99,9999,9999,9999,1096612932
8610,22,Ticks_Phase_8,100,9999,9999,9999,1097412720
8610,22,Ticks_Phase_8,101,9999,9999,9999,1098212432
8610,22,Ticks_Phase_8,102,9999,9999,9999,1099012168
8610,22,Ticks_Phase_8,103,9999,9999,9999,1099812928
8610,22,Ticks_Phase_8,104,9999,9999,9999,1100612708
8610,22,Ticks_Phase_8,105,9999,9999,9999,1101412420
8610,22,Ticks_Phase_8,106,9999,9999,9999,1102212204
8610,22,Ticks_Phase_8,107,9999,9999,9999,1103012960
8610,22,Ticks_Phase_8,108,9999,9999,9999,1103812672
8610,22,Ticks_Phase_8,109,9999,9999,9999,1104612468
8610,22,Ticks_Phase_8,110,9999,9999,9999,1105412180
8610,22,Ticks_Phase_8,111,9999,9999,9999,1106212936
8610,22,Ticks_Phase_8,112,9999,9999,9999,1107012724
8610,22,Ticks_Phase_8,113,9999,9999,9999,1107812436
8610,22,Ticks_Phase_8,114,9999,9999,9999,1108693092
8610,22,Ticks_Phase_8,115,9999,9999,9999,1109492836
8610,22,Ticks_Phase_8,116,9999,9999,9999,1110292552
8610,22,Ticks_Phase_8,117,9999,9999,9999,1111092332
8610,22,Ticks_Phase_8,118,9999,9999,9999,1111893088
8610,22,Ticks_Phase_8,119,9999,9999,9999,1112692800
8610,22,Ticks_Phase_8,120,9999,9999,9999,1113492588
8610,22,Ticks_Phase_8,121,9999,9999,9999,1114292300
8610,22,Ticks_Phase_8,122,9999,9999,9999,1115093056
8610,22,Ticks_Phase_8,123,9999,9999,9999,1115892800
8610,22,Ticks_Phase_8,124,9999,9999,9999,1116692584
8610,22,Ticks_Phase_8,125,9999,9999,9999,1117492292
8610,22,Ticks_Phase_8,126,9999,9999,9999,1118293052
8610,22,Ticks_Phase_8,127,9999,9999,9999,1119092844
8610,22,Ticks_Phase_8,128,9999,9999,9999,1119892556
8610,22,Ticks_Phase_8,129,9999,9999,9999,1120692344
8610,22,Ticks_Phase_8,130,9999,9999,9999,1121493104
8610,22,Ticks_Phase_8,131,9999,9999,9999,1122452568
8610,22,Ticks_Phase_8,132,9999,9999,9999,1123252288
8610,22,Ticks_Phase_8,133,9999,9999,9999,1124053044
8610,22,Ticks_Phase_8,134,9999,9999,9999,1124852856
8610,22,Ticks_Phase_8,135,9999,9999,9999,1125652564
8610,22,Ticks_Phase_8,136,9999,9999,9999,1126452280
8610,22,Ticks_Phase_8,137,9999,9999,9999,1127253108
8610,22,Ticks_Phase_8,138,9999,9999,9999,1128052820
8610,22,Ticks_Phase_8,139,9999,9999,9999,1128852604
8610,22,Ticks_Phase_8,140,9999,9999,9999,1129652320
8610,22,Ticks_Phase_8,141,9999,9999,9999,1130453076
8610,22,Ticks_Phase_8,142,9999,9999,9999,1131252824
8610,22,Ticks_Phase_8,143,9999,9999,9999,1132052532
8610,22,Ticks_Phase_8,144,9999,9999,9999,1132852320
8610,22,Ticks_Phase_8,145,9999,9999,9999,1133653072
8610,22,Ticks_Phase_8,146,9999,9999,9999,1134452860
8610,22,Ticks_Phase_8,147,9999,9999,9999,1135252572
8610,22,Ticks_Phase_8,148,9999,9999,9999,1136052284
8610,22,Ticks_Phase_8,149,9999,9999,9999,1136853116
8610,22,Ticks_Phase_8,150,9999,9999,9999,1137493100
8610,22,Ticks_Phase_8,151,9999,9999,9999,1138292816
8610,22,Ticks_Phase_8,152,9999,9999,9999,1139092600
8610,22,Ticks_Phase_8,153,9999,9999,9999,1139892304
8610,22,Ticks_Phase_8,154,9999,9999,9999,1140693060
8610,22,Ticks_Phase_8,155,9999,9999,9999,1141492800
8610,22,Ticks_Phase_8,156,9999,9999,9999,1142292572
8610,22,Ticks_Phase_8,157,9999,9999,9999,1143092300
8610,22,Ticks_Phase_8,158,9999,9999,9999,1143893056
8610,22,Ticks_Phase_8,159,9999,9999,9999,1144692828
8610,22,Ticks_Phase_8,160,9999,9999,9999,1145492540
8610,22,Ticks_Phase_8,161,9999,9999,9999,1146292344
8610,22,Ticks_Phase_8,162,9999,9999,9999,1147093108
8610,22,Ticks_Phase_8,163,9999,9999,9999,1147892844
8610,22,Ticks_Phase_8,164,9999,9999,9999,1148692556
8610,22,Ticks_Phase_8,165,9999,9999,9999,1149492344
8610,22,Ticks_Phase_8,166,9999,9999,9999,1150293104
8610,22,Ticks_Phase_8,167,9999,9999,9999,1151092812
8610,22,Ticks_Phase_8,168,9999,9999,9999,1151892596
8610,22,Ticks_Phase_8,169,9999,9999,9999,1152692312
8611,25,Jits_Pract_5,0,5,56,103,1200207400
8611,25,Jits_Pract_5,1,5,63,98,1200210572
8611,25,Jits_Pract_5,2,5,80,127,1200213692
8611,25,Jits_Pract_5,0,5,56,103,1200706900
8611,25,Jits_Pract_5,1,5,63,98,1200710372
8611,25,Jits_Pract_5,2,5,80,127,1200713488
8611,25,Jits_Pract_5,0,5,56,103,1201206640
8611,25,Jits_Pract_5,1,5,80,127,1201216836
8611,25,Jits_Pract_5,2,5,63,98,1201237296
8611,25,Jits_Pract_5,0,5,63,98,1201657456
8611,25,Jits_Pract_5,1,5,80,127,1201686984
8611,25,Jits_Pract_5,2,5,56,103,1201697328
8611,25,Jits_Pract_5,0,5,80,127,1202217420
8611,25,Jits_Pract_5,1,5,56,103,1202226500
8611,25,Jits_Pract_5,2,5,63,98,1202257296
8611,25,Jits_Pract_5,0,5,63,98,1202706832
8611,25,Jits_Pract_5,1,5,56,103,1202736360
8611,25,Jits_Pract_5,2,5,80,127,1202746852
8611,25,Jits_Pract_5,0,5,56,103,1203157388
8611,25,Jits_Pract_5,1,5,63,98,1203206496
8611,25,Jits_Pract_5,2,5,80,127,1203226956
8611,25,Jits_Pract_5,0,5,80,127,1203657284
8611,25,Jits_Pract_5,1,5,63,98,1203707436
8611,25,Jits_Pract_5,2,5,56,103,1203747372
8611,25,Jits_Pract_5,0,5,56,103,1204156876
8611,25,Jits_Pract_5,1,5,63,98,1204186480
8611,25,Jits_Pract_5,2,5,80,127,1204257156
8611,25,Jits_Pract_5,0,5,56,103,1204656540
8611,25,Jits_Pract_5,1,5,80,127,1204716956
8611,25,Jits_Pract_5,2,5,63,98,1204746556
8611,25,Jits_Pract_5,0,5,56,103,1205166324
8611,25,Jits_Pract_5,1,5,63,98,1205176820
8611,25,Jits_Pract_5,2,5,80,127,1205216536
8611,25,Jits_Pract_5,0,5,63,98,1205657372
8611,25,Jits_Pract_5,1,5,80,127,1205736796
8611,25,Jits_Pract_5,2,5,56,103,1205747140
8611,25,Jits_Pract_5,0,5,63,98,1206206756
8611,25,Jits_Pract_5,1,5,56,103,1206246696
8611,25,Jits_Pract_5,2,5,80,127,1206249684
8611,25,Jits_Pract_5,0,5,56,103,1206666620
8611,25,Jits_Pract_5,1,5,63,98,1206676964
8611,25,Jits_Pract_5,2,5,80,127,1206716680
8611,25,Jits_Pract_5,0,5,56,103,1207167332
8611,25,Jits_Pract_5,1,5,63,98,1207170544
8611,25,Jits_Pract_5,2,5,80,127,1207186740
8611,25,Jits_Pract_5,0,9999,9999,9999,1200454760
8611,25,Jits_Pract_5,1,9999,9999,9999,1200954484
8611,25,Jits_Pract_5,2,9999,9999,9999,1201454156
8611,25,Jits_Pract_5,3,9999,9999,9999,1201954868
8611,25,Jits_Pract_5,4,9999,9999,9999,1202454600
8611,25,Jits_Pract_5,5,9999,9999,9999,1202954348
8611,25,Jits_Pract_5,6,9999,9999,9999,1203455048
8611,25,Jits_Pract_5,7,9999,9999,9999,1203954796
8611,25,Jits_Pract_5,8,9999,9999,9999,1204454512
8611,25,Jits_Pract_5,9,9999,9999,9999,1204954176
8611,25,Jits_Pract_5,10,9999,9999,9999,1205454964
8611,25,Jits_Pract_5,11,9999,9999,9999,1205954612
8611,25,Jits_Pract_5,12,9999,9999,9999,1206454336
8611,25,Jits_Pract_5,13,9999,9999,9999,1206955112
8611,25,Jits_Pract_5,14,9999,9999,9999,1207465028
8612,25,Jits_Pract_5,0,5,56,103,1262587528
8612,25,Jits_Pract_5,1,5,63,98,1262590700
8612,25,Jits_Pract_5,2,5,80,127,1262593672
8612,25,Jits_Pract_5,0,5,56,103,1263086880
8612,25,Jits_Pract_5,1,5,63,98,1263089976
8612,25,Jits_Pract_5,2,5,80,127,1263093100
8612,25,Jits_Pract_5,0,5,56,103,1263586672
8612,25,Jits_Pract_5,1,5,80,127,1263596892
8612,25,Jits_Pract_5,2,5,63,98,1263617576
8612,25,Jits_Pract_5,0,5,63,98,1264037416
8612,25,Jits_Pract_5,1,5,80,127,1264066868
8612,25,Jits_Pract_5,2,5,56,103,1264077436
8612,25,Jits_Pract_5,0,5,80,127,1264597304
8612,25,Jits_Pract_5,1,5,56,103,1264606528
8612,25,Jits_Pract_5,2,5,63,98,1264637496
8612,25,Jits_Pract_5,3,1,38,23,1264638908
8612,25,Jits_Pract_5,0,5,63,98,1265086900
8612,25,Jits_Pract_5,1,5,56,103,1265116500
8612,25,Jits_Pract_5,2,5,80,127,1265126696
8612,25,Jits_Pract_5,3,1,38,21,1265149392
8612,25,Jits_Pract_5,0,5,56,103,1265537292
8612,25,Jits_Pract_5,1,5,63,98,1265586524
8612,25,Jits_Pract_5,2,1,38,23,1265594820
8612,25,Jits_Pract_5,3,5,80,127,1265607124
8612,25,Jits_Pract_5,0,5,80,127,1266047336
8612,25,Jits_Pract_5,1,1,38,25,1266052176
8612,25,Jits_Pract_5,2,5,63,98,1266096636
8612,25,Jits_Pract_5,3,5,56,103,1266136424
8612,25,Jits_Pract_5,0,5,56,103,1266547192
8612,25,Jits_Pract_5,1,5,63,98,1266576792
8612,25,Jits_Pract_5,2,1,38,32,1266606364
8612,25,Jits_Pract_5,3,5,80,127,1266647512
8612,25,Jits_Pract_5,0,5,56,103,1267046676
8612,25,Jits_Pract_5,1,5,80,127,1267107364
8612,25,Jits_Pract_5,2,1,38,27,1267115288
8612,25,Jits_Pract_5,3,5,63,98,1267136736
8612,25,Jits_Pract_5,0,5,56,103,1267556576
8612,25,Jits_Pract_5,1,5,63,98,1267567068
8612,25,Jits_Pract_5,2,1,38,31,1267597540
8612,25,Jits_Pract_5,3,5,80,127,1267607000
8612,25,Jits_Pract_5,0,5,63,98,1268047284
8612,25,Jits_Pract_5,1,1,38,24,1268077452
8612,25,Jits_Pract_5,2,5,80,127,1268127152
8612,25,Jits_Pract_5,3,5,56,103,1268137196
8612,25,Jits_Pract_5,0,1,38,26,1268577816
8612,25,Jits_Pract_5,1,5,63,98,1268597396
8612,25,Jits_Pract_5,2,5,56,103,1268637184
8612,25,Jits_Pract_5,3,5,80,127,1268640176
8612,25,Jits_Pract_5,0,5,56,103,1269056860
8612,25,Jits_Pract_5,1,5,63,98,1269067204
8612,25,Jits_Pract_5,2,1,38,38,1269102612
8612,25,Jits_Pract_5,3,5,80,127,1269106988
8612,25,Jits_Pract_5,0,1,38,29,1269543112
8612,25,Jits_Pract_5,1,5,56,103,1269547412
8612,25,Jits_Pract_5,2,5,63,98,1269550624
8612,25,Jits_Pract_5,3,5,80,127,1269566824
8612,25,Jits_Pract_5,0,9999,9999,9999,1262834740
8612,25,Jits_Pract_5,1,9999,9999,9999,1263334516
8612,25,Jits_Pract_5,2,9999,9999,9999,1263834188
8612,25,Jits_Pract_5,3,9999,9999,9999,1264334900
8612,25,Jits_Pract_5,4,9999,9999,9999,1264834684
8612,25,Jits_Pract_5,5,9999,9999,9999,1265334392
8612,25,Jits_Pract_5,6,9999,9999,9999,1265835132
8612,25,Jits_Pract_5,7,9999,9999,9999,1266345024
8612,25,Jits_Pract_5,8,9999,9999,9999,1266844732
8612,25,Jits_Pract_5,9,9999,9999,9999,1267344440
8612,25,Jits_Pract_5,10,9999,9999,9999,1267844148
8612,25,Jits_Pract_5,11,9999,9999,9999,1268344904
8612,25,Jits_Pract_5,12,9999,9999,9999,1268844664
8612,25,Jits_Pract_5,13,9999,9999,9999,1269344356
8612,25,Jits_Pract_5,14,9999,9999,9999,1269845092
8613,24,Jits_Pract_8,0,5,56,103,1278681436
8613,24,Jits_Pract_8,1,5,63,98,1278684684
8613,24,Jits_Pract_8,2,5,80,127,1278687728
8613,24,Jits_Pract_8,0,5,56,103,1279482224
8613,24,Jits_Pract_8,1,5,63,98,1279485472
8613,24,Jits_Pract_8,2,5,80,127,1279488520
8613,24,Jits_Pract_8,0,5,80,127,1280221544
8613,24,Jits_Pract_8,1,5,63,98,1280311780
8613,24,Jits_Pract_8,2,5,56,103,1280322124
8613,24,Jits_Pract_8,0,5,56,103,1281042052
8613,24,Jits_Pract_8,1,5,63,98,1281052176
8613,24,Jits_Pract_8,2,5,80,127,1281142080
8613,24,Jits_Pract_8,0,5,63,98,1281811968
8613,24,Jits_Pract_8,1,5,80,127,1281841568
8613,24,Jits_Pract_8,2,5,56,103,1281872364
8613,24,Jits_Pract_8,3,1,38,38,1281889340
8613,24,Jits_Pract_8,0,1,48,29,1282571152
8613,24,Jits_Pract_8,1,5,56,103,1282611708
8613,24,Jits_Pract_8,2,5,80,127,1282711944
8613,24,Jits_Pract_8,3,5,63,98,1282762220
8613,24,Jits_Pract_8,0,5,56,103,1283412444
8613,24,Jits_Pract_8,1,1,38,24,1283453700
8613,24,Jits_Pract_8,2,5,80,127,1283461520
8613,24,Jits_Pract_8,3,5,63,98,1283501456
8613,24,Jits_Pract_8,0,1,38,25,1284167516
8613,24,Jits_Pract_8,1,5,80,127,1284241724
8613,24,Jits_Pract_8,2,5,63,98,1284271388
8613,24,Jits_Pract_8,3,5,56,103,1284342064
8613,24,Jits_Pract_8,0,1,38,32,1285051124
8613,24,Jits_Pract_8,1,5,63,98,1285072124
8613,24,Jits_Pract_8,2,5,56,103,1285102196
8613,24,Jits_Pract_8,3,5,80,127,1285162424
8613,24,Jits_Pract_8,0,5,56,103,1285811504
8613,24,Jits_Pract_8,1,5,80,127,1285814572
8613,24,Jits_Pract_8,2,1,38,36,1285880056
8613,24,Jits_Pract_8,3,5,63,98,1285932292
8613,24,Jits_Pract_8,0,1,38,43,1286621792
8613,24,Jits_Pract_8,1,5,56,103,1286692192
8613,24,Jits_Pract_8,2,5,80,127,1286732116
8613,24,Jits_Pract_8,3,5,63,98,1286742240
8613,24,Jits_Pract_8,0,5,56,103,1287451952
8613,24,Jits_Pract_8,1,5,80,127,1287471440
8613,24,Jits_Pract_8,2,1,38,39,1287477852
8613,24,Jits_Pract_8,3,5,63,98,1287552276
8613,24,Jits_Pract_8,0,5,80,127,1288241464
8613,24,Jits_Pract_8,1,1,38,38,1288292984
8613,24,Jits_Pract_8,2,5,56,103,1288342004
8613,24,Jits_Pract_8,3,5,63,98,1288352128
8613,24,Jits_Pract_8,0,5,63,98,1289011568
8613,24,Jits_Pract_8,1,5,80,127,1289072108
8613,24,Jits_Pract_8,2,5,56,103,1289082156
8613,24,Jits_Pract_8,3,1,38,38,1289130156
8613,24,Jits_Pract_8,0,5,56,103,1289812368
8613,24,Jits_Pract_8,1,5,63,98,1289882120
8613,24,Jits_Pract_8,2,5,80,127,1289885336
8613,24,Jits_Pract_8,3,1,38,39,1289890716
8613,24,Jits_Pract_8,0,9999,9999,9999,1279079540
8613,24,Jits_Pract_8,1,9999,9999,9999,1279879256
8613,24,Jits_Pract_8,2,9999,9999,9999,1280680040
8613,24,Jits_Pract_8,3,9999,9999,9999,1281479772
8613,24,Jits_Pract_8,4,9999,9999,9999,1282279504
8613,24,Jits_Pract_8,5,9999,9999,9999,1283079260
8613,24,Jits_Pract_8,6,9999,9999,9999,1283880056
8613,24,Jits_Pract_8,7,9999,9999,9999,1284679752
8613,24,Jits_Pract_8,8,9999,9999,9999,1285479512
8613,24,Jits_Pract_8,9,9999,9999,9999,1286279256
8613,24,Jits_Pract_8,10,9999,9999,9999,1287080004
8613,24,Jits_Pract_8,11,9999,9999,9999,1287879760
8613,24,Jits_Pract_8,12,9999,9999,9999,1288679488
8613,24,Jits_Pract_8,13,9999,9999,9999,1289479256
8613,24,Jits_Pract_8,14,9999,9999,9999,1290280044
8615,16,Jits_ISO_5,0,5,56,103,1435587976
8615,16,Jits_ISO_5,1,5,63,98,1435591152
8615,16,Jits_ISO_5,2,5,80,127,1435594048
8615,16,Jits_ISO_5,0,5,56,103,1436087768
8615,16,Jits_ISO_5,1,5,63,98,1436090788
8615,16,Jits_ISO_5,2,5,80,127,1436093912
8615,16,Jits_ISO_5,0,5,56,103,1436588328
8615,16,Jits_ISO_5,1,5,80,127,1436597776
8615,16,Jits_ISO_5,2,5,63,98,1436618012
8615,16,Jits_ISO_5,0,5,63,98,1437038024
8615,16,Jits_ISO_5,1,5,80,127,1437067772
8615,16,Jits_ISO_5,2,5,56,103,1437077820
8615,16,Jits_ISO_5,0,5,80,127,1437598128
8615,16,Jits_ISO_5,1,5,56,103,1437608472
8615,16,Jits_ISO_5,2,5,63,98,1437637996
8615,16,Jits_ISO_5,3,1,48,27,1437667592
8615,16,Jits_ISO_5,0,5,63,98,1438087692
8615,16,Jits_ISO_5,1,5,56,103,1438118188
8615,16,Jits_ISO_5,2,5,80,127,1438127636
8615,16,Jits_ISO_5,3,1,48,40,1438151204
8615,16,Jits_ISO_5,0,5,56,103,1438548392
8615,16,Jits_ISO_5,1,5,63,98,1438597844
8615,16,Jits_ISO_5,2,5,80,127,1438617856
8615,16,Jits_ISO_5,3,1,48,50,1438640072
8615,16,Jits_ISO_5,0,5,80,127,1439048136
8615,16,Jits_ISO_5,1,1,48,43,1439063168
8615,16,Jits_ISO_5,2,5,63,98,1439098184
8615,16,Jits_ISO_5,3,5,56,103,1439138044
8615,16,Jits_ISO_5,0,5,56,103,1439547960
8615,16,Jits_ISO_5,1,5,63,98,1439577336
8615,16,Jits_ISO_5,2,1,48,47,1439639484
8615,16,Jits_ISO_5,3,5,80,127,1439648052
8615,16,Jits_ISO_5,0,5,56,103,1440047780
8615,16,Jits_ISO_5,1,1,48,46,1440066792
8615,16,Jits_ISO_5,2,5,80,127,1440107940
8615,16,Jits_ISO_5,3,5,63,98,1440137764
8615,16,Jits_ISO_5,0,5,56,103,1440557644
8615,16,Jits_ISO_5,1,5,63,98,1440567764
8615,16,Jits_ISO_5,2,5,80,127,1440607848
8615,16,Jits_ISO_5,3,1,48,42,1440620480
8615,16,Jits_ISO_5,0,5,63,98,1441047876
8615,16,Jits_ISO_5,1,1,48,48,1441096620
8615,16,Jits_ISO_5,2,5,80,127,1441127736
8615,16,Jits_ISO_5,3,5,56,103,1441138008
8615,16,Jits_ISO_5,0,5,63,98,1441597804
8615,16,Jits_ISO_5,1,1,48,36,1441618984
8615,16,Jits_ISO_5,2,5,56,103,1441637736
8615,16,Jits_ISO_5,3,5,80,127,1441640800
8615,16,Jits_ISO_5,0,5,56,103,1442057824
8615,16,Jits_ISO_5,1,5,63,98,1442067796
8615,16,Jits_ISO_5,2,5,80,127,1442107956
8615,16,Jits_ISO_5,3,1,48,40,1442151824
8615,16,Jits_ISO_5,0,5,56,103,1442548052
8615,16,Jits_ISO_5,1,5,63,98,1442551044
8615,16,Jits_ISO_5,2,5,80,127,1442567612
8615,16,Jits_ISO_5,3,1,48,48,1442643536
8615,16,Jits_ISO_5,0,5,80,127,1443057972
8615,16,Jits_ISO_5,1,5,56,103,1443068244
8615,16,Jits_ISO_5,2,1,48,46,1443125684
8615,16,Jits_ISO_5,3,5,63,98,1443137764
8615,16,Jits_ISO_5,0,5,63,98,1443547952
8615,16,Jits_ISO_5,1,5,56,103,1443567840
8615,16,Jits_ISO_5,2,1,48,34,1443631116
8615,16,Jits_ISO_5,3,5,80,127,1443647924
8615,16,Jits_ISO_5,0,5,56,103,1444057724
8615,16,Jits_ISO_5,1,5,80,127,1444098364
8615,16,Jits_ISO_5,2,5,63,98,1444107808
8615,16,Jits_ISO_5,3,1,48,31,1444132792
8615,16,Jits_ISO_5,0,5,80,127,1444547880
8615,16,Jits_ISO_5,1,5,63,98,1444577580
8615,16,Jits_ISO_5,2,1,48,39,1444584960
8615,16,Jits_ISO_5,3,5,56,103,1444617884
8615,16,Jits_ISO_5,0,5,56,103,1445068228
8615,16,Jits_ISO_5,1,5,63,98,1445097928
8615,16,Jits_ISO_5,2,1,48,28,1445118060
8615,16,Jits_ISO_5,3,5,80,127,1445148044
8615,16,Jits_ISO_5,0,5,80,127,1445567976
8615,16,Jits_ISO_5,1,5,56,103,1445607864
8615,16,Jits_ISO_5,2,5,63,98,1445617988
8615,16,Jits_ISO_5,3,1,48,30,1445623348
8615,16,Jits_ISO_5,0,5,80,127,1446058284
8615,16,Jits_ISO_5,1,5,63,98,1446098444
8615,16,Jits_ISO_5,2,1,48,46,1446113268
8615,16,Jits_ISO_5,3,5,56,103,1446157580
8615,16,Jits_ISO_5,0,5,56,103,1446557956
8615,16,Jits_ISO_5,1,5,80,127,1446568448
8615,16,Jits_ISO_5,2,5,63,98,1446648336
8615,16,Jits_ISO_5,3,1,48,46,1446650500
8615,16,Jits_ISO_5,0,5,80,127,1447057848
8615,16,Jits_ISO_5,1,5,63,98,1447118164
8615,16,Jits_ISO_5,2,5,56,103,1447147788
8615,16,Jits_ISO_5,3,1,48,27,1447183036
8615,16,Jits_ISO_5,0,5,56,103,1447557668
8615,16,Jits_ISO_5,1,5,80,127,1447617836
8615,16,Jits_ISO_5,2,5,63,98,1447657796
8615,16,Jits_ISO_5,3,1,48,42,1447674096
8615,16,Jits_ISO_5,0,5,56,103,1448108436
8615,16,Jits_ISO_5,1,5,63,98,1448117960
8615,16,Jits_ISO_5,2,5,80,127,1448121168
8615,16,Jits_ISO_5,3,1,48,51,1448138604
8615,16,Jits_ISO_5,0,5,80,127,1448557980
8615,16,Jits_ISO_5,1,1,48,43,1448623720
8615,16,Jits_ISO_5,2,5,63,98,1448648104
8615,16,Jits_ISO_5,3,5,56,103,1448658224
8615,16,Jits_ISO_5,0,5,56,103,1449057860
8615,16,Jits_ISO_5,1,5,63,98,1449060960
8615,16,Jits_ISO_5,2,5,80,127,1449064080
8615,16,Jits_ISO_5,3,1,48,47,1449139424
8615,16,Jits_ISO_5,0,5,80,127,1449577824
8615,16,Jits_ISO_5,1,5,63,98,1449627952
8615,16,Jits_ISO_5,2,1,48,44,1449643724
8615,16,Jits_ISO_5,3,5,56,103,1449657692
8615,16,Jits_ISO_5,0,5,56,103,1450068432
8615,16,Jits_ISO_5,1,5,80,127,1450077656
8615,16,Jits_ISO_5,2,5,63,98,1450148084
8615,16,Jits_ISO_5,3,1,48,51,1450152620
8615,16,Jits_ISO_5,0,5,56,103,1450578216
8615,16,Jits_ISO_5,1,5,63,98,1450597628
8615,16,Jits_ISO_5,2,1,48,41,1450628468
8615,16,Jits_ISO_5,3,5,80,127,1450658156
8615,16,Jits_ISO_5,0,5,80,127,1451067696
8615,16,Jits_ISO_5,1,1,48,41,1451095696
8615,16,Jits_ISO_5,2,5,63,98,1451138492
8615,16,Jits_ISO_5,3,5,56,103,1451157752
8615,16,Jits_ISO_5,0,5,80,127,1451587900
8615,16,Jits_ISO_5,1,5,56,103,1451598316
8615,16,Jits_ISO_5,2,5,63,98,1451608588
8615,16,Jits_ISO_5,3,1,48,41,1451669616
8615,16,Jits_ISO_5,0,5,80,127,1452077676
8615,16,Jits_ISO_5,1,5,56,103,1452097840
8615,16,Jits_ISO_5,2,1,48,40,1452132864
8615,16,Jits_ISO_5,3,5,63,98,1452167584
8615,16,Jits_ISO_5,0,5,56,103,1452588588
8615,16,Jits_ISO_5,1,5,80,127,1452617964
8615,16,Jits_ISO_5,2,5,63,98,1452637824
8615,16,Jits_ISO_5,3,1,48,39,1452687472
8615,16,Jits_ISO_5,0,5,63,98,1453077924
8615,16,Jits_ISO_5,1,5,56,103,1453138388
8615,16,Jits_ISO_5,2,5,80,127,1453167912
8615,16,Jits_ISO_5,3,1,48,48,1453195908
8615,16,Jits_ISO_5,0,5,63,98,1453568512
8615,16,Jits_ISO_5,1,5,80,127,1453571800
8615,16,Jits_ISO_5,2,5,56,103,1453657596
8615,16,Jits_ISO_5,3,1,48,52,1453687088
8615,16,Jits_ISO_5,0,5,56,103,1454087644
8615,16,Jits_ISO_5,1,5,63,98,1454118140
8615,16,Jits_ISO_5,2,5,80,127,1454158076
8615,16,Jits_ISO_5,3,1,48,43,1454199028
8615,16,Jits_ISO_5,0,5,63,98,1454588140
8615,16,Jits_ISO_5,1,1,48,48,1454620852
8615,16,Jits_ISO_5,2,5,56,103,1454628072
8615,16,Jits_ISO_5,3,5,80,127,1454647632
8615,16,Jits_ISO_5,0,5,63,98,1455098656
8615,16,Jits_ISO_5,1,1,48,44,1455126132
8615,16,Jits_ISO_5,2,5,56,103,1455138364
8615,16,Jits_ISO_5,3,5,80,127,1455148632
8615,16,Jits_ISO_5,0,5,80,127,1455577692
8615,16,Jits_ISO_5,1,5,63,98,1455648072
8615,16,Jits_ISO_5,2,1,48,45,1455652988
8615,16,Jits_ISO_5,3,5,56,103,1455667552
8615,16,Jits_ISO_5,0,5,56,103,1456067852
8615,16,Jits_ISO_5,1,5,80,127,1456088684
8615,16,Jits_ISO_5,2,5,63,98,1456128496
8615,16,Jits_ISO_5,3,1,48,52,1456174976
8615,16,Jits_ISO_5,0,5,63,98,1456577860
8615,16,Jits_ISO_5,1,5,80,127,1456598540
8615,16,Jits_ISO_5,2,5,56,103,1456638428
8615,16,Jits_ISO_5,3,1,48,45,1456656688
8615,16,Jits_ISO_5,0,5,63,98,1457077744
8615,16,Jits_ISO_5,1,5,56,103,1457098052
8615,16,Jits_ISO_5,2,5,80,127,1457108620
8615,16,Jits_ISO_5,3,1,48,35,1457177768
8615,16,Jits_ISO_5,0,5,80,127,1457587656
8615,16,Jits_ISO_5,1,5,56,103,1457608040
8615,16,Jits_ISO_5,2,5,63,98,1457637664
8615,16,Jits_ISO_5,3,1,48,48,1457676448
8615,16,Jits_ISO_5,0,5,56,103,1458157924
8615,16,Jits_ISO_5,1,5,80,127,1458161064
8615,16,Jits_ISO_5,2,1,48,73,1458176412
8615,16,Jits_ISO_5,3,5,63,98,1458178452
8615,16,Jits_ISO_5,0,5,63,98,1458577708
8615,16,Jits_ISO_5,1,5,56,103,1458607532
8615,16,Jits_ISO_5,2,5,80,127,1458667872
8615,16,Jits_ISO_5,3,1,48,49,1458685808
8615,16,Jits_ISO_5,0,5,63,98,1459158648
8615,16,Jits_ISO_5,1,5,56,103,1459167600
8615,16,Jits_ISO_5,2,1,48,61,1459171468
8615,16,Jits_ISO_5,3,5,80,127,1459177864
8615,16,Jits_ISO_5,0,1,48,42,1459591152
8615,16,Jits_ISO_5,1,5,56,103,1459607968
8615,16,Jits_ISO_5,2,5,80,127,1459637640
8615,16,Jits_ISO_5,3,5,63,98,1459647912
8615,16,Jits_ISO_5,0,1,48,40,1460128804
8615,16,Jits_ISO_5,1,5,63,98,1460147780
8615,16,Jits_ISO_5,2,5,56,103,1460157756
8615,16,Jits_ISO_5,3,5,80,127,1460178584
8615,16,Jits_ISO_5,0,5,56,103,1460577628
8615,16,Jits_ISO_5,1,1,48,52,1460631160
8615,16,Jits_ISO_5,2,5,63,98,1460638080
8615,16,Jits_ISO_5,3,5,80,127,1460641296
8615,16,Jits_ISO_5,0,5,80,127,1461097740
8615,16,Jits_ISO_5,1,5,56,103,1461108012
8615,16,Jits_ISO_5,2,1,48,48,1461138252
8615,16,Jits_ISO_5,3,5,63,98,1461177608
8615,16,Jits_ISO_5,0,5,80,127,1461597636
8615,16,Jits_ISO_5,1,1,48,54,1461664352
8615,16,Jits_ISO_5,2,5,56,103,1461668060
8615,16,Jits_ISO_5,3,5,63,98,1461677508
8615,16,Jits_ISO_5,0,5,63,98,1462138216
8615,16,Jits_ISO_5,1,5,56,103,1462147588
8615,16,Jits_ISO_5,2,1,48,42,1462152504
8615,16,Jits_ISO_5,3,5,80,127,1462167892
8615,16,Jits_ISO_5,0,5,80,127,1462587760
8615,16,Jits_ISO_5,1,5,63,98,1462648296
8615,16,Jits_ISO_5,2,1,48,50,1462664816
8615,16,Jits_ISO_5,3,5,56,103,1462688300
8615,16,Jits_ISO_5,0,5,56,103,1463128560
8615,16,Jits_ISO_5,1,5,63,98,1463137636
8615,16,Jits_ISO_5,2,5,80,127,1463177644
8615,16,Jits_ISO_5,3,1,48,47,1463188408
8615,16,Jits_ISO_5,0,5,56,103,1463588304
8615,16,Jits_ISO_5,1,5,80,127,1463617828
8615,16,Jits_ISO_5,2,5,63,98,1463668028
8615,16,Jits_ISO_5,3,1,48,43,1463677444
8615,16,Jits_ISO_5,0,1,48,52,1464109964
8615,16,Jits_ISO_5,1,5,56,103,1464127972
8615,16,Jits_ISO_5,2,5,63,98,1464167680
8615,16,Jits_ISO_5,3,5,80,127,1464171348
8615,16,Jits_ISO_5,0,1,48,50,1464615528
8615,16,Jits_ISO_5,1,5,56,103,1464627628
8615,16,Jits_ISO_5,2,5,63,98,1464637752
8615,16,Jits_ISO_5,3,5,80,127,1464658432
8615,16,Jits_ISO_5,0,5,56,103,1465088336
8615,16,Jits_ISO_5,1,5,80,127,1465091400
8615,16,Jits_ISO_5,2,5,63,98,1465128496
8615,16,Jits_ISO_5,3,1,48,47,1465154528
8615,16,Jits_ISO_5,0,5,63,98,1465627928
8615,16,Jits_ISO_5,1,1,48,56,1465656848
8615,16,Jits_ISO_5,2,5,56,103,1465658492
8615,16,Jits_ISO_5,3,5,80,127,1465678128
8615,16,Jits_ISO_5,0,5,80,127,1466097920
8615,16,Jits_ISO_5,1,5,56,103,1466108564
8615,16,Jits_ISO_5,2,5,63,98,1466117640
8615,16,Jits_ISO_5,3,1,48,52,1466146680
8615,16,Jits_ISO_5,0,5,56,103,1466597816
8615,16,Jits_ISO_5,1,5,80,127,1466637604
8615,16,Jits_ISO_5,2,5,63,98,1466668548
8615,16,Jits_ISO_5,3,1,48,40,1466692116
8615,16,Jits_ISO_5,0,5,63,98,1467107604
8615,16,Jits_ISO_5,1,5,80,127,1467117800
8615,16,Jits_ISO_5,2,5,56,103,1467128292
8615,16,Jits_ISO_5,3,1,48,53,1467171188
8615,16,Jits_ISO_5,0,5,56,103,1467588052
8615,16,Jits_ISO_5,1,5,63,98,1467657684
8615,16,Jits_ISO_5,2,1,48,50,1467666212
8615,16,Jits_ISO_5,3,5,80,127,1467667796
8615,16,Jits_ISO_5,0,5,80,127,1468087652
8615,16,Jits_ISO_5,1,5,56,103,1468097996
8615,16,Jits_ISO_5,2,5,63,98,1468148296
8615,16,Jits_ISO_5,3,1,48,46,1468159208
8615,16,Jits_ISO_5,0,5,80,127,1468597584
8615,16,Jits_ISO_5,1,1,48,47,1468638864
8615,16,Jits_ISO_5,2,5,56,103,1468657920
8615,16,Jits_ISO_5,3,5,63,98,1468687668
8615,16,Jits_ISO_5,0,5,56,103,1469107436
8615,16,Jits_ISO_5,1,5,80,127,1469110584
8615,16,Jits_ISO_5,2,5,63,98,1469147452
8615,16,Jits_ISO_5,3,1,48,49,1469154684
8615,16,Jits_ISO_5,0,5,56,103,1469637940
8615,16,Jits_ISO_5,1,5,63,98,1469667636
8615,16,Jits_ISO_5,2,5,80,127,1469677832
8615,16,Jits_ISO_5,3,1,48,48,1469678800
8615,16,Jits_ISO_5,0,5,63,98,1470147952
8615,16,Jits_ISO_5,1,1,48,51,1470155480
8615,16,Jits_ISO_5,2,5,80,127,1470158216
8615,16,Jits_ISO_5,3,5,56,103,1470168340
8615,16,Jits_ISO_5,0,5,80,127,1470597568
8615,16,Jits_ISO_5,1,5,56,103,1470647840
8615,16,Jits_ISO_5,2,5,63,98,1470650832
8615,16,Jits_ISO_5,3,1,48,51,1470657708
8615,16,Jits_ISO_5,0,5,56,103,1471127796
8615,16,Jits_ISO_5,1,1,48,58,1471130612
8615,16,Jits_ISO_5,2,5,80,127,1471148324
8615,16,Jits_ISO_5,3,5,63,98,1471157696
8615,16,Jits_ISO_5,0,5,63,98,1471608216
8615,16,Jits_ISO_5,1,5,56,103,1471637816
8615,16,Jits_ISO_5,2,5,80,127,1471658420
8615,16,Jits_ISO_5,3,1,48,56,1471673672
8615,16,Jits_ISO_5,0,5,56,103,1472118284
8615,16,Jits_ISO_5,1,5,80,127,1472128480
8615,16,Jits_ISO_5,2,1,48,59,1472144252
8615,16,Jits_ISO_5,3,5,63,98,1472198076
8615,16,Jits_ISO_5,0,5,63,98,1472607620
8615,16,Jits_ISO_5,1,5,80,127,1472647408
8615,16,Jits_ISO_5,2,5,56,103,1472687344
8615,16,Jits_ISO_5,3,1,48,62,1472694280
8615,16,Jits_ISO_5,0,1,48,55,1473122896
8615,16,Jits_ISO_5,1,5,56,103,1473127724
8615,16,Jits_ISO_5,2,5,63,98,1473138216
8615,16,Jits_ISO_5,3,5,80,127,1473157480
8615,16,Jits_ISO_5,0,1,48,54,1473607648
8615,16,Jits_ISO_5,1,5,63,98,1473667536
8615,16,Jits_ISO_5,2,5,80,127,1473687844
8615,16,Jits_ISO_5,3,5,56,103,1473708436
8615,16,Jits_ISO_5,0,5,56,103,1474107792
8615,16,Jits_ISO_5,1,5,80,127,1474187512
8615,16,Jits_ISO_5,2,1,48,41,1474194068
8615,16,Jits_ISO_5,3,5,63,98,1474197848
8615,16,Jits_ISO_5,0,5,80,127,1474648448
8615,16,Jits_ISO_5,1,5,63,98,1474657672
8615,16,Jits_ISO_5,2,1,48,57,1474682584
8615,16,Jits_ISO_5,3,5,56,103,1474688460
8615,16,Jits_ISO_5,0,5,63,98,1475108336
8615,16,Jits_ISO_5,1,5,80,127,1475148272
8615,16,Jits_ISO_5,2,1,48,43,1475195656
8615,16,Jits_ISO_5,3,5,56,103,1475207456
8615,16,Jits_ISO_5,0,5,63,98,1475618404
8615,16,Jits_ISO_5,1,5,56,103,1475668384
8615,16,Jits_ISO_5,2,1,48,53,1475691052
8615,16,Jits_ISO_5,3,5,80,127,1475698272
8615,16,Jits_ISO_5,0,5,80,127,1476128400
8615,16,Jits_ISO_5,1,5,63,98,1476138448
8615,16,Jits_ISO_5,2,1,48,58,1476201500
8615,16,Jits_ISO_5,3,5,56,103,1476208120
8615,16,Jits_ISO_5,0,5,80,127,1476697452
8615,16,Jits_ISO_5,1,5,56,103,1476707648
8615,16,Jits_ISO_5,2,5,63,98,1476710712
8615,16,Jits_ISO_5,3,1,48,64,1476719008
8615,16,Jits_ISO_5,0,5,56,103,1477137712
8615,16,Jits_ISO_5,1,5,80,127,1477158320
8615,16,Jits_ISO_5,2,5,63,98,1477167540
8615,16,Jits_ISO_5,3,1,48,57,1477230136
8615,16,Jits_ISO_5,0,5,63,98,1477647720
8615,16,Jits_ISO_5,1,5,56,103,1477687660
8615,16,Jits_ISO_5,2,5,80,127,1477708340
8615,16,Jits_ISO_5,3,1,48,58,1477709908
8615,16,Jits_ISO_5,0,5,63,98,1478147312
8615,16,Jits_ISO_5,1,5,56,103,1478208068
8615,16,Jits_ISO_5,2,5,80,127,1478210912
8615,16,Jits_ISO_5,3,1,48,62,1478215448
8615,16,Jits_ISO_5,0,5,56,103,1478608204
8615,16,Jits_ISO_5,1,5,80,127,1478627640
8615,16,Jits_ISO_5,2,5,63,98,1478667576
8615,16,Jits_ISO_5,3,1,48,57,1478698264
8615,16,Jits_ISO_5,0,5,56,103,1479137640
8615,16,Jits_ISO_5,1,5,63,98,1479158100
8615,16,Jits_ISO_5,2,5,80,127,1479168220
8615,16,Jits_ISO_5,3,1,48,55,1479189768
8615,16,Jits_ISO_5,0,5,80,127,1479607620
8615,16,Jits_ISO_5,1,5,56,103,1479638340
8615,16,Jits_ISO_5,2,5,63,98,1479678452
8615,16,Jits_ISO_5,3,1,48,46,1479692276
8615,16,Jits_ISO_5,0,5,80,127,1480117628
8615,16,Jits_ISO_5,1,5,56,103,1480138384
8615,16,Jits_ISO_5,2,1,48,57,1480168424
8615,16,Jits_ISO_5,3,5,63,98,1480197520
8615,16,Jits_ISO_5,0,5,56,103,1480637748
8615,16,Jits_ISO_5,1,5,80,127,1480658356
8615,16,Jits_ISO_5,2,1,48,57,1480695128
8615,16,Jits_ISO_5,3,5,63,98,1480717712
8615,16,Jits_ISO_5,0,5,80,127,1481118160
8615,16,Jits_ISO_5,1,5,56,103,1481128280
8615,16,Jits_ISO_5,2,5,63,98,1481168144
8615,16,Jits_ISO_5,3,1,48,53,1481216688
8615,16,Jits_ISO_5,0,5,63,98,1481617752
8615,16,Jits_ISO_5,1,5,56,103,1481657688
8615,16,Jits_ISO_5,2,5,80,127,1481660756
8615,16,Jits_ISO_5,3,1,48,64,1481735304
8615,16,Jits_ISO_5,0,5,63,98,1482138148
8615,16,Jits_ISO_5,1,1,48,59,1482166524
8615,16,Jits_ISO_5,2,5,80,127,1482177784
8615,16,Jits_ISO_5,3,5,56,103,1482207556
8615,16,Jits_ISO_5,0,5,56,103,1482627320
8615,16,Jits_ISO_5,1,5,63,98,1482637740
8615,16,Jits_ISO_5,2,5,80,127,1482668384
8615,16,Jits_ISO_5,3,1,48,53,1482687988
8615,16,Jits_ISO_5,0,5,80,127,1483118068
8615,16,Jits_ISO_5,1,1,48,44,1483172880
8615,16,Jits_ISO_5,2,5,63,98,1483187596
8615,16,Jits_ISO_5,3,5,56,103,1483197864
8615,16,Jits_ISO_5,0,5,63,98,1483617672
8615,16,Jits_ISO_5,1,5,56,103,1483688176
8615,16,Jits_ISO_5,2,5,80,127,1483697400
8615,16,Jits_ISO_5,3,1,48,48,1483710400
8615,16,Jits_ISO_5,0,5,63,98,1484118452
8615,16,Jits_ISO_5,1,5,56,103,1484137716
8615,16,Jits_ISO_5,2,5,80,127,1484177724
8615,16,Jits_ISO_5,3,1,48,45,1484206916
8615,16,Jits_ISO_5,0,5,56,103,1484637512
8615,16,Jits_ISO_5,1,5,63,98,1484647932
8615,16,Jits_ISO_5,2,1,48,60,1484717952
8615,16,Jits_ISO_5,3,5,80,127,1484727788
8615,16,Jits_ISO_5,0,5,63,98,1485128044
8615,16,Jits_ISO_5,1,5,56,103,1485157720
8615,16,Jits_ISO_5,2,5,80,127,1485197732
8615,16,Jits_ISO_5,3,1,48,54,1485204740
8615,16,Jits_ISO_5,0,5,56,103,1485627776
8615,16,Jits_ISO_5,1,5,63,98,1485667636
8615,16,Jits_ISO_5,2,1,48,60,1485679072
8615,16,Jits_ISO_5,3,5,80,127,1485707568
8615,16,Jits_ISO_5,0,5,80,127,1486127444
8615,16,Jits_ISO_5,1,1,48,66,1486168400
8615,16,Jits_ISO_5,2,5,56,103,1486208280
8615,16,Jits_ISO_5,3,5,63,98,1486217652
8615,16,Jits_ISO_5,0,5,56,103,1486668096
8615,16,Jits_ISO_5,1,5,63,98,1486671088
8615,16,Jits_ISO_5,2,5,80,127,1486678292
8615,16,Jits_ISO_5,3,1,48,59,1486683432
8615,16,Jits_ISO_5,0,5,56,103,1487188288
8615,16,Jits_ISO_5,1,1,48,58,1487202940
8615,16,Jits_ISO_5,2,5,63,98,1487207768
8615,16,Jits_ISO_5,3,5,80,127,1487218336
8615,16,Jits_ISO_5,0,5,63,98,1487648404
8615,16,Jits_ISO_5,1,5,80,127,1487658232
8615,16,Jits_ISO_5,2,5,56,103,1487677940
8615,16,Jits_ISO_5,3,1,48,66,1487711696
8615,16,Jits_ISO_5,0,5,63,98,1488148064
8615,16,Jits_ISO_5,1,1,48,52,1488168940
8615,16,Jits_ISO_5,2,5,56,103,1488227776
8615,16,Jits_ISO_5,3,5,80,127,1488230692
8615,16,Jits_ISO_5,0,5,63,98,1488647640
8615,16,Jits_ISO_5,1,5,56,103,1488668100
8615,16,Jits_ISO_5,2,5,80,127,1488697700
8615,16,Jits_ISO_5,3,1,48,62,1488714520
8615,16,Jits_ISO_5,0,5,56,103,1489148200
8615,16,Jits_ISO_5,1,5,63,98,1489167760
8615,16,Jits_ISO_5,2,5,80,127,1489177956
8615,16,Jits_ISO_5,3,1,48,45,1489271636
8615,16,Jits_ISO_5,0,5,56,103,1489677760
8615,16,Jits_ISO_5,1,5,63,98,1489708332
8615,16,Jits_ISO_5,2,5,80,127,1489711692
8615,16,Jits_ISO_5,3,1,48,55,1489769056
8615,16,Jits_ISO_5,0,5,56,103,1490128252
8615,16,Jits_ISO_5,1,5,63,98,1490168216
8615,16,Jits_ISO_5,2,5,80,127,1490227628
8615,16,Jits_ISO_5,3,1,48,64,1490261684
8615,16,Jits_ISO_5,0,5,56,103,1490648524
8615,16,Jits_ISO_5,1,5,63,98,1490657624
8615,16,Jits_ISO_5,2,5,80,127,1490718232
8615,16,Jits_ISO_5,3,1,48,69,1490728476
8615,16,Jits_ISO_5,0,5,56,103,1491148200
8615,16,Jits_ISO_5,1,5,80,127,1491167560
8615,16,Jits_ISO_5,2,5,63,98,1491198208
8615,16,Jits_ISO_5,3,1,48,48,1491252784
8615,16,Jits_ISO_5,0,5,80,127,1491648020
8615,16,Jits_ISO_5,1,5,56,103,1491658364
8615,16,Jits_ISO_5,2,5,63,98,1491677428
8615,16,Jits_ISO_5,3,1,48,59,1491757560
8615,16,Jits_ISO_5,0,5,63,98,1492147536
8615,16,Jits_ISO_5,1,1,48,62,1492222816
8615,16,Jits_ISO_5,2,5,80,127,1492227572
8615,16,Jits_ISO_5,3,5,56,103,1492237616
8615,16,Jits_ISO_5,0,1,48,41,1492697132
8615,16,Jits_ISO_5,1,5,80,127,1492707964
8615,16,Jits_ISO_5,2,5,56,103,1492728124
8615,16,Jits_ISO_5,3,5,63,98,1492731264
8615,16,Jits_ISO_5,0,5,63,98,1493177784
8615,16,Jits_ISO_5,1,5,80,127,1493181072
8615,16,Jits_ISO_5,2,5,56,103,1493238192
8615,16,Jits_ISO_5,3,1,48,52,1493244452
8615,16,Jits_ISO_5,0,5,56,103,1493658252
8615,16,Jits_ISO_5,1,5,80,127,1493668224
8615,16,Jits_ISO_5,2,5,63,98,1493708160
8615,16,Jits_ISO_5,3,1,48,47,1493745080
8615,16,Jits_ISO_5,0,5,56,103,1494138220
8615,16,Jits_ISO_5,1,5,63,98,1494197564
8615,16,Jits_ISO_5,2,5,80,127,1494208128
8615,16,Jits_ISO_5,3,1,48,33,1494212824
8615,16,Jits_ISO_5,0,5,63,98,1494648156
8615,16,Jits_ISO_5,1,5,80,127,1494688096
8615,16,Jits_ISO_5,2,5,56,103,1494728252
8615,16,Jits_ISO_5,3,1,48,51,1494734660
8615,16,Jits_ISO_5,0,5,56,103,1495148036
8615,16,Jits_ISO_5,1,1,48,49,1495207648
8615,16,Jits_ISO_5,2,5,63,98,1495228048
8615,16,Jits_ISO_5,3,5,80,127,1495231260
8615,16,Jits_ISO_5,0,9999,9999,9999,1435835476
8615,16,Jits_ISO_5,1,9999,9999,9999,1436335196
8615,16,Jits_ISO_5,2,9999,9999,9999,1436835908
8615,16,Jits_ISO_5,3,9999,9999,9999,1437335644
8615,16,Jits_ISO_5,4,9999,9999,9999,1437835352
8615,16,Jits_ISO_5,5,9999,9999,9999,1438336076
8615,16,Jits_ISO_5,6,9999,9999,9999,1438846068
8615,16,Jits_ISO_5,7,9999,9999,9999,1439345740
8615,16,Jits_ISO_5,8,9999,9999,9999,1439845488
8615,16,Jits_ISO_5,9,9999,9999,9999,1440345164
8615,16,Jits_ISO_5,10,9999,9999,9999,1440845880
8615,16,Jits_ISO_5,11,9999,9999,9999,1441345628
8615,16,Jits_ISO_5,12,9999,9999,9999,1441845356
8615,16,Jits_ISO_5,13,9999,9999,9999,1442346060
8615,16,Jits_ISO_5,14,9999,9999,9999,1442845792
8615,16,Jits_ISO_5,15,9999,9999,9999,1443345464
8615,16,Jits_ISO_5,16,9999,9999,9999,1443845208
8615,16,Jits_ISO_5,17,9999,9999,9999,1444345912
8615,16,Jits_ISO_5,18,9999,9999,9999,1444845656
8615,16,Jits_ISO_5,19,9999,9999,9999,1445345332
8615,16,Jits_ISO_5,20,9999,9999,9999,1445846104
8615,16,Jits_ISO_5,21,9999,9999,9999,1446356036
8615,16,Jits_ISO_5,22,9999,9999,9999,1446855780
8615,16,Jits_ISO_5,23,9999,9999,9999,1447355452
8615,16,Jits_ISO_5,24,9999,9999,9999,1447855200
8615,16,Jits_ISO_5,25,9999,9999,9999,1448355912
8615,16,Jits_ISO_5,26,9999,9999,9999,1448855656
8615,16,Jits_ISO_5,27,9999,9999,9999,1449355380
8615,16,Jits_ISO_5,28,9999,9999,9999,1449856100
8615,16,Jits_ISO_5,29,9999,9999,9999,1450366032
8615,16,Jits_ISO_5,30,9999,9999,9999,1450865780
8615,16,Jits_ISO_5,31,9999,9999,9999,1451365448
8615,16,Jits_ISO_5,32,9999,9999,9999,1451865196
8615,16,Jits_ISO_5,33,9999,9999,9999,1452365916
8615,16,Jits_ISO_5,34,9999,9999,9999,1452865592
8615,16,Jits_ISO_5,35,9999,9999,9999,1453365340
8615,16,Jits_ISO_5,36,9999,9999,9999,1453866032
8615,16,Jits_ISO_5,37,9999,9999,9999,1454365768
8615,16,Jits_ISO_5,38,9999,9999,9999,1454865512
8615,16,Jits_ISO_5,39,9999,9999,9999,1455365172
8615,16,Jits_ISO_5,40,9999,9999,9999,1455865956
8615,16,Jits_ISO_5,41,9999,9999,9999,1456365628
8615,16,Jits_ISO_5,42,9999,9999,9999,1456865372
8615,16,Jits_ISO_5,43,9999,9999,9999,1457366128
8615,16,Jits_ISO_5,44,9999,9999,9999,1457876044
8615,16,Jits_ISO_5,45,9999,9999,9999,1458375788
8615,16,Jits_ISO_5,46,9999,9999,9999,1458875460
8615,16,Jits_ISO_5,47,9999,9999,9999,1459375200
8615,16,Jits_ISO_5,48,9999,9999,9999,1459875908
8615,16,Jits_ISO_5,49,9999,9999,9999,1460375648
8615,16,Jits_ISO_5,50,9999,9999,9999,1460875368
8615,16,Jits_ISO_5,51,9999,9999,9999,1461376088
8615,16,Jits_ISO_5,52,9999,9999,9999,1461886028
8615,16,Jits_ISO_5,53,9999,9999,9999,1462385776
8615,16,Jits_ISO_5,54,9999,9999,9999,1462885436
8615,16,Jits_ISO_5,55,9999,9999,9999,1463385188
8615,16,Jits_ISO_5,56,9999,9999,9999,1463885904
8615,16,Jits_ISO_5,57,9999,9999,9999,1464385648
8615,16,Jits_ISO_5,58,9999,9999,9999,1464885308
8615,16,Jits_ISO_5,59,9999,9999,9999,1465386076
8615,16,Jits_ISO_5,60,9999,9999,9999,1465885752
8615,16,Jits_ISO_5,61,9999,9999,9999,1466385480
8615,16,Jits_ISO_5,62,9999,9999,9999,1466885232
8615,16,Jits_ISO_5,63,9999,9999,9999,1467385948
8615,16,Jits_ISO_5,64,9999,9999,9999,1467885680
8615,16,Jits_ISO_5,65,9999,9999,9999,1468385352
8615,16,Jits_ISO_5,66,9999,9999,9999,1468886124
8615,16,Jits_ISO_5,67,9999,9999,9999,1469396092
8615,16,Jits_ISO_5,68,9999,9999,9999,1469895760
8615,16,Jits_ISO_5,69,9999,9999,9999,1470395512
8615,16,Jits_ISO_5,70,9999,9999,9999,1470895160
8615,16,Jits_ISO_5,71,9999,9999,9999,1471395956
8615,16,Jits_ISO_5,72,9999,9999,9999,1471895628
8615,16,Jits_ISO_5,73,9999,9999,9999,1472395360
8615,16,Jits_ISO_5,74,9999,9999,9999,1472896080
8615,16,Jits_ISO_5,75,9999,9999,9999,1473406076
8615,16,Jits_ISO_5,76,9999,9999,9999,1473905740
8615,16,Jits_ISO_5,77,9999,9999,9999,1474405472
8615,16,Jits_ISO_5,78,9999,9999,9999,1474905148
8615,16,Jits_ISO_5,79,9999,9999,9999,1475405940
8615,16,Jits_ISO_5,80,9999,9999,9999,1475905596
8615,16,Jits_ISO_5,81,9999,9999,9999,1476405332
8615,16,Jits_ISO_5,82,9999,9999,9999,1476906048
8615,16,Jits_ISO_5,83,9999,9999,9999,1477405792
8615,16,Jits_ISO_5,84,9999,9999,9999,1477905472
8615,16,Jits_ISO_5,85,9999,9999,9999,1478405200
8615,16,Jits_ISO_5,86,9999,9999,9999,1478905976
8615,16,Jits_ISO_5,87,9999,9999,9999,1479405652
8615,16,Jits_ISO_5,88,9999,9999,9999,1479905396
8615,16,Jits_ISO_5,89,9999,9999,9999,1480406092
8615,16,Jits_ISO_5,90,9999,9999,9999,1480916020
8615,16,Jits_ISO_5,91,9999,9999,9999,1481415760
8615,16,Jits_ISO_5,92,9999,9999,9999,1481915496
8615,16,Jits_ISO_5,93,9999,9999,9999,1482415228
8615,16,Jits_ISO_5,94,9999,9999,9999,1482915928
8615,16,Jits_ISO_5,95,9999,9999,9999,1483415676
8615,16,Jits_ISO_5,96,9999,9999,9999,1483915348
8615,16,Jits_ISO_5,97,9999,9999,9999,1484416056
8615,16,Jits_ISO_5,98,9999,9999,9999,1484926048
8615,16,Jits_ISO_5,99,9999,9999,9999,1485425720
8615,16,Jits_ISO_5,100,9999,9999,9999,1485925452
8615,16,Jits_ISO_5,101,9999,9999,9999,1486425200
8615,16,Jits_ISO_5,102,9999,9999,9999,1486925908
8615,16,Jits_ISO_5,103,9999,9999,9999,1487425584
8615,16,Jits_ISO_5,104,9999,9999,9999,1487925336
8615,16,Jits_ISO_5,105,9999,9999,9999,1488426108
8615,16,Jits_ISO_5,106,9999,9999,9999,1488925764
8615,16,Jits_ISO_5,107,9999,9999,9999,1489425496
8615,16,Jits_ISO_5,108,9999,9999,9999,1489925236
8615,16,Jits_ISO_5,109,9999,9999,9999,1490425956
8615,16,Jits_ISO_5,110,9999,9999,9999,1490925628
8615,16,Jits_ISO_5,111,9999,9999,9999,1491425376
8615,16,Jits_ISO_5,112,9999,9999,9999,1491926068
8615,16,Jits_ISO_5,113,9999,9999,9999,1492436072
8615,16,Jits_ISO_5,114,9999,9999,9999,1492935796
8615,16,Jits_ISO_5,115,9999,9999,9999,1493435448
8615,16,Jits_ISO_5,116,9999,9999,9999,1493935180
8615,16,Jits_ISO_5,117,9999,9999,9999,1494435896
8615,16,Jits_ISO_5,118,9999,9999,9999,1494935648
8615,16,Jits_ISO_5,119,9999,9999,9999,1495435372
8616,7,Jits_ISO_8,0,5,56,103,1506093452
8616,7,Jits_ISO_8,1,5,63,98,1506096852
8616,7,Jits_ISO_8,2,5,80,127,1506099820
8616,7,Jits_ISO_8,0,5,56,103,1506894128
8616,7,Jits_ISO_8,1,5,63,98,1506897152
8616,7,Jits_ISO_8,2,5,80,127,1506900424
8616,7,Jits_ISO_8,0,5,80,127,1507633608
8616,7,Jits_ISO_8,1,5,63,98,1507723820
8616,7,Jits_ISO_8,2,5,56,103,1507733864
8616,7,Jits_ISO_8,0,5,56,103,1508453928
8616,7,Jits_ISO_8,1,5,63,98,1508463980
8616,7,Jits_ISO_8,2,5,80,127,1508554036
8616,7,Jits_ISO_8,0,5,63,98,1509223828
8616,7,Jits_ISO_8,1,5,80,127,1509253360
8616,7,Jits_ISO_8,2,5,56,103,1509284156
8616,7,Jits_ISO_8,0,5,56,103,1510023752
8616,7,Jits_ISO_8,1,5,80,127,1510123880
8616,7,Jits_ISO_8,2,5,63,98,1510174008
8616,7,Jits_ISO_8,0,5,56,103,1510824224
8616,7,Jits_ISO_8,1,5,80,127,1510873456
8616,7,Jits_ISO_8,2,5,63,98,1510914392
8616,7,Jits_ISO_8,3,1,48,36,1511065992
8616,7,Jits_ISO_8,0,5,80,127,1511653936
8616,7,Jits_ISO_8,1,5,63,98,1511683392
8616,7,Jits_ISO_8,2,1,48,47,1511744344
8616,7,Jits_ISO_8,3,5,56,103,1511754184
8616,7,Jits_ISO_8,0,5,63,98,1512484232
8616,7,Jits_ISO_8,1,5,56,103,1512513832
8616,7,Jits_ISO_8,2,1,48,49,1512564452
8616,7,Jits_ISO_8,3,5,80,127,1512574368
8616,7,Jits_ISO_8,0,5,56,103,1513223480
8616,7,Jits_ISO_8,1,5,80,127,1513226696
8616,7,Jits_ISO_8,2,5,63,98,1513344256
8616,7,Jits_ISO_8,3,1,48,54,1513347072
8616,7,Jits_ISO_8,0,1,48,56,1514095912
8616,7,Jits_ISO_8,1,5,56,103,1514104104
8616,7,Jits_ISO_8,2,5,80,127,1514144044
8616,7,Jits_ISO_8,3,5,63,98,1514154536
8616,7,Jits_ISO_8,0,5,56,103,1514863968
8616,7,Jits_ISO_8,1,5,80,127,1514883604
8616,7,Jits_ISO_8,2,1,48,48,1514915344
8616,7,Jits_ISO_8,3,5,63,98,1514964216
8616,7,Jits_ISO_8,0,5,80,127,1515653728
8616,7,Jits_ISO_8,1,1,48,43,1515683228
8616,7,Jits_ISO_8,2,5,56,103,1515753848
8616,7,Jits_ISO_8,3,5,63,98,1515764196
8616,7,Jits_ISO_8,0,5,63,98,1516423636
8616,7,Jits_ISO_8,1,5,80,127,1516483880
8616,7,Jits_ISO_8,2,5,56,103,1516494152
8616,7,Jits_ISO_8,3,1,48,54,1516551320
8616,7,Jits_ISO_8,0,5,56,103,1517224240
8616,7,Jits_ISO_8,1,5,63,98,1517293948
8616,7,Jits_ISO_8,2,5,80,127,1517297536
8616,7,Jits_ISO_8,3,1,48,46,1517359016
8616,7,Jits_ISO_8,0,5,63,98,1518053800
8616,7,Jits_ISO_8,1,1,48,49,1518066504
8616,7,Jits_ISO_8,2,5,56,103,1518103992
8616,7,Jits_ISO_8,3,5,80,127,1518107060
8616,7,Jits_ISO_8,0,5,56,103,1518813636
8616,7,Jits_ISO_8,1,5,80,127,1518816704
8616,7,Jits_ISO_8,2,1,48,52,1518874516
8616,7,Jits_ISO_8,3,5,63,98,1518903836
8616,7,Jits_ISO_8,0,1,48,54,1519598468
8616,7,Jits_ISO_8,1,5,63,98,1519654172
8616,7,Jits_ISO_8,2,5,56,103,1519744588
8616,7,Jits_ISO_8,3,5,80,127,1519774044
8616,7,Jits_ISO_8,0,1,48,58,1520372720
8616,7,Jits_ISO_8,1,5,56,103,1520443848
8616,7,Jits_ISO_8,2,5,63,98,1520544008
8616,7,Jits_ISO_8,3,5,80,127,1520573832
8616,7,Jits_ISO_8,0,1,48,54,1521240604
8616,7,Jits_ISO_8,1,5,63,98,1521263944
8616,7,Jits_ISO_8,2,5,56,103,1521274212
8616,7,Jits_ISO_8,3,5,80,127,1521364552
8616,7,Jits_ISO_8,0,1,48,61,1522067296
8616,7,Jits_ISO_8,1,5,63,98,1522084408
8616,7,Jits_ISO_8,2,5,56,103,1522164064
8616,7,Jits_ISO_8,3,5,80,127,1522167132
8616,7,Jits_ISO_8,0,5,80,127,1522844036
8616,7,Jits_ISO_8,1,5,63,98,1522863600
8616,7,Jits_ISO_8,2,1,48,57,1522882528
8616,7,Jits_ISO_8,3,5,56,103,1522923784
8616,7,Jits_ISO_8,0,1,48,60,1523647468
8616,7,Jits_ISO_8,1,5,56,103,1523683636
8616,7,Jits_ISO_8,2,5,63,98,1523704088
8616,7,Jits_ISO_8,3,5,80,127,1523707608
8616,7,Jits_ISO_8,0,1,48,61,1524404320
8616,7,Jits_ISO_8,1,5,63,98,1524423972
8616,7,Jits_ISO_8,2,5,80,127,1524503856
8616,7,Jits_ISO_8,3,5,56,103,1524514124
8616,7,Jits_ISO_8,0,1,48,57,1525190596
8616,7,Jits_ISO_8,1,5,63,98,1525244232
8616,7,Jits_ISO_8,2,5,56,103,1525263720
8616,7,Jits_ISO_8,3,5,80,127,1525313832
8616,7,Jits_ISO_8,0,1,48,62,1526011384
8616,7,Jits_ISO_8,1,5,80,127,1526044160
8616,7,Jits_ISO_8,2,5,63,98,1526083880
8616,7,Jits_ISO_8,3,5,56,103,1526104560
8616,7,Jits_ISO_8,0,1,48,70,1526733084
8616,7,Jits_ISO_8,1,5,56,103,1526883640
8616,7,Jits_ISO_8,2,5,63,98,1526893912
8616,7,Jits_ISO_8,3,5,80,127,1526914592
8616,7,Jits_ISO_8,0,5,56,103,1527613916
8616,7,Jits_ISO_8,1,5,63,98,1527703904
8616,7,Jits_ISO_8,2,1,48,61,1527753032
8616,7,Jits_ISO_8,3,5,80,127,1527764584
8616,7,Jits_ISO_8,0,5,80,127,1528444584
8616,7,Jits_ISO_8,1,5,56,103,1528453508
8616,7,Jits_ISO_8,2,5,63,98,1528524088
8616,7,Jits_ISO_8,3,1,48,64,1528528252
8616,7,Jits_ISO_8,0,5,63,98,1529273752
8616,7,Jits_ISO_8,1,1,48,67,1529315932
8616,7,Jits_ISO_8,2,5,80,127,1529363908
8616,7,Jits_ISO_8,3,5,56,103,1529373956
8616,7,Jits_ISO_8,0,5,63,98,1530014056
8616,7,Jits_ISO_8,1,5,80,127,1530064632
8616,7,Jits_ISO_8,2,5,56,103,1530123552
8616,7,Jits_ISO_8,3,1,48,59,1530135140
8616,7,Jits_ISO_8,0,5,56,103,1530843608
8616,7,Jits_ISO_8,1,5,80,127,1530893588
8616,7,Jits_ISO_8,2,5,63,98,1530914048
8616,7,Jits_ISO_8,3,1,48,48,1530956124
8616,7,Jits_ISO_8,0,5,56,103,1531613736
8616,7,Jits_ISO_8,1,1,48,68,1531671460
8616,7,Jits_ISO_8,2,5,80,127,1531673972
8616,7,Jits_ISO_8,3,5,63,98,1531743580
8616,7,Jits_ISO_8,0,5,56,103,1532414580
8616,7,Jits_ISO_8,1,5,80,127,1532443884
8616,7,Jits_ISO_8,2,1,48,56,1532454572
8616,7,Jits_ISO_8,3,5,63,98,1532473628
8616,7,Jits_ISO_8,0,1,48,64,1533211712
8616,7,Jits_ISO_8,1,5,56,103,1533254004
8616,7,Jits_ISO_8,2,5,80,127,1533273416
8616,7,Jits_ISO_8,3,5,63,98,1533333940
8616,7,Jits_ISO_8,0,1,48,58,1534109800
8616,7,Jits_ISO_8,1,5,80,127,1534133732
8616,7,Jits_ISO_8,2,5,56,103,1534143928
8616,7,Jits_ISO_8,3,5,63,98,1534154048
8616,7,Jits_ISO_8,0,1,48,52,1534891704
8616,7,Jits_ISO_8,1,5,56,103,1534893364
8616,7,Jits_ISO_8,2,5,80,127,1534934576
8616,7,Jits_ISO_8,3,5,63,98,1534964200
8616,7,Jits_ISO_8,0,5,56,103,1535663416
8616,7,Jits_ISO_8,1,5,63,98,1535694140
8616,7,Jits_ISO_8,2,5,80,127,1535734252
8616,7,Jits_ISO_8,3,1,48,65,1535794464
8616,7,Jits_ISO_8,0,5,80,127,1536414068
8616,7,Jits_ISO_8,1,5,63,98,1536464420
8616,7,Jits_ISO_8,2,5,56,103,1536483636
8616,7,Jits_ISO_8,3,1,48,62,1536518136
8616,7,Jits_ISO_8,0,5,56,103,1537243628
8616,7,Jits_ISO_8,1,1,48,58,1537252748
8616,7,Jits_ISO_8,2,5,80,127,1537314280
8616,7,Jits_ISO_8,3,5,63,98,1537373532
8616,7,Jits_ISO_8,0,5,80,127,1538044252
8616,7,Jits_ISO_8,1,1,48,64,1538057860
8616,7,Jits_ISO_8,2,5,63,98,1538134308
8616,7,Jits_ISO_8,3,5,56,103,1538153944
8616,7,Jits_ISO_8,0,5,63,98,1538863612
8616,7,Jits_ISO_8,1,5,56,103,1538883920
8616,7,Jits_ISO_8,2,1,48,65,1538918652
8616,7,Jits_ISO_8,3,5,80,127,1538923928
8616,7,Jits_ISO_8,0,5,80,127,1539624432
8616,7,Jits_ISO_8,1,5,63,98,1539643700
8616,7,Jits_ISO_8,2,1,48,56,1539650032
8616,7,Jits_ISO_8,3,5,56,103,1539723636
8616,7,Jits_ISO_8,0,5,63,98,1540413668
8616,7,Jits_ISO_8,1,1,48,59,1540447504
8616,7,Jits_ISO_8,2,5,56,103,1540524628
8616,7,Jits_ISO_8,3,5,80,127,1540527688
8616,7,Jits_ISO_8,0,5,63,98,1541233972
8616,7,Jits_ISO_8,1,5,56,103,1541244388
8616,7,Jits_ISO_8,2,5,80,127,1541247308
8616,7,Jits_ISO_8,3,1,48,56,1541278372
8616,7,Jits_ISO_8,0,1,48,50,1542001176
8616,7,Jits_ISO_8,1,5,56,103,1542014400
8616,7,Jits_ISO_8,2,5,80,127,1542134216
8616,7,Jits_ISO_8,3,5,63,98,1542174156
8616,7,Jits_ISO_8,0,5,56,103,1542833600
8616,7,Jits_ISO_8,1,1,48,59,1542901616
8616,7,Jits_ISO_8,2,5,80,127,1542914540
8616,7,Jits_ISO_8,3,5,63,98,1542933728
8616,7,Jits_ISO_8,0,5,56,103,1543634444
8616,7,Jits_ISO_8,1,1,48,56,1543698048
8616,7,Jits_ISO_8,2,5,63,98,1543743700
8616,7,Jits_ISO_8,3,5,80,127,1543747068
8616,7,Jits_ISO_8,0,5,56,103,1544463708
8616,7,Jits_ISO_8,1,1,48,64,1544480084
8616,7,Jits_ISO_8,2,5,80,127,1544493304
8616,7,Jits_ISO_8,3,5,63,98,1544513912
8616,7,Jits_ISO_8,0,1,48,63,1545239412
8616,7,Jits_ISO_8,1,5,63,98,1545243868
8616,7,Jits_ISO_8,2,5,56,103,1545254364
8616,7,Jits_ISO_8,3,5,80,127,1545263512
8616,7,Jits_ISO_8,0,5,80,127,1546033464
8616,7,Jits_ISO_8,1,1,48,60,1546039200
8616,7,Jits_ISO_8,2,5,56,103,1546083736
8616,7,Jits_ISO_8,3,5,63,98,1546123676
8616,7,Jits_ISO_8,0,5,80,127,1546853716
8616,7,Jits_ISO_8,1,1,48,63,1546856384
8616,7,Jits_ISO_8,2,5,63,98,1546874172
8616,7,Jits_ISO_8,3,5,56,103,1546924520
8616,7,Jits_ISO_8,0,1,48,62,1547604556
8616,7,Jits_ISO_8,1,5,80,127,1547663624
8616,7,Jits_ISO_8,2,5,56,103,1547693376
8616,7,Jits_ISO_8,3,5,63,98,1547764188
8616,7,Jits_ISO_8,0,1,48,72,1548467428
8616,7,Jits_ISO_8,1,5,56,103,1548513636
8616,7,Jits_ISO_8,2,5,80,127,1548523832
8616,7,Jits_ISO_8,3,5,63,98,1548563680
8616,7,Jits_ISO_8,0,5,56,103,1549224468
8616,7,Jits_ISO_8,1,5,63,98,1549243808
8616,7,Jits_ISO_8,2,5,80,127,1549314412
8616,7,Jits_ISO_8,3,1,48,62,1549346000
8616,7,Jits_ISO_8,0,5,63,98,1550043472
8616,7,Jits_ISO_8,1,1,48,69,1550075660
8616,7,Jits_ISO_8,2,5,80,127,1550103784
8616,7,Jits_ISO_8,3,5,56,103,1550124392
8616,7,Jits_ISO_8,0,5,80,127,1550833968
8616,7,Jits_ISO_8,1,5,56,103,1550863644
8616,7,Jits_ISO_8,2,1,48,55,1550867284
8616,7,Jits_ISO_8,3,5,63,98,1550893536
8616,7,Jits_ISO_8,0,1,48,73,1551623988
8616,7,Jits_ISO_8,1,5,56,103,1551633756
8616,7,Jits_ISO_8,2,5,63,98,1551694148
8616,7,Jits_ISO_8,3,5,80,127,1551753552
8616,7,Jits_ISO_8,0,5,80,127,1552454148
8616,7,Jits_ISO_8,1,5,56,103,1552473340
8616,7,Jits_ISO_8,2,1,48,59,1552476004
8616,7,Jits_ISO_8,3,1,48,35,1552538460
8616,7,Jits_ISO_8,4,5,63,98,1552544260
8616,7,Jits_ISO_8,0,5,80,127,1553253800
8616,7,Jits_ISO_8,1,1,48,62,1553272440
8616,7,Jits_ISO_8,2,5,63,98,1553274176
8616,7,Jits_ISO_8,3,5,56,103,1553303776
8616,7,Jits_ISO_8,0,5,80,127,1554044376
8616,7,Jits_ISO_8,1,1,48,51,1554056936
8616,7,Jits_ISO_8,2,5,63,98,1554063636
8616,7,Jits_ISO_8,3,5,56,103,1554124248
8616,7,Jits_ISO_8,0,5,80,127,1554844248
8616,7,Jits_ISO_8,1,1,48,38,1554921560
8616,7,Jits_ISO_8,2,5,56,103,1554944296
8616,7,Jits_ISO_8,3,5,63,98,1554974340
8616,7,Jits_ISO_8,0,5,63,98,1555633488
8616,7,Jits_ISO_8,1,5,80,127,1555683716
8616,7,Jits_ISO_8,2,1,48,44,1555694480
8616,7,Jits_ISO_8,3,5,56,103,1555704096
8616,7,Jits_ISO_8,0,1,48,46,1556435040
8616,7,Jits_ISO_8,1,5,80,127,1556474196
8616,7,Jits_ISO_8,2,5,56,103,1556504020
8616,7,Jits_ISO_8,3,5,63,98,1556506936
8616,7,Jits_ISO_8,0,1,48,43,1557212220
8616,7,Jits_ISO_8,1,5,63,98,1557303572
8616,7,Jits_ISO_8,2,5,56,103,1557343572
8616,7,Jits_ISO_8,3,5,80,127,1557364328
8616,7,Jits_ISO_8,0,1,48,50,1558011612
8616,7,Jits_ISO_8,1,5,80,127,1558044168
8616,7,Jits_ISO_8,2,5,63,98,1558123876
8616,7,Jits_ISO_8,3,5,56,103,1558163888
8616,7,Jits_ISO_8,0,5,63,98,1558864268
8616,7,Jits_ISO_8,1,1,48,54,1558877724
8616,7,Jits_ISO_8,2,1,48,32,1558928500
8616,7,Jits_ISO_8,3,5,80,127,1558944036
8616,7,Jits_ISO_8,4,5,56,103,1558963524
8616,7,Jits_ISO_8,0,5,56,103,1559704064
8616,7,Jits_ISO_8,1,1,48,51,1559713732
8616,7,Jits_ISO_8,2,5,63,98,1559715300
8616,7,Jits_ISO_8,3,5,80,127,1559754344
8616,7,Jits_ISO_8,4,1,48,32,1559759316
8616,7,Jits_ISO_8,0,5,56,103,1560423920
8616,7,Jits_ISO_8,1,5,80,127,1560427136
8616,7,Jits_ISO_8,2,1,48,54,1560529520
8616,7,Jits_ISO_8,3,5,63,98,1560564264
8616,7,Jits_ISO_8,0,5,56,103,1561214268
8616,7,Jits_ISO_8,1,5,63,98,1561304480
8616,7,Jits_ISO_8,2,1,48,64,1561359540
8616,7,Jits_ISO_8,3,5,80,127,1561374176
8616,7,Jits_ISO_8,4,1,48,27,1561424108
8616,7,Jits_ISO_8,0,1,48,48,1562061224
8616,7,Jits_ISO_8,1,5,63,98,1562094024
8616,7,Jits_ISO_8,2,5,80,127,1562097240
8616,7,Jits_ISO_8,3,5,56,103,1562154340
8616,7,Jits_ISO_8,0,5,80,127,1562933596
8616,7,Jits_ISO_8,1,5,56,103,1562954056
8616,7,Jits_ISO_8,2,5,63,98,1562964252
8616,7,Jits_ISO_8,3,1,48,41,1563276264
8616,7,Jits_ISO_8,0,5,56,103,1563644244
8616,7,Jits_ISO_8,1,5,63,98,1563653468
8616,7,Jits_ISO_8,2,5,80,127,1563724120
8616,7,Jits_ISO_8,0,1,48,48,1564133044
8616,7,Jits_ISO_8,1,5,80,127,1564444236
8616,7,Jits_ISO_8,2,5,56,103,1564494292
8616,7,Jits_ISO_8,3,5,63,98,1564544344
8616,7,Jits_ISO_8,4,1,48,50,1564731164
8616,7,Jits_ISO_8,0,5,56,103,1565323540
8616,7,Jits_ISO_8,1,5,63,98,1565334036
8616,7,Jits_ISO_8,2,5,80,127,1565373752
8616,7,Jits_ISO_8,3,1,48,40,1565552124
8616,7,Jits_ISO_8,0,5,56,103,1566064228
8616,7,Jits_ISO_8,1,5,63,98,1566103872
8616,7,Jits_ISO_8,2,5,80,127,1566154148
8616,7,Jits_ISO_8,0,1,48,45,1566627208
8616,7,Jits_ISO_8,1,5,80,127,1566824000
8616,7,Jits_ISO_8,2,5,56,103,1566874128
8616,7,Jits_ISO_8,3,5,63,98,1566893392
8616,7,Jits_ISO_8,0,5,80,127,1567634064
8616,7,Jits_ISO_8,1,5,63,98,1567694232
8616,7,Jits_ISO_8,2,5,56,103,1567773980
8616,7,Jits_ISO_8,0,1,48,57,1568129900
8616,7,Jits_ISO_8,1,5,80,127,1568414208
8616,7,Jits_ISO_8,2,5,56,103,1568454300
8616,7,Jits_ISO_8,3,5,63,98,1568473512
8616,7,Jits_ISO_8,4,1,48,57,1568784852
8616,7,Jits_ISO_8,0,5,56,103,1569264156
8616,7,Jits_ISO_8,1,5,80,127,1569274204
8616,7,Jits_ISO_8,2,5,63,98,1569314216
8616,7,Jits_ISO_8,0,1,48,43,1569769808
8616,7,Jits_ISO_8,1,5,56,103,1570134284
8616,7,Jits_ISO_8,2,5,63,98,1570174372
8616,7,Jits_ISO_8,3,5,80,127,1570177436
8616,7,Jits_ISO_8,0,1,48,40,1570636880
8616,7,Jits_ISO_8,1,5,63,98,1570823484
8616,7,Jits_ISO_8,2,5,80,127,1570863424
8616,7,Jits_ISO_8,3,5,56,103,1570934076
8616,7,Jits_ISO_8,0,1,48,47,1571483564
8616,7,Jits_ISO_8,1,5,63,98,1571614044
8616,7,Jits_ISO_8,2,5,56,103,1571694140
8616,7,Jits_ISO_8,3,5,80,127,1571754456
8616,7,Jits_ISO_8,0,1,48,48,1572337020
8616,7,Jits_ISO_8,1,5,80,127,1572424184
8616,7,Jits_ISO_8,2,5,63,98,1572474224
8616,7,Jits_ISO_8,3,5,56,103,1572504120
8616,7,Jits_ISO_8,0,1,48,51,1573181912
8616,7,Jits_ISO_8,1,5,56,103,1573213776
8616,7,Jits_ISO_8,2,5,63,98,1573263904
8616,7,Jits_ISO_8,3,5,80,127,1573274100
8616,7,Jits_ISO_8,0,1,48,54,1574001152
8616,7,Jits_ISO_8,1,5,56,103,1574023516
8616,7,Jits_ISO_8,2,1,48,35,1574044980
8616,7,Jits_ISO_8,3,5,63,98,1574134184
8616,7,Jits_ISO_8,4,5,80,127,1574153728
8616,7,Jits_ISO_8,0,5,63,98,1574824428
8616,7,Jits_ISO_8,1,1,48,54,1574844936
8616,7,Jits_ISO_8,2,5,80,127,1574873380
8616,7,Jits_ISO_8,3,1,48,37,1574885024
8616,7,Jits_ISO_8,4,5,56,103,1574963564
8616,7,Jits_ISO_8,0,5,63,98,1575613872
8616,7,Jits_ISO_8,1,5,80,127,1575643944
8616,7,Jits_ISO_8,2,1,48,52,1575696060
8616,7,Jits_ISO_8,3,5,56,103,1575733476
8616,7,Jits_ISO_8,0,5,63,98,1576413676
8616,7,Jits_ISO_8,1,5,56,103,1576423872
8616,7,Jits_ISO_8,2,1,48,48,1576498008
8616,7,Jits_ISO_8,3,5,80,127,1576524188
8616,7,Jits_ISO_8,0,1,48,34,1577170824
8616,7,Jits_ISO_8,1,5,63,98,1577313608
8616,7,Jits_ISO_8,2,5,80,127,1577344404
8616,7,Jits_ISO_8,3,5,56,103,1577374080
8616,7,Jits_ISO_8,0,5,80,127,1578133872
8616,7,Jits_ISO_8,1,5,63,98,1578143992
8616,7,Jits_ISO_8,2,5,56,103,1578173744
8616,7,Jits_ISO_8,3,1,48,51,1578177684
8616,7,Jits_ISO_8,0,5,80,127,1578834180
8616,7,Jits_ISO_8,1,5,63,98,1578853892
8616,7,Jits_ISO_8,2,5,56,103,1578904016
8616,7,Jits_ISO_8,3,1,48,53,1578957400
8616,7,Jits_ISO_8,0,1,48,51,1579627792
8616,7,Jits_ISO_8,1,5,63,98,1579663860
8616,7,Jits_ISO_8,2,5,80,127,1579724088
8616,7,Jits_ISO_8,3,5,56,103,1579743748
8616,7,Jits_ISO_8,0,5,63,98,1580423644
8616,7,Jits_ISO_8,1,1,48,56,1580449012
8616,7,Jits_ISO_8,2,5,56,103,1580473988
8616,7,Jits_ISO_8,3,5,80,127,1580483888
8616,7,Jits_ISO_8,0,1,48,61,1581142924
8616,7,Jits_ISO_8,1,1,48,29,1581206060
8616,7,Jits_ISO_8,2,5,56,103,1581253964
8616,7,Jits_ISO_8,3,5,80,127,1581264384
8616,7,Jits_ISO_8,4,5,63,98,1581363668
8616,7,Jits_ISO_8,0,5,80,127,1582013764
8616,7,Jits_ISO_8,1,5,63,98,1582024036
8616,7,Jits_ISO_8,2,1,48,53,1582057744
8616,7,Jits_ISO_8,3,5,56,103,1582173432
8616,7,Jits_ISO_8,0,5,63,98,1582823924
8616,7,Jits_ISO_8,1,5,80,127,1582863716
8616,7,Jits_ISO_8,2,1,48,49,1582939948
8616,7,Jits_ISO_8,3,5,56,103,1582943800
8616,7,Jits_ISO_8,4,1,48,33,1582984368
8616,7,Jits_ISO_8,0,5,56,103,1583614336
8616,7,Jits_ISO_8,1,5,80,127,1583713840
8616,7,Jits_ISO_8,2,1,48,54,1583716960
8616,7,Jits_ISO_8,3,5,63,98,1583733992
8616,7,Jits_ISO_8,0,1,48,51,1584436432
8616,7,Jits_ISO_8,1,5,80,127,1584473324
8616,7,Jits_ISO_8,2,5,56,103,1584483892
8616,7,Jits_ISO_8,3,1,48,32,1584495464
8616,7,Jits_ISO_8,4,5,63,98,1584573780
8616,7,Jits_ISO_8,0,5,56,103,1585274164
8616,7,Jits_ISO_8,1,5,63,98,1585293948
8616,7,Jits_ISO_8,2,1,48,53,1585303968
8616,7,Jits_ISO_8,3,5,80,127,1585373612
8616,7,Jits_ISO_8,0,5,63,98,1586023912
8616,7,Jits_ISO_8,1,1,48,64,1586032360
8616,7,Jits_ISO_8,2,5,56,103,1586113892
8616,7,Jits_ISO_8,3,5,80,127,1586116960
8616,7,Jits_ISO_8,0,1,48,51,1586816832
8616,7,Jits_ISO_8,1,5,56,103,1586854172
8616,7,Jits_ISO_8,2,5,80,127,1586913840
8616,7,Jits_ISO_8,3,5,63,98,1586924096
8616,7,Jits_ISO_8,0,1,48,59,1587600800
8616,7,Jits_ISO_8,1,5,80,127,1587704164
8616,7,Jits_ISO_8,2,5,56,103,1587714508
8616,7,Jits_ISO_8,3,5,63,98,1587717648
8616,7,Jits_ISO_8,0,1,48,59,1588448252
8616,7,Jits_ISO_8,1,5,56,103,1588464096
8616,7,Jits_ISO_8,2,5,80,127,1588474216
8616,7,Jits_ISO_8,3,5,63,98,1588493780
8616,7,Jits_ISO_8,0,1,48,57,1589224216
8616,7,Jits_ISO_8,1,5,63,98,1589233980
8616,7,Jits_ISO_8,2,5,80,127,1589293776
8616,7,Jits_ISO_8,3,5,56,103,1589343888
8616,7,Jits_ISO_8,0,5,63,98,1590113940
8616,7,Jits_ISO_8,1,5,56,103,1590123840
8616,7,Jits_ISO_8,2,1,48,57,1590126736
8616,7,Jits_ISO_8,3,5,80,127,1590174036
8616,7,Jits_ISO_8,0,5,63,98,1590813936
8616,7,Jits_ISO_8,1,5,80,127,1590833720
8616,7,Jits_ISO_8,2,5,56,103,1590844140
8616,7,Jits_ISO_8,3,1,48,59,1590946824
8616,7,Jits_ISO_8,0,5,63,98,1591613860
8616,7,Jits_ISO_8,1,1,48,56,1591615524
8616,7,Jits_ISO_8,2,5,80,127,1591618192
8616,7,Jits_ISO_8,3,5,56,103,1591653644
8616,7,Jits_ISO_8,0,1,48,56,1592422596
8616,7,Jits_ISO_8,1,5,63,98,1592484204
8616,7,Jits_ISO_8,2,5,80,127,1592513952
8616,7,Jits_ISO_8,3,5,56,103,1592524208
8616,7,Jits_ISO_8,0,1,48,63,1593230904
8616,7,Jits_ISO_8,1,5,56,103,1593233940
8616,7,Jits_ISO_8,2,5,80,127,1593263468
8616,7,Jits_ISO_8,3,5,63,98,1593294188
8616,7,Jits_ISO_8,0,1,48,59,1594083400
8616,7,Jits_ISO_8,1,5,63,98,1594133844
8616,7,Jits_ISO_8,2,5,56,103,1594173784
8616,7,Jits_ISO_8,3,5,80,127,1594176852
8616,7,Jits_ISO_8,0,5,80,127,1594834260
8616,7,Jits_ISO_8,1,5,56,103,1594914084
8616,7,Jits_ISO_8,2,5,63,98,1594964212
8616,7,Jits_ISO_8,3,1,48,61,1595024192
8616,7,Jits_ISO_8,0,5,80,127,1595613780
8616,7,Jits_ISO_8,1,5,56,103,1595634168
8616,7,Jits_ISO_8,2,1,48,59,1595712212
8616,7,Jits_ISO_8,3,5,63,98,1595723996
8616,7,Jits_ISO_8,0,1,48,61,1596436172
8616,7,Jits_ISO_8,1,5,80,127,1596454184
8616,7,Jits_ISO_8,2,5,63,98,1596494052
8616,7,Jits_ISO_8,3,5,56,103,1596534048
8616,7,Jits_ISO_8,0,5,63,98,1597224304
8616,7,Jits_ISO_8,1,5,80,127,1597283652
8616,7,Jits_ISO_8,2,1,48,62,1597292540
8616,7,Jits_ISO_8,3,5,56,103,1597314368
8616,7,Jits_ISO_8,0,5,56,103,1598024012
8616,7,Jits_ISO_8,1,1,48,57,1598050352
8616,7,Jits_ISO_8,2,5,80,127,1598053832
8616,7,Jits_ISO_8,3,5,63,98,1598143888
8616,7,Jits_ISO_8,0,5,56,103,1598833996
8616,7,Jits_ISO_8,1,1,48,54,1598898024
8616,7,Jits_ISO_8,2,5,80,127,1598943632
8616,7,Jits_ISO_8,3,5,63,98,1598974428
8616,7,Jits_ISO_8,0,5,56,103,1599683924
8616,7,Jits_ISO_8,1,1,48,57,1599737340
8616,7,Jits_ISO_8,2,5,63,98,1599744484
8616,7,Jits_ISO_8,3,5,80,127,1599773936
8616,7,Jits_ISO_8,0,5,56,103,1600453984
8616,7,Jits_ISO_8,1,5,63,98,1600523544
8616,7,Jits_ISO_8,2,5,80,127,1600544152
8616,7,Jits_ISO_8,3,1,48,54,1600606604
8616,7,Jits_ISO_8,0,5,80,127,1601224036
8616,7,Jits_ISO_8,1,5,63,98,1601243696
8616,7,Jits_ISO_8,2,5,56,103,1601293676
8616,7,Jits_ISO_8,3,1,48,53,1601321804
8616,7,Jits_ISO_8,0,9999,9999,9999,1506491468
8616,7,Jits_ISO_8,1,9999,9999,9999,1507291248
8616,7,Jits_ISO_8,2,9999,9999,9999,1508091964
8616,7,Jits_ISO_8,3,9999,9999,9999,1508891756
8616,7,Jits_ISO_8,4,9999,9999,9999,1509691472
8616,7,Jits_ISO_8,5,9999,9999,9999,1510491256
8616,7,Jits_ISO_8,6,9999,9999,9999,1511291996
8616,7,Jits_ISO_8,7,9999,9999,9999,1512091720
8616,7,Jits_ISO_8,8,9999,9999,9999,1512891452
8616,7,Jits_ISO_8,9,9999,9999,9999,1513691244
8616,7,Jits_ISO_8,10,9999,9999,9999,1514492020
8616,7,Jits_ISO_8,11,9999,9999,9999,1515291736
8616,7,Jits_ISO_8,12,9999,9999,9999,1516091464
8616,7,Jits_ISO_8,13,9999,9999,9999,1516891260
8616,7,Jits_ISO_8,14,9999,9999,9999,1517692004
8616,7,Jits_ISO_8,15,9999,9999,9999,1518491720
8616,7,Jits_ISO_8,16,9999,9999,9999,1519291488
8616,7,Jits_ISO_8,17,9999,9999,9999,1520091240
8616,7,Jits_ISO_8,18,9999,9999,9999,1520892004
8616,7,Jits_ISO_8,19,9999,9999,9999,1521691716
8616,7,Jits_ISO_8,20,9999,9999,9999,1522491500
8616,7,Jits_ISO_8,21,9999,9999,9999,1523291208
8616,7,Jits_ISO_8,22,9999,9999,9999,1524091968
8616,7,Jits_ISO_8,23,9999,9999,9999,1524891752
8616,7,Jits_ISO_8,24,9999,9999,9999,1525691456
8616,7,Jits_ISO_8,25,9999,9999,9999,1526491188
8616,7,Jits_ISO_8,26,9999,9999,9999,1527292020
8616,7,Jits_ISO_8,27,9999,9999,9999,1528091732
8616,7,Jits_ISO_8,28,9999,9999,9999,1528891452
8616,7,Jits_ISO_8,29,9999,9999,9999,1529691188
8616,7,Jits_ISO_8,30,9999,9999,9999,1530492016
8616,7,Jits_ISO_8,31,9999,9999,9999,1531291728
8616,7,Jits_ISO_8,32,9999,9999,9999,1532091448
8616,7,Jits_ISO_8,33,9999,9999,9999,1532891192
8616,7,Jits_ISO_8,34,9999,9999,9999,1533691964
8616,7,Jits_ISO_8,35,9999,9999,9999,1534491756
8616,7,Jits_ISO_8,36,9999,9999,9999,1535291472
8616,7,Jits_ISO_8,37,9999,9999,9999,1536091256
8616,7,Jits_ISO_8,38,9999,9999,9999,1536892024
8616,7,Jits_ISO_8,39,9999,9999,9999,1537691752
8616,7,Jits_ISO_8,40,9999,9999,9999,1538491476
8616,7,Jits_ISO_8,41,9999,9999,9999,1539291228
8616,7,Jits_ISO_8,42,9999,9999,9999,1540091980
8616,7,Jits_ISO_8,43,9999,9999,9999,1540891700
8616,7,Jits_ISO_8,44,9999,9999,9999,1541691464
8616,7,Jits_ISO_8,45,9999,9999,9999,1542491252
8616,7,Jits_ISO_8,46,9999,9999,9999,1543292008
8616,7,Jits_ISO_8,47,9999,9999,9999,1544091724
8616,7,Jits_ISO_8,48,9999,9999,9999,1544891448
8616,7,Jits_ISO_8,49,9999,9999,9999,1545691192
8616,7,Jits_ISO_8,50,9999,9999,9999,1546492020
8616,7,Jits_ISO_8,51,9999,9999,9999,1547291744
8616,7,Jits_ISO_8,52,9999,9999,9999,1548091472
8616,7,Jits_ISO_8,53,9999,9999,9999,1548891188
8616,7,Jits_ISO_8,54,9999,9999,9999,1549692016
8616,7,Jits_ISO_8,55,9999,9999,9999,1550491740
8616,7,Jits_ISO_8,56,9999,9999,9999,1551291448
8616,7,Jits_ISO_8,57,9999,9999,9999,1552091196
8616,7,Jits_ISO_8,58,9999,9999,9999,1552892008
8616,7,Jits_ISO_8,59,9999,9999,9999,1553691748
8616,7,Jits_ISO_8,60,9999,9999,9999,1554491472
8616,7,Jits_ISO_8,61,9999,9999,9999,1555291200
8616,7,Jits_ISO_8,62,9999,9999,9999,1556091968
8616,7,Jits_ISO_8,63,9999,9999,9999,1556891744
8616,7,Jits_ISO_8,64,9999,9999,9999,1557691464
8616,7,Jits_ISO_8,65,9999,9999,9999,1558491200
8616,7,Jits_ISO_8,66,9999,9999,9999,1559292016
8616,7,Jits_ISO_8,67,9999,9999,9999,1560091728
8616,7,Jits_ISO_8,68,9999,9999,9999,1560891460
8616,7,Jits_ISO_8,69,9999,9999,9999,1561691236
8616,7,Jits_ISO_8,70,9999,9999,9999,1562492024
8616,7,Jits_ISO_8,71,9999,9999,9999,1563291756
8616,7,Jits_ISO_8,72,9999,9999,9999,1564091484
8616,7,Jits_ISO_8,73,9999,9999,9999,1564891188
8616,7,Jits_ISO_8,74,9999,9999,9999,1565691972
8616,7,Jits_ISO_8,75,9999,9999,9999,1566491724
8616,7,Jits_ISO_8,76,9999,9999,9999,1567291492
8616,7,Jits_ISO_8,77,9999,9999,9999,1568091224
8616,7,Jits_ISO_8,78,9999,9999,9999,1568892020
8616,7,Jits_ISO_8,79,9999,9999,9999,1569691768
8616,7,Jits_ISO_8,80,9999,9999,9999,1570491468
8616,7,Jits_ISO_8,81,9999,9999,9999,1571291200
8616,7,Jits_ISO_8,82,9999,9999,9999,1572091956
8616,7,Jits_ISO_8,83,9999,9999,9999,1572891736
8616,7,Jits_ISO_8,84,9999,9999,9999,1573691516
8616,7,Jits_ISO_8,85,9999,9999,9999,1574491204
8616,7,Jits_ISO_8,86,9999,9999,9999,1575291956
8616,7,Jits_ISO_8,87,9999,9999,9999,1576091756
8616,7,Jits_ISO_8,88,9999,9999,9999,1576891460
8616,7,Jits_ISO_8,89,9999,9999,9999,1577691200
8616,7,Jits_ISO_8,90,9999,9999,9999,1578491964
8616,7,Jits_ISO_8,91,9999,9999,9999,1579291760
8616,7,Jits_ISO_8,92,9999,9999,9999,1580091484
8616,7,Jits_ISO_8,93,9999,9999,9999,1580891192
8616,7,Jits_ISO_8,94,9999,9999,9999,1581692000
8616,7,Jits_ISO_8,95,9999,9999,9999,1582491724
8616,7,Jits_ISO_8,96,9999,9999,9999,1583291500
8616,7,Jits_ISO_8,97,9999,9999,9999,1584091252
8616,7,Jits_ISO_8,98,9999,9999,9999,1584892008
8616,7,Jits_ISO_8,99,9999,9999,9999,1585691740
8616,7,Jits_ISO_8,100,9999,9999,9999,1586491452
8616,7,Jits_ISO_8,101,9999,9999,9999,1587291240
8616,7,Jits_ISO_8,102,9999,9999,9999,1588091984
8616,7,Jits_ISO_8,103,9999,9999,9999,1588891764
8616,7,Jits_ISO_8,104,9999,9999,9999,1589691476
8616,7,Jits_ISO_8,105,9999,9999,9999,1590491220
8616,7,Jits_ISO_8,106,9999,9999,9999,1591291968
8616,7,Jits_ISO_8,107,9999,9999,9999,1592091732
8616,7,Jits_ISO_8,108,9999,9999,9999,1592891448
8616,7,Jits_ISO_8,109,9999,9999,9999,1593691228
8616,7,Jits_ISO_8,110,9999,9999,9999,1594491988
8616,7,Jits_ISO_8,111,9999,9999,9999,1595291700
8616,7,Jits_ISO_8,112,9999,9999,9999,1596091496
8616,7,Jits_ISO_8,113,9999,9999,9999,1596891248
8616,7,Jits_ISO_8,114,9999,9999,9999,1597692000
8616,7,Jits_ISO_8,115,9999,9999,9999,1598491708
8616,7,Jits_ISO_8,116,9999,9999,9999,1599291512
8616,7,Jits_ISO_8,117,9999,9999,9999,1600091244
8616,7,Jits_ISO_8,118,9999,9999,9999,1600892016
8616,7,Jits_ISO_8,119,9999,9999,9999,1601691732
8617,19,Jits_Linear_5,0,5,56,103,1610502364
8617,19,Jits_Linear_5,1,5,63,98,1610505540
8617,19,Jits_Linear_5,2,5,80,127,1610508736
8617,19,Jits_Linear_5,0,5,56,103,1610982600
8617,19,Jits_Linear_5,1,5,63,98,1610985704
8617,19,Jits_Linear_5,2,5,80,127,1610988976
8617,19,Jits_Linear_5,0,5,56,103,1611462980
8617,19,Jits_Linear_5,1,5,80,127,1611473400
8617,19,Jits_Linear_5,2,5,63,98,1611492688
8617,19,Jits_Linear_5,0,5,63,98,1611892964
8617,19,Jits_Linear_5,1,5,80,127,1611922716
8617,19,Jits_Linear_5,2,5,56,103,1611933132
8617,19,Jits_Linear_5,0,5,80,127,1612432692
8617,19,Jits_Linear_5,1,5,56,103,1612442888
8617,19,Jits_Linear_5,2,5,63,98,1612472564
8617,19,Jits_Linear_5,0,5,63,98,1612912952
8617,19,Jits_Linear_5,1,5,56,103,1612942704
8617,19,Jits_Linear_5,2,5,80,127,1612952900
8617,19,Jits_Linear_5,0,5,56,103,1613353484
8617,19,Jits_Linear_5,1,5,63,98,1613402416
8617,19,Jits_Linear_5,2,5,80,127,1613422952
8617,19,Jits_Linear_5,0,5,80,127,1613842732
8617,19,Jits_Linear_5,1,5,63,98,1613893084
8617,19,Jits_Linear_5,2,5,56,103,1613933024
8617,19,Jits_Linear_5,0,5,56,103,1614333544
8617,19,Jits_Linear_5,1,5,63,98,1614362924
8617,19,Jits_Linear_5,2,5,80,127,1614432608
8617,19,Jits_Linear_5,0,5,56,103,1614822720
8617,19,Jits_Linear_5,1,5,80,127,1614883040
8617,19,Jits_Linear_5,2,5,63,98,1614912864
8617,19,Jits_Linear_5,0,5,56,103,1615322456
8617,19,Jits_Linear_5,1,5,63,98,1615332652
8617,19,Jits_Linear_5,2,5,80,127,1615372668
8617,19,Jits_Linear_5,3,1,48,43,1615523076
8617,19,Jits_Linear_5,0,5,63,98,1615812972
8617,19,Jits_Linear_5,1,5,80,127,1615892944
8617,19,Jits_Linear_5,2,5,56,103,1615903288
8617,19,Jits_Linear_5,3,1,48,51,1615977504
8617,19,Jits_Linear_5,0,5,63,98,1616362812
8617,19,Jits_Linear_5,1,5,56,103,1616402668
8617,19,Jits_Linear_5,2,5,80,127,1616405740
8617,19,Jits_Linear_5,3,1,48,56,1616419048
8617,19,Jits_Linear_5,0,5,56,103,1616822608
8617,19,Jits_Linear_5,1,5,63,98,1616832804
8617,19,Jits_Linear_5,2,5,80,127,1616872692
8617,19,Jits_Linear_5,3,1,48,55,1616908988
8617,19,Jits_Linear_5,0,5,56,103,1617313236
8617,19,Jits_Linear_5,1,5,63,98,1617316080
8617,19,Jits_Linear_5,2,5,80,127,1617332648
8617,19,Jits_Linear_5,3,1,48,57,1617365508
8617,19,Jits_Linear_5,0,1,48,61,1617826748
8617,19,Jits_Linear_5,1,5,80,127,1617833596
8617,19,Jits_Linear_5,2,5,56,103,1617842596
8617,19,Jits_Linear_5,3,5,63,98,1617913276
8617,19,Jits_Linear_5,0,1,48,53,1618324944
8617,19,Jits_Linear_5,1,5,63,98,1618333060
8617,19,Jits_Linear_5,2,5,56,103,1618352476
8617,19,Jits_Linear_5,3,5,80,127,1618433252
8617,19,Jits_Linear_5,0,1,48,58,1618846428
8617,19,Jits_Linear_5,1,5,56,103,1618853428
8617,19,Jits_Linear_5,2,5,80,127,1618893440
8617,19,Jits_Linear_5,3,5,63,98,1618903516
8617,19,Jits_Linear_5,0,1,48,48,1619308724
8617,19,Jits_Linear_5,1,5,80,127,1619352816
8617,19,Jits_Linear_5,2,5,63,98,1619382640
8617,19,Jits_Linear_5,3,5,56,103,1619422516
8617,19,Jits_Linear_5,0,1,48,53,1619851652
8617,19,Jits_Linear_5,1,5,56,103,1619883368
8617,19,Jits_Linear_5,2,5,63,98,1619913192
8617,19,Jits_Linear_5,3,5,80,127,1619963480
8617,19,Jits_Linear_5,0,1,48,69,1620379204
8617,19,Jits_Linear_5,1,5,80,127,1620393472
8617,19,Jits_Linear_5,2,5,56,103,1620433264
8617,19,Jits_Linear_5,3,5,63,98,1620442440
8617,19,Jits_Linear_5,0,5,80,127,1620893388
8617,19,Jits_Linear_5,1,1,48,60,1620913072
8617,19,Jits_Linear_5,2,5,63,98,1620932952
8617,19,Jits_Linear_5,3,5,56,103,1620993368
8617,19,Jits_Linear_5,0,5,56,103,1621413316
8617,19,Jits_Linear_5,1,5,80,127,1621422392
8617,19,Jits_Linear_5,2,1,48,65,1621499024
8617,19,Jits_Linear_5,3,5,63,98,1621503328
8617,19,Jits_Linear_5,0,5,80,127,1621933396
8617,19,Jits_Linear_5,1,1,48,67,1621949092
8617,19,Jits_Linear_5,2,5,63,98,1621992760
8617,19,Jits_Linear_5,3,5,56,103,1622022436
8617,19,Jits_Linear_5,0,5,56,103,1622452656
8617,19,Jits_Linear_5,1,5,80,127,1622513000
8617,19,Jits_Linear_5,2,1,48,59,1622521740
8617,19,Jits_Linear_5,3,5,63,98,1622553080
8617,19,Jits_Linear_5,0,5,56,103,1623033300
8617,19,Jits_Linear_5,1,1,48,66,1623034264
8617,19,Jits_Linear_5,2,5,63,98,1623042364
8617,19,Jits_Linear_5,3,5,80,127,1623045728
8617,19,Jits_Linear_5,0,5,80,127,1623512392
8617,19,Jits_Linear_5,1,1,48,68,1623529588
8617,19,Jits_Linear_5,2,5,63,98,1623602524
8617,19,Jits_Linear_5,3,5,56,103,1623612720
8617,19,Jits_Linear_5,0,5,56,103,1624042796
8617,19,Jits_Linear_5,1,5,63,98,1624045816
8617,19,Jits_Linear_5,2,5,80,127,1624049164
8617,19,Jits_Linear_5,3,1,48,66,1624111336
8617,19,Jits_Linear_5,4,1,48,27,1624201736
8617,19,Jits_Linear_5,0,5,80,127,1624592812
8617,19,Jits_Linear_5,1,1,48,63,1624595484
8617,19,Jits_Linear_5,2,5,63,98,1624642936
8617,19,Jits_Linear_5,3,5,56,103,1624672684
8617,19,Jits_Linear_5,0,5,56,103,1625102632
8617,19,Jits_Linear_5,1,1,48,64,1625109036
8617,19,Jits_Linear_5,2,5,80,127,1625112820
8617,19,Jits_Linear_5,3,5,63,98,1625182576
8617,19,Jits_Linear_5,0,5,56,103,1625643240
8617,19,Jits_Linear_5,1,5,63,98,1625662800
8617,19,Jits_Linear_5,2,1,48,62,1625717836
8617,19,Jits_Linear_5,3,5,80,127,1625723408
8617,19,Jits_Linear_5,0,1,48,57,1626165604
8617,19,Jits_Linear_5,1,5,80,127,1626172752
8617,19,Jits_Linear_5,2,1,48,23,1626235640
8617,19,Jits_Linear_5,3,5,63,98,1626242488
8617,19,Jits_Linear_5,4,5,56,103,1626262876
8617,19,Jits_Linear_5,0,5,80,127,1626733104
8617,19,Jits_Linear_5,1,5,56,103,1626743376
8617,19,Jits_Linear_5,2,1,48,56,1626750160
8617,19,Jits_Linear_5,3,5,63,98,1626753416
8617,19,Jits_Linear_5,4,1,48,29,1626818768
8617,19,Jits_Linear_5,0,1,48,56,1627231696
8617,19,Jits_Linear_5,1,5,80,127,1627263260
8617,19,Jits_Linear_5,2,5,56,103,1627282748
8617,19,Jits_Linear_5,3,1,48,32,1627294172
8617,19,Jits_Linear_5,4,5,63,98,1627352360
8617,19,Jits_Linear_5,0,1,48,65,1627764316
8617,19,Jits_Linear_5,1,5,56,103,1627813196
8617,19,Jits_Linear_5,2,5,80,127,1627842872
8617,19,Jits_Linear_5,3,5,63,98,1627863416
8617,19,Jits_Linear_5,0,5,63,98,1628353188
8617,19,Jits_Linear_5,1,1,48,37,1628355052
8617,19,Jits_Linear_5,2,5,56,103,1628413380
8617,19,Jits_Linear_5,3,5,80,127,1628442980
8617,19,Jits_Linear_5,0,1,48,58,1628882444
8617,19,Jits_Linear_5,1,5,63,98,1628892456
8617,19,Jits_Linear_5,2,5,80,127,1628895744
8617,19,Jits_Linear_5,3,5,56,103,1628982500
8617,19,Jits_Linear_5,0,1,48,61,1629435480
8617,19,Jits_Linear_5,1,5,56,103,1629463228
8617,19,Jits_Linear_5,2,5,63,98,1629492460
8617,19,Jits_Linear_5,3,5,80,127,1629532460
8617,19,Jits_Linear_5,0,1,48,61,1629958612
8617,19,Jits_Linear_5,1,5,63,98,1630012892
8617,19,Jits_Linear_5,2,1,48,33,1630022592
8617,19,Jits_Linear_5,3,5,56,103,1630052812
8617,19,Jits_Linear_5,4,5,80,127,1630073196
8617,19,Jits_Linear_5,0,5,63,98,1630573024
8617,19,Jits_Linear_5,1,1,48,54,1630574664
8617,19,Jits_Linear_5,2,5,56,103,1630612812
8617,19,Jits_Linear_5,3,5,80,127,1630623304
8617,19,Jits_Linear_5,0,5,80,127,1631103284
8617,19,Jits_Linear_5,1,1,48,68,1631127448
8617,19,Jits_Linear_5,2,5,63,98,1631173408
8617,19,Jits_Linear_5,3,5,56,103,1631192324
8617,19,Jits_Linear_5,0,5,56,103,1631653184
8617,19,Jits_Linear_5,1,5,80,127,1631672820
8617,19,Jits_Linear_5,2,1,48,63,1631687472
8617,19,Jits_Linear_5,3,5,63,98,1631712628
8617,19,Jits_Linear_5,0,1,48,58,1632169692
8617,19,Jits_Linear_5,1,1,48,32,1632217504
8617,19,Jits_Linear_5,2,5,63,98,1632222708
8617,19,Jits_Linear_5,3,5,80,127,1632243092
8617,19,Jits_Linear_5,4,5,56,103,1632283256
8617,19,Jits_Linear_5,0,5,63,98,1632782632
8617,19,Jits_Linear_5,1,1,48,54,1632796312
8617,19,Jits_Linear_5,2,5,56,103,1632803308
8617,19,Jits_Linear_5,3,5,80,127,1632813356
8617,19,Jits_Linear_5,0,5,80,127,1633342852
8617,19,Jits_Linear_5,1,1,48,52,1633355556
8617,19,Jits_Linear_5,2,5,56,103,1633363228
8617,19,Jits_Linear_5,3,5,63,98,1633393128
8617,19,Jits_Linear_5,0,1,48,57,1633910236
8617,19,Jits_Linear_5,1,5,56,103,1633982876
8617,19,Jits_Linear_5,2,5,80,127,1633985792
8617,19,Jits_Linear_5,3,5,63,98,1634003260
8617,19,Jits_Linear_5,0,5,63,98,1634473424
8617,19,Jits_Linear_5,1,5,56,103,1634503100
8617,19,Jits_Linear_5,2,1,48,55,1634505692
8617,19,Jits_Linear_5,3,5,80,127,1634562464
8617,19,Jits_Linear_5,0,1,48,52,1635046000
8617,19,Jits_Linear_5,1,5,63,98,1635122528
8617,19,Jits_Linear_5,2,5,56,103,1635132728
8617,19,Jits_Linear_5,3,5,80,127,1635143128
8617,19,Jits_Linear_5,0,5,56,103,1635642608
8617,19,Jits_Linear_5,1,1,48,56,1635652700
8617,19,Jits_Linear_5,2,5,80,127,1635672352
8617,19,Jits_Linear_5,3,5,63,98,1635682548
8617,19,Jits_Linear_5,0,1,48,54,1636210440
8617,19,Jits_Linear_5,1,5,63,98,1636263228
8617,19,Jits_Linear_5,2,5,56,103,1636272456
8617,19,Jits_Linear_5,3,5,80,127,1636293212
8617,19,Jits_Linear_5,0,5,56,103,1636763148
8617,19,Jits_Linear_5,1,1,48,54,1636800052
8617,19,Jits_Linear_5,2,5,63,98,1636823412
8617,19,Jits_Linear_5,3,5,80,127,1636826772
8617,19,Jits_Linear_5,4,1,48,35,1636843824
8617,19,Jits_Linear_5,0,1,48,59,1637360340
8617,19,Jits_Linear_5,1,5,80,127,1637363228
8617,19,Jits_Linear_5,2,5,56,103,1637373352
8617,19,Jits_Linear_5,3,5,63,98,1637442956
8617,19,Jits_Linear_5,0,5,80,127,1637933424
8617,19,Jits_Linear_5,1,5,56,103,1638003036
8617,19,Jits_Linear_5,2,1,48,61,1638009740
8617,19,Jits_Linear_5,3,5,63,98,1638013224
8617,19,Jits_Linear_5,4,1,48,32,1638077304
8617,19,Jits_Linear_5,0,5,63,98,1638553200
8617,19,Jits_Linear_5,1,5,56,103,1638563324
8617,19,Jits_Linear_5,2,1,48,61,1638576780
8617,19,Jits_Linear_5,3,5,80,127,1638582580
8617,19,Jits_Linear_5,4,1,48,35,1638639792
8617,19,Jits_Linear_5,0,5,80,127,1639083352
8617,19,Jits_Linear_5,1,5,63,98,1639142724
8617,19,Jits_Linear_5,2,1,48,56,1639151612
8617,19,Jits_Linear_5,3,5,56,103,1639182656
8617,19,Jits_Linear_5,0,5,56,103,1639713072
8617,19,Jits_Linear_5,1,5,63,98,1639723340
8617,19,Jits_Linear_5,2,5,80,127,1639763356
8617,19,Jits_Linear_5,3,1,48,56,1639784084
8617,19,Jits_Linear_5,0,5,56,103,1640263264
8617,19,Jits_Linear_5,1,5,80,127,1640292792
8617,19,Jits_Linear_5,2,5,63,98,1640342924
8617,19,Jits_Linear_5,3,1,48,65,1640353236
8617,19,Jits_Linear_5,0,5,56,103,1640892732
8617,19,Jits_Linear_5,1,1,48,49,1640918420
8617,19,Jits_Linear_5,2,5,63,98,1640932688
8617,19,Jits_Linear_5,3,5,80,127,1640936276
8617,19,Jits_Linear_5,0,5,56,103,1641482508
8617,19,Jits_Linear_5,1,1,48,63,1641488768
8617,19,Jits_Linear_5,2,5,63,98,1641493144
8617,19,Jits_Linear_5,3,5,80,127,1641513308
8617,19,Jits_Linear_5,0,5,56,103,1642032476
8617,19,Jits_Linear_5,1,5,80,127,1642035468
8617,19,Jits_Linear_5,2,5,63,98,1642072564
8617,19,Jits_Linear_5,3,1,48,59,1642102060
8617,19,Jits_Linear_5,0,5,63,98,1642663352
8617,19,Jits_Linear_5,1,5,56,103,1642693180
8617,19,Jits_Linear_5,2,1,48,76,1642702076
8617,19,Jits_Linear_5,3,5,80,127,1642712536
8617,19,Jits_Linear_5,4,1,48,23,1642827936
8617,19,Jits_Linear_5,0,5,80,127,1643232564
8617,19,Jits_Linear_5,1,1,48,64,1643242456
8617,19,Jits_Linear_5,2,5,56,103,1643244024
8617,19,Jits_Linear_5,3,5,63,98,1643253248
8617,19,Jits_Linear_5,4,1,48,31,1643313820
8617,19,Jits_Linear_5,0,5,56,103,1643832704
8617,19,Jits_Linear_5,1,1,48,67,1643871892
8617,19,Jits_Linear_5,2,5,80,127,1643873540
8617,19,Jits_Linear_5,3,5,63,98,1643903364
8617,19,Jits_Linear_5,4,1,48,38,1643920240
8617,19,Jits_Linear_5,0,5,63,98,1644443188
8617,19,Jits_Linear_5,1,5,80,127,1644453236
8617,19,Jits_Linear_5,2,5,56,103,1644462384
8617,19,Jits_Linear_5,3,1,48,66,1644472848
8617,19,Jits_Linear_5,4,1,48,39,1644522968
8617,19,Jits_Linear_5,0,5,56,103,1645022584
8617,19,Jits_Linear_5,1,5,63,98,1645093244
8617,19,Jits_Linear_5,2,5,80,127,1645102544
8617,19,Jits_Linear_5,3,1,48,60,1645103952
8617,19,Jits_Linear_5,4,1,48,35,1645158220
8617,19,Jits_Linear_5,0,5,80,127,1645633140
8617,19,Jits_Linear_5,1,5,56,103,1645643116
8617,19,Jits_Linear_5,2,5,63,98,1645693168
8617,19,Jits_Linear_5,3,1,48,58,1645696064
8617,19,Jits_Linear_5,0,5,80,127,1646253464
8617,19,Jits_Linear_5,1,1,48,67,1646311392
8617,19,Jits_Linear_5,2,5,56,103,1646312976
8617,19,Jits_Linear_5,3,5,63,98,1646342652
8617,19,Jits_Linear_5,0,5,56,103,1646862652
8617,19,Jits_Linear_5,1,5,80,127,1646865716
8617,19,Jits_Linear_5,2,5,63,98,1646902516
8617,19,Jits_Linear_5,3,1,48,53,1646942352
8617,19,Jits_Linear_5,0,5,56,103,1647502892
8617,19,Jits_Linear_5,1,1,48,57,1647514932
8617,19,Jits_Linear_5,2,5,63,98,1647533388
8617,19,Jits_Linear_5,3,5,80,127,1647542536
8617,19,Jits_Linear_5,0,5,63,98,1648123248
8617,19,Jits_Linear_5,1,5,80,127,1648132472
8617,19,Jits_Linear_5,2,5,56,103,1648142668
8617,19,Jits_Linear_5,3,1,48,57,1648156724
8617,19,Jits_Linear_5,0,5,80,127,1648683468
8617,19,Jits_Linear_5,1,5,56,103,1648732476
8617,19,Jits_Linear_5,2,5,63,98,1648735396
8617,19,Jits_Linear_5,3,1,48,61,1648794108
8617,19,Jits_Linear_5,0,5,56,103,1649332480
8617,19,Jits_Linear_5,1,5,80,127,1649353016
8617,19,Jits_Linear_5,2,5,63,98,1649363284
8617,19,Jits_Linear_5,3,1,48,65,1649409200
8617,19,Jits_Linear_5,0,5,63,98,1649932672
8617,19,Jits_Linear_5,1,5,56,103,1649963396
8617,19,Jits_Linear_5,2,1,48,62,1649983028
8617,19,Jits_Linear_5,3,5,80,127,1649984292
8617,19,Jits_Linear_5,0,5,56,103,1650562416
8617,19,Jits_Linear_5,1,1,48,52,1650563384
8617,19,Jits_Linear_5,2,5,80,127,1650572608
8617,19,Jits_Linear_5,3,5,63,98,1650643188
8617,19,Jits_Linear_5,0,5,63,98,1651172868
8617,19,Jits_Linear_5,1,5,80,127,1651212736
8617,19,Jits_Linear_5,2,1,48,69,1651226564
8617,19,Jits_Linear_5,3,5,56,103,1651252668
8617,19,Jits_Linear_5,0,5,56,103,1651812960
8617,19,Jits_Linear_5,1,5,63,98,1651823160
8617,19,Jits_Linear_5,2,5,80,127,1651842348
8617,19,Jits_Linear_5,3,1,48,53,1651846216
8617,19,Jits_Linear_5,0,1,48,68,1652464968
8617,19,Jits_Linear_5,1,5,63,98,1652482456
8617,19,Jits_Linear_5,2,5,80,127,1652503140
8617,19,Jits_Linear_5,3,5,56,103,1652523448
8617,19,Jits_Linear_5,0,5,56,103,1653052800
8617,19,Jits_Linear_5,1,1,48,63,1653080648
8617,19,Jits_Linear_5,2,5,80,127,1653132816
8617,19,Jits_Linear_5,3,5,63,98,1653143084
8617,19,Jits_Linear_5,0,5,80,127,1653722524
8617,19,Jits_Linear_5,1,5,63,98,1653732944
8617,19,Jits_Linear_5,2,1,48,61,1653738008
8617,19,Jits_Linear_5,3,5,56,103,1653762392
8617,19,Jits_Linear_5,0,5,63,98,1654313328
8617,19,Jits_Linear_5,1,1,48,62,1654351300
8617,19,Jits_Linear_5,2,5,80,127,1654353188
8617,19,Jits_Linear_5,3,5,56,103,1654412608
8617,19,Jits_Linear_5,0,5,63,98,1654953420
8617,19,Jits_Linear_5,1,5,56,103,1655002528
8617,19,Jits_Linear_5,2,1,48,55,1655032796
8617,19,Jits_Linear_5,3,5,80,127,1655034288
8617,19,Jits_Linear_5,0,5,80,127,1655602676
8617,19,Jits_Linear_5,1,5,63,98,1655612872
8617,19,Jits_Linear_5,2,1,48,59,1655618084
8617,19,Jits_Linear_5,3,5,56,103,1655682396
8617,19,Jits_Linear_5,0,1,48,53,1656290432
8617,19,Jits_Linear_5,1,5,80,127,1656313228
8617,19,Jits_Linear_5,2,5,56,103,1656322296
8617,19,Jits_Linear_5,3,5,63,98,1656325592
8617,19,Jits_Linear_5,0,5,56,103,1656893004
8617,19,Jits_Linear_5,1,5,80,127,1656913168
8617,19,Jits_Linear_5,2,5,63,98,1656922540
8617,19,Jits_Linear_5,3,1,48,50,1656928800
8617,19,Jits_Linear_5,0,1,48,47,1657541252
8617,19,Jits_Linear_5,1,5,63,98,1657542992
8617,19,Jits_Linear_5,2,5,56,103,1657582956
8617,19,Jits_Linear_5,3,5,80,127,1657602368
8617,19,Jits_Linear_5,0,1,48,45,1658192932
8617,19,Jits_Linear_5,1,5,63,98,1658194272
8617,19,Jits_Linear_5,2,5,56,103,1658252796
8617,19,Jits_Linear_5,3,5,80,127,1658255784
8617,19,Jits_Linear_5,0,5,56,103,1658802524
8617,19,Jits_Linear_5,1,5,80,127,1658822984
8617,19,Jits_Linear_5,2,1,48,58,1658839528
8617,19,Jits_Linear_5,3,5,63,98,1658862940
8617,19,Jits_Linear_5,0,1,48,50,1659425832
8617,19,Jits_Linear_5,1,5,56,103,1659482428
8617,19,Jits_Linear_5,2,5,63,98,1659502960
8617,19,Jits_Linear_5,3,5,80,127,1659513156
8617,19,Jits_Linear_5,0,1,48,45,1660087936
8617,19,Jits_Linear_5,1,5,80,127,1660103032
8617,19,Jits_Linear_5,2,5,56,103,1660132880
8617,19,Jits_Linear_5,3,5,63,98,1660172748
8617,19,Jits_Linear_5,0,5,80,127,1660762556
8617,19,Jits_Linear_5,1,5,56,103,1660782940
8617,19,Jits_Linear_5,2,1,48,52,1660795796
8617,19,Jits_Linear_5,3,5,63,98,1660843324
8617,19,Jits_Linear_5,0,1,48,48,1661398300
8617,19,Jits_Linear_5,1,5,56,103,1661422908
8617,19,Jits_Linear_5,2,5,80,127,1661442320
8617,19,Jits_Linear_5,3,5,63,98,1661502772
8617,19,Jits_Linear_5,0,5,80,127,1662063076
8617,19,Jits_Linear_5,1,5,56,103,1662073200
8617,19,Jits_Linear_5,2,5,63,98,1662113064
8617,19,Jits_Linear_5,3,1,48,48,1662129660
8617,19,Jits_Linear_5,0,5,63,98,1662722532
8617,19,Jits_Linear_5,1,5,56,103,1662763292
8617,19,Jits_Linear_5,2,5,80,127,1662766440
8617,19,Jits_Linear_5,3,1,48,59,1662787536
8617,19,Jits_Linear_5,0,5,63,98,1663403296
8617,19,Jits_Linear_5,1,1,48,47,1663405232
8617,19,Jits_Linear_5,2,5,80,127,1663443228
8617,19,Jits_Linear_5,3,5,56,103,1663473000
8617,19,Jits_Linear_5,0,5,56,103,1664052696
8617,19,Jits_Linear_5,1,5,63,98,1664062968
8617,19,Jits_Linear_5,2,5,80,127,1664092716
8617,19,Jits_Linear_5,3,1,48,55,1664124752
8617,19,Jits_Linear_5,0,5,80,127,1664712948
8617,19,Jits_Linear_5,1,1,48,43,1664735192
8617,19,Jits_Linear_5,2,5,63,98,1664782876
8617,19,Jits_Linear_5,3,5,56,103,1664793000
8617,19,Jits_Linear_5,0,5,63,98,1665382748
8617,19,Jits_Linear_5,1,1,48,48,1665436136
8617,19,Jits_Linear_5,2,5,56,103,1665453324
8617,19,Jits_Linear_5,3,5,80,127,1665462844
8617,19,Jits_Linear_5,0,5,63,98,1666052600
8617,19,Jits_Linear_5,1,5,56,103,1666072836
8617,19,Jits_Linear_5,2,1,48,43,1666077448
8617,19,Jits_Linear_5,3,5,80,127,1666112768
8617,19,Jits_Linear_5,0,1,48,65,1666710788
8617,19,Jits_Linear_5,1,5,56,103,1666733284
8617,19,Jits_Linear_5,2,5,63,98,1666742732
8617,19,Jits_Linear_5,3,5,80,127,1666822616
8617,19,Jits_Linear_5,0,5,63,98,1667392812
8617,19,Jits_Linear_5,1,1,48,48,1667407760
8617,19,Jits_Linear_5,2,5,56,103,1667422556
8617,19,Jits_Linear_5,3,5,80,127,1667462796
8617,19,Jits_Linear_5,0,1,48,50,1668040636
8617,19,Jits_Linear_5,1,5,56,103,1668062660
8617,19,Jits_Linear_5,2,5,63,98,1668102748
8617,19,Jits_Linear_5,3,5,80,127,1668142376
8617,19,Jits_Linear_5,0,1,48,43,1668729752
8617,19,Jits_Linear_5,1,5,80,127,1668742604
8617,19,Jits_Linear_5,2,5,56,103,1668823552
8617,19,Jits_Linear_5,3,5,63,98,1668832760
8617,19,Jits_Linear_5,0,1,48,54,1669423676
8617,19,Jits_Linear_5,1,5,56,103,1669463332
8617,19,Jits_Linear_5,2,5,63,98,1669466400
8617,19,Jits_Linear_5,3,5,80,127,1669472780
8617,19,Jits_Linear_5,0,1,48,49,1670113152
8617,19,Jits_Linear_5,1,5,56,103,1670162928
8617,19,Jits_Linear_5,2,5,63,98,1670183240
8617,19,Jits_Linear_5,3,5,80,127,1670192616
8617,19,Jits_Linear_5,0,1,48,46,1670795728
8617,19,Jits_Linear_5,1,5,63,98,1670802724
8617,19,Jits_Linear_5,2,5,80,127,1670813144
8617,19,Jits_Linear_5,3,5,56,103,1670832632
8617,19,Jits_Linear_5,0,1,48,46,1671472704
8617,19,Jits_Linear_5,1,5,63,98,1671493036
8617,19,Jits_Linear_5,2,5,56,103,1671573728
8617,19,Jits_Linear_5,3,5,80,127,1671576932
8617,19,Jits_Linear_5,0,1,48,54,1672135036
8617,19,Jits_Linear_5,1,5,63,98,1672183192
8617,19,Jits_Linear_5,2,5,56,103,1672202604
8617,19,Jits_Linear_5,3,5,80,127,1672233252
8617,19,Jits_Linear_5,0,1,48,50,1672840248
8617,19,Jits_Linear_5,1,5,56,103,1672873624
8617,19,Jits_Linear_5,2,5,63,98,1672892740
8617,19,Jits_Linear_5,3,5,80,127,1672903084
8617,19,Jits_Linear_5,0,1,48,52,1673528012
8617,19,Jits_Linear_5,1,5,56,103,1673593156
8617,19,Jits_Linear_5,2,5,63,98,1673622908
8617,19,Jits_Linear_5,3,5,80,127,1673626344
8617,19,Jits_Linear_5,0,5,56,103,1674233188
8617,19,Jits_Linear_5,1,1,48,56,1674251000
8617,19,Jits_Linear_5,2,5,63,98,1674273124
8617,19,Jits_Linear_5,3,5,80,127,1674332544
8617,19,Jits_Linear_5,0,5,56,103,1674942824
8617,19,Jits_Linear_5,1,5,63,98,1674952948
8617,19,Jits_Linear_5,2,1,48,57,1674977064
8617,19,Jits_Linear_5,3,5,80,127,1675012608
8617,19,Jits_Linear_5,0,5,56,103,1675643116
8617,19,Jits_Linear_5,1,1,48,59,1675644080
8617,19,Jits_Linear_5,2,5,80,127,1675662820
8617,19,Jits_Linear_5,3,5,63,98,1675693840
8617,19,Jits_Linear_5,0,5,80,127,1676342660
8617,19,Jits_Linear_5,1,5,56,103,1676352856
8617,19,Jits_Linear_5,2,5,63,98,1676373612
8617,19,Jits_Linear_5,3,1,48,51,1676386696
8617,19,Jits_Linear_5,0,5,63,98,1677032680
8617,19,Jits_Linear_5,1,1,48,50,1677044416
8617,19,Jits_Linear_5,2,5,80,127,1677112696
8617,19,Jits_Linear_5,3,5,56,103,1677122968
8617,19,Jits_Linear_5,0,1,48,56,1677784848
8617,19,Jits_Linear_5,1,5,80,127,1677792744
8617,19,Jits_Linear_5,2,5,56,103,1677813052
8617,19,Jits_Linear_5,3,5,63,98,1677816416
8617,19,Jits_Linear_5,0,5,63,98,1678472536
8617,19,Jits_Linear_5,1,5,80,127,1678475900
8617,19,Jits_Linear_5,2,1,48,54,1678488308
8617,19,Jits_Linear_5,3,5,56,103,1678533072
8617,19,Jits_Linear_5,0,5,56,103,1679162616
8617,19,Jits_Linear_5,1,5,80,127,1679173108
8617,19,Jits_Linear_5,2,1,48,47,1679211616
8617,19,Jits_Linear_5,3,5,63,98,1679213192
8617,19,Jits_Linear_5,0,5,56,103,1679853012
8617,19,Jits_Linear_5,1,5,63,98,1679913256
8617,19,Jits_Linear_5,2,1,48,51,1679914968
8617,19,Jits_Linear_5,3,5,80,127,1679922772
8617,19,Jits_Linear_5,0,1,48,50,1680563360
8617,19,Jits_Linear_5,1,5,63,98,1680572748
8617,19,Jits_Linear_5,2,5,80,127,1680612864
8617,19,Jits_Linear_5,3,5,56,103,1680652652
8617,19,Jits_Linear_5,0,5,56,103,1681282616
8617,19,Jits_Linear_5,1,1,48,52,1681289476
8617,19,Jits_Linear_5,2,5,63,98,1681363456
8617,19,Jits_Linear_5,3,5,80,127,1681366744
8617,19,Jits_Linear_5,0,1,48,58,1681952052
8617,19,Jits_Linear_5,1,5,80,127,1682052684
8617,19,Jits_Linear_5,2,5,56,103,1682083556
8617,19,Jits_Linear_5,3,5,63,98,1682086544
8617,19,Jits_Linear_5,0,5,56,103,1682733564
8617,19,Jits_Linear_5,1,1,48,55,1682734972
8617,19,Jits_Linear_5,2,5,80,127,1682752820
8617,19,Jits_Linear_5,3,5,63,98,1682792760
8617,19,Jits_Linear_5,0,1,48,55,1683408756
8617,19,Jits_Linear_5,1,5,80,127,1683432720
8617,19,Jits_Linear_5,2,5,63,98,1683453480
8617,19,Jits_Linear_5,3,5,56,103,1683512584
8617,19,Jits_Linear_5,0,1,48,48,1684129860
8617,19,Jits_Linear_5,1,5,63,98,1684162788
8617,19,Jits_Linear_5,2,5,56,103,1684173356
8617,19,Jits_Linear_5,3,5,80,127,1684223568
8617,19,Jits_Linear_5,0,1,48,64,1684832764
8617,19,Jits_Linear_5,1,5,56,103,1684872648
8617,19,Jits_Linear_5,2,5,63,98,1684892960
8617,19,Jits_Linear_5,3,5,80,127,1684903456
8617,19,Jits_Linear_5,0,1,48,54,1685568384
8617,19,Jits_Linear_5,1,5,56,103,1685592396
8617,19,Jits_Linear_5,2,5,63,98,1685595536
8617,19,Jits_Linear_5,3,5,80,127,1685612856
8617,19,Jits_Linear_5,0,1,48,59,1686229824
8617,19,Jits_Linear_5,1,5,63,98,1686362620
8617,19,Jits_Linear_5,2,5,56,103,1686393416
8617,19,Jits_Linear_5,3,5,80,127,1686422868
8617,19,Jits_Linear_5,0,1,48,51,1686952784
8617,19,Jits_Linear_5,1,5,80,127,1687052624
8617,19,Jits_Linear_5,2,5,56,103,1687142760
8617,19,Jits_Linear_5,3,5,63,98,1687145972
8617,19,Jits_Linear_5,0,1,48,56,1687688332
8617,19,Jits_Linear_5,1,5,56,103,1687782856
8617,19,Jits_Linear_5,2,5,80,127,1687785848
8617,19,Jits_Linear_5,3,5,63,98,1687862576
8617,19,Jits_Linear_5,0,5,80,127,1688512856
8617,19,Jits_Linear_5,1,1,48,44,1688549184
8617,19,Jits_Linear_5,2,5,63,98,1688573420
8617,19,Jits_Linear_5,3,5,56,103,1688602948
8617,19,Jits_Linear_5,0,5,63,98,1689242892
8617,19,Jits_Linear_5,1,5,80,127,1689253164
8617,19,Jits_Linear_5,2,1,48,42,1689298828
8617,19,Jits_Linear_5,3,5,56,103,1689322768
8617,19,Jits_Linear_5,0,1,48,49,1689952476
8617,19,Jits_Linear_5,1,5,56,103,1689992580
8617,19,Jits_Linear_5,2,5,80,127,1690023528
8617,19,Jits_Linear_5,3,5,63,98,1690072620
8617,19,Jits_Linear_5,0,1,48,57,1690686972
8617,19,Jits_Linear_5,1,5,63,98,1690772796
8617,19,Jits_Linear_5,2,5,56,103,1690802452
8617,19,Jits_Linear_5,3,5,80,127,1690805596
8617,19,Jits_Linear_5,0,1,48,52,1691442768
8617,19,Jits_Linear_5,1,5,63,98,1691513148
8617,19,Jits_Linear_5,2,5,80,127,1691532632
8617,19,Jits_Linear_5,3,5,56,103,1691542816
8617,19,Jits_Linear_5,0,1,48,51,1692190376
8617,19,Jits_Linear_5,1,5,56,103,1692262720
8617,19,Jits_Linear_5,2,5,63,98,1692265784
8617,19,Jits_Linear_5,3,5,80,127,1692283476
8617,19,Jits_Linear_5,0,1,48,53,1692934852
8617,19,Jits_Linear_5,1,5,56,103,1692963424
8617,19,Jits_Linear_5,2,5,63,98,1692973548
8617,19,Jits_Linear_5,3,5,80,127,1693003000
8617,19,Jits_Linear_5,4,1,48,18,1693034652
8617,19,Jits_Linear_5,0,1,48,61,1693626672
8617,19,Jits_Linear_5,1,5,63,98,1693733480
8617,19,Jits_Linear_5,2,5,80,127,1693752596
8617,19,Jits_Linear_5,3,5,56,103,1693792612
8617,19,Jits_Linear_5,0,1,48,54,1694455468
8617,19,Jits_Linear_5,1,5,56,103,1694512520
8617,19,Jits_Linear_5,2,5,63,98,1694552456
8617,19,Jits_Linear_5,3,5,80,127,1694556480
8617,19,Jits_Linear_5,0,1,48,49,1695187280
8617,19,Jits_Linear_5,1,5,80,127,1695202672
8617,19,Jits_Linear_5,2,5,56,103,1695242464
8617,19,Jits_Linear_5,3,5,63,98,1695292728
8617,19,Jits_Linear_5,0,1,48,53,1696001076
8617,19,Jits_Linear_5,1,5,56,103,1696012636
8617,19,Jits_Linear_5,2,5,80,127,1696022832
8617,19,Jits_Linear_5,3,5,63,98,1696052584
8617,19,Jits_Linear_5,0,1,48,58,1696671200
8617,19,Jits_Linear_5,1,5,56,103,1696713256
8617,19,Jits_Linear_5,2,5,80,127,1696753220
8617,19,Jits_Linear_5,3,5,63,98,1696803408
8617,19,Jits_Linear_5,0,1,48,47,1697458596
8617,19,Jits_Linear_5,1,5,56,103,1697472944
8617,19,Jits_Linear_5,2,5,80,127,1697512760
8617,19,Jits_Linear_5,3,5,63,98,1697562872
8617,19,Jits_Linear_5,0,1,48,48,1698175284
8617,19,Jits_Linear_5,1,5,80,127,1698222440
8617,19,Jits_Linear_5,2,5,63,98,1698303524
8617,19,Jits_Linear_5,3,5,56,103,1698312596
8617,19,Jits_Linear_5,0,1,48,49,1699016488
8617,19,Jits_Linear_5,1,5,80,127,1699032356
8617,19,Jits_Linear_5,2,5,56,103,1699042628
8617,19,Jits_Linear_5,3,5,63,98,1699063308
8617,19,Jits_Linear_5,0,1,48,56,1699725900
8617,19,Jits_Linear_5,1,5,63,98,1699762572
8617,19,Jits_Linear_5,2,5,56,103,1699833312
8617,19,Jits_Linear_5,3,5,80,127,1699836228
8617,19,Jits_Linear_5,0,1,48,51,1700489844
8617,19,Jits_Linear_5,1,5,80,127,1700523372
8617,19,Jits_Linear_5,2,5,63,98,1700572484
8617,19,Jits_Linear_5,3,5,56,103,1700612404
8617,19,Jits_Linear_5,0,1,48,58,1701327088
8617,19,Jits_Linear_5,1,5,63,98,1701333360
8617,19,Jits_Linear_5,2,5,56,103,1701373224
8617,19,Jits_Linear_5,3,5,80,127,1701382448
8617,19,Jits_Linear_5,0,1,48,50,1702085424
8617,19,Jits_Linear_5,1,5,63,98,1702093172
8617,19,Jits_Linear_5,2,5,56,103,1702112612
8617,19,Jits_Linear_5,3,5,80,127,1702133220
8617,19,Jits_Linear_5,0,5,80,127,1702823344
8617,19,Jits_Linear_5,1,5,56,103,1702832496
8617,19,Jits_Linear_5,2,1,48,51,1702833980
8617,19,Jits_Linear_5,3,5,63,98,1702853172
8617,19,Jits_Linear_5,0,1,48,49,1703545392
8617,19,Jits_Linear_5,1,5,63,98,1703622896
8617,19,Jits_Linear_5,2,5,56,103,1703662848
8617,19,Jits_Linear_5,3,5,80,127,1703692672
8617,19,Jits_Linear_5,0,1,48,50,1704292432
8617,19,Jits_Linear_5,1,5,56,103,1704403348
8617,19,Jits_Linear_5,2,5,63,98,1704433100
8617,19,Jits_Linear_5,3,5,80,127,1704462628
8617,19,Jits_Linear_5,0,1,48,43,1705132732
8617,19,Jits_Linear_5,1,5,80,127,1705152836
8617,19,Jits_Linear_5,2,5,56,103,1705222472
8617,19,Jits_Linear_5,3,5,63,98,1705225536
8617,19,Jits_Linear_5,0,1,48,51,1705919068
8617,19,Jits_Linear_5,1,5,56,103,1705943408
8617,19,Jits_Linear_5,2,5,63,98,1705992564
8617,19,Jits_Linear_5,3,5,80,127,1706023196
8617,19,Jits_Linear_5,0,5,63,98,1706703296
8617,19,Jits_Linear_5,1,5,80,127,1706706684
8617,19,Jits_Linear_5,2,1,48,51,1706736108
8617,19,Jits_Linear_5,3,5,56,103,1706762660
8617,19,Jits_Linear_5,0,5,56,103,1707513344
8617,19,Jits_Linear_5,1,1,48,51,1707521368
8617,19,Jits_Linear_5,2,5,80,127,1707523088
8617,19,Jits_Linear_5,3,5,63,98,1707572616
8617,19,Jits_Linear_5,0,1,48,53,1708270232
8617,19,Jits_Linear_5,1,5,63,98,1708273192
8617,19,Jits_Linear_5,2,5,56,103,1708283388
8617,19,Jits_Linear_5,3,5,80,127,1708312916
8617,19,Jits_Linear_5,0,1,48,54,1708995656
8617,19,Jits_Linear_5,1,5,63,98,1709093184
8617,19,Jits_Linear_5,2,5,80,127,1709097656
8617,19,Jits_Linear_5,3,5,56,103,1709123144
8617,19,Jits_Linear_5,0,1,48,48,1709774212
8617,19,Jits_Linear_5,1,5,63,98,1709903196
8617,19,Jits_Linear_5,2,5,56,103,1709922608
8617,19,Jits_Linear_5,3,5,80,127,1709925896
8617,19,Jits_Linear_5,0,5,63,98,1710652780
8617,19,Jits_Linear_5,1,1,48,54,1710700168
8617,19,Jits_Linear_5,2,5,56,103,1710722384
8617,19,Jits_Linear_5,3,5,80,127,1710742844
8617,19,Jits_Linear_5,0,5,56,103,1711433296
8617,19,Jits_Linear_5,1,5,63,98,1711443268
8617,19,Jits_Linear_5,2,5,80,127,1711533476
8617,19,Jits_Linear_5,3,1,48,53,1711561472
8617,19,Jits_Linear_5,0,1,48,50,1712228312
8617,19,Jits_Linear_5,1,5,56,103,1712243332
8617,19,Jits_Linear_5,2,5,80,127,1712283052
8617,19,Jits_Linear_5,3,5,63,98,1712293248
8617,19,Jits_Linear_5,0,1,48,46,1712996472
8617,19,Jits_Linear_5,1,5,56,103,1713063408
8617,19,Jits_Linear_5,2,5,63,98,1713093084
8617,19,Jits_Linear_5,3,5,80,127,1713122624
8617,19,Jits_Linear_5,0,5,80,127,1713823328
8617,19,Jits_Linear_5,1,5,63,98,1713863120
8617,19,Jits_Linear_5,2,5,56,103,1713882408
8617,19,Jits_Linear_5,3,1,48,39,1713883520
8617,19,Jits_Linear_5,0,5,56,103,1714662844
8617,19,Jits_Linear_5,1,1,48,40,1714681868
8617,19,Jits_Linear_5,2,5,80,127,1714683300
8617,19,Jits_Linear_5,3,5,63,98,1714702712
8617,19,Jits_Linear_5,0,5,63,98,1715433036
8617,19,Jits_Linear_5,1,1,48,40,1715437800
8617,19,Jits_Linear_5,2,5,56,103,1715443300
8617,19,Jits_Linear_5,3,5,80,127,1715502344
8617,19,Jits_Linear_5,0,5,56,103,1716242692
8617,19,Jits_Linear_5,1,1,48,53,1716255928
8617,19,Jits_Linear_5,2,5,63,98,1716312372
8617,19,Jits_Linear_5,3,5,80,127,1716332980
8617,19,Jits_Linear_5,0,5,56,103,1717052884
8617,19,Jits_Linear_5,1,5,63,98,1717082412
8617,19,Jits_Linear_5,2,5,80,127,1717122276
8617,19,Jits_Linear_5,3,1,48,47,1717166596
8617,19,Jits_Linear_5,0,1,48,42,1717806772
8617,19,Jits_Linear_5,1,5,63,98,1717852436
8617,19,Jits_Linear_5,2,5,56,103,1717902644
8617,19,Jits_Linear_5,3,5,80,127,1717913044
8617,19,Jits_Linear_5,0,1,48,50,1718648944
8617,19,Jits_Linear_5,1,5,56,103,1718702404
8617,19,Jits_Linear_5,2,5,63,98,1718752544
8617,19,Jits_Linear_5,3,5,80,127,1718763112
8617,19,Jits_Linear_5,0,1,48,50,1719376120
8617,19,Jits_Linear_5,1,1,48,24,1719445032
8617,19,Jits_Linear_5,2,5,56,103,1719482748
8617,19,Jits_Linear_5,3,5,63,98,1719493096
8617,19,Jits_Linear_5,4,5,80,127,1719573052
8617,19,Jits_Linear_5,0,9999,9999,9999,1610740824
8617,19,Jits_Linear_5,1,9999,9999,9999,1611221112
8617,19,Jits_Linear_5,2,9999,9999,9999,1611700316
8617,19,Jits_Linear_5,3,9999,9999,9999,1612180568
8617,19,Jits_Linear_5,4,9999,9999,9999,1612660812
8617,19,Jits_Linear_5,5,9999,9999,9999,1613150292
8617,19,Jits_Linear_5,6,9999,9999,9999,1613640792
8617,19,Jits_Linear_5,7,9999,9999,9999,1614130264
8617,19,Jits_Linear_5,8,9999,9999,9999,1614620780
8617,19,Jits_Linear_5,9,9999,9999,9999,1615110256
8617,19,Jits_Linear_5,10,9999,9999,9999,1615610952
8617,19,Jits_Linear_5,11,9999,9999,9999,1616110700
8617,19,Jits_Linear_5,12,9999,9999,9999,1616610384
8617,19,Jits_Linear_5,13,9999,9999,9999,1617110140
8617,19,Jits_Linear_5,14,9999,9999,9999,1617610848
8617,19,Jits_Linear_5,15,9999,9999,9999,1618120816
8617,19,Jits_Linear_5,16,9999,9999,9999,1618630768
8617,19,Jits_Linear_5,17,9999,9999,9999,1619140720
8617,19,Jits_Linear_5,18,9999,9999,9999,1619650668
8617,19,Jits_Linear_5,19,9999,9999,9999,1620160624
8617,19,Jits_Linear_5,20,9999,9999,9999,1620680768
8617,19,Jits_Linear_5,21,9999,9999,9999,1621200984
8617,19,Jits_Linear_5,22,9999,9999,9999,1621720180
8617,19,Jits_Linear_5,23,9999,9999,9999,1622240336
8617,19,Jits_Linear_5,24,9999,9999,9999,1622760572
8617,19,Jits_Linear_5,25,9999,9999,9999,1623290980
8617,19,Jits_Linear_5,26,9999,9999,9999,1623820356
8617,19,Jits_Linear_5,27,9999,9999,9999,1624350808
8617,19,Jits_Linear_5,28,9999,9999,9999,1624880252
8617,19,Jits_Linear_5,29,9999,9999,9999,1625410668
8617,19,Jits_Linear_5,30,9999,9999,9999,1625950304
8617,19,Jits_Linear_5,31,9999,9999,9999,1626490964
8617,19,Jits_Linear_5,32,9999,9999,9999,1627030628
8617,19,Jits_Linear_5,33,9999,9999,9999,1627570236
8617,19,Jits_Linear_5,34,9999,9999,9999,1628110972
8617,19,Jits_Linear_5,35,9999,9999,9999,1628660808
8617,19,Jits_Linear_5,36,9999,9999,9999,1629210680
8617,19,Jits_Linear_5,37,9999,9999,9999,1629760640
8617,19,Jits_Linear_5,38,9999,9999,9999,1630310504
8617,19,Jits_Linear_5,39,9999,9999,9999,1630860388
8617,19,Jits_Linear_5,40,9999,9999,9999,1631420540
8617,19,Jits_Linear_5,41,9999,9999,9999,1631980648
8617,19,Jits_Linear_5,42,9999,9999,9999,1632540788
8617,19,Jits_Linear_5,43,9999,9999,9999,1633100852
8617,19,Jits_Linear_5,44,9999,9999,9999,1633661000
8617,19,Jits_Linear_5,45,9999,9999,9999,1634230376
8617,19,Jits_Linear_5,46,9999,9999,9999,1634800744
8617,19,Jits_Linear_5,47,9999,9999,9999,1635371088
8617,19,Jits_Linear_5,48,9999,9999,9999,1635950716
8617,19,Jits_Linear_5,49,9999,9999,9999,1636521076
8617,19,Jits_Linear_5,50,9999,9999,9999,1637100624
8617,19,Jits_Linear_5,51,9999,9999,9999,1637680188
8617,19,Jits_Linear_5,52,9999,9999,9999,1638260848
8617,19,Jits_Linear_5,53,9999,9999,9999,1638840392
8617,19,Jits_Linear_5,54,9999,9999,9999,1639421012
8617,19,Jits_Linear_5,55,9999,9999,9999,1640010844
8617,19,Jits_Linear_5,56,9999,9999,9999,1640600672
8617,19,Jits_Linear_5,57,9999,9999,9999,1641190520
8617,19,Jits_Linear_5,58,9999,9999,9999,1641780284
8617,19,Jits_Linear_5,59,9999,9999,9999,1642370172
8617,19,Jits_Linear_5,60,9999,9999,9999,1642970196
8617,19,Jits_Linear_5,61,9999,9999,9999,1643570248
8617,19,Jits_Linear_5,62,9999,9999,9999,1644170316
8617,19,Jits_Linear_5,63,9999,9999,9999,1644770404
8617,19,Jits_Linear_5,64,9999,9999,9999,1645370460
8617,19,Jits_Linear_5,65,9999,9999,9999,1645980736
8617,19,Jits_Linear_5,66,9999,9999,9999,1646591044
8617,19,Jits_Linear_5,67,9999,9999,9999,1647200344
8617,19,Jits_Linear_5,68,9999,9999,9999,1647810632
8617,19,Jits_Linear_5,69,9999,9999,9999,1648420944
8617,19,Jits_Linear_5,70,9999,9999,9999,1649040496
8617,19,Jits_Linear_5,71,9999,9999,9999,1649660988
8617,19,Jits_Linear_5,72,9999,9999,9999,1650280560
8617,19,Jits_Linear_5,73,9999,9999,9999,1650901112
8617,19,Jits_Linear_5,74,9999,9999,9999,1651520616
8617,19,Jits_Linear_5,75,9999,9999,9999,1652150364
8617,19,Jits_Linear_5,76,9999,9999,9999,1652780088
8617,19,Jits_Linear_5,77,9999,9999,9999,1653410884
8617,19,Jits_Linear_5,78,9999,9999,9999,1654040676
8617,19,Jits_Linear_5,79,9999,9999,9999,1654670440
8617,19,Jits_Linear_5,80,9999,9999,9999,1655310404
8617,19,Jits_Linear_5,81,9999,9999,9999,1655950416
8617,19,Jits_Linear_5,82,9999,9999,9999,1656590396
8617,19,Jits_Linear_5,83,9999,9999,9999,1657230408
8617,19,Jits_Linear_5,84,9999,9999,9999,1657870392
8617,19,Jits_Linear_5,85,9999,9999,9999,1658520664
8617,19,Jits_Linear_5,86,9999,9999,9999,1659170888
8617,19,Jits_Linear_5,87,9999,9999,9999,1659820136
8617,19,Jits_Linear_5,88,9999,9999,9999,1660470360
8617,19,Jits_Linear_5,89,9999,9999,9999,1661120636
8617,19,Jits_Linear_5,90,9999,9999,9999,1661781068
8617,19,Jits_Linear_5,91,9999,9999,9999,1662440512
8617,19,Jits_Linear_5,92,9999,9999,9999,1663101056
8617,19,Jits_Linear_5,93,9999,9999,9999,1663760500
8617,19,Jits_Linear_5,94,9999,9999,9999,1664420964
8617,19,Jits_Linear_5,95,9999,9999,9999,1665090684
8617,19,Jits_Linear_5,96,9999,9999,9999,1665760332
8617,19,Jits_Linear_5,97,9999,9999,9999,1666431056
8617,19,Jits_Linear_5,98,9999,9999,9999,1667100764
8617,19,Jits_Linear_5,99,9999,9999,9999,1667770448
8617,19,Jits_Linear_5,100,9999,9999,9999,1668450416
8617,19,Jits_Linear_5,101,9999,9999,9999,1669130312
8617,19,Jits_Linear_5,102,9999,9999,9999,1669810252
8617,19,Jits_Linear_5,103,9999,9999,9999,1670490228
8617,19,Jits_Linear_5,104,9999,9999,9999,1671170124
8617,19,Jits_Linear_5,105,9999,9999,9999,1671860332
8617,19,Jits_Linear_5,106,9999,9999,9999,1672550492
8617,19,Jits_Linear_5,107,9999,9999,9999,1673240652
8617,19,Jits_Linear_5,108,9999,9999,9999,1673930860
8617,19,Jits_Linear_5,109,9999,9999,9999,1674621012
8617,19,Jits_Linear_5,110,9999,9999,9999,1675320408
8617,19,Jits_Linear_5,111,9999,9999,9999,1676020848
8617,19,Jits_Linear_5,112,9999,9999,9999,1676720212
8617,19,Jits_Linear_5,113,9999,9999,9999,1677420656
8617,19,Jits_Linear_5,114,9999,9999,9999,1678121076
8617,19,Jits_Linear_5,115,9999,9999,9999,1678830708
8617,19,Jits_Linear_5,116,9999,9999,9999,1679540324
8617,19,Jits_Linear_5,117,9999,9999,9999,1680250952
8617,19,Jits_Linear_5,118,9999,9999,9999,1680960600
8617,19,Jits_Linear_5,119,9999,9999,9999,1681670208
8617,19,Jits_Linear_5,120,9999,9999,9999,1682390124
8617,19,Jits_Linear_5,121,9999,9999,9999,1683110972
8617,19,Jits_Linear_5,122,9999,9999,9999,1683830888
8617,19,Jits_Linear_5,123,9999,9999,9999,1684550712
8617,19,Jits_Linear_5,124,9999,9999,9999,1685270616
8617,19,Jits_Linear_5,125,9999,9999,9999,1686000764
8617,19,Jits_Linear_5,126,9999,9999,9999,1686730832
8617,19,Jits_Linear_5,127,9999,9999,9999,1687460988
8617,19,Jits_Linear_5,128,9999,9999,9999,1688191068
8617,19,Jits_Linear_5,129,9999,9999,9999,1688920188
8617,19,Jits_Linear_5,130,9999,9999,9999,1689660532
8617,19,Jits_Linear_5,131,9999,9999,9999,1690400884
8617,19,Jits_Linear_5,132,9999,9999,9999,1691140188
8617,19,Jits_Linear_5,133,9999,9999,9999,1691880544
8617,19,Jits_Linear_5,134,9999,9999,9999,1692620868
8617,19,Jits_Linear_5,135,9999,9999,9999,1693370488
8617,19,Jits_Linear_5,136,9999,9999,9999,1694121028
8617,19,Jits_Linear_5,137,9999,9999,9999,1694870596
8617,19,Jits_Linear_5,138,9999,9999,9999,1695620172
8617,19,Jits_Linear_5,139,9999,9999,9999,1696370796
8617,19,Jits_Linear_5,140,9999,9999,9999,1697130552
8617,19,Jits_Linear_5,141,9999,9999,9999,1697890392
8617,19,Jits_Linear_5,142,9999,9999,9999,1698650228
8617,19,Jits_Linear_5,143,9999,9999,9999,1699411040
8617,19,Jits_Linear_5,144,9999,9999,9999,1700170868
8617,19,Jits_Linear_5,145,9999,9999,9999,1700940896
8617,19,Jits_Linear_5,146,9999,9999,9999,1701710924
8617,19,Jits_Linear_5,147,9999,9999,9999,1702481024
8617,19,Jits_Linear_5,148,9999,9999,9999,1703251044
8617,19,Jits_Linear_5,149,9999,9999,9999,1704021088
8617,19,Jits_Linear_5,150,9999,9999,9999,1704800336
8617,19,Jits_Linear_5,151,9999,9999,9999,1705580612
8617,19,Jits_Linear_5,152,9999,9999,9999,1706360904
8617,19,Jits_Linear_5,153,9999,9999,9999,1707140208
8617,19,Jits_Linear_5,154,9999,9999,9999,1707920496
8617,19,Jits_Linear_5,155,9999,9999,9999,1708710984
8617,19,Jits_Linear_5,156,9999,9999,9999,1709500484
8617,19,Jits_Linear_5,157,9999,9999,9999,1710291052
8617,19,Jits_Linear_5,158,9999,9999,9999,1711080556
8617,19,Jits_Linear_5,159,9999,9999,9999,1711871036
8617,19,Jits_Linear_5,160,9999,9999,9999,1712670820
8617,19,Jits_Linear_5,161,9999,9999,9999,1713470592
8617,19,Jits_Linear_5,162,9999,9999,9999,1714270284
8617,19,Jits_Linear_5,163,9999,9999,9999,1715071044
8617,19,Jits_Linear_5,164,9999,9999,9999,1715870824
8617,19,Jits_Linear_5,165,9999,9999,9999,1716680784
8617,19,Jits_Linear_5,166,9999,9999,9999,1717490776
8617,19,Jits_Linear_5,167,9999,9999,9999,1718300744
8617,19,Jits_Linear_5,168,9999,9999,9999,1719110784
8617,19,Jits_Linear_5,169,9999,9999,9999,1719920720
8618,18,Jits_Linear_8,0,5,56,103,1729658196
8618,18,Jits_Linear_8,1,5,63,98,1729661292
8618,18,Jits_Linear_8,2,5,80,127,1729664420
8618,18,Jits_Linear_8,0,5,56,103,1730477388
8618,18,Jits_Linear_8,1,5,63,98,1730480484
8618,18,Jits_Linear_8,2,5,80,127,1730483756
8618,18,Jits_Linear_8,0,5,80,127,1731238220
8618,18,Jits_Linear_8,1,5,63,98,1731328456
8618,18,Jits_Linear_8,2,5,56,103,1731337832
8618,18,Jits_Linear_8,0,5,56,103,1732077908
8618,18,Jits_Linear_8,1,5,63,98,1732088328
8618,18,Jits_Linear_8,2,5,80,127,1732178164
8618,18,Jits_Linear_8,0,5,63,98,1732867444
8618,18,Jits_Linear_8,1,5,80,127,1732898244
8618,18,Jits_Linear_8,2,5,56,103,1732927844
8618,18,Jits_Linear_8,0,5,56,103,1733687676
8618,18,Jits_Linear_8,1,5,80,127,1733788152
8618,18,Jits_Linear_8,2,5,63,98,1733838132
8618,18,Jits_Linear_8,0,5,56,103,1734497816
8618,18,Jits_Linear_8,1,5,80,127,1734547872
8618,18,Jits_Linear_8,2,5,63,98,1734587960
8618,18,Jits_Linear_8,0,5,80,127,1735338224
8618,18,Jits_Linear_8,1,5,63,98,1735367976
8618,18,Jits_Linear_8,2,1,48,48,1735372068
8618,18,Jits_Linear_8,3,5,56,103,1735437824
8618,18,Jits_Linear_8,0,5,63,98,1736178028
8618,18,Jits_Linear_8,1,1,48,54,1736203772
8618,18,Jits_Linear_8,2,5,56,103,1736207848
8618,18,Jits_Linear_8,3,5,80,127,1736268016
8618,18,Jits_Linear_8,0,5,56,103,1736927736
8618,18,Jits_Linear_8,1,5,80,127,1736930804
8618,18,Jits_Linear_8,2,1,48,52,1736966300
8618,18,Jits_Linear_8,3,5,63,98,1737048428
8618,18,Jits_Linear_8,0,5,56,103,1737808340
8618,18,Jits_Linear_8,1,1,48,48,1737817756
8618,18,Jits_Linear_8,2,5,80,127,1737848048
8618,18,Jits_Linear_8,3,5,63,98,1737858396
8618,18,Jits_Linear_8,0,5,56,103,1738568104
8618,18,Jits_Linear_8,1,5,80,127,1738587368
8618,18,Jits_Linear_8,2,1,48,58,1738638736
8618,18,Jits_Linear_8,3,5,63,98,1738668648
8618,18,Jits_Linear_8,0,1,48,57,1739337052
8618,18,Jits_Linear_8,1,5,80,127,1739357900
8618,18,Jits_Linear_8,2,1,48,33,1739405892
8618,18,Jits_Linear_8,3,5,56,103,1739457756
8618,18,Jits_Linear_8,4,5,63,98,1739468252
8618,18,Jits_Linear_8,0,5,63,98,1740127744
8618,18,Jits_Linear_8,1,5,80,127,1740188064
8618,18,Jits_Linear_8,2,5,56,103,1740198184
8618,18,Jits_Linear_8,3,1,48,49,1740206108
8618,18,Jits_Linear_8,0,5,56,103,1740928468
8618,18,Jits_Linear_8,1,1,48,59,1740969796
8618,18,Jits_Linear_8,2,5,63,98,1740997996
8618,18,Jits_Linear_8,3,5,80,127,1741001284
8618,18,Jits_Linear_8,0,1,48,53,1741735668
8618,18,Jits_Linear_8,1,5,63,98,1741757884
8618,18,Jits_Linear_8,2,1,48,29,1741808096
8618,18,Jits_Linear_8,3,5,56,103,1741809532
8618,18,Jits_Linear_8,4,5,80,127,1741812280
8618,18,Jits_Linear_8,0,5,56,103,1742508380
8618,18,Jits_Linear_8,1,5,80,127,1742511596
8618,18,Jits_Linear_8,2,1,48,59,1742564332
8618,18,Jits_Linear_8,3,5,63,98,1742597784
8618,18,Jits_Linear_8,0,1,48,71,1743307884
8618,18,Jits_Linear_8,1,5,63,98,1743337752
8618,18,Jits_Linear_8,2,1,48,35,1743375012
8618,18,Jits_Linear_8,3,5,56,103,1743427868
8618,18,Jits_Linear_8,4,5,80,127,1743457768
8618,18,Jits_Linear_8,0,5,56,103,1744128348
8618,18,Jits_Linear_8,1,1,48,56,1744138664
8618,18,Jits_Linear_8,2,1,48,20,1744224116
8618,18,Jits_Linear_8,3,5,63,98,1744227972
8618,18,Jits_Linear_8,4,5,80,127,1744258620
8618,18,Jits_Linear_8,0,1,48,59,1744922284
8618,18,Jits_Linear_8,1,5,63,98,1744938276
8618,18,Jits_Linear_8,2,5,56,103,1744947500
8618,18,Jits_Linear_8,3,1,48,23,1745005976
8618,18,Jits_Linear_8,4,5,80,127,1745037612
8618,18,Jits_Linear_8,0,5,63,98,1745738000
8618,18,Jits_Linear_8,1,1,48,65,1745753256
8618,18,Jits_Linear_8,2,5,56,103,1745818016
8618,18,Jits_Linear_8,3,5,80,127,1745821156
8618,18,Jits_Linear_8,4,1,48,38,1745824708
8618,18,Jits_Linear_8,0,5,80,127,1746477484
8618,18,Jits_Linear_8,1,5,63,98,1746497872
8618,18,Jits_Linear_8,2,1,48,63,1746542720
8618,18,Jits_Linear_8,3,5,56,103,1746558180
8618,18,Jits_Linear_8,4,1,48,19,1746635588
8618,18,Jits_Linear_8,0,1,48,59,1747223840
8618,18,Jits_Linear_8,1,1,48,24,1747296828
8618,18,Jits_Linear_8,2,5,56,103,1747298020
8618,18,Jits_Linear_8,3,5,63,98,1747318184
8618,18,Jits_Linear_8,4,5,80,127,1747321620
8618,18,Jits_Linear_8,0,5,63,98,1748017600
8618,18,Jits_Linear_8,1,5,80,127,1748098596
8618,18,Jits_Linear_8,2,5,56,103,1748107820
8618,18,Jits_Linear_8,3,1,48,46,1748235632
8618,18,Jits_Linear_8,0,5,63,98,1748818476
8618,18,Jits_Linear_8,1,5,56,103,1748837816
8618,18,Jits_Linear_8,2,1,48,52,1748857496
8618,18,Jits_Linear_8,3,5,80,127,1748887788
8618,18,Jits_Linear_8,0,1,48,51,1749556244
8618,18,Jits_Linear_8,1,5,80,127,1749597696
8618,18,Jits_Linear_8,2,5,63,98,1749637560
8618,18,Jits_Linear_8,3,5,56,103,1749657856
8618,18,Jits_Linear_8,0,1,48,51,1750312380
8618,18,Jits_Linear_8,1,5,56,103,1750408068
8618,18,Jits_Linear_8,2,5,63,98,1750417744
8618,18,Jits_Linear_8,3,5,80,127,1750438280
8618,18,Jits_Linear_8,0,1,48,56,1751102996
8618,18,Jits_Linear_8,1,5,56,103,1751107820
8618,18,Jits_Linear_8,2,5,63,98,1751198032
8618,18,Jits_Linear_8,3,5,80,127,1751257612
8618,18,Jits_Linear_8,0,5,80,127,1751907736
8618,18,Jits_Linear_8,1,5,56,103,1751917932
8618,18,Jits_Linear_8,2,1,48,55,1751971616
8618,18,Jits_Linear_8,3,5,63,98,1751987832
8618,18,Jits_Linear_8,0,1,48,58,1752693832
8618,18,Jits_Linear_8,1,5,63,98,1752707572
8618,18,Jits_Linear_8,2,5,80,127,1752797648
8618,18,Jits_Linear_8,3,5,56,103,1752807916
8618,18,Jits_Linear_8,0,5,63,98,1753407848
8618,18,Jits_Linear_8,1,1,48,47,1753423176
8618,18,Jits_Linear_8,2,5,80,127,1753458044
8618,18,Jits_Linear_8,3,5,56,103,1753517448
8618,18,Jits_Linear_8,0,1,48,57,1754173392
8618,18,Jits_Linear_8,1,5,56,103,1754198452
8618,18,Jits_Linear_8,2,5,80,127,1754247756
8618,18,Jits_Linear_8,3,5,63,98,1754267980
8618,18,Jits_Linear_8,0,5,56,103,1754927416
8618,18,Jits_Linear_8,1,1,48,48,1754958628
8618,18,Jits_Linear_8,2,5,80,127,1754987876
8618,18,Jits_Linear_8,3,5,63,98,1755058512
8618,18,Jits_Linear_8,0,5,56,103,1755688592
8618,18,Jits_Linear_8,1,5,80,127,1755718120
8618,18,Jits_Linear_8,2,5,63,98,1755747796
8618,18,Jits_Linear_8,3,1,48,64,1755764396
8618,18,Jits_Linear_8,0,1,48,54,1756453780
8618,18,Jits_Linear_8,1,5,56,103,1756487980
8618,18,Jits_Linear_8,2,5,80,127,1756507692
8618,18,Jits_Linear_8,3,5,63,98,1756567916
8618,18,Jits_Linear_8,0,1,48,52,1757249120
8618,18,Jits_Linear_8,1,1,48,29,1757327656
8618,18,Jits_Linear_8,2,5,80,127,1757328844
8618,18,Jits_Linear_8,3,5,56,103,1757337920
8618,18,Jits_Linear_8,4,5,63,98,1757348116
8618,18,Jits_Linear_8,0,5,56,103,1758038552
8618,18,Jits_Linear_8,1,1,48,46,1758072088
8618,18,Jits_Linear_8,2,5,80,127,1758078412
8618,18,Jits_Linear_8,3,5,63,98,1758108012
8618,18,Jits_Linear_8,4,1,48,21,1758149248
8618,18,Jits_Linear_8,0,5,56,103,1758758428
8618,18,Jits_Linear_8,1,5,63,98,1758788032
8618,18,Jits_Linear_8,2,1,48,52,1758812800
8618,18,Jits_Linear_8,3,5,80,127,1758827816
8618,18,Jits_Linear_8,4,1,48,23,1758878636
8618,18,Jits_Linear_8,0,5,80,127,1759457628
8618,18,Jits_Linear_8,1,5,63,98,1759507832
8618,18,Jits_Linear_8,2,1,48,53,1759512676
8618,18,Jits_Linear_8,3,5,56,103,1759528584
8618,18,Jits_Linear_8,4,1,48,29,1759583380
8618,18,Jits_Linear_8,0,5,56,103,1760237888
8618,18,Jits_Linear_8,1,1,48,58,1760295168
8618,18,Jits_Linear_8,2,5,80,127,1760307492
8618,18,Jits_Linear_8,3,5,63,98,1760367956
8618,18,Jits_Linear_8,0,5,80,127,1760978472
8618,18,Jits_Linear_8,1,1,48,61,1761027824
8618,18,Jits_Linear_8,2,5,63,98,1761068528
8618,18,Jits_Linear_8,3,5,56,103,1761087792
8618,18,Jits_Linear_8,0,5,63,98,1761738064
8618,18,Jits_Linear_8,1,5,56,103,1761757580
8618,18,Jits_Linear_8,2,1,48,59,1761774852
8618,18,Jits_Linear_8,3,5,80,127,1761797512
8618,18,Jits_Linear_8,0,5,80,127,1762437352
8618,18,Jits_Linear_8,1,5,63,98,1762458032
8618,18,Jits_Linear_8,2,1,48,50,1762494784
8618,18,Jits_Linear_8,3,5,56,103,1762537920
8618,18,Jits_Linear_8,0,5,63,98,1763167660
8618,18,Jits_Linear_8,1,1,48,59,1763179920
8618,18,Jits_Linear_8,2,5,56,103,1763278300
8618,18,Jits_Linear_8,3,5,80,127,1763281388
8618,18,Jits_Linear_8,0,1,48,54,1763866452
8618,18,Jits_Linear_8,1,5,63,98,1763928588
8618,18,Jits_Linear_8,2,5,56,103,1763937584
8618,18,Jits_Linear_8,3,5,80,127,1763940800
8618,18,Jits_Linear_8,0,1,48,54,1764554292
8618,18,Jits_Linear_8,1,1,48,23,1764624724
8618,18,Jits_Linear_8,2,5,56,103,1764648432
8618,18,Jits_Linear_8,3,5,80,127,1764768076
8618,18,Jits_Linear_8,4,5,63,98,1764808088
8618,18,Jits_Linear_8,0,1,48,55,1765350984
8618,18,Jits_Linear_8,1,5,56,103,1765397992
8618,18,Jits_Linear_8,2,1,48,29,1765423644
8618,18,Jits_Linear_8,3,5,80,127,1765477844
8618,18,Jits_Linear_8,4,5,63,98,1765498152
8618,18,Jits_Linear_8,0,1,48,69,1766097528
8618,18,Jits_Linear_8,1,5,56,103,1766127900
8618,18,Jits_Linear_8,2,5,63,98,1766237420
8618,18,Jits_Linear_8,3,5,80,127,1766240712
8618,18,Jits_Linear_8,0,1,48,57,1766870084
8618,18,Jits_Linear_8,1,5,56,103,1766887644
8618,18,Jits_Linear_8,2,5,80,127,1766917468
8618,18,Jits_Linear_8,3,5,63,98,1766937928
8618,18,Jits_Linear_8,4,1,48,27,1766942080
8618,18,Jits_Linear_8,0,5,63,98,1767597444
8618,18,Jits_Linear_8,1,5,56,103,1767607644
8618,18,Jits_Linear_8,2,5,80,127,1767617840
8618,18,Jits_Linear_8,3,1,48,68,1767621252
8618,18,Jits_Linear_8,0,5,80,127,1768308116
8618,18,Jits_Linear_8,1,1,48,71,1768312280
8618,18,Jits_Linear_8,2,5,56,103,1768358460
8618,18,Jits_Linear_8,3,5,63,98,1768398248
8618,18,Jits_Linear_8,0,5,80,127,1769048544
8618,18,Jits_Linear_8,1,1,48,57,1769064244
8618,18,Jits_Linear_8,2,5,63,98,1769068024
8618,18,Jits_Linear_8,3,5,56,103,1769117928
8618,18,Jits_Linear_8,0,1,48,60,1769723824
8618,18,Jits_Linear_8,1,5,80,127,1769777584
8618,18,Jits_Linear_8,2,5,56,103,1769808456
8618,18,Jits_Linear_8,3,5,63,98,1769877824
8618,18,Jits_Linear_8,0,5,56,103,1770547532
8618,18,Jits_Linear_8,1,5,80,127,1770557804
8618,18,Jits_Linear_8,2,5,63,98,1770597816
8618,18,Jits_Linear_8,3,1,48,57,1770609400
8618,18,Jits_Linear_8,0,5,56,103,1771178476
8618,18,Jits_Linear_8,1,5,63,98,1771197740
8618,18,Jits_Linear_8,2,5,80,127,1771267376
8618,18,Jits_Linear_8,3,1,48,65,1771283444
8618,18,Jits_Linear_8,4,1,48,25,1771361260
8618,18,Jits_Linear_8,0,1,48,62,1771896980
8618,18,Jits_Linear_8,1,5,63,98,1771917752
8618,18,Jits_Linear_8,2,5,80,127,1771978220
8618,18,Jits_Linear_8,3,5,56,103,1771997420
8618,18,Jits_Linear_8,0,1,48,54,1772572276
8618,18,Jits_Linear_8,1,5,80,127,1772628424
8618,18,Jits_Linear_8,2,1,48,18,1772659356
8618,18,Jits_Linear_8,3,5,56,103,1772660248
8618,18,Jits_Linear_8,4,5,63,98,1772687684
8618,18,Jits_Linear_8,0,5,56,103,1773338028
8618,18,Jits_Linear_8,1,1,48,55,1773350364
8618,18,Jits_Linear_8,2,5,63,98,1773398416
8618,18,Jits_Linear_8,3,5,80,127,1773457668
8618,18,Jits_Linear_8,0,5,80,127,1774068348
8618,18,Jits_Linear_8,1,1,48,55,1774070716
8618,18,Jits_Linear_8,2,5,56,103,1774087528
8618,18,Jits_Linear_8,3,5,63,98,1774158332
8618,18,Jits_Linear_8,0,5,80,127,1774777592
8618,18,Jits_Linear_8,1,1,48,62,1774792172
8618,18,Jits_Linear_8,2,5,63,98,1774798492
8618,18,Jits_Linear_8,3,5,56,103,1774827796
8618,18,Jits_Linear_8,0,1,48,63,1775464616
8618,18,Jits_Linear_8,1,5,80,127,1775467796
8618,18,Jits_Linear_8,2,5,63,98,1775488480
8618,18,Jits_Linear_8,3,5,56,103,1775547748
8618,18,Jits_Linear_8,0,1,48,59,1776140000
8618,18,Jits_Linear_8,1,5,80,127,1776168276
8618,18,Jits_Linear_8,2,5,56,103,1776267616
8618,18,Jits_Linear_8,3,5,63,98,1776298488
8618,18,Jits_Linear_8,0,5,63,98,1776857460
8618,18,Jits_Linear_8,1,5,80,127,1776907664
8618,18,Jits_Linear_8,2,5,56,103,1776928272
8618,18,Jits_Linear_8,3,1,48,66,1776942256
8618,18,Jits_Linear_8,0,1,48,54,1777567476
8618,18,Jits_Linear_8,1,5,80,127,1777597772
8618,18,Jits_Linear_8,2,5,56,103,1777627472
8618,18,Jits_Linear_8,3,5,63,98,1777630464
8618,18,Jits_Linear_8,0,1,48,58,1778222320
8618,18,Jits_Linear_8,1,5,63,98,1778327904
8618,18,Jits_Linear_8,2,5,56,103,1778367992
8618,18,Jits_Linear_8,3,5,80,127,1778388328
8618,18,Jits_Linear_8,0,5,80,127,1778967880
8618,18,Jits_Linear_8,1,1,48,53,1779030932
8618,18,Jits_Linear_8,2,5,63,98,1779047820
8618,18,Jits_Linear_8,3,5,56,103,1779087684
8618,18,Jits_Linear_8,0,5,63,98,1779677676
8618,18,Jits_Linear_8,1,1,48,52,1779738560
8618,18,Jits_Linear_8,2,5,80,127,1779757396
8618,18,Jits_Linear_8,3,5,56,103,1779777928
8618,18,Jits_Linear_8,0,1,48,57,1780379532
8618,18,Jits_Linear_8,1,5,56,103,1780407660
8618,18,Jits_Linear_8,2,5,63,98,1780417856
8618,18,Jits_Linear_8,3,5,80,127,1780457820
8618,18,Jits_Linear_8,0,5,56,103,1781017944
8618,18,Jits_Linear_8,1,5,80,127,1781021160
8618,18,Jits_Linear_8,2,1,48,58,1781065332
8618,18,Jits_Linear_8,3,5,63,98,1781158116
8618,18,Jits_Linear_8,0,5,56,103,1781708144
8618,18,Jits_Linear_8,1,1,48,54,1781762312
8618,18,Jits_Linear_8,2,5,63,98,1781798152
8618,18,Jits_Linear_8,3,5,80,127,1781867820
8618,18,Jits_Linear_8,0,1,48,61,1782440908
8618,18,Jits_Linear_8,1,5,63,98,1782468060
8618,18,Jits_Linear_8,2,5,80,127,1782471424
8618,18,Jits_Linear_8,3,1,48,21,1782524004
8618,18,Jits_Linear_8,4,5,56,103,1782528228
8618,18,Jits_Linear_8,0,1,48,66,1783129828
8618,18,Jits_Linear_8,1,5,80,127,1783187772
8618,18,Jits_Linear_8,2,5,56,103,1783208160
8618,18,Jits_Linear_8,3,5,63,98,1783217456
8618,18,Jits_Linear_8,4,1,48,16,1783248456
8618,18,Jits_Linear_8,0,5,56,103,1783777584
8618,18,Jits_Linear_8,1,5,63,98,1783787856
8618,18,Jits_Linear_8,2,5,80,127,1783857460
8618,18,Jits_Linear_8,3,1,48,57,1783954888
8618,18,Jits_Linear_8,0,5,80,127,1784457456
8618,18,Jits_Linear_8,1,1,48,50,1784491736
8618,18,Jits_Linear_8,2,5,56,103,1784507652
8618,18,Jits_Linear_8,3,5,63,98,1784558028
8618,18,Jits_Linear_8,0,5,56,103,1785218268
8618,18,Jits_Linear_8,1,1,48,54,1785219680
8618,18,Jits_Linear_8,2,5,63,98,1785227488
8618,18,Jits_Linear_8,3,5,80,127,1785267428
8618,18,Jits_Linear_8,4,1,48,23,1785291128
8618,18,Jits_Linear_8,0,5,56,103,1785838056
8618,18,Jits_Linear_8,1,5,63,98,1785877848
8618,18,Jits_Linear_8,2,1,48,64,1785900076
8618,18,Jits_Linear_8,3,5,80,127,1785928116
8618,18,Jits_Linear_8,0,5,80,127,1786467588
8618,18,Jits_Linear_8,1,5,56,103,1786518088
8618,18,Jits_Linear_8,2,5,63,98,1786538248
8618,18,Jits_Linear_8,3,1,48,60,1786600052
8618,18,Jits_Linear_8,0,5,80,127,1787147632
8618,18,Jits_Linear_8,1,5,63,98,1787208320
8618,18,Jits_Linear_8,2,1,48,60,1787251000
8618,18,Jits_Linear_8,3,5,56,103,1787288112
8618,18,Jits_Linear_8,0,5,80,127,1787797840
8618,18,Jits_Linear_8,1,5,56,103,1787837704
8618,18,Jits_Linear_8,2,5,63,98,1787858264
8618,18,Jits_Linear_8,3,1,48,42,1787926644
8618,18,Jits_Linear_8,0,5,56,103,1788517668
8618,18,Jits_Linear_8,1,5,80,127,1788528384
8618,18,Jits_Linear_8,2,1,48,47,1788529952
8618,18,Jits_Linear_8,3,5,63,98,1788568168
8618,18,Jits_Linear_8,0,1,48,53,1789186520
8618,18,Jits_Linear_8,1,5,56,103,1789247980
8618,18,Jits_Linear_8,2,5,63,98,1789287904
8618,18,Jits_Linear_8,3,5,80,127,1789291340
8618,18,Jits_Linear_8,0,5,63,98,1789797628
8618,18,Jits_Linear_8,1,1,48,51,1789832588
8618,18,Jits_Linear_8,2,5,80,127,1789837564
8618,18,Jits_Linear_8,3,1,48,23,1789906252
8618,18,Jits_Linear_8,4,5,56,103,1789908368
8618,18,Jits_Linear_8,0,5,63,98,1790448184
8618,18,Jits_Linear_8,1,1,48,58,1790452648
8618,18,Jits_Linear_8,2,1,48,30,1790528936
8618,18,Jits_Linear_8,3,5,56,103,1790529972
8618,18,Jits_Linear_8,4,5,80,127,1790588196
8618,18,Jits_Linear_8,0,1,48,45,1791117904
8618,18,Jits_Linear_8,1,5,80,127,1791119240
8618,18,Jits_Linear_8,2,5,63,98,1791167952
8618,18,Jits_Linear_8,3,5,56,103,1791197652
8618,18,Jits_Linear_8,0,1,48,48,1791762008
8618,18,Jits_Linear_8,1,5,56,103,1791768108
8618,18,Jits_Linear_8,2,5,63,98,1791818088
8618,18,Jits_Linear_8,3,5,80,127,1791828284
8618,18,Jits_Linear_8,0,1,48,43,1792427188
8618,18,Jits_Linear_8,1,5,56,103,1792437624
8618,18,Jits_Linear_8,2,5,63,98,1792548224
8618,18,Jits_Linear_8,3,5,80,127,1792567560
8618,18,Jits_Linear_8,0,5,63,98,1793088068
8618,18,Jits_Linear_8,1,1,48,54,1793105344
8618,18,Jits_Linear_8,2,5,80,127,1793138196
8618,18,Jits_Linear_8,3,1,48,24,1793177340
8618,18,Jits_Linear_8,4,5,56,103,1793228232
8618,18,Jits_Linear_8,0,5,63,98,1793727936
8618,18,Jits_Linear_8,1,5,80,127,1793757640
8618,18,Jits_Linear_8,2,1,48,48,1793789904
8618,18,Jits_Linear_8,3,5,56,103,1793847544
8618,18,Jits_Linear_8,0,5,63,98,1794378076
8618,18,Jits_Linear_8,1,5,56,103,1794388200
8618,18,Jits_Linear_8,2,1,48,49,1794471552
8618,18,Jits_Linear_8,3,5,80,127,1794487764
8618,18,Jits_Linear_8,0,1,48,51,1794970836
8618,18,Jits_Linear_8,1,5,63,98,1795127616
8618,18,Jits_Linear_8,2,5,80,127,1795158264
8618,18,Jits_Linear_8,3,5,56,103,1795188012
8618,18,Jits_Linear_8,0,1,48,49,1795696816
8618,18,Jits_Linear_8,1,5,80,127,1795788748
8618,18,Jits_Linear_8,2,5,63,98,1795798448
8618,18,Jits_Linear_8,3,5,56,103,1795828200
8618,18,Jits_Linear_8,0,5,80,127,1796327884
8618,18,Jits_Linear_8,1,5,63,98,1796348196
8618,18,Jits_Linear_8,2,5,56,103,1796397276
8618,18,Jits_Linear_8,3,1,48,54,1796406768
8618,18,Jits_Linear_8,0,1,48,52,1796877436
8618,18,Jits_Linear_8,1,5,63,98,1796997472
8618,18,Jits_Linear_8,2,5,80,127,1797057864
8618,18,Jits_Linear_8,3,5,56,103,1797078348
8618,18,Jits_Linear_8,0,5,63,98,1797597660
8618,18,Jits_Linear_8,1,5,56,103,1797647936
8618,18,Jits_Linear_8,2,5,80,127,1797658132
8618,18,Jits_Linear_8,3,1,48,49,1797669568
8618,18,Jits_Linear_8,0,1,48,43,1798211244
8618,18,Jits_Linear_8,1,5,56,103,1798268296
8618,18,Jits_Linear_8,2,5,80,127,1798277444
8618,18,Jits_Linear_8,3,5,63,98,1798377924
8618,18,Jits_Linear_8,0,5,80,127,1798868392
8618,18,Jits_Linear_8,1,5,63,98,1798877468
8618,18,Jits_Linear_8,2,1,48,37,1798908532
8618,18,Jits_Linear_8,3,5,56,103,1799028036
8618,18,Jits_Linear_8,0,5,63,98,1799508332
8618,18,Jits_Linear_8,1,5,80,127,1799548124
8618,18,Jits_Linear_8,2,1,48,48,1799587212
8618,18,Jits_Linear_8,3,5,56,103,1799628060
8618,18,Jits_Linear_8,0,5,56,103,1800127948
8618,18,Jits_Linear_8,1,1,48,49,1800220396
8618,18,Jits_Linear_8,2,5,80,127,1800228068
8618,18,Jits_Linear_8,3,5,63,98,1800247856
8618,18,Jits_Linear_8,0,1,48,49,1800761664
8618,18,Jits_Linear_8,1,5,80,127,1800817964
8618,18,Jits_Linear_8,2,5,56,103,1800828160
8618,18,Jits_Linear_8,3,5,63,98,1800918376
8618,18,Jits_Linear_8,0,5,56,103,1801447884
8618,18,Jits_Linear_8,1,1,48,47,1801453624
8618,18,Jits_Linear_8,2,5,63,98,1801468264
8618,18,Jits_Linear_8,3,5,80,127,1801548132
8618,18,Jits_Linear_8,0,5,63,98,1802018080
8618,18,Jits_Linear_8,1,1,48,57,1802086084
8618,18,Jits_Linear_8,2,5,56,103,1802108356
8618,18,Jits_Linear_8,3,5,80,127,1802111420
8618,18,Jits_Linear_8,0,1,48,55,1802655480
8618,18,Jits_Linear_8,1,5,56,103,1802668404
8618,18,Jits_Linear_8,2,5,80,127,1802728072
8618,18,Jits_Linear_8,3,5,63,98,1802737972
8618,18,Jits_Linear_8,0,1,48,48,1803212468
8618,18,Jits_Linear_8,1,5,80,127,1803338084
8618,18,Jits_Linear_8,2,5,56,103,1803348428
8618,18,Jits_Linear_8,3,5,63,98,1803351348
8618,18,Jits_Linear_8,0,5,56,103,1803917868
8618,18,Jits_Linear_8,1,1,48,55,1803918756
8618,18,Jits_Linear_8,2,5,80,127,1803927832
8618,18,Jits_Linear_8,3,5,63,98,1803948368
8618,18,Jits_Linear_8,0,5,63,98,1804507484
8618,18,Jits_Linear_8,1,5,80,127,1804567876
8618,18,Jits_Linear_8,2,1,48,51,1804589648
8618,18,Jits_Linear_8,3,5,56,103,1804618144
8618,18,Jits_Linear_8,0,1,48,53,1805205584
8618,18,Jits_Linear_8,1,5,63,98,1805207944
8618,18,Jits_Linear_8,2,5,56,103,1805218288
8618,18,Jits_Linear_8,3,5,80,127,1805268364
8618,18,Jits_Linear_8,0,5,63,98,1805717888
8618,18,Jits_Linear_8,1,5,80,127,1805738496
8618,18,Jits_Linear_8,2,5,56,103,1805747648
8618,18,Jits_Linear_8,3,1,48,57,1805827584
8618,18,Jits_Linear_8,0,5,63,98,1806328164
8618,18,Jits_Linear_8,1,5,80,127,1806331824
8618,18,Jits_Linear_8,2,5,56,103,1806368028
8618,18,Jits_Linear_8,3,1,48,51,1806426064
8618,18,Jits_Linear_8,0,1,48,49,1806962568
8618,18,Jits_Linear_8,1,5,63,98,1807008152
8618,18,Jits_Linear_8,2,5,80,127,1807038052
8618,18,Jits_Linear_8,3,5,56,103,1807048100
8618,18,Jits_Linear_8,0,5,56,103,1807568172
8618,18,Jits_Linear_8,1,5,80,127,1807597920
8618,18,Jits_Linear_8,2,1,48,48,1807601116
8618,18,Jits_Linear_8,3,5,63,98,1807627816
8618,18,Jits_Linear_8,0,1,48,54,1808212124
8618,18,Jits_Linear_8,1,5,63,98,1808267748
8618,18,Jits_Linear_8,2,5,56,103,1808307744
8618,18,Jits_Linear_8,3,5,80,127,1808310812
8618,18,Jits_Linear_8,0,5,80,127,1808768324
8618,18,Jits_Linear_8,1,5,56,103,1808848296
8618,18,Jits_Linear_8,2,1,48,48,1808855844
8618,18,Jits_Linear_8,3,5,63,98,1808898268
8618,18,Jits_Linear_8,0,5,80,127,1809347880
8618,18,Jits_Linear_8,1,5,56,103,1809368368
8618,18,Jits_Linear_8,2,5,63,98,1809457528
8618,18,Jits_Linear_8,3,1,48,51,1809531884
8618,18,Jits_Linear_8,0,5,80,127,1809988068
8618,18,Jits_Linear_8,1,5,63,98,1810027860
8618,18,Jits_Linear_8,2,5,56,103,1810067800
8618,18,Jits_Linear_8,3,1,48,52,1810112044
8618,18,Jits_Linear_8,0,5,63,98,1810558404
8618,18,Jits_Linear_8,1,5,80,127,1810617900
8618,18,Jits_Linear_8,2,5,56,103,1810648424
8618,18,Jits_Linear_8,3,1,48,48,1810673940
8618,18,Jits_Linear_8,0,5,56,103,1811158496
8618,18,Jits_Linear_8,1,5,80,127,1811187952
8618,18,Jits_Linear_8,2,1,48,57,1811252428
8618,18,Jits_Linear_8,3,5,63,98,1811278228
8618,18,Jits_Linear_8,0,5,56,103,1811757536
8618,18,Jits_Linear_8,1,5,80,127,1811867976
8618,18,Jits_Linear_8,2,1,48,57,1811891472
8618,18,Jits_Linear_8,3,5,63,98,1811897644
8618,18,Jits_Linear_8,0,5,56,103,1812397336
8618,18,Jits_Linear_8,1,1,48,53,1812429152
8618,18,Jits_Linear_8,2,5,63,98,1812457796
8618,18,Jits_Linear_8,3,5,80,127,1812487696
8618,18,Jits_Linear_8,0,5,56,103,1812957496
8618,18,Jits_Linear_8,1,1,48,35,1813024660
8618,18,Jits_Linear_8,2,5,63,98,1813028292
8618,18,Jits_Linear_8,3,5,80,127,1813047856
8618,18,Jits_Linear_8,0,5,80,127,1813517872
8618,18,Jits_Linear_8,1,5,63,98,1813538032
8618,18,Jits_Linear_8,2,5,56,103,1813588232
8618,18,Jits_Linear_8,3,1,48,43,1813608736
8618,18,Jits_Linear_8,0,5,63,98,1814117952
8618,18,Jits_Linear_8,1,5,80,127,1814128000
8618,18,Jits_Linear_8,2,5,56,103,1814178200
8618,18,Jits_Linear_8,3,1,48,36,1814199224
8618,18,Jits_Linear_8,0,5,63,98,1814698316
8618,18,Jits_Linear_8,1,1,48,36,1814749036
8618,18,Jits_Linear_8,2,5,80,127,1814767868
8618,18,Jits_Linear_8,3,5,56,103,1814787432
8618,18,Jits_Linear_8,0,1,48,47,1815229796
8618,18,Jits_Linear_8,1,5,63,98,1815307844
8618,18,Jits_Linear_8,2,5,80,127,1815311132
8618,18,Jits_Linear_8,3,5,56,103,1815378408
8618,18,Jits_Linear_8,0,5,80,127,1815838012
8618,18,Jits_Linear_8,1,5,56,103,1815857648
8618,18,Jits_Linear_8,2,1,48,37,1815865576
8618,18,Jits_Linear_8,3,5,63,98,1815867912
8618,18,Jits_Linear_8,0,5,56,103,1816438092
8618,18,Jits_Linear_8,1,5,63,98,1816528096
8618,18,Jits_Linear_8,2,5,80,127,1816531764
8618,18,Jits_Linear_8,0,5,80,127,1816987924
8618,18,Jits_Linear_8,1,5,56,103,1816998196
8618,18,Jits_Linear_8,2,5,63,98,1817017684
8618,18,Jits_Linear_8,3,1,48,33,1817125172
8618,18,Jits_Linear_8,0,1,48,38,1817551348
8618,18,Jits_Linear_8,1,5,63,98,1817558272
8618,18,Jits_Linear_8,2,5,80,127,1817617916
8618,18,Jits_Linear_8,3,5,56,103,1817628112
8618,18,Jits_Linear_8,0,1,48,44,1818094172
8618,18,Jits_Linear_8,1,5,63,98,1818198336
8618,18,Jits_Linear_8,2,5,80,127,1818228088
8618,18,Jits_Linear_8,3,5,56,103,1818268028
8618,18,Jits_Linear_8,0,1,48,44,1818740860
8618,18,Jits_Linear_8,1,5,56,103,1818757744
8618,18,Jits_Linear_8,2,5,80,127,1818767644
8618,18,Jits_Linear_8,3,5,63,98,1818807880
8618,18,Jits_Linear_8,0,5,80,127,1819287772
8618,18,Jits_Linear_8,1,5,56,103,1819367820
8618,18,Jits_Linear_8,2,1,48,37,1819374152
8618,18,Jits_Linear_8,3,5,63,98,1819377932
8618,18,Jits_Linear_8,0,5,80,127,1819898224
8618,18,Jits_Linear_8,1,1,48,39,1819968024
8618,18,Jits_Linear_8,2,5,56,103,1819978088
8618,18,Jits_Linear_8,3,5,63,98,1819988284
8618,18,Jits_Linear_8,0,5,80,127,1820418520
8618,18,Jits_Linear_8,1,5,56,103,1820467604
8618,18,Jits_Linear_8,2,1,48,44,1820487284
8618,18,Jits_Linear_8,3,5,63,98,1820517800
8618,18,Jits_Linear_8,0,1,48,46,1820992800
8618,18,Jits_Linear_8,1,5,56,103,1821038008
8618,18,Jits_Linear_8,2,5,63,98,1821041144
8618,18,Jits_Linear_8,3,5,80,127,1821087968
8618,18,Jits_Linear_8,0,1,48,50,1821537952
8618,18,Jits_Linear_8,1,5,56,103,1821617692
8618,18,Jits_Linear_8,2,5,63,98,1821648352
8618,18,Jits_Linear_8,3,5,80,127,1821657576
8618,18,Jits_Linear_8,0,5,63,98,1822087492
8618,18,Jits_Linear_8,1,5,56,103,1822158320
8618,18,Jits_Linear_8,2,1,48,51,1822195748
8618,18,Jits_Linear_8,3,5,80,127,1822208588
8618,18,Jits_Linear_8,0,5,63,98,1822678372
8618,18,Jits_Linear_8,1,5,56,103,1822687816
8618,18,Jits_Linear_8,2,5,80,127,1822690732
8618,18,Jits_Linear_8,3,1,48,54,1822723148
8618,18,Jits_Linear_8,0,5,80,127,1823178236
8618,18,Jits_Linear_8,1,5,56,103,1823237604
8618,18,Jits_Linear_8,2,1,48,56,1823247624
8618,18,Jits_Linear_8,3,5,63,98,1823327732
8618,18,Jits_Linear_8,0,5,80,127,1823738188
8618,18,Jits_Linear_8,1,1,48,47,1823772852
8618,18,Jits_Linear_8,2,5,56,103,1823837612
8618,18,Jits_Linear_8,3,5,63,98,1823877684
8618,18,Jits_Linear_8,0,5,56,103,1824338580
8618,18,Jits_Linear_8,1,5,63,98,1824357620
8618,18,Jits_Linear_8,2,5,80,127,1824397632
8618,18,Jits_Linear_8,3,1,48,52,1824416416
8618,18,Jits_Linear_8,0,5,63,98,1824867568
8618,18,Jits_Linear_8,1,5,56,103,1824888324
8618,18,Jits_Linear_8,2,1,48,50,1824900212
8618,18,Jits_Linear_8,3,5,80,127,1824987692
8618,18,Jits_Linear_8,0,5,63,98,1825398032
8618,18,Jits_Linear_8,1,1,48,47,1825401596
8618,18,Jits_Linear_8,2,5,80,127,1825507724
8618,18,Jits_Linear_8,3,5,56,103,1825538672
8618,18,Jits_Linear_8,0,5,56,103,1825958244
8618,18,Jits_Linear_8,1,1,48,49,1825978000
8618,18,Jits_Linear_8,2,5,63,98,1825987988
8618,18,Jits_Linear_8,3,5,80,127,1826037992
8618,18,Jits_Linear_8,0,5,63,98,1826468196
8618,18,Jits_Linear_8,1,5,56,103,1826497872
8618,18,Jits_Linear_8,2,1,48,52,1826516828
8618,18,Jits_Linear_8,3,5,80,127,1826548092
8618,18,Jits_Linear_8,0,1,48,55,1827025688
8618,18,Jits_Linear_8,1,5,56,103,1827047828
8618,18,Jits_Linear_8,2,5,63,98,1827068216
8618,18,Jits_Linear_8,3,5,80,127,1827148068
8618,18,Jits_Linear_8,0,1,48,53,1827528200
8618,18,Jits_Linear_8,1,5,63,98,1827557916
8618,18,Jits_Linear_8,2,5,56,103,1827618012
8618,18,Jits_Linear_8,3,5,80,127,1827647972
8618,18,Jits_Linear_8,0,1,48,54,1828125436
8618,18,Jits_Linear_8,1,5,56,103,1828138284
8618,18,Jits_Linear_8,2,5,80,127,1828197632
8618,18,Jits_Linear_8,3,5,63,98,1828237704
8618,18,Jits_Linear_8,0,5,63,98,1828648236
8618,18,Jits_Linear_8,1,5,56,103,1828707804
8618,18,Jits_Linear_8,2,1,48,57,1828732052
8618,18,Jits_Linear_8,3,5,80,127,1828778600
8618,18,Jits_Linear_8,0,5,56,103,1829257756
8618,18,Jits_Linear_8,1,5,63,98,1829267876
8618,18,Jits_Linear_8,2,1,48,59,1829270868
8618,18,Jits_Linear_8,3,5,80,127,1829272656
8618,18,Jits_Linear_8,0,5,63,98,1829727548
8618,18,Jits_Linear_8,1,1,48,57,1829785956
8618,18,Jits_Linear_8,2,5,56,103,1829787928
8618,18,Jits_Linear_8,3,5,80,127,1829791076
8618,18,Jits_Linear_8,0,5,63,98,1830237484
8618,18,Jits_Linear_8,1,5,80,127,1830268208
8618,18,Jits_Linear_8,2,1,48,61,1830280248
8618,18,Jits_Linear_8,3,5,56,103,1830287836
8618,18,Jits_Linear_8,0,5,56,103,1830768100
8618,18,Jits_Linear_8,1,1,48,56,1830803060
8618,18,Jits_Linear_8,2,5,63,98,1830818300
8618,18,Jits_Linear_8,3,5,80,127,1830898028
8618,18,Jits_Linear_8,0,5,80,127,1831267648
8618,18,Jits_Linear_8,1,5,63,98,1831307588
8618,18,Jits_Linear_8,2,5,56,103,1831328048
8618,18,Jits_Linear_8,3,1,48,49,1831369448
8618,18,Jits_Linear_8,0,5,56,103,1831857544
8618,18,Jits_Linear_8,1,5,80,127,1831867664
8618,18,Jits_Linear_8,2,5,63,98,1831888372
8618,18,Jits_Linear_8,3,1,48,60,1831890384
8618,18,Jits_Linear_8,0,5,56,103,1832358212
8618,18,Jits_Linear_8,1,5,63,98,1832408664
8618,18,Jits_Linear_8,2,5,80,127,1832438336
8618,18,Jits_Linear_8,3,1,48,57,1832453592
8618,18,Jits_Linear_8,0,5,56,103,1832828236
8618,18,Jits_Linear_8,1,5,63,98,1832837684
8618,18,Jits_Linear_8,2,5,80,127,1832887664
8618,18,Jits_Linear_8,3,1,48,57,1832992836
8618,18,Jits_Linear_8,0,5,56,103,1833338180
8618,18,Jits_Linear_8,1,5,80,127,1833341244
8618,18,Jits_Linear_8,2,5,63,98,1833497936
8618,18,Jits_Linear_8,3,1,48,42,1833524496
8618,18,Jits_Linear_8,0,5,63,98,1833867604
8618,18,Jits_Linear_8,1,5,56,103,1833938432
8618,18,Jits_Linear_8,2,5,80,127,1833978372
8618,18,Jits_Linear_8,3,1,48,54,1834110196
8618,18,Jits_Linear_8,0,5,63,98,1834417632
8618,18,Jits_Linear_8,1,5,56,103,1834507644
8618,18,Jits_Linear_8,2,5,80,127,1834510784
8618,18,Jits_Linear_8,3,1,48,55,1834678944
8618,18,Jits_Linear_8,0,5,56,103,1834908016
8618,18,Jits_Linear_8,1,5,63,98,1834998032
8618,18,Jits_Linear_8,2,5,80,127,1835008452
8618,18,Jits_Linear_8,0,1,48,63,1835227752
8618,18,Jits_Linear_8,1,5,56,103,1835388396
8618,18,Jits_Linear_8,2,5,63,98,1835437480
8618,18,Jits_Linear_8,3,5,80,127,1835468376
8618,18,Jits_Linear_8,0,1,48,57,1835809244
8618,18,Jits_Linear_8,1,5,63,98,1835967792
8618,18,Jits_Linear_8,2,5,80,127,1835977992
8618,18,Jits_Linear_8,3,5,56,103,1836037556
8618,18,Jits_Linear_8,0,5,63,98,1836387832
8618,18,Jits_Linear_8,1,1,48,54,1836410652
8618,18,Jits_Linear_8,2,5,80,127,1836448068
8618,18,Jits_Linear_8,3,5,56,103,1836488156
8618,18,Jits_Linear_8,0,1,48,63,1836952804
8618,18,Jits_Linear_8,1,5,56,103,1836987900
8618,18,Jits_Linear_8,2,5,80,127,1837008308
8618,18,Jits_Linear_8,3,5,63,98,1837027796
8618,18,Jits_Linear_8,0,5,63,98,1837407800
8618,18,Jits_Linear_8,1,5,56,103,1837428184
8618,18,Jits_Linear_8,2,5,80,127,1837467900
8618,18,Jits_Linear_8,3,1,48,57,1837565276
8618,18,Jits_Linear_8,0,5,63,98,1837917592
8618,18,Jits_Linear_8,1,5,80,127,1837948388
8618,18,Jits_Linear_8,2,5,56,103,1837967800
8618,18,Jits_Linear_8,3,1,48,55,1838025672
8618,18,Jits_Linear_8,0,5,80,127,1838387600
8618,18,Jits_Linear_8,1,5,56,103,1838437732
8618,18,Jits_Linear_8,2,1,48,54,1838490068
8618,18,Jits_Linear_8,3,5,63,98,1838498412
8618,18,Jits_Linear_8,0,5,63,98,1838867960
8618,18,Jits_Linear_8,1,5,56,103,1838987616
8618,18,Jits_Linear_8,2,5,80,127,1839018340
8618,18,Jits_Linear_8,3,1,48,52,1839024000
8618,18,Jits_Linear_8,0,5,80,127,1839398360
8618,18,Jits_Linear_8,1,5,63,98,1839417852
8618,18,Jits_Linear_8,2,5,56,103,1839488504
8618,18,Jits_Linear_8,3,1,48,57,1839563164
8618,18,Jits_Linear_8,0,5,63,98,1839908324
8618,18,Jits_Linear_8,1,5,56,103,1839917548
8618,18,Jits_Linear_8,2,5,80,127,1839998612
8618,18,Jits_Linear_8,3,1,48,55,1840043608
8618,18,Jits_Linear_8,0,5,56,103,1840458136
8618,18,Jits_Linear_8,1,5,80,127,1840487812
8618,18,Jits_Linear_8,2,5,63,98,1840498084
8618,18,Jits_Linear_8,3,1,48,51,1840500096
8618,18,Jits_Linear_8,0,9999,9999,9999,1730065532
8618,18,Jits_Linear_8,1,9999,9999,9999,1730885696
8618,18,Jits_Linear_8,2,9999,9999,9999,1731705948
8618,18,Jits_Linear_8,3,9999,9999,9999,1732525156
8618,18,Jits_Linear_8,4,9999,9999,9999,1733345356
8618,18,Jits_Linear_8,5,9999,9999,9999,1734155332
8618,18,Jits_Linear_8,6,9999,9999,9999,1734965320
8618,18,Jits_Linear_8,7,9999,9999,9999,1735775288
8618,18,Jits_Linear_8,8,9999,9999,9999,1736585328
8618,18,Jits_Linear_8,9,9999,9999,9999,1737395260
8618,18,Jits_Linear_8,10,9999,9999,9999,1738196028
8618,18,Jits_Linear_8,11,9999,9999,9999,1738995800
8618,18,Jits_Linear_8,12,9999,9999,9999,1739795552
8618,18,Jits_Linear_8,13,9999,9999,9999,1740595296
8618,18,Jits_Linear_8,14,9999,9999,9999,1741396088
8618,18,Jits_Linear_8,15,9999,9999,9999,1742185556
8618,18,Jits_Linear_8,16,9999,9999,9999,1742976076
8618,18,Jits_Linear_8,17,9999,9999,9999,1743775828
8618,18,Jits_Linear_8,18,9999,9999,9999,1744565372
8618,18,Jits_Linear_8,19,9999,9999,9999,1745355892
8618,18,Jits_Linear_8,20,9999,9999,9999,1746135104
8618,18,Jits_Linear_8,21,9999,9999,9999,1746915424
8618,18,Jits_Linear_8,22,9999,9999,9999,1747695676
8618,18,Jits_Linear_8,23,9999,9999,9999,1748476016
8618,18,Jits_Linear_8,24,9999,9999,9999,1749255240
8618,18,Jits_Linear_8,25,9999,9999,9999,1750025324
8618,18,Jits_Linear_8,26,9999,9999,9999,1750795336
8618,18,Jits_Linear_8,27,9999,9999,9999,1751565424
8618,18,Jits_Linear_8,28,9999,9999,9999,1752335432
8618,18,Jits_Linear_8,29,9999,9999,9999,1753105468
8618,18,Jits_Linear_8,30,9999,9999,9999,1753865288
8618,18,Jits_Linear_8,31,9999,9999,9999,1754625112
8618,18,Jits_Linear_8,32,9999,9999,9999,1755385980
8618,18,Jits_Linear_8,33,9999,9999,9999,1756145732
8618,18,Jits_Linear_8,34,9999,9999,9999,1756905568
8618,18,Jits_Linear_8,35,9999,9999,9999,1757655116
8618,18,Jits_Linear_8,36,9999,9999,9999,1758405748
8618,18,Jits_Linear_8,37,9999,9999,9999,1759155288
8618,18,Jits_Linear_8,38,9999,9999,9999,1759905880
8618,18,Jits_Linear_8,39,9999,9999,9999,1760655452
8618,18,Jits_Linear_8,40,9999,9999,9999,1761395812
8618,18,Jits_Linear_8,41,9999,9999,9999,1762135124
8618,18,Jits_Linear_8,42,9999,9999,9999,1762875460
8618,18,Jits_Linear_8,43,9999,9999,9999,1763615804
8618,18,Jits_Linear_8,44,9999,9999,9999,1764355156
8618,18,Jits_Linear_8,45,9999,9999,9999,1765085288
8618,18,Jits_Linear_8,46,9999,9999,9999,1765815392
8618,18,Jits_Linear_8,47,9999,9999,9999,1766545536
8618,18,Jits_Linear_8,48,9999,9999,9999,1767275592
8618,18,Jits_Linear_8,49,9999,9999,9999,1768005736
8618,18,Jits_Linear_8,50,9999,9999,9999,1768725624
8618,18,Jits_Linear_8,51,9999,9999,9999,1769445452
8618,18,Jits_Linear_8,52,9999,9999,9999,1770165336
8618,18,Jits_Linear_8,53,9999,9999,9999,1770885232
8618,18,Jits_Linear_8,54,9999,9999,9999,1771606080
8618,18,Jits_Linear_8,55,9999,9999,9999,1772325980
8618,18,Jits_Linear_8,56,9999,9999,9999,1773035584
8618,18,Jits_Linear_8,57,9999,9999,9999,1773745252
8618,18,Jits_Linear_8,58,9999,9999,9999,1774455868
8618,18,Jits_Linear_8,59,9999,9999,9999,1775165556
8618,18,Jits_Linear_8,60,9999,9999,9999,1775865980
8618,18,Jits_Linear_8,61,9999,9999,9999,1776565324
8618,18,Jits_Linear_8,62,9999,9999,9999,1777265732
8618,18,Jits_Linear_8,63,9999,9999,9999,1777965160
8618,18,Jits_Linear_8,64,9999,9999,9999,1778665576
8618,18,Jits_Linear_8,65,9999,9999,9999,1779355704
8618,18,Jits_Linear_8,66,9999,9999,9999,1780045944
8618,18,Jits_Linear_8,67,9999,9999,9999,1780736096
8618,18,Jits_Linear_8,68,9999,9999,9999,1781435500
8618,18,Jits_Linear_8,69,9999,9999,9999,1782125660
8618,18,Jits_Linear_8,70,9999,9999,9999,1782805612
8618,18,Jits_Linear_8,71,9999,9999,9999,1783485528
8618,18,Jits_Linear_8,72,9999,9999,9999,1784165472
8618,18,Jits_Linear_8,73,9999,9999,9999,1784845376
8618,18,Jits_Linear_8,74,9999,9999,9999,1785525308
8618,18,Jits_Linear_8,75,9999,9999,9999,1786196060
8618,18,Jits_Linear_8,76,9999,9999,9999,1786865768
8618,18,Jits_Linear_8,77,9999,9999,9999,1787535456
8618,18,Jits_Linear_8,78,9999,9999,9999,1788205160
8618,18,Jits_Linear_8,79,9999,9999,9999,1788875892
8618,18,Jits_Linear_8,80,9999,9999,9999,1789535336
8618,18,Jits_Linear_8,81,9999,9999,9999,1790195788
8618,18,Jits_Linear_8,82,9999,9999,9999,1790855244
8618,18,Jits_Linear_8,83,9999,9999,9999,1791515712
8618,18,Jits_Linear_8,84,9999,9999,9999,1792175184
8618,18,Jits_Linear_8,85,9999,9999,9999,1792825404
8618,18,Jits_Linear_8,86,9999,9999,9999,1793475700
8618,18,Jits_Linear_8,87,9999,9999,9999,1794125896
8618,18,Jits_Linear_8,88,9999,9999,9999,1794775136
8618,18,Jits_Linear_8,89,9999,9999,9999,1795425332
8618,18,Jits_Linear_8,90,9999,9999,9999,1796065368
8618,18,Jits_Linear_8,91,9999,9999,9999,1796705364
8618,18,Jits_Linear_8,92,9999,9999,9999,1797345408
8618,18,Jits_Linear_8,93,9999,9999,9999,1797985404
8618,18,Jits_Linear_8,94,9999,9999,9999,1798625356
8618,18,Jits_Linear_8,95,9999,9999,9999,1799255168
8618,18,Jits_Linear_8,96,9999,9999,9999,1799885908
8618,18,Jits_Linear_8,97,9999,9999,9999,1800515648
8618,18,Jits_Linear_8,98,9999,9999,9999,1801145408
8618,18,Jits_Linear_8,99,9999,9999,9999,1801775176
8618,18,Jits_Linear_8,100,9999,9999,9999,1802395704
8618,18,Jits_Linear_8,101,9999,9999,9999,1803015280
8618,18,Jits_Linear_8,102,9999,9999,9999,1803635792
8618,18,Jits_Linear_8,103,9999,9999,9999,1804255292
8618,18,Jits_Linear_8,104,9999,9999,9999,1804875900
8618,18,Jits_Linear_8,105,9999,9999,9999,1805485120
8618,18,Jits_Linear_8,106,9999,9999,9999,1806095468
8618,18,Jits_Linear_8,107,9999,9999,9999,1806705784
8618,18,Jits_Linear_8,108,9999,9999,9999,1807316068
8618,18,Jits_Linear_8,109,9999,9999,9999,1807925352
8618,18,Jits_Linear_8,110,9999,9999,9999,1808525436
8618,18,Jits_Linear_8,111,9999,9999,9999,1809125460
8618,18,Jits_Linear_8,112,9999,9999,9999,1809725536
8618,18,Jits_Linear_8,113,9999,9999,9999,1810325620
8618,18,Jits_Linear_8,114,9999,9999,9999,1810925652
8618,18,Jits_Linear_8,115,9999,9999,9999,1811515460
8618,18,Jits_Linear_8,116,9999,9999,9999,1812105284
8618,18,Jits_Linear_8,117,9999,9999,9999,1812695112
8618,18,Jits_Linear_8,118,9999,9999,9999,1813285984
8618,18,Jits_Linear_8,119,9999,9999,9999,1813875800
8618,18,Jits_Linear_8,120,9999,9999,9999,1814455352
8618,18,Jits_Linear_8,121,9999,9999,9999,1815035968
8618,18,Jits_Linear_8,122,9999,9999,9999,1815615580
8618,18,Jits_Linear_8,123,9999,9999,9999,1816195188
8618,18,Jits_Linear_8,124,9999,9999,9999,1816775736
8618,18,Jits_Linear_8,125,9999,9999,9999,1817345124
8618,18,Jits_Linear_8,126,9999,9999,9999,1817915460
8618,18,Jits_Linear_8,127,9999,9999,9999,1818485868
8618,18,Jits_Linear_8,128,9999,9999,9999,1819055224
8618,18,Jits_Linear_8,129,9999,9999,9999,1819625576
8618,18,Jits_Linear_8,130,9999,9999,9999,1820185660
8618,18,Jits_Linear_8,131,9999,9999,9999,1820745812
8618,18,Jits_Linear_8,132,9999,9999,9999,1821305960
8618,18,Jits_Linear_8,133,9999,9999,9999,1821866104
8618,18,Jits_Linear_8,134,9999,9999,9999,1822425144
8618,18,Jits_Linear_8,135,9999,9999,9999,1822976056
8618,18,Jits_Linear_8,136,9999,9999,9999,1823535220
8618,18,Jits_Linear_8,137,9999,9999,9999,1824086084
8618,18,Jits_Linear_8,138,9999,9999,9999,1824645192
8618,18,Jits_Linear_8,139,9999,9999,9999,1825195080
8618,18,Jits_Linear_8,140,9999,9999,9999,1825735740
8618,18,Jits_Linear_8,141,9999,9999,9999,1826275444
8618,18,Jits_Linear_8,142,9999,9999,9999,1826816112
8618,18,Jits_Linear_8,143,9999,9999,9999,1827365984
8618,18,Jits_Linear_8,144,9999,9999,9999,1827905592
8618,18,Jits_Linear_8,145,9999,9999,9999,1828436064
8618,18,Jits_Linear_8,146,9999,9999,9999,1828965492
8618,18,Jits_Linear_8,147,9999,9999,9999,1829495880
8618,18,Jits_Linear_8,148,9999,9999,9999,1830025312
8618,18,Jits_Linear_8,149,9999,9999,9999,1830555704
8618,18,Jits_Linear_8,150,9999,9999,9999,1831075916
8618,18,Jits_Linear_8,151,9999,9999,9999,1831595084
8618,18,Jits_Linear_8,152,9999,9999,9999,1832115308
8618,18,Jits_Linear_8,153,9999,9999,9999,1832635456
8618,18,Jits_Linear_8,154,9999,9999,9999,1833155672
8618,18,Jits_Linear_8,155,9999,9999,9999,1833665612
8618,18,Jits_Linear_8,156,9999,9999,9999,1834175584
8618,18,Jits_Linear_8,157,9999,9999,9999,1834685524
8618,18,Jits_Linear_8,158,9999,9999,9999,1835195480
8618,18,Jits_Linear_8,159,9999,9999,9999,1835705448
8618,18,Jits_Linear_8,160,9999,9999,9999,1836205184
8618,18,Jits_Linear_8,161,9999,9999,9999,1836705904
8618,18,Jits_Linear_8,162,9999,9999,9999,1837205596
8618,18,Jits_Linear_8,163,9999,9999,9999,1837705272
8618,18,Jits_Linear_8,164,9999,9999,9999,1838206072
8618,18,Jits_Linear_8,165,9999,9999,9999,1838695488
8618,18,Jits_Linear_8,166,9999,9999,9999,1839186040
8618,18,Jits_Linear_8,167,9999,9999,9999,1839675460
8618,18,Jits_Linear_8,168,9999,9999,9999,1840165944
8618,18,Jits_Linear_8,169,9999,9999,9999,1840655448
8619,17,Jits_Phase_5,0,5,56,103,1849487768
8619,17,Jits_Phase_5,1,5,63,98,1849490944
8619,17,Jits_Phase_5,2,5,80,127,1849493988
8619,17,Jits_Phase_5,0,5,56,103,1849987624
8619,17,Jits_Phase_5,1,5,63,98,1849990572
8619,17,Jits_Phase_5,2,5,80,127,1849993696
8619,17,Jits_Phase_5,0,5,56,103,1850488248
8619,17,Jits_Phase_5,1,5,80,127,1850498516
8619,17,Jits_Phase_5,2,5,63,98,1850518300
8619,17,Jits_Phase_5,0,5,63,98,1850937708
8619,17,Jits_Phase_5,1,5,80,127,1850968504
8619,17,Jits_Phase_5,2,5,56,103,1850977652
8619,17,Jits_Phase_5,0,5,80,127,1851497800
8619,17,Jits_Phase_5,1,5,56,103,1851508368
8619,17,Jits_Phase_5,2,5,63,98,1851537744
8619,17,Jits_Phase_5,0,5,63,98,1851988312
8619,17,Jits_Phase_5,1,5,56,103,1852018284
8619,17,Jits_Phase_5,2,5,80,127,1852028260
8619,17,Jits_Phase_5,0,5,56,103,1852437908
8619,17,Jits_Phase_5,1,5,63,98,1852488184
8619,17,Jits_Phase_5,2,5,80,127,1852507372
8619,17,Jits_Phase_5,0,5,80,127,1852937560
8619,17,Jits_Phase_5,1,5,63,98,1852987760
8619,17,Jits_Phase_5,2,5,56,103,1853027548
8619,17,Jits_Phase_5,0,5,56,103,1853438332
8619,17,Jits_Phase_5,1,5,63,98,1853468084
8619,17,Jits_Phase_5,2,5,80,127,1853537536
8619,17,Jits_Phase_5,0,5,56,103,1853938212
8619,17,Jits_Phase_5,1,5,80,127,1853997552
8619,17,Jits_Phase_5,2,5,63,98,1854028348
8619,17,Jits_Phase_5,0,5,56,103,1854448200
8619,17,Jits_Phase_5,1,5,63,98,1854458320
8619,17,Jits_Phase_5,2,5,80,127,1854498256
8619,17,Jits_Phase_5,0,5,63,98,1854937512
8619,17,Jits_Phase_5,1,5,80,127,1855018428
8619,17,Jits_Phase_5,2,5,56,103,1855027504
8619,17,Jits_Phase_5,0,5,63,98,1855488396
8619,17,Jits_Phase_5,1,5,56,103,1855528256
8619,17,Jits_Phase_5,2,5,80,127,1855531472
8619,17,Jits_Phase_5,0,5,56,103,1855948316
8619,17,Jits_Phase_5,1,5,63,98,1855958364
8619,17,Jits_Phase_5,2,5,80,127,1855998376
8619,17,Jits_Phase_5,0,5,56,103,1856437604
8619,17,Jits_Phase_5,1,5,63,98,1856440672
8619,17,Jits_Phase_5,2,5,80,127,1856458288
8619,17,Jits_Phase_5,0,5,80,127,1856947504
8619,17,Jits_Phase_5,1,5,56,103,1856957776
8619,17,Jits_Phase_5,2,5,63,98,1857027476
8619,17,Jits_Phase_5,0,5,63,98,1857438160
8619,17,Jits_Phase_5,1,5,56,103,1857457576
8619,17,Jits_Phase_5,2,5,80,127,1857538364
8619,17,Jits_Phase_5,0,5,56,103,1857948280
8619,17,Jits_Phase_5,1,5,80,127,1857988068
8619,17,Jits_Phase_5,2,5,63,98,1857998140
8619,17,Jits_Phase_5,3,1,48,23,1858035188
8619,17,Jits_Phase_5,0,5,80,127,1858437628
8619,17,Jits_Phase_5,1,5,63,98,1858468276
8619,17,Jits_Phase_5,2,5,56,103,1858508164
8619,17,Jits_Phase_5,3,1,48,51,1858521320
8619,17,Jits_Phase_5,0,5,56,103,1858957620
8619,17,Jits_Phase_5,1,5,63,98,1858988340
8619,17,Jits_Phase_5,2,1,48,56,1858991536
8619,17,Jits_Phase_5,3,5,80,127,1859037660
8619,17,Jits_Phase_5,0,5,80,127,1859458504
8619,17,Jits_Phase_5,1,1,48,55,1859470088
8619,17,Jits_Phase_5,2,5,56,103,1859498288
8619,17,Jits_Phase_5,3,5,63,98,1859507660
8619,17,Jits_Phase_5,0,5,80,127,1859937596
8619,17,Jits_Phase_5,1,5,63,98,1859977532
8619,17,Jits_Phase_5,2,1,48,58,1859978944
8619,17,Jits_Phase_5,3,5,56,103,1860038136
8619,17,Jits_Phase_5,0,5,56,103,1860438332
8619,17,Jits_Phase_5,1,5,80,127,1860447556
8619,17,Jits_Phase_5,2,1,48,57,1860464828
8619,17,Jits_Phase_5,3,5,63,98,1860527488
8619,17,Jits_Phase_5,0,5,80,127,1860948280
8619,17,Jits_Phase_5,1,5,63,98,1861007920
8619,17,Jits_Phase_5,2,1,48,52,1861015608
8619,17,Jits_Phase_5,3,5,56,103,1861037364
8619,17,Jits_Phase_5,0,5,56,103,1861448120
8619,17,Jits_Phase_5,1,1,48,60,1861493560
8619,17,Jits_Phase_5,2,5,80,127,1861507456
8619,17,Jits_Phase_5,3,5,63,98,1861548288
8619,17,Jits_Phase_5,0,5,56,103,1861998076
8619,17,Jits_Phase_5,1,5,63,98,1862008124
8619,17,Jits_Phase_5,2,5,80,127,1862011412
8619,17,Jits_Phase_5,3,1,48,50,1862050492
8619,17,Jits_Phase_5,0,5,80,127,1862447492
8619,17,Jits_Phase_5,1,5,63,98,1862537696
8619,17,Jits_Phase_5,2,1,48,56,1862542836
8619,17,Jits_Phase_5,3,5,56,103,1862548108
8619,17,Jits_Phase_5,0,5,56,103,1862948288
8619,17,Jits_Phase_5,1,5,63,98,1862951236
8619,17,Jits_Phase_5,2,5,80,127,1862954288
8619,17,Jits_Phase_5,3,1,48,53,1863061088
8619,17,Jits_Phase_5,0,5,80,127,1863468348
8619,17,Jits_Phase_5,1,5,63,98,1863517500
8619,17,Jits_Phase_5,2,1,48,56,1863537328
8619,17,Jits_Phase_5,3,5,56,103,1863548288
8619,17,Jits_Phase_5,0,5,56,103,1863947588
8619,17,Jits_Phase_5,1,5,80,127,1863958376
8619,17,Jits_Phase_5,2,5,63,98,1864027532
8619,17,Jits_Phase_5,3,1,48,50,1864048932
8619,17,Jits_Phase_5,0,5,56,103,1864457536
8619,17,Jits_Phase_5,1,5,63,98,1864478292
8619,17,Jits_Phase_5,2,5,80,127,1864537484
8619,17,Jits_Phase_5,3,1,48,43,1864562396
8619,17,Jits_Phase_5,0,5,80,127,1864938044
8619,17,Jits_Phase_5,1,5,63,98,1865007504
8619,17,Jits_Phase_5,2,5,56,103,1865028108
8619,17,Jits_Phase_5,3,1,48,35,1865049956
8619,17,Jits_Phase_5,0,5,80,127,1865457964
8619,17,Jits_Phase_5,1,5,56,103,1865468236
8619,17,Jits_Phase_5,2,5,63,98,1865477532
8619,17,Jits_Phase_5,3,1,48,52,1865507176
8619,17,Jits_Phase_5,0,5,80,127,1865947540
8619,17,Jits_Phase_5,1,5,56,103,1865968220
8619,17,Jits_Phase_5,2,1,48,41,1865989248
8619,17,Jits_Phase_5,3,5,63,98,1866037520
8619,17,Jits_Phase_5,0,5,56,103,1866457416
8619,17,Jits_Phase_5,1,1,48,48,1866465936
8619,17,Jits_Phase_5,2,5,80,127,1866488132
8619,17,Jits_Phase_5,3,5,63,98,1866507540
8619,17,Jits_Phase_5,0,1,48,60,1866911564
8619,17,Jits_Phase_5,1,5,63,98,1866948156
8619,17,Jits_Phase_5,2,5,56,103,1867008256
8619,17,Jits_Phase_5,3,5,80,127,1867038228
8619,17,Jits_Phase_5,0,1,48,51,1867411768
8619,17,Jits_Phase_5,1,5,63,98,1867437340
8619,17,Jits_Phase_5,2,5,80,127,1867440632
8619,17,Jits_Phase_5,3,5,56,103,1867527480
8619,17,Jits_Phase_5,0,1,48,42,1867910532
8619,17,Jits_Phase_5,1,5,56,103,1867957760
8619,17,Jits_Phase_5,2,5,63,98,1867988284
8619,17,Jits_Phase_5,3,5,80,127,1868028352
8619,17,Jits_Phase_5,0,1,48,49,1868430280
8619,17,Jits_Phase_5,1,5,63,98,1868458404
8619,17,Jits_Phase_5,2,5,56,103,1868498144
8619,17,Jits_Phase_5,3,5,80,127,1868517852
8619,17,Jits_Phase_5,0,1,48,57,1868960520
8619,17,Jits_Phase_5,1,5,63,98,1868968268
8619,17,Jits_Phase_5,2,5,56,103,1869008232
8619,17,Jits_Phase_5,3,5,80,127,1869017380
8619,17,Jits_Phase_5,0,5,80,127,1869447648
8619,17,Jits_Phase_5,1,1,48,56,1869480136
8619,17,Jits_Phase_5,2,5,63,98,1869518244
8619,17,Jits_Phase_5,3,5,56,103,1869537504
8619,17,Jits_Phase_5,0,5,56,103,1869937972
8619,17,Jits_Phase_5,1,5,80,127,1869957384
8619,17,Jits_Phase_5,2,5,63,98,1869997320
8619,17,Jits_Phase_5,3,1,48,49,1870046836
8619,17,Jits_Phase_5,0,5,63,98,1870447996
8619,17,Jits_Phase_5,1,5,80,127,1870467332
8619,17,Jits_Phase_5,2,1,48,56,1870478316
8619,17,Jits_Phase_5,3,5,56,103,1870508380
8619,17,Jits_Phase_5,0,5,63,98,1870947892
8619,17,Jits_Phase_5,1,5,56,103,1870968052
8619,17,Jits_Phase_5,2,5,80,127,1870978396
8619,17,Jits_Phase_5,3,1,48,54,1870996204
8619,17,Jits_Phase_5,0,5,80,127,1871448388
8619,17,Jits_Phase_5,1,5,56,103,1871467876
8619,17,Jits_Phase_5,2,1,48,51,1871485668
8619,17,Jits_Phase_5,3,5,63,98,1871497468
8619,17,Jits_Phase_5,0,1,48,47,1871983324
8619,17,Jits_Phase_5,1,5,56,103,1872017892
8619,17,Jits_Phase_5,2,5,80,127,1872021032
8619,17,Jits_Phase_5,3,5,63,98,1872038124
8619,17,Jits_Phase_5,0,5,63,98,1872437560
8619,17,Jits_Phase_5,1,5,56,103,1872468356
8619,17,Jits_Phase_5,2,5,80,127,1872527844
8619,17,Jits_Phase_5,3,1,48,45,1872572160
8619,17,Jits_Phase_5,0,1,48,47,1872985380
8619,17,Jits_Phase_5,1,5,63,98,1873018364
8619,17,Jits_Phase_5,2,5,56,103,1873027436
8619,17,Jits_Phase_5,3,5,80,127,1873038080
8619,17,Jits_Phase_5,0,5,56,103,1873478192
8619,17,Jits_Phase_5,1,5,80,127,1873507644
8619,17,Jits_Phase_5,2,1,48,41,1873516932
8619,17,Jits_Phase_5,3,5,63,98,1873518504
8619,17,Jits_Phase_5,0,5,63,98,1874017796
8619,17,Jits_Phase_5,1,1,48,48,1874022412
8619,17,Jits_Phase_5,2,5,56,103,1874027836
8619,17,Jits_Phase_5,3,5,80,127,1874048368
8619,17,Jits_Phase_5,0,5,56,103,1874447872
8619,17,Jits_Phase_5,1,1,48,54,1874496324
8619,17,Jits_Phase_5,2,5,63,98,1874508104
8619,17,Jits_Phase_5,3,5,80,127,1874511320
8619,17,Jits_Phase_5,0,1,48,55,1874938304
8619,17,Jits_Phase_5,1,5,80,127,1874967996
8619,17,Jits_Phase_5,2,5,56,103,1874978044
8619,17,Jits_Phase_5,3,5,63,98,1875048080
8619,17,Jits_Phase_5,0,5,80,127,1875458392
8619,17,Jits_Phase_5,1,1,48,43,1875521440
8619,17,Jits_Phase_5,2,5,56,103,1875527988
8619,17,Jits_Phase_5,3,5,63,98,1875538408
8619,17,Jits_Phase_5,0,5,63,98,1875998088
8619,17,Jits_Phase_5,1,5,56,103,1876008284
8619,17,Jits_Phase_5,2,5,80,127,1876027916
8619,17,Jits_Phase_5,3,1,48,58,1876034252
8619,17,Jits_Phase_5,0,5,80,127,1876447496
8619,17,Jits_Phase_5,1,1,48,54,1876489348
8619,17,Jits_Phase_5,2,5,63,98,1876507876
8619,17,Jits_Phase_5,3,5,56,103,1876548108
8619,17,Jits_Phase_5,0,5,56,103,1876988388
8619,17,Jits_Phase_5,1,5,63,98,1876997540
8619,17,Jits_Phase_5,2,5,80,127,1877037328
8619,17,Jits_Phase_5,3,1,48,51,1877052580
8619,17,Jits_Phase_5,0,5,56,103,1877447900
8619,17,Jits_Phase_5,1,5,80,127,1877478096
8619,17,Jits_Phase_5,2,1,48,41,1877484428
8619,17,Jits_Phase_5,3,5,63,98,1877527916
8619,17,Jits_Phase_5,0,1,48,54,1877924816
8619,17,Jits_Phase_5,1,5,56,103,1877988036
8619,17,Jits_Phase_5,2,5,63,98,1878027732
8619,17,Jits_Phase_5,3,5,80,127,1878031020
8619,17,Jits_Phase_5,0,1,48,37,1878465316
8619,17,Jits_Phase_5,1,5,56,103,1878488600
8619,17,Jits_Phase_5,2,5,63,98,1878497824
8619,17,Jits_Phase_5,3,5,80,127,1878518136
8619,17,Jits_Phase_5,0,5,56,103,1878948176
8619,17,Jits_Phase_5,1,5,80,127,1878951316
8619,17,Jits_Phase_5,2,1,48,45,1878978720
8619,17,Jits_Phase_5,3,5,63,98,1878988204
8619,17,Jits_Phase_5,0,1,48,52,1879446028
8619,17,Jits_Phase_5,1,5,63,98,1879488004
8619,17,Jits_Phase_5,2,5,56,103,1879517480
8619,17,Jits_Phase_5,3,5,80,127,1879538160
8619,17,Jits_Phase_5,0,5,80,127,1879957864
8619,17,Jits_Phase_5,1,5,56,103,1879968284
8619,17,Jits_Phase_5,2,5,63,98,1879978556
8619,17,Jits_Phase_5,3,1,48,52,1879979968
8619,17,Jits_Phase_5,0,5,56,103,1880457556
8619,17,Jits_Phase_5,1,5,80,127,1880497496
8619,17,Jits_Phase_5,2,1,48,48,1880498904
8619,17,Jits_Phase_5,3,5,63,98,1880528156
8619,17,Jits_Phase_5,0,1,48,48,1880960060
8619,17,Jits_Phase_5,1,5,63,98,1880967576
8619,17,Jits_Phase_5,2,5,80,127,1880977772
8619,17,Jits_Phase_5,3,5,56,103,1880988116
8619,17,Jits_Phase_5,0,1,48,51,1881380088
8619,17,Jits_Phase_5,1,5,56,103,1881457956
8619,17,Jits_Phase_5,2,5,63,98,1881527700
8619,17,Jits_Phase_5,3,5,80,127,1881537968
8619,17,Jits_Phase_5,0,5,80,127,1881967904
8619,17,Jits_Phase_5,1,5,56,103,1881978400
8619,17,Jits_Phase_5,2,1,48,38,1882011260
8619,17,Jits_Phase_5,3,5,63,98,1882028516
8619,17,Jits_Phase_5,0,5,80,127,1882477932
8619,17,Jits_Phase_5,1,1,48,46,1882523520
8619,17,Jits_Phase_5,2,5,56,103,1882538312
8619,17,Jits_Phase_5,3,5,63,98,1882568060
8619,17,Jits_Phase_5,0,5,56,103,1882977696
8619,17,Jits_Phase_5,1,5,80,127,1882980760
8619,17,Jits_Phase_5,2,5,63,98,1883017708
8619,17,Jits_Phase_5,3,1,48,38,1883089024
8619,17,Jits_Phase_5,0,5,56,103,1883508016
8619,17,Jits_Phase_5,1,1,48,52,1883530912
8619,17,Jits_Phase_5,2,5,63,98,1883537760
8619,17,Jits_Phase_5,3,5,80,127,1883547956
8619,17,Jits_Phase_5,0,5,63,98,1884018048
8619,17,Jits_Phase_5,1,5,80,127,1884028244
8619,17,Jits_Phase_5,2,5,56,103,1884037692
8619,17,Jits_Phase_5,3,1,48,36,1884047932
8619,17,Jits_Phase_5,0,5,80,127,1884467680
8619,17,Jits_Phase_5,1,5,56,103,1884517732
8619,17,Jits_Phase_5,2,5,63,98,1884520872
8619,17,Jits_Phase_5,3,1,48,50,1884636392
8619,17,Jits_Phase_5,0,5,56,103,1884997924
8619,17,Jits_Phase_5,1,5,80,127,1885017412
8619,17,Jits_Phase_5,2,5,63,98,1885027832
8619,17,Jits_Phase_5,3,1,48,48,1885160116
8619,17,Jits_Phase_5,0,5,63,98,1885478208
8619,17,Jits_Phase_5,1,5,56,103,1885507884
8619,17,Jits_Phase_5,2,5,80,127,1885528488
8619,17,Jits_Phase_5,3,1,48,45,1885707380
8619,17,Jits_Phase_5,0,5,56,103,1885988072
8619,17,Jits_Phase_5,1,5,80,127,1885997444
8619,17,Jits_Phase_5,2,5,63,98,1886068164
8619,17,Jits_Phase_5,3,1,48,41,1886223448
8619,17,Jits_Phase_5,0,5,63,98,1886477644
8619,17,Jits_Phase_5,1,5,80,127,1886517732
8619,17,Jits_Phase_5,2,5,56,103,1886557744
8619,17,Jits_Phase_5,3,1,48,44,1886752956
8619,17,Jits_Phase_5,0,5,56,103,1886987736
8619,17,Jits_Phase_5,1,5,63,98,1886997928
8619,17,Jits_Phase_5,2,5,80,127,1887018312
8619,17,Jits_Phase_5,3,1,48,28,1887256680
8619,17,Jits_Phase_5,0,5,63,98,1887528180
8619,17,Jits_Phase_5,1,5,80,127,1887547816
8619,17,Jits_Phase_5,2,5,56,103,1887568124
8619,17,Jits_Phase_5,0,1,48,34,1887830348
8619,17,Jits_Phase_5,1,5,56,103,1887967788
8619,17,Jits_Phase_5,2,5,80,127,1888047656
8619,17,Jits_Phase_5,3,5,63,98,1888057924
8619,17,Jits_Phase_5,0,1,48,45,1888389364
8619,17,Jits_Phase_5,1,5,80,127,1888508148
8619,17,Jits_Phase_5,2,5,63,98,1888517448
8619,17,Jits_Phase_5,3,5,56,103,1888548244
8619,17,Jits_Phase_5,0,5,63,98,1888968112
8619,17,Jits_Phase_5,1,5,80,127,1889008000
8619,17,Jits_Phase_5,2,1,48,46,1889050824
8619,17,Jits_Phase_5,3,5,56,103,1889068308
8619,17,Jits_Phase_5,0,5,63,98,1889477976
8619,17,Jits_Phase_5,1,5,56,103,1889528128
8619,17,Jits_Phase_5,2,5,80,127,1889557876
8619,17,Jits_Phase_5,3,1,48,43,1889609236
8619,17,Jits_Phase_5,0,5,80,127,1889977728
8619,17,Jits_Phase_5,1,5,63,98,1889988072
8619,17,Jits_Phase_5,2,1,48,55,1890021408
8619,17,Jits_Phase_5,3,5,56,103,1890057544
8619,17,Jits_Phase_5,0,5,80,127,1890537820
8619,17,Jits_Phase_5,1,5,56,103,1890548016
8619,17,Jits_Phase_5,2,5,63,98,1890551156
8619,17,Jits_Phase_5,3,1,48,54,1890560644
8619,17,Jits_Phase_5,0,5,56,103,1890978292
8619,17,Jits_Phase_5,1,5,80,127,1890997780
8619,17,Jits_Phase_5,2,5,63,98,1891007828
8619,17,Jits_Phase_5,3,1,48,54,1891059140
8619,17,Jits_Phase_5,0,5,63,98,1891488100
8619,17,Jits_Phase_5,1,5,56,103,1891528036
8619,17,Jits_Phase_5,2,5,80,127,1891547696
8619,17,Jits_Phase_5,3,1,48,51,1891572988
8619,17,Jits_Phase_5,0,5,63,98,1891987848
8619,17,Jits_Phase_5,1,5,56,103,1892048412
8619,17,Jits_Phase_5,2,5,80,127,1892051328
8619,17,Jits_Phase_5,3,1,48,39,1892090708
8619,17,Jits_Phase_5,0,5,56,103,1892447884
8619,17,Jits_Phase_5,1,5,80,127,1892468120
8619,17,Jits_Phase_5,2,5,63,98,1892507984
8619,17,Jits_Phase_5,3,1,48,38,1892612776
8619,17,Jits_Phase_5,0,5,56,103,1892977992
8619,17,Jits_Phase_5,1,5,63,98,1892997628
8619,17,Jits_Phase_5,2,5,80,127,1893007824
8619,17,Jits_Phase_5,3,1,48,60,1893064196
8619,17,Jits_Phase_5,0,5,80,127,1893448008
8619,17,Jits_Phase_5,1,5,56,103,1893477684
8619,17,Jits_Phase_5,2,1,48,56,1893511816
8619,17,Jits_Phase_5,3,5,63,98,1893517840
8619,17,Jits_Phase_5,0,5,80,127,1893957888
8619,17,Jits_Phase_5,1,5,56,103,1893977596
8619,17,Jits_Phase_5,2,1,48,39,1894019072
8619,17,Jits_Phase_5,3,5,63,98,1894037828
8619,17,Jits_Phase_5,0,5,56,103,1894467916
8619,17,Jits_Phase_5,1,5,80,127,1894488596
8619,17,Jits_Phase_5,2,1,48,38,1894526408
8619,17,Jits_Phase_5,3,5,63,98,1894547704
8619,17,Jits_Phase_5,0,5,80,127,1894948196
8619,17,Jits_Phase_5,1,5,56,103,1894957644
8619,17,Jits_Phase_5,2,5,63,98,1894998328
8619,17,Jits_Phase_5,3,1,48,53,1895038456
8619,17,Jits_Phase_5,0,5,63,98,1895447880
8619,17,Jits_Phase_5,1,1,48,48,1895480516
8619,17,Jits_Phase_5,2,5,56,103,1895487808
8619,17,Jits_Phase_5,3,5,80,127,1895490800
8619,17,Jits_Phase_5,0,5,63,98,1895968068
8619,17,Jits_Phase_5,1,1,48,53,1895983544
8619,17,Jits_Phase_5,2,5,80,127,1896007924
8619,17,Jits_Phase_5,3,5,56,103,1896037672
8619,17,Jits_Phase_5,0,5,56,103,1896457776
8619,17,Jits_Phase_5,1,5,63,98,1896467748
8619,17,Jits_Phase_5,2,1,48,49,1896481428
8619,17,Jits_Phase_5,3,5,80,127,1896497640
8619,17,Jits_Phase_5,0,5,80,127,1896948020
8619,17,Jits_Phase_5,1,1,48,43,1896983652
8619,17,Jits_Phase_5,2,5,63,98,1897017844
8619,17,Jits_Phase_5,3,5,56,103,1897027816
8619,17,Jits_Phase_5,0,1,48,60,1897445892
8619,17,Jits_Phase_5,1,5,63,98,1897447704
8619,17,Jits_Phase_5,2,5,56,103,1897517608
8619,17,Jits_Phase_5,3,5,80,127,1897527728
8619,17,Jits_Phase_5,0,5,63,98,1897928032
8619,17,Jits_Phase_5,1,5,56,103,1897947692
8619,17,Jits_Phase_5,2,5,80,127,1897987552
8619,17,Jits_Phase_5,3,1,48,57,1898010520
8619,17,Jits_Phase_5,0,5,56,103,1898408300
8619,17,Jits_Phase_5,1,5,63,98,1898417600
8619,17,Jits_Phase_5,2,5,80,127,1898498384
8619,17,Jits_Phase_5,3,1,48,53,1898507356
8619,17,Jits_Phase_5,0,5,63,98,1898897800
8619,17,Jits_Phase_5,1,5,56,103,1898927548
8619,17,Jits_Phase_5,2,5,80,127,1898968556
8619,17,Jits_Phase_5,3,1,48,61,1899023588
8619,17,Jits_Phase_5,0,5,56,103,1899397772
8619,17,Jits_Phase_5,1,5,63,98,1899437636
8619,17,Jits_Phase_5,2,5,80,127,1899478644
8619,17,Jits_Phase_5,3,1,48,63,1899486188
8619,17,Jits_Phase_5,0,5,80,127,1899898132
8619,17,Jits_Phase_5,1,5,56,103,1899978100
8619,17,Jits_Phase_5,2,5,63,98,1899988592
8619,17,Jits_Phase_5,3,1,48,54,1900003996
8619,17,Jits_Phase_5,0,5,56,103,1900437904
8619,17,Jits_Phase_5,1,5,63,98,1900440824
8619,17,Jits_Phase_5,2,5,80,127,1900448324
8619,17,Jits_Phase_5,3,1,48,51,1900563156
8619,17,Jits_Phase_5,0,5,56,103,1900958040
8619,17,Jits_Phase_5,1,5,63,98,1900977528
8619,17,Jits_Phase_5,2,5,80,127,1900987724
8619,17,Jits_Phase_5,3,1,48,73,1901071768
8619,17,Jits_Phase_5,0,5,63,98,1901417800
8619,17,Jits_Phase_5,1,5,80,127,1901427996
8619,17,Jits_Phase_5,2,5,56,103,1901447628
8619,17,Jits_Phase_5,3,1,48,56,1901629356
8619,17,Jits_Phase_5,0,5,63,98,1901927660
8619,17,Jits_Phase_5,1,5,56,103,1902007676
8619,17,Jits_Phase_5,2,5,80,127,1902010592
8619,17,Jits_Phase_5,3,1,48,58,1902182512
8619,17,Jits_Phase_5,0,5,63,98,1902427628
8619,17,Jits_Phase_5,1,5,56,103,1902448012
8619,17,Jits_Phase_5,2,5,80,127,1902477608
8619,17,Jits_Phase_5,3,1,48,61,1902703828
8619,17,Jits_Phase_5,0,5,56,103,1902928200
8619,17,Jits_Phase_5,1,5,63,98,1902947836
8619,17,Jits_Phase_5,2,5,80,127,1902958028
8619,17,Jits_Phase_5,0,1,48,53,1903229624
8619,17,Jits_Phase_5,1,5,56,103,1903457644
8619,17,Jits_Phase_5,2,5,63,98,1903488740
8619,17,Jits_Phase_5,3,5,80,127,1903491952
8619,17,Jits_Phase_5,0,1,48,50,1903772144
8619,17,Jits_Phase_5,1,5,56,103,1903908240
8619,17,Jits_Phase_5,2,5,63,98,1903948252
8619,17,Jits_Phase_5,3,5,80,127,1904007516
8619,17,Jits_Phase_5,0,1,48,50,1904357712
8619,17,Jits_Phase_5,1,5,56,103,1904428756
8619,17,Jits_Phase_5,2,5,63,98,1904437532
8619,17,Jits_Phase_5,3,5,80,127,1904498200
8619,17,Jits_Phase_5,0,1,48,62,1904917024
8619,17,Jits_Phase_5,1,5,56,103,1904928060
8619,17,Jits_Phase_5,2,5,80,127,1904947620
8619,17,Jits_Phase_5,3,5,63,98,1904978340
8619,17,Jits_Phase_5,0,5,80,127,1905427816
8619,17,Jits_Phase_5,1,1,48,54,1905437864
8619,17,Jits_Phase_5,2,5,56,103,1905439424
8619,17,Jits_Phase_5,3,5,63,98,1905457488
8619,17,Jits_Phase_5,0,5,63,98,1905918436
8619,17,Jits_Phase_5,1,5,80,127,1905998156
8619,17,Jits_Phase_5,2,5,56,103,1906008576
8619,17,Jits_Phase_5,3,1,48,43,1906049452
8619,17,Jits_Phase_5,0,5,80,127,1906508244
8619,17,Jits_Phase_5,1,1,48,52,1906513532
8619,17,Jits_Phase_5,2,5,56,103,1906527648
8619,17,Jits_Phase_5,3,5,63,98,1906530564
8619,17,Jits_Phase_5,0,5,63,98,1906997588
8619,17,Jits_Phase_5,1,5,80,127,1907000876
8619,17,Jits_Phase_5,2,1,48,57,1907014556
8619,17,Jits_Phase_5,3,5,56,103,1907057892
8619,17,Jits_Phase_5,0,5,56,103,1907477928
8619,17,Jits_Phase_5,1,5,80,127,1907488048
8619,17,Jits_Phase_5,2,5,63,98,1907527984
8619,17,Jits_Phase_5,3,1,48,62,1907533948
8619,17,Jits_Phase_5,0,5,56,103,1907958208
8619,17,Jits_Phase_5,1,1,48,64,1907996320
8619,17,Jits_Phase_5,2,5,63,98,1908017468
8619,17,Jits_Phase_5,3,5,80,127,1908027740
8619,17,Jits_Phase_5,0,5,63,98,1908468164
8619,17,Jits_Phase_5,1,5,80,127,1908508028
8619,17,Jits_Phase_5,2,1,48,65,1908545600
8619,17,Jits_Phase_5,3,5,56,103,1908548104
8619,17,Jits_Phase_5,0,5,56,103,1908967764
8619,17,Jits_Phase_5,1,5,63,98,1909047708
8619,17,Jits_Phase_5,2,5,80,127,1909050996
8619,17,Jits_Phase_5,3,1,48,53,1909106264
8619,17,Jits_Phase_5,0,5,80,127,1909527904
8619,17,Jits_Phase_5,1,5,56,103,1909557576
8619,17,Jits_Phase_5,2,5,63,98,1909560644
8619,17,Jits_Phase_5,3,1,48,55,1909593280
8619,17,Jits_Phase_5,0,5,56,103,1909987660
8619,17,Jits_Phase_5,1,5,80,127,1910008416
8619,17,Jits_Phase_5,2,5,63,98,1910048204
8619,17,Jits_Phase_5,3,1,48,55,1910102040
8619,17,Jits_Phase_5,0,5,80,127,1910467924
8619,17,Jits_Phase_5,1,5,63,98,1910488408
8619,17,Jits_Phase_5,2,5,56,103,1910547968
8619,17,Jits_Phase_5,3,1,48,54,1910630792
8619,17,Jits_Phase_5,0,5,63,98,1910977880
8619,17,Jits_Phase_5,1,5,56,103,1910988248
8619,17,Jits_Phase_5,2,5,80,127,1911038372
8619,17,Jits_Phase_5,3,1,48,52,1911084632
8619,17,Jits_Phase_5,0,5,56,103,1911468336
8619,17,Jits_Phase_5,1,5,63,98,1911487896
8619,17,Jits_Phase_5,2,5,80,127,1911498116
8619,17,Jits_Phase_5,3,1,48,51,1911651200
8619,17,Jits_Phase_5,0,5,56,103,1911957832
8619,17,Jits_Phase_5,1,5,63,98,1911960752
8619,17,Jits_Phase_5,2,5,80,127,1911978440
8619,17,Jits_Phase_5,3,1,48,56,1912162488
8619,17,Jits_Phase_5,0,5,63,98,1912497588
8619,17,Jits_Phase_5,1,5,56,103,1912528332
8619,17,Jits_Phase_5,2,5,80,127,1912558008
8619,17,Jits_Phase_5,3,1,48,54,1912734012
8619,17,Jits_Phase_5,0,5,80,127,1912958380
8619,17,Jits_Phase_5,1,5,56,103,1913048308
8619,17,Jits_Phase_5,2,5,63,98,1913051380
8619,17,Jits_Phase_5,3,1,48,55,1913244392
8619,17,Jits_Phase_5,0,5,56,103,1913458136
8619,17,Jits_Phase_5,1,5,80,127,1913461128
8619,17,Jits_Phase_5,2,5,63,98,1913537852
8619,17,Jits_Phase_5,0,1,48,48,1913807540
8619,17,Jits_Phase_5,1,5,80,127,1913957612
8619,17,Jits_Phase_5,2,5,63,98,1914018448
8619,17,Jits_Phase_5,3,5,56,103,1914047900
8619,17,Jits_Phase_5,0,1,48,47,1914346396
8619,17,Jits_Phase_5,1,5,63,98,1914457588
8619,17,Jits_Phase_5,2,5,80,127,1914467632
8619,17,Jits_Phase_5,3,5,56,103,1914538432
8619,17,Jits_Phase_5,0,1,48,48,1914895896
8619,17,Jits_Phase_5,1,5,56,103,1915017572
8619,17,Jits_Phase_5,2,5,80,127,1915048368
8619,17,Jits_Phase_5,3,5,63,98,1915097324
8619,17,Jits_Phase_5,0,1,48,50,1915466816
8619,17,Jits_Phase_5,1,5,63,98,1915608516
8619,17,Jits_Phase_5,2,5,56,103,1915638340
8619,17,Jits_Phase_5,3,5,80,127,1915641328
8619,17,Jits_Phase_5,0,5,63,98,1916108132
8619,17,Jits_Phase_5,1,1,48,51,1916120988
8619,17,Jits_Phase_5,2,5,80,127,1916127540
8619,17,Jits_Phase_5,3,5,56,103,1916137884
8619,17,Jits_Phase_5,0,5,56,103,1916618068
8619,17,Jits_Phase_5,1,5,63,98,1916621208
8619,17,Jits_Phase_5,2,5,80,127,1916637480
8619,17,Jits_Phase_5,3,1,48,54,1916662924
8619,17,Jits_Phase_5,0,5,56,103,1917067760
8619,17,Jits_Phase_5,1,5,63,98,1917077880
8619,17,Jits_Phase_5,2,5,80,127,1917107704
8619,17,Jits_Phase_5,3,1,48,55,1917253920
8619,17,Jits_Phase_5,0,5,63,98,1917587900
8619,17,Jits_Phase_5,1,5,80,127,1917608432
8619,17,Jits_Phase_5,2,5,56,103,1917648468
8619,17,Jits_Phase_5,3,1,48,53,1917819540
8619,17,Jits_Phase_5,0,5,56,103,1918118292
8619,17,Jits_Phase_5,1,5,63,98,1918158404
8619,17,Jits_Phase_5,2,5,80,127,1918161692
8619,17,Jits_Phase_5,0,1,48,51,1918362260
8619,17,Jits_Phase_5,1,5,80,127,1918557520
8619,17,Jits_Phase_5,2,5,56,103,1918597460
8619,17,Jits_Phase_5,3,5,63,98,1918647584
8619,17,Jits_Phase_5,0,1,48,54,1918939932
8619,17,Jits_Phase_5,1,5,56,103,1919117732
8619,17,Jits_Phase_5,2,5,80,127,1919127928
8619,17,Jits_Phase_5,3,5,63,98,1919157604
8619,17,Jits_Phase_5,0,1,48,58,1919486372
8619,17,Jits_Phase_5,1,5,56,103,1919568428
8619,17,Jits_Phase_5,2,5,80,127,1919608276
8619,17,Jits_Phase_5,3,5,63,98,1919658328
8619,17,Jits_Phase_5,0,1,48,62,1920062308
8619,17,Jits_Phase_5,1,5,56,103,1920067808
8619,17,Jits_Phase_5,2,5,80,127,1920107896
8619,17,Jits_Phase_5,3,5,63,98,1920158152
8619,17,Jits_Phase_5,0,5,80,127,1920557452
8619,17,Jits_Phase_5,1,5,63,98,1920638440
8619,17,Jits_Phase_5,2,1,48,54,1920643728
8619,17,Jits_Phase_5,3,5,56,103,1920647436
8619,17,Jits_Phase_5,0,5,80,127,1921108236
8619,17,Jits_Phase_5,1,5,56,103,1921117532
8619,17,Jits_Phase_5,2,5,63,98,1921137992
8619,17,Jits_Phase_5,3,1,48,53,1921220964
8619,17,Jits_Phase_5,0,5,63,98,1921578332
8619,17,Jits_Phase_5,1,5,56,103,1921648232
8619,17,Jits_Phase_5,2,5,80,127,1921651076
8619,17,Jits_Phase_5,3,1,48,36,1921737452
8619,17,Jits_Phase_5,0,5,80,127,1922067960
8619,17,Jits_Phase_5,1,5,63,98,1922118088
8619,17,Jits_Phase_5,2,5,56,103,1922158024
8619,17,Jits_Phase_5,3,1,48,48,1922286348
8619,17,Jits_Phase_5,0,5,63,98,1922607436
8619,17,Jits_Phase_5,1,5,56,103,1922648572
8619,17,Jits_Phase_5,2,5,80,127,1922657644
8619,17,Jits_Phase_5,0,1,48,57,1922866276
8619,17,Jits_Phase_5,1,5,63,98,1923098064
8619,17,Jits_Phase_5,2,5,56,103,1923117404
8619,17,Jits_Phase_5,3,5,80,127,1923137860
8619,17,Jits_Phase_5,0,1,48,58,1923411004
8619,17,Jits_Phase_5,1,5,80,127,1923557736
8619,17,Jits_Phase_5,2,5,56,103,1923568228
8619,17,Jits_Phase_5,3,5,63,98,1923587420
8619,17,Jits_Phase_5,0,1,48,83,1923981096
8619,17,Jits_Phase_5,1,5,63,98,1924088344
8619,17,Jits_Phase_5,2,5,56,103,1924128208
8619,17,Jits_Phase_5,3,5,80,127,1924157660
8619,17,Jits_Phase_5,0,5,56,103,1924548164
8619,17,Jits_Phase_5,1,1,48,63,1924562172
8619,17,Jits_Phase_5,2,5,63,98,1924577560
8619,17,Jits_Phase_5,3,5,80,127,1924608280
8619,17,Jits_Phase_5,0,5,80,127,1924967852
8619,17,Jits_Phase_5,1,5,56,103,1925037532
8619,17,Jits_Phase_5,2,5,63,98,1925040524
8619,17,Jits_Phase_5,3,1,48,70,1925134832
8619,17,Jits_Phase_5,0,5,56,103,1925477724
8619,17,Jits_Phase_5,1,5,63,98,1925528000
8619,17,Jits_Phase_5,2,5,80,127,1925557744
8619,17,Jits_Phase_5,3,1,48,72,1925657228
8619,17,Jits_Phase_5,0,5,63,98,1925958156
8619,17,Jits_Phase_5,1,5,80,127,1925961372
8619,17,Jits_Phase_5,2,5,56,103,1926018396
8619,17,Jits_Phase_5,3,1,48,60,1926170760
8619,17,Jits_Phase_5,0,5,56,103,1926488456
8619,17,Jits_Phase_5,1,5,80,127,1926497604
8619,17,Jits_Phase_5,2,5,63,98,1926547876
8619,17,Jits_Phase_5,3,1,48,51,1926751176
8619,17,Jits_Phase_5,0,5,63,98,1926957284
8619,17,Jits_Phase_5,1,5,56,103,1926967776
8619,17,Jits_Phase_5,2,5,80,127,1926998272
8619,17,Jits_Phase_5,0,1,48,51,1927307692
8619,17,Jits_Phase_5,1,5,63,98,1927488056
8619,17,Jits_Phase_5,2,5,80,127,1927491344
8619,17,Jits_Phase_5,3,5,56,103,1927517580
8619,17,Jits_Phase_5,0,1,48,63,1927834536
8619,17,Jits_Phase_5,1,5,63,98,1928008172
8619,17,Jits_Phase_5,2,5,56,103,1928027432
8619,17,Jits_Phase_5,3,5,80,127,1928030572
8619,17,Jits_Phase_5,0,1,48,47,1928346356
8619,17,Jits_Phase_5,1,5,63,98,1928467832
8619,17,Jits_Phase_5,2,5,56,103,1928537436
8619,17,Jits_Phase_5,3,5,80,127,1928557896
8619,17,Jits_Phase_5,0,1,48,61,1928949736
8619,17,Jits_Phase_5,1,5,56,103,1928958380
8619,17,Jits_Phase_5,2,5,63,98,1928967528
8619,17,Jits_Phase_5,3,5,80,127,1929057792
8619,17,Jits_Phase_5,0,5,56,103,1929477616
8619,17,Jits_Phase_5,1,5,80,127,1929517404
8619,17,Jits_Phase_5,2,5,63,98,1929527524
8619,17,Jits_Phase_5,3,1,48,55,1929543000
8619,17,Jits_Phase_5,0,5,56,103,1929997608
8619,17,Jits_Phase_5,1,5,63,98,1930028480
8619,17,Jits_Phase_5,2,5,80,127,1930058300
8619,17,Jits_Phase_5,3,1,48,54,1930117908
8619,17,Jits_Phase_5,0,5,80,127,1930457516
8619,17,Jits_Phase_5,1,5,63,98,1930498352
8619,17,Jits_Phase_5,2,5,56,103,1930517988
8619,17,Jits_Phase_5,3,1,48,35,1930646436
8619,17,Jits_Phase_5,0,5,56,103,1930998112
8619,17,Jits_Phase_5,1,5,80,127,1931017524
8619,17,Jits_Phase_5,2,5,63,98,1931038280
8619,17,Jits_Phase_5,0,1,48,69,1931262608
8619,17,Jits_Phase_5,1,5,63,98,1931468208
8619,17,Jits_Phase_5,2,5,56,103,1931478328
8619,17,Jits_Phase_5,3,5,80,127,1931538116
8619,17,Jits_Phase_5,0,1,48,49,1931839956
8619,17,Jits_Phase_5,1,5,56,103,1931967856
8619,17,Jits_Phase_5,2,5,63,98,1932037488
8619,17,Jits_Phase_5,3,5,80,127,1932058092
8619,17,Jits_Phase_5,0,1,48,40,1932444740
8619,17,Jits_Phase_5,1,5,56,103,1932467552
8619,17,Jits_Phase_5,2,5,63,98,1932498224
8619,17,Jits_Phase_5,3,5,80,127,1932538308
8619,17,Jits_Phase_5,0,5,63,98,1932958164
8619,17,Jits_Phase_5,1,1,48,43,1932965924
8619,17,Jits_Phase_5,2,5,56,103,1933008308
8619,17,Jits_Phase_5,3,5,80,127,1933017460
8619,17,Jits_Phase_5,0,5,56,103,1933497696
8619,17,Jits_Phase_5,1,1,48,48,1933518820
8619,17,Jits_Phase_5,2,5,63,98,1933548212
8619,17,Jits_Phase_5,3,5,80,127,1933558036
8619,17,Jits_Phase_5,0,5,56,103,1933967644
8619,17,Jits_Phase_5,1,5,63,98,1933978212
8619,17,Jits_Phase_5,2,1,48,46,1934001336
8619,17,Jits_Phase_5,3,5,80,127,1934057796
8619,17,Jits_Phase_5,0,9999,9999,9999,1849735272
8619,17,Jits_Phase_5,1,9999,9999,9999,1850236028
8619,17,Jits_Phase_5,2,9999,9999,9999,1850735684
8619,17,Jits_Phase_5,3,9999,9999,9999,1851235408
8619,17,Jits_Phase_5,4,9999,9999,9999,1851735124
8619,17,Jits_Phase_5,5,9999,9999,9999,1852235900
8619,17,Jits_Phase_5,6,9999,9999,9999,1852735612
8619,17,Jits_Phase_5,7,9999,9999,9999,1853235264
8619,17,Jits_Phase_5,8,9999,9999,9999,1853736036
8619,17,Jits_Phase_5,9,9999,9999,9999,1854235764
8619,17,Jits_Phase_5,10,9999,9999,9999,1854735416
8619,17,Jits_Phase_5,11,9999,9999,9999,1855235144
8619,17,Jits_Phase_5,12,9999,9999,9999,1855735900
8619,17,Jits_Phase_5,13,9999,9999,9999,1856235608
8619,17,Jits_Phase_5,14,9999,9999,9999,1856735320
8619,17,Jits_Phase_5,15,9999,9999,9999,1857236092
8619,17,Jits_Phase_5,16,9999,9999,9999,1857735788
8619,17,Jits_Phase_5,17,9999,9999,9999,1858235476
8619,17,Jits_Phase_5,18,9999,9999,9999,1858735160
8619,17,Jits_Phase_5,19,9999,9999,9999,1859235896
8619,17,Jits_Phase_5,20,9999,9999,9999,1859735660
8619,17,Jits_Phase_5,21,9999,9999,9999,1860235352
8619,17,Jits_Phase_5,22,9999,9999,9999,1860736084
8619,17,Jits_Phase_5,23,9999,9999,9999,1861246036
8619,17,Jits_Phase_5,24,9999,9999,9999,1861745728
8619,17,Jits_Phase_5,25,9999,9999,9999,1862245480
8619,17,Jits_Phase_5,26,9999,9999,9999,1862745176
8619,17,Jits_Phase_5,27,9999,9999,9999,1863245884
8619,17,Jits_Phase_5,28,9999,9999,9999,1863745652
8619,17,Jits_Phase_5,29,9999,9999,9999,1864245340
8619,17,Jits_Phase_5,30,9999,9999,9999,1864735812
8619,17,Jits_Phase_5,31,9999,9999,9999,1865235580
8619,17,Jits_Phase_5,32,9999,9999,9999,1865735264
8619,17,Jits_Phase_5,33,9999,9999,9999,1866236004
8619,17,Jits_Phase_5,34,9999,9999,9999,1866735692
8619,17,Jits_Phase_5,35,9999,9999,9999,1867235384
8619,17,Jits_Phase_5,36,9999,9999,9999,1867735120
8619,17,Jits_Phase_5,37,9999,9999,9999,1868235844
8619,17,Jits_Phase_5,38,9999,9999,9999,1868735568
8619,17,Jits_Phase_5,39,9999,9999,9999,1869235316
8619,17,Jits_Phase_5,40,9999,9999,9999,1869736040
8619,17,Jits_Phase_5,41,9999,9999,9999,1870235724
8619,17,Jits_Phase_5,42,9999,9999,9999,1870735484
8619,17,Jits_Phase_5,43,9999,9999,9999,1871235160
8619,17,Jits_Phase_5,44,9999,9999,9999,1871735880
8619,17,Jits_Phase_5,45,9999,9999,9999,1872235640
8619,17,Jits_Phase_5,46,9999,9999,9999,1872735316
8619,17,Jits_Phase_5,47,9999,9999,9999,1873236044
8619,17,Jits_Phase_5,48,9999,9999,9999,1873746032
8619,17,Jits_Phase_5,49,9999,9999,9999,1874245732
8619,17,Jits_Phase_5,50,9999,9999,9999,1874745468
8619,17,Jits_Phase_5,51,9999,9999,9999,1875245160
8619,17,Jits_Phase_5,52,9999,9999,9999,1875745884
8619,17,Jits_Phase_5,53,9999,9999,9999,1876245576
8619,17,Jits_Phase_5,54,9999,9999,9999,1876745324
8619,17,Jits_Phase_5,55,9999,9999,9999,1877246064
8619,17,Jits_Phase_5,56,9999,9999,9999,1877745728
8619,17,Jits_Phase_5,57,9999,9999,9999,1878245484
8619,17,Jits_Phase_5,58,9999,9999,9999,1878745164
8619,17,Jits_Phase_5,59,9999,9999,9999,1879245944
8619,17,Jits_Phase_5,60,9999,9999,9999,1879745612
8619,17,Jits_Phase_5,61,9999,9999,9999,1880245356
8619,17,Jits_Phase_5,62,9999,9999,9999,1880746096
8619,17,Jits_Phase_5,63,9999,9999,9999,1881245784
8619,17,Jits_Phase_5,64,9999,9999,9999,1881765984
8619,17,Jits_Phase_5,65,9999,9999,9999,1882265660
8619,17,Jits_Phase_5,66,9999,9999,9999,1882765428
8619,17,Jits_Phase_5,67,9999,9999,9999,1883265104
8619,17,Jits_Phase_5,68,9999,9999,9999,1883765844
8619,17,Jits_Phase_5,69,9999,9999,9999,1884265540
8619,17,Jits_Phase_5,70,9999,9999,9999,1884765276
8619,17,Jits_Phase_5,71,9999,9999,9999,1885266012
8619,17,Jits_Phase_5,72,9999,9999,9999,1885765716
8619,17,Jits_Phase_5,73,9999,9999,9999,1886265464
8619,17,Jits_Phase_5,74,9999,9999,9999,1886765156
8619,17,Jits_Phase_5,75,9999,9999,9999,1887265876
8619,17,Jits_Phase_5,76,9999,9999,9999,1887765580
8619,17,Jits_Phase_5,77,9999,9999,9999,1888265272
8619,17,Jits_Phase_5,78,9999,9999,9999,1888766072
8619,17,Jits_Phase_5,79,9999,9999,9999,1889265744
8619,17,Jits_Phase_5,80,9999,9999,9999,1889765496
8619,17,Jits_Phase_5,81,9999,9999,9999,1890245740
8619,17,Jits_Phase_5,82,9999,9999,9999,1890745420
8619,17,Jits_Phase_5,83,9999,9999,9999,1891245112
8619,17,Jits_Phase_5,84,9999,9999,9999,1891745852
8619,17,Jits_Phase_5,85,9999,9999,9999,1892245596
8619,17,Jits_Phase_5,86,9999,9999,9999,1892745340
8619,17,Jits_Phase_5,87,9999,9999,9999,1893246076
8619,17,Jits_Phase_5,88,9999,9999,9999,1893745764
8619,17,Jits_Phase_5,89,9999,9999,9999,1894245452
8619,17,Jits_Phase_5,90,9999,9999,9999,1894745144
8619,17,Jits_Phase_5,91,9999,9999,9999,1895245948
8619,17,Jits_Phase_5,92,9999,9999,9999,1895745624
8619,17,Jits_Phase_5,93,9999,9999,9999,1896245372
8619,17,Jits_Phase_5,94,9999,9999,9999,1896746088
8619,17,Jits_Phase_5,95,9999,9999,9999,1897245776
8619,17,Jits_Phase_5,96,9999,9999,9999,1897745464
8619,17,Jits_Phase_5,97,9999,9999,9999,1898196068
8619,17,Jits_Phase_5,98,9999,9999,9999,1898695792
8619,17,Jits_Phase_5,99,9999,9999,9999,1899195480
8619,17,Jits_Phase_5,100,9999,9999,9999,1899695228
8619,17,Jits_Phase_5,101,9999,9999,9999,1900195968
8619,17,Jits_Phase_5,102,9999,9999,9999,1900695644
8619,17,Jits_Phase_5,103,9999,9999,9999,1901195340
8619,17,Jits_Phase_5,104,9999,9999,9999,1901696088
8619,17,Jits_Phase_5,105,9999,9999,9999,1902206020
8619,17,Jits_Phase_5,106,9999,9999,9999,1902705768
8619,17,Jits_Phase_5,107,9999,9999,9999,1903205448
8619,17,Jits_Phase_5,108,9999,9999,9999,1903705148
8619,17,Jits_Phase_5,109,9999,9999,9999,1904205944
8619,17,Jits_Phase_5,110,9999,9999,9999,1904705620
8619,17,Jits_Phase_5,111,9999,9999,9999,1905205368
8619,17,Jits_Phase_5,112,9999,9999,9999,1905706088
8619,17,Jits_Phase_5,113,9999,9999,9999,1906205784
8619,17,Jits_Phase_5,114,9999,9999,9999,1906755652
8619,17,Jits_Phase_5,115,9999,9999,9999,1907255408
8619,17,Jits_Phase_5,116,9999,9999,9999,1907755080
8619,17,Jits_Phase_5,117,9999,9999,9999,1908255820
8619,17,Jits_Phase_5,118,9999,9999,9999,1908755508
8619,17,Jits_Phase_5,119,9999,9999,9999,1909255252
8619,17,Jits_Phase_5,120,9999,9999,9999,1909755984
8619,17,Jits_Phase_5,121,9999,9999,9999,1910255676
8619,17,Jits_Phase_5,122,9999,9999,9999,1910755444
8619,17,Jits_Phase_5,123,9999,9999,9999,1911255132
8619,17,Jits_Phase_5,124,9999,9999,9999,1911755852
8619,17,Jits_Phase_5,125,9999,9999,9999,1912255576
8619,17,Jits_Phase_5,126,9999,9999,9999,1912755280
8619,17,Jits_Phase_5,127,9999,9999,9999,1913255996
8619,17,Jits_Phase_5,128,9999,9999,9999,1913755756
8619,17,Jits_Phase_5,129,9999,9999,9999,1914255468
8619,17,Jits_Phase_5,130,9999,9999,9999,1914755140
8619,17,Jits_Phase_5,131,9999,9999,9999,1915355228
8619,17,Jits_Phase_5,132,9999,9999,9999,1915855944
8619,17,Jits_Phase_5,133,9999,9999,9999,1916355672
8619,17,Jits_Phase_5,134,9999,9999,9999,1916855412
8619,17,Jits_Phase_5,135,9999,9999,9999,1917355100
8619,17,Jits_Phase_5,136,9999,9999,9999,1917855856
8619,17,Jits_Phase_5,137,9999,9999,9999,1918355536
8619,17,Jits_Phase_5,138,9999,9999,9999,1918855228
8619,17,Jits_Phase_5,139,9999,9999,9999,1919356028
8619,17,Jits_Phase_5,140,9999,9999,9999,1919855708
8619,17,Jits_Phase_5,141,9999,9999,9999,1920355388
8619,17,Jits_Phase_5,142,9999,9999,9999,1920855136
8619,17,Jits_Phase_5,143,9999,9999,9999,1921355876
8619,17,Jits_Phase_5,144,9999,9999,9999,1921855556
8619,17,Jits_Phase_5,145,9999,9999,9999,1922355324
8619,17,Jits_Phase_5,146,9999,9999,9999,1922855996
8619,17,Jits_Phase_5,147,9999,9999,9999,1923355764
8619,17,Jits_Phase_5,148,9999,9999,9999,1923855436
8619,17,Jits_Phase_5,149,9999,9999,9999,1924355188
8619,17,Jits_Phase_5,150,9999,9999,9999,1924755580
8619,17,Jits_Phase_5,151,9999,9999,9999,1925255264
8619,17,Jits_Phase_5,152,9999,9999,9999,1925756000
8619,17,Jits_Phase_5,153,9999,9999,9999,1926255696
8619,17,Jits_Phase_5,154,9999,9999,9999,1926755440
8619,17,Jits_Phase_5,155,9999,9999,9999,1927255132
8619,17,Jits_Phase_5,156,9999,9999,9999,1927755860
8619,17,Jits_Phase_5,157,9999,9999,9999,1928255600
8619,17,Jits_Phase_5,158,9999,9999,9999,1928755276
8619,17,Jits_Phase_5,159,9999,9999,9999,1929255992
8619,17,Jits_Phase_5,160,9999,9999,9999,1929755744
8619,17,Jits_Phase_5,161,9999,9999,9999,1930255436
8619,17,Jits_Phase_5,162,9999,9999,9999,1930755128
8619,17,Jits_Phase_5,163,9999,9999,9999,1931255884
8619,17,Jits_Phase_5,164,9999,9999,9999,1931755648
8619,17,Jits_Phase_5,165,9999,9999,9999,1932255324
8619,17,Jits_Phase_5,166,9999,9999,9999,1932756048
8619,17,Jits_Phase_5,167,9999,9999,9999,1933255796
8619,17,Jits_Phase_5,168,9999,9999,9999,1933755448
8619,17,Jits_Phase_5,169,9999,9999,9999,1934255212
8620,15,Jits_Phase_8,0,5,56,103,1943701988
8620,15,Jits_Phase_8,1,5,63,98,1943705092
8620,15,Jits_Phase_8,2,5,80,127,1943708060
8620,15,Jits_Phase_8,0,5,56,103,1944501708
8620,15,Jits_Phase_8,1,5,63,98,1944504884
8620,15,Jits_Phase_8,2,5,80,127,1944507852
8620,15,Jits_Phase_8,0,5,80,127,1945242100
8620,15,Jits_Phase_8,1,5,63,98,1945332040
8620,15,Jits_Phase_8,2,5,56,103,1945342236
8620,15,Jits_Phase_8,0,5,56,103,1946062168
8620,15,Jits_Phase_8,1,5,63,98,1946072516
8620,15,Jits_Phase_8,2,5,80,127,1946161524
8620,15,Jits_Phase_8,0,5,63,98,1946832236
8620,15,Jits_Phase_8,1,5,80,127,1946861908
8620,15,Jits_Phase_8,2,5,56,103,1946891732
8620,15,Jits_Phase_8,0,5,56,103,1947632024
8620,15,Jits_Phase_8,1,5,80,127,1947732272
8620,15,Jits_Phase_8,2,5,63,98,1947781572
8620,15,Jits_Phase_8,0,5,56,103,1948431832
8620,15,Jits_Phase_8,1,5,80,127,1948482184
8620,15,Jits_Phase_8,2,5,63,98,1948521824
8620,15,Jits_Phase_8,0,5,80,127,1949262356
8620,15,Jits_Phase_8,1,5,63,98,1949292032
8620,15,Jits_Phase_8,2,5,56,103,1949361416
8620,15,Jits_Phase_8,0,5,63,98,1950091912
8620,15,Jits_Phase_8,1,5,56,103,1950122412
8620,15,Jits_Phase_8,2,5,80,127,1950181708
8620,15,Jits_Phase_8,0,5,56,103,1950832004
8620,15,Jits_Phase_8,1,5,80,127,1950834996
8620,15,Jits_Phase_8,2,5,63,98,1950951900
8620,15,Jits_Phase_8,0,5,56,103,1951711544
8620,15,Jits_Phase_8,1,5,80,127,1951751632
8620,15,Jits_Phase_8,2,5,63,98,1951762052
8620,15,Jits_Phase_8,0,5,56,103,1952472328
8620,15,Jits_Phase_8,1,5,80,127,1952491888
8620,15,Jits_Phase_8,2,5,63,98,1952571904
8620,15,Jits_Phase_8,0,5,80,127,1953262024
8620,15,Jits_Phase_8,1,1,48,34,1953287912
8620,15,Jits_Phase_8,2,5,56,103,1953362416
8620,15,Jits_Phase_8,3,5,63,98,1953371716
8620,15,Jits_Phase_8,0,5,63,98,1954032060
8620,15,Jits_Phase_8,1,1,48,47,1954083804
8620,15,Jits_Phase_8,2,5,80,127,1954092372
8620,15,Jits_Phase_8,3,5,56,103,1954101892
8620,15,Jits_Phase_8,0,1,48,57,1954816264
8620,15,Jits_Phase_8,1,5,56,103,1954831876
8620,15,Jits_Phase_8,2,5,63,98,1954902456
8620,15,Jits_Phase_8,3,5,80,127,1954905968
8620,15,Jits_Phase_8,0,1,48,53,1955606940
8620,15,Jits_Phase_8,1,5,63,98,1955662188
8620,15,Jits_Phase_8,2,5,56,103,1955712304
8620,15,Jits_Phase_8,3,5,80,127,1955715292
8620,15,Jits_Phase_8,0,5,56,103,1956422084
8620,15,Jits_Phase_8,1,5,80,127,1956425152
8620,15,Jits_Phase_8,2,1,48,45,1956487532
8620,15,Jits_Phase_8,3,5,63,98,1956512060
8620,15,Jits_Phase_8,0,5,63,98,1957261704
8620,15,Jits_Phase_8,1,5,56,103,1957351940
8620,15,Jits_Phase_8,2,1,48,56,1957353728
8620,15,Jits_Phase_8,3,5,80,127,1957381604
8620,15,Jits_Phase_8,0,5,56,103,1958052176
8620,15,Jits_Phase_8,1,1,48,65,1958099960
8620,15,Jits_Phase_8,2,5,63,98,1958151472
8620,15,Jits_Phase_8,3,5,80,127,1958182340
8620,15,Jits_Phase_8,0,5,63,98,1958872432
8620,15,Jits_Phase_8,1,1,48,55,1958877572
8620,15,Jits_Phase_8,2,5,56,103,1958881800
8620,15,Jits_Phase_8,3,5,80,127,1958971912
8620,15,Jits_Phase_8,0,1,48,61,1959632904
8620,15,Jits_Phase_8,1,5,63,98,1959691740
8620,15,Jits_Phase_8,2,5,56,103,1959771668
8620,15,Jits_Phase_8,3,5,80,127,1959774660
8620,15,Jits_Phase_8,0,5,80,127,1960451420
8620,15,Jits_Phase_8,1,5,63,98,1960471880
8620,15,Jits_Phase_8,2,1,48,49,1960485632
8620,15,Jits_Phase_8,3,5,56,103,1960532188
8620,15,Jits_Phase_8,0,1,48,44,1961262916
8620,15,Jits_Phase_8,1,5,56,103,1961292084
8620,15,Jits_Phase_8,2,5,63,98,1961311868
8620,15,Jits_Phase_8,3,5,80,127,1961315084
8620,15,Jits_Phase_8,0,5,63,98,1962031604
8620,15,Jits_Phase_8,1,5,80,127,1962112300
8620,15,Jits_Phase_8,2,5,56,103,1962121820
8620,15,Jits_Phase_8,0,5,63,98,1962851776
8620,15,Jits_Phase_8,1,5,56,103,1962872236
8620,15,Jits_Phase_8,2,1,48,59,1962894308
8620,15,Jits_Phase_8,3,5,80,127,1962922432
8620,15,Jits_Phase_8,0,5,80,127,1963651388
8620,15,Jits_Phase_8,1,1,48,42,1963678320
8620,15,Jits_Phase_8,2,5,63,98,1963692440
8620,15,Jits_Phase_8,3,5,56,103,1963711928
8620,15,Jits_Phase_8,0,5,56,103,1964492092
8620,15,Jits_Phase_8,1,5,63,98,1964502664
8620,15,Jits_Phase_8,2,1,48,45,1964505264
8620,15,Jits_Phase_8,3,5,80,127,1964521844
8620,15,Jits_Phase_8,0,5,56,103,1965222388
8620,15,Jits_Phase_8,1,5,63,98,1965312552
8620,15,Jits_Phase_8,2,1,48,40,1965317168
8620,15,Jits_Phase_8,3,5,80,127,1965371960
8620,15,Jits_Phase_8,0,5,80,127,1966051788
8620,15,Jits_Phase_8,1,5,56,103,1966061832
8620,15,Jits_Phase_8,2,1,48,56,1966074392
8620,15,Jits_Phase_8,3,5,63,98,1966131804
8620,15,Jits_Phase_8,0,1,48,39,1966873552
8620,15,Jits_Phase_8,1,5,63,98,1966882048
8620,15,Jits_Phase_8,2,5,80,127,1966972240
8620,15,Jits_Phase_8,3,5,56,103,1966981612
8620,15,Jits_Phase_8,0,5,63,98,1967612136
8620,15,Jits_Phase_8,1,5,80,127,1967661512
8620,15,Jits_Phase_8,2,1,48,44,1967697516
8620,15,Jits_Phase_8,3,5,56,103,1967721896
8620,15,Jits_Phase_8,0,5,56,103,1968431672
8620,15,Jits_Phase_8,1,1,48,41,1968457864
8620,15,Jits_Phase_8,2,5,80,127,1968481568
8620,15,Jits_Phase_8,3,5,63,98,1968502176
8620,15,Jits_Phase_8,0,1,48,55,1969201476
8620,15,Jits_Phase_8,1,5,56,103,1969202888
8620,15,Jits_Phase_8,2,5,80,127,1969261860
8620,15,Jits_Phase_8,3,5,63,98,1969331748
8620,15,Jits_Phase_8,0,5,56,103,1970002204
8620,15,Jits_Phase_8,1,5,80,127,1970031880
8620,15,Jits_Phase_8,2,1,48,49,1970057088
8620,15,Jits_Phase_8,3,5,63,98,1970061844
8620,15,Jits_Phase_8,0,1,48,47,1970833628
8620,15,Jits_Phase_8,1,5,56,103,1970841896
8620,15,Jits_Phase_8,2,5,80,127,1970861456
8620,15,Jits_Phase_8,3,5,63,98,1970921944
8620,15,Jits_Phase_8,0,1,48,45,1971629644
8620,15,Jits_Phase_8,1,5,80,127,1971721544
8620,15,Jits_Phase_8,2,5,56,103,1971731800
8620,15,Jits_Phase_8,3,5,63,98,1971741996
8620,15,Jits_Phase_8,0,5,56,103,1972482656
8620,15,Jits_Phase_8,1,1,48,51,1972487868
8620,15,Jits_Phase_8,2,5,80,127,1972522584
8620,15,Jits_Phase_8,3,5,63,98,1972552188
8620,15,Jits_Phase_8,0,5,56,103,1973251640
8620,15,Jits_Phase_8,1,1,48,42,1973272292
8620,15,Jits_Phase_8,2,5,63,98,1973282356
8620,15,Jits_Phase_8,3,5,80,127,1973321996
8620,15,Jits_Phase_8,0,5,80,127,1974002040
8620,15,Jits_Phase_8,1,5,63,98,1974052316
8620,15,Jits_Phase_8,2,5,56,103,1974071652
8620,15,Jits_Phase_8,3,1,48,53,1974076192
8620,15,Jits_Phase_8,0,1,48,56,1974790168
8620,15,Jits_Phase_8,1,5,56,103,1974831840
8620,15,Jits_Phase_8,2,5,80,127,1974902036
8620,15,Jits_Phase_8,3,5,63,98,1974961672
8620,15,Jits_Phase_8,0,5,80,127,1975632356
8620,15,Jits_Phase_8,1,5,63,98,1975722564
8620,15,Jits_Phase_8,2,1,48,64,1975730340
8620,15,Jits_Phase_8,3,5,56,103,1975741820
8620,15,Jits_Phase_8,0,5,63,98,1976451688
8620,15,Jits_Phase_8,1,5,56,103,1976471776
8620,15,Jits_Phase_8,2,1,48,49,1976481564
8620,15,Jits_Phase_8,3,5,80,127,1976511780
8620,15,Jits_Phase_8,0,5,80,127,1977212336
8620,15,Jits_Phase_8,1,5,63,98,1977231672
8620,15,Jits_Phase_8,2,1,48,49,1977281392
8620,15,Jits_Phase_8,3,5,56,103,1977311560
8620,15,Jits_Phase_8,0,5,63,98,1978001764
8620,15,Jits_Phase_8,1,1,48,57,1978003328
8620,15,Jits_Phase_8,2,5,56,103,1978112652
8620,15,Jits_Phase_8,3,5,80,127,1978115716
8620,15,Jits_Phase_8,0,5,63,98,1978821992
8620,15,Jits_Phase_8,1,5,56,103,1978832332
8620,15,Jits_Phase_8,2,5,80,127,1978835400
8620,15,Jits_Phase_8,3,1,48,58,1978857024
8620,15,Jits_Phase_8,0,5,56,103,1979602472
8620,15,Jits_Phase_8,1,1,48,43,1979660520
8620,15,Jits_Phase_8,2,5,80,127,1979722048
8620,15,Jits_Phase_8,3,5,63,98,1979761968
8620,15,Jits_Phase_8,0,5,56,103,1980421356
8620,15,Jits_Phase_8,1,1,48,47,1980477516
8620,15,Jits_Phase_8,2,5,80,127,1980502416
8620,15,Jits_Phase_8,3,5,63,98,1980521976
8620,15,Jits_Phase_8,0,5,56,103,1981222324
8620,15,Jits_Phase_8,1,1,48,35,1981294148
8620,15,Jits_Phase_8,2,5,63,98,1981331932
8620,15,Jits_Phase_8,3,5,80,127,1981335296
8620,15,Jits_Phase_8,0,5,56,103,1982061952
8620,15,Jits_Phase_8,1,5,80,127,1982091628
8620,15,Jits_Phase_8,2,5,63,98,1982112532
8620,15,Jits_Phase_8,3,1,48,46,1982176728
8620,15,Jits_Phase_8,0,5,63,98,1982851536
8620,15,Jits_Phase_8,1,5,56,103,1982861660
8620,15,Jits_Phase_8,2,5,80,127,1982872004
8620,15,Jits_Phase_8,3,1,48,49,1982983176
8620,15,Jits_Phase_8,0,5,80,127,1983642072
8620,15,Jits_Phase_8,1,5,56,103,1983692224
8620,15,Jits_Phase_8,2,5,63,98,1983732016
8620,15,Jits_Phase_8,3,1,48,51,1983743600
8620,15,Jits_Phase_8,0,5,80,127,1984462396
8620,15,Jits_Phase_8,1,5,63,98,1984481516
8620,15,Jits_Phase_8,2,1,48,50,1984519476
8620,15,Jits_Phase_8,3,5,56,103,1984531708
8620,15,Jits_Phase_8,0,5,80,127,1985272284
8620,15,Jits_Phase_8,1,5,56,103,1985301740
8620,15,Jits_Phase_8,2,1,48,60,1985302704
8620,15,Jits_Phase_8,3,5,63,98,1985371488
8620,15,Jits_Phase_8,0,1,48,50,1986111364
8620,15,Jits_Phase_8,1,5,56,103,1986121956
8620,15,Jits_Phase_8,2,5,80,127,1986132300
8620,15,Jits_Phase_8,3,5,63,98,1986172536
8620,15,Jits_Phase_8,0,5,56,103,1986831820
8620,15,Jits_Phase_8,1,5,63,98,1986852204
8620,15,Jits_Phase_8,2,1,48,53,1986919140
8620,15,Jits_Phase_8,3,5,80,127,1986921800
8620,15,Jits_Phase_8,0,1,48,46,1987627056
8620,15,Jits_Phase_8,1,5,63,98,1987652036
8620,15,Jits_Phase_8,2,5,80,127,1987712428
8620,15,Jits_Phase_8,3,5,56,103,1987731972
8620,15,Jits_Phase_8,0,1,48,53,1988426212
8620,15,Jits_Phase_8,1,5,80,127,1988441452
8620,15,Jits_Phase_8,2,5,56,103,1988472324
8620,15,Jits_Phase_8,3,5,63,98,1988501852
8620,15,Jits_Phase_8,0,1,48,48,1989218620
8620,15,Jits_Phase_8,1,5,56,103,1989242476
8620,15,Jits_Phase_8,2,5,63,98,1989301600
8620,15,Jits_Phase_8,3,5,80,127,1989362000
8620,15,Jits_Phase_8,0,1,48,48,1989987664
8620,15,Jits_Phase_8,1,5,80,127,1990061496
8620,15,Jits_Phase_8,2,5,56,103,1990081880
8620,15,Jits_Phase_8,3,5,63,98,1990151496
8620,15,Jits_Phase_8,0,1,48,53,1990837548
8620,15,Jits_Phase_8,1,5,80,127,1990862324
8620,15,Jits_Phase_8,2,5,63,98,1990881588
8620,15,Jits_Phase_8,3,5,56,103,1990912312
8620,15,Jits_Phase_8,0,1,48,52,1991608608
8620,15,Jits_Phase_8,1,5,80,127,1991651820
8620,15,Jits_Phase_8,2,5,63,98,1991672204
8620,15,Jits_Phase_8,3,5,56,103,1991731680
8620,15,Jits_Phase_8,0,5,80,127,1992451512
8620,15,Jits_Phase_8,1,1,48,46,1992453956
8620,15,Jits_Phase_8,2,5,56,103,1992551676
8620,15,Jits_Phase_8,3,5,63,98,1992581488
8620,15,Jits_Phase_8,0,1,48,49,1993232600
8620,15,Jits_Phase_8,1,5,63,98,1993241916
8620,15,Jits_Phase_8,2,5,80,127,1993292192
8620,15,Jits_Phase_8,3,5,56,103,1993311532
8620,15,Jits_Phase_8,0,1,48,53,1994077456
8620,15,Jits_Phase_8,1,5,80,127,1994081608
8620,15,Jits_Phase_8,2,5,56,103,1994112404
8620,15,Jits_Phase_8,3,5,63,98,1994115320
8620,15,Jits_Phase_8,0,1,48,51,1994891896
8620,15,Jits_Phase_8,1,5,63,98,1994931704
8620,15,Jits_Phase_8,2,5,56,103,1994971448
8620,15,Jits_Phase_8,3,5,80,127,1994991888
8620,15,Jits_Phase_8,0,5,80,127,1995692364
8620,15,Jits_Phase_8,1,1,48,46,1995698172
8620,15,Jits_Phase_8,2,5,63,98,1995772256
8620,15,Jits_Phase_8,3,5,56,103,1995812400
8620,15,Jits_Phase_8,0,5,63,98,1996511720
8620,15,Jits_Phase_8,1,1,48,44,1996591592
8620,15,Jits_Phase_8,2,5,80,127,1996592856
8620,15,Jits_Phase_8,3,5,56,103,1996612192
8620,15,Jits_Phase_8,0,5,56,103,1997352392
8620,15,Jits_Phase_8,1,5,63,98,1997361396
8620,15,Jits_Phase_8,2,5,80,127,1997401408
8620,15,Jits_Phase_8,3,1,48,54,1997459124
8620,15,Jits_Phase_8,0,5,56,103,1998072452
8620,15,Jits_Phase_8,1,5,80,127,1998075368
8620,15,Jits_Phase_8,2,1,48,49,1998157004
8620,15,Jits_Phase_8,3,5,63,98,1998211348
8620,15,Jits_Phase_8,0,5,56,103,1998861652
8620,15,Jits_Phase_8,1,1,48,42,1998928816
8620,15,Jits_Phase_8,2,5,63,98,1998951708
8620,15,Jits_Phase_8,3,5,80,127,1999021312
8620,15,Jits_Phase_8,0,1,48,46,1999723056
8620,15,Jits_Phase_8,1,5,63,98,1999742256
8620,15,Jits_Phase_8,2,5,80,127,1999745548
8620,15,Jits_Phase_8,3,5,56,103,1999801820
8620,15,Jits_Phase_8,0,1,48,52,2000483320
8620,15,Jits_Phase_8,1,5,80,127,2000582252
8620,15,Jits_Phase_8,2,5,56,103,2000601516
8620,15,Jits_Phase_8,3,5,63,98,2000611564
8620,15,Jits_Phase_8,0,5,56,103,2001291588
8620,15,Jits_Phase_8,1,5,63,98,2001301784
8620,15,Jits_Phase_8,2,5,80,127,2001371488
8620,15,Jits_Phase_8,3,1,48,59,2001411620
8620,15,Jits_Phase_8,0,5,80,127,2002092332
8620,15,Jits_Phase_8,1,5,56,103,2002141512
8620,15,Jits_Phase_8,2,1,48,13,2002189352
8620,15,Jits_Phase_8,3,5,63,98,2002191708
8620,15,Jits_Phase_8,0,1,48,46,2002962152
8620,15,Jits_Phase_8,1,5,56,103,2002972068
8620,15,Jits_Phase_8,2,5,63,98,2002982264
8620,15,Jits_Phase_8,3,5,80,127,2003022276
8620,15,Jits_Phase_8,0,5,56,103,2003712352
8620,15,Jits_Phase_8,1,5,63,98,2003752440
8620,15,Jits_Phase_8,2,1,48,37,2003779916
8620,15,Jits_Phase_8,3,5,80,127,2003801364
8620,15,Jits_Phase_8,0,5,80,127,2004472044
8620,15,Jits_Phase_8,1,1,48,52,2004475532
8620,15,Jits_Phase_8,2,5,56,103,2004522536
8620,15,Jits_Phase_8,3,5,63,98,2004541728
8620,15,Jits_Phase_8,0,1,48,51,2005242484
8620,15,Jits_Phase_8,1,5,80,127,2005282296
8620,15,Jits_Phase_8,2,5,63,98,2005342448
8620,15,Jits_Phase_8,3,5,56,103,2005421564
8620,15,Jits_Phase_8,0,1,48,47,2006048676
8620,15,Jits_Phase_8,1,5,80,127,2006061376
8620,15,Jits_Phase_8,2,5,56,103,2006102288
8620,15,Jits_Phase_8,3,5,63,98,2006121700
8620,15,Jits_Phase_8,0,5,56,103,2006912380
8620,15,Jits_Phase_8,1,1,48,39,2006914392
8620,15,Jits_Phase_8,2,5,80,127,2006921448
8620,15,Jits_Phase_8,3,5,63,98,2006961532
8620,15,Jits_Phase_8,0,1,48,55,2007679368
8620,15,Jits_Phase_8,1,5,56,103,2007781832
8620,15,Jits_Phase_8,2,5,63,98,2007821620
8620,15,Jits_Phase_8,3,5,80,127,2007824912
8620,15,Jits_Phase_8,0,5,63,98,2008451452
8620,15,Jits_Phase_8,1,5,80,127,2008492512
8620,15,Jits_Phase_8,2,1,48,50,2008557452
8620,15,Jits_Phase_8,3,5,56,103,2008562208
8620,15,Jits_Phase_8,0,5,63,98,2009221616
8620,15,Jits_Phase_8,1,1,48,50,2009242796
8620,15,Jits_Phase_8,2,5,56,103,2009302328
8620,15,Jits_Phase_8,3,5,80,127,2009361728
8620,15,Jits_Phase_8,0,1,48,43,2009985820
8620,15,Jits_Phase_8,1,5,80,127,2010031404
8620,15,Jits_Phase_8,2,5,63,98,2010082816
8620,15,Jits_Phase_8,3,5,56,103,2010112264
8620,15,Jits_Phase_8,0,5,56,103,2010821976
8620,15,Jits_Phase_8,1,1,48,58,2010864576
8620,15,Jits_Phase_8,2,5,63,98,2010872172
8620,15,Jits_Phase_8,3,5,80,127,2010882516
8620,15,Jits_Phase_8,0,1,48,49,2011631632
8620,15,Jits_Phase_8,1,5,56,103,2011633048
8620,15,Jits_Phase_8,2,5,63,98,2011741600
8620,15,Jits_Phase_8,3,5,80,127,2011762060
8620,15,Jits_Phase_8,0,5,63,98,2012431620
8620,15,Jits_Phase_8,1,1,48,51,2012457432
8620,15,Jits_Phase_8,2,5,80,127,2012482336
8620,15,Jits_Phase_8,3,5,56,103,2012572004
8620,15,Jits_Phase_8,0,5,63,98,2013222236
8620,15,Jits_Phase_8,1,5,80,127,2013251988
8620,15,Jits_Phase_8,2,1,48,43,2013289952
8620,15,Jits_Phase_8,3,5,56,103,2013342184
8620,15,Jits_Phase_8,0,5,63,98,2014022068
8620,15,Jits_Phase_8,1,5,56,103,2014032188
8620,15,Jits_Phase_8,2,5,80,127,2014131536
8620,15,Jits_Phase_8,3,1,48,61,2014147012
8620,15,Jits_Phase_8,0,1,48,54,2014908964
8620,15,Jits_Phase_8,1,5,63,98,2014922136
8620,15,Jits_Phase_8,2,5,80,127,2014951884
8620,15,Jits_Phase_8,3,5,56,103,2014981484
8620,15,Jits_Phase_8,0,1,48,49,2015711012
8620,15,Jits_Phase_8,1,5,80,127,2015742276
8620,15,Jits_Phase_8,2,5,63,98,2015751504
8620,15,Jits_Phase_8,3,5,56,103,2015782224
8620,15,Jits_Phase_8,0,5,80,127,2016441932
8620,15,Jits_Phase_8,1,5,63,98,2016462192
8620,15,Jits_Phase_8,2,5,56,103,2016512320
8620,15,Jits_Phase_8,3,1,48,49,2016538428
8620,15,Jits_Phase_8,0,5,63,98,2017272144
8620,15,Jits_Phase_8,1,1,48,54,2017330808
8620,15,Jits_Phase_8,2,5,80,127,2017332380
8620,15,Jits_Phase_8,3,5,56,103,2017352164
8620,15,Jits_Phase_8,0,5,63,98,2018032120
8620,15,Jits_Phase_8,1,1,48,50,2018054348
8620,15,Jits_Phase_8,2,5,56,103,2018082020
8620,15,Jits_Phase_8,3,5,80,127,2018092512
8620,15,Jits_Phase_8,0,1,48,36,2018832744
8620,15,Jits_Phase_8,1,5,56,103,2018861464
8620,15,Jits_Phase_8,2,5,80,127,2018871880
8620,15,Jits_Phase_8,3,5,63,98,2018972112
8620,15,Jits_Phase_8,0,5,80,127,2019622120
8620,15,Jits_Phase_8,1,5,63,98,2019631420
8620,15,Jits_Phase_8,2,1,48,38,2019693344
8620,15,Jits_Phase_8,3,5,56,103,2019782020
8620,15,Jits_Phase_8,0,5,63,98,2020432228
8620,15,Jits_Phase_8,1,5,80,127,2020472168
8620,15,Jits_Phase_8,2,1,48,60,2020513716
8620,15,Jits_Phase_8,3,5,56,103,2020551976
8620,15,Jits_Phase_8,0,5,56,103,2021182008
8620,15,Jits_Phase_8,1,5,80,127,2021282184
8620,15,Jits_Phase_8,2,5,63,98,2021301744
8620,15,Jits_Phase_8,3,1,48,48,2021341304
8620,15,Jits_Phase_8,0,5,80,127,2022002092
8620,15,Jits_Phase_8,1,5,56,103,2022012288
8620,15,Jits_Phase_8,2,5,63,98,2022102372
8620,15,Jits_Phase_8,3,1,48,45,2022128628
8620,15,Jits_Phase_8,0,5,56,103,2022802016
8620,15,Jits_Phase_8,1,5,63,98,2022822180
8620,15,Jits_Phase_8,2,1,48,43,2022877980
8620,15,Jits_Phase_8,3,5,80,127,2022901988
8620,15,Jits_Phase_8,0,5,63,98,2023552348
8620,15,Jits_Phase_8,1,5,56,103,2023641380
8620,15,Jits_Phase_8,2,5,80,127,2023644448
8620,15,Jits_Phase_8,3,1,48,49,2023653864
8620,15,Jits_Phase_8,0,1,48,51,2024362328
8620,15,Jits_Phase_8,1,5,56,103,2024381904
8620,15,Jits_Phase_8,2,5,80,127,2024442176
8620,15,Jits_Phase_8,3,5,63,98,2024451548
8620,15,Jits_Phase_8,0,5,80,127,2025231968
8620,15,Jits_Phase_8,1,5,56,103,2025242088
8620,15,Jits_Phase_8,2,5,63,98,2025244936
8620,15,Jits_Phase_8,3,1,48,34,2025261624
8620,15,Jits_Phase_8,0,5,56,103,2025991504
8620,15,Jits_Phase_8,1,5,80,127,2026002000
8620,15,Jits_Phase_8,2,5,63,98,2026022160
8620,15,Jits_Phase_8,3,1,48,42,2026102664
8620,15,Jits_Phase_8,0,5,63,98,2026761680
8620,15,Jits_Phase_8,1,5,80,127,2026821996
8620,15,Jits_Phase_8,2,1,48,48,2026827812
8620,15,Jits_Phase_8,3,5,56,103,2026872116
8620,15,Jits_Phase_8,0,5,63,98,2027642204
8620,15,Jits_Phase_8,1,1,48,48,2027644220
8620,15,Jits_Phase_8,2,5,56,103,2027651348
8620,15,Jits_Phase_8,3,5,80,127,2027701548
8620,15,Jits_Phase_8,0,5,63,98,2028341576
8620,15,Jits_Phase_8,1,5,80,127,2028362260
8620,15,Jits_Phase_8,2,5,56,103,2028372528
8620,15,Jits_Phase_8,3,1,48,40,2028419852
8620,15,Jits_Phase_8,0,5,63,98,2029142288
8620,15,Jits_Phase_8,1,5,80,127,2029145956
8620,15,Jits_Phase_8,2,5,56,103,2029182304
8620,15,Jits_Phase_8,3,1,48,44,2029199428
8620,15,Jits_Phase_8,0,1,48,55,2029928208
8620,15,Jits_Phase_8,1,5,63,98,2030011780
8620,15,Jits_Phase_8,2,5,80,127,2030041392
8620,15,Jits_Phase_8,3,5,56,103,2030051960
8620,15,Jits_Phase_8,0,1,48,51,2030733896
8620,15,Jits_Phase_8,1,5,56,103,2030762392
8620,15,Jits_Phase_8,2,5,80,127,2030792020
8620,15,Jits_Phase_8,3,5,63,98,2030821916
8620,15,Jits_Phase_8,0,1,48,59,2031577648
8620,15,Jits_Phase_8,1,5,63,98,2031661372
8620,15,Jits_Phase_8,2,5,56,103,2031702340
8620,15,Jits_Phase_8,3,5,80,127,2031705484
8620,15,Jits_Phase_8,0,5,80,127,2032361792
8620,15,Jits_Phase_8,1,1,48,53,2032439844
8620,15,Jits_Phase_8,2,5,56,103,2032441880
8620,15,Jits_Phase_8,3,5,63,98,2032491856
8620,15,Jits_Phase_8,0,5,80,127,2033142084
8620,15,Jits_Phase_8,1,5,56,103,2033161796
8620,15,Jits_Phase_8,2,1,48,53,2033193388
8620,15,Jits_Phase_8,3,5,63,98,2033251920
8620,15,Jits_Phase_8,0,1,48,49,2033969696
8620,15,Jits_Phase_8,1,5,80,127,2033981780
8620,15,Jits_Phase_8,2,5,63,98,2034021792
8620,15,Jits_Phase_8,3,5,56,103,2034061952
8620,15,Jits_Phase_8,0,1,48,62,2034769660
8620,15,Jits_Phase_8,1,5,63,98,2034791804
8620,15,Jits_Phase_8,2,5,80,127,2034852120
8620,15,Jits_Phase_8,3,5,56,103,2034881928
8620,15,Jits_Phase_8,0,5,56,103,2035631768
8620,15,Jits_Phase_8,1,1,48,45,2035643280
8620,15,Jits_Phase_8,2,5,80,127,2035662136
8620,15,Jits_Phase_8,3,5,63,98,2035752176
8620,15,Jits_Phase_8,0,5,56,103,2036441676
8620,15,Jits_Phase_8,1,1,48,50,2036445092
8620,15,Jits_Phase_8,2,5,80,127,2036552016
8620,15,Jits_Phase_8,3,5,63,98,2036581768
8620,15,Jits_Phase_8,0,5,56,103,2037292624
8620,15,Jits_Phase_8,1,5,63,98,2037351820
8620,15,Jits_Phase_8,2,5,80,127,2037381716
8620,15,Jits_Phase_8,3,1,48,51,2037389788
8620,15,Jits_Phase_8,0,5,56,103,2038061684
8620,15,Jits_Phase_8,1,1,48,57,2038075364
8620,15,Jits_Phase_8,2,5,63,98,2038132036
8620,15,Jits_Phase_8,3,5,80,127,2038151596
8620,15,Jits_Phase_8,0,5,80,127,2038831720
8620,15,Jits_Phase_8,1,1,48,53,2038842412
8620,15,Jits_Phase_8,2,5,63,98,2038851872
8620,15,Jits_Phase_8,3,5,56,103,2038902224
8620,15,Jits_Phase_8,0,1,48,47,2039612500
8620,15,Jits_Phase_8,1,5,63,98,2039651636
8620,15,Jits_Phase_8,2,5,80,127,2039661832
8620,15,Jits_Phase_8,3,5,56,103,2039712088
8620,15,Jits_Phase_8,0,1,48,50,2040360488
8620,15,Jits_Phase_8,1,5,63,98,2040451616
8620,15,Jits_Phase_8,2,5,80,127,2040522128
8620,15,Jits_Phase_8,3,5,56,103,2040541764
8620,15,Jits_Phase_8,0,5,63,98,2041281872
8620,15,Jits_Phase_8,1,5,80,127,2041285236
8620,15,Jits_Phase_8,2,1,48,58,2041306192
8620,15,Jits_Phase_8,3,5,56,103,2041351616
8620,15,Jits_Phase_8,0,5,80,127,2042031624
8620,15,Jits_Phase_8,1,5,56,103,2042052036
8620,15,Jits_Phase_8,2,5,63,98,2042062156
8620,15,Jits_Phase_8,3,1,48,32,2042217792
8620,15,Jits_Phase_8,0,5,56,103,2042851648
8620,15,Jits_Phase_8,1,5,63,98,2042941856
8620,15,Jits_Phase_8,2,5,80,127,2042945072
8620,15,Jits_Phase_8,3,1,48,46,2043045956
8620,15,Jits_Phase_8,0,5,80,127,2043621596
8620,15,Jits_Phase_8,1,5,56,103,2043632092
8620,15,Jits_Phase_8,2,5,63,98,2043651800
8620,15,Jits_Phase_8,3,1,48,46,2043869652
8620,15,Jits_Phase_8,0,5,63,98,2044421660
8620,15,Jits_Phase_8,1,5,80,127,2044481904
8620,15,Jits_Phase_8,2,5,56,103,2044492100
8620,15,Jits_Phase_8,3,1,48,43,2044727016
8620,15,Jits_Phase_8,0,5,63,98,2045291844
8620,15,Jits_Phase_8,1,5,80,127,2045321744
8620,15,Jits_Phase_8,2,5,56,103,2045361680
8620,15,Jits_Phase_8,3,1,48,42,2045535476
8620,15,Jits_Phase_8,0,5,56,103,2046082544
8620,15,Jits_Phase_8,1,5,80,127,2046091764
8620,15,Jits_Phase_8,2,5,63,98,2046131552
8620,15,Jits_Phase_8,0,5,80,127,2046842120
8620,15,Jits_Phase_8,1,5,56,103,2046922164
8620,15,Jits_Phase_8,2,5,63,98,2046932732
8620,15,Jits_Phase_8,3,1,48,43,2047154300
8620,15,Jits_Phase_8,0,5,80,127,2047692116
8620,15,Jits_Phase_8,1,5,56,103,2047772060
8620,15,Jits_Phase_8,2,5,63,98,2047782332
8620,15,Jits_Phase_8,3,1,48,42,2047913476
8620,15,Jits_Phase_8,0,5,80,127,2048531684
8620,15,Jits_Phase_8,1,5,56,103,2048581960
8620,15,Jits_Phase_8,2,5,63,98,2048632384
8620,15,Jits_Phase_8,3,1,48,38,2048671244
8620,15,Jits_Phase_8,0,1,48,43,2049450836
8620,15,Jits_Phase_8,1,5,56,103,2049471840
8620,15,Jits_Phase_8,2,5,63,98,2049475008
8620,15,Jits_Phase_8,3,5,80,127,2049521992
8620,15,Jits_Phase_8,0,1,48,54,2050231564
8620,15,Jits_Phase_8,1,5,56,103,2050292072
8620,15,Jits_Phase_8,2,5,63,98,2050321824
8620,15,Jits_Phase_8,3,5,80,127,2050332080
8620,15,Jits_Phase_8,0,5,63,98,2051001688
8620,15,Jits_Phase_8,1,5,56,103,2051072592
8620,15,Jits_Phase_8,2,5,80,127,2051121596
8620,15,Jits_Phase_8,3,1,48,45,2051133632
8620,15,Jits_Phase_8,0,5,63,98,2051832112
8620,15,Jits_Phase_8,1,5,56,103,2051842384
8620,15,Jits_Phase_8,2,5,80,127,2051845524
8620,15,Jits_Phase_8,3,1,48,49,2051914796
8620,15,Jits_Phase_8,0,5,80,127,2052581808
8620,15,Jits_Phase_8,1,1,48,45,2052631608
8620,15,Jits_Phase_8,2,5,56,103,2052642120
8620,15,Jits_Phase_8,3,5,63,98,2052732456
8620,15,Jits_Phase_8,0,5,80,127,2053381508
8620,15,Jits_Phase_8,1,5,56,103,2053481828
8620,15,Jits_Phase_8,2,1,48,60,2053512524
8620,15,Jits_Phase_8,3,5,63,98,2053521760
8620,15,Jits_Phase_8,0,5,56,103,2054232376
8620,15,Jits_Phase_8,1,5,63,98,2054251860
8620,15,Jits_Phase_8,2,5,80,127,2054291724
8620,15,Jits_Phase_8,3,1,48,42,2054301660
8620,15,Jits_Phase_8,0,5,63,98,2055001576
8620,15,Jits_Phase_8,1,5,56,103,2055021812
8620,15,Jits_Phase_8,2,1,48,41,2055036536
8620,15,Jits_Phase_8,3,5,80,127,2055122444
8620,15,Jits_Phase_8,0,1,48,29,2055769148
8620,15,Jits_Phase_8,1,5,63,98,2055792036
8620,15,Jits_Phase_8,2,5,80,127,2055901508
8620,15,Jits_Phase_8,3,5,56,103,2055932528
8620,15,Jits_Phase_8,0,5,56,103,2056612404
8620,15,Jits_Phase_8,1,5,63,98,2056642028
8620,15,Jits_Phase_8,2,1,48,53,2056661412
8620,15,Jits_Phase_8,3,5,80,127,2056692372
8620,15,Jits_Phase_8,0,5,63,98,2057382504
8620,15,Jits_Phase_8,1,5,56,103,2057411908
8620,15,Jits_Phase_8,2,1,48,46,2057421848
8620,15,Jits_Phase_8,3,5,80,127,2057462172
8620,15,Jits_Phase_8,0,5,56,103,2058211652
8620,15,Jits_Phase_8,1,5,63,98,2058232260
8620,15,Jits_Phase_8,2,1,48,40,2058268336
8620,15,Jits_Phase_8,3,5,80,127,2058312120
8620,15,Jits_Phase_8,0,5,63,98,2058981604
8620,15,Jits_Phase_8,1,5,56,103,2059042292
8620,15,Jits_Phase_8,2,1,48,49,2059051488
8620,15,Jits_Phase_8,3,5,80,127,2059071812
8620,15,Jits_Phase_8,0,1,48,56,2059787836
8620,15,Jits_Phase_8,1,5,56,103,2059821360
8620,15,Jits_Phase_8,2,5,80,127,2059881824
8620,15,Jits_Phase_8,3,5,63,98,2059921824
8620,15,Jits_Phase_8,0,1,48,49,2060584080
8620,15,Jits_Phase_8,1,5,63,98,2060601712
8620,15,Jits_Phase_8,2,5,56,103,2060662328
8620,15,Jits_Phase_8,3,5,80,127,2060731768
8620,15,Jits_Phase_8,0,1,48,48,2061289052
8620,15,Jits_Phase_8,1,5,56,103,2061482448
8620,15,Jits_Phase_8,2,5,63,98,2061491596
8620,15,Jits_Phase_8,3,5,80,127,2061494888
8620,15,Jits_Phase_8,0,1,48,45,2062070316
8620,15,Jits_Phase_8,1,5,63,98,2062221668
8620,15,Jits_Phase_8,2,5,56,103,2062282080
8620,15,Jits_Phase_8,3,5,80,127,2062285148
8620,15,Jits_Phase_8,0,5,63,98,2063001960
8620,15,Jits_Phase_8,1,1,48,43,2063030880
8620,15,Jits_Phase_8,2,5,80,127,2063032376
8620,15,Jits_Phase_8,3,5,56,103,2063052112
8620,15,Jits_Phase_8,0,5,56,103,2063732108
8620,15,Jits_Phase_8,1,1,48,43,2063753736
8620,15,Jits_Phase_8,2,5,63,98,2063782232
8620,15,Jits_Phase_8,3,5,80,127,2063862108
8620,15,Jits_Phase_8,0,5,80,127,2064431428
8620,15,Jits_Phase_8,1,5,63,98,2064472564
8620,15,Jits_Phase_8,2,5,56,103,2064491824
8620,15,Jits_Phase_8,3,1,48,43,2064535920
8620,15,Jits_Phase_8,0,1,48,56,2065271920
8620,15,Jits_Phase_8,1,5,56,103,2065301764
8620,15,Jits_Phase_8,2,5,80,127,2065312256
8620,15,Jits_Phase_8,3,5,63,98,2065331520
8620,15,Jits_Phase_8,0,1,48,54,2066047468
8620,15,Jits_Phase_8,1,5,56,103,2066082340
8620,15,Jits_Phase_8,2,5,63,98,2066132568
8620,15,Jits_Phase_8,3,5,80,127,2066162152
8620,15,Jits_Phase_8,0,1,48,48,2066782880
8620,15,Jits_Phase_8,1,5,56,103,2066831756
8620,15,Jits_Phase_8,2,5,63,98,2066842100
8620,15,Jits_Phase_8,3,5,80,127,2066892384
8620,15,Jits_Phase_8,0,1,48,48,2067532060
8620,15,Jits_Phase_8,1,5,56,103,2067622360
8620,15,Jits_Phase_8,2,5,80,127,2067625352
8620,15,Jits_Phase_8,3,5,63,98,2067781876
8620,15,Jits_Phase_8,0,1,48,51,2068414744
8620,15,Jits_Phase_8,1,5,63,98,2068441392
8620,15,Jits_Phase_8,2,5,56,103,2068512404
8620,15,Jits_Phase_8,3,5,80,127,2068552192
8620,15,Jits_Phase_8,0,1,48,48,2069204632
8620,15,Jits_Phase_8,1,5,63,98,2069282280
8620,15,Jits_Phase_8,2,5,56,103,2069372248
8620,15,Jits_Phase_8,3,5,80,127,2069375244
8620,15,Jits_Phase_8,0,1,48,35,2069890564
8620,15,Jits_Phase_8,1,5,56,103,2070061416
8620,15,Jits_Phase_8,2,5,63,98,2070151552
8620,15,Jits_Phase_8,3,5,80,127,2070161748
8620,15,Jits_Phase_8,0,1,48,39,2070778968
8620,15,Jits_Phase_8,1,5,56,103,2070831376
8620,15,Jits_Phase_8,2,5,63,98,2070881784
8620,15,Jits_Phase_8,3,5,80,127,2070912360
8620,15,Jits_Phase_8,0,1,48,44,2071660324
8620,15,Jits_Phase_8,1,5,63,98,2071712264
8620,15,Jits_Phase_8,2,5,80,127,2071722312
8620,15,Jits_Phase_8,3,5,56,103,2071781740
8620,15,Jits_Phase_8,0,5,63,98,2072432092
8620,15,Jits_Phase_8,1,5,80,127,2072492412
8620,15,Jits_Phase_8,2,5,56,103,2072532300
8620,15,Jits_Phase_8,3,1,48,40,2072554968
8620,15,Jits_Phase_8,0,5,56,103,2073332268
8620,15,Jits_Phase_8,1,1,48,37,2073349944
8620,15,Jits_Phase_8,2,5,80,127,2073351452
8620,15,Jits_Phase_8,3,5,63,98,2073372132
8620,15,Jits_Phase_8,0,5,63,98,2074051884
8620,15,Jits_Phase_8,1,5,56,103,2074072420
8620,15,Jits_Phase_8,2,5,80,127,2074112432
8620,15,Jits_Phase_8,3,1,48,34,2074152036
8620,15,Jits_Phase_8,0,5,63,98,2074862052
8620,15,Jits_Phase_8,1,5,80,127,2074891576
8620,15,Jits_Phase_8,2,1,48,33,2074894320
8620,15,Jits_Phase_8,3,5,56,103,2074912328
8620,15,Jits_Phase_8,0,5,80,127,2075632064
8620,15,Jits_Phase_8,1,1,48,36,2075672800
8620,15,Jits_Phase_8,2,5,56,103,2075682260
8620,15,Jits_Phase_8,3,5,63,98,2075741528
8620,15,Jits_Phase_8,0,5,63,98,2076421424
8620,15,Jits_Phase_8,1,1,48,46,2076536096
8620,15,Jits_Phase_8,2,5,56,103,2076542416
8620,15,Jits_Phase_8,3,5,80,127,2076572016
8620,15,Jits_Phase_8,0,5,80,127,2077262168
8620,15,Jits_Phase_8,1,5,63,98,2077281728
8620,15,Jits_Phase_8,2,1,48,31,2077350108
8620,15,Jits_Phase_8,3,5,56,103,2077352224
8620,15,Jits_Phase_8,0,5,63,98,2078082468
8620,15,Jits_Phase_8,1,5,56,103,2078091764
8620,15,Jits_Phase_8,2,1,48,36,2078093856
8620,15,Jits_Phase_8,3,5,80,127,2078171652
8620,15,Jits_Phase_8,0,1,48,39,2078862424
8620,15,Jits_Phase_8,1,5,56,103,2078941440
8620,15,Jits_Phase_8,2,5,80,127,2078972220
8620,15,Jits_Phase_8,3,5,63,98,2078981372
8620,15,Jits_Phase_8,0,9999,9999,9999,1944099948
8620,15,Jits_Phase_8,1,9999,9999,9999,1944899668
8620,15,Jits_Phase_8,2,9999,9999,9999,1945699404
8620,15,Jits_Phase_8,3,9999,9999,9999,1946499140
8620,15,Jits_Phase_8,4,9999,9999,9999,1947299916
8620,15,Jits_Phase_8,5,9999,9999,9999,1948099640
8620,15,Jits_Phase_8,6,9999,9999,9999,1948899392
8620,15,Jits_Phase_8,7,9999,9999,9999,1949699132
8620,15,Jits_Phase_8,8,9999,9999,9999,1950499920
8620,15,Jits_Phase_8,9,9999,9999,9999,1951299704
8620,15,Jits_Phase_8,10,9999,9999,9999,1952099444
8620,15,Jits_Phase_8,11,9999,9999,9999,1952899188
8620,15,Jits_Phase_8,12,9999,9999,9999,1953699952
8620,15,Jits_Phase_8,13,9999,9999,9999,1954499652
8620,15,Jits_Phase_8,14,9999,9999,9999,1955299416
8620,15,Jits_Phase_8,15,9999,9999,9999,1956099164
8620,15,Jits_Phase_8,16,9999,9999,9999,1956899952
8620,15,Jits_Phase_8,17,9999,9999,9999,1957699656
8620,15,Jits_Phase_8,18,9999,9999,9999,1958499420
8620,15,Jits_Phase_8,19,9999,9999,9999,1959299196
8620,15,Jits_Phase_8,20,9999,9999,9999,1960099920
8620,15,Jits_Phase_8,21,9999,9999,9999,1960899680
8620,15,Jits_Phase_8,22,9999,9999,9999,1961699384
8620,15,Jits_Phase_8,23,9999,9999,9999,1962499168
8620,15,Jits_Phase_8,24,9999,9999,9999,1963299912
8620,15,Jits_Phase_8,25,9999,9999,9999,1964099672
8620,15,Jits_Phase_8,26,9999,9999,9999,1964899448
8620,15,Jits_Phase_8,27,9999,9999,9999,1965699152
8620,15,Jits_Phase_8,28,9999,9999,9999,1966499896
8620,15,Jits_Phase_8,29,9999,9999,9999,1967299680
8620,15,Jits_Phase_8,30,9999,9999,9999,1968079972
8620,15,Jits_Phase_8,31,9999,9999,9999,1968879732
8620,15,Jits_Phase_8,32,9999,9999,9999,1969679428
8620,15,Jits_Phase_8,33,9999,9999,9999,1970479180
8620,15,Jits_Phase_8,34,9999,9999,9999,1971279996
8620,15,Jits_Phase_8,35,9999,9999,9999,1972079688
8620,15,Jits_Phase_8,36,9999,9999,9999,1972879452
8620,15,Jits_Phase_8,37,9999,9999,9999,1973679224
8620,15,Jits_Phase_8,38,9999,9999,9999,1974479988
8620,15,Jits_Phase_8,39,9999,9999,9999,1975279692
8620,15,Jits_Phase_8,40,9999,9999,9999,1976079448
8620,15,Jits_Phase_8,41,9999,9999,9999,1976879224
8620,15,Jits_Phase_8,42,9999,9999,9999,1977679948
8620,15,Jits_Phase_8,43,9999,9999,9999,1978479712
8620,15,Jits_Phase_8,44,9999,9999,9999,1979279452
8620,15,Jits_Phase_8,45,9999,9999,9999,1980079212
8620,15,Jits_Phase_8,46,9999,9999,9999,1980879980
8620,15,Jits_Phase_8,47,9999,9999,9999,1981679672
8620,15,Jits_Phase_8,48,9999,9999,9999,1982499896
8620,15,Jits_Phase_8,49,9999,9999,9999,1983299668
8620,15,Jits_Phase_8,50,9999,9999,9999,1984099424
8620,15,Jits_Phase_8,51,9999,9999,9999,1984899200
8620,15,Jits_Phase_8,52,9999,9999,9999,1985699948
8620,15,Jits_Phase_8,53,9999,9999,9999,1986499652
8620,15,Jits_Phase_8,54,9999,9999,9999,1987299432
8620,15,Jits_Phase_8,55,9999,9999,9999,1988099128
8620,15,Jits_Phase_8,56,9999,9999,9999,1988899932
8620,15,Jits_Phase_8,57,9999,9999,9999,1989699688
8620,15,Jits_Phase_8,58,9999,9999,9999,1990499448
8620,15,Jits_Phase_8,59,9999,9999,9999,1991299132
8620,15,Jits_Phase_8,60,9999,9999,9999,1992099936
8620,15,Jits_Phase_8,61,9999,9999,9999,1992899724
8620,15,Jits_Phase_8,62,9999,9999,9999,1993699424
8620,15,Jits_Phase_8,63,9999,9999,9999,1994499176
8620,15,Jits_Phase_8,64,9999,9999,9999,1995339844
8620,15,Jits_Phase_8,65,9999,9999,9999,1996139604
8620,15,Jits_Phase_8,66,9999,9999,9999,1996939384
8620,15,Jits_Phase_8,67,9999,9999,9999,1997739076
8620,15,Jits_Phase_8,68,9999,9999,9999,1998539836
8620,15,Jits_Phase_8,69,9999,9999,9999,1999339612
8620,15,Jits_Phase_8,70,9999,9999,9999,2000139372
8620,15,Jits_Phase_8,71,9999,9999,9999,2000939068
8620,15,Jits_Phase_8,72,9999,9999,9999,2001739872
8620,15,Jits_Phase_8,73,9999,9999,9999,2002539648
8620,15,Jits_Phase_8,74,9999,9999,9999,2003339352
8620,15,Jits_Phase_8,75,9999,9999,9999,2004139112
8620,15,Jits_Phase_8,76,9999,9999,9999,2004939880
8620,15,Jits_Phase_8,77,9999,9999,9999,2005739580
8620,15,Jits_Phase_8,78,9999,9999,9999,2006539332
8620,15,Jits_Phase_8,79,9999,9999,9999,2007339088
8620,15,Jits_Phase_8,80,9999,9999,9999,2008139836
8620,15,Jits_Phase_8,81,9999,9999,9999,2008899664
8620,15,Jits_Phase_8,82,9999,9999,9999,2009699420
8620,15,Jits_Phase_8,83,9999,9999,9999,2010499176
8620,15,Jits_Phase_8,84,9999,9999,9999,2011299900
8620,15,Jits_Phase_8,85,9999,9999,9999,2012099700
8620,15,Jits_Phase_8,86,9999,9999,9999,2012899384
8620,15,Jits_Phase_8,87,9999,9999,9999,2013699140
8620,15,Jits_Phase_8,88,9999,9999,9999,2014499920
8620,15,Jits_Phase_8,89,9999,9999,9999,2015299684
8620,15,Jits_Phase_8,90,9999,9999,9999,2016099452
8620,15,Jits_Phase_8,91,9999,9999,9999,2016899132
8620,15,Jits_Phase_8,92,9999,9999,9999,2017699952
8620,15,Jits_Phase_8,93,9999,9999,9999,2018499656
8620,15,Jits_Phase_8,94,9999,9999,9999,2019299420
8620,15,Jits_Phase_8,95,9999,9999,9999,2020099172
8620,15,Jits_Phase_8,96,9999,9999,9999,2020899916
8620,15,Jits_Phase_8,97,9999,9999,9999,2021619812
8620,15,Jits_Phase_8,98,9999,9999,9999,2022419516
8620,15,Jits_Phase_8,99,9999,9999,9999,2023219292
8620,15,Jits_Phase_8,100,9999,9999,9999,2024020028
8620,15,Jits_Phase_8,101,9999,9999,9999,2024819788
8620,15,Jits_Phase_8,102,9999,9999,9999,2025619540
8620,15,Jits_Phase_8,103,9999,9999,9999,2026419312
8620,15,Jits_Phase_8,104,9999,9999,9999,2027220080
8620,15,Jits_Phase_8,105,9999,9999,9999,2028019772
8620,15,Jits_Phase_8,106,9999,9999,9999,2028819520
8620,15,Jits_Phase_8,107,9999,9999,9999,2029619260
8620,15,Jits_Phase_8,108,9999,9999,9999,2030420068
8620,15,Jits_Phase_8,109,9999,9999,9999,2031219820
8620,15,Jits_Phase_8,110,9999,9999,9999,2032019584
8620,15,Jits_Phase_8,111,9999,9999,9999,2032819272
8620,15,Jits_Phase_8,112,9999,9999,9999,2033620036
8620,15,Jits_Phase_8,113,9999,9999,9999,2034419808
8620,15,Jits_Phase_8,114,9999,9999,9999,2035299400
8620,15,Jits_Phase_8,115,9999,9999,9999,2036099156
8620,15,Jits_Phase_8,116,9999,9999,9999,2036899904
8620,15,Jits_Phase_8,117,9999,9999,9999,2037699708
8620,15,Jits_Phase_8,118,9999,9999,9999,2038499412
8620,15,Jits_Phase_8,119,9999,9999,9999,2039299180
8620,15,Jits_Phase_8,120,9999,9999,9999,2040099924
8620,15,Jits_Phase_8,121,9999,9999,9999,2040899684
8620,15,Jits_Phase_8,122,9999,9999,9999,2041699408
8620,15,Jits_Phase_8,123,9999,9999,9999,2042499160
8620,15,Jits_Phase_8,124,9999,9999,9999,2043299900
8620,15,Jits_Phase_8,125,9999,9999,9999,2044099692
8620,15,Jits_Phase_8,126,9999,9999,9999,2044899388
8620,15,Jits_Phase_8,127,9999,9999,9999,2045699152
8620,15,Jits_Phase_8,128,9999,9999,9999,2046499908
8620,15,Jits_Phase_8,129,9999,9999,9999,2047299696
8620,15,Jits_Phase_8,130,9999,9999,9999,2048099400
8620,15,Jits_Phase_8,131,9999,9999,9999,2049059904
8620,15,Jits_Phase_8,132,9999,9999,9999,2049859668
8620,15,Jits_Phase_8,133,9999,9999,9999,2050659436
8620,15,Jits_Phase_8,134,9999,9999,9999,2051459192
8620,15,Jits_Phase_8,135,9999,9999,9999,2052259908
8620,15,Jits_Phase_8,136,9999,9999,9999,2053059688
8620,15,Jits_Phase_8,137,9999,9999,9999,2053859388
8620,15,Jits_Phase_8,138,9999,9999,9999,2054659160
8620,15,Jits_Phase_8,139,9999,9999,9999,2055459900
8620,15,Jits_Phase_8,140,9999,9999,9999,2056259664
8620,15,Jits_Phase_8,141,9999,9999,9999,2057059420
8620,15,Jits_Phase_8,142,9999,9999,9999,2057859184
8620,15,Jits_Phase_8,143,9999,9999,9999,2058659912
8620,15,Jits_Phase_8,144,9999,9999,9999,2059459708
8620,15,Jits_Phase_8,145,9999,9999,9999,2060259392
8620,15,Jits_Phase_8,146,9999,9999,9999,2061059152
8620,15,Jits_Phase_8,147,9999,9999,9999,2061859952
8620,15,Jits_Phase_8,148,9999,9999,9999,2062659704
8620,15,Jits_Phase_8,149,9999,9999,9999,2063459384
8620,15,Jits_Phase_8,150,9999,9999,9999,2064099420
8620,15,Jits_Phase_8,151,9999,9999,9999,2064899188
8620,15,Jits_Phase_8,152,9999,9999,9999,2065699932
8620,15,Jits_Phase_8,153,9999,9999,9999,2066499696
8620,15,Jits_Phase_8,154,9999,9999,9999,2067299448
8620,15,Jits_Phase_8,155,9999,9999,9999,2068099192
8620,15,Jits_Phase_8,156,9999,9999,9999,2068899924
8620,15,Jits_Phase_8,157,9999,9999,9999,2069699704
8620,15,Jits_Phase_8,158,9999,9999,9999,2070499392
8620,15,Jits_Phase_8,159,9999,9999,9999,2071299144
8620,15,Jits_Phase_8,160,9999,9999,9999,2072099952
8620,15,Jits_Phase_8,161,9999,9999,9999,2072899708
8620,15,Jits_Phase_8,162,9999,9999,9999,2073699400
8620,15,Jits_Phase_8,163,9999,9999,9999,2074499168
8620,15,Jits_Phase_8,164,9999,9999,9999,2075299896
8620,15,Jits_Phase_8,165,9999,9999,9999,2076099680
8620,15,Jits_Phase_8,166,9999,9999,9999,2076899384
8620,15,Jits_Phase_8,167,9999,9999,9999,2077699140
8620,15,Jits_Phase_8,168,9999,9999,9999,2078499964
8620,15,Jits_Phase_8,169,9999,9999,9999,2079299660
8621,5,ISIP_5,0,5,42,127,2152711524
8621,5,ISIP_5,1,5,42,127,2153212216
8621,5,ISIP_5,2,5,42,127,2153712004
8621,5,ISIP_5,3,5,42,127,2154211648
8621,5,ISIP_5,4,5,42,127,2154712488
8621,5,ISIP_5,5,5,42,127,2155212056
8621,5,ISIP_5,6,5,42,127,2155712068
8621,5,ISIP_5,7,5,42,127,2156211760
8621,5,ISIP_5,8,5,42,127,2156712152
8621,5,ISIP_5,9,5,42,127,2157212020
8621,5,ISIP_5,10,1,48,51,2157291904
8621,5,ISIP_5,11,5,42,127,2157711936
8621,5,ISIP_5,12,1,48,48,2157739812
8621,5,ISIP_5,13,1,48,52,2158212004
8621,5,ISIP_5,14,5,42,127,2158213124
8621,5,ISIP_5,15,5,42,127,2158712076
8621,5,ISIP_5,16,1,48,42,2158728212
8621,5,ISIP_5,17,5,42,127,2159211992
8621,5,ISIP_5,18,1,48,58,2159239944
8621,5,ISIP_5,19,1,48,56,2159707756
8621,5,ISIP_5,20,5,42,127,2159711680
8621,5,ISIP_5,21,5,42,127,2160212356
8621,5,ISIP_5,22,1,48,51,2160241728
8621,5,ISIP_5,23,5,42,127,2160712048
8621,5,ISIP_5,24,1,48,56,2160713612
8621,5,ISIP_5,25,5,42,127,2161211892
8621,5,ISIP_5,26,1,48,53,2161240444
8621,5,ISIP_5,27,5,42,127,2161711436
8621,5,ISIP_5,28,1,48,52,2161783668
8621,5,ISIP_5,29,5,42,127,2162212108
8621,5,ISIP_5,30,1,48,52,2162242524
8621,5,ISIP_5,31,5,42,127,2162711876
8621,5,ISIP_5,32,1,48,48,2162749396
8621,5,ISIP_5,33,5,42,127,2163211796
8621,5,ISIP_5,34,1,48,42,2163249172
8621,5,ISIP_5,35,5,42,127,2163712464
8621,5,ISIP_5,36,1,48,48,2163744528
8621,5,ISIP_5,37,5,42,127,2164212008
8621,5,ISIP_5,38,1,48,45,2164233232
8621,5,ISIP_5,39,5,42,127,2164711776
8621,5,ISIP_5,40,1,48,54,2164727384
8621,5,ISIP_5,41,5,42,127,2165211472
8621,5,ISIP_5,42,1,48,49,2165243536
8621,5,ISIP_5,43,5,42,127,2165712212
8621,5,ISIP_5,44,1,48,57,2165746824
8621,5,ISIP_5,45,5,42,127,2166211908
8621,5,ISIP_5,46,1,48,56,2166217796
8621,5,ISIP_5,47,1,48,58,2166691564
8621,5,ISIP_5,48,5,42,127,2166711796
8621,5,ISIP_5,49,1,48,59,2167182884
8621,5,ISIP_5,50,5,42,127,2167212540
8621,5,ISIP_5,51,1,48,49,2167700980
8621,5,ISIP_5,52,5,42,127,2167712084
8621,5,ISIP_5,53,1,48,51,2168197832
8621,5,ISIP_5,54,5,42,127,2168211780
8621,5,ISIP_5,55,5,42,127,2168711484
8621,5,ISIP_5,56,1,48,51,2168720284
8621,5,ISIP_5,57,5,42,127,2169212300
8621,5,ISIP_5,58,1,48,64,2169223352
8621,5,ISIP_5,59,5,42,127,2169711996
8621,5,ISIP_5,60,1,48,57,2169721544
8621,5,ISIP_5,61,5,42,127,2170211688
8621,5,ISIP_5,62,1,48,61,2170213104
8621,5,ISIP_5,63,5,42,127,2170712284
8621,5,ISIP_5,64,1,48,56,2170723332
8621,5,ISIP_5,65,5,42,127,2171212276
8621,5,ISIP_5,66,1,48,54,2171247256
8621,5,ISIP_5,67,5,42,127,2171711820
8621,5,ISIP_5,68,1,48,54,2171736780
8621,5,ISIP_5,69,5,42,127,2172211740
8621,5,ISIP_5,70,1,48,51,2172250316
8621,5,ISIP_5,71,1,48,52,2172715152
8621,5,ISIP_5,72,1,48,56,2173238172
8621,5,ISIP_5,73,1,48,52,2173741828
8621,5,ISIP_5,74,1,48,42,2174257380
8621,5,ISIP_5,75,1,48,51,2174768440
8621,5,ISIP_5,76,1,48,50,2175283540
8621,5,ISIP_5,77,1,48,45,2175839628
8621,5,ISIP_5,78,1,48,52,2176395640
8621,5,ISIP_5,79,1,48,54,2176921812
8621,5,ISIP_5,80,1,48,57,2177447156
8621,5,ISIP_5,81,1,48,56,2177982172
8621,5,ISIP_5,82,1,48,50,2178494804
8621,5,ISIP_5,83,1,48,48,2179025756
8621,5,ISIP_5,84,1,48,56,2179556716
8621,5,ISIP_5,85,1,48,47,2180081384
8621,5,ISIP_5,86,1,48,51,2180580408
8621,5,ISIP_5,87,1,48,51,2181079128
8621,5,ISIP_5,88,1,48,57,2181608432
8621,5,ISIP_5,89,1,48,54,2182115608
8621,5,ISIP_5,90,1,48,51,2182665488
8621,5,ISIP_5,91,1,48,47,2183201980
8621,5,ISIP_5,92,1,48,57,2183685216
8621,5,ISIP_5,93,1,48,34,2183731128
8621,5,ISIP_5,94,1,48,52,2184220500
8621,5,ISIP_5,95,1,48,53,2184724976
8621,5,ISIP_5,96,1,48,51,2185208568
8621,5,ISIP_5,97,1,48,56,2185726452
8621,5,ISIP_5,98,1,48,50,2186233400
8621,5,ISIP_5,99,1,48,53,2186752688
8621,5,ISIP_5,100,1,48,54,2187267488
8621,5,ISIP_5,101,1,48,59,2187765604
8621,5,ISIP_5,102,1,48,48,2188300456
8621,5,ISIP_5,103,1,48,52,2188793940
8621,5,ISIP_5,104,1,48,20,2188870132
8621,5,ISIP_5,105,1,48,55,2189311408
8621,5,ISIP_5,106,1,48,56,2189847076
8621,5,ISIP_5,107,1,48,59,2190384316
8621,5,ISIP_5,108,1,48,61,2190892236
8621,5,ISIP_5,109,1,48,56,2191403520
8621,5,ISIP_5,110,1,48,54,2191953548
8621,5,ISIP_5,111,1,48,54,2192468348
8621,5,ISIP_5,112,1,48,46,2192979332
8621,5,ISIP_5,113,1,48,53,2193499220
8621,5,ISIP_5,114,1,48,55,2194024492
8621,5,ISIP_5,115,1,48,55,2194533604
8621,5,ISIP_5,116,1,48,53,2195066800
8621,5,ISIP_5,117,1,48,55,2195591552
8621,5,ISIP_5,118,1,48,54,2196100216
8621,5,ISIP_5,119,1,48,58,2196652044
8621,5,ISIP_5,120,1,48,64,2197181296
8621,5,ISIP_5,121,1,48,67,2197710176
8621,5,ISIP_5,122,1,48,29,2197787344
8621,5,ISIP_5,123,1,48,62,2198280380
8621,5,ISIP_5,124,1,48,54,2198834672
8621,5,ISIP_5,125,1,48,62,2199446480
8621,5,ISIP_5,126,1,48,61,2200050916
8621,5,ISIP_5,127,1,48,57,2200625776
8621,5,ISIP_5,128,1,48,43,2201165336
8621,5,ISIP_5,129,1,48,27,2201759136
8621,5,ISIP_5,130,1,48,38,2202301488
8621,5,ISIP_5,131,1,48,43,2202843812
8621,5,ISIP_5,132,1,48,41,2203406032
8621,5,ISIP_5,133,1,48,43,2203956136
8621,5,ISIP_5,134,1,48,48,2204499136
8621,5,ISIP_5,135,1,48,45,2205049464
8621,5,ISIP_5,136,1,48,47,2205597544
8621,5,ISIP_5,137,1,48,48,2206134416
8621,5,ISIP_5,138,1,48,48,2206716348
8621,5,ISIP_5,139,1,48,44,2207287768
8621,5,ISIP_5,140,1,48,50,2207813336
8621,5,ISIP_5,141,1,48,56,2208340108
8621,5,ISIP_5,142,1,48,38,2208376064
8621,5,ISIP_5,143,1,48,56,2208863560
8621,5,ISIP_5,144,1,48,54,2209383072
8621,5,ISIP_5,145,1,48,55,2209935940
8621,5,ISIP_5,146,1,48,50,2210513892
8621,5,ISIP_5,147,1,48,56,2211004912
8621,5,ISIP_5,148,1,48,36,2211053956
8621,5,ISIP_5,149,1,48,60,2211569880
8621,5,ISIP_5,150,1,48,40,2212134120
8621,5,ISIP_5,151,1,48,48,2212614884
8621,5,ISIP_5,152,1,48,42,2213185184
8621,5,ISIP_5,153,1,48,47,2213796192
8621,5,ISIP_5,154,1,48,46,2214330612
8621,5,ISIP_5,155,1,48,47,2214891036
8621,5,ISIP_5,156,1,48,48,2215477348
8621,5,ISIP_5,157,1,48,56,2216033508
8621,5,ISIP_5,158,1,48,50,2216589668
8621,5,ISIP_5,159,1,48,46,2217197692
8621,5,ISIP_5,160,1,48,53,2217805552
8621,5,ISIP_5,161,1,48,54,2218382512
8621,5,ISIP_5,162,1,48,58,2218926480
8621,5,ISIP_5,163,1,48,48,2218949592
8621,5,ISIP_5,164,1,48,57,2219499924
8621,5,ISIP_5,165,1,48,48,2219522420
8621,5,ISIP_5,166,1,48,48,2220031232
8621,5,ISIP_5,167,1,48,43,2220654264
8621,5,ISIP_5,168,1,48,43,2221203244
8621,5,ISIP_5,169,1,48,48,2221762888
8621,5,ISIP_5,170,1,48,46,2222304320
8621,5,ISIP_5,171,1,48,55,2222893912
8621,5,ISIP_5,172,1,48,49,2223472364
8621,5,ISIP_5,173,1,48,62,2224042512
8621,5,ISIP_5,174,1,48,49,2224066524
8621,5,ISIP_5,175,1,48,57,2224637720
8621,5,ISIP_5,176,1,48,57,2225202940
8621,5,ISIP_5,177,1,48,45,2225230752
8621,5,ISIP_5,178,1,48,54,2225769188
8621,5,ISIP_5,179,1,48,62,2226346672
8621,5,ISIP_5,180,1,48,46,2226382576
8621,5,ISIP_5,181,1,48,61,2226897152
8621,5,ISIP_5,182,1,48,49,2226932284
8621,5,ISIP_5,183,1,48,62,2227470796
8621,5,ISIP_5,184,1,48,46,2228034364
8621,5,ISIP_5,185,1,48,48,2228616032
8621,5,ISIP_5,186,1,48,45,2229190392
8621,5,ISIP_5,187,1,48,53,2229692556
8621,5,ISIP_5,188,1,48,55,2230251800
8621,5,ISIP_5,189,1,48,49,2230787392
8621,5,ISIP_5,190,1,48,59,2231373400
8621,5,ISIP_5,191,1,48,37,2231416608
8621,5,ISIP_5,192,1,48,70,2231898648
8621,5,ISIP_5,193,1,48,58,2231921140
8621,5,ISIP_5,194,1,48,60,2232442152
8621,5,ISIP_5,0,9999,9999,9999,2152709236
8621,5,ISIP_5,1,9999,9999,9999,2153209928
8621,5,ISIP_5,2,9999,9999,9999,2153709644
8621,5,ISIP_5,3,9999,9999,9999,2154209360
8621,5,ISIP_5,4,9999,9999,9999,2154710124
8621,5,ISIP_5,5,9999,9999,9999,2155209840
8621,5,ISIP_5,6,9999,9999,9999,2155709556
8621,5,ISIP_5,7,9999,9999,9999,2156209252
8621,5,ISIP_5,8,9999,9999,9999,2156709940
8621,5,ISIP_5,9,9999,9999,9999,2157209656
8621,5,ISIP_5,10,9999,9999,9999,2157709424
8621,5,ISIP_5,11,9999,9999,9999,2158209120
8621,5,ISIP_5,12,9999,9999,9999,2158709864
8621,5,ISIP_5,13,9999,9999,9999,2159209556
8621,5,ISIP_5,14,9999,9999,9999,2159709244
8621,5,ISIP_5,15,9999,9999,9999,2160209992
8621,5,ISIP_5,16,9999,9999,9999,2160709688
8621,5,ISIP_5,17,9999,9999,9999,2161209456
8621,5,ISIP_5,18,9999,9999,9999,2161709148
8621,5,ISIP_5,19,9999,9999,9999,2162209892
8621,5,ISIP_5,20,9999,9999,9999,2162709588
8621,5,ISIP_5,21,9999,9999,9999,2163209284
8621,5,ISIP_5,22,9999,9999,9999,2163710024
8621,5,ISIP_5,23,9999,9999,9999,2164209720
8621,5,ISIP_5,24,9999,9999,9999,2164709488
8621,5,ISIP_5,25,9999,9999,9999,2165209184
8621,5,ISIP_5,26,9999,9999,9999,2165709924
8621,5,ISIP_5,27,9999,9999,9999,2166209620
8621,5,ISIP_5,28,9999,9999,9999,2166709360
8621,5,ISIP_5,29,9999,9999,9999,2167210100
8621,5,ISIP_5,30,9999,9999,9999,2167709796
8621,5,ISIP_5,31,9999,9999,9999,2168209492
8621,5,ISIP_5,32,9999,9999,9999,2168709196
8621,5,ISIP_5,33,9999,9999,9999,2169209936
8621,5,ISIP_5,34,9999,9999,9999,2169709632
8621,5,ISIP_5,35,9999,9999,9999,2170209400
8621,5,ISIP_5,36,9999,9999,9999,2170710068
8621,5,ISIP_5,37,9999,9999,9999,2171209836
8621,5,ISIP_5,38,9999,9999,9999,2171709532
8621,5,ISIP_5,39,9999,9999,9999,2172209228
8621,5,ISIP_5,40,9999,9999,9999,2172709972
8621,5,ISIP_5,41,9999,9999,9999,2173209660
8621,5,ISIP_5,42,9999,9999,9999,2173709424
8621,5,ISIP_5,43,9999,9999,9999,2174209116
8621,5,ISIP_5,44,9999,9999,9999,2174709856
8621,5,ISIP_5,45,9999,9999,9999,2175209544
8621,5,ISIP_5,46,9999,9999,9999,2175709240
8621,5,ISIP_5,47,9999,9999,9999,2176209976
8621,5,ISIP_5,48,9999,9999,9999,2176709740
8621,5,ISIP_5,49,9999,9999,9999,2177209404
8621,5,ISIP_5,50,9999,9999,9999,2177709168
8621,5,ISIP_5,51,9999,9999,9999,2178209908
8621,5,ISIP_5,52,9999,9999,9999,2178709600
8621,5,ISIP_5,53,9999,9999,9999,2179209288
8621,5,ISIP_5,54,9999,9999,9999,2179710024
8621,5,ISIP_5,55,9999,9999,9999,2180209720
8621,5,ISIP_5,56,9999,9999,9999,2180709484
8621,5,ISIP_5,57,9999,9999,9999,2181209176
8621,5,ISIP_5,58,9999,9999,9999,2181709912
8621,5,ISIP_5,59,9999,9999,9999,2182209620
8621,5,ISIP_5,60,9999,9999,9999,2182709312
8621,5,ISIP_5,61,9999,9999,9999,2183210048
8621,5,ISIP_5,62,9999,9999,9999,2183709812
8621,5,ISIP_5,63,9999,9999,9999,2184209488
8621,5,ISIP_5,64,9999,9999,9999,2184709180
8621,5,ISIP_5,65,9999,9999,9999,2185209908
8621,5,ISIP_5,66,9999,9999,9999,2185709680
8621,5,ISIP_5,67,9999,9999,9999,2186209372
8621,5,ISIP_5,68,9999,9999,9999,2186710112
8621,5,ISIP_5,69,9999,9999,9999,2187209800
8621,5,ISIP_5,70,9999,9999,9999,2187709492
8621,5,ISIP_5,71,9999,9999,9999,2188209232
8621,5,ISIP_5,72,9999,9999,9999,2188709972
8621,5,ISIP_5,73,9999,9999,9999,2189209716
8621,5,ISIP_5,74,9999,9999,9999,2189709404
8621,5,ISIP_5,75,9999,9999,9999,2190209096
8621,5,ISIP_5,76,9999,9999,9999,2190709836
8621,5,ISIP_5,77,9999,9999,9999,2191209524
8621,5,ISIP_5,78,9999,9999,9999,2191709292
8621,5,ISIP_5,79,9999,9999,9999,2192210028
8621,5,ISIP_5,80,9999,9999,9999,2192709720
8621,5,ISIP_5,81,9999,9999,9999,2193209408
8621,5,ISIP_5,82,9999,9999,9999,2193709176
8621,5,ISIP_5,83,9999,9999,9999,2194209912
8621,5,ISIP_5,84,9999,9999,9999,2194709604
8621,5,ISIP_5,85,9999,9999,9999,2195209292
8621,5,ISIP_5,86,9999,9999,9999,2195710028
8621,5,ISIP_5,87,9999,9999,9999,2196209720
8621,5,ISIP_5,88,9999,9999,9999,2196709424
8621,5,ISIP_5,89,9999,9999,9999,2197209192
8621,5,ISIP_5,90,9999,9999,9999,2197709892
8621,5,ISIP_5,91,9999,9999,9999,2198209604
8621,5,ISIP_5,92,9999,9999,9999,2198709344
8621,5,ISIP_5,93,9999,9999,9999,2199210080
8621,5,ISIP_5,94,9999,9999,9999,2199709772
8621,5,ISIP_5,95,9999,9999,9999,2200209464
8621,5,ISIP_5,96,9999,9999,9999,2200709168
8621,5,ISIP_5,97,9999,9999,9999,2201209908
8621,5,ISIP_5,98,9999,9999,9999,2201709676
8621,5,ISIP_5,99,9999,9999,9999,2202209368
8621,5,ISIP_5,100,9999,9999,9999,2202710108
8621,5,ISIP_5,101,9999,9999,9999,2203209796
8621,5,ISIP_5,102,9999,9999,9999,2203709564
8621,5,ISIP_5,103,9999,9999,9999,2204209252
8621,5,ISIP_5,104,9999,9999,9999,2204709992
8621,5,ISIP_5,105,9999,9999,9999,2205209680
8621,5,ISIP_5,106,9999,9999,9999,2205709372
8621,5,ISIP_5,107,9999,9999,9999,2206209080
8621,5,ISIP_5,108,9999,9999,9999,2206709820
8621,5,ISIP_5,109,9999,9999,9999,2207209588
8621,5,ISIP_5,110,9999,9999,9999,2207709280
8621,5,ISIP_5,111,9999,9999,9999,2208210016
8621,5,ISIP_5,112,9999,9999,9999,2208709684
8621,5,ISIP_5,113,9999,9999,9999,2209209448
8621,5,ISIP_5,114,9999,9999,9999,2209709112
8621,5,ISIP_5,115,9999,9999,9999,2210209852
8621,5,ISIP_5,116,9999,9999,9999,2210709616
8621,5,ISIP_5,117,9999,9999,9999,2211209284
8621,5,ISIP_5,118,9999,9999,9999,2211710024
8621,5,ISIP_5,119,9999,9999,9999,2212209732
8621,5,ISIP_5,120,9999,9999,9999,2212709496
8621,5,ISIP_5,121,9999,9999,9999,2213209188
8621,5,ISIP_5,122,9999,9999,9999,2213709932
8621,5,ISIP_5,123,9999,9999,9999,2214209620
8621,5,ISIP_5,124,9999,9999,9999,2214709312
8621,5,ISIP_5,125,9999,9999,9999,2215210048
8621,5,ISIP_5,126,9999,9999,9999,2215709816
8621,5,ISIP_5,127,9999,9999,9999,2216209508
8621,5,ISIP_5,128,9999,9999,9999,2216709196
8621,5,ISIP_5,129,9999,9999,9999,2217209948
8621,5,ISIP_5,130,9999,9999,9999,2217709644
8621,5,ISIP_5,131,9999,9999,9999,2218209336
8621,5,ISIP_5,132,9999,9999,9999,2218710076
8621,5,ISIP_5,133,9999,9999,9999,2219209816
8621,5,ISIP_5,134,9999,9999,9999,2219709560
8621,5,ISIP_5,135,9999,9999,9999,2220209228
8621,5,ISIP_5,136,9999,9999,9999,2220709980
8621,5,ISIP_5,137,9999,9999,9999,2221209668
8621,5,ISIP_5,138,9999,9999,9999,2221709364
8621,5,ISIP_5,139,9999,9999,9999,2222209132
8621,5,ISIP_5,140,9999,9999,9999,2222709868
8621,5,ISIP_5,141,9999,9999,9999,2223209560
8621,5,ISIP_5,142,9999,9999,9999,2223709248
8621,5,ISIP_5,143,9999,9999,9999,2224210040
8621,5,ISIP_5,144,9999,9999,9999,2224709744
8621,5,ISIP_5,145,9999,9999,9999,2225209436
8621,5,ISIP_5,146,9999,9999,9999,2225709112
8621,5,ISIP_5,147,9999,9999,9999,2226209852
8621,5,ISIP_5,148,9999,9999,9999,2226709592
8621,5,ISIP_5,149,9999,9999,9999,2227209336
8621,5,ISIP_5,150,9999,9999,9999,2227710076
8621,5,ISIP_5,151,9999,9999,9999,2228209764
8621,5,ISIP_5,152,9999,9999,9999,2228709472
8621,5,ISIP_5,153,9999,9999,9999,2229209160
8621,5,ISIP_5,154,9999,9999,9999,2229709896
8621,5,ISIP_5,155,9999,9999,9999,2230209596
8621,5,ISIP_5,156,9999,9999,9999,2230709336
8621,5,ISIP_5,157,9999,9999,9999,2231210072
8621,5,ISIP_5,158,9999,9999,9999,2231709816
8621,5,ISIP_5,159,9999,9999,9999,2232209488
8622,3,ISIP_8,0,5,42,127,2301158084
8622,3,ISIP_8,1,5,42,127,2301957692
8622,3,ISIP_8,2,5,42,127,2302758196
8622,3,ISIP_8,3,5,42,127,2303557952
8622,3,ISIP_8,4,5,42,127,2304358004
8622,3,ISIP_8,5,1,48,39,2304366208
8622,3,ISIP_8,6,1,48,57,2305099352
8622,3,ISIP_8,7,5,42,127,2305157504
8622,3,ISIP_8,8,1,48,39,2305920556
8622,3,ISIP_8,9,5,42,127,2305958136
8622,3,ISIP_8,10,5,42,127,2306758052
8622,3,ISIP_8,11,1,48,49,2306771344
8622,3,ISIP_8,12,5,42,127,2307557712
8622,3,ISIP_8,13,1,48,53,2307631888
8622,3,ISIP_8,14,5,42,127,2308357744
8622,3,ISIP_8,15,1,48,54,2308397216
8622,3,ISIP_8,16,1,48,54,2309143604
8622,3,ISIP_8,17,5,42,127,2309158292
8622,3,ISIP_8,18,1,48,57,2309938696
8622,3,ISIP_8,19,5,42,127,2309957876
8622,3,ISIP_8,20,5,42,127,2310757692
8622,3,ISIP_8,21,1,48,55,2310760736
8622,3,ISIP_8,22,1,48,48,2311512804
8622,3,ISIP_8,23,5,42,127,2311557416
8622,3,ISIP_8,24,1,48,62,2312321364
8622,3,ISIP_8,25,5,42,127,2312358124
8622,3,ISIP_8,26,5,42,127,2313157960
8622,3,ISIP_8,27,1,48,45,2313206184
8622,3,ISIP_8,28,5,42,127,2313957772
8622,3,ISIP_8,29,1,48,48,2313971432
8622,3,ISIP_8,30,5,42,127,2314757580
8622,3,ISIP_8,31,1,48,52,2314763320
8622,3,ISIP_8,32,5,42,127,2315558208
8622,3,ISIP_8,33,1,48,51,2315573820
8622,3,ISIP_8,34,1,48,48,2316337188
8622,3,ISIP_8,35,5,42,127,2316357936
8622,3,ISIP_8,36,1,48,49,2317158048
8622,3,ISIP_8,37,5,42,127,2317159164
8622,3,ISIP_8,38,1,48,57,2317937776
8622,3,ISIP_8,39,5,42,127,2317957628
8622,3,ISIP_8,40,5,42,127,2318758340
8622,3,ISIP_8,41,1,48,52,2318768116
8622,3,ISIP_8,42,1,48,51,2319481892
8622,3,ISIP_8,43,5,42,127,2319558016
8622,3,ISIP_8,44,5,42,127,2320357684
8622,3,ISIP_8,45,1,48,51,2320367236
8622,3,ISIP_8,46,5,42,127,2321157492
8622,3,ISIP_8,47,1,48,49,2321192328
8622,3,ISIP_8,48,1,48,44,2321930636
8622,3,ISIP_8,49,5,42,127,2321958196
8622,3,ISIP_8,50,1,48,54,2322702696
8622,3,ISIP_8,51,5,42,127,2322757852
8622,3,ISIP_8,52,5,42,127,2323557816
8622,3,ISIP_8,53,1,48,53,2323568636
8622,3,ISIP_8,54,5,42,127,2324357624
8622,3,ISIP_8,55,1,48,54,2324386476
8622,3,ISIP_8,56,1,48,52,2325117524
8622,3,ISIP_8,57,1,48,52,2325915460
8622,3,ISIP_8,58,1,48,46,2326718880
8622,3,ISIP_8,59,1,48,53,2327495420
8622,3,ISIP_8,60,1,48,51,2328303528
8622,3,ISIP_8,61,1,48,50,2329101616
8622,3,ISIP_8,62,1,48,53,2329917272
8622,3,ISIP_8,63,1,48,53,2330740116
8622,3,ISIP_8,64,1,48,54,2331544480
8622,3,ISIP_8,65,1,48,51,2332316088
8622,3,ISIP_8,66,1,48,51,2333122724
8622,3,ISIP_8,67,1,48,52,2333906892
8622,3,ISIP_8,68,1,48,54,2334684260
8622,3,ISIP_8,69,1,48,59,2335506728
8622,3,ISIP_8,70,1,48,54,2336296508
8622,3,ISIP_8,71,1,48,58,2337149640
8622,3,ISIP_8,72,1,48,64,2337994436
8622,3,ISIP_8,73,1,48,58,2338822516
8622,3,ISIP_8,74,1,48,51,2339668020
8622,3,ISIP_8,75,1,48,45,2340551172
8622,3,ISIP_8,76,1,48,48,2341365712
8622,3,ISIP_8,77,1,48,51,2342190276
8622,3,ISIP_8,78,1,48,47,2343029800
8622,3,ISIP_8,79,1,48,46,2343758836
8622,3,ISIP_8,80,1,48,56,2344569864
8622,3,ISIP_8,81,1,48,48,2345357848
8622,3,ISIP_8,82,1,48,56,2346215124
8622,3,ISIP_8,83,1,48,53,2346990020
8622,3,ISIP_8,84,1,48,52,2347782044
8622,3,ISIP_8,85,1,48,56,2348548712
8622,3,ISIP_8,86,1,48,57,2349305732
8622,3,ISIP_8,87,1,48,58,2350083992
8622,3,ISIP_8,88,1,48,59,2350846400
8622,3,ISIP_8,89,1,48,56,2351610900
8622,3,ISIP_8,90,1,48,54,2352360964
8622,3,ISIP_8,91,1,48,57,2353213576
8622,3,ISIP_8,92,1,48,49,2354001260
8622,3,ISIP_8,93,1,48,55,2354893244
8622,3,ISIP_8,94,1,48,50,2355682576
8622,3,ISIP_8,95,1,48,58,2356422388
8622,3,ISIP_8,96,1,48,57,2357247324
8622,3,ISIP_8,97,1,48,54,2358069268
8622,3,ISIP_8,98,1,48,53,2358846404
8622,3,ISIP_8,99,1,48,50,2359586672
8622,3,ISIP_8,100,1,48,49,2360392236
8622,3,ISIP_8,101,1,48,55,2361174316
8622,3,ISIP_8,102,1,48,43,2361922648
8622,3,ISIP_8,103,1,48,55,2362714444
8622,3,ISIP_8,104,1,48,44,2363580032
8622,3,ISIP_8,105,1,48,38,2364329308
8622,3,ISIP_8,106,1,48,17,2364433596
8622,3,ISIP_8,107,1,48,66,2365115200
8622,3,ISIP_8,108,1,48,53,2365924208
8622,3,ISIP_8,109,1,48,52,2366767484
8622,3,ISIP_8,110,1,48,53,2367612392
8622,3,ISIP_8,111,1,48,52,2368454108
8622,3,ISIP_8,112,1,48,56,2369264528
8622,3,ISIP_8,113,1,48,52,2370134196
8622,3,ISIP_8,114,1,48,60,2370958384
8622,3,ISIP_8,115,1,48,54,2371776460
8622,3,ISIP_8,116,1,48,54,2372620096
8622,3,ISIP_8,117,1,48,48,2373543764
8622,3,ISIP_8,118,1,48,65,2374395956
8622,3,ISIP_8,119,1,48,56,2375238020
8622,3,ISIP_8,120,1,48,64,2376086668
8622,3,ISIP_8,121,1,48,59,2376874948
8622,3,ISIP_8,122,1,48,60,2377735812
8622,3,ISIP_8,123,1,48,61,2378532548
8622,3,ISIP_8,124,1,48,59,2379413136
8622,3,ISIP_8,125,1,48,63,2380235252
8622,3,ISIP_8,126,1,48,63,2381035128
8622,3,ISIP_8,127,1,48,61,2381913624
8622,3,ISIP_8,128,1,48,66,2382749252
8622,3,ISIP_8,129,1,48,59,2383621500
8622,3,ISIP_8,130,1,48,41,2384495500
8622,3,ISIP_8,131,1,48,56,2385353076
8622,3,ISIP_8,132,1,48,59,2386165968
8622,3,ISIP_8,133,1,48,49,2387010200
8622,3,ISIP_8,134,1,48,64,2387833492
8622,3,ISIP_8,135,1,48,62,2388645412
8622,3,ISIP_8,136,1,48,58,2389463272
8622,3,ISIP_8,137,1,48,57,2390376988
8622,3,ISIP_8,138,1,48,60,2391221848
8622,3,ISIP_8,139,1,48,57,2392047228
8622,3,ISIP_8,140,1,48,58,2392905228
8622,3,ISIP_8,141,1,48,57,2393739136
8622,3,ISIP_8,142,1,48,60,2394572252
8622,3,ISIP_8,143,1,48,63,2395455608
8622,3,ISIP_8,144,1,48,62,2396276204
8622,3,ISIP_8,145,1,48,59,2397147612
8622,3,ISIP_8,146,1,48,62,2398036512
8622,3,ISIP_8,147,1,48,56,2398848436
8622,3,ISIP_8,148,1,48,58,2399729640
8622,3,ISIP_8,149,1,48,57,2400648148
8622,3,ISIP_8,150,1,48,56,2401511108
8622,3,ISIP_8,151,1,48,58,2402422964
8622,3,ISIP_8,152,1,48,63,2403197928
8622,3,ISIP_8,153,1,48,61,2404108684
8622,3,ISIP_8,154,1,48,65,2404980516
8622,3,ISIP_8,155,1,48,55,2405855520
8622,3,ISIP_8,156,1,48,54,2406693320
8622,3,ISIP_8,157,1,48,56,2407575640
8622,3,ISIP_8,158,1,48,57,2408397380
8622,3,ISIP_8,159,1,48,65,2409283428
8622,3,ISIP_8,160,1,48,58,2410095200
8622,3,ISIP_8,161,1,48,62,2410952776
8622,3,ISIP_8,162,1,48,64,2411817500
8622,3,ISIP_8,163,1,48,73,2412681408
8622,3,ISIP_8,164,1,48,70,2413482184
8622,3,ISIP_8,165,1,48,51,2414325992
8622,3,ISIP_8,166,1,48,71,2415114052
8622,3,ISIP_8,167,1,48,52,2415904060
8622,3,ISIP_8,168,1,48,72,2416653824
8622,3,ISIP_8,169,1,48,65,2417449732
8622,3,ISIP_8,170,1,48,59,2418216776
8622,3,ISIP_8,171,1,48,63,2418985840
8622,3,ISIP_8,172,1,48,75,2419790356
8622,3,ISIP_8,173,1,48,54,2420539820
8622,3,ISIP_8,0,9999,9999,9999,2301155424
8622,3,ISIP_8,1,9999,9999,9999,2301955180
8622,3,ISIP_8,2,9999,9999,9999,2302755908
8622,3,ISIP_8,3,9999,9999,9999,2303555664
8622,3,ISIP_8,4,9999,9999,9999,2304355416
8622,3,ISIP_8,5,9999,9999,9999,2305155144
8622,3,ISIP_8,6,9999,9999,9999,2305955924
8622,3,ISIP_8,7,9999,9999,9999,2306755688
8622,3,ISIP_8,8,9999,9999,9999,2307555424
8622,3,ISIP_8,9,9999,9999,9999,2308355160
8622,3,ISIP_8,10,9999,9999,9999,2309155932
8622,3,ISIP_8,11,9999,9999,9999,2309955664
8622,3,ISIP_8,12,9999,9999,9999,2310755404
8622,3,ISIP_8,13,9999,9999,9999,2311555128
8622,3,ISIP_8,14,9999,9999,9999,2312355908
8622,3,ISIP_8,15,9999,9999,9999,2313155672
8622,3,ISIP_8,16,9999,9999,9999,2313955408
8622,3,ISIP_8,17,9999,9999,9999,2314755140
8622,3,ISIP_8,18,9999,9999,9999,2315555920
8622,3,ISIP_8,19,9999,9999,9999,2316355652
8622,3,ISIP_8,20,9999,9999,9999,2317155388
8622,3,ISIP_8,21,9999,9999,9999,2317955192
8622,3,ISIP_8,22,9999,9999,9999,2318755904
8622,3,ISIP_8,23,9999,9999,9999,2319555656
8622,3,ISIP_8,24,9999,9999,9999,2320355396
8622,3,ISIP_8,25,9999,9999,9999,2321155128
8622,3,ISIP_8,26,9999,9999,9999,2321955908
8622,3,ISIP_8,27,9999,9999,9999,2322755640
8622,3,ISIP_8,28,9999,9999,9999,2323555380
8622,3,ISIP_8,29,9999,9999,9999,2324355188
8622,3,ISIP_8,30,9999,9999,9999,2325155888
8622,3,ISIP_8,31,9999,9999,9999,2325955640
8622,3,ISIP_8,32,9999,9999,9999,2326755444
8622,3,ISIP_8,33,9999,9999,9999,2327555172
8622,3,ISIP_8,34,9999,9999,9999,2328355952
8622,3,ISIP_8,35,9999,9999,9999,2329155680
8622,3,ISIP_8,36,9999,9999,9999,2329955412
8622,3,ISIP_8,37,9999,9999,9999,2330755140
8622,3,ISIP_8,38,9999,9999,9999,2331555916
8622,3,ISIP_8,39,9999,9999,9999,2332355668
8622,3,ISIP_8,40,9999,9999,9999,2333155396
8622,3,ISIP_8,41,9999,9999,9999,2333955128
8622,3,ISIP_8,42,9999,9999,9999,2334755904
8622,3,ISIP_8,43,9999,9999,9999,2335555632
8622,3,ISIP_8,44,9999,9999,9999,2336355436
8622,3,ISIP_8,45,9999,9999,9999,2337155164
8622,3,ISIP_8,46,9999,9999,9999,2337955948
8622,3,ISIP_8,47,9999,9999,9999,2338755704
8622,3,ISIP_8,48,9999,9999,9999,2339555432
8622,3,ISIP_8,49,9999,9999,9999,2340355160
8622,3,ISIP_8,50,9999,9999,9999,2341155936
8622,3,ISIP_8,51,9999,9999,9999,2341955668
8622,3,ISIP_8,52,9999,9999,9999,2342755396
8622,3,ISIP_8,53,9999,9999,9999,2343555124
8622,3,ISIP_8,54,9999,9999,9999,2344355900
8622,3,ISIP_8,55,9999,9999,9999,2345155652
8622,3,ISIP_8,56,9999,9999,9999,2345955384
8622,3,ISIP_8,57,9999,9999,9999,2346755188
8622,3,ISIP_8,58,9999,9999,9999,2347555888
8622,3,ISIP_8,59,9999,9999,9999,2348355692
8622,3,ISIP_8,60,9999,9999,9999,2349155420
8622,3,ISIP_8,61,9999,9999,9999,2349955152
8622,3,ISIP_8,62,9999,9999,9999,2350755928
8622,3,ISIP_8,63,9999,9999,9999,2351555680
8622,3,ISIP_8,64,9999,9999,9999,2352355412
8622,3,ISIP_8,65,9999,9999,9999,2353155140
8622,3,ISIP_8,66,9999,9999,9999,2353955916
8622,3,ISIP_8,67,9999,9999,9999,2354755648
8622,3,ISIP_8,68,9999,9999,9999,2355555376
8622,3,ISIP_8,69,9999,9999,9999,2356355180
8622,3,ISIP_8,70,9999,9999,9999,2357155952
8622,3,ISIP_8,71,9999,9999,9999,2357955632
8622,3,ISIP_8,72,9999,9999,9999,2358755436
8622,3,ISIP_8,73,9999,9999,9999,2359555168
8622,3,ISIP_8,74,9999,9999,9999,2360355944
8622,3,ISIP_8,75,9999,9999,9999,2361155672
8622,3,ISIP_8,76,9999,9999,9999,2361955396
8622,3,ISIP_8,77,9999,9999,9999,2362755124
8622,3,ISIP_8,78,9999,9999,9999,2363555904
8622,3,ISIP_8,79,9999,9999,9999,2364355652
8622,3,ISIP_8,80,9999,9999,9999,2365155432
8622,3,ISIP_8,81,9999,9999,9999,2365955164
8622,3,ISIP_8,82,9999,9999,9999,2366755944
8622,3,ISIP_8,83,9999,9999,9999,2367555676
8622,3,ISIP_8,84,9999,9999,9999,2368355404
8622,3,ISIP_8,85,9999,9999,9999,2369155132
8622,3,ISIP_8,86,9999,9999,9999,2369955908
8622,3,ISIP_8,87,9999,9999,9999,2370755664
8622,3,ISIP_8,88,9999,9999,9999,2371555392
8622,3,ISIP_8,89,9999,9999,9999,2372355120
8622,3,ISIP_8,90,9999,9999,9999,2373155896
8622,3,ISIP_8,91,9999,9999,9999,2373955700
8622,3,ISIP_8,92,9999,9999,9999,2374755432
8622,3,ISIP_8,93,9999,9999,9999,2375555160
8622,3,ISIP_8,94,9999,9999,9999,2376355936
8622,3,ISIP_8,95,9999,9999,9999,2377155688
8622,3,ISIP_8,96,9999,9999,9999,2377955416
8622,3,ISIP_8,97,9999,9999,9999,2378755148
8622,3,ISIP_8,98,9999,9999,9999,2379555920
8622,3,ISIP_8,99,9999,9999,9999,2380355648
8622,3,ISIP_8,100,9999,9999,9999,2381155380
8622,3,ISIP_8,101,9999,9999,9999,2381955124
8622,3,ISIP_8,102,9999,9999,9999,2382755900
8622,3,ISIP_8,103,9999,9999,9999,2383555660
8622,3,ISIP_8,104,9999,9999,9999,2384355388
8622,3,ISIP_8,105,9999,9999,9999,2385155116
8622,3,ISIP_8,106,9999,9999,9999,2385955892
8622,3,ISIP_8,107,9999,9999,9999,2386755696
8622,3,ISIP_8,108,9999,9999,9999,2387555428
8622,3,ISIP_8,109,9999,9999,9999,2388355156
8622,3,ISIP_8,110,9999,9999,9999,2389155932
8622,3,ISIP_8,111,9999,9999,9999,2389955684
8622,3,ISIP_8,112,9999,9999,9999,2390755416
8622,3,ISIP_8,113,9999,9999,9999,2391555144
8622,3,ISIP_8,114,9999,9999,9999,2392355920
8622,3,ISIP_8,115,9999,9999,9999,2393155648
8622,3,ISIP_8,116,9999,9999,9999,2393955380
8622,3,ISIP_8,117,9999,9999,9999,2394755184
8622,3,ISIP_8,118,9999,9999,9999,2395555956
8622,3,ISIP_8,119,9999,9999,9999,2396355652
8622,3,ISIP_8,120,9999,9999,9999,2397155380
8622,3,ISIP_8,121,9999,9999,9999,2397955192
8622,3,ISIP_8,122,9999,9999,9999,2398755892
8622,3,ISIP_8,123,9999,9999,9999,2399555696
8622,3,ISIP_8,124,9999,9999,9999,2400355424
8622,3,ISIP_8,125,9999,9999,9999,2401155152
8622,3,ISIP_8,126,9999,9999,9999,2401955928
8622,3,ISIP_8,127,9999,9999,9999,2402755684
8622,3,ISIP_8,128,9999,9999,9999,2403555412
8622,3,ISIP_8,129,9999,9999,9999,2404355140
8622,3,ISIP_8,130,9999,9999,9999,2405155916
8622,3,ISIP_8,131,9999,9999,9999,2405955644
8622,3,ISIP_8,132,9999,9999,9999,2406755392
8622,3,ISIP_8,133,9999,9999,9999,2407555128
8622,3,ISIP_8,134,9999,9999,9999,2408355900
8622,3,ISIP_8,135,9999,9999,9999,2409155656
8622,3,ISIP_8,136,9999,9999,9999,2409955384
8622,3,ISIP_8,137,9999,9999,9999,2410755188
8622,3,ISIP_8,138,9999,9999,9999,2411555888
8622,3,ISIP_8,139,9999,9999,9999,2412355696
8622,3,ISIP_8,140,9999,9999,9999,2413155424
8622,3,ISIP_8,141,9999,9999,9999,2413955152
8622,3,ISIP_8,142,9999,9999,9999,2414755928
8622,3,ISIP_8,143,9999,9999,9999,2415555680
8622,3,ISIP_8,144,9999,9999,9999,2416355412
8622,3,ISIP_8,145,9999,9999,9999,2417155140
8622,3,ISIP_8,146,9999,9999,9999,2417955916
8622,3,ISIP_8,147,9999,9999,9999,2418755648
8622,3,ISIP_8,148,9999,9999,9999,2419555376
8622,3,ISIP_8,149,9999,9999,9999,2420355176
8623,11,Pattern_Practice,0,5,42,127,2538282500
8623,11,Pattern_Practice,1,5,42,127,2538782068
8623,11,Pattern_Practice,2,5,42,127,2539281784
8623,11,Pattern_Practice,3,5,42,127,2539781428
8623,11,Pattern_Practice,4,5,42,127,2540282560
8623,11,Pattern_Practice,5,1,48,15,2540388456
8623,11,Pattern_Practice,6,5,42,127,2540781884
8623,11,Pattern_Practice,7,1,48,25,2540872892
8623,11,Pattern_Practice,8,5,42,127,2541281504
8623,11,Pattern_Practice,9,1,38,29,2541435788
8623,11,Pattern_Practice,10,5,42,127,2541782544
8623,11,Pattern_Practice,11,1,38,41,2541919552
8623,11,Pattern_Practice,12,5,42,127,2542282388
8623,11,Pattern_Practice,13,1,48,28,2542380204
8623,11,Pattern_Practice,14,5,42,127,2542781784
8623,11,Pattern_Practice,15,1,48,40,2542881464
8623,11,Pattern_Practice,16,5,42,127,2543281628
8623,11,Pattern_Practice,17,1,38,39,2543352364
8623,11,Pattern_Practice,18,5,42,127,2543782568
8623,11,Pattern_Practice,19,1,38,49,2543861332
8623,11,Pattern_Practice,20,5,42,127,2544281892
8623,11,Pattern_Practice,21,1,48,35,2544378380
8623,11,Pattern_Practice,22,5,42,127,2544781660
8623,11,Pattern_Practice,23,1,48,38,2544838884
8623,11,Pattern_Practice,24,5,42,127,2545282404
8623,11,Pattern_Practice,25,1,38,48,2545305488
8623,11,Pattern_Practice,26,5,42,127,2545782320
8623,11,Pattern_Practice,27,1,38,49,2545818420
8623,11,Pattern_Practice,28,5,42,127,2546281716
8623,11,Pattern_Practice,29,1,48,25,2546293212
8623,11,Pattern_Practice,30,1,38,22,2546780428
8623,11,Pattern_Practice,31,5,42,127,2546782676
8623,11,Pattern_Practice,32,1,48,38,2547252492
8623,11,Pattern_Practice,33,5,42,127,2547282220
8623,11,Pattern_Practice,34,1,38,48,2547727652
8623,11,Pattern_Practice,35,5,42,127,2547781988
8623,11,Pattern_Practice,36,1,48,58,2548251428
8623,11,Pattern_Practice,37,5,42,127,2548281832
8623,11,Pattern_Practice,38,1,38,54,2548773416
8623,11,Pattern_Practice,39,5,42,127,2548781380
8623,11,Pattern_Practice,40,5,42,127,2549282352
8623,11,Pattern_Practice,41,1,38,62,2549323020
8623,11,Pattern_Practice,42,5,42,127,2549781820
8623,11,Pattern_Practice,43,1,38,61,2549832816
8623,11,Pattern_Practice,44,5,42,127,2550281668
8623,11,Pattern_Practice,45,1,48,50,2550325100
8623,11,Pattern_Practice,46,5,42,127,2550782332
8623,11,Pattern_Practice,47,1,48,53,2550846408
8623,11,Pattern_Practice,48,5,42,127,2551281952
8623,11,Pattern_Practice,49,1,38,57,2551330696
8623,11,Pattern_Practice,50,5,42,127,2551781648
8623,11,Pattern_Practice,51,1,38,64,2551861364
8623,11,Pattern_Practice,52,5,42,127,2552281492
8623,11,Pattern_Practice,53,1,48,58,2552368384
8623,11,Pattern_Practice,54,5,42,127,2552782384
8623,11,Pattern_Practice,55,1,48,39,2552899192
8623,11,Pattern_Practice,56,5,42,127,2553281780
8623,11,Pattern_Practice,57,1,38,51,2553320732
8623,11,Pattern_Practice,58,5,42,127,2553781628
8623,11,Pattern_Practice,59,1,38,60,2553812420
8623,11,Pattern_Practice,60,5,42,127,2554282296
8623,11,Pattern_Practice,61,1,48,43,2554334556
8623,11,Pattern_Practice,62,5,42,127,2554782188
8623,11,Pattern_Practice,63,1,48,64,2554821912
8623,11,Pattern_Practice,64,5,42,127,2555281660
8623,11,Pattern_Practice,65,1,38,51,2555288816
8623,11,Pattern_Practice,66,5,42,127,2555781428
8623,11,Pattern_Practice,67,1,38,61,2555789784
8623,11,Pattern_Practice,68,1,48,46,2556257520
8623,11,Pattern_Practice,69,5,42,127,2556282164
8623,11,Pattern_Practice,70,1,48,65,2556773220
8623,11,Pattern_Practice,71,5,42,127,2556782008
8623,11,Pattern_Practice,72,1,38,48,2557238288
8623,11,Pattern_Practice,73,5,42,127,2557281704
8623,11,Pattern_Practice,74,1,38,52,2557722872
8623,11,Pattern_Practice,75,5,42,127,2557782444
8623,11,Pattern_Practice,76,1,48,46,2558192496
8623,11,Pattern_Practice,77,5,42,127,2558282212
8623,11,Pattern_Practice,78,1,38,43,2558710892
8623,11,Pattern_Practice,79,5,42,127,2558781684
8623,11,Pattern_Practice,80,1,48,56,2559210884
8623,11,Pattern_Practice,81,5,42,127,2559281452
8623,11,Pattern_Practice,82,1,38,56,2559729576
8623,11,Pattern_Practice,83,5,42,127,2559782120
8623,11,Pattern_Practice,84,1,48,65,2560250964
8623,11,Pattern_Practice,85,5,42,127,2560282040
8623,11,Pattern_Practice,86,1,48,64,2560673516
8623,11,Pattern_Practice,87,5,42,127,2560781572
8623,11,Pattern_Practice,88,1,48,49,2560930392
8623,11,Pattern_Practice,89,5,42,127,2561282312
8623,11,Pattern_Practice,90,1,38,43,2561378556
8623,11,Pattern_Practice,91,5,42,127,2561782228
8623,11,Pattern_Practice,92,1,48,57,2561824168
8623,11,Pattern_Practice,93,1,38,41,2562233568
8623,11,Pattern_Practice,94,5,42,127,2562281844
8623,11,Pattern_Practice,95,1,48,48,2562743808
8623,11,Pattern_Practice,96,5,42,127,2562781540
8623,11,Pattern_Practice,97,1,38,48,2563235852
8623,11,Pattern_Practice,98,5,42,127,2563282356
8623,11,Pattern_Practice,99,1,48,55,2563779788
8623,11,Pattern_Practice,100,5,42,127,2563782052
8623,11,Pattern_Practice,101,5,42,127,2564281824
8623,11,Pattern_Practice,102,1,38,56,2564298036
8623,11,Pattern_Practice,103,5,42,127,2564781448
8623,11,Pattern_Practice,104,1,48,51,2564795860
8623,11,Pattern_Practice,105,5,42,127,2565282088
8623,11,Pattern_Practice,106,1,38,53,2565311036
8623,11,Pattern_Practice,107,1,48,57,2565758480
8623,11,Pattern_Practice,108,5,42,127,2565781924
8623,11,Pattern_Practice,109,1,38,45,2566253692
8623,11,Pattern_Practice,110,5,42,127,2566281548
8623,11,Pattern_Practice,111,1,38,55,2566779856
8623,11,Pattern_Practice,112,5,42,127,2566782512
8623,11,Pattern_Practice,113,1,38,64,2567228768
8623,11,Pattern_Practice,114,5,42,127,2567282132
8623,11,Pattern_Practice,115,1,48,48,2567775436
8623,11,Pattern_Practice,116,5,42,127,2567781828
8623,11,Pattern_Practice,117,1,38,51,2568247604
8623,11,Pattern_Practice,118,5,42,127,2568281596
8623,11,Pattern_Practice,119,1,38,54,2568730168
8623,11,Pattern_Practice,120,5,42,127,2568782040
8623,11,Pattern_Practice,121,1,48,54,2569258440
8623,11,Pattern_Practice,122,5,42,127,2569282032
8623,11,Pattern_Practice,123,1,38,64,2569767780
8623,11,Pattern_Practice,124,5,42,127,2569781580
8623,11,Pattern_Practice,125,1,38,61,2570270468
8623,11,Pattern_Practice,126,5,42,127,2570282324
8623,11,Pattern_Practice,127,1,48,44,2570762160
8623,11,Pattern_Practice,128,5,42,127,2570781944
8623,11,Pattern_Practice,129,1,38,60,2571233956
8623,11,Pattern_Practice,130,5,42,127,2571282008
8623,11,Pattern_Practice,131,1,38,52,2571753920
8623,11,Pattern_Practice,132,5,42,127,2571781408
8623,11,Pattern_Practice,133,1,48,44,2572279272
8623,11,Pattern_Practice,134,5,42,127,2572282224
8623,11,Pattern_Practice,135,5,42,127,2572782148
8623,11,Pattern_Practice,136,1,38,59,2572819000
8623,11,Pattern_Practice,137,5,42,127,2573281916
8623,11,Pattern_Practice,138,1,38,51,2573326176
8623,11,Pattern_Practice,139,5,42,127,2573782364
8623,11,Pattern_Practice,140,1,48,55,2573800360
8623,11,Pattern_Practice,141,1,38,55,2574252176
8623,11,Pattern_Practice,142,5,42,127,2574282124
8623,11,Pattern_Practice,143,1,38,53,2574716088
8623,11,Pattern_Practice,144,5,42,127,2574781968
8623,11,Pattern_Practice,145,1,48,44,2575266344
8623,11,Pattern_Practice,146,5,42,127,2575281660
8623,11,Pattern_Practice,147,1,48,62,2575770448
8623,11,Pattern_Practice,148,5,42,127,2575782156
8623,11,Pattern_Practice,149,1,38,53,2576269476
8623,11,Pattern_Practice,150,5,42,127,2576282148
8623,11,Pattern_Practice,151,1,38,62,2576749492
8623,11,Pattern_Practice,152,5,42,127,2576781620
8623,11,Pattern_Practice,153,5,42,127,2577282368
8623,11,Pattern_Practice,154,1,48,55,2577305760
8623,11,Pattern_Practice,155,5,42,127,2577782136
8623,11,Pattern_Practice,156,1,48,46,2577807396
8623,11,Pattern_Practice,0,9999,9999,9999,2538279988
8623,11,Pattern_Practice,1,9999,9999,9999,2538779708
8623,11,Pattern_Practice,2,9999,9999,9999,2539279424
8623,11,Pattern_Practice,3,9999,9999,9999,2539779140
8623,11,Pattern_Practice,4,9999,9999,9999,2540279900
8623,11,Pattern_Practice,5,9999,9999,9999,2540779596
8623,11,Pattern_Practice,6,9999,9999,9999,2541279292
8623,11,Pattern_Practice,7,9999,9999,9999,2541780032
8623,11,Pattern_Practice,8,9999,9999,9999,2542279800
8623,11,Pattern_Practice,9,9999,9999,9999,2542779496
8623,11,Pattern_Practice,10,9999,9999,9999,2543279192
8623,11,Pattern_Practice,11,9999,9999,9999,2543779908
8623,11,Pattern_Practice,12,9999,9999,9999,2544279604
8623,11,Pattern_Practice,13,9999,9999,9999,2544779372
8623,11,Pattern_Practice,14,9999,9999,9999,2545280116
8623,11,Pattern_Practice,15,9999,9999,9999,2545779808
8623,11,Pattern_Practice,16,9999,9999,9999,2546279504
8623,11,Pattern_Practice,17,9999,9999,9999,2546779196
8623,11,Pattern_Practice,18,9999,9999,9999,2547279932
8623,11,Pattern_Practice,19,9999,9999,9999,2547779700
8623,11,Pattern_Practice,20,9999,9999,9999,2548279396
8623,11,Pattern_Practice,21,9999,9999,9999,2548779092
8623,11,Pattern_Practice,22,9999,9999,9999,2549279840
8623,11,Pattern_Practice,23,9999,9999,9999,2549779532
8623,11,Pattern_Practice,24,9999,9999,9999,2550279228
8623,11,Pattern_Practice,25,9999,9999,9999,2550779972
8623,11,Pattern_Practice,26,9999,9999,9999,2551279664
8623,11,Pattern_Practice,27,9999,9999,9999,2551779436
8623,11,Pattern_Practice,28,9999,9999,9999,2552279128
8623,11,Pattern_Practice,29,9999,9999,9999,2552779872
8623,11,Pattern_Practice,30,9999,9999,9999,2553279568
8623,11,Pattern_Practice,31,9999,9999,9999,2553779264
8623,11,Pattern_Practice,32,9999,9999,9999,2554280008
8623,11,Pattern_Practice,33,9999,9999,9999,2554779752
8623,11,Pattern_Practice,34,9999,9999,9999,2555279448
8623,11,Pattern_Practice,35,9999,9999,9999,2555779140
8623,11,Pattern_Practice,36,9999,9999,9999,2556279876
8623,11,Pattern_Practice,37,9999,9999,9999,2556779572
8623,11,Pattern_Practice,38,9999,9999,9999,2557279340
8623,11,Pattern_Practice,39,9999,9999,9999,2557780080
8623,11,Pattern_Practice,40,9999,9999,9999,2558279776
8623,11,Pattern_Practice,41,9999,9999,9999,2558779472
8623,11,Pattern_Practice,42,9999,9999,9999,2559279168
8623,11,Pattern_Practice,43,9999,9999,9999,2559779908
8623,11,Pattern_Practice,44,9999,9999,9999,2560279604
8623,11,Pattern_Practice,45,9999,9999,9999,2560779356
8623,11,Pattern_Practice,46,9999,9999,9999,2561280100
8623,11,Pattern_Practice,47,9999,9999,9999,2561779792
8623,11,Pattern_Practice,48,9999,9999,9999,2562279484
8623,11,Pattern_Practice,49,9999,9999,9999,2562779252
8623,11,Pattern_Practice,50,9999,9999,9999,2563279996
8623,11,Pattern_Practice,51,9999,9999,9999,2563779660
8623,11,Pattern_Practice,52,9999,9999,9999,2564279388
8623,11,Pattern_Practice,53,9999,9999,9999,2564779084
8623,11,Pattern_Practice,54,9999,9999,9999,2565279800
8623,11,Pattern_Practice,55,9999,9999,9999,2565779564
8623,11,Pattern_Practice,56,9999,9999,9999,2566279260
8623,11,Pattern_Practice,57,9999,9999,9999,2566780000
8623,11,Pattern_Practice,58,9999,9999,9999,2567279696
8623,11,Pattern_Practice,59,9999,9999,9999,2567779392
8623,11,Pattern_Practice,60,9999,9999,9999,2568279160
8623,11,Pattern_Practice,61,9999,9999,9999,2568779828
8623,11,Pattern_Practice,62,9999,9999,9999,2569279596
8623,11,Pattern_Practice,63,9999,9999,9999,2569779292
8623,11,Pattern_Practice,64,9999,9999,9999,2570280032
8623,11,Pattern_Practice,65,9999,9999,9999,2570779728
8623,11,Pattern_Practice,66,9999,9999,9999,2571279424
8623,11,Pattern_Practice,67,9999,9999,9999,2571779192
8623,11,Pattern_Practice,68,9999,9999,9999,2572279860
8623,11,Pattern_Practice,69,9999,9999,9999,2572779636
8623,11,Pattern_Practice,70,9999,9999,9999,2573279332
8623,11,Pattern_Practice,71,9999,9999,9999,2573780072
8623,11,Pattern_Practice,72,9999,9999,9999,2574279764
8623,11,Pattern_Practice,73,9999,9999,9999,2574779456
8623,11,Pattern_Practice,74,9999,9999,9999,2575279224
8623,11,Pattern_Practice,75,9999,9999,9999,2575779940
8623,11,Pattern_Practice,76,9999,9999,9999,2576279636
8623,11,Pattern_Practice,77,9999,9999,9999,2576779332
8623,11,Pattern_Practice,78,9999,9999,9999,2577280080
8623,11,Pattern_Practice,79,9999,9999,9999,2577779776
8624,13,Improv_Metronome,0,5,42,127,2609216868
8624,13,Improv_Metronome,1,5,42,127,2609716656
8624,13,Improv_Metronome,2,5,42,127,2610217420
8624,13,Improv_Metronome,3,5,42,127,2610716988
8624,13,Improv_Metronome,4,5,42,127,2611216704
8624,13,Improv_Metronome,5,1,38,55,2611238300
8624,13,Improv_Metronome,6,5,42,127,2611716548
8624,13,Improv_Metronome,7,1,38,68,2611744352
8624,13,Improv_Metronome,8,5,42,127,2612217288
8624,13,Improv_Metronome,9,1,48,61,2612267976
8624,13,Improv_Metronome,10,5,42,127,2612716836
8624,13,Improv_Metronome,11,1,48,42,2612754212
8624,13,Improv_Metronome,12,5,42,127,2613216828
8624,13,Improv_Metronome,13,1,38,59,2613266552
8624,13,Improv_Metronome,14,5,42,127,2613717496
8624,13,Improv_Metronome,15,1,38,60,2613771704
8624,13,Improv_Metronome,16,5,42,127,2614217044
8624,13,Improv_Metronome,17,1,38,39,2614271100
8624,13,Improv_Metronome,18,5,42,127,2614716736
8624,13,Improv_Metronome,19,1,38,52,2614734292
8624,13,Improv_Metronome,20,1,48,62,2615190336
8624,13,Improv_Metronome,21,5,42,127,2615216576
8624,13,Improv_Metronome,22,1,48,46,2615653684
8624,13,Improv_Metronome,23,5,42,127,2615717616
8624,13,Improv_Metronome,24,1,48,60,2616149560
8624,13,Improv_Metronome,25,5,42,127,2616217060
8624,13,Improv_Metronome,26,5,42,127,2616716616
8624,13,Improv_Metronome,27,5,42,127,2617217380
8624,13,Improv_Metronome,28,1,38,53,2617356508
8624,13,Improv_Metronome,29,5,42,127,2617717072
8624,13,Improv_Metronome,30,1,38,31,2617810868
8624,13,Improv_Metronome,31,5,42,127,2618216696
8624,13,Improv_Metronome,32,1,48,33,2618329040
8624,13,Improv_Metronome,33,5,42,127,2618716464
8624,13,Improv_Metronome,34,1,48,50,2618813556
8624,13,Improv_Metronome,35,5,42,127,2619217280
8624,13,Improv_Metronome,36,1,38,57,2619312204
8624,13,Improv_Metronome,37,5,42,127,2619716828
8624,13,Improv_Metronome,38,1,38,62,2619798560
8624,13,Improv_Metronome,39,5,42,127,2620216744
8624,13,Improv_Metronome,40,1,38,48,2620282024
8624,13,Improv_Metronome,41,5,42,127,2620717412
8624,13,Improv_Metronome,42,1,38,42,2620785008
8624,13,Improv_Metronome,43,5,42,127,2621217256
8624,13,Improv_Metronome,44,1,48,38,2621258444
8624,13,Improv_Metronome,45,5,42,127,2621716800
8624,13,Improv_Metronome,46,1,48,50,2621752228
8624,13,Improv_Metronome,47,1,38,48,2622204784
8624,13,Improv_Metronome,48,5,42,127,2622216712
8624,13,Improv_Metronome,49,1,38,64,2622671268
8624,13,Improv_Metronome,50,5,42,127,2622717228
8624,13,Improv_Metronome,51,1,48,63,2623162060
8624,13,Improv_Metronome,52,5,42,127,2623216996
8624,13,Improv_Metronome,53,1,48,72,2623699008
8624,13,Improv_Metronome,54,5,42,127,2623716616
8624,13,Improv_Metronome,55,1,38,58,2624193164
8624,13,Improv_Metronome,56,5,42,127,2624216608
8624,13,Improv_Metronome,57,1,38,59,2624660220
8624,13,Improv_Metronome,58,5,42,127,2624717352
8624,13,Improv_Metronome,59,1,48,63,2625206164
8624,13,Improv_Metronome,60,5,42,127,2625216748
8624,13,Improv_Metronome,61,1,48,59,2625711992
8624,13,Improv_Metronome,62,5,42,127,2625716520
8624,13,Improv_Metronome,63,1,38,59,2626208448
8624,13,Improv_Metronome,64,5,42,127,2626217408
8624,13,Improv_Metronome,65,1,38,66,2626672536
8624,13,Improv_Metronome,66,5,42,127,2626717004
8624,13,Improv_Metronome,67,1,48,67,2627164384
8624,13,Improv_Metronome,68,5,42,127,2627216624
8624,13,Improv_Metronome,69,1,38,61,2627649336
8624,13,Improv_Metronome,70,5,42,127,2627716396
8624,13,Improv_Metronome,71,1,48,52,2628193908
8624,13,Improv_Metronome,72,5,42,127,2628217276
8624,13,Improv_Metronome,73,1,38,67,2628707136
8624,13,Improv_Metronome,74,5,42,127,2628716972
8624,13,Improv_Metronome,75,1,48,64,2629201004
8624,13,Improv_Metronome,76,5,42,127,2629216592
8624,13,Improv_Metronome,77,1,48,66,2629710344
8624,13,Improv_Metronome,78,5,42,127,2629717408
8624,13,Improv_Metronome,79,1,38,69,2630181688
8624,13,Improv_Metronome,80,5,42,127,2630217104
8624,13,Improv_Metronome,81,1,38,63,2630657224
8624,13,Improv_Metronome,82,5,42,127,2630716648
8624,13,Improv_Metronome,83,5,42,127,2631216424
8624,13,Improv_Metronome,84,1,48,77,2631222388
8624,13,Improv_Metronome,85,1,38,56,2631710772
8624,13,Improv_Metronome,86,5,42,127,2631717308
8624,13,Improv_Metronome,87,1,48,66,2632215348
8624,13,Improv_Metronome,88,5,42,127,2632216856
8624,13,Improv_Metronome,89,5,42,127,2632716704
8624,13,Improv_Metronome,90,1,38,44,2632720272
8624,13,Improv_Metronome,91,5,42,127,2633217448
8624,13,Improv_Metronome,92,1,48,69,2633240616
8624,13,Improv_Metronome,93,5,42,127,2633717140
8624,13,Improv_Metronome,94,1,48,69,2633724976
8624,13,Improv_Metronome,95,1,38,66,2634186276
8624,13,Improv_Metronome,96,5,42,127,2634216680
8624,13,Improv_Metronome,97,1,38,55,2634637332
8624,13,Improv_Metronome,98,5,42,127,2634716520
8624,13,Improv_Metronome,99,5,42,127,2635217420
8624,13,Improv_Metronome,100,1,48,71,2635219060
8624,13,Improv_Metronome,101,5,42,127,2635717336
8624,13,Improv_Metronome,102,1,38,71,2635782692
8624,13,Improv_Metronome,103,1,48,71,2636201060
8624,13,Improv_Metronome,104,5,42,127,2636216652
8624,13,Improv_Metronome,105,1,38,62,2636688464
8624,13,Improv_Metronome,106,5,42,127,2636717392
8624,13,Improv_Metronome,107,1,48,54,2637181500
8624,13,Improv_Metronome,108,5,42,127,2637217288
8624,13,Improv_Metronome,109,1,38,75,2637710964
8624,13,Improv_Metronome,110,5,42,127,2637717132
8624,13,Improv_Metronome,111,1,38,74,2638178872
8624,13,Improv_Metronome,112,5,42,127,2638216456
8624,13,Improv_Metronome,113,5,42,127,2638717276
8624,13,Improv_Metronome,114,1,48,66,2638718244
8624,13,Improv_Metronome,115,5,42,127,2639217196
8624,13,Improv_Metronome,116,1,38,67,2639260480
8624,13,Improv_Metronome,117,5,42,127,2639716668
8624,13,Improv_Metronome,118,1,48,59,2639785184
8624,13,Improv_Metronome,119,5,42,127,2640216360
8624,13,Improv_Metronome,120,1,38,65,2640228152
8624,13,Improv_Metronome,121,5,42,127,2640717324
8624,13,Improv_Metronome,122,1,48,63,2640724708
8624,13,Improv_Metronome,123,5,42,127,2641217168
8624,13,Improv_Metronome,124,1,38,66,2641243104
8624,13,Improv_Metronome,125,1,48,65,2641711516
8624,13,Improv_Metronome,126,5,42,127,2641716560
8624,13,Improv_Metronome,127,5,42,127,2642217308
8624,13,Improv_Metronome,128,1,48,67,2642245036
8624,13,Improv_Metronome,129,5,42,127,2642717224
8624,13,Improv_Metronome,130,1,38,64,2642743160
8624,13,Improv_Metronome,131,5,42,127,2643216700
8624,13,Improv_Metronome,132,1,48,63,2643270528
8624,13,Improv_Metronome,133,5,42,127,2643716396
8624,13,Improv_Metronome,134,1,48,46,2643786380
8624,13,Improv_Metronome,135,5,42,127,2644217136
8624,13,Improv_Metronome,136,1,38,70,2644247780
8624,13,Improv_Metronome,137,1,48,64,2644656428
8624,13,Improv_Metronome,138,5,42,127,2644717196
8624,13,Improv_Metronome,139,1,48,59,2645195020
8624,13,Improv_Metronome,140,5,42,127,2645216592
8624,13,Improv_Metronome,141,5,42,127,2645717340
8624,13,Improv_Metronome,142,1,38,64,2645720236
8624,13,Improv_Metronome,143,1,48,69,2646190064
8624,13,Improv_Metronome,144,5,42,127,2646217028
8624,13,Improv_Metronome,145,1,38,69,2646660344
8624,13,Improv_Metronome,146,5,42,127,2646716944
8624,13,Improv_Metronome,147,1,48,65,2647205832
8624,13,Improv_Metronome,148,5,42,127,2647216344
8624,13,Improv_Metronome,149,5,42,127,2647717240
8624,13,Improv_Metronome,150,1,38,80,2647745340
8624,13,Improv_Metronome,151,5,42,127,2648217132
8624,13,Improv_Metronome,152,1,48,66,2648239428
8624,13,Improv_Metronome,153,1,38,58,2648686568
8624,13,Improv_Metronome,154,5,42,127,2648716748
8624,13,Improv_Metronome,155,5,42,127,2649217348
8624,13,Improv_Metronome,156,1,48,65,2649294920
8624,13,Improv_Metronome,157,5,42,127,2649717116
8624,13,Improv_Metronome,158,1,38,67,2649747540
8624,13,Improv_Metronome,159,5,42,127,2650216960
8624,13,Improv_Metronome,160,1,38,47,2650222100
8624,13,Improv_Metronome,161,5,42,127,2650716432
8624,13,Improv_Metronome,162,1,38,57,2650740268
8624,13,Improv_Metronome,163,5,42,127,2651217172
8624,13,Improv_Metronome,164,1,38,63,2651257168
8624,13,Improv_Metronome,165,1,38,56,2651705460
8624,13,Improv_Metronome,166,5,42,127,2651716936
8624,13,Improv_Metronome,167,5,42,127,2652216708
8624,13,Improv_Metronome,168,1,48,63,2652242716
8624,13,Improv_Metronome,169,5,42,127,2652717376
8624,13,Improv_Metronome,170,1,48,57,2652804272
8624,13,Improv_Metronome,171,5,42,127,2653217072
8624,13,Improv_Metronome,172,1,48,56,2653307776
8624,13,Improv_Metronome,173,5,42,127,2653716916
8624,13,Improv_Metronome,174,1,48,70,2653812412
8624,13,Improv_Metronome,175,5,42,127,2654216612
8624,13,Improv_Metronome,176,1,38,65,2654266704
8624,13,Improv_Metronome,177,1,48,52,2654714692
8624,13,Improv_Metronome,178,5,42,127,2654717272
8624,13,Improv_Metronome,179,5,42,127,2655216976
8624,13,Improv_Metronome,180,1,38,72,2655218312
8624,13,Improv_Metronome,181,5,42,127,2655716820
8624,13,Improv_Metronome,182,1,48,65,2655721664
8624,13,Improv_Metronome,183,1,38,56,2656182444
8624,13,Improv_Metronome,184,5,42,127,2656216360
8624,13,Improv_Metronome,185,5,42,127,2656717108
8624,13,Improv_Metronome,186,1,48,66,2656759344
8624,13,Improv_Metronome,187,5,42,127,2657216876
8624,13,Improv_Metronome,188,1,48,66,2657245356
8624,13,Improv_Metronome,189,1,38,63,2657706880
8624,13,Improv_Metronome,190,5,42,127,2657716712
8624,13,Improv_Metronome,191,1,48,80,2658195256
8624,13,Improv_Metronome,192,5,42,127,2658217308
8624,13,Improv_Metronome,193,5,42,127,2658717204
8624,13,Improv_Metronome,194,1,38,53,2658726632
8624,13,Improv_Metronome,195,5,42,127,2659216824
8624,13,Improv_Metronome,196,1,48,50,2659244060
8624,13,Improv_Metronome,197,5,42,127,2659716372
8624,13,Improv_Metronome,198,1,48,48,2659724200
8624,13,Improv_Metronome,199,5,42,127,2660217184
8624,13,Improv_Metronome,200,1,38,59,2660269696
8624,13,Improv_Metronome,201,1,48,63,2660685952
8624,13,Improv_Metronome,202,5,42,127,2660716876
8624,13,Improv_Metronome,203,1,48,73,2661196868
8624,13,Improv_Metronome,204,5,42,127,2661216792
8624,13,Improv_Metronome,205,1,38,69,2661682500
8624,13,Improv_Metronome,206,5,42,127,2661717460
8624,13,Improv_Metronome,207,5,42,127,2662216940
8624,13,Improv_Metronome,208,1,48,59,2662230532
8624,13,Improv_Metronome,209,5,42,127,2662716708
8624,13,Improv_Metronome,210,1,48,73,2662731196
8624,13,Improv_Metronome,211,1,38,79,2663134608
8624,13,Improv_Metronome,212,5,42,127,2663216620
8624,13,Improv_Metronome,213,5,42,127,2663717220
8624,13,Improv_Metronome,214,1,38,55,2663724156
8624,13,Improv_Metronome,215,5,42,127,2664216916
8624,13,Improv_Metronome,216,1,38,61,2664221756
8624,13,Improv_Metronome,217,5,42,127,2664716760
8624,13,Improv_Metronome,218,1,38,57,2664726536
8624,13,Improv_Metronome,219,5,42,127,2665217500
8624,13,Improv_Metronome,220,1,38,59,2665266548
8624,13,Improv_Metronome,221,5,42,127,2665717196
8624,13,Improv_Metronome,222,1,38,63,2665767584
8624,13,Improv_Metronome,223,5,42,127,2666216892
8624,13,Improv_Metronome,224,1,48,68,2666286880
8624,13,Improv_Metronome,225,5,42,127,2666716736
8624,13,Improv_Metronome,226,1,48,59,2666771692
8624,13,Improv_Metronome,227,5,42,127,2667217252
8624,13,Improv_Metronome,228,1,38,72,2667261212
8624,13,Improv_Metronome,229,5,42,127,2667717096
8624,13,Improv_Metronome,230,1,48,75,2667809448
8624,13,Improv_Metronome,231,1,38,77,2668216864
8624,13,Improv_Metronome,232,5,42,127,2668219176
8624,13,Improv_Metronome,233,5,42,127,2668717384
8624,13,Improv_Metronome,234,1,48,56,2668738452
8624,13,Improv_Metronome,235,1,38,67,2669185820
8624,13,Improv_Metronome,236,5,42,127,2669217048
8624,13,Improv_Metronome,237,1,38,65,2669644600
8624,13,Improv_Metronome,238,5,42,127,2669716816
8624,13,Improv_Metronome,239,1,48,76,2670153948
8624,13,Improv_Metronome,240,5,42,127,2670216732
8624,13,Improv_Metronome,241,1,38,71,2670604872
8624,13,Improv_Metronome,242,5,42,127,2670717236
8624,13,Improv_Metronome,243,1,48,55,2671154236
8624,13,Improv_Metronome,244,5,42,127,2671216944
8624,13,Improv_Metronome,245,1,38,62,2671666640
8624,13,Improv_Metronome,246,5,42,127,2671716716
8624,13,Improv_Metronome,247,1,48,70,2672214672
8624,13,Improv_Metronome,248,5,42,127,2672216336
8624,13,Improv_Metronome,249,1,48,73,2672702080
8624,13,Improv_Metronome,250,5,42,127,2672717224
8624,13,Improv_Metronome,251,1,38,69,2673195048
8624,13,Improv_Metronome,252,5,42,127,2673216772
8624,13,Improv_Metronome,253,1,48,70,2673702144
8624,13,Improv_Metronome,254,5,42,127,2673716688
8624,13,Improv_Metronome,255,5,42,127,2674217364
8624,13,Improv_Metronome,256,1,38,51,2674239032
8624,13,Improv_Metronome,257,5,42,127,2674716908
8624,13,Improv_Metronome,258,1,48,73,2674717872
8624,13,Improv_Metronome,259,5,42,127,2675216680
8624,13,Improv_Metronome,260,1,38,59,2675238272
8624,13,Improv_Metronome,261,1,48,66,2675698600
8624,13,Improv_Metronome,262,5,42,127,2675716516
8624,13,Improv_Metronome,263,5,42,127,2676217412
8624,13,Improv_Metronome,264,1,48,78,2676232052
8624,13,Improv_Metronome,265,1,38,73,2676705848
8624,13,Improv_Metronome,266,5,42,127,2676717100
8624,13,Improv_Metronome,267,1,48,80,2677195296
8624,13,Improv_Metronome,268,5,42,127,2677216720
8624,13,Improv_Metronome,269,1,48,77,2677687584
8624,13,Improv_Metronome,270,5,42,127,2677717388
8624,13,Improv_Metronome,271,1,38,63,2678172668
8624,13,Improv_Metronome,272,5,42,127,2678217008
8624,13,Improv_Metronome,273,1,48,64,2678675508
8624,13,Improv_Metronome,274,5,42,127,2678716700
8624,13,Improv_Metronome,275,1,48,75,2679179908
8624,13,Improv_Metronome,0,9999,9999,9999,2609214580
8624,13,Improv_Metronome,1,9999,9999,9999,2609714296
8624,13,Improv_Metronome,2,9999,9999,9999,2610214984
8624,13,Improv_Metronome,3,9999,9999,9999,2610714700
8624,13,Improv_Metronome,4,9999,9999,9999,2611214420
8624,13,Improv_Metronome,5,9999,9999,9999,2611714116
8624,13,Improv_Metronome,6,9999,9999,9999,2612214856
8624,13,Improv_Metronome,7,9999,9999,9999,2612714548
8624,13,Improv_Metronome,8,9999,9999,9999,2613214320
8624,13,Improv_Metronome,9,9999,9999,9999,2613715060
8624,13,Improv_Metronome,10,9999,9999,9999,2614214756
8624,13,Improv_Metronome,11,9999,9999,9999,2614714452
8624,13,Improv_Metronome,12,9999,9999,9999,2615214140
8624,13,Improv_Metronome,13,9999,9999,9999,2615714932
8624,13,Improv_Metronome,14,9999,9999,9999,2616214628
8624,13,Improv_Metronome,15,9999,9999,9999,2616714328
8624,13,Improv_Metronome,16,9999,9999,9999,2617215092
8624,13,Improv_Metronome,17,9999,9999,9999,2617714788
8624,13,Improv_Metronome,18,9999,9999,9999,2618214484
8624,13,Improv_Metronome,19,9999,9999,9999,2618714176
8624,13,Improv_Metronome,20,9999,9999,9999,2619214920
8624,13,Improv_Metronome,21,9999,9999,9999,2619714616
8624,13,Improv_Metronome,22,9999,9999,9999,2620214384
8624,13,Improv_Metronome,23,9999,9999,9999,2620715124
8624,13,Improv_Metronome,24,9999,9999,9999,2621214820
8624,13,Improv_Metronome,25,9999,9999,9999,2621714512
8624,13,Improv_Metronome,26,9999,9999,9999,2622214200
8624,13,Improv_Metronome,27,9999,9999,9999,2622714940
8624,13,Improv_Metronome,28,9999,9999,9999,2623214712
8624,13,Improv_Metronome,29,9999,9999,9999,2623714404
8624,13,Improv_Metronome,30,9999,9999,9999,2624214100
8624,13,Improv_Metronome,31,9999,9999,9999,2624714840
8624,13,Improv_Metronome,32,9999,9999,9999,2625214536
8624,13,Improv_Metronome,33,9999,9999,9999,2625714232
8624,13,Improv_Metronome,34,9999,9999,9999,2626214972
8624,13,Improv_Metronome,35,9999,9999,9999,2626714716
8624,13,Improv_Metronome,36,9999,9999,9999,2627214412
8624,13,Improv_Metronome,37,9999,9999,9999,2627714108
8624,13,Improv_Metronome,38,9999,9999,9999,2628214840
8624,13,Improv_Metronome,39,9999,9999,9999,2628714612
8624,13,Improv_Metronome,40,9999,9999,9999,2629214308
8624,13,Improv_Metronome,41,9999,9999,9999,2629715048
8624,13,Improv_Metronome,42,9999,9999,9999,2630214744
8624,13,Improv_Metronome,43,9999,9999,9999,2630714436
8624,13,Improv_Metronome,44,9999,9999,9999,2631214136
8624,13,Improv_Metronome,45,9999,9999,9999,2631714872
8624,13,Improv_Metronome,46,9999,9999,9999,2632214576
8624,13,Improv_Metronome,47,9999,9999,9999,2632714344
8624,13,Improv_Metronome,48,9999,9999,9999,2633215084
8624,13,Improv_Metronome,49,9999,9999,9999,2633714780
8624,13,Improv_Metronome,50,9999,9999,9999,2634214468
8624,13,Improv_Metronome,51,9999,9999,9999,2634714160
8624,13,Improv_Metronome,52,9999,9999,9999,2635214908
8624,13,Improv_Metronome,53,9999,9999,9999,2635714680
8624,13,Improv_Metronome,54,9999,9999,9999,2636214364
8624,13,Improv_Metronome,55,9999,9999,9999,2636715108
8624,13,Improv_Metronome,56,9999,9999,9999,2637214776
8624,13,Improv_Metronome,57,9999,9999,9999,2637714548
8624,13,Improv_Metronome,58,9999,9999,9999,2638214244
8624,13,Improv_Metronome,59,9999,9999,9999,2638714992
8624,13,Improv_Metronome,60,9999,9999,9999,2639214684
8624,13,Improv_Metronome,61,9999,9999,9999,2639714380
8624,13,Improv_Metronome,62,9999,9999,9999,2640214076
8624,13,Improv_Metronome,63,9999,9999,9999,2640714816
8624,13,Improv_Metronome,64,9999,9999,9999,2641214584
8624,13,Improv_Metronome,65,9999,9999,9999,2641714272
8624,13,Improv_Metronome,66,9999,9999,9999,2642215020
8624,13,Improv_Metronome,67,9999,9999,9999,2642714716
8624,13,Improv_Metronome,68,9999,9999,9999,2643214412
8624,13,Improv_Metronome,69,9999,9999,9999,2643714108
8624,13,Improv_Metronome,70,9999,9999,9999,2644214848
8624,13,Improv_Metronome,71,9999,9999,9999,2644714612
8624,13,Improv_Metronome,72,9999,9999,9999,2645214308
8624,13,Improv_Metronome,73,9999,9999,9999,2645715052
8624,13,Improv_Metronome,74,9999,9999,9999,2646214744
8624,13,Improv_Metronome,75,9999,9999,9999,2646714436
8624,13,Improv_Metronome,76,9999,9999,9999,2647214132
8624,13,Improv_Metronome,77,9999,9999,9999,2647714928
8624,13,Improv_Metronome,78,9999,9999,9999,2648214624
8624,13,Improv_Metronome,79,9999,9999,9999,2648714312
8624,13,Improv_Metronome,80,9999,9999,9999,2649215064
8624,13,Improv_Metronome,81,9999,9999,9999,2649714756
8624,13,Improv_Metronome,82,9999,9999,9999,2650214452
8624,13,Improv_Metronome,83,9999,9999,9999,2650714220
8624,13,Improv_Metronome,84,9999,9999,9999,2651214960
8624,13,Improv_Metronome,85,9999,9999,9999,2651714648
8624,13,Improv_Metronome,86,9999,9999,9999,2652214348
8624,13,Improv_Metronome,87,9999,9999,9999,2652715092
8624,13,Improv_Metronome,88,9999,9999,9999,2653214784
8624,13,Improv_Metronome,89,9999,9999,9999,2653714480
8624,13,Improv_Metronome,90,9999,9999,9999,2654214252
8624,13,Improv_Metronome,91,9999,9999,9999,2654714984
8624,13,Improv_Metronome,92,9999,9999,9999,2655214688
8624,13,Improv_Metronome,93,9999,9999,9999,2655714384
8624,13,Improv_Metronome,94,9999,9999,9999,2656214072
8624,13,Improv_Metronome,95,9999,9999,9999,2656714820
8624,13,Improv_Metronome,96,9999,9999,9999,2657214516
8624,13,Improv_Metronome,97,9999,9999,9999,2657714280
8624,13,Improv_Metronome,98,9999,9999,9999,2658215020
8624,13,Improv_Metronome,99,9999,9999,9999,2658714696
8624,13,Improv_Metronome,100,9999,9999,9999,2659214392
8624,13,Improv_Metronome,101,9999,9999,9999,2659714160
8624,13,Improv_Metronome,102,9999,9999,9999,2660214900
8624,13,Improv_Metronome,103,9999,9999,9999,2660714588
8624,13,Improv_Metronome,104,9999,9999,9999,2661214284
8624,13,Improv_Metronome,105,9999,9999,9999,2661715028
8624,13,Improv_Metronome,106,9999,9999,9999,2662214728
8624,13,Improv_Metronome,107,9999,9999,9999,2662714424
8624,13,Improv_Metronome,108,9999,9999,9999,2663214184
8624,13,Improv_Metronome,109,9999,9999,9999,2663714936
8624,13,Improv_Metronome,110,9999,9999,9999,2664214628
8624,13,Improv_Metronome,111,9999,9999,9999,2664714324
8624,13,Improv_Metronome,112,9999,9999,9999,2665215064
8624,13,Improv_Metronome,113,9999,9999,9999,2665714760
8624,13,Improv_Metronome,114,9999,9999,9999,2666214456
8624,13,Improv_Metronome,115,9999,9999,9999,2666714224
8624,13,Improv_Metronome,116,9999,9999,9999,2667214968
8624,13,Improv_Metronome,117,9999,9999,9999,2667714664
8624,13,Improv_Metronome,118,9999,9999,9999,2668214356
8624,13,Improv_Metronome,119,9999,9999,9999,2668715096
8624,13,Improv_Metronome,120,9999,9999,9999,2669214836
8624,13,Improv_Metronome,121,9999,9999,9999,2669714528
8624,13,Improv_Metronome,122,9999,9999,9999,2670214224
8624,13,Improv_Metronome,123,9999,9999,9999,2670714948
8624,13,Improv_Metronome,124,9999,9999,9999,2671214660
8624,13,Improv_Metronome,125,9999,9999,9999,2671714356
8624,13,Improv_Metronome,126,9999,9999,9999,2672214072
8624,13,Improv_Metronome,127,9999,9999,9999,2672714864
8624,13,Improv_Metronome,128,9999,9999,9999,2673214560
8624,13,Improv_Metronome,129,9999,9999,9999,2673714252
8624,13,Improv_Metronome,130,9999,9999,9999,2674215000
8624,13,Improv_Metronome,131,9999,9999,9999,2674714696
8624,13,Improv_Metronome,132,9999,9999,9999,2675214392
8624,13,Improv_Metronome,133,9999,9999,9999,2675714156
8624,13,Improv_Metronome,134,9999,9999,9999,2676214904
8624,13,Improv_Metronome,135,9999,9999,9999,2676714592
8624,13,Improv_Metronome,136,9999,9999,9999,2677214288
8624,13,Improv_Metronome,137,9999,9999,9999,2677715028
8624,13,Improv_Metronome,138,9999,9999,9999,2678214724
8624,13,Improv_Metronome,139,9999,9999,9999,2678714416
8625,14,Improv_Melody,0,2,48,80,2740409732
8625,14,Improv_Melody,1,2,72,80,2740412480
8625,14,Improv_Melody,2,5,42,127,2740413964
8625,14,Improv_Melody,3,5,42,110,2740907552
8625,14,Improv_Melody,4,5,42,110,2741407340
8625,14,Improv_Melody,5,5,42,110,2741906740
8625,14,Improv_Melody,6,5,42,127,2742406536
8625,14,Improv_Melody,7,5,42,110,2742907304
8625,14,Improv_Melody,8,5,42,110,2743406876
8625,14,Improv_Melody,9,5,42,110,2743906748
8625,14,Improv_Melody,10,2,43,80,2744409868
8625,14,Improv_Melody,11,2,67,80,2744411948
8625,14,Improv_Melody,12,5,42,127,2744414712
8625,14,Improv_Melody,13,5,42,110,2744907104
8625,14,Improv_Melody,14,5,42,110,2745406824
8625,14,Improv_Melody,15,5,42,110,2745906692
8625,14,Improv_Melody,16,5,42,127,2746407464
8625,14,Improv_Melody,17,5,42,110,2746906888
8625,14,Improv_Melody,18,5,42,110,2747406756
8625,14,Improv_Melody,19,5,42,110,2747906628
8625,14,Improv_Melody,20,2,45,80,2748409680
8625,14,Improv_Melody,21,2,69,80,2748411680
8625,14,Improv_Melody,22,5,42,127,2748414072
8625,14,Improv_Melody,23,5,42,110,2748906836
8625,14,Improv_Melody,24,5,42,110,2749406556
8625,14,Improv_Melody,25,5,42,110,2749907400
8625,14,Improv_Melody,26,5,42,127,2750407048
8625,14,Improv_Melody,27,5,42,110,2750906768
8625,14,Improv_Melody,28,5,42,110,2751406564
8625,14,Improv_Melody,29,5,42,110,2751907108
8625,14,Improv_Melody,30,2,41,80,2752409460
8625,14,Improv_Melody,31,2,65,80,2752411532
8625,14,Improv_Melody,32,5,42,127,2752414000
8625,14,Improv_Melody,33,5,42,110,2752906516
8625,14,Improv_Melody,34,5,42,110,2753407432
8625,14,Improv_Melody,35,5,42,110,2753907004
8625,14,Improv_Melody,36,5,42,127,2754406728
8625,14,Improv_Melody,37,5,42,110,2754906524
8625,14,Improv_Melody,38,5,42,110,2755407292
8625,14,Improv_Melody,39,5,42,110,2755906864
8625,14,Improv_Melody,40,2,48,80,2756409088
8625,14,Improv_Melody,41,2,72,80,2756411316
8625,14,Improv_Melody,42,5,42,127,2756413856
8625,14,Improv_Melody,43,5,42,110,2756907368
8625,14,Improv_Melody,44,5,42,110,2757406940
8625,14,Improv_Melody,45,5,42,110,2757906664
8625,14,Improv_Melody,46,5,42,127,2758406460
8625,14,Improv_Melody,47,5,42,110,2758907376
8625,14,Improv_Melody,48,5,42,110,2759407020
8625,14,Improv_Melody,49,5,42,110,2759906596
8625,14,Improv_Melody,50,2,43,80,2760409792
8625,14,Improv_Melody,51,2,67,80,2760412172
8625,14,Improv_Melody,52,5,42,127,2760414632
8625,14,Improv_Melody,53,1,38,28,2760438244
8625,14,Improv_Melody,54,5,42,110,2760907300
8625,14,Improv_Melody,55,1,38,38,2760910272
8625,14,Improv_Melody,56,5,42,110,2761406776
8625,14,Improv_Melody,57,1,38,41,2761441688
8625,14,Improv_Melody,58,1,38,41,2761899180
8625,14,Improv_Melody,59,5,42,110,2761906400
8625,14,Improv_Melody,60,5,42,127,2762407152
8625,14,Improv_Melody,61,1,38,43,2762455524
8625,14,Improv_Melody,62,5,42,110,2762906980
8625,14,Improv_Melody,63,1,38,43,2762920296
8625,14,Improv_Melody,64,5,42,110,2763406604
8625,14,Improv_Melody,65,1,38,29,2763414136
8625,14,Improv_Melody,66,5,42,110,2763906376
8625,14,Improv_Melody,67,1,38,32,2763940188
8625,14,Improv_Melody,68,2,45,80,2764409776
8625,14,Improv_Melody,69,2,69,80,2764412008
8625,14,Improv_Melody,70,5,42,127,2764414468
8625,14,Improv_Melody,71,1,48,36,2764424544
8625,14,Improv_Melody,72,5,42,110,2764906836
8625,14,Improv_Melody,73,1,48,35,2764913024
8625,14,Improv_Melody,74,5,42,110,2765406460
8625,14,Improv_Melody,75,1,48,41,2765441444
8625,14,Improv_Melody,76,1,48,36,2765906224
8625,14,Improv_Melody,77,5,42,110,2765907644
8625,14,Improv_Melody,78,5,42,127,2766407204
8625,14,Improv_Melody,79,1,48,26,2766462384
8625,14,Improv_Melody,80,5,42,110,2766906684
8625,14,Improv_Melody,81,1,48,27,2766923792
8625,14,Improv_Melody,82,1,48,29,2767390928
8625,14,Improv_Melody,83,5,42,110,2767406448
8625,14,Improv_Melody,84,5,42,110,2767907128
8625,14,Improv_Melody,85,1,48,30,2767914436
8625,14,Improv_Melody,86,2,41,80,2768409328
8625,14,Improv_Melody,87,2,65,80,2768411484
8625,14,Improv_Melody,88,5,42,127,2768414100
8625,14,Improv_Melody,89,1,48,50,2768462244
8625,14,Improv_Melody,90,5,42,110,2768906468
8625,14,Improv_Melody,91,1,48,32,2768937484
8625,14,Improv_Melody,92,1,48,43,2769389964
8625,14,Improv_Melody,93,5,42,110,2769407280
8625,14,Improv_Melody,94,1,48,37,2769842320
8625,14,Improv_Melody,95,5,42,110,2769907204
8625,14,Improv_Melody,96,1,48,51,2770386444
8625,14,Improv_Melody,97,5,42,127,2770406828
8625,14,Improv_Melody,98,1,48,38,2770882404
8625,14,Improv_Melody,99,5,42,110,2770906380
8625,14,Improv_Melody,100,1,48,47,2771393176
8625,14,Improv_Melody,101,5,42,110,2771407276
8625,14,Improv_Melody,102,1,48,56,2771893628
8625,14,Improv_Melody,103,5,42,110,2771907200
8625,14,Improv_Melody,104,2,48,80,2772409188
8625,14,Improv_Melody,105,2,72,80,2772411264
8625,14,Improv_Melody,106,5,42,127,2772413956
8625,14,Improv_Melody,107,1,38,44,2772498900
8625,14,Improv_Melody,108,5,42,110,2772907592
8625,14,Improv_Melody,109,5,42,110,2773407392
8625,14,Improv_Melody,110,1,48,51,2773437212
8625,14,Improv_Melody,111,1,48,48,2773852116
8625,14,Improv_Melody,112,5,42,110,2773906760
8625,14,Improv_Melody,113,1,48,48,2774375080
8625,14,Improv_Melody,114,5,42,127,2774406460
8625,14,Improv_Melody,115,5,42,110,2774907216
8625,14,Improv_Melody,116,1,48,48,2774933444
8625,14,Improv_Melody,117,5,42,110,2775407136
8625,14,Improv_Melody,118,1,48,48,2775413396
8625,14,Improv_Melody,119,5,42,110,2775906612
8625,14,Improv_Melody,120,1,48,46,2775924168
8625,14,Improv_Melody,121,2,43,80,2776410092
8625,14,Improv_Melody,122,2,67,80,2776412092
8625,14,Improv_Melody,123,5,42,127,2776414408
8625,14,Improv_Melody,124,1,38,45,2776423736
8625,14,Improv_Melody,125,5,42,110,2776907220
8625,14,Improv_Melody,126,1,48,46,2776934052
8625,14,Improv_Melody,127,1,48,45,2777400968
8625,14,Improv_Melody,128,5,42,110,2777407212
8625,14,Improv_Melody,129,5,42,110,2777906548
8625,14,Improv_Melody,130,1,48,40,2777947140
8625,14,Improv_Melody,131,1,48,50,2778351824
8625,14,Improv_Melody,132,5,42,127,2778407136
8625,14,Improv_Melody,133,1,48,46,2778839704
8625,14,Improv_Melody,134,5,42,110,2778907208
8625,14,Improv_Melody,135,1,48,52,2779380240
8625,14,Improv_Melody,136,5,42,110,2779406984
8625,14,Improv_Melody,137,5,42,110,2779906316
8625,14,Improv_Melody,138,1,48,49,2779983784
8625,14,Improv_Melody,139,2,45,80,2780409716
8625,14,Improv_Melody,140,2,69,80,2780411792
8625,14,Improv_Melody,141,5,42,127,2780414184
8625,14,Improv_Melody,142,1,38,53,2780467112
8625,14,Improv_Melody,143,1,48,27,2780895436
8625,14,Improv_Melody,144,5,42,110,2780907068
8625,14,Improv_Melody,145,5,42,110,2781406552
8625,14,Improv_Melody,146,1,48,50,2781414908
8625,14,Improv_Melody,147,1,48,51,2781893564
8625,14,Improv_Melody,148,5,42,110,2781907292
8625,14,Improv_Melody,149,1,48,45,2782393188
8625,14,Improv_Melody,150,5,42,127,2782407140
8625,14,Improv_Melody,151,1,48,50,2782887652
8625,14,Improv_Melody,152,5,42,110,2782906916
8625,14,Improv_Melody,153,1,48,35,2783398420
8625,14,Improv_Melody,154,5,42,110,2783406392
8625,14,Improv_Melody,155,1,48,55,2783875660
8625,14,Improv_Melody,156,5,42,110,2783907136
8625,14,Improv_Melody,157,1,38,44,2784389272
8625,14,Improv_Melody,158,2,41,80,2784409464
8625,14,Improv_Melody,159,2,65,80,2784411616
8625,14,Improv_Melody,160,5,42,127,2784414404
8625,14,Improv_Melody,161,1,38,42,2784844252
8625,14,Improv_Melody,162,5,42,110,2784906748
8625,14,Improv_Melody,163,5,42,110,2785407424
8625,14,Improv_Melody,164,1,38,44,2785423488
8625,14,Improv_Melody,165,1,38,39,2785896460
8625,14,Improv_Melody,166,5,42,110,2785907192
8625,14,Improv_Melody,167,1,38,39,2786402892
8625,14,Improv_Melody,168,5,42,127,2786406968
8625,14,Improv_Melody,169,5,42,110,2786906672
8625,14,Improv_Melody,170,1,38,43,2786922588
8625,14,Improv_Melody,171,1,38,46,2787398324
8625,14,Improv_Melody,172,5,42,110,2787407116
8625,14,Improv_Melody,173,5,42,110,2787906972
8625,14,Improv_Melody,174,1,38,37,2787961696
8625,14,Improv_Melody,175,2,48,80,2788409176
8625,14,Improv_Melody,176,2,72,80,2788411404
8625,14,Improv_Melody,177,5,42,127,2788414088
8625,14,Improv_Melody,178,1,38,37,2788501584
8625,14,Improv_Melody,179,5,42,110,2788907356
8625,14,Improv_Melody,180,1,38,39,2788942784
8625,14,Improv_Melody,181,5,42,110,2789407204
8625,14,Improv_Melody,182,1,38,39,2789441364
8625,14,Improv_Melody,183,5,42,110,2789906904
8625,14,Improv_Melody,184,1,38,31,2789946896
8625,14,Improv_Melody,185,5,42,127,2790406680
8625,14,Improv_Melody,186,1,38,24,2790410768
8625,14,Improv_Melody,187,5,42,110,2790907200
8625,14,Improv_Melody,188,1,38,41,2790940692
8625,14,Improv_Melody,189,5,42,110,2791406900
8625,14,Improv_Melody,190,1,38,42,2791455496
8625,14,Improv_Melody,191,5,42,110,2791906748
8625,14,Improv_Melody,192,1,38,45,2791915852
8625,14,Improv_Melody,193,1,38,48,2792393612
8625,14,Improv_Melody,194,2,43,80,2792409840
8625,14,Improv_Melody,195,2,67,80,2792411920
8625,14,Improv_Melody,196,5,42,127,2792414684
8625,14,Improv_Melody,197,5,42,110,2792907132
8625,14,Improv_Melody,198,1,38,41,2792918924
8625,14,Improv_Melody,199,1,38,49,2793396320
8625,14,Improv_Melody,200,5,42,110,2793406828
8625,14,Improv_Melody,201,5,42,110,2793906760
8625,14,Improv_Melody,202,1,38,50,2793929620
8625,14,Improv_Melody,203,5,42,127,2794407284
8625,14,Improv_Melody,204,1,38,48,2794418104
8625,14,Improv_Melody,205,1,38,43,2794893976
8625,14,Improv_Melody,206,5,42,110,2794907028
8625,14,Improv_Melody,207,5,42,110,2795406808
8625,14,Improv_Melody,208,1,38,46,2795412024
8625,14,Improv_Melody,209,5,42,110,2795906360
8625,14,Improv_Melody,210,1,38,49,2795929224
8625,14,Improv_Melody,211,2,45,80,2796409684
8625,14,Improv_Melody,212,2,69,80,2796411836
8625,14,Improv_Melody,213,5,42,127,2796414452
8625,14,Improv_Melody,214,1,48,44,2796441204
8625,14,Improv_Melody,215,1,38,46,2796874684
8625,14,Improv_Melody,216,5,42,110,2796906740
8625,14,Improv_Melody,217,1,38,43,2797383888
8625,14,Improv_Melody,218,5,42,110,2797406588
8625,14,Improv_Melody,219,1,38,41,2797901756
8625,14,Improv_Melody,220,5,42,110,2797907184
8625,14,Improv_Melody,221,5,42,127,2798406968
8625,14,Improv_Melody,222,1,38,50,2798426168
8625,14,Improv_Melody,223,5,42,110,2798906664
8625,14,Improv_Melody,224,1,38,49,2798908152
8625,14,Improv_Melody,225,5,42,110,2799406512
8625,14,Improv_Melody,226,1,38,43,2799413524
8625,14,Improv_Melody,227,5,42,110,2799907036
8625,14,Improv_Melody,228,1,38,45,2799934764
8625,14,Improv_Melody,229,2,41,80,2800409620
8625,14,Improv_Melody,230,2,65,80,2800411616
8625,14,Improv_Melody,231,5,42,127,2800414080
8625,14,Improv_Melody,232,1,38,48,2800420860
8625,14,Improv_Melody,233,1,38,28,2800506856
8625,14,Improv_Melody,234,5,42,110,2800906724
8625,14,Improv_Melody,235,1,38,45,2800976712
8625,14,Improv_Melody,236,5,42,110,2801407396
8625,14,Improv_Melody,237,1,38,45,2801457640
8625,14,Improv_Melody,238,5,42,110,2801907024
8625,14,Improv_Melody,239,1,38,48,2801944700
8625,14,Improv_Melody,240,5,42,127,2802406724
8625,14,Improv_Melody,241,1,38,43,2802410436
8625,14,Improv_Melody,242,5,42,110,2802906572
8625,14,Improv_Melody,243,1,38,52,2802932204
8625,14,Improv_Melody,244,5,42,110,2803407168
8625,14,Improv_Melody,245,1,38,54,2803434748
8625,14,Improv_Melody,246,5,42,110,2803906868
8625,14,Improv_Melody,247,1,38,50,2803922848
8625,14,Improv_Melody,248,2,48,80,2804409148
8625,14,Improv_Melody,249,2,72,80,2804411452
8625,14,Improv_Melody,250,5,42,127,2804413912
8625,14,Improv_Melody,251,1,38,51,2804458464
8625,14,Improv_Melody,252,5,42,110,2804907328
8625,14,Improv_Melody,253,1,38,47,2804942160
8625,14,Improv_Melody,254,1,48,48,2805385716
8625,14,Improv_Melody,255,5,42,110,2805407020
8625,14,Improv_Melody,256,1,38,36,2805880180
8625,14,Improv_Melody,257,5,42,110,2805906696
8625,14,Improv_Melody,258,1,38,44,2806404116
8625,14,Improv_Melody,259,5,42,127,2806406692
8625,14,Improv_Melody,260,5,42,110,2806907300
8625,14,Improv_Melody,261,1,38,53,2806939212
8625,14,Improv_Melody,262,5,42,110,2807406824
8625,14,Improv_Melody,263,1,38,48,2807488876
8625,14,Improv_Melody,264,5,42,110,2807906596
8625,14,Improv_Melody,265,1,38,43,2807981176
8625,14,Improv_Melody,266,2,43,80,2808410076
8625,14,Improv_Melody,267,2,67,80,2808412304
8625,14,Improv_Melody,268,5,42,127,2808414836
8625,14,Improv_Melody,269,1,48,63,2808525540
8625,14,Improv_Melody,270,5,42,110,2808907056
8625,14,Improv_Melody,271,1,38,36,2808947500
8625,14,Improv_Melody,272,1,38,43,2809399680
8625,14,Improv_Melody,273,5,42,110,2809406824
8625,14,Improv_Melody,274,1,38,44,2809904336
8625,14,Improv_Melody,275,5,42,110,2809906748
8625,14,Improv_Melody,276,1,38,46,2810407500
8625,14,Improv_Melody,277,5,42,127,2810409588
8625,14,Improv_Melody,278,1,38,44,2810865644
8625,14,Improv_Melody,279,5,42,110,2810906972
8625,14,Improv_Melody,280,1,38,42,2811404088
8625,14,Improv_Melody,281,5,42,110,2811406820
8625,14,Improv_Melody,282,5,42,110,2811906752
8625,14,Improv_Melody,283,1,38,52,2811917948
8625,14,Improv_Melody,284,2,45,80,2812409936
8625,14,Improv_Melody,285,2,69,80,2812412084
8625,14,Improv_Melody,286,5,42,127,2812414620
8625,14,Improv_Melody,287,1,48,60,2812448032
8625,14,Improv_Melody,288,1,38,43,2812873888
8625,14,Improv_Melody,289,5,42,110,2812906760
8625,14,Improv_Melody,290,5,42,110,2813406616
8625,14,Improv_Melody,291,1,38,46,2813417436
8625,14,Improv_Melody,292,1,38,53,2813897588
8625,14,Improv_Melody,293,5,42,110,2813907428
8625,14,Improv_Melody,294,5,42,127,2814407136
8625,14,Improv_Melody,295,1,38,54,2814434640
8625,14,Improv_Melody,296,1,38,50,2814893924
8625,14,Improv_Melody,297,5,42,110,2814906680
8625,14,Improv_Melody,298,1,38,40,2815403276
8625,14,Improv_Melody,299,5,42,110,2815406604
8625,14,Improv_Melody,300,5,42,110,2815907132
8625,14,Improv_Melody,301,1,38,45,2815933516
8625,14,Improv_Melody,302,2,41,80,2816409160
8625,14,Improv_Melody,303,2,65,80,2816411880
8625,14,Improv_Melody,304,5,42,127,2816414044
8625,14,Improv_Melody,305,1,48,61,2816460316
8625,14,Improv_Melody,306,1,38,46,2816885848
8625,14,Improv_Melody,307,5,42,110,2816906752
8625,14,Improv_Melody,308,5,42,110,2817407284
8625,14,Improv_Melody,309,1,38,47,2817413020
8625,14,Improv_Melody,310,5,42,110,2817906984
8625,14,Improv_Melody,311,1,38,46,2817919600
8625,14,Improv_Melody,312,1,38,42,2818382776
8625,14,Improv_Melody,313,5,42,127,2818406676
8625,14,Improv_Melody,314,1,38,52,2818845300
8625,14,Improv_Melody,315,5,42,110,2818906452
8625,14,Improv_Melody,316,5,42,110,2819407276
8625,14,Improv_Melody,317,1,38,41,2819457372
8625,14,Improv_Melody,318,5,42,110,2819907052
8625,14,Improv_Melody,319,1,38,38,2819931416
8625,14,Improv_Melody,320,2,48,80,2820409180
8625,14,Improv_Melody,321,2,72,80,2820411256
8625,14,Improv_Melody,322,5,42,127,2820413648
8625,14,Improv_Melody,323,1,38,48,2820483188
8625,14,Improv_Melody,324,5,42,110,2820907360
8625,14,Improv_Melody,325,1,38,37,2820972336
8625,14,Improv_Melody,0,9999,9999,9999,2740404304
8625,14,Improv_Melody,1,9999,9999,9999,2740905036
8625,14,Improv_Melody,2,9999,9999,9999,2741404732
8625,14,Improv_Melody,3,9999,9999,9999,2741904448
8625,14,Improv_Melody,4,9999,9999,9999,2742404172
8625,14,Improv_Melody,5,9999,9999,9999,2742904940
8625,14,Improv_Melody,6,9999,9999,9999,2743404660
8625,14,Improv_Melody,7,9999,9999,9999,2743904308
8625,14,Improv_Melody,8,9999,9999,9999,2744405076
8625,14,Improv_Melody,9,9999,9999,9999,2744904812
8625,14,Improv_Melody,10,9999,9999,9999,2745404532
8625,14,Improv_Melody,11,9999,9999,9999,2745904180
8625,14,Improv_Melody,12,9999,9999,9999,2746404948
8625,14,Improv_Melody,13,9999,9999,9999,2746904672
8625,14,Improv_Melody,14,9999,9999,9999,2747404392
8625,14,Improv_Melody,15,9999,9999,9999,2747904112
8625,14,Improv_Melody,16,9999,9999,9999,2748404808
8625,14,Improv_Melody,17,9999,9999,9999,2748904544
8625,14,Improv_Melody,18,9999,9999,9999,2749404264
8625,14,Improv_Melody,19,9999,9999,9999,2749904956
8625,14,Improv_Melody,20,9999,9999,9999,2750404680
8625,14,Improv_Melody,21,9999,9999,9999,2750904404
8625,14,Improv_Melody,22,9999,9999,9999,2751404124
8625,14,Improv_Melody,23,9999,9999,9999,2751904816
8625,14,Improv_Melody,24,9999,9999,9999,2752404588
8625,14,Improv_Melody,25,9999,9999,9999,2752904296
8625,14,Improv_Melody,26,9999,9999,9999,2753404992
8625,14,Improv_Melody,27,9999,9999,9999,2753904712
8625,14,Improv_Melody,28,9999,9999,9999,2754404436
8625,14,Improv_Melody,29,9999,9999,9999,2754904156
8625,14,Improv_Melody,30,9999,9999,9999,2755404852
8625,14,Improv_Melody,31,9999,9999,9999,2755904572
8625,14,Improv_Melody,32,9999,9999,9999,2756404296
8625,14,Improv_Melody,33,9999,9999,9999,2756905076
8625,14,Improv_Melody,34,9999,9999,9999,2757404724
8625,14,Improv_Melody,35,9999,9999,9999,2757904444
8625,14,Improv_Melody,36,9999,9999,9999,2758404168
8625,14,Improv_Melody,37,9999,9999,9999,2758904936
8625,14,Improv_Melody,38,9999,9999,9999,2759404656
8625,14,Improv_Melody,39,9999,9999,9999,2759904376
8625,14,Improv_Melody,40,9999,9999,9999,2760405072
8625,14,Improv_Melody,41,9999,9999,9999,2760904784
8625,14,Improv_Melody,42,9999,9999,9999,2761404484
8625,14,Improv_Melody,43,9999,9999,9999,2761904180
8625,14,Improv_Melody,44,9999,9999,9999,2762404936
8625,14,Improv_Melody,45,9999,9999,9999,2762904684
8625,14,Improv_Melody,46,9999,9999,9999,2763404388
8625,14,Improv_Melody,47,9999,9999,9999,2763904084
8625,14,Improv_Melody,48,9999,9999,9999,2764404832
8625,14,Improv_Melody,49,9999,9999,9999,2764904544
8625,14,Improv_Melody,50,9999,9999,9999,2765404244
8625,14,Improv_Melody,51,9999,9999,9999,2765904988
8625,14,Improv_Melody,52,9999,9999,9999,2766404688
8625,14,Improv_Melody,53,9999,9999,9999,2766904392
8625,14,Improv_Melody,54,9999,9999,9999,2767404084
8625,14,Improv_Melody,55,9999,9999,9999,2767904836
8625,14,Improv_Melody,56,9999,9999,9999,2768404536
8625,14,Improv_Melody,57,9999,9999,9999,2768904248
8625,14,Improv_Melody,58,9999,9999,9999,2769404992
8625,14,Improv_Melody,59,9999,9999,9999,2769904688
8625,14,Improv_Melody,60,9999,9999,9999,2770404464
8625,14,Improv_Melody,61,9999,9999,9999,2770904164
8625,14,Improv_Melody,62,9999,9999,9999,2771404912
8625,14,Improv_Melody,63,9999,9999,9999,2771904612
8625,14,Improv_Melody,64,9999,9999,9999,2772404320
8625,14,Improv_Melody,65,9999,9999,9999,2772905080
8625,14,Improv_Melody,66,9999,9999,9999,2773404780
8625,14,Improv_Melody,67,9999,9999,9999,2773904468
8625,14,Improv_Melody,68,9999,9999,9999,2774404168
8625,14,Improv_Melody,69,9999,9999,9999,2774904924
8625,14,Improv_Melody,70,9999,9999,9999,2775404620
8625,14,Improv_Melody,71,9999,9999,9999,2775904320
8625,14,Improv_Melody,72,9999,9999,9999,2776405068
8625,14,Improv_Melody,73,9999,9999,9999,2776904780
8625,14,Improv_Melody,74,9999,9999,9999,2777404476
8625,14,Improv_Melody,75,9999,9999,9999,2777904180
8625,14,Improv_Melody,76,9999,9999,9999,2778404920
8625,14,Improv_Melody,77,9999,9999,9999,2778904696
8625,14,Improv_Melody,78,9999,9999,9999,2779404392
8625,14,Improv_Melody,79,9999,9999,9999,2779904100
8625,14,Improv_Melody,80,9999,9999,9999,2780404848
8625,14,Improv_Melody,81,9999,9999,9999,2780904552
8625,14,Improv_Melody,82,9999,9999,9999,2781404260
8625,14,Improv_Melody,83,9999,9999,9999,2781905000
8625,14,Improv_Melody,84,9999,9999,9999,2782404700
8625,14,Improv_Melody,85,9999,9999,9999,2782904400
8625,14,Improv_Melody,86,9999,9999,9999,2783404100
8625,14,Improv_Melody,87,9999,9999,9999,2783904844
8625,14,Improv_Melody,88,9999,9999,9999,2784404596
8625,14,Improv_Melody,89,9999,9999,9999,2784904308
8625,14,Improv_Melody,90,9999,9999,9999,2785404984
8625,14,Improv_Melody,91,9999,9999,9999,2785904752
8625,14,Improv_Melody,92,9999,9999,9999,2786404452
8625,14,Improv_Melody,93,9999,9999,9999,2786904160
8625,14,Improv_Melody,94,9999,9999,9999,2787404896
8625,14,Improv_Melody,95,9999,9999,9999,2787904604
8625,14,Improv_Melody,96,9999,9999,9999,2788404304
8625,14,Improv_Melody,97,9999,9999,9999,2788905064
8625,14,Improv_Melody,98,9999,9999,9999,2789404764
8625,14,Improv_Melody,99,9999,9999,9999,2789904464
8625,14,Improv_Melody,100,9999,9999,9999,2790404164
8625,14,Improv_Melody,101,9999,9999,9999,2790904908
8625,14,Improv_Melody,102,9999,9999,9999,2791404608
8625,14,Improv_Melody,103,9999,9999,9999,2791904308
8625,14,Improv_Melody,104,9999,9999,9999,2792405048
8625,14,Improv_Melody,105,9999,9999,9999,2792904768
8625,14,Improv_Melody,106,9999,9999,9999,2793404536
8625,14,Improv_Melody,107,9999,9999,9999,2793904244
8625,14,Improv_Melody,108,9999,9999,9999,2794404916
8625,14,Improv_Melody,109,9999,9999,9999,2794904664
8625,14,Improv_Melody,110,9999,9999,9999,2795404368
8625,14,Improv_Melody,111,9999,9999,9999,2795904068
8625,14,Improv_Melody,112,9999,9999,9999,2796404816
8625,14,Improv_Melody,113,9999,9999,9999,2796904520
8625,14,Improv_Melody,114,9999,9999,9999,2797404220
8625,14,Improv_Melody,115,9999,9999,9999,2797904968
8625,14,Improv_Melody,116,9999,9999,9999,2798404676
8625,14,Improv_Melody,117,9999,9999,9999,2798904376
8625,14,Improv_Melody,118,9999,9999,9999,2799404148
8625,14,Improv_Melody,119,9999,9999,9999,2799904820
8625,14,Improv_Melody,120,9999,9999,9999,2800404592
8625,14,Improv_Melody,121,9999,9999,9999,2800904284
8625,14,Improv_Melody,122,9999,9999,9999,2801405032
8625,14,Improv_Melody,123,9999,9999,9999,2801904732
8625,14,Improv_Melody,124,9999,9999,9999,2802404432
8625,14,Improv_Melody,125,9999,9999,9999,2802904132
8625,14,Improv_Melody,126,9999,9999,9999,2803404876
8625,14,Improv_Melody,127,9999,9999,9999,2803904576
8625,14,Improv_Melody,128,9999,9999,9999,2804404276
8625,14,Improv_Melody,129,9999,9999,9999,2804905036
8625,14,Improv_Melody,130,9999,9999,9999,2805404728
8625,14,Improv_Melody,131,9999,9999,9999,2805904480
8625,14,Improv_Melody,132,9999,9999,9999,2806404180
8625,14,Improv_Melody,133,9999,9999,9999,2806904932
8625,14,Improv_Melody,134,9999,9999,9999,2807404608
8625,14,Improv_Melody,135,9999,9999,9999,2807904308
8625,14,Improv_Melody,136,9999,9999,9999,2808405052
8625,14,Improv_Melody,137,9999,9999,9999,2808904768
8625,14,Improv_Melody,138,9999,9999,9999,2809404536
8625,14,Improv_Melody,139,9999,9999,9999,2809904200
8625,14,Improv_Melody,140,9999,9999,9999,2810404912
8625,14,Improv_Melody,141,9999,9999,9999,2810904680
8625,14,Improv_Melody,142,9999,9999,9999,2811404380
8625,14,Improv_Melody,143,9999,9999,9999,2811904088
8625,14,Improv_Melody,144,9999,9999,9999,2812404836
8625,14,Improv_Melody,145,9999,9999,9999,2812904544
8625,14,Improv_Melody,146,9999,9999,9999,2813404248
8625,14,Improv_Melody,147,9999,9999,9999,2813904988
8625,14,Improv_Melody,148,9999,9999,9999,2814404696
8625,14,Improv_Melody,149,9999,9999,9999,2814904388
8625,14,Improv_Melody,150,9999,9999,9999,2815404088
8625,14,Improv_Melody,151,9999,9999,9999,2815904840
8625,14,Improv_Melody,152,9999,9999,9999,2816404592
8625,14,Improv_Melody,153,9999,9999,9999,2816904312
8625,14,Improv_Melody,154,9999,9999,9999,2817404992
8625,14,Improv_Melody,155,9999,9999,9999,2817904692
8625,14,Improv_Melody,156,9999,9999,9999,2818404460
8625,14,Improv_Melody,157,9999,9999,9999,2818904160
8625,14,Improv_Melody,158,9999,9999,9999,2819404912
8625,14,Improv_Melody,159,9999,9999,9999,2819904612
8625,14,Improv_Melody,160,9999,9999,9999,2820404312
8625,14,Improv_Melody,161,9999,9999,9999,2820905068
86