pid,taskRunCount,taskID,taskName,i,channel,pitch,velocity,microseconds
85,1,1,Ticks_Pract_5,0,5,42,127,116014376
85,1,1,Ticks_Pract_5,1,5,42,127,116515064
85,1,1,Ticks_Pract_5,2,5,42,127,117014856
85,1,1,Ticks_Pract_5,3,5,42,127,117514720
85,1,1,Ticks_Pract_5,4,5,42,127,118015480
85,1,1,Ticks_Pract_5,5,5,42,127,118515048
85,1,1,Ticks_Pract_5,6,5,42,127,119014840
85,1,1,Ticks_Pract_5,7,5,42,127,119514556
85,1,1,Ticks_Pract_5,8,5,42,127,120015320
85,1,1,Ticks_Pract_5,9,5,42,127,120514812
85,1,1,Ticks_Pract_5,10,5,42,127,121014728
85,1,1,Ticks_Pract_5,11,5,42,127,121515568
85,1,1,Ticks_Pract_5,12,1,48,32,121947628
85,1,1,Ticks_Pract_5,13,5,42,127,122015052
85,1,1,Ticks_Pract_5,14,1,48,32,122505516
85,1,1,Ticks_Pract_5,15,5,42,127,122514672
85,1,1,Ticks_Pract_5,16,5,42,127,123014600
85,1,1,Ticks_Pract_5,17,5,42,127,123515140
85,1,1,Ticks_Pract_5,18,5,42,127,124015004
85,1,1,Ticks_Pract_5,19,5,42,127,124514648
85,1,1,Ticks_Pract_5,20,5,42,127,125015560
85,1,1,Ticks_Pract_5,21,5,42,127,125515200
85,1,1,Ticks_Pract_5,22,1,48,48,125953172
85,1,1,Ticks_Pract_5,23,1,48,35,125991972
85,1,1,Ticks_Pract_5,24,5,42,127,126014816
85,1,1,Ticks_Pract_5,25,5,42,127,126514516
85,1,1,Ticks_Pract_5,26,1,48,28,126529156
85,1,1,Ticks_Pract_5,27,5,42,127,127015556
85,1,1,Ticks_Pract_5,28,1,48,30,127048668
85,1,1,Ticks_Pract_5,29,1,48,41,127478940
85,1,1,Ticks_Pract_5,30,5,42,127,127514872
85,1,1,Ticks_Pract_5,31,1,48,40,127960976
85,1,1,Ticks_Pract_5,32,5,42,127,128014640
85,1,1,Ticks_Pract_5,33,1,48,41,128490140
85,1,1,Ticks_Pract_5,34,5,42,127,128514408
85,1,1,Ticks_Pract_5,35,1,48,39,128989540
85,1,1,Ticks_Pract_5,36,5,42,127,129015372
85,1,1,Ticks_Pract_5,37,1,48,37,129487212
85,1,1,Ticks_Pract_5,38,5,42,127,129514920
85,1,1,Ticks_Pract_5,39,1,48,38,129987576
85,1,1,Ticks_Pract_5,40,5,42,127,130014540
85,1,1,Ticks_Pract_5,41,1,48,37,130490468
85,1,1,Ticks_Pract_5,42,5,42,127,130515504
85,1,1,Ticks_Pract_5,43,1,48,38,130974152
85,1,1,Ticks_Pract_5,44,5,42,127,131014900
85,1,1,Ticks_Pract_5,45,1,48,34,131466744
85,1,1,Ticks_Pract_5,46,5,42,127,131514720
85,1,1,Ticks_Pract_5,47,1,48,33,131966656
85,1,1,Ticks_Pract_5,48,5,42,127,132014560
85,1,1,Ticks_Pract_5,49,1,48,36,132460820
85,1,1,Ticks_Pract_5,50,5,42,127,132515156
85,1,1,Ticks_Pract_5,51,1,48,35,132969340
85,1,1,Ticks_Pract_5,52,5,42,127,133014776
85,1,1,Ticks_Pract_5,53,1,48,35,133498280
85,1,1,Ticks_Pract_5,54,5,42,127,133514544
85,1,1,Ticks_Pract_5,55,1,48,31,134004856
85,1,1,Ticks_Pract_5,56,5,42,127,134015360
85,1,1,Ticks_Pract_5,57,1,48,32,134489816
85,1,1,Ticks_Pract_5,58,5,42,127,134515128
85,1,1,Ticks_Pract_5,59,1,48,24,134964304
85,1,1,Ticks_Pract_5,60,5,42,127,135014676
85,1,1,Ticks_Pract_5,61,1,48,35,135451060
85,1,1,Ticks_Pract_5,62,5,42,127,135514592
85,1,1,Ticks_Pract_5,63,1,48,34,136009392
85,1,1,Ticks_Pract_5,0,9999,9999,9999,116012088
85,1,1,Ticks_Pract_5,1,9999,9999,9999,116512852
85,1,1,Ticks_Pract_5,2,9999,9999,9999,117012568
85,1,1,Ticks_Pract_5,3,9999,9999,9999,117512284
85,1,1,Ticks_Pract_5,4,9999,9999,9999,118013048
85,1,1,Ticks_Pract_5,5,9999,9999,9999,118512688
85,1,1,Ticks_Pract_5,6,9999,9999,9999,119012404
85,1,1,Ticks_Pract_5,7,9999,9999,9999,119512120
85,1,1,Ticks_Pract_5,8,9999,9999,9999,120012884
85,1,1,Ticks_Pract_5,9,9999,9999,9999,120512600
85,1,1,Ticks_Pract_5,10,9999,9999,9999,121012292
85,1,1,Ticks_Pract_5,11,9999,9999,9999,121513056
85,1,1,Ticks_Pract_5,12,9999,9999,9999,122012768
85,1,1,Ticks_Pract_5,13,9999,9999,9999,122512460
85,1,1,Ticks_Pract_5,14,9999,9999,9999,123012164
85,1,1,Ticks_Pract_5,15,9999,9999,9999,123512928
85,1,1,Ticks_Pract_5,16,9999,9999,9999,124012644
85,1,1,Ticks_Pract_5,17,9999,9999,9999,124512360
85,1,1,Ticks_Pract_5,18,9999,9999,9999,125013048
85,1,1,Ticks_Pract_5,19,9999,9999,9999,125512764
85,1,1,Ticks_Pract_5,20,9999,9999,9999,126012528
85,1,1,Ticks_Pract_5,21,9999,9999,9999,126512228
85,1,1,Ticks_Pract_5,22,9999,9999,9999,127012972
85,1,1,Ticks_Pract_5,23,9999,9999,9999,127512660
85,1,1,Ticks_Pract_5,24,9999,9999,9999,128012352
85,1,1,Ticks_Pract_5,25,9999,9999,9999,128512048
85,1,1,Ticks_Pract_5,26,9999,9999,9999,129012792
85,1,1,Ticks_Pract_5,27,9999,9999,9999,129512560
85,1,1,Ticks_Pract_5,28,9999,9999,9999,130012252
85,1,1,Ticks_Pract_5,29,9999,9999,9999,130512992
85,1,1,Ticks_Pract_5,30,9999,9999,9999,131012688
85,1,1,Ticks_Pract_5,31,9999,9999,9999,131512432
85,1,1,Ticks_Pract_5,32,9999,9999,9999,132012128
85,1,1,Ticks_Pract_5,33,9999,9999,9999,132512868
85,1,1,Ticks_Pract_5,34,9999,9999,9999,133012564
85,1,1,Ticks_Pract_5,35,9999,9999,9999,133512260
85,1,1,Ticks_Pract_5,36,9999,9999,9999,134013000
85,1,1,Ticks_Pract_5,37,9999,9999,9999,134512692
85,1,1,Ticks_Pract_5,38,9999,9999,9999,135012464
85,1,1,Ticks_Pract_5,39,9999,9999,9999,135512160
85,2,1,Ticks_Pract_5,0,5,42,127,176617856
85,2,1,Ticks_Pract_5,1,5,42,127,177117796
85,2,1,Ticks_Pract_5,2,1,48,29,177604380
85,2,1,Ticks_Pract_5,3,5,42,127,177618404
85,2,1,Ticks_Pract_5,4,1,48,32,178089168
85,2,1,Ticks_Pract_5,5,5,42,127,178118096
85,2,1,Ticks_Pract_5,6,1,48,34,178578164
85,2,1,Ticks_Pract_5,7,5,42,127,178617844
85,2,1,Ticks_Pract_5,8,1,48,30,179078236
85,2,1,Ticks_Pract_5,9,5,42,127,179117312
85,2,1,Ticks_Pract_5,10,1,48,29,179563792
85,2,1,Ticks_Pract_5,11,5,42,127,179618204
85,2,1,Ticks_Pract_5,12,1,48,29,180102000
85,2,1,Ticks_Pract_5,13,5,42,127,180117820
85,2,1,Ticks_Pract_5,14,1,48,25,180580228
85,2,1,Ticks_Pract_5,15,5,42,127,180617740
85,2,1,Ticks_Pract_5,16,1,48,29,181070956
85,2,1,Ticks_Pract_5,17,5,42,127,181118184
85,2,1,Ticks_Pract_5,18,1,48,29,181577828
85,2,1,Ticks_Pract_5,19,5,42,127,181618100
85,2,1,Ticks_Pract_5,20,1,48,27,182077000
85,2,1,Ticks_Pract_5,21,5,42,127,182117724
85,2,1,Ticks_Pract_5,22,1,48,32,182577888
85,2,1,Ticks_Pract_5,23,5,42,127,182617640
85,2,1,Ticks_Pract_5,24,1,48,30,183054844
85,2,1,Ticks_Pract_5,25,5,42,127,183118084
85,2,1,Ticks_Pract_5,26,1,48,29,183583036
85,2,1,Ticks_Pract_5,27,5,42,127,183617780
85,2,1,Ticks_Pract_5,28,1,48,29,184070912
85,2,1,Ticks_Pract_5,29,5,42,127,184117844
85,2,1,Ticks_Pract_5,30,1,48,29,184524680
85,2,1,Ticks_Pract_5,31,5,42,127,184619100
85,2,1,Ticks_Pract_5,32,1,48,31,185085708
85,2,1,Ticks_Pract_5,33,5,42,127,185117988
85,2,1,Ticks_Pract_5,34,1,48,30,185568804
85,2,1,Ticks_Pract_5,35,5,42,127,185617756
85,2,1,Ticks_Pract_5,36,1,48,27,186068944
85,2,1,Ticks_Pract_5,37,5,42,127,186117676
85,2,1,Ticks_Pract_5,38,1,48,29,186567748
85,2,1,Ticks_Pract_5,39,5,42,127,186618120
85,2,1,Ticks_Pract_5,40,1,48,30,187072448
85,2,1,Ticks_Pract_5,41,5,42,127,187117888
85,2,1,Ticks_Pract_5,42,1,48,20,187581196
85,2,1,Ticks_Pract_5,43,5,42,127,187617732
85,2,1,Ticks_Pract_5,44,1,48,29,188058424
85,2,1,Ticks_Pract_5,45,5,42,127,188118472
85,2,1,Ticks_Pract_5,46,1,48,34,188569488
85,2,1,Ticks_Pract_5,47,5,42,127,188618016
85,2,1,Ticks_Pract_5,48,1,48,29,189075468
85,2,1,Ticks_Pract_5,49,5,42,127,189117788
85,2,1,Ticks_Pract_5,50,5,42,127,189617612
85,2,1,Ticks_Pract_5,51,1,48,29,189620360
85,2,1,Ticks_Pract_5,52,1,48,23,190075152
85,2,1,Ticks_Pract_5,53,5,42,127,190118420
85,2,1,Ticks_Pract_5,54,1,48,26,190587788
85,2,1,Ticks_Pract_5,55,5,42,127,190617820
85,2,1,Ticks_Pract_5,56,1,48,29,191074616
85,2,1,Ticks_Pract_5,57,5,42,127,191117736
85,2,1,Ticks_Pract_5,58,1,48,25,191600488
85,2,1,Ticks_Pract_5,59,5,42,127,191618552
85,2,1,Ticks_Pract_5,60,1,48,29,192088520
85,2,1,Ticks_Pract_5,61,5,42,127,192118096
85,2,1,Ticks_Pract_5,62,1,48,29,192574972
85,2,1,Ticks_Pract_5,63,5,42,127,192617720
85,2,1,Ticks_Pract_5,64,1,48,21,193076392
85,2,1,Ticks_Pract_5,65,5,42,127,193117564
85,2,1,Ticks_Pract_5,66,1,48,26,193609216
85,2,1,Ticks_Pract_5,67,5,42,127,193618376
85,2,1,Ticks_Pract_5,68,1,48,27,194094328
85,2,1,Ticks_Pract_5,69,5,42,127,194118072
85,2,1,Ticks_Pract_5,70,1,48,26,194589532
85,2,1,Ticks_Pract_5,71,5,42,127,194617768
85,2,1,Ticks_Pract_5,72,1,48,26,195108524
85,2,1,Ticks_Pract_5,73,5,42,127,195117460
85,2,1,Ticks_Pract_5,74,1,48,24,195604780
85,2,1,Ticks_Pract_5,75,5,42,127,195618352
85,2,1,Ticks_Pract_5,76,1,48,30,196073508
85,2,1,Ticks_Pract_5,77,5,42,127,196117820
85,2,1,Ticks_Pract_5,78,1,48,28,196594820
85,2,1,Ticks_Pract_5,0,9999,9999,9999,176615492
85,2,1,Ticks_Pract_5,1,9999,9999,9999,177115208
85,2,1,Ticks_Pract_5,2,9999,9999,9999,177615964
85,2,1,Ticks_Pract_5,3,9999,9999,9999,178115660
85,2,1,Ticks_Pract_5,4,9999,9999,9999,178615404
85,2,1,Ticks_Pract_5,5,9999,9999,9999,179115096
85,2,1,Ticks_Pract_5,6,9999,9999,9999,179615840
85,2,1,Ticks_Pract_5,7,9999,9999,9999,180115532
85,2,1,Ticks_Pract_5,8,9999,9999,9999,180615228
85,2,1,Ticks_Pract_5,9,9999,9999,9999,181115968
85,2,1,Ticks_Pract_5,10,9999,9999,9999,181615664
85,2,1,Ticks_Pract_5,11,9999,9999,9999,182115432
85,2,1,Ticks_Pract_5,12,9999,9999,9999,182615128
85,2,1,Ticks_Pract_5,13,9999,9999,9999,183115868
85,2,1,Ticks_Pract_5,14,9999,9999,9999,183615564
85,2,1,Ticks_Pract_5,15,9999,9999,9999,184115260
85,2,1,Ticks_Pract_5,16,9999,9999,9999,184616000
85,2,1,Ticks_Pract_5,17,9999,9999,9999,185115696
85,2,1,Ticks_Pract_5,18,9999,9999,9999,185615468
85,2,1,Ticks_Pract_5,19,9999,9999,9999,186115160
85,2,1,Ticks_Pract_5,20,9999,9999,9999,186615904
85,2,1,Ticks_Pract_5,21,9999,9999,9999,187115600
85,2,1,Ticks_Pract_5,22,9999,9999,9999,187615292
85,2,1,Ticks_Pract_5,23,9999,9999,9999,188116032
85,2,1,Ticks_Pract_5,24,9999,9999,9999,188615728
85,2,1,Ticks_Pract_5,25,9999,9999,9999,189115496
85,2,1,Ticks_Pract_5,26,9999,9999,9999,189615172
85,2,1,Ticks_Pract_5,27,9999,9999,9999,190115908
85,2,1,Ticks_Pract_5,28,9999,9999,9999,190615604
85,2,1,Ticks_Pract_5,29,9999,9999,9999,191115372
85,2,1,Ticks_Pract_5,30,9999,9999,9999,191616116
85,2,1,Ticks_Pract_5,31,9999,9999,9999,192115808
85,2,1,Ticks_Pract_5,32,9999,9999,9999,192615504
85,2,1,Ticks_Pract_5,33,9999,9999,9999,193115200
85,2,1,Ticks_Pract_5,34,9999,9999,9999,193615936
85,2,1,Ticks_Pract_5,35,9999,9999,9999,194115632
85,2,1,Ticks_Pract_5,36,9999,9999,9999,194615404
85,2,1,Ticks_Pract_5,37,9999,9999,9999,195115096
85,2,1,Ticks_Pract_5,38,9999,9999,9999,195615840
85,2,1,Ticks_Pract_5,39,9999,9999,9999,196115532
85,3,0,Ticks_Pract_8,0,5,42,127,221492560
85,3,0,Ticks_Pract_8,1,5,42,127,222293212
85,3,0,Ticks_Pract_8,2,5,42,127,223093192
85,3,0,Ticks_Pract_8,3,1,48,29,223210556
85,3,0,Ticks_Pract_8,4,1,48,32,223843372
85,3,0,Ticks_Pract_8,5,5,42,127,223892992
85,3,0,Ticks_Pract_8,6,1,48,34,224665692
85,3,0,Ticks_Pract_8,7,5,42,127,224692504
85,3,0,Ticks_Pract_8,8,1,48,37,225455328
85,3,0,Ticks_Pract_8,9,5,42,127,225493380
85,3,0,Ticks_Pract_8,10,1,48,29,226279768
85,3,0,Ticks_Pract_8,11,5,42,127,226293116
85,3,0,Ticks_Pract_8,12,1,48,31,227029388
85,3,0,Ticks_Pract_8,13,5,42,127,227093068
85,3,0,Ticks_Pract_8,14,5,42,127,227892736
85,3,0,Ticks_Pract_8,15,1,48,26,227895708
85,3,0,Ticks_Pract_8,16,1,48,26,228672012
85,3,0,Ticks_Pract_8,17,5,42,127,228693364
85,3,0,Ticks_Pract_8,18,1,48,30,229441604
85,3,0,Ticks_Pract_8,19,5,42,127,229493168
85,3,0,Ticks_Pract_8,20,1,48,33,230253680
85,3,0,Ticks_Pract_8,21,5,42,127,230292756
85,3,0,Ticks_Pract_8,22,5,42,127,231092868
85,3,0,Ticks_Pract_8,23,1,48,26,231093832
85,3,0,Ticks_Pract_8,24,1,48,31,231810068
85,3,0,Ticks_Pract_8,25,5,42,127,231893220
85,3,0,Ticks_Pract_8,26,5,42,127,232693036
85,3,0,Ticks_Pract_8,27,1,48,31,232708872
85,3,0,Ticks_Pract_8,28,1,48,24,233489812
85,3,0,Ticks_Pract_8,29,5,42,127,233492912
85,3,0,Ticks_Pract_8,30,1,48,19,234292800
85,3,0,Ticks_Pract_8,31,5,42,127,234294140
85,3,0,Ticks_Pract_8,32,1,48,27,235033328
85,3,0,Ticks_Pract_8,33,5,42,127,235093204
85,3,0,Ticks_Pract_8,34,5,42,127,235893020
85,3,0,Ticks_Pract_8,35,1,48,29,235916104
85,3,0,Ticks_Pract_8,36,1,48,26,236679472
85,3,0,Ticks_Pract_8,37,5,42,127,236692820
85,3,0,Ticks_Pract_8,38,1,48,32,237487360
85,3,0,Ticks_Pract_8,39,5,42,127,237492628
85,3,0,Ticks_Pract_8,40,1,48,24,238286368
85,3,0,Ticks_Pract_8,41,5,42,127,238293284
85,3,0,Ticks_Pract_8,42,5,42,127,239093096
85,3,0,Ticks_Pract_8,43,1,48,22,239145208
85,3,0,Ticks_Pract_8,44,1,48,29,239866988
85,3,0,Ticks_Pract_8,45,5,42,127,239892824
85,3,0,Ticks_Pract_8,46,1,48,29,240667320
85,3,0,Ticks_Pract_8,47,5,42,127,240692560
85,3,0,Ticks_Pract_8,48,1,48,28,241483960
85,3,0,Ticks_Pract_8,49,5,42,127,241493636
85,3,0,Ticks_Pract_8,50,1,48,28,242270900
85,3,0,Ticks_Pract_8,51,5,42,127,242293000
85,3,0,Ticks_Pract_8,52,1,48,27,243029496
85,3,0,Ticks_Pract_8,53,5,42,127,243092808
85,3,0,Ticks_Pract_8,54,1,48,25,243853136
85,3,0,Ticks_Pract_8,55,5,42,127,243892592
85,3,0,Ticks_Pract_8,56,1,48,27,244608296
85,3,0,Ticks_Pract_8,57,5,42,127,244693620
85,3,0,Ticks_Pract_8,0,9999,9999,9999,221490272
85,3,0,Ticks_Pract_8,1,9999,9999,9999,222291000
85,3,0,Ticks_Pract_8,2,9999,9999,9999,223090752
85,3,0,Ticks_Pract_8,3,9999,9999,9999,223890480
85,3,0,Ticks_Pract_8,4,9999,9999,9999,224690288
85,3,0,Ticks_Pract_8,5,9999,9999,9999,225491020
85,3,0,Ticks_Pract_8,6,9999,9999,9999,226290752
85,3,0,Ticks_Pract_8,7,9999,9999,9999,227090484
85,3,0,Ticks_Pract_8,8,9999,9999,9999,227890224
85,3,0,Ticks_Pract_8,9,9999,9999,9999,228691000
85,3,0,Ticks_Pract_8,10,9999,9999,9999,229490808
85,3,0,Ticks_Pract_8,11,9999,9999,9999,230290544
85,3,0,Ticks_Pract_8,12,9999,9999,9999,231090284
85,3,0,Ticks_Pract_8,13,9999,9999,9999,231891008
85,3,0,Ticks_Pract_8,14,9999,9999,9999,232690748
85,3,0,Ticks_Pract_8,15,9999,9999,9999,233490548
85,3,0,Ticks_Pract_8,16,9999,9999,9999,234290292
85,3,0,Ticks_Pract_8,17,9999,9999,9999,235090988
85,3,0,Ticks_Pract_8,18,9999,9999,9999,235890804
85,3,0,Ticks_Pract_8,19,9999,9999,9999,236690532
85,3,0,Ticks_Pract_8,20,9999,9999,9999,237490264
85,3,0,Ticks_Pract_8,21,9999,9999,9999,238290996
85,3,0,Ticks_Pract_8,22,9999,9999,9999,239090732
85,3,0,Ticks_Pract_8,23,9999,9999,9999,239890536
85,3,0,Ticks_Pract_8,24,9999,9999,9999,240690272
85,3,0,Ticks_Pract_8,25,9999,9999,9999,241491052
85,3,0,Ticks_Pract_8,26,9999,9999,9999,242290784
85,3,0,Ticks_Pract_8,27,9999,9999,9999,243090520
85,3,0,Ticks_Pract_8,28,9999,9999,9999,243890228
85,3,0,Ticks_Pract_8,29,9999,9999,9999,244691032
85,4,4,T1_SMS_5,0,5,42,127,328910124
85,4,4,T1_SMS_5,1,5,42,127,329410064
85,4,4,T1_SMS_5,2,5,42,127,329909556
85,4,4,T1_SMS_5,3,5,42,127,330410296
85,4,4,T1_SMS_5,4,1,48,22,330799424
85,4,4,T1_SMS_5,5,5,42,127,330910216
85,4,4,T1_SMS_5,6,1,48,29,331388128
85,4,4,T1_SMS_5,7,5,42,127,331410000
85,4,4,T1_SMS_5,8,1,48,26,331838004
85,4,4,T1_SMS_5,9,5,42,127,331909400
85,4,4,T1_SMS_5,10,1,48,31,332330964
85,4,4,T1_SMS_5,11,5,42,127,332410140
85,4,4,T1_SMS_5,12,1,48,27,332888260
85,4,4,T1_SMS_5,13,5,42,127,332910132
85,4,4,T1_SMS_5,14,1,48,26,333354440
85,4,4,T1_SMS_5,15,5,42,127,333409752
85,4,4,T1_SMS_5,16,1,48,24,333872540
85,4,4,T1_SMS_5,17,5,42,127,333910572
85,4,4,T1_SMS_5,18,1,48,22,334363708
85,4,4,T1_SMS_5,19,5,42,127,334410116
85,4,4,T1_SMS_5,20,1,48,21,334856220
85,4,4,T1_SMS_5,21,5,42,127,334910108
85,4,4,T1_SMS_5,22,1,48,25,335363016
85,4,4,T1_SMS_5,23,5,42,127,335409432
85,4,4,T1_SMS_5,24,1,48,19,335878576
85,4,4,T1_SMS_5,25,5,42,127,335910248
85,4,4,T1_SMS_5,26,1,48,22,336346928
85,4,4,T1_SMS_5,27,5,42,127,336410092
85,4,4,T1_SMS_5,28,1,48,26,336879688
85,4,4,T1_SMS_5,29,5,42,127,336910012
85,4,4,T1_SMS_5,30,1,48,24,337396808
85,4,4,T1_SMS_5,31,5,42,127,337410308
85,4,4,T1_SMS_5,32,5,42,127,337910084
85,4,4,T1_SMS_5,33,1,48,23,337916636
85,4,4,T1_SMS_5,34,1,48,20,338397472
85,4,4,T1_SMS_5,35,5,42,127,338409992
85,4,4,T1_SMS_5,36,1,48,22,338891552
85,4,4,T1_SMS_5,37,5,42,127,338909540
85,4,4,T1_SMS_5,38,1,48,20,339407184
85,4,4,T1_SMS_5,39,5,42,127,339410280
85,4,4,T1_SMS_5,40,1,48,21,339881268
85,4,4,T1_SMS_5,41,5,42,127,339910052
85,4,4,T1_SMS_5,42,1,48,24,340394056
85,4,4,T1_SMS_5,43,5,42,127,340409968
85,4,4,T1_SMS_5,44,5,42,127,340909272
85,4,4,T1_SMS_5,45,1,48,21,340914560
85,4,4,T1_SMS_5,46,1,48,22,341384136
85,4,4,T1_SMS_5,47,5,42,127,341410056
85,4,4,T1_SMS_5,48,1,48,22,341885628
85,4,4,T1_SMS_5,49,5,42,127,341910124
85,4,4,T1_SMS_5,50,1,48,22,342363708
85,4,4,T1_SMS_5,51,5,42,127,342409744
85,4,4,T1_SMS_5,52,1,48,24,342879860
85,4,4,T1_SMS_5,53,5,42,127,342910264
85,4,4,T1_SMS_5,54,1,48,21,343397660
85,4,4,T1_SMS_5,55,5,42,127,343410032
85,4,4,T1_SMS_5,56,1,48,23,343853224
85,4,4,T1_SMS_5,57,5,42,127,343909880
85,4,4,T1_SMS_5,58,1,48,21,344401016
85,4,4,T1_SMS_5,59,5,42,127,344409424
85,4,4,T1_SMS_5,60,1,48,25,344881564
85,4,4,T1_SMS_5,61,5,42,127,344910244
85,4,4,T1_SMS_5,62,1,48,18,345397188
85,4,4,T1_SMS_5,63,5,42,127,345410012
85,4,4,T1_SMS_5,64,1,48,21,345879608
85,4,4,T1_SMS_5,65,5,42,127,345909708
85,4,4,T1_SMS_5,66,1,48,24,346367036
85,4,4,T1_SMS_5,67,5,42,127,346410300
85,4,4,T1_SMS_5,68,1,48,18,346886700
85,4,4,T1_SMS_5,69,5,42,127,346909996
85,4,4,T1_SMS_5,70,1,48,23,347387740
85,4,4,T1_SMS_5,71,5,42,127,347409764
85,4,4,T1_SMS_5,72,1,48,21,347892296
85,4,4,T1_SMS_5,73,5,42,127,347909684
85,4,4,T1_SMS_5,74,1,48,26,348385856
85,4,4,T1_SMS_5,75,5,42,127,348410204
85,4,4,T1_SMS_5,76,1,48,15,348895800
85,4,4,T1_SMS_5,77,5,42,127,348909896
85,4,4,T1_SMS_5,78,5,42,127,349409596
85,4,4,T1_SMS_5,79,1,48,17,349430000
85,4,4,T1_SMS_5,80,1,48,20,349882176
85,4,4,T1_SMS_5,81,5,42,127,349910408
85,4,4,T1_SMS_5,82,1,48,21,350396228
85,4,4,T1_SMS_5,83,5,42,127,350410104
85,4,4,T1_SMS_5,84,1,48,17,350883112
85,4,4,T1_SMS_5,85,5,42,127,350909948
85,4,4,T1_SMS_5,86,1,48,22,351370544
85,4,4,T1_SMS_5,87,5,42,127,351409620
85,4,4,T1_SMS_5,88,1,48,18,351891976
85,4,4,T1_SMS_5,89,5,42,127,351910188
85,4,4,T1_SMS_5,90,1,48,21,352392864
85,4,4,T1_SMS_5,91,5,42,127,352410028
85,4,4,T1_SMS_5,92,1,48,20,352881720
85,4,4,T1_SMS_5,93,5,42,127,352909652
85,4,4,T1_SMS_5,94,1,48,19,353387696
85,4,4,T1_SMS_5,95,5,42,127,353410392
85,4,4,T1_SMS_5,96,5,42,127,353910168
85,4,4,T1_SMS_5,97,1,48,31,354315896
85,4,4,T1_SMS_5,98,5,42,127,354409876
85,4,4,T1_SMS_5,99,1,48,16,354428540
85,4,4,T1_SMS_5,100,5,42,127,354909556
85,4,4,T1_SMS_5,101,1,48,23,354923516
85,4,4,T1_SMS_5,102,5,42,127,355410224
85,4,4,T1_SMS_5,103,1,48,19,355420228
85,4,4,T1_SMS_5,104,1,48,24,355902320
85,4,4,T1_SMS_5,105,5,42,127,355909988
85,4,4,T1_SMS_5,106,1,48,19,356385408
85,4,4,T1_SMS_5,107,5,42,127,356409680
85,4,4,T1_SMS_5,108,1,48,21,356890344
85,4,4,T1_SMS_5,109,5,42,127,356909600
85,4,4,T1_SMS_5,110,1,48,21,357389064
85,4,4,T1_SMS_5,111,5,42,127,357410116
85,4,4,T1_SMS_5,112,1,48,19,357891752
85,4,4,T1_SMS_5,113,5,42,127,357909888
85,4,4,T1_SMS_5,114,1,48,20,358371556
85,4,4,T1_SMS_5,115,5,42,127,358409660
85,4,4,T1_SMS_5,116,1,48,19,358898176
85,4,4,T1_SMS_5,117,5,42,127,358910256
85,4,4,T1_SMS_5,118,1,48,23,359361072
85,4,4,T1_SMS_5,119,5,42,127,359410024
85,4,4,T1_SMS_5,120,5,42,127,359909728
85,4,4,T1_SMS_5,121,5,42,127,360409592
85,4,4,T1_SMS_5,122,1,48,22,360415552
85,4,4,T1_SMS_5,123,1,48,25,360903632
85,4,4,T1_SMS_5,124,5,42,127,360910104
85,4,4,T1_SMS_5,125,1,48,27,361360748
85,4,4,T1_SMS_5,126,5,42,127,361409876
85,4,4,T1_SMS_5,127,1,48,25,361842796
85,4,4,T1_SMS_5,128,5,42,127,361909572
85,4,4,T1_SMS_5,129,5,42,127,362410592
85,4,4,T1_SMS_5,130,1,48,28,362423012
85,4,4,T1_SMS_5,131,5,42,127,362910064
85,4,4,T1_SMS_5,132,1,48,26,362957268
85,4,4,T1_SMS_5,133,1,48,27,363395432
85,4,4,T1_SMS_5,134,5,42,127,363409828
85,4,4,T1_SMS_5,135,1,48,23,363879720
85,4,4,T1_SMS_5,136,5,42,127,363909448
85,4,4,T1_SMS_5,137,1,48,25,364405820
85,4,4,T1_SMS_5,138,5,42,127,364410192
85,4,4,T1_SMS_5,139,1,48,22,364883744
85,4,4,T1_SMS_5,140,5,42,127,364910036
85,4,4,T1_SMS_5,141,1,48,24,365359732
85,4,4,T1_SMS_5,142,5,42,127,365409656
85,4,4,T1_SMS_5,143,1,48,24,365870348
85,4,4,T1_SMS_5,144,5,42,127,365910548
85,4,4,T1_SMS_5,145,1,48,20,366409428
85,4,4,T1_SMS_5,146,5,42,127,366410992
85,4,4,T1_SMS_5,147,1,48,25,366890160
85,4,4,T1_SMS_5,148,5,42,127,366909864
85,4,4,T1_SMS_5,149,1,48,27,367387012
85,4,4,T1_SMS_5,150,5,42,127,367409632
85,4,4,T1_SMS_5,151,1,48,23,367893888
85,4,4,T1_SMS_5,152,5,42,127,367910228
85,4,4,T1_SMS_5,153,5,42,127,368410076
85,4,4,T1_SMS_5,154,1,48,25,368416408
85,4,4,T1_SMS_5,155,5,42,127,368909624
85,4,4,T1_SMS_5,156,1,48,21,368918052
85,4,4,T1_SMS_5,157,1,48,27,369392896
85,4,4,T1_SMS_5,158,5,42,127,369410432
85,4,4,T1_SMS_5,159,5,42,127,369910136
85,4,4,T1_SMS_5,160,1,48,29,370381916
85,4,4,T1_SMS_5,161,5,42,127,370409772
85,4,4,T1_SMS_5,162,1,48,19,370468524
85,4,4,T1_SMS_5,163,1,48,24,370871564
85,4,4,T1_SMS_5,164,5,42,127,370909744
85,4,4,T1_SMS_5,165,1,48,22,371404764
85,4,4,T1_SMS_5,166,5,42,127,371410264
85,4,4,T1_SMS_5,167,1,48,20,371882896
85,4,4,T1_SMS_5,168,5,42,127,371909884
85,4,4,T1_SMS_5,169,1,48,26,372402588
85,4,4,T1_SMS_5,170,5,42,127,372409652
85,4,4,T1_SMS_5,171,1,48,22,372867924
85,4,4,T1_SMS_5,172,5,42,127,372909472
85,4,4,T1_SMS_5,173,1,48,20,373405768
85,4,4,T1_SMS_5,174,5,42,127,373410364
85,4,4,T1_SMS_5,175,1,48,21,373904568
85,4,4,T1_SMS_5,176,5,42,127,373909836
85,4,4,T1_SMS_5,177,5,42,127,374409536
85,4,4,T1_SMS_5,178,1,48,17,374413628
85,4,4,T1_SMS_5,179,1,48,23,374895348
85,4,4,T1_SMS_5,180,5,42,127,374910344
85,4,4,T1_SMS_5,181,1,48,18,375401928
85,4,4,T1_SMS_5,182,5,42,127,375409892
85,4,4,T1_SMS_5,183,1,48,20,375909744
85,4,4,T1_SMS_5,184,5,42,127,375911084
85,4,4,T1_SMS_5,185,1,48,22,376381124
85,4,4,T1_SMS_5,186,5,42,127,376409432
85,4,4,T1_SMS_5,187,1,48,22,376882612
85,4,4,T1_SMS_5,188,5,42,127,376910172
85,4,4,T1_SMS_5,189,1,48,21,377366000
85,4,4,T1_SMS_5,190,5,42,127,377410016
85,4,4,T1_SMS_5,191,1,48,21,377885368
85,4,4,T1_SMS_5,192,5,42,127,377909564
85,4,4,T1_SMS_5,193,1,48,16,378394640
85,4,4,T1_SMS_5,194,5,42,127,378410308
85,4,4,T1_SMS_5,195,1,48,23,378894560
85,4,4,T1_SMS_5,196,5,42,127,378910152
85,4,4,T1_SMS_5,197,1,48,23,379397096
85,4,4,T1_SMS_5,198,5,42,127,379409624
85,4,4,T1_SMS_5,199,1,48,23,379885720
85,4,4,T1_SMS_5,200,5,42,127,379909688
85,4,4,T1_SMS_5,201,5,42,127,380410216
85,4,4,T1_SMS_5,202,1,48,22,380412228
85,4,4,T1_SMS_5,203,5,42,127,380909908
85,4,4,T1_SMS_5,204,1,48,21,380911772
85,4,4,T1_SMS_5,205,1,48,19,381385776
85,4,4,T1_SMS_5,206,5,42,127,381409596
85,4,4,T1_SMS_5,207,1,48,23,381884196
85,4,4,T1_SMS_5,208,5,42,127,381910488
85,4,4,T1_SMS_5,209,1,48,21,382386060
85,4,4,T1_SMS_5,210,5,42,127,382410184
85,4,4,T1_SMS_5,211,5,42,127,382909736
85,4,4,T1_SMS_5,212,1,48,17,382929904
85,4,4,T1_SMS_5,213,1,48,20,383384980
85,4,4,T1_SMS_5,214,5,42,127,383409500
85,4,4,T1_SMS_5,215,1,48,19,383882284
85,4,4,T1_SMS_5,216,5,42,127,383910140
85,4,4,T1_SMS_5,217,5,42,127,384410064
85,4,4,T1_SMS_5,218,1,48,29,384898376
85,4,4,T1_SMS_5,219,5,42,127,384909628
85,4,4,T1_SMS_5,220,1,48,21,384976552
85,4,4,T1_SMS_5,221,1,48,22,385390264
85,4,4,T1_SMS_5,222,5,42,127,385410420
85,4,4,T1_SMS_5,223,1,48,20,385907164
85,4,4,T1_SMS_5,224,5,42,127,385910192
85,4,4,T1_SMS_5,225,1,48,19,386397216
85,4,4,T1_SMS_5,226,5,42,127,386409812
85,4,4,T1_SMS_5,227,1,48,22,386892492
85,4,4,T1_SMS_5,228,5,42,127,386909508
85,4,4,T1_SMS_5,229,5,42,127,387410256
85,4,4,T1_SMS_5,230,1,48,19,387424592
85,4,4,T1_SMS_5,231,1,48,27,387880660
85,4,4,T1_SMS_5,232,5,42,127,387910092
85,4,4,T1_SMS_5,233,1,48,21,388378260
85,4,4,T1_SMS_5,234,5,42,127,388409784
85,4,4,T1_SMS_5,235,5,42,127,388909636
85,4,4,T1_SMS_5,236,1,48,22,388940284
85,4,4,T1_SMS_5,237,1,48,21,389402232
85,4,4,T1_SMS_5,238,5,42,127,389410124
85,4,4,T1_SMS_5,239,5,42,127,389909972
85,4,4,T1_SMS_5,240,1,48,14,389915936
85,4,4,T1_SMS_5,241,1,48,23,390408992
85,4,4,T1_SMS_5,242,5,42,127,390410412
85,4,4,T1_SMS_5,243,1,48,24,390889128
85,4,4,T1_SMS_5,244,5,42,127,390910256
85,4,4,T1_SMS_5,245,1,48,21,391378204
85,4,4,T1_SMS_5,246,5,42,127,391410172
85,4,4,T1_SMS_5,247,5,42,127,391909728
85,4,4,T1_SMS_5,248,1,48,22,391939624
85,4,4,T1_SMS_5,249,1,48,28,392404216
85,4,4,T1_SMS_5,250,5,42,127,392409412
85,4,4,T1_SMS_5,251,1,48,19,392908420
85,4,4,T1_SMS_5,252,5,42,127,392910156
85,4,4,T1_SMS_5,253,1,48,21,393390492
85,4,4,T1_SMS_5,254,5,42,127,393410144
85,4,4,T1_SMS_5,255,1,48,21,393884424
85,4,4,T1_SMS_5,0,9999,9999,9999,328907836
85,4,4,T1_SMS_5,1,9999,9999,9999,329407552
85,4,4,T1_SMS_5,2,9999,9999,9999,329907268
85,4,4,T1_SMS_5,3,9999,9999,9999,330408008
85,4,4,T1_SMS_5,4,9999,9999,9999,330907704
85,4,4,T1_SMS_5,5,9999,9999,9999,331407416
85,4,4,T1_SMS_5,6,9999,9999,9999,331907188
85,4,4,T1_SMS_5,7,9999,9999,9999,332407928
85,4,4,T1_SMS_5,8,9999,9999,9999,332907624
85,4,4,T1_SMS_5,9,9999,9999,9999,333407316
85,4,4,T1_SMS_5,10,9999,9999,9999,333908060
85,4,4,T1_SMS_5,11,9999,9999,9999,334407756
85,4,4,T1_SMS_5,12,9999,9999,9999,334907448
85,4,4,T1_SMS_5,13,9999,9999,9999,335407220
85,4,4,T1_SMS_5,14,9999,9999,9999,335907960
85,4,4,T1_SMS_5,15,9999,9999,9999,336407656
85,4,4,T1_SMS_5,16,9999,9999,9999,336907352
85,4,4,T1_SMS_5,17,9999,9999,9999,337408096
85,4,4,T1_SMS_5,18,9999,9999,9999,337907796
85,4,4,T1_SMS_5,19,9999,9999,9999,338407484
85,4,4,T1_SMS_5,20,9999,9999,9999,338907252
85,4,4,T1_SMS_5,21,9999,9999,9999,339407920
85,4,4,T1_SMS_5,22,9999,9999,9999,339907692
85,4,4,T1_SMS_5,23,9999,9999,9999,340407384
85,4,4,T1_SMS_5,24,9999,9999,9999,340907060
85,4,4,T1_SMS_5,25,9999,9999,9999,341407844
85,4,4,T1_SMS_5,26,9999,9999,9999,341907540
85,4,4,T1_SMS_5,27,9999,9999,9999,342407236
85,4,4,T1_SMS_5,28,9999,9999,9999,342907976
85,4,4,T1_SMS_5,29,9999,9999,9999,343407672
85,4,4,T1_SMS_5,30,9999,9999,9999,343907444
85,4,4,T1_SMS_5,31,9999,9999,9999,344407140
85,4,4,T1_SMS_5,32,9999,9999,9999,344907884
85,4,4,T1_SMS_5,33,9999,9999,9999,345407576
85,4,4,T1_SMS_5,34,9999,9999,9999,345907272
85,4,4,T1_SMS_5,35,9999,9999,9999,346408016
85,4,4,T1_SMS_5,36,9999,9999,9999,346907708
85,4,4,T1_SMS_5,37,9999,9999,9999,347407480
85,4,4,T1_SMS_5,38,9999,9999,9999,347907176
85,4,4,T1_SMS_5,39,9999,9999,9999,348407916
85,4,4,T1_SMS_5,40,9999,9999,9999,348907612
85,4,4,T1_SMS_5,41,9999,9999,9999,349407312
85,4,4,T1_SMS_5,42,9999,9999,9999,349908048
85,4,4,T1_SMS_5,43,9999,9999,9999,350407744
85,4,4,T1_SMS_5,44,9999,9999,9999,350907512
85,4,4,T1_SMS_5,45,9999,9999,9999,351407184
85,4,4,T1_SMS_5,46,9999,9999,9999,351907900
85,4,4,T1_SMS_5,47,9999,9999,9999,352407668
85,4,4,T1_SMS_5,48,9999,9999,9999,352907364
85,4,4,T1_SMS_5,49,9999,9999,9999,353408104
85,4,4,T1_SMS_5,50,9999,9999,9999,353907808
85,4,4,T1_SMS_5,51,9999,9999,9999,354407516
85,4,4,T1_SMS_5,52,9999,9999,9999,354907196
85,4,4,T1_SMS_5,53,9999,9999,9999,355407936
85,4,4,T1_SMS_5,54,9999,9999,9999,355907700
85,4,4,T1_SMS_5,55,9999,9999,9999,356407396
85,4,4,T1_SMS_5,56,9999,9999,9999,356907092
85,4,4,T1_SMS_5,57,9999,9999,9999,357407832
85,4,4,T1_SMS_5,58,9999,9999,9999,357907528
85,4,4,T1_SMS_5,59,9999,9999,9999,358407224
85,4,4,T1_SMS_5,60,9999,9999,9999,358907968
85,4,4,T1_SMS_5,61,9999,9999,9999,359407664
85,4,4,T1_SMS_5,62,9999,9999,9999,359907440
85,4,4,T1_SMS_5,63,9999,9999,9999,360407156
85,4,4,T1_SMS_5,64,9999,9999,9999,360907892
85,4,4,T1_SMS_5,65,9999,9999,9999,361407588
85,4,4,T1_SMS_5,66,9999,9999,9999,361907284
85,4,4,T1_SMS_5,67,9999,9999,9999,362408008
85,4,4,T1_SMS_5,68,9999,9999,9999,362907704
85,4,4,T1_SMS_5,69,9999,9999,9999,363407468
85,4,4,T1_SMS_5,70,9999,9999,9999,363907164
85,4,4,T1_SMS_5,71,9999,9999,9999,364407904
85,4,4,T1_SMS_5,72,9999,9999,9999,364907600
85,4,4,T1_SMS_5,73,9999,9999,9999,365407296
85,4,4,T1_SMS_5,74,9999,9999,9999,365908040
85,4,4,T1_SMS_5,75,9999,9999,9999,366407740
85,4,4,T1_SMS_5,76,9999,9999,9999,366907500
85,4,4,T1_SMS_5,77,9999,9999,9999,367407196
85,4,4,T1_SMS_5,78,9999,9999,9999,367907940
85,4,4,T1_SMS_5,79,9999,9999,9999,368407640
85,4,4,T1_SMS_5,80,9999,9999,9999,368907336
85,4,4,T1_SMS_5,81,9999,9999,9999,369408072
85,4,4,T1_SMS_5,82,9999,9999,9999,369907776
85,4,4,T1_SMS_5,83,9999,9999,9999,370407488
85,4,4,T1_SMS_5,84,9999,9999,9999,370907232
85,4,4,T1_SMS_5,85,9999,9999,9999,371407976
85,4,4,T1_SMS_5,86,9999,9999,9999,371907672
85,4,4,T1_SMS_5,87,9999,9999,9999,372407368
85,4,4,T1_SMS_5,88,9999,9999,9999,372907112
85,4,4,T1_SMS_5,89,9999,9999,9999,373407856
85,4,4,T1_SMS_5,90,9999,9999,9999,373907548
85,4,4,T1_SMS_5,91,9999,9999,9999,374407252
85,4,4,T1_SMS_5,92,9999,9999,9999,374907984
85,4,4,T1_SMS_5,93,9999,9999,9999,375407680
85,4,4,T1_SMS_5,94,9999,9999,9999,375907384
85,4,4,T1_SMS_5,95,9999,9999,9999,376407144
85,4,4,T1_SMS_5,96,9999,9999,9999,376907888
85,4,4,T1_SMS_5,97,9999,9999,9999,377407584
85,4,4,T1_SMS_5,98,9999,9999,9999,377907276
85,4,4,T1_SMS_5,99,9999,9999,9999,378408020
85,4,4,T1_SMS_5,100,9999,9999,9999,378907716
85,4,4,T1_SMS_5,101,9999,9999,9999,379407412
85,4,4,T1_SMS_5,102,9999,9999,9999,379907180
85,4,4,T1_SMS_5,103,9999,9999,9999,380407928
85,4,4,T1_SMS_5,104,9999,9999,9999,380907624
85,4,4,T1_SMS_5,105,9999,9999,9999,381407312
85,4,4,T1_SMS_5,106,9999,9999,9999,381908052
85,4,4,T1_SMS_5,107,9999,9999,9999,382407748
85,4,4,T1_SMS_5,108,9999,9999,9999,382907448
85,4,4,T1_SMS_5,109,9999,9999,9999,383407188
85,4,4,T1_SMS_5,110,9999,9999,9999,383907928
85,4,4,T1_SMS_5,111,9999,9999,9999,384407628
85,4,4,T1_SMS_5,112,9999,9999,9999,384907340
85,4,4,T1_SMS_5,113,9999,9999,9999,385408060
85,4,4,T1_SMS_5,114,9999,9999,9999,385907828
85,4,4,T1_SMS_5,115,9999,9999,9999,386407528
85,4,4,T1_SMS_5,116,9999,9999,9999,386907220
85,4,4,T1_SMS_5,117,9999,9999,9999,387407968
85,4,4,T1_SMS_5,118,9999,9999,9999,387907656
85,4,4,T1_SMS_5,119,9999,9999,9999,388407348
85,4,4,T1_SMS_5,120,9999,9999,9999,388907128
85,4,4,T1_SMS_5,121,9999,9999,9999,389407836
85,4,4,T1_SMS_5,122,9999,9999,9999,389907540
85,4,4,T1_SMS_5,123,9999,9999,9999,390407232
85,4,4,T1_SMS_5,124,9999,9999,9999,390907968
85,4,4,T1_SMS_5,125,9999,9999,9999,391407664
85,4,4,T1_SMS_5,126,9999,9999,9999,391907440
85,4,4,T1_SMS_5,127,9999,9999,9999,392407128
85,4,4,T1_SMS_5,128,9999,9999,9999,392907892
85,4,4,T1_SMS_5,129,9999,9999,9999,393407560
85,5,2,T1_SMS_8,0,5,42,127,499514856
85,5,2,T1_SMS_8,1,5,42,127,500314536
85,5,2,T1_SMS_8,2,5,42,127,501115340
85,5,2,T1_SMS_8,3,1,48,28,501117636
85,5,2,T1_SMS_8,4,5,42,127,501915148
85,5,2,T1_SMS_8,5,1,48,29,501951128
85,5,2,T1_SMS_8,6,5,42,127,502714828
85,5,2,T1_SMS_8,7,1,48,30,502716316
85,5,2,T1_SMS_8,8,5,42,127,503514412
85,5,2,T1_SMS_8,9,1,48,28,503539824
85,5,2,T1_SMS_8,10,1,48,25,504288900
85,5,2,T1_SMS_8,11,5,42,127,504315112
85,5,2,T1_SMS_8,12,5,42,127,505115076
85,5,2,T1_SMS_8,13,1,48,26,505115968
85,5,2,T1_SMS_8,14,1,48,29,505883880
85,5,2,T1_SMS_8,15,5,42,127,505914656
85,5,2,T1_SMS_8,16,1,48,26,506698200
85,5,2,T1_SMS_8,17,5,42,127,506714388
85,5,2,T1_SMS_8,18,1,48,25,507445944
85,5,2,T1_SMS_8,19,5,42,127,507515092
85,5,2,T1_SMS_8,20,1,48,24,508260416
85,5,2,T1_SMS_8,21,5,42,127,508315196
85,5,2,T1_SMS_8,22,1,48,24,509072336
85,5,2,T1_SMS_8,23,5,42,127,509115104
85,5,2,T1_SMS_8,24,1,48,20,509892668
85,5,2,T1_SMS_8,25,5,42,127,509914540
85,5,2,T1_SMS_8,26,1,48,21,510711400
85,5,2,T1_SMS_8,27,5,42,127,510715172
85,5,2,T1_SMS_8,28,5,42,127,511515060
85,5,2,T1_SMS_8,29,1,48,16,511580036
85,5,2,T1_SMS_8,30,5,42,127,512314944
85,5,2,T1_SMS_8,31,1,48,20,512322776
85,5,2,T1_SMS_8,32,1,48,24,513085764
85,5,2,T1_SMS_8,33,5,42,127,513114596
85,5,2,T1_SMS_8,34,1,48,24,513902632
85,5,2,T1_SMS_8,35,5,42,127,513915228
85,5,2,T1_SMS_8,36,1,48,20,514699892
85,5,2,T1_SMS_8,37,5,42,127,514714960
85,5,2,T1_SMS_8,38,1,48,23,515475768
85,5,2,T1_SMS_8,39,5,42,127,515514940
85,5,2,T1_SMS_8,40,1,48,19,516313780
85,5,2,T1_SMS_8,41,5,42,127,516315348
85,5,2,T1_SMS_8,42,1,48,18,517093732
85,5,2,T1_SMS_8,43,5,42,127,517115308
85,5,2,T1_SMS_8,44,1,48,20,517865336
85,5,2,T1_SMS_8,45,5,42,127,517914964
85,5,2,T1_SMS_8,46,1,48,19,518681608
85,5,2,T1_SMS_8,47,5,42,127,518714700
85,5,2,T1_SMS_8,48,1,48,23,519475128
85,5,2,T1_SMS_8,49,5,42,127,519514656
85,5,2,T1_SMS_8,50,5,42,127,520315292
85,5,2,T1_SMS_8,51,1,48,23,520360896
85,5,2,T1_SMS_8,52,5,42,127,521114928
85,5,2,T1_SMS_8,53,1,48,20,521158840
85,5,2,T1_SMS_8,54,1,48,24,521893528
85,5,2,T1_SMS_8,55,5,42,127,521914680
85,5,2,T1_SMS_8,56,1,48,25,522677436
85,5,2,T1_SMS_8,57,5,42,127,522714860
85,5,2,T1_SMS_8,58,5,42,127,523515276
85,5,2,T1_SMS_8,59,1,48,21,523566196
85,5,2,T1_SMS_8,60,1,48,23,524315084
85,5,2,T1_SMS_8,61,5,42,127,524316272
85,5,2,T1_SMS_8,62,5,42,127,525114596
85,5,2,T1_SMS_8,63,1,48,24,525118764
85,5,2,T1_SMS_8,64,5,42,127,525914552
85,5,2,T1_SMS_8,65,1,48,23,525928672
85,5,2,T1_SMS_8,66,1,48,21,526667948
85,5,2,T1_SMS_8,67,5,42,127,526715248
85,5,2,T1_SMS_8,68,5,42,127,527514916
85,5,2,T1_SMS_8,69,1,48,19,527516032
85,5,2,T1_SMS_8,70,1,48,17,528308504
85,5,2,T1_SMS_8,71,5,42,127,528314816
85,5,2,T1_SMS_8,72,1,48,20,529042688
85,5,2,T1_SMS_8,73,5,42,127,529114548
85,5,2,T1_SMS_8,74,5,42,127,529915264
85,5,2,T1_SMS_8,75,1,48,26,529916824
85,5,2,T1_SMS_8,76,1,48,23,530673364
85,5,2,T1_SMS_8,77,5,42,127,530714916
85,5,2,T1_SMS_8,78,1,48,24,531446324
85,5,2,T1_SMS_8,79,5,42,127,531514648
85,5,2,T1_SMS_8,80,1,48,24,532247928
85,5,2,T1_SMS_8,81,5,42,127,532314604
85,5,2,T1_SMS_8,82,1,48,19,533094560
85,5,2,T1_SMS_8,83,5,42,127,533115236
85,5,2,T1_SMS_8,84,1,48,19,533911724
85,5,2,T1_SMS_8,85,5,42,127,533915044
85,5,2,T1_SMS_8,86,1,48,19,534693500
85,5,2,T1_SMS_8,87,5,42,127,534714804
85,5,2,T1_SMS_8,88,1,48,20,535472092
85,5,2,T1_SMS_8,89,5,42,127,535514464
85,5,2,T1_SMS_8,90,1,48,20,536244304
85,5,2,T1_SMS_8,91,5,42,127,536315540
85,5,2,T1_SMS_8,92,1,48,20,537049572
85,5,2,T1_SMS_8,93,5,42,127,537114976
85,5,2,T1_SMS_8,94,1,48,21,537834648
85,5,2,T1_SMS_8,95,5,42,127,537914636
85,5,2,T1_SMS_8,96,1,48,22,538660036
85,5,2,T1_SMS_8,97,5,42,127,538714444
85,5,2,T1_SMS_8,98,1,48,24,539417580
85,5,2,T1_SMS_8,99,5,42,127,539515508
85,5,2,T1_SMS_8,100,5,42,127,540314892
85,5,2,T1_SMS_8,101,1,48,20,540317636
85,5,2,T1_SMS_8,102,1,48,20,541103012
85,5,2,T1_SMS_8,103,5,42,127,541114792
85,5,2,T1_SMS_8,104,1,48,21,541902900
85,5,2,T1_SMS_8,105,5,42,127,541914528
85,5,2,T1_SMS_8,106,1,48,19,542669796
85,5,2,T1_SMS_8,107,5,42,127,542715380
85,5,2,T1_SMS_8,108,1,48,19,543489576
85,5,2,T1_SMS_8,109,5,42,127,543514892
85,5,2,T1_SMS_8,110,1,48,20,544310480
85,5,2,T1_SMS_8,111,5,42,127,544314848
85,5,2,T1_SMS_8,112,5,42,127,545114440
85,5,2,T1_SMS_8,113,1,48,21,545137984
85,5,2,T1_SMS_8,114,1,48,22,545902388
85,5,2,T1_SMS_8,115,5,42,127,545915360
85,5,2,T1_SMS_8,116,5,42,127,546714876
85,5,2,T1_SMS_8,117,1,48,21,546728940
85,5,2,T1_SMS_8,118,1,48,20,547513580
85,5,2,T1_SMS_8,119,5,42,127,547514928
85,5,2,T1_SMS_8,120,5,42,127,548314520
85,5,2,T1_SMS_8,121,1,48,23,548316388
85,5,2,T1_SMS_8,122,5,42,127,549115372
85,5,2,T1_SMS_8,123,1,48,18,549125304
85,5,2,T1_SMS_8,124,5,42,127,549914960
85,5,2,T1_SMS_8,125,1,48,22,549941344
85,5,2,T1_SMS_8,126,5,42,127,550714692
85,5,2,T1_SMS_8,127,1,48,18,550730004
85,5,2,T1_SMS_8,128,5,42,127,551514500
85,5,2,T1_SMS_8,129,1,48,19,551525096
85,5,2,T1_SMS_8,130,1,48,20,552305740
85,5,2,T1_SMS_8,131,5,42,127,552315196
85,5,2,T1_SMS_8,132,1,48,17,553079220
85,5,2,T1_SMS_8,133,5,42,127,553115080
85,5,2,T1_SMS_8,134,1,48,20,553901640
85,5,2,T1_SMS_8,135,5,42,127,553914616
85,5,2,T1_SMS_8,136,1,48,19,554683048
85,5,2,T1_SMS_8,137,5,42,127,554714496
85,5,2,T1_SMS_8,138,1,48,18,555498940
85,5,2,T1_SMS_8,139,5,42,127,555515128
85,5,2,T1_SMS_8,140,1,48,18,556280948
85,5,2,T1_SMS_8,141,5,42,127,556315160
85,5,2,T1_SMS_8,142,5,42,127,557114604
85,5,2,T1_SMS_8,143,1,48,19,557120940
85,5,2,T1_SMS_8,144,5,42,127,557914412
85,5,2,T1_SMS_8,145,1,48,17,557958376
85,5,2,T1_SMS_8,146,1,48,19,558701092
85,5,2,T1_SMS_8,147,5,42,127,558715332
85,5,2,T1_SMS_8,148,5,42,127,559515076
85,5,2,T1_SMS_8,149,1,48,25,560305012
85,5,2,T1_SMS_8,150,5,42,127,560314848
85,5,2,T1_SMS_8,151,1,48,20,561102208
85,5,2,T1_SMS_8,152,5,42,127,561114580
85,5,2,T1_SMS_8,153,1,48,19,561889900
85,5,2,T1_SMS_8,154,5,42,127,561915212
85,5,2,T1_SMS_8,155,5,42,127,562714952
85,5,2,T1_SMS_8,156,1,48,19,562733628
85,5,2,T1_SMS_8,157,5,42,127,563514684
85,5,2,T1_SMS_8,158,1,48,21,563549520
85,5,2,T1_SMS_8,159,1,48,19,564280496
85,5,2,T1_SMS_8,160,5,42,127,564314412
85,5,2,T1_SMS_8,161,1,48,19,565066536
85,5,2,T1_SMS_8,162,5,42,127,565115192
85,5,2,T1_SMS_8,163,5,42,127,565915080
85,5,2,T1_SMS_8,164,1,48,16,565933036
85,5,2,T1_SMS_8,165,1,48,27,566639684
85,5,2,T1_SMS_8,166,5,42,127,566714832
85,5,2,T1_SMS_8,167,5,42,127,567514500
85,5,2,T1_SMS_8,168,1,48,20,567554940
85,5,2,T1_SMS_8,169,5,42,127,568315280
85,5,2,T1_SMS_8,170,1,48,26,568316244
85,5,2,T1_SMS_8,171,5,42,127,569115088
85,5,2,T1_SMS_8,172,1,48,25,569117460
85,5,2,T1_SMS_8,173,1,48,26,569898628
85,5,2,T1_SMS_8,174,5,42,127,569914816
85,5,2,T1_SMS_8,175,1,48,24,570699632
85,5,2,T1_SMS_8,176,5,42,127,570714324
85,5,2,T1_SMS_8,177,5,42,127,571515188
85,5,2,T1_SMS_8,178,1,48,24,571534236
85,5,2,T1_SMS_8,179,5,42,127,572315068
85,5,2,T1_SMS_8,180,1,48,22,572366988
85,5,2,T1_SMS_8,181,1,48,30,573068616
85,5,2,T1_SMS_8,182,5,42,127,573114968
85,5,2,T1_SMS_8,183,5,42,127,573914412
85,5,2,T1_SMS_8,184,1,48,25,573917008
85,5,2,T1_SMS_8,185,5,42,127,574715116
85,5,2,T1_SMS_8,186,1,48,25,574749876
85,5,2,T1_SMS_8,187,5,42,127,575514848
85,5,2,T1_SMS_8,188,1,48,24,575597108
85,5,2,T1_SMS_8,189,1,48,27,576272580
85,5,2,T1_SMS_8,190,5,42,127,576314948
85,5,2,T1_SMS_8,191,1,48,26,577069992
85,5,2,T1_SMS_8,192,5,42,127,577114532
85,5,2,T1_SMS_8,193,5,42,127,577915096
85,5,2,T1_SMS_8,194,1,48,24,577970676
85,5,2,T1_SMS_8,195,1,48,19,578667216
85,5,2,T1_SMS_8,196,5,42,127,578714896
85,5,2,T1_SMS_8,197,1,48,24,579425884
85,5,2,T1_SMS_8,198,5,42,127,579514952
85,5,2,T1_SMS_8,199,1,48,25,580282640
85,5,2,T1_SMS_8,200,5,42,127,580314464
85,5,2,T1_SMS_8,201,1,48,24,581100324
85,5,2,T1_SMS_8,202,5,42,127,581115092
85,5,2,T1_SMS_8,203,1,48,21,581914228
85,5,2,T1_SMS_8,204,5,42,127,581915872
85,5,2,T1_SMS_8,205,1,48,21,582689024
85,5,2,T1_SMS_8,206,5,42,127,582714708
85,5,2,T1_SMS_8,207,5,42,127,583514820
85,5,2,T1_SMS_8,208,1,48,21,583532300
85,5,2,T1_SMS_8,209,5,42,127,584315228
85,5,2,T1_SMS_8,210,1,48,21,584371480
85,5,2,T1_SMS_8,211,1,48,24,585050300
85,5,2,T1_SMS_8,212,5,42,127,585114880
85,5,2,T1_SMS_8,213,1,48,24,585855564
85,5,2,T1_SMS_8,214,5,42,127,585914860
85,5,2,T1_SMS_8,215,1,48,20,586675664
85,5,2,T1_SMS_8,216,5,42,127,586714744
85,5,2,T1_SMS_8,217,1,48,22,587498664
85,5,2,T1_SMS_8,218,5,42,127,587515372
85,5,2,T1_SMS_8,219,5,42,127,588315040
85,5,2,T1_SMS_8,220,1,48,28,588319956
85,5,2,T1_SMS_8,221,5,42,127,589114848
85,5,2,T1_SMS_8,222,5,42,127,589914604
85,5,2,T1_SMS_8,223,1,48,24,589951456
85,5,2,T1_SMS_8,224,5,42,127,590715232
85,5,2,T1_SMS_8,225,1,48,27,590721940
85,5,2,T1_SMS_8,226,1,48,27,591479768
85,5,2,T1_SMS_8,227,5,42,127,591514960
85,5,2,T1_SMS_8,228,1,48,29,592233352
85,5,2,T1_SMS_8,229,5,42,127,592314792
85,5,2,T1_SMS_8,230,1,48,27,593109040
85,5,2,T1_SMS_8,231,5,42,127,593114452
85,5,2,T1_SMS_8,232,1,48,27,593884980
85,5,2,T1_SMS_8,233,5,42,127,593915232
85,5,2,T1_SMS_8,234,1,48,26,594671104
85,5,2,T1_SMS_8,235,5,42,127,594714968
85,5,2,T1_SMS_8,0,9999,9999,9999,499512420
85,5,2,T1_SMS_8,1,9999,9999,9999,500312176
85,5,2,T1_SMS_8,2,9999,9999,9999,501112904
85,5,2,T1_SMS_8,3,9999,9999,9999,501912636
85,5,2,T1_SMS_8,4,9999,9999,9999,502712392
85,5,2,T1_SMS_8,5,9999,9999,9999,503512124
85,5,2,T1_SMS_8,6,9999,9999,9999,504312900
85,5,2,T1_SMS_8,7,9999,9999,9999,505112640
85,5,2,T1_SMS_8,8,9999,9999,9999,505912368
85,5,2,T1_SMS_8,9,9999,9999,9999,506712172
85,5,2,T1_SMS_8,10,9999,9999,9999,507512880
85,5,2,T1_SMS_8,11,9999,9999,9999,508312684
85,5,2,T1_SMS_8,12,9999,9999,9999,509112368
85,5,2,T1_SMS_8,13,9999,9999,9999,509912180
85,5,2,T1_SMS_8,14,9999,9999,9999,510712884
85,5,2,T1_SMS_8,15,9999,9999,9999,511512624
85,5,2,T1_SMS_8,16,9999,9999,9999,512312432
85,5,2,T1_SMS_8,17,9999,9999,9999,513112160
85,5,2,T1_SMS_8,18,9999,9999,9999,513912940
85,5,2,T1_SMS_8,19,9999,9999,9999,514712672
85,5,2,T1_SMS_8,20,9999,9999,9999,515512432
85,5,2,T1_SMS_8,21,9999,9999,9999,516312172
85,5,2,T1_SMS_8,22,9999,9999,9999,517112944
85,5,2,T1_SMS_8,23,9999,9999,9999,517912676
85,5,2,T1_SMS_8,24,9999,9999,9999,518712412
85,5,2,T1_SMS_8,25,9999,9999,9999,519512148
85,5,2,T1_SMS_8,26,9999,9999,9999,520312932
85,5,2,T1_SMS_8,27,9999,9999,9999,521112640
85,5,2,T1_SMS_8,28,9999,9999,9999,521912396
85,5,2,T1_SMS_8,29,9999,9999,9999,522712128
85,5,2,T1_SMS_8,30,9999,9999,9999,523512912
85,5,2,T1_SMS_8,31,9999,9999,9999,524312648
85,5,2,T1_SMS_8,32,9999,9999,9999,525112380
85,5,2,T1_SMS_8,33,9999,9999,9999,525912116
85,5,2,T1_SMS_8,34,9999,9999,9999,526712888
85,5,2,T1_SMS_8,35,9999,9999,9999,527512628
85,5,2,T1_SMS_8,36,9999,9999,9999,528312380
85,5,2,T1_SMS_8,37,9999,9999,9999,529112112
85,5,2,T1_SMS_8,38,9999,9999,9999,529912900
85,5,2,T1_SMS_8,39,9999,9999,9999,530712624
85,5,2,T1_SMS_8,40,9999,9999,9999,531512436
85,5,2,T1_SMS_8,41,9999,9999,9999,532312168
85,5,2,T1_SMS_8,42,9999,9999,9999,533112948
85,5,2,T1_SMS_8,43,9999,9999,9999,533912684
85,5,2,T1_SMS_8,44,9999,9999,9999,534712364
85,5,2,T1_SMS_8,45,9999,9999,9999,535512176
85,5,2,T1_SMS_8,46,9999,9999,9999,536312880
85,5,2,T1_SMS_8,47,9999,9999,9999,537112688
85,5,2,T1_SMS_8,48,9999,9999,9999,537912424
85,5,2,T1_SMS_8,49,9999,9999,9999,538712156
85,5,2,T1_SMS_8,50,9999,9999,9999,539512920
85,5,2,T1_SMS_8,51,9999,9999,9999,540312676
85,5,2,T1_SMS_8,52,9999,9999,9999,541112428
85,5,2,T1_SMS_8,53,9999,9999,9999,541912164
85,5,2,T1_SMS_8,54,9999,9999,9999,542712944
85,5,2,T1_SMS_8,55,9999,9999,9999,543512680
85,5,2,T1_SMS_8,56,9999,9999,9999,544312412
85,5,2,T1_SMS_8,57,9999,9999,9999,545112152
85,5,2,T1_SMS_8,58,9999,9999,9999,545912924
85,5,2,T1_SMS_8,59,9999,9999,9999,546712664
85,5,2,T1_SMS_8,60,9999,9999,9999,547512424
85,5,2,T1_SMS_8,61,9999,9999,9999,548312156
85,5,2,T1_SMS_8,62,9999,9999,9999,549112936
85,5,2,T1_SMS_8,63,9999,9999,9999,549912672
85,5,2,T1_SMS_8,64,9999,9999,9999,550712404
85,5,2,T1_SMS_8,65,9999,9999,9999,551512136
85,5,2,T1_SMS_8,66,9999,9999,9999,552312908
85,5,2,T1_SMS_8,67,9999,9999,9999,553112644
85,5,2,T1_SMS_8,68,9999,9999,9999,553912400
85,5,2,T1_SMS_8,69,9999,9999,9999,554712136
85,5,2,T1_SMS_8,70,9999,9999,9999,555512916
85,5,2,T1_SMS_8,71,9999,9999,9999,556312648
85,5,2,T1_SMS_8,72,9999,9999,9999,557112392
85,5,2,T1_SMS_8,73,9999,9999,9999,557912124
85,5,2,T1_SMS_8,74,9999,9999,9999,558712896
85,5,2,T1_SMS_8,75,9999,9999,9999,559512636
85,5,2,T1_SMS_8,76,9999,9999,9999,560312412
85,5,2,T1_SMS_8,77,9999,9999,9999,561112144
85,5,2,T1_SMS_8,78,9999,9999,9999,561912924
85,5,2,T1_SMS_8,79,9999,9999,9999,562712664
85,5,2,T1_SMS_8,80,9999,9999,9999,563512396
85,5,2,T1_SMS_8,81,9999,9999,9999,564312124
85,5,2,T1_SMS_8,82,9999,9999,9999,565112904
85,5,2,T1_SMS_8,83,9999,9999,9999,565912644
85,5,2,T1_SMS_8,84,9999,9999,9999,566712396
85,5,2,T1_SMS_8,85,9999,9999,9999,567512136
85,5,2,T1_SMS_8,86,9999,9999,9999,568312916
85,5,2,T1_SMS_8,87,9999,9999,9999,569112652
85,5,2,T1_SMS_8,88,9999,9999,9999,569912380
85,5,2,T1_SMS_8,89,9999,9999,9999,570712112
85,5,2,T1_SMS_8,90,9999,9999,9999,571512900
85,5,2,T1_SMS_8,91,9999,9999,9999,572312632
85,5,2,T1_SMS_8,92,9999,9999,9999,573112384
85,5,2,T1_SMS_8,93,9999,9999,9999,573912124
85,5,2,T1_SMS_8,94,9999,9999,9999,574712904
85,5,2,T1_SMS_8,95,9999,9999,9999,575512636
85,5,2,T1_SMS_8,96,9999,9999,9999,576312436
85,5,2,T1_SMS_8,97,9999,9999,9999,577112172
85,5,2,T1_SMS_8,98,9999,9999,9999,577912884
85,5,2,T1_SMS_8,99,9999,9999,9999,578712684
85,5,2,T1_SMS_8,100,9999,9999,9999,579512368
85,5,2,T1_SMS_8,101,9999,9999,9999,580312176
85,5,2,T1_SMS_8,102,9999,9999,9999,581112880
85,5,2,T1_SMS_8,103,9999,9999,9999,581912696
85,5,2,T1_SMS_8,104,9999,9999,9999,582712420
85,5,2,T1_SMS_8,105,9999,9999,9999,583512160
85,5,2,T1_SMS_8,106,9999,9999,9999,584312940
85,5,2,T1_SMS_8,107,9999,9999,9999,585112668
85,5,2,T1_SMS_8,108,9999,9999,9999,585912424
85,5,2,T1_SMS_8,109,9999,9999,9999,586712156
85,5,2,T1_SMS_8,110,9999,9999,9999,587512936
85,5,2,T1_SMS_8,111,9999,9999,9999,588312676
85,5,2,T1_SMS_8,112,9999,9999,9999,589112412
85,5,2,T1_SMS_8,113,9999,9999,9999,589912164
85,5,2,T1_SMS_8,114,9999,9999,9999,590712944
85,5,2,T1_SMS_8,115,9999,9999,9999,591512672
85,5,2,T1_SMS_8,116,9999,9999,9999,592312428
85,5,2,T1_SMS_8,117,9999,9999,9999,593112164
85,5,2,T1_SMS_8,118,9999,9999,9999,593912944
85,5,2,T1_SMS_8,119,9999,9999,9999,594712680
85,6,21,Ticks_Linear_5,0,5,42,127,605398396
85,6,21,Ticks_Linear_5,1,5,42,127,605877600
85,6,21,Ticks_Linear_5,2,5,42,127,606357900
85,6,21,Ticks_Linear_5,3,5,42,127,606838296
85,6,21,Ticks_Linear_5,4,1,48,19,607271692
85,6,21,Ticks_Linear_5,5,5,42,127,607318316
85,6,21,Ticks_Linear_5,6,1,48,19,607723912
85,6,21,Ticks_Linear_5,7,5,42,127,607807832
85,6,21,Ticks_Linear_5,8,1,48,20,608240464
85,6,21,Ticks_Linear_5,9,5,42,127,608298244
85,6,21,Ticks_Linear_5,10,1,48,19,608745712
85,6,21,Ticks_Linear_5,11,5,42,127,608787760
85,6,21,Ticks_Linear_5,12,1,48,23,609227512
85,6,21,Ticks_Linear_5,13,5,42,127,609278396
85,6,21,Ticks_Linear_5,14,1,48,19,609718972
85,6,21,Ticks_Linear_5,15,5,42,127,609767764
85,6,21,Ticks_Linear_5,16,1,48,16,610216800
85,6,21,Ticks_Linear_5,17,5,42,127,610267464
85,6,21,Ticks_Linear_5,18,1,48,21,610718876
85,6,21,Ticks_Linear_5,19,5,42,127,610768360
85,6,21,Ticks_Linear_5,20,1,48,19,611210628
85,6,21,Ticks_Linear_5,21,5,42,127,611267912
85,6,21,Ticks_Linear_5,22,1,48,21,611705524
85,6,21,Ticks_Linear_5,23,5,42,127,611767536
85,6,21,Ticks_Linear_5,24,1,48,19,612239684
85,6,21,Ticks_Linear_5,25,5,42,127,612268280
85,6,21,Ticks_Linear_5,26,1,48,19,612737364
85,6,21,Ticks_Linear_5,27,5,42,127,612778312
85,6,21,Ticks_Linear_5,28,1,48,18,613233384
85,6,21,Ticks_Linear_5,29,5,42,127,613288348
85,6,21,Ticks_Linear_5,30,1,48,18,613741700
85,6,21,Ticks_Linear_5,31,5,42,127,613798232
85,6,21,Ticks_Linear_5,32,1,48,19,614247020
85,6,21,Ticks_Linear_5,33,5,42,127,614308240
85,6,21,Ticks_Linear_5,34,1,48,17,614784424
85,6,21,Ticks_Linear_5,35,5,42,127,614818248
85,6,21,Ticks_Linear_5,36,1,48,17,615291220
85,6,21,Ticks_Linear_5,37,5,42,127,615338316
85,6,21,Ticks_Linear_5,38,1,48,19,615817056
85,6,21,Ticks_Linear_5,39,5,42,127,615857560
85,6,21,Ticks_Linear_5,40,1,48,20,616337876
85,6,21,Ticks_Linear_5,41,5,42,127,616377628
85,6,21,Ticks_Linear_5,42,1,48,19,616841612
85,6,21,Ticks_Linear_5,43,5,42,127,616897848
85,6,21,Ticks_Linear_5,44,1,48,16,617353960
85,6,21,Ticks_Linear_5,45,5,42,127,617418364
85,6,21,Ticks_Linear_5,46,1,48,20,617870520
85,6,21,Ticks_Linear_5,47,5,42,127,617947424
85,6,21,Ticks_Linear_5,48,1,48,19,618413968
85,6,21,Ticks_Linear_5,49,5,42,127,618478268
85,6,21,Ticks_Linear_5,50,1,48,17,618945348
85,6,21,Ticks_Linear_5,51,5,42,127,619008380
85,6,21,Ticks_Linear_5,52,1,48,19,619474480
85,6,21,Ticks_Linear_5,53,5,42,127,619538032
85,6,21,Ticks_Linear_5,54,5,42,127,620068216
85,6,21,Ticks_Linear_5,55,1,48,20,620113124
85,6,21,Ticks_Linear_5,56,1,48,19,620599328
85,6,21,Ticks_Linear_5,57,5,42,127,620608048
85,6,21,Ticks_Linear_5,58,1,48,19,621131444
85,6,21,Ticks_Linear_5,59,5,42,127,621147516
85,6,21,Ticks_Linear_5,60,1,48,19,621648892
85,6,21,Ticks_Linear_5,61,5,42,127,621688176
85,6,21,Ticks_Linear_5,62,1,48,19,622211200
85,6,21,Ticks_Linear_5,63,5,42,127,622228016
85,6,21,Ticks_Linear_5,64,5,42,127,622767588
85,6,21,Ticks_Linear_5,65,1,48,17,622770260
85,6,21,Ticks_Linear_5,66,1,48,17,623257708
85,6,21,Ticks_Linear_5,67,5,42,127,623318352
85,6,21,Ticks_Linear_5,68,1,48,19,623808728
85,6,21,Ticks_Linear_5,69,5,42,127,623868228
85,6,21,Ticks_Linear_5,70,1,48,19,624375816
85,6,21,Ticks_Linear_5,71,5,42,127,624418104
85,6,21,Ticks_Linear_5,72,1,48,19,624916040
85,6,21,Ticks_Linear_5,73,5,42,127,624968052
85,6,21,Ticks_Linear_5,74,1,48,19,625485988
85,6,21,Ticks_Linear_5,75,5,42,127,625518000
85,6,21,Ticks_Linear_5,76,1,48,18,626049784
85,6,21,Ticks_Linear_5,77,5,42,127,626077988
85,6,21,Ticks_Linear_5,78,1,48,19,626612488
85,6,21,Ticks_Linear_5,79,5,42,127,626638144
85,6,21,Ticks_Linear_5,80,1,48,17,627192016
85,6,21,Ticks_Linear_5,81,5,42,127,627198276
85,6,21,Ticks_Linear_5,82,1,48,18,627738976
85,6,21,Ticks_Linear_5,83,5,42,127,627757364
85,6,21,Ticks_Linear_5,84,1,48,18,628314452
85,6,21,Ticks_Linear_5,85,5,42,127,628317500
85,6,21,Ticks_Linear_5,86,1,48,17,628825396
85,6,21,Ticks_Linear_5,87,5,42,127,628887964
85,6,21,Ticks_Linear_5,88,1,48,17,629443208
85,6,21,Ticks_Linear_5,89,5,42,127,629458232
85,6,21,Ticks_Linear_5,90,1,48,17,629989424
85,6,21,Ticks_Linear_5,91,5,42,127,630027580
85,6,21,Ticks_Linear_5,92,1,48,18,630583244
85,6,21,Ticks_Linear_5,93,5,42,127,630597896
85,6,21,Ticks_Linear_5,94,1,48,18,631152068
85,6,21,Ticks_Linear_5,95,5,42,127,631168288
85,6,21,Ticks_Linear_5,96,1,48,19,631738292
85,6,21,Ticks_Linear_5,97,5,42,127,631748068
85,6,21,Ticks_Linear_5,98,1,48,18,632297452
85,6,21,Ticks_Linear_5,99,5,42,127,632327524
85,6,21,Ticks_Linear_5,100,1,48,18,632876088
85,6,21,Ticks_Linear_5,101,5,42,127,632908100
85,6,21,Ticks_Linear_5,102,1,48,19,633440856
85,6,21,Ticks_Linear_5,103,5,42,127,633487856
85,6,21,Ticks_Linear_5,104,1,48,19,634013416
85,6,21,Ticks_Linear_5,105,5,42,127,634068308
85,6,21,Ticks_Linear_5,106,1,48,18,634593796
85,6,21,Ticks_Linear_5,107,5,42,127,634658172
85,6,21,Ticks_Linear_5,108,1,48,15,635205524
85,6,21,Ticks_Linear_5,109,5,42,127,635248112
85,6,21,Ticks_Linear_5,110,1,48,19,635809404
85,6,21,Ticks_Linear_5,111,5,42,127,635837852
85,6,21,Ticks_Linear_5,112,1,48,18,636421832
85,6,21,Ticks_Linear_5,113,5,42,127,636427792
85,6,21,Ticks_Linear_5,114,1,48,18,637004724
85,6,21,Ticks_Linear_5,115,5,42,127,637017580
85,6,21,Ticks_Linear_5,116,5,42,127,637617512
85,6,21,Ticks_Linear_5,117,1,48,18,637618476
85,6,21,Ticks_Linear_5,118,5,42,127,638217636
85,6,21,Ticks_Linear_5,119,1,48,16,638233856
85,6,21,Ticks_Linear_5,120,1,48,19,638756452
85,6,21,Ticks_Linear_5,121,5,42,127,638817824
85,6,21,Ticks_Linear_5,122,1,48,19,639381060
85,6,21,Ticks_Linear_5,123,5,42,127,639417900
85,6,21,Ticks_Linear_5,124,1,48,18,639980312
85,6,21,Ticks_Linear_5,125,5,42,127,640017948
85,6,21,Ticks_Linear_5,126,1,48,16,640572720
85,6,21,Ticks_Linear_5,127,5,42,127,640628032
85,6,21,Ticks_Linear_5,128,1,48,19,641228588
85,6,21,Ticks_Linear_5,129,5,42,127,641238364
85,6,21,Ticks_Linear_5,130,1,48,18,641826240
85,6,21,Ticks_Linear_5,131,5,42,127,641847772
85,6,21,Ticks_Linear_5,132,1,48,17,642442460
85,6,21,Ticks_Linear_5,133,5,42,127,642458008
85,6,21,Ticks_Linear_5,134,5,42,127,643068272
85,6,21,Ticks_Linear_5,135,1,48,18,643074004
85,6,21,Ticks_Linear_5,136,5,42,127,643687716
85,6,21,Ticks_Linear_5,137,1,48,21,643717948
85,6,21,Ticks_Linear_5,138,5,42,127,644308308
85,6,21,Ticks_Linear_5,139,1,48,17,644327232
85,6,21,Ticks_Linear_5,140,1,48,13,644908008
85,6,21,Ticks_Linear_5,141,5,42,127,644927820
85,6,21,Ticks_Linear_5,142,1,48,16,645518316
85,6,21,Ticks_Linear_5,143,5,42,127,645548560
85,6,21,Ticks_Linear_5,144,5,42,127,646167940
85,6,21,Ticks_Linear_5,145,1,48,19,646174196
85,6,21,Ticks_Linear_5,146,1,48,16,646767644
85,6,21,Ticks_Linear_5,147,5,42,127,646797636
85,6,21,Ticks_Linear_5,148,1,48,16,647397672
85,6,21,Ticks_Linear_5,149,5,42,127,647427664
85,6,21,Ticks_Linear_5,150,1,48,18,648049316
85,6,21,Ticks_Linear_5,151,5,42,127,648058340
85,6,21,Ticks_Linear_5,152,1,48,18,648664512
85,6,21,Ticks_Linear_5,153,5,42,127,648688000
85,6,21,Ticks_Linear_5,154,1,48,16,649284708
85,6,21,Ticks_Linear_5,155,5,42,127,649317852
85,6,21,Ticks_Linear_5,156,5,42,127,649957848
85,6,21,Ticks_Linear_5,157,1,48,15,649983652
85,6,21,Ticks_Linear_5,158,5,42,127,650597736
85,6,21,Ticks_Linear_5,159,1,48,14,650618984
85,6,21,Ticks_Linear_5,160,5,42,127,651237652
85,6,21,Ticks_Linear_5,161,1,48,16,651250204
85,6,21,Ticks_Linear_5,162,1,48,18,651834872
85,6,21,Ticks_Linear_5,163,5,42,127,651877756
85,6,21,Ticks_Linear_5,164,1,48,19,652462212
85,6,21,Ticks_Linear_5,165,5,42,127,652517672
85,6,21,Ticks_Linear_5,166,1,48,14,653093556
85,6,21,Ticks_Linear_5,167,5,42,127,653167968
85,6,21,Ticks_Linear_5,168,1,48,18,653766652
85,6,21,Ticks_Linear_5,169,5,42,127,653818216
85,6,21,Ticks_Linear_5,170,5,42,127,654467696
85,6,21,Ticks_Linear_5,171,1,48,18,654486024
85,6,21,Ticks_Linear_5,172,5,42,127,655117796
85,6,21,Ticks_Linear_5,173,1,48,19,655220512
85,6,21,Ticks_Linear_5,174,1,48,19,655662304
85,6,21,Ticks_Linear_5,175,5,42,127,655768072
85,6,21,Ticks_Linear_5,176,5,42,127,656428676
85,6,21,Ticks_Linear_5,177,1,48,16,656490808
85,6,21,Ticks_Linear_5,178,5,42,127,657087836
85,6,21,Ticks_Linear_5,179,1,48,17,657133556
85,6,21,Ticks_Linear_5,180,5,42,127,657748540
85,6,21,Ticks_Linear_5,181,1,48,19,657859520
85,6,21,Ticks_Linear_5,182,5,42,127,658407776
85,6,21,Ticks_Linear_5,183,1,48,15,658409264
85,6,21,Ticks_Linear_5,184,5,42,127,659068556
85,6,21,Ticks_Linear_5,185,1,48,19,659115520
85,6,21,Ticks_Linear_5,186,1,48,16,659717416
85,6,21,Ticks_Linear_5,187,5,42,127,659737972
85,6,21,Ticks_Linear_5,188,1,48,19,660359992
85,6,21,Ticks_Linear_5,189,5,42,127,660407768
85,6,21,Ticks_Linear_5,190,1,48,17,661076468
85,6,21,Ticks_Linear_5,191,5,42,127,661078432
85,6,21,Ticks_Linear_5,192,5,42,127,661748008
85,6,21,Ticks_Linear_5,193,1,48,20,661773284
85,6,21,Ticks_Linear_5,194,5,42,127,662417776
85,6,21,Ticks_Linear_5,195,1,48,19,662436276
85,6,21,Ticks_Linear_5,196,5,42,127,663097756
85,6,21,Ticks_Linear_5,197,1,48,16,663118928
85,6,21,Ticks_Linear_5,198,1,48,19,663695348
85,6,21,Ticks_Linear_5,199,5,42,127,663777576
85,6,21,Ticks_Linear_5,200,1,48,19,664438172
85,6,21,Ticks_Linear_5,201,5,42,127,664457680
85,6,21,Ticks_Linear_5,202,1,48,16,665121068
85,6,21,Ticks_Linear_5,203,5,42,127,665137584
85,6,21,Ticks_Linear_5,204,1,48,19,665787792
85,6,21,Ticks_Linear_5,205,5,42,127,665817336
85,6,21,Ticks_Linear_5,206,1,48,17,666459056
85,6,21,Ticks_Linear_5,207,5,42,127,666507700
85,6,21,Ticks_Linear_5,208,1,48,17,667169288
85,6,21,Ticks_Linear_5,209,5,42,127,667197788
85,6,21,Ticks_Linear_5,210,1,48,18,667811148
85,6,21,Ticks_Linear_5,211,5,42,127,667888096
85,6,21,Ticks_Linear_5,212,5,42,127,668578492
85,6,21,Ticks_Linear_5,213,1,48,19,668623468
85,6,21,Ticks_Linear_5,214,1,48,19,669197596
85,6,21,Ticks_Linear_5,215,5,42,127,669268400
85,6,21,Ticks_Linear_5,216,1,48,19,669918684
85,6,21,Ticks_Linear_5,217,5,42,127,669967776
85,6,21,Ticks_Linear_5,218,1,48,21,670642088
85,6,21,Ticks_Linear_5,219,5,42,127,670668344
85,6,21,Ticks_Linear_5,220,1,48,19,671330060
85,6,21,Ticks_Linear_5,221,5,42,127,671367548
85,6,21,Ticks_Linear_5,222,1,48,18,672034596
85,6,21,Ticks_Linear_5,223,5,42,127,672067896
85,6,21,Ticks_Linear_5,224,1,48,19,672718856
85,6,21,Ticks_Linear_5,225,5,42,127,672768392
85,6,21,Ticks_Linear_5,226,1,48,16,673474308
85,6,21,Ticks_Linear_5,227,5,42,127,673478100
85,6,21,Ticks_Linear_5,228,1,48,19,674179952
85,6,21,Ticks_Linear_5,229,5,42,127,674187560
85,6,21,Ticks_Linear_5,230,1,48,19,674872584
85,6,21,Ticks_Linear_5,231,5,42,127,674898316
85,6,21,Ticks_Linear_5,232,1,48,16,675569192
85,6,21,Ticks_Linear_5,233,5,42,127,675607804
85,6,21,Ticks_Linear_5,234,1,48,21,676259652
85,6,21,Ticks_Linear_5,235,5,42,127,676317660
85,6,21,Ticks_Linear_5,236,1,48,18,677025368
85,6,21,Ticks_Linear_5,237,5,42,127,677037404
85,6,21,Ticks_Linear_5,238,1,48,17,677728024
85,6,21,Ticks_Linear_5,239,5,42,127,677758464
85,6,21,Ticks_Linear_5,240,1,48,16,678473820
85,6,21,Ticks_Linear_5,241,5,42,127,678478360
85,6,21,Ticks_Linear_5,242,1,48,18,679179188
85,6,21,Ticks_Linear_5,243,5,42,127,679198028
85,6,21,Ticks_Linear_5,244,1,48,17,679918452
85,6,21,Ticks_Linear_5,245,5,42,127,679919564
85,6,21,Ticks_Linear_5,246,1,48,18,680608620
85,6,21,Ticks_Linear_5,247,5,42,127,680648200
85,6,21,Ticks_Linear_5,248,1,48,18,681309164
85,6,21,Ticks_Linear_5,249,5,42,127,681378204
85,6,21,Ticks_Linear_5,250,1,48,18,682025456
85,6,21,Ticks_Linear_5,251,5,42,127,682108332
85,6,21,Ticks_Linear_5,252,1,48,17,682828632
85,6,21,Ticks_Linear_5,253,5,42,127,682838260
85,6,21,Ticks_Linear_5,254,1,48,19,683553016
85,6,21,Ticks_Linear_5,255,5,42,127,683567516
85,6,21,Ticks_Linear_5,256,1,48,17,684239964
85,6,21,Ticks_Linear_5,257,5,42,127,684307704
85,6,21,Ticks_Linear_5,258,1,48,17,685008384
85,6,21,Ticks_Linear_5,259,5,42,127,685048188
85,6,21,Ticks_Linear_5,260,1,48,17,685754328
85,6,21,Ticks_Linear_5,261,5,42,127,685787480
85,6,21,Ticks_Linear_5,262,1,48,19,686476532
85,6,21,Ticks_Linear_5,263,5,42,127,686527964
85,6,21,Ticks_Linear_5,264,1,48,19,687218288
85,6,21,Ticks_Linear_5,265,5,42,127,687268156
85,6,21,Ticks_Linear_5,266,1,48,23,687937064
85,6,21,Ticks_Linear_5,267,5,42,127,688017904
85,6,21,Ticks_Linear_5,268,1,48,16,688691324
85,6,21,Ticks_Linear_5,269,5,42,127,688768276
85,6,21,Ticks_Linear_5,270,1,48,18,689480716
85,6,21,Ticks_Linear_5,271,5,42,127,689518048
85,6,21,Ticks_Linear_5,272,1,48,18,690226748
85,6,21,Ticks_Linear_5,273,5,42,127,690267376
85,6,21,Ticks_Linear_5,274,1,48,18,690917356
85,6,21,Ticks_Linear_5,275,5,42,127,691018252
85,6,21,Ticks_Linear_5,276,1,48,19,691774512
85,6,21,Ticks_Linear_5,277,5,42,127,691777852
85,6,21,Ticks_Linear_5,278,1,48,21,692529536
85,6,21,Ticks_Linear_5,279,5,42,127,692537888
85,6,21,Ticks_Linear_5,280,5,42,127,693297480
85,6,21,Ticks_Linear_5,281,1,48,19,693321040
85,6,21,Ticks_Linear_5,282,1,48,16,694024728
85,6,21,Ticks_Linear_5,283,5,42,127,694058328
85,6,21,Ticks_Linear_5,284,5,42,127,694818216
85,6,21,Ticks_Linear_5,285,1,48,19,694865288
85,6,21,Ticks_Linear_5,286,1,48,19,695537612
85,6,21,Ticks_Linear_5,287,5,42,127,695588204
85,6,21,Ticks_Linear_5,288,1,48,14,696280420
85,6,21,Ticks_Linear_5,289,5,42,127,696358272
85,6,21,Ticks_Linear_5,290,1,48,19,697055364
85,6,21,Ticks_Linear_5,291,5,42,127,697128340
85,6,21,Ticks_Linear_5,292,1,48,20,697796972
85,6,21,Ticks_Linear_5,293,5,42,127,697898240
85,6,21,Ticks_Linear_5,294,1,48,19,698627772
85,6,21,Ticks_Linear_5,295,5,42,127,698668400
85,6,21,Ticks_Linear_5,296,1,48,19,699418136
85,6,21,Ticks_Linear_5,297,5,42,127,699447828
85,6,21,Ticks_Linear_5,298,1,48,22,700169552
85,6,21,Ticks_Linear_5,299,5,42,127,700227856
85,6,21,Ticks_Linear_5,300,1,48,19,700980880
85,6,21,Ticks_Linear_5,301,5,42,127,701008184
85,6,21,Ticks_Linear_5,302,1,48,18,701709464
85,6,21,Ticks_Linear_5,303,5,42,127,701787612
85,6,21,Ticks_Linear_5,304,1,48,17,702520264
85,6,21,Ticks_Linear_5,305,5,42,127,702567940
85,6,21,Ticks_Linear_5,306,1,48,15,703280452
85,6,21,Ticks_Linear_5,307,5,42,127,703358228
85,6,21,Ticks_Linear_5,308,1,48,20,704131844
85,6,21,Ticks_Linear_5,309,5,42,127,704147768
85,6,21,Ticks_Linear_5,310,1,48,25,704887844
85,6,21,Ticks_Linear_5,311,5,42,127,704938228
85,6,21,Ticks_Linear_5,312,5,42,127,705727848
85,6,21,Ticks_Linear_5,313,1,48,20,705749764
85,6,21,Ticks_Linear_5,314,1,48,20,706473896
85,6,21,Ticks_Linear_5,315,5,42,127,706518280
85,6,21,Ticks_Linear_5,316,1,48,16,707265608
85,6,21,Ticks_Linear_5,317,5,42,127,707318224
85,6,21,Ticks_Linear_5,318,1,48,20,708031036
85,6,21,Ticks_Linear_5,319,5,42,127,708117876
85,6,21,Ticks_Linear_5,320,5,42,127,708917608
85,6,21,Ticks_Linear_5,321,1,48,23,708919320
85,6,21,Ticks_Linear_5,322,1,48,21,709699380
85,6,21,Ticks_Linear_5,323,5,42,127,709718368
85,6,21,Ticks_Linear_5,324,1,48,21,710471540
85,6,21,Ticks_Linear_5,325,5,42,127,710518092
85,6,21,Ticks_Linear_5,326,1,48,24,711250672
85,6,21,Ticks_Linear_5,327,5,42,127,711328024
85,6,21,Ticks_Linear_5,328,1,48,22,712090460
85,6,21,Ticks_Linear_5,329,5,42,127,712138084
85,6,21,Ticks_Linear_5,330,1,48,21,712863000
85,6,21,Ticks_Linear_5,331,5,42,127,712947968
85,6,21,Ticks_Linear_5,332,1,48,22,713698224
85,6,21,Ticks_Linear_5,333,5,42,127,713758024
85,6,21,Ticks_Linear_5,334,5,42,127,714568088
85,6,21,Ticks_Linear_5,0,9999,9999,9999,605396096
85,6,21,Ticks_Linear_5,1,9999,9999,9999,605875296
85,6,21,Ticks_Linear_5,2,9999,9999,9999,606355524
85,6,21,Ticks_Linear_5,3,9999,9999,9999,606835772
85,6,21,Ticks_Linear_5,4,9999,9999,9999,607316092
85,6,21,Ticks_Linear_5,5,9999,9999,9999,607805532
85,6,21,Ticks_Linear_5,6,9999,9999,9999,608296020
85,6,21,Ticks_Linear_5,7,9999,9999,9999,608785460
85,6,21,Ticks_Linear_5,8,9999,9999,9999,609276024
85,6,21,Ticks_Linear_5,9,9999,9999,9999,609765464
85,6,21,Ticks_Linear_5,10,9999,9999,9999,610265164
85,6,21,Ticks_Linear_5,11,9999,9999,9999,610765912
85,6,21,Ticks_Linear_5,12,9999,9999,9999,611265608
85,6,21,Ticks_Linear_5,13,9999,9999,9999,611765308
85,6,21,Ticks_Linear_5,14,9999,9999,9999,612266052
85,6,21,Ticks_Linear_5,15,9999,9999,9999,612776012
85,6,21,Ticks_Linear_5,16,9999,9999,9999,613285972
85,6,21,Ticks_Linear_5,17,9999,9999,9999,613795928
85,6,21,Ticks_Linear_5,18,9999,9999,9999,614305864
85,6,21,Ticks_Linear_5,19,9999,9999,9999,614815796
85,6,21,Ticks_Linear_5,20,9999,9999,9999,615336016
85,6,21,Ticks_Linear_5,21,9999,9999,9999,615855188
85,6,21,Ticks_Linear_5,22,9999,9999,9999,616375404
85,6,21,Ticks_Linear_5,23,9999,9999,9999,616895548
85,6,21,Ticks_Linear_5,24,9999,9999,9999,617415764
85,6,21,Ticks_Linear_5,25,9999,9999,9999,617945196
85,6,21,Ticks_Linear_5,26,9999,9999,9999,618475596
85,6,21,Ticks_Linear_5,27,9999,9999,9999,619006076
85,6,21,Ticks_Linear_5,28,9999,9999,9999,619535436
85,6,21,Ticks_Linear_5,29,9999,9999,9999,620065916
85,6,21,Ticks_Linear_5,30,9999,9999,9999,620605528
85,6,21,Ticks_Linear_5,31,9999,9999,9999,621145140
85,6,21,Ticks_Linear_5,32,9999,9999,9999,621685876
85,6,21,Ticks_Linear_5,33,9999,9999,9999,622225492
85,6,21,Ticks_Linear_5,34,9999,9999,9999,622765140
85,6,21,Ticks_Linear_5,35,9999,9999,9999,623316052
85,6,21,Ticks_Linear_5,36,9999,9999,9999,623865928
85,6,21,Ticks_Linear_5,37,9999,9999,9999,624415804
85,6,21,Ticks_Linear_5,38,9999,9999,9999,624965752
85,6,21,Ticks_Linear_5,39,9999,9999,9999,625515624
85,6,21,Ticks_Linear_5,40,9999,9999,9999,626075760
85,6,21,Ticks_Linear_5,41,9999,9999,9999,626635840
85,6,21,Ticks_Linear_5,42,9999,9999,9999,627195976
85,6,21,Ticks_Linear_5,43,9999,9999,9999,627755064
85,6,21,Ticks_Linear_5,44,9999,9999,9999,628315196
85,6,21,Ticks_Linear_5,45,9999,9999,9999,628885588
85,6,21,Ticks_Linear_5,46,9999,9999,9999,629455932
85,6,21,Ticks_Linear_5,47,9999,9999,9999,630025280
85,6,21,Ticks_Linear_5,48,9999,9999,9999,630595672
85,6,21,Ticks_Linear_5,49,9999,9999,9999,631166064
85,6,21,Ticks_Linear_5,50,9999,9999,9999,631745616
85,6,21,Ticks_Linear_5,51,9999,9999,9999,632325224
85,6,21,Ticks_Linear_5,52,9999,9999,9999,632905800
85,6,21,Ticks_Linear_5,53,9999,9999,9999,633485404
85,6,21,Ticks_Linear_5,54,9999,9999,9999,634066008
85,6,21,Ticks_Linear_5,55,9999,9999,9999,634655872
85,6,21,Ticks_Linear_5,56,9999,9999,9999,635245660
85,6,21,Ticks_Linear_5,57,9999,9999,9999,635835476
85,6,21,Ticks_Linear_5,58,9999,9999,9999,636425344
85,6,21,Ticks_Linear_5,59,9999,9999,9999,637015132
85,6,21,Ticks_Linear_5,60,9999,9999,9999,637615212
85,6,21,Ticks_Linear_5,61,9999,9999,9999,638215260
85,6,21,Ticks_Linear_5,62,9999,9999,9999,638815300
85,6,21,Ticks_Linear_5,63,9999,9999,9999,639415372
85,6,21,Ticks_Linear_5,64,9999,9999,9999,640015424
85,6,21,Ticks_Linear_5,65,9999,9999,9999,640625732
85,6,21,Ticks_Linear_5,66,9999,9999,9999,641236064
85,6,21,Ticks_Linear_5,67,9999,9999,9999,641845324
85,6,21,Ticks_Linear_5,68,9999,9999,9999,642455632
85,6,21,Ticks_Linear_5,69,9999,9999,9999,643065972
85,6,21,Ticks_Linear_5,70,9999,9999,9999,643685492
85,6,21,Ticks_Linear_5,71,9999,9999,9999,644306008
85,6,21,Ticks_Linear_5,72,9999,9999,9999,644925520
85,6,21,Ticks_Linear_5,73,9999,9999,9999,645546112
85,6,21,Ticks_Linear_5,74,9999,9999,9999,646165564
85,6,21,Ticks_Linear_5,75,9999,9999,9999,646795336
85,6,21,Ticks_Linear_5,76,9999,9999,9999,647425140
85,6,21,Ticks_Linear_5,77,9999,9999,9999,648055892
85,6,21,Ticks_Linear_5,78,9999,9999,9999,648685624
85,6,21,Ticks_Linear_5,79,9999,9999,9999,649315404
85,6,21,Ticks_Linear_5,80,9999,9999,9999,649955400
85,6,21,Ticks_Linear_5,81,9999,9999,9999,650595436
85,6,21,Ticks_Linear_5,82,9999,9999,9999,651235424
85,6,21,Ticks_Linear_5,83,9999,9999,9999,651875456
85,6,21,Ticks_Linear_5,84,9999,9999,9999,652515444
85,6,21,Ticks_Linear_5,85,9999,9999,9999,653165668
85,6,21,Ticks_Linear_5,86,9999,9999,9999,653815916
85,6,21,Ticks_Linear_5,87,9999,9999,9999,654465100
85,6,21,Ticks_Linear_5,88,9999,9999,9999,655115344
85,6,21,Ticks_Linear_5,89,9999,9999,9999,655765620
85,6,21,Ticks_Linear_5,90,9999,9999,9999,656426076
85,6,21,Ticks_Linear_5,91,9999,9999,9999,657085532
85,6,21,Ticks_Linear_5,92,9999,9999,9999,657746016
85,6,21,Ticks_Linear_5,93,9999,9999,9999,658405476
85,6,21,Ticks_Linear_5,94,9999,9999,9999,659065956
85,6,21,Ticks_Linear_5,95,9999,9999,9999,659735672
85,6,21,Ticks_Linear_5,96,9999,9999,9999,660405316
85,6,21,Ticks_Linear_5,97,9999,9999,9999,661076088
85,6,21,Ticks_Linear_5,98,9999,9999,9999,661745780
85,6,21,Ticks_Linear_5,99,9999,9999,9999,662415476
85,6,21,Ticks_Linear_5,100,9999,9999,9999,663095380
85,6,21,Ticks_Linear_5,101,9999,9999,9999,663775352
85,6,21,Ticks_Linear_5,102,9999,9999,9999,664455232
85,6,21,Ticks_Linear_5,103,9999,9999,9999,665135208
85,6,21,Ticks_Linear_5,104,9999,9999,9999,665815112
85,6,21,Ticks_Linear_5,105,9999,9999,9999,666505324
85,6,21,Ticks_Linear_5,106,9999,9999,9999,667195488
85,6,21,Ticks_Linear_5,107,9999,9999,9999,667885648
85,6,21,Ticks_Linear_5,108,9999,9999,9999,668575868
85,6,21,Ticks_Linear_5,109,9999,9999,9999,669266024
85,6,21,Ticks_Linear_5,110,9999,9999,9999,669965400
85,6,21,Ticks_Linear_5,111,9999,9999,9999,670665820
85,6,21,Ticks_Linear_5,112,9999,9999,9999,671365244
85,6,21,Ticks_Linear_5,113,9999,9999,9999,672065596
85,6,21,Ticks_Linear_5,114,9999,9999,9999,672766016
85,6,21,Ticks_Linear_5,115,9999,9999,9999,673475652
85,6,21,Ticks_Linear_5,116,9999,9999,9999,674185336
85,6,21,Ticks_Linear_5,117,9999,9999,9999,674895940
85,6,21,Ticks_Linear_5,118,9999,9999,9999,675605576
85,6,21,Ticks_Linear_5,119,9999,9999,9999,676315208
85,6,21,Ticks_Linear_5,120,9999,9999,9999,677035104
85,6,21,Ticks_Linear_5,121,9999,9999,9999,677756016
85,6,21,Ticks_Linear_5,122,9999,9999,9999,678475836
85,6,21,Ticks_Linear_5,123,9999,9999,9999,679195728
85,6,21,Ticks_Linear_5,124,9999,9999,9999,679915628
85,6,21,Ticks_Linear_5,125,9999,9999,9999,680645752
85,6,21,Ticks_Linear_5,126,9999,9999,9999,681375804
85,6,21,Ticks_Linear_5,127,9999,9999,9999,682105956
85,6,21,Ticks_Linear_5,128,9999,9999,9999,682836036
85,6,21,Ticks_Linear_5,129,9999,9999,9999,683565140
85,6,21,Ticks_Linear_5,130,9999,9999,9999,684305476
85,6,21,Ticks_Linear_5,131,9999,9999,9999,685045812
85,6,21,Ticks_Linear_5,132,9999,9999,9999,685785180
85,6,21,Ticks_Linear_5,133,9999,9999,9999,686525516
85,6,21,Ticks_Linear_5,134,9999,9999,9999,687265852
85,6,21,Ticks_Linear_5,135,9999,9999,9999,688015452
85,6,21,Ticks_Linear_5,136,9999,9999,9999,688766048
85,6,21,Ticks_Linear_5,137,9999,9999,9999,689515600
85,6,21,Ticks_Linear_5,138,9999,9999,9999,690265148
85,6,21,Ticks_Linear_5,139,9999,9999,9999,691015744
85,6,21,Ticks_Linear_5,140,9999,9999,9999,691775552
85,6,21,Ticks_Linear_5,141,9999,9999,9999,692535364
85,6,21,Ticks_Linear_5,142,9999,9999,9999,693295180
85,6,21,Ticks_Linear_5,143,9999,9999,9999,694056028
85,6,21,Ticks_Linear_5,144,9999,9999,9999,694815840
85,6,21,Ticks_Linear_5,145,9999,9999,9999,695585904
85,6,21,Ticks_Linear_5,146,9999,9999,9999,696355896
85,6,21,Ticks_Linear_5,147,9999,9999,9999,697125964
85,6,21,Ticks_Linear_5,148,9999,9999,9999,697896016
85,6,21,Ticks_Linear_5,149,9999,9999,9999,698666096
85,6,21,Ticks_Linear_5,150,9999,9999,9999,699445304
85,6,21,Ticks_Linear_5,151,9999,9999,9999,700225628
85,6,21,Ticks_Linear_5,152,9999,9999,9999,701005880
85,6,21,Ticks_Linear_5,153,9999,9999,9999,701785160
85,6,21,Ticks_Linear_5,154,9999,9999,9999,702565488
85,6,21,Ticks_Linear_5,155,9999,9999,9999,703356000
85,6,21,Ticks_Linear_5,156,9999,9999,9999,704145468
85,6,21,Ticks_Linear_5,157,9999,9999,9999,704936000
85,6,21,Ticks_Linear_5,158,9999,9999,9999,705725548
85,6,21,Ticks_Linear_5,159,9999,9999,9999,706516052
85,6,21,Ticks_Linear_5,160,9999,9999,9999,707315776
85,6,21,Ticks_Linear_5,161,9999,9999,9999,708115572
85,6,21,Ticks_Linear_5,162,9999,9999,9999,708915304
85,6,21,Ticks_Linear_5,163,9999,9999,9999,709716068
85,6,21,Ticks_Linear_5,164,9999,9999,9999,710515792
85,6,21,Ticks_Linear_5,165,9999,9999,9999,711325776
85,6,21,Ticks_Linear_5,166,9999,9999,9999,712135784
85,6,21,Ticks_Linear_5,167,9999,9999,9999,712945740
85,6,21,Ticks_Linear_5,168,9999,9999,9999,713755724
85,6,21,Ticks_Linear_5,169,9999,9999,9999,714565712
85,7,20,Ticks_Linear_8,0,5,42,127,725535204
85,7,20,Ticks_Linear_8,1,5,42,127,726355688
85,7,20,Ticks_Linear_8,2,1,48,20,727104920
85,7,20,Ticks_Linear_8,3,5,42,127,727174380
85,7,20,Ticks_Linear_8,4,1,48,21,727961548
85,7,20,Ticks_Linear_8,5,5,42,127,727994724
85,7,20,Ticks_Linear_8,6,5,42,127,728814900
85,7,20,Ticks_Linear_8,7,1,48,23,728831716
85,7,20,Ticks_Linear_8,8,5,42,127,729625252
85,7,20,Ticks_Linear_8,9,1,48,17,729627704
85,7,20,Ticks_Linear_8,10,1,48,21,730357836
85,7,20,Ticks_Linear_8,11,5,42,127,730434860
85,7,20,Ticks_Linear_8,12,1,48,19,731181516
85,7,20,Ticks_Linear_8,13,5,42,127,731244988
85,7,20,Ticks_Linear_8,14,1,48,23,732007976
85,7,20,Ticks_Linear_8,15,5,42,127,732054972
85,7,20,Ticks_Linear_8,16,1,48,19,732834312
85,7,20,Ticks_Linear_8,17,5,42,127,732864832
85,7,20,Ticks_Linear_8,18,5,42,127,733664636
85,7,20,Ticks_Linear_8,19,1,48,16,733688796
85,7,20,Ticks_Linear_8,20,5,42,127,734465260
85,7,20,Ticks_Linear_8,21,1,48,18,734501028
85,7,20,Ticks_Linear_8,22,1,48,15,735221640
85,7,20,Ticks_Linear_8,23,5,42,127,735265348
85,7,20,Ticks_Linear_8,24,1,48,20,736041288
85,7,20,Ticks_Linear_8,25,5,42,127,736065220
85,7,20,Ticks_Linear_8,26,5,42,127,736864580
85,7,20,Ticks_Linear_8,27,1,48,19,736906492
85,7,20,Ticks_Linear_8,28,1,48,18,737625240
85,7,20,Ticks_Linear_8,29,5,42,127,737655232
85,7,20,Ticks_Linear_8,30,5,42,127,738444556
85,7,20,Ticks_Linear_8,31,1,48,16,738464028
85,7,20,Ticks_Linear_8,32,1,48,16,739185968
85,7,20,Ticks_Linear_8,33,5,42,127,739235160
85,7,20,Ticks_Linear_8,34,1,48,18,739997520
85,7,20,Ticks_Linear_8,35,5,42,127,740024820
85,7,20,Ticks_Linear_8,36,1,48,18,740794176
85,7,20,Ticks_Linear_8,37,5,42,127,740815260
85,7,20,Ticks_Linear_8,38,1,48,17,741575928
85,7,20,Ticks_Linear_8,39,5,42,127,741594392
85,7,20,Ticks_Linear_8,40,5,42,127,742374796
85,7,20,Ticks_Linear_8,41,1,48,17,742415440
85,7,20,Ticks_Linear_8,42,1,48,17,743123332
85,7,20,Ticks_Linear_8,43,5,42,127,743155044
85,7,20,Ticks_Linear_8,44,1,48,16,743914364
85,7,20,Ticks_Linear_8,45,5,42,127,743935296
85,7,20,Ticks_Linear_8,46,1,48,16,744689748
85,7,20,Ticks_Linear_8,47,5,42,127,744714504
85,7,20,Ticks_Linear_8,48,1,48,17,745479512
85,7,20,Ticks_Linear_8,49,5,42,127,745484796
85,7,20,Ticks_Linear_8,50,5,42,127,746254572
85,7,20,Ticks_Linear_8,51,1,48,16,746291608
85,7,20,Ticks_Linear_8,52,1,48,18,747001296
85,7,20,Ticks_Linear_8,53,5,42,127,747024932
85,7,20,Ticks_Linear_8,54,1,48,17,747770020
85,7,20,Ticks_Linear_8,55,5,42,127,747794776
85,7,20,Ticks_Linear_8,56,1,48,17,748489164
85,7,20,Ticks_Linear_8,57,5,42,127,748564992
85,7,20,Ticks_Linear_8,58,1,48,19,749265600
85,7,20,Ticks_Linear_8,59,5,42,127,749324652
85,7,20,Ticks_Linear_8,60,1,48,18,750021136
85,7,20,Ticks_Linear_8,61,5,42,127,750084464
85,7,20,Ticks_Linear_8,62,5,42,127,750845176
85,7,20,Ticks_Linear_8,63,1,48,19,750885440
85,7,20,Ticks_Linear_8,64,5,42,127,751605208
85,7,20,Ticks_Linear_8,65,1,48,18,751625260
85,7,20,Ticks_Linear_8,66,1,48,18,752324836
85,7,20,Ticks_Linear_8,67,5,42,127,752364864
85,7,20,Ticks_Linear_8,68,1,48,21,753096244
85,7,20,Ticks_Linear_8,69,5,42,127,753114636
85,7,20,Ticks_Linear_8,70,5,42,127,753864940
85,7,20,Ticks_Linear_8,71,1,48,13,753909692
85,7,20,Ticks_Linear_8,72,5,42,127,754614640
85,7,20,Ticks_Linear_8,73,1,48,17,754619632
85,7,20,Ticks_Linear_8,74,1,48,18,755314844
85,7,20,Ticks_Linear_8,75,5,42,127,755365152
85,7,20,Ticks_Linear_8,76,1,48,18,756071048
85,7,20,Ticks_Linear_8,77,5,42,127,756114904
85,7,20,Ticks_Linear_8,78,5,42,127,756855100
85,7,20,Ticks_Linear_8,79,1,48,19,756873724
85,7,20,Ticks_Linear_8,80,5,42,127,757594388
85,7,20,Ticks_Linear_8,81,1,48,16,757617056
85,7,20,Ticks_Linear_8,82,1,48,15,758263916
85,7,20,Ticks_Linear_8,83,5,42,127,758334792
85,7,20,Ticks_Linear_8,84,5,42,127,759075212
85,7,20,Ticks_Linear_8,85,1,48,21,759118176
85,7,20,Ticks_Linear_8,86,5,42,127,759814652
85,7,20,Ticks_Linear_8,87,1,48,18,759825788
85,7,20,Ticks_Linear_8,88,1,48,16,760542128
85,7,20,Ticks_Linear_8,89,5,42,127,760544800
85,7,20,Ticks_Linear_8,90,1,48,21,761239384
85,7,20,Ticks_Linear_8,91,5,42,127,761274800
85,7,20,Ticks_Linear_8,92,1,48,19,761928500
85,7,20,Ticks_Linear_8,93,5,42,127,762004856
85,7,20,Ticks_Linear_8,94,1,48,19,762701116
85,7,20,Ticks_Linear_8,95,5,42,127,762734936
85,7,20,Ticks_Linear_8,96,1,48,18,763407980
85,7,20,Ticks_Linear_8,97,5,42,127,763465012
85,7,20,Ticks_Linear_8,98,5,42,127,764184912
85,7,20,Ticks_Linear_8,99,1,48,17,764203764
85,7,20,Ticks_Linear_8,100,5,42,127,764904956
85,7,20,Ticks_Linear_8,101,1,48,20,764911292
85,7,20,Ticks_Linear_8,102,5,42,127,765624996
85,7,20,Ticks_Linear_8,103,1,48,16,765691392
85,7,20,Ticks_Linear_8,104,1,48,17,766343740
85,7,20,Ticks_Linear_8,105,5,42,127,766345384
85,7,20,Ticks_Linear_8,106,1,48,16,767060216
85,7,20,Ticks_Linear_8,107,5,42,127,767064680
85,7,20,Ticks_Linear_8,108,5,42,127,767774996
85,7,20,Ticks_Linear_8,109,1,48,21,767805676
85,7,20,Ticks_Linear_8,110,5,42,127,768484780
85,7,20,Ticks_Linear_8,111,1,48,20,768501076
85,7,20,Ticks_Linear_8,112,5,42,127,769195684
85,7,20,Ticks_Linear_8,113,1,48,19,769212740
85,7,20,Ticks_Linear_8,114,1,48,23,769859636
85,7,20,Ticks_Linear_8,115,5,42,127,769905060
85,7,20,Ticks_Linear_8,116,1,48,18,770587996
85,7,20,Ticks_Linear_8,117,5,42,127,770614772
85,7,20,Ticks_Linear_8,118,1,48,21,771296364
85,7,20,Ticks_Linear_8,119,5,42,127,771315044
85,7,20,Ticks_Linear_8,120,1,48,19,771966948
85,7,20,Ticks_Linear_8,121,5,42,127,772014568
85,7,20,Ticks_Linear_8,122,1,48,19,772644012
85,7,20,Ticks_Linear_8,123,5,42,127,772714816
85,7,20,Ticks_Linear_8,124,5,42,127,773415172
85,7,20,Ticks_Linear_8,125,1,48,21,773445852
85,7,20,Ticks_Linear_8,126,1,48,20,774074960
85,7,20,Ticks_Linear_8,127,5,42,127,774114540
85,7,20,Ticks_Linear_8,128,1,48,19,774723092
85,7,20,Ticks_Linear_8,129,5,42,127,774804976
85,7,20,Ticks_Linear_8,130,1,48,17,775493028
85,7,20,Ticks_Linear_8,131,5,42,127,775494992
85,7,20,Ticks_Linear_8,132,1,48,19,776155312
85,7,20,Ticks_Linear_8,133,5,42,127,776185304
85,7,20,Ticks_Linear_8,134,1,48,18,776847172
85,7,20,Ticks_Linear_8,135,5,42,127,776875392
85,7,20,Ticks_Linear_8,136,1,48,18,777527676
85,7,20,Ticks_Linear_8,137,5,42,127,777564636
85,7,20,Ticks_Linear_8,138,1,48,21,778241276
85,7,20,Ticks_Linear_8,139,5,42,127,778244612
85,7,20,Ticks_Linear_8,140,5,42,127,778925576
85,7,20,Ticks_Linear_8,141,1,48,18,778966740
85,7,20,Ticks_Linear_8,142,1,48,18,779583772
85,7,20,Ticks_Linear_8,143,5,42,127,779614588
85,7,20,Ticks_Linear_8,144,1,48,22,780211544
85,7,20,Ticks_Linear_8,145,5,42,127,780294488
85,7,20,Ticks_Linear_8,146,1,48,20,780900332
85,7,20,Ticks_Linear_8,147,5,42,127,780974396
85,7,20,Ticks_Linear_8,148,1,48,18,781606900
85,7,20,Ticks_Linear_8,149,5,42,127,781645060
85,7,20,Ticks_Linear_8,150,1,48,19,782278492
85,7,20,Ticks_Linear_8,151,5,42,127,782314856
85,7,20,Ticks_Linear_8,152,1,48,20,782946992
85,7,20,Ticks_Linear_8,153,5,42,127,782984476
85,7,20,Ticks_Linear_8,154,1,48,25,783572668
85,7,20,Ticks_Linear_8,155,5,42,127,783655464
85,7,20,Ticks_Linear_8,156,5,42,127,784324968
85,7,20,Ticks_Linear_8,157,1,48,22,784331452
85,7,20,Ticks_Linear_8,158,1,48,20,784970720
85,7,20,Ticks_Linear_8,159,5,42,127,784984400
85,7,20,Ticks_Linear_8,160,1,48,19,785610188
85,7,20,Ticks_Linear_8,161,5,42,127,785644904
85,7,20,Ticks_Linear_8,162,1,48,21,786263116
85,7,20,Ticks_Linear_8,163,5,42,127,786305460
85,7,20,Ticks_Linear_8,164,1,48,21,786957692
85,7,20,Ticks_Linear_8,165,5,42,127,786964920
85,7,20,Ticks_Linear_8,166,5,42,127,787625288
85,7,20,Ticks_Linear_8,167,1,48,19,787658660
85,7,20,Ticks_Linear_8,168,1,48,22,788261156
85,7,20,Ticks_Linear_8,169,5,42,127,788274532
85,7,20,Ticks_Linear_8,170,1,48,18,788870040
85,7,20,Ticks_Linear_8,171,5,42,127,788924856
85,7,20,Ticks_Linear_8,172,1,48,21,789504052
85,7,20,Ticks_Linear_8,173,5,42,127,789575152
85,7,20,Ticks_Linear_8,174,5,42,127,790225260
85,7,20,Ticks_Linear_8,175,1,48,17,790233180
85,7,20,Ticks_Linear_8,176,1,48,19,790854392
85,7,20,Ticks_Linear_8,177,5,42,127,790874356
85,7,20,Ticks_Linear_8,178,1,48,19,791494908
85,7,20,Ticks_Linear_8,179,5,42,127,791514344
85,7,20,Ticks_Linear_8,180,1,48,17,792145056
85,7,20,Ticks_Linear_8,181,5,42,127,792154456
85,7,20,Ticks_Linear_8,182,1,48,16,792794000
85,7,20,Ticks_Linear_8,183,5,42,127,792795492
85,7,20,Ticks_Linear_8,184,1,48,15,793415272
85,7,20,Ticks_Linear_8,185,5,42,127,793434560
85,7,20,Ticks_Linear_8,186,1,48,19,794027108
85,7,20,Ticks_Linear_8,187,5,42,127,794074476
85,7,20,Ticks_Linear_8,188,1,48,16,794681816
85,7,20,Ticks_Linear_8,189,5,42,127,794705300
85,7,20,Ticks_Linear_8,190,1,48,18,795266444
85,7,20,Ticks_Linear_8,191,5,42,127,795335176
85,7,20,Ticks_Linear_8,192,1,48,19,795927324
85,7,20,Ticks_Linear_8,193,5,42,127,795964736
85,7,20,Ticks_Linear_8,194,1,48,18,796560316
85,7,20,Ticks_Linear_8,195,5,42,127,796594540
85,7,20,Ticks_Linear_8,196,1,48,18,797219932
85,7,20,Ticks_Linear_8,197,5,42,127,797225364
85,7,20,Ticks_Linear_8,198,5,42,127,797844816
85,7,20,Ticks_Linear_8,199,1,48,19,797856496
85,7,20,Ticks_Linear_8,200,5,42,127,798465260
85,7,20,Ticks_Linear_8,201,1,48,19,798538024
85,7,20,Ticks_Linear_8,202,5,42,127,799084780
85,7,20,Ticks_Linear_8,203,1,48,22,799093592
85,7,20,Ticks_Linear_8,204,1,48,21,799688996
85,7,20,Ticks_Linear_8,205,5,42,127,799704392
85,7,20,Ticks_Linear_8,206,1,48,21,800270696
85,7,20,Ticks_Linear_8,207,5,42,127,800325184
85,7,20,Ticks_Linear_8,208,1,48,19,800899280
85,7,20,Ticks_Linear_8,209,5,42,127,800935292
85,7,20,Ticks_Linear_8,210,1,48,17,801477336
85,7,20,Ticks_Linear_8,211,5,42,127,801544552
85,7,20,Ticks_Linear_8,212,1,48,20,802109208
85,7,20,Ticks_Linear_8,213,5,42,127,802155008
85,7,20,Ticks_Linear_8,214,1,48,21,802750020
85,7,20,Ticks_Linear_8,215,5,42,127,802765344
85,7,20,Ticks_Linear_8,216,5,42,127,803374312
85,7,20,Ticks_Linear_8,217,1,48,17,803382604
85,7,20,Ticks_Linear_8,218,5,42,127,803974436
85,7,20,Ticks_Linear_8,219,1,48,17,803977484
85,7,20,Ticks_Linear_8,220,1,48,16,804510204
85,7,20,Ticks_Linear_8,221,5,42,127,804574576
85,7,20,Ticks_Linear_8,222,1,48,19,805153396
85,7,20,Ticks_Linear_8,223,5,42,127,805174624
85,7,20,Ticks_Linear_8,224,5,42,127,805774756
85,7,20,Ticks_Linear_8,225,1,48,20,805814072
85,7,20,Ticks_Linear_8,226,1,48,19,806331716
85,7,20,Ticks_Linear_8,227,5,42,127,806374972
85,7,20,Ticks_Linear_8,228,1,48,17,806881064
85,7,20,Ticks_Linear_8,229,5,42,127,806964540
85,7,20,Ticks_Linear_8,230,5,42,127,807554412
85,7,20,Ticks_Linear_8,231,1,48,19,807598444
85,7,20,Ticks_Linear_8,232,1,48,21,808120060
85,7,20,Ticks_Linear_8,233,5,42,127,808145192
85,7,20,Ticks_Linear_8,234,1,48,21,808720032
85,7,20,Ticks_Linear_8,235,5,42,127,808735204
85,7,20,Ticks_Linear_8,236,5,42,127,809325152
85,7,20,Ticks_Linear_8,237,1,48,20,809349240
85,7,20,Ticks_Linear_8,238,5,42,127,809904480
85,7,20,Ticks_Linear_8,239,1,48,20,809933144
85,7,20,Ticks_Linear_8,240,5,42,127,810485060
85,7,20,Ticks_Linear_8,241,1,48,16,810506224
85,7,20,Ticks_Linear_8,242,1,48,17,811056976
85,7,20,Ticks_Linear_8,243,5,42,127,811064732
85,7,20,Ticks_Linear_8,244,5,42,127,811645316
85,7,20,Ticks_Linear_8,245,1,48,21,811655852
85,7,20,Ticks_Linear_8,246,5,42,127,812225092
85,7,20,Ticks_Linear_8,247,1,48,20,812237280
85,7,20,Ticks_Linear_8,248,5,42,127,812795116
85,7,20,Ticks_Linear_8,249,1,48,19,812804976
85,7,20,Ticks_Linear_8,250,1,48,20,813329960
85,7,20,Ticks_Linear_8,251,5,42,127,813364676
85,7,20,Ticks_Linear_8,252,1,48,19,813902368
85,7,20,Ticks_Linear_8,253,5,42,127,813935072
85,7,20,Ticks_Linear_8,254,1,48,22,814469996
85,7,20,Ticks_Linear_8,255,5,42,127,814505264
85,7,20,Ticks_Linear_8,256,1,48,20,815045812
85,7,20,Ticks_Linear_8,257,5,42,127,815074760
85,7,20,Ticks_Linear_8,258,1,48,21,815633924
85,7,20,Ticks_Linear_8,259,5,42,127,815635496
85,7,20,Ticks_Linear_8,260,5,42,127,816194808
85,7,20,Ticks_Linear_8,261,1,48,21,816195776
85,7,20,Ticks_Linear_8,262,1,48,18,816745984
85,7,20,Ticks_Linear_8,263,5,42,127,816755084
85,7,20,Ticks_Linear_8,264,1,48,21,817302436
85,7,20,Ticks_Linear_8,265,5,42,127,817315168
85,7,20,Ticks_Linear_8,266,1,48,19,817858332
85,7,20,Ticks_Linear_8,267,5,42,127,817875376
85,7,20,Ticks_Linear_8,268,1,48,21,818407088
85,7,20,Ticks_Linear_8,269,5,42,127,818425252
85,7,20,Ticks_Linear_8,270,5,42,127,818975060
85,7,20,Ticks_Linear_8,271,1,48,20,818978776
85,7,20,Ticks_Linear_8,272,5,42,127,819524936
85,7,20,Ticks_Linear_8,273,1,48,20,819525828
85,7,20,Ticks_Linear_8,274,1,48,21,820069964
85,7,20,Ticks_Linear_8,275,5,42,127,820074876
85,7,20,Ticks_Linear_8,276,1,48,19,820611896
85,7,20,Ticks_Linear_8,277,5,42,127,820624900
85,7,20,Ticks_Linear_8,278,5,42,127,821165296
85,7,20,Ticks_Linear_8,279,1,48,22,821174260
85,7,20,Ticks_Linear_8,280,1,48,20,821704044
85,7,20,Ticks_Linear_8,281,5,42,127,821715388
85,7,20,Ticks_Linear_8,282,5,42,127,822254860
85,7,20,Ticks_Linear_8,283,1,48,21,822269360
85,7,20,Ticks_Linear_8,284,1,48,19,822793796
85,7,20,Ticks_Linear_8,285,5,42,127,822795368
85,7,20,Ticks_Linear_8,286,1,48,18,823307384
85,7,20,Ticks_Linear_8,287,5,42,127,823335280
85,7,20,Ticks_Linear_8,288,1,48,21,823853220
85,7,20,Ticks_Linear_8,289,5,42,127,823864636
85,7,20,Ticks_Linear_8,290,1,48,21,824384440
85,7,20,Ticks_Linear_8,291,5,42,127,824395264
85,7,20,Ticks_Linear_8,292,1,48,22,824916416
85,7,20,Ticks_Linear_8,293,5,42,127,824924696
85,7,20,Ticks_Linear_8,294,1,48,16,825434616
85,7,20,Ticks_Linear_8,295,5,42,127,825455024
85,7,20,Ticks_Linear_8,296,1,48,22,825921804
85,7,20,Ticks_Linear_8,297,5,42,127,825985280
85,7,20,Ticks_Linear_8,298,1,48,23,826488604
85,7,20,Ticks_Linear_8,299,5,42,127,826504748
85,7,20,Ticks_Linear_8,300,1,48,21,827005084
85,7,20,Ticks_Linear_8,301,5,42,127,827024744
85,7,20,Ticks_Linear_8,302,1,48,21,827510540
85,7,20,Ticks_Linear_8,303,5,42,127,827544812
85,7,20,Ticks_Linear_8,304,1,48,20,828008648
85,7,20,Ticks_Linear_8,305,5,42,127,828065176
85,7,20,Ticks_Linear_8,306,1,48,19,828565112
85,7,20,Ticks_Linear_8,307,5,42,127,828585396
85,7,20,Ticks_Linear_8,308,5,42,127,829095212
85,7,20,Ticks_Linear_8,309,1,48,20,829096180
85,7,20,Ticks_Linear_8,310,1,48,20,829570720
85,7,20,Ticks_Linear_8,311,5,42,127,829605316
85,7,20,Ticks_Linear_8,312,1,48,23,830088848
85,7,20,Ticks_Linear_8,313,5,42,127,830115272
85,7,20,Ticks_Linear_8,314,1,48,20,830608916
85,7,20,Ticks_Linear_8,315,5,42,127,830625084
85,7,20,Ticks_Linear_8,316,1,48,21,831110632
85,7,20,Ticks_Linear_8,317,5,42,127,831135044
85,7,20,Ticks_Linear_8,318,1,48,20,831620068
85,7,20,Ticks_Linear_8,319,5,42,127,831634796
85,7,20,Ticks_Linear_8,320,1,48,20,832124496
85,7,20,Ticks_Linear_8,321,5,42,127,832134716
85,7,20,Ticks_Linear_8,322,5,42,127,832635324
85,7,20,Ticks_Linear_8,323,1,48,20,832662640
85,7,20,Ticks_Linear_8,324,1,48,20,833133280
85,7,20,Ticks_Linear_8,325,5,42,127,833134944
85,7,20,Ticks_Linear_8,326,1,48,18,833611600
85,7,20,Ticks_Linear_8,327,5,42,127,833634644
85,7,20,Ticks_Linear_8,328,1,48,19,834087348
85,7,20,Ticks_Linear_8,329,5,42,127,834125132
85,7,20,Ticks_Linear_8,330,5,42,127,834614800
85,7,20,Ticks_Linear_8,331,1,48,20,834626984
85,7,20,Ticks_Linear_8,332,1,48,20,835099700
85,7,20,Ticks_Linear_8,333,5,42,127,835105056
85,7,20,Ticks_Linear_8,334,1,48,20,835588088
85,7,20,Ticks_Linear_8,335,5,42,127,835594500
85,7,20,Ticks_Linear_8,336,5,42,127,836085068
85,7,20,Ticks_Linear_8,0,9999,9999,9999,725532756
85,7,20,Ticks_Linear_8,1,9999,9999,9999,726353020
85,7,20,Ticks_Linear_8,2,9999,9999,9999,727172156
85,7,20,Ticks_Linear_8,3,9999,9999,9999,727992424
85,7,20,Ticks_Linear_8,4,9999,9999,9999,728812600
85,7,20,Ticks_Linear_8,5,9999,9999,9999,729622584
85,7,20,Ticks_Linear_8,6,9999,9999,9999,730432636
85,7,20,Ticks_Linear_8,7,9999,9999,9999,731242616
85,7,20,Ticks_Linear_8,8,9999,9999,9999,732052600
85,7,20,Ticks_Linear_8,9,9999,9999,9999,732862532
85,7,20,Ticks_Linear_8,10,9999,9999,9999,733662264
85,7,20,Ticks_Linear_8,11,9999,9999,9999,734463032
85,7,20,Ticks_Linear_8,12,9999,9999,9999,735262824
85,7,20,Ticks_Linear_8,13,9999,9999,9999,736062548
85,7,20,Ticks_Linear_8,14,9999,9999,9999,736862280
85,7,20,Ticks_Linear_8,15,9999,9999,9999,737652860
85,7,20,Ticks_Linear_8,16,9999,9999,9999,738442332
85,7,20,Ticks_Linear_8,17,9999,9999,9999,739232860
85,7,20,Ticks_Linear_8,18,9999,9999,9999,740022376
85,7,20,Ticks_Linear_8,19,9999,9999,9999,740812884
85,7,20,Ticks_Linear_8,20,9999,9999,9999,741592168
85,7,20,Ticks_Linear_8,21,9999,9999,9999,742372424
85,7,20,Ticks_Linear_8,22,9999,9999,9999,743152748
85,7,20,Ticks_Linear_8,23,9999,9999,9999,743933000
85,7,20,Ticks_Linear_8,24,9999,9999,9999,744712280
85,7,20,Ticks_Linear_8,25,9999,9999,9999,745482348
85,7,20,Ticks_Linear_8,26,9999,9999,9999,746252348
85,7,20,Ticks_Linear_8,27,9999,9999,9999,747022412
85,7,20,Ticks_Linear_8,28,9999,9999,9999,747792476
85,7,20,Ticks_Linear_8,29,9999,9999,9999,748562544
85,7,20,Ticks_Linear_8,30,9999,9999,9999,749322356
85,7,20,Ticks_Linear_8,31,9999,9999,9999,750082164
85,7,20,Ticks_Linear_8,32,9999,9999,9999,750842952
85,7,20,Ticks_Linear_8,33,9999,9999,9999,751602760
85,7,20,Ticks_Linear_8,34,9999,9999,9999,752362564
85,7,20,Ticks_Linear_8,35,9999,9999,9999,753112188
85,7,20,Ticks_Linear_8,36,9999,9999,9999,753862716
85,7,20,Ticks_Linear_8,37,9999,9999,9999,754612340
85,7,20,Ticks_Linear_8,38,9999,9999,9999,755362928
85,7,20,Ticks_Linear_8,39,9999,9999,9999,756112456
85,7,20,Ticks_Linear_8,40,9999,9999,9999,756852800
85,7,20,Ticks_Linear_8,41,9999,9999,9999,757592164
85,7,20,Ticks_Linear_8,42,9999,9999,9999,758332496
85,7,20,Ticks_Linear_8,43,9999,9999,9999,759072840
85,7,20,Ticks_Linear_8,44,9999,9999,9999,759812204
85,7,20,Ticks_Linear_8,45,9999,9999,9999,760542276
85,7,20,Ticks_Linear_8,46,9999,9999,9999,761272428
85,7,20,Ticks_Linear_8,47,9999,9999,9999,762002556
85,7,20,Ticks_Linear_8,48,9999,9999,9999,762732636
85,7,20,Ticks_Linear_8,49,9999,9999,9999,763462716
85,7,20,Ticks_Linear_8,50,9999,9999,9999,764182616
85,7,20,Ticks_Linear_8,51,9999,9999,9999,764902508
85,7,20,Ticks_Linear_8,52,9999,9999,9999,765622328
85,7,20,Ticks_Linear_8,53,9999,9999,9999,766342268
85,7,20,Ticks_Linear_8,54,9999,9999,9999,767062084
85,7,20,Ticks_Linear_8,55,9999,9999,9999,767772772
85,7,20,Ticks_Linear_8,56,9999,9999,9999,768482404
85,7,20,Ticks_Linear_8,57,9999,9999,9999,769193084
85,7,20,Ticks_Linear_8,58,9999,9999,9999,769902688
85,7,20,Ticks_Linear_8,59,9999,9999,9999,770612324
85,7,20,Ticks_Linear_8,60,9999,9999,9999,771312748
85,7,20,Ticks_Linear_8,61,9999,9999,9999,772012124
85,7,20,Ticks_Linear_8,62,9999,9999,9999,772712520
85,7,20,Ticks_Linear_8,63,9999,9999,9999,773412948
85,7,20,Ticks_Linear_8,64,9999,9999,9999,774112316
85,7,20,Ticks_Linear_8,65,9999,9999,9999,774802532
85,7,20,Ticks_Linear_8,66,9999,9999,9999,775492732
85,7,20,Ticks_Linear_8,67,9999,9999,9999,776182856
85,7,20,Ticks_Linear_8,68,9999,9999,9999,776873020
85,7,20,Ticks_Linear_8,69,9999,9999,9999,777562188
85,7,20,Ticks_Linear_8,70,9999,9999,9999,778242168
85,7,20,Ticks_Linear_8,71,9999,9999,9999,778923128
85,7,20,Ticks_Linear_8,72,9999,9999,9999,779612288
85,7,20,Ticks_Linear_8,73,9999,9999,9999,780292192
85,7,20,Ticks_Linear_8,74,9999,9999,9999,780972096
85,7,20,Ticks_Linear_8,75,9999,9999,9999,781642836
85,7,20,Ticks_Linear_8,76,9999,9999,9999,782312556
85,7,20,Ticks_Linear_8,77,9999,9999,9999,782982252
85,7,20,Ticks_Linear_8,78,9999,9999,9999,783652944
85,7,20,Ticks_Linear_8,79,9999,9999,9999,784322668
85,7,20,Ticks_Linear_8,80,9999,9999,9999,784982100
85,7,20,Ticks_Linear_8,81,9999,9999,9999,785642604
85,7,20,Ticks_Linear_8,82,9999,9999,9999,786303088
85,7,20,Ticks_Linear_8,83,9999,9999,9999,786962548
85,7,20,Ticks_Linear_8,84,9999,9999,9999,787622988
85,7,20,Ticks_Linear_8,85,9999,9999,9999,788272236
85,7,20,Ticks_Linear_8,86,9999,9999,9999,788922484
85,7,20,Ticks_Linear_8,87,9999,9999,9999,789572708
85,7,20,Ticks_Linear_8,88,9999,9999,9999,790222960
85,7,20,Ticks_Linear_8,89,9999,9999,9999,790872128
85,7,20,Ticks_Linear_8,90,9999,9999,9999,791512120
85,7,20,Ticks_Linear_8,91,9999,9999,9999,792152156
85,7,20,Ticks_Linear_8,92,9999,9999,9999,792792152
85,7,20,Ticks_Linear_8,93,9999,9999,9999,793432184
85,7,20,Ticks_Linear_8,94,9999,9999,9999,794072176
85,7,20,Ticks_Linear_8,95,9999,9999,9999,794702928
85,7,20,Ticks_Linear_8,96,9999,9999,9999,795332732
85,7,20,Ticks_Linear_8,97,9999,9999,9999,795962436
85,7,20,Ticks_Linear_8,98,9999,9999,9999,796592240
85,7,20,Ticks_Linear_8,99,9999,9999,9999,797222992
85,7,20,Ticks_Linear_8,100,9999,9999,9999,797842516
85,7,20,Ticks_Linear_8,101,9999,9999,9999,798463036
85,7,20,Ticks_Linear_8,102,9999,9999,9999,799082556
85,7,20,Ticks_Linear_8,103,9999,9999,9999,799702092
85,7,20,Ticks_Linear_8,104,9999,9999,9999,800322660
85,7,20,Ticks_Linear_8,105,9999,9999,9999,800932920
85,7,20,Ticks_Linear_8,106,9999,9999,9999,801542256
85,7,20,Ticks_Linear_8,107,9999,9999,9999,802152560
85,7,20,Ticks_Linear_8,108,9999,9999,9999,802762820
85,7,20,Ticks_Linear_8,109,9999,9999,9999,803372088
85,7,20,Ticks_Linear_8,110,9999,9999,9999,803972212
85,7,20,Ticks_Linear_8,111,9999,9999,9999,804572280
85,7,20,Ticks_Linear_8,112,9999,9999,9999,805172328
85,7,20,Ticks_Linear_8,113,9999,9999,9999,805772380
85,7,20,Ticks_Linear_8,114,9999,9999,9999,806372448
85,7,20,Ticks_Linear_8,115,9999,9999,9999,806962240
85,7,20,Ticks_Linear_8,116,9999,9999,9999,807552112
85,7,20,Ticks_Linear_8,117,9999,9999,9999,808142968
85,7,20,Ticks_Linear_8,118,9999,9999,9999,808732756
85,7,20,Ticks_Linear_8,119,9999,9999,9999,809322552
85,7,20,Ticks_Linear_8,120,9999,9999,9999,809902184
85,7,20,Ticks_Linear_8,121,9999,9999,9999,810482760
85,7,20,Ticks_Linear_8,122,9999,9999,9999,811062360
85,7,20,Ticks_Linear_8,123,9999,9999,9999,811642944
85,7,20,Ticks_Linear_8,124,9999,9999,9999,812222572
85,7,20,Ticks_Linear_8,125,9999,9999,9999,812792888
85,7,20,Ticks_Linear_8,126,9999,9999,9999,813362228
85,7,20,Ticks_Linear_8,127,9999,9999,9999,813932624
85,7,20,Ticks_Linear_8,128,9999,9999,9999,814502964
85,7,20,Ticks_Linear_8,129,9999,9999,9999,815072312
85,7,20,Ticks_Linear_8,130,9999,9999,9999,815632452
85,7,20,Ticks_Linear_8,131,9999,9999,9999,816192584
85,7,20,Ticks_Linear_8,132,9999,9999,9999,816752712
85,7,20,Ticks_Linear_8,133,9999,9999,9999,817312868
85,7,20,Ticks_Linear_8,134,9999,9999,9999,817873000
85,7,20,Ticks_Linear_8,135,9999,9999,9999,818422880
85,7,20,Ticks_Linear_8,136,9999,9999,9999,818972760
85,7,20,Ticks_Linear_8,137,9999,9999,9999,819522636
85,7,20,Ticks_Linear_8,138,9999,9999,9999,820072504
85,7,20,Ticks_Linear_8,139,9999,9999,9999,820622452
85,7,20,Ticks_Linear_8,140,9999,9999,9999,821163072
85,7,20,Ticks_Linear_8,141,9999,9999,9999,821713016
85,7,20,Ticks_Linear_8,142,9999,9999,9999,822252636
85,7,20,Ticks_Linear_8,143,9999,9999,9999,822792252
85,7,20,Ticks_Linear_8,144,9999,9999,9999,823332980
85,7,20,Ticks_Linear_8,145,9999,9999,9999,823862340
85,7,20,Ticks_Linear_8,146,9999,9999,9999,824392816
85,7,20,Ticks_Linear_8,147,9999,9999,9999,824922172
85,7,20,Ticks_Linear_8,148,9999,9999,9999,825452652
85,7,20,Ticks_Linear_8,149,9999,9999,9999,825983052
85,7,20,Ticks_Linear_8,150,9999,9999,9999,826502224
85,7,20,Ticks_Linear_8,151,9999,9999,9999,827022444
85,7,20,Ticks_Linear_8,152,9999,9999,9999,827542588
85,7,20,Ticks_Linear_8,153,9999,9999,9999,828062804
85,7,20,Ticks_Linear_8,154,9999,9999,9999,828583024
85,7,20,Ticks_Linear_8,155,9999,9999,9999,829092988
85,7,20,Ticks_Linear_8,156,9999,9999,9999,829602940
85,7,20,Ticks_Linear_8,157,9999,9999,9999,830112828
85,7,20,Ticks_Linear_8,158,9999,9999,9999,830622784
85,7,20,Ticks_Linear_8,159,9999,9999,9999,831132744
85,7,20,Ticks_Linear_8,160,9999,9999,9999,831632496
85,7,20,Ticks_Linear_8,161,9999,9999,9999,832132196
85,7,20,Ticks_Linear_8,162,9999,9999,9999,832632948
85,7,20,Ticks_Linear_8,163,9999,9999,9999,833132668
85,7,20,Ticks_Linear_8,164,9999,9999,9999,833632344
85,7,20,Ticks_Linear_8,165,9999,9999,9999,834122832
85,7,20,Ticks_Linear_8,166,9999,9999,9999,834612280
85,7,20,Ticks_Linear_8,167,9999,9999,9999,835102832
85,7,20,Ticks_Linear_8,168,9999,9999,9999,835592276
85,7,20,Ticks_Linear_8,169,9999,9999,9999,836082768
85,8,10,Ticks_ISO_T2_5,0,5,42,127,845339936
85,8,10,Ticks_ISO_T2_5,1,5,42,127,845839652
85,8,10,Ticks_ISO_T2_5,2,1,48,17,846282784
85,8,10,Ticks_ISO_T2_5,3,5,42,127,846339436
85,8,10,Ticks_ISO_T2_5,4,1,48,18,846761160
85,8,10,Ticks_ISO_T2_5,5,5,42,127,846840328
85,8,10,Ticks_ISO_T2_5,6,5,42,127,847339952
85,8,10,Ticks_ISO_T2_5,7,1,48,16,847341512
85,8,10,Ticks_ISO_T2_5,8,1,48,19,847817844
85,8,10,Ticks_ISO_T2_5,9,5,42,127,847839568
85,8,10,Ticks_ISO_T2_5,10,1,48,19,848288292
85,8,10,Ticks_ISO_T2_5,11,5,42,127,848340384
85,8,10,Ticks_ISO_T2_5,12,1,48,20,848807360
85,8,10,Ticks_ISO_T2_5,13,5,42,127,848840004
85,8,10,Ticks_ISO_T2_5,14,1,48,19,849305636
85,8,10,Ticks_ISO_T2_5,15,5,42,127,849339776
85,8,10,Ticks_ISO_T2_5,16,1,48,19,849800064
85,8,10,Ticks_ISO_T2_5,17,5,42,127,849839468
85,8,10,Ticks_ISO_T2_5,18,1,48,16,850278596
85,8,10,Ticks_ISO_T2_5,19,5,42,127,850340360
85,8,10,Ticks_ISO_T2_5,20,1,48,15,850780004
85,8,10,Ticks_ISO_T2_5,21,5,42,127,850839956
85,8,10,Ticks_ISO_T2_5,22,1,48,19,851329120
85,8,10,Ticks_ISO_T2_5,23,5,42,127,851339700
85,8,10,Ticks_ISO_T2_5,24,1,48,17,851817896
85,8,10,Ticks_ISO_T2_5,25,5,42,127,851840440
85,8,10,Ticks_ISO_T2_5,26,1,48,22,852298436
85,8,10,Ticks_ISO_T2_5,27,5,42,127,852340208
85,8,10,Ticks_ISO_T2_5,28,1,48,19,852791552
85,8,10,Ticks_ISO_T2_5,29,5,42,127,852839680
85,8,10,Ticks_ISO_T2_5,30,1,48,23,853316004
85,8,10,Ticks_ISO_T2_5,31,5,42,127,853339600
85,8,10,Ticks_ISO_T2_5,32,5,42,127,853840196
85,8,10,Ticks_ISO_T2_5,33,1,48,19,853845408
85,8,10,Ticks_ISO_T2_5,34,1,48,18,854337084
85,8,10,Ticks_ISO_T2_5,35,5,42,127,854339808
85,8,10,Ticks_ISO_T2_5,36,1,48,19,854802596
85,8,10,Ticks_ISO_T2_5,37,5,42,127,854839580
85,8,10,Ticks_ISO_T2_5,38,1,48,21,855324652
85,8,10,Ticks_ISO_T2_5,39,5,42,127,855340248
85,8,10,Ticks_ISO_T2_5,40,1,48,18,855836240
85,8,10,Ticks_ISO_T2_5,41,5,42,127,855840312
85,8,10,Ticks_ISO_T2_5,42,1,48,18,856324124
85,8,10,Ticks_ISO_T2_5,43,5,42,127,856339788
85,8,10,Ticks_ISO_T2_5,44,1,48,19,856804368
85,8,10,Ticks_ISO_T2_5,45,5,42,127,856839480
85,8,10,Ticks_ISO_T2_5,46,1,48,19,857312292
85,8,10,Ticks_ISO_T2_5,47,5,42,127,857340224
85,8,10,Ticks_ISO_T2_5,48,1,48,19,857831952
85,8,10,Ticks_ISO_T2_5,49,5,42,127,857839916
85,8,10,Ticks_ISO_T2_5,50,1,48,17,858314220
85,8,10,Ticks_ISO_T2_5,51,5,42,127,858339612
85,8,10,Ticks_ISO_T2_5,52,1,48,19,858792892
85,8,10,Ticks_ISO_T2_5,53,5,42,127,858840352
85,8,10,Ticks_ISO_T2_5,54,1,48,19,859305528
85,8,10,Ticks_ISO_T2_5,55,5,42,127,859340268
85,8,10,Ticks_ISO_T2_5,56,1,48,20,859832528
85,8,10,Ticks_ISO_T2_5,57,5,42,127,859839892
85,8,10,Ticks_ISO_T2_5,58,1,48,21,860302504
85,8,10,Ticks_ISO_T2_5,59,5,42,127,860339436
85,8,10,Ticks_ISO_T2_5,60,1,48,19,860820144
85,8,10,Ticks_ISO_T2_5,61,5,42,127,860840176
85,8,10,Ticks_ISO_T2_5,62,1,48,20,861338588
85,8,10,Ticks_ISO_T2_5,63,5,42,127,861340168
85,8,10,Ticks_ISO_T2_5,64,1,48,20,861835092
85,8,10,Ticks_ISO_T2_5,65,5,42,127,861839840
85,8,10,Ticks_ISO_T2_5,66,1,48,19,862300308
85,8,10,Ticks_ISO_T2_5,67,5,42,127,862339312
85,8,10,Ticks_ISO_T2_5,68,1,48,18,862812940
85,8,10,Ticks_ISO_T2_5,69,5,42,127,862840200
85,8,10,Ticks_ISO_T2_5,70,1,48,20,863309944
85,8,10,Ticks_ISO_T2_5,71,5,42,127,863339968
85,8,10,Ticks_ISO_T2_5,72,1,48,20,863817192
85,8,10,Ticks_ISO_T2_5,73,5,42,127,863839592
85,8,10,Ticks_ISO_T2_5,74,1,48,20,864301628
85,8,10,Ticks_ISO_T2_5,75,5,42,127,864340260
85,8,10,Ticks_ISO_T2_5,76,1,48,19,864737524
85,8,10,Ticks_ISO_T2_5,77,5,42,127,864840012
85,8,10,Ticks_ISO_T2_5,78,5,42,127,865339804
85,8,10,Ticks_ISO_T2_5,79,1,48,18,865379352
85,8,10,Ticks_ISO_T2_5,80,5,42,127,865839424
85,8,10,Ticks_ISO_T2_5,81,1,48,18,865853236
85,8,10,Ticks_ISO_T2_5,82,1,48,16,866319776
85,8,10,Ticks_ISO_T2_5,83,5,42,127,866340156
85,8,10,Ticks_ISO_T2_5,84,1,48,19,866813860
85,8,10,Ticks_ISO_T2_5,85,5,42,127,866840076
85,8,10,Ticks_ISO_T2_5,86,1,48,17,867317076
85,8,10,Ticks_ISO_T2_5,87,5,42,127,867339548
85,8,10,Ticks_ISO_T2_5,88,1,48,21,867793580
85,8,10,Ticks_ISO_T2_5,89,5,42,127,867840216
85,8,10,Ticks_ISO_T2_5,90,1,48,16,868339312
85,8,10,Ticks_ISO_T2_5,91,5,42,127,868340728
85,8,10,Ticks_ISO_T2_5,92,1,48,19,868802392
85,8,10,Ticks_ISO_T2_5,93,5,42,127,868839752
85,8,10,Ticks_ISO_T2_5,94,1,48,18,869315852
85,8,10,Ticks_ISO_T2_5,95,5,42,127,869339448
85,8,10,Ticks_ISO_T2_5,96,5,42,127,869840272
85,8,10,Ticks_ISO_T2_5,97,1,48,20,869845036
85,8,10,Ticks_ISO_T2_5,98,1,48,17,870326232
85,8,10,Ticks_ISO_T2_5,99,5,42,127,870339884
85,8,10,Ticks_ISO_T2_5,100,5,42,127,870839584
85,8,10,Ticks_ISO_T2_5,101,1,48,16,870856168
85,8,10,Ticks_ISO_T2_5,102,1,48,18,871299496
85,8,10,Ticks_ISO_T2_5,103,5,42,127,871340396
85,8,10,Ticks_ISO_T2_5,104,1,48,19,871829564
85,8,10,Ticks_ISO_T2_5,105,5,42,127,871840164
85,8,10,Ticks_ISO_T2_5,106,5,42,127,872339768
85,8,10,Ticks_ISO_T2_5,107,1,48,16,872345452
85,8,10,Ticks_ISO_T2_5,108,1,48,20,872834032
85,8,10,Ticks_ISO_T2_5,109,5,42,127,872839380
85,8,10,Ticks_ISO_T2_5,110,1,48,18,873293416
85,8,10,Ticks_ISO_T2_5,111,5,42,127,873340348
85,8,10,Ticks_ISO_T2_5,112,5,42,127,873840120
85,8,10,Ticks_ISO_T2_5,113,1,48,19,873848476
85,8,10,Ticks_ISO_T2_5,114,5,42,127,874339668
85,8,10,Ticks_ISO_T2_5,115,1,48,16,874365376
85,8,10,Ticks_ISO_T2_5,116,1,48,15,874822116
85,8,10,Ticks_ISO_T2_5,117,5,42,127,874840552
85,8,10,Ticks_ISO_T2_5,118,1,48,20,875317996
85,8,10,Ticks_ISO_T2_5,119,5,42,127,875340020
85,8,10,Ticks_ISO_T2_5,120,5,42,127,875840020
85,8,10,Ticks_ISO_T2_5,121,1,48,17,875853760
85,8,10,Ticks_ISO_T2_5,122,1,48,17,876336388
85,8,10,Ticks_ISO_T2_5,123,5,42,127,876339488
85,8,10,Ticks_ISO_T2_5,124,5,42,127,876840232
85,8,10,Ticks_ISO_T2_5,125,1,48,20,876857640
85,8,10,Ticks_ISO_T2_5,126,1,48,21,877337648
85,8,10,Ticks_ISO_T2_5,127,5,42,127,877339996
85,8,10,Ticks_ISO_T2_5,128,5,42,127,877839920
85,8,10,Ticks_ISO_T2_5,129,1,48,19,877843264
85,8,10,Ticks_ISO_T2_5,130,1,48,20,878329328
85,8,10,Ticks_ISO_T2_5,131,5,42,127,878339388
85,8,10,Ticks_ISO_T2_5,132,5,42,127,878840136
85,8,10,Ticks_ISO_T2_5,133,1,48,21,878847148
85,8,10,Ticks_ISO_T2_5,134,1,48,18,879315480
85,8,10,Ticks_ISO_T2_5,135,5,42,127,879340120
85,8,10,Ticks_ISO_T2_5,136,1,48,18,879823476
85,8,10,Ticks_ISO_T2_5,137,5,42,127,879839816
85,8,10,Ticks_ISO_T2_5,138,5,42,127,880340196
85,8,10,Ticks_ISO_T2_5,139,1,48,16,880367776
85,8,10,Ticks_ISO_T2_5,140,1,48,22,880812324
85,8,10,Ticks_ISO_T2_5,141,5,42,127,880840032
85,8,10,Ticks_ISO_T2_5,142,1,48,18,881302968
85,8,10,Ticks_ISO_T2_5,143,5,42,127,881340024
85,8,10,Ticks_ISO_T2_5,144,1,48,18,881808992
85,8,10,Ticks_ISO_T2_5,145,5,42,127,881839420
85,8,10,Ticks_ISO_T2_5,146,1,48,21,882325968
85,8,10,Ticks_ISO_T2_5,147,5,42,127,882340140
85,8,10,Ticks_ISO_T2_5,148,1,48,25,882834088
85,8,10,Ticks_ISO_T2_5,149,5,42,127,882839908
85,8,10,Ticks_ISO_T2_5,150,5,42,127,883339956
85,8,10,Ticks_ISO_T2_5,151,1,48,19,883355292
85,8,10,Ticks_ISO_T2_5,152,1,48,18,883812836
85,8,10,Ticks_ISO_T2_5,153,5,42,127,883840320
85,8,10,Ticks_ISO_T2_5,154,5,42,127,884340096
85,8,10,Ticks_ISO_T2_5,155,1,48,19,884366776
85,8,10,Ticks_ISO_T2_5,156,1,48,19,884813268
85,8,10,Ticks_ISO_T2_5,157,5,42,127,884840004
85,8,10,Ticks_ISO_T2_5,158,1,48,20,885323212
85,8,10,Ticks_ISO_T2_5,159,5,42,127,885339476
85,8,10,Ticks_ISO_T2_5,160,1,48,20,885810936
85,8,10,Ticks_ISO_T2_5,161,5,42,127,885840292
85,8,10,Ticks_ISO_T2_5,162,1,48,20,886329332
85,8,10,Ticks_ISO_T2_5,163,5,42,127,886340064
85,8,10,Ticks_ISO_T2_5,164,5,42,127,886839840
85,8,10,Ticks_ISO_T2_5,165,1,48,18,886844904
85,8,10,Ticks_ISO_T2_5,166,5,42,127,887340580
85,8,10,Ticks_ISO_T2_5,167,1,48,19,887357840
85,8,10,Ticks_ISO_T2_5,168,1,48,17,887830436
85,8,10,Ticks_ISO_T2_5,169,5,42,127,887839972
85,8,10,Ticks_ISO_T2_5,170,5,42,127,888339896
85,8,10,Ticks_ISO_T2_5,171,1,48,19,888366876
85,8,10,Ticks_ISO_T2_5,172,1,48,20,888820476
85,8,10,Ticks_ISO_T2_5,173,5,42,127,888839732
85,8,10,Ticks_ISO_T2_5,174,1,48,21,889277312
85,8,10,Ticks_ISO_T2_5,175,5,42,127,889340176
85,8,10,Ticks_ISO_T2_5,176,5,42,127,889839880
85,8,10,Ticks_ISO_T2_5,177,1,48,17,889864012
85,8,10,Ticks_ISO_T2_5,178,5,42,127,890339724
85,8,10,Ticks_ISO_T2_5,179,1,48,22,890367748
85,8,10,Ticks_ISO_T2_5,180,1,48,20,890822772
85,8,10,Ticks_ISO_T2_5,181,5,42,127,890840604
85,8,10,Ticks_ISO_T2_5,182,1,48,20,891323212
85,8,10,Ticks_ISO_T2_5,183,5,42,127,891340152
85,8,10,Ticks_ISO_T2_5,184,1,48,20,891792064
85,8,10,Ticks_ISO_T2_5,185,5,42,127,891839772
85,8,10,Ticks_ISO_T2_5,186,1,48,17,892326564
85,8,10,Ticks_ISO_T2_5,187,5,42,127,892339616
85,8,10,Ticks_ISO_T2_5,188,1,48,21,892791232
85,8,10,Ticks_ISO_T2_5,189,5,42,127,892840432
85,8,10,Ticks_ISO_T2_5,190,1,48,18,893315088
85,8,10,Ticks_ISO_T2_5,191,5,42,127,893339976
85,8,10,Ticks_ISO_T2_5,192,1,48,18,893830264
85,8,10,Ticks_ISO_T2_5,193,5,42,127,893839720
85,8,10,Ticks_ISO_T2_5,194,1,48,20,894296376
85,8,10,Ticks_ISO_T2_5,195,5,42,127,894339564
85,8,10,Ticks_ISO_T2_5,196,1,48,19,894835704
85,8,10,Ticks_ISO_T2_5,197,5,42,127,894840156
85,8,10,Ticks_ISO_T2_5,198,5,42,127,895339856
85,8,10,Ticks_ISO_T2_5,199,1,48,17,895368484
85,8,10,Ticks_ISO_T2_5,200,1,48,21,895789176
85,8,10,Ticks_ISO_T2_5,201,5,42,127,895839620
85,8,10,Ticks_ISO_T2_5,202,5,42,127,896340440
85,8,10,Ticks_ISO_T2_5,203,1,48,21,896346180
85,8,10,Ticks_ISO_T2_5,204,5,42,127,896840136
85,8,10,Ticks_ISO_T2_5,205,1,48,21,896845424
85,8,10,Ticks_ISO_T2_5,206,1,48,21,897310692
85,8,10,Ticks_ISO_T2_5,207,5,42,127,897339676
85,8,10,Ticks_ISO_T2_5,208,1,48,20,897809788
85,8,10,Ticks_ISO_T2_5,209,5,42,127,897839592
85,8,10,Ticks_ISO_T2_5,210,1,48,21,898331620
85,8,10,Ticks_ISO_T2_5,211,5,42,127,898340184
85,8,10,Ticks_ISO_T2_5,212,1,48,22,898809252
85,8,10,Ticks_ISO_T2_5,213,5,42,127,898839804
85,8,10,Ticks_ISO_T2_5,214,1,48,19,899311936
85,8,10,Ticks_ISO_T2_5,215,5,42,127,899339648
85,8,10,Ticks_ISO_T2_5,216,1,48,20,899830628
85,8,10,Ticks_ISO_T2_5,217,5,42,127,899840612
85,8,10,Ticks_ISO_T2_5,218,1,48,21,900302952
85,8,10,Ticks_ISO_T2_5,219,5,42,127,900340008
85,8,10,Ticks_ISO_T2_5,220,1,48,22,900774300
85,8,10,Ticks_ISO_T2_5,221,5,42,127,900839856
85,8,10,Ticks_ISO_T2_5,222,1,48,17,901323360
85,8,10,Ticks_ISO_T2_5,223,5,42,127,901339476
85,8,10,Ticks_ISO_T2_5,224,1,48,18,901809444
85,8,10,Ticks_ISO_T2_5,225,5,42,127,901840588
85,8,10,Ticks_ISO_T2_5,226,1,48,20,902301280
85,8,10,Ticks_ISO_T2_5,227,5,42,127,902339836
85,8,10,Ticks_ISO_T2_5,228,5,42,127,902839616
85,8,10,Ticks_ISO_T2_5,229,1,48,19,902861060
85,8,10,Ticks_ISO_T2_5,230,1,48,17,903333284
85,8,10,Ticks_ISO_T2_5,231,5,42,127,903340572
85,8,10,Ticks_ISO_T2_5,232,5,42,127,903840052
85,8,10,Ticks_ISO_T2_5,233,1,48,21,903858728
85,8,10,Ticks_ISO_T2_5,234,1,48,19,904335564
85,8,10,Ticks_ISO_T2_5,235,5,42,127,904339788
85,8,10,Ticks_ISO_T2_5,236,5,42,127,904839492
85,8,10,Ticks_ISO_T2_5,237,1,48,20,904840380
85,8,10,Ticks_ISO_T2_5,238,1,48,21,905340008
85,8,10,Ticks_ISO_T2_5,239,5,42,127,905341568
85,8,10,Ticks_ISO_T2_5,240,1,48,22,905825000
85,8,10,Ticks_ISO_T2_5,241,5,42,127,905839996
85,8,10,Ticks_ISO_T2_5,242,1,48,20,906286100
85,8,10,Ticks_ISO_T2_5,243,5,42,127,906339540
85,8,10,Ticks_ISO_T2_5,244,1,48,16,906839840
85,8,10,Ticks_ISO_T2_5,245,5,42,127,906841480
85,8,10,Ticks_ISO_T2_5,246,5,42,127,907340432
85,8,10,Ticks_ISO_T2_5,247,1,48,19,907351404
85,8,10,Ticks_ISO_T2_5,248,1,48,18,907801488
85,8,10,Ticks_ISO_T2_5,249,5,42,127,907839896
85,8,10,Ticks_ISO_T2_5,250,1,48,22,908300284
85,8,10,Ticks_ISO_T2_5,251,5,42,127,908339440
85,8,10,Ticks_ISO_T2_5,252,1,48,20,908829596
85,8,10,Ticks_ISO_T2_5,253,5,42,127,908840404
85,8,10,Ticks_ISO_T2_5,254,1,48,17,909307980
85,8,10,Ticks_ISO_T2_5,255,5,42,127,909340248
85,8,10,Ticks_ISO_T2_5,256,1,48,19,909835572
85,8,10,Ticks_ISO_T2_5,257,5,42,127,909839792
85,8,10,Ticks_ISO_T2_5,258,1,48,20,910322028
85,8,10,Ticks_ISO_T2_5,0,9999,9999,9999,845337652
85,8,10,Ticks_ISO_T2_5,1,9999,9999,9999,845837364
85,8,10,Ticks_ISO_T2_5,2,9999,9999,9999,846337076
85,8,10,Ticks_ISO_T2_5,3,9999,9999,9999,846837816
85,8,10,Ticks_ISO_T2_5,4,9999,9999,9999,847337592
85,8,10,Ticks_ISO_T2_5,5,9999,9999,9999,847837280
85,8,10,Ticks_ISO_T2_5,6,9999,9999,9999,848338024
85,8,10,Ticks_ISO_T2_5,7,9999,9999,9999,848837716
85,8,10,Ticks_ISO_T2_5,8,9999,9999,9999,849337416
85,8,10,Ticks_ISO_T2_5,9,9999,9999,9999,849837108
85,8,10,Ticks_ISO_T2_5,10,9999,9999,9999,850337848
85,8,10,Ticks_ISO_T2_5,11,9999,9999,9999,850837592
85,8,10,Ticks_ISO_T2_5,12,9999,9999,9999,851337264
85,8,10,Ticks_ISO_T2_5,13,9999,9999,9999,851838004
85,8,10,Ticks_ISO_T2_5,14,9999,9999,9999,852337776
85,8,10,Ticks_ISO_T2_5,15,9999,9999,9999,852837468
85,8,10,Ticks_ISO_T2_5,16,9999,9999,9999,853337164
85,8,10,Ticks_ISO_T2_5,17,9999,9999,9999,853837908
85,8,10,Ticks_ISO_T2_5,18,9999,9999,9999,854337600
85,8,10,Ticks_ISO_T2_5,19,9999,9999,9999,854837368
85,8,10,Ticks_ISO_T2_5,20,9999,9999,9999,855338036
85,8,10,Ticks_ISO_T2_5,21,9999,9999,9999,855837804
85,8,10,Ticks_ISO_T2_5,22,9999,9999,9999,856337500
85,8,10,Ticks_ISO_T2_5,23,9999,9999,9999,856837196
85,8,10,Ticks_ISO_T2_5,24,9999,9999,9999,857337936
85,8,10,Ticks_ISO_T2_5,25,9999,9999,9999,857837632
85,8,10,Ticks_ISO_T2_5,26,9999,9999,9999,858337400
85,8,10,Ticks_ISO_T2_5,27,9999,9999,9999,858838068
85,8,10,Ticks_ISO_T2_5,28,9999,9999,9999,859337836
85,8,10,Ticks_ISO_T2_5,29,9999,9999,9999,859837528
85,8,10,Ticks_ISO_T2_5,30,9999,9999,9999,860337224
85,8,10,Ticks_ISO_T2_5,31,9999,9999,9999,860837964
85,8,10,Ticks_ISO_T2_5,32,9999,9999,9999,861337668
85,8,10,Ticks_ISO_T2_5,33,9999,9999,9999,861837404
85,8,10,Ticks_ISO_T2_5,34,9999,9999,9999,862337100
85,8,10,Ticks_ISO_T2_5,35,9999,9999,9999,862837840
85,8,10,Ticks_ISO_T2_5,36,9999,9999,9999,863337536
85,8,10,Ticks_ISO_T2_5,37,9999,9999,9999,863837304
85,8,10,Ticks_ISO_T2_5,38,9999,9999,9999,864337972
85,8,10,Ticks_ISO_T2_5,39,9999,9999,9999,864837724
85,8,10,Ticks_ISO_T2_5,40,9999,9999,9999,865337444
85,8,10,Ticks_ISO_T2_5,41,9999,9999,9999,865837136
85,8,10,Ticks_ISO_T2_5,42,9999,9999,9999,866337872
85,8,10,Ticks_ISO_T2_5,43,9999,9999,9999,866837568
85,8,10,Ticks_ISO_T2_5,44,9999,9999,9999,867337336
85,8,10,Ticks_ISO_T2_5,45,9999,9999,9999,867838004
85,8,10,Ticks_ISO_T2_5,46,9999,9999,9999,868337780
85,8,10,Ticks_ISO_T2_5,47,9999,9999,9999,868837468
85,8,10,Ticks_ISO_T2_5,48,9999,9999,9999,869337164
85,8,10,Ticks_ISO_T2_5,49,9999,9999,9999,869837908
85,8,10,Ticks_ISO_T2_5,50,9999,9999,9999,870337596
85,8,10,Ticks_ISO_T2_5,51,9999,9999,9999,870837300
85,8,10,Ticks_ISO_T2_5,52,9999,9999,9999,871338032
85,8,10,Ticks_ISO_T2_5,53,9999,9999,9999,871837804
85,8,10,Ticks_ISO_T2_5,54,9999,9999,9999,872337480
85,8,10,Ticks_ISO_T2_5,55,9999,9999,9999,872837168
85,8,10,Ticks_ISO_T2_5,56,9999,9999,9999,873337912
85,8,10,Ticks_ISO_T2_5,57,9999,9999,9999,873837688
85,8,10,Ticks_ISO_T2_5,58,9999,9999,9999,874337380
85,8,10,Ticks_ISO_T2_5,59,9999,9999,9999,874838116
85,8,10,Ticks_ISO_T2_5,60,9999,9999,9999,875337808
85,8,10,Ticks_ISO_T2_5,61,9999,9999,9999,875837512
85,8,10,Ticks_ISO_T2_5,62,9999,9999,9999,876337200
85,8,10,Ticks_ISO_T2_5,63,9999,9999,9999,876837948
85,8,10,Ticks_ISO_T2_5,64,9999,9999,9999,877337708
85,8,10,Ticks_ISO_T2_5,65,9999,9999,9999,877837412
85,8,10,Ticks_ISO_T2_5,66,9999,9999,9999,878337100
85,8,10,Ticks_ISO_T2_5,67,9999,9999,9999,878837848
85,8,10,Ticks_ISO_T2_5,68,9999,9999,9999,879337536
85,8,10,Ticks_ISO_T2_5,69,9999,9999,9999,879837232
85,8,10,Ticks_ISO_T2_5,70,9999,9999,9999,880337984
85,8,10,Ticks_ISO_T2_5,71,9999,9999,9999,880837744
85,8,10,Ticks_ISO_T2_5,72,9999,9999,9999,881337440
85,8,10,Ticks_ISO_T2_5,73,9999,9999,9999,881837136
85,8,10,Ticks_ISO_T2_5,74,9999,9999,9999,882337852
85,8,10,Ticks_ISO_T2_5,75,9999,9999,9999,882837596
85,8,10,Ticks_ISO_T2_5,76,9999,9999,9999,883337296
85,8,10,Ticks_ISO_T2_5,77,9999,9999,9999,883838032
85,8,10,Ticks_ISO_T2_5,78,9999,9999,9999,884337736
85,8,10,Ticks_ISO_T2_5,79,9999,9999,9999,884837496
85,8,10,Ticks_ISO_T2_5,80,9999,9999,9999,885337192
85,8,10,Ticks_ISO_T2_5,81,9999,9999,9999,885837932
85,8,10,Ticks_ISO_T2_5,82,9999,9999,9999,886337628
85,8,10,Ticks_ISO_T2_5,83,9999,9999,9999,886837328
85,8,10,Ticks_ISO_T2_5,84,9999,9999,9999,887338072
85,8,10,Ticks_ISO_T2_5,85,9999,9999,9999,887837760
85,8,10,Ticks_ISO_T2_5,86,9999,9999,9999,888337460
85,8,10,Ticks_ISO_T2_5,87,9999,9999,9999,888837224
85,8,10,Ticks_ISO_T2_5,88,9999,9999,9999,889337964
85,8,10,Ticks_ISO_T2_5,89,9999,9999,9999,889837664
85,8,10,Ticks_ISO_T2_5,90,9999,9999,9999,890337360
85,8,10,Ticks_ISO_T2_5,91,9999,9999,9999,890838096
85,8,10,Ticks_ISO_T2_5,92,9999,9999,9999,891337792
85,8,10,Ticks_ISO_T2_5,93,9999,9999,9999,891837560
85,8,10,Ticks_ISO_T2_5,94,9999,9999,9999,892337256
85,8,10,Ticks_ISO_T2_5,95,9999,9999,9999,892837996
85,8,10,Ticks_ISO_T2_5,96,9999,9999,9999,893337688
85,8,10,Ticks_ISO_T2_5,97,9999,9999,9999,893837432
85,8,10,Ticks_ISO_T2_5,98,9999,9999,9999,894337128
85,8,10,Ticks_ISO_T2_5,99,9999,9999,9999,894837868
85,8,10,Ticks_ISO_T2_5,100,9999,9999,9999,895337568
85,8,10,Ticks_ISO_T2_5,101,9999,9999,9999,895837260
85,8,10,Ticks_ISO_T2_5,102,9999,9999,9999,896338008
85,8,10,Ticks_ISO_T2_5,103,9999,9999,9999,896837700
85,8,10,Ticks_ISO_T2_5,104,9999,9999,9999,897337464
85,8,10,Ticks_ISO_T2_5,105,9999,9999,9999,897837156
85,8,10,Ticks_ISO_T2_5,106,9999,9999,9999,898337896
85,8,10,Ticks_ISO_T2_5,107,9999,9999,9999,898837592
85,8,10,Ticks_ISO_T2_5,108,9999,9999,9999,899337288
85,8,10,Ticks_ISO_T2_5,109,9999,9999,9999,899838028
85,8,10,Ticks_ISO_T2_5,110,9999,9999,9999,900337724
85,8,10,Ticks_ISO_T2_5,111,9999,9999,9999,900837496
85,8,10,Ticks_ISO_T2_5,112,9999,9999,9999,901337192
85,8,10,Ticks_ISO_T2_5,113,9999,9999,9999,901837932
85,8,10,Ticks_ISO_T2_5,114,9999,9999,9999,902337624
85,8,10,Ticks_ISO_T2_5,115,9999,9999,9999,902837328
85,8,10,Ticks_ISO_T2_5,116,9999,9999,9999,903338064
85,8,10,Ticks_ISO_T2_5,117,9999,9999,9999,903837764
85,8,10,Ticks_ISO_T2_5,118,9999,9999,9999,904337500
85,8,10,Ticks_ISO_T2_5,119,9999,9999,9999,904837204
85,8,10,Ticks_ISO_T2_5,120,9999,9999,9999,905337948
85,8,10,Ticks_ISO_T2_5,121,9999,9999,9999,905837632
85,8,10,Ticks_ISO_T2_5,122,9999,9999,9999,906337328
85,8,10,Ticks_ISO_T2_5,123,9999,9999,9999,906838080
85,8,10,Ticks_ISO_T2_5,124,9999,9999,9999,907337848
85,8,10,Ticks_ISO_T2_5,125,9999,9999,9999,907837536
85,8,10,Ticks_ISO_T2_5,126,9999,9999,9999,908337228
85,8,10,Ticks_ISO_T2_5,127,9999,9999,9999,908837968
85,8,10,Ticks_ISO_T2_5,128,9999,9999,9999,909337664
85,8,10,Ticks_ISO_T2_5,129,9999,9999,9999,909837432
85,9,9,Ticks_ISO_T2_8,0,5,42,127,922779156
85,9,9,Ticks_ISO_T2_8,1,5,42,127,923578692
85,9,9,Ticks_ISO_T2_8,2,1,48,26,924356944
85,9,9,Ticks_ISO_T2_8,3,5,42,127,924378440
85,9,9,Ticks_ISO_T2_8,4,1,48,22,925169240
85,9,9,Ticks_ISO_T2_8,5,5,42,127,925179296
85,9,9,Ticks_ISO_T2_8,6,1,48,27,925972640
85,9,9,Ticks_ISO_T2_8,7,5,42,127,925979252
85,9,9,Ticks_ISO_T2_8,8,1,48,21,926761080
85,9,9,Ticks_ISO_T2_8,9,5,42,127,926778764
85,9,9,Ticks_ISO_T2_8,10,1,48,22,927533436
85,9,9,Ticks_ISO_T2_8,11,5,42,127,927578348
85,9,9,Ticks_ISO_T2_8,12,1,48,24,928335936
85,9,9,Ticks_ISO_T2_8,13,5,42,127,928379128
85,9,9,Ticks_ISO_T2_8,14,1,48,24,929152796
85,9,9,Ticks_ISO_T2_8,15,5,42,127,929179108
85,9,9,Ticks_ISO_T2_8,16,1,48,22,929945300
85,9,9,Ticks_ISO_T2_8,17,5,42,127,929978696
85,9,9,Ticks_ISO_T2_8,18,1,48,23,930702144
85,9,9,Ticks_ISO_T2_8,19,5,42,127,930778352
85,9,9,Ticks_ISO_T2_8,20,1,48,25,931549928
85,9,9,Ticks_ISO_T2_8,21,5,42,127,931579280
85,9,9,Ticks_ISO_T2_8,22,1,48,26,932316072
85,9,9,Ticks_ISO_T2_8,23,5,42,127,932379088
85,9,9,Ticks_ISO_T2_8,24,1,48,19,933132036
85,9,9,Ticks_ISO_T2_8,25,5,42,127,933178600
85,9,9,Ticks_ISO_T2_8,26,5,42,127,933978416
85,9,9,Ticks_ISO_T2_8,27,1,48,24,933981080
85,9,9,Ticks_ISO_T2_8,28,1,48,19,934739136
85,9,9,Ticks_ISO_T2_8,29,5,42,127,934779184
85,9,9,Ticks_ISO_T2_8,30,1,48,22,935534304
85,9,9,Ticks_ISO_T2_8,31,5,42,127,935579092
85,9,9,Ticks_ISO_T2_8,32,1,48,23,936356056
85,9,9,Ticks_ISO_T2_8,33,5,42,127,936378676
85,9,9,Ticks_ISO_T2_8,34,1,48,19,937177284
85,9,9,Ticks_ISO_T2_8,35,5,42,127,937178780
85,9,9,Ticks_ISO_T2_8,36,5,42,127,937979344
85,9,9,Ticks_ISO_T2_8,37,1,48,24,937993084
85,9,9,Ticks_ISO_T2_8,38,5,42,127,938779080
85,9,9,Ticks_ISO_T2_8,39,1,48,21,938818248
85,9,9,Ticks_ISO_T2_8,40,5,42,127,939578812
85,9,9,Ticks_ISO_T2_8,41,1,48,21,939622472
85,9,9,Ticks_ISO_T2_8,42,1,48,27,940339536
85,9,9,Ticks_ISO_T2_8,43,5,42,127,940378612
85,9,9,Ticks_ISO_T2_8,44,1,48,25,941167020
85,9,9,Ticks_ISO_T2_8,45,5,42,127,941179244
85,9,9,Ticks_ISO_T2_8,46,5,42,127,941978936
85,9,9,Ticks_ISO_T2_8,47,1,48,23,941990876
85,9,9,Ticks_ISO_T2_8,48,1,48,23,942745792
85,9,9,Ticks_ISO_T2_8,49,5,42,127,942778812
85,9,9,Ticks_ISO_T2_8,50,1,48,24,943515604
85,9,9,Ticks_ISO_T2_8,51,5,42,127,943578692
85,9,9,Ticks_ISO_T2_8,52,1,48,19,944349228
85,9,9,Ticks_ISO_T2_8,53,5,42,127,944379176
85,9,9,Ticks_ISO_T2_8,54,1,48,26,945147608
85,9,9,Ticks_ISO_T2_8,55,5,42,127,945179208
85,9,9,Ticks_ISO_T2_8,56,1,48,21,945959832
85,9,9,Ticks_ISO_T2_8,57,5,42,127,945978716
85,9,9,Ticks_ISO_T2_8,58,1,48,24,946770856
85,9,9,Ticks_ISO_T2_8,59,5,42,127,946778448
85,9,9,Ticks_ISO_T2_8,60,5,42,127,947579236
85,9,9,Ticks_ISO_T2_8,61,1,48,20,947597764
85,9,9,Ticks_ISO_T2_8,62,1,48,24,948334568
85,9,9,Ticks_ISO_T2_8,63,5,42,127,948379064
85,9,9,Ticks_ISO_T2_8,64,1,48,20,949147420
85,9,9,Ticks_ISO_T2_8,65,5,42,127,949178720
85,9,9,Ticks_ISO_T2_8,66,1,48,18,949950748
85,9,9,Ticks_ISO_T2_8,67,5,42,127,949978604
85,9,9,Ticks_ISO_T2_8,68,1,48,26,950740680
85,9,9,Ticks_ISO_T2_8,69,5,42,127,950779160
85,9,9,Ticks_ISO_T2_8,70,1,48,24,951515208
85,9,9,Ticks_ISO_T2_8,71,5,42,127,951578968
85,9,9,Ticks_ISO_T2_8,72,1,48,29,952352864
85,9,9,Ticks_ISO_T2_8,73,5,42,127,952378848
85,9,9,Ticks_ISO_T2_8,74,1,48,31,953125516
85,9,9,Ticks_ISO_T2_8,75,5,42,127,953178584
85,9,9,Ticks_ISO_T2_8,76,1,48,25,953892860
85,9,9,Ticks_ISO_T2_8,77,5,42,127,953979216
85,9,9,Ticks_ISO_T2_8,78,1,48,24,954720944
85,9,9,Ticks_ISO_T2_8,79,5,42,127,954778972
85,9,9,Ticks_ISO_T2_8,80,1,48,26,955554436
85,9,9,Ticks_ISO_T2_8,81,5,42,127,955578928
85,9,9,Ticks_ISO_T2_8,82,1,48,23,956327616
85,9,9,Ticks_ISO_T2_8,83,5,42,127,956378516
85,9,9,Ticks_ISO_T2_8,84,1,48,22,957173052
85,9,9,Ticks_ISO_T2_8,85,5,42,127,957179368
85,9,9,Ticks_ISO_T2_8,86,1,48,24,957940472
85,9,9,Ticks_ISO_T2_8,87,5,42,127,957978880
85,9,9,Ticks_ISO_T2_8,88,1,48,17,958745816
85,9,9,Ticks_ISO_T2_8,89,5,42,127,958778688
85,9,9,Ticks_ISO_T2_8,90,1,48,19,959552132
85,9,9,Ticks_ISO_T2_8,91,5,42,127,959578720
85,9,9,Ticks_ISO_T2_8,92,5,42,127,960379132
85,9,9,Ticks_ISO_T2_8,93,1,48,19,960399680
85,9,9,Ticks_ISO_T2_8,94,1,48,20,961116220
85,9,9,Ticks_ISO_T2_8,95,5,42,127,961178884
85,9,9,Ticks_ISO_T2_8,96,5,42,127,961978624
85,9,9,Ticks_ISO_T2_8,97,1,48,18,962000884
85,9,9,Ticks_ISO_T2_8,98,5,42,127,962778652
85,9,9,Ticks_ISO_T2_8,99,1,48,25,962801968
85,9,9,Ticks_ISO_T2_8,100,5,42,127,963579212
85,9,9,Ticks_ISO_T2_8,101,1,48,18,963617556
85,9,9,Ticks_ISO_T2_8,102,1,48,18,964329908
85,9,9,Ticks_ISO_T2_8,103,5,42,127,964378936
85,9,9,Ticks_ISO_T2_8,104,1,48,18,965118720
85,9,9,Ticks_ISO_T2_8,105,5,42,127,965178672
85,9,9,Ticks_ISO_T2_8,106,5,42,127,965978560
85,9,9,Ticks_ISO_T2_8,107,1,48,19,966012420
85,9,9,Ticks_ISO_T2_8,108,1,48,20,966741600
85,9,9,Ticks_ISO_T2_8,109,5,42,127,966779332
85,9,9,Ticks_ISO_T2_8,110,1,48,20,967483064
85,9,9,Ticks_ISO_T2_8,111,5,42,127,967579676
85,9,9,Ticks_ISO_T2_8,112,1,48,23,968321916
85,9,9,Ticks_ISO_T2_8,113,5,42,127,968378748
85,9,9,Ticks_ISO_T2_8,114,5,42,127,969178340
85,9,9,Ticks_ISO_T2_8,115,1,48,22,969217512
85,9,9,Ticks_ISO_T2_8,116,5,42,127,969979344
85,9,9,Ticks_ISO_T2_8,117,1,48,21,969998396
85,9,9,Ticks_ISO_T2_8,118,5,42,127,970778852
85,9,9,Ticks_ISO_T2_8,119,1,48,24,970845996
85,9,9,Ticks_ISO_T2_8,120,1,48,23,971469564
85,9,9,Ticks_ISO_T2_8,121,5,42,127,971578712
85,9,9,Ticks_ISO_T2_8,122,5,42,127,972378544
85,9,9,Ticks_ISO_T2_8,123,1,48,19,972452072
85,9,9,Ticks_ISO_T2_8,124,5,42,127,973179248
85,9,9,Ticks_ISO_T2_8,125,1,48,21,973236920
85,9,9,Ticks_ISO_T2_8,126,5,42,127,973979008
85,9,9,Ticks_ISO_T2_8,127,1,48,21,974068820
85,9,9,Ticks_ISO_T2_8,128,1,48,29,974756412
85,9,9,Ticks_ISO_T2_8,129,5,42,127,974778736
85,9,9,Ticks_ISO_T2_8,130,5,42,127,975578404
85,9,9,Ticks_ISO_T2_8,131,1,48,23,975579368
85,9,9,Ticks_ISO_T2_8,132,5,42,127,976379404
85,9,9,Ticks_ISO_T2_8,133,1,48,21,976416256
85,9,9,Ticks_ISO_T2_8,134,5,42,127,977179064
85,9,9,Ticks_ISO_T2_8,135,1,48,22,977222724
85,9,9,Ticks_ISO_T2_8,136,1,48,27,977960804
85,9,9,Ticks_ISO_T2_8,137,5,42,127,977978716
85,9,9,Ticks_ISO_T2_8,138,1,48,27,978750816
85,9,9,Ticks_ISO_T2_8,139,5,42,127,978778596
85,9,9,Ticks_ISO_T2_8,140,5,42,127,979579384
85,9,9,Ticks_ISO_T2_8,141,1,48,24,979627408
85,9,9,Ticks_ISO_T2_8,142,1,48,24,980310784
85,9,9,Ticks_ISO_T2_8,143,5,42,127,980378912
85,9,9,Ticks_ISO_T2_8,144,5,42,127,981178728
85,9,9,Ticks_ISO_T2_8,145,1,48,24,981236668
85,9,9,Ticks_ISO_T2_8,146,1,48,25,981931596
85,9,9,Ticks_ISO_T2_8,147,5,42,127,981978380
85,9,9,Ticks_ISO_T2_8,148,1,48,20,982726316
85,9,9,Ticks_ISO_T2_8,149,5,42,127,982779308
85,9,9,Ticks_ISO_T2_8,150,5,42,127,983579196
85,9,9,Ticks_ISO_T2_8,151,1,48,19,983600196
85,9,9,Ticks_ISO_T2_8,152,5,42,127,984378704
85,9,9,Ticks_ISO_T2_8,153,1,48,19,984413612
85,9,9,Ticks_ISO_T2_8,154,5,42,127,985178512
85,9,9,Ticks_ISO_T2_8,155,1,48,19,985209828
85,9,9,Ticks_ISO_T2_8,156,5,42,127,985979368
85,9,9,Ticks_ISO_T2_8,157,1,48,18,985995800
85,9,9,Ticks_ISO_T2_8,158,5,42,127,986779200
85,9,9,Ticks_ISO_T2_8,159,1,48,13,986833256
85,9,9,Ticks_ISO_T2_8,160,1,48,21,987570668
85,9,9,Ticks_ISO_T2_8,161,5,42,127,987578628
85,9,9,Ticks_ISO_T2_8,162,1,48,23,988375188
85,9,9,Ticks_ISO_T2_8,163,5,42,127,988378364
85,9,9,Ticks_ISO_T2_8,164,5,42,127,989179224
85,9,9,Ticks_ISO_T2_8,165,1,48,24,989182268
85,9,9,Ticks_ISO_T2_8,166,5,42,127,989979180
85,9,9,Ticks_ISO_T2_8,167,1,48,21,989996364
85,9,9,Ticks_ISO_T2_8,168,5,42,127,990778616
85,9,9,Ticks_ISO_T2_8,169,1,48,27,990837532
85,9,9,Ticks_ISO_T2_8,170,5,42,127,991578424
85,9,9,Ticks_ISO_T2_8,171,1,48,21,991589020
85,9,9,Ticks_ISO_T2_8,172,1,48,20,992330844
85,9,9,Ticks_ISO_T2_8,173,5,42,127,992379272
85,9,9,Ticks_ISO_T2_8,174,5,42,127,993179036
85,9,9,Ticks_ISO_T2_8,175,1,48,21,993181480
85,9,9,Ticks_ISO_T2_8,176,5,42,127,993978696
85,9,9,Ticks_ISO_T2_8,177,1,48,23,993980404
85,9,9,Ticks_ISO_T2_8,178,1,48,16,994767616
85,9,9,Ticks_ISO_T2_8,179,5,42,127,994778348
85,9,9,Ticks_ISO_T2_8,180,1,48,26,995545656
85,9,9,Ticks_ISO_T2_8,181,5,42,127,995579276
85,9,9,Ticks_ISO_T2_8,182,5,42,127,996379016
85,9,9,Ticks_ISO_T2_8,183,1,48,25,996413552
85,9,9,Ticks_ISO_T2_8,184,1,48,14,997139816
85,9,9,Ticks_ISO_T2_8,185,5,42,127,997178816
85,9,9,Ticks_ISO_T2_8,186,1,48,20,997948748
85,9,9,Ticks_ISO_T2_8,187,5,42,127,997978328
85,9,9,Ticks_ISO_T2_8,188,1,48,20,998733668
85,9,9,Ticks_ISO_T2_8,189,5,42,127,998779180
85,9,9,Ticks_ISO_T2_8,190,1,48,19,999549636
85,9,9,Ticks_ISO_T2_8,191,5,42,127,999578940
85,9,9,Ticks_ISO_T2_8,192,1,48,18,1000319152
85,9,9,Ticks_ISO_T2_8,193,5,42,127,1000378824
85,9,9,Ticks_ISO_T2_8,194,1,48,16,1001140072
85,9,9,Ticks_ISO_T2_8,195,5,42,127,1001178408
85,9,9,Ticks_ISO_T2_8,196,1,48,17,1001902036
85,9,9,Ticks_ISO_T2_8,197,5,42,127,1001979188
85,9,9,Ticks_ISO_T2_8,198,1,48,21,1002714784
85,9,9,Ticks_ISO_T2_8,199,5,42,127,1002778848
85,9,9,Ticks_ISO_T2_8,200,1,48,18,1003565384
85,9,9,Ticks_ISO_T2_8,201,5,42,127,1003578804
85,9,9,Ticks_ISO_T2_8,202,1,48,17,1004369676
85,9,9,Ticks_ISO_T2_8,203,5,42,127,1004378612
85,9,9,Ticks_ISO_T2_8,204,1,48,16,1005175844
85,9,9,Ticks_ISO_T2_8,205,5,42,127,1005179096
85,9,9,Ticks_ISO_T2_8,206,1,48,15,1005948648
85,9,9,Ticks_ISO_T2_8,207,5,42,127,1005978928
85,9,9,Ticks_ISO_T2_8,208,5,42,127,1006778740
85,9,9,Ticks_ISO_T2_8,209,1,48,16,1006782832
85,9,9,Ticks_ISO_T2_8,210,1,48,19,1007552104
85,9,9,Ticks_ISO_T2_8,211,5,42,127,1007578544
85,9,9,Ticks_ISO_T2_8,212,1,48,16,1008369868
85,9,9,Ticks_ISO_T2_8,213,5,42,127,1008379324
85,9,9,Ticks_ISO_T2_8,214,5,42,127,1009178988
85,9,9,Ticks_ISO_T2_8,215,1,48,26,1009947140
85,9,9,Ticks_ISO_T2_8,216,5,42,127,1009978736
85,9,9,Ticks_ISO_T2_8,217,1,48,19,1010761832
85,9,9,Ticks_ISO_T2_8,218,5,42,127,1010778620
85,9,9,Ticks_ISO_T2_8,219,5,42,127,1011579408
85,9,9,Ticks_ISO_T2_8,220,1,48,26,1011580744
85,9,9,Ticks_ISO_T2_8,221,5,42,127,1012378944
85,9,9,Ticks_ISO_T2_8,222,1,48,26,1012381536
85,9,9,Ticks_ISO_T2_8,223,5,42,127,1013178828
85,9,9,Ticks_ISO_T2_8,224,1,48,26,1013190848
85,9,9,Ticks_ISO_T2_8,225,1,48,25,1013977884
85,9,9,Ticks_ISO_T2_8,226,5,42,127,1013979452
85,9,9,Ticks_ISO_T2_8,227,5,42,127,1014779116
85,9,9,Ticks_ISO_T2_8,228,1,48,26,1014834372
85,9,9,Ticks_ISO_T2_8,229,1,48,21,1015560784
85,9,9,Ticks_ISO_T2_8,230,5,42,127,1015578992
85,9,9,Ticks_ISO_T2_8,231,1,48,24,1016337252
85,9,9,Ticks_ISO_T2_8,232,5,42,127,1016378800
85,9,9,Ticks_ISO_T2_8,233,1,48,18,1017173340
85,9,9,Ticks_ISO_T2_8,234,5,42,127,1017178684
85,9,9,Ticks_ISO_T2_8,235,1,48,21,1017970904
85,9,9,Ticks_ISO_T2_8,236,5,42,127,1017979316
85,9,9,Ticks_ISO_T2_8,237,1,48,20,1018769764
85,9,9,Ticks_ISO_T2_8,0,9999,9999,9999,922776648
85,9,9,Ticks_ISO_T2_8,1,9999,9999,9999,923576404
85,9,9,Ticks_ISO_T2_8,2,9999,9999,9999,924376152
85,9,9,Ticks_ISO_T2_8,3,9999,9999,9999,925176932
85,9,9,Ticks_ISO_T2_8,4,9999,9999,9999,925976668
85,9,9,Ticks_ISO_T2_8,5,9999,9999,9999,926776400
85,9,9,Ticks_ISO_T2_8,6,9999,9999,9999,927576132
85,9,9,Ticks_ISO_T2_8,7,9999,9999,9999,928376916
85,9,9,Ticks_ISO_T2_8,8,9999,9999,9999,929176672
85,9,9,Ticks_ISO_T2_8,9,9999,9999,9999,929976408
85,9,9,Ticks_ISO_T2_8,10,9999,9999,9999,930776140
85,9,9,Ticks_ISO_T2_8,11,9999,9999,9999,931576920
85,9,9,Ticks_ISO_T2_8,12,9999,9999,9999,932376652
85,9,9,Ticks_ISO_T2_8,13,9999,9999,9999,933176384
85,9,9,Ticks_ISO_T2_8,14,9999,9999,9999,933976128
85,9,9,Ticks_ISO_T2_8,15,9999,9999,9999,934776900
85,9,9,Ticks_ISO_T2_8,16,9999,9999,9999,935576656
85,9,9,Ticks_ISO_T2_8,17,9999,9999,9999,936376388
85,9,9,Ticks_ISO_T2_8,18,9999,9999,9999,937176128
85,9,9,Ticks_ISO_T2_8,19,9999,9999,9999,937976908
85,9,9,Ticks_ISO_T2_8,20,9999,9999,9999,938776640
85,9,9,Ticks_ISO_T2_8,21,9999,9999,9999,939576376
85,9,9,Ticks_ISO_T2_8,22,9999,9999,9999,940376176
85,9,9,Ticks_ISO_T2_8,23,9999,9999,9999,941176884
85,9,9,Ticks_ISO_T2_8,24,9999,9999,9999,941976648
85,9,9,Ticks_ISO_T2_8,25,9999,9999,9999,942776376
85,9,9,Ticks_ISO_T2_8,26,9999,9999,9999,943576184
85,9,9,Ticks_ISO_T2_8,27,9999,9999,9999,944376888
85,9,9,Ticks_ISO_T2_8,28,9999,9999,9999,945176696
85,9,9,Ticks_ISO_T2_8,29,9999,9999,9999,945976428
85,9,9,Ticks_ISO_T2_8,30,9999,9999,9999,946776160
85,9,9,Ticks_ISO_T2_8,31,9999,9999,9999,947576948
85,9,9,Ticks_ISO_T2_8,32,9999,9999,9999,948376624
85,9,9,Ticks_ISO_T2_8,33,9999,9999,9999,949176432
85,9,9,Ticks_ISO_T2_8,34,9999,9999,9999,949976168
85,9,9,Ticks_ISO_T2_8,35,9999,9999,9999,950776948
85,9,9,Ticks_ISO_T2_8,36,9999,9999,9999,951576680
85,9,9,Ticks_ISO_T2_8,37,9999,9999,9999,952376412
85,9,9,Ticks_ISO_T2_8,38,9999,9999,9999,953176144
85,9,9,Ticks_ISO_T2_8,39,9999,9999,9999,953976928
85,9,9,Ticks_ISO_T2_8,40,9999,9999,9999,954776684
85,9,9,Ticks_ISO_T2_8,41,9999,9999,9999,955576416
85,9,9,Ticks_ISO_T2_8,42,9999,9999,9999,956376152
85,9,9,Ticks_ISO_T2_8,43,9999,9999,9999,957176932
85,9,9,Ticks_ISO_T2_8,44,9999,9999,9999,957976664
85,9,9,Ticks_ISO_T2_8,45,9999,9999,9999,958776400
85,9,9,Ticks_ISO_T2_8,46,9999,9999,9999,959576132
85,9,9,Ticks_ISO_T2_8,47,9999,9999,9999,960376920
85,9,9,Ticks_ISO_T2_8,48,9999,9999,9999,961176668
85,9,9,Ticks_ISO_T2_8,49,9999,9999,9999,961976408
85,9,9,Ticks_ISO_T2_8,50,9999,9999,9999,962776140
85,9,9,Ticks_ISO_T2_8,51,9999,9999,9999,963576920
85,9,9,Ticks_ISO_T2_8,52,9999,9999,9999,964376648
85,9,9,Ticks_ISO_T2_8,53,9999,9999,9999,965176384
85,9,9,Ticks_ISO_T2_8,54,9999,9999,9999,965976124
85,9,9,Ticks_ISO_T2_8,55,9999,9999,9999,966776896
85,9,9,Ticks_ISO_T2_8,56,9999,9999,9999,967576652
85,9,9,Ticks_ISO_T2_8,57,9999,9999,9999,968376388
85,9,9,Ticks_ISO_T2_8,58,9999,9999,9999,969176124
85,9,9,Ticks_ISO_T2_8,59,9999,9999,9999,969976904
85,9,9,Ticks_ISO_T2_8,60,9999,9999,9999,970776640
85,9,9,Ticks_ISO_T2_8,61,9999,9999,9999,971576424
85,9,9,Ticks_ISO_T2_8,62,9999,9999,9999,972376180
85,9,9,Ticks_ISO_T2_8,63,9999,9999,9999,973176884
85,9,9,Ticks_ISO_T2_8,64,9999,9999,9999,973976648
85,9,9,Ticks_ISO_T2_8,65,9999,9999,9999,974776376
85,9,9,Ticks_ISO_T2_8,66,9999,9999,9999,975576116
85,9,9,Ticks_ISO_T2_8,67,9999,9999,9999,976376892
85,9,9,Ticks_ISO_T2_8,68,9999,9999,9999,977176628
85,9,9,Ticks_ISO_T2_8,69,9999,9999,9999,977976428
85,9,9,Ticks_ISO_T2_8,70,9999,9999,9999,978776160
85,9,9,Ticks_ISO_T2_8,71,9999,9999,9999,979576948
85,9,9,Ticks_ISO_T2_8,72,9999,9999,9999,980376624
85,9,9,Ticks_ISO_T2_8,73,9999,9999,9999,981176440
85,9,9,Ticks_ISO_T2_8,74,9999,9999,9999,981976164
85,9,9,Ticks_ISO_T2_8,75,9999,9999,9999,982776944
85,9,9,Ticks_ISO_T2_8,76,9999,9999,9999,983576684
85,9,9,Ticks_ISO_T2_8,77,9999,9999,9999,984376416
85,9,9,Ticks_ISO_T2_8,78,9999,9999,9999,985176152
85,9,9,Ticks_ISO_T2_8,79,9999,9999,9999,985976932
85,9,9,Ticks_ISO_T2_8,80,9999,9999,9999,986776688
85,9,9,Ticks_ISO_T2_8,81,9999,9999,9999,987576416
85,9,9,Ticks_ISO_T2_8,82,9999,9999,9999,988376152
85,9,9,Ticks_ISO_T2_8,83,9999,9999,9999,989176936
85,9,9,Ticks_ISO_T2_8,84,9999,9999,9999,989976668
85,9,9,Ticks_ISO_T2_8,85,9999,9999,9999,990776400
85,9,9,Ticks_ISO_T2_8,86,9999,9999,9999,991576136
85,9,9,Ticks_ISO_T2_8,87,9999,9999,9999,992376908
85,9,9,Ticks_ISO_T2_8,88,9999,9999,9999,993176672
85,9,9,Ticks_ISO_T2_8,89,9999,9999,9999,993976408
85,9,9,Ticks_ISO_T2_8,90,9999,9999,9999,994776132
85,9,9,Ticks_ISO_T2_8,91,9999,9999,9999,995576912
85,9,9,Ticks_ISO_T2_8,92,9999,9999,9999,996376656
85,9,9,Ticks_ISO_T2_8,93,9999,9999,9999,997176380
85,9,9,Ticks_ISO_T2_8,94,9999,9999,9999,997976116
85,9,9,Ticks_ISO_T2_8,95,9999,9999,9999,998776892
85,9,9,Ticks_ISO_T2_8,96,9999,9999,9999,999576652
85,9,9,Ticks_ISO_T2_8,97,9999,9999,9999,1000376388
85,9,9,Ticks_ISO_T2_8,98,9999,9999,9999,1001176120
85,9,9,Ticks_ISO_T2_8,99,9999,9999,9999,1001976900
85,9,9,Ticks_ISO_T2_8,100,9999,9999,9999,1002776632
85,9,9,Ticks_ISO_T2_8,101,9999,9999,9999,1003576368
85,9,9,Ticks_ISO_T2_8,102,9999,9999,9999,1004376176
85,9,9,Ticks_ISO_T2_8,103,9999,9999,9999,1005176880
85,9,9,Ticks_ISO_T2_8,104,9999,9999,9999,1005976640
85,9,9,Ticks_ISO_T2_8,105,9999,9999,9999,1006776380
85,9,9,Ticks_ISO_T2_8,106,9999,9999,9999,1007576180
85,9,9,Ticks_ISO_T2_8,107,9999,9999,9999,1008376888
85,9,9,Ticks_ISO_T2_8,108,9999,9999,9999,1009176628
85,9,9,Ticks_ISO_T2_8,109,9999,9999,9999,1009976376
85,9,9,Ticks_ISO_T2_8,110,9999,9999,9999,1010776184
85,9,9,Ticks_ISO_T2_8,111,9999,9999,9999,1011576896
85,9,9,Ticks_ISO_T2_8,112,9999,9999,9999,1012376656
85,9,9,Ticks_ISO_T2_8,113,9999,9999,9999,1013176388
85,9,9,Ticks_ISO_T2_8,114,9999,9999,9999,1013976124
85,9,9,Ticks_ISO_T2_8,115,9999,9999,9999,1014776904
85,9,9,Ticks_ISO_T2_8,116,9999,9999,9999,1015576632
85,9,9,Ticks_ISO_T2_8,117,9999,9999,9999,1016376440
85,9,9,Ticks_ISO_T2_8,118,9999,9999,9999,1017176172
85,9,9,Ticks_ISO_T2_8,119,9999,9999,9999,1017976952
85,10,23,Ticks_Phase_5,0,5,42,127,1029906780
85,10,23,Ticks_Phase_5,1,5,42,127,1030406564
85,10,23,Ticks_Phase_5,2,1,48,18,1030852764
85,10,23,Ticks_Phase_5,3,5,42,127,1030907388
85,10,23,Ticks_Phase_5,4,1,48,16,1031336652
85,10,23,Ticks_Phase_5,5,5,42,127,1031406928
85,10,23,Ticks_Phase_5,6,1,48,19,1031854916
85,10,23,Ticks_Phase_5,7,5,42,127,1031906616
85,10,23,Ticks_Phase_5,8,1,48,18,1032354368
85,10,23,Ticks_Phase_5,9,5,42,127,1032407500
85,10,23,Ticks_Phase_5,10,1,48,21,1032853608
85,10,23,Ticks_Phase_5,11,5,42,127,1032907188
85,10,23,Ticks_Phase_5,12,1,48,19,1033369852
85,10,23,Ticks_Phase_5,13,5,42,127,1033406728
85,10,23,Ticks_Phase_5,14,1,48,23,1033877856
85,10,23,Ticks_Phase_5,15,5,42,127,1033906492
85,10,23,Ticks_Phase_5,16,1,48,21,1034360364
85,10,23,Ticks_Phase_5,17,5,42,127,1034407376
85,10,23,Ticks_Phase_5,18,1,48,20,1034892248
85,10,23,Ticks_Phase_5,19,5,42,127,1034907140
85,10,23,Ticks_Phase_5,20,1,48,19,1035389768
85,10,23,Ticks_Phase_5,21,5,42,127,1035406824
85,10,23,Ticks_Phase_5,22,1,48,21,1035865048
85,10,23,Ticks_Phase_5,23,5,42,127,1035906416
85,10,23,Ticks_Phase_5,24,1,48,19,1036380080
85,10,23,Ticks_Phase_5,25,5,42,127,1036407372
85,10,23,Ticks_Phase_5,26,1,48,25,1036882316
85,10,23,Ticks_Phase_5,27,5,42,127,1036906836
85,10,23,Ticks_Phase_5,28,1,48,23,1037372192
85,10,23,Ticks_Phase_5,29,5,42,127,1037406528
85,10,23,Ticks_Phase_5,30,1,48,23,1037867244
85,10,23,Ticks_Phase_5,31,5,42,127,1037907260
85,10,23,Ticks_Phase_5,32,1,48,20,1038371120
85,10,23,Ticks_Phase_5,33,5,42,127,1038407024
85,10,23,Ticks_Phase_5,34,1,48,29,1038897696
85,10,23,Ticks_Phase_5,35,5,42,127,1038906712
85,10,23,Ticks_Phase_5,36,5,42,127,1039406408
85,10,23,Ticks_Phase_5,37,1,48,21,1039407820
85,10,23,Ticks_Phase_5,38,1,48,22,1039897296
85,10,23,Ticks_Phase_5,39,5,42,127,1039907284
85,10,23,Ticks_Phase_5,40,1,48,19,1040388896
85,10,23,Ticks_Phase_5,41,5,42,127,1040406824
85,10,23,Ticks_Phase_5,42,1,48,19,1040862740
85,10,23,Ticks_Phase_5,43,5,42,127,1040906588
85,10,23,Ticks_Phase_5,44,5,42,127,1041407328
85,10,23,Ticks_Phase_5,45,1,48,20,1041410520
85,10,23,Ticks_Phase_5,46,1,48,23,1041893192
85,10,23,Ticks_Phase_5,47,5,42,127,1041907380
85,10,23,Ticks_Phase_5,48,1,48,22,1042401348
85,10,23,Ticks_Phase_5,49,5,42,127,1042406696
85,10,23,Ticks_Phase_5,50,1,48,24,1042869208
85,10,23,Ticks_Phase_5,51,5,42,127,1042906612
85,10,23,Ticks_Phase_5,52,1,48,24,1043394052
85,10,23,Ticks_Phase_5,53,5,42,127,1043407344
85,10,23,Ticks_Phase_5,54,1,48,27,1043892620
85,10,23,Ticks_Phase_5,55,5,42,127,1043906884
85,10,23,Ticks_Phase_5,56,1,48,25,1044392160
85,10,23,Ticks_Phase_5,57,5,42,127,1044406648
85,10,23,Ticks_Phase_5,58,1,48,22,1044872052
85,10,23,Ticks_Phase_5,59,5,42,127,1044897348
85,10,23,Ticks_Phase_5,60,1,48,22,1045379460
85,10,23,Ticks_Phase_5,61,5,42,127,1045396740
85,10,23,Ticks_Phase_5,62,1,48,21,1045874120
85,10,23,Ticks_Phase_5,63,5,42,127,1045896624
85,10,23,Ticks_Phase_5,64,1,48,22,1046366028
85,10,23,Ticks_Phase_5,65,5,42,127,1046397284
85,10,23,Ticks_Phase_5,66,1,48,26,1046888856
85,10,23,Ticks_Phase_5,67,5,42,127,1046897196
85,10,23,Ticks_Phase_5,68,1,48,23,1047395460
85,10,23,Ticks_Phase_5,69,5,42,127,1047397108
85,10,23,Ticks_Phase_5,70,1,48,21,1047895220
85,10,23,Ticks_Phase_5,71,5,42,127,1047896648
85,10,23,Ticks_Phase_5,72,1,48,23,1048340736
85,10,23,Ticks_Phase_5,73,5,42,127,1048397380
85,10,23,Ticks_Phase_5,74,5,42,127,1048897076
85,10,23,Ticks_Phase_5,75,1,48,22,1048901840
85,10,23,Ticks_Phase_5,76,5,42,127,1049396540
85,10,23,Ticks_Phase_5,77,1,48,25,1049409768
85,10,23,Ticks_Phase_5,78,1,48,20,1049886528
85,10,23,Ticks_Phase_5,79,5,42,127,1049897416
85,10,23,Ticks_Phase_5,80,1,48,26,1050365104
85,10,23,Ticks_Phase_5,81,5,42,127,1050397104
85,10,23,Ticks_Phase_5,82,1,48,18,1050872568
85,10,23,Ticks_Phase_5,83,5,42,127,1050896868
85,10,23,Ticks_Phase_5,84,1,48,24,1051374424
85,10,23,Ticks_Phase_5,85,5,42,127,1051396408
85,10,23,Ticks_Phase_5,86,1,48,20,1051878092
85,10,23,Ticks_Phase_5,87,5,42,127,1051897144
85,10,23,Ticks_Phase_5,88,1,48,21,1052387288
85,10,23,Ticks_Phase_5,89,5,42,127,1052396904
85,10,23,Ticks_Phase_5,90,1,48,20,1052869828
85,10,23,Ticks_Phase_5,91,5,42,127,1052896520
85,10,23,Ticks_Phase_5,92,5,42,127,1053397408
85,10,23,Ticks_Phase_5,93,1,48,27,1053412512
85,10,23,Ticks_Phase_5,94,1,48,19,1053875196
85,10,23,Ticks_Phase_5,95,5,42,127,1053907352
85,10,23,Ticks_Phase_5,96,1,48,25,1054394268
85,10,23,Ticks_Phase_5,97,5,42,127,1054407188
85,10,23,Ticks_Phase_5,98,1,48,21,1054906284
85,10,23,Ticks_Phase_5,99,5,42,127,1054907852
85,10,23,Ticks_Phase_5,100,1,48,26,1055395232
85,10,23,Ticks_Phase_5,101,5,42,127,1055406492
85,10,23,Ticks_Phase_5,102,1,48,16,1055877744
85,10,23,Ticks_Phase_5,103,5,42,127,1055907152
85,10,23,Ticks_Phase_5,104,1,48,21,1056336168
85,10,23,Ticks_Phase_5,105,5,42,127,1056407064
85,10,23,Ticks_Phase_5,106,5,42,127,1056906588
85,10,23,Ticks_Phase_5,107,1,48,23,1056909732
85,10,23,Ticks_Phase_5,108,5,42,127,1057407324
85,10,23,Ticks_Phase_5,109,1,48,23,1057417708
85,10,23,Ticks_Phase_5,110,1,48,21,1057881360
85,10,23,Ticks_Phase_5,111,5,42,127,1057907080
85,10,23,Ticks_Phase_5,112,5,42,127,1058406924
85,10,23,Ticks_Phase_5,113,1,48,24,1058409892
85,10,23,Ticks_Phase_5,114,1,48,26,1058837684
85,10,23,Ticks_Phase_5,115,5,42,127,1058906384
85,10,23,Ticks_Phase_5,116,1,48,24,1059369864
85,10,23,Ticks_Phase_5,117,5,42,127,1059407340
85,10,23,Ticks_Phase_5,118,1,48,22,1059883924
85,10,23,Ticks_Phase_5,119,5,42,127,1059906880
85,10,23,Ticks_Phase_5,120,1,48,23,1060388044
85,10,23,Ticks_Phase_5,121,5,42,127,1060406716
85,10,23,Ticks_Phase_5,122,1,48,20,1060905416
85,10,23,Ticks_Phase_5,123,5,42,127,1060907304
85,10,23,Ticks_Phase_5,124,1,48,24,1061370192
85,10,23,Ticks_Phase_5,125,5,42,127,1061406992
85,10,23,Ticks_Phase_5,126,1,48,21,1061887924
85,10,23,Ticks_Phase_5,127,5,42,127,1061927272
85,10,23,Ticks_Phase_5,128,1,48,20,1062401244
85,10,23,Ticks_Phase_5,129,5,42,127,1062426964
85,10,23,Ticks_Phase_5,130,1,48,21,1062892164
85,10,23,Ticks_Phase_5,131,5,42,127,1062926872
85,10,23,Ticks_Phase_5,132,1,48,21,1063373056
85,10,23,Ticks_Phase_5,133,5,42,127,1063426560
85,10,23,Ticks_Phase_5,134,1,48,21,1063889896
85,10,23,Ticks_Phase_5,135,5,42,127,1063927296
85,10,23,Ticks_Phase_5,136,1,48,18,1064404928
85,10,23,Ticks_Phase_5,137,5,42,127,1064426984
85,10,23,Ticks_Phase_5,138,1,48,23,1064855352
85,10,23,Ticks_Phase_5,139,5,42,127,1064926820
85,10,23,Ticks_Phase_5,140,1,48,23,1065373752
85,10,23,Ticks_Phase_5,141,5,42,127,1065427408
85,10,23,Ticks_Phase_5,142,1,48,21,1065905576
85,10,23,Ticks_Phase_5,143,5,42,127,1065927168
85,10,23,Ticks_Phase_5,144,1,48,21,1066419492
85,10,23,Ticks_Phase_5,145,5,42,127,1066427156
85,10,23,Ticks_Phase_5,146,1,48,20,1066905628
85,10,23,Ticks_Phase_5,147,5,42,127,1066926548
85,10,23,Ticks_Phase_5,148,1,48,24,1067370760
85,10,23,Ticks_Phase_5,149,5,42,127,1067427208
85,10,23,Ticks_Phase_5,150,1,48,17,1067898308
85,10,23,Ticks_Phase_5,151,5,42,127,1067926896
85,10,23,Ticks_Phase_5,152,1,48,19,1068411696
85,10,23,Ticks_Phase_5,153,5,42,127,1068426856
85,10,23,Ticks_Phase_5,154,5,42,127,1068927204
85,10,23,Ticks_Phase_5,155,1,48,17,1068939312
85,10,23,Ticks_Phase_5,156,1,48,21,1069398324
85,10,23,Ticks_Phase_5,157,5,42,127,1069427180
85,10,23,Ticks_Phase_5,158,1,48,19,1069907964
85,10,23,Ticks_Phase_5,159,5,42,127,1069926796
85,10,23,Ticks_Phase_5,160,1,48,23,1070381220
85,10,23,Ticks_Phase_5,161,5,42,127,1070407088
85,10,23,Ticks_Phase_5,162,1,48,20,1070864864
85,10,23,Ticks_Phase_5,163,5,42,127,1070906676
85,10,23,Ticks_Phase_5,164,5,42,127,1071406448
85,10,23,Ticks_Phase_5,165,1,48,21,1071411436
85,10,23,Ticks_Phase_5,166,1,48,24,1071893132
85,10,23,Ticks_Phase_5,167,5,42,127,1071907176
85,10,23,Ticks_Phase_5,168,1,48,27,1072377032
85,10,23,Ticks_Phase_5,169,5,42,127,1072406936
85,10,23,Ticks_Phase_5,170,1,48,27,1072846164
85,10,23,Ticks_Phase_5,171,5,42,127,1072906700
85,10,23,Ticks_Phase_5,172,5,42,127,1073407292
85,10,23,Ticks_Phase_5,173,1,48,24,1073419996
85,10,23,Ticks_Phase_5,174,5,42,127,1073907056
85,10,23,Ticks_Phase_5,175,1,48,24,1073949264
85,10,23,Ticks_Phase_5,176,1,48,25,1074387316
85,10,23,Ticks_Phase_5,177,5,42,127,1074406736
85,10,23,Ticks_Phase_5,178,1,48,26,1074861008
85,10,23,Ticks_Phase_5,179,5,42,127,1074906428
85,10,23,Ticks_Phase_5,180,1,48,30,1075397172
85,10,23,Ticks_Phase_5,181,5,42,127,1075407160
85,10,23,Ticks_Phase_5,182,1,48,28,1075877992
85,10,23,Ticks_Phase_5,183,5,42,127,1075906848
85,10,23,Ticks_Phase_5,184,1,48,28,1076385092
85,10,23,Ticks_Phase_5,185,5,42,127,1076406612
85,10,23,Ticks_Phase_5,186,1,48,25,1076845212
85,10,23,Ticks_Phase_5,187,5,42,127,1076907644
85,10,23,Ticks_Phase_5,188,5,42,127,1077406968
85,10,23,Ticks_Phase_5,189,1,48,27,1077418624
85,10,23,Ticks_Phase_5,190,1,48,27,1077883668
85,10,23,Ticks_Phase_5,191,5,42,127,1077906724
85,10,23,Ticks_Phase_5,192,5,42,127,1078357640
85,10,23,Ticks_Phase_5,193,1,48,27,1078384344
85,10,23,Ticks_Phase_5,194,5,42,127,1078856960
85,10,23,Ticks_Phase_5,195,1,48,28,1078869884
85,10,23,Ticks_Phase_5,196,1,48,26,1079347400
85,10,23,Ticks_Phase_5,197,5,42,127,1079356788
85,10,23,Ticks_Phase_5,198,1,48,27,1079847684
85,10,23,Ticks_Phase_5,199,5,42,127,1079856624
85,10,23,Ticks_Phase_5,200,1,48,27,1080328276
85,10,23,Ticks_Phase_5,201,5,42,127,1080357208
85,10,23,Ticks_Phase_5,202,1,48,29,1080856904
85,10,23,Ticks_Phase_5,203,5,42,127,1080858392
85,10,23,Ticks_Phase_5,204,1,48,24,1081330564
85,10,23,Ticks_Phase_5,205,5,42,127,1081356660
85,10,23,Ticks_Phase_5,206,1,48,29,1081837748
85,10,23,Ticks_Phase_5,207,5,42,127,1081857544
85,10,23,Ticks_Phase_5,208,1,48,25,1082311368
85,10,23,Ticks_Phase_5,209,5,42,127,1082357084
85,10,23,Ticks_Phase_5,210,1,48,28,1082841760
85,10,23,Ticks_Phase_5,211,5,42,127,1082856772
85,10,23,Ticks_Phase_5,212,1,48,27,1083354572
85,10,23,Ticks_Phase_5,213,5,42,127,1083356460
85,10,23,Ticks_Phase_5,214,5,42,127,1083857204
85,10,23,Ticks_Phase_5,215,1,48,26,1083887508
85,10,23,Ticks_Phase_5,216,5,42,127,1084357040
85,10,23,Ticks_Phase_5,217,1,48,24,1084379856
85,10,23,Ticks_Phase_5,218,1,48,26,1084833920
85,10,23,Ticks_Phase_5,219,5,42,127,1084856648
85,10,23,Ticks_Phase_5,220,1,48,26,1085302652
85,10,23,Ticks_Phase_5,221,5,42,127,1085357608
85,10,23,Ticks_Phase_5,222,1,48,24,1085817928
85,10,23,Ticks_Phase_5,223,5,42,127,1085867556
85,10,23,Ticks_Phase_5,224,1,48,21,1086348192
85,10,23,Ticks_Phase_5,225,5,42,127,1086366948
85,10,23,Ticks_Phase_5,226,1,48,23,1086831828
85,10,23,Ticks_Phase_5,227,5,42,127,1086916960
85,10,23,Ticks_Phase_5,228,5,42,127,1087416580
85,10,23,Ticks_Phase_5,229,1,48,25,1087429208
85,10,23,Ticks_Phase_5,230,5,42,127,1087917612
85,10,23,Ticks_Phase_5,231,1,48,26,1087923276
85,10,23,Ticks_Phase_5,232,5,42,127,1088427636
85,10,23,Ticks_Phase_5,233,1,48,24,1088440940
85,10,23,Ticks_Phase_5,234,1,48,26,1088924976
85,10,23,Ticks_Phase_5,235,5,42,127,1088927020
85,10,23,Ticks_Phase_5,236,5,42,127,1089426716
85,10,23,Ticks_Phase_5,237,1,48,24,1089430732
85,10,23,Ticks_Phase_5,238,1,48,23,1089905300
85,10,23,Ticks_Phase_5,239,5,42,127,1089926448
85,10,23,Ticks_Phase_5,240,5,42,127,1090427412
85,10,23,Ticks_Phase_5,241,1,48,23,1090442956
85,10,23,Ticks_Phase_5,242,1,48,21,1090919348
85,10,23,Ticks_Phase_5,243,5,42,127,1090926944
85,10,23,Ticks_Phase_5,244,1,48,21,1091399720
85,10,23,Ticks_Phase_5,245,5,42,127,1091426636
85,10,23,Ticks_Phase_5,246,5,42,127,1091927600
85,10,23,Ticks_Phase_5,247,1,48,23,1091941652
85,10,23,Ticks_Phase_5,248,1,48,25,1092422680
85,10,23,Ticks_Phase_5,249,5,42,127,1092427204
85,10,23,Ticks_Phase_5,250,1,48,22,1092894500
85,10,23,Ticks_Phase_5,251,5,42,127,1092926820
85,10,23,Ticks_Phase_5,252,5,42,127,1093426664
85,10,23,Ticks_Phase_5,253,1,48,26,1093438696
85,10,23,Ticks_Phase_5,254,5,42,127,1093927472
85,10,23,Ticks_Phase_5,255,1,48,23,1093936812
85,10,23,Ticks_Phase_5,256,1,48,25,1094409600
85,10,23,Ticks_Phase_5,257,5,42,127,1094427080
85,10,23,Ticks_Phase_5,258,1,48,23,1094915056
85,10,23,Ticks_Phase_5,259,5,42,127,1094926844
85,10,23,Ticks_Phase_5,260,1,48,27,1095433980
85,10,23,Ticks_Phase_5,261,5,42,127,1095526732
85,10,23,Ticks_Phase_5,262,5,42,127,1096026500
85,10,23,Ticks_Phase_5,263,1,48,21,1096054248
85,10,23,Ticks_Phase_5,264,5,42,127,1096527160
85,10,23,Ticks_Phase_5,265,1,48,23,1096546008
85,10,23,Ticks_Phase_5,266,1,48,26,1097026240
85,10,23,Ticks_Phase_5,267,5,42,127,1097027664
85,10,23,Ticks_Phase_5,268,5,42,127,1097526612
85,10,23,Ticks_Phase_5,269,1,48,24,1097555344
85,10,23,Ticks_Phase_5,270,1,48,24,1098017052
85,10,23,Ticks_Phase_5,271,5,42,127,1098027264
85,10,23,Ticks_Phase_5,272,1,48,21,1098519204
85,10,23,Ticks_Phase_5,273,5,42,127,1098527176
85,10,23,Ticks_Phase_5,274,1,48,24,1099011924
85,10,23,Ticks_Phase_5,275,5,42,127,1099026936
85,10,23,Ticks_Phase_5,276,1,48,23,1099504884
85,10,23,Ticks_Phase_5,277,5,42,127,1099526404
85,10,23,Ticks_Phase_5,278,1,48,22,1100006740
85,10,23,Ticks_Phase_5,279,5,42,127,1100027284
85,10,23,Ticks_Phase_5,280,5,42,127,1100526832
85,10,23,Ticks_Phase_5,281,1,48,22,1100535196
85,10,23,Ticks_Phase_5,282,1,48,24,1101003632
85,10,23,Ticks_Phase_5,283,5,42,127,1101026812
85,10,23,Ticks_Phase_5,284,1,48,25,1101462060
85,10,23,Ticks_Phase_5,285,5,42,127,1101527324
85,10,23,Ticks_Phase_5,286,5,42,127,1102027168
85,10,23,Ticks_Phase_5,287,1,48,22,1102036656
85,10,23,Ticks_Phase_5,288,1,48,24,1102513104
85,10,23,Ticks_Phase_5,289,5,42,127,1102526700
85,10,23,Ticks_Phase_5,290,1,48,21,1103025336
85,10,23,Ticks_Phase_5,291,5,42,127,1103026760
85,10,23,Ticks_Phase_5,292,5,42,127,1103527428
85,10,23,Ticks_Phase_5,293,1,48,21,1103554668
85,10,23,Ticks_Phase_5,294,1,48,21,1103996800
85,10,23,Ticks_Phase_5,295,5,42,127,1104027184
85,10,23,Ticks_Phase_5,296,1,48,20,1104520972
85,10,23,Ticks_Phase_5,297,5,42,127,1104526652
85,10,23,Ticks_Phase_5,298,5,42,127,1104927244
85,10,23,Ticks_Phase_5,299,1,48,18,1105029884
85,10,23,Ticks_Phase_5,300,5,42,127,1105426932
85,10,23,Ticks_Phase_5,301,1,48,23,1105447056
85,10,23,Ticks_Phase_5,302,1,48,24,1105870116
85,10,23,Ticks_Phase_5,303,5,42,127,1105926536
85,10,23,Ticks_Phase_5,304,1,48,25,1106359324
85,10,23,Ticks_Phase_5,305,5,42,127,1106427128
85,10,23,Ticks_Phase_5,306,1,48,28,1106886420
85,10,23,Ticks_Phase_5,307,5,42,127,1106927040
85,10,23,Ticks_Phase_5,308,1,48,22,1107426360
85,10,23,Ticks_Phase_5,309,5,42,127,1107428144
85,10,23,Ticks_Phase_5,310,5,42,127,1107927396
85,10,23,Ticks_Phase_5,311,1,48,23,1107970056
85,10,23,Ticks_Phase_5,312,1,48,26,1108405560
85,10,23,Ticks_Phase_5,313,5,42,127,1108427076
85,10,23,Ticks_Phase_5,314,1,48,28,1108879252
85,10,23,Ticks_Phase_5,315,5,42,127,1108926764
85,10,23,Ticks_Phase_5,316,1,48,27,1109424172
85,10,23,Ticks_Phase_5,317,5,42,127,1109426532
85,10,23,Ticks_Phase_5,318,1,48,22,1109919668
85,10,23,Ticks_Phase_5,319,5,42,127,1109927264
85,10,23,Ticks_Phase_5,320,1,48,27,1110394164
85,10,23,Ticks_Phase_5,321,5,42,127,1110426952
85,10,23,Ticks_Phase_5,322,1,48,27,1110894676
85,10,23,Ticks_Phase_5,323,5,42,127,1110926716
85,10,23,Ticks_Phase_5,324,1,48,27,1111378048
85,10,23,Ticks_Phase_5,325,5,42,127,1111426452
85,10,23,Ticks_Phase_5,326,1,48,27,1111892108
85,10,23,Ticks_Phase_5,327,5,42,127,1111927260
85,10,23,Ticks_Phase_5,328,1,48,26,1112416136
85,10,23,Ticks_Phase_5,329,5,42,127,1112426948
85,10,23,Ticks_Phase_5,330,1,48,26,1112899272
85,10,23,Ticks_Phase_5,331,5,42,127,1112926564
85,10,23,Ticks_Phase_5,332,1,48,25,1113398292
85,10,23,Ticks_Phase_5,333,5,42,127,1113427224
85,10,23,Ticks_Phase_5,334,1,48,27,1113874300
85,10,23,Ticks_Phase_5,335,5,42,127,1113927060
85,10,23,Ticks_Phase_5,336,1,48,21,1114357376
85,10,23,Ticks_Phase_5,337,5,42,127,1114426676
85,10,23,Ticks_Phase_5,0,9999,9999,9999,1029904488
85,10,23,Ticks_Phase_5,1,9999,9999,9999,1030404200
85,10,23,Ticks_Phase_5,2,9999,9999,9999,1030904952
85,10,23,Ticks_Phase_5,3,9999,9999,9999,1031404640
85,10,23,Ticks_Phase_5,4,9999,9999,9999,1031904328
85,10,23,Ticks_Phase_5,5,9999,9999,9999,1032405064
85,10,23,Ticks_Phase_5,6,9999,9999,9999,1032904824
85,10,23,Ticks_Phase_5,7,9999,9999,9999,1033404516
85,10,23,Ticks_Phase_5,8,9999,9999,9999,1033904200
85,10,23,Ticks_Phase_5,9,9999,9999,9999,1034404936
85,10,23,Ticks_Phase_5,10,9999,9999,9999,1034904700
85,10,23,Ticks_Phase_5,11,9999,9999,9999,1035404364
85,10,23,Ticks_Phase_5,12,9999,9999,9999,1035904124
85,10,23,Ticks_Phase_5,13,9999,9999,9999,1036404860
85,10,23,Ticks_Phase_5,14,9999,9999,9999,1036904548
85,10,23,Ticks_Phase_5,15,9999,9999,9999,1037404240
85,10,23,Ticks_Phase_5,16,9999,9999,9999,1037904972
85,10,23,Ticks_Phase_5,17,9999,9999,9999,1038404736
85,10,23,Ticks_Phase_5,18,9999,9999,9999,1038904424
85,10,23,Ticks_Phase_5,19,9999,9999,9999,1039404120
85,10,23,Ticks_Phase_5,20,9999,9999,9999,1039904848
85,10,23,Ticks_Phase_5,21,9999,9999,9999,1040404536
85,10,23,Ticks_Phase_5,22,9999,9999,9999,1040904296
85,10,23,Ticks_Phase_5,23,9999,9999,9999,1041405040
85,10,23,Ticks_Phase_5,24,9999,9999,9999,1041904720
85,10,23,Ticks_Phase_5,25,9999,9999,9999,1042404408
85,10,23,Ticks_Phase_5,26,9999,9999,9999,1042904172
85,10,23,Ticks_Phase_5,27,9999,9999,9999,1043404904
85,10,23,Ticks_Phase_5,28,9999,9999,9999,1043904596
85,10,23,Ticks_Phase_5,29,9999,9999,9999,1044404284
85,10,23,Ticks_Phase_5,30,9999,9999,9999,1044894836
85,10,23,Ticks_Phase_5,31,9999,9999,9999,1045394524
85,10,23,Ticks_Phase_5,32,9999,9999,9999,1045894260
85,10,23,Ticks_Phase_5,33,9999,9999,9999,1046394996
85,10,23,Ticks_Phase_5,34,9999,9999,9999,1046894684
85,10,23,Ticks_Phase_5,35,9999,9999,9999,1047394376
85,10,23,Ticks_Phase_5,36,9999,9999,9999,1047894140
85,10,23,Ticks_Phase_5,37,9999,9999,9999,1048394868
85,10,23,Ticks_Phase_5,38,9999,9999,9999,1048894564
85,10,23,Ticks_Phase_5,39,9999,9999,9999,1049394252
85,10,23,Ticks_Phase_5,40,9999,9999,9999,1049894980
85,10,23,Ticks_Phase_5,41,9999,9999,9999,1050394740
85,10,23,Ticks_Phase_5,42,9999,9999,9999,1050894432
85,10,23,Ticks_Phase_5,43,9999,9999,9999,1051394120
85,10,23,Ticks_Phase_5,44,9999,9999,9999,1051894852
85,10,23,Ticks_Phase_5,45,9999,9999,9999,1052394616
85,10,23,Ticks_Phase_5,46,9999,9999,9999,1052894304
85,10,23,Ticks_Phase_5,47,9999,9999,9999,1053395044
85,10,23,Ticks_Phase_5,48,9999,9999,9999,1053904988
85,10,23,Ticks_Phase_5,49,9999,9999,9999,1054404676
85,10,23,Ticks_Phase_5,50,9999,9999,9999,1054904372
85,10,23,Ticks_Phase_5,51,9999,9999,9999,1055404128
85,10,23,Ticks_Phase_5,52,9999,9999,9999,1055904864
85,10,23,Ticks_Phase_5,53,9999,9999,9999,1056404552
85,10,23,Ticks_Phase_5,54,9999,9999,9999,1056904296
85,10,23,Ticks_Phase_5,55,9999,9999,9999,1057405032
85,10,23,Ticks_Phase_5,56,9999,9999,9999,1057904712
85,10,23,Ticks_Phase_5,57,9999,9999,9999,1058404408
85,10,23,Ticks_Phase_5,58,9999,9999,9999,1058904168
85,10,23,Ticks_Phase_5,59,9999,9999,9999,1059404900
85,10,23,Ticks_Phase_5,60,9999,9999,9999,1059904592
85,10,23,Ticks_Phase_5,61,9999,9999,9999,1060404280
85,10,23,Ticks_Phase_5,62,9999,9999,9999,1060905036
85,10,23,Ticks_Phase_5,63,9999,9999,9999,1061404776
85,10,23,Ticks_Phase_5,64,9999,9999,9999,1061924984
85,10,23,Ticks_Phase_5,65,9999,9999,9999,1062424672
85,10,23,Ticks_Phase_5,66,9999,9999,9999,1062924360
85,10,23,Ticks_Phase_5,67,9999,9999,9999,1063424124
85,10,23,Ticks_Phase_5,68,9999,9999,9999,1063924860
85,10,23,Ticks_Phase_5,69,9999,9999,9999,1064424548
85,10,23,Ticks_Phase_5,70,9999,9999,9999,1064924236
85,10,23,Ticks_Phase_5,71,9999,9999,9999,1065424968
85,10,23,Ticks_Phase_5,72,9999,9999,9999,1065924732
85,10,23,Ticks_Phase_5,73,9999,9999,9999,1066424420
85,10,23,Ticks_Phase_5,74,9999,9999,9999,1066924108
85,10,23,Ticks_Phase_5,75,9999,9999,9999,1067424844
85,10,23,Ticks_Phase_5,76,9999,9999,9999,1067924604
85,10,23,Ticks_Phase_5,77,9999,9999,9999,1068424272
85,10,23,Ticks_Phase_5,78,9999,9999,9999,1068924984
85,10,23,Ticks_Phase_5,79,9999,9999,9999,1069424744
85,10,23,Ticks_Phase_5,80,9999,9999,9999,1069924432
85,10,23,Ticks_Phase_5,81,9999,9999,9999,1070404724
85,10,23,Ticks_Phase_5,82,9999,9999,9999,1070904388
85,10,23,Ticks_Phase_5,83,9999,9999,9999,1071404156
85,10,23,Ticks_Phase_5,84,9999,9999,9999,1071904884
85,10,23,Ticks_Phase_5,85,9999,9999,9999,1072404572
85,10,23,Ticks_Phase_5,86,9999,9999,9999,1072904260
85,10,23,Ticks_Phase_5,87,9999,9999,9999,1073405004
85,10,23,Ticks_Phase_5,88,9999,9999,9999,1073904764
85,10,23,Ticks_Phase_5,89,9999,9999,9999,1074404448
85,10,23,Ticks_Phase_5,90,9999,9999,9999,1074904140
85,10,23,Ticks_Phase_5,91,9999,9999,9999,1075404872
85,10,23,Ticks_Phase_5,92,9999,9999,9999,1075904636
85,10,23,Ticks_Phase_5,93,9999,9999,9999,1076404324
85,10,23,Ticks_Phase_5,94,9999,9999,9999,1076905056
85,10,23,Ticks_Phase_5,95,9999,9999,9999,1077404752
85,10,23,Ticks_Phase_5,96,9999,9999,9999,1077904512
85,10,23,Ticks_Phase_5,97,9999,9999,9999,1078355052
85,10,23,Ticks_Phase_5,98,9999,9999,9999,1078854744
85,10,23,Ticks_Phase_5,99,9999,9999,9999,1079354424
85,10,23,Ticks_Phase_5,100,9999,9999,9999,1079854188
85,10,23,Ticks_Phase_5,101,9999,9999,9999,1080354920
85,10,23,Ticks_Phase_5,102,9999,9999,9999,1080854616
85,10,23,Ticks_Phase_5,103,9999,9999,9999,1081354296
85,10,23,Ticks_Phase_5,104,9999,9999,9999,1081855032
85,10,23,Ticks_Phase_5,105,9999,9999,9999,1082354796
85,10,23,Ticks_Phase_5,106,9999,9999,9999,1082854484
85,10,23,Ticks_Phase_5,107,9999,9999,9999,1083354204
85,10,23,Ticks_Phase_5,108,9999,9999,9999,1083854912
85,10,23,Ticks_Phase_5,109,9999,9999,9999,1084354676
85,10,23,Ticks_Phase_5,110,9999,9999,9999,1084854360
85,10,23,Ticks_Phase_5,111,9999,9999,9999,1085355096
85,10,23,Ticks_Phase_5,112,9999,9999,9999,1085865040
85,10,23,Ticks_Phase_5,113,9999,9999,9999,1086364732
85,10,23,Ticks_Phase_5,114,9999,9999,9999,1086914668
85,10,23,Ticks_Phase_5,115,9999,9999,9999,1087414364
85,10,23,Ticks_Phase_5,116,9999,9999,9999,1087915100
85,10,23,Ticks_Phase_5,117,9999,9999,9999,1088425048
85,10,23,Ticks_Phase_5,118,9999,9999,9999,1088924768
85,10,23,Ticks_Phase_5,119,9999,9999,9999,1089424500
85,10,23,Ticks_Phase_5,120,9999,9999,9999,1089924156
85,10,23,Ticks_Phase_5,121,9999,9999,9999,1090424900
85,10,23,Ticks_Phase_5,122,9999,9999,9999,1090924656
85,10,23,Ticks_Phase_5,123,9999,9999,9999,1091424344
85,10,23,Ticks_Phase_5,124,9999,9999,9999,1091925088
85,10,23,Ticks_Phase_5,125,9999,9999,9999,1092424768
85,10,23,Ticks_Phase_5,126,9999,9999,9999,1092924528
85,10,23,Ticks_Phase_5,127,9999,9999,9999,1093424224
85,10,23,Ticks_Phase_5,128,9999,9999,9999,1093924960
85,10,23,Ticks_Phase_5,129,9999,9999,9999,1094424640
85,10,23,Ticks_Phase_5,130,9999,9999,9999,1094924404
85,10,23,Ticks_Phase_5,131,9999,9999,9999,1095524440
85,10,23,Ticks_Phase_5,132,9999,9999,9999,1096024136
85,10,23,Ticks_Phase_5,133,9999,9999,9999,1096524872
85,10,23,Ticks_Phase_5,134,9999,9999,9999,1097024632
85,10,23,Ticks_Phase_5,135,9999,9999,9999,1097524320
85,10,23,Ticks_Phase_5,136,9999,9999,9999,1098025048
85,10,23,Ticks_Phase_5,137,9999,9999,9999,1098524736
85,10,23,Ticks_Phase_5,138,9999,9999,9999,1099024500
85,10,23,Ticks_Phase_5,139,9999,9999,9999,1099524188
85,10,23,Ticks_Phase_5,140,9999,9999,9999,1100024924
85,10,23,Ticks_Phase_5,141,9999,9999,9999,1100524620
85,10,23,Ticks_Phase_5,142,9999,9999,9999,1101024372
85,10,23,Ticks_Phase_5,143,9999,9999,9999,1101525108
85,10,23,Ticks_Phase_5,144,9999,9999,9999,1102024804
85,10,23,Ticks_Phase_5,145,9999,9999,9999,1102524488
85,10,23,Ticks_Phase_5,146,9999,9999,9999,1103024180
85,10,23,Ticks_Phase_5,147,9999,9999,9999,1103524988
85,10,23,Ticks_Phase_5,148,9999,9999,9999,1104024672
85,10,23,Ticks_Phase_5,149,9999,9999,9999,1104524360
85,10,23,Ticks_Phase_5,150,9999,9999,9999,1104924728
85,10,23,Ticks_Phase_5,151,9999,9999,9999,1105424492
85,10,23,Ticks_Phase_5,152,9999,9999,9999,1105924176
85,10,23,Ticks_Phase_5,153,9999,9999,9999,1106424912
85,10,23,Ticks_Phase_5,154,9999,9999,9999,1106924600
85,10,23,Ticks_Phase_5,155,9999,9999,9999,1107424368
85,10,23,Ticks_Phase_5,156,9999,9999,9999,1107925104
85,10,23,Ticks_Phase_5,157,9999,9999,9999,1108424788
85,10,23,Ticks_Phase_5,158,9999,9999,9999,1108924476
85,10,23,Ticks_Phase_5,159,9999,9999,9999,1109424240
85,10,23,Ticks_Phase_5,160,9999,9999,9999,1109924976
85,10,23,Ticks_Phase_5,161,9999,9999,9999,1110424664
85,10,23,Ticks_Phase_5,162,9999,9999,9999,1110924352
85,10,23,Ticks_Phase_5,163,9999,9999,9999,1111424088
85,10,23,Ticks_Phase_5,164,9999,9999,9999,1111924824
85,10,23,Ticks_Phase_5,165,9999,9999,9999,1112424512
85,10,23,Ticks_Phase_5,166,9999,9999,9999,1112924272
85,10,23,Ticks_Phase_5,167,9999,9999,9999,1113425008
85,10,23,Ticks_Phase_5,168,9999,9999,9999,1113924696
85,10,23,Ticks_Phase_5,169,9999,9999,9999,1114424388
85,11,22,Ticks_Phase_8,0,5,42,127,1124445692
85,11,22,Ticks_Phase_8,1,5,42,127,1125246176
85,11,22,Ticks_Phase_8,2,5,42,127,1126045936
85,11,22,Ticks_Phase_8,3,1,48,30,1126077592
85,11,22,Ticks_Phase_8,4,5,42,127,1126846020
85,11,22,Ticks_Phase_8,5,1,48,28,1126877148
85,11,22,Ticks_Phase_8,6,1,48,26,1127621056
85,11,22,Ticks_Phase_8,7,5,42,127,1127645648
85,11,22,Ticks_Phase_8,8,5,42,127,1128446264
85,11,22,Ticks_Phase_8,9,1,48,26,1128458672
85,11,22,Ticks_Phase_8,10,5,42,127,1129246200
85,11,22,Ticks_Phase_8,11,1,48,24,1129263780
85,11,22,Ticks_Phase_8,12,1,48,25,1129984844
85,11,22,Ticks_Phase_8,13,5,42,127,1130045756
85,11,22,Ticks_Phase_8,14,1,48,23,1130830984
85,11,22,Ticks_Phase_8,15,5,42,127,1130845840
85,11,22,Ticks_Phase_8,16,5,42,127,1131646308
85,11,22,Ticks_Phase_8,17,1,48,25,1131650252
85,11,22,Ticks_Phase_8,18,5,42,127,1132445968
85,11,22,Ticks_Phase_8,19,1,48,24,1132467960
85,11,22,Ticks_Phase_8,20,1,48,25,1133195324
85,11,22,Ticks_Phase_8,21,5,42,127,1133245748
85,11,22,Ticks_Phase_8,22,5,42,127,1134045836
85,11,22,Ticks_Phase_8,23,1,48,29,1134046808
85,11,22,Ticks_Phase_8,24,5,42,127,1134846224
85,11,22,Ticks_Phase_8,25,1,48,30,1134866800
85,11,22,Ticks_Phase_8,26,5,42,127,1135646012
85,11,22,Ticks_Phase_8,27,1,48,28,1135652272
85,11,22,Ticks_Phase_8,28,1,48,27,1136436632
85,11,22,Ticks_Phase_8,29,5,42,127,1136445716
85,11,22,Ticks_Phase_8,30,5,42,127,1137245660
85,11,22,Ticks_Phase_8,31,1,48,26,1137321592
85,11,22,Ticks_Phase_8,32,1,48,27,1138002644
85,11,22,Ticks_Phase_8,33,5,42,127,1138046412
85,11,22,Ticks_Phase_8,34,1,48,23,1138806860
85,11,22,Ticks_Phase_8,35,5,42,127,1138845928
85,11,22,Ticks_Phase_8,36,1,48,26,1139641708
85,11,22,Ticks_Phase_8,37,5,42,127,1139645860
85,11,22,Ticks_Phase_8,38,5,42,127,1140445656
85,11,22,Ticks_Phase_8,39,1,48,20,1140450348
85,11,22,Ticks_Phase_8,40,1,48,24,1141246188
85,11,22,Ticks_Phase_8,41,5,42,127,1141247528
85,11,22,Ticks_Phase_8,42,1,48,17,1142016736
85,11,22,Ticks_Phase_8,43,5,42,127,1142046192
85,11,22,Ticks_Phase_8,44,1,48,29,1142819964
85,11,22,Ticks_Phase_8,45,5,42,127,1142845680
85,11,22,Ticks_Phase_8,46,1,48,18,1143538724
85,11,22,Ticks_Phase_8,47,5,42,127,1143645524
85,11,22,Ticks_Phase_8,48,1,48,28,1144377152
85,11,22,Ticks_Phase_8,49,5,42,127,1144446596
85,11,22,Ticks_Phase_8,50,1,48,22,1145240012
85,11,22,Ticks_Phase_8,51,5,42,127,1145245960
85,11,22,Ticks_Phase_8,52,5,42,127,1146045680
85,11,22,Ticks_Phase_8,53,1,48,23,1146046648
85,11,22,Ticks_Phase_8,54,5,42,127,1146845540
85,11,22,Ticks_Phase_8,55,1,48,22,1146856296
85,11,22,Ticks_Phase_8,56,1,48,25,1147626648
85,11,22,Ticks_Phase_8,57,5,42,127,1147646740
85,11,22,Ticks_Phase_8,58,1,48,18,1148415276
85,11,22,Ticks_Phase_8,59,5,42,127,1148425712
85,11,22,Ticks_Phase_8,60,1,48,27,1149206752
85,11,22,Ticks_Phase_8,61,5,42,127,1149226468
85,11,22,Ticks_Phase_8,62,5,42,127,1150026040
85,11,22,Ticks_Phase_8,63,1,48,19,1150044888
85,11,22,Ticks_Phase_8,64,1,48,20,1150755996
85,11,22,Ticks_Phase_8,65,5,42,127,1150825892
85,11,22,Ticks_Phase_8,66,1,48,23,1151599664
85,11,22,Ticks_Phase_8,67,5,42,127,1151625776
85,11,22,Ticks_Phase_8,68,1,48,29,1152418272
85,11,22,Ticks_Phase_8,69,5,42,127,1152426464
85,11,22,Ticks_Phase_8,70,5,42,127,1153226032
85,11,22,Ticks_Phase_8,71,1,48,19,1153232364
85,11,22,Ticks_Phase_8,72,5,42,127,1154025816
85,11,22,Ticks_Phase_8,73,1,48,27,1154040096
85,11,22,Ticks_Phase_8,74,1,48,20,1154815904
85,11,22,Ticks_Phase_8,75,5,42,127,1154825520
85,11,22,Ticks_Phase_8,76,1,48,24,1155602356
85,11,22,Ticks_Phase_8,77,5,42,127,1155626504
85,11,22,Ticks_Phase_8,78,1,48,23,1156417952
85,11,22,Ticks_Phase_8,79,5,42,127,1156426364
85,11,22,Ticks_Phase_8,80,5,42,127,1157225708
85,11,22,Ticks_Phase_8,81,1,48,27,1157231444
85,11,22,Ticks_Phase_8,82,5,42,127,1158025596
85,11,22,Ticks_Phase_8,83,1,48,22,1158040320
85,11,22,Ticks_Phase_8,84,5,42,127,1158826204
85,11,22,Ticks_Phase_8,85,1,48,26,1158845656
85,11,22,Ticks_Phase_8,86,1,48,22,1159621084
85,11,22,Ticks_Phase_8,87,5,42,127,1159626136
85,11,22,Ticks_Phase_8,88,1,48,25,1160393680
85,11,22,Ticks_Phase_8,89,5,42,127,1160425772
85,11,22,Ticks_Phase_8,90,1,48,22,1161220360
85,11,22,Ticks_Phase_8,91,5,42,127,1161225632
85,11,22,Ticks_Phase_8,92,5,42,127,1162026324
85,11,22,Ticks_Phase_8,93,1,48,26,1162038360
85,11,22,Ticks_Phase_8,94,1,48,25,1162811240
85,11,22,Ticks_Phase_8,95,5,42,127,1162845500
85,11,22,Ticks_Phase_8,96,5,42,127,1163646192
85,11,22,Ticks_Phase_8,97,1,48,27,1163664544
85,11,22,Ticks_Phase_8,98,1,48,21,1164418684
85,11,22,Ticks_Phase_8,99,5,42,127,1164445996
85,11,22,Ticks_Phase_8,100,1,48,28,1165200364
85,11,22,Ticks_Phase_8,101,5,42,127,1165245932
85,11,22,Ticks_Phase_8,102,1,48,22,1166015964
85,11,22,Ticks_Phase_8,103,5,42,127,1166045496
85,11,22,Ticks_Phase_8,104,1,48,33,1166801808
85,11,22,Ticks_Phase_8,105,5,42,127,1166846328
85,11,22,Ticks_Phase_8,106,1,48,24,1167609540
85,11,22,Ticks_Phase_8,107,5,42,127,1167646188
85,11,22,Ticks_Phase_8,108,1,48,26,1168397648
85,11,22,Ticks_Phase_8,109,5,42,127,1168445752
85,11,22,Ticks_Phase_8,110,1,48,22,1169113416
85,11,22,Ticks_Phase_8,111,5,42,127,1169245600
85,11,22,Ticks_Phase_8,112,1,48,32,1170010400
85,11,22,Ticks_Phase_8,113,5,42,127,1170046520
85,11,22,Ticks_Phase_8,114,1,48,21,1170838744
85,11,22,Ticks_Phase_8,115,5,42,127,1170846184
85,11,22,Ticks_Phase_8,116,1,48,27,1171567736
85,11,22,Ticks_Phase_8,117,5,42,127,1171645968
85,11,22,Ticks_Phase_8,118,5,42,127,1172445616
85,11,22,Ticks_Phase_8,119,1,48,23,1172497188
85,11,22,Ticks_Phase_8,120,1,48,33,1173162088
85,11,22,Ticks_Phase_8,121,5,42,127,1173246440
85,11,22,Ticks_Phase_8,122,1,48,20,1174045036
85,11,22,Ticks_Phase_8,123,5,42,127,1174046600
85,11,22,Ticks_Phase_8,124,5,42,127,1174846024
85,11,22,Ticks_Phase_8,125,1,48,27,1174851012
85,11,22,Ticks_Phase_8,126,5,42,127,1175685352
85,11,22,Ticks_Phase_8,127,1,48,20,1175690512
85,11,22,Ticks_Phase_8,128,5,42,127,1176486280
85,11,22,Ticks_Phase_8,129,1,48,26,1176491568
85,11,22,Ticks_Phase_8,130,5,42,127,1177286064
85,11,22,Ticks_Phase_8,131,1,48,16,1177303028
85,11,22,Ticks_Phase_8,132,1,48,31,1178067844
85,11,22,Ticks_Phase_8,133,5,42,127,1178085620
85,11,22,Ticks_Phase_8,134,1,48,21,1178798808
85,11,22,Ticks_Phase_8,135,5,42,127,1178885484
85,11,22,Ticks_Phase_8,136,1,48,33,1179631464
85,11,22,Ticks_Phase_8,137,5,42,127,1179686316
85,11,22,Ticks_Phase_8,138,1,48,18,1180432148
85,11,22,Ticks_Phase_8,139,5,42,127,1180485952
85,11,22,Ticks_Phase_8,140,1,48,31,1181234640
85,11,22,Ticks_Phase_8,141,5,42,127,1181285888
85,11,22,Ticks_Phase_8,142,1,48,26,1182051644
85,11,22,Ticks_Phase_8,143,5,42,127,1182085376
85,11,22,Ticks_Phase_8,144,5,42,127,1182886388
85,11,22,Ticks_Phase_8,145,1,48,25,1182945152
85,11,22,Ticks_Phase_8,146,5,42,127,1183686028
85,11,22,Ticks_Phase_8,147,1,48,22,1183756700
85,11,22,Ticks_Phase_8,148,1,48,28,1184454404
85,11,22,Ticks_Phase_8,149,5,42,127,1184485884
85,11,22,Ticks_Phase_8,150,1,48,20,1185285896
85,11,22,Ticks_Phase_8,151,5,42,127,1185287088
85,11,22,Ticks_Phase_8,152,1,48,32,1186034280
85,11,22,Ticks_Phase_8,153,5,42,127,1186086128
85,11,22,Ticks_Phase_8,154,5,42,127,1186885996
85,11,22,Ticks_Phase_8,155,1,48,22,1186901392
85,11,22,Ticks_Phase_8,156,1,48,29,1187669864
85,11,22,Ticks_Phase_8,157,5,42,127,1187685700
85,11,22,Ticks_Phase_8,158,5,42,127,1188485420
85,11,22,Ticks_Phase_8,159,1,48,19,1188512896
85,11,22,Ticks_Phase_8,160,5,42,127,1189246484
85,11,22,Ticks_Phase_8,161,1,48,31,1189266640
85,11,22,Ticks_Phase_8,162,5,42,127,1190046000
85,11,22,Ticks_Phase_8,163,1,48,22,1190053608
85,11,22,Ticks_Phase_8,164,1,48,32,1190798796
85,11,22,Ticks_Phase_8,165,5,42,127,1190845932
85,11,22,Ticks_Phase_8,166,1,48,25,1191623212
85,11,22,Ticks_Phase_8,167,5,42,127,1191645492
85,11,22,Ticks_Phase_8,168,1,48,34,1192411248
85,11,22,Ticks_Phase_8,169,5,42,127,1192446252
85,11,22,Ticks_Phase_8,170,5,42,127,1193246044
85,11,22,Ticks_Phase_8,171,1,48,24,1193269156
85,11,22,Ticks_Phase_8,172,1,48,35,1194044856
85,11,22,Ticks_Phase_8,173,5,42,127,1194046196
85,11,22,Ticks_Phase_8,174,5,42,127,1194845840
85,11,22,Ticks_Phase_8,175,1,48,26,1194942668
85,11,22,Ticks_Phase_8,176,1,48,39,1195566960
85,11,22,Ticks_Phase_8,177,5,42,127,1195646220
85,11,22,Ticks_Phase_8,178,1,48,24,1196431620
85,11,22,Ticks_Phase_8,179,5,42,127,1196446104
85,11,22,Ticks_Phase_8,180,1,48,34,1197187204
85,11,22,Ticks_Phase_8,181,5,42,127,1197245816
85,11,22,Ticks_Phase_8,182,1,48,23,1198041676
85,11,22,Ticks_Phase_8,183,5,42,127,1198045828
85,11,22,Ticks_Phase_8,184,1,48,28,1198798556
85,11,22,Ticks_Phase_8,185,5,42,127,1198846288
85,11,22,Ticks_Phase_8,186,1,48,17,1199571600
85,11,22,Ticks_Phase_8,187,5,42,127,1199646000
85,11,22,Ticks_Phase_8,188,1,48,34,1200342928
85,11,22,Ticks_Phase_8,189,5,42,127,1200445772
85,11,22,Ticks_Phase_8,190,1,48,27,1201184816
85,11,22,Ticks_Phase_8,191,5,42,127,1201245724
85,11,22,Ticks_Phase_8,192,5,42,127,1201965612
85,11,22,Ticks_Phase_8,193,1,48,25,1202026924
85,11,22,Ticks_Phase_8,194,1,48,26,1202668836
85,11,22,Ticks_Phase_8,195,5,42,127,1202766064
85,11,22,Ticks_Phase_8,196,1,48,26,1203442328
85,11,22,Ticks_Phase_8,197,5,42,127,1203565912
85,11,22,Ticks_Phase_8,198,1,48,21,1204264736
85,11,22,Ticks_Phase_8,199,5,42,127,1204365796
85,11,22,Ticks_Phase_8,200,1,48,27,1205145728
85,11,22,Ticks_Phase_8,201,5,42,127,1205165668
85,11,22,Ticks_Phase_8,202,1,48,24,1205927016
85,11,22,Ticks_Phase_8,203,5,42,127,1205966132
85,11,22,Ticks_Phase_8,204,1,48,29,1206702900
85,11,22,Ticks_Phase_8,205,5,42,127,1206765916
85,11,22,Ticks_Phase_8,206,1,48,21,1207510480
85,11,22,Ticks_Phase_8,207,5,42,127,1207565552
85,11,22,Ticks_Phase_8,208,1,48,27,1208307048
85,11,22,Ticks_Phase_8,209,5,42,127,1208365712
85,11,22,Ticks_Phase_8,210,1,48,23,1209134396
85,11,22,Ticks_Phase_8,211,5,42,127,1209166096
85,11,22,Ticks_Phase_8,212,1,48,29,1209895988
85,11,22,Ticks_Phase_8,213,5,42,127,1209965960
85,11,22,Ticks_Phase_8,214,1,48,22,1210729696
85,11,22,Ticks_Phase_8,215,5,42,127,1210765620
85,11,22,Ticks_Phase_8,216,1,48,30,1211542452
85,11,22,Ticks_Phase_8,217,5,42,127,1211565628
85,11,22,Ticks_Phase_8,218,1,48,23,1212363656
85,11,22,Ticks_Phase_8,219,5,42,127,1212366316
85,11,22,Ticks_Phase_8,220,5,42,127,1213165884
85,11,22,Ticks_Phase_8,221,1,48,26,1213195520
85,11,22,Ticks_Phase_8,222,1,48,22,1213935604
85,11,22,Ticks_Phase_8,223,5,42,127,1213965664
85,11,22,Ticks_Phase_8,224,5,42,127,1214765456
85,11,22,Ticks_Phase_8,225,1,48,32,1214766500
85,11,22,Ticks_Phase_8,226,1,48,21,1215575620
85,11,22,Ticks_Phase_8,227,5,42,127,1215646140
85,11,22,Ticks_Phase_8,228,1,48,30,1216400740
85,11,22,Ticks_Phase_8,229,5,42,127,1216445780
85,11,22,Ticks_Phase_8,230,1,48,21,1217226896
85,11,22,Ticks_Phase_8,231,5,42,127,1217245640
85,11,22,Ticks_Phase_8,232,1,48,19,1217960844
85,11,22,Ticks_Phase_8,233,5,42,127,1218046400
85,11,22,Ticks_Phase_8,234,5,42,127,1218846044
85,11,22,Ticks_Phase_8,235,1,48,21,1218873352
85,11,22,Ticks_Phase_8,236,1,48,29,1219636440
85,11,22,Ticks_Phase_8,237,5,42,127,1219645824
85,11,22,Ticks_Phase_8,238,5,42,127,1220445544
85,11,22,Ticks_Phase_8,239,1,48,21,1220459672
85,11,22,Ticks_Phase_8,240,5,42,127,1221246376
85,11,22,Ticks_Phase_8,241,1,48,27,1221283588
85,11,22,Ticks_Phase_8,242,5,42,127,1222046264
85,11,22,Ticks_Phase_8,243,1,48,24,1222096788
85,11,22,Ticks_Phase_8,244,5,42,127,1222845752
85,11,22,Ticks_Phase_8,245,1,48,29,1222866324
85,11,22,Ticks_Phase_8,246,5,42,127,1223645536
85,11,22,Ticks_Phase_8,247,1,48,23,1223653140
85,11,22,Ticks_Phase_8,248,1,48,22,1224437056
85,11,22,Ticks_Phase_8,249,5,42,127,1224446288
85,11,22,Ticks_Phase_8,250,1,48,23,1225178352
85,11,22,Ticks_Phase_8,251,5,42,127,1225246148
85,11,22,Ticks_Phase_8,252,1,48,27,1226000148
85,11,22,Ticks_Phase_8,253,5,42,127,1226045788
85,11,22,Ticks_Phase_8,254,1,48,22,1226835584
85,11,22,Ticks_Phase_8,255,5,42,127,1226845424
85,11,22,Ticks_Phase_8,256,1,48,26,1227640532
85,11,22,Ticks_Phase_8,257,5,42,127,1227646404
85,11,22,Ticks_Phase_8,258,1,48,21,1228394420
85,11,22,Ticks_Phase_8,259,5,42,127,1228446216
85,11,22,Ticks_Phase_8,260,1,48,32,1229254588
85,11,22,Ticks_Phase_8,261,5,42,127,1229405500
85,11,22,Ticks_Phase_8,262,1,48,22,1230193972
85,11,22,Ticks_Phase_8,263,5,42,127,1230206348
85,11,22,Ticks_Phase_8,264,5,42,127,1231006092
85,11,22,Ticks_Phase_8,265,1,48,27,1231013620
85,11,22,Ticks_Phase_8,266,5,42,127,1231805728
85,11,22,Ticks_Phase_8,267,1,48,21,1231821572
85,11,22,Ticks_Phase_8,268,5,42,127,1232605516
85,11,22,Ticks_Phase_8,269,1,48,28,1232636640
85,11,22,Ticks_Phase_8,270,5,42,127,1233406420
85,11,22,Ticks_Phase_8,271,1,48,21,1233407612
85,11,22,Ticks_Phase_8,272,1,48,25,1234159744
85,11,22,Ticks_Phase_8,273,5,42,127,1234206200
85,11,22,Ticks_Phase_8,274,5,42,127,1235005768
85,11,22,Ticks_Phase_8,275,1,48,23,1235006740
85,11,22,Ticks_Phase_8,276,5,42,127,1235805632
85,11,22,Ticks_Phase_8,277,1,48,26,1235832560
85,11,22,Ticks_Phase_8,278,1,48,18,1236571976
85,11,22,Ticks_Phase_8,279,5,42,127,1236606236
85,11,22,Ticks_Phase_8,280,5,42,127,1237405980
85,11,22,Ticks_Phase_8,281,1,48,27,1237407920
85,11,22,Ticks_Phase_8,282,1,48,19,1238167988
85,11,22,Ticks_Phase_8,283,5,42,127,1238205980
85,11,22,Ticks_Phase_8,284,1,48,26,1238997428
85,11,22,Ticks_Phase_8,285,5,42,127,1239005544
85,11,22,Ticks_Phase_8,286,1,48,22,1239799912
85,11,22,Ticks_Phase_8,287,5,42,127,1239806304
85,11,22,Ticks_Phase_8,288,1,48,25,1240538064
85,11,22,Ticks_Phase_8,289,5,42,127,1240605944
85,11,22,Ticks_Phase_8,290,1,48,20,1241395068
85,11,22,Ticks_Phase_8,291,5,42,127,1241405952
85,11,22,Ticks_Phase_8,292,1,48,22,1242157188
85,11,22,Ticks_Phase_8,293,5,42,127,1242205516
85,11,22,Ticks_Phase_8,294,1,48,20,1242977640
85,11,22,Ticks_Phase_8,295,5,42,127,1243006272
85,11,22,Ticks_Phase_8,296,5,42,127,1243806092
85,11,22,Ticks_Phase_8,297,1,48,27,1243858936
85,11,22,Ticks_Phase_8,298,5,42,127,1244446120
85,11,22,Ticks_Phase_8,299,1,48,18,1244559272
85,11,22,Ticks_Phase_8,300,1,48,22,1245223468
85,11,22,Ticks_Phase_8,301,5,42,127,1245246120
85,11,22,Ticks_Phase_8,302,1,48,18,1246044260
85,11,22,Ticks_Phase_8,303,5,42,127,1246045756
85,11,22,Ticks_Phase_8,304,5,42,127,1246846376
85,11,22,Ticks_Phase_8,305,1,48,29,1246851064
85,11,22,Ticks_Phase_8,306,1,48,22,1247620060
85,11,22,Ticks_Phase_8,307,5,42,127,1247646156
85,11,22,Ticks_Phase_8,308,1,48,32,1248374824
85,11,22,Ticks_Phase_8,309,5,42,127,1248446016
85,11,22,Ticks_Phase_8,310,1,48,20,1249203004
85,11,22,Ticks_Phase_8,311,5,42,127,1249245728
85,11,22,Ticks_Phase_8,312,1,48,33,1250038668
85,11,22,Ticks_Phase_8,313,5,42,127,1250046188
85,11,22,Ticks_Phase_8,314,1,48,22,1250828572
85,11,22,Ticks_Phase_8,315,5,42,127,1250846048
85,11,22,Ticks_Phase_8,316,1,48,28,1251604696
85,11,22,Ticks_Phase_8,317,5,42,127,1251645980
85,11,22,Ticks_Phase_8,318,1,48,23,1252442292
85,11,22,Ticks_Phase_8,319,5,42,127,1252445844
85,11,22,Ticks_Phase_8,320,5,42,127,1253246312
85,11,22,Ticks_Phase_8,321,1,48,24,1253315508
85,11,22,Ticks_Phase_8,322,1,48,24,1254036884
85,11,22,Ticks_Phase_8,323,5,42,127,1254046044
85,11,22,Ticks_Phase_8,324,1,48,26,1254801312
85,11,22,Ticks_Phase_8,325,5,42,127,1254845760
85,11,22,Ticks_Phase_8,326,1,48,21,1255605308
85,11,22,Ticks_Phase_8,327,5,42,127,1255645840
85,11,22,Ticks_Phase_8,328,1,48,26,1256412272
85,11,22,Ticks_Phase_8,329,5,42,127,1256446528
85,11,22,Ticks_Phase_8,330,1,48,18,1257193108
85,11,22,Ticks_Phase_8,331,5,42,127,1257246016
85,11,22,Ticks_Phase_8,332,1,48,32,1258029152
85,11,22,Ticks_Phase_8,333,5,42,127,1258045880
85,11,22,Ticks_Phase_8,334,1,48,18,1258806476
85,11,22,Ticks_Phase_8,335,5,42,127,1258845740
85,11,22,Ticks_Phase_8,336,1,48,31,1259610896
85,11,22,Ticks_Phase_8,337,5,42,127,1259646348
85,11,22,Ticks_Phase_8,0,9999,9999,9999,1124443260
85,11,22,Ticks_Phase_8,1,9999,9999,9999,1125243964
85,11,22,Ticks_Phase_8,2,9999,9999,9999,1126043720
85,11,22,Ticks_Phase_8,3,9999,9999,9999,1126843508
85,11,22,Ticks_Phase_8,4,9999,9999,9999,1127643216
85,11,22,Ticks_Phase_8,5,9999,9999,9999,1128443980
85,11,22,Ticks_Phase_8,6,9999,9999,9999,1129243764
85,11,22,Ticks_Phase_8,7,9999,9999,9999,1130043472
85,11,22,Ticks_Phase_8,8,9999,9999,9999,1130843256
85,11,22,Ticks_Phase_8,9,9999,9999,9999,1131644020
85,11,22,Ticks_Phase_8,10,9999,9999,9999,1132443756
85,11,22,Ticks_Phase_8,11,9999,9999,9999,1133243460
85,11,22,Ticks_Phase_8,12,9999,9999,9999,1134043252
85,11,22,Ticks_Phase_8,13,9999,9999,9999,1134844012
85,11,22,Ticks_Phase_8,14,9999,9999,9999,1135643724
85,11,22,Ticks_Phase_8,15,9999,9999,9999,1136443504
85,11,22,Ticks_Phase_8,16,9999,9999,9999,1137243224
85,11,22,Ticks_Phase_8,17,9999,9999,9999,1138043980
85,11,22,Ticks_Phase_8,18,9999,9999,9999,1138843716
85,11,22,Ticks_Phase_8,19,9999,9999,9999,1139643500
85,11,22,Ticks_Phase_8,20,9999,9999,9999,1140443220
85,11,22,Ticks_Phase_8,21,9999,9999,9999,1141243976
85,11,22,Ticks_Phase_8,22,9999,9999,9999,1142043756
85,11,22,Ticks_Phase_8,23,9999,9999,9999,1142843468
85,11,22,Ticks_Phase_8,24,9999,9999,9999,1143643240
85,11,22,Ticks_Phase_8,25,9999,9999,9999,1144444012
85,11,22,Ticks_Phase_8,26,9999,9999,9999,1145243748
85,11,22,Ticks_Phase_8,27,9999,9999,9999,1146043468
85,11,22,Ticks_Phase_8,28,9999,9999,9999,1146843252
85,11,22,Ticks_Phase_8,29,9999,9999,9999,1147644004
85,11,22,Ticks_Phase_8,30,9999,9999,9999,1148423276
85,11,22,Ticks_Phase_8,31,9999,9999,9999,1149224036
85,11,22,Ticks_Phase_8,32,9999,9999,9999,1150023752
85,11,22,Ticks_Phase_8,33,9999,9999,9999,1150823532
85,11,22,Ticks_Phase_8,34,9999,9999,9999,1151623244
85,11,22,Ticks_Phase_8,35,9999,9999,9999,1152424028
85,11,22,Ticks_Phase_8,36,9999,9999,9999,1153223744
85,11,22,Ticks_Phase_8,37,9999,9999,9999,1154023532
85,11,22,Ticks_Phase_8,38,9999,9999,9999,1154823236
85,11,22,Ticks_Phase_8,39,9999,9999,9999,1155623992
85,11,22,Ticks_Phase_8,40,9999,9999,9999,1156423780
85,11,22,Ticks_Phase_8,41,9999,9999,9999,1157223496
85,11,22,Ticks_Phase_8,42,9999,9999,9999,1158023284
85,11,22,Ticks_Phase_8,43,9999,9999,9999,1158823992
85,11,22,Ticks_Phase_8,44,9999,9999,9999,1159623772
85,11,22,Ticks_Phase_8,45,9999,9999,9999,1160423484
85,11,22,Ticks_Phase_8,46,9999,9999,9999,1161223272
85,11,22,Ticks_Phase_8,47,9999,9999,9999,1162024036
85,11,22,Ticks_Phase_8,48,9999,9999,9999,1162843216
85,11,22,Ticks_Phase_8,49,9999,9999,9999,1163643980
85,11,22,Ticks_Phase_8,50,9999,9999,9999,1164443708
85,11,22,Ticks_Phase_8,51,9999,9999,9999,1165243496
85,11,22,Ticks_Phase_8,52,9999,9999,9999,1166043208
85,11,22,Ticks_Phase_8,53,9999,9999,9999,1166843968
85,11,22,Ticks_Phase_8,54,9999,9999,9999,1167643752
85,11,22,Ticks_Phase_8,55,9999,9999,9999,1168443468
85,11,22,Ticks_Phase_8,56,9999,9999,9999,1169243240
85,11,22,Ticks_Phase_8,57,9999,9999,9999,1170044012
85,11,22,Ticks_Phase_8,58,9999,9999,9999,1170843748
85,11,22,Ticks_Phase_8,59,9999,9999,9999,1171643460
85,11,22,Ticks_Phase_8,60,9999,9999,9999,1172443252
85,11,22,Ticks_Phase_8,61,9999,9999,9999,1173244004
85,11,22,Ticks_Phase_8,62,9999,9999,9999,1174043724
85,11,22,Ticks_Phase_8,63,9999,9999,9999,1174843512
85,11,22,Ticks_Phase_8,64,9999,9999,9999,1175683140
85,11,22,Ticks_Phase_8,65,9999,9999,9999,1176483916
85,11,22,Ticks_Phase_8,66,9999,9999,9999,1177283704
85,11,22,Ticks_Phase_8,67,9999,9999,9999,1178083412
85,11,22,Ticks_Phase_8,68,9999,9999,9999,1178883196
85,11,22,Ticks_Phase_8,69,9999,9999,9999,1179683952
85,11,22,Ticks_Phase_8,70,9999,9999,9999,1180483664
85,11,22,Ticks_Phase_8,71,9999,9999,9999,1181283452
85,11,22,Ticks_Phase_8,72,9999,9999,9999,1182083164
85,11,22,Ticks_Phase_8,73,9999,9999,9999,1182883956
85,11,22,Ticks_Phase_8,74,9999,9999,9999,1183683668
85,11,22,Ticks_Phase_8,75,9999,9999,9999,1184483448
85,11,22,Ticks_Phase_8,76,9999,9999,9999,1185283164
85,11,22,Ticks_Phase_8,77,9999,9999,9999,1186083916
85,11,22,Ticks_Phase_8,78,9999,9999,9999,1186883708
85,11,22,Ticks_Phase_8,79,9999,9999,9999,1187683412
85,11,22,Ticks_Phase_8,80,9999,9999,9999,1188483132
85,11,22,Ticks_Phase_8,81,9999,9999,9999,1189243976
85,11,22,Ticks_Phase_8,82,9999,9999,9999,1190043716
85,11,22,Ticks_Phase_8,83,9999,9999,9999,1190843496
85,11,22,Ticks_Phase_8,84,9999,9999,9999,1191643208
85,11,22,Ticks_Phase_8,85,9999,9999,9999,1192443964
85,11,22,Ticks_Phase_8,86,9999,9999,9999,1193243756
85,11,22,Ticks_Phase_8,87,9999,9999,9999,1194043472
85,11,22,Ticks_Phase_8,88,9999,9999,9999,1194843256
85,11,22,Ticks_Phase_8,89,9999,9999,9999,1195644008
85,11,22,Ticks_Phase_8,90,9999,9999,9999,1196443744
85,11,22,Ticks_Phase_8,91,9999,9999,9999,1197243456
85,11,22,Ticks_Phase_8,92,9999,9999,9999,1198043244
85,11,22,Ticks_Phase_8,93,9999,9999,9999,1198844004
85,11,22,Ticks_Phase_8,94,9999,9999,9999,1199643712
85,11,22,Ticks_Phase_8,95,9999,9999,9999,1200443484
85,11,22,Ticks_Phase_8,96,9999,9999,9999,1201243212
85,11,22,Ticks_Phase_8,97,9999,9999,9999,1201963100
85,11,22,Ticks_Phase_8,98,9999,9999,9999,1202763852
85,11,22,Ticks_Phase_8,99,9999,9999,9999,1203563624
85,11,22,Ticks_Phase_8,100,9999,9999,9999,1204363360
85,11,22,Ticks_Phase_8,101,9999,9999,9999,1205163088
85,11,22,Ticks_Phase_8,102,9999,9999,9999,1205963844
85,11,22,Ticks_Phase_8,103,9999,9999,9999,1206763628
85,11,22,Ticks_Phase_8,104,9999,9999,9999,1207563340
85,11,22,Ticks_Phase_8,105,9999,9999,9999,1208363128
85,11,22,Ticks_Phase_8,106,9999,9999,9999,1209163884
85,11,22,Ticks_Phase_8,107,9999,9999,9999,1209963596
85,11,22,Ticks_Phase_8,108,9999,9999,9999,1210763332
85,11,22,Ticks_Phase_8,109,9999,9999,9999,1211563120
85,11,22,Ticks_Phase_8,110,9999,9999,9999,1212363880
85,11,22,Ticks_Phase_8,111,9999,9999,9999,1213163596
85,11,22,Ticks_Phase_8,112,9999,9999,9999,1213963376
85,11,22,Ticks_Phase_8,113,9999,9999,9999,1214763096
85,11,22,Ticks_Phase_8,114,9999,9999,9999,1215643704
85,11,22,Ticks_Phase_8,115,9999,9999,9999,1216443492
85,11,22,Ticks_Phase_8,116,9999,9999,9999,1217243204
85,11,22,Ticks_Phase_8,117,9999,9999,9999,1218043964
85,11,22,Ticks_Phase_8,118,9999,9999,9999,1218843756
85,11,22,Ticks_Phase_8,119,9999,9999,9999,1219643464
85,11,22,Ticks_Phase_8,120,9999,9999,9999,1220443256
85,11,22,Ticks_Phase_8,121,9999,9999,9999,1221244016
85,11,22,Ticks_Phase_8,122,9999,9999,9999,1222043752
85,11,22,Ticks_Phase_8,123,9999,9999,9999,1222843464
85,11,22,Ticks_Phase_8,124,9999,9999,9999,1223643252
85,11,22,Ticks_Phase_8,125,9999,9999,9999,1224444004
85,11,22,Ticks_Phase_8,126,9999,9999,9999,1225243716
85,11,22,Ticks_Phase_8,127,9999,9999,9999,1226043500
85,11,22,Ticks_Phase_8,128,9999,9999,9999,1226843212
85,11,22,Ticks_Phase_8,129,9999,9999,9999,1227643968
85,11,22,Ticks_Phase_8,130,9999,9999,9999,1228443708
85,11,22,Ticks_Phase_8,131,9999,9999,9999,1229403212
85,11,22,Ticks_Phase_8,132,9999,9999,9999,1230203988
85,11,22,Ticks_Phase_8,133,9999,9999,9999,1231003732
85,11,22,Ticks_Phase_8,134,9999,9999,9999,1231803516
85,11,22,Ticks_Phase_8,135,9999,9999,9999,1232603228
85,11,22,Ticks_Phase_8,136,9999,9999,9999,1233403984
85,11,22,Ticks_Phase_8,137,9999,9999,9999,1234203764
85,11,22,Ticks_Phase_8,138,9999,9999,9999,1235003484
85,11,22,Ticks_Phase_8,139,9999,9999,9999,1235803196
85,11,22,Ticks_Phase_8,140,9999,9999,9999,1236604024
85,11,22,Ticks_Phase_8,141,9999,9999,9999,1237403768
85,11,22,Ticks_Phase_8,142,9999,9999,9999,1238203472
85,11,22,Ticks_Phase_8,143,9999,9999,9999,1239003260
85,11,22,Ticks_Phase_8,144,9999,9999,9999,1239804016
85,11,22,Ticks_Phase_8,145,9999,9999,9999,1240603732
85,11,22,Ticks_Phase_8,146,9999,9999,9999,1241403516
85,11,22,Ticks_Phase_8,147,9999,9999,9999,1242203228
85,11,22,Ticks_Phase_8,148,9999,9999,9999,1243003988
85,11,22,Ticks_Phase_8,149,9999,9999,9999,1243803728
85,11,22,Ticks_Phase_8,150,9999,9999,9999,1244443756
85,11,22,Ticks_Phase_8,151,9999,9999,9999,1245243464
85,11,22,Ticks_Phase_8,152,9999,9999,9999,1246043256
85,11,22,Ticks_Phase_8,153,9999,9999,9999,1246844012
85,11,22,Ticks_Phase_8,154,9999,9999,9999,1247643720
85,11,22,Ticks_Phase_8,155,9999,9999,9999,1248443504
85,11,22,Ticks_Phase_8,156,9999,9999,9999,1249243216
85,11,22,Ticks_Phase_8,157,9999,9999,9999,1250043976
85,11,22,Ticks_Phase_8,158,9999,9999,9999,1250843760
85,11,22,Ticks_Phase_8,159,9999,9999,9999,1251643472
85,11,22,Ticks_Phase_8,160,9999,9999,9999,1252443260
85,11,22,Ticks_Phase_8,161,9999,9999,9999,1253244024
85,11,22,Ticks_Phase_8,162,9999,9999,9999,1254043756
85,11,22,Ticks_Phase_8,163,9999,9999,9999,1254843472
85,11,22,Ticks_Phase_8,164,9999,9999,9999,1255643256
85,11,22,Ticks_Phase_8,165,9999,9999,9999,1256444016
85,11,22,Ticks_Phase_8,166,9999,9999,9999,1257243728
85,11,22,Ticks_Phase_8,167,9999,9999,9999,1258043516
85,11,22,Ticks_Phase_8,168,9999,9999,9999,1258843232
85,11,22,Ticks_Phase_8,169,9999,9999,9999,1259643988
85,12,25,Jits_Pract_5,0,5,56,103,1308543372
85,12,25,Jits_Pract_5,1,5,63,98,1308546420
85,12,25,Jits_Pract_5,2,5,80,127,1308549544
85,12,25,Jits_Pract_5,0,5,56,103,1309043024
85,12,25,Jits_Pract_5,1,5,63,98,1309046196
85,12,25,Jits_Pract_5,2,5,80,127,1309049320
85,12,25,Jits_Pract_5,0,5,56,103,1309542916
85,12,25,Jits_Pract_5,1,5,80,127,1309552964
85,12,25,Jits_Pract_5,2,5,63,98,1309572400
85,12,25,Jits_Pract_5,0,5,63,98,1309993288
85,12,25,Jits_Pract_5,1,5,80,127,1310022892
85,12,25,Jits_Pract_5,2,5,56,103,1310033384
85,12,25,Jits_Pract_5,0,5,80,127,1310552356
85,12,25,Jits_Pract_5,1,5,56,103,1310563000
85,12,25,Jits_Pract_5,2,5,63,98,1310593376
85,12,25,Jits_Pract_5,0,5,63,98,1311042892
85,12,25,Jits_Pract_5,1,5,56,103,1311072716
85,12,25,Jits_Pract_5,2,5,80,127,1311082840
85,12,25,Jits_Pract_5,0,5,56,103,1311492424
85,12,25,Jits_Pract_5,1,5,63,98,1311542852
85,12,25,Jits_Pract_5,2,5,80,127,1311563012
85,12,25,Jits_Pract_5,0,5,80,127,1311993140
85,12,25,Jits_Pract_5,1,5,63,98,1312043268
85,12,25,Jits_Pract_5,2,5,56,103,1312083280
85,12,25,Jits_Pract_5,0,5,56,103,1312493032
85,12,25,Jits_Pract_5,1,5,63,98,1312522708
85,12,25,Jits_Pract_5,2,5,80,127,1312593208
85,12,25,Jits_Pract_5,0,5,56,103,1312992844
85,12,25,Jits_Pract_5,1,5,80,127,1313052940
85,12,25,Jits_Pract_5,2,5,63,98,1313082912
85,12,25,Jits_Pract_5,0,5,56,103,1313502924
85,12,25,Jits_Pract_5,1,5,63,98,1313512676
85,12,25,Jits_Pract_5,2,5,80,127,1313552912
85,12,25,Jits_Pract_5,0,5,63,98,1313993076
85,12,25,Jits_Pract_5,1,5,80,127,1314072948
85,12,25,Jits_Pract_5,2,5,56,103,1314083220
85,12,25,Jits_Pract_5,0,5,63,98,1314543004
85,12,25,Jits_Pract_5,1,5,56,103,1314582788
85,12,25,Jits_Pract_5,2,5,80,127,1314585936
85,12,25,Jits_Pract_5,0,5,56,103,1315002944
85,12,25,Jits_Pract_5,1,5,63,98,1315012920
85,12,25,Jits_Pract_5,2,5,80,127,1315052856
85,12,25,Jits_Pract_5,0,5,56,103,1315493088
85,12,25,Jits_Pract_5,1,5,63,98,1315496160
85,12,25,Jits_Pract_5,2,5,80,127,1315512804
85,12,25,Jits_Pract_5,0,9999,9999,9999,1308790880
85,12,25,Jits_Pract_5,1,9999,9999,9999,1309290612
85,12,25,Jits_Pract_5,2,9999,9999,9999,1309790284
85,12,25,Jits_Pract_5,3,9999,9999,9999,1310290996
85,12,25,Jits_Pract_5,4,9999,9999,9999,1310790732
85,12,25,Jits_Pract_5,5,9999,9999,9999,1311290484
85,12,25,Jits_Pract_5,6,9999,9999,9999,1311790136
85,12,25,Jits_Pract_5,7,9999,9999,9999,1312290924
85,12,25,Jits_Pract_5,8,9999,9999,9999,1312790592
85,12,25,Jits_Pract_5,9,9999,9999,9999,1313290332
85,12,25,Jits_Pract_5,10,9999,9999,9999,1313791044
85,12,25,Jits_Pract_5,11,9999,9999,9999,1314290788
85,12,25,Jits_Pract_5,12,9999,9999,9999,1314790516
85,12,25,Jits_Pract_5,13,9999,9999,9999,1315290168
85,12,25,Jits_Pract_5,14,9999,9999,9999,1315790940
85,13,25,Jits_Pract_5,0,5,56,103,1371550028
85,13,25,Jits_Pract_5,1,5,63,98,1371553424
85,13,25,Jits_Pract_5,2,5,80,127,1371556468
85,13,25,Jits_Pract_5,0,5,56,103,1372049752
85,13,25,Jits_Pract_5,1,5,63,98,1372052924
85,13,25,Jits_Pract_5,2,5,80,127,1372056048
85,13,25,Jits_Pract_5,0,1,48,30,1372536992
85,13,25,Jits_Pract_5,1,5,56,103,1372549564
85,13,25,Jits_Pract_5,2,5,80,127,1372559760
85,13,25,Jits_Pract_5,3,5,63,98,1372580292
85,13,25,Jits_Pract_5,0,5,63,98,1373000012
85,13,25,Jits_Pract_5,1,5,80,127,1373029836
85,13,25,Jits_Pract_5,2,5,56,103,1373039960
85,13,25,Jits_Pract_5,3,1,48,21,1373048404
85,13,25,Jits_Pract_5,0,1,48,23,1373501616
85,13,25,Jits_Pract_5,1,5,80,127,1373560228
85,13,25,Jits_Pract_5,2,5,56,103,1373570748
85,13,25,Jits_Pract_5,3,5,63,98,1373600184
85,13,25,Jits_Pract_5,0,5,63,98,1374049816
85,13,25,Jits_Pract_5,1,1,48,27,1374053832
85,13,25,Jits_Pract_5,2,5,56,103,1374080484
85,13,25,Jits_Pract_5,3,5,80,127,1374089780
85,13,25,Jits_Pract_5,0,5,56,103,1374500136
85,13,25,Jits_Pract_5,1,5,63,98,1374550340
85,13,25,Jits_Pract_5,2,5,80,127,1374569748
85,13,25,Jits_Pract_5,3,1,48,24,1374582908
85,13,25,Jits_Pract_5,0,5,80,127,1374999988
85,13,25,Jits_Pract_5,1,5,63,98,1375050192
85,13,25,Jits_Pract_5,2,1,48,25,1375061552
85,13,25,Jits_Pract_5,3,5,56,103,1375089972
85,13,25,Jits_Pract_5,0,5,56,103,1375499620
85,13,25,Jits_Pract_5,1,5,63,98,1375530492
85,13,25,Jits_Pract_5,2,1,48,26,1375547708
85,13,25,Jits_Pract_5,3,5,80,127,1375599944
85,13,25,Jits_Pract_5,0,5,56,103,1376000300
85,13,25,Jits_Pract_5,1,1,48,24,1376048676
85,13,25,Jits_Pract_5,2,5,80,127,1376059636
85,13,25,Jits_Pract_5,3,5,63,98,1376089460
85,13,25,Jits_Pract_5,0,5,56,103,1376510416
85,13,25,Jits_Pract_5,1,5,63,98,1376519640
85,13,25,Jits_Pract_5,2,1,48,25,1376544332
85,13,25,Jits_Pract_5,3,5,80,127,1376559644
85,13,25,Jits_Pract_5,0,5,63,98,1376999780
85,13,25,Jits_Pract_5,1,1,48,21,1377021924
85,13,25,Jits_Pract_5,2,5,80,127,1377079716
85,13,25,Jits_Pract_5,3,5,56,103,1377089840
85,13,25,Jits_Pract_5,0,5,63,98,1377549744
85,13,25,Jits_Pract_5,1,1,48,25,1377551756
85,13,25,Jits_Pract_5,2,5,56,103,1377589600
85,13,25,Jits_Pract_5,3,5,80,127,1377592664
85,13,25,Jits_Pract_5,0,5,56,103,1378009568
85,13,25,Jits_Pract_5,1,5,63,98,1378019840
85,13,25,Jits_Pract_5,2,1,48,34,1378032396
85,13,25,Jits_Pract_5,3,5,80,127,1378059696
85,13,25,Jits_Pract_5,0,5,56,103,1378499904
85,13,25,Jits_Pract_5,1,1,48,23,1378501716
85,13,25,Jits_Pract_5,2,5,63,98,1378504160
85,13,25,Jits_Pract_5,3,5,80,127,1378520504
85,13,25,Jits_Pract_5,0,9999,9999,9999,1371797612
85,13,25,Jits_Pract_5,1,9999,9999,9999,1372297336
85,13,25,Jits_Pract_5,2,9999,9999,9999,1372798036
85,13,25,Jits_Pract_5,3,9999,9999,9999,1373297772
85,13,25,Jits_Pract_5,4,9999,9999,9999,1373797468
85,13,25,Jits_Pract_5,5,9999,9999,9999,1374297164
85,13,25,Jits_Pract_5,6,9999,9999,9999,1374797896
85,13,25,Jits_Pract_5,7,9999,9999,9999,1375297604
85,13,25,Jits_Pract_5,8,9999,9999,9999,1375797308
85,13,25,Jits_Pract_5,9,9999,9999,9999,1376298060
85,13,25,Jits_Pract_5,10,9999,9999,9999,1376797764
85,13,25,Jits_Pract_5,11,9999,9999,9999,1377297468
85,13,25,Jits_Pract_5,12,9999,9999,9999,1377797228
85,13,25,Jits_Pract_5,13,9999,9999,9999,1378297964
85,13,25,Jits_Pract_5,14,9999,9999,9999,1378797656
85,14,24,Jits_Pract_8,0,5,56,103,1388251420
85,14,24,Jits_Pract_8,1,5,63,98,1388254520
85,14,24,Jits_Pract_8,2,5,80,127,1388257716
85,14,24,Jits_Pract_8,0,5,56,103,1389052408
85,14,24,Jits_Pract_8,1,5,63,98,1389055356
85,14,24,Jits_Pract_8,2,5,80,127,1389058552
85,14,24,Jits_Pract_8,0,5,80,127,1389791528
85,14,24,Jits_Pract_8,1,1,48,30,1389860060
85,14,24,Jits_Pract_8,2,5,63,98,1389881584
85,14,24,Jits_Pract_8,3,5,56,103,1389892076
85,14,24,Jits_Pract_8,0,5,56,103,1390611676
85,14,24,Jits_Pract_8,1,5,63,98,1390622172
85,14,24,Jits_Pract_8,2,1,48,31,1390660884
85,14,24,Jits_Pract_8,3,5,80,127,1390712368
85,14,24,Jits_Pract_8,0,5,63,98,1391381776
85,14,24,Jits_Pract_8,1,5,80,127,1391411452
85,14,24,Jits_Pract_8,2,1,48,27,1391436740
85,14,24,Jits_Pract_8,3,5,56,103,1391442464
85,14,24,Jits_Pract_8,0,5,56,103,1392181528
85,14,24,Jits_Pract_8,1,1,48,21,1392198124
85,14,24,Jits_Pract_8,2,5,80,127,1392282016
85,14,24,Jits_Pract_8,3,5,63,98,1392332424
85,14,24,Jits_Pract_8,0,5,56,103,1392982272
85,14,24,Jits_Pract_8,1,1,48,29,1393019320
85,14,24,Jits_Pract_8,2,5,80,127,1393031496
85,14,24,Jits_Pract_8,3,5,63,98,1393071504
85,14,24,Jits_Pract_8,0,1,48,30,1393777252
85,14,24,Jits_Pract_8,1,5,80,127,1393811700
85,14,24,Jits_Pract_8,2,5,63,98,1393841376
85,14,24,Jits_Pract_8,3,5,56,103,1393912456
85,14,24,Jits_Pract_8,0,1,48,28,1394612028
85,14,24,Jits_Pract_8,1,5,63,98,1394642616
85,14,24,Jits_Pract_8,2,5,56,103,1394672068
85,14,24,Jits_Pract_8,3,5,80,127,1394732368
85,14,24,Jits_Pract_8,0,5,56,103,1395381548
85,14,24,Jits_Pract_8,1,5,80,127,1395384688
85,14,24,Jits_Pract_8,2,1,48,24,1395427888
85,14,24,Jits_Pract_8,3,5,63,98,1395501412
85,14,24,Jits_Pract_8,0,1,48,24,1396194156
85,14,24,Jits_Pract_8,1,5,56,103,1396262436
85,14,24,Jits_Pract_8,2,5,80,127,1396302136
85,14,24,Jits_Pract_8,3,5,63,98,1396312408
85,14,24,Jits_Pract_8,0,1,48,22,1397000816
85,14,24,Jits_Pract_8,1,5,56,103,1397022340
85,14,24,Jits_Pract_8,2,5,80,127,1397041380
85,14,24,Jits_Pract_8,3,5,63,98,1397122528
85,14,24,Jits_Pract_8,0,1,48,22,1397787680
85,14,24,Jits_Pract_8,1,5,80,127,1397811532
85,14,24,Jits_Pract_8,2,5,56,103,1397911868
85,14,24,Jits_Pract_8,3,5,63,98,1397922360
85,14,24,Jits_Pract_8,0,5,63,98,1398581556
85,14,24,Jits_Pract_8,1,1,48,25,1398626328
85,14,24,Jits_Pract_8,2,5,80,127,1398642236
85,14,24,Jits_Pract_8,3,5,56,103,1398652532
85,14,24,Jits_Pract_8,0,5,56,103,1399382504
85,14,24,Jits_Pract_8,1,1,48,25,1399407348
85,14,24,Jits_Pract_8,2,5,63,98,1399452052
85,14,24,Jits_Pract_8,3,5,80,127,1399455344
85,14,24,Jits_Pract_8,0,9999,9999,9999,1388649576
85,14,24,Jits_Pract_8,1,9999,9999,9999,1389449316
85,14,24,Jits_Pract_8,2,9999,9999,9999,1390250076
85,14,24,Jits_Pract_8,3,9999,9999,9999,1391049844
85,14,24,Jits_Pract_8,4,9999,9999,9999,1391849536
85,14,24,Jits_Pract_8,5,9999,9999,9999,1392649292
85,14,24,Jits_Pract_8,6,9999,9999,9999,1393450080
85,14,24,Jits_Pract_8,7,9999,9999,9999,1394249848
85,14,24,Jits_Pract_8,8,9999,9999,9999,1395049536
85,14,24,Jits_Pract_8,9,9999,9999,9999,1395849300
85,14,24,Jits_Pract_8,10,9999,9999,9999,1396650048
85,14,24,Jits_Pract_8,11,9999,9999,9999,1397449808
85,14,24,Jits_Pract_8,12,9999,9999,9999,1398249564
85,14,24,Jits_Pract_8,13,9999,9999,9999,1399049320
85,14,24,Jits_Pract_8,14,9999,9999,9999,1399850108
85,15,19,Jits_Linear_5,0,5,56,103,1430944084
85,15,19,Jits_Linear_5,1,5,63,98,1430947104
85,15,19,Jits_Linear_5,2,5,80,127,1430950304
85,15,19,Jits_Linear_5,0,5,56,103,1431424544
85,15,19,Jits_Linear_5,1,5,63,98,1431427492
85,15,19,Jits_Linear_5,2,5,80,127,1431430836
85,15,19,Jits_Linear_5,0,1,48,33,1431880456
85,15,19,Jits_Linear_5,1,5,56,103,1431903572
85,15,19,Jits_Linear_5,2,5,80,127,1431913768
85,15,19,Jits_Linear_5,3,5,63,98,1431934252
85,15,19,Jits_Linear_5,0,5,63,98,1432333660
85,15,19,Jits_Linear_5,1,1,48,29,1432352740
85,15,19,Jits_Linear_5,2,5,80,127,1432364528
85,15,19,Jits_Linear_5,3,5,56,103,1432373828
85,15,19,Jits_Linear_5,0,1,48,20,1432798616
85,15,19,Jits_Linear_5,1,5,80,127,1432874324
85,15,19,Jits_Linear_5,2,5,56,103,1432883772
85,15,19,Jits_Linear_5,3,5,63,98,1432914180
85,15,19,Jits_Linear_5,0,5,63,98,1433353648
85,15,19,Jits_Linear_5,1,1,48,25,1433368604
85,15,19,Jits_Linear_5,2,5,56,103,1433384292
85,15,19,Jits_Linear_5,3,5,80,127,1433393664
85,15,19,Jits_Linear_5,0,5,56,103,1433793852
85,15,19,Jits_Linear_5,1,1,48,22,1433835184
85,15,19,Jits_Linear_5,2,5,63,98,1433844128
85,15,19,Jits_Linear_5,3,5,80,127,1433863612
85,15,19,Jits_Linear_5,0,5,80,127,1434284564
85,15,19,Jits_Linear_5,1,1,48,27,1434296072
85,15,19,Jits_Linear_5,2,5,63,98,1434333712
85,15,19,Jits_Linear_5,3,5,56,103,1434373728
85,15,19,Jits_Linear_5,0,5,56,103,1434773852
85,15,19,Jits_Linear_5,1,5,63,98,1434803604
85,15,19,Jits_Linear_5,2,1,48,24,1434806500
85,15,19,Jits_Linear_5,3,5,80,127,1434874104
85,15,19,Jits_Linear_5,0,5,56,103,1435264488
85,15,19,Jits_Linear_5,1,1,48,25,1435292564
85,15,19,Jits_Linear_5,2,5,80,127,1435323756
85,15,19,Jits_Linear_5,3,5,63,98,1435353580
85,15,19,Jits_Linear_5,0,5,56,103,1435764020
85,15,19,Jits_Linear_5,1,5,63,98,1435774612
85,15,19,Jits_Linear_5,2,1,48,21,1435802692
85,15,19,Jits_Linear_5,3,5,80,127,1435814172
85,15,19,Jits_Linear_5,0,5,63,98,1436253752
85,15,19,Jits_Linear_5,1,1,48,22,1436258368
85,15,19,Jits_Linear_5,2,5,80,127,1436333496
85,15,19,Jits_Linear_5,3,5,56,103,1436343544
85,15,19,Jits_Linear_5,0,1,48,21,1436803064
85,15,19,Jits_Linear_5,1,5,63,98,1436804484
85,15,19,Jits_Linear_5,2,5,56,103,1436844648
85,15,19,Jits_Linear_5,3,5,80,127,1436847712
85,15,19,Jits_Linear_5,0,5,56,103,1437264432
85,15,19,Jits_Linear_5,1,5,63,98,1437273436
85,15,19,Jits_Linear_5,2,1,48,23,1437295960
85,15,19,Jits_Linear_5,3,5,80,127,1437314364
85,15,19,Jits_Linear_5,0,1,48,21,1437737640
85,15,19,Jits_Linear_5,1,5,56,103,1437753704
85,15,19,Jits_Linear_5,2,5,63,98,1437756696
85,15,19,Jits_Linear_5,3,5,80,127,1437774092
85,15,19,Jits_Linear_5,0,1,48,23,1438228168
85,15,19,Jits_Linear_5,1,5,80,127,1438274056
85,15,19,Jits_Linear_5,2,5,56,103,1438284104
85,15,19,Jits_Linear_5,3,5,63,98,1438353724
85,15,19,Jits_Linear_5,0,5,63,98,1438773824
85,15,19,Jits_Linear_5,1,1,48,26,1438789676
85,15,19,Jits_Linear_5,2,5,56,103,1438793980
85,15,19,Jits_Linear_5,3,5,80,127,1438874100
85,15,19,Jits_Linear_5,0,1,48,24,1439280956
85,15,19,Jits_Linear_5,1,5,56,103,1439293884
85,15,19,Jits_Linear_5,2,5,80,127,1439333676
85,15,19,Jits_Linear_5,3,5,63,98,1439343948
85,15,19,Jits_Linear_5,0,1,48,23,1439780272
85,15,19,Jits_Linear_5,1,5,80,127,1439793496
85,15,19,Jits_Linear_5,2,5,63,98,1439824220
85,15,19,Jits_Linear_5,3,5,56,103,1439864236
85,15,19,Jits_Linear_5,0,1,48,24,1440277264
85,15,19,Jits_Linear_5,1,5,56,103,1440323824
85,15,19,Jits_Linear_5,2,5,63,98,1440353652
85,15,19,Jits_Linear_5,3,5,80,127,1440403792
85,15,19,Jits_Linear_5,0,1,48,23,1440801592
85,15,19,Jits_Linear_5,1,5,80,127,1440833852
85,15,19,Jits_Linear_5,2,5,56,103,1440873944
85,15,19,Jits_Linear_5,3,5,63,98,1440884140
85,15,19,Jits_Linear_5,0,1,48,23,1441290424
85,15,19,Jits_Linear_5,1,5,80,127,1441333688
85,15,19,Jits_Linear_5,2,5,63,98,1441373632
85,15,19,Jits_Linear_5,3,5,56,103,1441434104
85,15,19,Jits_Linear_5,0,5,56,103,1441853760
85,15,19,Jits_Linear_5,1,5,80,127,1441864256
85,15,19,Jits_Linear_5,2,1,48,24,1441873152
85,15,19,Jits_Linear_5,3,5,63,98,1441943996
85,15,19,Jits_Linear_5,0,1,48,23,1442363540
85,15,19,Jits_Linear_5,1,5,80,127,1442374048
85,15,19,Jits_Linear_5,2,5,63,98,1442434468
85,15,19,Jits_Linear_5,3,5,56,103,1442464056
85,15,19,Jits_Linear_5,0,1,48,24,1442876176
85,15,19,Jits_Linear_5,1,5,56,103,1442894188
85,15,19,Jits_Linear_5,2,5,80,127,1442953636
85,15,19,Jits_Linear_5,3,5,63,98,1442993560
85,15,19,Jits_Linear_5,0,1,48,21,1443419244
85,15,19,Jits_Linear_5,1,5,56,103,1443473772
85,15,19,Jits_Linear_5,2,5,63,98,1443483968
85,15,19,Jits_Linear_5,3,5,80,127,1443487552
85,15,19,Jits_Linear_5,0,1,48,23,1443953344
85,15,19,Jits_Linear_5,1,5,80,127,1443954916
85,15,19,Jits_Linear_5,2,5,63,98,1444044032
85,15,19,Jits_Linear_5,3,5,56,103,1444054660
85,15,19,Jits_Linear_5,0,1,48,22,1444483616
85,15,19,Jits_Linear_5,1,5,56,103,1444485056
85,15,19,Jits_Linear_5,2,5,63,98,1444487908
85,15,19,Jits_Linear_5,3,5,80,127,1444490876
85,15,19,Jits_Linear_5,0,1,48,21,1444990668
85,15,19,Jits_Linear_5,1,5,80,127,1445034460
85,15,19,Jits_Linear_5,2,5,63,98,1445083616
85,15,19,Jits_Linear_5,3,5,56,103,1445114696
85,15,19,Jits_Linear_5,0,5,56,103,1445544568
85,15,19,Jits_Linear_5,1,5,80,127,1445553496
85,15,19,Jits_Linear_5,2,1,48,23,1445555056
85,15,19,Jits_Linear_5,3,5,63,98,1445624364
85,15,19,Jits_Linear_5,0,1,48,22,1446066784
85,15,19,Jits_Linear_5,1,5,56,103,1446083972
85,15,19,Jits_Linear_5,2,5,63,98,1446104580
85,15,19,Jits_Linear_5,3,5,80,127,1446163852
85,15,19,Jits_Linear_5,0,1,48,20,1446583484
85,15,19,Jits_Linear_5,1,5,80,127,1446614596
85,15,19,Jits_Linear_5,2,5,63,98,1446683972
85,15,19,Jits_Linear_5,3,5,56,103,1446703608
85,15,19,Jits_Linear_5,0,1,48,23,1447142212
85,15,19,Jits_Linear_5,1,5,80,127,1447173476
85,15,19,Jits_Linear_5,2,5,56,103,1447183676
85,15,19,Jits_Linear_5,3,5,63,98,1447194020
85,15,19,Jits_Linear_5,0,1,48,16,1447674332
85,15,19,Jits_Linear_5,1,5,80,127,1447703804
85,15,19,Jits_Linear_5,2,5,56,103,1447724340
85,15,19,Jits_Linear_5,3,5,63,98,1447794156
85,15,19,Jits_Linear_5,0,1,48,22,1448217844
85,15,19,Jits_Linear_5,1,5,56,103,1448253692
85,15,19,Jits_Linear_5,2,5,80,127,1448283664
85,15,19,Jits_Linear_5,3,5,63,98,1448303976
85,15,19,Jits_Linear_5,0,1,48,22,1448750416
85,15,19,Jits_Linear_5,1,5,63,98,1448793460
85,15,19,Jits_Linear_5,2,5,56,103,1448853792
85,15,19,Jits_Linear_5,3,5,80,127,1448883464
85,15,19,Jits_Linear_5,0,1,48,22,1449322644
85,15,19,Jits_Linear_5,1,5,63,98,1449334128
85,15,19,Jits_Linear_5,2,5,80,127,1449337588
85,15,19,Jits_Linear_5,3,5,56,103,1449424492
85,15,19,Jits_Linear_5,0,1,48,24,1449891256
85,15,19,Jits_Linear_5,1,5,56,103,1449903432
85,15,19,Jits_Linear_5,2,5,63,98,1449934380
85,15,19,Jits_Linear_5,3,5,80,127,1449974096
85,15,19,Jits_Linear_5,0,5,63,98,1450454372
85,15,19,Jits_Linear_5,1,1,48,19,1450469172
85,15,19,Jits_Linear_5,2,5,56,103,1450494528
85,15,19,Jits_Linear_5,3,5,80,127,1450513644
85,15,19,Jits_Linear_5,0,1,48,19,1451009092
85,15,19,Jits_Linear_5,1,5,63,98,1451013396
85,15,19,Jits_Linear_5,2,5,56,103,1451053408
85,15,19,Jits_Linear_5,3,5,80,127,1451063756
85,15,19,Jits_Linear_5,0,1,48,22,1451528628
85,15,19,Jits_Linear_5,1,5,80,127,1451554432
85,15,19,Jits_Linear_5,2,5,63,98,1451623896
85,15,19,Jits_Linear_5,3,5,56,103,1451644364
85,15,19,Jits_Linear_5,0,5,56,103,1452103952
85,15,19,Jits_Linear_5,1,5,80,127,1452123440
85,15,19,Jits_Linear_5,2,1,48,18,1452144540
85,15,19,Jits_Linear_5,3,5,63,98,1452163396
85,15,19,Jits_Linear_5,0,1,48,22,1452637548
85,15,19,Jits_Linear_5,1,5,63,98,1452674540
85,15,19,Jits_Linear_5,2,5,80,127,1452693732
85,15,19,Jits_Linear_5,3,5,56,103,1452733804
85,15,19,Jits_Linear_5,0,1,48,21,1453203272
85,15,19,Jits_Linear_5,1,5,63,98,1453233492
85,15,19,Jits_Linear_5,2,5,56,103,1453254324
85,15,19,Jits_Linear_5,3,5,80,127,1453264372
85,15,19,Jits_Linear_5,0,1,48,23,1453748500
85,15,19,Jits_Linear_5,1,5,80,127,1453793784
85,15,19,Jits_Linear_5,2,5,56,103,1453814396
85,15,19,Jits_Linear_5,3,5,63,98,1453844584
85,15,19,Jits_Linear_5,0,1,48,19,1454345592
85,15,19,Jits_Linear_5,1,5,56,103,1454433500
85,15,19,Jits_Linear_5,2,5,80,127,1454436572
85,15,19,Jits_Linear_5,3,5,63,98,1454454248
85,15,19,Jits_Linear_5,0,5,63,98,1454924252
85,15,19,Jits_Linear_5,1,5,56,103,1454953780
85,15,19,Jits_Linear_5,2,1,48,21,1454969576
85,15,19,Jits_Linear_5,3,5,80,127,1455014264
85,15,19,Jits_Linear_5,0,1,48,21,1455495256
85,15,19,Jits_Linear_5,1,5,63,98,1455574400
85,15,19,Jits_Linear_5,2,5,56,103,1455583628
85,15,19,Jits_Linear_5,3,5,80,127,1455593884
85,15,19,Jits_Linear_5,0,1,48,20,1456090764
85,15,19,Jits_Linear_5,1,5,56,103,1456093500
85,15,19,Jits_Linear_5,2,5,80,127,1456124448
85,15,19,Jits_Linear_5,3,5,63,98,1456133376
85,15,19,Jits_Linear_5,0,1,48,21,1456660208
85,15,19,Jits_Linear_5,1,5,63,98,1456704000
85,15,19,Jits_Linear_5,2,5,56,103,1456714196
85,15,19,Jits_Linear_5,3,5,80,127,1456733536
85,15,19,Jits_Linear_5,0,5,56,103,1457203596
85,15,19,Jits_Linear_5,1,1,48,19,1457247324
85,15,19,Jits_Linear_5,2,5,63,98,1457264204
85,15,19,Jits_Linear_5,3,5,80,127,1457267492
85,15,19,Jits_Linear_5,0,1,48,21,1457785168
85,15,19,Jits_Linear_5,1,5,80,127,1457803552
85,15,19,Jits_Linear_5,2,5,56,103,1457813824
85,15,19,Jits_Linear_5,3,5,63,98,1457883564
85,15,19,Jits_Linear_5,0,1,48,24,1458369960
85,15,19,Jits_Linear_5,1,5,80,127,1458374188
85,15,19,Jits_Linear_5,2,5,56,103,1458443724
85,15,19,Jits_Linear_5,3,5,63,98,1458453996
85,15,19,Jits_Linear_5,0,1,48,18,1458985112
85,15,19,Jits_Linear_5,1,5,63,98,1458993604
85,15,19,Jits_Linear_5,2,5,56,103,1459003948
85,15,19,Jits_Linear_5,3,5,80,127,1459024184
85,15,19,Jits_Linear_5,0,5,80,127,1459524164
85,15,19,Jits_Linear_5,1,1,48,20,1459531544
85,15,19,Jits_Linear_5,2,5,63,98,1459584352
85,15,19,Jits_Linear_5,3,5,56,103,1459624440
85,15,19,Jits_Linear_5,0,1,48,21,1460118104
85,15,19,Jits_Linear_5,1,5,56,103,1460153804
85,15,19,Jits_Linear_5,2,5,63,98,1460164148
85,15,19,Jits_Linear_5,3,5,80,127,1460203864
85,15,19,Jits_Linear_5,0,1,48,21,1460665148
85,15,19,Jits_Linear_5,1,5,56,103,1460703616
85,15,19,Jits_Linear_5,2,5,80,127,1460734340
85,15,19,Jits_Linear_5,3,5,63,98,1460783556
85,15,19,Jits_Linear_5,0,1,48,23,1461283440
85,15,19,Jits_Linear_5,1,5,56,103,1461334340
85,15,19,Jits_Linear_5,2,5,63,98,1461374452
85,15,19,Jits_Linear_5,3,5,80,127,1461377592
85,15,19,Jits_Linear_5,0,1,48,21,1461876540
85,15,19,Jits_Linear_5,1,5,56,103,1461924176
85,15,19,Jits_Linear_5,2,5,63,98,1461933400
85,15,19,Jits_Linear_5,3,5,80,127,1461953860
85,15,19,Jits_Linear_5,0,1,48,21,1462449376
85,15,19,Jits_Linear_5,1,5,56,103,1462484240
85,15,19,Jits_Linear_5,2,5,80,127,1462487460
85,15,19,Jits_Linear_5,3,5,63,98,1462524184
85,15,19,Jits_Linear_5,0,1,48,21,1463001280
85,15,19,Jits_Linear_5,1,5,63,98,1463114196
85,15,19,Jits_Linear_5,2,5,56,103,1463143724
85,15,19,Jits_Linear_5,3,5,80,127,1463164132
85,15,19,Jits_Linear_5,0,5,80,127,1463683384
85,15,19,Jits_Linear_5,1,1,48,21,1463684352
85,15,19,Jits_Linear_5,2,5,56,103,1463693724
85,15,19,Jits_Linear_5,3,5,63,98,1463704216
85,15,19,Jits_Linear_5,0,1,48,22,1464260428
85,15,19,Jits_Linear_5,1,5,56,103,1464293656
85,15,19,Jits_Linear_5,2,5,80,127,1464333600
85,15,19,Jits_Linear_5,3,5,63,98,1464364456
85,15,19,Jits_Linear_5,0,5,63,98,1464904164
85,15,19,Jits_Linear_5,1,5,80,127,1464914360
85,15,19,Jits_Linear_5,2,1,48,23,1464916444
85,15,19,Jits_Linear_5,3,5,56,103,1464923428
85,15,19,Jits_Linear_5,0,5,56,103,1465483588
85,15,19,Jits_Linear_5,1,1,48,16,1465512260
85,15,19,Jits_Linear_5,2,5,63,98,1465554388
85,15,19,Jits_Linear_5,3,5,80,127,1465563388
85,15,19,Jits_Linear_5,0,1,48,21,1466084556
85,15,19,Jits_Linear_5,1,5,80,127,1466094016
85,15,19,Jits_Linear_5,2,5,56,103,1466104288
85,15,19,Jits_Linear_5,3,5,63,98,1466154492
85,15,19,Jits_Linear_5,0,1,48,23,1466669488
85,15,19,Jits_Linear_5,1,5,80,127,1466713428
85,15,19,Jits_Linear_5,2,5,56,103,1466773832
85,15,19,Jits_Linear_5,3,5,63,98,1466803508
85,15,19,Jits_Linear_5,0,5,56,103,1467323956
85,15,19,Jits_Linear_5,1,5,80,127,1467327020
85,15,19,Jits_Linear_5,2,1,48,17,1467358160
85,15,19,Jits_Linear_5,3,5,63,98,1467363664
85,15,19,Jits_Linear_5,0,5,56,103,1467963976
85,15,19,Jits_Linear_5,1,1,48,19,1467988968
85,15,19,Jits_Linear_5,2,5,63,98,1467993576
85,15,19,Jits_Linear_5,3,5,80,127,1468003620
85,15,19,Jits_Linear_5,0,1,48,18,1468580168
85,15,19,Jits_Linear_5,1,5,63,98,1468584396
85,15,19,Jits_Linear_5,2,5,80,127,1468593472
85,15,19,Jits_Linear_5,3,5,56,103,1468603816
85,15,19,Jits_Linear_5,0,5,80,127,1469144324
85,15,19,Jits_Linear_5,1,1,48,20,1469169536
85,15,19,Jits_Linear_5,2,5,56,103,1469193624
85,15,19,Jits_Linear_5,3,5,63,98,1469196764
85,15,19,Jits_Linear_5,0,1,48,19,1469781672
85,15,19,Jits_Linear_5,1,5,56,103,1469793628
85,15,19,Jits_Linear_5,2,5,80,127,1469814084
85,15,19,Jits_Linear_5,3,5,63,98,1469824432
85,15,19,Jits_Linear_5,0,1,48,18,1470394160
85,15,19,Jits_Linear_5,1,5,63,98,1470395348
85,15,19,Jits_Linear_5,2,5,56,103,1470424504
85,15,19,Jits_Linear_5,3,5,80,127,1470443844
85,15,19,Jits_Linear_5,0,1,48,18,1470991048
85,15,19,Jits_Linear_5,1,5,56,103,1471023604
85,15,19,Jits_Linear_5,2,5,80,127,1471033728
85,15,19,Jits_Linear_5,3,5,63,98,1471104240
85,15,19,Jits_Linear_5,0,5,63,98,1471633756
85,15,19,Jits_Linear_5,1,1,48,22,1471643620
85,15,19,Jits_Linear_5,2,5,80,127,1471673616
85,15,19,Jits_Linear_5,3,5,56,103,1471713632
85,15,19,Jits_Linear_5,0,5,56,103,1472274068
85,15,19,Jits_Linear_5,1,1,48,17,1472280032
85,15,19,Jits_Linear_5,2,5,63,98,1472284408
85,15,19,Jits_Linear_5,3,5,80,127,1472303376
85,15,19,Jits_Linear_5,0,1,48,21,1472866412
85,15,19,Jits_Linear_5,1,5,63,98,1472943412
85,15,19,Jits_Linear_5,2,5,80,127,1472964096
85,15,19,Jits_Linear_5,3,5,56,103,1472984392
85,15,19,Jits_Linear_5,0,5,56,103,1473513980
85,15,19,Jits_Linear_5,1,1,48,18,1473549388
85,15,19,Jits_Linear_5,2,5,80,127,1473593700
85,15,19,Jits_Linear_5,3,5,63,98,1473603972
85,15,19,Jits_Linear_5,0,1,48,21,1474120108
85,15,19,Jits_Linear_5,1,5,80,127,1474183552
85,15,19,Jits_Linear_5,2,5,63,98,1474193900
85,15,19,Jits_Linear_5,3,5,56,103,1474223412
85,15,19,Jits_Linear_5,0,1,48,21,1474745240
85,15,19,Jits_Linear_5,1,5,63,98,1474774340
85,15,19,Jits_Linear_5,2,5,80,127,1474814280
85,15,19,Jits_Linear_5,3,5,56,103,1474873688
85,15,19,Jits_Linear_5,0,5,63,98,1475414360
85,15,19,Jits_Linear_5,1,1,48,17,1475420092
85,15,19,Jits_Linear_5,2,5,56,103,1475463536
85,15,19,Jits_Linear_5,3,5,80,127,1475494184
85,15,19,Jits_Linear_5,0,1,48,18,1476052124
85,15,19,Jits_Linear_5,1,5,80,127,1476063532
85,15,19,Jits_Linear_5,2,5,63,98,1476074028
85,15,19,Jits_Linear_5,3,5,56,103,1476143992
85,15,19,Jits_Linear_5,0,1,48,18,1476653252
85,15,19,Jits_Linear_5,1,5,80,127,1476774360
85,15,19,Jits_Linear_5,2,5,56,103,1476783432
85,15,19,Jits_Linear_5,3,5,63,98,1476786496
85,15,19,Jits_Linear_5,0,5,56,103,1477354076
85,15,19,Jits_Linear_5,1,1,48,21,1477354968
85,15,19,Jits_Linear_5,2,5,80,127,1477374456
85,15,19,Jits_Linear_5,3,5,63,98,1477383456
85,15,19,Jits_Linear_5,0,1,48,19,1477953388
85,15,19,Jits_Linear_5,1,5,63,98,1478004068
85,15,19,Jits_Linear_5,2,5,56,103,1478044108
85,15,19,Jits_Linear_5,3,5,80,127,1478063432
85,15,19,Jits_Linear_5,0,1,48,13,1478591640
85,15,19,Jits_Linear_5,1,5,63,98,1478654372
85,15,19,Jits_Linear_5,2,5,56,103,1478713924
85,15,19,Jits_Linear_5,3,5,80,127,1478716840
85,15,19,Jits_Linear_5,0,1,48,19,1479246772
85,15,19,Jits_Linear_5,1,5,56,103,1479263812
85,15,19,Jits_Linear_5,2,5,80,127,1479284048
85,15,19,Jits_Linear_5,3,5,63,98,1479324012
85,15,19,Jits_Linear_5,0,1,48,21,1479853920
85,15,19,Jits_Linear_5,1,5,56,103,1479943484
85,15,19,Jits_Linear_5,2,5,63,98,1479964228
85,15,19,Jits_Linear_5,3,5,80,127,1479974200
85,15,19,Jits_Linear_5,0,1,48,15,1480555224
85,15,19,Jits_Linear_5,1,5,80,127,1480564164
85,15,19,Jits_Linear_5,2,5,56,103,1480594016
85,15,19,Jits_Linear_5,3,5,63,98,1480633880
85,15,19,Jits_Linear_5,0,5,80,127,1481223540
85,15,19,Jits_Linear_5,1,1,48,17,1481226284
85,15,19,Jits_Linear_5,2,5,56,103,1481244140
85,15,19,Jits_Linear_5,3,5,63,98,1481304532
85,15,19,Jits_Linear_5,0,1,48,17,1481855160
85,15,19,Jits_Linear_5,1,5,56,103,1481883956
85,15,19,Jits_Linear_5,2,5,80,127,1481903372
85,15,19,Jits_Linear_5,3,5,63,98,1481963968
85,15,19,Jits_Linear_5,0,5,80,127,1482523904
85,15,19,Jits_Linear_5,1,1,48,17,1482526492
85,15,19,Jits_Linear_5,2,5,56,103,1482534240
85,15,19,Jits_Linear_5,3,5,63,98,1482574180
85,15,19,Jits_Linear_5,0,1,48,19,1483106868
85,15,19,Jits_Linear_5,1,5,63,98,1483183424
85,15,19,Jits_Linear_5,2,5,56,103,1483224396
85,15,19,Jits_Linear_5,3,5,80,127,1483227388
85,15,19,Jits_Linear_5,0,1,48,18,1483795528
85,15,19,Jits_Linear_5,1,5,63,98,1483864408
85,15,19,Jits_Linear_5,2,5,80,127,1483904284
85,15,19,Jits_Linear_5,3,5,56,103,1483933960
85,15,19,Jits_Linear_5,0,5,56,103,1484513744
85,15,19,Jits_Linear_5,1,5,63,98,1484523868
85,15,19,Jits_Linear_5,2,1,48,19,1484524908
85,15,19,Jits_Linear_5,3,5,80,127,1484553612
85,15,19,Jits_Linear_5,0,5,80,127,1485174220
85,15,19,Jits_Linear_5,1,1,48,22,1485178260
85,15,19,Jits_Linear_5,2,5,63,98,1485243924
85,15,19,Jits_Linear_5,3,5,56,103,1485254120
85,15,19,Jits_Linear_5,0,5,63,98,1485843796
85,15,19,Jits_Linear_5,1,1,48,18,1485854260
85,15,19,Jits_Linear_5,2,5,56,103,1485913396
85,15,19,Jits_Linear_5,3,5,80,127,1485923964
85,15,19,Jits_Linear_5,0,1,48,23,1486487164
85,15,19,Jits_Linear_5,1,5,63,98,1486513644
85,15,19,Jits_Linear_5,2,5,56,103,1486533884
85,15,19,Jits_Linear_5,3,5,80,127,1486573824
85,15,19,Jits_Linear_5,0,1,48,22,1487147256
85,15,19,Jits_Linear_5,1,5,56,103,1487193516
85,15,19,Jits_Linear_5,2,5,63,98,1487203860
85,15,19,Jits_Linear_5,3,5,80,127,1487283444
85,15,19,Jits_Linear_5,0,5,63,98,1487853940
85,15,19,Jits_Linear_5,1,1,48,27,1487860272
85,15,19,Jits_Linear_5,2,5,56,103,1487883760
85,15,19,Jits_Linear_5,3,5,80,127,1487923772
85,15,19,Jits_Linear_5,0,5,56,103,1488523720
85,15,19,Jits_Linear_5,1,1,48,22,1488527884
85,15,19,Jits_Linear_5,2,5,63,98,1488563656
85,15,19,Jits_Linear_5,3,5,80,127,1488603668
85,15,19,Jits_Linear_5,0,1,48,17,1489194804
85,15,19,Jits_Linear_5,1,5,80,127,1489203672
85,15,19,Jits_Linear_5,2,5,56,103,1489283500
85,15,19,Jits_Linear_5,3,5,63,98,1489293904
85,15,19,Jits_Linear_5,0,1,48,24,1489923132
85,15,19,Jits_Linear_5,1,5,56,103,1489924720
85,15,19,Jits_Linear_5,2,5,63,98,1489927392
85,15,19,Jits_Linear_5,3,5,80,127,1489933924
85,15,19,Jits_Linear_5,0,1,48,24,1490551352
85,15,19,Jits_Linear_5,1,5,56,103,1490623916
85,15,19,Jits_Linear_5,2,5,63,98,1490644228
85,15,19,Jits_Linear_5,3,5,80,127,1490653660
85,15,19,Jits_Linear_5,0,1,48,19,1491237904
85,15,19,Jits_Linear_5,1,5,63,98,1491263712
85,15,19,Jits_Linear_5,2,5,80,127,1491274056
85,15,19,Jits_Linear_5,3,5,56,103,1491293840
85,15,19,Jits_Linear_5,0,1,48,23,1491863036
85,15,19,Jits_Linear_5,1,5,63,98,1491954092
85,15,19,Jits_Linear_5,2,5,56,103,1492033952
85,15,19,Jits_Linear_5,3,5,80,127,1492036868
85,15,19,Jits_Linear_5,0,1,48,22,1492602124
85,15,19,Jits_Linear_5,1,5,63,98,1492644176
85,15,19,Jits_Linear_5,2,5,56,103,1492663740
85,15,19,Jits_Linear_5,3,5,80,127,1492694312
85,15,19,Jits_Linear_5,0,1,48,22,1493292780
85,15,19,Jits_Linear_5,1,5,56,103,1493334312
85,15,19,Jits_Linear_5,2,5,63,98,1493353800
85,15,19,Jits_Linear_5,3,5,80,127,1493364072
85,15,19,Jits_Linear_5,0,1,48,21,1493969816
85,15,19,Jits_Linear_5,1,5,56,103,1494054144
85,15,19,Jits_Linear_5,2,5,63,98,1494083800
85,15,19,Jits_Linear_5,3,5,80,127,1494087020
85,15,19,Jits_Linear_5,0,5,56,103,1494694256
85,15,19,Jits_Linear_5,1,1,48,18,1494731832
85,15,19,Jits_Linear_5,2,5,63,98,1494734264
85,15,19,Jits_Linear_5,3,5,80,127,1494793684
85,15,19,Jits_Linear_5,0,1,48,20,1495391504
85,15,19,Jits_Linear_5,1,5,56,103,1495403884
85,15,19,Jits_Linear_5,2,5,63,98,1495414080
85,15,19,Jits_Linear_5,3,5,80,127,1495473500
85,15,19,Jits_Linear_5,0,1,48,24,1496051496
85,15,19,Jits_Linear_5,1,5,56,103,1496104432
85,15,19,Jits_Linear_5,2,5,80,127,1496123848
85,15,19,Jits_Linear_5,3,5,63,98,1496153508
85,15,19,Jits_Linear_5,0,1,48,24,1496694992
85,15,19,Jits_Linear_5,1,5,80,127,1496803792
85,15,19,Jits_Linear_5,2,5,56,103,1496813840
85,15,19,Jits_Linear_5,3,5,63,98,1496834748
85,15,19,Jits_Linear_5,0,1,48,25,1497434280
85,15,19,Jits_Linear_5,1,5,63,98,1497493820
85,15,19,Jits_Linear_5,2,5,80,127,1497573752
85,15,19,Jits_Linear_5,3,5,56,103,1497583872
85,15,19,Jits_Linear_5,0,1,48,23,1498219432
85,15,19,Jits_Linear_5,1,5,80,127,1498253808
85,15,19,Jits_Linear_5,2,5,56,103,1498274040
85,15,19,Jits_Linear_5,3,5,63,98,1498277260
85,15,19,Jits_Linear_5,0,5,63,98,1498933760
85,15,19,Jits_Linear_5,1,5,80,127,1498936900
85,15,19,Jits_Linear_5,2,1,48,23,1498983256
85,15,19,Jits_Linear_5,3,5,56,103,1498994068
85,15,19,Jits_Linear_5,0,1,48,25,1499601612
85,15,19,Jits_Linear_5,1,5,56,103,1499634092
85,15,19,Jits_Linear_5,2,5,80,127,1499644216
85,15,19,Jits_Linear_5,3,5,63,98,1499684156
85,15,19,Jits_Linear_5,0,1,48,20,1500296644
85,15,19,Jits_Linear_5,1,5,56,103,1500324168
85,15,19,Jits_Linear_5,2,5,63,98,1500383816
85,15,19,Jits_Linear_5,3,5,80,127,1500393788
85,15,19,Jits_Linear_5,0,1,48,23,1500935680
85,15,19,Jits_Linear_5,1,5,63,98,1501044036
85,15,19,Jits_Linear_5,2,5,80,127,1501083976
85,15,19,Jits_Linear_5,3,5,56,103,1501124064
85,15,19,Jits_Linear_5,0,1,48,21,1501746520
85,15,19,Jits_Linear_5,1,5,56,103,1501753664
85,15,19,Jits_Linear_5,2,5,63,98,1501833564
85,15,19,Jits_Linear_5,3,5,80,127,1501837000
85,15,19,Jits_Linear_5,0,1,48,24,1502492352
85,15,19,Jits_Linear_5,1,5,80,127,1502523616
85,15,19,Jits_Linear_5,2,5,56,103,1502553664
85,15,19,Jits_Linear_5,3,5,63,98,1502556580
85,15,19,Jits_Linear_5,0,5,56,103,1503203812
85,15,19,Jits_Linear_5,1,1,48,24,1503218692
85,15,19,Jits_Linear_5,2,5,80,127,1503224044
85,15,19,Jits_Linear_5,3,5,63,98,1503264056
85,15,19,Jits_Linear_5,0,1,48,24,1503899944
85,15,19,Jits_Linear_5,1,5,80,127,1503904616
85,15,19,Jits_Linear_5,2,5,63,98,1503923512
85,15,19,Jits_Linear_5,3,5,56,103,1503983900
85,15,19,Jits_Linear_5,0,1,48,24,1504616832
85,15,19,Jits_Linear_5,1,5,63,98,1504634116
85,15,19,Jits_Linear_5,2,5,56,103,1504643712
85,15,19,Jits_Linear_5,3,5,80,127,1504693544
85,15,19,Jits_Linear_5,0,1,48,23,1505327812
85,15,19,Jits_Linear_5,1,5,56,103,1505343880
85,15,19,Jits_Linear_5,2,5,63,98,1505364340
85,15,19,Jits_Linear_5,3,5,80,127,1505373640
85,15,19,Jits_Linear_5,0,1,48,24,1506009052
85,15,19,Jits_Linear_5,1,5,56,103,1506063780
85,15,19,Jits_Linear_5,2,5,63,98,1506066848
85,15,19,Jits_Linear_5,3,5,80,127,1506084168
85,15,19,Jits_Linear_5,0,1,48,20,1506760260
85,15,19,Jits_Linear_5,1,5,63,98,1506833724
85,15,19,Jits_Linear_5,2,5,56,103,1506863388
85,15,19,Jits_Linear_5,3,5,80,127,1506894332
85,15,19,Jits_Linear_5,0,5,80,127,1507523968
85,15,19,Jits_Linear_5,1,1,48,19,1507550604
85,15,19,Jits_Linear_5,2,5,56,103,1507614096
85,15,19,Jits_Linear_5,3,5,63,98,1507617016
85,15,19,Jits_Linear_5,0,1,48,21,1508223020
85,15,19,Jits_Linear_5,1,5,56,103,1508254056
85,15,19,Jits_Linear_5,2,5,80,127,1508257124
85,15,19,Jits_Linear_5,3,5,63,98,1508334064
85,15,19,Jits_Linear_5,0,5,80,127,1508984148
85,15,19,Jits_Linear_5,1,1,48,21,1508993644
85,15,19,Jits_Linear_5,2,5,63,98,1509043712
85,15,19,Jits_Linear_5,3,5,56,103,1509074436
85,15,19,Jits_Linear_5,0,5,63,98,1509714236
85,15,19,Jits_Linear_5,1,1,48,20,1509717128
85,15,19,Jits_Linear_5,2,5,80,127,1509723452
85,15,19,Jits_Linear_5,3,5,56,103,1509794352
85,15,19,Jits_Linear_5,0,1,48,20,1510430948
85,15,19,Jits_Linear_5,1,5,56,103,1510463876
85,15,19,Jits_Linear_5,2,5,80,127,1510493628
85,15,19,Jits_Linear_5,3,5,63,98,1510543692
85,15,19,Jits_Linear_5,0,1,48,17,1511208544
85,15,19,Jits_Linear_5,1,5,63,98,1511244240
85,15,19,Jits_Linear_5,2,5,56,103,1511273688
85,15,19,Jits_Linear_5,3,5,80,127,1511276684
85,15,19,Jits_Linear_5,0,1,48,18,1511949496
85,15,19,Jits_Linear_5,1,5,63,98,1511983396
85,15,19,Jits_Linear_5,2,5,80,127,1512003932
85,15,19,Jits_Linear_5,3,5,56,103,1512014276
85,15,19,Jits_Linear_5,0,1,48,20,1512681008
85,15,19,Jits_Linear_5,1,5,56,103,1512733936
85,15,19,Jits_Linear_5,2,5,63,98,1512737228
85,15,19,Jits_Linear_5,3,5,80,127,1512753576
85,15,19,Jits_Linear_5,0,1,48,20,1513407804
85,15,19,Jits_Linear_5,1,5,56,103,1513433384
85,15,19,Jits_Linear_5,2,5,63,98,1513443656
85,15,19,Jits_Linear_5,3,5,80,127,1513474528
85,15,19,Jits_Linear_5,0,1,48,16,1514106272
85,15,19,Jits_Linear_5,1,5,63,98,1514203464
85,15,19,Jits_Linear_5,2,5,80,127,1514224076
85,15,19,Jits_Linear_5,3,5,56,103,1514264012
85,15,19,Jits_Linear_5,0,1,48,19,1514845488
85,15,19,Jits_Linear_5,1,5,56,103,1514983760
85,15,19,Jits_Linear_5,2,5,63,98,1515023620
85,15,19,Jits_Linear_5,3,5,80,127,1515026988
85,15,19,Jits_Linear_5,0,5,80,127,1515673936
85,15,19,Jits_Linear_5,1,1,48,19,1515712668
85,15,19,Jits_Linear_5,2,5,56,103,1515714168
85,15,19,Jits_Linear_5,3,5,63,98,1515764444
85,15,19,Jits_Linear_5,0,1,48,21,1516445068
85,15,19,Jits_Linear_5,1,5,56,103,1516483908
85,15,19,Jits_Linear_5,2,5,80,127,1516494548
85,15,19,Jits_Linear_5,3,5,63,98,1516523928
85,15,19,Jits_Linear_5,0,5,56,103,1517184488
85,15,19,Jits_Linear_5,1,5,80,127,1517224356
85,15,19,Jits_Linear_5,2,5,63,98,1517273512
85,15,19,Jits_Linear_5,3,1,48,22,1517295136
85,15,19,Jits_Linear_5,0,1,48,19,1517922560
85,15,19,Jits_Linear_5,1,5,56,103,1517944480
85,15,19,Jits_Linear_5,2,5,80,127,1517984424
85,15,19,Jits_Linear_5,3,5,63,98,1518034460
85,15,19,Jits_Linear_5,0,1,48,17,1518673552
85,15,19,Jits_Linear_5,1,5,80,127,1518693880
85,15,19,Jits_Linear_5,2,5,63,98,1518773616
85,15,19,Jits_Linear_5,3,5,56,103,1518783816
85,15,19,Jits_Linear_5,0,1,48,18,1519412420
85,15,19,Jits_Linear_5,1,5,80,127,1519503648
85,15,19,Jits_Linear_5,2,5,56,103,1519513904
85,15,19,Jits_Linear_5,3,5,63,98,1519533392
85,15,19,Jits_Linear_5,0,1,48,17,1520197344
85,15,19,Jits_Linear_5,1,5,63,98,1520233716
85,15,19,Jits_Linear_5,2,5,56,103,1520303332
85,15,19,Jits_Linear_5,3,5,80,127,1520306476
85,15,19,Jits_Linear_5,0,1,48,16,1520953064
85,15,19,Jits_Linear_5,1,5,80,127,1520993624
85,15,19,Jits_Linear_5,2,5,63,98,1521043704
85,15,19,Jits_Linear_5,3,5,56,103,1521083780
85,15,19,Jits_Linear_5,0,1,48,14,1521796984
85,15,19,Jits_Linear_5,1,5,63,98,1521803612
85,15,19,Jits_Linear_5,2,5,56,103,1521843480
85,15,19,Jits_Linear_5,3,5,80,127,1521853972
85,15,19,Jits_Linear_5,0,1,48,14,1522543100
85,15,19,Jits_Linear_5,1,5,63,98,1522563452
85,15,19,Jits_Linear_5,2,5,56,103,1522583912
85,15,19,Jits_Linear_5,3,5,80,127,1522604372
85,15,19,Jits_Linear_5,0,1,48,19,1523272368
85,15,19,Jits_Linear_5,1,5,80,127,1523293520
85,15,19,Jits_Linear_5,2,5,56,103,1523304240
85,15,19,Jits_Linear_5,3,5,63,98,1523324424
85,15,19,Jits_Linear_5,0,1,48,16,1523972784
85,15,19,Jits_Linear_5,1,5,63,98,1524094272
85,15,19,Jits_Linear_5,2,5,56,103,1524134364
85,15,19,Jits_Linear_5,3,5,80,127,1524163816
85,15,19,Jits_Linear_5,0,1,48,17,1524829196
85,15,19,Jits_Linear_5,1,5,56,103,1524873536
85,15,19,Jits_Linear_5,2,5,63,98,1524904260
85,15,19,Jits_Linear_5,3,5,80,127,1524934292
85,15,19,Jits_Linear_5,0,1,48,22,1525607240
85,15,19,Jits_Linear_5,1,5,80,127,1525624380
85,15,19,Jits_Linear_5,2,5,56,103,1525693840
85,15,19,Jits_Linear_5,3,5,63,98,1525696756
85,15,19,Jits_Linear_5,0,1,48,20,1526303240
85,15,19,Jits_Linear_5,1,5,56,103,1526413640
85,15,19,Jits_Linear_5,2,5,63,98,1526464068
85,15,19,Jits_Linear_5,3,5,80,127,1526493520
85,15,19,Jits_Linear_5,0,5,63,98,1527173424
85,15,19,Jits_Linear_5,1,5,80,127,1527176784
85,15,19,Jits_Linear_5,2,1,48,15,1527204712
85,15,19,Jits_Linear_5,3,5,56,103,1527234032
85,15,19,Jits_Linear_5,0,1,48,13,1527877584
85,15,19,Jits_Linear_5,1,5,56,103,1527983500
85,15,19,Jits_Linear_5,2,5,80,127,1527993696
85,15,19,Jits_Linear_5,3,5,63,98,1528043748
85,15,19,Jits_Linear_5,0,1,48,21,1528690540
85,15,19,Jits_Linear_5,1,5,63,98,1528744248
85,15,19,Jits_Linear_5,2,5,56,103,1528753548
85,15,19,Jits_Linear_5,3,5,80,127,1528784196
85,15,19,Jits_Linear_5,0,1,48,18,1529475508
85,15,19,Jits_Linear_5,1,5,63,98,1529563496
85,15,19,Jits_Linear_5,2,5,80,127,1529567008
85,15,19,Jits_Linear_5,3,5,56,103,1529594204
85,15,19,Jits_Linear_5,0,1,48,19,1530265448
85,15,19,Jits_Linear_5,1,5,63,98,1530373360
85,15,19,Jits_Linear_5,2,5,56,103,1530394188
85,15,19,Jits_Linear_5,3,5,80,127,1530397180
85,15,19,Jits_Linear_5,0,1,48,17,1531097136
85,15,19,Jits_Linear_5,1,5,63,98,1531124060
85,15,19,Jits_Linear_5,2,5,56,103,1531193820
85,15,19,Jits_Linear_5,3,5,80,127,1531214192
85,15,19,Jits_Linear_5,0,5,56,103,1531904284
85,15,19,Jits_Linear_5,1,1,48,18,1531909428
85,15,19,Jits_Linear_5,2,5,63,98,1531913728
85,15,19,Jits_Linear_5,3,5,80,127,1532003640
85,15,19,Jits_Linear_5,0,1,48,19,1532688820
85,15,19,Jits_Linear_5,1,5,56,103,1532714328
85,15,19,Jits_Linear_5,2,5,80,127,1532754416
85,15,19,Jits_Linear_5,3,5,63,98,1532763568
85,15,19,Jits_Linear_5,0,1,48,21,1533496516
85,15,19,Jits_Linear_5,1,5,56,103,1533543744
85,15,19,Jits_Linear_5,2,5,63,98,1533573372
85,15,19,Jits_Linear_5,3,5,80,127,1533604304
85,15,19,Jits_Linear_5,0,1,48,16,1534304608
85,15,19,Jits_Linear_5,1,5,80,127,1534313848
85,15,19,Jits_Linear_5,2,5,63,98,1534353888
85,15,19,Jits_Linear_5,3,5,56,103,1534374128
85,15,19,Jits_Linear_5,0,1,48,16,1535093612
85,15,19,Jits_Linear_5,1,5,56,103,1535153580
85,15,19,Jits_Linear_5,2,5,80,127,1535174188
85,15,19,Jits_Linear_5,3,5,63,98,1535194560
85,15,19,Jits_Linear_5,0,1,48,14,1535881408
85,15,19,Jits_Linear_5,1,5,63,98,1535923532
85,15,19,Jits_Linear_5,2,5,56,103,1535933804
85,15,19,Jits_Linear_5,3,5,80,127,1535994108
85,15,19,Jits_Linear_5,0,1,48,18,1536610624
85,15,19,Jits_Linear_5,1,5,56,103,1536733620
85,15,19,Jits_Linear_5,2,5,63,98,1536804204
85,15,19,Jits_Linear_5,3,5,80,127,1536823768
85,15,19,Jits_Linear_5,0,5,56,103,1537543460
85,15,19,Jits_Linear_5,1,1,48,19,1537550840
85,15,19,Jits_Linear_5,2,5,63,98,1537574252
85,15,19,Jits_Linear_5,3,5,80,127,1537614188
85,15,19,Jits_Linear_5,0,1,48,17,1538298920
85,15,19,Jits_Linear_5,1,5,63,98,1538344280
85,15,19,Jits_Linear_5,2,5,56,103,1538393500
85,15,19,Jits_Linear_5,3,5,80,127,1538403696
85,15,19,Jits_Linear_5,0,1,48,19,1539054788
85,15,19,Jits_Linear_5,1,5,56,103,1539194256
85,15,19,Jits_Linear_5,2,5,63,98,1539244536
85,15,19,Jits_Linear_5,3,5,80,127,1539253612
85,15,19,Jits_Linear_5,0,1,48,16,1539970708
85,15,19,Jits_Linear_5,1,5,56,103,1539973368
85,15,19,Jits_Linear_5,2,5,63,98,1539984012
85,15,19,Jits_Linear_5,3,5,80,127,1540063732
85,15,19,Jits_Linear_5,0,9999,9999,9999,1431181420
85,15,19,Jits_Linear_5,1,9999,9999,9999,1431661632
85,15,19,Jits_Linear_5,2,9999,9999,9999,1432141940
85,15,19,Jits_Linear_5,3,9999,9999,9999,1432621172
85,15,19,Jits_Linear_5,4,9999,9999,9999,1433101384
85,15,19,Jits_Linear_5,5,9999,9999,9999,1433591868
85,15,19,Jits_Linear_5,6,9999,9999,9999,1434081372
85,15,19,Jits_Linear_5,7,9999,9999,9999,1434571856
85,15,19,Jits_Linear_5,8,9999,9999,9999,1435061368
85,15,19,Jits_Linear_5,9,9999,9999,9999,1435551856
85,15,19,Jits_Linear_5,10,9999,9999,9999,1436051552
85,15,19,Jits_Linear_5,11,9999,9999,9999,1436551256
85,15,19,Jits_Linear_5,12,9999,9999,9999,1437051988
85,15,19,Jits_Linear_5,13,9999,9999,9999,1437551720
85,15,19,Jits_Linear_5,14,9999,9999,9999,1438051404
85,15,19,Jits_Linear_5,15,9999,9999,9999,1438561352
85,15,19,Jits_Linear_5,16,9999,9999,9999,1439071304
85,15,19,Jits_Linear_5,17,9999,9999,9999,1439581256
85,15,19,Jits_Linear_5,18,9999,9999,9999,1440091204
85,15,19,Jits_Linear_5,19,9999,9999,9999,1440601156
85,15,19,Jits_Linear_5,20,9999,9999,9999,1441121372
85,15,19,Jits_Linear_5,21,9999,9999,9999,1441641584
85,15,19,Jits_Linear_5,22,9999,9999,9999,1442161724
85,15,19,Jits_Linear_5,23,9999,9999,9999,1442681972
85,15,19,Jits_Linear_5,24,9999,9999,9999,1443201140
85,15,19,Jits_Linear_5,25,9999,9999,9999,1443731540
85,15,19,Jits_Linear_5,26,9999,9999,9999,1444261944
85,15,19,Jits_Linear_5,27,9999,9999,9999,1444791352
85,15,19,Jits_Linear_5,28,9999,9999,9999,1445321832
85,15,19,Jits_Linear_5,29,9999,9999,9999,1445851260
85,15,19,Jits_Linear_5,30,9999,9999,9999,1446391868
85,15,19,Jits_Linear_5,31,9999,9999,9999,1446931568
85,15,19,Jits_Linear_5,32,9999,9999,9999,1447471180
85,15,19,Jits_Linear_5,33,9999,9999,9999,1448011852
85,15,19,Jits_Linear_5,34,9999,9999,9999,1448551548
85,15,19,Jits_Linear_5,35,9999,9999,9999,1449101384
85,15,19,Jits_Linear_5,36,9999,9999,9999,1449651256
85,15,19,Jits_Linear_5,37,9999,9999,9999,1450201216
85,15,19,Jits_Linear_5,38,9999,9999,9999,1450752072
85,15,19,Jits_Linear_5,39,9999,9999,9999,1451311176
85,15,19,Jits_Linear_5,40,9999,9999,9999,1451871324
85,15,19,Jits_Linear_5,41,9999,9999,9999,1452431420
85,15,19,Jits_Linear_5,42,9999,9999,9999,1452991580
85,15,19,Jits_Linear_5,43,9999,9999,9999,1453551724
85,15,19,Jits_Linear_5,44,9999,9999,9999,1454111872
85,15,19,Jits_Linear_5,45,9999,9999,9999,1454681208
85,15,19,Jits_Linear_5,46,9999,9999,9999,1455251572
85,15,19,Jits_Linear_5,47,9999,9999,9999,1455821916
85,15,19,Jits_Linear_5,48,9999,9999,9999,1456391284
85,15,19,Jits_Linear_5,49,9999,9999,9999,1456961600
85,15,19,Jits_Linear_5,50,9999,9999,9999,1457541244
85,15,19,Jits_Linear_5,51,9999,9999,9999,1458121788
85,15,19,Jits_Linear_5,52,9999,9999,9999,1458701416
85,15,19,Jits_Linear_5,53,9999,9999,9999,1459282016
85,15,19,Jits_Linear_5,54,9999,9999,9999,1459861600
85,15,19,Jits_Linear_5,55,9999,9999,9999,1460451436
85,15,19,Jits_Linear_5,56,9999,9999,9999,1461041256
85,15,19,Jits_Linear_5,57,9999,9999,9999,1461632060
85,15,19,Jits_Linear_5,58,9999,9999,9999,1462231096
85,15,19,Jits_Linear_5,59,9999,9999,9999,1462821948
85,15,19,Jits_Linear_5,60,9999,9999,9999,1463422056
85,15,19,Jits_Linear_5,61,9999,9999,9999,1464022132
85,15,19,Jits_Linear_5,62,9999,9999,9999,1464631372
85,15,19,Jits_Linear_5,63,9999,9999,9999,1465231476
85,15,19,Jits_Linear_5,64,9999,9999,9999,1465831480
85,15,19,Jits_Linear_5,65,9999,9999,9999,1466441844
85,15,19,Jits_Linear_5,66,9999,9999,9999,1467051092
85,15,19,Jits_Linear_5,67,9999,9999,9999,1467661428
85,15,19,Jits_Linear_5,68,9999,9999,9999,1468271716
85,15,19,Jits_Linear_5,69,9999,9999,9999,1468882028
85,15,19,Jits_Linear_5,70,9999,9999,9999,1469501500
85,15,19,Jits_Linear_5,71,9999,9999,9999,1470122048
85,15,19,Jits_Linear_5,72,9999,9999,9999,1470741604
85,15,19,Jits_Linear_5,73,9999,9999,9999,1471361120
85,15,19,Jits_Linear_5,74,9999,9999,9999,1471981652
85,15,19,Jits_Linear_5,75,9999,9999,9999,1472611400
85,15,19,Jits_Linear_5,76,9999,9999,9999,1473241192
85,15,19,Jits_Linear_5,77,9999,9999,9999,1473871992
85,15,19,Jits_Linear_5,78,9999,9999,9999,1474501708
85,15,19,Jits_Linear_5,79,9999,9999,9999,1475131460
85,15,19,Jits_Linear_5,80,9999,9999,9999,1475771496
85,15,19,Jits_Linear_5,81,9999,9999,9999,1476411508
85,15,19,Jits_Linear_5,82,9999,9999,9999,1477051468
85,15,19,Jits_Linear_5,83,9999,9999,9999,1477691484
85,15,19,Jits_Linear_5,84,9999,9999,9999,1478331464
85,15,19,Jits_Linear_5,85,9999,9999,9999,1478981740
85,15,19,Jits_Linear_5,86,9999,9999,9999,1479631964
85,15,19,Jits_Linear_5,87,9999,9999,9999,1480281192
85,15,19,Jits_Linear_5,88,9999,9999,9999,1480931420
85,15,19,Jits_Linear_5,89,9999,9999,9999,1481581696
85,15,19,Jits_Linear_5,90,9999,9999,9999,1482241148
85,15,19,Jits_Linear_5,91,9999,9999,9999,1482901560
85,15,19,Jits_Linear_5,92,9999,9999,9999,1483562104
85,15,19,Jits_Linear_5,93,9999,9999,9999,1484221548
85,15,19,Jits_Linear_5,94,9999,9999,9999,1484882012
85,15,19,Jits_Linear_5,95,9999,9999,9999,1485551736
85,15,19,Jits_Linear_5,96,9999,9999,9999,1486221380
85,15,19,Jits_Linear_5,97,9999,9999,9999,1486891064
85,15,19,Jits_Linear_5,98,9999,9999,9999,1487561816
85,15,19,Jits_Linear_5,99,9999,9999,9999,1488231500
85,15,19,Jits_Linear_5,100,9999,9999,9999,1488911468
85,15,19,Jits_Linear_5,101,9999,9999,9999,1489591384
85,15,19,Jits_Linear_5,102,9999,9999,9999,1490271316
85,15,19,Jits_Linear_5,103,9999,9999,9999,1490951292
85,15,19,Jits_Linear_5,104,9999,9999,9999,1491631184
85,15,19,Jits_Linear_5,105,9999,9999,9999,1492321392
85,15,19,Jits_Linear_5,106,9999,9999,9999,1493011552
85,15,19,Jits_Linear_5,107,9999,9999,9999,1493701716
85,15,19,Jits_Linear_5,108,9999,9999,9999,1494391872
85,15,19,Jits_Linear_5,109,9999,9999,9999,1495082084
85,15,19,Jits_Linear_5,110,9999,9999,9999,1495781448
85,15,19,Jits_Linear_5,111,9999,9999,9999,1496481876
85,15,19,Jits_Linear_5,112,9999,9999,9999,1497181300
85,15,19,Jits_Linear_5,113,9999,9999,9999,1497881724
85,15,19,Jits_Linear_5,114,9999,9999,9999,1498582072
85,15,19,Jits_Linear_5,115,9999,9999,9999,1499301968
85,15,19,Jits_Linear_5,116,9999,9999,9999,1500011584
85,15,19,Jits_Linear_5,117,9999,9999,9999,1500721216
85,15,19,Jits_Linear_5,118,9999,9999,9999,1501431880
85,15,19,Jits_Linear_5,119,9999,9999,9999,1502141516
85,15,19,Jits_Linear_5,120,9999,9999,9999,1502861420
85,15,19,Jits_Linear_5,121,9999,9999,9999,1503581300
85,15,19,Jits_Linear_5,122,9999,9999,9999,1504301144
85,15,19,Jits_Linear_5,123,9999,9999,9999,1505022020
85,15,19,Jits_Linear_5,124,9999,9999,9999,1505741920
85,15,19,Jits_Linear_5,125,9999,9999,9999,1506472000
85,15,19,Jits_Linear_5,126,9999,9999,9999,1507201128
85,15,19,Jits_Linear_5,127,9999,9999,9999,1507931188
85,15,19,Jits_Linear_5,128,9999,9999,9999,1508661360
85,15,19,Jits_Linear_5,129,9999,9999,9999,1509391456
85,15,19,Jits_Linear_5,130,9999,9999,9999,1510131824
85,15,19,Jits_Linear_5,131,9999,9999,9999,1510871136
85,15,19,Jits_Linear_5,132,9999,9999,9999,1511611484
85,15,19,Jits_Linear_5,133,9999,9999,9999,1512351844
85,15,19,Jits_Linear_5,134,9999,9999,9999,1513091144
85,15,19,Jits_Linear_5,135,9999,9999,9999,1513841736
85,15,19,Jits_Linear_5,136,9999,9999,9999,1514591308
85,15,19,Jits_Linear_5,137,9999,9999,9999,1515341928
85,15,19,Jits_Linear_5,138,9999,9999,9999,1516091500
85,15,19,Jits_Linear_5,139,9999,9999,9999,1516842068
85,15,19,Jits_Linear_5,140,9999,9999,9999,1517601908
85,15,19,Jits_Linear_5,141,9999,9999,9999,1518361684
85,15,19,Jits_Linear_5,142,9999,9999,9999,1519121520
85,15,19,Jits_Linear_5,143,9999,9999,9999,1519881288
85,15,19,Jits_Linear_5,144,9999,9999,9999,1520641120
85,15,19,Jits_Linear_5,145,9999,9999,9999,1521411148
85,15,19,Jits_Linear_5,146,9999,9999,9999,1522181180
85,15,19,Jits_Linear_5,147,9999,9999,9999,1522951284
85,15,19,Jits_Linear_5,148,9999,9999,9999,1523721304
85,15,19,Jits_Linear_5,149,9999,9999,9999,1524491336
85,15,19,Jits_Linear_5,150,9999,9999,9999,1525271628
85,15,19,Jits_Linear_5,151,9999,9999,9999,1526051908
85,15,19,Jits_Linear_5,152,9999,9999,9999,1526831228
85,15,19,Jits_Linear_5,153,9999,9999,9999,1527611504
85,15,19,Jits_Linear_5,154,9999,9999,9999,1528391796
85,15,19,Jits_Linear_5,155,9999,9999,9999,1529181296
85,15,19,Jits_Linear_5,156,9999,9999,9999,1529971840
85,15,19,Jits_Linear_5,157,9999,9999,9999,1530761288
85,15,19,Jits_Linear_5,158,9999,9999,9999,1531551848
85,15,19,Jits_Linear_5,159,9999,9999,9999,1532341356
85,15,19,Jits_Linear_5,160,9999,9999,9999,1533142088
85,15,19,Jits_Linear_5,161,9999,9999,9999,1533952124
85,15,19,Jits_Linear_5,162,9999,9999,9999,1534762084
85,15,19,Jits_Linear_5,163,9999,9999,9999,1535561784
85,15,19,Jits_Linear_5,164,9999,9999,9999,1536361556
85,15,19,Jits_Linear_5,165,9999,9999,9999,1537171540
85,15,19,Jits_Linear_5,166,9999,9999,9999,1537981500
85,15,19,Jits_Linear_5,167,9999,9999,9999,1538791544
85,15,19,Jits_Linear_5,168,9999,9999,9999,1539601508
85,15,19,Jits_Linear_5,169,9999,9999,9999,1540411468
85,16,18,Jits_Linear_8,0,5,56,103,1550463508
85,16,18,Jits_Linear_8,1,5,63,98,1550466456
85,16,18,Jits_Linear_8,2,5,80,127,1550469656
85,16,18,Jits_Linear_8,0,5,56,103,1551282624
85,16,18,Jits_Linear_8,1,5,63,98,1551285800
85,16,18,Jits_Linear_8,2,5,80,127,1551288916
85,16,18,Jits_Linear_8,0,5,80,127,1552043316
85,16,18,Jits_Linear_8,1,1,48,25,1552113716
85,16,18,Jits_Linear_8,2,5,63,98,1552132472
85,16,18,Jits_Linear_8,3,5,56,103,1552142964
85,16,18,Jits_Linear_8,0,5,56,103,1552882940
85,16,18,Jits_Linear_8,1,5,63,98,1552893436
85,16,18,Jits_Linear_8,2,1,48,26,1552941960
85,16,18,Jits_Linear_8,3,5,80,127,1552983416
85,16,18,Jits_Linear_8,0,5,63,98,1553672592
85,16,18,Jits_Linear_8,1,1,48,24,1553675564
85,16,18,Jits_Linear_8,2,5,80,127,1553703384
85,16,18,Jits_Linear_8,3,5,56,103,1553732836
85,16,18,Jits_Linear_8,0,1,48,27,1554424280
85,16,18,Jits_Linear_8,1,5,56,103,1554492640
85,16,18,Jits_Linear_8,2,5,80,127,1554593272
85,16,18,Jits_Linear_8,3,5,63,98,1554643248
85,16,18,Jits_Linear_8,0,5,56,103,1555302816
85,16,18,Jits_Linear_8,1,1,48,25,1555327384
85,16,18,Jits_Linear_8,2,5,80,127,1555352964
85,16,18,Jits_Linear_8,3,5,63,98,1555392828
85,16,18,Jits_Linear_8,0,1,48,26,1556106244
85,16,18,Jits_Linear_8,1,5,80,127,1556142536
85,16,18,Jits_Linear_8,2,5,63,98,1556173036
85,16,18,Jits_Linear_8,3,5,56,103,1556242776
85,16,18,Jits_Linear_8,0,1,48,22,1556956644
85,16,18,Jits_Linear_8,1,5,63,98,1556983124
85,16,18,Jits_Linear_8,2,5,56,103,1557012724
85,16,18,Jits_Linear_8,3,5,80,127,1557073248
85,16,18,Jits_Linear_8,0,5,56,103,1557732760
85,16,18,Jits_Linear_8,1,5,80,127,1557735900
85,16,18,Jits_Linear_8,2,1,48,26,1557763156
85,16,18,Jits_Linear_8,3,5,63,98,1557852780
85,16,18,Jits_Linear_8,0,1,48,24,1558537124
85,16,18,Jits_Linear_8,1,5,56,103,1558613356
85,16,18,Jits_Linear_8,2,5,80,127,1558653304
85,16,18,Jits_Linear_8,3,5,63,98,1558662752
85,16,18,Jits_Linear_8,0,5,56,103,1559373112
85,16,18,Jits_Linear_8,1,5,80,127,1559392748
85,16,18,Jits_Linear_8,2,1,48,24,1559399156
85,16,18,Jits_Linear_8,3,5,63,98,1559472708
85,16,18,Jits_Linear_8,0,5,80,127,1560162840
85,16,18,Jits_Linear_8,1,1,48,27,1560255892
85,16,18,Jits_Linear_8,2,5,56,103,1560262960
85,16,18,Jits_Linear_8,3,5,63,98,1560273380
85,16,18,Jits_Linear_8,0,5,63,98,1560932796
85,16,18,Jits_Linear_8,1,5,80,127,1560992992
85,16,18,Jits_Linear_8,2,5,56,103,1561003336
85,16,18,Jits_Linear_8,3,1,48,21,1561071412
85,16,18,Jits_Linear_8,0,1,48,19,1561729236
85,16,18,Jits_Linear_8,1,5,56,103,1561732864
85,16,18,Jits_Linear_8,2,5,63,98,1561803072
85,16,18,Jits_Linear_8,3,5,80,127,1561806584
85,16,18,Jits_Linear_8,0,1,48,19,1562498188
85,16,18,Jits_Linear_8,1,5,63,98,1562562876
85,16,18,Jits_Linear_8,2,5,56,103,1562613212
85,16,18,Jits_Linear_8,3,5,80,127,1562616504
85,16,18,Jits_Linear_8,0,1,48,21,1563264736
85,16,18,Jits_Linear_8,1,5,56,103,1563312636
85,16,18,Jits_Linear_8,2,5,80,127,1563315628
85,16,18,Jits_Linear_8,3,5,63,98,1563402756
85,16,18,Jits_Linear_8,0,1,48,21,1564117440
85,16,18,Jits_Linear_8,1,5,63,98,1564143020
85,16,18,Jits_Linear_8,2,5,56,103,1564232996
85,16,18,Jits_Linear_8,3,5,80,127,1564262744
85,16,18,Jits_Linear_8,0,5,56,103,1564923236
85,16,18,Jits_Linear_8,1,1,48,19,1564999472
85,16,18,Jits_Linear_8,2,5,63,98,1565022660
85,16,18,Jits_Linear_8,3,5,80,127,1565053256
85,16,18,Jits_Linear_8,0,5,63,98,1565733128
85,16,18,Jits_Linear_8,1,5,56,103,1565742648
85,16,18,Jits_Linear_8,2,1,48,19,1565768536
85,16,18,Jits_Linear_8,3,5,80,127,1565832500
85,16,18,Jits_Linear_8,0,5,63,98,1566533108
85,16,18,Jits_Linear_8,1,1,48,20,1566585404
85,16,18,Jits_Linear_8,2,5,56,103,1566612924
85,16,18,Jits_Linear_8,3,5,80,127,1566615988
85,16,18,Jits_Linear_8,0,5,80,127,1567273372
85,16,18,Jits_Linear_8,1,5,63,98,1567292860
85,16,18,Jits_Linear_8,2,5,56,103,1567353052
85,16,18,Jits_Linear_8,3,1,48,24,1567421052
85,16,18,Jits_Linear_8,0,5,56,103,1568092472
85,16,18,Jits_Linear_8,1,5,63,98,1568113004
85,16,18,Jits_Linear_8,2,5,80,127,1568116392
85,16,18,Jits_Linear_8,3,1,48,16,1568130540
85,16,18,Jits_Linear_8,0,5,63,98,1568813708
85,16,18,Jits_Linear_8,1,1,48,19,1568837128
85,16,18,Jits_Linear_8,2,5,80,127,1568893228
85,16,18,Jits_Linear_8,3,5,56,103,1568902600
85,16,18,Jits_Linear_8,0,1,48,20,1569586680
85,16,18,Jits_Linear_8,1,5,63,98,1569613080
85,16,18,Jits_Linear_8,2,5,56,103,1569632716
85,16,18,Jits_Linear_8,3,5,80,127,1569682780
85,16,18,Jits_Linear_8,0,1,48,24,1570363592
85,16,18,Jits_Linear_8,1,5,80,127,1570392536
85,16,18,Jits_Linear_8,2,5,63,98,1570433472
85,16,18,Jits_Linear_8,3,5,56,103,1570452736
85,16,18,Jits_Linear_8,0,1,48,20,1571172260
85,16,18,Jits_Linear_8,1,5,56,103,1571202504
85,16,18,Jits_Linear_8,2,5,63,98,1571212552
85,16,18,Jits_Linear_8,3,5,80,127,1571233236
85,16,18,Jits_Linear_8,0,5,56,103,1571902820
85,16,18,Jits_Linear_8,1,1,48,20,1571960572
85,16,18,Jits_Linear_8,2,5,63,98,1571992976
85,16,18,Jits_Linear_8,3,5,80,127,1572053440
85,16,18,Jits_Linear_8,0,1,48,21,1572701768
85,16,18,Jits_Linear_8,1,5,80,127,1572703412
85,16,18,Jits_Linear_8,2,5,56,103,1572712712
85,16,18,Jits_Linear_8,3,5,63,98,1572782416
85,16,18,Jits_Linear_8,0,5,63,98,1573503276
85,16,18,Jits_Linear_8,1,1,48,18,1573575024
85,16,18,Jits_Linear_8,2,5,80,127,1573592508
85,16,18,Jits_Linear_8,3,5,56,103,1573602628
85,16,18,Jits_Linear_8,0,5,63,98,1574202692
85,16,18,Jits_Linear_8,1,1,48,19,1574235408
85,16,18,Jits_Linear_8,2,5,80,127,1574253112
85,16,18,Jits_Linear_8,3,5,56,103,1574313380
85,16,18,Jits_Linear_8,0,5,56,103,1574993376
85,16,18,Jits_Linear_8,1,1,48,17,1575004888
85,16,18,Jits_Linear_8,2,5,80,127,1575042552
85,16,18,Jits_Linear_8,3,5,63,98,1575062788
85,16,18,Jits_Linear_8,0,5,56,103,1575723468
85,16,18,Jits_Linear_8,1,1,48,19,1575759920
85,16,18,Jits_Linear_8,2,5,80,127,1575782804
85,16,18,Jits_Linear_8,3,5,63,98,1575854516
85,16,18,Jits_Linear_8,0,5,56,103,1576483152
85,16,18,Jits_Linear_8,1,5,80,127,1576512828
85,16,18,Jits_Linear_8,2,5,63,98,1576542652
85,16,18,Jits_Linear_8,3,1,48,19,1576570212
85,16,18,Jits_Linear_8,0,1,48,19,1577247660
85,16,18,Jits_Linear_8,1,5,56,103,1577282984
85,16,18,Jits_Linear_8,2,5,80,127,1577303368
85,16,18,Jits_Linear_8,3,5,63,98,1577362796
85,16,18,Jits_Linear_8,0,1,48,20,1578005692
85,16,18,Jits_Linear_8,1,5,80,127,1578122536
85,16,18,Jits_Linear_8,2,5,56,103,1578132732
85,16,18,Jits_Linear_8,3,5,63,98,1578143224
85,16,18,Jits_Linear_8,0,5,56,103,1578833508
85,16,18,Jits_Linear_8,1,5,80,127,1578873324
85,16,18,Jits_Linear_8,2,1,48,17,1578874892
85,16,18,Jits_Linear_8,3,5,63,98,1578902768
85,16,18,Jits_Linear_8,0,1,48,15,1579552060
85,16,18,Jits_Linear_8,1,5,56,103,1579553632
85,16,18,Jits_Linear_8,2,5,63,98,1579582716
85,16,18,Jits_Linear_8,3,5,80,127,1579622728
85,16,18,Jits_Linear_8,0,5,80,127,1580252552
85,16,18,Jits_Linear_8,1,1,48,17,1580290444
85,16,18,Jits_Linear_8,2,5,63,98,1580302748
85,16,18,Jits_Linear_8,3,5,56,103,1580323284
85,16,18,Jits_Linear_8,0,5,56,103,1581032764
85,16,18,Jits_Linear_8,1,1,48,14,1581052668
85,16,18,Jits_Linear_8,2,5,80,127,1581102368
85,16,18,Jits_Linear_8,3,5,63,98,1581162744
85,16,18,Jits_Linear_8,0,5,80,127,1581773424
85,16,18,Jits_Linear_8,1,1,48,21,1581794532
85,16,18,Jits_Linear_8,2,5,63,98,1581863332
85,16,18,Jits_Linear_8,3,5,56,103,1581882672
85,16,18,Jits_Linear_8,0,5,63,98,1582533112
85,16,18,Jits_Linear_8,1,5,56,103,1582552376
85,16,18,Jits_Linear_8,2,5,80,127,1582593512
85,16,18,Jits_Linear_8,3,1,48,24,1582597380
85,16,18,Jits_Linear_8,0,5,80,127,1583233372
85,16,18,Jits_Linear_8,1,5,63,98,1583252788
85,16,18,Jits_Linear_8,2,1,48,20,1583327000
85,16,18,Jits_Linear_8,3,5,56,103,1583332724
85,16,18,Jits_Linear_8,0,5,63,98,1583962540
85,16,18,Jits_Linear_8,1,1,48,25,1584012516
85,16,18,Jits_Linear_8,2,5,56,103,1584073072
85,16,18,Jits_Linear_8,3,5,80,127,1584076212
85,16,18,Jits_Linear_8,0,5,63,98,1584723476
85,16,18,Jits_Linear_8,1,5,56,103,1584732396
85,16,18,Jits_Linear_8,2,5,80,127,1584735540
85,16,18,Jits_Linear_8,3,1,48,19,1584817272
85,16,18,Jits_Linear_8,0,5,56,103,1585443200
85,16,18,Jits_Linear_8,1,1,48,20,1585492252
85,16,18,Jits_Linear_8,2,5,80,127,1585562948
85,16,18,Jits_Linear_8,3,5,63,98,1585602872
85,16,18,Jits_Linear_8,0,5,56,103,1586192704
85,16,18,Jits_Linear_8,1,1,48,24,1586221680
85,16,18,Jits_Linear_8,2,5,80,127,1586272720
85,16,18,Jits_Linear_8,3,5,63,98,1586293352
85,16,18,Jits_Linear_8,0,5,56,103,1586922800
85,16,18,Jits_Linear_8,1,1,48,26,1586937304
85,16,18,Jits_Linear_8,2,5,63,98,1587032468
85,16,18,Jits_Linear_8,3,5,80,127,1587035756
85,16,18,Jits_Linear_8,0,5,56,103,1587682632
85,16,18,Jits_Linear_8,1,1,48,21,1587699756
85,16,18,Jits_Linear_8,2,5,80,127,1587713276
85,16,18,Jits_Linear_8,3,5,63,98,1587732836
85,16,18,Jits_Linear_8,0,1,48,16,1588383324
85,16,18,Jits_Linear_8,1,5,63,98,1588393316
85,16,18,Jits_Linear_8,2,5,56,103,1588402612
85,16,18,Jits_Linear_8,3,5,80,127,1588412736
85,16,18,Jits_Linear_8,0,5,80,127,1589103216
85,16,18,Jits_Linear_8,1,1,48,23,1589134684
85,16,18,Jits_Linear_8,2,5,56,103,1589153064
85,16,18,Jits_Linear_8,3,5,63,98,1589193152
85,16,18,Jits_Linear_8,0,1,48,22,1589835376
85,16,18,Jits_Linear_8,1,5,80,127,1589843344
85,16,18,Jits_Linear_8,2,5,63,98,1589862684
85,16,18,Jits_Linear_8,3,5,56,103,1589912908
85,16,18,Jits_Linear_8,0,1,48,19,1590559452
85,16,18,Jits_Linear_8,1,5,80,127,1590573424
85,16,18,Jits_Linear_8,2,5,56,103,1590603324
85,16,18,Jits_Linear_8,3,5,63,98,1590672640
85,16,18,Jits_Linear_8,0,1,48,21,1591334128
85,16,18,Jits_Linear_8,1,5,56,103,1591342544
85,16,18,Jits_Linear_8,2,5,80,127,1591352592
85,16,18,Jits_Linear_8,3,5,63,98,1591392680
85,16,18,Jits_Linear_8,0,5,56,103,1591973364
85,16,18,Jits_Linear_8,1,5,63,98,1591992628
85,16,18,Jits_Linear_8,2,5,80,127,1592063280
85,16,18,Jits_Linear_8,3,1,48,20,1592078080
85,16,18,Jits_Linear_8,0,5,63,98,1592712596
85,16,18,Jits_Linear_8,1,1,48,20,1592722468
85,16,18,Jits_Linear_8,2,5,80,127,1592772908
85,16,18,Jits_Linear_8,3,5,56,103,1592792320
85,16,18,Jits_Linear_8,0,5,80,127,1593412908
85,16,18,Jits_Linear_8,1,5,56,103,1593442660
85,16,18,Jits_Linear_8,2,1,48,20,1593458680
85,16,18,Jits_Linear_8,3,5,63,98,1593473328
85,16,18,Jits_Linear_8,0,1,48,21,1594101540
85,16,18,Jits_Linear_8,1,5,56,103,1594122544
85,16,18,Jits_Linear_8,2,5,63,98,1594183308
85,16,18,Jits_Linear_8,3,5,80,127,1594242288
85,16,18,Jits_Linear_8,0,1,48,20,1594816560
85,16,18,Jits_Linear_8,1,5,80,127,1594852700
85,16,18,Jits_Linear_8,2,5,56,103,1594873308
85,16,18,Jits_Linear_8,3,5,63,98,1594942752
85,16,18,Jits_Linear_8,0,5,80,127,1595563376
85,16,18,Jits_Linear_8,1,5,63,98,1595582936
85,16,18,Jits_Linear_8,2,5,56,103,1595612464
85,16,18,Jits_Linear_8,3,1,48,25,1595613952
85,16,18,Jits_Linear_8,0,5,80,127,1596252536
85,16,18,Jits_Linear_8,1,5,63,98,1596273220
85,16,18,Jits_Linear_8,2,5,56,103,1596333388
85,16,18,Jits_Linear_8,3,1,48,22,1596355616
85,16,18,Jits_Linear_8,0,5,80,127,1596953084
85,16,18,Jits_Linear_8,1,1,48,20,1597049200
85,16,18,Jits_Linear_8,2,5,56,103,1597053356
85,16,18,Jits_Linear_8,3,5,63,98,1597083104
85,16,18,Jits_Linear_8,0,5,63,98,1597643028
85,16,18,Jits_Linear_8,1,5,80,127,1597693156
85,16,18,Jits_Linear_8,2,5,56,103,1597712868
85,16,18,Jits_Linear_8,3,1,48,19,1597736584
85,16,18,Jits_Linear_8,0,5,80,127,1598382400
85,16,18,Jits_Linear_8,1,5,56,103,1598413196
85,16,18,Jits_Linear_8,2,1,48,19,1598414704
85,16,18,Jits_Linear_8,3,5,63,98,1598417376
85,16,18,Jits_Linear_8,0,1,48,17,1599108624
85,16,18,Jits_Linear_8,1,5,63,98,1599112556
85,16,18,Jits_Linear_8,2,5,56,103,1599152348
85,16,18,Jits_Linear_8,3,5,80,127,1599173252
85,16,18,Jits_Linear_8,0,5,80,127,1599752420
85,16,18,Jits_Linear_8,1,1,48,20,1599779280
85,16,18,Jits_Linear_8,2,5,63,98,1599832436
85,16,18,Jits_Linear_8,3,5,56,103,1599873372
85,16,18,Jits_Linear_8,0,5,63,98,1600463188
85,16,18,Jits_Linear_8,1,1,48,18,1600476496
85,16,18,Jits_Linear_8,2,5,80,127,1600543052
85,16,18,Jits_Linear_8,3,5,56,103,1600562540
85,16,18,Jits_Linear_8,0,5,56,103,1601193348
85,16,18,Jits_Linear_8,1,5,63,98,1601202500
85,16,18,Jits_Linear_8,2,1,48,24,1601216556
85,16,18,Jits_Linear_8,3,5,80,127,1601242432
85,16,18,Jits_Linear_8,0,5,56,103,1601802648
85,16,18,Jits_Linear_8,1,5,80,127,1601805860
85,16,18,Jits_Linear_8,2,1,48,22,1601910144
85,16,18,Jits_Linear_8,3,5,63,98,1601943216
85,16,18,Jits_Linear_8,0,5,56,103,1602482608
85,16,18,Jits_Linear_8,1,1,48,21,1602494196
85,16,18,Jits_Linear_8,2,5,63,98,1602572736
85,16,18,Jits_Linear_8,3,5,80,127,1602643300
85,16,18,Jits_Linear_8,0,1,48,21,1603186744
85,16,18,Jits_Linear_8,1,5,63,98,1603243340
85,16,18,Jits_Linear_8,2,5,80,127,1603246776
85,16,18,Jits_Linear_8,3,5,56,103,1603302740
85,16,18,Jits_Linear_8,0,1,48,19,1603916948
85,16,18,Jits_Linear_8,1,5,80,127,1603963376
85,16,18,Jits_Linear_8,2,5,56,103,1603982640
85,16,18,Jits_Linear_8,3,5,63,98,1603993208
85,16,18,Jits_Linear_8,0,5,56,103,1604553192
85,16,18,Jits_Linear_8,1,5,63,98,1604563236
85,16,18,Jits_Linear_8,2,1,48,18,1604618044
85,16,18,Jits_Linear_8,3,5,80,127,1604633208
85,16,18,Jits_Linear_8,0,5,80,127,1605232912
85,16,18,Jits_Linear_8,1,1,48,18,1605270804
85,16,18,Jits_Linear_8,2,5,56,103,1605283184
85,16,18,Jits_Linear_8,3,5,63,98,1605333384
85,16,18,Jits_Linear_8,0,1,48,19,1605908396
85,16,18,Jits_Linear_8,1,5,56,103,1605993096
85,16,18,Jits_Linear_8,2,5,63,98,1606003228
85,16,18,Jits_Linear_8,3,5,80,127,1606043020
85,16,18,Jits_Linear_8,0,5,56,103,1606613504
85,16,18,Jits_Linear_8,1,1,48,17,1606647268
85,16,18,Jits_Linear_8,2,5,63,98,1606653216
85,16,18,Jits_Linear_8,3,5,80,127,1606702444
85,16,18,Jits_Linear_8,0,5,80,127,1607243108
85,16,18,Jits_Linear_8,1,1,48,25,1607286780
85,16,18,Jits_Linear_8,2,5,56,103,1607293180
85,16,18,Jits_Linear_8,3,5,63,98,1607313040
85,16,18,Jits_Linear_8,0,1,48,21,1607906488
85,16,18,Jits_Linear_8,1,5,80,127,1607923072
85,16,18,Jits_Linear_8,2,5,63,98,1607982420
85,16,18,Jits_Linear_8,3,5,56,103,1608063272
85,16,18,Jits_Linear_8,0,5,80,127,1608573148
85,16,18,Jits_Linear_8,1,5,56,103,1608613236
85,16,18,Jits_Linear_8,2,1,48,22,1608632872
85,16,18,Jits_Linear_8,3,5,63,98,1608634212
85,16,18,Jits_Linear_8,0,1,48,22,1609283704
85,16,18,Jits_Linear_8,1,5,56,103,1609293168
85,16,18,Jits_Linear_8,2,5,80,127,1609303512
85,16,18,Jits_Linear_8,3,5,63,98,1609343400
85,16,18,Jits_Linear_8,0,1,48,19,1609950012
85,16,18,Jits_Linear_8,1,5,56,103,1610023252
85,16,18,Jits_Linear_8,2,5,63,98,1610063324
85,16,18,Jits_Linear_8,3,5,80,127,1610066536
85,16,18,Jits_Linear_8,0,5,63,98,1610573272
85,16,18,Jits_Linear_8,1,5,80,127,1610613012
85,16,18,Jits_Linear_8,2,1,48,20,1610626768
85,16,18,Jits_Linear_8,3,5,56,103,1610682908
85,16,18,Jits_Linear_8,0,5,63,98,1611223336
85,16,18,Jits_Linear_8,1,1,48,21,1611261976
85,16,18,Jits_Linear_8,2,5,56,103,1611303272
85,16,18,Jits_Linear_8,3,5,80,127,1611363124
85,16,18,Jits_Linear_8,0,5,80,127,1611893172
85,16,18,Jits_Linear_8,1,1,48,22,1611915772
85,16,18,Jits_Linear_8,2,5,63,98,1611943368
85,16,18,Jits_Linear_8,3,5,56,103,1611972896
85,16,18,Jits_Linear_8,0,5,56,103,1612543296
85,16,18,Jits_Linear_8,1,5,63,98,1612592380
85,16,18,Jits_Linear_8,2,1,48,21,1612593348
85,16,18,Jits_Linear_8,3,5,80,127,1612602864
85,16,18,Jits_Linear_8,0,5,56,103,1613213004
85,16,18,Jits_Linear_8,1,1,48,21,1613228852
85,16,18,Jits_Linear_8,2,5,63,98,1613322540
85,16,18,Jits_Linear_8,3,5,80,127,1613343208
85,16,18,Jits_Linear_8,0,5,63,98,1613863136
85,16,18,Jits_Linear_8,1,5,80,127,1613912440
85,16,18,Jits_Linear_8,2,1,48,19,1613947496
85,16,18,Jits_Linear_8,3,5,56,103,1614002740
85,16,18,Jits_Linear_8,0,5,63,98,1614503308
85,16,18,Jits_Linear_8,1,5,80,127,1614532912
85,16,18,Jits_Linear_8,2,1,48,19,1614564876
85,16,18,Jits_Linear_8,3,5,56,103,1614622964
85,16,18,Jits_Linear_8,0,5,63,98,1615162788
85,16,18,Jits_Linear_8,1,1,48,20,1615168972
85,16,18,Jits_Linear_8,2,5,56,103,1615172828
85,16,18,Jits_Linear_8,3,5,80,127,1615273384
85,16,18,Jits_Linear_8,0,1,48,16,1615838508
85,16,18,Jits_Linear_8,1,5,63,98,1615913392
85,16,18,Jits_Linear_8,2,5,80,127,1615942904
85,16,18,Jits_Linear_8,3,5,56,103,1615972652
85,16,18,Jits_Linear_8,0,1,48,17,1616551680
85,16,18,Jits_Linear_8,1,5,80,127,1616572980
85,16,18,Jits_Linear_8,2,5,63,98,1616583176
85,16,18,Jits_Linear_8,3,5,56,103,1616612704
85,16,18,Jits_Linear_8,0,5,80,127,1617112524
85,16,18,Jits_Linear_8,1,5,63,98,1617132908
85,16,18,Jits_Linear_8,2,1,48,16,1617177008
85,16,18,Jits_Linear_8,3,5,56,103,1617183032
85,16,18,Jits_Linear_8,0,1,48,21,1617743140
85,16,18,Jits_Linear_8,1,5,63,98,1617783120
85,16,18,Jits_Linear_8,2,5,80,127,1617842900
85,16,18,Jits_Linear_8,3,5,56,103,1617862912
85,16,18,Jits_Linear_8,0,5,63,98,1618383348
85,16,18,Jits_Linear_8,1,1,48,15,1618399724
85,16,18,Jits_Linear_8,2,5,56,103,1618433472
85,16,18,Jits_Linear_8,3,5,80,127,1618442620
85,16,18,Jits_Linear_8,0,5,56,103,1619052868
85,16,18,Jits_Linear_8,1,5,80,127,1619063016
85,16,18,Jits_Linear_8,2,5,63,98,1619162588
85,16,18,Jits_Linear_8,0,5,80,127,1619652936
85,16,18,Jits_Linear_8,1,5,63,98,1619663356
85,16,18,Jits_Linear_8,2,1,48,28,1619759368
85,16,18,Jits_Linear_8,3,5,56,103,1619812740
85,16,18,Jits_Linear_8,0,5,63,98,1620292872
85,16,18,Jits_Linear_8,1,5,80,127,1620332888
85,16,18,Jits_Linear_8,2,1,48,24,1620405784
85,16,18,Jits_Linear_8,3,5,56,103,1620412852
85,16,18,Jits_Linear_8,0,5,56,103,1620912372
85,16,18,Jits_Linear_8,1,5,80,127,1621012772
85,16,18,Jits_Linear_8,2,1,48,22,1621025704
85,16,18,Jits_Linear_8,3,5,63,98,1621033524
85,16,18,Jits_Linear_8,0,5,80,127,1621602736
85,16,18,Jits_Linear_8,1,5,56,103,1621612860
85,16,18,Jits_Linear_8,2,1,48,20,1621687020
85,16,18,Jits_Linear_8,3,5,63,98,1621703084
85,16,18,Jits_Linear_8,0,5,56,103,1622232520
85,16,18,Jits_Linear_8,1,5,63,98,1622252904
85,16,18,Jits_Linear_8,2,1,48,23,1622301808
85,16,18,Jits_Linear_8,3,5,80,127,1622332840
85,16,18,Jits_Linear_8,0,5,63,98,1622823236
85,16,18,Jits_Linear_8,1,5,56,103,1622913248
85,16,18,Jits_Linear_8,2,5,80,127,1622916392
85,16,18,Jits_Linear_8,3,1,48,21,1622945584
85,16,18,Jits_Linear_8,0,5,56,103,1623472848
85,16,18,Jits_Linear_8,1,1,48,23,1623500012
85,16,18,Jits_Linear_8,2,5,80,127,1623532864
85,16,18,Jits_Linear_8,3,5,63,98,1623543208
85,16,18,Jits_Linear_8,0,1,48,24,1624098516
85,16,18,Jits_Linear_8,1,5,80,127,1624143280
85,16,18,Jits_Linear_8,2,5,56,103,1624152432
85,16,18,Jits_Linear_8,3,5,63,98,1624155720
85,16,18,Jits_Linear_8,0,5,56,103,1624722996
85,16,18,Jits_Linear_8,1,5,80,127,1624732968
85,16,18,Jits_Linear_8,2,5,63,98,1624752456
85,16,18,Jits_Linear_8,3,1,48,22,1624760680
85,16,18,Jits_Linear_8,0,5,63,98,1625312816
85,16,18,Jits_Linear_8,1,1,48,22,1625335784
85,16,18,Jits_Linear_8,2,5,80,127,1625373052
85,16,18,Jits_Linear_8,3,5,56,103,1625423104
85,16,18,Jits_Linear_8,0,1,48,21,1625948284
85,16,18,Jits_Linear_8,1,5,63,98,1626013000
85,16,18,Jits_Linear_8,2,5,56,103,1626023344
85,16,18,Jits_Linear_8,3,5,80,127,1626072484
85,16,18,Jits_Linear_8,0,5,63,98,1626523020
85,16,18,Jits_Linear_8,1,5,80,127,1626542656
85,16,18,Jits_Linear_8,2,5,56,103,1626552704
85,16,18,Jits_Linear_8,3,1,48,19,1626598744
85,16,18,Jits_Linear_8,0,1,48,25,1627114280
85,16,18,Jits_Linear_8,1,5,63,98,1627133260
85,16,18,Jits_Linear_8,2,5,80,127,1627136848
85,16,18,Jits_Linear_8,3,5,56,103,1627173348
85,16,18,Jits_Linear_8,0,1,48,23,1627668392
85,16,18,Jits_Linear_8,1,5,63,98,1627813264
85,16,18,Jits_Linear_8,2,5,80,127,1627842868
85,16,18,Jits_Linear_8,3,5,56,103,1627853064
85,16,18,Jits_Linear_8,0,5,56,103,1628373796
85,16,18,Jits_Linear_8,1,5,80,127,1628403100
85,16,18,Jits_Linear_8,2,5,63,98,1628432780
85,16,18,Jits_Linear_8,3,1,48,19,1628437544
85,16,18,Jits_Linear_8,0,1,48,21,1628962092
85,16,18,Jits_Linear_8,1,5,63,98,1629072712
85,16,18,Jits_Linear_8,2,5,56,103,1629112800
85,16,18,Jits_Linear_8,3,5,80,127,1629115792
85,16,18,Jits_Linear_8,0,5,80,127,1629572404
85,16,18,Jits_Linear_8,1,5,56,103,1629653472
85,16,18,Jits_Linear_8,2,1,48,19,1629658612
85,16,18,Jits_Linear_8,3,5,63,98,1629702696
85,16,18,Jits_Linear_8,0,5,80,127,1630153008
85,16,18,Jits_Linear_8,1,5,56,103,1630172796
85,16,18,Jits_Linear_8,2,1,48,22,1630255924
85,16,18,Jits_Linear_8,3,5,63,98,1630262696
85,16,18,Jits_Linear_8,0,5,80,127,1630793100
85,16,18,Jits_Linear_8,1,5,63,98,1630832992
85,16,18,Jits_Linear_8,2,1,48,20,1630872856
85,16,18,Jits_Linear_8,3,5,56,103,1630874344
85,16,18,Jits_Linear_8,0,5,63,98,1631362788
85,16,18,Jits_Linear_8,1,5,80,127,1631422736
85,16,18,Jits_Linear_8,2,5,56,103,1631452560
85,16,18,Jits_Linear_8,3,1,48,19,1631478668
85,16,18,Jits_Linear_8,0,5,56,103,1631962560
85,16,18,Jits_Linear_8,1,5,80,127,1631993060
85,16,18,Jits_Linear_8,2,1,48,21,1632051924
85,16,18,Jits_Linear_8,3,5,63,98,1632083408
85,16,18,Jits_Linear_8,0,5,56,103,1632562720
85,16,18,Jits_Linear_8,1,1,48,19,1632635836
85,16,18,Jits_Linear_8,2,5,80,127,1632673104
85,16,18,Jits_Linear_8,3,5,63,98,1632702780
85,16,18,Jits_Linear_8,0,5,56,103,1633202476
85,16,18,Jits_Linear_8,1,5,63,98,1633263016
85,16,18,Jits_Linear_8,2,1,48,18,1633287108
85,16,18,Jits_Linear_8,3,5,80,127,1633292608
85,16,18,Jits_Linear_8,0,5,56,103,1633762556
85,16,18,Jits_Linear_8,1,5,63,98,1633833436
85,16,18,Jits_Linear_8,2,5,80,127,1633852700
85,16,18,Jits_Linear_8,3,1,48,19,1633869744
85,16,18,Jits_Linear_8,0,5,80,127,1634322784
85,16,18,Jits_Linear_8,1,5,63,98,1634343248
85,16,18,Jits_Linear_8,2,5,56,103,1634392548
85,16,18,Jits_Linear_8,3,1,48,17,1634447156
85,16,18,Jits_Linear_8,0,5,63,98,1634933080
85,16,18,Jits_Linear_8,1,5,80,127,1634943576
85,16,18,Jits_Linear_8,2,5,56,103,1634992656
85,16,18,Jits_Linear_8,3,1,48,17,1634995996
85,16,18,Jits_Linear_8,0,5,63,98,1635512696
85,16,18,Jits_Linear_8,1,1,48,18,1635581996
85,16,18,Jits_Linear_8,2,5,80,127,1635583568
85,16,18,Jits_Linear_8,3,5,56,103,1635602904
85,16,18,Jits_Linear_8,0,5,63,98,1636122956
85,16,18,Jits_Linear_8,1,5,80,127,1636126168
85,16,18,Jits_Linear_8,2,1,48,19,1636192708
85,16,18,Jits_Linear_8,3,5,56,103,1636193972
85,16,18,Jits_Linear_8,0,5,80,127,1636653636
85,16,18,Jits_Linear_8,1,5,56,103,1636672752
85,16,18,Jits_Linear_8,2,5,63,98,1636683096
85,16,18,Jits_Linear_8,3,1,48,19,1636744600
85,16,18,Jits_Linear_8,0,1,48,14,1637232508
85,16,18,Jits_Linear_8,1,5,56,103,1637252388
85,16,18,Jits_Linear_8,2,5,63,98,1637342660
85,16,18,Jits_Linear_8,3,5,80,127,1637345876
85,16,18,Jits_Linear_8,0,5,80,127,1637803456
85,16,18,Jits_Linear_8,1,5,56,103,1637812680
85,16,18,Jits_Linear_8,2,5,63,98,1637833064
85,16,18,Jits_Linear_8,3,1,48,16,1637898208
85,16,18,Jits_Linear_8,0,5,63,98,1638372672
85,16,18,Jits_Linear_8,1,1,48,16,1638410416
85,16,18,Jits_Linear_8,2,5,80,127,1638433280
85,16,18,Jits_Linear_8,3,5,56,103,1638443700
85,16,18,Jits_Linear_8,0,1,48,16,1638975480
85,16,18,Jits_Linear_8,1,5,63,98,1639012748
85,16,18,Jits_Linear_8,2,5,80,127,1639042672
85,16,18,Jits_Linear_8,3,5,56,103,1639083568
85,16,18,Jits_Linear_8,0,5,56,103,1639572844
85,16,18,Jits_Linear_8,1,5,80,127,1639583192
85,16,18,Jits_Linear_8,2,1,48,16,1639585204
85,16,18,Jits_Linear_8,3,5,63,98,1639623124
85,16,18,Jits_Linear_8,0,5,80,127,1640103472
85,16,18,Jits_Linear_8,1,1,48,17,1640128164
85,16,18,Jits_Linear_8,2,5,56,103,1640183188
85,16,18,Jits_Linear_8,3,5,63,98,1640193388
85,16,18,Jits_Linear_8,0,5,80,127,1640712624
85,16,18,Jits_Linear_8,1,1,48,15,1640744592
85,16,18,Jits_Linear_8,2,5,56,103,1640792416
85,16,18,Jits_Linear_8,3,5,63,98,1640802612
85,16,18,Jits_Linear_8,0,5,80,127,1641232772
85,16,18,Jits_Linear_8,1,5,56,103,1641282900
85,16,18,Jits_Linear_8,2,5,63,98,1641333052
85,16,18,Jits_Linear_8,3,1,48,17,1641352436
85,16,18,Jits_Linear_8,0,5,56,103,1641853408
85,16,18,Jits_Linear_8,1,5,63,98,1641856548
85,16,18,Jits_Linear_8,2,1,48,20,1641882980
85,16,18,Jits_Linear_8,3,5,80,127,1641902556
85,16,18,Jits_Linear_8,0,1,48,18,1642404828
85,16,18,Jits_Linear_8,1,5,56,103,1642432732
85,16,18,Jits_Linear_8,2,5,63,98,1642462632
85,16,18,Jits_Linear_8,3,5,80,127,1642472904
85,16,18,Jits_Linear_8,0,5,63,98,1642902824
85,16,18,Jits_Linear_8,1,1,48,18,1642943784
85,16,18,Jits_Linear_8,2,5,56,103,1642972576
85,16,18,Jits_Linear_8,3,5,80,127,1643022704
85,16,18,Jits_Linear_8,0,5,63,98,1643492636
85,16,18,Jits_Linear_8,1,1,48,18,1643500388
85,16,18,Jits_Linear_8,2,5,56,103,1643503044
85,16,18,Jits_Linear_8,3,5,80,127,1643506112
85,16,18,Jits_Linear_8,0,5,80,127,1643992520
85,16,18,Jits_Linear_8,1,1,48,18,1644033776
85,16,18,Jits_Linear_8,2,5,56,103,1644052908
85,16,18,Jits_Linear_8,3,5,63,98,1644142948
85,16,18,Jits_Linear_8,0,5,80,127,1644543428
85,16,18,Jits_Linear_8,1,5,56,103,1644642708
85,16,18,Jits_Linear_8,2,1,48,20,1644680780
85,16,18,Jits_Linear_8,3,5,63,98,1644682516
85,16,18,Jits_Linear_8,0,5,56,103,1645143520
85,16,18,Jits_Linear_8,1,5,63,98,1645162784
85,16,18,Jits_Linear_8,2,5,80,127,1645202820
85,16,18,Jits_Linear_8,3,1,48,13,1645259948
85,16,18,Jits_Linear_8,0,5,63,98,1645662540
85,16,18,Jits_Linear_8,1,5,56,103,1645683024
85,16,18,Jits_Linear_8,2,5,80,127,1645783496
85,16,18,Jits_Linear_8,3,1,48,14,1645807888
85,16,18,Jits_Linear_8,0,5,63,98,1646193108
85,16,18,Jits_Linear_8,1,5,80,127,1646302724
85,16,18,Jits_Linear_8,2,5,56,103,1646333520
85,16,18,Jits_Linear_8,0,5,56,103,1646753280
85,16,18,Jits_Linear_8,1,5,63,98,1646782808
85,16,18,Jits_Linear_8,2,5,80,127,1646833084
85,16,18,Jits_Linear_8,0,1,48,16,1647189916
85,16,18,Jits_Linear_8,1,5,63,98,1647263032
85,16,18,Jits_Linear_8,2,5,56,103,1647292768
85,16,18,Jits_Linear_8,3,5,80,127,1647343048
85,16,18,Jits_Linear_8,0,5,56,103,1647832392
85,16,18,Jits_Linear_8,1,5,63,98,1647852928
85,16,18,Jits_Linear_8,2,1,48,21,1647855088
85,16,18,Jits_Linear_8,3,5,80,127,1647932864
85,16,18,Jits_Linear_8,0,5,63,98,1648343544
85,16,18,Jits_Linear_8,1,5,56,103,1648402740
85,16,18,Jits_Linear_8,2,5,80,127,1648432564
85,16,18,Jits_Linear_8,3,1,48,19,1648448864
85,16,18,Jits_Linear_8,0,5,56,103,1648922932
85,16,18,Jits_Linear_8,1,1,48,24,1648963068
85,16,18,Jits_Linear_8,2,5,80,127,1648983396
85,16,18,Jits_Linear_8,3,5,63,98,1649023508
85,16,18,Jits_Linear_8,0,5,63,98,1649433040
85,16,18,Jits_Linear_8,1,5,56,103,1649493284
85,16,18,Jits_Linear_8,2,1,48,22,1649541984
85,16,18,Jits_Linear_8,3,5,80,127,1649563208
85,16,18,Jits_Linear_8,0,5,56,103,1650043484
85,16,18,Jits_Linear_8,1,5,63,98,1650052480
85,16,18,Jits_Linear_8,2,5,80,127,1650055772
85,16,18,Jits_Linear_8,3,1,48,23,1650109908
85,16,18,Jits_Linear_8,0,5,63,98,1650513396
85,16,18,Jits_Linear_8,1,5,56,103,1650572616
85,16,18,Jits_Linear_8,2,5,80,127,1650575680
85,16,18,Jits_Linear_8,3,1,48,16,1650642484
85,16,18,Jits_Linear_8,0,5,63,98,1651023476
85,16,18,Jits_Linear_8,1,5,80,127,1651052856
85,16,18,Jits_Linear_8,2,5,56,103,1651073540
85,16,18,Jits_Linear_8,3,1,48,17,1651107972
85,16,18,Jits_Linear_8,0,1,48,19,1651515824
85,16,18,Jits_Linear_8,1,5,56,103,1651552716
85,16,18,Jits_Linear_8,2,5,63,98,1651602796
85,16,18,Jits_Linear_8,3,5,80,127,1651682800
85,16,18,Jits_Linear_8,0,5,80,127,1652053376
85,16,18,Jits_Linear_8,1,1,48,21,1652091596
85,16,18,Jits_Linear_8,2,5,63,98,1652093332
85,16,18,Jits_Linear_8,3,5,56,103,1652112744
85,16,18,Jits_Linear_8,0,1,48,19,1652613372
85,16,18,Jits_Linear_8,1,5,56,103,1652643360
85,16,18,Jits_Linear_8,2,5,80,127,1652653484
85,16,18,Jits_Linear_8,3,5,63,98,1652672748
85,16,18,Jits_Linear_8,0,5,56,103,1653142972
85,16,18,Jits_Linear_8,1,1,48,18,1653175232
85,16,18,Jits_Linear_8,2,5,63,98,1653193020
85,16,18,Jits_Linear_8,3,5,80,127,1653222696
85,16,18,Jits_Linear_8,0,5,56,103,1653613048
85,16,18,Jits_Linear_8,1,5,63,98,1653623344
85,16,18,Jits_Linear_8,2,5,80,127,1653673396
85,16,18,Jits_Linear_8,3,1,48,19,1653691508
85,16,18,Jits_Linear_8,0,5,56,103,1654122768
85,16,18,Jits_Linear_8,1,5,80,127,1654125912
85,16,18,Jits_Linear_8,2,1,48,18,1654192968
85,16,18,Jits_Linear_8,3,5,63,98,1654282668
85,16,18,Jits_Linear_8,0,5,63,98,1654653196
85,16,18,Jits_Linear_8,1,5,56,103,1654722880
85,16,18,Jits_Linear_8,2,1,48,17,1654754020
85,16,18,Jits_Linear_8,3,5,80,127,1654762960
85,16,18,Jits_Linear_8,0,5,63,98,1655203148
85,16,18,Jits_Linear_8,1,1,48,19,1655227696
85,16,18,Jits_Linear_8,2,5,56,103,1655293352
85,16,18,Jits_Linear_8,3,5,80,127,1655296420
85,16,18,Jits_Linear_8,0,5,56,103,1655692784
85,16,18,Jits_Linear_8,1,5,63,98,1655782772
85,16,18,Jits_Linear_8,2,5,80,127,1655793268
85,16,18,Jits_Linear_8,3,1,48,14,1655816836
85,16,18,Jits_Linear_8,0,5,56,103,1656173276
85,16,18,Jits_Linear_8,1,5,63,98,1656223352
85,16,18,Jits_Linear_8,2,5,80,127,1656252732
85,16,18,Jits_Linear_8,3,1,48,21,1656286112
85,16,18,Jits_Linear_8,0,5,63,98,1656762680
85,16,18,Jits_Linear_8,1,5,80,127,1656773024
85,16,18,Jits_Linear_8,2,1,48,17,1656790832
85,16,18,Jits_Linear_8,3,5,56,103,1656833332
85,16,18,Jits_Linear_8,0,5,63,98,1657182616
85,16,18,Jits_Linear_8,1,5,80,127,1657243404
85,16,18,Jits_Linear_8,2,5,56,103,1657283268
85,16,18,Jits_Linear_8,3,1,48,23,1657297624
85,16,18,Jits_Linear_8,0,5,56,103,1657782564
85,16,18,Jits_Linear_8,1,5,80,127,1657803396
85,16,18,Jits_Linear_8,2,1,48,19,1657809360
85,16,18,Jits_Linear_8,3,5,63,98,1657822432
85,16,18,Jits_Linear_8,0,5,63,98,1658202520
85,16,18,Jits_Linear_8,1,5,56,103,1658222856
85,16,18,Jits_Linear_8,2,5,80,127,1658262940
85,16,18,Jits_Linear_8,3,1,48,17,1658297072
85,16,18,Jits_Linear_8,0,5,63,98,1658712384
85,16,18,Jits_Linear_8,1,5,80,127,1658743352
85,16,18,Jits_Linear_8,2,5,56,103,1658762468
85,16,18,Jits_Linear_8,3,1,48,19,1658798020
85,16,18,Jits_Linear_8,0,5,80,127,1659182392
85,16,18,Jits_Linear_8,1,5,56,103,1659232744
85,16,18,Jits_Linear_8,2,5,63,98,1659293232
85,16,18,Jits_Linear_8,3,1,48,16,1659355164
85,16,18,Jits_Linear_8,0,5,63,98,1659662752
85,16,18,Jits_Linear_8,1,5,56,103,1659782584
85,16,18,Jits_Linear_8,2,1,48,18,1659794168
85,16,18,Jits_Linear_8,3,5,80,127,1659813224
85,16,18,Jits_Linear_8,0,5,80,127,1660193228
85,16,18,Jits_Linear_8,1,5,63,98,1660212640
85,16,18,Jits_Linear_8,2,1,48,18,1660235912
85,16,18,Jits_Linear_8,3,5,56,103,1660283236
85,16,18,Jits_Linear_8,0,5,63,98,1660703184
85,16,18,Jits_Linear_8,1,5,56,103,1660713232
85,16,18,Jits_Linear_8,2,1,48,19,1660714200
85,16,18,Jits_Linear_8,3,5,80,127,1660793192
85,16,18,Jits_Linear_8,0,1,48,18,1661182532
85,16,18,Jits_Linear_8,1,5,56,103,1661252984
85,16,18,Jits_Linear_8,2,5,80,127,1661283548
85,16,18,Jits_Linear_8,3,5,63,98,1661293140
85,16,18,Jits_Linear_8,0,9999,9999,9999,1550870596
85,16,18,Jits_Linear_8,1,9999,9999,9999,1551690832
85,16,18,Jits_Linear_8,2,9999,9999,9999,1552511092
85,16,18,Jits_Linear_8,3,9999,9999,9999,1553330264
85,16,18,Jits_Linear_8,4,9999,9999,9999,1554150480
85,16,18,Jits_Linear_8,5,9999,9999,9999,1554960504
85,16,18,Jits_Linear_8,6,9999,9999,9999,1555770444
85,16,18,Jits_Linear_8,7,9999,9999,9999,1556580480
85,16,18,Jits_Linear_8,8,9999,9999,9999,1557390452
85,16,18,Jits_Linear_8,9,9999,9999,9999,1558200380
85,16,18,Jits_Linear_8,10,9999,9999,9999,1559000156
85,16,18,Jits_Linear_8,11,9999,9999,9999,1559800956
85,16,18,Jits_Linear_8,12,9999,9999,9999,1560600656
85,16,18,Jits_Linear_8,13,9999,9999,9999,1561400424
85,16,18,Jits_Linear_8,14,9999,9999,9999,1562200168
85,16,18,Jits_Linear_8,15,9999,9999,9999,1562990696
85,16,18,Jits_Linear_8,16,9999,9999,9999,1563780188
85,16,18,Jits_Linear_8,17,9999,9999,9999,1564570732
85,16,18,Jits_Linear_8,18,9999,9999,9999,1565360232
85,16,18,Jits_Linear_8,19,9999,9999,9999,1566150712
85,16,18,Jits_Linear_8,20,9999,9999,9999,1566931060
85,16,18,Jits_Linear_8,21,9999,9999,9999,1567710284
85,16,18,Jits_Linear_8,22,9999,9999,9999,1568490564
85,16,18,Jits_Linear_8,23,9999,9999,9999,1569270852
85,16,18,Jits_Linear_8,24,9999,9999,9999,1570050152
85,16,18,Jits_Linear_8,25,9999,9999,9999,1570820164
85,16,18,Jits_Linear_8,26,9999,9999,9999,1571590252
85,16,18,Jits_Linear_8,27,9999,9999,9999,1572360268
85,16,18,Jits_Linear_8,28,9999,9999,9999,1573130364
85,16,18,Jits_Linear_8,29,9999,9999,9999,1573900388
85,16,18,Jits_Linear_8,30,9999,9999,9999,1574660208
85,16,18,Jits_Linear_8,31,9999,9999,9999,1575421000
85,16,18,Jits_Linear_8,32,9999,9999,9999,1576180832
85,16,18,Jits_Linear_8,33,9999,9999,9999,1576940660
85,16,18,Jits_Linear_8,34,9999,9999,9999,1577700424
85,16,18,Jits_Linear_8,35,9999,9999,9999,1578451036
85,16,18,Jits_Linear_8,36,9999,9999,9999,1579200600
85,16,18,Jits_Linear_8,37,9999,9999,9999,1579950176
85,16,18,Jits_Linear_8,38,9999,9999,9999,1580700776
85,16,18,Jits_Linear_8,39,9999,9999,9999,1581450356
85,16,18,Jits_Linear_8,40,9999,9999,9999,1582190692
85,16,18,Jits_Linear_8,41,9999,9999,9999,1582931044
85,16,18,Jits_Linear_8,42,9999,9999,9999,1583670336
85,16,18,Jits_Linear_8,43,9999,9999,9999,1584410684
85,16,18,Jits_Linear_8,44,9999,9999,9999,1585151084
85,16,18,Jits_Linear_8,45,9999,9999,9999,1585880120
85,16,18,Jits_Linear_8,46,9999,9999,9999,1586610292
85,16,18,Jits_Linear_8,47,9999,9999,9999,1587340380
85,16,18,Jits_Linear_8,48,9999,9999,9999,1588070524
85,16,18,Jits_Linear_8,49,9999,9999,9999,1588800612
85,16,18,Jits_Linear_8,50,9999,9999,9999,1589520504
85,16,18,Jits_Linear_8,51,9999,9999,9999,1590240336
85,16,18,Jits_Linear_8,52,9999,9999,9999,1590960228
85,16,18,Jits_Linear_8,53,9999,9999,9999,1591680128
85,16,18,Jits_Linear_8,54,9999,9999,9999,1592400960
85,16,18,Jits_Linear_8,55,9999,9999,9999,1593110604
85,16,18,Jits_Linear_8,56,9999,9999,9999,1593820228
85,16,18,Jits_Linear_8,57,9999,9999,9999,1594530920
85,16,18,Jits_Linear_8,58,9999,9999,9999,1595240524
85,16,18,Jits_Linear_8,59,9999,9999,9999,1595950144
85,16,18,Jits_Linear_8,60,9999,9999,9999,1596650616
85,16,18,Jits_Linear_8,61,9999,9999,9999,1597350976
85,16,18,Jits_Linear_8,62,9999,9999,9999,1598050400
85,16,18,Jits_Linear_8,63,9999,9999,9999,1598750800
85,16,18,Jits_Linear_8,64,9999,9999,9999,1599450188
85,16,18,Jits_Linear_8,65,9999,9999,9999,1600140416
85,16,18,Jits_Linear_8,66,9999,9999,9999,1600830556
85,16,18,Jits_Linear_8,67,9999,9999,9999,1601520712
85,16,18,Jits_Linear_8,68,9999,9999,9999,1602210932
85,16,18,Jits_Linear_8,69,9999,9999,9999,1602901072
85,16,18,Jits_Linear_8,70,9999,9999,9999,1603581036
85,16,18,Jits_Linear_8,71,9999,9999,9999,1604260928
85,16,18,Jits_Linear_8,72,9999,9999,9999,1604940860
85,16,18,Jits_Linear_8,73,9999,9999,9999,1605620808
85,16,18,Jits_Linear_8,74,9999,9999,9999,1606300788
85,16,18,Jits_Linear_8,75,9999,9999,9999,1606970464
85,16,18,Jits_Linear_8,76,9999,9999,9999,1607640168
85,16,18,Jits_Linear_8,77,9999,9999,9999,1608310852
85,16,18,Jits_Linear_8,78,9999,9999,9999,1608980592
85,16,18,Jits_Linear_8,79,9999,9999,9999,1609650300
85,16,18,Jits_Linear_8,80,9999,9999,9999,1610310756
85,16,18,Jits_Linear_8,81,9999,9999,9999,1610970184
85,16,18,Jits_Linear_8,82,9999,9999,9999,1611630708
85,16,18,Jits_Linear_8,83,9999,9999,9999,1612290128
85,16,18,Jits_Linear_8,84,9999,9999,9999,1612950616
85,16,18,Jits_Linear_8,85,9999,9999,9999,1613600828
85,16,18,Jits_Linear_8,86,9999,9999,9999,1614251132
85,16,18,Jits_Linear_8,87,9999,9999,9999,1614910536
85,16,18,Jits_Linear_8,88,9999,9999,9999,1615560820
85,16,18,Jits_Linear_8,89,9999,9999,9999,1616211016
85,16,18,Jits_Linear_8,90,9999,9999,9999,1616851052
85,16,18,Jits_Linear_8,91,9999,9999,9999,1617491052
85,16,18,Jits_Linear_8,92,9999,9999,9999,1618131020
85,16,18,Jits_Linear_8,93,9999,9999,9999,1618771016
85,16,18,Jits_Linear_8,94,9999,9999,9999,1619411068
85,16,18,Jits_Linear_8,95,9999,9999,9999,1620040828
85,16,18,Jits_Linear_8,96,9999,9999,9999,1620670532
85,16,18,Jits_Linear_8,97,9999,9999,9999,1621300344
85,16,18,Jits_Linear_8,98,9999,9999,9999,1621931100
85,16,18,Jits_Linear_8,99,9999,9999,9999,1622571120
85,16,18,Jits_Linear_8,100,9999,9999,9999,1623200888
85,16,18,Jits_Linear_8,101,9999,9999,9999,1623820368
85,16,18,Jits_Linear_8,102,9999,9999,9999,1624440924
85,16,18,Jits_Linear_8,103,9999,9999,9999,1625060472
85,16,18,Jits_Linear_8,104,9999,9999,9999,1625681008
85,16,18,Jits_Linear_8,105,9999,9999,9999,1626290248
85,16,18,Jits_Linear_8,106,9999,9999,9999,1626900572
85,16,18,Jits_Linear_8,107,9999,9999,9999,1627510908
85,16,18,Jits_Linear_8,108,9999,9999,9999,1628120124
85,16,18,Jits_Linear_8,109,9999,9999,9999,1628730456
85,16,18,Jits_Linear_8,110,9999,9999,9999,1629330492
85,16,18,Jits_Linear_8,111,9999,9999,9999,1629930560
85,16,18,Jits_Linear_8,112,9999,9999,9999,1630530640
85,16,18,Jits_Linear_8,113,9999,9999,9999,1631130752
85,16,18,Jits_Linear_8,114,9999,9999,9999,1631730760
85,16,18,Jits_Linear_8,115,9999,9999,9999,1632320640
85,16,18,Jits_Linear_8,116,9999,9999,9999,1632910420
85,16,18,Jits_Linear_8,117,9999,9999,9999,1633500248
85,16,18,Jits_Linear_8,118,9999,9999,9999,1634091120
85,16,18,Jits_Linear_8,119,9999,9999,9999,1634690100
85,16,18,Jits_Linear_8,120,9999,9999,9999,1635270780
85,16,18,Jits_Linear_8,121,9999,9999,9999,1635850324
85,16,18,Jits_Linear_8,122,9999,9999,9999,1636430904
85,16,18,Jits_Linear_8,123,9999,9999,9999,1637010536
85,16,18,Jits_Linear_8,124,9999,9999,9999,1637590092
85,16,18,Jits_Linear_8,125,9999,9999,9999,1638160484
85,16,18,Jits_Linear_8,126,9999,9999,9999,1638730824
85,16,18,Jits_Linear_8,127,9999,9999,9999,1639300212
85,16,18,Jits_Linear_8,128,9999,9999,9999,1639870540
85,16,18,Jits_Linear_8,129,9999,9999,9999,1640440952
85,16,18,Jits_Linear_8,130,9999,9999,9999,1641001036
85,16,18,Jits_Linear_8,131,9999,9999,9999,1641560136
85,16,18,Jits_Linear_8,132,9999,9999,9999,1642120308
85,16,18,Jits_Linear_8,133,9999,9999,9999,1642680392
85,16,18,Jits_Linear_8,134,9999,9999,9999,1643240528
85,16,18,Jits_Linear_8,135,9999,9999,9999,1643790392
85,16,18,Jits_Linear_8,136,9999,9999,9999,1644340316
85,16,18,Jits_Linear_8,137,9999,9999,9999,1644890204
85,16,18,Jits_Linear_8,138,9999,9999,9999,1645440120
85,16,18,Jits_Linear_8,139,9999,9999,9999,1645990976
85,16,18,Jits_Linear_8,140,9999,9999,9999,1646530688
85,16,18,Jits_Linear_8,141,9999,9999,9999,1647070328
85,16,18,Jits_Linear_8,142,9999,9999,9999,1647611004
85,16,18,Jits_Linear_8,143,9999,9999,9999,1648150616
85,16,18,Jits_Linear_8,144,9999,9999,9999,1648690236
85,16,18,Jits_Linear_8,145,9999,9999,9999,1649220708
85,16,18,Jits_Linear_8,146,9999,9999,9999,1649750072
85,16,18,Jits_Linear_8,147,9999,9999,9999,1650280540
85,16,18,Jits_Linear_8,148,9999,9999,9999,1650810956
85,16,18,Jits_Linear_8,149,9999,9999,9999,1651340356
85,16,18,Jits_Linear_8,150,9999,9999,9999,1651860564
85,16,18,Jits_Linear_8,151,9999,9999,9999,1652380764
85,16,18,Jits_Linear_8,152,9999,9999,9999,1652900984
85,16,18,Jits_Linear_8,153,9999,9999,9999,1653420148
85,16,18,Jits_Linear_8,154,9999,9999,9999,1653940284
85,16,18,Jits_Linear_8,155,9999,9999,9999,1654450228
85,16,18,Jits_Linear_8,156,9999,9999,9999,1654960188
85,16,18,Jits_Linear_8,157,9999,9999,9999,1655470204
85,16,18,Jits_Linear_8,158,9999,9999,9999,1655980148
85,16,18,Jits_Linear_8,159,9999,9999,9999,1656491076
85,16,18,Jits_Linear_8,160,9999,9999,9999,1657001040
85,16,18,Jits_Linear_8,161,9999,9999,9999,1657500792
85,16,18,Jits_Linear_8,162,9999,9999,9999,1658000476
85,16,18,Jits_Linear_8,163,9999,9999,9999,1658500164
85,16,18,Jits_Linear_8,164,9999,9999,9999,1659000888
85,16,18,Jits_Linear_8,165,9999,9999,9999,1659490428
85,16,18,Jits_Linear_8,166,9999,9999,9999,1659980908
85,16,18,Jits_Linear_8,167,9999,9999,9999,1660470324
85,16,18,Jits_Linear_8,168,9999,9999,9999,1660960876
85,16,18,Jits_Linear_8,169,9999,9999,9999,1661450304
85,17,16,Jits_ISO_5,0,5,56,103,1669926332
85,17,16,Jits_ISO_5,1,5,63,98,1669929204
85,17,16,Jits_ISO_5,2,5,80,127,1669932480
85,17,16,Jits_ISO_5,0,5,56,103,1670425904
85,17,16,Jits_ISO_5,1,5,63,98,1670429000
85,17,16,Jits_ISO_5,2,5,80,127,1670432048
85,17,16,Jits_ISO_5,0,1,48,30,1670871656
85,17,16,Jits_ISO_5,1,5,56,103,1670925560
85,17,16,Jits_ISO_5,2,5,80,127,1670935980
85,17,16,Jits_ISO_5,3,5,63,98,1670956364
85,17,16,Jits_ISO_5,0,5,63,98,1671376152
85,17,16,Jits_ISO_5,1,1,48,28,1671385496
85,17,16,Jits_ISO_5,2,5,80,127,1671405972
85,17,16,Jits_ISO_5,3,5,56,103,1671416168
85,17,16,Jits_ISO_5,0,1,48,29,1671863424
85,17,16,Jits_ISO_5,1,5,80,127,1671936336
85,17,16,Jits_ISO_5,2,5,56,103,1671945560
85,17,16,Jits_ISO_5,3,5,63,98,1671976268
85,17,16,Jits_ISO_5,0,5,63,98,1672426044
85,17,16,Jits_ISO_5,1,1,48,26,1672442416
85,17,16,Jits_ISO_5,2,5,56,103,1672455488
85,17,16,Jits_ISO_5,3,5,80,127,1672466128
85,17,16,Jits_ISO_5,0,5,56,103,1672876256
85,17,16,Jits_ISO_5,1,1,48,23,1672914972
85,17,16,Jits_ISO_5,2,5,63,98,1672925700
85,17,16,Jits_ISO_5,3,5,80,127,1672946084
85,17,16,Jits_ISO_5,0,1,48,24,1673375752
85,17,16,Jits_ISO_5,1,5,80,127,1673386408
85,17,16,Jits_ISO_5,2,5,63,98,1673435488
85,17,16,Jits_ISO_5,3,5,56,103,1673475336
85,17,16,Jits_ISO_5,0,5,56,103,1673886000
85,17,16,Jits_ISO_5,1,1,48,24,1673901552
85,17,16,Jits_ISO_5,2,5,63,98,1673915968
85,17,16,Jits_ISO_5,3,5,80,127,1673986468
85,17,16,Jits_ISO_5,0,5,56,103,1674385972
85,17,16,Jits_ISO_5,1,1,48,27,1674399352
85,17,16,Jits_ISO_5,2,5,80,127,1674446280
85,17,16,Jits_ISO_5,3,5,63,98,1674475952
85,17,16,Jits_ISO_5,0,5,56,103,1674895984
85,17,16,Jits_ISO_5,1,5,63,98,1674906108
85,17,16,Jits_ISO_5,2,1,48,26,1674914104
85,17,16,Jits_ISO_5,3,5,80,127,1674945888
85,17,16,Jits_ISO_5,0,1,48,27,1675385840
85,17,16,Jits_ISO_5,1,5,63,98,1675387332
85,17,16,Jits_ISO_5,2,5,80,127,1675466228
85,17,16,Jits_ISO_5,3,5,56,103,1675476276
85,17,16,Jits_ISO_5,0,5,63,98,1675936148
85,17,16,Jits_ISO_5,1,1,48,25,1675950428
85,17,16,Jits_ISO_5,2,5,56,103,1675976004
85,17,16,Jits_ISO_5,3,5,80,127,1675979144
85,17,16,Jits_ISO_5,0,5,56,103,1676396144
85,17,16,Jits_ISO_5,1,5,63,98,1676406140
85,17,16,Jits_ISO_5,2,1,48,27,1676430460
85,17,16,Jits_ISO_5,3,5,80,127,1676446068
85,17,16,Jits_ISO_5,0,1,48,26,1676881092
85,17,16,Jits_ISO_5,1,5,56,103,1676886588
85,17,16,Jits_ISO_5,2,5,63,98,1676889652
85,17,16,Jits_ISO_5,3,5,80,127,1676906072
85,17,16,Jits_ISO_5,0,1,48,25,1677360056
85,17,16,Jits_ISO_5,1,5,80,127,1677405416
85,17,16,Jits_ISO_5,2,5,56,103,1677415984
85,17,16,Jits_ISO_5,3,5,63,98,1677485300
85,17,16,Jits_ISO_5,0,5,63,98,1677896012
85,17,16,Jits_ISO_5,1,5,56,103,1677915500
85,17,16,Jits_ISO_5,2,1,48,28,1677937072
85,17,16,Jits_ISO_5,3,5,80,127,1677996428
85,17,16,Jits_ISO_5,0,1,48,24,1678404036
85,17,16,Jits_ISO_5,1,5,56,103,1678406000
85,17,16,Jits_ISO_5,2,5,80,127,1678445888
85,17,16,Jits_ISO_5,3,5,63,98,1678456304
85,17,16,Jits_ISO_5,0,5,80,127,1678895392
85,17,16,Jits_ISO_5,1,1,48,21,1678897328
85,17,16,Jits_ISO_5,2,5,63,98,1678926328
85,17,16,Jits_ISO_5,3,5,56,103,1678966068
85,17,16,Jits_ISO_5,0,1,48,27,1679398096
85,17,16,Jits_ISO_5,1,5,56,103,1679415804
85,17,16,Jits_ISO_5,2,5,63,98,1679446452
85,17,16,Jits_ISO_5,3,5,80,127,1679495464
85,17,16,Jits_ISO_5,0,5,80,127,1679916368
85,17,16,Jits_ISO_5,1,1,48,21,1679931016
85,17,16,Jits_ISO_5,2,5,56,103,1679956224
85,17,16,Jits_ISO_5,3,5,63,98,1679965520
85,17,16,Jits_ISO_5,0,5,80,127,1680395808
85,17,16,Jits_ISO_5,1,5,63,98,1680435524
85,17,16,Jits_ISO_5,2,1,48,24,1680450100
85,17,16,Jits_ISO_5,3,5,56,103,1680495856
85,17,16,Jits_ISO_5,0,5,56,103,1680896376
85,17,16,Jits_ISO_5,1,5,80,127,1680905900
85,17,16,Jits_ISO_5,2,1,48,22,1680945584
85,17,16,Jits_ISO_5,3,5,63,98,1680985384
85,17,16,Jits_ISO_5,0,5,80,127,1681396192
85,17,16,Jits_ISO_5,1,1,48,23,1681422980
85,17,16,Jits_ISO_5,2,5,63,98,1681455456
85,17,16,Jits_ISO_5,3,5,56,103,1681486176
85,17,16,Jits_ISO_5,0,5,56,103,1681896008
85,17,16,Jits_ISO_5,1,1,48,24,1681916512
85,17,16,Jits_ISO_5,2,5,80,127,1681956096
85,17,16,Jits_ISO_5,3,5,63,98,1681996032
85,17,16,Jits_ISO_5,0,5,56,103,1682445876
85,17,16,Jits_ISO_5,1,1,48,26,1682450940
85,17,16,Jits_ISO_5,2,5,63,98,1682455916
85,17,16,Jits_ISO_5,3,5,80,127,1682459276
85,17,16,Jits_ISO_5,0,5,80,127,1682896168
85,17,16,Jits_ISO_5,1,1,48,27,1682924536
85,17,16,Jits_ISO_5,2,5,63,98,1682986292
85,17,16,Jits_ISO_5,3,5,56,103,1682995664
85,17,16,Jits_ISO_5,0,5,56,103,1683395900
85,17,16,Jits_ISO_5,1,5,63,98,1683398920
85,17,16,Jits_ISO_5,2,5,80,127,1683402116
85,17,16,Jits_ISO_5,3,1,48,27,1683459256
85,17,16,Jits_ISO_5,0,5,80,127,1683916088
85,17,16,Jits_ISO_5,1,1,48,19,1683948800
85,17,16,Jits_ISO_5,2,5,63,98,1683966356
85,17,16,Jits_ISO_5,3,5,56,103,1683996032
85,17,16,Jits_ISO_5,0,5,56,103,1684396508
85,17,16,Jits_ISO_5,1,5,80,127,1684405880
85,17,16,Jits_ISO_5,2,1,48,22,1684451620
85,17,16,Jits_ISO_5,3,5,63,98,1684476224
85,17,16,Jits_ISO_5,0,5,56,103,1684915732
85,17,16,Jits_ISO_5,1,1,48,26,1684921316
85,17,16,Jits_ISO_5,2,5,63,98,1684936032
85,17,16,Jits_ISO_5,3,5,80,127,1684995300
85,17,16,Jits_ISO_5,0,5,80,127,1685406036
85,17,16,Jits_ISO_5,1,1,48,27,1685426012
85,17,16,Jits_ISO_5,2,5,63,98,1685476080
85,17,16,Jits_ISO_5,3,5,56,103,1685496164
85,17,16,Jits_ISO_5,0,1,48,24,1685920056
85,17,16,Jits_ISO_5,1,5,80,127,1685926452
85,17,16,Jits_ISO_5,2,5,56,103,1685935452
85,17,16,Jits_ISO_5,3,5,63,98,1685945796
85,17,16,Jits_ISO_5,0,5,80,127,1686415920
85,17,16,Jits_ISO_5,1,5,56,103,1686436156
85,17,16,Jits_ISO_5,2,1,48,29,1686439276
85,17,16,Jits_ISO_5,3,5,63,98,1686505900
85,17,16,Jits_ISO_5,0,1,48,25,1686918480
85,17,16,Jits_ISO_5,1,5,56,103,1686925848
85,17,16,Jits_ISO_5,2,5,80,127,1686956348
85,17,16,Jits_ISO_5,3,5,63,98,1686975832
85,17,16,Jits_ISO_5,0,1,48,24,1687405780
85,17,16,Jits_ISO_5,1,5,63,98,1687416140
85,17,16,Jits_ISO_5,2,5,56,103,1687475780
85,17,16,Jits_ISO_5,3,5,80,127,1687506188
85,17,16,Jits_ISO_5,0,5,63,98,1687905892
85,17,16,Jits_ISO_5,1,5,80,127,1687909032
85,17,16,Jits_ISO_5,2,1,48,23,1687923788
85,17,16,Jits_ISO_5,3,5,56,103,1687995664
85,17,16,Jits_ISO_5,0,1,48,28,1688407752
85,17,16,Jits_ISO_5,1,5,56,103,1688425912
85,17,16,Jits_ISO_5,2,5,63,98,1688455612
85,17,16,Jits_ISO_5,3,5,80,127,1688495548
85,17,16,Jits_ISO_5,0,1,48,27,1688931300
85,17,16,Jits_ISO_5,1,5,63,98,1688935756
85,17,16,Jits_ISO_5,2,5,56,103,1688975868
85,17,16,Jits_ISO_5,3,5,80,127,1688996176
85,17,16,Jits_ISO_5,0,1,48,30,1689417704
85,17,16,Jits_ISO_5,1,5,63,98,1689445680
85,17,16,Jits_ISO_5,2,5,56,103,1689485864
85,17,16,Jits_ISO_5,3,5,80,127,1689496060
85,17,16,Jits_ISO_5,0,5,80,127,1689925940
85,17,16,Jits_ISO_5,1,1,48,26,1689952580
85,17,16,Jits_ISO_5,2,5,63,98,1689995864
85,17,16,Jits_ISO_5,3,5,56,103,1690016024
85,17,16,Jits_ISO_5,0,5,56,103,1690415644
85,17,16,Jits_ISO_5,1,1,48,24,1690429848
85,17,16,Jits_ISO_5,2,5,80,127,1690436020
85,17,16,Jits_ISO_5,3,5,63,98,1690475880
85,17,16,Jits_ISO_5,0,1,48,25,1690882604
85,17,16,Jits_ISO_5,1,5,63,98,1690925792
85,17,16,Jits_ISO_5,2,5,80,127,1690945804
85,17,16,Jits_ISO_5,3,5,56,103,1690985800
85,17,16,Jits_ISO_5,0,1,48,27,1691426128
85,17,16,Jits_ISO_5,1,5,63,98,1691427464
85,17,16,Jits_ISO_5,2,5,56,103,1691445680
85,17,16,Jits_ISO_5,3,5,80,127,1691455728
85,17,16,Jits_ISO_5,0,1,48,23,1691897880
85,17,16,Jits_ISO_5,1,5,80,127,1691925924
85,17,16,Jits_ISO_5,2,5,56,103,1691946308
85,17,16,Jits_ISO_5,3,5,63,98,1691976132
85,17,16,Jits_ISO_5,0,1,48,25,1692425180
85,17,16,Jits_ISO_5,1,5,56,103,1692496228
85,17,16,Jits_ISO_5,2,5,80,127,1692499292
85,17,16,Jits_ISO_5,3,5,63,98,1692515712
85,17,16,Jits_ISO_5,0,5,63,98,1692916096
85,17,16,Jits_ISO_5,1,1,48,25,1692936232
85,17,16,Jits_ISO_5,2,5,56,103,1692945764
85,17,16,Jits_ISO_5,3,5,80,127,1693006076
85,17,16,Jits_ISO_5,0,1,48,26,1693394300
85,17,16,Jits_ISO_5,1,5,63,98,1693495896
85,17,16,Jits_ISO_5,2,5,56,103,1693505944
85,17,16,Jits_ISO_5,3,5,80,127,1693516064
85,17,16,Jits_ISO_5,0,1,48,26,1693943764
85,17,16,Jits_ISO_5,1,5,56,103,1693946200
85,17,16,Jits_ISO_5,2,5,80,127,1693975876
85,17,16,Jits_ISO_5,3,5,63,98,1693986072
85,17,16,Jits_ISO_5,0,1,48,25,1694434752
85,17,16,Jits_ISO_5,1,5,63,98,1694485940
85,17,16,Jits_ISO_5,2,5,56,103,1694496212
85,17,16,Jits_ISO_5,3,5,80,127,1694515548
85,17,16,Jits_ISO_5,0,5,56,103,1694915936
85,17,16,Jits_ISO_5,1,1,48,26,1694937632
85,17,16,Jits_ISO_5,2,5,63,98,1694976316
85,17,16,Jits_ISO_5,3,5,80,127,1694979604
85,17,16,Jits_ISO_5,0,1,48,24,1695404556
85,17,16,Jits_ISO_5,1,5,80,127,1695436044
85,17,16,Jits_ISO_5,2,5,56,103,1695446612
85,17,16,Jits_ISO_5,3,5,63,98,1695515976
85,17,16,Jits_ISO_5,0,1,48,24,1695918296
85,17,16,Jits_ISO_5,1,5,80,127,1695925812
85,17,16,Jits_ISO_5,2,5,56,103,1695996392
85,17,16,Jits_ISO_5,3,5,63,98,1696005540
85,17,16,Jits_ISO_5,0,1,48,27,1696464264
85,17,16,Jits_ISO_5,1,5,63,98,1696475596
85,17,16,Jits_ISO_5,2,5,56,103,1696485716
85,17,16,Jits_ISO_5,3,5,80,127,1696506172
85,17,16,Jits_ISO_5,0,5,80,127,1696926036
85,17,16,Jits_ISO_5,1,1,48,27,1696975912
85,17,16,Jits_ISO_5,2,5,63,98,1696985668
85,17,16,Jits_ISO_5,3,5,56,103,1697026652
85,17,16,Jits_ISO_5,0,1,48,28,1697465644
85,17,16,Jits_ISO_5,1,5,56,103,1697467056
85,17,16,Jits_ISO_5,2,5,63,98,1697475832
85,17,16,Jits_ISO_5,3,5,80,127,1697515844
85,17,16,Jits_ISO_5,0,5,56,103,1697925664
85,17,16,Jits_ISO_5,1,5,80,127,1697956164
85,17,16,Jits_ISO_5,2,1,48,28,1697958832
85,17,16,Jits_ISO_5,3,5,63,98,1698006432
85,17,16,Jits_ISO_5,0,1,48,28,1698458340
85,17,16,Jits_ISO_5,1,5,56,103,1698466532
85,17,16,Jits_ISO_5,2,5,63,98,1698506020
85,17,16,Jits_ISO_5,3,5,80,127,1698509384
85,17,16,Jits_ISO_5,0,1,48,26,1698931388
85,17,16,Jits_ISO_5,1,5,56,103,1698965736
85,17,16,Jits_ISO_5,2,5,63,98,1698976380
85,17,16,Jits_ISO_5,3,5,80,127,1698995788
85,17,16,Jits_ISO_5,0,1,48,25,1699402852
85,17,16,Jits_ISO_5,1,5,56,103,1699425660
85,17,16,Jits_ISO_5,2,5,80,127,1699428724
85,17,16,Jits_ISO_5,3,5,63,98,1699465472
85,17,16,Jits_ISO_5,0,1,48,25,1699918380
85,17,16,Jits_ISO_5,1,5,63,98,1699966608
85,17,16,Jits_ISO_5,2,5,56,103,1699996060
85,17,16,Jits_ISO_5,3,5,80,127,1700015620
85,17,16,Jits_ISO_5,0,1,48,26,1700417820
85,17,16,Jits_ISO_5,1,5,80,127,1700445644
85,17,16,Jits_ISO_5,2,5,56,103,1700455688
85,17,16,Jits_ISO_5,3,5,63,98,1700465984
85,17,16,Jits_ISO_5,0,1,48,29,1700925496
85,17,16,Jits_ISO_5,1,5,56,103,1700946416
85,17,16,Jits_ISO_5,2,5,80,127,1700986304
85,17,16,Jits_ISO_5,3,5,63,98,1701015828
85,17,16,Jits_ISO_5,0,1,48,28,1701450684
85,17,16,Jits_ISO_5,1,5,63,98,1701456264
85,17,16,Jits_ISO_5,2,5,80,127,1701465412
85,17,16,Jits_ISO_5,3,5,56,103,1701475832
85,17,16,Jits_ISO_5,0,5,56,103,1701935616
85,17,16,Jits_ISO_5,1,1,48,27,1701994108
85,17,16,Jits_ISO_5,2,5,63,98,1702005992
85,17,16,Jits_ISO_5,3,5,80,127,1702016632
85,17,16,Jits_ISO_5,0,1,48,28,1702414512
85,17,16,Jits_ISO_5,1,5,80,127,1702436260
85,17,16,Jits_ISO_5,2,5,56,103,1702445704
85,17,16,Jits_ISO_5,3,5,63,98,1702495756
85,17,16,Jits_ISO_5,0,1,48,28,1702942924
85,17,16,Jits_ISO_5,1,5,80,127,1702946252
85,17,16,Jits_ISO_5,2,5,56,103,1703005596
85,17,16,Jits_ISO_5,3,5,63,98,1703036548
85,17,16,Jits_ISO_5,0,1,48,27,1703434052
85,17,16,Jits_ISO_5,1,5,56,103,1703445836
85,17,16,Jits_ISO_5,2,5,80,127,1703448900
85,17,16,Jits_ISO_5,3,5,63,98,1703485772
85,17,16,Jits_ISO_5,0,1,48,29,1703956172
85,17,16,Jits_ISO_5,1,5,56,103,1703976572
85,17,16,Jits_ISO_5,2,5,63,98,1704005876
85,17,16,Jits_ISO_5,3,5,80,127,1704016440
85,17,16,Jits_ISO_5,0,1,48,27,1704485980
85,17,16,Jits_ISO_5,1,5,63,98,1704487392
85,17,16,Jits_ISO_5,2,5,80,127,1704495644
85,17,16,Jits_ISO_5,3,5,56,103,1704505764
85,17,16,Jits_ISO_5,0,5,80,127,1704935740
85,17,16,Jits_ISO_5,1,1,48,32,1704977596
85,17,16,Jits_ISO_5,2,5,56,103,1704986080
85,17,16,Jits_ISO_5,3,5,63,98,1704989148
85,17,16,Jits_ISO_5,0,5,56,103,1705466564
85,17,16,Jits_ISO_5,1,1,48,30,1705482568
85,17,16,Jits_ISO_5,2,5,80,127,1705485748
85,17,16,Jits_ISO_5,3,5,63,98,1705495792
85,17,16,Jits_ISO_5,0,5,63,98,1705945636
85,17,16,Jits_ISO_5,1,1,48,31,1705960288
85,17,16,Jits_ISO_5,2,5,56,103,1705976424
85,17,16,Jits_ISO_5,3,5,80,127,1705995540
85,17,16,Jits_ISO_5,0,5,56,103,1706456380
85,17,16,Jits_ISO_5,1,5,80,127,1706465528
85,17,16,Jits_ISO_5,2,1,48,31,1706489244
85,17,16,Jits_ISO_5,3,5,63,98,1706536468
85,17,16,Jits_ISO_5,0,5,63,98,1706945864
85,17,16,Jits_ISO_5,1,5,80,127,1706985724
85,17,16,Jits_ISO_5,2,1,48,33,1707019104
85,17,16,Jits_ISO_5,3,5,56,103,1707025728
85,17,16,Jits_ISO_5,0,5,56,103,1707455708
85,17,16,Jits_ISO_5,1,5,63,98,1707466200
85,17,16,Jits_ISO_5,2,5,80,127,1707485464
85,17,16,Jits_ISO_5,3,1,48,29,1707488284
85,17,16,Jits_ISO_5,0,1,48,29,1707950992
85,17,16,Jits_ISO_5,1,5,63,98,1708005720
85,17,16,Jits_ISO_5,2,5,80,127,1708026476
85,17,16,Jits_ISO_5,3,5,56,103,1708046768
85,17,16,Jits_ISO_5,0,5,56,103,1708446052
85,17,16,Jits_ISO_5,1,1,48,27,1708459136
85,17,16,Jits_ISO_5,2,5,80,127,1708525988
85,17,16,Jits_ISO_5,3,5,63,98,1708536628
85,17,16,Jits_ISO_5,0,1,48,35,1708971384
85,17,16,Jits_ISO_5,1,5,80,127,1708985652
85,17,16,Jits_ISO_5,2,5,63,98,1708996144
85,17,16,Jits_ISO_5,3,5,56,103,1709025596
85,17,16,Jits_ISO_5,0,5,63,98,1709445608
85,17,16,Jits_ISO_5,1,5,80,127,1709485396
85,17,16,Jits_ISO_5,2,1,48,32,1709489488
85,17,16,Jits_ISO_5,3,5,56,103,1709545776
85,17,16,Jits_ISO_5,0,5,63,98,1709955528
85,17,16,Jits_ISO_5,1,5,56,103,1710005580
85,17,16,Jits_ISO_5,2,1,48,35,1710024816
85,17,16,Jits_ISO_5,3,5,80,127,1710036444
85,17,16,Jits_ISO_5,0,5,80,127,1710466424
85,17,16,Jits_ISO_5,1,5,63,98,1710475648
85,17,16,Jits_ISO_5,2,1,48,31,1710512092
85,17,16,Jits_ISO_5,3,5,56,103,1710546512
85,17,16,Jits_ISO_5,0,1,48,29,1710995432
85,17,16,Jits_ISO_5,1,5,80,127,1711035616
85,17,16,Jits_ISO_5,2,5,56,103,1711045880
85,17,16,Jits_ISO_5,3,5,63,98,1711049324
85,17,16,Jits_ISO_5,0,5,56,103,1711476312
85,17,16,Jits_ISO_5,1,5,80,127,1711495504
85,17,16,Jits_ISO_5,2,5,63,98,1711505920
85,17,16,Jits_ISO_5,3,1,48,27,1711530312
85,17,16,Jits_ISO_5,0,5,63,98,1711996216
85,17,16,Jits_ISO_5,1,5,56,103,1712036452
85,17,16,Jits_ISO_5,2,1,48,31,1712045044
85,17,16,Jits_ISO_5,3,5,80,127,1712055708
85,17,16,Jits_ISO_5,0,5,63,98,1712495880
85,17,16,Jits_ISO_5,1,1,48,32,1712524700
85,17,16,Jits_ISO_5,2,5,56,103,1712556332
85,17,16,Jits_ISO_5,3,5,80,127,1712559548
85,17,16,Jits_ISO_5,0,5,56,103,1712955872
85,17,16,Jits_ISO_5,1,5,80,127,1712976404
85,17,16,Jits_ISO_5,2,5,63,98,1713016292
85,17,16,Jits_ISO_5,3,1,48,33,1713018304
85,17,16,Jits_ISO_5,0,1,48,31,1713470328
85,17,16,Jits_ISO_5,1,5,56,103,1713486840
85,17,16,Jits_ISO_5,2,5,63,98,1713505584
85,17,16,Jits_ISO_5,3,5,80,127,1713515876
85,17,16,Jits_ISO_5,0,1,48,32,1713943532
85,17,16,Jits_ISO_5,1,5,80,127,1713956384
85,17,16,Jits_ISO_5,2,5,56,103,1713985760
85,17,16,Jits_ISO_5,3,5,63,98,1714025772
85,17,16,Jits_ISO_5,0,1,48,34,1714449792
85,17,16,Jits_ISO_5,1,5,80,127,1714466228
85,17,16,Jits_ISO_5,2,5,56,103,1714485640
85,17,16,Jits_ISO_5,3,5,63,98,1714545964
85,17,16,Jits_ISO_5,0,5,56,103,1714976304
85,17,16,Jits_ISO_5,1,5,80,127,1714995496
85,17,16,Jits_ISO_5,2,1,48,32,1715025360
85,17,16,Jits_ISO_5,3,5,63,98,1715055900
85,17,16,Jits_ISO_5,0,5,80,127,1715456352
85,17,16,Jits_ISO_5,1,5,56,103,1715465572
85,17,16,Jits_ISO_5,2,1,48,30,1715474092
85,17,16,Jits_ISO_5,3,5,63,98,1715505576
85,17,16,Jits_ISO_5,0,1,48,31,1715938224
85,17,16,Jits_ISO_5,1,5,63,98,1715956008
85,17,16,Jits_ISO_5,2,5,56,103,1715996092
85,17,16,Jits_ISO_5,3,5,80,127,1715999012
85,17,16,Jits_ISO_5,0,1,48,30,1716438844
85,17,16,Jits_ISO_5,1,5,63,98,1716476556
85,17,16,Jits_ISO_5,2,5,80,127,1716516268
85,17,16,Jits_ISO_5,3,5,56,103,1716545780
85,17,16,Jits_ISO_5,0,5,56,103,1716965660
85,17,16,Jits_ISO_5,1,5,63,98,1716975856
85,17,16,Jits_ISO_5,2,1,48,31,1716986920
85,17,16,Jits_ISO_5,3,5,80,127,1717005744
85,17,16,Jits_ISO_5,0,5,80,127,1717456188
85,17,16,Jits_ISO_5,1,5,63,98,1717525868
85,17,16,Jits_ISO_5,2,5,56,103,1717536212
85,17,16,Jits_ISO_5,3,1,48,30,1717587796
85,17,16,Jits_ISO_5,0,5,63,98,1717956156
85,17,16,Jits_ISO_5,1,1,48,33,1718010664
85,17,16,Jits_ISO_5,2,5,56,103,1718025684
85,17,16,Jits_ISO_5,3,5,80,127,1718036028
85,17,16,Jits_ISO_5,0,5,63,98,1718455596
85,17,16,Jits_ISO_5,1,5,56,103,1718476352
85,17,16,Jits_ISO_5,2,1,48,29,1718493096
85,17,16,Jits_ISO_5,3,5,80,127,1718516204
85,17,16,Jits_ISO_5,0,5,56,103,1718965736
85,17,16,Jits_ISO_5,1,1,48,30,1718968108
85,17,16,Jits_ISO_5,2,5,63,98,1718975852
85,17,16,Jits_ISO_5,3,5,80,127,1719055716
85,17,16,Jits_ISO_5,0,5,63,98,1719466308
85,17,16,Jits_ISO_5,1,1,48,33,1719469800
85,17,16,Jits_ISO_5,2,5,56,103,1719496200
85,17,16,Jits_ISO_5,3,5,80,127,1719536064
85,17,16,Jits_ISO_5,0,1,48,34,1719949144
85,17,16,Jits_ISO_5,1,5,56,103,1719966256
85,17,16,Jits_ISO_5,2,5,63,98,1720006196
85,17,16,Jits_ISO_5,3,5,80,127,1720046188
85,17,16,Jits_ISO_5,0,1,48,34,1720435028
85,17,16,Jits_ISO_5,1,5,80,127,1720465916
85,17,16,Jits_ISO_5,2,5,56,103,1720545548
85,17,16,Jits_ISO_5,3,5,63,98,1720555744
85,17,16,Jits_ISO_5,0,1,48,29,1720957384
85,17,16,Jits_ISO_5,1,5,56,103,1721005360
85,17,16,Jits_ISO_5,2,5,63,98,1721008424
85,17,16,Jits_ISO_5,3,5,80,127,1721015628
85,17,16,Jits_ISO_5,0,1,48,32,1721456584
85,17,16,Jits_ISO_5,1,5,56,103,1721525536
85,17,16,Jits_ISO_5,2,5,63,98,1721546368
85,17,16,Jits_ISO_5,3,5,80,127,1721557076
85,17,16,Jits_ISO_5,0,1,48,27,1721970248
85,17,16,Jits_ISO_5,1,5,63,98,1721986536
85,17,16,Jits_ISO_5,2,5,80,127,1721995540
85,17,16,Jits_ISO_5,3,5,56,103,1722016144
85,17,16,Jits_ISO_5,0,1,48,28,1722474684
85,17,16,Jits_ISO_5,1,5,63,98,1722486316
85,17,16,Jits_ISO_5,2,5,56,103,1722566180
85,17,16,Jits_ISO_5,3,5,80,127,1722570128
85,17,16,Jits_ISO_5,0,5,63,98,1722985800
85,17,16,Jits_ISO_5,1,1,48,30,1722995612
85,17,16,Jits_ISO_5,2,5,56,103,1723006348
85,17,16,Jits_ISO_5,3,5,80,127,1723036096
85,17,16,Jits_ISO_5,0,1,48,34,1723476656
85,17,16,Jits_ISO_5,1,5,56,103,1723495860
85,17,16,Jits_ISO_5,2,5,63,98,1723516196
85,17,16,Jits_ISO_5,3,5,80,127,1723525492
85,17,16,Jits_ISO_5,0,1,48,36,1723962444
85,17,16,Jits_ISO_5,1,5,56,103,1724026108
85,17,16,Jits_ISO_5,2,5,63,98,1724055856
85,17,16,Jits_ISO_5,3,5,80,127,1724059444
85,17,16,Jits_ISO_5,0,5,56,103,1724475696
85,17,16,Jits_ISO_5,1,5,63,98,1724515636
85,17,16,Jits_ISO_5,2,1,48,32,1724518532
85,17,16,Jits_ISO_5,3,5,80,127,1724576264
85,17,16,Jits_ISO_5,0,1,48,31,1724973612
85,17,16,Jits_ISO_5,1,5,56,103,1724996180
85,17,16,Jits_ISO_5,2,5,63,98,1725006376
85,17,16,Jits_ISO_5,3,5,80,127,1725065592
85,17,16,Jits_ISO_5,0,1,48,35,1725455960
85,17,16,Jits_ISO_5,1,5,56,103,1725495616
85,17,16,Jits_ISO_5,2,5,80,127,1725516076
85,17,16,Jits_ISO_5,3,5,63,98,1725545824
85,17,16,Jits_ISO_5,0,1,48,30,1725989768
85,17,16,Jits_ISO_5,1,5,80,127,1725996392
85,17,16,Jits_ISO_5,2,5,56,103,1726005468
85,17,16,Jits_ISO_5,3,5,63,98,1726026148
85,17,16,Jits_ISO_5,0,5,63,98,1726485868
85,17,16,Jits_ISO_5,1,1,48,33,1726488836
85,17,16,Jits_ISO_5,2,5,80,127,1726565728
85,17,16,Jits_ISO_5,3,5,56,103,1726576096
85,17,16,Jits_ISO_5,0,1,48,34,1727024756
85,17,16,Jits_ISO_5,1,5,80,127,1727046128
85,17,16,Jits_ISO_5,2,5,56,103,1727065312
85,17,16,Jits_ISO_5,3,5,63,98,1727068456
85,17,16,Jits_ISO_5,0,5,63,98,1727516120
85,17,16,Jits_ISO_5,1,5,80,127,1727519556
85,17,16,Jits_ISO_5,2,1,48,30,1727535204
85,17,16,Jits_ISO_5,3,5,56,103,1727576352
85,17,16,Jits_ISO_5,0,5,56,103,1727996368
85,17,16,Jits_ISO_5,1,5,80,127,1728005444
85,17,16,Jits_ISO_5,2,1,48,32,1728037180
85,17,16,Jits_ISO_5,3,5,63,98,1728045448
85,17,16,Jits_ISO_5,0,5,56,103,1728475444
85,17,16,Jits_ISO_5,1,1,48,33,1728532044
85,17,16,Jits_ISO_5,2,5,63,98,1728536196
85,17,16,Jits_ISO_5,3,5,80,127,1728546096
85,17,16,Jits_ISO_5,0,5,63,98,1728985452
85,17,16,Jits_ISO_5,1,1,48,33,1729001228
85,17,16,Jits_ISO_5,2,5,80,127,1729026504
85,17,16,Jits_ISO_5,3,5,56,103,1729066440
85,17,16,Jits_ISO_5,0,5,56,103,1729486232
85,17,16,Jits_ISO_5,1,1,48,37,1729525992
85,17,16,Jits_ISO_5,2,5,63,98,1729566240
85,17,16,Jits_ISO_5,3,5,80,127,1729569380
85,17,16,Jits_ISO_5,0,9999,9999,9999,1670173760
85,17,16,Jits_ISO_5,1,9999,9999,9999,1670673480
85,17,16,Jits_ISO_5,2,9999,9999,9999,1671173200
85,17,16,Jits_ISO_5,3,9999,9999,9999,1671673980
85,17,16,Jits_ISO_5,4,9999,9999,9999,1672173644
85,17,16,Jits_ISO_5,5,9999,9999,9999,1672673380
85,17,16,Jits_ISO_5,6,9999,9999,9999,1673174084
85,17,16,Jits_ISO_5,7,9999,9999,9999,1673684092
85,17,16,Jits_ISO_5,8,9999,9999,9999,1674183752
85,17,16,Jits_ISO_5,9,9999,9999,9999,1674683500
85,17,16,Jits_ISO_5,10,9999,9999,9999,1675183176
85,17,16,Jits_ISO_5,11,9999,9999,9999,1675683896
85,17,16,Jits_ISO_5,12,9999,9999,9999,1676183624
85,17,16,Jits_ISO_5,13,9999,9999,9999,1676683356
85,17,16,Jits_ISO_5,14,9999,9999,9999,1677184060
85,17,16,Jits_ISO_5,15,9999,9999,9999,1677694056
85,17,16,Jits_ISO_5,16,9999,9999,9999,1678193788
85,17,16,Jits_ISO_5,17,9999,9999,9999,1678693492
85,17,16,Jits_ISO_5,18,9999,9999,9999,1679193140
85,17,16,Jits_ISO_5,19,9999,9999,9999,1679693936
85,17,16,Jits_ISO_5,20,9999,9999,9999,1680193592
85,17,16,Jits_ISO_5,21,9999,9999,9999,1680693340
85,17,16,Jits_ISO_5,22,9999,9999,9999,1681194056
85,17,16,Jits_ISO_5,23,9999,9999,9999,1681693792
85,17,16,Jits_ISO_5,24,9999,9999,9999,1682193464
85,17,16,Jits_ISO_5,25,9999,9999,9999,1682693200
85,17,16,Jits_ISO_5,26,9999,9999,9999,1683193924
85,17,16,Jits_ISO_5,27,9999,9999,9999,1683693644
85,17,16,Jits_ISO_5,28,9999,9999,9999,1684193392
85,17,16,Jits_ISO_5,29,9999,9999,9999,1684694108
85,17,16,Jits_ISO_5,30,9999,9999,9999,1685204044
85,17,16,Jits_ISO_5,31,9999,9999,9999,1685703788
85,17,16,Jits_ISO_5,32,9999,9999,9999,1686203460
85,17,16,Jits_ISO_5,33,9999,9999,9999,1686703188
85,17,16,Jits_ISO_5,34,9999,9999,9999,1687203904
85,17,16,Jits_ISO_5,35,9999,9999,9999,1687703640
85,17,16,Jits_ISO_5,36,9999,9999,9999,1688203360
85,17,16,Jits_ISO_5,37,9999,9999,9999,1688704068
85,17,16,Jits_ISO_5,38,9999,9999,9999,1689214064
85,17,16,Jits_ISO_5,39,9999,9999,9999,1689713724
85,17,16,Jits_ISO_5,40,9999,9999,9999,1690213432
85,17,16,Jits_ISO_5,41,9999,9999,9999,1690713168
85,17,16,Jits_ISO_5,42,9999,9999,9999,1691213888
85,17,16,Jits_ISO_5,43,9999,9999,9999,1691713612
85,17,16,Jits_ISO_5,44,9999,9999,9999,1692213344
85,17,16,Jits_ISO_5,45,9999,9999,9999,1692714044
85,17,16,Jits_ISO_5,46,9999,9999,9999,1693213776
85,17,16,Jits_ISO_5,47,9999,9999,9999,1693713512
85,17,16,Jits_ISO_5,48,9999,9999,9999,1694213172
85,17,16,Jits_ISO_5,49,9999,9999,9999,1694713956
85,17,16,Jits_ISO_5,50,9999,9999,9999,1695213676
85,17,16,Jits_ISO_5,51,9999,9999,9999,1695713352
85,17,16,Jits_ISO_5,52,9999,9999,9999,1696214132
85,17,16,Jits_ISO_5,53,9999,9999,9999,1696724056
85,17,16,Jits_ISO_5,54,9999,9999,9999,1697223788
85,17,16,Jits_ISO_5,55,9999,9999,9999,1697723464
85,17,16,Jits_ISO_5,56,9999,9999,9999,1698223196
85,17,16,Jits_ISO_5,57,9999,9999,9999,1698723904
85,17,16,Jits_ISO_5,58,9999,9999,9999,1699223640
85,17,16,Jits_ISO_5,59,9999,9999,9999,1699723356
85,17,16,Jits_ISO_5,60,9999,9999,9999,1700224064
85,17,16,Jits_ISO_5,61,9999,9999,9999,1700734056
85,17,16,Jits_ISO_5,62,9999,9999,9999,1701233788
85,17,16,Jits_ISO_5,63,9999,9999,9999,1701733496
85,17,16,Jits_ISO_5,64,9999,9999,9999,1702233148
85,17,16,Jits_ISO_5,65,9999,9999,9999,1702733940
85,17,16,Jits_ISO_5,66,9999,9999,9999,1703233600
85,17,16,Jits_ISO_5,67,9999,9999,9999,1703733320
85,17,16,Jits_ISO_5,68,9999,9999,9999,1704234104
85,17,16,Jits_ISO_5,69,9999,9999,9999,1704733764
85,17,16,Jits_ISO_5,70,9999,9999,9999,1705233484
85,17,16,Jits_ISO_5,71,9999,9999,9999,1705733228
85,17,16,Jits_ISO_5,72,9999,9999,9999,1706233948
85,17,16,Jits_ISO_5,73,9999,9999,9999,1706733680
85,17,16,Jits_ISO_5,74,9999,9999,9999,1707233352
85,17,16,Jits_ISO_5,75,9999,9999,9999,1707734128
85,17,16,Jits_ISO_5,76,9999,9999,9999,1708244072
85,17,16,Jits_ISO_5,77,9999,9999,9999,1708743732
85,17,16,Jits_ISO_5,78,9999,9999,9999,1709243480
85,17,16,Jits_ISO_5,79,9999,9999,9999,1709743212
85,17,16,Jits_ISO_5,80,9999,9999,9999,1710243916
85,17,16,Jits_ISO_5,81,9999,9999,9999,1710743648
85,17,16,Jits_ISO_5,82,9999,9999,9999,1711243320
85,17,16,Jits_ISO_5,83,9999,9999,9999,1711744100
85,17,16,Jits_ISO_5,84,9999,9999,9999,1712254040
85,17,16,Jits_ISO_5,85,9999,9999,9999,1712753768
85,17,16,Jits_ISO_5,86,9999,9999,9999,1713253472
85,17,16,Jits_ISO_5,87,9999,9999,9999,1713753140
85,17,16,Jits_ISO_5,88,9999,9999,9999,1714253916
85,17,16,Jits_ISO_5,89,9999,9999,9999,1714753648
85,17,16,Jits_ISO_5,90,9999,9999,9999,1715253308
85,17,16,Jits_ISO_5,91,9999,9999,9999,1715754100
85,17,16,Jits_ISO_5,92,9999,9999,9999,1716253756
85,17,16,Jits_ISO_5,93,9999,9999,9999,1716753492
85,17,16,Jits_ISO_5,94,9999,9999,9999,1717253220
85,17,16,Jits_ISO_5,95,9999,9999,9999,1717753940
85,17,16,Jits_ISO_5,96,9999,9999,9999,1718253688
85,17,16,Jits_ISO_5,97,9999,9999,9999,1718753344
85,17,16,Jits_ISO_5,98,9999,9999,9999,1719254124
85,17,16,Jits_ISO_5,99,9999,9999,9999,1719764060
85,17,16,Jits_ISO_5,100,9999,9999,9999,1720263792
85,17,16,Jits_ISO_5,101,9999,9999,9999,1720763456
85,17,16,Jits_ISO_5,102,9999,9999,9999,1721263180
85,17,16,Jits_ISO_5,103,9999,9999,9999,1721763964
85,17,16,Jits_ISO_5,104,9999,9999,9999,1722263620
85,17,16,Jits_ISO_5,105,9999,9999,9999,1722763316
85,17,16,Jits_ISO_5,106,9999,9999,9999,1723264096
85,17,16,Jits_ISO_5,107,9999,9999,9999,1723774016
85,17,16,Jits_ISO_5,108,9999,9999,9999,1724273744
85,17,16,Jits_ISO_5,109,9999,9999,9999,1724773448
85,17,16,Jits_ISO_5,110,9999,9999,9999,1725273192
85,17,16,Jits_ISO_5,111,9999,9999,9999,1725773892
85,17,16,Jits_ISO_5,112,9999,9999,9999,1726273624
85,17,16,Jits_ISO_5,113,9999,9999,9999,1726773356
85,17,16,Jits_ISO_5,114,9999,9999,9999,1727274060
85,17,16,Jits_ISO_5,115,9999,9999,9999,1727773784
85,17,16,Jits_ISO_5,116,9999,9999,9999,1728273520
85,17,16,Jits_ISO_5,117,9999,9999,9999,1728773196
85,17,16,Jits_ISO_5,118,9999,9999,9999,1729273916
85,17,16,Jits_ISO_5,119,9999,9999,9999,1729773640
85,18,7,Jits_ISO_8,0,5,56,103,1739586124
85,18,7,Jits_ISO_8,1,5,63,98,1739589152
85,18,7,Jits_ISO_8,2,5,80,127,1739592272
85,18,7,Jits_ISO_8,0,5,56,103,1740385900
85,18,7,Jits_ISO_8,1,5,63,98,1740389000
85,18,7,Jits_ISO_8,2,5,80,127,1740392044
85,18,7,Jits_ISO_8,0,5,80,127,1741125880
85,18,7,Jits_ISO_8,1,1,48,39,1741150428
85,18,7,Jits_ISO_8,2,5,63,98,1741216036
85,18,7,Jits_ISO_8,3,5,56,103,1741226236
85,18,7,Jits_ISO_8,0,1,48,36,1741938332
85,18,7,Jits_ISO_8,1,5,56,103,1741946228
85,18,7,Jits_ISO_8,2,5,63,98,1741955452
85,18,7,Jits_ISO_8,3,5,80,127,1742045644
85,18,7,Jits_ISO_8,0,5,63,98,1742716420
85,18,7,Jits_ISO_8,1,5,80,127,1742746096
85,18,7,Jits_ISO_8,2,1,48,35,1742764732
85,18,7,Jits_ISO_8,3,5,56,103,1742775988
85,18,7,Jits_ISO_8,0,1,48,31,1743514696
85,18,7,Jits_ISO_8,1,5,56,103,1743516192
85,18,7,Jits_ISO_8,2,5,80,127,1743616280
85,18,7,Jits_ISO_8,3,5,63,98,1743665512
85,18,7,Jits_ISO_8,0,5,56,103,1744315912
85,18,7,Jits_ISO_8,1,1,48,33,1744334844
85,18,7,Jits_ISO_8,2,5,80,127,1744365884
85,18,7,Jits_ISO_8,3,5,63,98,1744405972
85,18,7,Jits_ISO_8,0,1,48,32,1745116800
85,18,7,Jits_ISO_8,1,5,80,127,1745146196
85,18,7,Jits_ISO_8,2,5,63,98,1745175944
85,18,7,Jits_ISO_8,3,5,56,103,1745245684
85,18,7,Jits_ISO_8,0,5,63,98,1745976028
85,18,7,Jits_ISO_8,1,5,56,103,1746006304
85,18,7,Jits_ISO_8,2,1,48,32,1746026536
85,18,7,Jits_ISO_8,3,5,80,127,1746065740
85,18,7,Jits_ISO_8,0,5,56,103,1746716096
85,18,7,Jits_ISO_8,1,5,80,127,1746719016
85,18,7,Jits_ISO_8,2,1,48,33,1746819484
85,18,7,Jits_ISO_8,3,5,63,98,1746835992
85,18,7,Jits_ISO_8,0,1,48,34,1747516680
85,18,7,Jits_ISO_8,1,5,56,103,1747595848
85,18,7,Jits_ISO_8,2,5,80,127,1747635700
85,18,7,Jits_ISO_8,3,5,63,98,1747645968
85,18,7,Jits_ISO_8,0,1,48,28,1748313332
85,18,7,Jits_ISO_8,1,5,56,103,1748355704
85,18,7,Jits_ISO_8,2,5,80,127,1748376016
85,18,7,Jits_ISO_8,3,5,63,98,1748455724
85,18,7,Jits_ISO_8,0,5,80,127,1749145912
85,18,7,Jits_ISO_8,1,1,48,42,1749180944
85,18,7,Jits_ISO_8,2,5,56,103,1749246304
85,18,7,Jits_ISO_8,3,5,63,98,1749255676
85,18,7,Jits_ISO_8,0,5,63,98,1749915896
85,18,7,Jits_ISO_8,1,5,80,127,1749976436
85,18,7,Jits_ISO_8,2,5,56,103,1749985736
85,18,7,Jits_ISO_8,3,1,48,40,1750074936
85,18,7,Jits_ISO_8,0,5,56,103,1750715820
85,18,7,Jits_ISO_8,1,1,48,38,1750749128
85,18,7,Jits_ISO_8,2,5,63,98,1750786544
85,18,7,Jits_ISO_8,3,5,80,127,1750789908
85,18,7,Jits_ISO_8,0,1,48,36,1751488076
85,18,7,Jits_ISO_8,1,5,63,98,1751546320
85,18,7,Jits_ISO_8,2,5,56,103,1751596508
85,18,7,Jits_ISO_8,3,5,80,127,1751599572
85,18,7,Jits_ISO_8,0,1,48,35,1752253620
85,18,7,Jits_ISO_8,1,5,56,103,1752306008
85,18,7,Jits_ISO_8,2,5,80,127,1752309148
85,18,7,Jits_ISO_8,3,5,63,98,1752396272
85,18,7,Jits_ISO_8,0,1,48,34,1753070756
85,18,7,Jits_ISO_8,1,5,63,98,1753145784
85,18,7,Jits_ISO_8,2,5,56,103,1753235932
85,18,7,Jits_ISO_8,3,5,80,127,1753265532
85,18,7,Jits_ISO_8,0,5,56,103,1753936216
85,18,7,Jits_ISO_8,1,1,48,34,1753987244
85,18,7,Jits_ISO_8,2,5,63,98,1754035812
85,18,7,Jits_ISO_8,3,5,80,127,1754066236
85,18,7,Jits_ISO_8,0,5,63,98,1754755600
85,18,7,Jits_ISO_8,1,5,56,103,1754765572
85,18,7,Jits_ISO_8,2,1,48,33,1754798136
85,18,7,Jits_ISO_8,3,5,80,127,1754855776
85,18,7,Jits_ISO_8,0,5,63,98,1755575612
85,18,7,Jits_ISO_8,1,1,48,31,1755645048
85,18,7,Jits_ISO_8,2,5,56,103,1755655628
85,18,7,Jits_ISO_8,3,5,80,127,1755658620
85,18,7,Jits_ISO_8,0,5,80,127,1756335612
85,18,7,Jits_ISO_8,1,5,63,98,1756355848
85,18,7,Jits_ISO_8,2,1,48,32,1756365636
85,18,7,Jits_ISO_8,3,5,56,103,1756416308
85,18,7,Jits_ISO_8,0,1,48,30,1757069440
85,18,7,Jits_ISO_8,1,5,56,103,1757176144
85,18,7,Jits_ISO_8,2,5,63,98,1757195556
85,18,7,Jits_ISO_8,3,5,80,127,1757198920
85,18,7,Jits_ISO_8,0,1,48,35,1757902176
85,18,7,Jits_ISO_8,1,5,63,98,1757915696
85,18,7,Jits_ISO_8,2,5,80,127,1757997204
85,18,7,Jits_ISO_8,3,5,56,103,1758005676
85,18,7,Jits_ISO_8,0,1,48,37,1758729240
85,18,7,Jits_ISO_8,1,5,63,98,1758735784
85,18,7,Jits_ISO_8,2,5,56,103,1758756096
85,18,7,Jits_ISO_8,3,5,80,127,1758806520
85,18,7,Jits_ISO_8,0,1,48,32,1759495608
85,18,7,Jits_ISO_8,1,5,80,127,1759535564
85,18,7,Jits_ISO_8,2,5,63,98,1759576700
85,18,7,Jits_ISO_8,3,5,56,103,1759595752
85,18,7,Jits_ISO_8,0,1,48,27,1760331564
85,18,7,Jits_ISO_8,1,5,56,103,1760376132
85,18,7,Jits_ISO_8,2,5,63,98,1760386700
85,18,7,Jits_ISO_8,3,5,80,127,1760405892
85,18,7,Jits_ISO_8,0,5,56,103,1761106364
85,18,7,Jits_ISO_8,1,1,48,35,1761118552
85,18,7,Jits_ISO_8,2,5,63,98,1761196744
85,18,7,Jits_ISO_8,3,5,80,127,1761255848
85,18,7,Jits_ISO_8,0,1,48,24,1761895048
85,18,7,Jits_ISO_8,1,5,80,127,1761935708
85,18,7,Jits_ISO_8,2,5,56,103,1761945904
85,18,7,Jits_ISO_8,3,5,63,98,1762015496
85,18,7,Jits_ISO_8,0,1,48,35,1762755464
85,18,7,Jits_ISO_8,1,5,63,98,1762766276
85,18,7,Jits_ISO_8,2,5,80,127,1762856472
85,18,7,Jits_ISO_8,3,5,56,103,1762865624
85,18,7,Jits_ISO_8,0,5,63,98,1763505460
85,18,7,Jits_ISO_8,1,5,80,127,1763555664
85,18,7,Jits_ISO_8,2,1,48,36,1763589944
85,18,7,Jits_ISO_8,3,5,56,103,1763616124
85,18,7,Jits_ISO_8,0,1,48,32,1764324768
85,18,7,Jits_ISO_8,1,5,56,103,1764336024
85,18,7,Jits_ISO_8,2,5,80,127,1764386084
85,18,7,Jits_ISO_8,3,5,63,98,1764405572
85,18,7,Jits_ISO_8,0,5,56,103,1765105996
85,18,7,Jits_ISO_8,1,1,48,26,1765127096
85,18,7,Jits_ISO_8,2,5,80,127,1765165632
85,18,7,Jits_ISO_8,3,5,63,98,1765236224
85,18,7,Jits_ISO_8,0,1,48,25,1765886360
85,18,7,Jits_ISO_8,1,5,56,103,1765905716
85,18,7,Jits_ISO_8,2,5,80,127,1765935688
85,18,7,Jits_ISO_8,3,5,63,98,1765966484
85,18,7,Jits_ISO_8,0,1,48,22,1766681784
85,18,7,Jits_ISO_8,1,5,56,103,1766745800
85,18,7,Jits_ISO_8,2,5,80,127,1766765912
85,18,7,Jits_ISO_8,3,5,63,98,1766826584
85,18,7,Jits_ISO_8,0,1,48,30,1767522992
85,18,7,Jits_ISO_8,1,5,80,127,1767626136
85,18,7,Jits_ISO_8,2,5,56,103,1767636628
85,18,7,Jits_ISO_8,3,5,63,98,1767645480
85,18,7,Jits_ISO_8,0,5,56,103,1768385864
85,18,7,Jits_ISO_8,1,1,48,30,1768393616
85,18,7,Jits_ISO_8,2,5,80,127,1768425724
85,18,7,Jits_ISO_8,3,5,63,98,1768455476
85,18,7,Jits_ISO_8,0,1,48,25,1769132652
85,18,7,Jits_ISO_8,1,5,56,103,1769155840
85,18,7,Jits_ISO_8,2,5,63,98,1769185520
85,18,7,Jits_ISO_8,3,5,80,127,1769225604
85,18,7,Jits_ISO_8,0,1,48,29,1769851076
85,18,7,Jits_ISO_8,1,5,80,127,1769905576
85,18,7,Jits_ISO_8,2,5,63,98,1769955692
85,18,7,Jits_ISO_8,3,5,56,103,1769976448
85,18,7,Jits_ISO_8,0,1,48,29,1770731244
85,18,7,Jits_ISO_8,1,5,56,103,1770735924
85,18,7,Jits_ISO_8,2,5,80,127,1770805608
85,18,7,Jits_ISO_8,3,5,63,98,1770866008
85,18,7,Jits_ISO_8,0,5,80,127,1771535716
85,18,7,Jits_ISO_8,1,1,48,24,1771558168
85,18,7,Jits_ISO_8,2,5,63,98,1771625872
85,18,7,Jits_ISO_8,3,5,56,103,1771646628
85,18,7,Jits_ISO_8,0,5,63,98,1772355896
85,18,7,Jits_ISO_8,1,5,56,103,1772376432
85,18,7,Jits_ISO_8,2,1,48,26,1772408272
85,18,7,Jits_ISO_8,3,5,80,127,1772416536
85,18,7,Jits_ISO_8,0,5,80,127,1773115892
85,18,7,Jits_ISO_8,1,5,63,98,1773136352
85,18,7,Jits_ISO_8,2,1,48,25,1773156256
85,18,7,Jits_ISO_8,3,5,56,103,1773216092
85,18,7,Jits_ISO_8,0,5,63,98,1773906472
85,18,7,Jits_ISO_8,1,1,48,27,1773970748
85,18,7,Jits_ISO_8,2,5,56,103,1774015808
85,18,7,Jits_ISO_8,3,5,80,127,1774018800
85,18,7,Jits_ISO_8,0,5,63,98,1774725600
85,18,7,Jits_ISO_8,1,5,56,103,1774735720
85,18,7,Jits_ISO_8,2,5,80,127,1774738788
85,18,7,Jits_ISO_8,3,1,48,23,1774761608
85,18,7,Jits_ISO_8,0,1,48,19,1775502848
85,18,7,Jits_ISO_8,1,5,56,103,1775505880
85,18,7,Jits_ISO_8,2,5,80,127,1775625672
85,18,7,Jits_ISO_8,3,5,63,98,1775665460
85,18,7,Jits_ISO_8,0,1,48,33,1776313664
85,18,7,Jits_ISO_8,1,5,56,103,1776326116
85,18,7,Jits_ISO_8,2,5,80,127,1776405844
85,18,7,Jits_ISO_8,3,5,63,98,1776426288
85,18,7,Jits_ISO_8,0,5,56,103,1777125684
85,18,7,Jits_ISO_8,1,1,48,26,1777141836
85,18,7,Jits_ISO_8,2,5,63,98,1777236416
85,18,7,Jits_ISO_8,3,5,80,127,1777240516
85,18,7,Jits_ISO_8,0,1,48,25,1777926200
85,18,7,Jits_ISO_8,1,5,56,103,1777956336
85,18,7,Jits_ISO_8,2,5,80,127,1777986312
85,18,7,Jits_ISO_8,3,5,63,98,1778006324
85,18,7,Jits_ISO_8,0,1,48,28,1778662352
85,18,7,Jits_ISO_8,1,5,63,98,1778735368
85,18,7,Jits_ISO_8,2,5,56,103,1778745636
85,18,7,Jits_ISO_8,3,5,80,127,1778756056
85,18,7,Jits_ISO_8,0,1,48,30,1779469556
85,18,7,Jits_ISO_8,1,5,80,127,1779525928
85,18,7,Jits_ISO_8,2,5,56,103,1779576292
85,18,7,Jits_ISO_8,3,5,63,98,1779616304
85,18,7,Jits_ISO_8,0,1,48,28,1780332744
85,18,7,Jits_ISO_8,1,5,80,127,1780346412
85,18,7,Jits_ISO_8,2,5,63,98,1780365824
85,18,7,Jits_ISO_8,3,5,56,103,1780415804
85,18,7,Jits_ISO_8,0,5,80,127,1781156168
85,18,7,Jits_ISO_8,1,1,48,32,1781170524
85,18,7,Jits_ISO_8,2,5,56,103,1781185988
85,18,7,Jits_ISO_8,3,5,63,98,1781255444
85,18,7,Jits_ISO_8,0,5,56,103,1782006168
85,18,7,Jits_ISO_8,1,5,80,127,1782016440
85,18,7,Jits_ISO_8,2,5,63,98,1782056304
85,18,7,Jits_ISO_8,3,1,48,26,1782062036
85,18,7,Jits_ISO_8,0,5,56,103,1782715688
85,18,7,Jits_ISO_8,1,5,63,98,1782736372
85,18,7,Jits_ISO_8,2,1,48,24,1782793816
85,18,7,Jits_ISO_8,3,5,80,127,1782805824
85,18,7,Jits_ISO_8,0,1,48,18,1783523996
85,18,7,Jits_ISO_8,1,5,63,98,1783535928
85,18,7,Jits_ISO_8,2,5,80,127,1783596396
85,18,7,Jits_ISO_8,3,5,56,103,1783615960
85,18,7,Jits_ISO_8,0,1,48,26,1784322340
85,18,7,Jits_ISO_8,1,5,80,127,1784325448
85,18,7,Jits_ISO_8,2,5,56,103,1784356320
85,18,7,Jits_ISO_8,3,5,63,98,1784385996
85,18,7,Jits_ISO_8,0,1,48,27,1785100916
85,18,7,Jits_ISO_8,1,5,56,103,1785126196
85,18,7,Jits_ISO_8,2,5,63,98,1785185620
85,18,7,Jits_ISO_8,3,5,80,127,1785246316
85,18,7,Jits_ISO_8,0,1,48,26,1785874936
85,18,7,Jits_ISO_8,1,5,80,127,1785945460
85,18,7,Jits_ISO_8,2,5,56,103,1785966020
85,18,7,Jits_ISO_8,3,5,63,98,1786035540
85,18,7,Jits_ISO_8,0,1,48,32,1786731296
85,18,7,Jits_ISO_8,1,5,80,127,1786746316
85,18,7,Jits_ISO_8,2,5,63,98,1786765580
85,18,7,Jits_ISO_8,3,5,56,103,1786796376
85,18,7,Jits_ISO_8,0,1,48,30,1787513688
85,18,7,Jits_ISO_8,1,5,80,127,1787535832
85,18,7,Jits_ISO_8,2,5,63,98,1787556292
85,18,7,Jits_ISO_8,3,5,56,103,1787615696
85,18,7,Jits_ISO_8,0,1,48,21,1788250888
85,18,7,Jits_ISO_8,1,5,80,127,1788335612
85,18,7,Jits_ISO_8,2,5,56,103,1788435924
85,18,7,Jits_ISO_8,3,5,63,98,1788465524
85,18,7,Jits_ISO_8,0,5,63,98,1789126264
85,18,7,Jits_ISO_8,1,1,48,25,1789162116
85,18,7,Jits_ISO_8,2,5,80,127,1789176312
85,18,7,Jits_ISO_8,3,5,56,103,1789195652
85,18,7,Jits_ISO_8,0,1,48,26,1789941516
85,18,7,Jits_ISO_8,1,5,80,127,1789965824
85,18,7,Jits_ISO_8,2,5,56,103,1789996324
85,18,7,Jits_ISO_8,3,5,63,98,1789999392
85,18,7,Jits_ISO_8,0,1,48,22,1790761076
85,18,7,Jits_ISO_8,1,5,63,98,1790796248
85,18,7,Jits_ISO_8,2,5,56,103,1790836212
85,18,7,Jits_ISO_8,3,5,80,127,1790855400
85,18,7,Jits_ISO_8,0,5,80,127,1791535432
85,18,7,Jits_ISO_8,1,1,48,22,1791564108
85,18,7,Jits_ISO_8,2,5,63,98,1791616296
85,18,7,Jits_ISO_8,3,5,56,103,1791656160
85,18,7,Jits_ISO_8,0,5,63,98,1792355616
85,18,7,Jits_ISO_8,1,5,80,127,1792435588
85,18,7,Jits_ISO_8,2,5,56,103,1792455972
85,18,7,Jits_ISO_8,3,1,48,22,1792589064
85,18,7,Jits_ISO_8,0,1,48,20,1793168652
85,18,7,Jits_ISO_8,1,5,56,103,1793196328
85,18,7,Jits_ISO_8,2,5,63,98,1793205700
85,18,7,Jits_ISO_8,3,5,80,127,1793245640
85,18,7,Jits_ISO_8,0,1,48,23,1793887648
85,18,7,Jits_ISO_8,1,5,56,103,1793916164
85,18,7,Jits_ISO_8,2,5,80,127,1793919308
85,18,7,Jits_ISO_8,3,5,63,98,1794055508
85,18,7,Jits_ISO_8,0,1,48,28,1794704320
85,18,7,Jits_ISO_8,1,5,56,103,1794705828
85,18,7,Jits_ISO_8,2,5,63,98,1794795964
85,18,7,Jits_ISO_8,3,5,80,127,1794865556
85,18,7,Jits_ISO_8,0,1,48,23,1795520188
85,18,7,Jits_ISO_8,1,5,63,98,1795586376
85,18,7,Jits_ISO_8,2,5,80,127,1795589964
85,18,7,Jits_ISO_8,3,5,56,103,1795645928
85,18,7,Jits_ISO_8,0,1,48,26,1796362372
85,18,7,Jits_ISO_8,1,5,80,127,1796426164
85,18,7,Jits_ISO_8,2,5,56,103,1796445580
85,18,7,Jits_ISO_8,3,5,63,98,1796455800
85,18,7,Jits_ISO_8,0,5,56,103,1797135976
85,18,7,Jits_ISO_8,1,5,63,98,1797145952
85,18,7,Jits_ISO_8,2,1,48,24,1797166076
85,18,7,Jits_ISO_8,3,5,80,127,1797215700
85,18,7,Jits_ISO_8,0,1,48,26,1797847408
85,18,7,Jits_ISO_8,1,5,80,127,1797935692
85,18,7,Jits_ISO_8,2,5,56,103,1797985512
85,18,7,Jits_ISO_8,3,5,63,98,1798035888
85,18,7,Jits_ISO_8,0,1,48,24,1798676188
85,18,7,Jits_ISO_8,1,5,56,103,1798816180
85,18,7,Jits_ISO_8,2,5,63,98,1798826452
85,18,7,Jits_ISO_8,3,5,80,127,1798866244
85,18,7,Jits_ISO_8,0,5,56,103,1799555384
85,18,7,Jits_ISO_8,1,5,63,98,1799596444
85,18,7,Jits_ISO_8,2,1,48,25,1799603232
85,18,7,Jits_ISO_8,3,5,80,127,1799645444
85,18,7,Jits_ISO_8,0,5,80,127,1800316220
85,18,7,Jits_ISO_8,1,1,48,21,1800358376
85,18,7,Jits_ISO_8,2,5,56,103,1800365300
85,18,7,Jits_ISO_8,3,5,63,98,1800386128
85,18,7,Jits_ISO_8,0,5,80,127,1801126132
85,18,7,Jits_ISO_8,1,1,48,25,1801131716
85,18,7,Jits_ISO_8,2,5,63,98,1801185844
85,18,7,Jits_ISO_8,3,5,56,103,1801265996
85,18,7,Jits_ISO_8,0,5,80,127,1801905552
85,18,7,Jits_ISO_8,1,5,56,103,1801945420
85,18,7,Jits_ISO_8,2,5,63,98,1801965804
85,18,7,Jits_ISO_8,3,1,48,28,1801984140
85,18,7,Jits_ISO_8,0,1,48,20,1802690468
85,18,7,Jits_ISO_8,1,5,56,103,1802755388
85,18,7,Jits_ISO_8,2,5,80,127,1802765956
85,18,7,Jits_ISO_8,3,5,63,98,1802805584
85,18,7,Jits_ISO_8,0,1,48,21,1803526228
85,18,7,Jits_ISO_8,1,5,56,103,1803625836
85,18,7,Jits_ISO_8,2,5,63,98,1803665924
85,18,7,Jits_ISO_8,3,5,80,127,1803669212
85,18,7,Jits_ISO_8,0,5,63,98,1804316000
85,18,7,Jits_ISO_8,1,1,48,28,1804321888
85,18,7,Jits_ISO_8,2,5,80,127,1804355936
85,18,7,Jits_ISO_8,3,5,56,103,1804425700
85,18,7,Jits_ISO_8,0,5,63,98,1805105516
85,18,7,Jits_ISO_8,1,1,48,27,1805126920
85,18,7,Jits_ISO_8,2,5,56,103,1805186528
85,18,7,Jits_ISO_8,3,5,80,127,1805245856
85,18,7,Jits_ISO_8,0,5,80,127,1805915712
85,18,7,Jits_ISO_8,1,1,48,24,1805917576
85,18,7,Jits_ISO_8,2,5,63,98,1805966008
85,18,7,Jits_ISO_8,3,5,56,103,1805996360
85,18,7,Jits_ISO_8,0,5,56,103,1806706020
85,18,7,Jits_ISO_8,1,1,48,24,1806743068
85,18,7,Jits_ISO_8,2,5,63,98,1806756068
85,18,7,Jits_ISO_8,3,5,80,127,1806765364
85,18,7,Jits_ISO_8,0,5,56,103,1807516000
85,18,7,Jits_ISO_8,1,1,48,27,1807529680
85,18,7,Jits_ISO_8,2,5,63,98,1807625688
85,18,7,Jits_ISO_8,3,5,80,127,1807646204
85,18,7,Jits_ISO_8,0,5,63,98,1808315724
85,18,7,Jits_ISO_8,1,5,80,127,1808366004
85,18,7,Jits_ISO_8,2,1,48,22,1808387260
85,18,7,Jits_ISO_8,3,5,56,103,1808456132
85,18,7,Jits_ISO_8,0,5,63,98,1809106216
85,18,7,Jits_ISO_8,1,5,80,127,1809135968
85,18,7,Jits_ISO_8,2,1,48,26,1809139836
85,18,7,Jits_ISO_8,3,5,56,103,1809226168
85,18,7,Jits_ISO_8,0,1,48,27,1809874872
85,18,7,Jits_ISO_8,1,5,63,98,1809905992
85,18,7,Jits_ISO_8,2,5,56,103,1809916260
85,18,7,Jits_ISO_8,3,5,80,127,1810015896
85,18,7,Jits_ISO_8,0,1,48,26,1810698172
85,18,7,Jits_ISO_8,1,5,63,98,1810806104
85,18,7,Jits_ISO_8,2,5,80,127,1810835928
85,18,7,Jits_ISO_8,3,5,56,103,1810865604
85,18,7,Jits_ISO_8,0,1,48,21,1811585064
85,18,7,Jits_ISO_8,1,5,80,127,1811626216
85,18,7,Jits_ISO_8,2,5,63,98,1811635516
85,18,7,Jits_ISO_8,3,5,56,103,1811666312
85,18,7,Jits_ISO_8,0,5,80,127,1812325668
85,18,7,Jits_ISO_8,1,5,63,98,1812346376
85,18,7,Jits_ISO_8,2,1,48,20,1812348316
85,18,7,Jits_ISO_8,3,5,56,103,1812396500
85,18,7,Jits_ISO_8,0,1,48,25,1813093596
85,18,7,Jits_ISO_8,1,5,63,98,1813156124
85,18,7,Jits_ISO_8,2,5,80,127,1813215752
85,18,7,Jits_ISO_8,3,5,56,103,1813236136
85,18,7,Jits_ISO_8,0,5,63,98,1813915984
85,18,7,Jits_ISO_8,1,1,48,27,1813929884
85,18,7,Jits_ISO_8,2,5,56,103,1813966180
85,18,7,Jits_ISO_8,3,5,80,127,1813976376
85,18,7,Jits_ISO_8,0,1,48,25,1814690176
85,18,7,Jits_ISO_8,1,5,56,103,1814745576
85,18,7,Jits_ISO_8,2,5,80,127,1814755772
85,18,7,Jits_ISO_8,3,5,63,98,1814856004
85,18,7,Jits_ISO_8,0,5,80,127,1815506404
85,18,7,Jits_ISO_8,1,5,63,98,1815515556
85,18,7,Jits_ISO_8,2,1,48,19,1815550212
85,18,7,Jits_ISO_8,3,5,56,103,1815666148
85,18,7,Jits_ISO_8,0,5,63,98,1816316164
85,18,7,Jits_ISO_8,1,5,80,127,1816356180
85,18,7,Jits_ISO_8,2,1,48,27,1816379080
85,18,7,Jits_ISO_8,3,5,56,103,1816436072
85,18,7,Jits_ISO_8,0,5,56,103,1817105908
85,18,7,Jits_ISO_8,1,1,48,25,1817173600
85,18,7,Jits_ISO_8,2,5,80,127,1817206256
85,18,7,Jits_ISO_8,3,5,63,98,1817225816
85,18,7,Jits_ISO_8,0,1,48,29,1817962936
85,18,7,Jits_ISO_8,1,5,80,127,1817965968
85,18,7,Jits_ISO_8,2,5,56,103,1817976164
85,18,7,Jits_ISO_8,3,5,63,98,1818066356
85,18,7,Jits_ISO_8,0,5,56,103,1818765684
85,18,7,Jits_ISO_8,1,5,63,98,1818786072
85,18,7,Jits_ISO_8,2,1,48,25,1818828520
85,18,7,Jits_ISO_8,3,5,80,127,1818865936
85,18,7,Jits_ISO_8,0,5,63,98,1819516408
85,18,7,Jits_ISO_8,1,1,48,27,1819569428
85,18,7,Jits_ISO_8,2,5,56,103,1819606464
85,18,7,Jits_ISO_8,3,5,80,127,1819609604
85,18,7,Jits_ISO_8,0,1,48,25,1820330304
85,18,7,Jits_ISO_8,1,5,56,103,1820345920
85,18,7,Jits_ISO_8,2,5,80,127,1820406092
85,18,7,Jits_ISO_8,3,5,63,98,1820416512
85,18,7,Jits_ISO_8,0,1,48,27,1821123340
85,18,7,Jits_ISO_8,1,5,80,127,1821195532
85,18,7,Jits_ISO_8,2,5,56,103,1821205952
85,18,7,Jits_ISO_8,3,5,63,98,1821208940
85,18,7,Jits_ISO_8,0,5,56,103,1821955604
85,18,7,Jits_ISO_8,1,1,48,26,1821958200
85,18,7,Jits_ISO_8,2,5,80,127,1821965644
85,18,7,Jits_ISO_8,3,5,63,98,1821986104
85,18,7,Jits_ISO_8,0,1,48,30,1822692120
85,18,7,Jits_ISO_8,1,5,63,98,1822725644
85,18,7,Jits_ISO_8,2,5,80,127,1822785892
85,18,7,Jits_ISO_8,3,5,56,103,1822835956
85,18,7,Jits_ISO_8,0,1,48,27,1823558592
85,18,7,Jits_ISO_8,1,5,63,98,1823606224
85,18,7,Jits_ISO_8,2,5,56,103,1823616496
85,18,7,Jits_ISO_8,3,5,80,127,1823665712
85,18,7,Jits_ISO_8,0,5,63,98,1824305748
85,18,7,Jits_ISO_8,1,5,80,127,1824325984
85,18,7,Jits_ISO_8,2,5,56,103,1824336180
85,18,7,Jits_ISO_8,3,1,48,28,1824377308
85,18,7,Jits_ISO_8,0,5,63,98,1825106272
85,18,7,Jits_ISO_8,1,1,48,26,1825108752
85,18,7,Jits_ISO_8,2,5,80,127,1825110896
85,18,7,Jits_ISO_8,3,5,56,103,1825146448
85,18,7,Jits_ISO_8,0,1,48,29,1825879332
85,18,7,Jits_ISO_8,1,5,63,98,1825975740
85,18,7,Jits_ISO_8,2,5,80,127,1826006820
85,18,7,Jits_ISO_8,3,5,56,103,1826015596
85,18,7,Jits_ISO_8,0,1,48,31,1826707764
85,18,7,Jits_ISO_8,1,5,56,103,1826726224
85,18,7,Jits_ISO_8,2,5,80,127,1826755900
85,18,7,Jits_ISO_8,3,5,63,98,1826785576
85,18,7,Jits_ISO_8,0,1,48,26,1827469632
85,18,7,Jits_ISO_8,1,5,63,98,1827626460
85,18,7,Jits_ISO_8,2,5,56,103,1827666400
85,18,7,Jits_ISO_8,3,5,80,127,1827669316
85,18,7,Jits_ISO_8,0,5,80,127,1828325796
85,18,7,Jits_ISO_8,1,5,56,103,1828405668
85,18,7,Jits_ISO_8,2,1,48,27,1828447072
85,18,7,Jits_ISO_8,3,5,63,98,1828455664
85,18,7,Jits_ISO_8,0,5,80,127,1829105892
85,18,7,Jits_ISO_8,1,1,48,25,1829122416
85,18,7,Jits_ISO_8,2,5,56,103,1829125596
85,18,7,Jits_ISO_8,3,5,63,98,1829215564
85,18,7,Jits_ISO_8,0,1,48,24,1829873348
85,18,7,Jits_ISO_8,1,5,80,127,1829945692
85,18,7,Jits_ISO_8,2,5,63,98,1829985616
85,18,7,Jits_ISO_8,3,5,56,103,1830025580
85,18,7,Jits_ISO_8,0,5,63,98,1830715812
85,18,7,Jits_ISO_8,1,1,48,19,1830758140
85,18,7,Jits_ISO_8,2,5,80,127,1830776448
85,18,7,Jits_ISO_8,3,5,56,103,1830805752
85,18,7,Jits_ISO_8,0,1,48,21,1831502440
85,18,7,Jits_ISO_8,1,5,56,103,1831515440
85,18,7,Jits_ISO_8,2,5,80,127,1831546336
85,18,7,Jits_ISO_8,3,5,63,98,1831636532
85,18,7,Jits_ISO_8,0,1,48,23,1832259000
85,18,7,Jits_ISO_8,1,5,56,103,1832325436
85,18,7,Jits_ISO_8,2,5,80,127,1832435940
85,18,7,Jits_ISO_8,3,5,63,98,1832465688
85,18,7,Jits_ISO_8,0,1,48,27,1833164092
85,18,7,Jits_ISO_8,1,5,56,103,1833176476
85,18,7,Jits_ISO_8,2,5,63,98,1833235820
85,18,7,Jits_ISO_8,3,5,80,127,1833265480
85,18,7,Jits_ISO_8,0,5,56,103,1833945628
85,18,7,Jits_ISO_8,1,1,48,23,1833979836
85,18,7,Jits_ISO_8,2,5,63,98,1834016356
85,18,7,Jits_ISO_8,3,5,80,127,1834035544
85,18,7,Jits_ISO_8,0,5,80,127,1834715460
85,18,7,Jits_ISO_8,1,5,63,98,1834735996
85,18,7,Jits_ISO_8,2,1,48,23,1834738816
85,18,7,Jits_ISO_8,3,5,56,103,1834786412
85,18,7,Jits_ISO_8,0,9999,9999,9999,1739983944
85,18,7,Jits_ISO_8,1,9999,9999,9999,1740783692
85,18,7,Jits_ISO_8,2,9999,9999,9999,1741583472
85,18,7,Jits_ISO_8,3,9999,9999,9999,1742383196
85,18,7,Jits_ISO_8,4,9999,9999,9999,1743183944
85,18,7,Jits_ISO_8,5,9999,9999,9999,1743983680
85,18,7,Jits_ISO_8,6,9999,9999,9999,1744783460
85,18,7,Jits_ISO_8,7,9999,9999,9999,1745583188
85,18,7,Jits_ISO_8,8,9999,9999,9999,1746383948
85,18,7,Jits_ISO_8,9,9999,9999,9999,1747183716
85,18,7,Jits_ISO_8,10,9999,9999,9999,1747983444
85,18,7,Jits_ISO_8,11,9999,9999,9999,1748783160
85,18,7,Jits_ISO_8,12,9999,9999,9999,1749583996
85,18,7,Jits_ISO_8,13,9999,9999,9999,1750383740
85,18,7,Jits_ISO_8,14,9999,9999,9999,1751183436
85,18,7,Jits_ISO_8,15,9999,9999,9999,1751983228
85,18,7,Jits_ISO_8,16,9999,9999,9999,1752783964
85,18,7,Jits_ISO_8,17,9999,9999,9999,1753583680
85,18,7,Jits_ISO_8,18,9999,9999,9999,1754383472
85,18,7,Jits_ISO_8,19,9999,9999,9999,1755183192
85,18,7,Jits_ISO_8,20,9999,9999,9999,1755983948
85,18,7,Jits_ISO_8,21,9999,9999,9999,1756783680
85,18,7,Jits_ISO_8,22,9999,9999,9999,1757583472
85,18,7,Jits_ISO_8,23,9999,9999,9999,1758383180
85,18,7,Jits_ISO_8,24,9999,9999,9999,1759183932
85,18,7,Jits_ISO_8,25,9999,9999,9999,1759983716
85,18,7,Jits_ISO_8,26,9999,9999,9999,1760783428
85,18,7,Jits_ISO_8,27,9999,9999,9999,1761583212
85,18,7,Jits_ISO_8,28,9999,9999,9999,1762383980
85,18,7,Jits_ISO_8,29,9999,9999,9999,1763183716
85,18,7,Jits_ISO_8,30,9999,9999,9999,1763983424
85,18,7,Jits_ISO_8,31,9999,9999,9999,1764783204
85,18,7,Jits_ISO_8,32,9999,9999,9999,1765583960
85,18,7,Jits_ISO_8,33,9999,9999,9999,1766383680
85,18,7,Jits_ISO_8,34,9999,9999,9999,1767183464
85,18,7,Jits_ISO_8,35,9999,9999,9999,1767983180
85,18,7,Jits_ISO_8,36,9999,9999,9999,1768783940
85,18,7,Jits_ISO_8,37,9999,9999,9999,1769583688
85,18,7,Jits_ISO_8,38,9999,9999,9999,1770383472
85,18,7,Jits_ISO_8,39,9999,9999,9999,1771183180
85,18,7,Jits_ISO_8,40,9999,9999,9999,1771983940
85,18,7,Jits_ISO_8,41,9999,9999,9999,1772783736
85,18,7,Jits_ISO_8,42,9999,9999,9999,1773583444
85,18,7,Jits_ISO_8,43,9999,9999,9999,1774383156
85,18,7,Jits_ISO_8,44,9999,9999,9999,1775183968
85,18,7,Jits_ISO_8,45,9999,9999,9999,1775983704
85,18,7,Jits_ISO_8,46,9999,9999,9999,1776783412
85,18,7,Jits_ISO_8,47,9999,9999,9999,1777583192
85,18,7,Jits_ISO_8,48,9999,9999,9999,1778383964
85,18,7,Jits_ISO_8,49,9999,9999,9999,1779183736
85,18,7,Jits_ISO_8,50,9999,9999,9999,1779983448
85,18,7,Jits_ISO_8,51,9999,9999,9999,1780783228
85,18,7,Jits_ISO_8,52,9999,9999,9999,1781583988
85,18,7,Jits_ISO_8,53,9999,9999,9999,1782383668
85,18,7,Jits_ISO_8,54,9999,9999,9999,1783183460
85,18,7,Jits_ISO_8,55,9999,9999,9999,1783983184
85,18,7,Jits_ISO_8,56,9999,9999,9999,1784783936
85,18,7,Jits_ISO_8,57,9999,9999,9999,1785583716
85,18,7,Jits_ISO_8,58,9999,9999,9999,1786383428
85,18,7,Jits_ISO_8,59,9999,9999,9999,1787183204
85,18,7,Jits_ISO_8,60,9999,9999,9999,1787983960
85,18,7,Jits_ISO_8,61,9999,9999,9999,1788783696
85,18,7,Jits_ISO_8,62,9999,9999,9999,1789583476
85,18,7,Jits_ISO_8,63,9999,9999,9999,1790383180
85,18,7,Jits_ISO_8,64,9999,9999,9999,1791183940
85,18,7,Jits_ISO_8,65,9999,9999,9999,1791983728
85,18,7,Jits_ISO_8,66,9999,9999,9999,1792783460
85,18,7,Jits_ISO_8,67,9999,9999,9999,1793583176
85,18,7,Jits_ISO_8,68,9999,9999,9999,1794383992
85,18,7,Jits_ISO_8,69,9999,9999,9999,1795183728
85,18,7,Jits_ISO_8,70,9999,9999,9999,1795983428
85,18,7,Jits_ISO_8,71,9999,9999,9999,1796783220
85,18,7,Jits_ISO_8,72,9999,9999,9999,1797583972
85,18,7,Jits_ISO_8,73,9999,9999,9999,1798383700
85,18,7,Jits_ISO_8,74,9999,9999,9999,1799183416
85,18,7,Jits_ISO_8,75,9999,9999,9999,1799983204
85,18,7,Jits_ISO_8,76,9999,9999,9999,1800783968
85,18,7,Jits_ISO_8,77,9999,9999,9999,1801583720
85,18,7,Jits_ISO_8,78,9999,9999,9999,1802383436
85,18,7,Jits_ISO_8,79,9999,9999,9999,1803183160
85,18,7,Jits_ISO_8,80,9999,9999,9999,1803983996
85,18,7,Jits_ISO_8,81,9999,9999,9999,1804783700
85,18,7,Jits_ISO_8,82,9999,9999,9999,1805583480
85,18,7,Jits_ISO_8,83,9999,9999,9999,1806383188
85,18,7,Jits_ISO_8,84,9999,9999,9999,1807183956
85,18,7,Jits_ISO_8,85,9999,9999,9999,1807983708
85,18,7,Jits_ISO_8,86,9999,9999,9999,1808783428
85,18,7,Jits_ISO_8,87,9999,9999,9999,1809583208
85,18,7,Jits_ISO_8,88,9999,9999,9999,1810383960
85,18,7,Jits_ISO_8,89,9999,9999,9999,1811183676
85,18,7,Jits_ISO_8,90,9999,9999,9999,1811983472
85,18,7,Jits_ISO_8,91,9999,9999,9999,1812783176
85,18,7,Jits_ISO_8,92,9999,9999,9999,1813583952
85,18,7,Jits_ISO_8,93,9999,9999,9999,1814383680
85,18,7,Jits_ISO_8,94,9999,9999,9999,1815183464
85,18,7,Jits_ISO_8,95,9999,9999,9999,1815983172
85,18,7,Jits_ISO_8,96,9999,9999,9999,1816783940
85,18,7,Jits_ISO_8,97,9999,9999,9999,1817583728
85,18,7,Jits_ISO_8,98,9999,9999,9999,1818383456
85,18,7,Jits_ISO_8,99,9999,9999,9999,1819183168
85,18,7,Jits_ISO_8,100,9999,9999,9999,1819983928
85,18,7,Jits_ISO_8,101,9999,9999,9999,1820783736
85,18,7,Jits_ISO_8,102,9999,9999,9999,1821583440
85,18,7,Jits_ISO_8,103,9999,9999,9999,1822383220
85,18,7,Jits_ISO_8,104,9999,9999,9999,1823183988
85,18,7,Jits_ISO_8,105,9999,9999,9999,1823983708
85,18,7,Jits_ISO_8,106,9999,9999,9999,1824783480
85,18,7,Jits_ISO_8,107,9999,9999,9999,1825583172
85,18,7,Jits_ISO_8,108,9999,9999,9999,1826383932
85,18,7,Jits_ISO_8,109,9999,9999,9999,1827183736
85,18,7,Jits_ISO_8,110,9999,9999,9999,1827983448
85,18,7,Jits_ISO_8,111,9999,9999,9999,1828783160
85,18,7,Jits_ISO_8,112,9999,9999,9999,1829583928
85,18,7,Jits_ISO_8,113,9999,9999,9999,1830383732
85,18,7,Jits_ISO_8,114,9999,9999,9999,1831183436
85,18,7,Jits_ISO_8,115,9999,9999,9999,1831983220
85,18,7,Jits_ISO_8,116,9999,9999,9999,1832783984
85,18,7,Jits_ISO_8,117,9999,9999,9999,1833583724
85,18,7,Jits_ISO_8,118,9999,9999,9999,1834383440
85,18,7,Jits_ISO_8,119,9999,9999,9999,1835183156
85,19,17,Jits_Phase_5,0,5,56,103,1842697600
85,19,17,Jits_Phase_5,1,5,63,98,1842700620
85,19,17,Jits_Phase_5,2,5,80,127,1842703748
85,19,17,Jits_Phase_5,0,5,56,103,1843198276
85,19,17,Jits_Phase_5,1,5,63,98,1843201376
85,19,17,Jits_Phase_5,2,5,80,127,1843204576
85,19,17,Jits_Phase_5,0,5,56,103,1843698084
85,19,17,Jits_Phase_5,1,5,80,127,1843708356
85,19,17,Jits_Phase_5,2,5,63,98,1843727692
85,19,17,Jits_Phase_5,0,5,63,98,1844147540
85,19,17,Jits_Phase_5,1,5,80,127,1844178264
85,19,17,Jits_Phase_5,2,5,56,103,1844187412
85,19,17,Jits_Phase_5,0,1,48,32,1844613572
85,19,17,Jits_Phase_5,1,5,80,127,1844707700
85,19,17,Jits_Phase_5,2,5,56,103,1844718252
85,19,17,Jits_Phase_5,3,5,63,98,1844747556
85,19,17,Jits_Phase_5,0,5,63,98,1845198172
85,19,17,Jits_Phase_5,1,5,56,103,1845227992
85,19,17,Jits_Phase_5,2,5,80,127,1845238192
85,19,17,Jits_Phase_5,3,1,48,24,1845247756
85,19,17,Jits_Phase_5,0,5,56,103,1845647728
85,19,17,Jits_Phase_5,1,5,63,98,1845697856
85,19,17,Jits_Phase_5,2,5,80,127,1845718388
85,19,17,Jits_Phase_5,3,1,48,27,1845739336
85,19,17,Jits_Phase_5,0,5,80,127,1846147492
85,19,17,Jits_Phase_5,1,5,63,98,1846197468
85,19,17,Jits_Phase_5,2,1,48,22,1846201180
85,19,17,Jits_Phase_5,3,5,56,103,1846237548
85,19,17,Jits_Phase_5,0,5,56,103,1846648300
85,19,17,Jits_Phase_5,1,5,63,98,1846677752
85,19,17,Jits_Phase_5,2,1,48,28,1846678720
85,19,17,Jits_Phase_5,3,5,80,127,1846747496
85,19,17,Jits_Phase_5,0,5,56,103,1847148288
85,19,17,Jits_Phase_5,1,1,48,32,1847172680
85,19,17,Jits_Phase_5,2,5,80,127,1847208372
85,19,17,Jits_Phase_5,3,5,63,98,1847237972
85,19,17,Jits_Phase_5,0,5,56,103,1847657872
85,19,17,Jits_Phase_5,1,1,48,30,1847661960
85,19,17,Jits_Phase_5,2,5,63,98,1847668356
85,19,17,Jits_Phase_5,3,5,80,127,1847707996
85,19,17,Jits_Phase_5,0,5,63,98,1848148388
85,19,17,Jits_Phase_5,1,1,48,28,1848158260
85,19,17,Jits_Phase_5,2,5,80,127,1848228200
85,19,17,Jits_Phase_5,3,5,56,103,1848237276
85,19,17,Jits_Phase_5,0,5,63,98,1848698136
85,19,17,Jits_Phase_5,1,1,48,26,1848717964
85,19,17,Jits_Phase_5,2,5,56,103,1848738140
85,19,17,Jits_Phase_5,3,5,80,127,1848741280
85,19,17,Jits_Phase_5,0,5,56,103,1849158216
85,19,17,Jits_Phase_5,1,5,63,98,1849168412
85,19,17,Jits_Phase_5,2,1,48,22,1849207552
85,19,17,Jits_Phase_5,3,5,80,127,1849209116
85,19,17,Jits_Phase_5,0,5,56,103,1849647336
85,19,17,Jits_Phase_5,1,5,63,98,1849650560
85,19,17,Jits_Phase_5,2,5,80,127,1849668320
85,19,17,Jits_Phase_5,3,1,48,15,1849684176
85,19,17,Jits_Phase_5,0,1,48,15,1850154320
85,19,17,Jits_Phase_5,1,5,80,127,1850157500
85,19,17,Jits_Phase_5,2,5,56,103,1850168064
85,19,17,Jits_Phase_5,3,5,63,98,1850238292
85,19,17,Jits_Phase_5,0,5,63,98,1850648036
85,19,17,Jits_Phase_5,1,1,48,19,1850651152
85,19,17,Jits_Phase_5,2,5,56,103,1850668412
85,19,17,Jits_Phase_5,3,5,80,127,1850748212
85,19,17,Jits_Phase_5,0,5,56,103,1851158048
85,19,17,Jits_Phase_5,1,1,48,17,1851173372
85,19,17,Jits_Phase_5,2,5,80,127,1851197904
85,19,17,Jits_Phase_5,3,5,63,98,1851208176
85,19,17,Jits_Phase_5,0,1,48,23,1851641516
85,19,17,Jits_Phase_5,1,5,80,127,1851648364
85,19,17,Jits_Phase_5,2,5,63,98,1851678040
85,19,17,Jits_Phase_5,3,5,56,103,1851718200
85,19,17,Jits_Phase_5,0,1,48,26,1852148612
85,19,17,Jits_Phase_5,1,5,56,103,1852167516
85,19,17,Jits_Phase_5,2,5,63,98,1852198312
85,19,17,Jits_Phase_5,3,5,80,127,1852248496
85,19,17,Jits_Phase_5,0,1,48,26,1852655392
85,19,17,Jits_Phase_5,1,5,80,127,1852668316
85,19,17,Jits_Phase_5,2,5,56,103,1852708180
85,19,17,Jits_Phase_5,3,5,63,98,1852717328
85,19,17,Jits_Phase_5,0,5,80,127,1853147620
85,19,17,Jits_Phase_5,1,5,63,98,1853187412
85,19,17,Jits_Phase_5,2,1,48,26,1853197200
85,19,17,Jits_Phase_5,3,5,56,103,1853247936
85,19,17,Jits_Phase_5,0,5,56,103,1853648132
85,19,17,Jits_Phase_5,1,5,80,127,1853657356
85,19,17,Jits_Phase_5,2,1,48,32,1853681368
85,19,17,Jits_Phase_5,3,5,63,98,1853738260
85,19,17,Jits_Phase_5,0,5,80,127,1854147968
85,19,17,Jits_Phase_5,1,5,63,98,1854208356
85,19,17,Jits_Phase_5,2,5,56,103,1854238180
85,19,17,Jits_Phase_5,3,1,48,27,1854245040
85,19,17,Jits_Phase_5,0,5,56,103,1854647804
85,19,17,Jits_Phase_5,1,5,80,127,1854708044
85,19,17,Jits_Phase_5,2,1,48,28,1854726972
85,19,17,Jits_Phase_5,3,5,63,98,1854747972
85,19,17,Jits_Phase_5,0,5,56,103,1855197544
85,19,17,Jits_Phase_5,1,5,63,98,1855207960
85,19,17,Jits_Phase_5,2,1,48,25,1855209468
85,19,17,Jits_Phase_5,3,5,80,127,1855212436
85,19,17,Jits_Phase_5,0,5,80,127,1855658340
85,19,17,Jits_Phase_5,1,1,48,23,1855694192
85,19,17,Jits_Phase_5,2,5,63,98,1855747344
85,19,17,Jits_Phase_5,3,5,56,103,1855757612
85,19,17,Jits_Phase_5,0,1,48,24,1856145568
85,19,17,Jits_Phase_5,1,5,56,103,1856158000
85,19,17,Jits_Phase_5,2,5,63,98,1856161104
85,19,17,Jits_Phase_5,3,5,80,127,1856164304
85,19,17,Jits_Phase_5,0,1,48,23,1856626332
85,19,17,Jits_Phase_5,1,5,80,127,1856678196
85,19,17,Jits_Phase_5,2,5,63,98,1856728384
85,19,17,Jits_Phase_5,3,5,56,103,1856758132
85,19,17,Jits_Phase_5,0,5,56,103,1857157356
85,19,17,Jits_Phase_5,1,5,80,127,1857167996
85,19,17,Jits_Phase_5,2,1,48,24,1857227908
85,19,17,Jits_Phase_5,3,5,63,98,1857238268
85,19,17,Jits_Phase_5,0,1,48,20,1857647944
85,19,17,Jits_Phase_5,1,5,56,103,1857667296
85,19,17,Jits_Phase_5,2,5,63,98,1857687980
85,19,17,Jits_Phase_5,3,5,80,127,1857748276
85,19,17,Jits_Phase_5,0,5,80,127,1858147772
85,19,17,Jits_Phase_5,1,1,48,22,1858158912
85,19,17,Jits_Phase_5,2,5,63,98,1858218344
85,19,17,Jits_Phase_5,3,5,56,103,1858238052
85,19,17,Jits_Phase_5,0,5,80,127,1858668064
85,19,17,Jits_Phase_5,1,1,48,23,1858670508
85,19,17,Jits_Phase_5,2,5,56,103,1858678104
85,19,17,Jits_Phase_5,3,5,63,98,1858688376
85,19,17,Jits_Phase_5,0,1,48,22,1859158284
85,19,17,Jits_Phase_5,1,5,80,127,1859159624
85,19,17,Jits_Phase_5,2,5,56,103,1859178160
85,19,17,Jits_Phase_5,3,5,63,98,1859247616
85,19,17,Jits_Phase_5,0,5,56,103,1859668376
85,19,17,Jits_Phase_5,1,1,48,24,1859688080
85,19,17,Jits_Phase_5,2,5,80,127,1859698068
85,19,17,Jits_Phase_5,3,5,63,98,1859717552
85,19,17,Jits_Phase_5,0,5,63,98,1860157948
85,19,17,Jits_Phase_5,1,1,48,24,1860162484
85,19,17,Jits_Phase_5,2,5,56,103,1860218208
85,19,17,Jits_Phase_5,3,5,80,127,1860248104
85,19,17,Jits_Phase_5,0,1,48,19,1860634656
85,19,17,Jits_Phase_5,1,5,63,98,1860648164
85,19,17,Jits_Phase_5,2,5,80,127,1860651384
85,19,17,Jits_Phase_5,3,5,56,103,1860738380
85,19,17,Jits_Phase_5,0,5,56,103,1861167692
85,19,17,Jits_Phase_5,1,1,48,21,1861185040
85,19,17,Jits_Phase_5,2,5,63,98,1861198184
85,19,17,Jits_Phase_5,3,5,80,127,1861238072
85,19,17,Jits_Phase_5,0,1,48,24,1861657916
85,19,17,Jits_Phase_5,1,5,63,98,1861668200
85,19,17,Jits_Phase_5,2,5,56,103,1861708136
85,19,17,Jits_Phase_5,3,5,80,127,1861727696
85,19,17,Jits_Phase_5,0,1,48,25,1862146428
85,19,17,Jits_Phase_5,1,5,63,98,1862178064
85,19,17,Jits_Phase_5,2,5,56,103,1862218004
85,19,17,Jits_Phase_5,3,5,80,127,1862228348
85,19,17,Jits_Phase_5,0,1,48,24,1862620844
85,19,17,Jits_Phase_5,1,5,80,127,1862658408
85,19,17,Jits_Phase_5,2,5,63,98,1862728000
85,19,17,Jits_Phase_5,3,5,56,103,1862747488
85,19,17,Jits_Phase_5,0,5,56,103,1863147904
85,19,17,Jits_Phase_5,1,5,80,127,1863168512
85,19,17,Jits_Phase_5,2,1,48,26,1863201372
85,19,17,Jits_Phase_5,3,5,63,98,1863208292
85,19,17,Jits_Phase_5,0,5,63,98,1863657780
85,19,17,Jits_Phase_5,1,5,80,127,1863678316
85,19,17,Jits_Phase_5,2,1,48,22,1863684576
85,19,17,Jits_Phase_5,3,5,56,103,1863718244
85,19,17,Jits_Phase_5,0,1,48,25,1864144824
85,19,17,Jits_Phase_5,1,5,63,98,1864157676
85,19,17,Jits_Phase_5,2,5,56,103,1864177984
85,19,17,Jits_Phase_5,3,5,80,127,1864188256
85,19,17,Jits_Phase_5,0,1,48,24,1864622624
85,19,17,Jits_Phase_5,1,5,80,127,1864658316
85,19,17,Jits_Phase_5,2,5,56,103,1864678028
85,19,17,Jits_Phase_5,3,5,63,98,1864707332
85,19,17,Jits_Phase_5,0,1,48,20,1865176996
85,19,17,Jits_Phase_5,1,5,56,103,1865227812
85,19,17,Jits_Phase_5,2,5,80,127,1865230656
85,19,17,Jits_Phase_5,3,5,63,98,1865248052
85,19,17,Jits_Phase_5,0,5,63,98,1865647408
85,19,17,Jits_Phase_5,1,5,56,103,1865678204
85,19,17,Jits_Phase_5,2,1,48,24,1865692028
85,19,17,Jits_Phase_5,3,5,80,127,1865737536
85,19,17,Jits_Phase_5,0,1,48,21,1866132280
85,19,17,Jits_Phase_5,1,5,63,98,1866228044
85,19,17,Jits_Phase_5,2,5,56,103,1866238316
85,19,17,Jits_Phase_5,3,5,80,127,1866247388
85,19,17,Jits_Phase_5,0,1,48,24,1866674812
85,19,17,Jits_Phase_5,1,5,56,103,1866687960
85,19,17,Jits_Phase_5,2,5,80,127,1866717632
85,19,17,Jits_Phase_5,3,5,63,98,1866727828
85,19,17,Jits_Phase_5,0,1,48,23,1867160788
85,19,17,Jits_Phase_5,1,5,63,98,1867227716
85,19,17,Jits_Phase_5,2,5,56,103,1867237836
85,19,17,Jits_Phase_5,3,5,80,127,1867258876
85,19,17,Jits_Phase_5,0,5,56,103,1867657728
85,19,17,Jits_Phase_5,1,1,48,23,1867675768
85,19,17,Jits_Phase_5,2,5,63,98,1867717880
85,19,17,Jits_Phase_5,3,5,80,127,1867721248
85,19,17,Jits_Phase_5,0,1,48,22,1868164484
85,19,17,Jits_Phase_5,1,5,80,127,1868177852
85,19,17,Jits_Phase_5,2,5,56,103,1868188124
85,19,17,Jits_Phase_5,3,5,63,98,1868257800
85,19,17,Jits_Phase_5,0,5,80,127,1868668320
85,19,17,Jits_Phase_5,1,1,48,24,1868706132
85,19,17,Jits_Phase_5,2,5,56,103,1868737768
85,19,17,Jits_Phase_5,3,5,63,98,1868748260
85,19,17,Jits_Phase_5,0,1,48,22,1869166932
85,19,17,Jits_Phase_5,1,5,63,98,1869207864
85,19,17,Jits_Phase_5,2,5,56,103,1869218132
85,19,17,Jits_Phase_5,3,5,80,127,1869237616
85,19,17,Jits_Phase_5,0,5,80,127,1869657620
85,19,17,Jits_Phase_5,1,1,48,24,1869660588
85,19,17,Jits_Phase_5,2,5,63,98,1869717804
85,19,17,Jits_Phase_5,3,5,56,103,1869757948
85,19,17,Jits_Phase_5,0,5,56,103,1870198016
85,19,17,Jits_Phase_5,1,5,63,98,1870208508
85,19,17,Jits_Phase_5,2,1,48,24,1870216804
85,19,17,Jits_Phase_5,3,5,80,127,1870248288
85,19,17,Jits_Phase_5,0,5,56,103,1870657968
85,19,17,Jits_Phase_5,1,5,80,127,1870687792
85,19,17,Jits_Phase_5,2,1,48,23,1870691836
85,19,17,Jits_Phase_5,3,5,63,98,1870737788
85,19,17,Jits_Phase_5,0,1,48,27,1871163984
85,19,17,Jits_Phase_5,1,5,56,103,1871197732
85,19,17,Jits_Phase_5,2,5,63,98,1871237616
85,19,17,Jits_Phase_5,3,5,80,127,1871240832
85,19,17,Jits_Phase_5,0,1,48,26,1871657588
85,19,17,Jits_Phase_5,1,5,56,103,1871698144
85,19,17,Jits_Phase_5,2,5,63,98,1871707664
85,19,17,Jits_Phase_5,3,5,80,127,1871727928
85,19,17,Jits_Phase_5,0,5,56,103,1872157964
85,19,17,Jits_Phase_5,1,5,80,127,1872161108
85,19,17,Jits_Phase_5,2,1,48,26,1872181160
85,19,17,Jits_Phase_5,3,5,63,98,1872197900
85,19,17,Jits_Phase_5,0,1,48,24,1872692744
85,19,17,Jits_Phase_5,1,5,63,98,1872698020
85,19,17,Jits_Phase_5,2,5,56,103,1872728448
85,19,17,Jits_Phase_5,3,5,80,127,1872747884
85,19,17,Jits_Phase_5,0,5,80,127,1873167812
85,19,17,Jits_Phase_5,1,5,56,103,1873178012
85,19,17,Jits_Phase_5,2,5,63,98,1873188132
85,19,17,Jits_Phase_5,3,1,48,26,1873199124
85,19,17,Jits_Phase_5,0,1,48,22,1873653524
85,19,17,Jits_Phase_5,1,5,56,103,1873667568
85,19,17,Jits_Phase_5,2,5,80,127,1873708332
85,19,17,Jits_Phase_5,3,5,63,98,1873738080
85,19,17,Jits_Phase_5,0,1,48,24,1874161372
85,19,17,Jits_Phase_5,1,5,63,98,1874178632
85,19,17,Jits_Phase_5,2,5,80,127,1874187780
85,19,17,Jits_Phase_5,3,5,56,103,1874197828
85,19,17,Jits_Phase_5,0,1,48,22,1874624404
85,19,17,Jits_Phase_5,1,5,56,103,1874667744
85,19,17,Jits_Phase_5,2,5,63,98,1874737708
85,19,17,Jits_Phase_5,3,5,80,127,1874747756
85,19,17,Jits_Phase_5,0,1,48,25,1875158552
85,19,17,Jits_Phase_5,1,5,80,127,1875177832
85,19,17,Jits_Phase_5,2,5,56,103,1875188028
85,19,17,Jits_Phase_5,3,5,63,98,1875238228
85,19,17,Jits_Phase_5,0,1,48,26,1875686644
85,19,17,Jits_Phase_5,1,5,80,127,1875688140
85,19,17,Jits_Phase_5,2,5,56,103,1875748084
85,19,17,Jits_Phase_5,3,5,63,98,1875777756
85,19,17,Jits_Phase_5,0,5,56,103,1876187744
85,19,17,Jits_Phase_5,1,5,80,127,1876190588
85,19,17,Jits_Phase_5,2,1,48,22,1876204268
85,19,17,Jits_Phase_5,3,5,63,98,1876227600
85,19,17,Jits_Phase_5,0,1,48,24,1876683940
85,19,17,Jits_Phase_5,1,5,56,103,1876718056
85,19,17,Jits_Phase_5,2,5,63,98,1876747732
85,19,17,Jits_Phase_5,3,5,80,127,1876757856
85,19,17,Jits_Phase_5,0,1,48,24,1877173948
85,19,17,Jits_Phase_5,1,5,63,98,1877227852
85,19,17,Jits_Phase_5,2,5,80,127,1877238124
85,19,17,Jits_Phase_5,3,5,56,103,1877248320
85,19,17,Jits_Phase_5,0,5,80,127,1877677564
85,19,17,Jits_Phase_5,1,1,48,23,1877692288
85,19,17,Jits_Phase_5,2,5,56,103,1877727680
85,19,17,Jits_Phase_5,3,5,63,98,1877730748
85,19,17,Jits_Phase_5,0,1,48,25,1878188076
85,19,17,Jits_Phase_5,1,5,56,103,1878207880
85,19,17,Jits_Phase_5,2,5,80,127,1878228264
85,19,17,Jits_Phase_5,3,5,63,98,1878237636
85,19,17,Jits_Phase_5,0,5,63,98,1878688152
85,19,17,Jits_Phase_5,1,1,48,24,1878711648
85,19,17,Jits_Phase_5,2,5,56,103,1878717748
85,19,17,Jits_Phase_5,3,5,80,127,1878738580
85,19,17,Jits_Phase_5,0,1,48,22,1879167868
85,19,17,Jits_Phase_5,1,5,56,103,1879198012
85,19,17,Jits_Phase_5,2,5,80,127,1879208428
85,19,17,Jits_Phase_5,3,5,63,98,1879277792
85,19,17,Jits_Phase_5,0,5,63,98,1879687580
85,19,17,Jits_Phase_5,1,1,48,23,1879721188
85,19,17,Jits_Phase_5,2,5,80,127,1879727584
85,19,17,Jits_Phase_5,3,5,56,103,1879768644
85,19,17,Jits_Phase_5,0,1,48,24,1880194628
85,19,17,Jits_Phase_5,1,5,56,103,1880197736
85,19,17,Jits_Phase_5,2,5,63,98,1880207708
85,19,17,Jits_Phase_5,3,5,80,127,1880228240
85,19,17,Jits_Phase_5,0,1,48,19,1880687272
85,19,17,Jits_Phase_5,1,5,63,98,1880738092
85,19,17,Jits_Phase_5,2,5,80,127,1880757576
85,19,17,Jits_Phase_5,3,5,56,103,1880778768
85,19,17,Jits_Phase_5,0,5,56,103,1881177668
85,19,17,Jits_Phase_5,1,1,48,25,1881205228
85,19,17,Jits_Phase_5,2,5,80,127,1881258528
85,19,17,Jits_Phase_5,3,5,63,98,1881267824
85,19,17,Jits_Phase_5,0,1,48,25,1881707324
85,19,17,Jits_Phase_5,1,5,80,127,1881718136
85,19,17,Jits_Phase_5,2,5,63,98,1881728776
85,19,17,Jits_Phase_5,3,5,56,103,1881758080
85,19,17,Jits_Phase_5,0,5,63,98,1882177860
85,19,17,Jits_Phase_5,1,1,48,22,1882217444
85,19,17,Jits_Phase_5,2,5,80,127,1882218936
85,19,17,Jits_Phase_5,3,5,56,103,1882278276
85,19,17,Jits_Phase_5,0,5,63,98,1882687872
85,19,17,Jits_Phase_5,1,1,48,20,1882728180
85,19,17,Jits_Phase_5,2,5,56,103,1882738092
85,19,17,Jits_Phase_5,3,5,80,127,1882767692
85,19,17,Jits_Phase_5,0,5,80,127,1883187696
85,19,17,Jits_Phase_5,1,5,63,98,1883197740
85,19,17,Jits_Phase_5,2,1,48,23,1883199752
85,19,17,Jits_Phase_5,3,5,56,103,1883267732
85,19,17,Jits_Phase_5,0,1,48,20,1883717100
85,19,17,Jits_Phase_5,1,5,80,127,1883747716
85,19,17,Jits_Phase_5,2,5,56,103,1883757908
85,19,17,Jits_Phase_5,3,5,63,98,1883761052
85,19,17,Jits_Phase_5,0,5,56,103,1884188108
85,19,17,Jits_Phase_5,1,5,80,127,1884207672
85,19,17,Jits_Phase_5,2,5,63,98,1884217792
85,19,17,Jits_Phase_5,3,1,48,22,1884219876
85,19,17,Jits_Phase_5,0,5,63,98,1884697840
85,19,17,Jits_Phase_5,1,1,48,25,1884714584
85,19,17,Jits_Phase_5,2,5,56,103,1884737844
85,19,17,Jits_Phase_5,3,5,80,127,1884758524
85,19,17,Jits_Phase_5,0,5,63,98,1885197740
85,19,17,Jits_Phase_5,1,1,48,24,1885208428
85,19,17,Jits_Phase_5,2,5,56,103,1885258124
85,19,17,Jits_Phase_5,3,5,80,127,1885261188
85,19,17,Jits_Phase_5,0,5,56,103,1885657628
85,19,17,Jits_Phase_5,1,5,80,127,1885677788
85,19,17,Jits_Phase_5,2,1,48,21,1885704648
85,19,17,Jits_Phase_5,3,5,63,98,1885717864
85,19,17,Jits_Phase_5,0,1,48,23,1886178856
85,19,17,Jits_Phase_5,1,5,56,103,1886187872
85,19,17,Jits_Phase_5,2,5,63,98,1886208484
85,19,17,Jits_Phase_5,3,5,80,127,1886217556
85,19,17,Jits_Phase_5,0,5,80,127,1886657888
85,19,17,Jits_Phase_5,1,5,56,103,1886687488
85,19,17,Jits_Phase_5,2,1,48,24,1886696460
85,19,17,Jits_Phase_5,3,5,63,98,1886727640
85,19,17,Jits_Phase_5,0,5,80,127,1887167840
85,19,17,Jits_Phase_5,1,1,48,25,1887174400
85,19,17,Jits_Phase_5,2,5,56,103,1887188664
85,19,17,Jits_Phase_5,3,5,63,98,1887247708
85,19,17,Jits_Phase_5,0,5,56,103,1887677868
85,19,17,Jits_Phase_5,1,1,48,25,1887681508
85,19,17,Jits_Phase_5,2,5,80,127,1887698472
85,19,17,Jits_Phase_5,3,5,63,98,1887757660
85,19,17,Jits_Phase_5,0,5,80,127,1888158004
85,19,17,Jits_Phase_5,1,5,56,103,1888168496
85,19,17,Jits_Phase_5,2,1,48,26,1888170140
85,19,17,Jits_Phase_5,3,5,63,98,1888208204
85,19,17,Jits_Phase_5,0,1,48,23,1888646648
85,19,17,Jits_Phase_5,1,5,63,98,1888657904
85,19,17,Jits_Phase_5,2,5,56,103,1888697692
85,19,17,Jits_Phase_5,3,5,80,127,1888700760
85,19,17,Jits_Phase_5,0,1,48,24,1889146384
85,19,17,Jits_Phase_5,1,5,63,98,1889177872
85,19,17,Jits_Phase_5,2,5,80,127,1889217884
85,19,17,Jits_Phase_5,3,5,56,103,1889247620
85,19,17,Jits_Phase_5,0,5,56,103,1889667588
85,19,17,Jits_Phase_5,1,5,63,98,1889677636
85,19,17,Jits_Phase_5,2,1,48,25,1889698436
85,19,17,Jits_Phase_5,3,5,80,127,1889708572
85,19,17,Jits_Phase_5,0,5,80,127,1890157984
85,19,17,Jits_Phase_5,1,1,48,20,1890169420
85,19,17,Jits_Phase_5,2,5,63,98,1890227656
85,19,17,Jits_Phase_5,3,5,56,103,1890237776
85,19,17,Jits_Phase_5,0,5,63,98,1890657724
85,19,17,Jits_Phase_5,1,1,48,23,1890689860
85,19,17,Jits_Phase_5,2,5,56,103,1890728392
85,19,17,Jits_Phase_5,3,5,80,127,1890737468
85,19,17,Jits_Phase_5,0,5,63,98,1891137844
85,19,17,Jits_Phase_5,1,5,56,103,1891158452
85,19,17,Jits_Phase_5,2,1,48,26,1891165776
85,19,17,Jits_Phase_5,3,5,80,127,1891198480
85,19,17,Jits_Phase_5,0,5,56,103,1891618116
85,19,17,Jits_Phase_5,1,5,63,98,1891628608
85,19,17,Jits_Phase_5,2,1,48,25,1891665212
85,19,17,Jits_Phase_5,3,5,80,127,1891708492
85,19,17,Jits_Phase_5,0,5,63,98,1892107688
85,19,17,Jits_Phase_5,1,1,48,26,1892116284
85,19,17,Jits_Phase_5,2,5,56,103,1892138552
85,19,17,Jits_Phase_5,3,5,80,127,1892178712
85,19,17,Jits_Phase_5,0,1,48,26,1892608560
85,19,17,Jits_Phase_5,1,5,56,103,1892609748
85,19,17,Jits_Phase_5,2,5,63,98,1892648416
85,19,17,Jits_Phase_5,3,5,80,127,1892688648
85,19,17,Jits_Phase_5,0,1,48,25,1893097644
85,19,17,Jits_Phase_5,1,5,80,127,1893108076
85,19,17,Jits_Phase_5,2,5,56,103,1893187948
85,19,17,Jits_Phase_5,3,5,63,98,1893198424
85,19,17,Jits_Phase_5,0,1,48,27,1893613260
85,19,17,Jits_Phase_5,1,5,56,103,1893647684
85,19,17,Jits_Phase_5,2,5,63,98,1893650824
85,19,17,Jits_Phase_5,3,5,80,127,1893658252
85,19,17,Jits_Phase_5,0,1,48,27,1894114952
85,19,17,Jits_Phase_5,1,5,56,103,1894167880
85,19,17,Jits_Phase_5,2,5,63,98,1894188488
85,19,17,Jits_Phase_5,3,5,80,127,1894197564
85,19,17,Jits_Phase_5,0,5,63,98,1894627708
85,19,17,Jits_Phase_5,1,5,80,127,1894637904
85,19,17,Jits_Phase_5,2,1,48,28,1894645812
85,19,17,Jits_Phase_5,3,5,56,103,1894658356
85,19,17,Jits_Phase_5,0,1,48,26,1895111608
85,19,17,Jits_Phase_5,1,5,63,98,1895128420
85,19,17,Jits_Phase_5,2,5,56,103,1895208436
85,19,17,Jits_Phase_5,3,5,80,127,1895212236
85,19,17,Jits_Phase_5,0,5,63,98,1895628320
85,19,17,Jits_Phase_5,1,1,48,29,1895646452
85,19,17,Jits_Phase_5,2,5,56,103,1895647948
85,19,17,Jits_Phase_5,3,5,80,127,1895678224
85,19,17,Jits_Phase_5,0,5,56,103,1896127772
85,19,17,Jits_Phase_5,1,1,48,27,1896134556
85,19,17,Jits_Phase_5,2,5,63,98,1896148224
85,19,17,Jits_Phase_5,3,5,80,127,1896157524
85,19,17,Jits_Phase_5,0,1,48,25,1896632368
85,19,17,Jits_Phase_5,1,5,56,103,1896667536
85,19,17,Jits_Phase_5,2,5,63,98,1896698480
85,19,17,Jits_Phase_5,3,5,80,127,1896701692
85,19,17,Jits_Phase_5,0,1,48,25,1897104760
85,19,17,Jits_Phase_5,1,5,56,103,1897118204
85,19,17,Jits_Phase_5,2,5,63,98,1897157992
85,19,17,Jits_Phase_5,3,5,80,127,1897218364
85,19,17,Jits_Phase_5,0,1,48,28,1897635744
85,19,17,Jits_Phase_5,1,5,56,103,1897638404
85,19,17,Jits_Phase_5,2,5,63,98,1897647480
85,19,17,Jits_Phase_5,3,5,80,127,1897708016
85,19,17,Jits_Phase_5,0,5,56,103,1898138012
85,19,17,Jits_Phase_5,1,1,48,21,1898154312
85,19,17,Jits_Phase_5,2,5,80,127,1898157492
85,19,17,Jits_Phase_5,3,5,63,98,1898188436
85,19,17,Jits_Phase_5,0,1,48,25,1898622008
85,19,17,Jits_Phase_5,1,5,80,127,1898637692
85,19,17,Jits_Phase_5,2,5,56,103,1898647888
85,19,17,Jits_Phase_5,3,5,63,98,1898668348
85,19,17,Jits_Phase_5,0,1,48,25,1899117116
85,19,17,Jits_Phase_5,1,5,63,98,1899128448
85,19,17,Jits_Phase_5,2,5,80,127,1899209348
85,19,17,Jits_Phase_5,3,5,56,103,1899218424
85,19,17,Jits_Phase_5,0,1,48,25,1899687372
85,19,17,Jits_Phase_5,1,5,80,127,1899717960
85,19,17,Jits_Phase_5,2,5,56,103,1899737520
85,19,17,Jits_Phase_5,3,5,63,98,1899740508
85,19,17,Jits_Phase_5,0,5,63,98,1900207444
85,19,17,Jits_Phase_5,1,5,80,127,1900210880
85,19,17,Jits_Phase_5,2,1,48,30,1900212672
85,19,17,Jits_Phase_5,3,5,56,103,1900267900
85,19,17,Jits_Phase_5,0,5,56,103,1900687636
85,19,17,Jits_Phase_5,1,5,80,127,1900697832
85,19,17,Jits_Phase_5,2,5,63,98,1900737768
85,19,17,Jits_Phase_5,3,1,48,26,1900754664
85,19,17,Jits_Phase_5,0,5,56,103,1901168068
85,19,17,Jits_Phase_5,1,1,48,26,1901222424
85,19,17,Jits_Phase_5,2,5,63,98,1901228376
85,19,17,Jits_Phase_5,3,5,80,127,1901237524
85,19,17,Jits_Phase_5,0,5,63,98,1901677872
85,19,17,Jits_Phase_5,1,1,48,26,1901701292
85,19,17,Jits_Phase_5,2,5,80,127,1901717800
85,19,17,Jits_Phase_5,3,5,56,103,1901757664
85,19,17,Jits_Phase_5,0,5,56,103,1902177520
85,19,17,Jits_Phase_5,1,1,48,27,1902207020
85,19,17,Jits_Phase_5,2,5,63,98,1902257456
85,19,17,Jits_Phase_5,3,5,80,127,1902260820
85,19,17,Jits_Phase_5,0,1,48,25,1902708264
85,19,17,Jits_Phase_5,1,5,80,127,1902737656
85,19,17,Jits_Phase_5,2,5,56,103,1902767404
85,19,17,Jits_Phase_5,3,5,63,98,1902770320
85,19,17,Jits_Phase_5,0,5,56,103,1903197528
85,19,17,Jits_Phase_5,1,5,80,127,1903218160
85,19,17,Jits_Phase_5,2,1,48,23,1903220604
85,19,17,Jits_Phase_5,3,5,63,98,1903258236
85,19,17,Jits_Phase_5,0,5,80,127,1903677740
85,19,17,Jits_Phase_5,1,5,63,98,1903698424
85,19,17,Jits_Phase_5,2,1,48,24,1903707540
85,19,17,Jits_Phase_5,3,5,56,103,1903757704
85,19,17,Jits_Phase_5,0,1,48,25,1904184124
85,19,17,Jits_Phase_5,1,5,63,98,1904187904
85,19,17,Jits_Phase_5,2,5,56,103,1904198172
85,19,17,Jits_Phase_5,3,5,80,127,1904248248
85,19,17,Jits_Phase_5,0,1,48,24,1904670688
85,19,17,Jits_Phase_5,1,5,56,103,1904678136
85,19,17,Jits_Phase_5,2,5,63,98,1904697624
85,19,17,Jits_Phase_5,3,5,80,127,1904707892
85,19,17,Jits_Phase_5,0,5,56,103,1905167696
85,19,17,Jits_Phase_5,1,1,48,26,1905170384
85,19,17,Jits_Phase_5,2,5,63,98,1905172100
85,19,17,Jits_Phase_5,3,5,80,127,1905188148
85,19,17,Jits_Phase_5,0,1,48,27,1905657304
85,19,17,Jits_Phase_5,1,5,63,98,1905708348
85,19,17,Jits_Phase_5,2,5,56,103,1905738168
85,19,17,Jits_Phase_5,3,5,80,127,1905767780
85,19,17,Jits_Phase_5,0,5,80,127,1906168252
85,19,17,Jits_Phase_5,1,1,48,25,1906195488
85,19,17,Jits_Phase_5,2,5,56,103,1906258372
85,19,17,Jits_Phase_5,3,5,63,98,1906261436
85,19,17,Jits_Phase_5,0,5,56,103,1906668004
85,19,17,Jits_Phase_5,1,5,80,127,1906671144
85,19,17,Jits_Phase_5,2,1,48,25,1906715536
85,19,17,Jits_Phase_5,3,5,63,98,1906747640
85,19,17,Jits_Phase_5,0,5,80,127,1907167612
85,19,17,Jits_Phase_5,1,1,48,26,1907173340
85,19,17,Jits_Phase_5,2,5,63,98,1907228140
85,19,17,Jits_Phase_5,3,5,56,103,1907257740
85,19,17,Jits_Phase_5,0,5,63,98,1907668276
85,19,17,Jits_Phase_5,1,5,80,127,1907677572
85,19,17,Jits_Phase_5,2,1,48,29,1907704136
85,19,17,Jits_Phase_5,3,5,56,103,1907748140
85,19,17,Jits_Phase_5,0,1,48,27,1908208896
85,19,17,Jits_Phase_5,1,5,56,103,1908227500
85,19,17,Jits_Phase_5,2,5,80,127,1908258076
85,19,17,Jits_Phase_5,3,5,63,98,1908308272
85,19,17,Jits_Phase_5,0,1,48,29,1908752760
85,19,17,Jits_Phase_5,1,5,63,98,1908827488
85,19,17,Jits_Phase_5,2,5,56,103,1908858296
85,19,17,Jits_Phase_5,3,5,80,127,1908861584
85,19,17,Jits_Phase_5,0,5,63,98,1909328212
85,19,17,Jits_Phase_5,1,1,48,22,1909334624
85,19,17,Jits_Phase_5,2,5,80,127,1909347716
85,19,17,Jits_Phase_5,3,5,56,103,1909358136
85,19,17,Jits_Phase_5,0,1,48,26,1909803128
85,19,17,Jits_Phase_5,1,5,56,103,1909838368
85,19,17,Jits_Phase_5,2,5,63,98,1909841360
85,19,17,Jits_Phase_5,3,5,80,127,1909857728
85,19,17,Jits_Phase_5,0,5,56,103,1910287772
85,19,17,Jits_Phase_5,1,5,63,98,1910298044
85,19,17,Jits_Phase_5,2,1,48,27,1910302208
85,19,17,Jits_Phase_5,3,5,80,127,1910327712
85,19,17,Jits_Phase_5,0,1,48,26,1910762096
85,19,17,Jits_Phase_5,1,5,63,98,1910808056
85,19,17,Jits_Phase_5,2,5,80,127,1910828440
85,19,17,Jits_Phase_5,3,5,56,103,1910868436
85,19,17,Jits_Phase_5,0,1,48,26,1911296920
85,19,17,Jits_Phase_5,1,5,56,103,1911338300
85,19,17,Jits_Phase_5,2,5,63,98,1911378236
85,19,17,Jits_Phase_5,3,5,80,127,1911381600
85,19,17,Jits_Phase_5,0,5,80,127,1911777668
85,19,17,Jits_Phase_5,1,5,56,103,1911817532
85,19,17,Jits_Phase_5,2,1,48,24,1911829340
85,19,17,Jits_Phase_5,3,5,63,98,1911867724
85,19,17,Jits_Phase_5,0,1,48,23,1912302564
85,19,17,Jits_Phase_5,1,5,56,103,1912338108
85,19,17,Jits_Phase_5,2,5,80,127,1912348380
85,19,17,Jits_Phase_5,3,5,63,98,1912377908
85,19,17,Jits_Phase_5,0,5,56,103,1912797420
85,19,17,Jits_Phase_5,1,1,48,22,1912813720
85,19,17,Jits_Phase_5,2,5,80,127,1912837428
85,19,17,Jits_Phase_5,3,5,63,98,1912887552
85,19,17,Jits_Phase_5,0,5,56,103,1913298236
85,19,17,Jits_Phase_5,1,1,48,27,1913312740
85,19,17,Jits_Phase_5,2,5,80,127,1913338168
85,19,17,Jits_Phase_5,3,5,63,98,1913388292
85,19,17,Jits_Phase_5,0,1,48,29,1913782532
85,19,17,Jits_Phase_5,1,5,80,127,1913787956
85,19,17,Jits_Phase_5,2,5,63,98,1913867752
85,19,17,Jits_Phase_5,3,5,56,103,1913878020
85,19,17,Jits_Phase_5,0,1,48,25,1914316380
85,19,17,Jits_Phase_5,1,5,80,127,1914337604
85,19,17,Jits_Phase_5,2,5,56,103,1914348172
85,19,17,Jits_Phase_5,3,5,63,98,1914368408
85,19,17,Jits_Phase_5,0,1,48,29,1914801136
85,19,17,Jits_Phase_5,1,5,63,98,1914807540
85,19,17,Jits_Phase_5,2,5,56,103,1914878264
85,19,17,Jits_Phase_5,3,5,80,127,1914881404
85,19,17,Jits_Phase_5,0,5,80,127,1915298148
85,19,17,Jits_Phase_5,1,5,63,98,1915348276
85,19,17,Jits_Phase_5,2,1,48,26,1915354240
85,19,17,Jits_Phase_5,3,5,56,103,1915388280
85,19,17,Jits_Phase_5,0,5,63,98,1915837996
85,19,17,Jits_Phase_5,1,5,56,103,1915877712
85,19,17,Jits_Phase_5,2,1,48,25,1915883444
85,19,17,Jits_Phase_5,3,5,80,127,1915888124
85,19,17,Jits_Phase_5,0,5,63,98,1916328236
85,19,17,Jits_Phase_5,1,5,56,103,1916347948
85,19,17,Jits_Phase_5,2,1,48,24,1916351436
85,19,17,Jits_Phase_5,3,5,80,127,1916368100
85,19,17,Jits_Phase_5,0,5,80,127,1916788056
85,19,17,Jits_Phase_5,1,5,56,103,1916798252
85,19,17,Jits_Phase_5,2,5,63,98,1916817884
85,19,17,Jits_Phase_5,3,1,48,24,1916849400
85,19,17,Jits_Phase_5,0,1,48,25,1917295116
85,19,17,Jits_Phase_5,1,5,63,98,1917317480
85,19,17,Jits_Phase_5,2,5,56,103,1917357344
85,19,17,Jits_Phase_5,3,5,80,127,1917388140
85,19,17,Jits_Phase_5,0,5,56,103,1917778180
85,19,17,Jits_Phase_5,1,5,63,98,1917807956
85,19,17,Jits_Phase_5,2,1,48,29,1917820440
85,19,17,Jits_Phase_5,3,5,80,127,1917837624
85,19,17,Jits_Phase_5,0,5,80,127,1918198168
85,19,17,Jits_Phase_5,1,5,56,103,1918267844
85,19,17,Jits_Phase_5,2,5,63,98,1918270912
85,19,17,Jits_Phase_5,3,1,48,26,1918313008
85,19,17,Jits_Phase_5,0,5,56,103,1918708040
85,19,17,Jits_Phase_5,1,5,63,98,1918758244
85,19,17,Jits_Phase_5,2,5,80,127,1918788140
85,19,17,Jits_Phase_5,3,1,48,24,1918792008
85,19,17,Jits_Phase_5,0,5,63,98,1919188476
85,19,17,Jits_Phase_5,1,5,80,127,1919191840
85,19,17,Jits_Phase_5,2,1,48,27,1919233172
85,19,17,Jits_Phase_5,3,5,56,103,1919247660
85,19,17,Jits_Phase_5,0,1,48,26,1919707444
85,19,17,Jits_Phase_5,1,5,56,103,1919717880
85,19,17,Jits_Phase_5,2,5,80,127,1919728224
85,19,17,Jits_Phase_5,3,5,63,98,1919778124
85,19,17,Jits_Phase_5,0,5,63,98,1920187896
85,19,17,Jits_Phase_5,1,5,56,103,1920198016
85,19,17,Jits_Phase_5,2,5,80,127,1920227912
85,19,17,Jits_Phase_5,3,1,48,24,1920230512
85,19,17,Jits_Phase_5,0,1,48,22,1920669400
85,19,17,Jits_Phase_5,1,5,63,98,1920718124
85,19,17,Jits_Phase_5,2,5,80,127,1920721264
85,19,17,Jits_Phase_5,3,5,56,103,1920747872
85,19,17,Jits_Phase_5,0,1,48,25,1921169964
85,19,17,Jits_Phase_5,1,5,63,98,1921238320
85,19,17,Jits_Phase_5,2,5,56,103,1921257876
85,19,17,Jits_Phase_5,3,5,80,127,1921260940
85,19,17,Jits_Phase_5,0,5,63,98,1921698208
85,19,17,Jits_Phase_5,1,1,48,26,1921740212
85,19,17,Jits_Phase_5,2,5,56,103,1921767880
85,19,17,Jits_Phase_5,3,5,80,127,1921788412
85,19,17,Jits_Phase_5,0,5,56,103,1922187620
85,19,17,Jits_Phase_5,1,5,63,98,1922197968
85,19,17,Jits_Phase_5,2,1,48,25,1922237348
85,19,17,Jits_Phase_5,3,5,80,127,1922288012
85,19,17,Jits_Phase_5,0,5,56,103,1922707912
85,19,17,Jits_Phase_5,1,1,48,22,1922716280
85,19,17,Jits_Phase_5,2,5,80,127,1922747840
85,19,17,Jits_Phase_5,3,5,63,98,1922758036
85,19,17,Jits_Phase_5,0,1,48,23,1923214828
85,19,17,Jits_Phase_5,1,5,56,103,1923227972
85,19,17,Jits_Phase_5,2,5,63,98,1923257648
85,19,17,Jits_Phase_5,3,5,80,127,1923288440
85,19,17,Jits_Phase_5,0,5,80,127,1923687948
85,19,17,Jits_Phase_5,1,1,48,25,1923709052
85,19,17,Jits_Phase_5,2,5,63,98,1923727952
85,19,17,Jits_Phase_5,3,5,56,103,1923748188
85,19,17,Jits_Phase_5,0,1,48,27,1924198840
85,19,17,Jits_Phase_5,1,5,56,103,1924227336
85,19,17,Jits_Phase_5,2,5,80,127,1924248092
85,19,17,Jits_Phase_5,3,5,63,98,1924268328
85,19,17,Jits_Phase_5,0,5,63,98,1924697400
85,19,17,Jits_Phase_5,1,5,56,103,1924707844
85,19,17,Jits_Phase_5,2,1,48,21,1924713732
85,19,17,Jits_Phase_5,3,5,80,127,1924768148
85,19,17,Jits_Phase_5,0,1,48,22,1925187680
85,19,17,Jits_Phase_5,1,5,56,103,1925198112
85,19,17,Jits_Phase_5,2,5,63,98,1925267892
85,19,17,Jits_Phase_5,3,5,80,127,1925288188
85,19,17,Jits_Phase_5,0,5,56,103,1925697944
85,19,17,Jits_Phase_5,1,5,63,98,1925727692
85,19,17,Jits_Phase_5,2,1,48,23,1925741320
85,19,17,Jits_Phase_5,3,5,80,127,1925767496
85,19,17,Jits_Phase_5,0,5,63,98,1926188340
85,19,17,Jits_Phase_5,1,1,48,24,1926197156
85,19,17,Jits_Phase_5,2,5,56,103,1926237412
85,19,17,Jits_Phase_5,3,5,80,127,1926248228
85,19,17,Jits_Phase_5,0,1,48,23,1926698836
85,19,17,Jits_Phase_5,1,5,56,103,1926738268
85,19,17,Jits_Phase_5,2,5,63,98,1926787376
85,19,17,Jits_Phase_5,3,5,80,127,1926797856
85,19,17,Jits_Phase_5,0,1,48,23,1927197100
85,19,17,Jits_Phase_5,1,5,56,103,1927208432
85,19,17,Jits_Phase_5,2,5,63,98,1927217508
85,19,17,Jits_Phase_5,3,5,80,127,1927298352
85,19,17,Jits_Phase_5,0,9999,9999,9999,1842945108
85,19,17,Jits_Phase_5,1,9999,9999,9999,1843445864
85,19,17,Jits_Phase_5,2,9999,9999,9999,1843945596
85,19,17,Jits_Phase_5,3,9999,9999,9999,1844445244
85,19,17,Jits_Phase_5,4,9999,9999,9999,1844945984
85,19,17,Jits_Phase_5,5,9999,9999,9999,1845445736
85,19,17,Jits_Phase_5,6,9999,9999,9999,1845945412
85,19,17,Jits_Phase_5,7,9999,9999,9999,1846445176
85,19,17,Jits_Phase_5,8,9999,9999,9999,1846945912
85,19,17,Jits_Phase_5,9,9999,9999,9999,1847445600
85,19,17,Jits_Phase_5,10,9999,9999,9999,1847945288
85,19,17,Jits_Phase_5,11,9999,9999,9999,1848446024
85,19,17,Jits_Phase_5,12,9999,9999,9999,1848945764
85,19,17,Jits_Phase_5,13,9999,9999,9999,1849445440
85,19,17,Jits_Phase_5,14,9999,9999,9999,1849945160
85,19,17,Jits_Phase_5,15,9999,9999,9999,1850445896
85,19,17,Jits_Phase_5,16,9999,9999,9999,1850945644
85,19,17,Jits_Phase_5,17,9999,9999,9999,1851445320
85,19,17,Jits_Phase_5,18,9999,9999,9999,1851946052
85,19,17,Jits_Phase_5,19,9999,9999,9999,1852445804
85,19,17,Jits_Phase_5,20,9999,9999,9999,1852945480
85,19,17,Jits_Phase_5,21,9999,9999,9999,1853445228
85,19,17,Jits_Phase_5,22,9999,9999,9999,1853945960
85,19,17,Jits_Phase_5,23,9999,9999,9999,1854445648
85,19,17,Jits_Phase_5,24,9999,9999,9999,1854945340
85,19,17,Jits_Phase_5,25,9999,9999,9999,1855446140
85,19,17,Jits_Phase_5,26,9999,9999,9999,1855956024
85,19,17,Jits_Phase_5,27,9999,9999,9999,1856455764
85,19,17,Jits_Phase_5,28,9999,9999,9999,1856955512
85,19,17,Jits_Phase_5,29,9999,9999,9999,1857455184
85,19,17,Jits_Phase_5,30,9999,9999,9999,1857945656
85,19,17,Jits_Phase_5,31,9999,9999,9999,1858445384
85,19,17,Jits_Phase_5,32,9999,9999,9999,1858945144
85,19,17,Jits_Phase_5,33,9999,9999,9999,1859445880
85,19,17,Jits_Phase_5,34,9999,9999,9999,1859945556
85,19,17,Jits_Phase_5,35,9999,9999,9999,1860445296
85,19,17,Jits_Phase_5,36,9999,9999,9999,1860946000
85,19,17,Jits_Phase_5,37,9999,9999,9999,1861445748
85,19,17,Jits_Phase_5,38,9999,9999,9999,1861945440
85,19,17,Jits_Phase_5,39,9999,9999,9999,1862445116
85,19,17,Jits_Phase_5,40,9999,9999,9999,1862945916
85,19,17,Jits_Phase_5,41,9999,9999,9999,1863445584
85,19,17,Jits_Phase_5,42,9999,9999,9999,1863945276
85,19,17,Jits_Phase_5,43,9999,9999,9999,1864446072
85,19,17,Jits_Phase_5,44,9999,9999,9999,1864945744
85,19,17,Jits_Phase_5,45,9999,9999,9999,1865445492
85,19,17,Jits_Phase_5,46,9999,9999,9999,1865945164
85,19,17,Jits_Phase_5,47,9999,9999,9999,1866445892
85,19,17,Jits_Phase_5,48,9999,9999,9999,1866955832
85,19,17,Jits_Phase_5,49,9999,9999,9999,1867455588
85,19,17,Jits_Phase_5,50,9999,9999,9999,1867955328
85,19,17,Jits_Phase_5,51,9999,9999,9999,1868455992
85,19,17,Jits_Phase_5,52,9999,9999,9999,1868955740
85,19,17,Jits_Phase_5,53,9999,9999,9999,1869455432
85,19,17,Jits_Phase_5,54,9999,9999,9999,1869955180
85,19,17,Jits_Phase_5,55,9999,9999,9999,1870455916
85,19,17,Jits_Phase_5,56,9999,9999,9999,1870955600
85,19,17,Jits_Phase_5,57,9999,9999,9999,1871455332
85,19,17,Jits_Phase_5,58,9999,9999,9999,1871956052
85,19,17,Jits_Phase_5,59,9999,9999,9999,1872455788
85,19,17,Jits_Phase_5,60,9999,9999,9999,1872955484
85,19,17,Jits_Phase_5,61,9999,9999,9999,1873455232
85,19,17,Jits_Phase_5,62,9999,9999,9999,1873955892
85,19,17,Jits_Phase_5,63,9999,9999,9999,1874455644
85,19,17,Jits_Phase_5,64,9999,9999,9999,1874975848
85,19,17,Jits_Phase_5,65,9999,9999,9999,1875475520
85,19,17,Jits_Phase_5,66,9999,9999,9999,1875975272
85,19,17,Jits_Phase_5,67,9999,9999,9999,1876475976
85,19,17,Jits_Phase_5,68,9999,9999,9999,1876975668
85,19,17,Jits_Phase_5,69,9999,9999,9999,1877475420
85,19,17,Jits_Phase_5,70,9999,9999,9999,1877975160
85,19,17,Jits_Phase_5,71,9999,9999,9999,1878475900
85,19,17,Jits_Phase_5,72,9999,9999,9999,1878975572
85,19,17,Jits_Phase_5,73,9999,9999,9999,1879475320
85,19,17,Jits_Phase_5,74,9999,9999,9999,1879976048
85,19,17,Jits_Phase_5,75,9999,9999,9999,1880475720
85,19,17,Jits_Phase_5,76,9999,9999,9999,1880975476
85,19,17,Jits_Phase_5,77,9999,9999,9999,1881475156
85,19,17,Jits_Phase_5,78,9999,9999,9999,1881975892
85,19,17,Jits_Phase_5,79,9999,9999,9999,1882475640
85,19,17,Jits_Phase_5,80,9999,9999,9999,1882975296
85,19,17,Jits_Phase_5,81,9999,9999,9999,1883455560
85,19,17,Jits_Phase_5,82,9999,9999,9999,1883955324
85,19,17,Jits_Phase_5,83,9999,9999,9999,1884456048
85,19,17,Jits_Phase_5,84,9999,9999,9999,1884955740
85,19,17,Jits_Phase_5,85,9999,9999,9999,1885455488
85,19,17,Jits_Phase_5,86,9999,9999,9999,1885955156
85,19,17,Jits_Phase_5,87,9999,9999,9999,1886455896
85,19,17,Jits_Phase_5,88,9999,9999,9999,1886955644
85,19,17,Jits_Phase_5,89,9999,9999,9999,1887455332
85,19,17,Jits_Phase_5,90,9999,9999,9999,1887956072
85,19,17,Jits_Phase_5,91,9999,9999,9999,1888455760
85,19,17,Jits_Phase_5,92,9999,9999,9999,1888955508
85,19,17,Jits_Phase_5,93,9999,9999,9999,1889455184
85,19,17,Jits_Phase_5,94,9999,9999,9999,1889955904
85,19,17,Jits_Phase_5,95,9999,9999,9999,1890455668
85,19,17,Jits_Phase_5,96,9999,9999,9999,1890955356
85,19,17,Jits_Phase_5,97,9999,9999,9999,1891405932
85,19,17,Jits_Phase_5,98,9999,9999,9999,1891905608
85,19,17,Jits_Phase_5,99,9999,9999,9999,1892405372
85,19,17,Jits_Phase_5,100,9999,9999,9999,1892906092
85,19,17,Jits_Phase_5,101,9999,9999,9999,1893405768
85,19,17,Jits_Phase_5,102,9999,9999,9999,1893905508
85,19,17,Jits_Phase_5,103,9999,9999,9999,1894405192
85,19,17,Jits_Phase_5,104,9999,9999,9999,1894905912
85,19,17,Jits_Phase_5,105,9999,9999,9999,1895405652
85,19,17,Jits_Phase_5,106,9999,9999,9999,1895905400
85,19,17,Jits_Phase_5,107,9999,9999,9999,1896406124
85,19,17,Jits_Phase_5,108,9999,9999,9999,1896916072
85,19,17,Jits_Phase_5,109,9999,9999,9999,1897415744
85,19,17,Jits_Phase_5,110,9999,9999,9999,1897915496
85,19,17,Jits_Phase_5,111,9999,9999,9999,1898415168
85,19,17,Jits_Phase_5,112,9999,9999,9999,1898915904
85,19,17,Jits_Phase_5,113,9999,9999,9999,1899415652
85,19,17,Jits_Phase_5,114,9999,9999,9999,1899965520
85,19,17,Jits_Phase_5,115,9999,9999,9999,1900465268
85,19,17,Jits_Phase_5,116,9999,9999,9999,1900965988
85,19,17,Jits_Phase_5,117,9999,9999,9999,1901465676
85,19,17,Jits_Phase_5,118,9999,9999,9999,1901965436
85,19,17,Jits_Phase_5,119,9999,9999,9999,1902465084
85,19,17,Jits_Phase_5,120,9999,9999,9999,1902965816
85,19,17,Jits_Phase_5,121,9999,9999,9999,1903465568
85,19,17,Jits_Phase_5,122,9999,9999,9999,1903965308
85,19,17,Jits_Phase_5,123,9999,9999,9999,1904466036
85,19,17,Jits_Phase_5,124,9999,9999,9999,1904965708
85,19,17,Jits_Phase_5,125,9999,9999,9999,1905465444
85,19,17,Jits_Phase_5,126,9999,9999,9999,1905965136
85,19,17,Jits_Phase_5,127,9999,9999,9999,1906465852
85,19,17,Jits_Phase_5,128,9999,9999,9999,1906965604
85,19,17,Jits_Phase_5,129,9999,9999,9999,1907465292
85,19,17,Jits_Phase_5,130,9999,9999,9999,1907966028
85,19,17,Jits_Phase_5,131,9999,9999,9999,1908566092
85,19,17,Jits_Phase_5,132,9999,9999,9999,1909076024
85,19,17,Jits_Phase_5,133,9999,9999,9999,1909575776
85,19,17,Jits_Phase_5,134,9999,9999,9999,1910075516
85,19,17,Jits_Phase_5,135,9999,9999,9999,1910575188
85,19,17,Jits_Phase_5,136,9999,9999,9999,1911075928
85,19,17,Jits_Phase_5,137,9999,9999,9999,1911575676
85,19,17,Jits_Phase_5,138,9999,9999,9999,1912075352
85,19,17,Jits_Phase_5,139,9999,9999,9999,1912576096
85,19,17,Jits_Phase_5,140,9999,9999,9999,1913086036
85,19,17,Jits_Phase_5,141,9999,9999,9999,1913585732
85,19,17,Jits_Phase_5,142,9999,9999,9999,1914085500
85,19,17,Jits_Phase_5,143,9999,9999,9999,1914585176
85,19,17,Jits_Phase_5,144,9999,9999,9999,1915085892
85,19,17,Jits_Phase_5,145,9999,9999,9999,1915585644
85,19,17,Jits_Phase_5,146,9999,9999,9999,1916085336
85,19,17,Jits_Phase_5,147,9999,9999,9999,1916586064
85,19,17,Jits_Phase_5,148,9999,9999,9999,1917085808
85,19,17,Jits_Phase_5,149,9999,9999,9999,1917585500
85,19,17,Jits_Phase_5,150,9999,9999,9999,1917985896
85,19,17,Jits_Phase_5,151,9999,9999,9999,1918485580
85,19,17,Jits_Phase_5,152,9999,9999,9999,1918985276
85,19,17,Jits_Phase_5,153,9999,9999,9999,1919486072
85,19,17,Jits_Phase_5,154,9999,9999,9999,1919985752
85,19,17,Jits_Phase_5,155,9999,9999,9999,1920485500
85,19,17,Jits_Phase_5,156,9999,9999,9999,1920985164
85,19,17,Jits_Phase_5,157,9999,9999,9999,1921485880
85,19,17,Jits_Phase_5,158,9999,9999,9999,1921985632
85,19,17,Jits_Phase_5,159,9999,9999,9999,1922485304
85,19,17,Jits_Phase_5,160,9999,9999,9999,1922986040
85,19,17,Jits_Phase_5,161,9999,9999,9999,1923485808
85,19,17,Jits_Phase_5,162,9999,9999,9999,1923985480
85,19,17,Jits_Phase_5,163,9999,9999,9999,1924485244
85,19,17,Jits_Phase_5,164,9999,9999,9999,1924985960
85,19,17,Jits_Phase_5,165,9999,9999,9999,1925485640
85,19,17,Jits_Phase_5,166,9999,9999,9999,1925985388
85,19,17,Jits_Phase_5,167,9999,9999,9999,1926486096
85,19,17,Jits_Phase_5,168,9999,9999,9999,1926996032
85,19,17,Jits_Phase_5,169,9999,9999,9999,1927495784
85,20,15,Jits_Phase_8,0,5,56,103,1957601644
85,20,15,Jits_Phase_8,1,5,63,98,1957604668
85,20,15,Jits_Phase_8,2,5,80,127,1957607940
85,20,15,Jits_Phase_8,0,5,56,103,1958402336
85,20,15,Jits_Phase_8,1,5,63,98,1958405432
85,20,15,Jits_Phase_8,2,5,80,127,1958408480
85,20,15,Jits_Phase_8,0,5,80,127,1959141756
85,20,15,Jits_Phase_8,1,1,48,34,1959210048
85,20,15,Jits_Phase_8,2,5,63,98,1959231884
85,20,15,Jits_Phase_8,3,5,56,103,1959242228
85,20,15,Jits_Phase_8,0,1,48,29,1959952516
85,20,15,Jits_Phase_8,1,5,56,103,1959962128
85,20,15,Jits_Phase_8,2,5,63,98,1959972620
85,20,15,Jits_Phase_8,3,5,80,127,1960062316
85,20,15,Jits_Phase_8,0,5,63,98,1960732300
85,20,15,Jits_Phase_8,1,1,48,38,1960758188
85,20,15,Jits_Phase_8,2,5,80,127,1960761744
85,20,15,Jits_Phase_8,3,5,56,103,1960792392
85,20,15,Jits_Phase_8,0,1,48,28,1961482124
85,20,15,Jits_Phase_8,1,5,56,103,1961531820
85,20,15,Jits_Phase_8,2,5,80,127,1961632228
85,20,15,Jits_Phase_8,3,5,63,98,1961682280
85,20,15,Jits_Phase_8,0,5,56,103,1962331440
85,20,15,Jits_Phase_8,1,1,48,31,1962380992
85,20,15,Jits_Phase_8,2,5,80,127,1962382332
85,20,15,Jits_Phase_8,3,5,63,98,1962421528
85,20,15,Jits_Phase_8,0,1,48,30,1963143420
85,20,15,Jits_Phase_8,1,5,80,127,1963162244
85,20,15,Jits_Phase_8,2,5,63,98,1963191624
85,20,15,Jits_Phase_8,3,5,56,103,1963262260
85,20,15,Jits_Phase_8,0,1,48,28,1963947216
85,20,15,Jits_Phase_8,1,5,63,98,1963992500
85,20,15,Jits_Phase_8,2,5,56,103,1964022248
85,20,15,Jits_Phase_8,3,5,80,127,1964081428
85,20,15,Jits_Phase_8,0,5,56,103,1964731732
85,20,15,Jits_Phase_8,1,5,80,127,1964735024
85,20,15,Jits_Phase_8,2,1,48,28,1964770292
85,20,15,Jits_Phase_8,3,5,63,98,1964851676
85,20,15,Jits_Phase_8,0,1,48,34,1965560248
85,20,15,Jits_Phase_8,1,5,56,103,1965612412
85,20,15,Jits_Phase_8,2,5,80,127,1965652276
85,20,15,Jits_Phase_8,3,5,63,98,1965661560
85,20,15,Jits_Phase_8,0,5,56,103,1966372252
85,20,15,Jits_Phase_8,1,5,80,127,1966391592
85,20,15,Jits_Phase_8,2,1,48,29,1966400712
85,20,15,Jits_Phase_8,3,5,63,98,1966471624
85,20,15,Jits_Phase_8,0,5,80,127,1967161688
85,20,15,Jits_Phase_8,1,1,48,26,1967201096
85,20,15,Jits_Phase_8,2,5,56,103,1967262176
85,20,15,Jits_Phase_8,3,5,63,98,1967272224
85,20,15,Jits_Phase_8,0,5,63,98,1967931792
85,20,15,Jits_Phase_8,1,5,80,127,1967992284
85,20,15,Jits_Phase_8,2,1,48,33,1967996980
85,20,15,Jits_Phase_8,3,5,56,103,1968002400
85,20,15,Jits_Phase_8,0,1,48,29,1968731252
85,20,15,Jits_Phase_8,1,5,56,103,1968732664
85,20,15,Jits_Phase_8,2,5,63,98,1968802288
85,20,15,Jits_Phase_8,3,5,80,127,1968805580
85,20,15,Jits_Phase_8,0,1,48,31,1969498432
85,20,15,Jits_Phase_8,1,5,63,98,1969562172
85,20,15,Jits_Phase_8,2,5,56,103,1969612136
85,20,15,Jits_Phase_8,3,5,80,127,1969615204
85,20,15,Jits_Phase_8,0,1,48,26,1970291396
85,20,15,Jits_Phase_8,1,5,56,103,1970321908
85,20,15,Jits_Phase_8,2,5,80,127,1970325052
85,20,15,Jits_Phase_8,3,5,63,98,1970411876
85,20,15,Jits_Phase_8,0,1,48,29,1971104468
85,20,15,Jits_Phase_8,1,5,63,98,1971161440
85,20,15,Jits_Phase_8,2,5,56,103,1971251556
85,20,15,Jits_Phase_8,3,5,80,127,1971282276
85,20,15,Jits_Phase_8,0,1,48,29,1971948204
85,20,15,Jits_Phase_8,1,5,56,103,1971952056
85,20,15,Jits_Phase_8,2,5,63,98,1972052216
85,20,15,Jits_Phase_8,3,5,80,127,1972081992
85,20,15,Jits_Phase_8,0,1,48,30,1972743256
85,20,15,Jits_Phase_8,1,5,63,98,1972772124
85,20,15,Jits_Phase_8,2,5,56,103,1972781348
85,20,15,Jits_Phase_8,3,5,80,127,1972871488
85,20,15,Jits_Phase_8,0,1,48,29,1973566608
85,20,15,Jits_Phase_8,1,5,63,98,1973592560
85,20,15,Jits_Phase_8,2,5,56,103,1973672440
85,20,15,Jits_Phase_8,3,5,80,127,1973675432
85,20,15,Jits_Phase_8,0,5,80,127,1974352164
85,20,15,Jits_Phase_8,1,5,63,98,1974371976
85,20,15,Jits_Phase_8,2,1,48,26,1974390912
85,20,15,Jits_Phase_8,3,5,56,103,1974432208
85,20,15,Jits_Phase_8,0,1,48,25,1975165412
85,20,15,Jits_Phase_8,1,5,56,103,1975192112
85,20,15,Jits_Phase_8,2,5,63,98,1975212344
85,20,15,Jits_Phase_8,3,5,80,127,1975215560
85,20,15,Jits_Phase_8,0,5,63,98,1975932232
85,20,15,Jits_Phase_8,1,1,48,23,1975936548
85,20,15,Jits_Phase_8,2,5,80,127,1976012096
85,20,15,Jits_Phase_8,3,5,56,103,1976022440
85,20,15,Jits_Phase_8,0,1,48,23,1976737344
85,20,15,Jits_Phase_8,1,5,63,98,1976751388
85,20,15,Jits_Phase_8,2,5,56,103,1976772068
85,20,15,Jits_Phase_8,3,5,80,127,1976822120
85,20,15,Jits_Phase_8,0,1,48,25,1977538292
85,20,15,Jits_Phase_8,1,5,80,127,1977552188
85,20,15,Jits_Phase_8,2,5,63,98,1977592200
85,20,15,Jits_Phase_8,3,5,56,103,1977611612
85,20,15,Jits_Phase_8,0,1,48,25,1978343456
85,20,15,Jits_Phase_8,1,5,56,103,1978392104
85,20,15,Jits_Phase_8,2,5,63,98,1978402152
85,20,15,Jits_Phase_8,3,5,80,127,1978421488
85,20,15,Jits_Phase_8,0,1,48,23,1979117732
85,20,15,Jits_Phase_8,1,5,56,103,1979122108
85,20,15,Jits_Phase_8,2,5,63,98,1979212092
85,20,15,Jits_Phase_8,3,5,80,127,1979271668
85,20,15,Jits_Phase_8,0,1,48,22,1979903040
85,20,15,Jits_Phase_8,1,5,80,127,1979951612
85,20,15,Jits_Phase_8,2,5,56,103,1979961884
85,20,15,Jits_Phase_8,3,5,63,98,1980032248
85,20,15,Jits_Phase_8,0,1,48,24,1980726912
85,20,15,Jits_Phase_8,1,5,63,98,1980781964
85,20,15,Jits_Phase_8,2,5,80,127,1980871936
85,20,15,Jits_Phase_8,3,5,56,103,1980882280
85,20,15,Jits_Phase_8,0,5,63,98,1981512108
85,20,15,Jits_Phase_8,1,5,80,127,1981562188
85,20,15,Jits_Phase_8,2,1,48,28,1981618492
85,20,15,Jits_Phase_8,3,5,56,103,1981621744
85,20,15,Jits_Phase_8,0,5,56,103,1982332344
85,20,15,Jits_Phase_8,1,1,48,25,1982348792
85,20,15,Jits_Phase_8,2,5,80,127,1982381568
85,20,15,Jits_Phase_8,3,5,63,98,1982401804
85,20,15,Jits_Phase_8,0,5,56,103,1983102300
85,20,15,Jits_Phase_8,1,1,48,25,1983105496
85,20,15,Jits_Phase_8,2,5,80,127,1983161784
85,20,15,Jits_Phase_8,3,5,63,98,1983232272
85,20,15,Jits_Phase_8,0,5,56,103,1983902064
85,20,15,Jits_Phase_8,1,5,80,127,1983931892
85,20,15,Jits_Phase_8,2,1,48,21,1983935912
85,20,15,Jits_Phase_8,3,5,63,98,1983961412
85,20,15,Jits_Phase_8,0,1,48,25,1984682472
85,20,15,Jits_Phase_8,1,5,56,103,1984741836
85,20,15,Jits_Phase_8,2,5,80,127,1984762296
85,20,15,Jits_Phase_8,3,5,63,98,1984821548
85,20,15,Jits_Phase_8,0,1,48,22,1985461028
85,20,15,Jits_Phase_8,1,5,80,127,1985622416
85,20,15,Jits_Phase_8,2,5,56,103,1985631816
85,20,15,Jits_Phase_8,3,5,63,98,1985642084
85,20,15,Jits_Phase_8,0,5,56,103,1986382272
85,20,15,Jits_Phase_8,1,1,48,28,1986408112
85,20,15,Jits_Phase_8,2,5,80,127,1986422080
85,20,15,Jits_Phase_8,3,5,63,98,1986452052
85,20,15,Jits_Phase_8,0,5,56,103,1987152232
85,20,15,Jits_Phase_8,1,5,63,98,1987182008
85,20,15,Jits_Phase_8,2,1,48,21,1987206700
85,20,15,Jits_Phase_8,3,5,80,127,1987221940
85,20,15,Jits_Phase_8,0,5,80,127,1987901956
85,20,15,Jits_Phase_8,1,1,48,24,1987930260
85,20,15,Jits_Phase_8,2,5,63,98,1987951880
85,20,15,Jits_Phase_8,3,5,56,103,1987971368
85,20,15,Jits_Phase_8,0,1,48,26,1988667896
85,20,15,Jits_Phase_8,1,5,56,103,1988732160
85,20,15,Jits_Phase_8,2,5,80,127,1988801904
85,20,15,Jits_Phase_8,3,5,63,98,1988862216
85,20,15,Jits_Phase_8,0,5,80,127,1989532080
85,20,15,Jits_Phase_8,1,1,48,27,1989546732
85,20,15,Jits_Phase_8,2,5,63,98,1989622060
85,20,15,Jits_Phase_8,3,5,56,103,1989641900
85,20,15,Jits_Phase_8,0,5,63,98,1990352228
85,20,15,Jits_Phase_8,1,5,56,103,1990371792
85,20,15,Jits_Phase_8,2,1,48,20,1990399028
85,20,15,Jits_Phase_8,3,5,80,127,1990411868
85,20,15,Jits_Phase_8,0,1,48,23,1991112352
85,20,15,Jits_Phase_8,1,5,80,127,1991113688
85,20,15,Jits_Phase_8,2,5,63,98,1991131756
85,20,15,Jits_Phase_8,3,5,56,103,1991213028
85,20,15,Jits_Phase_8,0,5,63,98,1991901916
85,20,15,Jits_Phase_8,1,1,48,26,1991909916
85,20,15,Jits_Phase_8,2,5,56,103,1992012180
85,20,15,Jits_Phase_8,3,5,80,127,1992015248
85,20,15,Jits_Phase_8,0,1,48,26,1992715792
85,20,15,Jits_Phase_8,1,5,63,98,1992721892
85,20,15,Jits_Phase_8,2,5,56,103,1992732012
85,20,15,Jits_Phase_8,3,5,80,127,1992735228
85,20,15,Jits_Phase_8,0,1,48,29,1993473284
85,20,15,Jits_Phase_8,1,5,56,103,1993502076
85,20,15,Jits_Phase_8,2,5,80,127,1993621888
85,20,15,Jits_Phase_8,3,5,63,98,1993661976
85,20,15,Jits_Phase_8,0,5,56,103,1994322220
85,20,15,Jits_Phase_8,1,1,48,26,1994334284
85,20,15,Jits_Phase_8,2,5,80,127,1994402036
85,20,15,Jits_Phase_8,3,5,63,98,1994421744
85,20,15,Jits_Phase_8,0,5,56,103,1995122020
85,20,15,Jits_Phase_8,1,1,48,24,1995122984
85,20,15,Jits_Phase_8,2,5,63,98,1995231832
85,20,15,Jits_Phase_8,3,5,80,127,1995235052
85,20,15,Jits_Phase_8,0,5,56,103,1995961872
85,20,15,Jits_Phase_8,1,1,48,26,1995980060
85,20,15,Jits_Phase_8,2,5,80,127,1995992660
85,20,15,Jits_Phase_8,3,5,63,98,1996011852
85,20,15,Jits_Phase_8,0,5,63,98,1996752352
85,20,15,Jits_Phase_8,1,5,56,103,1996761576
85,20,15,Jits_Phase_8,2,5,80,127,1996771772
85,20,15,Jits_Phase_8,3,1,48,21,1996827924
85,20,15,Jits_Phase_8,0,5,80,127,1997541920
85,20,15,Jits_Phase_8,1,5,56,103,1997591824
85,20,15,Jits_Phase_8,2,1,48,28,1997605956
85,20,15,Jits_Phase_8,3,5,63,98,1997631832
85,20,15,Jits_Phase_8,0,1,48,21,1998345776
85,20,15,Jits_Phase_8,1,5,80,127,1998361988
85,20,15,Jits_Phase_8,2,5,63,98,1998381552
85,20,15,Jits_Phase_8,3,5,56,103,1998431700
85,20,15,Jits_Phase_8,0,1,48,26,1999111228
85,20,15,Jits_Phase_8,1,5,80,127,1999172008
85,20,15,Jits_Phase_8,2,5,56,103,1999201560
85,20,15,Jits_Phase_8,3,5,63,98,1999272496
85,20,15,Jits_Phase_8,0,1,48,28,1999974468
85,20,15,Jits_Phase_8,1,5,56,103,2000021844
85,20,15,Jits_Phase_8,2,5,80,127,2000032188
85,20,15,Jits_Phase_8,3,5,63,98,2000072712
85,20,15,Jits_Phase_8,0,5,56,103,2000731832
85,20,15,Jits_Phase_8,1,1,48,25,2000743968
85,20,15,Jits_Phase_8,2,5,63,98,2000751936
85,20,15,Jits_Phase_8,3,5,80,127,2000821540
85,20,15,Jits_Phase_8,0,1,48,25,2001513912
85,20,15,Jits_Phase_8,1,5,63,98,2001551772
85,20,15,Jits_Phase_8,2,5,80,127,2001612076
85,20,15,Jits_Phase_8,3,5,56,103,2001631636
85,20,15,Jits_Phase_8,0,1,48,26,2002304380
85,20,15,Jits_Phase_8,1,5,80,127,2002342316
85,20,15,Jits_Phase_8,2,5,56,103,2002371916
85,20,15,Jits_Phase_8,3,5,63,98,2002401504
85,20,15,Jits_Phase_8,0,1,48,23,2003062852
85,20,15,Jits_Phase_8,1,5,56,103,2003141996
85,20,15,Jits_Phase_8,2,5,63,98,2003202668
85,20,15,Jits_Phase_8,3,5,80,127,2003261864
85,20,15,Jits_Phase_8,0,1,48,29,2003929672
85,20,15,Jits_Phase_8,1,5,80,127,2003962432
85,20,15,Jits_Phase_8,2,5,56,103,2003981696
85,20,15,Jits_Phase_8,3,5,63,98,2004052404
85,20,15,Jits_Phase_8,0,5,80,127,2004761972
85,20,15,Jits_Phase_8,1,5,63,98,2004781532
85,20,15,Jits_Phase_8,2,5,56,103,2004812032
85,20,15,Jits_Phase_8,3,1,48,26,2004820848
85,20,15,Jits_Phase_8,0,5,80,127,2005551700
85,20,15,Jits_Phase_8,1,5,63,98,2005571864
85,20,15,Jits_Phase_8,2,1,48,30,2005603484
85,20,15,Jits_Phase_8,3,5,56,103,2005632644
85,20,15,Jits_Phase_8,0,1,48,24,2006346868
85,20,15,Jits_Phase_8,1,5,80,127,2006352144
85,20,15,Jits_Phase_8,2,5,56,103,2006451504
85,20,15,Jits_Phase_8,3,5,63,98,2006482372
85,20,15,Jits_Phase_8,0,5,63,98,2007141676
85,20,15,Jits_Phase_8,1,1,48,26,2007174540
85,20,15,Jits_Phase_8,2,5,80,127,2007191872
85,20,15,Jits_Phase_8,3,5,56,103,2007212552
85,20,15,Jits_Phase_8,0,1,48,25,2007970100
85,20,15,Jits_Phase_8,1,5,80,127,2007981580
85,20,15,Jits_Phase_8,2,5,56,103,2008012000
85,20,15,Jits_Phase_8,3,5,63,98,2008015072
85,20,15,Jits_Phase_8,0,1,48,23,2008729916
85,20,15,Jits_Phase_8,1,5,63,98,2008832560
85,20,15,Jits_Phase_8,2,5,56,103,2008872424
85,20,15,Jits_Phase_8,3,5,80,127,2008891616
85,20,15,Jits_Phase_8,0,5,80,127,2009592040
85,20,15,Jits_Phase_8,1,1,48,22,2009616656
85,20,15,Jits_Phase_8,2,5,63,98,2009671980
85,20,15,Jits_Phase_8,3,5,56,103,2009711940
85,20,15,Jits_Phase_8,0,1,48,23,2010400480
85,20,15,Jits_Phase_8,1,5,63,98,2010412488
85,20,15,Jits_Phase_8,2,5,80,127,2010492308
85,20,15,Jits_Phase_8,3,5,56,103,2010511704
85,20,15,Jits_Phase_8,0,1,48,26,2011243868
85,20,15,Jits_Phase_8,1,5,56,103,2011252056
85,20,15,Jits_Phase_8,2,5,63,98,2011262548
85,20,15,Jits_Phase_8,3,5,80,127,2011302188
85,20,15,Jits_Phase_8,0,1,48,25,2011963664
85,20,15,Jits_Phase_8,1,5,56,103,2011972000
85,20,15,Jits_Phase_8,2,5,80,127,2011974920
85,20,15,Jits_Phase_8,3,5,63,98,2012112332
85,20,15,Jits_Phase_8,0,1,48,25,2012736500
85,20,15,Jits_Phase_8,1,5,56,103,2012761484
85,20,15,Jits_Phase_8,2,5,63,98,2012851628
85,20,15,Jits_Phase_8,3,5,80,127,2012922352
85,20,15,Jits_Phase_8,0,1,48,27,2013631896
85,20,15,Jits_Phase_8,1,5,63,98,2013642032
85,20,15,Jits_Phase_8,2,5,80,127,2013645396
85,20,15,Jits_Phase_8,3,5,56,103,2013701448
85,20,15,Jits_Phase_8,0,1,48,20,2014456360
85,20,15,Jits_Phase_8,1,5,80,127,2014481716
85,20,15,Jits_Phase_8,2,5,56,103,2014502324
85,20,15,Jits_Phase_8,3,5,63,98,2014511548
85,20,15,Jits_Phase_8,0,5,56,103,2015192328
85,20,15,Jits_Phase_8,1,5,63,98,2015201704
85,20,15,Jits_Phase_8,2,1,48,20,2015264980
85,20,15,Jits_Phase_8,3,5,80,127,2015272496
85,20,15,Jits_Phase_8,0,1,48,22,2015965248
85,20,15,Jits_Phase_8,1,5,80,127,2015992392
85,20,15,Jits_Phase_8,2,5,56,103,2016042444
85,20,15,Jits_Phase_8,3,5,63,98,2016091512
85,20,15,Jits_Phase_8,0,1,48,22,2016752920
85,20,15,Jits_Phase_8,1,5,56,103,2016871784
85,20,15,Jits_Phase_8,2,5,63,98,2016881904
85,20,15,Jits_Phase_8,3,5,80,127,2016921916
85,20,15,Jits_Phase_8,0,5,56,103,2017612280
85,20,15,Jits_Phase_8,1,1,48,25,2017623496
85,20,15,Jits_Phase_8,2,5,63,98,2017652012
85,20,15,Jits_Phase_8,3,5,80,127,2017702212
85,20,15,Jits_Phase_8,0,5,80,127,2018372044
85,20,15,Jits_Phase_8,1,5,56,103,2018422272
85,20,15,Jits_Phase_8,2,1,48,18,2018428012
85,20,15,Jits_Phase_8,3,5,63,98,2018441604
85,20,15,Jits_Phase_8,0,5,80,127,2019181880
85,20,15,Jits_Phase_8,1,1,48,27,2019192416
85,20,15,Jits_Phase_8,2,5,63,98,2019242484
85,20,15,Jits_Phase_8,3,5,56,103,2019322336
85,20,15,Jits_Phase_8,0,5,80,127,2019962468
85,20,15,Jits_Phase_8,1,5,56,103,2020002336
85,20,15,Jits_Phase_8,2,5,63,98,2020021600
85,20,15,Jits_Phase_8,3,1,48,24,2020051688
85,20,15,Jits_Phase_8,0,1,48,21,2020776280
85,20,15,Jits_Phase_8,1,5,56,103,2020812272
85,20,15,Jits_Phase_8,2,5,80,127,2020822320
85,20,15,Jits_Phase_8,3,5,63,98,2020862408
85,20,15,Jits_Phase_8,0,1,48,23,2021578060
85,20,15,Jits_Phase_8,1,5,56,103,2021681620
85,20,15,Jits_Phase_8,2,5,63,98,2021721408
85,20,15,Jits_Phase_8,3,5,80,127,2021724876
85,20,15,Jits_Phase_8,0,5,63,98,2022352460
85,20,15,Jits_Phase_8,1,5,80,127,2022392252
85,20,15,Jits_Phase_8,2,1,48,23,2022427660
85,20,15,Jits_Phase_8,3,5,56,103,2022461776
85,20,15,Jits_Phase_8,0,1,48,26,2023118392
85,20,15,Jits_Phase_8,1,5,63,98,2023122320
85,20,15,Jits_Phase_8,2,5,56,103,2023202340
85,20,15,Jits_Phase_8,3,5,80,127,2023261692
85,20,15,Jits_Phase_8,0,5,80,127,2023932276
85,20,15,Jits_Phase_8,1,1,48,19,2023956220
85,20,15,Jits_Phase_8,2,5,63,98,2023981424
85,20,15,Jits_Phase_8,3,5,56,103,2024012220
85,20,15,Jits_Phase_8,0,5,56,103,2024721704
85,20,15,Jits_Phase_8,1,1,48,24,2024731200
85,20,15,Jits_Phase_8,2,5,63,98,2024771904
85,20,15,Jits_Phase_8,3,5,80,127,2024782396
85,20,15,Jits_Phase_8,0,1,48,22,2025489288
85,20,15,Jits_Phase_8,1,5,56,103,2025531804
85,20,15,Jits_Phase_8,2,5,63,98,2025642476
85,20,15,Jits_Phase_8,3,5,80,127,2025661668
85,20,15,Jits_Phase_8,0,5,63,98,2026331596
85,20,15,Jits_Phase_8,1,1,48,27,2026355544
85,20,15,Jits_Phase_8,2,5,80,127,2026381792
85,20,15,Jits_Phase_8,3,5,56,103,2026471684
85,20,15,Jits_Phase_8,0,5,63,98,2027122140
85,20,15,Jits_Phase_8,1,5,80,127,2027151816
85,20,15,Jits_Phase_8,2,1,48,27,2027176212
85,20,15,Jits_Phase_8,3,5,56,103,2027241864
85,20,15,Jits_Phase_8,0,5,63,98,2027921820
85,20,15,Jits_Phase_8,1,5,56,103,2027932240
85,20,15,Jits_Phase_8,2,1,48,24,2027952372
85,20,15,Jits_Phase_8,3,5,80,127,2028032252
85,20,15,Jits_Phase_8,0,1,48,17,2028733300
85,20,15,Jits_Phase_8,1,5,63,98,2028822036
85,20,15,Jits_Phase_8,2,5,80,127,2028851700
85,20,15,Jits_Phase_8,3,5,56,103,2028882344
85,20,15,Jits_Phase_8,0,1,48,25,2029573604
85,20,15,Jits_Phase_8,1,5,80,127,2029642184
85,20,15,Jits_Phase_8,2,5,63,98,2029652452
85,20,15,Jits_Phase_8,3,5,56,103,2029682212
85,20,15,Jits_Phase_8,0,5,80,127,2030341416
85,20,15,Jits_Phase_8,1,5,63,98,2030362172
85,20,15,Jits_Phase_8,2,1,48,26,2030389796
85,20,15,Jits_Phase_8,3,5,56,103,2030412288
85,20,15,Jits_Phase_8,0,1,48,28,2031158968
85,20,15,Jits_Phase_8,1,5,63,98,2031172192
85,20,15,Jits_Phase_8,2,5,80,127,2031232308
85,20,15,Jits_Phase_8,3,5,56,103,2031251780
85,20,15,Jits_Phase_8,0,5,63,98,2031932028
85,20,15,Jits_Phase_8,1,5,56,103,2031982328
85,20,15,Jits_Phase_8,2,5,80,127,2031992152
85,20,15,Jits_Phase_8,3,1,48,25,2032007480
85,20,15,Jits_Phase_8,0,1,48,25,2032743616
85,20,15,Jits_Phase_8,1,5,56,103,2032762292
85,20,15,Jits_Phase_8,2,5,80,127,2032771516
85,20,15,Jits_Phase_8,3,5,63,98,2032871672
85,20,15,Jits_Phase_8,0,5,80,127,2033522196
85,20,15,Jits_Phase_8,1,5,63,98,2033532244
85,20,15,Jits_Phase_8,2,1,48,29,2033554320
85,20,15,Jits_Phase_8,3,5,56,103,2033681760
85,20,15,Jits_Phase_8,0,5,63,98,2034332008
85,20,15,Jits_Phase_8,1,1,48,27,2034356176
85,20,15,Jits_Phase_8,2,5,80,127,2034372240
85,20,15,Jits_Phase_8,3,5,56,103,2034451796
85,20,15,Jits_Phase_8,0,5,56,103,2035081492
85,20,15,Jits_Phase_8,1,5,80,127,2035182188
85,20,15,Jits_Phase_8,2,1,48,18,2035185308
85,20,15,Jits_Phase_8,3,5,63,98,2035202416
85,20,15,Jits_Phase_8,0,5,80,127,2035901876
85,20,15,Jits_Phase_8,1,5,56,103,2035911996
85,20,15,Jits_Phase_8,2,1,48,23,2035923360
85,20,15,Jits_Phase_8,3,5,63,98,2036002196
85,20,15,Jits_Phase_8,0,5,56,103,2036701504
85,20,15,Jits_Phase_8,1,1,48,19,2036711520
85,20,15,Jits_Phase_8,2,5,63,98,2036722032
85,20,15,Jits_Phase_8,3,5,80,127,2036802120
85,20,15,Jits_Phase_8,0,5,63,98,2037462468
85,20,15,Jits_Phase_8,1,1,48,28,2037481556
85,20,15,Jits_Phase_8,2,5,56,103,2037551472
85,20,15,Jits_Phase_8,3,5,80,127,2037554764
85,20,15,Jits_Phase_8,0,1,48,20,2038285032
85,20,15,Jits_Phase_8,1,5,56,103,2038291956
85,20,15,Jits_Phase_8,2,5,80,127,2038352196
85,20,15,Jits_Phase_8,3,5,63,98,2038361420
85,20,15,Jits_Phase_8,0,1,48,19,2039026052
85,20,15,Jits_Phase_8,1,5,80,127,2039141844
85,20,15,Jits_Phase_8,2,5,56,103,2039151964
85,20,15,Jits_Phase_8,3,5,63,98,2039155032
85,20,15,Jits_Phase_8,0,5,56,103,2039901612
85,20,15,Jits_Phase_8,1,1,48,17,2039907948
85,20,15,Jits_Phase_8,2,5,80,127,2039911728
85,20,15,Jits_Phase_8,3,5,63,98,2039932260
85,20,15,Jits_Phase_8,0,5,63,98,2040671488
85,20,15,Jits_Phase_8,1,1,48,24,2040699768
85,20,15,Jits_Phase_8,2,5,80,127,2040731948
85,20,15,Jits_Phase_8,3,5,56,103,2040782368
85,20,15,Jits_Phase_8,0,1,48,19,2041536168
85,20,15,Jits_Phase_8,1,5,63,98,2041552380
85,20,15,Jits_Phase_8,2,5,56,103,2041561528
85,20,15,Jits_Phase_8,3,5,80,127,2041611656
85,20,15,Jits_Phase_8,0,5,63,98,2042251828
85,20,15,Jits_Phase_8,1,5,80,127,2042271992
85,20,15,Jits_Phase_8,2,5,56,103,2042282484
85,20,15,Jits_Phase_8,3,1,48,19,2042347032
85,20,15,Jits_Phase_8,0,1,48,19,2043050424
85,20,15,Jits_Phase_8,1,5,63,98,2043052316
85,20,15,Jits_Phase_8,2,5,80,127,2043055688
85,20,15,Jits_Phase_8,3,5,56,103,2043092480
85,20,15,Jits_Phase_8,0,1,48,22,2043887696
85,20,15,Jits_Phase_8,1,5,63,98,2043921892
85,20,15,Jits_Phase_8,2,5,80,127,2043951416
85,20,15,Jits_Phase_8,3,5,56,103,2043961836
85,20,15,Jits_Phase_8,0,5,56,103,2044672508
85,20,15,Jits_Phase_8,1,1,48,21,2044697204
85,20,15,Jits_Phase_8,2,5,80,127,2044702176
85,20,15,Jits_Phase_8,3,5,63,98,2044731852
85,20,15,Jits_Phase_8,0,1,48,23,2045515252
85,20,15,Jits_Phase_8,1,5,63,98,2045571424
85,20,15,Jits_Phase_8,2,5,56,103,2045613228
85,20,15,Jits_Phase_8,3,5,80,127,2045616136
85,20,15,Jits_Phase_8,0,5,80,127,2046272116
85,20,15,Jits_Phase_8,1,5,56,103,2046351940
85,20,15,Jits_Phase_8,2,1,48,21,2046359172
85,20,15,Jits_Phase_8,3,5,63,98,2046401760
85,20,15,Jits_Phase_8,0,5,80,127,2047052112
85,20,15,Jits_Phase_8,1,5,56,103,2047071848
85,20,15,Jits_Phase_8,2,1,48,16,2047154680
85,20,15,Jits_Phase_8,3,5,63,98,2047161748
85,20,15,Jits_Phase_8,0,1,48,17,2047890940
85,20,15,Jits_Phase_8,1,5,80,127,2047892584
85,20,15,Jits_Phase_8,2,5,63,98,2047931924
85,20,15,Jits_Phase_8,3,5,56,103,2047971788
85,20,15,Jits_Phase_8,0,5,63,98,2048702020
85,20,15,Jits_Phase_8,1,1,48,22,2048715856
85,20,15,Jits_Phase_8,2,5,80,127,2048762180
85,20,15,Jits_Phase_8,3,5,56,103,2048792004
85,20,15,Jits_Phase_8,0,1,48,16,2049497908
85,20,15,Jits_Phase_8,1,5,56,103,2049541548
85,20,15,Jits_Phase_8,2,5,80,127,2049572120
85,20,15,Jits_Phase_8,3,5,63,98,2049662336
85,20,15,Jits_Phase_8,0,1,48,25,2050319556
85,20,15,Jits_Phase_8,1,5,56,103,2050351416
85,20,15,Jits_Phase_8,2,5,80,127,2050462016
85,20,15,Jits_Phase_8,3,5,63,98,2050491840
85,20,15,Jits_Phase_8,0,5,56,103,2051202308
85,20,15,Jits_Phase_8,1,1,48,22,2051231280
85,20,15,Jits_Phase_8,2,5,63,98,2051261940
85,20,15,Jits_Phase_8,3,5,80,127,2051291616
85,20,15,Jits_Phase_8,0,5,56,103,2051971516
85,20,15,Jits_Phase_8,1,1,48,21,2052016364
85,20,15,Jits_Phase_8,2,5,63,98,2052042088
85,20,15,Jits_Phase_8,3,5,80,127,2052061724
85,20,15,Jits_Phase_8,0,5,80,127,2052741692
85,20,15,Jits_Phase_8,1,1,48,24,2052749768
85,20,15,Jits_Phase_8,2,5,63,98,2052761924
85,20,15,Jits_Phase_8,3,5,56,103,2052812048
85,20,15,Jits_Phase_8,0,5,63,98,2053561840
85,20,15,Jits_Phase_8,1,5,80,127,2053571884
85,20,15,Jits_Phase_8,2,1,48,17,2053575528
85,20,15,Jits_Phase_8,3,5,56,103,2053622152
85,20,15,Jits_Phase_8,0,1,48,26,2054350252
85,20,15,Jits_Phase_8,1,5,63,98,2054361660
85,20,15,Jits_Phase_8,2,5,80,127,2054432016
85,20,15,Jits_Phase_8,3,5,56,103,2054452008
85,20,15,Jits_Phase_8,0,5,63,98,2055191916
85,20,15,Jits_Phase_8,1,5,80,127,2055195284
85,20,15,Jits_Phase_8,2,1,48,18,2055201556
85,20,15,Jits_Phase_8,3,5,56,103,2055261688
85,20,15,Jits_Phase_8,0,5,80,127,2055941696
85,20,15,Jits_Phase_8,1,5,56,103,2055961932
85,20,15,Jits_Phase_8,2,5,63,98,2055972128
85,20,15,Jits_Phase_8,3,1,48,25,2056018540
85,20,15,Jits_Phase_8,0,1,48,21,2056727860
85,20,15,Jits_Phase_8,1,5,56,103,2056761680
85,20,15,Jits_Phase_8,2,5,63,98,2056851824
85,20,15,Jits_Phase_8,3,5,80,127,2056855116
85,20,15,Jits_Phase_8,0,5,80,127,2057531916
85,20,15,Jits_Phase_8,1,1,48,20,2057532884
85,20,15,Jits_Phase_8,2,5,56,103,2057541884
85,20,15,Jits_Phase_8,3,5,63,98,2057561984
85,20,15,Jits_Phase_8,0,5,63,98,2058331848
85,20,15,Jits_Phase_8,1,1,48,19,2058340220
85,20,15,Jits_Phase_8,2,5,80,127,2058391860
85,20,15,Jits_Phase_8,3,5,56,103,2058402132
85,20,15,Jits_Phase_8,0,1,48,21,2059140192
85,20,15,Jits_Phase_8,1,5,63,98,2059202020
85,20,15,Jits_Phase_8,2,5,80,127,2059231624
85,20,15,Jits_Phase_8,3,5,56,103,2059271768
85,20,15,Jits_Phase_8,0,5,56,103,2059992724
85,20,15,Jits_Phase_8,1,1,48,16,2059995544
85,20,15,Jits_Phase_8,2,5,80,127,2060001792
85,20,15,Jits_Phase_8,3,5,63,98,2060041952
85,20,15,Jits_Phase_8,0,5,80,127,2060752188
85,20,15,Jits_Phase_8,1,1,48,19,2060818760
85,20,15,Jits_Phase_8,2,5,56,103,2060832128
85,20,15,Jits_Phase_8,3,5,63,98,2060842472
85,20,15,Jits_Phase_8,0,5,80,127,2061602308
85,20,15,Jits_Phase_8,1,1,48,20,2061607000
85,20,15,Jits_Phase_8,2,5,56,103,2061682120
85,20,15,Jits_Phase_8,3,5,63,98,2061692244
85,20,15,Jits_Phase_8,0,1,48,19,2062433168
85,20,15,Jits_Phase_8,1,5,80,127,2062441740
85,20,15,Jits_Phase_8,2,5,56,103,2062491868
85,20,15,Jits_Phase_8,3,5,63,98,2062542200
85,20,15,Jits_Phase_8,0,1,48,20,2063279380
85,20,15,Jits_Phase_8,1,5,56,103,2063381800
85,20,15,Jits_Phase_8,2,5,63,98,2063384868
85,20,15,Jits_Phase_8,3,5,80,127,2063432000
85,20,15,Jits_Phase_8,0,1,48,16,2064161616
85,20,15,Jits_Phase_8,1,5,56,103,2064202100
85,20,15,Jits_Phase_8,2,5,63,98,2064231728
85,20,15,Jits_Phase_8,3,5,80,127,2064242072
85,20,15,Jits_Phase_8,0,5,63,98,2064911740
85,20,15,Jits_Phase_8,1,5,56,103,2064982320
85,20,15,Jits_Phase_8,2,1,48,19,2065008532
85,20,15,Jits_Phase_8,3,5,80,127,2065031716
85,20,15,Jits_Phase_8,0,5,63,98,2065742216
85,20,15,Jits_Phase_8,1,5,56,103,2065752708
85,20,15,Jits_Phase_8,2,5,80,127,2065755552
85,20,15,Jits_Phase_8,3,1,48,15,2065815380
85,20,15,Jits_Phase_8,0,5,80,127,2066491740
85,20,15,Jits_Phase_8,1,1,48,21,2066527696
85,20,15,Jits_Phase_8,2,5,56,103,2066552372
85,20,15,Jits_Phase_8,3,5,63,98,2066642264
85,20,15,Jits_Phase_8,0,5,80,127,2067291684
85,20,15,Jits_Phase_8,1,1,48,24,2067326940
85,20,15,Jits_Phase_8,2,5,56,103,2067391780
85,20,15,Jits_Phase_8,3,5,63,98,2067431776
85,20,15,Jits_Phase_8,0,5,56,103,2068141356
85,20,15,Jits_Phase_8,1,1,48,21,2068159768
85,20,15,Jits_Phase_8,2,5,63,98,2068161884
85,20,15,Jits_Phase_8,3,5,80,127,2068201968
85,20,15,Jits_Phase_8,0,5,63,98,2068911684
85,20,15,Jits_Phase_8,1,5,56,103,2068931996
85,20,15,Jits_Phase_8,2,1,48,22,2068944552
85,20,15,Jits_Phase_8,3,5,80,127,2069032232
85,20,15,Jits_Phase_8,0,5,63,98,2069702000
85,20,15,Jits_Phase_8,1,1,48,21,2069754416
85,20,15,Jits_Phase_8,2,5,80,127,2069811456
85,20,15,Jits_Phase_8,3,5,56,103,2069842404
85,20,15,Jits_Phase_8,0,5,56,103,2070522436
85,20,15,Jits_Phase_8,1,5,63,98,2070551964
85,20,15,Jits_Phase_8,2,5,80,127,2070602312
85,20,15,Jits_Phase_8,3,1,48,18,2070603880
85,20,15,Jits_Phase_8,0,5,63,98,2071292392
85,20,15,Jits_Phase_8,1,5,56,103,2071321920
85,20,15,Jits_Phase_8,2,1,48,21,2071346160
85,20,15,Jits_Phase_8,3,5,80,127,2071372260
85,20,15,Jits_Phase_8,0,1,48,22,2072119376
85,20,15,Jits_Phase_8,1,5,56,103,2072121732
85,20,15,Jits_Phase_8,2,5,63,98,2072142044
85,20,15,Jits_Phase_8,3,5,80,127,2072222068
85,20,15,Jits_Phase_8,0,5,63,98,2072891756
85,20,15,Jits_Phase_8,1,1,48,21,2072918692
85,20,15,Jits_Phase_8,2,5,56,103,2072952536
85,20,15,Jits_Phase_8,3,5,80,127,2072981764
85,20,15,Jits_Phase_8,0,1,48,21,2073717940
85,20,15,Jits_Phase_8,1,5,56,103,2073731532
85,20,15,Jits_Phase_8,2,5,80,127,2073791848
85,20,15,Jits_Phase_8,3,5,63,98,2073831848
85,20,15,Jits_Phase_8,0,5,63,98,2074511744
85,20,15,Jits_Phase_8,1,1,48,20,2074526620
85,20,15,Jits_Phase_8,2,5,56,103,2074572128
85,20,15,Jits_Phase_8,3,5,80,127,2074641792
85,20,15,Jits_Phase_8,0,1,48,22,2075332900
85,20,15,Jits_Phase_8,1,5,56,103,2075392560
85,20,15,Jits_Phase_8,2,5,63,98,2075401708
85,20,15,Jits_Phase_8,3,5,80,127,2075404924
85,20,15,Jits_Phase_8,0,5,63,98,2076131560
85,20,15,Jits_Phase_8,1,1,48,17,2076159988
85,20,15,Jits_Phase_8,2,5,56,103,2076192240
85,20,15,Jits_Phase_8,3,5,80,127,2076195232
85,20,15,Jits_Phase_8,0,1,48,16,2076889256
85,20,15,Jits_Phase_8,1,5,63,98,2076911900
85,20,15,Jits_Phase_8,2,5,80,127,2076941724
85,20,15,Jits_Phase_8,3,5,56,103,2076962328
85,20,15,Jits_Phase_8,0,5,56,103,2077642276
85,20,15,Jits_Phase_8,1,1,48,27,2077679180
85,20,15,Jits_Phase_8,2,5,63,98,2077692400
85,20,15,Jits_Phase_8,3,5,80,127,2077772416
85,20,15,Jits_Phase_8,0,5,80,127,2078341448
85,20,15,Jits_Phase_8,1,5,63,98,2078381608
85,20,15,Jits_Phase_8,2,5,56,103,2078401844
85,20,15,Jits_Phase_8,3,1,48,23,2078506392
85,20,15,Jits_Phase_8,0,1,48,17,2079148440
85,20,15,Jits_Phase_8,1,5,56,103,2079211784
85,20,15,Jits_Phase_8,2,5,80,127,2079222052
85,20,15,Jits_Phase_8,3,5,63,98,2079241540
85,20,15,Jits_Phase_8,0,1,48,17,2079967904
85,20,15,Jits_Phase_8,1,5,56,103,2079992360
85,20,15,Jits_Phase_8,2,5,63,98,2080042416
85,20,15,Jits_Phase_8,3,5,80,127,2080072224
85,20,15,Jits_Phase_8,0,5,56,103,2080741636
85,20,15,Jits_Phase_8,1,5,63,98,2080752128
85,20,15,Jits_Phase_8,2,5,80,127,2080802108
85,20,15,Jits_Phase_8,3,1,48,23,2080808292
85,20,15,Jits_Phase_8,0,1,48,19,2081528472
85,20,15,Jits_Phase_8,1,5,56,103,2081532476
85,20,15,Jits_Phase_8,2,5,80,127,2081535396
85,20,15,Jits_Phase_8,3,5,63,98,2081692140
85,20,15,Jits_Phase_8,0,5,63,98,2082351340
85,20,15,Jits_Phase_8,1,1,48,24,2082379940
85,20,15,Jits_Phase_8,2,5,56,103,2082422236
85,20,15,Jits_Phase_8,3,5,80,127,2082462248
85,20,15,Jits_Phase_8,0,1,48,19,2083161584
85,20,15,Jits_Phase_8,1,5,63,98,2083192324
85,20,15,Jits_Phase_8,2,5,56,103,2083282440
85,20,15,Jits_Phase_8,3,5,80,127,2083285508
85,20,15,Jits_Phase_8,0,5,56,103,2083971336
85,20,15,Jits_Phase_8,1,1,48,21,2084013416
85,20,15,Jits_Phase_8,2,5,63,98,2084061540
85,20,15,Jits_Phase_8,3,5,80,127,2084071660
85,20,15,Jits_Phase_8,0,5,56,103,2084741440
85,20,15,Jits_Phase_8,1,1,48,25,2084789900
85,20,15,Jits_Phase_8,2,5,63,98,2084791636
85,20,15,Jits_Phase_8,3,5,80,127,2084822436
85,20,15,Jits_Phase_8,0,1,48,24,2085548288
85,20,15,Jits_Phase_8,1,5,63,98,2085622196
85,20,15,Jits_Phase_8,2,5,80,127,2085632244
85,20,15,Jits_Phase_8,3,5,56,103,2085691864
85,20,15,Jits_Phase_8,0,5,63,98,2086342472
85,20,15,Jits_Phase_8,1,1,48,23,2086386420
85,20,15,Jits_Phase_8,2,5,80,127,2086402408
85,20,15,Jits_Phase_8,3,5,56,103,2086442272
85,20,15,Jits_Phase_8,0,1,48,20,2087176956
85,20,15,Jits_Phase_8,1,5,56,103,2087242092
85,20,15,Jits_Phase_8,2,5,80,127,2087261604
85,20,15,Jits_Phase_8,3,5,63,98,2087282272
85,20,15,Jits_Phase_8,0,5,63,98,2087962148
85,20,15,Jits_Phase_8,1,5,56,103,2087981340
85,20,15,Jits_Phase_8,2,5,80,127,2088022472
85,20,15,Jits_Phase_8,3,1,48,15,2088029744
85,20,15,Jits_Phase_8,0,5,63,98,2088772092
85,20,15,Jits_Phase_8,1,1,48,22,2088791180
85,20,15,Jits_Phase_8,2,5,80,127,2088801564
85,20,15,Jits_Phase_8,3,5,56,103,2088822172
85,20,15,Jits_Phase_8,0,5,80,127,2089542256
85,20,15,Jits_Phase_8,1,1,48,19,2089582792
85,20,15,Jits_Phase_8,2,5,56,103,2089592328
85,20,15,Jits_Phase_8,3,5,63,98,2089651448
85,20,15,Jits_Phase_8,0,5,63,98,2090331640
85,20,15,Jits_Phase_8,1,1,48,22,2090415072
85,20,15,Jits_Phase_8,2,5,56,103,2090452484
85,20,15,Jits_Phase_8,3,5,80,127,2090482232
85,20,15,Jits_Phase_8,0,5,80,127,2091172308
85,20,15,Jits_Phase_8,1,5,63,98,2091191720
85,20,15,Jits_Phase_8,2,1,48,16,2091203156
85,20,15,Jits_Phase_8,3,5,56,103,2091262288
85,20,15,Jits_Phase_8,0,5,63,98,2091992312
85,20,15,Jits_Phase_8,1,1,48,18,2092001832
85,20,15,Jits_Phase_8,2,5,56,103,2092003168
85,20,15,Jits_Phase_8,3,5,80,127,2092081544
85,20,15,Jits_Phase_8,0,1,48,20,2092742744
85,20,15,Jits_Phase_8,1,5,56,103,2092851540
85,20,15,Jits_Phase_8,2,5,80,127,2092882264
85,20,15,Jits_Phase_8,3,5,63,98,2092891436
85,20,15,Jits_Phase_8,0,9999,9999,9999,1957999680
85,20,15,Jits_Phase_8,1,9999,9999,9999,1958799472
85,20,15,Jits_Phase_8,2,9999,9999,9999,1959599188
85,20,15,Jits_Phase_8,3,9999,9999,9999,1960399936
85,20,15,Jits_Phase_8,4,9999,9999,9999,1961199688
85,20,15,Jits_Phase_8,5,9999,9999,9999,1961999452
85,20,15,Jits_Phase_8,6,9999,9999,9999,1962799208
85,20,15,Jits_Phase_8,7,9999,9999,9999,1963599952
85,20,15,Jits_Phase_8,8,9999,9999,9999,1964399672
85,20,15,Jits_Phase_8,9,9999,9999,9999,1965199420
85,20,15,Jits_Phase_8,10,9999,9999,9999,1965999204
85,20,15,Jits_Phase_8,11,9999,9999,9999,1966799940
85,20,15,Jits_Phase_8,12,9999,9999,9999,1967599716
85,20,15,Jits_Phase_8,13,9999,9999,9999,1968399488
85,20,15,Jits_Phase_8,14,9999,9999,9999,1969199228
85,20,15,Jits_Phase_8,15,9999,9999,9999,1969999948
85,20,15,Jits_Phase_8,16,9999,9999,9999,1970799712
85,20,15,Jits_Phase_8,17,9999,9999,9999,1971599472
85,20,15,Jits_Phase_8,18,9999,9999,9999,1972399164
85,20,15,Jits_Phase_8,19,9999,9999,9999,1973199968
85,20,15,Jits_Phase_8,20,9999,9999,9999,1973999720
85,20,15,Jits_Phase_8,21,9999,9999,9999,1974799480
85,20,15,Jits_Phase_8,22,9999,9999,9999,1975599168
85,20,15,Jits_Phase_8,23,9999,9999,9999,1976399972
85,20,15,Jits_Phase_8,24,9999,9999,9999,1977199680
85,20,15,Jits_Phase_8,25,9999,9999,9999,1977999432
85,20,15,Jits_Phase_8,26,9999,9999,9999,1978799192
85,20,15,Jits_Phase_8,27,9999,9999,9999,1979600000
85,20,15,Jits_Phase_8,28,9999,9999,9999,1980399684
85,20,15,Jits_Phase_8,29,9999,9999,9999,1981199448
85,20,15,Jits_Phase_8,30,9999,9999,9999,1981979724
85,20,15,Jits_Phase_8,31,9999,9999,9999,1982779484
85,20,15,Jits_Phase_8,32,9999,9999,9999,1983579256
85,20,15,Jits_Phase_8,33,9999,9999,9999,1984380016
85,20,15,Jits_Phase_8,34,9999,9999,9999,1985179716
85,20,15,Jits_Phase_8,35,9999,9999,9999,1985979480
85,20,15,Jits_Phase_8,36,9999,9999,9999,1986779248
85,20,15,Jits_Phase_8,37,9999,9999,9999,1987579996
85,20,15,Jits_Phase_8,38,9999,9999,9999,1988379760
85,20,15,Jits_Phase_8,39,9999,9999,9999,1989179460
85,20,15,Jits_Phase_8,40,9999,9999,9999,1989979224
85,20,15,Jits_Phase_8,41,9999,9999,9999,1990779988
85,20,15,Jits_Phase_8,42,9999,9999,9999,1991579744
85,20,15,Jits_Phase_8,43,9999,9999,9999,1992379492
85,20,15,Jits_Phase_8,44,9999,9999,9999,1993179236
85,20,15,Jits_Phase_8,45,9999,9999,9999,1993979968
85,20,15,Jits_Phase_8,46,9999,9999,9999,1994779724
85,20,15,Jits_Phase_8,47,9999,9999,9999,1995579492
85,20,15,Jits_Phase_8,48,9999,9999,9999,1996399672
85,20,15,Jits_Phase_8,49,9999,9999,9999,1997199440
85,20,15,Jits_Phase_8,50,9999,9999,9999,1997999200
85,20,15,Jits_Phase_8,51,9999,9999,9999,1998799944
85,20,15,Jits_Phase_8,52,9999,9999,9999,1999599704
85,20,15,Jits_Phase_8,53,9999,9999,9999,2000399468
85,20,15,Jits_Phase_8,54,9999,9999,9999,2001199224
85,20,15,Jits_Phase_8,55,9999,9999,9999,2001999968
85,20,15,Jits_Phase_8,56,9999,9999,9999,2002799672
85,20,15,Jits_Phase_8,57,9999,9999,9999,2003599432
85,20,15,Jits_Phase_8,58,9999,9999,9999,2004399192
85,20,15,Jits_Phase_8,59,9999,9999,9999,2005199992
85,20,15,Jits_Phase_8,60,9999,9999,9999,2005999692
85,20,15,Jits_Phase_8,61,9999,9999,9999,2006799468
85,20,15,Jits_Phase_8,62,9999,9999,9999,2007599224
85,20,15,Jits_Phase_8,63,9999,9999,9999,2008399948
85,20,15,Jits_Phase_8,64,9999,9999,9999,2009239668
85,20,15,Jits_Phase_8,65,9999,9999,9999,2010039356
85,20,15,Jits_Phase_8,66,9999,9999,9999,2010839136
85,20,15,Jits_Phase_8,67,9999,9999,9999,2011639868
85,20,15,Jits_Phase_8,68,9999,9999,9999,2012439616
85,20,15,Jits_Phase_8,69,9999,9999,9999,2013239372
85,20,15,Jits_Phase_8,70,9999,9999,9999,2014039128
85,20,15,Jits_Phase_8,71,9999,9999,9999,2014839888
85,20,15,Jits_Phase_8,72,9999,9999,9999,2015639644
85,20,15,Jits_Phase_8,73,9999,9999,9999,2016439392
85,20,15,Jits_Phase_8,74,9999,9999,9999,2017239160
85,20,15,Jits_Phase_8,75,9999,9999,9999,2018039892
85,20,15,Jits_Phase_8,76,9999,9999,9999,2018839660
85,20,15,Jits_Phase_8,77,9999,9999,9999,2019639360
85,20,15,Jits_Phase_8,78,9999,9999,9999,2020439128
85,20,15,Jits_Phase_8,79,9999,9999,9999,2021239892
85,20,15,Jits_Phase_8,80,9999,9999,9999,2022039652
85,20,15,Jits_Phase_8,81,9999,9999,9999,2022799476
85,20,15,Jits_Phase_8,82,9999,9999,9999,2023599164
85,20,15,Jits_Phase_8,83,9999,9999,9999,2024399968
85,20,15,Jits_Phase_8,84,9999,9999,9999,2025199732
85,20,15,Jits_Phase_8,85,9999,9999,9999,2025999436
85,20,15,Jits_Phase_8,86,9999,9999,9999,2026799192
85,20,15,Jits_Phase_8,87,9999,9999,9999,2027599992
85,20,15,Jits_Phase_8,88,9999,9999,9999,2028399696
85,20,15,Jits_Phase_8,89,9999,9999,9999,2029199464
85,20,15,Jits_Phase_8,90,9999,9999,9999,2029999160
85,20,15,Jits_Phase_8,91,9999,9999,9999,2030799960
85,20,15,Jits_Phase_8,92,9999,9999,9999,2031599736
85,20,15,Jits_Phase_8,93,9999,9999,9999,2032399420
85,20,15,Jits_Phase_8,94,9999,9999,9999,2033199176
85,20,15,Jits_Phase_8,95,9999,9999,9999,2033999976
85,20,15,Jits_Phase_8,96,9999,9999,9999,2034799700
85,20,15,Jits_Phase_8,97,9999,9999,9999,2035519572
85,20,15,Jits_Phase_8,98,9999,9999,9999,2036319300
85,20,15,Jits_Phase_8,99,9999,9999,9999,2037120124
85,20,15,Jits_Phase_8,100,9999,9999,9999,2037930076
85,20,15,Jits_Phase_8,101,9999,9999,9999,2038729836
85,20,15,Jits_Phase_8,102,9999,9999,9999,2039529588
85,20,15,Jits_Phase_8,103,9999,9999,9999,2040329344
85,20,15,Jits_Phase_8,104,9999,9999,9999,2041130088
85,20,15,Jits_Phase_8,105,9999,9999,9999,2041929856
85,20,15,Jits_Phase_8,106,9999,9999,9999,2042729552
85,20,15,Jits_Phase_8,107,9999,9999,9999,2043529296
85,20,15,Jits_Phase_8,108,9999,9999,9999,2044330100
85,20,15,Jits_Phase_8,109,9999,9999,9999,2045129788
85,20,15,Jits_Phase_8,110,9999,9999,9999,2045929564
85,20,15,Jits_Phase_8,111,9999,9999,9999,2046729324
85,20,15,Jits_Phase_8,112,9999,9999,9999,2047530064
85,20,15,Jits_Phase_8,113,9999,9999,9999,2048329840
85,20,15,Jits_Phase_8,114,9999,9999,9999,2049209416
85,20,15,Jits_Phase_8,115,9999,9999,9999,2050009172
85,20,15,Jits_Phase_8,116,9999,9999,9999,2050809980
85,20,15,Jits_Phase_8,117,9999,9999,9999,2051609668
85,20,15,Jits_Phase_8,118,9999,9999,9999,2052409444
85,20,15,Jits_Phase_8,119,9999,9999,9999,2053209212
85,20,15,Jits_Phase_8,120,9999,9999,9999,2054009976
85,20,15,Jits_Phase_8,121,9999,9999,9999,2054809656
85,20,15,Jits_Phase_8,122,9999,9999,9999,2055609408
85,20,15,Jits_Phase_8,123,9999,9999,9999,2056409160
85,20,15,Jits_Phase_8,124,9999,9999,9999,2057209968
85,20,15,Jits_Phase_8,125,9999,9999,9999,2058009708
85,20,15,Jits_Phase_8,126,9999,9999,9999,2058809404
85,20,15,Jits_Phase_8,127,9999,9999,9999,2059609188
85,20,15,Jits_Phase_8,128,9999,9999,9999,2060409920
85,20,15,Jits_Phase_8,129,9999,9999,9999,2061209692
85,20,15,Jits_Phase_8,130,9999,9999,9999,2062009396
85,20,15,Jits_Phase_8,131,9999,9999,9999,2062969964
85,20,15,Jits_Phase_8,132,9999,9999,9999,2063769720
85,20,15,Jits_Phase_8,133,9999,9999,9999,2064569412
85,20,15,Jits_Phase_8,134,9999,9999,9999,2065369172
85,20,15,Jits_Phase_8,135,9999,9999,9999,2066169940
85,20,15,Jits_Phase_8,136,9999,9999,9999,2066969696
85,20,15,Jits_Phase_8,137,9999,9999,9999,2067769468
85,20,15,Jits_Phase_8,138,9999,9999,9999,2068569192
85,20,15,Jits_Phase_8,139,9999,9999,9999,2069369936
85,20,15,Jits_Phase_8,140,9999,9999,9999,2070169696
85,20,15,Jits_Phase_8,141,9999,9999,9999,2070969452
85,20,15,Jits_Phase_8,142,9999,9999,9999,2071769148
85,20,15,Jits_Phase_8,143,9999,9999,9999,2072569952
85,20,15,Jits_Phase_8,144,9999,9999,9999,2073369708
85,20,15,Jits_Phase_8,145,9999,9999,9999,2074169468
85,20,15,Jits_Phase_8,146,9999,9999,9999,2074969176
85,20,15,Jits_Phase_8,147,9999,9999,9999,2075769972
85,20,15,Jits_Phase_8,148,9999,9999,9999,2076569724
85,20,15,Jits_Phase_8,149,9999,9999,9999,2077369404
85,20,15,Jits_Phase_8,150,9999,9999,9999,2078009416
85,20,15,Jits_Phase_8,151,9999,9999,9999,2078809208
85,20,15,Jits_Phase_8,152,9999,9999,9999,2079609956
85,20,15,Jits_Phase_8,153,9999,9999,9999,2080409720
85,20,15,Jits_Phase_8,154,9999,9999,9999,2081209400
85,20,15,Jits_Phase_8,155,9999,9999,9999,2082009160
85,20,15,Jits_Phase_8,156,9999,9999,9999,2082809968
85,20,15,Jits_Phase_8,157,9999,9999,9999,2083609724
85,20,15,Jits_Phase_8,158,9999,9999,9999,2084409412
85,20,15,Jits_Phase_8,159,9999,9999,9999,2085209208
85,20,15,Jits_Phase_8,160,9999,9999,9999,2086009960
85,20,15,Jits_Phase_8,161,9999,9999,9999,2086809716
85,20,15,Jits_Phase_8,162,9999,9999,9999,2087609408
85,20,15,Jits_Phase_8,163,9999,9999,9999,2088409164
85,20,15,Jits_Phase_8,164,9999,9999,9999,2089209968
85,20,15,Jits_Phase_8,165,9999,9999,9999,2090009724
85,20,15,Jits_Phase_8,166,9999,9999,9999,2090809424
85,20,15,Jits_Phase_8,167,9999,9999,9999,2091609208
85,20,15,Jits_Phase_8,168,9999,9999,9999,2092409960
85,20,15,Jits_Phase_8,169,9999,9999,9999,2093209728
85,21,5,ISIP_5,0,5,42,127,2159678928
85,21,5,ISIP_5,1,5,42,127,2160178572
85,21,5,ISIP_5,2,1,48,25,2160671660
85,21,5,ISIP_5,3,5,42,127,2160679252
85,21,5,ISIP_5,4,1,48,23,2161156252
85,21,5,ISIP_5,5,5,42,127,2161178872
85,21,5,ISIP_5,6,1,48,24,2161622508
85,21,5,ISIP_5,7,5,42,127,2161678644
85,21,5,ISIP_5,8,1,48,31,2162140236
85,21,5,ISIP_5,9,5,42,127,2162178264
85,21,5,ISIP_5,10,1,48,28,2162621976
85,21,5,ISIP_5,11,5,42,127,2162679004
85,21,5,ISIP_5,12,1,48,27,2163140368
85,21,5,ISIP_5,13,5,42,127,2163178848
85,21,5,ISIP_5,14,1,48,24,2163650164
85,21,5,ISIP_5,15,5,42,127,2163678620
85,21,5,ISIP_5,16,1,48,25,2164158232
85,21,5,ISIP_5,17,5,42,127,2164179212
85,21,5,ISIP_5,18,1,48,22,2164636764
85,21,5,ISIP_5,19,5,42,127,2164678984
85,21,5,ISIP_5,20,1,48,24,2165141020
85,21,5,ISIP_5,21,5,42,127,2165178900
85,21,5,ISIP_5,22,1,48,25,2165653056
85,21,5,ISIP_5,23,5,42,127,2165678372
85,21,5,ISIP_5,24,1,48,21,2166171076
85,21,5,ISIP_5,25,5,42,127,2166179040
85,21,5,ISIP_5,26,5,42,127,2166678888
85,21,5,ISIP_5,27,1,48,21,2166681636
85,21,5,ISIP_5,28,1,48,19,2167161868
85,21,5,ISIP_5,29,5,42,127,2167178952
85,21,5,ISIP_5,30,1,48,19,2167679328
85,21,5,ISIP_5,31,5,42,127,2167680592
85,21,5,ISIP_5,32,1,48,16,2168164244
85,21,5,ISIP_5,33,5,42,127,2168179016
85,21,5,ISIP_5,34,1,48,21,2168659056
85,21,5,ISIP_5,35,5,42,127,2168678860
85,21,5,ISIP_5,36,1,48,20,2169153964
85,21,5,ISIP_5,37,5,42,127,2169178408
85,21,5,ISIP_5,38,1,48,21,2169669064
85,21,5,ISIP_5,39,5,42,127,2169679196
85,21,5,ISIP_5,40,1,48,20,2170151112
85,21,5,ISIP_5,41,5,42,127,2170178968
85,21,5,ISIP_5,42,1,48,18,2170655516
85,21,5,ISIP_5,43,5,42,127,2170678808
85,21,5,ISIP_5,44,1,48,19,2171159544
85,21,5,ISIP_5,45,5,42,127,2171179628
85,21,5,ISIP_5,46,1,48,18,2171666504
85,21,5,ISIP_5,47,5,42,127,2171678952
85,21,5,ISIP_5,48,1,48,20,2172143832
85,21,5,ISIP_5,49,5,42,127,2172178868
85,21,5,ISIP_5,50,1,48,17,2172656692
85,21,5,ISIP_5,51,5,42,127,2172678712
85,21,5,ISIP_5,52,1,48,20,2173173964
85,21,5,ISIP_5,53,5,42,127,2173179380
85,21,5,ISIP_5,54,1,48,17,2173669840
85,21,5,ISIP_5,55,5,42,127,2173678924
85,21,5,ISIP_5,56,1,48,18,2174163624
85,21,5,ISIP_5,57,5,42,127,2174178844
85,21,5,ISIP_5,58,1,48,19,2174673640
85,21,5,ISIP_5,59,5,42,127,2174679512
85,21,5,ISIP_5,60,1,48,20,2175147532
85,21,5,ISIP_5,61,5,42,127,2175179056
85,21,5,ISIP_5,62,1,48,20,2175656580
85,21,5,ISIP_5,63,5,42,127,2175678752
85,21,5,ISIP_5,64,1,48,18,2176149916
85,21,5,ISIP_5,65,5,42,127,2176178820
85,21,5,ISIP_5,66,1,48,19,2176641680
85,21,5,ISIP_5,67,5,42,127,2176679188
85,21,5,ISIP_5,68,1,48,18,2177162468
85,21,5,ISIP_5,69,5,42,127,2177179032
85,21,5,ISIP_5,70,1,48,19,2177654836
85,21,5,ISIP_5,71,5,42,127,2177678800
85,21,5,ISIP_5,72,1,48,19,2178158264
85,21,5,ISIP_5,73,5,42,127,2178178572
85,21,5,ISIP_5,74,1,48,19,2178678944
85,21,5,ISIP_5,75,5,42,127,2178680508
85,21,5,ISIP_5,76,1,48,19,2179167900
85,21,5,ISIP_5,77,5,42,127,2179178784
85,21,5,ISIP_5,78,1,48,18,2179646252
85,21,5,ISIP_5,79,1,48,17,2180183384
85,21,5,ISIP_5,80,1,48,18,2180641520
85,21,5,ISIP_5,81,1,48,18,2181142404
85,21,5,ISIP_5,82,1,48,19,2181650924
85,21,5,ISIP_5,83,1,48,19,2182169912
85,21,5,ISIP_5,84,1,48,17,2182693772
85,21,5,ISIP_5,85,1,48,18,2183180380
85,21,5,ISIP_5,86,1,48,18,2183690316
85,21,5,ISIP_5,87,1,48,18,2184190896
85,21,5,ISIP_5,88,1,48,18,2184702780
85,21,5,ISIP_5,89,1,48,19,2185204872
85,21,5,ISIP_5,90,1,48,17,2185715400
85,21,5,ISIP_5,91,1,48,18,2186218380
85,21,5,ISIP_5,92,1,48,19,2186728772
85,21,5,ISIP_5,93,1,48,18,2187236840
85,21,5,ISIP_5,94,1,48,18,2187736456
85,21,5,ISIP_5,95,1,48,21,2188217220
85,21,5,ISIP_5,96,1,48,17,2188730900
85,21,5,ISIP_5,97,1,48,16,2189255352
85,21,5,ISIP_5,98,1,48,18,2189747264
85,21,5,ISIP_5,99,1,48,18,2190238200
85,21,5,ISIP_5,100,1,48,17,2190747768
85,21,5,ISIP_5,101,1,48,19,2191276700
85,21,5,ISIP_5,102,1,48,17,2191756796
85,21,5,ISIP_5,103,1,48,16,2192240180
85,21,5,ISIP_5,104,1,48,20,2192753480
85,21,5,ISIP_5,105,1,48,18,2193268356
85,21,5,ISIP_5,106,1,48,17,2193741544
85,21,5,ISIP_5,107,1,48,19,2194233760
85,21,5,ISIP_5,108,1,48,19,2194795256
85,21,5,ISIP_5,109,1,48,17,2195282900
85,21,5,ISIP_5,110,1,48,20,2195772844
85,21,5,ISIP_5,111,1,48,16,2196242312
85,21,5,ISIP_5,112,1,48,19,2196753148
85,21,5,ISIP_5,113,1,48,19,2197260096
85,21,5,ISIP_5,114,1,48,19,2197754476
85,21,5,ISIP_5,115,1,48,17,2198256784
85,21,5,ISIP_5,116,1,48,16,2198737324
85,21,5,ISIP_5,117,1,48,19,2199229760
85,21,5,ISIP_5,118,1,48,18,2199741868
85,21,5,ISIP_5,119,1,48,19,2200227872
85,21,5,ISIP_5,120,1,48,19,2200758380
85,21,5,ISIP_5,121,1,48,17,2201211620
85,21,5,ISIP_5,122,1,48,18,2201709436
85,21,5,ISIP_5,123,1,48,16,2202227232
85,21,5,ISIP_5,124,1,48,20,2202721760
85,21,5,ISIP_5,125,1,48,16,2203227216
85,21,5,ISIP_5,126,1,48,20,2203715664
85,21,5,ISIP_5,127,1,48,19,2204176288
85,21,5,ISIP_5,128,1,48,19,2204669844
85,21,5,ISIP_5,129,1,48,20,2205184512
85,21,5,ISIP_5,130,1,48,19,2205711052
85,21,5,ISIP_5,131,1,48,18,2206193612
85,21,5,ISIP_5,132,1,48,17,2206664872
85,21,5,ISIP_5,133,1,48,19,2207176080
85,21,5,ISIP_5,134,1,48,21,2207681392
85,21,5,ISIP_5,135,1,48,16,2208173964
85,21,5,ISIP_5,136,1,48,18,2208652788
85,21,5,ISIP_5,137,1,48,19,2209174696
85,21,5,ISIP_5,138,1,48,20,2209676644
85,21,5,ISIP_5,139,1,48,18,2210161884
85,21,5,ISIP_5,140,1,48,18,2210649980
85,21,5,ISIP_5,141,1,48,18,2211128556
85,21,5,ISIP_5,142,1,48,19,2211654872
85,21,5,ISIP_5,143,1,48,19,2212149924
85,21,5,ISIP_5,144,1,48,17,2212631592
85,21,5,ISIP_5,145,1,48,18,2213143468
85,21,5,ISIP_5,146,1,48,21,2213679752
85,21,5,ISIP_5,147,1,48,20,2214170448
85,21,5,ISIP_5,148,1,48,17,2214650396
85,21,5,ISIP_5,149,1,48,19,2215161824
85,21,5,ISIP_5,150,1,48,21,2215672440
85,21,5,ISIP_5,151,1,48,17,2216154404
85,21,5,ISIP_5,152,1,48,19,2216678192
85,21,5,ISIP_5,153,1,48,18,2217199124
85,21,5,ISIP_5,154,1,48,20,2217695972
85,21,5,ISIP_5,155,1,48,18,2218184820
85,21,5,ISIP_5,156,1,48,19,2218692812
85,21,5,ISIP_5,157,1,48,19,2219188984
85,21,5,ISIP_5,158,1,48,21,2219697504
85,21,5,ISIP_5,159,1,48,16,2220198092
85,21,5,ISIP_5,160,1,48,19,2220699956
85,21,5,ISIP_5,161,1,48,19,2221195532
85,21,5,ISIP_5,162,1,48,18,2221693352
85,21,5,ISIP_5,163,1,48,20,2222236276
85,21,5,ISIP_5,164,1,48,17,2222737984
85,21,5,ISIP_5,165,1,48,18,2223199680
85,21,5,ISIP_5,166,1,48,16,2223750832
85,21,5,ISIP_5,167,1,48,18,2224237356
85,21,5,ISIP_5,168,1,48,16,2224719444
85,21,5,ISIP_5,169,1,48,19,2225229012
85,21,5,ISIP_5,170,1,48,21,2225754604
85,21,5,ISIP_5,171,1,48,17,2226281220
85,21,5,ISIP_5,172,1,48,19,2226767052
85,21,5,ISIP_5,173,1,48,17,2227260980
85,21,5,ISIP_5,174,1,48,17,2227778024
85,21,5,ISIP_5,175,1,48,16,2228253624
85,21,5,ISIP_5,176,1,48,18,2228777852
85,21,5,ISIP_5,177,1,48,18,2229279488
85,21,5,ISIP_5,178,1,48,17,2229809548
85,21,5,ISIP_5,179,1,48,17,2230277224
85,21,5,ISIP_5,180,1,48,19,2230810948
85,21,5,ISIP_5,181,1,48,18,2231366212
85,21,5,ISIP_5,182,1,48,17,2231882808
85,21,5,ISIP_5,183,1,48,17,2232393268
85,21,5,ISIP_5,184,1,48,17,2232890492
85,21,5,ISIP_5,185,1,48,15,2233370884
85,21,5,ISIP_5,186,1,48,17,2233861968
85,21,5,ISIP_5,187,1,48,18,2234394052
85,21,5,ISIP_5,188,1,48,16,2234888800
85,21,5,ISIP_5,189,1,48,18,2235398368
85,21,5,ISIP_5,190,1,48,19,2235911068
85,21,5,ISIP_5,191,1,48,17,2236413900
85,21,5,ISIP_5,192,1,48,16,2236913588
85,21,5,ISIP_5,193,1,48,20,2237407748
85,21,5,ISIP_5,194,1,48,19,2237932048
85,21,5,ISIP_5,195,1,48,17,2238452604
85,21,5,ISIP_5,196,1,48,17,2238935172
85,21,5,ISIP_5,197,1,48,17,2239424692
85,21,5,ISIP_5,0,9999,9999,9999,2159676492
85,21,5,ISIP_5,1,9999,9999,9999,2160176208
85,21,5,ISIP_5,2,9999,9999,9999,2160676968
85,21,5,ISIP_5,3,9999,9999,9999,2161176660
85,21,5,ISIP_5,4,9999,9999,9999,2161676356
85,21,5,ISIP_5,5,9999,9999,9999,2162176052
85,21,5,ISIP_5,6,9999,9999,9999,2162676792
85,21,5,ISIP_5,7,9999,9999,9999,2163176564
85,21,5,ISIP_5,8,9999,9999,9999,2163676260
85,21,5,ISIP_5,9,9999,9999,9999,2164177000
85,21,5,ISIP_5,10,9999,9999,9999,2164676696
85,21,5,ISIP_5,11,9999,9999,9999,2165176392
85,21,5,ISIP_5,12,9999,9999,9999,2165676084
85,21,5,ISIP_5,13,9999,9999,9999,2166176828
85,21,5,ISIP_5,14,9999,9999,9999,2166676600
85,21,5,ISIP_5,15,9999,9999,9999,2167176292
85,21,5,ISIP_5,16,9999,9999,9999,2167677040
85,21,5,ISIP_5,17,9999,9999,9999,2168176728
85,21,5,ISIP_5,18,9999,9999,9999,2168676424
85,21,5,ISIP_5,19,9999,9999,9999,2169176120
85,21,5,ISIP_5,20,9999,9999,9999,2169676908
85,21,5,ISIP_5,21,9999,9999,9999,2170176608
85,21,5,ISIP_5,22,9999,9999,9999,2170676300
85,21,5,ISIP_5,23,9999,9999,9999,2171177044
85,21,5,ISIP_5,24,9999,9999,9999,2171676740
85,21,5,ISIP_5,25,9999,9999,9999,2172176432
85,21,5,ISIP_5,26,9999,9999,9999,2172676204
85,21,5,ISIP_5,27,9999,9999,9999,2173176944
85,21,5,ISIP_5,28,9999,9999,9999,2173676640
85,21,5,ISIP_5,29,9999,9999,9999,2174176336
85,21,5,ISIP_5,30,9999,9999,9999,2174677076
85,21,5,ISIP_5,31,9999,9999,9999,2175176772
85,21,5,ISIP_5,32,9999,9999,9999,2175676468
85,21,5,ISIP_5,33,9999,9999,9999,2176176236
85,21,5,ISIP_5,34,9999,9999,9999,2176676976
85,21,5,ISIP_5,35,9999,9999,9999,2177176672
85,21,5,ISIP_5,36,9999,9999,9999,2177676368
85,21,5,ISIP_5,37,9999,9999,9999,2178176060
85,21,5,ISIP_5,38,9999,9999,9999,2178676808
85,21,5,ISIP_5,39,9999,9999,9999,2179176496
85,21,5,ISIP_5,40,9999,9999,9999,2179676264
85,21,5,ISIP_5,41,9999,9999,9999,2180176984
85,21,5,ISIP_5,42,9999,9999,9999,2180676668
85,21,5,ISIP_5,43,9999,9999,9999,2181176432
85,21,5,ISIP_5,44,9999,9999,9999,2181676124
85,21,5,ISIP_5,45,9999,9999,9999,2182176860
85,21,5,ISIP_5,46,9999,9999,9999,2182676556
85,21,5,ISIP_5,47,9999,9999,9999,2183176248
85,21,5,ISIP_5,48,9999,9999,9999,2183676984
85,21,5,ISIP_5,49,9999,9999,9999,2184176748
85,21,5,ISIP_5,50,9999,9999,9999,2184676440
85,21,5,ISIP_5,51,9999,9999,9999,2185176128
85,21,5,ISIP_5,52,9999,9999,9999,2185676864
85,21,5,ISIP_5,53,9999,9999,9999,2186176632
85,21,5,ISIP_5,54,9999,9999,9999,2186676324
85,21,5,ISIP_5,55,9999,9999,9999,2187177060
85,21,5,ISIP_5,56,9999,9999,9999,2187676752
85,21,5,ISIP_5,57,9999,9999,9999,2188176444
85,21,5,ISIP_5,58,9999,9999,9999,2188676208
85,21,5,ISIP_5,59,9999,9999,9999,2189176948
85,21,5,ISIP_5,60,9999,9999,9999,2189676636
85,21,5,ISIP_5,61,9999,9999,9999,2190176328
85,21,5,ISIP_5,62,9999,9999,9999,2190677064
85,21,5,ISIP_5,63,9999,9999,9999,2191176804
85,21,5,ISIP_5,64,9999,9999,9999,2191676496
85,21,5,ISIP_5,65,9999,9999,9999,2192176188
85,21,5,ISIP_5,66,9999,9999,9999,2192676924
85,21,5,ISIP_5,67,9999,9999,9999,2193176692
85,21,5,ISIP_5,68,9999,9999,9999,2193676380
85,21,5,ISIP_5,69,9999,9999,9999,2194176072
85,21,5,ISIP_5,70,9999,9999,9999,2194676808
85,21,5,ISIP_5,71,9999,9999,9999,2195176500
85,21,5,ISIP_5,72,9999,9999,9999,2195676264
85,21,5,ISIP_5,73,9999,9999,9999,2196177000
85,21,5,ISIP_5,74,9999,9999,9999,2196676692
85,21,5,ISIP_5,75,9999,9999,9999,2197176380
85,21,5,ISIP_5,76,9999,9999,9999,2197676144
85,21,5,ISIP_5,77,9999,9999,9999,2198176884
85,21,5,ISIP_5,78,9999,9999,9999,2198676572
85,21,5,ISIP_5,79,9999,9999,9999,2199176264
85,21,5,ISIP_5,80,9999,9999,9999,2199677004
85,21,5,ISIP_5,81,9999,9999,9999,2200176692
85,21,5,ISIP_5,82,9999,9999,9999,2200676460
85,21,5,ISIP_5,83,9999,9999,9999,2201176152
85,21,5,ISIP_5,84,9999,9999,9999,2201676864
85,21,5,ISIP_5,85,9999,9999,9999,2202176628
85,21,5,ISIP_5,86,9999,9999,9999,2202676320
85,21,5,ISIP_5,87,9999,9999,9999,2203177056
85,21,5,ISIP_5,88,9999,9999,9999,2203676748
85,21,5,ISIP_5,89,9999,9999,9999,2204176432
85,21,5,ISIP_5,90,9999,9999,9999,2204676196
85,21,5,ISIP_5,91,9999,9999,9999,2205176940
85,21,5,ISIP_5,92,9999,9999,9999,2205676632
85,21,5,ISIP_5,93,9999,9999,9999,2206176324
85,21,5,ISIP_5,94,9999,9999,9999,2206677052
85,21,5,ISIP_5,95,9999,9999,9999,2207176820
85,21,5,ISIP_5,96,9999,9999,9999,2207676516
85,21,5,ISIP_5,97,9999,9999,9999,2208176200
85,21,5,ISIP_5,98,9999,9999,9999,2208676940
85,21,5,ISIP_5,99,9999,9999,9999,2209176632
85,21,5,ISIP_5,100,9999,9999,9999,2209676360
85,21,5,ISIP_5,101,9999,9999,9999,2210176088
85,21,5,ISIP_5,102,9999,9999,9999,2210676824
85,21,5,ISIP_5,103,9999,9999,9999,2211176516
85,21,5,ISIP_5,104,9999,9999,9999,2211676280
85,21,5,ISIP_5,105,9999,9999,9999,2212177016
85,21,5,ISIP_5,106,9999,9999,9999,2212676684
85,21,5,ISIP_5,107,9999,9999,9999,2213176376
85,21,5,ISIP_5,108,9999,9999,9999,2213676144
85,21,5,ISIP_5,109,9999,9999,9999,2214176876
85,21,5,ISIP_5,110,9999,9999,9999,2214676564
85,21,5,ISIP_5,111,9999,9999,9999,2215176256
85,21,5,ISIP_5,112,9999,9999,9999,2215676996
85,21,5,ISIP_5,113,9999,9999,9999,2216176756
85,21,5,ISIP_5,114,9999,9999,9999,2216676456
85,21,5,ISIP_5,115,9999,9999,9999,2217176148
85,21,5,ISIP_5,116,9999,9999,9999,2217676884
85,21,5,ISIP_5,117,9999,9999,9999,2218176576
85,21,5,ISIP_5,118,9999,9999,9999,2218676340
85,21,5,ISIP_5,119,9999,9999,9999,2219177076
85,21,5,ISIP_5,120,9999,9999,9999,2219676768
85,21,5,ISIP_5,121,9999,9999,9999,2220176460
85,21,5,ISIP_5,122,9999,9999,9999,2220676152
85,21,5,ISIP_5,123,9999,9999,9999,2221176892
85,21,5,ISIP_5,124,9999,9999,9999,2221676656
85,21,5,ISIP_5,125,9999,9999,9999,2222176348
85,21,5,ISIP_5,126,9999,9999,9999,2222677084
85,21,5,ISIP_5,127,9999,9999,9999,2223176824
85,21,5,ISIP_5,128,9999,9999,9999,2223676516
85,21,5,ISIP_5,129,9999,9999,9999,2224176208
85,21,5,ISIP_5,130,9999,9999,9999,2224676944
85,21,5,ISIP_5,131,9999,9999,9999,2225176636
85,21,5,ISIP_5,132,9999,9999,9999,2225676400
85,21,5,ISIP_5,133,9999,9999,9999,2226176088
85,21,5,ISIP_5,134,9999,9999,9999,2226676828
85,21,5,ISIP_5,135,9999,9999,9999,2227176520
85,21,5,ISIP_5,136,9999,9999,9999,2227676208
85,21,5,ISIP_5,137,9999,9999,9999,2228176944
85,21,5,ISIP_5,138,9999,9999,9999,2228676712
85,21,5,ISIP_5,139,9999,9999,9999,2229176400
85,21,5,ISIP_5,140,9999,9999,9999,2229676092
85,21,5,ISIP_5,141,9999,9999,9999,2230176828
85,21,5,ISIP_5,142,9999,9999,9999,2230676592
85,21,5,ISIP_5,143,9999,9999,9999,2231176284
85,21,5,ISIP_5,144,9999,9999,9999,2231677024
85,21,5,ISIP_5,145,9999,9999,9999,2232176712
85,21,5,ISIP_5,146,9999,9999,9999,2232676404
85,21,5,ISIP_5,147,9999,9999,9999,2233176168
85,21,5,ISIP_5,148,9999,9999,9999,2233676880
85,21,5,ISIP_5,149,9999,9999,9999,2234176572
85,21,5,ISIP_5,150,9999,9999,9999,2234676336
85,21,5,ISIP_5,151,9999,9999,9999,2235177072
85,21,5,ISIP_5,152,9999,9999,9999,2235676764
85,21,5,ISIP_5,153,9999,9999,9999,2236176452
85,21,5,ISIP_5,154,9999,9999,9999,2236676144
85,21,5,ISIP_5,155,9999,9999,9999,2237176880
85,21,5,ISIP_5,156,9999,9999,9999,2237676648
85,21,5,ISIP_5,157,9999,9999,9999,2238176340
85,21,5,ISIP_5,158,9999,9999,9999,2238677076
85,21,5,ISIP_5,159,9999,9999,9999,2239176768
85,22,3,ISIP_8,0,5,42,127,2267470240
85,22,3,ISIP_8,1,5,42,127,2268270220
85,22,3,ISIP_8,2,5,42,127,2269069600
85,22,3,ISIP_8,3,1,48,28,2269091788
85,22,3,ISIP_8,4,1,48,21,2269859348
85,22,3,ISIP_8,5,5,42,127,2269869552
85,22,3,ISIP_8,6,1,48,17,2270657588
85,22,3,ISIP_8,7,5,42,127,2270670184
85,22,3,ISIP_8,8,1,48,20,2271439364
85,22,3,ISIP_8,9,5,42,127,2271470212
85,22,3,ISIP_8,10,1,48,20,2272237376
85,22,3,ISIP_8,11,5,42,127,2272269576
85,22,3,ISIP_8,12,1,48,22,2273044964
85,22,3,ISIP_8,13,5,42,127,2273069456
85,22,3,ISIP_8,14,5,42,127,2273870484
85,22,3,ISIP_8,15,1,48,25,2273872200
85,22,3,ISIP_8,16,5,42,127,2274670068
85,22,3,ISIP_8,17,1,48,21,2274681044
85,22,3,ISIP_8,18,1,48,19,2275470100
85,22,3,ISIP_8,19,5,42,127,2275471368
85,22,3,ISIP_8,20,1,48,16,2276256036
85,22,3,ISIP_8,21,5,42,127,2276269456
85,22,3,ISIP_8,22,1,48,19,2277050080
85,22,3,ISIP_8,23,5,42,127,2277070084
85,22,3,ISIP_8,24,1,48,20,2277837696
85,22,3,ISIP_8,25,5,42,127,2277869896
85,22,3,ISIP_8,26,1,48,24,2278628156
85,22,3,ISIP_8,27,5,42,127,2278669628
85,22,3,ISIP_8,28,1,48,29,2279408892
85,22,3,ISIP_8,29,5,42,127,2279469436
85,22,3,ISIP_8,30,1,48,23,2280238176
85,22,3,ISIP_8,31,5,42,127,2280270316
85,22,3,ISIP_8,32,1,48,24,2281018532
85,22,3,ISIP_8,33,5,42,127,2281069900
85,22,3,ISIP_8,34,1,48,25,2281803832
85,22,3,ISIP_8,35,5,42,127,2281869784
85,22,3,ISIP_8,36,1,48,23,2282590572
85,22,3,ISIP_8,37,5,42,127,2282669444
85,22,3,ISIP_8,38,1,48,21,2283402572
85,22,3,ISIP_8,39,5,42,127,2283470224
85,22,3,ISIP_8,40,1,48,22,2284246216
85,22,3,ISIP_8,41,5,42,127,2284269884
85,22,3,ISIP_8,42,1,48,20,2285049608
85,22,3,ISIP_8,43,5,42,127,2285069692
85,22,3,ISIP_8,44,1,48,21,2285848000
85,22,3,ISIP_8,45,5,42,127,2285869500
85,22,3,ISIP_8,46,5,42,127,2286670236
85,22,3,ISIP_8,47,1,48,21,2286672908
85,22,3,ISIP_8,48,1,48,20,2287422856
85,22,3,ISIP_8,49,5,42,127,2287469816
85,22,3,ISIP_8,50,1,48,18,2288247000
85,22,3,ISIP_8,51,5,42,127,2288269696
85,22,3,ISIP_8,52,1,48,19,2289014196
85,22,3,ISIP_8,53,5,42,127,2289069504
85,22,3,ISIP_8,54,1,48,21,2289833300
85,22,3,ISIP_8,55,5,42,127,2289870212
85,22,3,ISIP_8,56,1,48,17,2290644480
85,22,3,ISIP_8,57,5,42,127,2290669796
85,22,3,ISIP_8,58,1,48,21,2291457452
85,22,3,ISIP_8,59,1,48,17,2292234816
85,22,3,ISIP_8,60,1,48,19,2293039184
85,22,3,ISIP_8,61,1,48,19,2293797248
85,22,3,ISIP_8,62,1,48,19,2294549252
85,22,3,ISIP_8,63,1,48,20,2295392544
85,22,3,ISIP_8,64,1,48,17,2296163700
85,22,3,ISIP_8,65,1,48,18,2296941812
85,22,3,ISIP_8,66,1,48,19,2297749620
85,22,3,ISIP_8,67,1,48,17,2298513448
85,22,3,ISIP_8,68,1,48,21,2299299632
85,22,3,ISIP_8,69,1,48,17,2300120828
85,22,3,ISIP_8,70,1,48,17,2300906272
85,22,3,ISIP_8,71,1,48,18,2301719092
85,22,3,ISIP_8,72,1,48,19,2302523460
85,22,3,ISIP_8,73,1,48,18,2303346776
85,22,3,ISIP_8,74,1,48,16,2304116580
85,22,3,ISIP_8,75,1,48,18,2304853556
85,22,3,ISIP_8,76,1,48,21,2305677524
85,22,3,ISIP_8,77,1,48,16,2306458472
85,22,3,ISIP_8,78,1,48,17,2307256788
85,22,3,ISIP_8,79,1,48,19,2308050232
85,22,3,ISIP_8,80,1,48,17,2308871652
85,22,3,ISIP_8,81,1,48,14,2309636000
85,22,3,ISIP_8,82,1,48,17,2310399156
85,22,3,ISIP_8,83,1,48,13,2311156468
85,22,3,ISIP_8,84,1,48,16,2311962256
85,22,3,ISIP_8,85,1,48,14,2312733264
85,22,3,ISIP_8,86,1,48,13,2313587320
85,22,3,ISIP_8,87,1,48,19,2314340080
85,22,3,ISIP_8,88,1,48,22,2315093360
85,22,3,ISIP_8,89,1,48,20,2315840632
85,22,3,ISIP_8,90,1,48,19,2316691624
85,22,3,ISIP_8,91,1,48,18,2317448268
85,22,3,ISIP_8,92,1,48,21,2318296540
85,22,3,ISIP_8,93,1,48,19,2319074052
85,22,3,ISIP_8,94,1,48,18,2319871612
85,22,3,ISIP_8,95,1,48,18,2320630128
85,22,3,ISIP_8,96,1,48,18,2321433592
85,22,3,ISIP_8,97,1,48,20,2322209168
85,22,3,ISIP_8,98,1,48,19,2323019660
85,22,3,ISIP_8,99,1,48,19,2323803012
85,22,3,ISIP_8,100,1,48,18,2324594364
85,22,3,ISIP_8,101,1,48,19,2325363648
85,22,3,ISIP_8,102,1,48,18,2326205868
85,22,3,ISIP_8,103,1,48,21,2326975152
85,22,3,ISIP_8,104,1,48,20,2327808468
85,22,3,ISIP_8,105,1,48,20,2328583588
85,22,3,ISIP_8,106,1,48,19,2329416448
85,22,3,ISIP_8,107,1,48,20,2330178180
85,22,3,ISIP_8,108,1,48,19,2330945824
85,22,3,ISIP_8,109,1,48,22,2331714284
85,22,3,ISIP_8,110,1,48,20,2332537900
85,22,3,ISIP_8,111,1,48,23,2333329248
85,22,3,ISIP_8,112,1,48,21,2334131224
85,22,3,ISIP_8,113,1,48,19,2334877776
85,22,3,ISIP_8,114,1,48,25,2335685132
85,22,3,ISIP_8,115,1,48,20,2336450904
85,22,3,ISIP_8,116,1,48,22,2337241356
85,22,3,ISIP_8,117,1,48,26,2337974816
85,22,3,ISIP_8,118,1,48,19,2338858616
85,22,3,ISIP_8,119,1,48,19,2339628872
85,22,3,ISIP_8,120,1,48,21,2340430348
85,22,3,ISIP_8,121,1,48,19,2341212648
85,22,3,ISIP_8,122,1,48,19,2342017392
85,22,3,ISIP_8,123,1,48,17,2342819812
85,22,3,ISIP_8,124,1,48,21,2343625156
85,22,3,ISIP_8,125,1,48,19,2344427348
85,22,3,ISIP_8,126,1,48,18,2345278692
85,22,3,ISIP_8,127,1,48,19,2346050296
85,22,3,ISIP_8,128,1,48,20,2346842868
85,22,3,ISIP_8,129,1,48,17,2347673640
85,22,3,ISIP_8,130,1,48,18,2348476136
85,22,3,ISIP_8,131,1,48,15,2349281776
85,22,3,ISIP_8,132,1,48,21,2350096236
85,22,3,ISIP_8,133,1,48,21,2350880788
85,22,3,ISIP_8,134,1,48,19,2351722580
85,22,3,ISIP_8,135,1,48,17,2352514676
85,22,3,ISIP_8,136,1,48,20,2353296680
85,22,3,ISIP_8,137,1,48,16,2354110316
85,22,3,ISIP_8,138,1,48,21,2354930540
85,22,3,ISIP_8,139,1,48,17,2355700648
85,22,3,ISIP_8,140,1,48,23,2356509576
85,22,3,ISIP_8,141,1,48,16,2357271688
85,22,3,ISIP_8,142,1,48,18,2358079488
85,22,3,ISIP_8,143,1,48,17,2358895704
85,22,3,ISIP_8,144,1,48,18,2359696408
85,22,3,ISIP_8,145,1,48,20,2360509144
85,22,3,ISIP_8,146,1,48,23,2361311940
85,22,3,ISIP_8,147,1,48,17,2362139568
85,22,3,ISIP_8,148,1,48,14,2362947828
85,22,3,ISIP_8,149,1,48,17,2363789768
85,22,3,ISIP_8,150,1,48,20,2364575584
85,22,3,ISIP_8,151,1,48,17,2365396556
85,22,3,ISIP_8,152,1,48,18,2366257248
85,22,3,ISIP_8,153,1,48,15,2367011348
85,22,3,ISIP_8,154,1,48,16,2367849320
85,22,3,ISIP_8,155,1,48,18,2368677848
85,22,3,ISIP_8,156,1,48,19,2369500320
85,22,3,ISIP_8,157,1,48,20,2370357568
85,22,3,ISIP_8,158,1,48,22,2371179908
85,22,3,ISIP_8,159,1,48,17,2371995796
85,22,3,ISIP_8,160,1,48,19,2372811456
85,22,3,ISIP_8,161,1,48,16,2373584332
85,22,3,ISIP_8,162,1,48,21,2374433352
85,22,3,ISIP_8,163,1,48,19,2375253452
85,22,3,ISIP_8,164,1,48,17,2376114668
85,22,3,ISIP_8,165,1,48,18,2376934740
85,22,3,ISIP_8,166,1,48,21,2377794304
85,22,3,ISIP_8,167,1,48,17,2378664520
85,22,3,ISIP_8,168,1,48,19,2379464776
85,22,3,ISIP_8,169,1,48,16,2380281196
85,22,3,ISIP_8,170,1,48,15,2381109868
85,22,3,ISIP_8,171,1,48,17,2381940440
85,22,3,ISIP_8,172,1,48,17,2382818708
85,22,3,ISIP_8,173,1,48,14,2383655388
85,22,3,ISIP_8,174,1,48,16,2384505032
85,22,3,ISIP_8,175,1,48,17,2385352332
85,22,3,ISIP_8,176,1,48,18,2386193948
85,22,3,ISIP_8,177,1,48,17,2387047708
85,22,3,ISIP_8,0,9999,9999,9999,2267467876
85,22,3,ISIP_8,1,9999,9999,9999,2268267632
85,22,3,ISIP_8,2,9999,9999,9999,2269067312
85,22,3,ISIP_8,3,9999,9999,9999,2269867116
85,22,3,ISIP_8,4,9999,9999,9999,2270667896
85,22,3,ISIP_8,5,9999,9999,9999,2271467628
85,22,3,ISIP_8,6,9999,9999,9999,2272267360
85,22,3,ISIP_8,7,9999,9999,9999,2273067092
85,22,3,ISIP_8,8,9999,9999,9999,2273867880
85,22,3,ISIP_8,9,9999,9999,9999,2274667632
85,22,3,ISIP_8,10,9999,9999,9999,2275467364
85,22,3,ISIP_8,11,9999,9999,9999,2276267092
85,22,3,ISIP_8,12,9999,9999,9999,2277067872
85,22,3,ISIP_8,13,9999,9999,9999,2277867608
85,22,3,ISIP_8,14,9999,9999,9999,2278667340
85,22,3,ISIP_8,15,9999,9999,9999,2279467076
85,22,3,ISIP_8,16,9999,9999,9999,2280267856
85,22,3,ISIP_8,17,9999,9999,9999,2281067612
85,22,3,ISIP_8,18,9999,9999,9999,2281867348
85,22,3,ISIP_8,19,9999,9999,9999,2282667080
85,22,3,ISIP_8,20,9999,9999,9999,2283467860
85,22,3,ISIP_8,21,9999,9999,9999,2284267596
85,22,3,ISIP_8,22,9999,9999,9999,2285067328
85,22,3,ISIP_8,23,9999,9999,9999,2285867060
85,22,3,ISIP_8,24,9999,9999,9999,2286667848
85,22,3,ISIP_8,25,9999,9999,9999,2287467600
85,22,3,ISIP_8,26,9999,9999,9999,2288267332
85,22,3,ISIP_8,27,9999,9999,9999,2289067068
85,22,3,ISIP_8,28,9999,9999,9999,2289867848
85,22,3,ISIP_8,29,9999,9999,9999,2290667580
85,22,3,ISIP_8,30,9999,9999,9999,2291467316
85,22,3,ISIP_8,31,9999,9999,9999,2292267116
85,22,3,ISIP_8,32,9999,9999,9999,2293067892
85,22,3,ISIP_8,33,9999,9999,9999,2293867572
85,22,3,ISIP_8,34,9999,9999,9999,2294667360
85,22,3,ISIP_8,35,9999,9999,9999,2295467104
85,22,3,ISIP_8,36,9999,9999,9999,2296267864
85,22,3,ISIP_8,37,9999,9999,9999,2297067596
85,22,3,ISIP_8,38,9999,9999,9999,2297867324
85,22,3,ISIP_8,39,9999,9999,9999,2298667128
85,22,3,ISIP_8,40,9999,9999,9999,2299467828
85,22,3,ISIP_8,41,9999,9999,9999,2300267584
85,22,3,ISIP_8,42,9999,9999,9999,2301067312
85,22,3,ISIP_8,43,9999,9999,9999,2301867116
85,22,3,ISIP_8,44,9999,9999,9999,2302667888
85,22,3,ISIP_8,45,9999,9999,9999,2303467620
85,22,3,ISIP_8,46,9999,9999,9999,2304267352
85,22,3,ISIP_8,47,9999,9999,9999,2305067080
85,22,3,ISIP_8,48,9999,9999,9999,2305867856
85,22,3,ISIP_8,49,9999,9999,9999,2306667608
85,22,3,ISIP_8,50,9999,9999,9999,2307467340
85,22,3,ISIP_8,51,9999,9999,9999,2308267068
85,22,3,ISIP_8,52,9999,9999,9999,2309067844
85,22,3,ISIP_8,53,9999,9999,9999,2309867572
85,22,3,ISIP_8,54,9999,9999,9999,2310667376
85,22,3,ISIP_8,55,9999,9999,9999,2311467104
85,22,3,ISIP_8,56,9999,9999,9999,2312267832
85,22,3,ISIP_8,57,9999,9999,9999,2313067632
85,22,3,ISIP_8,58,9999,9999,9999,2313867364
85,22,3,ISIP_8,59,9999,9999,9999,2314667092
85,22,3,ISIP_8,60,9999,9999,9999,2315467868
85,22,3,ISIP_8,61,9999,9999,9999,2316267600
85,22,3,ISIP_8,62,9999,9999,9999,2317067328
85,22,3,ISIP_8,63,9999,9999,9999,2317867056
85,22,3,ISIP_8,64,9999,9999,9999,2318667856
85,22,3,ISIP_8,65,9999,9999,9999,2319467588
85,22,3,ISIP_8,66,9999,9999,9999,2320267316
85,22,3,ISIP_8,67,9999,9999,9999,2321067120
85,22,3,ISIP_8,68,9999,9999,9999,2321867896
85,22,3,ISIP_8,69,9999,9999,9999,2322667624
85,22,3,ISIP_8,70,9999,9999,9999,2323467328
85,22,3,ISIP_8,71,9999,9999,9999,2324267060
85,22,3,ISIP_8,72,9999,9999,9999,2325067860
85,22,3,ISIP_8,73,9999,9999,9999,2325867588
85,22,3,ISIP_8,74,9999,9999,9999,2326667316
85,22,3,ISIP_8,75,9999,9999,9999,2327467120
85,22,3,ISIP_8,76,9999,9999,9999,2328267824
85,22,3,ISIP_8,77,9999,9999,9999,2329067624
85,22,3,ISIP_8,78,9999,9999,9999,2329867352
85,22,3,ISIP_8,79,9999,9999,9999,2330667080
85,22,3,ISIP_8,80,9999,9999,9999,2331467884
85,22,3,ISIP_8,81,9999,9999,9999,2332267612
85,22,3,ISIP_8,82,9999,9999,9999,2333067340
85,22,3,ISIP_8,83,9999,9999,9999,2333867068
85,22,3,ISIP_8,84,9999,9999,9999,2334667844
85,22,3,ISIP_8,85,9999,9999,9999,2335467576
85,22,3,ISIP_8,86,9999,9999,9999,2336267380
85,22,3,ISIP_8,87,9999,9999,9999,2337067108
85,22,3,ISIP_8,88,9999,9999,9999,2337867836
85,22,3,ISIP_8,89,9999,9999,9999,2338667640
85,22,3,ISIP_8,90,9999,9999,9999,2339467368
85,22,3,ISIP_8,91,9999,9999,9999,2340267096
85,22,3,ISIP_8,92,9999,9999,9999,2341067872
85,22,3,ISIP_8,93,9999,9999,9999,2341867604
85,22,3,ISIP_8,94,9999,9999,9999,2342667332
85,22,3,ISIP_8,95,9999,9999,9999,2343467064
85,22,3,ISIP_8,96,9999,9999,9999,2344267864
85,22,3,ISIP_8,97,9999,9999,9999,2345067592
85,22,3,ISIP_8,98,9999,9999,9999,2345867324
85,22,3,ISIP_8,99,9999,9999,9999,2346667124
85,22,3,ISIP_8,100,9999,9999,9999,2347467828
85,22,3,ISIP_8,101,9999,9999,9999,2348267632
85,22,3,ISIP_8,102,9999,9999,9999,2349067360
85,22,3,ISIP_8,103,9999,9999,9999,2349867092
85,22,3,ISIP_8,104,9999,9999,9999,2350667892
85,22,3,ISIP_8,105,9999,9999,9999,2351467620
85,22,3,ISIP_8,106,9999,9999,9999,2352267352
85,22,3,ISIP_8,107,9999,9999,9999,2353067080
85,22,3,ISIP_8,108,9999,9999,9999,2353867856
85,22,3,ISIP_8,109,9999,9999,9999,2354667584
85,22,3,ISIP_8,110,9999,9999,9999,2355467312
85,22,3,ISIP_8,111,9999,9999,9999,2356267116
85,22,3,ISIP_8,112,9999,9999,9999,2357067840
85,22,3,ISIP_8,113,9999,9999,9999,2357867572
85,22,3,ISIP_8,114,9999,9999,9999,2358667376
85,22,3,ISIP_8,115,9999,9999,9999,2359467104
85,22,3,ISIP_8,116,9999,9999,9999,2360267880
85,22,3,ISIP_8,117,9999,9999,9999,2361067608
85,22,3,ISIP_8,118,9999,9999,9999,2361867340
85,22,3,ISIP_8,119,9999,9999,9999,2362667068
85,22,3,ISIP_8,120,9999,9999,9999,2363467868
85,22,3,ISIP_8,121,9999,9999,9999,2364267600
85,22,3,ISIP_8,122,9999,9999,9999,2365067328
85,22,3,ISIP_8,123,9999,9999,9999,2365867060
85,22,3,ISIP_8,124,9999,9999,9999,2366667832
85,22,3,ISIP_8,125,9999,9999,9999,2367467636
85,22,3,ISIP_8,126,9999,9999,9999,2368267368
85,22,3,ISIP_8,127,9999,9999,9999,2369067096
85,22,3,ISIP_8,128,9999,9999,9999,2369867824
85,22,3,ISIP_8,129,9999,9999,9999,2370667624
85,22,3,ISIP_8,130,9999,9999,9999,2371467356
85,22,3,ISIP_8,131,9999,9999,9999,2372267084
85,22,3,ISIP_8,132,9999,9999,9999,2373067860
85,22,3,ISIP_8,133,9999,9999,9999,2373867592
85,22,3,ISIP_8,134,9999,9999,9999,2374667316
85,22,3,ISIP_8,135,9999,9999,9999,2375467124
85,22,3,ISIP_8,136,9999,9999,9999,2376267848
85,22,3,ISIP_8,137,9999,9999,9999,2377067576
85,22,3,ISIP_8,138,9999,9999,9999,2377867324
85,22,3,ISIP_8,139,9999,9999,9999,2378667124
85,22,3,ISIP_8,140,9999,9999,9999,2379467828
85,22,3,ISIP_8,141,9999,9999,9999,2380267640
85,22,3,ISIP_8,142,9999,9999,9999,2381067368
85,22,3,ISIP_8,143,9999,9999,9999,2381867096
85,22,3,ISIP_8,144,9999,9999,9999,2382667824
85,22,3,ISIP_8,145,9999,9999,9999,2383467628
85,22,3,ISIP_8,146,9999,9999,9999,2384267356
85,22,3,ISIP_8,147,9999,9999,9999,2385067084
85,22,3,ISIP_8,148,9999,9999,9999,2385867860
85,22,3,ISIP_8,149,9999,9999,9999,2386667588
85,23,11,Pattern_Practice,0,5,42,127,2516041116
85,23,11,Pattern_Practice,1,5,42,127,2516540884
85,23,11,Pattern_Practice,2,5,42,127,2517040600
85,23,11,Pattern_Practice,3,5,42,127,2517541140
85,23,11,Pattern_Practice,4,5,42,127,2518040856
85,23,11,Pattern_Practice,5,5,42,127,2518540572
85,23,11,Pattern_Practice,6,1,48,33,2518959016
85,23,11,Pattern_Practice,7,5,42,127,2519041256
85,23,11,Pattern_Practice,8,1,48,25,2519501572
85,23,11,Pattern_Practice,9,5,42,127,2519541028
85,23,11,Pattern_Practice,10,1,48,33,2519882188
85,23,11,Pattern_Practice,11,5,42,127,2520040780
85,23,11,Pattern_Practice,12,1,48,34,2520048836
85,23,11,Pattern_Practice,13,5,42,127,2520540772
85,23,11,Pattern_Practice,14,1,48,31,2520548756
85,23,11,Pattern_Practice,15,1,48,35,2520885496
85,23,11,Pattern_Practice,16,5,42,127,2521041416
85,23,11,Pattern_Practice,17,1,48,32,2521060992
85,23,11,Pattern_Practice,18,5,42,127,2521541012
85,23,11,Pattern_Practice,19,1,48,34,2521552212
85,23,11,Pattern_Practice,20,1,48,35,2521910648
85,23,11,Pattern_Practice,21,5,42,127,2522040760
85,23,11,Pattern_Practice,22,1,48,34,2522316616
85,23,11,Pattern_Practice,23,1,48,35,2522502420
85,23,11,Pattern_Practice,24,5,42,127,2522541496
85,23,11,Pattern_Practice,25,1,48,37,2523033828
85,23,11,Pattern_Practice,26,5,42,127,2523041192
85,23,11,Pattern_Practice,27,1,48,31,2523508840
85,23,11,Pattern_Practice,28,5,42,127,2523540812
85,23,11,Pattern_Practice,29,1,48,32,2523873348
85,23,11,Pattern_Practice,30,5,42,127,2524040636
85,23,11,Pattern_Practice,31,1,48,37,2524060584
85,23,11,Pattern_Practice,32,5,42,127,2524541232
85,23,11,Pattern_Practice,33,1,48,36,2524574492
85,23,11,Pattern_Practice,34,1,48,26,2524879668
85,23,11,Pattern_Practice,35,5,42,127,2525040976
85,23,11,Pattern_Practice,36,1,48,30,2525081648
85,23,11,Pattern_Practice,37,1,48,33,2525365584
85,23,11,Pattern_Practice,38,5,42,127,2525540652
85,23,11,Pattern_Practice,39,1,48,27,2525548032
85,23,11,Pattern_Practice,40,1,48,35,2525867944
85,23,11,Pattern_Practice,41,5,42,127,2526040696
85,23,11,Pattern_Practice,42,1,48,28,2526288500
85,23,11,Pattern_Practice,43,1,48,23,2526523340
85,23,11,Pattern_Practice,44,5,42,127,2526541204
85,23,11,Pattern_Practice,45,1,48,21,2526904416
85,23,11,Pattern_Practice,46,5,42,127,2527041184
85,23,11,Pattern_Practice,47,1,48,26,2527085216
85,23,11,Pattern_Practice,48,5,42,127,2527540780
85,23,11,Pattern_Practice,49,1,48,38,2527547492
85,23,11,Pattern_Practice,50,1,48,32,2527865408
85,23,11,Pattern_Practice,51,5,42,127,2528041348
85,23,11,Pattern_Practice,52,1,48,39,2528044396
85,23,11,Pattern_Practice,53,1,48,29,2528510784
85,23,11,Pattern_Practice,54,5,42,127,2528541036
85,23,11,Pattern_Practice,55,1,48,22,2528875244
85,23,11,Pattern_Practice,56,5,42,127,2529040640
85,23,11,Pattern_Practice,57,1,48,24,2529045180
85,23,11,Pattern_Practice,58,1,48,38,2529206148
85,23,11,Pattern_Practice,59,1,48,22,2529407732
85,23,11,Pattern_Practice,60,5,42,127,2529540668
85,23,11,Pattern_Practice,61,1,48,32,2529572136
85,23,11,Pattern_Practice,62,1,48,40,2529894392
85,23,11,Pattern_Practice,63,5,42,127,2530041164
85,23,11,Pattern_Practice,64,1,48,37,2530323376
85,23,11,Pattern_Practice,65,5,42,127,2530541008
85,23,11,Pattern_Practice,66,1,48,20,2530571576
85,23,11,Pattern_Practice,67,1,48,43,2530647200
85,23,11,Pattern_Practice,68,1,48,28,2530860428
85,23,11,Pattern_Practice,69,1,48,30,2530992672
85,23,11,Pattern_Practice,70,5,42,127,2531040576
85,23,11,Pattern_Practice,71,1,48,32,2531434996
85,23,11,Pattern_Practice,72,5,42,127,2531541304
85,23,11,Pattern_Practice,73,1,48,40,2531845656
85,23,11,Pattern_Practice,74,5,42,127,2532040996
85,23,11,Pattern_Practice,75,1,48,31,2532362776
85,23,11,Pattern_Practice,76,5,42,127,2532540768
85,23,11,Pattern_Practice,77,1,48,34,2532909224
85,23,11,Pattern_Practice,78,5,42,127,2533040608
85,23,11,Pattern_Practice,79,1,48,45,2533110000
85,23,11,Pattern_Practice,80,1,48,36,2533316516
85,23,11,Pattern_Practice,81,1,48,36,2533481900
85,23,11,Pattern_Practice,82,5,42,127,2533541320
85,23,11,Pattern_Practice,83,1,48,46,2533629996
85,23,11,Pattern_Practice,84,1,48,42,2533944452
85,23,11,Pattern_Practice,85,5,42,127,2534040920
85,23,11,Pattern_Practice,86,1,48,41,2534139540
85,23,11,Pattern_Practice,87,5,42,127,2534540748
85,23,11,Pattern_Practice,88,1,48,35,2534644100
85,23,11,Pattern_Practice,89,5,42,127,2535041416
85,23,11,Pattern_Practice,90,1,48,35,2535094052
85,23,11,Pattern_Practice,91,5,42,127,2535540960
85,23,11,Pattern_Practice,92,1,48,37,2535581476
85,23,11,Pattern_Practice,93,1,48,29,2535905804
85,23,11,Pattern_Practice,94,5,42,127,2536040856
85,23,11,Pattern_Practice,95,1,48,40,2536368476
85,23,11,Pattern_Practice,96,5,42,127,2536540552
85,23,11,Pattern_Practice,97,1,48,34,2536558180
85,23,11,Pattern_Practice,98,5,42,127,2537041364
85,23,11,Pattern_Practice,99,1,48,29,2537053316
85,23,11,Pattern_Practice,100,1,48,35,2537301644
85,23,11,Pattern_Practice,101,1,48,29,2537506268
85,23,11,Pattern_Practice,102,5,42,127,2537540884
85,23,11,Pattern_Practice,103,1,48,40,2537926228
85,23,11,Pattern_Practice,104,5,42,127,2538040612
85,23,11,Pattern_Practice,105,1,48,36,2538087812
85,23,11,Pattern_Practice,106,1,48,42,2538446468
85,23,11,Pattern_Practice,107,5,42,127,2538542380
85,23,11,Pattern_Practice,108,1,48,23,2538627204
85,23,11,Pattern_Practice,109,1,48,40,2539031264
85,23,11,Pattern_Practice,110,5,42,127,2539041244
85,23,11,Pattern_Practice,111,1,48,33,2539483688
85,23,11,Pattern_Practice,112,5,42,127,2539540864
85,23,11,Pattern_Practice,113,1,48,40,2539899060
85,23,11,Pattern_Practice,114,5,42,127,2540040520
85,23,11,Pattern_Practice,115,1,48,33,2540348384
85,23,11,Pattern_Practice,116,1,48,40,2540512276
85,23,11,Pattern_Practice,117,5,42,127,2540541328
85,23,11,Pattern_Practice,118,1,48,32,2540904932
85,23,11,Pattern_Practice,119,5,42,127,2541040932
85,23,11,Pattern_Practice,120,1,48,41,2541359948
85,23,11,Pattern_Practice,121,5,42,127,2541540704
85,23,11,Pattern_Practice,122,1,48,32,2541549584
85,23,11,Pattern_Practice,123,1,48,42,2541860216
85,23,11,Pattern_Practice,124,5,42,127,2542040376
85,23,11,Pattern_Practice,125,1,48,42,2542355124
85,23,11,Pattern_Practice,126,5,42,127,2542541264
85,23,11,Pattern_Practice,127,1,48,33,2542581184
85,23,11,Pattern_Practice,128,1,48,40,2542898776
85,23,11,Pattern_Practice,129,5,42,127,2543041012
85,23,11,Pattern_Practice,130,1,48,28,2543092520
85,23,11,Pattern_Practice,131,1,48,38,2543426372
85,23,11,Pattern_Practice,132,5,42,127,2543540608
85,23,11,Pattern_Practice,133,1,48,40,2543887000
85,23,11,Pattern_Practice,134,5,42,127,2544041276
85,23,11,Pattern_Practice,135,1,48,43,2544348400
85,23,11,Pattern_Practice,136,5,42,127,2544541196
85,23,11,Pattern_Practice,137,1,48,37,2544546484
85,23,11,Pattern_Practice,138,5,42,127,2545040740
85,23,11,Pattern_Practice,139,1,48,34,2545046556
85,23,11,Pattern_Practice,140,1,48,40,2545245296
85,23,11,Pattern_Practice,141,1,48,26,2545454928
85,23,11,Pattern_Practice,142,5,42,127,2545540404
85,23,11,Pattern_Practice,143,1,48,35,2545577168
85,23,11,Pattern_Practice,144,1,48,44,2545943008
85,23,11,Pattern_Practice,145,5,42,127,2546041332
85,23,11,Pattern_Practice,146,1,48,38,2546092920
85,23,11,Pattern_Practice,147,5,42,127,2546540876
85,23,11,Pattern_Practice,148,1,48,34,2546567188
85,23,11,Pattern_Practice,149,1,48,38,2546997280
85,23,11,Pattern_Practice,150,5,42,127,2547040644
85,23,11,Pattern_Practice,151,1,48,38,2547496004
85,23,11,Pattern_Practice,152,5,42,127,2547541312
85,23,11,Pattern_Practice,153,1,48,47,2547942884
85,23,11,Pattern_Practice,154,5,42,127,2548041300
85,23,11,Pattern_Practice,155,1,48,46,2548354396
85,23,11,Pattern_Practice,156,5,42,127,2548540736
85,23,11,Pattern_Practice,157,1,48,35,2548542748
85,23,11,Pattern_Practice,158,5,42,127,2549040500
85,23,11,Pattern_Practice,159,1,48,54,2549054844
85,23,11,Pattern_Practice,160,1,38,38,2549523176
85,23,11,Pattern_Practice,161,5,42,127,2549541164
85,23,11,Pattern_Practice,162,1,38,49,2549840068
85,23,11,Pattern_Practice,163,5,42,127,2550041140
85,23,11,Pattern_Practice,164,1,38,56,2550327472
85,23,11,Pattern_Practice,165,1,38,58,2550475572
85,23,11,Pattern_Practice,166,5,42,127,2550540756
85,23,11,Pattern_Practice,167,1,38,84,2551022164
85,23,11,Pattern_Practice,168,5,42,127,2551041276
85,23,11,Pattern_Practice,169,5,42,127,2551541200
85,23,11,Pattern_Practice,170,1,48,62,2552027636
85,23,11,Pattern_Practice,171,5,42,127,2552040836
85,23,11,Pattern_Practice,172,5,42,127,2552540388
85,23,11,Pattern_Practice,173,1,48,50,2553035424
85,23,11,Pattern_Practice,174,5,42,127,2553041220
85,23,11,Pattern_Practice,175,1,48,63,2553416268
85,23,11,Pattern_Practice,176,5,42,127,2553541272
85,23,11,Pattern_Practice,177,1,38,46,2553619040
85,23,11,Pattern_Practice,178,1,48,54,2553935020
85,23,11,Pattern_Practice,179,5,42,127,2554040576
85,23,11,Pattern_Practice,180,1,48,49,2554343884
85,23,11,Pattern_Practice,181,5,42,127,2554541316
85,23,11,Pattern_Practice,182,1,38,50,2554551164
85,23,11,Pattern_Practice,183,1,48,49,2555012992
85,23,11,Pattern_Practice,184,5,42,127,2555041228
85,23,11,Pattern_Practice,185,1,48,47,2555348260
85,23,11,Pattern_Practice,186,5,42,127,2555541056
85,23,11,Pattern_Practice,187,1,38,52,2555543068
85,23,11,Pattern_Practice,188,1,48,54,2555876280
85,23,11,Pattern_Practice,0,9999,9999,9999,2516038756
85,23,11,Pattern_Practice,1,9999,9999,9999,2516538448
85,23,11,Pattern_Practice,2,9999,9999,9999,2517038164
85,23,11,Pattern_Practice,3,9999,9999,9999,2517538928
85,23,11,Pattern_Practice,4,9999,9999,9999,2518038644
85,23,11,Pattern_Practice,5,9999,9999,9999,2518538360
85,23,11,Pattern_Practice,6,9999,9999,9999,2519039044
85,23,11,Pattern_Practice,7,9999,9999,9999,2519538740
85,23,11,Pattern_Practice,8,9999,9999,9999,2520038492
85,23,11,Pattern_Practice,9,9999,9999,9999,2520538188
85,23,11,Pattern_Practice,10,9999,9999,9999,2521038904
85,23,11,Pattern_Practice,11,9999,9999,9999,2521538652
85,23,11,Pattern_Practice,12,9999,9999,9999,2522038324
85,23,11,Pattern_Practice,13,9999,9999,9999,2522539060
85,23,11,Pattern_Practice,14,9999,9999,9999,2523038828
85,23,11,Pattern_Practice,15,9999,9999,9999,2523538524
85,23,11,Pattern_Practice,16,9999,9999,9999,2524038200
85,23,11,Pattern_Practice,17,9999,9999,9999,2524538944
85,23,11,Pattern_Practice,18,9999,9999,9999,2525038688
85,23,11,Pattern_Practice,19,9999,9999,9999,2525538364
85,23,11,Pattern_Practice,20,9999,9999,9999,2526038112
85,23,11,Pattern_Practice,21,9999,9999,9999,2526538844
85,23,11,Pattern_Practice,22,9999,9999,9999,2527038572
85,23,11,Pattern_Practice,23,9999,9999,9999,2527538268
85,23,11,Pattern_Practice,24,9999,9999,9999,2528038988
85,23,11,Pattern_Practice,25,9999,9999,9999,2528538676
85,23,11,Pattern_Practice,26,9999,9999,9999,2529038428
85,23,11,Pattern_Practice,27,9999,9999,9999,2529538156
85,23,11,Pattern_Practice,28,9999,9999,9999,2530038876
85,23,11,Pattern_Practice,29,9999,9999,9999,2530538568
85,23,11,Pattern_Practice,30,9999,9999,9999,2531038288
85,23,11,Pattern_Practice,31,9999,9999,9999,2531539016
85,23,11,Pattern_Practice,32,9999,9999,9999,2532038708
85,23,11,Pattern_Practice,33,9999,9999,9999,2532538480
85,23,11,Pattern_Practice,34,9999,9999,9999,2533038172
85,23,11,Pattern_Practice,35,9999,9999,9999,2533538888
85,23,11,Pattern_Practice,36,9999,9999,9999,2534038632
85,23,11,Pattern_Practice,37,9999,9999,9999,2534538312
85,23,11,Pattern_Practice,38,9999,9999,9999,2535039052
85,23,11,Pattern_Practice,39,9999,9999,9999,2535538748
85,23,11,Pattern_Practice,40,9999,9999,9999,2536038496
85,23,11,Pattern_Practice,41,9999,9999,9999,2536538188
85,23,11,Pattern_Practice,42,9999,9999,9999,2537038928
85,23,11,Pattern_Practice,43,9999,9999,9999,2537538672
85,23,11,Pattern_Practice,44,9999,9999,9999,2538038324
85,23,11,Pattern_Practice,45,9999,9999,9999,2538539060
85,23,11,Pattern_Practice,46,9999,9999,9999,2539038808
85,23,11,Pattern_Practice,47,9999,9999,9999,2539538504
85,23,11,Pattern_Practice,48,9999,9999,9999,2540038232
85,23,11,Pattern_Practice,49,9999,9999,9999,2540538968
85,23,11,Pattern_Practice,50,9999,9999,9999,2541038644
85,23,11,Pattern_Practice,51,9999,9999,9999,2541538416
85,23,11,Pattern_Practice,52,9999,9999,9999,2542038088
85,23,11,Pattern_Practice,53,9999,9999,9999,2542538828
85,23,11,Pattern_Practice,54,9999,9999,9999,2543038576
85,23,11,Pattern_Practice,55,9999,9999,9999,2543538248
85,23,11,Pattern_Practice,56,9999,9999,9999,2544038988
85,23,11,Pattern_Practice,57,9999,9999,9999,2544538684
85,23,11,Pattern_Practice,58,9999,9999,9999,2545038452
85,23,11,Pattern_Practice,59,9999,9999,9999,2545538120
85,23,11,Pattern_Practice,60,9999,9999,9999,2546038896
85,23,11,Pattern_Practice,61,9999,9999,9999,2546538592
85,23,11,Pattern_Practice,62,9999,9999,9999,2547038280
85,23,11,Pattern_Practice,63,9999,9999,9999,2547539024
85,23,11,Pattern_Practice,64,9999,9999,9999,2548038716
85,23,11,Pattern_Practice,65,9999,9999,9999,2548538448
85,23,11,Pattern_Practice,66,9999,9999,9999,2549038140
85,23,11,Pattern_Practice,67,9999,9999,9999,2549538876
85,23,11,Pattern_Practice,68,9999,9999,9999,2550038632
85,23,11,Pattern_Practice,69,9999,9999,9999,2550538320
85,23,11,Pattern_Practice,70,9999,9999,9999,2551039060
85,23,11,Pattern_Practice,71,9999,9999,9999,2551538764
85,23,11,Pattern_Practice,72,9999,9999,9999,2552038476
85,23,11,Pattern_Practice,73,9999,9999,9999,2552538176
85,23,11,Pattern_Practice,74,9999,9999,9999,2553038932
85,23,11,Pattern_Practice,75,9999,9999,9999,2553538612
85,23,11,Pattern_Practice,76,9999,9999,9999,2554038360
85,23,11,Pattern_Practice,77,9999,9999,9999,2554539104
85,23,11,Pattern_Practice,78,9999,9999,9999,2555038792
85,23,11,Pattern_Practice,79,9999,9999,9999,2555538548
85,24,13,Improv_Metronome,0,5,42,127,2595616312
85,24,13,Improv_Metronome,1,5,42,127,2596115804
85,24,13,Improv_Metronome,2,5,42,127,2596615524
85,24,13,Improv_Metronome,3,5,42,127,2597116360
85,24,13,Improv_Metronome,4,5,42,127,2597615928
85,24,13,Improv_Metronome,5,1,48,46,2597888640
85,24,13,Improv_Metronome,6,5,42,127,2598115548
85,24,13,Improv_Metronome,7,5,42,127,2598616388
85,24,13,Improv_Metronome,8,5,42,127,2599116252
85,24,13,Improv_Metronome,9,5,42,127,2599615820
85,24,13,Improv_Metronome,10,5,42,127,2600115536
85,24,13,Improv_Metronome,11,5,42,127,2600616224
85,24,13,Improv_Metronome,12,5,42,127,2601115944
85,24,13,Improv_Metronome,13,1,48,38,2601604020
85,24,13,Improv_Metronome,14,5,42,127,2601615728
85,24,13,Improv_Metronome,15,1,48,41,2602102000
85,24,13,Improv_Metronome,16,5,42,127,2602115348
85,24,13,Improv_Metronome,17,5,42,127,2602616168
85,24,13,Improv_Metronome,18,1,48,39,2602622356
85,24,13,Improv_Metronome,19,5,42,127,2603115792
85,24,13,Improv_Metronome,20,1,48,38,2603142092
85,24,13,Improv_Metronome,21,1,48,39,2603579288
85,24,13,Improv_Metronome,22,5,42,127,2603615552
85,24,13,Improv_Metronome,23,1,48,34,2603977484
85,24,13,Improv_Metronome,24,1,48,30,2604107560
85,24,13,Improv_Metronome,25,5,42,127,2604116272
85,24,13,Improv_Metronome,26,1,48,41,2604459880
85,24,13,Improv_Metronome,27,5,42,127,2604616100
85,24,13,Improv_Metronome,28,1,48,41,2604626552
85,24,13,Improv_Metronome,29,1,48,18,2604713220
85,24,13,Improv_Metronome,30,1,48,47,2605070304
85,24,13,Improv_Metronome,31,5,42,127,2605115744
85,24,13,Improv_Metronome,32,5,42,127,2605615444
85,24,13,Improv_Metronome,33,1,48,49,2605636616
85,24,13,Improv_Metronome,34,1,48,57,2605788656
85,24,13,Improv_Metronome,35,1,48,56,2605965484
85,24,13,Improv_Metronome,36,5,42,127,2606116144
85,24,13,Improv_Metronome,37,1,48,51,2606152124
85,24,13,Improv_Metronome,38,1,48,48,2606473608
85,24,13,Improv_Metronome,39,5,42,127,2606616040
85,24,13,Improv_Metronome,40,1,48,48,2606663164
85,24,13,Improv_Metronome,41,1,48,54,2607102008
85,24,13,Improv_Metronome,42,5,42,127,2607115652
85,24,13,Improv_Metronome,43,1,48,40,2607546724
85,24,13,Improv_Metronome,44,5,42,127,2607616320
85,24,13,Improv_Metronome,45,1,48,46,2608032428
85,24,13,Improv_Metronome,46,5,42,127,2608116164
85,24,13,Improv_Metronome,47,1,48,50,2608573112
85,24,13,Improv_Metronome,48,5,42,127,2608616008
85,24,13,Improv_Metronome,49,1,48,32,2609080960
85,24,13,Improv_Metronome,50,5,42,127,2609115552
85,24,13,Improv_Metronome,51,1,48,53,2609441432
85,24,13,Improv_Metronome,52,1,48,46,2609592380
85,24,13,Improv_Metronome,53,5,42,127,2609616124
85,24,13,Improv_Metronome,54,1,48,57,2609952924
85,24,13,Improv_Metronome,55,5,42,127,2610116024
85,24,13,Improv_Metronome,56,1,48,36,2610125056
85,24,13,Improv_Metronome,57,1,48,53,2610240620
85,24,13,Improv_Metronome,58,1,48,48,2610421676
85,24,13,Improv_Metronome,59,1,48,51,2610571124
85,24,13,Improv_Metronome,60,5,42,127,2610615592
85,24,13,Improv_Metronome,61,1,48,45,2611019508
85,24,13,Improv_Metronome,62,5,42,127,2611116396
85,24,13,Improv_Metronome,63,1,48,49,2611558628
85,24,13,Improv_Metronome,64,5,42,127,2611616104
85,24,13,Improv_Metronome,65,1,48,47,2611923952
85,24,13,Improv_Metronome,66,1,48,43,2612110728
85,24,13,Improv_Metronome,67,5,42,127,2612115924
85,24,13,Improv_Metronome,68,1,48,43,2612210808
85,24,13,Improv_Metronome,69,1,48,51,2612425180
85,24,13,Improv_Metronome,70,1,48,52,2612540196
85,24,13,Improv_Metronome,71,5,42,127,2612615552
85,24,13,Improv_Metronome,72,5,42,127,2613116228
85,24,13,Improv_Metronome,73,1,48,42,2613430900
85,24,13,Improv_Metronome,74,1,48,40,2613597028
85,24,13,Improv_Metronome,75,5,42,127,2613616212
85,24,13,Improv_Metronome,76,1,48,54,2613947556
85,24,13,Improv_Metronome,77,5,42,127,2614115668
85,24,13,Improv_Metronome,78,1,48,25,2614131132
85,24,13,Improv_Metronome,79,1,48,58,2614479992
85,24,13,Improv_Metronome,80,1,48,20,2614589800
85,24,13,Improv_Metronome,81,5,42,127,2614616536
85,24,13,Improv_Metronome,82,1,38,42,2614690696
85,24,13,Improv_Metronome,83,5,42,127,2615116216
85,24,13,Improv_Metronome,84,1,48,61,2615155460
85,24,13,Improv_Metronome,85,5,42,127,2615615912
85,24,13,Improv_Metronome,86,1,48,45,2615642368
85,24,13,Improv_Metronome,87,5,42,127,2616115580
85,24,13,Improv_Metronome,88,1,48,65,2616125680
85,24,13,Improv_Metronome,89,1,38,48,2616585392
85,24,13,Improv_Metronome,90,5,42,127,2616616164
85,24,13,Improv_Metronome,91,1,48,41,2617020304
85,24,13,Improv_Metronome,92,5,42,127,2617115996
85,24,13,Improv_Metronome,93,1,48,48,2617616232
85,24,13,Improv_Metronome,94,5,42,127,2617617500
85,24,13,Improv_Metronome,95,1,38,35,2617626448
85,24,13,Improv_Metronome,96,1,48,38,2618076288
85,24,13,Improv_Metronome,97,5,42,127,2618115288
85,24,13,Improv_Metronome,98,1,48,55,2618460268
85,24,13,Improv_Metronome,99,5,42,127,2618616240
85,24,13,Improv_Metronome,100,1,48,25,2618633116
85,24,13,Improv_Metronome,101,1,38,54,2618638636
85,24,13,Improv_Metronome,102,1,48,48,2619089812
85,24,13,Improv_Metronome,103,5,42,127,2619116104
85,24,13,Improv_Metronome,104,1,48,57,2619606568
85,24,13,Improv_Metronome,105,5,42,127,2619615724
85,24,13,Improv_Metronome,106,1,38,52,2619628792
85,24,13,Improv_Metronome,107,1,48,51,2619857964
85,24,13,Improv_Metronome,108,1,38,49,2620035388
85,24,13,Improv_Metronome,109,5,42,127,2620116200
85,24,13,Improv_Metronome,110,1,48,59,2620245736
85,24,13,Improv_Metronome,111,1,48,51,2620578736
85,24,13,Improv_Metronome,112,5,42,127,2620616096
85,24,13,Improv_Metronome,113,5,42,127,2621115948
85,24,13,Improv_Metronome,114,1,48,54,2621244376
85,24,13,Improv_Metronome,115,5,42,127,2621615568
85,24,13,Improv_Metronome,116,1,48,49,2621674484
85,24,13,Improv_Metronome,117,5,42,127,2622116308
85,24,13,Improv_Metronome,118,1,48,41,2622167672
85,24,13,Improv_Metronome,119,1,48,56,2622566448
85,24,13,Improv_Metronome,120,5,42,127,2622615996
85,24,13,Improv_Metronome,121,1,38,58,2622648284
85,24,13,Improv_Metronome,122,5,42,127,2623115812
85,24,13,Improv_Metronome,123,1,48,54,2623116780
85,24,13,Improv_Metronome,124,1,48,51,2623616188
85,24,13,Improv_Metronome,125,5,42,127,2623617524
85,24,13,Improv_Metronome,126,1,38,54,2624103872
85,24,13,Improv_Metronome,127,5,42,127,2624116024
85,24,13,Improv_Metronome,128,1,48,62,2624572224
85,24,13,Improv_Metronome,129,5,42,127,2624615940
85,24,13,Improv_Metronome,130,1,48,40,2625109616
85,24,13,Improv_Metronome,131,5,42,127,2625115936
85,24,13,Improv_Metronome,132,1,48,56,2625597048
85,24,13,Improv_Metronome,133,5,42,127,2625616156
85,24,13,Improv_Metronome,134,1,48,55,2626095968
85,24,13,Improv_Metronome,135,1,38,47,2626098492
85,24,13,Improv_Metronome,136,5,42,127,2626115904
85,24,13,Improv_Metronome,137,1,48,49,2626598384
85,24,13,Improv_Metronome,138,5,42,127,2626615920
85,24,13,Improv_Metronome,139,1,48,53,2626991040
85,24,13,Improv_Metronome,140,1,48,38,2627086984
85,24,13,Improv_Metronome,141,5,42,127,2627116268
85,24,13,Improv_Metronome,142,1,48,58,2627590276
85,24,13,Improv_Metronome,143,5,42,127,2627616036
85,24,13,Improv_Metronome,144,1,48,54,2628101932
85,24,13,Improv_Metronome,145,5,42,127,2628115956
85,24,13,Improv_Metronome,146,1,48,57,2628483452
85,24,13,Improv_Metronome,147,5,42,127,2628615788
85,24,13,Improv_Metronome,148,1,38,48,2628648600
85,24,13,Improv_Metronome,149,1,48,59,2629115256
85,24,13,Improv_Metronome,150,5,42,127,2629116892
85,24,13,Improv_Metronome,151,1,48,56,2629592844
85,24,13,Improv_Metronome,152,5,42,127,2629615920
85,24,13,Improv_Metronome,153,5,42,127,2630115916
85,24,13,Improv_Metronome,154,1,48,48,2630118288
85,24,13,Improv_Metronome,155,1,48,58,2630473980
85,24,13,Improv_Metronome,156,1,48,57,2630587048
85,24,13,Improv_Metronome,157,5,42,127,2630616480
85,24,13,Improv_Metronome,158,1,48,43,2630931288
85,24,13,Improv_Metronome,159,1,48,38,2631071764
85,24,13,Improv_Metronome,160,5,42,127,2631116080
85,24,13,Improv_Metronome,161,1,48,53,2631386236
85,24,13,Improv_Metronome,162,1,48,55,2631536280
85,24,13,Improv_Metronome,163,5,42,127,2631615976
85,24,13,Improv_Metronome,164,1,48,64,2631846788
85,24,13,Improv_Metronome,165,1,48,54,2632045532
85,24,13,Improv_Metronome,166,5,42,127,2632115728
85,24,13,Improv_Metronome,167,1,48,61,2632533184
85,24,13,Improv_Metronome,168,5,42,127,2632616244
85,24,13,Improv_Metronome,169,1,48,47,2633025552
85,24,13,Improv_Metronome,170,5,42,127,2633115940
85,24,13,Improv_Metronome,171,1,48,40,2633436584
85,24,13,Improv_Metronome,172,1,48,55,2633589688
85,24,13,Improv_Metronome,173,5,42,127,2633615904
85,24,13,Improv_Metronome,174,1,48,51,2633765460
85,24,13,Improv_Metronome,175,1,48,45,2633938396
85,24,13,Improv_Metronome,176,1,48,44,2634024544
85,24,13,Improv_Metronome,177,5,42,127,2634115404
85,24,13,Improv_Metronome,178,1,48,54,2634418844
85,24,13,Improv_Metronome,179,1,48,44,2634599860
85,24,13,Improv_Metronome,180,5,42,127,2634616200
85,24,13,Improv_Metronome,181,1,48,48,2635077188
85,24,13,Improv_Metronome,182,5,42,127,2635115744
85,24,13,Improv_Metronome,183,1,48,45,2635523080
85,24,13,Improv_Metronome,184,5,42,127,2635615736
85,24,13,Improv_Metronome,185,1,48,60,2635682048
85,24,13,Improv_Metronome,186,1,48,59,2636061948
85,24,13,Improv_Metronome,187,5,42,127,2636116456
85,24,13,Improv_Metronome,188,1,48,58,2636547280
85,24,13,Improv_Metronome,189,5,42,127,2636616000
85,24,13,Improv_Metronome,190,1,48,52,2637107856
85,24,13,Improv_Metronome,191,5,42,127,2637115920
85,24,13,Improv_Metronome,192,1,48,57,2637491392
85,24,13,Improv_Metronome,193,5,42,127,2637615500
85,24,13,Improv_Metronome,194,1,48,54,2637654024
85,24,13,Improv_Metronome,195,1,48,69,2637811300
85,24,13,Improv_Metronome,196,1,48,57,2637966808
85,24,13,Improv_Metronome,197,5,42,127,2638116124
85,24,13,Improv_Metronome,198,1,48,73,2638126724
85,24,13,Improv_Metronome,199,1,38,74,2638581820
85,24,13,Improv_Metronome,200,5,42,127,2638615888
85,24,13,Improv_Metronome,201,1,38,79,2639057428
85,24,13,Improv_Metronome,202,5,42,127,2639115656
85,24,13,Improv_Metronome,203,1,48,59,2639588468
85,24,13,Improv_Metronome,204,5,42,127,2639616472
85,24,13,Improv_Metronome,205,1,48,59,2639711076
85,24,13,Improv_Metronome,206,1,48,44,2639890124
85,24,13,Improv_Metronome,207,1,48,59,2640027528
85,24,13,Improv_Metronome,208,5,42,127,2640115976
85,24,13,Improv_Metronome,209,1,48,60,2640404684
85,24,13,Improv_Metronome,210,1,48,59,2640605664
85,24,13,Improv_Metronome,211,5,42,127,2640615872
85,24,13,Improv_Metronome,212,5,42,127,2641115424
85,24,13,Improv_Metronome,213,1,48,60,2641430100
85,24,13,Improv_Metronome,214,1,48,44,2641611936
85,24,13,Improv_Metronome,215,5,42,127,2641616156
85,24,13,Improv_Metronome,216,1,48,40,2641778832
85,24,13,Improv_Metronome,217,1,48,42,2641950616
85,24,13,Improv_Metronome,218,1,48,59,2642096028
85,24,13,Improv_Metronome,219,5,42,127,2642115960
85,24,13,Improv_Metronome,220,1,48,54,2642389700
85,24,13,Improv_Metronome,221,1,48,35,2642607592
85,24,13,Improv_Metronome,222,5,42,127,2642615632
85,24,13,Improv_Metronome,223,1,48,49,2642742452
85,24,13,Improv_Metronome,224,1,48,44,2642932732
85,24,13,Improv_Metronome,225,1,48,50,2643089068
85,24,13,Improv_Metronome,226,5,42,127,2643116628
85,24,13,Improv_Metronome,227,1,48,65,2643486044
85,24,13,Improv_Metronome,228,5,42,127,2643616084
85,24,13,Improv_Metronome,229,1,48,43,2643693324
85,24,13,Improv_Metronome,230,1,48,51,2643795576
85,24,13,Improv_Metronome,231,1,48,37,2643961156
85,24,13,Improv_Metronome,232,1,48,49,2644071712
85,24,13,Improv_Metronome,233,5,42,127,2644115724
85,24,13,Improv_Metronome,234,1,48,51,2644215764
85,24,13,Improv_Metronome,235,1,48,57,2644359828
85,24,13,Improv_Metronome,236,1,48,51,2644535880
85,24,13,Improv_Metronome,237,5,42,127,2644615452
85,24,13,Improv_Metronome,238,1,48,54,2644652808
85,24,13,Improv_Metronome,239,1,48,60,2644830536
85,24,13,Improv_Metronome,240,5,42,127,2645116232
85,24,13,Improv_Metronome,241,1,48,46,2645226836
85,24,13,Improv_Metronome,242,1,48,52,2645423332
85,24,13,Improv_Metronome,243,5,42,127,2645615904
85,24,13,Improv_Metronome,244,5,42,127,2646115620
85,24,13,Improv_Metronome,245,1,48,28,2646512420
85,24,13,Improv_Metronome,246,5,42,127,2646616584
85,24,13,Improv_Metronome,247,1,48,42,2646996260
85,24,13,Improv_Metronome,248,5,42,127,2647116128
85,24,13,Improv_Metronome,249,1,48,54,2647544572
85,24,13,Improv_Metronome,250,5,42,127,2647615840
85,24,13,Improv_Metronome,251,1,48,14,2647691276
85,24,13,Improv_Metronome,252,1,48,43,2647952544
85,24,13,Improv_Metronome,253,1,48,45,2648057388
85,24,13,Improv_Metronome,254,5,42,127,2648115540
85,24,13,Improv_Metronome,255,1,48,44,2648522672
85,24,13,Improv_Metronome,256,5,42,127,2648616564
85,24,13,Improv_Metronome,257,1,48,51,2648669748
85,24,13,Improv_Metronome,258,5,42,127,2649115888
85,24,13,Improv_Metronome,259,1,48,51,2649142940
85,24,13,Improv_Metronome,260,1,48,47,2649543432
85,24,13,Improv_Metronome,261,5,42,127,2649615652
85,24,13,Improv_Metronome,262,1,48,50,2649690288
85,24,13,Improv_Metronome,263,5,42,127,2650115480
85,24,13,Improv_Metronome,264,1,48,46,2650607448
85,24,13,Improv_Metronome,265,5,42,127,2650616460
85,24,13,Improv_Metronome,266,1,48,42,2650766864
85,24,13,Improv_Metronome,267,1,48,44,2651073460
85,24,13,Improv_Metronome,268,5,42,127,2651115760
85,24,13,Improv_Metronome,269,1,48,49,2651215152
85,24,13,Improv_Metronome,270,1,48,42,2651538508
85,24,13,Improv_Metronome,271,5,42,127,2651615580
85,24,13,Improv_Metronome,272,1,48,55,2651703508
85,24,13,Improv_Metronome,273,5,42,127,2652116604
85,24,13,Improv_Metronome,274,1,48,43,2652130796
85,24,13,Improv_Metronome,275,1,48,46,2652441284
85,24,13,Improv_Metronome,276,1,48,46,2652592456
85,24,13,Improv_Metronome,277,5,42,127,2652615900
85,24,13,Improv_Metronome,278,1,48,40,2652728508
85,24,13,Improv_Metronome,279,1,48,44,2652938396
85,24,13,Improv_Metronome,280,1,48,48,2653048792
85,24,13,Improv_Metronome,281,5,42,127,2653115704
85,24,13,Improv_Metronome,282,1,48,50,2653388772
85,24,13,Improv_Metronome,283,1,48,59,2653550336
85,24,13,Improv_Metronome,284,5,42,127,2653615596
85,24,13,Improv_Metronome,285,1,48,33,2654013304
85,24,13,Improv_Metronome,286,5,42,127,2654116472
85,24,13,Improv_Metronome,287,1,48,37,2654396668
85,24,13,Improv_Metronome,288,1,48,49,2654593392
85,24,13,Improv_Metronome,289,5,42,127,2654615864
85,24,13,Improv_Metronome,290,1,48,33,2655079316
85,24,13,Improv_Metronome,291,5,42,127,2655115556
85,24,13,Improv_Metronome,292,1,48,49,2655502992
85,24,13,Improv_Metronome,293,5,42,127,2655616580
85,24,13,Improv_Metronome,294,1,48,46,2655986308
85,24,13,Improv_Metronome,295,5,42,127,2656116052
85,24,13,Improv_Metronome,296,1,48,52,2656598524
85,24,13,Improv_Metronome,297,5,42,127,2656615836
85,24,13,Improv_Metronome,298,1,48,46,2656840892
85,24,13,Improv_Metronome,299,1,48,43,2656971388
85,24,13,Improv_Metronome,300,5,42,127,2657115496
85,24,13,Improv_Metronome,301,1,48,56,2657159680
85,24,13,Improv_Metronome,302,1,48,54,2657511080
85,24,13,Improv_Metronome,303,5,42,127,2657616440
85,24,13,Improv_Metronome,304,1,48,50,2657694280
85,24,13,Improv_Metronome,305,5,42,127,2658115912
85,24,13,Improv_Metronome,306,1,48,58,2658194276
85,24,13,Improv_Metronome,307,5,42,127,2658615656
85,24,13,Improv_Metronome,308,1,48,37,2658676820
85,24,13,Improv_Metronome,309,1,38,56,2658695276
85,24,13,Improv_Metronome,310,5,42,127,2659116400
85,24,13,Improv_Metronome,311,1,38,54,2659166740
85,24,13,Improv_Metronome,312,1,48,49,2659180856
85,24,13,Improv_Metronome,313,5,42,127,2659616196
85,24,13,Improv_Metronome,314,1,48,38,2659629264
85,24,13,Improv_Metronome,315,1,48,51,2660021532
85,24,13,Improv_Metronome,316,5,42,127,2660115956
85,24,13,Improv_Metronome,317,1,48,53,2660182068
85,24,13,Improv_Metronome,318,5,42,127,2660615640
85,24,13,Improv_Metronome,319,1,38,44,2660643812
85,24,13,Improv_Metronome,320,1,38,61,2660663840
85,24,13,Improv_Metronome,321,1,38,51,2660926932
85,24,13,Improv_Metronome,322,1,38,67,2661061468
85,24,13,Improv_Metronome,323,5,42,127,2661116256
85,24,13,Improv_Metronome,324,1,38,78,2661214680
85,24,13,Improv_Metronome,325,1,38,71,2661366796
85,24,13,Improv_Metronome,326,1,38,59,2661504724
85,24,13,Improv_Metronome,327,5,42,127,2661615968
85,24,13,Improv_Metronome,328,1,38,90,2661771172
85,24,13,Improv_Metronome,329,5,42,127,2662115588
85,24,13,Improv_Metronome,330,5,42,127,2662616424
85,24,13,Improv_Metronome,331,1,38,63,2662640864
85,24,13,Improv_Metronome,332,1,38,51,2663085116
85,24,13,Improv_Metronome,333,5,42,127,2663116112
85,24,13,Improv_Metronome,334,1,38,41,2663492356
85,24,13,Improv_Metronome,335,1,38,64,2663612012
85,24,13,Improv_Metronome,336,5,42,127,2663615716
85,24,13,Improv_Metronome,337,1,38,38,2664077676
85,24,13,Improv_Metronome,338,1,38,37,2664109740
85,24,13,Improv_Metronome,339,5,42,127,2664115612
85,24,13,Improv_Metronome,340,1,38,59,2664575256
85,24,13,Improv_Metronome,341,5,42,127,2664616428
85,24,13,Improv_Metronome,342,1,38,51,2665075472
85,24,13,Improv_Metronome,343,5,42,127,2665116196
85,24,13,Improv_Metronome,344,1,38,51,2665572700
85,24,13,Improv_Metronome,0,9999,9999,9999,2595613804
85,24,13,Improv_Metronome,1,9999,9999,9999,2596113520
85,24,13,Improv_Metronome,2,9999,9999,9999,2596613236
85,24,13,Improv_Metronome,3,9999,9999,9999,2597113924
85,24,13,Improv_Metronome,4,9999,9999,9999,2597613640
85,24,13,Improv_Metronome,5,9999,9999,9999,2598113336
85,24,13,Improv_Metronome,6,9999,9999,9999,2598614100
85,24,13,Improv_Metronome,7,9999,9999,9999,2599113820
85,24,13,Improv_Metronome,8,9999,9999,9999,2599613536
85,24,13,Improv_Metronome,9,9999,9999,9999,2600113252
85,24,13,Improv_Metronome,10,9999,9999,9999,2600613940
85,24,13,Improv_Metronome,11,9999,9999,9999,2601113656
85,24,13,Improv_Metronome,12,9999,9999,9999,2601613364
85,24,13,Improv_Metronome,13,9999,9999,9999,2602113136
85,24,13,Improv_Metronome,14,9999,9999,9999,2602613884
85,24,13,Improv_Metronome,15,9999,9999,9999,2603113580
85,24,13,Improv_Metronome,16,9999,9999,9999,2603613268
85,24,13,Improv_Metronome,17,9999,9999,9999,2604113984
85,24,13,Improv_Metronome,18,9999,9999,9999,2604613740
85,24,13,Improv_Metronome,19,9999,9999,9999,2605113456
85,24,13,Improv_Metronome,20,9999,9999,9999,2605613160
85,24,13,Improv_Metronome,21,9999,9999,9999,2606113856
85,24,13,Improv_Metronome,22,9999,9999,9999,2606613604
85,24,13,Improv_Metronome,23,9999,9999,9999,2607113292
85,24,13,Improv_Metronome,24,9999,9999,9999,2607614032
85,24,13,Improv_Metronome,25,9999,9999,9999,2608113728
85,24,13,Improv_Metronome,26,9999,9999,9999,2608613496
85,24,13,Improv_Metronome,27,9999,9999,9999,2609113192
85,24,13,Improv_Metronome,28,9999,9999,9999,2609613912
85,24,13,Improv_Metronome,29,9999,9999,9999,2610113588
85,24,13,Improv_Metronome,30,9999,9999,9999,2610613308
85,24,13,Improv_Metronome,31,9999,9999,9999,2611114108
85,24,13,Improv_Metronome,32,9999,9999,9999,2611613816
85,24,13,Improv_Metronome,33,9999,9999,9999,2612113488
85,24,13,Improv_Metronome,34,9999,9999,9999,2612613192
85,24,13,Improv_Metronome,35,9999,9999,9999,2613113940
85,24,13,Improv_Metronome,36,9999,9999,9999,2613613628
85,24,13,Improv_Metronome,37,9999,9999,9999,2614113384
85,24,13,Improv_Metronome,38,9999,9999,9999,2614614100
85,24,13,Improv_Metronome,39,9999,9999,9999,2615113780
85,24,13,Improv_Metronome,40,9999,9999,9999,2615613548
85,24,13,Improv_Metronome,41,9999,9999,9999,2616113220
85,24,13,Improv_Metronome,42,9999,9999,9999,2616613956
85,24,13,Improv_Metronome,43,9999,9999,9999,2617113724
85,24,13,Improv_Metronome,44,9999,9999,9999,2617613424
85,24,13,Improv_Metronome,45,9999,9999,9999,2618113076
85,24,13,Improv_Metronome,46,9999,9999,9999,2618613876
85,24,13,Improv_Metronome,47,9999,9999,9999,2619113592
85,24,13,Improv_Metronome,48,9999,9999,9999,2619613292
85,24,13,Improv_Metronome,49,9999,9999,9999,2620113988
85,24,13,Improv_Metronome,50,9999,9999,9999,2620613736
85,24,13,Improv_Metronome,51,9999,9999,9999,2621113440
85,24,13,Improv_Metronome,52,9999,9999,9999,2621613132
85,24,13,Improv_Metronome,53,9999,9999,9999,2622113872
85,24,13,Improv_Metronome,54,9999,9999,9999,2622613560
85,24,13,Improv_Metronome,55,9999,9999,9999,2623113304
85,24,13,Improv_Metronome,56,9999,9999,9999,2623614048
85,24,13,Improv_Metronome,57,9999,9999,9999,2624113736
85,24,13,Improv_Metronome,58,9999,9999,9999,2624613432
85,24,13,Improv_Metronome,59,9999,9999,9999,2625113200
85,24,13,Improv_Metronome,60,9999,9999,9999,2625613944
85,24,13,Improv_Metronome,61,9999,9999,9999,2626113620
85,24,13,Improv_Metronome,62,9999,9999,9999,2626613336
85,24,13,Improv_Metronome,63,9999,9999,9999,2627114056
85,24,13,Improv_Metronome,64,9999,9999,9999,2627613752
85,24,13,Improv_Metronome,65,9999,9999,9999,2628113520
85,24,13,Improv_Metronome,66,9999,9999,9999,2628613204
85,24,13,Improv_Metronome,67,9999,9999,9999,2629113944
85,24,13,Improv_Metronome,68,9999,9999,9999,2629613632
85,24,13,Improv_Metronome,69,9999,9999,9999,2630113332
85,24,13,Improv_Metronome,70,9999,9999,9999,2630614120
85,24,13,Improv_Metronome,71,9999,9999,9999,2631113792
85,24,13,Improv_Metronome,72,9999,9999,9999,2631613540
85,24,13,Improv_Metronome,73,9999,9999,9999,2632113216
85,24,13,Improv_Metronome,74,9999,9999,9999,2632613960
85,24,13,Improv_Metronome,75,9999,9999,9999,2633113656
85,24,13,Improv_Metronome,76,9999,9999,9999,2633613392
85,24,13,Improv_Metronome,77,9999,9999,9999,2634113120
85,24,13,Improv_Metronome,78,9999,9999,9999,2634613840
85,24,13,Improv_Metronome,79,9999,9999,9999,2635113532
85,24,13,Improv_Metronome,80,9999,9999,9999,2635613304
85,24,13,Improv_Metronome,81,9999,9999,9999,2636114020
85,24,13,Improv_Metronome,82,9999,9999,9999,2636613716
85,24,13,Improv_Metronome,83,9999,9999,9999,2637113460
85,24,13,Improv_Metronome,84,9999,9999,9999,2637613140
85,24,13,Improv_Metronome,85,9999,9999,9999,2638113912
85,24,13,Improv_Metronome,86,9999,9999,9999,2638613600
85,24,13,Improv_Metronome,87,9999,9999,9999,2639113296
85,24,13,Improv_Metronome,88,9999,9999,9999,2639614040
85,24,13,Improv_Metronome,89,9999,9999,9999,2640113764
85,24,13,Improv_Metronome,90,9999,9999,9999,2640613436
85,24,13,Improv_Metronome,91,9999,9999,9999,2641113140
85,24,13,Improv_Metronome,92,9999,9999,9999,2641613944
85,24,13,Improv_Metronome,93,9999,9999,9999,2642113600
85,24,13,Improv_Metronome,94,9999,9999,9999,2642613344
85,24,13,Improv_Metronome,95,9999,9999,9999,2643114044
85,24,13,Improv_Metronome,96,9999,9999,9999,2643613796
85,24,13,Improv_Metronome,97,9999,9999,9999,2644113516
85,24,13,Improv_Metronome,98,9999,9999,9999,2644613240
85,24,13,Improv_Metronome,99,9999,9999,9999,2645113944
85,24,13,Improv_Metronome,100,9999,9999,9999,2645613692
85,24,13,Improv_Metronome,101,9999,9999,9999,2646113336
85,24,13,Improv_Metronome,102,9999,9999,9999,2646614076
85,24,13,Improv_Metronome,103,9999,9999,9999,2647113844
85,24,13,Improv_Metronome,104,9999,9999,9999,2647613552
85,24,13,Improv_Metronome,105,9999,9999,9999,2648113252
85,24,13,Improv_Metronome,106,9999,9999,9999,2648614012
85,24,13,Improv_Metronome,107,9999,9999,9999,2649113676
85,24,13,Improv_Metronome,108,9999,9999,9999,2649613364
85,24,13,Improv_Metronome,109,9999,9999,9999,2650113120
85,24,13,Improv_Metronome,110,9999,9999,9999,2650613876
85,24,13,Improv_Metronome,111,9999,9999,9999,2651113548
85,24,13,Improv_Metronome,112,9999,9999,9999,2651613296
85,24,13,Improv_Metronome,113,9999,9999,9999,2652114020
85,24,13,Improv_Metronome,114,9999,9999,9999,2652613688
85,24,13,Improv_Metronome,115,9999,9999,9999,2653113416
85,24,13,Improv_Metronome,116,9999,9999,9999,2653613164
85,24,13,Improv_Metronome,117,9999,9999,9999,2654113888
85,24,13,Improv_Metronome,118,9999,9999,9999,2654613576
85,24,13,Improv_Metronome,119,9999,9999,9999,2655113272
85,24,13,Improv_Metronome,120,9999,9999,9999,2655614072
85,24,13,Improv_Metronome,121,9999,9999,9999,2656113764
85,24,13,Improv_Metronome,122,9999,9999,9999,2656613476
85,24,13,Improv_Metronome,123,9999,9999,9999,2657113212
85,24,13,Improv_Metronome,124,9999,9999,9999,2657613928
85,24,13,Improv_Metronome,125,9999,9999,9999,2658113624
85,24,13,Improv_Metronome,126,9999,9999,9999,2658613368
85,24,13,Improv_Metronome,127,9999,9999,9999,2659114036
85,24,13,Improv_Metronome,128,9999,9999,9999,2659613760
85,24,13,Improv_Metronome,129,9999,9999,9999,2660113524
85,24,13,Improv_Metronome,130,9999,9999,9999,2660613204
85,24,13,Improv_Metronome,131,9999,9999,9999,2661113972
85,24,13,Improv_Metronome,132,9999,9999,9999,2661613680
85,24,13,Improv_Metronome,133,9999,9999,9999,2662113376
85,24,13,Improv_Metronome,134,9999,9999,9999,2662614140
85,24,13,Improv_Metronome,135,9999,9999,9999,2663113828
85,24,13,Improv_Metronome,136,9999,9999,9999,2663613504
85,24,13,Improv_Metronome,137,9999,9999,9999,2664113252
85,24,13,Improv_Metronome,138,9999,9999,9999,2664613992
85,24,13,Improv_Metronome,139,9999,9999,9999,2665113688
85,25,14,Improv_Melody,0,2,48,80,2721199240
85,25,14,Improv_Melody,1,2,72,80,2721201980
85,25,14,Improv_Melody,2,5,42,127,2721203548
85,25,14,Improv_Melody,3,5,42,110,2721696460
85,25,14,Improv_Melody,4,5,42,110,2722195736
85,25,14,Improv_Melody,5,5,42,110,2722695680
85,25,14,Improv_Melody,6,5,42,127,2723196372
85,25,14,Improv_Melody,7,5,42,110,2723696320
85,25,14,Improv_Melody,8,5,42,110,2724195596
85,25,14,Improv_Melody,9,5,42,110,2724696512
85,25,14,Improv_Melody,10,2,43,80,2725198664
85,25,14,Improv_Melody,11,2,67,80,2725200968
85,25,14,Improv_Melody,12,5,42,127,2725203352
85,25,14,Improv_Melody,13,5,42,110,2725696120
85,25,14,Improv_Melody,14,5,42,110,2726195520
85,25,14,Improv_Melody,15,5,42,110,2726696436
85,25,14,Improv_Melody,16,5,42,127,2727196232
85,25,14,Improv_Melody,17,5,42,110,2727695580
85,25,14,Improv_Melody,18,5,42,110,2728195304
85,25,14,Improv_Melody,19,5,42,110,2728696144
85,25,14,Improv_Melody,20,2,45,80,2729198520
85,25,14,Improv_Melody,21,2,69,80,2729200752
85,25,14,Improv_Melody,22,5,42,127,2729203208
85,25,14,Improv_Melody,23,5,42,110,2729695456
85,25,14,Improv_Melody,24,5,42,110,2730196448
85,25,14,Improv_Melody,25,5,42,110,2730696244
85,25,14,Improv_Melody,26,5,42,127,2731195740
85,25,14,Improv_Melody,27,5,42,110,2731695388
85,25,14,Improv_Melody,28,5,42,110,2732196304
85,25,14,Improv_Melody,29,5,42,110,2732696176
85,25,14,Improv_Melody,30,2,41,80,2733198328
85,25,14,Improv_Melody,31,2,65,80,2733200256
85,25,14,Improv_Melody,32,5,42,127,2733203092
85,25,14,Improv_Melody,33,5,42,110,2733696384
85,25,14,Improv_Melody,34,5,42,110,2734196180
85,25,14,Improv_Melody,35,5,42,110,2734696048
85,25,14,Improv_Melody,36,5,42,127,2735195472
85,25,14,Improv_Melody,37,5,42,110,2735696240
85,25,14,Improv_Melody,38,5,42,110,2736195888
85,25,14,Improv_Melody,39,5,42,110,2736695608
85,25,14,Improv_Melody,40,2,48,80,2737199008
85,25,14,Improv_Melody,41,2,72,80,2737201084
85,25,14,Improv_Melody,42,5,42,127,2737203848
85,25,14,Improv_Melody,43,5,42,110,2737696164
85,25,14,Improv_Melody,44,1,48,27,2737711696
85,25,14,Improv_Melody,45,1,48,40,2738066416
85,25,14,Improv_Melody,46,5,42,110,2738195768
85,25,14,Improv_Melody,47,1,48,42,2738202028
85,25,14,Improv_Melody,48,1,48,40,2738505356
85,25,14,Improv_Melody,49,5,42,110,2738695668
85,25,14,Improv_Melody,50,1,48,46,2738841524
85,25,14,Improv_Melody,51,1,48,52,2739026132
85,25,14,Improv_Melody,52,5,42,127,2739196244
85,25,14,Improv_Melody,53,1,48,49,2739298792
85,25,14,Improv_Melody,54,1,48,34,2739443280
85,25,14,Improv_Melody,55,1,48,35,2739690416
85,25,14,Improv_Melody,56,5,42,110,2739695916
85,25,14,Improv_Melody,57,5,42,110,2740195772
85,25,14,Improv_Melody,58,5,42,110,2740696320
85,25,14,Improv_Melody,59,2,43,80,2741198616
85,25,14,Improv_Melody,60,2,67,80,2741200768
85,25,14,Improv_Melody,61,5,42,127,2741203308
85,25,14,Improv_Melody,62,1,48,18,2741626092
85,25,14,Improv_Melody,63,5,42,110,2741695844
85,25,14,Improv_Melody,64,5,42,110,2742195700
85,25,14,Improv_Melody,65,1,48,38,2742198372
85,25,14,Improv_Melody,66,1,48,40,2742598336
85,25,14,Improv_Melody,67,5,42,110,2742696500
85,25,14,Improv_Melody,68,1,48,49,2743060840
85,25,14,Improv_Melody,69,5,42,127,2743195900
85,25,14,Improv_Melody,70,1,48,46,2743204256
85,25,14,Improv_Melody,71,1,48,52,2743681716
85,25,14,Improv_Melody,72,5,42,110,2743695816
85,25,14,Improv_Melody,73,1,48,52,2744022668
85,25,14,Improv_Melody,74,1,48,60,2744190592
85,25,14,Improv_Melody,75,5,42,110,2744195344
85,25,14,Improv_Melody,76,1,48,58,2744323436
85,25,14,Improv_Melody,77,1,48,57,2744510956
85,25,14,Improv_Melody,78,1,48,57,2744684864
85,25,14,Improv_Melody,79,5,42,110,2744696196
85,25,14,Improv_Melody,80,1,48,56,2745176932
85,25,14,Improv_Melody,81,2,45,80,2745198248
85,25,14,Improv_Melody,82,2,69,80,2745200476
85,25,14,Improv_Melody,83,5,42,127,2745202940
85,25,14,Improv_Melody,84,1,48,66,2745691080
85,25,14,Improv_Melody,85,5,42,110,2745695684
85,25,14,Improv_Melody,86,1,48,50,2746073404
85,25,14,Improv_Melody,87,5,42,110,2746196340
85,25,14,Improv_Melody,88,1,48,63,2746243520
85,25,14,Improv_Melody,89,1,48,59,2746406108
85,25,14,Improv_Melody,90,1,48,65,2746654284
85,25,14,Improv_Melody,91,5,42,110,2746695940
85,25,14,Improv_Melody,92,1,48,59,2747166548
85,25,14,Improv_Melody,93,5,42,127,2747195788
85,25,14,Improv_Melody,94,1,48,58,2747660264
85,25,14,Improv_Melody,95,5,42,110,2747695536
85,25,14,Improv_Melody,96,1,48,54,2748065876
85,25,14,Improv_Melody,97,5,42,110,2748196196
85,25,14,Improv_Melody,98,1,48,70,2748254912
85,25,14,Improv_Melody,99,5,42,110,2748695820
85,25,14,Improv_Melody,100,1,48,32,2748781464
85,25,14,Improv_Melody,101,2,41,80,2749198324
85,25,14,Improv_Melody,102,2,65,80,2749200480
85,25,14,Improv_Melody,103,5,42,127,2749203012
85,25,14,Improv_Melody,104,1,48,54,2749210396
85,25,14,Improv_Melody,105,1,48,54,2749683592
85,25,14,Improv_Melody,106,5,42,110,2749696720
85,25,14,Improv_Melody,107,1,48,62,2750097876
85,25,14,Improv_Melody,108,5,42,110,2750195960
85,25,14,Improv_Melody,109,1,48,56,2750225928
85,25,14,Improv_Melody,110,1,48,63,2750386600
85,25,14,Improv_Melody,111,1,48,61,2750536872
85,25,14,Improv_Melody,112,5,42,110,2750695764
85,25,14,Improv_Melody,113,1,48,65,2750709956
85,25,14,Improv_Melody,114,1,48,62,2751189432
85,25,14,Improv_Melody,115,5,42,127,2751195680
85,25,14,Improv_Melody,116,5,42,110,2751696136
85,25,14,Improv_Melody,117,1,48,52,2751697104
85,25,14,Improv_Melody,118,1,48,59,2752079032
85,25,14,Improv_Melody,119,5,42,110,2752195888
85,25,14,Improv_Melody,120,1,48,53,2752265124
85,25,14,Improv_Melody,121,5,42,110,2752695660
85,25,14,Improv_Melody,122,1,48,39,2752780312
85,25,14,Improv_Melody,123,2,48,80,2753198988
85,25,14,Improv_Melody,124,2,72,80,2753201364
85,25,14,Improv_Melody,125,5,42,127,2753203752
85,25,14,Improv_Melody,126,1,48,68,2753233496
85,25,14,Improv_Melody,127,1,48,63,2753686424
85,25,14,Improv_Melody,128,5,42,110,2753695964
85,25,14,Improv_Melody,129,1,48,67,2754082280
85,25,14,Improv_Melody,130,5,42,110,2754195800
85,25,14,Improv_Melody,131,1,48,59,2754227344
85,25,14,Improv_Melody,132,1,48,60,2754380604
85,25,14,Improv_Melody,133,1,48,59,2754497488
85,25,14,Improv_Melody,134,1,48,62,2754669304
85,25,14,Improv_Melody,135,5,42,110,2754695600
85,25,14,Improv_Melody,136,1,48,70,2755062092
85,25,14,Improv_Melody,137,5,42,127,2755196252
85,25,14,Improv_Melody,138,1,48,60,2755264444
85,25,14,Improv_Melody,139,5,42,110,2755695952
85,25,14,Improv_Melody,140,1,48,61,2755699896
85,25,14,Improv_Melody,141,5,42,110,2756195800
85,25,14,Improv_Melody,142,1,48,44,2756217544
85,25,14,Improv_Melody,143,5,42,110,2756696696
85,25,14,Improv_Melody,144,1,48,52,2756699148
85,25,14,Improv_Melody,145,1,48,61,2757178924
85,25,14,Improv_Melody,146,2,43,80,2757198824
85,25,14,Improv_Melody,147,2,67,80,2757200748
85,25,14,Improv_Melody,148,5,42,127,2757203436
85,25,14,Improv_Melody,149,1,48,67,2757683776
85,25,14,Improv_Melody,150,5,42,110,2757695732
85,25,14,Improv_Melody,151,1,48,67,2758045100
85,25,14,Improv_Melody,152,5,42,110,2758195540
85,25,14,Improv_Melody,153,1,48,56,2758211996
85,25,14,Improv_Melody,154,1,48,63,2758355588
85,25,14,Improv_Melody,155,1,48,56,2758520224
85,25,14,Improv_Melody,156,1,48,61,2758673836
85,25,14,Improv_Melody,157,5,42,110,2758696536
85,25,14,Improv_Melody,158,1,48,59,2759069044
85,25,14,Improv_Melody,159,5,42,127,2759196000
85,25,14,Improv_Melody,160,1,48,49,2759240808
85,25,14,Improv_Melody,161,5,42,110,2759695700
85,25,14,Improv_Melody,162,1,48,58,2759701588
85,25,14,Improv_Melody,163,5,42,110,2760195396
85,25,14,Improv_Melody,164,1,48,49,2760198740
85,25,14,Improv_Melody,165,1,48,53,2760692652
85,25,14,Improv_Melody,166,5,42,110,2760696508
85,25,14,Improv_Melody,167,2,45,80,2761198268
85,25,14,Improv_Melody,168,1,48,53,2761199240
85,25,14,Improv_Melody,169,2,69,80,2761202004
85,25,14,Improv_Melody,170,5,42,127,2761204464
85,25,14,Improv_Melody,171,1,48,63,2761680488
85,25,14,Improv_Melody,172,5,42,110,2761695564
85,25,14,Improv_Melody,173,1,48,63,2762048772
85,25,14,Improv_Melody,174,1,48,61,2762196520
85,25,14,Improv_Melody,175,5,42,110,2762197708
85,25,14,Improv_Melody,176,1,48,73,2762357164
85,25,14,Improv_Melody,177,1,48,55,2762518928
85,25,14,Improv_Melody,178,1,48,65,2762659928
85,25,14,Improv_Melody,179,5,42,110,2762696020
85,25,14,Improv_Melody,180,1,48,63,2763040000
85,25,14,Improv_Melody,181,5,42,127,2763195704
85,25,14,Improv_Melody,182,1,48,55,2763210560
85,25,14,Improv_Melody,183,1,48,66,2763681368
85,25,14,Improv_Melody,184,5,42,110,2763695620
85,25,14,Improv_Melody,185,1,48,62,2764170448
85,25,14,Improv_Melody,186,5,42,110,2764196144
85,25,14,Improv_Melody,187,1,48,31,2764675236
85,25,14,Improv_Melody,188,5,42,110,2764695920
85,25,14,Improv_Melody,189,1,48,64,2765151524
85,25,14,Improv_Melody,190,2,41,80,2765198044
85,25,14,Improv_Melody,191,2,65,80,2765200272
85,25,14,Improv_Melody,192,5,42,127,2765202736
85,25,14,Improv_Melody,193,1,48,67,2765680480
85,25,14,Improv_Melody,194,5,42,110,2765696380
85,25,14,Improv_Melody,195,1,48,49,2766050084
85,25,14,Improv_Melody,196,1,48,69,2766171264
85,25,14,Improv_Melody,197,5,42,110,2766196280
85,25,14,Improv_Melody,198,1,48,53,2766321228
85,25,14,Improv_Melody,199,1,48,63,2766490272
85,25,14,Improv_Melody,200,5,42,110,2766695720
85,25,14,Improv_Melody,201,1,48,63,2766751272
85,25,14,Improv_Melody,202,1,48,67,2767191932
85,25,14,Improv_Melody,203,5,42,127,2767195564
85,25,14,Improv_Melody,204,1,48,51,2767671812
85,25,14,Improv_Melody,205,5,42,110,2767696308
85,25,14,Improv_Melody,206,1,48,63,2768168048
85,25,14,Improv_Melody,207,5,42,110,2768196084
85,25,14,Improv_Melody,208,1,48,44,2768677396
85,25,14,Improv_Melody,209,5,42,110,2768695636
85,25,14,Improv_Melody,210,1,48,57,2769174324
85,25,14,Improv_Melody,211,1,48,68,2769195312
85,25,14,Improv_Melody,212,2,48,80,2769198760
85,25,14,Improv_Melody,213,2,72,80,2769200988
85,25,14,Improv_Melody,214,5,42,127,2769203456
85,25,14,Improv_Melody,215,5,42,110,2769696128
85,25,14,Improv_Melody,216,1,48,67,2769712560
85,25,14,Improv_Melody,217,1,48,39,2770179776
85,25,14,Improv_Melody,218,5,42,110,2770195820
85,25,14,Improv_Melody,219,1,48,65,2770281752
85,25,14,Improv_Melody,220,1,48,48,2770472164
85,25,14,Improv_Melody,221,1,48,70,2770688852
85,25,14,Improv_Melody,222,5,42,110,2770695552
85,25,14,Improv_Melody,223,1,48,66,2771092592
85,25,14,Improv_Melody,224,5,42,127,2771196284
85,25,14,Improv_Melody,225,1,48,47,2771276616
85,25,14,Improv_Melody,226,5,42,110,2771695836
85,25,14,Improv_Melody,227,1,48,73,2771727224
85,25,14,Improv_Melody,228,5,42,110,2772195608
85,25,14,Improv_Melody,229,1,48,51,2772210392
85,25,14,Improv_Melody,230,1,48,65,2772665496
85,25,14,Improv_Melody,231,5,42,110,2772696352
85,25,14,Improv_Melody,232,1,48,60,2773178732
85,25,14,Improv_Melody,233,2,43,80,2773198624
85,25,14,Improv_Melody,234,2,67,80,2773200932
85,25,14,Improv_Melody,235,5,42,127,2773203392
85,25,14,Improv_Melody,236,1,48,59,2773228260
85,25,14,Improv_Melody,237,1,48,68,2773686504
85,25,14,Improv_Melody,238,5,42,110,2773695816
85,25,14,Improv_Melody,239,1,48,29,2774151044
85,25,14,Improv_Melody,240,5,42,110,2774195516
85,25,14,Improv_Melody,241,1,48,68,2774263996
85,25,14,Improv_Melody,242,1,48,37,2774451288
85,25,14,Improv_Melody,243,1,48,65,2774637688
85,25,14,Improv_Melody,244,5,42,110,2774696216
85,25,14,Improv_Melody,245,1,48,65,2775040648
85,25,14,Improv_Melody,246,5,42,127,2775196124
85,25,14,Improv_Melody,247,1,48,58,2775219740
85,25,14,Improv_Melody,248,1,48,61,2775690020
85,25,14,Improv_Melody,249,5,42,110,2775695596
85,25,14,Improv_Melody,250,1,48,63,2776151200
85,25,14,Improv_Melody,251,5,42,110,2776195368
85,25,14,Improv_Melody,252,1,48,62,2776660248
85,25,14,Improv_Melody,253,5,42,110,2776696040
85,25,14,Improv_Melody,254,2,45,80,2777198552
85,25,14,Improv_Melody,255,2,69,80,2777200708
85,25,14,Improv_Melody,256,5,42,127,2777203312
85,25,14,Improv_Melody,257,1,48,62,2777237248
85,25,14,Improv_Melody,258,5,42,110,2777695464
85,25,14,Improv_Melody,259,1,48,65,2777711444
85,25,14,Improv_Melody,260,5,42,110,2778196284
85,25,14,Improv_Melody,261,1,48,60,2778221992
85,25,14,Improv_Melody,262,1,48,67,2778360716
85,25,14,Improv_Melody,263,1,48,55,2778529992
85,25,14,Improv_Melody,264,1,48,71,2778686844
85,25,14,Improv_Melody,265,5,42,110,2778696008
85,25,14,Improv_Melody,266,1,48,79,2779062356
85,25,14,Improv_Melody,267,5,42,127,2779195692
85,25,14,Improv_Melody,268,1,48,51,2779237108
85,25,14,Improv_Melody,269,5,42,110,2779695444
85,25,14,Improv_Melody,270,1,48,83,2779713020
85,25,14,Improv_Melody,271,1,48,72,2780191280
85,25,14,Improv_Melody,272,5,42,110,2780196260
85,25,14,Improv_Melody,273,1,48,65,2780662336
85,25,14,Improv_Melody,274,5,42,110,2780696032
85,25,14,Improv_Melody,275,1,48,65,2781183800
85,25,14,Improv_Melody,276,2,41,80,2781198240
85,25,14,Improv_Melody,277,2,65,80,2781200396
85,25,14,Improv_Melody,278,5,42,127,2781203076
85,25,14,Improv_Melody,279,5,42,110,2781696428
85,25,14,Improv_Melody,280,1,48,70,2781721532
85,25,14,Improv_Melody,281,1,48,57,2782175136
85,25,14,Improv_Melody,282,5,42,110,2782196044
85,25,14,Improv_Melody,283,1,48,67,2782313160
85,25,14,Improv_Melody,284,1,48,61,2782501260
85,25,14,Improv_Melody,285,1,48,65,2782689076
85,25,14,Improv_Melody,286,5,42,110,2782695776
85,25,14,Improv_Melody,287,1,48,74,2783076880
85,25,14,Improv_Melody,288,5,42,127,2783195460
85,25,14,Improv_Melody,289,1,48,62,2783254076
85,25,14,Improv_Melody,290,5,42,110,2783696132
85,25,14,Improv_Melody,291,1,48,59,2783708972
85,25,14,Improv_Melody,292,1,48,63,2784189580
85,25,14,Improv_Melody,293,5,42,110,2784196048
85,25,14,Improv_Melody,294,1,48,59,2784661376
85,25,14,Improv_Melody,295,5,42,110,2784695676
85,25,14,Improv_Melody,296,1,48,57,2785168256
85,25,14,Improv_Melody,297,2,48,80,2785199076
85,25,14,Improv_Melody,298,2,72,80,2785200928
85,25,14,Improv_Melody,299,5,42,127,2785203468
85,25,14,Improv_Melody,300,5,42,110,2785696068
85,25,14,Improv_Melody,301,1,48,65,2785726640
85,25,14,Improv_Melody,302,5,42,110,2786196292
85,25,14,Improv_Melody,303,1,48,69,2786206968
85,25,14,Improv_Melody,304,1,48,55,2786231776
85,25,14,Improv_Melody,305,1,48,62,2786443308
85,25,14,Improv_Melody,306,1,48,60,2786577548
85,25,14,Improv_Melody,307,5,42,110,2786695480
85,25,14,Improv_Melody,308,1,48,59,2786718868
85,25,14,Improv_Melody,309,1,48,73,2787068548
85,25,14,Improv_Melody,310,5,42,127,2787196204
85,25,14,Improv_Melody,311,1,48,65,2787221908
85,25,14,Improv_Melody,312,1,48,75,2787682320
85,25,14,Improv_Melody,313,5,42,110,2787696120
85,25,14,Improv_Melody,314,1,48,61,2788152996
85,25,14,Improv_Melody,315,5,42,110,2788195672
85,25,14,Improv_Melody,316,1,48,48,2788686280
85,25,14,Improv_Melody,317,5,42,110,2788696420
85,25,14,Improv_Melody,318,1,48,65,2789177752
85,25,14,Improv_Melody,319,2,43,80,2789198620
85,25,14,Improv_Melody,320,2,67,80,2789200696
85,25,14,Improv_Melody,321,5,42,127,2789203312
85,25,14,Improv_Melody,322,1,48,65,2789680732
85,25,14,Improv_Melody,323,5,42,110,2789696204
85,25,14,Improv_Melody,324,1,48,53,2790158516
85,25,14,Improv_Melody,325,5,42,110,2790195532
85,25,14,Improv_Melody,326,1,48,80,2790199532
85,25,14,Improv_Melody,327,1,48,72,2790341104
85,25,14,Improv_Melody,328,1,48,60,2790503940
85,25,14,Improv_Melody,329,1,48,64,2790643340
85,25,14,Improv_Melody,330,5,42,110,2790696264
85,25,14,Improv_Melody,331,1,48,73,2791034888
85,25,14,Improv_Melody,332,5,42,127,2791195948
85,25,14,Improv_Melody,333,1,48,61,2791203104
85,25,14,Improv_Melody,334,1,48,78,2791667104
85,25,14,Improv_Melody,335,5,42,110,2791695940
85,25,14,Improv_Melody,336,1,48,76,2792009276
85,25,14,Improv_Melody,337,1,48,51,2792186904
85,25,14,Improv_Melody,338,5,42,110,2792195392
85,25,14,Improv_Melody,339,1,48,48,2792318720
85,25,14,Improv_Melody,340,1,48,70,2792627268
85,25,14,Improv_Melody,341,5,42,110,2792696044
85,25,14,Improv_Melody,342,1,48,54,2792817128
85,25,14,Improv_Melody,343,2,45,80,2793198456
85,25,14,Improv_Melody,344,2,69,80,2793200688
85,25,14,Improv_Melody,345,5,42,127,2793203072
85,25,14,Improv_Melody,346,1,48,62,2793275408
85,25,14,Improv_Melody,347,1,48,35,2793326168
85,25,14,Improv_Melody,348,5,42,110,2793695716
85,25,14,Improv_Melody,349,1,48,56,2793745060
85,25,14,Improv_Melody,350,1,38,16,2793756260
85,25,14,Improv_Melody,351,5,42,110,2794196192
85,25,14,Improv_Melody,352,1,48,51,2794214720
85,25,14,Improv_Melody,353,1,48,56,2794359528
85,25,14,Improv_Melody,354,1,48,54,2794524064
85,25,14,Improv_Melody,355,1,48,69,2794680240
85,25,14,Improv_Melody,356,5,42,110,2794695992
85,25,14,Improv_Melody,357,1,48,82,2795035184
85,25,14,Improv_Melody,358,5,42,127,2795195972
85,25,14,Improv_Melody,359,1,48,64,2795202008
85,25,14,Improv_Melody,360,1,48,76,2795368812
85,25,14,Improv_Melody,361,1,48,74,2795526168
85,25,14,Improv_Melody,362,1,48,71,2795637916
85,25,14,Improv_Melody,363,5,42,110,2795695400
85,25,14,Improv_Melody,364,1,48,71,2795825060
85,25,14,Improv_Melody,365,1,48,87,2796030084
85,25,14,Improv_Melody,366,5,42,110,2796196332
85,25,14,Improv_Melody,367,1,48,44,2796214340
85,25,14,Improv_Melody,368,1,48,78,2796614380
85,25,14,Improv_Melody,369,5,42,110,2796695948
85,25,14,Improv_Melody,370,1,48,75,2797145868
85,25,14,Improv_Melody,371,2,41,80,2797198228
85,25,14,Improv_Melody,372,2,65,80,2797200228
85,25,14,Improv_Melody,373,5,42,127,2797202916
85,25,14,Improv_Melody,374,1,48,58,2797696192
85,25,14,Improv_Melody,375,5,42,110,2797697752
85,25,14,Improv_Melody,376,1,48,63,2798162856
85,25,14,Improv_Melody,377,5,42,110,2798196036
85,25,14,Improv_Melody,378,1,48,48,2798292632
85,25,14,Improv_Melody,379,1,48,48,2798502296
85,25,14,Improv_Melody,380,5,42,110,2798695996
85,25,14,Improv_Melody,381,1,48,51,2798705924
85,25,14,Improv_Melody,382,1,48,54,2799097044
85,25,14,Improv_Melody,383,5,42,127,2799195452
85,25,14,Improv_Melody,384,1,48,59,2799261548
85,25,14,Improv_Melody,385,5,42,110,2799696200
85,25,14,Improv_Melody,386,1,48,73,2799748832
85,25,14,Improv_Melody,387,1,48,60,2800065304
85,25,14,Improv_Melody,388,5,42,110,2800196024
85,25,14,Improv_Melody,389,1,48,69,2800237740
85,25,14,Improv_Melody,390,1,48,66,2800582184
85,25,14,Improv_Melody,391,5,42,110,2800695852
85,25,14,Improv_Melody,392,2,48,80,2801198872
85,25,14,Improv_Melody,393,2,72,80,2801200804
85,25,14,Improv_Melody,394,5,42,127,2801203592
85,25,14,Improv_Melody,395,1,48,65,2801301476
85,25,14,Improv_Melody,396,5,42,110,2801696084
85,25,14,Improv_Melody,397,1,48,61,2801785396
85,25,14,Improv_Melody,398,1,48,41,2802168288
85,25,14,Improv_Melody,0,9999,9999,9999,2721194036
85,25,14,Improv_Melody,1,9999,9999,9999,2721693796
85,25,14,Improv_Melody,2,9999,9999,9999,2722193516
85,25,14,Improv_Melody,3,9999,9999,9999,2722693240
85,25,14,Improv_Melody,4,9999,9999,9999,2723193932
85,25,14,Improv_Melody,5,9999,9999,9999,2723693656
85,25,14,Improv_Melody,6,9999,9999,9999,2724193376
85,25,14,Improv_Melody,7,9999,9999,9999,2724694072
85,25,14,Improv_Melody,8,9999,9999,9999,2725193792
85,25,14,Improv_Melody,9,9999,9999,9999,2725693528
85,25,14,Improv_Melody,10,9999,9999,9999,2726193228
85,25,14,Improv_Melody,11,9999,9999,9999,2726693996
85,25,14,Improv_Melody,12,9999,9999,9999,2727193716
85,25,14,Improv_Melody,13,9999,9999,9999,2727693364
85,25,14,Improv_Melody,14,9999,9999,9999,2728193084
85,25,14,Improv_Melody,15,9999,9999,9999,2728693852
85,25,14,Improv_Melody,16,9999,9999,9999,2729193576
85,25,14,Improv_Melody,17,9999,9999,9999,2729693236
85,25,14,Improv_Melody,18,9999,9999,9999,2730194004
85,25,14,Improv_Melody,19,9999,9999,9999,2730693728
85,25,14,Improv_Melody,20,9999,9999,9999,2731193448
85,25,14,Improv_Melody,21,9999,9999,9999,2731693172
85,25,14,Improv_Melody,22,9999,9999,9999,2732193864
85,25,14,Improv_Melody,23,9999,9999,9999,2732693588
85,25,14,Improv_Melody,24,9999,9999,9999,2733193312
85,25,14,Improv_Melody,25,9999,9999,9999,2733694016
85,25,14,Improv_Melody,26,9999,9999,9999,2734193740
85,25,14,Improv_Melody,27,9999,9999,9999,2734693460
85,25,14,Improv_Melody,28,9999,9999,9999,2735193180
85,25,14,Improv_Melody,29,9999,9999,9999,2735693876
85,25,14,Improv_Melody,30,9999,9999,9999,2736193596
85,25,14,Improv_Melody,31,9999,9999,9999,2736693320
85,25,14,Improv_Melody,32,9999,9999,9999,2737194060
85,25,14,Improv_Melody,33,9999,9999,9999,2737693796
85,25,14,Improv_Melody,34,9999,9999,9999,2738193476
85,25,14,Improv_Melody,35,9999,9999,9999,2738693228
85,25,14,Improv_Melody,36,9999,9999,9999,2739193952
85,25,14,Improv_Melody,37,9999,9999,9999,2739693624
85,25,14,Improv_Melody,38,9999,9999,9999,2740193332
85,25,14,Improv_Melody,39,9999,9999,9999,2740694100
85,25,14,Improv_Melody,40,9999,9999,9999,2741193824
85,25,14,Improv_Melody,41,9999,9999,9999,2741693552
85,25,14,Improv_Melody,42,9999,9999,9999,2742193260
85,25,14,Improv_Melody,43,9999,9999,9999,2742693984
85,25,14,Improv_Melody,44,9999,9999,9999,2743193684
85,25,14,Improv_Melody,45,9999,9999,9999,2743693376
85,25,14,Improv_Melody,46,9999,9999,9999,2744193128
85,25,14,Improv_Melody,47,9999,9999,9999,2744693832
85,25,14,Improv_Melody,48,9999,9999,9999,2745193532
85,25,14,Improv_Melody,49,9999,9999,9999,2745693244
85,25,14,Improv_Melody,50,9999,9999,9999,2746193976
85,25,14,Improv_Melody,51,9999,9999,9999,2746693720
85,25,14,Improv_Melody,52,9999,9999,9999,2747193420
85,25,14,Improv_Melody,53,9999,9999,9999,2747693172
85,25,14,Improv_Melody,54,9999,9999,9999,2748193904
85,25,14,Improv_Melody,55,9999,9999,9999,2748693604
85,25,14,Improv_Melody,56,9999,9999,9999,2749193304
85,25,14,Improv_Melody,57,9999,9999,9999,2749694056
85,25,14,Improv_Melody,58,9999,9999,9999,2750193744
85,25,14,Improv_Melody,59,9999,9999,9999,2750693472
85,25,14,Improv_Melody,60,9999,9999,9999,2751193168
85,25,14,Improv_Melody,61,9999,9999,9999,2751693920
85,25,14,Improv_Melody,62,9999,9999,9999,2752193596
85,25,14,Improv_Melody,63,9999,9999,9999,2752693372
85,25,14,Improv_Melody,64,9999,9999,9999,2753194040
85,25,14,Improv_Melody,65,9999,9999,9999,2753693748
85,25,14,Improv_Melody,66,9999,9999,9999,2754193508
85,25,14,Improv_Melody,67,9999,9999,9999,2754693232
85,25,14,Improv_Melody,68,9999,9999,9999,2755193964
85,25,14,Improv_Melody,69,9999,9999,9999,2755693664
85,25,14,Improv_Melody,70,9999,9999,9999,2756193360
85,25,14,Improv_Melody,71,9999,9999,9999,2756694108
85,25,14,Improv_Melody,72,9999,9999,9999,2757193804
85,25,14,Improv_Melody,73,9999,9999,9999,2757693516
85,25,14,Improv_Melody,74,9999,9999,9999,2758193248
85,25,14,Improv_Melody,75,9999,9999,9999,2758693948
85,25,14,Improv_Melody,76,9999,9999,9999,2759193708
85,25,14,Improv_Melody,77,9999,9999,9999,2759693408
85,25,14,Improv_Melody,78,9999,9999,9999,2760193108
85,25,14,Improv_Melody,79,9999,9999,9999,2760693848
85,25,14,Improv_Melody,80,9999,9999,9999,2761193552
85,25,14,Improv_Melody,81,9999,9999,9999,2761693272
85,25,14,Improv_Melody,82,9999,9999,9999,2762194004
85,25,14,Improv_Melody,83,9999,9999,9999,2762693728
85,25,14,Improv_Melody,84,9999,9999,9999,2763193412
85,25,14,Improv_Melody,85,9999,9999,9999,2763693180
85,25,14,Improv_Melody,86,9999,9999,9999,2764193852
85,25,14,Improv_Melody,87,9999,9999,9999,2764693628
85,25,14,Improv_Melody,88,9999,9999,9999,2765193328
85,25,14,Improv_Melody,89,9999,9999,9999,2765694012
85,25,14,Improv_Melody,90,9999,9999,9999,2766193768
85,25,14,Improv_Melody,91,9999,9999,9999,2766693428
85,25,14,Improv_Melody,92,9999,9999,9999,2767193196
85,25,14,Improv_Melody,93,9999,9999,9999,2767693944
85,25,14,Improv_Melody,94,9999,9999,9999,2768193644
85,25,14,Improv_Melody,95,9999,9999,9999,2768693344
85,25,14,Improv_Melody,96,9999,9999,9999,2769194096
85,25,14,Improv_Melody,97,9999,9999,9999,2769693764
85,25,14,Improv_Melody,98,9999,9999,9999,2770193532
85,25,14,Improv_Melody,99,9999,9999,9999,2770693188
85,25,14,Improv_Melody,100,9999,9999,9999,2771193916
85,25,14,Improv_Melody,101,9999,9999,9999,2771693620
85,25,14,Improv_Melody,102,9999,9999,9999,2772193392
85,25,14,Improv_Melody,103,9999,9999,9999,2772694132
85,25,14,Improv_Melody,104,9999,9999,9999,2773193832
85,25,14,Improv_Melody,105,9999,9999,9999,2773693524
85,25,14,Improv_Melody,106,9999,9999,9999,2774193224
85,25,14,Improv_Melody,107,9999,9999,9999,2774694000
85,25,14,Improv_Melody,108,9999,9999,9999,2775193684
85,25,14,Improv_Melody,109,9999,9999,9999,2775693380
85,25,14,Improv_Melody,110,9999,9999,9999,2776193076
85,25,14,Improv_Melody,111,9999,9999,9999,2776693824
85,25,14,Improv_Melody,112,9999,9999,9999,2777193532
85,25,14,Improv_Melody,113,9999,9999,9999,2777693244
85,25,14,Improv_Melody,114,9999,9999,9999,2778193992
85,25,14,Improv_Melody,115,9999,9999,9999,2778693716
85,25,14,Improv_Melody,116,9999,9999,9999,2779193400
85,25,14,Improv_Melody,117,9999,9999,9999,2779693152
85,25,14,Improv_Melody,118,9999,9999,9999,2780193892
85,25,14,Improv_Melody,119,9999,9999,9999,2780693592
85,25,14,Improv_Melody,120,9999,9999,9999,2781193296
85,25,14,Improv_Melody,121,9999,9999,9999,2781694060
85,25,14,Improv_Melody,122,9999,9999,9999,2782193752
85,25,14,Improv_Melody,123,9999,9999,9999,2782693484
85,25,14,Improv_Melody,124,9999,9999,9999,2783193168
85,25,14,Improv_Melody,125,9999,9999,9999,2783693912
85,25,14,Improv_Melody,126,9999,9999,9999,2784193608
85,25,14,Improv_Melody,127,9999,9999,9999,2784693308
85,25,14,Improv_Melody,128,9999,9999,9999,2785194056
85,25,14,Improv_Melody,129,9999,9999,9999,2785693776
85,25,14,Improv_Melody,130,9999,9999,9999,2786193476
85,25,14,Improv_Melody,131,9999,9999,9999,2786693188
85,25,14,Improv_Melody,132,9999,9999,9999,2787193912
85,25,14,Improv_Melody,133,9999,9999,9999,2787693680
85,25,14,Improv_Melody,134,9999,9999,9999,2788193380
85,25,14,Improv_Melody,135,9999,9999,9999,2788694128
85,25,14,Improv_Melody,136,9999,9999,9999,2789193828
85,25,14,Improv_Melody,137,9999,9999,9999,2789693540
85,25,14,Improv_Melody,138,9999,9999,9999,2790193216
85,25,14,Improv_Melody,139,9999,9999,9999,2790693972
85,25,14,Improv_Melody,140,9999,9999,9999,2791193656
85,25,14,Improv_Melody,141,9999,9999,9999,2791693424
85,25,14,Improv_Melody,142,9999,9999,9999,2792193100
85,25,14,Improv_Melody,143,9999,9999,9999,2792693828
85,25,14,Improv_Melody,144,9999,9999,9999,2793193584
85,25,14,Improv_Melody,145,9999,9999,9999,2793693276
85,25,14,Improv_Melody,146,9999,9999,9999,2794193976
85,25,14,Improv_Melody,147,9999,9999,9999,2794693700
85,25,14,Improv_Melody,148,9999,9999,9999,2795193456
85,25,14,Improv_Melody,149,9999,9999,9999,2795693108
85,25,14,Improv_Melody,150,9999,9999,9999,2796193892
85,25,14,Improv_Melody,151,9999,9999,9999,2796693584
85,25,14,Improv_Melody,152,9999,9999,9999,2797193284
85,25,14,Improv_Melody,153,9999,9999,9999,2797694048
85,25,14,Improv_Melody,154,9999,9999,9999,2798193744
85,25,14,Improv_Melody,155,9999,9999,9999,2798693480
85,25,14,Improv_Melody,156,9999,9999,9999,2799193160
85,25,14,Improv_Melody,157,9999,9999,9999,2799693908
85,25,14,Improv_Melody,158,9999,9999,9999,2800193660
85,25,14,Improv_Melody,159,9999,9999,9999,2800693336
85,25,14,Improv_Melody,160,9999,9999,9999,2801194080
85,25,14,Improv_Melody,161,9999,9999,9999,2801693792
