pid,taskRunCount,taskID,taskName,i,channel,pitch,velocity,microseconds
89,1,1,Ticks_Pract_5,0,5,42,127,109335860
89,1,1,Ticks_Pract_5,1,5,42,127,109835652
89,1,1,Ticks_Pract_5,2,5,42,127,110336416
89,1,1,Ticks_Pract_5,3,5,42,127,110836280
89,1,1,Ticks_Pract_5,4,5,42,127,111335920
89,1,1,Ticks_Pract_5,5,5,42,127,111835492
89,1,1,Ticks_Pract_5,6,5,42,127,112336252
89,1,1,Ticks_Pract_5,7,5,42,127,112836044
89,1,1,Ticks_Pract_5,8,1,48,41,113326452
89,1,1,Ticks_Pract_5,9,5,42,127,113335532
89,1,1,Ticks_Pract_5,10,1,48,37,113801236
89,1,1,Ticks_Pract_5,11,5,42,127,113836276
89,1,1,Ticks_Pract_5,12,1,48,31,114315292
89,1,1,Ticks_Pract_5,13,5,42,127,114336192
89,1,1,Ticks_Pract_5,14,1,48,43,114811996
89,1,1,Ticks_Pract_5,15,5,42,127,114835884
89,1,1,Ticks_Pract_5,16,1,48,36,115314376
89,1,1,Ticks_Pract_5,17,5,42,127,115335432
89,1,1,Ticks_Pract_5,18,1,48,38,115815044
89,1,1,Ticks_Pract_5,19,5,42,127,115836248
89,1,1,Ticks_Pract_5,20,1,48,39,116334508
89,1,1,Ticks_Pract_5,21,5,42,127,116336088
89,1,1,Ticks_Pract_5,22,1,48,40,116829916
89,1,1,Ticks_Pract_5,23,5,42,127,116835636
89,1,1,Ticks_Pract_5,24,1,48,38,117317724
89,1,1,Ticks_Pract_5,25,5,42,127,117336456
89,1,1,Ticks_Pract_5,26,1,48,35,117819356
89,1,1,Ticks_Pract_5,27,5,42,127,117836220
89,1,1,Ticks_Pract_5,28,1,48,39,118315212
89,1,1,Ticks_Pract_5,29,5,42,127,118336060
89,1,1,Ticks_Pract_5,30,5,42,127,118835464
89,1,1,Ticks_Pract_5,31,1,48,35,118836436
89,1,1,Ticks_Pract_5,32,1,48,40,119309664
89,1,1,Ticks_Pract_5,33,5,42,127,119336324
89,1,1,Ticks_Pract_5,34,1,48,42,119808092
89,1,1,Ticks_Pract_5,35,5,42,127,119836020
89,1,1,Ticks_Pract_5,36,1,48,35,120306060
89,1,1,Ticks_Pract_5,37,5,42,127,120335716
89,1,1,Ticks_Pract_5,38,1,48,37,120817648
89,1,1,Ticks_Pract_5,39,5,42,127,120835408
89,1,1,Ticks_Pract_5,40,1,48,40,121315248
89,1,1,Ticks_Pract_5,41,5,42,127,121336224
89,1,1,Ticks_Pract_5,42,1,48,34,121829532
89,1,1,Ticks_Pract_5,43,5,42,127,121835992
89,1,1,Ticks_Pract_5,44,1,48,40,122326832
89,1,1,Ticks_Pract_5,45,5,42,127,122335464
89,1,1,Ticks_Pract_5,46,1,48,40,122805284
89,1,1,Ticks_Pract_5,47,5,42,127,122836280
89,1,1,Ticks_Pract_5,48,5,42,127,123336132
89,1,1,Ticks_Pract_5,49,1,48,40,123342396
89,1,1,Ticks_Pract_5,50,1,48,40,123820456
89,1,1,Ticks_Pract_5,51,5,42,127,123835968
89,1,1,Ticks_Pract_5,52,1,48,40,124303092
89,1,1,Ticks_Pract_5,53,5,42,127,124335516
89,1,1,Ticks_Pract_5,54,1,48,35,124804284
89,1,1,Ticks_Pract_5,55,5,42,127,124836108
89,1,1,Ticks_Pract_5,56,1,48,39,125276980
89,1,1,Ticks_Pract_5,57,5,42,127,125336024
89,1,1,Ticks_Pract_5,58,1,48,38,125802252
89,1,1,Ticks_Pract_5,59,5,42,127,125835572
89,1,1,Ticks_Pract_5,60,1,48,32,126267240
89,1,1,Ticks_Pract_5,61,5,42,127,126336316
89,1,1,Ticks_Pract_5,62,1,48,35,126731904
89,1,1,Ticks_Pract_5,63,5,42,127,126836064
89,1,1,Ticks_Pract_5,64,1,48,36,127235856
89,1,1,Ticks_Pract_5,65,5,42,127,127335832
89,1,1,Ticks_Pract_5,66,1,48,29,127720072
89,1,1,Ticks_Pract_5,67,5,42,127,127835528
89,1,1,Ticks_Pract_5,68,1,48,30,128175264
89,1,1,Ticks_Pract_5,69,5,42,127,128336196
89,1,1,Ticks_Pract_5,70,1,48,30,128726044
89,1,1,Ticks_Pract_5,71,5,42,127,128836036
89,1,1,Ticks_Pract_5,72,1,48,21,129253488
89,1,1,Ticks_Pract_5,0,9999,9999,9999,109333572
89,1,1,Ticks_Pract_5,1,9999,9999,9999,109833288
89,1,1,Ticks_Pract_5,2,9999,9999,9999,110334052
89,1,1,Ticks_Pract_5,3,9999,9999,9999,110833768
89,1,1,Ticks_Pract_5,4,9999,9999,9999,111333488
89,1,1,Ticks_Pract_5,5,9999,9999,9999,111833204
89,1,1,Ticks_Pract_5,6,9999,9999,9999,112333892
89,1,1,Ticks_Pract_5,7,9999,9999,9999,112833608
89,1,1,Ticks_Pract_5,8,9999,9999,9999,113333320
89,1,1,Ticks_Pract_5,9,9999,9999,9999,113834060
89,1,1,Ticks_Pract_5,10,9999,9999,9999,114333756
89,1,1,Ticks_Pract_5,11,9999,9999,9999,114833524
89,1,1,Ticks_Pract_5,12,9999,9999,9999,115333220
89,1,1,Ticks_Pract_5,13,9999,9999,9999,115833960
89,1,1,Ticks_Pract_5,14,9999,9999,9999,116333660
89,1,1,Ticks_Pract_5,15,9999,9999,9999,116833348
89,1,1,Ticks_Pract_5,16,9999,9999,9999,117334092
89,1,1,Ticks_Pract_5,17,9999,9999,9999,117833784
89,1,1,Ticks_Pract_5,18,9999,9999,9999,118333552
89,1,1,Ticks_Pract_5,19,9999,9999,9999,118833252
89,1,1,Ticks_Pract_5,20,9999,9999,9999,119333964
89,1,1,Ticks_Pract_5,21,9999,9999,9999,119833660
89,1,1,Ticks_Pract_5,22,9999,9999,9999,120333428
89,1,1,Ticks_Pract_5,23,9999,9999,9999,120833124
89,1,1,Ticks_Pract_5,24,9999,9999,9999,121333864
89,1,1,Ticks_Pract_5,25,9999,9999,9999,121833560
89,1,1,Ticks_Pract_5,26,9999,9999,9999,122333256
89,1,1,Ticks_Pract_5,27,9999,9999,9999,122833996
89,1,1,Ticks_Pract_5,28,9999,9999,9999,123333696
89,1,1,Ticks_Pract_5,29,9999,9999,9999,123833460
89,1,1,Ticks_Pract_5,30,9999,9999,9999,124333156
89,1,1,Ticks_Pract_5,31,9999,9999,9999,124833896
89,1,1,Ticks_Pract_5,32,9999,9999,9999,125333592
89,1,1,Ticks_Pract_5,33,9999,9999,9999,125833284
89,1,1,Ticks_Pract_5,34,9999,9999,9999,126334024
89,1,1,Ticks_Pract_5,35,9999,9999,9999,126833780
89,1,1,Ticks_Pract_5,36,9999,9999,9999,127333472
89,1,1,Ticks_Pract_5,37,9999,9999,9999,127833164
89,1,1,Ticks_Pract_5,38,9999,9999,9999,128333908
89,1,1,Ticks_Pract_5,39,9999,9999,9999,128833600
89,2,0,Ticks_Pract_8,0,5,42,127,187245856
89,2,0,Ticks_Pract_8,1,5,42,127,188045688
89,2,0,Ticks_Pract_8,2,5,42,127,188845368
89,2,0,Ticks_Pract_8,3,5,42,127,189646244
89,2,0,Ticks_Pract_8,4,1,48,30,190398016
89,2,0,Ticks_Pract_8,5,5,42,127,190446216
89,2,0,Ticks_Pract_8,6,1,48,31,191200964
89,2,0,Ticks_Pract_8,7,5,42,127,191245800
89,2,0,Ticks_Pract_8,8,1,48,35,192027704
89,2,0,Ticks_Pract_8,9,5,42,127,192045560
89,2,0,Ticks_Pract_8,10,1,48,39,192826712
89,2,0,Ticks_Pract_8,11,5,42,127,192846116
89,2,0,Ticks_Pract_8,12,5,42,127,193646004
89,2,0,Ticks_Pract_8,13,1,48,43,193649500
89,2,0,Ticks_Pract_8,14,5,42,127,194445664
89,2,0,Ticks_Pract_8,15,1,48,29,194458888
89,2,0,Ticks_Pract_8,16,1,48,32,195231976
89,2,0,Ticks_Pract_8,17,5,42,127,195245468
89,2,0,Ticks_Pract_8,18,5,42,127,196046184
89,2,0,Ticks_Pract_8,19,1,48,31,196056188
89,2,0,Ticks_Pract_8,20,1,48,31,196833232
89,2,0,Ticks_Pract_8,21,5,42,127,196846132
89,2,0,Ticks_Pract_8,22,1,48,34,197621376
89,2,0,Ticks_Pract_8,23,5,42,127,197645640
89,2,0,Ticks_Pract_8,24,1,48,34,198442824
89,2,0,Ticks_Pract_8,25,5,42,127,198445548
89,2,0,Ticks_Pract_8,26,1,48,28,199235000
89,2,0,Ticks_Pract_8,27,5,42,127,199246252
89,2,0,Ticks_Pract_8,28,1,48,32,200043952
89,2,0,Ticks_Pract_8,29,5,42,127,200045840
89,2,0,Ticks_Pract_8,30,1,48,31,200813448
89,2,0,Ticks_Pract_8,31,5,42,127,200845648
89,2,0,Ticks_Pract_8,32,5,42,127,201645388
89,2,0,Ticks_Pract_8,33,1,48,23,201662268
89,2,0,Ticks_Pract_8,34,1,48,19,202404920
89,2,0,Ticks_Pract_8,35,5,42,127,202446164
89,2,0,Ticks_Pract_8,36,5,42,127,203245900
89,2,0,Ticks_Pract_8,37,1,48,23,203264504
89,2,0,Ticks_Pract_8,38,1,48,26,204032060
89,2,0,Ticks_Pract_8,39,5,42,127,204045852
89,2,0,Ticks_Pract_8,40,1,48,27,204833812
89,2,0,Ticks_Pract_8,41,5,42,127,204845388
89,2,0,Ticks_Pract_8,42,1,48,24,205606540
89,2,0,Ticks_Pract_8,43,5,42,127,205646092
89,2,0,Ticks_Pract_8,44,5,42,127,206445908
89,2,0,Ticks_Pract_8,45,1,48,30,206457404
89,2,0,Ticks_Pract_8,46,1,48,29,207209248
89,2,0,Ticks_Pract_8,47,5,42,127,207245856
89,2,0,Ticks_Pract_8,48,5,42,127,208045300
89,2,0,Ticks_Pract_8,49,1,48,32,208048796
89,2,0,Ticks_Pract_8,50,1,48,28,208832128
89,2,0,Ticks_Pract_8,51,5,42,127,208846224
89,2,0,Ticks_Pract_8,52,1,48,33,209597908
89,2,0,Ticks_Pract_8,53,5,42,127,209645960
89,2,0,Ticks_Pract_8,54,1,48,31,210393676
89,2,0,Ticks_Pract_8,55,5,42,127,210445692
89,2,0,Ticks_Pract_8,56,1,48,30,211182112
89,2,0,Ticks_Pract_8,0,9999,9999,9999,187243568
89,2,0,Ticks_Pract_8,1,9999,9999,9999,188043324
89,2,0,Ticks_Pract_8,2,9999,9999,9999,188843080
89,2,0,Ticks_Pract_8,3,9999,9999,9999,189643880
89,2,0,Ticks_Pract_8,4,9999,9999,9999,190443632
89,2,0,Ticks_Pract_8,5,9999,9999,9999,191243364
89,2,0,Ticks_Pract_8,6,9999,9999,9999,192043124
89,2,0,Ticks_Pract_8,7,9999,9999,9999,192843828
89,2,0,Ticks_Pract_8,8,9999,9999,9999,193643568
89,2,0,Ticks_Pract_8,9,9999,9999,9999,194443376
89,2,0,Ticks_Pract_8,10,9999,9999,9999,195243104
89,2,0,Ticks_Pract_8,11,9999,9999,9999,196043892
89,2,0,Ticks_Pract_8,12,9999,9999,9999,196843620
89,2,0,Ticks_Pract_8,13,9999,9999,9999,197643352
89,2,0,Ticks_Pract_8,14,9999,9999,9999,198443112
89,2,0,Ticks_Pract_8,15,9999,9999,9999,199243892
89,2,0,Ticks_Pract_8,16,9999,9999,9999,200043576
89,2,0,Ticks_Pract_8,17,9999,9999,9999,200843360
89,2,0,Ticks_Pract_8,18,9999,9999,9999,201643100
89,2,0,Ticks_Pract_8,19,9999,9999,9999,202443876
89,2,0,Ticks_Pract_8,20,9999,9999,9999,203243612
89,2,0,Ticks_Pract_8,21,9999,9999,9999,204043340
89,2,0,Ticks_Pract_8,22,9999,9999,9999,204843100
89,2,0,Ticks_Pract_8,23,9999,9999,9999,205643880
89,2,0,Ticks_Pract_8,24,9999,9999,9999,206443620
89,2,0,Ticks_Pract_8,25,9999,9999,9999,207243344
89,2,0,Ticks_Pract_8,26,9999,9999,9999,208043088
89,2,0,Ticks_Pract_8,27,9999,9999,9999,208843860
89,2,0,Ticks_Pract_8,28,9999,9999,9999,209643596
89,2,0,Ticks_Pract_8,29,9999,9999,9999,210443332
89,3,4,T1_SMS_5,0,5,42,127,292688160
89,3,4,T1_SMS_5,1,5,42,127,293187800
89,3,4,T1_SMS_5,2,5,42,127,293687516
89,3,4,T1_SMS_5,3,5,42,127,294188652
89,3,4,T1_SMS_5,4,1,48,25,294609688
89,3,4,T1_SMS_5,5,5,42,127,294687964
89,3,4,T1_SMS_5,6,1,48,34,295055976
89,3,4,T1_SMS_5,7,5,42,127,295187792
89,3,4,T1_SMS_5,8,1,48,30,295532260
89,3,4,T1_SMS_5,9,5,42,127,295687488
89,3,4,T1_SMS_5,10,1,48,29,296000620
89,3,4,T1_SMS_5,11,5,42,127,296188452
89,3,4,T1_SMS_5,12,1,48,20,296606448
89,3,4,T1_SMS_5,13,5,42,127,296687940
89,3,4,T1_SMS_5,14,1,48,25,297181468
89,3,4,T1_SMS_5,15,5,42,127,297187712
89,3,4,T1_SMS_5,16,5,42,127,297688684
89,3,4,T1_SMS_5,17,1,48,28,297719328
89,3,4,T1_SMS_5,18,5,42,127,298188600
89,3,4,T1_SMS_5,19,1,48,34,298229268
89,3,4,T1_SMS_5,20,5,42,127,298687772
89,3,4,T1_SMS_5,21,1,48,32,298748488
89,3,4,T1_SMS_5,22,5,42,127,299187616
89,3,4,T1_SMS_5,23,1,48,30,299229480
89,3,4,T1_SMS_5,24,5,42,127,299688580
89,3,4,T1_SMS_5,25,1,48,32,299702400
89,3,4,T1_SMS_5,26,5,42,127,300187980
89,3,4,T1_SMS_5,27,1,48,27,300208000
89,3,4,T1_SMS_5,28,5,42,127,300687676
89,3,4,T1_SMS_5,29,1,48,28,300713528
89,3,4,T1_SMS_5,30,5,42,127,301187520
89,3,4,T1_SMS_5,31,1,48,27,301196168
89,3,4,T1_SMS_5,32,5,42,127,301688560
89,3,4,T1_SMS_5,33,1,48,30,301697960
89,3,4,T1_SMS_5,34,5,42,127,302188032
89,3,4,T1_SMS_5,35,1,48,31,302202144
89,3,4,T1_SMS_5,36,1,48,27,302681180
89,3,4,T1_SMS_5,37,5,42,127,302687572
89,3,4,T1_SMS_5,38,5,42,127,303188392
89,3,4,T1_SMS_5,39,1,48,29,303206776
89,3,4,T1_SMS_5,40,1,48,29,303660080
89,3,4,T1_SMS_5,41,5,42,127,303687936
89,3,4,T1_SMS_5,42,1,48,24,304172188
89,3,4,T1_SMS_5,43,5,42,127,304187704
89,3,4,T1_SMS_5,44,5,42,127,304687704
89,3,4,T1_SMS_5,45,1,48,29,304699272
89,3,4,T1_SMS_5,46,1,48,23,305188496
89,3,4,T1_SMS_5,47,5,42,127,305189760
89,3,4,T1_SMS_5,48,1,48,29,305656708
89,3,4,T1_SMS_5,49,5,42,127,305687788
89,3,4,T1_SMS_5,50,1,48,28,306173608
89,3,4,T1_SMS_5,51,5,42,127,306187556
89,3,4,T1_SMS_5,52,1,48,29,306665972
89,3,4,T1_SMS_5,53,5,42,127,306688448
89,3,4,T1_SMS_5,54,5,42,127,307188072
89,3,4,T1_SMS_5,55,1,48,30,307203680
89,3,4,T1_SMS_5,56,1,48,30,307683984
89,3,4,T1_SMS_5,57,5,42,127,307687688
89,3,4,T1_SMS_5,58,5,42,127,308187540
89,3,4,T1_SMS_5,59,1,48,28,308196040
89,3,4,T1_SMS_5,60,5,42,127,308688352
89,3,4,T1_SMS_5,61,1,48,31,308697904
89,3,4,T1_SMS_5,62,5,42,127,309187824
89,3,4,T1_SMS_5,63,1,48,27,309209420
89,3,4,T1_SMS_5,64,5,42,127,309687744
89,3,4,T1_SMS_5,65,1,48,29,309698940
89,3,4,T1_SMS_5,66,1,48,27,310176372
89,3,4,T1_SMS_5,67,5,42,127,310188304
89,3,4,T1_SMS_5,68,5,42,127,310688228
89,3,4,T1_SMS_5,69,1,48,27,310693292
89,3,4,T1_SMS_5,70,1,48,32,311178228
89,3,4,T1_SMS_5,71,5,42,127,311187768
89,3,4,T1_SMS_5,72,1,48,30,311670744
89,3,4,T1_SMS_5,73,5,42,127,311687460
89,3,4,T1_SMS_5,74,1,48,24,312172836
89,3,4,T1_SMS_5,75,5,42,127,312188424
89,3,4,T1_SMS_5,76,5,42,127,312687904
89,3,4,T1_SMS_5,77,1,48,26,312692440
89,3,4,T1_SMS_5,78,5,42,127,313187600
89,3,4,T1_SMS_5,79,1,48,33,313194376
89,3,4,T1_SMS_5,80,1,48,29,313679024
89,3,4,T1_SMS_5,81,5,42,127,313688484
89,3,4,T1_SMS_5,82,1,48,29,314152836
89,3,4,T1_SMS_5,83,5,42,127,314188252
89,3,4,T1_SMS_5,84,1,48,25,314657076
89,3,4,T1_SMS_5,85,5,42,127,314688024
89,3,4,T1_SMS_5,86,1,48,28,315162976
89,3,4,T1_SMS_5,87,5,42,127,315187644
89,3,4,T1_SMS_5,88,1,48,24,315673888
89,3,4,T1_SMS_5,89,5,42,127,315688236
89,3,4,T1_SMS_5,90,1,48,25,316160792
89,3,4,T1_SMS_5,91,5,42,127,316187980
89,3,4,T1_SMS_5,92,1,48,23,316651360
89,3,4,T1_SMS_5,93,5,42,127,316687676
89,3,4,T1_SMS_5,94,1,48,26,317164596
89,3,4,T1_SMS_5,95,5,42,127,317187520
89,3,4,T1_SMS_5,96,1,48,26,317665712
89,3,4,T1_SMS_5,97,5,42,127,317688260
89,3,4,T1_SMS_5,98,1,48,28,318174384
89,3,4,T1_SMS_5,99,5,42,127,318187884
89,3,4,T1_SMS_5,100,1,48,27,318677816
89,3,4,T1_SMS_5,101,5,42,127,318687576
89,3,4,T1_SMS_5,102,1,48,27,319179832
89,3,4,T1_SMS_5,103,5,42,127,319188316
89,3,4,T1_SMS_5,104,1,48,27,319661128
89,3,4,T1_SMS_5,105,5,42,127,319688160
89,3,4,T1_SMS_5,106,1,48,28,320163888
89,3,4,T1_SMS_5,107,5,42,127,320187636
89,3,4,T1_SMS_5,108,1,48,27,320656248
89,3,4,T1_SMS_5,109,5,42,127,320687328
89,3,4,T1_SMS_5,110,1,48,28,321168064
89,3,4,T1_SMS_5,111,5,42,127,321188220
89,3,4,T1_SMS_5,112,1,48,22,321675612
89,3,4,T1_SMS_5,113,5,42,127,321688064
89,3,4,T1_SMS_5,114,1,48,28,322132520
89,3,4,T1_SMS_5,115,5,42,127,322187608
89,3,4,T1_SMS_5,116,1,48,26,322641944
89,3,4,T1_SMS_5,117,5,42,127,322688352
89,3,4,T1_SMS_5,118,1,48,26,323154128
89,3,4,T1_SMS_5,119,5,42,127,323188120
89,3,4,T1_SMS_5,120,1,48,21,323639088
89,3,4,T1_SMS_5,121,5,42,127,323687744
89,3,4,T1_SMS_5,122,1,48,20,324168108
89,3,4,T1_SMS_5,123,5,42,127,324187440
89,3,4,T1_SMS_5,124,1,48,25,324656956
89,3,4,T1_SMS_5,125,5,42,127,324688108
89,3,4,T1_SMS_5,126,1,48,21,325168696
89,3,4,T1_SMS_5,127,5,42,127,325188100
89,3,4,T1_SMS_5,128,1,48,29,325645404
89,3,4,T1_SMS_5,129,5,42,127,325687572
89,3,4,T1_SMS_5,130,1,48,27,326173588
89,3,4,T1_SMS_5,131,5,42,127,326188388
89,3,4,T1_SMS_5,132,5,42,127,326688212
89,3,4,T1_SMS_5,133,1,48,29,326692032
89,3,4,T1_SMS_5,134,1,48,19,327184428
89,3,4,T1_SMS_5,135,5,42,127,327187752
89,3,4,T1_SMS_5,136,1,48,26,327665640
89,3,4,T1_SMS_5,137,5,42,127,327687520
89,3,4,T1_SMS_5,138,1,48,28,328180524
89,3,4,T1_SMS_5,139,5,42,127,328188412
89,3,4,T1_SMS_5,140,5,42,127,328688188
89,3,4,T1_SMS_5,141,1,48,19,328695268
89,3,4,T1_SMS_5,142,1,48,27,329162260
89,3,4,T1_SMS_5,143,5,42,127,329187580
89,3,4,T1_SMS_5,144,1,48,29,329668312
89,3,4,T1_SMS_5,145,5,42,127,329688472
89,3,4,T1_SMS_5,146,1,48,26,330160380
89,3,4,T1_SMS_5,147,5,42,127,330188240
89,3,4,T1_SMS_5,148,1,48,29,330651100
89,3,4,T1_SMS_5,149,5,42,127,330687712
89,3,4,T1_SMS_5,150,1,48,23,331155128
89,3,4,T1_SMS_5,151,5,42,127,331187628
89,3,4,T1_SMS_5,152,1,48,27,331649516
89,3,4,T1_SMS_5,153,5,42,127,331688368
89,3,4,T1_SMS_5,154,1,48,24,332133876
89,3,4,T1_SMS_5,155,5,42,127,332188288
89,3,4,T1_SMS_5,156,1,48,26,332645612
89,3,4,T1_SMS_5,157,5,42,127,332687832
89,3,4,T1_SMS_5,158,1,48,26,333180908
89,3,4,T1_SMS_5,159,5,42,127,333187308
89,3,4,T1_SMS_5,160,1,48,28,333670960
89,3,4,T1_SMS_5,161,5,42,127,333688272
89,3,4,T1_SMS_5,162,1,48,25,334157560
89,3,4,T1_SMS_5,163,5,42,127,334188040
89,3,4,T1_SMS_5,164,1,48,26,334666380
89,3,4,T1_SMS_5,165,5,42,127,334687660
89,3,4,T1_SMS_5,166,1,48,24,335180064
89,3,4,T1_SMS_5,167,5,42,127,335188476
89,3,4,T1_SMS_5,168,1,48,24,335665176
89,3,4,T1_SMS_5,169,5,42,127,335688244
89,3,4,T1_SMS_5,170,1,48,23,336162596
89,3,4,T1_SMS_5,171,5,42,127,336188088
89,3,4,T1_SMS_5,172,1,48,27,336660048
89,3,4,T1_SMS_5,173,5,42,127,336687412
89,3,4,T1_SMS_5,174,1,48,22,337165200
89,3,4,T1_SMS_5,175,5,42,127,337188228
89,3,4,T1_SMS_5,176,1,48,27,337656072
89,3,4,T1_SMS_5,177,5,42,127,337688120
89,3,4,T1_SMS_5,178,1,48,21,338165792
89,3,4,T1_SMS_5,179,5,42,127,338187740
89,3,4,T1_SMS_5,180,1,48,27,338676108
89,3,4,T1_SMS_5,181,5,42,127,338688408
89,3,4,T1_SMS_5,182,1,48,21,339160016
89,3,4,T1_SMS_5,183,5,42,127,339188104
89,3,4,T1_SMS_5,184,1,48,25,339674596
89,3,4,T1_SMS_5,185,5,42,127,339688024
89,3,4,T1_SMS_5,186,5,42,127,340187576
89,3,4,T1_SMS_5,187,1,48,28,340190544
89,3,4,T1_SMS_5,188,1,48,27,340663140
89,3,4,T1_SMS_5,189,5,42,127,340688236
89,3,4,T1_SMS_5,190,5,42,127,341188084
89,3,4,T1_SMS_5,191,1,48,26,341209532
89,3,4,T1_SMS_5,192,5,42,127,341687932
89,3,4,T1_SMS_5,193,1,48,25,341719772
89,3,4,T1_SMS_5,194,5,42,127,342188372
89,3,4,T1_SMS_5,195,1,48,25,342205324
89,3,4,T1_SMS_5,196,5,42,127,342688068
89,3,4,T1_SMS_5,197,1,48,22,342727240
89,3,4,T1_SMS_5,198,5,42,127,343187912
89,3,4,T1_SMS_5,199,1,48,26,343203968
89,3,4,T1_SMS_5,200,1,48,25,343687456
89,3,4,T1_SMS_5,201,5,42,127,343688868
89,3,4,T1_SMS_5,202,1,48,23,344168860
89,3,4,T1_SMS_5,203,5,42,127,344188268
89,3,4,T1_SMS_5,204,1,48,23,344679852
89,3,4,T1_SMS_5,205,5,42,127,344687888
89,3,4,T1_SMS_5,206,1,48,23,345171540
89,3,4,T1_SMS_5,207,5,42,127,345187808
89,3,4,T1_SMS_5,208,1,48,26,345668696
89,3,4,T1_SMS_5,209,5,42,127,345688400
89,3,4,T1_SMS_5,210,5,42,127,346188176
89,3,4,T1_SMS_5,211,1,48,26,346189736
89,3,4,T1_SMS_5,212,5,42,127,346687944
89,3,4,T1_SMS_5,213,1,48,25,346698096
89,3,4,T1_SMS_5,214,1,48,25,347181012
89,3,4,T1_SMS_5,215,5,42,127,347187484
89,3,4,T1_SMS_5,216,1,48,25,347659892
89,3,4,T1_SMS_5,217,5,42,127,347688228
89,3,4,T1_SMS_5,218,1,48,27,348185856
89,3,4,T1_SMS_5,219,5,42,127,348187972
89,3,4,T1_SMS_5,220,1,48,21,348686616
89,3,4,T1_SMS_5,221,5,42,127,348688188
89,3,4,T1_SMS_5,222,1,48,26,349170572
89,3,4,T1_SMS_5,223,5,42,127,349187364
89,3,4,T1_SMS_5,224,1,48,23,349670940
89,3,4,T1_SMS_5,225,5,42,127,349688104
89,3,4,T1_SMS_5,226,5,42,127,350187880
89,3,4,T1_SMS_5,227,1,48,26,350192644
89,3,4,T1_SMS_5,228,5,42,127,350687724
89,3,4,T1_SMS_5,229,1,48,22,350690240
89,3,4,T1_SMS_5,230,1,48,18,351178924
89,3,4,T1_SMS_5,231,5,42,127,351188384
89,3,4,T1_SMS_5,232,1,48,26,351665676
89,3,4,T1_SMS_5,233,5,42,127,351688076
89,3,4,T1_SMS_5,234,5,42,127,352187856
89,3,4,T1_SMS_5,235,1,48,25,352214756
89,3,4,T1_SMS_5,236,5,42,127,352687400
89,3,4,T1_SMS_5,237,1,48,22,352720360
89,3,4,T1_SMS_5,238,5,42,127,353188140
89,3,4,T1_SMS_5,239,1,48,26,353192828
89,3,4,T1_SMS_5,240,5,42,127,353687984
89,3,4,T1_SMS_5,241,1,48,19,353695140
89,3,4,T1_SMS_5,242,1,48,22,354141784
89,3,4,T1_SMS_5,243,5,42,127,354187748
89,3,4,T1_SMS_5,244,1,48,28,354660032
89,3,4,T1_SMS_5,245,5,42,127,354688340
89,3,4,T1_SMS_5,246,5,42,127,355187968
89,3,4,T1_SMS_5,247,1,48,27,355206424
89,3,4,T1_SMS_5,248,5,42,127,355687740
89,3,4,T1_SMS_5,249,1,48,24,355701104
89,3,4,T1_SMS_5,250,5,42,127,356187512
89,3,4,T1_SMS_5,251,1,48,26,356199832
89,3,4,T1_SMS_5,252,5,42,127,356688176
89,3,4,T1_SMS_5,253,1,48,26,356692416
89,3,4,T1_SMS_5,254,5,42,127,357188096
89,3,4,T1_SMS_5,255,1,48,27,357201240
89,3,4,T1_SMS_5,0,9999,9999,9999,292685944
89,3,4,T1_SMS_5,1,9999,9999,9999,293185584
89,3,4,T1_SMS_5,2,9999,9999,9999,293685300
89,3,4,T1_SMS_5,3,9999,9999,9999,294186064
89,3,4,T1_SMS_5,4,9999,9999,9999,294685748
89,3,4,T1_SMS_5,5,9999,9999,9999,295185504
89,3,4,T1_SMS_5,6,9999,9999,9999,295685196
89,3,4,T1_SMS_5,7,9999,9999,9999,296185940
89,3,4,T1_SMS_5,8,9999,9999,9999,296685648
89,3,4,T1_SMS_5,9,9999,9999,9999,297185344
89,3,4,T1_SMS_5,10,9999,9999,9999,297686100
89,3,4,T1_SMS_5,11,9999,9999,9999,298185788
89,3,4,T1_SMS_5,12,9999,9999,9999,298685556
89,3,4,T1_SMS_5,13,9999,9999,9999,299185252
89,3,4,T1_SMS_5,14,9999,9999,9999,299685992
89,3,4,T1_SMS_5,15,9999,9999,9999,300185688
89,3,4,T1_SMS_5,16,9999,9999,9999,300685384
89,3,4,T1_SMS_5,17,9999,9999,9999,301185080
89,3,4,T1_SMS_5,18,9999,9999,9999,301685824
89,3,4,T1_SMS_5,19,9999,9999,9999,302185592
89,3,4,T1_SMS_5,20,9999,9999,9999,302685280
89,3,4,T1_SMS_5,21,9999,9999,9999,303186028
89,3,4,T1_SMS_5,22,9999,9999,9999,303685720
89,3,4,T1_SMS_5,23,9999,9999,9999,304185416
89,3,4,T1_SMS_5,24,9999,9999,9999,304685116
89,3,4,T1_SMS_5,25,9999,9999,9999,305185908
89,3,4,T1_SMS_5,26,9999,9999,9999,305685572
89,3,4,T1_SMS_5,27,9999,9999,9999,306185268
89,3,4,T1_SMS_5,28,9999,9999,9999,306686008
89,3,4,T1_SMS_5,29,9999,9999,9999,307185784
89,3,4,T1_SMS_5,30,9999,9999,9999,307685472
89,3,4,T1_SMS_5,31,9999,9999,9999,308185176
89,3,4,T1_SMS_5,32,9999,9999,9999,308685912
89,3,4,T1_SMS_5,33,9999,9999,9999,309185608
89,3,4,T1_SMS_5,34,9999,9999,9999,309685304
89,3,4,T1_SMS_5,35,9999,9999,9999,310186088
89,3,4,T1_SMS_5,36,9999,9999,9999,310685788
89,3,4,T1_SMS_5,37,9999,9999,9999,311185476
89,3,4,T1_SMS_5,38,9999,9999,9999,311685172
89,3,4,T1_SMS_5,39,9999,9999,9999,312185912
89,3,4,T1_SMS_5,40,9999,9999,9999,312685688
89,3,4,T1_SMS_5,41,9999,9999,9999,313185384
89,3,4,T1_SMS_5,42,9999,9999,9999,313686120
89,3,4,T1_SMS_5,43,9999,9999,9999,314185816
89,3,4,T1_SMS_5,44,9999,9999,9999,314685508
89,3,4,T1_SMS_5,45,9999,9999,9999,315185204
89,3,4,T1_SMS_5,46,9999,9999,9999,315685944
89,3,4,T1_SMS_5,47,9999,9999,9999,316185688
89,3,4,T1_SMS_5,48,9999,9999,9999,316685384
89,3,4,T1_SMS_5,49,9999,9999,9999,317185080
89,3,4,T1_SMS_5,50,9999,9999,9999,317685824
89,3,4,T1_SMS_5,51,9999,9999,9999,318185592
89,3,4,T1_SMS_5,52,9999,9999,9999,318685288
89,3,4,T1_SMS_5,53,9999,9999,9999,319186028
89,3,4,T1_SMS_5,54,9999,9999,9999,319685724
89,3,4,T1_SMS_5,55,9999,9999,9999,320185420
89,3,4,T1_SMS_5,56,9999,9999,9999,320685112
89,3,4,T1_SMS_5,57,9999,9999,9999,321185856
89,3,4,T1_SMS_5,58,9999,9999,9999,321685624
89,3,4,T1_SMS_5,59,9999,9999,9999,322185320
89,3,4,T1_SMS_5,60,9999,9999,9999,322686060
89,3,4,T1_SMS_5,61,9999,9999,9999,323185756
89,3,4,T1_SMS_5,62,9999,9999,9999,323685452
89,3,4,T1_SMS_5,63,9999,9999,9999,324185152
89,3,4,T1_SMS_5,64,9999,9999,9999,324685892
89,3,4,T1_SMS_5,65,9999,9999,9999,325185588
89,3,4,T1_SMS_5,66,9999,9999,9999,325685356
89,3,4,T1_SMS_5,67,9999,9999,9999,326186096
89,3,4,T1_SMS_5,68,9999,9999,9999,326685776
89,3,4,T1_SMS_5,69,9999,9999,9999,327185460
89,3,4,T1_SMS_5,70,9999,9999,9999,327685232
89,3,4,T1_SMS_5,71,9999,9999,9999,328185972
89,3,4,T1_SMS_5,72,9999,9999,9999,328685676
89,3,4,T1_SMS_5,73,9999,9999,9999,329185364
89,3,4,T1_SMS_5,74,9999,9999,9999,329686108
89,3,4,T1_SMS_5,75,9999,9999,9999,330185800
89,3,4,T1_SMS_5,76,9999,9999,9999,330685496
89,3,4,T1_SMS_5,77,9999,9999,9999,331185264
89,3,4,T1_SMS_5,78,9999,9999,9999,331686004
89,3,4,T1_SMS_5,79,9999,9999,9999,332185700
89,3,4,T1_SMS_5,80,9999,9999,9999,332685396
89,3,4,T1_SMS_5,81,9999,9999,9999,333185092
89,3,4,T1_SMS_5,82,9999,9999,9999,333685832
89,3,4,T1_SMS_5,83,9999,9999,9999,334185528
89,3,4,T1_SMS_5,84,9999,9999,9999,334685296
89,3,4,T1_SMS_5,85,9999,9999,9999,335186036
89,3,4,T1_SMS_5,86,9999,9999,9999,335685732
89,3,4,T1_SMS_5,87,9999,9999,9999,336185428
89,3,4,T1_SMS_5,88,9999,9999,9999,336685120
89,3,4,T1_SMS_5,89,9999,9999,9999,337185912
89,3,4,T1_SMS_5,90,9999,9999,9999,337685608
89,3,4,T1_SMS_5,91,9999,9999,9999,338185300
89,3,4,T1_SMS_5,92,9999,9999,9999,338686044
89,3,4,T1_SMS_5,93,9999,9999,9999,339185740
89,3,4,T1_SMS_5,94,9999,9999,9999,339685436
89,3,4,T1_SMS_5,95,9999,9999,9999,340185136
89,3,4,T1_SMS_5,96,9999,9999,9999,340685944
89,3,4,T1_SMS_5,97,9999,9999,9999,341185648
89,3,4,T1_SMS_5,98,9999,9999,9999,341685344
89,3,4,T1_SMS_5,99,9999,9999,9999,342186084
89,3,4,T1_SMS_5,100,9999,9999,9999,342685776
89,3,4,T1_SMS_5,101,9999,9999,9999,343185472
89,3,4,T1_SMS_5,102,9999,9999,9999,343685240
89,3,4,T1_SMS_5,103,9999,9999,9999,344185976
89,3,4,T1_SMS_5,104,9999,9999,9999,344685672
89,3,4,T1_SMS_5,105,9999,9999,9999,345185368
89,3,4,T1_SMS_5,106,9999,9999,9999,345686116
89,3,4,T1_SMS_5,107,9999,9999,9999,346185812
89,3,4,T1_SMS_5,108,9999,9999,9999,346685504
89,3,4,T1_SMS_5,109,9999,9999,9999,347185268
89,3,4,T1_SMS_5,110,9999,9999,9999,347685936
89,3,4,T1_SMS_5,111,9999,9999,9999,348185724
89,3,4,T1_SMS_5,112,9999,9999,9999,348685384
89,3,4,T1_SMS_5,113,9999,9999,9999,349185072
89,3,4,T1_SMS_5,114,9999,9999,9999,349685816
89,3,4,T1_SMS_5,115,9999,9999,9999,350185592
89,3,4,T1_SMS_5,116,9999,9999,9999,350685284
89,3,4,T1_SMS_5,117,9999,9999,9999,351186020
89,3,4,T1_SMS_5,118,9999,9999,9999,351685712
89,3,4,T1_SMS_5,119,9999,9999,9999,352185416
89,3,4,T1_SMS_5,120,9999,9999,9999,352685108
89,3,4,T1_SMS_5,121,9999,9999,9999,353185848
89,3,4,T1_SMS_5,122,9999,9999,9999,353685620
89,3,4,T1_SMS_5,123,9999,9999,9999,354185308
89,3,4,T1_SMS_5,124,9999,9999,9999,354686052
89,3,4,T1_SMS_5,125,9999,9999,9999,355185752
89,3,4,T1_SMS_5,126,9999,9999,9999,355685448
89,3,4,T1_SMS_5,127,9999,9999,9999,356185144
89,3,4,T1_SMS_5,128,9999,9999,9999,356685888
89,3,4,T1_SMS_5,129,9999,9999,9999,357185656
89,4,2,T1_SMS_8,0,5,42,127,439355684
89,4,2,T1_SMS_8,1,5,42,127,440155512
89,4,2,T1_SMS_8,2,1,48,34,440897036
89,4,2,T1_SMS_8,3,5,42,127,440956380
89,4,2,T1_SMS_8,4,1,48,38,441713596
89,4,2,T1_SMS_8,5,5,42,127,441755968
89,4,2,T1_SMS_8,6,1,48,36,442489248
89,4,2,T1_SMS_8,7,5,42,127,442555700
89,4,2,T1_SMS_8,8,1,48,37,443300424
89,4,2,T1_SMS_8,9,5,42,127,443355436
89,4,2,T1_SMS_8,10,1,48,39,444104344
89,4,2,T1_SMS_8,11,5,42,127,444156212
89,4,2,T1_SMS_8,12,1,48,39,444908268
89,4,2,T1_SMS_8,13,5,42,127,444956096
89,4,2,T1_SMS_8,14,1,48,37,445721068
89,4,2,T1_SMS_8,15,5,42,127,445755608
89,4,2,T1_SMS_8,16,1,48,34,446526960
89,4,2,T1_SMS_8,17,5,42,127,446555412
89,4,2,T1_SMS_8,18,1,48,30,447346212
89,4,2,T1_SMS_8,19,5,42,127,447356420
89,4,2,T1_SMS_8,20,1,48,35,448142204
89,4,2,T1_SMS_8,21,5,42,127,448156000
89,4,2,T1_SMS_8,22,5,42,127,448955744
89,4,2,T1_SMS_8,23,1,48,32,448958496
89,4,2,T1_SMS_8,24,1,48,28,449728284
89,4,2,T1_SMS_8,25,5,42,127,449755544
89,4,2,T1_SMS_8,26,1,48,32,450501844
89,4,2,T1_SMS_8,27,5,42,127,450556472
89,4,2,T1_SMS_8,28,1,48,30,451336284
89,4,2,T1_SMS_8,29,5,42,127,451356132
89,4,2,T1_SMS_8,30,5,42,127,452155748
89,4,2,T1_SMS_8,31,1,48,29,452160140
89,4,2,T1_SMS_8,32,5,42,127,452955408
89,4,2,T1_SMS_8,33,1,48,32,452966376
89,4,2,T1_SMS_8,34,1,48,32,453754824
89,4,2,T1_SMS_8,35,5,42,127,453756256
89,4,2,T1_SMS_8,36,5,42,127,454556068
89,4,2,T1_SMS_8,37,1,48,24,454584548
89,4,2,T1_SMS_8,38,5,42,127,455355728
89,4,2,T1_SMS_8,39,1,48,32,455379048
89,4,2,T1_SMS_8,40,5,42,127,456155460
89,4,2,T1_SMS_8,41,1,48,38,456161352
89,4,2,T1_SMS_8,42,5,42,127,456956240
89,4,2,T1_SMS_8,43,1,48,31,457016004
89,4,2,T1_SMS_8,44,5,42,127,457756124
89,4,2,T1_SMS_8,45,1,48,36,457773704
89,4,2,T1_SMS_8,46,5,42,127,458555808
89,4,2,T1_SMS_8,47,1,48,30,458562596
89,4,2,T1_SMS_8,48,1,48,32,459350344
89,4,2,T1_SMS_8,49,5,42,127,459355536
89,4,2,T1_SMS_8,50,1,48,34,460151272
89,4,2,T1_SMS_8,51,5,42,127,460156240
89,4,2,T1_SMS_8,52,1,48,41,460933652
89,4,2,T1_SMS_8,53,5,42,127,460956196
89,4,2,T1_SMS_8,54,1,48,38,461727780
89,4,2,T1_SMS_8,55,5,42,127,461755708
89,4,2,T1_SMS_8,56,1,48,31,462509928
89,4,2,T1_SMS_8,57,5,42,127,462555440
89,4,2,T1_SMS_8,58,1,48,32,463344296
89,4,2,T1_SMS_8,59,5,42,127,463356220
89,4,2,T1_SMS_8,60,5,42,127,464156112
89,4,2,T1_SMS_8,61,1,48,33,464167560
89,4,2,T1_SMS_8,62,1,48,33,464924312
89,4,2,T1_SMS_8,63,5,42,127,464955612
89,4,2,T1_SMS_8,64,1,48,37,465717472
89,4,2,T1_SMS_8,65,5,42,127,465755420
89,4,2,T1_SMS_8,66,1,48,27,466525204
89,4,2,T1_SMS_8,67,5,42,127,466556200
89,4,2,T1_SMS_8,68,1,48,30,467319696
89,4,2,T1_SMS_8,69,5,42,127,467356084
89,4,2,T1_SMS_8,70,1,48,31,468123172
89,4,2,T1_SMS_8,71,5,42,127,468155740
89,4,2,T1_SMS_8,72,1,48,28,468923204
89,4,2,T1_SMS_8,73,5,42,127,468955400
89,4,2,T1_SMS_8,74,1,48,33,469739620
89,4,2,T1_SMS_8,75,5,42,127,469756256
89,4,2,T1_SMS_8,76,5,42,127,470556220
89,4,2,T1_SMS_8,77,1,48,27,470571532
89,4,2,T1_SMS_8,78,1,48,30,471351356
89,4,2,T1_SMS_8,79,5,42,127,471355872
89,4,2,T1_SMS_8,80,1,48,37,472140688
89,4,2,T1_SMS_8,81,5,42,127,472155384
89,4,2,T1_SMS_8,82,1,48,39,472938632
89,4,2,T1_SMS_8,83,5,42,127,472956240
89,4,2,T1_SMS_8,84,1,48,34,473724524
89,4,2,T1_SMS_8,85,5,42,127,473756120
89,4,2,T1_SMS_8,86,1,48,34,474529272
89,4,2,T1_SMS_8,87,5,42,127,474555632
89,4,2,T1_SMS_8,88,1,48,27,475334764
89,4,2,T1_SMS_8,89,5,42,127,475355512
89,4,2,T1_SMS_8,90,5,42,127,476156152
89,4,2,T1_SMS_8,91,1,48,29,476159720
89,4,2,T1_SMS_8,92,1,48,26,476953912
89,4,2,T1_SMS_8,93,5,42,127,476956176
89,4,2,T1_SMS_8,94,1,48,35,477734484
89,4,2,T1_SMS_8,95,5,42,127,477755760
89,4,2,T1_SMS_8,96,1,48,37,478530704
89,4,2,T1_SMS_8,97,5,42,127,478555492
89,4,2,T1_SMS_8,98,1,48,29,479349288
89,4,2,T1_SMS_8,99,5,42,127,479356200
89,4,2,T1_SMS_8,100,1,48,30,480110424
89,4,2,T1_SMS_8,101,5,42,127,480156156
89,4,2,T1_SMS_8,102,1,48,33,480904472
89,4,2,T1_SMS_8,103,5,42,127,480955964
89,4,2,T1_SMS_8,104,1,48,26,481749760
89,4,2,T1_SMS_8,105,5,42,127,481755476
89,4,2,T1_SMS_8,106,1,48,31,482547024
89,4,2,T1_SMS_8,107,5,42,127,482556256
89,4,2,T1_SMS_8,108,5,42,127,483356244
89,4,2,T1_SMS_8,109,1,48,31,483365948
89,4,2,T1_SMS_8,110,5,42,127,484155900
89,4,2,T1_SMS_8,111,1,48,26,484176976
89,4,2,T1_SMS_8,112,1,48,27,484944304
89,4,2,T1_SMS_8,113,5,42,127,484955556
89,4,2,T1_SMS_8,114,1,48,35,485716956
89,4,2,T1_SMS_8,115,5,42,127,485756188
89,4,2,T1_SMS_8,116,1,48,31,486545564
89,4,2,T1_SMS_8,117,5,42,127,486556068
89,4,2,T1_SMS_8,118,1,48,29,487338120
89,4,2,T1_SMS_8,119,5,42,127,487355952
89,4,2,T1_SMS_8,120,1,48,30,488140168
89,4,2,T1_SMS_8,121,5,42,127,488155384
89,4,2,T1_SMS_8,122,5,42,127,488956320
89,4,2,T1_SMS_8,123,1,48,26,488977696
89,4,2,T1_SMS_8,124,1,48,35,489748312
89,4,2,T1_SMS_8,125,5,42,127,489756000
89,4,2,T1_SMS_8,126,5,42,127,490556260
89,4,2,T1_SMS_8,127,1,48,25,490596484
89,4,2,T1_SMS_8,128,5,42,127,491355396
89,4,2,T1_SMS_8,129,1,48,29,491364948
89,4,2,T1_SMS_8,130,1,48,28,492134072
89,4,2,T1_SMS_8,131,5,42,127,492156244
89,4,2,T1_SMS_8,132,1,48,33,492932464
89,4,2,T1_SMS_8,133,5,42,127,492956128
89,4,2,T1_SMS_8,134,5,42,127,493755868
89,4,2,T1_SMS_8,135,1,48,33,493757432
89,4,2,T1_SMS_8,136,5,42,127,494555380
89,4,2,T1_SMS_8,137,1,48,34,494564856
89,4,2,T1_SMS_8,138,5,42,127,495356308
89,4,2,T1_SMS_8,139,1,48,36,495360108
89,4,2,T1_SMS_8,140,1,48,32,496154992
89,4,2,T1_SMS_8,141,5,42,127,496156788
89,4,2,T1_SMS_8,142,1,48,32,496948108
89,4,2,T1_SMS_8,143,5,42,127,496955696
89,4,2,T1_SMS_8,144,1,48,27,497753464
89,4,2,T1_SMS_8,145,5,42,127,497755432
89,4,2,T1_SMS_8,146,5,42,127,498556292
89,4,2,T1_SMS_8,147,1,48,35,498557336
89,4,2,T1_SMS_8,148,1,48,41,499352848
89,4,2,T1_SMS_8,149,5,42,127,499356096
89,4,2,T1_SMS_8,150,5,42,127,500155760
89,4,2,T1_SMS_8,151,1,48,33,500160528
89,4,2,T1_SMS_8,152,5,42,127,500955644
89,4,2,T1_SMS_8,153,1,48,34,500977316
89,4,2,T1_SMS_8,154,5,42,127,501756272
89,4,2,T1_SMS_8,155,1,48,38,501760964
89,4,2,T1_SMS_8,156,5,42,127,502556032
89,4,2,T1_SMS_8,157,1,48,34,502574708
89,4,2,T1_SMS_8,158,5,42,127,503355840
89,4,2,T1_SMS_8,159,1,48,32,503399124
89,4,2,T1_SMS_8,160,5,42,127,504155572
89,4,2,T1_SMS_8,161,1,48,32,504191160
89,4,2,T1_SMS_8,162,5,42,127,504956132
89,4,2,T1_SMS_8,163,1,48,29,505027168
89,4,2,T1_SMS_8,164,5,42,127,505756088
89,4,2,T1_SMS_8,165,1,48,32,506065452
89,4,2,T1_SMS_8,166,5,42,127,506555748
89,4,2,T1_SMS_8,167,1,48,29,506726140
89,4,2,T1_SMS_8,168,5,42,127,507355628
89,4,2,T1_SMS_8,169,1,48,26,507479948
89,4,2,T1_SMS_8,170,5,42,127,508156260
89,4,2,T1_SMS_8,171,1,48,33,508217380
89,4,2,T1_SMS_8,172,5,42,127,508955944
89,4,2,T1_SMS_8,173,1,48,39,508987492
89,4,2,T1_SMS_8,174,1,48,34,509715368
89,4,2,T1_SMS_8,175,5,42,127,509755748
89,4,2,T1_SMS_8,176,1,48,31,510518572
89,4,2,T1_SMS_8,177,5,42,127,510555628
89,4,2,T1_SMS_8,178,1,48,37,511298712
89,4,2,T1_SMS_8,179,5,42,127,511356556
89,4,2,T1_SMS_8,180,1,48,28,512115944
89,4,2,T1_SMS_8,181,5,42,127,512156064
89,4,2,T1_SMS_8,182,1,48,31,512866908
89,4,2,T1_SMS_8,183,5,42,127,512955948
89,4,2,T1_SMS_8,184,1,48,32,513667612
89,4,2,T1_SMS_8,185,5,42,127,513755608
89,4,2,T1_SMS_8,186,1,48,28,514428824
89,4,2,T1_SMS_8,187,5,42,127,514556296
89,4,2,T1_SMS_8,188,1,48,33,515237684
89,4,2,T1_SMS_8,189,5,42,127,515355908
89,4,2,T1_SMS_8,190,1,48,29,516046244
89,4,2,T1_SMS_8,191,5,42,127,516155788
89,4,2,T1_SMS_8,192,1,48,31,516879936
89,4,2,T1_SMS_8,193,5,42,127,516955688
89,4,2,T1_SMS_8,194,1,48,35,517682908
89,4,2,T1_SMS_8,195,5,42,127,517756392
89,4,2,T1_SMS_8,196,1,48,30,518484588
89,4,2,T1_SMS_8,197,5,42,127,518555980
89,4,2,T1_SMS_8,198,1,48,37,519293228
89,4,2,T1_SMS_8,199,5,42,127,519355716
89,4,2,T1_SMS_8,200,1,48,33,520108668
89,4,2,T1_SMS_8,201,5,42,127,520155672
89,4,2,T1_SMS_8,202,1,48,39,520892316
89,4,2,T1_SMS_8,203,5,42,127,520956376
89,4,2,T1_SMS_8,204,1,48,29,521718456
89,4,2,T1_SMS_8,205,5,42,127,521755984
89,4,2,T1_SMS_8,206,1,48,33,522523444
89,4,2,T1_SMS_8,207,5,42,127,522555644
89,4,2,T1_SMS_8,208,1,48,28,523328720
89,4,2,T1_SMS_8,209,5,42,127,523355600
89,4,2,T1_SMS_8,210,1,48,32,524111468
89,4,2,T1_SMS_8,211,5,42,127,524156456
89,4,2,T1_SMS_8,212,1,48,29,524904624
89,4,2,T1_SMS_8,213,5,42,127,524955964
89,4,2,T1_SMS_8,214,1,48,36,525683260
89,4,2,T1_SMS_8,215,5,42,127,525755700
89,4,2,T1_SMS_8,216,1,48,28,526459212
89,4,2,T1_SMS_8,217,5,42,127,526555508
89,4,2,T1_SMS_8,218,5,42,127,527356444
89,4,2,T1_SMS_8,219,1,48,38,528017636
89,4,2,T1_SMS_8,220,5,42,127,528155976
89,4,2,T1_SMS_8,221,1,48,38,528800688
89,4,2,T1_SMS_8,222,5,42,127,528955636
89,4,2,T1_SMS_8,223,1,48,28,529642232
89,4,2,T1_SMS_8,224,5,42,127,529755372
89,4,2,T1_SMS_8,225,1,48,28,530434116
89,4,2,T1_SMS_8,226,5,42,127,530556372
89,4,2,T1_SMS_8,227,1,48,29,531231928
89,4,2,T1_SMS_8,228,5,42,127,531356032
89,4,2,T1_SMS_8,229,1,48,28,532027320
89,4,2,T1_SMS_8,230,5,42,127,532155764
89,4,2,T1_SMS_8,231,1,48,29,532830796
89,4,2,T1_SMS_8,232,5,42,127,532955500
89,4,2,T1_SMS_8,233,1,48,28,533640552
89,4,2,T1_SMS_8,234,5,42,127,533756504
89,4,2,T1_SMS_8,235,1,48,28,534449488
89,4,2,T1_SMS_8,236,5,42,127,534556036
89,4,2,T1_SMS_8,237,1,48,29,535265376
89,4,2,T1_SMS_8,0,9999,9999,9999,439353396
89,4,2,T1_SMS_8,1,9999,9999,9999,440153148
89,4,2,T1_SMS_8,2,9999,9999,9999,440953944
89,4,2,T1_SMS_8,3,9999,9999,9999,441753680
89,4,2,T1_SMS_8,4,9999,9999,9999,442553412
89,4,2,T1_SMS_8,5,9999,9999,9999,443353144
89,4,2,T1_SMS_8,6,9999,9999,9999,444153924
89,4,2,T1_SMS_8,7,9999,9999,9999,444953660
89,4,2,T1_SMS_8,8,9999,9999,9999,445753392
89,4,2,T1_SMS_8,9,9999,9999,9999,446553200
89,4,2,T1_SMS_8,10,9999,9999,9999,447353908
89,4,2,T1_SMS_8,11,9999,9999,9999,448153712
89,4,2,T1_SMS_8,12,9999,9999,9999,448953456
89,4,2,T1_SMS_8,13,9999,9999,9999,449753184
89,4,2,T1_SMS_8,14,9999,9999,9999,450553964
89,4,2,T1_SMS_8,15,9999,9999,9999,451353696
89,4,2,T1_SMS_8,16,9999,9999,9999,452153460
89,4,2,T1_SMS_8,17,9999,9999,9999,452953196
89,4,2,T1_SMS_8,18,9999,9999,9999,453753976
89,4,2,T1_SMS_8,19,9999,9999,9999,454553708
89,4,2,T1_SMS_8,20,9999,9999,9999,455353440
89,4,2,T1_SMS_8,21,9999,9999,9999,456153172
89,4,2,T1_SMS_8,22,9999,9999,9999,456953952
89,4,2,T1_SMS_8,23,9999,9999,9999,457753688
89,4,2,T1_SMS_8,24,9999,9999,9999,458553444
89,4,2,T1_SMS_8,25,9999,9999,9999,459353172
89,4,2,T1_SMS_8,26,9999,9999,9999,460153952
89,4,2,T1_SMS_8,27,9999,9999,9999,460953688
89,4,2,T1_SMS_8,28,9999,9999,9999,461753420
89,4,2,T1_SMS_8,29,9999,9999,9999,462553152
89,4,2,T1_SMS_8,30,9999,9999,9999,463353936
89,4,2,T1_SMS_8,31,9999,9999,9999,464153672
89,4,2,T1_SMS_8,32,9999,9999,9999,464953400
89,4,2,T1_SMS_8,33,9999,9999,9999,465753132
89,4,2,T1_SMS_8,34,9999,9999,9999,466553912
89,4,2,T1_SMS_8,35,9999,9999,9999,467353648
89,4,2,T1_SMS_8,36,9999,9999,9999,468153452
89,4,2,T1_SMS_8,37,9999,9999,9999,468953188
89,4,2,T1_SMS_8,38,9999,9999,9999,469753968
89,4,2,T1_SMS_8,39,9999,9999,9999,470553708
89,4,2,T1_SMS_8,40,9999,9999,9999,471353436
89,4,2,T1_SMS_8,41,9999,9999,9999,472153172
89,4,2,T1_SMS_8,42,9999,9999,9999,472953952
89,4,2,T1_SMS_8,43,9999,9999,9999,473753684
89,4,2,T1_SMS_8,44,9999,9999,9999,474553416
89,4,2,T1_SMS_8,45,9999,9999,9999,475353152
89,4,2,T1_SMS_8,46,9999,9999,9999,476153936
89,4,2,T1_SMS_8,47,9999,9999,9999,476953704
89,4,2,T1_SMS_8,48,9999,9999,9999,477753396
89,4,2,T1_SMS_8,49,9999,9999,9999,478553204
89,4,2,T1_SMS_8,50,9999,9999,9999,479353912
89,4,2,T1_SMS_8,51,9999,9999,9999,480153644
89,4,2,T1_SMS_8,52,9999,9999,9999,480953452
89,4,2,T1_SMS_8,53,9999,9999,9999,481753188
89,4,2,T1_SMS_8,54,9999,9999,9999,482553968
89,4,2,T1_SMS_8,55,9999,9999,9999,483353708
89,4,2,T1_SMS_8,56,9999,9999,9999,484153392
89,4,2,T1_SMS_8,57,9999,9999,9999,484953192
89,4,2,T1_SMS_8,58,9999,9999,9999,485753972
89,4,2,T1_SMS_8,59,9999,9999,9999,486553704
89,4,2,T1_SMS_8,60,9999,9999,9999,487353440
89,4,2,T1_SMS_8,61,9999,9999,9999,488153172
89,4,2,T1_SMS_8,62,9999,9999,9999,488953960
89,4,2,T1_SMS_8,63,9999,9999,9999,489753688
89,4,2,T1_SMS_8,64,9999,9999,9999,490553448
89,4,2,T1_SMS_8,65,9999,9999,9999,491353184
89,4,2,T1_SMS_8,66,9999,9999,9999,492153956
89,4,2,T1_SMS_8,67,9999,9999,9999,492953692
89,4,2,T1_SMS_8,68,9999,9999,9999,493753432
89,4,2,T1_SMS_8,69,9999,9999,9999,494553164
89,4,2,T1_SMS_8,70,9999,9999,9999,495353948
89,4,2,T1_SMS_8,71,9999,9999,9999,496153680
89,4,2,T1_SMS_8,72,9999,9999,9999,496953408
89,4,2,T1_SMS_8,73,9999,9999,9999,497753180
89,4,2,T1_SMS_8,74,9999,9999,9999,498553928
89,4,2,T1_SMS_8,75,9999,9999,9999,499353656
89,4,2,T1_SMS_8,76,9999,9999,9999,500153400
89,4,2,T1_SMS_8,77,9999,9999,9999,500953204
89,4,2,T1_SMS_8,78,9999,9999,9999,501753912
89,4,2,T1_SMS_8,79,9999,9999,9999,502553720
89,4,2,T1_SMS_8,80,9999,9999,9999,503353404
89,4,2,T1_SMS_8,81,9999,9999,9999,504153136
89,4,2,T1_SMS_8,82,9999,9999,9999,504953916
89,4,2,T1_SMS_8,83,9999,9999,9999,505753652
89,4,2,T1_SMS_8,84,9999,9999,9999,506553460
89,4,2,T1_SMS_8,85,9999,9999,9999,507353192
89,4,2,T1_SMS_8,86,9999,9999,9999,508153972
89,4,2,T1_SMS_8,87,9999,9999,9999,508953708
89,4,2,T1_SMS_8,88,9999,9999,9999,509753460
89,4,2,T1_SMS_8,89,9999,9999,9999,510553192
89,4,2,T1_SMS_8,90,9999,9999,9999,511353972
89,4,2,T1_SMS_8,91,9999,9999,9999,512153704
89,4,2,T1_SMS_8,92,9999,9999,9999,512953436
89,4,2,T1_SMS_8,93,9999,9999,9999,513753172
89,4,2,T1_SMS_8,94,9999,9999,9999,514553936
89,4,2,T1_SMS_8,95,9999,9999,9999,515353672
89,4,2,T1_SMS_8,96,9999,9999,9999,516153428
89,4,2,T1_SMS_8,97,9999,9999,9999,516953176
89,4,2,T1_SMS_8,98,9999,9999,9999,517753956
89,4,2,T1_SMS_8,99,9999,9999,9999,518553692
89,4,2,T1_SMS_8,100,9999,9999,9999,519353428
89,4,2,T1_SMS_8,101,9999,9999,9999,520153160
89,4,2,T1_SMS_8,102,9999,9999,9999,520953940
89,4,2,T1_SMS_8,103,9999,9999,9999,521753700
89,4,2,T1_SMS_8,104,9999,9999,9999,522553432
89,4,2,T1_SMS_8,105,9999,9999,9999,523353164
89,4,2,T1_SMS_8,106,9999,9999,9999,524153944
89,4,2,T1_SMS_8,107,9999,9999,9999,524953676
89,4,2,T1_SMS_8,108,9999,9999,9999,525753412
89,4,2,T1_SMS_8,109,9999,9999,9999,526553144
89,4,2,T1_SMS_8,110,9999,9999,9999,527353932
89,4,2,T1_SMS_8,111,9999,9999,9999,528153688
89,4,2,T1_SMS_8,112,9999,9999,9999,528953424
89,4,2,T1_SMS_8,113,9999,9999,9999,529753156
89,4,2,T1_SMS_8,114,9999,9999,9999,530553936
89,4,2,T1_SMS_8,115,9999,9999,9999,531353672
89,4,2,T1_SMS_8,116,9999,9999,9999,532153404
89,4,2,T1_SMS_8,117,9999,9999,9999,532953136
89,4,2,T1_SMS_8,118,9999,9999,9999,533753920
89,4,2,T1_SMS_8,119,9999,9999,9999,534553676
89,5,21,Ticks_Linear_5,0,5,42,127,545570328
89,5,21,Ticks_Linear_5,1,5,42,127,546050556
89,5,21,Ticks_Linear_5,2,5,42,127,546540092
89,5,21,Ticks_Linear_5,3,5,42,127,547020416
89,5,21,Ticks_Linear_5,4,1,48,32,547475828
89,5,21,Ticks_Linear_5,5,5,42,127,547500436
89,5,21,Ticks_Linear_5,6,1,48,39,547949400
89,5,21,Ticks_Linear_5,7,5,42,127,547989952
89,5,21,Ticks_Linear_5,8,1,48,31,548173556
89,5,21,Ticks_Linear_5,9,1,48,30,548446224
89,5,21,Ticks_Linear_5,10,5,42,127,548480492
89,5,21,Ticks_Linear_5,11,1,48,34,548931104
89,5,21,Ticks_Linear_5,12,5,42,127,548969788
89,5,21,Ticks_Linear_5,13,1,48,13,549194648
89,5,21,Ticks_Linear_5,14,1,48,30,549456384
89,5,21,Ticks_Linear_5,15,5,42,127,549460548
89,5,21,Ticks_Linear_5,16,5,42,127,549949996
89,5,21,Ticks_Linear_5,17,1,48,32,549967564
89,5,21,Ticks_Linear_5,18,1,48,36,550440440
89,5,21,Ticks_Linear_5,19,5,42,127,550449540
89,5,21,Ticks_Linear_5,20,1,48,38,550932848
89,5,21,Ticks_Linear_5,21,5,42,127,550950288
89,5,21,Ticks_Linear_5,22,1,48,13,551197168
89,5,21,Ticks_Linear_5,23,5,42,127,551450120
89,5,21,Ticks_Linear_5,24,1,48,36,551469348
89,5,21,Ticks_Linear_5,25,5,42,127,551949572
89,5,21,Ticks_Linear_5,26,1,48,32,551970540
89,5,21,Ticks_Linear_5,27,5,42,127,552450320
89,5,21,Ticks_Linear_5,28,1,48,36,552463020
89,5,21,Ticks_Linear_5,29,1,48,39,552926228
89,5,21,Ticks_Linear_5,30,5,42,127,552969632
89,5,21,Ticks_Linear_5,31,1,48,36,553436484
89,5,21,Ticks_Linear_5,32,5,42,127,553479440
89,5,21,Ticks_Linear_5,33,1,48,36,553934536
89,5,21,Ticks_Linear_5,34,5,42,127,553989476
89,5,21,Ticks_Linear_5,35,1,48,35,554480296
89,5,21,Ticks_Linear_5,36,5,42,127,554499432
89,5,21,Ticks_Linear_5,37,1,48,37,554993096
89,5,21,Ticks_Linear_5,38,5,42,127,555010364
89,5,21,Ticks_Linear_5,39,1,48,36,555505596
89,5,21,Ticks_Linear_5,40,5,42,127,555540020
89,5,21,Ticks_Linear_5,41,1,48,39,555987252
89,5,21,Ticks_Linear_5,42,5,42,127,556060040
89,5,21,Ticks_Linear_5,43,1,48,35,556525364
89,5,21,Ticks_Linear_5,44,5,42,127,556580180
89,5,21,Ticks_Linear_5,45,1,48,37,557027476
89,5,21,Ticks_Linear_5,46,5,42,127,557100400
89,5,21,Ticks_Linear_5,47,1,48,38,557547228
89,5,21,Ticks_Linear_5,48,5,42,127,557619496
89,5,21,Ticks_Linear_5,49,1,48,31,558073516
89,5,21,Ticks_Linear_5,50,5,42,127,558150120
89,5,21,Ticks_Linear_5,51,1,48,39,558588056
89,5,21,Ticks_Linear_5,52,5,42,127,558680372
89,5,21,Ticks_Linear_5,53,1,48,35,559090292
89,5,21,Ticks_Linear_5,54,5,42,127,559220120
89,5,21,Ticks_Linear_5,55,1,48,30,559686240
89,5,21,Ticks_Linear_5,56,5,42,127,559749420
89,5,21,Ticks_Linear_5,57,1,48,36,560214028
89,5,21,Ticks_Linear_5,58,5,42,127,560280044
89,5,21,Ticks_Linear_5,59,1,48,29,560783744
89,5,21,Ticks_Linear_5,60,5,42,127,560819588
89,5,21,Ticks_Linear_5,61,1,48,31,561309508
89,5,21,Ticks_Linear_5,62,5,42,127,561360172
89,5,21,Ticks_Linear_5,63,1,48,30,561850244
89,5,21,Ticks_Linear_5,64,5,42,127,561900012
89,5,21,Ticks_Linear_5,65,1,48,29,562384836
89,5,21,Ticks_Linear_5,66,5,42,127,562439480
89,5,21,Ticks_Linear_5,67,1,48,29,562940188
89,5,21,Ticks_Linear_5,68,5,42,127,562980164
89,5,21,Ticks_Linear_5,69,1,48,29,563475676
89,5,21,Ticks_Linear_5,70,5,42,127,563530188
89,5,21,Ticks_Linear_5,71,1,48,28,564045044
89,5,21,Ticks_Linear_5,72,5,42,127,564079912
89,5,21,Ticks_Linear_5,73,1,48,33,564603984
89,5,21,Ticks_Linear_5,74,5,42,127,564629860
89,5,21,Ticks_Linear_5,75,1,48,32,565159700
89,5,21,Ticks_Linear_5,76,5,42,127,565179884
89,5,21,Ticks_Linear_5,77,1,48,36,565684928
89,5,21,Ticks_Linear_5,78,5,42,127,565729832
89,5,21,Ticks_Linear_5,79,1,48,32,566247996
89,5,21,Ticks_Linear_5,80,5,42,127,566289964
89,5,21,Ticks_Linear_5,81,1,48,33,566822820
89,5,21,Ticks_Linear_5,82,5,42,127,566850052
89,5,21,Ticks_Linear_5,83,1,48,33,567388208
89,5,21,Ticks_Linear_5,84,5,42,127,567410184
89,5,21,Ticks_Linear_5,85,1,48,38,567949836
89,5,21,Ticks_Linear_5,86,5,42,127,567970316
89,5,21,Ticks_Linear_5,87,1,48,41,568521720
89,5,21,Ticks_Linear_5,88,5,42,127,568530228
89,5,21,Ticks_Linear_5,89,1,48,35,569082680
89,5,21,Ticks_Linear_5,90,5,42,127,569099500
89,5,21,Ticks_Linear_5,91,1,48,39,569639624
89,5,21,Ticks_Linear_5,92,5,42,127,569669992
89,5,21,Ticks_Linear_5,93,1,48,32,570239564
89,5,21,Ticks_Linear_5,94,5,42,127,570241132
89,5,21,Ticks_Linear_5,95,1,48,38,570796056
89,5,21,Ticks_Linear_5,96,5,42,127,570809728
89,5,21,Ticks_Linear_5,97,1,48,35,571304664
89,5,21,Ticks_Linear_5,98,5,42,127,571380048
89,5,21,Ticks_Linear_5,99,1,48,35,571855436
89,5,21,Ticks_Linear_5,100,5,42,127,571959812
89,5,21,Ticks_Linear_5,101,1,48,35,572433624
89,5,21,Ticks_Linear_5,102,5,42,127,572540240
89,5,21,Ticks_Linear_5,103,1,48,36,572962032
89,5,21,Ticks_Linear_5,104,5,42,127,573119916
89,5,21,Ticks_Linear_5,105,1,48,32,573535488
89,5,21,Ticks_Linear_5,106,5,42,127,573699372
89,5,21,Ticks_Linear_5,107,1,48,20,574125352
89,5,21,Ticks_Linear_5,108,5,42,127,574279976
89,5,21,Ticks_Linear_5,109,1,48,18,574765116
89,5,21,Ticks_Linear_5,110,5,42,127,574869988
89,5,21,Ticks_Linear_5,111,1,48,29,575307888
89,5,21,Ticks_Linear_5,112,5,42,127,575459628
89,5,21,Ticks_Linear_5,113,1,48,30,575890108
89,5,21,Ticks_Linear_5,114,5,42,127,576049812
89,5,21,Ticks_Linear_5,115,1,48,26,576490532
89,5,21,Ticks_Linear_5,116,5,42,127,576640500
89,5,21,Ticks_Linear_5,117,1,48,31,577056972
89,5,21,Ticks_Linear_5,118,5,42,127,577230144
89,5,21,Ticks_Linear_5,119,1,48,32,577671256
89,5,21,Ticks_Linear_5,120,5,42,127,577830216
89,5,21,Ticks_Linear_5,121,1,48,30,578248772
89,5,21,Ticks_Linear_5,122,5,42,127,578430264
89,5,21,Ticks_Linear_5,123,1,48,32,578847480
89,5,21,Ticks_Linear_5,124,5,42,127,579030612
89,5,21,Ticks_Linear_5,125,1,48,29,579444016
89,5,21,Ticks_Linear_5,126,5,42,127,579629636
89,5,21,Ticks_Linear_5,127,1,48,27,580057920
89,5,21,Ticks_Linear_5,128,5,42,127,580229612
89,5,21,Ticks_Linear_5,129,1,48,30,580666376
89,5,21,Ticks_Linear_5,130,5,42,127,580839844
89,5,21,Ticks_Linear_5,131,1,48,26,581312632
89,5,21,Ticks_Linear_5,132,5,42,127,581450248
89,5,21,Ticks_Linear_5,133,1,48,32,581873740
89,5,21,Ticks_Linear_5,134,5,42,127,582060480
89,5,21,Ticks_Linear_5,135,1,48,33,582536784
89,5,21,Ticks_Linear_5,136,5,42,127,582669744
89,5,21,Ticks_Linear_5,137,1,48,30,583162152
89,5,21,Ticks_Linear_5,138,5,42,127,583279928
89,5,21,Ticks_Linear_5,139,1,48,30,583780876
89,5,21,Ticks_Linear_5,140,5,42,127,583899596
89,5,21,Ticks_Linear_5,141,1,48,28,584367896
89,5,21,Ticks_Linear_5,142,5,42,127,584520040
89,5,21,Ticks_Linear_5,143,1,48,35,584947880
89,5,21,Ticks_Linear_5,144,5,42,127,585139712
89,5,21,Ticks_Linear_5,145,1,48,25,585619692
89,5,21,Ticks_Linear_5,146,5,42,127,585760084
89,5,21,Ticks_Linear_5,147,1,48,32,586198012
89,5,21,Ticks_Linear_5,148,5,42,127,586379748
89,5,21,Ticks_Linear_5,149,1,48,28,586866088
89,5,21,Ticks_Linear_5,150,5,42,127,587010500
89,5,21,Ticks_Linear_5,151,1,48,32,587492052
89,5,21,Ticks_Linear_5,152,5,42,127,587650712
89,5,21,Ticks_Linear_5,153,1,48,28,588146632
89,5,21,Ticks_Linear_5,154,5,42,127,588290604
89,5,21,Ticks_Linear_5,155,1,48,24,588826016
89,5,21,Ticks_Linear_5,156,5,42,127,588930516
89,5,21,Ticks_Linear_5,157,1,48,30,589468608
89,5,21,Ticks_Linear_5,158,5,42,127,589570404
89,5,21,Ticks_Linear_5,159,1,48,27,590113016
89,5,21,Ticks_Linear_5,160,5,42,127,590210544
89,5,21,Ticks_Linear_5,161,1,48,35,590743692
89,5,21,Ticks_Linear_5,162,5,42,127,590850656
89,5,21,Ticks_Linear_5,163,1,48,26,591422244
89,5,21,Ticks_Linear_5,164,5,42,127,591490660
89,5,21,Ticks_Linear_5,165,1,48,29,592073516
89,5,21,Ticks_Linear_5,166,5,42,127,592130548
89,5,21,Ticks_Linear_5,167,1,48,34,592735372
89,5,21,Ticks_Linear_5,168,5,42,127,592770388
89,5,21,Ticks_Linear_5,169,1,48,32,593347716
89,5,21,Ticks_Linear_5,170,5,42,127,593429900
89,5,21,Ticks_Linear_5,171,1,48,29,593981852
89,5,21,Ticks_Linear_5,172,5,42,127,594080056
89,5,21,Ticks_Linear_5,173,1,48,32,594640016
89,5,21,Ticks_Linear_5,174,5,42,127,594730692
89,5,21,Ticks_Linear_5,175,1,48,29,595281428
89,5,21,Ticks_Linear_5,176,5,42,127,595379484
89,5,21,Ticks_Linear_5,177,1,48,34,595940564
89,5,21,Ticks_Linear_5,178,5,42,127,596029892
89,5,21,Ticks_Linear_5,179,1,48,31,596579580
89,5,21,Ticks_Linear_5,180,5,42,127,596690432
89,5,21,Ticks_Linear_5,181,1,48,30,597209136
89,5,21,Ticks_Linear_5,182,5,42,127,597349744
89,5,21,Ticks_Linear_5,183,1,48,31,597803136
89,5,21,Ticks_Linear_5,184,5,42,127,598010300
89,5,21,Ticks_Linear_5,185,1,48,34,598500616
89,5,21,Ticks_Linear_5,186,5,42,127,598669612
89,5,21,Ticks_Linear_5,187,1,48,32,599179168
89,5,21,Ticks_Linear_5,188,5,42,127,599330192
89,5,21,Ticks_Linear_5,189,1,48,22,599872852
89,5,21,Ticks_Linear_5,190,5,42,127,599999888
89,5,21,Ticks_Linear_5,191,1,48,32,600502028
89,5,21,Ticks_Linear_5,192,5,42,127,600669604
89,5,21,Ticks_Linear_5,193,1,48,30,601148988
89,5,21,Ticks_Linear_5,194,5,42,127,601340420
89,5,21,Ticks_Linear_5,195,1,48,28,601794712
89,5,21,Ticks_Linear_5,196,5,42,127,602009840
89,5,21,Ticks_Linear_5,197,1,48,27,602452968
89,5,21,Ticks_Linear_5,198,5,42,127,602679560
89,5,21,Ticks_Linear_5,199,1,48,29,603115396
89,5,21,Ticks_Linear_5,200,5,42,127,603359588
89,5,21,Ticks_Linear_5,201,1,48,29,603781456
89,5,21,Ticks_Linear_5,202,5,42,127,604039492
89,5,21,Ticks_Linear_5,203,1,48,32,604442860
89,5,21,Ticks_Linear_5,204,5,42,127,604719472
89,5,21,Ticks_Linear_5,205,1,48,31,605105808
89,5,21,Ticks_Linear_5,206,5,42,127,605400324
89,5,21,Ticks_Linear_5,207,1,48,28,605766612
89,5,21,Ticks_Linear_5,208,5,42,127,606089588
89,5,21,Ticks_Linear_5,209,1,48,31,606453088
89,5,21,Ticks_Linear_5,210,5,42,127,606779752
89,5,21,Ticks_Linear_5,211,1,48,27,607106700
89,5,21,Ticks_Linear_5,212,5,42,127,607469812
89,5,21,Ticks_Linear_5,213,1,48,29,607750420
89,5,21,Ticks_Linear_5,214,5,42,127,608160272
89,5,21,Ticks_Linear_5,215,1,48,35,608438112
89,5,21,Ticks_Linear_5,216,5,42,127,608850288
89,5,21,Ticks_Linear_5,217,1,48,33,609138088
89,5,21,Ticks_Linear_5,218,5,42,127,609539456
89,5,21,Ticks_Linear_5,219,1,48,28,609844788
89,5,21,Ticks_Linear_5,220,5,42,127,610239804
89,5,21,Ticks_Linear_5,221,1,48,22,610558156
89,5,21,Ticks_Linear_5,222,5,42,127,610940372
89,5,21,Ticks_Linear_5,223,1,48,19,611241272
89,5,21,Ticks_Linear_5,224,5,42,127,611639672
89,5,21,Ticks_Linear_5,225,1,48,25,611957040
89,5,21,Ticks_Linear_5,226,5,42,127,612340144
89,5,21,Ticks_Linear_5,227,1,48,30,612667192
89,5,21,Ticks_Linear_5,228,5,42,127,613039444
89,5,21,Ticks_Linear_5,229,1,48,25,613399380
89,5,21,Ticks_Linear_5,230,5,42,127,613750200
89,5,21,Ticks_Linear_5,231,1,48,29,614067880
89,5,21,Ticks_Linear_5,232,5,42,127,614459688
89,5,21,Ticks_Linear_5,233,1,48,33,614766192
89,5,21,Ticks_Linear_5,234,5,42,127,615170416
89,5,21,Ticks_Linear_5,235,1,48,36,615454788
89,5,21,Ticks_Linear_5,236,5,42,127,615890384
89,5,21,Ticks_Linear_5,237,1,48,36,616182972
89,5,21,Ticks_Linear_5,238,5,42,127,616599796
89,5,21,Ticks_Linear_5,239,1,48,29,616897240
89,5,21,Ticks_Linear_5,240,5,42,127,617319912
89,5,21,Ticks_Linear_5,241,1,48,33,617659976
89,5,21,Ticks_Linear_5,242,5,42,127,618039808
89,5,21,Ticks_Linear_5,243,1,48,29,618346164
89,5,21,Ticks_Linear_5,244,5,42,127,618759528
89,5,21,Ticks_Linear_5,245,1,48,26,619015188
89,5,21,Ticks_Linear_5,246,5,42,127,619480316
89,5,21,Ticks_Linear_5,247,1,48,24,619797648
89,5,21,Ticks_Linear_5,248,5,42,127,620209496
89,5,21,Ticks_Linear_5,249,1,48,29,620522000
89,5,21,Ticks_Linear_5,250,5,42,127,620939572
89,5,21,Ticks_Linear_5,251,1,48,27,621236348
89,5,21,Ticks_Linear_5,252,5,42,127,621669724
89,5,21,Ticks_Linear_5,253,1,48,31,621960664
89,5,21,Ticks_Linear_5,254,5,42,127,622400100
89,5,21,Ticks_Linear_5,255,1,48,31,622691788
89,5,21,Ticks_Linear_5,256,5,42,127,623129956
89,5,21,Ticks_Linear_5,257,1,48,30,623445228
89,5,21,Ticks_Linear_5,258,5,42,127,623860008
89,5,21,Ticks_Linear_5,259,1,48,27,624213352
89,5,21,Ticks_Linear_5,260,5,42,127,624600420
89,5,21,Ticks_Linear_5,261,1,48,28,624898996
89,5,21,Ticks_Linear_5,262,5,42,127,625350268
89,5,21,Ticks_Linear_5,263,1,48,22,625696564
89,5,21,Ticks_Linear_5,264,5,42,127,626090308
89,5,21,Ticks_Linear_5,265,1,48,26,626421236
89,5,21,Ticks_Linear_5,266,5,42,127,626829820
89,5,21,Ticks_Linear_5,267,1,48,21,627178948
89,5,21,Ticks_Linear_5,268,5,42,127,627570156
89,5,21,Ticks_Linear_5,269,1,48,27,627889928
89,5,21,Ticks_Linear_5,270,5,42,127,628319560
89,5,21,Ticks_Linear_5,271,1,48,28,628636396
89,5,21,Ticks_Linear_5,272,5,42,127,629070228
89,5,21,Ticks_Linear_5,273,1,48,27,629355316
89,5,21,Ticks_Linear_5,274,5,42,127,629819632
89,5,21,Ticks_Linear_5,275,1,48,25,630136320
89,5,21,Ticks_Linear_5,276,5,42,127,630570376
89,5,21,Ticks_Linear_5,277,1,48,25,630912016
89,5,21,Ticks_Linear_5,278,5,42,127,631320000
89,5,21,Ticks_Linear_5,279,1,48,30,631727008
89,5,21,Ticks_Linear_5,280,5,42,127,632079636
89,5,21,Ticks_Linear_5,281,1,48,28,632466824
89,5,21,Ticks_Linear_5,282,5,42,127,632839668
89,5,21,Ticks_Linear_5,283,1,48,18,633211360
89,5,21,Ticks_Linear_5,284,5,42,127,633600376
89,5,21,Ticks_Linear_5,285,1,48,24,633982848
89,5,21,Ticks_Linear_5,286,5,42,127,634360184
89,5,21,Ticks_Linear_5,287,1,48,32,634709860
89,5,21,Ticks_Linear_5,288,5,42,127,635119992
89,5,21,Ticks_Linear_5,289,1,48,27,635486060
89,5,21,Ticks_Linear_5,290,5,42,127,635889912
89,5,21,Ticks_Linear_5,291,1,48,19,636269392
89,5,21,Ticks_Linear_5,292,5,42,127,636660128
89,5,21,Ticks_Linear_5,293,1,48,27,637045896
89,5,21,Ticks_Linear_5,294,5,42,127,637430048
89,5,21,Ticks_Linear_5,295,1,48,28,637819860
89,5,21,Ticks_Linear_5,296,5,42,127,638200040
89,5,21,Ticks_Linear_5,297,1,48,26,638597872
89,5,21,Ticks_Linear_5,298,5,42,127,638970332
89,5,21,Ticks_Linear_5,299,1,48,24,639389504
89,5,21,Ticks_Linear_5,300,5,42,127,639749464
89,5,21,Ticks_Linear_5,301,1,48,31,640126088
89,5,21,Ticks_Linear_5,302,5,42,127,640529864
89,5,21,Ticks_Linear_5,303,1,48,32,640905964
89,5,21,Ticks_Linear_5,304,5,42,127,641310216
89,5,21,Ticks_Linear_5,305,1,48,16,641712808
89,5,21,Ticks_Linear_5,306,5,42,127,642090244
89,5,21,Ticks_Linear_5,307,1,48,32,642490740
89,5,21,Ticks_Linear_5,308,5,42,127,642869972
89,5,21,Ticks_Linear_5,309,1,48,29,643225608
89,5,21,Ticks_Linear_5,310,5,42,127,643660256
89,5,21,Ticks_Linear_5,311,1,48,37,644047864
89,5,21,Ticks_Linear_5,312,5,42,127,644449724
89,5,21,Ticks_Linear_5,313,1,48,33,644801168
89,5,21,Ticks_Linear_5,314,5,42,127,645240160
89,5,21,Ticks_Linear_5,315,1,48,31,645582992
89,5,21,Ticks_Linear_5,316,5,42,127,646029700
89,5,21,Ticks_Linear_5,317,1,48,31,646355748
89,5,21,Ticks_Linear_5,318,5,42,127,646820208
89,5,21,Ticks_Linear_5,319,1,48,29,647193024
89,5,21,Ticks_Linear_5,320,5,42,127,647619860
89,5,21,Ticks_Linear_5,321,1,48,31,647983756
89,5,21,Ticks_Linear_5,322,5,42,127,648419732
89,5,21,Ticks_Linear_5,323,1,48,34,648826088
89,5,21,Ticks_Linear_5,324,5,42,127,649219308
89,5,21,Ticks_Linear_5,325,1,48,33,649683772
89,5,21,Ticks_Linear_5,326,5,42,127,650020176
89,5,21,Ticks_Linear_5,327,1,48,33,650428764
89,5,21,Ticks_Linear_5,328,5,42,127,650819976
89,5,21,Ticks_Linear_5,329,1,48,36,651199656
89,5,21,Ticks_Linear_5,330,5,42,127,651629956
89,5,21,Ticks_Linear_5,331,1,48,27,652023556
89,5,21,Ticks_Linear_5,332,5,42,127,652439940
89,5,21,Ticks_Linear_5,333,1,48,28,652828112
89,5,21,Ticks_Linear_5,334,5,42,127,653249772
89,5,21,Ticks_Linear_5,335,1,48,41,653631120
89,5,21,Ticks_Linear_5,336,5,42,127,654059904
89,5,21,Ticks_Linear_5,337,1,48,28,654445512
89,5,21,Ticks_Linear_5,338,5,42,127,654869836
89,5,21,Ticks_Linear_5,0,9999,9999,9999,545567808
89,5,21,Ticks_Linear_5,1,9999,9999,9999,546048108
89,5,21,Ticks_Linear_5,2,9999,9999,9999,546537568
89,5,21,Ticks_Linear_5,3,9999,9999,9999,547017820
89,5,21,Ticks_Linear_5,4,9999,9999,9999,547498064
89,5,21,Ticks_Linear_5,5,9999,9999,9999,547987580
89,5,21,Ticks_Linear_5,6,9999,9999,9999,548478044
89,5,21,Ticks_Linear_5,7,9999,9999,9999,548967488
89,5,21,Ticks_Linear_5,8,9999,9999,9999,549458028
89,5,21,Ticks_Linear_5,9,9999,9999,9999,549947476
89,5,21,Ticks_Linear_5,10,9999,9999,9999,550447168
89,5,21,Ticks_Linear_5,11,9999,9999,9999,550947912
89,5,21,Ticks_Linear_5,12,9999,9999,9999,551447648
89,5,21,Ticks_Linear_5,13,9999,9999,9999,551947348
89,5,21,Ticks_Linear_5,14,9999,9999,9999,552448096
89,5,21,Ticks_Linear_5,15,9999,9999,9999,552967260
89,5,21,Ticks_Linear_5,16,9999,9999,9999,553477216
89,5,21,Ticks_Linear_5,17,9999,9999,9999,553987176
89,5,21,Ticks_Linear_5,18,9999,9999,9999,554497136
89,5,21,Ticks_Linear_5,19,9999,9999,9999,555008064
89,5,21,Ticks_Linear_5,20,9999,9999,9999,555537496
89,5,21,Ticks_Linear_5,21,9999,9999,9999,556057668
89,5,21,Ticks_Linear_5,22,9999,9999,9999,556577884
89,5,21,Ticks_Linear_5,23,9999,9999,9999,557098100
89,5,21,Ticks_Linear_5,24,9999,9999,9999,557617272
89,5,21,Ticks_Linear_5,25,9999,9999,9999,558147672
89,5,21,Ticks_Linear_5,26,9999,9999,9999,558678076
89,5,21,Ticks_Linear_5,27,9999,9999,9999,559217748
89,5,21,Ticks_Linear_5,28,9999,9999,9999,559747196
89,5,21,Ticks_Linear_5,29,9999,9999,9999,560277600
89,5,21,Ticks_Linear_5,30,9999,9999,9999,560817212
89,5,21,Ticks_Linear_5,31,9999,9999,9999,561357948
89,5,21,Ticks_Linear_5,32,9999,9999,9999,561897564
89,5,21,Ticks_Linear_5,33,9999,9999,9999,562437180
89,5,21,Ticks_Linear_5,34,9999,9999,9999,562977868
89,5,21,Ticks_Linear_5,35,9999,9999,9999,563527740
89,5,21,Ticks_Linear_5,36,9999,9999,9999,564077688
89,5,21,Ticks_Linear_5,37,9999,9999,9999,564627564
89,5,21,Ticks_Linear_5,38,9999,9999,9999,565177436
89,5,21,Ticks_Linear_5,39,9999,9999,9999,565727312
89,5,21,Ticks_Linear_5,40,9999,9999,9999,566287444
89,5,21,Ticks_Linear_5,41,9999,9999,9999,566847604
89,5,21,Ticks_Linear_5,42,9999,9999,9999,567407736
89,5,21,Ticks_Linear_5,43,9999,9999,9999,567967872
89,5,21,Ticks_Linear_5,44,9999,9999,9999,568527928
89,5,21,Ticks_Linear_5,45,9999,9999,9999,569097276
89,5,21,Ticks_Linear_5,46,9999,9999,9999,569667692
89,5,21,Ticks_Linear_5,47,9999,9999,9999,570238016
89,5,21,Ticks_Linear_5,48,9999,9999,9999,570807356
89,5,21,Ticks_Linear_5,49,9999,9999,9999,571377752
89,5,21,Ticks_Linear_5,50,9999,9999,9999,571957364
89,5,21,Ticks_Linear_5,51,9999,9999,9999,572537940
89,5,21,Ticks_Linear_5,52,9999,9999,9999,573117544
89,5,21,Ticks_Linear_5,53,9999,9999,9999,573697148
89,5,21,Ticks_Linear_5,54,9999,9999,9999,574277752
89,5,21,Ticks_Linear_5,55,9999,9999,9999,574867540
89,5,21,Ticks_Linear_5,56,9999,9999,9999,575457404
89,5,21,Ticks_Linear_5,57,9999,9999,9999,576047216
89,5,21,Ticks_Linear_5,58,9999,9999,9999,576638052
89,5,21,Ticks_Linear_5,59,9999,9999,9999,577227844
89,5,21,Ticks_Linear_5,60,9999,9999,9999,577827920
89,5,21,Ticks_Linear_5,61,9999,9999,9999,578427968
89,5,21,Ticks_Linear_5,62,9999,9999,9999,579028088
89,5,21,Ticks_Linear_5,63,9999,9999,9999,579627116
89,5,21,Ticks_Linear_5,64,9999,9999,9999,580227164
89,5,21,Ticks_Linear_5,65,9999,9999,9999,580837472
89,5,21,Ticks_Linear_5,66,9999,9999,9999,581447804
89,5,21,Ticks_Linear_5,67,9999,9999,9999,582058108
89,5,21,Ticks_Linear_5,68,9999,9999,9999,582667368
89,5,21,Ticks_Linear_5,69,9999,9999,9999,583277628
89,5,21,Ticks_Linear_5,70,9999,9999,9999,583897152
89,5,21,Ticks_Linear_5,71,9999,9999,9999,584517740
89,5,21,Ticks_Linear_5,72,9999,9999,9999,585137264
89,5,21,Ticks_Linear_5,73,9999,9999,9999,585757784
89,5,21,Ticks_Linear_5,74,9999,9999,9999,586377300
89,5,21,Ticks_Linear_5,75,9999,9999,9999,587008052
89,5,21,Ticks_Linear_5,76,9999,9999,9999,587648116
89,5,21,Ticks_Linear_5,77,9999,9999,9999,588288080
89,5,21,Ticks_Linear_5,78,9999,9999,9999,588928068
89,5,21,Ticks_Linear_5,79,9999,9999,9999,589568108
89,5,21,Ticks_Linear_5,80,9999,9999,9999,590208096
89,5,21,Ticks_Linear_5,81,9999,9999,9999,590848060
89,5,21,Ticks_Linear_5,82,9999,9999,9999,591488064
89,5,21,Ticks_Linear_5,83,9999,9999,9999,592128100
89,5,21,Ticks_Linear_5,84,9999,9999,9999,592768092
89,5,21,Ticks_Linear_5,85,9999,9999,9999,593427524
89,5,21,Ticks_Linear_5,86,9999,9999,9999,594077756
89,5,21,Ticks_Linear_5,87,9999,9999,9999,594728020
89,5,21,Ticks_Linear_5,88,9999,9999,9999,595377272
89,5,21,Ticks_Linear_5,89,9999,9999,9999,596027520
89,5,21,Ticks_Linear_5,90,9999,9999,9999,596687984
89,5,21,Ticks_Linear_5,91,9999,9999,9999,597347444
89,5,21,Ticks_Linear_5,92,9999,9999,9999,598007928
89,5,21,Ticks_Linear_5,93,9999,9999,9999,598667388
89,5,21,Ticks_Linear_5,94,9999,9999,9999,599327816
89,5,21,Ticks_Linear_5,95,9999,9999,9999,599997512
89,5,21,Ticks_Linear_5,96,9999,9999,9999,600667232
89,5,21,Ticks_Linear_5,97,9999,9999,9999,601337972
89,5,21,Ticks_Linear_5,98,9999,9999,9999,602007616
89,5,21,Ticks_Linear_5,99,9999,9999,9999,602677336
89,5,21,Ticks_Linear_5,100,9999,9999,9999,603357292
89,5,21,Ticks_Linear_5,101,9999,9999,9999,604037196
89,5,21,Ticks_Linear_5,102,9999,9999,9999,604717172
89,5,21,Ticks_Linear_5,103,9999,9999,9999,605398100
89,5,21,Ticks_Linear_5,104,9999,9999,9999,606087288
89,5,21,Ticks_Linear_5,105,9999,9999,9999,606777452
89,5,21,Ticks_Linear_5,106,9999,9999,9999,607467588
89,5,21,Ticks_Linear_5,107,9999,9999,9999,608157752
89,5,21,Ticks_Linear_5,108,9999,9999,9999,608847988
89,5,21,Ticks_Linear_5,109,9999,9999,9999,609537080
89,5,21,Ticks_Linear_5,110,9999,9999,9999,610237504
89,5,21,Ticks_Linear_5,111,9999,9999,9999,610937924
89,5,21,Ticks_Linear_5,112,9999,9999,9999,611637376
89,5,21,Ticks_Linear_5,113,9999,9999,9999,612337772
89,5,21,Ticks_Linear_5,114,9999,9999,9999,613037144
89,5,21,Ticks_Linear_5,115,9999,9999,9999,613747828
89,5,21,Ticks_Linear_5,116,9999,9999,9999,614457460
89,5,21,Ticks_Linear_5,117,9999,9999,9999,615168120
89,5,21,Ticks_Linear_5,118,9999,9999,9999,615887936
89,5,21,Ticks_Linear_5,119,9999,9999,9999,616597572
89,5,21,Ticks_Linear_5,120,9999,9999,9999,617317468
89,5,21,Ticks_Linear_5,121,9999,9999,9999,618037360
89,5,21,Ticks_Linear_5,122,9999,9999,9999,618757228
89,5,21,Ticks_Linear_5,123,9999,9999,9999,619478092
89,5,21,Ticks_Linear_5,124,9999,9999,9999,620207200
89,5,21,Ticks_Linear_5,125,9999,9999,9999,620937276
89,5,21,Ticks_Linear_5,126,9999,9999,9999,621667424
89,5,21,Ticks_Linear_5,127,9999,9999,9999,622397504
89,5,21,Ticks_Linear_5,128,9999,9999,9999,623127656
89,5,21,Ticks_Linear_5,129,9999,9999,9999,623857784
89,5,21,Ticks_Linear_5,130,9999,9999,9999,624598120
89,5,21,Ticks_Linear_5,131,9999,9999,9999,625347672
89,5,21,Ticks_Linear_5,132,9999,9999,9999,626088008
89,5,21,Ticks_Linear_5,133,9999,9999,9999,626827372
89,5,21,Ticks_Linear_5,134,9999,9999,9999,627567708
89,5,21,Ticks_Linear_5,135,9999,9999,9999,628317260
89,5,21,Ticks_Linear_5,136,9999,9999,9999,629067856
89,5,21,Ticks_Linear_5,137,9999,9999,9999,629817404
89,5,21,Ticks_Linear_5,138,9999,9999,9999,630568000
89,5,21,Ticks_Linear_5,139,9999,9999,9999,631317628
89,5,21,Ticks_Linear_5,140,9999,9999,9999,632077412
89,5,21,Ticks_Linear_5,141,9999,9999,9999,632837224
89,5,21,Ticks_Linear_5,142,9999,9999,9999,633598076
89,5,21,Ticks_Linear_5,143,9999,9999,9999,634357884
89,5,21,Ticks_Linear_5,144,9999,9999,9999,635117692
89,5,21,Ticks_Linear_5,145,9999,9999,9999,635887688
89,5,21,Ticks_Linear_5,146,9999,9999,9999,636657756
89,5,21,Ticks_Linear_5,147,9999,9999,9999,637427824
89,5,21,Ticks_Linear_5,148,9999,9999,9999,638197816
89,5,21,Ticks_Linear_5,149,9999,9999,9999,638967884
89,5,21,Ticks_Linear_5,150,9999,9999,9999,639747164
89,5,21,Ticks_Linear_5,151,9999,9999,9999,640527416
89,5,21,Ticks_Linear_5,152,9999,9999,9999,641307768
89,5,21,Ticks_Linear_5,153,9999,9999,9999,642088020
89,5,21,Ticks_Linear_5,154,9999,9999,9999,642867300
89,5,21,Ticks_Linear_5,155,9999,9999,9999,643657812
89,5,21,Ticks_Linear_5,156,9999,9999,9999,644447352
89,5,21,Ticks_Linear_5,157,9999,9999,9999,645237864
89,5,21,Ticks_Linear_5,158,9999,9999,9999,646027324
89,5,21,Ticks_Linear_5,159,9999,9999,9999,646817912
89,5,21,Ticks_Linear_5,160,9999,9999,9999,647617636
89,5,21,Ticks_Linear_5,161,9999,9999,9999,648417360
89,5,21,Ticks_Linear_5,162,9999,9999,9999,649217084
89,5,21,Ticks_Linear_5,163,9999,9999,9999,650017876
89,5,21,Ticks_Linear_5,164,9999,9999,9999,650817600
89,5,21,Ticks_Linear_5,165,9999,9999,9999,651627584
89,5,21,Ticks_Linear_5,166,9999,9999,9999,652437568
89,5,21,Ticks_Linear_5,167,9999,9999,9999,653247548
89,5,21,Ticks_Linear_5,168,9999,9999,9999,654057532
89,5,21,Ticks_Linear_5,169,9999,9999,9999,654867536
89,6,20,Ticks_Linear_8,0,5,42,127,665075012
89,6,20,Ticks_Linear_8,1,5,42,127,665895228
89,6,20,Ticks_Linear_8,2,1,48,29,666621428
89,6,20,Ticks_Linear_8,3,5,42,127,666714660
89,6,20,Ticks_Linear_8,4,1,48,27,667426876
89,6,20,Ticks_Linear_8,5,5,42,127,667534664
89,6,20,Ticks_Linear_8,6,1,48,27,668296396
89,6,20,Ticks_Linear_8,7,5,42,127,668354920
89,6,20,Ticks_Linear_8,8,1,48,21,669104432
89,6,20,Ticks_Linear_8,9,5,42,127,669165052
89,6,20,Ticks_Linear_8,10,1,48,23,669896364
89,6,20,Ticks_Linear_8,11,5,42,127,669974764
89,6,20,Ticks_Linear_8,12,1,48,22,670760956
89,6,20,Ticks_Linear_8,13,5,42,127,670784820
89,6,20,Ticks_Linear_8,14,1,48,21,671577012
89,6,20,Ticks_Linear_8,15,5,42,127,671594804
89,6,20,Ticks_Linear_8,16,1,48,21,672369924
89,6,20,Ticks_Linear_8,17,5,42,127,672404788
89,6,20,Ticks_Linear_8,18,5,42,127,673204668
89,6,20,Ticks_Linear_8,19,1,48,20,673217300
89,6,20,Ticks_Linear_8,20,1,48,27,673977612
89,6,20,Ticks_Linear_8,21,5,42,127,674005656
89,6,20,Ticks_Linear_8,22,1,48,27,674721912
89,6,20,Ticks_Linear_8,23,5,42,127,674805304
89,6,20,Ticks_Linear_8,24,1,48,22,675600716
89,6,20,Ticks_Linear_8,25,5,42,127,675604828
89,6,20,Ticks_Linear_8,26,5,42,127,676404560
89,6,20,Ticks_Linear_8,27,1,48,19,676426104
89,6,20,Ticks_Linear_8,28,5,42,127,677195072
89,6,20,Ticks_Linear_8,29,1,48,28,677236012
89,6,20,Ticks_Linear_8,30,5,42,127,677984612
89,6,20,Ticks_Linear_8,31,1,48,25,677994472
89,6,20,Ticks_Linear_8,32,1,48,20,678747668
89,6,20,Ticks_Linear_8,33,5,42,127,678775196
89,6,20,Ticks_Linear_8,34,1,48,29,679502304
89,6,20,Ticks_Linear_8,35,5,42,127,679564660
89,6,20,Ticks_Linear_8,36,1,48,27,680339480
89,6,20,Ticks_Linear_8,37,5,42,127,680355172
89,6,20,Ticks_Linear_8,38,5,42,127,681134384
89,6,20,Ticks_Linear_8,39,1,48,27,681148664
89,6,20,Ticks_Linear_8,40,5,42,127,681914788
89,6,20,Ticks_Linear_8,41,1,48,27,681952884
89,6,20,Ticks_Linear_8,42,5,42,127,682695040
89,6,20,Ticks_Linear_8,43,1,48,27,682761956
89,6,20,Ticks_Linear_8,44,5,42,127,683475364
89,6,20,Ticks_Linear_8,45,1,48,31,683516604
89,6,20,Ticks_Linear_8,46,1,48,24,684234604
89,6,20,Ticks_Linear_8,47,5,42,127,684254492
89,6,20,Ticks_Linear_8,48,5,42,127,685024716
89,6,20,Ticks_Linear_8,49,1,48,40,685478108
89,6,20,Ticks_Linear_8,50,5,42,127,685794636
89,6,20,Ticks_Linear_8,51,1,48,31,685946728
89,6,20,Ticks_Linear_8,52,5,42,127,686564628
89,6,20,Ticks_Linear_8,53,1,48,35,686636816
89,6,20,Ticks_Linear_8,54,5,42,127,687334696
89,6,20,Ticks_Linear_8,55,1,48,37,687376380
89,6,20,Ticks_Linear_8,56,5,42,127,688104764
89,6,20,Ticks_Linear_8,57,1,48,27,688136792
89,6,20,Ticks_Linear_8,58,5,42,127,688864572
89,6,20,Ticks_Linear_8,59,1,48,28,688908056
89,6,20,Ticks_Linear_8,60,5,42,127,689624456
89,6,20,Ticks_Linear_8,61,1,48,28,689639556
89,6,20,Ticks_Linear_8,62,1,48,30,690382188
89,6,20,Ticks_Linear_8,63,5,42,127,690385304
89,6,20,Ticks_Linear_8,64,1,48,30,691141616
89,6,20,Ticks_Linear_8,65,5,42,127,691145260
89,6,20,Ticks_Linear_8,66,5,42,127,691904856
89,6,20,Ticks_Linear_8,67,1,48,30,691930216
89,6,20,Ticks_Linear_8,68,5,42,127,692654332
89,6,20,Ticks_Linear_8,69,1,48,29,692681184
89,6,20,Ticks_Linear_8,70,1,48,33,693403260
89,6,20,Ticks_Linear_8,71,5,42,127,693405220
89,6,20,Ticks_Linear_8,72,1,48,36,694119152
89,6,20,Ticks_Linear_8,73,5,42,127,694154472
89,6,20,Ticks_Linear_8,74,5,42,127,694905300
89,6,20,Ticks_Linear_8,75,1,48,26,694993124
89,6,20,Ticks_Linear_8,76,5,42,127,695654700
89,6,20,Ticks_Linear_8,77,1,48,27,695683808
89,6,20,Ticks_Linear_8,78,5,42,127,696395112
89,6,20,Ticks_Linear_8,79,1,48,31,696427664
89,6,20,Ticks_Linear_8,80,5,42,127,697134328
89,6,20,Ticks_Linear_8,81,1,48,26,697184248
89,6,20,Ticks_Linear_8,82,5,42,127,697874888
89,6,20,Ticks_Linear_8,83,1,48,28,697916428
89,6,20,Ticks_Linear_8,84,5,42,127,698615276
89,6,20,Ticks_Linear_8,85,1,48,30,698643360
89,6,20,Ticks_Linear_8,86,5,42,127,699354492
89,6,20,Ticks_Linear_8,87,1,48,20,699431320
89,6,20,Ticks_Linear_8,88,5,42,127,700084644
89,6,20,Ticks_Linear_8,89,1,48,25,700103796
89,6,20,Ticks_Linear_8,90,5,42,127,700814648
89,6,20,Ticks_Linear_8,91,1,48,19,700829448
89,6,20,Ticks_Linear_8,92,5,42,127,701544800
89,6,20,Ticks_Linear_8,93,1,48,25,701554064
89,6,20,Ticks_Linear_8,94,5,42,127,702275028
89,6,20,Ticks_Linear_8,95,1,48,19,702331464
89,6,20,Ticks_Linear_8,96,5,42,127,703005032
89,6,20,Ticks_Linear_8,97,1,48,30,703033092
89,6,20,Ticks_Linear_8,98,5,42,127,703725052
89,6,20,Ticks_Linear_8,99,1,48,28,703760968
89,6,20,Ticks_Linear_8,100,5,42,127,704444920
89,6,20,Ticks_Linear_8,101,1,48,28,704511092
89,6,20,Ticks_Linear_8,102,5,42,127,705164812
89,6,20,Ticks_Linear_8,103,1,48,31,705218332
89,6,20,Ticks_Linear_8,104,5,42,127,705884484
89,6,20,Ticks_Linear_8,105,1,48,35,705920176
89,6,20,Ticks_Linear_8,106,5,42,127,706605424
89,6,20,Ticks_Linear_8,107,1,48,35,706649356
89,6,20,Ticks_Linear_8,108,5,42,127,707325368
89,6,20,Ticks_Linear_8,109,1,48,27,707393072
89,6,20,Ticks_Linear_8,110,5,42,127,708035076
89,6,20,Ticks_Linear_8,111,1,48,35,708071816
89,6,20,Ticks_Linear_8,112,5,42,127,708744560
89,6,20,Ticks_Linear_8,113,1,48,39,708817032
89,6,20,Ticks_Linear_8,114,5,42,127,709455092
89,6,20,Ticks_Linear_8,115,1,48,34,709534152
89,6,20,Ticks_Linear_8,116,5,42,127,710164952
89,6,20,Ticks_Linear_8,117,1,48,26,710278608
89,6,20,Ticks_Linear_8,118,5,42,127,710865276
89,6,20,Ticks_Linear_8,119,1,48,33,710966972
89,6,20,Ticks_Linear_8,120,5,42,127,711564800
89,6,20,Ticks_Linear_8,121,1,48,39,711636964
89,6,20,Ticks_Linear_8,122,5,42,127,712265220
89,6,20,Ticks_Linear_8,123,1,48,29,712383076
89,6,20,Ticks_Linear_8,124,5,42,127,712964572
89,6,20,Ticks_Linear_8,125,1,48,32,713105212
89,6,20,Ticks_Linear_8,126,5,42,127,713664992
89,6,20,Ticks_Linear_8,127,1,48,36,713808932
89,6,20,Ticks_Linear_8,128,5,42,127,714355156
89,6,20,Ticks_Linear_8,129,1,48,30,714497344
89,6,20,Ticks_Linear_8,130,5,42,127,715045244
89,6,20,Ticks_Linear_8,131,1,48,21,715352516
89,6,20,Ticks_Linear_8,132,5,42,127,715735460
89,6,20,Ticks_Linear_8,133,1,48,33,716116584
89,6,20,Ticks_Linear_8,134,5,42,127,716424428
89,6,20,Ticks_Linear_8,135,1,48,32,716849508
89,6,20,Ticks_Linear_8,136,5,42,127,717114812
89,6,20,Ticks_Linear_8,137,1,48,21,717592852
89,6,20,Ticks_Linear_8,138,5,42,127,717794692
89,6,20,Ticks_Linear_8,139,1,48,28,718278560
89,6,20,Ticks_Linear_8,140,5,42,127,718474744
89,6,20,Ticks_Linear_8,141,1,48,24,718982048
89,6,20,Ticks_Linear_8,142,5,42,127,719154648
89,6,20,Ticks_Linear_8,143,1,48,27,719692136
89,6,20,Ticks_Linear_8,144,5,42,127,719834604
89,6,20,Ticks_Linear_8,145,1,48,25,720394864
89,6,20,Ticks_Linear_8,146,5,42,127,720514360
89,6,20,Ticks_Linear_8,147,1,48,25,721125840
89,6,20,Ticks_Linear_8,148,5,42,127,721185064
89,6,20,Ticks_Linear_8,149,1,48,26,721832024
89,6,20,Ticks_Linear_8,150,5,42,127,721854832
89,6,20,Ticks_Linear_8,151,5,42,127,722524408
89,6,20,Ticks_Linear_8,152,1,48,18,722536364
89,6,20,Ticks_Linear_8,153,5,42,127,723195224
89,6,20,Ticks_Linear_8,154,1,48,33,723236712
89,6,20,Ticks_Linear_8,155,5,42,127,723864944
89,6,20,Ticks_Linear_8,156,1,48,31,723924608
89,6,20,Ticks_Linear_8,157,5,42,127,724525380
89,6,20,Ticks_Linear_8,158,1,48,30,724553516
89,6,20,Ticks_Linear_8,159,5,42,127,725195224
89,6,20,Ticks_Linear_8,160,1,48,35,725244328
89,6,20,Ticks_Linear_8,161,5,42,127,725854684
89,6,20,Ticks_Linear_8,162,1,48,31,725902444
89,6,20,Ticks_Linear_8,163,5,42,127,726515016
89,6,20,Ticks_Linear_8,164,1,48,28,726561440
89,6,20,Ticks_Linear_8,165,5,42,127,727174476
89,6,20,Ticks_Linear_8,166,1,48,32,727198940
89,6,20,Ticks_Linear_8,167,5,42,127,727824948
89,6,20,Ticks_Linear_8,168,1,48,36,727856000
89,6,20,Ticks_Linear_8,169,5,42,127,728474948
89,6,20,Ticks_Linear_8,170,1,48,28,728541792
89,6,20,Ticks_Linear_8,171,5,42,127,729125344
89,6,20,Ticks_Linear_8,172,1,48,26,729176248
89,6,20,Ticks_Linear_8,173,5,42,127,729774448
89,6,20,Ticks_Linear_8,174,1,48,38,729789020
89,6,20,Ticks_Linear_8,175,1,48,38,730419252
89,6,20,Ticks_Linear_8,176,5,42,127,730424836
89,6,20,Ticks_Linear_8,177,5,42,127,731064656
89,6,20,Ticks_Linear_8,178,1,48,38,731089788
89,6,20,Ticks_Linear_8,179,5,42,127,731704648
89,6,20,Ticks_Linear_8,180,1,48,38,731728212
89,6,20,Ticks_Linear_8,181,5,42,127,732344832
89,6,20,Ticks_Linear_8,182,1,48,33,732373348
89,6,20,Ticks_Linear_8,183,5,42,127,732984748
89,6,20,Ticks_Linear_8,184,1,48,35,733009804
89,6,20,Ticks_Linear_8,185,1,48,39,733623956
89,6,20,Ticks_Linear_8,186,5,42,127,733625604
89,6,20,Ticks_Linear_8,187,1,48,32,734244584
89,6,20,Ticks_Linear_8,188,5,42,127,734254584
89,6,20,Ticks_Linear_8,189,1,48,37,734882000
89,6,20,Ticks_Linear_8,190,5,42,127,734885188
89,6,20,Ticks_Linear_8,191,5,42,127,735515000
89,6,20,Ticks_Linear_8,192,1,48,24,735564772
89,6,20,Ticks_Linear_8,193,5,42,127,736144704
89,6,20,Ticks_Linear_8,194,1,48,37,736188640
89,6,20,Ticks_Linear_8,195,5,42,127,736774632
89,6,20,Ticks_Linear_8,196,1,48,33,736806460
89,6,20,Ticks_Linear_8,197,5,42,127,737395000
89,6,20,Ticks_Linear_8,198,1,48,34,737417592
89,6,20,Ticks_Linear_8,199,1,48,27,738014372
89,6,20,Ticks_Linear_8,200,5,42,127,738015636
89,6,20,Ticks_Linear_8,201,5,42,127,738635260
89,6,20,Ticks_Linear_8,202,1,48,19,738646772
89,6,20,Ticks_Linear_8,203,1,48,39,739248816
89,6,20,Ticks_Linear_8,204,5,42,127,739254628
89,6,20,Ticks_Linear_8,205,1,48,32,739855012
89,6,20,Ticks_Linear_8,206,5,42,127,739875268
89,6,20,Ticks_Linear_8,207,5,42,127,740484684
89,6,20,Ticks_Linear_8,208,1,48,32,740497992
89,6,20,Ticks_Linear_8,209,5,42,127,741094772
89,6,20,Ticks_Linear_8,210,1,48,29,741122312
89,6,20,Ticks_Linear_8,211,5,42,127,741705028
89,6,20,Ticks_Linear_8,212,1,48,30,741729936
89,6,20,Ticks_Linear_8,213,1,48,34,742298064
89,6,20,Ticks_Linear_8,214,5,42,127,742315552
89,6,20,Ticks_Linear_8,215,1,48,31,742890096
89,6,20,Ticks_Linear_8,216,5,42,127,742924812
89,6,20,Ticks_Linear_8,217,1,48,32,743516984
89,6,20,Ticks_Linear_8,218,5,42,127,743524588
89,6,20,Ticks_Linear_8,219,5,42,127,744124792
89,6,20,Ticks_Linear_8,220,1,48,26,744152096
89,6,20,Ticks_Linear_8,221,1,48,28,744705920
89,6,20,Ticks_Linear_8,222,5,42,127,744724784
89,6,20,Ticks_Linear_8,223,1,48,34,745306524
89,6,20,Ticks_Linear_8,224,5,42,127,745324832
89,6,20,Ticks_Linear_8,225,1,48,33,745923072
89,6,20,Ticks_Linear_8,226,5,42,127,745924884
89,6,20,Ticks_Linear_8,227,1,48,33,746505120
89,6,20,Ticks_Linear_8,228,5,42,127,746514772
89,6,20,Ticks_Linear_8,229,5,42,127,747104716
89,6,20,Ticks_Linear_8,230,1,48,32,747109104
89,6,20,Ticks_Linear_8,231,5,42,127,747694432
89,6,20,Ticks_Linear_8,232,1,48,35,747705940
89,6,20,Ticks_Linear_8,233,1,48,29,748234376
89,6,20,Ticks_Linear_8,234,5,42,127,748285484
89,6,20,Ticks_Linear_8,235,1,48,31,748848748
89,6,20,Ticks_Linear_8,236,5,42,127,748875000
89,6,20,Ticks_Linear_8,237,5,42,127,749454836
89,6,20,Ticks_Linear_8,238,1,48,30,749460652
89,6,20,Ticks_Linear_8,239,5,42,127,750035416
89,6,20,Ticks_Linear_8,240,1,48,35,750036528
89,6,20,Ticks_Linear_8,241,5,42,127,750614972
89,6,20,Ticks_Linear_8,242,1,48,31,750647748
89,6,20,Ticks_Linear_8,243,5,42,127,751194652
89,6,20,Ticks_Linear_8,244,1,48,34,751232380
89,6,20,Ticks_Linear_8,245,1,48,31,751756764
89,6,20,Ticks_Linear_8,246,5,42,127,751775148
89,6,20,Ticks_Linear_8,247,1,48,32,752331120
89,6,20,Ticks_Linear_8,248,5,42,127,752344496
89,6,20,Ticks_Linear_8,249,5,42,127,752914772
89,6,20,Ticks_Linear_8,250,1,48,35,752932708
89,6,20,Ticks_Linear_8,251,5,42,127,753485312
89,6,20,Ticks_Linear_8,252,1,48,34,753508584
89,6,20,Ticks_Linear_8,253,5,42,127,754054588
89,6,20,Ticks_Linear_8,254,1,48,33,754104740
89,6,20,Ticks_Linear_8,255,5,42,127,754624832
89,6,20,Ticks_Linear_8,256,1,48,37,754709452
89,6,20,Ticks_Linear_8,257,5,42,127,755184964
89,6,20,Ticks_Linear_8,258,1,48,31,755260748
89,6,20,Ticks_Linear_8,259,5,42,127,755745276
89,6,20,Ticks_Linear_8,260,1,48,34,755786216
89,6,20,Ticks_Linear_8,261,1,48,34,756283348
89,6,20,Ticks_Linear_8,262,5,42,127,756305400
89,6,20,Ticks_Linear_8,263,1,48,30,756807380
89,6,20,Ticks_Linear_8,264,5,42,127,756865384
89,6,20,Ticks_Linear_8,265,1,48,33,757374556
89,6,20,Ticks_Linear_8,266,5,42,127,757424396
89,6,20,Ticks_Linear_8,267,5,42,127,757975476
89,6,20,Ticks_Linear_8,268,1,48,31,757985340
89,6,20,Ticks_Linear_8,269,5,42,127,758525496
89,6,20,Ticks_Linear_8,270,1,48,32,758542088
89,6,20,Ticks_Linear_8,271,5,42,127,759075296
89,6,20,Ticks_Linear_8,272,1,48,36,759094820
89,6,20,Ticks_Linear_8,273,5,42,127,759625024
89,6,20,Ticks_Linear_8,274,1,48,28,759636384
89,6,20,Ticks_Linear_8,275,1,48,29,760170952
89,6,20,Ticks_Linear_8,276,5,42,127,760175116
89,6,20,Ticks_Linear_8,277,1,48,33,760710196
89,6,20,Ticks_Linear_8,278,5,42,127,760714508
89,6,20,Ticks_Linear_8,279,1,48,30,761237232
89,6,20,Ticks_Linear_8,280,5,42,127,761255468
89,6,20,Ticks_Linear_8,281,1,48,33,761780364
89,6,20,Ticks_Linear_8,282,5,42,127,761795008
89,6,20,Ticks_Linear_8,283,1,48,29,762306276
89,6,20,Ticks_Linear_8,284,5,42,127,762334700
89,6,20,Ticks_Linear_8,285,1,48,33,762865964
89,6,20,Ticks_Linear_8,286,5,42,127,762875216
89,6,20,Ticks_Linear_8,287,1,48,34,763392552
89,6,20,Ticks_Linear_8,288,5,42,127,763404572
89,6,20,Ticks_Linear_8,289,1,48,30,763895316
89,6,20,Ticks_Linear_8,290,5,42,127,763935148
89,6,20,Ticks_Linear_8,291,5,42,127,764464512
89,6,20,Ticks_Linear_8,292,1,48,31,764470400
89,6,20,Ticks_Linear_8,293,1,48,31,764951652
89,6,20,Ticks_Linear_8,294,5,42,127,764994984
89,6,20,Ticks_Linear_8,295,1,48,31,765487748
89,6,20,Ticks_Linear_8,296,5,42,127,765525312
89,6,20,Ticks_Linear_8,297,1,48,29,766040320
89,6,20,Ticks_Linear_8,298,5,42,127,766044484
89,6,20,Ticks_Linear_8,299,1,48,35,766552460
89,6,20,Ticks_Linear_8,300,5,42,127,766564776
89,6,20,Ticks_Linear_8,301,1,48,31,767079036
89,6,20,Ticks_Linear_8,302,5,42,127,767084920
89,6,20,Ticks_Linear_8,303,5,42,127,767605296
89,6,20,Ticks_Linear_8,304,1,48,32,767613292
89,6,20,Ticks_Linear_8,305,1,48,27,768116256
89,6,20,Ticks_Linear_8,306,5,42,127,768125284
89,6,20,Ticks_Linear_8,307,1,48,32,768621796
89,6,20,Ticks_Linear_8,308,5,42,127,768635244
89,6,20,Ticks_Linear_8,309,5,42,127,769145136
89,6,20,Ticks_Linear_8,310,1,48,30,769149824
89,6,20,Ticks_Linear_8,311,1,48,29,769645164
89,6,20,Ticks_Linear_8,312,5,42,127,769655240
89,6,20,Ticks_Linear_8,313,5,42,127,770165428
89,6,20,Ticks_Linear_8,314,1,48,31,770167800
89,6,20,Ticks_Linear_8,315,5,42,127,770675240
89,6,20,Ticks_Linear_8,316,1,48,32,770680232
89,6,20,Ticks_Linear_8,317,5,42,127,771174644
89,6,20,Ticks_Linear_8,318,1,48,35,771201944
89,6,20,Ticks_Linear_8,319,5,42,127,771674344
89,6,20,Ticks_Linear_8,320,1,48,29,771678436
89,6,20,Ticks_Linear_8,321,5,42,127,772175312
89,6,20,Ticks_Linear_8,322,1,48,34,772194912
89,6,20,Ticks_Linear_8,323,1,48,37,772660884
89,6,20,Ticks_Linear_8,324,5,42,127,772675080
89,6,20,Ticks_Linear_8,325,1,48,34,773139092
89,6,20,Ticks_Linear_8,326,5,42,127,773174708
89,6,20,Ticks_Linear_8,327,1,48,32,773649128
89,6,20,Ticks_Linear_8,328,5,42,127,773665196
89,6,20,Ticks_Linear_8,329,1,48,38,774108664
89,6,20,Ticks_Linear_8,330,5,42,127,774154540
89,6,20,Ticks_Linear_8,331,1,48,43,774597208
89,6,20,Ticks_Linear_8,332,5,42,127,774645324
89,6,20,Ticks_Linear_8,333,1,48,34,775121540
89,6,20,Ticks_Linear_8,334,5,42,127,775134544
89,6,20,Ticks_Linear_8,335,1,48,38,775617652
89,6,20,Ticks_Linear_8,336,5,42,127,775625328
89,6,20,Ticks_Linear_8,0,9999,9999,9999,665072712
89,6,20,Ticks_Linear_8,1,9999,9999,9999,665892928
89,6,20,Ticks_Linear_8,2,9999,9999,9999,666712140
89,6,20,Ticks_Linear_8,3,9999,9999,9999,667532364
89,6,20,Ticks_Linear_8,4,9999,9999,9999,668352624
89,6,20,Ticks_Linear_8,5,9999,9999,9999,669162604
89,6,20,Ticks_Linear_8,6,9999,9999,9999,669972540
89,6,20,Ticks_Linear_8,7,9999,9999,9999,670782524
89,6,20,Ticks_Linear_8,8,9999,9999,9999,671592508
89,6,20,Ticks_Linear_8,9,9999,9999,9999,672402492
89,6,20,Ticks_Linear_8,10,9999,9999,9999,673202296
89,6,20,Ticks_Linear_8,11,9999,9999,9999,674003060
89,6,20,Ticks_Linear_8,12,9999,9999,9999,674802784
89,6,20,Ticks_Linear_8,13,9999,9999,9999,675602532
89,6,20,Ticks_Linear_8,14,9999,9999,9999,676402260
89,6,20,Ticks_Linear_8,15,9999,9999,9999,677192776
89,6,20,Ticks_Linear_8,16,9999,9999,9999,677982312
89,6,20,Ticks_Linear_8,17,9999,9999,9999,678772820
89,6,20,Ticks_Linear_8,18,9999,9999,9999,679562360
89,6,20,Ticks_Linear_8,19,9999,9999,9999,680352872
89,6,20,Ticks_Linear_8,20,9999,9999,9999,681132088
89,6,20,Ticks_Linear_8,21,9999,9999,9999,681912412
89,6,20,Ticks_Linear_8,22,9999,9999,9999,682692668
89,6,20,Ticks_Linear_8,23,9999,9999,9999,683472992
89,6,20,Ticks_Linear_8,24,9999,9999,9999,684252268
89,6,20,Ticks_Linear_8,25,9999,9999,9999,685022268
89,6,20,Ticks_Linear_8,26,9999,9999,9999,685792336
89,6,20,Ticks_Linear_8,27,9999,9999,9999,686562404
89,6,20,Ticks_Linear_8,28,9999,9999,9999,687332472
89,6,20,Ticks_Linear_8,29,9999,9999,9999,688102464
89,6,20,Ticks_Linear_8,30,9999,9999,9999,688862276
89,6,20,Ticks_Linear_8,31,9999,9999,9999,689622080
89,6,20,Ticks_Linear_8,32,9999,9999,9999,690382932
89,6,20,Ticks_Linear_8,33,9999,9999,9999,691142740
89,6,20,Ticks_Linear_8,34,9999,9999,9999,691902556
89,6,20,Ticks_Linear_8,35,9999,9999,9999,692652108
89,6,20,Ticks_Linear_8,36,9999,9999,9999,693402720
89,6,20,Ticks_Linear_8,37,9999,9999,9999,694152248
89,6,20,Ticks_Linear_8,38,9999,9999,9999,694902852
89,6,20,Ticks_Linear_8,39,9999,9999,9999,695652472
89,6,20,Ticks_Linear_8,40,9999,9999,9999,696392812
89,6,20,Ticks_Linear_8,41,9999,9999,9999,697132100
89,6,20,Ticks_Linear_8,42,9999,9999,9999,697872488
89,6,20,Ticks_Linear_8,43,9999,9999,9999,698612828
89,6,20,Ticks_Linear_8,44,9999,9999,9999,699352192
89,6,20,Ticks_Linear_8,45,9999,9999,9999,700082272
89,6,20,Ticks_Linear_8,46,9999,9999,9999,700812348
89,6,20,Ticks_Linear_8,47,9999,9999,9999,701542500
89,6,20,Ticks_Linear_8,48,9999,9999,9999,702272580
89,6,20,Ticks_Linear_8,49,9999,9999,9999,703002732
89,6,20,Ticks_Linear_8,50,9999,9999,9999,703722600
89,6,20,Ticks_Linear_8,51,9999,9999,9999,704442472
89,6,20,Ticks_Linear_8,52,9999,9999,9999,705162364
89,6,20,Ticks_Linear_8,53,9999,9999,9999,705882184
89,6,20,Ticks_Linear_8,54,9999,9999,9999,706603124
89,6,20,Ticks_Linear_8,55,9999,9999,9999,707322992
89,6,20,Ticks_Linear_8,56,9999,9999,9999,708032628
89,6,20,Ticks_Linear_8,57,9999,9999,9999,708742264
89,6,20,Ticks_Linear_8,58,9999,9999,9999,709452868
89,6,20,Ticks_Linear_8,59,9999,9999,9999,710162500
89,6,20,Ticks_Linear_8,60,9999,9999,9999,710862904
89,6,20,Ticks_Linear_8,61,9999,9999,9999,711562352
89,6,20,Ticks_Linear_8,62,9999,9999,9999,712262776
89,6,20,Ticks_Linear_8,63,9999,9999,9999,712962124
89,6,20,Ticks_Linear_8,64,9999,9999,9999,713662544
89,6,20,Ticks_Linear_8,65,9999,9999,9999,714352708
89,6,20,Ticks_Linear_8,66,9999,9999,9999,715042872
89,6,20,Ticks_Linear_8,67,9999,9999,9999,715733084
89,6,20,Ticks_Linear_8,68,9999,9999,9999,716422204
89,6,20,Ticks_Linear_8,69,9999,9999,9999,717112440
89,6,20,Ticks_Linear_8,70,9999,9999,9999,717792320
89,6,20,Ticks_Linear_8,71,9999,9999,9999,718472296
89,6,20,Ticks_Linear_8,72,9999,9999,9999,719152200
89,6,20,Ticks_Linear_8,73,9999,9999,9999,719832156
89,6,20,Ticks_Linear_8,74,9999,9999,9999,720512060
89,6,20,Ticks_Linear_8,75,9999,9999,9999,721182840
89,6,20,Ticks_Linear_8,76,9999,9999,9999,721852536
89,6,20,Ticks_Linear_8,77,9999,9999,9999,722522184
89,6,20,Ticks_Linear_8,78,9999,9999,9999,723192928
89,6,20,Ticks_Linear_8,79,9999,9999,9999,723862644
89,6,20,Ticks_Linear_8,80,9999,9999,9999,724523080
89,6,20,Ticks_Linear_8,81,9999,9999,9999,725192776
89,6,20,Ticks_Linear_8,82,9999,9999,9999,725852236
89,6,20,Ticks_Linear_8,83,9999,9999,9999,726512716
89,6,20,Ticks_Linear_8,84,9999,9999,9999,727172176
89,6,20,Ticks_Linear_8,85,9999,9999,9999,727822400
89,6,20,Ticks_Linear_8,86,9999,9999,9999,728472648
89,6,20,Ticks_Linear_8,87,9999,9999,9999,729122896
89,6,20,Ticks_Linear_8,88,9999,9999,9999,729772148
89,6,20,Ticks_Linear_8,89,9999,9999,9999,730422388
89,6,20,Ticks_Linear_8,90,9999,9999,9999,731062356
89,6,20,Ticks_Linear_8,91,9999,9999,9999,731702348
89,6,20,Ticks_Linear_8,92,9999,9999,9999,732342384
89,6,20,Ticks_Linear_8,93,9999,9999,9999,732982376
89,6,20,Ticks_Linear_8,94,9999,9999,9999,733622336
89,6,20,Ticks_Linear_8,95,9999,9999,9999,734252136
89,6,20,Ticks_Linear_8,96,9999,9999,9999,734882892
89,6,20,Ticks_Linear_8,97,9999,9999,9999,735512700
89,6,20,Ticks_Linear_8,98,9999,9999,9999,736142404
89,6,20,Ticks_Linear_8,99,9999,9999,9999,736772184
89,6,20,Ticks_Linear_8,100,9999,9999,9999,737392704
89,6,20,Ticks_Linear_8,101,9999,9999,9999,738012224
89,6,20,Ticks_Linear_8,102,9999,9999,9999,738632816
89,6,20,Ticks_Linear_8,103,9999,9999,9999,739252328
89,6,20,Ticks_Linear_8,104,9999,9999,9999,739872820
89,6,20,Ticks_Linear_8,105,9999,9999,9999,740482164
89,6,20,Ticks_Linear_8,106,9999,9999,9999,741092472
89,6,20,Ticks_Linear_8,107,9999,9999,9999,741702728
89,6,20,Ticks_Linear_8,108,9999,9999,9999,742313032
89,6,20,Ticks_Linear_8,109,9999,9999,9999,742922364
89,6,20,Ticks_Linear_8,110,9999,9999,9999,743522364
89,6,20,Ticks_Linear_8,111,9999,9999,9999,744122492
89,6,20,Ticks_Linear_8,112,9999,9999,9999,744722488
89,6,20,Ticks_Linear_8,113,9999,9999,9999,745322608
89,6,20,Ticks_Linear_8,114,9999,9999,9999,745922684
89,6,20,Ticks_Linear_8,115,9999,9999,9999,746512472
89,6,20,Ticks_Linear_8,116,9999,9999,9999,747102268
89,6,20,Ticks_Linear_8,117,9999,9999,9999,747692132
89,6,20,Ticks_Linear_8,118,9999,9999,9999,748282964
89,6,20,Ticks_Linear_8,119,9999,9999,9999,748872776
89,6,20,Ticks_Linear_8,120,9999,9999,9999,749452388
89,6,20,Ticks_Linear_8,121,9999,9999,9999,750032968
89,6,20,Ticks_Linear_8,122,9999,9999,9999,750612596
89,6,20,Ticks_Linear_8,123,9999,9999,9999,751192132
89,6,20,Ticks_Linear_8,124,9999,9999,9999,751772776
89,6,20,Ticks_Linear_8,125,9999,9999,9999,752342124
89,6,20,Ticks_Linear_8,126,9999,9999,9999,752912472
89,6,20,Ticks_Linear_8,127,9999,9999,9999,753482864
89,6,20,Ticks_Linear_8,128,9999,9999,9999,754052216
89,6,20,Ticks_Linear_8,129,9999,9999,9999,754622532
89,6,20,Ticks_Linear_8,130,9999,9999,9999,755182668
89,6,20,Ticks_Linear_8,131,9999,9999,9999,755742828
89,6,20,Ticks_Linear_8,132,9999,9999,9999,756302952
89,6,20,Ticks_Linear_8,133,9999,9999,9999,756863084
89,6,20,Ticks_Linear_8,134,9999,9999,9999,757422172
89,6,20,Ticks_Linear_8,135,9999,9999,9999,757973100
89,6,20,Ticks_Linear_8,136,9999,9999,9999,758522972
89,6,20,Ticks_Linear_8,137,9999,9999,9999,759072848
89,6,20,Ticks_Linear_8,138,9999,9999,9999,759622724
89,6,20,Ticks_Linear_8,139,9999,9999,9999,760172668
89,6,20,Ticks_Linear_8,140,9999,9999,9999,760712284
89,6,20,Ticks_Linear_8,141,9999,9999,9999,761252944
89,6,20,Ticks_Linear_8,142,9999,9999,9999,761792636
89,6,20,Ticks_Linear_8,143,9999,9999,9999,762332252
89,6,20,Ticks_Linear_8,144,9999,9999,9999,762872916
89,6,20,Ticks_Linear_8,145,9999,9999,9999,763402348
89,6,20,Ticks_Linear_8,146,9999,9999,9999,763932772
89,6,20,Ticks_Linear_8,147,9999,9999,9999,764462136
89,6,20,Ticks_Linear_8,148,9999,9999,9999,764992608
89,6,20,Ticks_Linear_8,149,9999,9999,9999,765523012
89,6,20,Ticks_Linear_8,150,9999,9999,9999,766042184
89,6,20,Ticks_Linear_8,151,9999,9999,9999,766562404
89,6,20,Ticks_Linear_8,152,9999,9999,9999,767082624
89,6,20,Ticks_Linear_8,153,9999,9999,9999,767602772
89,6,20,Ticks_Linear_8,154,9999,9999,9999,768122984
89,6,20,Ticks_Linear_8,155,9999,9999,9999,768632944
89,6,20,Ticks_Linear_8,156,9999,9999,9999,769142836
89,6,20,Ticks_Linear_8,157,9999,9999,9999,769652792
89,6,20,Ticks_Linear_8,158,9999,9999,9999,770162756
89,6,20,Ticks_Linear_8,159,9999,9999,9999,770672720
89,6,20,Ticks_Linear_8,160,9999,9999,9999,771172420
89,6,20,Ticks_Linear_8,161,9999,9999,9999,771672120
89,6,20,Ticks_Linear_8,162,9999,9999,9999,772172868
89,6,20,Ticks_Linear_8,163,9999,9999,9999,772672636
89,6,20,Ticks_Linear_8,164,9999,9999,9999,773172336
89,6,20,Ticks_Linear_8,165,9999,9999,9999,773662824
89,6,20,Ticks_Linear_8,166,9999,9999,9999,774152316
89,6,20,Ticks_Linear_8,167,9999,9999,9999,774642804
89,6,20,Ticks_Linear_8,168,9999,9999,9999,775132244
89,6,20,Ticks_Linear_8,169,9999,9999,9999,775622732
89,7,10,Ticks_ISO_T2_5,0,5,42,127,785159616
89,7,10,Ticks_ISO_T2_5,1,5,42,127,785660156
89,7,10,Ticks_ISO_T2_5,2,5,42,127,786159948
89,7,10,Ticks_ISO_T2_5,3,1,48,16,786161284
89,7,10,Ticks_ISO_T2_5,4,5,42,127,786659792
89,7,10,Ticks_ISO_T2_5,5,1,48,24,786662384
89,7,10,Ticks_ISO_T2_5,6,1,48,30,787115836
89,7,10,Ticks_ISO_T2_5,7,5,42,127,787160524
89,7,10,Ticks_ISO_T2_5,8,1,48,38,787581100
89,7,10,Ticks_ISO_T2_5,9,5,42,127,787660120
89,7,10,Ticks_ISO_T2_5,10,1,48,24,788096132
89,7,10,Ticks_ISO_T2_5,11,5,42,127,788160040
89,7,10,Ticks_ISO_T2_5,12,1,48,33,788606592
89,7,10,Ticks_ISO_T2_5,13,5,42,127,788659436
89,7,10,Ticks_ISO_T2_5,14,1,48,33,789141072
89,7,10,Ticks_ISO_T2_5,15,5,42,127,789160252
89,7,10,Ticks_ISO_T2_5,16,1,48,35,789620640
89,7,10,Ticks_ISO_T2_5,17,5,42,127,789660020
89,7,10,Ticks_ISO_T2_5,18,1,48,33,790125348
89,7,10,Ticks_ISO_T2_5,19,5,42,127,790159792
89,7,10,Ticks_ISO_T2_5,20,1,48,31,790657676
89,7,10,Ticks_ISO_T2_5,21,5,42,127,790659416
89,7,10,Ticks_ISO_T2_5,22,1,48,34,791134988
89,7,10,Ticks_ISO_T2_5,23,5,42,127,791160228
89,7,10,Ticks_ISO_T2_5,24,1,48,37,791625184
89,7,10,Ticks_ISO_T2_5,25,5,42,127,791660000
89,7,10,Ticks_ISO_T2_5,26,1,48,37,792153900
89,7,10,Ticks_ISO_T2_5,27,5,42,127,792159696
89,7,10,Ticks_ISO_T2_5,28,1,48,33,792647536
89,7,10,Ticks_ISO_T2_5,29,5,42,127,792660364
89,7,10,Ticks_ISO_T2_5,30,1,48,37,793134740
89,7,10,Ticks_ISO_T2_5,31,5,42,127,793160060
89,7,10,Ticks_ISO_T2_5,32,1,48,37,793643488
89,7,10,Ticks_ISO_T2_5,33,5,42,127,793659976
89,7,10,Ticks_ISO_T2_5,34,5,42,127,794159380
89,7,10,Ticks_ISO_T2_5,35,1,48,36,794166232
89,7,10,Ticks_ISO_T2_5,36,1,48,35,794642876
89,7,10,Ticks_ISO_T2_5,37,5,42,127,794660188
89,7,10,Ticks_ISO_T2_5,38,5,42,127,795160036
89,7,10,Ticks_ISO_T2_5,39,1,48,37,795187768
89,7,10,Ticks_ISO_T2_5,40,1,48,38,795644556
89,7,10,Ticks_ISO_T2_5,41,5,42,127,795659848
89,7,10,Ticks_ISO_T2_5,42,1,48,37,796130864
89,7,10,Ticks_ISO_T2_5,43,5,42,127,796160296
89,7,10,Ticks_ISO_T2_5,44,1,48,40,796622256
89,7,10,Ticks_ISO_T2_5,45,5,42,127,796660212
89,7,10,Ticks_ISO_T2_5,46,1,48,40,797103024
89,7,10,Ticks_ISO_T2_5,47,5,42,127,797160056
89,7,10,Ticks_ISO_T2_5,48,1,48,41,797605340
89,7,10,Ticks_ISO_T2_5,49,5,42,127,797659528
89,7,10,Ticks_ISO_T2_5,50,1,48,29,798107352
89,7,10,Ticks_ISO_T2_5,51,5,42,127,798160192
89,7,10,Ticks_ISO_T2_5,52,1,48,34,798599644
89,7,10,Ticks_ISO_T2_5,53,5,42,127,798659888
89,7,10,Ticks_ISO_T2_5,54,1,48,34,799085872
89,7,10,Ticks_ISO_T2_5,55,5,42,127,799159804
89,7,10,Ticks_ISO_T2_5,56,1,48,33,799571208
89,7,10,Ticks_ISO_T2_5,57,5,42,127,799660476
89,7,10,Ticks_ISO_T2_5,58,1,48,25,800085336
89,7,10,Ticks_ISO_T2_5,59,5,42,127,800160096
89,7,10,Ticks_ISO_T2_5,60,1,48,23,800620184
89,7,10,Ticks_ISO_T2_5,61,5,42,127,800659936
89,7,10,Ticks_ISO_T2_5,62,1,48,32,801101032
89,7,10,Ticks_ISO_T2_5,63,5,42,127,801159484
89,7,10,Ticks_ISO_T2_5,64,1,48,34,801641640
89,7,10,Ticks_ISO_T2_5,65,5,42,127,801660296
89,7,10,Ticks_ISO_T2_5,66,1,48,31,802158108
89,7,10,Ticks_ISO_T2_5,67,5,42,127,802159920
89,7,10,Ticks_ISO_T2_5,68,1,48,36,802645888
89,7,10,Ticks_ISO_T2_5,69,5,42,127,802659912
89,7,10,Ticks_ISO_T2_5,70,1,48,29,803120232
89,7,10,Ticks_ISO_T2_5,71,5,42,127,803160356
89,7,10,Ticks_ISO_T2_5,72,1,48,33,803655376
89,7,10,Ticks_ISO_T2_5,73,5,42,127,803660124
89,7,10,Ticks_ISO_T2_5,74,5,42,127,804159900
89,7,10,Ticks_ISO_T2_5,75,1,48,33,804169528
89,7,10,Ticks_ISO_T2_5,76,5,42,127,804659820
89,7,10,Ticks_ISO_T2_5,77,1,48,34,804669596
89,7,10,Ticks_ISO_T2_5,78,5,42,127,805160188
89,7,10,Ticks_ISO_T2_5,79,1,48,32,805203920
89,7,10,Ticks_ISO_T2_5,80,5,42,127,805659956
89,7,10,Ticks_ISO_T2_5,81,1,48,30,805740116
89,7,10,Ticks_ISO_T2_5,82,5,42,127,806159876
89,7,10,Ticks_ISO_T2_5,83,1,48,37,806246092
89,7,10,Ticks_ISO_T2_5,84,5,42,127,806659620
89,7,10,Ticks_ISO_T2_5,85,1,48,29,806706672
89,7,10,Ticks_ISO_T2_5,86,5,42,127,807160064
89,7,10,Ticks_ISO_T2_5,87,1,48,36,807215416
89,7,10,Ticks_ISO_T2_5,88,5,42,127,807659832
89,7,10,Ticks_ISO_T2_5,89,1,48,34,807742332
89,7,10,Ticks_ISO_T2_5,90,5,42,127,808159752
89,7,10,Ticks_ISO_T2_5,91,1,48,35,808230884
89,7,10,Ticks_ISO_T2_5,92,5,42,127,808660564
89,7,10,Ticks_ISO_T2_5,93,1,48,35,808735220
89,7,10,Ticks_ISO_T2_5,94,5,42,127,809159964
89,7,10,Ticks_ISO_T2_5,95,1,48,36,809215516
89,7,10,Ticks_ISO_T2_5,96,5,42,127,809659956
89,7,10,Ticks_ISO_T2_5,97,1,48,37,809697708
89,7,10,Ticks_ISO_T2_5,98,5,42,127,810159652
89,7,10,Ticks_ISO_T2_5,99,1,48,35,810195756
89,7,10,Ticks_ISO_T2_5,100,5,42,127,810660168
89,7,10,Ticks_ISO_T2_5,101,1,48,35,810673460
89,7,10,Ticks_ISO_T2_5,102,1,48,40,811151292
89,7,10,Ticks_ISO_T2_5,103,5,42,127,811159932
89,7,10,Ticks_ISO_T2_5,104,1,48,40,811657588
89,7,10,Ticks_ISO_T2_5,105,5,42,127,811659552
89,7,10,Ticks_ISO_T2_5,106,1,48,42,812159772
89,7,10,Ticks_ISO_T2_5,107,5,42,127,812161116
89,7,10,Ticks_ISO_T2_5,108,1,48,35,812658556
89,7,10,Ticks_ISO_T2_5,109,5,42,127,812660136
89,7,10,Ticks_ISO_T2_5,110,5,42,127,813159912
89,7,10,Ticks_ISO_T2_5,111,1,48,40,813200056
89,7,10,Ticks_ISO_T2_5,112,5,42,127,813659608
89,7,10,Ticks_ISO_T2_5,113,1,48,35,813686888
89,7,10,Ticks_ISO_T2_5,114,1,48,40,814152980
89,7,10,Ticks_ISO_T2_5,115,5,42,127,814160192
89,7,10,Ticks_ISO_T2_5,116,5,42,127,814659896
89,7,10,Ticks_ISO_T2_5,117,1,48,34,814664060
89,7,10,Ticks_ISO_T2_5,118,1,48,38,815158908
89,7,10,Ticks_ISO_T2_5,119,5,42,127,815160480
89,7,10,Ticks_ISO_T2_5,120,1,48,37,815651312
89,7,10,Ticks_ISO_T2_5,121,5,42,127,815660472
89,7,10,Ticks_ISO_T2_5,122,1,48,40,816147416
89,7,10,Ticks_ISO_T2_5,123,5,42,127,816160092
89,7,10,Ticks_ISO_T2_5,124,1,48,42,816639236
89,7,10,Ticks_ISO_T2_5,125,5,42,127,816659716
89,7,10,Ticks_ISO_T2_5,126,1,48,39,817128156
89,7,10,Ticks_ISO_T2_5,127,5,42,127,817159608
89,7,10,Ticks_ISO_T2_5,128,1,48,39,817608256
89,7,10,Ticks_ISO_T2_5,129,5,42,127,817660200
89,7,10,Ticks_ISO_T2_5,130,1,48,35,818099796
89,7,10,Ticks_ISO_T2_5,131,5,42,127,818159972
89,7,10,Ticks_ISO_T2_5,132,1,48,38,818610492
89,7,10,Ticks_ISO_T2_5,133,5,42,127,818659740
89,7,10,Ticks_ISO_T2_5,134,1,48,35,819114820
89,7,10,Ticks_ISO_T2_5,135,5,42,127,819160780
89,7,10,Ticks_ISO_T2_5,136,1,48,37,819595668
89,7,10,Ticks_ISO_T2_5,137,5,42,127,819660176
89,7,10,Ticks_ISO_T2_5,138,1,48,38,820088408
89,7,10,Ticks_ISO_T2_5,139,5,42,127,820159800
89,7,10,Ticks_ISO_T2_5,140,1,48,36,820609644
89,7,10,Ticks_ISO_T2_5,141,5,42,127,820659492
89,7,10,Ticks_ISO_T2_5,142,1,48,39,821088096
89,7,10,Ticks_ISO_T2_5,143,5,42,127,821160532
89,7,10,Ticks_ISO_T2_5,144,1,48,35,821573576
89,7,10,Ticks_ISO_T2_5,145,5,42,127,821659928
89,7,10,Ticks_ISO_T2_5,146,1,48,37,822056668
89,7,10,Ticks_ISO_T2_5,147,5,42,127,822159688
89,7,10,Ticks_ISO_T2_5,148,1,48,33,822541480
89,7,10,Ticks_ISO_T2_5,149,5,42,127,822659528
89,7,10,Ticks_ISO_T2_5,150,1,48,30,823067132
89,7,10,Ticks_ISO_T2_5,151,5,42,127,823160136
89,7,10,Ticks_ISO_T2_5,152,1,48,32,823611480
89,7,10,Ticks_ISO_T2_5,153,5,42,127,823659832
89,7,10,Ticks_ISO_T2_5,154,5,42,127,824159460
89,7,10,Ticks_ISO_T2_5,155,1,48,33,824162124
89,7,10,Ticks_ISO_T2_5,156,5,42,127,824660496
89,7,10,Ticks_ISO_T2_5,157,1,48,34,824668556
89,7,10,Ticks_ISO_T2_5,158,1,48,37,825132776
89,7,10,Ticks_ISO_T2_5,159,5,42,127,825160040
89,7,10,Ticks_ISO_T2_5,160,1,48,35,825617740
89,7,10,Ticks_ISO_T2_5,161,5,42,127,825659732
89,7,10,Ticks_ISO_T2_5,162,1,48,33,826135308
89,7,10,Ticks_ISO_T2_5,163,5,42,127,826159576
89,7,10,Ticks_ISO_T2_5,164,1,48,34,826637624
89,7,10,Ticks_ISO_T2_5,165,5,42,127,826660544
89,7,10,Ticks_ISO_T2_5,166,1,48,35,827107600
89,7,10,Ticks_ISO_T2_5,167,5,42,127,827159940
89,7,10,Ticks_ISO_T2_5,168,1,48,32,827592556
89,7,10,Ticks_ISO_T2_5,169,5,42,127,827659636
89,7,10,Ticks_ISO_T2_5,170,1,48,41,828113944
89,7,10,Ticks_ISO_T2_5,171,5,42,127,828160576
89,7,10,Ticks_ISO_T2_5,172,1,48,36,828603388
89,7,10,Ticks_ISO_T2_5,173,5,42,127,828660044
89,7,10,Ticks_ISO_T2_5,174,1,48,34,829075856
89,7,10,Ticks_ISO_T2_5,175,5,42,127,829159740
89,7,10,Ticks_ISO_T2_5,176,1,48,35,829584528
89,7,10,Ticks_ISO_T2_5,177,5,42,127,829659584
89,7,10,Ticks_ISO_T2_5,178,1,48,36,830014960
89,7,10,Ticks_ISO_T2_5,179,5,42,127,830160160
89,7,10,Ticks_ISO_T2_5,180,1,48,36,830576508
89,7,10,Ticks_ISO_T2_5,181,5,42,127,830659872
89,7,10,Ticks_ISO_T2_5,182,1,48,35,831106500
89,7,10,Ticks_ISO_T2_5,183,5,42,127,831159564
89,7,10,Ticks_ISO_T2_5,184,1,48,29,831593480
89,7,10,Ticks_ISO_T2_5,185,5,42,127,831660680
89,7,10,Ticks_ISO_T2_5,186,1,48,34,832087036
89,7,10,Ticks_ISO_T2_5,187,5,42,127,832160376
89,7,10,Ticks_ISO_T2_5,188,1,48,29,832631460
89,7,10,Ticks_ISO_T2_5,189,5,42,127,832659920
89,7,10,Ticks_ISO_T2_5,190,1,48,32,833111932
89,7,10,Ticks_ISO_T2_5,191,5,42,127,833159468
89,7,10,Ticks_ISO_T2_5,192,1,48,32,833644988
89,7,10,Ticks_ISO_T2_5,193,5,42,127,833660208
89,7,10,Ticks_ISO_T2_5,194,1,48,28,834129796
89,7,10,Ticks_ISO_T2_5,195,5,42,127,834159828
89,7,10,Ticks_ISO_T2_5,196,1,48,28,834645872
89,7,10,Ticks_ISO_T2_5,197,5,42,127,834659596
89,7,10,Ticks_ISO_T2_5,198,5,42,127,835160420
89,7,10,Ticks_ISO_T2_5,199,1,48,29,835170192
89,7,10,Ticks_ISO_T2_5,200,1,48,31,835643168
89,7,10,Ticks_ISO_T2_5,201,5,42,127,835660332
89,7,10,Ticks_ISO_T2_5,202,1,48,31,836147128
89,7,10,Ticks_ISO_T2_5,203,5,42,127,836159732
89,7,10,Ticks_ISO_T2_5,204,5,42,127,836659508
89,7,10,Ticks_ISO_T2_5,205,1,48,27,836663220
89,7,10,Ticks_ISO_T2_5,206,1,48,26,837127720
89,7,10,Ticks_ISO_T2_5,207,5,42,127,837160388
89,7,10,Ticks_ISO_T2_5,208,1,48,38,837632352
89,7,10,Ticks_ISO_T2_5,209,5,42,127,837660008
89,7,10,Ticks_ISO_T2_5,210,1,48,36,838142144
89,7,10,Ticks_ISO_T2_5,211,5,42,127,838159628
89,7,10,Ticks_ISO_T2_5,212,1,48,36,838652232
89,7,10,Ticks_ISO_T2_5,213,5,42,127,838659448
89,7,10,Ticks_ISO_T2_5,214,1,48,28,839102260
89,7,10,Ticks_ISO_T2_5,215,5,42,127,839160336
89,7,10,Ticks_ISO_T2_5,216,1,48,32,839642572
89,7,10,Ticks_ISO_T2_5,217,5,42,127,839659808
89,7,10,Ticks_ISO_T2_5,218,5,42,127,840159584
89,7,10,Ticks_ISO_T2_5,219,1,48,37,840187388
89,7,10,Ticks_ISO_T2_5,220,5,42,127,840660400
89,7,10,Ticks_ISO_T2_5,221,1,48,32,840673616
89,7,10,Ticks_ISO_T2_5,222,1,48,34,841137616
89,7,10,Ticks_ISO_T2_5,223,5,42,127,841160236
89,7,10,Ticks_ISO_T2_5,224,1,48,34,841617188
89,7,10,Ticks_ISO_T2_5,225,5,42,127,841659784
89,7,10,Ticks_ISO_T2_5,226,1,48,35,842117336
89,7,10,Ticks_ISO_T2_5,227,5,42,127,842159404
89,7,10,Ticks_ISO_T2_5,228,1,48,34,842657640
89,7,10,Ticks_ISO_T2_5,229,5,42,127,842660296
89,7,10,Ticks_ISO_T2_5,230,1,48,32,843150080
89,7,10,Ticks_ISO_T2_5,231,5,42,127,843159840
89,7,10,Ticks_ISO_T2_5,232,5,42,127,843659692
89,7,10,Ticks_ISO_T2_5,233,1,48,38,843660656
89,7,10,Ticks_ISO_T2_5,234,1,48,30,844147596
89,7,10,Ticks_ISO_T2_5,235,5,42,127,844160424
89,7,10,Ticks_ISO_T2_5,236,1,48,32,844649016
89,7,10,Ticks_ISO_T2_5,237,5,42,127,844660268
89,7,10,Ticks_ISO_T2_5,238,5,42,127,845159748
89,7,10,Ticks_ISO_T2_5,239,1,48,31,845174836
89,7,10,Ticks_ISO_T2_5,240,5,42,127,845659440
89,7,10,Ticks_ISO_T2_5,241,1,48,27,845673632
89,7,10,Ticks_ISO_T2_5,242,1,48,37,846140696
89,7,10,Ticks_ISO_T2_5,243,5,42,127,846160176
89,7,10,Ticks_ISO_T2_5,244,1,48,35,846601988
89,7,10,Ticks_ISO_T2_5,245,5,42,127,846660068
89,7,10,Ticks_ISO_T2_5,246,1,48,32,847145368
89,7,10,Ticks_ISO_T2_5,247,5,42,127,847159612
89,7,10,Ticks_ISO_T2_5,248,1,48,35,847587596
89,7,10,Ticks_ISO_T2_5,249,5,42,127,847660356
89,7,10,Ticks_ISO_T2_5,250,1,48,33,848133884
89,7,10,Ticks_ISO_T2_5,251,5,42,127,848160200
89,7,10,Ticks_ISO_T2_5,252,1,48,30,848627668
89,7,10,Ticks_ISO_T2_5,253,5,42,127,848659744
89,7,10,Ticks_ISO_T2_5,254,1,48,30,849125268
89,7,10,Ticks_ISO_T2_5,255,5,42,127,849159492
89,7,10,Ticks_ISO_T2_5,256,1,48,29,849615096
89,7,10,Ticks_ISO_T2_5,257,5,42,127,849660380
89,7,10,Ticks_ISO_T2_5,258,1,48,29,850110152
89,7,10,Ticks_ISO_T2_5,0,9999,9999,9999,785157180
89,7,10,Ticks_ISO_T2_5,1,9999,9999,9999,785657944
89,7,10,Ticks_ISO_T2_5,2,9999,9999,9999,786157660
89,7,10,Ticks_ISO_T2_5,3,9999,9999,9999,786657356
89,7,10,Ticks_ISO_T2_5,4,9999,9999,9999,787158092
89,7,10,Ticks_ISO_T2_5,5,9999,9999,9999,787657836
89,7,10,Ticks_ISO_T2_5,6,9999,9999,9999,788157532
89,7,10,Ticks_ISO_T2_5,7,9999,9999,9999,788657224
89,7,10,Ticks_ISO_T2_5,8,9999,9999,9999,789157968
89,7,10,Ticks_ISO_T2_5,9,9999,9999,9999,789657660
89,7,10,Ticks_ISO_T2_5,10,9999,9999,9999,790157432
89,7,10,Ticks_ISO_T2_5,11,9999,9999,9999,790657152
89,7,10,Ticks_ISO_T2_5,12,9999,9999,9999,791157868
89,7,10,Ticks_ISO_T2_5,13,9999,9999,9999,791657564
89,7,10,Ticks_ISO_T2_5,14,9999,9999,9999,792157260
89,7,10,Ticks_ISO_T2_5,15,9999,9999,9999,792658004
89,7,10,Ticks_ISO_T2_5,16,9999,9999,9999,793157696
89,7,10,Ticks_ISO_T2_5,17,9999,9999,9999,793657392
89,7,10,Ticks_ISO_T2_5,18,9999,9999,9999,794157168
89,7,10,Ticks_ISO_T2_5,19,9999,9999,9999,794657904
89,7,10,Ticks_ISO_T2_5,20,9999,9999,9999,795157604
89,7,10,Ticks_ISO_T2_5,21,9999,9999,9999,795657268
89,7,10,Ticks_ISO_T2_5,22,9999,9999,9999,796158008
89,7,10,Ticks_ISO_T2_5,23,9999,9999,9999,796657776
89,7,10,Ticks_ISO_T2_5,24,9999,9999,9999,797157472
89,7,10,Ticks_ISO_T2_5,25,9999,9999,9999,797657168
89,7,10,Ticks_ISO_T2_5,26,9999,9999,9999,798157908
89,7,10,Ticks_ISO_T2_5,27,9999,9999,9999,798657604
89,7,10,Ticks_ISO_T2_5,28,9999,9999,9999,799157296
89,7,10,Ticks_ISO_T2_5,29,9999,9999,9999,799658040
89,7,10,Ticks_ISO_T2_5,30,9999,9999,9999,800157808
89,7,10,Ticks_ISO_T2_5,31,9999,9999,9999,800657504
89,7,10,Ticks_ISO_T2_5,32,9999,9999,9999,801157196
89,7,10,Ticks_ISO_T2_5,33,9999,9999,9999,801657936
89,7,10,Ticks_ISO_T2_5,34,9999,9999,9999,802157656
89,7,10,Ticks_ISO_T2_5,35,9999,9999,9999,802657328
89,7,10,Ticks_ISO_T2_5,36,9999,9999,9999,803158068
89,7,10,Ticks_ISO_T2_5,37,9999,9999,9999,803657840
89,7,10,Ticks_ISO_T2_5,38,9999,9999,9999,804157540
89,7,10,Ticks_ISO_T2_5,39,9999,9999,9999,804657236
89,7,10,Ticks_ISO_T2_5,40,9999,9999,9999,805157976
89,7,10,Ticks_ISO_T2_5,41,9999,9999,9999,805657672
89,7,10,Ticks_ISO_T2_5,42,9999,9999,9999,806157364
89,7,10,Ticks_ISO_T2_5,43,9999,9999,9999,806657112
89,7,10,Ticks_ISO_T2_5,44,9999,9999,9999,807157852
89,7,10,Ticks_ISO_T2_5,45,9999,9999,9999,807657548
89,7,10,Ticks_ISO_T2_5,46,9999,9999,9999,808157240
89,7,10,Ticks_ISO_T2_5,47,9999,9999,9999,808657980
89,7,10,Ticks_ISO_T2_5,48,9999,9999,9999,809157752
89,7,10,Ticks_ISO_T2_5,49,9999,9999,9999,809657448
89,7,10,Ticks_ISO_T2_5,50,9999,9999,9999,810157140
89,7,10,Ticks_ISO_T2_5,51,9999,9999,9999,810657884
89,7,10,Ticks_ISO_T2_5,52,9999,9999,9999,811157572
89,7,10,Ticks_ISO_T2_5,53,9999,9999,9999,811657304
89,7,10,Ticks_ISO_T2_5,54,9999,9999,9999,812158012
89,7,10,Ticks_ISO_T2_5,55,9999,9999,9999,812657784
89,7,10,Ticks_ISO_T2_5,56,9999,9999,9999,813157476
89,7,10,Ticks_ISO_T2_5,57,9999,9999,9999,813657172
89,7,10,Ticks_ISO_T2_5,58,9999,9999,9999,814157908
89,7,10,Ticks_ISO_T2_5,59,9999,9999,9999,814657608
89,7,10,Ticks_ISO_T2_5,60,9999,9999,9999,815157304
89,7,10,Ticks_ISO_T2_5,61,9999,9999,9999,815658036
89,7,10,Ticks_ISO_T2_5,62,9999,9999,9999,816157808
89,7,10,Ticks_ISO_T2_5,63,9999,9999,9999,816657500
89,7,10,Ticks_ISO_T2_5,64,9999,9999,9999,817157172
89,7,10,Ticks_ISO_T2_5,65,9999,9999,9999,817657912
89,7,10,Ticks_ISO_T2_5,66,9999,9999,9999,818157684
89,7,10,Ticks_ISO_T2_5,67,9999,9999,9999,818657380
89,7,10,Ticks_ISO_T2_5,68,9999,9999,9999,819158120
89,7,10,Ticks_ISO_T2_5,69,9999,9999,9999,819657816
89,7,10,Ticks_ISO_T2_5,70,9999,9999,9999,820157512
89,7,10,Ticks_ISO_T2_5,71,9999,9999,9999,820657208
89,7,10,Ticks_ISO_T2_5,72,9999,9999,9999,821157948
89,7,10,Ticks_ISO_T2_5,73,9999,9999,9999,821657716
89,7,10,Ticks_ISO_T2_5,74,9999,9999,9999,822157400
89,7,10,Ticks_ISO_T2_5,75,9999,9999,9999,822657096
89,7,10,Ticks_ISO_T2_5,76,9999,9999,9999,823157852
89,7,10,Ticks_ISO_T2_5,77,9999,9999,9999,823657544
89,7,10,Ticks_ISO_T2_5,78,9999,9999,9999,824157248
89,7,10,Ticks_ISO_T2_5,79,9999,9999,9999,824657988
89,7,10,Ticks_ISO_T2_5,80,9999,9999,9999,825157752
89,7,10,Ticks_ISO_T2_5,81,9999,9999,9999,825657444
89,7,10,Ticks_ISO_T2_5,82,9999,9999,9999,826157140
89,7,10,Ticks_ISO_T2_5,83,9999,9999,9999,826657884
89,7,10,Ticks_ISO_T2_5,84,9999,9999,9999,827157580
89,7,10,Ticks_ISO_T2_5,85,9999,9999,9999,827657324
89,7,10,Ticks_ISO_T2_5,86,9999,9999,9999,828158064
89,7,10,Ticks_ISO_T2_5,87,9999,9999,9999,828657760
89,7,10,Ticks_ISO_T2_5,88,9999,9999,9999,829157452
89,7,10,Ticks_ISO_T2_5,89,9999,9999,9999,829657148
89,7,10,Ticks_ISO_T2_5,90,9999,9999,9999,830157872
89,7,10,Ticks_ISO_T2_5,91,9999,9999,9999,830657584
89,7,10,Ticks_ISO_T2_5,92,9999,9999,9999,831157352
89,7,10,Ticks_ISO_T2_5,93,9999,9999,9999,831658096
89,7,10,Ticks_ISO_T2_5,94,9999,9999,9999,832157792
89,7,10,Ticks_ISO_T2_5,95,9999,9999,9999,832657484
89,7,10,Ticks_ISO_T2_5,96,9999,9999,9999,833157180
89,7,10,Ticks_ISO_T2_5,97,9999,9999,9999,833657920
89,7,10,Ticks_ISO_T2_5,98,9999,9999,9999,834157616
89,7,10,Ticks_ISO_T2_5,99,9999,9999,9999,834657384
89,7,10,Ticks_ISO_T2_5,100,9999,9999,9999,835158132
89,7,10,Ticks_ISO_T2_5,101,9999,9999,9999,835657824
89,7,10,Ticks_ISO_T2_5,102,9999,9999,9999,836157520
89,7,10,Ticks_ISO_T2_5,103,9999,9999,9999,836657220
89,7,10,Ticks_ISO_T2_5,104,9999,9999,9999,837157956
89,7,10,Ticks_ISO_T2_5,105,9999,9999,9999,837657648
89,7,10,Ticks_ISO_T2_5,106,9999,9999,9999,838157416
89,7,10,Ticks_ISO_T2_5,107,9999,9999,9999,838657088
89,7,10,Ticks_ISO_T2_5,108,9999,9999,9999,839157828
89,7,10,Ticks_ISO_T2_5,109,9999,9999,9999,839657524
89,7,10,Ticks_ISO_T2_5,110,9999,9999,9999,840157300
89,7,10,Ticks_ISO_T2_5,111,9999,9999,9999,840658036
89,7,10,Ticks_ISO_T2_5,112,9999,9999,9999,841157728
89,7,10,Ticks_ISO_T2_5,113,9999,9999,9999,841657424
89,7,10,Ticks_ISO_T2_5,114,9999,9999,9999,842157120
89,7,10,Ticks_ISO_T2_5,115,9999,9999,9999,842657860
89,7,10,Ticks_ISO_T2_5,116,9999,9999,9999,843157552
89,7,10,Ticks_ISO_T2_5,117,9999,9999,9999,843657328
89,7,10,Ticks_ISO_T2_5,118,9999,9999,9999,844158064
89,7,10,Ticks_ISO_T2_5,119,9999,9999,9999,844657760
89,7,10,Ticks_ISO_T2_5,120,9999,9999,9999,845157460
89,7,10,Ticks_ISO_T2_5,121,9999,9999,9999,845657152
89,7,10,Ticks_ISO_T2_5,122,9999,9999,9999,846157888
89,7,10,Ticks_ISO_T2_5,123,9999,9999,9999,846657632
89,7,10,Ticks_ISO_T2_5,124,9999,9999,9999,847157328
89,7,10,Ticks_ISO_T2_5,125,9999,9999,9999,847658068
89,7,10,Ticks_ISO_T2_5,126,9999,9999,9999,848157764
89,7,10,Ticks_ISO_T2_5,127,9999,9999,9999,848657456
89,7,10,Ticks_ISO_T2_5,128,9999,9999,9999,849157204
89,7,10,Ticks_ISO_T2_5,129,9999,9999,9999,849657944
89,8,9,Ticks_ISO_T2_8,0,5,42,127,860707116
89,8,9,Ticks_ISO_T2_8,1,5,42,127,861507168
89,8,9,Ticks_ISO_T2_8,2,1,48,31,862280256
89,8,9,Ticks_ISO_T2_8,3,5,42,127,862306620
89,8,9,Ticks_ISO_T2_8,4,1,48,27,863064208
89,8,9,Ticks_ISO_T2_8,5,5,42,127,863106428
89,8,9,Ticks_ISO_T2_8,6,1,48,23,863882344
89,8,9,Ticks_ISO_T2_8,7,5,42,127,863907060
89,8,9,Ticks_ISO_T2_8,8,5,42,127,864707096
89,8,9,Ticks_ISO_T2_8,9,1,48,32,864708064
89,8,9,Ticks_ISO_T2_8,10,5,42,127,865506756
89,8,9,Ticks_ISO_T2_8,11,1,48,31,865524456
89,8,9,Ticks_ISO_T2_8,12,5,42,127,866306340
89,8,9,Ticks_ISO_T2_8,13,1,48,31,866328480
89,8,9,Ticks_ISO_T2_8,14,5,42,127,867107068
89,8,9,Ticks_ISO_T2_8,15,1,48,32,867140856
89,8,9,Ticks_ISO_T2_8,16,5,42,127,867907024
89,8,9,Ticks_ISO_T2_8,17,1,48,30,867936020
89,8,9,Ticks_ISO_T2_8,18,1,48,36,868688392
89,8,9,Ticks_ISO_T2_8,19,5,42,127,868706680
89,8,9,Ticks_ISO_T2_8,20,1,48,31,869504752
89,8,9,Ticks_ISO_T2_8,21,5,42,127,869506336
89,8,9,Ticks_ISO_T2_8,22,5,42,127,870307196
89,8,9,Ticks_ISO_T2_8,23,1,48,36,870331708
89,8,9,Ticks_ISO_T2_8,24,5,42,127,871106928
89,8,9,Ticks_ISO_T2_8,25,1,48,35,871144300
89,8,9,Ticks_ISO_T2_8,26,5,42,127,871906888
89,8,9,Ticks_ISO_T2_8,27,1,48,31,871955732
89,8,9,Ticks_ISO_T2_8,28,5,42,127,872706324
89,8,9,Ticks_ISO_T2_8,29,1,48,37,872735568
89,8,9,Ticks_ISO_T2_8,30,1,48,35,873507576
89,8,9,Ticks_ISO_T2_8,31,5,42,127,873508836
89,8,9,Ticks_ISO_T2_8,32,5,42,127,874306936
89,8,9,Ticks_ISO_T2_8,33,1,48,37,874317680
89,8,9,Ticks_ISO_T2_8,34,1,48,34,875093316
89,8,9,Ticks_ISO_T2_8,35,5,42,127,875106884
89,8,9,Ticks_ISO_T2_8,36,1,48,30,875896040
89,8,9,Ticks_ISO_T2_8,37,5,42,127,875906324
89,8,9,Ticks_ISO_T2_8,38,1,48,37,876695996
89,8,9,Ticks_ISO_T2_8,39,5,42,127,876707252
89,8,9,Ticks_ISO_T2_8,40,5,42,127,877506916
89,8,9,Ticks_ISO_T2_8,41,1,48,29,877551996
89,8,9,Ticks_ISO_T2_8,42,5,42,127,878306652
89,8,9,Ticks_ISO_T2_8,43,1,48,27,878331984
89,8,9,Ticks_ISO_T2_8,44,5,42,127,879106608
89,8,9,Ticks_ISO_T2_8,45,1,48,29,879124560
89,8,9,Ticks_ISO_T2_8,46,5,42,127,879907112
89,8,9,Ticks_ISO_T2_8,47,1,48,29,879911280
89,8,9,Ticks_ISO_T2_8,48,5,42,127,880707072
89,8,9,Ticks_ISO_T2_8,49,1,48,31,880738160
89,8,9,Ticks_ISO_T2_8,50,5,42,127,881506804
89,8,9,Ticks_ISO_T2_8,51,1,48,29,881537448
89,8,9,Ticks_ISO_T2_8,52,5,42,127,882306388
89,8,9,Ticks_ISO_T2_8,53,1,48,23,882330148
89,8,9,Ticks_ISO_T2_8,54,1,48,28,883087976
89,8,9,Ticks_ISO_T2_8,55,5,42,127,883107160
89,8,9,Ticks_ISO_T2_8,56,5,42,127,883907048
89,8,9,Ticks_ISO_T2_8,57,1,48,36,883923704
89,8,9,Ticks_ISO_T2_8,58,1,48,38,884681084
89,8,9,Ticks_ISO_T2_8,59,5,42,127,884706776
89,8,9,Ticks_ISO_T2_8,60,1,48,31,885457704
89,8,9,Ticks_ISO_T2_8,61,5,42,127,885506432
89,8,9,Ticks_ISO_T2_8,62,1,48,33,886242928
89,8,9,Ticks_ISO_T2_8,63,5,42,127,886307092
89,8,9,Ticks_ISO_T2_8,64,1,48,27,887051812
89,8,9,Ticks_ISO_T2_8,65,5,42,127,887106896
89,8,9,Ticks_ISO_T2_8,66,1,48,30,887860672
89,8,9,Ticks_ISO_T2_8,67,5,42,127,887906704
89,8,9,Ticks_ISO_T2_8,68,1,48,30,888601012
89,8,9,Ticks_ISO_T2_8,69,5,42,127,888706276
89,8,9,Ticks_ISO_T2_8,70,5,42,127,889507224
89,8,9,Ticks_ISO_T2_8,71,1,48,24,889540936
89,8,9,Ticks_ISO_T2_8,72,1,48,30,890277976
89,8,9,Ticks_ISO_T2_8,73,5,42,127,890306880
89,8,9,Ticks_ISO_T2_8,74,5,42,127,891106692
89,8,9,Ticks_ISO_T2_8,75,1,48,32,891110412
89,8,9,Ticks_ISO_T2_8,76,1,48,31,891895240
89,8,9,Ticks_ISO_T2_8,77,5,42,127,891906568
89,8,9,Ticks_ISO_T2_8,78,5,42,127,892707304
89,8,9,Ticks_ISO_T2_8,79,1,48,24,892710352
89,8,9,Ticks_ISO_T2_8,80,1,48,32,893495252
89,8,9,Ticks_ISO_T2_8,81,5,42,127,893506884
89,8,9,Ticks_ISO_T2_8,82,1,48,32,894200644
89,8,9,Ticks_ISO_T2_8,83,5,42,127,894306828
89,8,9,Ticks_ISO_T2_8,84,1,48,27,895063828
89,8,9,Ticks_ISO_T2_8,85,5,42,127,895106500
89,8,9,Ticks_ISO_T2_8,86,1,48,30,895861848
89,8,9,Ticks_ISO_T2_8,87,5,42,127,895907208
89,8,9,Ticks_ISO_T2_8,88,1,48,39,896636076
89,8,9,Ticks_ISO_T2_8,89,5,42,127,896706868
89,8,9,Ticks_ISO_T2_8,90,1,48,34,897436784
89,8,9,Ticks_ISO_T2_8,91,5,42,127,897506676
89,8,9,Ticks_ISO_T2_8,92,1,48,35,898227320
89,8,9,Ticks_ISO_T2_8,93,5,42,127,898306484
89,8,9,Ticks_ISO_T2_8,94,1,48,29,899083396
89,8,9,Ticks_ISO_T2_8,95,5,42,127,899107064
89,8,9,Ticks_ISO_T2_8,96,1,48,28,899882008
89,8,9,Ticks_ISO_T2_8,97,5,42,127,899906800
89,8,9,Ticks_ISO_T2_8,98,1,48,42,900638732
89,8,9,Ticks_ISO_T2_8,99,5,42,127,900706608
89,8,9,Ticks_ISO_T2_8,100,1,48,34,901491564
89,8,9,Ticks_ISO_T2_8,101,5,42,127,901506564
89,8,9,Ticks_ISO_T2_8,102,1,48,30,902286740
89,8,9,Ticks_ISO_T2_8,103,5,42,127,902307344
89,8,9,Ticks_ISO_T2_8,104,1,48,28,903106404
89,8,9,Ticks_ISO_T2_8,105,5,42,127,903107900
89,8,9,Ticks_ISO_T2_8,106,1,48,31,903895928
89,8,9,Ticks_ISO_T2_8,107,5,42,127,903906736
89,8,9,Ticks_ISO_T2_8,108,1,48,28,904682872
89,8,9,Ticks_ISO_T2_8,109,5,42,127,904706616
89,8,9,Ticks_ISO_T2_8,110,1,48,32,905447976
89,8,9,Ticks_ISO_T2_8,111,5,42,127,905507272
89,8,9,Ticks_ISO_T2_8,112,1,48,29,906245464
89,8,9,Ticks_ISO_T2_8,113,5,42,127,906307004
89,8,9,Ticks_ISO_T2_8,114,1,48,27,907095188
89,8,9,Ticks_ISO_T2_8,115,5,42,127,907106664
89,8,9,Ticks_ISO_T2_8,116,1,48,37,907845852
89,8,9,Ticks_ISO_T2_8,117,5,42,127,907906620
89,8,9,Ticks_ISO_T2_8,118,1,48,31,908648652
89,8,9,Ticks_ISO_T2_8,119,5,42,127,908707028
89,8,9,Ticks_ISO_T2_8,120,1,48,33,909472616
89,8,9,Ticks_ISO_T2_8,121,5,42,127,909506912
89,8,9,Ticks_ISO_T2_8,122,1,48,34,910234352
89,8,9,Ticks_ISO_T2_8,123,5,42,127,910306572
89,8,9,Ticks_ISO_T2_8,124,1,48,29,911042768
89,8,9,Ticks_ISO_T2_8,125,5,42,127,911106304
89,8,9,Ticks_ISO_T2_8,126,1,48,30,911876832
89,8,9,Ticks_ISO_T2_8,127,5,42,127,911907108
89,8,9,Ticks_ISO_T2_8,128,1,48,22,912657668
89,8,9,Ticks_ISO_T2_8,129,5,42,127,912706840
89,8,9,Ticks_ISO_T2_8,130,5,42,127,913506656
89,8,9,Ticks_ISO_T2_8,131,1,48,31,914219828
89,8,9,Ticks_ISO_T2_8,132,5,42,127,914306404
89,8,9,Ticks_ISO_T2_8,133,1,48,26,915022856
89,8,9,Ticks_ISO_T2_8,134,5,42,127,915107256
89,8,9,Ticks_ISO_T2_8,135,1,48,31,915830292
89,8,9,Ticks_ISO_T2_8,136,5,42,127,915906916
89,8,9,Ticks_ISO_T2_8,137,1,48,27,916587692
89,8,9,Ticks_ISO_T2_8,138,5,42,127,916706636
89,8,9,Ticks_ISO_T2_8,139,1,48,31,917393856
89,8,9,Ticks_ISO_T2_8,140,5,42,127,917506368
89,8,9,Ticks_ISO_T2_8,141,1,48,21,918276540
89,8,9,Ticks_ISO_T2_8,142,5,42,127,918307412
89,8,9,Ticks_ISO_T2_8,143,1,48,27,919045232
89,8,9,Ticks_ISO_T2_8,144,5,42,127,919106848
89,8,9,Ticks_ISO_T2_8,145,1,48,25,919833396
89,8,9,Ticks_ISO_T2_8,146,5,42,127,919906732
89,8,9,Ticks_ISO_T2_8,147,1,48,21,920636648
89,8,9,Ticks_ISO_T2_8,148,5,42,127,920706464
89,8,9,Ticks_ISO_T2_8,149,1,48,28,921415060
89,8,9,Ticks_ISO_T2_8,150,5,42,127,921507468
89,8,9,Ticks_ISO_T2_8,151,1,48,26,922257204
89,8,9,Ticks_ISO_T2_8,152,5,42,127,922306832
89,8,9,Ticks_ISO_T2_8,153,1,48,31,923024324
89,8,9,Ticks_ISO_T2_8,154,5,42,127,923106640
89,8,9,Ticks_ISO_T2_8,155,1,48,30,923812540
89,8,9,Ticks_ISO_T2_8,156,5,42,127,923906804
89,8,9,Ticks_ISO_T2_8,157,1,48,33,924573228
89,8,9,Ticks_ISO_T2_8,158,5,42,127,924707460
89,8,9,Ticks_ISO_T2_8,159,1,48,26,925412228
89,8,9,Ticks_ISO_T2_8,160,5,42,127,925506836
89,8,9,Ticks_ISO_T2_8,161,1,48,23,926289108
89,8,9,Ticks_ISO_T2_8,162,5,42,127,926306720
89,8,9,Ticks_ISO_T2_8,163,1,48,27,927094596
89,8,9,Ticks_ISO_T2_8,164,5,42,127,927106452
89,8,9,Ticks_ISO_T2_8,165,1,48,32,927851244
89,8,9,Ticks_ISO_T2_8,166,5,42,127,927907232
89,8,9,Ticks_ISO_T2_8,167,1,48,29,928649932
89,8,9,Ticks_ISO_T2_8,168,5,42,127,928707112
89,8,9,Ticks_ISO_T2_8,169,1,48,25,929454676
89,8,9,Ticks_ISO_T2_8,170,5,42,127,929506548
89,8,9,Ticks_ISO_T2_8,171,1,48,22,930240048
89,8,9,Ticks_ISO_T2_8,172,5,42,127,930306280
89,8,9,Ticks_ISO_T2_8,173,1,48,24,931025644
89,8,9,Ticks_ISO_T2_8,174,5,42,127,931107160
89,8,9,Ticks_ISO_T2_8,175,1,48,29,931808100
89,8,9,Ticks_ISO_T2_8,176,5,42,127,931906808
89,8,9,Ticks_ISO_T2_8,177,1,48,21,932633216
89,8,9,Ticks_ISO_T2_8,178,5,42,127,932706632
89,8,9,Ticks_ISO_T2_8,179,1,48,21,933428616
89,8,9,Ticks_ISO_T2_8,180,5,42,127,933506364
89,8,9,Ticks_ISO_T2_8,181,1,48,28,934203216
89,8,9,Ticks_ISO_T2_8,182,5,42,127,934307056
89,8,9,Ticks_ISO_T2_8,183,1,48,30,934990380
89,8,9,Ticks_ISO_T2_8,184,5,42,127,935106936
89,8,9,Ticks_ISO_T2_8,185,1,48,28,935838656
89,8,9,Ticks_ISO_T2_8,186,5,42,127,935906536
89,8,9,Ticks_ISO_T2_8,187,1,48,28,936696580
89,8,9,Ticks_ISO_T2_8,188,5,42,127,936706268
89,8,9,Ticks_ISO_T2_8,189,1,48,29,937477692
89,8,9,Ticks_ISO_T2_8,190,5,42,127,937507124
89,8,9,Ticks_ISO_T2_8,191,5,42,127,938307088
89,8,9,Ticks_ISO_T2_8,192,1,48,19,938329876
89,8,9,Ticks_ISO_T2_8,193,5,42,127,939106524
89,8,9,Ticks_ISO_T2_8,194,1,48,28,939126996
89,8,9,Ticks_ISO_T2_8,195,1,48,30,939883396
89,8,9,Ticks_ISO_T2_8,196,5,42,127,939906396
89,8,9,Ticks_ISO_T2_8,197,1,48,29,940698768
89,8,9,Ticks_ISO_T2_8,198,5,42,127,940707176
89,8,9,Ticks_ISO_T2_8,199,5,42,127,941507064
89,8,9,Ticks_ISO_T2_8,200,1,48,31,941542500
89,8,9,Ticks_ISO_T2_8,201,5,42,127,942306576
89,8,9,Ticks_ISO_T2_8,202,1,48,29,942336992
89,8,9,Ticks_ISO_T2_8,203,5,42,127,943106384
89,8,9,Ticks_ISO_T2_8,204,1,48,30,943111768
89,8,9,Ticks_ISO_T2_8,205,5,42,127,943907116
89,8,9,Ticks_ISO_T2_8,206,1,48,35,943921000
89,8,9,Ticks_ISO_T2_8,207,1,48,36,944702092
89,8,9,Ticks_ISO_T2_8,208,5,42,127,944706992
89,8,9,Ticks_ISO_T2_8,209,1,48,29,945495096
89,8,9,Ticks_ISO_T2_8,210,5,42,127,945506648
89,8,9,Ticks_ISO_T2_8,211,5,42,127,946306388
89,8,9,Ticks_ISO_T2_8,212,1,48,24,946312424
89,8,9,Ticks_ISO_T2_8,213,5,42,127,947107168
89,8,9,Ticks_ISO_T2_8,214,1,48,25,947142752
89,8,9,Ticks_ISO_T2_8,215,5,42,127,947906904
89,8,9,Ticks_ISO_T2_8,216,1,48,27,947947572
89,8,9,Ticks_ISO_T2_8,217,5,42,127,948706636
89,8,9,Ticks_ISO_T2_8,218,1,48,31,948771632
89,8,9,Ticks_ISO_T2_8,219,5,42,127,949506368
89,8,9,Ticks_ISO_T2_8,220,1,48,32,949543468
89,8,9,Ticks_ISO_T2_8,221,1,48,24,950303168
89,8,9,Ticks_ISO_T2_8,222,5,42,127,950307244
89,8,9,Ticks_ISO_T2_8,223,1,48,29,951082404
89,8,9,Ticks_ISO_T2_8,224,5,42,127,951107048
89,8,9,Ticks_ISO_T2_8,225,5,42,127,951906788
89,8,9,Ticks_ISO_T2_8,226,1,48,28,951909160
89,8,9,Ticks_ISO_T2_8,227,1,48,29,952682548
89,8,9,Ticks_ISO_T2_8,228,5,42,127,952706368
89,8,9,Ticks_ISO_T2_8,229,1,48,40,953479060
89,8,9,Ticks_ISO_T2_8,230,5,42,127,953507072
89,8,9,Ticks_ISO_T2_8,231,1,48,29,954295024
89,8,9,Ticks_ISO_T2_8,232,5,42,127,954307028
89,8,9,Ticks_ISO_T2_8,233,5,42,127,955106620
89,8,9,Ticks_ISO_T2_8,234,1,48,21,955121252
89,8,9,Ticks_ISO_T2_8,235,5,42,127,955906500
89,8,9,Ticks_ISO_T2_8,236,1,48,25,955911292
89,8,9,Ticks_ISO_T2_8,0,9999,9999,9999,860704828
89,8,9,Ticks_ISO_T2_8,1,9999,9999,9999,861504580
89,8,9,Ticks_ISO_T2_8,2,9999,9999,9999,862304332
89,8,9,Ticks_ISO_T2_8,3,9999,9999,9999,863104064
89,8,9,Ticks_ISO_T2_8,4,9999,9999,9999,863904844
89,8,9,Ticks_ISO_T2_8,5,9999,9999,9999,864704584
89,8,9,Ticks_ISO_T2_8,6,9999,9999,9999,865504316
89,8,9,Ticks_ISO_T2_8,7,9999,9999,9999,866304048
89,8,9,Ticks_ISO_T2_8,8,9999,9999,9999,867104852
89,8,9,Ticks_ISO_T2_8,9,9999,9999,9999,867904588
89,8,9,Ticks_ISO_T2_8,10,9999,9999,9999,868704312
89,8,9,Ticks_ISO_T2_8,11,9999,9999,9999,869504052
89,8,9,Ticks_ISO_T2_8,12,9999,9999,9999,870304832
89,8,9,Ticks_ISO_T2_8,13,9999,9999,9999,871104564
89,8,9,Ticks_ISO_T2_8,14,9999,9999,9999,871904372
89,8,9,Ticks_ISO_T2_8,15,9999,9999,9999,872704108
89,8,9,Ticks_ISO_T2_8,16,9999,9999,9999,873504836
89,8,9,Ticks_ISO_T2_8,17,9999,9999,9999,874304572
89,8,9,Ticks_ISO_T2_8,18,9999,9999,9999,875104372
89,8,9,Ticks_ISO_T2_8,19,9999,9999,9999,875904108
89,8,9,Ticks_ISO_T2_8,20,9999,9999,9999,876704888
89,8,9,Ticks_ISO_T2_8,21,9999,9999,9999,877504628
89,8,9,Ticks_ISO_T2_8,22,9999,9999,9999,878304360
89,8,9,Ticks_ISO_T2_8,23,9999,9999,9999,879104092
89,8,9,Ticks_ISO_T2_8,24,9999,9999,9999,879904824
89,8,9,Ticks_ISO_T2_8,25,9999,9999,9999,880704632
89,8,9,Ticks_ISO_T2_8,26,9999,9999,9999,881504364
89,8,9,Ticks_ISO_T2_8,27,9999,9999,9999,882304096
89,8,9,Ticks_ISO_T2_8,28,9999,9999,9999,883104868
89,8,9,Ticks_ISO_T2_8,29,9999,9999,9999,883904608
89,8,9,Ticks_ISO_T2_8,30,9999,9999,9999,884704336
89,8,9,Ticks_ISO_T2_8,31,9999,9999,9999,885504068
89,8,9,Ticks_ISO_T2_8,32,9999,9999,9999,886304872
89,8,9,Ticks_ISO_T2_8,33,9999,9999,9999,887104608
89,8,9,Ticks_ISO_T2_8,34,9999,9999,9999,887904340
89,8,9,Ticks_ISO_T2_8,35,9999,9999,9999,888704060
89,8,9,Ticks_ISO_T2_8,36,9999,9999,9999,889504860
89,8,9,Ticks_ISO_T2_8,37,9999,9999,9999,890304588
89,8,9,Ticks_ISO_T2_8,38,9999,9999,9999,891104328
89,8,9,Ticks_ISO_T2_8,39,9999,9999,9999,891904056
89,8,9,Ticks_ISO_T2_8,40,9999,9999,9999,892704868
89,8,9,Ticks_ISO_T2_8,41,9999,9999,9999,893504596
89,8,9,Ticks_ISO_T2_8,42,9999,9999,9999,894304312
89,8,9,Ticks_ISO_T2_8,43,9999,9999,9999,895104060
89,8,9,Ticks_ISO_T2_8,44,9999,9999,9999,895904840
89,8,9,Ticks_ISO_T2_8,45,9999,9999,9999,896704580
89,8,9,Ticks_ISO_T2_8,46,9999,9999,9999,897504312
89,8,9,Ticks_ISO_T2_8,47,9999,9999,9999,898304048
89,8,9,Ticks_ISO_T2_8,48,9999,9999,9999,899104848
89,8,9,Ticks_ISO_T2_8,49,9999,9999,9999,899904584
89,8,9,Ticks_ISO_T2_8,50,9999,9999,9999,900704316
89,8,9,Ticks_ISO_T2_8,51,9999,9999,9999,901504048
89,8,9,Ticks_ISO_T2_8,52,9999,9999,9999,902304828
89,8,9,Ticks_ISO_T2_8,53,9999,9999,9999,903104568
89,8,9,Ticks_ISO_T2_8,54,9999,9999,9999,903904372
89,8,9,Ticks_ISO_T2_8,55,9999,9999,9999,904704104
89,8,9,Ticks_ISO_T2_8,56,9999,9999,9999,905504832
89,8,9,Ticks_ISO_T2_8,57,9999,9999,9999,906304564
89,8,9,Ticks_ISO_T2_8,58,9999,9999,9999,907104372
89,8,9,Ticks_ISO_T2_8,59,9999,9999,9999,907904108
89,8,9,Ticks_ISO_T2_8,60,9999,9999,9999,908704816
89,8,9,Ticks_ISO_T2_8,61,9999,9999,9999,909504620
89,8,9,Ticks_ISO_T2_8,62,9999,9999,9999,910304356
89,8,9,Ticks_ISO_T2_8,63,9999,9999,9999,911104088
89,8,9,Ticks_ISO_T2_8,64,9999,9999,9999,911904816
89,8,9,Ticks_ISO_T2_8,65,9999,9999,9999,912704624
89,8,9,Ticks_ISO_T2_8,66,9999,9999,9999,913504364
89,8,9,Ticks_ISO_T2_8,67,9999,9999,9999,914304112
89,8,9,Ticks_ISO_T2_8,68,9999,9999,9999,915104820
89,8,9,Ticks_ISO_T2_8,69,9999,9999,9999,915904628
89,8,9,Ticks_ISO_T2_8,70,9999,9999,9999,916704348
89,8,9,Ticks_ISO_T2_8,71,9999,9999,9999,917504080
89,8,9,Ticks_ISO_T2_8,72,9999,9999,9999,918304824
89,8,9,Ticks_ISO_T2_8,73,9999,9999,9999,919104560
89,8,9,Ticks_ISO_T2_8,74,9999,9999,9999,919904368
89,8,9,Ticks_ISO_T2_8,75,9999,9999,9999,920704100
89,8,9,Ticks_ISO_T2_8,76,9999,9999,9999,921504880
89,8,9,Ticks_ISO_T2_8,77,9999,9999,9999,922304616
89,8,9,Ticks_ISO_T2_8,78,9999,9999,9999,923104348
89,8,9,Ticks_ISO_T2_8,79,9999,9999,9999,923904080
89,8,9,Ticks_ISO_T2_8,80,9999,9999,9999,924704872
89,8,9,Ticks_ISO_T2_8,81,9999,9999,9999,925504620
89,8,9,Ticks_ISO_T2_8,82,9999,9999,9999,926304352
89,8,9,Ticks_ISO_T2_8,83,9999,9999,9999,927104088
89,8,9,Ticks_ISO_T2_8,84,9999,9999,9999,927904864
89,8,9,Ticks_ISO_T2_8,85,9999,9999,9999,928704600
89,8,9,Ticks_ISO_T2_8,86,9999,9999,9999,929504332
89,8,9,Ticks_ISO_T2_8,87,9999,9999,9999,930304064
89,8,9,Ticks_ISO_T2_8,88,9999,9999,9999,931104872
89,8,9,Ticks_ISO_T2_8,89,9999,9999,9999,931904588
89,8,9,Ticks_ISO_T2_8,90,9999,9999,9999,932704340
89,8,9,Ticks_ISO_T2_8,91,9999,9999,9999,933504072
89,8,9,Ticks_ISO_T2_8,92,9999,9999,9999,934304840
89,8,9,Ticks_ISO_T2_8,93,9999,9999,9999,935104572
89,8,9,Ticks_ISO_T2_8,94,9999,9999,9999,935904320
89,8,9,Ticks_ISO_T2_8,95,9999,9999,9999,936704052
89,8,9,Ticks_ISO_T2_8,96,9999,9999,9999,937504832
89,8,9,Ticks_ISO_T2_8,97,9999,9999,9999,938304572
89,8,9,Ticks_ISO_T2_8,98,9999,9999,9999,939104304
89,8,9,Ticks_ISO_T2_8,99,9999,9999,9999,939904108
89,8,9,Ticks_ISO_T2_8,100,9999,9999,9999,940704888
89,8,9,Ticks_ISO_T2_8,101,9999,9999,9999,941504628
89,8,9,Ticks_ISO_T2_8,102,9999,9999,9999,942304360
89,8,9,Ticks_ISO_T2_8,103,9999,9999,9999,943104092
89,8,9,Ticks_ISO_T2_8,104,9999,9999,9999,943904824
89,8,9,Ticks_ISO_T2_8,105,9999,9999,9999,944704624
89,8,9,Ticks_ISO_T2_8,106,9999,9999,9999,945504360
89,8,9,Ticks_ISO_T2_8,107,9999,9999,9999,946304100
89,8,9,Ticks_ISO_T2_8,108,9999,9999,9999,947104876
89,8,9,Ticks_ISO_T2_8,109,9999,9999,9999,947904612
89,8,9,Ticks_ISO_T2_8,110,9999,9999,9999,948704344
89,8,9,Ticks_ISO_T2_8,111,9999,9999,9999,949504076
89,8,9,Ticks_ISO_T2_8,112,9999,9999,9999,950304876
89,8,9,Ticks_ISO_T2_8,113,9999,9999,9999,951104608
89,8,9,Ticks_ISO_T2_8,114,9999,9999,9999,951904352
89,8,9,Ticks_ISO_T2_8,115,9999,9999,9999,952704076
89,8,9,Ticks_ISO_T2_8,116,9999,9999,9999,953504856
89,8,9,Ticks_ISO_T2_8,117,9999,9999,9999,954304588
89,8,9,Ticks_ISO_T2_8,118,9999,9999,9999,955104328
89,8,9,Ticks_ISO_T2_8,119,9999,9999,9999,955904060
89,9,23,Ticks_Phase_5,0,5,42,127,965349708
89,9,23,Ticks_Phase_5,1,5,42,127,965849640
89,9,23,Ticks_Phase_5,2,5,42,127,966350324
89,9,23,Ticks_Phase_5,3,5,42,127,966849884
89,9,23,Ticks_Phase_5,4,5,42,127,967349892
89,9,23,Ticks_Phase_5,5,1,48,33,967353304
89,9,23,Ticks_Phase_5,6,1,48,43,967821388
89,9,23,Ticks_Phase_5,7,5,42,127,967850320
89,9,23,Ticks_Phase_5,8,1,48,40,968308496
89,9,23,Ticks_Phase_5,9,5,42,127,968350008
89,9,23,Ticks_Phase_5,10,1,48,41,968810952
89,9,23,Ticks_Phase_5,11,5,42,127,968849920
89,9,23,Ticks_Phase_5,12,1,48,46,969334824
89,9,23,Ticks_Phase_5,13,5,42,127,969349756
89,9,23,Ticks_Phase_5,14,1,48,41,969812348
89,9,23,Ticks_Phase_5,15,5,42,127,969850196
89,9,23,Ticks_Phase_5,16,1,48,40,970310692
89,9,23,Ticks_Phase_5,17,5,42,127,970349812
89,9,23,Ticks_Phase_5,18,1,48,42,970818540
89,9,23,Ticks_Phase_5,19,5,42,127,970849872
89,9,23,Ticks_Phase_5,20,1,48,47,971296204
89,9,23,Ticks_Phase_5,21,5,42,127,971350308
89,9,23,Ticks_Phase_5,22,1,48,40,971796716
89,9,23,Ticks_Phase_5,23,5,42,127,971850072
89,9,23,Ticks_Phase_5,24,1,48,39,972338576
89,9,23,Ticks_Phase_5,25,5,42,127,972349832
89,9,23,Ticks_Phase_5,26,5,42,127,972849752
89,9,23,Ticks_Phase_5,27,1,48,37,972857280
89,9,23,Ticks_Phase_5,28,1,48,40,973334944
89,9,23,Ticks_Phase_5,29,5,42,127,973350184
89,9,23,Ticks_Phase_5,30,1,48,41,973825100
89,9,23,Ticks_Phase_5,31,5,42,127,973849872
89,9,23,Ticks_Phase_5,32,1,48,44,974322320
89,9,23,Ticks_Phase_5,33,5,42,127,974349784
89,9,23,Ticks_Phase_5,34,1,48,39,974812120
89,9,23,Ticks_Phase_5,35,5,42,127,974850492
89,9,23,Ticks_Phase_5,36,1,48,45,975307972
89,9,23,Ticks_Phase_5,37,5,42,127,975360488
89,9,23,Ticks_Phase_5,38,1,48,44,975808104
89,9,23,Ticks_Phase_5,39,5,42,127,975860028
89,9,23,Ticks_Phase_5,40,1,48,38,976288696
89,9,23,Ticks_Phase_5,41,5,42,127,976359716
89,9,23,Ticks_Phase_5,42,1,48,38,976741728
89,9,23,Ticks_Phase_5,43,5,42,127,976859688
89,9,23,Ticks_Phase_5,44,1,48,42,977254216
89,9,23,Ticks_Phase_5,45,5,42,127,977360276
89,9,23,Ticks_Phase_5,46,1,48,33,977772928
89,9,23,Ticks_Phase_5,47,5,42,127,977859980
89,9,23,Ticks_Phase_5,48,1,48,39,978241988
89,9,23,Ticks_Phase_5,49,5,42,127,978359800
89,9,23,Ticks_Phase_5,50,1,48,42,978770804
89,9,23,Ticks_Phase_5,51,5,42,127,978860400
89,9,23,Ticks_Phase_5,52,1,48,39,979296624
89,9,23,Ticks_Phase_5,53,5,42,127,979360236
89,9,23,Ticks_Phase_5,54,1,48,39,979826560
89,9,23,Ticks_Phase_5,55,5,42,127,979859776
89,9,23,Ticks_Phase_5,56,5,42,127,980350484
89,9,23,Ticks_Phase_5,57,1,48,40,980351448
89,9,23,Ticks_Phase_5,58,5,42,127,980849952
89,9,23,Ticks_Phase_5,59,1,48,41,980862580
89,9,23,Ticks_Phase_5,60,5,42,127,981349788
89,9,23,Ticks_Phase_5,61,1,48,43,981367728
89,9,23,Ticks_Phase_5,62,1,48,40,981841652
89,9,23,Ticks_Phase_5,63,5,42,127,981849620
89,9,23,Ticks_Phase_5,64,5,42,127,982350136
89,9,23,Ticks_Phase_5,65,1,48,35,982367792
89,9,23,Ticks_Phase_5,66,5,42,127,982849900
89,9,23,Ticks_Phase_5,67,1,48,39,982865000
89,9,23,Ticks_Phase_5,68,5,42,127,983349664
89,9,23,Ticks_Phase_5,69,1,48,41,983352256
89,9,23,Ticks_Phase_5,70,5,42,127,983850472
89,9,23,Ticks_Phase_5,71,1,48,40,983867904
89,9,23,Ticks_Phase_5,72,5,42,127,984350088
89,9,23,Ticks_Phase_5,73,1,48,42,984367592
89,9,23,Ticks_Phase_5,74,5,42,127,984849700
89,9,23,Ticks_Phase_5,75,1,48,39,984857304
89,9,23,Ticks_Phase_5,76,5,42,127,985349536
89,9,23,Ticks_Phase_5,77,1,48,39,985355796
89,9,23,Ticks_Phase_5,78,1,48,43,985815236
89,9,23,Ticks_Phase_5,79,5,42,127,985850164
89,9,23,Ticks_Phase_5,80,1,48,45,986335140
89,9,23,Ticks_Phase_5,81,5,42,127,986349928
89,9,23,Ticks_Phase_5,82,1,48,16,986430340
89,9,23,Ticks_Phase_5,83,5,42,127,986849528
89,9,23,Ticks_Phase_5,84,1,48,44,986850496
89,9,23,Ticks_Phase_5,85,1,48,15,986951572
89,9,23,Ticks_Phase_5,86,1,48,41,987327968
89,9,23,Ticks_Phase_5,87,5,42,127,987350460
89,9,23,Ticks_Phase_5,88,1,48,38,987826448
89,9,23,Ticks_Phase_5,89,5,42,127,987850072
89,9,23,Ticks_Phase_5,90,1,48,43,988340596
89,9,23,Ticks_Phase_5,91,5,42,127,988349832
89,9,23,Ticks_Phase_5,92,1,48,35,988841480
89,9,23,Ticks_Phase_5,93,5,42,127,988849448
89,9,23,Ticks_Phase_5,94,1,48,42,989316896
89,9,23,Ticks_Phase_5,95,5,42,127,989359468
89,9,23,Ticks_Phase_5,96,1,48,39,989829624
89,9,23,Ticks_Phase_5,97,5,42,127,989860428
89,9,23,Ticks_Phase_5,98,5,42,127,990359900
89,9,23,Ticks_Phase_5,99,1,48,41,990361984
89,9,23,Ticks_Phase_5,100,1,48,43,990853928
89,9,23,Ticks_Phase_5,101,5,42,127,990859656
89,9,23,Ticks_Phase_5,102,1,48,38,991301800
89,9,23,Ticks_Phase_5,103,5,42,127,991360316
89,9,23,Ticks_Phase_5,104,1,48,43,991824248
89,9,23,Ticks_Phase_5,105,5,42,127,991860080
89,9,23,Ticks_Phase_5,106,1,48,35,992312408
89,9,23,Ticks_Phase_5,107,5,42,127,992359844
89,9,23,Ticks_Phase_5,108,1,48,36,992807372
89,9,23,Ticks_Phase_5,109,5,42,127,992859384
89,9,23,Ticks_Phase_5,110,1,48,41,993294256
89,9,23,Ticks_Phase_5,111,5,42,127,993360340
89,9,23,Ticks_Phase_5,112,1,48,40,993783964
89,9,23,Ticks_Phase_5,113,5,42,127,993859804
89,9,23,Ticks_Phase_5,114,1,48,43,994279384
89,9,23,Ticks_Phase_5,115,5,42,127,994359792
89,9,23,Ticks_Phase_5,116,1,48,38,994764088
89,9,23,Ticks_Phase_5,117,5,42,127,994860452
89,9,23,Ticks_Phase_5,118,1,48,38,995292760
89,9,23,Ticks_Phase_5,119,5,42,127,995359988
89,9,23,Ticks_Phase_5,120,1,48,42,995756348
89,9,23,Ticks_Phase_5,121,5,42,127,995859736
89,9,23,Ticks_Phase_5,122,1,48,40,996270792
89,9,23,Ticks_Phase_5,123,5,42,127,996359440
89,9,23,Ticks_Phase_5,124,1,48,40,996770332
89,9,23,Ticks_Phase_5,125,5,42,127,996860452
89,9,23,Ticks_Phase_5,126,1,48,39,997255192
89,9,23,Ticks_Phase_5,127,5,42,127,997379472
89,9,23,Ticks_Phase_5,128,1,48,39,997775768
89,9,23,Ticks_Phase_5,129,5,42,127,997880108
89,9,23,Ticks_Phase_5,130,1,48,33,998285116
89,9,23,Ticks_Phase_5,131,5,42,127,998379960
89,9,23,Ticks_Phase_5,132,1,48,31,998822032
89,9,23,Ticks_Phase_5,133,5,42,127,998879572
89,9,23,Ticks_Phase_5,134,1,48,39,999308472
89,9,23,Ticks_Phase_5,135,5,42,127,999380384
89,9,23,Ticks_Phase_5,136,1,48,34,999820360
89,9,23,Ticks_Phase_5,137,5,42,127,999880144
89,9,23,Ticks_Phase_5,138,1,48,35,1000331580
89,9,23,Ticks_Phase_5,139,5,42,127,1000379612
89,9,23,Ticks_Phase_5,140,1,48,40,1000791428
89,9,23,Ticks_Phase_5,141,5,42,127,1000879448
89,9,23,Ticks_Phase_5,142,1,48,34,1001327740
89,9,23,Ticks_Phase_5,143,5,42,127,1001380256
89,9,23,Ticks_Phase_5,144,1,48,35,1001826444
89,9,23,Ticks_Phase_5,145,5,42,127,1001879872
89,9,23,Ticks_Phase_5,146,1,48,34,1002295576
89,9,23,Ticks_Phase_5,147,5,42,127,1002379488
89,9,23,Ticks_Phase_5,148,1,48,40,1002793764
89,9,23,Ticks_Phase_5,149,5,42,127,1002880296
89,9,23,Ticks_Phase_5,150,1,48,35,1003310460
89,9,23,Ticks_Phase_5,151,5,42,127,1003380280
89,9,23,Ticks_Phase_5,152,1,48,41,1003810592
89,9,23,Ticks_Phase_5,153,5,42,127,1003879892
89,9,23,Ticks_Phase_5,154,1,48,36,1004260536
89,9,23,Ticks_Phase_5,155,5,42,127,1004379492
89,9,23,Ticks_Phase_5,156,1,48,31,1004800064
89,9,23,Ticks_Phase_5,157,5,42,127,1004880168
89,9,23,Ticks_Phase_5,158,1,48,33,1005316988
89,9,23,Ticks_Phase_5,159,5,42,127,1005379932
89,9,23,Ticks_Phase_5,160,1,48,33,1005831440
89,9,23,Ticks_Phase_5,161,5,42,127,1005860372
89,9,23,Ticks_Phase_5,162,1,48,37,1006297852
89,9,23,Ticks_Phase_5,163,5,42,127,1006360208
89,9,23,Ticks_Phase_5,164,1,48,29,1006808700
89,9,23,Ticks_Phase_5,165,5,42,127,1006859524
89,9,23,Ticks_Phase_5,166,1,48,32,1007283140
89,9,23,Ticks_Phase_5,167,5,42,127,1007360460
89,9,23,Ticks_Phase_5,168,1,48,36,1007735548
89,9,23,Ticks_Phase_5,169,5,42,127,1007860328
89,9,23,Ticks_Phase_5,170,1,48,32,1008233440
89,9,23,Ticks_Phase_5,171,5,42,127,1008359720
89,9,23,Ticks_Phase_5,172,1,48,32,1008753052
89,9,23,Ticks_Phase_5,173,5,42,127,1008859408
89,9,23,Ticks_Phase_5,174,1,48,31,1009252740
89,9,23,Ticks_Phase_5,175,5,42,127,1009360292
89,9,23,Ticks_Phase_5,176,1,48,32,1009733932
89,9,23,Ticks_Phase_5,177,5,42,127,1009860132
89,9,23,Ticks_Phase_5,178,1,48,34,1010239616
89,9,23,Ticks_Phase_5,179,5,42,127,1010359524
89,9,23,Ticks_Phase_5,180,1,48,27,1010732708
89,9,23,Ticks_Phase_5,181,5,42,127,1010860332
89,9,23,Ticks_Phase_5,182,1,48,30,1011242136
89,9,23,Ticks_Phase_5,183,5,42,127,1011360316
89,9,23,Ticks_Phase_5,184,1,48,33,1011759348
89,9,23,Ticks_Phase_5,185,5,42,127,1011860080
89,9,23,Ticks_Phase_5,186,1,48,34,1012306800
89,9,23,Ticks_Phase_5,187,5,42,127,1012359636
89,9,23,Ticks_Phase_5,188,1,48,33,1012814884
89,9,23,Ticks_Phase_5,189,5,42,127,1012860296
89,9,23,Ticks_Phase_5,190,1,48,33,1013314940
89,9,23,Ticks_Phase_5,191,5,42,127,1013360204
89,9,23,Ticks_Phase_5,192,5,42,127,1013809580
89,9,23,Ticks_Phase_5,193,1,48,34,1013813372
89,9,23,Ticks_Phase_5,194,1,48,37,1014284136
89,9,23,Ticks_Phase_5,195,5,42,127,1014310308
89,9,23,Ticks_Phase_5,196,1,48,27,1014806964
89,9,23,Ticks_Phase_5,197,5,42,127,1014810144
89,9,23,Ticks_Phase_5,198,1,48,39,1015247168
89,9,23,Ticks_Phase_5,199,5,42,127,1015309608
89,9,23,Ticks_Phase_5,200,1,48,36,1015758324
89,9,23,Ticks_Phase_5,201,5,42,127,1015810492
89,9,23,Ticks_Phase_5,202,1,48,37,1016291852
89,9,23,Ticks_Phase_5,203,5,42,127,1016320340
89,9,23,Ticks_Phase_5,204,1,48,38,1016802452
89,9,23,Ticks_Phase_5,205,5,42,127,1016820228
89,9,23,Ticks_Phase_5,206,1,48,40,1017285356
89,9,23,Ticks_Phase_5,207,5,42,127,1017319764
89,9,23,Ticks_Phase_5,208,1,48,32,1017791644
89,9,23,Ticks_Phase_5,209,5,42,127,1017819456
89,9,23,Ticks_Phase_5,210,5,42,127,1018320124
89,9,23,Ticks_Phase_5,211,1,48,35,1018321088
89,9,23,Ticks_Phase_5,212,1,48,34,1018814224
89,9,23,Ticks_Phase_5,213,5,42,127,1018820176
89,9,23,Ticks_Phase_5,214,5,42,127,1019319720
89,9,23,Ticks_Phase_5,215,1,48,33,1019339468
89,9,23,Ticks_Phase_5,216,1,48,38,1019804840
89,9,23,Ticks_Phase_5,217,5,42,127,1019820372
89,9,23,Ticks_Phase_5,218,1,48,32,1020296812
89,9,23,Ticks_Phase_5,219,5,42,127,1020320212
89,9,23,Ticks_Phase_5,220,1,48,35,1020798984
89,9,23,Ticks_Phase_5,221,5,42,127,1020820196
89,9,23,Ticks_Phase_5,222,1,48,33,1021304128
89,9,23,Ticks_Phase_5,223,5,42,127,1021319588
89,9,23,Ticks_Phase_5,224,1,48,37,1021800976
89,9,23,Ticks_Phase_5,225,5,42,127,1021820252
89,9,23,Ticks_Phase_5,226,1,48,32,1022297228
89,9,23,Ticks_Phase_5,227,5,42,127,1022370188
89,9,23,Ticks_Phase_5,228,1,48,31,1022817508
89,9,23,Ticks_Phase_5,229,5,42,127,1022869876
89,9,23,Ticks_Phase_5,230,1,48,36,1023338160
89,9,23,Ticks_Phase_5,231,5,42,127,1023369788
89,9,23,Ticks_Phase_5,232,1,48,36,1023806456
89,9,23,Ticks_Phase_5,233,5,42,127,1023870372
89,9,23,Ticks_Phase_5,234,1,48,38,1024307044
89,9,23,Ticks_Phase_5,235,5,42,127,1024369988
89,9,23,Ticks_Phase_5,236,1,48,35,1024803664
89,9,23,Ticks_Phase_5,237,5,42,127,1024869752
89,9,23,Ticks_Phase_5,238,1,48,35,1025320804
89,9,23,Ticks_Phase_5,239,5,42,127,1025369364
89,9,23,Ticks_Phase_5,240,1,48,30,1025805208
89,9,23,Ticks_Phase_5,241,5,42,127,1025870172
89,9,23,Ticks_Phase_5,242,1,48,33,1026318312
89,9,23,Ticks_Phase_5,243,5,42,127,1026370012
89,9,23,Ticks_Phase_5,244,1,48,31,1026823084
89,9,23,Ticks_Phase_5,245,5,42,127,1026869624
89,9,23,Ticks_Phase_5,246,1,48,32,1027317128
89,9,23,Ticks_Phase_5,247,5,42,127,1027370284
89,9,23,Ticks_Phase_5,248,1,48,27,1027822064
89,9,23,Ticks_Phase_5,249,5,42,127,1027870044
89,9,23,Ticks_Phase_5,250,1,48,32,1028300408
89,9,23,Ticks_Phase_5,251,5,42,127,1028369884
89,9,23,Ticks_Phase_5,252,1,48,25,1028826152
89,9,23,Ticks_Phase_5,253,5,42,127,1028869424
89,9,23,Ticks_Phase_5,254,1,48,30,1029277384
89,9,23,Ticks_Phase_5,255,5,42,127,1029370192
89,9,23,Ticks_Phase_5,256,1,48,26,1029808388
89,9,23,Ticks_Phase_5,257,5,42,127,1029869820
89,9,23,Ticks_Phase_5,258,1,48,28,1030278044
89,9,23,Ticks_Phase_5,259,5,42,127,1030369732
89,9,23,Ticks_Phase_5,260,1,48,34,1030759012
89,9,23,Ticks_Phase_5,261,5,42,127,1030970004
89,9,23,Ticks_Phase_5,262,1,48,32,1031230168
89,9,23,Ticks_Phase_5,263,5,42,127,1031469396
89,9,23,Ticks_Phase_5,264,1,48,25,1031899848
89,9,23,Ticks_Phase_5,265,5,42,127,1031970144
89,9,23,Ticks_Phase_5,266,5,42,127,1032470060
89,9,23,Ticks_Phase_5,267,1,48,21,1032492948
89,9,23,Ticks_Phase_5,268,1,48,31,1032944000
89,9,23,Ticks_Phase_5,269,5,42,127,1032969892
89,9,23,Ticks_Phase_5,270,1,48,31,1033438076
89,9,23,Ticks_Phase_5,271,5,42,127,1033470304
89,9,23,Ticks_Phase_5,272,1,48,35,1033921884
89,9,23,Ticks_Phase_5,273,5,42,127,1033970068
89,9,23,Ticks_Phase_5,274,1,48,32,1034415048
89,9,23,Ticks_Phase_5,275,5,42,127,1034469980
89,9,23,Ticks_Phase_5,276,1,48,32,1034921412
89,9,23,Ticks_Phase_5,277,5,42,127,1034969444
89,9,23,Ticks_Phase_5,278,1,48,32,1035394656
89,9,23,Ticks_Phase_5,279,5,42,127,1035470176
89,9,23,Ticks_Phase_5,280,1,48,30,1035904904
89,9,23,Ticks_Phase_5,281,5,42,127,1035970016
89,9,23,Ticks_Phase_5,282,1,48,30,1036326780
89,9,23,Ticks_Phase_5,283,5,42,127,1036469836
89,9,23,Ticks_Phase_5,284,1,48,24,1036900240
89,9,23,Ticks_Phase_5,285,5,42,127,1036970364
89,9,23,Ticks_Phase_5,286,1,48,26,1037397376
89,9,23,Ticks_Phase_5,287,5,42,127,1037470052
89,9,23,Ticks_Phase_5,288,1,48,19,1037933688
89,9,23,Ticks_Phase_5,289,5,42,127,1037969964
89,9,23,Ticks_Phase_5,290,1,48,27,1038383424
89,9,23,Ticks_Phase_5,291,5,42,127,1038469504
89,9,23,Ticks_Phase_5,292,1,48,22,1038878176
89,9,23,Ticks_Phase_5,293,5,42,127,1038970088
89,9,23,Ticks_Phase_5,294,1,48,29,1039362508
89,9,23,Ticks_Phase_5,295,5,42,127,1039469984
89,9,23,Ticks_Phase_5,296,1,48,24,1039863816
89,9,23,Ticks_Phase_5,297,5,42,127,1039969824
89,9,23,Ticks_Phase_5,298,1,48,25,1040349284
89,9,23,Ticks_Phase_5,299,5,42,127,1040369904
89,9,23,Ticks_Phase_5,300,5,42,127,1040869820
89,9,23,Ticks_Phase_5,301,1,48,21,1040880732
89,9,23,Ticks_Phase_5,302,1,48,28,1041306260
89,9,23,Ticks_Phase_5,303,5,42,127,1041369352
89,9,23,Ticks_Phase_5,304,1,48,29,1041787080
89,9,23,Ticks_Phase_5,305,5,42,127,1041870312
89,9,23,Ticks_Phase_5,306,1,48,26,1042282052
89,9,23,Ticks_Phase_5,307,5,42,127,1042369852
89,9,23,Ticks_Phase_5,308,1,48,30,1042782488
89,9,23,Ticks_Phase_5,309,5,42,127,1042869612
89,9,23,Ticks_Phase_5,310,1,48,23,1043263828
89,9,23,Ticks_Phase_5,311,5,42,127,1043370408
89,9,23,Ticks_Phase_5,312,1,48,32,1043774220
89,9,23,Ticks_Phase_5,313,5,42,127,1043870108
89,9,23,Ticks_Phase_5,314,1,48,26,1044246800
89,9,23,Ticks_Phase_5,315,5,42,127,1044369856
89,9,23,Ticks_Phase_5,316,1,48,25,1044770756
89,9,23,Ticks_Phase_5,317,5,42,127,1044869624
89,9,23,Ticks_Phase_5,318,1,48,23,1045267520
89,9,23,Ticks_Phase_5,319,5,42,127,1045370208
89,9,23,Ticks_Phase_5,320,1,48,29,1045799864
89,9,23,Ticks_Phase_5,321,5,42,127,1045869912
89,9,23,Ticks_Phase_5,322,1,48,30,1046307256
89,9,23,Ticks_Phase_5,323,5,42,127,1046369896
89,9,23,Ticks_Phase_5,324,1,48,21,1046840052
89,9,23,Ticks_Phase_5,325,5,42,127,1046870336
89,9,23,Ticks_Phase_5,326,1,48,26,1047316672
89,9,23,Ticks_Phase_5,327,5,42,127,1047370024
89,9,23,Ticks_Phase_5,328,1,48,24,1047813960
89,9,23,Ticks_Phase_5,329,5,42,127,1047869784
89,9,23,Ticks_Phase_5,330,1,48,21,1048287720
89,9,23,Ticks_Phase_5,331,5,42,127,1048369768
89,9,23,Ticks_Phase_5,332,1,48,25,1048790400
89,9,23,Ticks_Phase_5,333,5,42,127,1048870208
89,9,23,Ticks_Phase_5,334,1,48,29,1049249204
89,9,23,Ticks_Phase_5,335,5,42,127,1049370104
89,9,23,Ticks_Phase_5,336,1,48,28,1049775088
89,9,23,Ticks_Phase_5,337,5,42,127,1049869880
89,9,23,Ticks_Phase_5,0,9999,9999,9999,965347420
89,9,23,Ticks_Phase_5,1,9999,9999,9999,965847128
89,9,23,Ticks_Phase_5,2,9999,9999,9999,966347888
89,9,23,Ticks_Phase_5,3,9999,9999,9999,966847596
89,9,23,Ticks_Phase_5,4,9999,9999,9999,967347308
89,9,23,Ticks_Phase_5,5,9999,9999,9999,967848032
89,9,23,Ticks_Phase_5,6,9999,9999,9999,968347724
89,9,23,Ticks_Phase_5,7,9999,9999,9999,968847484
89,9,23,Ticks_Phase_5,8,9999,9999,9999,969347176
89,9,23,Ticks_Phase_5,9,9999,9999,9999,969847908
89,9,23,Ticks_Phase_5,10,9999,9999,9999,970347600
89,9,23,Ticks_Phase_5,11,9999,9999,9999,970847288
89,9,23,Ticks_Phase_5,12,9999,9999,9999,971348020
89,9,23,Ticks_Phase_5,13,9999,9999,9999,971847784
89,9,23,Ticks_Phase_5,14,9999,9999,9999,972347472
89,9,23,Ticks_Phase_5,15,9999,9999,9999,972847168
89,9,23,Ticks_Phase_5,16,9999,9999,9999,973347896
89,9,23,Ticks_Phase_5,17,9999,9999,9999,973847660
89,9,23,Ticks_Phase_5,18,9999,9999,9999,974347348
89,9,23,Ticks_Phase_5,19,9999,9999,9999,974848056
89,9,23,Ticks_Phase_5,20,9999,9999,9999,975358052
89,9,23,Ticks_Phase_5,21,9999,9999,9999,975857740
89,9,23,Ticks_Phase_5,22,9999,9999,9999,976357432
89,9,23,Ticks_Phase_5,23,9999,9999,9999,976857180
89,9,23,Ticks_Phase_5,24,9999,9999,9999,977357912
89,9,23,Ticks_Phase_5,25,9999,9999,9999,977857616
89,9,23,Ticks_Phase_5,26,9999,9999,9999,978357364
89,9,23,Ticks_Phase_5,27,9999,9999,9999,978858040
89,9,23,Ticks_Phase_5,28,9999,9999,9999,979357800
89,9,23,Ticks_Phase_5,29,9999,9999,9999,979857488
89,9,23,Ticks_Phase_5,30,9999,9999,9999,980347972
89,9,23,Ticks_Phase_5,31,9999,9999,9999,980847740
89,9,23,Ticks_Phase_5,32,9999,9999,9999,981347424
89,9,23,Ticks_Phase_5,33,9999,9999,9999,981847108
89,9,23,Ticks_Phase_5,34,9999,9999,9999,982347852
89,9,23,Ticks_Phase_5,35,9999,9999,9999,982847612
89,9,23,Ticks_Phase_5,36,9999,9999,9999,983347304
89,9,23,Ticks_Phase_5,37,9999,9999,9999,983848036
89,9,23,Ticks_Phase_5,38,9999,9999,9999,984347724
89,9,23,Ticks_Phase_5,39,9999,9999,9999,984847416
89,9,23,Ticks_Phase_5,40,9999,9999,9999,985347176
89,9,23,Ticks_Phase_5,41,9999,9999,9999,985847880
89,9,23,Ticks_Phase_5,42,9999,9999,9999,986347644
89,9,23,Ticks_Phase_5,43,9999,9999,9999,986847316
89,9,23,Ticks_Phase_5,44,9999,9999,9999,987348024
89,9,23,Ticks_Phase_5,45,9999,9999,9999,987847784
89,9,23,Ticks_Phase_5,46,9999,9999,9999,988347472
89,9,23,Ticks_Phase_5,47,9999,9999,9999,988847160
89,9,23,Ticks_Phase_5,48,9999,9999,9999,989357184
89,9,23,Ticks_Phase_5,49,9999,9999,9999,989857916
89,9,23,Ticks_Phase_5,50,9999,9999,9999,990357612
89,9,23,Ticks_Phase_5,51,9999,9999,9999,990857292
89,9,23,Ticks_Phase_5,52,9999,9999,9999,991358028
89,9,23,Ticks_Phase_5,53,9999,9999,9999,991857716
89,9,23,Ticks_Phase_5,54,9999,9999,9999,992357480
89,9,23,Ticks_Phase_5,55,9999,9999,9999,992857172
89,9,23,Ticks_Phase_5,56,9999,9999,9999,993357904
89,9,23,Ticks_Phase_5,57,9999,9999,9999,993857592
89,9,23,Ticks_Phase_5,58,9999,9999,9999,994357356
89,9,23,Ticks_Phase_5,59,9999,9999,9999,994858088
89,9,23,Ticks_Phase_5,60,9999,9999,9999,995357776
89,9,23,Ticks_Phase_5,61,9999,9999,9999,995857524
89,9,23,Ticks_Phase_5,62,9999,9999,9999,996357228
89,9,23,Ticks_Phase_5,63,9999,9999,9999,996857940
89,9,23,Ticks_Phase_5,64,9999,9999,9999,997377084
89,9,23,Ticks_Phase_5,65,9999,9999,9999,997877820
89,9,23,Ticks_Phase_5,66,9999,9999,9999,998377600
89,9,23,Ticks_Phase_5,67,9999,9999,9999,998877288
89,9,23,Ticks_Phase_5,68,9999,9999,9999,999378024
89,9,23,Ticks_Phase_5,69,9999,9999,9999,999877712
89,9,23,Ticks_Phase_5,70,9999,9999,9999,1000377400
89,9,23,Ticks_Phase_5,71,9999,9999,9999,1000877164
89,9,23,Ticks_Phase_5,72,9999,9999,9999,1001377896
89,9,23,Ticks_Phase_5,73,9999,9999,9999,1001877584
89,9,23,Ticks_Phase_5,74,9999,9999,9999,1002377272
89,9,23,Ticks_Phase_5,75,9999,9999,9999,1002878008
89,9,23,Ticks_Phase_5,76,9999,9999,9999,1003377772
89,9,23,Ticks_Phase_5,77,9999,9999,9999,1003877460
89,9,23,Ticks_Phase_5,78,9999,9999,9999,1004377204
89,9,23,Ticks_Phase_5,79,9999,9999,9999,1004877880
89,9,23,Ticks_Phase_5,80,9999,9999,9999,1005377644
89,9,23,Ticks_Phase_5,81,9999,9999,9999,1005857860
89,9,23,Ticks_Phase_5,82,9999,9999,9999,1006357624
89,9,23,Ticks_Phase_5,83,9999,9999,9999,1006857312
89,9,23,Ticks_Phase_5,84,9999,9999,9999,1007358020
89,9,23,Ticks_Phase_5,85,9999,9999,9999,1007857744
89,9,23,Ticks_Phase_5,86,9999,9999,9999,1008357432
89,9,23,Ticks_Phase_5,87,9999,9999,9999,1008857196
89,9,23,Ticks_Phase_5,88,9999,9999,9999,1009357932
89,9,23,Ticks_Phase_5,89,9999,9999,9999,1009857624
89,9,23,Ticks_Phase_5,90,9999,9999,9999,1010357312
89,9,23,Ticks_Phase_5,91,9999,9999,9999,1010858044
89,9,23,Ticks_Phase_5,92,9999,9999,9999,1011357808
89,9,23,Ticks_Phase_5,93,9999,9999,9999,1011857496
89,9,23,Ticks_Phase_5,94,9999,9999,9999,1012357200
89,9,23,Ticks_Phase_5,95,9999,9999,9999,1012857936
89,9,23,Ticks_Phase_5,96,9999,9999,9999,1013357620
89,9,23,Ticks_Phase_5,97,9999,9999,9999,1013807220
89,9,23,Ticks_Phase_5,98,9999,9999,9999,1014307948
89,9,23,Ticks_Phase_5,99,9999,9999,9999,1014807636
89,9,23,Ticks_Phase_5,100,9999,9999,9999,1015307324
89,9,23,Ticks_Phase_5,101,9999,9999,9999,1015808108
89,9,23,Ticks_Phase_5,102,9999,9999,9999,1016318052
89,9,23,Ticks_Phase_5,103,9999,9999,9999,1016817792
89,9,23,Ticks_Phase_5,104,9999,9999,9999,1017317480
89,9,23,Ticks_Phase_5,105,9999,9999,9999,1017817168
89,9,23,Ticks_Phase_5,106,9999,9999,9999,1018317908
89,9,23,Ticks_Phase_5,107,9999,9999,9999,1018817592
89,9,23,Ticks_Phase_5,108,9999,9999,9999,1019317360
89,9,23,Ticks_Phase_5,109,9999,9999,9999,1019818088
89,9,23,Ticks_Phase_5,110,9999,9999,9999,1020317776
89,9,23,Ticks_Phase_5,111,9999,9999,9999,1020817464
89,9,23,Ticks_Phase_5,112,9999,9999,9999,1021317228
89,9,23,Ticks_Phase_5,113,9999,9999,9999,1021817964
89,9,23,Ticks_Phase_5,114,9999,9999,9999,1022367828
89,9,23,Ticks_Phase_5,115,9999,9999,9999,1022867516
89,9,23,Ticks_Phase_5,116,9999,9999,9999,1023367276
89,9,23,Ticks_Phase_5,117,9999,9999,9999,1023868012
89,9,23,Ticks_Phase_5,118,9999,9999,9999,1024367700
89,9,23,Ticks_Phase_5,119,9999,9999,9999,1024867388
89,9,23,Ticks_Phase_5,120,9999,9999,9999,1025367152
89,9,23,Ticks_Phase_5,121,9999,9999,9999,1025867888
89,9,23,Ticks_Phase_5,122,9999,9999,9999,1026367576
89,9,23,Ticks_Phase_5,123,9999,9999,9999,1026867264
89,9,23,Ticks_Phase_5,124,9999,9999,9999,1027367996
89,9,23,Ticks_Phase_5,125,9999,9999,9999,1027867756
89,9,23,Ticks_Phase_5,126,9999,9999,9999,1028367448
89,9,23,Ticks_Phase_5,127,9999,9999,9999,1028867136
89,9,23,Ticks_Phase_5,128,9999,9999,9999,1029367920
89,9,23,Ticks_Phase_5,129,9999,9999,9999,1029867608
89,9,23,Ticks_Phase_5,130,9999,9999,9999,1030367296
89,9,23,Ticks_Phase_5,131,9999,9999,9999,1030967420
89,9,23,Ticks_Phase_5,132,9999,9999,9999,1031467108
89,9,23,Ticks_Phase_5,133,9999,9999,9999,1031967856
89,9,23,Ticks_Phase_5,134,9999,9999,9999,1032467552
89,9,23,Ticks_Phase_5,135,9999,9999,9999,1032967232
89,9,23,Ticks_Phase_5,136,9999,9999,9999,1033468016
89,9,23,Ticks_Phase_5,137,9999,9999,9999,1033967704
89,9,23,Ticks_Phase_5,138,9999,9999,9999,1034467392
89,9,23,Ticks_Phase_5,139,9999,9999,9999,1034967156
89,9,23,Ticks_Phase_5,140,9999,9999,9999,1035467892
89,9,23,Ticks_Phase_5,141,9999,9999,9999,1035967580
89,9,23,Ticks_Phase_5,142,9999,9999,9999,1036467328
89,9,23,Ticks_Phase_5,143,9999,9999,9999,1036968004
89,9,23,Ticks_Phase_5,144,9999,9999,9999,1037467764
89,9,23,Ticks_Phase_5,145,9999,9999,9999,1037967452
89,9,23,Ticks_Phase_5,146,9999,9999,9999,1038467140
89,9,23,Ticks_Phase_5,147,9999,9999,9999,1038967876
89,9,23,Ticks_Phase_5,148,9999,9999,9999,1039467624
89,9,23,Ticks_Phase_5,149,9999,9999,9999,1039967312
89,9,23,Ticks_Phase_5,150,9999,9999,9999,1040367688
89,9,23,Ticks_Phase_5,151,9999,9999,9999,1040867384
89,9,23,Ticks_Phase_5,152,9999,9999,9999,1041367140
89,9,23,Ticks_Phase_5,153,9999,9999,9999,1041867876
89,9,23,Ticks_Phase_5,154,9999,9999,9999,1042367564
89,9,23,Ticks_Phase_5,155,9999,9999,9999,1042867328
89,9,23,Ticks_Phase_5,156,9999,9999,9999,1043368044
89,9,23,Ticks_Phase_5,157,9999,9999,9999,1043867748
89,9,23,Ticks_Phase_5,158,9999,9999,9999,1044367424
89,9,23,Ticks_Phase_5,159,9999,9999,9999,1044867188
89,9,23,Ticks_Phase_5,160,9999,9999,9999,1045367920
89,9,23,Ticks_Phase_5,161,9999,9999,9999,1045867624
89,9,23,Ticks_Phase_5,162,9999,9999,9999,1046367312
89,9,23,Ticks_Phase_5,163,9999,9999,9999,1046868048
89,9,23,Ticks_Phase_5,164,9999,9999,9999,1047367736
89,9,23,Ticks_Phase_5,165,9999,9999,9999,1047867500
89,9,23,Ticks_Phase_5,166,9999,9999,9999,1048367184
89,9,23,Ticks_Phase_5,167,9999,9999,9999,1048867920
89,9,23,Ticks_Phase_5,168,9999,9999,9999,1049367668
89,9,23,Ticks_Phase_5,169,9999,9999,9999,1049867372
89,10,22,Ticks_Phase_8,0,5,42,127,1060270660
89,10,22,Ticks_Phase_8,1,5,42,127,1061071292
89,10,22,Ticks_Phase_8,2,1,48,33,1061854736
89,10,22,Ticks_Phase_8,3,5,42,127,1061871016
89,10,22,Ticks_Phase_8,4,1,48,28,1062670612
89,10,22,Ticks_Phase_8,5,5,42,127,1062672100
89,10,22,Ticks_Phase_8,6,5,42,127,1063470696
89,10,22,Ticks_Phase_8,7,1,48,26,1063488952
89,10,22,Ticks_Phase_8,8,5,42,127,1064271308
89,10,22,Ticks_Phase_8,9,1,48,21,1064284832
89,10,22,Ticks_Phase_8,10,5,42,127,1065071092
89,10,22,Ticks_Phase_8,11,1,48,24,1065078248
89,10,22,Ticks_Phase_8,12,5,42,127,1065870656
89,10,22,Ticks_Phase_8,13,1,48,24,1065884928
89,10,22,Ticks_Phase_8,14,5,42,127,1066670588
89,10,22,Ticks_Phase_8,15,1,48,28,1066702392
89,10,22,Ticks_Phase_8,16,5,42,127,1067471344
89,10,22,Ticks_Phase_8,17,1,48,38,1067484500
89,10,22,Ticks_Phase_8,18,1,48,42,1068263460
89,10,22,Ticks_Phase_8,19,5,42,127,1068270904
89,10,22,Ticks_Phase_8,20,1,48,27,1069064912
89,10,22,Ticks_Phase_8,21,5,42,127,1069070712
89,10,22,Ticks_Phase_8,22,1,48,32,1069868992
89,10,22,Ticks_Phase_8,23,5,42,127,1069870428
89,10,22,Ticks_Phase_8,24,1,48,32,1070619560
89,10,22,Ticks_Phase_8,25,5,42,127,1070671336
89,10,22,Ticks_Phase_8,26,1,48,35,1071405340
89,10,22,Ticks_Phase_8,27,5,42,127,1071470896
89,10,22,Ticks_Phase_8,28,1,48,38,1072151208
89,10,22,Ticks_Phase_8,29,5,42,127,1072270668
89,10,22,Ticks_Phase_8,30,1,48,32,1073017712
89,10,22,Ticks_Phase_8,31,5,42,127,1073070468
89,10,22,Ticks_Phase_8,32,1,48,38,1073793168
89,10,22,Ticks_Phase_8,33,5,42,127,1073871228
89,10,22,Ticks_Phase_8,34,1,48,29,1074617440
89,10,22,Ticks_Phase_8,35,5,42,127,1074671092
89,10,22,Ticks_Phase_8,36,1,48,35,1075371920
89,10,22,Ticks_Phase_8,37,5,42,127,1075470604
89,10,22,Ticks_Phase_8,38,1,48,32,1076155976
89,10,22,Ticks_Phase_8,39,5,42,127,1076270376
89,10,22,Ticks_Phase_8,40,1,48,30,1076999680
89,10,22,Ticks_Phase_8,41,5,42,127,1077071372
89,10,22,Ticks_Phase_8,42,1,48,32,1077763064
89,10,22,Ticks_Phase_8,43,5,42,127,1077870992
89,10,22,Ticks_Phase_8,44,1,48,30,1078515796
89,10,22,Ticks_Phase_8,45,5,42,127,1078670556
89,10,22,Ticks_Phase_8,46,1,48,28,1079417152
89,10,22,Ticks_Phase_8,47,5,42,127,1079470504
89,10,22,Ticks_Phase_8,48,1,48,30,1080201296
89,10,22,Ticks_Phase_8,49,5,42,127,1080271340
89,10,22,Ticks_Phase_8,50,1,48,26,1080936972
89,10,22,Ticks_Phase_8,51,5,42,127,1081070960
89,10,22,Ticks_Phase_8,52,1,48,29,1081676248
89,10,22,Ticks_Phase_8,53,5,42,127,1081870700
89,10,22,Ticks_Phase_8,54,1,48,25,1082502996
89,10,22,Ticks_Phase_8,55,5,42,127,1082670560
89,10,22,Ticks_Phase_8,56,1,48,32,1083231868
89,10,22,Ticks_Phase_8,57,5,42,127,1083471392
89,10,22,Ticks_Phase_8,58,1,48,20,1084060936
89,10,22,Ticks_Phase_8,59,5,42,127,1084250588
89,10,22,Ticks_Phase_8,60,1,48,28,1084842524
89,10,22,Ticks_Phase_8,61,5,42,127,1085051200
89,10,22,Ticks_Phase_8,62,1,48,30,1085660960
89,10,22,Ticks_Phase_8,63,5,42,127,1085851284
89,10,22,Ticks_Phase_8,64,1,48,31,1086436776
89,10,22,Ticks_Phase_8,65,5,42,127,1086650620
89,10,22,Ticks_Phase_8,66,1,48,32,1087236216
89,10,22,Ticks_Phase_8,67,5,42,127,1087450408
89,10,22,Ticks_Phase_8,68,1,48,26,1088051212
89,10,22,Ticks_Phase_8,69,5,42,127,1088251320
89,10,22,Ticks_Phase_8,70,1,48,27,1088873684
89,10,22,Ticks_Phase_8,71,5,42,127,1089051128
89,10,22,Ticks_Phase_8,72,1,48,33,1089722524
89,10,22,Ticks_Phase_8,73,5,42,127,1089850692
89,10,22,Ticks_Phase_8,74,1,48,19,1090628752
89,10,22,Ticks_Phase_8,75,5,42,127,1090650420
89,10,22,Ticks_Phase_8,76,1,48,31,1091436164
89,10,22,Ticks_Phase_8,77,5,42,127,1091451176
89,10,22,Ticks_Phase_8,78,1,48,31,1092209680
89,10,22,Ticks_Phase_8,79,5,42,127,1092251112
89,10,22,Ticks_Phase_8,80,1,48,27,1093009688
89,10,22,Ticks_Phase_8,81,5,42,127,1093050972
89,10,22,Ticks_Phase_8,82,1,48,30,1093787592
89,10,22,Ticks_Phase_8,83,5,42,127,1093850612
89,10,22,Ticks_Phase_8,84,1,48,20,1094580648
89,10,22,Ticks_Phase_8,85,5,42,127,1094651144
89,10,22,Ticks_Phase_8,86,1,48,32,1095331384
89,10,22,Ticks_Phase_8,87,5,42,127,1095451016
89,10,22,Ticks_Phase_8,88,1,48,34,1096173252
89,10,22,Ticks_Phase_8,89,5,42,127,1096250668
89,10,22,Ticks_Phase_8,90,1,48,34,1096942336
89,10,22,Ticks_Phase_8,91,5,42,127,1097050436
89,10,22,Ticks_Phase_8,92,1,48,29,1097732116
89,10,22,Ticks_Phase_8,93,5,42,127,1097851124
89,10,22,Ticks_Phase_8,94,1,48,30,1098476604
89,10,22,Ticks_Phase_8,95,5,42,127,1098670384
89,10,22,Ticks_Phase_8,96,1,48,31,1099333184
89,10,22,Ticks_Phase_8,97,5,42,127,1099471216
89,10,22,Ticks_Phase_8,98,1,48,29,1100130580
89,10,22,Ticks_Phase_8,99,5,42,127,1100271152
89,10,22,Ticks_Phase_8,100,1,48,31,1100841472
89,10,22,Ticks_Phase_8,101,5,42,127,1101070592
89,10,22,Ticks_Phase_8,102,1,48,17,1101696964
89,10,22,Ticks_Phase_8,103,5,42,127,1101870376
89,10,22,Ticks_Phase_8,104,1,48,29,1102411612
89,10,22,Ticks_Phase_8,105,5,42,127,1102671136
89,10,22,Ticks_Phase_8,106,1,48,29,1103187504
89,10,22,Ticks_Phase_8,107,5,42,127,1103470924
89,10,22,Ticks_Phase_8,108,1,48,30,1103973592
89,10,22,Ticks_Phase_8,109,5,42,127,1104270560
89,10,22,Ticks_Phase_8,110,1,48,27,1104764240
89,10,22,Ticks_Phase_8,111,5,42,127,1105070344
89,10,22,Ticks_Phase_8,112,1,48,35,1105569876
89,10,22,Ticks_Phase_8,113,5,42,127,1105871104
89,10,22,Ticks_Phase_8,114,1,48,35,1106418396
89,10,22,Ticks_Phase_8,115,5,42,127,1106670888
89,10,22,Ticks_Phase_8,116,1,48,32,1107168232
89,10,22,Ticks_Phase_8,117,5,42,127,1107470700
89,10,22,Ticks_Phase_8,118,1,48,30,1107986696
89,10,22,Ticks_Phase_8,119,5,42,127,1108270412
89,10,22,Ticks_Phase_8,120,1,48,27,1108740356
89,10,22,Ticks_Phase_8,121,5,42,127,1109071092
89,10,22,Ticks_Phase_8,122,1,48,32,1109545748
89,10,22,Ticks_Phase_8,123,5,42,127,1109870952
89,10,22,Ticks_Phase_8,124,1,48,32,1110346208
89,10,22,Ticks_Phase_8,125,5,42,127,1110670740
89,10,22,Ticks_Phase_8,126,1,48,27,1111163596
89,10,22,Ticks_Phase_8,127,5,42,127,1111511488
89,10,22,Ticks_Phase_8,128,1,48,37,1111979788
89,10,22,Ticks_Phase_8,129,5,42,127,1112311124
89,10,22,Ticks_Phase_8,130,1,48,28,1112809380
89,10,22,Ticks_Phase_8,131,5,42,127,1113110860
89,10,22,Ticks_Phase_8,132,1,48,29,1113568728
89,10,22,Ticks_Phase_8,133,5,42,127,1113910724
89,10,22,Ticks_Phase_8,134,1,48,26,1114401864
89,10,22,Ticks_Phase_8,135,5,42,127,1114711332
89,10,22,Ticks_Phase_8,136,1,48,29,1115221344
89,10,22,Ticks_Phase_8,137,5,42,127,1115511268
89,10,22,Ticks_Phase_8,138,1,48,33,1116030416
89,10,22,Ticks_Phase_8,139,5,42,127,1116310832
89,10,22,Ticks_Phase_8,140,1,48,26,1116822112
89,10,22,Ticks_Phase_8,141,5,42,127,1117110840
89,10,22,Ticks_Phase_8,142,1,48,27,1117570752
89,10,22,Ticks_Phase_8,143,5,42,127,1117911304
89,10,22,Ticks_Phase_8,144,1,48,25,1118364316
89,10,22,Ticks_Phase_8,145,5,42,127,1118711088
89,10,22,Ticks_Phase_8,146,1,48,25,1119118732
89,10,22,Ticks_Phase_8,147,5,42,127,1119510900
89,10,22,Ticks_Phase_8,148,1,48,31,1119952660
89,10,22,Ticks_Phase_8,149,5,42,127,1120310760
89,10,22,Ticks_Phase_8,150,1,48,25,1120684596
89,10,22,Ticks_Phase_8,151,5,42,127,1121111296
89,10,22,Ticks_Phase_8,152,1,48,24,1121460648
89,10,22,Ticks_Phase_8,153,5,42,127,1121911008
89,10,22,Ticks_Phase_8,154,1,48,26,1122257800
89,10,22,Ticks_Phase_8,155,5,42,127,1122710940
89,10,22,Ticks_Phase_8,156,1,48,26,1123083900
89,10,22,Ticks_Phase_8,157,5,42,127,1123510800
89,10,22,Ticks_Phase_8,158,1,48,29,1123899268
89,10,22,Ticks_Phase_8,159,5,42,127,1124311412
89,10,22,Ticks_Phase_8,160,1,48,32,1124675836
89,10,22,Ticks_Phase_8,161,5,42,127,1125071284
89,10,22,Ticks_Phase_8,162,1,48,36,1125464012
89,10,22,Ticks_Phase_8,163,5,42,127,1125871068
89,10,22,Ticks_Phase_8,164,1,48,29,1126294880
89,10,22,Ticks_Phase_8,165,5,42,127,1126670660
89,10,22,Ticks_Phase_8,166,1,48,34,1127034380
89,10,22,Ticks_Phase_8,167,5,42,127,1127470744
89,10,22,Ticks_Phase_8,168,1,48,31,1127862704
89,10,22,Ticks_Phase_8,169,5,42,127,1128271204
89,10,22,Ticks_Phase_8,170,1,48,35,1128662712
89,10,22,Ticks_Phase_8,171,5,42,127,1129070988
89,10,22,Ticks_Phase_8,172,1,48,24,1129493752
89,10,22,Ticks_Phase_8,173,5,42,127,1129870776
89,10,22,Ticks_Phase_8,174,1,48,25,1130271372
89,10,22,Ticks_Phase_8,175,5,42,127,1130670712
89,10,22,Ticks_Phase_8,176,1,48,29,1131054904
89,10,22,Ticks_Phase_8,177,5,42,127,1131471172
89,10,22,Ticks_Phase_8,178,1,48,25,1131804072
89,10,22,Ticks_Phase_8,179,5,42,127,1132270884
89,10,22,Ticks_Phase_8,180,1,48,27,1132691180
89,10,22,Ticks_Phase_8,181,5,42,127,1133070696
89,10,22,Ticks_Phase_8,182,1,48,25,1133465420
89,10,22,Ticks_Phase_8,183,5,42,127,1133870632
89,10,22,Ticks_Phase_8,184,1,48,26,1134265660
89,10,22,Ticks_Phase_8,185,5,42,127,1134671168
89,10,22,Ticks_Phase_8,186,1,48,24,1135065516
89,10,22,Ticks_Phase_8,187,5,42,127,1135471100
89,10,22,Ticks_Phase_8,188,1,48,26,1135842768
89,10,22,Ticks_Phase_8,189,5,42,127,1136270588
89,10,22,Ticks_Phase_8,190,1,48,28,1136620616
89,10,22,Ticks_Phase_8,191,5,42,127,1137070672
89,10,22,Ticks_Phase_8,192,1,48,25,1137454640
89,10,22,Ticks_Phase_8,193,5,42,127,1137791380
89,10,22,Ticks_Phase_8,194,1,48,21,1138213840
89,10,22,Ticks_Phase_8,195,5,42,127,1138591164
89,10,22,Ticks_Phase_8,196,1,48,27,1138969976
89,10,22,Ticks_Phase_8,197,5,42,127,1139390804
89,10,22,Ticks_Phase_8,198,1,48,22,1139732012
89,10,22,Ticks_Phase_8,199,5,42,127,1140190588
89,10,22,Ticks_Phase_8,200,1,48,31,1140504312
89,10,22,Ticks_Phase_8,201,5,42,127,1140991520
89,10,22,Ticks_Phase_8,202,1,48,27,1141297880
89,10,22,Ticks_Phase_8,203,5,42,127,1141791232
89,10,22,Ticks_Phase_8,204,1,48,27,1142128368
89,10,22,Ticks_Phase_8,205,5,42,127,1142590720
89,10,22,Ticks_Phase_8,206,1,48,29,1142888388
89,10,22,Ticks_Phase_8,207,5,42,127,1143390432
89,10,22,Ticks_Phase_8,208,1,48,20,1143726744
89,10,22,Ticks_Phase_8,209,5,42,127,1144191488
89,10,22,Ticks_Phase_8,210,1,48,21,1144563304
89,10,22,Ticks_Phase_8,211,5,42,127,1144991052
89,10,22,Ticks_Phase_8,212,1,48,28,1145350464
89,10,22,Ticks_Phase_8,213,5,42,127,1145790764
89,10,22,Ticks_Phase_8,214,1,48,30,1146161856
89,10,22,Ticks_Phase_8,215,5,42,127,1146590548
89,10,22,Ticks_Phase_8,216,1,48,33,1146928772
89,10,22,Ticks_Phase_8,217,5,42,127,1147391632
89,10,22,Ticks_Phase_8,218,1,48,32,1147728248
89,10,22,Ticks_Phase_8,219,5,42,127,1148191120
89,10,22,Ticks_Phase_8,220,1,48,21,1148563980
89,10,22,Ticks_Phase_8,221,5,42,127,1148990832
89,10,22,Ticks_Phase_8,222,1,48,21,1149360404
89,10,22,Ticks_Phase_8,223,5,42,127,1149790468
89,10,22,Ticks_Phase_8,224,1,48,24,1150178988
89,10,22,Ticks_Phase_8,225,5,42,127,1150591524
89,10,22,Ticks_Phase_8,226,1,48,24,1150964164
89,10,22,Ticks_Phase_8,227,5,42,127,1151470920
89,10,22,Ticks_Phase_8,228,1,48,27,1151802844
89,10,22,Ticks_Phase_8,229,5,42,127,1152270804
89,10,22,Ticks_Phase_8,230,1,48,22,1152763040
89,10,22,Ticks_Phase_8,231,5,42,127,1153070416
89,10,22,Ticks_Phase_8,232,1,48,32,1153504612
89,10,22,Ticks_Phase_8,233,5,42,127,1153871252
89,10,22,Ticks_Phase_8,234,1,48,38,1154326508
89,10,22,Ticks_Phase_8,235,5,42,127,1154670888
89,10,22,Ticks_Phase_8,236,1,48,40,1155117012
89,10,22,Ticks_Phase_8,237,5,42,127,1155470676
89,10,22,Ticks_Phase_8,238,1,48,36,1155869708
89,10,22,Ticks_Phase_8,239,5,42,127,1156270388
89,10,22,Ticks_Phase_8,240,1,48,31,1156748652
89,10,22,Ticks_Phase_8,241,5,42,127,1157071296
89,10,22,Ticks_Phase_8,242,1,48,28,1157531208
89,10,22,Ticks_Phase_8,243,5,42,127,1157870936
89,10,22,Ticks_Phase_8,244,1,48,34,1158311744
89,10,22,Ticks_Phase_8,245,5,42,127,1158670672
89,10,22,Ticks_Phase_8,246,1,48,36,1159129212
89,10,22,Ticks_Phase_8,247,5,42,127,1159470308
89,10,22,Ticks_Phase_8,248,1,48,34,1159935228
89,10,22,Ticks_Phase_8,249,5,42,127,1160271140
89,10,22,Ticks_Phase_8,250,1,48,36,1160716740
89,10,22,Ticks_Phase_8,251,5,42,127,1161070924
89,10,22,Ticks_Phase_8,252,1,48,34,1161527388
89,10,22,Ticks_Phase_8,253,5,42,127,1161870712
89,10,22,Ticks_Phase_8,254,1,48,38,1162323060
89,10,22,Ticks_Phase_8,255,5,42,127,1162670424
89,10,22,Ticks_Phase_8,256,1,48,37,1163136320
89,10,22,Ticks_Phase_8,257,5,42,127,1163471184
89,10,22,Ticks_Phase_8,258,1,48,40,1163903156
89,10,22,Ticks_Phase_8,259,5,42,127,1164270896
89,10,22,Ticks_Phase_8,260,1,48,32,1164716720
89,10,22,Ticks_Phase_8,261,5,42,127,1165230592
89,10,22,Ticks_Phase_8,262,1,48,30,1165767108
89,10,22,Ticks_Phase_8,263,5,42,127,1166031200
89,10,22,Ticks_Phase_8,264,1,48,31,1166637088
89,10,22,Ticks_Phase_8,265,5,42,127,1166831064
89,10,22,Ticks_Phase_8,266,1,48,38,1167478208
89,10,22,Ticks_Phase_8,267,5,42,127,1167630576
89,10,22,Ticks_Phase_8,268,1,48,36,1168371536
89,10,22,Ticks_Phase_8,269,5,42,127,1168430528
89,10,22,Ticks_Phase_8,270,1,48,35,1169196060
89,10,22,Ticks_Phase_8,271,5,42,127,1169231288
89,10,22,Ticks_Phase_8,272,5,42,127,1170030928
89,10,22,Ticks_Phase_8,273,1,48,38,1170032868
89,10,22,Ticks_Phase_8,274,1,48,40,1170814948
89,10,22,Ticks_Phase_8,275,5,42,127,1170830560
89,10,22,Ticks_Phase_8,276,1,48,37,1171618476
89,10,22,Ticks_Phase_8,277,5,42,127,1171630420
89,10,22,Ticks_Phase_8,278,5,42,127,1172431264
89,10,22,Ticks_Phase_8,279,1,48,40,1172434308
89,10,22,Ticks_Phase_8,280,5,42,127,1173230900
89,10,22,Ticks_Phase_8,281,1,48,48,1173252468
89,10,22,Ticks_Phase_8,282,1,48,20,1173350396
89,10,22,Ticks_Phase_8,283,5,42,127,1174030840
89,10,22,Ticks_Phase_8,284,1,48,42,1174098132
89,10,22,Ticks_Phase_8,285,5,42,127,1174830476
89,10,22,Ticks_Phase_8,286,1,48,36,1174909608
89,10,22,Ticks_Phase_8,287,5,42,127,1175631160
89,10,22,Ticks_Phase_8,288,1,48,34,1175721524
89,10,22,Ticks_Phase_8,289,5,42,127,1176431096
89,10,22,Ticks_Phase_8,290,1,48,44,1176543996
89,10,22,Ticks_Phase_8,291,5,42,127,1177230584
89,10,22,Ticks_Phase_8,292,1,48,31,1177349956
89,10,22,Ticks_Phase_8,293,5,42,127,1178030372
89,10,22,Ticks_Phase_8,294,1,48,30,1178096768
89,10,22,Ticks_Phase_8,295,5,42,127,1178831204
89,10,22,Ticks_Phase_8,296,1,48,34,1178855212
89,10,22,Ticks_Phase_8,297,5,42,127,1179631140
89,10,22,Ticks_Phase_8,298,1,48,34,1179646336
89,10,22,Ticks_Phase_8,299,5,42,127,1180271116
89,10,22,Ticks_Phase_8,300,1,48,33,1180443504
89,10,22,Ticks_Phase_8,301,5,42,127,1181070604
89,10,22,Ticks_Phase_8,302,1,48,32,1181439528
89,10,22,Ticks_Phase_8,303,5,42,127,1181870392
89,10,22,Ticks_Phase_8,304,1,48,35,1182226876
89,10,22,Ticks_Phase_8,305,5,42,127,1182671076
89,10,22,Ticks_Phase_8,306,1,48,27,1183066280
89,10,22,Ticks_Phase_8,307,5,42,127,1183471012
89,10,22,Ticks_Phase_8,308,1,48,34,1183830276
89,10,22,Ticks_Phase_8,309,5,42,127,1184270676
89,10,22,Ticks_Phase_8,310,1,48,37,1184619276
89,10,22,Ticks_Phase_8,311,5,42,127,1185070312
89,10,22,Ticks_Phase_8,312,1,48,30,1185447364
89,10,22,Ticks_Phase_8,313,5,42,127,1185871220
89,10,22,Ticks_Phase_8,314,1,48,28,1186227004
89,10,22,Ticks_Phase_8,315,5,42,127,1186671080
89,10,22,Ticks_Phase_8,316,1,48,36,1187093548
89,10,22,Ticks_Phase_8,317,5,42,127,1187470644
89,10,22,Ticks_Phase_8,318,1,48,35,1187829656
89,10,22,Ticks_Phase_8,319,5,42,127,1188270580
89,10,22,Ticks_Phase_8,320,1,48,29,1188598652
89,10,22,Ticks_Phase_8,321,5,42,127,1189071188
89,10,22,Ticks_Phase_8,322,1,48,26,1189404688
89,10,22,Ticks_Phase_8,323,5,42,127,1189870828
89,10,22,Ticks_Phase_8,324,1,48,32,1190243936
89,10,22,Ticks_Phase_8,325,5,42,127,1190670788
89,10,22,Ticks_Phase_8,326,1,48,35,1191034888
89,10,22,Ticks_Phase_8,327,5,42,127,1191470348
89,10,22,Ticks_Phase_8,328,1,48,26,1191842612
89,10,22,Ticks_Phase_8,329,5,42,127,1192271180
89,10,22,Ticks_Phase_8,330,1,48,31,1192676916
89,10,22,Ticks_Phase_8,331,5,42,127,1193070968
89,10,22,Ticks_Phase_8,332,1,48,30,1193464272
89,10,22,Ticks_Phase_8,333,5,42,127,1193870904
89,10,22,Ticks_Phase_8,334,1,48,28,1194224368
89,10,22,Ticks_Phase_8,335,5,42,127,1194670316
89,10,22,Ticks_Phase_8,336,1,48,26,1195032868
89,10,22,Ticks_Phase_8,337,5,42,127,1195471148
89,10,22,Ticks_Phase_8,0,9999,9999,9999,1060268152
89,10,22,Ticks_Phase_8,1,9999,9999,9999,1061068856
89,10,22,Ticks_Phase_8,2,9999,9999,9999,1061868656
89,10,22,Ticks_Phase_8,3,9999,9999,9999,1062668400
89,10,22,Ticks_Phase_8,4,9999,9999,9999,1063468112
89,10,22,Ticks_Phase_8,5,9999,9999,9999,1064268872
89,10,22,Ticks_Phase_8,6,9999,9999,9999,1065068656
89,10,22,Ticks_Phase_8,7,9999,9999,9999,1065868368
89,10,22,Ticks_Phase_8,8,9999,9999,9999,1066668156
89,10,22,Ticks_Phase_8,9,9999,9999,9999,1067468912
89,10,22,Ticks_Phase_8,10,9999,9999,9999,1068268616
89,10,22,Ticks_Phase_8,11,9999,9999,9999,1069068352
89,10,22,Ticks_Phase_8,12,9999,9999,9999,1069868148
89,10,22,Ticks_Phase_8,13,9999,9999,9999,1070668900
89,10,22,Ticks_Phase_8,14,9999,9999,9999,1071468612
89,10,22,Ticks_Phase_8,15,9999,9999,9999,1072268384
89,10,22,Ticks_Phase_8,16,9999,9999,9999,1073068108
89,10,22,Ticks_Phase_8,17,9999,9999,9999,1073868868
89,10,22,Ticks_Phase_8,18,9999,9999,9999,1074668656
89,10,22,Ticks_Phase_8,19,9999,9999,9999,1075468392
89,10,22,Ticks_Phase_8,20,9999,9999,9999,1076268088
89,10,22,Ticks_Phase_8,21,9999,9999,9999,1077068860
89,10,22,Ticks_Phase_8,22,9999,9999,9999,1077868632
89,10,22,Ticks_Phase_8,23,9999,9999,9999,1078668344
89,10,22,Ticks_Phase_8,24,9999,9999,9999,1079468144
89,10,22,Ticks_Phase_8,25,9999,9999,9999,1080268904
89,10,22,Ticks_Phase_8,26,9999,9999,9999,1081068600
89,10,22,Ticks_Phase_8,27,9999,9999,9999,1081868412
89,10,22,Ticks_Phase_8,28,9999,9999,9999,1082668124
89,10,22,Ticks_Phase_8,29,9999,9999,9999,1083468880
89,10,22,Ticks_Phase_8,30,9999,9999,9999,1084248152
89,10,22,Ticks_Phase_8,31,9999,9999,9999,1085048912
89,10,22,Ticks_Phase_8,32,9999,9999,9999,1085848700
89,10,22,Ticks_Phase_8,33,9999,9999,9999,1086648408
89,10,22,Ticks_Phase_8,34,9999,9999,9999,1087448120
89,10,22,Ticks_Phase_8,35,9999,9999,9999,1088248956
89,10,22,Ticks_Phase_8,36,9999,9999,9999,1089048692
89,10,22,Ticks_Phase_8,37,9999,9999,9999,1089848404
89,10,22,Ticks_Phase_8,38,9999,9999,9999,1090648132
89,10,22,Ticks_Phase_8,39,9999,9999,9999,1091448892
89,10,22,Ticks_Phase_8,40,9999,9999,9999,1092248676
89,10,22,Ticks_Phase_8,41,9999,9999,9999,1093048388
89,10,22,Ticks_Phase_8,42,9999,9999,9999,1093848176
89,10,22,Ticks_Phase_8,43,9999,9999,9999,1094648932
89,10,22,Ticks_Phase_8,44,9999,9999,9999,1095448652
89,10,22,Ticks_Phase_8,45,9999,9999,9999,1096248380
89,10,22,Ticks_Phase_8,46,9999,9999,9999,1097048152
89,10,22,Ticks_Phase_8,47,9999,9999,9999,1097848912
89,10,22,Ticks_Phase_8,48,9999,9999,9999,1098668096
89,10,22,Ticks_Phase_8,49,9999,9999,9999,1099468856
89,10,22,Ticks_Phase_8,50,9999,9999,9999,1100268640
89,10,22,Ticks_Phase_8,51,9999,9999,9999,1101068376
89,10,22,Ticks_Phase_8,52,9999,9999,9999,1101868092
89,10,22,Ticks_Phase_8,53,9999,9999,9999,1102668924
89,10,22,Ticks_Phase_8,54,9999,9999,9999,1103468636
89,10,22,Ticks_Phase_8,55,9999,9999,9999,1104268348
89,10,22,Ticks_Phase_8,56,9999,9999,9999,1105068132
89,10,22,Ticks_Phase_8,57,9999,9999,9999,1105868892
89,10,22,Ticks_Phase_8,58,9999,9999,9999,1106668604
89,10,22,Ticks_Phase_8,59,9999,9999,9999,1107468412
89,10,22,Ticks_Phase_8,60,9999,9999,9999,1108268124
89,10,22,Ticks_Phase_8,61,9999,9999,9999,1109068880
89,10,22,Ticks_Phase_8,62,9999,9999,9999,1109868668
89,10,22,Ticks_Phase_8,63,9999,9999,9999,1110668380
89,10,22,Ticks_Phase_8,64,9999,9999,9999,1111509052
89,10,22,Ticks_Phase_8,65,9999,9999,9999,1112308840
89,10,22,Ticks_Phase_8,66,9999,9999,9999,1113108572
89,10,22,Ticks_Phase_8,67,9999,9999,9999,1113908288
89,10,22,Ticks_Phase_8,68,9999,9999,9999,1114709048
89,10,22,Ticks_Phase_8,69,9999,9999,9999,1115508832
89,10,22,Ticks_Phase_8,70,9999,9999,9999,1116308544
89,10,22,Ticks_Phase_8,71,9999,9999,9999,1117108332
89,10,22,Ticks_Phase_8,72,9999,9999,9999,1117909088
89,10,22,Ticks_Phase_8,73,9999,9999,9999,1118708804
89,10,22,Ticks_Phase_8,74,9999,9999,9999,1119508540
89,10,22,Ticks_Phase_8,75,9999,9999,9999,1120308324
89,10,22,Ticks_Phase_8,76,9999,9999,9999,1121109084
89,10,22,Ticks_Phase_8,77,9999,9999,9999,1121908792
89,10,22,Ticks_Phase_8,78,9999,9999,9999,1122708580
89,10,22,Ticks_Phase_8,79,9999,9999,9999,1123508292
89,10,22,Ticks_Phase_8,80,9999,9999,9999,1124309048
89,10,22,Ticks_Phase_8,81,9999,9999,9999,1125068920
89,10,22,Ticks_Phase_8,82,9999,9999,9999,1125868636
89,10,22,Ticks_Phase_8,83,9999,9999,9999,1126668372
89,10,22,Ticks_Phase_8,84,9999,9999,9999,1127468160
89,10,22,Ticks_Phase_8,85,9999,9999,9999,1128268916
89,10,22,Ticks_Phase_8,86,9999,9999,9999,1129068628
89,10,22,Ticks_Phase_8,87,9999,9999,9999,1129868416
89,10,22,Ticks_Phase_8,88,9999,9999,9999,1130668128
89,10,22,Ticks_Phase_8,89,9999,9999,9999,1131468884
89,10,22,Ticks_Phase_8,90,9999,9999,9999,1132268600
89,10,22,Ticks_Phase_8,91,9999,9999,9999,1133068412
89,10,22,Ticks_Phase_8,92,9999,9999,9999,1133868124
89,10,22,Ticks_Phase_8,93,9999,9999,9999,1134668880
89,10,22,Ticks_Phase_8,94,9999,9999,9999,1135468664
89,10,22,Ticks_Phase_8,95,9999,9999,9999,1136268376
89,10,22,Ticks_Phase_8,96,9999,9999,9999,1137068088
89,10,22,Ticks_Phase_8,97,9999,9999,9999,1137789016
89,10,22,Ticks_Phase_8,98,9999,9999,9999,1138588728
89,10,22,Ticks_Phase_8,99,9999,9999,9999,1139388516
89,10,22,Ticks_Phase_8,100,9999,9999,9999,1140188228
89,10,22,Ticks_Phase_8,101,9999,9999,9999,1140989012
89,10,22,Ticks_Phase_8,102,9999,9999,9999,1141788796
89,10,22,Ticks_Phase_8,103,9999,9999,9999,1142588508
89,10,22,Ticks_Phase_8,104,9999,9999,9999,1143388220
89,10,22,Ticks_Phase_8,105,9999,9999,9999,1144189052
89,10,22,Ticks_Phase_8,106,9999,9999,9999,1144988764
89,10,22,Ticks_Phase_8,107,9999,9999,9999,1145788476
89,10,22,Ticks_Phase_8,108,9999,9999,9999,1146588264
89,10,22,Ticks_Phase_8,109,9999,9999,9999,1147389048
89,10,22,Ticks_Phase_8,110,9999,9999,9999,1148188760
89,10,22,Ticks_Phase_8,111,9999,9999,9999,1148988472
89,10,22,Ticks_Phase_8,112,9999,9999,9999,1149788256
89,10,22,Ticks_Phase_8,113,9999,9999,9999,1150589016
89,10,22,Ticks_Phase_8,114,9999,9999,9999,1151468632
89,10,22,Ticks_Phase_8,115,9999,9999,9999,1152268368
89,10,22,Ticks_Phase_8,116,9999,9999,9999,1153068132
89,10,22,Ticks_Phase_8,117,9999,9999,9999,1153868888
89,10,22,Ticks_Phase_8,118,9999,9999,9999,1154668604
89,10,22,Ticks_Phase_8,119,9999,9999,9999,1155468388
89,10,22,Ticks_Phase_8,120,9999,9999,9999,1156268100
89,10,22,Ticks_Phase_8,121,9999,9999,9999,1157068860
89,10,22,Ticks_Phase_8,122,9999,9999,9999,1157868648
89,10,22,Ticks_Phase_8,123,9999,9999,9999,1158668384
89,10,22,Ticks_Phase_8,124,9999,9999,9999,1159468096
89,10,22,Ticks_Phase_8,125,9999,9999,9999,1160268928
89,10,22,Ticks_Phase_8,126,9999,9999,9999,1161068640
89,10,22,Ticks_Phase_8,127,9999,9999,9999,1161868352
89,10,22,Ticks_Phase_8,128,9999,9999,9999,1162668136
89,10,22,Ticks_Phase_8,129,9999,9999,9999,1163468896
89,10,22,Ticks_Phase_8,130,9999,9999,9999,1164268608
89,10,22,Ticks_Phase_8,131,9999,9999,9999,1165228156
89,10,22,Ticks_Phase_8,132,9999,9999,9999,1166028916
89,10,22,Ticks_Phase_8,133,9999,9999,9999,1166828628
89,10,22,Ticks_Phase_8,134,9999,9999,9999,1167628364
89,10,22,Ticks_Phase_8,135,9999,9999,9999,1168428092
89,10,22,Ticks_Phase_8,136,9999,9999,9999,1169228924
89,10,22,Ticks_Phase_8,137,9999,9999,9999,1170028644
89,10,22,Ticks_Phase_8,138,9999,9999,9999,1170828348
89,10,22,Ticks_Phase_8,139,9999,9999,9999,1171628136
89,10,22,Ticks_Phase_8,140,9999,9999,9999,1172428900
89,10,22,Ticks_Phase_8,141,9999,9999,9999,1173228612
89,10,22,Ticks_Phase_8,142,9999,9999,9999,1174028400
89,10,22,Ticks_Phase_8,143,9999,9999,9999,1174828116
89,10,22,Ticks_Phase_8,144,9999,9999,9999,1175628872
89,10,22,Ticks_Phase_8,145,9999,9999,9999,1176428660
89,10,22,Ticks_Phase_8,146,9999,9999,9999,1177228372
89,10,22,Ticks_Phase_8,147,9999,9999,9999,1178028156
89,10,22,Ticks_Phase_8,148,9999,9999,9999,1178828916
89,10,22,Ticks_Phase_8,149,9999,9999,9999,1179628628
89,10,22,Ticks_Phase_8,150,9999,9999,9999,1180268608
89,10,22,Ticks_Phase_8,151,9999,9999,9999,1181068392
89,10,22,Ticks_Phase_8,152,9999,9999,9999,1181868108
89,10,22,Ticks_Phase_8,153,9999,9999,9999,1182668864
89,10,22,Ticks_Phase_8,154,9999,9999,9999,1183468652
89,10,22,Ticks_Phase_8,155,9999,9999,9999,1184268388
89,10,22,Ticks_Phase_8,156,9999,9999,9999,1185068100
89,10,22,Ticks_Phase_8,157,9999,9999,9999,1185868860
89,10,22,Ticks_Phase_8,158,9999,9999,9999,1186668644
89,10,22,Ticks_Phase_8,159,9999,9999,9999,1187468360
89,10,22,Ticks_Phase_8,160,9999,9999,9999,1188268144
89,10,22,Ticks_Phase_8,161,9999,9999,9999,1189068900
89,10,22,Ticks_Phase_8,162,9999,9999,9999,1189868612
89,10,22,Ticks_Phase_8,163,9999,9999,9999,1190668352
89,10,22,Ticks_Phase_8,164,9999,9999,9999,1191468136
89,10,22,Ticks_Phase_8,165,9999,9999,9999,1192268896
89,10,22,Ticks_Phase_8,166,9999,9999,9999,1193068604
89,10,22,Ticks_Phase_8,167,9999,9999,9999,1193868392
89,10,22,Ticks_Phase_8,168,9999,9999,9999,1194668104
89,10,22,Ticks_Phase_8,169,9999,9999,9999,1195468864
89,11,25,Jits_Pract_5,0,5,56,103,1240420736
89,11,25,Jits_Pract_5,1,5,63,98,1240423680
89,11,25,Jits_Pract_5,2,5,80,127,1240426952
89,11,25,Jits_Pract_5,0,5,56,103,1240920460
89,11,25,Jits_Pract_5,1,5,63,98,1240923480
89,11,25,Jits_Pract_5,2,5,80,127,1240926604
89,11,25,Jits_Pract_5,0,5,56,103,1241421100
89,11,25,Jits_Pract_5,1,5,80,127,1241431520
89,11,25,Jits_Pract_5,2,5,63,98,1241451228
89,11,25,Jits_Pract_5,0,5,63,98,1241870648
89,11,25,Jits_Pract_5,1,5,80,127,1241901448
89,11,25,Jits_Pract_5,2,5,56,103,1241910596
89,11,25,Jits_Pract_5,0,5,80,127,1242430912
89,11,25,Jits_Pract_5,1,5,56,103,1242441404
89,11,25,Jits_Pract_5,2,5,63,98,1242471004
89,11,25,Jits_Pract_5,0,5,63,98,1242921368
89,11,25,Jits_Pract_5,1,5,56,103,1242951268
89,11,25,Jits_Pract_5,2,5,80,127,1242961240
89,11,25,Jits_Pract_5,0,5,56,103,1243370956
89,11,25,Jits_Pract_5,1,5,63,98,1243421184
89,11,25,Jits_Pract_5,2,5,80,127,1243440372
89,11,25,Jits_Pract_5,0,5,80,127,1243870476
89,11,25,Jits_Pract_5,1,5,63,98,1243920628
89,11,25,Jits_Pract_5,2,5,56,103,1243960568
89,11,25,Jits_Pract_5,0,5,56,103,1244371192
89,11,25,Jits_Pract_5,1,5,63,98,1244401092
89,11,25,Jits_Pract_5,2,5,80,127,1244470572
89,11,25,Jits_Pract_5,0,5,56,103,1244871088
89,11,25,Jits_Pract_5,1,5,80,127,1244930456
89,11,25,Jits_Pract_5,2,5,63,98,1244961252
89,11,25,Jits_Pract_5,0,5,56,103,1245381164
89,11,25,Jits_Pract_5,1,5,63,98,1245391212
89,11,25,Jits_Pract_5,2,5,80,127,1245431396
89,11,25,Jits_Pract_5,0,5,63,98,1245870492
89,11,25,Jits_Pract_5,1,5,80,127,1245951288
89,11,25,Jits_Pract_5,2,5,56,103,1245960512
89,11,25,Jits_Pract_5,0,5,63,98,1246421248
89,11,25,Jits_Pract_5,1,5,56,103,1246461284
89,11,25,Jits_Pract_5,2,5,80,127,1246464424
89,11,25,Jits_Pract_5,0,5,56,103,1246881260
89,11,25,Jits_Pract_5,1,5,63,98,1246891308
89,11,25,Jits_Pract_5,2,5,80,127,1246931172
89,11,25,Jits_Pract_5,0,5,56,103,1247370736
89,11,25,Jits_Pract_5,1,5,63,98,1247373876
89,11,25,Jits_Pract_5,2,5,80,127,1247391196
89,11,25,Jits_Pract_5,0,9999,9999,9999,1240668248
89,11,25,Jits_Pract_5,1,9999,9999,9999,1241169020
89,11,25,Jits_Pract_5,2,9999,9999,9999,1241668692
89,11,25,Jits_Pract_5,3,9999,9999,9999,1242168432
89,11,25,Jits_Pract_5,4,9999,9999,9999,1242668092
89,11,25,Jits_Pract_5,5,9999,9999,9999,1243168888
89,11,25,Jits_Pract_5,6,9999,9999,9999,1243668544
89,11,25,Jits_Pract_5,7,9999,9999,9999,1244168288
89,11,25,Jits_Pract_5,8,9999,9999,9999,1244669004
89,11,25,Jits_Pract_5,9,9999,9999,9999,1245168724
89,11,25,Jits_Pract_5,10,9999,9999,9999,1245668464
89,11,25,Jits_Pract_5,11,9999,9999,9999,1246168132
89,11,25,Jits_Pract_5,12,9999,9999,9999,1246668904
89,11,25,Jits_Pract_5,13,9999,9999,9999,1247168632
89,11,25,Jits_Pract_5,14,9999,9999,9999,1247668288
89,12,25,Jits_Pract_5,0,5,56,103,1335220680
89,12,25,Jits_Pract_5,1,5,63,98,1335223780
89,12,25,Jits_Pract_5,2,5,80,127,1335226824
89,12,25,Jits_Pract_5,0,5,56,103,1335721376
89,12,25,Jits_Pract_5,1,5,63,98,1335724548
89,12,25,Jits_Pract_5,2,5,80,127,1335727744
89,12,25,Jits_Pract_5,0,5,56,103,1336220968
89,12,25,Jits_Pract_5,1,5,80,127,1336231388
89,12,25,Jits_Pract_5,2,5,63,98,1336250724
89,12,25,Jits_Pract_5,0,5,63,98,1336670736
89,12,25,Jits_Pract_5,1,5,80,127,1336701236
89,12,25,Jits_Pract_5,2,5,56,103,1336710608
89,12,25,Jits_Pract_5,0,1,48,28,1337129600
89,12,25,Jits_Pract_5,1,5,80,127,1337230976
89,12,25,Jits_Pract_5,2,5,56,103,1337240876
89,12,25,Jits_Pract_5,3,5,63,98,1337270776
89,12,25,Jits_Pract_5,0,1,48,27,1337641652
89,12,25,Jits_Pract_5,1,5,63,98,1337721172
89,12,25,Jits_Pract_5,2,5,56,103,1337750908
89,12,25,Jits_Pract_5,3,5,80,127,1337761252
89,12,25,Jits_Pract_5,0,1,48,35,1338144708
89,12,25,Jits_Pract_5,1,5,56,103,1338170892
89,12,25,Jits_Pract_5,2,5,63,98,1338220796
89,12,25,Jits_Pract_5,3,5,80,127,1338241256
89,12,25,Jits_Pract_5,0,1,48,35,1338644176
89,12,25,Jits_Pract_5,1,5,80,127,1338670732
89,12,25,Jits_Pract_5,2,5,63,98,1338720708
89,12,25,Jits_Pract_5,3,5,56,103,1338760708
89,12,25,Jits_Pract_5,0,5,56,103,1339171176
89,12,25,Jits_Pract_5,1,1,48,33,1339172144
89,12,25,Jits_Pract_5,2,5,63,98,1339200924
89,12,25,Jits_Pract_5,3,5,80,127,1339270512
89,12,25,Jits_Pract_5,0,1,48,34,1339652940
89,12,25,Jits_Pract_5,1,5,56,103,1339670880
89,12,25,Jits_Pract_5,2,5,80,127,1339731492
89,12,25,Jits_Pract_5,3,5,63,98,1339761152
89,12,25,Jits_Pract_5,0,1,48,35,1340158768
89,12,25,Jits_Pract_5,1,5,56,103,1340180836
89,12,25,Jits_Pract_5,2,5,63,98,1340191028
89,12,25,Jits_Pract_5,3,5,80,127,1340230968
89,12,25,Jits_Pract_5,0,1,48,35,1340631620
89,12,25,Jits_Pract_5,1,5,63,98,1340671304
89,12,25,Jits_Pract_5,2,5,80,127,1340751164
89,12,25,Jits_Pract_5,3,5,56,103,1340760608
89,12,25,Jits_Pract_5,0,1,48,37,1341165624
89,12,25,Jits_Pract_5,1,5,63,98,1341221344
89,12,25,Jits_Pract_5,2,5,56,103,1341261268
89,12,25,Jits_Pract_5,3,5,80,127,1341264480
89,12,25,Jits_Pract_5,0,5,56,103,1341681080
89,12,25,Jits_Pract_5,1,1,48,30,1341684372
89,12,25,Jits_Pract_5,2,5,63,98,1341691368
89,12,25,Jits_Pract_5,3,5,80,127,1341731232
89,12,25,Jits_Pract_5,0,1,48,35,1342139320
89,12,25,Jits_Pract_5,1,5,56,103,1342170436
89,12,25,Jits_Pract_5,2,5,63,98,1342173648
89,12,25,Jits_Pract_5,3,5,80,127,1342190820
89,12,25,Jits_Pract_5,0,9999,9999,9999,1335468116
89,12,25,Jits_Pract_5,1,9999,9999,9999,1335968888
89,12,25,Jits_Pract_5,2,9999,9999,9999,1336468556
89,12,25,Jits_Pract_5,3,9999,9999,9999,1336968296
89,12,25,Jits_Pract_5,4,9999,9999,9999,1337468980
89,12,25,Jits_Pract_5,5,9999,9999,9999,1337968748
89,12,25,Jits_Pract_5,6,9999,9999,9999,1338468440
89,12,25,Jits_Pract_5,7,9999,9999,9999,1338968128
89,12,25,Jits_Pract_5,8,9999,9999,9999,1339468868
89,12,25,Jits_Pract_5,9,9999,9999,9999,1339968576
89,12,25,Jits_Pract_5,10,9999,9999,9999,1340468336
89,12,25,Jits_Pract_5,11,9999,9999,9999,1340969076
89,12,25,Jits_Pract_5,12,9999,9999,9999,1341468764
89,12,25,Jits_Pract_5,13,9999,9999,9999,1341968452
89,12,25,Jits_Pract_5,14,9999,9999,9999,1342468220
89,13,24,Jits_Pract_8,0,5,56,103,1350121788
89,13,24,Jits_Pract_8,1,5,63,98,1350124884
89,13,24,Jits_Pract_8,2,5,80,127,1350128008
89,13,24,Jits_Pract_8,0,5,56,103,1350921724
89,13,24,Jits_Pract_8,1,5,63,98,1350924824
89,13,24,Jits_Pract_8,2,5,80,127,1350927868
89,13,24,Jits_Pract_8,0,5,80,127,1351661868
89,13,24,Jits_Pract_8,1,1,48,43,1351690940
89,13,24,Jits_Pract_8,2,5,63,98,1351752020
89,13,24,Jits_Pract_8,3,5,56,103,1351762292
89,13,24,Jits_Pract_8,0,1,48,41,1352439668
89,13,24,Jits_Pract_8,1,5,56,103,1352482264
89,13,24,Jits_Pract_8,2,5,63,98,1352492680
89,13,24,Jits_Pract_8,3,5,80,127,1352581452
89,13,24,Jits_Pract_8,0,1,48,38,1353177592
89,13,24,Jits_Pract_8,1,5,63,98,1353252496
89,13,24,Jits_Pract_8,2,5,80,127,1353281784
89,13,24,Jits_Pract_8,3,5,56,103,1353311460
89,13,24,Jits_Pract_8,0,1,48,34,1353958908
89,13,24,Jits_Pract_8,1,5,56,103,1354052020
89,13,24,Jits_Pract_8,2,5,80,127,1354152404
89,13,24,Jits_Pract_8,3,5,63,98,1354201484
89,13,24,Jits_Pract_8,0,1,48,38,1354735744
89,13,24,Jits_Pract_8,1,5,56,103,1354851688
89,13,24,Jits_Pract_8,2,5,80,127,1354901744
89,13,24,Jits_Pract_8,3,5,63,98,1354941680
89,13,24,Jits_Pract_8,0,1,48,36,1355497208
89,13,24,Jits_Pract_8,1,5,80,127,1355682312
89,13,24,Jits_Pract_8,2,5,63,98,1355711984
89,13,24,Jits_Pract_8,3,5,56,103,1355781688
89,13,24,Jits_Pract_8,0,1,48,30,1356304040
89,13,24,Jits_Pract_8,1,5,63,98,1356511660
89,13,24,Jits_Pract_8,2,5,56,103,1356542336
89,13,24,Jits_Pract_8,3,5,80,127,1356601676
89,13,24,Jits_Pract_8,0,1,48,34,1357076600
89,13,24,Jits_Pract_8,1,5,56,103,1357252004
89,13,24,Jits_Pract_8,2,5,80,127,1357255220
89,13,24,Jits_Pract_8,3,5,63,98,1357371676
89,13,24,Jits_Pract_8,0,1,48,27,1357906232
89,13,24,Jits_Pract_8,1,5,56,103,1358131564
89,13,24,Jits_Pract_8,2,5,80,127,1358171580
89,13,24,Jits_Pract_8,3,5,63,98,1358181776
89,13,24,Jits_Pract_8,0,1,48,38,1358743612
89,13,24,Jits_Pract_8,1,5,56,103,1358892516
89,13,24,Jits_Pract_8,2,5,80,127,1358911780
89,13,24,Jits_Pract_8,3,5,63,98,1358991720
89,13,24,Jits_Pract_8,0,1,48,30,1359495264
89,13,24,Jits_Pract_8,1,5,80,127,1359681860
89,13,24,Jits_Pract_8,2,5,56,103,1359782256
89,13,24,Jits_Pract_8,3,5,63,98,1359791556
89,13,24,Jits_Pract_8,0,1,48,26,1360307828
89,13,24,Jits_Pract_8,1,5,63,98,1360452096
89,13,24,Jits_Pract_8,2,5,80,127,1360512488
89,13,24,Jits_Pract_8,3,5,56,103,1360521636
89,13,24,Jits_Pract_8,0,1,48,34,1361030424
89,13,24,Jits_Pract_8,1,5,56,103,1361251700
89,13,24,Jits_Pract_8,2,5,63,98,1361322500
89,13,24,Jits_Pract_8,3,5,80,127,1361325864
89,13,24,Jits_Pract_8,0,9999,9999,9999,1350519868
89,13,24,Jits_Pract_8,1,9999,9999,9999,1351319656
89,13,24,Jits_Pract_8,2,9999,9999,9999,1352119372
89,13,24,Jits_Pract_8,3,9999,9999,9999,1352919144
89,13,24,Jits_Pract_8,4,9999,9999,9999,1353719888
89,13,24,Jits_Pract_8,5,9999,9999,9999,1354519648
89,13,24,Jits_Pract_8,6,9999,9999,9999,1355319400
89,13,24,Jits_Pract_8,7,9999,9999,9999,1356119156
89,13,24,Jits_Pract_8,8,9999,9999,9999,1356919888
89,13,24,Jits_Pract_8,9,9999,9999,9999,1357719632
89,13,24,Jits_Pract_8,10,9999,9999,9999,1358519392
89,13,24,Jits_Pract_8,11,9999,9999,9999,1359319148
89,13,24,Jits_Pract_8,12,9999,9999,9999,1360119904
89,13,24,Jits_Pract_8,13,9999,9999,9999,1360919656
89,13,24,Jits_Pract_8,14,9999,9999,9999,1361719400
89,14,19,Jits_Linear_5,0,5,56,103,1386315132
89,14,19,Jits_Linear_5,1,5,63,98,1386318308
89,14,19,Jits_Linear_5,2,5,80,127,1386321428
89,14,19,Jits_Linear_5,0,5,56,103,1386795288
89,14,19,Jits_Linear_5,1,5,63,98,1386798392
89,14,19,Jits_Linear_5,2,5,80,127,1386801588
89,14,19,Jits_Linear_5,0,5,56,103,1387274576
89,14,19,Jits_Linear_5,1,5,80,127,1387284996
89,14,19,Jits_Linear_5,2,5,63,98,1387305232
89,14,19,Jits_Linear_5,0,5,63,98,1387704832
89,14,19,Jits_Linear_5,1,5,80,127,1387735408
89,14,19,Jits_Linear_5,2,5,56,103,1387744480
89,14,19,Jits_Linear_5,0,1,48,45,1388159632
89,14,19,Jits_Linear_5,1,5,80,127,1388245376
89,14,19,Jits_Linear_5,2,5,56,103,1388254436
89,14,19,Jits_Linear_5,3,5,63,98,1388285408
89,14,19,Jits_Linear_5,0,1,48,42,1388625536
89,14,19,Jits_Linear_5,1,5,63,98,1388725648
89,14,19,Jits_Linear_5,2,5,56,103,1388755476
89,14,19,Jits_Linear_5,3,5,80,127,1388764628
89,14,19,Jits_Linear_5,0,1,48,42,1389116468
89,14,19,Jits_Linear_5,1,5,56,103,1389164968
89,14,19,Jits_Linear_5,2,5,63,98,1389215024
89,14,19,Jits_Linear_5,3,5,80,127,1389234424
89,14,19,Jits_Linear_5,0,1,48,43,1389604024
89,14,19,Jits_Linear_5,1,5,80,127,1389655368
89,14,19,Jits_Linear_5,2,5,63,98,1389704956
89,14,19,Jits_Linear_5,3,5,56,103,1389744376
89,14,19,Jits_Linear_5,0,1,48,35,1390117188
89,14,19,Jits_Linear_5,1,5,56,103,1390145012
89,14,19,Jits_Linear_5,2,5,63,98,1390174688
89,14,19,Jits_Linear_5,3,5,80,127,1390245180
89,14,19,Jits_Linear_5,0,1,48,42,1390582324
89,14,19,Jits_Linear_5,1,5,56,103,1390635332
89,14,19,Jits_Linear_5,2,5,80,127,1390695040
89,14,19,Jits_Linear_5,3,5,63,98,1390724416
89,14,19,Jits_Linear_5,0,1,48,42,1391070008
89,14,19,Jits_Linear_5,1,5,56,103,1391135028
89,14,19,Jits_Linear_5,2,5,63,98,1391145448
89,14,19,Jits_Linear_5,3,5,80,127,1391185296
89,14,19,Jits_Linear_5,0,1,48,39,1391566476
89,14,19,Jits_Linear_5,1,5,63,98,1391624596
89,14,19,Jits_Linear_5,2,5,80,127,1391704380
89,14,19,Jits_Linear_5,3,5,56,103,1391714652
89,14,19,Jits_Linear_5,0,1,48,37,1392093668
89,14,19,Jits_Linear_5,1,5,63,98,1392174484
89,14,19,Jits_Linear_5,2,5,56,103,1392215456
89,14,19,Jits_Linear_5,3,5,80,127,1392218744
89,14,19,Jits_Linear_5,0,1,48,39,1392573268
89,14,19,Jits_Linear_5,1,5,56,103,1392635128
89,14,19,Jits_Linear_5,2,5,63,98,1392644428
89,14,19,Jits_Linear_5,3,5,80,127,1392685400
89,14,19,Jits_Linear_5,0,1,48,41,1393025300
89,14,19,Jits_Linear_5,1,5,56,103,1393125340
89,14,19,Jits_Linear_5,2,5,63,98,1393128320
89,14,19,Jits_Linear_5,3,5,80,127,1393145216
89,14,19,Jits_Linear_5,0,1,48,39,1393524076
89,14,19,Jits_Linear_5,1,5,80,127,1393645084
89,14,19,Jits_Linear_5,2,5,56,103,1393655232
89,14,19,Jits_Linear_5,3,5,63,98,1393724768
89,14,19,Jits_Linear_5,0,1,48,38,1394037840
89,14,19,Jits_Linear_5,1,5,63,98,1394144844
89,14,19,Jits_Linear_5,2,5,56,103,1394164960
89,14,19,Jits_Linear_5,3,5,80,127,1394244832
89,14,19,Jits_Linear_5,0,1,48,38,1394553268
89,14,19,Jits_Linear_5,1,5,56,103,1394664912
89,14,19,Jits_Linear_5,2,5,80,127,1394705024
89,14,19,Jits_Linear_5,3,5,63,98,1394714924
89,14,19,Jits_Linear_5,0,1,48,38,1395012548
89,14,19,Jits_Linear_5,1,5,80,127,1395164452
89,14,19,Jits_Linear_5,2,5,63,98,1395195200
89,14,19,Jits_Linear_5,3,5,56,103,1395235212
89,14,19,Jits_Linear_5,0,1,48,38,1395517568
89,14,19,Jits_Linear_5,1,5,56,103,1395695004
89,14,19,Jits_Linear_5,2,5,63,98,1395724752
89,14,19,Jits_Linear_5,3,5,80,127,1395775028
89,14,19,Jits_Linear_5,0,1,48,36,1396027420
89,14,19,Jits_Linear_5,1,5,80,127,1396205004
89,14,19,Jits_Linear_5,2,5,56,103,1396244824
89,14,19,Jits_Linear_5,3,5,63,98,1396255020
89,14,19,Jits_Linear_5,4,1,48,41,1396490768
89,14,19,Jits_Linear_5,0,5,80,127,1396704912
89,14,19,Jits_Linear_5,1,5,63,98,1396744432
89,14,19,Jits_Linear_5,2,5,56,103,1396804972
89,14,19,Jits_Linear_5,3,1,48,34,1396965568
89,14,19,Jits_Linear_5,0,5,56,103,1397224768
89,14,19,Jits_Linear_5,1,5,80,127,1397234992
89,14,19,Jits_Linear_5,2,5,63,98,1397314860
89,14,19,Jits_Linear_5,3,1,48,40,1397532328
89,14,19,Jits_Linear_5,0,5,80,127,1397745024
89,14,19,Jits_Linear_5,1,5,63,98,1397805416
89,14,19,Jits_Linear_5,2,5,56,103,1397835092
89,14,19,Jits_Linear_5,0,1,48,43,1398102108
89,14,19,Jits_Linear_5,1,5,56,103,1398265188
89,14,19,Jits_Linear_5,2,5,80,127,1398324836
89,14,19,Jits_Linear_5,3,5,63,98,1398364476
89,14,19,Jits_Linear_5,0,1,48,39,1398673516
89,14,19,Jits_Linear_5,1,5,56,103,1398845024
89,14,19,Jits_Linear_5,2,5,63,98,1398855068
89,14,19,Jits_Linear_5,3,5,80,127,1398858580
89,14,19,Jits_Linear_5,0,1,48,39,1399193700
89,14,19,Jits_Linear_5,1,5,80,127,1399325000
89,14,19,Jits_Linear_5,2,5,63,98,1399415064
89,14,19,Jits_Linear_5,3,5,56,103,1399425480
89,14,19,Jits_Linear_5,0,1,48,34,1399721912
89,14,19,Jits_Linear_5,1,5,56,103,1399854416
89,14,19,Jits_Linear_5,2,5,63,98,1399857812
89,14,19,Jits_Linear_5,3,5,80,127,1399860932
89,14,19,Jits_Linear_5,0,1,48,39,1400204056
89,14,19,Jits_Linear_5,1,5,80,127,1400405340
89,14,19,Jits_Linear_5,2,5,63,98,1400454796
89,14,19,Jits_Linear_5,3,5,56,103,1400485220
89,14,19,Jits_Linear_5,0,1,48,34,1400772984
89,14,19,Jits_Linear_5,1,5,56,103,1400915444
89,14,19,Jits_Linear_5,2,5,80,127,1400924668
89,14,19,Jits_Linear_5,3,5,63,98,1400995172
89,14,19,Jits_Linear_5,0,1,48,33,1401285544
89,14,19,Jits_Linear_5,1,5,56,103,1401455064
89,14,19,Jits_Linear_5,2,5,63,98,1401474328
89,14,19,Jits_Linear_5,3,5,80,127,1401535016
89,14,19,Jits_Linear_5,0,1,48,38,1401809500
89,14,19,Jits_Linear_5,1,5,80,127,1401985316
89,14,19,Jits_Linear_5,2,5,63,98,1402055004
89,14,19,Jits_Linear_5,3,5,56,103,1402074564
89,14,19,Jits_Linear_5,0,1,48,36,1402372836
89,14,19,Jits_Linear_5,1,5,80,127,1402544348
89,14,19,Jits_Linear_5,2,5,56,103,1402554768
89,14,19,Jits_Linear_5,3,5,63,98,1402565112
89,14,19,Jits_Linear_5,0,1,48,39,1402902168
89,14,19,Jits_Linear_5,1,5,80,127,1403074896
89,14,19,Jits_Linear_5,2,5,56,103,1403095432
89,14,19,Jits_Linear_5,3,5,63,98,1403164992
89,14,19,Jits_Linear_5,0,1,48,39,1403425464
89,14,19,Jits_Linear_5,1,5,56,103,1403624780
89,14,19,Jits_Linear_5,2,5,80,127,1403654480
89,14,19,Jits_Linear_5,3,5,63,98,1403674868
89,14,19,Jits_Linear_5,0,1,48,35,1403934004
89,14,19,Jits_Linear_5,1,5,63,98,1404164424
89,14,19,Jits_Linear_5,2,5,56,103,1404224968
89,14,19,Jits_Linear_5,3,5,80,127,1404254720
89,14,19,Jits_Linear_5,4,1,48,38,1404471964
89,14,19,Jits_Linear_5,0,5,63,98,1404705092
89,14,19,Jits_Linear_5,1,5,80,127,1404708380
89,14,19,Jits_Linear_5,2,5,56,103,1404795224
89,14,19,Jits_Linear_5,3,1,48,38,1405005064
89,14,19,Jits_Linear_5,0,5,56,103,1405274820
89,14,19,Jits_Linear_5,1,5,63,98,1405305248
89,14,19,Jits_Linear_5,2,5,80,127,1405345188
89,14,19,Jits_Linear_5,3,1,48,37,1405558168
89,14,19,Jits_Linear_5,0,5,63,98,1405825324
89,14,19,Jits_Linear_5,1,5,56,103,1405865264
89,14,19,Jits_Linear_5,2,5,80,127,1405884824
89,14,19,Jits_Linear_5,3,1,48,36,1406098100
89,14,19,Jits_Linear_5,0,5,63,98,1406384424
89,14,19,Jits_Linear_5,1,5,56,103,1406424292
89,14,19,Jits_Linear_5,2,5,80,127,1406434784
89,14,19,Jits_Linear_5,3,1,48,33,1406654212
89,14,19,Jits_Linear_5,0,5,80,127,1406925096
89,14,19,Jits_Linear_5,1,5,63,98,1406994732
89,14,19,Jits_Linear_5,2,5,56,103,1407015264
89,14,19,Jits_Linear_5,3,1,48,37,1407222468
89,14,19,Jits_Linear_5,0,5,56,103,1407475168
89,14,19,Jits_Linear_5,1,5,80,127,1407494508
89,14,19,Jits_Linear_5,2,5,63,98,1407534448
89,14,19,Jits_Linear_5,3,1,48,36,1407789376
89,14,19,Jits_Linear_5,0,5,63,98,1408045372
89,14,19,Jits_Linear_5,1,5,80,127,1408064784
89,14,19,Jits_Linear_5,2,5,56,103,1408104944
89,14,19,Jits_Linear_5,3,1,48,36,1408341816
89,14,19,Jits_Linear_5,0,5,63,98,1408604764
89,14,19,Jits_Linear_5,1,5,56,103,1408625076
89,14,19,Jits_Linear_5,2,5,80,127,1408635196
89,14,19,Jits_Linear_5,3,1,48,37,1408899792
89,14,19,Jits_Linear_5,0,5,80,127,1409164912
89,14,19,Jits_Linear_5,1,5,56,103,1409185072
89,14,19,Jits_Linear_5,2,5,63,98,1409214824
89,14,19,Jits_Linear_5,3,1,48,36,1409443764
89,14,19,Jits_Linear_5,0,5,56,103,1409804740
89,14,19,Jits_Linear_5,1,5,80,127,1409807880
89,14,19,Jits_Linear_5,2,5,63,98,1409825052
89,14,19,Jits_Linear_5,3,1,48,32,1410038852
89,14,19,Jits_Linear_5,0,5,63,98,1410295144
89,14,19,Jits_Linear_5,1,5,56,103,1410324748
89,14,19,Jits_Linear_5,2,5,80,127,1410385288
89,14,19,Jits_Linear_5,3,1,48,38,1410569500
89,14,19,Jits_Linear_5,0,5,63,98,1410945652
89,14,19,Jits_Linear_5,1,5,56,103,1410954728
89,14,19,Jits_Linear_5,2,5,80,127,1410964776
89,14,19,Jits_Linear_5,3,1,48,33,1411159180
89,14,19,Jits_Linear_5,0,5,56,103,1411464824
89,14,19,Jits_Linear_5,1,5,80,127,1411495248
89,14,19,Jits_Linear_5,2,5,63,98,1411504620
89,14,19,Jits_Linear_5,3,1,48,31,1411718724
89,14,19,Jits_Linear_5,0,5,63,98,1412074812
89,14,19,Jits_Linear_5,1,5,56,103,1412085036
89,14,19,Jits_Linear_5,2,5,80,127,1412104820
89,14,19,Jits_Linear_5,3,1,48,38,1412298520
89,14,19,Jits_Linear_5,0,5,56,103,1412574720
89,14,19,Jits_Linear_5,1,5,63,98,1412634988
89,14,19,Jits_Linear_5,2,5,80,127,1412638276
89,14,19,Jits_Linear_5,3,1,48,33,1412831760
89,14,19,Jits_Linear_5,0,5,80,127,1413174832
89,14,19,Jits_Linear_5,1,5,56,103,1413184808
89,14,19,Jits_Linear_5,2,5,63,98,1413254488
89,14,19,Jits_Linear_5,3,1,48,32,1413375920
89,14,19,Jits_Linear_5,0,5,80,127,1413744960
89,14,19,Jits_Linear_5,1,5,56,103,1413814572
89,14,19,Jits_Linear_5,2,5,63,98,1413824768
89,14,19,Jits_Linear_5,3,1,48,39,1413932500
89,14,19,Jits_Linear_5,0,5,63,98,1414364836
89,14,19,Jits_Linear_5,1,5,56,103,1414374664
89,14,19,Jits_Linear_5,2,5,80,127,1414395220
89,14,19,Jits_Linear_5,3,1,48,28,1414580308
89,14,19,Jits_Linear_5,0,5,80,127,1414894968
89,14,19,Jits_Linear_5,1,5,63,98,1414955660
89,14,19,Jits_Linear_5,2,5,56,103,1414995228
89,14,19,Jits_Linear_5,3,1,48,39,1415129744
89,14,19,Jits_Linear_5,0,5,56,103,1415524736
89,14,19,Jits_Linear_5,1,5,63,98,1415534860
89,14,19,Jits_Linear_5,2,5,80,127,1415574948
89,14,19,Jits_Linear_5,3,1,48,40,1415654036
89,14,19,Jits_Linear_5,0,5,56,103,1416074560
89,14,19,Jits_Linear_5,1,5,80,127,1416105432
89,14,19,Jits_Linear_5,2,5,63,98,1416154588
89,14,19,Jits_Linear_5,3,1,48,38,1416241636
89,14,19,Jits_Linear_5,0,5,56,103,1416705324
89,14,19,Jits_Linear_5,1,5,63,98,1416745484
89,14,19,Jits_Linear_5,2,5,80,127,1416748776
89,14,19,Jits_Linear_5,3,1,48,38,1416827788
89,14,19,Jits_Linear_5,0,5,56,103,1417295148
89,14,19,Jits_Linear_5,1,5,63,98,1417304596
89,14,19,Jits_Linear_5,2,5,80,127,1417324832
89,14,19,Jits_Linear_5,3,1,48,34,1417409904
89,14,19,Jits_Linear_5,0,5,56,103,1417855452
89,14,19,Jits_Linear_5,1,5,80,127,1417858444
89,14,19,Jits_Linear_5,2,5,63,98,1417895616
89,14,19,Jits_Linear_5,3,1,48,37,1417990900
89,14,19,Jits_Linear_5,0,5,63,98,1418485012
89,14,19,Jits_Linear_5,1,5,56,103,1418514764
89,14,19,Jits_Linear_5,2,5,80,127,1418535372
89,14,19,Jits_Linear_5,3,1,48,35,1418586664
89,14,19,Jits_Linear_5,0,5,80,127,1419054600
89,14,19,Jits_Linear_5,1,5,56,103,1419064648
89,14,19,Jits_Linear_5,2,5,63,98,1419074920
89,14,19,Jits_Linear_5,3,1,48,38,1419131892
89,14,19,Jits_Linear_5,0,5,56,103,1419654544
89,14,19,Jits_Linear_5,1,1,48,38,1419679684
89,14,19,Jits_Linear_5,2,5,80,127,1419694476
89,14,19,Jits_Linear_5,3,5,63,98,1419725124
89,14,19,Jits_Linear_5,0,5,63,98,1420264752
89,14,19,Jits_Linear_5,1,1,48,41,1420269364
89,14,19,Jits_Linear_5,2,5,80,127,1420275192
89,14,19,Jits_Linear_5,3,5,56,103,1420285388
89,14,19,Jits_Linear_5,0,1,48,35,1420836052
89,14,19,Jits_Linear_5,1,5,56,103,1420845592
89,14,19,Jits_Linear_5,2,5,63,98,1420914980
89,14,19,Jits_Linear_5,3,5,80,127,1420925472
89,14,19,Jits_Linear_5,0,1,48,36,1421380756
89,14,19,Jits_Linear_5,1,5,80,127,1421454588
89,14,19,Jits_Linear_5,2,5,56,103,1421465156
89,14,19,Jits_Linear_5,3,5,63,98,1421515048
89,14,19,Jits_Linear_5,0,1,48,34,1421956852
89,14,19,Jits_Linear_5,1,5,80,127,1422075344
89,14,19,Jits_Linear_5,2,5,56,103,1422134544
89,14,19,Jits_Linear_5,3,5,63,98,1422165492
89,14,19,Jits_Linear_5,0,1,48,35,1422545772
89,14,19,Jits_Linear_5,1,5,56,103,1422684644
89,14,19,Jits_Linear_5,2,5,80,127,1422687708
89,14,19,Jits_Linear_5,3,5,63,98,1422724508
89,14,19,Jits_Linear_5,0,1,48,32,1423136572
89,14,19,Jits_Linear_5,1,5,56,103,1423324500
89,14,19,Jits_Linear_5,2,5,63,98,1423355100
89,14,19,Jits_Linear_5,3,5,80,127,1423364620
89,14,19,Jits_Linear_5,0,1,48,33,1423711996
89,14,19,Jits_Linear_5,1,5,63,98,1423945136
89,14,19,Jits_Linear_5,2,5,80,127,1423955480
89,14,19,Jits_Linear_5,3,5,56,103,1423964484
89,14,19,Jits_Linear_5,0,1,48,31,1424297924
89,14,19,Jits_Linear_5,1,5,80,127,1424505136
89,14,19,Jits_Linear_5,2,5,56,103,1424555488
89,14,19,Jits_Linear_5,3,5,63,98,1424558480
89,14,19,Jits_Linear_5,0,1,48,30,1424886332
89,14,19,Jits_Linear_5,1,5,56,103,1425154528
89,14,19,Jits_Linear_5,2,5,80,127,1425174916
89,14,19,Jits_Linear_5,3,5,63,98,1425185408
89,14,19,Jits_Linear_5,4,1,48,32,1425464316
89,14,19,Jits_Linear_5,0,5,63,98,1425754752
89,14,19,Jits_Linear_5,1,5,56,103,1425785400
89,14,19,Jits_Linear_5,2,5,80,127,1425804592
89,14,19,Jits_Linear_5,3,1,48,35,1426084176
89,14,19,Jits_Linear_5,0,5,56,103,1426385400
89,14,19,Jits_Linear_5,1,5,80,127,1426394404
89,14,19,Jits_Linear_5,2,5,63,98,1426465084
89,14,19,Jits_Linear_5,3,1,48,30,1426684064
89,14,19,Jits_Linear_5,0,5,63,98,1426994516
89,14,19,Jits_Linear_5,1,5,80,127,1427034380
89,14,19,Jits_Linear_5,2,5,56,103,1427074616
89,14,19,Jits_Linear_5,3,1,48,34,1427289992
89,14,19,Jits_Linear_5,0,5,56,103,1427634680
89,14,19,Jits_Linear_5,1,5,63,98,1427644876
89,14,19,Jits_Linear_5,2,5,80,127,1427665116
89,14,19,Jits_Linear_5,3,1,48,35,1427906640
89,14,19,Jits_Linear_5,0,5,63,98,1428305228
89,14,19,Jits_Linear_5,1,5,80,127,1428324792
89,14,19,Jits_Linear_5,2,5,56,103,1428345176
89,14,19,Jits_Linear_5,3,1,48,37,1428552996
89,14,19,Jits_Linear_5,0,5,56,103,1428874596
89,14,19,Jits_Linear_5,1,5,80,127,1428954472
89,14,19,Jits_Linear_5,2,5,63,98,1428964668
89,14,19,Jits_Linear_5,3,1,48,34,1429181612
89,14,19,Jits_Linear_5,0,5,80,127,1429545444
89,14,19,Jits_Linear_5,1,5,63,98,1429554520
89,14,19,Jits_Linear_5,2,5,56,103,1429585540
89,14,19,Jits_Linear_5,3,1,48,37,1429825120
89,14,19,Jits_Linear_5,0,5,63,98,1430135124
89,14,19,Jits_Linear_5,1,5,80,127,1430174996
89,14,19,Jits_Linear_5,2,5,56,103,1430234340
89,14,19,Jits_Linear_5,3,1,48,32,1430408364
89,14,19,Jits_Linear_5,0,5,63,98,1430775096
89,14,19,Jits_Linear_5,1,5,56,103,1430825448
89,14,19,Jits_Linear_5,2,5,80,127,1430855048
89,14,19,Jits_Linear_5,0,5,80,127,1431425480
89,14,19,Jits_Linear_5,1,5,63,98,1431434556
89,14,19,Jits_Linear_5,2,5,56,103,1431505360
89,14,19,Jits_Linear_5,3,1,48,40,1431710620
89,14,19,Jits_Linear_5,0,5,80,127,1432134992
89,14,19,Jits_Linear_5,1,5,56,103,1432145484
89,14,19,Jits_Linear_5,2,5,63,98,1432148400
89,14,19,Jits_Linear_5,3,1,48,36,1432221564
89,14,19,Jits_Linear_5,0,5,56,103,1432714556
89,14,19,Jits_Linear_5,1,5,80,127,1432735016
89,14,19,Jits_Linear_5,2,5,63,98,1432745584
89,14,19,Jits_Linear_5,3,1,48,30,1432836456
89,14,19,Jits_Linear_5,0,5,63,98,1433364720
89,14,19,Jits_Linear_5,1,5,56,103,1433404736
89,14,19,Jits_Linear_5,2,5,80,127,1433425420
89,14,19,Jits_Linear_5,3,1,48,39,1433439172
89,14,19,Jits_Linear_5,0,1,48,42,1434014628
89,14,19,Jits_Linear_5,1,5,63,98,1434016192
89,14,19,Jits_Linear_5,2,5,56,103,1434074492
89,14,19,Jits_Linear_5,3,5,80,127,1434077556
89,14,19,Jits_Linear_5,0,1,48,40,1434619776
89,14,19,Jits_Linear_5,1,5,56,103,1434625500
89,14,19,Jits_Linear_5,2,5,80,127,1434644840
89,14,19,Jits_Linear_5,3,5,63,98,1434684856
89,14,19,Jits_Linear_5,0,1,48,32,1435225332
89,14,19,Jits_Linear_5,1,5,56,103,1435305448
89,14,19,Jits_Linear_5,2,5,63,98,1435324700
89,14,19,Jits_Linear_5,3,5,80,127,1435334968
89,14,19,Jits_Linear_5,0,1,48,28,1435877404
89,14,19,Jits_Linear_5,1,5,80,127,1435924888
89,14,19,Jits_Linear_5,2,5,56,103,1435954564
89,14,19,Jits_Linear_5,3,5,63,98,1435994488
89,14,19,Jits_Linear_5,0,1,48,37,1436491212
89,14,19,Jits_Linear_5,1,5,80,127,1436585424
89,14,19,Jits_Linear_5,2,5,56,103,1436604748
89,14,19,Jits_Linear_5,3,5,63,98,1436665464
89,14,19,Jits_Linear_5,0,1,48,31,1437100508
89,14,19,Jits_Linear_5,1,5,56,103,1437244856
89,14,19,Jits_Linear_5,2,5,80,127,1437265316
89,14,19,Jits_Linear_5,3,5,63,98,1437324588
89,14,19,Jits_Linear_5,0,1,48,33,1437724752
89,14,19,Jits_Linear_5,1,5,80,127,1437884724
89,14,19,Jits_Linear_5,2,5,56,103,1437894992
89,14,19,Jits_Linear_5,3,5,63,98,1437934884
89,14,19,Jits_Linear_5,0,1,48,32,1438347664
89,14,19,Jits_Linear_5,1,5,63,98,1438545432
89,14,19,Jits_Linear_5,2,5,56,103,1438585296
89,14,19,Jits_Linear_5,3,5,80,127,1438588288
89,14,19,Jits_Linear_5,0,1,48,29,1438990832
89,14,19,Jits_Linear_5,1,5,63,98,1439225616
89,14,19,Jits_Linear_5,2,5,80,127,1439265336
89,14,19,Jits_Linear_5,3,5,56,103,1439294940
89,14,19,Jits_Linear_5,0,1,48,31,1439633708
89,14,19,Jits_Linear_5,1,5,56,103,1439874328
89,14,19,Jits_Linear_5,2,5,63,98,1439884600
89,14,19,Jits_Linear_5,3,5,80,127,1439915472
89,14,19,Jits_Linear_5,4,1,48,34,1440235432
89,14,19,Jits_Linear_5,0,5,80,127,1440534884
89,14,19,Jits_Linear_5,1,5,63,98,1440604424
89,14,19,Jits_Linear_5,2,5,56,103,1440614768
89,14,19,Jits_Linear_5,3,1,48,31,1440864912
89,14,19,Jits_Linear_5,0,5,63,98,1441204736
89,14,19,Jits_Linear_5,1,5,56,103,1441275340
89,14,19,Jits_Linear_5,2,5,80,127,1441284492
89,14,19,Jits_Linear_5,3,1,48,25,1441576284
89,14,19,Jits_Linear_5,0,5,63,98,1441875416
89,14,19,Jits_Linear_5,1,5,56,103,1441894680
89,14,19,Jits_Linear_5,2,5,80,127,1441934620
89,14,19,Jits_Linear_5,3,1,48,34,1442201760
89,14,19,Jits_Linear_5,0,5,56,103,1442555604
89,14,19,Jits_Linear_5,1,5,63,98,1442564456
89,14,19,Jits_Linear_5,2,5,80,127,1442645300
89,14,19,Jits_Linear_5,3,1,48,27,1442873572
89,14,19,Jits_Linear_5,0,5,63,98,1443214740
89,14,19,Jits_Linear_5,1,5,56,103,1443245464
89,14,19,Jits_Linear_5,2,5,80,127,1443285328
89,14,19,Jits_Linear_5,3,1,48,32,1443533976
89,14,19,Jits_Linear_5,0,5,56,103,1443885416
89,14,19,Jits_Linear_5,1,5,63,98,1443925356
89,14,19,Jits_Linear_5,2,5,80,127,1443965220
89,14,19,Jits_Linear_5,3,1,48,29,1444207268
89,14,19,Jits_Linear_5,0,5,80,127,1444565372
89,14,19,Jits_Linear_5,1,5,56,103,1444645196
89,14,19,Jits_Linear_5,2,5,63,98,1444654420
89,14,19,Jits_Linear_5,3,1,48,31,1444910472
89,14,19,Jits_Linear_5,0,5,56,103,1445285216
89,14,19,Jits_Linear_5,1,5,63,98,1445288284
89,14,19,Jits_Linear_5,2,5,80,127,1445294440
89,14,19,Jits_Linear_5,3,1,48,32,1445586828
89,14,19,Jits_Linear_5,0,5,56,103,1445984524
89,14,19,Jits_Linear_5,1,5,63,98,1446005208
89,14,19,Jits_Linear_5,2,5,80,127,1446015328
89,14,19,Jits_Linear_5,3,1,48,35,1446251376
89,14,19,Jits_Linear_5,0,5,63,98,1446624700
89,14,19,Jits_Linear_5,1,5,80,127,1446634824
89,14,19,Jits_Linear_5,2,5,56,103,1446655432
89,14,19,Jits_Linear_5,3,1,48,35,1446903932
89,14,19,Jits_Linear_5,0,5,63,98,1447314676
89,14,19,Jits_Linear_5,1,5,56,103,1447394772
89,14,19,Jits_Linear_5,2,5,80,127,1447397688
89,14,19,Jits_Linear_5,3,1,48,38,1447588948
89,14,19,Jits_Linear_5,0,5,63,98,1448005184
89,14,19,Jits_Linear_5,1,5,56,103,1448024376
89,14,19,Jits_Linear_5,2,5,80,127,1448055320
89,14,19,Jits_Linear_5,3,1,48,29,1448276324
89,14,19,Jits_Linear_5,0,5,56,103,1448695344
89,14,19,Jits_Linear_5,1,5,63,98,1448714536
89,14,19,Jits_Linear_5,2,5,80,127,1448724732
89,14,19,Jits_Linear_5,3,1,48,30,1448932208
89,14,19,Jits_Linear_5,0,5,56,103,1449415016
89,14,19,Jits_Linear_5,1,5,63,98,1449444764
89,14,19,Jits_Linear_5,2,5,80,127,1449448276
89,14,19,Jits_Linear_5,3,1,48,26,1449639464
89,14,19,Jits_Linear_5,0,5,56,103,1450055356
89,14,19,Jits_Linear_5,1,5,63,98,1450095148
89,14,19,Jits_Linear_5,2,5,80,127,1450155392
89,14,19,Jits_Linear_5,3,1,48,30,1450306720
89,14,19,Jits_Linear_5,0,5,56,103,1450764568
89,14,19,Jits_Linear_5,1,5,63,98,1450775288
89,14,19,Jits_Linear_5,2,5,80,127,1450835380
89,14,19,Jits_Linear_5,3,1,48,35,1450980608
89,14,19,Jits_Linear_5,0,5,56,103,1451465204
89,14,19,Jits_Linear_5,1,5,80,127,1451484620
89,14,19,Jits_Linear_5,2,5,63,98,1451515216
89,14,19,Jits_Linear_5,3,1,48,37,1451651976
89,14,19,Jits_Linear_5,0,5,80,127,1452164448
89,14,19,Jits_Linear_5,1,5,56,103,1452174644
89,14,19,Jits_Linear_5,2,5,63,98,1452195400
89,14,19,Jits_Linear_5,3,1,48,35,1452376916
89,14,19,Jits_Linear_5,0,5,63,98,1452854840
89,14,19,Jits_Linear_5,1,5,80,127,1452934496
89,14,19,Jits_Linear_5,2,5,56,103,1452944688
89,14,19,Jits_Linear_5,3,1,48,35,1453120808
89,14,19,Jits_Linear_5,0,5,80,127,1453614316
89,14,19,Jits_Linear_5,1,5,56,103,1453635144
89,14,19,Jits_Linear_5,2,5,63,98,1453638284
89,14,19,Jits_Linear_5,3,1,48,31,1453826404
89,14,19,Jits_Linear_5,0,5,63,98,1454295388
89,14,19,Jits_Linear_5,1,5,80,127,1454298604
89,14,19,Jits_Linear_5,2,5,56,103,1454354684
89,14,19,Jits_Linear_5,3,1,48,28,1454484864
89,14,19,Jits_Linear_5,0,5,56,103,1454984496
89,14,19,Jits_Linear_5,1,5,80,127,1454995212
89,14,19,Jits_Linear_5,2,5,63,98,1455034928
89,14,19,Jits_Linear_5,3,1,48,31,1455132384
89,14,19,Jits_Linear_5,0,5,56,103,1455674740
89,14,19,Jits_Linear_5,1,5,63,98,1455735136
89,14,19,Jits_Linear_5,2,5,80,127,1455745332
89,14,19,Jits_Linear_5,3,1,48,33,1455809880
89,14,19,Jits_Linear_5,0,5,63,98,1456394512
89,14,19,Jits_Linear_5,1,5,80,127,1456434604
89,14,19,Jits_Linear_5,2,1,48,35,1456467464
89,14,19,Jits_Linear_5,3,5,56,103,1456474608
89,14,19,Jits_Linear_5,0,5,56,103,1457105400
89,14,19,Jits_Linear_5,1,1,48,38,1457114296
89,14,19,Jits_Linear_5,2,5,63,98,1457185216
89,14,19,Jits_Linear_5,3,5,80,127,1457188504
89,14,19,Jits_Linear_5,0,1,48,39,1457788492
89,14,19,Jits_Linear_5,1,5,80,127,1457875212
89,14,19,Jits_Linear_5,2,5,56,103,1457905120
89,14,19,Jits_Linear_5,3,5,63,98,1457908260
89,14,19,Jits_Linear_5,0,1,48,38,1458509440
89,14,19,Jits_Linear_5,1,5,56,103,1458555252
89,14,19,Jits_Linear_5,2,5,80,127,1458574588
89,14,19,Jits_Linear_5,3,5,63,98,1458614588
89,14,19,Jits_Linear_5,0,1,48,38,1459204328
89,14,19,Jits_Linear_5,1,5,80,127,1459254700
89,14,19,Jits_Linear_5,2,5,63,98,1459275088
89,14,19,Jits_Linear_5,3,5,56,103,1459334492
89,14,19,Jits_Linear_5,0,1,48,38,1459892812
89,14,19,Jits_Linear_5,1,5,63,98,1459984864
89,14,19,Jits_Linear_5,2,5,56,103,1459994972
89,14,19,Jits_Linear_5,3,5,80,127,1460045176
89,14,19,Jits_Linear_5,0,1,48,34,1460577112
89,14,19,Jits_Linear_5,1,5,56,103,1460695512
89,14,19,Jits_Linear_5,2,5,63,98,1460714924
89,14,19,Jits_Linear_5,3,5,80,127,1460725072
89,14,19,Jits_Linear_5,0,1,48,34,1461244648
89,14,19,Jits_Linear_5,1,5,56,103,1461415408
89,14,19,Jits_Linear_5,2,5,63,98,1461418472
89,14,19,Jits_Linear_5,3,5,80,127,1461434596
89,14,19,Jits_Linear_5,0,1,48,27,1461921044
89,14,19,Jits_Linear_5,1,5,63,98,1462185200
89,14,19,Jits_Linear_5,2,5,56,103,1462215176
89,14,19,Jits_Linear_5,3,5,80,127,1462244632
89,14,19,Jits_Linear_5,0,1,48,26,1462640128
89,14,19,Jits_Linear_5,1,5,80,127,1462874464
89,14,19,Jits_Linear_5,2,5,56,103,1462964676
89,14,19,Jits_Linear_5,3,5,63,98,1462967592
89,14,19,Jits_Linear_5,0,1,48,33,1463368868
89,14,19,Jits_Linear_5,1,5,56,103,1463604548
89,14,19,Jits_Linear_5,2,5,80,127,1463607612
89,14,19,Jits_Linear_5,3,5,63,98,1463684344
89,14,19,Jits_Linear_5,0,1,48,29,1464030812
89,14,19,Jits_Linear_5,1,5,80,127,1464335000
89,14,19,Jits_Linear_5,2,5,63,98,1464395320
89,14,19,Jits_Linear_5,3,5,56,103,1464424924
89,14,19,Jits_Linear_5,4,1,48,32,1464739112
89,14,19,Jits_Linear_5,0,5,63,98,1465064992
89,14,19,Jits_Linear_5,1,5,80,127,1465075216
89,14,19,Jits_Linear_5,2,5,56,103,1465145120
89,14,19,Jits_Linear_5,3,1,48,28,1465415340
89,14,19,Jits_Linear_5,0,5,56,103,1465815388
89,14,19,Jits_Linear_5,1,5,80,127,1465845240
89,14,19,Jits_Linear_5,2,5,63,98,1465895368
89,14,19,Jits_Linear_5,3,1,48,30,1466127152
89,14,19,Jits_Linear_5,0,5,63,98,1466594632
89,14,19,Jits_Linear_5,1,5,56,103,1466625452
89,14,19,Jits_Linear_5,2,5,80,127,1466628444
89,14,19,Jits_Linear_5,3,1,48,34,1466915376
89,14,19,Jits_Linear_5,0,5,63,98,1467335060
89,14,19,Jits_Linear_5,1,5,80,127,1467354620
89,14,19,Jits_Linear_5,2,5,56,103,1467364668
89,14,19,Jits_Linear_5,3,1,48,31,1467646000
89,14,19,Jits_Linear_5,0,5,56,103,1468084632
89,14,19,Jits_Linear_5,1,5,63,98,1468087772
89,14,19,Jits_Linear_5,2,5,80,127,1468105016
89,14,19,Jits_Linear_5,3,1,48,25,1468383260
89,14,19,Jits_Linear_5,0,5,56,103,1468785136
89,14,19,Jits_Linear_5,1,5,63,98,1468795332
89,14,19,Jits_Linear_5,2,5,80,127,1468824936
89,14,19,Jits_Linear_5,3,1,48,29,1469085792
89,14,19,Jits_Linear_5,0,5,63,98,1469555176
89,14,19,Jits_Linear_5,1,5,80,127,1469574588
89,14,19,Jits_Linear_5,2,5,56,103,1469614528
89,14,19,Jits_Linear_5,3,1,48,29,1469798212
89,14,19,Jits_Linear_5,0,5,56,103,1470335320
89,14,19,Jits_Linear_5,1,5,63,98,1470375332
89,14,19,Jits_Linear_5,2,5,80,127,1470378696
89,14,19,Jits_Linear_5,3,1,48,29,1470549876
89,14,19,Jits_Linear_5,0,5,80,127,1471024436
89,14,19,Jits_Linear_5,1,5,56,103,1471064300
89,14,19,Jits_Linear_5,2,5,63,98,1471114728
89,14,19,Jits_Linear_5,3,1,48,34,1471286656
89,14,19,Jits_Linear_5,0,5,56,103,1471834636
89,14,19,Jits_Linear_5,1,5,80,127,1471845132
89,14,19,Jits_Linear_5,2,5,63,98,1471874512
89,14,19,Jits_Linear_5,3,1,48,28,1472043896
89,14,19,Jits_Linear_5,0,5,56,103,1472535080
89,14,19,Jits_Linear_5,1,5,80,127,1472574948
89,14,19,Jits_Linear_5,2,5,63,98,1472625148
89,14,19,Jits_Linear_5,3,1,48,26,1472812448
89,14,19,Jits_Linear_5,0,5,56,103,1473294932
89,14,19,Jits_Linear_5,1,5,80,127,1473334724
89,14,19,Jits_Linear_5,2,5,63,98,1473384928
89,14,19,Jits_Linear_5,3,1,48,27,1473551976
89,14,19,Jits_Linear_5,0,5,80,127,1474045268
89,14,19,Jits_Linear_5,1,5,63,98,1474125140
89,14,19,Jits_Linear_5,2,5,56,103,1474135412
89,14,19,Jits_Linear_5,3,1,48,19,1474353276
89,14,19,Jits_Linear_5,0,5,80,127,1474855320
89,14,19,Jits_Linear_5,1,5,56,103,1474864400
89,14,19,Jits_Linear_5,2,5,63,98,1474884932
89,14,19,Jits_Linear_5,3,1,48,23,1475137692
89,14,19,Jits_Linear_5,0,5,63,98,1475585336
89,14,19,Jits_Linear_5,1,5,56,103,1475655168
89,14,19,Jits_Linear_5,2,5,80,127,1475658236
89,14,19,Jits_Linear_5,3,1,48,27,1475872880
89,14,19,Jits_Linear_5,0,5,80,127,1476345312
89,14,19,Jits_Linear_5,1,5,63,98,1476395296
89,14,19,Jits_Linear_5,2,5,56,103,1476435460
89,14,19,Jits_Linear_5,3,1,48,29,1476627540
89,14,19,Jits_Linear_5,0,5,63,98,1477155216
89,14,19,Jits_Linear_5,1,5,56,103,1477195160
89,14,19,Jits_Linear_5,2,5,80,127,1477205356
89,14,19,Jits_Linear_5,3,1,48,31,1477367540
89,14,19,Jits_Linear_5,0,5,63,98,1477915060
89,14,19,Jits_Linear_5,1,5,56,103,1477934324
89,14,19,Jits_Linear_5,2,5,80,127,1477954932
89,14,19,Jits_Linear_5,3,1,48,27,1478124092
89,14,19,Jits_Linear_5,0,5,80,127,1478645152
89,14,19,Jits_Linear_5,1,5,56,103,1478655272
89,14,19,Jits_Linear_5,2,5,63,98,1478674984
89,14,19,Jits_Linear_5,3,1,48,36,1478896576
89,14,19,Jits_Linear_5,0,5,63,98,1479444784
89,14,19,Jits_Linear_5,1,5,56,103,1479484948
89,14,19,Jits_Linear_5,2,5,80,127,1479514548
89,14,19,Jits_Linear_5,3,1,48,31,1479693224
89,14,19,Jits_Linear_5,0,5,56,103,1480225224
89,14,19,Jits_Linear_5,1,5,63,98,1480254832
89,14,19,Jits_Linear_5,2,5,80,127,1480284508
89,14,19,Jits_Linear_5,3,1,48,28,1480461744
89,14,19,Jits_Linear_5,0,5,80,127,1480974964
89,14,19,Jits_Linear_5,1,5,56,103,1481045320
89,14,19,Jits_Linear_5,2,5,63,98,1481048312
89,14,19,Jits_Linear_5,3,1,48,24,1481290360
89,14,19,Jits_Linear_5,0,5,56,103,1481765224
89,14,19,Jits_Linear_5,1,5,63,98,1481815356
89,14,19,Jits_Linear_5,2,5,80,127,1481845104
89,14,19,Jits_Linear_5,3,1,48,32,1482080180
89,14,19,Jits_Linear_5,0,5,63,98,1482525072
89,14,19,Jits_Linear_5,1,5,80,127,1482528288
89,14,19,Jits_Linear_5,2,5,56,103,1482584344
89,14,19,Jits_Linear_5,3,1,48,29,1482825872
89,14,19,Jits_Linear_5,0,5,56,103,1483335024
89,14,19,Jits_Linear_5,1,5,80,127,1483345220
89,14,19,Jits_Linear_5,2,5,63,98,1483394452
89,14,19,Jits_Linear_5,3,1,48,33,1483594324
89,14,19,Jits_Linear_5,0,5,63,98,1484094800
89,14,19,Jits_Linear_5,1,5,56,103,1484104924
89,14,19,Jits_Linear_5,2,5,80,127,1484134824
89,14,19,Jits_Linear_5,3,1,48,30,1484366912
89,14,19,Jits_Linear_5,0,5,63,98,1484915168
89,14,19,Jits_Linear_5,1,5,80,127,1484918384
89,14,19,Jits_Linear_5,2,5,56,103,1484944696
89,14,19,Jits_Linear_5,3,1,48,29,1485107932
89,14,19,Jits_Linear_5,0,5,63,98,1485724900
89,14,19,Jits_Linear_5,1,5,56,103,1485744756
89,14,19,Jits_Linear_5,2,5,80,127,1485747452
89,14,19,Jits_Linear_5,3,1,48,26,1485868592
89,14,19,Jits_Linear_5,0,5,63,98,1486474688
89,14,19,Jits_Linear_5,1,5,56,103,1486545196
89,14,19,Jits_Linear_5,2,5,80,127,1486564832
89,14,19,Jits_Linear_5,3,1,48,29,1486650456
89,14,19,Jits_Linear_5,0,5,56,103,1487254976
89,14,19,Jits_Linear_5,1,5,63,98,1487265248
89,14,19,Jits_Linear_5,2,5,80,127,1487355184
89,14,19,Jits_Linear_5,3,1,48,24,1487440628
89,14,19,Jits_Linear_5,0,5,56,103,1488064876
89,14,19,Jits_Linear_5,1,5,80,127,1488104820
89,14,19,Jits_Linear_5,2,5,63,98,1488115116
89,14,19,Jits_Linear_5,3,1,48,32,1488217796
89,14,19,Jits_Linear_5,0,5,56,103,1488885140
89,14,19,Jits_Linear_5,1,5,63,98,1488914744
89,14,19,Jits_Linear_5,2,5,80,127,1488944644
89,14,19,Jits_Linear_5,3,1,48,22,1489030244
89,14,19,Jits_Linear_5,0,5,80,127,1489644768
89,14,19,Jits_Linear_5,1,5,63,98,1489684936
89,14,19,Jits_Linear_5,2,5,56,103,1489705396
89,14,19,Jits_Linear_5,3,1,48,20,1489865684
89,14,19,Jits_Linear_5,0,5,56,103,1490484784
89,14,19,Jits_Linear_5,1,5,80,127,1490504948
89,14,19,Jits_Linear_5,2,5,63,98,1490524584
89,14,19,Jits_Linear_5,3,1,48,29,1490631152
89,14,19,Jits_Linear_5,0,5,63,98,1491254824
89,14,19,Jits_Linear_5,1,5,56,103,1491264872
89,14,19,Jits_Linear_5,2,5,80,127,1491325260
89,14,19,Jits_Linear_5,3,1,48,24,1491425248
89,14,19,Jits_Linear_5,0,5,56,103,1492064780
89,14,19,Jits_Linear_5,1,5,63,98,1492135360
89,14,19,Jits_Linear_5,2,5,80,127,1492154700
89,14,19,Jits_Linear_5,3,1,48,19,1492197452
89,14,19,Jits_Linear_5,0,5,56,103,1492874756
89,14,19,Jits_Linear_5,1,5,63,98,1492905328
89,14,19,Jits_Linear_5,2,5,80,127,1492945196
89,14,19,Jits_Linear_5,3,1,48,36,1492968164
89,14,19,Jits_Linear_5,0,5,63,98,1493675512
89,14,19,Jits_Linear_5,1,5,56,103,1493724520
89,14,19,Jits_Linear_5,2,1,48,29,1493729588
89,14,19,Jits_Linear_5,3,5,80,127,1493734860
89,14,19,Jits_Linear_5,0,1,48,33,1494501540
89,14,19,Jits_Linear_5,1,5,56,103,1494525276
89,14,19,Jits_Linear_5,2,5,63,98,1494574880
89,14,19,Jits_Linear_5,3,5,80,127,1494584628
89,14,19,Jits_Linear_5,0,5,56,103,1495304676
89,14,19,Jits_Linear_5,1,5,63,98,1495314724
89,14,19,Jits_Linear_5,2,1,48,24,1495348180
89,14,19,Jits_Linear_5,3,5,80,127,1495394588
89,14,19,Jits_Linear_5,0,9999,9999,9999,1386552392
89,14,19,Jits_Linear_5,1,9999,9999,9999,1387032632
89,14,19,Jits_Linear_5,2,9999,9999,9999,1387512888
89,14,19,Jits_Linear_5,3,9999,9999,9999,1387992144
89,14,19,Jits_Linear_5,4,9999,9999,9999,1388472440
89,14,19,Jits_Linear_5,5,9999,9999,9999,1388962916
89,14,19,Jits_Linear_5,6,9999,9999,9999,1389452340
89,14,19,Jits_Linear_5,7,9999,9999,9999,1389942888
89,14,19,Jits_Linear_5,8,9999,9999,9999,1390432312
89,14,19,Jits_Linear_5,9,9999,9999,9999,1390922860
89,14,19,Jits_Linear_5,10,9999,9999,9999,1391422544
89,14,19,Jits_Linear_5,11,9999,9999,9999,1391922232
89,14,19,Jits_Linear_5,12,9999,9999,9999,1392423036
89,14,19,Jits_Linear_5,13,9999,9999,9999,1392922724
89,14,19,Jits_Linear_5,14,9999,9999,9999,1393422396
89,14,19,Jits_Linear_5,15,9999,9999,9999,1393932348
89,14,19,Jits_Linear_5,16,9999,9999,9999,1394442300
89,14,19,Jits_Linear_5,17,9999,9999,9999,1394952248
89,14,19,Jits_Linear_5,18,9999,9999,9999,1395462200
89,14,19,Jits_Linear_5,19,9999,9999,9999,1395972200
89,14,19,Jits_Linear_5,20,9999,9999,9999,1396492408
89,14,19,Jits_Linear_5,21,9999,9999,9999,1397012548
89,14,19,Jits_Linear_5,22,9999,9999,9999,1397532776
89,14,19,Jits_Linear_5,23,9999,9999,9999,1398052936
89,14,19,Jits_Linear_5,24,9999,9999,9999,1398572132
89,14,19,Jits_Linear_5,25,9999,9999,9999,1399102580
89,14,19,Jits_Linear_5,26,9999,9999,9999,1399632988
89,14,19,Jits_Linear_5,27,9999,9999,9999,1400162396
89,14,19,Jits_Linear_5,28,9999,9999,9999,1400692804
89,14,19,Jits_Linear_5,29,9999,9999,9999,1401222232
89,14,19,Jits_Linear_5,30,9999,9999,9999,1401762904
89,14,19,Jits_Linear_5,31,9999,9999,9999,1402302524
89,14,19,Jits_Linear_5,32,9999,9999,9999,1402842216
89,14,19,Jits_Linear_5,33,9999,9999,9999,1403382908
89,14,19,Jits_Linear_5,34,9999,9999,9999,1403922528
89,14,19,Jits_Linear_5,35,9999,9999,9999,1404472408
89,14,19,Jits_Linear_5,36,9999,9999,9999,1405022280
89,14,19,Jits_Linear_5,37,9999,9999,9999,1405572168
89,14,19,Jits_Linear_5,38,9999,9999,9999,1406123112
89,14,19,Jits_Linear_5,39,9999,9999,9999,1406682216
89,14,19,Jits_Linear_5,40,9999,9999,9999,1407242320
89,14,19,Jits_Linear_5,41,9999,9999,9999,1407802476
89,14,19,Jits_Linear_5,42,9999,9999,9999,1408362568
89,14,19,Jits_Linear_5,43,9999,9999,9999,1408922708
89,14,19,Jits_Linear_5,44,9999,9999,9999,1409482852
89,14,19,Jits_Linear_5,45,9999,9999,9999,1410052180
89,14,19,Jits_Linear_5,46,9999,9999,9999,1410622532
89,14,19,Jits_Linear_5,47,9999,9999,9999,1411192952
89,14,19,Jits_Linear_5,48,9999,9999,9999,1411762240
89,14,19,Jits_Linear_5,49,9999,9999,9999,1412332596
89,14,19,Jits_Linear_5,50,9999,9999,9999,1412912236
89,14,19,Jits_Linear_5,51,9999,9999,9999,1413492836
89,14,19,Jits_Linear_5,52,9999,9999,9999,1414072404
89,14,19,Jits_Linear_5,53,9999,9999,9999,1414652988
89,14,19,Jits_Linear_5,54,9999,9999,9999,1415232604
89,14,19,Jits_Linear_5,55,9999,9999,9999,1415822436
89,14,19,Jits_Linear_5,56,9999,9999,9999,1416412268
89,14,19,Jits_Linear_5,57,9999,9999,9999,1417003088
89,14,19,Jits_Linear_5,58,9999,9999,9999,1417602136
89,14,19,Jits_Linear_5,59,9999,9999,9999,1418193000
89,14,19,Jits_Linear_5,60,9999,9999,9999,1418793052
89,14,19,Jits_Linear_5,61,9999,9999,9999,1419392080
89,14,19,Jits_Linear_5,62,9999,9999,9999,1419992176
89,14,19,Jits_Linear_5,63,9999,9999,9999,1420592216
89,14,19,Jits_Linear_5,64,9999,9999,9999,1421192300
89,14,19,Jits_Linear_5,65,9999,9999,9999,1421802564
89,14,19,Jits_Linear_5,66,9999,9999,9999,1422412852
89,14,19,Jits_Linear_5,67,9999,9999,9999,1423022136
89,14,19,Jits_Linear_5,68,9999,9999,9999,1423632508
89,14,19,Jits_Linear_5,69,9999,9999,9999,1424242784
89,14,19,Jits_Linear_5,70,9999,9999,9999,1424862332
89,14,19,Jits_Linear_5,71,9999,9999,9999,1425482808
89,14,19,Jits_Linear_5,72,9999,9999,9999,1426102364
89,14,19,Jits_Linear_5,73,9999,9999,9999,1426722924
89,14,19,Jits_Linear_5,74,9999,9999,9999,1427342428
89,14,19,Jits_Linear_5,75,9999,9999,9999,1427972204
89,14,19,Jits_Linear_5,76,9999,9999,9999,1428602944
89,14,19,Jits_Linear_5,77,9999,9999,9999,1429232724
89,14,19,Jits_Linear_5,78,9999,9999,9999,1429862488
89,14,19,Jits_Linear_5,79,9999,9999,9999,1430492256
89,14,19,Jits_Linear_5,80,9999,9999,9999,1431132228
89,14,19,Jits_Linear_5,81,9999,9999,9999,1431772268
89,14,19,Jits_Linear_5,82,9999,9999,9999,1432412228
89,14,19,Jits_Linear_5,83,9999,9999,9999,1433052256
89,14,19,Jits_Linear_5,84,9999,9999,9999,1433692240
89,14,19,Jits_Linear_5,85,9999,9999,9999,1434342516
89,14,19,Jits_Linear_5,86,9999,9999,9999,1434992732
89,14,19,Jits_Linear_5,87,9999,9999,9999,1435642960
89,14,19,Jits_Linear_5,88,9999,9999,9999,1436292192
89,14,19,Jits_Linear_5,89,9999,9999,9999,1436942420
89,14,19,Jits_Linear_5,90,9999,9999,9999,1437602888
89,14,19,Jits_Linear_5,91,9999,9999,9999,1438262328
89,14,19,Jits_Linear_5,92,9999,9999,9999,1438922856
89,14,19,Jits_Linear_5,93,9999,9999,9999,1439582304
89,14,19,Jits_Linear_5,94,9999,9999,9999,1440242788
89,14,19,Jits_Linear_5,95,9999,9999,9999,1440912468
89,14,19,Jits_Linear_5,96,9999,9999,9999,1441582188
89,14,19,Jits_Linear_5,97,9999,9999,9999,1442252916
89,14,19,Jits_Linear_5,98,9999,9999,9999,1442922620
89,14,19,Jits_Linear_5,99,9999,9999,9999,1443592264
89,14,19,Jits_Linear_5,100,9999,9999,9999,1444272208
89,14,19,Jits_Linear_5,101,9999,9999,9999,1444952120
89,14,19,Jits_Linear_5,102,9999,9999,9999,1445632092
89,14,19,Jits_Linear_5,103,9999,9999,9999,1446313028
89,14,19,Jits_Linear_5,104,9999,9999,9999,1446992984
89,14,19,Jits_Linear_5,105,9999,9999,9999,1447682156
89,14,19,Jits_Linear_5,106,9999,9999,9999,1448372336
89,14,19,Jits_Linear_5,107,9999,9999,9999,1449062492
89,14,19,Jits_Linear_5,108,9999,9999,9999,1449752660
89,14,19,Jits_Linear_5,109,9999,9999,9999,1450442812
89,14,19,Jits_Linear_5,110,9999,9999,9999,1451142204
89,14,19,Jits_Linear_5,111,9999,9999,9999,1451842640
89,14,19,Jits_Linear_5,112,9999,9999,9999,1452543076
89,14,19,Jits_Linear_5,113,9999,9999,9999,1453242448
89,14,19,Jits_Linear_5,114,9999,9999,9999,1453942868
89,14,19,Jits_Linear_5,115,9999,9999,9999,1454652516
89,14,19,Jits_Linear_5,116,9999,9999,9999,1455362156
89,14,19,Jits_Linear_5,117,9999,9999,9999,1456072832
89,14,19,Jits_Linear_5,118,9999,9999,9999,1456782416
89,14,19,Jits_Linear_5,119,9999,9999,9999,1457493092
89,14,19,Jits_Linear_5,120,9999,9999,9999,1458212936
89,14,19,Jits_Linear_5,121,9999,9999,9999,1458932844
89,14,19,Jits_Linear_5,122,9999,9999,9999,1459652720
89,14,19,Jits_Linear_5,123,9999,9999,9999,1460372548
89,14,19,Jits_Linear_5,124,9999,9999,9999,1461092444
89,14,19,Jits_Linear_5,125,9999,9999,9999,1461822524
89,14,19,Jits_Linear_5,126,9999,9999,9999,1462552696
89,14,19,Jits_Linear_5,127,9999,9999,9999,1463282780
89,14,19,Jits_Linear_5,128,9999,9999,9999,1464012912
89,14,19,Jits_Linear_5,129,9999,9999,9999,1464743000
89,14,19,Jits_Linear_5,130,9999,9999,9999,1465482300
89,14,19,Jits_Linear_5,131,9999,9999,9999,1466222660
89,14,19,Jits_Linear_5,132,9999,9999,9999,1466963008
89,14,19,Jits_Linear_5,133,9999,9999,9999,1467702396
89,14,19,Jits_Linear_5,134,9999,9999,9999,1468442744
89,14,19,Jits_Linear_5,135,9999,9999,9999,1469192312
89,14,19,Jits_Linear_5,136,9999,9999,9999,1469942872
89,14,19,Jits_Linear_5,137,9999,9999,9999,1470692420
89,14,19,Jits_Linear_5,138,9999,9999,9999,1471443048
89,14,19,Jits_Linear_5,139,9999,9999,9999,1472192572
89,14,19,Jits_Linear_5,140,9999,9999,9999,1472952424
89,14,19,Jits_Linear_5,141,9999,9999,9999,1473712204
89,14,19,Jits_Linear_5,142,9999,9999,9999,1474473028
89,14,19,Jits_Linear_5,143,9999,9999,9999,1475232824
89,14,19,Jits_Linear_5,144,9999,9999,9999,1475992632
89,14,19,Jits_Linear_5,145,9999,9999,9999,1476762736
89,14,19,Jits_Linear_5,146,9999,9999,9999,1477532780
89,14,19,Jits_Linear_5,147,9999,9999,9999,1478302808
89,14,19,Jits_Linear_5,148,9999,9999,9999,1479072824
89,14,19,Jits_Linear_5,149,9999,9999,9999,1479842868
89,14,19,Jits_Linear_5,150,9999,9999,9999,1480622192
89,14,19,Jits_Linear_5,151,9999,9999,9999,1481402484
89,14,19,Jits_Linear_5,152,9999,9999,9999,1482182716
89,14,19,Jits_Linear_5,153,9999,9999,9999,1482963008
89,14,19,Jits_Linear_5,154,9999,9999,9999,1483742324
89,14,19,Jits_Linear_5,155,9999,9999,9999,1484532840
89,14,19,Jits_Linear_5,156,9999,9999,9999,1485322340
89,14,19,Jits_Linear_5,157,9999,9999,9999,1486112884
89,14,19,Jits_Linear_5,158,9999,9999,9999,1486902396
89,14,19,Jits_Linear_5,159,9999,9999,9999,1487692872
89,14,19,Jits_Linear_5,160,9999,9999,9999,1488492656
89,14,19,Jits_Linear_5,161,9999,9999,9999,1489292368
89,14,19,Jits_Linear_5,162,9999,9999,9999,1490092152
89,14,19,Jits_Linear_5,163,9999,9999,9999,1490892908
89,14,19,Jits_Linear_5,164,9999,9999,9999,1491692640
89,14,19,Jits_Linear_5,165,9999,9999,9999,1492502600
89,14,19,Jits_Linear_5,166,9999,9999,9999,1493312572
89,14,19,Jits_Linear_5,167,9999,9999,9999,1494122620
89,14,19,Jits_Linear_5,168,9999,9999,9999,1494932584
89,14,19,Jits_Linear_5,169,9999,9999,9999,1495742544
89,15,18,Jits_Linear_8,0,5,56,103,1506510244
89,15,18,Jits_Linear_8,1,5,63,98,1506513340
89,15,18,Jits_Linear_8,2,5,80,127,1506516612
89,15,18,Jits_Linear_8,0,5,56,103,1507330356
89,15,18,Jits_Linear_8,1,5,63,98,1507333380
89,15,18,Jits_Linear_8,2,5,80,127,1507336500
89,15,18,Jits_Linear_8,0,1,48,43,1508088400
89,15,18,Jits_Linear_8,1,5,80,127,1508090284
89,15,18,Jits_Linear_8,2,5,63,98,1508180632
89,15,18,Jits_Linear_8,3,5,56,103,1508189484
89,15,18,Jits_Linear_8,0,1,48,43,1508886480
89,15,18,Jits_Linear_8,1,5,56,103,1508929900
89,15,18,Jits_Linear_8,2,5,63,98,1508940096
89,15,18,Jits_Linear_8,3,5,80,127,1509030364
89,15,18,Jits_Linear_8,0,1,48,43,1509651252
89,15,18,Jits_Linear_8,1,5,63,98,1509720364
89,15,18,Jits_Linear_8,2,5,80,127,1509750324
89,15,18,Jits_Linear_8,3,5,56,103,1509779700
89,15,18,Jits_Linear_8,0,1,48,42,1510464932
89,15,18,Jits_Linear_8,1,5,56,103,1510539740
89,15,18,Jits_Linear_8,2,5,80,127,1510639852
89,15,18,Jits_Linear_8,3,5,63,98,1510690352
89,15,18,Jits_Linear_8,0,1,48,41,1511221160
89,15,18,Jits_Linear_8,1,5,56,103,1511349596
89,15,18,Jits_Linear_8,2,5,80,127,1511399648
89,15,18,Jits_Linear_8,3,5,63,98,1511439588
89,15,18,Jits_Linear_8,0,1,48,37,1511973824
89,15,18,Jits_Linear_8,1,5,80,127,1512190472
89,15,18,Jits_Linear_8,2,5,63,98,1512220000
89,15,18,Jits_Linear_8,3,5,56,103,1512289608
89,15,18,Jits_Linear_8,0,1,48,40,1512740100
89,15,18,Jits_Linear_8,1,5,63,98,1513029864
89,15,18,Jits_Linear_8,2,5,56,103,1513059912
89,15,18,Jits_Linear_8,3,5,80,127,1513120080
89,15,18,Jits_Linear_8,0,1,48,43,1513509584
89,15,18,Jits_Linear_8,1,5,56,103,1513779572
89,15,18,Jits_Linear_8,2,5,80,127,1513782712
89,15,18,Jits_Linear_8,3,5,63,98,1513900420
89,15,18,Jits_Linear_8,0,1,48,42,1514268268
89,15,18,Jits_Linear_8,1,5,56,103,1514660232
89,15,18,Jits_Linear_8,2,5,80,127,1514700248
89,15,18,Jits_Linear_8,3,5,63,98,1514710444
89,15,18,Jits_Linear_8,4,1,48,38,1515043228
89,15,18,Jits_Linear_8,0,5,56,103,1515420052
89,15,18,Jits_Linear_8,1,5,80,127,1515439464
89,15,18,Jits_Linear_8,2,5,63,98,1515520256
89,15,18,Jits_Linear_8,3,1,48,42,1515801784
89,15,18,Jits_Linear_8,0,5,80,127,1516209560
89,15,18,Jits_Linear_8,1,5,56,103,1516309836
89,15,18,Jits_Linear_8,2,5,63,98,1516320404
89,15,18,Jits_Linear_8,3,1,48,40,1516598036
89,15,18,Jits_Linear_8,0,5,63,98,1516979516
89,15,18,Jits_Linear_8,1,5,80,127,1517039860
89,15,18,Jits_Linear_8,2,5,56,103,1517050428
89,15,18,Jits_Linear_8,3,1,48,38,1517378400
89,15,18,Jits_Linear_8,0,5,56,103,1517780464
89,15,18,Jits_Linear_8,1,5,63,98,1517849944
89,15,18,Jits_Linear_8,2,5,80,127,1517853384
89,15,18,Jits_Linear_8,3,1,48,39,1518154984
89,15,18,Jits_Linear_8,0,5,63,98,1518609896
89,15,18,Jits_Linear_8,1,5,56,103,1518660100
89,15,18,Jits_Linear_8,2,5,80,127,1518663164
89,15,18,Jits_Linear_8,3,1,48,39,1518950240
89,15,18,Jits_Linear_8,0,5,56,103,1519360324
89,15,18,Jits_Linear_8,1,5,80,127,1519363388
89,15,18,Jits_Linear_8,2,5,63,98,1519449336
89,15,18,Jits_Linear_8,3,1,48,38,1519701044
89,15,18,Jits_Linear_8,0,5,63,98,1520189676
89,15,18,Jits_Linear_8,1,5,56,103,1520279960
89,15,18,Jits_Linear_8,2,5,80,127,1520309488
89,15,18,Jits_Linear_8,3,1,48,41,1520505820
89,15,18,Jits_Linear_8,0,5,56,103,1520970100
89,15,18,Jits_Linear_8,1,5,63,98,1521069308
89,15,18,Jits_Linear_8,2,5,80,127,1521100252
89,15,18,Jits_Linear_8,3,1,48,35,1521265576
89,15,18,Jits_Linear_8,0,5,63,98,1521780212
89,15,18,Jits_Linear_8,1,5,56,103,1521790336
89,15,18,Jits_Linear_8,2,5,80,127,1521880392
89,15,18,Jits_Linear_8,3,1,48,42,1522074408
89,15,18,Jits_Linear_8,0,5,63,98,1522590232
89,15,18,Jits_Linear_8,1,5,56,103,1522669824
89,15,18,Jits_Linear_8,2,5,80,127,1522673044
89,15,18,Jits_Linear_8,3,1,48,39,1522868332
89,15,18,Jits_Linear_8,0,5,80,127,1523330420
89,15,18,Jits_Linear_8,1,5,63,98,1523349832
89,15,18,Jits_Linear_8,2,5,56,103,1523410296
89,15,18,Jits_Linear_8,3,1,48,41,1523676004
89,15,18,Jits_Linear_8,0,5,56,103,1524149500
89,15,18,Jits_Linear_8,1,5,63,98,1524170180
89,15,18,Jits_Linear_8,2,5,80,127,1524173320
89,15,18,Jits_Linear_8,3,1,48,37,1524480424
89,15,18,Jits_Linear_8,0,5,63,98,1524869392
89,15,18,Jits_Linear_8,1,5,80,127,1524950460
89,15,18,Jits_Linear_8,2,5,56,103,1524959536
89,15,18,Jits_Linear_8,3,1,48,43,1525258548
89,15,18,Jits_Linear_8,0,1,48,20,1525338904
89,15,18,Jits_Linear_8,1,5,63,98,1525670288
89,15,18,Jits_Linear_8,2,5,56,103,1525689700
89,15,18,Jits_Linear_8,3,5,80,127,1525740076
89,15,18,Jits_Linear_8,4,1,48,43,1526076200
89,15,18,Jits_Linear_8,0,1,48,16,1526181072
89,15,18,Jits_Linear_8,1,5,80,127,1526449560
89,15,18,Jits_Linear_8,2,5,63,98,1526489576
89,15,18,Jits_Linear_8,3,5,56,103,1526510208
89,15,18,Jits_Linear_8,0,1,48,42,1526932796
89,15,18,Jits_Linear_8,1,5,56,103,1527259432
89,15,18,Jits_Linear_8,2,5,63,98,1527269780
89,15,18,Jits_Linear_8,3,5,80,127,1527290112
89,15,18,Jits_Linear_8,0,1,48,45,1527735020
89,15,18,Jits_Linear_8,1,5,56,103,1527960136
89,15,18,Jits_Linear_8,2,5,63,98,1528050152
89,15,18,Jits_Linear_8,3,5,80,127,1528109420
89,15,18,Jits_Linear_8,0,1,48,43,1528487496
89,15,18,Jits_Linear_8,1,5,80,127,1528759600
89,15,18,Jits_Linear_8,2,5,56,103,1528770020
89,15,18,Jits_Linear_8,3,5,63,98,1528839500
89,15,18,Jits_Linear_8,0,1,48,42,1529205212
89,15,18,Jits_Linear_8,1,5,63,98,1529560548
89,15,18,Jits_Linear_8,2,5,80,127,1529649440
89,15,18,Jits_Linear_8,3,5,56,103,1529659636
89,15,18,Jits_Linear_8,0,1,48,37,1530016436
89,15,18,Jits_Linear_8,1,5,63,98,1530260136
89,15,18,Jits_Linear_8,2,5,80,127,1530310192
89,15,18,Jits_Linear_8,3,5,56,103,1530370384
89,15,18,Jits_Linear_8,0,1,48,39,1530728124
89,15,18,Jits_Linear_8,1,5,56,103,1531050220
89,15,18,Jits_Linear_8,2,5,80,127,1531099452
89,15,18,Jits_Linear_8,3,5,63,98,1531120160
89,15,18,Jits_Linear_8,4,1,48,43,1531469260
89,15,18,Jits_Linear_8,0,5,56,103,1531789584
89,15,18,Jits_Linear_8,1,5,80,127,1531850200
89,15,18,Jits_Linear_8,2,5,63,98,1531919608
89,15,18,Jits_Linear_8,3,1,48,38,1532210720
89,15,18,Jits_Linear_8,0,5,56,103,1532549344
89,15,18,Jits_Linear_8,1,5,80,127,1532580364
89,15,18,Jits_Linear_8,2,5,63,98,1532610040
89,15,18,Jits_Linear_8,3,1,48,42,1532921260
89,15,18,Jits_Linear_8,0,5,56,103,1533350216
89,15,18,Jits_Linear_8,1,5,80,127,1533369700
89,15,18,Jits_Linear_8,2,5,63,98,1533430044
89,15,18,Jits_Linear_8,3,1,48,35,1533693136
89,15,18,Jits_Linear_8,0,5,80,127,1534190024
89,15,18,Jits_Linear_8,1,5,56,103,1534200368
89,15,18,Jits_Linear_8,2,5,63,98,1534210416
89,15,18,Jits_Linear_8,3,1,48,38,1534450968
89,15,18,Jits_Linear_8,0,5,56,103,1534899648
89,15,18,Jits_Linear_8,1,5,80,127,1534939516
89,15,18,Jits_Linear_8,2,5,63,98,1534970260
89,15,18,Jits_Linear_8,3,1,48,41,1535199252
89,15,18,Jits_Linear_8,0,5,56,103,1535619408
89,15,18,Jits_Linear_8,1,5,63,98,1535650280
89,15,18,Jits_Linear_8,2,5,80,127,1535690220
89,15,18,Jits_Linear_8,3,1,48,39,1535946116
89,15,18,Jits_Linear_8,0,5,80,127,1536320056
89,15,18,Jits_Linear_8,1,5,63,98,1536370112
89,15,18,Jits_Linear_8,2,5,56,103,1536389600
89,15,18,Jits_Linear_8,3,1,48,46,1536666468
89,15,18,Jits_Linear_8,0,5,56,103,1537100192
89,15,18,Jits_Linear_8,1,5,80,127,1537169728
89,15,18,Jits_Linear_8,2,5,63,98,1537230192
89,15,18,Jits_Linear_8,3,1,48,39,1537431332
89,15,18,Jits_Linear_8,0,5,80,127,1537849840
89,15,18,Jits_Linear_8,1,5,63,98,1537939756
89,15,18,Jits_Linear_8,2,5,56,103,1537960288
89,15,18,Jits_Linear_8,3,1,48,42,1538181584
89,15,18,Jits_Linear_8,0,5,63,98,1538609592
89,15,18,Jits_Linear_8,1,5,56,103,1538630048
89,15,18,Jits_Linear_8,2,5,80,127,1538670212
89,15,18,Jits_Linear_8,3,1,48,39,1538959304
89,15,18,Jits_Linear_8,0,5,80,127,1539310072
89,15,18,Jits_Linear_8,1,5,63,98,1539330456
89,15,18,Jits_Linear_8,2,5,56,103,1539410252
89,15,18,Jits_Linear_8,3,1,48,39,1539692448
89,15,18,Jits_Linear_8,0,5,63,98,1540040212
89,15,18,Jits_Linear_8,1,5,56,103,1540149552
89,15,18,Jits_Linear_8,2,5,80,127,1540152840
89,15,18,Jits_Linear_8,3,1,48,45,1540404328
89,15,18,Jits_Linear_8,0,5,63,98,1540799952
89,15,18,Jits_Linear_8,1,5,56,103,1540810144
89,15,18,Jits_Linear_8,2,5,80,127,1540813212
89,15,18,Jits_Linear_8,3,1,48,42,1541126444
89,15,18,Jits_Linear_8,0,5,56,103,1541519900
89,15,18,Jits_Linear_8,1,5,80,127,1541639580
89,15,18,Jits_Linear_8,2,5,63,98,1541679444
89,15,18,Jits_Linear_8,3,1,48,40,1541855384
89,15,18,Jits_Linear_8,0,5,56,103,1542270524
89,15,18,Jits_Linear_8,1,5,80,127,1542350172
89,15,18,Jits_Linear_8,2,5,63,98,1542369512
89,15,18,Jits_Linear_8,3,1,48,45,1542596336
89,15,18,Jits_Linear_8,0,5,56,103,1543000376
89,15,18,Jits_Linear_8,1,5,63,98,1543110216
89,15,18,Jits_Linear_8,2,5,80,127,1543113356
89,15,18,Jits_Linear_8,3,1,48,46,1543365744
89,15,18,Jits_Linear_8,0,5,56,103,1543760136
89,15,18,Jits_Linear_8,1,5,80,127,1543790184
89,15,18,Jits_Linear_8,2,5,63,98,1543810348
89,15,18,Jits_Linear_8,3,1,48,48,1544065420
89,15,18,Jits_Linear_8,0,5,63,98,1544470136
89,15,18,Jits_Linear_8,1,5,56,103,1544480260
89,15,18,Jits_Linear_8,2,5,80,127,1544490304
89,15,18,Jits_Linear_8,3,1,48,49,1544792652
89,15,18,Jits_Linear_8,0,5,80,127,1545179436
89,15,18,Jits_Linear_8,1,5,56,103,1545229664
89,15,18,Jits_Linear_8,2,5,63,98,1545269528
89,15,18,Jits_Linear_8,3,1,48,44,1545578096
89,15,18,Jits_Linear_8,0,5,80,127,1545920236
89,15,18,Jits_Linear_8,1,5,63,98,1545940400
89,15,18,Jits_Linear_8,2,5,56,103,1545989580
89,15,18,Jits_Linear_8,3,1,48,47,1546276188
89,15,18,Jits_Linear_8,0,5,80,127,1546649956
89,15,18,Jits_Linear_8,1,5,56,103,1546679636
89,15,18,Jits_Linear_8,2,5,63,98,1546750460
89,15,18,Jits_Linear_8,3,1,48,43,1547025908
89,15,18,Jits_Linear_8,0,5,56,103,1547420136
89,15,18,Jits_Linear_8,1,5,80,127,1547430332
89,15,18,Jits_Linear_8,2,5,63,98,1547470048
89,15,18,Jits_Linear_8,0,1,48,41,1547820768
89,15,18,Jits_Linear_8,1,5,56,103,1548050224
89,15,18,Jits_Linear_8,2,5,63,98,1548070236
89,15,18,Jits_Linear_8,3,5,80,127,1548139992
89,15,18,Jits_Linear_8,0,1,48,43,1548600000
89,15,18,Jits_Linear_8,1,5,63,98,1548790120
89,15,18,Jits_Linear_8,2,5,80,127,1548849464
89,15,18,Jits_Linear_8,3,5,56,103,1548870148
89,15,18,Jits_Linear_8,0,1,48,43,1549385588
89,15,18,Jits_Linear_8,1,5,80,127,1549489604
89,15,18,Jits_Linear_8,2,5,56,103,1549520180
89,15,18,Jits_Linear_8,3,5,63,98,1549550032
89,15,18,Jits_Linear_8,0,1,48,39,1550141000
89,15,18,Jits_Linear_8,1,5,56,103,1550200144
89,15,18,Jits_Linear_8,2,5,63,98,1550259624
89,15,18,Jits_Linear_8,3,5,80,127,1550320112
89,15,18,Jits_Linear_8,0,1,48,40,1550909072
89,15,18,Jits_Linear_8,1,5,80,127,1550930224
89,15,18,Jits_Linear_8,2,5,56,103,1550949784
89,15,18,Jits_Linear_8,3,5,63,98,1551020424
89,15,18,Jits_Linear_8,0,5,80,127,1551639932
89,15,18,Jits_Linear_8,1,1,48,45,1551651972
89,15,18,Jits_Linear_8,2,5,63,98,1551660312
89,15,18,Jits_Linear_8,3,5,56,103,1551690060
89,15,18,Jits_Linear_8,0,5,80,127,1552340260
89,15,18,Jits_Linear_8,1,5,63,98,1552360292
89,15,18,Jits_Linear_8,2,1,48,45,1552367224
89,15,18,Jits_Linear_8,3,5,56,103,1552420080
89,15,18,Jits_Linear_8,0,5,80,127,1553039856
89,15,18,Jits_Linear_8,1,1,48,40,1553086796
89,15,18,Jits_Linear_8,2,5,56,103,1553139976
89,15,18,Jits_Linear_8,3,5,63,98,1553169952
89,15,18,Jits_Linear_8,0,5,63,98,1553730096
89,15,18,Jits_Linear_8,1,5,80,127,1553780076
89,15,18,Jits_Linear_8,2,1,48,43,1553782824
89,15,18,Jits_Linear_8,3,5,56,103,1553799632
89,15,18,Jits_Linear_8,0,5,80,127,1554470140
89,15,18,Jits_Linear_8,1,1,48,43,1554474308
89,15,18,Jits_Linear_8,2,5,56,103,1554500032
89,15,18,Jits_Linear_8,3,5,63,98,1554503172
89,15,18,Jits_Linear_8,0,5,63,98,1555200232
89,15,18,Jits_Linear_8,1,1,48,45,1555207928
89,15,18,Jits_Linear_8,2,5,56,103,1555240240
89,15,18,Jits_Linear_8,3,5,80,127,1555259724
89,15,18,Jits_Linear_8,0,5,80,127,1555840308
89,15,18,Jits_Linear_8,1,5,63,98,1555920256
89,15,18,Jits_Linear_8,2,1,48,45,1555927576
89,15,18,Jits_Linear_8,3,5,56,103,1555960136
89,15,18,Jits_Linear_8,0,5,63,98,1556550028
89,15,18,Jits_Linear_8,1,5,80,127,1556629976
89,15,18,Jits_Linear_8,2,1,48,45,1556632944
89,15,18,Jits_Linear_8,3,5,56,103,1556650276
89,15,18,Jits_Linear_8,0,5,56,103,1557280040
89,15,18,Jits_Linear_8,1,5,63,98,1557290312
89,15,18,Jits_Linear_8,2,1,48,41,1557325712
89,15,18,Jits_Linear_8,3,5,80,127,1557330316
89,15,18,Jits_Linear_8,0,5,56,103,1557890532
89,15,18,Jits_Linear_8,1,5,80,127,1557893672
89,15,18,Jits_Linear_8,2,1,48,42,1557984896
89,15,18,Jits_Linear_8,3,5,63,98,1558029832
89,15,18,Jits_Linear_8,0,5,56,103,1558570644
89,15,18,Jits_Linear_8,1,5,63,98,1558659516
89,15,18,Jits_Linear_8,2,5,80,127,1558730092
89,15,18,Jits_Linear_8,3,1,48,38,1558754336
89,15,18,Jits_Linear_8,0,5,63,98,1559330116
89,15,18,Jits_Linear_8,1,5,80,127,1559333700
89,15,18,Jits_Linear_8,2,5,56,103,1559389832
89,15,18,Jits_Linear_8,3,1,48,35,1559428088
89,15,18,Jits_Linear_8,0,5,80,127,1560050008
89,15,18,Jits_Linear_8,1,5,56,103,1560069420
89,15,18,Jits_Linear_8,2,5,63,98,1560079840
89,15,18,Jits_Linear_8,3,1,48,36,1560122960
89,15,18,Jits_Linear_8,0,5,56,103,1560639976
89,15,18,Jits_Linear_8,1,5,63,98,1560650172
89,15,18,Jits_Linear_8,2,5,80,127,1560719708
89,15,18,Jits_Linear_8,3,1,48,32,1560785520
89,15,18,Jits_Linear_8,0,5,80,127,1561319948
89,15,18,Jits_Linear_8,1,5,56,103,1561370004
89,15,18,Jits_Linear_8,2,5,63,98,1561420204
89,15,18,Jits_Linear_8,3,1,48,30,1561498092
89,15,18,Jits_Linear_8,0,5,56,103,1562079764
89,15,18,Jits_Linear_8,1,5,63,98,1562089840
89,15,18,Jits_Linear_8,2,5,80,127,1562129924
89,15,18,Jits_Linear_8,3,1,48,38,1562167884
89,15,18,Jits_Linear_8,0,5,56,103,1562700108
89,15,18,Jits_Linear_8,1,5,63,98,1562740048
89,15,18,Jits_Linear_8,2,5,80,127,1562790400
89,15,18,Jits_Linear_8,3,1,48,32,1562900824
89,15,18,Jits_Linear_8,0,5,80,127,1563329936
89,15,18,Jits_Linear_8,1,5,56,103,1563380016
89,15,18,Jits_Linear_8,2,5,63,98,1563399724
89,15,18,Jits_Linear_8,3,1,48,39,1563551776
89,15,18,Jits_Linear_8,0,5,80,127,1564009832
89,15,18,Jits_Linear_8,1,5,63,98,1564070372
89,15,18,Jits_Linear_8,2,5,56,103,1564150268
89,15,18,Jits_Linear_8,3,1,48,27,1564285980
89,15,18,Jits_Linear_8,0,5,80,127,1564660060
89,15,18,Jits_Linear_8,1,5,56,103,1564699928
89,15,18,Jits_Linear_8,2,5,63,98,1564719416
89,15,18,Jits_Linear_8,3,1,48,33,1564994564
89,15,18,Jits_Linear_8,0,5,56,103,1565379864
89,15,18,Jits_Linear_8,1,5,80,127,1565390060
89,15,18,Jits_Linear_8,2,5,63,98,1565430024
89,15,18,Jits_Linear_8,3,1,48,36,1565707272
89,15,18,Jits_Linear_8,0,5,56,103,1566109964
89,15,18,Jits_Linear_8,1,5,63,98,1566149976
89,15,18,Jits_Linear_8,2,5,80,127,1566153188
89,15,18,Jits_Linear_8,0,1,48,39,1566420364
89,15,18,Jits_Linear_8,1,5,63,98,1566659932
89,15,18,Jits_Linear_8,2,5,80,127,1566699820
89,15,18,Jits_Linear_8,3,5,56,103,1566769724
89,15,18,Jits_Linear_8,0,1,48,43,1567131936
89,15,18,Jits_Linear_8,1,5,63,98,1567310144
89,15,18,Jits_Linear_8,2,5,56,103,1567390088
89,15,18,Jits_Linear_8,3,5,80,127,1567449656
89,15,18,Jits_Linear_8,0,1,48,43,1567805292
89,15,18,Jits_Linear_8,1,5,80,127,1567979836
89,15,18,Jits_Linear_8,2,5,63,98,1568030040
89,15,18,Jits_Linear_8,3,5,56,103,1568059716
89,15,18,Jits_Linear_8,0,1,48,35,1568478720
89,15,18,Jits_Linear_8,1,5,56,103,1568630024
89,15,18,Jits_Linear_8,2,5,63,98,1568680228
89,15,18,Jits_Linear_8,3,5,80,127,1568689452
89,15,18,Jits_Linear_8,0,1,48,42,1569150728
89,15,18,Jits_Linear_8,1,5,56,103,1569299864
89,15,18,Jits_Linear_8,2,5,63,98,1569410676
89,15,18,Jits_Linear_8,3,5,80,127,1569429792
89,15,18,Jits_Linear_8,0,1,48,37,1569851896
89,15,18,Jits_Linear_8,1,5,63,98,1569950208
89,15,18,Jits_Linear_8,2,5,80,127,1570000188
89,15,18,Jits_Linear_8,3,5,56,103,1570090496
89,15,18,Jits_Linear_8,0,1,48,34,1570569024
89,15,18,Jits_Linear_8,1,5,63,98,1570590024
89,15,18,Jits_Linear_8,2,5,80,127,1570619704
89,15,18,Jits_Linear_8,3,5,56,103,1570709820
89,15,18,Jits_Linear_8,0,5,63,98,1571240516
89,15,18,Jits_Linear_8,1,5,56,103,1571249668
89,15,18,Jits_Linear_8,2,1,48,33,1571257960
89,15,18,Jits_Linear_8,3,5,80,127,1571349992
89,15,18,Jits_Linear_8,0,1,48,32,1571953552
89,15,18,Jits_Linear_8,1,5,63,98,1571989848
89,15,18,Jits_Linear_8,2,5,80,127,1572019748
89,15,18,Jits_Linear_8,3,5,56,103,1572050248
89,15,18,Jits_Linear_8,0,5,80,127,1572650568
89,15,18,Jits_Linear_8,1,5,63,98,1572659792
89,15,18,Jits_Linear_8,2,1,48,44,1572667788
89,15,18,Jits_Linear_8,3,5,56,103,1572690432
89,15,18,Jits_Linear_8,0,5,80,127,1573190048
89,15,18,Jits_Linear_8,1,5,63,98,1573209612
89,15,18,Jits_Linear_8,2,5,56,103,1573259588
89,15,18,Jits_Linear_8,3,1,48,38,1573367996
89,15,18,Jits_Linear_8,0,5,63,98,1573859584
89,15,18,Jits_Linear_8,1,5,80,127,1573920076
89,15,18,Jits_Linear_8,2,5,56,103,1573939636
89,15,18,Jits_Linear_8,3,1,48,35,1574116920
89,15,18,Jits_Linear_8,0,5,63,98,1574459736
89,15,18,Jits_Linear_8,1,5,56,103,1574509788
89,15,18,Jits_Linear_8,2,5,80,127,1574520280
89,15,18,Jits_Linear_8,3,1,48,38,1574811172
89,15,18,Jits_Linear_8,0,5,56,103,1575129476
89,15,18,Jits_Linear_8,1,5,80,127,1575139820
89,15,18,Jits_Linear_8,2,5,63,98,1575240016
89,15,18,Jits_Linear_8,0,1,48,44,1575499440
89,15,18,Jits_Linear_8,1,5,80,127,1575729516
89,15,18,Jits_Linear_8,2,5,63,98,1575739864
89,15,18,Jits_Linear_8,3,5,56,103,1575890156
89,15,18,Jits_Linear_8,0,1,48,35,1576225340
89,15,18,Jits_Linear_8,1,5,63,98,1576369516
89,15,18,Jits_Linear_8,2,5,80,127,1576409680
89,15,18,Jits_Linear_8,3,5,56,103,1576490620
89,15,18,Jits_Linear_8,0,1,48,42,1576899892
89,15,18,Jits_Linear_8,1,5,56,103,1576990000
89,15,18,Jits_Linear_8,2,5,80,127,1577090532
89,15,18,Jits_Linear_8,3,5,63,98,1577109872
89,15,18,Jits_Linear_8,0,1,48,41,1577623756
89,15,18,Jits_Linear_8,1,5,80,127,1577680204
89,15,18,Jits_Linear_8,2,5,56,103,1577689428
89,15,18,Jits_Linear_8,3,5,63,98,1577779644
89,15,18,Jits_Linear_8,0,5,56,103,1578309904
89,15,18,Jits_Linear_8,1,1,48,36,1578324404
89,15,18,Jits_Linear_8,2,5,63,98,1578329608
89,15,18,Jits_Linear_8,3,5,80,127,1578410448
89,15,18,Jits_Linear_8,0,5,63,98,1578880540
89,15,18,Jits_Linear_8,1,5,56,103,1578969628
89,15,18,Jits_Linear_8,2,5,80,127,1578972692
89,15,18,Jits_Linear_8,3,1,48,36,1579006324
89,15,18,Jits_Linear_8,0,5,56,103,1579529548
89,15,18,Jits_Linear_8,1,5,80,127,1579590016
89,15,18,Jits_Linear_8,2,5,63,98,1579600436
89,15,18,Jits_Linear_8,3,1,48,17,1579680048
89,15,18,Jits_Linear_8,0,5,80,127,1580200360
89,15,18,Jits_Linear_8,1,5,56,103,1580209508
89,15,18,Jits_Linear_8,2,5,63,98,1580212572
89,15,18,Jits_Linear_8,3,1,48,45,1580277588
89,15,18,Jits_Linear_8,0,5,56,103,1580779784
89,15,18,Jits_Linear_8,1,5,80,127,1580790128
89,15,18,Jits_Linear_8,2,5,63,98,1580809616
89,15,18,Jits_Linear_8,3,1,48,38,1580892592
89,15,18,Jits_Linear_8,0,5,63,98,1581369824
89,15,18,Jits_Linear_8,1,5,80,127,1581430068
89,15,18,Jits_Linear_8,2,5,56,103,1581480420
89,15,18,Jits_Linear_8,3,1,48,44,1581539732
89,15,18,Jits_Linear_8,0,5,63,98,1582070020
89,15,18,Jits_Linear_8,1,5,56,103,1582080512
89,15,18,Jits_Linear_8,2,1,48,43,1582102964
89,15,18,Jits_Linear_8,3,5,80,127,1582129588
89,15,18,Jits_Linear_8,0,5,63,98,1582580040
89,15,18,Jits_Linear_8,1,5,80,127,1582599748
89,15,18,Jits_Linear_8,2,5,56,103,1582609796
89,15,18,Jits_Linear_8,3,1,48,37,1582714420
89,15,18,Jits_Linear_8,0,5,63,98,1583190668
89,15,18,Jits_Linear_8,1,5,80,127,1583193800
89,15,18,Jits_Linear_8,2,5,56,103,1583230376
89,15,18,Jits_Linear_8,3,1,48,36,1583333508
89,15,18,Jits_Linear_8,0,5,63,98,1583870684
89,15,18,Jits_Linear_8,1,5,80,127,1583900064
89,15,18,Jits_Linear_8,2,5,56,103,1583910408
89,15,18,Jits_Linear_8,3,1,48,40,1583979984
89,15,18,Jits_Linear_8,0,5,56,103,1584429480
89,15,18,Jits_Linear_8,1,5,80,127,1584460276
89,15,18,Jits_Linear_8,2,5,63,98,1584489952
89,15,18,Jits_Linear_8,3,1,48,40,1584690500
89,15,18,Jits_Linear_8,0,5,63,98,1585129836
89,15,18,Jits_Linear_8,1,5,56,103,1585169848
89,15,18,Jits_Linear_8,2,5,80,127,1585172764
89,15,18,Jits_Linear_8,0,1,48,35,1585448168
89,15,18,Jits_Linear_8,1,5,80,127,1585629568
89,15,18,Jits_Linear_8,2,5,56,103,1585709468
89,15,18,Jits_Linear_8,3,5,63,98,1585759596
89,15,18,Jits_Linear_8,0,1,48,42,1586129084
89,15,18,Jits_Linear_8,1,5,80,127,1586210052
89,15,18,Jits_Linear_8,2,5,56,103,1586229672
89,15,18,Jits_Linear_8,3,5,63,98,1586319656
89,15,18,Jits_Linear_8,0,1,48,33,1586799680
89,15,18,Jits_Linear_8,1,5,80,127,1586850124
89,15,18,Jits_Linear_8,2,5,63,98,1586890064
89,15,18,Jits_Linear_8,3,5,56,103,1586930012
89,15,18,Jits_Linear_8,0,5,63,98,1587419556
89,15,18,Jits_Linear_8,1,1,48,37,1587425668
89,15,18,Jits_Linear_8,2,5,80,127,1587479892
89,15,18,Jits_Linear_8,3,5,56,103,1587509568
89,15,18,Jits_Linear_8,0,1,48,36,1587986188
89,15,18,Jits_Linear_8,1,5,56,103,1588019496
89,15,18,Jits_Linear_8,2,5,80,127,1588050292
89,15,18,Jits_Linear_8,3,5,63,98,1588140708
89,15,18,Jits_Linear_8,0,5,56,103,1588619568
89,15,18,Jits_Linear_8,1,1,48,32,1588641716
89,15,18,Jits_Linear_8,2,5,80,127,1588730328
89,15,18,Jits_Linear_8,3,5,63,98,1588759912
89,15,18,Jits_Linear_8,0,5,56,103,1589259768
89,15,18,Jits_Linear_8,1,1,48,30,1589282892
89,15,18,Jits_Linear_8,2,5,63,98,1589320152
89,15,18,Jits_Linear_8,3,5,80,127,1589349680
89,15,18,Jits_Linear_8,0,5,56,103,1589819848
89,15,18,Jits_Linear_8,1,1,48,33,1589857812
89,15,18,Jits_Linear_8,2,5,63,98,1589890496
89,15,18,Jits_Linear_8,3,5,80,127,1589909832
89,15,18,Jits_Linear_8,0,5,80,127,1590379924
89,15,18,Jits_Linear_8,1,5,63,98,1590400312
89,15,18,Jits_Linear_8,2,5,56,103,1590449540
89,15,18,Jits_Linear_8,3,1,48,40,1590459560
89,15,18,Jits_Linear_8,0,5,63,98,1590979932
89,15,18,Jits_Linear_8,1,5,80,127,1590990276
89,15,18,Jits_Linear_8,2,1,48,40,1591032528
89,15,18,Jits_Linear_8,3,5,56,103,1591040420
89,15,18,Jits_Linear_8,0,5,63,98,1591559572
89,15,18,Jits_Linear_8,1,1,48,40,1591596472
89,15,18,Jits_Linear_8,2,5,80,127,1591630444
89,15,18,Jits_Linear_8,3,5,56,103,1591649708
89,15,18,Jits_Linear_8,0,5,63,98,1592169836
89,15,18,Jits_Linear_8,1,5,80,127,1592172976
89,15,18,Jits_Linear_8,2,1,48,42,1592208244
89,15,18,Jits_Linear_8,3,5,56,103,1592239512
89,15,18,Jits_Linear_8,0,5,80,127,1592700444
89,15,18,Jits_Linear_8,1,5,56,103,1592719636
89,15,18,Jits_Linear_8,2,5,63,98,1592729832
89,15,18,Jits_Linear_8,3,1,48,39,1592798432
89,15,18,Jits_Linear_8,0,5,56,103,1593300516
89,15,18,Jits_Linear_8,1,1,48,34,1593371844
89,15,18,Jits_Linear_8,2,5,63,98,1593389472
89,15,18,Jits_Linear_8,3,5,80,127,1593392612
89,15,18,Jits_Linear_8,0,5,80,127,1593850348
89,15,18,Jits_Linear_8,1,5,56,103,1593859424
89,15,18,Jits_Linear_8,2,5,63,98,1593879884
89,15,18,Jits_Linear_8,3,1,48,39,1593933116
89,15,18,Jits_Linear_8,0,5,63,98,1594419484
89,15,18,Jits_Linear_8,1,5,80,127,1594480248
89,15,18,Jits_Linear_8,2,1,48,37,1594482112
89,15,18,Jits_Linear_8,3,5,56,103,1594490216
89,15,18,Jits_Linear_8,0,5,63,98,1595059632
89,15,18,Jits_Linear_8,1,1,48,42,1595072264
89,15,18,Jits_Linear_8,2,5,80,127,1595090496
89,15,18,Jits_Linear_8,3,5,56,103,1595130164
89,15,18,Jits_Linear_8,0,5,56,103,1595619624
89,15,18,Jits_Linear_8,1,5,80,127,1595629920
89,15,18,Jits_Linear_8,2,1,48,39,1595639116
89,15,18,Jits_Linear_8,3,5,63,98,1595670004
89,15,18,Jits_Linear_8,0,5,80,127,1596150356
89,15,18,Jits_Linear_8,1,1,48,36,1596224048
89,15,18,Jits_Linear_8,2,5,56,103,1596230148
89,15,18,Jits_Linear_8,3,5,63,98,1596240420
89,15,18,Jits_Linear_8,0,5,80,127,1596760488
89,15,18,Jits_Linear_8,1,1,48,39,1596798524
89,15,18,Jits_Linear_8,2,5,56,103,1596840500
89,15,18,Jits_Linear_8,3,5,63,98,1596849504
89,15,18,Jits_Linear_8,0,5,80,127,1597279516
89,15,18,Jits_Linear_8,1,5,56,103,1597329720
89,15,18,Jits_Linear_8,2,5,63,98,1597379920
89,15,18,Jits_Linear_8,3,1,48,39,1597381860
89,15,18,Jits_Linear_8,0,5,56,103,1597900436
89,15,18,Jits_Linear_8,1,5,63,98,1597903272
89,15,18,Jits_Linear_8,2,1,48,40,1597925344
89,15,18,Jits_Linear_8,3,5,80,127,1597950400
89,15,18,Jits_Linear_8,0,5,56,103,1598479688
89,15,18,Jits_Linear_8,1,1,48,39,1598491424
89,15,18,Jits_Linear_8,2,5,63,98,1598509508
89,15,18,Jits_Linear_8,3,5,80,127,1598519632
89,15,18,Jits_Linear_8,0,5,63,98,1598950004
89,15,18,Jits_Linear_8,1,5,56,103,1599020664
89,15,18,Jits_Linear_8,2,1,48,36,1599066332
89,15,18,Jits_Linear_8,3,5,80,127,1599069512
89,15,18,Jits_Linear_8,0,5,63,98,1599539520
89,15,18,Jits_Linear_8,1,5,56,103,1599549788
89,15,18,Jits_Linear_8,2,5,80,127,1599552856
89,15,18,Jits_Linear_8,3,1,48,39,1599622576
89,15,18,Jits_Linear_8,0,5,80,127,1600040304
89,15,18,Jits_Linear_8,1,5,56,103,1600099724
89,15,18,Jits_Linear_8,2,1,48,34,1600184948
89,15,18,Jits_Linear_8,3,5,63,98,1600189776
89,15,18,Jits_Linear_8,0,5,80,127,1600590560
89,15,18,Jits_Linear_8,1,5,56,103,1600689544
89,15,18,Jits_Linear_8,2,5,63,98,1600729408
89,15,18,Jits_Linear_8,3,1,48,38,1600789188
89,15,18,Jits_Linear_8,0,5,56,103,1601190204
89,15,18,Jits_Linear_8,1,5,63,98,1601209692
89,15,18,Jits_Linear_8,2,5,80,127,1601249628
89,15,18,Jits_Linear_8,3,1,48,38,1601438484
89,15,18,Jits_Linear_8,0,5,63,98,1601709376
89,15,18,Jits_Linear_8,1,5,56,103,1601729760
89,15,18,Jits_Linear_8,2,5,80,127,1601830256
89,15,18,Jits_Linear_8,3,1,48,34,1601946036
89,15,18,Jits_Linear_8,0,5,63,98,1602239840
89,15,18,Jits_Linear_8,1,5,80,127,1602349408
89,15,18,Jits_Linear_8,2,5,56,103,1602380204
89,15,18,Jits_Linear_8,0,1,48,33,1602598808
89,15,18,Jits_Linear_8,1,5,56,103,1602800016
89,15,18,Jits_Linear_8,2,5,63,98,1602829692
89,15,18,Jits_Linear_8,3,5,80,127,1602879968
89,15,18,Jits_Linear_8,0,1,48,37,1603253044
89,15,18,Jits_Linear_8,1,5,63,98,1603310040
89,15,18,Jits_Linear_8,2,5,56,103,1603339568
89,15,18,Jits_Linear_8,3,5,80,127,1603389904
89,15,18,Jits_Linear_8,0,5,56,103,1603880292
89,15,18,Jits_Linear_8,1,5,63,98,1603899780
89,15,18,Jits_Linear_8,2,1,48,37,1603918940
89,15,18,Jits_Linear_8,3,5,80,127,1603979568
89,15,18,Jits_Linear_8,0,5,63,98,1604390248
89,15,18,Jits_Linear_8,1,1,48,41,1604428812
89,15,18,Jits_Linear_8,2,5,56,103,1604449588
89,15,18,Jits_Linear_8,3,5,80,127,1604480456
89,15,18,Jits_Linear_8,0,1,48,38,1604962036
89,15,18,Jits_Linear_8,1,5,56,103,1604969784
89,15,18,Jits_Linear_8,2,5,80,127,1605030400
89,15,18,Jits_Linear_8,3,5,63,98,1605070248
89,15,18,Jits_Linear_8,0,5,63,98,1605479660
89,15,18,Jits_Linear_8,1,1,48,36,1605536264
89,15,18,Jits_Linear_8,2,5,56,103,1605540420
89,15,18,Jits_Linear_8,3,5,80,127,1605609976
89,15,18,Jits_Linear_8,0,5,56,103,1606090372
89,15,18,Jits_Linear_8,1,5,63,98,1606100268
89,15,18,Jits_Linear_8,2,5,80,127,1606103632
89,15,18,Jits_Linear_8,3,1,48,29,1606132628
89,15,18,Jits_Linear_8,0,5,63,98,1606560240
89,15,18,Jits_Linear_8,1,5,56,103,1606619436
89,15,18,Jits_Linear_8,2,5,80,127,1606622500
89,15,18,Jits_Linear_8,3,1,48,25,1606719820
89,15,18,Jits_Linear_8,0,5,63,98,1607070096
89,15,18,Jits_Linear_8,1,5,80,127,1607099696
89,15,18,Jits_Linear_8,2,5,56,103,1607120304
89,15,18,Jits_Linear_8,3,1,48,33,1607321224
89,15,18,Jits_Linear_8,0,5,56,103,1607599432
89,15,18,Jits_Linear_8,1,5,63,98,1607649636
89,15,18,Jits_Linear_8,2,5,80,127,1607729456
89,15,18,Jits_Linear_8,0,1,48,29,1607936372
89,15,18,Jits_Linear_8,1,5,80,127,1608100400
89,15,18,Jits_Linear_8,2,5,63,98,1608140268
89,15,18,Jits_Linear_8,3,5,56,103,1608159680
89,15,18,Jits_Linear_8,0,1,48,35,1608550616
89,15,18,Jits_Linear_8,1,5,56,103,1608690084
89,15,18,Jits_Linear_8,2,5,80,127,1608700204
89,15,18,Jits_Linear_8,3,5,63,98,1608719692
89,15,18,Jits_Linear_8,0,1,48,36,1609166340
89,15,18,Jits_Linear_8,1,5,56,103,1609189780
89,15,18,Jits_Linear_8,2,5,63,98,1609240132
89,15,18,Jits_Linear_8,3,5,80,127,1609269640
89,15,18,Jits_Linear_8,0,5,56,103,1609659844
89,15,18,Jits_Linear_8,1,5,63,98,1609670340
89,15,18,Jits_Linear_8,2,5,80,127,1609720340
89,15,18,Jits_Linear_8,3,1,48,30,1609774400
89,15,18,Jits_Linear_8,0,5,56,103,1610169564
89,15,18,Jits_Linear_8,1,5,80,127,1610172708
89,15,18,Jits_Linear_8,2,1,48,38,1610272128
89,15,18,Jits_Linear_8,3,5,63,98,1610329320
89,15,18,Jits_Linear_8,0,5,63,98,1610700120
89,15,18,Jits_Linear_8,1,5,56,103,1610769752
89,15,18,Jits_Linear_8,2,1,48,30,1610791752
89,15,18,Jits_Linear_8,3,5,80,127,1610809612
89,15,18,Jits_Linear_8,0,5,63,98,1611250024
89,15,18,Jits_Linear_8,1,1,48,35,1611300720
89,15,18,Jits_Linear_8,2,5,56,103,1611340300
89,15,18,Jits_Linear_8,3,5,80,127,1611343292
89,15,18,Jits_Linear_8,0,5,56,103,1611749624
89,15,18,Jits_Linear_8,1,5,63,98,1611839984
89,15,18,Jits_Linear_8,2,1,48,38,1611850476
89,15,18,Jits_Linear_8,3,5,80,127,1611851664
89,15,18,Jits_Linear_8,0,5,56,103,1612230264
89,15,18,Jits_Linear_8,1,5,63,98,1612280120
89,15,18,Jits_Linear_8,2,5,80,127,1612310020
89,15,18,Jits_Linear_8,3,1,48,36,1612386096
89,15,18,Jits_Linear_8,0,5,63,98,1612809552
89,15,18,Jits_Linear_8,1,5,80,127,1612819824
89,15,18,Jits_Linear_8,2,1,48,36,1612870368
89,15,18,Jits_Linear_8,3,5,56,103,1612880280
89,15,18,Jits_Linear_8,0,5,63,98,1613229488
89,15,18,Jits_Linear_8,1,5,80,127,1613290128
89,15,18,Jits_Linear_8,2,5,56,103,1613329768
89,15,18,Jits_Linear_8,3,1,48,27,1613412672
89,15,18,Jits_Linear_8,0,5,56,103,1613829512
89,15,18,Jits_Linear_8,1,5,80,127,1613850196
89,15,18,Jits_Linear_8,2,5,63,98,1613869384
89,15,18,Jits_Linear_8,3,1,48,31,1613912804
89,15,18,Jits_Linear_8,0,5,63,98,1614250284
89,15,18,Jits_Linear_8,1,5,56,103,1614269696
89,15,18,Jits_Linear_8,2,5,80,127,1614309660
89,15,18,Jits_Linear_8,0,1,48,32,1614566904
89,15,18,Jits_Linear_8,1,5,63,98,1614760232
89,15,18,Jits_Linear_8,2,5,80,127,1614790280
89,15,18,Jits_Linear_8,3,5,56,103,1614809320
89,15,18,Jits_Linear_8,0,1,48,40,1615152232
89,15,18,Jits_Linear_8,1,5,80,127,1615230252
89,15,18,Jits_Linear_8,2,5,56,103,1615279468
89,15,18,Jits_Linear_8,3,5,63,98,1615339884
89,15,18,Jits_Linear_8,0,5,63,98,1615709484
89,15,18,Jits_Linear_8,1,1,48,36,1615732832
89,15,18,Jits_Linear_8,2,5,56,103,1615830464
89,15,18,Jits_Linear_8,3,5,80,127,1615860312
89,15,18,Jits_Linear_8,0,5,80,127,1616240184
89,15,18,Jits_Linear_8,1,5,63,98,1616259372
89,15,18,Jits_Linear_8,2,1,48,34,1616329952
89,15,18,Jits_Linear_8,3,5,56,103,1616331364
89,15,18,Jits_Linear_8,0,5,63,98,1616750140
89,15,18,Jits_Linear_8,1,5,56,103,1616760188
89,15,18,Jits_Linear_8,2,5,80,127,1616840132
89,15,18,Jits_Linear_8,3,1,48,35,1616896828
89,15,18,Jits_Linear_8,0,5,56,103,1617299796
89,15,18,Jits_Linear_8,1,5,80,127,1617329400
89,15,18,Jits_Linear_8,2,5,63,98,1617339892
89,15,18,Jits_Linear_8,3,1,48,42,1617457288
89,15,18,Jits_Linear_8,0,9999,9999,9999,1506917504
89,15,18,Jits_Linear_8,1,9999,9999,9999,1507737664
89,15,18,Jits_Linear_8,2,9999,9999,9999,1508557896
89,15,18,Jits_Linear_8,3,9999,9999,9999,1509377080
89,15,18,Jits_Linear_8,4,9999,9999,9999,1510197356
89,15,18,Jits_Linear_8,5,9999,9999,9999,1511007300
89,15,18,Jits_Linear_8,6,9999,9999,9999,1511817288
89,15,18,Jits_Linear_8,7,9999,9999,9999,1512627308
89,15,18,Jits_Linear_8,8,9999,9999,9999,1513437256
89,15,18,Jits_Linear_8,9,9999,9999,9999,1514247284
89,15,18,Jits_Linear_8,10,9999,9999,9999,1515048012
89,15,18,Jits_Linear_8,11,9999,9999,9999,1515847764
89,15,18,Jits_Linear_8,12,9999,9999,9999,1516647536
89,15,18,Jits_Linear_8,13,9999,9999,9999,1517447228
89,15,18,Jits_Linear_8,14,9999,9999,9999,1518248016
89,15,18,Jits_Linear_8,15,9999,9999,9999,1519037496
89,15,18,Jits_Linear_8,16,9999,9999,9999,1519828060
89,15,18,Jits_Linear_8,17,9999,9999,9999,1520617596
89,15,18,Jits_Linear_8,18,9999,9999,9999,1521408064
89,15,18,Jits_Linear_8,19,9999,9999,9999,1522207832
89,15,18,Jits_Linear_8,20,9999,9999,9999,1522987128
89,15,18,Jits_Linear_8,21,9999,9999,9999,1523767416
89,15,18,Jits_Linear_8,22,9999,9999,9999,1524547680
89,15,18,Jits_Linear_8,23,9999,9999,9999,1525327968
89,15,18,Jits_Linear_8,24,9999,9999,9999,1526107212
89,15,18,Jits_Linear_8,25,9999,9999,9999,1526877280
89,15,18,Jits_Linear_8,26,9999,9999,9999,1527647288
89,15,18,Jits_Linear_8,27,9999,9999,9999,1528417376
89,15,18,Jits_Linear_8,28,9999,9999,9999,1529187388
89,15,18,Jits_Linear_8,29,9999,9999,9999,1529957480
89,15,18,Jits_Linear_8,30,9999,9999,9999,1530717300
89,15,18,Jits_Linear_8,31,9999,9999,9999,1531478084
89,15,18,Jits_Linear_8,32,9999,9999,9999,1532247116
89,15,18,Jits_Linear_8,33,9999,9999,9999,1533007992
89,15,18,Jits_Linear_8,34,9999,9999,9999,1533767736
89,15,18,Jits_Linear_8,35,9999,9999,9999,1534517324
89,15,18,Jits_Linear_8,36,9999,9999,9999,1535267952
89,15,18,Jits_Linear_8,37,9999,9999,9999,1536017528
89,15,18,Jits_Linear_8,38,9999,9999,9999,1536768056
89,15,18,Jits_Linear_8,39,9999,9999,9999,1537527892
89,15,18,Jits_Linear_8,40,9999,9999,9999,1538267196
89,15,18,Jits_Linear_8,41,9999,9999,9999,1539007608
89,15,18,Jits_Linear_8,42,9999,9999,9999,1539747944
89,15,18,Jits_Linear_8,43,9999,9999,9999,1540487248
89,15,18,Jits_Linear_8,44,9999,9999,9999,1541227632
89,15,18,Jits_Linear_8,45,9999,9999,9999,1541957716
89,15,18,Jits_Linear_8,46,9999,9999,9999,1542687828
89,15,18,Jits_Linear_8,47,9999,9999,9999,1543417972
89,15,18,Jits_Linear_8,48,9999,9999,9999,1544148040
89,15,18,Jits_Linear_8,49,9999,9999,9999,1544877144
89,15,18,Jits_Linear_8,50,9999,9999,9999,1545598080
89,15,18,Jits_Linear_8,51,9999,9999,9999,1546317908
89,15,18,Jits_Linear_8,52,9999,9999,9999,1547037812
89,15,18,Jits_Linear_8,53,9999,9999,9999,1547757656
89,15,18,Jits_Linear_8,54,9999,9999,9999,1548477540
89,15,18,Jits_Linear_8,55,9999,9999,9999,1549187172
89,15,18,Jits_Linear_8,56,9999,9999,9999,1549897844
89,15,18,Jits_Linear_8,57,9999,9999,9999,1550607472
89,15,18,Jits_Linear_8,58,9999,9999,9999,1551318120
89,15,18,Jits_Linear_8,59,9999,9999,9999,1552038008
89,15,18,Jits_Linear_8,60,9999,9999,9999,1552737388
89,15,18,Jits_Linear_8,61,9999,9999,9999,1553437816
89,15,18,Jits_Linear_8,62,9999,9999,9999,1554137168
89,15,18,Jits_Linear_8,63,9999,9999,9999,1554837572
89,15,18,Jits_Linear_8,64,9999,9999,9999,1555538004
89,15,18,Jits_Linear_8,65,9999,9999,9999,1556227180
89,15,18,Jits_Linear_8,66,9999,9999,9999,1556917320
89,15,18,Jits_Linear_8,67,9999,9999,9999,1557607548
89,15,18,Jits_Linear_8,68,9999,9999,9999,1558297696
89,15,18,Jits_Linear_8,69,9999,9999,9999,1558987836
89,15,18,Jits_Linear_8,70,9999,9999,9999,1559667804
89,15,18,Jits_Linear_8,71,9999,9999,9999,1560347772
89,15,18,Jits_Linear_8,72,9999,9999,9999,1561027644
89,15,18,Jits_Linear_8,73,9999,9999,9999,1561707616
89,15,18,Jits_Linear_8,74,9999,9999,9999,1562387524
89,15,18,Jits_Linear_8,75,9999,9999,9999,1563057208
89,15,18,Jits_Linear_8,76,9999,9999,9999,1563727964
89,15,18,Jits_Linear_8,77,9999,9999,9999,1564397676
89,15,18,Jits_Linear_8,78,9999,9999,9999,1565067368
89,15,18,Jits_Linear_8,79,9999,9999,9999,1565738052
89,15,18,Jits_Linear_8,80,9999,9999,9999,1566397556
89,15,18,Jits_Linear_8,81,9999,9999,9999,1567057980
89,15,18,Jits_Linear_8,82,9999,9999,9999,1567717464
89,15,18,Jits_Linear_8,83,9999,9999,9999,1568377936
89,15,18,Jits_Linear_8,84,9999,9999,9999,1569037440
89,15,18,Jits_Linear_8,85,9999,9999,9999,1569687636
89,15,18,Jits_Linear_8,86,9999,9999,9999,1570337852
89,15,18,Jits_Linear_8,87,9999,9999,9999,1570987064
89,15,18,Jits_Linear_8,88,9999,9999,9999,1571637348
89,15,18,Jits_Linear_8,89,9999,9999,9999,1572287548
89,15,18,Jits_Linear_8,90,9999,9999,9999,1572927588
89,15,18,Jits_Linear_8,91,9999,9999,9999,1573567604
89,15,18,Jits_Linear_8,92,9999,9999,9999,1574207584
89,15,18,Jits_Linear_8,93,9999,9999,9999,1574847564
89,15,18,Jits_Linear_8,94,9999,9999,9999,1575487596
89,15,18,Jits_Linear_8,95,9999,9999,9999,1576117360
89,15,18,Jits_Linear_8,96,9999,9999,9999,1576747120
89,15,18,Jits_Linear_8,97,9999,9999,9999,1577377904
89,15,18,Jits_Linear_8,98,9999,9999,9999,1578007672
89,15,18,Jits_Linear_8,99,9999,9999,9999,1578637412
89,15,18,Jits_Linear_8,100,9999,9999,9999,1579257964
89,15,18,Jits_Linear_8,101,9999,9999,9999,1579877436
89,15,18,Jits_Linear_8,102,9999,9999,9999,1580498040
89,15,18,Jits_Linear_8,103,9999,9999,9999,1581117552
89,15,18,Jits_Linear_8,104,9999,9999,9999,1581738092
89,15,18,Jits_Linear_8,105,9999,9999,9999,1582347336
89,15,18,Jits_Linear_8,106,9999,9999,9999,1582957664
89,15,18,Jits_Linear_8,107,9999,9999,9999,1583567980
89,15,18,Jits_Linear_8,108,9999,9999,9999,1584177224
89,15,18,Jits_Linear_8,109,9999,9999,9999,1584787568
89,15,18,Jits_Linear_8,110,9999,9999,9999,1585387612
89,15,18,Jits_Linear_8,111,9999,9999,9999,1585987696
89,15,18,Jits_Linear_8,112,9999,9999,9999,1586587760
89,15,18,Jits_Linear_8,113,9999,9999,9999,1587187780
89,15,18,Jits_Linear_8,114,9999,9999,9999,1587787848
89,15,18,Jits_Linear_8,115,9999,9999,9999,1588377728
89,15,18,Jits_Linear_8,116,9999,9999,9999,1588967488
89,15,18,Jits_Linear_8,117,9999,9999,9999,1589557316
89,15,18,Jits_Linear_8,118,9999,9999,9999,1590147136
89,15,18,Jits_Linear_8,119,9999,9999,9999,1590738000
89,15,18,Jits_Linear_8,120,9999,9999,9999,1591317580
89,15,18,Jits_Linear_8,121,9999,9999,9999,1591897200
89,15,18,Jits_Linear_8,122,9999,9999,9999,1592477784
89,15,18,Jits_Linear_8,123,9999,9999,9999,1593057392
89,15,18,Jits_Linear_8,124,9999,9999,9999,1593638008
89,15,18,Jits_Linear_8,125,9999,9999,9999,1594207296
89,15,18,Jits_Linear_8,126,9999,9999,9999,1594777708
89,15,18,Jits_Linear_8,127,9999,9999,9999,1595348040
89,15,18,Jits_Linear_8,128,9999,9999,9999,1595917420
89,15,18,Jits_Linear_8,129,9999,9999,9999,1596487760
89,15,18,Jits_Linear_8,130,9999,9999,9999,1597047920
89,15,18,Jits_Linear_8,131,9999,9999,9999,1597608000
89,15,18,Jits_Linear_8,132,9999,9999,9999,1598167152
89,15,18,Jits_Linear_8,133,9999,9999,9999,1598727264
89,15,18,Jits_Linear_8,134,9999,9999,9999,1599287412
89,15,18,Jits_Linear_8,135,9999,9999,9999,1599837276
89,15,18,Jits_Linear_8,136,9999,9999,9999,1600387148
89,15,18,Jits_Linear_8,137,9999,9999,9999,1600938084
89,15,18,Jits_Linear_8,138,9999,9999,9999,1601487984
89,15,18,Jits_Linear_8,139,9999,9999,9999,1602037880
89,15,18,Jits_Linear_8,140,9999,9999,9999,1602577516
89,15,18,Jits_Linear_8,141,9999,9999,9999,1603117136
89,15,18,Jits_Linear_8,142,9999,9999,9999,1603657784
89,15,18,Jits_Linear_8,143,9999,9999,9999,1604197468
89,15,18,Jits_Linear_8,144,9999,9999,9999,1604737092
89,15,18,Jits_Linear_8,145,9999,9999,9999,1605267564
89,15,18,Jits_Linear_8,146,9999,9999,9999,1605797960
89,15,18,Jits_Linear_8,147,9999,9999,9999,1606327380
89,15,18,Jits_Linear_8,148,9999,9999,9999,1606857852
89,15,18,Jits_Linear_8,149,9999,9999,9999,1607387208
89,15,18,Jits_Linear_8,150,9999,9999,9999,1607907416
89,15,18,Jits_Linear_8,151,9999,9999,9999,1608427584
89,15,18,Jits_Linear_8,152,9999,9999,9999,1608947792
89,15,18,Jits_Linear_8,153,9999,9999,9999,1609468000
89,15,18,Jits_Linear_8,154,9999,9999,9999,1609987152
89,15,18,Jits_Linear_8,155,9999,9999,9999,1610497100
89,15,18,Jits_Linear_8,156,9999,9999,9999,1611008104
89,15,18,Jits_Linear_8,157,9999,9999,9999,1611527260
89,15,18,Jits_Linear_8,158,9999,9999,9999,1612037208
89,15,18,Jits_Linear_8,159,9999,9999,9999,1612547164
89,15,18,Jits_Linear_8,160,9999,9999,9999,1613047912
89,15,18,Jits_Linear_8,161,9999,9999,9999,1613547588
89,15,18,Jits_Linear_8,162,9999,9999,9999,1614047320
89,15,18,Jits_Linear_8,163,9999,9999,9999,1614548072
89,15,18,Jits_Linear_8,164,9999,9999,9999,1615047756
89,15,18,Jits_Linear_8,165,9999,9999,9999,1615537248
89,15,18,Jits_Linear_8,166,9999,9999,9999,1616027716
89,15,18,Jits_Linear_8,167,9999,9999,9999,1616517204
89,15,18,Jits_Linear_8,168,9999,9999,9999,1617007680
89,15,18,Jits_Linear_8,169,9999,9999,9999,1617497196
89,16,16,Jits_ISO_5,0,5,56,103,1625842088
89,16,16,Jits_ISO_5,1,5,63,98,1625845032
89,16,16,Jits_ISO_5,2,5,80,127,1625848156
89,16,16,Jits_ISO_5,0,5,56,103,1626341956
89,16,16,Jits_ISO_5,1,5,63,98,1626344908
89,16,16,Jits_ISO_5,2,5,80,127,1626347952
89,16,16,Jits_ISO_5,0,5,56,103,1626841444
89,16,16,Jits_ISO_5,1,5,80,127,1626851640
89,16,16,Jits_ISO_5,2,5,63,98,1626872272
89,16,16,Jits_ISO_5,0,5,63,98,1627292036
89,16,16,Jits_ISO_5,1,5,80,127,1627321712
89,16,16,Jits_ISO_5,2,5,56,103,1627332056
89,16,16,Jits_ISO_5,0,1,48,39,1627791276
89,16,16,Jits_ISO_5,1,5,80,127,1627852060
89,16,16,Jits_ISO_5,2,5,56,103,1627862332
89,16,16,Jits_ISO_5,3,5,63,98,1627892016
89,16,16,Jits_ISO_5,0,1,48,40,1628261876
89,16,16,Jits_ISO_5,1,5,63,98,1628341764
89,16,16,Jits_ISO_5,2,5,56,103,1628372244
89,16,16,Jits_ISO_5,3,5,80,127,1628381468
89,16,16,Jits_ISO_5,0,1,48,42,1628751868
89,16,16,Jits_ISO_5,1,5,56,103,1628792052
89,16,16,Jits_ISO_5,2,5,63,98,1628842256
89,16,16,Jits_ISO_5,3,5,80,127,1628862024
89,16,16,Jits_ISO_5,0,1,48,44,1629221116
89,16,16,Jits_ISO_5,1,5,80,127,1629291788
89,16,16,Jits_ISO_5,2,5,63,98,1629341972
89,16,16,Jits_ISO_5,3,5,56,103,1629382204
89,16,16,Jits_ISO_5,0,1,48,45,1629721676
89,16,16,Jits_ISO_5,1,5,56,103,1629791744
89,16,16,Jits_ISO_5,2,5,63,98,1629822304
89,16,16,Jits_ISO_5,3,5,80,127,1629891904
89,16,16,Jits_ISO_5,0,1,48,36,1630219296
89,16,16,Jits_ISO_5,1,5,56,103,1630292448
89,16,16,Jits_ISO_5,2,5,80,127,1630351852
89,16,16,Jits_ISO_5,3,5,63,98,1630381300
89,16,16,Jits_ISO_5,0,1,48,43,1630740092
89,16,16,Jits_ISO_5,1,5,56,103,1630802296
89,16,16,Jits_ISO_5,2,5,63,98,1630811520
89,16,16,Jits_ISO_5,3,5,80,127,1630851292
89,16,16,Jits_ISO_5,0,1,48,43,1631235468
89,16,16,Jits_ISO_5,1,5,63,98,1631291840
89,16,16,Jits_ISO_5,2,5,80,127,1631372064
89,16,16,Jits_ISO_5,3,5,56,103,1631382184
89,16,16,Jits_ISO_5,0,1,48,47,1631738644
89,16,16,Jits_ISO_5,1,5,63,98,1631841604
89,16,16,Jits_ISO_5,2,5,56,103,1631881616
89,16,16,Jits_ISO_5,3,5,80,127,1631884832
89,16,16,Jits_ISO_5,0,1,48,43,1632268424
89,16,16,Jits_ISO_5,1,5,56,103,1632301344
89,16,16,Jits_ISO_5,2,5,63,98,1632311912
89,16,16,Jits_ISO_5,3,5,80,127,1632351552
89,16,16,Jits_ISO_5,0,1,48,46,1632777592
89,16,16,Jits_ISO_5,1,5,56,103,1632791856
89,16,16,Jits_ISO_5,2,5,63,98,1632794924
89,16,16,Jits_ISO_5,3,5,80,127,1632812388
89,16,16,Jits_ISO_5,0,1,48,46,1633269584
89,16,16,Jits_ISO_5,1,5,80,127,1633301764
89,16,16,Jits_ISO_5,2,5,56,103,1633312108
89,16,16,Jits_ISO_5,3,5,63,98,1633382140
89,16,16,Jits_ISO_5,0,5,63,98,1633792364
89,16,16,Jits_ISO_5,1,5,56,103,1633812072
89,16,16,Jits_ISO_5,2,1,48,38,1633818788
89,16,16,Jits_ISO_5,3,5,80,127,1633891856
89,16,16,Jits_ISO_5,0,1,48,45,1634284344
89,16,16,Jits_ISO_5,1,5,56,103,1634302352
89,16,16,Jits_ISO_5,2,5,80,127,1634342292
89,16,16,Jits_ISO_5,3,5,63,98,1634351664
89,16,16,Jits_ISO_5,0,5,80,127,1634791756
89,16,16,Jits_ISO_5,1,1,48,41,1634797264
89,16,16,Jits_ISO_5,2,5,63,98,1634821352
89,16,16,Jits_ISO_5,3,5,56,103,1634861288
89,16,16,Jits_ISO_5,0,5,56,103,1635311956
89,16,16,Jits_ISO_5,1,1,48,43,1635332312
89,16,16,Jits_ISO_5,2,5,63,98,1635341776
89,16,16,Jits_ISO_5,3,5,80,127,1635391972
89,16,16,Jits_ISO_5,0,5,80,127,1635812296
89,16,16,Jits_ISO_5,1,1,48,44,1635834672
89,16,16,Jits_ISO_5,2,5,56,103,1635851784
89,16,16,Jits_ISO_5,3,5,63,98,1635861904
89,16,16,Jits_ISO_5,0,5,80,127,1636291948
89,16,16,Jits_ISO_5,1,1,48,43,1636323388
89,16,16,Jits_ISO_5,2,5,63,98,1636331952
89,16,16,Jits_ISO_5,3,5,56,103,1636392192
89,16,16,Jits_ISO_5,0,5,56,103,1636791820
89,16,16,Jits_ISO_5,1,1,48,44,1636802316
89,16,16,Jits_ISO_5,2,5,80,127,1636803428
89,16,16,Jits_ISO_5,3,5,63,98,1636881976
89,16,16,Jits_ISO_5,0,5,80,127,1637292312
89,16,16,Jits_ISO_5,1,1,48,38,1637315132
89,16,16,Jits_ISO_5,2,5,63,98,1637351748
89,16,16,Jits_ISO_5,3,5,56,103,1637381496
89,16,16,Jits_ISO_5,0,5,56,103,1637802324
89,16,16,Jits_ISO_5,1,5,80,127,1637861840
89,16,16,Jits_ISO_5,2,1,48,26,1637870064
89,16,16,Jits_ISO_5,3,5,63,98,1637901620
89,16,16,Jits_ISO_5,0,1,48,49,1638342056
89,16,16,Jits_ISO_5,1,5,56,103,1638352264
89,16,16,Jits_ISO_5,2,5,63,98,1638361332
89,16,16,Jits_ISO_5,3,5,80,127,1638364700
89,16,16,Jits_ISO_5,0,5,80,127,1638801804
89,16,16,Jits_ISO_5,1,1,48,44,1638819224
89,16,16,Jits_ISO_5,2,5,63,98,1638892028
89,16,16,Jits_ISO_5,3,5,56,103,1638902072
89,16,16,Jits_ISO_5,0,5,56,103,1639301684
89,16,16,Jits_ISO_5,1,5,63,98,1639304784
89,16,16,Jits_ISO_5,2,5,80,127,1639307752
89,16,16,Jits_ISO_5,3,1,48,46,1639326308
89,16,16,Jits_ISO_5,0,1,48,44,1639817264
89,16,16,Jits_ISO_5,1,5,80,127,1639821940
89,16,16,Jits_ISO_5,2,5,63,98,1639871840
89,16,16,Jits_ISO_5,3,5,56,103,1639901664
89,16,16,Jits_ISO_5,0,5,56,103,1640301900
89,16,16,Jits_ISO_5,1,5,80,127,1640312096
89,16,16,Jits_ISO_5,2,1,48,45,1640327944
89,16,16,Jits_ISO_5,3,5,63,98,1640381988
89,16,16,Jits_ISO_5,0,1,48,45,1640803036
89,16,16,Jits_ISO_5,1,5,56,103,1640811828
89,16,16,Jits_ISO_5,2,5,63,98,1640832364
89,16,16,Jits_ISO_5,3,5,80,127,1640891852
89,16,16,Jits_ISO_5,0,5,80,127,1641302500
89,16,16,Jits_ISO_5,1,1,48,43,1641306220
89,16,16,Jits_ISO_5,2,5,63,98,1641371952
89,16,16,Jits_ISO_5,3,5,56,103,1641391436
89,16,16,Jits_ISO_5,0,5,80,127,1641831920
89,16,16,Jits_ISO_5,1,1,48,43,1641834212
89,16,16,Jits_ISO_5,2,5,56,103,1641842036
89,16,16,Jits_ISO_5,3,5,63,98,1641852304
89,16,16,Jits_ISO_5,0,5,80,127,1642322224
89,16,16,Jits_ISO_5,1,5,56,103,1642341712
89,16,16,Jits_ISO_5,2,1,48,43,1642347148
89,16,16,Jits_ISO_5,3,5,63,98,1642412356
89,16,16,Jits_ISO_5,0,5,56,103,1642832236
89,16,16,Jits_ISO_5,1,5,80,127,1642862060
89,16,16,Jits_ISO_5,2,5,63,98,1642882368
89,16,16,Jits_ISO_5,3,1,48,40,1642887580
89,16,16,Jits_ISO_5,0,5,63,98,1643321868
89,16,16,Jits_ISO_5,1,1,48,43,1643373836
89,16,16,Jits_ISO_5,2,5,56,103,1643382028
89,16,16,Jits_ISO_5,3,5,80,127,1643411700
89,16,16,Jits_ISO_5,0,5,63,98,1643812232
89,16,16,Jits_ISO_5,1,5,80,127,1643815744
89,16,16,Jits_ISO_5,2,1,48,30,1643883448
89,16,16,Jits_ISO_5,3,5,56,103,1643902280
89,16,16,Jits_ISO_5,0,5,56,103,1644332332
89,16,16,Jits_ISO_5,1,1,48,43,1644352540
89,16,16,Jits_ISO_5,2,5,63,98,1644362224
89,16,16,Jits_ISO_5,3,5,80,127,1644402084
89,16,16,Jits_ISO_5,0,5,63,98,1644832008
89,16,16,Jits_ISO_5,1,1,48,39,1644835496
89,16,16,Jits_ISO_5,2,5,56,103,1644872012
89,16,16,Jits_ISO_5,3,5,80,127,1644892020
89,16,16,Jits_ISO_5,0,5,63,98,1645342076
89,16,16,Jits_ISO_5,1,1,48,38,1645366016
89,16,16,Jits_ISO_5,2,5,56,103,1645381932
89,16,16,Jits_ISO_5,3,5,80,127,1645392276
89,16,16,Jits_ISO_5,0,5,80,127,1645822256
89,16,16,Jits_ISO_5,1,5,63,98,1645891940
89,16,16,Jits_ISO_5,2,1,48,37,1645909804
89,16,16,Jits_ISO_5,3,5,56,103,1645912612
89,16,16,Jits_ISO_5,0,5,56,103,1646311820
89,16,16,Jits_ISO_5,1,5,80,127,1646332204
89,16,16,Jits_ISO_5,2,5,63,98,1646372140
89,16,16,Jits_ISO_5,3,1,48,39,1646383652
89,16,16,Jits_ISO_5,0,5,63,98,1646821604
89,16,16,Jits_ISO_5,1,5,80,127,1646842212
89,16,16,Jits_ISO_5,2,1,48,38,1646861892
89,16,16,Jits_ISO_5,3,5,56,103,1646882216
89,16,16,Jits_ISO_5,0,5,63,98,1647321532
89,16,16,Jits_ISO_5,1,5,56,103,1647341868
89,16,16,Jits_ISO_5,2,5,80,127,1647352212
89,16,16,Jits_ISO_5,3,1,48,39,1647399668
89,16,16,Jits_ISO_5,0,5,80,127,1647822312
89,16,16,Jits_ISO_5,1,5,56,103,1647841872
89,16,16,Jits_ISO_5,2,5,63,98,1647872536
89,16,16,Jits_ISO_5,3,1,48,40,1647880908
89,16,16,Jits_ISO_5,0,1,48,43,1648332064
89,16,16,Jits_ISO_5,1,5,56,103,1648391744
89,16,16,Jits_ISO_5,2,5,80,127,1648394736
89,16,16,Jits_ISO_5,3,5,63,98,1648412128
89,16,16,Jits_ISO_5,0,5,63,98,1648812632
89,16,16,Jits_ISO_5,1,5,56,103,1648842084
89,16,16,Jits_ISO_5,2,1,48,41,1648865356
89,16,16,Jits_ISO_5,3,5,80,127,1648901740
89,16,16,Jits_ISO_5,0,1,48,42,1649359000
89,16,16,Jits_ISO_5,1,5,63,98,1649402136
89,16,16,Jits_ISO_5,2,5,56,103,1649411732
89,16,16,Jits_ISO_5,3,5,80,127,1649421780
89,16,16,Jits_ISO_5,0,5,56,103,1649851808
89,16,16,Jits_ISO_5,1,5,80,127,1649881484
89,16,16,Jits_ISO_5,2,5,63,98,1649892000
89,16,16,Jits_ISO_5,3,1,48,49,1649897888
89,16,16,Jits_ISO_5,0,1,48,46,1650355864
89,16,16,Jits_ISO_5,1,5,63,98,1650392528
89,16,16,Jits_ISO_5,2,5,56,103,1650401752
89,16,16,Jits_ISO_5,3,5,80,127,1650422228
89,16,16,Jits_ISO_5,0,5,56,103,1650821544
89,16,16,Jits_ISO_5,1,1,48,46,1650836720
89,16,16,Jits_ISO_5,2,5,63,98,1650881848
89,16,16,Jits_ISO_5,3,5,80,127,1650885212
89,16,16,Jits_ISO_5,0,1,48,44,1651339764
89,16,16,Jits_ISO_5,1,5,80,127,1651341652
89,16,16,Jits_ISO_5,2,5,56,103,1651351920
89,16,16,Jits_ISO_5,3,5,63,98,1651421672
89,16,16,Jits_ISO_5,0,5,80,127,1651832100
89,16,16,Jits_ISO_5,1,1,48,43,1651891264
89,16,16,Jits_ISO_5,2,5,56,103,1651901772
89,16,16,Jits_ISO_5,3,5,63,98,1651912116
89,16,16,Jits_ISO_5,0,5,63,98,1652371708
89,16,16,Jits_ISO_5,1,5,56,103,1652382128
89,16,16,Jits_ISO_5,2,5,80,127,1652401688
89,16,16,Jits_ISO_5,3,1,48,39,1652408772
89,16,16,Jits_ISO_5,0,5,80,127,1652822516
89,16,16,Jits_ISO_5,1,1,48,41,1652868560
89,16,16,Jits_ISO_5,2,5,63,98,1652881704
89,16,16,Jits_ISO_5,3,5,56,103,1652921712
89,16,16,Jits_ISO_5,0,1,48,41,1653356536
89,16,16,Jits_ISO_5,1,5,56,103,1653372156
89,16,16,Jits_ISO_5,2,5,63,98,1653381676
89,16,16,Jits_ISO_5,3,5,80,127,1653421536
89,16,16,Jits_ISO_5,0,5,56,103,1653832036
89,16,16,Jits_ISO_5,1,1,48,46,1653833524
89,16,16,Jits_ISO_5,2,5,80,127,1653861632
89,16,16,Jits_ISO_5,3,5,63,98,1653911828
89,16,16,Jits_ISO_5,0,1,48,39,1654330180
89,16,16,Jits_ISO_5,1,5,56,103,1654371708
89,16,16,Jits_ISO_5,2,5,63,98,1654411792
89,16,16,Jits_ISO_5,3,5,80,127,1654415004
89,16,16,Jits_ISO_5,0,5,56,103,1654872712
89,16,16,Jits_ISO_5,1,5,63,98,1654881560
89,16,16,Jits_ISO_5,2,1,48,38,1654899900
89,16,16,Jits_ISO_5,3,5,80,127,1654902016
89,16,16,Jits_ISO_5,0,5,56,103,1655332152
89,16,16,Jits_ISO_5,1,5,80,127,1655335440
89,16,16,Jits_ISO_5,2,5,63,98,1655372016
89,16,16,Jits_ISO_5,3,1,48,46,1655405768
89,16,16,Jits_ISO_5,0,5,63,98,1655871892
89,16,16,Jits_ISO_5,1,1,48,45,1655885572
89,16,16,Jits_ISO_5,2,5,56,103,1655901784
89,16,16,Jits_ISO_5,3,5,80,127,1655922020
89,16,16,Jits_ISO_5,0,5,80,127,1656341960
89,16,16,Jits_ISO_5,1,5,56,103,1656352080
89,16,16,Jits_ISO_5,2,5,63,98,1656362352
89,16,16,Jits_ISO_5,3,1,48,41,1656383900
89,16,16,Jits_ISO_5,0,1,48,45,1656830812
89,16,16,Jits_ISO_5,1,5,56,103,1656841696
89,16,16,Jits_ISO_5,2,5,80,127,1656881560
89,16,16,Jits_ISO_5,3,5,63,98,1656912428
89,16,16,Jits_ISO_5,0,1,48,39,1657340212
89,16,16,Jits_ISO_5,1,5,63,98,1657351692
89,16,16,Jits_ISO_5,2,5,80,127,1657361740
89,16,16,Jits_ISO_5,3,5,56,103,1657372008
89,16,16,Jits_ISO_5,0,1,48,47,1657800508
89,16,16,Jits_ISO_5,1,5,56,103,1657831720
89,16,16,Jits_ISO_5,2,5,63,98,1657901388
89,16,16,Jits_ISO_5,3,5,80,127,1657911656
89,16,16,Jits_ISO_5,0,1,48,38,1658322044
89,16,16,Jits_ISO_5,1,5,80,127,1658331656
89,16,16,Jits_ISO_5,2,5,56,103,1658341876
89,16,16,Jits_ISO_5,3,5,63,98,1658391852
89,16,16,Jits_ISO_5,0,1,48,45,1658827600
89,16,16,Jits_ISO_5,1,5,80,127,1658841496
89,16,16,Jits_ISO_5,2,5,56,103,1658901764
89,16,16,Jits_ISO_5,3,5,63,98,1658931496
89,16,16,Jits_ISO_5,0,5,56,103,1659342136
89,16,16,Jits_ISO_5,1,5,80,127,1659345348
89,16,16,Jits_ISO_5,2,1,48,40,1659355292
89,16,16,Jits_ISO_5,3,5,63,98,1659382088
89,16,16,Jits_ISO_5,0,1,48,41,1659835692
89,16,16,Jits_ISO_5,1,5,56,103,1659871532
89,16,16,Jits_ISO_5,2,5,63,98,1659902428
89,16,16,Jits_ISO_5,3,5,80,127,1659911728
89,16,16,Jits_ISO_5,0,1,48,36,1660349672
89,16,16,Jits_ISO_5,1,5,63,98,1660381532
89,16,16,Jits_ISO_5,2,5,80,127,1660391752
89,16,16,Jits_ISO_5,3,5,56,103,1660402096
89,16,16,Jits_ISO_5,0,5,80,127,1660842312
89,16,16,Jits_ISO_5,1,1,48,41,1660843280
89,16,16,Jits_ISO_5,2,5,56,103,1660891532
89,16,16,Jits_ISO_5,3,5,63,98,1660894524
89,16,16,Jits_ISO_5,0,1,48,37,1661362020
89,16,16,Jits_ISO_5,1,5,56,103,1661371712
89,16,16,Jits_ISO_5,2,5,80,127,1661392168
89,16,16,Jits_ISO_5,3,5,63,98,1661401540
89,16,16,Jits_ISO_5,0,5,63,98,1661851972
89,16,16,Jits_ISO_5,1,1,48,45,1661872252
89,16,16,Jits_ISO_5,2,5,56,103,1661881640
89,16,16,Jits_ISO_5,3,5,80,127,1661902396
89,16,16,Jits_ISO_5,0,1,48,41,1662351148
89,16,16,Jits_ISO_5,1,5,56,103,1662361960
89,16,16,Jits_ISO_5,2,5,80,127,1662372156
89,16,16,Jits_ISO_5,3,5,63,98,1662441856
89,16,16,Jits_ISO_5,0,5,63,98,1662851736
89,16,16,Jits_ISO_5,1,5,80,127,1662892644
89,16,16,Jits_ISO_5,2,1,48,42,1662902960
89,16,16,Jits_ISO_5,3,5,56,103,1662932424
89,16,16,Jits_ISO_5,0,5,56,103,1663362556
89,16,16,Jits_ISO_5,1,5,63,98,1663371556
89,16,16,Jits_ISO_5,2,5,80,127,1663392088
89,16,16,Jits_ISO_5,3,1,48,39,1663402552
89,16,16,Jits_ISO_5,0,1,48,45,1663857612
89,16,16,Jits_ISO_5,1,5,63,98,1663902080
89,16,16,Jits_ISO_5,2,5,80,127,1663921716
89,16,16,Jits_ISO_5,3,5,56,103,1663942172
89,16,16,Jits_ISO_5,0,5,56,103,1664342412
89,16,16,Jits_ISO_5,1,1,48,46,1664371984
89,16,16,Jits_ISO_5,2,5,80,127,1664422348
89,16,16,Jits_ISO_5,3,5,63,98,1664431720
89,16,16,Jits_ISO_5,0,5,80,127,1664892428
89,16,16,Jits_ISO_5,1,1,48,44,1664900976
89,16,16,Jits_ISO_5,2,5,63,98,1664902392
89,16,16,Jits_ISO_5,3,5,56,103,1664932144
89,16,16,Jits_ISO_5,0,5,63,98,1665352020
89,16,16,Jits_ISO_5,1,5,80,127,1665391884
89,16,16,Jits_ISO_5,2,1,48,44,1665397168
89,16,16,Jits_ISO_5,3,5,56,103,1665452560
89,16,16,Jits_ISO_5,0,5,63,98,1665862012
89,16,16,Jits_ISO_5,1,1,48,46,1665888356
89,16,16,Jits_ISO_5,2,5,56,103,1665912132
89,16,16,Jits_ISO_5,3,5,80,127,1665941732
89,16,16,Jits_ISO_5,0,5,80,127,1666372160
89,16,16,Jits_ISO_5,1,5,63,98,1666382432
89,16,16,Jits_ISO_5,2,1,48,45,1666415512
89,16,16,Jits_ISO_5,3,5,56,103,1666451952
89,16,16,Jits_ISO_5,0,1,48,45,1666891732
89,16,16,Jits_ISO_5,1,5,80,127,1666942476
89,16,16,Jits_ISO_5,2,5,56,103,1666951472
89,16,16,Jits_ISO_5,3,5,63,98,1666954612
89,16,16,Jits_ISO_5,0,1,48,44,1667365608
89,16,16,Jits_ISO_5,1,5,56,103,1667381748
89,16,16,Jits_ISO_5,2,5,80,127,1667402504
89,16,16,Jits_ISO_5,3,5,63,98,1667412328
89,16,16,Jits_ISO_5,0,5,63,98,1667891452
89,16,16,Jits_ISO_5,1,1,48,42,1667898384
89,16,16,Jits_ISO_5,2,5,56,103,1667931604
89,16,16,Jits_ISO_5,3,5,80,127,1667951916
89,16,16,Jits_ISO_5,0,5,63,98,1668392456
89,16,16,Jits_ISO_5,1,1,48,40,1668409744
89,16,16,Jits_ISO_5,2,5,56,103,1668451560
89,16,16,Jits_ISO_5,3,5,80,127,1668454928
89,16,16,Jits_ISO_5,0,5,56,103,1668851956
89,16,16,Jits_ISO_5,1,5,80,127,1668871588
89,16,16,Jits_ISO_5,2,5,63,98,1668911376
89,16,16,Jits_ISO_5,3,1,48,43,1668914420
89,16,16,Jits_ISO_5,0,5,56,103,1669381592
89,16,16,Jits_ISO_5,1,5,63,98,1669401976
89,16,16,Jits_ISO_5,2,1,48,42,1669408912
89,16,16,Jits_ISO_5,3,5,80,127,1669412316
89,16,16,Jits_ISO_5,0,5,80,127,1669851424
89,16,16,Jits_ISO_5,1,5,56,103,1669882316
89,16,16,Jits_ISO_5,2,1,48,45,1669905360
89,16,16,Jits_ISO_5,3,5,63,98,1669922100
89,16,16,Jits_ISO_5,0,5,80,127,1670361580
89,16,16,Jits_ISO_5,1,5,56,103,1670381916
89,16,16,Jits_ISO_5,2,1,48,37,1670403616
89,16,16,Jits_ISO_5,3,5,63,98,1670442444
89,16,16,Jits_ISO_5,0,5,56,103,1670872416
89,16,16,Jits_ISO_5,1,5,80,127,1670891852
89,16,16,Jits_ISO_5,2,1,48,39,1670897584
89,16,16,Jits_ISO_5,3,5,63,98,1670952528
89,16,16,Jits_ISO_5,0,5,80,127,1671351564
89,16,16,Jits_ISO_5,1,5,56,103,1671361836
89,16,16,Jits_ISO_5,2,1,48,42,1671398156
89,16,16,Jits_ISO_5,3,5,63,98,1671401788
89,16,16,Jits_ISO_5,0,1,48,42,1671838904
89,16,16,Jits_ISO_5,1,5,63,98,1671852420
89,16,16,Jits_ISO_5,2,5,56,103,1671892580
89,16,16,Jits_ISO_5,3,5,80,127,1671895720
89,16,16,Jits_ISO_5,0,1,48,41,1672348064
89,16,16,Jits_ISO_5,1,5,63,98,1672381812
89,16,16,Jits_ISO_5,2,5,80,127,1672421700
89,16,16,Jits_ISO_5,3,5,56,103,1672451504
89,16,16,Jits_ISO_5,0,1,48,40,1672852752
89,16,16,Jits_ISO_5,1,5,56,103,1672872400
89,16,16,Jits_ISO_5,2,5,63,98,1672881624
89,16,16,Jits_ISO_5,3,5,80,127,1672912420
89,16,16,Jits_ISO_5,0,1,48,35,1673360896
89,16,16,Jits_ISO_5,1,5,80,127,1673362468
89,16,16,Jits_ISO_5,2,5,63,98,1673432372
89,16,16,Jits_ISO_5,3,5,56,103,1673441592
89,16,16,Jits_ISO_5,0,1,48,40,1673825804
89,16,16,Jits_ISO_5,1,5,63,98,1673861572
89,16,16,Jits_ISO_5,2,5,56,103,1673932212
89,16,16,Jits_ISO_5,3,5,80,127,1673942332
89,16,16,Jits_ISO_5,0,1,48,43,1674319092
89,16,16,Jits_ISO_5,1,5,63,98,1674362428
89,16,16,Jits_ISO_5,2,5,56,103,1674381620
89,16,16,Jits_ISO_5,3,5,80,127,1674421616
89,16,16,Jits_ISO_5,0,1,48,39,1674835164
89,16,16,Jits_ISO_5,1,5,56,103,1674872276
89,16,16,Jits_ISO_5,2,5,63,98,1674882396
89,16,16,Jits_ISO_5,3,5,80,127,1674962468
89,16,16,Jits_ISO_5,0,1,48,41,1675340744
89,16,16,Jits_ISO_5,1,5,63,98,1675361596
89,16,16,Jits_ISO_5,2,5,56,103,1675392320
89,16,16,Jits_ISO_5,3,5,80,127,1675432328
89,16,16,Jits_ISO_5,0,5,56,103,1675862308
89,16,16,Jits_ISO_5,1,5,63,98,1675902468
89,16,16,Jits_ISO_5,2,1,48,43,1675904708
89,16,16,Jits_ISO_5,3,5,80,127,1675942252
89,16,16,Jits_ISO_5,0,1,48,42,1676364872
89,16,16,Jits_ISO_5,1,5,80,127,1676372240
89,16,16,Jits_ISO_5,2,5,56,103,1676452332
89,16,16,Jits_ISO_5,3,5,63,98,1676461556
89,16,16,Jits_ISO_5,0,1,48,39,1676878604
89,16,16,Jits_ISO_5,1,5,56,103,1676911900
89,16,16,Jits_ISO_5,2,5,63,98,1676915268
89,16,16,Jits_ISO_5,3,5,80,127,1676922176
89,16,16,Jits_ISO_5,0,1,48,46,1677345820
89,16,16,Jits_ISO_5,1,5,56,103,1677432232
89,16,16,Jits_ISO_5,2,5,63,98,1677451628
89,16,16,Jits_ISO_5,3,5,80,127,1677461900
89,16,16,Jits_ISO_5,0,1,48,43,1677837160
89,16,16,Jits_ISO_5,1,5,63,98,1677891964
89,16,16,Jits_ISO_5,2,5,80,127,1677902380
89,16,16,Jits_ISO_5,3,5,56,103,1677921644
89,16,16,Jits_ISO_5,0,1,48,40,1678384396
89,16,16,Jits_ISO_5,1,5,63,98,1678391764
89,16,16,Jits_ISO_5,2,5,56,103,1678471484
89,16,16,Jits_ISO_5,3,5,80,127,1678474624
89,16,16,Jits_ISO_5,0,5,63,98,1678892472
89,16,16,Jits_ISO_5,1,1,48,42,1678895292
89,16,16,Jits_ISO_5,2,5,56,103,1678911804
89,16,16,Jits_ISO_5,3,5,80,127,1678941624
89,16,16,Jits_ISO_5,0,1,48,42,1679384376
89,16,16,Jits_ISO_5,1,5,56,103,1679392196
89,16,16,Jits_ISO_5,2,5,63,98,1679411608
89,16,16,Jits_ISO_5,3,5,80,127,1679421952
89,16,16,Jits_ISO_5,0,1,48,41,1679825712
89,16,16,Jits_ISO_5,1,5,56,103,1679921432
89,16,16,Jits_ISO_5,2,5,63,98,1679952300
89,16,16,Jits_ISO_5,3,5,80,127,1679955512
89,16,16,Jits_ISO_5,0,1,48,42,1680276668
89,16,16,Jits_ISO_5,1,5,56,103,1680372228
89,16,16,Jits_ISO_5,2,5,63,98,1680412244
89,16,16,Jits_ISO_5,3,5,80,127,1680472404
89,16,16,Jits_ISO_5,0,1,48,38,1680772880
89,16,16,Jits_ISO_5,1,5,56,103,1680892264
89,16,16,Jits_ISO_5,2,5,63,98,1680901636
89,16,16,Jits_ISO_5,3,5,80,127,1680961800
89,16,16,Jits_ISO_5,0,1,48,38,1681288564
89,16,16,Jits_ISO_5,1,5,56,103,1681392068
89,16,16,Jits_ISO_5,2,5,80,127,1681411332
89,16,16,Jits_ISO_5,3,5,63,98,1681442200
89,16,16,Jits_ISO_5,0,1,48,38,1681799472
89,16,16,Jits_ISO_5,1,5,80,127,1681891740
89,16,16,Jits_ISO_5,2,5,56,103,1681901844
89,16,16,Jits_ISO_5,3,5,63,98,1681922376
89,16,16,Jits_ISO_5,0,1,48,40,1682300244
89,16,16,Jits_ISO_5,1,5,63,98,1682382152
89,16,16,Jits_ISO_5,2,5,80,127,1682462180
89,16,16,Jits_ISO_5,3,5,56,103,1682472376
89,16,16,Jits_ISO_5,0,1,48,34,1682882236
89,16,16,Jits_ISO_5,1,5,80,127,1682942368
89,16,16,Jits_ISO_5,2,5,56,103,1682961780
89,16,16,Jits_ISO_5,3,5,63,98,1682964920
89,16,16,Jits_ISO_5,0,1,48,38,1683386900
89,16,16,Jits_ISO_5,1,5,63,98,1683412476
89,16,16,Jits_ISO_5,2,5,80,127,1683415692
89,16,16,Jits_ISO_5,3,5,56,103,1683471768
89,16,16,Jits_ISO_5,0,5,56,103,1683902020
89,16,16,Jits_ISO_5,1,5,80,127,1683912440
89,16,16,Jits_ISO_5,2,1,48,34,1683914080
89,16,16,Jits_ISO_5,3,5,63,98,1683952096
89,16,16,Jits_ISO_5,0,5,56,103,1684382212
89,16,16,Jits_ISO_5,1,1,48,41,1684392896
89,16,16,Jits_ISO_5,2,5,63,98,1684441472
89,16,16,Jits_ISO_5,3,5,80,127,1684451768
89,16,16,Jits_ISO_5,0,1,48,41,1684884548
89,16,16,Jits_ISO_5,1,5,63,98,1684892216
89,16,16,Jits_ISO_5,2,5,80,127,1684932152
89,16,16,Jits_ISO_5,3,5,56,103,1684971964
89,16,16,Jits_ISO_5,0,5,56,103,1685391800
89,16,16,Jits_ISO_5,1,1,48,38,1685414028
89,16,16,Jits_ISO_5,2,5,63,98,1685471736
89,16,16,Jits_ISO_5,3,5,80,127,1685475196
89,16,16,Jits_ISO_5,0,9999,9999,9999,1626089588
89,16,16,Jits_ISO_5,1,9999,9999,9999,1626589284
89,16,16,Jits_ISO_5,2,9999,9999,9999,1627089996
89,16,16,Jits_ISO_5,3,9999,9999,9999,1627589732
89,16,16,Jits_ISO_5,4,9999,9999,9999,1628089440
89,16,16,Jits_ISO_5,5,9999,9999,9999,1628589104
89,16,16,Jits_ISO_5,6,9999,9999,9999,1629089888
89,16,16,Jits_ISO_5,7,9999,9999,9999,1629589620
89,16,16,Jits_ISO_5,8,9999,9999,9999,1630089280
89,16,16,Jits_ISO_5,9,9999,9999,9999,1630590060
89,16,16,Jits_ISO_5,10,9999,9999,9999,1631089716
89,16,16,Jits_ISO_5,11,9999,9999,9999,1631589452
89,16,16,Jits_ISO_5,12,9999,9999,9999,1632089180
89,16,16,Jits_ISO_5,13,9999,9999,9999,1632589884
89,16,16,Jits_ISO_5,14,9999,9999,9999,1633089600
89,16,16,Jits_ISO_5,15,9999,9999,9999,1633589336
89,16,16,Jits_ISO_5,16,9999,9999,9999,1634090040
89,16,16,Jits_ISO_5,17,9999,9999,9999,1634589776
89,16,16,Jits_ISO_5,18,9999,9999,9999,1635089508
89,16,16,Jits_ISO_5,19,9999,9999,9999,1635589184
89,16,16,Jits_ISO_5,20,9999,9999,9999,1636089976
89,16,16,Jits_ISO_5,21,9999,9999,9999,1636589624
89,16,16,Jits_ISO_5,22,9999,9999,9999,1637089348
89,16,16,Jits_ISO_5,23,9999,9999,9999,1637590140
89,16,16,Jits_ISO_5,24,9999,9999,9999,1638100080
89,16,16,Jits_ISO_5,25,9999,9999,9999,1638599744
89,16,16,Jits_ISO_5,26,9999,9999,9999,1639099484
89,16,16,Jits_ISO_5,27,9999,9999,9999,1639599200
89,16,16,Jits_ISO_5,28,9999,9999,9999,1640099924
89,16,16,Jits_ISO_5,29,9999,9999,9999,1640599652
89,16,16,Jits_ISO_5,30,9999,9999,9999,1641099324
89,16,16,Jits_ISO_5,31,9999,9999,9999,1641600108
89,16,16,Jits_ISO_5,32,9999,9999,9999,1642110044
89,16,16,Jits_ISO_5,33,9999,9999,9999,1642609716
89,16,16,Jits_ISO_5,34,9999,9999,9999,1643109460
89,16,16,Jits_ISO_5,35,9999,9999,9999,1643609208
89,16,16,Jits_ISO_5,36,9999,9999,9999,1644109904
89,16,16,Jits_ISO_5,37,9999,9999,9999,1644609632
89,16,16,Jits_ISO_5,38,9999,9999,9999,1645109308
89,16,16,Jits_ISO_5,39,9999,9999,9999,1645610088
89,16,16,Jits_ISO_5,40,9999,9999,9999,1646109748
89,16,16,Jits_ISO_5,41,9999,9999,9999,1646609496
89,16,16,Jits_ISO_5,42,9999,9999,9999,1647109240
89,16,16,Jits_ISO_5,43,9999,9999,9999,1647609944
89,16,16,Jits_ISO_5,44,9999,9999,9999,1648109668
89,16,16,Jits_ISO_5,45,9999,9999,9999,1648609388
89,16,16,Jits_ISO_5,46,9999,9999,9999,1649110084
89,16,16,Jits_ISO_5,47,9999,9999,9999,1649620088
89,16,16,Jits_ISO_5,48,9999,9999,9999,1650119744
89,16,16,Jits_ISO_5,49,9999,9999,9999,1650619488
89,16,16,Jits_ISO_5,50,9999,9999,9999,1651119212
89,16,16,Jits_ISO_5,51,9999,9999,9999,1651619928
89,16,16,Jits_ISO_5,52,9999,9999,9999,1652119664
89,16,16,Jits_ISO_5,53,9999,9999,9999,1652619340
89,16,16,Jits_ISO_5,54,9999,9999,9999,1653120120
89,16,16,Jits_ISO_5,55,9999,9999,9999,1653630056
89,16,16,Jits_ISO_5,56,9999,9999,9999,1654129788
89,16,16,Jits_ISO_5,57,9999,9999,9999,1654629452
89,16,16,Jits_ISO_5,58,9999,9999,9999,1655129188
89,16,16,Jits_ISO_5,59,9999,9999,9999,1655629892
89,16,16,Jits_ISO_5,60,9999,9999,9999,1656129640
89,16,16,Jits_ISO_5,61,9999,9999,9999,1656629372
89,16,16,Jits_ISO_5,62,9999,9999,9999,1657130092
89,16,16,Jits_ISO_5,63,9999,9999,9999,1657629748
89,16,16,Jits_ISO_5,64,9999,9999,9999,1658129480
89,16,16,Jits_ISO_5,65,9999,9999,9999,1658629212
89,16,16,Jits_ISO_5,66,9999,9999,9999,1659129920
89,16,16,Jits_ISO_5,67,9999,9999,9999,1659629640
89,16,16,Jits_ISO_5,68,9999,9999,9999,1660129364
89,16,16,Jits_ISO_5,69,9999,9999,9999,1660630068
89,16,16,Jits_ISO_5,70,9999,9999,9999,1661140052
89,16,16,Jits_ISO_5,71,9999,9999,9999,1661639804
89,16,16,Jits_ISO_5,72,9999,9999,9999,1662139456
89,16,16,Jits_ISO_5,73,9999,9999,9999,1662639192
89,16,16,Jits_ISO_5,74,9999,9999,9999,1663139900
89,16,16,Jits_ISO_5,75,9999,9999,9999,1663639632
89,16,16,Jits_ISO_5,76,9999,9999,9999,1664139384
89,16,16,Jits_ISO_5,77,9999,9999,9999,1664640088
89,16,16,Jits_ISO_5,78,9999,9999,9999,1665150024
89,16,16,Jits_ISO_5,79,9999,9999,9999,1665649772
89,16,16,Jits_ISO_5,80,9999,9999,9999,1666149428
89,16,16,Jits_ISO_5,81,9999,9999,9999,1666649164
89,16,16,Jits_ISO_5,82,9999,9999,9999,1667149880
89,16,16,Jits_ISO_5,83,9999,9999,9999,1667649612
89,16,16,Jits_ISO_5,84,9999,9999,9999,1668149352
89,16,16,Jits_ISO_5,85,9999,9999,9999,1668650048
89,16,16,Jits_ISO_5,86,9999,9999,9999,1669149776
89,16,16,Jits_ISO_5,87,9999,9999,9999,1669649528
89,16,16,Jits_ISO_5,88,9999,9999,9999,1670149196
89,16,16,Jits_ISO_5,89,9999,9999,9999,1670649916
89,16,16,Jits_ISO_5,90,9999,9999,9999,1671149668
89,16,16,Jits_ISO_5,91,9999,9999,9999,1671649388
89,16,16,Jits_ISO_5,92,9999,9999,9999,1672150096
89,16,16,Jits_ISO_5,93,9999,9999,9999,1672660092
89,16,16,Jits_ISO_5,94,9999,9999,9999,1673159748
89,16,16,Jits_ISO_5,95,9999,9999,9999,1673659456
89,16,16,Jits_ISO_5,96,9999,9999,9999,1674159184
89,16,16,Jits_ISO_5,97,9999,9999,9999,1674659892
89,16,16,Jits_ISO_5,98,9999,9999,9999,1675159624
89,16,16,Jits_ISO_5,99,9999,9999,9999,1675659356
89,16,16,Jits_ISO_5,100,9999,9999,9999,1676160064
89,16,16,Jits_ISO_5,101,9999,9999,9999,1676670076
89,16,16,Jits_ISO_5,102,9999,9999,9999,1677169724
89,16,16,Jits_ISO_5,103,9999,9999,9999,1677669464
89,16,16,Jits_ISO_5,104,9999,9999,9999,1678169196
89,16,16,Jits_ISO_5,105,9999,9999,9999,1678669892
89,16,16,Jits_ISO_5,106,9999,9999,9999,1679169624
89,16,16,Jits_ISO_5,107,9999,9999,9999,1679669356
89,16,16,Jits_ISO_5,108,9999,9999,9999,1680170052
89,16,16,Jits_ISO_5,109,9999,9999,9999,1680669780
89,16,16,Jits_ISO_5,110,9999,9999,9999,1681169512
89,16,16,Jits_ISO_5,111,9999,9999,9999,1681669244
89,16,16,Jits_ISO_5,112,9999,9999,9999,1682169944
89,16,16,Jits_ISO_5,113,9999,9999,9999,1682669676
89,16,16,Jits_ISO_5,114,9999,9999,9999,1683169332
89,16,16,Jits_ISO_5,115,9999,9999,9999,1683670076
89,16,16,Jits_ISO_5,116,9999,9999,9999,1684180072
89,16,16,Jits_ISO_5,117,9999,9999,9999,1684679740
89,16,16,Jits_ISO_5,118,9999,9999,9999,1685179488
89,16,16,Jits_ISO_5,119,9999,9999,9999,1685679212
89,17,7,Jits_ISO_8,0,5,56,103,1695104356
89,17,7,Jits_ISO_8,1,5,63,98,1695107376
89,17,7,Jits_ISO_8,2,5,80,127,1695110428
89,17,7,Jits_ISO_8,0,5,56,103,1695904128
89,17,7,Jits_ISO_8,1,5,63,98,1695907152
89,17,7,Jits_ISO_8,2,5,80,127,1695910276
89,17,7,Jits_ISO_8,0,1,48,48,1696591116
89,17,7,Jits_ISO_8,1,5,80,127,1696643448
89,17,7,Jits_ISO_8,2,5,63,98,1696733500
89,17,7,Jits_ISO_8,3,5,56,103,1696744020
89,17,7,Jits_ISO_8,0,1,48,47,1697386716
89,17,7,Jits_ISO_8,1,5,56,103,1697463688
89,17,7,Jits_ISO_8,2,5,63,98,1697474108
89,17,7,Jits_ISO_8,3,5,80,127,1697563956
89,17,7,Jits_ISO_8,0,1,48,43,1698167312
89,17,7,Jits_ISO_8,1,5,63,98,1698233800
89,17,7,Jits_ISO_8,2,5,80,127,1698264360
89,17,7,Jits_ISO_8,3,5,56,103,1698294136
89,17,7,Jits_ISO_8,0,1,48,40,1698941756
89,17,7,Jits_ISO_8,1,5,56,103,1699033432
89,17,7,Jits_ISO_8,2,5,80,127,1699133916
89,17,7,Jits_ISO_8,3,5,63,98,1699184192
89,17,7,Jits_ISO_8,0,1,48,40,1699812092
89,17,7,Jits_ISO_8,1,5,56,103,1699834216
89,17,7,Jits_ISO_8,2,5,80,127,1699884496
89,17,7,Jits_ISO_8,3,5,63,98,1699924344
89,17,7,Jits_ISO_8,0,1,48,41,1700615016
89,17,7,Jits_ISO_8,1,5,80,127,1700663596
89,17,7,Jits_ISO_8,2,5,63,98,1700694392
89,17,7,Jits_ISO_8,3,5,56,103,1700764060
89,17,7,Jits_ISO_8,0,1,48,38,1701402820
89,17,7,Jits_ISO_8,1,5,63,98,1701494172
89,17,7,Jits_ISO_8,2,5,56,103,1701523908
89,17,7,Jits_ISO_8,3,5,80,127,1701584296
89,17,7,Jits_ISO_8,0,1,48,41,1702204776
89,17,7,Jits_ISO_8,1,5,56,103,1702233420
89,17,7,Jits_ISO_8,2,5,80,127,1702236636
89,17,7,Jits_ISO_8,3,5,63,98,1702354252
89,17,7,Jits_ISO_8,0,1,48,34,1703056392
89,17,7,Jits_ISO_8,1,5,56,103,1703114036
89,17,7,Jits_ISO_8,2,5,80,127,1703153988
89,17,7,Jits_ISO_8,3,5,63,98,1703164480
89,17,7,Jits_ISO_8,0,1,48,37,1703843224
89,17,7,Jits_ISO_8,1,5,56,103,1703874188
89,17,7,Jits_ISO_8,2,5,80,127,1703894348
89,17,7,Jits_ISO_8,3,5,63,98,1703974304
89,17,7,Jits_ISO_8,0,5,80,127,1704664316
89,17,7,Jits_ISO_8,1,1,48,38,1704684244
89,17,7,Jits_ISO_8,2,5,56,103,1704763764
89,17,7,Jits_ISO_8,3,5,63,98,1704773960
89,17,7,Jits_ISO_8,0,5,63,98,1705433472
89,17,7,Jits_ISO_8,1,5,80,127,1705494040
89,17,7,Jits_ISO_8,2,5,56,103,1705504088
89,17,7,Jits_ISO_8,3,1,48,37,1705518064
89,17,7,Jits_ISO_8,0,5,56,103,1706234176
89,17,7,Jits_ISO_8,1,1,48,42,1706292892
89,17,7,Jits_ISO_8,2,5,63,98,1706304072
89,17,7,Jits_ISO_8,3,5,80,127,1706307288
89,17,7,Jits_ISO_8,0,5,63,98,1707063632
89,17,7,Jits_ISO_8,1,5,56,103,1707113908
89,17,7,Jits_ISO_8,2,5,80,127,1707116976
89,17,7,Jits_ISO_8,3,1,48,27,1707118616
89,17,7,Jits_ISO_8,0,5,56,103,1707823388
89,17,7,Jits_ISO_8,1,5,80,127,1707826460
89,17,7,Jits_ISO_8,2,1,48,35,1707839844
89,17,7,Jits_ISO_8,3,5,63,98,1707913444
89,17,7,Jits_ISO_8,0,1,48,36,1708651228
89,17,7,Jits_ISO_8,1,5,63,98,1708664152
89,17,7,Jits_ISO_8,2,5,56,103,1708754352
89,17,7,Jits_ISO_8,3,5,80,127,1708783976
89,17,7,Jits_ISO_8,0,1,48,42,1709428924
89,17,7,Jits_ISO_8,1,5,56,103,1709453976
89,17,7,Jits_ISO_8,2,1,48,13,1709550304
89,17,7,Jits_ISO_8,3,5,63,98,1709554156
89,17,7,Jits_ISO_8,4,5,80,127,1709583908
89,17,7,Jits_ISO_8,0,1,48,45,1710223024
89,17,7,Jits_ISO_8,1,5,63,98,1710273844
89,17,7,Jits_ISO_8,2,5,56,103,1710284040
89,17,7,Jits_ISO_8,3,1,48,15,1710346284
89,17,7,Jits_ISO_8,4,5,80,127,1710374252
89,17,7,Jits_ISO_8,0,1,48,43,1711050068
89,17,7,Jits_ISO_8,1,5,63,98,1711094180
89,17,7,Jits_ISO_8,2,5,56,103,1711174040
89,17,7,Jits_ISO_8,3,5,80,127,1711177028
89,17,7,Jits_ISO_8,0,1,48,43,1711827820
89,17,7,Jits_ISO_8,1,5,80,127,1711853880
89,17,7,Jits_ISO_8,2,5,63,98,1711874340
89,17,7,Jits_ISO_8,3,5,56,103,1711933816
89,17,7,Jits_ISO_8,0,1,48,38,1712596140
89,17,7,Jits_ISO_8,1,5,56,103,1712693804
89,17,7,Jits_ISO_8,2,5,63,98,1712714040
89,17,7,Jits_ISO_8,3,5,80,127,1712717400
89,17,7,Jits_ISO_8,0,1,48,43,1713372324
89,17,7,Jits_ISO_8,1,5,63,98,1713434028
89,17,7,Jits_ISO_8,2,5,80,127,1713514036
89,17,7,Jits_ISO_8,3,5,56,103,1713524232
89,17,7,Jits_ISO_8,0,1,48,40,1714159524
89,17,7,Jits_ISO_8,1,5,63,98,1714254336
89,17,7,Jits_ISO_8,2,5,56,103,1714273812
89,17,7,Jits_ISO_8,3,5,80,127,1714323940
89,17,7,Jits_ISO_8,0,1,48,41,1714927168
89,17,7,Jits_ISO_8,1,5,80,127,1715053956
89,17,7,Jits_ISO_8,2,5,63,98,1715093900
89,17,7,Jits_ISO_8,3,5,56,103,1715114284
89,17,7,Jits_ISO_8,0,1,48,40,1715691432
89,17,7,Jits_ISO_8,1,5,56,103,1715893900
89,17,7,Jits_ISO_8,2,5,63,98,1715903944
89,17,7,Jits_ISO_8,3,5,80,127,1715924332
89,17,7,Jits_ISO_8,0,1,48,38,1716538272
89,17,7,Jits_ISO_8,1,5,56,103,1716623792
89,17,7,Jits_ISO_8,2,5,63,98,1716713944
89,17,7,Jits_ISO_8,3,5,80,127,1716774184
89,17,7,Jits_ISO_8,0,1,48,42,1717324652
89,17,7,Jits_ISO_8,1,5,80,127,1717454056
89,17,7,Jits_ISO_8,2,5,56,103,1717464328
89,17,7,Jits_ISO_8,3,5,63,98,1717533960
89,17,7,Jits_ISO_8,0,1,48,42,1718060736
89,17,7,Jits_ISO_8,1,5,63,98,1718283608
89,17,7,Jits_ISO_8,2,5,80,127,1718373744
89,17,7,Jits_ISO_8,3,5,56,103,1718383944
89,17,7,Jits_ISO_8,0,1,48,40,1718880984
89,17,7,Jits_ISO_8,1,5,63,98,1719023984
89,17,7,Jits_ISO_8,2,5,80,127,1719074040
89,17,7,Jits_ISO_8,3,5,56,103,1719133608
89,17,7,Jits_ISO_8,0,1,48,41,1719627720
89,17,7,Jits_ISO_8,1,5,56,103,1719853364
89,17,7,Jits_ISO_8,2,5,80,127,1719903864
89,17,7,Jits_ISO_8,3,5,63,98,1719924028
89,17,7,Jits_ISO_8,0,1,48,43,1720390716
89,17,7,Jits_ISO_8,1,5,56,103,1720623400
89,17,7,Jits_ISO_8,2,5,80,127,1720683944
89,17,7,Jits_ISO_8,3,5,63,98,1720753700
89,17,7,Jits_ISO_8,0,1,48,38,1721122696
89,17,7,Jits_ISO_8,1,5,56,103,1721424228
89,17,7,Jits_ISO_8,2,5,80,127,1721453904
89,17,7,Jits_ISO_8,3,5,63,98,1721483804
89,17,7,Jits_ISO_8,4,1,48,43,1721882448
89,17,7,Jits_ISO_8,0,5,56,103,1722263960
89,17,7,Jits_ISO_8,1,5,80,127,1722284348
89,17,7,Jits_ISO_8,2,5,63,98,1722343940
89,17,7,Jits_ISO_8,3,1,48,41,1722675356
89,17,7,Jits_ISO_8,0,5,80,127,1723143728
89,17,7,Jits_ISO_8,1,5,56,103,1723153852
89,17,7,Jits_ISO_8,2,5,63,98,1723164124
89,17,7,Jits_ISO_8,0,1,48,40,1723537124
89,17,7,Jits_ISO_8,1,5,56,103,1723904396
89,17,7,Jits_ISO_8,2,5,80,127,1723944264
89,17,7,Jits_ISO_8,3,5,63,98,1723973936
89,17,7,Jits_ISO_8,0,1,48,44,1724310624
89,17,7,Jits_ISO_8,1,5,56,103,1724674348
89,17,7,Jits_ISO_8,2,5,63,98,1724704100
89,17,7,Jits_ISO_8,3,5,80,127,1724744040
89,17,7,Jits_ISO_8,4,1,48,43,1725079416
89,17,7,Jits_ISO_8,0,5,80,127,1725424104
89,17,7,Jits_ISO_8,1,5,63,98,1725474160
89,17,7,Jits_ISO_8,2,5,56,103,1725493720
89,17,7,Jits_ISO_8,3,1,48,46,1725883048
89,17,7,Jits_ISO_8,0,5,56,103,1726253568
89,17,7,Jits_ISO_8,1,5,80,127,1726324000
89,17,7,Jits_ISO_8,2,5,63,98,1726383568
89,17,7,Jits_ISO_8,3,1,48,40,1726647632
89,17,7,Jits_ISO_8,0,5,80,127,1727054188
89,17,7,Jits_ISO_8,1,5,63,98,1727144328
89,17,7,Jits_ISO_8,2,5,56,103,1727163888
89,17,7,Jits_ISO_8,3,1,48,42,1727488808
89,17,7,Jits_ISO_8,0,5,63,98,1727874668
89,17,7,Jits_ISO_8,1,5,56,103,1727893784
89,17,7,Jits_ISO_8,2,5,80,127,1727933800
89,17,7,Jits_ISO_8,3,1,48,46,1728269804
89,17,7,Jits_ISO_8,0,5,80,127,1728634368
89,17,7,Jits_ISO_8,1,5,63,98,1728653784
89,17,7,Jits_ISO_8,2,5,56,103,1728733728
89,17,7,Jits_ISO_8,3,1,48,39,1729025736
89,17,7,Jits_ISO_8,0,5,63,98,1729423872
89,17,7,Jits_ISO_8,1,5,56,103,1729534264
89,17,7,Jits_ISO_8,2,5,80,127,1729537180
89,17,7,Jits_ISO_8,3,1,48,39,1729823728
89,17,7,Jits_ISO_8,0,5,63,98,1730243876
89,17,7,Jits_ISO_8,1,5,56,103,1730254148
89,17,7,Jits_ISO_8,2,5,80,127,1730257136
89,17,7,Jits_ISO_8,3,1,48,43,1730602596
89,17,7,Jits_ISO_8,0,5,56,103,1731024236
89,17,7,Jits_ISO_8,1,5,80,127,1731144068
89,17,7,Jits_ISO_8,2,5,63,98,1731183856
89,17,7,Jits_ISO_8,3,1,48,45,1731421340
89,17,7,Jits_ISO_8,0,5,56,103,1731843692
89,17,7,Jits_ISO_8,1,5,80,127,1731924540
89,17,7,Jits_ISO_8,2,5,63,98,1731943876
89,17,7,Jits_ISO_8,0,1,48,37,1732339828
89,17,7,Jits_ISO_8,1,5,56,103,1732644064
89,17,7,Jits_ISO_8,2,5,63,98,1732753904
89,17,7,Jits_ISO_8,3,5,80,127,1732757116
89,17,7,Jits_ISO_8,0,1,48,38,1733183524
89,17,7,Jits_ISO_8,1,5,56,103,1733473812
89,17,7,Jits_ISO_8,2,5,80,127,1733504536
89,17,7,Jits_ISO_8,3,5,63,98,1733523948
89,17,7,Jits_ISO_8,0,1,48,44,1733955128
89,17,7,Jits_ISO_8,1,5,63,98,1734253816
89,17,7,Jits_ISO_8,2,5,56,103,1734264308
89,17,7,Jits_ISO_8,3,5,80,127,1734274580
89,17,7,Jits_ISO_8,0,1,48,40,1734714284
89,17,7,Jits_ISO_8,1,5,80,127,1735043700
89,17,7,Jits_ISO_8,2,5,56,103,1735093608
89,17,7,Jits_ISO_8,3,5,63,98,1735133548
89,17,7,Jits_ISO_8,0,1,48,43,1735553348
89,17,7,Jits_ISO_8,1,1,48,15,1735671044
89,17,7,Jits_ISO_8,2,5,80,127,1735863768
89,17,7,Jits_ISO_8,3,5,63,98,1735884076
89,17,7,Jits_ISO_8,4,5,56,103,1735934452
89,17,7,Jits_ISO_8,0,1,48,44,1736397324
89,17,7,Jits_ISO_8,1,5,80,127,1736673636
89,17,7,Jits_ISO_8,2,5,56,103,1736704660
89,17,7,Jits_ISO_8,3,5,63,98,1736774116
89,17,7,Jits_ISO_8,0,1,48,38,1737205004
89,17,7,Jits_ISO_8,1,5,56,103,1737523544
89,17,7,Jits_ISO_8,2,5,80,127,1737533892
89,17,7,Jits_ISO_8,3,5,63,98,1737573828
89,17,7,Jits_ISO_8,0,1,48,44,1738005240
89,17,7,Jits_ISO_8,1,5,56,103,1738234100
89,17,7,Jits_ISO_8,2,5,63,98,1738253736
89,17,7,Jits_ISO_8,3,5,80,127,1738324612
89,17,7,Jits_ISO_8,0,1,48,37,1738785688
89,17,7,Jits_ISO_8,1,5,63,98,1739053656
89,17,7,Jits_ISO_8,2,5,80,127,1739113828
89,17,7,Jits_ISO_8,3,5,56,103,1739134660
89,17,7,Jits_ISO_8,0,1,48,37,1739663320
89,17,7,Jits_ISO_8,1,5,80,127,1739843848
89,17,7,Jits_ISO_8,2,5,56,103,1739873748
89,17,7,Jits_ISO_8,3,5,63,98,1739904472
89,17,7,Jits_ISO_8,0,1,48,34,1740494048
89,17,7,Jits_ISO_8,1,5,56,103,1740643780
89,17,7,Jits_ISO_8,2,5,63,98,1740704024
89,17,7,Jits_ISO_8,3,5,80,127,1740763444
89,17,7,Jits_ISO_8,0,1,48,38,1741321584
89,17,7,Jits_ISO_8,1,5,80,127,1741463868
89,17,7,Jits_ISO_8,2,5,56,103,1741484476
89,17,7,Jits_ISO_8,3,5,63,98,1741553960
89,17,7,Jits_ISO_8,0,1,48,38,1742162572
89,17,7,Jits_ISO_8,1,5,80,127,1742263724
89,17,7,Jits_ISO_8,2,5,63,98,1742284112
89,17,7,Jits_ISO_8,3,5,56,103,1742313960
89,17,7,Jits_ISO_8,0,5,80,127,1743054308
89,17,7,Jits_ISO_8,1,1,48,14,1743061692
89,17,7,Jits_ISO_8,2,5,63,98,1743073592
89,17,7,Jits_ISO_8,3,5,56,103,1743134132
89,17,7,Jits_ISO_8,0,1,48,33,1743798404
89,17,7,Jits_ISO_8,1,5,80,127,1743853900
89,17,7,Jits_ISO_8,2,5,56,103,1743954508
89,17,7,Jits_ISO_8,3,5,63,98,1743984036
89,17,7,Jits_ISO_8,0,5,63,98,1744643428
89,17,7,Jits_ISO_8,1,1,48,28,1744654344
89,17,7,Jits_ISO_8,2,5,80,127,1744693700
89,17,7,Jits_ISO_8,3,5,56,103,1744714012
89,17,7,Jits_ISO_8,0,1,48,38,1745411788
89,17,7,Jits_ISO_8,1,5,80,127,1745484184
89,17,7,Jits_ISO_8,2,5,56,103,1745513844
89,17,7,Jits_ISO_8,3,5,63,98,1745517132
89,17,7,Jits_ISO_8,0,1,48,38,1746256136
89,17,7,Jits_ISO_8,1,5,63,98,1746313556
89,17,7,Jits_ISO_8,2,5,56,103,1746353552
89,17,7,Jits_ISO_8,3,5,80,127,1746373864
89,17,7,Jits_ISO_8,0,5,80,127,1747053856
89,17,7,Jits_ISO_8,1,1,48,41,1747056900
89,17,7,Jits_ISO_8,2,5,63,98,1747133872
89,17,7,Jits_ISO_8,3,5,56,103,1747173672
89,17,7,Jits_ISO_8,0,5,63,98,1747874260
89,17,7,Jits_ISO_8,1,1,48,46,1747876124
89,17,7,Jits_ISO_8,2,5,80,127,1747954152
89,17,7,Jits_ISO_8,3,5,56,103,1747973400
89,17,7,Jits_ISO_8,0,1,48,44,1748694992
89,17,7,Jits_ISO_8,1,5,56,103,1748713780
89,17,7,Jits_ISO_8,2,5,63,98,1748723976
89,17,7,Jits_ISO_8,3,5,80,127,1748763988
89,17,7,Jits_ISO_8,0,5,56,103,1749433680
89,17,7,Jits_ISO_8,1,5,80,127,1749436744
89,17,7,Jits_ISO_8,2,1,48,40,1749508592
89,17,7,Jits_ISO_8,3,5,63,98,1749573948
89,17,7,Jits_ISO_8,0,5,56,103,1750224396
89,17,7,Jits_ISO_8,1,5,63,98,1750314264
89,17,7,Jits_ISO_8,2,1,48,43,1750332072
89,17,7,Jits_ISO_8,3,5,80,127,1750384160
89,17,7,Jits_ISO_8,0,1,48,44,1751083608
89,17,7,Jits_ISO_8,1,5,63,98,1751103860
89,17,7,Jits_ISO_8,2,5,80,127,1751107296
89,17,7,Jits_ISO_8,3,5,56,103,1751164472
89,17,7,Jits_ISO_8,0,1,48,37,1751888024
89,17,7,Jits_ISO_8,1,5,80,127,1751943500
89,17,7,Jits_ISO_8,2,5,56,103,1751963884
89,17,7,Jits_ISO_8,3,5,63,98,1751974528
89,17,7,Jits_ISO_8,0,5,56,103,1752654356
89,17,7,Jits_ISO_8,1,5,63,98,1752664408
89,17,7,Jits_ISO_8,2,1,48,41,1752690296
89,17,7,Jits_ISO_8,3,5,80,127,1752733932
89,17,7,Jits_ISO_8,0,1,48,43,1753433372
89,17,7,Jits_ISO_8,1,5,80,127,1753453924
89,17,7,Jits_ISO_8,2,5,56,103,1753504204
89,17,7,Jits_ISO_8,3,5,63,98,1753554240
89,17,7,Jits_ISO_8,0,1,48,43,1754205284
89,17,7,Jits_ISO_8,1,5,56,103,1754333492
89,17,7,Jits_ISO_8,2,5,63,98,1754343860
89,17,7,Jits_ISO_8,3,5,80,127,1754383724
89,17,7,Jits_ISO_8,0,1,48,40,1755057136
89,17,7,Jits_ISO_8,1,5,56,103,1755073880
89,17,7,Jits_ISO_8,2,5,63,98,1755113772
89,17,7,Jits_ISO_8,3,5,80,127,1755164256
89,17,7,Jits_ISO_8,0,1,48,42,1755823372
89,17,7,Jits_ISO_8,1,5,80,127,1755833656
89,17,7,Jits_ISO_8,2,5,56,103,1755883884
89,17,7,Jits_ISO_8,3,5,63,98,1755904568
89,17,7,Jits_ISO_8,0,1,48,46,1756617668
89,17,7,Jits_ISO_8,1,5,80,127,1756643724
89,17,7,Jits_ISO_8,2,5,63,98,1756704268
89,17,7,Jits_ISO_8,3,5,56,103,1756784272
89,17,7,Jits_ISO_8,0,5,80,127,1757424260
89,17,7,Jits_ISO_8,1,1,48,46,1757444764
89,17,7,Jits_ISO_8,2,5,56,103,1757463824
89,17,7,Jits_ISO_8,3,5,63,98,1757484504
89,17,7,Jits_ISO_8,0,1,48,46,1758187008
89,17,7,Jits_ISO_8,1,5,56,103,1758273800
89,17,7,Jits_ISO_8,2,5,80,127,1758284352
89,17,7,Jits_ISO_8,3,5,63,98,1758324068
89,17,7,Jits_ISO_8,0,1,48,44,1759000268
89,17,7,Jits_ISO_8,1,5,56,103,1759144368
89,17,7,Jits_ISO_8,2,5,63,98,1759184380
89,17,7,Jits_ISO_8,3,5,80,127,1759187744
89,17,7,Jits_ISO_8,0,5,63,98,1759833588
89,17,7,Jits_ISO_8,1,1,48,34,1759874276
89,17,7,Jits_ISO_8,2,5,80,127,1759875612
89,17,7,Jits_ISO_8,3,5,56,103,1759944172
89,17,7,Jits_ISO_8,0,1,48,35,1760618124
89,17,7,Jits_ISO_8,1,5,63,98,1760624072
89,17,7,Jits_ISO_8,2,5,56,103,1760703800
89,17,7,Jits_ISO_8,3,5,80,127,1760764348
89,17,7,Jits_ISO_8,0,1,48,35,1761387188
89,17,7,Jits_ISO_8,1,5,80,127,1761433896
89,17,7,Jits_ISO_8,2,5,63,98,1761484308
89,17,7,Jits_ISO_8,3,5,56,103,1761513784
89,17,7,Jits_ISO_8,0,1,48,41,1762208692
89,17,7,Jits_ISO_8,1,5,56,103,1762223412
89,17,7,Jits_ISO_8,2,5,63,98,1762273640
89,17,7,Jits_ISO_8,3,5,80,127,1762283836
89,17,7,Jits_ISO_8,0,1,48,44,1762988464
89,17,7,Jits_ISO_8,1,5,56,103,1763033524
89,17,7,Jits_ISO_8,2,5,63,98,1763144200
89,17,7,Jits_ISO_8,3,5,80,127,1763163464
89,17,7,Jits_ISO_8,0,5,63,98,1763834164
89,17,7,Jits_ISO_8,1,1,48,46,1763840052
89,17,7,Jits_ISO_8,2,5,80,127,1763884288
89,17,7,Jits_ISO_8,3,5,56,103,1763973360
89,17,7,Jits_ISO_8,0,5,63,98,1764623756
89,17,7,Jits_ISO_8,1,5,80,127,1764653508
89,17,7,Jits_ISO_8,2,1,48,39,1764680296
89,17,7,Jits_ISO_8,3,5,56,103,1764743564
89,17,7,Jits_ISO_8,0,5,63,98,1765423464
89,17,7,Jits_ISO_8,1,1,48,45,1765427628
89,17,7,Jits_ISO_8,2,5,56,103,1765433800
89,17,7,Jits_ISO_8,3,5,80,127,1765534184
89,17,7,Jits_ISO_8,0,1,48,47,1766193248
89,17,7,Jits_ISO_8,1,5,63,98,1766323620
89,17,7,Jits_ISO_8,2,5,80,127,1766354268
89,17,7,Jits_ISO_8,3,5,56,103,1766384120
89,17,7,Jits_ISO_8,0,1,48,41,1767013264
89,17,7,Jits_ISO_8,1,5,80,127,1767143968
89,17,7,Jits_ISO_8,2,5,63,98,1767154236
89,17,7,Jits_ISO_8,3,5,56,103,1767183840
89,17,7,Jits_ISO_8,0,1,48,34,1767831868
89,17,7,Jits_ISO_8,1,5,80,127,1767844324
89,17,7,Jits_ISO_8,2,5,63,98,1767863736
89,17,7,Jits_ISO_8,3,5,56,103,1767913816
89,17,7,Jits_ISO_8,0,1,48,43,1768561348
89,17,7,Jits_ISO_8,1,5,63,98,1768673636
89,17,7,Jits_ISO_8,2,5,80,127,1768734180
89,17,7,Jits_ISO_8,3,5,56,103,1768753444
89,17,7,Jits_ISO_8,0,1,48,46,1769291532
89,17,7,Jits_ISO_8,1,5,63,98,1769433316
89,17,7,Jits_ISO_8,2,5,56,103,1769483692
89,17,7,Jits_ISO_8,3,5,80,127,1769494112
89,17,7,Jits_ISO_8,0,1,48,42,1770002844
89,17,7,Jits_ISO_8,1,5,56,103,1770264136
89,17,7,Jits_ISO_8,2,5,80,127,1770274184
89,17,7,Jits_ISO_8,3,5,63,98,1770373456
89,17,7,Jits_ISO_8,0,1,48,39,1770856336
89,17,7,Jits_ISO_8,1,5,80,127,1771023612
89,17,7,Jits_ISO_8,2,5,63,98,1771034104
89,17,7,Jits_ISO_8,3,5,56,103,1771183352
89,17,7,Jits_ISO_8,0,1,48,37,1771710884
89,17,7,Jits_ISO_8,1,5,63,98,1771833656
89,17,7,Jits_ISO_8,2,5,80,127,1771873596
89,17,7,Jits_ISO_8,3,5,56,103,1771953392
89,17,7,Jits_ISO_8,0,1,48,32,1772605700
89,17,7,Jits_ISO_8,1,5,56,103,1772624456
89,17,7,Jits_ISO_8,2,5,80,127,1772723500
89,17,7,Jits_ISO_8,3,5,63,98,1772744256
89,17,7,Jits_ISO_8,0,1,48,36,1773421976
89,17,7,Jits_ISO_8,1,5,80,127,1773484328
89,17,7,Jits_ISO_8,2,5,56,103,1773493552
89,17,7,Jits_ISO_8,3,5,63,98,1773583848
89,17,7,Jits_ISO_8,0,1,48,20,1774276676
89,17,7,Jits_ISO_8,1,5,56,103,1774284120
89,17,7,Jits_ISO_8,2,5,63,98,1774303484
89,17,7,Jits_ISO_8,3,5,80,127,1774383412
89,17,7,Jits_ISO_8,0,1,48,39,1775032884
89,17,7,Jits_ISO_8,1,5,63,98,1775034456
89,17,7,Jits_ISO_8,2,5,56,103,1775124016
89,17,7,Jits_ISO_8,3,5,80,127,1775126932
89,17,7,Jits_ISO_8,0,1,48,36,1775782436
89,17,7,Jits_ISO_8,1,5,56,103,1775864072
89,17,7,Jits_ISO_8,2,5,80,127,1775923556
89,17,7,Jits_ISO_8,3,5,63,98,1775934196
89,17,7,Jits_ISO_8,0,1,48,39,1776627264
89,17,7,Jits_ISO_8,1,5,80,127,1776714060
89,17,7,Jits_ISO_8,2,5,56,103,1776725076
89,17,7,Jits_ISO_8,3,5,63,98,1776727976
89,17,7,Jits_ISO_8,0,1,48,40,1777455148
89,17,7,Jits_ISO_8,1,5,56,103,1777473900
89,17,7,Jits_ISO_8,2,5,80,127,1777484248
89,17,7,Jits_ISO_8,3,5,63,98,1777503584
89,17,7,Jits_ISO_8,0,1,48,39,1778200296
89,17,7,Jits_ISO_8,1,5,63,98,1778244012
89,17,7,Jits_ISO_8,2,5,80,127,1778304464
89,17,7,Jits_ISO_8,3,5,56,103,1778353472
89,17,7,Jits_ISO_8,0,1,48,35,1778994020
89,17,7,Jits_ISO_8,1,5,63,98,1779123500
89,17,7,Jits_ISO_8,2,5,56,103,1779134068
89,17,7,Jits_ISO_8,3,5,80,127,1779184072
89,17,7,Jits_ISO_8,0,1,48,37,1779781980
89,17,7,Jits_ISO_8,1,5,63,98,1779824104
89,17,7,Jits_ISO_8,2,5,80,127,1779843368
89,17,7,Jits_ISO_8,3,5,56,103,1779853564
89,17,7,Jits_ISO_8,0,1,48,45,1780560160
89,17,7,Jits_ISO_8,1,5,63,98,1780623804
89,17,7,Jits_ISO_8,2,5,80,127,1780627016
89,17,7,Jits_ISO_8,3,5,56,103,1780663652
89,17,7,Jits_ISO_8,0,1,48,39,1781361048
89,17,7,Jits_ISO_8,1,5,63,98,1781494232
89,17,7,Jits_ISO_8,2,5,80,127,1781524056
89,17,7,Jits_ISO_8,3,5,56,103,1781534180
89,17,7,Jits_ISO_8,0,5,56,103,1782243768
89,17,7,Jits_ISO_8,1,5,80,127,1782274416
89,17,7,Jits_ISO_8,2,1,48,40,1782301276
89,17,7,Jits_ISO_8,3,5,63,98,1782304084
89,17,7,Jits_ISO_8,0,1,48,38,1783039476
89,17,7,Jits_ISO_8,1,5,63,98,1783144088
89,17,7,Jits_ISO_8,2,5,56,103,1783183804
89,17,7,Jits_ISO_8,3,5,80,127,1783186720
89,17,7,Jits_ISO_8,0,1,48,38,1783821520
89,17,7,Jits_ISO_8,1,5,80,127,1783844164
89,17,7,Jits_ISO_8,2,5,56,103,1783923948
89,17,7,Jits_ISO_8,3,5,63,98,1783974296
89,17,7,Jits_ISO_8,0,5,80,127,1784623428
89,17,7,Jits_ISO_8,1,5,56,103,1784644108
89,17,7,Jits_ISO_8,2,1,48,35,1784695404
89,17,7,Jits_ISO_8,3,5,63,98,1784734088
89,17,7,Jits_ISO_8,0,1,48,38,1785463300
89,17,7,Jits_ISO_8,1,5,80,127,1785464948
89,17,7,Jits_ISO_8,2,5,63,98,1785503988
89,17,7,Jits_ISO_8,3,5,56,103,1785544000
89,17,7,Jits_ISO_8,0,1,48,29,1786233040
89,17,7,Jits_ISO_8,1,5,63,98,1786234388
89,17,7,Jits_ISO_8,2,5,80,127,1786293584
89,17,7,Jits_ISO_8,3,5,56,103,1786324232
89,17,7,Jits_ISO_8,0,1,48,28,1787033196
89,17,7,Jits_ISO_8,1,5,56,103,1787034844
89,17,7,Jits_ISO_8,2,5,80,127,1787063768
89,17,7,Jits_ISO_8,3,5,63,98,1787153988
89,17,7,Jits_ISO_8,0,1,48,32,1787813548
89,17,7,Jits_ISO_8,1,5,56,103,1787843992
89,17,7,Jits_ISO_8,2,5,80,127,1787953396
89,17,7,Jits_ISO_8,3,5,63,98,1787984264
89,17,7,Jits_ISO_8,0,1,48,32,1788652396
89,17,7,Jits_ISO_8,1,5,56,103,1788693780
89,17,7,Jits_ISO_8,2,5,63,98,1788754308
89,17,7,Jits_ISO_8,3,5,80,127,1788784056
89,17,7,Jits_ISO_8,0,5,56,103,1789464056
89,17,7,Jits_ISO_8,1,1,48,29,1789490020
89,17,7,Jits_ISO_8,2,5,63,98,1789533660
89,17,7,Jits_ISO_8,3,5,80,127,1789554044
89,17,7,Jits_ISO_8,0,5,80,127,1790234036
89,17,7,Jits_ISO_8,1,5,63,98,1790253376
89,17,7,Jits_ISO_8,2,1,48,35,1790295376
89,17,7,Jits_ISO_8,3,5,56,103,1790303568
89,17,7,Jits_ISO_8,0,9999,9999,9999,1695501424
89,17,7,Jits_ISO_8,1,9999,9999,9999,1696301124
89,17,7,Jits_ISO_8,2,9999,9999,9999,1697101944
89,17,7,Jits_ISO_8,3,9999,9999,9999,1697901652
89,17,7,Jits_ISO_8,4,9999,9999,9999,1698701432
89,17,7,Jits_ISO_8,5,9999,9999,9999,1699501144
89,17,7,Jits_ISO_8,6,9999,9999,9999,1700301900
89,17,7,Jits_ISO_8,7,9999,9999,9999,1701101632
89,17,7,Jits_ISO_8,8,9999,9999,9999,1701901424
89,17,7,Jits_ISO_8,9,9999,9999,9999,1702701116
89,17,7,Jits_ISO_8,10,9999,9999,9999,1703501880
89,17,7,Jits_ISO_8,11,9999,9999,9999,1704301664
89,17,7,Jits_ISO_8,12,9999,9999,9999,1705101380
89,17,7,Jits_ISO_8,13,9999,9999,9999,1705901172
89,17,7,Jits_ISO_8,14,9999,9999,9999,1706701916
89,17,7,Jits_ISO_8,15,9999,9999,9999,1707501652
89,17,7,Jits_ISO_8,16,9999,9999,9999,1708301420
89,17,7,Jits_ISO_8,17,9999,9999,9999,1709101148
89,17,7,Jits_ISO_8,18,9999,9999,9999,1709901888
89,17,7,Jits_ISO_8,19,9999,9999,9999,1710701672
89,17,7,Jits_ISO_8,20,9999,9999,9999,1711501400
89,17,7,Jits_ISO_8,21,9999,9999,9999,1712301108
89,17,7,Jits_ISO_8,22,9999,9999,9999,1713101928
89,17,7,Jits_ISO_8,23,9999,9999,9999,1713901660
89,17,7,Jits_ISO_8,24,9999,9999,9999,1714701368
89,17,7,Jits_ISO_8,25,9999,9999,9999,1715501152
89,17,7,Jits_ISO_8,26,9999,9999,9999,1716301908
89,17,7,Jits_ISO_8,27,9999,9999,9999,1717101620
89,17,7,Jits_ISO_8,28,9999,9999,9999,1717901400
89,17,7,Jits_ISO_8,29,9999,9999,9999,1718701116
89,17,7,Jits_ISO_8,30,9999,9999,9999,1719501944
89,17,7,Jits_ISO_8,31,9999,9999,9999,1720301680
89,17,7,Jits_ISO_8,32,9999,9999,9999,1721101388
89,17,7,Jits_ISO_8,33,9999,9999,9999,1721901156
89,17,7,Jits_ISO_8,34,9999,9999,9999,1722701932
89,17,7,Jits_ISO_8,35,9999,9999,9999,1723501672
89,17,7,Jits_ISO_8,36,9999,9999,9999,1724301372
89,17,7,Jits_ISO_8,37,9999,9999,9999,1725101136
89,17,7,Jits_ISO_8,38,9999,9999,9999,1725901908
89,17,7,Jits_ISO_8,39,9999,9999,9999,1726701656
89,17,7,Jits_ISO_8,40,9999,9999,9999,1727501384
89,17,7,Jits_ISO_8,41,9999,9999,9999,1728301108
89,17,7,Jits_ISO_8,42,9999,9999,9999,1729101908
89,17,7,Jits_ISO_8,43,9999,9999,9999,1729901620
89,17,7,Jits_ISO_8,44,9999,9999,9999,1730701408
89,17,7,Jits_ISO_8,45,9999,9999,9999,1731501172
89,17,7,Jits_ISO_8,46,9999,9999,9999,1732301876
89,17,7,Jits_ISO_8,47,9999,9999,9999,1733101668
89,17,7,Jits_ISO_8,48,9999,9999,9999,1733901376
89,17,7,Jits_ISO_8,49,9999,9999,9999,1734701156
89,17,7,Jits_ISO_8,50,9999,9999,9999,1735501908
89,17,7,Jits_ISO_8,51,9999,9999,9999,1736301668
89,17,7,Jits_ISO_8,52,9999,9999,9999,1737101400
89,17,7,Jits_ISO_8,53,9999,9999,9999,1737901116
89,17,7,Jits_ISO_8,54,9999,9999,9999,1738701944
89,17,7,Jits_ISO_8,55,9999,9999,9999,1739501676
89,17,7,Jits_ISO_8,56,9999,9999,9999,1740301380
89,17,7,Jits_ISO_8,57,9999,9999,9999,1741101164
89,17,7,Jits_ISO_8,58,9999,9999,9999,1741901920
89,17,7,Jits_ISO_8,59,9999,9999,9999,1742701628
89,17,7,Jits_ISO_8,60,9999,9999,9999,1743501408
89,17,7,Jits_ISO_8,61,9999,9999,9999,1744301136
89,17,7,Jits_ISO_8,62,9999,9999,9999,1745101888
89,17,7,Jits_ISO_8,63,9999,9999,9999,1745901684
89,17,7,Jits_ISO_8,64,9999,9999,9999,1746701400
89,17,7,Jits_ISO_8,65,9999,9999,9999,1747501108
89,17,7,Jits_ISO_8,66,9999,9999,9999,1748301884
89,17,7,Jits_ISO_8,67,9999,9999,9999,1749101672
89,17,7,Jits_ISO_8,68,9999,9999,9999,1749901368
89,17,7,Jits_ISO_8,69,9999,9999,9999,1750701172
89,17,7,Jits_ISO_8,70,9999,9999,9999,1751501936
89,17,7,Jits_ISO_8,71,9999,9999,9999,1752301676
89,17,7,Jits_ISO_8,72,9999,9999,9999,1753101380
89,17,7,Jits_ISO_8,73,9999,9999,9999,1753901108
89,17,7,Jits_ISO_8,74,9999,9999,9999,1754701944
89,17,7,Jits_ISO_8,75,9999,9999,9999,1755501656
89,17,7,Jits_ISO_8,76,9999,9999,9999,1756301436
89,17,7,Jits_ISO_8,77,9999,9999,9999,1757101148
89,17,7,Jits_ISO_8,78,9999,9999,9999,1757901896
89,17,7,Jits_ISO_8,79,9999,9999,9999,1758701648
89,17,7,Jits_ISO_8,80,9999,9999,9999,1759501428
89,17,7,Jits_ISO_8,81,9999,9999,9999,1760301140
89,17,7,Jits_ISO_8,82,9999,9999,9999,1761101896
89,17,7,Jits_ISO_8,83,9999,9999,9999,1761901676
89,17,7,Jits_ISO_8,84,9999,9999,9999,1762701380
89,17,7,Jits_ISO_8,85,9999,9999,9999,1763501160
89,17,7,Jits_ISO_8,86,9999,9999,9999,1764301916
89,17,7,Jits_ISO_8,87,9999,9999,9999,1765101648
89,17,7,Jits_ISO_8,88,9999,9999,9999,1765901424
89,17,7,Jits_ISO_8,89,9999,9999,9999,1766701144
89,17,7,Jits_ISO_8,90,9999,9999,9999,1767501908
89,17,7,Jits_ISO_8,91,9999,9999,9999,1768301688
89,17,7,Jits_ISO_8,92,9999,9999,9999,1769101404
89,17,7,Jits_ISO_8,93,9999,9999,9999,1769901108
89,17,7,Jits_ISO_8,94,9999,9999,9999,1770701940
89,17,7,Jits_ISO_8,95,9999,9999,9999,1771501672
89,17,7,Jits_ISO_8,96,9999,9999,9999,1772301376
89,17,7,Jits_ISO_8,97,9999,9999,9999,1773101160
89,17,7,Jits_ISO_8,98,9999,9999,9999,1773901920
89,17,7,Jits_ISO_8,99,9999,9999,9999,1774701632
89,17,7,Jits_ISO_8,100,9999,9999,9999,1775501404
89,17,7,Jits_ISO_8,101,9999,9999,9999,1776301116
89,17,7,Jits_ISO_8,102,9999,9999,9999,1777101940
89,17,7,Jits_ISO_8,103,9999,9999,9999,1777901672
89,17,7,Jits_ISO_8,104,9999,9999,9999,1778701384
89,17,7,Jits_ISO_8,105,9999,9999,9999,1779501172
89,17,7,Jits_ISO_8,106,9999,9999,9999,1780301920
89,17,7,Jits_ISO_8,107,9999,9999,9999,1781101684
89,17,7,Jits_ISO_8,108,9999,9999,9999,1781901396
89,17,7,Jits_ISO_8,109,9999,9999,9999,1782701176
89,17,7,Jits_ISO_8,110,9999,9999,9999,1783501948
89,17,7,Jits_ISO_8,111,9999,9999,9999,1784301684
89,17,7,Jits_ISO_8,112,9999,9999,9999,1785101388
89,17,7,Jits_ISO_8,113,9999,9999,9999,1785901116
89,17,7,Jits_ISO_8,114,9999,9999,9999,1786701944
89,17,7,Jits_ISO_8,115,9999,9999,9999,1787501652
89,17,7,Jits_ISO_8,116,9999,9999,9999,1788301364
89,17,7,Jits_ISO_8,117,9999,9999,9999,1789101156
89,17,7,Jits_ISO_8,118,9999,9999,9999,1789901916
89,17,7,Jits_ISO_8,119,9999,9999,9999,1790701656
89,18,17,Jits_Phase_5,0,5,56,103,1798555952
89,18,17,Jits_Phase_5,1,5,63,98,1798559048
89,18,17,Jits_Phase_5,2,5,80,127,1798562320
89,18,17,Jits_Phase_5,0,5,56,103,1799055732
89,18,17,Jits_Phase_5,1,5,63,98,1799058828
89,18,17,Jits_Phase_5,2,5,80,127,1799062028
89,18,17,Jits_Phase_5,0,5,56,103,1799555384
89,18,17,Jits_Phase_5,1,5,80,127,1799565652
89,18,17,Jits_Phase_5,2,5,63,98,1799586112
89,18,17,Jits_Phase_5,0,5,63,98,1800006040
89,18,17,Jits_Phase_5,1,5,80,127,1800035864
89,18,17,Jits_Phase_5,2,5,56,103,1800045908
89,18,17,Jits_Phase_5,0,1,48,46,1800470420
89,18,17,Jits_Phase_5,1,5,80,127,1800566128
89,18,17,Jits_Phase_5,2,5,56,103,1800576532
89,18,17,Jits_Phase_5,3,5,63,98,1800606056
89,18,17,Jits_Phase_5,0,1,48,43,1800955500
89,18,17,Jits_Phase_5,1,5,63,98,1801055676
89,18,17,Jits_Phase_5,2,5,56,103,1801086396
89,18,17,Jits_Phase_5,3,5,80,127,1801095768
89,18,17,Jits_Phase_5,0,1,48,43,1801483576
89,18,17,Jits_Phase_5,1,5,56,103,1801506072
89,18,17,Jits_Phase_5,2,5,63,98,1801556200
89,18,17,Jits_Phase_5,3,5,80,127,1801575760
89,18,17,Jits_Phase_5,0,1,48,42,1801992824
89,18,17,Jits_Phase_5,1,5,80,127,1802005820
89,18,17,Jits_Phase_5,2,5,63,98,1802055948
89,18,17,Jits_Phase_5,3,5,56,103,1802095868
89,18,17,Jits_Phase_5,0,5,56,103,1802505800
89,18,17,Jits_Phase_5,1,1,48,40,1802518360
89,18,17,Jits_Phase_5,2,5,63,98,1802536220
89,18,17,Jits_Phase_5,3,5,80,127,1802605824
89,18,17,Jits_Phase_5,0,5,56,103,1803006388
89,18,17,Jits_Phase_5,1,1,48,40,1803021112
89,18,17,Jits_Phase_5,2,5,80,127,1803065648
89,18,17,Jits_Phase_5,3,5,63,98,1803096368
89,18,17,Jits_Phase_5,0,5,56,103,1803516268
89,18,17,Jits_Phase_5,1,5,63,98,1803525716
89,18,17,Jits_Phase_5,2,1,48,39,1803543356
89,18,17,Jits_Phase_5,3,5,80,127,1803565568
89,18,17,Jits_Phase_5,0,5,63,98,1804005768
89,18,17,Jits_Phase_5,1,5,80,127,1804085560
89,18,17,Jits_Phase_5,2,1,48,34,1804086528
89,18,17,Jits_Phase_5,3,5,56,103,1804095972
89,18,17,Jits_Phase_5,0,5,63,98,1804555712
89,18,17,Jits_Phase_5,1,5,56,103,1804595796
89,18,17,Jits_Phase_5,2,5,80,127,1804598788
89,18,17,Jits_Phase_5,3,1,48,33,1804603324
89,18,17,Jits_Phase_5,0,5,56,103,1805016544
89,18,17,Jits_Phase_5,1,5,63,98,1805025644
89,18,17,Jits_Phase_5,2,5,80,127,1805065580
89,18,17,Jits_Phase_5,3,1,48,37,1805120756
89,18,17,Jits_Phase_5,0,5,56,103,1805506036
89,18,17,Jits_Phase_5,1,5,63,98,1805509180
89,18,17,Jits_Phase_5,2,5,80,127,1805526496
89,18,17,Jits_Phase_5,3,1,48,39,1805595340
89,18,17,Jits_Phase_5,0,5,80,127,1806015828
89,18,17,Jits_Phase_5,1,5,56,103,1806026024
89,18,17,Jits_Phase_5,2,1,48,39,1806089096
89,18,17,Jits_Phase_5,3,5,63,98,1806095716
89,18,17,Jits_Phase_5,0,5,63,98,1806506596
89,18,17,Jits_Phase_5,1,5,56,103,1806525712
89,18,17,Jits_Phase_5,2,1,48,41,1806590728
89,18,17,Jits_Phase_5,3,5,80,127,1806605744
89,18,17,Jits_Phase_5,0,5,56,103,1807016600
89,18,17,Jits_Phase_5,1,1,48,44,1807052156
89,18,17,Jits_Phase_5,2,5,80,127,1807056528
89,18,17,Jits_Phase_5,3,5,63,98,1807065528
89,18,17,Jits_Phase_5,0,5,80,127,1807505700
89,18,17,Jits_Phase_5,1,1,48,40,1807527476
89,18,17,Jits_Phase_5,2,5,63,98,1807535740
89,18,17,Jits_Phase_5,3,5,56,103,1807576648
89,18,17,Jits_Phase_5,0,1,48,43,1808023100
89,18,17,Jits_Phase_5,1,5,56,103,1808025832
89,18,17,Jits_Phase_5,2,5,63,98,1808055656
89,18,17,Jits_Phase_5,3,5,80,127,1808105880
89,18,17,Jits_Phase_5,0,5,80,127,1808525588
89,18,17,Jits_Phase_5,1,1,48,34,1808536728
89,18,17,Jits_Phase_5,2,5,56,103,1808565592
89,18,17,Jits_Phase_5,3,5,63,98,1808575940
89,18,17,Jits_Phase_5,0,5,80,127,1809005872
89,18,17,Jits_Phase_5,1,1,48,45,1809043368
89,18,17,Jits_Phase_5,2,5,63,98,1809045804
89,18,17,Jits_Phase_5,3,5,56,103,1809106264
89,18,17,Jits_Phase_5,0,5,56,103,1809505636
89,18,17,Jits_Phase_5,1,5,80,127,1809515904
89,18,17,Jits_Phase_5,2,1,48,46,1809537380
89,18,17,Jits_Phase_5,3,5,63,98,1809595616
89,18,17,Jits_Phase_5,0,5,80,127,1810006664
89,18,17,Jits_Phase_5,1,1,48,45,1810009036
89,18,17,Jits_Phase_5,2,5,63,98,1810065776
89,18,17,Jits_Phase_5,3,5,56,103,1810095600
89,18,17,Jits_Phase_5,0,1,48,45,1810498304
89,18,17,Jits_Phase_5,1,5,56,103,1810516612
89,18,17,Jits_Phase_5,2,5,80,127,1810575656
89,18,17,Jits_Phase_5,3,5,63,98,1810615728
89,18,17,Jits_Phase_5,0,1,48,47,1811011688
89,18,17,Jits_Phase_5,1,5,56,103,1811066108
89,18,17,Jits_Phase_5,2,5,63,98,1811075552
89,18,17,Jits_Phase_5,3,5,80,127,1811078696
89,18,17,Jits_Phase_5,0,1,48,40,1811493884
89,18,17,Jits_Phase_5,1,5,80,127,1811515804
89,18,17,Jits_Phase_5,2,5,63,98,1811605920
89,18,17,Jits_Phase_5,3,5,56,103,1811616112
89,18,17,Jits_Phase_5,0,1,48,44,1812005568
89,18,17,Jits_Phase_5,1,5,56,103,1812015612
89,18,17,Jits_Phase_5,2,5,63,98,1812018560
89,18,17,Jits_Phase_5,3,5,80,127,1812021908
89,18,17,Jits_Phase_5,0,1,48,44,1812479584
89,18,17,Jits_Phase_5,1,5,80,127,1812535656
89,18,17,Jits_Phase_5,2,5,63,98,1812585768
89,18,17,Jits_Phase_5,3,5,56,103,1812615664
89,18,17,Jits_Phase_5,0,1,48,43,1812994408
89,18,17,Jits_Phase_5,1,5,56,103,1813015856
89,18,17,Jits_Phase_5,2,5,80,127,1813026052
89,18,17,Jits_Phase_5,3,5,63,98,1813095716
89,18,17,Jits_Phase_5,0,1,48,43,1813494376
89,18,17,Jits_Phase_5,1,5,56,103,1813525792
89,18,17,Jits_Phase_5,2,5,63,98,1813546400
89,18,17,Jits_Phase_5,3,5,80,127,1813605724
89,18,17,Jits_Phase_5,0,1,48,43,1813971392
89,18,17,Jits_Phase_5,1,5,80,127,1814006580
89,18,17,Jits_Phase_5,2,5,63,98,1814075800
89,18,17,Jits_Phase_5,3,5,56,103,1814096112
89,18,17,Jits_Phase_5,0,1,48,45,1814502032
89,18,17,Jits_Phase_5,1,5,80,127,1814526564
89,18,17,Jits_Phase_5,2,5,56,103,1814535416
89,18,17,Jits_Phase_5,3,5,63,98,1814545908
89,18,17,Jits_Phase_5,0,5,80,127,1815015756
89,18,17,Jits_Phase_5,1,1,48,40,1815031084
89,18,17,Jits_Phase_5,2,5,56,103,1815036356
89,18,17,Jits_Phase_5,3,5,63,98,1815105812
89,18,17,Jits_Phase_5,0,1,48,37,1815524960
89,18,17,Jits_Phase_5,1,5,56,103,1815526528
89,18,17,Jits_Phase_5,2,5,80,127,1815555604
89,18,17,Jits_Phase_5,3,5,63,98,1815575912
89,18,17,Jits_Phase_5,0,5,63,98,1816016444
89,18,17,Jits_Phase_5,1,1,48,39,1816042060
89,18,17,Jits_Phase_5,2,5,56,103,1816075656
89,18,17,Jits_Phase_5,3,5,80,127,1816106524
89,18,17,Jits_Phase_5,0,5,63,98,1816505780
89,18,17,Jits_Phase_5,1,5,80,127,1816508996
89,18,17,Jits_Phase_5,2,1,48,39,1816538492
89,18,17,Jits_Phase_5,3,5,56,103,1816595924
89,18,17,Jits_Phase_5,0,5,56,103,1817025972
89,18,17,Jits_Phase_5,1,5,63,98,1817055596
89,18,17,Jits_Phase_5,2,1,48,31,1817073316
89,18,17,Jits_Phase_5,3,5,80,127,1817095600
89,18,17,Jits_Phase_5,0,5,63,98,1817525656
89,18,17,Jits_Phase_5,1,1,48,40,1817564644
89,18,17,Jits_Phase_5,2,5,56,103,1817566132
89,18,17,Jits_Phase_5,3,5,80,127,1817586072
89,18,17,Jits_Phase_5,0,5,63,98,1818035452
89,18,17,Jits_Phase_5,1,1,48,44,1818060820
89,18,17,Jits_Phase_5,2,5,56,103,1818075480
89,18,17,Jits_Phase_5,3,5,80,127,1818085676
89,18,17,Jits_Phase_5,0,5,80,127,1818516168
89,18,17,Jits_Phase_5,1,1,48,38,1818556900
89,18,17,Jits_Phase_5,2,5,63,98,1818585396
89,18,17,Jits_Phase_5,3,5,56,103,1818605876
89,18,17,Jits_Phase_5,0,5,56,103,1819006492
89,18,17,Jits_Phase_5,1,5,80,127,1819025756
89,18,17,Jits_Phase_5,2,1,48,42,1819040184
89,18,17,Jits_Phase_5,3,5,63,98,1819065612
89,18,17,Jits_Phase_5,4,1,48,14,1819146428
89,18,17,Jits_Phase_5,0,5,63,98,1819516548
89,18,17,Jits_Phase_5,1,5,80,127,1819535588
89,18,17,Jits_Phase_5,2,1,48,35,1819545904
89,18,17,Jits_Phase_5,3,5,56,103,1819575520
89,18,17,Jits_Phase_5,0,5,63,98,1820016000
89,18,17,Jits_Phase_5,1,5,56,103,1820035340
89,18,17,Jits_Phase_5,2,5,80,127,1820045536
89,18,17,Jits_Phase_5,3,1,48,35,1820052244
89,18,17,Jits_Phase_5,0,5,80,127,1820515672
89,18,17,Jits_Phase_5,1,5,56,103,1820536652
89,18,17,Jits_Phase_5,2,1,48,36,1820539032
89,18,17,Jits_Phase_5,3,5,63,98,1820565952
89,18,17,Jits_Phase_5,0,1,48,37,1821057584
89,18,17,Jits_Phase_5,1,5,56,103,1821086152
89,18,17,Jits_Phase_5,2,5,80,127,1821089296
89,18,17,Jits_Phase_5,3,5,63,98,1821105564
89,18,17,Jits_Phase_5,0,5,63,98,1821506044
89,18,17,Jits_Phase_5,1,5,56,103,1821535568
89,18,17,Jits_Phase_5,2,1,48,42,1821565808
89,18,17,Jits_Phase_5,3,5,80,127,1821595876
89,18,17,Jits_Phase_5,0,1,48,39,1822054912
89,18,17,Jits_Phase_5,1,5,63,98,1822085428
89,18,17,Jits_Phase_5,2,5,56,103,1822095696
89,18,17,Jits_Phase_5,3,5,80,127,1822105892
89,18,17,Jits_Phase_5,0,5,56,103,1822546380
89,18,17,Jits_Phase_5,1,5,80,127,1822576200
89,18,17,Jits_Phase_5,2,1,48,43,1822585576
89,18,17,Jits_Phase_5,3,5,63,98,1822587216
89,18,17,Jits_Phase_5,0,1,48,39,1823079076
89,18,17,Jits_Phase_5,1,5,63,98,1823085920
89,18,17,Jits_Phase_5,2,5,56,103,1823096416
89,18,17,Jits_Phase_5,3,5,80,127,1823115528
89,18,17,Jits_Phase_5,0,5,56,103,1823516004
89,18,17,Jits_Phase_5,1,5,63,98,1823576392
89,18,17,Jits_Phase_5,2,5,80,127,1823579684
89,18,17,Jits_Phase_5,3,1,48,43,1823585208
89,18,17,Jits_Phase_5,0,5,80,127,1824036436
89,18,17,Jits_Phase_5,1,5,56,103,1824045436
89,18,17,Jits_Phase_5,2,1,48,36,1824066764
89,18,17,Jits_Phase_5,3,5,63,98,1824115932
89,18,17,Jits_Phase_5,0,5,80,127,1824525640
89,18,17,Jits_Phase_5,1,1,48,40,1824559248
89,18,17,Jits_Phase_5,2,5,56,103,1824596580
89,18,17,Jits_Phase_5,3,5,63,98,1824605508
89,18,17,Jits_Phase_5,0,5,63,98,1825066532
89,18,17,Jits_Phase_5,1,1,48,37,1825075980
89,18,17,Jits_Phase_5,2,5,56,103,1825077168
89,18,17,Jits_Phase_5,3,5,80,127,1825096060
89,18,17,Jits_Phase_5,0,5,80,127,1825515940
89,18,17,Jits_Phase_5,1,1,48,44,1825533964
89,18,17,Jits_Phase_5,2,5,63,98,1825576248
89,18,17,Jits_Phase_5,3,5,56,103,1825616184
89,18,17,Jits_Phase_5,0,5,56,103,1826055488
89,18,17,Jits_Phase_5,1,1,48,36,1826056972
89,18,17,Jits_Phase_5,2,5,63,98,1826065752
89,18,17,Jits_Phase_5,3,5,80,127,1826105688
89,18,17,Jits_Phase_5,0,5,56,103,1826516344
89,18,17,Jits_Phase_5,1,5,80,127,1826546416
89,18,17,Jits_Phase_5,2,1,48,40,1826549756
89,18,17,Jits_Phase_5,3,5,63,98,1826596532
89,18,17,Jits_Phase_5,0,1,48,33,1827036552
89,18,17,Jits_Phase_5,1,5,56,103,1827056056
89,18,17,Jits_Phase_5,2,5,63,98,1827095916
89,18,17,Jits_Phase_5,3,5,80,127,1827099356
89,18,17,Jits_Phase_5,0,1,48,38,1827515672
89,18,17,Jits_Phase_5,1,5,56,103,1827555652
89,18,17,Jits_Phase_5,2,5,63,98,1827565996
89,18,17,Jits_Phase_5,3,5,80,127,1827586380
89,18,17,Jits_Phase_5,0,5,56,103,1828015452
89,18,17,Jits_Phase_5,1,5,80,127,1828018592
89,18,17,Jits_Phase_5,2,1,48,39,1828047412
89,18,17,Jits_Phase_5,3,5,63,98,1828056424
89,18,17,Jits_Phase_5,0,1,48,39,1828542856
89,18,17,Jits_Phase_5,1,5,63,98,1828556076
89,18,17,Jits_Phase_5,2,5,56,103,1828585776
89,18,17,Jits_Phase_5,3,5,80,127,1828606528
89,18,17,Jits_Phase_5,0,5,80,127,1829026240
89,18,17,Jits_Phase_5,1,5,56,103,1829036508
89,18,17,Jits_Phase_5,2,5,63,98,1829045508
89,18,17,Jits_Phase_5,3,1,48,39,1829065412
89,18,17,Jits_Phase_5,0,5,56,103,1829525924
89,18,17,Jits_Phase_5,1,1,48,35,1829556164
89,18,17,Jits_Phase_5,2,5,80,127,1829565780
89,18,17,Jits_Phase_5,3,5,63,98,1829595404
89,18,17,Jits_Phase_5,0,5,63,98,1830035728
89,18,17,Jits_Phase_5,1,5,80,127,1830046000
89,18,17,Jits_Phase_5,2,5,56,103,1830056420
89,18,17,Jits_Phase_5,3,1,48,36,1830078868
89,18,17,Jits_Phase_5,0,5,56,103,1830526336
89,18,17,Jits_Phase_5,1,1,48,45,1830538600
89,18,17,Jits_Phase_5,2,5,63,98,1830596384
89,18,17,Jits_Phase_5,3,5,80,127,1830606428
89,18,17,Jits_Phase_5,0,5,80,127,1831036588
89,18,17,Jits_Phase_5,1,5,56,103,1831045364
89,18,17,Jits_Phase_5,2,1,48,45,1831056276
89,18,17,Jits_Phase_5,3,5,63,98,1831095632
89,18,17,Jits_Phase_5,0,5,80,127,1831546464
89,18,17,Jits_Phase_5,1,1,48,41,1831578732
89,18,17,Jits_Phase_5,2,5,56,103,1831605580
89,18,17,Jits_Phase_5,3,5,63,98,1831636372
89,18,17,Jits_Phase_5,0,5,56,103,1832045860
89,18,17,Jits_Phase_5,1,5,80,127,1832049148
89,18,17,Jits_Phase_5,2,1,48,40,1832073336
89,18,17,Jits_Phase_5,3,5,63,98,1832085788
89,18,17,Jits_Phase_5,0,5,56,103,1832576328
89,18,17,Jits_Phase_5,1,1,48,43,1832602216
89,18,17,Jits_Phase_5,2,5,63,98,1832606292
89,18,17,Jits_Phase_5,3,5,80,127,1832616412
89,18,17,Jits_Phase_5,0,1,48,47,1833082420
89,18,17,Jits_Phase_5,1,5,63,98,1833086200
89,18,17,Jits_Phase_5,2,5,80,127,1833095424
89,18,17,Jits_Phase_5,3,5,56,103,1833105768
89,18,17,Jits_Phase_5,0,5,80,127,1833535764
89,18,17,Jits_Phase_5,1,5,56,103,1833585964
89,18,17,Jits_Phase_5,2,5,63,98,1833589032
89,18,17,Jits_Phase_5,3,1,48,44,1833633348
89,18,17,Jits_Phase_5,0,5,56,103,1834066308
89,18,17,Jits_Phase_5,1,5,80,127,1834085644
89,18,17,Jits_Phase_5,2,5,63,98,1834095916
89,18,17,Jits_Phase_5,3,1,48,41,1834110344
89,18,17,Jits_Phase_5,0,5,63,98,1834545472
89,18,17,Jits_Phase_5,1,1,48,41,1834571728
89,18,17,Jits_Phase_5,2,5,56,103,1834576184
89,18,17,Jits_Phase_5,3,5,80,127,1834595820
89,18,17,Jits_Phase_5,0,1,48,40,1835055632
89,18,17,Jits_Phase_5,1,5,56,103,1835056896
89,18,17,Jits_Phase_5,2,5,80,127,1835065748
89,18,17,Jits_Phase_5,3,5,63,98,1835136324
89,18,17,Jits_Phase_5,0,5,63,98,1835546016
89,18,17,Jits_Phase_5,1,5,80,127,1835585956
89,18,17,Jits_Phase_5,2,1,48,38,1835587368
89,18,17,Jits_Phase_5,3,5,56,103,1835625736
89,18,17,Jits_Phase_5,0,5,56,103,1836056028
89,18,17,Jits_Phase_5,1,5,63,98,1836066224
89,18,17,Jits_Phase_5,2,5,80,127,1836085564
89,18,17,Jits_Phase_5,3,1,48,40,1836090024
89,18,17,Jits_Phase_5,0,1,48,34,1836588200
89,18,17,Jits_Phase_5,1,5,63,98,1836595716
89,18,17,Jits_Phase_5,2,5,80,127,1836616472
89,18,17,Jits_Phase_5,3,5,56,103,1836635436
89,18,17,Jits_Phase_5,0,5,56,103,1837035912
89,18,17,Jits_Phase_5,1,5,80,127,1837115632
89,18,17,Jits_Phase_5,2,1,48,33,1837118752
89,18,17,Jits_Phase_5,3,5,63,98,1837126192
89,18,17,Jits_Phase_5,0,5,80,127,1837575612
89,18,17,Jits_Phase_5,1,5,63,98,1837585660
89,18,17,Jits_Phase_5,2,1,48,40,1837612592
89,18,17,Jits_Phase_5,3,5,56,103,1837615548
89,18,17,Jits_Phase_5,0,5,63,98,1838036320
89,18,17,Jits_Phase_5,1,5,80,127,1838076208
89,18,17,Jits_Phase_5,2,1,48,39,1838099928
89,18,17,Jits_Phase_5,3,5,56,103,1838135616
89,18,17,Jits_Phase_5,0,5,63,98,1838546256
89,18,17,Jits_Phase_5,1,5,56,103,1838595584
89,18,17,Jits_Phase_5,2,1,48,43,1838617664
89,18,17,Jits_Phase_5,3,5,80,127,1838626300
89,18,17,Jits_Phase_5,0,5,80,127,1839046232
89,18,17,Jits_Phase_5,1,5,63,98,1839056428
89,18,17,Jits_Phase_5,2,1,48,40,1839101072
89,18,17,Jits_Phase_5,3,5,56,103,1839125976
89,18,17,Jits_Phase_5,0,5,80,127,1839606328
89,18,17,Jits_Phase_5,1,5,56,103,1839616300
89,18,17,Jits_Phase_5,2,1,48,31,1839618260
89,18,17,Jits_Phase_5,3,5,63,98,1839620556
89,18,17,Jits_Phase_5,0,5,56,103,1840045388
89,18,17,Jits_Phase_5,1,5,80,127,1840066140
89,18,17,Jits_Phase_5,2,5,63,98,1840076116
89,18,17,Jits_Phase_5,3,1,48,44,1840121128
89,18,17,Jits_Phase_5,0,5,63,98,1840556384
89,18,17,Jits_Phase_5,1,5,56,103,1840596320
89,18,17,Jits_Phase_5,2,1,48,41,1840610628
89,18,17,Jits_Phase_5,3,5,80,127,1840615900
89,18,17,Jits_Phase_5,0,5,63,98,1841056360
89,18,17,Jits_Phase_5,1,5,56,103,1841115504
89,18,17,Jits_Phase_5,2,5,80,127,1841118792
89,18,17,Jits_Phase_5,3,1,48,35,1841120284
89,18,17,Jits_Phase_5,0,5,56,103,1841516024
89,18,17,Jits_Phase_5,1,5,80,127,1841536332
89,18,17,Jits_Phase_5,2,5,63,98,1841576416
89,18,17,Jits_Phase_5,3,1,48,45,1841612048
89,18,17,Jits_Phase_5,0,5,56,103,1842046276
89,18,17,Jits_Phase_5,1,5,63,98,1842065912
89,18,17,Jits_Phase_5,2,5,80,127,1842076108
89,18,17,Jits_Phase_5,3,1,48,40,1842080200
89,18,17,Jits_Phase_5,0,5,80,127,1842516300
89,18,17,Jits_Phase_5,1,5,56,103,1842546120
89,18,17,Jits_Phase_5,2,5,63,98,1842586060
89,18,17,Jits_Phase_5,3,1,48,39,1842591120
89,18,17,Jits_Phase_5,0,5,80,127,1843026248
89,18,17,Jits_Phase_5,1,5,56,103,1843045736
89,18,17,Jits_Phase_5,2,1,48,45,1843063304
89,18,17,Jits_Phase_5,3,5,63,98,1843106192
89,18,17,Jits_Phase_5,0,5,56,103,1843536276
89,18,17,Jits_Phase_5,1,5,80,127,1843555836
89,18,17,Jits_Phase_5,2,1,48,46,1843561580
89,18,17,Jits_Phase_5,3,5,63,98,1843616368
89,18,17,Jits_Phase_5,0,5,80,127,1844015440
89,18,17,Jits_Phase_5,1,5,56,103,1844025860
89,18,17,Jits_Phase_5,2,1,48,39,1844050624
89,18,17,Jits_Phase_5,3,5,63,98,1844065640
89,18,17,Jits_Phase_5,0,5,63,98,1844516096
89,18,17,Jits_Phase_5,1,5,56,103,1844556256
89,18,17,Jits_Phase_5,2,5,80,127,1844559396
89,18,17,Jits_Phase_5,3,1,48,43,1844563192
89,18,17,Jits_Phase_5,0,5,63,98,1845036360
89,18,17,Jits_Phase_5,1,1,48,37,1845037324
89,18,17,Jits_Phase_5,2,5,80,127,1845076288
89,18,17,Jits_Phase_5,3,5,56,103,1845106112
89,18,17,Jits_Phase_5,0,5,56,103,1845526068
89,18,17,Jits_Phase_5,1,5,63,98,1845536192
89,18,17,Jits_Phase_5,2,1,48,40,1845547700
89,18,17,Jits_Phase_5,3,5,80,127,1845565784
89,18,17,Jits_Phase_5,0,5,80,127,1846016312
89,18,17,Jits_Phase_5,1,1,48,42,1846022048
89,18,17,Jits_Phase_5,2,5,63,98,1846086212
89,18,17,Jits_Phase_5,3,5,56,103,1846096184
89,18,17,Jits_Phase_5,0,5,63,98,1846516152
89,18,17,Jits_Phase_5,1,1,48,43,1846528784
89,18,17,Jits_Phase_5,2,5,56,103,1846585900
89,18,17,Jits_Phase_5,3,5,80,127,1846596244
89,18,17,Jits_Phase_5,0,5,63,98,1846996320
89,18,17,Jits_Phase_5,1,1,48,42,1846999812
89,18,17,Jits_Phase_5,2,5,56,103,1847015900
89,18,17,Jits_Phase_5,3,5,80,127,1847055688
89,18,17,Jits_Phase_5,0,5,56,103,1847475472
89,18,17,Jits_Phase_5,1,5,63,98,1847485668
89,18,17,Jits_Phase_5,2,1,48,37,1847503760
89,18,17,Jits_Phase_5,3,5,80,127,1847565552
89,18,17,Jits_Phase_5,0,5,63,98,1847966088
89,18,17,Jits_Phase_5,1,1,48,40,1847992872
89,18,17,Jits_Phase_5,2,5,56,103,1847995756
89,18,17,Jits_Phase_5,3,5,80,127,1848035640
89,18,17,Jits_Phase_5,0,5,56,103,1848465756
89,18,17,Jits_Phase_5,1,1,48,34,1848474572
89,18,17,Jits_Phase_5,2,5,63,98,1848505688
89,18,17,Jits_Phase_5,3,5,80,127,1848545648
89,18,17,Jits_Phase_5,0,5,80,127,1848965444
89,18,17,Jits_Phase_5,1,1,48,38,1848986848
89,18,17,Jits_Phase_5,2,5,56,103,1849046352
89,18,17,Jits_Phase_5,3,5,63,98,1849055528
89,18,17,Jits_Phase_5,0,5,56,103,1849506184
89,18,17,Jits_Phase_5,1,5,63,98,1849509252
89,18,17,Jits_Phase_5,2,1,48,31,1849514188
89,18,17,Jits_Phase_5,3,5,80,127,1849516300
89,18,17,Jits_Phase_5,0,1,48,41,1849980580
89,18,17,Jits_Phase_5,1,5,56,103,1850026312
89,18,17,Jits_Phase_5,2,5,63,98,1850046020
89,18,17,Jits_Phase_5,3,5,80,127,1850056144
89,18,17,Jits_Phase_5,0,1,48,46,1850476220
89,18,17,Jits_Phase_5,1,5,63,98,1850486060
89,18,17,Jits_Phase_5,2,5,80,127,1850496328
89,18,17,Jits_Phase_5,3,5,56,103,1850516112
89,18,17,Jits_Phase_5,0,1,48,38,1850943516
89,18,17,Jits_Phase_5,1,5,63,98,1850986028
89,18,17,Jits_Phase_5,2,5,56,103,1851065804
89,18,17,Jits_Phase_5,3,5,80,127,1851069020
89,18,17,Jits_Phase_5,0,1,48,41,1851464104
89,18,17,Jits_Phase_5,1,5,63,98,1851495888
89,18,17,Jits_Phase_5,2,5,56,103,1851516200
89,18,17,Jits_Phase_5,3,5,80,127,1851545948
89,18,17,Jits_Phase_5,0,1,48,27,1851974192
89,18,17,Jits_Phase_5,1,5,56,103,1851995636
89,18,17,Jits_Phase_5,2,5,63,98,1852016172
89,18,17,Jits_Phase_5,3,5,80,127,1852026220
89,18,17,Jits_Phase_5,0,1,48,43,1852425160
89,18,17,Jits_Phase_5,1,5,56,103,1852525936
89,18,17,Jits_Phase_5,2,5,63,98,1852555532
89,18,17,Jits_Phase_5,3,5,80,127,1852558824
89,18,17,Jits_Phase_5,0,1,48,36,1852934944
89,18,17,Jits_Phase_5,1,5,56,103,1852975500
89,18,17,Jits_Phase_5,2,5,63,98,1853016336
89,18,17,Jits_Phase_5,3,5,80,127,1853076104
89,18,17,Jits_Phase_5,0,1,48,37,1853429216
89,18,17,Jits_Phase_5,1,5,56,103,1853495624
89,18,17,Jits_Phase_5,2,5,63,98,1853506192
89,18,17,Jits_Phase_5,3,5,80,127,1853566272
89,18,17,Jits_Phase_5,0,1,48,24,1853928220
89,18,17,Jits_Phase_5,1,5,56,103,1853996348
89,18,17,Jits_Phase_5,2,5,80,127,1854016060
89,18,17,Jits_Phase_5,3,5,63,98,1854045420
89,18,17,Jits_Phase_5,0,1,48,41,1854399024
89,18,17,Jits_Phase_5,1,5,80,127,1854496980
89,18,17,Jits_Phase_5,2,5,56,103,1854506352
89,18,17,Jits_Phase_5,3,5,63,98,1854526060
89,18,17,Jits_Phase_5,0,1,48,33,1854910832
89,18,17,Jits_Phase_5,1,5,63,98,1854985508
89,18,17,Jits_Phase_5,2,5,80,127,1855065436
89,18,17,Jits_Phase_5,3,5,56,103,1855075632
89,18,17,Jits_Phase_5,0,1,48,33,1855402340
89,18,17,Jits_Phase_5,1,5,80,127,1855576496
89,18,17,Jits_Phase_5,2,5,56,103,1855595980
89,18,17,Jits_Phase_5,3,5,63,98,1855599120
89,18,17,Jits_Phase_5,0,1,48,30,1855977332
89,18,17,Jits_Phase_5,1,5,63,98,1856065988
89,18,17,Jits_Phase_5,2,5,80,127,1856069056
89,18,17,Jits_Phase_5,3,5,56,103,1856126360
89,18,17,Jits_Phase_5,0,1,48,30,1856523612
89,18,17,Jits_Phase_5,1,5,56,103,1856546104
89,18,17,Jits_Phase_5,2,5,80,127,1856556376
89,18,17,Jits_Phase_5,3,5,63,98,1856596308
89,18,17,Jits_Phase_5,0,5,56,103,1857026452
89,18,17,Jits_Phase_5,1,1,48,31,1857046584
89,18,17,Jits_Phase_5,2,5,63,98,1857086012
89,18,17,Jits_Phase_5,3,5,80,127,1857095984
89,18,17,Jits_Phase_5,0,5,63,98,1857536404
89,18,17,Jits_Phase_5,1,1,48,21,1857561920
89,18,17,Jits_Phase_5,2,5,80,127,1857576336
89,18,17,Jits_Phase_5,3,5,56,103,1857616196
89,18,17,Jits_Phase_5,0,1,48,40,1858033336
89,18,17,Jits_Phase_5,1,5,56,103,1858035996
89,18,17,Jits_Phase_5,2,5,63,98,1858115936
89,18,17,Jits_Phase_5,3,5,80,127,1858119152
89,18,17,Jits_Phase_5,0,1,48,34,1858540200
89,18,17,Jits_Phase_5,1,5,80,127,1858596268
89,18,17,Jits_Phase_5,2,5,56,103,1858625868
89,18,17,Jits_Phase_5,3,5,63,98,1858628936
89,18,17,Jits_Phase_5,0,1,48,35,1859043924
89,18,17,Jits_Phase_5,1,5,56,103,1859056156
89,18,17,Jits_Phase_5,2,5,80,127,1859075344
89,18,17,Jits_Phase_5,3,5,63,98,1859116256
89,18,17,Jits_Phase_5,0,1,48,36,1859517420
89,18,17,Jits_Phase_5,1,5,80,127,1859536180
89,18,17,Jits_Phase_5,2,5,63,98,1859555840
89,18,17,Jits_Phase_5,3,5,56,103,1859616076
89,18,17,Jits_Phase_5,0,5,63,98,1860046200
89,18,17,Jits_Phase_5,1,5,56,103,1860056396
89,18,17,Jits_Phase_5,2,1,48,38,1860063820
89,18,17,Jits_Phase_5,3,5,80,127,1860105568
89,18,17,Jits_Phase_5,0,5,56,103,1860535612
89,18,17,Jits_Phase_5,1,5,63,98,1860556072
89,18,17,Jits_Phase_5,2,1,48,35,1860565964
89,18,17,Jits_Phase_5,3,5,80,127,1860567308
89,18,17,Jits_Phase_5,0,5,56,103,1861026200
89,18,17,Jits_Phase_5,1,5,63,98,1861029268
89,18,17,Jits_Phase_5,2,1,48,33,1861041228
89,18,17,Jits_Phase_5,3,5,80,127,1861045528
89,18,17,Jits_Phase_5,0,1,48,38,1861534164
89,18,17,Jits_Phase_5,1,5,63,98,1861565876
89,18,17,Jits_Phase_5,2,5,56,103,1861595500
89,18,17,Jits_Phase_5,3,5,80,127,1861626148
89,18,17,Jits_Phase_5,0,5,80,127,1862025480
89,18,17,Jits_Phase_5,1,1,48,35,1862031592
89,18,17,Jits_Phase_5,2,5,56,103,1862115848
89,18,17,Jits_Phase_5,3,5,63,98,1862118840
89,18,17,Jits_Phase_5,0,5,56,103,1862526428
89,18,17,Jits_Phase_5,1,5,80,127,1862529272
89,18,17,Jits_Phase_5,2,1,48,28,1862564092
89,18,17,Jits_Phase_5,3,5,63,98,1862606212
89,18,17,Jits_Phase_5,0,1,48,40,1863011612
89,18,17,Jits_Phase_5,1,5,80,127,1863026176
89,18,17,Jits_Phase_5,2,5,63,98,1863085368
89,18,17,Jits_Phase_5,3,5,56,103,1863116076
89,18,17,Jits_Phase_5,0,1,48,37,1863474512
89,18,17,Jits_Phase_5,1,5,63,98,1863526000
89,18,17,Jits_Phase_5,2,5,80,127,1863536048
89,18,17,Jits_Phase_5,3,5,56,103,1863605708
89,18,17,Jits_Phase_5,0,1,48,34,1863964748
89,18,17,Jits_Phase_5,1,5,56,103,1864086044
89,18,17,Jits_Phase_5,2,5,80,127,1864115424
89,18,17,Jits_Phase_5,3,5,63,98,1864165944
89,18,17,Jits_Phase_5,0,1,48,35,1864486884
89,18,17,Jits_Phase_5,1,5,63,98,1864675796
89,18,17,Jits_Phase_5,2,5,56,103,1864706368
89,18,17,Jits_Phase_5,3,5,80,127,1864709584
89,18,17,Jits_Phase_5,0,1,48,28,1865074288
89,18,17,Jits_Phase_5,1,5,63,98,1865176560
89,18,17,Jits_Phase_5,2,5,80,127,1865195748
89,18,17,Jits_Phase_5,3,5,56,103,1865206240
89,18,17,Jits_Phase_5,0,1,48,39,1865602836
89,18,17,Jits_Phase_5,1,5,56,103,1865686256
89,18,17,Jits_Phase_5,2,5,63,98,1865689428
89,18,17,Jits_Phase_5,3,5,80,127,1865705828
89,18,17,Jits_Phase_5,0,1,48,33,1866127088
89,18,17,Jits_Phase_5,1,5,56,103,1866135880
89,18,17,Jits_Phase_5,2,5,63,98,1866146300
89,18,17,Jits_Phase_5,3,5,80,127,1866175900
89,18,17,Jits_Phase_5,0,1,48,38,1866612148
89,18,17,Jits_Phase_5,1,5,63,98,1866656008
89,18,17,Jits_Phase_5,2,5,80,127,1866675568
89,18,17,Jits_Phase_5,3,5,56,103,1866715740
89,18,17,Jits_Phase_5,0,1,48,30,1867170936
89,18,17,Jits_Phase_5,1,5,56,103,1867185652
89,18,17,Jits_Phase_5,2,5,63,98,1867225840
89,18,17,Jits_Phase_5,3,5,80,127,1867228976
89,18,17,Jits_Phase_5,0,5,80,127,1867625768
89,18,17,Jits_Phase_5,1,5,56,103,1867666004
89,18,17,Jits_Phase_5,2,1,48,39,1867688008
89,18,17,Jits_Phase_5,3,5,63,98,1867716048
89,18,17,Jits_Phase_5,0,5,56,103,1868185920
89,18,17,Jits_Phase_5,1,5,80,127,1868196264
89,18,17,Jits_Phase_5,2,1,48,34,1868210768
89,18,17,Jits_Phase_5,3,5,63,98,1868226004
89,18,17,Jits_Phase_5,0,5,56,103,1868635488
89,18,17,Jits_Phase_5,1,5,80,127,1868675500
89,18,17,Jits_Phase_5,2,1,48,38,1868720568
89,18,17,Jits_Phase_5,3,5,63,98,1868725768
89,18,17,Jits_Phase_5,0,5,56,103,1869136300
89,18,17,Jits_Phase_5,1,5,80,127,1869176088
89,18,17,Jits_Phase_5,2,1,48,37,1869208420
89,18,17,Jits_Phase_5,3,5,63,98,1869226280
89,18,17,Jits_Phase_5,0,5,80,127,1869625800
89,18,17,Jits_Phase_5,1,1,48,34,1869701056
89,18,17,Jits_Phase_5,2,5,63,98,1869705736
89,18,17,Jits_Phase_5,3,5,56,103,1869715932
89,18,17,Jits_Phase_5,0,5,80,127,1870175832
89,18,17,Jits_Phase_5,1,5,56,103,1870185804
89,18,17,Jits_Phase_5,2,5,63,98,1870206264
89,18,17,Jits_Phase_5,3,1,48,35,1870207156
89,18,17,Jits_Phase_5,0,5,63,98,1870645708
89,18,17,Jits_Phase_5,1,1,48,38,1870699920
89,18,17,Jits_Phase_5,2,5,56,103,1870716204
89,18,17,Jits_Phase_5,3,5,80,127,1870719120
89,18,17,Jits_Phase_5,0,5,80,127,1871136084
89,18,17,Jits_Phase_5,1,5,63,98,1871186140
89,18,17,Jits_Phase_5,2,1,48,41,1871199744
89,18,17,Jits_Phase_5,3,5,56,103,1871226216
89,18,17,Jits_Phase_5,0,1,48,41,1871666464
89,18,17,Jits_Phase_5,1,5,63,98,1871675924
89,18,17,Jits_Phase_5,2,5,56,103,1871715788
89,18,17,Jits_Phase_5,3,5,80,127,1871725908
89,18,17,Jits_Phase_5,0,5,63,98,1872166320
89,18,17,Jits_Phase_5,1,5,56,103,1872185660
89,18,17,Jits_Phase_5,2,1,48,36,1872196652
89,18,17,Jits_Phase_5,3,5,80,127,1872206184
89,18,17,Jits_Phase_5,0,5,80,127,1872625988
89,18,17,Jits_Phase_5,1,5,56,103,1872636184
89,18,17,Jits_Phase_5,2,5,63,98,1872655968
89,18,17,Jits_Phase_5,3,1,48,38,1872684344
89,18,17,Jits_Phase_5,0,1,48,34,1873139124
89,18,17,Jits_Phase_5,1,5,63,98,1873155336
89,18,17,Jits_Phase_5,2,5,56,103,1873196692
89,18,17,Jits_Phase_5,3,5,80,127,1873226220
89,18,17,Jits_Phase_5,0,5,56,103,1873616260
89,18,17,Jits_Phase_5,1,5,63,98,1873645888
89,18,17,Jits_Phase_5,2,1,48,42,1873652972
89,18,17,Jits_Phase_5,3,5,80,127,1873676000
89,18,17,Jits_Phase_5,0,5,80,127,1874036172
89,18,17,Jits_Phase_5,1,5,56,103,1874105924
89,18,17,Jits_Phase_5,2,5,63,98,1874108916
89,18,17,Jits_Phase_5,3,1,48,39,1874150188
89,18,17,Jits_Phase_5,0,5,56,103,1874546116
89,18,17,Jits_Phase_5,1,5,63,98,1874596316
89,18,17,Jits_Phase_5,2,5,80,127,1874625768
89,18,17,Jits_Phase_5,3,1,48,37,1874635784
89,18,17,Jits_Phase_5,0,5,63,98,1875026396
89,18,17,Jits_Phase_5,1,5,80,127,1875029760
89,18,17,Jits_Phase_5,2,5,56,103,1875085664
89,18,17,Jits_Phase_5,3,1,48,37,1875093884
89,18,17,Jits_Phase_5,0,5,56,103,1875555880
89,18,17,Jits_Phase_5,1,5,80,127,1875566000
89,18,17,Jits_Phase_5,2,1,48,37,1875568012
89,18,17,Jits_Phase_5,3,5,63,98,1875616192
89,18,17,Jits_Phase_5,0,5,63,98,1876025752
89,18,17,Jits_Phase_5,1,5,56,103,1876036096
89,18,17,Jits_Phase_5,2,5,80,127,1876065772
89,18,17,Jits_Phase_5,3,1,48,37,1876072556
89,18,17,Jits_Phase_5,0,5,63,98,1876556056
89,18,17,Jits_Phase_5,1,5,80,127,1876559352
89,18,17,Jits_Phase_5,2,1,48,33,1876585736
89,18,17,Jits_Phase_5,3,5,56,103,1876587072
89,18,17,Jits_Phase_5,0,1,48,38,1877070376
89,18,17,Jits_Phase_5,1,5,63,98,1877076248
89,18,17,Jits_Phase_5,2,5,56,103,1877095732
89,18,17,Jits_Phase_5,3,5,80,127,1877098800
89,18,17,Jits_Phase_5,0,5,63,98,1877536064
89,18,17,Jits_Phase_5,1,1,48,36,1877552588
89,18,17,Jits_Phase_5,2,5,56,103,1877605812
89,18,17,Jits_Phase_5,3,5,80,127,1877626124
89,18,17,Jits_Phase_5,0,5,56,103,1878025700
89,18,17,Jits_Phase_5,1,5,63,98,1878035972
89,18,17,Jits_Phase_5,2,1,48,32,1878044720
89,18,17,Jits_Phase_5,3,5,80,127,1878125868
89,18,17,Jits_Phase_5,0,1,48,38,1878489096
89,18,17,Jits_Phase_5,1,5,56,103,1878545760
89,18,17,Jits_Phase_5,2,5,80,127,1878585684
89,18,17,Jits_Phase_5,3,5,63,98,1878596028
89,18,17,Jits_Phase_5,0,1,48,33,1879015596
89,18,17,Jits_Phase_5,1,5,56,103,1879066036
89,18,17,Jits_Phase_5,2,5,63,98,1879095636
89,18,17,Jits_Phase_5,3,5,80,127,1879126344
89,18,17,Jits_Phase_5,0,5,80,127,1879525868
89,18,17,Jits_Phase_5,1,1,48,36,1879540000
89,18,17,Jits_Phase_5,2,5,63,98,1879565800
89,18,17,Jits_Phase_5,3,5,56,103,1879586184
89,18,17,Jits_Phase_5,0,1,48,26,1880036764
89,18,17,Jits_Phase_5,1,5,56,103,1880066604
89,18,17,Jits_Phase_5,2,5,80,127,1880085792
89,18,17,Jits_Phase_5,3,5,63,98,1880106476
89,18,17,Jits_Phase_5,0,5,63,98,1880536620
89,18,17,Jits_Phase_5,1,1,48,34,1880539740
89,18,17,Jits_Phase_5,2,5,56,103,1880545764
89,18,17,Jits_Phase_5,3,5,80,127,1880606072
89,18,17,Jits_Phase_5,0,5,56,103,1881036124
89,18,17,Jits_Phase_5,1,1,48,28,1881043728
89,18,17,Jits_Phase_5,2,5,63,98,1881105820
89,18,17,Jits_Phase_5,3,5,80,127,1881126128
89,18,17,Jits_Phase_5,0,5,56,103,1881535892
89,18,17,Jits_Phase_5,1,5,63,98,1881565812
89,18,17,Jits_Phase_5,2,1,48,21,1881573424
89,18,17,Jits_Phase_5,3,5,80,127,1881605520
89,18,17,Jits_Phase_5,0,5,63,98,1882026216
89,18,17,Jits_Phase_5,1,1,48,33,1882028080
89,18,17,Jits_Phase_5,2,5,56,103,1882075612
89,18,17,Jits_Phase_5,3,5,80,127,1882085732
89,18,17,Jits_Phase_5,0,1,48,34,1882520524
89,18,17,Jits_Phase_5,1,5,56,103,1882565884
89,18,17,Jits_Phase_5,2,5,63,98,1882616184
89,18,17,Jits_Phase_5,3,5,80,127,1882626440
89,18,17,Jits_Phase_5,0,5,56,103,1883035900
89,18,17,Jits_Phase_5,1,1,48,34,1883042680
89,18,17,Jits_Phase_5,2,5,63,98,1883046388
89,18,17,Jits_Phase_5,3,5,80,127,1883126132
89,18,17,Jits_Phase_5,0,9999,9999,9999,1798803532
89,18,17,Jits_Phase_5,1,9999,9999,9999,1799303240
89,18,17,Jits_Phase_5,2,9999,9999,9999,1799804016
89,18,17,Jits_Phase_5,3,9999,9999,9999,1800303740
89,18,17,Jits_Phase_5,4,9999,9999,9999,1800803436
89,18,17,Jits_Phase_5,5,9999,9999,9999,1801303112
89,18,17,Jits_Phase_5,6,9999,9999,9999,1801803836
89,18,17,Jits_Phase_5,7,9999,9999,9999,1802303584
89,18,17,Jits_Phase_5,8,9999,9999,9999,1802803264
89,18,17,Jits_Phase_5,9,9999,9999,9999,1803303996
89,18,17,Jits_Phase_5,10,9999,9999,9999,1803803760
89,18,17,Jits_Phase_5,11,9999,9999,9999,1804303448
89,18,17,Jits_Phase_5,12,9999,9999,9999,1804803192
89,18,17,Jits_Phase_5,13,9999,9999,9999,1805303912
89,18,17,Jits_Phase_5,14,9999,9999,9999,1805803584
89,18,17,Jits_Phase_5,15,9999,9999,9999,1806303344
89,18,17,Jits_Phase_5,16,9999,9999,9999,1806804056
89,18,17,Jits_Phase_5,17,9999,9999,9999,1807303768
89,18,17,Jits_Phase_5,18,9999,9999,9999,1807803456
89,18,17,Jits_Phase_5,19,9999,9999,9999,1808303220
89,18,17,Jits_Phase_5,20,9999,9999,9999,1808803940
89,18,17,Jits_Phase_5,21,9999,9999,9999,1809303628
89,18,17,Jits_Phase_5,22,9999,9999,9999,1809803388
89,18,17,Jits_Phase_5,23,9999,9999,9999,1810304128
89,18,17,Jits_Phase_5,24,9999,9999,9999,1810814080
89,18,17,Jits_Phase_5,25,9999,9999,9999,1811313744
89,18,17,Jits_Phase_5,26,9999,9999,9999,1811813496
89,18,17,Jits_Phase_5,27,9999,9999,9999,1812313144
89,18,17,Jits_Phase_5,28,9999,9999,9999,1812813944
89,18,17,Jits_Phase_5,29,9999,9999,9999,1813313620
89,18,17,Jits_Phase_5,30,9999,9999,9999,1813803104
89,18,17,Jits_Phase_5,31,9999,9999,9999,1814303828
89,18,17,Jits_Phase_5,32,9999,9999,9999,1814803576
89,18,17,Jits_Phase_5,33,9999,9999,9999,1815303252
89,18,17,Jits_Phase_5,34,9999,9999,9999,1815803988
89,18,17,Jits_Phase_5,35,9999,9999,9999,1816303740
89,18,17,Jits_Phase_5,36,9999,9999,9999,1816803404
89,18,17,Jits_Phase_5,37,9999,9999,9999,1817303128
89,18,17,Jits_Phase_5,38,9999,9999,9999,1817803860
89,18,17,Jits_Phase_5,39,9999,9999,9999,1818303616
89,18,17,Jits_Phase_5,40,9999,9999,9999,1818803292
89,18,17,Jits_Phase_5,41,9999,9999,9999,1819304004
89,18,17,Jits_Phase_5,42,9999,9999,9999,1819803744
89,18,17,Jits_Phase_5,43,9999,9999,9999,1820303420
89,18,17,Jits_Phase_5,44,9999,9999,9999,1820803168
89,18,17,Jits_Phase_5,45,9999,9999,9999,1821303900
89,18,17,Jits_Phase_5,46,9999,9999,9999,1821803576
89,18,17,Jits_Phase_5,47,9999,9999,9999,1822303332
89,18,17,Jits_Phase_5,48,9999,9999,9999,1822813272
89,18,17,Jits_Phase_5,49,9999,9999,9999,1823314016
89,18,17,Jits_Phase_5,50,9999,9999,9999,1823813752
89,18,17,Jits_Phase_5,51,9999,9999,9999,1824313444
89,18,17,Jits_Phase_5,52,9999,9999,9999,1824813136
89,18,17,Jits_Phase_5,53,9999,9999,9999,1825313872
89,18,17,Jits_Phase_5,54,9999,9999,9999,1825813624
89,18,17,Jits_Phase_5,55,9999,9999,9999,1826313316
89,18,17,Jits_Phase_5,56,9999,9999,9999,1826814048
89,18,17,Jits_Phase_5,57,9999,9999,9999,1827313732
89,18,17,Jits_Phase_5,58,9999,9999,9999,1827813484
89,18,17,Jits_Phase_5,59,9999,9999,9999,1828313172
89,18,17,Jits_Phase_5,60,9999,9999,9999,1828813908
89,18,17,Jits_Phase_5,61,9999,9999,9999,1829313652
89,18,17,Jits_Phase_5,62,9999,9999,9999,1829813344
89,18,17,Jits_Phase_5,63,9999,9999,9999,1830314080
89,18,17,Jits_Phase_5,64,9999,9999,9999,1830833236
89,18,17,Jits_Phase_5,65,9999,9999,9999,1831333972
89,18,17,Jits_Phase_5,66,9999,9999,9999,1831833664
89,18,17,Jits_Phase_5,67,9999,9999,9999,1832333416
89,18,17,Jits_Phase_5,68,9999,9999,9999,1832833108
89,18,17,Jits_Phase_5,69,9999,9999,9999,1833333844
89,18,17,Jits_Phase_5,70,9999,9999,9999,1833833584
89,18,17,Jits_Phase_5,71,9999,9999,9999,1834333276
89,18,17,Jits_Phase_5,72,9999,9999,9999,1834834008
89,18,17,Jits_Phase_5,73,9999,9999,9999,1835333688
89,18,17,Jits_Phase_5,74,9999,9999,9999,1835833436
89,18,17,Jits_Phase_5,75,9999,9999,9999,1836333184
89,18,17,Jits_Phase_5,76,9999,9999,9999,1836833848
89,18,17,Jits_Phase_5,77,9999,9999,9999,1837333596
89,18,17,Jits_Phase_5,78,9999,9999,9999,1837833288
89,18,17,Jits_Phase_5,79,9999,9999,9999,1838334028
89,18,17,Jits_Phase_5,80,9999,9999,9999,1838833776
89,18,17,Jits_Phase_5,81,9999,9999,9999,1839314024
89,18,17,Jits_Phase_5,82,9999,9999,9999,1839813708
89,18,17,Jits_Phase_5,83,9999,9999,9999,1840313400
89,18,17,Jits_Phase_5,84,9999,9999,9999,1840813168
89,18,17,Jits_Phase_5,85,9999,9999,9999,1841313884
89,18,17,Jits_Phase_5,86,9999,9999,9999,1841813628
89,18,17,Jits_Phase_5,87,9999,9999,9999,1842313320
89,18,17,Jits_Phase_5,88,9999,9999,9999,1842814052
89,18,17,Jits_Phase_5,89,9999,9999,9999,1843313744
89,18,17,Jits_Phase_5,90,9999,9999,9999,1843813436
89,18,17,Jits_Phase_5,91,9999,9999,9999,1844313192
89,18,17,Jits_Phase_5,92,9999,9999,9999,1844813916
89,18,17,Jits_Phase_5,93,9999,9999,9999,1845313588
89,18,17,Jits_Phase_5,94,9999,9999,9999,1845813336
89,18,17,Jits_Phase_5,95,9999,9999,9999,1846314072
89,18,17,Jits_Phase_5,96,9999,9999,9999,1846813760
89,18,17,Jits_Phase_5,97,9999,9999,9999,1847263316
89,18,17,Jits_Phase_5,98,9999,9999,9999,1847764084
89,18,17,Jits_Phase_5,99,9999,9999,9999,1848263768
89,18,17,Jits_Phase_5,100,9999,9999,9999,1848763512
89,18,17,Jits_Phase_5,101,9999,9999,9999,1849263204
89,18,17,Jits_Phase_5,102,9999,9999,9999,1849763928
89,18,17,Jits_Phase_5,103,9999,9999,9999,1850263620
89,18,17,Jits_Phase_5,104,9999,9999,9999,1850763368
89,18,17,Jits_Phase_5,105,9999,9999,9999,1851264084
89,18,17,Jits_Phase_5,106,9999,9999,9999,1851774024
89,18,17,Jits_Phase_5,107,9999,9999,9999,1852273772
89,18,17,Jits_Phase_5,108,9999,9999,9999,1852773440
89,18,17,Jits_Phase_5,109,9999,9999,9999,1853273188
89,18,17,Jits_Phase_5,110,9999,9999,9999,1853773912
89,18,17,Jits_Phase_5,111,9999,9999,9999,1854273660
89,18,17,Jits_Phase_5,112,9999,9999,9999,1854773332
89,18,17,Jits_Phase_5,113,9999,9999,9999,1855274056
89,18,17,Jits_Phase_5,114,9999,9999,9999,1855823996
89,18,17,Jits_Phase_5,115,9999,9999,9999,1856323664
89,18,17,Jits_Phase_5,116,9999,9999,9999,1856823416
89,18,17,Jits_Phase_5,117,9999,9999,9999,1857323088
89,18,17,Jits_Phase_5,118,9999,9999,9999,1857823824
89,18,17,Jits_Phase_5,119,9999,9999,9999,1858323564
89,18,17,Jits_Phase_5,120,9999,9999,9999,1858823232
89,18,17,Jits_Phase_5,121,9999,9999,9999,1859324032
89,18,17,Jits_Phase_5,122,9999,9999,9999,1859823704
89,18,17,Jits_Phase_5,123,9999,9999,9999,1860323380
89,18,17,Jits_Phase_5,124,9999,9999,9999,1860823152
89,18,17,Jits_Phase_5,125,9999,9999,9999,1861323868
89,18,17,Jits_Phase_5,126,9999,9999,9999,1861823560
89,18,17,Jits_Phase_5,127,9999,9999,9999,1862323304
89,18,17,Jits_Phase_5,128,9999,9999,9999,1862824024
89,18,17,Jits_Phase_5,129,9999,9999,9999,1863323716
89,18,17,Jits_Phase_5,130,9999,9999,9999,1863823464
89,18,17,Jits_Phase_5,131,9999,9999,9999,1864423476
89,18,17,Jits_Phase_5,132,9999,9999,9999,1864923224
89,18,17,Jits_Phase_5,133,9999,9999,9999,1865423972
89,18,17,Jits_Phase_5,134,9999,9999,9999,1865923708
89,18,17,Jits_Phase_5,135,9999,9999,9999,1866423380
89,18,17,Jits_Phase_5,136,9999,9999,9999,1866923132
89,18,17,Jits_Phase_5,137,9999,9999,9999,1867423852
89,18,17,Jits_Phase_5,138,9999,9999,9999,1867923528
89,18,17,Jits_Phase_5,139,9999,9999,9999,1868423296
89,18,17,Jits_Phase_5,140,9999,9999,9999,1868924028
89,18,17,Jits_Phase_5,141,9999,9999,9999,1869423720
89,18,17,Jits_Phase_5,142,9999,9999,9999,1869923408
89,18,17,Jits_Phase_5,143,9999,9999,9999,1870423100
89,18,17,Jits_Phase_5,144,9999,9999,9999,1870923828
89,18,17,Jits_Phase_5,145,9999,9999,9999,1871423580
89,18,17,Jits_Phase_5,146,9999,9999,9999,1871923272
89,18,17,Jits_Phase_5,147,9999,9999,9999,1872424000
89,18,17,Jits_Phase_5,148,9999,9999,9999,1872923744
89,18,17,Jits_Phase_5,149,9999,9999,9999,1873423432
89,18,17,Jits_Phase_5,150,9999,9999,9999,1873823824
89,18,17,Jits_Phase_5,151,9999,9999,9999,1874323584
89,18,17,Jits_Phase_5,152,9999,9999,9999,1874823272
89,18,17,Jits_Phase_5,153,9999,9999,9999,1875323996
89,18,17,Jits_Phase_5,154,9999,9999,9999,1875823672
89,18,17,Jits_Phase_5,155,9999,9999,9999,1876323432
89,18,17,Jits_Phase_5,156,9999,9999,9999,1876823096
89,18,17,Jits_Phase_5,157,9999,9999,9999,1877323884
89,18,17,Jits_Phase_5,158,9999,9999,9999,1877823560
89,18,17,Jits_Phase_5,159,9999,9999,9999,1878323308
89,18,17,Jits_Phase_5,160,9999,9999,9999,1878824044
89,18,17,Jits_Phase_5,161,9999,9999,9999,1879323724
89,18,17,Jits_Phase_5,162,9999,9999,9999,1879823476
89,18,17,Jits_Phase_5,163,9999,9999,9999,1880323168
89,18,17,Jits_Phase_5,164,9999,9999,9999,1880823892
89,18,17,Jits_Phase_5,165,9999,9999,9999,1881323644
89,18,17,Jits_Phase_5,166,9999,9999,9999,1881823332
89,18,17,Jits_Phase_5,167,9999,9999,9999,1882324048
89,18,17,Jits_Phase_5,168,9999,9999,9999,1882823792
89,18,17,Jits_Phase_5,169,9999,9999,9999,1883323472
89,19,15,Jits_Phase_8,0,5,56,103,1891750168
89,19,15,Jits_Phase_8,1,5,63,98,1891753340
89,19,15,Jits_Phase_8,2,5,80,127,1891756536
89,19,15,Jits_Phase_8,0,5,56,103,1892550108
89,19,15,Jits_Phase_8,1,5,63,98,1892552984
89,19,15,Jits_Phase_8,2,5,80,127,1892556256
89,19,15,Jits_Phase_8,0,5,80,127,1893290356
89,19,15,Jits_Phase_8,1,1,48,52,1893298204
89,19,15,Jits_Phase_8,2,5,63,98,1893379536
89,19,15,Jits_Phase_8,3,5,56,103,1893389804
89,19,15,Jits_Phase_8,0,1,48,48,1894066860
89,19,15,Jits_Phase_8,1,5,56,103,1894109628
89,19,15,Jits_Phase_8,2,5,63,98,1894119748
89,19,15,Jits_Phase_8,3,5,80,127,1894209788
89,19,15,Jits_Phase_8,0,1,48,46,1894866996
89,19,15,Jits_Phase_8,1,5,63,98,1894879716
89,19,15,Jits_Phase_8,2,5,80,127,1894910440
89,19,15,Jits_Phase_8,3,5,56,103,1894939892
89,19,15,Jits_Phase_8,0,1,48,46,1895641080
89,19,15,Jits_Phase_8,1,5,56,103,1895680516
89,19,15,Jits_Phase_8,2,5,80,127,1895779628
89,19,15,Jits_Phase_8,3,5,63,98,1895829904
89,19,15,Jits_Phase_8,0,1,48,44,1896454468
89,19,15,Jits_Phase_8,1,5,56,103,1896480120
89,19,15,Jits_Phase_8,2,5,80,127,1896530400
89,19,15,Jits_Phase_8,3,5,63,98,1896570396
89,19,15,Jits_Phase_8,0,1,48,41,1897211668
89,19,15,Jits_Phase_8,1,5,80,127,1897309696
89,19,15,Jits_Phase_8,2,5,63,98,1897340552
89,19,15,Jits_Phase_8,3,5,56,103,1897409860
89,19,15,Jits_Phase_8,0,1,48,38,1898011132
89,19,15,Jits_Phase_8,1,5,63,98,1898140012
89,19,15,Jits_Phase_8,2,5,56,103,1898169688
89,19,15,Jits_Phase_8,3,5,80,127,1898230100
89,19,15,Jits_Phase_8,0,1,48,38,1898812692
89,19,15,Jits_Phase_8,1,5,56,103,1898880372
89,19,15,Jits_Phase_8,2,5,80,127,1898883436
89,19,15,Jits_Phase_8,3,5,63,98,1899000252
89,19,15,Jits_Phase_8,0,1,48,44,1899581720
89,19,15,Jits_Phase_8,1,5,56,103,1899759924
89,19,15,Jits_Phase_8,2,5,80,127,1899799788
89,19,15,Jits_Phase_8,3,5,63,98,1899810280
89,19,15,Jits_Phase_8,0,1,48,40,1900432204
89,19,15,Jits_Phase_8,1,5,56,103,1900519768
89,19,15,Jits_Phase_8,2,5,80,127,1900540436
89,19,15,Jits_Phase_8,3,5,63,98,1900620228
89,19,15,Jits_Phase_8,0,1,48,46,1901257580
89,19,15,Jits_Phase_8,1,5,80,127,1901310464
89,19,15,Jits_Phase_8,2,5,56,103,1901409724
89,19,15,Jits_Phase_8,3,5,63,98,1901419920
89,19,15,Jits_Phase_8,0,1,48,42,1902069824
89,19,15,Jits_Phase_8,1,5,63,98,1902080632
89,19,15,Jits_Phase_8,2,5,80,127,1902139752
89,19,15,Jits_Phase_8,3,5,56,103,1902150172
89,19,15,Jits_Phase_8,0,1,48,43,1902792748
89,19,15,Jits_Phase_8,1,5,56,103,1902880232
89,19,15,Jits_Phase_8,2,5,63,98,1902949672
89,19,15,Jits_Phase_8,3,5,80,127,1902953184
89,19,15,Jits_Phase_8,0,1,48,42,1903561400
89,19,15,Jits_Phase_8,1,5,63,98,1903709560
89,19,15,Jits_Phase_8,2,5,56,103,1903759688
89,19,15,Jits_Phase_8,3,5,80,127,1903762752
89,19,15,Jits_Phase_8,0,1,48,43,1904402684
89,19,15,Jits_Phase_8,1,5,56,103,1904470508
89,19,15,Jits_Phase_8,2,5,80,127,1904473500
89,19,15,Jits_Phase_8,3,5,63,98,1904559576
89,19,15,Jits_Phase_8,0,1,48,44,1905179204
89,19,15,Jits_Phase_8,1,5,63,98,1905310024
89,19,15,Jits_Phase_8,2,5,56,103,1905400408
89,19,15,Jits_Phase_8,3,5,80,127,1905429784
89,19,15,Jits_Phase_8,0,1,48,45,1905974688
89,19,15,Jits_Phase_8,1,5,56,103,1906099448
89,19,15,Jits_Phase_8,2,5,63,98,1906199872
89,19,15,Jits_Phase_8,3,5,80,127,1906229472
89,19,15,Jits_Phase_8,0,1,48,44,1906823376
89,19,15,Jits_Phase_8,1,5,63,98,1906919928
89,19,15,Jits_Phase_8,2,5,56,103,1906930036
89,19,15,Jits_Phase_8,3,5,80,127,1907020092
89,19,15,Jits_Phase_8,0,1,48,43,1907634596
89,19,15,Jits_Phase_8,1,5,63,98,1907740052
89,19,15,Jits_Phase_8,2,5,56,103,1907819768
89,19,15,Jits_Phase_8,3,5,80,127,1907822840
89,19,15,Jits_Phase_8,0,1,48,47,1908433304
89,19,15,Jits_Phase_8,1,5,80,127,1908499816
89,19,15,Jits_Phase_8,2,5,63,98,1908520276
89,19,15,Jits_Phase_8,3,5,56,103,1908579748
89,19,15,Jits_Phase_8,0,1,48,48,1909203160
89,19,15,Jits_Phase_8,1,5,56,103,1909339484
89,19,15,Jits_Phase_8,2,5,63,98,1909359860
89,19,15,Jits_Phase_8,3,5,80,127,1909363528
89,19,15,Jits_Phase_8,0,1,48,48,1909999944
89,19,15,Jits_Phase_8,1,5,63,98,1910079836
89,19,15,Jits_Phase_8,2,5,80,127,1910159768
89,19,15,Jits_Phase_8,3,5,56,103,1910170408
89,19,15,Jits_Phase_8,0,1,48,42,1910813628
89,19,15,Jits_Phase_8,1,5,63,98,1910900196
89,19,15,Jits_Phase_8,2,5,56,103,1910919520
89,19,15,Jits_Phase_8,3,5,80,127,1910969648
89,19,15,Jits_Phase_8,0,1,48,43,1911580128
89,19,15,Jits_Phase_8,1,5,80,127,1911699788
89,19,15,Jits_Phase_8,2,5,63,98,1911739804
89,19,15,Jits_Phase_8,3,5,56,103,1911760188
89,19,15,Jits_Phase_8,0,1,48,45,1912362576
89,19,15,Jits_Phase_8,1,5,56,103,1912539356
89,19,15,Jits_Phase_8,2,5,63,98,1912549852
89,19,15,Jits_Phase_8,3,5,80,127,1912570308
89,19,15,Jits_Phase_8,0,1,48,38,1913210140
89,19,15,Jits_Phase_8,1,5,56,103,1913269504
89,19,15,Jits_Phase_8,2,5,63,98,1913359724
89,19,15,Jits_Phase_8,3,5,80,127,1913420332
89,19,15,Jits_Phase_8,0,1,48,41,1913981056
89,19,15,Jits_Phase_8,1,5,80,127,1914100288
89,19,15,Jits_Phase_8,2,5,56,103,1914110336
89,19,15,Jits_Phase_8,3,5,63,98,1914179944
89,19,15,Jits_Phase_8,0,1,48,39,1914791376
89,19,15,Jits_Phase_8,1,5,63,98,1914929716
89,19,15,Jits_Phase_8,2,5,80,127,1915019700
89,19,15,Jits_Phase_8,3,5,56,103,1915030044
89,19,15,Jits_Phase_8,0,1,48,44,1915603864
89,19,15,Jits_Phase_8,1,5,63,98,1915659516
89,19,15,Jits_Phase_8,2,5,80,127,1915709852
89,19,15,Jits_Phase_8,3,5,56,103,1915770168
89,19,15,Jits_Phase_8,0,1,48,46,1916395328
89,19,15,Jits_Phase_8,1,5,56,103,1916479876
89,19,15,Jits_Phase_8,2,5,80,127,1916530212
89,19,15,Jits_Phase_8,3,5,63,98,1916549476
89,19,15,Jits_Phase_8,0,1,48,51,1917163628
89,19,15,Jits_Phase_8,1,5,56,103,1917260140
89,19,15,Jits_Phase_8,2,5,80,127,1917319560
89,19,15,Jits_Phase_8,3,5,63,98,1917390284
89,19,15,Jits_Phase_8,0,1,48,47,1917925312
89,19,15,Jits_Phase_8,1,5,56,103,1918059820
89,19,15,Jits_Phase_8,2,5,80,127,1918089496
89,19,15,Jits_Phase_8,3,5,63,98,1918120368
89,19,15,Jits_Phase_8,0,1,48,35,1918738572
89,19,15,Jits_Phase_8,1,5,56,103,1918899660
89,19,15,Jits_Phase_8,2,5,80,127,1918920268
89,19,15,Jits_Phase_8,3,5,63,98,1918979336
89,19,15,Jits_Phase_8,0,1,48,42,1919517556
89,19,15,Jits_Phase_8,1,5,80,127,1919780136
89,19,15,Jits_Phase_8,2,5,56,103,1919789360
89,19,15,Jits_Phase_8,3,5,63,98,1919799704
89,19,15,Jits_Phase_8,0,1,48,43,1920334196
89,19,15,Jits_Phase_8,1,5,56,103,1920540044
89,19,15,Jits_Phase_8,2,5,80,127,1920580060
89,19,15,Jits_Phase_8,3,5,63,98,1920609660
89,19,15,Jits_Phase_8,0,1,48,45,1921073868
89,19,15,Jits_Phase_8,1,5,56,103,1921310216
89,19,15,Jits_Phase_8,2,5,63,98,1921339964
89,19,15,Jits_Phase_8,3,5,80,127,1921379604
89,19,15,Jits_Phase_8,0,1,48,47,1921859176
89,19,15,Jits_Phase_8,1,5,80,127,1922059700
89,19,15,Jits_Phase_8,2,5,63,98,1922109900
89,19,15,Jits_Phase_8,3,5,56,103,1922130212
89,19,15,Jits_Phase_8,0,1,48,43,1922657108
89,19,15,Jits_Phase_8,1,5,56,103,1922890168
89,19,15,Jits_Phase_8,2,5,80,127,1922959776
89,19,15,Jits_Phase_8,3,5,63,98,1923020088
89,19,15,Jits_Phase_8,0,1,48,40,1923469024
89,19,15,Jits_Phase_8,1,5,80,127,1923689704
89,19,15,Jits_Phase_8,2,5,63,98,1923779988
89,19,15,Jits_Phase_8,3,5,56,103,1923800396
89,19,15,Jits_Phase_8,0,1,48,41,1924272380
89,19,15,Jits_Phase_8,1,5,63,98,1924510068
89,19,15,Jits_Phase_8,2,5,56,103,1924529552
89,19,15,Jits_Phase_8,3,5,80,127,1924569516
89,19,15,Jits_Phase_8,0,1,48,37,1925030108
89,19,15,Jits_Phase_8,1,5,80,127,1925269892
89,19,15,Jits_Phase_8,2,5,63,98,1925290276
89,19,15,Jits_Phase_8,3,5,56,103,1925370168
89,19,15,Jits_Phase_8,0,1,48,34,1925809032
89,19,15,Jits_Phase_8,1,5,63,98,1926060504
89,19,15,Jits_Phase_8,2,5,56,103,1926169920
89,19,15,Jits_Phase_8,3,5,80,127,1926173060
89,19,15,Jits_Phase_8,0,1,48,38,1926583528
89,19,15,Jits_Phase_8,1,5,63,98,1926879608
89,19,15,Jits_Phase_8,2,5,56,103,1926889952
89,19,15,Jits_Phase_8,3,5,80,127,1926893092
89,19,15,Jits_Phase_8,0,1,48,40,1927348372
89,19,15,Jits_Phase_8,1,5,56,103,1927660076
89,19,15,Jits_Phase_8,2,5,80,127,1927779580
89,19,15,Jits_Phase_8,3,5,63,98,1927819592
89,19,15,Jits_Phase_8,0,1,48,40,1928148112
89,19,15,Jits_Phase_8,1,5,56,103,1928480052
89,19,15,Jits_Phase_8,2,5,80,127,1928560220
89,19,15,Jits_Phase_8,3,5,63,98,1928579556
89,19,15,Jits_Phase_8,0,1,48,33,1928958288
89,19,15,Jits_Phase_8,1,5,56,103,1929279812
89,19,15,Jits_Phase_8,2,5,63,98,1929389268
89,19,15,Jits_Phase_8,3,5,80,127,1929392640
89,19,15,Jits_Phase_8,0,1,48,38,1929758564
89,19,15,Jits_Phase_8,1,5,56,103,1930119500
89,19,15,Jits_Phase_8,2,5,80,127,1930150296
89,19,15,Jits_Phase_8,3,5,63,98,1930169708
89,19,15,Jits_Phase_8,0,1,48,31,1930574872
89,19,15,Jits_Phase_8,1,5,63,98,1930910040
89,19,15,Jits_Phase_8,2,5,56,103,1930920160
89,19,15,Jits_Phase_8,3,5,80,127,1930929384
89,19,15,Jits_Phase_8,0,1,48,41,1931367600
89,19,15,Jits_Phase_8,1,5,80,127,1931699736
89,19,15,Jits_Phase_8,2,5,56,103,1931749964
89,19,15,Jits_Phase_8,3,5,63,98,1931789824
89,19,15,Jits_Phase_8,0,1,48,43,1932178040
89,19,15,Jits_Phase_8,1,5,80,127,1932520044
89,19,15,Jits_Phase_8,2,5,63,98,1932540204
89,19,15,Jits_Phase_8,3,5,56,103,1932589432
89,19,15,Jits_Phase_8,0,1,48,25,1933003792
89,19,15,Jits_Phase_8,1,5,80,127,1933329988
89,19,15,Jits_Phase_8,2,5,56,103,1933359368
89,19,15,Jits_Phase_8,3,5,63,98,1933430092
89,19,15,Jits_Phase_8,0,1,48,37,1933790768
89,19,15,Jits_Phase_8,1,5,56,103,1934179652
89,19,15,Jits_Phase_8,2,5,80,127,1934190220
89,19,15,Jits_Phase_8,3,5,63,98,1934229860
89,19,15,Jits_Phase_8,0,1,48,36,1934634876
89,19,15,Jits_Phase_8,1,5,56,103,1934890256
89,19,15,Jits_Phase_8,2,5,63,98,1934909892
89,19,15,Jits_Phase_8,3,5,80,127,1934979420
89,19,15,Jits_Phase_8,0,1,48,48,1935368348
89,19,15,Jits_Phase_8,1,5,63,98,1935709920
89,19,15,Jits_Phase_8,2,5,80,127,1935770088
89,19,15,Jits_Phase_8,3,5,56,103,1935789352
89,19,15,Jits_Phase_8,0,1,48,41,1936168084
89,19,15,Jits_Phase_8,1,5,80,127,1936500144
89,19,15,Jits_Phase_8,2,5,56,103,1936529892
89,19,15,Jits_Phase_8,3,5,63,98,1936559420
89,19,15,Jits_Phase_8,4,1,48,39,1936942464
89,19,15,Jits_Phase_8,0,5,56,103,1937299876
89,19,15,Jits_Phase_8,1,5,63,98,1937360192
89,19,15,Jits_Phase_8,2,5,80,127,1937419560
89,19,15,Jits_Phase_8,3,1,48,43,1937719060
89,19,15,Jits_Phase_8,0,5,80,127,1938120100
89,19,15,Jits_Phase_8,1,5,56,103,1938139464
89,19,15,Jits_Phase_8,2,5,63,98,1938210120
89,19,15,Jits_Phase_8,3,1,48,43,1938523620
89,19,15,Jits_Phase_8,0,5,80,127,1938919976
89,19,15,Jits_Phase_8,1,5,63,98,1938940212
89,19,15,Jits_Phase_8,2,5,56,103,1938969888
89,19,15,Jits_Phase_8,3,1,48,38,1939319880
89,19,15,Jits_Phase_8,0,5,80,127,1939710456
89,19,15,Jits_Phase_8,1,5,63,98,1939729868
89,19,15,Jits_Phase_8,2,5,56,103,1939790108
89,19,15,Jits_Phase_8,3,1,48,41,1940112452
89,19,15,Jits_Phase_8,0,5,80,127,1940510152
89,19,15,Jits_Phase_8,1,5,56,103,1940610476
89,19,15,Jits_Phase_8,2,5,63,98,1940640076
89,19,15,Jits_Phase_8,3,1,48,38,1940942268
89,19,15,Jits_Phase_8,0,5,63,98,1941299516
89,19,15,Jits_Phase_8,1,5,80,127,1941349868
89,19,15,Jits_Phase_8,2,5,56,103,1941370176
89,19,15,Jits_Phase_8,3,1,48,40,1941754716
89,19,15,Jits_Phase_8,0,5,80,127,1942140252
89,19,15,Jits_Phase_8,1,5,56,103,1942169924
89,19,15,Jits_Phase_8,2,5,63,98,1942173068
89,19,15,Jits_Phase_8,3,1,48,45,1942541884
89,19,15,Jits_Phase_8,0,5,63,98,1942990064
89,19,15,Jits_Phase_8,1,5,56,103,1943030180
89,19,15,Jits_Phase_8,2,5,80,127,1943049440
89,19,15,Jits_Phase_8,0,1,48,40,1943404184
89,19,15,Jits_Phase_8,1,5,80,127,1943750044
89,19,15,Jits_Phase_8,2,5,63,98,1943830016
89,19,15,Jits_Phase_8,3,5,56,103,1943869952
89,19,15,Jits_Phase_8,0,1,48,38,1944214184
89,19,15,Jits_Phase_8,1,5,63,98,1944570356
89,19,15,Jits_Phase_8,2,5,80,127,1944650152
89,19,15,Jits_Phase_8,3,5,56,103,1944669492
89,19,15,Jits_Phase_8,0,1,48,42,1945028416
89,19,15,Jits_Phase_8,1,5,56,103,1945409980
89,19,15,Jits_Phase_8,2,5,63,98,1945420252
89,19,15,Jits_Phase_8,3,5,80,127,1945460040
89,19,15,Jits_Phase_8,0,1,48,39,1945808040
89,19,15,Jits_Phase_8,1,5,56,103,1946129708
89,19,15,Jits_Phase_8,2,5,80,127,1946132772
89,19,15,Jits_Phase_8,3,5,63,98,1946270180
89,19,15,Jits_Phase_8,0,1,48,27,1946642308
89,19,15,Jits_Phase_8,1,5,56,103,1946920236
89,19,15,Jits_Phase_8,2,5,63,98,1947010372
89,19,15,Jits_Phase_8,3,5,80,127,1947079976
89,19,15,Jits_Phase_8,0,1,48,33,1947432556
89,19,15,Jits_Phase_8,1,5,63,98,1947799860
89,19,15,Jits_Phase_8,2,5,80,127,1947803300
89,19,15,Jits_Phase_8,3,5,56,103,1947860324
89,19,15,Jits_Phase_8,0,1,48,39,1948211320
89,19,15,Jits_Phase_8,1,5,80,127,1948639700
89,19,15,Jits_Phase_8,2,5,56,103,1948660160
89,19,15,Jits_Phase_8,3,5,63,98,1948670284
89,19,15,Jits_Phase_8,0,1,48,36,1949030028
89,19,15,Jits_Phase_8,1,5,56,103,1949350132
89,19,15,Jits_Phase_8,2,5,63,98,1949359356
89,19,15,Jits_Phase_8,3,5,80,127,1949430184
89,19,15,Jits_Phase_8,4,1,48,37,1949787296
89,19,15,Jits_Phase_8,0,5,80,127,1950149944
89,19,15,Jits_Phase_8,1,5,56,103,1950200244
89,19,15,Jits_Phase_8,2,5,63,98,1950250296
89,19,15,Jits_Phase_8,3,1,48,30,1950586192
89,19,15,Jits_Phase_8,0,5,56,103,1951029908
89,19,15,Jits_Phase_8,1,5,63,98,1951040028
89,19,15,Jits_Phase_8,2,5,80,127,1951079744
89,19,15,Jits_Phase_8,3,1,48,38,1951368236
89,19,15,Jits_Phase_8,0,5,56,103,1951769900
89,19,15,Jits_Phase_8,1,5,63,98,1951809988
89,19,15,Jits_Phase_8,2,5,80,127,1951860112
89,19,15,Jits_Phase_8,3,1,48,36,1952145596
89,19,15,Jits_Phase_8,0,5,80,127,1952529888
89,19,15,Jits_Phase_8,1,5,56,103,1952579868
89,19,15,Jits_Phase_8,2,5,63,98,1952600548
89,19,15,Jits_Phase_8,3,1,48,38,1952885728
89,19,15,Jits_Phase_8,0,5,80,127,1953339700
89,19,15,Jits_Phase_8,1,5,63,98,1953400240
89,19,15,Jits_Phase_8,2,5,56,103,1953480180
89,19,15,Jits_Phase_8,3,1,48,29,1953724988
89,19,15,Jits_Phase_8,0,5,80,127,1954119916
89,19,15,Jits_Phase_8,1,5,56,103,1954159856
89,19,15,Jits_Phase_8,2,5,63,98,1954179568
89,19,15,Jits_Phase_8,3,1,48,45,1954487140
89,19,15,Jits_Phase_8,0,5,56,103,1954969880
89,19,15,Jits_Phase_8,1,5,80,127,1954980152
89,19,15,Jits_Phase_8,2,5,63,98,1955020088
89,19,15,Jits_Phase_8,3,1,48,44,1955336532
89,19,15,Jits_Phase_8,0,5,56,103,1955840476
89,19,15,Jits_Phase_8,1,5,63,98,1955880412
89,19,15,Jits_Phase_8,2,5,80,127,1955883852
89,19,15,Jits_Phase_8,3,1,48,34,1956184848
89,19,15,Jits_Phase_8,0,5,63,98,1956509936
89,19,15,Jits_Phase_8,1,5,80,127,1956550096
89,19,15,Jits_Phase_8,2,5,56,103,1956619876
89,19,15,Jits_Phase_8,3,1,48,45,1956941692
89,19,15,Jits_Phase_8,0,5,63,98,1957280024
89,19,15,Jits_Phase_8,1,5,56,103,1957360068
89,19,15,Jits_Phase_8,2,5,80,127,1957420384
89,19,15,Jits_Phase_8,0,1,48,40,1957764792
89,19,15,Jits_Phase_8,1,5,80,127,1958090124
89,19,15,Jits_Phase_8,2,5,63,98,1958140204
89,19,15,Jits_Phase_8,3,5,56,103,1958169952
89,19,15,Jits_Phase_8,4,1,48,39,1958537400
89,19,15,Jits_Phase_8,0,5,56,103,1958879544
89,19,15,Jits_Phase_8,1,5,63,98,1958929824
89,19,15,Jits_Phase_8,2,5,80,127,1958940092
89,19,15,Jits_Phase_8,3,1,48,46,1959278176
89,19,15,Jits_Phase_8,0,5,56,103,1959689652
89,19,15,Jits_Phase_8,1,5,63,98,1959800092
89,19,15,Jits_Phase_8,2,5,80,127,1959819652
89,19,15,Jits_Phase_8,3,1,48,37,1960147528
89,19,15,Jits_Phase_8,0,5,63,98,1960490476
89,19,15,Jits_Phase_8,1,5,80,127,1960539704
89,19,15,Jits_Phase_8,2,5,56,103,1960629688
89,19,15,Jits_Phase_8,0,1,48,21,1960976352
89,19,15,Jits_Phase_8,1,5,63,98,1961279988
89,19,15,Jits_Phase_8,2,5,80,127,1961309812
89,19,15,Jits_Phase_8,3,5,56,103,1961399568
89,19,15,Jits_Phase_8,0,1,48,24,1961798972
89,19,15,Jits_Phase_8,1,5,63,98,1962079588
89,19,15,Jits_Phase_8,2,5,56,103,1962089712
89,19,15,Jits_Phase_8,3,5,80,127,1962190328
89,19,15,Jits_Phase_8,4,1,48,46,1962532324
89,19,15,Jits_Phase_8,0,5,63,98,1962979592
89,19,15,Jits_Phase_8,1,5,80,127,1963010688
89,19,15,Jits_Phase_8,2,5,56,103,1963040064
89,19,15,Jits_Phase_8,3,1,48,43,1963349528
89,19,15,Jits_Phase_8,0,5,80,127,1963799888
89,19,15,Jits_Phase_8,1,5,63,98,1963810380
89,19,15,Jits_Phase_8,2,5,56,103,1963839832
89,19,15,Jits_Phase_8,0,1,48,42,1964191668
89,19,15,Jits_Phase_8,1,5,80,127,1964500488
89,19,15,Jits_Phase_8,2,5,63,98,1964519900
89,19,15,Jits_Phase_8,3,5,56,103,1964569952
89,19,15,Jits_Phase_8,4,1,48,40,1964922112
89,19,15,Jits_Phase_8,0,5,63,98,1965329744
89,19,15,Jits_Phase_8,1,5,80,127,1965390504
89,19,15,Jits_Phase_8,2,5,56,103,1965409544
89,19,15,Jits_Phase_8,0,1,48,40,1965790012
89,19,15,Jits_Phase_8,1,5,63,98,1966089512
89,19,15,Jits_Phase_8,2,5,56,103,1966139716
89,19,15,Jits_Phase_8,3,5,80,127,1966149988
89,19,15,Jits_Phase_8,4,1,48,43,1966549592
89,19,15,Jits_Phase_8,0,5,56,103,1966920040
89,19,15,Jits_Phase_8,1,5,80,127,1966930236
89,19,15,Jits_Phase_8,2,5,63,98,1967029584
89,19,15,Jits_Phase_8,3,1,48,36,1967339600
89,19,15,Jits_Phase_8,0,5,80,127,1967679880
89,19,15,Jits_Phase_8,1,5,63,98,1967690076
89,19,15,Jits_Phase_8,2,5,56,103,1967839640
89,19,15,Jits_Phase_8,3,1,48,42,1968126316
89,19,15,Jits_Phase_8,0,5,63,98,1968489764
89,19,15,Jits_Phase_8,1,5,80,127,1968529704
89,19,15,Jits_Phase_8,2,5,56,103,1968609668
89,19,15,Jits_Phase_8,3,1,48,36,1968903768
89,19,15,Jits_Phase_8,0,5,56,103,1969240368
89,19,15,Jits_Phase_8,1,5,80,127,1969339720
89,19,15,Jits_Phase_8,2,5,63,98,1969360400
89,19,15,Jits_Phase_8,3,1,48,43,1969672508
89,19,15,Jits_Phase_8,0,5,80,127,1970059700
89,19,15,Jits_Phase_8,1,5,56,103,1970069896
89,19,15,Jits_Phase_8,2,5,63,98,1970160052
89,19,15,Jits_Phase_8,0,1,48,42,1970519612
89,19,15,Jits_Phase_8,1,5,56,103,1970860616
89,19,15,Jits_Phase_8,2,5,63,98,1970879732
89,19,15,Jits_Phase_8,3,5,80,127,1970959696
89,19,15,Jits_Phase_8,0,1,48,43,1971318400
89,19,15,Jits_Phase_8,1,5,63,98,1971609880
89,19,15,Jits_Phase_8,2,5,56,103,1971700188
89,19,15,Jits_Phase_8,3,5,80,127,1971703104
89,19,15,Jits_Phase_8,0,1,48,40,1972143688
89,19,15,Jits_Phase_8,1,5,56,103,1972440520
89,19,15,Jits_Phase_8,2,5,80,127,1972499864
89,19,15,Jits_Phase_8,3,5,63,98,1972510356
89,19,15,Jits_Phase_8,0,1,48,40,1972912580
89,19,15,Jits_Phase_8,1,5,80,127,1973290548
89,19,15,Jits_Phase_8,2,5,56,103,1973299620
89,19,15,Jits_Phase_8,3,5,63,98,1973302688
89,19,15,Jits_Phase_8,0,1,48,37,1973696360
89,19,15,Jits_Phase_8,1,5,56,103,1974050288
89,19,15,Jits_Phase_8,2,5,80,127,1974060560
89,19,15,Jits_Phase_8,3,5,63,98,1974079824
89,19,15,Jits_Phase_8,4,1,48,44,1974467180
89,19,15,Jits_Phase_8,0,5,63,98,1974820348
89,19,15,Jits_Phase_8,1,5,80,127,1974879544
89,19,15,Jits_Phase_8,2,5,56,103,1974929744
89,19,15,Jits_Phase_8,3,1,48,36,1975239280
89,19,15,Jits_Phase_8,0,5,63,98,1975699824
89,19,15,Jits_Phase_8,1,5,56,103,1975710020
89,19,15,Jits_Phase_8,2,5,80,127,1975760368
89,19,15,Jits_Phase_8,3,1,48,41,1976064680
89,19,15,Jits_Phase_8,0,5,63,98,1976400392
89,19,15,Jits_Phase_8,1,5,80,127,1976419728
89,19,15,Jits_Phase_8,2,5,56,103,1976430072
89,19,15,Jits_Phase_8,3,1,48,34,1976775560
89,19,15,Jits_Phase_8,0,5,63,98,1977199916
89,19,15,Jits_Phase_8,1,5,80,127,1977203280
89,19,15,Jits_Phase_8,2,5,56,103,1977240000
89,19,15,Jits_Phase_8,3,1,48,33,1977542192
89,19,15,Jits_Phase_8,0,5,63,98,1978070484
89,19,15,Jits_Phase_8,1,5,80,127,1978100156
89,19,15,Jits_Phase_8,2,5,56,103,1978110724
89,19,15,Jits_Phase_8,3,1,48,40,1978383704
89,19,15,Jits_Phase_8,0,5,56,103,1978820004
89,19,15,Jits_Phase_8,1,5,80,127,1978849556
89,19,15,Jits_Phase_8,2,5,63,98,1978880352
89,19,15,Jits_Phase_8,3,1,48,35,1979196696
89,19,15,Jits_Phase_8,0,5,63,98,1979720120
89,19,15,Jits_Phase_8,1,5,56,103,1979759984
89,19,15,Jits_Phase_8,2,5,80,127,1979762976
89,19,15,Jits_Phase_8,0,1,48,20,1980083864
89,19,15,Jits_Phase_8,1,5,80,127,1980419336
89,19,15,Jits_Phase_8,2,5,56,103,1980500476
89,19,15,Jits_Phase_8,3,5,63,98,1980549628
89,19,15,Jits_Phase_8,0,1,48,27,1980946696
89,19,15,Jits_Phase_8,1,5,80,127,1981199680
89,19,15,Jits_Phase_8,2,5,56,103,1981220288
89,19,15,Jits_Phase_8,3,5,63,98,1981310420
89,19,15,Jits_Phase_8,0,1,48,22,1981732900
89,19,15,Jits_Phase_8,1,5,80,127,1982040416
89,19,15,Jits_Phase_8,2,5,63,98,1982080280
89,19,15,Jits_Phase_8,3,5,56,103,1982120516
89,19,15,Jits_Phase_8,0,1,48,32,1982513328
89,19,15,Jits_Phase_8,1,5,63,98,1982850516
89,19,15,Jits_Phase_8,2,5,80,127,1982909712
89,19,15,Jits_Phase_8,3,5,56,103,1982939412
89,19,15,Jits_Phase_8,4,1,48,39,1983278836
89,19,15,Jits_Phase_8,0,5,56,103,1983690160
89,19,15,Jits_Phase_8,1,5,80,127,1983719788
89,19,15,Jits_Phase_8,2,5,63,98,1983809844
89,19,15,Jits_Phase_8,3,1,48,42,1984069116
89,19,15,Jits_Phase_8,0,5,56,103,1984500204
89,19,15,Jits_Phase_8,1,5,80,127,1984609524
89,19,15,Jits_Phase_8,2,5,63,98,1984640392
89,19,15,Jits_Phase_8,3,1,48,36,1984930600
89,19,15,Jits_Phase_8,0,5,56,103,1985350032
89,19,15,Jits_Phase_8,1,5,63,98,1985410424
89,19,15,Jits_Phase_8,2,5,80,127,1985440248
89,19,15,Jits_Phase_8,0,1,48,31,1985809344
89,19,15,Jits_Phase_8,1,5,56,103,1986120008
89,19,15,Jits_Phase_8,2,5,63,98,1986189544
89,19,15,Jits_Phase_8,3,5,80,127,1986210300
89,19,15,Jits_Phase_8,0,1,48,39,1986568368
89,19,15,Jits_Phase_8,1,5,80,127,1986890236
89,19,15,Jits_Phase_8,2,5,63,98,1986909428
89,19,15,Jits_Phase_8,3,5,56,103,1986959776
89,19,15,Jits_Phase_8,4,1,48,38,1987347848
89,19,15,Jits_Phase_8,0,5,63,98,1987710268
89,19,15,Jits_Phase_8,1,5,80,127,1987719568
89,19,15,Jits_Phase_8,2,5,56,103,1987769840
89,19,15,Jits_Phase_8,0,1,48,23,1988172700
89,19,15,Jits_Phase_8,1,5,63,98,1988510264
89,19,15,Jits_Phase_8,2,5,80,127,1988579672
89,19,15,Jits_Phase_8,3,5,56,103,1988600204
89,19,15,Jits_Phase_8,0,1,48,40,1988983324
89,19,15,Jits_Phase_8,1,5,63,98,1989339492
89,19,15,Jits_Phase_8,2,5,80,127,1989342860
89,19,15,Jits_Phase_8,3,5,56,103,1989410296
89,19,15,Jits_Phase_8,4,1,48,37,1989745744
89,19,15,Jits_Phase_8,0,5,80,127,1990090272
89,19,15,Jits_Phase_8,1,5,56,103,1990109484
89,19,15,Jits_Phase_8,2,5,63,98,1990119680
89,19,15,Jits_Phase_8,3,1,48,40,1990487032
89,19,15,Jits_Phase_8,0,5,56,103,1990910292
89,19,15,Jits_Phase_8,1,5,63,98,1991000572
89,19,15,Jits_Phase_8,2,5,80,127,1991003788
89,19,15,Jits_Phase_8,3,1,48,38,1991320972
89,19,15,Jits_Phase_8,0,5,80,127,1991680312
89,19,15,Jits_Phase_8,1,5,56,103,1991689760
89,19,15,Jits_Phase_8,2,5,63,98,1991710148
89,19,15,Jits_Phase_8,3,1,48,45,1992117672
89,19,15,Jits_Phase_8,0,5,63,98,1992480300
89,19,15,Jits_Phase_8,1,5,80,127,1992539496
89,19,15,Jits_Phase_8,2,5,56,103,1992549692
89,19,15,Jits_Phase_8,3,1,48,39,1992927264
89,19,15,Jits_Phase_8,0,5,63,98,1993349432
89,19,15,Jits_Phase_8,1,5,80,127,1993380452
89,19,15,Jits_Phase_8,2,5,56,103,1993420316
89,19,15,Jits_Phase_8,0,1,48,35,1993764696
89,19,15,Jits_Phase_8,1,5,56,103,1994140140
89,19,15,Jits_Phase_8,2,5,80,127,1994150336
89,19,15,Jits_Phase_8,3,5,63,98,1994190720
89,19,15,Jits_Phase_8,4,1,48,32,1994536828
89,19,15,Jits_Phase_8,0,5,80,127,1994899720
89,19,15,Jits_Phase_8,1,5,56,103,1994979688
89,19,15,Jits_Phase_8,2,5,63,98,1994990180
89,19,15,Jits_Phase_8,0,1,48,28,1995375876
89,19,15,Jits_Phase_8,1,5,80,127,1995749732
89,19,15,Jits_Phase_8,2,5,56,103,1995829532
89,19,15,Jits_Phase_8,3,5,63,98,1995839948
89,19,15,Jits_Phase_8,0,1,48,27,1996192808
89,19,15,Jits_Phase_8,1,5,80,127,1996589432
89,19,15,Jits_Phase_8,2,5,56,103,1996639560
89,19,15,Jits_Phase_8,3,5,63,98,1996689764
89,19,15,Jits_Phase_8,4,1,48,36,1996996740
89,19,15,Jits_Phase_8,0,5,56,103,1997529360
89,19,15,Jits_Phase_8,1,5,63,98,1997532508
89,19,15,Jits_Phase_8,2,5,80,127,1997579564
89,19,15,Jits_Phase_8,0,1,48,33,1997982268
89,19,15,Jits_Phase_8,1,5,56,103,1998349752
89,19,15,Jits_Phase_8,2,5,63,98,1998380328
89,19,15,Jits_Phase_8,3,5,80,127,1998389700
89,19,15,Jits_Phase_8,0,1,48,26,1998829340
89,19,15,Jits_Phase_8,1,5,63,98,1999060284
89,19,15,Jits_Phase_8,2,5,56,103,1999130192
89,19,15,Jits_Phase_8,3,5,80,127,1999180168
89,19,15,Jits_Phase_8,0,1,48,23,1999609620
89,19,15,Jits_Phase_8,1,5,63,98,1999889944
89,19,15,Jits_Phase_8,2,5,56,103,1999900136
89,19,15,Jits_Phase_8,3,5,80,127,1999903352
89,19,15,Jits_Phase_8,0,1,48,27,2000364932
89,19,15,Jits_Phase_8,1,5,80,127,2000640312
89,19,15,Jits_Phase_8,2,5,56,103,2000700028
89,19,15,Jits_Phase_8,3,5,63,98,2000790088
89,19,15,Jits_Phase_8,0,1,48,25,2001147820
89,19,15,Jits_Phase_8,1,5,80,127,2001440216
89,19,15,Jits_Phase_8,2,5,56,103,2001539420
89,19,15,Jits_Phase_8,3,5,63,98,2001580404
89,19,15,Jits_Phase_8,0,1,48,30,2001934924
89,19,15,Jits_Phase_8,1,5,56,103,2002290028
89,19,15,Jits_Phase_8,2,5,63,98,2002309440
89,19,15,Jits_Phase_8,3,5,80,127,2002349380
89,19,15,Jits_Phase_8,4,1,48,22,2002696832
89,19,15,Jits_Phase_8,0,5,63,98,2003060020
89,19,15,Jits_Phase_8,1,5,56,103,2003079432
89,19,15,Jits_Phase_8,2,5,80,127,2003180000
89,19,15,Jits_Phase_8,3,1,48,15,2003464056
89,19,15,Jits_Phase_8,0,5,63,98,2003849512
89,19,15,Jits_Phase_8,1,5,80,127,2003960196
89,19,15,Jits_Phase_8,2,5,56,103,2003990020
89,19,15,Jits_Phase_8,3,1,48,20,2004218356
89,19,15,Jits_Phase_8,0,5,56,103,2004669948
89,19,15,Jits_Phase_8,1,5,63,98,2004699576
89,19,15,Jits_Phase_8,2,5,80,127,2004749776
89,19,15,Jits_Phase_8,0,5,63,98,2005439936
89,19,15,Jits_Phase_8,1,5,56,103,2005469492
89,19,15,Jits_Phase_8,2,5,80,127,2005519764
89,19,15,Jits_Phase_8,0,1,48,40,2005964696
89,19,15,Jits_Phase_8,1,5,56,103,2006270300
89,19,15,Jits_Phase_8,2,5,63,98,2006289864
89,19,15,Jits_Phase_8,3,5,80,127,2006369580
89,19,15,Jits_Phase_8,0,1,48,24,2006758428
89,19,15,Jits_Phase_8,1,5,63,98,2007040240
89,19,15,Jits_Phase_8,2,5,56,103,2007099732
89,19,15,Jits_Phase_8,3,5,80,127,2007129408
89,19,15,Jits_Phase_8,0,1,48,18,2007587752
89,19,15,Jits_Phase_8,1,5,56,103,2007880000
89,19,15,Jits_Phase_8,2,5,80,127,2007939348
89,19,15,Jits_Phase_8,3,5,63,98,2007980260
89,19,15,Jits_Phase_8,0,1,48,33,2008396064
89,19,15,Jits_Phase_8,1,5,63,98,2008660284
89,19,15,Jits_Phase_8,2,5,56,103,2008720076
89,19,15,Jits_Phase_8,3,5,80,127,2008790380
89,19,15,Jits_Phase_8,0,1,48,43,2009194472
89,19,15,Jits_Phase_8,1,5,56,103,2009539988
89,19,15,Jits_Phase_8,2,5,63,98,2009550180
89,19,15,Jits_Phase_8,3,5,80,127,2009553396
89,19,15,Jits_Phase_8,0,1,48,35,2009947688
89,19,15,Jits_Phase_8,1,5,63,98,2010280224
89,19,15,Jits_Phase_8,2,5,56,103,2010339588
89,19,15,Jits_Phase_8,3,5,80,127,2010342884
89,19,15,Jits_Phase_8,0,1,48,28,2010752748
89,19,15,Jits_Phase_8,1,5,63,98,2011059520
89,19,15,Jits_Phase_8,2,5,80,127,2011090416
89,19,15,Jits_Phase_8,3,5,56,103,2011109756
89,19,15,Jits_Phase_8,0,1,48,35,2011530664
89,19,15,Jits_Phase_8,1,5,56,103,2011789672
89,19,15,Jits_Phase_8,2,5,63,98,2011840100
89,19,15,Jits_Phase_8,3,5,80,127,2011919692
89,19,15,Jits_Phase_8,0,1,48,33,2012280132
89,19,15,Jits_Phase_8,1,5,80,127,2012490100
89,19,15,Jits_Phase_8,2,5,63,98,2012530188
89,19,15,Jits_Phase_8,3,5,56,103,2012549524
89,19,15,Jits_Phase_8,0,1,48,35,2013039280
89,19,15,Jits_Phase_8,1,5,56,103,2013359508
89,19,15,Jits_Phase_8,2,5,80,127,2013369852
89,19,15,Jits_Phase_8,3,5,63,98,2013390088
89,19,15,Jits_Phase_8,0,1,48,44,2013843056
89,19,15,Jits_Phase_8,1,5,56,103,2014139712
89,19,15,Jits_Phase_8,2,5,63,98,2014189868
89,19,15,Jits_Phase_8,3,5,80,127,2014219616
89,19,15,Jits_Phase_8,0,1,48,40,2014630604
89,19,15,Jits_Phase_8,1,5,56,103,2014890324
89,19,15,Jits_Phase_8,2,5,63,98,2014899472
89,19,15,Jits_Phase_8,3,5,80,127,2014949700
89,19,15,Jits_Phase_8,0,1,48,22,2015423912
89,19,15,Jits_Phase_8,1,5,56,103,2015679956
89,19,15,Jits_Phase_8,2,5,80,127,2015683172
89,19,15,Jits_Phase_8,3,5,63,98,2015839560
89,19,15,Jits_Phase_8,0,1,48,38,2016184168
89,19,15,Jits_Phase_8,1,5,63,98,2016500108
89,19,15,Jits_Phase_8,2,5,56,103,2016569640
89,19,15,Jits_Phase_8,3,5,80,127,2016609580
89,19,15,Jits_Phase_8,0,1,48,35,2017020148
89,19,15,Jits_Phase_8,1,5,63,98,2017339948
89,19,15,Jits_Phase_8,2,5,56,103,2017429860
89,19,15,Jits_Phase_8,3,5,80,127,2017432924
89,19,15,Jits_Phase_8,0,1,48,40,2017835404
89,19,15,Jits_Phase_8,1,5,56,103,2018120000
89,19,15,Jits_Phase_8,2,5,63,98,2018210136
89,19,15,Jits_Phase_8,3,5,80,127,2018220332
89,19,15,Jits_Phase_8,0,1,48,42,2018619664
89,19,15,Jits_Phase_8,1,5,56,103,2018890168
89,19,15,Jits_Phase_8,2,5,63,98,2018940220
89,19,15,Jits_Phase_8,3,5,80,127,2018970120
89,19,15,Jits_Phase_8,0,1,48,40,2019404952
89,19,15,Jits_Phase_8,1,5,63,98,2019769788
89,19,15,Jits_Phase_8,2,5,80,127,2019779984
89,19,15,Jits_Phase_8,3,5,56,103,2019840248
89,19,15,Jits_Phase_8,0,1,48,42,2020262628
89,19,15,Jits_Phase_8,1,5,63,98,2020489832
89,19,15,Jits_Phase_8,2,5,80,127,2020550000
89,19,15,Jits_Phase_8,3,5,56,103,2020589964
89,19,15,Jits_Phase_8,0,1,48,36,2021012712
89,19,15,Jits_Phase_8,1,5,56,103,2021389784
89,19,15,Jits_Phase_8,2,5,80,127,2021410020
89,19,15,Jits_Phase_8,3,5,63,98,2021429956
89,19,15,Jits_Phase_8,0,1,48,42,2021785876
89,19,15,Jits_Phase_8,1,5,63,98,2022109832
89,19,15,Jits_Phase_8,2,5,56,103,2022129996
89,19,15,Jits_Phase_8,3,5,80,127,2022170008
89,19,15,Jits_Phase_8,4,1,48,37,2022528464
89,19,15,Jits_Phase_8,0,5,63,98,2022919532
89,19,15,Jits_Phase_8,1,5,80,127,2022950176
89,19,15,Jits_Phase_8,2,5,56,103,2022969664
89,19,15,Jits_Phase_8,3,1,48,41,2023305108
89,19,15,Jits_Phase_8,0,5,80,127,2023689688
89,19,15,Jits_Phase_8,1,5,56,103,2023739968
89,19,15,Jits_Phase_8,2,5,63,98,2023800056
89,19,15,Jits_Phase_8,3,1,48,41,2024074076
89,19,15,Jits_Phase_8,0,5,63,98,2024480092
89,19,15,Jits_Phase_8,1,5,56,103,2024600044
89,19,15,Jits_Phase_8,2,5,80,127,2024629720
89,19,15,Jits_Phase_8,3,1,48,37,2024908172
89,19,15,Jits_Phase_8,0,5,80,127,2025319784
89,19,15,Jits_Phase_8,1,5,63,98,2025340244
89,19,15,Jits_Phase_8,2,5,56,103,2025409848
89,19,15,Jits_Phase_8,0,1,48,36,2025771968
89,19,15,Jits_Phase_8,1,5,63,98,2026139952
89,19,15,Jits_Phase_8,2,5,56,103,2026150224
89,19,15,Jits_Phase_8,3,5,80,127,2026230192
89,19,15,Jits_Phase_8,0,1,48,25,2026596672
89,19,15,Jits_Phase_8,1,5,56,103,2027000052
89,19,15,Jits_Phase_8,2,5,80,127,2027029804
89,19,15,Jits_Phase_8,3,5,63,98,2027040220
89,19,15,Jits_Phase_8,0,9999,9999,9999,1892147304
89,19,15,Jits_Phase_8,1,9999,9999,9999,1892948068
89,19,15,Jits_Phase_8,2,9999,9999,9999,1893747784
89,19,15,Jits_Phase_8,3,9999,9999,9999,1894547556
89,19,15,Jits_Phase_8,4,9999,9999,9999,1895347312
89,19,15,Jits_Phase_8,5,9999,9999,9999,1896148044
89,19,15,Jits_Phase_8,6,9999,9999,9999,1896947820
89,19,15,Jits_Phase_8,7,9999,9999,9999,1897747580
89,19,15,Jits_Phase_8,8,9999,9999,9999,1898547268
89,19,15,Jits_Phase_8,9,9999,9999,9999,1899348060
89,19,15,Jits_Phase_8,10,9999,9999,9999,1900147824
89,19,15,Jits_Phase_8,11,9999,9999,9999,1900947512
89,19,15,Jits_Phase_8,12,9999,9999,9999,1901747276
89,19,15,Jits_Phase_8,13,9999,9999,9999,1902548080
89,19,15,Jits_Phase_8,14,9999,9999,9999,1903347768
89,19,15,Jits_Phase_8,15,9999,9999,9999,1904147520
89,19,15,Jits_Phase_8,16,9999,9999,9999,1904947264
89,19,15,Jits_Phase_8,17,9999,9999,9999,1905748076
89,19,15,Jits_Phase_8,18,9999,9999,9999,1906547836
89,19,15,Jits_Phase_8,19,9999,9999,9999,1907347520
89,19,15,Jits_Phase_8,20,9999,9999,9999,1908147276
89,19,15,Jits_Phase_8,21,9999,9999,9999,1908948080
89,19,15,Jits_Phase_8,22,9999,9999,9999,1909747776
89,19,15,Jits_Phase_8,23,9999,9999,9999,1910547532
89,19,15,Jits_Phase_8,24,9999,9999,9999,1911347292
89,19,15,Jits_Phase_8,25,9999,9999,9999,1912148096
89,19,15,Jits_Phase_8,26,9999,9999,9999,1912947784
89,19,15,Jits_Phase_8,27,9999,9999,9999,1913747540
89,19,15,Jits_Phase_8,28,9999,9999,9999,1914547300
89,19,15,Jits_Phase_8,29,9999,9999,9999,1915348036
89,19,15,Jits_Phase_8,30,9999,9999,9999,1916127288
89,19,15,Jits_Phase_8,31,9999,9999,9999,1916928096
89,19,15,Jits_Phase_8,32,9999,9999,9999,1917738040
89,19,15,Jits_Phase_8,33,9999,9999,9999,1918537792
89,19,15,Jits_Phase_8,34,9999,9999,9999,1919337556
89,19,15,Jits_Phase_8,35,9999,9999,9999,1920137324
89,19,15,Jits_Phase_8,36,9999,9999,9999,1920938064
89,19,15,Jits_Phase_8,37,9999,9999,9999,1921737824
89,19,15,Jits_Phase_8,38,9999,9999,9999,1922537596
89,19,15,Jits_Phase_8,39,9999,9999,9999,1923337284
89,19,15,Jits_Phase_8,40,9999,9999,9999,1924138088
89,19,15,Jits_Phase_8,41,9999,9999,9999,1924937848
89,19,15,Jits_Phase_8,42,9999,9999,9999,1925737528
89,19,15,Jits_Phase_8,43,9999,9999,9999,1926537276
89,19,15,Jits_Phase_8,44,9999,9999,9999,1927338064
89,19,15,Jits_Phase_8,45,9999,9999,9999,1928137808
89,19,15,Jits_Phase_8,46,9999,9999,9999,1928937576
89,19,15,Jits_Phase_8,47,9999,9999,9999,1929737332
89,19,15,Jits_Phase_8,48,9999,9999,9999,1930557540
89,19,15,Jits_Phase_8,49,9999,9999,9999,1931357296
89,19,15,Jits_Phase_8,50,9999,9999,9999,1932158008
89,19,15,Jits_Phase_8,51,9999,9999,9999,1932957764
89,19,15,Jits_Phase_8,52,9999,9999,9999,1933757524
89,19,15,Jits_Phase_8,53,9999,9999,9999,1934557240
89,19,15,Jits_Phase_8,54,9999,9999,9999,1935358040
89,19,15,Jits_Phase_8,55,9999,9999,9999,1936157780
89,19,15,Jits_Phase_8,56,9999,9999,9999,1936957508
89,19,15,Jits_Phase_8,57,9999,9999,9999,1937757248
89,19,15,Jits_Phase_8,58,9999,9999,9999,1938558068
89,19,15,Jits_Phase_8,59,9999,9999,9999,1939357764
89,19,15,Jits_Phase_8,60,9999,9999,9999,1940157536
89,19,15,Jits_Phase_8,61,9999,9999,9999,1940957264
89,19,15,Jits_Phase_8,62,9999,9999,9999,1941758004
89,19,15,Jits_Phase_8,63,9999,9999,9999,1942557752
89,19,15,Jits_Phase_8,64,9999,9999,9999,1943397472
89,19,15,Jits_Phase_8,65,9999,9999,9999,1944197236
89,19,15,Jits_Phase_8,66,9999,9999,9999,1944997968
89,19,15,Jits_Phase_8,67,9999,9999,9999,1945797732
89,19,15,Jits_Phase_8,68,9999,9999,9999,1946597488
89,19,15,Jits_Phase_8,69,9999,9999,9999,1947397244
89,19,15,Jits_Phase_8,70,9999,9999,9999,1948197944
89,19,15,Jits_Phase_8,71,9999,9999,9999,1948997712
89,19,15,Jits_Phase_8,72,9999,9999,9999,1949797460
89,19,15,Jits_Phase_8,73,9999,9999,9999,1950597200
89,19,15,Jits_Phase_8,74,9999,9999,9999,1951397952
89,19,15,Jits_Phase_8,75,9999,9999,9999,1952197728
89,19,15,Jits_Phase_8,76,9999,9999,9999,1952997504
89,19,15,Jits_Phase_8,77,9999,9999,9999,1953797220
89,19,15,Jits_Phase_8,78,9999,9999,9999,1954598016
89,19,15,Jits_Phase_8,79,9999,9999,9999,1955397728
89,19,15,Jits_Phase_8,80,9999,9999,9999,1956197500
89,19,15,Jits_Phase_8,81,9999,9999,9999,1956957264
89,19,15,Jits_Phase_8,82,9999,9999,9999,1957758076
89,19,15,Jits_Phase_8,83,9999,9999,9999,1958557756
89,19,15,Jits_Phase_8,84,9999,9999,9999,1959357560
89,19,15,Jits_Phase_8,85,9999,9999,9999,1960157288
89,19,15,Jits_Phase_8,86,9999,9999,9999,1960958040
89,19,15,Jits_Phase_8,87,9999,9999,9999,1961757812
89,19,15,Jits_Phase_8,88,9999,9999,9999,1962557556
89,19,15,Jits_Phase_8,89,9999,9999,9999,1963357300
89,19,15,Jits_Phase_8,90,9999,9999,9999,1964158048
89,19,15,Jits_Phase_8,91,9999,9999,9999,1964957752
89,19,15,Jits_Phase_8,92,9999,9999,9999,1965757500
89,19,15,Jits_Phase_8,93,9999,9999,9999,1966557292
89,19,15,Jits_Phase_8,94,9999,9999,9999,1967358004
89,19,15,Jits_Phase_8,95,9999,9999,9999,1968157772
89,19,15,Jits_Phase_8,96,9999,9999,9999,1968957544
89,19,15,Jits_Phase_8,97,9999,9999,9999,1969677364
89,19,15,Jits_Phase_8,98,9999,9999,9999,1970477148
89,19,15,Jits_Phase_8,99,9999,9999,9999,1971277912
89,19,15,Jits_Phase_8,100,9999,9999,9999,1972077660
89,19,15,Jits_Phase_8,101,9999,9999,9999,1972877420
89,19,15,Jits_Phase_8,102,9999,9999,9999,1973677168
89,19,15,Jits_Phase_8,103,9999,9999,9999,1974477888
89,19,15,Jits_Phase_8,104,9999,9999,9999,1975277644
89,19,15,Jits_Phase_8,105,9999,9999,9999,1976077408
89,19,15,Jits_Phase_8,106,9999,9999,9999,1976877144
89,19,15,Jits_Phase_8,107,9999,9999,9999,1977677928
89,19,15,Jits_Phase_8,108,9999,9999,9999,1978477632
89,19,15,Jits_Phase_8,109,9999,9999,9999,1979277372
89,19,15,Jits_Phase_8,110,9999,9999,9999,1980077152
89,19,15,Jits_Phase_8,111,9999,9999,9999,1980877884
89,19,15,Jits_Phase_8,112,9999,9999,9999,1981677656
89,19,15,Jits_Phase_8,113,9999,9999,9999,1982477416
89,19,15,Jits_Phase_8,114,9999,9999,9999,1983358076
89,19,15,Jits_Phase_8,115,9999,9999,9999,1984157796
89,19,15,Jits_Phase_8,116,9999,9999,9999,1984957556
89,19,15,Jits_Phase_8,117,9999,9999,9999,1985757292
89,19,15,Jits_Phase_8,118,9999,9999,9999,1986558056
89,19,15,Jits_Phase_8,119,9999,9999,9999,1987357788
89,19,15,Jits_Phase_8,120,9999,9999,9999,1988157528
89,19,15,Jits_Phase_8,121,9999,9999,9999,1988957304
89,19,15,Jits_Phase_8,122,9999,9999,9999,1989758020
89,19,15,Jits_Phase_8,123,9999,9999,9999,1990557824
89,19,15,Jits_Phase_8,124,9999,9999,9999,1991357512
89,19,15,Jits_Phase_8,125,9999,9999,9999,1992157304
89,19,15,Jits_Phase_8,126,9999,9999,9999,1992958044
89,19,15,Jits_Phase_8,127,9999,9999,9999,1993757812
89,19,15,Jits_Phase_8,128,9999,9999,9999,1994557500
89,19,15,Jits_Phase_8,129,9999,9999,9999,1995357244
89,19,15,Jits_Phase_8,130,9999,9999,9999,1996158016
89,19,15,Jits_Phase_8,131,9999,9999,9999,1997117500
89,19,15,Jits_Phase_8,132,9999,9999,9999,1997917256
89,19,15,Jits_Phase_8,133,9999,9999,9999,1998718028
89,19,15,Jits_Phase_8,134,9999,9999,9999,1999517788
89,19,15,Jits_Phase_8,135,9999,9999,9999,2000317536
89,19,15,Jits_Phase_8,136,9999,9999,9999,2001117244
89,19,15,Jits_Phase_8,137,9999,9999,9999,2001918048
89,19,15,Jits_Phase_8,138,9999,9999,9999,2002717804
89,19,15,Jits_Phase_8,139,9999,9999,9999,2003517536
89,19,15,Jits_Phase_8,140,9999,9999,9999,2004317240
89,19,15,Jits_Phase_8,141,9999,9999,9999,2005118028
89,19,15,Jits_Phase_8,142,9999,9999,9999,2005917760
89,19,15,Jits_Phase_8,143,9999,9999,9999,2006717536
89,19,15,Jits_Phase_8,144,9999,9999,9999,2007517244
89,19,15,Jits_Phase_8,145,9999,9999,9999,2008318048
89,19,15,Jits_Phase_8,146,9999,9999,9999,2009117808
89,19,15,Jits_Phase_8,147,9999,9999,9999,2009917536
89,19,15,Jits_Phase_8,148,9999,9999,9999,2010717288
89,19,15,Jits_Phase_8,149,9999,9999,9999,2011518016
89,19,15,Jits_Phase_8,150,9999,9999,9999,2012158052
89,19,15,Jits_Phase_8,151,9999,9999,9999,2012957808
89,19,15,Jits_Phase_8,152,9999,9999,9999,2013757544
89,19,15,Jits_Phase_8,153,9999,9999,9999,2014557308
89,19,15,Jits_Phase_8,154,9999,9999,9999,2015358032
89,19,15,Jits_Phase_8,155,9999,9999,9999,2016157776
89,19,15,Jits_Phase_8,156,9999,9999,9999,2016957536
89,19,15,Jits_Phase_8,157,9999,9999,9999,2017757240
89,19,15,Jits_Phase_8,158,9999,9999,9999,2018558048
89,19,15,Jits_Phase_8,159,9999,9999,9999,2019357804
89,19,15,Jits_Phase_8,160,9999,9999,9999,2020157568
89,19,15,Jits_Phase_8,161,9999,9999,9999,2020957248
89,19,15,Jits_Phase_8,162,9999,9999,9999,2021758060
89,19,15,Jits_Phase_8,163,9999,9999,9999,2022557808
89,19,15,Jits_Phase_8,164,9999,9999,9999,2023357540
89,19,15,Jits_Phase_8,165,9999,9999,9999,2024157248
89,19,15,Jits_Phase_8,166,9999,9999,9999,2024958068
89,19,15,Jits_Phase_8,167,9999,9999,9999,2025757756
89,19,15,Jits_Phase_8,168,9999,9999,9999,2026557548
89,19,15,Jits_Phase_8,169,9999,9999,9999,2027357244
89,20,5,ISIP_5,0,5,42,127,2092483888
89,20,5,ISIP_5,1,5,42,127,2092983828
89,20,5,ISIP_5,2,5,42,127,2093484368
89,20,5,ISIP_5,3,5,42,127,2093984088
89,20,5,ISIP_5,4,1,48,39,2094412776
89,20,5,ISIP_5,5,5,42,127,2094483872
89,20,5,ISIP_5,6,1,48,42,2094871036
89,20,5,ISIP_5,7,5,42,127,2094983624
89,20,5,ISIP_5,8,1,48,41,2095355024
89,20,5,ISIP_5,9,5,42,127,2095484216
89,20,5,ISIP_5,10,1,48,42,2095850604
89,20,5,ISIP_5,11,5,42,127,2095984060
89,20,5,ISIP_5,12,1,48,40,2096357928
89,20,5,ISIP_5,13,5,42,127,2096483680
89,20,5,ISIP_5,14,1,48,44,2096827828
89,20,5,ISIP_5,15,5,42,127,2096984572
89,20,5,ISIP_5,16,1,48,41,2097351232
89,20,5,ISIP_5,17,5,42,127,2097484116
89,20,5,ISIP_5,18,1,48,38,2097881020
89,20,5,ISIP_5,19,5,42,127,2097983812
89,20,5,ISIP_5,20,1,48,38,2098438984
89,20,5,ISIP_5,21,5,42,127,2098483824
89,20,5,ISIP_5,22,1,48,35,2098958728
89,20,5,ISIP_5,23,5,42,127,2098984340
89,20,5,ISIP_5,24,1,48,41,2099460812
89,20,5,ISIP_5,25,5,42,127,2099483964
89,20,5,ISIP_5,26,1,48,36,2099956772
89,20,5,ISIP_5,27,5,42,127,2099983880
89,20,5,ISIP_5,28,1,48,41,2100433352
89,20,5,ISIP_5,29,5,42,127,2100483724
89,20,5,ISIP_5,30,1,48,43,2100942620
89,20,5,ISIP_5,31,5,42,127,2100984316
89,20,5,ISIP_5,32,1,48,38,2101450444
89,20,5,ISIP_5,33,5,42,127,2101483864
89,20,5,ISIP_5,34,1,48,38,2101952084
89,20,5,ISIP_5,35,5,42,127,2101984004
89,20,5,ISIP_5,36,1,48,37,2102442132
89,20,5,ISIP_5,37,5,42,127,2102484296
89,20,5,ISIP_5,38,1,48,40,2102939656
89,20,5,ISIP_5,39,5,42,127,2102983968
89,20,5,ISIP_5,40,1,48,37,2103438528
89,20,5,ISIP_5,41,5,42,127,2103483812
89,20,5,ISIP_5,42,1,48,41,2103960208
89,20,5,ISIP_5,43,5,42,127,2103983656
89,20,5,ISIP_5,44,1,48,39,2104467156
89,20,5,ISIP_5,45,5,42,127,2104484248
89,20,5,ISIP_5,46,1,48,38,2104963860
89,20,5,ISIP_5,47,5,42,127,2104983792
89,20,5,ISIP_5,48,1,48,40,2105449720
89,20,5,ISIP_5,49,5,42,127,2105483784
89,20,5,ISIP_5,50,1,48,40,2105939540
89,20,5,ISIP_5,51,5,42,127,2105984528
89,20,5,ISIP_5,52,1,48,38,2106453076
89,20,5,ISIP_5,53,5,42,127,2106484076
89,20,5,ISIP_5,54,1,48,43,2106948956
89,20,5,ISIP_5,55,5,42,127,2106983768
89,20,5,ISIP_5,56,1,48,41,2107454932
89,20,5,ISIP_5,57,5,42,127,2107483760
89,20,5,ISIP_5,58,1,48,42,2107936828
89,20,5,ISIP_5,59,5,42,127,2107984280
89,20,5,ISIP_5,60,1,48,41,2108436068
89,20,5,ISIP_5,61,5,42,127,2108484048
89,20,5,ISIP_5,62,1,48,40,2108971148
89,20,5,ISIP_5,63,5,42,127,2108983744
89,20,5,ISIP_5,64,1,48,38,2109450492
89,20,5,ISIP_5,65,5,42,127,2109484560
89,20,5,ISIP_5,66,1,48,40,2109940840
89,20,5,ISIP_5,67,5,42,127,2109984032
89,20,5,ISIP_5,68,1,48,38,2110436044
89,20,5,ISIP_5,69,5,42,127,2110483872
89,20,5,ISIP_5,70,1,48,36,2110938052
89,20,5,ISIP_5,71,5,42,127,2110983792
89,20,5,ISIP_5,72,1,48,41,2111463856
89,20,5,ISIP_5,73,5,42,127,2111484236
89,20,5,ISIP_5,74,1,48,38,2111951060
89,20,5,ISIP_5,75,5,42,127,2111983928
89,20,5,ISIP_5,76,1,48,35,2112450656
89,20,5,ISIP_5,77,1,48,37,2112937328
89,20,5,ISIP_5,78,1,48,33,2113410464
89,20,5,ISIP_5,79,1,48,35,2113908888
89,20,5,ISIP_5,80,1,48,37,2114417472
89,20,5,ISIP_5,81,1,48,36,2114922852
89,20,5,ISIP_5,82,1,48,35,2115422320
89,20,5,ISIP_5,83,1,48,37,2115919836
89,20,5,ISIP_5,84,1,48,38,2116416760
89,20,5,ISIP_5,85,1,48,35,2116912560
89,20,5,ISIP_5,86,1,48,41,2117408508
89,20,5,ISIP_5,87,1,48,39,2117900720
89,20,5,ISIP_5,88,1,48,37,2118420980
89,20,5,ISIP_5,89,1,48,38,2118917004
89,20,5,ISIP_5,90,1,48,40,2119385356
89,20,5,ISIP_5,91,1,48,38,2119869016
89,20,5,ISIP_5,92,1,48,41,2120362052
89,20,5,ISIP_5,93,1,48,36,2120851044
89,20,5,ISIP_5,94,1,48,38,2121329488
89,20,5,ISIP_5,95,1,48,33,2121820504
89,20,5,ISIP_5,96,1,48,30,2122347196
89,20,5,ISIP_5,97,1,48,35,2122838660
89,20,5,ISIP_5,98,1,48,37,2123300352
89,20,5,ISIP_5,99,1,48,34,2123772668
89,20,5,ISIP_5,100,1,48,37,2124240792
89,20,5,ISIP_5,101,1,48,40,2124754768
89,20,5,ISIP_5,102,1,48,39,2125227064
89,20,5,ISIP_5,103,1,48,35,2125709248
89,20,5,ISIP_5,104,1,48,40,2126211704
89,20,5,ISIP_5,105,1,48,40,2126708856
89,20,5,ISIP_5,106,1,48,39,2127207648
89,20,5,ISIP_5,107,1,48,38,2127733068
89,20,5,ISIP_5,108,1,48,38,2128212040
89,20,5,ISIP_5,109,1,48,37,2128703724
89,20,5,ISIP_5,110,1,48,43,2129206252
89,20,5,ISIP_5,111,1,48,39,2129712904
89,20,5,ISIP_5,112,1,48,41,2130186492
89,20,5,ISIP_5,113,1,48,40,2130666588
89,20,5,ISIP_5,114,1,48,36,2131146428
89,20,5,ISIP_5,115,1,48,36,2131662672
89,20,5,ISIP_5,116,1,48,41,2132152692
89,20,5,ISIP_5,117,1,48,36,2132651856
89,20,5,ISIP_5,118,1,48,35,2133151544
89,20,5,ISIP_5,119,1,48,36,2133629920
89,20,5,ISIP_5,120,1,48,39,2134128188
89,20,5,ISIP_5,121,1,48,39,2134652340
89,20,5,ISIP_5,122,1,48,38,2135164224
89,20,5,ISIP_5,123,1,48,35,2135659948
89,20,5,ISIP_5,124,1,48,36,2136149168
89,20,5,ISIP_5,125,1,48,38,2136643920
89,20,5,ISIP_5,126,1,48,34,2137125508
89,20,5,ISIP_5,127,1,48,39,2137651232
89,20,5,ISIP_5,128,1,48,35,2138147772
89,20,5,ISIP_5,129,1,48,35,2138636020
89,20,5,ISIP_5,130,1,48,38,2139104748
89,20,5,ISIP_5,131,1,48,36,2139607284
89,20,5,ISIP_5,132,1,48,39,2140110412
89,20,5,ISIP_5,133,1,48,39,2140596464
89,20,5,ISIP_5,134,1,48,39,2141100196
89,20,5,ISIP_5,135,1,48,37,2141600704
89,20,5,ISIP_5,136,1,48,38,2142105256
89,20,5,ISIP_5,137,1,48,34,2142629336
89,20,5,ISIP_5,138,1,48,34,2143115860
89,20,5,ISIP_5,139,1,48,37,2143613156
89,20,5,ISIP_5,140,1,48,41,2144110904
89,20,5,ISIP_5,141,1,48,41,2144608348
89,20,5,ISIP_5,142,1,48,38,2145087168
89,20,5,ISIP_5,143,1,48,37,2145580804
89,20,5,ISIP_5,144,1,48,38,2146089996
89,20,5,ISIP_5,145,1,48,36,2146604420
89,20,5,ISIP_5,146,1,48,41,2147087728
89,20,5,ISIP_5,147,1,48,41,2147576124
89,20,5,ISIP_5,148,1,48,39,2148077160
89,20,5,ISIP_5,149,1,48,36,2148558228
89,20,5,ISIP_5,150,1,48,40,2149043312
89,20,5,ISIP_5,151,1,48,42,2149547564
89,20,5,ISIP_5,152,1,48,38,2150041944
89,20,5,ISIP_5,153,1,48,43,2150537592
89,20,5,ISIP_5,154,1,48,39,2151039824
89,20,5,ISIP_5,155,1,48,40,2151508624
89,20,5,ISIP_5,156,1,48,40,2151994480
89,20,5,ISIP_5,157,1,48,38,2152474332
89,20,5,ISIP_5,158,1,48,41,2152963028
89,20,5,ISIP_5,159,1,48,42,2153450532
89,20,5,ISIP_5,160,1,48,43,2153940124
89,20,5,ISIP_5,161,1,48,40,2154421088
89,20,5,ISIP_5,162,1,48,39,2154902080
89,20,5,ISIP_5,163,1,48,40,2155357788
89,20,5,ISIP_5,164,1,48,35,2155866676
89,20,5,ISIP_5,165,1,48,35,2156353504
89,20,5,ISIP_5,166,1,48,37,2156827768
89,20,5,ISIP_5,167,1,48,39,2157309876
89,20,5,ISIP_5,168,1,48,39,2157794460
89,20,5,ISIP_5,169,1,48,27,2158303048
89,20,5,ISIP_5,170,1,48,42,2158778484
89,20,5,ISIP_5,171,1,48,37,2159223720
89,20,5,ISIP_5,172,1,48,37,2159684068
89,20,5,ISIP_5,173,1,48,36,2160164388
89,20,5,ISIP_5,174,1,48,39,2160647472
89,20,5,ISIP_5,175,1,48,38,2161127940
89,20,5,ISIP_5,176,1,48,38,2161593124
89,20,5,ISIP_5,177,1,48,39,2162093936
89,20,5,ISIP_5,178,1,48,42,2162557572
89,20,5,ISIP_5,179,1,48,36,2163037064
89,20,5,ISIP_5,180,1,48,36,2163499512
89,20,5,ISIP_5,181,1,48,38,2163970092
89,20,5,ISIP_5,182,1,48,39,2164472924
89,20,5,ISIP_5,183,1,48,35,2164961396
89,20,5,ISIP_5,184,1,48,42,2165410492
89,20,5,ISIP_5,185,1,48,33,2165895824
89,20,5,ISIP_5,186,1,48,40,2166403892
89,20,5,ISIP_5,187,1,48,38,2166869848
89,20,5,ISIP_5,188,1,48,41,2167329668
89,20,5,ISIP_5,189,1,48,37,2167841328
89,20,5,ISIP_5,190,1,48,37,2168318060
89,20,5,ISIP_5,191,1,48,42,2168778324
89,20,5,ISIP_5,192,1,48,39,2169240592
89,20,5,ISIP_5,193,1,48,39,2169754416
89,20,5,ISIP_5,194,1,48,38,2170219400
89,20,5,ISIP_5,195,1,48,33,2170672116
89,20,5,ISIP_5,196,1,48,37,2171143012
89,20,5,ISIP_5,197,1,48,33,2171625048
89,20,5,ISIP_5,198,1,48,30,2172136488
89,20,5,ISIP_5,0,9999,9999,9999,2092481600
89,20,5,ISIP_5,1,9999,9999,9999,2092981316
89,20,5,ISIP_5,2,9999,9999,9999,2093482080
89,20,5,ISIP_5,3,9999,9999,9999,2093981800
89,20,5,ISIP_5,4,9999,9999,9999,2094481508
89,20,5,ISIP_5,5,9999,9999,9999,2094981188
89,20,5,ISIP_5,6,9999,9999,9999,2095481932
89,20,5,ISIP_5,7,9999,9999,9999,2095981628
89,20,5,ISIP_5,8,9999,9999,9999,2096481396
89,20,5,ISIP_5,9,9999,9999,9999,2096982136
89,20,5,ISIP_5,10,9999,9999,9999,2097481832
89,20,5,ISIP_5,11,9999,9999,9999,2097981528
89,20,5,ISIP_5,12,9999,9999,9999,2098481236
89,20,5,ISIP_5,13,9999,9999,9999,2098981980
89,20,5,ISIP_5,14,9999,9999,9999,2099481676
89,20,5,ISIP_5,15,9999,9999,9999,2099981372
89,20,5,ISIP_5,16,9999,9999,9999,2100481140
89,20,5,ISIP_5,17,9999,9999,9999,2100981884
89,20,5,ISIP_5,18,9999,9999,9999,2101481576
89,20,5,ISIP_5,19,9999,9999,9999,2101981272
89,20,5,ISIP_5,20,9999,9999,9999,2102482012
89,20,5,ISIP_5,21,9999,9999,9999,2102981680
89,20,5,ISIP_5,22,9999,9999,9999,2103481452
89,20,5,ISIP_5,23,9999,9999,9999,2103981148
89,20,5,ISIP_5,24,9999,9999,9999,2104481888
89,20,5,ISIP_5,25,9999,9999,9999,2104981580
89,20,5,ISIP_5,26,9999,9999,9999,2105481276
89,20,5,ISIP_5,27,9999,9999,9999,2105982020
89,20,5,ISIP_5,28,9999,9999,9999,2106481712
89,20,5,ISIP_5,29,9999,9999,9999,2106981480
89,20,5,ISIP_5,30,9999,9999,9999,2107481176
89,20,5,ISIP_5,31,9999,9999,9999,2107981920
89,20,5,ISIP_5,32,9999,9999,9999,2108481612
89,20,5,ISIP_5,33,9999,9999,9999,2108981308
89,20,5,ISIP_5,34,9999,9999,9999,2109482048
89,20,5,ISIP_5,35,9999,9999,9999,2109981820
89,20,5,ISIP_5,36,9999,9999,9999,2110481512
89,20,5,ISIP_5,37,9999,9999,9999,2110981208
89,20,5,ISIP_5,38,9999,9999,9999,2111481948
89,20,5,ISIP_5,39,9999,9999,9999,2111981644
89,20,5,ISIP_5,40,9999,9999,9999,2112481336
89,20,5,ISIP_5,41,9999,9999,9999,2112982076
89,20,5,ISIP_5,42,9999,9999,9999,2113481812
89,20,5,ISIP_5,43,9999,9999,9999,2113981504
89,20,5,ISIP_5,44,9999,9999,9999,2114481268
89,20,5,ISIP_5,45,9999,9999,9999,2114982004
89,20,5,ISIP_5,46,9999,9999,9999,2115481696
89,20,5,ISIP_5,47,9999,9999,9999,2115981388
89,20,5,ISIP_5,48,9999,9999,9999,2116481076
89,20,5,ISIP_5,49,9999,9999,9999,2116981816
89,20,5,ISIP_5,50,9999,9999,9999,2117481580
89,20,5,ISIP_5,51,9999,9999,9999,2117981272
89,20,5,ISIP_5,52,9999,9999,9999,2118482008
89,20,5,ISIP_5,53,9999,9999,9999,2118981696
89,20,5,ISIP_5,54,9999,9999,9999,2119481464
89,20,5,ISIP_5,55,9999,9999,9999,2119981140
89,20,5,ISIP_5,56,9999,9999,9999,2120481876
89,20,5,ISIP_5,57,9999,9999,9999,2120981568
89,20,5,ISIP_5,58,9999,9999,9999,2121481332
89,20,5,ISIP_5,59,9999,9999,9999,2121982068
89,20,5,ISIP_5,60,9999,9999,9999,2122481760
89,20,5,ISIP_5,61,9999,9999,9999,2122981448
89,20,5,ISIP_5,62,9999,9999,9999,2123481140
89,20,5,ISIP_5,63,9999,9999,9999,2123981880
89,20,5,ISIP_5,64,9999,9999,9999,2124481620
89,20,5,ISIP_5,65,9999,9999,9999,2124981312
89,20,5,ISIP_5,66,9999,9999,9999,2125482044
89,20,5,ISIP_5,67,9999,9999,9999,2125981812
89,20,5,ISIP_5,68,9999,9999,9999,2126481504
89,20,5,ISIP_5,69,9999,9999,9999,2126981192
89,20,5,ISIP_5,70,9999,9999,9999,2127481932
89,20,5,ISIP_5,71,9999,9999,9999,2127981620
89,20,5,ISIP_5,72,9999,9999,9999,2128481384
89,20,5,ISIP_5,73,9999,9999,9999,2128982124
89,20,5,ISIP_5,74,9999,9999,9999,2129481812
89,20,5,ISIP_5,75,9999,9999,9999,2129981504
89,20,5,ISIP_5,76,9999,9999,9999,2130481272
89,20,5,ISIP_5,77,9999,9999,9999,2130982008
89,20,5,ISIP_5,78,9999,9999,9999,2131481700
89,20,5,ISIP_5,79,9999,9999,9999,2131981388
89,20,5,ISIP_5,80,9999,9999,9999,2132481080
89,20,5,ISIP_5,81,9999,9999,9999,2132981816
89,20,5,ISIP_5,82,9999,9999,9999,2133481580
89,20,5,ISIP_5,83,9999,9999,9999,2133981272
89,20,5,ISIP_5,84,9999,9999,9999,2134482008
89,20,5,ISIP_5,85,9999,9999,9999,2134981748
89,20,5,ISIP_5,86,9999,9999,9999,2135481440
89,20,5,ISIP_5,87,9999,9999,9999,2135981132
89,20,5,ISIP_5,88,9999,9999,9999,2136481868
89,20,5,ISIP_5,89,9999,9999,9999,2136981556
89,20,5,ISIP_5,90,9999,9999,9999,2137481324
89,20,5,ISIP_5,91,9999,9999,9999,2137982060
89,20,5,ISIP_5,92,9999,9999,9999,2138481752
89,20,5,ISIP_5,93,9999,9999,9999,2138981440
89,20,5,ISIP_5,94,9999,9999,9999,2139481208
89,20,5,ISIP_5,95,9999,9999,9999,2139981944
89,20,5,ISIP_5,96,9999,9999,9999,2140481632
89,20,5,ISIP_5,97,9999,9999,9999,2140981324
89,20,5,ISIP_5,98,9999,9999,9999,2141482064
89,20,5,ISIP_5,99,9999,9999,9999,2141981752
89,20,5,ISIP_5,100,9999,9999,9999,2142481516
89,20,5,ISIP_5,101,9999,9999,9999,2142981208
89,20,5,ISIP_5,102,9999,9999,9999,2143481944
89,20,5,ISIP_5,103,9999,9999,9999,2143981636
89,20,5,ISIP_5,104,9999,9999,9999,2144481400
89,20,5,ISIP_5,105,9999,9999,9999,2144982136
89,20,5,ISIP_5,106,9999,9999,9999,2145481804
89,20,5,ISIP_5,107,9999,9999,9999,2145981496
89,20,5,ISIP_5,108,9999,9999,9999,2146481260
89,20,5,ISIP_5,109,9999,9999,9999,2146982000
89,20,5,ISIP_5,110,9999,9999,9999,2147481692
89,20,5,ISIP_5,111,9999,9999,9999,2147981384
89,20,5,ISIP_5,112,9999,9999,9999,2148481148
89,20,5,ISIP_5,113,9999,9999,9999,2148981808
89,20,5,ISIP_5,114,9999,9999,9999,2149481572
89,20,5,ISIP_5,115,9999,9999,9999,2149981264
89,20,5,ISIP_5,116,9999,9999,9999,2150482000
89,20,5,ISIP_5,117,9999,9999,9999,2150981692
89,20,5,ISIP_5,118,9999,9999,9999,2151481456
89,20,5,ISIP_5,119,9999,9999,9999,2151981148
89,20,5,ISIP_5,120,9999,9999,9999,2152481880
89,20,5,ISIP_5,121,9999,9999,9999,2152981572
89,20,5,ISIP_5,122,9999,9999,9999,2153481336
89,20,5,ISIP_5,123,9999,9999,9999,2153982000
89,20,5,ISIP_5,124,9999,9999,9999,2154481768
89,20,5,ISIP_5,125,9999,9999,9999,2154981456
89,20,5,ISIP_5,126,9999,9999,9999,2155481208
89,20,5,ISIP_5,127,9999,9999,9999,2155981944
89,20,5,ISIP_5,128,9999,9999,9999,2156481612
89,20,5,ISIP_5,129,9999,9999,9999,2156981300
89,20,5,ISIP_5,130,9999,9999,9999,2157482040
89,20,5,ISIP_5,131,9999,9999,9999,2157981804
89,20,5,ISIP_5,132,9999,9999,9999,2158481496
89,20,5,ISIP_5,133,9999,9999,9999,2158981188
89,20,5,ISIP_5,134,9999,9999,9999,2159481924
89,20,5,ISIP_5,135,9999,9999,9999,2159981688
89,20,5,ISIP_5,136,9999,9999,9999,2160481380
89,20,5,ISIP_5,137,9999,9999,9999,2160982120
89,20,5,ISIP_5,138,9999,9999,9999,2161481808
89,20,5,ISIP_5,139,9999,9999,9999,2161981500
89,20,5,ISIP_5,140,9999,9999,9999,2162481264
89,20,5,ISIP_5,141,9999,9999,9999,2162982000
89,20,5,ISIP_5,142,9999,9999,9999,2163481692
89,20,5,ISIP_5,143,9999,9999,9999,2163981376
89,20,5,ISIP_5,144,9999,9999,9999,2164481140
89,20,5,ISIP_5,145,9999,9999,9999,2164981880
89,20,5,ISIP_5,146,9999,9999,9999,2165481568
89,20,5,ISIP_5,147,9999,9999,9999,2165981260
89,20,5,ISIP_5,148,9999,9999,9999,2166481996
89,20,5,ISIP_5,149,9999,9999,9999,2166981720
89,20,5,ISIP_5,150,9999,9999,9999,2167481412
89,20,5,ISIP_5,151,9999,9999,9999,2167981104
89,20,5,ISIP_5,152,9999,9999,9999,2168481840
89,20,5,ISIP_5,153,9999,9999,9999,2168981600
89,20,5,ISIP_5,154,9999,9999,9999,2169481292
89,20,5,ISIP_5,155,9999,9999,9999,2169982028
89,20,5,ISIP_5,156,9999,9999,9999,2170481720
89,20,5,ISIP_5,157,9999,9999,9999,2170981484
89,20,5,ISIP_5,158,9999,9999,9999,2171481176
89,20,5,ISIP_5,159,9999,9999,9999,2171981912
89,21,3,ISIP_8,0,5,42,127,2193295860
89,21,3,ISIP_8,1,5,42,127,2194095540
89,21,3,ISIP_8,2,1,48,45,2194754112
89,21,3,ISIP_8,3,5,42,127,2194896420
89,21,3,ISIP_8,4,1,48,48,2195536420
89,21,3,ISIP_8,5,5,42,127,2195696008
89,21,3,ISIP_8,6,1,48,40,2196375648
89,21,3,ISIP_8,7,5,42,127,2196495668
89,21,3,ISIP_8,8,1,48,30,2197175752
89,21,3,ISIP_8,9,5,42,127,2197295400
89,21,3,ISIP_8,10,1,48,35,2197970500
89,21,3,ISIP_8,11,5,42,127,2198096476
89,21,3,ISIP_8,12,1,48,31,2198808528
89,21,3,ISIP_8,13,5,42,127,2198895928
89,21,3,ISIP_8,14,1,48,35,2199580140
89,21,3,ISIP_8,15,5,42,127,2199695720
89,21,3,ISIP_8,16,1,48,38,2200393936
89,21,3,ISIP_8,17,5,42,127,2200495376
89,21,3,ISIP_8,18,1,48,42,2201188732
89,21,3,ISIP_8,19,5,42,127,2201296480
89,21,3,ISIP_8,20,1,48,37,2201991384
89,21,3,ISIP_8,21,5,42,127,2202095840
89,21,3,ISIP_8,22,1,48,37,2202789540
89,21,3,ISIP_8,23,5,42,127,2202895648
89,21,3,ISIP_8,24,1,48,41,2203547164
89,21,3,ISIP_8,25,5,42,127,2203695604
89,21,3,ISIP_8,26,1,48,37,2204321240
89,21,3,ISIP_8,27,5,42,127,2204496384
89,21,3,ISIP_8,28,1,48,40,2205092256
89,21,3,ISIP_8,29,5,42,127,2205296268
89,21,3,ISIP_8,30,1,48,32,2205860948
89,21,3,ISIP_8,31,5,42,127,2206095852
89,21,3,ISIP_8,32,1,48,36,2206604432
89,21,3,ISIP_8,33,5,42,127,2206895432
89,21,3,ISIP_8,34,1,48,35,2207372376
89,21,3,ISIP_8,35,5,42,127,2207696164
89,21,3,ISIP_8,36,1,48,36,2208106280
89,21,3,ISIP_8,37,5,42,127,2208496196
89,21,3,ISIP_8,38,1,48,45,2208924416
89,21,3,ISIP_8,39,5,42,127,2209295704
89,21,3,ISIP_8,40,1,48,41,2209703356
89,21,3,ISIP_8,41,5,42,127,2210095440
89,21,3,ISIP_8,42,1,48,41,2210513364
89,21,3,ISIP_8,43,5,42,127,2210896292
89,21,3,ISIP_8,44,1,48,42,2211318328
89,21,3,ISIP_8,45,5,42,127,2211696028
89,21,3,ISIP_8,46,1,48,40,2212108788
89,21,3,ISIP_8,47,5,42,127,2212495688
89,21,3,ISIP_8,48,1,48,45,2212883388
89,21,3,ISIP_8,49,5,42,127,2213295344
89,21,3,ISIP_8,50,1,48,39,2213635256
89,21,3,ISIP_8,51,5,42,127,2214096224
89,21,3,ISIP_8,52,1,48,47,2214453760
89,21,3,ISIP_8,53,5,42,127,2214896180
89,21,3,ISIP_8,54,1,48,45,2215285060
89,21,3,ISIP_8,55,5,42,127,2215695692
89,21,3,ISIP_8,56,1,48,43,2216109180
89,21,3,ISIP_8,57,5,42,127,2216495352
89,21,3,ISIP_8,58,1,48,44,2216932796
89,21,3,ISIP_8,59,1,48,44,2217733572
89,21,3,ISIP_8,60,1,48,38,2218571668
89,21,3,ISIP_8,61,1,48,44,2219319116
89,21,3,ISIP_8,62,1,48,41,2220159240
89,21,3,ISIP_8,63,1,48,46,2220946776
89,21,3,ISIP_8,64,1,48,43,2221731096
89,21,3,ISIP_8,65,1,48,40,2222559496
89,21,3,ISIP_8,66,1,48,39,2223364388
89,21,3,ISIP_8,67,1,48,41,2224137860
89,21,3,ISIP_8,68,1,48,41,2224925996
89,21,3,ISIP_8,69,1,48,41,2225689752
89,21,3,ISIP_8,70,1,48,38,2226472200
89,21,3,ISIP_8,71,1,48,40,2227248520
89,21,3,ISIP_8,72,1,48,38,2228029996
89,21,3,ISIP_8,73,1,48,43,2228810424
89,21,3,ISIP_8,74,1,48,32,2229627804
89,21,3,ISIP_8,75,1,48,36,2230406368
89,21,3,ISIP_8,76,1,48,38,2231207072
89,21,3,ISIP_8,77,1,48,36,2232013408
89,21,3,ISIP_8,78,1,48,34,2232834304
89,21,3,ISIP_8,79,1,48,37,2233654676
89,21,3,ISIP_8,80,1,48,26,2234459196
89,21,3,ISIP_8,81,1,48,38,2235215016
89,21,3,ISIP_8,82,1,48,36,2236012500
89,21,3,ISIP_8,83,1,48,34,2236789636
89,21,3,ISIP_8,84,1,48,43,2237578896
89,21,3,ISIP_8,85,1,48,36,2238330980
89,21,3,ISIP_8,86,1,48,36,2239136240
89,21,3,ISIP_8,87,1,48,40,2239903060
89,21,3,ISIP_8,88,1,48,35,2240679228
89,21,3,ISIP_8,89,1,48,38,2241480028
89,21,3,ISIP_8,90,1,48,42,2242278860
89,21,3,ISIP_8,91,1,48,42,2243058320
89,21,3,ISIP_8,92,1,48,38,2243833068
89,21,3,ISIP_8,93,1,48,35,2244567424
89,21,3,ISIP_8,94,1,48,34,2245352940
89,21,3,ISIP_8,95,1,48,35,2246150124
89,21,3,ISIP_8,96,1,48,39,2246997280
89,21,3,ISIP_8,97,1,48,32,2247837396
89,21,3,ISIP_8,98,1,48,34,2248587540
89,21,3,ISIP_8,99,1,48,38,2249401104
89,21,3,ISIP_8,100,1,48,34,2250230032
89,21,3,ISIP_8,101,1,48,39,2251027888
89,21,3,ISIP_8,102,1,48,40,2251813480
89,21,3,ISIP_8,103,1,48,37,2252595260
89,21,3,ISIP_8,104,1,48,34,2253367464
89,21,3,ISIP_8,105,1,48,32,2254155296
89,21,3,ISIP_8,106,1,48,38,2254958616
89,21,3,ISIP_8,107,1,48,40,2255739052
89,21,3,ISIP_8,108,1,48,38,2256522844
89,21,3,ISIP_8,109,1,48,13,2256631232
89,21,3,ISIP_8,110,1,48,37,2257324348
89,21,3,ISIP_8,111,1,48,37,2258152224
89,21,3,ISIP_8,112,1,48,36,2258946420
89,21,3,ISIP_8,113,1,48,42,2259705908
89,21,3,ISIP_8,114,1,48,37,2260484080
89,21,3,ISIP_8,115,1,48,29,2261264588
89,21,3,ISIP_8,116,1,48,30,2262031484
89,21,3,ISIP_8,117,1,48,30,2262783784
89,21,3,ISIP_8,118,1,48,34,2263547988
89,21,3,ISIP_8,119,1,48,31,2264380252
89,21,3,ISIP_8,120,1,48,38,2265136528
89,21,3,ISIP_8,121,1,48,26,2265953312
89,21,3,ISIP_8,122,1,48,31,2266752072
89,21,3,ISIP_8,123,1,48,35,2267546112
89,21,3,ISIP_8,124,1,48,38,2268350480
89,21,3,ISIP_8,125,1,48,36,2269143724
89,21,3,ISIP_8,126,1,48,35,2269901268
89,21,3,ISIP_8,127,1,48,33,2270695984
89,21,3,ISIP_8,128,1,48,36,2271504092
89,21,3,ISIP_8,129,1,48,38,2272277644
89,21,3,ISIP_8,130,1,48,40,2273035856
89,21,3,ISIP_8,131,1,48,40,2273790040
89,21,3,ISIP_8,132,1,48,33,2274581016
89,21,3,ISIP_8,133,1,48,40,2275314700
89,21,3,ISIP_8,134,1,48,33,2276098720
89,21,3,ISIP_8,135,1,48,36,2276820136
89,21,3,ISIP_8,136,1,48,30,2277565464
89,21,3,ISIP_8,137,1,48,35,2278267280
89,21,3,ISIP_8,138,1,48,43,2278980916
89,21,3,ISIP_8,139,1,48,42,2279720432
89,21,3,ISIP_8,140,1,48,37,2280472128
89,21,3,ISIP_8,141,1,48,49,2281201248
89,21,3,ISIP_8,142,1,48,38,2281925732
89,21,3,ISIP_8,143,1,48,40,2282641668
89,21,3,ISIP_8,144,1,48,40,2283363676
89,21,3,ISIP_8,145,1,48,35,2284088232
89,21,3,ISIP_8,146,1,48,38,2284764548
89,21,3,ISIP_8,147,1,48,36,2285496260
89,21,3,ISIP_8,148,1,48,36,2286182296
89,21,3,ISIP_8,149,1,48,35,2286863984
89,21,3,ISIP_8,150,1,48,43,2287583004
89,21,3,ISIP_8,151,1,48,45,2288279188
89,21,3,ISIP_8,152,1,48,30,2289003748
89,21,3,ISIP_8,153,1,48,35,2289690380
89,21,3,ISIP_8,154,1,48,45,2290375664
89,21,3,ISIP_8,155,1,48,44,2291032060
89,21,3,ISIP_8,156,1,48,35,2291792072
89,21,3,ISIP_8,157,1,48,40,2292521568
89,21,3,ISIP_8,158,1,48,40,2293193604
89,21,3,ISIP_8,159,1,48,33,2293933396
89,21,3,ISIP_8,160,1,48,43,2294672312
89,21,3,ISIP_8,161,1,48,38,2295379220
89,21,3,ISIP_8,162,1,48,45,2296108040
89,21,3,ISIP_8,163,1,48,40,2296796320
89,21,3,ISIP_8,164,1,48,41,2297479112
89,21,3,ISIP_8,165,1,48,38,2298185196
89,21,3,ISIP_8,166,1,48,38,2298871516
89,21,3,ISIP_8,167,1,48,43,2299557748
89,21,3,ISIP_8,168,1,48,39,2300254340
89,21,3,ISIP_8,169,1,48,40,2300968644
89,21,3,ISIP_8,170,1,48,42,2301659916
89,21,3,ISIP_8,171,1,48,44,2302310176
89,21,3,ISIP_8,172,1,48,45,2302997404
89,21,3,ISIP_8,173,1,48,45,2303687096
89,21,3,ISIP_8,174,1,48,43,2304372732
89,21,3,ISIP_8,175,1,48,14,2304492264
89,21,3,ISIP_8,176,1,48,41,2305087920
89,21,3,ISIP_8,177,1,48,46,2305795648
89,21,3,ISIP_8,178,1,48,45,2306507792
89,21,3,ISIP_8,179,1,48,44,2307243688
89,21,3,ISIP_8,180,1,48,46,2307973780
89,21,3,ISIP_8,181,1,48,42,2308677244
89,21,3,ISIP_8,182,1,48,41,2309377716
89,21,3,ISIP_8,183,1,48,46,2310055416
89,21,3,ISIP_8,184,1,48,43,2310719312
89,21,3,ISIP_8,185,1,48,40,2311402132
89,21,3,ISIP_8,186,1,48,44,2312098096
89,21,3,ISIP_8,187,1,48,43,2312794900
89,21,3,ISIP_8,0,9999,9999,9999,2193293424
89,21,3,ISIP_8,1,9999,9999,9999,2194093104
89,21,3,ISIP_8,2,9999,9999,9999,2194893908
89,21,3,ISIP_8,3,9999,9999,9999,2195693644
89,21,3,ISIP_8,4,9999,9999,9999,2196493380
89,21,3,ISIP_8,5,9999,9999,9999,2197293112
89,21,3,ISIP_8,6,9999,9999,9999,2198093892
89,21,3,ISIP_8,7,9999,9999,9999,2198893640
89,21,3,ISIP_8,8,9999,9999,9999,2199693432
89,21,3,ISIP_8,9,9999,9999,9999,2200493164
89,21,3,ISIP_8,10,9999,9999,9999,2201293892
89,21,3,ISIP_8,11,9999,9999,9999,2202093628
89,21,3,ISIP_8,12,9999,9999,9999,2202893360
89,21,3,ISIP_8,13,9999,9999,9999,2203693168
89,21,3,ISIP_8,14,9999,9999,9999,2204493876
89,21,3,ISIP_8,15,9999,9999,9999,2205293680
89,21,3,ISIP_8,16,9999,9999,9999,2206093412
89,21,3,ISIP_8,17,9999,9999,9999,2206893144
89,21,3,ISIP_8,18,9999,9999,9999,2207693876
89,21,3,ISIP_8,19,9999,9999,9999,2208493684
89,21,3,ISIP_8,20,9999,9999,9999,2209293416
89,21,3,ISIP_8,21,9999,9999,9999,2210093152
89,21,3,ISIP_8,22,9999,9999,9999,2210893932
89,21,3,ISIP_8,23,9999,9999,9999,2211693664
89,21,3,ISIP_8,24,9999,9999,9999,2212493400
89,21,3,ISIP_8,25,9999,9999,9999,2213293132
89,21,3,ISIP_8,26,9999,9999,9999,2214093936
89,21,3,ISIP_8,27,9999,9999,9999,2214893672
89,21,3,ISIP_8,28,9999,9999,9999,2215693404
89,21,3,ISIP_8,29,9999,9999,9999,2216493136
89,21,3,ISIP_8,30,9999,9999,9999,2217293916
89,21,3,ISIP_8,31,9999,9999,9999,2218093648
89,21,3,ISIP_8,32,9999,9999,9999,2218893376
89,21,3,ISIP_8,33,9999,9999,9999,2219693104
89,21,3,ISIP_8,34,9999,9999,9999,2220493908
89,21,3,ISIP_8,35,9999,9999,9999,2221293636
89,21,3,ISIP_8,36,9999,9999,9999,2222093364
89,21,3,ISIP_8,37,9999,9999,9999,2222893168
89,21,3,ISIP_8,38,9999,9999,9999,2223693868
89,21,3,ISIP_8,39,9999,9999,9999,2224493672
89,21,3,ISIP_8,40,9999,9999,9999,2225293404
89,21,3,ISIP_8,41,9999,9999,9999,2226093132
89,21,3,ISIP_8,42,9999,9999,9999,2226893932
89,21,3,ISIP_8,43,9999,9999,9999,2227693660
89,21,3,ISIP_8,44,9999,9999,9999,2228493392
89,21,3,ISIP_8,45,9999,9999,9999,2229293120
89,21,3,ISIP_8,46,9999,9999,9999,2230093896
89,21,3,ISIP_8,47,9999,9999,9999,2230893624
89,21,3,ISIP_8,48,9999,9999,9999,2231693428
89,21,3,ISIP_8,49,9999,9999,9999,2232493160
89,21,3,ISIP_8,50,9999,9999,9999,2233293884
89,21,3,ISIP_8,51,9999,9999,9999,2234093688
89,21,3,ISIP_8,52,9999,9999,9999,2234893416
89,21,3,ISIP_8,53,9999,9999,9999,2235693144
89,21,3,ISIP_8,54,9999,9999,9999,2236493924
89,21,3,ISIP_8,55,9999,9999,9999,2237293652
89,21,3,ISIP_8,56,9999,9999,9999,2238093380
89,21,3,ISIP_8,57,9999,9999,9999,2238893108
89,21,3,ISIP_8,58,9999,9999,9999,2239693908
89,21,3,ISIP_8,59,9999,9999,9999,2240493636
89,21,3,ISIP_8,60,9999,9999,9999,2241293364
89,21,3,ISIP_8,61,9999,9999,9999,2242093168
89,21,3,ISIP_8,62,9999,9999,9999,2242893872
89,21,3,ISIP_8,63,9999,9999,9999,2243693676
89,21,3,ISIP_8,64,9999,9999,9999,2244493404
89,21,3,ISIP_8,65,9999,9999,9999,2245293136
89,21,3,ISIP_8,66,9999,9999,9999,2246093936
89,21,3,ISIP_8,67,9999,9999,9999,2246893664
89,21,3,ISIP_8,68,9999,9999,9999,2247693396
89,21,3,ISIP_8,69,9999,9999,9999,2248493128
89,21,3,ISIP_8,70,9999,9999,9999,2249293900
89,21,3,ISIP_8,71,9999,9999,9999,2250093632
89,21,3,ISIP_8,72,9999,9999,9999,2250893360
89,21,3,ISIP_8,73,9999,9999,9999,2251693164
89,21,3,ISIP_8,74,9999,9999,9999,2252493888
89,21,3,ISIP_8,75,9999,9999,9999,2253293616
89,21,3,ISIP_8,76,9999,9999,9999,2254093420
89,21,3,ISIP_8,77,9999,9999,9999,2254893148
89,21,3,ISIP_8,78,9999,9999,9999,2255693928
89,21,3,ISIP_8,79,9999,9999,9999,2256493656
89,21,3,ISIP_8,80,9999,9999,9999,2257293364
89,21,3,ISIP_8,81,9999,9999,9999,2258093168
89,21,3,ISIP_8,82,9999,9999,9999,2258893892
89,21,3,ISIP_8,83,9999,9999,9999,2259693624
89,21,3,ISIP_8,84,9999,9999,9999,2260493420
89,21,3,ISIP_8,85,9999,9999,9999,2261293148
89,21,3,ISIP_8,86,9999,9999,9999,2262093924
89,21,3,ISIP_8,87,9999,9999,9999,2262893640
89,21,3,ISIP_8,88,9999,9999,9999,2263693368
89,21,3,ISIP_8,89,9999,9999,9999,2264493176
89,21,3,ISIP_8,90,9999,9999,9999,2265293900
89,21,3,ISIP_8,91,9999,9999,9999,2266093632
89,21,3,ISIP_8,92,9999,9999,9999,2266893360
89,21,3,ISIP_8,93,9999,9999,9999,2267693164
89,21,3,ISIP_8,94,9999,9999,9999,2268493940
89,21,3,ISIP_8,95,9999,9999,9999,2269293668
89,21,3,ISIP_8,96,9999,9999,9999,2270093400
89,21,3,ISIP_8,97,9999,9999,9999,2270893128
89,21,3,ISIP_8,98,9999,9999,9999,2271693928
89,21,3,ISIP_8,99,9999,9999,9999,2272493656
89,21,3,ISIP_8,100,9999,9999,9999,2273293384
89,21,3,ISIP_8,101,9999,9999,9999,2274093116
89,21,3,ISIP_8,102,9999,9999,9999,2274893892
89,21,3,ISIP_8,103,9999,9999,9999,2275693624
89,21,3,ISIP_8,104,9999,9999,9999,2276493428
89,21,3,ISIP_8,105,9999,9999,9999,2277293156
89,21,3,ISIP_8,106,9999,9999,9999,2278093880
89,21,3,ISIP_8,107,9999,9999,9999,2278893684
89,21,3,ISIP_8,108,9999,9999,9999,2279693412
89,21,3,ISIP_8,109,9999,9999,9999,2280493136
89,21,3,ISIP_8,110,9999,9999,9999,2281293912
89,21,3,ISIP_8,111,9999,9999,9999,2282093628
89,21,3,ISIP_8,112,9999,9999,9999,2282893432
89,21,3,ISIP_8,113,9999,9999,9999,2283693160
89,21,3,ISIP_8,114,9999,9999,9999,2284493888
89,21,3,ISIP_8,115,9999,9999,9999,2285293616
89,21,3,ISIP_8,116,9999,9999,9999,2286093420
89,21,3,ISIP_8,117,9999,9999,9999,2286893144
89,21,3,ISIP_8,118,9999,9999,9999,2287693904
89,21,3,ISIP_8,119,9999,9999,9999,2288493632
89,21,3,ISIP_8,120,9999,9999,9999,2289293360
89,21,3,ISIP_8,121,9999,9999,9999,2290093164
89,21,3,ISIP_8,122,9999,9999,9999,2290893892
89,21,3,ISIP_8,123,9999,9999,9999,2291693620
89,21,3,ISIP_8,124,9999,9999,9999,2292493424
89,21,3,ISIP_8,125,9999,9999,9999,2293293132
89,21,3,ISIP_8,126,9999,9999,9999,2294093908
89,21,3,ISIP_8,127,9999,9999,9999,2294893636
89,21,3,ISIP_8,128,9999,9999,9999,2295693368
89,21,3,ISIP_8,129,9999,9999,9999,2296493172
89,21,3,ISIP_8,130,9999,9999,9999,2297293896
89,21,3,ISIP_8,131,9999,9999,9999,2298093624
89,21,3,ISIP_8,132,9999,9999,9999,2298893420
89,21,3,ISIP_8,133,9999,9999,9999,2299693136
89,21,3,ISIP_8,134,9999,9999,9999,2300493912
89,21,3,ISIP_8,135,9999,9999,9999,2301293640
89,21,3,ISIP_8,136,9999,9999,9999,2302093368
89,21,3,ISIP_8,137,9999,9999,9999,2302893172
89,21,3,ISIP_8,138,9999,9999,9999,2303693892
89,21,3,ISIP_8,139,9999,9999,9999,2304493676
89,21,3,ISIP_8,140,9999,9999,9999,2305293388
89,21,3,ISIP_8,141,9999,9999,9999,2306093120
89,21,3,ISIP_8,142,9999,9999,9999,2306893892
89,21,3,ISIP_8,143,9999,9999,9999,2307693624
89,21,3,ISIP_8,144,9999,9999,9999,2308493424
89,21,3,ISIP_8,145,9999,9999,9999,2309293156
89,21,3,ISIP_8,146,9999,9999,9999,2310093876
89,21,3,ISIP_8,147,9999,9999,9999,2310893664
89,21,3,ISIP_8,148,9999,9999,9999,2311693396
89,21,3,ISIP_8,149,9999,9999,9999,2312493124
89,22,11,Pattern_Practice,0,5,42,127,2420279656
89,22,11,Pattern_Practice,1,5,42,127,2420780420
89,22,11,Pattern_Practice,2,5,42,127,2421280212
89,22,11,Pattern_Practice,3,5,42,127,2421779856
89,22,11,Pattern_Practice,4,1,38,28,2422260836
89,22,11,Pattern_Practice,5,5,42,127,2422279640
89,22,11,Pattern_Practice,6,1,38,32,2422496392
89,22,11,Pattern_Practice,7,1,38,40,2422744048
89,22,11,Pattern_Practice,8,5,42,127,2422780360
89,22,11,Pattern_Practice,9,1,38,36,2422999284
89,22,11,Pattern_Practice,10,1,38,34,2423249856
89,22,11,Pattern_Practice,11,5,42,127,2423279884
89,22,11,Pattern_Practice,12,1,38,36,2423484268
89,22,11,Pattern_Practice,13,1,48,46,2423746460
89,22,11,Pattern_Practice,14,5,42,127,2423779632
89,22,11,Pattern_Practice,15,1,38,32,2424268148
89,22,11,Pattern_Practice,16,5,42,127,2424280376
89,22,11,Pattern_Practice,17,1,38,32,2424500320
89,22,11,Pattern_Practice,18,1,38,40,2424744456
89,22,11,Pattern_Practice,19,5,42,127,2424780196
89,22,11,Pattern_Practice,20,1,38,39,2424998564
89,22,11,Pattern_Practice,21,1,38,28,2425247716
89,22,11,Pattern_Practice,22,5,42,127,2425279716
89,22,11,Pattern_Practice,23,1,38,38,2425479764
89,22,11,Pattern_Practice,24,1,48,38,2425763024
89,22,11,Pattern_Practice,25,5,42,127,2425779588
89,22,11,Pattern_Practice,26,5,42,127,2426280264
89,22,11,Pattern_Practice,27,1,38,38,2426281376
89,22,11,Pattern_Practice,28,1,38,30,2426543160
89,22,11,Pattern_Practice,29,1,38,29,2426763064
89,22,11,Pattern_Practice,30,5,42,127,2426780152
89,22,11,Pattern_Practice,31,1,38,34,2427052108
89,22,11,Pattern_Practice,32,5,42,127,2427279608
89,22,11,Pattern_Practice,33,1,38,27,2427296488
89,22,11,Pattern_Practice,34,1,38,35,2427541380
89,22,11,Pattern_Practice,35,5,42,127,2427779356
89,22,11,Pattern_Practice,36,1,48,29,2427809404
89,22,11,Pattern_Practice,37,5,42,127,2428280248
89,22,11,Pattern_Practice,38,1,38,40,2428284340
89,22,11,Pattern_Practice,39,1,38,33,2428525864
89,22,11,Pattern_Practice,40,5,42,127,2428779996
89,22,11,Pattern_Practice,41,1,38,36,2428783336
89,22,11,Pattern_Practice,42,1,38,28,2429040724
89,22,11,Pattern_Practice,43,5,42,127,2429279592
89,22,11,Pattern_Practice,44,1,38,27,2429281308
89,22,11,Pattern_Practice,45,1,48,21,2429617660
89,22,11,Pattern_Practice,46,5,42,127,2429780236
89,22,11,Pattern_Practice,47,5,42,127,2430280176
89,22,11,Pattern_Practice,48,1,38,39,2430433064
89,22,11,Pattern_Practice,49,1,38,32,2430692472
89,22,11,Pattern_Practice,50,5,42,127,2430779716
89,22,11,Pattern_Practice,51,1,38,38,2430949496
89,22,11,Pattern_Practice,52,1,38,27,2431206200
89,22,11,Pattern_Practice,53,5,42,127,2431279464
89,22,11,Pattern_Practice,54,1,38,32,2431453356
89,22,11,Pattern_Practice,55,1,38,37,2431692864
89,22,11,Pattern_Practice,56,5,42,127,2431780184
89,22,11,Pattern_Practice,57,1,48,27,2431938892
89,22,11,Pattern_Practice,58,5,42,127,2432279864
89,22,11,Pattern_Practice,59,1,38,37,2432405800
89,22,11,Pattern_Practice,60,1,38,32,2432637300
89,22,11,Pattern_Practice,61,5,42,127,2432779536
89,22,11,Pattern_Practice,62,1,38,30,2432863960
89,22,11,Pattern_Practice,63,1,38,27,2433126432
89,22,11,Pattern_Practice,64,5,42,127,2433280256
89,22,11,Pattern_Practice,65,1,38,35,2433361316
89,22,11,Pattern_Practice,66,1,38,33,2433611440
89,22,11,Pattern_Practice,67,5,42,127,2433780076
89,22,11,Pattern_Practice,68,1,48,30,2433860236
89,22,11,Pattern_Practice,69,5,42,127,2434279772
89,22,11,Pattern_Practice,70,1,38,35,2434343256
89,22,11,Pattern_Practice,71,1,38,32,2434571088
89,22,11,Pattern_Practice,72,5,42,127,2434779448
89,22,11,Pattern_Practice,73,1,38,28,2434831708
89,22,11,Pattern_Practice,74,1,38,22,2435084528
89,22,11,Pattern_Practice,75,5,42,127,2435280168
89,22,11,Pattern_Practice,76,1,38,32,2435331160
89,22,11,Pattern_Practice,77,1,38,32,2435568868
89,22,11,Pattern_Practice,78,1,48,32,2435779164
89,22,11,Pattern_Practice,79,5,42,127,2435780580
89,22,11,Pattern_Practice,80,1,38,37,2436253216
89,22,11,Pattern_Practice,81,5,42,127,2436279580
89,22,11,Pattern_Practice,82,1,38,27,2436501192
89,22,11,Pattern_Practice,83,1,38,27,2436773088
89,22,11,Pattern_Practice,84,5,42,127,2436780376
89,22,11,Pattern_Practice,85,1,38,25,2437050532
89,22,11,Pattern_Practice,86,5,42,127,2437280128
89,22,11,Pattern_Practice,87,1,38,32,2437309828
89,22,11,Pattern_Practice,88,1,38,32,2437565564
89,22,11,Pattern_Practice,89,5,42,127,2437779876
89,22,11,Pattern_Practice,90,1,48,25,2437822284
89,22,11,Pattern_Practice,91,1,38,38,2438265836
89,22,11,Pattern_Practice,92,5,42,127,2438279636
89,22,11,Pattern_Practice,93,1,38,34,2438528104
89,22,11,Pattern_Practice,94,5,42,127,2438780140
89,22,11,Pattern_Practice,95,1,38,32,2438795600
89,22,11,Pattern_Practice,96,1,38,33,2439086120
89,22,11,Pattern_Practice,97,5,42,127,2439279960
89,22,11,Pattern_Practice,98,1,38,30,2439331544
89,22,11,Pattern_Practice,99,1,38,31,2439599180
89,22,11,Pattern_Practice,100,5,42,127,2439779636
89,22,11,Pattern_Practice,101,1,48,23,2439824112
89,22,11,Pattern_Practice,102,5,42,127,2440280448
89,22,11,Pattern_Practice,103,1,38,35,2440299348
89,22,11,Pattern_Practice,104,1,38,27,2440548200
89,22,11,Pattern_Practice,105,5,42,127,2440780196
89,22,11,Pattern_Practice,106,1,38,26,2440804560
89,22,11,Pattern_Practice,107,1,38,27,2441083700
89,22,11,Pattern_Practice,108,5,42,127,2441279720
89,22,11,Pattern_Practice,109,1,38,30,2441310292
89,22,11,Pattern_Practice,110,1,38,36,2441562880
89,22,11,Pattern_Practice,111,1,48,35,2441758480
89,22,11,Pattern_Practice,112,5,42,127,2441779460
89,22,11,Pattern_Practice,113,5,42,127,2442280432
89,22,11,Pattern_Practice,114,1,38,33,2442284300
89,22,11,Pattern_Practice,115,1,38,27,2442541160
89,22,11,Pattern_Practice,116,1,38,34,2442773332
89,22,11,Pattern_Practice,117,5,42,127,2442780172
89,22,11,Pattern_Practice,118,1,38,31,2443083612
89,22,11,Pattern_Practice,119,5,42,127,2443280000
89,22,11,Pattern_Practice,120,1,38,33,2443285740
89,22,11,Pattern_Practice,121,1,38,36,2443566384
89,22,11,Pattern_Practice,122,5,42,127,2443779380
89,22,11,Pattern_Practice,123,1,48,34,2443804788
89,22,11,Pattern_Practice,124,5,42,127,2444280268
89,22,11,Pattern_Practice,125,1,38,31,2444311964
89,22,11,Pattern_Practice,126,1,38,31,2444559320
89,22,11,Pattern_Practice,127,5,42,127,2444780164
89,22,11,Pattern_Practice,128,1,38,37,2444807068
89,22,11,Pattern_Practice,129,1,38,37,2445126456
89,22,11,Pattern_Practice,130,5,42,127,2445279468
89,22,11,Pattern_Practice,131,1,38,31,2445319160
89,22,11,Pattern_Practice,132,1,38,35,2445601976
89,22,11,Pattern_Practice,133,5,42,127,2445780408
89,22,11,Pattern_Practice,134,1,48,36,2445858176
89,22,11,Pattern_Practice,135,5,42,127,2446280180
89,22,11,Pattern_Practice,136,1,38,37,2446340148
89,22,11,Pattern_Practice,137,1,38,27,2446594608
89,22,11,Pattern_Practice,138,5,42,127,2446779976
89,22,11,Pattern_Practice,139,1,38,39,2446826704
89,22,11,Pattern_Practice,140,1,38,37,2447099120
89,22,11,Pattern_Practice,141,5,42,127,2447280072
89,22,11,Pattern_Practice,142,1,38,31,2447311340
89,22,11,Pattern_Practice,143,1,38,32,2447583008
89,22,11,Pattern_Practice,144,5,42,127,2447780196
89,22,11,Pattern_Practice,145,1,48,34,2447827468
89,22,11,Pattern_Practice,146,5,42,127,2448280188
89,22,11,Pattern_Practice,147,1,38,29,2448320208
89,22,11,Pattern_Practice,148,1,38,31,2448646028
89,22,11,Pattern_Practice,149,5,42,127,2448779716
89,22,11,Pattern_Practice,150,1,38,29,2448832900
89,22,11,Pattern_Practice,151,1,38,35,2449131416
89,22,11,Pattern_Practice,152,5,42,127,2449280508
89,22,11,Pattern_Practice,153,1,38,34,2449340576
89,22,11,Pattern_Practice,154,1,38,38,2449598632
89,22,11,Pattern_Practice,155,5,42,127,2449780180
89,22,11,Pattern_Practice,156,1,48,42,2449849424
89,22,11,Pattern_Practice,157,5,42,127,2450280024
89,22,11,Pattern_Practice,158,1,38,41,2450313292
89,22,11,Pattern_Practice,159,1,38,18,2450587196
89,22,11,Pattern_Practice,160,5,42,127,2450779472
89,22,11,Pattern_Practice,161,1,38,36,2450798372
89,22,11,Pattern_Practice,162,1,38,35,2451121432
89,22,11,Pattern_Practice,163,5,42,127,2451280192
89,22,11,Pattern_Practice,164,1,38,27,2451321604
89,22,11,Pattern_Practice,165,1,38,32,2451590880
89,22,11,Pattern_Practice,166,5,42,127,2451780088
89,22,11,Pattern_Practice,167,1,48,24,2451843940
89,22,11,Pattern_Practice,168,5,42,127,2452280004
89,22,11,Pattern_Practice,169,1,38,31,2452313940
89,22,11,Pattern_Practice,170,1,38,24,2452575884
89,22,11,Pattern_Practice,171,1,38,33,2452772456
89,22,11,Pattern_Practice,172,5,42,127,2452780344
89,22,11,Pattern_Practice,173,1,38,32,2453125744
89,22,11,Pattern_Practice,174,5,42,127,2453280248
89,22,11,Pattern_Practice,175,1,38,27,2453307828
89,22,11,Pattern_Practice,176,1,38,29,2453595124
89,22,11,Pattern_Practice,177,5,42,127,2453779996
89,22,11,Pattern_Practice,178,1,48,25,2453817968
89,22,11,Pattern_Practice,179,5,42,127,2454279616
89,22,11,Pattern_Practice,180,1,38,35,2454293056
89,22,11,Pattern_Practice,181,1,38,24,2454584696
89,22,11,Pattern_Practice,182,5,42,127,2454780260
89,22,11,Pattern_Practice,183,1,38,35,2454812624
89,22,11,Pattern_Practice,184,1,38,37,2455178016
89,22,11,Pattern_Practice,185,5,42,127,2455279936
89,22,11,Pattern_Practice,186,1,38,34,2455375280
89,22,11,Pattern_Practice,187,1,38,33,2455659212
89,22,11,Pattern_Practice,188,5,42,127,2455779756
89,22,11,Pattern_Practice,189,1,48,41,2455871060
89,22,11,Pattern_Practice,190,5,42,127,2456280424
89,22,11,Pattern_Practice,191,1,38,38,2456301868
89,22,11,Pattern_Practice,192,1,38,22,2456624324
89,22,11,Pattern_Practice,193,5,42,127,2456780096
89,22,11,Pattern_Practice,194,1,38,21,2456852704
89,22,11,Pattern_Practice,195,1,38,38,2457145984
89,22,11,Pattern_Practice,196,5,42,127,2457279844
89,22,11,Pattern_Practice,197,1,38,27,2457374216
89,22,11,Pattern_Practice,198,1,38,30,2457657024
89,22,11,Pattern_Practice,199,5,42,127,2457779416
89,22,11,Pattern_Practice,200,1,48,41,2457896476
89,22,11,Pattern_Practice,201,5,42,127,2458280156
89,22,11,Pattern_Practice,202,1,38,32,2458400060
89,22,11,Pattern_Practice,203,1,38,36,2458699552
89,22,11,Pattern_Practice,204,5,42,127,2458779920
89,22,11,Pattern_Practice,205,1,38,21,2458928004
89,22,11,Pattern_Practice,206,1,38,29,2459270584
89,22,11,Pattern_Practice,207,5,42,127,2459279744
89,22,11,Pattern_Practice,208,1,38,26,2459457896
89,22,11,Pattern_Practice,209,1,38,28,2459730092
89,22,11,Pattern_Practice,210,5,42,127,2459779416
89,22,11,Pattern_Practice,211,1,48,28,2460015764
89,22,11,Pattern_Practice,0,9999,9999,9999,2420277368
89,22,11,Pattern_Practice,1,9999,9999,9999,2420778060
89,22,11,Pattern_Practice,2,9999,9999,9999,2421277776
89,22,11,Pattern_Practice,3,9999,9999,9999,2421777492
89,22,11,Pattern_Practice,4,9999,9999,9999,2422277204
89,22,11,Pattern_Practice,5,9999,9999,9999,2422777924
89,22,11,Pattern_Practice,6,9999,9999,9999,2423277672
89,22,11,Pattern_Practice,7,9999,9999,9999,2423777344
89,22,11,Pattern_Practice,8,9999,9999,9999,2424278088
89,22,11,Pattern_Practice,9,9999,9999,9999,2424777832
89,22,11,Pattern_Practice,10,9999,9999,9999,2425277504
89,22,11,Pattern_Practice,11,9999,9999,9999,2425777228
89,22,11,Pattern_Practice,12,9999,9999,9999,2426277976
89,22,11,Pattern_Practice,13,9999,9999,9999,2426777716
89,22,11,Pattern_Practice,14,9999,9999,9999,2427277396
89,22,11,Pattern_Practice,15,9999,9999,9999,2427777144
89,22,11,Pattern_Practice,16,9999,9999,9999,2428277808
89,22,11,Pattern_Practice,17,9999,9999,9999,2428777560
89,22,11,Pattern_Practice,18,9999,9999,9999,2429277304
89,22,11,Pattern_Practice,19,9999,9999,9999,2429778024
89,22,11,Pattern_Practice,20,9999,9999,9999,2430277740
89,22,11,Pattern_Practice,21,9999,9999,9999,2430777428
89,22,11,Pattern_Practice,22,9999,9999,9999,2431277176
89,22,11,Pattern_Practice,23,9999,9999,9999,2431777896
89,22,11,Pattern_Practice,24,9999,9999,9999,2432277576
89,22,11,Pattern_Practice,25,9999,9999,9999,2432777324
89,22,11,Pattern_Practice,26,9999,9999,9999,2433278044
89,22,11,Pattern_Practice,27,9999,9999,9999,2433777716
89,22,11,Pattern_Practice,28,9999,9999,9999,2434277484
89,22,11,Pattern_Practice,29,9999,9999,9999,2434777160
89,22,11,Pattern_Practice,30,9999,9999,9999,2435277880
89,22,11,Pattern_Practice,31,9999,9999,9999,2435777628
89,22,11,Pattern_Practice,32,9999,9999,9999,2436277364
89,22,11,Pattern_Practice,33,9999,9999,9999,2436778088
89,22,11,Pattern_Practice,34,9999,9999,9999,2437277764
89,22,11,Pattern_Practice,35,9999,9999,9999,2437777512
89,22,11,Pattern_Practice,36,9999,9999,9999,2438277200
89,22,11,Pattern_Practice,37,9999,9999,9999,2438777928
89,22,11,Pattern_Practice,38,9999,9999,9999,2439277672
89,22,11,Pattern_Practice,39,9999,9999,9999,2439777348
89,22,11,Pattern_Practice,40,9999,9999,9999,2440278088
89,22,11,Pattern_Practice,41,9999,9999,9999,2440777832
89,22,11,Pattern_Practice,42,9999,9999,9999,2441277504
89,22,11,Pattern_Practice,43,9999,9999,9999,2441777248
89,22,11,Pattern_Practice,44,9999,9999,9999,2442277996
89,22,11,Pattern_Practice,45,9999,9999,9999,2442777660
89,22,11,Pattern_Practice,46,9999,9999,9999,2443277416
89,22,11,Pattern_Practice,47,9999,9999,9999,2443777092
89,22,11,Pattern_Practice,48,9999,9999,9999,2444277832
89,22,11,Pattern_Practice,49,9999,9999,9999,2444777580
89,22,11,Pattern_Practice,50,9999,9999,9999,2445277252
89,22,11,Pattern_Practice,51,9999,9999,9999,2445777972
89,22,11,Pattern_Practice,52,9999,9999,9999,2446277740
89,22,11,Pattern_Practice,53,9999,9999,9999,2446777464
89,22,11,Pattern_Practice,54,9999,9999,9999,2447277116
89,22,11,Pattern_Practice,55,9999,9999,9999,2447777908
89,22,11,Pattern_Practice,56,9999,9999,9999,2448277604
89,22,11,Pattern_Practice,57,9999,9999,9999,2448777276
89,22,11,Pattern_Practice,58,9999,9999,9999,2449278072
89,22,11,Pattern_Practice,59,9999,9999,9999,2449777744
89,22,11,Pattern_Practice,60,9999,9999,9999,2450277440
89,22,11,Pattern_Practice,61,9999,9999,9999,2450777184
89,22,11,Pattern_Practice,62,9999,9999,9999,2451277904
89,22,11,Pattern_Practice,63,9999,9999,9999,2451777652
89,22,11,Pattern_Practice,64,9999,9999,9999,2452277344
89,22,11,Pattern_Practice,65,9999,9999,9999,2452778060
89,22,11,Pattern_Practice,66,9999,9999,9999,2453277812
89,22,11,Pattern_Practice,67,9999,9999,9999,2453777484
89,22,11,Pattern_Practice,68,9999,9999,9999,2454277180
89,22,11,Pattern_Practice,69,9999,9999,9999,2454777976
89,22,11,Pattern_Practice,70,9999,9999,9999,2455277648
89,22,11,Pattern_Practice,71,9999,9999,9999,2455777396
89,22,11,Pattern_Practice,72,9999,9999,9999,2456278136
89,22,11,Pattern_Practice,73,9999,9999,9999,2456777808
89,22,11,Pattern_Practice,74,9999,9999,9999,2457277556
89,22,11,Pattern_Practice,75,9999,9999,9999,2457777204
89,22,11,Pattern_Practice,76,9999,9999,9999,2458277944
89,22,11,Pattern_Practice,77,9999,9999,9999,2458777708
89,22,11,Pattern_Practice,78,9999,9999,9999,2459277380
89,22,11,Pattern_Practice,79,9999,9999,9999,2459777128
89,23,13,Improv_Metronome,0,5,42,127,2487992572
89,23,13,Improv_Metronome,1,5,42,127,2488493556
89,23,13,Improv_Metronome,2,5,42,127,2488993124
89,23,13,Improv_Metronome,3,1,38,30,2489372752
89,23,13,Improv_Metronome,4,5,42,127,2489492820
89,23,13,Improv_Metronome,5,1,38,33,2489583704
89,23,13,Improv_Metronome,6,1,38,39,2489784364
89,23,13,Improv_Metronome,7,5,42,127,2489992716
89,23,13,Improv_Metronome,8,1,38,29,2490000772
89,23,13,Improv_Metronome,9,1,38,27,2490205572
89,23,13,Improv_Metronome,10,1,38,34,2490433404
89,23,13,Improv_Metronome,11,5,42,127,2490493280
89,23,13,Improv_Metronome,12,1,48,45,2490658048
89,23,13,Improv_Metronome,13,5,42,127,2490992884
89,23,13,Improv_Metronome,14,1,38,38,2491065260
89,23,13,Improv_Metronome,15,1,38,38,2491265948
89,23,13,Improv_Metronome,16,1,38,35,2491460496
89,23,13,Improv_Metronome,17,5,42,127,2491492696
89,23,13,Improv_Metronome,18,1,38,32,2491689848
89,23,13,Improv_Metronome,19,1,38,37,2491912680
89,23,13,Improv_Metronome,20,5,42,127,2491992520
89,23,13,Improv_Metronome,21,1,38,38,2492136192
89,23,13,Improv_Metronome,22,1,48,34,2492387444
89,23,13,Improv_Metronome,23,5,42,127,2492493224
89,23,13,Improv_Metronome,24,1,38,42,2492814108
89,23,13,Improv_Metronome,25,5,42,127,2492992772
89,23,13,Improv_Metronome,26,1,38,39,2493016236
89,23,13,Improv_Metronome,27,1,38,35,2493215124
89,23,13,Improv_Metronome,28,1,38,27,2493454032
89,23,13,Improv_Metronome,29,5,42,127,2493492588
89,23,13,Improv_Metronome,30,1,38,34,2493671792
89,23,13,Improv_Metronome,31,1,38,37,2493901200
89,23,13,Improv_Metronome,32,5,42,127,2493993368
89,23,13,Improv_Metronome,33,1,48,31,2494117880
89,23,13,Improv_Metronome,34,5,42,127,2494493212
89,23,13,Improv_Metronome,35,1,38,34,2494521308
89,23,13,Improv_Metronome,36,1,38,34,2494741072
89,23,13,Improv_Metronome,37,1,38,28,2494949540
89,23,13,Improv_Metronome,38,5,42,127,2494992656
89,23,13,Improv_Metronome,39,1,38,29,2495207156
89,23,13,Improv_Metronome,40,1,38,33,2495435368
89,23,13,Improv_Metronome,41,5,42,127,2495492400
89,23,13,Improv_Metronome,42,1,38,33,2495665592
89,23,13,Improv_Metronome,43,1,48,34,2495923500
89,23,13,Improv_Metronome,44,5,42,127,2495993268
89,23,13,Improv_Metronome,45,1,38,39,2496390876
89,23,13,Improv_Metronome,46,5,42,127,2496492872
89,23,13,Improv_Metronome,47,1,38,34,2496605644
89,23,13,Improv_Metronome,48,1,38,28,2496826724
89,23,13,Improv_Metronome,49,5,42,127,2496992672
89,23,13,Improv_Metronome,50,1,38,15,2497084724
89,23,13,Improv_Metronome,51,1,38,37,2497307852
89,23,13,Improv_Metronome,52,5,42,127,2497493240
89,23,13,Improv_Metronome,53,1,38,36,2497541240
89,23,13,Improv_Metronome,54,1,48,27,2497806096
89,23,13,Improv_Metronome,55,5,42,127,2497993136
89,23,13,Improv_Metronome,56,1,38,42,2498286120
89,23,13,Improv_Metronome,57,5,42,127,2498492684
89,23,13,Improv_Metronome,58,1,38,31,2498523628
89,23,13,Improv_Metronome,59,1,38,32,2498727276
89,23,13,Improv_Metronome,60,1,38,38,2498956836
89,23,13,Improv_Metronome,61,5,42,127,2498992696
89,23,13,Improv_Metronome,62,1,38,31,2499184388
89,23,13,Improv_Metronome,63,1,38,32,2499406540
89,23,13,Improv_Metronome,64,5,42,127,2499493340
89,23,13,Improv_Metronome,65,1,48,43,2499632304
89,23,13,Improv_Metronome,66,5,42,127,2499993020
89,23,13,Improv_Metronome,67,1,38,42,2500103576
89,23,13,Improv_Metronome,68,1,38,40,2500352208
89,23,13,Improv_Metronome,69,5,42,127,2500492544
89,23,13,Improv_Metronome,70,1,38,40,2500588664
89,23,13,Improv_Metronome,71,1,38,37,2500809244
89,23,13,Improv_Metronome,72,5,42,127,2500993264
89,23,13,Improv_Metronome,73,1,38,40,2501060956
89,23,13,Improv_Metronome,74,1,38,33,2501284880
89,23,13,Improv_Metronome,75,5,42,127,2501493308
89,23,13,Improv_Metronome,76,1,48,45,2501533228
89,23,13,Improv_Metronome,77,1,38,34,2501993076
89,23,13,Improv_Metronome,78,5,42,127,2501995160
89,23,13,Improv_Metronome,79,1,38,35,2502223284
89,23,13,Improv_Metronome,80,1,38,33,2502435708
89,23,13,Improv_Metronome,81,5,42,127,2502492444
89,23,13,Improv_Metronome,82,1,38,34,2502695208
89,23,13,Improv_Metronome,83,1,38,32,2502915488
89,23,13,Improv_Metronome,84,5,42,127,2502993164
89,23,13,Improv_Metronome,85,1,38,30,2503161668
89,23,13,Improv_Metronome,86,1,48,38,2503413892
89,23,13,Improv_Metronome,87,5,42,127,2503492836
89,23,13,Improv_Metronome,88,1,38,44,2503946424
89,23,13,Improv_Metronome,89,5,42,127,2503992828
89,23,13,Improv_Metronome,90,1,38,36,2504192376
89,23,13,Improv_Metronome,91,1,38,35,2504437340
89,23,13,Improv_Metronome,92,5,42,127,2504493476
89,23,13,Improv_Metronome,93,1,38,40,2504687936
89,23,13,Improv_Metronome,94,1,38,47,2504945916
89,23,13,Improv_Metronome,95,5,42,127,2504993296
89,23,13,Improv_Metronome,96,1,38,43,2505166808
89,23,13,Improv_Metronome,97,1,48,47,2505436388
89,23,13,Improv_Metronome,98,5,42,127,2505492968
89,23,13,Improv_Metronome,99,1,38,40,2505927032
89,23,13,Improv_Metronome,100,5,42,127,2505992588
89,23,13,Improv_Metronome,101,1,38,31,2506162344
89,23,13,Improv_Metronome,102,1,38,48,2506378512
89,23,13,Improv_Metronome,103,5,42,127,2506493368
89,23,13,Improv_Metronome,104,1,38,36,2506645256
89,23,13,Improv_Metronome,105,1,38,35,2506880572
89,23,13,Improv_Metronome,106,5,42,127,2506993112
89,23,13,Improv_Metronome,107,1,38,38,2507121292
89,23,13,Improv_Metronome,108,1,48,38,2507383240
89,23,13,Improv_Metronome,109,5,42,127,2507492636
89,23,13,Improv_Metronome,110,1,38,42,2507871340
89,23,13,Improv_Metronome,111,5,42,127,2507992628
89,23,13,Improv_Metronome,112,1,38,43,2508106296
89,23,13,Improv_Metronome,113,1,38,41,2508342140
89,23,13,Improv_Metronome,114,5,42,127,2508493052
89,23,13,Improv_Metronome,115,1,38,39,2508589964
89,23,13,Improv_Metronome,116,1,38,43,2508827828
89,23,13,Improv_Metronome,117,5,42,127,2508992800
89,23,13,Improv_Metronome,118,1,38,44,2509062416
89,23,13,Improv_Metronome,119,1,48,46,2509270652
89,23,13,Improv_Metronome,120,5,42,127,2509492596
89,23,13,Improv_Metronome,121,1,38,43,2509707640
89,23,13,Improv_Metronome,122,1,38,32,2509952828
89,23,13,Improv_Metronome,123,5,42,127,2509993328
89,23,13,Improv_Metronome,124,1,38,46,2510165724
89,23,13,Improv_Metronome,125,1,38,45,2510420120
89,23,13,Improv_Metronome,126,5,42,127,2510493228
89,23,13,Improv_Metronome,127,1,38,38,2510635180
89,23,13,Improv_Metronome,128,1,38,44,2510892860
89,23,13,Improv_Metronome,129,5,42,127,2510992660
89,23,13,Improv_Metronome,130,1,48,41,2511150416
89,23,13,Improv_Metronome,131,5,42,127,2511492432
89,23,13,Improv_Metronome,132,1,38,37,2511614356
89,23,13,Improv_Metronome,133,1,38,35,2511863804
89,23,13,Improv_Metronome,134,5,42,127,2511993076
89,23,13,Improv_Metronome,135,1,38,41,2512082464
89,23,13,Improv_Metronome,136,1,38,39,2512338644
89,23,13,Improv_Metronome,137,5,42,127,2512492972
89,23,13,Improv_Metronome,138,1,38,41,2512544484
89,23,13,Improv_Metronome,139,1,38,44,2512799400
89,23,13,Improv_Metronome,140,5,42,127,2512992720
89,23,13,Improv_Metronome,141,1,48,46,2513017824
89,23,13,Improv_Metronome,142,1,38,39,2513474496
89,23,13,Improv_Metronome,143,5,42,127,2513493308
89,23,13,Improv_Metronome,144,1,38,31,2513720528
89,23,13,Improv_Metronome,145,1,38,37,2513951356
89,23,13,Improv_Metronome,146,5,42,127,2513993276
89,23,13,Improv_Metronome,147,1,38,38,2514195068
89,23,13,Improv_Metronome,148,1,38,37,2514426492
89,23,13,Improv_Metronome,149,5,42,127,2514492876
89,23,13,Improv_Metronome,150,1,38,36,2514663248
89,23,13,Improv_Metronome,151,1,48,47,2514933272
89,23,13,Improv_Metronome,152,5,42,127,2514992400
89,23,13,Improv_Metronome,153,1,38,46,2515438656
89,23,13,Improv_Metronome,154,5,42,127,2515493216
89,23,13,Improv_Metronome,155,1,38,46,2515679972
89,23,13,Improv_Metronome,156,1,38,47,2515946780
89,23,13,Improv_Metronome,157,5,42,127,2515993184
89,23,13,Improv_Metronome,158,1,38,46,2516206944
89,23,13,Improv_Metronome,159,1,38,43,2516476592
89,23,13,Improv_Metronome,160,5,42,127,2516492636
89,23,13,Improv_Metronome,161,1,38,39,2516724492
89,23,13,Improv_Metronome,162,1,48,51,2516950908
89,23,13,Improv_Metronome,163,5,42,127,2516993280
89,23,13,Improv_Metronome,164,1,38,42,2517434896
89,23,13,Improv_Metronome,165,5,42,127,2517493348
89,23,13,Improv_Metronome,166,1,38,36,2517671628
89,23,13,Improv_Metronome,167,1,38,46,2517898644
89,23,13,Improv_Metronome,168,5,42,127,2517993092
89,23,13,Improv_Metronome,169,1,38,39,2518155892
89,23,13,Improv_Metronome,170,1,38,43,2518388892
89,23,13,Improv_Metronome,171,5,42,127,2518492456
89,23,13,Improv_Metronome,172,1,38,34,2518633724
89,23,13,Improv_Metronome,173,1,48,50,2518877864
89,23,13,Improv_Metronome,174,5,42,127,2518993396
89,23,13,Improv_Metronome,175,1,38,39,2519354296
89,23,13,Improv_Metronome,176,5,42,127,2519493240
89,23,13,Improv_Metronome,177,1,38,41,2519600552
89,23,13,Improv_Metronome,178,1,38,34,2519869080
89,23,13,Improv_Metronome,179,5,42,127,2519993136
89,23,13,Improv_Metronome,180,1,38,44,2520110772
89,23,13,Improv_Metronome,181,1,38,39,2520346236
89,23,13,Improv_Metronome,182,5,42,127,2520493384
89,23,13,Improv_Metronome,183,1,38,38,2520576116
89,23,13,Improv_Metronome,184,1,48,42,2520832524
89,23,13,Improv_Metronome,185,5,42,127,2520993208
89,23,13,Improv_Metronome,186,1,38,37,2521322492
89,23,13,Improv_Metronome,187,5,42,127,2521493052
89,23,13,Improv_Metronome,188,1,38,32,2521575632
89,23,13,Improv_Metronome,189,1,38,44,2521804216
89,23,13,Improv_Metronome,190,5,42,127,2521992572
89,23,13,Improv_Metronome,191,1,38,49,2522049496
89,23,13,Improv_Metronome,192,1,38,36,2522272972
89,23,13,Improv_Metronome,193,5,42,127,2522493220
89,23,13,Improv_Metronome,194,1,38,30,2522509728
89,23,13,Improv_Metronome,195,1,48,48,2522740932
89,23,13,Improv_Metronome,196,5,42,127,2522993188
89,23,13,Improv_Metronome,197,1,38,40,2523195144
89,23,13,Improv_Metronome,198,1,38,38,2523430832
89,23,13,Improv_Metronome,199,5,42,127,2523492652
89,23,13,Improv_Metronome,200,1,38,48,2523664528
89,23,13,Improv_Metronome,201,1,38,40,2523872840
89,23,13,Improv_Metronome,202,5,42,127,2523992460
89,23,13,Improv_Metronome,203,1,38,37,2524090376
89,23,13,Improv_Metronome,204,1,38,37,2524331052
89,23,13,Improv_Metronome,205,5,42,127,2524493180
89,23,13,Improv_Metronome,206,1,48,49,2524569828
89,23,13,Improv_Metronome,207,5,42,127,2524993096
89,23,13,Improv_Metronome,208,1,38,43,2524996668
89,23,13,Improv_Metronome,209,1,38,31,2525250084
89,23,13,Improv_Metronome,210,1,38,47,2525468048
89,23,13,Improv_Metronome,211,5,42,127,2525492616
89,23,13,Improv_Metronome,212,1,38,41,2525713400
89,23,13,Improv_Metronome,213,1,38,40,2525940640
89,23,13,Improv_Metronome,214,5,42,127,2525993336
89,23,13,Improv_Metronome,215,1,38,40,2526179496
89,23,13,Improv_Metronome,216,1,48,51,2526454452
89,23,13,Improv_Metronome,217,5,42,127,2526492936
89,23,13,Improv_Metronome,218,1,38,49,2526955268
89,23,13,Improv_Metronome,219,5,42,127,2526992928
89,23,13,Improv_Metronome,220,1,38,38,2527212372
89,23,13,Improv_Metronome,221,1,38,51,2527442900
89,23,13,Improv_Metronome,222,5,42,127,2527492452
89,23,13,Improv_Metronome,223,1,38,47,2527704268
89,23,13,Improv_Metronome,224,1,38,41,2527938012
89,23,13,Improv_Metronome,225,5,42,127,2527993320
89,23,13,Improv_Metronome,226,1,38,44,2528191676
89,23,13,Improv_Metronome,227,1,48,51,2528450848
89,23,13,Improv_Metronome,228,5,42,127,2528493140
89,23,13,Improv_Metronome,229,1,38,47,2528950140
89,23,13,Improv_Metronome,230,5,42,127,2528992612
89,23,13,Improv_Metronome,231,1,38,32,2529184428
89,23,13,Improv_Metronome,232,1,38,48,2529434556
89,23,13,Improv_Metronome,233,5,42,127,2529493256
89,23,13,Improv_Metronome,234,1,38,46,2529689788
89,23,13,Improv_Metronome,235,1,38,32,2529955468
89,23,13,Improv_Metronome,236,5,42,127,2529992928
89,23,13,Improv_Metronome,237,1,38,32,2530196716
89,23,13,Improv_Metronome,238,1,48,47,2530474292
89,23,13,Improv_Metronome,239,5,42,127,2530492752
89,23,13,Improv_Metronome,240,1,38,45,2530979372
89,23,13,Improv_Metronome,241,5,42,127,2530992424
89,23,13,Improv_Metronome,242,1,38,34,2531236248
89,23,13,Improv_Metronome,243,1,38,43,2531469620
89,23,13,Improv_Metronome,244,5,42,127,2531493216
89,23,13,Improv_Metronome,245,1,38,47,2531724176
89,23,13,Improv_Metronome,246,1,38,43,2531971984
89,23,13,Improv_Metronome,247,5,42,127,2531992964
89,23,13,Improv_Metronome,248,1,38,40,2532233948
89,23,13,Improv_Metronome,249,5,42,127,2532492788
89,23,13,Improv_Metronome,250,1,48,50,2532513412
89,23,13,Improv_Metronome,251,5,42,127,2532993456
89,23,13,Improv_Metronome,252,1,38,41,2532998224
89,23,13,Improv_Metronome,253,1,38,35,2533248572
89,23,13,Improv_Metronome,254,5,42,127,2533492980
89,23,13,Improv_Metronome,255,1,38,44,2533507016
89,23,13,Improv_Metronome,256,1,38,44,2533738820
89,23,13,Improv_Metronome,257,5,42,127,2533992876
89,23,13,Improv_Metronome,258,1,38,38,2533993916
89,23,13,Improv_Metronome,259,1,38,43,2534224876
89,23,13,Improv_Metronome,260,1,48,50,2534484132
89,23,13,Improv_Metronome,261,5,42,127,2534492540
89,23,13,Improv_Metronome,262,1,38,36,2534984200
89,23,13,Improv_Metronome,263,5,42,127,2534993212
89,23,13,Improv_Metronome,264,1,38,37,2535205844
89,23,13,Improv_Metronome,265,1,38,38,2535461804
89,23,13,Improv_Metronome,266,5,42,127,2535492956
89,23,13,Improv_Metronome,267,1,38,41,2535701784
89,23,13,Improv_Metronome,268,1,38,30,2535972772
89,23,13,Improv_Metronome,269,5,42,127,2535992704
89,23,13,Improv_Metronome,270,1,38,38,2536204216
89,23,13,Improv_Metronome,271,5,42,127,2536493356
89,23,13,Improv_Metronome,272,1,48,46,2536496920
89,23,13,Improv_Metronome,273,5,42,127,2536993128
89,23,13,Improv_Metronome,274,1,38,45,2537011728
89,23,13,Improv_Metronome,275,1,38,40,2537268136
89,23,13,Improv_Metronome,276,5,42,127,2537492876
89,23,13,Improv_Metronome,277,1,38,36,2537499884
89,23,13,Improv_Metronome,278,1,38,44,2537751504
89,23,13,Improv_Metronome,279,1,38,38,2537948380
89,23,13,Improv_Metronome,280,5,42,127,2537992688
89,23,13,Improv_Metronome,281,1,38,32,2538210344
89,23,13,Improv_Metronome,282,5,42,127,2538493268
89,23,13,Improv_Metronome,283,1,48,47,2538555100
89,23,13,Improv_Metronome,284,5,42,127,2538992964
89,23,13,Improv_Metronome,285,1,38,39,2539046048
89,23,13,Improv_Metronome,286,1,38,29,2539287648
89,23,13,Improv_Metronome,287,5,42,127,2539492712
89,23,13,Improv_Metronome,288,1,38,40,2539502712
89,23,13,Improv_Metronome,289,1,38,40,2539751568
89,23,13,Improv_Metronome,290,1,38,33,2539954920
89,23,13,Improv_Metronome,291,5,42,127,2539992380
89,23,13,Improv_Metronome,292,1,38,38,2540231416
89,23,13,Improv_Metronome,293,1,48,43,2540449880
89,23,13,Improv_Metronome,294,5,42,127,2540493020
89,23,13,Improv_Metronome,295,1,38,40,2540975900
89,23,13,Improv_Metronome,296,5,42,127,2540992940
89,23,13,Improv_Metronome,297,1,38,35,2541212208
89,23,13,Improv_Metronome,298,1,38,41,2541476996
89,23,13,Improv_Metronome,299,5,42,127,2541492660
89,23,13,Improv_Metronome,300,1,38,42,2541735812
89,23,13,Improv_Metronome,301,1,38,39,2541976816
89,23,13,Improv_Metronome,302,5,42,127,2541993456
89,23,13,Improv_Metronome,303,1,38,43,2542231972
89,23,13,Improv_Metronome,304,1,48,46,2542482320
89,23,13,Improv_Metronome,305,5,42,127,2542493052
89,23,13,Improv_Metronome,306,1,38,41,2542956736
89,23,13,Improv_Metronome,307,5,42,127,2542992672
89,23,13,Improv_Metronome,308,1,38,32,2543198952
89,23,13,Improv_Metronome,309,1,38,38,2543394852
89,23,13,Improv_Metronome,310,5,42,127,2543492556
89,23,13,Improv_Metronome,311,1,38,34,2543691516
89,23,13,Improv_Metronome,312,1,38,39,2543898260
89,23,13,Improv_Metronome,313,5,42,127,2543993348
89,23,13,Improv_Metronome,314,1,38,40,2544193212
89,23,13,Improv_Metronome,315,5,42,127,2544492896
89,23,13,Improv_Metronome,316,1,48,42,2544496688
89,23,13,Improv_Metronome,317,5,42,127,2544992736
89,23,13,Improv_Metronome,318,1,38,29,2545022036
89,23,13,Improv_Metronome,319,1,38,35,2545278220
89,23,13,Improv_Metronome,320,5,42,127,2545493232
89,23,13,Improv_Metronome,321,1,38,48,2545518044
89,23,13,Improv_Metronome,322,1,38,43,2545783352
89,23,13,Improv_Metronome,323,1,38,33,2545983740
89,23,13,Improv_Metronome,324,5,42,127,2545993120
89,23,13,Improv_Metronome,325,1,38,40,2546285344
89,23,13,Improv_Metronome,326,5,42,127,2546492728
89,23,13,Improv_Metronome,327,1,48,49,2546522772
89,23,13,Improv_Metronome,328,5,42,127,2546992648
89,23,13,Improv_Metronome,329,1,38,40,2547001900
89,23,13,Improv_Metronome,330,1,38,30,2547281344
89,23,13,Improv_Metronome,331,1,38,34,2547459516
89,23,13,Improv_Metronome,332,5,42,127,2547493208
89,23,13,Improv_Metronome,333,1,38,48,2547768076
89,23,13,Improv_Metronome,334,1,38,37,2547959560
89,23,13,Improv_Metronome,335,5,42,127,2547992884
89,23,13,Improv_Metronome,336,1,38,36,2548233864
89,23,13,Improv_Metronome,337,1,48,50,2548481600
89,23,13,Improv_Metronome,338,5,42,127,2548492628
89,23,13,Improv_Metronome,339,1,38,36,2548976808
89,23,13,Improv_Metronome,340,5,42,127,2548993592
89,23,13,Improv_Metronome,341,1,38,36,2549231664
89,23,13,Improv_Metronome,342,5,42,127,2549493052
89,23,13,Improv_Metronome,343,1,38,36,2549503052
89,23,13,Improv_Metronome,344,1,38,34,2549766340
89,23,13,Improv_Metronome,345,5,42,127,2549992796
89,23,13,Improv_Metronome,346,1,38,31,2550033468
89,23,13,Improv_Metronome,347,1,38,39,2550287780
89,23,13,Improv_Metronome,348,5,42,127,2550492620
89,23,13,Improv_Metronome,349,1,48,53,2550532016
89,23,13,Improv_Metronome,350,1,38,36,2550985392
89,23,13,Improv_Metronome,351,5,42,127,2550993208
89,23,13,Improv_Metronome,352,1,38,30,2551226040
89,23,13,Improv_Metronome,353,1,38,40,2551483648
89,23,13,Improv_Metronome,354,5,42,127,2551492956
89,23,13,Improv_Metronome,355,1,38,29,2551769176
89,23,13,Improv_Metronome,356,5,42,127,2551992560
89,23,13,Improv_Metronome,357,1,38,40,2552014980
89,23,13,Improv_Metronome,358,1,38,39,2552264352
89,23,13,Improv_Metronome,359,5,42,127,2552493704
89,23,13,Improv_Metronome,360,1,48,45,2552514424
89,23,13,Improv_Metronome,361,1,38,41,2552976372
89,23,13,Improv_Metronome,362,5,42,127,2552993092
89,23,13,Improv_Metronome,363,1,38,30,2553232880
89,23,13,Improv_Metronome,364,1,38,39,2553467816
89,23,13,Improv_Metronome,365,5,42,127,2553492988
89,23,13,Improv_Metronome,366,1,38,38,2553742272
89,23,13,Improv_Metronome,367,5,42,127,2553992444
89,23,13,Improv_Metronome,368,1,38,38,2554016204
89,23,13,Improv_Metronome,369,1,38,37,2554278300
89,23,13,Improv_Metronome,370,5,42,127,2554493236
89,23,13,Improv_Metronome,371,1,48,48,2554514080
89,23,13,Improv_Metronome,372,1,38,39,2554981896
89,23,13,Improv_Metronome,373,5,42,127,2554993076
89,23,13,Improv_Metronome,374,1,38,40,2555235032
89,23,13,Improv_Metronome,375,1,38,43,2555491548
89,23,13,Improv_Metronome,376,5,42,127,2555493868
89,23,13,Improv_Metronome,377,1,38,45,2555747120
89,23,13,Improv_Metronome,378,1,38,41,2555991976
89,23,13,Improv_Metronome,379,5,42,127,2555994216
89,23,13,Improv_Metronome,380,1,38,41,2556234600
89,23,13,Improv_Metronome,381,1,48,48,2556472912
89,23,13,Improv_Metronome,382,5,42,127,2556493292
89,23,13,Improv_Metronome,383,1,38,35,2556969616
89,23,13,Improv_Metronome,384,5,42,127,2556992764
89,23,13,Improv_Metronome,385,1,38,34,2557217068
89,23,13,Improv_Metronome,386,1,38,47,2557462256
89,23,13,Improv_Metronome,387,5,42,127,2557492660
89,23,13,Improv_Metronome,388,1,38,46,2557723772
89,23,13,Improv_Metronome,389,1,38,43,2557949216
89,23,13,Improv_Metronome,0,9999,9999,9999,2487990356
89,23,13,Improv_Metronome,1,9999,9999,9999,2488491120
89,23,13,Improv_Metronome,2,9999,9999,9999,2488990836
89,23,13,Improv_Metronome,3,9999,9999,9999,2489490532
89,23,13,Improv_Metronome,4,9999,9999,9999,2489990204
89,23,13,Improv_Metronome,5,9999,9999,9999,2490490992
89,23,13,Improv_Metronome,6,9999,9999,9999,2490990672
89,23,13,Improv_Metronome,7,9999,9999,9999,2491490412
89,23,13,Improv_Metronome,8,9999,9999,9999,2491990084
89,23,13,Improv_Metronome,9,9999,9999,9999,2492490860
89,23,13,Improv_Metronome,10,9999,9999,9999,2492990556
89,23,13,Improv_Metronome,11,9999,9999,9999,2493490224
89,23,13,Improv_Metronome,12,9999,9999,9999,2493990964
89,23,13,Improv_Metronome,13,9999,9999,9999,2494490700
89,23,13,Improv_Metronome,14,9999,9999,9999,2494990440
89,23,13,Improv_Metronome,15,9999,9999,9999,2495490112
89,23,13,Improv_Metronome,16,9999,9999,9999,2495990832
89,23,13,Improv_Metronome,17,9999,9999,9999,2496490584
89,23,13,Improv_Metronome,18,9999,9999,9999,2496990308
89,23,13,Improv_Metronome,19,9999,9999,9999,2497491028
89,23,13,Improv_Metronome,20,9999,9999,9999,2497990776
89,23,13,Improv_Metronome,21,9999,9999,9999,2498490468
89,23,13,Improv_Metronome,22,9999,9999,9999,2498990188
89,23,13,Improv_Metronome,23,9999,9999,9999,2499490904
89,23,13,Improv_Metronome,24,9999,9999,9999,2499990584
89,23,13,Improv_Metronome,25,9999,9999,9999,2500490332
89,23,13,Improv_Metronome,26,9999,9999,9999,2500991048
89,23,13,Improv_Metronome,27,9999,9999,9999,2501490796
89,23,13,Improv_Metronome,28,9999,9999,9999,2501990492
89,23,13,Improv_Metronome,29,9999,9999,9999,2502490232
89,23,13,Improv_Metronome,30,9999,9999,9999,2502990952
89,23,13,Improv_Metronome,31,9999,9999,9999,2503490624
89,23,13,Improv_Metronome,32,9999,9999,9999,2503990392
89,23,13,Improv_Metronome,33,9999,9999,9999,2504491112
89,23,13,Improv_Metronome,34,9999,9999,9999,2504990784
89,23,13,Improv_Metronome,35,9999,9999,9999,2505490532
89,23,13,Improv_Metronome,36,9999,9999,9999,2505990228
89,23,13,Improv_Metronome,37,9999,9999,9999,2506490932
89,23,13,Improv_Metronome,38,9999,9999,9999,2506990676
89,23,13,Improv_Metronome,39,9999,9999,9999,2507490424
89,23,13,Improv_Metronome,40,9999,9999,9999,2507990116
89,23,13,Improv_Metronome,41,9999,9999,9999,2508490836
89,23,13,Improv_Metronome,42,9999,9999,9999,2508990512
89,23,13,Improv_Metronome,43,9999,9999,9999,2509490232
89,23,13,Improv_Metronome,44,9999,9999,9999,2509990968
89,23,13,Improv_Metronome,45,9999,9999,9999,2510490716
89,23,13,Improv_Metronome,46,9999,9999,9999,2510990448
89,23,13,Improv_Metronome,47,9999,9999,9999,2511490144
89,23,13,Improv_Metronome,48,9999,9999,9999,2511990864
89,23,13,Improv_Metronome,49,9999,9999,9999,2512490612
89,23,13,Improv_Metronome,50,9999,9999,9999,2512990284
89,23,13,Improv_Metronome,51,9999,9999,9999,2513491020
89,23,13,Improv_Metronome,52,9999,9999,9999,2513990764
89,23,13,Improv_Metronome,53,9999,9999,9999,2514490440
89,23,13,Improv_Metronome,54,9999,9999,9999,2514990184
89,23,13,Improv_Metronome,55,9999,9999,9999,2515490928
89,23,13,Improv_Metronome,56,9999,9999,9999,2515990600
89,23,13,Improv_Metronome,57,9999,9999,9999,2516490348
89,23,13,Improv_Metronome,58,9999,9999,9999,2516991068
89,23,13,Improv_Metronome,59,9999,9999,9999,2517490764
89,23,13,Improv_Metronome,60,9999,9999,9999,2517990508
89,23,13,Improv_Metronome,61,9999,9999,9999,2518490168
89,23,13,Improv_Metronome,62,9999,9999,9999,2518990960
89,23,13,Improv_Metronome,63,9999,9999,9999,2519490656
89,23,13,Improv_Metronome,64,9999,9999,9999,2519990376
89,23,13,Improv_Metronome,65,9999,9999,9999,2520491096
89,23,13,Improv_Metronome,66,9999,9999,9999,2520990768
89,23,13,Improv_Metronome,67,9999,9999,9999,2521490540
89,23,13,Improv_Metronome,68,9999,9999,9999,2521990212
89,23,13,Improv_Metronome,69,9999,9999,9999,2522490932
89,23,13,Improv_Metronome,70,9999,9999,9999,2522990680
89,23,13,Improv_Metronome,71,9999,9999,9999,2523490368
89,23,13,Improv_Metronome,72,9999,9999,9999,2523990100
89,23,13,Improv_Metronome,73,9999,9999,9999,2524490816
89,23,13,Improv_Metronome,74,9999,9999,9999,2524990584
89,23,13,Improv_Metronome,75,9999,9999,9999,2525490252
89,23,13,Improv_Metronome,76,9999,9999,9999,2525990972
89,23,13,Improv_Metronome,77,9999,9999,9999,2526490720
89,23,13,Improv_Metronome,78,9999,9999,9999,2526990416
89,23,13,Improv_Metronome,79,9999,9999,9999,2527490164
89,23,13,Improv_Metronome,80,9999,9999,9999,2527990884
89,23,13,Improv_Metronome,81,9999,9999,9999,2528490556
89,23,13,Improv_Metronome,82,9999,9999,9999,2528990328
89,23,13,Improv_Metronome,83,9999,9999,9999,2529491044
89,23,13,Improv_Metronome,84,9999,9999,9999,2529990716
89,23,13,Improv_Metronome,85,9999,9999,9999,2530490464
89,23,13,Improv_Metronome,86,9999,9999,9999,2530990136
89,23,13,Improv_Metronome,87,9999,9999,9999,2531490928
89,23,13,Improv_Metronome,88,9999,9999,9999,2531990600
89,23,13,Improv_Metronome,89,9999,9999,9999,2532490352
89,23,13,Improv_Metronome,90,9999,9999,9999,2532991096
89,23,13,Improv_Metronome,91,9999,9999,9999,2533490768
89,23,13,Improv_Metronome,92,9999,9999,9999,2533990512
89,23,13,Improv_Metronome,93,9999,9999,9999,2534490180
89,23,13,Improv_Metronome,94,9999,9999,9999,2534990924
89,23,13,Improv_Metronome,95,9999,9999,9999,2535490668
89,23,13,Improv_Metronome,96,9999,9999,9999,2535990344
89,23,13,Improv_Metronome,97,9999,9999,9999,2536491072
89,23,13,Improv_Metronome,98,9999,9999,9999,2536990840
89,23,13,Improv_Metronome,99,9999,9999,9999,2537490512
89,23,13,Improv_Metronome,100,9999,9999,9999,2537990252
89,23,13,Improv_Metronome,101,9999,9999,9999,2538490980
89,23,13,Improv_Metronome,102,9999,9999,9999,2538990676
89,23,13,Improv_Metronome,103,9999,9999,9999,2539490424
89,23,13,Improv_Metronome,104,9999,9999,9999,2539990092
89,23,13,Improv_Metronome,105,9999,9999,9999,2540490808
89,23,13,Improv_Metronome,106,9999,9999,9999,2540990580
89,23,13,Improv_Metronome,107,9999,9999,9999,2541490224
89,23,13,Improv_Metronome,108,9999,9999,9999,2541991016
89,23,13,Improv_Metronome,109,9999,9999,9999,2542490692
89,23,13,Improv_Metronome,110,9999,9999,9999,2542990388
89,23,13,Improv_Metronome,111,9999,9999,9999,2543490132
89,23,13,Improv_Metronome,112,9999,9999,9999,2543990852
89,23,13,Improv_Metronome,113,9999,9999,9999,2544490608
89,23,13,Improv_Metronome,114,9999,9999,9999,2544990300
89,23,13,Improv_Metronome,115,9999,9999,9999,2545491020
89,23,13,Improv_Metronome,116,9999,9999,9999,2545990760
89,23,13,Improv_Metronome,117,9999,9999,9999,2546490440
89,23,13,Improv_Metronome,118,9999,9999,9999,2546990136
89,23,13,Improv_Metronome,119,9999,9999,9999,2547490920
89,23,13,Improv_Metronome,120,9999,9999,9999,2547990596
89,23,13,Improv_Metronome,121,9999,9999,9999,2548490340
89,23,13,Improv_Metronome,122,9999,9999,9999,2548991084
89,23,13,Improv_Metronome,123,9999,9999,9999,2549490764
89,23,13,Improv_Metronome,124,9999,9999,9999,2549990508
89,23,13,Improv_Metronome,125,9999,9999,9999,2550490184
89,23,13,Improv_Metronome,126,9999,9999,9999,2550990920
89,23,13,Improv_Metronome,127,9999,9999,9999,2551490668
89,23,13,Improv_Metronome,128,9999,9999,9999,2551990324
89,23,13,Improv_Metronome,129,9999,9999,9999,2552491116
89,23,13,Improv_Metronome,130,9999,9999,9999,2552990804
89,23,13,Improv_Metronome,131,9999,9999,9999,2553490552
89,23,13,Improv_Metronome,132,9999,9999,9999,2553990228
89,23,13,Improv_Metronome,133,9999,9999,9999,2554490948
89,23,13,Improv_Metronome,134,9999,9999,9999,2554990712
89,23,13,Improv_Metronome,135,9999,9999,9999,2555490392
89,23,13,Improv_Metronome,136,9999,9999,9999,2555990068
89,23,13,Improv_Metronome,137,9999,9999,9999,2556490852
89,23,13,Improv_Metronome,138,9999,9999,9999,2556990552
89,23,13,Improv_Metronome,139,9999,9999,9999,2557490224
89,24,14,Improv_Melody,0,2,48,80,2610245920
89,24,14,Improv_Melody,1,2,72,80,2610248004
89,24,14,Improv_Melody,2,5,42,127,2610250688
89,24,14,Improv_Melody,3,5,42,110,2610743976
89,24,14,Improv_Melody,4,5,42,110,2611244524
89,24,14,Improv_Melody,5,5,42,110,2611744020
89,24,14,Improv_Melody,6,5,42,127,2612243816
89,24,14,Improv_Melody,7,5,42,110,2612743760
89,24,14,Improv_Melody,8,5,42,110,2613244156
89,24,14,Improv_Melody,9,5,42,110,2613743952
89,24,14,Improv_Melody,10,2,43,80,2614246408
89,24,14,Improv_Melody,11,2,67,80,2614248636
89,24,14,Improv_Melody,12,5,42,127,2614250944
89,24,14,Improv_Melody,13,5,42,110,2614744532
89,24,14,Improv_Melody,14,5,42,110,2615244252
89,24,14,Improv_Melody,15,5,42,110,2615743828
89,24,14,Improv_Melody,16,5,42,127,2616243744
89,24,14,Improv_Melody,17,5,42,110,2616744192
89,24,14,Improv_Melody,18,5,42,110,2617244060
89,24,14,Improv_Melody,19,5,42,110,2617743708
89,24,14,Improv_Melody,20,2,45,80,2618246084
89,24,14,Improv_Melody,21,2,69,80,2618248316
89,24,14,Improv_Melody,22,5,42,127,2618250848
89,24,14,Improv_Melody,23,5,42,110,2618744136
89,24,14,Improv_Melody,24,5,42,110,2619243860
89,24,14,Improv_Melody,25,5,42,110,2619743804
89,24,14,Improv_Melody,26,5,42,127,2620244424
89,24,14,Improv_Melody,27,5,42,110,2620744072
89,24,14,Improv_Melody,28,5,42,110,2621243792
89,24,14,Improv_Melody,29,5,42,110,2621743516
89,24,14,Improv_Melody,30,2,41,80,2622246788
89,24,14,Improv_Melody,31,2,65,80,2622249020
89,24,14,Improv_Melody,32,5,42,127,2622251480
89,24,14,Improv_Melody,33,5,42,110,2622743872
89,24,14,Improv_Melody,34,5,42,110,2623243520
89,24,14,Improv_Melody,35,5,42,110,2623744512
89,24,14,Improv_Melody,36,5,42,127,2624244084
89,24,14,Improv_Melody,37,5,42,110,2624743656
89,24,14,Improv_Melody,38,5,42,110,2625243376
89,24,14,Improv_Melody,39,5,42,110,2625744444
89,24,14,Improv_Melody,40,2,48,80,2626246524
89,24,14,Improv_Melody,41,2,72,80,2626248752
89,24,14,Improv_Melody,42,5,42,127,2626251360
89,24,14,Improv_Melody,43,1,38,21,2626291504
89,24,14,Improv_Melody,44,1,38,15,2626512092
89,24,14,Improv_Melody,45,5,42,110,2626743712
89,24,14,Improv_Melody,46,1,48,25,2626761264
89,24,14,Improv_Melody,47,1,48,24,2627032412
89,24,14,Improv_Melody,48,1,38,27,2627213328
89,24,14,Improv_Melody,49,5,42,110,2627244552
89,24,14,Improv_Melody,50,1,38,21,2627460028
89,24,14,Improv_Melody,51,1,48,36,2627682108
89,24,14,Improv_Melody,52,5,42,110,2627744156
89,24,14,Improv_Melody,53,1,38,33,2628157652
89,24,14,Improv_Melody,54,5,42,127,2628243780
89,24,14,Improv_Melody,55,1,38,34,2628399200
89,24,14,Improv_Melody,56,1,48,29,2628640496
89,24,14,Improv_Melody,57,5,42,110,2628743520
89,24,14,Improv_Melody,58,1,48,30,2628890200
89,24,14,Improv_Melody,59,1,38,30,2629117288
89,24,14,Improv_Melody,60,5,42,110,2629244316
89,24,14,Improv_Melody,61,1,38,29,2629371848
89,24,14,Improv_Melody,62,1,38,19,2629432864
89,24,14,Improv_Melody,63,1,48,32,2629606096
89,24,14,Improv_Melody,64,5,42,110,2629743900
89,24,14,Improv_Melody,65,1,38,34,2630116268
89,24,14,Improv_Melody,66,2,43,80,2630246100
89,24,14,Improv_Melody,67,2,67,80,2630248404
89,24,14,Improv_Melody,68,5,42,127,2630250944
89,24,14,Improv_Melody,69,1,38,32,2630352004
89,24,14,Improv_Melody,70,1,38,20,2630416224
89,24,14,Improv_Melody,71,1,48,36,2630633892
89,24,14,Improv_Melody,72,5,42,110,2630744540
89,24,14,Improv_Melody,73,1,48,27,2630889504
89,24,14,Improv_Melody,74,1,38,42,2631134544
89,24,14,Improv_Melody,75,5,42,110,2631244072
89,24,14,Improv_Melody,76,1,38,34,2631383644
89,24,14,Improv_Melody,77,1,48,41,2631621280
89,24,14,Improv_Melody,78,5,42,110,2631743752
89,24,14,Improv_Melody,79,1,38,39,2632110856
89,24,14,Improv_Melody,80,1,48,24,2632159420
89,24,14,Improv_Melody,81,5,42,127,2632243516
89,24,14,Improv_Melody,82,1,38,39,2632347596
89,24,14,Improv_Melody,83,1,38,23,2632412752
89,24,14,Improv_Melody,84,1,48,42,2632599424
89,24,14,Improv_Melody,85,5,42,110,2632744580
89,24,14,Improv_Melody,86,1,48,32,2632844936
89,24,14,Improv_Melody,87,1,38,35,2633084516
89,24,14,Improv_Melody,88,5,42,110,2633243956
89,24,14,Improv_Melody,89,1,38,33,2633341768
89,24,14,Improv_Melody,90,1,48,34,2633569832
89,24,14,Improv_Melody,91,5,42,110,2633743636
89,24,14,Improv_Melody,92,1,38,31,2634056068
89,24,14,Improv_Melody,93,2,45,80,2634245912
89,24,14,Improv_Melody,94,2,69,80,2634248064
89,24,14,Improv_Melody,95,5,42,127,2634250604
89,24,14,Improv_Melody,96,1,38,29,2634310872
89,24,14,Improv_Melody,97,1,38,19,2634375472
89,24,14,Improv_Melody,98,1,48,32,2634545192
89,24,14,Improv_Melody,99,5,42,110,2634744572
89,24,14,Improv_Melody,100,1,48,28,2634822564
89,24,14,Improv_Melody,101,1,38,28,2635053248
89,24,14,Improv_Melody,102,5,42,110,2635244028
89,24,14,Improv_Melody,103,1,38,27,2635310504
89,24,14,Improv_Melody,104,1,48,35,2635556512
89,24,14,Improv_Melody,105,5,42,110,2635743560
89,24,14,Improv_Melody,106,1,38,41,2636056740
89,24,14,Improv_Melody,107,5,42,127,2636244528
89,24,14,Improv_Melody,108,1,38,24,2636300080
89,24,14,Improv_Melody,109,1,48,37,2636531436
89,24,14,Improv_Melody,110,5,42,110,2636744060
89,24,14,Improv_Melody,111,1,48,27,2636783380
89,24,14,Improv_Melody,112,1,38,32,2637017280
89,24,14,Improv_Melody,113,5,42,110,2637243664
89,24,14,Improv_Melody,114,1,38,32,2637271244
89,24,14,Improv_Melody,115,1,38,21,2637334196
89,24,14,Improv_Melody,116,1,48,35,2637516332
89,24,14,Improv_Melody,117,5,42,110,2637743592
89,24,14,Improv_Melody,118,1,38,27,2638025760
89,24,14,Improv_Melody,119,2,41,80,2638246924
89,24,14,Improv_Melody,120,2,65,80,2638249148
89,24,14,Improv_Melody,121,5,42,127,2638251608
89,24,14,Improv_Melody,122,1,38,30,2638265224
89,24,14,Improv_Melody,123,1,48,36,2638506948
89,24,14,Improv_Melody,124,5,42,110,2638743956
89,24,14,Improv_Melody,125,1,48,22,2638751340
89,24,14,Improv_Melody,126,1,38,25,2638982620
89,24,14,Improv_Melody,127,1,48,27,2638996588
89,24,14,Improv_Melody,128,1,38,25,2639227088
89,24,14,Improv_Melody,129,5,42,110,2639243580
89,24,14,Improv_Melody,130,1,48,27,2639515604
89,24,14,Improv_Melody,131,5,42,110,2639744460
89,24,14,Improv_Melody,132,1,38,35,2640002812
89,24,14,Improv_Melody,133,1,48,14,2640020296
89,24,14,Improv_Melody,134,5,42,127,2640244484
89,24,14,Improv_Melody,135,1,38,27,2640247304
89,24,14,Improv_Melody,136,1,48,36,2640483296
89,24,14,Improv_Melody,137,1,48,27,2640735444
89,24,14,Improv_Melody,138,5,42,110,2640743784
89,24,14,Improv_Melody,139,1,38,32,2640956796
89,24,14,Improv_Melody,140,1,38,31,2641216492
89,24,14,Improv_Melody,141,5,42,110,2641243536
89,24,14,Improv_Melody,142,1,38,21,2641279328
89,24,14,Improv_Melody,143,1,48,29,2641421600
89,24,14,Improv_Melody,144,1,48,15,2641725580
89,24,14,Improv_Melody,145,5,42,110,2641744392
89,24,14,Improv_Melody,146,1,38,34,2641963016
89,24,14,Improv_Melody,147,1,38,29,2642226752
89,24,14,Improv_Melody,148,2,48,80,2642246728
89,24,14,Improv_Melody,149,2,72,80,2642248880
89,24,14,Improv_Melody,150,5,42,127,2642251708
89,24,14,Improv_Melody,151,1,48,24,2642485140
89,24,14,Improv_Melody,152,5,42,110,2642743620
89,24,14,Improv_Melody,153,1,48,22,2642772692
89,24,14,Improv_Melody,154,1,38,34,2642973600
89,24,14,Improv_Melody,155,1,38,25,2643229792
89,24,14,Improv_Melody,156,5,42,110,2643244412
89,24,14,Improv_Melody,157,1,48,29,2643429452
89,24,14,Improv_Melody,158,5,42,110,2643744396
89,24,14,Improv_Melody,159,1,38,29,2643888584
89,24,14,Improv_Melody,160,1,38,20,2644168128
89,24,14,Improv_Melody,161,5,42,127,2644243716
89,24,14,Improv_Melody,162,1,48,28,2644420000
89,24,14,Improv_Melody,163,1,48,23,2644718220
89,24,14,Improv_Melody,164,5,42,110,2644743468
89,24,14,Improv_Melody,165,1,38,27,2644922448
89,24,14,Improv_Melody,166,1,38,18,2644982708
89,24,14,Improv_Melody,167,1,38,20,2645226104
89,24,14,Improv_Melody,168,5,42,110,2645244248
89,24,14,Improv_Melody,169,1,48,29,2645470120
89,24,14,Improv_Melody,170,5,42,110,2645743932
89,24,14,Improv_Melody,171,1,38,30,2645936364
89,24,14,Improv_Melody,172,1,38,19,2646207608
89,24,14,Improv_Melody,173,2,43,80,2646245824
89,24,14,Improv_Melody,174,2,67,80,2646248132
89,24,14,Improv_Melody,175,5,42,127,2646250524
89,24,14,Improv_Melody,176,1,48,25,2646457244
89,24,14,Improv_Melody,177,5,42,110,2646744368
89,24,14,Improv_Melody,178,1,48,19,2646749132
89,24,14,Improv_Melody,179,1,38,23,2646939548
89,24,14,Improv_Melody,180,5,42,110,2647244124
89,24,14,Improv_Melody,181,1,38,25,2647250460
89,24,14,Improv_Melody,182,1,48,33,2647423888
89,24,14,Improv_Melody,183,5,42,110,2647743728
89,24,14,Improv_Melody,184,1,38,28,2647903472
89,24,14,Improv_Melody,185,1,38,22,2648195556
89,24,14,Improv_Melody,186,5,42,127,2648243492
89,24,14,Improv_Melody,187,1,48,26,2648418484
89,24,14,Improv_Melody,188,5,42,110,2648744272
89,24,14,Improv_Melody,189,1,38,31,2648753600
89,24,14,Improv_Melody,190,1,38,19,2648992132
89,24,14,Improv_Melody,191,1,38,22,2649226848
89,24,14,Improv_Melody,192,5,42,110,2649244168
89,24,14,Improv_Melody,193,1,48,29,2649493684
89,24,14,Improv_Melody,194,5,42,110,2649743852
89,24,14,Improv_Melody,195,1,38,31,2649951188
89,24,14,Improv_Melody,196,1,38,26,2650206852
89,24,14,Improv_Melody,197,2,45,80,2650245896
89,24,14,Improv_Melody,198,2,69,80,2650248124
89,24,14,Improv_Melody,199,5,42,127,2650250588
89,24,14,Improv_Melody,200,1,48,23,2650454400
89,24,14,Improv_Melody,201,1,48,22,2650711028
89,24,14,Improv_Melody,202,5,42,110,2650744132
89,24,14,Improv_Melody,203,1,38,28,2650948316
89,24,14,Improv_Melody,204,1,38,28,2651189544
89,24,14,Improv_Melody,205,5,42,110,2651244032
89,24,14,Improv_Melody,206,1,38,18,2651249832
89,24,14,Improv_Melody,207,1,48,28,2651445876
89,24,14,Improv_Melody,208,1,48,20,2651700420
89,24,14,Improv_Melody,209,5,42,110,2651743544
89,24,14,Improv_Melody,210,1,38,28,2651954384
89,24,14,Improv_Melody,211,1,38,26,2652207204
89,24,14,Improv_Melody,212,5,42,127,2652244192
89,24,14,Improv_Melody,213,1,48,25,2652486072
89,24,14,Improv_Melody,214,5,42,110,2652744100
89,24,14,Improv_Melody,215,1,48,18,2652750064
89,24,14,Improv_Melody,216,1,38,27,2653012976
89,24,14,Improv_Melody,217,5,42,110,2653244004
89,24,14,Improv_Melody,218,1,38,33,2653273308
89,24,14,Improv_Melody,219,1,48,27,2653540560
89,24,14,Improv_Melody,220,5,42,110,2653743536
89,24,14,Improv_Melody,221,1,38,35,2654043328
89,24,14,Improv_Melody,222,2,41,80,2654247016
89,24,14,Improv_Melody,223,2,65,80,2654249016
89,24,14,Improv_Melody,224,5,42,127,2654251476
89,24,14,Improv_Melody,225,1,38,24,2654293416
89,24,14,Improv_Melody,226,1,48,25,2654564932
89,24,14,Improv_Melody,227,5,42,110,2654744044
89,24,14,Improv_Melody,228,1,48,20,2654841184
89,24,14,Improv_Melody,229,1,38,23,2655044716
89,24,14,Improv_Melody,230,5,42,110,2655243576
89,24,14,Improv_Melody,231,1,38,25,2655325152
89,24,14,Improv_Melody,232,1,48,32,2655530924
89,24,14,Improv_Melody,233,5,42,110,2655744372
89,24,14,Improv_Melody,234,1,38,36,2656067348
89,24,14,Improv_Melody,235,5,42,127,2656244072
89,24,14,Improv_Melody,236,1,38,25,2656315556
89,24,14,Improv_Melody,237,1,48,33,2656559700
89,24,14,Improv_Melody,238,5,42,110,2656743900
89,24,14,Improv_Melody,239,1,48,21,2656808648
89,24,14,Improv_Melody,240,1,38,32,2657069400
89,24,14,Improv_Melody,241,5,42,110,2657243576
89,24,14,Improv_Melody,242,1,38,20,2657330396
89,24,14,Improv_Melody,243,1,48,27,2657594956
89,24,14,Improv_Melody,244,5,42,110,2657744156
89,24,14,Improv_Melody,245,1,38,30,2658077524
89,24,14,Improv_Melody,246,2,48,80,2658246508
89,24,14,Improv_Melody,247,2,72,80,2658248740
89,24,14,Improv_Melody,248,5,42,127,2658251272
89,24,14,Improv_Melody,249,1,38,23,2658340484
89,24,14,Improv_Melody,250,1,48,28,2658604376
89,24,14,Improv_Melody,251,5,42,110,2658743768
89,24,14,Improv_Melody,252,1,48,24,2658861928
89,24,14,Improv_Melody,253,1,38,22,2659098968
89,24,14,Improv_Melody,254,5,42,110,2659244396
89,24,14,Improv_Melody,255,1,38,22,2659358684
89,24,14,Improv_Melody,256,1,48,27,2659618240
89,24,14,Improv_Melody,257,5,42,110,2659744000
89,24,14,Improv_Melody,258,1,38,29,2660132672
89,24,14,Improv_Melody,259,5,42,127,2660243924
89,24,14,Improv_Melody,260,1,38,26,2660385440
89,24,14,Improv_Melody,261,1,48,24,2660642228
89,24,14,Improv_Melody,262,5,42,110,2660743452
89,24,14,Improv_Melody,263,1,48,23,2660895740
89,24,14,Improv_Melody,264,1,38,27,2661153876
89,24,14,Improv_Melody,265,5,42,110,2661244340
89,24,14,Improv_Melody,266,1,38,26,2661408212
89,24,14,Improv_Melody,267,1,48,21,2661694016
89,24,14,Improv_Melody,268,5,42,110,2661744096
89,24,14,Improv_Melody,269,1,38,33,2662241632
89,24,14,Improv_Melody,270,2,43,80,2662246372
89,24,14,Improv_Melody,271,2,67,80,2662248604
89,24,14,Improv_Melody,272,5,42,127,2662251064
89,24,14,Improv_Melody,273,1,38,31,2662488008
89,24,14,Improv_Melody,274,5,42,110,2662744316
89,24,14,Improv_Melody,275,1,48,19,2662775780
89,24,14,Improv_Melody,276,1,48,19,2663018880
89,24,14,Improv_Melody,277,5,42,110,2663244144
89,24,14,Improv_Melody,278,1,38,33,2663258104
89,24,14,Improv_Melody,279,1,38,28,2663515112
89,24,14,Improv_Melody,280,5,42,110,2663743968
89,24,14,Improv_Melody,281,1,48,27,2663791292
89,24,14,Improv_Melody,282,5,42,127,2664243444
89,24,14,Improv_Melody,283,1,38,29,2664270500
89,24,14,Improv_Melody,284,1,38,28,2664495792
89,24,14,Improv_Melody,285,5,42,110,2664744248
89,24,14,Improv_Melody,286,1,48,26,2664752976
89,24,14,Improv_Melody,287,1,48,22,2664979692
89,24,14,Improv_Melody,288,1,38,30,2665221368
89,24,14,Improv_Melody,289,5,42,110,2665243992
89,24,14,Improv_Melody,290,1,38,20,2665457228
89,24,14,Improv_Melody,291,1,48,24,2665730840
89,24,14,Improv_Melody,292,5,42,110,2665743672
89,24,14,Improv_Melody,293,1,38,29,2666219024
89,24,14,Improv_Melody,294,2,45,80,2666245948
89,24,14,Improv_Melody,295,2,69,80,2666247952
89,24,14,Improv_Melody,296,5,42,127,2666250712
89,24,14,Improv_Melody,297,1,38,30,2666455052
89,24,14,Improv_Melody,298,5,42,110,2666744116
89,24,14,Improv_Melody,299,1,48,26,2666776180
89,24,14,Improv_Melody,300,1,48,25,2667006112
89,24,14,Improv_Melody,301,5,42,110,2667243792
89,24,14,Improv_Melody,302,1,38,33,2667257012
89,24,14,Improv_Melody,303,1,38,32,2667500180
89,24,14,Improv_Melody,304,1,48,28,2667698024
89,24,14,Improv_Melody,305,5,42,110,2667743540
89,24,14,Improv_Melody,306,1,48,14,2667958796
89,24,14,Improv_Melody,307,1,38,32,2668218944
89,24,14,Improv_Melody,308,5,42,127,2668244264
89,24,14,Improv_Melody,309,1,38,29,2668469840
89,24,14,Improv_Melody,310,1,48,23,2668739564
89,24,14,Improv_Melody,311,5,42,110,2668743944
89,24,14,Improv_Melody,312,1,48,21,2668989496
89,24,14,Improv_Melody,313,5,42,110,2669243852
89,24,14,Improv_Melody,314,1,38,37,2669244816
89,24,14,Improv_Melody,315,1,38,23,2669479644
89,24,14,Improv_Melody,316,1,48,26,2669742452
89,24,14,Improv_Melody,317,5,42,110,2669743944
89,24,14,Improv_Melody,318,1,38,34,2670219072
89,24,14,Improv_Melody,319,2,41,80,2670246524
89,24,14,Improv_Melody,320,2,65,80,2670248752
89,24,14,Improv_Melody,321,5,42,127,2670251216
89,24,14,Improv_Melody,322,1,38,26,2670482704
89,24,14,Improv_Melody,323,1,48,21,2670723924
89,24,14,Improv_Melody,324,5,42,110,2670743860
89,24,14,Improv_Melody,325,1,48,24,2670987616
89,24,14,Improv_Melody,326,5,42,110,2671243920
89,24,14,Improv_Melody,327,1,38,33,2671256236
89,24,14,Improv_Melody,328,1,38,29,2671500004
89,24,14,Improv_Melody,329,1,48,21,2671728292
89,24,14,Improv_Melody,330,5,42,110,2671744488
89,24,14,Improv_Melody,331,1,48,21,2671991984
89,24,14,Improv_Melody,332,5,42,127,2672243948
89,24,14,Improv_Melody,333,1,38,27,2672246916
89,24,14,Improv_Melody,334,1,38,28,2672490160
89,24,14,Improv_Melody,335,5,42,110,2672743996
89,24,14,Improv_Melody,336,1,48,27,2672749592
89,24,14,Improv_Melody,337,1,48,23,2672989016
89,24,14,Improv_Melody,338,5,42,110,2673243452
89,24,14,Improv_Melody,339,1,38,33,2673260560
89,24,14,Improv_Melody,340,1,38,34,2673518616
89,24,14,Improv_Melody,341,5,42,110,2673744176
89,24,14,Improv_Melody,342,1,48,26,2673751032
89,24,14,Improv_Melody,343,1,48,20,2674004152
89,24,14,Improv_Melody,344,1,38,33,2674242676
89,24,14,Improv_Melody,345,2,48,80,2674247548
89,24,14,Improv_Melody,346,2,72,80,2674249624
89,24,14,Improv_Melody,347,5,42,127,2674252164
89,24,14,Improv_Melody,348,1,38,18,2674522248
89,24,14,Improv_Melody,349,5,42,110,2674743768
89,24,14,Improv_Melody,350,1,48,24,2674751600
89,24,14,Improv_Melody,351,1,48,19,2674997836
89,24,14,Improv_Melody,352,1,38,32,2675241008
89,24,14,Improv_Melody,353,5,42,110,2675244264
89,24,14,Improv_Melody,354,1,38,29,2675489140
89,24,14,Improv_Melody,355,1,48,27,2675732760
89,24,14,Improv_Melody,356,5,42,110,2675744240
89,24,14,Improv_Melody,357,1,38,38,2676221908
89,24,14,Improv_Melody,358,5,42,127,2676243864
89,24,14,Improv_Melody,359,1,38,27,2676460988
89,24,14,Improv_Melody,360,1,48,29,2676730712
89,24,14,Improv_Melody,361,5,42,110,2676743768
89,24,14,Improv_Melody,362,1,38,25,2677018260
89,24,14,Improv_Melody,363,5,42,110,2677244200
89,24,14,Improv_Melody,364,1,38,28,2677247096
89,24,14,Improv_Melody,365,1,38,30,2677475680
89,24,14,Improv_Melody,366,5,42,110,2677743952
89,24,14,Improv_Melody,367,1,48,31,2677754624
89,24,14,Improv_Melody,368,1,38,39,2678221392
89,24,14,Improv_Melody,369,2,43,80,2678246228
89,24,14,Improv_Melody,370,2,67,80,2678248456
89,24,14,Improv_Melody,371,5,42,127,2678250916
89,24,14,Improv_Melody,372,1,38,33,2678492648
89,24,14,Improv_Melody,373,1,48,28,2678730208
89,24,14,Improv_Melody,374,5,42,110,2678744608
89,24,14,Improv_Melody,375,1,38,24,2678998612
89,24,14,Improv_Melody,376,1,38,34,2679236772
89,24,14,Improv_Melody,377,5,42,110,2679244360
89,24,14,Improv_Melody,378,1,38,30,2679501576
89,24,14,Improv_Melody,379,1,48,27,2679723336
89,24,14,Improv_Melody,380,5,42,110,2679743964
89,24,14,Improv_Melody,381,1,38,35,2680228120
89,24,14,Improv_Melody,382,5,42,127,2680243812
89,24,14,Improv_Melody,383,1,38,33,2680476544
89,24,14,Improv_Melody,384,1,48,22,2680707080
89,24,14,Improv_Melody,385,5,42,110,2680744512
89,24,14,Improv_Melody,386,1,48,24,2680961864
89,24,14,Improv_Melody,387,1,38,33,2681210492
89,24,14,Improv_Melody,388,5,42,110,2681243892
89,24,14,Improv_Melody,389,1,38,29,2681443444
89,24,14,Improv_Melody,390,1,48,28,2681723336
89,24,14,Improv_Melody,391,5,42,110,2681743792
89,24,14,Improv_Melody,392,1,38,28,2682229392
89,24,14,Improv_Melody,393,2,45,80,2682246152
89,24,14,Improv_Melody,394,2,69,80,2682248304
89,24,14,Improv_Melody,395,5,42,127,2682250836
89,24,14,Improv_Melody,396,1,48,16,2682265400
89,24,14,Improv_Melody,397,1,38,26,2682496648
89,24,14,Improv_Melody,398,1,48,22,2682516900
89,24,14,Improv_Melody,399,5,42,110,2682744156
89,24,14,Improv_Melody,400,1,48,28,2682765452
89,24,14,Improv_Melody,401,1,48,25,2683000992
89,24,14,Improv_Melody,402,1,38,32,2683236304
89,24,14,Improv_Melody,403,5,42,110,2683243752
89,24,14,Improv_Melody,404,1,38,33,2683480548
89,24,14,Improv_Melody,405,1,38,17,2683559212
89,24,14,Improv_Melody,406,1,48,30,2683740304
89,24,14,Improv_Melody,407,5,42,110,2683743780
89,24,14,Improv_Melody,408,1,48,16,2683821980
89,24,14,Improv_Melody,409,5,42,127,2684244288
89,24,14,Improv_Melody,410,1,38,38,2684286744
89,24,14,Improv_Melody,411,1,38,36,2684525280
89,24,14,Improv_Melody,412,5,42,110,2684744040
89,24,14,Improv_Melody,413,1,48,26,2684768552
89,24,14,Improv_Melody,414,1,48,20,2685018676
89,24,14,Improv_Melody,415,5,42,110,2685243716
89,24,14,Improv_Melody,416,1,38,30,2685255284
89,24,14,Improv_Melody,417,1,38,37,2685503316
89,24,14,Improv_Melody,418,1,48,27,2685730480
89,24,14,Improv_Melody,419,5,42,110,2685743756
89,24,14,Improv_Melody,420,1,38,30,2686219108
89,24,14,Improv_Melody,421,2,41,80,2686246788
89,24,14,Improv_Melody,422,2,65,80,2686248860
89,24,14,Improv_Melody,423,5,42,127,2686251404
89,24,14,Improv_Melody,424,1,38,19,2686487600
89,24,14,Improv_Melody,425,5,42,110,2686743904
89,24,14,Improv_Melody,426,1,48,23,2686745844
89,24,14,Improv_Melody,427,1,48,24,2686994232
89,24,14,Improv_Melody,428,1,38,27,2687237924
89,24,14,Improv_Melody,429,5,42,110,2687243652
89,24,14,Improv_Melody,430,1,48,24,2687511640
89,24,14,Improv_Melody,431,5,42,110,2687744380
89,24,14,Improv_Melody,432,1,48,24,2687759092
89,24,14,Improv_Melody,433,1,48,21,2688007352
89,24,14,Improv_Melody,434,1,38,32,2688242472
89,24,14,Improv_Melody,435,5,42,127,2688244724
89,24,14,Improv_Melody,436,1,38,26,2688508672
89,24,14,Improv_Melody,437,5,42,110,2688743668
89,24,14,Improv_Melody,438,1,38,26,2688760100
89,24,14,Improv_Melody,439,5,42,110,2689243592
89,24,14,Improv_Melody,440,1,48,27,2689287096
89,24,14,Improv_Melody,441,5,42,110,2689744336
89,24,14,Improv_Melody,442,1,38,28,2690203824
89,24,14,Improv_Melody,443,2,48,80,2690246556
89,24,14,Improv_Melody,444,2,72,80,2690248556
89,24,14,Improv_Melody,445,5,42,127,2690251172
89,24,14,Improv_Melody,446,1,38,24,2690459520
89,24,14,Improv_Melody,447,1,48,24,2690706056
89,24,14,Improv_Melody,448,5,42,110,2690743668
89,24,14,Improv_Melody,449,1,48,18,2690962792
89,24,14,Improv_Melody,450,1,38,27,2691217028
89,24,14,Improv_Melody,0,9999,9999,9999,2610241612
89,24,14,Improv_Melody,1,9999,9999,9999,2610741312
89,24,14,Improv_Melody,2,9999,9999,9999,2611242080
89,24,14,Improv_Melody,3,9999,9999,9999,2611741804
89,24,14,Improv_Melody,4,9999,9999,9999,2612241524
89,24,14,Improv_Melody,5,9999,9999,9999,2612741172
89,24,14,Improv_Melody,6,9999,9999,9999,2613241940
89,24,14,Improv_Melody,7,9999,9999,9999,2613741660
89,24,14,Improv_Melody,8,9999,9999,9999,2614241384
89,24,14,Improv_Melody,9,9999,9999,9999,2614742092
89,24,14,Improv_Melody,10,9999,9999,9999,2615241812
89,24,14,Improv_Melody,11,9999,9999,9999,2615741536
89,24,14,Improv_Melody,12,9999,9999,9999,2616241232
89,24,14,Improv_Melody,13,9999,9999,9999,2616741976
89,24,14,Improv_Melody,14,9999,9999,9999,2617241696
89,24,14,Improv_Melody,15,9999,9999,9999,2617741416
89,24,14,Improv_Melody,16,9999,9999,9999,2618241140
89,24,14,Improv_Melody,17,9999,9999,9999,2618741844
89,24,14,Improv_Melody,18,9999,9999,9999,2619241568
89,24,14,Improv_Melody,19,9999,9999,9999,2619741288
89,24,14,Improv_Melody,20,9999,9999,9999,2620241984
89,24,14,Improv_Melody,21,9999,9999,9999,2620741704
89,24,14,Improv_Melody,22,9999,9999,9999,2621241428
89,24,14,Improv_Melody,23,9999,9999,9999,2621741152
89,24,14,Improv_Melody,24,9999,9999,9999,2622241844
89,24,14,Improv_Melody,25,9999,9999,9999,2622741580
89,24,14,Improv_Melody,26,9999,9999,9999,2623241300
89,24,14,Improv_Melody,27,9999,9999,9999,2623742072
89,24,14,Improv_Melody,28,9999,9999,9999,2624241716
89,24,14,Improv_Melody,29,9999,9999,9999,2624741440
89,24,14,Improv_Melody,30,9999,9999,9999,2625241160
89,24,14,Improv_Melody,31,9999,9999,9999,2625741928
89,24,14,Improv_Melody,32,9999,9999,9999,2626241652
89,24,14,Improv_Melody,33,9999,9999,9999,2626741344
89,24,14,Improv_Melody,34,9999,9999,9999,2627242036
89,24,14,Improv_Melody,35,9999,9999,9999,2627741792
89,24,14,Improv_Melody,36,9999,9999,9999,2628241492
89,24,14,Improv_Melody,37,9999,9999,9999,2628741228
89,24,14,Improv_Melody,38,9999,9999,9999,2629241952
89,24,14,Improv_Melody,39,9999,9999,9999,2629741684
89,24,14,Improv_Melody,40,9999,9999,9999,2630241384
89,24,14,Improv_Melody,41,9999,9999,9999,2630742100
89,24,14,Improv_Melody,42,9999,9999,9999,2631241780
89,24,14,Improv_Melody,43,9999,9999,9999,2631741532
89,24,14,Improv_Melody,44,9999,9999,9999,2632241224
89,24,14,Improv_Melody,45,9999,9999,9999,2632741988
89,24,14,Improv_Melody,46,9999,9999,9999,2633241664
89,24,14,Improv_Melody,47,9999,9999,9999,2633741420
89,24,14,Improv_Melody,48,9999,9999,9999,2634241120
89,24,14,Improv_Melody,49,9999,9999,9999,2634741836
89,24,14,Improv_Melody,50,9999,9999,9999,2635241588
89,24,14,Improv_Melody,51,9999,9999,9999,2635741268
89,24,14,Improv_Melody,52,9999,9999,9999,2636242016
89,24,14,Improv_Melody,53,9999,9999,9999,2636741692
89,24,14,Improv_Melody,54,9999,9999,9999,2637241444
89,24,14,Improv_Melody,55,9999,9999,9999,2637741152
89,24,14,Improv_Melody,56,9999,9999,9999,2638241900
89,24,14,Improv_Melody,57,9999,9999,9999,2638741592
89,24,14,Improv_Melody,58,9999,9999,9999,2639241292
89,24,14,Improv_Melody,59,9999,9999,9999,2639742020
89,24,14,Improv_Melody,60,9999,9999,9999,2640241748
89,24,14,Improv_Melody,61,9999,9999,9999,2640741492
89,24,14,Improv_Melody,62,9999,9999,9999,2641241172
89,24,14,Improv_Melody,63,9999,9999,9999,2641741876
89,24,14,Improv_Melody,64,9999,9999,9999,2642241628
89,24,14,Improv_Melody,65,9999,9999,9999,2642741328
89,24,14,Improv_Melody,66,9999,9999,9999,2643242048
89,24,14,Improv_Melody,67,9999,9999,9999,2643741804
89,24,14,Improv_Melody,68,9999,9999,9999,2644241496
89,24,14,Improv_Melody,69,9999,9999,9999,2644741176
89,24,14,Improv_Melody,70,9999,9999,9999,2645241956
89,24,14,Improv_Melody,71,9999,9999,9999,2645741640
89,24,14,Improv_Melody,72,9999,9999,9999,2646241332
89,24,14,Improv_Melody,73,9999,9999,9999,2646742080
89,24,14,Improv_Melody,74,9999,9999,9999,2647241832
89,24,14,Improv_Melody,75,9999,9999,9999,2647741508
89,24,14,Improv_Melody,76,9999,9999,9999,2648241252
89,24,14,Improv_Melody,77,9999,9999,9999,2648741980
89,24,14,Improv_Melody,78,9999,9999,9999,2649241652
89,24,14,Improv_Melody,79,9999,9999,9999,2649741412
89,24,14,Improv_Melody,80,9999,9999,9999,2650241104
89,24,14,Improv_Melody,81,9999,9999,9999,2650741840
89,24,14,Improv_Melody,82,9999,9999,9999,2651241592
89,24,14,Improv_Melody,83,9999,9999,9999,2651741252
89,24,14,Improv_Melody,84,9999,9999,9999,2652241976
89,24,14,Improv_Melody,85,9999,9999,9999,2652741736
89,24,14,Improv_Melody,86,9999,9999,9999,2653241416
89,24,14,Improv_Melody,87,9999,9999,9999,2653741168
89,24,14,Improv_Melody,88,9999,9999,9999,2654241840
89,24,14,Improv_Melody,89,9999,9999,9999,2654741604
89,24,14,Improv_Melody,90,9999,9999,9999,2655241284
89,24,14,Improv_Melody,91,9999,9999,9999,2655742008
89,24,14,Improv_Melody,92,9999,9999,9999,2656241780
89,24,14,Improv_Melody,93,9999,9999,9999,2656741460
89,24,14,Improv_Melody,94,9999,9999,9999,2657241212
89,24,14,Improv_Melody,95,9999,9999,9999,2657741936
89,24,14,Improv_Melody,96,9999,9999,9999,2658241636
89,24,14,Improv_Melody,97,9999,9999,9999,2658741328
89,24,14,Improv_Melody,98,9999,9999,9999,2659242104
89,24,14,Improv_Melody,99,9999,9999,9999,2659741784
89,24,14,Improv_Melody,100,9999,9999,9999,2660241484
89,24,14,Improv_Melody,101,9999,9999,9999,2660741236
89,24,14,Improv_Melody,102,9999,9999,9999,2661241976
89,24,14,Improv_Melody,103,9999,9999,9999,2661741656
89,24,14,Improv_Melody,104,9999,9999,9999,2662241392
89,24,14,Improv_Melody,105,9999,9999,9999,2662742096
89,24,14,Improv_Melody,106,9999,9999,9999,2663241852
89,24,14,Improv_Melody,107,9999,9999,9999,2663741528
89,24,14,Improv_Melody,108,9999,9999,9999,2664241228
89,24,14,Improv_Melody,109,9999,9999,9999,2664741956
89,24,14,Improv_Melody,110,9999,9999,9999,2665241700
89,24,14,Improv_Melody,111,9999,9999,9999,2665741380
89,24,14,Improv_Melody,112,9999,9999,9999,2666241080
89,24,14,Improv_Melody,113,9999,9999,9999,2666741824
89,24,14,Improv_Melody,114,9999,9999,9999,2667241576
89,24,14,Improv_Melody,115,9999,9999,9999,2667741248
89,24,14,Improv_Melody,116,9999,9999,9999,2668241972
89,24,14,Improv_Melody,117,9999,9999,9999,2668741728
89,24,14,Improv_Melody,118,9999,9999,9999,2669241412
89,24,14,Improv_Melody,119,9999,9999,9999,2669741140
89,24,14,Improv_Melody,120,9999,9999,9999,2670241880
89,24,14,Improv_Melody,121,9999,9999,9999,2670741568
89,24,14,Improv_Melody,122,9999,9999,9999,2671241328
89,24,14,Improv_Melody,123,9999,9999,9999,2671742048
89,24,14,Improv_Melody,124,9999,9999,9999,2672241732
89,24,14,Improv_Melody,125,9999,9999,9999,2672741484
89,24,14,Improv_Melody,126,9999,9999,9999,2673241160
89,24,14,Improv_Melody,127,9999,9999,9999,2673741884
89,24,14,Improv_Melody,128,9999,9999,9999,2674241636
89,24,14,Improv_Melody,129,9999,9999,9999,2674741328
89,24,14,Improv_Melody,130,9999,9999,9999,2675242048
89,24,14,Improv_Melody,131,9999,9999,9999,2675741800
89,24,14,Improv_Melody,132,9999,9999,9999,2676241500
89,24,14,Improv_Melody,133,9999,9999,9999,2676741180
89,24,14,Improv_Melody,134,9999,9999,9999,2677241908
89,24,14,Improv_Melody,135,9999,9999,9999,2677741660
89,24,14,Improv_Melody,136,9999,9999,9999,2678241356
89,24,14,Improv_Melody,137,9999,9999,9999,2678742092
89,24,14,Improv_Melody,138,9999,9999,9999,2679241848
89,24,14,Improv_Melody,139,9999,9999,9999,2679741524
89,24,14,Improv_Melody,140,9999,9999,9999,2680241224
89,24,14,Improv_Melody,141,9999,9999,9999,2680742000
89,24,14,Improv_Melody,142,9999,9999,9999,2681241676
89,24,14,Improv_Melody,143,9999,9999,9999,2681741428
89,24,14,Improv_Melody,144,9999,9999,9999,2682241128
89,24,14,Improv_Melody,145,9999,9999,9999,2682741864
89,24,14,Improv_Melody,146,9999,9999,9999,2683241536
89,24,14,Improv_Melody,147,9999,9999,9999,2683741264
89,24,14,Improv_Melody,148,9999,9999,9999,2684241996
89,24,14,Improv_Melody,149,9999,9999,9999,2684741748
89,24,14,Improv_Melody,150,9999,9999,9999,2685241424
89,24,14,Improv_Melody,151,9999,9999,9999,2685741168
89,24,14,Improv_Melody,152,9999,9999,9999,2686241844
89,24,14,Improv_Melody,153,9999,9999,9999,2686741612
89,24,14,Improv_Melody,154,9999,9999,9999,2687241284
89,24,14,Improv_Melody,155,9999,9999,9999,2687742016
89,24,14,Improv_Melody,156,9999,9999,9999,2688241776
89,24,14,Improv_Melody,157,9999,9999,9999,2688741448
89,24,14,Improv_Melody,158,9999,9999,9999,2689241148
89,24,14,Improv_Melody,159,9999,9999,9999,2689741896
89,24,14,Improv_Melody,160,9999,9999,9999,2690241612
89,24,14,Improv_Melody,161,9999,9999,9999,2690741304
