pid,taskRunCount,taskID,taskName,i,channel,pitch,velocity,microseconds
92,1,0,Ticks_Pract_8,0,5,42,127,7483608
92,1,0,Ticks_Pract_8,1,5,42,127,8283364
92,1,0,Ticks_Pract_8,2,1,48,32,8534088
92,1,0,Ticks_Pract_8,3,5,42,127,9084364
92,1,0,Ticks_Pract_8,4,1,48,20,9299040
92,1,0,Ticks_Pract_8,5,5,42,127,9884096
92,1,0,Ticks_Pract_8,6,1,48,19,9973484
92,1,0,Ticks_Pract_8,7,1,48,25,10645492
92,1,0,Ticks_Pract_8,8,5,42,127,10683972
92,1,0,Ticks_Pract_8,9,1,48,33,11400500
92,1,0,Ticks_Pract_8,10,5,42,127,11483584
92,1,0,Ticks_Pract_8,11,1,48,31,12226864
92,1,0,Ticks_Pract_8,12,5,42,127,12284140
92,1,0,Ticks_Pract_8,13,5,42,127,13084100
92,1,0,Ticks_Pract_8,14,1,48,39,13132696
92,1,0,Ticks_Pract_8,15,1,48,40,13877440
92,1,0,Ticks_Pract_8,16,5,42,127,13883976
92,1,0,Ticks_Pract_8,17,1,48,36,14661164
92,1,0,Ticks_Pract_8,18,5,42,127,14683560
92,1,0,Ticks_Pract_8,19,1,48,35,15445412
92,1,0,Ticks_Pract_8,20,5,42,127,15484120
92,1,0,Ticks_Pract_8,21,1,48,38,16283328
92,1,0,Ticks_Pract_8,22,5,42,127,16284972
92,1,0,Ticks_Pract_8,23,1,48,36,17046680
92,1,0,Ticks_Pract_8,24,5,42,127,17084108
92,1,0,Ticks_Pract_8,25,1,48,43,17865628
92,1,0,Ticks_Pract_8,26,5,42,127,17883492
92,1,0,Ticks_Pract_8,27,1,48,43,18675264
92,1,0,Ticks_Pract_8,28,5,42,127,18684200
92,1,0,Ticks_Pract_8,29,5,42,127,19484092
92,1,0,Ticks_Pract_8,30,1,48,40,19488408
92,1,0,Ticks_Pract_8,31,1,48,38,20264856
92,1,0,Ticks_Pract_8,32,5,42,127,20283892
92,1,0,Ticks_Pract_8,33,1,48,42,21048888
92,1,0,Ticks_Pract_8,34,5,42,127,21083552
92,1,0,Ticks_Pract_8,35,1,48,39,21823336
92,1,0,Ticks_Pract_8,36,5,42,127,21884180
92,1,0,Ticks_Pract_8,37,1,48,43,22639304
92,1,0,Ticks_Pract_8,38,5,42,127,22684068
92,1,0,Ticks_Pract_8,39,1,48,43,23449284
92,1,0,Ticks_Pract_8,40,5,42,127,23483948
92,1,0,Ticks_Pract_8,41,1,48,42,24265024
92,1,0,Ticks_Pract_8,42,5,42,127,24283408
92,1,0,Ticks_Pract_8,43,5,42,127,25084272
92,1,0,Ticks_Pract_8,44,1,48,43,25106620
92,1,0,Ticks_Pract_8,45,1,48,41,25875888
92,1,0,Ticks_Pract_8,46,5,42,127,25883924
92,1,0,Ticks_Pract_8,47,1,48,42,26667988
92,1,0,Ticks_Pract_8,48,5,42,127,26683732
92,1,0,Ticks_Pract_8,49,5,42,127,27483548
92,1,0,Ticks_Pract_8,50,1,48,45,27494596
92,1,0,Ticks_Pract_8,51,5,42,127,28284180
92,1,0,Ticks_Pract_8,52,1,48,35,28300984
92,1,0,Ticks_Pract_8,53,1,48,40,29074600
92,1,0,Ticks_Pract_8,54,5,42,127,29084204
92,1,0,Ticks_Pract_8,55,5,42,127,29883720
92,1,0,Ticks_Pract_8,56,1,48,31,30452388
92,1,0,Ticks_Pract_8,57,5,42,127,30683628
92,1,0,Ticks_Pract_8,0,9999,9999,9999,7481396
92,1,0,Ticks_Pract_8,1,9999,9999,9999,8281148
92,1,0,Ticks_Pract_8,2,9999,9999,9999,9081928
92,1,0,Ticks_Pract_8,3,9999,9999,9999,9881660
92,1,0,Ticks_Pract_8,4,9999,9999,9999,10681464
92,1,0,Ticks_Pract_8,5,9999,9999,9999,11481148
92,1,0,Ticks_Pract_8,6,9999,9999,9999,12281924
92,1,0,Ticks_Pract_8,7,9999,9999,9999,13081664
92,1,0,Ticks_Pract_8,8,9999,9999,9999,13881392
92,1,0,Ticks_Pract_8,9,9999,9999,9999,14681200
92,1,0,Ticks_Pract_8,10,9999,9999,9999,15481904
92,1,0,Ticks_Pract_8,11,9999,9999,9999,16281720
92,1,0,Ticks_Pract_8,12,9999,9999,9999,17081448
92,1,0,Ticks_Pract_8,13,9999,9999,9999,17881204
92,1,0,Ticks_Pract_8,14,9999,9999,9999,18681912
92,1,0,Ticks_Pract_8,15,9999,9999,9999,19481652
92,1,0,Ticks_Pract_8,16,9999,9999,9999,20281456
92,1,0,Ticks_Pract_8,17,9999,9999,9999,21081188
92,1,0,Ticks_Pract_8,18,9999,9999,9999,21881968
92,1,0,Ticks_Pract_8,19,9999,9999,9999,22681704
92,1,0,Ticks_Pract_8,20,9999,9999,9999,23481436
92,1,0,Ticks_Pract_8,21,9999,9999,9999,24281196
92,1,0,Ticks_Pract_8,22,9999,9999,9999,25081908
92,1,0,Ticks_Pract_8,23,9999,9999,9999,25881712
92,1,0,Ticks_Pract_8,24,9999,9999,9999,26681444
92,1,0,Ticks_Pract_8,25,9999,9999,9999,27481184
92,1,0,Ticks_Pract_8,26,9999,9999,9999,28281964
92,1,0,Ticks_Pract_8,27,9999,9999,9999,29081692
92,1,0,Ticks_Pract_8,28,9999,9999,9999,29881432
92,1,0,Ticks_Pract_8,29,9999,9999,9999,30681192
92,2,1,Ticks_Pract_5,0,5,42,127,49334696
92,2,1,Ticks_Pract_5,1,5,42,127,49835536
92,2,1,Ticks_Pract_5,2,5,42,127,50335104
92,2,1,Ticks_Pract_5,3,5,42,127,50834672
92,2,1,Ticks_Pract_5,4,5,42,127,51334832
92,2,1,Ticks_Pract_5,5,1,48,36,51337508
92,2,1,Ticks_Pract_5,6,1,48,38,51778244
92,2,1,Ticks_Pract_5,7,5,42,127,51835348
92,2,1,Ticks_Pract_5,8,5,42,127,52334900
92,2,1,Ticks_Pract_5,9,1,48,38,52340708
92,2,1,Ticks_Pract_5,10,1,48,38,52803664
92,2,1,Ticks_Pract_5,11,5,42,127,52834660
92,2,1,Ticks_Pract_5,12,1,48,39,53326316
92,2,1,Ticks_Pract_5,13,5,42,127,53335404
92,2,1,Ticks_Pract_5,14,1,48,45,53834348
92,2,1,Ticks_Pract_5,15,5,42,127,53835764
92,2,1,Ticks_Pract_5,16,1,48,38,54329896
92,2,1,Ticks_Pract_5,17,5,42,127,54334792
92,2,1,Ticks_Pract_5,18,5,42,127,54834568
92,2,1,Ticks_Pract_5,19,1,48,44,54835604
92,2,1,Ticks_Pract_5,20,5,42,127,55335308
92,2,1,Ticks_Pract_5,21,1,48,35,55354736
92,2,1,Ticks_Pract_5,22,5,42,127,55835004
92,2,1,Ticks_Pract_5,23,1,48,43,55866320
92,2,1,Ticks_Pract_5,24,1,48,46,56334248
92,2,1,Ticks_Pract_5,25,5,42,127,56335740
92,2,1,Ticks_Pract_5,26,1,48,46,56819772
92,2,1,Ticks_Pract_5,27,5,42,127,56834388
92,2,1,Ticks_Pract_5,28,5,42,127,57335360
92,2,1,Ticks_Pract_5,29,1,48,43,57339900
92,2,1,Ticks_Pract_5,30,5,42,127,57834828
92,2,1,Ticks_Pract_5,31,1,48,41,57840268
92,2,1,Ticks_Pract_5,32,5,42,127,58334524
92,2,1,Ticks_Pract_5,33,1,48,42,58350432
92,2,1,Ticks_Pract_5,34,5,42,127,58835268
92,2,1,Ticks_Pract_5,35,1,48,35,58837212
92,2,1,Ticks_Pract_5,36,1,48,47,59313580
92,2,1,Ticks_Pract_5,37,5,42,127,59335156
92,2,1,Ticks_Pract_5,38,1,48,44,59812376
92,2,1,Ticks_Pract_5,39,5,42,127,59834776
92,2,1,Ticks_Pract_5,40,1,48,46,60304520
92,2,1,Ticks_Pract_5,41,5,42,127,60334468
92,2,1,Ticks_Pract_5,42,1,48,40,60818648
92,2,1,Ticks_Pract_5,43,5,42,127,60835284
92,2,1,Ticks_Pract_5,44,1,48,38,61327244
92,2,1,Ticks_Pract_5,45,5,42,127,61334756
92,2,1,Ticks_Pract_5,46,5,42,127,61834456
92,2,1,Ticks_Pract_5,47,1,48,35,61841240
92,2,1,Ticks_Pract_5,48,5,42,127,62335272
92,2,1,Ticks_Pract_5,49,1,48,39,62360760
92,2,1,Ticks_Pract_5,50,5,42,127,62835116
92,2,1,Ticks_Pract_5,51,1,48,42,62890968
92,2,1,Ticks_Pract_5,52,5,42,127,63334808
92,2,1,Ticks_Pract_5,53,1,48,43,63358128
92,2,1,Ticks_Pract_5,54,1,48,46,63834800
92,2,1,Ticks_Pract_5,55,5,42,127,63836140
92,2,1,Ticks_Pract_5,56,1,48,46,64313064
92,2,1,Ticks_Pract_5,57,5,42,127,64335388
92,2,1,Ticks_Pract_5,58,1,48,42,64828392
92,2,1,Ticks_Pract_5,59,5,42,127,64834784
92,2,1,Ticks_Pract_5,60,1,48,17,64923156
92,2,1,Ticks_Pract_5,61,5,42,127,65334612
92,2,1,Ticks_Pract_5,62,1,48,41,65353740
92,2,1,Ticks_Pract_5,63,1,48,43,65824540
92,2,1,Ticks_Pract_5,64,5,42,127,65835572
92,2,1,Ticks_Pract_5,65,1,48,44,66308532
92,2,1,Ticks_Pract_5,66,5,42,127,66335040
92,2,1,Ticks_Pract_5,67,1,48,20,66386908
92,2,1,Ticks_Pract_5,68,5,42,127,66834796
92,2,1,Ticks_Pract_5,69,1,48,35,66842028
92,2,1,Ticks_Pract_5,70,5,42,127,67334416
92,2,1,Ticks_Pract_5,71,1,48,42,67339632
92,2,1,Ticks_Pract_5,72,1,48,38,67802432
92,2,1,Ticks_Pract_5,73,5,42,127,67835524
92,2,1,Ticks_Pract_5,74,1,48,43,68305716
92,2,1,Ticks_Pract_5,75,5,42,127,68334848
92,2,1,Ticks_Pract_5,76,5,42,127,68834548
92,2,1,Ticks_Pract_5,77,1,48,39,68836036
92,2,1,Ticks_Pract_5,78,1,48,43,69324700
92,2,1,Ticks_Pract_5,0,9999,9999,9999,49332336
92,2,1,Ticks_Pract_5,1,9999,9999,9999,49833024
92,2,1,Ticks_Pract_5,2,9999,9999,9999,50332740
92,2,1,Ticks_Pract_5,3,9999,9999,9999,50832460
92,2,1,Ticks_Pract_5,4,9999,9999,9999,51332176
92,2,1,Ticks_Pract_5,5,9999,9999,9999,51832912
92,2,1,Ticks_Pract_5,6,9999,9999,9999,52332612
92,2,1,Ticks_Pract_5,7,9999,9999,9999,52832376
92,2,1,Ticks_Pract_5,8,9999,9999,9999,53333044
92,2,1,Ticks_Pract_5,9,9999,9999,9999,53832816
92,2,1,Ticks_Pract_5,10,9999,9999,9999,54332504
92,2,1,Ticks_Pract_5,11,9999,9999,9999,54832204
92,2,1,Ticks_Pract_5,12,9999,9999,9999,55332948
92,2,1,Ticks_Pract_5,13,9999,9999,9999,55832644
92,2,1,Ticks_Pract_5,14,9999,9999,9999,56332340
92,2,1,Ticks_Pract_5,15,9999,9999,9999,56832104
92,2,1,Ticks_Pract_5,16,9999,9999,9999,57332852
92,2,1,Ticks_Pract_5,17,9999,9999,9999,57832544
92,2,1,Ticks_Pract_5,18,9999,9999,9999,58332240
92,2,1,Ticks_Pract_5,19,9999,9999,9999,58832980
92,2,1,Ticks_Pract_5,20,9999,9999,9999,59332720
92,2,1,Ticks_Pract_5,21,9999,9999,9999,59832416
92,2,1,Ticks_Pract_5,22,9999,9999,9999,60332108
92,2,1,Ticks_Pract_5,23,9999,9999,9999,60832848
92,2,1,Ticks_Pract_5,24,9999,9999,9999,61332544
92,2,1,Ticks_Pract_5,25,9999,9999,9999,61832244
92,2,1,Ticks_Pract_5,26,9999,9999,9999,62332988
92,2,1,Ticks_Pract_5,27,9999,9999,9999,62832756
92,2,1,Ticks_Pract_5,28,9999,9999,9999,63332448
92,2,1,Ticks_Pract_5,29,9999,9999,9999,63832144
92,2,1,Ticks_Pract_5,30,9999,9999,9999,64332880
92,2,1,Ticks_Pract_5,31,9999,9999,9999,64832572
92,2,1,Ticks_Pract_5,32,9999,9999,9999,65332328
92,2,1,Ticks_Pract_5,33,9999,9999,9999,65833060
92,2,1,Ticks_Pract_5,34,9999,9999,9999,66332756
92,2,1,Ticks_Pract_5,35,9999,9999,9999,66832436
92,2,1,Ticks_Pract_5,36,9999,9999,9999,67332204
92,2,1,Ticks_Pract_5,37,9999,9999,9999,67832940
92,2,1,Ticks_Pract_5,38,9999,9999,9999,68332636
92,2,1,Ticks_Pract_5,39,9999,9999,9999,68832336
92,3,2,T1_SMS_8,0,5,42,127,160368016
92,3,2,T1_SMS_8,1,1,48,22,161107368
92,3,2,T1_SMS_8,2,5,42,127,161167688
92,3,2,T1_SMS_8,3,5,42,127,161967428
92,3,2,T1_SMS_8,4,1,48,19,161981988
92,3,2,T1_SMS_8,5,5,42,127,162768232
92,3,2,T1_SMS_8,6,1,48,38,162776060
92,3,2,T1_SMS_8,7,1,48,31,163550424
92,3,2,T1_SMS_8,8,5,42,127,163568184
92,3,2,T1_SMS_8,9,1,48,32,164351948
92,3,2,T1_SMS_8,10,5,42,127,164367620
92,3,2,T1_SMS_8,11,5,42,127,165167360
92,3,2,T1_SMS_8,12,1,48,22,165209524
92,3,2,T1_SMS_8,13,1,48,33,165939452
92,3,2,T1_SMS_8,14,5,42,127,165968284
92,3,2,T1_SMS_8,15,1,48,42,166706200
92,3,2,T1_SMS_8,16,5,42,127,166768092
92,3,2,T1_SMS_8,17,1,48,36,167561432
92,3,2,T1_SMS_8,18,5,42,127,167567824
92,3,2,T1_SMS_8,19,1,48,36,168365444
92,3,2,T1_SMS_8,20,5,42,127,168367336
92,3,2,T1_SMS_8,21,1,48,34,169167924
92,3,2,T1_SMS_8,22,5,42,127,169169412
92,3,2,T1_SMS_8,23,5,42,127,169968032
92,3,2,T1_SMS_8,24,1,48,36,169970476
92,3,2,T1_SMS_8,25,5,42,127,170767988
92,3,2,T1_SMS_8,26,1,48,33,170795860
92,3,2,T1_SMS_8,27,1,48,35,171562224
92,3,2,T1_SMS_8,28,5,42,127,171567492
92,3,2,T1_SMS_8,29,5,42,127,172368204
92,3,2,T1_SMS_8,30,1,48,38,172369172
92,3,2,T1_SMS_8,31,1,48,37,173118904
92,3,2,T1_SMS_8,32,5,42,127,173167932
92,3,2,T1_SMS_8,33,5,42,127,173967972
92,3,2,T1_SMS_8,34,1,48,37,173982908
92,3,2,T1_SMS_8,35,5,42,127,174767404
92,3,2,T1_SMS_8,36,1,48,40,174805104
92,3,2,T1_SMS_8,37,5,42,127,175568436
92,3,2,T1_SMS_8,38,1,48,40,175614484
92,3,2,T1_SMS_8,39,1,48,40,176334024
92,3,2,T1_SMS_8,40,5,42,127,176368012
92,3,2,T1_SMS_8,41,1,48,39,177136592
92,3,2,T1_SMS_8,42,5,42,127,177167972
92,3,2,T1_SMS_8,43,1,48,40,177942616
92,3,2,T1_SMS_8,44,5,42,127,177967408
92,3,2,T1_SMS_8,45,1,48,43,178734268
92,3,2,T1_SMS_8,46,5,42,127,178768112
92,3,2,T1_SMS_8,47,5,42,127,179567924
92,3,2,T1_SMS_8,48,1,48,36,179591688
92,3,2,T1_SMS_8,49,1,48,30,180357892
92,3,2,T1_SMS_8,50,5,42,127,180367800
92,3,2,T1_SMS_8,51,5,42,127,181167464
92,3,2,T1_SMS_8,52,1,48,38,181181508
92,3,2,T1_SMS_8,53,5,42,127,181968196
92,3,2,T1_SMS_8,54,1,48,37,181981192
92,3,2,T1_SMS_8,55,1,48,42,182753228
92,3,2,T1_SMS_8,56,5,42,127,182767852
92,3,2,T1_SMS_8,57,1,48,37,183543464
92,3,2,T1_SMS_8,58,5,42,127,183567660
92,3,2,T1_SMS_8,59,1,48,45,184344992
92,3,2,T1_SMS_8,60,5,42,127,184367692
92,3,2,T1_SMS_8,61,1,48,37,185141956
92,3,2,T1_SMS_8,62,5,42,127,185168324
92,3,2,T1_SMS_8,63,5,42,127,185967840
92,3,2,T1_SMS_8,64,1,48,42,185991380
92,3,2,T1_SMS_8,65,5,42,127,186767720
92,3,2,T1_SMS_8,66,1,48,39,186791780
92,3,2,T1_SMS_8,67,5,42,127,187567676
92,3,2,T1_SMS_8,68,1,48,39,187614280
92,3,2,T1_SMS_8,69,5,42,127,188368260
92,3,2,T1_SMS_8,70,1,48,46,188446248
92,3,2,T1_SMS_8,71,5,42,127,189167920
92,3,2,T1_SMS_8,72,1,48,35,189211276
92,3,2,T1_SMS_8,73,1,48,40,189964692
92,3,2,T1_SMS_8,74,5,42,127,189967796
92,3,2,T1_SMS_8,75,5,42,127,190767536
92,3,2,T1_SMS_8,76,1,48,43,190771400
92,3,2,T1_SMS_8,77,5,42,127,191568164
92,3,2,T1_SMS_8,78,1,48,45,191598580
92,3,2,T1_SMS_8,79,5,42,127,192368048
92,3,2,T1_SMS_8,80,1,48,43,192375796
92,3,2,T1_SMS_8,81,1,48,46,193113956
92,3,2,T1_SMS_8,82,5,42,127,193167848
92,3,2,T1_SMS_8,83,1,48,43,193932236
92,3,2,T1_SMS_8,84,5,42,127,193967580
92,3,2,T1_SMS_8,85,5,42,127,194768092
92,3,2,T1_SMS_8,86,1,48,41,194773156
92,3,2,T1_SMS_8,87,1,48,36,195481440
92,3,2,T1_SMS_8,88,5,42,127,195567968
92,3,2,T1_SMS_8,89,5,42,127,196367784
92,3,2,T1_SMS_8,90,1,48,31,196404932
92,3,2,T1_SMS_8,91,5,42,127,197167592
92,3,2,T1_SMS_8,92,1,48,39,197236008
92,3,2,T1_SMS_8,93,5,42,127,197968152
92,3,2,T1_SMS_8,94,1,48,42,197980768
92,3,2,T1_SMS_8,95,1,48,32,198751832
92,3,2,T1_SMS_8,96,5,42,127,198767952
92,3,2,T1_SMS_8,97,1,48,35,199543864
92,3,2,T1_SMS_8,98,5,42,127,199567760
92,3,2,T1_SMS_8,99,1,48,39,200363940
92,3,2,T1_SMS_8,100,5,42,127,200367568
92,3,2,T1_SMS_8,101,1,48,43,201150588
92,3,2,T1_SMS_8,102,5,42,127,201168520
92,3,2,T1_SMS_8,103,5,42,127,201967964
92,3,2,T1_SMS_8,104,1,48,39,202001528
92,3,2,T1_SMS_8,105,1,48,34,202748432
92,3,2,T1_SMS_8,106,5,42,127,202767688
92,3,2,T1_SMS_8,107,1,48,36,203556392
92,3,2,T1_SMS_8,108,5,42,127,203567648
92,3,2,T1_SMS_8,109,1,48,40,204325828
92,3,2,T1_SMS_8,110,5,42,127,204368204
92,3,2,T1_SMS_8,111,1,48,37,205154136
92,3,2,T1_SMS_8,112,5,42,127,205167936
92,3,2,T1_SMS_8,113,1,48,40,205942428
92,3,2,T1_SMS_8,114,5,42,127,205967672
92,3,2,T1_SMS_8,115,5,42,127,206767708
92,3,2,T1_SMS_8,116,1,48,41,206773216
92,3,2,T1_SMS_8,117,1,48,38,207520428
92,3,2,T1_SMS_8,118,5,42,127,207568356
92,3,2,T1_SMS_8,119,5,42,127,208368096
92,3,2,T1_SMS_8,120,1,48,36,208391264
92,3,2,T1_SMS_8,121,5,42,127,209167684
92,3,2,T1_SMS_8,122,1,48,44,209181048
92,3,2,T1_SMS_8,123,5,42,127,209967640
92,3,2,T1_SMS_8,124,1,48,45,209997088
92,3,2,T1_SMS_8,125,5,42,127,210768268
92,3,2,T1_SMS_8,126,1,48,42,210775352
92,3,2,T1_SMS_8,127,1,48,37,211535424
92,3,2,T1_SMS_8,128,5,42,127,211568072
92,3,2,T1_SMS_8,129,5,42,127,212367736
92,3,2,T1_SMS_8,130,1,48,35,212375644
92,3,2,T1_SMS_8,131,5,42,127,213167396
92,3,2,T1_SMS_8,132,1,48,39,213265532
92,3,2,T1_SMS_8,133,1,48,35,213961204
92,3,2,T1_SMS_8,134,5,42,127,213968196
92,3,2,T1_SMS_8,135,1,48,28,214734012
92,3,2,T1_SMS_8,136,5,42,127,214767928
92,3,2,T1_SMS_8,137,1,48,32,215556560
92,3,2,T1_SMS_8,138,5,42,127,215567736
92,3,2,T1_SMS_8,139,5,42,127,216367404
92,3,2,T1_SMS_8,140,1,48,24,216369416
92,3,2,T1_SMS_8,141,5,42,127,217168332
92,3,2,T1_SMS_8,142,1,48,42,217237124
92,3,2,T1_SMS_8,143,5,42,127,217967844
92,3,2,T1_SMS_8,144,1,48,43,217978440
92,3,2,T1_SMS_8,145,1,48,48,218722204
92,3,2,T1_SMS_8,146,5,42,127,218767716
92,3,2,T1_SMS_8,147,5,42,127,219567532
92,3,2,T1_SMS_8,148,1,48,43,219587280
92,3,2,T1_SMS_8,149,1,48,46,220326532
92,3,2,T1_SMS_8,150,5,42,127,220368404
92,3,2,T1_SMS_8,151,1,48,47,221142824
92,3,2,T1_SMS_8,152,5,42,127,221167992
92,3,2,T1_SMS_8,153,1,48,43,221916308
92,3,2,T1_SMS_8,154,5,42,127,221967652
92,3,2,T1_SMS_8,155,1,48,40,222733988
92,3,2,T1_SMS_8,156,5,42,127,222767608
92,3,2,T1_SMS_8,157,1,48,42,223508216
92,3,2,T1_SMS_8,158,5,42,127,223568460
92,3,2,T1_SMS_8,159,1,48,46,224365244
92,3,2,T1_SMS_8,160,5,42,127,224367900
92,3,2,T1_SMS_8,161,5,42,127,225167712
92,3,2,T1_SMS_8,162,1,48,36,225201424
92,3,2,T1_SMS_8,163,5,42,127,225967372
92,3,2,T1_SMS_8,164,1,48,43,226013448
92,3,2,T1_SMS_8,165,5,42,127,226768396
92,3,2,T1_SMS_8,166,1,48,45,226792084
92,3,2,T1_SMS_8,167,1,48,42,227481224
92,3,2,T1_SMS_8,168,5,42,127,227568200
92,3,2,T1_SMS_8,169,5,42,127,228367640
92,3,2,T1_SMS_8,170,1,48,48,228416160
92,3,2,T1_SMS_8,171,5,42,127,229167448
92,3,2,T1_SMS_8,172,1,48,40,229201384
92,3,2,T1_SMS_8,173,1,48,48,229961760
92,3,2,T1_SMS_8,174,5,42,127,229968224
92,3,2,T1_SMS_8,175,1,48,48,230731496
92,3,2,T1_SMS_8,176,5,42,127,230768256
92,3,2,T1_SMS_8,177,1,48,22,230821324
92,3,2,T1_SMS_8,178,5,42,127,231567752
92,3,2,T1_SMS_8,179,1,48,40,231574536
92,3,2,T1_SMS_8,180,1,48,21,231651656
92,3,2,T1_SMS_8,181,5,42,127,232367464
92,3,2,T1_SMS_8,182,1,48,45,232426176
92,3,2,T1_SMS_8,183,5,42,127,233168120
92,3,2,T1_SMS_8,184,1,48,47,233221276
92,3,2,T1_SMS_8,185,5,42,127,233968224
92,3,2,T1_SMS_8,186,1,48,40,234014500
92,3,2,T1_SMS_8,187,1,48,48,234721320
92,3,2,T1_SMS_8,188,5,42,127,234767652
92,3,2,T1_SMS_8,189,1,48,46,235523964
92,3,2,T1_SMS_8,190,5,42,127,235567612
92,3,2,T1_SMS_8,191,1,48,37,236360428
92,3,2,T1_SMS_8,192,5,42,127,236368244
92,3,2,T1_SMS_8,193,1,48,46,237135028
92,3,2,T1_SMS_8,194,5,42,127,237168200
92,3,2,T1_SMS_8,195,1,48,43,237949276
92,3,2,T1_SMS_8,196,5,42,127,237967636
92,3,2,T1_SMS_8,197,5,42,127,238767372
92,3,2,T1_SMS_8,198,1,48,44,238776924
92,3,2,T1_SMS_8,199,5,42,127,239568252
92,3,2,T1_SMS_8,200,1,48,43,239584156
92,3,2,T1_SMS_8,201,1,48,45,240359944
92,3,2,T1_SMS_8,202,5,42,127,240367904
92,3,2,T1_SMS_8,203,5,42,127,241167720
92,3,2,T1_SMS_8,204,1,48,48,241194172
92,3,2,T1_SMS_8,205,1,48,39,241959556
92,3,2,T1_SMS_8,206,5,42,127,241967448
92,3,2,T1_SMS_8,207,1,48,37,242758540
92,3,2,T1_SMS_8,208,5,42,127,242768224
92,3,2,T1_SMS_8,209,5,42,127,243568116
92,3,2,T1_SMS_8,210,1,48,43,243614464
92,3,2,T1_SMS_8,211,5,42,127,244367700
92,3,2,T1_SMS_8,212,1,48,47,244431056
92,3,2,T1_SMS_8,213,5,42,127,245167356
92,3,2,T1_SMS_8,214,1,48,36,245173088
92,3,2,T1_SMS_8,215,5,42,127,245968236
92,3,2,T1_SMS_8,216,1,48,45,245972176
92,3,2,T1_SMS_8,217,1,48,42,246739208
92,3,2,T1_SMS_8,218,5,42,127,246768036
92,3,2,T1_SMS_8,219,1,48,45,247509544
92,3,2,T1_SMS_8,220,5,42,127,247567920
92,3,2,T1_SMS_8,221,1,48,44,248341436
92,3,2,T1_SMS_8,222,5,42,127,248367432
92,3,2,T1_SMS_8,223,5,42,127,249168292
92,3,2,T1_SMS_8,224,1,48,42,249173652
92,3,2,T1_SMS_8,225,5,42,127,249967876
92,3,2,T1_SMS_8,226,1,48,45,249988944
92,3,2,T1_SMS_8,227,1,48,39,250732712
92,3,2,T1_SMS_8,228,5,42,127,250767676
92,3,2,T1_SMS_8,229,1,48,45,251542844
92,3,2,T1_SMS_8,230,5,42,127,251567488
92,3,2,T1_SMS_8,231,1,48,46,252326492
92,3,2,T1_SMS_8,232,5,42,127,252368292
92,3,2,T1_SMS_8,233,1,48,47,253127596
92,3,2,T1_SMS_8,234,5,42,127,253168100
92,3,2,T1_SMS_8,235,5,42,127,253967840
92,3,2,T1_SMS_8,236,1,48,48,253973724
92,3,2,T1_SMS_8,237,1,48,41,254748380
92,3,2,T1_SMS_8,238,5,42,127,254767340
92,3,2,T1_SMS_8,239,1,48,43,255524552
92,3,2,T1_SMS_8,240,5,42,127,255568268
92,3,2,T1_SMS_8,241,1,48,46,256361012
92,3,2,T1_SMS_8,0,9999,9999,9999,160365648
92,3,2,T1_SMS_8,1,9999,9999,9999,161165396
92,3,2,T1_SMS_8,2,9999,9999,9999,161965136
92,3,2,T1_SMS_8,3,9999,9999,9999,162765940
92,3,2,T1_SMS_8,4,9999,9999,9999,163565668
92,3,2,T1_SMS_8,5,9999,9999,9999,164365404
92,3,2,T1_SMS_8,6,9999,9999,9999,165165140
92,3,2,T1_SMS_8,7,9999,9999,9999,165965916
92,3,2,T1_SMS_8,8,9999,9999,9999,166765652
92,3,2,T1_SMS_8,9,9999,9999,9999,167565384
92,3,2,T1_SMS_8,10,9999,9999,9999,168365156
92,3,2,T1_SMS_8,11,9999,9999,9999,169165932
92,3,2,T1_SMS_8,12,9999,9999,9999,169965664
92,3,2,T1_SMS_8,13,9999,9999,9999,170765400
92,3,2,T1_SMS_8,14,9999,9999,9999,171565128
92,3,2,T1_SMS_8,15,9999,9999,9999,172365912
92,3,2,T1_SMS_8,16,9999,9999,9999,173165640
92,3,2,T1_SMS_8,17,9999,9999,9999,173965380
92,3,2,T1_SMS_8,18,9999,9999,9999,174765112
92,3,2,T1_SMS_8,19,9999,9999,9999,175565920
92,3,2,T1_SMS_8,20,9999,9999,9999,176365648
92,3,2,T1_SMS_8,21,9999,9999,9999,177165380
92,3,2,T1_SMS_8,22,9999,9999,9999,177965116
92,3,2,T1_SMS_8,23,9999,9999,9999,178765896
92,3,2,T1_SMS_8,24,9999,9999,9999,179565632
92,3,2,T1_SMS_8,25,9999,9999,9999,180365360
92,3,2,T1_SMS_8,26,9999,9999,9999,181165176
92,3,2,T1_SMS_8,27,9999,9999,9999,181965904
92,3,2,T1_SMS_8,28,9999,9999,9999,182765636
92,3,2,T1_SMS_8,29,9999,9999,9999,183565368
92,3,2,T1_SMS_8,30,9999,9999,9999,184365104
92,3,2,T1_SMS_8,31,9999,9999,9999,185165880
92,3,2,T1_SMS_8,32,9999,9999,9999,185965624
92,3,2,T1_SMS_8,33,9999,9999,9999,186765428
92,3,2,T1_SMS_8,34,9999,9999,9999,187565164
92,3,2,T1_SMS_8,35,9999,9999,9999,188365896
92,3,2,T1_SMS_8,36,9999,9999,9999,189165628
92,3,2,T1_SMS_8,37,9999,9999,9999,189965428
92,3,2,T1_SMS_8,38,9999,9999,9999,190765168
92,3,2,T1_SMS_8,39,9999,9999,9999,191565872
92,3,2,T1_SMS_8,40,9999,9999,9999,192365680
92,3,2,T1_SMS_8,41,9999,9999,9999,193165408
92,3,2,T1_SMS_8,42,9999,9999,9999,193965140
92,3,2,T1_SMS_8,43,9999,9999,9999,194765876
92,3,2,T1_SMS_8,44,9999,9999,9999,195565676
92,3,2,T1_SMS_8,45,9999,9999,9999,196365416
92,3,2,T1_SMS_8,46,9999,9999,9999,197165152
92,3,2,T1_SMS_8,47,9999,9999,9999,197965932
92,3,2,T1_SMS_8,48,9999,9999,9999,198765660
92,3,2,T1_SMS_8,49,9999,9999,9999,199565392
92,3,2,T1_SMS_8,50,9999,9999,9999,200365128
92,3,2,T1_SMS_8,51,9999,9999,9999,201165932
92,3,2,T1_SMS_8,52,9999,9999,9999,201965672
92,3,2,T1_SMS_8,53,9999,9999,9999,202765400
92,3,2,T1_SMS_8,54,9999,9999,9999,203565132
92,3,2,T1_SMS_8,55,9999,9999,9999,204365912
92,3,2,T1_SMS_8,56,9999,9999,9999,205165644
92,3,2,T1_SMS_8,57,9999,9999,9999,205965380
92,3,2,T1_SMS_8,58,9999,9999,9999,206765120
92,3,2,T1_SMS_8,59,9999,9999,9999,207565916
92,3,2,T1_SMS_8,60,9999,9999,9999,208365656
92,3,2,T1_SMS_8,61,9999,9999,9999,209165392
92,3,2,T1_SMS_8,62,9999,9999,9999,209965124
92,3,2,T1_SMS_8,63,9999,9999,9999,210765904
92,3,2,T1_SMS_8,64,9999,9999,9999,211565632
92,3,2,T1_SMS_8,65,9999,9999,9999,212365372
92,3,2,T1_SMS_8,66,9999,9999,9999,213165104
92,3,2,T1_SMS_8,67,9999,9999,9999,213965904
92,3,2,T1_SMS_8,68,9999,9999,9999,214765636
92,3,2,T1_SMS_8,69,9999,9999,9999,215565372
92,3,2,T1_SMS_8,70,9999,9999,9999,216365112
92,3,2,T1_SMS_8,71,9999,9999,9999,217165892
92,3,2,T1_SMS_8,72,9999,9999,9999,217965624
92,3,2,T1_SMS_8,73,9999,9999,9999,218765428
92,3,2,T1_SMS_8,74,9999,9999,9999,219565168
92,3,2,T1_SMS_8,75,9999,9999,9999,220365892
92,3,2,T1_SMS_8,76,9999,9999,9999,221165628
92,3,2,T1_SMS_8,77,9999,9999,9999,221965360
92,3,2,T1_SMS_8,78,9999,9999,9999,222765168
92,3,2,T1_SMS_8,79,9999,9999,9999,223565872
92,3,2,T1_SMS_8,80,9999,9999,9999,224365680
92,3,2,T1_SMS_8,81,9999,9999,9999,225165420
92,3,2,T1_SMS_8,82,9999,9999,9999,225965152
92,3,2,T1_SMS_8,83,9999,9999,9999,226765884
92,3,2,T1_SMS_8,84,9999,9999,9999,227565684
92,3,2,T1_SMS_8,85,9999,9999,9999,228365424
92,3,2,T1_SMS_8,86,9999,9999,9999,229165156
92,3,2,T1_SMS_8,87,9999,9999,9999,229965932
92,3,2,T1_SMS_8,88,9999,9999,9999,230765664
92,3,2,T1_SMS_8,89,9999,9999,9999,231565384
92,3,2,T1_SMS_8,90,9999,9999,9999,232365172
92,3,2,T1_SMS_8,91,9999,9999,9999,233165900
92,3,2,T1_SMS_8,92,9999,9999,9999,233965636
92,3,2,T1_SMS_8,93,9999,9999,9999,234765360
92,3,2,T1_SMS_8,94,9999,9999,9999,235565172
92,3,2,T1_SMS_8,95,9999,9999,9999,236365876
92,3,2,T1_SMS_8,96,9999,9999,9999,237165684
92,3,2,T1_SMS_8,97,9999,9999,9999,237965416
92,3,2,T1_SMS_8,98,9999,9999,9999,238765156
92,3,2,T1_SMS_8,99,9999,9999,9999,239565888
92,3,2,T1_SMS_8,100,9999,9999,9999,240365616
92,3,2,T1_SMS_8,101,9999,9999,9999,241165428
92,3,2,T1_SMS_8,102,9999,9999,9999,241965156
92,3,2,T1_SMS_8,103,9999,9999,9999,242765932
92,3,2,T1_SMS_8,104,9999,9999,9999,243565672
92,3,2,T1_SMS_8,105,9999,9999,9999,244365408
92,3,2,T1_SMS_8,106,9999,9999,9999,245165140
92,3,2,T1_SMS_8,107,9999,9999,9999,245965868
92,3,2,T1_SMS_8,108,9999,9999,9999,246765672
92,3,2,T1_SMS_8,109,9999,9999,9999,247565404
92,3,2,T1_SMS_8,110,9999,9999,9999,248365140
92,3,2,T1_SMS_8,111,9999,9999,9999,249165924
92,3,2,T1_SMS_8,112,9999,9999,9999,249965660
92,3,2,T1_SMS_8,113,9999,9999,9999,250765384
92,3,2,T1_SMS_8,114,9999,9999,9999,251565120
92,3,2,T1_SMS_8,115,9999,9999,9999,252365924
92,3,2,T1_SMS_8,116,9999,9999,9999,253165660
92,3,2,T1_SMS_8,117,9999,9999,9999,253965400
92,3,2,T1_SMS_8,118,9999,9999,9999,254765124
92,3,2,T1_SMS_8,119,9999,9999,9999,255565904
92,4,4,T1_SMS_5,0,5,42,127,350081672
92,4,4,T1_SMS_5,1,5,42,127,350581092
92,4,4,T1_SMS_5,2,5,42,127,351080808
92,4,4,T1_SMS_5,3,1,48,37,351142944
92,4,4,T1_SMS_5,4,5,42,127,351580580
92,4,4,T1_SMS_5,5,1,48,40,351598208
92,4,4,T1_SMS_5,6,1,48,41,352072228
92,4,4,T1_SMS_5,7,5,42,127,352081460
92,4,4,T1_SMS_5,8,5,42,127,352581088
92,4,4,T1_SMS_5,9,1,48,44,352603880
92,4,4,T1_SMS_5,10,5,42,127,353080560
92,4,4,T1_SMS_5,11,1,48,42,353096240
92,4,4,T1_SMS_5,12,1,48,39,353577300
92,4,4,T1_SMS_5,13,5,42,127,353581740
92,4,4,T1_SMS_5,14,5,42,127,354081220
92,4,4,T1_SMS_5,15,1,48,40,354085912
92,4,4,T1_SMS_5,16,1,48,35,354576236
92,4,4,T1_SMS_5,17,5,42,127,354580836
92,4,4,T1_SMS_5,18,1,48,28,355053344
92,4,4,T1_SMS_5,19,5,42,127,355080532
92,4,4,T1_SMS_5,20,5,42,127,355581580
92,4,4,T1_SMS_5,21,1,48,34,355595620
92,4,4,T1_SMS_5,22,5,42,127,356080900
92,4,4,T1_SMS_5,23,1,48,32,356113188
92,4,4,T1_SMS_5,24,1,48,29,356569636
92,4,4,T1_SMS_5,25,5,42,127,356580592
92,4,4,T1_SMS_5,26,1,48,35,357079612
92,4,4,T1_SMS_5,27,5,42,127,357081184
92,4,4,T1_SMS_5,28,1,48,38,357571792
92,4,4,T1_SMS_5,29,5,42,127,357581396
92,4,4,T1_SMS_5,30,5,42,127,358080804
92,4,4,T1_SMS_5,31,1,48,38,358102544
92,4,4,T1_SMS_5,32,5,42,127,358580548
92,4,4,T1_SMS_5,33,1,48,36,358598204
92,4,4,T1_SMS_5,34,5,42,127,359081588
92,4,4,T1_SMS_5,35,1,48,35,359091516
92,4,4,T1_SMS_5,36,1,48,29,359572340
92,4,4,T1_SMS_5,37,5,42,127,359580908
92,4,4,T1_SMS_5,38,5,42,127,360080832
92,4,4,T1_SMS_5,39,1,48,30,360099212
92,4,4,T1_SMS_5,40,5,42,127,360580452
92,4,4,T1_SMS_5,41,1,48,32,360607580
92,4,4,T1_SMS_5,42,1,48,30,361081564
92,4,4,T1_SMS_5,43,5,42,127,361082908
92,4,4,T1_SMS_5,44,1,48,29,361539108
92,4,4,T1_SMS_5,45,5,42,127,361580880
92,4,4,T1_SMS_5,46,5,42,127,362080584
92,4,4,T1_SMS_5,47,1,48,35,362096488
92,4,4,T1_SMS_5,48,1,48,31,362545604
92,4,4,T1_SMS_5,49,5,42,127,362581540
92,4,4,T1_SMS_5,50,5,42,127,363081092
92,4,4,T1_SMS_5,51,1,48,31,363087800
92,4,4,T1_SMS_5,52,5,42,127,363580712
92,4,4,T1_SMS_5,53,1,48,31,363583908
92,4,4,T1_SMS_5,54,5,42,127,364080484
92,4,4,T1_SMS_5,55,1,48,35,364097436
92,4,4,T1_SMS_5,56,1,48,31,364565852
92,4,4,T1_SMS_5,57,5,42,127,364581368
92,4,4,T1_SMS_5,58,1,48,33,365059416
92,4,4,T1_SMS_5,59,5,42,127,365081064
92,4,4,T1_SMS_5,60,1,48,30,365543176
92,4,4,T1_SMS_5,61,5,42,127,365580832
92,4,4,T1_SMS_5,62,1,48,29,366076528
92,4,4,T1_SMS_5,63,5,42,127,366081352
92,4,4,T1_SMS_5,64,5,42,127,366581204
92,4,4,T1_SMS_5,65,1,48,26,366603768
92,4,4,T1_SMS_5,66,1,48,27,367051312
92,4,4,T1_SMS_5,67,5,42,127,367080668
92,4,4,T1_SMS_5,68,1,48,27,367574492
92,4,4,T1_SMS_5,69,5,42,127,367580512
92,4,4,T1_SMS_5,70,1,48,31,368065812
92,4,4,T1_SMS_5,71,5,42,127,368081404
92,4,4,T1_SMS_5,72,1,48,29,368567432
92,4,4,T1_SMS_5,73,5,42,127,368581100
92,4,4,T1_SMS_5,74,1,48,28,369070860
92,4,4,T1_SMS_5,75,5,42,127,369080544
92,4,4,T1_SMS_5,76,1,48,35,369573696
92,4,4,T1_SMS_5,77,5,42,127,369581360
92,4,4,T1_SMS_5,78,1,48,28,370049088
92,4,4,T1_SMS_5,79,5,42,127,370081204
92,4,4,T1_SMS_5,80,5,42,127,370580980
92,4,4,T1_SMS_5,81,1,48,31,370587768
92,4,4,T1_SMS_5,82,5,42,127,371080528
92,4,4,T1_SMS_5,83,1,48,35,371118052
92,4,4,T1_SMS_5,84,1,48,32,371578312
92,4,4,T1_SMS_5,85,5,42,127,371581336
92,4,4,T1_SMS_5,86,5,42,127,372080888
92,4,4,T1_SMS_5,87,1,48,32,372092984
92,4,4,T1_SMS_5,88,1,48,33,372573288
92,4,4,T1_SMS_5,89,5,42,127,372580652
92,4,4,T1_SMS_5,90,1,48,35,373072680
92,4,4,T1_SMS_5,91,5,42,127,373080568
92,4,4,T1_SMS_5,92,5,42,127,373581172
92,4,4,T1_SMS_5,93,1,48,32,373586308
92,4,4,T1_SMS_5,94,5,42,127,374080792
92,4,4,T1_SMS_5,95,1,48,36,374089592
92,4,4,T1_SMS_5,96,1,48,39,374578124
92,4,4,T1_SMS_5,97,5,42,127,374580556
92,4,4,T1_SMS_5,98,1,48,35,375071312
92,4,4,T1_SMS_5,99,5,42,127,375081444
92,4,4,T1_SMS_5,100,1,48,33,375567268
92,4,4,T1_SMS_5,101,5,42,127,375581216
92,4,4,T1_SMS_5,102,1,48,29,376066220
92,4,4,T1_SMS_5,103,5,42,127,376080688
92,4,4,T1_SMS_5,104,1,48,33,376544744
92,4,4,T1_SMS_5,105,5,42,127,376580384
92,4,4,T1_SMS_5,106,5,42,127,377081352
92,4,4,T1_SMS_5,107,1,48,32,377115664
92,4,4,T1_SMS_5,108,5,42,127,377580824
92,4,4,T1_SMS_5,109,1,48,32,377603616
92,4,4,T1_SMS_5,110,1,48,29,378052132
92,4,4,T1_SMS_5,111,5,42,127,378080516
92,4,4,T1_SMS_5,112,5,42,127,378581260
92,4,4,T1_SMS_5,113,1,48,31,378605096
92,4,4,T1_SMS_5,114,1,48,33,379069772
92,4,4,T1_SMS_5,115,5,42,127,379081172
92,4,4,T1_SMS_5,116,5,42,127,379580876
92,4,4,T1_SMS_5,117,1,48,29,379597236
92,4,4,T1_SMS_5,118,1,48,31,380045048
92,4,4,T1_SMS_5,119,5,42,127,380080388
92,4,4,T1_SMS_5,120,5,42,127,380581212
92,4,4,T1_SMS_5,121,1,48,36,380608068
92,4,4,T1_SMS_5,122,5,42,127,381081056
92,4,4,T1_SMS_5,123,1,48,25,381093672
92,4,4,T1_SMS_5,124,1,48,34,381562236
92,4,4,T1_SMS_5,125,5,42,127,381580520
92,4,4,T1_SMS_5,126,1,48,29,382063424
92,4,4,T1_SMS_5,127,5,42,127,382081412
92,4,4,T1_SMS_5,128,5,42,127,382581188
92,4,4,T1_SMS_5,129,1,48,29,382610636
92,4,4,T1_SMS_5,130,5,42,127,383080880
92,4,4,T1_SMS_5,131,1,48,27,383102624
92,4,4,T1_SMS_5,132,1,48,30,383572604
92,4,4,T1_SMS_5,133,5,42,127,383580572
92,4,4,T1_SMS_5,134,5,42,127,384081244
92,4,4,T1_SMS_5,135,1,48,31,384088776
92,4,4,T1_SMS_5,136,1,48,35,384560480
92,4,4,T1_SMS_5,137,5,42,127,384581080
92,4,4,T1_SMS_5,138,5,42,127,385080632
92,4,4,T1_SMS_5,139,1,48,33,385097664
92,4,4,T1_SMS_5,140,5,42,127,385581376
92,4,4,T1_SMS_5,141,1,48,31,385585540
92,4,4,T1_SMS_5,142,1,48,30,386065624
92,4,4,T1_SMS_5,143,5,42,127,386081140
92,4,4,T1_SMS_5,144,5,42,127,386581064
92,4,4,T1_SMS_5,145,1,48,34,386596372
92,4,4,T1_SMS_5,146,5,42,127,387080460
92,4,4,T1_SMS_5,147,1,48,31,387103620
92,4,4,T1_SMS_5,148,1,48,34,387576076
92,4,4,T1_SMS_5,149,5,42,127,387581272
92,4,4,T1_SMS_5,150,1,48,31,388075992
92,4,4,T1_SMS_5,151,5,42,127,388081040
92,4,4,T1_SMS_5,152,1,48,30,388567092
92,4,4,T1_SMS_5,153,5,42,127,388580588
92,4,4,T1_SMS_5,154,1,48,33,389051072
92,4,4,T1_SMS_5,155,5,42,127,389080280
92,4,4,T1_SMS_5,156,1,48,33,389580128
92,4,4,T1_SMS_5,157,5,42,127,389581616
92,4,4,T1_SMS_5,158,1,48,24,390063532
92,4,4,T1_SMS_5,159,5,42,127,390081164
92,4,4,T1_SMS_5,160,1,48,34,390561280
92,4,4,T1_SMS_5,161,5,42,127,390580612
92,4,4,T1_SMS_5,162,1,48,29,391053644
92,4,4,T1_SMS_5,163,5,42,127,391081352
92,4,4,T1_SMS_5,164,1,48,31,391574504
92,4,4,T1_SMS_5,165,5,42,127,391581200
92,4,4,T1_SMS_5,166,1,48,31,392058272
92,4,4,T1_SMS_5,167,5,42,127,392081116
92,4,4,T1_SMS_5,168,1,48,30,392564772
92,4,4,T1_SMS_5,169,5,42,127,392580512
92,4,4,T1_SMS_5,170,1,48,31,393050104
92,4,4,T1_SMS_5,171,5,42,127,393081180
92,4,4,T1_SMS_5,172,5,42,127,393581180
92,4,4,T1_SMS_5,173,1,48,29,393586392
92,4,4,T1_SMS_5,174,1,48,32,394070216
92,4,4,T1_SMS_5,175,5,42,127,394080496
92,4,4,T1_SMS_5,176,1,48,29,394572156
92,4,4,T1_SMS_5,177,5,42,127,394581240
92,4,4,T1_SMS_5,178,1,48,28,395064140
92,4,4,T1_SMS_5,179,5,42,127,395081232
92,4,4,T1_SMS_5,180,1,48,29,395577828
92,4,4,T1_SMS_5,181,5,42,127,395580928
92,4,4,T1_SMS_5,182,1,48,29,396060692
92,4,4,T1_SMS_5,183,5,42,127,396080472
92,4,4,T1_SMS_5,184,1,48,29,396541688
92,4,4,T1_SMS_5,185,5,42,127,396581216
92,4,4,T1_SMS_5,186,1,48,28,397080844
92,4,4,T1_SMS_5,187,5,42,127,397082256
92,4,4,T1_SMS_5,188,1,48,31,397563072
92,4,4,T1_SMS_5,189,5,42,127,397580904
92,4,4,T1_SMS_5,190,1,48,28,398061944
92,4,4,T1_SMS_5,191,5,42,127,398081276
92,4,4,T1_SMS_5,192,1,48,34,398563204
92,4,4,T1_SMS_5,193,5,42,127,398581116
92,4,4,T1_SMS_5,194,1,48,31,399053400
92,4,4,T1_SMS_5,195,5,42,127,399081184
92,4,4,T1_SMS_5,196,1,48,29,399571348
92,4,4,T1_SMS_5,197,5,42,127,399580432
92,4,4,T1_SMS_5,198,1,48,32,400073884
92,4,4,T1_SMS_5,199,5,42,127,400081248
92,4,4,T1_SMS_5,200,1,48,30,400562632
92,4,4,T1_SMS_5,201,5,42,127,400581016
92,4,4,T1_SMS_5,202,1,48,29,401055820
92,4,4,T1_SMS_5,203,5,42,127,401080612
92,4,4,T1_SMS_5,204,1,48,33,401551248
92,4,4,T1_SMS_5,205,5,42,127,401581280
92,4,4,T1_SMS_5,206,1,48,31,402068000
92,4,4,T1_SMS_5,207,5,42,127,402081048
92,4,4,T1_SMS_5,208,1,48,33,402557300
92,4,4,T1_SMS_5,209,5,42,127,402581116
92,4,4,T1_SMS_5,210,5,42,127,403080444
92,4,4,T1_SMS_5,211,1,48,31,403087976
92,4,4,T1_SMS_5,212,1,48,31,403554140
92,4,4,T1_SMS_5,213,5,42,127,403581256
92,4,4,T1_SMS_5,214,5,42,127,404081028
92,4,4,T1_SMS_5,215,1,48,29,404123488
92,4,4,T1_SMS_5,216,5,42,127,404580724
92,4,4,T1_SMS_5,217,1,48,33,404588932
92,4,4,T1_SMS_5,218,5,42,127,405080416
92,4,4,T1_SMS_5,219,1,48,32,405103656
92,4,4,T1_SMS_5,220,1,48,30,405547164
92,4,4,T1_SMS_5,221,5,42,127,405581300
92,4,4,T1_SMS_5,222,5,42,127,406080852
92,4,4,T1_SMS_5,223,1,48,30,406081820
92,4,4,T1_SMS_5,224,5,42,127,406580548
92,4,4,T1_SMS_5,225,1,48,32,406581512
92,4,4,T1_SMS_5,226,5,42,127,407081216
92,4,4,T1_SMS_5,227,1,48,26,407104376
92,4,4,T1_SMS_5,228,5,42,127,407580984
92,4,4,T1_SMS_5,229,1,48,33,407595248
92,4,4,T1_SMS_5,230,1,48,20,408054908
92,4,4,T1_SMS_5,231,5,42,127,408080672
92,4,4,T1_SMS_5,232,5,42,127,408580376
92,4,4,T1_SMS_5,233,1,48,39,408598832
92,4,4,T1_SMS_5,234,1,48,30,409071656
92,4,4,T1_SMS_5,235,5,42,127,409081188
92,4,4,T1_SMS_5,236,5,42,127,409580888
92,4,4,T1_SMS_5,237,1,48,32,409597324
92,4,4,T1_SMS_5,238,5,42,127,410080584
92,4,4,T1_SMS_5,239,1,48,28,410095820
92,4,4,T1_SMS_5,240,1,48,37,410574552
92,4,4,T1_SMS_5,241,5,42,127,410581392
92,4,4,T1_SMS_5,242,5,42,127,411081020
92,4,4,T1_SMS_5,243,1,48,29,411082508
92,4,4,T1_SMS_5,244,5,42,127,411580868
92,4,4,T1_SMS_5,245,1,48,29,411597152
92,4,4,T1_SMS_5,246,5,42,127,412080460
92,4,4,T1_SMS_5,247,1,48,33,412081352
92,4,4,T1_SMS_5,248,1,48,30,412551840
92,4,4,T1_SMS_5,249,5,42,127,412581272
92,4,4,T1_SMS_5,250,1,48,28,413042184
92,4,4,T1_SMS_5,251,5,42,127,413080816
92,4,4,T1_SMS_5,252,5,42,127,413580592
92,4,4,T1_SMS_5,253,1,48,25,413585580
92,4,4,T1_SMS_5,254,5,42,127,414081260
92,4,4,T1_SMS_5,255,1,48,29,414084380
92,4,4,T1_SMS_5,256,1,48,28,414568272
92,4,4,T1_SMS_5,257,5,42,127,414581168
92,4,4,T1_SMS_5,258,1,48,29,415076496
92,4,4,T1_SMS_5,0,9999,9999,9999,350079088
92,4,4,T1_SMS_5,1,9999,9999,9999,350578804
92,4,4,T1_SMS_5,2,9999,9999,9999,351078448
92,4,4,T1_SMS_5,3,9999,9999,9999,351578216
92,4,4,T1_SMS_5,4,9999,9999,9999,352078952
92,4,4,T1_SMS_5,5,9999,9999,9999,352578656
92,4,4,T1_SMS_5,6,9999,9999,9999,353078348
92,4,4,T1_SMS_5,7,9999,9999,9999,353579084
92,4,4,T1_SMS_5,8,9999,9999,9999,354078788
92,4,4,T1_SMS_5,9,9999,9999,9999,354578552
92,4,4,T1_SMS_5,10,9999,9999,9999,355078248
92,4,4,T1_SMS_5,11,9999,9999,9999,355578996
92,4,4,T1_SMS_5,12,9999,9999,9999,356078688
92,4,4,T1_SMS_5,13,9999,9999,9999,356578380
92,4,4,T1_SMS_5,14,9999,9999,9999,357078080
92,4,4,T1_SMS_5,15,9999,9999,9999,357578816
92,4,4,T1_SMS_5,16,9999,9999,9999,358078516
92,4,4,T1_SMS_5,17,9999,9999,9999,358578260
92,4,4,T1_SMS_5,18,9999,9999,9999,359079004
92,4,4,T1_SMS_5,19,9999,9999,9999,359578696
92,4,4,T1_SMS_5,20,9999,9999,9999,360078396
92,4,4,T1_SMS_5,21,9999,9999,9999,360578164
92,4,4,T1_SMS_5,22,9999,9999,9999,361078904
92,4,4,T1_SMS_5,23,9999,9999,9999,361578592
92,4,4,T1_SMS_5,24,9999,9999,9999,362078296
92,4,4,T1_SMS_5,25,9999,9999,9999,362579032
92,4,4,T1_SMS_5,26,9999,9999,9999,363078732
92,4,4,T1_SMS_5,27,9999,9999,9999,363578428
92,4,4,T1_SMS_5,28,9999,9999,9999,364078196
92,4,4,T1_SMS_5,29,9999,9999,9999,364578932
92,4,4,T1_SMS_5,30,9999,9999,9999,365078628
92,4,4,T1_SMS_5,31,9999,9999,9999,365578324
92,4,4,T1_SMS_5,32,9999,9999,9999,366079064
92,4,4,T1_SMS_5,33,9999,9999,9999,366578768
92,4,4,T1_SMS_5,34,9999,9999,9999,367078456
92,4,4,T1_SMS_5,35,9999,9999,9999,367578224
92,4,4,T1_SMS_5,36,9999,9999,9999,368078968
92,4,4,T1_SMS_5,37,9999,9999,9999,368578664
92,4,4,T1_SMS_5,38,9999,9999,9999,369078332
92,4,4,T1_SMS_5,39,9999,9999,9999,369579076
92,4,4,T1_SMS_5,40,9999,9999,9999,370078772
92,4,4,T1_SMS_5,41,9999,9999,9999,370578544
92,4,4,T1_SMS_5,42,9999,9999,9999,371078240
92,4,4,T1_SMS_5,43,9999,9999,9999,371578976
92,4,4,T1_SMS_5,44,9999,9999,9999,372078676
92,4,4,T1_SMS_5,45,9999,9999,9999,372578364
92,4,4,T1_SMS_5,46,9999,9999,9999,373078136
92,4,4,T1_SMS_5,47,9999,9999,9999,373578808
92,4,4,T1_SMS_5,48,9999,9999,9999,374078580
92,4,4,T1_SMS_5,49,9999,9999,9999,374578268
92,4,4,T1_SMS_5,50,9999,9999,9999,375079008
92,4,4,T1_SMS_5,51,9999,9999,9999,375578708
92,4,4,T1_SMS_5,52,9999,9999,9999,376078400
92,4,4,T1_SMS_5,53,9999,9999,9999,376578096
92,4,4,T1_SMS_5,54,9999,9999,9999,377078844
92,4,4,T1_SMS_5,55,9999,9999,9999,377578612
92,4,4,T1_SMS_5,56,9999,9999,9999,378078304
92,4,4,T1_SMS_5,57,9999,9999,9999,378579048
92,4,4,T1_SMS_5,58,9999,9999,9999,379078740
92,4,4,T1_SMS_5,59,9999,9999,9999,379578488
92,4,4,T1_SMS_5,60,9999,9999,9999,380078176
92,4,4,T1_SMS_5,61,9999,9999,9999,380578924
92,4,4,T1_SMS_5,62,9999,9999,9999,381078620
92,4,4,T1_SMS_5,63,9999,9999,9999,381578308
92,4,4,T1_SMS_5,64,9999,9999,9999,382079052
92,4,4,T1_SMS_5,65,9999,9999,9999,382578752
92,4,4,T1_SMS_5,66,9999,9999,9999,383078520
92,4,4,T1_SMS_5,67,9999,9999,9999,383578208
92,4,4,T1_SMS_5,68,9999,9999,9999,384078956
92,4,4,T1_SMS_5,69,9999,9999,9999,384578644
92,4,4,T1_SMS_5,70,9999,9999,9999,385078348
92,4,4,T1_SMS_5,71,9999,9999,9999,385579088
92,4,4,T1_SMS_5,72,9999,9999,9999,386078780
92,4,4,T1_SMS_5,73,9999,9999,9999,386578552
92,4,4,T1_SMS_5,74,9999,9999,9999,387078248
92,4,4,T1_SMS_5,75,9999,9999,9999,387578984
92,4,4,T1_SMS_5,76,9999,9999,9999,388078680
92,4,4,T1_SMS_5,77,9999,9999,9999,388578376
92,4,4,T1_SMS_5,78,9999,9999,9999,389078068
92,4,4,T1_SMS_5,79,9999,9999,9999,389578816
92,4,4,T1_SMS_5,80,9999,9999,9999,390078580
92,4,4,T1_SMS_5,81,9999,9999,9999,390578252
92,4,4,T1_SMS_5,82,9999,9999,9999,391078992
92,4,4,T1_SMS_5,83,9999,9999,9999,391578688
92,4,4,T1_SMS_5,84,9999,9999,9999,392078456
92,4,4,T1_SMS_5,85,9999,9999,9999,392578152
92,4,4,T1_SMS_5,86,9999,9999,9999,393078896
92,4,4,T1_SMS_5,87,9999,9999,9999,393578596
92,4,4,T1_SMS_5,88,9999,9999,9999,394078284
92,4,4,T1_SMS_5,89,9999,9999,9999,394579028
92,4,4,T1_SMS_5,90,9999,9999,9999,395078724
92,4,4,T1_SMS_5,91,9999,9999,9999,395578416
92,4,4,T1_SMS_5,92,9999,9999,9999,396078184
92,4,4,T1_SMS_5,93,9999,9999,9999,396578928
92,4,4,T1_SMS_5,94,9999,9999,9999,397078632
92,4,4,T1_SMS_5,95,9999,9999,9999,397578320
92,4,4,T1_SMS_5,96,9999,9999,9999,398079064
92,4,4,T1_SMS_5,97,9999,9999,9999,398578756
92,4,4,T1_SMS_5,98,9999,9999,9999,399078452
92,4,4,T1_SMS_5,99,9999,9999,9999,399578220
92,4,4,T1_SMS_5,100,9999,9999,9999,400078964
92,4,4,T1_SMS_5,101,9999,9999,9999,400578656
92,4,4,T1_SMS_5,102,9999,9999,9999,401078324
92,4,4,T1_SMS_5,103,9999,9999,9999,401579068
92,4,4,T1_SMS_5,104,9999,9999,9999,402078836
92,4,4,T1_SMS_5,105,9999,9999,9999,402578532
92,4,4,T1_SMS_5,106,9999,9999,9999,403078232
92,4,4,T1_SMS_5,107,9999,9999,9999,403578968
92,4,4,T1_SMS_5,108,9999,9999,9999,404078668
92,4,4,T1_SMS_5,109,9999,9999,9999,404578364
92,4,4,T1_SMS_5,110,9999,9999,9999,405078132
92,4,4,T1_SMS_5,111,9999,9999,9999,405578864
92,4,4,T1_SMS_5,112,9999,9999,9999,406078568
92,4,4,T1_SMS_5,113,9999,9999,9999,406578260
92,4,4,T1_SMS_5,114,9999,9999,9999,407079004
92,4,4,T1_SMS_5,115,9999,9999,9999,407578696
92,4,4,T1_SMS_5,116,9999,9999,9999,408078388
92,4,4,T1_SMS_5,117,9999,9999,9999,408578164
92,4,4,T1_SMS_5,118,9999,9999,9999,409078900
92,4,4,T1_SMS_5,119,9999,9999,9999,409578604
92,4,4,T1_SMS_5,120,9999,9999,9999,410078300
92,4,4,T1_SMS_5,121,9999,9999,9999,410579032
92,4,4,T1_SMS_5,122,9999,9999,9999,411078736
92,4,4,T1_SMS_5,123,9999,9999,9999,411578432
92,4,4,T1_SMS_5,124,9999,9999,9999,412078176
92,4,4,T1_SMS_5,125,9999,9999,9999,412578912
92,4,4,T1_SMS_5,126,9999,9999,9999,413078604
92,4,4,T1_SMS_5,127,9999,9999,9999,413578304
92,4,4,T1_SMS_5,128,9999,9999,9999,414079048
92,4,4,T1_SMS_5,129,9999,9999,9999,414578808
92,5,22,Ticks_Phase_8,0,5,42,127,426412504
92,5,22,Ticks_Phase_8,1,5,42,127,427212260
92,5,22,Ticks_Phase_8,2,1,48,21,427947000
92,5,22,Ticks_Phase_8,3,5,42,127,428011840
92,5,22,Ticks_Phase_8,4,5,42,127,428811556
92,5,22,Ticks_Phase_8,5,1,48,18,428847400
92,5,22,Ticks_Phase_8,6,5,42,127,429612688
92,5,22,Ticks_Phase_8,7,1,48,27,429674444
92,5,22,Ticks_Phase_8,8,1,48,27,430406144
92,5,22,Ticks_Phase_8,9,5,42,127,430412096
92,5,22,Ticks_Phase_8,10,1,48,29,431197248
92,5,22,Ticks_Phase_8,11,5,42,127,431211808
92,5,22,Ticks_Phase_8,12,1,48,28,431968196
92,5,22,Ticks_Phase_8,13,5,42,127,432011516
92,5,22,Ticks_Phase_8,14,1,48,28,432773752
92,5,22,Ticks_Phase_8,15,5,42,127,432812648
92,5,22,Ticks_Phase_8,16,1,48,27,433598048
92,5,22,Ticks_Phase_8,17,5,42,127,433612088
92,5,22,Ticks_Phase_8,18,1,48,32,434401960
92,5,22,Ticks_Phase_8,19,5,42,127,434412024
92,5,22,Ticks_Phase_8,20,1,48,26,435187064
92,5,22,Ticks_Phase_8,21,5,42,127,435211512
92,5,22,Ticks_Phase_8,22,1,48,30,435984156
92,5,22,Ticks_Phase_8,23,5,42,127,436012568
92,5,22,Ticks_Phase_8,24,1,48,33,436789028
92,5,22,Ticks_Phase_8,25,5,42,127,436812576
92,5,22,Ticks_Phase_8,26,5,42,127,437611772
92,5,22,Ticks_Phase_8,27,1,48,31,437612740
92,5,22,Ticks_Phase_8,28,1,48,26,438385908
92,5,22,Ticks_Phase_8,29,5,42,127,438411776
92,5,22,Ticks_Phase_8,30,1,48,31,439159404
92,5,22,Ticks_Phase_8,31,5,42,127,439212384
92,5,22,Ticks_Phase_8,32,1,48,28,439989608
92,5,22,Ticks_Phase_8,33,5,42,127,440012344
92,5,22,Ticks_Phase_8,34,1,48,30,440789628
92,5,22,Ticks_Phase_8,35,5,42,127,440811832
92,5,22,Ticks_Phase_8,36,1,48,33,441573548
92,5,22,Ticks_Phase_8,37,5,42,127,441611620
92,5,22,Ticks_Phase_8,38,1,48,30,442394976
92,5,22,Ticks_Phase_8,39,5,42,127,442412376
92,5,22,Ticks_Phase_8,40,1,48,30,443197376
92,5,22,Ticks_Phase_8,41,5,42,127,443212092
92,5,22,Ticks_Phase_8,42,1,48,36,443985704
92,5,22,Ticks_Phase_8,43,5,42,127,444011876
92,5,22,Ticks_Phase_8,44,1,48,35,444779580
92,5,22,Ticks_Phase_8,45,5,42,127,444811740
92,5,22,Ticks_Phase_8,46,1,48,36,445598160
92,5,22,Ticks_Phase_8,47,5,42,127,445612348
92,5,22,Ticks_Phase_8,48,1,48,34,446372492
92,5,22,Ticks_Phase_8,49,5,42,127,446412160
92,5,22,Ticks_Phase_8,50,1,48,26,447175220
92,5,22,Ticks_Phase_8,51,5,42,127,447211872
92,5,22,Ticks_Phase_8,52,5,42,127,448011740
92,5,22,Ticks_Phase_8,53,1,48,27,448025940
92,5,22,Ticks_Phase_8,54,5,42,127,448812276
92,5,22,Ticks_Phase_8,55,1,48,34,448832772
92,5,22,Ticks_Phase_8,56,5,42,127,449612288
92,5,22,Ticks_Phase_8,57,1,48,37,449623796
92,5,22,Ticks_Phase_8,58,5,42,127,450392380
92,5,22,Ticks_Phase_8,59,1,48,36,450393344
92,5,22,Ticks_Phase_8,60,5,42,127,451202276
92,5,22,Ticks_Phase_8,61,1,48,41,451218572
92,5,22,Ticks_Phase_8,62,1,48,38,452004872
92,5,22,Ticks_Phase_8,63,5,42,127,452012312
92,5,22,Ticks_Phase_8,64,5,42,127,452812280
92,5,22,Ticks_Phase_8,65,1,48,33,452838236
92,5,22,Ticks_Phase_8,66,1,48,33,453611768
92,5,22,Ticks_Phase_8,67,5,42,127,453613256
92,5,22,Ticks_Phase_8,68,5,42,127,454411628
92,5,22,Ticks_Phase_8,69,1,48,30,454446796
92,5,22,Ticks_Phase_8,70,5,42,127,455212388
92,5,22,Ticks_Phase_8,71,1,48,31,455232588
92,5,22,Ticks_Phase_8,72,1,48,33,456004568
92,5,22,Ticks_Phase_8,73,5,42,127,456012164
92,5,22,Ticks_Phase_8,74,1,48,29,456785780
92,5,22,Ticks_Phase_8,75,5,42,127,456812028
92,5,22,Ticks_Phase_8,76,1,48,29,457598004
92,5,22,Ticks_Phase_8,77,5,42,127,457611516
92,5,22,Ticks_Phase_8,78,1,48,24,458375620
92,5,22,Ticks_Phase_8,79,5,42,127,458412348
92,5,22,Ticks_Phase_8,80,5,42,127,459212092
92,5,22,Ticks_Phase_8,81,1,48,30,459226668
92,5,22,Ticks_Phase_8,82,1,48,25,460012176
92,5,22,Ticks_Phase_8,83,5,42,127,460013436
92,5,22,Ticks_Phase_8,84,1,48,29,460803316
92,5,22,Ticks_Phase_8,85,5,42,127,460811808
92,5,22,Ticks_Phase_8,86,1,48,27,461601012
92,5,22,Ticks_Phase_8,87,5,42,127,461612344
92,5,22,Ticks_Phase_8,88,1,48,30,462368060
92,5,22,Ticks_Phase_8,89,5,42,127,462412276
92,5,22,Ticks_Phase_8,90,1,48,29,463204844
92,5,22,Ticks_Phase_8,91,5,42,127,463211988
92,5,22,Ticks_Phase_8,92,1,48,30,463986132
92,5,22,Ticks_Phase_8,93,5,42,127,464011776
92,5,22,Ticks_Phase_8,94,1,48,23,464815648
92,5,22,Ticks_Phase_8,95,5,42,127,464831956
92,5,22,Ticks_Phase_8,96,1,48,32,465601988
92,5,22,Ticks_Phase_8,97,5,42,127,465631520
92,5,22,Ticks_Phase_8,98,5,42,127,466432360
92,5,22,Ticks_Phase_8,99,1,48,23,466438992
92,5,22,Ticks_Phase_8,100,5,42,127,467232220
92,5,22,Ticks_Phase_8,101,1,48,31,467245596
92,5,22,Ticks_Phase_8,102,5,42,127,468031856
92,5,22,Ticks_Phase_8,103,1,48,32,468041120
92,5,22,Ticks_Phase_8,104,1,48,27,468821128
92,5,22,Ticks_Phase_8,105,5,42,127,468831712
92,5,22,Ticks_Phase_8,106,1,48,28,469592156
92,5,22,Ticks_Phase_8,107,5,42,127,469632320
92,5,22,Ticks_Phase_8,108,5,42,127,470432260
92,5,22,Ticks_Phase_8,109,1,48,27,470438224
92,5,22,Ticks_Phase_8,110,1,48,28,471202060
92,5,22,Ticks_Phase_8,111,5,42,127,471232064
92,5,22,Ticks_Phase_8,112,5,42,127,472031708
92,5,22,Ticks_Phase_8,113,1,48,23,472037072
92,5,22,Ticks_Phase_8,114,1,48,30,472793492
92,5,22,Ticks_Phase_8,115,5,42,127,472832384
92,5,22,Ticks_Phase_8,116,5,42,127,473632104
92,5,22,Ticks_Phase_8,117,1,48,29,473635816
92,5,22,Ticks_Phase_8,118,5,42,127,474432040
92,5,22,Ticks_Phase_8,119,1,48,30,474482040
92,5,22,Ticks_Phase_8,120,5,42,127,475231528
92,5,22,Ticks_Phase_8,121,1,48,31,475237936
92,5,22,Ticks_Phase_8,122,1,48,31,475987760
92,5,22,Ticks_Phase_8,123,5,42,127,476032500
92,5,22,Ticks_Phase_8,124,1,48,29,476752880
92,5,22,Ticks_Phase_8,125,5,42,127,476832068
92,5,22,Ticks_Phase_8,126,1,48,28,477584044
92,5,22,Ticks_Phase_8,127,5,42,127,477671720
92,5,22,Ticks_Phase_8,128,5,42,127,478471440
92,5,22,Ticks_Phase_8,129,1,48,31,478528168
92,5,22,Ticks_Phase_8,130,5,42,127,479272272
92,5,22,Ticks_Phase_8,131,1,48,28,479392292
92,5,22,Ticks_Phase_8,132,5,42,127,480072056
92,5,22,Ticks_Phase_8,133,1,48,28,480252240
92,5,22,Ticks_Phase_8,134,5,42,127,480871768
92,5,22,Ticks_Phase_8,135,1,48,24,481671504
92,5,22,Ticks_Phase_8,136,5,42,127,481672916
92,5,22,Ticks_Phase_8,137,1,48,35,482429904
92,5,22,Ticks_Phase_8,138,5,42,127,482472180
92,5,22,Ticks_Phase_8,139,1,48,38,483189332
92,5,22,Ticks_Phase_8,140,5,42,127,483271992
92,5,22,Ticks_Phase_8,141,1,48,34,484015112
92,5,22,Ticks_Phase_8,142,5,42,127,484072004
92,5,22,Ticks_Phase_8,143,1,48,29,484836936
92,5,22,Ticks_Phase_8,144,5,42,127,484871716
92,5,22,Ticks_Phase_8,145,1,48,35,485666304
92,5,22,Ticks_Phase_8,146,5,42,127,485672180
92,5,22,Ticks_Phase_8,147,5,42,127,486472192
92,5,22,Ticks_Phase_8,148,1,48,30,486475164
92,5,22,Ticks_Phase_8,149,1,48,34,487229328
92,5,22,Ticks_Phase_8,150,5,42,127,487271976
92,5,22,Ticks_Phase_8,151,1,48,27,488048360
92,5,22,Ticks_Phase_8,152,5,42,127,488071760
92,5,22,Ticks_Phase_8,153,1,48,30,488829948
92,5,22,Ticks_Phase_8,154,5,42,127,488872300
92,5,22,Ticks_Phase_8,155,1,48,32,489651540
92,5,22,Ticks_Phase_8,156,5,42,127,489671960
92,5,22,Ticks_Phase_8,157,1,48,33,490442436
92,5,22,Ticks_Phase_8,158,5,42,127,490471968
92,5,22,Ticks_Phase_8,159,5,42,127,491231700
92,5,22,Ticks_Phase_8,160,1,48,35,491264996
92,5,22,Ticks_Phase_8,161,1,48,29,492031252
92,5,22,Ticks_Phase_8,162,5,42,127,492032896
92,5,22,Ticks_Phase_8,163,1,48,34,492820908
92,5,22,Ticks_Phase_8,164,5,42,127,492832164
92,5,22,Ticks_Phase_8,165,1,48,19,493602492
92,5,22,Ticks_Phase_8,166,5,42,127,493631876
92,5,22,Ticks_Phase_8,167,1,48,27,494370600
92,5,22,Ticks_Phase_8,168,5,42,127,494431732
92,5,22,Ticks_Phase_8,169,1,48,25,495180276
92,5,22,Ticks_Phase_8,170,5,42,127,495232496
92,5,22,Ticks_Phase_8,171,1,48,29,495987688
92,5,22,Ticks_Phase_8,172,5,42,127,496032056
92,5,22,Ticks_Phase_8,173,1,48,29,496808000
92,5,22,Ticks_Phase_8,174,5,42,127,496831796
92,5,22,Ticks_Phase_8,175,1,48,34,497596348
92,5,22,Ticks_Phase_8,176,5,42,127,497631656
92,5,22,Ticks_Phase_8,177,1,48,30,498392176
92,5,22,Ticks_Phase_8,178,5,42,127,498432264
92,5,22,Ticks_Phase_8,179,1,48,31,499203860
92,5,22,Ticks_Phase_8,180,5,42,127,499232200
92,5,22,Ticks_Phase_8,181,1,48,38,499994284
92,5,22,Ticks_Phase_8,182,5,42,127,500031836
92,5,22,Ticks_Phase_8,183,1,48,29,500818704
92,5,22,Ticks_Phase_8,184,5,42,127,500831696
92,5,22,Ticks_Phase_8,185,1,48,38,501611840
92,5,22,Ticks_Phase_8,186,5,42,127,501632308
92,5,22,Ticks_Phase_8,187,5,42,127,502432100
92,5,22,Ticks_Phase_8,188,1,48,35,502477104
92,5,22,Ticks_Phase_8,189,5,42,127,503231912
92,5,22,Ticks_Phase_8,190,1,48,34,503251880
92,5,22,Ticks_Phase_8,191,5,42,127,503951692
92,5,22,Ticks_Phase_8,192,1,48,31,503991688
92,5,22,Ticks_Phase_8,193,1,48,21,504712356
92,5,22,Ticks_Phase_8,194,5,42,127,504751400
92,5,22,Ticks_Phase_8,195,1,48,33,505507712
92,5,22,Ticks_Phase_8,196,5,42,127,505552180
92,5,22,Ticks_Phase_8,197,1,48,30,506306252
92,5,22,Ticks_Phase_8,198,5,42,127,506351968
92,5,22,Ticks_Phase_8,199,5,42,127,507151612
92,5,22,Ticks_Phase_8,200,1,48,30,507157196
92,5,22,Ticks_Phase_8,201,1,48,32,507934736
92,5,22,Ticks_Phase_8,202,5,42,127,507951612
92,5,22,Ticks_Phase_8,203,5,42,127,508752228
92,5,22,Ticks_Phase_8,204,1,48,28,508802380
92,5,22,Ticks_Phase_8,205,5,42,127,509551940
92,5,22,Ticks_Phase_8,206,1,48,25,509610780
92,5,22,Ticks_Phase_8,207,5,42,127,510351800
92,5,22,Ticks_Phase_8,208,1,48,33,510379192
92,5,22,Ticks_Phase_8,209,1,48,29,511102796
92,5,22,Ticks_Phase_8,210,5,42,127,511151428
92,5,22,Ticks_Phase_8,211,1,48,33,511914636
92,5,22,Ticks_Phase_8,212,5,42,127,511952212
92,5,22,Ticks_Phase_8,213,5,42,127,512752004
92,5,22,Ticks_Phase_8,214,1,48,27,512804548
92,5,22,Ticks_Phase_8,215,5,42,127,513551716
92,5,22,Ticks_Phase_8,216,1,48,34,513596316
92,5,22,Ticks_Phase_8,217,5,42,127,514351428
92,5,22,Ticks_Phase_8,218,1,48,29,514420080
92,5,22,Ticks_Phase_8,219,5,42,127,515152632
92,5,22,Ticks_Phase_8,220,1,48,31,515182268
92,5,22,Ticks_Phase_8,221,5,42,127,515952120
92,5,22,Ticks_Phase_8,222,1,48,24,515961684
92,5,22,Ticks_Phase_8,223,1,48,26,516751684
92,5,22,Ticks_Phase_8,224,5,42,127,516753096
92,5,22,Ticks_Phase_8,225,1,48,24,517504552
92,5,22,Ticks_Phase_8,226,5,42,127,517632352
92,5,22,Ticks_Phase_8,227,1,48,24,518425904
92,5,22,Ticks_Phase_8,228,5,42,127,518432224
92,5,22,Ticks_Phase_8,229,1,48,22,519210272
92,5,22,Ticks_Phase_8,230,5,42,127,519231788
92,5,22,Ticks_Phase_8,231,5,42,127,520031580
92,5,22,Ticks_Phase_8,232,1,48,22,520089212
92,5,22,Ticks_Phase_8,233,5,42,127,520832412
92,5,22,Ticks_Phase_8,234,1,48,31,520872084
92,5,22,Ticks_Phase_8,235,5,42,127,521632052
92,5,22,Ticks_Phase_8,236,1,48,34,521654212
92,5,22,Ticks_Phase_8,237,1,48,29,522430728
92,5,22,Ticks_Phase_8,238,5,42,127,522432224
92,5,22,Ticks_Phase_8,239,5,42,127,523231572
92,5,22,Ticks_Phase_8,240,1,48,31,523282320
92,5,22,Ticks_Phase_8,241,1,48,35,524028024
92,5,22,Ticks_Phase_8,242,5,42,127,524032544
92,5,22,Ticks_Phase_8,243,5,42,127,524832192
92,5,22,Ticks_Phase_8,244,1,48,29,524847516
92,5,22,Ticks_Phase_8,245,1,48,26,525563048
92,5,22,Ticks_Phase_8,246,5,42,127,525631820
92,5,22,Ticks_Phase_8,247,5,42,127,526431464
92,5,22,Ticks_Phase_8,248,5,42,127,527232468
92,5,22,Ticks_Phase_8,249,5,42,127,528032200
92,5,22,Ticks_Phase_8,250,1,48,24,528222044
92,5,22,Ticks_Phase_8,251,5,42,127,528831864
92,5,22,Ticks_Phase_8,252,1,48,34,528842852
92,5,22,Ticks_Phase_8,253,1,48,31,529522404
92,5,22,Ticks_Phase_8,254,5,42,127,529631480
92,5,22,Ticks_Phase_8,255,1,48,30,530308480
92,5,22,Ticks_Phase_8,256,5,42,127,530432388
92,5,22,Ticks_Phase_8,257,1,48,24,531238372
92,5,22,Ticks_Phase_8,258,5,42,127,531391784
92,5,22,Ticks_Phase_8,259,5,42,127,532191668
92,5,22,Ticks_Phase_8,260,1,48,26,532260992
92,5,22,Ticks_Phase_8,261,5,42,127,532992348
92,5,22,Ticks_Phase_8,262,1,48,32,533085560
92,5,22,Ticks_Phase_8,263,5,42,127,533792284
92,5,22,Ticks_Phase_8,264,1,48,32,533869312
92,5,22,Ticks_Phase_8,265,1,48,31,534573012
92,5,22,Ticks_Phase_8,266,5,42,127,534591844
92,5,22,Ticks_Phase_8,267,1,48,29,535365836
92,5,22,Ticks_Phase_8,268,5,42,127,535391556
92,5,22,Ticks_Phase_8,269,5,42,127,536192320
92,5,22,Ticks_Phase_8,270,1,48,33,536201884
92,5,22,Ticks_Phase_8,271,1,48,31,536931568
92,5,22,Ticks_Phase_8,272,5,42,127,536992396
92,5,22,Ticks_Phase_8,273,1,48,25,537768188
92,5,22,Ticks_Phase_8,274,5,42,127,537791984
92,5,22,Ticks_Phase_8,275,1,48,24,538541320
92,5,22,Ticks_Phase_8,276,5,42,127,538591696
92,5,22,Ticks_Phase_8,277,1,48,21,539371160
92,5,22,Ticks_Phase_8,278,5,42,127,539392232
92,5,22,Ticks_Phase_8,279,5,42,127,540192320
92,5,22,Ticks_Phase_8,280,1,48,24,540202708
92,5,22,Ticks_Phase_8,281,5,42,127,540991736
92,5,22,Ticks_Phase_8,282,1,48,27,541055212
92,5,22,Ticks_Phase_8,283,1,48,29,541790156
92,5,22,Ticks_Phase_8,284,5,42,127,541791740
92,5,22,Ticks_Phase_8,285,1,48,29,542581992
92,5,22,Ticks_Phase_8,286,5,42,127,542592348
92,5,22,Ticks_Phase_8,287,1,48,27,543370168
92,5,22,Ticks_Phase_8,288,5,42,127,543392212
92,5,22,Ticks_Phase_8,289,1,48,36,544187124
92,5,22,Ticks_Phase_8,290,5,42,127,544192172
92,5,22,Ticks_Phase_8,291,5,42,127,544991592
92,5,22,Ticks_Phase_8,292,1,48,29,544992484
92,5,22,Ticks_Phase_8,293,1,48,26,545785348
92,5,22,Ticks_Phase_8,294,5,42,127,545792272
92,5,22,Ticks_Phase_8,295,5,42,127,546432304
92,5,22,Ticks_Phase_8,296,1,48,26,546576760
92,5,22,Ticks_Phase_8,297,1,48,21,547186072
92,5,22,Ticks_Phase_8,298,5,42,127,547232160
92,5,22,Ticks_Phase_8,299,1,48,26,547975148
92,5,22,Ticks_Phase_8,300,5,42,127,548031968
92,5,22,Ticks_Phase_8,301,1,48,24,548786396
92,5,22,Ticks_Phase_8,302,5,42,127,548831732
92,5,22,Ticks_Phase_8,303,1,48,32,549586032
92,5,22,Ticks_Phase_8,304,5,42,127,549632416
92,5,22,Ticks_Phase_8,305,5,42,127,550432208
92,5,22,Ticks_Phase_8,306,1,48,27,550450156
92,5,22,Ticks_Phase_8,307,1,48,28,551215780
92,5,22,Ticks_Phase_8,308,5,42,127,551232060
92,5,22,Ticks_Phase_8,309,1,48,29,552012796
92,5,22,Ticks_Phase_8,310,5,42,127,552031476
92,5,22,Ticks_Phase_8,311,1,48,35,552794312
92,5,22,Ticks_Phase_8,312,5,42,127,552832308
92,5,22,Ticks_Phase_8,313,1,48,25,553622932
92,5,22,Ticks_Phase_8,314,5,42,127,553632020
92,5,22,Ticks_Phase_8,315,5,42,127,554431988
92,5,22,Ticks_Phase_8,316,1,48,24,554452112
92,5,22,Ticks_Phase_8,317,1,48,30,555174496
92,5,22,Ticks_Phase_8,318,5,42,127,555231544
92,5,22,Ticks_Phase_8,319,5,42,127,556032384
92,5,22,Ticks_Phase_8,320,1,48,20,556037224
92,5,22,Ticks_Phase_8,321,5,42,127,556832096
92,5,22,Ticks_Phase_8,322,1,48,19,556837308
92,5,22,Ticks_Phase_8,323,1,48,27,557621812
92,5,22,Ticks_Phase_8,324,5,42,127,557631948
92,5,22,Ticks_Phase_8,325,5,42,127,558431592
92,5,22,Ticks_Phase_8,326,1,48,27,558460848
92,5,22,Ticks_Phase_8,327,1,48,32,559204904
92,5,22,Ticks_Phase_8,328,5,42,127,559232344
92,5,22,Ticks_Phase_8,329,1,48,32,559984244
92,5,22,Ticks_Phase_8,330,5,42,127,560032128
92,5,22,Ticks_Phase_8,331,1,48,23,560793392
92,5,22,Ticks_Phase_8,332,5,42,127,560831864
92,5,22,Ticks_Phase_8,333,1,48,33,561610284
92,5,22,Ticks_Phase_8,334,5,42,127,561631724
92,5,22,Ticks_Phase_8,0,9999,9999,9999,426410068
92,5,22,Ticks_Phase_8,1,9999,9999,9999,427209828
92,5,22,Ticks_Phase_8,2,9999,9999,9999,428009552
92,5,22,Ticks_Phase_8,3,9999,9999,9999,428809272
92,5,22,Ticks_Phase_8,4,9999,9999,9999,429610104
92,5,22,Ticks_Phase_8,5,9999,9999,9999,430409808
92,5,22,Ticks_Phase_8,6,9999,9999,9999,431209596
92,5,22,Ticks_Phase_8,7,9999,9999,9999,432009304
92,5,22,Ticks_Phase_8,8,9999,9999,9999,432810064
92,5,22,Ticks_Phase_8,9,9999,9999,9999,433609800
92,5,22,Ticks_Phase_8,10,9999,9999,9999,434409588
92,5,22,Ticks_Phase_8,11,9999,9999,9999,435209300
92,5,22,Ticks_Phase_8,12,9999,9999,9999,436010056
92,5,22,Ticks_Phase_8,13,9999,9999,9999,436809844
92,5,22,Ticks_Phase_8,14,9999,9999,9999,437609560
92,5,22,Ticks_Phase_8,15,9999,9999,9999,438409340
92,5,22,Ticks_Phase_8,16,9999,9999,9999,439210100
92,5,22,Ticks_Phase_8,17,9999,9999,9999,440009832
92,5,22,Ticks_Phase_8,18,9999,9999,9999,440809548
92,5,22,Ticks_Phase_8,19,9999,9999,9999,441609332
92,5,22,Ticks_Phase_8,20,9999,9999,9999,442410092
92,5,22,Ticks_Phase_8,21,9999,9999,9999,443209804
92,5,22,Ticks_Phase_8,22,9999,9999,9999,444009588
92,5,22,Ticks_Phase_8,23,9999,9999,9999,444809304
92,5,22,Ticks_Phase_8,24,9999,9999,9999,445610060
92,5,22,Ticks_Phase_8,25,9999,9999,9999,446409800
92,5,22,Ticks_Phase_8,26,9999,9999,9999,447209584
92,5,22,Ticks_Phase_8,27,9999,9999,9999,448009304
92,5,22,Ticks_Phase_8,28,9999,9999,9999,448810064
92,5,22,Ticks_Phase_8,29,9999,9999,9999,449609852
92,5,22,Ticks_Phase_8,30,9999,9999,9999,450390092
92,5,22,Ticks_Phase_8,31,9999,9999,9999,451200064
92,5,22,Ticks_Phase_8,32,9999,9999,9999,452010100
92,5,22,Ticks_Phase_8,33,9999,9999,9999,452809844
92,5,22,Ticks_Phase_8,34,9999,9999,9999,453609556
92,5,22,Ticks_Phase_8,35,9999,9999,9999,454409340
92,5,22,Ticks_Phase_8,36,9999,9999,9999,455210100
92,5,22,Ticks_Phase_8,37,9999,9999,9999,456009804
92,5,22,Ticks_Phase_8,38,9999,9999,9999,456809592
92,5,22,Ticks_Phase_8,39,9999,9999,9999,457609304
92,5,22,Ticks_Phase_8,40,9999,9999,9999,458410060
92,5,22,Ticks_Phase_8,41,9999,9999,9999,459209804
92,5,22,Ticks_Phase_8,42,9999,9999,9999,460009592
92,5,22,Ticks_Phase_8,43,9999,9999,9999,460809296
92,5,22,Ticks_Phase_8,44,9999,9999,9999,461610056
92,5,22,Ticks_Phase_8,45,9999,9999,9999,462409840
92,5,22,Ticks_Phase_8,46,9999,9999,9999,463209552
92,5,22,Ticks_Phase_8,47,9999,9999,9999,464009340
92,5,22,Ticks_Phase_8,48,9999,9999,9999,464829520
92,5,22,Ticks_Phase_8,49,9999,9999,9999,465629308
92,5,22,Ticks_Phase_8,50,9999,9999,9999,466430072
92,5,22,Ticks_Phase_8,51,9999,9999,9999,467229784
92,5,22,Ticks_Phase_8,52,9999,9999,9999,468029496
92,5,22,Ticks_Phase_8,53,9999,9999,9999,468829276
92,5,22,Ticks_Phase_8,54,9999,9999,9999,469630036
92,5,22,Ticks_Phase_8,55,9999,9999,9999,470429752
92,5,22,Ticks_Phase_8,56,9999,9999,9999,471229556
92,5,22,Ticks_Phase_8,57,9999,9999,9999,472029272
92,5,22,Ticks_Phase_8,58,9999,9999,9999,472830024
92,5,22,Ticks_Phase_8,59,9999,9999,9999,473629816
92,5,22,Ticks_Phase_8,60,9999,9999,9999,474429528
92,5,22,Ticks_Phase_8,61,9999,9999,9999,475229240
92,5,22,Ticks_Phase_8,62,9999,9999,9999,476030064
92,5,22,Ticks_Phase_8,63,9999,9999,9999,476829780
92,5,22,Ticks_Phase_8,64,9999,9999,9999,477669432
92,5,22,Ticks_Phase_8,65,9999,9999,9999,478469224
92,5,22,Ticks_Phase_8,66,9999,9999,9999,479269984
92,5,22,Ticks_Phase_8,67,9999,9999,9999,480069696
92,5,22,Ticks_Phase_8,68,9999,9999,9999,480869484
92,5,22,Ticks_Phase_8,69,9999,9999,9999,481669216
92,5,22,Ticks_Phase_8,70,9999,9999,9999,482469968
92,5,22,Ticks_Phase_8,71,9999,9999,9999,483269708
92,5,22,Ticks_Phase_8,72,9999,9999,9999,484069492
92,5,22,Ticks_Phase_8,73,9999,9999,9999,484869208
92,5,22,Ticks_Phase_8,74,9999,9999,9999,485669968
92,5,22,Ticks_Phase_8,75,9999,9999,9999,486469756
92,5,22,Ticks_Phase_8,76,9999,9999,9999,487269468
92,5,22,Ticks_Phase_8,77,9999,9999,9999,488069176
92,5,22,Ticks_Phase_8,78,9999,9999,9999,488870012
92,5,22,Ticks_Phase_8,79,9999,9999,9999,489669748
92,5,22,Ticks_Phase_8,80,9999,9999,9999,490469460
92,5,22,Ticks_Phase_8,81,9999,9999,9999,491229264
92,5,22,Ticks_Phase_8,82,9999,9999,9999,492030020
92,5,22,Ticks_Phase_8,83,9999,9999,9999,492829804
92,5,22,Ticks_Phase_8,84,9999,9999,9999,493629516
92,5,22,Ticks_Phase_8,85,9999,9999,9999,494429300
92,5,22,Ticks_Phase_8,86,9999,9999,9999,495230060
92,5,22,Ticks_Phase_8,87,9999,9999,9999,496029772
92,5,22,Ticks_Phase_8,88,9999,9999,9999,496829508
92,5,22,Ticks_Phase_8,89,9999,9999,9999,497629292
92,5,22,Ticks_Phase_8,90,9999,9999,9999,498430052
92,5,22,Ticks_Phase_8,91,9999,9999,9999,499229764
92,5,22,Ticks_Phase_8,92,9999,9999,9999,500029548
92,5,22,Ticks_Phase_8,93,9999,9999,9999,500829264
92,5,22,Ticks_Phase_8,94,9999,9999,9999,501630020
92,5,22,Ticks_Phase_8,95,9999,9999,9999,502429812
92,5,22,Ticks_Phase_8,96,9999,9999,9999,503229548
92,5,22,Ticks_Phase_8,97,9999,9999,9999,503949408
92,5,22,Ticks_Phase_8,98,9999,9999,9999,504749112
92,5,22,Ticks_Phase_8,99,9999,9999,9999,505549896
92,5,22,Ticks_Phase_8,100,9999,9999,9999,506349680
92,5,22,Ticks_Phase_8,101,9999,9999,9999,507149400
92,5,22,Ticks_Phase_8,102,9999,9999,9999,507949176
92,5,22,Ticks_Phase_8,103,9999,9999,9999,508749944
92,5,22,Ticks_Phase_8,104,9999,9999,9999,509549652
92,5,22,Ticks_Phase_8,105,9999,9999,9999,510349440
92,5,22,Ticks_Phase_8,106,9999,9999,9999,511149144
92,5,22,Ticks_Phase_8,107,9999,9999,9999,511949924
92,5,22,Ticks_Phase_8,108,9999,9999,9999,512749644
92,5,22,Ticks_Phase_8,109,9999,9999,9999,513549428
92,5,22,Ticks_Phase_8,110,9999,9999,9999,514349144
92,5,22,Ticks_Phase_8,111,9999,9999,9999,515149900
92,5,22,Ticks_Phase_8,112,9999,9999,9999,515949684
92,5,22,Ticks_Phase_8,113,9999,9999,9999,516749396
92,5,22,Ticks_Phase_8,114,9999,9999,9999,517630064
92,5,22,Ticks_Phase_8,115,9999,9999,9999,518429792
92,5,22,Ticks_Phase_8,116,9999,9999,9999,519229504
92,5,22,Ticks_Phase_8,117,9999,9999,9999,520029292
92,5,22,Ticks_Phase_8,118,9999,9999,9999,520830052
92,5,22,Ticks_Phase_8,119,9999,9999,9999,521629764
92,5,22,Ticks_Phase_8,120,9999,9999,9999,522429500
92,5,22,Ticks_Phase_8,121,9999,9999,9999,523229284
92,5,22,Ticks_Phase_8,122,9999,9999,9999,524030036
92,5,22,Ticks_Phase_8,123,9999,9999,9999,524829756
92,5,22,Ticks_Phase_8,124,9999,9999,9999,525629536
92,5,22,Ticks_Phase_8,125,9999,9999,9999,526429252
92,5,22,Ticks_Phase_8,126,9999,9999,9999,527230032
92,5,22,Ticks_Phase_8,127,9999,9999,9999,528029764
92,5,22,Ticks_Phase_8,128,9999,9999,9999,528829504
92,5,22,Ticks_Phase_8,129,9999,9999,9999,529629268
92,5,22,Ticks_Phase_8,130,9999,9999,9999,530430024
92,5,22,Ticks_Phase_8,131,9999,9999,9999,531389496
92,5,22,Ticks_Phase_8,132,9999,9999,9999,532189304
92,5,22,Ticks_Phase_8,133,9999,9999,9999,532990064
92,5,22,Ticks_Phase_8,134,9999,9999,9999,533789776
92,5,22,Ticks_Phase_8,135,9999,9999,9999,534589556
92,5,22,Ticks_Phase_8,136,9999,9999,9999,535389268
92,5,22,Ticks_Phase_8,137,9999,9999,9999,536190032
92,5,22,Ticks_Phase_8,138,9999,9999,9999,536989812
92,5,22,Ticks_Phase_8,139,9999,9999,9999,537789548
92,5,22,Ticks_Phase_8,140,9999,9999,9999,538589260
92,5,22,Ticks_Phase_8,141,9999,9999,9999,539390020
92,5,22,Ticks_Phase_8,142,9999,9999,9999,540189812
92,5,22,Ticks_Phase_8,143,9999,9999,9999,540989524
92,5,22,Ticks_Phase_8,144,9999,9999,9999,541789308
92,5,22,Ticks_Phase_8,145,9999,9999,9999,542590064
92,5,22,Ticks_Phase_8,146,9999,9999,9999,543389776
92,5,22,Ticks_Phase_8,147,9999,9999,9999,544189516
92,5,22,Ticks_Phase_8,148,9999,9999,9999,544989304
92,5,22,Ticks_Phase_8,149,9999,9999,9999,545790060
92,5,22,Ticks_Phase_8,150,9999,9999,9999,546430016
92,5,22,Ticks_Phase_8,151,9999,9999,9999,547229800
92,5,22,Ticks_Phase_8,152,9999,9999,9999,548029536
92,5,22,Ticks_Phase_8,153,9999,9999,9999,548829296
92,5,22,Ticks_Phase_8,154,9999,9999,9999,549630056
92,5,22,Ticks_Phase_8,155,9999,9999,9999,550429772
92,5,22,Ticks_Phase_8,156,9999,9999,9999,551229552
92,5,22,Ticks_Phase_8,157,9999,9999,9999,552029264
92,5,22,Ticks_Phase_8,158,9999,9999,9999,552830020
92,5,22,Ticks_Phase_8,159,9999,9999,9999,553629808
92,5,22,Ticks_Phase_8,160,9999,9999,9999,554429552
92,5,22,Ticks_Phase_8,161,9999,9999,9999,555229256
92,5,22,Ticks_Phase_8,162,9999,9999,9999,556030020
92,5,22,Ticks_Phase_8,163,9999,9999,9999,556829808
92,5,22,Ticks_Phase_8,164,9999,9999,9999,557629516
92,5,22,Ticks_Phase_8,165,9999,9999,9999,558429304
92,5,22,Ticks_Phase_8,166,9999,9999,9999,559230056
92,5,22,Ticks_Phase_8,167,9999,9999,9999,560029768
92,5,22,Ticks_Phase_8,168,9999,9999,9999,560829504
92,5,22,Ticks_Phase_8,169,9999,9999,9999,561629292
92,6,23,Ticks_Phase_5,0,5,42,127,572432732
92,6,23,Ticks_Phase_5,1,5,42,127,572932516
92,6,23,Ticks_Phase_5,2,5,42,127,573433196
92,6,23,Ticks_Phase_5,3,1,48,28,573520040
92,6,23,Ticks_Phase_5,4,5,42,127,573932960
92,6,23,Ticks_Phase_5,5,1,48,36,573965884
92,6,23,Ticks_Phase_5,6,5,42,127,574432724
92,6,23,Ticks_Phase_5,7,1,48,28,574479124
92,6,23,Ticks_Phase_5,8,5,42,127,574933312
92,6,23,Ticks_Phase_5,9,1,48,28,574939500
92,6,23,Ticks_Phase_5,10,1,48,39,575422856
92,6,23,Ticks_Phase_5,11,5,42,127,575432992
92,6,23,Ticks_Phase_5,12,5,42,127,575932840
92,6,23,Ticks_Phase_5,13,1,48,44,575946288
92,6,23,Ticks_Phase_5,14,5,42,127,576432500
92,6,23,Ticks_Phase_5,15,1,48,31,576529320
92,6,23,Ticks_Phase_5,16,5,42,127,576933160
92,6,23,Ticks_Phase_5,17,1,48,33,576947760
92,6,23,Ticks_Phase_5,18,1,48,42,577425996
92,6,23,Ticks_Phase_5,19,5,42,127,577432992
92,6,23,Ticks_Phase_5,20,5,42,127,577932688
92,6,23,Ticks_Phase_5,21,1,48,45,577935132
92,6,23,Ticks_Phase_5,22,1,48,38,578424476
92,6,23,Ticks_Phase_5,23,5,42,127,578433488
92,6,23,Ticks_Phase_5,24,5,42,127,578933112
92,6,23,Ticks_Phase_5,25,1,48,36,578935776
92,6,23,Ticks_Phase_5,26,5,42,127,579432796
92,6,23,Ticks_Phase_5,27,1,48,39,579445424
92,6,23,Ticks_Phase_5,28,5,42,127,579932708
92,6,23,Ticks_Phase_5,29,1,48,30,579949152
92,6,23,Ticks_Phase_5,30,5,42,127,580433516
92,6,23,Ticks_Phase_5,31,1,48,34,580438064
92,6,23,Ticks_Phase_5,32,5,42,127,580932908
92,6,23,Ticks_Phase_5,33,1,48,32,580951164
92,6,23,Ticks_Phase_5,34,5,42,127,581432744
92,6,23,Ticks_Phase_5,35,1,48,36,581454140
92,6,23,Ticks_Phase_5,36,1,48,39,581896452
92,6,23,Ticks_Phase_5,37,5,42,127,581933696
92,6,23,Ticks_Phase_5,38,5,42,127,582443428
92,6,23,Ticks_Phase_5,39,1,48,34,582444616
92,6,23,Ticks_Phase_5,40,1,48,33,582940080
92,6,23,Ticks_Phase_5,41,5,42,127,582943108
92,6,23,Ticks_Phase_5,42,5,42,127,583442728
92,6,23,Ticks_Phase_5,43,1,48,22,583467564
92,6,23,Ticks_Phase_5,44,5,42,127,583942640
92,6,23,Ticks_Phase_5,45,1,48,36,583949272
92,6,23,Ticks_Phase_5,46,1,48,35,584416684
92,6,23,Ticks_Phase_5,47,5,42,127,584443148
92,6,23,Ticks_Phase_5,48,5,42,127,584943064
92,6,23,Ticks_Phase_5,49,1,48,37,584980716
92,6,23,Ticks_Phase_5,50,5,42,127,585442604
92,6,23,Ticks_Phase_5,51,1,48,38,585498512
92,6,23,Ticks_Phase_5,52,5,42,127,585943636
92,6,23,Ticks_Phase_5,53,1,48,43,585989664
92,6,23,Ticks_Phase_5,54,5,42,127,586443100
92,6,23,Ticks_Phase_5,55,1,48,38,586461428
92,6,23,Ticks_Phase_5,56,5,42,127,586942716
92,6,23,Ticks_Phase_5,57,1,48,40,586943680
92,6,23,Ticks_Phase_5,58,1,48,36,587426012
92,6,23,Ticks_Phase_5,59,5,42,127,587433532
92,6,23,Ticks_Phase_5,60,5,42,127,587932928
92,6,23,Ticks_Phase_5,61,1,48,39,587956520
92,6,23,Ticks_Phase_5,62,5,42,127,588432768
92,6,23,Ticks_Phase_5,63,1,48,32,588466320
92,6,23,Ticks_Phase_5,64,5,42,127,588932604
92,6,23,Ticks_Phase_5,65,1,48,42,588939316
92,6,23,Ticks_Phase_5,66,1,48,40,589411288
92,6,23,Ticks_Phase_5,67,5,42,127,589433480
92,6,23,Ticks_Phase_5,68,1,48,43,589908872
92,6,23,Ticks_Phase_5,69,5,42,127,589932796
92,6,23,Ticks_Phase_5,70,1,48,41,590405644
92,6,23,Ticks_Phase_5,71,5,42,127,590432484
92,6,23,Ticks_Phase_5,72,1,48,34,590924056
92,6,23,Ticks_Phase_5,73,5,42,127,590933592
92,6,23,Ticks_Phase_5,74,5,42,127,591433136
92,6,23,Ticks_Phase_5,75,1,48,47,591456776
92,6,23,Ticks_Phase_5,76,1,48,27,591525352
92,6,23,Ticks_Phase_5,77,1,48,46,591926480
92,6,23,Ticks_Phase_5,78,5,42,127,591932800
92,6,23,Ticks_Phase_5,79,1,48,39,592430448
92,6,23,Ticks_Phase_5,80,5,42,127,592432412
92,6,23,Ticks_Phase_5,81,1,48,43,592926520
92,6,23,Ticks_Phase_5,82,5,42,127,592933516
92,6,23,Ticks_Phase_5,83,1,48,25,592984852
92,6,23,Ticks_Phase_5,84,1,48,37,593399376
92,6,23,Ticks_Phase_5,85,5,42,127,593432888
92,6,23,Ticks_Phase_5,86,1,48,35,593920272
92,6,23,Ticks_Phase_5,87,5,42,127,593932652
92,6,23,Ticks_Phase_5,88,5,42,127,594433540
92,6,23,Ticks_Phase_5,89,1,48,29,594472988
92,6,23,Ticks_Phase_5,90,5,42,127,594933008
92,6,23,Ticks_Phase_5,91,1,48,35,594938744
92,6,23,Ticks_Phase_5,92,1,48,41,595426668
92,6,23,Ticks_Phase_5,93,5,42,127,595432764
92,6,23,Ticks_Phase_5,94,5,42,127,595932608
92,6,23,Ticks_Phase_5,95,1,48,43,595935580
92,6,23,Ticks_Phase_5,96,1,48,44,596412340
92,6,23,Ticks_Phase_5,97,5,42,127,596442400
92,6,23,Ticks_Phase_5,98,5,42,127,596943440
92,6,23,Ticks_Phase_5,99,1,48,40,596954796
92,6,23,Ticks_Phase_5,100,5,42,127,597443056
92,6,23,Ticks_Phase_5,101,1,48,40,597462132
92,6,23,Ticks_Phase_5,102,1,48,44,597937388
92,6,23,Ticks_Phase_5,103,5,42,127,597942588
92,6,23,Ticks_Phase_5,104,5,42,127,598443600
92,6,23,Ticks_Phase_5,105,1,48,46,598460296
92,6,23,Ticks_Phase_5,106,1,48,47,598922440
92,6,23,Ticks_Phase_5,107,5,42,127,598943060
92,6,23,Ticks_Phase_5,108,5,42,127,599442904
92,6,23,Ticks_Phase_5,109,1,48,48,599503192
92,6,23,Ticks_Phase_5,110,5,42,127,599942668
92,6,23,Ticks_Phase_5,111,1,48,46,599943560
92,6,23,Ticks_Phase_5,112,1,48,51,600405176
92,6,23,Ticks_Phase_5,113,5,42,127,600443620
92,6,23,Ticks_Phase_5,114,5,42,127,600943168
92,6,23,Ticks_Phase_5,115,1,48,51,601016556
92,6,23,Ticks_Phase_5,116,1,48,43,601402980
92,6,23,Ticks_Phase_5,117,5,42,127,601442552
92,6,23,Ticks_Phase_5,118,5,42,127,601943440
92,6,23,Ticks_Phase_5,119,1,48,47,601996884
92,6,23,Ticks_Phase_5,120,5,42,127,602443276
92,6,23,Ticks_Phase_5,121,1,48,50,602452764
92,6,23,Ticks_Phase_5,122,5,42,127,602942868
92,6,23,Ticks_Phase_5,123,1,48,52,602945460
92,6,23,Ticks_Phase_5,124,5,42,127,603442404
92,6,23,Ticks_Phase_5,125,1,48,54,603443744
92,6,23,Ticks_Phase_5,126,5,42,127,603943288
92,6,23,Ticks_Phase_5,127,1,48,51,603966028
92,6,23,Ticks_Phase_5,128,5,42,127,604462524
92,6,23,Ticks_Phase_5,129,1,48,56,604481152
92,6,23,Ticks_Phase_5,130,5,42,127,604963408
92,6,23,Ticks_Phase_5,131,1,48,48,604969520
92,6,23,Ticks_Phase_5,132,1,48,54,605439840
92,6,23,Ticks_Phase_5,133,5,42,127,605462868
92,6,23,Ticks_Phase_5,134,5,42,127,605962564
92,6,23,Ticks_Phase_5,135,1,48,46,605996536
92,6,23,Ticks_Phase_5,136,1,48,45,606453080
92,6,23,Ticks_Phase_5,137,5,42,127,606463440
92,6,23,Ticks_Phase_5,138,1,48,39,606951420
92,6,23,Ticks_Phase_5,139,5,42,127,606962984
92,6,23,Ticks_Phase_5,140,1,48,46,607424220
92,6,23,Ticks_Phase_5,141,5,42,127,607462668
92,6,23,Ticks_Phase_5,142,5,42,127,607962440
92,6,23,Ticks_Phase_5,143,1,48,43,607973048
92,6,23,Ticks_Phase_5,144,1,48,52,608444040
92,6,23,Ticks_Phase_5,145,5,42,127,608463392
92,6,23,Ticks_Phase_5,146,1,48,38,608922584
92,6,23,Ticks_Phase_5,147,5,42,127,608963004
92,6,23,Ticks_Phase_5,148,5,42,127,609462548
92,6,23,Ticks_Phase_5,149,1,48,47,609463516
92,6,23,Ticks_Phase_5,150,5,42,127,609963480
92,6,23,Ticks_Phase_5,151,1,48,53,609977112
92,6,23,Ticks_Phase_5,152,5,42,127,610463396
92,6,23,Ticks_Phase_5,153,1,48,54,610473260
92,6,23,Ticks_Phase_5,154,5,42,127,610962860
92,6,23,Ticks_Phase_5,155,1,48,49,610973924
92,6,23,Ticks_Phase_5,156,5,42,127,611462548
92,6,23,Ticks_Phase_5,157,1,48,49,611466268
92,6,23,Ticks_Phase_5,158,5,42,127,611963508
92,6,23,Ticks_Phase_5,159,1,48,46,611978384
92,6,23,Ticks_Phase_5,160,1,48,48,612440624
92,6,23,Ticks_Phase_5,161,5,42,127,612463116
92,6,23,Ticks_Phase_5,162,5,42,127,612943188
92,6,23,Ticks_Phase_5,163,1,48,42,613008540
92,6,23,Ticks_Phase_5,164,1,48,44,613436024
92,6,23,Ticks_Phase_5,165,5,42,127,613443020
92,6,23,Ticks_Phase_5,166,1,48,48,613905232
92,6,23,Ticks_Phase_5,167,5,42,127,613942708
92,6,23,Ticks_Phase_5,168,1,48,47,614413464
92,6,23,Ticks_Phase_5,169,5,42,127,614443516
92,6,23,Ticks_Phase_5,170,1,48,44,614932992
92,6,23,Ticks_Phase_5,171,5,42,127,614943204
92,6,23,Ticks_Phase_5,172,5,42,127,615442676
92,6,23,Ticks_Phase_5,173,1,48,43,615457476
92,6,23,Ticks_Phase_5,174,5,42,127,615942364
92,6,23,Ticks_Phase_5,175,1,48,52,615968172
92,6,23,Ticks_Phase_5,176,1,48,50,616431532
92,6,23,Ticks_Phase_5,177,5,42,127,616443392
92,6,23,Ticks_Phase_5,178,1,48,45,616932344
92,6,23,Ticks_Phase_5,179,5,42,127,616943080
92,6,23,Ticks_Phase_5,180,1,48,50,617435400
92,6,23,Ticks_Phase_5,181,5,42,127,617442696
92,6,23,Ticks_Phase_5,182,1,48,53,617909400
92,6,23,Ticks_Phase_5,183,5,42,127,617943356
92,6,23,Ticks_Phase_5,184,1,48,51,618442068
92,6,23,Ticks_Phase_5,185,5,42,127,618443488
92,6,23,Ticks_Phase_5,186,1,48,46,618919084
92,6,23,Ticks_Phase_5,187,5,42,127,618942808
92,6,23,Ticks_Phase_5,188,1,48,45,619438168
92,6,23,Ticks_Phase_5,189,5,42,127,619442420
92,6,23,Ticks_Phase_5,190,5,42,127,619943212
92,6,23,Ticks_Phase_5,191,1,48,47,619957136
92,6,23,Ticks_Phase_5,192,5,42,127,620443196
92,6,23,Ticks_Phase_5,193,1,48,46,620450504
92,6,23,Ticks_Phase_5,194,5,42,127,620892488
92,6,23,Ticks_Phase_5,195,1,48,38,620935892
92,6,23,Ticks_Phase_5,196,1,48,50,621385544
92,6,23,Ticks_Phase_5,197,5,42,127,621393292
92,6,23,Ticks_Phase_5,198,1,48,48,621858048
92,6,23,Ticks_Phase_5,199,5,42,127,621892976
92,6,23,Ticks_Phase_5,200,5,42,127,622392824
92,6,23,Ticks_Phase_5,201,1,48,46,622405004
92,6,23,Ticks_Phase_5,202,1,48,42,622845372
92,6,23,Ticks_Phase_5,203,5,42,127,622893404
92,6,23,Ticks_Phase_5,204,1,48,41,623370972
92,6,23,Ticks_Phase_5,205,5,42,127,623403276
92,6,23,Ticks_Phase_5,206,1,48,46,623837332
92,6,23,Ticks_Phase_5,207,5,42,127,623903112
92,6,23,Ticks_Phase_5,208,1,48,42,624386892
92,6,23,Ticks_Phase_5,209,5,42,127,624402728
92,6,23,Ticks_Phase_5,210,1,48,43,624886652
92,6,23,Ticks_Phase_5,211,5,42,127,624902416
92,6,23,Ticks_Phase_5,212,1,48,43,625360504
92,6,23,Ticks_Phase_5,213,5,42,127,625403224
92,6,23,Ticks_Phase_5,214,1,48,37,625869032
92,6,23,Ticks_Phase_5,215,5,42,127,625902916
92,6,23,Ticks_Phase_5,216,1,48,44,626348180
92,6,23,Ticks_Phase_5,217,5,42,127,626402528
92,6,23,Ticks_Phase_5,218,1,48,43,626870516
92,6,23,Ticks_Phase_5,219,5,42,127,626903336
92,6,23,Ticks_Phase_5,220,1,48,43,627355940
92,6,23,Ticks_Phase_5,221,5,42,127,627403096
92,6,23,Ticks_Phase_5,222,1,48,42,627878760
92,6,23,Ticks_Phase_5,223,5,42,127,627902936
92,6,23,Ticks_Phase_5,224,1,48,44,628375232
92,6,23,Ticks_Phase_5,225,5,42,127,628402476
92,6,23,Ticks_Phase_5,226,1,48,39,628891324
92,6,23,Ticks_Phase_5,227,5,42,127,628903260
92,6,23,Ticks_Phase_5,228,1,48,32,629391468
92,6,23,Ticks_Phase_5,229,5,42,127,629453296
92,6,23,Ticks_Phase_5,230,1,48,40,629926192
92,6,23,Ticks_Phase_5,231,5,42,127,629952984
92,6,23,Ticks_Phase_5,232,1,48,44,630399144
92,6,23,Ticks_Phase_5,233,5,42,127,630452524
92,6,23,Ticks_Phase_5,234,1,48,43,630950648
92,6,23,Ticks_Phase_5,235,5,42,127,630953308
92,6,23,Ticks_Phase_5,236,1,48,46,631451184
92,6,23,Ticks_Phase_5,237,5,42,127,631452920
92,6,23,Ticks_Phase_5,238,1,48,43,631948532
92,6,23,Ticks_Phase_5,239,5,42,127,631952832
92,6,23,Ticks_Phase_5,240,1,48,46,632435640
92,6,23,Ticks_Phase_5,241,5,42,127,632452524
92,6,23,Ticks_Phase_5,242,5,42,127,632953264
92,6,23,Ticks_Phase_5,243,1,48,41,632959972
92,6,23,Ticks_Phase_5,244,1,48,46,633438760
92,6,23,Ticks_Phase_5,245,5,42,127,633453020
92,6,23,Ticks_Phase_5,246,1,48,38,633945416
92,6,23,Ticks_Phase_5,247,5,42,127,633952560
92,6,23,Ticks_Phase_5,248,1,48,44,634426380
92,6,23,Ticks_Phase_5,249,5,42,127,634453296
92,6,23,Ticks_Phase_5,250,5,42,127,634953064
92,6,23,Ticks_Phase_5,251,1,48,44,634996396
92,6,23,Ticks_Phase_5,252,5,42,127,635453048
92,6,23,Ticks_Phase_5,253,1,48,40,635481564
92,6,23,Ticks_Phase_5,254,5,42,127,635952440
92,6,23,Ticks_Phase_5,255,1,48,46,635958776
92,6,23,Ticks_Phase_5,256,1,48,48,636438536
92,6,23,Ticks_Phase_5,257,5,42,127,636453244
92,6,23,Ticks_Phase_5,258,1,48,43,636918152
92,6,23,Ticks_Phase_5,259,5,42,127,636952932
92,6,23,Ticks_Phase_5,260,1,48,42,637448620
92,6,23,Ticks_Phase_5,261,5,42,127,637452920
92,6,23,Ticks_Phase_5,262,1,48,47,637917004
92,6,23,Ticks_Phase_5,263,5,42,127,638052644
92,6,23,Ticks_Phase_5,264,5,42,127,638552580
92,6,23,Ticks_Phase_5,265,1,48,42,638563640
92,6,23,Ticks_Phase_5,266,5,42,127,639053164
92,6,23,Ticks_Phase_5,267,1,48,39,639067888
92,6,23,Ticks_Phase_5,268,5,42,127,639552852
92,6,23,Ticks_Phase_5,269,1,48,44,639568400
92,6,23,Ticks_Phase_5,270,1,48,18,639655104
92,6,23,Ticks_Phase_5,271,5,42,127,640052668
92,6,23,Ticks_Phase_5,272,1,48,38,640058852
92,6,23,Ticks_Phase_5,273,1,48,46,640542888
92,6,23,Ticks_Phase_5,274,5,42,127,640553248
92,6,23,Ticks_Phase_5,275,5,42,127,641053016
92,6,23,Ticks_Phase_5,276,1,48,32,641099564
92,6,23,Ticks_Phase_5,277,5,42,127,641552852
92,6,23,Ticks_Phase_5,278,1,48,37,641589592
92,6,23,Ticks_Phase_5,279,5,42,127,642052392
92,6,23,Ticks_Phase_5,280,1,48,37,642093260
92,6,23,Ticks_Phase_5,281,1,48,43,642537736
92,6,23,Ticks_Phase_5,282,5,42,127,642553268
92,6,23,Ticks_Phase_5,283,5,42,127,643052888
92,6,23,Ticks_Phase_5,284,1,48,30,643091884
92,6,23,Ticks_Phase_5,285,1,48,35,643510384
92,6,23,Ticks_Phase_5,286,5,42,127,643552716
92,6,23,Ticks_Phase_5,287,1,48,33,644042344
92,6,23,Ticks_Phase_5,288,5,42,127,644053232
92,6,23,Ticks_Phase_5,289,1,48,42,644552780
92,6,23,Ticks_Phase_5,290,5,42,127,644554192
92,6,23,Ticks_Phase_5,291,1,48,34,645009184
92,6,23,Ticks_Phase_5,292,5,42,127,645052832
92,6,23,Ticks_Phase_5,293,1,48,38,645531804
92,6,23,Ticks_Phase_5,294,5,42,127,645552444
92,6,23,Ticks_Phase_5,295,5,42,127,646053164
92,6,23,Ticks_Phase_5,296,1,48,43,646057332
92,6,23,Ticks_Phase_5,297,5,42,127,646552924
92,6,23,Ticks_Phase_5,298,1,48,37,646564356
92,6,23,Ticks_Phase_5,299,1,48,31,647031240
92,6,23,Ticks_Phase_5,300,5,42,127,647052680
92,6,23,Ticks_Phase_5,301,5,42,127,647453000
92,6,23,Ticks_Phase_5,302,1,48,28,647552280
92,6,23,Ticks_Phase_5,303,5,42,127,647952912
92,6,23,Ticks_Phase_5,304,1,48,36,648014220
92,6,23,Ticks_Phase_5,305,5,42,127,648452600
92,6,23,Ticks_Phase_5,306,1,48,25,648510156
92,6,23,Ticks_Phase_5,307,5,42,127,648953260
92,6,23,Ticks_Phase_5,308,1,48,40,648984388
92,6,23,Ticks_Phase_5,309,5,42,127,649452876
92,6,23,Ticks_Phase_5,310,1,48,24,649473076
92,6,23,Ticks_Phase_5,311,1,48,44,649949304
92,6,23,Ticks_Phase_5,312,5,42,127,649952556
92,6,23,Ticks_Phase_5,313,1,48,27,650453520
92,6,23,Ticks_Phase_5,314,5,42,127,650454856
92,6,23,Ticks_Phase_5,315,1,48,44,650928756
92,6,23,Ticks_Phase_5,316,5,42,127,650952980
92,6,23,Ticks_Phase_5,317,1,48,21,650999512
92,6,23,Ticks_Phase_5,318,5,42,127,651452800
92,6,23,Ticks_Phase_5,319,1,48,30,651465500
92,6,23,Ticks_Phase_5,320,1,48,46,651924572
92,6,23,Ticks_Phase_5,321,5,42,127,651952556
92,6,23,Ticks_Phase_5,322,5,42,127,652453200
92,6,23,Ticks_Phase_5,323,1,48,27,652463240
92,6,23,Ticks_Phase_5,324,1,48,40,652922524
92,6,23,Ticks_Phase_5,325,5,42,127,652952952
92,6,23,Ticks_Phase_5,326,5,42,127,653452576
92,6,23,Ticks_Phase_5,327,1,48,24,653464080
92,6,23,Ticks_Phase_5,328,1,48,43,653950568
92,6,23,Ticks_Phase_5,329,5,42,127,653953600
92,6,23,Ticks_Phase_5,330,1,48,28,654442104
92,6,23,Ticks_Phase_5,331,5,42,127,654452992
92,6,23,Ticks_Phase_5,332,1,48,41,654919020
92,6,23,Ticks_Phase_5,333,5,42,127,654952752
92,6,23,Ticks_Phase_5,334,5,42,127,655452668
92,6,23,Ticks_Phase_5,335,1,48,30,655468596
92,6,23,Ticks_Phase_5,336,1,48,43,655946780
92,6,23,Ticks_Phase_5,337,5,42,127,655953248
92,6,23,Ticks_Phase_5,338,5,42,127,656452944
92,6,23,Ticks_Phase_5,339,1,48,33,656463932
92,6,23,Ticks_Phase_5,340,1,48,41,656943008
92,6,23,Ticks_Phase_5,341,5,42,127,656952624
92,6,23,Ticks_Phase_5,0,9999,9999,9999,572430444
92,6,23,Ticks_Phase_5,1,9999,9999,9999,572930156
92,6,23,Ticks_Phase_5,2,9999,9999,9999,573430912
92,6,23,Ticks_Phase_5,3,9999,9999,9999,573930600
92,6,23,Ticks_Phase_5,4,9999,9999,9999,574430288
92,6,23,Ticks_Phase_5,5,9999,9999,9999,574931028
92,6,23,Ticks_Phase_5,6,9999,9999,9999,575430780
92,6,23,Ticks_Phase_5,7,9999,9999,9999,575930476
92,6,23,Ticks_Phase_5,8,9999,9999,9999,576430140
92,6,23,Ticks_Phase_5,9,9999,9999,9999,576930872
92,6,23,Ticks_Phase_5,10,9999,9999,9999,577430628
92,6,23,Ticks_Phase_5,11,9999,9999,9999,577930324
92,6,23,Ticks_Phase_5,12,9999,9999,9999,578431056
92,6,23,Ticks_Phase_5,13,9999,9999,9999,578930748
92,6,23,Ticks_Phase_5,14,9999,9999,9999,579430508
92,6,23,Ticks_Phase_5,15,9999,9999,9999,579930200
92,6,23,Ticks_Phase_5,16,9999,9999,9999,580430932
92,6,23,Ticks_Phase_5,17,9999,9999,9999,580930620
92,6,23,Ticks_Phase_5,18,9999,9999,9999,581430384
92,6,23,Ticks_Phase_5,19,9999,9999,9999,581931112
92,6,23,Ticks_Phase_5,20,9999,9999,9999,582441064
92,6,23,Ticks_Phase_5,21,9999,9999,9999,582940748
92,6,23,Ticks_Phase_5,22,9999,9999,9999,583440440
92,6,23,Ticks_Phase_5,23,9999,9999,9999,583940204
92,6,23,Ticks_Phase_5,24,9999,9999,9999,584440936
92,6,23,Ticks_Phase_5,25,9999,9999,9999,584940628
92,6,23,Ticks_Phase_5,26,9999,9999,9999,585440316
92,6,23,Ticks_Phase_5,27,9999,9999,9999,585941052
92,6,23,Ticks_Phase_5,28,9999,9999,9999,586440812
92,6,23,Ticks_Phase_5,29,9999,9999,9999,586940500
92,6,23,Ticks_Phase_5,30,9999,9999,9999,587431020
92,6,23,Ticks_Phase_5,31,9999,9999,9999,587930716
92,6,23,Ticks_Phase_5,32,9999,9999,9999,588430404
92,6,23,Ticks_Phase_5,33,9999,9999,9999,588930168
92,6,23,Ticks_Phase_5,34,9999,9999,9999,589430896
92,6,23,Ticks_Phase_5,35,9999,9999,9999,589930584
92,6,23,Ticks_Phase_5,36,9999,9999,9999,590430272
92,6,23,Ticks_Phase_5,37,9999,9999,9999,590931008
92,6,23,Ticks_Phase_5,38,9999,9999,9999,591430776
92,6,23,Ticks_Phase_5,39,9999,9999,9999,591930436
92,6,23,Ticks_Phase_5,40,9999,9999,9999,592430164
92,6,23,Ticks_Phase_5,41,9999,9999,9999,592930932
92,6,23,Ticks_Phase_5,42,9999,9999,9999,593430600
92,6,23,Ticks_Phase_5,43,9999,9999,9999,593930364
92,6,23,Ticks_Phase_5,44,9999,9999,9999,594431032
92,6,23,Ticks_Phase_5,45,9999,9999,9999,594930796
92,6,23,Ticks_Phase_5,46,9999,9999,9999,595430476
92,6,23,Ticks_Phase_5,47,9999,9999,9999,595930172
92,6,23,Ticks_Phase_5,48,9999,9999,9999,596440188
92,6,23,Ticks_Phase_5,49,9999,9999,9999,596940856
92,6,23,Ticks_Phase_5,50,9999,9999,9999,597440620
92,6,23,Ticks_Phase_5,51,9999,9999,9999,597940300
92,6,23,Ticks_Phase_5,52,9999,9999,9999,598441016
92,6,23,Ticks_Phase_5,53,9999,9999,9999,598940772
92,6,23,Ticks_Phase_5,54,9999,9999,9999,599440468
92,6,23,Ticks_Phase_5,55,9999,9999,9999,599940156
92,6,23,Ticks_Phase_5,56,9999,9999,9999,600440888
92,6,23,Ticks_Phase_5,57,9999,9999,9999,600940656
92,6,23,Ticks_Phase_5,58,9999,9999,9999,601440340
92,6,23,Ticks_Phase_5,59,9999,9999,9999,601941080
92,6,23,Ticks_Phase_5,60,9999,9999,9999,602440768
92,6,23,Ticks_Phase_5,61,9999,9999,9999,602940504
92,6,23,Ticks_Phase_5,62,9999,9999,9999,603440192
92,6,23,Ticks_Phase_5,63,9999,9999,9999,603940928
92,6,23,Ticks_Phase_5,64,9999,9999,9999,604460088
92,6,23,Ticks_Phase_5,65,9999,9999,9999,604960824
92,6,23,Ticks_Phase_5,66,9999,9999,9999,605460580
92,6,23,Ticks_Phase_5,67,9999,9999,9999,605960276
92,6,23,Ticks_Phase_5,68,9999,9999,9999,606461004
92,6,23,Ticks_Phase_5,69,9999,9999,9999,606960696
92,6,23,Ticks_Phase_5,70,9999,9999,9999,607460456
92,6,23,Ticks_Phase_5,71,9999,9999,9999,607960152
92,6,23,Ticks_Phase_5,72,9999,9999,9999,608460880
92,6,23,Ticks_Phase_5,73,9999,9999,9999,608960568
92,6,23,Ticks_Phase_5,74,9999,9999,9999,609460336
92,6,23,Ticks_Phase_5,75,9999,9999,9999,609961044
92,6,23,Ticks_Phase_5,76,9999,9999,9999,610460736
92,6,23,Ticks_Phase_5,77,9999,9999,9999,610960500
92,6,23,Ticks_Phase_5,78,9999,9999,9999,611460188
92,6,23,Ticks_Phase_5,79,9999,9999,9999,611960924
92,6,23,Ticks_Phase_5,80,9999,9999,9999,612460604
92,6,23,Ticks_Phase_5,81,9999,9999,9999,612940900
92,6,23,Ticks_Phase_5,82,9999,9999,9999,613440584
92,6,23,Ticks_Phase_5,83,9999,9999,9999,613940344
92,6,23,Ticks_Phase_5,84,9999,9999,9999,614441080
92,6,23,Ticks_Phase_5,85,9999,9999,9999,614940768
92,6,23,Ticks_Phase_5,86,9999,9999,9999,615440464
92,6,23,Ticks_Phase_5,87,9999,9999,9999,615940152
92,6,23,Ticks_Phase_5,88,9999,9999,9999,616440956
92,6,23,Ticks_Phase_5,89,9999,9999,9999,616940644
92,6,23,Ticks_Phase_5,90,9999,9999,9999,617440332
92,6,23,Ticks_Phase_5,91,9999,9999,9999,617941068
92,6,23,Ticks_Phase_5,92,9999,9999,9999,618440764
92,6,23,Ticks_Phase_5,93,9999,9999,9999,618940520
92,6,23,Ticks_Phase_5,94,9999,9999,9999,619440208
92,6,23,Ticks_Phase_5,95,9999,9999,9999,619940924
92,6,23,Ticks_Phase_5,96,9999,9999,9999,620440688
92,6,23,Ticks_Phase_5,97,9999,9999,9999,620890200
92,6,23,Ticks_Phase_5,98,9999,9999,9999,621390928
92,6,23,Ticks_Phase_5,99,9999,9999,9999,621890616
92,6,23,Ticks_Phase_5,100,9999,9999,9999,622390384
92,6,23,Ticks_Phase_5,101,9999,9999,9999,622891116
92,6,23,Ticks_Phase_5,102,9999,9999,9999,623401064
92,6,23,Ticks_Phase_5,103,9999,9999,9999,623900752
92,6,23,Ticks_Phase_5,104,9999,9999,9999,624400440
92,6,23,Ticks_Phase_5,105,9999,9999,9999,624900204
92,6,23,Ticks_Phase_5,106,9999,9999,9999,625400940
92,6,23,Ticks_Phase_5,107,9999,9999,9999,625900628
92,6,23,Ticks_Phase_5,108,9999,9999,9999,626400316
92,6,23,Ticks_Phase_5,109,9999,9999,9999,626901052
92,6,23,Ticks_Phase_5,110,9999,9999,9999,627400812
92,6,23,Ticks_Phase_5,111,9999,9999,9999,627900500
92,6,23,Ticks_Phase_5,112,9999,9999,9999,628400188
92,6,23,Ticks_Phase_5,113,9999,9999,9999,628900972
92,6,23,Ticks_Phase_5,114,9999,9999,9999,629450860
92,6,23,Ticks_Phase_5,115,9999,9999,9999,629950548
92,6,23,Ticks_Phase_5,116,9999,9999,9999,630450236
92,6,23,Ticks_Phase_5,117,9999,9999,9999,630951024
92,6,23,Ticks_Phase_5,118,9999,9999,9999,631450736
92,6,23,Ticks_Phase_5,119,9999,9999,9999,631950400
92,6,23,Ticks_Phase_5,120,9999,9999,9999,632450164
92,6,23,Ticks_Phase_5,121,9999,9999,9999,632950904
92,6,23,Ticks_Phase_5,122,9999,9999,9999,633450584
92,6,23,Ticks_Phase_5,123,9999,9999,9999,633950272
92,6,23,Ticks_Phase_5,124,9999,9999,9999,634451008
92,6,23,Ticks_Phase_5,125,9999,9999,9999,634950776
92,6,23,Ticks_Phase_5,126,9999,9999,9999,635450464
92,6,23,Ticks_Phase_5,127,9999,9999,9999,635950156
92,6,23,Ticks_Phase_5,128,9999,9999,9999,636450884
92,6,23,Ticks_Phase_5,129,9999,9999,9999,636950644
92,6,23,Ticks_Phase_5,130,9999,9999,9999,637450336
92,6,23,Ticks_Phase_5,131,9999,9999,9999,638050356
92,6,23,Ticks_Phase_5,132,9999,9999,9999,638550144
92,6,23,Ticks_Phase_5,133,9999,9999,9999,639050880
92,6,23,Ticks_Phase_5,134,9999,9999,9999,639550564
92,6,23,Ticks_Phase_5,135,9999,9999,9999,640050232
92,6,23,Ticks_Phase_5,136,9999,9999,9999,640551036
92,6,23,Ticks_Phase_5,137,9999,9999,9999,641050728
92,6,23,Ticks_Phase_5,138,9999,9999,9999,641550416
92,6,23,Ticks_Phase_5,139,9999,9999,9999,642050104
92,6,23,Ticks_Phase_5,140,9999,9999,9999,642550908
92,6,23,Ticks_Phase_5,141,9999,9999,9999,643050600
92,6,23,Ticks_Phase_5,142,9999,9999,9999,643550280
92,6,23,Ticks_Phase_5,143,9999,9999,9999,644051020
92,6,23,Ticks_Phase_5,144,9999,9999,9999,644550716
92,6,23,Ticks_Phase_5,145,9999,9999,9999,645050472
92,6,23,Ticks_Phase_5,146,9999,9999,9999,645550160
92,6,23,Ticks_Phase_5,147,9999,9999,9999,646050876
92,6,23,Ticks_Phase_5,148,9999,9999,9999,646550636
92,6,23,Ticks_Phase_5,149,9999,9999,9999,647050320
92,6,23,Ticks_Phase_5,150,9999,9999,9999,647450712
92,6,23,Ticks_Phase_5,151,9999,9999,9999,647950404
92,6,23,Ticks_Phase_5,152,9999,9999,9999,648450168
92,6,23,Ticks_Phase_5,153,9999,9999,9999,648950900
92,6,23,Ticks_Phase_5,154,9999,9999,9999,649450588
92,6,23,Ticks_Phase_5,155,9999,9999,9999,649950268
92,6,23,Ticks_Phase_5,156,9999,9999,9999,650451012
92,6,23,Ticks_Phase_5,157,9999,9999,9999,650950768
92,6,23,Ticks_Phase_5,158,9999,9999,9999,651450440
92,6,23,Ticks_Phase_5,159,9999,9999,9999,651950196
92,6,23,Ticks_Phase_5,160,9999,9999,9999,652450912
92,6,23,Ticks_Phase_5,161,9999,9999,9999,652950592
92,6,23,Ticks_Phase_5,162,9999,9999,9999,653450364
92,6,23,Ticks_Phase_5,163,9999,9999,9999,653951088
92,6,23,Ticks_Phase_5,164,9999,9999,9999,654450780
92,6,23,Ticks_Phase_5,165,9999,9999,9999,654950468
92,6,23,Ticks_Phase_5,166,9999,9999,9999,655450236
92,6,23,Ticks_Phase_5,167,9999,9999,9999,655950964
92,6,23,Ticks_Phase_5,168,9999,9999,9999,656450656
92,6,23,Ticks_Phase_5,169,9999,9999,9999,656950340
92,7,20,Ticks_Linear_8,0,5,42,127,668326404
92,7,20,Ticks_Linear_8,1,1,48,22,668870064
92,7,20,Ticks_Linear_8,2,5,42,127,669145552
92,7,20,Ticks_Linear_8,3,5,42,127,669965740
92,7,20,Ticks_Linear_8,4,1,48,17,670000608
92,7,20,Ticks_Linear_8,5,5,42,127,670785832
92,7,20,Ticks_Linear_8,6,1,48,24,670832604
92,7,20,Ticks_Linear_8,7,1,48,31,671581388
92,7,20,Ticks_Linear_8,8,5,42,127,671606068
92,7,20,Ticks_Linear_8,9,1,48,29,672372796
92,7,20,Ticks_Linear_8,10,5,42,127,672416424
92,7,20,Ticks_Linear_8,11,1,48,39,673171772
92,7,20,Ticks_Linear_8,12,5,42,127,673226280
92,7,20,Ticks_Linear_8,13,1,48,30,674007172
92,7,20,Ticks_Linear_8,14,5,42,127,674036116
92,7,20,Ticks_Linear_8,15,1,48,33,674802020
92,7,20,Ticks_Linear_8,16,5,42,127,674846024
92,7,20,Ticks_Linear_8,17,1,48,30,675636724
92,7,20,Ticks_Linear_8,18,5,42,127,675656156
92,7,20,Ticks_Linear_8,19,1,48,40,676450372
92,7,20,Ticks_Linear_8,20,5,42,127,676455732
92,7,20,Ticks_Linear_8,21,5,42,127,677255536
92,7,20,Ticks_Linear_8,22,1,48,36,677278732
92,7,20,Ticks_Linear_8,23,5,42,127,678056532
92,7,20,Ticks_Linear_8,24,1,48,43,678076156
92,7,20,Ticks_Linear_8,25,5,42,127,678856280
92,7,20,Ticks_Linear_8,26,1,48,29,678890852
92,7,20,Ticks_Linear_8,27,1,48,29,679650564
92,7,20,Ticks_Linear_8,28,5,42,127,679655776
92,7,20,Ticks_Linear_8,29,1,48,40,680421300
92,7,20,Ticks_Linear_8,30,5,42,127,680446360
92,7,20,Ticks_Linear_8,31,5,42,127,681235832
92,7,20,Ticks_Linear_8,32,1,48,42,681248092
92,7,20,Ticks_Linear_8,33,5,42,127,682026416
92,7,20,Ticks_Linear_8,34,1,48,39,682038604
92,7,20,Ticks_Linear_8,35,1,48,34,682809620
92,7,20,Ticks_Linear_8,36,5,42,127,682815800
92,7,20,Ticks_Linear_8,37,5,42,127,683606472
92,7,20,Ticks_Linear_8,38,1,48,36,683628464
92,7,20,Ticks_Linear_8,39,5,42,127,684385752
92,7,20,Ticks_Linear_8,40,1,48,36,684404228
92,7,20,Ticks_Linear_8,41,5,42,127,685166004
92,7,20,Ticks_Linear_8,42,1,48,25,685189792
92,7,20,Ticks_Linear_8,43,5,42,127,685946476
92,7,20,Ticks_Linear_8,44,1,48,47,685957168
92,7,20,Ticks_Linear_8,45,5,42,127,686725460
92,7,20,Ticks_Linear_8,46,1,48,41,686731120
92,7,20,Ticks_Linear_8,47,5,42,127,687505712
92,7,20,Ticks_Linear_8,48,1,48,42,687516776
92,7,20,Ticks_Linear_8,49,1,48,41,688270712
92,7,20,Ticks_Linear_8,50,5,42,127,688275776
92,7,20,Ticks_Linear_8,51,5,42,127,689045848
92,7,20,Ticks_Linear_8,52,1,48,40,689117448
92,7,20,Ticks_Linear_8,53,5,42,127,689816140
92,7,20,Ticks_Linear_8,54,1,48,36,689947796
92,7,20,Ticks_Linear_8,55,5,42,127,690585984
92,7,20,Ticks_Linear_8,56,1,48,22,691061240
92,7,20,Ticks_Linear_8,57,5,42,127,691356128
92,7,20,Ticks_Linear_8,58,1,48,29,691611636
92,7,20,Ticks_Linear_8,59,1,48,33,692114196
92,7,20,Ticks_Linear_8,60,5,42,127,692115704
92,7,20,Ticks_Linear_8,61,1,48,36,692726520
92,7,20,Ticks_Linear_8,62,5,42,127,692875576
92,7,20,Ticks_Linear_8,63,1,48,39,693518080
92,7,20,Ticks_Linear_8,64,5,42,127,693635456
92,7,20,Ticks_Linear_8,65,1,48,41,694356820
92,7,20,Ticks_Linear_8,66,5,42,127,694396400
92,7,20,Ticks_Linear_8,67,5,42,127,695156220
92,7,20,Ticks_Linear_8,68,1,48,36,695195436
92,7,20,Ticks_Linear_8,69,5,42,127,695905768
92,7,20,Ticks_Linear_8,70,1,48,44,695930084
92,7,20,Ticks_Linear_8,71,5,42,127,696656140
92,7,20,Ticks_Linear_8,72,1,48,44,696679180
92,7,20,Ticks_Linear_8,73,1,48,30,697398152
92,7,20,Ticks_Linear_8,74,5,42,127,697405684
92,7,20,Ticks_Linear_8,75,5,42,127,698156292
92,7,20,Ticks_Linear_8,76,1,48,35,698173180
92,7,20,Ticks_Linear_8,77,1,48,44,698884376
92,7,20,Ticks_Linear_8,78,5,42,127,698905904
92,7,20,Ticks_Linear_8,79,5,42,127,699646248
92,7,20,Ticks_Linear_8,80,1,48,40,699669064
92,7,20,Ticks_Linear_8,81,5,42,127,700385540
92,7,20,Ticks_Linear_8,82,1,48,32,700396152
92,7,20,Ticks_Linear_8,83,5,42,127,701126028
92,7,20,Ticks_Linear_8,84,1,48,40,701157460
92,7,20,Ticks_Linear_8,85,1,48,41,701804216
92,7,20,Ticks_Linear_8,86,5,42,127,701866256
92,7,20,Ticks_Linear_8,87,1,48,37,702594204
92,7,20,Ticks_Linear_8,88,5,42,127,702605624
92,7,20,Ticks_Linear_8,89,5,42,127,703336004
92,7,20,Ticks_Linear_8,90,1,48,34,703345344
92,7,20,Ticks_Linear_8,91,5,42,127,704065932
92,7,20,Ticks_Linear_8,92,1,48,34,704079092
92,7,20,Ticks_Linear_8,93,1,48,37,704764440
92,7,20,Ticks_Linear_8,94,5,42,127,704796004
92,7,20,Ticks_Linear_8,95,1,48,30,705512332
92,7,20,Ticks_Linear_8,96,5,42,127,705526232
92,7,20,Ticks_Linear_8,97,1,48,37,706198208
92,7,20,Ticks_Linear_8,98,5,42,127,706256236
92,7,20,Ticks_Linear_8,99,5,42,127,706976184
92,7,20,Ticks_Linear_8,100,1,48,31,706987648
92,7,20,Ticks_Linear_8,101,1,48,35,707691012
92,7,20,Ticks_Linear_8,102,5,42,127,707695928
92,7,20,Ticks_Linear_8,103,5,42,127,708416048
92,7,20,Ticks_Linear_8,104,1,48,37,708426436
92,7,20,Ticks_Linear_8,105,1,48,34,709124444
92,7,20,Ticks_Linear_8,106,5,42,127,709135860
92,7,20,Ticks_Linear_8,107,5,42,127,709855836
92,7,20,Ticks_Linear_8,108,1,48,30,709884720
92,7,20,Ticks_Linear_8,109,5,42,127,710566196
92,7,20,Ticks_Linear_8,110,1,48,39,710609776
92,7,20,Ticks_Linear_8,111,5,42,127,711275980
92,7,20,Ticks_Linear_8,112,1,48,27,711291528
92,7,20,Ticks_Linear_8,113,1,48,37,711914504
92,7,20,Ticks_Linear_8,114,5,42,127,711985460
92,7,20,Ticks_Linear_8,115,5,42,127,712696072
92,7,20,Ticks_Linear_8,116,1,48,21,712715892
92,7,20,Ticks_Linear_8,117,5,42,127,713406004
92,7,20,Ticks_Linear_8,118,1,48,37,713419236
92,7,20,Ticks_Linear_8,119,5,42,127,714106180
92,7,20,Ticks_Linear_8,120,1,48,37,714174932
92,7,20,Ticks_Linear_8,121,1,48,32,714768592
92,7,20,Ticks_Linear_8,122,5,42,127,714805772
92,7,20,Ticks_Linear_8,123,1,48,39,715418364
92,7,20,Ticks_Linear_8,124,5,42,127,715506048
92,7,20,Ticks_Linear_8,125,1,48,46,716108904
92,7,20,Ticks_Linear_8,126,1,48,18,716199340
92,7,20,Ticks_Linear_8,127,5,42,127,716205400
92,7,20,Ticks_Linear_8,128,1,48,39,716851832
92,7,20,Ticks_Linear_8,129,5,42,127,716905724
92,7,20,Ticks_Linear_8,130,5,42,127,717595896
92,7,20,Ticks_Linear_8,131,1,48,27,717634592
92,7,20,Ticks_Linear_8,132,5,42,127,718286056
92,7,20,Ticks_Linear_8,133,1,48,29,718365940
92,7,20,Ticks_Linear_8,134,5,42,127,718976344
92,7,20,Ticks_Linear_8,135,1,48,22,719015636
92,7,20,Ticks_Linear_8,136,5,42,127,719665388
92,7,20,Ticks_Linear_8,137,1,48,19,719729840
92,7,20,Ticks_Linear_8,138,5,42,127,720355996
92,7,20,Ticks_Linear_8,139,1,48,16,720455952
92,7,20,Ticks_Linear_8,140,1,48,22,720995312
92,7,20,Ticks_Linear_8,141,5,42,127,721035720
92,7,20,Ticks_Linear_8,142,1,48,29,721655828
92,7,20,Ticks_Linear_8,143,5,42,127,721715696
92,7,20,Ticks_Linear_8,144,1,48,28,722363816
92,7,20,Ticks_Linear_8,145,5,42,127,722395452
92,7,20,Ticks_Linear_8,146,1,48,29,723055520
92,7,20,Ticks_Linear_8,147,5,42,127,723075408
92,7,20,Ticks_Linear_8,148,1,48,29,723738944
92,7,20,Ticks_Linear_8,149,5,42,127,723756288
92,7,20,Ticks_Linear_8,150,5,42,127,724426084
92,7,20,Ticks_Linear_8,151,1,48,26,724432492
92,7,20,Ticks_Linear_8,152,1,48,25,725064808
92,7,20,Ticks_Linear_8,153,5,42,127,725095772
92,7,20,Ticks_Linear_8,154,5,42,127,725765720
92,7,20,Ticks_Linear_8,155,1,48,25,725771008
92,7,20,Ticks_Linear_8,156,1,48,26,726376280
92,7,20,Ticks_Linear_8,157,5,42,127,726436084
92,7,20,Ticks_Linear_8,158,1,48,32,727074092
92,7,20,Ticks_Linear_8,159,5,42,127,727105808
92,7,20,Ticks_Linear_8,160,1,48,26,727737140
92,7,20,Ticks_Linear_8,161,5,42,127,727766612
92,7,20,Ticks_Linear_8,162,1,48,33,728388864
92,7,20,Ticks_Linear_8,163,5,42,127,728425896
92,7,20,Ticks_Linear_8,164,5,42,127,729086188
92,7,20,Ticks_Linear_8,165,1,48,36,729098892
92,7,20,Ticks_Linear_8,166,1,48,38,729719288
92,7,20,Ticks_Linear_8,167,5,42,127,729745764
92,7,20,Ticks_Linear_8,168,1,48,37,730401960
92,7,20,Ticks_Linear_8,169,5,42,127,730406196
92,7,20,Ticks_Linear_8,170,1,48,34,731029648
92,7,20,Ticks_Linear_8,171,5,42,127,731055696
92,7,20,Ticks_Linear_8,172,1,48,34,731704264
92,7,20,Ticks_Linear_8,173,5,42,127,731705624
92,7,20,Ticks_Linear_8,174,1,48,37,732333668
92,7,20,Ticks_Linear_8,175,5,42,127,732356020
92,7,20,Ticks_Linear_8,176,1,48,32,732956704
92,7,20,Ticks_Linear_8,177,5,42,127,733006168
92,7,20,Ticks_Linear_8,178,1,48,36,733614740
92,7,20,Ticks_Linear_8,179,5,42,127,733656640
92,7,20,Ticks_Linear_8,180,1,48,41,734261588
92,7,20,Ticks_Linear_8,181,5,42,127,734296456
92,7,20,Ticks_Linear_8,182,1,48,39,734908992
92,7,20,Ticks_Linear_8,183,5,42,127,734936444
92,7,20,Ticks_Linear_8,184,1,48,40,735498484
92,7,20,Ticks_Linear_8,185,5,42,127,735576484
92,7,20,Ticks_Linear_8,186,1,48,37,736133588
92,7,20,Ticks_Linear_8,187,5,42,127,736216620
92,7,20,Ticks_Linear_8,188,1,48,38,736795140
92,7,20,Ticks_Linear_8,189,5,42,127,736856660
92,7,20,Ticks_Linear_8,190,1,48,28,737439740
92,7,20,Ticks_Linear_8,191,5,42,127,737496500
92,7,20,Ticks_Linear_8,192,1,48,36,738082276
92,7,20,Ticks_Linear_8,193,5,42,127,738136540
92,7,20,Ticks_Linear_8,194,1,48,34,738731920
92,7,20,Ticks_Linear_8,195,5,42,127,738776528
92,7,20,Ticks_Linear_8,196,5,42,127,739416796
92,7,20,Ticks_Linear_8,197,1,48,35,739420064
92,7,20,Ticks_Linear_8,198,5,42,127,740056564
92,7,20,Ticks_Linear_8,199,1,48,34,740078404
92,7,20,Ticks_Linear_8,200,5,42,127,740686192
92,7,20,Ticks_Linear_8,201,1,48,36,740695680
92,7,20,Ticks_Linear_8,202,1,48,25,741282896
92,7,20,Ticks_Linear_8,203,5,42,127,741305656
92,7,20,Ticks_Linear_8,204,1,48,35,741875632
92,7,20,Ticks_Linear_8,205,5,42,127,741926448
92,7,20,Ticks_Linear_8,206,5,42,127,742545752
92,7,20,Ticks_Linear_8,207,1,48,31,742550888
92,7,20,Ticks_Linear_8,208,1,48,32,743148848
92,7,20,Ticks_Linear_8,209,5,42,127,743166560
92,7,20,Ticks_Linear_8,210,5,42,127,743775604
92,7,20,Ticks_Linear_8,211,1,48,33,743786668
92,7,20,Ticks_Linear_8,212,5,42,127,744386012
92,7,20,Ticks_Linear_8,213,1,48,30,744388984
92,7,20,Ticks_Linear_8,214,1,48,36,744970436
92,7,20,Ticks_Linear_8,215,5,42,127,744996464
92,7,20,Ticks_Linear_8,216,5,42,127,745605436
92,7,20,Ticks_Linear_8,217,1,48,31,745608180
92,7,20,Ticks_Linear_8,218,1,48,36,746192500
92,7,20,Ticks_Linear_8,219,5,42,127,746215688
92,7,20,Ticks_Linear_8,220,5,42,127,746815744
92,7,20,Ticks_Linear_8,221,1,48,36,746861168
92,7,20,Ticks_Linear_8,222,1,48,30,747410124
92,7,20,Ticks_Linear_8,223,5,42,127,747415932
92,7,20,Ticks_Linear_8,224,1,48,33,747956956
92,7,20,Ticks_Linear_8,225,5,42,127,748016080
92,7,20,Ticks_Linear_8,226,1,48,29,748602828
92,7,20,Ticks_Linear_8,227,5,42,127,748616132
92,7,20,Ticks_Linear_8,228,1,48,28,749184172
92,7,20,Ticks_Linear_8,229,5,42,127,749216256
92,7,20,Ticks_Linear_8,230,5,42,127,749805928
92,7,20,Ticks_Linear_8,231,1,48,34,749828068
92,7,20,Ticks_Linear_8,232,1,48,27,750369980
92,7,20,Ticks_Linear_8,233,5,42,127,750395708
92,7,20,Ticks_Linear_8,234,5,42,127,750985656
92,7,20,Ticks_Linear_8,235,1,48,30,750995820
92,7,20,Ticks_Linear_8,236,1,48,35,751516688
92,7,20,Ticks_Linear_8,237,5,42,127,751576364
92,7,20,Ticks_Linear_8,238,1,48,31,752132184
92,7,20,Ticks_Linear_8,239,5,42,127,752175440
92,7,20,Ticks_Linear_8,240,1,48,36,752725872
92,7,20,Ticks_Linear_8,241,5,42,127,752755944
92,7,20,Ticks_Linear_8,242,1,48,32,753308320
92,7,20,Ticks_Linear_8,243,5,42,127,753335648
92,7,20,Ticks_Linear_8,244,1,48,26,753871396
92,7,20,Ticks_Linear_8,245,5,42,127,753916296
92,7,20,Ticks_Linear_8,246,1,48,32,754491964
92,7,20,Ticks_Linear_8,247,5,42,127,754495756
92,7,20,Ticks_Linear_8,248,1,48,34,755040940
92,7,20,Ticks_Linear_8,249,5,42,127,755075436
92,7,20,Ticks_Linear_8,250,5,42,127,755645788
92,7,20,Ticks_Linear_8,251,1,48,21,755659016
92,7,20,Ticks_Linear_8,252,1,48,33,756192684
92,7,20,Ticks_Linear_8,253,5,42,127,756216320
92,7,20,Ticks_Linear_8,254,5,42,127,756785672
92,7,20,Ticks_Linear_8,255,1,48,32,756795836
92,7,20,Ticks_Linear_8,256,5,42,127,757355844
92,7,20,Ticks_Linear_8,257,1,48,21,757366004
92,7,20,Ticks_Linear_8,258,5,42,127,757926308
92,7,20,Ticks_Linear_8,259,1,48,37,757937920
92,7,20,Ticks_Linear_8,260,5,42,127,758486320
92,7,20,Ticks_Linear_8,261,1,48,30,758492504
92,7,20,Ticks_Linear_8,262,1,48,34,759032620
92,7,20,Ticks_Linear_8,263,5,42,127,759045476
92,7,20,Ticks_Linear_8,264,1,48,35,759567148
92,7,20,Ticks_Linear_8,265,5,42,127,759605608
92,7,20,Ticks_Linear_8,266,5,42,127,760165748
92,7,20,Ticks_Linear_8,267,1,48,33,760203548
92,7,20,Ticks_Linear_8,268,5,42,127,760725956
92,7,20,Ticks_Linear_8,269,1,48,35,760769840
92,7,20,Ticks_Linear_8,270,1,48,33,761252488
92,7,20,Ticks_Linear_8,271,5,42,127,761275628
92,7,20,Ticks_Linear_8,272,1,48,34,761788912
92,7,20,Ticks_Linear_8,273,5,42,127,761825724
92,7,20,Ticks_Linear_8,274,1,48,35,762361024
92,7,20,Ticks_Linear_8,275,5,42,127,762375524
92,7,20,Ticks_Linear_8,276,1,48,34,762897500
92,7,20,Ticks_Linear_8,277,5,42,127,762925396
92,7,20,Ticks_Linear_8,278,1,48,35,763444308
92,7,20,Ticks_Linear_8,279,5,42,127,763476316
92,7,20,Ticks_Linear_8,280,1,48,35,763967968
92,7,20,Ticks_Linear_8,281,5,42,127,764016232
92,7,20,Ticks_Linear_8,282,5,42,127,764555708
92,7,20,Ticks_Linear_8,283,1,48,40,764564148
92,7,20,Ticks_Linear_8,284,1,48,32,765091976
92,7,20,Ticks_Linear_8,285,5,42,127,765096752
92,7,20,Ticks_Linear_8,286,1,48,32,765615064
92,7,20,Ticks_Linear_8,287,5,42,127,765636220
92,7,20,Ticks_Linear_8,288,1,48,21,766171072
92,7,20,Ticks_Linear_8,289,5,42,127,766175464
92,7,20,Ticks_Linear_8,290,1,48,24,766646212
92,7,20,Ticks_Linear_8,291,5,42,127,766706312
92,7,20,Ticks_Linear_8,292,1,48,22,767219672
92,7,20,Ticks_Linear_8,293,5,42,127,767235448
92,7,20,Ticks_Linear_8,294,1,48,23,767726724
92,7,20,Ticks_Linear_8,295,5,42,127,767766072
92,7,20,Ticks_Linear_8,296,1,48,23,768295880
92,7,20,Ticks_Linear_8,297,5,42,127,768297376
92,7,20,Ticks_Linear_8,298,1,48,29,768814860
92,7,20,Ticks_Linear_8,299,5,42,127,768825688
92,7,20,Ticks_Linear_8,300,1,48,29,769313880
92,7,20,Ticks_Linear_8,301,5,42,127,769346204
92,7,20,Ticks_Linear_8,302,1,48,28,769842264
92,7,20,Ticks_Linear_8,303,5,42,127,769866196
92,7,20,Ticks_Linear_8,304,5,42,127,770386200
92,7,20,Ticks_Linear_8,305,1,48,29,770387168
92,7,20,Ticks_Linear_8,306,1,48,31,770889296
92,7,20,Ticks_Linear_8,307,5,42,127,770905440
92,7,20,Ticks_Linear_8,308,1,48,35,771376040
92,7,20,Ticks_Linear_8,309,5,42,127,771425808
92,7,20,Ticks_Linear_8,310,1,48,29,771907120
92,7,20,Ticks_Linear_8,311,5,42,127,771935544
92,7,20,Ticks_Linear_8,312,1,48,27,772425468
92,7,20,Ticks_Linear_8,313,5,42,127,772445428
92,7,20,Ticks_Linear_8,314,1,48,23,772900144
92,7,20,Ticks_Linear_8,315,5,42,127,772955528
92,7,20,Ticks_Linear_8,316,1,48,18,773438412
92,7,20,Ticks_Linear_8,317,5,42,127,773465340
92,7,20,Ticks_Linear_8,318,1,48,16,773923276
92,7,20,Ticks_Linear_8,319,5,42,127,773976424
92,7,20,Ticks_Linear_8,320,1,48,18,774448152
92,7,20,Ticks_Linear_8,321,5,42,127,774486384
92,7,20,Ticks_Linear_8,322,1,48,13,774940356
92,7,20,Ticks_Linear_8,323,5,42,127,774986152
92,7,20,Ticks_Linear_8,324,5,42,127,775485936
92,7,20,Ticks_Linear_8,325,1,48,13,775518860
92,7,20,Ticks_Linear_8,326,1,48,24,775911448
92,7,20,Ticks_Linear_8,327,5,42,127,775985404
92,7,20,Ticks_Linear_8,328,1,48,24,776452704
92,7,20,Ticks_Linear_8,329,5,42,127,776486304
92,7,20,Ticks_Linear_8,330,5,42,127,776975676
92,7,20,Ticks_Linear_8,331,1,48,29,777453176
92,7,20,Ticks_Linear_8,332,5,42,127,777466180
92,7,20,Ticks_Linear_8,333,1,48,32,777945544
92,7,20,Ticks_Linear_8,334,5,42,127,777955840
92,7,20,Ticks_Linear_8,335,5,42,127,778446116
92,7,20,Ticks_Linear_8,336,1,48,30,778457548
92,7,20,Ticks_Linear_8,337,1,48,31,778933960
92,7,20,Ticks_Linear_8,338,5,42,127,778935548
92,7,20,Ticks_Linear_8,0,9999,9999,9999,668323956
92,7,20,Ticks_Linear_8,1,9999,9999,9999,669143104
92,7,20,Ticks_Linear_8,2,9999,9999,9999,669963364
92,7,20,Ticks_Linear_8,3,9999,9999,9999,670783608
92,7,20,Ticks_Linear_8,4,9999,9999,9999,671603768
92,7,20,Ticks_Linear_8,5,9999,9999,9999,672413752
92,7,20,Ticks_Linear_8,6,9999,9999,9999,673223760
92,7,20,Ticks_Linear_8,7,9999,9999,9999,674033740
92,7,20,Ticks_Linear_8,8,9999,9999,9999,674843724
92,7,20,Ticks_Linear_8,9,9999,9999,9999,675653708
92,7,20,Ticks_Linear_8,10,9999,9999,9999,676453432
92,7,20,Ticks_Linear_8,11,9999,9999,9999,677253240
92,7,20,Ticks_Linear_8,12,9999,9999,9999,678054008
92,7,20,Ticks_Linear_8,13,9999,9999,9999,678853760
92,7,20,Ticks_Linear_8,14,9999,9999,9999,679653476
92,7,20,Ticks_Linear_8,15,9999,9999,9999,680443988
92,7,20,Ticks_Linear_8,16,9999,9999,9999,681233532
92,7,20,Ticks_Linear_8,17,9999,9999,9999,682024044
92,7,20,Ticks_Linear_8,18,9999,9999,9999,682813504
92,7,20,Ticks_Linear_8,19,9999,9999,9999,683604096
92,7,20,Ticks_Linear_8,20,9999,9999,9999,684383304
92,7,20,Ticks_Linear_8,21,9999,9999,9999,685163628
92,7,20,Ticks_Linear_8,22,9999,9999,9999,685943880
92,7,20,Ticks_Linear_8,23,9999,9999,9999,686723160
92,7,20,Ticks_Linear_8,24,9999,9999,9999,687503488
92,7,20,Ticks_Linear_8,25,9999,9999,9999,688273476
92,7,20,Ticks_Linear_8,26,9999,9999,9999,689043548
92,7,20,Ticks_Linear_8,27,9999,9999,9999,689813620
92,7,20,Ticks_Linear_8,28,9999,9999,9999,690583612
92,7,20,Ticks_Linear_8,29,9999,9999,9999,691353680
92,7,20,Ticks_Linear_8,30,9999,9999,9999,692113488
92,7,20,Ticks_Linear_8,31,9999,9999,9999,692873276
92,7,20,Ticks_Linear_8,32,9999,9999,9999,693633084
92,7,20,Ticks_Linear_8,33,9999,9999,9999,694393956
92,7,20,Ticks_Linear_8,34,9999,9999,9999,695153768
92,7,20,Ticks_Linear_8,35,9999,9999,9999,695903320
92,7,20,Ticks_Linear_8,36,9999,9999,9999,696653916
92,7,20,Ticks_Linear_8,37,9999,9999,9999,697403460
92,7,20,Ticks_Linear_8,38,9999,9999,9999,698154064
92,7,20,Ticks_Linear_8,39,9999,9999,9999,698903608
92,7,20,Ticks_Linear_8,40,9999,9999,9999,699644024
92,7,20,Ticks_Linear_8,41,9999,9999,9999,700383316
92,7,20,Ticks_Linear_8,42,9999,9999,9999,701123652
92,7,20,Ticks_Linear_8,43,9999,9999,9999,701864032
92,7,20,Ticks_Linear_8,44,9999,9999,9999,702603324
92,7,20,Ticks_Linear_8,45,9999,9999,9999,703333484
92,7,20,Ticks_Linear_8,46,9999,9999,9999,704063560
92,7,20,Ticks_Linear_8,47,9999,9999,9999,704793708
92,7,20,Ticks_Linear_8,48,9999,9999,9999,705523784
92,7,20,Ticks_Linear_8,49,9999,9999,9999,706253936
92,7,20,Ticks_Linear_8,50,9999,9999,9999,706973812
92,7,20,Ticks_Linear_8,51,9999,9999,9999,707693628
92,7,20,Ticks_Linear_8,52,9999,9999,9999,708413528
92,7,20,Ticks_Linear_8,53,9999,9999,9999,709133412
92,7,20,Ticks_Linear_8,54,9999,9999,9999,709853240
92,7,20,Ticks_Linear_8,55,9999,9999,9999,710563896
92,7,20,Ticks_Linear_8,56,9999,9999,9999,711273532
92,7,20,Ticks_Linear_8,57,9999,9999,9999,711983160
92,7,20,Ticks_Linear_8,58,9999,9999,9999,712693848
92,7,20,Ticks_Linear_8,59,9999,9999,9999,713403480
92,7,20,Ticks_Linear_8,60,9999,9999,9999,714103880
92,7,20,Ticks_Linear_8,61,9999,9999,9999,714803328
92,7,20,Ticks_Linear_8,62,9999,9999,9999,715503672
92,7,20,Ticks_Linear_8,63,9999,9999,9999,716203100
92,7,20,Ticks_Linear_8,64,9999,9999,9999,716903500
92,7,20,Ticks_Linear_8,65,9999,9999,9999,717593668
92,7,20,Ticks_Linear_8,66,9999,9999,9999,718283832
92,7,20,Ticks_Linear_8,67,9999,9999,9999,718974044
92,7,20,Ticks_Linear_8,68,9999,9999,9999,719663160
92,7,20,Ticks_Linear_8,69,9999,9999,9999,720353396
92,7,20,Ticks_Linear_8,70,9999,9999,9999,721033272
92,7,20,Ticks_Linear_8,71,9999,9999,9999,721713252
92,7,20,Ticks_Linear_8,72,9999,9999,9999,722393156
92,7,20,Ticks_Linear_8,73,9999,9999,9999,723073108
92,7,20,Ticks_Linear_8,74,9999,9999,9999,723754060
92,7,20,Ticks_Linear_8,75,9999,9999,9999,724423784
92,7,20,Ticks_Linear_8,76,9999,9999,9999,725093472
92,7,20,Ticks_Linear_8,77,9999,9999,9999,725763200
92,7,20,Ticks_Linear_8,78,9999,9999,9999,726433860
92,7,20,Ticks_Linear_8,79,9999,9999,9999,727103580
92,7,20,Ticks_Linear_8,80,9999,9999,9999,727764088
92,7,20,Ticks_Linear_8,81,9999,9999,9999,728423524
92,7,20,Ticks_Linear_8,82,9999,9999,9999,729083964
92,7,20,Ticks_Linear_8,83,9999,9999,9999,729743464
92,7,20,Ticks_Linear_8,84,9999,9999,9999,730403896
92,7,20,Ticks_Linear_8,85,9999,9999,9999,731053176
92,7,20,Ticks_Linear_8,86,9999,9999,9999,731703404
92,7,20,Ticks_Linear_8,87,9999,9999,9999,732353644
92,7,20,Ticks_Linear_8,88,9999,9999,9999,733003868
92,7,20,Ticks_Linear_8,89,9999,9999,9999,733654116
92,7,20,Ticks_Linear_8,90,9999,9999,9999,734294080
92,7,20,Ticks_Linear_8,91,9999,9999,9999,734934144
92,7,20,Ticks_Linear_8,92,9999,9999,9999,735574108
92,7,20,Ticks_Linear_8,93,9999,9999,9999,736214096
92,7,20,Ticks_Linear_8,94,9999,9999,9999,736854136
92,7,20,Ticks_Linear_8,95,9999,9999,9999,737494124
92,7,20,Ticks_Linear_8,96,9999,9999,9999,738134092
92,7,20,Ticks_Linear_8,97,9999,9999,9999,738774080
92,7,20,Ticks_Linear_8,98,9999,9999,9999,739414124
92,7,20,Ticks_Linear_8,99,9999,9999,9999,740054112
92,7,20,Ticks_Linear_8,100,9999,9999,9999,740683892
92,7,20,Ticks_Linear_8,101,9999,9999,9999,741303356
92,7,20,Ticks_Linear_8,102,9999,9999,9999,741923924
92,7,20,Ticks_Linear_8,103,9999,9999,9999,742543452
92,7,20,Ticks_Linear_8,104,9999,9999,9999,743163964
92,7,20,Ticks_Linear_8,105,9999,9999,9999,743773304
92,7,20,Ticks_Linear_8,106,9999,9999,9999,744383564
92,7,20,Ticks_Linear_8,107,9999,9999,9999,744993864
92,7,20,Ticks_Linear_8,108,9999,9999,9999,745603136
92,7,20,Ticks_Linear_8,109,9999,9999,9999,746213464
92,7,20,Ticks_Linear_8,110,9999,9999,9999,746813520
92,7,20,Ticks_Linear_8,111,9999,9999,9999,747413560
92,7,20,Ticks_Linear_8,112,9999,9999,9999,748013632
92,7,20,Ticks_Linear_8,113,9999,9999,9999,748613756
92,7,20,Ticks_Linear_8,114,9999,9999,9999,749213808
92,7,20,Ticks_Linear_8,115,9999,9999,9999,749803628
92,7,20,Ticks_Linear_8,116,9999,9999,9999,750393412
92,7,20,Ticks_Linear_8,117,9999,9999,9999,750983280
92,7,20,Ticks_Linear_8,118,9999,9999,9999,751574136
92,7,20,Ticks_Linear_8,119,9999,9999,9999,752173140
92,7,20,Ticks_Linear_8,120,9999,9999,9999,752753720
92,7,20,Ticks_Linear_8,121,9999,9999,9999,753333348
92,7,20,Ticks_Linear_8,122,9999,9999,9999,753913924
92,7,20,Ticks_Linear_8,123,9999,9999,9999,754493532
92,7,20,Ticks_Linear_8,124,9999,9999,9999,755073136
92,7,20,Ticks_Linear_8,125,9999,9999,9999,755643488
92,7,20,Ticks_Linear_8,126,9999,9999,9999,756213872
92,7,20,Ticks_Linear_8,127,9999,9999,9999,756783224
92,7,20,Ticks_Linear_8,128,9999,9999,9999,757353544
92,7,20,Ticks_Linear_8,129,9999,9999,9999,757923936
92,7,20,Ticks_Linear_8,130,9999,9999,9999,758484096
92,7,20,Ticks_Linear_8,131,9999,9999,9999,759043176
92,7,20,Ticks_Linear_8,132,9999,9999,9999,759603312
92,7,20,Ticks_Linear_8,133,9999,9999,9999,760163448
92,7,20,Ticks_Linear_8,134,9999,9999,9999,760723584
92,7,20,Ticks_Linear_8,135,9999,9999,9999,761273400
92,7,20,Ticks_Linear_8,136,9999,9999,9999,761823348
92,7,20,Ticks_Linear_8,137,9999,9999,9999,762373224
92,7,20,Ticks_Linear_8,138,9999,9999,9999,762923100
92,7,20,Ticks_Linear_8,139,9999,9999,9999,763474016
92,7,20,Ticks_Linear_8,140,9999,9999,9999,764013636
92,7,20,Ticks_Linear_8,141,9999,9999,9999,764553332
92,7,20,Ticks_Linear_8,142,9999,9999,9999,765093988
92,7,20,Ticks_Linear_8,143,9999,9999,9999,765633624
92,7,20,Ticks_Linear_8,144,9999,9999,9999,766173240
92,7,20,Ticks_Linear_8,145,9999,9999,9999,766703716
92,7,20,Ticks_Linear_8,146,9999,9999,9999,767233148
92,7,20,Ticks_Linear_8,147,9999,9999,9999,767763552
92,7,20,Ticks_Linear_8,148,9999,9999,9999,768293960
92,7,20,Ticks_Linear_8,149,9999,9999,9999,768823388
92,7,20,Ticks_Linear_8,150,9999,9999,9999,769343604
92,7,20,Ticks_Linear_8,151,9999,9999,9999,769863748
92,7,20,Ticks_Linear_8,152,9999,9999,9999,770383976
92,7,20,Ticks_Linear_8,153,9999,9999,9999,770903140
92,7,20,Ticks_Linear_8,154,9999,9999,9999,771423360
92,7,20,Ticks_Linear_8,155,9999,9999,9999,771933244
92,7,20,Ticks_Linear_8,156,9999,9999,9999,772443204
92,7,20,Ticks_Linear_8,157,9999,9999,9999,772953156
92,7,20,Ticks_Linear_8,158,9999,9999,9999,773463116
92,7,20,Ticks_Linear_8,159,9999,9999,9999,773974124
92,7,20,Ticks_Linear_8,160,9999,9999,9999,774484080
92,7,20,Ticks_Linear_8,161,9999,9999,9999,774983780
92,7,20,Ticks_Linear_8,162,9999,9999,9999,775483488
92,7,20,Ticks_Linear_8,163,9999,9999,9999,775983180
92,7,20,Ticks_Linear_8,164,9999,9999,9999,776483928
92,7,20,Ticks_Linear_8,165,9999,9999,9999,776973376
92,7,20,Ticks_Linear_8,166,9999,9999,9999,777463880
92,7,20,Ticks_Linear_8,167,9999,9999,9999,777953396
92,7,20,Ticks_Linear_8,168,9999,9999,9999,778443888
92,7,20,Ticks_Linear_8,169,9999,9999,9999,778933348
92,8,21,Ticks_Linear_5,0,5,42,127,789795172
92,8,21,Ticks_Linear_5,1,5,42,127,790274376
92,8,21,Ticks_Linear_5,2,5,42,127,790754772
92,8,21,Ticks_Linear_5,3,1,48,36,791190840
92,8,21,Ticks_Linear_5,4,5,42,127,791234796
92,8,21,Ticks_Linear_5,5,1,48,47,791694740
92,8,21,Ticks_Linear_5,6,5,42,127,791715148
92,8,21,Ticks_Linear_5,7,1,48,40,792178332
92,8,21,Ticks_Linear_5,8,5,42,127,792204808
92,8,21,Ticks_Linear_5,9,1,48,39,792665756
92,8,21,Ticks_Linear_5,10,5,42,127,792695224
92,8,21,Ticks_Linear_5,11,1,48,40,793137892
92,8,21,Ticks_Linear_5,12,5,42,127,793184740
92,8,21,Ticks_Linear_5,13,1,48,43,793671064
92,8,21,Ticks_Linear_5,14,5,42,127,793675228
92,8,21,Ticks_Linear_5,15,1,48,33,794149052
92,8,21,Ticks_Linear_5,16,5,42,127,794164892
92,8,21,Ticks_Linear_5,17,1,48,39,794640736
92,8,21,Ticks_Linear_5,18,5,42,127,794665268
92,8,21,Ticks_Linear_5,19,1,48,37,795119768
92,8,21,Ticks_Linear_5,20,5,42,127,795165116
92,8,21,Ticks_Linear_5,21,1,48,38,795652648
92,8,21,Ticks_Linear_5,22,5,42,127,795665040
92,8,21,Ticks_Linear_5,23,1,48,40,796137216
92,8,21,Ticks_Linear_5,24,5,42,127,796164516
92,8,21,Ticks_Linear_5,25,1,48,37,796583376
92,8,21,Ticks_Linear_5,26,5,42,127,796665116
92,8,21,Ticks_Linear_5,27,1,48,44,797138784
92,8,21,Ticks_Linear_5,28,5,42,127,797175076
92,8,21,Ticks_Linear_5,29,1,48,36,797652928
92,8,21,Ticks_Linear_5,30,5,42,127,797685108
92,8,21,Ticks_Linear_5,31,1,48,38,798173612
92,8,21,Ticks_Linear_5,32,5,42,127,798195140
92,8,21,Ticks_Linear_5,33,1,48,35,798672624
92,8,21,Ticks_Linear_5,34,5,42,127,798704876
92,8,21,Ticks_Linear_5,35,5,42,127,799214840
92,8,21,Ticks_Linear_5,36,1,48,43,799219380
92,8,21,Ticks_Linear_5,37,1,48,37,799683192
92,8,21,Ticks_Linear_5,38,5,42,127,799735276
92,8,21,Ticks_Linear_5,39,1,48,40,800235760
92,8,21,Ticks_Linear_5,40,5,42,127,800255268
92,8,21,Ticks_Linear_5,41,1,48,39,800732232
92,8,21,Ticks_Linear_5,42,5,42,127,800774588
92,8,21,Ticks_Linear_5,43,1,48,43,801257320
92,8,21,Ticks_Linear_5,44,5,42,127,801294956
92,8,21,Ticks_Linear_5,45,1,48,41,801778140
92,8,21,Ticks_Linear_5,46,5,42,127,801815024
92,8,21,Ticks_Linear_5,47,1,48,37,802266684
92,8,21,Ticks_Linear_5,48,5,42,127,802345428
92,8,21,Ticks_Linear_5,49,1,48,38,802839392
92,8,21,Ticks_Linear_5,50,5,42,127,802874784
92,8,21,Ticks_Linear_5,51,1,48,40,803356096
92,8,21,Ticks_Linear_5,52,5,42,127,803405112
92,8,21,Ticks_Linear_5,53,1,48,41,803916828
92,8,21,Ticks_Linear_5,54,5,42,127,803934764
92,8,21,Ticks_Linear_5,55,1,48,37,804440708
92,8,21,Ticks_Linear_5,56,5,42,127,804465096
92,8,21,Ticks_Linear_5,57,1,48,35,804937796
92,8,21,Ticks_Linear_5,58,5,42,127,805004636
92,8,21,Ticks_Linear_5,59,1,48,33,805519868
92,8,21,Ticks_Linear_5,60,5,42,127,805545248
92,8,21,Ticks_Linear_5,61,1,48,39,806031844
92,8,21,Ticks_Linear_5,62,5,42,127,806084864
92,8,21,Ticks_Linear_5,63,1,48,38,806611400
92,8,21,Ticks_Linear_5,64,5,42,127,806624776
92,8,21,Ticks_Linear_5,65,1,48,38,807111324
92,8,21,Ticks_Linear_5,66,5,42,127,807165216
92,8,21,Ticks_Linear_5,67,1,48,40,807673344
92,8,21,Ticks_Linear_5,68,5,42,127,807715092
92,8,21,Ticks_Linear_5,69,1,48,40,808249268
92,8,21,Ticks_Linear_5,70,5,42,127,808265040
92,8,21,Ticks_Linear_5,71,1,48,31,808776532
92,8,21,Ticks_Linear_5,72,5,42,127,808814916
92,8,21,Ticks_Linear_5,73,1,48,36,809304468
92,8,21,Ticks_Linear_5,74,5,42,127,809364864
92,8,21,Ticks_Linear_5,75,1,48,40,809900936
92,8,21,Ticks_Linear_5,76,5,42,127,809914612
92,8,21,Ticks_Linear_5,77,1,48,20,809975604
92,8,21,Ticks_Linear_5,78,1,48,41,810422332
92,8,21,Ticks_Linear_5,79,5,42,127,810474948
92,8,21,Ticks_Linear_5,80,5,42,127,811035088
92,8,21,Ticks_Linear_5,81,1,48,41,811073336
92,8,21,Ticks_Linear_5,82,1,48,38,811555484
92,8,21,Ticks_Linear_5,83,5,42,127,811595068
92,8,21,Ticks_Linear_5,84,1,48,33,812124460
92,8,21,Ticks_Linear_5,85,5,42,127,812155128
92,8,21,Ticks_Linear_5,86,1,48,28,812665272
92,8,21,Ticks_Linear_5,87,5,42,127,812715656
92,8,21,Ticks_Linear_5,88,1,48,34,813232548
92,8,21,Ticks_Linear_5,89,5,42,127,813284628
92,8,21,Ticks_Linear_5,90,1,48,32,813843976
92,8,21,Ticks_Linear_5,91,5,42,127,813855096
92,8,21,Ticks_Linear_5,92,1,48,37,814413848
92,8,21,Ticks_Linear_5,93,5,42,127,814424588
92,8,21,Ticks_Linear_5,94,1,48,32,814970904
92,8,21,Ticks_Linear_5,95,5,42,127,814994760
92,8,21,Ticks_Linear_5,96,1,48,30,815505428
92,8,21,Ticks_Linear_5,97,5,42,127,815565324
92,8,21,Ticks_Linear_5,98,1,48,34,816068576
92,8,21,Ticks_Linear_5,99,5,42,127,816144856
92,8,21,Ticks_Linear_5,100,1,48,34,816649532
92,8,21,Ticks_Linear_5,101,5,42,127,816725656
92,8,21,Ticks_Linear_5,102,1,48,27,817214384
92,8,21,Ticks_Linear_5,103,5,42,127,817304888
92,8,21,Ticks_Linear_5,104,1,48,28,817771364
92,8,21,Ticks_Linear_5,105,5,42,127,817884652
92,8,21,Ticks_Linear_5,106,1,48,25,818401768
92,8,21,Ticks_Linear_5,107,5,42,127,818465168
92,8,21,Ticks_Linear_5,108,1,48,27,818998604
92,8,21,Ticks_Linear_5,109,5,42,127,819055108
92,8,21,Ticks_Linear_5,110,1,48,27,819583904
92,8,21,Ticks_Linear_5,111,5,42,127,819644776
92,8,21,Ticks_Linear_5,112,1,48,29,820209060
92,8,21,Ticks_Linear_5,113,5,42,127,820234564
92,8,21,Ticks_Linear_5,114,1,48,32,820813232
92,8,21,Ticks_Linear_5,115,5,42,127,820824576
92,8,21,Ticks_Linear_5,116,1,48,28,821400768
92,8,21,Ticks_Linear_5,117,5,42,127,821415512
92,8,21,Ticks_Linear_5,118,1,48,27,821985572
92,8,21,Ticks_Linear_5,119,5,42,127,822015488
92,8,21,Ticks_Linear_5,120,1,48,30,822607704
92,8,21,Ticks_Linear_5,121,5,42,127,822615608
92,8,21,Ticks_Linear_5,122,1,48,32,823195548
92,8,21,Ticks_Linear_5,123,5,42,127,823214560
92,8,21,Ticks_Linear_5,124,1,48,30,823803192
92,8,21,Ticks_Linear_5,125,5,42,127,823814460
92,8,21,Ticks_Linear_5,126,1,48,31,824386612
92,8,21,Ticks_Linear_5,127,5,42,127,824414508
92,8,21,Ticks_Linear_5,128,1,48,24,824990668
92,8,21,Ticks_Linear_5,129,5,42,127,825025036
92,8,21,Ticks_Linear_5,130,1,48,27,825578168
92,8,21,Ticks_Linear_5,131,5,42,127,825635272
92,8,21,Ticks_Linear_5,132,1,48,34,826225396
92,8,21,Ticks_Linear_5,133,5,42,127,826244536
92,8,21,Ticks_Linear_5,134,1,48,27,826807648
92,8,21,Ticks_Linear_5,135,5,42,127,826854644
92,8,21,Ticks_Linear_5,136,1,48,33,827444164
92,8,21,Ticks_Linear_5,137,5,42,127,827465248
92,8,21,Ticks_Linear_5,138,1,48,25,828065780
92,8,21,Ticks_Linear_5,139,5,42,127,828084572
92,8,21,Ticks_Linear_5,140,1,48,28,828665852
92,8,21,Ticks_Linear_5,141,5,42,127,828705284
92,8,21,Ticks_Linear_5,142,5,42,127,829324664
92,8,21,Ticks_Linear_5,143,1,48,15,829330700
92,8,21,Ticks_Linear_5,144,1,48,27,829886576
92,8,21,Ticks_Linear_5,145,5,42,127,829945396
92,8,21,Ticks_Linear_5,146,1,48,21,830541508
92,8,21,Ticks_Linear_5,147,5,42,127,830564696
92,8,21,Ticks_Linear_5,148,5,42,127,831194508
92,8,21,Ticks_Linear_5,149,1,48,25,831240080
92,8,21,Ticks_Linear_5,150,1,48,18,831813456
92,8,21,Ticks_Linear_5,151,5,42,127,831825400
92,8,21,Ticks_Linear_5,152,1,48,21,832384524
92,8,21,Ticks_Linear_5,153,5,42,127,832454980
92,8,21,Ticks_Linear_5,154,1,48,19,833031764
92,8,21,Ticks_Linear_5,155,5,42,127,833084760
92,8,21,Ticks_Linear_5,156,1,48,18,833714940
92,8,21,Ticks_Linear_5,157,5,42,127,833716204
92,8,21,Ticks_Linear_5,158,1,48,17,834305064
92,8,21,Ticks_Linear_5,159,5,42,127,834354524
92,8,21,Ticks_Linear_5,160,1,48,18,834903984
92,8,21,Ticks_Linear_5,161,5,42,127,834994440
92,8,21,Ticks_Linear_5,162,1,48,17,835561716
92,8,21,Ticks_Linear_5,163,5,42,127,835634628
92,8,21,Ticks_Linear_5,164,1,48,18,836264540
92,8,21,Ticks_Linear_5,165,5,42,127,836274468
92,8,21,Ticks_Linear_5,166,5,42,127,836914436
92,8,21,Ticks_Linear_5,167,1,48,20,836920696
92,8,21,Ticks_Linear_5,168,1,48,20,837532864
92,8,21,Ticks_Linear_5,169,5,42,127,837564752
92,8,21,Ticks_Linear_5,170,1,48,18,838182200
92,8,21,Ticks_Linear_5,171,5,42,127,838215124
92,8,21,Ticks_Linear_5,172,1,48,17,838840764
92,8,21,Ticks_Linear_5,173,5,42,127,838865148
92,8,21,Ticks_Linear_5,174,1,48,20,839438268
92,8,21,Ticks_Linear_5,175,5,42,127,839514472
92,8,21,Ticks_Linear_5,176,1,48,16,840062500
92,8,21,Ticks_Linear_5,177,5,42,127,840164780
92,8,21,Ticks_Linear_5,178,1,48,15,840716504
92,8,21,Ticks_Linear_5,179,5,42,127,840825336
92,8,21,Ticks_Linear_5,180,1,48,19,841421484
92,8,21,Ticks_Linear_5,181,5,42,127,841484660
92,8,21,Ticks_Linear_5,182,1,48,20,842084000
92,8,21,Ticks_Linear_5,183,5,42,127,842145292
92,8,21,Ticks_Linear_5,184,1,48,25,842733052
92,8,21,Ticks_Linear_5,185,5,42,127,842804604
92,8,21,Ticks_Linear_5,186,1,48,21,843406108
92,8,21,Ticks_Linear_5,187,5,42,127,843465260
92,8,21,Ticks_Linear_5,188,1,48,20,844062044
92,8,21,Ticks_Linear_5,189,5,42,127,844134732
92,8,21,Ticks_Linear_5,190,1,48,19,844741348
92,8,21,Ticks_Linear_5,191,5,42,127,844804452
92,8,21,Ticks_Linear_5,192,1,48,21,845393156
92,8,21,Ticks_Linear_5,193,5,42,127,845475192
92,8,21,Ticks_Linear_5,194,1,48,18,846069604
92,8,21,Ticks_Linear_5,195,5,42,127,846145060
92,8,21,Ticks_Linear_5,196,1,48,16,846753532
92,8,21,Ticks_Linear_5,197,5,42,127,846814632
92,8,21,Ticks_Linear_5,198,1,48,18,847414344
92,8,21,Ticks_Linear_5,199,5,42,127,847494584
92,8,21,Ticks_Linear_5,200,1,48,22,848095068
92,8,21,Ticks_Linear_5,201,5,42,127,848174488
92,8,21,Ticks_Linear_5,202,1,48,20,848762728
92,8,21,Ticks_Linear_5,203,5,42,127,848855364
92,8,21,Ticks_Linear_5,204,1,48,24,849453284
92,8,21,Ticks_Linear_5,205,5,42,127,849535316
92,8,21,Ticks_Linear_5,206,1,48,22,850145316
92,8,21,Ticks_Linear_5,207,5,42,127,850215372
92,8,21,Ticks_Linear_5,208,1,48,22,850859584
92,8,21,Ticks_Linear_5,209,5,42,127,850904412
92,8,21,Ticks_Linear_5,210,1,48,20,851520964
92,8,21,Ticks_Linear_5,211,5,42,127,851594552
92,8,21,Ticks_Linear_5,212,1,48,22,852140880
92,8,21,Ticks_Linear_5,213,5,42,127,852284696
92,8,21,Ticks_Linear_5,214,1,48,21,852854920
92,8,21,Ticks_Linear_5,215,5,42,127,852975232
92,8,21,Ticks_Linear_5,216,5,42,127,853665096
92,8,21,Ticks_Linear_5,217,5,42,127,854364416
92,8,21,Ticks_Linear_5,218,1,48,23,854415164
92,8,21,Ticks_Linear_5,219,5,42,127,855065060
92,8,21,Ticks_Linear_5,220,1,48,28,855066548
92,8,21,Ticks_Linear_5,221,1,48,35,855741472
92,8,21,Ticks_Linear_5,222,5,42,127,855765328
92,8,21,Ticks_Linear_5,223,1,48,37,856419104
92,8,21,Ticks_Linear_5,224,5,42,127,856464976
92,8,21,Ticks_Linear_5,225,1,48,38,857096392
92,8,21,Ticks_Linear_5,226,5,42,127,857165248
92,8,21,Ticks_Linear_5,227,1,48,35,857867284
92,8,21,Ticks_Linear_5,228,5,42,127,857874808
92,8,21,Ticks_Linear_5,229,5,42,127,858584524
92,8,21,Ticks_Linear_5,230,1,48,34,858671812
92,8,21,Ticks_Linear_5,231,5,42,127,859295180
92,8,21,Ticks_Linear_5,232,1,48,34,859298008
92,8,21,Ticks_Linear_5,233,1,48,31,859889744
92,8,21,Ticks_Linear_5,234,5,42,127,860004944
92,8,21,Ticks_Linear_5,235,1,48,29,860617648
92,8,21,Ticks_Linear_5,236,5,42,127,860716232
92,8,21,Ticks_Linear_5,237,1,48,28,861362860
92,8,21,Ticks_Linear_5,238,5,42,127,861435312
92,8,21,Ticks_Linear_5,239,1,48,28,862099648
92,8,21,Ticks_Linear_5,240,5,42,127,862155132
92,8,21,Ticks_Linear_5,241,1,48,29,862837660
92,8,21,Ticks_Linear_5,242,5,42,127,862875148
92,8,21,Ticks_Linear_5,243,1,48,19,863550664
92,8,21,Ticks_Linear_5,244,5,42,127,863595040
92,8,21,Ticks_Linear_5,245,1,48,32,864210200
92,8,21,Ticks_Linear_5,246,5,42,127,864314844
92,8,21,Ticks_Linear_5,247,1,48,27,864943876
92,8,21,Ticks_Linear_5,248,5,42,127,865045072
92,8,21,Ticks_Linear_5,249,1,48,32,865664048
92,8,21,Ticks_Linear_5,250,5,42,127,865774852
92,8,21,Ticks_Linear_5,251,1,48,36,866419056
92,8,21,Ticks_Linear_5,252,5,42,127,866505020
92,8,21,Ticks_Linear_5,253,1,48,37,867135808
92,8,21,Ticks_Linear_5,254,5,42,127,867235132
92,8,21,Ticks_Linear_5,255,1,48,35,867826696
92,8,21,Ticks_Linear_5,256,5,42,127,867965260
92,8,21,Ticks_Linear_5,257,1,48,24,868615932
92,8,21,Ticks_Linear_5,258,5,42,127,868704716
92,8,21,Ticks_Linear_5,259,1,48,29,869377612
92,8,21,Ticks_Linear_5,260,5,42,127,869444976
92,8,21,Ticks_Linear_5,261,1,48,32,870138920
92,8,21,Ticks_Linear_5,262,5,42,127,870185316
92,8,21,Ticks_Linear_5,263,1,48,34,870865932
92,8,21,Ticks_Linear_5,264,5,42,127,870924828
92,8,21,Ticks_Linear_5,265,1,48,34,871576812
92,8,21,Ticks_Linear_5,266,5,42,127,871665164
92,8,21,Ticks_Linear_5,267,1,48,26,872258356
92,8,21,Ticks_Linear_5,268,5,42,127,872414700
92,8,21,Ticks_Linear_5,269,1,48,34,873021828
92,8,21,Ticks_Linear_5,270,5,42,127,873165296
92,8,21,Ticks_Linear_5,271,1,48,27,873737012
92,8,21,Ticks_Linear_5,272,5,42,127,873914696
92,8,21,Ticks_Linear_5,273,1,48,27,874477652
92,8,21,Ticks_Linear_5,274,5,42,127,874665292
92,8,21,Ticks_Linear_5,275,5,42,127,875414988
92,8,21,Ticks_Linear_5,276,1,48,24,875445020
92,8,21,Ticks_Linear_5,277,5,42,127,876174800
92,8,21,Ticks_Linear_5,278,1,48,27,876177248
92,8,21,Ticks_Linear_5,279,5,42,127,876934756
92,8,21,Ticks_Linear_5,280,1,48,30,876940268
92,8,21,Ticks_Linear_5,281,1,48,29,877660740
92,8,21,Ticks_Linear_5,282,5,42,127,877695232
92,8,21,Ticks_Linear_5,283,1,48,37,878349484
92,8,21,Ticks_Linear_5,284,5,42,127,878455024
92,8,21,Ticks_Linear_5,285,1,48,30,879130552
92,8,21,Ticks_Linear_5,286,5,42,127,879215072
92,8,21,Ticks_Linear_5,287,1,48,32,879946308
92,8,21,Ticks_Linear_5,288,5,42,127,879984916
92,8,21,Ticks_Linear_5,289,1,48,32,880749544
92,8,21,Ticks_Linear_5,290,5,42,127,880754984
92,8,21,Ticks_Linear_5,291,5,42,127,881525132
92,8,21,Ticks_Linear_5,292,1,48,31,881605116
92,8,21,Ticks_Linear_5,293,1,48,28,882278376
92,8,21,Ticks_Linear_5,294,5,42,127,882295120
92,8,21,Ticks_Linear_5,295,1,48,37,883035864
92,8,21,Ticks_Linear_5,296,5,42,127,883065412
92,8,21,Ticks_Linear_5,297,1,48,37,883843496
92,8,21,Ticks_Linear_5,298,5,42,127,883844912
92,8,21,Ticks_Linear_5,299,5,42,127,884624800
92,8,21,Ticks_Linear_5,300,1,48,40,884636012
92,8,21,Ticks_Linear_5,301,1,48,28,885360144
92,8,21,Ticks_Linear_5,302,5,42,127,885405048
92,8,21,Ticks_Linear_5,303,1,48,37,886096740
92,8,21,Ticks_Linear_5,304,5,42,127,886185396
92,8,21,Ticks_Linear_5,305,1,48,36,886902000
92,8,21,Ticks_Linear_5,306,5,42,127,886964824
92,8,21,Ticks_Linear_5,307,1,48,40,887737924
92,8,21,Ticks_Linear_5,308,5,42,127,887755260
92,8,21,Ticks_Linear_5,309,1,48,38,888507988
92,8,21,Ticks_Linear_5,310,5,42,127,888544504
92,8,21,Ticks_Linear_5,311,1,48,39,889300448
92,8,21,Ticks_Linear_5,312,5,42,127,889335088
92,8,21,Ticks_Linear_5,313,1,48,35,890083104
92,8,21,Ticks_Linear_5,314,5,42,127,890124632
92,8,21,Ticks_Linear_5,315,1,48,39,890848600
92,8,21,Ticks_Linear_5,316,5,42,127,890915216
92,8,21,Ticks_Linear_5,317,1,48,42,891616500
92,8,21,Ticks_Linear_5,318,5,42,127,891715072
92,8,21,Ticks_Linear_5,319,1,48,40,892370088
92,8,21,Ticks_Linear_5,320,5,42,127,892514720
92,8,21,Ticks_Linear_5,321,1,48,40,893250836
92,8,21,Ticks_Linear_5,322,5,42,127,893314536
92,8,21,Ticks_Linear_5,323,1,48,39,894050856
92,8,21,Ticks_Linear_5,324,5,42,127,894115180
92,8,21,Ticks_Linear_5,325,1,48,44,894831636
92,8,21,Ticks_Linear_5,326,5,42,127,894914980
92,8,21,Ticks_Linear_5,327,1,48,40,895646560
92,8,21,Ticks_Linear_5,328,5,42,127,895724888
92,8,21,Ticks_Linear_5,329,1,48,31,896456644
92,8,21,Ticks_Linear_5,330,5,42,127,896534796
92,8,21,Ticks_Linear_5,331,1,48,37,897195264
92,8,21,Ticks_Linear_5,332,5,42,127,897344836
92,8,21,Ticks_Linear_5,333,1,48,34,898004124
92,8,21,Ticks_Linear_5,334,5,42,127,898154820
92,8,21,Ticks_Linear_5,335,1,48,38,898752924
92,8,21,Ticks_Linear_5,336,5,42,127,898964728
92,8,21,Ticks_Linear_5,0,9999,9999,9999,789792872
92,8,21,Ticks_Linear_5,1,9999,9999,9999,790272076
92,8,21,Ticks_Linear_5,2,9999,9999,9999,790752324
92,8,21,Ticks_Linear_5,3,9999,9999,9999,791232572
92,8,21,Ticks_Linear_5,4,9999,9999,9999,791712848
92,8,21,Ticks_Linear_5,5,9999,9999,9999,792202364
92,8,21,Ticks_Linear_5,6,9999,9999,9999,792692852
92,8,21,Ticks_Linear_5,7,9999,9999,9999,793182292
92,8,21,Ticks_Linear_5,8,9999,9999,9999,793672780
92,8,21,Ticks_Linear_5,9,9999,9999,9999,794162296
92,8,21,Ticks_Linear_5,10,9999,9999,9999,794662968
92,8,21,Ticks_Linear_5,11,9999,9999,9999,795162744
92,8,21,Ticks_Linear_5,12,9999,9999,9999,795662444
92,8,21,Ticks_Linear_5,13,9999,9999,9999,796162144
92,8,21,Ticks_Linear_5,14,9999,9999,9999,796662888
92,8,21,Ticks_Linear_5,15,9999,9999,9999,797172852
92,8,21,Ticks_Linear_5,16,9999,9999,9999,797682808
92,8,21,Ticks_Linear_5,17,9999,9999,9999,798192768
92,8,21,Ticks_Linear_5,18,9999,9999,9999,798702652
92,8,21,Ticks_Linear_5,19,9999,9999,9999,799212616
92,8,21,Ticks_Linear_5,20,9999,9999,9999,799732828
92,8,21,Ticks_Linear_5,21,9999,9999,9999,800253044
92,8,21,Ticks_Linear_5,22,9999,9999,9999,800772216
92,8,21,Ticks_Linear_5,23,9999,9999,9999,801292360
92,8,21,Ticks_Linear_5,24,9999,9999,9999,801812576
92,8,21,Ticks_Linear_5,25,9999,9999,9999,802342980
92,8,21,Ticks_Linear_5,26,9999,9999,9999,802872412
92,8,21,Ticks_Linear_5,27,9999,9999,9999,803402812
92,8,21,Ticks_Linear_5,28,9999,9999,9999,803932244
92,8,21,Ticks_Linear_5,29,9999,9999,9999,804462648
92,8,21,Ticks_Linear_5,30,9999,9999,9999,805002336
92,8,21,Ticks_Linear_5,31,9999,9999,9999,805543024
92,8,21,Ticks_Linear_5,32,9999,9999,9999,806082640
92,8,21,Ticks_Linear_5,33,9999,9999,9999,806622332
92,8,21,Ticks_Linear_5,34,9999,9999,9999,807162992
92,8,21,Ticks_Linear_5,35,9999,9999,9999,807712868
92,8,21,Ticks_Linear_5,36,9999,9999,9999,808262740
92,8,21,Ticks_Linear_5,37,9999,9999,9999,808812616
92,8,21,Ticks_Linear_5,38,9999,9999,9999,809362492
92,8,21,Ticks_Linear_5,39,9999,9999,9999,809912388
92,8,21,Ticks_Linear_5,40,9999,9999,9999,810472500
92,8,21,Ticks_Linear_5,41,9999,9999,9999,811032640
92,8,21,Ticks_Linear_5,42,9999,9999,9999,811592768
92,8,21,Ticks_Linear_5,43,9999,9999,9999,812152904
92,8,21,Ticks_Linear_5,44,9999,9999,9999,812713060
92,8,21,Ticks_Linear_5,45,9999,9999,9999,813282404
92,8,21,Ticks_Linear_5,46,9999,9999,9999,813852796
92,8,21,Ticks_Linear_5,47,9999,9999,9999,814422144
92,8,21,Ticks_Linear_5,48,9999,9999,9999,814992464
92,8,21,Ticks_Linear_5,49,9999,9999,9999,815562876
92,8,21,Ticks_Linear_5,50,9999,9999,9999,816142408
92,8,21,Ticks_Linear_5,51,9999,9999,9999,816723060
92,8,21,Ticks_Linear_5,52,9999,9999,9999,817302592
92,8,21,Ticks_Linear_5,53,9999,9999,9999,817882204
92,8,21,Ticks_Linear_5,54,9999,9999,9999,818462796
92,8,21,Ticks_Linear_5,55,9999,9999,9999,819052664
92,8,21,Ticks_Linear_5,56,9999,9999,9999,819642480
92,8,21,Ticks_Linear_5,57,9999,9999,9999,820232268
92,8,21,Ticks_Linear_5,58,9999,9999,9999,820822132
92,8,21,Ticks_Linear_5,59,9999,9999,9999,821412964
92,8,21,Ticks_Linear_5,60,9999,9999,9999,822013040
92,8,21,Ticks_Linear_5,61,9999,9999,9999,822613088
92,8,21,Ticks_Linear_5,62,9999,9999,9999,823212112
92,8,21,Ticks_Linear_5,63,9999,9999,9999,823812160
92,8,21,Ticks_Linear_5,64,9999,9999,9999,824412284
92,8,21,Ticks_Linear_5,65,9999,9999,9999,825022592
92,8,21,Ticks_Linear_5,66,9999,9999,9999,825632824
92,8,21,Ticks_Linear_5,67,9999,9999,9999,826242160
92,8,21,Ticks_Linear_5,68,9999,9999,9999,826852420
92,8,21,Ticks_Linear_5,69,9999,9999,9999,827462724
92,8,21,Ticks_Linear_5,70,9999,9999,9999,828082272
92,8,21,Ticks_Linear_5,71,9999,9999,9999,828702840
92,8,21,Ticks_Linear_5,72,9999,9999,9999,829322364
92,8,21,Ticks_Linear_5,73,9999,9999,9999,829942876
92,8,21,Ticks_Linear_5,74,9999,9999,9999,830562396
92,8,21,Ticks_Linear_5,75,9999,9999,9999,831192136
92,8,21,Ticks_Linear_5,76,9999,9999,9999,831822952
92,8,21,Ticks_Linear_5,77,9999,9999,9999,832452680
92,8,21,Ticks_Linear_5,78,9999,9999,9999,833082460
92,8,21,Ticks_Linear_5,79,9999,9999,9999,833712196
92,8,21,Ticks_Linear_5,80,9999,9999,9999,834352228
92,8,21,Ticks_Linear_5,81,9999,9999,9999,834992216
92,8,21,Ticks_Linear_5,82,9999,9999,9999,835632256
92,8,21,Ticks_Linear_5,83,9999,9999,9999,836272244
92,8,21,Ticks_Linear_5,84,9999,9999,9999,836912212
92,8,21,Ticks_Linear_5,85,9999,9999,9999,837562452
92,8,21,Ticks_Linear_5,86,9999,9999,9999,838212676
92,8,21,Ticks_Linear_5,87,9999,9999,9999,838862924
92,8,21,Ticks_Linear_5,88,9999,9999,9999,839512172
92,8,21,Ticks_Linear_5,89,9999,9999,9999,840162404
92,8,21,Ticks_Linear_5,90,9999,9999,9999,840822888
92,8,21,Ticks_Linear_5,91,9999,9999,9999,841482364
92,8,21,Ticks_Linear_5,92,9999,9999,9999,842142848
92,8,21,Ticks_Linear_5,93,9999,9999,9999,842802232
92,8,21,Ticks_Linear_5,94,9999,9999,9999,843462740
92,8,21,Ticks_Linear_5,95,9999,9999,9999,844132436
92,8,21,Ticks_Linear_5,96,9999,9999,9999,844802156
92,8,21,Ticks_Linear_5,97,9999,9999,9999,845472896
92,8,21,Ticks_Linear_5,98,9999,9999,9999,846142540
92,8,21,Ticks_Linear_5,99,9999,9999,9999,846812260
92,8,21,Ticks_Linear_5,100,9999,9999,9999,847492208
92,8,21,Ticks_Linear_5,101,9999,9999,9999,848172116
92,8,21,Ticks_Linear_5,102,9999,9999,9999,848853064
92,8,21,Ticks_Linear_5,103,9999,9999,9999,849533020
92,8,21,Ticks_Linear_5,104,9999,9999,9999,850212924
92,8,21,Ticks_Linear_5,105,9999,9999,9999,850902116
92,8,21,Ticks_Linear_5,106,9999,9999,9999,851592252
92,8,21,Ticks_Linear_5,107,9999,9999,9999,852282472
92,8,21,Ticks_Linear_5,108,9999,9999,9999,852972636
92,8,21,Ticks_Linear_5,109,9999,9999,9999,853662796
92,8,21,Ticks_Linear_5,110,9999,9999,9999,854362192
92,8,21,Ticks_Linear_5,111,9999,9999,9999,855062616
92,8,21,Ticks_Linear_5,112,9999,9999,9999,855763032
92,8,21,Ticks_Linear_5,113,9999,9999,9999,856462456
92,8,21,Ticks_Linear_5,114,9999,9999,9999,857162876
92,8,21,Ticks_Linear_5,115,9999,9999,9999,857872512
92,8,21,Ticks_Linear_5,116,9999,9999,9999,858582076
92,8,21,Ticks_Linear_5,117,9999,9999,9999,859292732
92,8,21,Ticks_Linear_5,118,9999,9999,9999,860002424
92,8,21,Ticks_Linear_5,119,9999,9999,9999,860713048
92,8,21,Ticks_Linear_5,120,9999,9999,9999,861432940
92,8,21,Ticks_Linear_5,121,9999,9999,9999,862152760
92,8,21,Ticks_Linear_5,122,9999,9999,9999,862872700
92,8,21,Ticks_Linear_5,123,9999,9999,9999,863592520
92,8,21,Ticks_Linear_5,124,9999,9999,9999,864312396
92,8,21,Ticks_Linear_5,125,9999,9999,9999,865042548
92,8,21,Ticks_Linear_5,126,9999,9999,9999,865772628
92,8,21,Ticks_Linear_5,127,9999,9999,9999,866502720
92,8,21,Ticks_Linear_5,128,9999,9999,9999,867232836
92,8,21,Ticks_Linear_5,129,9999,9999,9999,867962960
92,8,21,Ticks_Linear_5,130,9999,9999,9999,868702268
92,8,21,Ticks_Linear_5,131,9999,9999,9999,869442680
92,8,21,Ticks_Linear_5,132,9999,9999,9999,870183016
92,8,21,Ticks_Linear_5,133,9999,9999,9999,870922308
92,8,21,Ticks_Linear_5,134,9999,9999,9999,871662720
92,8,21,Ticks_Linear_5,135,9999,9999,9999,872412252
92,8,21,Ticks_Linear_5,136,9999,9999,9999,873162848
92,8,21,Ticks_Linear_5,137,9999,9999,9999,873912396
92,8,21,Ticks_Linear_5,138,9999,9999,9999,874662996
92,8,21,Ticks_Linear_5,139,9999,9999,9999,875412540
92,8,21,Ticks_Linear_5,140,9999,9999,9999,876172352
92,8,21,Ticks_Linear_5,141,9999,9999,9999,876932160
92,8,21,Ticks_Linear_5,142,9999,9999,9999,877693008
92,8,21,Ticks_Linear_5,143,9999,9999,9999,878452800
92,8,21,Ticks_Linear_5,144,9999,9999,9999,879212624
92,8,21,Ticks_Linear_5,145,9999,9999,9999,879982692
92,8,21,Ticks_Linear_5,146,9999,9999,9999,880752760
92,8,21,Ticks_Linear_5,147,9999,9999,9999,881522760
92,8,21,Ticks_Linear_5,148,9999,9999,9999,882292820
92,8,21,Ticks_Linear_5,149,9999,9999,9999,883062888
92,8,21,Ticks_Linear_5,150,9999,9999,9999,883842100
92,8,21,Ticks_Linear_5,151,9999,9999,9999,884622428
92,8,21,Ticks_Linear_5,152,9999,9999,9999,885402748
92,8,21,Ticks_Linear_5,153,9999,9999,9999,886183024
92,8,21,Ticks_Linear_5,154,9999,9999,9999,886962304
92,8,21,Ticks_Linear_5,155,9999,9999,9999,887752816
92,8,21,Ticks_Linear_5,156,9999,9999,9999,888542280
92,8,21,Ticks_Linear_5,157,9999,9999,9999,889332792
92,8,21,Ticks_Linear_5,158,9999,9999,9999,890122332
92,8,21,Ticks_Linear_5,159,9999,9999,9999,890912844
92,8,21,Ticks_Linear_5,160,9999,9999,9999,891712568
92,8,21,Ticks_Linear_5,161,9999,9999,9999,892512348
92,8,21,Ticks_Linear_5,162,9999,9999,9999,893312088
92,8,21,Ticks_Linear_5,163,9999,9999,9999,894112860
92,8,21,Ticks_Linear_5,164,9999,9999,9999,894912604
92,8,21,Ticks_Linear_5,165,9999,9999,9999,895722588
92,8,21,Ticks_Linear_5,166,9999,9999,9999,896532572
92,8,21,Ticks_Linear_5,167,9999,9999,9999,897342540
92,8,21,Ticks_Linear_5,168,9999,9999,9999,898152520
92,8,21,Ticks_Linear_5,169,9999,9999,9999,898962504
92,9,9,Ticks_ISO_T2_8,0,5,42,127,909344156
92,9,9,Ticks_ISO_T2_8,1,1,48,13,910087772
92,9,9,Ticks_ISO_T2_8,2,5,42,127,910143904
92,9,9,Ticks_ISO_T2_8,3,1,48,33,910851528
92,9,9,Ticks_ISO_T2_8,4,5,42,127,910943488
92,9,9,Ticks_ISO_T2_8,5,1,48,42,911645128
92,9,9,Ticks_ISO_T2_8,6,5,42,127,911744400
92,9,9,Ticks_ISO_T2_8,7,1,48,40,912444036
92,9,9,Ticks_ISO_T2_8,8,5,42,127,912544284
92,9,9,Ticks_ISO_T2_8,9,1,48,38,913210112
92,9,9,Ticks_ISO_T2_8,10,5,42,127,913343744
92,9,9,Ticks_ISO_T2_8,11,1,48,45,913998476
92,9,9,Ticks_ISO_T2_8,12,5,42,127,914143700
92,9,9,Ticks_ISO_T2_8,13,1,48,41,914785716
92,9,9,Ticks_ISO_T2_8,14,5,42,127,914944332
92,9,9,Ticks_ISO_T2_8,15,1,48,31,915696248
92,9,9,Ticks_ISO_T2_8,16,5,42,127,915744376
92,9,9,Ticks_ISO_T2_8,17,1,48,37,916491572
92,9,9,Ticks_ISO_T2_8,18,5,42,127,916543960
92,9,9,Ticks_ISO_T2_8,19,1,48,46,917285996
92,9,9,Ticks_ISO_T2_8,20,5,42,127,917343544
92,9,9,Ticks_ISO_T2_8,21,1,48,39,918058724
92,9,9,Ticks_ISO_T2_8,22,5,42,127,918144328
92,9,9,Ticks_ISO_T2_8,23,1,48,38,918904456
92,9,9,Ticks_ISO_T2_8,24,5,42,127,918944360
92,9,9,Ticks_ISO_T2_8,25,1,48,38,919711672
92,9,9,Ticks_ISO_T2_8,26,5,42,127,919744264
92,9,9,Ticks_ISO_T2_8,27,1,48,40,920496772
92,9,9,Ticks_ISO_T2_8,28,5,42,127,920543700
92,9,9,Ticks_ISO_T2_8,29,1,48,44,921275332
92,9,9,Ticks_ISO_T2_8,30,5,42,127,921344260
92,9,9,Ticks_ISO_T2_8,31,1,48,41,922067812
92,9,9,Ticks_ISO_T2_8,32,5,42,127,922144216
92,9,9,Ticks_ISO_T2_8,33,1,48,39,922865976
92,9,9,Ticks_ISO_T2_8,34,5,42,127,922944096
92,9,9,Ticks_ISO_T2_8,35,1,48,46,923653296
92,9,9,Ticks_ISO_T2_8,36,5,42,127,923743536
92,9,9,Ticks_ISO_T2_8,37,1,48,46,924468136
92,9,9,Ticks_ISO_T2_8,38,5,42,127,924544240
92,9,9,Ticks_ISO_T2_8,39,1,48,45,925331748
92,9,9,Ticks_ISO_T2_8,40,5,42,127,925343976
92,9,9,Ticks_ISO_T2_8,41,5,42,127,926144036
92,9,9,Ticks_ISO_T2_8,42,1,48,35,926163536
92,9,9,Ticks_ISO_T2_8,43,5,42,127,926943548
92,9,9,Ticks_ISO_T2_8,44,1,48,37,926948468
92,9,9,Ticks_ISO_T2_8,45,5,42,127,927744404
92,9,9,Ticks_ISO_T2_8,46,1,48,36,927753360
92,9,9,Ticks_ISO_T2_8,47,1,48,33,928543160
92,9,9,Ticks_ISO_T2_8,48,5,42,127,928544652
92,9,9,Ticks_ISO_T2_8,49,5,42,127,929343948
92,9,9,Ticks_ISO_T2_8,50,1,48,35,929358360
92,9,9,Ticks_ISO_T2_8,51,1,48,42,930134068
92,9,9,Ticks_ISO_T2_8,52,5,42,127,930143820
92,9,9,Ticks_ISO_T2_8,53,1,48,40,930922804
92,9,9,Ticks_ISO_T2_8,54,5,42,127,930944304
92,9,9,Ticks_ISO_T2_8,55,1,48,35,931699348
92,9,9,Ticks_ISO_T2_8,56,5,42,127,931744112
92,9,9,Ticks_ISO_T2_8,57,1,48,37,932476616
92,9,9,Ticks_ISO_T2_8,58,5,42,127,932543848
92,9,9,Ticks_ISO_T2_8,59,1,48,43,933339660
92,9,9,Ticks_ISO_T2_8,60,5,42,127,933343508
92,9,9,Ticks_ISO_T2_8,61,5,42,127,934144296
92,9,9,Ticks_ISO_T2_8,62,1,48,41,934155492
92,9,9,Ticks_ISO_T2_8,63,1,48,37,934916240
92,9,9,Ticks_ISO_T2_8,64,5,42,127,934944168
92,9,9,Ticks_ISO_T2_8,65,5,42,127,935743984
92,9,9,Ticks_ISO_T2_8,66,1,48,34,935750244
92,9,9,Ticks_ISO_T2_8,67,5,42,127,936543568
92,9,9,Ticks_ISO_T2_8,68,1,48,35,936595080
92,9,9,Ticks_ISO_T2_8,69,5,42,127,937344496
92,9,9,Ticks_ISO_T2_8,70,1,48,42,937368712
92,9,9,Ticks_ISO_T2_8,71,1,48,30,938142336
92,9,9,Ticks_ISO_T2_8,72,5,42,127,938144388
92,9,9,Ticks_ISO_T2_8,73,1,48,29,938920528
92,9,9,Ticks_ISO_T2_8,74,5,42,127,938943824
92,9,9,Ticks_ISO_T2_8,75,1,48,42,939701268
92,9,9,Ticks_ISO_T2_8,76,5,42,127,939743632
92,9,9,Ticks_ISO_T2_8,77,1,48,23,939762516
92,9,9,Ticks_ISO_T2_8,78,1,48,51,940515108
92,9,9,Ticks_ISO_T2_8,79,5,42,127,940544392
92,9,9,Ticks_ISO_T2_8,80,1,48,21,940589532
92,9,9,Ticks_ISO_T2_8,81,1,48,51,941335692
92,9,9,Ticks_ISO_T2_8,82,5,42,127,941344176
92,9,9,Ticks_ISO_T2_8,83,1,48,30,941395820
92,9,9,Ticks_ISO_T2_8,84,5,42,127,942143968
92,9,9,Ticks_ISO_T2_8,85,1,48,50,942151276
92,9,9,Ticks_ISO_T2_8,86,1,48,19,942243056
92,9,9,Ticks_ISO_T2_8,87,1,48,43,942905792
92,9,9,Ticks_ISO_T2_8,88,5,42,127,942943672
92,9,9,Ticks_ISO_T2_8,89,1,48,21,942973924
92,9,9,Ticks_ISO_T2_8,90,1,48,47,943674760
92,9,9,Ticks_ISO_T2_8,91,1,48,23,943744860
92,9,9,Ticks_ISO_T2_8,92,5,42,127,943745976
92,9,9,Ticks_ISO_T2_8,93,5,42,127,944544100
92,9,9,Ticks_ISO_T2_8,94,1,48,40,944571004
92,9,9,Ticks_ISO_T2_8,95,5,42,127,945343832
92,9,9,Ticks_ISO_T2_8,96,1,48,46,945387796
92,9,9,Ticks_ISO_T2_8,97,5,42,127,946143716
92,9,9,Ticks_ISO_T2_8,98,1,48,45,946189844
92,9,9,Ticks_ISO_T2_8,99,5,42,127,946944424
92,9,9,Ticks_ISO_T2_8,100,1,48,34,947009100
92,9,9,Ticks_ISO_T2_8,101,1,48,33,947740152
92,9,9,Ticks_ISO_T2_8,102,5,42,127,947744076
92,9,9,Ticks_ISO_T2_8,103,1,48,39,948483708
92,9,9,Ticks_ISO_T2_8,104,5,42,127,948543956
92,9,9,Ticks_ISO_T2_8,105,1,48,43,949320540
92,9,9,Ticks_ISO_T2_8,106,5,42,127,949343688
92,9,9,Ticks_ISO_T2_8,107,5,42,127,950144404
92,9,9,Ticks_ISO_T2_8,108,1,48,40,950149092
92,9,9,Ticks_ISO_T2_8,109,5,42,127,950944088
92,9,9,Ticks_ISO_T2_8,110,1,48,42,950946832
92,9,9,Ticks_ISO_T2_8,111,1,48,35,951705832
92,9,9,Ticks_ISO_T2_8,112,5,42,127,951743888
92,9,9,Ticks_ISO_T2_8,113,1,48,24,952516660
92,9,9,Ticks_ISO_T2_8,114,5,42,127,952543916
92,9,9,Ticks_ISO_T2_8,115,1,48,23,953325668
92,9,9,Ticks_ISO_T2_8,116,5,42,127,953344476
92,9,9,Ticks_ISO_T2_8,117,1,48,33,954101612
92,9,9,Ticks_ISO_T2_8,118,5,42,127,954143988
92,9,9,Ticks_ISO_T2_8,119,1,48,43,954901948
92,9,9,Ticks_ISO_T2_8,120,5,42,127,954944016
92,9,9,Ticks_ISO_T2_8,121,1,48,38,955732796
92,9,9,Ticks_ISO_T2_8,122,5,42,127,955743752
92,9,9,Ticks_ISO_T2_8,123,1,48,27,956518692
92,9,9,Ticks_ISO_T2_8,124,5,42,127,956544456
92,9,9,Ticks_ISO_T2_8,125,5,42,127,957344148
92,9,9,Ticks_ISO_T2_8,126,1,48,38,957379952
92,9,9,Ticks_ISO_T2_8,127,5,42,127,958143804
92,9,9,Ticks_ISO_T2_8,128,1,48,32,958153280
92,9,9,Ticks_ISO_T2_8,129,1,48,28,958900268
92,9,9,Ticks_ISO_T2_8,130,5,42,127,958943828
92,9,9,Ticks_ISO_T2_8,131,5,42,127,959744544
92,9,9,Ticks_ISO_T2_8,132,1,48,33,959752900
92,9,9,Ticks_ISO_T2_8,133,5,42,127,960544052
92,9,9,Ticks_ISO_T2_8,134,1,48,26,960558016
92,9,9,Ticks_ISO_T2_8,135,5,42,127,961343788
92,9,9,Ticks_ISO_T2_8,136,1,48,22,961360740
92,9,9,Ticks_ISO_T2_8,137,1,48,22,962118272
92,9,9,Ticks_ISO_T2_8,138,5,42,127,962143588
92,9,9,Ticks_ISO_T2_8,139,5,42,127,962944448
92,9,9,Ticks_ISO_T2_8,140,1,48,35,962945636
92,9,9,Ticks_ISO_T2_8,141,5,42,127,963744208
92,9,9,Ticks_ISO_T2_8,142,1,48,35,963756900
92,9,9,Ticks_ISO_T2_8,143,5,42,127,964543792
92,9,9,Ticks_ISO_T2_8,144,1,48,35,964544756
92,9,9,Ticks_ISO_T2_8,145,5,42,127,965343524
92,9,9,Ticks_ISO_T2_8,146,1,48,37,965374468
92,9,9,Ticks_ISO_T2_8,147,5,42,127,966144456
92,9,9,Ticks_ISO_T2_8,148,1,48,37,966146016
92,9,9,Ticks_ISO_T2_8,149,1,48,42,966918040
92,9,9,Ticks_ISO_T2_8,150,5,42,127,966944032
92,9,9,Ticks_ISO_T2_8,151,1,48,42,967735200
92,9,9,Ticks_ISO_T2_8,152,5,42,127,967743764
92,9,9,Ticks_ISO_T2_8,153,5,42,127,968543580
92,9,9,Ticks_ISO_T2_8,154,1,48,47,968580508
92,9,9,Ticks_ISO_T2_8,155,5,42,127,969344580
92,9,9,Ticks_ISO_T2_8,156,1,48,45,969364532
92,9,9,Ticks_ISO_T2_8,157,1,48,43,970110616
92,9,9,Ticks_ISO_T2_8,158,5,42,127,970144332
92,9,9,Ticks_ISO_T2_8,159,1,48,34,970900476
92,9,9,Ticks_ISO_T2_8,160,5,42,127,970943772
92,9,9,Ticks_ISO_T2_8,161,1,48,40,971681460
92,9,9,Ticks_ISO_T2_8,162,5,42,127,971743728
92,9,9,Ticks_ISO_T2_8,163,1,48,42,972500048
92,9,9,Ticks_ISO_T2_8,164,5,42,127,972544732
92,9,9,Ticks_ISO_T2_8,165,1,48,45,973309652
92,9,9,Ticks_ISO_T2_8,166,5,42,127,973344092
92,9,9,Ticks_ISO_T2_8,167,5,42,127,974143756
92,9,9,Ticks_ISO_T2_8,168,1,48,47,974158920
92,9,9,Ticks_ISO_T2_8,169,1,48,42,974926692
92,9,9,Ticks_ISO_T2_8,170,5,42,127,974943484
92,9,9,Ticks_ISO_T2_8,171,1,48,45,975682368
92,9,9,Ticks_ISO_T2_8,172,5,42,127,975744488
92,9,9,Ticks_ISO_T2_8,173,5,42,127,976544324
92,9,9,Ticks_ISO_T2_8,174,1,48,36,976565472
92,9,9,Ticks_ISO_T2_8,175,5,42,127,977343836
92,9,9,Ticks_ISO_T2_8,176,1,48,40,977365504
92,9,9,Ticks_ISO_T2_8,177,5,42,127,978143572
92,9,9,Ticks_ISO_T2_8,178,1,48,37,978181472
92,9,9,Ticks_ISO_T2_8,179,1,48,39,978939300
92,9,9,Ticks_ISO_T2_8,180,5,42,127,978944416
92,9,9,Ticks_ISO_T2_8,181,5,42,127,979744308
92,9,9,Ticks_ISO_T2_8,182,1,48,30,979781012
92,9,9,Ticks_ISO_T2_8,183,5,42,127,980543888
92,9,9,Ticks_ISO_T2_8,184,1,48,35,980623528
92,9,9,Ticks_ISO_T2_8,185,5,42,127,981343548
92,9,9,Ticks_ISO_T2_8,186,1,48,27,981406304
92,9,9,Ticks_ISO_T2_8,187,1,48,33,982087516
92,9,9,Ticks_ISO_T2_8,188,5,42,127,982144472
92,9,9,Ticks_ISO_T2_8,189,1,48,28,982900636
92,9,9,Ticks_ISO_T2_8,190,5,42,127,982944304
92,9,9,Ticks_ISO_T2_8,191,1,48,34,983691020
92,9,9,Ticks_ISO_T2_8,192,5,42,127,983743740
92,9,9,Ticks_ISO_T2_8,193,5,42,127,984543628
92,9,9,Ticks_ISO_T2_8,194,1,48,32,984603368
92,9,9,Ticks_ISO_T2_8,195,5,42,127,985344480
92,9,9,Ticks_ISO_T2_8,196,1,48,36,985373332
92,9,9,Ticks_ISO_T2_8,197,1,48,33,986142248
92,9,9,Ticks_ISO_T2_8,198,5,42,127,986144060
92,9,9,Ticks_ISO_T2_8,199,1,48,31,986894692
92,9,9,Ticks_ISO_T2_8,200,5,42,127,986943792
92,9,9,Ticks_ISO_T2_8,201,1,48,27,987719480
92,9,9,Ticks_ISO_T2_8,202,5,42,127,987743600
92,9,9,Ticks_ISO_T2_8,203,1,48,31,988536640
92,9,9,Ticks_ISO_T2_8,204,5,42,127,988544380
92,9,9,Ticks_ISO_T2_8,205,5,42,127,989344144
92,9,9,Ticks_ISO_T2_8,206,1,48,32,989346736
92,9,9,Ticks_ISO_T2_8,207,1,48,35,990130600
92,9,9,Ticks_ISO_T2_8,208,5,42,127,990143800
92,9,9,Ticks_ISO_T2_8,209,1,48,43,990920608
92,9,9,Ticks_ISO_T2_8,210,5,42,127,990943684
92,9,9,Ticks_ISO_T2_8,211,1,48,27,991732164
92,9,9,Ticks_ISO_T2_8,212,5,42,127,991744316
92,9,9,Ticks_ISO_T2_8,213,1,48,35,992462112
92,9,9,Ticks_ISO_T2_8,214,5,42,127,992544048
92,9,9,Ticks_ISO_T2_8,215,1,48,40,993293484
92,9,9,Ticks_ISO_T2_8,216,5,42,127,993343928
92,9,9,Ticks_ISO_T2_8,217,1,48,31,994112592
92,9,9,Ticks_ISO_T2_8,218,5,42,127,994143664
92,9,9,Ticks_ISO_T2_8,219,1,48,41,994889508
92,9,9,Ticks_ISO_T2_8,220,5,42,127,994944296
92,9,9,Ticks_ISO_T2_8,221,1,48,28,995717596
92,9,9,Ticks_ISO_T2_8,222,5,42,127,995744204
92,9,9,Ticks_ISO_T2_8,223,1,48,19,996525504
92,9,9,Ticks_ISO_T2_8,224,5,42,127,996544012
92,9,9,Ticks_ISO_T2_8,225,1,48,41,997290232
92,9,9,Ticks_ISO_T2_8,226,5,42,127,997343672
92,9,9,Ticks_ISO_T2_8,227,1,48,26,998127440
92,9,9,Ticks_ISO_T2_8,228,5,42,127,998144304
92,9,9,Ticks_ISO_T2_8,229,1,48,42,998906980
92,9,9,Ticks_ISO_T2_8,230,5,42,127,998944184
92,9,9,Ticks_ISO_T2_8,231,5,42,127,999743928
92,9,9,Ticks_ISO_T2_8,232,1,48,24,999747492
92,9,9,Ticks_ISO_T2_8,233,5,42,127,1000543512
92,9,9,Ticks_ISO_T2_8,234,1,48,32,1000554632
92,9,9,Ticks_ISO_T2_8,235,5,42,127,1001344440
92,9,9,Ticks_ISO_T2_8,236,1,48,39,1001354812
92,9,9,Ticks_ISO_T2_8,237,1,48,37,1002110176
92,9,9,Ticks_ISO_T2_8,238,5,42,127,1002144116
92,9,9,Ticks_ISO_T2_8,239,5,42,127,1002943928
92,9,9,Ticks_ISO_T2_8,240,1,48,38,1002957072
92,9,9,Ticks_ISO_T2_8,241,1,48,40,1003730312
92,9,9,Ticks_ISO_T2_8,242,5,42,127,1003743732
92,9,9,Ticks_ISO_T2_8,243,1,48,45,1004542780
92,9,9,Ticks_ISO_T2_8,244,5,42,127,1004544288
92,9,9,Ticks_ISO_T2_8,245,1,48,44,1005321996
92,9,9,Ticks_ISO_T2_8,0,9999,9999,9999,909341792
92,9,9,Ticks_ISO_T2_8,1,9999,9999,9999,910141540
92,9,9,Ticks_ISO_T2_8,2,9999,9999,9999,910941272
92,9,9,Ticks_ISO_T2_8,3,9999,9999,9999,911742036
92,9,9,Ticks_ISO_T2_8,4,9999,9999,9999,912541772
92,9,9,Ticks_ISO_T2_8,5,9999,9999,9999,913341528
92,9,9,Ticks_ISO_T2_8,6,9999,9999,9999,914141264
92,9,9,Ticks_ISO_T2_8,7,9999,9999,9999,914942040
92,9,9,Ticks_ISO_T2_8,8,9999,9999,9999,915741792
92,9,9,Ticks_ISO_T2_8,9,9999,9999,9999,916541524
92,9,9,Ticks_ISO_T2_8,10,9999,9999,9999,917341256
92,9,9,Ticks_ISO_T2_8,11,9999,9999,9999,918142036
92,9,9,Ticks_ISO_T2_8,12,9999,9999,9999,918941772
92,9,9,Ticks_ISO_T2_8,13,9999,9999,9999,919741532
92,9,9,Ticks_ISO_T2_8,14,9999,9999,9999,920541264
92,9,9,Ticks_ISO_T2_8,15,9999,9999,9999,921342044
92,9,9,Ticks_ISO_T2_8,16,9999,9999,9999,922141780
92,9,9,Ticks_ISO_T2_8,17,9999,9999,9999,922941512
92,9,9,Ticks_ISO_T2_8,18,9999,9999,9999,923741248
92,9,9,Ticks_ISO_T2_8,19,9999,9999,9999,924542024
92,9,9,Ticks_ISO_T2_8,20,9999,9999,9999,925341760
92,9,9,Ticks_ISO_T2_8,21,9999,9999,9999,926141524
92,9,9,Ticks_ISO_T2_8,22,9999,9999,9999,926941260
92,9,9,Ticks_ISO_T2_8,23,9999,9999,9999,927742040
92,9,9,Ticks_ISO_T2_8,24,9999,9999,9999,928541772
92,9,9,Ticks_ISO_T2_8,25,9999,9999,9999,929341508
92,9,9,Ticks_ISO_T2_8,26,9999,9999,9999,930141236
92,9,9,Ticks_ISO_T2_8,27,9999,9999,9999,930942012
92,9,9,Ticks_ISO_T2_8,28,9999,9999,9999,931741748
92,9,9,Ticks_ISO_T2_8,29,9999,9999,9999,932541556
92,9,9,Ticks_ISO_T2_8,30,9999,9999,9999,933341292
92,9,9,Ticks_ISO_T2_8,31,9999,9999,9999,934142004
92,9,9,Ticks_ISO_T2_8,32,9999,9999,9999,934941804
92,9,9,Ticks_ISO_T2_8,33,9999,9999,9999,935741544
92,9,9,Ticks_ISO_T2_8,34,9999,9999,9999,936541276
92,9,9,Ticks_ISO_T2_8,35,9999,9999,9999,937342056
92,9,9,Ticks_ISO_T2_8,36,9999,9999,9999,938141808
92,9,9,Ticks_ISO_T2_8,37,9999,9999,9999,938941536
92,9,9,Ticks_ISO_T2_8,38,9999,9999,9999,939741268
92,9,9,Ticks_ISO_T2_8,39,9999,9999,9999,940542028
92,9,9,Ticks_ISO_T2_8,40,9999,9999,9999,941341812
92,9,9,Ticks_ISO_T2_8,41,9999,9999,9999,942141532
92,9,9,Ticks_ISO_T2_8,42,9999,9999,9999,942941236
92,9,9,Ticks_ISO_T2_8,43,9999,9999,9999,943742068
92,9,9,Ticks_ISO_T2_8,44,9999,9999,9999,944541784
92,9,9,Ticks_ISO_T2_8,45,9999,9999,9999,945341544
92,9,9,Ticks_ISO_T2_8,46,9999,9999,9999,946141280
92,9,9,Ticks_ISO_T2_8,47,9999,9999,9999,946942060
92,9,9,Ticks_ISO_T2_8,48,9999,9999,9999,947741784
92,9,9,Ticks_ISO_T2_8,49,9999,9999,9999,948541516
92,9,9,Ticks_ISO_T2_8,50,9999,9999,9999,949341252
92,9,9,Ticks_ISO_T2_8,51,9999,9999,9999,950142040
92,9,9,Ticks_ISO_T2_8,52,9999,9999,9999,950941772
92,9,9,Ticks_ISO_T2_8,53,9999,9999,9999,951741524
92,9,9,Ticks_ISO_T2_8,54,9999,9999,9999,952541256
92,9,9,Ticks_ISO_T2_8,55,9999,9999,9999,953342036
92,9,9,Ticks_ISO_T2_8,56,9999,9999,9999,954141772
92,9,9,Ticks_ISO_T2_8,57,9999,9999,9999,954941504
92,9,9,Ticks_ISO_T2_8,58,9999,9999,9999,955741240
92,9,9,Ticks_ISO_T2_8,59,9999,9999,9999,956542016
92,9,9,Ticks_ISO_T2_8,60,9999,9999,9999,957341760
92,9,9,Ticks_ISO_T2_8,61,9999,9999,9999,958141516
92,9,9,Ticks_ISO_T2_8,62,9999,9999,9999,958941244
92,9,9,Ticks_ISO_T2_8,63,9999,9999,9999,959742032
92,9,9,Ticks_ISO_T2_8,64,9999,9999,9999,960541764
92,9,9,Ticks_ISO_T2_8,65,9999,9999,9999,961341496
92,9,9,Ticks_ISO_T2_8,66,9999,9999,9999,962141300
92,9,9,Ticks_ISO_T2_8,67,9999,9999,9999,962942008
92,9,9,Ticks_ISO_T2_8,68,9999,9999,9999,963741744
92,9,9,Ticks_ISO_T2_8,69,9999,9999,9999,964541500
92,9,9,Ticks_ISO_T2_8,70,9999,9999,9999,965341236
92,9,9,Ticks_ISO_T2_8,71,9999,9999,9999,966142016
92,9,9,Ticks_ISO_T2_8,72,9999,9999,9999,966941744
92,9,9,Ticks_ISO_T2_8,73,9999,9999,9999,967741552
92,9,9,Ticks_ISO_T2_8,74,9999,9999,9999,968541288
92,9,9,Ticks_ISO_T2_8,75,9999,9999,9999,969342068
92,9,9,Ticks_ISO_T2_8,76,9999,9999,9999,970141804
92,9,9,Ticks_ISO_T2_8,77,9999,9999,9999,970941556
92,9,9,Ticks_ISO_T2_8,78,9999,9999,9999,971741288
92,9,9,Ticks_ISO_T2_8,79,9999,9999,9999,972542068
92,9,9,Ticks_ISO_T2_8,80,9999,9999,9999,973341804
92,9,9,Ticks_ISO_T2_8,81,9999,9999,9999,974141544
92,9,9,Ticks_ISO_T2_8,82,9999,9999,9999,974941268
92,9,9,Ticks_ISO_T2_8,83,9999,9999,9999,975742048
92,9,9,Ticks_ISO_T2_8,84,9999,9999,9999,976541812
92,9,9,Ticks_ISO_T2_8,85,9999,9999,9999,977341548
92,9,9,Ticks_ISO_T2_8,86,9999,9999,9999,978141280
92,9,9,Ticks_ISO_T2_8,87,9999,9999,9999,978942052
92,9,9,Ticks_ISO_T2_8,88,9999,9999,9999,979741792
92,9,9,Ticks_ISO_T2_8,89,9999,9999,9999,980541524
92,9,9,Ticks_ISO_T2_8,90,9999,9999,9999,981341260
92,9,9,Ticks_ISO_T2_8,91,9999,9999,9999,982142032
92,9,9,Ticks_ISO_T2_8,92,9999,9999,9999,982941792
92,9,9,Ticks_ISO_T2_8,93,9999,9999,9999,983741524
92,9,9,Ticks_ISO_T2_8,94,9999,9999,9999,984541264
92,9,9,Ticks_ISO_T2_8,95,9999,9999,9999,985342044
92,9,9,Ticks_ISO_T2_8,96,9999,9999,9999,986141796
92,9,9,Ticks_ISO_T2_8,97,9999,9999,9999,986941504
92,9,9,Ticks_ISO_T2_8,98,9999,9999,9999,987741236
92,9,9,Ticks_ISO_T2_8,99,9999,9999,9999,988542016
92,9,9,Ticks_ISO_T2_8,100,9999,9999,9999,989341784
92,9,9,Ticks_ISO_T2_8,101,9999,9999,9999,990141508
92,9,9,Ticks_ISO_T2_8,102,9999,9999,9999,990941244
92,9,9,Ticks_ISO_T2_8,103,9999,9999,9999,991742024
92,9,9,Ticks_ISO_T2_8,104,9999,9999,9999,992541756
92,9,9,Ticks_ISO_T2_8,105,9999,9999,9999,993341492
92,9,9,Ticks_ISO_T2_8,106,9999,9999,9999,994141300
92,9,9,Ticks_ISO_T2_8,107,9999,9999,9999,994942004
92,9,9,Ticks_ISO_T2_8,108,9999,9999,9999,995741768
92,9,9,Ticks_ISO_T2_8,109,9999,9999,9999,996541500
92,9,9,Ticks_ISO_T2_8,110,9999,9999,9999,997341232
92,9,9,Ticks_ISO_T2_8,111,9999,9999,9999,998142016
92,9,9,Ticks_ISO_T2_8,112,9999,9999,9999,998941748
92,9,9,Ticks_ISO_T2_8,113,9999,9999,9999,999741488
92,9,9,Ticks_ISO_T2_8,114,9999,9999,9999,1000541296
92,9,9,Ticks_ISO_T2_8,115,9999,9999,9999,1001342000
92,9,9,Ticks_ISO_T2_8,116,9999,9999,9999,1002141752
92,9,9,Ticks_ISO_T2_8,117,9999,9999,9999,1002941488
92,9,9,Ticks_ISO_T2_8,118,9999,9999,9999,1003741292
92,9,9,Ticks_ISO_T2_8,119,9999,9999,9999,1004542004
92,10,10,Ticks_ISO_T2_5,0,5,42,127,1015474524
92,10,10,Ticks_ISO_T2_5,1,5,42,127,1015975288
92,10,10,Ticks_ISO_T2_5,2,1,48,19,1016233344
92,10,10,Ticks_ISO_T2_5,3,5,42,127,1016474956
92,10,10,Ticks_ISO_T2_5,4,1,48,23,1016501364
92,10,10,Ticks_ISO_T2_5,5,5,42,127,1016974800
92,10,10,Ticks_ISO_T2_5,6,1,48,26,1016987272
92,10,10,Ticks_ISO_T2_5,7,5,42,127,1017474348
92,10,10,Ticks_ISO_T2_5,8,1,48,34,1017483304
92,10,10,Ticks_ISO_T2_5,9,5,42,127,1017975088
92,10,10,Ticks_ISO_T2_5,10,1,48,41,1018018028
92,10,10,Ticks_ISO_T2_5,11,5,42,127,1018474932
92,10,10,Ticks_ISO_T2_5,12,1,48,46,1018515972
92,10,10,Ticks_ISO_T2_5,13,1,48,15,1018740820
92,10,10,Ticks_ISO_T2_5,14,5,42,127,1018974752
92,10,10,Ticks_ISO_T2_5,15,1,48,38,1019042148
92,10,10,Ticks_ISO_T2_5,16,5,42,127,1019475268
92,10,10,Ticks_ISO_T2_5,17,1,48,31,1019530148
92,10,10,Ticks_ISO_T2_5,18,5,42,127,1019974964
92,10,10,Ticks_ISO_T2_5,19,1,48,43,1020007632
92,10,10,Ticks_ISO_T2_5,20,5,42,127,1020474732
92,10,10,Ticks_ISO_T2_5,21,1,48,43,1020505824
92,10,10,Ticks_ISO_T2_5,22,5,42,127,1020974576
92,10,10,Ticks_ISO_T2_5,23,1,48,43,1020978668
92,10,10,Ticks_ISO_T2_5,24,1,48,42,1021456952
92,10,10,Ticks_ISO_T2_5,25,5,42,127,1021475236
92,10,10,Ticks_ISO_T2_5,26,5,42,127,1021974864
92,10,10,Ticks_ISO_T2_5,27,1,48,39,1021987632
92,10,10,Ticks_ISO_T2_5,28,5,42,127,1022474560
92,10,10,Ticks_ISO_T2_5,29,1,48,47,1022485008
92,10,10,Ticks_ISO_T2_5,30,5,42,127,1022975448
92,10,10,Ticks_ISO_T2_5,31,1,48,46,1022989188
92,10,10,Ticks_ISO_T2_5,32,5,42,127,1023475072
92,10,10,Ticks_ISO_T2_5,33,1,48,41,1023484768
92,10,10,Ticks_ISO_T2_5,34,5,42,127,1023974764
92,10,10,Ticks_ISO_T2_5,35,1,48,52,1023980128
92,10,10,Ticks_ISO_T2_5,36,1,48,51,1024465292
92,10,10,Ticks_ISO_T2_5,37,5,42,127,1024474824
92,10,10,Ticks_ISO_T2_5,38,5,42,127,1024975352
92,10,10,Ticks_ISO_T2_5,39,1,48,46,1024997020
92,10,10,Ticks_ISO_T2_5,40,5,42,127,1025474972
92,10,10,Ticks_ISO_T2_5,41,1,48,43,1025511676
92,10,10,Ticks_ISO_T2_5,42,5,42,127,1025974888
92,10,10,Ticks_ISO_T2_5,43,1,48,45,1025979956
92,10,10,Ticks_ISO_T2_5,44,1,48,43,1026464372
92,10,10,Ticks_ISO_T2_5,45,5,42,127,1026475328
92,10,10,Ticks_ISO_T2_5,46,1,48,46,1026957388
92,10,10,Ticks_ISO_T2_5,47,5,42,127,1026975020
92,10,10,Ticks_ISO_T2_5,48,5,42,127,1027474844
92,10,10,Ticks_ISO_T2_5,49,1,48,51,1027481780
92,10,10,Ticks_ISO_T2_5,50,1,48,35,1027968964
92,10,10,Ticks_ISO_T2_5,51,5,42,127,1027974756
92,10,10,Ticks_ISO_T2_5,52,5,42,127,1028475208
92,10,10,Ticks_ISO_T2_5,53,1,48,30,1028493512
92,10,10,Ticks_ISO_T2_5,54,5,42,127,1028974904
92,10,10,Ticks_ISO_T2_5,55,1,48,36,1029003076
92,10,10,Ticks_ISO_T2_5,56,5,42,127,1029474744
92,10,10,Ticks_ISO_T2_5,57,1,48,39,1029517132
92,10,10,Ticks_ISO_T2_5,58,5,42,127,1029975488
92,10,10,Ticks_ISO_T2_5,59,1,48,41,1030007180
92,10,10,Ticks_ISO_T2_5,60,5,42,127,1030475404
92,10,10,Ticks_ISO_T2_5,61,1,48,43,1030493108
92,10,10,Ticks_ISO_T2_5,62,1,48,43,1030956884
92,10,10,Ticks_ISO_T2_5,63,5,42,127,1030974796
92,10,10,Ticks_ISO_T2_5,64,1,48,45,1031472212
92,10,10,Ticks_ISO_T2_5,65,5,42,127,1031474712
92,10,10,Ticks_ISO_T2_5,66,5,42,127,1031975236
92,10,10,Ticks_ISO_T2_5,67,1,48,43,1031991520
92,10,10,Ticks_ISO_T2_5,68,5,42,127,1032474928
92,10,10,Ticks_ISO_T2_5,69,1,48,47,1032478124
92,10,10,Ticks_ISO_T2_5,70,5,42,127,1032974772
92,10,10,Ticks_ISO_T2_5,71,1,48,51,1033008636
92,10,10,Ticks_ISO_T2_5,72,5,42,127,1033474692
92,10,10,Ticks_ISO_T2_5,73,1,48,48,1033487764
92,10,10,Ticks_ISO_T2_5,74,5,42,127,1033975136
92,10,10,Ticks_ISO_T2_5,75,1,48,43,1033981620
92,10,10,Ticks_ISO_T2_5,76,5,42,127,1034474832
92,10,10,Ticks_ISO_T2_5,77,1,48,46,1034500168
92,10,10,Ticks_ISO_T2_5,78,5,42,127,1034974748
92,10,10,Ticks_ISO_T2_5,79,1,48,43,1034978472
92,10,10,Ticks_ISO_T2_5,80,1,48,46,1035456376
92,10,10,Ticks_ISO_T2_5,81,5,42,127,1035475412
92,10,10,Ticks_ISO_T2_5,82,1,48,45,1035956300
92,10,10,Ticks_ISO_T2_5,83,5,42,127,1035975108
92,10,10,Ticks_ISO_T2_5,84,1,48,44,1036465420
92,10,10,Ticks_ISO_T2_5,85,5,42,127,1036474876
92,10,10,Ticks_ISO_T2_5,86,1,48,48,1036957712
92,10,10,Ticks_ISO_T2_5,87,5,42,127,1036974716
92,10,10,Ticks_ISO_T2_5,88,5,42,127,1037475316
92,10,10,Ticks_ISO_T2_5,89,1,48,40,1037493472
92,10,10,Ticks_ISO_T2_5,90,5,42,127,1037974836
92,10,10,Ticks_ISO_T2_5,91,1,48,44,1038005284
92,10,10,Ticks_ISO_T2_5,92,5,42,127,1038474532
92,10,10,Ticks_ISO_T2_5,93,1,48,44,1038483788
92,10,10,Ticks_ISO_T2_5,94,1,48,48,1038962220
92,10,10,Ticks_ISO_T2_5,95,5,42,127,1038975416
92,10,10,Ticks_ISO_T2_5,96,5,42,127,1039475268
92,10,10,Ticks_ISO_T2_5,97,1,48,48,1039476160
92,10,10,Ticks_ISO_T2_5,98,5,42,127,1039974888
92,10,10,Ticks_ISO_T2_5,99,1,48,48,1039977488
92,10,10,Ticks_ISO_T2_5,100,5,42,127,1040474432
92,10,10,Ticks_ISO_T2_5,101,1,48,54,1040479572
92,10,10,Ticks_ISO_T2_5,102,5,42,127,1040975176
92,10,10,Ticks_ISO_T2_5,103,1,48,49,1041013596
92,10,10,Ticks_ISO_T2_5,104,1,48,49,1041440568
92,10,10,Ticks_ISO_T2_5,105,5,42,127,1041474788
92,10,10,Ticks_ISO_T2_5,106,5,42,127,1041974564
92,10,10,Ticks_ISO_T2_5,107,1,48,48,1041990924
92,10,10,Ticks_ISO_T2_5,108,5,42,127,1042475528
92,10,10,Ticks_ISO_T2_5,109,1,48,58,1042488072
92,10,10,Ticks_ISO_T2_5,110,1,48,47,1042968976
92,10,10,Ticks_ISO_T2_5,111,5,42,127,1042975068
92,10,10,Ticks_ISO_T2_5,112,5,42,127,1043474692
92,10,10,Ticks_ISO_T2_5,113,1,48,57,1043487236
92,10,10,Ticks_ISO_T2_5,114,5,42,127,1043974612
92,10,10,Ticks_ISO_T2_5,115,1,48,55,1044000616
92,10,10,Ticks_ISO_T2_5,116,5,42,127,1044475280
92,10,10,Ticks_ISO_T2_5,117,1,48,50,1044504804
92,10,10,Ticks_ISO_T2_5,118,5,42,127,1044975048
92,10,10,Ticks_ISO_T2_5,119,1,48,53,1044988268
92,10,10,Ticks_ISO_T2_5,120,5,42,127,1045474592
92,10,10,Ticks_ISO_T2_5,121,1,48,52,1045507260
92,10,10,Ticks_ISO_T2_5,122,1,48,54,1045963852
92,10,10,Ticks_ISO_T2_5,123,5,42,127,1045975624
92,10,10,Ticks_ISO_T2_5,124,5,42,127,1046475256
92,10,10,Ticks_ISO_T2_5,125,1,48,55,1046483608
92,10,10,Ticks_ISO_T2_5,126,1,48,57,1046974504
92,10,10,Ticks_ISO_T2_5,127,5,42,127,1046975840
92,10,10,Ticks_ISO_T2_5,128,5,42,127,1047474568
92,10,10,Ticks_ISO_T2_5,129,1,48,58,1047500500
92,10,10,Ticks_ISO_T2_5,130,1,48,56,1047971828
92,10,10,Ticks_ISO_T2_5,131,5,42,127,1047975380
92,10,10,Ticks_ISO_T2_5,132,5,42,127,1048475080
92,10,10,Ticks_ISO_T2_5,133,1,48,56,1048489716
92,10,10,Ticks_ISO_T2_5,134,5,42,127,1048974676
92,10,10,Ticks_ISO_T2_5,135,1,48,56,1049012380
92,10,10,Ticks_ISO_T2_5,136,5,42,127,1049474296
92,10,10,Ticks_ISO_T2_5,137,1,48,58,1049489460
92,10,10,Ticks_ISO_T2_5,138,1,48,57,1049973832
92,10,10,Ticks_ISO_T2_5,139,5,42,127,1049975476
92,10,10,Ticks_ISO_T2_5,140,1,48,50,1050467136
92,10,10,Ticks_ISO_T2_5,141,5,42,127,1050474800
92,10,10,Ticks_ISO_T2_5,142,5,42,127,1050974428
92,10,10,Ticks_ISO_T2_5,143,1,48,57,1050994076
92,10,10,Ticks_ISO_T2_5,144,5,42,127,1051475464
92,10,10,Ticks_ISO_T2_5,145,1,48,58,1051487188
92,10,10,Ticks_ISO_T2_5,146,5,42,127,1051975160
92,10,10,Ticks_ISO_T2_5,147,1,48,50,1051993688
92,10,10,Ticks_ISO_T2_5,148,5,42,127,1052474780
92,10,10,Ticks_ISO_T2_5,149,1,48,58,1052483208
92,10,10,Ticks_ISO_T2_5,150,5,42,127,1052974324
92,10,10,Ticks_ISO_T2_5,151,1,48,51,1052981336
92,10,10,Ticks_ISO_T2_5,152,5,42,127,1053475364
92,10,10,Ticks_ISO_T2_5,153,1,48,50,1053483200
92,10,10,Ticks_ISO_T2_5,154,5,42,127,1053974836
92,10,10,Ticks_ISO_T2_5,155,1,48,55,1053990744
92,10,10,Ticks_ISO_T2_5,156,5,42,127,1054474532
92,10,10,Ticks_ISO_T2_5,157,1,48,47,1054494856
92,10,10,Ticks_ISO_T2_5,158,5,42,127,1054975500
92,10,10,Ticks_ISO_T2_5,159,1,48,48,1055003524
92,10,10,Ticks_ISO_T2_5,160,5,42,127,1055475340
92,10,10,Ticks_ISO_T2_5,161,1,48,57,1055482872
92,10,10,Ticks_ISO_T2_5,162,1,48,49,1055962584
92,10,10,Ticks_ISO_T2_5,163,5,42,127,1055974736
92,10,10,Ticks_ISO_T2_5,164,1,48,47,1056471404
92,10,10,Ticks_ISO_T2_5,165,5,42,127,1056474504
92,10,10,Ticks_ISO_T2_5,166,1,48,51,1056969524
92,10,10,Ticks_ISO_T2_5,167,5,42,127,1056975392
92,10,10,Ticks_ISO_T2_5,168,1,48,50,1057464436
92,10,10,Ticks_ISO_T2_5,169,5,42,127,1057475016
92,10,10,Ticks_ISO_T2_5,170,1,48,40,1057940768
92,10,10,Ticks_ISO_T2_5,171,5,42,127,1057974484
92,10,10,Ticks_ISO_T2_5,172,5,42,127,1058475308
92,10,10,Ticks_ISO_T2_5,173,1,48,47,1058482392
92,10,10,Ticks_ISO_T2_5,174,1,48,50,1058954668
92,10,10,Ticks_ISO_T2_5,175,5,42,127,1058975292
92,10,10,Ticks_ISO_T2_5,176,5,42,127,1059474744
92,10,10,Ticks_ISO_T2_5,177,1,48,48,1059483948
92,10,10,Ticks_ISO_T2_5,178,5,42,127,1059974368
92,10,10,Ticks_ISO_T2_5,179,1,48,41,1059976380
92,10,10,Ticks_ISO_T2_5,180,1,48,47,1060472224
92,10,10,Ticks_ISO_T2_5,181,5,42,127,1060475472
92,10,10,Ticks_ISO_T2_5,182,1,48,51,1060962268
92,10,10,Ticks_ISO_T2_5,183,5,42,127,1060975168
92,10,10,Ticks_ISO_T2_5,184,1,48,47,1061446256
92,10,10,Ticks_ISO_T2_5,185,5,42,127,1061474640
92,10,10,Ticks_ISO_T2_5,186,5,42,127,1061975388
92,10,10,Ticks_ISO_T2_5,187,1,48,57,1061988304
92,10,10,Ticks_ISO_T2_5,188,1,48,43,1062463448
92,10,10,Ticks_ISO_T2_5,189,5,42,127,1062475372
92,10,10,Ticks_ISO_T2_5,190,5,42,127,1062974780
92,10,10,Ticks_ISO_T2_5,191,1,48,49,1063016340
92,10,10,Ticks_ISO_T2_5,192,5,42,127,1063474620
92,10,10,Ticks_ISO_T2_5,193,1,48,42,1063507732
92,10,10,Ticks_ISO_T2_5,194,5,42,127,1063975436
92,10,10,Ticks_ISO_T2_5,195,1,48,41,1064003692
92,10,10,Ticks_ISO_T2_5,196,5,42,127,1064475280
92,10,10,Ticks_ISO_T2_5,197,1,48,45,1064498524
92,10,10,Ticks_ISO_T2_5,198,5,42,127,1064974676
92,10,10,Ticks_ISO_T2_5,199,1,48,48,1064987972
92,10,10,Ticks_ISO_T2_5,200,5,42,127,1065474372
92,10,10,Ticks_ISO_T2_5,201,1,48,48,1065482432
92,10,10,Ticks_ISO_T2_5,202,1,48,27,1065561768
92,10,10,Ticks_ISO_T2_5,203,1,48,46,1065964656
92,10,10,Ticks_ISO_T2_5,204,5,42,127,1065975012
92,10,10,Ticks_ISO_T2_5,205,1,48,26,1066019932
92,10,10,Ticks_ISO_T2_5,206,5,42,127,1066474768
92,10,10,Ticks_ISO_T2_5,207,1,48,48,1066488960
92,10,10,Ticks_ISO_T2_5,208,5,42,127,1066974612
92,10,10,Ticks_ISO_T2_5,209,1,48,53,1066993660
92,10,10,Ticks_ISO_T2_5,210,1,48,51,1067468284
92,10,10,Ticks_ISO_T2_5,211,5,42,127,1067475344
92,10,10,Ticks_ISO_T2_5,212,5,42,127,1067975048
92,10,10,Ticks_ISO_T2_5,213,1,48,49,1067976236
92,10,10,Ticks_ISO_T2_5,214,1,48,48,1068468720
92,10,10,Ticks_ISO_T2_5,215,5,42,127,1068474588
92,10,10,Ticks_ISO_T2_5,216,5,42,127,1068974440
92,10,10,Ticks_ISO_T2_5,217,1,48,44,1068999396
92,10,10,Ticks_ISO_T2_5,218,1,48,44,1069467508
92,10,10,Ticks_ISO_T2_5,219,5,42,127,1069475172
92,10,10,Ticks_ISO_T2_5,220,1,48,43,1069968076
92,10,10,Ticks_ISO_T2_5,221,5,42,127,1069975064
92,10,10,Ticks_ISO_T2_5,222,5,42,127,1070474620
92,10,10,Ticks_ISO_T2_5,223,1,48,49,1070495116
92,10,10,Ticks_ISO_T2_5,224,5,42,127,1070975284
92,10,10,Ticks_ISO_T2_5,225,1,48,45,1071004908
92,10,10,Ticks_ISO_T2_5,226,1,48,43,1071440604
92,10,10,Ticks_ISO_T2_5,227,5,42,127,1071475048
92,10,10,Ticks_ISO_T2_5,228,5,42,127,1071974748
92,10,10,Ticks_ISO_T2_5,229,1,48,41,1071981012
92,10,10,Ticks_ISO_T2_5,230,5,42,127,1072474444
92,10,10,Ticks_ISO_T2_5,231,1,48,46,1072487812
92,10,10,Ticks_ISO_T2_5,232,1,48,53,1072966168
92,10,10,Ticks_ISO_T2_5,233,5,42,127,1072975180
92,10,10,Ticks_ISO_T2_5,234,1,48,48,1073472444
92,10,10,Ticks_ISO_T2_5,235,5,42,127,1073475020
92,10,10,Ticks_ISO_T2_5,236,1,48,52,1073949476
92,10,10,Ticks_ISO_T2_5,237,5,42,127,1073974568
92,10,10,Ticks_ISO_T2_5,238,5,42,127,1074475316
92,10,10,Ticks_ISO_T2_5,239,1,48,46,1074485840
92,10,10,Ticks_ISO_T2_5,240,1,48,43,1074967492
92,10,10,Ticks_ISO_T2_5,241,5,42,127,1074975080
92,10,10,Ticks_ISO_T2_5,242,1,48,44,1075456568
92,10,10,Ticks_ISO_T2_5,243,5,42,127,1075474924
92,10,10,Ticks_ISO_T2_5,244,1,48,47,1075945640
92,10,10,Ticks_ISO_T2_5,245,5,42,127,1075974396
92,10,10,Ticks_ISO_T2_5,246,1,48,50,1076465976
92,10,10,Ticks_ISO_T2_5,247,5,42,127,1076475208
92,10,10,Ticks_ISO_T2_5,248,1,48,53,1076940464
92,10,10,Ticks_ISO_T2_5,249,5,42,127,1076975128
92,10,10,Ticks_ISO_T2_5,250,5,42,127,1077474756
92,10,10,Ticks_ISO_T2_5,251,1,48,55,1077491936
92,10,10,Ticks_ISO_T2_5,252,5,42,127,1077975348
92,10,10,Ticks_ISO_T2_5,253,1,48,55,1077994396
92,10,10,Ticks_ISO_T2_5,254,5,42,127,1078475192
92,10,10,Ticks_ISO_T2_5,255,1,48,53,1078494692
92,10,10,Ticks_ISO_T2_5,256,5,42,127,1078974960
92,10,10,Ticks_ISO_T2_5,257,1,48,46,1078978980
92,10,10,Ticks_ISO_T2_5,258,5,42,127,1079474656
92,10,10,Ticks_ISO_T2_5,259,1,48,52,1079505976
92,10,10,Ticks_ISO_T2_5,260,5,42,127,1079975248
92,10,10,Ticks_ISO_T2_5,261,1,48,47,1079977920
92,10,10,Ticks_ISO_T2_5,262,1,48,48,1080446008
92,10,10,Ticks_ISO_T2_5,0,9999,9999,9999,1015472236
92,10,10,Ticks_ISO_T2_5,1,9999,9999,9999,1015972924
92,10,10,Ticks_ISO_T2_5,2,9999,9999,9999,1016472668
92,10,10,Ticks_ISO_T2_5,3,9999,9999,9999,1016972364
92,10,10,Ticks_ISO_T2_5,4,9999,9999,9999,1017472060
92,10,10,Ticks_ISO_T2_5,5,9999,9999,9999,1017972800
92,10,10,Ticks_ISO_T2_5,6,9999,9999,9999,1018472572
92,10,10,Ticks_ISO_T2_5,7,9999,9999,9999,1018972244
92,10,10,Ticks_ISO_T2_5,8,9999,9999,9999,1019472984
92,10,10,Ticks_ISO_T2_5,9,9999,9999,9999,1019972676
92,10,10,Ticks_ISO_T2_5,10,9999,9999,9999,1020472372
92,10,10,Ticks_ISO_T2_5,11,9999,9999,9999,1020972140
92,10,10,Ticks_ISO_T2_5,12,9999,9999,9999,1021472876
92,10,10,Ticks_ISO_T2_5,13,9999,9999,9999,1021972580
92,10,10,Ticks_ISO_T2_5,14,9999,9999,9999,1022472272
92,10,10,Ticks_ISO_T2_5,15,9999,9999,9999,1022973016
92,10,10,Ticks_ISO_T2_5,16,9999,9999,9999,1023472708
92,10,10,Ticks_ISO_T2_5,17,9999,9999,9999,1023972404
92,10,10,Ticks_ISO_T2_5,18,9999,9999,9999,1024472168
92,10,10,Ticks_ISO_T2_5,19,9999,9999,9999,1024972916
92,10,10,Ticks_ISO_T2_5,20,9999,9999,9999,1025472612
92,10,10,Ticks_ISO_T2_5,21,9999,9999,9999,1025972304
92,10,10,Ticks_ISO_T2_5,22,9999,9999,9999,1026473040
92,10,10,Ticks_ISO_T2_5,23,9999,9999,9999,1026972736
92,10,10,Ticks_ISO_T2_5,24,9999,9999,9999,1027472484
92,10,10,Ticks_ISO_T2_5,25,9999,9999,9999,1027972172
92,10,10,Ticks_ISO_T2_5,26,9999,9999,9999,1028472920
92,10,10,Ticks_ISO_T2_5,27,9999,9999,9999,1028972616
92,10,10,Ticks_ISO_T2_5,28,9999,9999,9999,1029472312
92,10,10,Ticks_ISO_T2_5,29,9999,9999,9999,1029973052
92,10,10,Ticks_ISO_T2_5,30,9999,9999,9999,1030472820
92,10,10,Ticks_ISO_T2_5,31,9999,9999,9999,1030972508
92,10,10,Ticks_ISO_T2_5,32,9999,9999,9999,1031472276
92,10,10,Ticks_ISO_T2_5,33,9999,9999,9999,1031972948
92,10,10,Ticks_ISO_T2_5,34,9999,9999,9999,1032472644
92,10,10,Ticks_ISO_T2_5,35,9999,9999,9999,1032972340
92,10,10,Ticks_ISO_T2_5,36,9999,9999,9999,1033472108
92,10,10,Ticks_ISO_T2_5,37,9999,9999,9999,1033972848
92,10,10,Ticks_ISO_T2_5,38,9999,9999,9999,1034472544
92,10,10,Ticks_ISO_T2_5,39,9999,9999,9999,1034972240
92,10,10,Ticks_ISO_T2_5,40,9999,9999,9999,1035472976
92,10,10,Ticks_ISO_T2_5,41,9999,9999,9999,1035972672
92,10,10,Ticks_ISO_T2_5,42,9999,9999,9999,1036472440
92,10,10,Ticks_ISO_T2_5,43,9999,9999,9999,1036972136
92,10,10,Ticks_ISO_T2_5,44,9999,9999,9999,1037472884
92,10,10,Ticks_ISO_T2_5,45,9999,9999,9999,1037972552
92,10,10,Ticks_ISO_T2_5,46,9999,9999,9999,1038472248
92,10,10,Ticks_ISO_T2_5,47,9999,9999,9999,1038972984
92,10,10,Ticks_ISO_T2_5,48,9999,9999,9999,1039472756
92,10,10,Ticks_ISO_T2_5,49,9999,9999,9999,1039972452
92,10,10,Ticks_ISO_T2_5,50,9999,9999,9999,1040472148
92,10,10,Ticks_ISO_T2_5,51,9999,9999,9999,1040972888
92,10,10,Ticks_ISO_T2_5,52,9999,9999,9999,1041472576
92,10,10,Ticks_ISO_T2_5,53,9999,9999,9999,1041972276
92,10,10,Ticks_ISO_T2_5,54,9999,9999,9999,1042473020
92,10,10,Ticks_ISO_T2_5,55,9999,9999,9999,1042972780
92,10,10,Ticks_ISO_T2_5,56,9999,9999,9999,1043472480
92,10,10,Ticks_ISO_T2_5,57,9999,9999,9999,1043972176
92,10,10,Ticks_ISO_T2_5,58,9999,9999,9999,1044472916
92,10,10,Ticks_ISO_T2_5,59,9999,9999,9999,1044972612
92,10,10,Ticks_ISO_T2_5,60,9999,9999,9999,1045472308
92,10,10,Ticks_ISO_T2_5,61,9999,9999,9999,1045973044
92,10,10,Ticks_ISO_T2_5,62,9999,9999,9999,1046472820
92,10,10,Ticks_ISO_T2_5,63,9999,9999,9999,1046972516
92,10,10,Ticks_ISO_T2_5,64,9999,9999,9999,1047472208
92,10,10,Ticks_ISO_T2_5,65,9999,9999,9999,1047972944
92,10,10,Ticks_ISO_T2_5,66,9999,9999,9999,1048472692
92,10,10,Ticks_ISO_T2_5,67,9999,9999,9999,1048972388
92,10,10,Ticks_ISO_T2_5,68,9999,9999,9999,1049472084
92,10,10,Ticks_ISO_T2_5,69,9999,9999,9999,1049972824
92,10,10,Ticks_ISO_T2_5,70,9999,9999,9999,1050472512
92,10,10,Ticks_ISO_T2_5,71,9999,9999,9999,1050972216
92,10,10,Ticks_ISO_T2_5,72,9999,9999,9999,1051472956
92,10,10,Ticks_ISO_T2_5,73,9999,9999,9999,1051972728
92,10,10,Ticks_ISO_T2_5,74,9999,9999,9999,1052472420
92,10,10,Ticks_ISO_T2_5,75,9999,9999,9999,1052972112
92,10,10,Ticks_ISO_T2_5,76,9999,9999,9999,1053472856
92,10,10,Ticks_ISO_T2_5,77,9999,9999,9999,1053972548
92,10,10,Ticks_ISO_T2_5,78,9999,9999,9999,1054472248
92,10,10,Ticks_ISO_T2_5,79,9999,9999,9999,1054972988
92,10,10,Ticks_ISO_T2_5,80,9999,9999,9999,1055472760
92,10,10,Ticks_ISO_T2_5,81,9999,9999,9999,1055972448
92,10,10,Ticks_ISO_T2_5,82,9999,9999,9999,1056472140
92,10,10,Ticks_ISO_T2_5,83,9999,9999,9999,1056972884
92,10,10,Ticks_ISO_T2_5,84,9999,9999,9999,1057472580
92,10,10,Ticks_ISO_T2_5,85,9999,9999,9999,1057972272
92,10,10,Ticks_ISO_T2_5,86,9999,9999,9999,1058473020
92,10,10,Ticks_ISO_T2_5,87,9999,9999,9999,1058972784
92,10,10,Ticks_ISO_T2_5,88,9999,9999,9999,1059472460
92,10,10,Ticks_ISO_T2_5,89,9999,9999,9999,1059972156
92,10,10,Ticks_ISO_T2_5,90,9999,9999,9999,1060472888
92,10,10,Ticks_ISO_T2_5,91,9999,9999,9999,1060972660
92,10,10,Ticks_ISO_T2_5,92,9999,9999,9999,1061472352
92,10,10,Ticks_ISO_T2_5,93,9999,9999,9999,1061973100
92,10,10,Ticks_ISO_T2_5,94,9999,9999,9999,1062472792
92,10,10,Ticks_ISO_T2_5,95,9999,9999,9999,1062972492
92,10,10,Ticks_ISO_T2_5,96,9999,9999,9999,1063472184
92,10,10,Ticks_ISO_T2_5,97,9999,9999,9999,1063972924
92,10,10,Ticks_ISO_T2_5,98,9999,9999,9999,1064472696
92,10,10,Ticks_ISO_T2_5,99,9999,9999,9999,1064972392
92,10,10,Ticks_ISO_T2_5,100,9999,9999,9999,1065472088
92,10,10,Ticks_ISO_T2_5,101,9999,9999,9999,1065972800
92,10,10,Ticks_ISO_T2_5,102,9999,9999,9999,1066472556
92,10,10,Ticks_ISO_T2_5,103,9999,9999,9999,1066972252
92,10,10,Ticks_ISO_T2_5,104,9999,9999,9999,1067472984
92,10,10,Ticks_ISO_T2_5,105,9999,9999,9999,1067972688
92,10,10,Ticks_ISO_T2_5,106,9999,9999,9999,1068472376
92,10,10,Ticks_ISO_T2_5,107,9999,9999,9999,1068972152
92,10,10,Ticks_ISO_T2_5,108,9999,9999,9999,1069472888
92,10,10,Ticks_ISO_T2_5,109,9999,9999,9999,1069972556
92,10,10,Ticks_ISO_T2_5,110,9999,9999,9999,1070472256
92,10,10,Ticks_ISO_T2_5,111,9999,9999,9999,1070973000
92,10,10,Ticks_ISO_T2_5,112,9999,9999,9999,1071472760
92,10,10,Ticks_ISO_T2_5,113,9999,9999,9999,1071972464
92,10,10,Ticks_ISO_T2_5,114,9999,9999,9999,1072472156
92,10,10,Ticks_ISO_T2_5,115,9999,9999,9999,1072972892
92,10,10,Ticks_ISO_T2_5,116,9999,9999,9999,1073472588
92,10,10,Ticks_ISO_T2_5,117,9999,9999,9999,1073972284
92,10,10,Ticks_ISO_T2_5,118,9999,9999,9999,1074473032
92,10,10,Ticks_ISO_T2_5,119,9999,9999,9999,1074972796
92,10,10,Ticks_ISO_T2_5,120,9999,9999,9999,1075472488
92,10,10,Ticks_ISO_T2_5,121,9999,9999,9999,1075972184
92,10,10,Ticks_ISO_T2_5,122,9999,9999,9999,1076472924
92,10,10,Ticks_ISO_T2_5,123,9999,9999,9999,1076972620
92,10,10,Ticks_ISO_T2_5,124,9999,9999,9999,1077472320
92,10,10,Ticks_ISO_T2_5,125,9999,9999,9999,1077973060
92,10,10,Ticks_ISO_T2_5,126,9999,9999,9999,1078472756
92,10,10,Ticks_ISO_T2_5,127,9999,9999,9999,1078972524
92,10,10,Ticks_ISO_T2_5,128,9999,9999,9999,1079472220
92,10,10,Ticks_ISO_T2_5,129,9999,9999,9999,1079972960
92,11,25,Jits_Pract_5,0,5,56,103,1128328580
92,11,25,Jits_Pract_5,1,5,63,98,1128331752
92,11,25,Jits_Pract_5,2,5,80,127,1128334872
92,11,25,Jits_Pract_5,0,5,56,103,1128829276
92,11,25,Jits_Pract_5,1,5,63,98,1128832372
92,11,25,Jits_Pract_5,2,5,80,127,1128835496
92,11,25,Jits_Pract_5,0,5,56,103,1129329168
92,11,25,Jits_Pract_5,1,5,80,127,1129339288
92,11,25,Jits_Pract_5,2,5,63,98,1129358776
92,11,25,Jits_Pract_5,0,5,63,98,1129778568
92,11,25,Jits_Pract_5,1,5,80,127,1129809288
92,11,25,Jits_Pract_5,2,5,56,103,1129818440
92,11,25,Jits_Pract_5,0,5,80,127,1130338604
92,11,25,Jits_Pract_5,1,5,56,103,1130348952
92,11,25,Jits_Pract_5,2,5,63,98,1130378552
92,11,25,Jits_Pract_5,0,5,63,98,1130829284
92,11,25,Jits_Pract_5,1,5,56,103,1130858736
92,11,25,Jits_Pract_5,2,5,80,127,1130869228
92,11,25,Jits_Pract_5,0,5,56,103,1131278592
92,11,25,Jits_Pract_5,1,5,63,98,1131329168
92,11,25,Jits_Pract_5,2,5,80,127,1131349328
92,11,25,Jits_Pract_5,0,5,80,127,1131778484
92,11,25,Jits_Pract_5,1,5,63,98,1131828540
92,11,25,Jits_Pract_5,2,5,56,103,1131868628
92,11,25,Jits_Pract_5,0,5,56,103,1132279276
92,11,25,Jits_Pract_5,1,5,63,98,1132308952
92,11,25,Jits_Pract_5,2,5,80,127,1132378332
92,11,25,Jits_Pract_5,0,5,56,103,1132778724
92,11,25,Jits_Pract_5,1,5,80,127,1132839412
92,11,25,Jits_Pract_5,2,5,63,98,1132869160
92,11,25,Jits_Pract_5,0,5,56,103,1133289104
92,11,25,Jits_Pract_5,1,5,63,98,1133299224
92,11,25,Jits_Pract_5,2,5,80,127,1133339236
92,11,25,Jits_Pract_5,0,5,63,98,1133779252
92,11,25,Jits_Pract_5,1,5,80,127,1133859052
92,11,25,Jits_Pract_5,2,5,56,103,1133869396
92,11,25,Jits_Pract_5,0,5,63,98,1134329180
92,11,25,Jits_Pract_5,1,5,56,103,1134369192
92,11,25,Jits_Pract_5,2,5,80,127,1134372256
92,11,25,Jits_Pract_5,0,5,56,103,1134789192
92,11,25,Jits_Pract_5,1,5,63,98,1134799164
92,11,25,Jits_Pract_5,2,5,80,127,1134839252
92,11,25,Jits_Pract_5,0,5,56,103,1135278520
92,11,25,Jits_Pract_5,1,5,63,98,1135281512
92,11,25,Jits_Pract_5,2,5,80,127,1135298904
92,11,25,Jits_Pract_5,0,9999,9999,9999,1128576092
92,11,25,Jits_Pract_5,1,9999,9999,9999,1129076788
92,11,25,Jits_Pract_5,2,9999,9999,9999,1129576536
92,11,25,Jits_Pract_5,3,9999,9999,9999,1130076276
92,11,25,Jits_Pract_5,4,9999,9999,9999,1130576980
92,11,25,Jits_Pract_5,5,9999,9999,9999,1131076728
92,11,25,Jits_Pract_5,6,9999,9999,9999,1131576380
92,11,25,Jits_Pract_5,7,9999,9999,9999,1132076124
92,11,25,Jits_Pract_5,8,9999,9999,9999,1132576840
92,11,25,Jits_Pract_5,9,9999,9999,9999,1133076584
92,11,25,Jits_Pract_5,10,9999,9999,9999,1133576252
92,11,25,Jits_Pract_5,11,9999,9999,9999,1134077040
92,11,25,Jits_Pract_5,12,9999,9999,9999,1134576764
92,11,25,Jits_Pract_5,13,9999,9999,9999,1135076416
92,11,25,Jits_Pract_5,14,9999,9999,9999,1135576144
92,12,24,Jits_Pract_8,0,1,48,14,1187909104
92,12,24,Jits_Pract_8,1,5,56,103,1188310320
92,12,24,Jits_Pract_8,2,5,63,98,1188313344
92,12,24,Jits_Pract_8,3,5,80,127,1188316540
92,12,24,Jits_Pract_8,0,1,48,16,1188973448
92,12,24,Jits_Pract_8,1,5,56,103,1189110356
92,12,24,Jits_Pract_8,2,5,63,98,1189113456
92,12,24,Jits_Pract_8,3,5,80,127,1189116572
92,12,24,Jits_Pract_8,0,5,80,127,1189849444
92,12,24,Jits_Pract_8,1,5,63,98,1189939428
92,12,24,Jits_Pract_8,2,5,56,103,1189950072
92,12,24,Jits_Pract_8,3,1,48,28,1189996408
92,12,24,Jits_Pract_8,0,5,56,103,1190669744
92,12,24,Jits_Pract_8,1,5,63,98,1190679944
92,12,24,Jits_Pract_8,2,1,48,36,1190748172
92,12,24,Jits_Pract_8,3,5,80,127,1190770140
92,12,24,Jits_Pract_8,0,5,63,98,1191439620
92,12,24,Jits_Pract_8,1,1,48,40,1191457192
92,12,24,Jits_Pract_8,2,5,80,127,1191469364
92,12,24,Jits_Pract_8,3,5,56,103,1191500160
92,12,24,Jits_Pract_8,0,1,48,43,1192193632
92,12,24,Jits_Pract_8,1,5,56,103,1192239512
92,12,24,Jits_Pract_8,2,5,80,127,1192339772
92,12,24,Jits_Pract_8,3,5,63,98,1192390120
92,12,24,Jits_Pract_8,0,5,56,103,1193040324
92,12,24,Jits_Pract_8,1,1,48,38,1193080532
92,12,24,Jits_Pract_8,2,5,80,127,1193090444
92,12,24,Jits_Pract_8,3,5,63,98,1193130408
92,12,24,Jits_Pract_8,0,5,80,127,1193869684
92,12,24,Jits_Pract_8,1,1,48,44,1193872276
92,12,24,Jits_Pract_8,2,5,63,98,1193900352
92,12,24,Jits_Pract_8,3,5,56,103,1193970088
92,12,24,Jits_Pract_8,0,1,48,49,1194669232
92,12,24,Jits_Pract_8,1,5,63,98,1194700192
92,12,24,Jits_Pract_8,2,5,56,103,1194730020
92,12,24,Jits_Pract_8,3,5,80,127,1194790392
92,12,24,Jits_Pract_8,0,5,56,103,1195439344
92,12,24,Jits_Pract_8,1,5,80,127,1195442416
92,12,24,Jits_Pract_8,2,1,48,43,1195504268
92,12,24,Jits_Pract_8,3,5,63,98,1195560412
92,12,24,Jits_Pract_8,0,1,48,49,1196250540
92,12,24,Jits_Pract_8,1,5,56,103,1196320092
92,12,24,Jits_Pract_8,2,5,80,127,1196360240
92,12,24,Jits_Pract_8,3,5,63,98,1196370284
92,12,24,Jits_Pract_8,0,1,48,42,1197050748
92,12,24,Jits_Pract_8,1,5,56,103,1197079844
92,12,24,Jits_Pract_8,2,5,80,127,1197100452
92,12,24,Jits_Pract_8,3,5,63,98,1197180232
92,12,24,Jits_Pract_8,0,1,48,40,1197814016
92,12,24,Jits_Pract_8,1,5,80,127,1197869564
92,12,24,Jits_Pract_8,2,5,56,103,1197969648
92,12,24,Jits_Pract_8,3,5,63,98,1197980240
92,12,24,Jits_Pract_8,0,1,48,43,1198627776
92,12,24,Jits_Pract_8,1,5,63,98,1198639504
92,12,24,Jits_Pract_8,2,5,80,127,1198699972
92,12,24,Jits_Pract_8,3,5,56,103,1198710092
92,12,24,Jits_Pract_8,0,1,48,45,1199398928
92,12,24,Jits_Pract_8,1,5,56,103,1199440228
92,12,24,Jits_Pract_8,2,5,63,98,1199509996
92,12,24,Jits_Pract_8,3,5,80,127,1199513432
92,12,24,Jits_Pract_8,0,9999,9999,9999,1188707428
92,12,24,Jits_Pract_8,1,9999,9999,9999,1189507168
92,12,24,Jits_Pract_8,2,9999,9999,9999,1190307920
92,12,24,Jits_Pract_8,3,9999,9999,9999,1191107692
92,12,24,Jits_Pract_8,4,9999,9999,9999,1191907380
92,12,24,Jits_Pract_8,5,9999,9999,9999,1192707140
92,12,24,Jits_Pract_8,6,9999,9999,9999,1193507936
92,12,24,Jits_Pract_8,7,9999,9999,9999,1194307636
92,12,24,Jits_Pract_8,8,9999,9999,9999,1195107412
92,12,24,Jits_Pract_8,9,9999,9999,9999,1195907152
92,12,24,Jits_Pract_8,10,9999,9999,9999,1196707928
92,12,24,Jits_Pract_8,11,9999,9999,9999,1197507684
92,12,24,Jits_Pract_8,12,9999,9999,9999,1198307444
92,12,24,Jits_Pract_8,13,9999,9999,9999,1199107124
92,12,24,Jits_Pract_8,14,9999,9999,9999,1199907916
92,13,25,Jits_Pract_5,0,1,48,34,1209938724
92,13,25,Jits_Pract_5,1,5,56,103,1210190152
92,13,25,Jits_Pract_5,2,5,63,98,1210193180
92,13,25,Jits_Pract_5,3,5,80,127,1210196232
92,13,25,Jits_Pract_5,0,5,56,103,1210690000
92,13,25,Jits_Pract_5,1,5,63,98,1210693100
92,13,25,Jits_Pract_5,2,5,80,127,1210696072
92,13,25,Jits_Pract_5,0,1,48,22,1210950456
92,13,25,Jits_Pract_5,1,5,56,103,1211189796
92,13,25,Jits_Pract_5,2,1,48,34,1211191284
92,13,25,Jits_Pract_5,3,5,80,127,1211199988
92,13,25,Jits_Pract_5,4,5,63,98,1211220224
92,13,25,Jits_Pract_5,0,5,63,98,1211640168
92,13,25,Jits_Pract_5,1,5,80,127,1211669996
92,13,25,Jits_Pract_5,2,5,56,103,1211680192
92,13,25,Jits_Pract_5,3,1,48,40,1211684356
92,13,25,Jits_Pract_5,0,1,48,46,1212176376
92,13,25,Jits_Pract_5,1,5,80,127,1212200164
92,13,25,Jits_Pract_5,2,5,56,103,1212209464
92,13,25,Jits_Pract_5,3,5,63,98,1212240184
92,13,25,Jits_Pract_5,0,1,48,46,1212685068
92,13,25,Jits_Pract_5,1,5,63,98,1212690044
92,13,25,Jits_Pract_5,2,5,56,103,1212719424
92,13,25,Jits_Pract_5,3,5,80,127,1212729916
92,13,25,Jits_Pract_5,0,5,56,103,1213140296
92,13,25,Jits_Pract_5,1,5,63,98,1213189600
92,13,25,Jits_Pract_5,2,5,80,127,1213209912
92,13,25,Jits_Pract_5,3,1,48,38,1213240224
92,13,25,Jits_Pract_5,0,5,80,127,1213640080
92,13,25,Jits_Pract_5,1,1,48,43,1213683428
92,13,25,Jits_Pract_5,2,5,63,98,1213690124
92,13,25,Jits_Pract_5,3,5,56,103,1213730064
92,13,25,Jits_Pract_5,0,5,56,103,1214139936
92,13,25,Jits_Pract_5,1,5,63,98,1214169388
92,13,25,Jits_Pract_5,2,1,48,47,1214201056
92,13,25,Jits_Pract_5,3,5,80,127,1214240108
92,13,25,Jits_Pract_5,0,5,56,103,1214639420
92,13,25,Jits_Pract_5,1,1,48,42,1214655120
92,13,25,Jits_Pract_5,2,5,80,127,1214699880
92,13,25,Jits_Pract_5,3,5,63,98,1214729776
92,13,25,Jits_Pract_5,0,5,56,103,1215149836
92,13,25,Jits_Pract_5,1,5,63,98,1215159812
92,13,25,Jits_Pract_5,2,1,48,43,1215175960
92,13,25,Jits_Pract_5,3,5,80,127,1215199964
92,13,25,Jits_Pract_5,0,5,63,98,1215640028
92,13,25,Jits_Pract_5,1,1,48,43,1215669224
92,13,25,Jits_Pract_5,2,5,80,127,1215719820
92,13,25,Jits_Pract_5,3,5,56,103,1215729940
92,13,25,Jits_Pract_5,0,1,48,45,1216165084
92,13,25,Jits_Pract_5,1,5,63,98,1216189764
92,13,25,Jits_Pract_5,2,5,56,103,1216229924
92,13,25,Jits_Pract_5,3,5,80,127,1216232992
92,13,25,Jits_Pract_5,0,5,56,103,1216649872
92,13,25,Jits_Pract_5,1,5,63,98,1216659796
92,13,25,Jits_Pract_5,2,1,48,50,1216680076
92,13,25,Jits_Pract_5,3,5,80,127,1216699876
92,13,25,Jits_Pract_5,0,1,48,48,1217130136
92,13,25,Jits_Pract_5,1,5,56,103,1217140124
92,13,25,Jits_Pract_5,2,5,63,98,1217143116
92,13,25,Jits_Pract_5,3,5,80,127,1217159460
92,13,25,Jits_Pract_5,0,9999,9999,9999,1210437744
92,13,25,Jits_Pract_5,1,9999,9999,9999,1210937440
92,13,25,Jits_Pract_5,2,9999,9999,9999,1211437144
92,13,25,Jits_Pract_5,3,9999,9999,9999,1211937856
92,13,25,Jits_Pract_5,4,9999,9999,9999,1212437628
92,13,25,Jits_Pract_5,5,9999,9999,9999,1212937324
92,13,25,Jits_Pract_5,6,9999,9999,9999,1213438060
92,13,25,Jits_Pract_5,7,9999,9999,9999,1213937768
92,13,25,Jits_Pract_5,8,9999,9999,9999,1214437476
92,13,25,Jits_Pract_5,9,9999,9999,9999,1214937180
92,13,25,Jits_Pract_5,10,9999,9999,9999,1215437936
92,13,25,Jits_Pract_5,11,9999,9999,9999,1215937644
92,13,25,Jits_Pract_5,12,9999,9999,9999,1216437332
92,13,25,Jits_Pract_5,13,9999,9999,9999,1216938068
92,13,25,Jits_Pract_5,14,9999,9999,9999,1217437756
92,14,15,Jits_Phase_8,0,5,56,103,1248371244
92,14,15,Jits_Phase_8,1,5,63,98,1248374496
92,14,15,Jits_Phase_8,2,5,80,127,1248377616
92,14,15,Jits_Phase_8,0,1,48,24,1248889368
92,14,15,Jits_Phase_8,1,5,56,103,1249170816
92,14,15,Jits_Phase_8,2,5,63,98,1249173840
92,14,15,Jits_Phase_8,3,5,80,127,1249177112
92,14,15,Jits_Phase_8,0,5,80,127,1249911156
92,14,15,Jits_Phase_8,1,1,48,39,1249925584
92,14,15,Jits_Phase_8,2,5,63,98,1250001456
92,14,15,Jits_Phase_8,3,5,56,103,1250010604
92,14,15,Jits_Phase_8,0,5,56,103,1250731332
92,14,15,Jits_Phase_8,1,1,48,50,1250737296
92,14,15,Jits_Phase_8,2,5,63,98,1250740548
92,14,15,Jits_Phase_8,3,5,80,127,1250830664
92,14,15,Jits_Phase_8,0,1,48,42,1251499316
92,14,15,Jits_Phase_8,1,5,63,98,1251501356
92,14,15,Jits_Phase_8,2,5,80,127,1251531252
92,14,15,Jits_Phase_8,3,5,56,103,1251560780
92,14,15,Jits_Phase_8,0,1,48,48,1252256716
92,14,15,Jits_Phase_8,1,5,56,103,1252301332
92,14,15,Jits_Phase_8,2,5,80,127,1252400520
92,14,15,Jits_Phase_8,3,5,63,98,1252450644
92,14,15,Jits_Phase_8,0,1,48,47,1253081664
92,14,15,Jits_Phase_8,1,5,56,103,1253101016
92,14,15,Jits_Phase_8,2,5,80,127,1253151220
92,14,15,Jits_Phase_8,3,5,63,98,1253191216
92,14,15,Jits_Phase_8,0,1,48,44,1253888912
92,14,15,Jits_Phase_8,1,5,80,127,1253931340
92,14,15,Jits_Phase_8,2,5,63,98,1253961164
92,14,15,Jits_Phase_8,3,5,56,103,1254030680
92,14,15,Jits_Phase_8,0,1,48,41,1254693756
92,14,15,Jits_Phase_8,1,5,63,98,1254760692
92,14,15,Jits_Phase_8,2,5,56,103,1254790652
92,14,15,Jits_Phase_8,3,5,80,127,1254851068
92,14,15,Jits_Phase_8,0,5,56,103,1255501344
92,14,15,Jits_Phase_8,1,5,80,127,1255504264
92,14,15,Jits_Phase_8,2,1,48,38,1255555184
92,14,15,Jits_Phase_8,3,5,63,98,1255621236
92,14,15,Jits_Phase_8,0,1,48,41,1256333288
92,14,15,Jits_Phase_8,1,5,56,103,1256380696
92,14,15,Jits_Phase_8,2,5,80,127,1256420856
92,14,15,Jits_Phase_8,3,5,63,98,1256432012
92,14,15,Jits_Phase_8,0,1,48,45,1257137196
92,14,15,Jits_Phase_8,1,5,56,103,1257140452
92,14,15,Jits_Phase_8,2,5,80,127,1257161208
92,14,15,Jits_Phase_8,3,5,63,98,1257240912
92,14,15,Jits_Phase_8,0,5,80,127,1257931376
92,14,15,Jits_Phase_8,1,1,48,53,1258016528
92,14,15,Jits_Phase_8,2,5,56,103,1258030348
92,14,15,Jits_Phase_8,3,5,63,98,1258040620
92,14,15,Jits_Phase_8,0,5,63,98,1258701412
92,14,15,Jits_Phase_8,1,5,80,127,1258760532
92,14,15,Jits_Phase_8,2,5,56,103,1258770728
92,14,15,Jits_Phase_8,3,1,48,43,1258812952
92,14,15,Jits_Phase_8,0,1,48,49,1259499124
92,14,15,Jits_Phase_8,1,5,56,103,1259501008
92,14,15,Jits_Phase_8,2,5,63,98,1259570540
92,14,15,Jits_Phase_8,3,5,80,127,1259574128
92,14,15,Jits_Phase_8,0,1,48,53,1260237260
92,14,15,Jits_Phase_8,1,5,63,98,1260331456
92,14,15,Jits_Phase_8,2,5,56,103,1260380460
92,14,15,Jits_Phase_8,3,5,80,127,1260383604
92,14,15,Jits_Phase_8,0,1,48,51,1261034388
92,14,15,Jits_Phase_8,1,5,56,103,1261091284
92,14,15,Jits_Phase_8,2,5,80,127,1261094424
92,14,15,Jits_Phase_8,3,5,63,98,1261181324
92,14,15,Jits_Phase_8,0,1,48,51,1261830764
92,14,15,Jits_Phase_8,1,5,63,98,1261930944
92,14,15,Jits_Phase_8,2,5,56,103,1262021180
92,14,15,Jits_Phase_8,3,5,80,127,1262050780
92,14,15,Jits_Phase_8,0,1,48,51,1262646172
92,14,15,Jits_Phase_8,1,5,56,103,1262721280
92,14,15,Jits_Phase_8,2,5,63,98,1262820640
92,14,15,Jits_Phase_8,3,5,80,127,1262850540
92,14,15,Jits_Phase_8,0,1,48,49,1263479516
92,14,15,Jits_Phase_8,1,5,63,98,1263540552
92,14,15,Jits_Phase_8,2,5,56,103,1263550820
92,14,15,Jits_Phase_8,3,5,80,127,1263641160
92,14,15,Jits_Phase_8,0,1,48,37,1264300428
92,14,15,Jits_Phase_8,1,5,63,98,1264360912
92,14,15,Jits_Phase_8,2,5,56,103,1264440692
92,14,15,Jits_Phase_8,3,5,80,127,1264444056
92,14,15,Jits_Phase_8,0,5,80,127,1265120592
92,14,15,Jits_Phase_8,1,1,48,42,1265138764
92,14,15,Jits_Phase_8,2,5,63,98,1265141196
92,14,15,Jits_Phase_8,3,5,56,103,1265200536
92,14,15,Jits_Phase_8,0,1,48,40,1265917916
92,14,15,Jits_Phase_8,1,5,56,103,1265961260
92,14,15,Jits_Phase_8,2,5,63,98,1265980896
92,14,15,Jits_Phase_8,3,5,80,127,1265984112
92,14,15,Jits_Phase_8,0,5,63,98,1266700632
92,14,15,Jits_Phase_8,1,1,48,46,1266756192
92,14,15,Jits_Phase_8,2,5,80,127,1266780500
92,14,15,Jits_Phase_8,3,5,56,103,1266790916
92,14,15,Jits_Phase_8,0,5,63,98,1267521068
92,14,15,Jits_Phase_8,1,5,56,103,1267541380
92,14,15,Jits_Phase_8,2,1,48,44,1267573868
92,14,15,Jits_Phase_8,3,5,80,127,1267590376
92,14,15,Jits_Phase_8,0,1,48,39,1268265268
92,14,15,Jits_Phase_8,1,5,80,127,1268320592
92,14,15,Jits_Phase_8,2,5,63,98,1268360592
92,14,15,Jits_Phase_8,3,5,56,103,1268380924
92,14,15,Jits_Phase_8,0,1,48,39,1269054084
92,14,15,Jits_Phase_8,1,5,56,103,1269161188
92,14,15,Jits_Phase_8,2,5,63,98,1269170488
92,14,15,Jits_Phase_8,3,5,80,127,1269191096
92,14,15,Jits_Phase_8,0,5,56,103,1269890516
92,14,15,Jits_Phase_8,1,1,48,38,1269893636
92,14,15,Jits_Phase_8,2,5,63,98,1269980672
92,14,15,Jits_Phase_8,3,5,80,127,1270041120
92,14,15,Jits_Phase_8,0,5,80,127,1270721108
92,14,15,Jits_Phase_8,1,5,56,103,1270731080
92,14,15,Jits_Phase_8,2,1,48,41,1270752708
92,14,15,Jits_Phase_8,3,5,63,98,1270800828
92,14,15,Jits_Phase_8,0,5,63,98,1271551300
92,14,15,Jits_Phase_8,1,1,48,34,1271555984
92,14,15,Jits_Phase_8,2,5,80,127,1271640380
92,14,15,Jits_Phase_8,3,5,56,103,1271650648
92,14,15,Jits_Phase_8,0,5,63,98,1272280340
92,14,15,Jits_Phase_8,1,5,80,127,1272330544
92,14,15,Jits_Phase_8,2,1,48,46,1272369180
92,14,15,Jits_Phase_8,3,5,56,103,1272391148
92,14,15,Jits_Phase_8,0,5,56,103,1273100924
92,14,15,Jits_Phase_8,1,1,48,48,1273148384
92,14,15,Jits_Phase_8,2,5,80,127,1273151044
92,14,15,Jits_Phase_8,3,5,63,98,1273171280
92,14,15,Jits_Phase_8,0,5,56,103,1273870800
92,14,15,Jits_Phase_8,1,5,80,127,1273931044
92,14,15,Jits_Phase_8,2,1,48,45,1273940536
92,14,15,Jits_Phase_8,3,5,63,98,1274000892
92,14,15,Jits_Phase_8,0,5,56,103,1274670572
92,14,15,Jits_Phase_8,1,5,80,127,1274701292
92,14,15,Jits_Phase_8,2,5,63,98,1274730968
92,14,15,Jits_Phase_8,3,1,48,40,1274734012
92,14,15,Jits_Phase_8,0,1,48,36,1275477784
92,14,15,Jits_Phase_8,1,5,56,103,1275511012
92,14,15,Jits_Phase_8,2,5,80,127,1275530872
92,14,15,Jits_Phase_8,3,5,63,98,1275591120
92,14,15,Jits_Phase_8,0,1,48,35,1276310848
92,14,15,Jits_Phase_8,1,5,80,127,1276390888
92,14,15,Jits_Phase_8,2,5,56,103,1276401160
92,14,15,Jits_Phase_8,3,5,63,98,1276411116
92,14,15,Jits_Phase_8,0,1,48,38,1277104396
92,14,15,Jits_Phase_8,1,5,56,103,1277150576
92,14,15,Jits_Phase_8,2,5,80,127,1277190364
92,14,15,Jits_Phase_8,3,5,63,98,1277221220
92,14,15,Jits_Phase_8,0,5,56,103,1277921048
92,14,15,Jits_Phase_8,1,1,48,49,1277951176
92,14,15,Jits_Phase_8,2,5,63,98,1277952740
92,14,15,Jits_Phase_8,3,5,80,127,1277991404
92,14,15,Jits_Phase_8,0,5,80,127,1278671148
92,14,15,Jits_Phase_8,1,5,63,98,1278721428
92,14,15,Jits_Phase_8,2,1,48,46,1278733984
92,14,15,Jits_Phase_8,3,5,56,103,1278740832
92,14,15,Jits_Phase_8,0,1,48,47,1279498468
92,14,15,Jits_Phase_8,1,5,56,103,1279500732
92,14,15,Jits_Phase_8,2,5,80,127,1279571236
92,14,15,Jits_Phase_8,3,5,63,98,1279630784
92,14,15,Jits_Phase_8,0,5,80,127,1280301296
92,14,15,Jits_Phase_8,1,1,48,48,1280362704
92,14,15,Jits_Phase_8,2,5,63,98,1280390452
92,14,15,Jits_Phase_8,3,5,56,103,1280410932
92,14,15,Jits_Phase_8,0,5,63,98,1281120776
92,14,15,Jits_Phase_8,1,5,56,103,1281141012
92,14,15,Jits_Phase_8,2,5,80,127,1281181048
92,14,15,Jits_Phase_8,3,1,48,27,1281197644
92,14,15,Jits_Phase_8,0,5,80,127,1281880376
92,14,15,Jits_Phase_8,1,5,63,98,1281900908
92,14,15,Jits_Phase_8,2,1,48,29,1281967872
92,14,15,Jits_Phase_8,3,5,56,103,1281980944
92,14,15,Jits_Phase_8,0,5,63,98,1282670924
92,14,15,Jits_Phase_8,1,1,48,40,1282769076
92,14,15,Jits_Phase_8,2,5,56,103,1282780628
92,14,15,Jits_Phase_8,3,5,80,127,1282783620
92,14,15,Jits_Phase_8,0,5,63,98,1283491076
92,14,15,Jits_Phase_8,1,5,56,103,1283501416
92,14,15,Jits_Phase_8,2,5,80,127,1283504708
92,14,15,Jits_Phase_8,3,1,48,51,1283533380
92,14,15,Jits_Phase_8,0,1,48,51,1284247696
92,14,15,Jits_Phase_8,1,5,56,103,1284270504
92,14,15,Jits_Phase_8,2,5,80,127,1284391264
92,14,15,Jits_Phase_8,3,5,63,98,1284431276
92,14,15,Jits_Phase_8,0,1,48,37,1285078928
92,14,15,Jits_Phase_8,1,5,56,103,1285090788
92,14,15,Jits_Phase_8,2,5,80,127,1285170808
92,14,15,Jits_Phase_8,3,5,63,98,1285190952
92,14,15,Jits_Phase_8,0,5,56,103,1285890404
92,14,15,Jits_Phase_8,1,1,48,46,1285936444
92,14,15,Jits_Phase_8,2,5,63,98,1286000900
92,14,15,Jits_Phase_8,3,5,80,127,1286004348
92,14,15,Jits_Phase_8,0,5,56,103,1286731072
92,14,15,Jits_Phase_8,1,1,48,33,1286755468
92,14,15,Jits_Phase_8,2,5,80,127,1286760816
92,14,15,Jits_Phase_8,3,5,63,98,1286781348
92,14,15,Jits_Phase_8,0,5,63,98,1287520732
92,14,15,Jits_Phase_8,1,5,56,103,1287531000
92,14,15,Jits_Phase_8,2,5,80,127,1287541048
92,14,15,Jits_Phase_8,3,1,48,56,1287555772
92,14,15,Jits_Phase_8,0,5,80,127,1288311340
92,14,15,Jits_Phase_8,1,1,48,50,1288359220
92,14,15,Jits_Phase_8,2,5,56,103,1288361260
92,14,15,Jits_Phase_8,3,5,63,98,1288401124
92,14,15,Jits_Phase_8,0,5,80,127,1289131440
92,14,15,Jits_Phase_8,1,5,63,98,1289150928
92,14,15,Jits_Phase_8,2,1,48,59,1289159752
92,14,15,Jits_Phase_8,3,5,56,103,1289201044
92,14,15,Jits_Phase_8,0,5,80,127,1289941324
92,14,15,Jits_Phase_8,1,5,56,103,1289971148
92,14,15,Jits_Phase_8,2,1,48,56,1289997716
92,14,15,Jits_Phase_8,3,5,63,98,1290040600
92,14,15,Jits_Phase_8,0,1,48,45,1290764964
92,14,15,Jits_Phase_8,1,5,56,103,1290791216
92,14,15,Jits_Phase_8,2,5,80,127,1290800440
92,14,15,Jits_Phase_8,3,5,63,98,1290840304
92,14,15,Jits_Phase_8,0,5,56,103,1291500856
92,14,15,Jits_Phase_8,1,5,63,98,1291521464
92,14,15,Jits_Phase_8,2,1,48,59,1291591068
92,14,15,Jits_Phase_8,3,5,80,127,1291592556
92,14,15,Jits_Phase_8,0,1,48,53,1292316768
92,14,15,Jits_Phase_8,1,5,63,98,1292320996
92,14,15,Jits_Phase_8,2,5,80,127,1292380860
92,14,15,Jits_Phase_8,3,5,56,103,1292400872
92,14,15,Jits_Phase_8,0,5,80,127,1293110796
92,14,15,Jits_Phase_8,1,1,48,54,1293121860
92,14,15,Jits_Phase_8,2,5,56,103,1293141436
92,14,15,Jits_Phase_8,3,5,63,98,1293170964
92,14,15,Jits_Phase_8,0,1,48,48,1293872916
92,14,15,Jits_Phase_8,1,5,56,103,1293911304
92,14,15,Jits_Phase_8,2,5,63,98,1293970660
92,14,15,Jits_Phase_8,3,5,80,127,1294031272
92,14,15,Jits_Phase_8,0,1,48,51,1294695148
92,14,15,Jits_Phase_8,1,5,80,127,1294730692
92,14,15,Jits_Phase_8,2,5,56,103,1294750956
92,14,15,Jits_Phase_8,3,5,63,98,1294820840
92,14,15,Jits_Phase_8,0,1,48,52,1295502508
92,14,15,Jits_Phase_8,1,5,80,127,1295531596
92,14,15,Jits_Phase_8,2,5,63,98,1295550788
92,14,15,Jits_Phase_8,3,5,56,103,1295580612
92,14,15,Jits_Phase_8,0,5,80,127,1296320872
92,14,15,Jits_Phase_8,1,1,48,54,1296336348
92,14,15,Jits_Phase_8,2,5,63,98,1296341324
92,14,15,Jits_Phase_8,3,5,56,103,1296400740
92,14,15,Jits_Phase_8,0,1,48,54,1297119512
92,14,15,Jits_Phase_8,1,5,80,127,1297121080
92,14,15,Jits_Phase_8,2,5,56,103,1297220944
92,14,15,Jits_Phase_8,3,5,63,98,1297250840
92,14,15,Jits_Phase_8,4,1,48,24,1297259736
92,14,15,Jits_Phase_8,0,5,63,98,1297911144
92,14,15,Jits_Phase_8,1,1,48,45,1297922212
92,14,15,Jits_Phase_8,2,5,80,127,1297961564
92,14,15,Jits_Phase_8,3,5,56,103,1297980756
92,14,15,Jits_Phase_8,0,1,48,57,1298695508
92,14,15,Jits_Phase_8,1,5,80,127,1298750904
92,14,15,Jits_Phase_8,2,5,56,103,1298780656
92,14,15,Jits_Phase_8,3,5,63,98,1298783572
92,14,15,Jits_Phase_8,0,1,48,58,1299519320
92,14,15,Jits_Phase_8,1,5,63,98,1299600732
92,14,15,Jits_Phase_8,2,5,56,103,1299640804
92,14,15,Jits_Phase_8,3,5,80,127,1299661040
92,14,15,Jits_Phase_8,0,1,48,57,1300348288
92,14,15,Jits_Phase_8,1,5,80,127,1300360536
92,14,15,Jits_Phase_8,2,5,63,98,1300440656
92,14,15,Jits_Phase_8,3,5,56,103,1300481776
92,14,15,Jits_Phase_8,0,5,63,98,1301180856
92,14,15,Jits_Phase_8,1,1,48,54,1301184052
92,14,15,Jits_Phase_8,2,5,80,127,1301260648
92,14,15,Jits_Phase_8,3,5,56,103,1301281316
92,14,15,Jits_Phase_8,0,5,56,103,1302020704
92,14,15,Jits_Phase_8,1,1,48,52,1302031124
92,14,15,Jits_Phase_8,2,5,63,98,1302032468
92,14,15,Jits_Phase_8,3,5,80,127,1302070684
92,14,15,Jits_Phase_8,0,5,56,103,1302741504
92,14,15,Jits_Phase_8,1,5,80,127,1302744644
92,14,15,Jits_Phase_8,2,1,48,58,1302845756
92,14,15,Jits_Phase_8,3,5,63,98,1302880696
92,14,15,Jits_Phase_8,0,5,56,103,1303530928
92,14,15,Jits_Phase_8,1,5,63,98,1303621064
92,14,15,Jits_Phase_8,2,1,48,46,1303632128
92,14,15,Jits_Phase_8,3,5,80,127,1303690660
92,14,15,Jits_Phase_8,0,5,63,98,1304410568
92,14,15,Jits_Phase_8,1,1,48,54,1304412148
92,14,15,Jits_Phase_8,2,5,80,127,1304414824
92,14,15,Jits_Phase_8,3,5,56,103,1304470752
92,14,15,Jits_Phase_8,0,1,48,48,1305225868
92,14,15,Jits_Phase_8,1,5,80,127,1305251396
92,14,15,Jits_Phase_8,2,5,56,103,1305270584
92,14,15,Jits_Phase_8,3,5,63,98,1305280928
92,14,15,Jits_Phase_8,0,5,56,103,1305960864
92,14,15,Jits_Phase_8,1,5,63,98,1305971208
92,14,15,Jits_Phase_8,2,1,48,56,1306000056
92,14,15,Jits_Phase_8,3,5,80,127,1306040836
92,14,15,Jits_Phase_8,0,5,80,127,1306760636
92,14,15,Jits_Phase_8,1,1,48,52,1306786700
92,14,15,Jits_Phase_8,2,5,56,103,1306810636
92,14,15,Jits_Phase_8,3,5,63,98,1306860908
92,14,15,Jits_Phase_8,0,1,48,52,1307598304
92,14,15,Jits_Phase_8,1,5,56,103,1307641344
92,14,15,Jits_Phase_8,2,5,63,98,1307650568
92,14,15,Jits_Phase_8,3,5,80,127,1307691552
92,14,15,Jits_Phase_8,0,5,56,103,1308380436
92,14,15,Jits_Phase_8,1,5,63,98,1308420524
92,14,15,Jits_Phase_8,2,1,48,48,1308443872
92,14,15,Jits_Phase_8,3,5,80,127,1308470568
92,14,15,Jits_Phase_8,0,5,80,127,1309141540
92,14,15,Jits_Phase_8,1,1,48,61,1309169540
92,14,15,Jits_Phase_8,2,5,56,103,1309190468
92,14,15,Jits_Phase_8,3,5,63,98,1309211000
92,14,15,Jits_Phase_8,0,5,80,127,1309951424
92,14,15,Jits_Phase_8,1,1,48,54,1309966152
92,14,15,Jits_Phase_8,2,5,63,98,1310010764
92,14,15,Jits_Phase_8,3,5,56,103,1310090544
92,14,15,Jits_Phase_8,0,5,80,127,1310730604
92,14,15,Jits_Phase_8,1,5,56,103,1310770540
92,14,15,Jits_Phase_8,2,1,48,54,1310780180
92,14,15,Jits_Phase_8,3,5,63,98,1310791364
92,14,15,Jits_Phase_8,0,1,48,50,1311548152
92,14,15,Jits_Phase_8,1,5,56,103,1311580556
92,14,15,Jits_Phase_8,2,5,80,127,1311590900
92,14,15,Jits_Phase_8,3,5,63,98,1311630712
92,14,15,Jits_Phase_8,0,1,48,50,1312299060
92,14,15,Jits_Phase_8,1,5,56,103,1312450820
92,14,15,Jits_Phase_8,2,5,63,98,1312490908
92,14,15,Jits_Phase_8,3,5,80,127,1312494496
92,14,15,Jits_Phase_8,0,5,63,98,1313120588
92,14,15,Jits_Phase_8,1,1,48,56,1313141092
92,14,15,Jits_Phase_8,2,5,80,127,1313160520
92,14,15,Jits_Phase_8,3,5,56,103,1313231492
92,14,15,Jits_Phase_8,0,5,63,98,1313890600
92,14,15,Jits_Phase_8,1,1,48,52,1313928788
92,14,15,Jits_Phase_8,2,5,56,103,1313970488
92,14,15,Jits_Phase_8,3,5,80,127,1314030864
92,14,15,Jits_Phase_8,0,5,80,127,1314700620
92,14,15,Jits_Phase_8,1,1,48,61,1314713928
92,14,15,Jits_Phase_8,2,5,63,98,1314750740
92,14,15,Jits_Phase_8,3,5,56,103,1314780564
92,14,15,Jits_Phase_8,0,5,56,103,1315491468
92,14,15,Jits_Phase_8,1,1,48,68,1315503656
92,14,15,Jits_Phase_8,2,5,63,98,1315541516
92,14,15,Jits_Phase_8,3,5,80,127,1315550444
92,14,15,Jits_Phase_8,0,1,48,46,1316250900
92,14,15,Jits_Phase_8,1,5,56,103,1316301416
92,14,15,Jits_Phase_8,2,5,63,98,1316410868
92,14,15,Jits_Phase_8,3,5,80,127,1316431476
92,14,15,Jits_Phase_8,0,1,48,59,1317060624
92,14,15,Jits_Phase_8,1,5,63,98,1317100952
92,14,15,Jits_Phase_8,2,5,80,127,1317151228
92,14,15,Jits_Phase_8,3,5,56,103,1317241420
92,14,15,Jits_Phase_8,0,1,48,60,1317884348
92,14,15,Jits_Phase_8,1,5,63,98,1317890372
92,14,15,Jits_Phase_8,2,5,80,127,1317921244
92,14,15,Jits_Phase_8,3,5,56,103,1318011360
92,14,15,Jits_Phase_8,0,5,63,98,1318691480
92,14,15,Jits_Phase_8,1,5,56,103,1318701452
92,14,15,Jits_Phase_8,2,1,48,59,1318752068
92,14,15,Jits_Phase_8,3,5,80,127,1318800816
92,14,15,Jits_Phase_8,0,1,48,49,1319574236
92,14,15,Jits_Phase_8,1,5,63,98,1319591348
92,14,15,Jits_Phase_8,2,5,80,127,1319621024
92,14,15,Jits_Phase_8,3,5,56,103,1319650772
92,14,15,Jits_Phase_8,0,1,48,38,1320381580
92,14,15,Jits_Phase_8,1,5,80,127,1320410448
92,14,15,Jits_Phase_8,2,5,63,98,1320420644
92,14,15,Jits_Phase_8,3,5,56,103,1320450392
92,14,15,Jits_Phase_8,0,5,80,127,1321110876
92,14,15,Jits_Phase_8,1,5,63,98,1321131560
92,14,15,Jits_Phase_8,2,5,56,103,1321180564
92,14,15,Jits_Phase_8,3,1,48,48,1321198580
92,14,15,Jits_Phase_8,0,5,63,98,1321941584
92,14,15,Jits_Phase_8,1,1,48,60,1321964564
92,14,15,Jits_Phase_8,2,5,80,127,1322000628
92,14,15,Jits_Phase_8,3,5,56,103,1322021308
92,14,15,Jits_Phase_8,0,5,63,98,1322701488
92,14,15,Jits_Phase_8,1,5,56,103,1322751468
92,14,15,Jits_Phase_8,2,5,80,127,1322760544
92,14,15,Jits_Phase_8,3,1,48,51,1322762104
92,14,15,Jits_Phase_8,0,5,56,103,1323530540
92,14,15,Jits_Phase_8,1,1,48,51,1323531504
92,14,15,Jits_Phase_8,2,5,80,127,1323540804
92,14,15,Jits_Phase_8,3,5,63,98,1323641404
92,14,15,Jits_Phase_8,0,5,80,127,1324290376
92,14,15,Jits_Phase_8,1,5,63,98,1324300644
92,14,15,Jits_Phase_8,2,1,48,51,1324348576
92,14,15,Jits_Phase_8,3,5,56,103,1324451604
92,14,15,Jits_Phase_8,0,5,63,98,1325101380
92,14,15,Jits_Phase_8,1,1,48,53,1325127720
92,14,15,Jits_Phase_8,2,5,80,127,1325141384
92,14,15,Jits_Phase_8,3,5,56,103,1325221276
92,14,15,Jits_Phase_8,0,5,56,103,1325851084
92,14,15,Jits_Phase_8,1,1,48,57,1325915036
92,14,15,Jits_Phase_8,2,5,80,127,1325951328
92,14,15,Jits_Phase_8,3,5,63,98,1325970836
92,14,15,Jits_Phase_8,0,5,80,127,1326671392
92,14,15,Jits_Phase_8,1,5,56,103,1326680392
92,14,15,Jits_Phase_8,2,1,48,62,1326712728
92,14,15,Jits_Phase_8,3,5,63,98,1326770688
92,14,15,Jits_Phase_8,0,5,56,103,1327471092
92,14,15,Jits_Phase_8,1,5,63,98,1327490432
92,14,15,Jits_Phase_8,2,1,48,57,1327554708
92,14,15,Jits_Phase_8,3,5,80,127,1327571440
92,14,15,Jits_Phase_8,0,5,63,98,1328220600
92,14,15,Jits_Phase_8,1,5,56,103,1328310680
92,14,15,Jits_Phase_8,2,5,80,127,1328313748
92,14,15,Jits_Phase_8,3,1,48,58,1328338736
92,14,15,Jits_Phase_8,0,5,56,103,1329051160
92,14,15,Jits_Phase_8,1,1,48,70,1329086940
92,14,15,Jits_Phase_8,2,5,80,127,1329111400
92,14,15,Jits_Phase_8,3,5,63,98,1329120696
92,14,15,Jits_Phase_8,0,1,48,51,1329815088
92,14,15,Jits_Phase_8,1,5,80,127,1329901204
92,14,15,Jits_Phase_8,2,5,56,103,1329911172
92,14,15,Jits_Phase_8,3,5,63,98,1329915272
92,14,15,Jits_Phase_8,0,1,48,56,1330646232
92,14,15,Jits_Phase_8,1,5,56,103,1330660576
92,14,15,Jits_Phase_8,2,5,80,127,1330671144
92,14,15,Jits_Phase_8,3,5,63,98,1330690408
92,14,15,Jits_Phase_8,0,5,63,98,1331430740
92,14,15,Jits_Phase_8,1,1,48,56,1331446364
92,14,15,Jits_Phase_8,2,5,80,127,1331491052
92,14,15,Jits_Phase_8,3,5,56,103,1331541312
92,14,15,Jits_Phase_8,0,1,48,61,1332277580
92,14,15,Jits_Phase_8,1,5,63,98,1332311404
92,14,15,Jits_Phase_8,2,5,56,103,1332320628
92,14,15,Jits_Phase_8,3,5,80,127,1332370764
92,14,15,Jits_Phase_8,0,5,63,98,1333010856
92,14,15,Jits_Phase_8,1,5,80,127,1333031388
92,14,15,Jits_Phase_8,2,5,56,103,1333040540
92,14,15,Jits_Phase_8,3,1,48,55,1333081268
92,14,15,Jits_Phase_8,0,5,63,98,1333810600
92,14,15,Jits_Phase_8,1,5,80,127,1333813964
92,14,15,Jits_Phase_8,2,5,56,103,1333850388
92,14,15,Jits_Phase_8,3,1,48,62,1333864436
92,14,15,Jits_Phase_8,0,1,48,57,1334646112
92,14,15,Jits_Phase_8,1,5,63,98,1334681080
92,14,15,Jits_Phase_8,2,5,80,127,1334710536
92,14,15,Jits_Phase_8,3,5,56,103,1334720804
92,14,15,Jits_Phase_8,0,1,48,60,1335367200
92,14,15,Jits_Phase_8,1,5,56,103,1335430544
92,14,15,Jits_Phase_8,2,5,80,127,1335461364
92,14,15,Jits_Phase_8,3,5,63,98,1335491028
92,14,15,Jits_Phase_8,0,1,48,62,1336158260
92,14,15,Jits_Phase_8,1,5,63,98,1336330628
92,14,15,Jits_Phase_8,2,5,56,103,1336370564
92,14,15,Jits_Phase_8,3,5,80,127,1336373628
92,14,15,Jits_Phase_8,0,1,48,52,1336963044
92,14,15,Jits_Phase_8,1,5,80,127,1337031276
92,14,15,Jits_Phase_8,2,5,56,103,1337111056
92,14,15,Jits_Phase_8,3,5,63,98,1337161256
92,14,15,Jits_Phase_8,0,5,80,127,1337811260
92,14,15,Jits_Phase_8,1,5,56,103,1337830672
92,14,15,Jits_Phase_8,2,1,48,57,1337878132
92,14,15,Jits_Phase_8,3,5,63,98,1337921020
92,14,15,Jits_Phase_8,0,5,80,127,1338651184
92,14,15,Jits_Phase_8,1,5,63,98,1338691048
92,14,15,Jits_Phase_8,2,5,56,103,1338730984
92,14,15,Jits_Phase_8,3,1,48,64,1338751932
92,14,15,Jits_Phase_8,0,5,63,98,1339461144
92,14,15,Jits_Phase_8,1,5,80,127,1339521464
92,14,15,Jits_Phase_8,2,5,56,103,1339551088
92,14,15,Jits_Phase_8,3,1,48,55,1339574284
92,14,15,Jits_Phase_8,0,5,56,103,1340300632
92,14,15,Jits_Phase_8,1,5,80,127,1340331356
92,14,15,Jits_Phase_8,2,1,48,58,1340366532
92,14,15,Jits_Phase_8,3,5,63,98,1340420432
92,14,15,Jits_Phase_8,0,5,56,103,1341110592
92,14,15,Jits_Phase_8,1,1,48,61,1341149456
92,14,15,Jits_Phase_8,2,5,80,127,1341221248
92,14,15,Jits_Phase_8,3,5,63,98,1341251056
92,14,15,Jits_Phase_8,0,1,48,54,1341957976
92,14,15,Jits_Phase_8,1,5,56,103,1341960636
92,14,15,Jits_Phase_8,2,5,63,98,1342021100
92,14,15,Jits_Phase_8,3,5,80,127,1342051436
92,14,15,Jits_Phase_8,0,5,56,103,1342730512
92,14,15,Jits_Phase_8,1,5,63,98,1342801316
92,14,15,Jits_Phase_8,2,1,48,58,1342811336
92,14,15,Jits_Phase_8,3,5,80,127,1342820796
92,14,15,Jits_Phase_8,0,5,80,127,1343500692
92,14,15,Jits_Phase_8,1,5,63,98,1343521004
92,14,15,Jits_Phase_8,2,5,56,103,1343571204
92,14,15,Jits_Phase_8,3,1,48,56,1343587580
92,14,15,Jits_Phase_8,0,5,63,98,1344320912
92,14,15,Jits_Phase_8,1,1,48,54,1344331404
92,14,15,Jits_Phase_8,2,5,80,127,1344332592
92,14,15,Jits_Phase_8,3,5,56,103,1344381228
92,14,15,Jits_Phase_8,0,5,63,98,1345120740
92,14,15,Jits_Phase_8,1,1,48,61,1345150164
92,14,15,Jits_Phase_8,2,5,80,127,1345191260
92,14,15,Jits_Phase_8,3,5,56,103,1345210600
92,14,15,Jits_Phase_8,0,1,48,66,1345948952
92,14,15,Jits_Phase_8,1,5,63,98,1345950996
92,14,15,Jits_Phase_8,2,5,80,127,1345954296
92,14,15,Jits_Phase_8,3,5,56,103,1346020684
92,14,15,Jits_Phase_8,0,5,80,127,1346700860
92,14,15,Jits_Phase_8,1,5,56,103,1346721024
92,14,15,Jits_Phase_8,2,5,63,98,1346731516
92,14,15,Jits_Phase_8,3,1,48,57,1346752168
92,14,15,Jits_Phase_8,0,5,56,103,1347521000
92,14,15,Jits_Phase_8,1,1,48,63,1347533116
92,14,15,Jits_Phase_8,2,5,63,98,1347611128
92,14,15,Jits_Phase_8,3,5,80,127,1347614420
92,14,15,Jits_Phase_8,0,5,80,127,1348291168
92,14,15,Jits_Phase_8,1,5,56,103,1348301144
92,14,15,Jits_Phase_8,2,1,48,50,1348309140
92,14,15,Jits_Phase_8,3,5,63,98,1348320548
92,14,15,Jits_Phase_8,0,1,48,62,1349040856
92,14,15,Jits_Phase_8,1,5,63,98,1349090556
92,14,15,Jits_Phase_8,2,5,80,127,1349151156
92,14,15,Jits_Phase_8,3,5,56,103,1349161276
92,14,15,Jits_Phase_8,0,1,48,60,1349848092
92,14,15,Jits_Phase_8,1,5,63,98,1349961016
92,14,15,Jits_Phase_8,2,5,80,127,1349990992
92,14,15,Jits_Phase_8,3,5,56,103,1350030728
92,14,15,Jits_Phase_8,0,1,48,55,1350687932
92,14,15,Jits_Phase_8,1,5,56,103,1350750452
92,14,15,Jits_Phase_8,2,5,80,127,1350760948
92,14,15,Jits_Phase_8,3,5,63,98,1350801044
92,14,15,Jits_Phase_8,0,1,48,50,1351496908
92,14,15,Jits_Phase_8,1,5,80,127,1351511328
92,14,15,Jits_Phase_8,2,5,56,103,1351591296
92,14,15,Jits_Phase_8,3,5,63,98,1351600432
92,14,15,Jits_Phase_8,0,1,48,56,1352328968
92,14,15,Jits_Phase_8,1,5,80,127,1352361380
92,14,15,Jits_Phase_8,2,5,56,103,1352441160
92,14,15,Jits_Phase_8,3,5,63,98,1352450460
92,14,15,Jits_Phase_8,0,5,80,127,1353201084
92,14,15,Jits_Phase_8,1,1,48,56,1353211700
92,14,15,Jits_Phase_8,2,5,56,103,1353251132
92,14,15,Jits_Phase_8,3,5,63,98,1353301332
92,14,15,Jits_Phase_8,0,1,48,55,1354031980
92,14,15,Jits_Phase_8,1,5,56,103,1354141100
92,14,15,Jits_Phase_8,2,5,63,98,1354144244
92,14,15,Jits_Phase_8,3,5,80,127,1354191156
92,14,15,Jits_Phase_8,0,1,48,48,1354891920
92,14,15,Jits_Phase_8,1,5,56,103,1354961252
92,14,15,Jits_Phase_8,2,5,63,98,1354991060
92,14,15,Jits_Phase_8,3,5,80,127,1355001256
92,14,15,Jits_Phase_8,0,5,63,98,1355671040
92,14,15,Jits_Phase_8,1,1,48,45,1355716932
92,14,15,Jits_Phase_8,2,5,56,103,1355740864
92,14,15,Jits_Phase_8,3,5,80,127,1355790992
92,14,15,Jits_Phase_8,0,5,63,98,1356501220
92,14,15,Jits_Phase_8,1,1,48,57,1356508456
92,14,15,Jits_Phase_8,2,5,56,103,1356510504
92,14,15,Jits_Phase_8,3,5,80,127,1356513800
92,14,15,Jits_Phase_8,0,5,80,127,1357251064
92,14,15,Jits_Phase_8,1,5,56,103,1357311232
92,14,15,Jits_Phase_8,2,1,48,49,1357341776
92,14,15,Jits_Phase_8,3,5,63,98,1357400532
92,14,15,Jits_Phase_8,0,5,80,127,1358050908
92,14,15,Jits_Phase_8,1,1,48,55,1358099664
92,14,15,Jits_Phase_8,2,5,56,103,1358151152
92,14,15,Jits_Phase_8,3,5,63,98,1358190940
92,14,15,Jits_Phase_8,0,5,56,103,1358900728
92,14,15,Jits_Phase_8,1,5,63,98,1358921040
92,14,15,Jits_Phase_8,2,1,48,54,1358954272
92,14,15,Jits_Phase_8,3,5,80,127,1358960896
92,14,15,Jits_Phase_8,0,5,63,98,1359670828
92,14,15,Jits_Phase_8,1,5,56,103,1359691064
92,14,15,Jits_Phase_8,2,1,48,58,1359730076
92,14,15,Jits_Phase_8,3,5,80,127,1359790428
92,14,15,Jits_Phase_8,0,5,63,98,1360461144
92,14,15,Jits_Phase_8,1,1,48,50,1360529324
92,14,15,Jits_Phase_8,2,5,80,127,1360571076
92,14,15,Jits_Phase_8,3,5,56,103,1360600380
92,14,15,Jits_Phase_8,0,5,56,103,1361281360
92,14,15,Jits_Phase_8,1,5,63,98,1361311060
92,14,15,Jits_Phase_8,2,1,48,37,1361360884
92,14,15,Jits_Phase_8,3,5,80,127,1361362304
92,14,15,Jits_Phase_8,0,5,63,98,1362050564
92,14,15,Jits_Phase_8,1,5,56,103,1362081164
92,14,15,Jits_Phase_8,2,1,48,48,1362122944
92,14,15,Jits_Phase_8,3,5,80,127,1362131208
92,14,15,Jits_Phase_8,0,5,56,103,1362880908
92,14,15,Jits_Phase_8,1,1,48,49,1362890696
92,14,15,Jits_Phase_8,2,5,63,98,1362901284
92,14,15,Jits_Phase_8,3,5,80,127,1362981152
92,14,15,Jits_Phase_8,0,1,48,49,1363631644
92,14,15,Jits_Phase_8,1,5,63,98,1363650924
92,14,15,Jits_Phase_8,2,5,56,103,1363711464
92,14,15,Jits_Phase_8,3,5,80,127,1363740976
92,14,15,Jits_Phase_8,0,1,48,45,1364460920
92,14,15,Jits_Phase_8,1,5,56,103,1364490612
92,14,15,Jits_Phase_8,2,5,80,127,1364551004
92,14,15,Jits_Phase_8,3,5,63,98,1364591000
92,14,15,Jits_Phase_8,0,5,63,98,1365270820
92,14,15,Jits_Phase_8,1,1,48,39,1365296784
92,14,15,Jits_Phase_8,2,5,56,103,1365331280
92,14,15,Jits_Phase_8,3,5,80,127,1365400968
92,14,15,Jits_Phase_8,0,1,48,37,1366113404
92,14,15,Jits_Phase_8,1,5,56,103,1366150440
92,14,15,Jits_Phase_8,2,5,63,98,1366160808
92,14,15,Jits_Phase_8,3,5,80,127,1366164172
92,14,15,Jits_Phase_8,0,5,63,98,1366890856
92,14,15,Jits_Phase_8,1,1,48,38,1366904240
92,14,15,Jits_Phase_8,2,5,56,103,1366951416
92,14,15,Jits_Phase_8,3,5,80,127,1366954332
92,14,15,Jits_Phase_8,0,5,63,98,1367671124
92,14,15,Jits_Phase_8,1,1,48,49,1367695768
92,14,15,Jits_Phase_8,2,5,80,127,1367700968
92,14,15,Jits_Phase_8,3,5,56,103,1367721428
92,14,15,Jits_Phase_8,0,5,56,103,1368401200
92,14,15,Jits_Phase_8,1,1,48,51,1368431672
92,14,15,Jits_Phase_8,2,5,63,98,1368450648
92,14,15,Jits_Phase_8,3,5,80,127,1368531200
92,14,15,Jits_Phase_8,0,5,80,127,1369100740
92,14,15,Jits_Phase_8,1,5,63,98,1369140752
92,14,15,Jits_Phase_8,2,5,56,103,1369161064
92,14,15,Jits_Phase_8,3,1,48,51,1369234996
92,14,15,Jits_Phase_8,0,1,48,59,1369938300
92,14,15,Jits_Phase_8,1,5,56,103,1369971076
92,14,15,Jits_Phase_8,2,5,80,127,1369981420
92,14,15,Jits_Phase_8,3,5,63,98,1370000712
92,14,15,Jits_Phase_8,0,1,48,60,1370703600
92,14,15,Jits_Phase_8,1,5,56,103,1370751356
92,14,15,Jits_Phase_8,2,5,63,98,1370800596
92,14,15,Jits_Phase_8,3,5,80,127,1370831092
92,14,15,Jits_Phase_8,0,5,56,103,1371500852
92,14,15,Jits_Phase_8,1,5,63,98,1371511120
92,14,15,Jits_Phase_8,2,1,48,49,1371539072
92,14,15,Jits_Phase_8,3,5,80,127,1371561488
92,14,15,Jits_Phase_8,0,1,48,53,1372280208
92,14,15,Jits_Phase_8,1,5,56,103,1372290568
92,14,15,Jits_Phase_8,2,5,80,127,1372293560
92,14,15,Jits_Phase_8,3,5,63,98,1372451052
92,14,15,Jits_Phase_8,0,1,48,51,1373110648
92,14,15,Jits_Phase_8,1,5,63,98,1373111984
92,14,15,Jits_Phase_8,2,5,56,103,1373181220
92,14,15,Jits_Phase_8,3,5,80,127,1373221368
92,14,15,Jits_Phase_8,0,1,48,62,1373907952
92,14,15,Jits_Phase_8,1,5,63,98,1373951296
92,14,15,Jits_Phase_8,2,5,56,103,1374040592
92,14,15,Jits_Phase_8,3,5,80,127,1374043732
92,14,15,Jits_Phase_8,0,1,48,56,1374693112
92,14,15,Jits_Phase_8,1,5,56,103,1374730676
92,14,15,Jits_Phase_8,2,5,63,98,1374820720
92,14,15,Jits_Phase_8,3,5,80,127,1374830988
92,14,15,Jits_Phase_8,0,5,56,103,1375500552
92,14,15,Jits_Phase_8,1,1,48,58,1375526812
92,14,15,Jits_Phase_8,2,5,63,98,1375550824
92,14,15,Jits_Phase_8,3,5,80,127,1375580720
92,14,15,Jits_Phase_8,0,1,48,63,1376298996
92,14,15,Jits_Phase_8,1,5,63,98,1376381376
92,14,15,Jits_Phase_8,2,5,80,127,1376390676
92,14,15,Jits_Phase_8,3,5,56,103,1376450852
92,14,15,Jits_Phase_8,0,1,48,67,1377086556
92,14,15,Jits_Phase_8,1,5,63,98,1377101124
92,14,15,Jits_Phase_8,2,5,80,127,1377160764
92,14,15,Jits_Phase_8,3,5,56,103,1377200784
92,14,15,Jits_Phase_8,0,1,48,48,1377915752
92,14,15,Jits_Phase_8,1,5,56,103,1378001372
92,14,15,Jits_Phase_8,2,5,80,127,1378020696
92,14,15,Jits_Phase_8,3,5,63,98,1378041152
92,14,15,Jits_Phase_8,0,5,63,98,1378721052
92,14,15,Jits_Phase_8,1,1,48,63,1378726860
92,14,15,Jits_Phase_8,2,5,56,103,1378740608
92,14,15,Jits_Phase_8,3,5,80,127,1378780692
92,14,15,Jits_Phase_8,0,5,63,98,1379530996
92,14,15,Jits_Phase_8,1,1,48,64,1379540040
92,14,15,Jits_Phase_8,2,5,80,127,1379560812
92,14,15,Jits_Phase_8,3,5,56,103,1379581420
92,14,15,Jits_Phase_8,0,1,48,54,1380293100
92,14,15,Jits_Phase_8,1,5,80,127,1380301216
92,14,15,Jits_Phase_8,2,5,56,103,1380351272
92,14,15,Jits_Phase_8,3,5,63,98,1380410672
92,14,15,Jits_Phase_8,0,5,63,98,1381090792
92,14,15,Jits_Phase_8,1,1,48,51,1381099688
92,14,15,Jits_Phase_8,2,5,56,103,1381210720
92,14,15,Jits_Phase_8,3,5,80,127,1381241144
92,14,15,Jits_Phase_8,0,1,48,64,1381866088
92,14,15,Jits_Phase_8,1,5,80,127,1381931600
92,14,15,Jits_Phase_8,2,5,63,98,1381950716
92,14,15,Jits_Phase_8,3,5,56,103,1382020676
92,14,15,Jits_Phase_8,0,5,63,98,1382750624
92,14,15,Jits_Phase_8,1,1,48,61,1382754640
92,14,15,Jits_Phase_8,2,5,56,103,1382760740
92,14,15,Jits_Phase_8,3,5,80,127,1382840628
92,14,15,Jits_Phase_8,0,1,48,49,1383569188
92,14,15,Jits_Phase_8,1,5,56,103,1383610716
92,14,15,Jits_Phase_8,2,5,80,127,1383640540
92,14,15,Jits_Phase_8,3,5,63,98,1383650736
92,14,15,Jits_Phase_8,0,9999,9999,9999,1248768088
92,14,15,Jits_Phase_8,1,9999,9999,9999,1249568828
92,14,15,Jits_Phase_8,2,9999,9999,9999,1250368584
92,14,15,Jits_Phase_8,3,9999,9999,9999,1251168360
92,14,15,Jits_Phase_8,4,9999,9999,9999,1251968124
92,14,15,Jits_Phase_8,5,9999,9999,9999,1252768888
92,14,15,Jits_Phase_8,6,9999,9999,9999,1253568568
92,14,15,Jits_Phase_8,7,9999,9999,9999,1254368324
92,14,15,Jits_Phase_8,8,9999,9999,9999,1255168088
92,14,15,Jits_Phase_8,9,9999,9999,9999,1255968876
92,14,15,Jits_Phase_8,10,9999,9999,9999,1256768584
92,14,15,Jits_Phase_8,11,9999,9999,9999,1257568348
92,14,15,Jits_Phase_8,12,9999,9999,9999,1258368108
92,14,15,Jits_Phase_8,13,9999,9999,9999,1259168876
92,14,15,Jits_Phase_8,14,9999,9999,9999,1259968624
92,14,15,Jits_Phase_8,15,9999,9999,9999,1260768372
92,14,15,Jits_Phase_8,16,9999,9999,9999,1261568112
92,14,15,Jits_Phase_8,17,9999,9999,9999,1262368844
92,14,15,Jits_Phase_8,18,9999,9999,9999,1263168608
92,14,15,Jits_Phase_8,19,9999,9999,9999,1263968368
92,14,15,Jits_Phase_8,20,9999,9999,9999,1264768124
92,14,15,Jits_Phase_8,21,9999,9999,9999,1265568880
92,14,15,Jits_Phase_8,22,9999,9999,9999,1266368568
92,14,15,Jits_Phase_8,23,9999,9999,9999,1267168328
92,14,15,Jits_Phase_8,24,9999,9999,9999,1267968084
92,14,15,Jits_Phase_8,25,9999,9999,9999,1268768884
92,14,15,Jits_Phase_8,26,9999,9999,9999,1269568568
92,14,15,Jits_Phase_8,27,9999,9999,9999,1270368328
92,14,15,Jits_Phase_8,28,9999,9999,9999,1271168100
92,14,15,Jits_Phase_8,29,9999,9999,9999,1271968876
92,14,15,Jits_Phase_8,30,9999,9999,9999,1272748108
92,14,15,Jits_Phase_8,31,9999,9999,9999,1273548912
92,14,15,Jits_Phase_8,32,9999,9999,9999,1274348608
92,14,15,Jits_Phase_8,33,9999,9999,9999,1275148372
92,14,15,Jits_Phase_8,34,9999,9999,9999,1275948144
92,14,15,Jits_Phase_8,35,9999,9999,9999,1276748888
92,14,15,Jits_Phase_8,36,9999,9999,9999,1277548652
92,14,15,Jits_Phase_8,37,9999,9999,9999,1278348412
92,14,15,Jits_Phase_8,38,9999,9999,9999,1279148128
92,14,15,Jits_Phase_8,39,9999,9999,9999,1279948928
92,14,15,Jits_Phase_8,40,9999,9999,9999,1280748616
92,14,15,Jits_Phase_8,41,9999,9999,9999,1281548388
92,14,15,Jits_Phase_8,42,9999,9999,9999,1282348136
92,14,15,Jits_Phase_8,43,9999,9999,9999,1283148872
92,14,15,Jits_Phase_8,44,9999,9999,9999,1283948612
92,14,15,Jits_Phase_8,45,9999,9999,9999,1284748372
92,14,15,Jits_Phase_8,46,9999,9999,9999,1285548152
92,14,15,Jits_Phase_8,47,9999,9999,9999,1286348872
92,14,15,Jits_Phase_8,48,9999,9999,9999,1287168124
92,14,15,Jits_Phase_8,49,9999,9999,9999,1287968864
92,14,15,Jits_Phase_8,50,9999,9999,9999,1288768620
92,14,15,Jits_Phase_8,51,9999,9999,9999,1289568316
92,14,15,Jits_Phase_8,52,9999,9999,9999,1290368092
92,14,15,Jits_Phase_8,53,9999,9999,9999,1291168868
92,14,15,Jits_Phase_8,54,9999,9999,9999,1291968620
92,14,15,Jits_Phase_8,55,9999,9999,9999,1292768316
92,14,15,Jits_Phase_8,56,9999,9999,9999,1293568072
92,14,15,Jits_Phase_8,57,9999,9999,9999,1294368888
92,14,15,Jits_Phase_8,58,9999,9999,9999,1295168576
92,14,15,Jits_Phase_8,59,9999,9999,9999,1295968328
92,14,15,Jits_Phase_8,60,9999,9999,9999,1296768088
92,14,15,Jits_Phase_8,61,9999,9999,9999,1297568836
92,14,15,Jits_Phase_8,62,9999,9999,9999,1298368572
92,14,15,Jits_Phase_8,63,9999,9999,9999,1299168328
92,14,15,Jits_Phase_8,64,9999,9999,9999,1300009072
92,14,15,Jits_Phase_8,65,9999,9999,9999,1300808760
92,14,15,Jits_Phase_8,66,9999,9999,9999,1301608524
92,14,15,Jits_Phase_8,67,9999,9999,9999,1302408288
92,14,15,Jits_Phase_8,68,9999,9999,9999,1303209040
92,14,15,Jits_Phase_8,69,9999,9999,9999,1304008812
92,14,15,Jits_Phase_8,70,9999,9999,9999,1304808504
92,14,15,Jits_Phase_8,71,9999,9999,9999,1305608272
92,14,15,Jits_Phase_8,72,9999,9999,9999,1306409076
92,14,15,Jits_Phase_8,73,9999,9999,9999,1307208776
92,14,15,Jits_Phase_8,74,9999,9999,9999,1308008560
92,14,15,Jits_Phase_8,75,9999,9999,9999,1308808248
92,14,15,Jits_Phase_8,76,9999,9999,9999,1309609084
92,14,15,Jits_Phase_8,77,9999,9999,9999,1310408784
92,14,15,Jits_Phase_8,78,9999,9999,9999,1311208556
92,14,15,Jits_Phase_8,79,9999,9999,9999,1312008248
92,14,15,Jits_Phase_8,80,9999,9999,9999,1312809052
92,14,15,Jits_Phase_8,81,9999,9999,9999,1313568876
92,14,15,Jits_Phase_8,82,9999,9999,9999,1314368628
92,14,15,Jits_Phase_8,83,9999,9999,9999,1315168360
92,14,15,Jits_Phase_8,84,9999,9999,9999,1315968128
92,14,15,Jits_Phase_8,85,9999,9999,9999,1316768824
92,14,15,Jits_Phase_8,86,9999,9999,9999,1317568580
92,14,15,Jits_Phase_8,87,9999,9999,9999,1318368332
92,14,15,Jits_Phase_8,88,9999,9999,9999,1319168088
92,14,15,Jits_Phase_8,89,9999,9999,9999,1319968828
92,14,15,Jits_Phase_8,90,9999,9999,9999,1320768596
92,14,15,Jits_Phase_8,91,9999,9999,9999,1321568352
92,14,15,Jits_Phase_8,92,9999,9999,9999,1322368128
92,14,15,Jits_Phase_8,93,9999,9999,9999,1323168880
92,14,15,Jits_Phase_8,94,9999,9999,9999,1323968636
92,14,15,Jits_Phase_8,95,9999,9999,9999,1324768328
92,14,15,Jits_Phase_8,96,9999,9999,9999,1325568100
92,14,15,Jits_Phase_8,97,9999,9999,9999,1326288968
92,14,15,Jits_Phase_8,98,9999,9999,9999,1327088744
92,14,15,Jits_Phase_8,99,9999,9999,9999,1327888444
92,14,15,Jits_Phase_8,100,9999,9999,9999,1328688208
92,14,15,Jits_Phase_8,101,9999,9999,9999,1329489016
92,14,15,Jits_Phase_8,102,9999,9999,9999,1330288708
92,14,15,Jits_Phase_8,103,9999,9999,9999,1331088488
92,14,15,Jits_Phase_8,104,9999,9999,9999,1331888244
92,14,15,Jits_Phase_8,105,9999,9999,9999,1332688980
92,14,15,Jits_Phase_8,106,9999,9999,9999,1333488728
92,14,15,Jits_Phase_8,107,9999,9999,9999,1334288464
92,14,15,Jits_Phase_8,108,9999,9999,9999,1335088224
92,14,15,Jits_Phase_8,109,9999,9999,9999,1335889024
92,14,15,Jits_Phase_8,110,9999,9999,9999,1336688704
92,14,15,Jits_Phase_8,111,9999,9999,9999,1337488492
92,14,15,Jits_Phase_8,112,9999,9999,9999,1338288240
92,14,15,Jits_Phase_8,113,9999,9999,9999,1339088984
92,14,15,Jits_Phase_8,114,9999,9999,9999,1339968616
92,14,15,Jits_Phase_8,115,9999,9999,9999,1340768372
92,14,15,Jits_Phase_8,116,9999,9999,9999,1341568076
92,14,15,Jits_Phase_8,117,9999,9999,9999,1342368852
92,14,15,Jits_Phase_8,118,9999,9999,9999,1343168616
92,14,15,Jits_Phase_8,119,9999,9999,9999,1343968380
92,14,15,Jits_Phase_8,120,9999,9999,9999,1344768076
92,14,15,Jits_Phase_8,121,9999,9999,9999,1345568876
92,14,15,Jits_Phase_8,122,9999,9999,9999,1346368624
92,14,15,Jits_Phase_8,123,9999,9999,9999,1347168372
92,14,15,Jits_Phase_8,124,9999,9999,9999,1347968064
92,14,15,Jits_Phase_8,125,9999,9999,9999,1348768820
92,14,15,Jits_Phase_8,126,9999,9999,9999,1349568588
92,14,15,Jits_Phase_8,127,9999,9999,9999,1350368348
92,14,15,Jits_Phase_8,128,9999,9999,9999,1351168108
92,14,15,Jits_Phase_8,129,9999,9999,9999,1351968836
92,14,15,Jits_Phase_8,130,9999,9999,9999,1352768600
92,14,15,Jits_Phase_8,131,9999,9999,9999,1353728108
92,14,15,Jits_Phase_8,132,9999,9999,9999,1354528848
92,14,15,Jits_Phase_8,133,9999,9999,9999,1355328612
92,14,15,Jits_Phase_8,134,9999,9999,9999,1356128372
92,14,15,Jits_Phase_8,135,9999,9999,9999,1356928116
92,14,15,Jits_Phase_8,136,9999,9999,9999,1357728872
92,14,15,Jits_Phase_8,137,9999,9999,9999,1358528572
92,14,15,Jits_Phase_8,138,9999,9999,9999,1359328340
92,14,15,Jits_Phase_8,139,9999,9999,9999,1360128108
92,14,15,Jits_Phase_8,140,9999,9999,9999,1360928844
92,14,15,Jits_Phase_8,141,9999,9999,9999,1361728600
92,14,15,Jits_Phase_8,142,9999,9999,9999,1362528368
92,14,15,Jits_Phase_8,143,9999,9999,9999,1363328120
92,14,15,Jits_Phase_8,144,9999,9999,9999,1364128884
92,14,15,Jits_Phase_8,145,9999,9999,9999,1364928568
92,14,15,Jits_Phase_8,146,9999,9999,9999,1365728328
92,14,15,Jits_Phase_8,147,9999,9999,9999,1366528080
92,14,15,Jits_Phase_8,148,9999,9999,9999,1367328872
92,14,15,Jits_Phase_8,149,9999,9999,9999,1368128624
92,14,15,Jits_Phase_8,150,9999,9999,9999,1368768588
92,14,15,Jits_Phase_8,151,9999,9999,9999,1369568356
92,14,15,Jits_Phase_8,152,9999,9999,9999,1370368128
92,14,15,Jits_Phase_8,153,9999,9999,9999,1371168860
92,14,15,Jits_Phase_8,154,9999,9999,9999,1371968612
92,14,15,Jits_Phase_8,155,9999,9999,9999,1372768372
92,14,15,Jits_Phase_8,156,9999,9999,9999,1373568128
92,14,15,Jits_Phase_8,157,9999,9999,9999,1374368872
92,14,15,Jits_Phase_8,158,9999,9999,9999,1375168636
92,14,15,Jits_Phase_8,159,9999,9999,9999,1375968316
92,14,15,Jits_Phase_8,160,9999,9999,9999,1376768096
92,14,15,Jits_Phase_8,161,9999,9999,9999,1377568820
92,14,15,Jits_Phase_8,162,9999,9999,9999,1378368584
92,14,15,Jits_Phase_8,163,9999,9999,9999,1379168340
92,14,15,Jits_Phase_8,164,9999,9999,9999,1379968092
92,14,15,Jits_Phase_8,165,9999,9999,9999,1380768840
92,14,15,Jits_Phase_8,166,9999,9999,9999,1381568604
92,14,15,Jits_Phase_8,167,9999,9999,9999,1382368360
92,14,15,Jits_Phase_8,168,9999,9999,9999,1383168124
92,14,15,Jits_Phase_8,169,9999,9999,9999,1383968860
92,15,17,Jits_Phase_5,0,5,56,103,1392527716
92,15,17,Jits_Phase_5,1,5,63,98,1392530808
92,15,17,Jits_Phase_5,2,5,80,127,1392534232
92,15,17,Jits_Phase_5,0,5,56,103,1393027540
92,15,17,Jits_Phase_5,1,5,63,98,1393030716
92,15,17,Jits_Phase_5,2,5,80,127,1393034008
92,15,17,Jits_Phase_5,0,1,48,25,1393480328
92,15,17,Jits_Phase_5,1,5,56,103,1393528304
92,15,17,Jits_Phase_5,2,5,80,127,1393538280
92,15,17,Jits_Phase_5,3,5,63,98,1393557864
92,15,17,Jits_Phase_5,0,5,63,98,1393977716
92,15,17,Jits_Phase_5,1,5,80,127,1394008512
92,15,17,Jits_Phase_5,2,5,56,103,1394017584
92,15,17,Jits_Phase_5,3,1,48,46,1394045044
92,15,17,Jits_Phase_5,0,1,48,57,1394525060
92,15,17,Jits_Phase_5,1,5,80,127,1394537764
92,15,17,Jits_Phase_5,2,5,56,103,1394548032
92,15,17,Jits_Phase_5,3,5,63,98,1394577732
92,15,17,Jits_Phase_5,0,1,48,54,1395023252
92,15,17,Jits_Phase_5,1,5,63,98,1395028376
92,15,17,Jits_Phase_5,2,5,56,103,1395057976
92,15,17,Jits_Phase_5,3,5,80,127,1395068544
92,15,17,Jits_Phase_5,0,5,56,103,1395477788
92,15,17,Jits_Phase_5,1,1,48,53,1395527236
92,15,17,Jits_Phase_5,2,5,63,98,1395528652
92,15,17,Jits_Phase_5,3,5,80,127,1395547468
92,15,17,Jits_Phase_5,0,5,80,127,1395977552
92,15,17,Jits_Phase_5,1,1,48,48,1396010336
92,15,17,Jits_Phase_5,2,5,63,98,1396027748
92,15,17,Jits_Phase_5,3,5,56,103,1396067832
92,15,17,Jits_Phase_5,0,5,56,103,1396478288
92,15,17,Jits_Phase_5,1,5,63,98,1396507964
92,15,17,Jits_Phase_5,2,1,48,57,1396520892
92,15,17,Jits_Phase_5,3,5,80,127,1396577632
92,15,17,Jits_Phase_5,0,5,56,103,1396978128
92,15,17,Jits_Phase_5,1,1,48,49,1397012708
92,15,17,Jits_Phase_5,2,5,80,127,1397037388
92,15,17,Jits_Phase_5,3,5,63,98,1397068332
92,15,17,Jits_Phase_5,0,5,56,103,1397487928
92,15,17,Jits_Phase_5,1,5,63,98,1397498496
92,15,17,Jits_Phase_5,2,1,48,53,1397529788
92,15,17,Jits_Phase_5,3,5,80,127,1397538204
92,15,17,Jits_Phase_5,0,5,63,98,1397977500
92,15,17,Jits_Phase_5,1,1,48,44,1398034928
92,15,17,Jits_Phase_5,2,5,80,127,1398058336
92,15,17,Jits_Phase_5,3,5,56,103,1398067632
92,15,17,Jits_Phase_5,0,5,63,98,1398528348
92,15,17,Jits_Phase_5,1,1,48,50,1398554908
92,15,17,Jits_Phase_5,2,5,56,103,1398568424
92,15,17,Jits_Phase_5,3,5,80,127,1398571340
92,15,17,Jits_Phase_5,0,5,56,103,1398988232
92,15,17,Jits_Phase_5,1,5,63,98,1398998500
92,15,17,Jits_Phase_5,2,1,48,43,1399022368
92,15,17,Jits_Phase_5,3,5,80,127,1399038356
92,15,17,Jits_Phase_5,0,5,56,103,1399477580
92,15,17,Jits_Phase_5,1,5,63,98,1399480644
92,15,17,Jits_Phase_5,2,1,48,53,1399486172
92,15,17,Jits_Phase_5,3,5,80,127,1399498252
92,15,17,Jits_Phase_5,0,1,48,48,1399961480
92,15,17,Jits_Phase_5,1,5,80,127,1399987512
92,15,17,Jits_Phase_5,2,5,56,103,1399997784
92,15,17,Jits_Phase_5,3,5,63,98,1400067444
92,15,17,Jits_Phase_5,0,1,48,48,1400451988
92,15,17,Jits_Phase_5,1,5,63,98,1400478268
92,15,17,Jits_Phase_5,2,5,56,103,1400497384
92,15,17,Jits_Phase_5,3,5,80,127,1400578356
92,15,17,Jits_Phase_5,0,5,56,103,1400988136
92,15,17,Jits_Phase_5,1,1,48,48,1401003316
92,15,17,Jits_Phase_5,2,5,80,127,1401028140
92,15,17,Jits_Phase_5,3,5,63,98,1401038188
92,15,17,Jits_Phase_5,0,5,80,127,1401477464
92,15,17,Jits_Phase_5,1,5,63,98,1401508360
92,15,17,Jits_Phase_5,2,1,48,47,1401526548
92,15,17,Jits_Phase_5,3,5,56,103,1401548288
92,15,17,Jits_Phase_5,0,5,56,103,1401997704
92,15,17,Jits_Phase_5,1,1,48,50,1402024268
92,15,17,Jits_Phase_5,2,5,63,98,1402028496
92,15,17,Jits_Phase_5,3,5,80,127,1402077572
92,15,17,Jits_Phase_5,0,5,80,127,1402498344
92,15,17,Jits_Phase_5,1,1,48,50,1402507036
92,15,17,Jits_Phase_5,2,5,56,103,1402538228
92,15,17,Jits_Phase_5,3,5,63,98,1402547452
92,15,17,Jits_Phase_5,0,5,80,127,1402977660
92,15,17,Jits_Phase_5,1,1,48,48,1402987224
92,15,17,Jits_Phase_5,2,5,63,98,1403017540
92,15,17,Jits_Phase_5,3,5,56,103,1403077924
92,15,17,Jits_Phase_5,0,5,56,103,1403478392
92,15,17,Jits_Phase_5,1,5,80,127,1403487616
92,15,17,Jits_Phase_5,2,1,48,55,1403562744
92,15,17,Jits_Phase_5,3,5,63,98,1403567496
92,15,17,Jits_Phase_5,0,5,80,127,1403988488
92,15,17,Jits_Phase_5,1,1,48,47,1404006296
92,15,17,Jits_Phase_5,2,5,63,98,1404047628
92,15,17,Jits_Phase_5,3,5,56,103,1404077372
92,15,17,Jits_Phase_5,0,5,56,103,1404488176
92,15,17,Jits_Phase_5,1,1,48,54,1404492488
92,15,17,Jits_Phase_5,2,5,80,127,1404547440
92,15,17,Jits_Phase_5,3,5,63,98,1404588596
92,15,17,Jits_Phase_5,0,1,48,46,1405014272
92,15,17,Jits_Phase_5,1,5,56,103,1405037904
92,15,17,Jits_Phase_5,2,5,63,98,1405048092
92,15,17,Jits_Phase_5,3,5,80,127,1405051760
92,15,17,Jits_Phase_5,0,5,80,127,1405487536
92,15,17,Jits_Phase_5,1,1,48,45,1405525108
92,15,17,Jits_Phase_5,2,5,63,98,1405577460
92,15,17,Jits_Phase_5,3,5,56,103,1405587804
92,15,17,Jits_Phase_5,0,5,56,103,1405988100
92,15,17,Jits_Phase_5,1,5,63,98,1405991276
92,15,17,Jits_Phase_5,2,5,80,127,1405994476
92,15,17,Jits_Phase_5,3,1,48,47,1406054680
92,15,17,Jits_Phase_5,0,1,48,42,1406504300
92,15,17,Jits_Phase_5,1,5,80,127,1406508604
92,15,17,Jits_Phase_5,2,5,63,98,1406557536
92,15,17,Jits_Phase_5,3,5,56,103,1406588332
92,15,17,Jits_Phase_5,0,5,56,103,1406987688
92,15,17,Jits_Phase_5,1,5,80,127,1406997884
92,15,17,Jits_Phase_5,2,1,48,45,1407025432
92,15,17,Jits_Phase_5,3,5,63,98,1407067404
92,15,17,Jits_Phase_5,0,5,56,103,1407497492
92,15,17,Jits_Phase_5,1,1,48,40,1407499428
92,15,17,Jits_Phase_5,2,5,63,98,1407518312
92,15,17,Jits_Phase_5,3,5,80,127,1407577356
92,15,17,Jits_Phase_5,0,5,80,127,1407977776
92,15,17,Jits_Phase_5,1,1,48,42,1408006072
92,15,17,Jits_Phase_5,2,5,63,98,1408047452
92,15,17,Jits_Phase_5,3,5,56,103,1408068056
92,15,17,Jits_Phase_5,0,5,80,127,1408498144
92,15,17,Jits_Phase_5,1,5,56,103,1408508264
92,15,17,Jits_Phase_5,2,1,48,45,1408514452
92,15,17,Jits_Phase_5,3,5,63,98,1408517704
92,15,17,Jits_Phase_5,0,5,80,127,1408987492
92,15,17,Jits_Phase_5,1,1,48,44,1408989580
92,15,17,Jits_Phase_5,2,5,56,103,1409008168
92,15,17,Jits_Phase_5,3,5,63,98,1409077696
92,15,17,Jits_Phase_5,0,1,48,44,1409477560
92,15,17,Jits_Phase_5,1,5,56,103,1409497440
92,15,17,Jits_Phase_5,2,5,80,127,1409528312
92,15,17,Jits_Phase_5,3,5,63,98,1409547648
92,15,17,Jits_Phase_5,0,5,63,98,1409988052
92,15,17,Jits_Phase_5,1,1,48,39,1410022564
92,15,17,Jits_Phase_5,2,5,56,103,1410048360
92,15,17,Jits_Phase_5,3,5,80,127,1410078332
92,15,17,Jits_Phase_5,0,5,63,98,1410477388
92,15,17,Jits_Phase_5,1,5,80,127,1410480680
92,15,17,Jits_Phase_5,2,1,48,43,1410499460
92,15,17,Jits_Phase_5,3,5,56,103,1410567512
92,15,17,Jits_Phase_5,0,5,56,103,1410997732
92,15,17,Jits_Phase_5,1,1,48,42,1411025940
92,15,17,Jits_Phase_5,2,5,63,98,1411028296
92,15,17,Jits_Phase_5,3,5,80,127,1411068308
92,15,17,Jits_Phase_5,0,5,63,98,1411498396
92,15,17,Jits_Phase_5,1,1,48,40,1411524732
92,15,17,Jits_Phase_5,2,5,56,103,1411538252
92,15,17,Jits_Phase_5,3,5,80,127,1411557960
92,15,17,Jits_Phase_5,0,1,48,43,1411999460
92,15,17,Jits_Phase_5,1,5,63,98,1412008404
92,15,17,Jits_Phase_5,2,5,56,103,1412048192
92,15,17,Jits_Phase_5,3,5,80,127,1412057488
92,15,17,Jits_Phase_5,0,1,48,41,1412479036
92,15,17,Jits_Phase_5,1,5,80,127,1412487528
92,15,17,Jits_Phase_5,2,5,63,98,1412558204
92,15,17,Jits_Phase_5,3,5,56,103,1412577528
92,15,17,Jits_Phase_5,0,5,56,103,1412978220
92,15,17,Jits_Phase_5,1,5,80,127,1412997408
92,15,17,Jits_Phase_5,2,1,48,43,1413021520
92,15,17,Jits_Phase_5,3,5,63,98,1413037584
92,15,17,Jits_Phase_5,0,5,63,98,1413488092
92,15,17,Jits_Phase_5,1,1,48,43,1413501328
92,15,17,Jits_Phase_5,2,5,80,127,1413507500
92,15,17,Jits_Phase_5,3,5,56,103,1413548284
92,15,17,Jits_Phase_5,4,1,48,18,1413589072
92,15,17,Jits_Phase_5,0,5,63,98,1413987796
92,15,17,Jits_Phase_5,1,1,48,42,1413989136
92,15,17,Jits_Phase_5,2,5,56,103,1414008176
92,15,17,Jits_Phase_5,3,5,80,127,1414018372
92,15,17,Jits_Phase_5,0,1,48,50,1414460004
92,15,17,Jits_Phase_5,1,5,80,127,1414488428
92,15,17,Jits_Phase_5,2,5,56,103,1414507988
92,15,17,Jits_Phase_5,3,1,48,28,1414528332
92,15,17,Jits_Phase_5,4,5,63,98,1414537520
92,15,17,Jits_Phase_5,0,1,48,40,1415011248
92,15,17,Jits_Phase_5,1,5,56,103,1415057756
92,15,17,Jits_Phase_5,2,5,80,127,1415060896
92,15,17,Jits_Phase_5,3,5,63,98,1415078212
92,15,17,Jits_Phase_5,0,5,63,98,1415477548
92,15,17,Jits_Phase_5,1,5,56,103,1415508268
92,15,17,Jits_Phase_5,2,1,48,33,1415516192
92,15,17,Jits_Phase_5,3,5,80,127,1415567624
92,15,17,Jits_Phase_5,0,1,48,41,1415994332
92,15,17,Jits_Phase_5,1,5,63,98,1416058200
92,15,17,Jits_Phase_5,2,5,56,103,1416067424
92,15,17,Jits_Phase_5,3,5,80,127,1416077716
92,15,17,Jits_Phase_5,0,5,56,103,1416518104
92,15,17,Jits_Phase_5,1,1,48,38,1416528492
92,15,17,Jits_Phase_5,2,5,80,127,1416547548
92,15,17,Jits_Phase_5,3,5,63,98,1416558116
92,15,17,Jits_Phase_5,0,1,48,40,1417022172
92,15,17,Jits_Phase_5,1,5,63,98,1417057720
92,15,17,Jits_Phase_5,2,5,56,103,1417067988
92,15,17,Jits_Phase_5,3,5,80,127,1417088296
92,15,17,Jits_Phase_5,0,5,56,103,1417487804
92,15,17,Jits_Phase_5,1,1,48,38,1417528464
92,15,17,Jits_Phase_5,2,5,63,98,1417548260
92,15,17,Jits_Phase_5,3,5,80,127,1417551472
92,15,17,Jits_Phase_5,0,5,80,127,1418008084
92,15,17,Jits_Phase_5,1,5,56,103,1418018132
92,15,17,Jits_Phase_5,2,1,48,38,1418034504
92,15,17,Jits_Phase_5,3,5,63,98,1418088024
92,15,17,Jits_Phase_5,0,5,80,127,1418498560
92,15,17,Jits_Phase_5,1,1,48,39,1418518092
92,15,17,Jits_Phase_5,2,5,56,103,1418568084
92,15,17,Jits_Phase_5,3,5,63,98,1418578428
92,15,17,Jits_Phase_5,0,5,63,98,1419038108
92,15,17,Jits_Phase_5,1,5,56,103,1419048304
92,15,17,Jits_Phase_5,2,1,48,24,1419064600
92,15,17,Jits_Phase_5,3,5,80,127,1419068080
92,15,17,Jits_Phase_5,0,5,80,127,1419487516
92,15,17,Jits_Phase_5,1,5,63,98,1419548276
92,15,17,Jits_Phase_5,2,1,48,41,1419549768
92,15,17,Jits_Phase_5,3,5,56,103,1419588132
92,15,17,Jits_Phase_5,0,5,56,103,1420028408
92,15,17,Jits_Phase_5,1,5,63,98,1420037484
92,15,17,Jits_Phase_5,2,1,48,19,1420048476
92,15,17,Jits_Phase_5,3,5,80,127,1420077412
92,15,17,Jits_Phase_5,0,5,56,103,1420488092
92,15,17,Jits_Phase_5,1,1,48,35,1420501400
92,15,17,Jits_Phase_5,2,5,80,127,1420517836
92,15,17,Jits_Phase_5,3,5,63,98,1420567888
92,15,17,Jits_Phase_5,0,1,48,38,1421005048
92,15,17,Jits_Phase_5,1,5,56,103,1421027856
92,15,17,Jits_Phase_5,2,5,63,98,1421067792
92,15,17,Jits_Phase_5,3,5,80,127,1421071080
92,15,17,Jits_Phase_5,0,1,48,47,1421515348
92,15,17,Jits_Phase_5,1,5,56,103,1421528348
92,15,17,Jits_Phase_5,2,5,63,98,1421537572
92,15,17,Jits_Phase_5,3,5,80,127,1421558176
92,15,17,Jits_Phase_5,0,5,56,103,1421988088
92,15,17,Jits_Phase_5,1,5,80,127,1421991236
92,15,17,Jits_Phase_5,2,1,48,47,1421998560
92,15,17,Jits_Phase_5,3,5,63,98,1422028024
92,15,17,Jits_Phase_5,0,1,48,51,1422526036
92,15,17,Jits_Phase_5,1,5,63,98,1422527848
92,15,17,Jits_Phase_5,2,5,56,103,1422557524
92,15,17,Jits_Phase_5,3,5,80,127,1422577980
92,15,17,Jits_Phase_5,0,1,48,46,1422994372
92,15,17,Jits_Phase_5,1,5,80,127,1422998004
92,15,17,Jits_Phase_5,2,5,56,103,1423007976
92,15,17,Jits_Phase_5,3,5,63,98,1423018472
92,15,17,Jits_Phase_5,0,1,48,39,1423479120
92,15,17,Jits_Phase_5,1,5,56,103,1423497600
92,15,17,Jits_Phase_5,2,5,80,127,1423537464
92,15,17,Jits_Phase_5,3,5,63,98,1423568184
92,15,17,Jits_Phase_5,0,1,48,47,1423993924
92,15,17,Jits_Phase_5,1,5,63,98,1424007664
92,15,17,Jits_Phase_5,2,5,80,127,1424017860
92,15,17,Jits_Phase_5,3,5,56,103,1424027984
92,15,17,Jits_Phase_5,0,5,56,103,1424498028
92,15,17,Jits_Phase_5,1,1,48,46,1424520952
92,15,17,Jits_Phase_5,2,5,63,98,1424567804
92,15,17,Jits_Phase_5,3,5,80,127,1424577924
92,15,17,Jits_Phase_5,0,1,48,36,1424996792
92,15,17,Jits_Phase_5,1,5,80,127,1425008124
92,15,17,Jits_Phase_5,2,5,56,103,1425018320
92,15,17,Jits_Phase_5,3,5,63,98,1425068396
92,15,17,Jits_Phase_5,0,1,48,42,1425479080
92,15,17,Jits_Phase_5,1,5,80,127,1425517988
92,15,17,Jits_Phase_5,2,5,56,103,1425578384
92,15,17,Jits_Phase_5,3,5,63,98,1425607984
92,15,17,Jits_Phase_5,0,5,56,103,1426017740
92,15,17,Jits_Phase_5,1,5,80,127,1426020656
92,15,17,Jits_Phase_5,2,5,63,98,1426057628
92,15,17,Jits_Phase_5,3,1,48,31,1426064712
92,15,17,Jits_Phase_5,0,5,56,103,1426548056
92,15,17,Jits_Phase_5,1,1,48,38,1426576624
92,15,17,Jits_Phase_5,2,5,63,98,1426578268
92,15,17,Jits_Phase_5,3,5,80,127,1426587944
92,15,17,Jits_Phase_5,0,1,48,37,1427052200
92,15,17,Jits_Phase_5,1,5,63,98,1427058076
92,15,17,Jits_Phase_5,2,5,80,127,1427068200
92,15,17,Jits_Phase_5,3,5,56,103,1427077424
92,15,17,Jits_Phase_5,0,5,80,127,1427507540
92,15,17,Jits_Phase_5,1,1,48,32,1427526996
92,15,17,Jits_Phase_5,2,5,56,103,1427557956
92,15,17,Jits_Phase_5,3,5,63,98,1427561096
92,15,17,Jits_Phase_5,0,5,56,103,1428037932
92,15,17,Jits_Phase_5,1,1,48,39,1428049000
92,15,17,Jits_Phase_5,2,5,80,127,1428057564
92,15,17,Jits_Phase_5,3,5,63,98,1428067832
92,15,17,Jits_Phase_5,0,5,63,98,1428518216
92,15,17,Jits_Phase_5,1,1,48,43,1428534960
92,15,17,Jits_Phase_5,2,5,56,103,1428548036
92,15,17,Jits_Phase_5,3,5,80,127,1428568416
92,15,17,Jits_Phase_5,0,1,48,38,1429017036
92,15,17,Jits_Phase_5,1,5,56,103,1429028296
92,15,17,Jits_Phase_5,2,5,80,127,1429037444
92,15,17,Jits_Phase_5,3,5,63,98,1429108168
92,15,17,Jits_Phase_5,0,5,63,98,1429517864
92,15,17,Jits_Phase_5,1,5,80,127,1429557876
92,15,17,Jits_Phase_5,2,1,48,40,1429562496
92,15,17,Jits_Phase_5,3,5,56,103,1429597508
92,15,17,Jits_Phase_5,0,5,56,103,1430027728
92,15,17,Jits_Phase_5,1,5,63,98,1430037848
92,15,17,Jits_Phase_5,2,1,48,44,1430054816
92,15,17,Jits_Phase_5,3,5,80,127,1430058300
92,15,17,Jits_Phase_5,0,1,48,55,1430541236
92,15,17,Jits_Phase_5,1,5,63,98,1430568388
92,15,17,Jits_Phase_5,2,5,80,127,1430587800
92,15,17,Jits_Phase_5,3,5,56,103,1430608332
92,15,17,Jits_Phase_5,0,5,56,103,1431007540
92,15,17,Jits_Phase_5,1,1,48,45,1431051932
92,15,17,Jits_Phase_5,2,5,80,127,1431087400
92,15,17,Jits_Phase_5,3,5,63,98,1431097672
92,15,17,Jits_Phase_5,0,1,48,44,1431546540
92,15,17,Jits_Phase_5,1,5,80,127,1431548132
92,15,17,Jits_Phase_5,2,5,63,98,1431557428
92,15,17,Jits_Phase_5,3,5,56,103,1431588148
92,15,17,Jits_Phase_5,0,5,63,98,1432008108
92,15,17,Jits_Phase_5,1,5,80,127,1432047972
92,15,17,Jits_Phase_5,2,1,48,47,1432083820
92,15,17,Jits_Phase_5,3,5,56,103,1432108348
92,15,17,Jits_Phase_5,0,5,63,98,1432518116
92,15,17,Jits_Phase_5,1,1,48,56,1432555312
92,15,17,Jits_Phase_5,2,5,56,103,1432568088
92,15,17,Jits_Phase_5,3,5,80,127,1432597764
92,15,17,Jits_Phase_5,0,5,80,127,1433017644
92,15,17,Jits_Phase_5,1,5,63,98,1433027840
92,15,17,Jits_Phase_5,2,1,48,47,1433036136
92,15,17,Jits_Phase_5,3,5,56,103,1433097660
92,15,17,Jits_Phase_5,0,1,48,47,1433499472
92,15,17,Jits_Phase_5,1,5,80,127,1433577792
92,15,17,Jits_Phase_5,2,5,56,103,1433588060
92,15,17,Jits_Phase_5,3,5,63,98,1433591200
92,15,17,Jits_Phase_5,0,5,56,103,1434018060
92,15,17,Jits_Phase_5,1,5,80,127,1434037692
92,15,17,Jits_Phase_5,2,5,63,98,1434047816
92,15,17,Jits_Phase_5,3,1,48,51,1434085460
92,15,17,Jits_Phase_5,0,5,63,98,1434528084
92,15,17,Jits_Phase_5,1,5,56,103,1434568020
92,15,17,Jits_Phase_5,2,5,80,127,1434587656
92,15,17,Jits_Phase_5,3,1,48,43,1434592116
92,15,17,Jits_Phase_5,0,5,63,98,1435027836
92,15,17,Jits_Phase_5,1,1,48,43,1435086316
92,15,17,Jits_Phase_5,2,5,56,103,1435088136
92,15,17,Jits_Phase_5,3,5,80,127,1435091136
92,15,17,Jits_Phase_5,0,5,56,103,1435487696
92,15,17,Jits_Phase_5,1,5,80,127,1435508008
92,15,17,Jits_Phase_5,2,5,63,98,1435547968
92,15,17,Jits_Phase_5,3,1,48,45,1435563368
92,15,17,Jits_Phase_5,0,5,56,103,1436018024
92,15,17,Jits_Phase_5,1,1,48,50,1436033800
92,15,17,Jits_Phase_5,2,5,63,98,1436037656
92,15,17,Jits_Phase_5,3,5,80,127,1436047876
92,15,17,Jits_Phase_5,0,1,48,52,1436484176
92,15,17,Jits_Phase_5,1,5,80,127,1436488032
92,15,17,Jits_Phase_5,2,5,56,103,1436517632
92,15,17,Jits_Phase_5,3,5,63,98,1436557892
92,15,17,Jits_Phase_5,0,5,80,127,1436997976
92,15,17,Jits_Phase_5,1,1,48,48,1437004532
92,15,17,Jits_Phase_5,2,5,56,103,1437017604
92,15,17,Jits_Phase_5,3,5,63,98,1437077864
92,15,17,Jits_Phase_5,0,5,56,103,1437508000
92,15,17,Jits_Phase_5,1,1,48,52,1437513816
92,15,17,Jits_Phase_5,2,5,80,127,1437528528
92,15,17,Jits_Phase_5,3,5,63,98,1437587892
92,15,17,Jits_Phase_5,0,5,80,127,1437988136
92,15,17,Jits_Phase_5,1,5,56,103,1437997284
92,15,17,Jits_Phase_5,2,1,48,52,1438033136
92,15,17,Jits_Phase_5,3,5,63,98,1438038484
92,15,17,Jits_Phase_5,0,5,63,98,1438487820
92,15,17,Jits_Phase_5,1,1,48,52,1438514004
92,15,17,Jits_Phase_5,2,5,56,103,1438527896
92,15,17,Jits_Phase_5,3,5,80,127,1438530888
92,15,17,Jits_Phase_5,0,5,63,98,1439008008
92,15,17,Jits_Phase_5,1,5,80,127,1439048020
92,15,17,Jits_Phase_5,2,5,56,103,1439077916
92,15,17,Jits_Phase_5,0,1,48,49,1439470076
92,15,17,Jits_Phase_5,1,5,56,103,1439497824
92,15,17,Jits_Phase_5,2,5,63,98,1439507796
92,15,17,Jits_Phase_5,3,5,80,127,1439537620
92,15,17,Jits_Phase_5,0,5,80,127,1439988064
92,15,17,Jits_Phase_5,1,1,48,49,1440041228
92,15,17,Jits_Phase_5,2,5,63,98,1440057664
92,15,17,Jits_Phase_5,3,5,56,103,1440068008
92,15,17,Jits_Phase_5,0,5,63,98,1440487680
92,15,17,Jits_Phase_5,1,1,48,45,1440538596
92,15,17,Jits_Phase_5,2,5,56,103,1440557504
92,15,17,Jits_Phase_5,3,5,80,127,1440567996
92,15,17,Jits_Phase_5,0,5,63,98,1440968020
92,15,17,Jits_Phase_5,1,5,56,103,1440987584
92,15,17,Jits_Phase_5,2,5,80,127,1441027372
92,15,17,Jits_Phase_5,3,1,48,57,1441050188
92,15,17,Jits_Phase_5,0,5,56,103,1441448440
92,15,17,Jits_Phase_5,1,5,63,98,1441457740
92,15,17,Jits_Phase_5,2,1,48,50,1441507760
92,15,17,Jits_Phase_5,3,5,80,127,1441538272
92,15,17,Jits_Phase_5,0,5,63,98,1441937864
92,15,17,Jits_Phase_5,1,5,56,103,1441967468
92,15,17,Jits_Phase_5,2,1,48,46,1441986248
92,15,17,Jits_Phase_5,3,5,80,127,1442008368
92,15,17,Jits_Phase_5,0,5,56,103,1442437732
92,15,17,Jits_Phase_5,1,1,48,53,1442472264
92,15,17,Jits_Phase_5,2,5,63,98,1442477540
92,15,17,Jits_Phase_5,3,5,80,127,1442518376
92,15,17,Jits_Phase_5,0,5,80,127,1442938092
92,15,17,Jits_Phase_5,1,1,48,45,1442991508
92,15,17,Jits_Phase_5,2,5,56,103,1443018132
92,15,17,Jits_Phase_5,3,5,63,98,1443028772
92,15,17,Jits_Phase_5,0,5,56,103,1443477964
92,15,17,Jits_Phase_5,1,5,63,98,1443480880
92,15,17,Jits_Phase_5,2,5,80,127,1443488236
92,15,17,Jits_Phase_5,3,1,48,48,1443492848
92,15,17,Jits_Phase_5,0,1,48,51,1443963568
92,15,17,Jits_Phase_5,1,5,56,103,1443998016
92,15,17,Jits_Phase_5,2,5,63,98,1444017728
92,15,17,Jits_Phase_5,3,5,80,127,1444027772
92,15,17,Jits_Phase_5,0,5,63,98,1444457816
92,15,17,Jits_Phase_5,1,5,80,127,1444467940
92,15,17,Jits_Phase_5,2,5,56,103,1444487676
92,15,17,Jits_Phase_5,3,1,48,17,1444527432
92,15,17,Jits_Phase_5,4,1,48,27,1444531820
92,15,17,Jits_Phase_5,0,5,63,98,1444967780
92,15,17,Jits_Phase_5,1,1,48,50,1444977344
92,15,17,Jits_Phase_5,2,5,56,103,1445047664
92,15,17,Jits_Phase_5,3,5,80,127,1445050728
92,15,17,Jits_Phase_5,0,1,48,52,1445456768
92,15,17,Jits_Phase_5,1,5,63,98,1445467508
92,15,17,Jits_Phase_5,2,5,56,103,1445488116
92,15,17,Jits_Phase_5,3,5,80,127,1445517892
92,15,17,Jits_Phase_5,0,5,56,103,1445968384
92,15,17,Jits_Phase_5,1,5,63,98,1445987648
92,15,17,Jits_Phase_5,2,5,80,127,1445997844
92,15,17,Jits_Phase_5,3,1,48,52,1446007108
92,15,17,Jits_Phase_5,0,5,56,103,1446497592
92,15,17,Jits_Phase_5,1,1,48,57,1446528084
92,15,17,Jits_Phase_5,2,5,63,98,1446529444
92,15,17,Jits_Phase_5,3,5,80,127,1446532496
92,15,17,Jits_Phase_5,0,5,56,103,1446948200
92,15,17,Jits_Phase_5,1,5,63,98,1446988140
92,15,17,Jits_Phase_5,2,1,48,50,1447017332
92,15,17,Jits_Phase_5,3,5,80,127,1447047648
92,15,17,Jits_Phase_5,0,5,56,103,1447468488
92,15,17,Jits_Phase_5,1,5,63,98,1447477640
92,15,17,Jits_Phase_5,2,1,48,51,1447529604
92,15,17,Jits_Phase_5,3,5,80,127,1447538020
92,15,17,Jits_Phase_5,0,5,56,103,1447968028
92,15,17,Jits_Phase_5,1,5,80,127,1447987664
92,15,17,Jits_Phase_5,2,1,48,46,1448004556
92,15,17,Jits_Phase_5,3,5,63,98,1448018228
92,15,17,Jits_Phase_5,0,5,80,127,1448467788
92,15,17,Jits_Phase_5,1,5,56,103,1448478060
92,15,17,Jits_Phase_5,2,1,48,49,1448487548
92,15,17,Jits_Phase_5,3,5,63,98,1448497464
92,15,17,Jits_Phase_5,0,5,63,98,1448958408
92,15,17,Jits_Phase_5,1,1,48,45,1448994484
92,15,17,Jits_Phase_5,2,5,80,127,1449038120
92,15,17,Jits_Phase_5,3,5,56,103,1449048688
92,15,17,Jits_Phase_5,0,1,48,39,1449456632
92,15,17,Jits_Phase_5,1,5,80,127,1449548060
92,15,17,Jits_Phase_5,2,5,56,103,1449567608
92,15,17,Jits_Phase_5,3,5,63,98,1449570596
92,15,17,Jits_Phase_5,0,5,63,98,1450037544
92,15,17,Jits_Phase_5,1,5,80,127,1450040908
92,15,17,Jits_Phase_5,2,5,56,103,1450097932
92,15,17,Jits_Phase_5,3,1,48,45,1450115440
92,15,17,Jits_Phase_5,0,5,56,103,1450517808
92,15,17,Jits_Phase_5,1,5,80,127,1450528004
92,15,17,Jits_Phase_5,2,5,63,98,1450568012
92,15,17,Jits_Phase_5,3,1,48,44,1450581988
92,15,17,Jits_Phase_5,4,1,48,19,1450664992
92,15,17,Jits_Phase_5,0,5,56,103,1450998268
92,15,17,Jits_Phase_5,1,5,63,98,1451057536
92,15,17,Jits_Phase_5,2,5,80,127,1451067732
92,15,17,Jits_Phase_5,3,1,48,47,1451079692
92,15,17,Jits_Phase_5,0,5,63,98,1451507992
92,15,17,Jits_Phase_5,1,5,80,127,1451548004
92,15,17,Jits_Phase_5,2,1,48,51,1451558172
92,15,17,Jits_Phase_5,3,5,56,103,1451587860
92,15,17,Jits_Phase_5,0,5,56,103,1452007744
92,15,17,Jits_Phase_5,1,1,48,51,1452057536
92,15,17,Jits_Phase_5,2,5,63,98,1452087752
92,15,17,Jits_Phase_5,3,5,80,127,1452090968
92,15,17,Jits_Phase_5,0,1,48,46,1452534428
92,15,17,Jits_Phase_5,1,5,80,127,1452567880
92,15,17,Jits_Phase_5,2,5,56,103,1452597700
92,15,17,Jits_Phase_5,3,5,63,98,1452600768
92,15,17,Jits_Phase_5,0,5,56,103,1453027624
92,15,17,Jits_Phase_5,1,5,80,127,1453048304
92,15,17,Jits_Phase_5,2,1,48,51,1453076528
92,15,17,Jits_Phase_5,3,5,63,98,1453088084
92,15,17,Jits_Phase_5,4,1,48,32,1453139356
92,15,17,Jits_Phase_5,0,5,80,127,1453507936
92,15,17,Jits_Phase_5,1,5,63,98,1453528472
92,15,17,Jits_Phase_5,2,1,48,46,1453554580
92,15,17,Jits_Phase_5,3,5,56,103,1453587728
92,15,17,Jits_Phase_5,0,5,63,98,1454017964
92,15,17,Jits_Phase_5,1,5,56,103,1454028088
92,15,17,Jits_Phase_5,2,1,48,48,1454067392
92,15,17,Jits_Phase_5,3,5,80,127,1454078500
92,15,17,Jits_Phase_5,0,5,56,103,1454508496
92,15,17,Jits_Phase_5,1,5,63,98,1454527836
92,15,17,Jits_Phase_5,2,5,80,127,1454538256
92,15,17,Jits_Phase_5,3,1,48,51,1454559804
92,15,17,Jits_Phase_5,0,5,56,103,1454997920
92,15,17,Jits_Phase_5,1,5,63,98,1455000836
92,15,17,Jits_Phase_5,2,5,80,127,1455018452
92,15,17,Jits_Phase_5,3,1,48,48,1455041124
92,15,17,Jits_Phase_5,0,5,63,98,1455537600
92,15,17,Jits_Phase_5,1,1,48,41,1455565804
92,15,17,Jits_Phase_5,2,5,56,103,1455568240
92,15,17,Jits_Phase_5,3,5,80,127,1455597840
92,15,17,Jits_Phase_5,0,5,80,127,1455998592
92,15,17,Jits_Phase_5,1,1,48,45,1456085932
92,15,17,Jits_Phase_5,2,5,56,103,1456088516
92,15,17,Jits_Phase_5,3,5,63,98,1456091432
92,15,17,Jits_Phase_5,0,5,56,103,1456498124
92,15,17,Jits_Phase_5,1,5,80,127,1456501040
92,15,17,Jits_Phase_5,2,1,48,49,1456543892
92,15,17,Jits_Phase_5,3,5,63,98,1456578008
92,15,17,Jits_Phase_5,0,5,80,127,1456997728
92,15,17,Jits_Phase_5,1,5,63,98,1457058068
92,15,17,Jits_Phase_5,2,1,48,43,1457065300
92,15,17,Jits_Phase_5,3,5,56,103,1457087884
92,15,17,Jits_Phase_5,0,5,63,98,1457497492
92,15,17,Jits_Phase_5,1,5,80,127,1457507616
92,15,17,Jits_Phase_5,2,5,56,103,1457578436
92,15,17,Jits_Phase_5,3,1,48,49,1457600588
92,15,17,Jits_Phase_5,0,5,56,103,1458057572
92,15,17,Jits_Phase_5,1,1,48,41,1458062032
92,15,17,Jits_Phase_5,2,5,80,127,1458088436
92,15,17,Jits_Phase_5,3,5,63,98,1458137436
92,15,17,Jits_Phase_5,0,1,48,30,1458556976
92,15,17,Jits_Phase_5,1,5,63,98,1458649528
92,15,17,Jits_Phase_5,2,5,56,103,1458678080
92,15,17,Jits_Phase_5,3,5,80,127,1458681444
92,15,17,Jits_Phase_5,0,5,63,98,1459148024
92,15,17,Jits_Phase_5,1,5,80,127,1459167584
92,15,17,Jits_Phase_5,2,5,56,103,1459177928
92,15,17,Jits_Phase_5,3,1,48,30,1459227344
92,15,17,Jits_Phase_5,0,5,56,103,1459657960
92,15,17,Jits_Phase_5,1,5,63,98,1459661180
92,15,17,Jits_Phase_5,2,1,48,51,1459676996
92,15,17,Jits_Phase_5,3,5,80,127,1459678640
92,15,17,Jits_Phase_5,0,5,56,103,1460107600
92,15,17,Jits_Phase_5,1,5,63,98,1460117872
92,15,17,Jits_Phase_5,2,5,80,127,1460147692
92,15,17,Jits_Phase_5,3,1,48,54,1460153508
92,15,17,Jits_Phase_5,0,5,63,98,1460627816
92,15,17,Jits_Phase_5,1,5,80,127,1460648496
92,15,17,Jits_Phase_5,2,5,56,103,1460688508
92,15,17,Jits_Phase_5,3,1,48,40,1460725476
92,15,17,Jits_Phase_5,0,5,56,103,1461158280
92,15,17,Jits_Phase_5,1,5,63,98,1461198144
92,15,17,Jits_Phase_5,2,5,80,127,1461201580
92,15,17,Jits_Phase_5,3,1,48,42,1461229880
92,15,17,Jits_Phase_5,0,5,80,127,1461597560
92,15,17,Jits_Phase_5,1,5,56,103,1461637424
92,15,17,Jits_Phase_5,2,5,63,98,1461687548
92,15,17,Jits_Phase_5,3,1,48,34,1461701300
92,15,17,Jits_Phase_5,0,5,56,103,1462157636
92,15,17,Jits_Phase_5,1,5,80,127,1462167904
92,15,17,Jits_Phase_5,2,5,63,98,1462197580
92,15,17,Jits_Phase_5,3,1,48,30,1462223836
92,15,17,Jits_Phase_5,0,5,56,103,1462608372
92,15,17,Jits_Phase_5,1,5,80,127,1462648312
92,15,17,Jits_Phase_5,2,5,63,98,1462698536
92,15,17,Jits_Phase_5,3,1,48,48,1462739560
92,15,17,Jits_Phase_5,0,5,56,103,1463107916
92,15,17,Jits_Phase_5,1,5,80,127,1463147780
92,15,17,Jits_Phase_5,2,5,63,98,1463197928
92,15,17,Jits_Phase_5,3,1,48,48,1463222164
92,15,17,Jits_Phase_5,0,5,80,127,1463597564
92,15,17,Jits_Phase_5,1,5,63,98,1463678404
92,15,17,Jits_Phase_5,2,5,56,103,1463687504
92,15,17,Jits_Phase_5,3,1,48,48,1463717740
92,15,17,Jits_Phase_5,0,5,80,127,1464148424
92,15,17,Jits_Phase_5,1,5,56,103,1464157500
92,15,17,Jits_Phase_5,2,5,63,98,1464178032
92,15,17,Jits_Phase_5,3,1,48,47,1464191336
92,15,17,Jits_Phase_5,0,5,63,98,1464618296
92,15,17,Jits_Phase_5,1,5,56,103,1464687896
92,15,17,Jits_Phase_5,2,5,80,127,1464691192
92,15,17,Jits_Phase_5,3,1,48,46,1464700088
92,15,17,Jits_Phase_5,0,5,80,127,1465107852
92,15,17,Jits_Phase_5,1,5,63,98,1465157904
92,15,17,Jits_Phase_5,2,5,56,103,1465197840
92,15,17,Jits_Phase_5,3,1,48,46,1465202904
92,15,17,Jits_Phase_5,0,5,63,98,1465647476
92,15,17,Jits_Phase_5,1,1,48,33,1465667608
92,15,17,Jits_Phase_5,2,5,56,103,1465688528
92,15,17,Jits_Phase_5,3,5,80,127,1465697604
92,15,17,Jits_Phase_5,0,5,63,98,1466137940
92,15,17,Jits_Phase_5,1,1,48,48,1466150128
92,15,17,Jits_Phase_5,2,5,56,103,1466157496
92,15,17,Jits_Phase_5,3,5,80,127,1466178028
92,15,17,Jits_Phase_5,0,5,80,127,1466597736
92,15,17,Jits_Phase_5,1,5,56,103,1466608228
92,15,17,Jits_Phase_5,2,5,63,98,1466627416
92,15,17,Jits_Phase_5,3,1,48,33,1466640048
92,15,17,Jits_Phase_5,0,1,48,40,1467109148
92,15,17,Jits_Phase_5,1,5,63,98,1467128428
92,15,17,Jits_Phase_5,2,5,56,103,1467168068
92,15,17,Jits_Phase_5,3,5,80,127,1467197816
92,15,17,Jits_Phase_5,0,5,56,103,1467587812
92,15,17,Jits_Phase_5,1,5,63,98,1467617636
92,15,17,Jits_Phase_5,2,1,48,33,1467639480
92,15,17,Jits_Phase_5,3,5,80,127,1467648572
92,15,17,Jits_Phase_5,0,5,80,127,1468007772
92,15,17,Jits_Phase_5,1,5,56,103,1468077400
92,15,17,Jits_Phase_5,2,5,63,98,1468080544
92,15,17,Jits_Phase_5,3,1,48,37,1468103360
92,15,17,Jits_Phase_5,0,5,56,103,1468517640
92,15,17,Jits_Phase_5,1,5,63,98,1468567940
92,15,17,Jits_Phase_5,2,1,48,32,1468586036
92,15,17,Jits_Phase_5,3,5,80,127,1468597608
92,15,17,Jits_Phase_5,0,5,63,98,1468997912
92,15,17,Jits_Phase_5,1,5,80,127,1469001428
92,15,17,Jits_Phase_5,2,5,56,103,1469058452
92,15,17,Jits_Phase_5,3,1,48,35,1469068116
92,15,17,Jits_Phase_5,0,5,56,103,1469528372
92,15,17,Jits_Phase_5,1,1,48,37,1469530308
92,15,17,Jits_Phase_5,2,5,80,127,1469537736
92,15,17,Jits_Phase_5,3,5,63,98,1469587812
92,15,17,Jits_Phase_5,0,5,63,98,1469997492
92,15,17,Jits_Phase_5,1,5,56,103,1470007688
92,15,17,Jits_Phase_5,2,5,80,127,1470038484
92,15,17,Jits_Phase_5,3,1,48,43,1470042200
92,15,17,Jits_Phase_5,0,1,48,40,1470508220
92,15,17,Jits_Phase_5,1,5,63,98,1470527872
92,15,17,Jits_Phase_5,2,5,80,127,1470531380
92,15,17,Jits_Phase_5,3,5,56,103,1470557692
92,15,17,Jits_Phase_5,0,1,48,35,1471006160
92,15,17,Jits_Phase_5,1,5,63,98,1471047988
92,15,17,Jits_Phase_5,2,5,56,103,1471067472
92,15,17,Jits_Phase_5,3,5,80,127,1471070612
92,15,17,Jits_Phase_5,0,1,48,33,1471498180
92,15,17,Jits_Phase_5,1,5,63,98,1471507796
92,15,17,Jits_Phase_5,2,5,56,103,1471577328
92,15,17,Jits_Phase_5,3,5,80,127,1471598292
92,15,17,Jits_Phase_5,0,5,56,103,1471998264
92,15,17,Jits_Phase_5,1,5,63,98,1472007488
92,15,17,Jits_Phase_5,2,1,48,41,1472014648
92,15,17,Jits_Phase_5,3,5,80,127,1472097608
92,15,17,Jits_Phase_5,0,5,56,103,1472517584
92,15,17,Jits_Phase_5,1,1,48,38,1472519596
92,15,17,Jits_Phase_5,2,5,80,127,1472557592
92,15,17,Jits_Phase_5,3,5,63,98,1472567636
92,15,17,Jits_Phase_5,0,1,48,35,1473025860
92,15,17,Jits_Phase_5,1,5,56,103,1473037720
92,15,17,Jits_Phase_5,2,5,63,98,1473068516
92,15,17,Jits_Phase_5,3,5,80,127,1473098040
92,15,17,Jits_Phase_5,0,5,80,127,1473497544
92,15,17,Jits_Phase_5,1,1,48,36,1473525152
92,15,17,Jits_Phase_5,2,5,63,98,1473538300
92,15,17,Jits_Phase_5,3,5,56,103,1473557784
92,15,17,Jits_Phase_5,0,1,48,27,1474011948
92,15,17,Jits_Phase_5,1,5,56,103,1474038204
92,15,17,Jits_Phase_5,2,5,80,127,1474057540
92,15,17,Jits_Phase_5,3,5,63,98,1474078296
92,15,17,Jits_Phase_5,0,5,63,98,1474508220
92,15,17,Jits_Phase_5,1,1,48,22,1474509184
92,15,17,Jits_Phase_5,2,5,56,103,1474518484
92,15,17,Jits_Phase_5,3,5,80,127,1474577676
92,15,17,Jits_Phase_5,0,5,56,103,1475007972
92,15,17,Jits_Phase_5,1,1,48,25,1475026980
92,15,17,Jits_Phase_5,2,5,63,98,1475077348
92,15,17,Jits_Phase_5,3,5,80,127,1475098100
92,15,17,Jits_Phase_5,0,5,56,103,1475507588
92,15,17,Jits_Phase_5,1,1,48,32,1475515732
92,15,17,Jits_Phase_5,2,5,63,98,1475538228
92,15,17,Jits_Phase_5,3,5,80,127,1475578384
92,15,17,Jits_Phase_5,0,5,63,98,1475998208
92,15,17,Jits_Phase_5,1,1,48,42,1476039088
92,15,17,Jits_Phase_5,2,5,56,103,1476048252
92,15,17,Jits_Phase_5,3,5,80,127,1476057328
92,15,17,Jits_Phase_5,0,1,48,39,1476512672
92,15,17,Jits_Phase_5,1,5,56,103,1476537656
92,15,17,Jits_Phase_5,2,5,63,98,1476588304
92,15,17,Jits_Phase_5,3,5,80,127,1476598572
92,15,17,Jits_Phase_5,0,5,56,103,1477007672
92,15,17,Jits_Phase_5,1,1,48,44,1477008636
92,15,17,Jits_Phase_5,2,5,63,98,1477017932
92,15,17,Jits_Phase_5,3,5,80,127,1477097872
92,15,17,Jits_Phase_5,0,9999,9999,9999,1392775268
92,15,17,Jits_Phase_5,1,9999,9999,9999,1393276016
92,15,17,Jits_Phase_5,2,9999,9999,9999,1393775724
92,15,17,Jits_Phase_5,3,9999,9999,9999,1394275392
92,15,17,Jits_Phase_5,4,9999,9999,9999,1394775144
92,15,17,Jits_Phase_5,5,9999,9999,9999,1395275872
92,15,17,Jits_Phase_5,6,9999,9999,9999,1395775544
92,15,17,Jits_Phase_5,7,9999,9999,9999,1396275308
92,15,17,Jits_Phase_5,8,9999,9999,9999,1396776044
92,15,17,Jits_Phase_5,9,9999,9999,9999,1397275732
92,15,17,Jits_Phase_5,10,9999,9999,9999,1397775420
92,15,17,Jits_Phase_5,11,9999,9999,9999,1398275184
92,15,17,Jits_Phase_5,12,9999,9999,9999,1398775900
92,15,17,Jits_Phase_5,13,9999,9999,9999,1399275648
92,15,17,Jits_Phase_5,14,9999,9999,9999,1399775320
92,15,17,Jits_Phase_5,15,9999,9999,9999,1400276056
92,15,17,Jits_Phase_5,16,9999,9999,9999,1400775804
92,15,17,Jits_Phase_5,17,9999,9999,9999,1401275480
92,15,17,Jits_Phase_5,18,9999,9999,9999,1401775168
92,15,17,Jits_Phase_5,19,9999,9999,9999,1402275908
92,15,17,Jits_Phase_5,20,9999,9999,9999,1402775672
92,15,17,Jits_Phase_5,21,9999,9999,9999,1403275364
92,15,17,Jits_Phase_5,22,9999,9999,9999,1403776072
92,15,17,Jits_Phase_5,23,9999,9999,9999,1404286020
92,15,17,Jits_Phase_5,24,9999,9999,9999,1404785784
92,15,17,Jits_Phase_5,25,9999,9999,9999,1405285464
92,15,17,Jits_Phase_5,26,9999,9999,9999,1405785144
92,15,17,Jits_Phase_5,27,9999,9999,9999,1406285928
92,15,17,Jits_Phase_5,28,9999,9999,9999,1406785620
92,15,17,Jits_Phase_5,29,9999,9999,9999,1407285364
92,15,17,Jits_Phase_5,30,9999,9999,9999,1407775840
92,15,17,Jits_Phase_5,31,9999,9999,9999,1408275532
92,15,17,Jits_Phase_5,32,9999,9999,9999,1408775220
92,15,17,Jits_Phase_5,33,9999,9999,9999,1409275956
92,15,17,Jits_Phase_5,34,9999,9999,9999,1409775724
92,15,17,Jits_Phase_5,35,9999,9999,9999,1410275400
92,15,17,Jits_Phase_5,36,9999,9999,9999,1410775136
92,15,17,Jits_Phase_5,37,9999,9999,9999,1411275860
92,15,17,Jits_Phase_5,38,9999,9999,9999,1411775548
92,15,17,Jits_Phase_5,39,9999,9999,9999,1412275300
92,15,17,Jits_Phase_5,40,9999,9999,9999,1412776024
92,15,17,Jits_Phase_5,41,9999,9999,9999,1413275772
92,15,17,Jits_Phase_5,42,9999,9999,9999,1413775440
92,15,17,Jits_Phase_5,43,9999,9999,9999,1414275136
92,15,17,Jits_Phase_5,44,9999,9999,9999,1414775904
92,15,17,Jits_Phase_5,45,9999,9999,9999,1415275628
92,15,17,Jits_Phase_5,46,9999,9999,9999,1415775300
92,15,17,Jits_Phase_5,47,9999,9999,9999,1416276028
92,15,17,Jits_Phase_5,48,9999,9999,9999,1416786040
92,15,17,Jits_Phase_5,49,9999,9999,9999,1417285736
92,15,17,Jits_Phase_5,50,9999,9999,9999,1417785400
92,15,17,Jits_Phase_5,51,9999,9999,9999,1418285168
92,15,17,Jits_Phase_5,52,9999,9999,9999,1418785904
92,15,17,Jits_Phase_5,53,9999,9999,9999,1419285596
92,15,17,Jits_Phase_5,54,9999,9999,9999,1419785272
92,15,17,Jits_Phase_5,55,9999,9999,9999,1420286008
92,15,17,Jits_Phase_5,56,9999,9999,9999,1420785772
92,15,17,Jits_Phase_5,57,9999,9999,9999,1421285456
92,15,17,Jits_Phase_5,58,9999,9999,9999,1421785204
92,15,17,Jits_Phase_5,59,9999,9999,9999,1422285912
92,15,17,Jits_Phase_5,60,9999,9999,9999,1422785604
92,15,17,Jits_Phase_5,61,9999,9999,9999,1423285348
92,15,17,Jits_Phase_5,62,9999,9999,9999,1423786072
92,15,17,Jits_Phase_5,63,9999,9999,9999,1424285796
92,15,17,Jits_Phase_5,64,9999,9999,9999,1424806000
92,15,17,Jits_Phase_5,65,9999,9999,9999,1425305684
92,15,17,Jits_Phase_5,66,9999,9999,9999,1425805436
92,15,17,Jits_Phase_5,67,9999,9999,9999,1426305148
92,15,17,Jits_Phase_5,68,9999,9999,9999,1426805880
92,15,17,Jits_Phase_5,69,9999,9999,9999,1427305548
92,15,17,Jits_Phase_5,70,9999,9999,9999,1427805284
92,15,17,Jits_Phase_5,71,9999,9999,9999,1428306020
92,15,17,Jits_Phase_5,72,9999,9999,9999,1428805708
92,15,17,Jits_Phase_5,73,9999,9999,9999,1429305456
92,15,17,Jits_Phase_5,74,9999,9999,9999,1429805136
92,15,17,Jits_Phase_5,75,9999,9999,9999,1430305852
92,15,17,Jits_Phase_5,76,9999,9999,9999,1430805620
92,15,17,Jits_Phase_5,77,9999,9999,9999,1431305296
92,15,17,Jits_Phase_5,78,9999,9999,9999,1431806036
92,15,17,Jits_Phase_5,79,9999,9999,9999,1432305784
92,15,17,Jits_Phase_5,80,9999,9999,9999,1432805460
92,15,17,Jits_Phase_5,81,9999,9999,9999,1433285732
92,15,17,Jits_Phase_5,82,9999,9999,9999,1433785420
92,15,17,Jits_Phase_5,83,9999,9999,9999,1434285172
92,15,17,Jits_Phase_5,84,9999,9999,9999,1434785908
92,15,17,Jits_Phase_5,85,9999,9999,9999,1435285580
92,15,17,Jits_Phase_5,86,9999,9999,9999,1435785328
92,15,17,Jits_Phase_5,87,9999,9999,9999,1436286036
92,15,17,Jits_Phase_5,88,9999,9999,9999,1436785720
92,15,17,Jits_Phase_5,89,9999,9999,9999,1437285464
92,15,17,Jits_Phase_5,90,9999,9999,9999,1437785156
92,15,17,Jits_Phase_5,91,9999,9999,9999,1438285884
92,15,17,Jits_Phase_5,92,9999,9999,9999,1438785636
92,15,17,Jits_Phase_5,93,9999,9999,9999,1439285336
92,15,17,Jits_Phase_5,94,9999,9999,9999,1439786068
92,15,17,Jits_Phase_5,95,9999,9999,9999,1440285820
92,15,17,Jits_Phase_5,96,9999,9999,9999,1440785512
92,15,17,Jits_Phase_5,97,9999,9999,9999,1441236036
92,15,17,Jits_Phase_5,98,9999,9999,9999,1441735784
92,15,17,Jits_Phase_5,99,9999,9999,9999,1442235472
92,15,17,Jits_Phase_5,100,9999,9999,9999,1442735216
92,15,17,Jits_Phase_5,101,9999,9999,9999,1443235952
92,15,17,Jits_Phase_5,102,9999,9999,9999,1443735632
92,15,17,Jits_Phase_5,103,9999,9999,9999,1444235324
92,15,17,Jits_Phase_5,104,9999,9999,9999,1444736072
92,15,17,Jits_Phase_5,105,9999,9999,9999,1445246048
92,15,17,Jits_Phase_5,106,9999,9999,9999,1445745792
92,15,17,Jits_Phase_5,107,9999,9999,9999,1446245464
92,15,17,Jits_Phase_5,108,9999,9999,9999,1446745148
92,15,17,Jits_Phase_5,109,9999,9999,9999,1447245880
92,15,17,Jits_Phase_5,110,9999,9999,9999,1447745644
92,15,17,Jits_Phase_5,111,9999,9999,9999,1448245332
92,15,17,Jits_Phase_5,112,9999,9999,9999,1448746064
92,15,17,Jits_Phase_5,113,9999,9999,9999,1449245756
92,15,17,Jits_Phase_5,114,9999,9999,9999,1449795696
92,15,17,Jits_Phase_5,115,9999,9999,9999,1450295364
92,15,17,Jits_Phase_5,116,9999,9999,9999,1450795084
92,15,17,Jits_Phase_5,117,9999,9999,9999,1451295872
92,15,17,Jits_Phase_5,118,9999,9999,9999,1451795560
92,15,17,Jits_Phase_5,119,9999,9999,9999,1452295228
92,15,17,Jits_Phase_5,120,9999,9999,9999,1452795960
92,15,17,Jits_Phase_5,121,9999,9999,9999,1453295688
92,15,17,Jits_Phase_5,122,9999,9999,9999,1453795428
92,15,17,Jits_Phase_5,123,9999,9999,9999,1454295120
92,15,17,Jits_Phase_5,124,9999,9999,9999,1454795840
92,15,17,Jits_Phase_5,125,9999,9999,9999,1455295588
92,15,17,Jits_Phase_5,126,9999,9999,9999,1455795280
92,15,17,Jits_Phase_5,127,9999,9999,9999,1456295992
92,15,17,Jits_Phase_5,128,9999,9999,9999,1456795744
92,15,17,Jits_Phase_5,129,9999,9999,9999,1457295432
92,15,17,Jits_Phase_5,130,9999,9999,9999,1457795172
92,15,17,Jits_Phase_5,131,9999,9999,9999,1458395252
92,15,17,Jits_Phase_5,132,9999,9999,9999,1458895980
92,15,17,Jits_Phase_5,133,9999,9999,9999,1459395660
92,15,17,Jits_Phase_5,134,9999,9999,9999,1459895404
92,15,17,Jits_Phase_5,135,9999,9999,9999,1460395088
92,15,17,Jits_Phase_5,136,9999,9999,9999,1460895828
92,15,17,Jits_Phase_5,137,9999,9999,9999,1461395576
92,15,17,Jits_Phase_5,138,9999,9999,9999,1461895240
92,15,17,Jits_Phase_5,139,9999,9999,9999,1462395960
92,15,17,Jits_Phase_5,140,9999,9999,9999,1462895716
92,15,17,Jits_Phase_5,141,9999,9999,9999,1463395408
92,15,17,Jits_Phase_5,142,9999,9999,9999,1463895096
92,15,17,Jits_Phase_5,143,9999,9999,9999,1464395836
92,15,17,Jits_Phase_5,144,9999,9999,9999,1464895592
92,15,17,Jits_Phase_5,145,9999,9999,9999,1465395272
92,15,17,Jits_Phase_5,146,9999,9999,9999,1465896012
92,15,17,Jits_Phase_5,147,9999,9999,9999,1466395740
92,15,17,Jits_Phase_5,148,9999,9999,9999,1466895484
92,15,17,Jits_Phase_5,149,9999,9999,9999,1467395180
92,15,17,Jits_Phase_5,150,9999,9999,9999,1467795524
92,15,17,Jits_Phase_5,151,9999,9999,9999,1468295280
92,15,17,Jits_Phase_5,152,9999,9999,9999,1468795992
92,15,17,Jits_Phase_5,153,9999,9999,9999,1469295732
92,15,17,Jits_Phase_5,154,9999,9999,9999,1469795412
92,15,17,Jits_Phase_5,155,9999,9999,9999,1470295096
92,15,17,Jits_Phase_5,156,9999,9999,9999,1470795880
92,15,17,Jits_Phase_5,157,9999,9999,9999,1471295548
92,15,17,Jits_Phase_5,158,9999,9999,9999,1471795300
92,15,17,Jits_Phase_5,159,9999,9999,9999,1472296016
92,15,17,Jits_Phase_5,160,9999,9999,9999,1472795712
92,15,17,Jits_Phase_5,161,9999,9999,9999,1473295476
92,15,17,Jits_Phase_5,162,9999,9999,9999,1473795148
92,15,17,Jits_Phase_5,163,9999,9999,9999,1474295888
92,15,17,Jits_Phase_5,164,9999,9999,9999,1474795636
92,15,17,Jits_Phase_5,165,9999,9999,9999,1475295316
92,15,17,Jits_Phase_5,166,9999,9999,9999,1475796052
92,15,17,Jits_Phase_5,167,9999,9999,9999,1476295736
92,15,17,Jits_Phase_5,168,9999,9999,9999,1476795488
92,15,17,Jits_Phase_5,169,9999,9999,9999,1477295160
92,16,18,Jits_Linear_8,0,5,56,103,1487117704
92,16,18,Jits_Linear_8,1,5,63,98,1487120724
92,16,18,Jits_Linear_8,2,5,80,127,1487124148
92,16,18,Jits_Linear_8,0,5,56,103,1487938084
92,16,18,Jits_Linear_8,1,5,63,98,1487941260
92,16,18,Jits_Linear_8,2,5,80,127,1487944380
92,16,18,Jits_Linear_8,3,1,48,35,1488168756
92,16,18,Jits_Linear_8,0,5,80,127,1488697916
92,16,18,Jits_Linear_8,1,1,48,43,1488721560
92,16,18,Jits_Linear_8,2,5,63,98,1488787772
92,16,18,Jits_Linear_8,3,5,56,103,1488798264
92,16,18,Jits_Linear_8,0,1,48,56,1489480864
92,16,18,Jits_Linear_8,1,5,56,103,1489538360
92,16,18,Jits_Linear_8,2,5,63,98,1489547584
92,16,18,Jits_Linear_8,3,5,80,127,1489637624
92,16,18,Jits_Linear_8,0,1,48,48,1490261036
92,16,18,Jits_Linear_8,1,5,63,98,1490327992
92,16,18,Jits_Linear_8,2,5,80,127,1490357596
92,16,18,Jits_Linear_8,3,5,56,103,1490388228
92,16,18,Jits_Linear_8,0,1,48,49,1491079760
92,16,18,Jits_Linear_8,1,5,56,103,1491148120
92,16,18,Jits_Linear_8,2,5,80,127,1491247456
92,16,18,Jits_Linear_8,3,5,63,98,1491297512
92,16,18,Jits_Linear_8,0,1,48,43,1491955404
92,16,18,Jits_Linear_8,1,5,56,103,1491958064
92,16,18,Jits_Linear_8,2,5,80,127,1492008192
92,16,18,Jits_Linear_8,3,5,63,98,1492048280
92,16,18,Jits_Linear_8,0,1,48,43,1492763472
92,16,18,Jits_Linear_8,1,5,80,127,1492797972
92,16,18,Jits_Linear_8,2,5,63,98,1492827500
92,16,18,Jits_Linear_8,3,5,56,103,1492898236
92,16,18,Jits_Linear_8,0,1,48,48,1493601968
92,16,18,Jits_Linear_8,1,5,63,98,1493637464
92,16,18,Jits_Linear_8,2,5,56,103,1493668336
92,16,18,Jits_Linear_8,3,5,80,127,1493728036
92,16,18,Jits_Linear_8,0,5,56,103,1494388048
92,16,18,Jits_Linear_8,1,5,80,127,1494390964
92,16,18,Jits_Linear_8,2,1,48,39,1494403524
92,16,18,Jits_Linear_8,3,5,63,98,1494508152
92,16,18,Jits_Linear_8,0,1,48,28,1495194456
92,16,18,Jits_Linear_8,1,5,56,103,1495267768
92,16,18,Jits_Linear_8,2,5,80,127,1495307544
92,16,18,Jits_Linear_8,3,5,63,98,1495317816
92,16,18,Jits_Linear_8,0,1,48,29,1495984476
92,16,18,Jits_Linear_8,1,5,56,103,1496027444
92,16,18,Jits_Linear_8,2,5,80,127,1496048128
92,16,18,Jits_Linear_8,3,5,63,98,1496128132
92,16,18,Jits_Linear_8,0,1,48,33,1496807472
92,16,18,Jits_Linear_8,1,5,80,127,1496818132
92,16,18,Jits_Linear_8,2,5,56,103,1496918368
92,16,18,Jits_Linear_8,3,5,63,98,1496927592
92,16,18,Jits_Linear_8,0,5,63,98,1497588080
92,16,18,Jits_Linear_8,1,1,48,47,1497613292
92,16,18,Jits_Linear_8,2,5,80,127,1497647416
92,16,18,Jits_Linear_8,3,5,56,103,1497657912
92,16,18,Jits_Linear_8,0,1,48,50,1498368392
92,16,18,Jits_Linear_8,1,5,56,103,1498387968
92,16,18,Jits_Linear_8,2,5,63,98,1498457428
92,16,18,Jits_Linear_8,3,5,80,127,1498460792
92,16,18,Jits_Linear_8,0,1,48,45,1499130144
92,16,18,Jits_Linear_8,1,5,63,98,1499218428
92,16,18,Jits_Linear_8,2,5,56,103,1499267420
92,16,18,Jits_Linear_8,3,5,80,127,1499270808
92,16,18,Jits_Linear_8,0,1,48,46,1499907640
92,16,18,Jits_Linear_8,1,5,56,103,1499967976
92,16,18,Jits_Linear_8,2,5,80,127,1499970892
92,16,18,Jits_Linear_8,3,5,63,98,1500058116
92,16,18,Jits_Linear_8,0,1,48,50,1500712688
92,16,18,Jits_Linear_8,1,5,63,98,1500798432
92,16,18,Jits_Linear_8,2,5,56,103,1500888356
92,16,18,Jits_Linear_8,3,5,80,127,1500918180
92,16,18,Jits_Linear_8,0,1,48,53,1501573168
92,16,18,Jits_Linear_8,1,5,56,103,1501577472
92,16,18,Jits_Linear_8,2,5,63,98,1501677932
92,16,18,Jits_Linear_8,3,5,80,127,1501707752
92,16,18,Jits_Linear_8,0,1,48,44,1502386972
92,16,18,Jits_Linear_8,1,5,63,98,1502388540
92,16,18,Jits_Linear_8,2,5,56,103,1502397912
92,16,18,Jits_Linear_8,3,5,80,127,1502487884
92,16,18,Jits_Linear_8,0,1,48,26,1503191640
92,16,18,Jits_Linear_8,1,5,63,98,1503197516
92,16,18,Jits_Linear_8,2,5,56,103,1503277464
92,16,18,Jits_Linear_8,3,5,80,127,1503280528
92,16,18,Jits_Linear_8,0,5,80,127,1503938012
92,16,18,Jits_Linear_8,1,1,48,41,1503948400
92,16,18,Jits_Linear_8,2,5,63,98,1503958240
92,16,18,Jits_Linear_8,3,5,56,103,1504017956
92,16,18,Jits_Linear_8,0,1,48,49,1504727412
92,16,18,Jits_Linear_8,1,5,56,103,1504758004
92,16,18,Jits_Linear_8,2,5,63,98,1504777712
92,16,18,Jits_Linear_8,3,5,80,127,1504781152
92,16,18,Jits_Linear_8,0,5,63,98,1505477964
92,16,18,Jits_Linear_8,1,1,48,47,1505537952
92,16,18,Jits_Linear_8,2,5,80,127,1505557904
92,16,18,Jits_Linear_8,3,5,56,103,1505568100
92,16,18,Jits_Linear_8,0,5,63,98,1506277868
92,16,18,Jits_Linear_8,1,5,56,103,1506298176
92,16,18,Jits_Linear_8,2,1,48,48,1506323692
92,16,18,Jits_Linear_8,3,5,80,127,1506348372
92,16,18,Jits_Linear_8,0,5,80,127,1507058068
92,16,18,Jits_Linear_8,1,1,48,40,1507088760
92,16,18,Jits_Linear_8,2,5,63,98,1507097924
92,16,18,Jits_Linear_8,3,5,56,103,1507117336
92,16,18,Jits_Linear_8,0,1,48,56,1507838176
92,16,18,Jits_Linear_8,1,5,56,103,1507867944
92,16,18,Jits_Linear_8,2,5,63,98,1507878216
92,16,18,Jits_Linear_8,3,5,80,127,1507897924
92,16,18,Jits_Linear_8,0,5,56,103,1508568288
92,16,18,Jits_Linear_8,1,1,48,55,1508627300
92,16,18,Jits_Linear_8,2,5,63,98,1508657592
92,16,18,Jits_Linear_8,3,5,80,127,1508717836
92,16,18,Jits_Linear_8,0,5,80,127,1509368132
92,16,18,Jits_Linear_8,1,1,48,59,1509374836
92,16,18,Jits_Linear_8,2,5,56,103,1509378544
92,16,18,Jits_Linear_8,3,5,63,98,1509448152
92,16,18,Jits_Linear_8,0,1,48,49,1510145848
92,16,18,Jits_Linear_8,1,5,63,98,1510167896
92,16,18,Jits_Linear_8,2,5,80,127,1510258020
92,16,18,Jits_Linear_8,3,5,56,103,1510268140
92,16,18,Jits_Linear_8,0,5,63,98,1510868464
92,16,18,Jits_Linear_8,1,5,80,127,1510917548
92,16,18,Jits_Linear_8,2,1,48,58,1510924332
92,16,18,Jits_Linear_8,3,5,56,103,1510978008
92,16,18,Jits_Linear_8,0,5,56,103,1511657732
92,16,18,Jits_Linear_8,1,1,48,50,1511694032
92,16,18,Jits_Linear_8,2,5,80,127,1511708000
92,16,18,Jits_Linear_8,3,5,63,98,1511727340
92,16,18,Jits_Linear_8,0,5,56,103,1512387896
92,16,18,Jits_Linear_8,1,5,80,127,1512448360
92,16,18,Jits_Linear_8,2,1,48,58,1512451108
92,16,18,Jits_Linear_8,3,5,63,98,1512518036
92,16,18,Jits_Linear_8,0,5,56,103,1513147880
92,16,18,Jits_Linear_8,1,5,80,127,1513177408
92,16,18,Jits_Linear_8,2,1,48,52,1513178372
92,16,18,Jits_Linear_8,3,5,63,98,1513208120
92,16,18,Jits_Linear_8,0,1,48,52,1513891188
92,16,18,Jits_Linear_8,1,5,56,103,1513947708
92,16,18,Jits_Linear_8,2,5,80,127,1513968096
92,16,18,Jits_Linear_8,3,5,63,98,1514028548
92,16,18,Jits_Linear_8,0,1,48,45,1514649136
92,16,18,Jits_Linear_8,1,5,80,127,1514788208
92,16,18,Jits_Linear_8,2,5,56,103,1514797432
92,16,18,Jits_Linear_8,3,5,63,98,1514807776
92,16,18,Jits_Linear_8,0,1,48,52,1515426580
92,16,18,Jits_Linear_8,1,5,56,103,1515497784
92,16,18,Jits_Linear_8,2,5,80,127,1515537632
92,16,18,Jits_Linear_8,3,5,63,98,1515567608
92,16,18,Jits_Linear_8,0,1,48,53,1516211428
92,16,18,Jits_Linear_8,1,5,56,103,1516217828
92,16,18,Jits_Linear_8,2,5,63,98,1516248552
92,16,18,Jits_Linear_8,3,5,80,127,1516288636
92,16,18,Jits_Linear_8,0,5,80,127,1516918068
92,16,18,Jits_Linear_8,1,1,48,52,1516960472
92,16,18,Jits_Linear_8,2,5,63,98,1516968440
92,16,18,Jits_Linear_8,3,5,56,103,1516987704
92,16,18,Jits_Linear_8,0,1,48,61,1517689108
92,16,18,Jits_Linear_8,1,5,56,103,1517698572
92,16,18,Jits_Linear_8,2,5,80,127,1517767984
92,16,18,Jits_Linear_8,3,5,63,98,1517827608
92,16,18,Jits_Linear_8,0,1,48,54,1518424576
92,16,18,Jits_Linear_8,1,5,80,127,1518437724
92,16,18,Jits_Linear_8,2,5,63,98,1518527796
92,16,18,Jits_Linear_8,3,5,56,103,1518548328
92,16,18,Jits_Linear_8,0,5,63,98,1519197704
92,16,18,Jits_Linear_8,1,1,48,58,1519214152
92,16,18,Jits_Linear_8,2,5,56,103,1519217936
92,16,18,Jits_Linear_8,3,5,80,127,1519257824
92,16,18,Jits_Linear_8,0,5,80,127,1519897964
92,16,18,Jits_Linear_8,1,1,48,51,1519900556
92,16,18,Jits_Linear_8,2,5,63,98,1519917596
92,16,18,Jits_Linear_8,3,5,56,103,1519998276
92,16,18,Jits_Linear_8,0,1,48,62,1520604036
92,16,18,Jits_Linear_8,1,5,63,98,1520627976
92,16,18,Jits_Linear_8,2,5,56,103,1520737648
92,16,18,Jits_Linear_8,3,5,80,127,1520740640
92,16,18,Jits_Linear_8,0,1,48,48,1521331860
92,16,18,Jits_Linear_8,1,5,63,98,1521387864
92,16,18,Jits_Linear_8,2,5,56,103,1521398056
92,16,18,Jits_Linear_8,3,5,80,127,1521401124
92,16,18,Jits_Linear_8,0,1,48,54,1522082004
92,16,18,Jits_Linear_8,1,5,56,103,1522107808
92,16,18,Jits_Linear_8,2,5,80,127,1522227748
92,16,18,Jits_Linear_8,3,5,63,98,1522267464
92,16,18,Jits_Linear_8,0,1,48,55,1522798876
92,16,18,Jits_Linear_8,1,5,56,103,1522858340
92,16,18,Jits_Linear_8,2,5,80,127,1522938200
92,16,18,Jits_Linear_8,3,5,63,98,1522957612
92,16,18,Jits_Linear_8,0,1,48,46,1523578484
92,16,18,Jits_Linear_8,1,5,56,103,1523587748
92,16,18,Jits_Linear_8,2,5,63,98,1523698096
92,16,18,Jits_Linear_8,3,5,80,127,1523701460
92,16,18,Jits_Linear_8,0,1,48,49,1524329684
92,16,18,Jits_Linear_8,1,5,56,103,1524348440
92,16,18,Jits_Linear_8,2,5,80,127,1524377916
92,16,18,Jits_Linear_8,3,5,63,98,1524397552
92,16,18,Jits_Linear_8,0,1,48,55,1525041404
92,16,18,Jits_Linear_8,1,5,63,98,1525057840
92,16,18,Jits_Linear_8,2,5,56,103,1525068112
92,16,18,Jits_Linear_8,3,5,80,127,1525078604
92,16,18,Jits_Linear_8,0,1,48,49,1525722992
92,16,18,Jits_Linear_8,1,5,80,127,1525777800
92,16,18,Jits_Linear_8,2,5,56,103,1525827988
92,16,18,Jits_Linear_8,3,5,63,98,1525868000
92,16,18,Jits_Linear_8,0,1,48,55,1526439592
92,16,18,Jits_Linear_8,1,5,80,127,1526517992
92,16,18,Jits_Linear_8,2,5,63,98,1526537704
92,16,18,Jits_Linear_8,3,5,56,103,1526587740
92,16,18,Jits_Linear_8,0,1,48,62,1527208408
92,16,18,Jits_Linear_8,1,5,80,127,1527248216
92,16,18,Jits_Linear_8,2,5,56,103,1527277968
92,16,18,Jits_Linear_8,3,5,63,98,1527347632
92,16,18,Jits_Linear_8,0,1,48,45,1527950996
92,16,18,Jits_Linear_8,1,5,56,103,1528018384
92,16,18,Jits_Linear_8,2,5,80,127,1528027532
92,16,18,Jits_Linear_8,3,5,63,98,1528067532
92,16,18,Jits_Linear_8,0,5,56,103,1528647980
92,16,18,Jits_Linear_8,1,5,63,98,1528667692
92,16,18,Jits_Linear_8,2,1,48,48,1528702644
92,16,18,Jits_Linear_8,3,5,80,127,1528738288
92,16,18,Jits_Linear_8,0,5,63,98,1529388556
92,16,18,Jits_Linear_8,1,1,48,52,1529422244
92,16,18,Jits_Linear_8,2,5,80,127,1529447748
92,16,18,Jits_Linear_8,3,5,56,103,1529468208
92,16,18,Jits_Linear_8,0,5,80,127,1530087772
92,16,18,Jits_Linear_8,1,5,56,103,1530117672
92,16,18,Jits_Linear_8,2,1,48,51,1530136608
92,16,18,Jits_Linear_8,3,5,63,98,1530148316
92,16,18,Jits_Linear_8,0,5,56,103,1530797628
92,16,18,Jits_Linear_8,1,1,48,47,1530799640
92,16,18,Jits_Linear_8,2,5,63,98,1530857940
92,16,18,Jits_Linear_8,3,5,80,127,1530918464
92,16,18,Jits_Linear_8,0,1,48,48,1531528300
92,16,18,Jits_Linear_8,1,5,80,127,1531537836
92,16,18,Jits_Linear_8,2,5,56,103,1531558368
92,16,18,Jits_Linear_8,3,5,63,98,1531627960
92,16,18,Jits_Linear_8,0,1,48,47,1532240740
92,16,18,Jits_Linear_8,1,5,80,127,1532248560
92,16,18,Jits_Linear_8,2,5,63,98,1532267828
92,16,18,Jits_Linear_8,3,5,56,103,1532297600
92,16,18,Jits_Linear_8,0,5,80,127,1532937440
92,16,18,Jits_Linear_8,1,5,63,98,1532958200
92,16,18,Jits_Linear_8,2,1,48,43,1532980424
92,16,18,Jits_Linear_8,3,5,56,103,1533017536
92,16,18,Jits_Linear_8,0,5,80,127,1533637940
92,16,18,Jits_Linear_8,1,1,48,55,1533678672
92,16,18,Jits_Linear_8,2,5,56,103,1533738556
92,16,18,Jits_Linear_8,3,5,63,98,1533767932
92,16,18,Jits_Linear_8,0,5,63,98,1534328376
92,16,18,Jits_Linear_8,1,5,80,127,1534378680
92,16,18,Jits_Linear_8,2,1,48,49,1534397948
92,16,18,Jits_Linear_8,3,5,56,103,1534399284
92,16,18,Jits_Linear_8,0,5,80,127,1535067604
92,16,18,Jits_Linear_8,1,1,48,50,1535069088
92,16,18,Jits_Linear_8,2,5,56,103,1535098316
92,16,18,Jits_Linear_8,3,5,63,98,1535101384
92,16,18,Jits_Linear_8,0,1,48,51,1535716372
92,16,18,Jits_Linear_8,1,5,63,98,1535797536
92,16,18,Jits_Linear_8,2,5,56,103,1535837536
92,16,18,Jits_Linear_8,3,5,80,127,1535857920
92,16,18,Jits_Linear_8,0,1,48,53,1536434608
92,16,18,Jits_Linear_8,1,5,80,127,1536437716
92,16,18,Jits_Linear_8,2,5,63,98,1536517516
92,16,18,Jits_Linear_8,3,5,56,103,1536557588
92,16,18,Jits_Linear_8,0,5,63,98,1537148524
92,16,18,Jits_Linear_8,1,1,48,50,1537162308
92,16,18,Jits_Linear_8,2,5,80,127,1537228264
92,16,18,Jits_Linear_8,3,5,56,103,1537247528
92,16,18,Jits_Linear_8,0,1,48,57,1537862536
92,16,18,Jits_Linear_8,1,5,56,103,1537878380
92,16,18,Jits_Linear_8,2,5,63,98,1537887532
92,16,18,Jits_Linear_8,3,5,80,127,1537927492
92,16,18,Jits_Linear_8,0,5,56,103,1538487772
92,16,18,Jits_Linear_8,1,5,80,127,1538490760
92,16,18,Jits_Linear_8,2,1,48,50,1538545888
92,16,18,Jits_Linear_8,3,5,63,98,1538627940
92,16,18,Jits_Linear_8,0,5,56,103,1539167560
92,16,18,Jits_Linear_8,1,1,48,55,1539240008
92,16,18,Jits_Linear_8,2,5,63,98,1539257564
92,16,18,Jits_Linear_8,3,5,80,127,1539328516
92,16,18,Jits_Linear_8,0,1,48,55,1539873416
92,16,18,Jits_Linear_8,1,5,63,98,1539928592
92,16,18,Jits_Linear_8,2,5,80,127,1539931804
92,16,18,Jits_Linear_8,3,5,56,103,1539987868
92,16,18,Jits_Linear_8,0,1,48,53,1540563780
92,16,18,Jits_Linear_8,1,5,80,127,1540648552
92,16,18,Jits_Linear_8,2,5,56,103,1540667728
92,16,18,Jits_Linear_8,3,5,63,98,1540678148
92,16,18,Jits_Linear_8,0,5,56,103,1541237996
92,16,18,Jits_Linear_8,1,5,63,98,1541248492
92,16,18,Jits_Linear_8,2,1,48,59,1541273956
92,16,18,Jits_Linear_8,3,5,80,127,1541317892
92,16,18,Jits_Linear_8,0,1,48,50,1541902040
92,16,18,Jits_Linear_8,1,5,80,127,1541918032
92,16,18,Jits_Linear_8,2,5,56,103,1541968536
92,16,18,Jits_Linear_8,3,5,63,98,1542018448
92,16,18,Jits_Linear_8,0,1,48,51,1542536460
92,16,18,Jits_Linear_8,1,5,56,103,1542677772
92,16,18,Jits_Linear_8,2,5,63,98,1542688340
92,16,18,Jits_Linear_8,3,5,80,127,1542727908
92,16,18,Jits_Linear_8,0,1,48,51,1543230632
92,16,18,Jits_Linear_8,1,5,56,103,1543298340
92,16,18,Jits_Linear_8,2,5,63,98,1543338488
92,16,18,Jits_Linear_8,3,5,80,127,1543387640
92,16,18,Jits_Linear_8,0,5,80,127,1543928232
92,16,18,Jits_Linear_8,1,1,48,53,1543958400
92,16,18,Jits_Linear_8,2,5,56,103,1543978284
92,16,18,Jits_Linear_8,3,5,63,98,1543997768
92,16,18,Jits_Linear_8,0,1,48,51,1544604564
92,16,18,Jits_Linear_8,1,5,80,127,1544608196
92,16,18,Jits_Linear_8,2,5,63,98,1544667468
92,16,18,Jits_Linear_8,3,5,56,103,1544748296
92,16,18,Jits_Linear_8,0,5,80,127,1545258392
92,16,18,Jits_Linear_8,1,1,48,52,1545276204
92,16,18,Jits_Linear_8,2,5,56,103,1545298324
92,16,18,Jits_Linear_8,3,5,63,98,1545317740
92,16,18,Jits_Linear_8,0,1,48,50,1545962072
92,16,18,Jits_Linear_8,1,5,56,103,1545978364
92,16,18,Jits_Linear_8,2,5,80,127,1545987440
92,16,18,Jits_Linear_8,3,5,63,98,1546028424
92,16,18,Jits_Linear_8,0,1,48,51,1546630872
92,16,18,Jits_Linear_8,1,5,56,103,1546708300
92,16,18,Jits_Linear_8,2,5,63,98,1546748144
92,16,18,Jits_Linear_8,3,5,80,127,1546751512
92,16,18,Jits_Linear_8,0,5,63,98,1547258324
92,16,18,Jits_Linear_8,1,5,80,127,1547298264
92,16,18,Jits_Linear_8,2,1,48,52,1547301012
92,16,18,Jits_Linear_8,3,5,56,103,1547367788
92,16,18,Jits_Linear_8,0,5,63,98,1547907416
92,16,18,Jits_Linear_8,1,1,48,53,1547961928
92,16,18,Jits_Linear_8,2,5,56,103,1547988480
92,16,18,Jits_Linear_8,3,5,80,127,1548047600
92,16,18,Jits_Linear_8,0,5,80,127,1548578360
92,16,18,Jits_Linear_8,1,5,63,98,1548628264
92,16,18,Jits_Linear_8,2,1,48,48,1548643888
92,16,18,Jits_Linear_8,3,5,56,103,1548658304
92,16,18,Jits_Linear_8,0,5,56,103,1549228360
92,16,18,Jits_Linear_8,1,5,63,98,1549277592
92,16,18,Jits_Linear_8,2,5,80,127,1549287712
92,16,18,Jits_Linear_8,3,1,48,46,1549293896
92,16,18,Jits_Linear_8,0,1,48,43,1549895668
92,16,18,Jits_Linear_8,1,5,56,103,1549898180
92,16,18,Jits_Linear_8,2,5,63,98,1550007660
92,16,18,Jits_Linear_8,3,5,80,127,1550028340
92,16,18,Jits_Linear_8,0,5,63,98,1550548336
92,16,18,Jits_Linear_8,1,1,48,43,1550576712
92,16,18,Jits_Linear_8,2,5,80,127,1550597408
92,16,18,Jits_Linear_8,3,5,56,103,1550687528
92,16,18,Jits_Linear_8,0,5,63,98,1551188260
92,16,18,Jits_Linear_8,1,1,48,40,1551197232
92,16,18,Jits_Linear_8,2,5,80,127,1551218304
92,16,18,Jits_Linear_8,3,5,56,103,1551308220
92,16,18,Jits_Linear_8,0,1,48,40,1551812436
92,16,18,Jits_Linear_8,1,5,63,98,1551837420
92,16,18,Jits_Linear_8,2,5,56,103,1551847916
92,16,18,Jits_Linear_8,3,5,80,127,1551948148
92,16,18,Jits_Linear_8,0,1,48,39,1552436108
92,16,18,Jits_Linear_8,1,5,63,98,1552588240
92,16,18,Jits_Linear_8,2,5,80,127,1552617696
92,16,18,Jits_Linear_8,3,5,56,103,1552647520
92,16,18,Jits_Linear_8,0,1,48,44,1553153828
92,16,18,Jits_Linear_8,1,5,80,127,1553247672
92,16,18,Jits_Linear_8,2,5,63,98,1553258076
92,16,18,Jits_Linear_8,3,5,56,103,1553287476
92,16,18,Jits_Linear_8,0,5,80,127,1553788260
92,16,18,Jits_Linear_8,1,5,63,98,1553808148
92,16,18,Jits_Linear_8,2,1,48,41,1553825640
92,16,18,Jits_Linear_8,3,5,56,103,1553858192
92,16,18,Jits_Linear_8,0,5,63,98,1554458120
92,16,18,Jits_Linear_8,1,1,48,45,1554494724
92,16,18,Jits_Linear_8,2,5,80,127,1554518356
92,16,18,Jits_Linear_8,3,5,56,103,1554537768
92,16,18,Jits_Linear_8,0,5,63,98,1555058112
92,16,18,Jits_Linear_8,1,5,56,103,1555108416
92,16,18,Jits_Linear_8,2,1,48,58,1555115672
92,16,18,Jits_Linear_8,3,5,80,127,1555117264
92,16,18,Jits_Linear_8,0,1,48,53,1555720576
92,16,18,Jits_Linear_8,1,5,56,103,1555727724
92,16,18,Jits_Linear_8,2,5,80,127,1555738216
92,16,18,Jits_Linear_8,3,5,63,98,1555838300
92,16,18,Jits_Linear_8,0,5,80,127,1556327796
92,16,18,Jits_Linear_8,1,5,63,98,1556337992
92,16,18,Jits_Linear_8,2,1,48,47,1556360840
92,16,18,Jits_Linear_8,3,5,56,103,1556487464
92,16,18,Jits_Linear_8,0,5,63,98,1556967836
92,16,18,Jits_Linear_8,1,5,80,127,1557007704
92,16,18,Jits_Linear_8,2,1,48,43,1557073076
92,16,18,Jits_Linear_8,3,5,56,103,1557087568
92,16,18,Jits_Linear_8,0,5,56,103,1557588284
92,16,18,Jits_Linear_8,1,5,80,127,1557687812
92,16,18,Jits_Linear_8,2,5,63,98,1557708196
92,16,18,Jits_Linear_8,3,1,48,53,1557728772
92,16,18,Jits_Linear_8,0,5,80,127,1558277476
92,16,18,Jits_Linear_8,1,5,56,103,1558287820
92,16,18,Jits_Linear_8,2,1,48,61,1558313484
92,16,18,Jits_Linear_8,3,5,63,98,1558378020
92,16,18,Jits_Linear_8,0,5,56,103,1558908128
92,16,18,Jits_Linear_8,1,5,63,98,1558928088
92,16,18,Jits_Linear_8,2,1,48,62,1558947172
92,16,18,Jits_Linear_8,3,5,80,127,1559007656
92,16,18,Jits_Linear_8,0,5,63,98,1559477600
92,16,18,Jits_Linear_8,1,1,48,41,1559536240
92,16,18,Jits_Linear_8,2,5,56,103,1559567652
92,16,18,Jits_Linear_8,3,5,80,127,1559571016
92,16,18,Jits_Linear_8,0,1,48,65,1560124892
92,16,18,Jits_Linear_8,1,5,56,103,1560128000
92,16,18,Jits_Linear_8,2,5,80,127,1560188244
92,16,18,Jits_Linear_8,3,5,63,98,1560197420
92,16,18,Jits_Linear_8,0,1,48,61,1560680544
92,16,18,Jits_Linear_8,1,5,80,127,1560797536
92,16,18,Jits_Linear_8,2,5,56,103,1560807808
92,16,18,Jits_Linear_8,3,5,63,98,1560811020
92,16,18,Jits_Linear_8,0,1,48,57,1561302796
92,16,18,Jits_Linear_8,1,5,56,103,1561378280
92,16,18,Jits_Linear_8,2,5,80,127,1561388256
92,16,18,Jits_Linear_8,3,5,63,98,1561407948
92,16,18,Jits_Linear_8,0,1,48,44,1561958696
92,16,18,Jits_Linear_8,1,5,63,98,1561968084
92,16,18,Jits_Linear_8,2,5,80,127,1562028428
92,16,18,Jits_Linear_8,3,5,56,103,1562077640
92,16,18,Jits_Linear_8,0,1,48,44,1562632508
92,16,18,Jits_Linear_8,1,5,63,98,1562668424
92,16,18,Jits_Linear_8,2,5,56,103,1562677576
92,16,18,Jits_Linear_8,3,5,80,127,1562727776
92,16,18,Jits_Linear_8,0,5,63,98,1563178372
92,16,18,Jits_Linear_8,1,5,80,127,1563197788
92,16,18,Jits_Linear_8,2,5,56,103,1563207984
92,16,18,Jits_Linear_8,3,1,48,50,1563308144
92,16,18,Jits_Linear_8,0,5,63,98,1563787748
92,16,18,Jits_Linear_8,1,5,80,127,1563790964
92,16,18,Jits_Linear_8,2,5,56,103,1563827536
92,16,18,Jits_Linear_8,3,1,48,49,1563882192
92,16,18,Jits_Linear_8,0,1,48,47,1564420208
92,16,18,Jits_Linear_8,1,5,63,98,1564467588
92,16,18,Jits_Linear_8,2,5,80,127,1564498240
92,16,18,Jits_Linear_8,3,5,56,103,1564507612
92,16,18,Jits_Linear_8,0,5,56,103,1565027584
92,16,18,Jits_Linear_8,1,1,48,47,1565051080
92,16,18,Jits_Linear_8,2,5,80,127,1565058324
92,16,18,Jits_Linear_8,3,5,63,98,1565088224
92,16,18,Jits_Linear_8,0,1,48,37,1565635284
92,16,18,Jits_Linear_8,1,5,63,98,1565728140
92,16,18,Jits_Linear_8,2,5,56,103,1565768080
92,16,18,Jits_Linear_8,3,5,80,127,1565771292
92,16,18,Jits_Linear_8,0,5,80,127,1566227832
92,16,18,Jits_Linear_8,1,1,48,46,1566273500
92,16,18,Jits_Linear_8,2,5,56,103,1566307628
92,16,18,Jits_Linear_8,3,5,63,98,1566358000
92,16,18,Jits_Linear_8,0,5,80,127,1566808436
92,16,18,Jits_Linear_8,1,5,56,103,1566827996
92,16,18,Jits_Linear_8,2,1,48,43,1566842424
92,16,18,Jits_Linear_8,3,5,63,98,1566918000
92,16,18,Jits_Linear_8,0,5,80,127,1567448548
92,16,18,Jits_Linear_8,1,5,63,98,1567488488
92,16,18,Jits_Linear_8,2,1,48,39,1567521052
92,16,18,Jits_Linear_8,3,5,56,103,1567528272
92,16,18,Jits_Linear_8,0,5,63,98,1568017840
92,16,18,Jits_Linear_8,1,5,80,127,1568078160
92,16,18,Jits_Linear_8,2,5,56,103,1568107984
92,16,18,Jits_Linear_8,3,1,48,41,1568120764
92,16,18,Jits_Linear_8,0,5,56,103,1568618056
92,16,18,Jits_Linear_8,1,5,80,127,1568647536
92,16,18,Jits_Linear_8,2,1,48,47,1568699948
92,16,18,Jits_Linear_8,3,5,63,98,1568737732
92,16,18,Jits_Linear_8,0,5,56,103,1569218088
92,16,18,Jits_Linear_8,1,1,48,43,1569266020
92,16,18,Jits_Linear_8,2,5,80,127,1569327400
92,16,18,Jits_Linear_8,3,5,63,98,1569358124
92,16,18,Jits_Linear_8,0,5,56,103,1569857964
92,16,18,Jits_Linear_8,1,1,48,42,1569898624
92,16,18,Jits_Linear_8,2,5,63,98,1569918276
92,16,18,Jits_Linear_8,3,5,80,127,1569948100
92,16,18,Jits_Linear_8,0,5,56,103,1570418172
92,16,18,Jits_Linear_8,1,1,48,45,1570485612
92,16,18,Jits_Linear_8,2,5,63,98,1570487652
92,16,18,Jits_Linear_8,3,5,80,127,1570508184
92,16,18,Jits_Linear_8,0,5,80,127,1570978204
92,16,18,Jits_Linear_8,1,5,63,98,1570997840
92,16,18,Jits_Linear_8,2,5,56,103,1571047892
92,16,18,Jits_Linear_8,3,1,48,42,1571051232
92,16,18,Jits_Linear_8,0,5,63,98,1571578208
92,16,18,Jits_Linear_8,1,5,80,127,1571587432
92,16,18,Jits_Linear_8,2,1,48,45,1571598796
92,16,18,Jits_Linear_8,3,5,56,103,1571637480
92,16,18,Jits_Linear_8,0,5,63,98,1572157972
92,16,18,Jits_Linear_8,1,1,48,42,1572197284
92,16,18,Jits_Linear_8,2,5,80,127,1572227524
92,16,18,Jits_Linear_8,3,5,56,103,1572248060
92,16,18,Jits_Linear_8,0,1,48,52,1572755724
92,16,18,Jits_Linear_8,1,5,63,98,1572768104
92,16,18,Jits_Linear_8,2,5,80,127,1572771468
92,16,18,Jits_Linear_8,3,5,56,103,1572837784
92,16,18,Jits_Linear_8,0,5,80,127,1573297524
92,16,18,Jits_Linear_8,1,5,56,103,1573318132
92,16,18,Jits_Linear_8,2,5,63,98,1573328180
92,16,18,Jits_Linear_8,3,1,48,46,1573353168
92,16,18,Jits_Linear_8,0,1,48,51,1573874708
92,16,18,Jits_Linear_8,1,5,56,103,1573897668
92,16,18,Jits_Linear_8,2,5,63,98,1573987788
92,16,18,Jits_Linear_8,3,5,80,127,1573991076
92,16,18,Jits_Linear_8,0,5,80,127,1574447392
92,16,18,Jits_Linear_8,1,1,48,44,1574451484
92,16,18,Jits_Linear_8,2,5,56,103,1574457956
92,16,18,Jits_Linear_8,3,5,63,98,1574478044
92,16,18,Jits_Linear_8,0,1,48,51,1575015512
92,16,18,Jits_Linear_8,1,5,63,98,1575018092
92,16,18,Jits_Linear_8,2,5,80,127,1575078212
92,16,18,Jits_Linear_8,3,5,56,103,1575087360
92,16,18,Jits_Linear_8,0,1,48,49,1575574916
92,16,18,Jits_Linear_8,1,5,63,98,1575657896
92,16,18,Jits_Linear_8,2,5,80,127,1575687480
92,16,18,Jits_Linear_8,3,5,56,103,1575727568
92,16,18,Jits_Linear_8,0,5,56,103,1576217968
92,16,18,Jits_Linear_8,1,5,80,127,1576228164
92,16,18,Jits_Linear_8,2,1,48,51,1576230984
92,16,18,Jits_Linear_8,3,5,63,98,1576268244
92,16,18,Jits_Linear_8,0,5,80,127,1576748300
92,16,18,Jits_Linear_8,1,1,48,47,1576795484
92,16,18,Jits_Linear_8,2,5,56,103,1576828316
92,16,18,Jits_Linear_8,3,5,63,98,1576837488
92,16,18,Jits_Linear_8,0,1,48,43,1577341452
92,16,18,Jits_Linear_8,1,5,80,127,1577357764
92,16,18,Jits_Linear_8,2,5,56,103,1577437564
92,16,18,Jits_Linear_8,3,5,63,98,1577448044
92,16,18,Jits_Linear_8,0,5,80,127,1577877832
92,16,18,Jits_Linear_8,1,5,56,103,1577928036
92,16,18,Jits_Linear_8,2,5,63,98,1577978312
92,16,18,Jits_Linear_8,3,1,48,46,1578003080
92,16,18,Jits_Linear_8,0,5,56,103,1578498376
92,16,18,Jits_Linear_8,1,5,63,98,1578501364
92,16,18,Jits_Linear_8,2,5,80,127,1578547676
92,16,18,Jits_Linear_8,3,1,48,43,1578551324
92,16,18,Jits_Linear_8,0,1,48,54,1579046876
92,16,18,Jits_Linear_8,1,5,56,103,1579078148
92,16,18,Jits_Linear_8,2,5,63,98,1579107824
92,16,18,Jits_Linear_8,3,5,80,127,1579117800
92,16,18,Jits_Linear_8,0,5,63,98,1579547944
92,16,18,Jits_Linear_8,1,1,48,43,1579610324
92,16,18,Jits_Linear_8,2,5,56,103,1579617620
92,16,18,Jits_Linear_8,3,5,80,127,1579667920
92,16,18,Jits_Linear_8,0,1,48,41,1580118840
92,16,18,Jits_Linear_8,1,5,63,98,1580137972
92,16,18,Jits_Linear_8,2,5,56,103,1580148016
92,16,18,Jits_Linear_8,3,5,80,127,1580151156
92,16,18,Jits_Linear_8,0,5,80,127,1580637492
92,16,18,Jits_Linear_8,1,5,56,103,1580698056
92,16,18,Jits_Linear_8,2,1,48,42,1580712116
92,16,18,Jits_Linear_8,3,5,63,98,1580788036
92,16,18,Jits_Linear_8,0,5,80,127,1581187404
92,16,18,Jits_Linear_8,1,1,48,53,1581208132
92,16,18,Jits_Linear_8,2,5,56,103,1581287724
92,16,18,Jits_Linear_8,3,5,63,98,1581327944
92,16,18,Jits_Linear_8,0,1,48,42,1581764296
92,16,18,Jits_Linear_8,1,5,56,103,1581787636
92,16,18,Jits_Linear_8,2,5,63,98,1581807948
92,16,18,Jits_Linear_8,3,5,80,127,1581847884
92,16,18,Jits_Linear_8,0,1,48,42,1582302112
92,16,18,Jits_Linear_8,1,5,63,98,1582307840
92,16,18,Jits_Linear_8,2,5,56,103,1582328076
92,16,18,Jits_Linear_8,3,5,80,127,1582427632
92,16,18,Jits_Linear_8,0,5,63,98,1582838092
92,16,18,Jits_Linear_8,1,1,48,54,1582844352
92,16,18,Jits_Linear_8,2,5,80,127,1582947836
92,16,18,Jits_Linear_8,3,5,56,103,1582978364
92,16,18,Jits_Linear_8,0,1,48,35,1583381116
92,16,18,Jits_Linear_8,1,5,56,103,1583398156
92,16,18,Jits_Linear_8,2,5,63,98,1583427980
92,16,18,Jits_Linear_8,3,5,80,127,1583478240
92,16,18,Jits_Linear_8,0,5,63,98,1583908176
92,16,18,Jits_Linear_8,1,1,48,47,1583917520
92,16,18,Jits_Linear_8,2,5,56,103,1583937772
92,16,18,Jits_Linear_8,3,5,80,127,1583987972
92,16,18,Jits_Linear_8,0,1,48,47,1584472012
92,16,18,Jits_Linear_8,1,5,56,103,1584487784
92,16,18,Jits_Linear_8,2,5,63,98,1584508168
92,16,18,Jits_Linear_8,3,5,80,127,1584588196
92,16,18,Jits_Linear_8,0,1,48,55,1584971316
92,16,18,Jits_Linear_8,1,5,63,98,1584997796
92,16,18,Jits_Linear_8,2,5,56,103,1585058288
92,16,18,Jits_Linear_8,3,5,80,127,1585087876
92,16,18,Jits_Linear_8,0,1,48,45,1585550212
92,16,18,Jits_Linear_8,1,5,56,103,1585578340
92,16,18,Jits_Linear_8,2,5,80,127,1585637832
92,16,18,Jits_Linear_8,3,5,63,98,1585677832
92,16,18,Jits_Linear_8,0,5,63,98,1586088216
92,16,18,Jits_Linear_8,1,1,48,45,1586093280
92,16,18,Jits_Linear_8,2,5,56,103,1586147852
92,16,18,Jits_Linear_8,3,5,80,127,1586218340
92,16,18,Jits_Linear_8,0,1,48,28,1586640452
92,16,18,Jits_Linear_8,1,5,56,103,1586697724
92,16,18,Jits_Linear_8,2,5,63,98,1586707992
92,16,18,Jits_Linear_8,3,5,80,127,1586711208
92,16,18,Jits_Linear_8,0,5,63,98,1587167880
92,16,18,Jits_Linear_8,1,1,48,49,1587215196
92,16,18,Jits_Linear_8,2,5,56,103,1587227968
92,16,18,Jits_Linear_8,3,5,80,127,1587231036
92,16,18,Jits_Linear_8,0,5,63,98,1587677520
92,16,18,Jits_Linear_8,1,5,80,127,1587708168
92,16,18,Jits_Linear_8,2,1,48,41,1587724240
92,16,18,Jits_Linear_8,3,5,56,103,1587727948
92,16,18,Jits_Linear_8,0,5,56,103,1588207836
92,16,18,Jits_Linear_8,1,1,48,45,1588250584
92,16,18,Jits_Linear_8,2,5,63,98,1588258184
92,16,18,Jits_Linear_8,3,5,80,127,1588337976
92,16,18,Jits_Linear_8,0,5,80,127,1588707608
92,16,18,Jits_Linear_8,1,1,48,42,1588727660
92,16,18,Jits_Linear_8,2,5,63,98,1588747616
92,16,18,Jits_Linear_8,3,5,56,103,1588768148
92,16,18,Jits_Linear_8,0,1,48,62,1589270720
92,16,18,Jits_Linear_8,1,5,56,103,1589297720
92,16,18,Jits_Linear_8,2,5,80,127,1589307916
92,16,18,Jits_Linear_8,3,5,63,98,1589328228
92,16,18,Jits_Linear_8,0,1,48,44,1589734276
92,16,18,Jits_Linear_8,1,5,56,103,1589798224
92,16,18,Jits_Linear_8,2,5,63,98,1589848560
92,16,18,Jits_Linear_8,3,5,80,127,1589878160
92,16,18,Jits_Linear_8,0,5,56,103,1590268244
92,16,18,Jits_Linear_8,1,1,48,50,1590274132
92,16,18,Jits_Linear_8,2,5,63,98,1590277756
92,16,18,Jits_Linear_8,3,5,80,127,1590327808
92,16,18,Jits_Linear_8,0,5,56,103,1590778188
92,16,18,Jits_Linear_8,1,5,80,127,1590781480
92,16,18,Jits_Linear_8,2,1,48,44,1590798696
92,16,18,Jits_Linear_8,3,5,63,98,1590937924
92,16,18,Jits_Linear_8,0,1,48,48,1591287732
92,16,18,Jits_Linear_8,1,5,63,98,1591307616
92,16,18,Jits_Linear_8,2,5,56,103,1591378272
92,16,18,Jits_Linear_8,3,5,80,127,1591418340
92,16,18,Jits_Linear_8,0,1,48,48,1591787040
92,16,18,Jits_Linear_8,1,5,63,98,1591857792
92,16,18,Jits_Linear_8,2,5,56,103,1591947640
92,16,18,Jits_Linear_8,3,5,80,127,1591950780
92,16,18,Jits_Linear_8,0,1,48,27,1592330168
92,16,18,Jits_Linear_8,1,5,56,103,1592347880
92,16,18,Jits_Linear_8,2,5,63,98,1592438076
92,16,18,Jits_Linear_8,3,5,80,127,1592448668
92,16,18,Jits_Linear_8,0,5,56,103,1592828164
92,16,18,Jits_Linear_8,1,1,48,51,1592867696
92,16,18,Jits_Linear_8,2,5,63,98,1592877612
92,16,18,Jits_Linear_8,3,5,80,127,1592908036
92,16,18,Jits_Linear_8,0,1,48,43,1593378852
92,16,18,Jits_Linear_8,1,5,63,98,1593407944
92,16,18,Jits_Linear_8,2,5,80,127,1593418140
92,16,18,Jits_Linear_8,3,5,56,103,1593478168
92,16,18,Jits_Linear_8,0,5,63,98,1593827840
92,16,18,Jits_Linear_8,1,5,80,127,1593888008
92,16,18,Jits_Linear_8,2,1,48,49,1593903412
92,16,18,Jits_Linear_8,3,5,56,103,1593927940
92,16,18,Jits_Linear_8,0,1,48,43,1594424728
92,16,18,Jits_Linear_8,1,5,56,103,1594427760
92,16,18,Jits_Linear_8,2,5,80,127,1594448224
92,16,18,Jits_Linear_8,3,5,63,98,1594467712
92,16,18,Jits_Linear_8,0,5,63,98,1594847736
92,16,18,Jits_Linear_8,1,5,56,103,1594867972
92,16,18,Jits_Linear_8,2,5,80,127,1594907912
92,16,18,Jits_Linear_8,3,1,48,35,1594949240
92,16,18,Jits_Linear_8,0,5,63,98,1595357828
92,16,18,Jits_Linear_8,1,5,80,127,1595388176
92,16,18,Jits_Linear_8,2,1,48,43,1595393984
92,16,18,Jits_Linear_8,3,5,56,103,1595407732
92,16,18,Jits_Linear_8,0,5,80,127,1595827612
92,16,18,Jits_Linear_8,1,1,48,47,1595877288
92,16,18,Jits_Linear_8,2,5,56,103,1595878856
92,16,18,Jits_Linear_8,3,5,63,98,1595938124
92,16,18,Jits_Linear_8,0,5,63,98,1596307972
92,16,18,Jits_Linear_8,1,1,48,45,1596331616
92,16,18,Jits_Linear_8,2,5,56,103,1596427756
92,16,18,Jits_Linear_8,3,5,80,127,1596458404
92,16,18,Jits_Linear_8,0,1,48,46,1596800948
92,16,18,Jits_Linear_8,1,5,80,127,1596838144
92,16,18,Jits_Linear_8,2,5,63,98,1596857856
92,16,18,Jits_Linear_8,3,5,56,103,1596928420
92,16,18,Jits_Linear_8,0,1,48,50,1597305688
92,16,18,Jits_Linear_8,1,5,63,98,1597348088
92,16,18,Jits_Linear_8,2,5,56,103,1597357684
92,16,18,Jits_Linear_8,3,5,80,127,1597438584
92,16,18,Jits_Linear_8,0,1,48,51,1597834172
92,16,18,Jits_Linear_8,1,5,56,103,1597897968
92,16,18,Jits_Linear_8,2,5,80,127,1597927928
92,16,18,Jits_Linear_8,3,5,63,98,1597938052
92,16,18,Jits_Linear_8,0,9999,9999,9999,1487526008
92,16,18,Jits_Linear_8,1,9999,9999,9999,1488345172
92,16,18,Jits_Linear_8,2,9999,9999,9999,1489165396
92,16,18,Jits_Linear_8,3,9999,9999,9999,1489985664
92,16,18,Jits_Linear_8,4,9999,9999,9999,1490805860
92,16,18,Jits_Linear_8,5,9999,9999,9999,1491615832
92,16,18,Jits_Linear_8,6,9999,9999,9999,1492425844
92,16,18,Jits_Linear_8,7,9999,9999,9999,1493235788
92,16,18,Jits_Linear_8,8,9999,9999,9999,1494045812
92,16,18,Jits_Linear_8,9,9999,9999,9999,1494855740
92,16,18,Jits_Linear_8,10,9999,9999,9999,1495655516
92,16,18,Jits_Linear_8,11,9999,9999,9999,1496455296
92,16,18,Jits_Linear_8,12,9999,9999,9999,1497256028
92,16,18,Jits_Linear_8,13,9999,9999,9999,1498055776
92,16,18,Jits_Linear_8,14,9999,9999,9999,1498855520
92,16,18,Jits_Linear_8,15,9999,9999,9999,1499646048
92,16,18,Jits_Linear_8,16,9999,9999,9999,1500435524
92,16,18,Jits_Linear_8,17,9999,9999,9999,1501226068
92,16,18,Jits_Linear_8,18,9999,9999,9999,1502015564
92,16,18,Jits_Linear_8,19,9999,9999,9999,1502806104
92,16,18,Jits_Linear_8,20,9999,9999,9999,1503595596
92,16,18,Jits_Linear_8,21,9999,9999,9999,1504375868
92,16,18,Jits_Linear_8,22,9999,9999,9999,1505155180
92,16,18,Jits_Linear_8,23,9999,9999,9999,1505935476
92,16,18,Jits_Linear_8,24,9999,9999,9999,1506715748
92,16,18,Jits_Linear_8,25,9999,9999,9999,1507485760
92,16,18,Jits_Linear_8,26,9999,9999,9999,1508255864
92,16,18,Jits_Linear_8,27,9999,9999,9999,1509025880
92,16,18,Jits_Linear_8,28,9999,9999,9999,1509795900
92,16,18,Jits_Linear_8,29,9999,9999,9999,1510566012
92,16,18,Jits_Linear_8,30,9999,9999,9999,1511325756
92,16,18,Jits_Linear_8,31,9999,9999,9999,1512085576
92,16,18,Jits_Linear_8,32,9999,9999,9999,1512845412
92,16,18,Jits_Linear_8,33,9999,9999,9999,1513605240
92,16,18,Jits_Linear_8,34,9999,9999,9999,1514366024
92,16,18,Jits_Linear_8,35,9999,9999,9999,1515115588
92,16,18,Jits_Linear_8,36,9999,9999,9999,1515865156
92,16,18,Jits_Linear_8,37,9999,9999,9999,1516615764
92,16,18,Jits_Linear_8,38,9999,9999,9999,1517365320
92,16,18,Jits_Linear_8,39,9999,9999,9999,1518115944
92,16,18,Jits_Linear_8,40,9999,9999,9999,1518855240
92,16,18,Jits_Linear_8,41,9999,9999,9999,1519595584
92,16,18,Jits_Linear_8,42,9999,9999,9999,1520335924
92,16,18,Jits_Linear_8,43,9999,9999,9999,1521075300
92,16,18,Jits_Linear_8,44,9999,9999,9999,1521815624
92,16,18,Jits_Linear_8,45,9999,9999,9999,1522545756
92,16,18,Jits_Linear_8,46,9999,9999,9999,1523275836
92,16,18,Jits_Linear_8,47,9999,9999,9999,1524005984
92,16,18,Jits_Linear_8,48,9999,9999,9999,1524736064
92,16,18,Jits_Linear_8,49,9999,9999,9999,1525475428
92,16,18,Jits_Linear_8,50,9999,9999,9999,1526195316
92,16,18,Jits_Linear_8,51,9999,9999,9999,1526915128
92,16,18,Jits_Linear_8,52,9999,9999,9999,1527636040
92,16,18,Jits_Linear_8,53,9999,9999,9999,1528355936
92,16,18,Jits_Linear_8,54,9999,9999,9999,1529075824
92,16,18,Jits_Linear_8,55,9999,9999,9999,1529785468
92,16,18,Jits_Linear_8,56,9999,9999,9999,1530496116
92,16,18,Jits_Linear_8,57,9999,9999,9999,1531215940
92,16,18,Jits_Linear_8,58,9999,9999,9999,1531925584
92,16,18,Jits_Linear_8,59,9999,9999,9999,1532635212
92,16,18,Jits_Linear_8,60,9999,9999,9999,1533335620
92,16,18,Jits_Linear_8,61,9999,9999,9999,1534036024
92,16,18,Jits_Linear_8,62,9999,9999,9999,1534735476
92,16,18,Jits_Linear_8,63,9999,9999,9999,1535435876
92,16,18,Jits_Linear_8,64,9999,9999,9999,1536135264
92,16,18,Jits_Linear_8,65,9999,9999,9999,1536825468
92,16,18,Jits_Linear_8,66,9999,9999,9999,1537515624
92,16,18,Jits_Linear_8,67,9999,9999,9999,1538205772
92,16,18,Jits_Linear_8,68,9999,9999,9999,1538895956
92,16,18,Jits_Linear_8,69,9999,9999,9999,1539585148
92,16,18,Jits_Linear_8,70,9999,9999,9999,1540266088
92,16,18,Jits_Linear_8,71,9999,9999,9999,1540946032
92,16,18,Jits_Linear_8,72,9999,9999,9999,1541625912
92,16,18,Jits_Linear_8,73,9999,9999,9999,1542305884
92,16,18,Jits_Linear_8,74,9999,9999,9999,1542985828
92,16,18,Jits_Linear_8,75,9999,9999,9999,1543655524
92,16,18,Jits_Linear_8,76,9999,9999,9999,1544325216
92,16,18,Jits_Linear_8,77,9999,9999,9999,1544995952
92,16,18,Jits_Linear_8,78,9999,9999,9999,1545665640
92,16,18,Jits_Linear_8,79,9999,9999,9999,1546335324
92,16,18,Jits_Linear_8,80,9999,9999,9999,1546995808
92,16,18,Jits_Linear_8,81,9999,9999,9999,1547655236
92,16,18,Jits_Linear_8,82,9999,9999,9999,1548315764
92,16,18,Jits_Linear_8,83,9999,9999,9999,1548975192
92,16,18,Jits_Linear_8,84,9999,9999,9999,1549635656
92,16,18,Jits_Linear_8,85,9999,9999,9999,1550285888
92,16,18,Jits_Linear_8,86,9999,9999,9999,1550935108
92,16,18,Jits_Linear_8,87,9999,9999,9999,1551585396
92,16,18,Jits_Linear_8,88,9999,9999,9999,1552235580
92,16,18,Jits_Linear_8,89,9999,9999,9999,1552885884
92,16,18,Jits_Linear_8,90,9999,9999,9999,1553525820
92,16,18,Jits_Linear_8,91,9999,9999,9999,1554165840
92,16,18,Jits_Linear_8,92,9999,9999,9999,1554805856
92,16,18,Jits_Linear_8,93,9999,9999,9999,1555445880
92,16,18,Jits_Linear_8,94,9999,9999,9999,1556085880
92,16,18,Jits_Linear_8,95,9999,9999,9999,1556715644
92,16,18,Jits_Linear_8,96,9999,9999,9999,1557345396
92,16,18,Jits_Linear_8,97,9999,9999,9999,1557975156
92,16,18,Jits_Linear_8,98,9999,9999,9999,1558605884
92,16,18,Jits_Linear_8,99,9999,9999,9999,1559235668
92,16,18,Jits_Linear_8,100,9999,9999,9999,1559855224
92,16,18,Jits_Linear_8,101,9999,9999,9999,1560475772
92,16,18,Jits_Linear_8,102,9999,9999,9999,1561095240
92,16,18,Jits_Linear_8,103,9999,9999,9999,1561715836
92,16,18,Jits_Linear_8,104,9999,9999,9999,1562335336
92,16,18,Jits_Linear_8,105,9999,9999,9999,1562945600
92,16,18,Jits_Linear_8,106,9999,9999,9999,1563555948
92,16,18,Jits_Linear_8,107,9999,9999,9999,1564165216
92,16,18,Jits_Linear_8,108,9999,9999,9999,1564775476
92,16,18,Jits_Linear_8,109,9999,9999,9999,1565385832
92,16,18,Jits_Linear_8,110,9999,9999,9999,1565985920
92,16,18,Jits_Linear_8,111,9999,9999,9999,1566585916
92,16,18,Jits_Linear_8,112,9999,9999,9999,1567186016
92,16,18,Jits_Linear_8,113,9999,9999,9999,1567786100
92,16,18,Jits_Linear_8,114,9999,9999,9999,1568385084
92,16,18,Jits_Linear_8,115,9999,9999,9999,1568975936
92,16,18,Jits_Linear_8,116,9999,9999,9999,1569565760
92,16,18,Jits_Linear_8,117,9999,9999,9999,1570155640
92,16,18,Jits_Linear_8,118,9999,9999,9999,1570745412
92,16,18,Jits_Linear_8,119,9999,9999,9999,1571335228
92,16,18,Jits_Linear_8,120,9999,9999,9999,1571915832
92,16,18,Jits_Linear_8,121,9999,9999,9999,1572495476
92,16,18,Jits_Linear_8,122,9999,9999,9999,1573076060
92,16,18,Jits_Linear_8,123,9999,9999,9999,1573655672
92,16,18,Jits_Linear_8,124,9999,9999,9999,1574235220
92,16,18,Jits_Linear_8,125,9999,9999,9999,1574805564
92,16,18,Jits_Linear_8,126,9999,9999,9999,1575375976
92,16,18,Jits_Linear_8,127,9999,9999,9999,1575945332
92,16,18,Jits_Linear_8,128,9999,9999,9999,1576515660
92,16,18,Jits_Linear_8,129,9999,9999,9999,1577086076
92,16,18,Jits_Linear_8,130,9999,9999,9999,1577645136
92,16,18,Jits_Linear_8,131,9999,9999,9999,1578205272
92,16,18,Jits_Linear_8,132,9999,9999,9999,1578765420
92,16,18,Jits_Linear_8,133,9999,9999,9999,1579325508
92,16,18,Jits_Linear_8,134,9999,9999,9999,1579885648
92,16,18,Jits_Linear_8,135,9999,9999,9999,1580435536
92,16,18,Jits_Linear_8,136,9999,9999,9999,1580985408
92,16,18,Jits_Linear_8,137,9999,9999,9999,1581535300
92,16,18,Jits_Linear_8,138,9999,9999,9999,1582085188
92,16,18,Jits_Linear_8,139,9999,9999,9999,1582635064
92,16,18,Jits_Linear_8,140,9999,9999,9999,1583175800
92,16,18,Jits_Linear_8,141,9999,9999,9999,1583715408
92,16,18,Jits_Linear_8,142,9999,9999,9999,1584256088
92,16,18,Jits_Linear_8,143,9999,9999,9999,1584805960
92,16,18,Jits_Linear_8,144,9999,9999,9999,1585345644
92,16,18,Jits_Linear_8,145,9999,9999,9999,1585876044
92,16,18,Jits_Linear_8,146,9999,9999,9999,1586405468
92,16,18,Jits_Linear_8,147,9999,9999,9999,1586935932
92,16,18,Jits_Linear_8,148,9999,9999,9999,1587465272
92,16,18,Jits_Linear_8,149,9999,9999,9999,1587995740
92,16,18,Jits_Linear_8,150,9999,9999,9999,1588515948
92,16,18,Jits_Linear_8,151,9999,9999,9999,1589035120
92,16,18,Jits_Linear_8,152,9999,9999,9999,1589555268
92,16,18,Jits_Linear_8,153,9999,9999,9999,1590075476
92,16,18,Jits_Linear_8,154,9999,9999,9999,1590595676
92,16,18,Jits_Linear_8,155,9999,9999,9999,1591105624
92,16,18,Jits_Linear_8,156,9999,9999,9999,1591615584
92,16,18,Jits_Linear_8,157,9999,9999,9999,1592125524
92,16,18,Jits_Linear_8,158,9999,9999,9999,1592635476
92,16,18,Jits_Linear_8,159,9999,9999,9999,1593145416
92,16,18,Jits_Linear_8,160,9999,9999,9999,1593645116
92,16,18,Jits_Linear_8,161,9999,9999,9999,1594145916
92,16,18,Jits_Linear_8,162,9999,9999,9999,1594645608
92,16,18,Jits_Linear_8,163,9999,9999,9999,1595145284
92,16,18,Jits_Linear_8,164,9999,9999,9999,1595646008
92,16,18,Jits_Linear_8,165,9999,9999,9999,1596135500
92,16,18,Jits_Linear_8,166,9999,9999,9999,1596625980
92,16,18,Jits_Linear_8,167,9999,9999,9999,1597115472
92,16,18,Jits_Linear_8,168,9999,9999,9999,1597606008
92,16,18,Jits_Linear_8,169,9999,9999,9999,1598095436
92,17,19,Jits_Linear_5,0,5,56,103,1606901168
92,17,19,Jits_Linear_5,1,5,63,98,1606904420
92,17,19,Jits_Linear_5,2,5,80,127,1606907536
92,17,19,Jits_Linear_5,0,5,56,103,1607381404
92,17,19,Jits_Linear_5,1,5,63,98,1607384428
92,17,19,Jits_Linear_5,2,5,80,127,1607387628
92,17,19,Jits_Linear_5,0,1,48,35,1607828052
92,17,19,Jits_Linear_5,1,5,56,103,1607860608
92,17,19,Jits_Linear_5,2,5,80,127,1607870952
92,17,19,Jits_Linear_5,3,5,63,98,1607891264
92,17,19,Jits_Linear_5,0,5,63,98,1608290672
92,17,19,Jits_Linear_5,1,5,80,127,1608321496
92,17,19,Jits_Linear_5,2,5,56,103,1608330568
92,17,19,Jits_Linear_5,3,1,48,39,1608356308
92,17,19,Jits_Linear_5,0,1,48,45,1608830512
92,17,19,Jits_Linear_5,1,5,80,127,1608832232
92,17,19,Jits_Linear_5,2,5,56,103,1608840632
92,17,19,Jits_Linear_5,3,5,63,98,1608871280
92,17,19,Jits_Linear_5,0,5,63,98,1609310628
92,17,19,Jits_Linear_5,1,1,48,55,1609311964
92,17,19,Jits_Linear_5,2,5,56,103,1609341568
92,17,19,Jits_Linear_5,3,5,80,127,1609350524
92,17,19,Jits_Linear_5,0,5,56,103,1609750908
92,17,19,Jits_Linear_5,1,1,48,57,1609783548
92,17,19,Jits_Linear_5,2,5,63,98,1609801032
92,17,19,Jits_Linear_5,3,5,80,127,1609820520
92,17,19,Jits_Linear_5,0,1,48,50,1610240344
92,17,19,Jits_Linear_5,1,5,80,127,1610241908
92,17,19,Jits_Linear_5,2,5,63,98,1610290472
92,17,19,Jits_Linear_5,3,5,56,103,1610330708
92,17,19,Jits_Linear_5,0,5,56,103,1610730964
92,17,19,Jits_Linear_5,1,5,63,98,1610760640
92,17,19,Jits_Linear_5,2,1,48,55,1610779728
92,17,19,Jits_Linear_5,3,5,80,127,1610831360
92,17,19,Jits_Linear_5,0,5,56,103,1611221524
92,17,19,Jits_Linear_5,1,1,48,50,1611278748
92,17,19,Jits_Linear_5,2,5,80,127,1611280716
92,17,19,Jits_Linear_5,3,5,63,98,1611310392
92,17,19,Jits_Linear_5,0,5,56,103,1611721304
92,17,19,Jits_Linear_5,1,1,48,55,1611724720
92,17,19,Jits_Linear_5,2,5,63,98,1611731716
92,17,19,Jits_Linear_5,3,5,80,127,1611771432
92,17,19,Jits_Linear_5,0,1,48,58,1612194072
92,17,19,Jits_Linear_5,1,5,63,98,1612210512
92,17,19,Jits_Linear_5,2,5,80,127,1612290448
92,17,19,Jits_Linear_5,3,5,56,103,1612300568
92,17,19,Jits_Linear_5,0,1,48,54,1612724556
92,17,19,Jits_Linear_5,1,5,63,98,1612760548
92,17,19,Jits_Linear_5,2,5,56,103,1612801684
92,17,19,Jits_Linear_5,3,5,80,127,1612804600
92,17,19,Jits_Linear_5,0,5,56,103,1613221352
92,17,19,Jits_Linear_5,1,5,63,98,1613230576
92,17,19,Jits_Linear_5,2,1,48,61,1613261640
92,17,19,Jits_Linear_5,3,5,80,127,1613271404
92,17,19,Jits_Linear_5,0,5,56,103,1613710556
92,17,19,Jits_Linear_5,1,5,63,98,1613713780
92,17,19,Jits_Linear_5,2,1,48,59,1613723268
92,17,19,Jits_Linear_5,3,5,80,127,1613731388
92,17,19,Jits_Linear_5,0,1,48,62,1614224224
92,17,19,Jits_Linear_5,1,5,80,127,1614230848
92,17,19,Jits_Linear_5,2,5,56,103,1614241564
92,17,19,Jits_Linear_5,3,5,63,98,1614310876
92,17,19,Jits_Linear_5,0,5,63,98,1614730616
92,17,19,Jits_Linear_5,1,1,48,60,1614735680
92,17,19,Jits_Linear_5,2,5,56,103,1614751144
92,17,19,Jits_Linear_5,3,5,80,127,1614830940
92,17,19,Jits_Linear_5,0,1,48,57,1615204696
92,17,19,Jits_Linear_5,1,5,56,103,1615250752
92,17,19,Jits_Linear_5,2,5,80,127,1615290692
92,17,19,Jits_Linear_5,3,5,63,98,1615301100
92,17,19,Jits_Linear_5,0,1,48,49,1615748932
92,17,19,Jits_Linear_5,1,5,80,127,1615750368
92,17,19,Jits_Linear_5,2,5,63,98,1615781312
92,17,19,Jits_Linear_5,3,5,56,103,1615821256
92,17,19,Jits_Linear_5,0,1,48,61,1616258428
92,17,19,Jits_Linear_5,1,5,56,103,1616280848
92,17,19,Jits_Linear_5,2,5,63,98,1616310524
92,17,19,Jits_Linear_5,3,5,80,127,1616360788
92,17,19,Jits_Linear_5,0,1,48,52,1616765568
92,17,19,Jits_Linear_5,1,5,80,127,1616791248
92,17,19,Jits_Linear_5,2,5,56,103,1616831040
92,17,19,Jits_Linear_5,3,5,63,98,1616841160
92,17,19,Jits_Linear_5,0,1,48,45,1617277536
92,17,19,Jits_Linear_5,1,5,80,127,1617290560
92,17,19,Jits_Linear_5,2,5,63,98,1617330580
92,17,19,Jits_Linear_5,3,5,56,103,1617390956
92,17,19,Jits_Linear_5,0,1,48,45,1617790748
92,17,19,Jits_Linear_5,1,5,56,103,1617810928
92,17,19,Jits_Linear_5,2,5,80,127,1617821124
92,17,19,Jits_Linear_5,3,5,63,98,1617901128
92,17,19,Jits_Linear_5,0,1,48,49,1618310668
92,17,19,Jits_Linear_5,1,5,80,127,1618331072
92,17,19,Jits_Linear_5,2,5,63,98,1618391392
92,17,19,Jits_Linear_5,3,5,56,103,1618421348
92,17,19,Jits_Linear_5,0,5,56,103,1618851144
92,17,19,Jits_Linear_5,1,1,48,48,1618863704
92,17,19,Jits_Linear_5,2,5,80,127,1618910556
92,17,19,Jits_Linear_5,3,5,63,98,1618950500
92,17,19,Jits_Linear_5,0,1,48,52,1619371272
92,17,19,Jits_Linear_5,1,5,56,103,1619430860
92,17,19,Jits_Linear_5,2,5,63,98,1619441360
92,17,19,Jits_Linear_5,3,5,80,127,1619444568
92,17,19,Jits_Linear_5,0,5,80,127,1619911140
92,17,19,Jits_Linear_5,1,1,48,53,1619918448
92,17,19,Jits_Linear_5,2,5,63,98,1620001424
92,17,19,Jits_Linear_5,3,5,56,103,1620011248
92,17,19,Jits_Linear_5,0,5,56,103,1620440352
92,17,19,Jits_Linear_5,1,5,63,98,1620443448
92,17,19,Jits_Linear_5,2,5,80,127,1620446648
92,17,19,Jits_Linear_5,3,1,48,53,1620460796
92,17,19,Jits_Linear_5,0,1,48,52,1620920308
92,17,19,Jits_Linear_5,1,5,80,127,1620991512
92,17,19,Jits_Linear_5,2,5,63,98,1621040432
92,17,19,Jits_Linear_5,3,5,56,103,1621071152
92,17,19,Jits_Linear_5,0,1,48,53,1621453112
92,17,19,Jits_Linear_5,1,5,56,103,1621501392
92,17,19,Jits_Linear_5,2,5,80,127,1621510468
92,17,19,Jits_Linear_5,3,5,63,98,1621581328
92,17,19,Jits_Linear_5,0,1,48,57,1622019712
92,17,19,Jits_Linear_5,1,5,56,103,1622041084
92,17,19,Jits_Linear_5,2,5,63,98,1622061396
92,17,19,Jits_Linear_5,3,5,80,127,1622120800
92,17,19,Jits_Linear_5,0,1,48,53,1622524776
92,17,19,Jits_Linear_5,1,5,80,127,1622571560
92,17,19,Jits_Linear_5,2,5,63,98,1622641156
92,17,19,Jits_Linear_5,3,5,56,103,1622660372
92,17,19,Jits_Linear_5,0,1,48,57,1623054812
92,17,19,Jits_Linear_5,1,5,80,127,1623130444
92,17,19,Jits_Linear_5,2,5,56,103,1623140640
92,17,19,Jits_Linear_5,3,5,63,98,1623150912
92,17,19,Jits_Linear_5,0,1,48,52,1623542504
92,17,19,Jits_Linear_5,1,5,80,127,1623660828
92,17,19,Jits_Linear_5,2,5,56,103,1623681312
92,17,19,Jits_Linear_5,3,5,63,98,1623751220
92,17,19,Jits_Linear_5,0,1,48,54,1624122816
92,17,19,Jits_Linear_5,1,5,56,103,1624210752
92,17,19,Jits_Linear_5,2,5,80,127,1624240488
92,17,19,Jits_Linear_5,3,5,63,98,1624261248
92,17,19,Jits_Linear_5,0,1,48,59,1624661016
92,17,19,Jits_Linear_5,1,5,63,98,1624750376
92,17,19,Jits_Linear_5,2,5,56,103,1624810828
92,17,19,Jits_Linear_5,3,5,80,127,1624840504
92,17,19,Jits_Linear_5,0,1,48,42,1625243816
92,17,19,Jits_Linear_5,1,5,63,98,1625291268
92,17,19,Jits_Linear_5,2,5,80,127,1625294408
92,17,19,Jits_Linear_5,3,5,56,103,1625381388
92,17,19,Jits_Linear_5,0,1,48,51,1625777428
92,17,19,Jits_Linear_5,1,5,56,103,1625860404
92,17,19,Jits_Linear_5,2,5,63,98,1625891264
92,17,19,Jits_Linear_5,3,5,80,127,1625931276
92,17,19,Jits_Linear_5,0,5,63,98,1626411420
92,17,19,Jits_Linear_5,1,1,48,52,1626412388
92,17,19,Jits_Linear_5,2,5,56,103,1626451428
92,17,19,Jits_Linear_5,3,5,80,127,1626470692
92,17,19,Jits_Linear_5,0,5,63,98,1626970452
92,17,19,Jits_Linear_5,1,5,56,103,1627010344
92,17,19,Jits_Linear_5,2,1,48,45,1627016752
92,17,19,Jits_Linear_5,3,5,80,127,1627020532
92,17,19,Jits_Linear_5,0,5,80,127,1627501148
92,17,19,Jits_Linear_5,1,5,63,98,1627570488
92,17,19,Jits_Linear_5,2,5,56,103,1627591168
92,17,19,Jits_Linear_5,3,1,48,52,1627602456
92,17,19,Jits_Linear_5,0,5,56,103,1628061188
92,17,19,Jits_Linear_5,1,5,80,127,1628080456
92,17,19,Jits_Linear_5,2,5,63,98,1628120468
92,17,19,Jits_Linear_5,3,1,48,36,1628148004
92,17,19,Jits_Linear_5,0,5,63,98,1628631316
92,17,19,Jits_Linear_5,1,5,80,127,1628650808
92,17,19,Jits_Linear_5,2,1,48,43,1628685088
92,17,19,Jits_Linear_5,3,5,56,103,1628690888
92,17,19,Jits_Linear_5,0,5,63,98,1629190416
92,17,19,Jits_Linear_5,1,5,56,103,1629211176
92,17,19,Jits_Linear_5,2,5,80,127,1629221220
92,17,19,Jits_Linear_5,3,1,48,32,1629232360
92,17,19,Jits_Linear_5,0,5,80,127,1629750708
92,17,19,Jits_Linear_5,1,1,48,51,1629760804
92,17,19,Jits_Linear_5,2,5,56,103,1629771312
92,17,19,Jits_Linear_5,3,5,63,98,1629800916
92,17,19,Jits_Linear_5,0,1,48,40,1630299156
92,17,19,Jits_Linear_5,1,5,56,103,1630390680
92,17,19,Jits_Linear_5,2,5,80,127,1630393596
92,17,19,Jits_Linear_5,3,5,63,98,1630411124
92,17,19,Jits_Linear_5,0,5,63,98,1630881376
92,17,19,Jits_Linear_5,1,1,48,43,1630897600
92,17,19,Jits_Linear_5,2,5,56,103,1630911044
92,17,19,Jits_Linear_5,3,5,80,127,1630971140
92,17,19,Jits_Linear_5,0,1,48,33,1631486068
92,17,19,Jits_Linear_5,1,5,63,98,1631531352
92,17,19,Jits_Linear_5,2,5,56,103,1631540652
92,17,19,Jits_Linear_5,3,5,80,127,1631551072
92,17,19,Jits_Linear_5,0,5,56,103,1632050532
92,17,19,Jits_Linear_5,1,1,48,38,1632054700
92,17,19,Jits_Linear_5,2,5,80,127,1632081400
92,17,19,Jits_Linear_5,3,5,63,98,1632090472
92,17,19,Jits_Linear_5,0,1,48,39,1632613512
92,17,19,Jits_Linear_5,1,5,63,98,1632660916
92,17,19,Jits_Linear_5,2,5,56,103,1632671036
92,17,19,Jits_Linear_5,3,5,80,127,1632690596
92,17,19,Jits_Linear_5,4,1,48,17,1632701500
92,17,19,Jits_Linear_5,0,5,56,103,1633160660
92,17,19,Jits_Linear_5,1,5,63,98,1633220980
92,17,19,Jits_Linear_5,2,5,80,127,1633224268
92,17,19,Jits_Linear_5,3,1,48,40,1633234732
92,17,19,Jits_Linear_5,4,1,48,15,1633340948
92,17,19,Jits_Linear_5,0,1,48,47,1633727564
92,17,19,Jits_Linear_5,1,5,80,127,1633760568
92,17,19,Jits_Linear_5,2,5,56,103,1633771136
92,17,19,Jits_Linear_5,3,5,63,98,1633840580
92,17,19,Jits_Linear_5,0,1,48,57,1634283824
92,17,19,Jits_Linear_5,1,5,80,127,1634331204
92,17,19,Jits_Linear_5,2,5,56,103,1634400576
92,17,19,Jits_Linear_5,3,5,63,98,1634410996
92,17,19,Jits_Linear_5,0,1,48,36,1634882112
92,17,19,Jits_Linear_5,1,5,63,98,1634950572
92,17,19,Jits_Linear_5,2,5,56,103,1634960992
92,17,19,Jits_Linear_5,3,5,80,127,1634981212
92,17,19,Jits_Linear_5,0,1,48,43,1635467528
92,17,19,Jits_Linear_5,1,5,80,127,1635481048
92,17,19,Jits_Linear_5,2,5,63,98,1635541220
92,17,19,Jits_Linear_5,3,5,56,103,1635581220
92,17,19,Jits_Linear_5,0,1,48,41,1636085300
92,17,19,Jits_Linear_5,1,5,56,103,1636110732
92,17,19,Jits_Linear_5,2,5,63,98,1636121076
92,17,19,Jits_Linear_5,3,5,80,127,1636161088
92,17,19,Jits_Linear_5,0,5,56,103,1636660548
92,17,19,Jits_Linear_5,1,1,48,48,1636667560
92,17,19,Jits_Linear_5,2,5,80,127,1636691268
92,17,19,Jits_Linear_5,3,5,63,98,1636740372
92,17,19,Jits_Linear_5,0,1,48,53,1637233632
92,17,19,Jits_Linear_5,1,5,56,103,1637291380
92,17,19,Jits_Linear_5,2,5,63,98,1637331380
92,17,19,Jits_Linear_5,3,5,80,127,1637334668
92,17,19,Jits_Linear_5,0,1,48,48,1637837624
92,17,19,Jits_Linear_5,1,5,56,103,1637881192
92,17,19,Jits_Linear_5,2,5,63,98,1637890416
92,17,19,Jits_Linear_5,3,5,80,127,1637910876
92,17,19,Jits_Linear_5,0,1,48,48,1638427896
92,17,19,Jits_Linear_5,1,5,56,103,1638431072
92,17,19,Jits_Linear_5,2,5,80,127,1638434068
92,17,19,Jits_Linear_5,3,5,63,98,1638471164
92,17,19,Jits_Linear_5,0,1,48,54,1638988472
92,17,19,Jits_Linear_5,1,5,63,98,1639060912
92,17,19,Jits_Linear_5,2,5,56,103,1639090428
92,17,19,Jits_Linear_5,3,5,80,127,1639111108
92,17,19,Jits_Linear_5,0,1,48,57,1639560644
92,17,19,Jits_Linear_5,1,5,80,127,1639631100
92,17,19,Jits_Linear_5,2,5,56,103,1639640472
92,17,19,Jits_Linear_5,3,5,63,98,1639651040
92,17,19,Jits_Linear_5,0,1,48,40,1640153524
92,17,19,Jits_Linear_5,1,5,56,103,1640231320
92,17,19,Jits_Linear_5,2,5,80,127,1640271248
92,17,19,Jits_Linear_5,3,5,63,98,1640300848
92,17,19,Jits_Linear_5,0,1,48,56,1640775616
92,17,19,Jits_Linear_5,1,5,63,98,1640840636
92,17,19,Jits_Linear_5,2,5,80,127,1640850908
92,17,19,Jits_Linear_5,3,5,56,103,1640861028
92,17,19,Jits_Linear_5,0,1,48,52,1641397220
92,17,19,Jits_Linear_5,1,5,56,103,1641421232
92,17,19,Jits_Linear_5,2,5,63,98,1641490992
92,17,19,Jits_Linear_5,3,5,80,127,1641500952
92,17,19,Jits_Linear_5,0,1,48,57,1642021068
92,17,19,Jits_Linear_5,1,5,80,127,1642030380
92,17,19,Jits_Linear_5,2,5,56,103,1642040800
92,17,19,Jits_Linear_5,3,5,63,98,1642091076
92,17,19,Jits_Linear_5,0,1,48,61,1642597532
92,17,19,Jits_Linear_5,1,5,80,127,1642651160
92,17,19,Jits_Linear_5,2,5,56,103,1642711316
92,17,19,Jits_Linear_5,3,5,63,98,1642741064
92,17,19,Jits_Linear_5,0,1,48,47,1643251968
92,17,19,Jits_Linear_5,1,5,56,103,1643261280
92,17,19,Jits_Linear_5,2,5,80,127,1643264272
92,17,19,Jits_Linear_5,3,5,63,98,1643301216
92,17,19,Jits_Linear_5,0,1,48,56,1643797852
92,17,19,Jits_Linear_5,1,5,56,103,1643901440
92,17,19,Jits_Linear_5,2,5,63,98,1643931044
92,17,19,Jits_Linear_5,3,5,80,127,1643941312
92,17,19,Jits_Linear_5,0,1,48,46,1644421496
92,17,19,Jits_Linear_5,1,5,63,98,1644521228
92,17,19,Jits_Linear_5,2,5,80,127,1644531052
92,17,19,Jits_Linear_5,3,5,56,103,1644541396
92,17,19,Jits_Linear_5,0,5,80,127,1645080876
92,17,19,Jits_Linear_5,1,1,48,45,1645085864
92,17,19,Jits_Linear_5,2,5,56,103,1645131068
92,17,19,Jits_Linear_5,3,5,63,98,1645134212
92,17,19,Jits_Linear_5,0,1,48,41,1645672228
92,17,19,Jits_Linear_5,1,5,56,103,1645731244
92,17,19,Jits_Linear_5,2,5,80,127,1645750808
92,17,19,Jits_Linear_5,3,5,63,98,1645760856
92,17,19,Jits_Linear_5,0,1,48,46,1646299536
92,17,19,Jits_Linear_5,1,5,63,98,1646331248
92,17,19,Jits_Linear_5,2,5,56,103,1646360852
92,17,19,Jits_Linear_5,3,5,80,127,1646381460
92,17,19,Jits_Linear_5,0,1,48,45,1646897948
92,17,19,Jits_Linear_5,1,5,56,103,1646960996
92,17,19,Jits_Linear_5,2,5,80,127,1646971344
92,17,19,Jits_Linear_5,3,5,63,98,1647041012
92,17,19,Jits_Linear_5,0,1,48,52,1647546880
92,17,19,Jits_Linear_5,1,5,63,98,1647571340
92,17,19,Jits_Linear_5,2,5,80,127,1647611280
92,17,19,Jits_Linear_5,3,5,56,103,1647651280
92,17,19,Jits_Linear_5,0,1,48,42,1648171248
92,17,19,Jits_Linear_5,1,5,56,103,1648211204
92,17,19,Jits_Linear_5,2,5,63,98,1648220432
92,17,19,Jits_Linear_5,3,5,80,127,1648241036
92,17,19,Jits_Linear_5,0,1,48,39,1648788340
92,17,19,Jits_Linear_5,1,5,63,98,1648880972
92,17,19,Jits_Linear_5,2,5,80,127,1648900388
92,17,19,Jits_Linear_5,3,5,56,103,1648920996
92,17,19,Jits_Linear_5,0,1,48,39,1649422384
92,17,19,Jits_Linear_5,1,5,56,103,1649451252
92,17,19,Jits_Linear_5,2,5,80,127,1649531264
92,17,19,Jits_Linear_5,3,5,63,98,1649540588
92,17,19,Jits_Linear_5,0,1,48,43,1650049464
92,17,19,Jits_Linear_5,1,5,80,127,1650121040
92,17,19,Jits_Linear_5,2,5,63,98,1650131532
92,17,19,Jits_Linear_5,3,5,56,103,1650161120
92,17,19,Jits_Linear_5,0,5,63,98,1650710788
92,17,19,Jits_Linear_5,1,1,48,42,1650718468
92,17,19,Jits_Linear_5,2,5,80,127,1650750872
92,17,19,Jits_Linear_5,3,5,56,103,1650811188
92,17,19,Jits_Linear_5,0,1,48,40,1651349240
92,17,19,Jits_Linear_5,1,5,63,98,1651350968
92,17,19,Jits_Linear_5,2,5,56,103,1651401024
92,17,19,Jits_Linear_5,3,5,80,127,1651430848
92,17,19,Jits_Linear_5,0,1,48,38,1651972528
92,17,19,Jits_Linear_5,1,5,80,127,1652001100
92,17,19,Jits_Linear_5,2,5,63,98,1652011368
92,17,19,Jits_Linear_5,3,5,56,103,1652081036
92,17,19,Jits_Linear_5,0,1,48,51,1652592012
92,17,19,Jits_Linear_5,1,5,80,127,1652710876
92,17,19,Jits_Linear_5,2,5,56,103,1652721072
92,17,19,Jits_Linear_5,3,5,63,98,1652724140
92,17,19,Jits_Linear_5,0,1,48,43,1653262088
92,17,19,Jits_Linear_5,1,5,56,103,1653291484
92,17,19,Jits_Linear_5,2,5,80,127,1653310748
92,17,19,Jits_Linear_5,3,5,63,98,1653321020
92,17,19,Jits_Linear_5,0,1,48,43,1653841188
92,17,19,Jits_Linear_5,1,5,63,98,1653941916
92,17,19,Jits_Linear_5,2,5,56,103,1653980960
92,17,19,Jits_Linear_5,3,5,80,127,1654000972
92,17,19,Jits_Linear_5,0,1,48,42,1654518924
92,17,19,Jits_Linear_5,1,5,63,98,1654590796
92,17,19,Jits_Linear_5,2,5,56,103,1654651320
92,17,19,Jits_Linear_5,3,5,80,127,1654654336
92,17,19,Jits_Linear_5,0,1,48,38,1655153376
92,17,19,Jits_Linear_5,1,5,56,103,1655201156
92,17,19,Jits_Linear_5,2,5,80,127,1655220720
92,17,19,Jits_Linear_5,3,5,63,98,1655260644
92,17,19,Jits_Linear_5,0,1,48,35,1655808556
92,17,19,Jits_Linear_5,1,5,56,103,1655880952
92,17,19,Jits_Linear_5,2,5,63,98,1655900664
92,17,19,Jits_Linear_5,3,5,80,127,1655910844
92,17,19,Jits_Linear_5,0,1,48,33,1656477124
92,17,19,Jits_Linear_5,1,5,80,127,1656500684
92,17,19,Jits_Linear_5,2,5,56,103,1656531260
92,17,19,Jits_Linear_5,3,5,63,98,1656571272
92,17,19,Jits_Linear_5,0,1,48,39,1657088972
92,17,19,Jits_Linear_5,1,5,80,127,1657161000
92,17,19,Jits_Linear_5,2,5,56,103,1657180488
92,17,19,Jits_Linear_5,3,5,63,98,1657240892
92,17,19,Jits_Linear_5,0,1,48,34,1657738980
92,17,19,Jits_Linear_5,1,5,56,103,1657820668
92,17,19,Jits_Linear_5,2,5,80,127,1657840968
92,17,19,Jits_Linear_5,3,5,63,98,1657901284
92,17,19,Jits_Linear_5,0,1,48,33,1658448284
92,17,19,Jits_Linear_5,1,5,80,127,1658460684
92,17,19,Jits_Linear_5,2,5,56,103,1658470804
92,17,19,Jits_Linear_5,3,5,63,98,1658510844
92,17,19,Jits_Linear_5,0,1,48,36,1659114320
92,17,19,Jits_Linear_5,1,5,63,98,1659120872
92,17,19,Jits_Linear_5,2,5,56,103,1659161036
92,17,19,Jits_Linear_5,3,5,80,127,1659163956
92,17,19,Jits_Linear_5,0,1,48,32,1659749988
92,17,19,Jits_Linear_5,1,5,63,98,1659801056
92,17,19,Jits_Linear_5,2,5,80,127,1659840848
92,17,19,Jits_Linear_5,3,5,56,103,1659870808
92,17,19,Jits_Linear_5,0,1,48,35,1660430256
92,17,19,Jits_Linear_5,1,5,56,103,1660451036
92,17,19,Jits_Linear_5,2,5,63,98,1660461308
92,17,19,Jits_Linear_5,3,5,80,127,1660491056
92,17,19,Jits_Linear_5,0,1,48,29,1661046652
92,17,19,Jits_Linear_5,1,5,80,127,1661110848
92,17,19,Jits_Linear_5,2,5,63,98,1661181268
92,17,19,Jits_Linear_5,3,5,56,103,1661190716
92,17,19,Jits_Linear_5,0,1,48,32,1661752708
92,17,19,Jits_Linear_5,1,5,63,98,1661781356
92,17,19,Jits_Linear_5,2,5,56,103,1661851052
92,17,19,Jits_Linear_5,3,5,80,127,1661861248
92,17,19,Jits_Linear_5,0,1,48,43,1662389900
92,17,19,Jits_Linear_5,1,5,63,98,1662451064
92,17,19,Jits_Linear_5,2,5,56,103,1662470476
92,17,19,Jits_Linear_5,3,5,80,127,1662510624
92,17,19,Jits_Linear_5,0,1,48,53,1663054108
92,17,19,Jits_Linear_5,1,5,56,103,1663131108
92,17,19,Jits_Linear_5,2,5,63,98,1663141676
92,17,19,Jits_Linear_5,3,5,80,127,1663221236
92,17,19,Jits_Linear_5,0,1,48,51,1663778972
92,17,19,Jits_Linear_5,1,5,63,98,1663790380
92,17,19,Jits_Linear_5,2,5,56,103,1663821028
92,17,19,Jits_Linear_5,3,5,80,127,1663860968
92,17,19,Jits_Linear_5,0,1,48,43,1664424988
92,17,19,Jits_Linear_5,1,5,56,103,1664461056
92,17,19,Jits_Linear_5,2,5,63,98,1664501148
92,17,19,Jits_Linear_5,3,5,80,127,1664540996
92,17,19,Jits_Linear_5,0,1,48,24,1665062304
92,17,19,Jits_Linear_5,1,5,80,127,1665141076
92,17,19,Jits_Linear_5,2,5,56,103,1665220960
92,17,19,Jits_Linear_5,3,5,63,98,1665231080
92,17,19,Jits_Linear_5,0,1,48,49,1665820800
92,17,19,Jits_Linear_5,1,5,56,103,1665860980
92,17,19,Jits_Linear_5,2,5,63,98,1665863896
92,17,19,Jits_Linear_5,3,5,80,127,1665871472
92,17,19,Jits_Linear_5,0,1,48,54,1666543236
92,17,19,Jits_Linear_5,1,5,56,103,1666561396
92,17,19,Jits_Linear_5,2,5,63,98,1666580736
92,17,19,Jits_Linear_5,3,5,80,127,1666591080
92,17,19,Jits_Linear_5,0,1,48,42,1667157396
92,17,19,Jits_Linear_5,1,5,63,98,1667201508
92,17,19,Jits_Linear_5,2,5,80,127,1667210660
92,17,19,Jits_Linear_5,3,5,56,103,1667231044
92,17,19,Jits_Linear_5,0,1,48,49,1667807768
92,17,19,Jits_Linear_5,1,5,63,98,1667890820
92,17,19,Jits_Linear_5,2,5,56,103,1667970480
92,17,19,Jits_Linear_5,3,5,80,127,1667973624
92,17,19,Jits_Linear_5,0,1,48,58,1668478148
92,17,19,Jits_Linear_5,1,5,63,98,1668580668
92,17,19,Jits_Linear_5,2,5,56,103,1668601200
92,17,19,Jits_Linear_5,3,5,80,127,1668630804
92,17,19,Jits_Linear_5,0,1,48,53,1669146032
92,17,19,Jits_Linear_5,1,5,56,103,1669270824
92,17,19,Jits_Linear_5,2,5,63,98,1669291656
92,17,19,Jits_Linear_5,3,5,80,127,1669300508
92,17,19,Jits_Linear_5,0,1,48,44,1669852680
92,17,19,Jits_Linear_5,1,5,56,103,1669990704
92,17,19,Jits_Linear_5,2,5,63,98,1670020552
92,17,19,Jits_Linear_5,3,5,80,127,1670023916
92,17,19,Jits_Linear_5,0,1,48,34,1670587632
92,17,19,Jits_Linear_5,1,5,56,103,1670630748
92,17,19,Jits_Linear_5,2,5,63,98,1670670692
92,17,19,Jits_Linear_5,3,5,80,127,1670731140
92,17,19,Jits_Linear_5,0,1,48,23,1671273352
92,17,19,Jits_Linear_5,1,5,56,103,1671341588
92,17,19,Jits_Linear_5,2,5,63,98,1671350588
92,17,19,Jits_Linear_5,3,5,80,127,1671411036
92,17,19,Jits_Linear_5,0,1,48,48,1671979088
92,17,19,Jits_Linear_5,1,5,56,103,1672040936
92,17,19,Jits_Linear_5,2,5,80,127,1672061348
92,17,19,Jits_Linear_5,3,5,63,98,1672090936
92,17,19,Jits_Linear_5,0,1,48,18,1672674872
92,17,19,Jits_Linear_5,1,5,80,127,1672741140
92,17,19,Jits_Linear_5,2,5,56,103,1672750660
92,17,19,Jits_Linear_5,3,5,63,98,1672770896
92,17,19,Jits_Linear_5,0,1,48,49,1673338844
92,17,19,Jits_Linear_5,1,5,63,98,1673431520
92,17,19,Jits_Linear_5,2,5,80,127,1673511380
92,17,19,Jits_Linear_5,3,5,56,103,1673520680
92,17,19,Jits_Linear_5,0,1,48,24,1674066480
92,17,19,Jits_Linear_5,1,5,80,127,1674191200
92,17,19,Jits_Linear_5,2,5,56,103,1674210612
92,17,19,Jits_Linear_5,3,5,63,98,1674213604
92,17,19,Jits_Linear_5,0,1,48,52,1674786604
92,17,19,Jits_Linear_5,1,5,63,98,1674871152
92,17,19,Jits_Linear_5,2,5,80,127,1674874516
92,17,19,Jits_Linear_5,3,5,56,103,1674930504
92,17,19,Jits_Linear_5,0,1,48,38,1675510112
92,17,19,Jits_Linear_5,1,5,56,103,1675561456
92,17,19,Jits_Linear_5,2,5,80,127,1675570752
92,17,19,Jits_Linear_5,3,5,63,98,1675610456
92,17,19,Jits_Linear_5,0,1,48,41,1676224312
92,17,19,Jits_Linear_5,1,5,56,103,1676250492
92,17,19,Jits_Linear_5,2,5,63,98,1676310812
92,17,19,Jits_Linear_5,3,5,80,127,1676321660
92,17,19,Jits_Linear_5,0,1,48,41,1676897956
92,17,19,Jits_Linear_5,1,5,63,98,1676971664
92,17,19,Jits_Linear_5,2,5,80,127,1677011368
92,17,19,Jits_Linear_5,3,5,56,103,1677051456
92,17,19,Jits_Linear_5,0,1,48,35,1677610308
92,17,19,Jits_Linear_5,1,5,56,103,1677680912
92,17,19,Jits_Linear_5,2,5,63,98,1677760868
92,17,19,Jits_Linear_5,3,5,80,127,1677764232
92,17,19,Jits_Linear_5,0,1,48,45,1678327272
92,17,19,Jits_Linear_5,1,5,80,127,1678450920
92,17,19,Jits_Linear_5,2,5,56,103,1678480700
92,17,19,Jits_Linear_5,3,5,63,98,1678483840
92,17,19,Jits_Linear_5,0,1,48,46,1679073484
92,17,19,Jits_Linear_5,1,5,56,103,1679130976
92,17,19,Jits_Linear_5,2,5,80,127,1679150612
92,17,19,Jits_Linear_5,3,5,63,98,1679191508
92,17,19,Jits_Linear_5,0,1,48,46,1679731544
92,17,19,Jits_Linear_5,1,5,80,127,1679831456
92,17,19,Jits_Linear_5,2,5,63,98,1679850724
92,17,19,Jits_Linear_5,3,5,56,103,1679911484
92,17,19,Jits_Linear_5,0,1,48,53,1680485832
92,17,19,Jits_Linear_5,1,5,63,98,1680560440
92,17,19,Jits_Linear_5,2,5,56,103,1680570712
92,17,19,Jits_Linear_5,3,5,80,127,1680620824
92,17,19,Jits_Linear_5,0,1,48,48,1681191356
92,17,19,Jits_Linear_5,1,5,56,103,1681271248
92,17,19,Jits_Linear_5,2,5,63,98,1681290536
92,17,19,Jits_Linear_5,3,5,80,127,1681300868
92,17,19,Jits_Linear_5,0,1,48,51,1681895512
92,17,19,Jits_Linear_5,1,5,56,103,1681990916
92,17,19,Jits_Linear_5,2,5,63,98,1681994948
92,17,19,Jits_Linear_5,3,5,80,127,1682010468
92,17,19,Jits_Linear_5,0,1,48,51,1682585500
92,17,19,Jits_Linear_5,1,5,63,98,1682760996
92,17,19,Jits_Linear_5,2,5,56,103,1682790896
92,17,19,Jits_Linear_5,3,1,48,15,1682799344
92,17,19,Jits_Linear_5,4,5,80,127,1682820440
92,17,19,Jits_Linear_5,0,1,48,50,1683354088
92,17,19,Jits_Linear_5,1,5,80,127,1683451352
92,17,19,Jits_Linear_5,2,5,56,103,1683541340
92,17,19,Jits_Linear_5,3,5,63,98,1683544408
92,17,19,Jits_Linear_5,0,5,56,103,1684181528
92,17,19,Jits_Linear_5,1,5,80,127,1684184596
92,17,19,Jits_Linear_5,2,1,48,44,1684216264
92,17,19,Jits_Linear_5,3,5,63,98,1684261392
92,17,19,Jits_Linear_5,0,1,48,53,1684898848
92,17,19,Jits_Linear_5,1,5,80,127,1684910644
92,17,19,Jits_Linear_5,2,5,63,98,1684970816
92,17,19,Jits_Linear_5,3,5,56,103,1685000628
92,17,19,Jits_Linear_5,0,5,63,98,1685640520
92,17,19,Jits_Linear_5,1,5,80,127,1685650940
92,17,19,Jits_Linear_5,2,1,48,34,1685651908
92,17,19,Jits_Linear_5,3,5,56,103,1685720616
92,17,19,Jits_Linear_5,0,1,48,48,1686353464
92,17,19,Jits_Linear_5,1,5,56,103,1686401392
92,17,19,Jits_Linear_5,2,5,80,127,1686431072
92,17,19,Jits_Linear_5,3,5,63,98,1686481408
92,17,19,Jits_Linear_5,0,1,48,37,1687127608
92,17,19,Jits_Linear_5,1,5,63,98,1687180568
92,17,19,Jits_Linear_5,2,5,56,103,1687211512
92,17,19,Jits_Linear_5,3,5,80,127,1687214576
92,17,19,Jits_Linear_5,0,1,48,42,1687854700
92,17,19,Jits_Linear_5,1,5,63,98,1687920964
92,17,19,Jits_Linear_5,2,5,80,127,1687940552
92,17,19,Jits_Linear_5,3,5,56,103,1687950732
92,17,19,Jits_Linear_5,0,1,48,32,1688662200
92,17,19,Jits_Linear_5,1,5,56,103,1688670688
92,17,19,Jits_Linear_5,2,5,63,98,1688673680
92,17,19,Jits_Linear_5,3,5,80,127,1688690996
92,17,19,Jits_Linear_5,0,1,48,42,1689369520
92,17,19,Jits_Linear_5,1,5,56,103,1689370956
92,17,19,Jits_Linear_5,2,5,63,98,1689381672
92,17,19,Jits_Linear_5,3,5,80,127,1689411052
92,17,19,Jits_Linear_5,0,5,63,98,1690141208
92,17,19,Jits_Linear_5,1,5,80,127,1690160400
92,17,19,Jits_Linear_5,2,5,56,103,1690200488
92,17,19,Jits_Linear_5,0,1,48,50,1690897068
92,17,19,Jits_Linear_5,1,5,56,103,1690921452
92,17,19,Jits_Linear_5,2,5,63,98,1690961244
92,17,19,Jits_Linear_5,3,5,80,127,1690964756
92,17,19,Jits_Linear_5,0,5,80,127,1691610412
92,17,19,Jits_Linear_5,1,5,56,103,1691650280
92,17,19,Jits_Linear_5,2,1,48,51,1691678188
92,17,19,Jits_Linear_5,3,5,63,98,1691700552
92,17,19,Jits_Linear_5,0,1,48,52,1692361916
92,17,19,Jits_Linear_5,1,5,56,103,1692420460
92,17,19,Jits_Linear_5,2,5,80,127,1692430656
92,17,19,Jits_Linear_5,3,5,63,98,1692461360
92,17,19,Jits_Linear_5,0,5,56,103,1693120964
92,17,19,Jits_Linear_5,1,1,48,45,1693124528
92,17,19,Jits_Linear_5,2,5,80,127,1693160676
92,17,19,Jits_Linear_5,3,5,63,98,1693211100
92,17,19,Jits_Linear_5,0,5,56,103,1693880664
92,17,19,Jits_Linear_5,1,1,48,53,1693891656
92,17,19,Jits_Linear_5,2,5,80,127,1693920524
92,17,19,Jits_Linear_5,3,5,63,98,1693970652
92,17,19,Jits_Linear_5,0,1,48,47,1694592752
92,17,19,Jits_Linear_5,1,5,80,127,1694631364
92,17,19,Jits_Linear_5,2,5,63,98,1694711152
92,17,19,Jits_Linear_5,3,5,56,103,1694721272
92,17,19,Jits_Linear_5,0,1,48,53,1695406604
92,17,19,Jits_Linear_5,1,5,80,127,1695441400
92,17,19,Jits_Linear_5,2,5,56,103,1695450476
92,17,19,Jits_Linear_5,3,5,63,98,1695471160
92,17,19,Jits_Linear_5,0,1,48,43,1696135800
92,17,19,Jits_Linear_5,1,5,63,98,1696171496
92,17,19,Jits_Linear_5,2,5,56,103,1696240940
92,17,19,Jits_Linear_5,3,5,80,127,1696244080
92,17,19,Jits_Linear_5,0,1,48,48,1696881900
92,17,19,Jits_Linear_5,1,5,80,127,1696931248
92,17,19,Jits_Linear_5,2,5,63,98,1696981288
92,17,19,Jits_Linear_5,3,5,56,103,1697021376
92,17,19,Jits_Linear_5,0,1,48,48,1697627936
92,17,19,Jits_Linear_5,1,5,63,98,1697741268
92,17,19,Jits_Linear_5,2,5,56,103,1697781284
92,17,19,Jits_Linear_5,3,5,80,127,1697791332
92,17,19,Jits_Linear_5,0,1,48,48,1698455764
92,17,19,Jits_Linear_5,1,5,63,98,1698501124
92,17,19,Jits_Linear_5,2,5,56,103,1698520388
92,17,19,Jits_Linear_5,3,5,80,127,1698540848
92,17,19,Jits_Linear_5,0,1,48,45,1699200252
92,17,19,Jits_Linear_5,1,5,80,127,1699231292
92,17,19,Jits_Linear_5,2,5,56,103,1699241264
92,17,19,Jits_Linear_5,3,5,63,98,1699260976
92,17,19,Jits_Linear_5,0,1,48,46,1699970644
92,17,19,Jits_Linear_5,1,5,63,98,1700030760
92,17,19,Jits_Linear_5,2,5,56,103,1700070684
92,17,19,Jits_Linear_5,3,5,80,127,1700100508
92,17,19,Jits_Linear_5,0,1,48,43,1700709928
92,17,19,Jits_Linear_5,1,5,56,103,1700811108
92,17,19,Jits_Linear_5,2,5,63,98,1700840860
92,17,19,Jits_Linear_5,3,5,80,127,1700870536
92,17,19,Jits_Linear_5,0,1,48,43,1701506568
92,17,19,Jits_Linear_5,1,5,80,127,1701560624
92,17,19,Jits_Linear_5,2,5,56,103,1701631256
92,17,19,Jits_Linear_5,3,5,63,98,1701634480
92,17,19,Jits_Linear_5,0,1,48,45,1702307976
92,17,19,Jits_Linear_5,1,5,56,103,1702351092
92,17,19,Jits_Linear_5,2,5,63,98,1702401356
92,17,19,Jits_Linear_5,3,5,80,127,1702431180
92,17,19,Jits_Linear_5,0,1,48,43,1703092464
92,17,19,Jits_Linear_5,1,5,63,98,1703111068
92,17,19,Jits_Linear_5,2,5,80,127,1703114284
92,17,19,Jits_Linear_5,3,5,56,103,1703170336
92,17,19,Jits_Linear_5,0,1,48,43,1703847848
92,17,19,Jits_Linear_5,1,5,56,103,1703920940
92,17,19,Jits_Linear_5,2,5,80,127,1703931512
92,17,19,Jits_Linear_5,3,5,63,98,1703981624
92,17,19,Jits_Linear_5,0,1,48,41,1704670644
92,17,19,Jits_Linear_5,1,5,63,98,1704681004
92,17,19,Jits_Linear_5,2,5,56,103,1704691276
92,17,19,Jits_Linear_5,3,5,80,127,1704720652
92,17,19,Jits_Linear_5,0,1,48,38,1705452120
92,17,19,Jits_Linear_5,1,5,63,98,1705500996
92,17,19,Jits_Linear_5,2,5,80,127,1705504288
92,17,19,Jits_Linear_5,3,5,56,103,1705530748
92,17,19,Jits_Linear_5,0,1,48,32,1706222960
92,17,19,Jits_Linear_5,1,5,63,98,1706311020
92,17,19,Jits_Linear_5,2,5,56,103,1706330340
92,17,19,Jits_Linear_5,3,5,80,127,1706333560
92,17,19,Jits_Linear_5,0,1,48,43,1707002860
92,17,19,Jits_Linear_5,1,5,63,98,1707060584
92,17,19,Jits_Linear_5,2,5,56,103,1707131252
92,17,19,Jits_Linear_5,3,5,80,127,1707150592
92,17,19,Jits_Linear_5,0,1,48,44,1707824144
92,17,19,Jits_Linear_5,1,5,56,103,1707841100
92,17,19,Jits_Linear_5,2,5,63,98,1707851220
92,17,19,Jits_Linear_5,3,5,80,127,1707941292
92,17,19,Jits_Linear_5,0,1,48,45,1708617908
92,17,19,Jits_Linear_5,1,5,56,103,1708651056
92,17,19,Jits_Linear_5,2,5,80,127,1708690876
92,17,19,Jits_Linear_5,3,5,63,98,1708701144
92,17,19,Jits_Linear_5,0,1,48,45,1709393332
92,17,19,Jits_Linear_5,1,5,56,103,1709471232
92,17,19,Jits_Linear_5,2,5,63,98,1709500744
92,17,19,Jits_Linear_5,3,5,80,127,1709530420
92,17,19,Jits_Linear_5,0,1,48,46,1710207952
92,17,19,Jits_Linear_5,1,5,80,127,1710231068
92,17,19,Jits_Linear_5,2,5,63,98,1710271008
92,17,19,Jits_Linear_5,3,5,56,103,1710291316
92,17,19,Jits_Linear_5,0,1,48,46,1711009988
92,17,19,Jits_Linear_5,1,5,56,103,1711070548
92,17,19,Jits_Linear_5,2,5,80,127,1711091228
92,17,19,Jits_Linear_5,3,5,63,98,1711110404
92,17,19,Jits_Linear_5,0,1,48,44,1711819788
92,17,19,Jits_Linear_5,1,5,63,98,1711840564
92,17,19,Jits_Linear_5,2,5,56,103,1711851132
92,17,19,Jits_Linear_5,3,5,80,127,1711911224
92,17,19,Jits_Linear_5,0,1,48,40,1712585600
92,17,19,Jits_Linear_5,1,5,56,103,1712650744
92,17,19,Jits_Linear_5,2,5,63,98,1712721312
92,17,19,Jits_Linear_5,3,5,80,127,1712740652
92,17,19,Jits_Linear_5,0,5,56,103,1713460564
92,17,19,Jits_Linear_5,1,1,48,40,1713468016
92,17,19,Jits_Linear_5,2,5,63,98,1713491204
92,17,19,Jits_Linear_5,3,5,80,127,1713531168
92,17,19,Jits_Linear_5,0,1,48,45,1714243000
92,17,19,Jits_Linear_5,1,5,63,98,1714261384
92,17,19,Jits_Linear_5,2,5,56,103,1714310492
92,17,19,Jits_Linear_5,3,5,80,127,1714320912
92,17,19,Jits_Linear_5,0,1,48,48,1715047028
92,17,19,Jits_Linear_5,1,5,56,103,1715111224
92,17,19,Jits_Linear_5,2,5,63,98,1715160516
92,17,19,Jits_Linear_5,3,5,80,127,1715171084
92,17,19,Jits_Linear_5,0,1,48,36,1715866604
92,17,19,Jits_Linear_5,1,5,56,103,1715890468
92,17,19,Jits_Linear_5,2,5,63,98,1715900888
92,17,19,Jits_Linear_5,3,5,80,127,1715980596
92,17,19,Jits_Linear_5,0,9999,9999,9999,1607138356
92,17,19,Jits_Linear_5,1,9999,9999,9999,1607618668
92,17,19,Jits_Linear_5,2,9999,9999,9999,1608098904
92,17,19,Jits_Linear_5,3,9999,9999,9999,1608578136
92,17,19,Jits_Linear_5,4,9999,9999,9999,1609058372
92,17,19,Jits_Linear_5,5,9999,9999,9999,1609548924
92,17,19,Jits_Linear_5,6,9999,9999,9999,1610038352
92,17,19,Jits_Linear_5,7,9999,9999,9999,1610528836
92,17,19,Jits_Linear_5,8,9999,9999,9999,1611018332
92,17,19,Jits_Linear_5,9,9999,9999,9999,1611508820
92,17,19,Jits_Linear_5,10,9999,9999,9999,1612008520
92,17,19,Jits_Linear_5,11,9999,9999,9999,1612508224
92,17,19,Jits_Linear_5,12,9999,9999,9999,1613008956
92,17,19,Jits_Linear_5,13,9999,9999,9999,1613508716
92,17,19,Jits_Linear_5,14,9999,9999,9999,1614008400
92,17,19,Jits_Linear_5,15,9999,9999,9999,1614518368
92,17,19,Jits_Linear_5,16,9999,9999,9999,1615028324
92,17,19,Jits_Linear_5,17,9999,9999,9999,1615538276
92,17,19,Jits_Linear_5,18,9999,9999,9999,1616048228
92,17,19,Jits_Linear_5,19,9999,9999,9999,1616558180
92,17,19,Jits_Linear_5,20,9999,9999,9999,1617078396
92,17,19,Jits_Linear_5,21,9999,9999,9999,1617598536
92,17,19,Jits_Linear_5,22,9999,9999,9999,1618118752
92,17,19,Jits_Linear_5,23,9999,9999,9999,1618638972
92,17,19,Jits_Linear_5,24,9999,9999,9999,1619158140
92,17,19,Jits_Linear_5,25,9999,9999,9999,1619688556
92,17,19,Jits_Linear_5,26,9999,9999,9999,1620218964
92,17,19,Jits_Linear_5,27,9999,9999,9999,1620748388
92,17,19,Jits_Linear_5,28,9999,9999,9999,1621278808
92,17,19,Jits_Linear_5,29,9999,9999,9999,1621808240
92,17,19,Jits_Linear_5,30,9999,9999,9999,1622348908
92,17,19,Jits_Linear_5,31,9999,9999,9999,1622888528
92,17,19,Jits_Linear_5,32,9999,9999,9999,1623428172
92,17,19,Jits_Linear_5,33,9999,9999,9999,1623968840
92,17,19,Jits_Linear_5,34,9999,9999,9999,1624508536
92,17,19,Jits_Linear_5,35,9999,9999,9999,1625058424
92,17,19,Jits_Linear_5,36,9999,9999,9999,1625608300
92,17,19,Jits_Linear_5,37,9999,9999,9999,1626158192
92,17,19,Jits_Linear_5,38,9999,9999,9999,1626709048
92,17,19,Jits_Linear_5,39,9999,9999,9999,1627258936
92,17,19,Jits_Linear_5,40,9999,9999,9999,1627819108
92,17,19,Jits_Linear_5,41,9999,9999,9999,1628388408
92,17,19,Jits_Linear_5,42,9999,9999,9999,1628948572
92,17,19,Jits_Linear_5,43,9999,9999,9999,1629508716
92,17,19,Jits_Linear_5,44,9999,9999,9999,1630068860
92,17,19,Jits_Linear_5,45,9999,9999,9999,1630638184
92,17,19,Jits_Linear_5,46,9999,9999,9999,1631208524
92,17,19,Jits_Linear_5,47,9999,9999,9999,1631778940
92,17,19,Jits_Linear_5,48,9999,9999,9999,1632348232
92,17,19,Jits_Linear_5,49,9999,9999,9999,1632918596
92,17,19,Jits_Linear_5,50,9999,9999,9999,1633498192
92,17,19,Jits_Linear_5,51,9999,9999,9999,1634078800
92,17,19,Jits_Linear_5,52,9999,9999,9999,1634658360
92,17,19,Jits_Linear_5,53,9999,9999,9999,1635238988
92,17,19,Jits_Linear_5,54,9999,9999,9999,1635818616
92,17,19,Jits_Linear_5,55,9999,9999,9999,1636408436
92,17,19,Jits_Linear_5,56,9999,9999,9999,1636998208
92,17,19,Jits_Linear_5,57,9999,9999,9999,1637589080
92,17,19,Jits_Linear_5,58,9999,9999,9999,1638178900
92,17,19,Jits_Linear_5,59,9999,9999,9999,1638768704
92,17,19,Jits_Linear_5,60,9999,9999,9999,1639368808
92,17,19,Jits_Linear_5,61,9999,9999,9999,1639968884
92,17,19,Jits_Linear_5,62,9999,9999,9999,1640568888
92,17,19,Jits_Linear_5,63,9999,9999,9999,1641168980
92,17,19,Jits_Linear_5,64,9999,9999,9999,1641769064
92,17,19,Jits_Linear_5,65,9999,9999,9999,1642378308
92,17,19,Jits_Linear_5,66,9999,9999,9999,1642988652
92,17,19,Jits_Linear_5,67,9999,9999,9999,1643598908
92,17,19,Jits_Linear_5,68,9999,9999,9999,1644208232
92,17,19,Jits_Linear_5,69,9999,9999,9999,1644818500
92,17,19,Jits_Linear_5,70,9999,9999,9999,1645439048
92,17,19,Jits_Linear_5,71,9999,9999,9999,1646058620
92,17,19,Jits_Linear_5,72,9999,9999,9999,1646678104
92,17,19,Jits_Linear_5,73,9999,9999,9999,1647298636
92,17,19,Jits_Linear_5,74,9999,9999,9999,1647918196
92,17,19,Jits_Linear_5,75,9999,9999,9999,1648548944
92,17,19,Jits_Linear_5,76,9999,9999,9999,1649178696
92,17,19,Jits_Linear_5,77,9999,9999,9999,1649808472
92,17,19,Jits_Linear_5,78,9999,9999,9999,1650438224
92,17,19,Jits_Linear_5,79,9999,9999,9999,1651069048
92,17,19,Jits_Linear_5,80,9999,9999,9999,1651708984
92,17,19,Jits_Linear_5,81,9999,9999,9999,1652349024
92,17,19,Jits_Linear_5,82,9999,9999,9999,1652989036
92,17,19,Jits_Linear_5,83,9999,9999,9999,1653628996
92,17,19,Jits_Linear_5,84,9999,9999,9999,1654269012
92,17,19,Jits_Linear_5,85,9999,9999,9999,1654918260
92,17,19,Jits_Linear_5,86,9999,9999,9999,1655568460
92,17,19,Jits_Linear_5,87,9999,9999,9999,1656218688
92,17,19,Jits_Linear_5,88,9999,9999,9999,1656868960
92,17,19,Jits_Linear_5,89,9999,9999,9999,1657518144
92,17,19,Jits_Linear_5,90,9999,9999,9999,1658178688
92,17,19,Jits_Linear_5,91,9999,9999,9999,1658838124
92,17,19,Jits_Linear_5,92,9999,9999,9999,1659498580
92,17,19,Jits_Linear_5,93,9999,9999,9999,1660159072
92,17,19,Jits_Linear_5,94,9999,9999,9999,1660818512
92,17,19,Jits_Linear_5,95,9999,9999,9999,1661488196
92,17,19,Jits_Linear_5,96,9999,9999,9999,1662158952
92,17,19,Jits_Linear_5,97,9999,9999,9999,1662828632
92,17,19,Jits_Linear_5,98,9999,9999,9999,1663498340
92,17,19,Jits_Linear_5,99,9999,9999,9999,1664169016
92,17,19,Jits_Linear_5,100,9999,9999,9999,1664848964
92,17,19,Jits_Linear_5,101,9999,9999,9999,1665528936
92,17,19,Jits_Linear_5,102,9999,9999,9999,1666208896
92,17,19,Jits_Linear_5,103,9999,9999,9999,1666888768
92,17,19,Jits_Linear_5,104,9999,9999,9999,1667568740
92,17,19,Jits_Linear_5,105,9999,9999,9999,1668258896
92,17,19,Jits_Linear_5,106,9999,9999,9999,1668949104
92,17,19,Jits_Linear_5,107,9999,9999,9999,1669638220
92,17,19,Jits_Linear_5,108,9999,9999,9999,1670328448
92,17,19,Jits_Linear_5,109,9999,9999,9999,1671018584
92,17,19,Jits_Linear_5,110,9999,9999,9999,1671719004
92,17,19,Jits_Linear_5,111,9999,9999,9999,1672418380
92,17,19,Jits_Linear_5,112,9999,9999,9999,1673118804
92,17,19,Jits_Linear_5,113,9999,9999,9999,1673818232
92,17,19,Jits_Linear_5,114,9999,9999,9999,1674518652
92,17,19,Jits_Linear_5,115,9999,9999,9999,1675228284
92,17,19,Jits_Linear_5,116,9999,9999,9999,1675938896
92,17,19,Jits_Linear_5,117,9999,9999,9999,1676648512
92,17,19,Jits_Linear_5,118,9999,9999,9999,1677358156
92,17,19,Jits_Linear_5,119,9999,9999,9999,1678068836
92,17,19,Jits_Linear_5,120,9999,9999,9999,1678788664
92,17,19,Jits_Linear_5,121,9999,9999,9999,1679508568
92,17,19,Jits_Linear_5,122,9999,9999,9999,1680228444
92,17,19,Jits_Linear_5,123,9999,9999,9999,1680948344
92,17,19,Jits_Linear_5,124,9999,9999,9999,1681668168
92,17,19,Jits_Linear_5,125,9999,9999,9999,1682398320
92,17,19,Jits_Linear_5,126,9999,9999,9999,1683128396
92,17,19,Jits_Linear_5,127,9999,9999,9999,1683858548
92,17,19,Jits_Linear_5,128,9999,9999,9999,1684588604
92,17,19,Jits_Linear_5,129,9999,9999,9999,1685318780
92,17,19,Jits_Linear_5,130,9999,9999,9999,1686059136
92,17,19,Jits_Linear_5,131,9999,9999,9999,1686808632
92,17,19,Jits_Linear_5,132,9999,9999,9999,1687549056
92,17,19,Jits_Linear_5,133,9999,9999,9999,1688288368
92,17,19,Jits_Linear_5,134,9999,9999,9999,1689028716
92,17,19,Jits_Linear_5,135,9999,9999,9999,1689778288
92,17,19,Jits_Linear_5,136,9999,9999,9999,1690528856
92,17,19,Jits_Linear_5,137,9999,9999,9999,1691278436
92,17,19,Jits_Linear_5,138,9999,9999,9999,1692029056
92,17,19,Jits_Linear_5,139,9999,9999,9999,1692778620
92,17,19,Jits_Linear_5,140,9999,9999,9999,1693538384
92,17,19,Jits_Linear_5,141,9999,9999,9999,1694298232
92,17,19,Jits_Linear_5,142,9999,9999,9999,1695059056
92,17,19,Jits_Linear_5,143,9999,9999,9999,1695818820
92,17,19,Jits_Linear_5,144,9999,9999,9999,1696578648
92,17,19,Jits_Linear_5,145,9999,9999,9999,1697348672
92,17,19,Jits_Linear_5,146,9999,9999,9999,1698118776
92,17,19,Jits_Linear_5,147,9999,9999,9999,1698888804
92,17,19,Jits_Linear_5,148,9999,9999,9999,1699658828
92,17,19,Jits_Linear_5,149,9999,9999,9999,1700428928
92,17,19,Jits_Linear_5,150,9999,9999,9999,1701208168
92,17,19,Jits_Linear_5,151,9999,9999,9999,1701988452
92,17,19,Jits_Linear_5,152,9999,9999,9999,1702768736
92,17,19,Jits_Linear_5,153,9999,9999,9999,1703549032
92,17,19,Jits_Linear_5,154,9999,9999,9999,1704328276
92,17,19,Jits_Linear_5,155,9999,9999,9999,1705118824
92,17,19,Jits_Linear_5,156,9999,9999,9999,1705908320
92,17,19,Jits_Linear_5,157,9999,9999,9999,1706698864
92,17,19,Jits_Linear_5,158,9999,9999,9999,1707488372
92,17,19,Jits_Linear_5,159,9999,9999,9999,1708278848
92,17,19,Jits_Linear_5,160,9999,9999,9999,1709078620
92,17,19,Jits_Linear_5,161,9999,9999,9999,1709878388
92,17,19,Jits_Linear_5,162,9999,9999,9999,1710678084
92,17,19,Jits_Linear_5,163,9999,9999,9999,1711478900
92,17,19,Jits_Linear_5,164,9999,9999,9999,1712278608
92,17,19,Jits_Linear_5,165,9999,9999,9999,1713088572
92,17,19,Jits_Linear_5,166,9999,9999,9999,1713898604
92,17,19,Jits_Linear_5,167,9999,9999,9999,1714708572
92,17,19,Jits_Linear_5,168,9999,9999,9999,1715518536
92,17,19,Jits_Linear_5,169,9999,9999,9999,1716328568
92,18,7,Jits_ISO_8,0,5,56,103,1724710176
92,18,7,Jits_ISO_8,1,5,63,98,1724713200
92,18,7,Jits_ISO_8,2,5,80,127,1724716324
92,18,7,Jits_ISO_8,0,5,56,103,1725509956
92,18,7,Jits_ISO_8,1,5,63,98,1725512976
92,18,7,Jits_ISO_8,2,5,80,127,1725516100
92,18,7,Jits_ISO_8,0,5,80,127,1726250332
92,18,7,Jits_ISO_8,1,1,48,46,1726274800
92,18,7,Jits_ISO_8,2,5,63,98,1726339436
92,18,7,Jits_ISO_8,3,5,56,103,1726350004
92,18,7,Jits_ISO_8,0,1,48,58,1727020208
92,18,7,Jits_ISO_8,1,5,56,103,1727069752
92,18,7,Jits_ISO_8,2,5,63,98,1727079876
92,18,7,Jits_ISO_8,3,5,80,127,1727169868
92,18,7,Jits_ISO_8,0,1,48,53,1727797888
92,18,7,Jits_ISO_8,1,5,63,98,1727839864
92,18,7,Jits_ISO_8,2,5,80,127,1727870316
92,18,7,Jits_ISO_8,3,5,56,103,1727899904
92,18,7,Jits_ISO_8,0,1,48,47,1728550756
92,18,7,Jits_ISO_8,1,5,56,103,1728640268
92,18,7,Jits_ISO_8,2,5,80,127,1728739828
92,18,7,Jits_ISO_8,3,5,63,98,1728789880
92,18,7,Jits_ISO_8,0,1,48,48,1729331284
92,18,7,Jits_ISO_8,1,5,56,103,1729440112
92,18,7,Jits_ISO_8,2,5,80,127,1729490316
92,18,7,Jits_ISO_8,3,5,63,98,1729530252
92,18,7,Jits_ISO_8,0,1,48,43,1730136592
92,18,7,Jits_ISO_8,1,5,80,127,1730269480
92,18,7,Jits_ISO_8,2,5,63,98,1730300276
92,18,7,Jits_ISO_8,3,5,56,103,1730370032
92,18,7,Jits_ISO_8,0,1,48,46,1730904464
92,18,7,Jits_ISO_8,1,5,63,98,1731100060
92,18,7,Jits_ISO_8,2,5,56,103,1731129736
92,18,7,Jits_ISO_8,3,5,80,127,1731190124
92,18,7,Jits_ISO_8,0,1,48,51,1731668744
92,18,7,Jits_ISO_8,1,5,56,103,1731840428
92,18,7,Jits_ISO_8,2,5,80,127,1731843644
92,18,7,Jits_ISO_8,3,5,63,98,1731960152
92,18,7,Jits_ISO_8,0,1,48,45,1732394752
92,18,7,Jits_ISO_8,1,5,56,103,1732719968
92,18,7,Jits_ISO_8,2,5,80,127,1732759784
92,18,7,Jits_ISO_8,3,5,63,98,1732770276
92,18,7,Jits_ISO_8,0,1,48,47,1733130040
92,18,7,Jits_ISO_8,1,5,56,103,1733479976
92,18,7,Jits_ISO_8,2,5,80,127,1733500388
92,18,7,Jits_ISO_8,3,5,63,98,1733580032
92,18,7,Jits_ISO_8,0,1,48,40,1734006916
92,18,7,Jits_ISO_8,1,5,80,127,1734270344
92,18,7,Jits_ISO_8,2,5,56,103,1734369620
92,18,7,Jits_ISO_8,3,5,63,98,1734379816
92,18,7,Jits_ISO_8,0,1,48,40,1734816916
92,18,7,Jits_ISO_8,1,5,63,98,1735040312
92,18,7,Jits_ISO_8,2,5,80,127,1735099732
92,18,7,Jits_ISO_8,3,5,56,103,1735109852
92,18,7,Jits_ISO_8,0,1,48,32,1735677012
92,18,7,Jits_ISO_8,1,5,56,103,1735840168
92,18,7,Jits_ISO_8,2,5,63,98,1735909848
92,18,7,Jits_ISO_8,3,5,80,127,1735913212
92,18,7,Jits_ISO_8,0,1,48,31,1736534400
92,18,7,Jits_ISO_8,1,5,63,98,1736669752
92,18,7,Jits_ISO_8,2,5,56,103,1736719804
92,18,7,Jits_ISO_8,3,5,80,127,1736722800
92,18,7,Jits_ISO_8,0,1,48,36,1737309152
92,18,7,Jits_ISO_8,1,5,56,103,1737430560
92,18,7,Jits_ISO_8,2,5,80,127,1737433556
92,18,7,Jits_ISO_8,3,5,63,98,1737519576
92,18,7,Jits_ISO_8,0,1,48,45,1738186184
92,18,7,Jits_ISO_8,1,5,63,98,1738270060
92,18,7,Jits_ISO_8,2,5,56,103,1738360104
92,18,7,Jits_ISO_8,3,5,80,127,1738389856
92,18,7,Jits_ISO_8,0,5,56,103,1739059788
92,18,7,Jits_ISO_8,1,1,48,51,1739084408
92,18,7,Jits_ISO_8,2,5,63,98,1739159984
92,18,7,Jits_ISO_8,3,5,80,127,1739189644
92,18,7,Jits_ISO_8,0,5,63,98,1739879744
92,18,7,Jits_ISO_8,1,1,48,55,1739886452
92,18,7,Jits_ISO_8,2,5,56,103,1739890084
92,18,7,Jits_ISO_8,3,5,80,127,1739980092
92,18,7,Jits_ISO_8,0,1,48,45,1740692712
92,18,7,Jits_ISO_8,1,5,63,98,1740699928
92,18,7,Jits_ISO_8,2,5,56,103,1740779876
92,18,7,Jits_ISO_8,3,5,80,127,1740783972
92,18,7,Jits_ISO_8,0,5,80,127,1741459932
92,18,7,Jits_ISO_8,1,5,63,98,1741480320
92,18,7,Jits_ISO_8,2,1,48,46,1741498352
92,18,7,Jits_ISO_8,3,5,56,103,1741539656
92,18,7,Jits_ISO_8,0,1,48,50,1742254372
92,18,7,Jits_ISO_8,1,5,56,103,1742299732
92,18,7,Jits_ISO_8,2,5,63,98,1742319884
92,18,7,Jits_ISO_8,3,5,80,127,1742323552
92,18,7,Jits_ISO_8,0,5,63,98,1743039720
92,18,7,Jits_ISO_8,1,1,48,39,1743049660
92,18,7,Jits_ISO_8,2,5,80,127,1743119664
92,18,7,Jits_ISO_8,3,5,56,103,1743129932
92,18,7,Jits_ISO_8,0,1,48,57,1743826796
92,18,7,Jits_ISO_8,1,5,63,98,1743860028
92,18,7,Jits_ISO_8,2,5,56,103,1743879812
92,18,7,Jits_ISO_8,3,5,80,127,1743929700
92,18,7,Jits_ISO_8,0,1,48,51,1744636768
92,18,7,Jits_ISO_8,1,5,80,127,1744659736
92,18,7,Jits_ISO_8,2,5,63,98,1744699752
92,18,7,Jits_ISO_8,3,5,56,103,1744720136
92,18,7,Jits_ISO_8,0,1,48,51,1745462112
92,18,7,Jits_ISO_8,1,5,56,103,1745499676
92,18,7,Jits_ISO_8,2,5,63,98,1745509724
92,18,7,Jits_ISO_8,3,5,80,127,1745530136
92,18,7,Jits_ISO_8,0,5,56,103,1746229640
92,18,7,Jits_ISO_8,1,1,48,48,1746232008
92,18,7,Jits_ISO_8,2,5,63,98,1746319720
92,18,7,Jits_ISO_8,3,5,80,127,1746380020
92,18,7,Jits_ISO_8,0,1,48,54,1747016432
92,18,7,Jits_ISO_8,1,5,80,127,1747060072
92,18,7,Jits_ISO_8,2,5,56,103,1747070444
92,18,7,Jits_ISO_8,3,5,63,98,1747140036
92,18,7,Jits_ISO_8,0,1,48,52,1747784300
92,18,7,Jits_ISO_8,1,5,63,98,1747889608
92,18,7,Jits_ISO_8,2,5,80,127,1747979672
92,18,7,Jits_ISO_8,3,5,56,103,1747989944
92,18,7,Jits_ISO_8,0,1,48,60,1748607708
92,18,7,Jits_ISO_8,1,5,63,98,1748629924
92,18,7,Jits_ISO_8,2,5,80,127,1748679980
92,18,7,Jits_ISO_8,3,5,56,103,1748739532
92,18,7,Jits_ISO_8,0,5,56,103,1749460496
92,18,7,Jits_ISO_8,1,1,48,50,1749472612
92,18,7,Jits_ISO_8,2,5,80,127,1749509648
92,18,7,Jits_ISO_8,3,5,63,98,1749529884
92,18,7,Jits_ISO_8,0,1,48,45,1750230624
92,18,7,Jits_ISO_8,1,5,56,103,1750231888
92,18,7,Jits_ISO_8,2,5,80,127,1750289664
92,18,7,Jits_ISO_8,3,5,63,98,1750360528
92,18,7,Jits_ISO_8,0,1,48,57,1751027988
92,18,7,Jits_ISO_8,1,5,56,103,1751030028
92,18,7,Jits_ISO_8,2,5,80,127,1751059780
92,18,7,Jits_ISO_8,3,5,63,98,1751089456
92,18,7,Jits_ISO_8,0,1,48,52,1751814340
92,18,7,Jits_ISO_8,1,5,56,103,1751869816
92,18,7,Jits_ISO_8,2,5,80,127,1751890348
92,18,7,Jits_ISO_8,3,5,63,98,1751949628
92,18,7,Jits_ISO_8,0,1,48,62,1752676532
92,18,7,Jits_ISO_8,1,5,80,127,1752749640
92,18,7,Jits_ISO_8,2,5,56,103,1752759836
92,18,7,Jits_ISO_8,3,5,63,98,1752770620
92,18,7,Jits_ISO_8,0,1,48,43,1753468196
92,18,7,Jits_ISO_8,1,5,56,103,1753510324
92,18,7,Jits_ISO_8,2,5,80,127,1753550336
92,18,7,Jits_ISO_8,3,5,63,98,1753579848
92,18,7,Jits_ISO_8,0,1,48,54,1754248508
92,18,7,Jits_ISO_8,1,5,56,103,1754280516
92,18,7,Jits_ISO_8,2,5,63,98,1754309896
92,18,7,Jits_ISO_8,3,5,80,127,1754349820
92,18,7,Jits_ISO_8,0,1,48,55,1755001532
92,18,7,Jits_ISO_8,1,5,80,127,1755029732
92,18,7,Jits_ISO_8,2,5,63,98,1755080156
92,18,7,Jits_ISO_8,3,5,56,103,1755099480
92,18,7,Jits_ISO_8,0,1,48,47,1755782572
92,18,7,Jits_ISO_8,1,5,56,103,1755860516
92,18,7,Jits_ISO_8,2,5,80,127,1755929888
92,18,7,Jits_ISO_8,3,5,63,98,1755990356
92,18,7,Jits_ISO_8,0,1,48,40,1756623860
92,18,7,Jits_ISO_8,1,5,80,127,1756660080
92,18,7,Jits_ISO_8,2,5,63,98,1756750276
92,18,7,Jits_ISO_8,3,5,56,103,1756769616
92,18,7,Jits_ISO_8,0,1,48,54,1757473624
92,18,7,Jits_ISO_8,1,5,63,98,1757480472
92,18,7,Jits_ISO_8,2,5,56,103,1757499740
92,18,7,Jits_ISO_8,3,5,80,127,1757539676
92,18,7,Jits_ISO_8,4,1,48,16,1757759160
92,18,7,Jits_ISO_8,0,5,80,127,1758240400
92,18,7,Jits_ISO_8,1,1,48,41,1758252884
92,18,7,Jits_ISO_8,2,5,63,98,1758259584
92,18,7,Jits_ISO_8,3,5,56,103,1758339476
92,18,7,Jits_ISO_8,0,5,63,98,1759029556
92,18,7,Jits_ISO_8,1,1,48,54,1759071108
92,18,7,Jits_ISO_8,2,5,56,103,1759140236
92,18,7,Jits_ISO_8,3,5,80,127,1759143304
92,18,7,Jits_ISO_8,0,1,48,54,1759834760
92,18,7,Jits_ISO_8,1,5,63,98,1759849704
92,18,7,Jits_ISO_8,2,5,56,103,1759860344
92,18,7,Jits_ISO_8,3,5,80,127,1759863264
92,18,7,Jits_ISO_8,0,1,48,50,1760592928
92,18,7,Jits_ISO_8,1,5,56,103,1760630264
92,18,7,Jits_ISO_8,2,5,80,127,1760749932
92,18,7,Jits_ISO_8,3,5,63,98,1760789868
92,18,7,Jits_ISO_8,0,1,48,54,1761398336
92,18,7,Jits_ISO_8,1,5,56,103,1761450452
92,18,7,Jits_ISO_8,2,5,80,127,1761530384
92,18,7,Jits_ISO_8,3,5,63,98,1761549724
92,18,7,Jits_ISO_8,0,1,48,51,1762234840
92,18,7,Jits_ISO_8,1,5,56,103,1762250232
92,18,7,Jits_ISO_8,2,5,63,98,1762359756
92,18,7,Jits_ISO_8,3,5,80,127,1762363268
92,18,7,Jits_ISO_8,0,1,48,57,1762995656
92,18,7,Jits_ISO_8,1,5,56,103,1763079680
92,18,7,Jits_ISO_8,2,5,80,127,1763110460
92,18,7,Jits_ISO_8,3,5,63,98,1763129652
92,18,7,Jits_ISO_8,0,1,48,58,1763826452
92,18,7,Jits_ISO_8,1,5,63,98,1763859904
92,18,7,Jits_ISO_8,2,5,56,103,1763870472
92,18,7,Jits_ISO_8,3,5,80,127,1763880296
92,18,7,Jits_ISO_8,0,1,48,45,1764585028
92,18,7,Jits_ISO_8,1,5,80,127,1764650248
92,18,7,Jits_ISO_8,2,5,56,103,1764699388
92,18,7,Jits_ISO_8,3,5,63,98,1764739352
92,18,7,Jits_ISO_8,0,1,48,53,1765404216
92,18,7,Jits_ISO_8,1,5,80,127,1765469580
92,18,7,Jits_ISO_8,2,5,63,98,1765490340
92,18,7,Jits_ISO_8,3,5,56,103,1765540252
92,18,7,Jits_ISO_8,0,1,48,56,1766197568
92,18,7,Jits_ISO_8,1,5,80,127,1766279652
92,18,7,Jits_ISO_8,2,5,56,103,1766310436
92,18,7,Jits_ISO_8,3,5,63,98,1766379820
92,18,7,Jits_ISO_8,0,1,48,56,1767001320
92,18,7,Jits_ISO_8,1,5,56,103,1767129400
92,18,7,Jits_ISO_8,2,5,80,127,1767139896
92,18,7,Jits_ISO_8,3,5,63,98,1767179612
92,18,7,Jits_ISO_8,0,5,56,103,1767840276
92,18,7,Jits_ISO_8,1,5,63,98,1767859464
92,18,7,Jits_ISO_8,2,1,48,46,1767891500
92,18,7,Jits_ISO_8,3,5,80,127,1767930408
92,18,7,Jits_ISO_8,0,5,63,98,1768660364
92,18,7,Jits_ISO_8,1,1,48,38,1768676212
92,18,7,Jits_ISO_8,2,5,80,127,1768719704
92,18,7,Jits_ISO_8,3,5,56,103,1768740460
92,18,7,Jits_ISO_8,0,5,80,127,1769449960
92,18,7,Jits_ISO_8,1,1,48,61,1769450924
92,18,7,Jits_ISO_8,2,5,56,103,1769479556
92,18,7,Jits_ISO_8,3,5,63,98,1769510352
92,18,7,Jits_ISO_8,0,1,48,50,1770203268
92,18,7,Jits_ISO_8,1,5,56,103,1770249600
92,18,7,Jits_ISO_8,2,5,63,98,1770310200
92,18,7,Jits_ISO_8,3,5,80,127,1770370540
92,18,7,Jits_ISO_8,0,5,80,127,1771070216
92,18,7,Jits_ISO_8,1,5,56,103,1771090304
92,18,7,Jits_ISO_8,2,1,48,62,1771101592
92,18,7,Jits_ISO_8,3,5,63,98,1771159780
92,18,7,Jits_ISO_8,0,5,80,127,1771869420
92,18,7,Jits_ISO_8,1,5,63,98,1771890176
92,18,7,Jits_ISO_8,2,5,56,103,1771919656
92,18,7,Jits_ISO_8,3,1,48,49,1771937444
92,18,7,Jits_ISO_8,0,5,80,127,1772660224
92,18,7,Jits_ISO_8,1,5,63,98,1772679512
92,18,7,Jits_ISO_8,2,1,48,66,1772716340
92,18,7,Jits_ISO_8,3,5,56,103,1772740192
92,18,7,Jits_ISO_8,0,5,80,127,1773459972
92,18,7,Jits_ISO_8,1,1,48,59,1773505568
92,18,7,Jits_ISO_8,2,5,56,103,1773560288
92,18,7,Jits_ISO_8,3,5,63,98,1773589892
92,18,7,Jits_ISO_8,0,5,63,98,1774250480
92,18,7,Jits_ISO_8,1,1,48,41,1774289496
92,18,7,Jits_ISO_8,2,5,80,127,1774299408
92,18,7,Jits_ISO_8,3,5,56,103,1774320240
92,18,7,Jits_ISO_8,0,1,48,56,1775016796
92,18,7,Jits_ISO_8,1,5,80,127,1775090108
92,18,7,Jits_ISO_8,2,5,56,103,1775119768
92,18,7,Jits_ISO_8,3,5,63,98,1775122984
92,18,7,Jits_ISO_8,0,1,48,51,1775820332
92,18,7,Jits_ISO_8,1,5,63,98,1775919468
92,18,7,Jits_ISO_8,2,5,56,103,1775960456
92,18,7,Jits_ISO_8,3,5,80,127,1775980092
92,18,7,Jits_ISO_8,0,1,48,60,1776654436
92,18,7,Jits_ISO_8,1,5,80,127,1776659784
92,18,7,Jits_ISO_8,2,5,63,98,1776739660
92,18,7,Jits_ISO_8,3,5,56,103,1776779608
92,18,7,Jits_ISO_8,0,5,63,98,1777480256
92,18,7,Jits_ISO_8,1,1,48,60,1777501360
92,18,7,Jits_ISO_8,2,5,80,127,1777560072
92,18,7,Jits_ISO_8,3,5,56,103,1777580456
92,18,7,Jits_ISO_8,0,1,48,58,1778268256
92,18,7,Jits_ISO_8,1,5,56,103,1778319848
92,18,7,Jits_ISO_8,2,5,63,98,1778330268
92,18,7,Jits_ISO_8,3,5,80,127,1778370040
92,18,7,Jits_ISO_8,0,5,56,103,1779039596
92,18,7,Jits_ISO_8,1,5,80,127,1779042740
92,18,7,Jits_ISO_8,2,1,48,51,1779059128
92,18,7,Jits_ISO_8,3,5,63,98,1779180000
92,18,7,Jits_ISO_8,0,5,56,103,1779830244
92,18,7,Jits_ISO_8,1,1,48,58,1779839736
92,18,7,Jits_ISO_8,2,5,63,98,1779920224
92,18,7,Jits_ISO_8,3,5,80,127,1779989964
92,18,7,Jits_ISO_8,4,1,48,14,1780054584
92,18,7,Jits_ISO_8,0,1,48,60,1780632856
92,18,7,Jits_ISO_8,1,5,63,98,1780709600
92,18,7,Jits_ISO_8,2,5,80,127,1780713264
92,18,7,Jits_ISO_8,3,5,56,103,1780770276
92,18,7,Jits_ISO_8,0,1,48,53,1781541196
92,18,7,Jits_ISO_8,1,5,80,127,1781549388
92,18,7,Jits_ISO_8,2,5,56,103,1781570220
92,18,7,Jits_ISO_8,3,5,63,98,1781580268
92,18,7,Jits_ISO_8,0,5,56,103,1782260176
92,18,7,Jits_ISO_8,1,5,63,98,1782270300
92,18,7,Jits_ISO_8,2,5,80,127,1782340200
92,18,7,Jits_ISO_8,3,1,48,52,1782359880
92,18,7,Jits_ISO_8,0,5,80,127,1783059972
92,18,7,Jits_ISO_8,1,5,56,103,1783110100
92,18,7,Jits_ISO_8,2,1,48,57,1783148140
92,18,7,Jits_ISO_8,3,5,63,98,1783160172
92,18,7,Jits_ISO_8,0,1,48,58,1783915396
92,18,7,Jits_ISO_8,1,5,56,103,1783939436
92,18,7,Jits_ISO_8,2,5,63,98,1783949780
92,18,7,Jits_ISO_8,3,5,80,127,1783989572
92,18,7,Jits_ISO_8,0,5,56,103,1784679940
92,18,7,Jits_ISO_8,1,5,63,98,1784719908
92,18,7,Jits_ISO_8,2,1,48,58,1784733512
92,18,7,Jits_ISO_8,3,5,80,127,1784770324
92,18,7,Jits_ISO_8,0,5,80,127,1785439732
92,18,7,Jits_ISO_8,1,5,56,103,1785489964
92,18,7,Jits_ISO_8,2,5,63,98,1785510200
92,18,7,Jits_ISO_8,3,1,48,50,1785549884
92,18,7,Jits_ISO_8,0,5,80,127,1786249596
92,18,7,Jits_ISO_8,1,5,63,98,1786309988
92,18,7,Jits_ISO_8,2,1,48,50,1786320008
92,18,7,Jits_ISO_8,3,5,56,103,1786390076
92,18,7,Jits_ISO_8,0,5,80,127,1787030140
92,18,7,Jits_ISO_8,1,5,56,103,1787069928
92,18,7,Jits_ISO_8,2,5,63,98,1787090164
92,18,7,Jits_ISO_8,3,1,48,58,1787109992
92,18,7,Jits_ISO_8,0,1,48,55,1787817368
92,18,7,Jits_ISO_8,1,5,56,103,1787879892
92,18,7,Jits_ISO_8,2,5,80,127,1787890236
92,18,7,Jits_ISO_8,3,5,63,98,1787929940
92,18,7,Jits_ISO_8,0,1,48,46,1788602408
92,18,7,Jits_ISO_8,1,5,56,103,1788750168
92,18,7,Jits_ISO_8,2,5,63,98,1788790280
92,18,7,Jits_ISO_8,3,5,80,127,1788793644
92,18,7,Jits_ISO_8,0,1,48,47,1789428640
92,18,7,Jits_ISO_8,1,5,63,98,1789440276
92,18,7,Jits_ISO_8,2,5,80,127,1789480220
92,18,7,Jits_ISO_8,3,5,56,103,1789550032
92,18,7,Jits_ISO_8,0,5,63,98,1790229952
92,18,7,Jits_ISO_8,1,1,48,54,1790275700
92,18,7,Jits_ISO_8,2,5,56,103,1790309892
92,18,7,Jits_ISO_8,3,5,80,127,1790370084
92,18,7,Jits_ISO_8,0,1,48,56,1791036960
92,18,7,Jits_ISO_8,1,5,80,127,1791040068
92,18,7,Jits_ISO_8,2,5,63,98,1791089972
92,18,7,Jits_ISO_8,3,5,56,103,1791119820
92,18,7,Jits_ISO_8,0,1,48,55,1791827000
92,18,7,Jits_ISO_8,1,5,56,103,1791830408
92,18,7,Jits_ISO_8,2,5,63,98,1791879664
92,18,7,Jits_ISO_8,3,5,80,127,1791889860
92,18,7,Jits_ISO_8,0,1,48,47,1792613080
92,18,7,Jits_ISO_8,1,5,56,103,1792640328
92,18,7,Jits_ISO_8,2,5,63,98,1792749856
92,18,7,Jits_ISO_8,3,5,80,127,1792770392
92,18,7,Jits_ISO_8,0,5,63,98,1793440048
92,18,7,Jits_ISO_8,1,1,48,50,1793478608
92,18,7,Jits_ISO_8,2,5,80,127,1793490172
92,18,7,Jits_ISO_8,3,5,56,103,1793580364
92,18,7,Jits_ISO_8,0,5,63,98,1794229780
92,18,7,Jits_ISO_8,1,5,80,127,1794260280
92,18,7,Jits_ISO_8,2,1,48,62,1794305724
92,18,7,Jits_ISO_8,3,5,56,103,1794349284
92,18,7,Jits_ISO_8,0,5,63,98,1795030384
92,18,7,Jits_ISO_8,1,5,56,103,1795039536
92,18,7,Jits_ISO_8,2,1,48,65,1795067368
92,18,7,Jits_ISO_8,3,5,80,127,1795139924
92,18,7,Jits_ISO_8,0,1,48,61,1795841892
92,18,7,Jits_ISO_8,1,5,63,98,1795929660
92,18,7,Jits_ISO_8,2,5,80,127,1795960168
92,18,7,Jits_ISO_8,3,5,56,103,1795989772
92,18,7,Jits_ISO_8,0,1,48,61,1796642804
92,18,7,Jits_ISO_8,1,5,80,127,1796749764
92,18,7,Jits_ISO_8,2,5,63,98,1796759888
92,18,7,Jits_ISO_8,3,5,56,103,1796789564
92,18,7,Jits_ISO_8,0,1,48,53,1797434508
92,18,7,Jits_ISO_8,1,5,80,127,1797449972
92,18,7,Jits_ISO_8,2,5,63,98,1797469756
92,18,7,Jits_ISO_8,3,5,56,103,1797519836
92,18,7,Jits_ISO_8,0,5,63,98,1798279752
92,18,7,Jits_ISO_8,1,1,48,59,1798303924
92,18,7,Jits_ISO_8,2,5,80,127,1798340064
92,18,7,Jits_ISO_8,3,5,56,103,1798360376
92,18,7,Jits_ISO_8,0,5,63,98,1799040280
92,18,7,Jits_ISO_8,1,5,56,103,1799089512
92,18,7,Jits_ISO_8,2,5,80,127,1799100004
92,18,7,Jits_ISO_8,3,1,48,71,1799107384
92,18,7,Jits_ISO_8,0,5,56,103,1799869876
92,18,7,Jits_ISO_8,1,5,80,127,1799880072
92,18,7,Jits_ISO_8,2,1,48,62,1799909868
92,18,7,Jits_ISO_8,3,5,63,98,1799980536
92,18,7,Jits_ISO_8,0,5,80,127,1800629668
92,18,7,Jits_ISO_8,1,5,63,98,1800639792
92,18,7,Jits_ISO_8,2,1,48,54,1800711980
92,18,7,Jits_ISO_8,3,5,56,103,1800790448
92,18,7,Jits_ISO_8,0,5,63,98,1801439652
92,18,7,Jits_ISO_8,1,5,80,127,1801479744
92,18,7,Jits_ISO_8,2,1,48,71,1801521520
92,18,7,Jits_ISO_8,3,5,56,103,1801560504
92,18,7,Jits_ISO_8,0,5,56,103,1802230072
92,18,7,Jits_ISO_8,1,1,48,62,1802302496
92,18,7,Jits_ISO_8,2,5,80,127,1802329568
92,18,7,Jits_ISO_8,3,5,63,98,1802349952
92,18,7,Jits_ISO_8,0,1,48,69,1803083860
92,18,7,Jits_ISO_8,1,5,80,127,1803090328
92,18,7,Jits_ISO_8,2,5,56,103,1803099480
92,18,7,Jits_ISO_8,3,5,63,98,1803189696
92,18,7,Jits_ISO_8,0,5,56,103,1803889896
92,18,7,Jits_ISO_8,1,1,48,65,1803909032
92,18,7,Jits_ISO_8,2,5,63,98,1803910600
92,18,7,Jits_ISO_8,3,5,80,127,1803990320
92,18,7,Jits_ISO_8,0,5,63,98,1804639724
92,18,7,Jits_ISO_8,1,1,48,54,1804666236
92,18,7,Jits_ISO_8,2,5,56,103,1804729876
92,18,7,Jits_ISO_8,3,5,80,127,1804732792
92,18,7,Jits_ISO_8,0,1,48,52,1805458000
92,18,7,Jits_ISO_8,1,5,56,103,1805470156
92,18,7,Jits_ISO_8,2,5,80,127,1805529580
92,18,7,Jits_ISO_8,3,5,63,98,1805539628
92,18,7,Jits_ISO_8,0,1,48,56,1806284148
92,18,7,Jits_ISO_8,1,5,80,127,1806319920
92,18,7,Jits_ISO_8,2,5,56,103,1806330188
92,18,7,Jits_ISO_8,3,5,63,98,1806333256
92,18,7,Jits_ISO_8,0,1,48,50,1807021816
92,18,7,Jits_ISO_8,1,5,56,103,1807079836
92,18,7,Jits_ISO_8,2,5,80,127,1807089960
92,18,7,Jits_ISO_8,3,5,63,98,1807109816
92,18,7,Jits_ISO_8,0,1,48,64,1807764424
92,18,7,Jits_ISO_8,1,5,63,98,1807849724
92,18,7,Jits_ISO_8,2,5,80,127,1807910324
92,18,7,Jits_ISO_8,3,5,56,103,1807960824
92,18,7,Jits_ISO_8,0,1,48,44,1808553572
92,18,7,Jits_ISO_8,1,5,63,98,1808729588
92,18,7,Jits_ISO_8,2,5,56,103,1808739784
92,18,7,Jits_ISO_8,3,5,80,127,1808789860
92,18,7,Jits_ISO_8,0,1,48,53,1809374716
92,18,7,Jits_ISO_8,1,5,63,98,1809429964
92,18,7,Jits_ISO_8,2,5,80,127,1809450572
92,18,7,Jits_ISO_8,3,5,56,103,1809459724
92,18,7,Jits_ISO_8,0,1,48,54,1810163032
92,18,7,Jits_ISO_8,1,5,63,98,1810229740
92,18,7,Jits_ISO_8,2,5,80,127,1810232952
92,18,7,Jits_ISO_8,3,5,56,103,1810269736
92,18,7,Jits_ISO_8,0,1,48,53,1810912520
92,18,7,Jits_ISO_8,1,5,63,98,1811100020
92,18,7,Jits_ISO_8,2,5,80,127,1811129768
92,18,7,Jits_ISO_8,3,5,56,103,1811139816
92,18,7,Jits_ISO_8,0,1,48,55,1811769028
92,18,7,Jits_ISO_8,1,5,56,103,1811849620
92,18,7,Jits_ISO_8,2,5,80,127,1811880404
92,18,7,Jits_ISO_8,3,5,63,98,1811910076
92,18,7,Jits_ISO_8,0,1,48,52,1812560784
92,18,7,Jits_ISO_8,1,5,63,98,1812749780
92,18,7,Jits_ISO_8,2,5,56,103,1812789644
92,18,7,Jits_ISO_8,3,5,80,127,1812792712
92,18,7,Jits_ISO_8,0,1,48,56,1813407708
92,18,7,Jits_ISO_8,1,5,80,127,1813450080
92,18,7,Jits_ISO_8,2,5,56,103,1813529940
92,18,7,Jits_ISO_8,3,5,63,98,1813580140
92,18,7,Jits_ISO_8,0,5,80,127,1814230320
92,18,7,Jits_ISO_8,1,1,48,33,1814249808
92,18,7,Jits_ISO_8,2,5,56,103,1814251144
92,18,7,Jits_ISO_8,3,5,63,98,1814340004
92,18,7,Jits_ISO_8,0,1,48,54,1815067528
92,18,7,Jits_ISO_8,1,5,80,127,1815070116
92,18,7,Jits_ISO_8,2,5,63,98,1815109980
92,18,7,Jits_ISO_8,3,5,56,103,1815149996
92,18,7,Jits_ISO_8,0,5,63,98,1815840088
92,18,7,Jits_ISO_8,1,1,48,60,1815892504
92,18,7,Jits_ISO_8,2,5,80,127,1815899572
92,18,7,Jits_ISO_8,3,5,56,103,1815930172
92,18,7,Jits_ISO_8,0,5,56,103,1816639792
92,18,7,Jits_ISO_8,1,5,80,127,1816669544
92,18,7,Jits_ISO_8,2,1,48,51,1816688400
92,18,7,Jits_ISO_8,3,5,63,98,1816759696
92,18,7,Jits_ISO_8,0,5,56,103,1817449780
92,18,7,Jits_ISO_8,1,1,48,56,1817485884
92,18,7,Jits_ISO_8,2,5,80,127,1817560540
92,18,7,Jits_ISO_8,3,5,63,98,1817590124
92,18,7,Jits_ISO_8,0,1,48,57,1818292580
92,18,7,Jits_ISO_8,1,5,56,103,1818299728
92,18,7,Jits_ISO_8,2,5,63,98,1818360268
92,18,7,Jits_ISO_8,3,5,80,127,1818389928
92,18,7,Jits_ISO_8,0,5,56,103,1819069780
92,18,7,Jits_ISO_8,1,5,63,98,1819139612
92,18,7,Jits_ISO_8,2,5,80,127,1819159848
92,18,7,Jits_ISO_8,0,1,48,55,1819829460
92,18,7,Jits_ISO_8,1,5,80,127,1819840044
92,18,7,Jits_ISO_8,2,5,63,98,1819860580
92,18,7,Jits_ISO_8,3,5,56,103,1819909436
92,18,7,Jits_ISO_8,0,9999,9999,9999,1725107320
92,18,7,Jits_ISO_8,1,9999,9999,9999,1725908068
92,18,7,Jits_ISO_8,2,9999,9999,9999,1726707768
92,18,7,Jits_ISO_8,3,9999,9999,9999,1727507564
92,18,7,Jits_ISO_8,4,9999,9999,9999,1728307268
92,18,7,Jits_ISO_8,5,9999,9999,9999,1729108028
92,18,7,Jits_ISO_8,6,9999,9999,9999,1729907804
92,18,7,Jits_ISO_8,7,9999,9999,9999,1730707532
92,18,7,Jits_ISO_8,8,9999,9999,9999,1731507324
92,18,7,Jits_ISO_8,9,9999,9999,9999,1732308036
92,18,7,Jits_ISO_8,10,9999,9999,9999,1733107828
92,18,7,Jits_ISO_8,11,9999,9999,9999,1733907540
92,18,7,Jits_ISO_8,12,9999,9999,9999,1734707252
92,18,7,Jits_ISO_8,13,9999,9999,9999,1735508080
92,18,7,Jits_ISO_8,14,9999,9999,9999,1736307776
92,18,7,Jits_ISO_8,15,9999,9999,9999,1737107572
92,18,7,Jits_ISO_8,16,9999,9999,9999,1737907264
92,18,7,Jits_ISO_8,17,9999,9999,9999,1738708072
92,18,7,Jits_ISO_8,18,9999,9999,9999,1739507788
92,18,7,Jits_ISO_8,19,9999,9999,9999,1740307512
92,18,7,Jits_ISO_8,20,9999,9999,9999,1741107296
92,18,7,Jits_ISO_8,21,9999,9999,9999,1741908048
92,18,7,Jits_ISO_8,22,9999,9999,9999,1742707764
92,18,7,Jits_ISO_8,23,9999,9999,9999,1743507568
92,18,7,Jits_ISO_8,24,9999,9999,9999,1744307280
92,18,7,Jits_ISO_8,25,9999,9999,9999,1745108036
92,18,7,Jits_ISO_8,26,9999,9999,9999,1745907820
92,18,7,Jits_ISO_8,27,9999,9999,9999,1746707528
92,18,7,Jits_ISO_8,28,9999,9999,9999,1747507252
92,18,7,Jits_ISO_8,29,9999,9999,9999,1748308084
92,18,7,Jits_ISO_8,30,9999,9999,9999,1749107792
92,18,7,Jits_ISO_8,31,9999,9999,9999,1749907520
92,18,7,Jits_ISO_8,32,9999,9999,9999,1750707316
92,18,7,Jits_ISO_8,33,9999,9999,9999,1751508064
92,18,7,Jits_ISO_8,34,9999,9999,9999,1752307776
92,18,7,Jits_ISO_8,35,9999,9999,9999,1753107568
92,18,7,Jits_ISO_8,36,9999,9999,9999,1753907284
92,18,7,Jits_ISO_8,37,9999,9999,9999,1754708040
92,18,7,Jits_ISO_8,38,9999,9999,9999,1755507820
92,18,7,Jits_ISO_8,39,9999,9999,9999,1756307548
92,18,7,Jits_ISO_8,40,9999,9999,9999,1757107264
92,18,7,Jits_ISO_8,41,9999,9999,9999,1757908072
92,18,7,Jits_ISO_8,42,9999,9999,9999,1758707796
92,18,7,Jits_ISO_8,43,9999,9999,9999,1759507512
92,18,7,Jits_ISO_8,44,9999,9999,9999,1760307252
92,18,7,Jits_ISO_8,45,9999,9999,9999,1761108088
92,18,7,Jits_ISO_8,46,9999,9999,9999,1761907796
92,18,7,Jits_ISO_8,47,9999,9999,9999,1762707516
92,18,7,Jits_ISO_8,48,9999,9999,9999,1763507304
92,18,7,Jits_ISO_8,49,9999,9999,9999,1764308052
92,18,7,Jits_ISO_8,50,9999,9999,9999,1765107836
92,18,7,Jits_ISO_8,51,9999,9999,9999,1765907544
92,18,7,Jits_ISO_8,52,9999,9999,9999,1766707256
92,18,7,Jits_ISO_8,53,9999,9999,9999,1767508092
92,18,7,Jits_ISO_8,54,9999,9999,9999,1768307796
92,18,7,Jits_ISO_8,55,9999,9999,9999,1769107536
92,18,7,Jits_ISO_8,56,9999,9999,9999,1769907316
92,18,7,Jits_ISO_8,57,9999,9999,9999,1770708092
92,18,7,Jits_ISO_8,58,9999,9999,9999,1771507800
92,18,7,Jits_ISO_8,59,9999,9999,9999,1772307520
92,18,7,Jits_ISO_8,60,9999,9999,9999,1773107320
92,18,7,Jits_ISO_8,61,9999,9999,9999,1773908020
92,18,7,Jits_ISO_8,62,9999,9999,9999,1774707816
92,18,7,Jits_ISO_8,63,9999,9999,9999,1775507536
92,18,7,Jits_ISO_8,64,9999,9999,9999,1776307252
92,18,7,Jits_ISO_8,65,9999,9999,9999,1777108088
92,18,7,Jits_ISO_8,66,9999,9999,9999,1777907800
92,18,7,Jits_ISO_8,67,9999,9999,9999,1778707516
92,18,7,Jits_ISO_8,68,9999,9999,9999,1779507284
92,18,7,Jits_ISO_8,69,9999,9999,9999,1780308084
92,18,7,Jits_ISO_8,70,9999,9999,9999,1781107824
92,18,7,Jits_ISO_8,71,9999,9999,9999,1781907564
92,18,7,Jits_ISO_8,72,9999,9999,9999,1782707272
92,18,7,Jits_ISO_8,73,9999,9999,9999,1783508040
92,18,7,Jits_ISO_8,74,9999,9999,9999,1784307776
92,18,7,Jits_ISO_8,75,9999,9999,9999,1785107560
92,18,7,Jits_ISO_8,76,9999,9999,9999,1785907280
92,18,7,Jits_ISO_8,77,9999,9999,9999,1786708056
92,18,7,Jits_ISO_8,78,9999,9999,9999,1787507772
92,18,7,Jits_ISO_8,79,9999,9999,9999,1788307516
92,18,7,Jits_ISO_8,80,9999,9999,9999,1789107304
92,18,7,Jits_ISO_8,81,9999,9999,9999,1789908056
92,18,7,Jits_ISO_8,82,9999,9999,9999,1790707764
92,18,7,Jits_ISO_8,83,9999,9999,9999,1791507548
92,18,7,Jits_ISO_8,84,9999,9999,9999,1792307252
92,18,7,Jits_ISO_8,85,9999,9999,9999,1793108088
92,18,7,Jits_ISO_8,86,9999,9999,9999,1793907796
92,18,7,Jits_ISO_8,87,9999,9999,9999,1794707516
92,18,7,Jits_ISO_8,88,9999,9999,9999,1795507296
92,18,7,Jits_ISO_8,89,9999,9999,9999,1796308064
92,18,7,Jits_ISO_8,90,9999,9999,9999,1797107780
92,18,7,Jits_ISO_8,91,9999,9999,9999,1797907560
92,18,7,Jits_ISO_8,92,9999,9999,9999,1798707272
92,18,7,Jits_ISO_8,93,9999,9999,9999,1799508024
92,18,7,Jits_ISO_8,94,9999,9999,9999,1800307808
92,18,7,Jits_ISO_8,95,9999,9999,9999,1801107556
92,18,7,Jits_ISO_8,96,9999,9999,9999,1801907276
92,18,7,Jits_ISO_8,97,9999,9999,9999,1802708036
92,18,7,Jits_ISO_8,98,9999,9999,9999,1803507764
92,18,7,Jits_ISO_8,99,9999,9999,9999,1804307552
92,18,7,Jits_ISO_8,100,9999,9999,9999,1805107264
92,18,7,Jits_ISO_8,101,9999,9999,9999,1805908024
92,18,7,Jits_ISO_8,102,9999,9999,9999,1806707800
92,18,7,Jits_ISO_8,103,9999,9999,9999,1807507532
92,18,7,Jits_ISO_8,104,9999,9999,9999,1808307316
92,18,7,Jits_ISO_8,105,9999,9999,9999,1809108080
92,18,7,Jits_ISO_8,106,9999,9999,9999,1809907776
92,18,7,Jits_ISO_8,107,9999,9999,9999,1810707544
92,18,7,Jits_ISO_8,108,9999,9999,9999,1811507256
92,18,7,Jits_ISO_8,109,9999,9999,9999,1812308080
92,18,7,Jits_ISO_8,110,9999,9999,9999,1813107792
92,18,7,Jits_ISO_8,111,9999,9999,9999,1813907524
92,18,7,Jits_ISO_8,112,9999,9999,9999,1814707304
92,18,7,Jits_ISO_8,113,9999,9999,9999,1815508080
92,18,7,Jits_ISO_8,114,9999,9999,9999,1816307784
92,18,7,Jits_ISO_8,115,9999,9999,9999,1817107564
92,18,7,Jits_ISO_8,116,9999,9999,9999,1817907296
92,18,7,Jits_ISO_8,117,9999,9999,9999,1818708072
92,18,7,Jits_ISO_8,118,9999,9999,9999,1819507812
92,18,7,Jits_ISO_8,119,9999,9999,9999,1820307524
92,19,16,Jits_ISO_5,0,1,38,27,1827960844
92,19,16,Jits_ISO_5,1,5,56,103,1828212252
92,19,16,Jits_ISO_5,2,5,63,98,1828215428
92,19,16,Jits_ISO_5,3,5,80,127,1828218472
92,19,16,Jits_ISO_5,0,5,56,103,1828711736
92,19,16,Jits_ISO_5,1,5,63,98,1828714760
92,19,16,Jits_ISO_5,2,5,80,127,1828717880
92,19,16,Jits_ISO_5,0,5,56,103,1829211476
92,19,16,Jits_ISO_5,1,5,80,127,1829221744
92,19,16,Jits_ISO_5,2,5,63,98,1829242376
92,19,16,Jits_ISO_5,0,5,63,98,1829662364
92,19,16,Jits_ISO_5,1,5,80,127,1829691888
92,19,16,Jits_ISO_5,2,5,56,103,1829702084
92,19,16,Jits_ISO_5,0,1,48,49,1830165724
92,19,16,Jits_ISO_5,1,5,80,127,1830222392
92,19,16,Jits_ISO_5,2,5,56,103,1830232440
92,19,16,Jits_ISO_5,3,5,63,98,1830262196
92,19,16,Jits_ISO_5,0,5,63,98,1830711872
92,19,16,Jits_ISO_5,1,5,56,103,1830742372
92,19,16,Jits_ISO_5,2,1,48,57,1830745040
92,19,16,Jits_ISO_5,3,5,80,127,1830751588
92,19,16,Jits_ISO_5,0,5,56,103,1831162464
92,19,16,Jits_ISO_5,1,5,63,98,1831212368
92,19,16,Jits_ISO_5,2,5,80,127,1831231852
92,19,16,Jits_ISO_5,3,1,48,53,1831236992
92,19,16,Jits_ISO_5,0,5,80,127,1831661988
92,19,16,Jits_ISO_5,1,1,48,54,1831704140
92,19,16,Jits_ISO_5,2,5,63,98,1831712256
92,19,16,Jits_ISO_5,3,5,56,103,1831752192
92,19,16,Jits_ISO_5,0,5,56,103,1832161588
92,19,16,Jits_ISO_5,1,5,63,98,1832192312
92,19,16,Jits_ISO_5,2,1,48,46,1832250576
92,19,16,Jits_ISO_5,3,5,80,127,1832262056
92,19,16,Jits_ISO_5,0,5,56,103,1832662460
92,19,16,Jits_ISO_5,1,5,80,127,1832721652
92,19,16,Jits_ISO_5,2,1,48,49,1832728432
92,19,16,Jits_ISO_5,3,5,63,98,1832751392
92,19,16,Jits_ISO_5,0,5,56,103,1833181684
92,19,16,Jits_ISO_5,1,5,63,98,1833191884
92,19,16,Jits_ISO_5,2,5,80,127,1833231668
92,19,16,Jits_ISO_5,3,1,48,47,1833233232
92,19,16,Jits_ISO_5,0,5,63,98,1833671992
92,19,16,Jits_ISO_5,1,1,48,54,1833735348
92,19,16,Jits_ISO_5,2,5,80,127,1833751856
92,19,16,Jits_ISO_5,3,5,56,103,1833762348
92,19,16,Jits_ISO_5,0,1,48,52,1834207652
92,19,16,Jits_ISO_5,1,5,63,98,1834221996
92,19,16,Jits_ISO_5,2,5,56,103,1834261856
92,19,16,Jits_ISO_5,3,5,80,127,1834264996
92,19,16,Jits_ISO_5,0,5,56,103,1834681800
92,19,16,Jits_ISO_5,1,5,63,98,1834691844
92,19,16,Jits_ISO_5,2,5,80,127,1834731932
92,19,16,Jits_ISO_5,3,1,48,58,1834733048
92,19,16,Jits_ISO_5,0,5,56,103,1835172404
92,19,16,Jits_ISO_5,1,5,63,98,1835175468
92,19,16,Jits_ISO_5,2,5,80,127,1835191592
92,19,16,Jits_ISO_5,3,1,48,59,1835210972
92,19,16,Jits_ISO_5,0,5,80,127,1835682396
92,19,16,Jits_ISO_5,1,5,56,103,1835692372
92,19,16,Jits_ISO_5,2,1,48,60,1835696164
92,19,16,Jits_ISO_5,3,5,63,98,1835762188
92,19,16,Jits_ISO_5,0,5,63,98,1836171584
92,19,16,Jits_ISO_5,1,1,48,60,1836188624
92,19,16,Jits_ISO_5,2,5,56,103,1836192332
92,19,16,Jits_ISO_5,3,5,80,127,1836272124
92,19,16,Jits_ISO_5,0,1,48,54,1836679460
92,19,16,Jits_ISO_5,1,5,56,103,1836681496
92,19,16,Jits_ISO_5,2,5,80,127,1836721508
92,19,16,Jits_ISO_5,3,5,63,98,1836731704
92,19,16,Jits_ISO_5,0,5,80,127,1837172392
92,19,16,Jits_ISO_5,1,1,48,43,1837194768
92,19,16,Jits_ISO_5,2,5,63,98,1837201836
92,19,16,Jits_ISO_5,3,5,56,103,1837241624
92,19,16,Jits_ISO_5,0,5,56,103,1837692292
92,19,16,Jits_ISO_5,1,5,63,98,1837721816
92,19,16,Jits_ISO_5,2,1,48,49,1837725308
92,19,16,Jits_ISO_5,3,5,80,127,1837772232
92,19,16,Jits_ISO_5,0,5,80,127,1838192016
92,19,16,Jits_ISO_5,1,1,48,60,1838214716
92,19,16,Jits_ISO_5,2,5,56,103,1838231824
92,19,16,Jits_ISO_5,3,5,63,98,1838242392
92,19,16,Jits_ISO_5,0,5,80,127,1838672432
92,19,16,Jits_ISO_5,1,5,63,98,1838712248
92,19,16,Jits_ISO_5,2,1,48,62,1838727204
92,19,16,Jits_ISO_5,3,5,56,103,1838771580
92,19,16,Jits_ISO_5,0,5,56,103,1839171960
92,19,16,Jits_ISO_5,1,5,80,127,1839182452
92,19,16,Jits_ISO_5,2,1,48,49,1839197928
92,19,16,Jits_ISO_5,3,5,63,98,1839262036
92,19,16,Jits_ISO_5,0,5,80,127,1839671772
92,19,16,Jits_ISO_5,1,1,48,55,1839730648
92,19,16,Jits_ISO_5,2,5,63,98,1839732256
92,19,16,Jits_ISO_5,3,5,56,103,1839761780
92,19,16,Jits_ISO_5,0,5,56,103,1840172348
92,19,16,Jits_ISO_5,1,5,80,127,1840231764
92,19,16,Jits_ISO_5,2,1,48,60,1840234588
92,19,16,Jits_ISO_5,3,5,63,98,1840271720
92,19,16,Jits_ISO_5,0,1,48,54,1840707796
92,19,16,Jits_ISO_5,1,5,56,103,1840731576
92,19,16,Jits_ISO_5,2,5,63,98,1840741844
92,19,16,Jits_ISO_5,3,5,80,127,1840745432
92,19,16,Jits_ISO_5,0,5,80,127,1841182304
92,19,16,Jits_ISO_5,1,1,48,56,1841218084
92,19,16,Jits_ISO_5,2,5,63,98,1841272232
92,19,16,Jits_ISO_5,3,5,56,103,1841282428
92,19,16,Jits_ISO_5,0,5,56,103,1841681964
92,19,16,Jits_ISO_5,1,5,63,98,1841684912
92,19,16,Jits_ISO_5,2,5,80,127,1841688332
92,19,16,Jits_ISO_5,3,1,48,63,1841732440
92,19,16,Jits_ISO_5,0,5,80,127,1842202080
92,19,16,Jits_ISO_5,1,1,48,68,1842250928
92,19,16,Jits_ISO_5,2,5,63,98,1842252424
92,19,16,Jits_ISO_5,3,5,56,103,1842281948
92,19,16,Jits_ISO_5,0,5,56,103,1842682352
92,19,16,Jits_ISO_5,1,5,80,127,1842691424
92,19,16,Jits_ISO_5,2,5,63,98,1842762076
92,19,16,Jits_ISO_5,3,1,48,54,1842771936
92,19,16,Jits_ISO_5,0,5,56,103,1843192360
92,19,16,Jits_ISO_5,1,5,63,98,1843211772
92,19,16,Jits_ISO_5,2,1,48,41,1843260600
92,19,16,Jits_ISO_5,3,5,80,127,1843272152
92,19,16,Jits_ISO_5,0,5,80,127,1843681624
92,19,16,Jits_ISO_5,1,1,48,55,1843744600
92,19,16,Jits_ISO_5,2,5,63,98,1843752268
92,19,16,Jits_ISO_5,3,5,56,103,1843771680
92,19,16,Jits_ISO_5,0,5,80,127,1844202044
92,19,16,Jits_ISO_5,1,5,56,103,1844212244
92,19,16,Jits_ISO_5,2,5,63,98,1844222440
92,19,16,Jits_ISO_5,3,1,48,52,1844276868
92,19,16,Jits_ISO_5,0,5,80,127,1844701420
92,19,16,Jits_ISO_5,1,5,56,103,1844722176
92,19,16,Jits_ISO_5,2,1,48,59,1844766640
92,19,16,Jits_ISO_5,3,5,63,98,1844791548
92,19,16,Jits_ISO_5,0,5,56,103,1845211504
92,19,16,Jits_ISO_5,1,5,80,127,1845242300
92,19,16,Jits_ISO_5,2,1,48,55,1845248636
92,19,16,Jits_ISO_5,3,5,63,98,1845261704
92,19,16,Jits_ISO_5,0,5,63,98,1845702112
92,19,16,Jits_ISO_5,1,1,48,55,1845735500
92,19,16,Jits_ISO_5,2,5,56,103,1845762348
92,19,16,Jits_ISO_5,3,5,80,127,1845792092
92,19,16,Jits_ISO_5,0,5,63,98,1846191432
92,19,16,Jits_ISO_5,1,5,80,127,1846194648
92,19,16,Jits_ISO_5,2,1,48,58,1846225192
92,19,16,Jits_ISO_5,3,5,56,103,1846281552
92,19,16,Jits_ISO_5,0,5,56,103,1846711532
92,19,16,Jits_ISO_5,1,1,48,57,1846721552
92,19,16,Jits_ISO_5,2,5,63,98,1846742472
92,19,16,Jits_ISO_5,3,5,80,127,1846782332
92,19,16,Jits_ISO_5,0,5,63,98,1847212332
92,19,16,Jits_ISO_5,1,1,48,59,1847249304
92,19,16,Jits_ISO_5,2,5,56,103,1847252408
92,19,16,Jits_ISO_5,3,5,80,127,1847271672
92,19,16,Jits_ISO_5,0,5,63,98,1847722328
92,19,16,Jits_ISO_5,1,1,48,52,1847759672
92,19,16,Jits_ISO_5,2,5,56,103,1847762260
92,19,16,Jits_ISO_5,3,5,80,127,1847771408
92,19,16,Jits_ISO_5,0,5,80,127,1848201532
92,19,16,Jits_ISO_5,1,1,48,60,1848252680
92,19,16,Jits_ISO_5,2,5,63,98,1848272252
92,19,16,Jits_ISO_5,3,5,56,103,1848291588
92,19,16,Jits_ISO_5,0,5,56,103,1848692288
92,19,16,Jits_ISO_5,1,5,80,127,1848711476
92,19,16,Jits_ISO_5,2,5,63,98,1848751564
92,19,16,Jits_ISO_5,3,1,48,36,1848767408
92,19,16,Jits_ISO_5,0,5,63,98,1849202268
92,19,16,Jits_ISO_5,1,5,80,127,1849221484
92,19,16,Jits_ISO_5,2,1,48,55,1849232172
92,19,16,Jits_ISO_5,3,5,56,103,1849261416
92,19,16,Jits_ISO_5,0,1,48,57,1849694628
92,19,16,Jits_ISO_5,1,5,63,98,1849701700
92,19,16,Jits_ISO_5,2,5,56,103,1849722184
92,19,16,Jits_ISO_5,3,5,80,127,1849731480
92,19,16,Jits_ISO_5,0,1,48,44,1850182676
92,19,16,Jits_ISO_5,1,5,80,127,1850201356
92,19,16,Jits_ISO_5,2,5,56,103,1850222112
92,19,16,Jits_ISO_5,3,5,63,98,1850251808
92,19,16,Jits_ISO_5,0,1,48,49,1850691096
92,19,16,Jits_ISO_5,1,5,56,103,1850771904
92,19,16,Jits_ISO_5,2,5,80,127,1850775044
92,19,16,Jits_ISO_5,3,5,63,98,1850792420
92,19,16,Jits_ISO_5,0,5,63,98,1851191524
92,19,16,Jits_ISO_5,1,1,48,54,1851215688
92,19,16,Jits_ISO_5,2,5,56,103,1851222388
92,19,16,Jits_ISO_5,3,5,80,127,1851281752
92,19,16,Jits_ISO_5,0,1,48,58,1851682680
92,19,16,Jits_ISO_5,1,5,63,98,1851772408
92,19,16,Jits_ISO_5,2,5,56,103,1851781468
92,19,16,Jits_ISO_5,3,5,80,127,1851791664
92,19,16,Jits_ISO_5,0,1,48,64,1852232120
92,19,16,Jits_ISO_5,1,5,56,103,1852233460
92,19,16,Jits_ISO_5,2,5,80,127,1852261788
92,19,16,Jits_ISO_5,3,5,63,98,1852272208
92,19,16,Jits_ISO_5,0,1,48,62,1852764264
92,19,16,Jits_ISO_5,1,5,63,98,1852771632
92,19,16,Jits_ISO_5,2,5,56,103,1852781904
92,19,16,Jits_ISO_5,3,5,80,127,1852802388
92,19,16,Jits_ISO_5,0,5,56,103,1853202072
92,19,16,Jits_ISO_5,1,1,48,54,1853256504
92,19,16,Jits_ISO_5,2,5,63,98,1853262376
92,19,16,Jits_ISO_5,3,5,80,127,1853265444
92,19,16,Jits_ISO_5,0,5,80,127,1853722040
92,19,16,Jits_ISO_5,1,5,56,103,1853732160
92,19,16,Jits_ISO_5,2,1,48,65,1853785992
92,19,16,Jits_ISO_5,3,5,63,98,1853801980
92,19,16,Jits_ISO_5,0,5,80,127,1854211524
92,19,16,Jits_ISO_5,1,1,48,58,1854264764
92,19,16,Jits_ISO_5,2,5,56,103,1854282096
92,19,16,Jits_ISO_5,3,5,63,98,1854292364
92,19,16,Jits_ISO_5,0,5,63,98,1854752100
92,19,16,Jits_ISO_5,1,1,48,50,1854753068
92,19,16,Jits_ISO_5,2,5,56,103,1854762292
92,19,16,Jits_ISO_5,3,5,80,127,1854781924
92,19,16,Jits_ISO_5,0,5,80,127,1855201640
92,19,16,Jits_ISO_5,1,1,48,58,1855234800
92,19,16,Jits_ISO_5,2,5,63,98,1855262244
92,19,16,Jits_ISO_5,3,5,56,103,1855302108
92,19,16,Jits_ISO_5,0,5,56,103,1855742296
92,19,16,Jits_ISO_5,1,5,63,98,1855751444
92,19,16,Jits_ISO_5,2,1,48,35,1855757028
92,19,16,Jits_ISO_5,3,5,80,127,1855791448
92,19,16,Jits_ISO_5,0,1,48,59,1856210484
92,19,16,Jits_ISO_5,1,5,56,103,1856212368
92,19,16,Jits_ISO_5,2,5,80,127,1856241896
92,19,16,Jits_ISO_5,3,5,63,98,1856292168
92,19,16,Jits_ISO_5,0,5,56,103,1856751964
92,19,16,Jits_ISO_5,1,1,48,58,1856774192
92,19,16,Jits_ISO_5,2,5,63,98,1856792044
92,19,16,Jits_ISO_5,3,5,80,127,1856795108
92,19,16,Jits_ISO_5,0,5,56,103,1857251632
92,19,16,Jits_ISO_5,1,5,63,98,1857262200
92,19,16,Jits_ISO_5,2,1,48,54,1857276848
92,19,16,Jits_ISO_5,3,5,80,127,1857282428
92,19,16,Jits_ISO_5,0,5,56,103,1857711596
92,19,16,Jits_ISO_5,1,5,80,127,1857714660
92,19,16,Jits_ISO_5,2,5,63,98,1857752432
92,19,16,Jits_ISO_5,3,1,48,57,1857757116
92,19,16,Jits_ISO_5,0,1,48,59,1858223060
92,19,16,Jits_ISO_5,1,5,63,98,1858252232
92,19,16,Jits_ISO_5,2,5,56,103,1858281980
92,19,16,Jits_ISO_5,3,5,80,127,1858302216
92,19,16,Jits_ISO_5,0,5,80,127,1858722228
92,19,16,Jits_ISO_5,1,5,56,103,1858732500
92,19,16,Jits_ISO_5,2,5,63,98,1858741572
92,19,16,Jits_ISO_5,3,1,48,59,1858765144
92,19,16,Jits_ISO_5,0,5,56,103,1859222048
92,19,16,Jits_ISO_5,1,1,48,54,1859238048
92,19,16,Jits_ISO_5,2,5,80,127,1859262128
92,19,16,Jits_ISO_5,3,5,63,98,1859291504
92,19,16,Jits_ISO_5,0,5,63,98,1859731836
92,19,16,Jits_ISO_5,1,5,80,127,1859742108
92,19,16,Jits_ISO_5,2,5,56,103,1859752452
92,19,16,Jits_ISO_5,3,1,48,54,1859761272
92,19,16,Jits_ISO_5,0,5,56,103,1860212236
92,19,16,Jits_ISO_5,1,1,48,70,1860213804
92,19,16,Jits_ISO_5,2,5,63,98,1860281688
92,19,16,Jits_ISO_5,3,5,80,127,1860291880
92,19,16,Jits_ISO_5,0,5,80,127,1860711960
92,19,16,Jits_ISO_5,1,5,56,103,1860722008
92,19,16,Jits_ISO_5,2,1,48,62,1860732692
92,19,16,Jits_ISO_5,3,5,63,98,1860772272
92,19,16,Jits_ISO_5,0,1,48,68,1861218756
92,19,16,Jits_ISO_5,1,5,80,127,1861222012
92,19,16,Jits_ISO_5,2,5,56,103,1861282128
92,19,16,Jits_ISO_5,3,5,63,98,1861311860
92,19,16,Jits_ISO_5,0,5,56,103,1861721384
92,19,16,Jits_ISO_5,1,5,80,127,1861724300
92,19,16,Jits_ISO_5,2,1,48,64,1861739396
92,19,16,Jits_ISO_5,3,5,63,98,1861762384
92,19,16,Jits_ISO_5,0,1,48,74,1862200932
92,19,16,Jits_ISO_5,1,5,56,103,1862252048
92,19,16,Jits_ISO_5,2,5,63,98,1862281528
92,19,16,Jits_ISO_5,3,5,80,127,1862292976
92,19,16,Jits_ISO_5,0,1,48,107,1862736916
92,19,16,Jits_ISO_5,1,5,63,98,1862761968
92,19,16,Jits_ISO_5,2,5,80,127,1862772040
92,19,16,Jits_ISO_5,3,5,56,103,1862782384
92,19,16,Jits_ISO_5,0,5,80,127,1863212436
92,19,16,Jits_ISO_5,1,5,56,103,1863261512
92,19,16,Jits_ISO_5,2,5,63,98,1863264728
92,19,16,Jits_ISO_5,3,1,48,68,1863268292
92,19,16,Jits_ISO_5,0,1,48,56,1863731624
92,19,16,Jits_ISO_5,1,5,56,103,1863752100
92,19,16,Jits_ISO_5,2,5,80,127,1863771364
92,19,16,Jits_ISO_5,3,5,63,98,1863782152
92,19,16,Jits_ISO_5,0,1,48,60,1864216360
92,19,16,Jits_ISO_5,1,5,63,98,1864232276
92,19,16,Jits_ISO_5,2,5,56,103,1864261952
92,19,16,Jits_ISO_5,3,5,80,127,1864281512
92,19,16,Jits_ISO_5,0,5,56,103,1864742200
92,19,16,Jits_ISO_5,1,5,80,127,1864751424
92,19,16,Jits_ISO_5,2,1,48,47,1864762492
92,19,16,Jits_ISO_5,3,5,63,98,1864822092
92,19,16,Jits_ISO_5,0,5,63,98,1865231836
92,19,16,Jits_ISO_5,1,5,80,127,1865271996
92,19,16,Jits_ISO_5,2,1,48,51,1865283736
92,19,16,Jits_ISO_5,3,5,56,103,1865311552
92,19,16,Jits_ISO_5,0,5,56,103,1865741760
92,19,16,Jits_ISO_5,1,5,63,98,1865751880
92,19,16,Jits_ISO_5,2,5,80,127,1865772340
92,19,16,Jits_ISO_5,3,1,48,45,1865789008
92,19,16,Jits_ISO_5,0,1,48,62,1866266640
92,19,16,Jits_ISO_5,1,5,63,98,1866282400
92,19,16,Jits_ISO_5,2,5,80,127,1866301816
92,19,16,Jits_ISO_5,3,5,56,103,1866322272
92,19,16,Jits_ISO_5,0,5,56,103,1866721912
92,19,16,Jits_ISO_5,1,1,48,51,1866775604
92,19,16,Jits_ISO_5,2,5,80,127,1866801628
92,19,16,Jits_ISO_5,3,5,63,98,1866811972
92,19,16,Jits_ISO_5,0,5,80,127,1867262200
92,19,16,Jits_ISO_5,1,5,63,98,1867271420
92,19,16,Jits_ISO_5,2,1,48,53,1867281736
92,19,16,Jits_ISO_5,3,5,56,103,1867302208
92,19,16,Jits_ISO_5,0,5,63,98,1867732276
92,19,16,Jits_ISO_5,1,5,80,127,1867772216
92,19,16,Jits_ISO_5,2,1,48,57,1867781708
92,19,16,Jits_ISO_5,3,5,56,103,1867831772
92,19,16,Jits_ISO_5,0,5,63,98,1868242352
92,19,16,Jits_ISO_5,1,1,48,49,1868269680
92,19,16,Jits_ISO_5,2,5,56,103,1868291424
92,19,16,Jits_ISO_5,3,5,80,127,1868322144
92,19,16,Jits_ISO_5,0,5,80,127,1868752348
92,19,16,Jits_ISO_5,1,1,48,62,1868756588
92,19,16,Jits_ISO_5,2,5,63,98,1868761416
92,19,16,Jits_ISO_5,3,5,56,103,1868831992
92,19,16,Jits_ISO_5,0,1,48,61,1869264428
92,19,16,Jits_ISO_5,1,5,80,127,1869321544
92,19,16,Jits_ISO_5,2,5,56,103,1869332036
92,19,16,Jits_ISO_5,3,5,63,98,1869334880
92,19,16,Jits_ISO_5,0,5,56,103,1869761872
92,19,16,Jits_ISO_5,1,5,80,127,1869782328
92,19,16,Jits_ISO_5,2,5,63,98,1869791776
92,19,16,Jits_ISO_5,3,1,48,63,1869803664
92,19,16,Jits_ISO_5,0,5,63,98,1870271808
92,19,16,Jits_ISO_5,1,1,48,61,1870300408
92,19,16,Jits_ISO_5,2,5,56,103,1870311736
92,19,16,Jits_ISO_5,3,5,80,127,1870332344
92,19,16,Jits_ISO_5,0,1,48,57,1870756900
92,19,16,Jits_ISO_5,1,5,63,98,1870771688
92,19,16,Jits_ISO_5,2,5,56,103,1870831844
92,19,16,Jits_ISO_5,3,5,80,127,1870834916
92,19,16,Jits_ISO_5,0,5,56,103,1871232240
92,19,16,Jits_ISO_5,1,5,80,127,1871251876
92,19,16,Jits_ISO_5,2,5,63,98,1871292036
92,19,16,Jits_ISO_5,3,1,48,69,1871334708
92,19,16,Jits_ISO_5,0,5,56,103,1871761804
92,19,16,Jits_ISO_5,1,1,48,65,1871780908
92,19,16,Jits_ISO_5,2,5,63,98,1871782404
92,19,16,Jits_ISO_5,3,5,80,127,1871791404
92,19,16,Jits_ISO_5,0,5,80,127,1872231932
92,19,16,Jits_ISO_5,1,5,56,103,1872261632
92,19,16,Jits_ISO_5,2,1,48,61,1872284304
92,19,16,Jits_ISO_5,3,5,63,98,1872301412
92,19,16,Jits_ISO_5,0,5,80,127,1872741868
92,19,16,Jits_ISO_5,1,5,56,103,1872762128
92,19,16,Jits_ISO_5,2,1,48,56,1872764796
92,19,16,Jits_ISO_5,3,5,63,98,1872821684
92,19,16,Jits_ISO_5,0,5,56,103,1873251656
92,19,16,Jits_ISO_5,1,5,80,127,1873272212
92,19,16,Jits_ISO_5,2,1,48,67,1873289260
92,19,16,Jits_ISO_5,3,5,63,98,1873331692
92,19,16,Jits_ISO_5,0,5,80,127,1873731928
92,19,16,Jits_ISO_5,1,1,48,55,1873734444
92,19,16,Jits_ISO_5,2,5,56,103,1873742188
92,19,16,Jits_ISO_5,3,5,63,98,1873782076
92,19,16,Jits_ISO_5,0,5,63,98,1874231812
92,19,16,Jits_ISO_5,1,1,48,50,1874266248
92,19,16,Jits_ISO_5,2,5,56,103,1874271596
92,19,16,Jits_ISO_5,3,5,80,127,1874274588
92,19,16,Jits_ISO_5,0,1,48,47,1874730756
92,19,16,Jits_ISO_5,1,5,63,98,1874751832
92,19,16,Jits_ISO_5,2,5,80,127,1874791920
92,19,16,Jits_ISO_5,3,5,56,103,1874821468
92,19,16,Jits_ISO_5,0,1,48,52,1875244348
92,19,16,Jits_ISO_5,1,5,56,103,1875251716
92,19,16,Jits_ISO_5,2,5,63,98,1875261764
92,19,16,Jits_ISO_5,3,5,80,127,1875291736
92,19,16,Jits_ISO_5,0,5,80,127,1875742016
92,19,16,Jits_ISO_5,1,1,48,41,1875770764
92,19,16,Jits_ISO_5,2,5,63,98,1875811840
92,19,16,Jits_ISO_5,3,5,56,103,1875822036
92,19,16,Jits_ISO_5,0,5,63,98,1876241916
92,19,16,Jits_ISO_5,1,1,48,43,1876286688
92,19,16,Jits_ISO_5,2,5,56,103,1876312340
92,19,16,Jits_ISO_5,3,5,80,127,1876321784
92,19,16,Jits_ISO_5,0,5,63,98,1876741428
92,19,16,Jits_ISO_5,1,1,48,45,1876751292
92,19,16,Jits_ISO_5,2,5,56,103,1876762028
92,19,16,Jits_ISO_5,3,5,80,127,1876801964
92,19,16,Jits_ISO_5,0,1,48,56,1877244716
92,19,16,Jits_ISO_5,1,5,56,103,1877251564
92,19,16,Jits_ISO_5,2,5,63,98,1877261760
92,19,16,Jits_ISO_5,3,5,80,127,1877341684
92,19,16,Jits_ISO_5,0,1,48,51,1877728492
92,19,16,Jits_ISO_5,1,5,63,98,1877741860
92,19,16,Jits_ISO_5,2,5,56,103,1877771832
92,19,16,Jits_ISO_5,3,5,80,127,1877811692
92,19,16,Jits_ISO_5,0,1,48,50,1878218856
92,19,16,Jits_ISO_5,1,5,56,103,1878241816
92,19,16,Jits_ISO_5,2,5,63,98,1878281676
92,19,16,Jits_ISO_5,3,5,80,127,1878321600
92,19,16,Jits_ISO_5,0,5,80,127,1878742528
92,19,16,Jits_ISO_5,1,1,48,49,1878746016
92,19,16,Jits_ISO_5,2,5,56,103,1878822240
92,19,16,Jits_ISO_5,3,5,63,98,1878831612
92,19,16,Jits_ISO_5,0,1,48,55,1879262704
92,19,16,Jits_ISO_5,1,5,56,103,1879292316
92,19,16,Jits_ISO_5,2,5,63,98,1879295460
92,19,16,Jits_ISO_5,3,5,80,127,1879301912
92,19,16,Jits_ISO_5,0,1,48,53,1879744968
92,19,16,Jits_ISO_5,1,5,56,103,1879811672
92,19,16,Jits_ISO_5,2,1,48,26,1879831896
92,19,16,Jits_ISO_5,3,5,63,98,1879833084
92,19,16,Jits_ISO_5,4,5,80,127,1879842084
92,19,16,Jits_ISO_5,0,5,63,98,1880272248
92,19,16,Jits_ISO_5,1,1,48,52,1880275072
92,19,16,Jits_ISO_5,2,5,80,127,1880281616
92,19,16,Jits_ISO_5,3,5,56,103,1880301924
92,19,16,Jits_ISO_5,4,1,48,31,1880345924
92,19,16,Jits_ISO_5,0,5,63,98,1880772068
92,19,16,Jits_ISO_5,1,1,48,54,1880793176
92,19,16,Jits_ISO_5,2,5,56,103,1880851780
92,19,16,Jits_ISO_5,3,5,80,127,1880854844
92,19,16,Jits_ISO_5,0,5,63,98,1881271648
92,19,16,Jits_ISO_5,1,1,48,53,1881292476
92,19,16,Jits_ISO_5,2,5,56,103,1881293816
92,19,16,Jits_ISO_5,3,5,80,127,1881321700
92,19,16,Jits_ISO_5,0,5,56,103,1881772580
92,19,16,Jits_ISO_5,1,5,63,98,1881791840
92,19,16,Jits_ISO_5,2,5,80,127,1881802036
92,19,16,Jits_ISO_5,3,1,48,49,1881810184
92,19,16,Jits_ISO_5,0,1,48,53,1882285700
92,19,16,Jits_ISO_5,1,5,56,103,1882301692
92,19,16,Jits_ISO_5,2,5,63,98,1882331660
92,19,16,Jits_ISO_5,3,5,80,127,1882334804
92,19,16,Jits_ISO_5,0,5,56,103,1882752500
92,19,16,Jits_ISO_5,1,1,48,47,1882775624
92,19,16,Jits_ISO_5,2,5,63,98,1882792428
92,19,16,Jits_ISO_5,3,5,80,127,1882851696
92,19,16,Jits_ISO_5,0,5,56,103,1883271652
92,19,16,Jits_ISO_5,1,5,63,98,1883281776
92,19,16,Jits_ISO_5,2,1,48,38,1883299788
92,19,16,Jits_ISO_5,3,5,80,127,1883342080
92,19,16,Jits_ISO_5,0,5,56,103,1883772300
92,19,16,Jits_ISO_5,1,1,48,49,1883773712
92,19,16,Jits_ISO_5,2,5,80,127,1883791780
92,19,16,Jits_ISO_5,3,5,63,98,1883821604
92,19,16,Jits_ISO_5,0,1,48,56,1884272100
92,19,16,Jits_ISO_5,1,5,80,127,1884273612
92,19,16,Jits_ISO_5,2,5,56,103,1884282164
92,19,16,Jits_ISO_5,3,5,63,98,1884301724
92,19,16,Jits_ISO_5,0,1,48,51,1884761040
92,19,16,Jits_ISO_5,1,5,63,98,1884762680
92,19,16,Jits_ISO_5,2,5,80,127,1884842424
92,19,16,Jits_ISO_5,3,5,56,103,1884851648
92,19,16,Jits_ISO_5,0,1,48,52,1885288008
92,19,16,Jits_ISO_5,1,5,80,127,1885321780
92,19,16,Jits_ISO_5,2,5,56,103,1885342016
92,19,16,Jits_ISO_5,3,5,63,98,1885345156
92,19,16,Jits_ISO_5,0,5,63,98,1885791664
92,19,16,Jits_ISO_5,1,5,80,127,1885795028
92,19,16,Jits_ISO_5,2,1,48,48,1885810848
92,19,16,Jits_ISO_5,3,5,56,103,1885851996
92,19,16,Jits_ISO_5,0,5,56,103,1886271840
92,19,16,Jits_ISO_5,1,5,80,127,1886282036
92,19,16,Jits_ISO_5,2,5,63,98,1886321996
92,19,16,Jits_ISO_5,3,1,48,57,1886352540
92,19,16,Jits_ISO_5,0,5,56,103,1886762372
92,19,16,Jits_ISO_5,1,1,48,51,1886792536
92,19,16,Jits_ISO_5,2,5,63,98,1886821708
92,19,16,Jits_ISO_5,3,5,80,127,1886831976
92,19,16,Jits_ISO_5,0,5,63,98,1887272308
92,19,16,Jits_ISO_5,1,1,48,51,1887306140
92,19,16,Jits_ISO_5,2,5,80,127,1887312092
92,19,16,Jits_ISO_5,3,5,56,103,1887352276
92,19,16,Jits_ISO_5,0,1,48,57,1887754928
92,19,16,Jits_ISO_5,1,5,56,103,1887771964
92,19,16,Jits_ISO_5,2,5,63,98,1887851816
92,19,16,Jits_ISO_5,3,5,80,127,1887855104
92,19,16,Jits_ISO_5,0,9999,9999,9999,1828459580
92,19,16,Jits_ISO_5,1,9999,9999,9999,1828959312
92,19,16,Jits_ISO_5,2,9999,9999,9999,1829460028
92,19,16,Jits_ISO_5,3,9999,9999,9999,1829959764
92,19,16,Jits_ISO_5,4,9999,9999,9999,1830459472
92,19,16,Jits_ISO_5,5,9999,9999,9999,1830959212
92,19,16,Jits_ISO_5,6,9999,9999,9999,1831459916
92,19,16,Jits_ISO_5,7,9999,9999,9999,1831959668
92,19,16,Jits_ISO_5,8,9999,9999,9999,1832459340
92,19,16,Jits_ISO_5,9,9999,9999,9999,1832960060
92,19,16,Jits_ISO_5,10,9999,9999,9999,1833470072
92,19,16,Jits_ISO_5,11,9999,9999,9999,1833969748
92,19,16,Jits_ISO_5,12,9999,9999,9999,1834469476
92,19,16,Jits_ISO_5,13,9999,9999,9999,1834969140
92,19,16,Jits_ISO_5,14,9999,9999,9999,1835469916
92,19,16,Jits_ISO_5,15,9999,9999,9999,1835969588
92,19,16,Jits_ISO_5,16,9999,9999,9999,1836469336
92,19,16,Jits_ISO_5,17,9999,9999,9999,1836970036
92,19,16,Jits_ISO_5,18,9999,9999,9999,1837469768
92,19,16,Jits_ISO_5,19,9999,9999,9999,1837969520
92,19,16,Jits_ISO_5,20,9999,9999,9999,1838469196
92,19,16,Jits_ISO_5,21,9999,9999,9999,1838969916
92,19,16,Jits_ISO_5,22,9999,9999,9999,1839469636
92,19,16,Jits_ISO_5,23,9999,9999,9999,1839969376
92,19,16,Jits_ISO_5,24,9999,9999,9999,1840470100
92,19,16,Jits_ISO_5,25,9999,9999,9999,1840980028
92,19,16,Jits_ISO_5,26,9999,9999,9999,1841479764
92,19,16,Jits_ISO_5,27,9999,9999,9999,1841979488
92,19,16,Jits_ISO_5,28,9999,9999,9999,1842479164
92,19,16,Jits_ISO_5,29,9999,9999,9999,1842979952
92,19,16,Jits_ISO_5,30,9999,9999,9999,1843479628
92,19,16,Jits_ISO_5,31,9999,9999,9999,1843979380
92,19,16,Jits_ISO_5,32,9999,9999,9999,1844480096
92,19,16,Jits_ISO_5,33,9999,9999,9999,1844990028
92,19,16,Jits_ISO_5,34,9999,9999,9999,1845489780
92,19,16,Jits_ISO_5,35,9999,9999,9999,1845989456
92,19,16,Jits_ISO_5,36,9999,9999,9999,1846489176
92,19,16,Jits_ISO_5,37,9999,9999,9999,1846989884
92,19,16,Jits_ISO_5,38,9999,9999,9999,1847489632
92,19,16,Jits_ISO_5,39,9999,9999,9999,1847989368
92,19,16,Jits_ISO_5,40,9999,9999,9999,1848490072
92,19,16,Jits_ISO_5,41,9999,9999,9999,1848989816
92,19,16,Jits_ISO_5,42,9999,9999,9999,1849489488
92,19,16,Jits_ISO_5,43,9999,9999,9999,1849989216
92,19,16,Jits_ISO_5,44,9999,9999,9999,1850489920
92,19,16,Jits_ISO_5,45,9999,9999,9999,1850989624
92,19,16,Jits_ISO_5,46,9999,9999,9999,1851489352
92,19,16,Jits_ISO_5,47,9999,9999,9999,1851990136
92,19,16,Jits_ISO_5,48,9999,9999,9999,1852500060
92,19,16,Jits_ISO_5,49,9999,9999,9999,1852999796
92,19,16,Jits_ISO_5,50,9999,9999,9999,1853499444
92,19,16,Jits_ISO_5,51,9999,9999,9999,1853999192
92,19,16,Jits_ISO_5,52,9999,9999,9999,1854499912
92,19,16,Jits_ISO_5,53,9999,9999,9999,1854999664
92,19,16,Jits_ISO_5,54,9999,9999,9999,1855499324
92,19,16,Jits_ISO_5,55,9999,9999,9999,1856000116
92,19,16,Jits_ISO_5,56,9999,9999,9999,1856510056
92,19,16,Jits_ISO_5,57,9999,9999,9999,1857009780
92,19,16,Jits_ISO_5,58,9999,9999,9999,1857509452
92,19,16,Jits_ISO_5,59,9999,9999,9999,1858009188
92,19,16,Jits_ISO_5,60,9999,9999,9999,1858509912
92,19,16,Jits_ISO_5,61,9999,9999,9999,1859009644
92,19,16,Jits_ISO_5,62,9999,9999,9999,1859509316
92,19,16,Jits_ISO_5,63,9999,9999,9999,1860010108
92,19,16,Jits_ISO_5,64,9999,9999,9999,1860509768
92,19,16,Jits_ISO_5,65,9999,9999,9999,1861009488
92,19,16,Jits_ISO_5,66,9999,9999,9999,1861509240
92,19,16,Jits_ISO_5,67,9999,9999,9999,1862009932
92,19,16,Jits_ISO_5,68,9999,9999,9999,1862509656
92,19,16,Jits_ISO_5,69,9999,9999,9999,1863009388
92,19,16,Jits_ISO_5,70,9999,9999,9999,1863510104
92,19,16,Jits_ISO_5,71,9999,9999,9999,1864020040
92,19,16,Jits_ISO_5,72,9999,9999,9999,1864519772
92,19,16,Jits_ISO_5,73,9999,9999,9999,1865019504
92,19,16,Jits_ISO_5,74,9999,9999,9999,1865519176
92,19,16,Jits_ISO_5,75,9999,9999,9999,1866019956
92,19,16,Jits_ISO_5,76,9999,9999,9999,1866519636
92,19,16,Jits_ISO_5,77,9999,9999,9999,1867019372
92,19,16,Jits_ISO_5,78,9999,9999,9999,1867520096
92,19,16,Jits_ISO_5,79,9999,9999,9999,1868030032
92,19,16,Jits_ISO_5,80,9999,9999,9999,1868529768
92,19,16,Jits_ISO_5,81,9999,9999,9999,1869029428
92,19,16,Jits_ISO_5,82,9999,9999,9999,1869529176
92,19,16,Jits_ISO_5,83,9999,9999,9999,1870029880
92,19,16,Jits_ISO_5,84,9999,9999,9999,1870529632
92,19,16,Jits_ISO_5,85,9999,9999,9999,1871029364
92,19,16,Jits_ISO_5,86,9999,9999,9999,1871530064
92,19,16,Jits_ISO_5,87,9999,9999,9999,1872029812
92,19,16,Jits_ISO_5,88,9999,9999,9999,1872529484
92,19,16,Jits_ISO_5,89,9999,9999,9999,1873029232
92,19,16,Jits_ISO_5,90,9999,9999,9999,1873529956
92,19,16,Jits_ISO_5,91,9999,9999,9999,1874029676
92,19,16,Jits_ISO_5,92,9999,9999,9999,1874529332
92,19,16,Jits_ISO_5,93,9999,9999,9999,1875030116
92,19,16,Jits_ISO_5,94,9999,9999,9999,1875540036
92,19,16,Jits_ISO_5,95,9999,9999,9999,1876039772
92,19,16,Jits_ISO_5,96,9999,9999,9999,1876539444
92,19,16,Jits_ISO_5,97,9999,9999,9999,1877039180
92,19,16,Jits_ISO_5,98,9999,9999,9999,1877539960
92,19,16,Jits_ISO_5,99,9999,9999,9999,1878039620
92,19,16,Jits_ISO_5,100,9999,9999,9999,1878539352
92,19,16,Jits_ISO_5,101,9999,9999,9999,1879040060
92,19,16,Jits_ISO_5,102,9999,9999,9999,1879550064
92,19,16,Jits_ISO_5,103,9999,9999,9999,1880049780
92,19,16,Jits_ISO_5,104,9999,9999,9999,1880549452
92,19,16,Jits_ISO_5,105,9999,9999,9999,1881049140
92,19,16,Jits_ISO_5,106,9999,9999,9999,1881549920
92,19,16,Jits_ISO_5,107,9999,9999,9999,1882049652
92,19,16,Jits_ISO_5,108,9999,9999,9999,1882549324
92,19,16,Jits_ISO_5,109,9999,9999,9999,1883050104
92,19,16,Jits_ISO_5,110,9999,9999,9999,1883549776
92,19,16,Jits_ISO_5,111,9999,9999,9999,1884049528
92,19,16,Jits_ISO_5,112,9999,9999,9999,1884549200
92,19,16,Jits_ISO_5,113,9999,9999,9999,1885049908
92,19,16,Jits_ISO_5,114,9999,9999,9999,1885549688
92,19,16,Jits_ISO_5,115,9999,9999,9999,1886049332
92,19,16,Jits_ISO_5,116,9999,9999,9999,1886550112
92,19,16,Jits_ISO_5,117,9999,9999,9999,1887060048
92,19,16,Jits_ISO_5,118,9999,9999,9999,1887559800
92,19,16,Jits_ISO_5,119,9999,9999,9999,1888059504
92,20,3,ISIP_8,0,5,42,127,1957972588
92,20,3,ISIP_8,1,5,42,127,1958771996
92,20,3,ISIP_8,2,1,48,27,1958951340
92,20,3,ISIP_8,3,5,42,127,1959571952
92,20,3,ISIP_8,4,1,48,35,1959597364
92,20,3,ISIP_8,5,1,48,48,1960277968
92,20,3,ISIP_8,6,5,42,127,1960371588
92,20,3,ISIP_8,7,1,48,45,1961113184
92,20,3,ISIP_8,8,5,42,127,1961172608
92,20,3,ISIP_8,9,1,48,41,1961939472
92,20,3,ISIP_8,10,5,42,127,1961971968
92,20,3,ISIP_8,11,1,48,44,1962753568
92,20,3,ISIP_8,12,5,42,127,1962771780
92,20,3,ISIP_8,13,5,42,127,1963571520
92,20,3,ISIP_8,14,1,48,47,1963574036
92,20,3,ISIP_8,15,1,48,40,1964333440
92,20,3,ISIP_8,16,5,42,127,1964372368
92,20,3,ISIP_8,17,1,48,43,1965159200
92,20,3,ISIP_8,18,5,42,127,1965171976
92,20,3,ISIP_8,19,1,48,34,1965954100
92,20,3,ISIP_8,20,5,42,127,1965971708
92,20,3,ISIP_8,21,1,48,27,1966734084
92,20,3,ISIP_8,22,5,42,127,1966771664
92,20,3,ISIP_8,23,1,48,32,1967511080
92,20,3,ISIP_8,24,5,42,127,1967572296
92,20,3,ISIP_8,25,1,48,38,1968347168
92,20,3,ISIP_8,26,5,42,127,1968372328
92,20,3,ISIP_8,27,1,48,51,1969130292
92,20,3,ISIP_8,28,5,42,127,1969171764
92,20,3,ISIP_8,29,1,48,52,1969944912
92,20,3,ISIP_8,30,5,42,127,1969971500
92,20,3,ISIP_8,31,1,48,49,1970749508
92,20,3,ISIP_8,32,5,42,127,1970772280
92,20,3,ISIP_8,33,1,48,44,1971552608
92,20,3,ISIP_8,34,5,42,127,1971572040
92,20,3,ISIP_8,35,1,48,42,1972363436
92,20,3,ISIP_8,36,5,42,127,1972371920
92,20,3,ISIP_8,37,1,48,43,1973130928
92,20,3,ISIP_8,38,5,42,127,1973171580
92,20,3,ISIP_8,39,1,48,44,1973912864
92,20,3,ISIP_8,40,5,42,127,1973972284
92,20,3,ISIP_8,41,1,48,45,1974713644
92,20,3,ISIP_8,42,5,42,127,1974772092
92,20,3,ISIP_8,43,1,48,48,1975537608
92,20,3,ISIP_8,44,5,42,127,1975571752
92,20,3,ISIP_8,45,1,48,45,1976314008
92,20,3,ISIP_8,46,5,42,127,1976371484
92,20,3,ISIP_8,47,1,48,48,1977123312
92,20,3,ISIP_8,48,5,42,127,1977172264
92,20,3,ISIP_8,49,1,48,48,1977902852
92,20,3,ISIP_8,50,5,42,127,1977972172
92,20,3,ISIP_8,51,1,48,49,1978748012
92,20,3,ISIP_8,52,5,42,127,1978771832
92,20,3,ISIP_8,53,1,48,53,1979557320
92,20,3,ISIP_8,54,5,42,127,1979571640
92,20,3,ISIP_8,55,1,48,48,1980324736
92,20,3,ISIP_8,56,5,42,127,1980372268
92,20,3,ISIP_8,57,1,48,44,1981101140
92,20,3,ISIP_8,58,5,42,127,1981172004
92,20,3,ISIP_8,59,1,48,47,1981899596
92,20,3,ISIP_8,60,1,48,43,1982718100
92,20,3,ISIP_8,61,1,48,43,1983501148
92,20,3,ISIP_8,62,1,48,47,1984292952
92,20,3,ISIP_8,63,1,48,44,1985081980
92,20,3,ISIP_8,64,1,48,43,1985856052
92,20,3,ISIP_8,65,1,48,46,1986658248
92,20,3,ISIP_8,66,1,48,45,1987437136
92,20,3,ISIP_8,67,1,48,44,1988221756
92,20,3,ISIP_8,68,1,48,48,1989027024
92,20,3,ISIP_8,69,1,48,44,1989834380
92,20,3,ISIP_8,70,1,48,44,1990622296
92,20,3,ISIP_8,71,1,48,47,1991429428
92,20,3,ISIP_8,72,1,48,45,1992200804
92,20,3,ISIP_8,73,1,48,44,1992970888
92,20,3,ISIP_8,74,1,48,46,1993738976
92,20,3,ISIP_8,75,1,48,42,1994529812
92,20,3,ISIP_8,76,1,48,43,1995287348
92,20,3,ISIP_8,77,1,48,46,1996074144
92,20,3,ISIP_8,78,1,48,49,1996897728
92,20,3,ISIP_8,79,1,48,46,1997713640
92,20,3,ISIP_8,80,1,48,48,1998529828
92,20,3,ISIP_8,81,1,48,46,1999291928
92,20,3,ISIP_8,82,1,48,42,2000037800
92,20,3,ISIP_8,83,1,48,44,2000820480
92,20,3,ISIP_8,84,1,48,42,2001637936
92,20,3,ISIP_8,85,1,48,48,2002454944
92,20,3,ISIP_8,86,1,48,43,2003262528
92,20,3,ISIP_8,87,1,48,43,2004042960
92,20,3,ISIP_8,88,1,48,51,2004833860
92,20,3,ISIP_8,89,1,48,55,2005631516
92,20,3,ISIP_8,90,1,48,55,2006365624
92,20,3,ISIP_8,91,1,48,54,2007141496
92,20,3,ISIP_8,92,1,48,47,2007936312
92,20,3,ISIP_8,93,1,48,59,2008731104
92,20,3,ISIP_8,94,1,48,53,2009524404
92,20,3,ISIP_8,95,1,48,57,2010269152
92,20,3,ISIP_8,96,1,48,52,2011091324
92,20,3,ISIP_8,97,1,48,50,2011871308
92,20,3,ISIP_8,98,1,48,53,2012669760
92,20,3,ISIP_8,99,1,48,48,2013505844
92,20,3,ISIP_8,100,1,48,49,2014253440
92,20,3,ISIP_8,101,1,48,53,2015061764
92,20,3,ISIP_8,102,1,48,49,2015833672
92,20,3,ISIP_8,103,1,48,50,2016582840
92,20,3,ISIP_8,104,1,48,48,2017351076
92,20,3,ISIP_8,105,1,48,54,2018103312
92,20,3,ISIP_8,106,1,48,50,2018851348
92,20,3,ISIP_8,107,1,48,47,2019601564
92,20,3,ISIP_8,108,1,48,53,2020400396
92,20,3,ISIP_8,109,1,48,19,2020491724
92,20,3,ISIP_8,110,1,48,51,2021221940
92,20,3,ISIP_8,111,1,48,49,2022061340
92,20,3,ISIP_8,112,1,48,44,2022864960
92,20,3,ISIP_8,113,1,48,50,2023645316
92,20,3,ISIP_8,114,1,48,40,2024437112
92,20,3,ISIP_8,115,1,48,49,2025159792
92,20,3,ISIP_8,116,1,48,49,2025924064
92,20,3,ISIP_8,117,1,48,50,2026691108
92,20,3,ISIP_8,118,1,48,47,2027476548
92,20,3,ISIP_8,119,1,48,49,2028268948
92,20,3,ISIP_8,120,1,48,51,2029055144
92,20,3,ISIP_8,121,1,48,52,2029844772
92,20,3,ISIP_8,122,1,48,53,2030603812
92,20,3,ISIP_8,123,1,48,52,2031360828
92,20,3,ISIP_8,124,1,48,43,2032109468
92,20,3,ISIP_8,125,1,48,47,2032859464
92,20,3,ISIP_8,126,1,48,48,2033604064
92,20,3,ISIP_8,127,1,48,53,2034309476
92,20,3,ISIP_8,128,1,48,54,2035097456
92,20,3,ISIP_8,129,1,48,47,2035876688
92,20,3,ISIP_8,130,1,48,49,2036654508
92,20,3,ISIP_8,131,1,48,49,2037404420
92,20,3,ISIP_8,132,1,48,52,2038197492
92,20,3,ISIP_8,133,1,48,50,2038932820
92,20,3,ISIP_8,134,1,48,41,2039719088
92,20,3,ISIP_8,135,1,48,49,2040484184
92,20,3,ISIP_8,136,1,48,56,2041250476
92,20,3,ISIP_8,137,1,48,48,2041993440
92,20,3,ISIP_8,138,1,48,51,2042743264
92,20,3,ISIP_8,139,1,48,42,2043506188
92,20,3,ISIP_8,140,1,48,51,2044229752
92,20,3,ISIP_8,141,1,48,43,2044979064
92,20,3,ISIP_8,142,1,48,46,2045711176
92,20,3,ISIP_8,143,1,48,19,2045807516
92,20,3,ISIP_8,144,1,48,46,2046400032
92,20,3,ISIP_8,145,1,48,50,2047113300
92,20,3,ISIP_8,146,1,48,46,2047849824
92,20,3,ISIP_8,147,1,48,48,2048562836
92,20,3,ISIP_8,148,1,48,46,2049369148
92,20,3,ISIP_8,149,1,48,51,2050093184
92,20,3,ISIP_8,150,1,48,54,2050868220
92,20,3,ISIP_8,151,1,48,48,2051590984
92,20,3,ISIP_8,152,1,48,45,2052390044
92,20,3,ISIP_8,153,1,48,56,2053176608
92,20,3,ISIP_8,154,1,48,54,2053875796
92,20,3,ISIP_8,155,1,48,55,2054614192
92,20,3,ISIP_8,156,1,48,50,2055397084
92,20,3,ISIP_8,157,1,48,57,2056135632
92,20,3,ISIP_8,158,1,48,50,2056873132
92,20,3,ISIP_8,159,1,48,47,2057620352
92,20,3,ISIP_8,160,1,48,49,2058361736
92,20,3,ISIP_8,161,1,48,51,2059116816
92,20,3,ISIP_8,162,1,48,47,2059887296
92,20,3,ISIP_8,163,1,48,46,2060637336
92,20,3,ISIP_8,164,1,48,45,2061384700
92,20,3,ISIP_8,165,1,48,51,2062107920
92,20,3,ISIP_8,166,1,48,44,2062814376
92,20,3,ISIP_8,167,1,48,49,2063560608
92,20,3,ISIP_8,168,1,48,49,2064281800
92,20,3,ISIP_8,169,1,48,47,2065024536
92,20,3,ISIP_8,170,1,48,47,2065752804
92,20,3,ISIP_8,171,1,48,46,2066544708
92,20,3,ISIP_8,172,1,48,45,2067271332
92,20,3,ISIP_8,173,1,48,50,2068062084
92,20,3,ISIP_8,174,1,48,50,2068754328
92,20,3,ISIP_8,175,1,48,49,2069491828
92,20,3,ISIP_8,176,1,48,48,2070202096
92,20,3,ISIP_8,177,1,48,49,2070985296
92,20,3,ISIP_8,178,1,48,50,2071736556
92,20,3,ISIP_8,179,1,48,51,2072454828
92,20,3,ISIP_8,180,1,48,48,2073204220
92,20,3,ISIP_8,181,1,48,52,2073940780
92,20,3,ISIP_8,182,1,48,46,2074658456
92,20,3,ISIP_8,183,1,48,49,2075413232
92,20,3,ISIP_8,184,1,48,46,2076147512
92,20,3,ISIP_8,185,1,48,48,2076892268
92,20,3,ISIP_8,186,1,48,45,2077616824
92,20,3,ISIP_8,0,9999,9999,9999,1957970000
92,20,3,ISIP_8,1,9999,9999,9999,1958769784
92,20,3,ISIP_8,2,9999,9999,9999,1959569516
92,20,3,ISIP_8,3,9999,9999,9999,1960369228
92,20,3,ISIP_8,4,9999,9999,9999,1961170020
92,20,3,ISIP_8,5,9999,9999,9999,1961969756
92,20,3,ISIP_8,6,9999,9999,9999,1962769492
92,20,3,ISIP_8,7,9999,9999,9999,1963569232
92,20,3,ISIP_8,8,9999,9999,9999,1964370004
92,20,3,ISIP_8,9,9999,9999,9999,1965169764
92,20,3,ISIP_8,10,9999,9999,9999,1965969496
92,20,3,ISIP_8,11,9999,9999,9999,1966769228
92,20,3,ISIP_8,12,9999,9999,9999,1967570008
92,20,3,ISIP_8,13,9999,9999,9999,1968369744
92,20,3,ISIP_8,14,9999,9999,9999,1969169480
92,20,3,ISIP_8,15,9999,9999,9999,1969969212
92,20,3,ISIP_8,16,9999,9999,9999,1970769992
92,20,3,ISIP_8,17,9999,9999,9999,1971569752
92,20,3,ISIP_8,18,9999,9999,9999,1972369484
92,20,3,ISIP_8,19,9999,9999,9999,1973169216
92,20,3,ISIP_8,20,9999,9999,9999,1973969996
92,20,3,ISIP_8,21,9999,9999,9999,1974769732
92,20,3,ISIP_8,22,9999,9999,9999,1975569464
92,20,3,ISIP_8,23,9999,9999,9999,1976369272
92,20,3,ISIP_8,24,9999,9999,9999,1977169976
92,20,3,ISIP_8,25,9999,9999,9999,1977969736
92,20,3,ISIP_8,26,9999,9999,9999,1978769468
92,20,3,ISIP_8,27,9999,9999,9999,1979569204
92,20,3,ISIP_8,28,9999,9999,9999,1980369980
92,20,3,ISIP_8,29,9999,9999,9999,1981169716
92,20,3,ISIP_8,30,9999,9999,9999,1981969524
92,20,3,ISIP_8,31,9999,9999,9999,1982769252
92,20,3,ISIP_8,32,9999,9999,9999,1983570028
92,20,3,ISIP_8,33,9999,9999,9999,1984369780
92,20,3,ISIP_8,34,9999,9999,9999,1985169512
92,20,3,ISIP_8,35,9999,9999,9999,1985969224
92,20,3,ISIP_8,36,9999,9999,9999,1986770000
92,20,3,ISIP_8,37,9999,9999,9999,1987569728
92,20,3,ISIP_8,38,9999,9999,9999,1988369456
92,20,3,ISIP_8,39,9999,9999,9999,1989169260
92,20,3,ISIP_8,40,9999,9999,9999,1989970036
92,20,3,ISIP_8,41,9999,9999,9999,1990769716
92,20,3,ISIP_8,42,9999,9999,9999,1991569520
92,20,3,ISIP_8,43,9999,9999,9999,1992369224
92,20,3,ISIP_8,44,9999,9999,9999,1993170000
92,20,3,ISIP_8,45,9999,9999,9999,1993969728
92,20,3,ISIP_8,46,9999,9999,9999,1994769460
92,20,3,ISIP_8,47,9999,9999,9999,1995569264
92,20,3,ISIP_8,48,9999,9999,9999,1996370040
92,20,3,ISIP_8,49,9999,9999,9999,1997169720
92,20,3,ISIP_8,50,9999,9999,9999,1997969520
92,20,3,ISIP_8,51,9999,9999,9999,1998769252
92,20,3,ISIP_8,52,9999,9999,9999,1999570028
92,20,3,ISIP_8,53,9999,9999,9999,2000369756
92,20,3,ISIP_8,54,9999,9999,9999,2001169484
92,20,3,ISIP_8,55,9999,9999,9999,2001969212
92,20,3,ISIP_8,56,9999,9999,9999,2002769988
92,20,3,ISIP_8,57,9999,9999,9999,2003569744
92,20,3,ISIP_8,58,9999,9999,9999,2004369472
92,20,3,ISIP_8,59,9999,9999,9999,2005169200
92,20,3,ISIP_8,60,9999,9999,9999,2005969976
92,20,3,ISIP_8,61,9999,9999,9999,2006769780
92,20,3,ISIP_8,62,9999,9999,9999,2007569512
92,20,3,ISIP_8,63,9999,9999,9999,2008369240
92,20,3,ISIP_8,64,9999,9999,9999,2009170016
92,20,3,ISIP_8,65,9999,9999,9999,2009969768
92,20,3,ISIP_8,66,9999,9999,9999,2010769500
92,20,3,ISIP_8,67,9999,9999,9999,2011569228
92,20,3,ISIP_8,68,9999,9999,9999,2012370004
92,20,3,ISIP_8,69,9999,9999,9999,2013169736
92,20,3,ISIP_8,70,9999,9999,9999,2013969464
92,20,3,ISIP_8,71,9999,9999,9999,2014769264
92,20,3,ISIP_8,72,9999,9999,9999,2015569968
92,20,3,ISIP_8,73,9999,9999,9999,2016369720
92,20,3,ISIP_8,74,9999,9999,9999,2017169524
92,20,3,ISIP_8,75,9999,9999,9999,2017969252
92,20,3,ISIP_8,76,9999,9999,9999,2018770028
92,20,3,ISIP_8,77,9999,9999,9999,2019569756
92,20,3,ISIP_8,78,9999,9999,9999,2020369484
92,20,3,ISIP_8,79,9999,9999,9999,2021169268
92,20,3,ISIP_8,80,9999,9999,9999,2021969968
92,20,3,ISIP_8,81,9999,9999,9999,2022769720
92,20,3,ISIP_8,82,9999,9999,9999,2023569524
92,20,3,ISIP_8,83,9999,9999,9999,2024369256
92,20,3,ISIP_8,84,9999,9999,9999,2025170024
92,20,3,ISIP_8,85,9999,9999,9999,2025969752
92,20,3,ISIP_8,86,9999,9999,9999,2026769484
92,20,3,ISIP_8,87,9999,9999,9999,2027569200
92,20,3,ISIP_8,88,9999,9999,9999,2028369976
92,20,3,ISIP_8,89,9999,9999,9999,2029169732
92,20,3,ISIP_8,90,9999,9999,9999,2029969460
92,20,3,ISIP_8,91,9999,9999,9999,2030769264
92,20,3,ISIP_8,92,9999,9999,9999,2031570040
92,20,3,ISIP_8,93,9999,9999,9999,2032369768
92,20,3,ISIP_8,94,9999,9999,9999,2033169496
92,20,3,ISIP_8,95,9999,9999,9999,2033969224
92,20,3,ISIP_8,96,9999,9999,9999,2034770000
92,20,3,ISIP_8,97,9999,9999,9999,2035569756
92,20,3,ISIP_8,98,9999,9999,9999,2036369484
92,20,3,ISIP_8,99,9999,9999,9999,2037169216
92,20,3,ISIP_8,100,9999,9999,9999,2037969988
92,20,3,ISIP_8,101,9999,9999,9999,2038769720
92,20,3,ISIP_8,102,9999,9999,9999,2039569524
92,20,3,ISIP_8,103,9999,9999,9999,2040369252
92,20,3,ISIP_8,104,9999,9999,9999,2041170028
92,20,3,ISIP_8,105,9999,9999,9999,2041969784
92,20,3,ISIP_8,106,9999,9999,9999,2042769504
92,20,3,ISIP_8,107,9999,9999,9999,2043569236
92,20,3,ISIP_8,108,9999,9999,9999,2044369992
92,20,3,ISIP_8,109,9999,9999,9999,2045169724
92,20,3,ISIP_8,110,9999,9999,9999,2045969504
92,20,3,ISIP_8,111,9999,9999,9999,2046769232
92,20,3,ISIP_8,112,9999,9999,9999,2047570012
92,20,3,ISIP_8,113,9999,9999,9999,2048369764
92,20,3,ISIP_8,114,9999,9999,9999,2049169492
92,20,3,ISIP_8,115,9999,9999,9999,2049969220
92,20,3,ISIP_8,116,9999,9999,9999,2050769996
92,20,3,ISIP_8,117,9999,9999,9999,2051569728
92,20,3,ISIP_8,118,9999,9999,9999,2052369456
92,20,3,ISIP_8,119,9999,9999,9999,2053169260
92,20,3,ISIP_8,120,9999,9999,9999,2053970012
92,20,3,ISIP_8,121,9999,9999,9999,2054769768
92,20,3,ISIP_8,122,9999,9999,9999,2055569496
92,20,3,ISIP_8,123,9999,9999,9999,2056369224
92,20,3,ISIP_8,124,9999,9999,9999,2057170004
92,20,3,ISIP_8,125,9999,9999,9999,2057969732
92,20,3,ISIP_8,126,9999,9999,9999,2058769460
92,20,3,ISIP_8,127,9999,9999,9999,2059569264
92,20,3,ISIP_8,128,9999,9999,9999,2060370040
92,20,3,ISIP_8,129,9999,9999,9999,2061169720
92,20,3,ISIP_8,130,9999,9999,9999,2061969524
92,20,3,ISIP_8,131,9999,9999,9999,2062769252
92,20,3,ISIP_8,132,9999,9999,9999,2063570024
92,20,3,ISIP_8,133,9999,9999,9999,2064369752
92,20,3,ISIP_8,134,9999,9999,9999,2065169468
92,20,3,ISIP_8,135,9999,9999,9999,2065969268
92,20,3,ISIP_8,136,9999,9999,9999,2066769972
92,20,3,ISIP_8,137,9999,9999,9999,2067569724
92,20,3,ISIP_8,138,9999,9999,9999,2068369528
92,20,3,ISIP_8,139,9999,9999,9999,2069169256
92,20,3,ISIP_8,140,9999,9999,9999,2069970032
92,20,3,ISIP_8,141,9999,9999,9999,2070769760
92,20,3,ISIP_8,142,9999,9999,9999,2071569492
92,20,3,ISIP_8,143,9999,9999,9999,2072369220
92,20,3,ISIP_8,144,9999,9999,9999,2073169996
92,20,3,ISIP_8,145,9999,9999,9999,2073969744
92,20,3,ISIP_8,146,9999,9999,9999,2074769456
92,20,3,ISIP_8,147,9999,9999,9999,2075569260
92,20,3,ISIP_8,148,9999,9999,9999,2076370036
92,20,3,ISIP_8,149,9999,9999,9999,2077169764
92,21,5,ISIP_5,0,5,42,127,2098302592
92,21,5,ISIP_5,1,5,42,127,2098802160
92,21,5,ISIP_5,2,5,42,127,2099301628
92,21,5,ISIP_5,3,1,48,45,2099324888
92,21,5,ISIP_5,4,5,42,127,2099801396
92,21,5,ISIP_5,5,1,48,48,2099808852
92,21,5,ISIP_5,6,5,42,127,2100302136
92,21,5,ISIP_5,7,1,48,49,2100329964
92,21,5,ISIP_5,8,5,42,127,2100801832
92,21,5,ISIP_5,9,1,48,52,2100860548
92,21,5,ISIP_5,10,5,42,127,2101301752
92,21,5,ISIP_5,11,1,48,46,2101361968
92,21,5,ISIP_5,12,5,42,127,2101802564
92,21,5,ISIP_5,13,1,48,45,2101848768
92,21,5,ISIP_5,14,5,42,127,2102301964
92,21,5,ISIP_5,15,1,48,57,2102344200
92,21,5,ISIP_5,16,1,48,52,2102792716
92,21,5,ISIP_5,17,5,42,127,2102801876
92,21,5,ISIP_5,18,5,42,127,2103301428
92,21,5,ISIP_5,19,1,48,53,2103318452
92,21,5,ISIP_5,20,5,42,127,2103802464
92,21,5,ISIP_5,21,1,48,56,2103807900
92,21,5,ISIP_5,22,1,48,57,2104287536
92,21,5,ISIP_5,23,5,42,127,2104301856
92,21,5,ISIP_5,24,5,42,127,2104801632
92,21,5,ISIP_5,25,1,48,55,2104813500
92,21,5,ISIP_5,26,5,42,127,2105302528
92,21,5,ISIP_5,27,1,48,50,2105324944
92,21,5,ISIP_5,28,5,42,127,2105801996
92,21,5,ISIP_5,29,1,48,51,2105814092
92,21,5,ISIP_5,30,5,42,127,2106301916
92,21,5,ISIP_5,31,1,48,51,2106316772
92,21,5,ISIP_5,32,1,48,47,2106781448
92,21,5,ISIP_5,33,5,42,127,2106801528
92,21,5,ISIP_5,34,5,42,127,2107302424
92,21,5,ISIP_5,35,1,48,38,2107330752
92,21,5,ISIP_5,36,5,42,127,2107801896
92,21,5,ISIP_5,37,1,48,54,2107836352
92,21,5,ISIP_5,38,1,48,53,2108300304
92,21,5,ISIP_5,39,5,42,127,2108301660
92,21,5,ISIP_5,40,1,48,50,2108791520
92,21,5,ISIP_5,41,5,42,127,2108802476
92,21,5,ISIP_5,42,1,48,58,2109293308
92,21,5,ISIP_5,43,5,42,127,2109302392
92,21,5,ISIP_5,44,5,42,127,2109801868
92,21,5,ISIP_5,45,1,48,58,2109815164
92,21,5,ISIP_5,46,1,48,54,2110289160
92,21,5,ISIP_5,47,5,42,127,2110301536
92,21,5,ISIP_5,48,5,42,127,2110802356
92,21,5,ISIP_5,49,1,48,55,2110808016
92,21,5,ISIP_5,50,5,42,127,2111302124
92,21,5,ISIP_5,51,1,48,60,2111306816
92,21,5,ISIP_5,52,1,48,51,2111796248
92,21,5,ISIP_5,53,5,42,127,2111801588
92,21,5,ISIP_5,54,1,48,59,2112296536
92,21,5,ISIP_5,55,5,42,127,2112301508
92,21,5,ISIP_5,56,5,42,127,2112802256
92,21,5,ISIP_5,57,1,48,60,2112803896
92,21,5,ISIP_5,58,5,42,127,2113301728
92,21,5,ISIP_5,59,1,48,56,2113308960
92,21,5,ISIP_5,60,5,42,127,2113801568
92,21,5,ISIP_5,61,1,48,59,2113806708
92,21,5,ISIP_5,62,1,48,58,2114297256
92,21,5,ISIP_5,63,5,42,127,2114302452
92,21,5,ISIP_5,64,1,48,52,2114797328
92,21,5,ISIP_5,65,5,42,127,2114802148
92,21,5,ISIP_5,66,1,48,52,2115299808
92,21,5,ISIP_5,67,5,42,127,2115301696
92,21,5,ISIP_5,68,5,42,127,2115801396
92,21,5,ISIP_5,69,1,48,54,2115804664
92,21,5,ISIP_5,70,5,42,127,2116302140
92,21,5,ISIP_5,71,1,48,62,2116324928
92,21,5,ISIP_5,72,1,48,57,2116770080
92,21,5,ISIP_5,73,5,42,127,2116801904
92,21,5,ISIP_5,74,1,48,56,2117291244
92,21,5,ISIP_5,75,5,42,127,2117301748
92,21,5,ISIP_5,76,1,48,60,2117783980
92,21,5,ISIP_5,77,5,42,127,2117802412
92,21,5,ISIP_5,78,1,48,59,2118295344
92,21,5,ISIP_5,79,1,48,54,2118818756
92,21,5,ISIP_5,80,1,48,55,2119306032
92,21,5,ISIP_5,81,1,48,61,2119792244
92,21,5,ISIP_5,82,1,48,58,2120275308
92,21,5,ISIP_5,83,1,48,58,2120803660
92,21,5,ISIP_5,84,1,48,35,2120870380
92,21,5,ISIP_5,85,1,48,60,2121311032
92,21,5,ISIP_5,86,1,48,38,2121373268
92,21,5,ISIP_5,87,1,48,58,2121821920
92,21,5,ISIP_5,88,1,48,33,2121882136
92,21,5,ISIP_5,89,1,48,56,2122324580
92,21,5,ISIP_5,90,1,48,51,2122842524
92,21,5,ISIP_5,91,1,48,60,2123333836
92,21,5,ISIP_5,92,1,48,54,2123808844
92,21,5,ISIP_5,93,1,48,60,2124339796
92,21,5,ISIP_5,94,1,48,55,2124881976
92,21,5,ISIP_5,95,1,48,52,2125373588
92,21,5,ISIP_5,96,1,48,59,2125890256
92,21,5,ISIP_5,97,1,48,51,2126418888
92,21,5,ISIP_5,98,1,48,60,2126942520
92,21,5,ISIP_5,99,1,48,60,2127446172
92,21,5,ISIP_5,100,1,48,57,2127955808
92,21,5,ISIP_5,101,1,48,59,2128492472
92,21,5,ISIP_5,102,1,48,58,2129002484
92,21,5,ISIP_5,103,1,48,56,2129501852
92,21,5,ISIP_5,104,1,48,56,2130030216
92,21,5,ISIP_5,105,1,48,58,2130535068
92,21,5,ISIP_5,106,1,48,60,2131034212
92,21,5,ISIP_5,107,1,48,57,2131538684
92,21,5,ISIP_5,108,1,48,55,2132029852
92,21,5,ISIP_5,109,1,48,64,2132551232
92,21,5,ISIP_5,110,1,48,57,2133058704
92,21,5,ISIP_5,111,1,48,64,2133562352
92,21,5,ISIP_5,112,1,48,61,2134051276
92,21,5,ISIP_5,113,1,48,62,2134575128
92,21,5,ISIP_5,114,1,48,46,2135102116
92,21,5,ISIP_5,115,1,48,57,2135615420
92,21,5,ISIP_5,116,1,48,59,2136127448
92,21,5,ISIP_5,117,1,48,59,2136626092
92,21,5,ISIP_5,118,1,48,60,2137142088
92,21,5,ISIP_5,119,1,48,60,2137663700
92,21,5,ISIP_5,120,1,48,59,2138190316
92,21,5,ISIP_5,121,1,48,59,2138670856
92,21,5,ISIP_5,122,1,48,54,2139192840
92,21,5,ISIP_5,123,1,48,51,2139699784
92,21,5,ISIP_5,124,1,48,63,2140211816
92,21,5,ISIP_5,125,1,48,59,2140737236
92,21,5,ISIP_5,126,1,48,53,2141258688
92,21,5,ISIP_5,127,1,48,57,2141723680
92,21,5,ISIP_5,128,1,48,59,2142303040
92,21,5,ISIP_5,129,1,48,41,2142855416
92,21,5,ISIP_5,130,1,48,53,2143346952
92,21,5,ISIP_5,131,1,48,59,2143867808
92,21,5,ISIP_5,132,1,48,56,2144377820
92,21,5,ISIP_5,133,1,48,55,2144890304
92,21,5,ISIP_5,134,1,48,48,2145417896
92,21,5,ISIP_5,135,1,48,56,2145893348
92,21,5,ISIP_5,136,1,48,52,2146412864
92,21,5,ISIP_5,137,1,48,61,2146931328
92,21,5,ISIP_5,138,1,48,58,2147410424
92,21,5,ISIP_5,139,1,48,63,2147943872
92,21,5,ISIP_5,140,1,48,54,2148419828
92,21,5,ISIP_5,141,1,48,60,2148929916
92,21,5,ISIP_5,142,1,48,58,2149453612
92,21,5,ISIP_5,143,1,48,61,2149981208
92,21,5,ISIP_5,144,1,48,59,2150470272
92,21,5,ISIP_5,145,1,48,58,2151028856
92,21,5,ISIP_5,146,1,48,55,2151534900
92,21,5,ISIP_5,147,1,48,54,2152034040
92,21,5,ISIP_5,148,1,48,58,2152554104
92,21,5,ISIP_5,149,1,48,54,2153051228
92,21,5,ISIP_5,150,1,48,45,2153540292
92,21,5,ISIP_5,151,1,48,58,2154054796
92,21,5,ISIP_5,152,1,48,59,2154597740
92,21,5,ISIP_5,153,1,48,57,2155093740
92,21,5,ISIP_5,154,1,48,63,2155585880
92,21,5,ISIP_5,155,1,48,46,2156108752
92,21,5,ISIP_5,156,1,48,59,2156602236
92,21,5,ISIP_5,157,1,48,67,2157100508
92,21,5,ISIP_5,158,1,48,62,2157579780
92,21,5,ISIP_5,159,1,48,61,2158102356
92,21,5,ISIP_5,160,1,48,57,2158595240
92,21,5,ISIP_5,161,1,48,64,2159107572
92,21,5,ISIP_5,162,1,48,55,2159609284
92,21,5,ISIP_5,163,1,48,57,2160086312
92,21,5,ISIP_5,164,1,48,63,2160620184
92,21,5,ISIP_5,165,1,48,66,2161130120
92,21,5,ISIP_5,166,1,48,65,2161628616
92,21,5,ISIP_5,167,1,48,60,2162111028
92,21,5,ISIP_5,168,1,48,59,2162601444
92,21,5,ISIP_5,169,1,48,60,2163104428
92,21,5,ISIP_5,170,1,48,59,2163608832
92,21,5,ISIP_5,171,1,48,60,2164112412
92,21,5,ISIP_5,172,1,48,65,2164613072
92,21,5,ISIP_5,173,1,48,54,2165143656
92,21,5,ISIP_5,174,1,48,66,2165636012
92,21,5,ISIP_5,175,1,48,55,2166148200
92,21,5,ISIP_5,176,1,48,65,2166658360
92,21,5,ISIP_5,177,1,48,67,2167154236
92,21,5,ISIP_5,178,1,48,58,2167628544
92,21,5,ISIP_5,179,1,48,52,2168123604
92,21,5,ISIP_5,180,1,48,51,2168675600
92,21,5,ISIP_5,181,1,48,61,2169181024
92,21,5,ISIP_5,182,1,48,64,2169678024
92,21,5,ISIP_5,183,1,48,69,2170145620
92,21,5,ISIP_5,184,1,48,48,2170675680
92,21,5,ISIP_5,185,1,48,59,2171175448
92,21,5,ISIP_5,186,1,48,52,2171699144
92,21,5,ISIP_5,187,1,48,57,2172183584
92,21,5,ISIP_5,188,1,48,60,2172735104
92,21,5,ISIP_5,189,1,48,60,2173245792
92,21,5,ISIP_5,190,1,48,67,2173741960
92,21,5,ISIP_5,191,1,48,64,2174261776
92,21,5,ISIP_5,192,1,48,59,2174728024
92,21,5,ISIP_5,193,1,48,51,2175233480
92,21,5,ISIP_5,194,1,48,52,2175773260
92,21,5,ISIP_5,195,1,48,53,2176248868
92,21,5,ISIP_5,196,1,48,55,2176770624
92,21,5,ISIP_5,197,1,48,51,2177288716
92,21,5,ISIP_5,198,1,48,54,2177799252
92,21,5,ISIP_5,0,9999,9999,9999,2098300008
92,21,5,ISIP_5,1,9999,9999,9999,2098799724
92,21,5,ISIP_5,2,9999,9999,9999,2099299416
92,21,5,ISIP_5,3,9999,9999,9999,2099799108
92,21,5,ISIP_5,4,9999,9999,9999,2100299852
92,21,5,ISIP_5,5,9999,9999,9999,2100799544
92,21,5,ISIP_5,6,9999,9999,9999,2101299316
92,21,5,ISIP_5,7,9999,9999,9999,2101800056
92,21,5,ISIP_5,8,9999,9999,9999,2102299752
92,21,5,ISIP_5,9,9999,9999,9999,2102799440
92,21,5,ISIP_5,10,9999,9999,9999,2103299140
92,21,5,ISIP_5,11,9999,9999,9999,2103799880
92,21,5,ISIP_5,12,9999,9999,9999,2104299568
92,21,5,ISIP_5,13,9999,9999,9999,2104799344
92,21,5,ISIP_5,14,9999,9999,9999,2105300088
92,21,5,ISIP_5,15,9999,9999,9999,2105799784
92,21,5,ISIP_5,16,9999,9999,9999,2106299480
92,21,5,ISIP_5,17,9999,9999,9999,2106799168
92,21,5,ISIP_5,18,9999,9999,9999,2107299916
92,21,5,ISIP_5,19,9999,9999,9999,2107799612
92,21,5,ISIP_5,20,9999,9999,9999,2108299380
92,21,5,ISIP_5,21,9999,9999,9999,2108800112
92,21,5,ISIP_5,22,9999,9999,9999,2109299808
92,21,5,ISIP_5,23,9999,9999,9999,2109799508
92,21,5,ISIP_5,24,9999,9999,9999,2110299248
92,21,5,ISIP_5,25,9999,9999,9999,2110799920
92,21,5,ISIP_5,26,9999,9999,9999,2111299688
92,21,5,ISIP_5,27,9999,9999,9999,2111799376
92,21,5,ISIP_5,28,9999,9999,9999,2112299072
92,21,5,ISIP_5,29,9999,9999,9999,2112799820
92,21,5,ISIP_5,30,9999,9999,9999,2113299516
92,21,5,ISIP_5,31,9999,9999,9999,2113799284
92,21,5,ISIP_5,32,9999,9999,9999,2114300016
92,21,5,ISIP_5,33,9999,9999,9999,2114799716
92,21,5,ISIP_5,34,9999,9999,9999,2115299440
92,21,5,ISIP_5,35,9999,9999,9999,2115799112
92,21,5,ISIP_5,36,9999,9999,9999,2116299852
92,21,5,ISIP_5,37,9999,9999,9999,2116799540
92,21,5,ISIP_5,38,9999,9999,9999,2117299312
92,21,5,ISIP_5,39,9999,9999,9999,2117800052
92,21,5,ISIP_5,40,9999,9999,9999,2118299748
92,21,5,ISIP_5,41,9999,9999,9999,2118799448
92,21,5,ISIP_5,42,9999,9999,9999,2119299136
92,21,5,ISIP_5,43,9999,9999,9999,2119799868
92,21,5,ISIP_5,44,9999,9999,9999,2120299632
92,21,5,ISIP_5,45,9999,9999,9999,2120799304
92,21,5,ISIP_5,46,9999,9999,9999,2121300020
92,21,5,ISIP_5,47,9999,9999,9999,2121799764
92,21,5,ISIP_5,48,9999,9999,9999,2122299508
92,21,5,ISIP_5,49,9999,9999,9999,2122799200
92,21,5,ISIP_5,50,9999,9999,9999,2123299936
92,21,5,ISIP_5,51,9999,9999,9999,2123799628
92,21,5,ISIP_5,52,9999,9999,9999,2124299316
92,21,5,ISIP_5,53,9999,9999,9999,2124800052
92,21,5,ISIP_5,54,9999,9999,9999,2125299820
92,21,5,ISIP_5,55,9999,9999,9999,2125799508
92,21,5,ISIP_5,56,9999,9999,9999,2126299200
92,21,5,ISIP_5,57,9999,9999,9999,2126799940
92,21,5,ISIP_5,58,9999,9999,9999,2127299700
92,21,5,ISIP_5,59,9999,9999,9999,2127799392
92,21,5,ISIP_5,60,9999,9999,9999,2128299080
92,21,5,ISIP_5,61,9999,9999,9999,2128799820
92,21,5,ISIP_5,62,9999,9999,9999,2129299512
92,21,5,ISIP_5,63,9999,9999,9999,2129799276
92,21,5,ISIP_5,64,9999,9999,9999,2130300012
92,21,5,ISIP_5,65,9999,9999,9999,2130799704
92,21,5,ISIP_5,66,9999,9999,9999,2131299444
92,21,5,ISIP_5,67,9999,9999,9999,2131799136
92,21,5,ISIP_5,68,9999,9999,9999,2132299872
92,21,5,ISIP_5,69,9999,9999,9999,2132799560
92,21,5,ISIP_5,70,9999,9999,9999,2133299252
92,21,5,ISIP_5,71,9999,9999,9999,2133799988
92,21,5,ISIP_5,72,9999,9999,9999,2134299756
92,21,5,ISIP_5,73,9999,9999,9999,2134799448
92,21,5,ISIP_5,74,9999,9999,9999,2135299136
92,21,5,ISIP_5,75,9999,9999,9999,2135799872
92,21,5,ISIP_5,76,9999,9999,9999,2136299636
92,21,5,ISIP_5,77,9999,9999,9999,2136799328
92,21,5,ISIP_5,78,9999,9999,9999,2137300068
92,21,5,ISIP_5,79,9999,9999,9999,2137799756
92,21,5,ISIP_5,80,9999,9999,9999,2138299448
92,21,5,ISIP_5,81,9999,9999,9999,2138799212
92,21,5,ISIP_5,82,9999,9999,9999,2139299948
92,21,5,ISIP_5,83,9999,9999,9999,2139799640
92,21,5,ISIP_5,84,9999,9999,9999,2140299344
92,21,5,ISIP_5,85,9999,9999,9999,2140800084
92,21,5,ISIP_5,86,9999,9999,9999,2141299772
92,21,5,ISIP_5,87,9999,9999,9999,2141799536
92,21,5,ISIP_5,88,9999,9999,9999,2142299212
92,21,5,ISIP_5,89,9999,9999,9999,2142799948
92,21,5,ISIP_5,90,9999,9999,9999,2143299640
92,21,5,ISIP_5,91,9999,9999,9999,2143799404
92,21,5,ISIP_5,92,9999,9999,9999,2144299096
92,21,5,ISIP_5,93,9999,9999,9999,2144799832
92,21,5,ISIP_5,94,9999,9999,9999,2145299524
92,21,5,ISIP_5,95,9999,9999,9999,2145799288
92,21,5,ISIP_5,96,9999,9999,9999,2146299952
92,21,5,ISIP_5,97,9999,9999,9999,2146799720
92,21,5,ISIP_5,98,9999,9999,9999,2147299408
92,21,5,ISIP_5,99,9999,9999,9999,2147799100
92,21,5,ISIP_5,100,9999,9999,9999,2148299836
92,21,5,ISIP_5,101,9999,9999,9999,2148799600
92,21,5,ISIP_5,102,9999,9999,9999,2149299292
92,21,5,ISIP_5,103,9999,9999,9999,2149800028
92,21,5,ISIP_5,104,9999,9999,9999,2150299716
92,21,5,ISIP_5,105,9999,9999,9999,2150799484
92,21,5,ISIP_5,106,9999,9999,9999,2151299172
92,21,5,ISIP_5,107,9999,9999,9999,2151799908
92,21,5,ISIP_5,108,9999,9999,9999,2152299600
92,21,5,ISIP_5,109,9999,9999,9999,2152799340
92,21,5,ISIP_5,110,9999,9999,9999,2153300076
92,21,5,ISIP_5,111,9999,9999,9999,2153799768
92,21,5,ISIP_5,112,9999,9999,9999,2154299456
92,21,5,ISIP_5,113,9999,9999,9999,2154799224
92,21,5,ISIP_5,114,9999,9999,9999,2155299960
92,21,5,ISIP_5,115,9999,9999,9999,2155799652
92,21,5,ISIP_5,116,9999,9999,9999,2156299344
92,21,5,ISIP_5,117,9999,9999,9999,2156800080
92,21,5,ISIP_5,118,9999,9999,9999,2157299772
92,21,5,ISIP_5,119,9999,9999,9999,2157799536
92,21,5,ISIP_5,120,9999,9999,9999,2158299224
92,21,5,ISIP_5,121,9999,9999,9999,2158799964
92,21,5,ISIP_5,122,9999,9999,9999,2159299656
92,21,5,ISIP_5,123,9999,9999,9999,2159799344
92,21,5,ISIP_5,124,9999,9999,9999,2160299108
92,21,5,ISIP_5,125,9999,9999,9999,2160799848
92,21,5,ISIP_5,126,9999,9999,9999,2161299540
92,21,5,ISIP_5,127,9999,9999,9999,2161799232
92,21,5,ISIP_5,128,9999,9999,9999,2162299968
92,21,5,ISIP_5,129,9999,9999,9999,2162799736
92,21,5,ISIP_5,130,9999,9999,9999,2163299424
92,21,5,ISIP_5,131,9999,9999,9999,2163799092
92,21,5,ISIP_5,132,9999,9999,9999,2164299828
92,21,5,ISIP_5,133,9999,9999,9999,2164799596
92,21,5,ISIP_5,134,9999,9999,9999,2165299284
92,21,5,ISIP_5,135,9999,9999,9999,2165800024
92,21,5,ISIP_5,136,9999,9999,9999,2166299716
92,21,5,ISIP_5,137,9999,9999,9999,2166799480
92,21,5,ISIP_5,138,9999,9999,9999,2167299172
92,21,5,ISIP_5,139,9999,9999,9999,2167799912
92,21,5,ISIP_5,140,9999,9999,9999,2168299600
92,21,5,ISIP_5,141,9999,9999,9999,2168799292
92,21,5,ISIP_5,142,9999,9999,9999,2169300028
92,21,5,ISIP_5,143,9999,9999,9999,2169799792
92,21,5,ISIP_5,144,9999,9999,9999,2170299484
92,21,5,ISIP_5,145,9999,9999,9999,2170799176
92,21,5,ISIP_5,146,9999,9999,9999,2171299912
92,21,5,ISIP_5,147,9999,9999,9999,2171799600
92,21,5,ISIP_5,148,9999,9999,9999,2172299368
92,21,5,ISIP_5,149,9999,9999,9999,2172800120
92,21,5,ISIP_5,150,9999,9999,9999,2173299808
92,21,5,ISIP_5,151,9999,9999,9999,2173799500
92,21,5,ISIP_5,152,9999,9999,9999,2174299240
92,21,5,ISIP_5,153,9999,9999,9999,2174799976
92,21,5,ISIP_5,154,9999,9999,9999,2175299668
92,21,5,ISIP_5,155,9999,9999,9999,2175799356
92,21,5,ISIP_5,156,9999,9999,9999,2176299124
92,21,5,ISIP_5,157,9999,9999,9999,2176799860
92,21,5,ISIP_5,158,9999,9999,9999,2177299552
92,21,5,ISIP_5,159,9999,9999,9999,2177799316
92,22,11,Pattern_Practice,0,1,48,46,2311696156
92,22,11,Pattern_Practice,1,1,38,61,2311696724
92,22,11,Pattern_Practice,2,1,48,55,2311697488
92,22,11,Pattern_Practice,3,1,48,36,2311698244
92,22,11,Pattern_Practice,4,1,38,62,2311698812
92,22,11,Pattern_Practice,5,5,42,127,2312197564
92,22,11,Pattern_Practice,6,5,42,127,2312698252
92,22,11,Pattern_Practice,7,5,42,127,2313198044
92,22,11,Pattern_Practice,8,5,42,127,2313697760
92,22,11,Pattern_Practice,9,5,42,127,2314198452
92,22,11,Pattern_Practice,10,1,48,43,2314250564
92,22,11,Pattern_Practice,11,1,48,42,2314591964
92,22,11,Pattern_Practice,12,5,42,127,2314698124
92,22,11,Pattern_Practice,13,1,38,48,2314751356
92,22,11,Pattern_Practice,14,5,42,127,2315197792
92,22,11,Pattern_Practice,15,1,48,50,2315235396
92,22,11,Pattern_Practice,16,1,48,47,2315596072
92,22,11,Pattern_Practice,17,5,42,127,2315697540
92,22,11,Pattern_Practice,18,1,38,57,2315725868
92,22,11,Pattern_Practice,19,5,42,127,2316198352
92,22,11,Pattern_Practice,20,1,48,57,2316201028
92,22,11,Pattern_Practice,21,1,48,49,2316578532
92,22,11,Pattern_Practice,22,5,42,127,2316698100
92,22,11,Pattern_Practice,23,1,38,54,2316710200
92,22,11,Pattern_Practice,24,1,48,63,2317174644
92,22,11,Pattern_Practice,25,5,42,127,2317197640
92,22,11,Pattern_Practice,26,1,48,50,2317550824
92,22,11,Pattern_Practice,27,5,42,127,2317698440
92,22,11,Pattern_Practice,28,1,38,53,2317711956
92,22,11,Pattern_Practice,29,1,48,60,2318162096
92,22,11,Pattern_Practice,30,5,42,127,2318197980
92,22,11,Pattern_Practice,31,1,48,48,2318516080
92,22,11,Pattern_Practice,32,1,38,65,2318682712
92,22,11,Pattern_Practice,33,5,42,127,2318697924
92,22,11,Pattern_Practice,34,1,48,67,2319137052
92,22,11,Pattern_Practice,35,5,42,127,2319197472
92,22,11,Pattern_Practice,36,1,48,59,2319559180
92,22,11,Pattern_Practice,37,5,42,127,2319698172
92,22,11,Pattern_Practice,38,1,38,50,2319715152
92,22,11,Pattern_Practice,39,1,48,75,2320132976
92,22,11,Pattern_Practice,40,5,42,127,2320198008
92,22,11,Pattern_Practice,41,1,48,52,2320572984
92,22,11,Pattern_Practice,42,1,38,61,2320692860
92,22,11,Pattern_Practice,43,5,42,127,2320697832
92,22,11,Pattern_Practice,44,1,38,34,2320769476
92,22,11,Pattern_Practice,45,1,38,17,2320868108
92,22,11,Pattern_Practice,46,5,42,127,2321197488
92,22,11,Pattern_Practice,47,1,38,57,2321212052
92,22,11,Pattern_Practice,48,5,42,127,2321698080
92,22,11,Pattern_Practice,49,1,38,67,2321736576
92,22,11,Pattern_Practice,50,5,42,127,2322197924
92,22,11,Pattern_Practice,51,1,38,73,2322201944
92,22,11,Pattern_Practice,52,5,42,127,2322697468
92,22,11,Pattern_Practice,53,1,38,84,2322699484
92,22,11,Pattern_Practice,54,5,42,127,2323198284
92,22,11,Pattern_Practice,55,1,48,71,2323233120
92,22,11,Pattern_Practice,56,1,48,62,2323571980
92,22,11,Pattern_Practice,57,5,42,127,2323697960
92,22,11,Pattern_Practice,58,1,38,55,2323732720
92,22,11,Pattern_Practice,59,1,48,60,2324153484
92,22,11,Pattern_Practice,60,5,42,127,2324197944
92,22,11,Pattern_Practice,61,1,48,75,2324610916
92,22,11,Pattern_Practice,62,5,42,127,2324697416
92,22,11,Pattern_Practice,63,1,38,62,2324755196
92,22,11,Pattern_Practice,64,1,38,33,2324816660
92,22,11,Pattern_Practice,65,1,48,69,2325175500
92,22,11,Pattern_Practice,66,5,42,127,2325198192
92,22,11,Pattern_Practice,67,1,48,66,2325561920
92,22,11,Pattern_Practice,68,5,42,127,2325698020
92,22,11,Pattern_Practice,69,1,38,54,2325724628
92,22,11,Pattern_Practice,70,1,48,65,2326172696
92,22,11,Pattern_Practice,71,5,42,127,2326197636
92,22,11,Pattern_Practice,72,1,48,51,2326544684
92,22,11,Pattern_Practice,73,5,42,127,2326698212
92,22,11,Pattern_Practice,74,1,38,62,2326700952
92,22,11,Pattern_Practice,75,5,42,127,2327198128
92,22,11,Pattern_Practice,76,1,38,63,2327203420
92,22,11,Pattern_Practice,77,5,42,127,2327697824
92,22,11,Pattern_Practice,78,1,38,94,2327702288
92,22,11,Pattern_Practice,79,1,38,79,2328189180
92,22,11,Pattern_Practice,80,5,42,127,2328197364
92,22,11,Pattern_Practice,81,1,38,72,2328677348
92,22,11,Pattern_Practice,82,5,42,127,2328698180
92,22,11,Pattern_Practice,83,1,48,59,2329117332
92,22,11,Pattern_Practice,84,5,42,127,2329198096
92,22,11,Pattern_Practice,85,1,38,63,2329243464
92,22,11,Pattern_Practice,86,1,48,71,2329429760
92,22,11,Pattern_Practice,87,1,38,59,2329535156
92,22,11,Pattern_Practice,88,1,48,68,2329662668
92,22,11,Pattern_Practice,89,5,42,127,2329697948
92,22,11,Pattern_Practice,90,1,38,81,2329772564
92,22,11,Pattern_Practice,91,1,38,51,2329818912
92,22,11,Pattern_Practice,92,1,48,82,2330164932
92,22,11,Pattern_Practice,93,5,42,127,2330198328
92,22,11,Pattern_Practice,94,5,42,127,2330698176
92,22,11,Pattern_Practice,95,1,48,55,2330699968
92,22,11,Pattern_Practice,96,1,48,65,2331197944
92,22,11,Pattern_Practice,97,5,42,127,2331199356
92,22,11,Pattern_Practice,98,5,42,127,2331697640
92,22,11,Pattern_Practice,99,1,38,54,2331720136
92,22,11,Pattern_Practice,100,1,48,78,2332196792
92,22,11,Pattern_Practice,101,5,42,127,2332198228
92,22,11,Pattern_Practice,102,1,38,79,2332696796
92,22,11,Pattern_Practice,103,5,42,127,2332699340
92,22,11,Pattern_Practice,104,1,48,74,2333189208
92,22,11,Pattern_Practice,105,5,42,127,2333197840
92,22,11,Pattern_Practice,106,1,38,65,2333658680
92,22,11,Pattern_Practice,107,5,42,127,2333698432
92,22,11,Pattern_Practice,108,1,48,61,2334153888
92,22,11,Pattern_Practice,109,5,42,127,2334198052
92,22,11,Pattern_Practice,110,1,48,67,2334664952
92,22,11,Pattern_Practice,111,5,42,127,2334697968
92,22,11,Pattern_Practice,112,1,48,63,2335183124
92,22,11,Pattern_Practice,113,5,42,127,2335197812
92,22,11,Pattern_Practice,114,1,38,61,2335681844
92,22,11,Pattern_Practice,115,5,42,127,2335698256
92,22,11,Pattern_Practice,116,1,48,72,2336169196
92,22,11,Pattern_Practice,117,5,42,127,2336198024
92,22,11,Pattern_Practice,118,1,48,67,2336690284
92,22,11,Pattern_Practice,119,5,42,127,2336697944
92,22,11,Pattern_Practice,120,1,38,66,2337190800
92,22,11,Pattern_Practice,121,5,42,127,2337197344
92,22,11,Pattern_Practice,122,5,42,127,2337698088
92,22,11,Pattern_Practice,123,1,48,79,2337723872
92,22,11,Pattern_Practice,124,1,48,52,2338176204
92,22,11,Pattern_Practice,125,5,42,127,2338197928
92,22,11,Pattern_Practice,126,1,38,61,2338679940
92,22,11,Pattern_Practice,127,5,42,127,2338697772
92,22,11,Pattern_Practice,128,1,48,81,2339184648
92,22,11,Pattern_Practice,129,5,42,127,2339198292
92,22,11,Pattern_Practice,130,1,38,62,2339648484
92,22,11,Pattern_Practice,131,5,42,127,2339698208
92,22,11,Pattern_Practice,132,1,38,23,2339732656
92,22,11,Pattern_Practice,133,1,38,55,2340163488
92,22,11,Pattern_Practice,134,5,42,127,2340197956
92,22,11,Pattern_Practice,135,1,38,31,2340622424
92,22,11,Pattern_Practice,136,5,42,127,2340697700
92,22,11,Pattern_Practice,137,1,48,61,2341156572
92,22,11,Pattern_Practice,138,5,42,127,2341198196
92,22,11,Pattern_Practice,139,5,42,127,2341698044
92,22,11,Pattern_Practice,140,1,48,51,2341698936
92,22,11,Pattern_Practice,141,5,42,127,2342197816
92,22,11,Pattern_Practice,142,1,48,71,2342211404
92,22,11,Pattern_Practice,143,1,48,46,2342687072
92,22,11,Pattern_Practice,144,5,42,127,2342698472
92,22,11,Pattern_Practice,145,5,42,127,2343198028
92,22,11,Pattern_Practice,146,1,48,83,2343205260
92,22,11,Pattern_Practice,147,5,42,127,2343697796
92,22,11,Pattern_Practice,148,1,48,66,2343701288
92,22,11,Pattern_Practice,149,5,42,127,2344197860
92,22,11,Pattern_Practice,150,1,38,44,2344207416
92,22,11,Pattern_Practice,151,1,48,75,2344688612
92,22,11,Pattern_Practice,152,5,42,127,2344698076
92,22,11,Pattern_Practice,153,1,48,62,2345179188
92,22,11,Pattern_Practice,154,5,42,127,2345197844
92,22,11,Pattern_Practice,155,1,38,76,2345654120
92,22,11,Pattern_Practice,156,5,42,127,2345697688
92,22,11,Pattern_Practice,157,5,42,127,2346198364
92,22,11,Pattern_Practice,158,1,48,70,2346210460
92,22,11,Pattern_Practice,159,1,48,53,2346676552
92,22,11,Pattern_Practice,160,5,42,127,2346698052
92,22,11,Pattern_Practice,161,1,38,67,2347163684
92,22,11,Pattern_Practice,162,5,42,127,2347197748
92,22,11,Pattern_Practice,163,1,38,56,2347643180
92,22,11,Pattern_Practice,164,5,42,127,2347697664
92,22,11,Pattern_Practice,165,1,38,55,2348154836
92,22,11,Pattern_Practice,166,5,42,127,2348198108
92,22,11,Pattern_Practice,167,1,38,72,2348654836
92,22,11,Pattern_Practice,168,5,42,127,2348698024
92,22,11,Pattern_Practice,169,1,38,71,2349146156
92,22,11,Pattern_Practice,170,5,42,127,2349197572
92,22,11,Pattern_Practice,171,1,48,92,2349682124
92,22,11,Pattern_Practice,172,5,42,127,2349698540
92,22,11,Pattern_Practice,173,5,42,127,2350198092
92,22,11,Pattern_Practice,174,1,48,64,2350199956
92,22,11,Pattern_Practice,175,1,48,89,2350675428
92,22,11,Pattern_Practice,176,5,42,127,2350697852
92,22,11,Pattern_Practice,177,1,38,65,2351180960
92,22,11,Pattern_Practice,178,5,42,127,2351197620
92,22,11,Pattern_Practice,179,1,38,53,2351673548
92,22,11,Pattern_Practice,180,5,42,127,2351698412
92,22,11,Pattern_Practice,181,1,38,67,2352177052
92,22,11,Pattern_Practice,0,9999,9999,9999,2312195128
92,22,11,Pattern_Practice,1,9999,9999,9999,2312695892
92,22,11,Pattern_Practice,2,9999,9999,9999,2313195608
92,22,11,Pattern_Practice,3,9999,9999,9999,2313695324
92,22,11,Pattern_Practice,4,9999,9999,9999,2314196088
92,22,11,Pattern_Practice,5,9999,9999,9999,2314695760
92,22,11,Pattern_Practice,6,9999,9999,9999,2315195504
92,22,11,Pattern_Practice,7,9999,9999,9999,2315695180
92,22,11,Pattern_Practice,8,9999,9999,9999,2316195920
92,22,11,Pattern_Practice,9,9999,9999,9999,2316695664
92,22,11,Pattern_Practice,10,9999,9999,9999,2317195356
92,22,11,Pattern_Practice,11,9999,9999,9999,2317696080
92,22,11,Pattern_Practice,12,9999,9999,9999,2318195768
92,22,11,Pattern_Practice,13,9999,9999,9999,2318695492
92,22,11,Pattern_Practice,14,9999,9999,9999,2319195184
92,22,11,Pattern_Practice,15,9999,9999,9999,2319695960
92,22,11,Pattern_Practice,16,9999,9999,9999,2320195648
92,22,11,Pattern_Practice,17,9999,9999,9999,2320695396
92,22,11,Pattern_Practice,18,9999,9999,9999,2321195128
92,22,11,Pattern_Practice,19,9999,9999,9999,2321695796
92,22,11,Pattern_Practice,20,9999,9999,9999,2322195564
92,22,11,Pattern_Practice,21,9999,9999,9999,2322695256
92,22,11,Pattern_Practice,22,9999,9999,9999,2323196000
92,22,11,Pattern_Practice,23,9999,9999,9999,2323695672
92,22,11,Pattern_Practice,24,9999,9999,9999,2324195432
92,22,11,Pattern_Practice,25,9999,9999,9999,2324695132
92,22,11,Pattern_Practice,26,9999,9999,9999,2325195832
92,22,11,Pattern_Practice,27,9999,9999,9999,2325695584
92,22,11,Pattern_Practice,28,9999,9999,9999,2326195272
92,22,11,Pattern_Practice,29,9999,9999,9999,2326696000
92,22,11,Pattern_Practice,30,9999,9999,9999,2327195768
92,22,11,Pattern_Practice,31,9999,9999,9999,2327695464
92,22,11,Pattern_Practice,32,9999,9999,9999,2328195152
92,22,11,Pattern_Practice,33,9999,9999,9999,2328695892
92,22,11,Pattern_Practice,34,9999,9999,9999,2329195588
92,22,11,Pattern_Practice,35,9999,9999,9999,2329695292
92,22,11,Pattern_Practice,36,9999,9999,9999,2330196040
92,22,11,Pattern_Practice,37,9999,9999,9999,2330695740
92,22,11,Pattern_Practice,38,9999,9999,9999,2331195508
92,22,11,Pattern_Practice,39,9999,9999,9999,2331695204
92,22,11,Pattern_Practice,40,9999,9999,9999,2332195944
92,22,11,Pattern_Practice,41,9999,9999,9999,2332695640
92,22,11,Pattern_Practice,42,9999,9999,9999,2333195328
92,22,11,Pattern_Practice,43,9999,9999,9999,2333696072
92,22,11,Pattern_Practice,44,9999,9999,9999,2334195764
92,22,11,Pattern_Practice,45,9999,9999,9999,2334695532
92,22,11,Pattern_Practice,46,9999,9999,9999,2335195228
92,22,11,Pattern_Practice,47,9999,9999,9999,2335695972
92,22,11,Pattern_Practice,48,9999,9999,9999,2336195664
92,22,11,Pattern_Practice,49,9999,9999,9999,2336695360
92,22,11,Pattern_Practice,50,9999,9999,9999,2337195056
92,22,11,Pattern_Practice,51,9999,9999,9999,2337695804
92,22,11,Pattern_Practice,52,9999,9999,9999,2338195568
92,22,11,Pattern_Practice,53,9999,9999,9999,2338695264
92,22,11,Pattern_Practice,54,9999,9999,9999,2339196004
92,22,11,Pattern_Practice,55,9999,9999,9999,2339695700
92,22,11,Pattern_Practice,56,9999,9999,9999,2340195444
92,22,11,Pattern_Practice,57,9999,9999,9999,2340695116
92,22,11,Pattern_Practice,58,9999,9999,9999,2341195836
92,22,11,Pattern_Practice,59,9999,9999,9999,2341695608
92,22,11,Pattern_Practice,60,9999,9999,9999,2342195304
92,22,11,Pattern_Practice,61,9999,9999,9999,2342696036
92,22,11,Pattern_Practice,62,9999,9999,9999,2343195740
92,22,11,Pattern_Practice,63,9999,9999,9999,2343695436
92,22,11,Pattern_Practice,64,9999,9999,9999,2344195128
92,22,11,Pattern_Practice,65,9999,9999,9999,2344695864
92,22,11,Pattern_Practice,66,9999,9999,9999,2345195632
92,22,11,Pattern_Practice,67,9999,9999,9999,2345695328
92,22,11,Pattern_Practice,68,9999,9999,9999,2346196076
92,22,11,Pattern_Practice,69,9999,9999,9999,2346695764
92,22,11,Pattern_Practice,70,9999,9999,9999,2347195460
92,22,11,Pattern_Practice,71,9999,9999,9999,2347695156
92,22,11,Pattern_Practice,72,9999,9999,9999,2348195896
92,22,11,Pattern_Practice,73,9999,9999,9999,2348695664
92,22,11,Pattern_Practice,74,9999,9999,9999,2349195360
92,22,11,Pattern_Practice,75,9999,9999,9999,2349696104
92,22,11,Pattern_Practice,76,9999,9999,9999,2350195804
92,22,11,Pattern_Practice,77,9999,9999,9999,2350695492
92,22,11,Pattern_Practice,78,9999,9999,9999,2351195184
92,22,11,Pattern_Practice,79,9999,9999,9999,2351695976
92,23,13,Improv_Metronome,0,5,42,127,2386506992
92,23,13,Improv_Metronome,1,5,42,127,2387006932
92,23,13,Improv_Metronome,2,5,42,127,2387506648
92,23,13,Improv_Metronome,3,5,42,127,2388007260
92,23,13,Improv_Metronome,4,1,48,31,2388029680
92,23,13,Improv_Metronome,5,5,42,127,2388506956
92,23,13,Improv_Metronome,6,1,48,51,2388512244
92,23,13,Improv_Metronome,7,5,42,127,2389006648
92,23,13,Improv_Metronome,8,1,48,65,2389023532
92,23,13,Improv_Metronome,9,5,42,127,2389506344
92,23,13,Improv_Metronome,10,1,48,68,2389526964
92,23,13,Improv_Metronome,11,5,42,127,2390007160
92,23,13,Improv_Metronome,12,1,38,65,2390068020
92,23,13,Improv_Metronome,13,1,48,65,2390484004
92,23,13,Improv_Metronome,14,5,42,127,2390506844
92,23,13,Improv_Metronome,15,1,48,70,2390950336
92,23,13,Improv_Metronome,16,5,42,127,2391006468
92,23,13,Improv_Metronome,17,1,38,65,2391498124
92,23,13,Improv_Metronome,18,5,42,127,2391507356
92,23,13,Improv_Metronome,19,1,48,65,2391974852
92,23,13,Improv_Metronome,20,5,42,127,2392006900
92,23,13,Improv_Metronome,21,1,48,63,2392448968
92,23,13,Improv_Metronome,22,5,42,127,2392506820
92,23,13,Improv_Metronome,23,1,38,76,2392976416
92,23,13,Improv_Metronome,24,5,42,127,2393006292
92,23,13,Improv_Metronome,25,1,38,15,2393090024
92,23,13,Improv_Metronome,26,1,48,86,2393499124
92,23,13,Improv_Metronome,27,5,42,127,2393507308
92,23,13,Improv_Metronome,28,1,48,65,2393997620
92,23,13,Improv_Metronome,29,5,42,127,2394006928
92,23,13,Improv_Metronome,30,1,38,74,2394503072
92,23,13,Improv_Metronome,31,5,42,127,2394506696
92,23,13,Improv_Metronome,32,1,38,70,2394988180
92,23,13,Improv_Metronome,33,5,42,127,2395007364
92,23,13,Improv_Metronome,34,5,42,127,2395507140
92,23,13,Improv_Metronome,35,1,38,69,2395508104
92,23,13,Improv_Metronome,36,1,38,40,2395592216
92,23,13,Improv_Metronome,37,1,38,19,2395747124
92,23,13,Improv_Metronome,38,5,42,127,2396006868
92,23,13,Improv_Metronome,39,1,48,79,2396025320
92,23,13,Improv_Metronome,40,1,48,65,2396495128
92,23,13,Improv_Metronome,41,5,42,127,2396506332
92,23,13,Improv_Metronome,42,1,48,72,2396997964
92,23,13,Improv_Metronome,43,5,42,127,2397007196
92,23,13,Improv_Metronome,44,1,38,63,2397489584
92,23,13,Improv_Metronome,45,5,42,127,2397506820
92,23,13,Improv_Metronome,46,1,38,66,2397985988
92,23,13,Improv_Metronome,47,5,42,127,2398006812
92,23,13,Improv_Metronome,48,1,38,73,2398491584
92,23,13,Improv_Metronome,49,5,42,127,2398507252
92,23,13,Improv_Metronome,50,1,38,23,2398590416
92,23,13,Improv_Metronome,51,1,48,68,2399003228
92,23,13,Improv_Metronome,52,5,42,127,2399007000
92,23,13,Improv_Metronome,53,1,48,55,2399490580
92,23,13,Improv_Metronome,54,5,42,127,2399506844
92,23,13,Improv_Metronome,55,1,38,81,2399966488
92,23,13,Improv_Metronome,56,5,42,127,2400006388
92,23,13,Improv_Metronome,57,5,42,127,2400507212
92,23,13,Improv_Metronome,58,1,48,87,2400514076
92,23,13,Improv_Metronome,59,1,48,71,2400987116
92,23,13,Improv_Metronome,60,5,42,127,2401006824
92,23,13,Improv_Metronome,61,1,38,59,2401475068
92,23,13,Improv_Metronome,62,5,42,127,2401506816
92,23,13,Improv_Metronome,63,1,48,65,2401976340
92,23,13,Improv_Metronome,64,5,42,127,2402007260
92,23,13,Improv_Metronome,65,1,48,71,2402468104
92,23,13,Improv_Metronome,66,5,42,127,2402507104
92,23,13,Improv_Metronome,67,1,38,67,2402965180
92,23,13,Improv_Metronome,68,5,42,127,2403006728
92,23,13,Improv_Metronome,69,1,38,80,2403456496
92,23,13,Improv_Metronome,70,5,42,127,2403506716
92,23,13,Improv_Metronome,71,1,38,72,2403934280
92,23,13,Improv_Metronome,72,5,42,127,2404007236
92,23,13,Improv_Metronome,73,1,38,84,2404439508
92,23,13,Improv_Metronome,74,5,42,127,2404506856
92,23,13,Improv_Metronome,75,1,38,29,2404532476
92,23,13,Improv_Metronome,76,1,48,89,2404942812
92,23,13,Improv_Metronome,77,5,42,127,2405006752
92,23,13,Improv_Metronome,78,1,48,70,2405456276
92,23,13,Improv_Metronome,79,5,42,127,2405506520
92,23,13,Improv_Metronome,80,1,48,73,2405931956
92,23,13,Improv_Metronome,81,5,42,127,2406007040
92,23,13,Improv_Metronome,82,1,48,77,2406481616
92,23,13,Improv_Metronome,83,5,42,127,2406506884
92,23,13,Improv_Metronome,84,5,42,127,2407006660
92,23,13,Improv_Metronome,85,1,38,65,2407010900
92,23,13,Improv_Metronome,86,5,42,127,2407507300
92,23,13,Improv_Metronome,87,1,48,74,2407508564
92,23,13,Improv_Metronome,88,5,42,127,2408007044
92,23,13,Improv_Metronome,89,1,48,55,2408008604
92,23,13,Improv_Metronome,90,5,42,127,2408506664
92,23,13,Improv_Metronome,91,1,38,76,2408533124
92,23,13,Improv_Metronome,92,1,48,67,2409006136
92,23,13,Improv_Metronome,93,5,42,127,2409007620
92,23,13,Improv_Metronome,94,1,48,56,2409489180
92,23,13,Improv_Metronome,95,5,42,127,2409507168
92,23,13,Improv_Metronome,96,1,38,62,2409985364
92,23,13,Improv_Metronome,97,5,42,127,2410006864
92,23,13,Improv_Metronome,98,1,38,73,2410482140
92,23,13,Improv_Metronome,99,5,42,127,2410506780
92,23,13,Improv_Metronome,100,1,38,76,2410974952
92,23,13,Improv_Metronome,101,5,42,127,2411007224
92,23,13,Improv_Metronome,102,1,48,69,2411467992
92,23,13,Improv_Metronome,103,5,42,127,2411506992
92,23,13,Improv_Metronome,104,1,48,54,2411986680
92,23,13,Improv_Metronome,105,5,42,127,2412006836
92,23,13,Improv_Metronome,106,1,38,85,2412492288
92,23,13,Improv_Metronome,107,5,42,127,2412506680
92,23,13,Improv_Metronome,108,1,38,61,2412786936
92,23,13,Improv_Metronome,109,1,38,78,2412909684
92,23,13,Improv_Metronome,110,5,42,127,2413007088
92,23,13,Improv_Metronome,111,1,38,64,2413062716
92,23,13,Improv_Metronome,112,1,38,86,2413214932
92,23,13,Improv_Metronome,113,1,38,43,2413267788
92,23,13,Improv_Metronome,114,5,42,127,2413506812
92,23,13,Improv_Metronome,115,1,38,65,2413585480
92,23,13,Improv_Metronome,116,5,42,127,2414006804
92,23,13,Improv_Metronome,117,1,48,61,2414030124
92,23,13,Improv_Metronome,118,5,42,127,2414507324
92,23,13,Improv_Metronome,119,1,48,68,2414519720
92,23,13,Improv_Metronome,120,1,38,81,2414997028
92,23,13,Improv_Metronome,121,5,42,127,2415006936
92,23,13,Improv_Metronome,122,1,38,64,2415359592
92,23,13,Improv_Metronome,123,1,38,77,2415458408
92,23,13,Improv_Metronome,124,5,42,127,2415506756
92,23,13,Improv_Metronome,125,1,38,59,2415623408
92,23,13,Improv_Metronome,126,1,38,66,2415702148
92,23,13,Improv_Metronome,127,1,38,43,2415733768
92,23,13,Improv_Metronome,128,5,42,127,2416006816
92,23,13,Improv_Metronome,129,1,38,77,2416131708
92,23,13,Improv_Metronome,130,1,38,50,2416163548
92,23,13,Improv_Metronome,131,5,42,127,2416507388
92,23,13,Improv_Metronome,132,1,48,76,2416566756
92,23,13,Improv_Metronome,133,1,48,37,2416640412
92,23,13,Improv_Metronome,134,5,42,127,2417006912
92,23,13,Improv_Metronome,135,1,48,50,2417038680
92,23,13,Improv_Metronome,136,5,42,127,2417506904
92,23,13,Improv_Metronome,137,1,38,72,2417512044
92,23,13,Improv_Metronome,138,1,38,27,2417602904
92,23,13,Improv_Metronome,139,1,38,59,2417896636
92,23,13,Improv_Metronome,140,1,38,69,2417990112
92,23,13,Improv_Metronome,141,5,42,127,2418007448
92,23,13,Improv_Metronome,142,1,38,51,2418144888
92,23,13,Improv_Metronome,143,1,38,63,2418265540
92,23,13,Improv_Metronome,144,5,42,127,2418507008
92,23,13,Improv_Metronome,145,1,48,52,2418777052
92,23,13,Improv_Metronome,146,1,48,32,2418836868
92,23,13,Improv_Metronome,147,5,42,127,2419006828
92,23,13,Improv_Metronome,148,1,48,43,2419353020
92,23,13,Improv_Metronome,149,5,42,127,2419506672
92,23,13,Improv_Metronome,150,1,38,70,2419878072
92,23,13,Improv_Metronome,151,1,38,41,2419937516
92,23,13,Improv_Metronome,152,5,42,127,2420007480
92,23,13,Improv_Metronome,153,1,48,46,2420392628
92,23,13,Improv_Metronome,154,5,42,127,2420506864
92,23,13,Improv_Metronome,155,1,48,49,2420921648
92,23,13,Improv_Metronome,156,5,42,127,2421006648
92,23,13,Improv_Metronome,157,1,38,65,2421465400
92,23,13,Improv_Metronome,158,5,42,127,2421506644
92,23,13,Improv_Metronome,159,1,38,16,2421567716
92,23,13,Improv_Metronome,160,1,48,46,2421960732
92,23,13,Improv_Metronome,161,5,42,127,2422007064
92,23,13,Improv_Metronome,162,1,48,43,2422436940
92,23,13,Improv_Metronome,163,5,42,127,2422506760
92,23,13,Improv_Metronome,164,5,42,127,2423006684
92,23,13,Improv_Metronome,165,1,38,61,2423026408
92,23,13,Improv_Metronome,166,5,42,127,2423507428
92,23,13,Improv_Metronome,167,1,48,52,2423520572
92,23,13,Improv_Metronome,168,1,48,46,2423972080
92,23,13,Improv_Metronome,169,5,42,127,2424006968
92,23,13,Improv_Metronome,170,5,42,127,2424506668
92,23,13,Improv_Metronome,171,1,38,80,2424517488
92,23,13,Improv_Metronome,172,1,38,81,2424986496
92,23,13,Improv_Metronome,173,5,42,127,2425006656
92,23,13,Improv_Metronome,174,1,38,90,2425485452
92,23,13,Improv_Metronome,175,5,42,127,2425507320
92,23,13,Improv_Metronome,176,1,38,38,2425572436
92,23,13,Improv_Metronome,177,1,48,81,2425996940
92,23,13,Improv_Metronome,178,5,42,127,2426006772
92,23,13,Improv_Metronome,179,1,48,64,2426494316
92,23,13,Improv_Metronome,180,5,42,127,2426506540
92,23,13,Improv_Metronome,181,5,42,127,2427007436
92,23,13,Improv_Metronome,182,1,48,63,2427009380
92,23,13,Improv_Metronome,183,1,48,74,2427485404
92,23,13,Improv_Metronome,184,5,42,127,2427507052
92,23,13,Improv_Metronome,185,5,42,127,2428006676
92,23,13,Improv_Metronome,186,1,48,80,2428034628
92,23,13,Improv_Metronome,187,5,42,127,2428506448
92,23,13,Improv_Metronome,188,1,38,76,2428526920
92,23,13,Improv_Metronome,189,1,48,77,2428985732
92,23,13,Improv_Metronome,190,5,42,127,2429007380
92,23,13,Improv_Metronome,191,5,42,127,2429506784
92,23,13,Improv_Metronome,192,1,48,76,2429520524
92,23,13,Improv_Metronome,193,5,42,127,2430006552
92,23,13,Improv_Metronome,194,1,48,72,2430016104
92,23,13,Improv_Metronome,195,5,42,127,2430507444
92,23,13,Improv_Metronome,196,1,38,78,2430508408
92,23,13,Improv_Metronome,197,5,42,127,2431006988
92,23,13,Improv_Metronome,198,1,48,84,2431015344
92,23,13,Improv_Metronome,199,5,42,127,2431506756
92,23,13,Improv_Metronome,200,1,48,68,2431511372
92,23,13,Improv_Metronome,201,1,38,80,2431986216
92,23,13,Improv_Metronome,202,5,42,127,2432006520
92,23,13,Improv_Metronome,203,1,38,81,2432491372
92,23,13,Improv_Metronome,204,5,42,127,2432507340
92,23,13,Improv_Metronome,205,1,38,43,2432567440
92,23,13,Improv_Metronome,206,1,48,69,2432970104
92,23,13,Improv_Metronome,207,5,42,127,2433007084
92,23,13,Improv_Metronome,208,1,38,86,2433493136
92,23,13,Improv_Metronome,209,5,42,127,2433506632
92,23,13,Improv_Metronome,210,1,38,83,2433952212
92,23,13,Improv_Metronome,211,5,42,127,2434007520
92,23,13,Improv_Metronome,212,1,38,34,2434042488
92,23,13,Improv_Metronome,213,1,48,69,2434442084
92,23,13,Improv_Metronome,214,5,42,127,2434506972
92,23,13,Improv_Metronome,215,1,38,97,2434996160
92,23,13,Improv_Metronome,216,5,42,127,2435006816
92,23,13,Improv_Metronome,217,1,38,79,2435477828
92,23,13,Improv_Metronome,218,5,42,127,2435506512
92,23,13,Improv_Metronome,219,1,48,68,2435977824
92,23,13,Improv_Metronome,220,5,42,127,2436007476
92,23,13,Improv_Metronome,221,1,38,69,2436498308
92,23,13,Improv_Metronome,222,5,42,127,2436507244
92,23,13,Improv_Metronome,223,1,38,72,2436982448
92,23,13,Improv_Metronome,224,5,42,127,2437006568
92,23,13,Improv_Metronome,225,1,38,37,2437061736
92,23,13,Improv_Metronome,226,1,48,51,2437506620
92,23,13,Improv_Metronome,227,5,42,127,2437508032
92,23,13,Improv_Metronome,228,5,42,127,2438007364
92,23,13,Improv_Metronome,229,1,38,82,2438034572
92,23,13,Improv_Metronome,230,1,38,74,2438476328
92,23,13,Improv_Metronome,231,5,42,127,2438506752
92,23,13,Improv_Metronome,232,1,38,75,2438977744
92,23,13,Improv_Metronome,233,5,42,127,2439006596
92,23,13,Improv_Metronome,234,1,38,37,2439053684
92,23,13,Improv_Metronome,235,1,38,14,2439164212
92,23,13,Improv_Metronome,236,1,48,74,2439480536
92,23,13,Improv_Metronome,237,5,42,127,2439507492
92,23,13,Improv_Metronome,238,1,48,71,2439998004
92,23,13,Improv_Metronome,239,5,42,127,2440007236
92,23,13,Improv_Metronome,240,1,48,84,2440507012
92,23,13,Improv_Metronome,241,5,42,127,2440508580
92,23,13,Improv_Metronome,242,1,38,77,2441001732
92,23,13,Improv_Metronome,243,5,42,127,2441006552
92,23,13,Improv_Metronome,244,1,38,19,2441109460
92,23,13,Improv_Metronome,245,5,42,127,2441507428
92,23,13,Improv_Metronome,246,1,48,70,2441532088
92,23,13,Improv_Metronome,247,1,48,78,2441983672
92,23,13,Improv_Metronome,248,5,42,127,2442006892
92,23,13,Improv_Metronome,249,1,48,81,2442479028
92,23,13,Improv_Metronome,250,5,42,127,2442506588
92,23,13,Improv_Metronome,251,1,38,71,2442983284
92,23,13,Improv_Metronome,252,5,42,127,2443007400
92,23,13,Improv_Metronome,253,1,38,30,2443072668
92,23,13,Improv_Metronome,254,5,42,127,2443507232
92,23,13,Improv_Metronome,255,1,48,81,2443516560
92,23,13,Improv_Metronome,256,5,42,127,2444006852
92,23,13,Improv_Metronome,257,1,48,76,2444009972
92,23,13,Improv_Metronome,258,1,48,81,2444498724
92,23,13,Improv_Metronome,259,5,42,127,2444506464
92,23,13,Improv_Metronome,260,1,38,68,2445004032
92,23,13,Improv_Metronome,261,5,42,127,2445007356
92,23,13,Improv_Metronome,262,5,42,127,2445507204
92,23,13,Improv_Metronome,263,1,38,69,2445521320
92,23,13,Improv_Metronome,264,5,42,127,2446006676
92,23,13,Improv_Metronome,265,1,38,78,2446017728
92,23,13,Improv_Metronome,266,1,38,32,2446118604
92,23,13,Improv_Metronome,267,1,48,67,2446496656
92,23,13,Improv_Metronome,268,5,42,127,2446507316
92,23,13,Improv_Metronome,269,1,38,67,2447000316
92,23,13,Improv_Metronome,270,5,42,127,2447007308
92,23,13,Improv_Metronome,271,1,38,63,2447488716
92,23,13,Improv_Metronome,272,5,42,127,2447506776
92,23,13,Improv_Metronome,273,1,38,81,2447983324
92,23,13,Improv_Metronome,274,5,42,127,2448006620
92,23,13,Improv_Metronome,275,1,38,38,2448065824
92,23,13,Improv_Metronome,276,1,48,82,2448458968
92,23,13,Improv_Metronome,277,5,42,127,2448507192
92,23,13,Improv_Metronome,278,5,42,127,2449007192
92,23,13,Improv_Metronome,279,1,38,81,2449011060
92,23,13,Improv_Metronome,280,1,38,80,2449500344
92,23,13,Improv_Metronome,281,5,42,127,2449506804
92,23,13,Improv_Metronome,282,1,38,84,2449995148
92,23,13,Improv_Metronome,283,5,42,127,2450007400
92,23,13,Improv_Metronome,284,1,38,43,2450075052
92,23,13,Improv_Metronome,285,1,48,58,2450494896
92,23,13,Improv_Metronome,286,5,42,127,2450507196
92,23,13,Improv_Metronome,287,1,48,77,2451003568
92,23,13,Improv_Metronome,288,5,42,127,2451006816
92,23,13,Improv_Metronome,289,1,48,77,2451504080
92,23,13,Improv_Metronome,290,5,42,127,2451506656
92,23,13,Improv_Metronome,291,1,38,75,2452002652
92,23,13,Improv_Metronome,292,5,42,127,2452007324
92,23,13,Improv_Metronome,293,5,42,127,2452507100
92,23,13,Improv_Metronome,294,1,48,67,2452521364
92,23,13,Improv_Metronome,295,1,48,76,2452977060
92,23,13,Improv_Metronome,296,5,42,127,2453006712
92,23,13,Improv_Metronome,297,1,48,64,2453486176
92,23,13,Improv_Metronome,298,5,42,127,2453506484
92,23,13,Improv_Metronome,299,5,42,127,2454007080
92,23,13,Improv_Metronome,300,1,38,58,2454033616
92,23,13,Improv_Metronome,301,5,42,127,2454506848
92,23,13,Improv_Metronome,302,1,48,63,2454507816
92,23,13,Improv_Metronome,303,1,48,69,2454988032
92,23,13,Improv_Metronome,304,5,42,127,2455006540
92,23,13,Improv_Metronome,305,1,48,77,2455484436
92,23,13,Improv_Metronome,306,5,42,127,2455507280
92,23,13,Improv_Metronome,307,5,42,127,2456007056
92,23,13,Improv_Metronome,308,1,38,56,2456030300
92,23,13,Improv_Metronome,0,9999,9999,9999,2386504780
92,23,13,Improv_Metronome,1,9999,9999,9999,2387004496
92,23,13,Improv_Metronome,2,9999,9999,9999,2387504212
92,23,13,Improv_Metronome,3,9999,9999,9999,2388004976
92,23,13,Improv_Metronome,4,9999,9999,9999,2388504668
92,23,13,Improv_Metronome,5,9999,9999,9999,2389004364
92,23,13,Improv_Metronome,6,9999,9999,9999,2389504056
92,23,13,Improv_Metronome,7,9999,9999,9999,2390004800
92,23,13,Improv_Metronome,8,9999,9999,9999,2390504560
92,23,13,Improv_Metronome,9,9999,9999,9999,2391004256
92,23,13,Improv_Metronome,10,9999,9999,9999,2391504996
92,23,13,Improv_Metronome,11,9999,9999,9999,2392004692
92,23,13,Improv_Metronome,12,9999,9999,9999,2392504384
92,23,13,Improv_Metronome,13,9999,9999,9999,2393004080
92,23,13,Improv_Metronome,14,9999,9999,9999,2393504872
92,23,13,Improv_Metronome,15,9999,9999,9999,2394004568
92,23,13,Improv_Metronome,16,9999,9999,9999,2394504260
92,23,13,Improv_Metronome,17,9999,9999,9999,2395005004
92,23,13,Improv_Metronome,18,9999,9999,9999,2395504704
92,23,13,Improv_Metronome,19,9999,9999,9999,2396004432
92,23,13,Improv_Metronome,20,9999,9999,9999,2396504120
92,23,13,Improv_Metronome,21,9999,9999,9999,2397004912
92,23,13,Improv_Metronome,22,9999,9999,9999,2397504608
92,23,13,Improv_Metronome,23,9999,9999,9999,2398004300
92,23,13,Improv_Metronome,24,9999,9999,9999,2398505040
92,23,13,Improv_Metronome,25,9999,9999,9999,2399004788
92,23,13,Improv_Metronome,26,9999,9999,9999,2399504484
92,23,13,Improv_Metronome,27,9999,9999,9999,2400004176
92,23,13,Improv_Metronome,28,9999,9999,9999,2400504924
92,23,13,Improv_Metronome,29,9999,9999,9999,2401004612
92,23,13,Improv_Metronome,30,9999,9999,9999,2401504308
92,23,13,Improv_Metronome,31,9999,9999,9999,2402005048
92,23,13,Improv_Metronome,32,9999,9999,9999,2402504820
92,23,13,Improv_Metronome,33,9999,9999,9999,2403004516
92,23,13,Improv_Metronome,34,9999,9999,9999,2403504208
92,23,13,Improv_Metronome,35,9999,9999,9999,2404004952
92,23,13,Improv_Metronome,36,9999,9999,9999,2404504644
92,23,13,Improv_Metronome,37,9999,9999,9999,2405004392
92,23,13,Improv_Metronome,38,9999,9999,9999,2405504084
92,23,13,Improv_Metronome,39,9999,9999,9999,2406004828
92,23,13,Improv_Metronome,40,9999,9999,9999,2406504520
92,23,13,Improv_Metronome,41,9999,9999,9999,2407004224
92,23,13,Improv_Metronome,42,9999,9999,9999,2407505016
92,23,13,Improv_Metronome,43,9999,9999,9999,2408004684
92,23,13,Improv_Metronome,44,9999,9999,9999,2408504380
92,23,13,Improv_Metronome,45,9999,9999,9999,2409004148
92,23,13,Improv_Metronome,46,9999,9999,9999,2409504880
92,23,13,Improv_Metronome,47,9999,9999,9999,2410004576
92,23,13,Improv_Metronome,48,9999,9999,9999,2410504272
92,23,13,Improv_Metronome,49,9999,9999,9999,2411005012
92,23,13,Improv_Metronome,50,9999,9999,9999,2411504708
92,23,13,Improv_Metronome,51,9999,9999,9999,2412004404
92,23,13,Improv_Metronome,52,9999,9999,9999,2412504172
92,23,13,Improv_Metronome,53,9999,9999,9999,2413004876
92,23,13,Improv_Metronome,54,9999,9999,9999,2413504600
92,23,13,Improv_Metronome,55,9999,9999,9999,2414004296
92,23,13,Improv_Metronome,56,9999,9999,9999,2414505036
92,23,13,Improv_Metronome,57,9999,9999,9999,2415004724
92,23,13,Improv_Metronome,58,9999,9999,9999,2415504472
92,23,13,Improv_Metronome,59,9999,9999,9999,2416004156
92,23,13,Improv_Metronome,60,9999,9999,9999,2416504952
92,23,13,Improv_Metronome,61,9999,9999,9999,2417004624
92,23,13,Improv_Metronome,62,9999,9999,9999,2417504320
92,23,13,Improv_Metronome,63,9999,9999,9999,2418005064
92,23,13,Improv_Metronome,64,9999,9999,9999,2418504796
92,23,13,Improv_Metronome,65,9999,9999,9999,2419004468
92,23,13,Improv_Metronome,66,9999,9999,9999,2419504236
92,23,13,Improv_Metronome,67,9999,9999,9999,2420004972
92,23,13,Improv_Metronome,68,9999,9999,9999,2420504652
92,23,13,Improv_Metronome,69,9999,9999,9999,2421004364
92,23,13,Improv_Metronome,70,9999,9999,9999,2421504060
92,23,13,Improv_Metronome,71,9999,9999,9999,2422004852
92,23,13,Improv_Metronome,72,9999,9999,9999,2422504548
92,23,13,Improv_Metronome,73,9999,9999,9999,2423004248
92,23,13,Improv_Metronome,74,9999,9999,9999,2423504992
92,23,13,Improv_Metronome,75,9999,9999,9999,2424004680
92,23,13,Improv_Metronome,76,9999,9999,9999,2424504384
92,23,13,Improv_Metronome,77,9999,9999,9999,2425004144
92,23,13,Improv_Metronome,78,9999,9999,9999,2425504888
92,23,13,Improv_Metronome,79,9999,9999,9999,2426004560
92,23,13,Improv_Metronome,80,9999,9999,9999,2426504256
92,23,13,Improv_Metronome,81,9999,9999,9999,2427005004
92,23,13,Improv_Metronome,82,9999,9999,9999,2427504688
92,23,13,Improv_Metronome,83,9999,9999,9999,2428004464
92,23,13,Improv_Metronome,84,9999,9999,9999,2428504160
92,23,13,Improv_Metronome,85,9999,9999,9999,2429004872
92,23,13,Improv_Metronome,86,9999,9999,9999,2429504572
92,23,13,Improv_Metronome,87,9999,9999,9999,2430004340
92,23,13,Improv_Metronome,88,9999,9999,9999,2430505080
92,23,13,Improv_Metronome,89,9999,9999,9999,2431004776
92,23,13,Improv_Metronome,90,9999,9999,9999,2431504472
92,23,13,Improv_Metronome,91,9999,9999,9999,2432004160
92,23,13,Improv_Metronome,92,9999,9999,9999,2432504904
92,23,13,Improv_Metronome,93,9999,9999,9999,2433004648
92,23,13,Improv_Metronome,94,9999,9999,9999,2433504344
92,23,13,Improv_Metronome,95,9999,9999,9999,2434005088
92,23,13,Improv_Metronome,96,9999,9999,9999,2434504760
92,23,13,Improv_Metronome,97,9999,9999,9999,2435004528
92,23,13,Improv_Metronome,98,9999,9999,9999,2435504224
92,23,13,Improv_Metronome,99,9999,9999,9999,2436004968
92,23,13,Improv_Metronome,100,9999,9999,9999,2436504664
92,23,13,Improv_Metronome,101,9999,9999,9999,2437004356
92,23,13,Improv_Metronome,102,9999,9999,9999,2437504112
92,23,13,Improv_Metronome,103,9999,9999,9999,2438004852
92,23,13,Improv_Metronome,104,9999,9999,9999,2438504540
92,23,13,Improv_Metronome,105,9999,9999,9999,2439004236
92,23,13,Improv_Metronome,106,9999,9999,9999,2439504984
92,23,13,Improv_Metronome,107,9999,9999,9999,2440004728
92,23,13,Improv_Metronome,108,9999,9999,9999,2440504428
92,23,13,Improv_Metronome,109,9999,9999,9999,2441004116
92,23,13,Improv_Metronome,110,9999,9999,9999,2441504844
92,23,13,Improv_Metronome,111,9999,9999,9999,2442004532
92,23,13,Improv_Metronome,112,9999,9999,9999,2442504300
92,23,13,Improv_Metronome,113,9999,9999,9999,2443005040
92,23,13,Improv_Metronome,114,9999,9999,9999,2443504720
92,23,13,Improv_Metronome,115,9999,9999,9999,2444004416
92,23,13,Improv_Metronome,116,9999,9999,9999,2444504180
92,23,13,Improv_Metronome,117,9999,9999,9999,2445004920
92,23,13,Improv_Metronome,118,9999,9999,9999,2445504620
92,23,13,Improv_Metronome,119,9999,9999,9999,2446004316
92,23,13,Improv_Metronome,120,9999,9999,9999,2446505028
92,23,13,Improv_Metronome,121,9999,9999,9999,2447004724
92,23,13,Improv_Metronome,122,9999,9999,9999,2447504492
92,23,13,Improv_Metronome,123,9999,9999,9999,2448004188
92,23,13,Improv_Metronome,124,9999,9999,9999,2448504904
92,23,13,Improv_Metronome,125,9999,9999,9999,2449004608
92,23,13,Improv_Metronome,126,9999,9999,9999,2449504372
92,23,13,Improv_Metronome,127,9999,9999,9999,2450005112
92,23,13,Improv_Metronome,128,9999,9999,9999,2450504760
92,23,13,Improv_Metronome,129,9999,9999,9999,2451004528
92,23,13,Improv_Metronome,130,9999,9999,9999,2451504224
92,23,13,Improv_Metronome,131,9999,9999,9999,2452004964
92,23,13,Improv_Metronome,132,9999,9999,9999,2452504664
92,23,13,Improv_Metronome,133,9999,9999,9999,2453004352
92,23,13,Improv_Metronome,134,9999,9999,9999,2453504120
92,23,13,Improv_Metronome,135,9999,9999,9999,2454004796
92,23,13,Improv_Metronome,136,9999,9999,9999,2454504564
92,23,13,Improv_Metronome,137,9999,9999,9999,2455004252
92,23,13,Improv_Metronome,138,9999,9999,9999,2455504996
92,23,13,Improv_Metronome,139,9999,9999,9999,2456004696
92,24,14,Improv_Melody,0,2,48,80,2509096384
92,24,14,Improv_Melody,1,2,72,80,2509099056
92,24,14,Improv_Melody,2,5,42,127,2509100396
92,24,14,Improv_Melody,3,5,42,110,2509593160
92,24,14,Improv_Melody,4,5,42,110,2510092584
92,24,14,Improv_Melody,5,5,42,110,2510593276
92,24,14,Improv_Melody,6,5,42,127,2511093372
92,24,14,Improv_Melody,7,5,42,110,2511592944
92,24,14,Improv_Melody,8,5,42,110,2512092668
92,24,14,Improv_Melody,9,5,42,110,2512593288
92,24,14,Improv_Melody,10,2,43,80,2513095816
92,24,14,Improv_Melody,11,2,67,80,2513097892
92,24,14,Improv_Melody,12,5,42,127,2513100352
92,24,14,Improv_Melody,13,5,42,110,2513592968
92,24,14,Improv_Melody,14,5,42,110,2514093364
92,24,14,Improv_Melody,15,5,42,110,2514593236
92,24,14,Improv_Melody,16,5,42,127,2515093032
92,24,14,Improv_Melody,17,5,42,110,2515592456
92,24,14,Improv_Melody,18,5,42,110,2516093228
92,24,14,Improv_Melody,19,5,42,110,2516593096
92,24,14,Improv_Melody,20,2,45,80,2517095248
92,24,14,Improv_Melody,21,2,69,80,2517097172
92,24,14,Improv_Melody,22,5,42,127,2517099936
92,24,14,Improv_Melody,23,5,42,110,2517592404
92,24,14,Improv_Melody,24,5,42,110,2518093148
92,24,14,Improv_Melody,25,5,42,110,2518593092
92,24,14,Improv_Melody,26,5,42,127,2519092592
92,24,14,Improv_Melody,27,5,42,110,2519593360
92,24,14,Improv_Melody,28,5,42,110,2520093080
92,24,14,Improv_Melody,29,5,42,110,2520592876
92,24,14,Improv_Melody,30,2,41,80,2521095104
92,24,14,Improv_Melody,31,2,65,80,2521097100
92,24,14,Improv_Melody,32,5,42,127,2521099568
92,24,14,Improv_Melody,33,5,42,110,2521593232
92,24,14,Improv_Melody,34,5,42,110,2522093028
92,24,14,Improv_Melody,35,5,42,110,2522592748
92,24,14,Improv_Melody,36,5,42,127,2523093368
92,24,14,Improv_Melody,37,5,42,110,2523592940
92,24,14,Improv_Melody,38,5,42,110,2524092960
92,24,14,Improv_Melody,39,5,42,110,2524592388
92,24,14,Improv_Melody,40,2,48,80,2525095880
92,24,14,Improv_Melody,41,2,72,80,2525097956
92,24,14,Improv_Melody,42,5,42,127,2525100496
92,24,14,Improv_Melody,43,1,48,51,2525127924
92,24,14,Improv_Melody,44,5,42,110,2525593088
92,24,14,Improv_Melody,45,1,48,48,2525621188
92,24,14,Improv_Melody,46,5,42,110,2526092864
92,24,14,Improv_Melody,47,1,48,62,2526109224
92,24,14,Improv_Melody,48,5,42,110,2526593460
92,24,14,Improv_Melody,49,1,48,63,2526618416
92,24,14,Improv_Melody,50,5,42,127,2527093164
92,24,14,Improv_Melody,51,1,38,61,2527110420
92,24,14,Improv_Melody,52,5,42,110,2527592864
92,24,14,Improv_Melody,53,1,48,65,2527595608
92,24,14,Improv_Melody,54,1,48,65,2528072592
92,24,14,Improv_Melody,55,5,42,110,2528092480
92,24,14,Improv_Melody,56,1,48,61,2528583364
92,24,14,Improv_Melody,57,5,42,110,2528593300
92,24,14,Improv_Melody,58,1,38,73,2529086200
92,24,14,Improv_Melody,59,2,43,80,2529095176
92,24,14,Improv_Melody,60,2,67,80,2529097480
92,24,14,Improv_Melody,61,5,42,127,2529100096
92,24,14,Improv_Melody,62,5,42,110,2529592768
92,24,14,Improv_Melody,63,1,48,71,2529624036
92,24,14,Improv_Melody,64,5,42,110,2530093372
92,24,14,Improv_Melody,65,1,48,67,2530099928
92,24,14,Improv_Melody,66,1,48,68,2530578664
92,24,14,Improv_Melody,67,5,42,110,2530593136
92,24,14,Improv_Melody,68,1,38,60,2531079560
92,24,14,Improv_Melody,69,5,42,127,2531092764
92,24,14,Improv_Melody,70,1,48,67,2531586588
92,24,14,Improv_Melody,71,5,42,110,2531592688
92,24,14,Improv_Melody,72,1,48,65,2532087408
92,24,14,Improv_Melody,73,5,42,110,2532093432
92,24,14,Improv_Melody,74,1,48,76,2532573648
92,24,14,Improv_Melody,75,5,42,110,2532592984
92,24,14,Improv_Melody,76,2,45,80,2533095268
92,24,14,Improv_Melody,77,2,69,80,2533097500
92,24,14,Improv_Melody,78,5,42,127,2533100032
92,24,14,Improv_Melody,79,1,38,61,2533105320
92,24,14,Improv_Melody,80,1,38,67,2533579268
92,24,14,Improv_Melody,81,5,42,110,2533592396
92,24,14,Improv_Melody,82,5,42,110,2534093152
92,24,14,Improv_Melody,83,1,38,62,2534107788
92,24,14,Improv_Melody,84,5,42,110,2534592852
92,24,14,Improv_Melody,85,1,48,76,2534599784
92,24,14,Improv_Melody,86,5,42,127,2535092552
92,24,14,Improv_Melody,87,1,38,69,2535108528
92,24,14,Improv_Melody,88,1,38,74,2535570888
92,24,14,Improv_Melody,89,5,42,110,2535593216
92,24,14,Improv_Melody,90,1,38,66,2536081508
92,24,14,Improv_Melody,91,5,42,110,2536092916
92,24,14,Improv_Melody,92,1,48,70,2536567444
92,24,14,Improv_Melody,93,5,42,110,2536592692
92,24,14,Improv_Melody,94,1,38,66,2537082932
92,24,14,Improv_Melody,95,2,41,80,2537095120
92,24,14,Improv_Melody,96,2,65,80,2537097348
92,24,14,Improv_Melody,97,5,42,127,2537099808
92,24,14,Improv_Melody,98,1,38,72,2537575760
92,24,14,Improv_Melody,99,5,42,110,2537593228
92,24,14,Improv_Melody,100,5,42,110,2538092788
92,24,14,Improv_Melody,101,1,38,62,2538097620
92,24,14,Improv_Melody,102,1,38,26,2538198504
92,24,14,Improv_Melody,103,1,48,72,2538572872
92,24,14,Improv_Melody,104,5,42,110,2538592756
92,24,14,Improv_Melody,105,5,42,127,2539093360
92,24,14,Improv_Melody,106,1,38,69,2539140612
92,24,14,Improv_Melody,107,1,38,55,2539587756
92,24,14,Improv_Melody,108,5,42,110,2539593032
92,24,14,Improv_Melody,109,1,38,59,2540085060
92,24,14,Improv_Melody,110,5,42,110,2540092728
92,24,14,Improv_Melody,111,1,38,18,2540200500
92,24,14,Improv_Melody,112,1,48,72,2540560656
92,24,14,Improv_Melody,113,5,42,110,2540592856
92,24,14,Improv_Melody,114,2,48,80,2541095816
92,24,14,Improv_Melody,115,2,72,80,2541097740
92,24,14,Improv_Melody,116,5,42,127,2541100360
92,24,14,Improv_Melody,117,1,48,65,2541105572
92,24,14,Improv_Melody,118,1,48,67,2541588412
92,24,14,Improv_Melody,119,5,42,110,2541592872
92,24,14,Improv_Melody,120,5,42,110,2542092800
92,24,14,Improv_Melody,121,1,48,69,2542128456
92,24,14,Improv_Melody,122,5,42,110,2542593472
92,24,14,Improv_Melody,123,1,38,80,2542612000
92,24,14,Improv_Melody,124,5,42,127,2543093096
92,24,14,Improv_Melody,125,1,48,89,2543101304
92,24,14,Improv_Melody,126,1,48,77,2543592044
92,24,14,Improv_Melody,127,5,42,110,2543593616
92,24,14,Improv_Melody,128,1,48,72,2544089980
92,24,14,Improv_Melody,129,5,42,110,2544092712
92,24,14,Improv_Melody,130,1,38,72,2544579432
92,24,14,Improv_Melody,131,5,42,110,2544593384
92,24,14,Improv_Melody,132,1,48,72,2545083024
92,24,14,Improv_Melody,133,2,43,80,2545095744
92,24,14,Improv_Melody,134,2,67,80,2545097664
92,24,14,Improv_Melody,135,5,42,127,2545100204
92,24,14,Improv_Melody,136,1,48,80,2545588044
92,24,14,Improv_Melody,137,5,42,110,2545592800
92,24,14,Improv_Melody,138,5,42,110,2546093404
92,24,14,Improv_Melody,139,1,48,72,2546105048
92,24,14,Improv_Melody,140,5,42,110,2546593252
92,24,14,Improv_Melody,141,1,38,85,2546594216
92,24,14,Improv_Melody,142,5,42,127,2547092728
92,24,14,Improv_Melody,143,1,48,77,2547111404
92,24,14,Improv_Melody,144,5,42,110,2547592728
92,24,14,Improv_Melody,145,1,48,75,2547596140
92,24,14,Improv_Melody,146,1,48,83,2548083928
92,24,14,Improv_Melody,147,5,42,110,2548093392
92,24,14,Improv_Melody,148,1,38,86,2548586696
92,24,14,Improv_Melody,149,5,42,110,2548593092
92,24,14,Improv_Melody,150,2,45,80,2549095300
92,24,14,Improv_Melody,151,1,38,71,2549097912
92,24,14,Improv_Melody,152,2,69,80,2549100076
92,24,14,Improv_Melody,153,5,42,127,2549102616
92,24,14,Improv_Melody,154,1,38,70,2549569484
92,24,14,Improv_Melody,155,5,42,110,2549592592
92,24,14,Improv_Melody,156,1,38,76,2550070908
92,24,14,Improv_Melody,157,5,42,110,2550093312
92,24,14,Improv_Melody,158,1,38,44,2550145856
92,24,14,Improv_Melody,159,1,48,85,2550567492
92,24,14,Improv_Melody,160,5,42,110,2550592968
92,24,14,Improv_Melody,161,1,38,75,2551089264
92,24,14,Improv_Melody,162,5,42,127,2551092592
92,24,14,Improv_Melody,163,1,38,72,2551559564
92,24,14,Improv_Melody,164,5,42,110,2551593412
92,24,14,Improv_Melody,165,1,38,73,2552092824
92,24,14,Improv_Melody,166,5,42,110,2552095356
92,24,14,Improv_Melody,167,5,42,110,2552592672
92,24,14,Improv_Melody,168,1,48,81,2552615460
92,24,14,Improv_Melody,169,2,41,80,2553095180
92,24,14,Improv_Melody,170,2,65,80,2553097252
92,24,14,Improv_Melody,171,5,42,127,2553099936
92,24,14,Improv_Melody,172,1,38,72,2553124152
92,24,14,Improv_Melody,173,5,42,110,2553593132
92,24,14,Improv_Melody,174,1,38,68,2553597740
92,24,14,Improv_Melody,175,1,38,73,2554089496
92,24,14,Improv_Melody,176,5,42,110,2554092824
92,24,14,Improv_Melody,177,5,42,110,2554592604
92,24,14,Improv_Melody,178,1,48,83,2554601632
92,24,14,Improv_Melody,179,5,42,127,2555093500
92,24,14,Improv_Melody,180,1,38,77,2555123996
92,24,14,Improv_Melody,181,5,42,110,2555592952
92,24,14,Improv_Melody,182,1,38,67,2555596516
92,24,14,Improv_Melody,183,1,38,70,2556082360
92,24,14,Improv_Melody,184,5,42,110,2556092868
92,24,14,Improv_Melody,185,1,38,17,2556221328
92,24,14,Improv_Melody,186,1,48,81,2556586596
92,24,14,Improv_Melody,187,5,42,110,2556592696
92,24,14,Improv_Melody,188,2,48,80,2557095800
92,24,14,Improv_Melody,189,2,72,80,2557098032
92,24,14,Improv_Melody,190,5,42,127,2557100640
92,24,14,Improv_Melody,191,1,48,83,2557104732
92,24,14,Improv_Melody,192,5,42,110,2557592864
92,24,14,Improv_Melody,193,1,48,88,2557595832
92,24,14,Improv_Melody,194,5,42,110,2558092636
92,24,14,Improv_Melody,195,1,48,86,2558111764
92,24,14,Improv_Melody,196,1,48,18,2558264480
92,24,14,Improv_Melody,197,5,42,110,2558593436
92,24,14,Improv_Melody,198,1,38,84,2558597524
92,24,14,Improv_Melody,199,1,38,23,2558717924
92,24,14,Improv_Melody,200,5,42,127,2559093264
92,24,14,Improv_Melody,201,1,48,86,2559094904
92,24,14,Improv_Melody,202,5,42,110,2559592740
92,24,14,Improv_Melody,203,1,48,78,2559610292
92,24,14,Improv_Melody,204,1,48,84,2560064620
92,24,14,Improv_Melody,205,5,42,110,2560092504
92,24,14,Improv_Melody,206,5,42,110,2560593408
92,24,14,Improv_Melody,207,1,38,78,2560594596
92,24,14,Improv_Melody,208,1,48,76,2561095132
92,24,14,Improv_Melody,209,2,43,80,2561097004
92,24,14,Improv_Melody,210,2,67,80,2561098780
92,24,14,Improv_Melody,211,5,42,127,2561101464
92,24,14,Improv_Melody,212,5,42,110,2561592716
92,24,14,Improv_Melody,213,1,48,72,2561605856
92,24,14,Improv_Melody,214,5,42,110,2562093312
92,24,14,Improv_Melody,215,1,48,83,2562104880
92,24,14,Improv_Melody,216,5,42,110,2562593236
92,24,14,Improv_Melody,217,1,38,76,2562596276
92,24,14,Improv_Melody,218,5,42,127,2563092784
92,24,14,Improv_Melody,219,1,48,92,2563106596
92,24,14,Improv_Melody,220,5,42,110,2563592484
92,24,14,Improv_Melody,221,1,48,84,2563623280
92,24,14,Improv_Melody,222,5,42,110,2564093380
92,24,14,Improv_Melody,223,1,48,79,2564107496
92,24,14,Improv_Melody,224,1,38,81,2564591260
92,24,14,Improv_Melody,225,5,42,110,2564593972
92,24,14,Improv_Melody,226,2,45,80,2565095204
92,24,14,Improv_Melody,227,2,69,80,2565097356
92,24,14,Improv_Melody,228,5,42,127,2565100044
92,24,14,Improv_Melody,229,1,38,75,2565139968
92,24,14,Improv_Melody,230,5,42,110,2565592420
92,24,14,Improv_Melody,231,1,38,73,2565611092
92,24,14,Improv_Melody,232,1,38,70,2566084588
92,24,14,Improv_Melody,233,5,42,110,2566093380
92,24,14,Improv_Melody,234,1,38,43,2566158116
92,24,14,Improv_Melody,235,5,42,110,2566592840
92,24,14,Improv_Melody,236,1,48,81,2566594852
92,24,14,Improv_Melody,237,5,42,127,2567092540
92,24,14,Improv_Melody,238,1,38,80,2567104408
92,24,14,Improv_Melody,239,5,42,110,2567593436
92,24,14,Improv_Melody,240,1,38,74,2567612488
92,24,14,Improv_Melody,241,1,38,71,2568091316
92,24,14,Improv_Melody,242,5,42,110,2568094324
92,24,14,Improv_Melody,243,1,48,82,2568589504
92,24,14,Improv_Melody,244,5,42,110,2568592608
92,24,14,Improv_Melody,245,1,38,69,2569072144
92,24,14,Improv_Melody,246,2,41,80,2569094880
92,24,14,Improv_Melody,247,2,65,80,2569097264
92,24,14,Improv_Melody,248,5,42,127,2569099796
92,24,14,Improv_Melody,249,1,38,65,2569552188
92,24,14,Improv_Melody,250,5,42,110,2569593364
92,24,14,Improv_Melody,251,5,42,110,2570092996
92,24,14,Improv_Melody,252,1,38,70,2570093964
92,24,14,Improv_Melody,253,5,42,110,2570592624
92,24,14,Improv_Melody,254,1,48,95,2570603896
92,24,14,Improv_Melody,255,5,42,127,2571093372
92,24,14,Improv_Melody,256,1,38,73,2571131196
92,24,14,Improv_Melody,257,1,38,66,2571590684
92,24,14,Improv_Melody,258,5,42,110,2571593412
92,24,14,Improv_Melody,259,1,38,69,2572063156
92,24,14,Improv_Melody,260,5,42,110,2572092740
92,24,14,Improv_Melody,261,1,38,20,2572171712
92,24,14,Improv_Melody,262,1,48,74,2572581604
92,24,14,Improv_Melody,263,5,42,110,2572592640
92,24,14,Improv_Melody,264,2,48,80,2573095596
92,24,14,Improv_Melody,265,2,72,80,2573097896
92,24,14,Improv_Melody,266,5,42,127,2573100364
92,24,14,Improv_Melody,267,1,48,72,2573117168
92,24,14,Improv_Melody,268,1,48,69,2573590292
92,24,14,Improv_Melody,269,5,42,110,2573593176
92,24,14,Improv_Melody,270,5,42,110,2574092512
92,24,14,Improv_Melody,271,1,48,73,2574122928
92,24,14,Improv_Melody,272,5,42,110,2574593332
92,24,14,Improv_Melody,273,1,38,79,2574598020
92,24,14,Improv_Melody,274,5,42,127,2575093256
92,24,14,Improv_Melody,275,1,48,77,2575094592
92,24,14,Improv_Melody,276,5,42,110,2575593032
92,24,14,Improv_Melody,277,1,48,78,2575614328
92,24,14,Improv_Melody,278,5,42,110,2576092580
92,24,14,Improv_Melody,279,1,48,76,2576108040
92,24,14,Improv_Melody,280,5,42,110,2576593252
92,24,14,Improv_Melody,281,1,38,86,2576598540
92,24,14,Improv_Melody,282,2,43,80,2577095764
92,24,14,Improv_Melody,283,2,67,80,2577097836
92,24,14,Improv_Melody,284,1,48,89,2577098876
92,24,14,Improv_Melody,285,5,42,127,2577101936
92,24,14,Improv_Melody,286,5,42,110,2577592668
92,24,14,Improv_Melody,287,1,48,75,2577599152
92,24,14,Improv_Melody,288,5,42,110,2578093416
92,24,14,Improv_Melody,289,1,48,84,2578116204
92,24,14,Improv_Melody,290,5,42,110,2578593264
92,24,14,Improv_Melody,291,1,38,84,2578594228
92,24,14,Improv_Melody,292,1,48,79,2579083192
92,24,14,Improv_Melody,293,5,42,127,2579093104
92,24,14,Improv_Melody,294,5,42,110,2579592516
92,24,14,Improv_Melody,295,1,48,75,2579607152
92,24,14,Improv_Melody,296,1,48,74,2580072796
92,24,14,Improv_Melody,297,5,42,110,2580093180
92,24,14,Improv_Melody,298,5,42,110,2580592960
92,24,14,Improv_Melody,299,1,38,78,2580594296
92,24,14,Improv_Melody,300,2,45,80,2581095240
92,24,14,Improv_Melody,301,2,69,80,2581097388
92,24,14,Improv_Melody,302,5,42,127,2581100224
92,24,14,Improv_Melody,303,1,38,76,2581102972
92,24,14,Improv_Melody,304,5,42,110,2581592372
92,24,14,Improv_Melody,305,1,38,78,2581613144
92,24,14,Improv_Melody,306,1,38,73,2582088712
92,24,14,Improv_Melody,307,5,42,110,2582093160
92,24,14,Improv_Melody,308,1,48,76,2582589228
92,24,14,Improv_Melody,309,5,42,110,2582592936
92,24,14,Improv_Melody,310,5,42,127,2583092496
92,24,14,Improv_Melody,311,1,38,67,2583101072
92,24,14,Improv_Melody,312,1,38,72,2583573076
92,24,14,Improv_Melody,313,5,42,110,2583593460
92,24,14,Improv_Melody,314,1,38,62,2584093312
92,24,14,Improv_Melody,315,5,42,110,2584095852
92,24,14,Improv_Melody,316,5,42,110,2584592716
92,24,14,Improv_Melody,317,1,48,75,2584633904
92,24,14,Improv_Melody,318,2,41,80,2585094912
92,24,14,Improv_Melody,319,2,65,80,2585097068
92,24,14,Improv_Melody,320,5,42,127,2585099608
92,24,14,Improv_Melody,321,1,38,77,2585154484
92,24,14,Improv_Melody,322,5,42,110,2585593324
92,24,14,Improv_Melody,323,1,38,73,2585616184
92,24,14,Improv_Melody,324,5,42,110,2586092948
92,24,14,Improv_Melody,325,1,38,78,2586095392
92,24,14,Improv_Melody,326,5,42,110,2586592572
92,24,14,Improv_Melody,327,1,48,80,2586632640
92,24,14,Improv_Melody,328,1,38,79,2587089980
92,24,14,Improv_Melody,329,5,42,127,2587093236
92,24,14,Improv_Melody,330,1,38,79,2587587588
92,24,14,Improv_Melody,331,5,42,110,2587592940
92,24,14,Improv_Melody,332,1,38,72,2588061932
92,24,14,Improv_Melody,333,5,42,110,2588092712
92,24,14,Improv_Melody,334,5,42,110,2588592420
92,24,14,Improv_Melody,335,1,48,70,2588601220
92,24,14,Improv_Melody,336,2,48,80,2589095744
92,24,14,Improv_Melody,337,2,72,80,2589097820
92,24,14,Improv_Melody,338,5,42,127,2589100436
92,24,14,Improv_Melody,339,1,48,64,2589111104
92,24,14,Improv_Melody,340,5,42,110,2589592956
92,24,14,Improv_Melody,341,1,48,76,2589598240
92,24,14,Improv_Melody,0,9999,9999,9999,2509090884
92,24,14,Improv_Melody,1,9999,9999,9999,2509590644
92,24,14,Improv_Melody,2,9999,9999,9999,2510090292
92,24,14,Improv_Melody,3,9999,9999,9999,2510591056
92,24,14,Improv_Melody,4,9999,9999,9999,2511090780
92,24,14,Improv_Melody,5,9999,9999,9999,2511590504
92,24,14,Improv_Melody,6,9999,9999,9999,2512090224
92,24,14,Improv_Melody,7,9999,9999,9999,2512590920
92,24,14,Improv_Melody,8,9999,9999,9999,2513090640
92,24,14,Improv_Melody,9,9999,9999,9999,2513590376
92,24,14,Improv_Melody,10,9999,9999,9999,2514091072
92,24,14,Improv_Melody,11,9999,9999,9999,2514590792
92,24,14,Improv_Melody,12,9999,9999,9999,2515090516
92,24,14,Improv_Melody,13,9999,9999,9999,2515590240
92,24,14,Improv_Melody,14,9999,9999,9999,2516090932
92,24,14,Improv_Melody,15,9999,9999,9999,2516590656
92,24,14,Improv_Melody,16,9999,9999,9999,2517090376
92,24,14,Improv_Melody,17,9999,9999,9999,2517590112
92,24,14,Improv_Melody,18,9999,9999,9999,2518090856
92,24,14,Improv_Melody,19,9999,9999,9999,2518590576
92,24,14,Improv_Melody,20,9999,9999,9999,2519090224
92,24,14,Improv_Melody,21,9999,9999,9999,2519590992
92,24,14,Improv_Melody,22,9999,9999,9999,2520090712
92,24,14,Improv_Melody,23,9999,9999,9999,2520590436
92,24,14,Improv_Melody,24,9999,9999,9999,2521090156
92,24,14,Improv_Melody,25,9999,9999,9999,2521590864
92,24,14,Improv_Melody,26,9999,9999,9999,2522090584
92,24,14,Improv_Melody,27,9999,9999,9999,2522590308
92,24,14,Improv_Melody,28,9999,9999,9999,2523091000
92,24,14,Improv_Melody,29,9999,9999,9999,2523590724
92,24,14,Improv_Melody,30,9999,9999,9999,2524090444
92,24,14,Improv_Melody,31,9999,9999,9999,2524590168
92,24,14,Improv_Melody,32,9999,9999,9999,2525090936
92,24,14,Improv_Melody,33,9999,9999,9999,2525590648
92,24,14,Improv_Melody,34,9999,9999,9999,2526090348
92,24,14,Improv_Melody,35,9999,9999,9999,2526591092
92,24,14,Improv_Melody,36,9999,9999,9999,2527090796
92,24,14,Improv_Melody,37,9999,9999,9999,2527590496
92,24,14,Improv_Melody,38,9999,9999,9999,2528090188
92,24,14,Improv_Melody,39,9999,9999,9999,2528590908
92,24,14,Improv_Melody,40,9999,9999,9999,2529090608
92,24,14,Improv_Melody,41,9999,9999,9999,2529590328
92,24,14,Improv_Melody,42,9999,9999,9999,2530091076
92,24,14,Improv_Melody,43,9999,9999,9999,2530590772
92,24,14,Improv_Melody,44,9999,9999,9999,2531090544
92,24,14,Improv_Melody,45,9999,9999,9999,2531590244
92,24,14,Improv_Melody,46,9999,9999,9999,2532090992
92,24,14,Improv_Melody,47,9999,9999,9999,2532590692
92,24,14,Improv_Melody,48,9999,9999,9999,2533090396
92,24,14,Improv_Melody,49,9999,9999,9999,2533590104
92,24,14,Improv_Melody,50,9999,9999,9999,2534090860
92,24,14,Improv_Melody,51,9999,9999,9999,2534590556
92,24,14,Improv_Melody,52,9999,9999,9999,2535090256
92,24,14,Improv_Melody,53,9999,9999,9999,2535591000
92,24,14,Improv_Melody,54,9999,9999,9999,2536090696
92,24,14,Improv_Melody,55,9999,9999,9999,2536590400
92,24,14,Improv_Melody,56,9999,9999,9999,2537090100
92,24,14,Improv_Melody,57,9999,9999,9999,2537590860
92,24,14,Improv_Melody,58,9999,9999,9999,2538090568
92,24,14,Improv_Melody,59,9999,9999,9999,2538590316
92,24,14,Improv_Melody,60,9999,9999,9999,2539090992
92,24,14,Improv_Melody,61,9999,9999,9999,2539590736
92,24,14,Improv_Melody,62,9999,9999,9999,2540090436
92,24,14,Improv_Melody,63,9999,9999,9999,2540590192
92,24,14,Improv_Melody,64,9999,9999,9999,2541090868
92,24,14,Improv_Melody,65,9999,9999,9999,2541590580
92,24,14,Improv_Melody,66,9999,9999,9999,2542090360
92,24,14,Improv_Melody,67,9999,9999,9999,2542591032
92,24,14,Improv_Melody,68,9999,9999,9999,2543090804
92,24,14,Improv_Melody,69,9999,9999,9999,2543590504
92,24,14,Improv_Melody,70,9999,9999,9999,2544090196
92,24,14,Improv_Melody,71,9999,9999,9999,2544590944
92,24,14,Improv_Melody,72,9999,9999,9999,2545090644
92,24,14,Improv_Melody,73,9999,9999,9999,2545590356
92,24,14,Improv_Melody,74,9999,9999,9999,2546091112
92,24,14,Improv_Melody,75,9999,9999,9999,2546590808
92,24,14,Improv_Melody,76,9999,9999,9999,2547090508
92,24,14,Improv_Melody,77,9999,9999,9999,2547590212
92,24,14,Improv_Melody,78,9999,9999,9999,2548090948
92,24,14,Improv_Melody,79,9999,9999,9999,2548590648
92,24,14,Improv_Melody,80,9999,9999,9999,2549090356
92,24,14,Improv_Melody,81,9999,9999,9999,2549590076
92,24,14,Improv_Melody,82,9999,9999,9999,2550090872
92,24,14,Improv_Melody,83,9999,9999,9999,2550590524
92,24,14,Improv_Melody,84,9999,9999,9999,2551090224
92,24,14,Improv_Melody,85,9999,9999,9999,2551590972
92,24,14,Improv_Melody,86,9999,9999,9999,2552090680
92,24,14,Improv_Melody,87,9999,9999,9999,2552590452
92,24,14,Improv_Melody,88,9999,9999,9999,2553090152
92,24,14,Improv_Melody,89,9999,9999,9999,2553590836
92,24,14,Improv_Melody,90,9999,9999,9999,2554090608
92,24,14,Improv_Melody,91,9999,9999,9999,2554590312
92,24,14,Improv_Melody,92,9999,9999,9999,2555091056
92,24,14,Improv_Melody,93,9999,9999,9999,2555590732
92,24,14,Improv_Melody,94,9999,9999,9999,2556090428
92,24,14,Improv_Melody,95,9999,9999,9999,2556590180
92,24,14,Improv_Melody,96,9999,9999,9999,2557090932
92,24,14,Improv_Melody,97,9999,9999,9999,2557590644
92,24,14,Improv_Melody,98,9999,9999,9999,2558090344
92,24,14,Improv_Melody,99,9999,9999,9999,2558591068
92,24,14,Improv_Melody,100,9999,9999,9999,2559090748
92,24,14,Improv_Melody,101,9999,9999,9999,2559590520
92,24,14,Improv_Melody,102,9999,9999,9999,2560090212
92,24,14,Improv_Melody,103,9999,9999,9999,2560590968
92,24,14,Improv_Melody,104,9999,9999,9999,2561090640
92,24,14,Improv_Melody,105,9999,9999,9999,2561590348
92,24,14,Improv_Melody,106,9999,9999,9999,2562091092
92,24,14,Improv_Melody,107,9999,9999,9999,2562590792
92,24,14,Improv_Melody,108,9999,9999,9999,2563090492
92,24,14,Improv_Melody,109,9999,9999,9999,2563590192
92,24,14,Improv_Melody,110,9999,9999,9999,2564090936
92,24,14,Improv_Melody,111,9999,9999,9999,2564590656
92,24,14,Improv_Melody,112,9999,9999,9999,2565090412
92,24,14,Improv_Melody,113,9999,9999,9999,2565590124
92,24,14,Improv_Melody,114,9999,9999,9999,2566090864
92,24,14,Improv_Melody,115,9999,9999,9999,2566590548
92,24,14,Improv_Melody,116,9999,9999,9999,2567090248
92,24,14,Improv_Melody,117,9999,9999,9999,2567590996
92,24,14,Improv_Melody,118,9999,9999,9999,2568090712
92,24,14,Improv_Melody,119,9999,9999,9999,2568590388
92,24,14,Improv_Melody,120,9999,9999,9999,2569090164
92,24,14,Improv_Melody,121,9999,9999,9999,2569590848
92,24,14,Improv_Melody,122,9999,9999,9999,2570090556
92,24,14,Improv_Melody,123,9999,9999,9999,2570590328
92,24,14,Improv_Melody,124,9999,9999,9999,2571091004
92,24,14,Improv_Melody,125,9999,9999,9999,2571590748
92,24,14,Improv_Melody,126,9999,9999,9999,2572090448
92,24,14,Improv_Melody,127,9999,9999,9999,2572590200
92,24,14,Improv_Melody,128,9999,9999,9999,2573090876
92,24,14,Improv_Melody,129,9999,9999,9999,2573590584
92,24,14,Improv_Melody,130,9999,9999,9999,2574090296
92,24,14,Improv_Melody,131,9999,9999,9999,2574591040
92,24,14,Improv_Melody,132,9999,9999,9999,2575090740
92,24,14,Improv_Melody,133,9999,9999,9999,2575590516
92,24,14,Improv_Melody,134,9999,9999,9999,2576090212
92,24,14,Improv_Melody,135,9999,9999,9999,2576590960
92,24,14,Improv_Melody,136,9999,9999,9999,2577090660
92,24,14,Improv_Melody,137,9999,9999,9999,2577590376
92,24,14,Improv_Melody,138,9999,9999,9999,2578091124
92,24,14,Improv_Melody,139,9999,9999,9999,2578590820
92,24,14,Improv_Melody,140,9999,9999,9999,2579090516
92,24,14,Improv_Melody,141,9999,9999,9999,2579590220
92,24,14,Improv_Melody,142,9999,9999,9999,2580090960
92,24,14,Improv_Melody,143,9999,9999,9999,2580590668
92,24,14,Improv_Melody,144,9999,9999,9999,2581090368
92,24,14,Improv_Melody,145,9999,9999,9999,2581590080
92,24,14,Improv_Melody,146,9999,9999,9999,2582090868
92,24,14,Improv_Melody,147,9999,9999,9999,2582590568
92,24,14,Improv_Melody,148,9999,9999,9999,2583090276
92,24,14,Improv_Melody,149,9999,9999,9999,2583591016
92,24,14,Improv_Melody,150,9999,9999,9999,2584090724
92,24,14,Improv_Melody,151,9999,9999,9999,2584590424
92,24,14,Improv_Melody,152,9999,9999,9999,2585090120
92,24,14,Improv_Melody,153,9999,9999,9999,2585590880
92,24,14,Improv_Melody,154,9999,9999,9999,2586090580
92,24,14,Improv_Melody,155,9999,9999,9999,2586590280
92,24,14,Improv_Melody,156,9999,9999,9999,2587091020
92,24,14,Improv_Melody,157,9999,9999,9999,2587590720
92,24,14,Improv_Melody,158,9999,9999,9999,2588090420
92,24,14,Improv_Melody,159,9999,9999,9999,2588590200
92,24,14,Improv_Melody,160,9999,9999,9999,2589090872
92,24,14,Improv_Melody,161,9999,9999,9999,2589590588
