pid,taskRunCount,taskID,taskName,i,channel,pitch,velocity,microseconds
94,1,1,Ticks_Pract_5,0,5,42,127,89985236
94,1,1,Ticks_Pract_5,1,5,42,127,90485024
94,1,1,Ticks_Pract_5,2,5,42,127,90984892
94,1,1,Ticks_Pract_5,3,5,42,127,91484460
94,1,1,Ticks_Pract_5,4,1,48,31,91490720
94,1,1,Ticks_Pract_5,5,1,48,43,91955836
94,1,1,Ticks_Pract_5,6,5,42,127,91985192
94,1,1,Ticks_Pract_5,7,1,48,49,92451496
94,1,1,Ticks_Pract_5,8,5,42,127,92485036
94,1,1,Ticks_Pract_5,9,1,48,23,92521656
94,1,1,Ticks_Pract_5,10,1,48,50,92956624
94,1,1,Ticks_Pract_5,11,5,42,127,92984860
94,1,1,Ticks_Pract_5,12,1,48,45,93435376
94,1,1,Ticks_Pract_5,13,5,42,127,93485376
94,1,1,Ticks_Pract_5,14,1,48,50,93946068
94,1,1,Ticks_Pract_5,15,5,42,127,93984996
94,1,1,Ticks_Pract_5,16,1,48,44,94430876
94,1,1,Ticks_Pract_5,17,5,42,127,94484840
94,1,1,Ticks_Pract_5,18,1,48,51,94921224
94,1,1,Ticks_Pract_5,19,5,42,127,94984684
94,1,1,Ticks_Pract_5,20,1,48,43,95409972
94,1,1,Ticks_Pract_5,21,5,42,127,95485276
94,1,1,Ticks_Pract_5,22,1,48,44,95911988
94,1,1,Ticks_Pract_5,23,5,42,127,95985044
94,1,1,Ticks_Pract_5,24,1,48,46,96438904
94,1,1,Ticks_Pract_5,25,5,42,127,96484812
94,1,1,Ticks_Pract_5,26,1,48,24,96509164
94,1,1,Ticks_Pract_5,27,1,48,48,96893472
94,1,1,Ticks_Pract_5,28,5,42,127,96985664
94,1,1,Ticks_Pract_5,29,5,42,127,97485084
94,1,1,Ticks_Pract_5,30,1,48,27,97493364
94,1,1,Ticks_Pract_5,31,1,48,51,97924872
94,1,1,Ticks_Pract_5,32,5,42,127,97984896
94,1,1,Ticks_Pract_5,33,1,48,47,98425992
94,1,1,Ticks_Pract_5,34,5,42,127,98484440
94,1,1,Ticks_Pract_5,35,1,48,25,98490012
94,1,1,Ticks_Pract_5,36,5,42,127,98985240
94,1,1,Ticks_Pract_5,37,1,48,45,99001676
94,1,1,Ticks_Pract_5,38,1,48,21,99077376
94,1,1,Ticks_Pract_5,39,1,48,50,99468120
94,1,1,Ticks_Pract_5,40,5,42,127,99485056
94,1,1,Ticks_Pract_5,41,1,48,45,99948216
94,1,1,Ticks_Pract_5,42,5,42,127,99984676
94,1,1,Ticks_Pract_5,43,1,48,47,100469376
94,1,1,Ticks_Pract_5,44,5,42,127,100484368
94,1,1,Ticks_Pract_5,45,1,48,42,100952392
94,1,1,Ticks_Pract_5,46,5,42,127,100985184
94,1,1,Ticks_Pract_5,47,1,48,43,101460760
94,1,1,Ticks_Pract_5,48,5,42,127,101484880
94,1,1,Ticks_Pract_5,49,1,48,39,101902788
94,1,1,Ticks_Pract_5,50,5,42,127,101984576
94,1,1,Ticks_Pract_5,51,1,48,34,102445936
94,1,1,Ticks_Pract_5,52,5,42,127,102485244
94,1,1,Ticks_Pract_5,53,1,48,30,102938456
94,1,1,Ticks_Pract_5,54,5,42,127,102985012
94,1,1,Ticks_Pract_5,55,1,48,36,103438676
94,1,1,Ticks_Pract_5,56,5,42,127,103484932
94,1,1,Ticks_Pract_5,57,1,48,35,103950932
94,1,1,Ticks_Pract_5,58,5,42,127,103984476
94,1,1,Ticks_Pract_5,59,1,48,45,104473892
94,1,1,Ticks_Pract_5,60,5,42,127,104485144
94,1,1,Ticks_Pract_5,61,1,48,37,104980092
94,1,1,Ticks_Pract_5,62,5,42,127,104985136
94,1,1,Ticks_Pract_5,63,1,48,32,105464152
94,1,1,Ticks_Pract_5,64,5,42,127,105484900
94,1,1,Ticks_Pract_5,65,1,48,37,105945892
94,1,1,Ticks_Pract_5,66,5,42,127,105985348
94,1,1,Ticks_Pract_5,67,1,48,28,106461524
94,1,1,Ticks_Pract_5,68,5,42,127,106485044
94,1,1,Ticks_Pract_5,69,5,42,127,106985044
94,1,1,Ticks_Pract_5,70,1,48,32,107015912
94,1,1,Ticks_Pract_5,71,1,48,48,107466224
94,1,1,Ticks_Pract_5,72,5,42,127,107484432
94,1,1,Ticks_Pract_5,73,1,48,22,107551712
94,1,1,Ticks_Pract_5,74,1,48,44,107947772
94,1,1,Ticks_Pract_5,75,5,42,127,107985300
94,1,1,Ticks_Pract_5,76,1,48,41,108450532
94,1,1,Ticks_Pract_5,77,5,42,127,108485044
94,1,1,Ticks_Pract_5,78,1,48,36,108961000
94,1,1,Ticks_Pract_5,79,5,42,127,108984964
94,1,1,Ticks_Pract_5,80,1,48,40,109429128
94,1,1,Ticks_Pract_5,81,5,42,127,109485336
94,1,1,Ticks_Pract_5,82,1,48,33,109942960
94,1,1,Ticks_Pract_5,0,9999,9999,9999,89983024
94,1,1,Ticks_Pract_5,1,9999,9999,9999,90482740
94,1,1,Ticks_Pract_5,2,9999,9999,9999,90982456
94,1,1,Ticks_Pract_5,3,9999,9999,9999,91482172
94,1,1,Ticks_Pract_5,4,9999,9999,9999,91982908
94,1,1,Ticks_Pract_5,5,9999,9999,9999,92482676
94,1,1,Ticks_Pract_5,6,9999,9999,9999,92982352
94,1,1,Ticks_Pract_5,7,9999,9999,9999,93483092
94,1,1,Ticks_Pract_5,8,9999,9999,9999,93982784
94,1,1,Ticks_Pract_5,9,9999,9999,9999,94482480
94,1,1,Ticks_Pract_5,10,9999,9999,9999,94982248
94,1,1,Ticks_Pract_5,11,9999,9999,9999,95482988
94,1,1,Ticks_Pract_5,12,9999,9999,9999,95982684
94,1,1,Ticks_Pract_5,13,9999,9999,9999,96482376
94,1,1,Ticks_Pract_5,14,9999,9999,9999,96982124
94,1,1,Ticks_Pract_5,15,9999,9999,9999,97482872
94,1,1,Ticks_Pract_5,16,9999,9999,9999,97982536
94,1,1,Ticks_Pract_5,17,9999,9999,9999,98482228
94,1,1,Ticks_Pract_5,18,9999,9999,9999,98983028
94,1,1,Ticks_Pract_5,19,9999,9999,9999,99482696
94,1,1,Ticks_Pract_5,20,9999,9999,9999,99982388
94,1,1,Ticks_Pract_5,21,9999,9999,9999,100482156
94,1,1,Ticks_Pract_5,22,9999,9999,9999,100982900
94,1,1,Ticks_Pract_5,23,9999,9999,9999,101482596
94,1,1,Ticks_Pract_5,24,9999,9999,9999,101982292
94,1,1,Ticks_Pract_5,25,9999,9999,9999,102483032
94,1,1,Ticks_Pract_5,26,9999,9999,9999,102982728
94,1,1,Ticks_Pract_5,27,9999,9999,9999,103482420
94,1,1,Ticks_Pract_5,28,9999,9999,9999,103982188
94,1,1,Ticks_Pract_5,29,9999,9999,9999,104482932
94,1,1,Ticks_Pract_5,30,9999,9999,9999,104982624
94,1,1,Ticks_Pract_5,31,9999,9999,9999,105482320
94,1,1,Ticks_Pract_5,32,9999,9999,9999,105983060
94,1,1,Ticks_Pract_5,33,9999,9999,9999,106482756
94,1,1,Ticks_Pract_5,34,9999,9999,9999,106982460
94,1,1,Ticks_Pract_5,35,9999,9999,9999,107482220
94,1,1,Ticks_Pract_5,36,9999,9999,9999,107982940
94,1,1,Ticks_Pract_5,37,9999,9999,9999,108482612
94,1,1,Ticks_Pract_5,38,9999,9999,9999,108982380
94,1,1,Ticks_Pract_5,39,9999,9999,9999,109483124
94,2,0,Ticks_Pract_8,0,5,42,127,130856508
94,2,0,Ticks_Pract_8,1,5,42,127,131656112
94,2,0,Ticks_Pract_8,2,5,42,127,132455792
94,2,0,Ticks_Pract_8,3,1,48,50,132495564
94,2,0,Ticks_Pract_8,4,5,42,127,133255676
94,2,0,Ticks_Pract_8,5,1,48,54,133258648
94,2,0,Ticks_Pract_8,6,1,48,32,133364788
94,2,0,Ticks_Pract_8,7,5,42,127,134056208
94,2,0,Ticks_Pract_8,8,1,48,54,134097576
94,2,0,Ticks_Pract_8,9,5,42,127,134856044
94,2,0,Ticks_Pract_8,10,1,48,43,134910028
94,2,0,Ticks_Pract_8,11,5,42,127,135655776
94,2,0,Ticks_Pract_8,12,1,48,51,135669664
94,2,0,Ticks_Pract_8,13,5,42,127,136455508
94,2,0,Ticks_Pract_8,14,1,48,50,136461696
94,2,0,Ticks_Pract_8,15,5,42,127,137256512
94,2,0,Ticks_Pract_8,16,1,48,56,137281924
94,2,0,Ticks_Pract_8,17,1,48,33,137341816
94,2,0,Ticks_Pract_8,18,5,42,127,138056152
94,2,0,Ticks_Pract_8,19,1,48,47,138092708
94,2,0,Ticks_Pract_8,20,1,48,31,138166736
94,2,0,Ticks_Pract_8,21,1,48,59,138818580
94,2,0,Ticks_Pract_8,22,5,42,127,138855928
94,2,0,Ticks_Pract_8,23,1,48,54,139626308
94,2,0,Ticks_Pract_8,24,5,42,127,139655664
94,2,0,Ticks_Pract_8,25,1,48,31,139686292
94,2,0,Ticks_Pract_8,26,1,48,53,140427744
94,2,0,Ticks_Pract_8,27,5,42,127,140456568
94,2,0,Ticks_Pract_8,28,1,48,32,140484884
94,2,0,Ticks_Pract_8,29,1,48,59,141232540
94,2,0,Ticks_Pract_8,30,5,42,127,141256008
94,2,0,Ticks_Pract_8,31,1,48,37,141284396
94,2,0,Ticks_Pract_8,32,1,48,64,142004652
94,2,0,Ticks_Pract_8,33,5,42,127,142055868
94,2,0,Ticks_Pract_8,34,1,48,52,142791540
94,2,0,Ticks_Pract_8,35,1,48,39,142842984
94,2,0,Ticks_Pract_8,36,5,42,127,142855580
94,2,0,Ticks_Pract_8,37,1,48,58,143583924
94,2,0,Ticks_Pract_8,38,1,48,40,143643144
94,2,0,Ticks_Pract_8,39,5,42,127,143656488
94,2,0,Ticks_Pract_8,40,1,48,43,144443924
94,2,0,Ticks_Pract_8,41,5,42,127,144455924
94,2,0,Ticks_Pract_8,42,1,48,40,145245748
94,2,0,Ticks_Pract_8,43,5,42,127,145255732
94,2,0,Ticks_Pract_8,44,1,48,55,146056068
94,2,0,Ticks_Pract_8,45,5,42,127,146057184
94,2,0,Ticks_Pract_8,46,5,42,127,146856400
94,2,0,Ticks_Pract_8,47,1,48,51,146877100
94,2,0,Ticks_Pract_8,48,1,48,34,146938436
94,2,0,Ticks_Pract_8,49,1,48,57,147592648
94,2,0,Ticks_Pract_8,50,1,48,42,147649096
94,2,0,Ticks_Pract_8,51,5,42,127,147656108
94,2,0,Ticks_Pract_8,52,1,48,51,148431796
94,2,0,Ticks_Pract_8,53,5,42,127,148455840
94,2,0,Ticks_Pract_8,54,1,48,52,149222332
94,2,0,Ticks_Pract_8,55,5,42,127,149255648
94,2,0,Ticks_Pract_8,56,1,48,36,149276480
94,2,0,Ticks_Pract_8,57,1,48,51,150028332
94,2,0,Ticks_Pract_8,58,5,42,127,150056408
94,2,0,Ticks_Pract_8,59,1,48,34,150082776
94,2,0,Ticks_Pract_8,60,1,48,48,150827740
94,2,0,Ticks_Pract_8,61,5,42,127,150855896
94,2,0,Ticks_Pract_8,62,1,48,32,150882112
94,2,0,Ticks_Pract_8,63,1,48,48,151605984
94,2,0,Ticks_Pract_8,64,5,42,127,151655908
94,2,0,Ticks_Pract_8,65,1,48,23,151701124
94,2,0,Ticks_Pract_8,66,1,48,59,152376752
94,2,0,Ticks_Pract_8,67,5,42,127,152455692
94,2,0,Ticks_Pract_8,68,1,48,35,152458212
94,2,0,Ticks_Pract_8,69,1,48,20,152530608
94,2,0,Ticks_Pract_8,70,1,48,57,153178760
94,2,0,Ticks_Pract_8,71,5,42,127,153256428
94,2,0,Ticks_Pract_8,72,1,48,31,153262748
94,2,0,Ticks_Pract_8,73,1,48,19,153340544
94,2,0,Ticks_Pract_8,74,1,48,60,153967524
94,2,0,Ticks_Pract_8,75,1,48,32,154031236
94,2,0,Ticks_Pract_8,76,5,42,127,154055976
94,2,0,Ticks_Pract_8,77,1,48,20,154102384
94,2,0,Ticks_Pract_8,78,1,48,50,154766396
94,2,0,Ticks_Pract_8,0,9999,9999,9999,130853996
94,2,0,Ticks_Pract_8,1,9999,9999,9999,131653752
94,2,0,Ticks_Pract_8,2,9999,9999,9999,132453432
94,2,0,Ticks_Pract_8,3,9999,9999,9999,133253240
94,2,0,Ticks_Pract_8,4,9999,9999,9999,134053996
94,2,0,Ticks_Pract_8,5,9999,9999,9999,134853728
94,2,0,Ticks_Pract_8,6,9999,9999,9999,135653488
94,2,0,Ticks_Pract_8,7,9999,9999,9999,136453220
94,2,0,Ticks_Pract_8,8,9999,9999,9999,137254004
94,2,0,Ticks_Pract_8,9,9999,9999,9999,138053716
94,2,0,Ticks_Pract_8,10,9999,9999,9999,138853492
94,2,0,Ticks_Pract_8,11,9999,9999,9999,139653228
94,2,0,Ticks_Pract_8,12,9999,9999,9999,140453984
94,2,0,Ticks_Pract_8,13,9999,9999,9999,141253696
94,2,0,Ticks_Pract_8,14,9999,9999,9999,142053432
94,2,0,Ticks_Pract_8,15,9999,9999,9999,142853220
94,2,0,Ticks_Pract_8,16,9999,9999,9999,143653976
94,2,0,Ticks_Pract_8,17,9999,9999,9999,144453708
94,2,0,Ticks_Pract_8,18,9999,9999,9999,145253444
94,2,0,Ticks_Pract_8,19,9999,9999,9999,146053184
94,2,0,Ticks_Pract_8,20,9999,9999,9999,146853964
94,2,0,Ticks_Pract_8,21,9999,9999,9999,147653724
94,2,0,Ticks_Pract_8,22,9999,9999,9999,148453480
94,2,0,Ticks_Pract_8,23,9999,9999,9999,149253212
94,2,0,Ticks_Pract_8,24,9999,9999,9999,150053972
94,2,0,Ticks_Pract_8,25,9999,9999,9999,150853684
94,2,0,Ticks_Pract_8,26,9999,9999,9999,151653472
94,2,0,Ticks_Pract_8,27,9999,9999,9999,152453180
94,2,0,Ticks_Pract_8,28,9999,9999,9999,153253992
94,2,0,Ticks_Pract_8,29,9999,9999,9999,154053684
94,3,4,T1_SMS_5,0,5,42,127,242238844
94,3,4,T1_SMS_5,1,5,42,127,242738708
94,3,4,T1_SMS_5,2,1,48,22,242987044
94,3,4,T1_SMS_5,3,5,42,127,243239304
94,3,4,T1_SMS_5,4,1,48,43,243406476
94,3,4,T1_SMS_5,5,5,42,127,243739072
94,3,4,T1_SMS_5,6,1,48,45,243784300
94,3,4,T1_SMS_5,7,1,48,45,244220624
94,3,4,T1_SMS_5,8,5,42,127,244238688
94,3,4,T1_SMS_5,9,1,48,28,244276872
94,3,4,T1_SMS_5,10,1,48,44,244736248
94,3,4,T1_SMS_5,11,5,42,127,244738436
94,3,4,T1_SMS_5,12,1,48,31,244788664
94,3,4,T1_SMS_5,13,1,48,45,245225880
94,3,4,T1_SMS_5,14,5,42,127,245239080
94,3,4,T1_SMS_5,15,5,42,127,245738784
94,3,4,T1_SMS_5,16,1,48,43,245739748
94,3,4,T1_SMS_5,17,1,48,43,246220936
94,3,4,T1_SMS_5,18,5,42,127,246238620
94,3,4,T1_SMS_5,19,1,48,47,246716112
94,3,4,T1_SMS_5,20,5,42,127,246739508
94,3,4,T1_SMS_5,21,1,48,29,246774400
94,3,4,T1_SMS_5,22,1,48,44,247220872
94,3,4,T1_SMS_5,23,5,42,127,247238960
94,3,4,T1_SMS_5,24,1,48,27,247288436
94,3,4,T1_SMS_5,25,1,48,53,247702820
94,3,4,T1_SMS_5,26,5,42,127,247738756
94,3,4,T1_SMS_5,27,1,48,28,247783996
94,3,4,T1_SMS_5,28,1,48,44,248191048
94,3,4,T1_SMS_5,29,5,42,127,248238504
94,3,4,T1_SMS_5,30,1,48,24,248253196
94,3,4,T1_SMS_5,31,1,48,52,248716148
94,3,4,T1_SMS_5,32,5,42,127,248739076
94,3,4,T1_SMS_5,33,1,48,31,248763340
94,3,4,T1_SMS_5,34,5,42,127,249238904
94,3,4,T1_SMS_5,35,1,48,57,249245836
94,3,4,T1_SMS_5,36,1,48,37,249293412
94,3,4,T1_SMS_5,37,1,48,51,249708244
94,3,4,T1_SMS_5,38,5,42,127,249738572
94,3,4,T1_SMS_5,39,1,48,37,249760152
94,3,4,T1_SMS_5,40,1,48,50,250223472
94,3,4,T1_SMS_5,41,5,42,127,250239368
94,3,4,T1_SMS_5,42,1,48,28,250278596
94,3,4,T1_SMS_5,43,1,48,43,250728380
94,3,4,T1_SMS_5,44,5,42,127,250738964
94,3,4,T1_SMS_5,45,1,48,27,250790904
94,3,4,T1_SMS_5,46,1,48,36,251229700
94,3,4,T1_SMS_5,47,5,42,127,251238712
94,3,4,T1_SMS_5,48,1,48,23,251292524
94,3,4,T1_SMS_5,49,5,42,127,251738464
94,3,4,T1_SMS_5,50,1,48,46,251745324
94,3,4,T1_SMS_5,51,1,48,26,251805136
94,3,4,T1_SMS_5,52,1,48,50,252174888
94,3,4,T1_SMS_5,53,5,42,127,252239176
94,3,4,T1_SMS_5,54,1,48,29,252243028
94,3,4,T1_SMS_5,55,5,42,127,252738860
94,3,4,T1_SMS_5,56,1,48,44,252740796
94,3,4,T1_SMS_5,57,5,42,127,253238700
94,3,4,T1_SMS_5,58,1,48,40,253239816
94,3,4,T1_SMS_5,59,1,48,49,253710080
94,3,4,T1_SMS_5,60,5,42,127,253739588
94,3,4,T1_SMS_5,61,1,48,46,254237552
94,3,4,T1_SMS_5,62,5,42,127,254238984
94,3,4,T1_SMS_5,63,1,48,40,254710368
94,3,4,T1_SMS_5,64,5,42,127,254738828
94,3,4,T1_SMS_5,65,1,48,46,255225840
94,3,4,T1_SMS_5,66,5,42,127,255238524
94,3,4,T1_SMS_5,67,1,48,40,255693304
94,3,4,T1_SMS_5,68,5,42,127,255739488
94,3,4,T1_SMS_5,69,1,48,43,256218804
94,3,4,T1_SMS_5,70,5,42,127,256238812
94,3,4,T1_SMS_5,71,1,48,40,256701496
94,3,4,T1_SMS_5,72,5,42,127,256738656
94,3,4,T1_SMS_5,73,1,48,45,257206652
94,3,4,T1_SMS_5,74,5,42,127,257239544
94,3,4,T1_SMS_5,75,1,48,50,257714200
94,3,4,T1_SMS_5,76,5,42,127,257739312
94,3,4,T1_SMS_5,77,1,48,43,258143284
94,3,4,T1_SMS_5,78,5,42,127,258238836
94,3,4,T1_SMS_5,79,1,48,33,258700796
94,3,4,T1_SMS_5,80,5,42,127,258738528
94,3,4,T1_SMS_5,81,1,48,47,259218448
94,3,4,T1_SMS_5,82,5,42,127,259239496
94,3,4,T1_SMS_5,83,5,42,127,259738976
94,3,4,T1_SMS_5,84,1,48,45,259740692
94,3,4,T1_SMS_5,85,5,42,127,260238596
94,3,4,T1_SMS_5,86,1,48,42,260263032
94,3,4,T1_SMS_5,87,5,42,127,260738516
94,3,4,T1_SMS_5,88,1,48,45,260776336
94,3,4,T1_SMS_5,89,1,48,43,261210268
94,3,4,T1_SMS_5,90,5,42,127,261239100
94,3,4,T1_SMS_5,91,5,42,127,261738876
94,3,4,T1_SMS_5,92,1,48,41,261746328
94,3,4,T1_SMS_5,93,5,42,127,262238572
94,3,4,T1_SMS_5,94,1,48,34,262269736
94,3,4,T1_SMS_5,95,1,48,51,262717428
94,3,4,T1_SMS_5,96,5,42,127,262739528
94,3,4,T1_SMS_5,97,5,42,127,263238932
94,3,4,T1_SMS_5,98,1,48,45,263243024
94,3,4,T1_SMS_5,99,5,42,127,263738776
94,3,4,T1_SMS_5,100,1,48,51,263739668
94,3,4,T1_SMS_5,101,1,48,55,264172684
94,3,4,T1_SMS_5,102,5,42,127,264238388
94,3,4,T1_SMS_5,103,5,42,127,264739436
94,3,4,T1_SMS_5,104,1,48,47,264769184
94,3,4,T1_SMS_5,105,1,48,29,264824656
94,3,4,T1_SMS_5,106,1,48,44,265215652
94,3,4,T1_SMS_5,107,5,42,127,265238804
94,3,4,T1_SMS_5,108,5,42,127,265738728
94,3,4,T1_SMS_5,109,1,48,43,265767428
94,3,4,T1_SMS_5,110,1,48,46,266230904
94,3,4,T1_SMS_5,111,5,42,127,266239464
94,3,4,T1_SMS_5,112,5,42,127,266738940
94,3,4,T1_SMS_5,113,1,48,45,266750140
94,3,4,T1_SMS_5,114,1,48,47,267237196
94,3,4,T1_SMS_5,115,5,42,127,267238632
94,3,4,T1_SMS_5,116,5,42,127,267738332
94,3,4,T1_SMS_5,117,1,48,46,267741304
94,3,4,T1_SMS_5,118,5,42,127,268239448
94,3,4,T1_SMS_5,119,1,48,56,268240412
94,3,4,T1_SMS_5,120,1,48,32,268289144
94,3,4,T1_SMS_5,121,5,42,127,268739044
94,3,4,T1_SMS_5,122,1,48,40,268752336
94,3,4,T1_SMS_5,123,5,42,127,269238492
94,3,4,T1_SMS_5,124,1,48,37,269289732
94,3,4,T1_SMS_5,125,5,42,127,269739308
94,3,4,T1_SMS_5,126,1,48,43,269755516
94,3,4,T1_SMS_5,127,1,48,39,270230432
94,3,4,T1_SMS_5,128,5,42,127,270238996
94,3,4,T1_SMS_5,129,1,48,39,270734988
94,3,4,T1_SMS_5,130,5,42,127,270738912
94,3,4,T1_SMS_5,131,1,48,40,271230048
94,3,4,T1_SMS_5,132,5,42,127,271238460
94,3,4,T1_SMS_5,133,1,48,46,271722332
94,3,4,T1_SMS_5,134,5,42,127,271739348
94,3,4,T1_SMS_5,135,1,48,46,272212676
94,3,4,T1_SMS_5,136,5,42,127,272238820
94,3,4,T1_SMS_5,137,1,48,37,272738144
94,3,4,T1_SMS_5,138,5,42,127,272739712
94,3,4,T1_SMS_5,139,1,48,38,273205488
94,3,4,T1_SMS_5,140,5,42,127,273239332
94,3,4,T1_SMS_5,141,5,42,127,273739256
94,3,4,T1_SMS_5,142,1,48,43,273756212
94,3,4,T1_SMS_5,143,1,48,42,274237828
94,3,4,T1_SMS_5,144,5,42,127,274239392
94,3,4,T1_SMS_5,145,1,48,43,274730080
94,3,4,T1_SMS_5,146,5,42,127,274738640
94,3,4,T1_SMS_5,147,1,48,31,274782128
94,3,4,T1_SMS_5,148,1,48,40,275212168
94,3,4,T1_SMS_5,149,5,42,127,275239208
94,3,4,T1_SMS_5,150,1,48,40,275726224
94,3,4,T1_SMS_5,151,5,42,127,275739128
94,3,4,T1_SMS_5,152,1,48,21,275797732
94,3,4,T1_SMS_5,153,5,42,127,276238584
94,3,4,T1_SMS_5,154,1,48,43,276244316
94,3,4,T1_SMS_5,155,1,48,40,276737976
94,3,4,T1_SMS_5,156,5,42,127,276739468
94,3,4,T1_SMS_5,157,1,48,40,277232772
94,3,4,T1_SMS_5,158,5,42,127,277239236
94,3,4,T1_SMS_5,159,1,48,24,277292456
94,3,4,T1_SMS_5,160,1,48,39,277712620
94,3,4,T1_SMS_5,161,5,42,127,277738984
94,3,4,T1_SMS_5,162,1,48,45,278215908
94,3,4,T1_SMS_5,163,5,42,127,278238604
94,3,4,T1_SMS_5,164,1,48,25,278276864
94,3,4,T1_SMS_5,165,5,42,127,278739184
94,3,4,T1_SMS_5,166,1,48,29,278784784
94,3,4,T1_SMS_5,167,1,48,41,279199992
94,3,4,T1_SMS_5,168,5,42,127,279239096
94,3,4,T1_SMS_5,169,1,48,25,279257384
94,3,4,T1_SMS_5,170,5,42,127,279738752
94,3,4,T1_SMS_5,171,1,48,42,279778244
94,3,4,T1_SMS_5,172,5,42,127,280238368
94,3,4,T1_SMS_5,173,1,48,44,280266416
94,3,4,T1_SMS_5,174,1,48,44,280736524
94,3,4,T1_SMS_5,175,5,42,127,280739328
94,3,4,T1_SMS_5,176,1,48,29,280797060
94,3,4,T1_SMS_5,177,5,42,127,281238784
94,3,4,T1_SMS_5,178,1,48,42,281262100
94,3,4,T1_SMS_5,179,1,48,26,281326876
94,3,4,T1_SMS_5,180,5,42,127,281738532
94,3,4,T1_SMS_5,181,1,48,39,281757132
94,3,4,T1_SMS_5,182,1,48,25,281813232
94,3,4,T1_SMS_5,183,5,42,127,282239324
94,3,4,T1_SMS_5,184,1,48,39,282256808
94,3,4,T1_SMS_5,185,5,42,127,282739168
94,3,4,T1_SMS_5,186,1,48,41,282774148
94,3,4,T1_SMS_5,187,5,42,127,283238788
94,3,4,T1_SMS_5,188,1,48,40,283242656
94,3,4,T1_SMS_5,189,1,48,45,283665136
94,3,4,T1_SMS_5,190,1,48,32,283712988
94,3,4,T1_SMS_5,191,5,42,127,283738528
94,3,4,T1_SMS_5,192,1,48,41,284204752
94,3,4,T1_SMS_5,193,5,42,127,284239268
94,3,4,T1_SMS_5,194,1,48,23,284273188
94,3,4,T1_SMS_5,195,1,48,42,284706220
94,3,4,T1_SMS_5,196,5,42,127,284738868
94,3,4,T1_SMS_5,197,1,48,45,285214068
94,3,4,T1_SMS_5,198,5,42,127,285238640
94,3,4,T1_SMS_5,199,1,48,23,285294996
94,3,4,T1_SMS_5,200,1,48,48,285686068
94,3,4,T1_SMS_5,201,5,42,127,285739284
94,3,4,T1_SMS_5,202,1,48,30,285761308
94,3,4,T1_SMS_5,203,1,48,42,286215132
94,3,4,T1_SMS_5,204,5,42,127,286239108
94,3,4,T1_SMS_5,205,1,48,24,286278564
94,3,4,T1_SMS_5,206,1,48,50,286726260
94,3,4,T1_SMS_5,207,5,42,127,286738856
94,3,4,T1_SMS_5,208,1,48,31,286794168
94,3,4,T1_SMS_5,209,1,48,48,287203864
94,3,4,T1_SMS_5,210,5,42,127,287238456
94,3,4,T1_SMS_5,211,1,48,33,287259136
94,3,4,T1_SMS_5,212,1,48,47,287731136
94,3,4,T1_SMS_5,213,5,42,127,287739176
94,3,4,T1_SMS_5,214,1,48,22,287803164
94,3,4,T1_SMS_5,215,1,48,52,288192436
94,3,4,T1_SMS_5,216,5,42,127,288239072
94,3,4,T1_SMS_5,217,1,48,27,288271268
94,3,4,T1_SMS_5,218,1,48,42,288689548
94,3,4,T1_SMS_5,219,5,42,127,288738596
94,3,4,T1_SMS_5,220,1,48,20,288767728
94,3,4,T1_SMS_5,221,1,48,49,289181512
94,3,4,T1_SMS_5,222,5,42,127,289239540
94,3,4,T1_SMS_5,223,1,48,25,289263288
94,3,4,T1_SMS_5,224,1,48,47,289727936
94,3,4,T1_SMS_5,225,5,42,127,289739040
94,3,4,T1_SMS_5,226,1,48,25,289803328
94,3,4,T1_SMS_5,227,1,48,47,290214044
94,3,4,T1_SMS_5,228,5,42,127,290238764
94,3,4,T1_SMS_5,229,1,48,25,290283472
94,3,4,T1_SMS_5,230,1,48,40,290695240
94,3,4,T1_SMS_5,231,5,42,127,290738508
94,3,4,T1_SMS_5,232,5,42,127,291239256
94,3,4,T1_SMS_5,233,1,48,47,291254640
94,3,4,T1_SMS_5,234,1,48,27,291321808
94,3,4,T1_SMS_5,235,1,48,47,291726092
94,3,4,T1_SMS_5,236,5,42,127,291739072
94,3,4,T1_SMS_5,237,1,48,46,292203348
94,3,4,T1_SMS_5,238,5,42,127,292238840
94,3,4,T1_SMS_5,239,1,48,30,292265280
94,3,4,T1_SMS_5,240,1,48,47,292714244
94,3,4,T1_SMS_5,241,5,42,127,292738440
94,3,4,T1_SMS_5,242,1,48,33,292762336
94,3,4,T1_SMS_5,243,1,48,47,293211448
94,3,4,T1_SMS_5,244,5,42,127,293239084
94,3,4,T1_SMS_5,245,1,48,31,293268744
94,3,4,T1_SMS_5,246,1,48,48,293715012
94,3,4,T1_SMS_5,247,5,42,127,293738980
94,3,4,T1_SMS_5,248,1,48,28,293768712
94,3,4,T1_SMS_5,249,5,42,127,294238660
94,3,4,T1_SMS_5,250,1,48,38,294250832
94,3,4,T1_SMS_5,251,1,48,49,294739476
94,3,4,T1_SMS_5,252,5,42,127,294740740
94,3,4,T1_SMS_5,253,1,48,28,294803832
94,3,4,T1_SMS_5,254,1,48,43,295196620
94,3,4,T1_SMS_5,255,5,42,127,295239216
94,3,4,T1_SMS_5,256,5,42,127,295738696
94,3,4,T1_SMS_5,257,1,48,51,295765224
94,3,4,T1_SMS_5,258,1,48,31,295829608
94,3,4,T1_SMS_5,259,1,48,49,296192548
94,3,4,T1_SMS_5,260,5,42,127,296238512
94,3,4,T1_SMS_5,261,1,48,32,296247524
94,3,4,T1_SMS_5,262,1,48,53,296719676
94,3,4,T1_SMS_5,263,5,42,127,296739232
94,3,4,T1_SMS_5,264,1,48,36,296768064
94,3,4,T1_SMS_5,265,1,48,52,297230116
94,3,4,T1_SMS_5,266,5,42,127,297239200
94,3,4,T1_SMS_5,267,1,48,36,297277012
94,3,4,T1_SMS_5,268,1,48,47,297714756
94,3,4,T1_SMS_5,269,5,42,127,297738576
94,3,4,T1_SMS_5,270,1,48,34,297761648
94,3,4,T1_SMS_5,271,5,42,127,298239228
94,3,4,T1_SMS_5,272,1,48,53,298245932
94,3,4,T1_SMS_5,273,1,48,36,298295356
94,3,4,T1_SMS_5,274,1,48,47,298728164
94,3,4,T1_SMS_5,275,5,42,127,298739268
94,3,4,T1_SMS_5,276,1,48,34,298768776
94,3,4,T1_SMS_5,277,5,42,127,299239020
94,3,4,T1_SMS_5,278,1,48,43,299258596
94,3,4,T1_SMS_5,279,1,48,25,299316472
94,3,4,T1_SMS_5,280,5,42,127,299738396
94,3,4,T1_SMS_5,281,1,48,43,299764852
94,3,4,T1_SMS_5,282,1,48,27,299823176
94,3,4,T1_SMS_5,283,5,42,127,300239268
94,3,4,T1_SMS_5,284,1,48,48,300245152
94,3,4,T1_SMS_5,285,1,48,29,300303772
94,3,4,T1_SMS_5,286,5,42,127,300739164
94,3,4,T1_SMS_5,287,1,48,49,300750064
94,3,4,T1_SMS_5,288,1,48,29,300816540
94,3,4,T1_SMS_5,289,1,48,50,301232264
94,3,4,T1_SMS_5,290,5,42,127,301238508
94,3,4,T1_SMS_5,291,1,48,30,301290704
94,3,4,T1_SMS_5,292,5,42,127,301739308
94,3,4,T1_SMS_5,293,1,48,48,301758284
94,3,4,T1_SMS_5,294,1,48,28,301826428
94,3,4,T1_SMS_5,295,1,48,49,302216800
94,3,4,T1_SMS_5,296,5,42,127,302239196
94,3,4,T1_SMS_5,297,1,48,28,302288180
94,3,4,T1_SMS_5,298,1,48,42,302701212
94,3,4,T1_SMS_5,299,5,42,127,302739092
94,3,4,T1_SMS_5,300,5,42,127,303238500
94,3,4,T1_SMS_5,301,1,48,47,303261512
94,3,4,T1_SMS_5,302,1,48,26,303326964
94,3,4,T1_SMS_5,303,1,48,49,303728256
94,3,4,T1_SMS_5,304,5,42,127,303739284
94,3,4,T1_SMS_5,305,1,48,52,304231468
94,3,4,T1_SMS_5,306,5,42,127,304239128
94,3,4,T1_SMS_5,307,1,48,34,304291224
94,3,4,T1_SMS_5,308,5,42,127,304738660
94,3,4,T1_SMS_5,309,1,48,48,304758232
94,3,4,T1_SMS_5,310,1,48,25,304818200
94,3,4,T1_SMS_5,311,1,48,51,305224824
94,3,4,T1_SMS_5,312,5,42,127,305239372
94,3,4,T1_SMS_5,313,1,48,38,305708292
94,3,4,T1_SMS_5,314,5,42,127,305739288
94,3,4,T1_SMS_5,315,1,48,42,306198860
94,3,4,T1_SMS_5,316,5,42,127,306239056
94,3,4,T1_SMS_5,317,1,48,34,306726152
94,3,4,T1_SMS_5,318,5,42,127,306738528
94,3,4,T1_SMS_5,319,1,48,40,307211340
94,3,4,T1_SMS_5,0,9999,9999,9999,242236484
94,3,4,T1_SMS_5,1,9999,9999,9999,242736200
94,3,4,T1_SMS_5,2,9999,9999,9999,243236944
94,3,4,T1_SMS_5,3,9999,9999,9999,243736636
94,3,4,T1_SMS_5,4,9999,9999,9999,244236400
94,3,4,T1_SMS_5,5,9999,9999,9999,244736120
94,3,4,T1_SMS_5,6,9999,9999,9999,245236796
94,3,4,T1_SMS_5,7,9999,9999,9999,245736572
94,3,4,T1_SMS_5,8,9999,9999,9999,246236260
94,3,4,T1_SMS_5,9,9999,9999,9999,246737000
94,3,4,T1_SMS_5,10,9999,9999,9999,247236672
94,3,4,T1_SMS_5,11,9999,9999,9999,247736396
94,3,4,T1_SMS_5,12,9999,9999,9999,248236144
94,3,4,T1_SMS_5,13,9999,9999,9999,248736864
94,3,4,T1_SMS_5,14,9999,9999,9999,249236540
94,3,4,T1_SMS_5,15,9999,9999,9999,249736284
94,3,4,T1_SMS_5,16,9999,9999,9999,250237004
94,3,4,T1_SMS_5,17,9999,9999,9999,250736752
94,3,4,T1_SMS_5,18,9999,9999,9999,251236424
94,3,4,T1_SMS_5,19,9999,9999,9999,251736180
94,3,4,T1_SMS_5,20,9999,9999,9999,252236892
94,3,4,T1_SMS_5,21,9999,9999,9999,252736572
94,3,4,T1_SMS_5,22,9999,9999,9999,253236340
94,3,4,T1_SMS_5,23,9999,9999,9999,253737076
94,3,4,T1_SMS_5,24,9999,9999,9999,254236780
94,3,4,T1_SMS_5,25,9999,9999,9999,254736468
94,3,4,T1_SMS_5,26,9999,9999,9999,255236160
94,3,4,T1_SMS_5,27,9999,9999,9999,255736904
94,3,4,T1_SMS_5,28,9999,9999,9999,256236600
94,3,4,T1_SMS_5,29,9999,9999,9999,256736368
94,3,4,T1_SMS_5,30,9999,9999,9999,257237108
94,3,4,T1_SMS_5,31,9999,9999,9999,257736804
94,3,4,T1_SMS_5,32,9999,9999,9999,258236472
94,3,4,T1_SMS_5,33,9999,9999,9999,258736244
94,3,4,T1_SMS_5,34,9999,9999,9999,259236988
94,3,4,T1_SMS_5,35,9999,9999,9999,259736688
94,3,4,T1_SMS_5,36,9999,9999,9999,260236384
94,3,4,T1_SMS_5,37,9999,9999,9999,260736080
94,3,4,T1_SMS_5,38,9999,9999,9999,261236812
94,3,4,T1_SMS_5,39,9999,9999,9999,261736516
94,3,4,T1_SMS_5,40,9999,9999,9999,262236284
94,3,4,T1_SMS_5,41,9999,9999,9999,262737020
94,3,4,T1_SMS_5,42,9999,9999,9999,263236720
94,3,4,T1_SMS_5,43,9999,9999,9999,263736416
94,3,4,T1_SMS_5,44,9999,9999,9999,264236104
94,3,4,T1_SMS_5,45,9999,9999,9999,264736852
94,3,4,T1_SMS_5,46,9999,9999,9999,265236592
94,3,4,T1_SMS_5,47,9999,9999,9999,265736292
94,3,4,T1_SMS_5,48,9999,9999,9999,266237028
94,3,4,T1_SMS_5,49,9999,9999,9999,266736728
94,3,4,T1_SMS_5,50,9999,9999,9999,267236424
94,3,4,T1_SMS_5,51,9999,9999,9999,267736120
94,3,4,T1_SMS_5,52,9999,9999,9999,268236860
94,3,4,T1_SMS_5,53,9999,9999,9999,268736612
94,3,4,T1_SMS_5,54,9999,9999,9999,269236280
94,3,4,T1_SMS_5,55,9999,9999,9999,269737020
94,3,4,T1_SMS_5,56,9999,9999,9999,270236784
94,3,4,T1_SMS_5,57,9999,9999,9999,270736476
94,3,4,T1_SMS_5,58,9999,9999,9999,271236172
94,3,4,T1_SMS_5,59,9999,9999,9999,271736912
94,3,4,T1_SMS_5,60,9999,9999,9999,272236608
94,3,4,T1_SMS_5,61,9999,9999,9999,272736308
94,3,4,T1_SMS_5,62,9999,9999,9999,273237044
94,3,4,T1_SMS_5,63,9999,9999,9999,273736820
94,3,4,T1_SMS_5,64,9999,9999,9999,274236516
94,3,4,T1_SMS_5,65,9999,9999,9999,274736204
94,3,4,T1_SMS_5,66,9999,9999,9999,275236924
94,3,4,T1_SMS_5,67,9999,9999,9999,275736692
94,3,4,T1_SMS_5,68,9999,9999,9999,276236372
94,3,4,T1_SMS_5,69,9999,9999,9999,276736068
94,3,4,T1_SMS_5,70,9999,9999,9999,277236800
94,3,4,T1_SMS_5,71,9999,9999,9999,277736548
94,3,4,T1_SMS_5,72,9999,9999,9999,278236244
94,3,4,T1_SMS_5,73,9999,9999,9999,278736972
94,3,4,T1_SMS_5,74,9999,9999,9999,279236660
94,3,4,T1_SMS_5,75,9999,9999,9999,279736388
94,3,4,T1_SMS_5,76,9999,9999,9999,280236084
94,3,4,T1_SMS_5,77,9999,9999,9999,280736892
94,3,4,T1_SMS_5,78,9999,9999,9999,281236572
94,3,4,T1_SMS_5,79,9999,9999,9999,281736244
94,3,4,T1_SMS_5,80,9999,9999,9999,282237040
94,3,4,T1_SMS_5,81,9999,9999,9999,282736732
94,3,4,T1_SMS_5,82,9999,9999,9999,283236428
94,3,4,T1_SMS_5,83,9999,9999,9999,283736168
94,3,4,T1_SMS_5,84,9999,9999,9999,284236908
94,3,4,T1_SMS_5,85,9999,9999,9999,284736584
94,3,4,T1_SMS_5,86,9999,9999,9999,285236280
94,3,4,T1_SMS_5,87,9999,9999,9999,285737072
94,3,4,T1_SMS_5,88,9999,9999,9999,286236748
94,3,4,T1_SMS_5,89,9999,9999,9999,286736496
94,3,4,T1_SMS_5,90,9999,9999,9999,287236172
94,3,4,T1_SMS_5,91,9999,9999,9999,287736888
94,3,4,T1_SMS_5,92,9999,9999,9999,288236636
94,3,4,T1_SMS_5,93,9999,9999,9999,288736312
94,3,4,T1_SMS_5,94,9999,9999,9999,289237104
94,3,4,T1_SMS_5,95,9999,9999,9999,289736828
94,3,4,T1_SMS_5,96,9999,9999,9999,290236476
94,3,4,T1_SMS_5,97,9999,9999,9999,290736224
94,3,4,T1_SMS_5,98,9999,9999,9999,291236972
94,3,4,T1_SMS_5,99,9999,9999,9999,291736636
94,3,4,T1_SMS_5,100,9999,9999,9999,292236404
94,3,4,T1_SMS_5,101,9999,9999,9999,292736080
94,3,4,T1_SMS_5,102,9999,9999,9999,293236800
94,3,4,T1_SMS_5,103,9999,9999,9999,293736544
94,3,4,T1_SMS_5,104,9999,9999,9999,294236228
94,3,4,T1_SMS_5,105,9999,9999,9999,294736964
94,3,4,T1_SMS_5,106,9999,9999,9999,295236708
94,3,4,T1_SMS_5,107,9999,9999,9999,295736412
94,3,4,T1_SMS_5,108,9999,9999,9999,296236148
94,3,4,T1_SMS_5,109,9999,9999,9999,296736868
94,3,4,T1_SMS_5,110,9999,9999,9999,297236540
94,3,4,T1_SMS_5,111,9999,9999,9999,297736292
94,3,4,T1_SMS_5,112,9999,9999,9999,298237016
94,3,4,T1_SMS_5,113,9999,9999,9999,298736756
94,3,4,T1_SMS_5,114,9999,9999,9999,299236436
94,3,4,T1_SMS_5,115,9999,9999,9999,299736184
94,3,4,T1_SMS_5,116,9999,9999,9999,300236904
94,3,4,T1_SMS_5,117,9999,9999,9999,300736580
94,3,4,T1_SMS_5,118,9999,9999,9999,301236296
94,3,4,T1_SMS_5,119,9999,9999,9999,301737020
94,3,4,T1_SMS_5,120,9999,9999,9999,302236764
94,3,4,T1_SMS_5,121,9999,9999,9999,302736508
94,3,4,T1_SMS_5,122,9999,9999,9999,303236212
94,3,4,T1_SMS_5,123,9999,9999,9999,303736924
94,3,4,T1_SMS_5,124,9999,9999,9999,304236620
94,3,4,T1_SMS_5,125,9999,9999,9999,304736372
94,3,4,T1_SMS_5,126,9999,9999,9999,305237084
94,3,4,T1_SMS_5,127,9999,9999,9999,305736780
94,3,4,T1_SMS_5,128,9999,9999,9999,306236472
94,3,4,T1_SMS_5,129,9999,9999,9999,306736244
94,4,2,T1_SMS_8,0,5,42,127,380031452
94,4,2,T1_SMS_8,1,5,42,127,380831284
94,4,2,T1_SMS_8,2,5,42,127,381630916
94,4,2,T1_SMS_8,3,1,48,48,381656328
94,4,2,T1_SMS_8,4,1,48,45,382372836
94,4,2,T1_SMS_8,5,5,42,127,382430568
94,4,2,T1_SMS_8,6,1,48,47,383190624
94,4,2,T1_SMS_8,7,5,42,127,383231272
94,4,2,T1_SMS_8,8,1,48,51,383999112
94,4,2,T1_SMS_8,9,5,42,127,384031304
94,4,2,T1_SMS_8,10,1,48,37,384039720
94,4,2,T1_SMS_8,11,1,48,41,384775780
94,4,2,T1_SMS_8,12,5,42,127,384830940
94,4,2,T1_SMS_8,13,1,48,49,385611268
94,4,2,T1_SMS_8,14,5,42,127,385630528
94,4,2,T1_SMS_8,15,1,48,38,385647168
94,4,2,T1_SMS_8,16,1,48,46,386348672
94,4,2,T1_SMS_8,17,1,48,31,386390984
94,4,2,T1_SMS_8,18,5,42,127,386431412
94,4,2,T1_SMS_8,19,1,48,53,387173364
94,4,2,T1_SMS_8,20,1,48,37,387229012
94,4,2,T1_SMS_8,21,5,42,127,387231124
94,4,2,T1_SMS_8,22,1,48,48,387995292
94,4,2,T1_SMS_8,23,5,42,127,388030808
94,4,2,T1_SMS_8,24,1,48,34,388049172
94,4,2,T1_SMS_8,25,1,48,49,388812384
94,4,2,T1_SMS_8,26,5,42,127,388830444
94,4,2,T1_SMS_8,27,1,48,36,389567540
94,4,2,T1_SMS_8,28,5,42,127,389631372
94,4,2,T1_SMS_8,29,1,48,41,390354256
94,4,2,T1_SMS_8,30,5,42,127,390431180
94,4,2,T1_SMS_8,31,1,48,53,391165136
94,4,2,T1_SMS_8,32,5,42,127,391230768
94,4,2,T1_SMS_8,33,1,48,46,391954020
94,4,2,T1_SMS_8,34,5,42,127,392030648
94,4,2,T1_SMS_8,35,1,48,50,392755476
94,4,2,T1_SMS_8,36,5,42,127,392831280
94,4,2,T1_SMS_8,37,1,48,57,393560596
94,4,2,T1_SMS_8,38,5,42,127,393631236
94,4,2,T1_SMS_8,39,1,48,57,394390396
94,4,2,T1_SMS_8,40,5,42,127,394430772
94,4,2,T1_SMS_8,41,1,48,55,395190432
94,4,2,T1_SMS_8,42,5,42,127,395230432
94,4,2,T1_SMS_8,43,1,48,55,395957928
94,4,2,T1_SMS_8,44,5,42,127,396031212
94,4,2,T1_SMS_8,45,1,48,54,396796132
94,4,2,T1_SMS_8,46,5,42,127,396831244
94,4,2,T1_SMS_8,47,1,48,59,397594216
94,4,2,T1_SMS_8,48,5,42,127,397630756
94,4,2,T1_SMS_8,49,1,48,71,398398068
94,4,2,T1_SMS_8,50,1,48,47,398431372
94,4,2,T1_SMS_8,51,5,42,127,398432412
94,4,2,T1_SMS_8,52,1,48,56,399182220
94,4,2,T1_SMS_8,53,1,48,37,399229864
94,4,2,T1_SMS_8,54,5,42,127,399231224
94,4,2,T1_SMS_8,55,1,48,43,400024564
94,4,2,T1_SMS_8,56,5,42,127,400031256
94,4,2,T1_SMS_8,57,1,48,51,400779196
94,4,2,T1_SMS_8,58,5,42,127,400830792
94,4,2,T1_SMS_8,59,1,48,57,401565316
94,4,2,T1_SMS_8,60,5,42,127,401630600
94,4,2,T1_SMS_8,61,1,48,56,402386540
94,4,2,T1_SMS_8,62,5,42,127,402431304
94,4,2,T1_SMS_8,63,5,42,127,403231192
94,4,2,T1_SMS_8,64,1,48,44,403240148
94,4,2,T1_SMS_8,65,1,48,45,404017120
94,4,2,T1_SMS_8,66,5,42,127,404031068
94,4,2,T1_SMS_8,67,1,48,52,404753504
94,4,2,T1_SMS_8,68,5,42,127,404830580
94,4,2,T1_SMS_8,69,1,48,42,405616064
94,4,2,T1_SMS_8,70,5,42,127,405631208
94,4,2,T1_SMS_8,71,1,48,60,406410268
94,4,2,T1_SMS_8,72,5,42,127,406431016
94,4,2,T1_SMS_8,73,1,48,54,407211120
94,4,2,T1_SMS_8,74,5,42,127,407231072
94,4,2,T1_SMS_8,75,1,48,50,408008336
94,4,2,T1_SMS_8,76,5,42,127,408030508
94,4,2,T1_SMS_8,77,1,48,49,408744240
94,4,2,T1_SMS_8,78,5,42,127,408831288
94,4,2,T1_SMS_8,79,1,48,55,409551776
94,4,2,T1_SMS_8,80,5,42,127,409631020
94,4,2,T1_SMS_8,81,1,48,50,410419876
94,4,2,T1_SMS_8,82,5,42,127,410430680
94,4,2,T1_SMS_8,83,5,42,127,411230496
94,4,2,T1_SMS_8,84,1,48,51,411235856
94,4,2,T1_SMS_8,85,1,48,56,411992860
94,4,2,T1_SMS_8,86,5,42,127,412031192
94,4,2,T1_SMS_8,87,1,48,51,412771128
94,4,2,T1_SMS_8,88,5,42,127,412831152
94,4,2,T1_SMS_8,89,5,42,127,413630916
94,4,2,T1_SMS_8,90,1,48,50,413647876
94,4,2,T1_SMS_8,91,1,48,54,414349656
94,4,2,T1_SMS_8,92,5,42,127,414430716
94,4,2,T1_SMS_8,93,1,48,48,415128744
94,4,2,T1_SMS_8,94,5,42,127,415231332
94,4,2,T1_SMS_8,95,1,48,51,415951832
94,4,2,T1_SMS_8,96,5,42,127,416031080
94,4,2,T1_SMS_8,97,1,48,42,416758976
94,4,2,T1_SMS_8,98,5,42,127,416830964
94,4,2,T1_SMS_8,99,1,48,52,417576356
94,4,2,T1_SMS_8,100,5,42,127,417630472
94,4,2,T1_SMS_8,101,5,42,127,418431260
94,4,2,T1_SMS_8,102,1,48,44,418432224
94,4,2,T1_SMS_8,103,1,48,50,419218384
94,4,2,T1_SMS_8,104,5,42,127,419231060
94,4,2,T1_SMS_8,105,1,48,54,419992164
94,4,2,T1_SMS_8,106,5,42,127,420030968
94,4,2,T1_SMS_8,107,1,48,44,420777540
94,4,2,T1_SMS_8,108,5,42,127,420830480
94,4,2,T1_SMS_8,109,1,48,37,421553708
94,4,2,T1_SMS_8,110,5,42,127,421631404
94,4,2,T1_SMS_8,111,1,48,43,422406200
94,4,2,T1_SMS_8,112,5,42,127,422430992
94,4,2,T1_SMS_8,113,5,42,127,423230956
94,4,2,T1_SMS_8,114,1,48,41,423253820
94,4,2,T1_SMS_8,115,1,48,44,423955396
94,4,2,T1_SMS_8,116,5,42,127,424030756
94,4,2,T1_SMS_8,117,1,48,51,424768680
94,4,2,T1_SMS_8,118,5,42,127,424831464
94,4,2,T1_SMS_8,119,1,48,47,425596604
94,4,2,T1_SMS_8,120,5,42,127,425631196
94,4,2,T1_SMS_8,121,1,48,58,426311896
94,4,2,T1_SMS_8,122,5,42,127,426431088
94,4,2,T1_SMS_8,123,1,48,52,427194300
94,4,2,T1_SMS_8,124,5,42,127,427230464
94,4,2,T1_SMS_8,125,1,48,52,427971972
94,4,2,T1_SMS_8,126,5,42,127,428031244
94,4,2,T1_SMS_8,127,1,48,54,428805436
94,4,2,T1_SMS_8,128,5,42,127,428831052
94,4,2,T1_SMS_8,129,5,42,127,429631092
94,4,2,T1_SMS_8,130,1,48,53,429637428
94,4,2,T1_SMS_8,131,1,48,49,430401016
94,4,2,T1_SMS_8,132,5,42,127,430430444
94,4,2,T1_SMS_8,133,1,48,50,431188704
94,4,2,T1_SMS_8,134,5,42,127,431231224
94,4,2,T1_SMS_8,135,1,48,46,431981708
94,4,2,T1_SMS_8,136,5,42,127,432031180
94,4,2,T1_SMS_8,137,1,48,49,432771940
94,4,2,T1_SMS_8,138,5,42,127,432830940
94,4,2,T1_SMS_8,139,1,48,46,433566812
94,4,2,T1_SMS_8,140,5,42,127,433630748
94,4,2,T1_SMS_8,141,1,48,51,434389904
94,4,2,T1_SMS_8,142,5,42,127,434431304
94,4,2,T1_SMS_8,143,1,48,41,435200188
94,4,2,T1_SMS_8,144,5,42,127,435230964
94,4,2,T1_SMS_8,145,1,48,42,435982264
94,4,2,T1_SMS_8,146,5,42,127,436030920
94,4,2,T1_SMS_8,147,1,48,47,436720588
94,4,2,T1_SMS_8,148,5,42,127,436830860
94,4,2,T1_SMS_8,149,1,48,53,437548676
94,4,2,T1_SMS_8,150,5,42,127,437631284
94,4,2,T1_SMS_8,151,1,48,49,438402932
94,4,2,T1_SMS_8,152,5,42,127,438430944
94,4,2,T1_SMS_8,153,1,48,46,439205360
94,4,2,T1_SMS_8,154,5,42,127,439230776
94,4,2,T1_SMS_8,155,5,42,127,440030740
94,4,2,T1_SMS_8,156,1,48,30,440084196
94,4,2,T1_SMS_8,157,5,42,127,440831296
94,4,2,T1_SMS_8,158,1,48,28,440887224
94,4,2,T1_SMS_8,159,5,42,127,441631028
94,4,2,T1_SMS_8,160,1,48,33,441681644
94,4,2,T1_SMS_8,161,5,42,127,442430912
94,4,2,T1_SMS_8,162,1,48,29,442568468
94,4,2,T1_SMS_8,163,5,42,127,443230644
94,4,2,T1_SMS_8,164,1,48,38,443246104
94,4,2,T1_SMS_8,165,1,48,44,443984412
94,4,2,T1_SMS_8,166,5,42,127,444031344
94,4,2,T1_SMS_8,167,1,48,37,444800376
94,4,2,T1_SMS_8,168,5,42,127,444831076
94,4,2,T1_SMS_8,169,1,48,44,445613044
94,4,2,T1_SMS_8,170,5,42,127,445630836
94,4,2,T1_SMS_8,171,5,42,127,446430648
94,4,2,T1_SMS_8,172,1,48,38,446438932
94,4,2,T1_SMS_8,173,1,48,45,447220544
94,4,2,T1_SMS_8,174,5,42,127,447231424
94,4,2,T1_SMS_8,175,1,48,46,448026260
94,4,2,T1_SMS_8,176,5,42,127,448031156
94,4,2,T1_SMS_8,177,5,42,127,448830748
94,4,2,T1_SMS_8,178,1,48,42,448851888
94,4,2,T1_SMS_8,179,5,42,127,449630704
94,4,2,T1_SMS_8,180,1,48,36,449643548
94,4,2,T1_SMS_8,181,1,48,41,450319096
94,4,2,T1_SMS_8,182,5,42,127,450431756
94,4,2,T1_SMS_8,183,1,48,41,451164752
94,4,2,T1_SMS_8,184,5,42,127,451230984
94,4,2,T1_SMS_8,185,1,48,49,451991720
94,4,2,T1_SMS_8,186,5,42,127,452030820
94,4,2,T1_SMS_8,187,1,48,43,452787784
94,4,2,T1_SMS_8,188,5,42,127,452830628
94,4,2,T1_SMS_8,189,1,48,49,453622692
94,4,2,T1_SMS_8,190,5,42,127,453631556
94,4,2,T1_SMS_8,191,1,48,43,454394604
94,4,2,T1_SMS_8,192,5,42,127,454431068
94,4,2,T1_SMS_8,193,1,48,41,455230584
94,4,2,T1_SMS_8,194,5,42,127,455232068
94,4,2,T1_SMS_8,195,5,42,127,456030836
94,4,2,T1_SMS_8,196,1,48,47,456078612
94,4,2,T1_SMS_8,197,1,48,30,456129628
94,4,2,T1_SMS_8,198,1,48,45,456802464
94,4,2,T1_SMS_8,199,5,42,127,456831368
94,4,2,T1_SMS_8,200,1,48,48,457585140
94,4,2,T1_SMS_8,201,1,48,32,457631532
94,4,2,T1_SMS_8,202,5,42,127,457632720
94,4,2,T1_SMS_8,203,1,48,42,458362560
94,4,2,T1_SMS_8,204,5,42,127,458430836
94,4,2,T1_SMS_8,205,1,48,42,459207648
94,4,2,T1_SMS_8,206,5,42,127,459230720
94,4,2,T1_SMS_8,207,1,48,52,459953128
94,4,2,T1_SMS_8,208,1,48,36,459996444
94,4,2,T1_SMS_8,209,5,42,127,460031328
94,4,2,T1_SMS_8,210,1,48,50,460772764
94,4,2,T1_SMS_8,211,1,48,33,460821284
94,4,2,T1_SMS_8,212,5,42,127,460831044
94,4,2,T1_SMS_8,213,1,48,43,461556316
94,4,2,T1_SMS_8,214,5,42,127,461630776
94,4,2,T1_SMS_8,215,1,48,46,462362188
94,4,2,T1_SMS_8,216,1,48,30,462420212
94,4,2,T1_SMS_8,217,5,42,127,462430788
94,4,2,T1_SMS_8,218,1,48,50,463140656
94,4,2,T1_SMS_8,219,1,48,33,463197108
94,4,2,T1_SMS_8,220,5,42,127,463231396
94,4,2,T1_SMS_8,221,1,48,48,463952780
94,4,2,T1_SMS_8,222,1,48,32,463995396
94,4,2,T1_SMS_8,223,5,42,127,464031036
94,4,2,T1_SMS_8,224,1,48,49,464794008
94,4,2,T1_SMS_8,225,5,42,127,464830720
94,4,2,T1_SMS_8,226,1,48,33,464851548
94,4,2,T1_SMS_8,227,1,48,54,465591404
94,4,2,T1_SMS_8,228,5,42,127,465630800
94,4,2,T1_SMS_8,229,1,48,49,466381360
94,4,2,T1_SMS_8,230,1,48,35,466426892
94,4,2,T1_SMS_8,231,5,42,127,466431264
94,4,2,T1_SMS_8,232,1,48,46,467190572
94,4,2,T1_SMS_8,233,5,42,127,467231220
94,4,2,T1_SMS_8,234,1,48,33,467240016
94,4,2,T1_SMS_8,235,1,48,48,468024016
94,4,2,T1_SMS_8,236,5,42,127,468030860
94,4,2,T1_SMS_8,237,1,48,48,468818148
94,4,2,T1_SMS_8,238,5,42,127,468830744
94,4,2,T1_SMS_8,239,1,48,32,468872068
94,4,2,T1_SMS_8,240,1,48,45,469579556
94,4,2,T1_SMS_8,241,1,48,31,469625684
94,4,2,T1_SMS_8,242,5,42,127,469631476
94,4,2,T1_SMS_8,243,1,48,48,470407768
94,4,2,T1_SMS_8,244,5,42,127,470431064
94,4,2,T1_SMS_8,245,1,48,44,471153872
94,4,2,T1_SMS_8,246,5,42,127,471230896
94,4,2,T1_SMS_8,247,1,48,54,471934680
94,4,2,T1_SMS_8,248,1,48,38,471985372
94,4,2,T1_SMS_8,249,5,42,127,472030608
94,4,2,T1_SMS_8,250,1,48,57,472732900
94,4,2,T1_SMS_8,251,1,48,38,472786380
94,4,2,T1_SMS_8,252,5,42,127,472831444
94,4,2,T1_SMS_8,253,1,48,62,473556492
94,4,2,T1_SMS_8,254,1,48,40,473599036
94,4,2,T1_SMS_8,255,5,42,127,473631152
94,4,2,T1_SMS_8,256,1,48,53,474320080
94,4,2,T1_SMS_8,257,5,42,127,474430872
94,4,2,T1_SMS_8,258,1,48,53,475146368
94,4,2,T1_SMS_8,259,5,42,127,475230472
94,4,2,T1_SMS_8,260,1,48,47,475865836
94,4,2,T1_SMS_8,0,9999,9999,9999,380029016
94,4,2,T1_SMS_8,1,9999,9999,9999,380828772
94,4,2,T1_SMS_8,2,9999,9999,9999,381628480
94,4,2,T1_SMS_8,3,9999,9999,9999,382428280
94,4,2,T1_SMS_8,4,9999,9999,9999,383228984
94,4,2,T1_SMS_8,5,9999,9999,9999,384028720
94,4,2,T1_SMS_8,6,9999,9999,9999,384828504
94,4,2,T1_SMS_8,7,9999,9999,9999,385628240
94,4,2,T1_SMS_8,8,9999,9999,9999,386428976
94,4,2,T1_SMS_8,9,9999,9999,9999,387228724
94,4,2,T1_SMS_8,10,9999,9999,9999,388028520
94,4,2,T1_SMS_8,11,9999,9999,9999,388828232
94,4,2,T1_SMS_8,12,9999,9999,9999,389629012
94,4,2,T1_SMS_8,13,9999,9999,9999,390428744
94,4,2,T1_SMS_8,14,9999,9999,9999,391228476
94,4,2,T1_SMS_8,15,9999,9999,9999,392028212
94,4,2,T1_SMS_8,16,9999,9999,9999,392828992
94,4,2,T1_SMS_8,17,9999,9999,9999,393628724
94,4,2,T1_SMS_8,18,9999,9999,9999,394428484
94,4,2,T1_SMS_8,19,9999,9999,9999,395228216
94,4,2,T1_SMS_8,20,9999,9999,9999,396029000
94,4,2,T1_SMS_8,21,9999,9999,9999,396828732
94,4,2,T1_SMS_8,22,9999,9999,9999,397628468
94,4,2,T1_SMS_8,23,9999,9999,9999,398428276
94,4,2,T1_SMS_8,24,9999,9999,9999,399229016
94,4,2,T1_SMS_8,25,9999,9999,9999,400028744
94,4,2,T1_SMS_8,26,9999,9999,9999,400828504
94,4,2,T1_SMS_8,27,9999,9999,9999,401628236
94,4,2,T1_SMS_8,28,9999,9999,9999,402429016
94,4,2,T1_SMS_8,29,9999,9999,9999,403228756
94,4,2,T1_SMS_8,30,9999,9999,9999,404028484
94,4,2,T1_SMS_8,31,9999,9999,9999,404828216
94,4,2,T1_SMS_8,32,9999,9999,9999,405628996
94,4,2,T1_SMS_8,33,9999,9999,9999,406428732
94,4,2,T1_SMS_8,34,9999,9999,9999,407228488
94,4,2,T1_SMS_8,35,9999,9999,9999,408028220
94,4,2,T1_SMS_8,36,9999,9999,9999,408829000
94,4,2,T1_SMS_8,37,9999,9999,9999,409628732
94,4,2,T1_SMS_8,38,9999,9999,9999,410428468
94,4,2,T1_SMS_8,39,9999,9999,9999,411228208
94,4,2,T1_SMS_8,40,9999,9999,9999,412028980
94,4,2,T1_SMS_8,41,9999,9999,9999,412828788
94,4,2,T1_SMS_8,42,9999,9999,9999,413628480
94,4,2,T1_SMS_8,43,9999,9999,9999,414428208
94,4,2,T1_SMS_8,44,9999,9999,9999,415229044
94,4,2,T1_SMS_8,45,9999,9999,9999,416028720
94,4,2,T1_SMS_8,46,9999,9999,9999,416828528
94,4,2,T1_SMS_8,47,9999,9999,9999,417628260
94,4,2,T1_SMS_8,48,9999,9999,9999,418429044
94,4,2,T1_SMS_8,49,9999,9999,9999,419228772
94,4,2,T1_SMS_8,50,9999,9999,9999,420028532
94,4,2,T1_SMS_8,51,9999,9999,9999,420828264
94,4,2,T1_SMS_8,52,9999,9999,9999,421629044
94,4,2,T1_SMS_8,53,9999,9999,9999,422428776
94,4,2,T1_SMS_8,54,9999,9999,9999,423228520
94,4,2,T1_SMS_8,55,9999,9999,9999,424028244
94,4,2,T1_SMS_8,56,9999,9999,9999,424829028
94,4,2,T1_SMS_8,57,9999,9999,9999,425628760
94,4,2,T1_SMS_8,58,9999,9999,9999,426428504
94,4,2,T1_SMS_8,59,9999,9999,9999,427228252
94,4,2,T1_SMS_8,60,9999,9999,9999,428029032
94,4,2,T1_SMS_8,61,9999,9999,9999,428828764
94,4,2,T1_SMS_8,62,9999,9999,9999,429628504
94,4,2,T1_SMS_8,63,9999,9999,9999,430428232
94,4,2,T1_SMS_8,64,9999,9999,9999,431229012
94,4,2,T1_SMS_8,65,9999,9999,9999,432028744
94,4,2,T1_SMS_8,66,9999,9999,9999,432828504
94,4,2,T1_SMS_8,67,9999,9999,9999,433628236
94,4,2,T1_SMS_8,68,9999,9999,9999,434429016
94,4,2,T1_SMS_8,69,9999,9999,9999,435228748
94,4,2,T1_SMS_8,70,9999,9999,9999,436028484
94,4,2,T1_SMS_8,71,9999,9999,9999,436828276
94,4,2,T1_SMS_8,72,9999,9999,9999,437628996
94,4,2,T1_SMS_8,73,9999,9999,9999,438428732
94,4,2,T1_SMS_8,74,9999,9999,9999,439228488
94,4,2,T1_SMS_8,75,9999,9999,9999,440028228
94,4,2,T1_SMS_8,76,9999,9999,9999,440829008
94,4,2,T1_SMS_8,77,9999,9999,9999,441628740
94,4,2,T1_SMS_8,78,9999,9999,9999,442428476
94,4,2,T1_SMS_8,79,9999,9999,9999,443228208
94,4,2,T1_SMS_8,80,9999,9999,9999,444028980
94,4,2,T1_SMS_8,81,9999,9999,9999,444828788
94,4,2,T1_SMS_8,82,9999,9999,9999,445628472
94,4,2,T1_SMS_8,83,9999,9999,9999,446428212
94,4,2,T1_SMS_8,84,9999,9999,9999,447228984
94,4,2,T1_SMS_8,85,9999,9999,9999,448028720
94,4,2,T1_SMS_8,86,9999,9999,9999,448828532
94,4,2,T1_SMS_8,87,9999,9999,9999,449628268
94,4,2,T1_SMS_8,88,9999,9999,9999,450429024
94,4,2,T1_SMS_8,89,9999,9999,9999,451228772
94,4,2,T1_SMS_8,90,9999,9999,9999,452028532
94,4,2,T1_SMS_8,91,9999,9999,9999,452828264
94,4,2,T1_SMS_8,92,9999,9999,9999,453629044
94,4,2,T1_SMS_8,93,9999,9999,9999,454428780
94,4,2,T1_SMS_8,94,9999,9999,9999,455228520
94,4,2,T1_SMS_8,95,9999,9999,9999,456028252
94,4,2,T1_SMS_8,96,9999,9999,9999,456829004
94,4,2,T1_SMS_8,97,9999,9999,9999,457628736
94,4,2,T1_SMS_8,98,9999,9999,9999,458428476
94,4,2,T1_SMS_8,99,9999,9999,9999,459228208
94,4,2,T1_SMS_8,100,9999,9999,9999,460029044
94,4,2,T1_SMS_8,101,9999,9999,9999,460828756
94,4,2,T1_SMS_8,102,9999,9999,9999,461628488
94,4,2,T1_SMS_8,103,9999,9999,9999,462428280
94,4,2,T1_SMS_8,104,9999,9999,9999,463229036
94,4,2,T1_SMS_8,105,9999,9999,9999,464028748
94,4,2,T1_SMS_8,106,9999,9999,9999,464828504
94,4,2,T1_SMS_8,107,9999,9999,9999,465628216
94,4,2,T1_SMS_8,108,9999,9999,9999,466428976
94,4,2,T1_SMS_8,109,9999,9999,9999,467228784
94,4,2,T1_SMS_8,110,9999,9999,9999,468028496
94,4,2,T1_SMS_8,111,9999,9999,9999,468828232
94,4,2,T1_SMS_8,112,9999,9999,9999,469629040
94,4,2,T1_SMS_8,113,9999,9999,9999,470428776
94,4,2,T1_SMS_8,114,9999,9999,9999,471228532
94,4,2,T1_SMS_8,115,9999,9999,9999,472028248
94,4,2,T1_SMS_8,116,9999,9999,9999,472829004
94,4,2,T1_SMS_8,117,9999,9999,9999,473628792
94,4,2,T1_SMS_8,118,9999,9999,9999,474428508
94,4,2,T1_SMS_8,119,9999,9999,9999,475228256
94,5,10,Ticks_ISO_T2_5,0,5,42,127,486379732
94,5,10,Ticks_ISO_T2_5,1,5,42,127,486879672
94,5,10,Ticks_ISO_T2_5,2,5,42,127,487380512
94,5,10,Ticks_ISO_T2_5,3,1,48,35,487852932
94,5,10,Ticks_ISO_T2_5,4,5,42,127,487879924
94,5,10,Ticks_ISO_T2_5,5,5,42,127,488379700
94,5,10,Ticks_ISO_T2_5,6,1,48,45,488391564
94,5,10,Ticks_ISO_T2_5,7,5,42,127,488879520
94,5,10,Ticks_ISO_T2_5,8,1,48,45,488889696
94,5,10,Ticks_ISO_T2_5,9,5,42,127,489380332
94,5,10,Ticks_ISO_T2_5,10,1,48,46,489410328
94,5,10,Ticks_ISO_T2_5,11,5,42,127,489879956
94,5,10,Ticks_ISO_T2_5,12,1,48,46,489905364
94,5,10,Ticks_ISO_T2_5,13,5,42,127,490379500
94,5,10,Ticks_ISO_T2_5,14,1,48,53,490413436
94,5,10,Ticks_ISO_T2_5,15,1,48,35,490467292
94,5,10,Ticks_ISO_T2_5,16,5,42,127,490880296
94,5,10,Ticks_ISO_T2_5,17,1,48,45,490894632
94,5,10,Ticks_ISO_T2_5,18,1,48,32,491379536
94,5,10,Ticks_ISO_T2_5,19,5,42,127,491381252
94,5,10,Ticks_ISO_T2_5,20,1,48,48,491828032
94,5,10,Ticks_ISO_T2_5,21,5,42,127,491879828
94,5,10,Ticks_ISO_T2_5,22,1,48,49,492360864
94,5,10,Ticks_ISO_T2_5,23,5,42,127,492379520
94,5,10,Ticks_ISO_T2_5,24,1,48,40,492877688
94,5,10,Ticks_ISO_T2_5,25,5,42,127,492880264
94,5,10,Ticks_ISO_T2_5,26,5,42,127,493379892
94,5,10,Ticks_ISO_T2_5,27,1,48,39,493381452
94,5,10,Ticks_ISO_T2_5,28,5,42,127,493879512
94,5,10,Ticks_ISO_T2_5,29,1,48,32,493895344
94,5,10,Ticks_ISO_T2_5,30,5,42,127,494380404
94,5,10,Ticks_ISO_T2_5,31,1,48,41,494400200
94,5,10,Ticks_ISO_T2_5,32,5,42,127,494880248
94,5,10,Ticks_ISO_T2_5,33,1,48,42,494920240
94,5,10,Ticks_ISO_T2_5,34,1,48,38,495335320
94,5,10,Ticks_ISO_T2_5,35,5,42,127,495379788
94,5,10,Ticks_ISO_T2_5,36,5,42,127,495879412
94,5,10,Ticks_ISO_T2_5,37,1,48,39,495931368
94,5,10,Ticks_ISO_T2_5,38,5,42,127,496380380
94,5,10,Ticks_ISO_T2_5,39,1,48,33,496395688
94,5,10,Ticks_ISO_T2_5,40,1,48,37,496871204
94,5,10,Ticks_ISO_T2_5,41,5,42,127,496879920
94,5,10,Ticks_ISO_T2_5,42,5,42,127,497379620
94,5,10,Ticks_ISO_T2_5,43,1,48,32,497385352
94,5,10,Ticks_ISO_T2_5,44,1,48,29,497874336
94,5,10,Ticks_ISO_T2_5,45,5,42,127,497880356
94,5,10,Ticks_ISO_T2_5,46,1,48,36,498367900
94,5,10,Ticks_ISO_T2_5,47,5,42,127,498380272
94,5,10,Ticks_ISO_T2_5,48,1,48,43,498798528
94,5,10,Ticks_ISO_T2_5,49,5,42,127,498879816
94,5,10,Ticks_ISO_T2_5,50,1,48,36,499379272
94,5,10,Ticks_ISO_T2_5,51,5,42,127,499380608
94,5,10,Ticks_ISO_T2_5,52,1,48,25,499863592
94,5,10,Ticks_ISO_T2_5,53,5,42,127,499880304
94,5,10,Ticks_ISO_T2_5,54,5,42,127,500380152
94,5,10,Ticks_ISO_T2_5,55,1,48,28,500430640
94,5,10,Ticks_ISO_T2_5,56,5,42,127,500879700
94,5,10,Ticks_ISO_T2_5,57,1,48,33,500933404
94,5,10,Ticks_ISO_T2_5,58,5,42,127,501379392
94,5,10,Ticks_ISO_T2_5,59,1,48,34,501389468
94,5,10,Ticks_ISO_T2_5,60,1,48,32,501842544
94,5,10,Ticks_ISO_T2_5,61,5,42,127,501880424
94,5,10,Ticks_ISO_T2_5,62,1,48,35,502329452
94,5,10,Ticks_ISO_T2_5,63,5,42,127,502379748
94,5,10,Ticks_ISO_T2_5,64,1,48,33,502826152
94,5,10,Ticks_ISO_T2_5,65,5,42,127,502879520
94,5,10,Ticks_ISO_T2_5,66,1,48,36,503362576
94,5,10,Ticks_ISO_T2_5,67,5,42,127,503380484
94,5,10,Ticks_ISO_T2_5,68,1,48,33,503867656
94,5,10,Ticks_ISO_T2_5,69,5,42,127,503880328
94,5,10,Ticks_ISO_T2_5,70,1,48,30,504368252
94,5,10,Ticks_ISO_T2_5,71,5,42,127,504379652
94,5,10,Ticks_ISO_T2_5,72,1,48,32,504863904
94,5,10,Ticks_ISO_T2_5,73,5,42,127,504879572
94,5,10,Ticks_ISO_T2_5,74,1,48,37,505377584
94,5,10,Ticks_ISO_T2_5,75,5,42,127,505380460
94,5,10,Ticks_ISO_T2_5,76,5,42,127,505879940
94,5,10,Ticks_ISO_T2_5,77,1,48,36,505887024
94,5,10,Ticks_ISO_T2_5,78,1,48,30,506369792
94,5,10,Ticks_ISO_T2_5,79,5,42,127,506379480
94,5,10,Ticks_ISO_T2_5,80,1,48,39,506875996
94,5,10,Ticks_ISO_T2_5,81,5,42,127,506880368
94,5,10,Ticks_ISO_T2_5,82,1,48,27,507364472
94,5,10,Ticks_ISO_T2_5,83,5,42,127,507380288
94,5,10,Ticks_ISO_T2_5,84,1,48,29,507856984
94,5,10,Ticks_ISO_T2_5,85,5,42,127,507879760
94,5,10,Ticks_ISO_T2_5,86,5,42,127,508379460
94,5,10,Ticks_ISO_T2_5,87,1,48,32,508384300
94,5,10,Ticks_ISO_T2_5,88,1,48,37,508842884
94,5,10,Ticks_ISO_T2_5,89,5,42,127,508880420
94,5,10,Ticks_ISO_T2_5,90,5,42,127,509379900
94,5,10,Ticks_ISO_T2_5,91,1,48,35,509382564
94,5,10,Ticks_ISO_T2_5,92,1,48,41,509871228
94,5,10,Ticks_ISO_T2_5,93,5,42,127,509879660
94,5,10,Ticks_ISO_T2_5,94,5,42,127,510380384
94,5,10,Ticks_ISO_T2_5,95,1,48,37,510413516
94,5,10,Ticks_ISO_T2_5,96,1,48,39,510871208
94,5,10,Ticks_ISO_T2_5,97,5,42,127,510880292
94,5,10,Ticks_ISO_T2_5,98,5,42,127,511379848
94,5,10,Ticks_ISO_T2_5,99,1,48,37,511402412
94,5,10,Ticks_ISO_T2_5,100,1,48,41,511877952
94,5,10,Ticks_ISO_T2_5,101,5,42,127,511879388
94,5,10,Ticks_ISO_T2_5,102,5,42,127,512380360
94,5,10,Ticks_ISO_T2_5,103,1,48,31,512409504
94,5,10,Ticks_ISO_T2_5,104,1,48,31,512842240
94,5,10,Ticks_ISO_T2_5,105,5,42,127,512880196
94,5,10,Ticks_ISO_T2_5,106,5,42,127,513379600
94,5,10,Ticks_ISO_T2_5,107,1,48,38,513418772
94,5,10,Ticks_ISO_T2_5,108,1,48,32,513804456
94,5,10,Ticks_ISO_T2_5,109,5,42,127,513880332
94,5,10,Ticks_ISO_T2_5,110,1,48,41,514329428
94,5,10,Ticks_ISO_T2_5,111,5,42,127,514380400
94,5,10,Ticks_ISO_T2_5,112,1,48,42,514788440
94,5,10,Ticks_ISO_T2_5,113,5,42,127,514879872
94,5,10,Ticks_ISO_T2_5,114,1,48,37,515352756
94,5,10,Ticks_ISO_T2_5,115,5,42,127,515379568
94,5,10,Ticks_ISO_T2_5,116,1,48,28,515834644
94,5,10,Ticks_ISO_T2_5,117,5,42,127,515880236
94,5,10,Ticks_ISO_T2_5,118,1,48,41,516347960
94,5,10,Ticks_ISO_T2_5,119,5,42,127,516380300
94,5,10,Ticks_ISO_T2_5,120,1,48,36,516840172
94,5,10,Ticks_ISO_T2_5,121,5,42,127,516879700
94,5,10,Ticks_ISO_T2_5,122,5,42,127,517379400
94,5,10,Ticks_ISO_T2_5,123,1,48,44,517386856
94,5,10,Ticks_ISO_T2_5,124,1,48,40,517872172
94,5,10,Ticks_ISO_T2_5,125,5,42,127,517880284
94,5,10,Ticks_ISO_T2_5,126,1,48,45,518376580
94,5,10,Ticks_ISO_T2_5,127,5,42,127,518379828
94,5,10,Ticks_ISO_T2_5,128,1,48,39,518839096
94,5,10,Ticks_ISO_T2_5,129,5,42,127,518879524
94,5,10,Ticks_ISO_T2_5,130,5,42,127,519380272
94,5,10,Ticks_ISO_T2_5,131,1,48,34,519425724
94,5,10,Ticks_ISO_T2_5,132,1,48,32,519860080
94,5,10,Ticks_ISO_T2_5,133,5,42,127,519880036
94,5,10,Ticks_ISO_T2_5,134,1,48,42,520377228
94,5,10,Ticks_ISO_T2_5,135,5,42,127,520379808
94,5,10,Ticks_ISO_T2_5,136,1,48,41,520852888
94,5,10,Ticks_ISO_T2_5,137,5,42,127,520879328
94,5,10,Ticks_ISO_T2_5,138,1,48,35,521339196
94,5,10,Ticks_ISO_T2_5,139,5,42,127,521380144
94,5,10,Ticks_ISO_T2_5,140,1,48,34,521859088
94,5,10,Ticks_ISO_T2_5,141,5,42,127,521879988
94,5,10,Ticks_ISO_T2_5,142,1,48,37,522346136
94,5,10,Ticks_ISO_T2_5,143,5,42,127,522379756
94,5,10,Ticks_ISO_T2_5,144,1,48,37,522857656
94,5,10,Ticks_ISO_T2_5,145,5,42,127,522880424
94,5,10,Ticks_ISO_T2_5,146,1,48,49,523371932
94,5,10,Ticks_ISO_T2_5,147,5,42,127,523380120
94,5,10,Ticks_ISO_T2_5,148,1,48,54,523835648
94,5,10,Ticks_ISO_T2_5,149,5,42,127,523879888
94,5,10,Ticks_ISO_T2_5,150,1,48,42,524341924
94,5,10,Ticks_ISO_T2_5,151,5,42,127,524379436
94,5,10,Ticks_ISO_T2_5,152,1,48,44,524861816
94,5,10,Ticks_ISO_T2_5,153,5,42,127,524880176
94,5,10,Ticks_ISO_T2_5,154,5,42,127,525380100
94,5,10,Ticks_ISO_T2_5,155,1,48,45,525387408
94,5,10,Ticks_ISO_T2_5,156,1,48,43,525842352
94,5,10,Ticks_ISO_T2_5,157,5,42,127,525879936
94,5,10,Ticks_ISO_T2_5,158,1,48,45,526332772
94,5,10,Ticks_ISO_T2_5,159,5,42,127,526380380
94,5,10,Ticks_ISO_T2_5,160,1,48,40,526874428
94,5,10,Ticks_ISO_T2_5,161,5,42,127,526880148
94,5,10,Ticks_ISO_T2_5,162,5,42,127,527379852
94,5,10,Ticks_ISO_T2_5,163,1,48,34,527386480
94,5,10,Ticks_ISO_T2_5,164,1,48,40,527871056
94,5,10,Ticks_ISO_T2_5,165,5,42,127,527879540
94,5,10,Ticks_ISO_T2_5,166,5,42,127,528380216
94,5,10,Ticks_ISO_T2_5,167,1,48,44,528400540
94,5,10,Ticks_ISO_T2_5,168,1,48,44,528839928
94,5,10,Ticks_ISO_T2_5,169,5,42,127,528879976
94,5,10,Ticks_ISO_T2_5,170,5,42,127,529379604
94,5,10,Ticks_ISO_T2_5,171,1,48,46,529381616
94,5,10,Ticks_ISO_T2_5,172,1,48,51,529831508
94,5,10,Ticks_ISO_T2_5,173,5,42,127,529880560
94,5,10,Ticks_ISO_T2_5,174,5,42,127,530380188
94,5,10,Ticks_ISO_T2_5,175,1,48,47,530385100
94,5,10,Ticks_ISO_T2_5,176,1,48,49,530870420
94,5,10,Ticks_ISO_T2_5,177,5,42,127,530879800
94,5,10,Ticks_ISO_T2_5,178,1,48,45,531362232
94,5,10,Ticks_ISO_T2_5,179,5,42,127,531379696
94,5,10,Ticks_ISO_T2_5,180,1,48,52,531861680
94,5,10,Ticks_ISO_T2_5,181,5,42,127,531880260
94,5,10,Ticks_ISO_T2_5,182,1,48,45,532358828
94,5,10,Ticks_ISO_T2_5,183,5,42,127,532380104
94,5,10,Ticks_ISO_T2_5,184,5,42,127,532879584
94,5,10,Ticks_ISO_T2_5,185,1,48,39,532896536
94,5,10,Ticks_ISO_T2_5,186,5,42,127,533379428
94,5,10,Ticks_ISO_T2_5,187,1,48,40,533382092
94,5,10,Ticks_ISO_T2_5,188,1,48,46,533812960
94,5,10,Ticks_ISO_T2_5,189,5,42,127,533880164
94,5,10,Ticks_ISO_T2_5,190,1,48,43,534377508
94,5,10,Ticks_ISO_T2_5,191,5,42,127,534380004
94,5,10,Ticks_ISO_T2_5,192,5,42,127,534879560
94,5,10,Ticks_ISO_T2_5,193,1,48,47,534895016
94,5,10,Ticks_ISO_T2_5,194,1,48,38,535349296
94,5,10,Ticks_ISO_T2_5,195,5,42,127,535380220
94,5,10,Ticks_ISO_T2_5,196,1,48,48,535837392
94,5,10,Ticks_ISO_T2_5,197,5,42,127,535879988
94,5,10,Ticks_ISO_T2_5,198,1,48,51,536353096
94,5,10,Ticks_ISO_T2_5,199,5,42,127,536379608
94,5,10,Ticks_ISO_T2_5,200,1,48,44,536840072
94,5,10,Ticks_ISO_T2_5,201,5,42,127,536879452
94,5,10,Ticks_ISO_T2_5,202,1,48,33,537347100
94,5,10,Ticks_ISO_T2_5,203,5,42,127,537380192
94,5,10,Ticks_ISO_T2_5,204,5,42,127,537879968
94,5,10,Ticks_ISO_T2_5,205,1,48,47,537895428
94,5,10,Ticks_ISO_T2_5,206,1,48,45,538366308
94,5,10,Ticks_ISO_T2_5,207,5,42,127,538379580
94,5,10,Ticks_ISO_T2_5,208,1,48,49,538818660
94,5,10,Ticks_ISO_T2_5,209,5,42,127,538880248
94,5,10,Ticks_ISO_T2_5,210,1,48,43,539361056
94,5,10,Ticks_ISO_T2_5,211,5,42,127,539380016
94,5,10,Ticks_ISO_T2_5,212,1,48,43,539842656
94,5,10,Ticks_ISO_T2_5,213,5,42,127,539879860
94,5,10,Ticks_ISO_T2_5,214,1,48,41,540374436
94,5,10,Ticks_ISO_T2_5,215,5,42,127,540379632
94,5,10,Ticks_ISO_T2_5,216,1,48,46,540880380
94,5,10,Ticks_ISO_T2_5,217,5,42,127,540881792
94,5,10,Ticks_ISO_T2_5,218,1,48,44,541351140
94,5,10,Ticks_ISO_T2_5,219,5,42,127,541379992
94,5,10,Ticks_ISO_T2_5,220,1,48,39,541851056
94,5,10,Ticks_ISO_T2_5,221,5,42,127,541879612
94,5,10,Ticks_ISO_T2_5,222,1,48,39,542371920
94,5,10,Ticks_ISO_T2_5,223,5,42,127,542380332
94,5,10,Ticks_ISO_T2_5,224,1,48,42,542845804
94,5,10,Ticks_ISO_T2_5,225,5,42,127,542880172
94,5,10,Ticks_ISO_T2_5,226,5,42,127,543380100
94,5,10,Ticks_ISO_T2_5,227,1,48,38,543386356
94,5,10,Ticks_ISO_T2_5,228,1,48,44,543848188
94,5,10,Ticks_ISO_T2_5,229,5,42,127,543879412
94,5,10,Ticks_ISO_T2_5,230,1,48,43,544362992
94,5,10,Ticks_ISO_T2_5,231,5,42,127,544380228
94,5,10,Ticks_ISO_T2_5,232,1,48,48,544866876
94,5,10,Ticks_ISO_T2_5,233,5,42,127,544880072
94,5,10,Ticks_ISO_T2_5,234,1,48,40,545323336
94,5,10,Ticks_ISO_T2_5,235,5,42,127,545379620
94,5,10,Ticks_ISO_T2_5,236,5,42,127,545880368
94,5,10,Ticks_ISO_T2_5,237,1,48,42,545922752
94,5,10,Ticks_ISO_T2_5,238,5,42,127,546380136
94,5,10,Ticks_ISO_T2_5,239,1,48,43,546397988
94,5,10,Ticks_ISO_T2_5,240,5,42,127,546879980
94,5,10,Ticks_ISO_T2_5,241,1,48,31,546882496
94,5,10,Ticks_ISO_T2_5,242,5,42,127,547379524
94,5,10,Ticks_ISO_T2_5,243,1,48,43,547383392
94,5,10,Ticks_ISO_T2_5,244,5,42,127,547880340
94,5,10,Ticks_ISO_T2_5,245,1,48,45,547899692
94,5,10,Ticks_ISO_T2_5,246,5,42,127,548379960
94,5,10,Ticks_ISO_T2_5,247,1,48,33,548450700
94,5,10,Ticks_ISO_T2_5,248,5,42,127,548880176
94,5,10,Ticks_ISO_T2_5,249,1,48,45,548886064
94,5,10,Ticks_ISO_T2_5,250,1,48,36,549372204
94,5,10,Ticks_ISO_T2_5,251,5,42,127,549379492
94,5,10,Ticks_ISO_T2_5,252,1,48,45,549860532
94,5,10,Ticks_ISO_T2_5,253,5,42,127,549880236
94,5,10,Ticks_ISO_T2_5,254,1,48,44,550340780
94,5,10,Ticks_ISO_T2_5,255,5,42,127,550380004
94,5,10,Ticks_ISO_T2_5,256,1,48,46,550868000
94,5,10,Ticks_ISO_T2_5,257,5,42,127,550879552
94,5,10,Ticks_ISO_T2_5,258,1,48,46,551339692
94,5,10,Ticks_ISO_T2_5,0,9999,9999,9999,486377520
94,5,10,Ticks_ISO_T2_5,1,9999,9999,9999,486877240
94,5,10,Ticks_ISO_T2_5,2,9999,9999,9999,487378000
94,5,10,Ticks_ISO_T2_5,3,9999,9999,9999,487877712
94,5,10,Ticks_ISO_T2_5,4,9999,9999,9999,488377412
94,5,10,Ticks_ISO_T2_5,5,9999,9999,9999,488877156
94,5,10,Ticks_ISO_T2_5,6,9999,9999,9999,489377900
94,5,10,Ticks_ISO_T2_5,7,9999,9999,9999,489877596
94,5,10,Ticks_ISO_T2_5,8,9999,9999,9999,490377288
94,5,10,Ticks_ISO_T2_5,9,9999,9999,9999,490878008
94,5,10,Ticks_ISO_T2_5,10,9999,9999,9999,491377776
94,5,10,Ticks_ISO_T2_5,11,9999,9999,9999,491877468
94,5,10,Ticks_ISO_T2_5,12,9999,9999,9999,492377160
94,5,10,Ticks_ISO_T2_5,13,9999,9999,9999,492877904
94,5,10,Ticks_ISO_T2_5,14,9999,9999,9999,493377604
94,5,10,Ticks_ISO_T2_5,15,9999,9999,9999,493877300
94,5,10,Ticks_ISO_T2_5,16,9999,9999,9999,494378040
94,5,10,Ticks_ISO_T2_5,17,9999,9999,9999,494877812
94,5,10,Ticks_ISO_T2_5,18,9999,9999,9999,495377500
94,5,10,Ticks_ISO_T2_5,19,9999,9999,9999,495877200
94,5,10,Ticks_ISO_T2_5,20,9999,9999,9999,496377944
94,5,10,Ticks_ISO_T2_5,21,9999,9999,9999,496877632
94,5,10,Ticks_ISO_T2_5,22,9999,9999,9999,497377332
94,5,10,Ticks_ISO_T2_5,23,9999,9999,9999,497878068
94,5,10,Ticks_ISO_T2_5,24,9999,9999,9999,498377836
94,5,10,Ticks_ISO_T2_5,25,9999,9999,9999,498877532
94,5,10,Ticks_ISO_T2_5,26,9999,9999,9999,499377208
94,5,10,Ticks_ISO_T2_5,27,9999,9999,9999,499877940
94,5,10,Ticks_ISO_T2_5,28,9999,9999,9999,500377716
94,5,10,Ticks_ISO_T2_5,29,9999,9999,9999,500877412
94,5,10,Ticks_ISO_T2_5,30,9999,9999,9999,501377108
94,5,10,Ticks_ISO_T2_5,31,9999,9999,9999,501877840
94,5,10,Ticks_ISO_T2_5,32,9999,9999,9999,502377536
94,5,10,Ticks_ISO_T2_5,33,9999,9999,9999,502877232
94,5,10,Ticks_ISO_T2_5,34,9999,9999,9999,503377976
94,5,10,Ticks_ISO_T2_5,35,9999,9999,9999,503877744
94,5,10,Ticks_ISO_T2_5,36,9999,9999,9999,504377440
94,5,10,Ticks_ISO_T2_5,37,9999,9999,9999,504877136
94,5,10,Ticks_ISO_T2_5,38,9999,9999,9999,505377876
94,5,10,Ticks_ISO_T2_5,39,9999,9999,9999,505877580
94,5,10,Ticks_ISO_T2_5,40,9999,9999,9999,506377268
94,5,10,Ticks_ISO_T2_5,41,9999,9999,9999,506878008
94,5,10,Ticks_ISO_T2_5,42,9999,9999,9999,507377776
94,5,10,Ticks_ISO_T2_5,43,9999,9999,9999,507877472
94,5,10,Ticks_ISO_T2_5,44,9999,9999,9999,508377172
94,5,10,Ticks_ISO_T2_5,45,9999,9999,9999,508877912
94,5,10,Ticks_ISO_T2_5,46,9999,9999,9999,509377612
94,5,10,Ticks_ISO_T2_5,47,9999,9999,9999,509877348
94,5,10,Ticks_ISO_T2_5,48,9999,9999,9999,510378096
94,5,10,Ticks_ISO_T2_5,49,9999,9999,9999,510877784
94,5,10,Ticks_ISO_T2_5,50,9999,9999,9999,511377488
94,5,10,Ticks_ISO_T2_5,51,9999,9999,9999,511877180
94,5,10,Ticks_ISO_T2_5,52,9999,9999,9999,512377924
94,5,10,Ticks_ISO_T2_5,53,9999,9999,9999,512877684
94,5,10,Ticks_ISO_T2_5,54,9999,9999,9999,513377388
94,5,10,Ticks_ISO_T2_5,55,9999,9999,9999,513878124
94,5,10,Ticks_ISO_T2_5,56,9999,9999,9999,514377816
94,5,10,Ticks_ISO_T2_5,57,9999,9999,9999,514877512
94,5,10,Ticks_ISO_T2_5,58,9999,9999,9999,515377208
94,5,10,Ticks_ISO_T2_5,59,9999,9999,9999,515877948
94,5,10,Ticks_ISO_T2_5,60,9999,9999,9999,516377716
94,5,10,Ticks_ISO_T2_5,61,9999,9999,9999,516877412
94,5,10,Ticks_ISO_T2_5,62,9999,9999,9999,517377112
94,5,10,Ticks_ISO_T2_5,63,9999,9999,9999,517877848
94,5,10,Ticks_ISO_T2_5,64,9999,9999,9999,518377540
94,5,10,Ticks_ISO_T2_5,65,9999,9999,9999,518877240
94,5,10,Ticks_ISO_T2_5,66,9999,9999,9999,519377988
94,5,10,Ticks_ISO_T2_5,67,9999,9999,9999,519877752
94,5,10,Ticks_ISO_T2_5,68,9999,9999,9999,520377448
94,5,10,Ticks_ISO_T2_5,69,9999,9999,9999,520877116
94,5,10,Ticks_ISO_T2_5,70,9999,9999,9999,521377856
94,5,10,Ticks_ISO_T2_5,71,9999,9999,9999,521877552
94,5,10,Ticks_ISO_T2_5,72,9999,9999,9999,522377320
94,5,10,Ticks_ISO_T2_5,73,9999,9999,9999,522878064
94,5,10,Ticks_ISO_T2_5,74,9999,9999,9999,523377760
94,5,10,Ticks_ISO_T2_5,75,9999,9999,9999,523877452
94,5,10,Ticks_ISO_T2_5,76,9999,9999,9999,524377148
94,5,10,Ticks_ISO_T2_5,77,9999,9999,9999,524877888
94,5,10,Ticks_ISO_T2_5,78,9999,9999,9999,525377588
94,5,10,Ticks_ISO_T2_5,79,9999,9999,9999,525877352
94,5,10,Ticks_ISO_T2_5,80,9999,9999,9999,526378092
94,5,10,Ticks_ISO_T2_5,81,9999,9999,9999,526877788
94,5,10,Ticks_ISO_T2_5,82,9999,9999,9999,527377492
94,5,10,Ticks_ISO_T2_5,83,9999,9999,9999,527877180
94,5,10,Ticks_ISO_T2_5,84,9999,9999,9999,528377928
94,5,10,Ticks_ISO_T2_5,85,9999,9999,9999,528877616
94,5,10,Ticks_ISO_T2_5,86,9999,9999,9999,529377392
94,5,10,Ticks_ISO_T2_5,87,9999,9999,9999,529878128
94,5,10,Ticks_ISO_T2_5,88,9999,9999,9999,530377828
94,5,10,Ticks_ISO_T2_5,89,9999,9999,9999,530877516
94,5,10,Ticks_ISO_T2_5,90,9999,9999,9999,531377260
94,5,10,Ticks_ISO_T2_5,91,9999,9999,9999,531877976
94,5,10,Ticks_ISO_T2_5,92,9999,9999,9999,532377672
94,5,10,Ticks_ISO_T2_5,93,9999,9999,9999,532877372
94,5,10,Ticks_ISO_T2_5,94,9999,9999,9999,533377140
94,5,10,Ticks_ISO_T2_5,95,9999,9999,9999,533877876
94,5,10,Ticks_ISO_T2_5,96,9999,9999,9999,534377572
94,5,10,Ticks_ISO_T2_5,97,9999,9999,9999,534877272
94,5,10,Ticks_ISO_T2_5,98,9999,9999,9999,535378008
94,5,10,Ticks_ISO_T2_5,99,9999,9999,9999,535877700
94,5,10,Ticks_ISO_T2_5,100,9999,9999,9999,536377396
94,5,10,Ticks_ISO_T2_5,101,9999,9999,9999,536877168
94,5,10,Ticks_ISO_T2_5,102,9999,9999,9999,537377908
94,5,10,Ticks_ISO_T2_5,103,9999,9999,9999,537877608
94,5,10,Ticks_ISO_T2_5,104,9999,9999,9999,538377296
94,5,10,Ticks_ISO_T2_5,105,9999,9999,9999,538878036
94,5,10,Ticks_ISO_T2_5,106,9999,9999,9999,539377732
94,5,10,Ticks_ISO_T2_5,107,9999,9999,9999,539877424
94,5,10,Ticks_ISO_T2_5,108,9999,9999,9999,540377196
94,5,10,Ticks_ISO_T2_5,109,9999,9999,9999,540877944
94,5,10,Ticks_ISO_T2_5,110,9999,9999,9999,541377632
94,5,10,Ticks_ISO_T2_5,111,9999,9999,9999,541877328
94,5,10,Ticks_ISO_T2_5,112,9999,9999,9999,542378044
94,5,10,Ticks_ISO_T2_5,113,9999,9999,9999,542877812
94,5,10,Ticks_ISO_T2_5,114,9999,9999,9999,543377516
94,5,10,Ticks_ISO_T2_5,115,9999,9999,9999,543877204
94,5,10,Ticks_ISO_T2_5,116,9999,9999,9999,544377944
94,5,10,Ticks_ISO_T2_5,117,9999,9999,9999,544877640
94,5,10,Ticks_ISO_T2_5,118,9999,9999,9999,545377332
94,5,10,Ticks_ISO_T2_5,119,9999,9999,9999,545878080
94,5,10,Ticks_ISO_T2_5,120,9999,9999,9999,546377848
94,5,10,Ticks_ISO_T2_5,121,9999,9999,9999,546877544
94,5,10,Ticks_ISO_T2_5,122,9999,9999,9999,547377240
94,5,10,Ticks_ISO_T2_5,123,9999,9999,9999,547877980
94,5,10,Ticks_ISO_T2_5,124,9999,9999,9999,548377676
94,5,10,Ticks_ISO_T2_5,125,9999,9999,9999,548877372
94,5,10,Ticks_ISO_T2_5,126,9999,9999,9999,549377132
94,5,10,Ticks_ISO_T2_5,127,9999,9999,9999,549877876
94,5,10,Ticks_ISO_T2_5,128,9999,9999,9999,550377572
94,5,10,Ticks_ISO_T2_5,129,9999,9999,9999,550877264
94,6,9,Ticks_ISO_T2_8,0,5,42,127,562364652
94,6,9,Ticks_ISO_T2_8,1,5,42,127,563164632
94,6,9,Ticks_ISO_T2_8,2,5,42,127,563965212
94,6,9,Ticks_ISO_T2_8,3,1,48,49,564053820
94,6,9,Ticks_ISO_T2_8,4,1,48,52,564723092
94,6,9,Ticks_ISO_T2_8,5,1,48,38,564764316
94,6,9,Ticks_ISO_T2_8,6,5,42,127,564765508
94,6,9,Ticks_ISO_T2_8,7,1,48,51,565512260
94,6,9,Ticks_ISO_T2_8,8,5,42,127,565564724
94,6,9,Ticks_ISO_T2_8,9,1,48,54,566303312
94,6,9,Ticks_ISO_T2_8,10,1,48,38,566346596
94,6,9,Ticks_ISO_T2_8,11,5,42,127,566364656
94,6,9,Ticks_ISO_T2_8,12,1,48,50,567100632
94,6,9,Ticks_ISO_T2_8,13,5,42,127,567165140
94,6,9,Ticks_ISO_T2_8,14,1,48,41,567902536
94,6,9,Ticks_ISO_T2_8,15,5,42,127,567965100
94,6,9,Ticks_ISO_T2_8,16,1,48,51,568749016
94,6,9,Ticks_ISO_T2_8,17,5,42,127,568764708
94,6,9,Ticks_ISO_T2_8,18,1,48,55,569521452
94,6,9,Ticks_ISO_T2_8,19,5,42,127,569564516
94,6,9,Ticks_ISO_T2_8,20,1,48,52,570324496
94,6,9,Ticks_ISO_T2_8,21,5,42,127,570365220
94,6,9,Ticks_ISO_T2_8,22,1,48,51,571163220
94,6,9,Ticks_ISO_T2_8,23,5,42,127,571165028
94,6,9,Ticks_ISO_T2_8,24,1,48,45,571939228
94,6,9,Ticks_ISO_T2_8,25,5,42,127,571964764
94,6,9,Ticks_ISO_T2_8,26,1,48,51,572719736
94,6,9,Ticks_ISO_T2_8,27,5,42,127,572764648
94,6,9,Ticks_ISO_T2_8,28,1,48,48,573452224
94,6,9,Ticks_ISO_T2_8,29,5,42,127,573565560
94,6,9,Ticks_ISO_T2_8,30,1,48,50,574317636
94,6,9,Ticks_ISO_T2_8,31,5,42,127,574365088
94,6,9,Ticks_ISO_T2_8,32,1,48,51,575140700
94,6,9,Ticks_ISO_T2_8,33,5,42,127,575164772
94,6,9,Ticks_ISO_T2_8,34,1,48,52,575923780
94,6,9,Ticks_ISO_T2_8,35,5,42,127,575964504
94,6,9,Ticks_ISO_T2_8,36,1,48,52,576692696
94,6,9,Ticks_ISO_T2_8,37,5,42,127,576765360
94,6,9,Ticks_ISO_T2_8,38,1,48,55,577492804
94,6,9,Ticks_ISO_T2_8,39,5,42,127,577564944
94,6,9,Ticks_ISO_T2_8,40,1,48,59,578302412
94,6,9,Ticks_ISO_T2_8,41,5,42,127,578364752
94,6,9,Ticks_ISO_T2_8,42,1,48,51,579107532
94,6,9,Ticks_ISO_T2_8,43,5,42,127,579164708
94,6,9,Ticks_ISO_T2_8,44,1,48,43,579861788
94,6,9,Ticks_ISO_T2_8,45,5,42,127,579965400
94,6,9,Ticks_ISO_T2_8,46,1,48,47,580683584
94,6,9,Ticks_ISO_T2_8,47,5,42,127,580764924
94,6,9,Ticks_ISO_T2_8,48,1,48,44,581492296
94,6,9,Ticks_ISO_T2_8,49,5,42,127,581564760
94,6,9,Ticks_ISO_T2_8,50,1,48,44,582283876
94,6,9,Ticks_ISO_T2_8,51,5,42,127,582364716
94,6,9,Ticks_ISO_T2_8,52,1,48,45,583159256
94,6,9,Ticks_ISO_T2_8,53,5,42,127,583165272
94,6,9,Ticks_ISO_T2_8,54,1,48,45,583911796
94,6,9,Ticks_ISO_T2_8,55,5,42,127,583965156
94,6,9,Ticks_ISO_T2_8,56,1,48,43,584704344
94,6,9,Ticks_ISO_T2_8,57,5,42,127,584764812
94,6,9,Ticks_ISO_T2_8,58,1,48,37,585553668
94,6,9,Ticks_ISO_T2_8,59,5,42,127,585564696
94,6,9,Ticks_ISO_T2_8,60,1,48,43,586289076
94,6,9,Ticks_ISO_T2_8,61,5,42,127,586365252
94,6,9,Ticks_ISO_T2_8,62,1,48,48,587063152
94,6,9,Ticks_ISO_T2_8,63,5,42,127,587164972
94,6,9,Ticks_ISO_T2_8,64,1,48,49,587902160
94,6,9,Ticks_ISO_T2_8,65,5,42,127,587964672
94,6,9,Ticks_ISO_T2_8,66,1,48,53,588727944
94,6,9,Ticks_ISO_T2_8,67,5,42,127,588764628
94,6,9,Ticks_ISO_T2_8,68,1,48,44,589517208
94,6,9,Ticks_ISO_T2_8,69,5,42,127,589565408
94,6,9,Ticks_ISO_T2_8,70,1,48,53,590356956
94,6,9,Ticks_ISO_T2_8,71,5,42,127,590365064
94,6,9,Ticks_ISO_T2_8,72,1,48,49,591140756
94,6,9,Ticks_ISO_T2_8,73,5,42,127,591164724
94,6,9,Ticks_ISO_T2_8,74,5,42,127,591964468
94,6,9,Ticks_ISO_T2_8,75,1,48,43,591973720
94,6,9,Ticks_ISO_T2_8,76,1,48,50,592710304
94,6,9,Ticks_ISO_T2_8,77,5,42,127,592765388
94,6,9,Ticks_ISO_T2_8,78,1,48,59,593557012
94,6,9,Ticks_ISO_T2_8,79,5,42,127,593565196
94,6,9,Ticks_ISO_T2_8,80,1,48,54,594276492
94,6,9,Ticks_ISO_T2_8,81,5,42,127,594364804
94,6,9,Ticks_ISO_T2_8,82,1,48,53,595016156
94,6,9,Ticks_ISO_T2_8,83,5,42,127,595164524
94,6,9,Ticks_ISO_T2_8,84,1,48,41,595918468
94,6,9,Ticks_ISO_T2_8,85,5,42,127,595965544
94,6,9,Ticks_ISO_T2_8,86,1,48,51,596757844
94,6,9,Ticks_ISO_T2_8,87,5,42,127,596765056
94,6,9,Ticks_ISO_T2_8,88,5,42,127,597564868
94,6,9,Ticks_ISO_T2_8,89,1,48,46,597587364
94,6,9,Ticks_ISO_T2_8,90,5,42,127,598364452
94,6,9,Ticks_ISO_T2_8,91,1,48,47,598378796
94,6,9,Ticks_ISO_T2_8,92,5,42,127,599165608
94,6,9,Ticks_ISO_T2_8,93,1,48,48,599208972
94,6,9,Ticks_ISO_T2_8,94,1,48,44,599920948
94,6,9,Ticks_ISO_T2_8,95,5,42,127,599964960
94,6,9,Ticks_ISO_T2_8,96,1,48,50,600708788
94,6,9,Ticks_ISO_T2_8,97,5,42,127,600764720
94,6,9,Ticks_ISO_T2_8,98,1,48,43,601536748
94,6,9,Ticks_ISO_T2_8,99,5,42,127,601564452
94,6,9,Ticks_ISO_T2_8,100,1,48,53,602360188
94,6,9,Ticks_ISO_T2_8,101,5,42,127,602365528
94,6,9,Ticks_ISO_T2_8,102,1,48,49,603130748
94,6,9,Ticks_ISO_T2_8,103,5,42,127,603164892
94,6,9,Ticks_ISO_T2_8,104,1,48,51,603922484
94,6,9,Ticks_ISO_T2_8,105,5,42,127,603964776
94,6,9,Ticks_ISO_T2_8,106,1,48,40,604740620
94,6,9,Ticks_ISO_T2_8,107,5,42,127,604764584
94,6,9,Ticks_ISO_T2_8,108,1,48,53,605532644
94,6,9,Ticks_ISO_T2_8,109,5,42,127,605565364
94,6,9,Ticks_ISO_T2_8,110,1,48,46,606286376
94,6,9,Ticks_ISO_T2_8,111,5,42,127,606365024
94,6,9,Ticks_ISO_T2_8,112,1,48,47,607121716
94,6,9,Ticks_ISO_T2_8,113,5,42,127,607164632
94,6,9,Ticks_ISO_T2_8,114,1,48,47,607962328
94,6,9,Ticks_ISO_T2_8,115,5,42,127,607964440
94,6,9,Ticks_ISO_T2_8,116,1,48,50,608711112
94,6,9,Ticks_ISO_T2_8,117,5,42,127,608765296
94,6,9,Ticks_ISO_T2_8,118,1,48,53,609475460
94,6,9,Ticks_ISO_T2_8,119,5,42,127,609564956
94,6,9,Ticks_ISO_T2_8,120,1,48,49,610266376
94,6,9,Ticks_ISO_T2_8,121,5,42,127,610364748
94,6,9,Ticks_ISO_T2_8,122,1,48,43,611076656
94,6,9,Ticks_ISO_T2_8,123,5,42,127,611164572
94,6,9,Ticks_ISO_T2_8,124,1,48,48,611956492
94,6,9,Ticks_ISO_T2_8,125,5,42,127,611965504
94,6,9,Ticks_ISO_T2_8,126,1,48,44,612702076
94,6,9,Ticks_ISO_T2_8,127,5,42,127,612764940
94,6,9,Ticks_ISO_T2_8,128,1,48,50,613465384
94,6,9,Ticks_ISO_T2_8,129,5,42,127,613564904
94,6,9,Ticks_ISO_T2_8,130,1,48,40,614315304
94,6,9,Ticks_ISO_T2_8,131,5,42,127,614364504
94,6,9,Ticks_ISO_T2_8,132,1,48,44,615158372
94,6,9,Ticks_ISO_T2_8,133,5,42,127,615165284
94,6,9,Ticks_ISO_T2_8,134,1,48,39,615860272
94,6,9,Ticks_ISO_T2_8,135,5,42,127,615965004
94,6,9,Ticks_ISO_T2_8,136,1,48,43,616722156
94,6,9,Ticks_ISO_T2_8,137,5,42,127,616764752
94,6,9,Ticks_ISO_T2_8,138,1,48,41,617524060
94,6,9,Ticks_ISO_T2_8,139,5,42,127,617564484
94,6,9,Ticks_ISO_T2_8,140,1,48,54,618335832
94,6,9,Ticks_ISO_T2_8,141,5,42,127,618365188
94,6,9,Ticks_ISO_T2_8,142,1,48,40,619100716
94,6,9,Ticks_ISO_T2_8,143,5,42,127,619165148
94,6,9,Ticks_ISO_T2_8,144,1,48,57,619893340
94,6,9,Ticks_ISO_T2_8,145,5,42,127,619964832
94,6,9,Ticks_ISO_T2_8,146,1,48,51,620687692
94,6,9,Ticks_ISO_T2_8,147,5,42,127,620764488
94,6,9,Ticks_ISO_T2_8,148,1,48,51,621544596
94,6,9,Ticks_ISO_T2_8,149,5,42,127,621565268
94,6,9,Ticks_ISO_T2_8,150,1,48,40,622288528
94,6,9,Ticks_ISO_T2_8,151,5,42,127,622365152
94,6,9,Ticks_ISO_T2_8,152,1,48,47,623131492
94,6,9,Ticks_ISO_T2_8,153,5,42,127,623164736
94,6,9,Ticks_ISO_T2_8,154,1,48,42,623874604
94,6,9,Ticks_ISO_T2_8,155,5,42,127,623964472
94,6,9,Ticks_ISO_T2_8,156,1,48,50,624647788
94,6,9,Ticks_ISO_T2_8,157,5,42,127,624765460
94,6,9,Ticks_ISO_T2_8,158,1,48,41,625474820
94,6,9,Ticks_ISO_T2_8,159,5,42,127,625565132
94,6,9,Ticks_ISO_T2_8,160,1,48,46,626252784
94,6,9,Ticks_ISO_T2_8,161,5,42,127,626364876
94,6,9,Ticks_ISO_T2_8,162,1,48,41,627116996
94,6,9,Ticks_ISO_T2_8,163,5,42,127,627164552
94,6,9,Ticks_ISO_T2_8,164,1,48,46,627906664
94,6,9,Ticks_ISO_T2_8,165,5,42,127,627965332
94,6,9,Ticks_ISO_T2_8,166,1,48,40,628716868
94,6,9,Ticks_ISO_T2_8,167,5,42,127,628765212
94,6,9,Ticks_ISO_T2_8,168,1,48,49,629472240
94,6,9,Ticks_ISO_T2_8,169,5,42,127,629564800
94,6,9,Ticks_ISO_T2_8,170,1,48,46,630275340
94,6,9,Ticks_ISO_T2_8,171,5,42,127,630364604
94,6,9,Ticks_ISO_T2_8,172,1,48,41,631092728
94,6,9,Ticks_ISO_T2_8,173,5,42,127,631165312
94,6,9,Ticks_ISO_T2_8,174,1,48,42,631920584
94,6,9,Ticks_ISO_T2_8,175,5,42,127,631965268
94,6,9,Ticks_ISO_T2_8,176,1,48,49,632759984
94,6,9,Ticks_ISO_T2_8,177,5,42,127,632764728
94,6,9,Ticks_ISO_T2_8,178,1,48,51,633491704
94,6,9,Ticks_ISO_T2_8,179,5,42,127,633564612
94,6,9,Ticks_ISO_T2_8,180,1,48,51,634322648
94,6,9,Ticks_ISO_T2_8,181,5,42,127,634365240
94,6,9,Ticks_ISO_T2_8,182,1,48,49,635081096
94,6,9,Ticks_ISO_T2_8,183,5,42,127,635165196
94,6,9,Ticks_ISO_T2_8,184,1,48,49,635876332
94,6,9,Ticks_ISO_T2_8,185,5,42,127,635964708
94,6,9,Ticks_ISO_T2_8,186,1,48,48,636746756
94,6,9,Ticks_ISO_T2_8,187,5,42,127,636764440
94,6,9,Ticks_ISO_T2_8,188,5,42,127,637565228
94,6,9,Ticks_ISO_T2_8,189,1,48,39,637614424
94,6,9,Ticks_ISO_T2_8,190,5,42,127,638365256
94,6,9,Ticks_ISO_T2_8,191,1,48,47,638468188
94,6,9,Ticks_ISO_T2_8,192,1,48,34,639146032
94,6,9,Ticks_ISO_T2_8,193,5,42,127,639164712
94,6,9,Ticks_ISO_T2_8,194,1,48,39,639957756
94,6,9,Ticks_ISO_T2_8,195,5,42,127,639964520
94,6,9,Ticks_ISO_T2_8,196,1,48,47,640732284
94,6,9,Ticks_ISO_T2_8,197,5,42,127,640765376
94,6,9,Ticks_ISO_T2_8,198,1,48,48,641497316
94,6,9,Ticks_ISO_T2_8,199,5,42,127,641564960
94,6,9,Ticks_ISO_T2_8,200,1,48,54,642349404
94,6,9,Ticks_ISO_T2_8,201,5,42,127,642365064
94,6,9,Ticks_ISO_T2_8,202,5,42,127,643164508
94,6,9,Ticks_ISO_T2_8,203,1,48,47,643169352
94,6,9,Ticks_ISO_T2_8,204,1,48,51,643873620
94,6,9,Ticks_ISO_T2_8,205,5,42,127,643965432
94,6,9,Ticks_ISO_T2_8,206,1,48,53,644696768
94,6,9,Ticks_ISO_T2_8,207,5,42,127,644765016
94,6,9,Ticks_ISO_T2_8,208,1,48,52,645527768
94,6,9,Ticks_ISO_T2_8,209,5,42,127,645564848
94,6,9,Ticks_ISO_T2_8,210,1,48,51,646338440
94,6,9,Ticks_ISO_T2_8,211,5,42,127,646364504
94,6,9,Ticks_ISO_T2_8,212,1,48,57,647096136
94,6,9,Ticks_ISO_T2_8,213,5,42,127,647165288
94,6,9,Ticks_ISO_T2_8,214,1,48,52,647880020
94,6,9,Ticks_ISO_T2_8,215,5,42,127,647964944
94,6,9,Ticks_ISO_T2_8,216,1,48,47,648658960
94,6,9,Ticks_ISO_T2_8,217,5,42,127,648764812
94,6,9,Ticks_ISO_T2_8,218,1,48,51,649542840
94,6,9,Ticks_ISO_T2_8,219,5,42,127,649564488
94,6,9,Ticks_ISO_T2_8,220,1,48,65,650342120
94,6,9,Ticks_ISO_T2_8,221,5,42,127,650365340
94,6,9,Ticks_ISO_T2_8,222,1,48,51,651102884
94,6,9,Ticks_ISO_T2_8,223,5,42,127,651165000
94,6,9,Ticks_ISO_T2_8,224,1,48,51,651944132
94,6,9,Ticks_ISO_T2_8,225,5,42,127,651964908
94,6,9,Ticks_ISO_T2_8,226,1,48,35,651984992
94,6,9,Ticks_ISO_T2_8,227,5,42,127,652764476
94,6,9,Ticks_ISO_T2_8,228,1,48,48,652796612
94,6,9,Ticks_ISO_T2_8,229,1,48,30,652845364
94,6,9,Ticks_ISO_T2_8,230,5,42,127,653565160
94,6,9,Ticks_ISO_T2_8,231,1,48,46,653652352
94,6,9,Ticks_ISO_T2_8,232,1,48,30,653703344
94,6,9,Ticks_ISO_T2_8,233,5,42,127,654365020
94,6,9,Ticks_ISO_T2_8,234,1,48,51,654450192
94,6,9,Ticks_ISO_T2_8,235,1,48,54,655096720
94,6,9,Ticks_ISO_T2_8,236,5,42,127,655164896
94,6,9,Ticks_ISO_T2_8,237,1,48,42,655892192
94,6,9,Ticks_ISO_T2_8,238,5,42,127,655964484
94,6,9,Ticks_ISO_T2_8,239,1,48,49,656756696
94,6,9,Ticks_ISO_T2_8,240,5,42,127,656765336
94,6,9,Ticks_ISO_T2_8,241,1,48,33,657470944
94,6,9,Ticks_ISO_T2_8,242,5,42,127,657565072
94,6,9,Ticks_ISO_T2_8,243,1,48,50,658285184
94,6,9,Ticks_ISO_T2_8,0,9999,9999,9999,562362440
94,6,9,Ticks_ISO_T2_8,1,9999,9999,9999,563162196
94,6,9,Ticks_ISO_T2_8,2,9999,9999,9999,563962996
94,6,9,Ticks_ISO_T2_8,3,9999,9999,9999,564762740
94,6,9,Ticks_ISO_T2_8,4,9999,9999,9999,565562436
94,6,9,Ticks_ISO_T2_8,5,9999,9999,9999,566362220
94,6,9,Ticks_ISO_T2_8,6,9999,9999,9999,567162928
94,6,9,Ticks_ISO_T2_8,7,9999,9999,9999,567962736
94,6,9,Ticks_ISO_T2_8,8,9999,9999,9999,568762420
94,6,9,Ticks_ISO_T2_8,9,9999,9999,9999,569562228
94,6,9,Ticks_ISO_T2_8,10,9999,9999,9999,570362932
94,6,9,Ticks_ISO_T2_8,11,9999,9999,9999,571162692
94,6,9,Ticks_ISO_T2_8,12,9999,9999,9999,571962476
94,6,9,Ticks_ISO_T2_8,13,9999,9999,9999,572762212
94,6,9,Ticks_ISO_T2_8,14,9999,9999,9999,573562976
94,6,9,Ticks_ISO_T2_8,15,9999,9999,9999,574362724
94,6,9,Ticks_ISO_T2_8,16,9999,9999,9999,575162484
94,6,9,Ticks_ISO_T2_8,17,9999,9999,9999,575962216
94,6,9,Ticks_ISO_T2_8,18,9999,9999,9999,576762996
94,6,9,Ticks_ISO_T2_8,19,9999,9999,9999,577562732
94,6,9,Ticks_ISO_T2_8,20,9999,9999,9999,578362464
94,6,9,Ticks_ISO_T2_8,21,9999,9999,9999,579162200
94,6,9,Ticks_ISO_T2_8,22,9999,9999,9999,579962964
94,6,9,Ticks_ISO_T2_8,23,9999,9999,9999,580762712
94,6,9,Ticks_ISO_T2_8,24,9999,9999,9999,581562472
94,6,9,Ticks_ISO_T2_8,25,9999,9999,9999,582362204
94,6,9,Ticks_ISO_T2_8,26,9999,9999,9999,583162984
94,6,9,Ticks_ISO_T2_8,27,9999,9999,9999,583962720
94,6,9,Ticks_ISO_T2_8,28,9999,9999,9999,584762452
94,6,9,Ticks_ISO_T2_8,29,9999,9999,9999,585562184
94,6,9,Ticks_ISO_T2_8,30,9999,9999,9999,586362964
94,6,9,Ticks_ISO_T2_8,31,9999,9999,9999,587162684
94,6,9,Ticks_ISO_T2_8,32,9999,9999,9999,587962456
94,6,9,Ticks_ISO_T2_8,33,9999,9999,9999,588762188
94,6,9,Ticks_ISO_T2_8,34,9999,9999,9999,589562972
94,6,9,Ticks_ISO_T2_8,35,9999,9999,9999,590362704
94,6,9,Ticks_ISO_T2_8,36,9999,9999,9999,591162440
94,6,9,Ticks_ISO_T2_8,37,9999,9999,9999,591962176
94,6,9,Ticks_ISO_T2_8,38,9999,9999,9999,592762952
94,6,9,Ticks_ISO_T2_8,39,9999,9999,9999,593562684
94,6,9,Ticks_ISO_T2_8,40,9999,9999,9999,594362444
94,6,9,Ticks_ISO_T2_8,41,9999,9999,9999,595162160
94,6,9,Ticks_ISO_T2_8,42,9999,9999,9999,595962960
94,6,9,Ticks_ISO_T2_8,43,9999,9999,9999,596762692
94,6,9,Ticks_ISO_T2_8,44,9999,9999,9999,597562432
94,6,9,Ticks_ISO_T2_8,45,9999,9999,9999,598362164
94,6,9,Ticks_ISO_T2_8,46,9999,9999,9999,599162948
94,6,9,Ticks_ISO_T2_8,47,9999,9999,9999,599962672
94,6,9,Ticks_ISO_T2_8,48,9999,9999,9999,600762432
94,6,9,Ticks_ISO_T2_8,49,9999,9999,9999,601562164
94,6,9,Ticks_ISO_T2_8,50,9999,9999,9999,602362944
94,6,9,Ticks_ISO_T2_8,51,9999,9999,9999,603162680
94,6,9,Ticks_ISO_T2_8,52,9999,9999,9999,603962488
94,6,9,Ticks_ISO_T2_8,53,9999,9999,9999,604762220
94,6,9,Ticks_ISO_T2_8,54,9999,9999,9999,605562924
94,6,9,Ticks_ISO_T2_8,55,9999,9999,9999,606362732
94,6,9,Ticks_ISO_T2_8,56,9999,9999,9999,607162420
94,6,9,Ticks_ISO_T2_8,57,9999,9999,9999,607962192
94,6,9,Ticks_ISO_T2_8,58,9999,9999,9999,608762932
94,6,9,Ticks_ISO_T2_8,59,9999,9999,9999,609562744
94,6,9,Ticks_ISO_T2_8,60,9999,9999,9999,610362476
94,6,9,Ticks_ISO_T2_8,61,9999,9999,9999,611162212
94,6,9,Ticks_ISO_T2_8,62,9999,9999,9999,611962992
94,6,9,Ticks_ISO_T2_8,63,9999,9999,9999,612762724
94,6,9,Ticks_ISO_T2_8,64,9999,9999,9999,613562468
94,6,9,Ticks_ISO_T2_8,65,9999,9999,9999,614362216
94,6,9,Ticks_ISO_T2_8,66,9999,9999,9999,615162996
94,6,9,Ticks_ISO_T2_8,67,9999,9999,9999,615962716
94,6,9,Ticks_ISO_T2_8,68,9999,9999,9999,616762464
94,6,9,Ticks_ISO_T2_8,69,9999,9999,9999,617562196
94,6,9,Ticks_ISO_T2_8,70,9999,9999,9999,618362976
94,6,9,Ticks_ISO_T2_8,71,9999,9999,9999,619162708
94,6,9,Ticks_ISO_T2_8,72,9999,9999,9999,619962468
94,6,9,Ticks_ISO_T2_8,73,9999,9999,9999,620762204
94,6,9,Ticks_ISO_T2_8,74,9999,9999,9999,621562980
94,6,9,Ticks_ISO_T2_8,75,9999,9999,9999,622362716
94,6,9,Ticks_ISO_T2_8,76,9999,9999,9999,623162448
94,6,9,Ticks_ISO_T2_8,77,9999,9999,9999,623962184
94,6,9,Ticks_ISO_T2_8,78,9999,9999,9999,624762948
94,6,9,Ticks_ISO_T2_8,79,9999,9999,9999,625562696
94,6,9,Ticks_ISO_T2_8,80,9999,9999,9999,626362440
94,6,9,Ticks_ISO_T2_8,81,9999,9999,9999,627162192
94,6,9,Ticks_ISO_T2_8,82,9999,9999,9999,627962972
94,6,9,Ticks_ISO_T2_8,83,9999,9999,9999,628762704
94,6,9,Ticks_ISO_T2_8,84,9999,9999,9999,629562436
94,6,9,Ticks_ISO_T2_8,85,9999,9999,9999,630362168
94,6,9,Ticks_ISO_T2_8,86,9999,9999,9999,631162952
94,6,9,Ticks_ISO_T2_8,87,9999,9999,9999,631962684
94,6,9,Ticks_ISO_T2_8,88,9999,9999,9999,632762440
94,6,9,Ticks_ISO_T2_8,89,9999,9999,9999,633562176
94,6,9,Ticks_ISO_T2_8,90,9999,9999,9999,634362952
94,6,9,Ticks_ISO_T2_8,91,9999,9999,9999,635162688
94,6,9,Ticks_ISO_T2_8,92,9999,9999,9999,635962420
94,6,9,Ticks_ISO_T2_8,93,9999,9999,9999,636762228
94,6,9,Ticks_ISO_T2_8,94,9999,9999,9999,637562940
94,6,9,Ticks_ISO_T2_8,95,9999,9999,9999,638362672
94,6,9,Ticks_ISO_T2_8,96,9999,9999,9999,639162424
94,6,9,Ticks_ISO_T2_8,97,9999,9999,9999,639962160
94,6,9,Ticks_ISO_T2_8,98,9999,9999,9999,640762940
94,6,9,Ticks_ISO_T2_8,99,9999,9999,9999,641562672
94,6,9,Ticks_ISO_T2_8,100,9999,9999,9999,642362480
94,6,9,Ticks_ISO_T2_8,101,9999,9999,9999,643162220
94,6,9,Ticks_ISO_T2_8,102,9999,9999,9999,643962996
94,6,9,Ticks_ISO_T2_8,103,9999,9999,9999,644762728
94,6,9,Ticks_ISO_T2_8,104,9999,9999,9999,645562484
94,6,9,Ticks_ISO_T2_8,105,9999,9999,9999,646362216
94,6,9,Ticks_ISO_T2_8,106,9999,9999,9999,647162996
94,6,9,Ticks_ISO_T2_8,107,9999,9999,9999,647962732
94,6,9,Ticks_ISO_T2_8,108,9999,9999,9999,648762452
94,6,9,Ticks_ISO_T2_8,109,9999,9999,9999,649562200
94,6,9,Ticks_ISO_T2_8,110,9999,9999,9999,650362980
94,6,9,Ticks_ISO_T2_8,111,9999,9999,9999,651162712
94,6,9,Ticks_ISO_T2_8,112,9999,9999,9999,651962472
94,6,9,Ticks_ISO_T2_8,113,9999,9999,9999,652762188
94,6,9,Ticks_ISO_T2_8,114,9999,9999,9999,653562944
94,6,9,Ticks_ISO_T2_8,115,9999,9999,9999,654362732
94,6,9,Ticks_ISO_T2_8,116,9999,9999,9999,655162460
94,6,9,Ticks_ISO_T2_8,117,9999,9999,9999,655962192
94,6,9,Ticks_ISO_T2_8,118,9999,9999,9999,656762972
94,6,9,Ticks_ISO_T2_8,119,9999,9999,9999,657562708
94,7,23,Ticks_Phase_5,0,5,42,127,668436012
94,7,23,Ticks_Phase_5,1,5,42,127,668935424
94,7,23,Ticks_Phase_5,2,5,42,127,669436328
94,7,23,Ticks_Phase_5,3,5,42,127,669935888
94,7,23,Ticks_Phase_5,4,1,48,56,670401860
94,7,23,Ticks_Phase_5,5,5,42,127,670435964
94,7,23,Ticks_Phase_5,6,1,48,51,670901400
94,7,23,Ticks_Phase_5,7,5,42,127,670936404
94,7,23,Ticks_Phase_5,8,1,48,49,671439884
94,7,23,Ticks_Phase_5,9,5,42,127,671446428
94,7,23,Ticks_Phase_5,10,1,48,51,671908760
94,7,23,Ticks_Phase_5,11,5,42,127,671946036
94,7,23,Ticks_Phase_5,12,1,48,50,672423420
94,7,23,Ticks_Phase_5,13,5,42,127,672445872
94,7,23,Ticks_Phase_5,14,1,48,32,672472268
94,7,23,Ticks_Phase_5,15,1,48,49,672939792
94,7,23,Ticks_Phase_5,16,5,42,127,672945616
94,7,23,Ticks_Phase_5,17,5,42,127,673446332
94,7,23,Ticks_Phase_5,18,1,48,50,673450720
94,7,23,Ticks_Phase_5,19,1,48,52,673938416
94,7,23,Ticks_Phase_5,20,5,42,127,673945940
94,7,23,Ticks_Phase_5,21,1,48,51,674437884
94,7,23,Ticks_Phase_5,22,5,42,127,674445628
94,7,23,Ticks_Phase_5,23,5,42,127,674946520
94,7,23,Ticks_Phase_5,24,1,48,48,674967536
94,7,23,Ticks_Phase_5,25,5,42,127,675456320
94,7,23,Ticks_Phase_5,26,1,48,49,675473356
94,7,23,Ticks_Phase_5,27,5,42,127,675956152
94,7,23,Ticks_Phase_5,28,1,48,49,675985788
94,7,23,Ticks_Phase_5,29,5,42,127,676455764
94,7,23,Ticks_Phase_5,30,1,48,53,676459636
94,7,23,Ticks_Phase_5,31,1,48,53,676947408
94,7,23,Ticks_Phase_5,32,5,42,127,676955520
94,7,23,Ticks_Phase_5,33,1,48,37,676983036
94,7,23,Ticks_Phase_5,34,1,48,49,677442196
94,7,23,Ticks_Phase_5,35,5,42,127,677456236
94,7,23,Ticks_Phase_5,36,1,48,55,677914336
94,7,23,Ticks_Phase_5,37,5,42,127,677955924
94,7,23,Ticks_Phase_5,38,5,42,127,678455768
94,7,23,Ticks_Phase_5,39,1,48,51,678466832
94,7,23,Ticks_Phase_5,40,1,48,43,678945312
94,7,23,Ticks_Phase_5,41,5,42,127,678956276
94,7,23,Ticks_Phase_5,42,1,48,48,679433396
94,7,23,Ticks_Phase_5,43,5,42,127,679456108
94,7,23,Ticks_Phase_5,44,1,48,46,679947008
94,7,23,Ticks_Phase_5,45,5,42,127,679955872
94,7,23,Ticks_Phase_5,46,1,48,52,680433432
94,7,23,Ticks_Phase_5,47,5,42,127,680455564
94,7,23,Ticks_Phase_5,48,1,48,54,680935608
94,7,23,Ticks_Phase_5,49,5,42,127,680956300
94,7,23,Ticks_Phase_5,50,1,48,55,681421652
94,7,23,Ticks_Phase_5,51,5,42,127,681456060
94,7,23,Ticks_Phase_5,52,1,48,59,681899456
94,7,23,Ticks_Phase_5,53,5,42,127,681955972
94,7,23,Ticks_Phase_5,54,1,48,55,682395624
94,7,23,Ticks_Phase_5,55,1,48,34,682438840
94,7,23,Ticks_Phase_5,56,5,42,127,682456392
94,7,23,Ticks_Phase_5,57,1,48,62,682848636
94,7,23,Ticks_Phase_5,58,5,42,127,682966772
94,7,23,Ticks_Phase_5,59,1,48,48,683404044
94,7,23,Ticks_Phase_5,60,5,42,127,683455992
94,7,23,Ticks_Phase_5,61,1,48,47,683950232
94,7,23,Ticks_Phase_5,62,5,42,127,683955800
94,7,23,Ticks_Phase_5,63,5,42,127,684456520
94,7,23,Ticks_Phase_5,64,1,48,55,684479812
94,7,23,Ticks_Phase_5,65,5,42,127,684956060
94,7,23,Ticks_Phase_5,66,1,48,51,684995300
94,7,23,Ticks_Phase_5,67,1,48,43,685395056
94,7,23,Ticks_Phase_5,68,5,42,127,685455812
94,7,23,Ticks_Phase_5,69,5,42,127,685955660
94,7,23,Ticks_Phase_5,70,1,48,46,685990008
94,7,23,Ticks_Phase_5,71,5,42,127,686456096
94,7,23,Ticks_Phase_5,72,1,48,52,686473896
94,7,23,Ticks_Phase_5,73,5,42,127,686956008
94,7,23,Ticks_Phase_5,74,1,48,46,686995300
94,7,23,Ticks_Phase_5,75,5,42,127,687455844
94,7,23,Ticks_Phase_5,76,1,48,41,687520972
94,7,23,Ticks_Phase_5,77,5,42,127,687956504
94,7,23,Ticks_Phase_5,78,1,48,43,688046352
94,7,23,Ticks_Phase_5,79,5,42,127,688456168
94,7,23,Ticks_Phase_5,80,1,48,48,688542184
94,7,23,Ticks_Phase_5,81,5,42,127,688955856
94,7,23,Ticks_Phase_5,82,1,48,44,688991772
94,7,23,Ticks_Phase_5,83,1,48,44,689437012
94,7,23,Ticks_Phase_5,84,5,42,127,689455684
94,7,23,Ticks_Phase_5,85,1,48,48,689903068
94,7,23,Ticks_Phase_5,86,5,42,127,689956196
94,7,23,Ticks_Phase_5,87,1,48,41,690402384
94,7,23,Ticks_Phase_5,88,5,42,127,690455888
94,7,23,Ticks_Phase_5,89,1,48,41,690920796
94,7,23,Ticks_Phase_5,90,5,42,127,690955872
94,7,23,Ticks_Phase_5,91,1,48,43,691404992
94,7,23,Ticks_Phase_5,92,5,42,127,691456388
94,7,23,Ticks_Phase_5,93,1,48,39,691948480
94,7,23,Ticks_Phase_5,94,5,42,127,691956224
94,7,23,Ticks_Phase_5,95,1,48,38,692431468
94,7,23,Ticks_Phase_5,96,5,42,127,692466028
94,7,23,Ticks_Phase_5,97,5,42,127,692965796
94,7,23,Ticks_Phase_5,98,1,48,47,693008460
94,7,23,Ticks_Phase_5,99,1,48,22,693080996
94,7,23,Ticks_Phase_5,100,1,48,41,693445136
94,7,23,Ticks_Phase_5,101,5,42,127,693465680
94,7,23,Ticks_Phase_5,102,5,42,127,693966200
94,7,23,Ticks_Phase_5,103,1,48,43,693968720
94,7,23,Ticks_Phase_5,104,1,48,43,694449304
94,7,23,Ticks_Phase_5,105,5,42,127,694465956
94,7,23,Ticks_Phase_5,106,1,48,44,694921172
94,7,23,Ticks_Phase_5,107,5,42,127,694965864
94,7,23,Ticks_Phase_5,108,1,48,46,695412548
94,7,23,Ticks_Phase_5,109,5,42,127,695466428
94,7,23,Ticks_Phase_5,110,1,48,48,695919352
94,7,23,Ticks_Phase_5,111,5,42,127,695966040
94,7,23,Ticks_Phase_5,112,1,48,47,696431024
94,7,23,Ticks_Phase_5,113,5,42,127,696465876
94,7,23,Ticks_Phase_5,114,1,48,51,696911092
94,7,23,Ticks_Phase_5,115,5,42,127,696965864
94,7,23,Ticks_Phase_5,116,1,48,51,697453748
94,7,23,Ticks_Phase_5,117,5,42,127,697466348
94,7,23,Ticks_Phase_5,118,1,48,52,697942712
94,7,23,Ticks_Phase_5,119,5,42,127,697965964
94,7,23,Ticks_Phase_5,120,1,48,47,698455740
94,7,23,Ticks_Phase_5,121,5,42,127,698465800
94,7,23,Ticks_Phase_5,122,1,48,48,698954156
94,7,23,Ticks_Phase_5,123,5,42,127,698966464
94,7,23,Ticks_Phase_5,124,1,48,52,699462368
94,7,23,Ticks_Phase_5,125,5,42,127,699466076
94,7,23,Ticks_Phase_5,126,5,42,127,699965844
94,7,23,Ticks_Phase_5,127,1,48,49,699987092
94,7,23,Ticks_Phase_5,128,1,48,54,700416524
94,7,23,Ticks_Phase_5,129,5,42,127,700485896
94,7,23,Ticks_Phase_5,130,1,48,54,700958072
94,7,23,Ticks_Phase_5,131,5,42,127,700985808
94,7,23,Ticks_Phase_5,132,1,48,51,701432144
94,7,23,Ticks_Phase_5,133,5,42,127,701485720
94,7,23,Ticks_Phase_5,134,1,48,56,701943660
94,7,23,Ticks_Phase_5,135,5,42,127,701986012
94,7,23,Ticks_Phase_5,136,1,48,37,702004472
94,7,23,Ticks_Phase_5,137,1,48,48,702433300
94,7,23,Ticks_Phase_5,138,5,42,127,702485828
94,7,23,Ticks_Phase_5,139,1,48,48,702963236
94,7,23,Ticks_Phase_5,140,5,42,127,702985740
94,7,23,Ticks_Phase_5,141,1,48,39,703460232
94,7,23,Ticks_Phase_5,142,5,42,127,703486176
94,7,23,Ticks_Phase_5,143,1,48,43,703951308
94,7,23,Ticks_Phase_5,144,5,42,127,703986088
94,7,23,Ticks_Phase_5,145,1,48,45,704462080
94,7,23,Ticks_Phase_5,146,5,42,127,704485704
94,7,23,Ticks_Phase_5,147,1,48,43,704963188
94,7,23,Ticks_Phase_5,148,5,42,127,704985764
94,7,23,Ticks_Phase_5,149,1,48,48,705441432
94,7,23,Ticks_Phase_5,150,5,42,127,705486272
94,7,23,Ticks_Phase_5,151,5,42,127,705985820
94,7,23,Ticks_Phase_5,152,1,48,51,705994260
94,7,23,Ticks_Phase_5,153,1,48,28,706050844
94,7,23,Ticks_Phase_5,154,5,42,127,706485708
94,7,23,Ticks_Phase_5,155,1,48,51,706547244
94,7,23,Ticks_Phase_5,156,1,48,55,706983160
94,7,23,Ticks_Phase_5,157,5,42,127,706986412
94,7,23,Ticks_Phase_5,158,1,48,46,707480828
94,7,23,Ticks_Phase_5,159,5,42,127,707486028
94,7,23,Ticks_Phase_5,160,1,48,54,707909896
94,7,23,Ticks_Phase_5,161,1,48,32,707970312
94,7,23,Ticks_Phase_5,162,5,42,127,707985768
94,7,23,Ticks_Phase_5,163,1,48,51,708427388
94,7,23,Ticks_Phase_5,164,1,48,34,708473340
94,7,23,Ticks_Phase_5,165,5,42,127,708485732
94,7,23,Ticks_Phase_5,166,5,42,127,708965660
94,7,23,Ticks_Phase_5,167,1,48,43,708979336
94,7,23,Ticks_Phase_5,168,5,42,127,709465496
94,7,23,Ticks_Phase_5,169,1,48,47,709492948
94,7,23,Ticks_Phase_5,170,1,48,49,709943440
94,7,23,Ticks_Phase_5,171,5,42,127,709966148
94,7,23,Ticks_Phase_5,172,1,48,49,710403880
94,7,23,Ticks_Phase_5,173,5,42,127,710465840
94,7,23,Ticks_Phase_5,174,1,48,48,710944232
94,7,23,Ticks_Phase_5,175,5,42,127,710965600
94,7,23,Ticks_Phase_5,176,1,48,51,711428564
94,7,23,Ticks_Phase_5,177,5,42,127,711466408
94,7,23,Ticks_Phase_5,178,1,48,50,711931836
94,7,23,Ticks_Phase_5,179,5,42,127,711965948
94,7,23,Ticks_Phase_5,180,5,42,127,712465868
94,7,23,Ticks_Phase_5,181,1,48,48,712476400
94,7,23,Ticks_Phase_5,182,1,48,48,712957136
94,7,23,Ticks_Phase_5,183,5,42,127,712965400
94,7,23,Ticks_Phase_5,184,1,48,48,713452392
94,7,23,Ticks_Phase_5,185,5,42,127,713466136
94,7,23,Ticks_Phase_5,186,5,42,127,713965976
94,7,23,Ticks_Phase_5,187,1,48,42,714001220
94,7,23,Ticks_Phase_5,188,1,48,45,714438444
94,7,23,Ticks_Phase_5,189,5,42,127,714465584
94,7,23,Ticks_Phase_5,190,5,42,127,714966700
94,7,23,Ticks_Phase_5,191,1,48,39,715015056
94,7,23,Ticks_Phase_5,192,1,48,50,715454372
94,7,23,Ticks_Phase_5,193,5,42,127,715466008
94,7,23,Ticks_Phase_5,194,1,48,41,715914196
94,7,23,Ticks_Phase_5,195,5,42,127,715965696
94,7,23,Ticks_Phase_5,196,1,48,46,716463876
94,7,23,Ticks_Phase_5,197,5,42,127,716465460
94,7,23,Ticks_Phase_5,198,5,42,127,716916076
94,7,23,Ticks_Phase_5,199,1,48,41,716969448
94,7,23,Ticks_Phase_5,200,1,48,49,717373488
94,7,23,Ticks_Phase_5,201,5,42,127,717415832
94,7,23,Ticks_Phase_5,202,1,48,48,717852280
94,7,23,Ticks_Phase_5,203,5,42,127,717915520
94,7,23,Ticks_Phase_5,204,1,48,44,718305548
94,7,23,Ticks_Phase_5,205,5,42,127,718416316
94,7,23,Ticks_Phase_5,206,1,48,44,718883332
94,7,23,Ticks_Phase_5,207,5,42,127,718916092
94,7,23,Ticks_Phase_5,208,1,48,50,719356668
94,7,23,Ticks_Phase_5,209,5,42,127,719415708
94,7,23,Ticks_Phase_5,210,1,48,49,719884372
94,7,23,Ticks_Phase_5,211,5,42,127,719916520
94,7,23,Ticks_Phase_5,212,1,48,55,720348408
94,7,23,Ticks_Phase_5,213,5,42,127,720416208
94,7,23,Ticks_Phase_5,214,1,48,50,720896996
94,7,23,Ticks_Phase_5,215,5,42,127,720915896
94,7,23,Ticks_Phase_5,216,1,48,45,721372712
94,7,23,Ticks_Phase_5,217,5,42,127,721415508
94,7,23,Ticks_Phase_5,218,1,48,44,721855480
94,7,23,Ticks_Phase_5,219,5,42,127,721916540
94,7,23,Ticks_Phase_5,220,1,48,36,722409984
94,7,23,Ticks_Phase_5,221,5,42,127,722415932
94,7,23,Ticks_Phase_5,222,1,48,46,722854460
94,7,23,Ticks_Phase_5,223,5,42,127,722915696
94,7,23,Ticks_Phase_5,224,1,48,40,723416664
94,7,23,Ticks_Phase_5,225,5,42,127,723418000
94,7,23,Ticks_Phase_5,226,1,48,44,723911744
94,7,23,Ticks_Phase_5,227,5,42,127,723926304
94,7,23,Ticks_Phase_5,228,1,48,45,724415180
94,7,23,Ticks_Phase_5,229,5,42,127,724425992
94,7,23,Ticks_Phase_5,230,1,48,35,724925236
94,7,23,Ticks_Phase_5,231,5,42,127,724926656
94,7,23,Ticks_Phase_5,232,1,48,44,725441060
94,7,23,Ticks_Phase_5,233,5,42,127,725475616
94,7,23,Ticks_Phase_5,234,1,48,46,725910696
94,7,23,Ticks_Phase_5,235,5,42,127,725976576
94,7,23,Ticks_Phase_5,236,1,48,40,726482444
94,7,23,Ticks_Phase_5,237,5,42,127,726486524
94,7,23,Ticks_Phase_5,238,1,48,43,726973520
94,7,23,Ticks_Phase_5,239,5,42,127,726986064
94,7,23,Ticks_Phase_5,240,5,42,127,727485756
94,7,23,Ticks_Phase_5,241,1,48,35,727503844
94,7,23,Ticks_Phase_5,242,5,42,127,727985448
94,7,23,Ticks_Phase_5,243,1,48,44,728006464
94,7,23,Ticks_Phase_5,244,1,48,42,728471888
94,7,23,Ticks_Phase_5,245,5,42,127,728486520
94,7,23,Ticks_Phase_5,246,1,48,46,728943564
94,7,23,Ticks_Phase_5,247,5,42,127,728985912
94,7,23,Ticks_Phase_5,248,1,48,51,729436144
94,7,23,Ticks_Phase_5,249,5,42,127,729485600
94,7,23,Ticks_Phase_5,250,1,48,44,729966692
94,7,23,Ticks_Phase_5,251,5,42,127,729986488
94,7,23,Ticks_Phase_5,252,1,48,49,730495084
94,7,23,Ticks_Phase_5,253,5,42,127,730496508
94,7,23,Ticks_Phase_5,254,1,48,34,730952204
94,7,23,Ticks_Phase_5,255,5,42,127,730996196
94,7,23,Ticks_Phase_5,256,5,42,127,731495744
94,7,23,Ticks_Phase_5,257,1,48,40,731499088
94,7,23,Ticks_Phase_5,258,1,48,50,731977052
94,7,23,Ticks_Phase_5,259,5,42,127,731995500
94,7,23,Ticks_Phase_5,260,1,48,47,732494888
94,7,23,Ticks_Phase_5,261,5,42,127,732496532
94,7,23,Ticks_Phase_5,262,1,48,48,732975076
94,7,23,Ticks_Phase_5,263,5,42,127,732995924
94,7,23,Ticks_Phase_5,264,1,48,26,733037444
94,7,23,Ticks_Phase_5,265,1,48,51,733449876
94,7,23,Ticks_Phase_5,266,5,42,127,733495516
94,7,23,Ticks_Phase_5,267,1,48,45,734021828
94,7,23,Ticks_Phase_5,268,5,42,127,734095628
94,7,23,Ticks_Phase_5,269,1,48,47,734584280
94,7,23,Ticks_Phase_5,270,5,42,127,734595464
94,7,23,Ticks_Phase_5,271,1,48,44,735089880
94,7,23,Ticks_Phase_5,272,5,42,127,735096272
94,7,23,Ticks_Phase_5,273,1,48,51,735545688
94,7,23,Ticks_Phase_5,274,5,42,127,735595740
94,7,23,Ticks_Phase_5,275,5,42,127,736095732
94,7,23,Ticks_Phase_5,276,1,48,51,736132696
94,7,23,Ticks_Phase_5,277,5,42,127,736596316
94,7,23,Ticks_Phase_5,278,1,48,51,736601532
94,7,23,Ticks_Phase_5,279,5,42,127,737096152
94,7,23,Ticks_Phase_5,280,1,48,47,737145408
94,7,23,Ticks_Phase_5,281,1,48,54,737567276
94,7,23,Ticks_Phase_5,282,5,42,127,737595684
94,7,23,Ticks_Phase_5,283,1,48,51,738062760
94,7,23,Ticks_Phase_5,284,5,42,127,738095520
94,7,23,Ticks_Phase_5,285,1,48,54,738558860
94,7,23,Ticks_Phase_5,286,5,42,127,738596332
94,7,23,Ticks_Phase_5,287,5,42,127,739095952
94,7,23,Ticks_Phase_5,288,1,48,52,739098472
94,7,23,Ticks_Phase_5,289,1,48,58,739586176
94,7,23,Ticks_Phase_5,290,5,42,127,739595488
94,7,23,Ticks_Phase_5,291,5,42,127,740096304
94,7,23,Ticks_Phase_5,292,1,48,54,740118672
94,7,23,Ticks_Phase_5,293,1,48,52,740578732
94,7,23,Ticks_Phase_5,294,5,42,127,740596132
94,7,23,Ticks_Phase_5,295,1,48,51,741022296
94,7,23,Ticks_Phase_5,296,5,42,127,741095820
94,7,23,Ticks_Phase_5,297,1,48,52,741575188
94,7,23,Ticks_Phase_5,298,5,42,127,741595508
94,7,23,Ticks_Phase_5,299,1,48,51,742058744
94,7,23,Ticks_Phase_5,300,5,42,127,742096168
94,7,23,Ticks_Phase_5,301,1,48,43,742561200
94,7,23,Ticks_Phase_5,302,5,42,127,742596080
94,7,23,Ticks_Phase_5,303,5,42,127,743095776
94,7,23,Ticks_Phase_5,304,1,48,43,743125932
94,7,23,Ticks_Phase_5,305,5,42,127,743496216
94,7,23,Ticks_Phase_5,306,1,48,47,743586284
94,7,23,Ticks_Phase_5,307,5,42,127,743995756
94,7,23,Ticks_Phase_5,308,1,48,46,744010404
94,7,23,Ticks_Phase_5,309,1,48,48,744452416
94,7,23,Ticks_Phase_5,310,5,42,127,744495512
94,7,23,Ticks_Phase_5,311,1,48,42,744893856
94,7,23,Ticks_Phase_5,312,5,42,127,744996456
94,7,23,Ticks_Phase_5,313,1,48,51,745460332
94,7,23,Ticks_Phase_5,314,5,42,127,745496232
94,7,23,Ticks_Phase_5,315,1,48,54,745958004
94,7,23,Ticks_Phase_5,316,5,42,127,745995772
94,7,23,Ticks_Phase_5,317,5,42,127,746496444
94,7,23,Ticks_Phase_5,318,1,48,47,746502924
94,7,23,Ticks_Phase_5,319,1,48,50,746982232
94,7,23,Ticks_Phase_5,320,5,42,127,746996344
94,7,23,Ticks_Phase_5,321,5,42,127,747495672
94,7,23,Ticks_Phase_5,322,1,48,57,747507856
94,7,23,Ticks_Phase_5,323,1,48,47,747975928
94,7,23,Ticks_Phase_5,324,5,42,127,747995576
94,7,23,Ticks_Phase_5,325,5,42,127,748496316
94,7,23,Ticks_Phase_5,326,1,48,46,748497284
94,7,23,Ticks_Phase_5,327,1,48,47,748935812
94,7,23,Ticks_Phase_5,328,5,42,127,748995920
94,7,23,Ticks_Phase_5,329,1,48,48,749471508
94,7,23,Ticks_Phase_5,330,5,42,127,749495756
94,7,23,Ticks_Phase_5,331,1,48,53,749995344
94,7,23,Ticks_Phase_5,332,5,42,127,749996916
94,7,23,Ticks_Phase_5,333,1,48,56,750477156
94,7,23,Ticks_Phase_5,334,5,42,127,750496132
94,7,23,Ticks_Phase_5,335,1,48,56,750956704
94,7,23,Ticks_Phase_5,336,5,42,127,750995744
94,7,23,Ticks_Phase_5,337,1,48,54,751443944
94,7,23,Ticks_Phase_5,338,5,42,127,751495584
94,7,23,Ticks_Phase_5,339,5,42,127,751996252
94,7,23,Ticks_Phase_5,340,1,48,52,752001612
94,7,23,Ticks_Phase_5,341,1,48,54,752461152
94,7,23,Ticks_Phase_5,342,5,42,127,752496152
94,7,23,Ticks_Phase_5,343,1,48,53,752966160
94,7,23,Ticks_Phase_5,344,5,42,127,752995768
94,7,23,Ticks_Phase_5,0,9999,9999,9999,668433500
94,7,23,Ticks_Phase_5,1,9999,9999,9999,668933212
94,7,23,Ticks_Phase_5,2,9999,9999,9999,669433968
94,7,23,Ticks_Phase_5,3,9999,9999,9999,669933676
94,7,23,Ticks_Phase_5,4,9999,9999,9999,670433380
94,7,23,Ticks_Phase_5,5,9999,9999,9999,670934116
94,7,23,Ticks_Phase_5,6,9999,9999,9999,671444064
94,7,23,Ticks_Phase_5,7,9999,9999,9999,671943748
94,7,23,Ticks_Phase_5,8,9999,9999,9999,672443512
94,7,23,Ticks_Phase_5,9,9999,9999,9999,672943180
94,7,23,Ticks_Phase_5,10,9999,9999,9999,673443896
94,7,23,Ticks_Phase_5,11,9999,9999,9999,673943652
94,7,23,Ticks_Phase_5,12,9999,9999,9999,674443340
94,7,23,Ticks_Phase_5,13,9999,9999,9999,674944084
94,7,23,Ticks_Phase_5,14,9999,9999,9999,675454028
94,7,23,Ticks_Phase_5,15,9999,9999,9999,675953792
94,7,23,Ticks_Phase_5,16,9999,9999,9999,676453480
94,7,23,Ticks_Phase_5,17,9999,9999,9999,676953160
94,7,23,Ticks_Phase_5,18,9999,9999,9999,677453948
94,7,23,Ticks_Phase_5,19,9999,9999,9999,677953636
94,7,23,Ticks_Phase_5,20,9999,9999,9999,678453332
94,7,23,Ticks_Phase_5,21,9999,9999,9999,678954060
94,7,23,Ticks_Phase_5,22,9999,9999,9999,679453824
94,7,23,Ticks_Phase_5,23,9999,9999,9999,679953512
94,7,23,Ticks_Phase_5,24,9999,9999,9999,680453204
94,7,23,Ticks_Phase_5,25,9999,9999,9999,680953936
94,7,23,Ticks_Phase_5,26,9999,9999,9999,681453624
94,7,23,Ticks_Phase_5,27,9999,9999,9999,681953388
94,7,23,Ticks_Phase_5,28,9999,9999,9999,682454104
94,7,23,Ticks_Phase_5,29,9999,9999,9999,682964036
94,7,23,Ticks_Phase_5,30,9999,9999,9999,683453556
94,7,23,Ticks_Phase_5,31,9999,9999,9999,683953216
94,7,23,Ticks_Phase_5,32,9999,9999,9999,684454008
94,7,23,Ticks_Phase_5,33,9999,9999,9999,684953696
94,7,23,Ticks_Phase_5,34,9999,9999,9999,685453380
94,7,23,Ticks_Phase_5,35,9999,9999,9999,685953148
94,7,23,Ticks_Phase_5,36,9999,9999,9999,686453884
94,7,23,Ticks_Phase_5,37,9999,9999,9999,686953572
94,7,23,Ticks_Phase_5,38,9999,9999,9999,687453260
94,7,23,Ticks_Phase_5,39,9999,9999,9999,687953996
94,7,23,Ticks_Phase_5,40,9999,9999,9999,688453732
94,7,23,Ticks_Phase_5,41,9999,9999,9999,688953420
94,7,23,Ticks_Phase_5,42,9999,9999,9999,689453176
94,7,23,Ticks_Phase_5,43,9999,9999,9999,689953912
94,7,23,Ticks_Phase_5,44,9999,9999,9999,690453600
94,7,23,Ticks_Phase_5,45,9999,9999,9999,690953288
94,7,23,Ticks_Phase_5,46,9999,9999,9999,691454024
94,7,23,Ticks_Phase_5,47,9999,9999,9999,691953788
94,7,23,Ticks_Phase_5,48,9999,9999,9999,692463740
94,7,23,Ticks_Phase_5,49,9999,9999,9999,692963436
94,7,23,Ticks_Phase_5,50,9999,9999,9999,693463096
94,7,23,Ticks_Phase_5,51,9999,9999,9999,693963840
94,7,23,Ticks_Phase_5,52,9999,9999,9999,694463596
94,7,23,Ticks_Phase_5,53,9999,9999,9999,694963280
94,7,23,Ticks_Phase_5,54,9999,9999,9999,695463992
94,7,23,Ticks_Phase_5,55,9999,9999,9999,695963756
94,7,23,Ticks_Phase_5,56,9999,9999,9999,696463440
94,7,23,Ticks_Phase_5,57,9999,9999,9999,696963128
94,7,23,Ticks_Phase_5,58,9999,9999,9999,697463912
94,7,23,Ticks_Phase_5,59,9999,9999,9999,697963604
94,7,23,Ticks_Phase_5,60,9999,9999,9999,698463292
94,7,23,Ticks_Phase_5,61,9999,9999,9999,698964024
94,7,23,Ticks_Phase_5,62,9999,9999,9999,699463788
94,7,23,Ticks_Phase_5,63,9999,9999,9999,699963484
94,7,23,Ticks_Phase_5,64,9999,9999,9999,700483680
94,7,23,Ticks_Phase_5,65,9999,9999,9999,700983372
94,7,23,Ticks_Phase_5,66,9999,9999,9999,701483064
94,7,23,Ticks_Phase_5,67,9999,9999,9999,701983800
94,7,23,Ticks_Phase_5,68,9999,9999,9999,702483540
94,7,23,Ticks_Phase_5,69,9999,9999,9999,702983228
94,7,23,Ticks_Phase_5,70,9999,9999,9999,703483964
94,7,23,Ticks_Phase_5,71,9999,9999,9999,703983728
94,7,23,Ticks_Phase_5,72,9999,9999,9999,704483416
94,7,23,Ticks_Phase_5,73,9999,9999,9999,704983104
94,7,23,Ticks_Phase_5,74,9999,9999,9999,705483836
94,7,23,Ticks_Phase_5,75,9999,9999,9999,705983608
94,7,23,Ticks_Phase_5,76,9999,9999,9999,706483276
94,7,23,Ticks_Phase_5,77,9999,9999,9999,706984052
94,7,23,Ticks_Phase_5,78,9999,9999,9999,707483740
94,7,23,Ticks_Phase_5,79,9999,9999,9999,707983480
94,7,23,Ticks_Phase_5,80,9999,9999,9999,708483148
94,7,23,Ticks_Phase_5,81,9999,9999,9999,708963444
94,7,23,Ticks_Phase_5,82,9999,9999,9999,709463136
94,7,23,Ticks_Phase_5,83,9999,9999,9999,709963864
94,7,23,Ticks_Phase_5,84,9999,9999,9999,710463552
94,7,23,Ticks_Phase_5,85,9999,9999,9999,710963312
94,7,23,Ticks_Phase_5,86,9999,9999,9999,711464048
94,7,23,Ticks_Phase_5,87,9999,9999,9999,711963736
94,7,23,Ticks_Phase_5,88,9999,9999,9999,712463432
94,7,23,Ticks_Phase_5,89,9999,9999,9999,712963188
94,7,23,Ticks_Phase_5,90,9999,9999,9999,713463920
94,7,23,Ticks_Phase_5,91,9999,9999,9999,713963616
94,7,23,Ticks_Phase_5,92,9999,9999,9999,714463300
94,7,23,Ticks_Phase_5,93,9999,9999,9999,714964040
94,7,23,Ticks_Phase_5,94,9999,9999,9999,715463796
94,7,23,Ticks_Phase_5,95,9999,9999,9999,715963484
94,7,23,Ticks_Phase_5,96,9999,9999,9999,716463184
94,7,23,Ticks_Phase_5,97,9999,9999,9999,716913788
94,7,23,Ticks_Phase_5,98,9999,9999,9999,717413472
94,7,23,Ticks_Phase_5,99,9999,9999,9999,717913160
94,7,23,Ticks_Phase_5,100,9999,9999,9999,718413880
94,7,23,Ticks_Phase_5,101,9999,9999,9999,718913660
94,7,23,Ticks_Phase_5,102,9999,9999,9999,719413348
94,7,23,Ticks_Phase_5,103,9999,9999,9999,719914084
94,7,23,Ticks_Phase_5,104,9999,9999,9999,720413772
94,7,23,Ticks_Phase_5,105,9999,9999,9999,720913536
94,7,23,Ticks_Phase_5,106,9999,9999,9999,721413224
94,7,23,Ticks_Phase_5,107,9999,9999,9999,721913956
94,7,23,Ticks_Phase_5,108,9999,9999,9999,722413644
94,7,23,Ticks_Phase_5,109,9999,9999,9999,722913408
94,7,23,Ticks_Phase_5,110,9999,9999,9999,723414076
94,7,23,Ticks_Phase_5,111,9999,9999,9999,723924088
94,7,23,Ticks_Phase_5,112,9999,9999,9999,724423780
94,7,23,Ticks_Phase_5,113,9999,9999,9999,724923472
94,7,23,Ticks_Phase_5,114,9999,9999,9999,725473404
94,7,23,Ticks_Phase_5,115,9999,9999,9999,725974140
94,7,23,Ticks_Phase_5,116,9999,9999,9999,726484088
94,7,23,Ticks_Phase_5,117,9999,9999,9999,726983776
94,7,23,Ticks_Phase_5,118,9999,9999,9999,727483472
94,7,23,Ticks_Phase_5,119,9999,9999,9999,727983160
94,7,23,Ticks_Phase_5,120,9999,9999,9999,728483936
94,7,23,Ticks_Phase_5,121,9999,9999,9999,728983628
94,7,23,Ticks_Phase_5,122,9999,9999,9999,729483388
94,7,23,Ticks_Phase_5,123,9999,9999,9999,729984124
94,7,23,Ticks_Phase_5,124,9999,9999,9999,730494076
94,7,23,Ticks_Phase_5,125,9999,9999,9999,730993760
94,7,23,Ticks_Phase_5,126,9999,9999,9999,731493452
94,7,23,Ticks_Phase_5,127,9999,9999,9999,731993212
94,7,23,Ticks_Phase_5,128,9999,9999,9999,732493880
94,7,23,Ticks_Phase_5,129,9999,9999,9999,732993636
94,7,23,Ticks_Phase_5,130,9999,9999,9999,733493304
94,7,23,Ticks_Phase_5,131,9999,9999,9999,734093412
94,7,23,Ticks_Phase_5,132,9999,9999,9999,734593104
94,7,23,Ticks_Phase_5,133,9999,9999,9999,735093836
94,7,23,Ticks_Phase_5,134,9999,9999,9999,735593528
94,7,23,Ticks_Phase_5,135,9999,9999,9999,736093296
94,7,23,Ticks_Phase_5,136,9999,9999,9999,736594028
94,7,23,Ticks_Phase_5,137,9999,9999,9999,737093716
94,7,23,Ticks_Phase_5,138,9999,9999,9999,737593400
94,7,23,Ticks_Phase_5,139,9999,9999,9999,738093160
94,7,23,Ticks_Phase_5,140,9999,9999,9999,738593896
94,7,23,Ticks_Phase_5,141,9999,9999,9999,739093592
94,7,23,Ticks_Phase_5,142,9999,9999,9999,739593272
94,7,23,Ticks_Phase_5,143,9999,9999,9999,740094016
94,7,23,Ticks_Phase_5,144,9999,9999,9999,740593772
94,7,23,Ticks_Phase_5,145,9999,9999,9999,741093460
94,7,23,Ticks_Phase_5,146,9999,9999,9999,741593148
94,7,23,Ticks_Phase_5,147,9999,9999,9999,742093884
94,7,23,Ticks_Phase_5,148,9999,9999,9999,742593644
94,7,23,Ticks_Phase_5,149,9999,9999,9999,743093340
94,7,23,Ticks_Phase_5,150,9999,9999,9999,743493704
94,7,23,Ticks_Phase_5,151,9999,9999,9999,743993468
94,7,23,Ticks_Phase_5,152,9999,9999,9999,744493152
94,7,23,Ticks_Phase_5,153,9999,9999,9999,744993872
94,7,23,Ticks_Phase_5,154,9999,9999,9999,745493576
94,7,23,Ticks_Phase_5,155,9999,9999,9999,745993336
94,7,23,Ticks_Phase_5,156,9999,9999,9999,746494004
94,7,23,Ticks_Phase_5,157,9999,9999,9999,746993760
94,7,23,Ticks_Phase_5,158,9999,9999,9999,747493456
94,7,23,Ticks_Phase_5,159,9999,9999,9999,747993212
94,7,23,Ticks_Phase_5,160,9999,9999,9999,748493880
94,7,23,Ticks_Phase_5,161,9999,9999,9999,748993636
94,7,23,Ticks_Phase_5,162,9999,9999,9999,749493320
94,7,23,Ticks_Phase_5,163,9999,9999,9999,749994040
94,7,23,Ticks_Phase_5,164,9999,9999,9999,750493772
94,7,23,Ticks_Phase_5,165,9999,9999,9999,750993532
94,7,23,Ticks_Phase_5,166,9999,9999,9999,751493224
94,7,23,Ticks_Phase_5,167,9999,9999,9999,751993964
94,7,23,Ticks_Phase_5,168,9999,9999,9999,752493644
94,7,23,Ticks_Phase_5,169,9999,9999,9999,752993408
94,8,22,Ticks_Phase_8,0,5,42,127,763886952
94,8,22,Ticks_Phase_8,1,5,42,127,764687128
94,8,22,Ticks_Phase_8,2,5,42,127,765486420
94,8,22,Ticks_Phase_8,3,5,42,127,766287272
94,8,22,Ticks_Phase_8,4,1,48,40,766331132
94,8,22,Ticks_Phase_8,5,1,48,46,767082224
94,8,22,Ticks_Phase_8,6,5,42,127,767087052
94,8,22,Ticks_Phase_8,7,1,48,48,767846972
94,8,22,Ticks_Phase_8,8,5,42,127,767887136
94,8,22,Ticks_Phase_8,9,1,48,55,768683916
94,8,22,Ticks_Phase_8,10,5,42,127,768686504
94,8,22,Ticks_Phase_8,11,1,48,43,769419208
94,8,22,Ticks_Phase_8,12,5,42,127,769487188
94,8,22,Ticks_Phase_8,13,1,48,47,770210008
94,8,22,Ticks_Phase_8,14,5,42,127,770287044
94,8,22,Ticks_Phase_8,15,1,48,52,771055876
94,8,22,Ticks_Phase_8,16,5,42,127,771086684
94,8,22,Ticks_Phase_8,17,1,48,46,771826304
94,8,22,Ticks_Phase_8,18,5,42,127,771886544
94,8,22,Ticks_Phase_8,19,1,48,47,772598680
94,8,22,Ticks_Phase_8,20,5,42,127,772687152
94,8,22,Ticks_Phase_8,21,1,48,51,773370236
94,8,22,Ticks_Phase_8,22,5,42,127,773486928
94,8,22,Ticks_Phase_8,23,1,48,50,774253740
94,8,22,Ticks_Phase_8,24,5,42,127,774286804
94,8,22,Ticks_Phase_8,25,1,48,54,775041400
94,8,22,Ticks_Phase_8,26,5,42,127,775086392
94,8,22,Ticks_Phase_8,27,5,42,127,775887160
94,8,22,Ticks_Phase_8,28,1,48,54,775907276
94,8,22,Ticks_Phase_8,29,1,48,62,776657032
94,8,22,Ticks_Phase_8,30,5,42,127,776686936
94,8,22,Ticks_Phase_8,31,1,48,55,777358160
94,8,22,Ticks_Phase_8,32,5,42,127,777486784
94,8,22,Ticks_Phase_8,33,1,48,46,778228072
94,8,22,Ticks_Phase_8,34,5,42,127,778286360
94,8,22,Ticks_Phase_8,35,1,48,60,779023352
94,8,22,Ticks_Phase_8,36,5,42,127,779087120
94,8,22,Ticks_Phase_8,37,1,48,52,779824424
94,8,22,Ticks_Phase_8,38,5,42,127,779887128
94,8,22,Ticks_Phase_8,39,1,48,52,780611844
94,8,22,Ticks_Phase_8,40,5,42,127,780686916
94,8,22,Ticks_Phase_8,41,1,48,61,781410060
94,8,22,Ticks_Phase_8,42,5,42,127,781486352
94,8,22,Ticks_Phase_8,43,1,48,59,782221224
94,8,22,Ticks_Phase_8,44,5,42,127,782287184
94,8,22,Ticks_Phase_8,45,1,48,50,783042080
94,8,22,Ticks_Phase_8,46,5,42,127,783087048
94,8,22,Ticks_Phase_8,47,1,48,55,783793488
94,8,22,Ticks_Phase_8,48,5,42,127,783886832
94,8,22,Ticks_Phase_8,49,1,48,59,784579424
94,8,22,Ticks_Phase_8,50,5,42,127,784686380
94,8,22,Ticks_Phase_8,51,1,48,55,785326496
94,8,22,Ticks_Phase_8,52,5,42,127,785487212
94,8,22,Ticks_Phase_8,53,1,48,54,786085292
94,8,22,Ticks_Phase_8,54,5,42,127,786287000
94,8,22,Ticks_Phase_8,55,1,48,46,786857144
94,8,22,Ticks_Phase_8,56,5,42,127,787086860
94,8,22,Ticks_Phase_8,57,1,48,42,787835116
94,8,22,Ticks_Phase_8,58,5,42,127,787867116
94,8,22,Ticks_Phase_8,59,1,48,46,788598280
94,8,22,Ticks_Phase_8,60,5,42,127,788667000
94,8,22,Ticks_Phase_8,61,1,48,51,789372892
94,8,22,Ticks_Phase_8,62,5,42,127,789466340
94,8,22,Ticks_Phase_8,63,1,48,52,790129252
94,8,22,Ticks_Phase_8,64,5,42,127,790267232
94,8,22,Ticks_Phase_8,65,1,48,50,790996760
94,8,22,Ticks_Phase_8,66,5,42,127,791066960
94,8,22,Ticks_Phase_8,67,1,48,53,791800064
94,8,22,Ticks_Phase_8,68,5,42,127,791866820
94,8,22,Ticks_Phase_8,69,1,48,44,792618796
94,8,22,Ticks_Phase_8,70,5,42,127,792666460
94,8,22,Ticks_Phase_8,71,5,42,127,793467224
94,8,22,Ticks_Phase_8,72,1,48,34,793481648
94,8,22,Ticks_Phase_8,73,5,42,127,794266936
94,8,22,Ticks_Phase_8,74,1,48,50,794296068
94,8,22,Ticks_Phase_8,75,5,42,127,795066676
94,8,22,Ticks_Phase_8,76,1,48,42,795105372
94,8,22,Ticks_Phase_8,77,1,48,37,795847780
94,8,22,Ticks_Phase_8,78,5,42,127,795866752
94,8,22,Ticks_Phase_8,79,1,48,50,796579688
94,8,22,Ticks_Phase_8,80,5,42,127,796667140
94,8,22,Ticks_Phase_8,81,1,48,46,797443080
94,8,22,Ticks_Phase_8,82,5,42,127,797466852
94,8,22,Ticks_Phase_8,83,1,48,53,798235908
94,8,22,Ticks_Phase_8,84,5,42,127,798266860
94,8,22,Ticks_Phase_8,85,1,48,57,799028280
94,8,22,Ticks_Phase_8,86,5,42,127,799066572
94,8,22,Ticks_Phase_8,87,1,48,64,799834880
94,8,22,Ticks_Phase_8,88,5,42,127,799867256
94,8,22,Ticks_Phase_8,89,1,48,57,800609576
94,8,22,Ticks_Phase_8,90,1,48,43,800640108
94,8,22,Ticks_Phase_8,91,5,42,127,800666948
94,8,22,Ticks_Phase_8,92,1,48,49,801429560
94,8,22,Ticks_Phase_8,93,5,42,127,801466836
94,8,22,Ticks_Phase_8,94,1,48,55,802210100
94,8,22,Ticks_Phase_8,95,5,42,127,802286916
94,8,22,Ticks_Phase_8,96,1,48,59,802999728
94,8,22,Ticks_Phase_8,97,5,42,127,803086776
94,8,22,Ticks_Phase_8,98,1,48,48,803854708
94,8,22,Ticks_Phase_8,99,5,42,127,803886564
94,8,22,Ticks_Phase_8,100,1,48,68,804678452
94,8,22,Ticks_Phase_8,101,5,42,127,804687172
94,8,22,Ticks_Phase_8,102,5,42,127,805486888
94,8,22,Ticks_Phase_8,103,1,48,63,805540180
94,8,22,Ticks_Phase_8,104,5,42,127,806286824
94,8,22,Ticks_Phase_8,105,1,48,54,806334216
94,8,22,Ticks_Phase_8,106,5,42,127,807086412
94,8,22,Ticks_Phase_8,107,1,48,69,807122696
94,8,22,Ticks_Phase_8,108,5,42,127,807887172
94,8,22,Ticks_Phase_8,109,1,48,57,807930056
94,8,22,Ticks_Phase_8,110,5,42,127,808686880
94,8,22,Ticks_Phase_8,111,1,48,52,808791396
94,8,22,Ticks_Phase_8,112,5,42,127,809486740
94,8,22,Ticks_Phase_8,113,1,48,61,809523776
94,8,22,Ticks_Phase_8,114,5,42,127,810286380
94,8,22,Ticks_Phase_8,115,1,48,50,810328364
94,8,22,Ticks_Phase_8,116,5,42,127,811087136
94,8,22,Ticks_Phase_8,117,1,48,50,811114588
94,8,22,Ticks_Phase_8,118,1,48,50,811864868
94,8,22,Ticks_Phase_8,119,5,42,127,811886916
94,8,22,Ticks_Phase_8,120,1,48,53,812649680
94,8,22,Ticks_Phase_8,121,5,42,127,812686852
94,8,22,Ticks_Phase_8,122,1,48,46,813436436
94,8,22,Ticks_Phase_8,123,5,42,127,813486664
94,8,22,Ticks_Phase_8,124,5,42,127,814287132
94,8,22,Ticks_Phase_8,125,1,48,60,814349184
94,8,22,Ticks_Phase_8,126,1,48,53,815017240
94,8,22,Ticks_Phase_8,127,5,42,127,815126960
94,8,22,Ticks_Phase_8,128,1,48,50,815836424
94,8,22,Ticks_Phase_8,129,5,42,127,815926612
94,8,22,Ticks_Phase_8,130,1,48,55,816681804
94,8,22,Ticks_Phase_8,131,5,42,127,816727596
94,8,22,Ticks_Phase_8,132,1,48,52,817449172
94,8,22,Ticks_Phase_8,133,5,42,127,817527156
94,8,22,Ticks_Phase_8,134,1,48,49,818272392
94,8,22,Ticks_Phase_8,135,5,42,127,818327016
94,8,22,Ticks_Phase_8,136,1,48,53,819091048
94,8,22,Ticks_Phase_8,137,5,42,127,819126604
94,8,22,Ticks_Phase_8,138,5,42,127,819927668
94,8,22,Ticks_Phase_8,139,1,48,45,819936488
94,8,22,Ticks_Phase_8,140,5,42,127,820727156
94,8,22,Ticks_Phase_8,141,1,48,49,820746384
94,8,22,Ticks_Phase_8,142,1,48,49,821515148
94,8,22,Ticks_Phase_8,143,5,42,127,821526936
94,8,22,Ticks_Phase_8,144,1,48,49,822301900
94,8,22,Ticks_Phase_8,145,5,42,127,822326720
94,8,22,Ticks_Phase_8,146,1,48,51,823062596
94,8,22,Ticks_Phase_8,147,5,42,127,823127556
94,8,22,Ticks_Phase_8,148,5,42,127,823927276
94,8,22,Ticks_Phase_8,149,1,48,43,823933532
94,8,22,Ticks_Phase_8,150,5,42,127,824726836
94,8,22,Ticks_Phase_8,151,1,48,36,824751172
94,8,22,Ticks_Phase_8,152,1,48,42,825521816
94,8,22,Ticks_Phase_8,153,5,42,127,825526716
94,8,22,Ticks_Phase_8,154,1,48,48,826257252
94,8,22,Ticks_Phase_8,155,5,42,127,826327548
94,8,22,Ticks_Phase_8,156,1,48,49,827097136
94,8,22,Ticks_Phase_8,157,5,42,127,827127116
94,8,22,Ticks_Phase_8,158,1,48,50,827913160
94,8,22,Ticks_Phase_8,159,5,42,127,827926904
94,8,22,Ticks_Phase_8,160,5,42,127,828686784
94,8,22,Ticks_Phase_8,161,1,48,48,828698964
94,8,22,Ticks_Phase_8,162,1,48,40,829414872
94,8,22,Ticks_Phase_8,163,5,42,127,829486564
94,8,22,Ticks_Phase_8,164,1,48,45,830176084
94,8,22,Ticks_Phase_8,165,5,42,127,830287156
94,8,22,Ticks_Phase_8,166,1,48,44,831001632
94,8,22,Ticks_Phase_8,167,5,42,127,831086960
94,8,22,Ticks_Phase_8,168,1,48,46,831857288
94,8,22,Ticks_Phase_8,169,5,42,127,831886600
94,8,22,Ticks_Phase_8,170,1,48,51,832627796
94,8,22,Ticks_Phase_8,171,5,42,127,832686632
94,8,22,Ticks_Phase_8,172,1,48,53,833464752
94,8,22,Ticks_Phase_8,173,5,42,127,833487316
94,8,22,Ticks_Phase_8,174,1,48,51,834262208
94,8,22,Ticks_Phase_8,175,5,42,127,834287028
94,8,22,Ticks_Phase_8,176,1,48,56,835004936
94,8,22,Ticks_Phase_8,177,1,48,35,835048648
94,8,22,Ticks_Phase_8,178,5,42,127,835086644
94,8,22,Ticks_Phase_8,179,1,48,53,835812484
94,8,22,Ticks_Phase_8,180,1,48,36,835858968
94,8,22,Ticks_Phase_8,181,5,42,127,835886336
94,8,22,Ticks_Phase_8,182,1,48,51,836634796
94,8,22,Ticks_Phase_8,183,5,42,127,836687464
94,8,22,Ticks_Phase_8,184,1,48,34,836692440
94,8,22,Ticks_Phase_8,185,1,48,44,837455676
94,8,22,Ticks_Phase_8,186,5,42,127,837486860
94,8,22,Ticks_Phase_8,187,1,48,52,838270660
94,8,22,Ticks_Phase_8,188,5,42,127,838286720
94,8,22,Ticks_Phase_8,189,1,48,56,839070148
94,8,22,Ticks_Phase_8,190,5,42,127,839086528
94,8,22,Ticks_Phase_8,191,1,48,33,839129472
94,8,22,Ticks_Phase_8,192,1,48,59,839807532
94,8,22,Ticks_Phase_8,193,1,48,38,839855168
94,8,22,Ticks_Phase_8,194,5,42,127,839887468
94,8,22,Ticks_Phase_8,195,1,48,55,840621324
94,8,22,Ticks_Phase_8,196,5,42,127,840686960
94,8,22,Ticks_Phase_8,197,1,48,33,840692528
94,8,22,Ticks_Phase_8,198,5,42,127,841406900
94,8,22,Ticks_Phase_8,199,1,48,51,841437732
94,8,22,Ticks_Phase_8,200,1,48,31,841492368
94,8,22,Ticks_Phase_8,201,1,48,58,842143316
94,8,22,Ticks_Phase_8,202,1,48,35,842203232
94,8,22,Ticks_Phase_8,203,5,42,127,842206560
94,8,22,Ticks_Phase_8,204,1,48,55,842847980
94,8,22,Ticks_Phase_8,205,1,48,33,842910708
94,8,22,Ticks_Phase_8,206,5,42,127,843007524
94,8,22,Ticks_Phase_8,207,1,48,55,843632460
94,8,22,Ticks_Phase_8,208,1,48,34,843682168
94,8,22,Ticks_Phase_8,209,5,42,127,843807196
94,8,22,Ticks_Phase_8,210,1,48,54,844526540
94,8,22,Ticks_Phase_8,211,1,48,38,844581704
94,8,22,Ticks_Phase_8,212,5,42,127,844606828
94,8,22,Ticks_Phase_8,213,1,48,52,845299492
94,8,22,Ticks_Phase_8,214,1,48,32,845346956
94,8,22,Ticks_Phase_8,215,5,42,127,845406444
94,8,22,Ticks_Phase_8,216,5,42,127,846207504
94,8,22,Ticks_Phase_8,217,1,48,47,846251164
94,8,22,Ticks_Phase_8,218,1,48,54,846877108
94,8,22,Ticks_Phase_8,219,5,42,127,847007048
94,8,22,Ticks_Phase_8,220,1,48,54,847690292
94,8,22,Ticks_Phase_8,221,1,48,35,847737824
94,8,22,Ticks_Phase_8,222,5,42,127,847806852
94,8,22,Ticks_Phase_8,223,1,48,50,848582264
94,8,22,Ticks_Phase_8,224,5,42,127,848606564
94,8,22,Ticks_Phase_8,225,1,48,48,849341536
94,8,22,Ticks_Phase_8,226,1,48,35,849380684
94,8,22,Ticks_Phase_8,227,5,42,127,849407596
94,8,22,Ticks_Phase_8,228,1,48,52,850138832
94,8,22,Ticks_Phase_8,229,5,42,127,850207308
94,8,22,Ticks_Phase_8,230,5,42,127,851006952
94,8,22,Ticks_Phase_8,231,1,48,51,851009472
94,8,22,Ticks_Phase_8,232,1,48,58,851793440
94,8,22,Ticks_Phase_8,233,5,42,127,851806508
94,8,22,Ticks_Phase_8,234,1,48,38,851832596
94,8,22,Ticks_Phase_8,235,1,48,51,852568352
94,8,22,Ticks_Phase_8,236,5,42,127,852607244
94,8,22,Ticks_Phase_8,237,1,48,57,853327472
94,8,22,Ticks_Phase_8,238,1,48,43,853357404
94,8,22,Ticks_Phase_8,239,5,42,127,853407380
94,8,22,Ticks_Phase_8,240,1,48,49,854140340
94,8,22,Ticks_Phase_8,241,5,42,127,854206748
94,8,22,Ticks_Phase_8,242,1,48,50,854971528
94,8,22,Ticks_Phase_8,243,5,42,127,855086352
94,8,22,Ticks_Phase_8,244,1,48,43,855782772
94,8,22,Ticks_Phase_8,245,5,42,127,855887184
94,8,22,Ticks_Phase_8,246,1,48,51,856662164
94,8,22,Ticks_Phase_8,247,5,42,127,856687132
94,8,22,Ticks_Phase_8,248,1,48,43,857429084
94,8,22,Ticks_Phase_8,249,5,42,127,857486772
94,8,22,Ticks_Phase_8,250,1,48,38,858284852
94,8,22,Ticks_Phase_8,251,5,42,127,858286436
94,8,22,Ticks_Phase_8,252,1,48,52,859050768
94,8,22,Ticks_Phase_8,253,5,42,127,859087272
94,8,22,Ticks_Phase_8,254,1,48,55,859788824
94,8,22,Ticks_Phase_8,255,5,42,127,859888016
94,8,22,Ticks_Phase_8,256,1,48,45,860584732
94,8,22,Ticks_Phase_8,257,5,42,127,860686752
94,8,22,Ticks_Phase_8,258,1,48,41,861379432
94,8,22,Ticks_Phase_8,259,5,42,127,861486392
94,8,22,Ticks_Phase_8,260,1,48,50,862223996
94,8,22,Ticks_Phase_8,261,5,42,127,862287384
94,8,22,Ticks_Phase_8,262,1,48,49,863048732
94,8,22,Ticks_Phase_8,263,5,42,127,863087096
94,8,22,Ticks_Phase_8,264,1,48,51,863859296
94,8,22,Ticks_Phase_8,265,5,42,127,863886736
94,8,22,Ticks_Phase_8,266,1,48,49,864652340
94,8,22,Ticks_Phase_8,267,5,42,127,864686320
94,8,22,Ticks_Phase_8,268,1,48,49,865456724
94,8,22,Ticks_Phase_8,269,5,42,127,865487380
94,8,22,Ticks_Phase_8,270,1,48,54,866269464
94,8,22,Ticks_Phase_8,271,5,42,127,866286940
94,8,22,Ticks_Phase_8,272,1,48,38,866304652
94,8,22,Ticks_Phase_8,273,1,48,57,867022268
94,8,22,Ticks_Phase_8,274,5,42,127,867086708
94,8,22,Ticks_Phase_8,275,1,48,54,867876956
94,8,22,Ticks_Phase_8,276,5,42,127,867886424
94,8,22,Ticks_Phase_8,277,1,48,52,868639896
94,8,22,Ticks_Phase_8,278,5,42,127,868847076
94,8,22,Ticks_Phase_8,279,5,42,127,869646588
94,8,22,Ticks_Phase_8,280,1,48,51,869800920
94,8,22,Ticks_Phase_8,281,1,48,33,870420796
94,8,22,Ticks_Phase_8,282,5,42,127,870446440
94,8,22,Ticks_Phase_8,283,1,48,44,871210248
94,8,22,Ticks_Phase_8,284,5,42,127,871247200
94,8,22,Ticks_Phase_8,285,1,48,46,871970564
94,8,22,Ticks_Phase_8,286,5,42,127,872046912
94,8,22,Ticks_Phase_8,287,1,48,40,872835360
94,8,22,Ticks_Phase_8,288,5,42,127,872846696
94,8,22,Ticks_Phase_8,289,1,48,40,873645076
94,8,22,Ticks_Phase_8,290,5,42,127,873646580
94,8,22,Ticks_Phase_8,291,5,42,127,874447200
94,8,22,Ticks_Phase_8,292,1,48,42,874492920
94,8,22,Ticks_Phase_8,293,5,42,127,875247208
94,8,22,Ticks_Phase_8,294,1,48,37,875310092
94,8,22,Ticks_Phase_8,295,1,48,37,875887500
94,8,22,Ticks_Phase_8,296,5,42,127,876046600
94,8,22,Ticks_Phase_8,297,1,48,29,876761444
94,8,22,Ticks_Phase_8,298,5,42,127,876846404
94,8,22,Ticks_Phase_8,299,5,42,127,877647240
94,8,22,Ticks_Phase_8,300,1,48,43,877670352
94,8,22,Ticks_Phase_8,301,1,48,46,878417340
94,8,22,Ticks_Phase_8,302,5,42,127,878447244
94,8,22,Ticks_Phase_8,303,1,48,47,879162220
94,8,22,Ticks_Phase_8,304,5,42,127,879246584
94,8,22,Ticks_Phase_8,305,1,48,44,879965316
94,8,22,Ticks_Phase_8,306,5,42,127,880046468
94,8,22,Ticks_Phase_8,307,1,48,44,880803800
94,8,22,Ticks_Phase_8,308,5,42,127,880847152
94,8,22,Ticks_Phase_8,309,5,42,127,881647168
94,8,22,Ticks_Phase_8,310,1,48,40,881722024
94,8,22,Ticks_Phase_8,311,1,48,32,882313208
94,8,22,Ticks_Phase_8,312,5,42,127,882446784
94,8,22,Ticks_Phase_8,313,1,48,34,883118500
94,8,22,Ticks_Phase_8,314,5,42,127,883246572
94,8,22,Ticks_Phase_8,315,5,42,127,883886572
94,8,22,Ticks_Phase_8,316,1,48,45,883926168
94,8,22,Ticks_Phase_8,317,1,48,47,884629452
94,8,22,Ticks_Phase_8,318,5,42,127,884687324
94,8,22,Ticks_Phase_8,319,1,48,48,885338104
94,8,22,Ticks_Phase_8,320,5,42,127,885487020
94,8,22,Ticks_Phase_8,321,1,48,45,886209204
94,8,22,Ticks_Phase_8,322,5,42,127,886286672
94,8,22,Ticks_Phase_8,323,1,48,45,886927424
94,8,22,Ticks_Phase_8,324,5,42,127,887086368
94,8,22,Ticks_Phase_8,325,1,48,48,887738012
94,8,22,Ticks_Phase_8,326,5,42,127,887887276
94,8,22,Ticks_Phase_8,327,1,48,44,888487776
94,8,22,Ticks_Phase_8,328,5,42,127,888686916
94,8,22,Ticks_Phase_8,329,1,48,43,889419812
94,8,22,Ticks_Phase_8,330,5,42,127,889486792
94,8,22,Ticks_Phase_8,331,5,42,127,890286312
94,8,22,Ticks_Phase_8,332,1,48,41,890295648
94,8,22,Ticks_Phase_8,333,1,48,43,891060144
94,8,22,Ticks_Phase_8,334,5,42,127,891087288
94,8,22,Ticks_Phase_8,335,1,48,48,891778804
94,8,22,Ticks_Phase_8,336,5,42,127,891886836
94,8,22,Ticks_Phase_8,337,1,48,43,892644364
94,8,22,Ticks_Phase_8,338,5,42,127,892686712
94,8,22,Ticks_Phase_8,339,5,42,127,893486356
94,8,22,Ticks_Phase_8,340,1,48,45,893497336
94,8,22,Ticks_Phase_8,341,1,48,48,894250008
94,8,22,Ticks_Phase_8,342,5,42,127,894287256
94,8,22,Ticks_Phase_8,343,1,48,47,895022004
94,8,22,Ticks_Phase_8,344,5,42,127,895087116
94,8,22,Ticks_Phase_8,345,1,48,54,895718976
94,8,22,Ticks_Phase_8,346,5,42,127,895886888
94,8,22,Ticks_Phase_8,347,1,48,52,896525128
94,8,22,Ticks_Phase_8,348,5,42,127,896686400
94,8,22,Ticks_Phase_8,349,1,48,54,897338840
94,8,22,Ticks_Phase_8,350,5,42,127,897487160
94,8,22,Ticks_Phase_8,351,1,48,37,898215640
94,8,22,Ticks_Phase_8,352,5,42,127,898287036
94,8,22,Ticks_Phase_8,353,5,42,127,899086828
94,8,22,Ticks_Phase_8,0,9999,9999,9999,763884660
94,8,22,Ticks_Phase_8,1,9999,9999,9999,764684396
94,8,22,Ticks_Phase_8,2,9999,9999,9999,765484128
94,8,22,Ticks_Phase_8,3,9999,9999,9999,766284908
94,8,22,Ticks_Phase_8,4,9999,9999,9999,767084616
94,8,22,Ticks_Phase_8,5,9999,9999,9999,767884404
94,8,22,Ticks_Phase_8,6,9999,9999,9999,768684140
94,8,22,Ticks_Phase_8,7,9999,9999,9999,769484896
94,8,22,Ticks_Phase_8,8,9999,9999,9999,770284608
94,8,22,Ticks_Phase_8,9,9999,9999,9999,771084396
94,8,22,Ticks_Phase_8,10,9999,9999,9999,771884108
94,8,22,Ticks_Phase_8,11,9999,9999,9999,772684864
94,8,22,Ticks_Phase_8,12,9999,9999,9999,773484640
94,8,22,Ticks_Phase_8,13,9999,9999,9999,774284364
94,8,22,Ticks_Phase_8,14,9999,9999,9999,775084104
94,8,22,Ticks_Phase_8,15,9999,9999,9999,775884868
94,8,22,Ticks_Phase_8,16,9999,9999,9999,776684648
94,8,22,Ticks_Phase_8,17,9999,9999,9999,777484344
94,8,22,Ticks_Phase_8,18,9999,9999,9999,778284148
94,8,22,Ticks_Phase_8,19,9999,9999,9999,779084904
94,8,22,Ticks_Phase_8,20,9999,9999,9999,779884616
94,8,22,Ticks_Phase_8,21,9999,9999,9999,780684404
94,8,22,Ticks_Phase_8,22,9999,9999,9999,781484140
94,8,22,Ticks_Phase_8,23,9999,9999,9999,782284896
94,8,22,Ticks_Phase_8,24,9999,9999,9999,783084608
94,8,22,Ticks_Phase_8,25,9999,9999,9999,783884396
94,8,22,Ticks_Phase_8,26,9999,9999,9999,784684092
94,8,22,Ticks_Phase_8,27,9999,9999,9999,785484924
94,8,22,Ticks_Phase_8,28,9999,9999,9999,786284636
94,8,22,Ticks_Phase_8,29,9999,9999,9999,787084348
94,8,22,Ticks_Phase_8,30,9999,9999,9999,787864676
94,8,22,Ticks_Phase_8,31,9999,9999,9999,788664416
94,8,22,Ticks_Phase_8,32,9999,9999,9999,789464128
94,8,22,Ticks_Phase_8,33,9999,9999,9999,790264944
94,8,22,Ticks_Phase_8,34,9999,9999,9999,791064672
94,8,22,Ticks_Phase_8,35,9999,9999,9999,791864380
94,8,22,Ticks_Phase_8,36,9999,9999,9999,792664168
94,8,22,Ticks_Phase_8,37,9999,9999,9999,793464936
94,8,22,Ticks_Phase_8,38,9999,9999,9999,794264648
94,8,22,Ticks_Phase_8,39,9999,9999,9999,795064384
94,8,22,Ticks_Phase_8,40,9999,9999,9999,795864164
94,8,22,Ticks_Phase_8,41,9999,9999,9999,796664924
94,8,22,Ticks_Phase_8,42,9999,9999,9999,797464636
94,8,22,Ticks_Phase_8,43,9999,9999,9999,798264424
94,8,22,Ticks_Phase_8,44,9999,9999,9999,799064136
94,8,22,Ticks_Phase_8,45,9999,9999,9999,799864892
94,8,22,Ticks_Phase_8,46,9999,9999,9999,800664656
94,8,22,Ticks_Phase_8,47,9999,9999,9999,801464396
94,8,22,Ticks_Phase_8,48,9999,9999,9999,802284624
94,8,22,Ticks_Phase_8,49,9999,9999,9999,803084412
94,8,22,Ticks_Phase_8,50,9999,9999,9999,803884124
94,8,22,Ticks_Phase_8,51,9999,9999,9999,804684880
94,8,22,Ticks_Phase_8,52,9999,9999,9999,805484600
94,8,22,Ticks_Phase_8,53,9999,9999,9999,806284384
94,8,22,Ticks_Phase_8,54,9999,9999,9999,807084120
94,8,22,Ticks_Phase_8,55,9999,9999,9999,807884880
94,8,22,Ticks_Phase_8,56,9999,9999,9999,808684668
94,8,22,Ticks_Phase_8,57,9999,9999,9999,809484380
94,8,22,Ticks_Phase_8,58,9999,9999,9999,810284088
94,8,22,Ticks_Phase_8,59,9999,9999,9999,811084920
94,8,22,Ticks_Phase_8,60,9999,9999,9999,811884628
94,8,22,Ticks_Phase_8,61,9999,9999,9999,812684416
94,8,22,Ticks_Phase_8,62,9999,9999,9999,813484152
94,8,22,Ticks_Phase_8,63,9999,9999,9999,814284916
94,8,22,Ticks_Phase_8,64,9999,9999,9999,815124596
94,8,22,Ticks_Phase_8,65,9999,9999,9999,815924324
94,8,22,Ticks_Phase_8,66,9999,9999,9999,816725084
94,8,22,Ticks_Phase_8,67,9999,9999,9999,817524796
94,8,22,Ticks_Phase_8,68,9999,9999,9999,818324580
94,8,22,Ticks_Phase_8,69,9999,9999,9999,819124316
94,8,22,Ticks_Phase_8,70,9999,9999,9999,819925080
94,8,22,Ticks_Phase_8,71,9999,9999,9999,820724792
94,8,22,Ticks_Phase_8,72,9999,9999,9999,821524572
94,8,22,Ticks_Phase_8,73,9999,9999,9999,822324284
94,8,22,Ticks_Phase_8,74,9999,9999,9999,823125116
94,8,22,Ticks_Phase_8,75,9999,9999,9999,823924836
94,8,22,Ticks_Phase_8,76,9999,9999,9999,824724548
94,8,22,Ticks_Phase_8,77,9999,9999,9999,825524280
94,8,22,Ticks_Phase_8,78,9999,9999,9999,826325112
94,8,22,Ticks_Phase_8,79,9999,9999,9999,827124824
94,8,22,Ticks_Phase_8,80,9999,9999,9999,827924540
94,8,22,Ticks_Phase_8,81,9999,9999,9999,828684344
94,8,22,Ticks_Phase_8,82,9999,9999,9999,829484128
94,8,22,Ticks_Phase_8,83,9999,9999,9999,830284868
94,8,22,Ticks_Phase_8,84,9999,9999,9999,831084672
94,8,22,Ticks_Phase_8,85,9999,9999,9999,831884384
94,8,22,Ticks_Phase_8,86,9999,9999,9999,832684120
94,8,22,Ticks_Phase_8,87,9999,9999,9999,833484880
94,8,22,Ticks_Phase_8,88,9999,9999,9999,834284664
94,8,22,Ticks_Phase_8,89,9999,9999,9999,835084356
94,8,22,Ticks_Phase_8,90,9999,9999,9999,835884120
94,8,22,Ticks_Phase_8,91,9999,9999,9999,836684880
94,8,22,Ticks_Phase_8,92,9999,9999,9999,837484644
94,8,22,Ticks_Phase_8,93,9999,9999,9999,838284356
94,8,22,Ticks_Phase_8,94,9999,9999,9999,839084092
94,8,22,Ticks_Phase_8,95,9999,9999,9999,839884880
94,8,22,Ticks_Phase_8,96,9999,9999,9999,840684668
94,8,22,Ticks_Phase_8,97,9999,9999,9999,841404536
94,8,22,Ticks_Phase_8,98,9999,9999,9999,842204272
94,8,22,Ticks_Phase_8,99,9999,9999,9999,843005012
94,8,22,Ticks_Phase_8,100,9999,9999,9999,843804760
94,8,22,Ticks_Phase_8,101,9999,9999,9999,844604540
94,8,22,Ticks_Phase_8,102,9999,9999,9999,845404228
94,8,22,Ticks_Phase_8,103,9999,9999,9999,846204992
94,8,22,Ticks_Phase_8,104,9999,9999,9999,847004760
94,8,22,Ticks_Phase_8,105,9999,9999,9999,847804488
94,8,22,Ticks_Phase_8,106,9999,9999,9999,848604272
94,8,22,Ticks_Phase_8,107,9999,9999,9999,849405008
94,8,22,Ticks_Phase_8,108,9999,9999,9999,850204796
94,8,22,Ticks_Phase_8,109,9999,9999,9999,851004516
94,8,22,Ticks_Phase_8,110,9999,9999,9999,851804220
94,8,22,Ticks_Phase_8,111,9999,9999,9999,852605032
94,8,22,Ticks_Phase_8,112,9999,9999,9999,853404796
94,8,22,Ticks_Phase_8,113,9999,9999,9999,854204532
94,8,22,Ticks_Phase_8,114,9999,9999,9999,855084136
94,8,22,Ticks_Phase_8,115,9999,9999,9999,855884896
94,8,22,Ticks_Phase_8,116,9999,9999,9999,856684620
94,8,22,Ticks_Phase_8,117,9999,9999,9999,857484408
94,8,22,Ticks_Phase_8,118,9999,9999,9999,858284160
94,8,22,Ticks_Phase_8,119,9999,9999,9999,859084908
94,8,22,Ticks_Phase_8,120,9999,9999,9999,859884620
94,8,22,Ticks_Phase_8,121,9999,9999,9999,860684388
94,8,22,Ticks_Phase_8,122,9999,9999,9999,861484100
94,8,22,Ticks_Phase_8,123,9999,9999,9999,862284876
94,8,22,Ticks_Phase_8,124,9999,9999,9999,863084660
94,8,22,Ticks_Phase_8,125,9999,9999,9999,863884372
94,8,22,Ticks_Phase_8,126,9999,9999,9999,864684108
94,8,22,Ticks_Phase_8,127,9999,9999,9999,865484868
94,8,22,Ticks_Phase_8,128,9999,9999,9999,866284652
94,8,22,Ticks_Phase_8,129,9999,9999,9999,867084344
94,8,22,Ticks_Phase_8,130,9999,9999,9999,867884132
94,8,22,Ticks_Phase_8,131,9999,9999,9999,868844636
94,8,22,Ticks_Phase_8,132,9999,9999,9999,869644372
94,8,22,Ticks_Phase_8,133,9999,9999,9999,870444152
94,8,22,Ticks_Phase_8,134,9999,9999,9999,871244908
94,8,22,Ticks_Phase_8,135,9999,9999,9999,872044620
94,8,22,Ticks_Phase_8,136,9999,9999,9999,872844408
94,8,22,Ticks_Phase_8,137,9999,9999,9999,873644152
94,8,22,Ticks_Phase_8,138,9999,9999,9999,874444908
94,8,22,Ticks_Phase_8,139,9999,9999,9999,875244624
94,8,22,Ticks_Phase_8,140,9999,9999,9999,876044388
94,8,22,Ticks_Phase_8,141,9999,9999,9999,876844112
94,8,22,Ticks_Phase_8,142,9999,9999,9999,877644880
94,8,22,Ticks_Phase_8,143,9999,9999,9999,878444656
94,8,22,Ticks_Phase_8,144,9999,9999,9999,879244368
94,8,22,Ticks_Phase_8,145,9999,9999,9999,880044104
94,8,22,Ticks_Phase_8,146,9999,9999,9999,880844860
94,8,22,Ticks_Phase_8,147,9999,9999,9999,881644656
94,8,22,Ticks_Phase_8,148,9999,9999,9999,882444344
94,8,22,Ticks_Phase_8,149,9999,9999,9999,883244132
94,8,22,Ticks_Phase_8,150,9999,9999,9999,883884132
94,8,22,Ticks_Phase_8,151,9999,9999,9999,884684884
94,8,22,Ticks_Phase_8,152,9999,9999,9999,885484656
94,8,22,Ticks_Phase_8,153,9999,9999,9999,886284384
94,8,22,Ticks_Phase_8,154,9999,9999,9999,887084152
94,8,22,Ticks_Phase_8,155,9999,9999,9999,887884912
94,8,22,Ticks_Phase_8,156,9999,9999,9999,888684624
94,8,22,Ticks_Phase_8,157,9999,9999,9999,889484352
94,8,22,Ticks_Phase_8,158,9999,9999,9999,890284096
94,8,22,Ticks_Phase_8,159,9999,9999,9999,891084924
94,8,22,Ticks_Phase_8,160,9999,9999,9999,891884620
94,8,22,Ticks_Phase_8,161,9999,9999,9999,892684348
94,8,22,Ticks_Phase_8,162,9999,9999,9999,893484140
94,8,22,Ticks_Phase_8,163,9999,9999,9999,894284892
94,8,22,Ticks_Phase_8,164,9999,9999,9999,895084604
94,8,22,Ticks_Phase_8,165,9999,9999,9999,895884376
94,8,22,Ticks_Phase_8,166,9999,9999,9999,896684108
94,8,22,Ticks_Phase_8,167,9999,9999,9999,897484868
94,8,22,Ticks_Phase_8,168,9999,9999,9999,898284672
94,8,22,Ticks_Phase_8,169,9999,9999,9999,899084388
94,9,21,Ticks_Linear_5,0,5,42,127,910925112
94,9,21,Ticks_Linear_5,1,5,42,127,911405364
94,9,21,Ticks_Linear_5,2,5,42,127,911894900
94,9,21,Ticks_Linear_5,3,5,42,127,912375072
94,9,21,Ticks_Linear_5,4,1,48,52,912848912
94,9,21,Ticks_Linear_5,5,5,42,127,912855688
94,9,21,Ticks_Linear_5,6,1,48,43,913324052
94,9,21,Ticks_Linear_5,7,5,42,127,913344832
94,9,21,Ticks_Linear_5,8,1,48,36,913798108
94,9,21,Ticks_Linear_5,9,5,42,127,913835544
94,9,21,Ticks_Linear_5,10,1,48,43,914283136
94,9,21,Ticks_Linear_5,11,5,42,127,914324884
94,9,21,Ticks_Linear_5,12,1,48,48,914802664
94,9,21,Ticks_Linear_5,13,5,42,127,914815224
94,9,21,Ticks_Linear_5,14,1,48,45,915291584
94,9,21,Ticks_Linear_5,15,5,42,127,915304812
94,9,21,Ticks_Linear_5,16,5,42,127,915804592
94,9,21,Ticks_Linear_5,17,1,48,46,915810628
94,9,21,Ticks_Linear_5,18,1,48,39,916285072
94,9,21,Ticks_Linear_5,19,5,42,127,916305256
94,9,21,Ticks_Linear_5,20,1,48,47,916784624
94,9,21,Ticks_Linear_5,21,5,42,127,916805032
94,9,21,Ticks_Linear_5,22,1,48,46,917262372
94,9,21,Ticks_Linear_5,23,5,42,127,917304656
94,9,21,Ticks_Linear_5,24,1,48,53,917762532
94,9,21,Ticks_Linear_5,25,5,42,127,917805552
94,9,21,Ticks_Linear_5,26,1,48,49,918258036
94,9,21,Ticks_Linear_5,27,5,42,127,918324724
94,9,21,Ticks_Linear_5,28,1,48,54,918779004
94,9,21,Ticks_Linear_5,29,5,42,127,918834832
94,9,21,Ticks_Linear_5,30,1,48,55,919305440
94,9,21,Ticks_Linear_5,31,5,42,127,919344496
94,9,21,Ticks_Linear_5,32,1,48,49,919815548
94,9,21,Ticks_Linear_5,33,5,42,127,919854452
94,9,21,Ticks_Linear_5,34,1,48,44,920339580
94,9,21,Ticks_Linear_5,35,5,42,127,920365684
94,9,21,Ticks_Linear_5,36,1,48,43,920835392
94,9,21,Ticks_Linear_5,37,5,42,127,920894740
94,9,21,Ticks_Linear_5,38,1,48,41,921372076
94,9,21,Ticks_Linear_5,39,5,42,127,921414960
94,9,21,Ticks_Linear_5,40,1,48,48,921869232
94,9,21,Ticks_Linear_5,41,5,42,127,921935104
94,9,21,Ticks_Linear_5,42,1,48,36,922440752
94,9,21,Ticks_Linear_5,43,5,42,127,922455620
94,9,21,Ticks_Linear_5,44,1,48,50,922968236
94,9,21,Ticks_Linear_5,45,5,42,127,922974868
94,9,21,Ticks_Linear_5,46,1,48,46,923475876
94,9,21,Ticks_Linear_5,47,5,42,127,923504900
94,9,21,Ticks_Linear_5,48,1,48,41,924019760
94,9,21,Ticks_Linear_5,49,5,42,127,924034628
94,9,21,Ticks_Linear_5,50,1,48,49,924501776
94,9,21,Ticks_Linear_5,51,5,42,127,924564880
94,9,21,Ticks_Linear_5,52,1,48,42,925058020
94,9,21,Ticks_Linear_5,53,5,42,127,925095456
94,9,21,Ticks_Linear_5,54,1,48,46,925566040
94,9,21,Ticks_Linear_5,55,5,42,127,925624588
94,9,21,Ticks_Linear_5,56,1,48,44,926098232
94,9,21,Ticks_Linear_5,57,5,42,127,926165472
94,9,21,Ticks_Linear_5,58,1,48,46,926659592
94,9,21,Ticks_Linear_5,59,5,42,127,926705088
94,9,21,Ticks_Linear_5,60,1,48,42,927200100
94,9,21,Ticks_Linear_5,61,5,42,127,927244556
94,9,21,Ticks_Linear_5,62,1,48,30,927737620
94,9,21,Ticks_Linear_5,63,5,42,127,927785292
94,9,21,Ticks_Linear_5,64,1,48,40,928308688
94,9,21,Ticks_Linear_5,65,5,42,127,928324908
94,9,21,Ticks_Linear_5,66,1,48,39,928853016
94,9,21,Ticks_Linear_5,67,5,42,127,928874932
94,9,21,Ticks_Linear_5,68,1,48,51,929375416
94,9,21,Ticks_Linear_5,69,5,42,127,929424732
94,9,21,Ticks_Linear_5,70,1,48,43,929936672
94,9,21,Ticks_Linear_5,71,5,42,127,929974776
94,9,21,Ticks_Linear_5,72,1,48,42,930484624
94,9,21,Ticks_Linear_5,73,5,42,127,930524652
94,9,21,Ticks_Linear_5,74,1,48,47,931043784
94,9,21,Ticks_Linear_5,75,5,42,127,931074376
94,9,21,Ticks_Linear_5,76,1,48,51,931578452
94,9,21,Ticks_Linear_5,77,5,42,127,931634656
94,9,21,Ticks_Linear_5,78,1,48,50,932154016
94,9,21,Ticks_Linear_5,79,5,42,127,932194568
94,9,21,Ticks_Linear_5,80,5,42,127,932754856
94,9,21,Ticks_Linear_5,81,1,48,45,932755896
94,9,21,Ticks_Linear_5,82,1,48,49,933256904
94,9,21,Ticks_Linear_5,83,5,42,127,933315080
94,9,21,Ticks_Linear_5,84,1,48,48,933845072
94,9,21,Ticks_Linear_5,85,5,42,127,933874988
94,9,21,Ticks_Linear_5,86,1,48,52,934343800
94,9,21,Ticks_Linear_5,87,5,42,127,934445816
94,9,21,Ticks_Linear_5,88,1,48,57,934959640
94,9,21,Ticks_Linear_5,89,5,42,127,935025060
94,9,21,Ticks_Linear_5,90,1,48,57,935564488
94,9,21,Ticks_Linear_5,91,5,42,127,935595476
94,9,21,Ticks_Linear_5,92,1,48,49,936122780
94,9,21,Ticks_Linear_5,93,5,42,127,936164676
94,9,21,Ticks_Linear_5,94,1,48,50,936705668
94,9,21,Ticks_Linear_5,95,5,42,127,936734992
94,9,21,Ticks_Linear_5,96,1,48,49,937261680
94,9,21,Ticks_Linear_5,97,5,42,127,937314596
94,9,21,Ticks_Linear_5,98,1,48,55,937775988
94,9,21,Ticks_Linear_5,99,5,42,127,937895556
94,9,21,Ticks_Linear_5,100,1,48,52,938451840
94,9,21,Ticks_Linear_5,101,5,42,127,938474732
94,9,21,Ticks_Linear_5,102,1,48,50,938986968
94,9,21,Ticks_Linear_5,103,5,42,127,939054632
94,9,21,Ticks_Linear_5,104,1,48,48,939574812
94,9,21,Ticks_Linear_5,105,5,42,127,939635208
94,9,21,Ticks_Linear_5,106,1,48,43,940192524
94,9,21,Ticks_Linear_5,107,5,42,127,940225100
94,9,21,Ticks_Linear_5,108,1,48,48,940756508
94,9,21,Ticks_Linear_5,109,5,42,127,940814664
94,9,21,Ticks_Linear_5,110,1,48,40,941390180
94,9,21,Ticks_Linear_5,111,5,42,127,941404604
94,9,21,Ticks_Linear_5,112,1,48,48,941991820
94,9,21,Ticks_Linear_5,113,5,42,127,941995464
94,9,21,Ticks_Linear_5,114,1,48,46,942505460
94,9,21,Ticks_Linear_5,115,5,42,127,942585480
94,9,21,Ticks_Linear_5,116,1,48,47,943139504
94,9,21,Ticks_Linear_5,117,5,42,127,943185452
94,9,21,Ticks_Linear_5,118,1,48,46,943737236
94,9,21,Ticks_Linear_5,119,5,42,127,943785448
94,9,21,Ticks_Linear_5,120,1,48,44,944355508
94,9,21,Ticks_Linear_5,121,5,42,127,944385500
94,9,21,Ticks_Linear_5,122,1,48,26,944407928
94,9,21,Ticks_Linear_5,123,1,48,51,944926324
94,9,21,Ticks_Linear_5,124,5,42,127,944984328
94,9,21,Ticks_Linear_5,125,1,48,51,945539328
94,9,21,Ticks_Linear_5,126,5,42,127,945584404
94,9,21,Ticks_Linear_5,127,1,48,42,946110568
94,9,21,Ticks_Linear_5,128,5,42,127,946194860
94,9,21,Ticks_Linear_5,129,1,48,51,946708444
94,9,21,Ticks_Linear_5,130,5,42,127,946805152
94,9,21,Ticks_Linear_5,131,1,48,52,947361732
94,9,21,Ticks_Linear_5,132,1,48,40,947392364
94,9,21,Ticks_Linear_5,133,5,42,127,947415328
94,9,21,Ticks_Linear_5,134,1,48,49,947969428
94,9,21,Ticks_Linear_5,135,5,42,127,948024664
94,9,21,Ticks_Linear_5,136,1,48,49,948570448
94,9,21,Ticks_Linear_5,137,5,42,127,948634896
94,9,21,Ticks_Linear_5,138,1,48,46,949149904
94,9,21,Ticks_Linear_5,139,5,42,127,949254500
94,9,21,Ticks_Linear_5,140,1,48,51,949768552
94,9,21,Ticks_Linear_5,141,5,42,127,949875216
94,9,21,Ticks_Linear_5,142,1,48,46,950405372
94,9,21,Ticks_Linear_5,143,5,42,127,950494628
94,9,21,Ticks_Linear_5,144,1,48,44,951066852
94,9,21,Ticks_Linear_5,145,5,42,127,951115264
94,9,21,Ticks_Linear_5,146,1,48,44,951685176
94,9,21,Ticks_Linear_5,147,5,42,127,951734664
94,9,21,Ticks_Linear_5,148,1,48,41,952289288
94,9,21,Ticks_Linear_5,149,5,42,127,952365412
94,9,21,Ticks_Linear_5,150,1,48,51,952920856
94,9,21,Ticks_Linear_5,151,5,42,127,953005328
94,9,21,Ticks_Linear_5,152,1,48,48,953558900
94,9,21,Ticks_Linear_5,153,5,42,127,953645292
94,9,21,Ticks_Linear_5,154,1,48,43,954118960
94,9,21,Ticks_Linear_5,155,5,42,127,954285564
94,9,21,Ticks_Linear_5,156,1,48,51,954838184
94,9,21,Ticks_Linear_5,157,5,42,127,954925396
94,9,21,Ticks_Linear_5,158,1,48,46,955533572
94,9,21,Ticks_Linear_5,159,5,42,127,955565384
94,9,21,Ticks_Linear_5,160,1,48,51,956175652
94,9,21,Ticks_Linear_5,161,5,42,127,956205496
94,9,21,Ticks_Linear_5,162,1,48,38,956776000
94,9,21,Ticks_Linear_5,163,5,42,127,956845408
94,9,21,Ticks_Linear_5,164,1,48,47,957446768
94,9,21,Ticks_Linear_5,165,5,42,127,957485448
94,9,21,Ticks_Linear_5,166,1,48,48,958098564
94,9,21,Ticks_Linear_5,167,5,42,127,958125436
94,9,21,Ticks_Linear_5,168,1,48,41,958721396
94,9,21,Ticks_Linear_5,169,5,42,127,958784944
94,9,21,Ticks_Linear_5,170,1,48,44,959403024
94,9,21,Ticks_Linear_5,171,5,42,127,959435268
94,9,21,Ticks_Linear_5,172,1,48,40,960061856
94,9,21,Ticks_Linear_5,173,5,42,127,960085492
94,9,21,Ticks_Linear_5,174,1,48,35,960652320
94,9,21,Ticks_Linear_5,175,5,42,127,960734616
94,9,21,Ticks_Linear_5,176,1,48,42,961312744
94,9,21,Ticks_Linear_5,177,5,42,127,961384764
94,9,21,Ticks_Linear_5,178,1,48,46,961977980
94,9,21,Ticks_Linear_5,179,5,42,127,962045496
94,9,21,Ticks_Linear_5,180,1,48,49,962698072
94,9,21,Ticks_Linear_5,181,5,42,127,962704856
94,9,21,Ticks_Linear_5,182,1,48,33,963314400
94,9,21,Ticks_Linear_5,183,5,42,127,963365436
94,9,21,Ticks_Linear_5,184,1,48,44,963964328
94,9,21,Ticks_Linear_5,185,5,42,127,964024824
94,9,21,Ticks_Linear_5,186,1,48,34,964619364
94,9,21,Ticks_Linear_5,187,5,42,127,964685376
94,9,21,Ticks_Linear_5,188,1,48,37,965317164
94,9,21,Ticks_Linear_5,189,5,42,127,965355020
94,9,21,Ticks_Linear_5,190,1,48,30,965958028
94,9,21,Ticks_Linear_5,191,5,42,127,966024496
94,9,21,Ticks_Linear_5,192,1,48,48,966625800
94,9,21,Ticks_Linear_5,193,5,42,127,966695260
94,9,21,Ticks_Linear_5,194,1,48,46,967244272
94,9,21,Ticks_Linear_5,195,5,42,127,967365260
94,9,21,Ticks_Linear_5,196,5,42,127,968034604
94,9,21,Ticks_Linear_5,197,1,48,41,968066784
94,9,21,Ticks_Linear_5,198,5,42,127,968714656
94,9,21,Ticks_Linear_5,199,1,48,44,968753800
94,9,21,Ticks_Linear_5,200,5,42,127,969394560
94,9,21,Ticks_Linear_5,201,1,48,43,969406292
94,9,21,Ticks_Linear_5,202,1,48,43,970069744
94,9,21,Ticks_Linear_5,203,5,42,127,970074508
94,9,21,Ticks_Linear_5,204,1,48,48,970713116
94,9,21,Ticks_Linear_5,205,5,42,127,970754488
94,9,21,Ticks_Linear_5,206,5,42,127,971435372
94,9,21,Ticks_Linear_5,207,1,48,38,971450316
94,9,21,Ticks_Linear_5,208,1,48,45,972111004
94,9,21,Ticks_Linear_5,209,5,42,127,972124604
94,9,21,Ticks_Linear_5,210,1,48,48,972790984
94,9,21,Ticks_Linear_5,211,5,42,127,972814840
94,9,21,Ticks_Linear_5,212,1,48,47,973454544
94,9,21,Ticks_Linear_5,213,5,42,127,973504856
94,9,21,Ticks_Linear_5,214,1,48,24,973517248
94,9,21,Ticks_Linear_5,215,1,48,57,974114428
94,9,21,Ticks_Linear_5,216,5,42,127,974195268
94,9,21,Ticks_Linear_5,217,1,48,48,974841056
94,9,21,Ticks_Linear_5,218,5,42,127,974885436
94,9,21,Ticks_Linear_5,219,1,48,53,975520636
94,9,21,Ticks_Linear_5,220,5,42,127,975584584
94,9,21,Ticks_Linear_5,221,1,48,48,976181140
94,9,21,Ticks_Linear_5,222,5,42,127,976285188
94,9,21,Ticks_Linear_5,223,1,48,49,976871080
94,9,21,Ticks_Linear_5,224,5,42,127,976984416
94,9,21,Ticks_Linear_5,225,1,48,47,977619432
94,9,21,Ticks_Linear_5,226,5,42,127,977685152
94,9,21,Ticks_Linear_5,227,1,48,58,978272660
94,9,21,Ticks_Linear_5,228,1,48,38,978312848
94,9,21,Ticks_Linear_5,229,5,42,127,978385256
94,9,21,Ticks_Linear_5,230,1,48,43,979060072
94,9,21,Ticks_Linear_5,231,5,42,127,979094936
94,9,21,Ticks_Linear_5,232,1,48,46,979727096
94,9,21,Ticks_Linear_5,233,5,42,127,979804496
94,9,21,Ticks_Linear_5,234,1,48,45,980426848
94,9,21,Ticks_Linear_5,235,5,42,127,980515176
94,9,21,Ticks_Linear_5,236,1,48,41,981163888
94,9,21,Ticks_Linear_5,237,5,42,127,981225032
94,9,21,Ticks_Linear_5,238,1,48,44,981876868
94,9,21,Ticks_Linear_5,239,5,42,127,981934596
94,9,21,Ticks_Linear_5,240,1,48,37,982596764
94,9,21,Ticks_Linear_5,241,5,42,127,982655436
94,9,21,Ticks_Linear_5,242,1,48,42,983243464
94,9,21,Ticks_Linear_5,243,5,42,127,983375140
94,9,21,Ticks_Linear_5,244,1,48,47,983968572
94,9,21,Ticks_Linear_5,245,5,42,127,984095036
94,9,21,Ticks_Linear_5,246,1,48,49,984671160
94,9,21,Ticks_Linear_5,247,5,42,127,984814928
94,9,21,Ticks_Linear_5,248,1,48,50,985434796
94,9,21,Ticks_Linear_5,249,5,42,127,985534968
94,9,21,Ticks_Linear_5,250,1,48,51,986117620
94,9,21,Ticks_Linear_5,251,5,42,127,986265172
94,9,21,Ticks_Linear_5,252,1,48,41,986826428
94,9,21,Ticks_Linear_5,253,5,42,127,986995028
94,9,21,Ticks_Linear_5,254,1,48,48,987689428
94,9,21,Ticks_Linear_5,255,5,42,127,987725120
94,9,21,Ticks_Linear_5,256,5,42,127,988455276
94,9,21,Ticks_Linear_5,257,1,48,50,988496516
94,9,21,Ticks_Linear_5,258,5,42,127,989185280
94,9,21,Ticks_Linear_5,259,1,48,34,989227044
94,9,21,Ticks_Linear_5,260,5,42,127,989924872
94,9,21,Ticks_Linear_5,261,1,48,46,989925912
94,9,21,Ticks_Linear_5,262,5,42,127,990665132
94,9,21,Ticks_Linear_5,263,1,48,44,990667504
94,9,21,Ticks_Linear_5,264,1,48,50,991393824
94,9,21,Ticks_Linear_5,265,5,42,127,991405392
94,9,21,Ticks_Linear_5,266,1,48,48,992093472
94,9,21,Ticks_Linear_5,267,5,42,127,992155212
94,9,21,Ticks_Linear_5,268,1,48,48,992833884
94,9,21,Ticks_Linear_5,269,5,42,127,992895400
94,9,21,Ticks_Linear_5,270,1,48,50,993529504
94,9,21,Ticks_Linear_5,271,5,42,127,993645008
94,9,21,Ticks_Linear_5,272,1,48,45,994290136
94,9,21,Ticks_Linear_5,273,5,42,127,994394412
94,9,21,Ticks_Linear_5,274,1,48,54,995048152
94,9,21,Ticks_Linear_5,275,5,42,127,995145096
94,9,21,Ticks_Linear_5,276,1,48,43,995788040
94,9,21,Ticks_Linear_5,277,5,42,127,995894632
94,9,21,Ticks_Linear_5,278,1,48,46,996496828
94,9,21,Ticks_Linear_5,279,5,42,127,996645156
94,9,21,Ticks_Linear_5,280,1,48,49,997311320
94,9,21,Ticks_Linear_5,281,5,42,127,997405188
94,9,21,Ticks_Linear_5,282,1,48,41,998079220
94,9,21,Ticks_Linear_5,283,5,42,127,998165084
94,9,21,Ticks_Linear_5,284,1,48,48,998844952
94,9,21,Ticks_Linear_5,285,5,42,127,998924672
94,9,21,Ticks_Linear_5,286,1,48,44,999608728
94,9,21,Ticks_Linear_5,287,5,42,127,999684332
94,9,21,Ticks_Linear_5,288,1,48,44,1000339004
94,9,21,Ticks_Linear_5,289,5,42,127,1000445396
94,9,21,Ticks_Linear_5,290,1,48,49,1001093576
94,9,21,Ticks_Linear_5,291,5,42,127,1001215240
94,9,21,Ticks_Linear_5,292,1,48,52,1001843644
94,9,21,Ticks_Linear_5,293,5,42,127,1001985380
94,9,21,Ticks_Linear_5,294,1,48,51,1002625768
94,9,21,Ticks_Linear_5,295,5,42,127,1002754400
94,9,21,Ticks_Linear_5,296,1,48,43,1003438100
94,9,21,Ticks_Linear_5,297,5,42,127,1003524556
94,9,21,Ticks_Linear_5,298,1,48,47,1004260280
94,9,21,Ticks_Linear_5,299,5,42,127,1004294628
94,9,21,Ticks_Linear_5,300,1,48,44,1005012896
94,9,21,Ticks_Linear_5,301,5,42,127,1005074952
94,9,21,Ticks_Linear_5,302,1,48,43,1005720864
94,9,21,Ticks_Linear_5,303,5,42,127,1005855188
94,9,21,Ticks_Linear_5,304,1,48,47,1006442252
94,9,21,Ticks_Linear_5,305,5,42,127,1006635440
94,9,21,Ticks_Linear_5,306,1,48,47,1007339956
94,9,21,Ticks_Linear_5,307,5,42,127,1007414736
94,9,21,Ticks_Linear_5,308,1,48,42,1008169040
94,9,21,Ticks_Linear_5,309,5,42,127,1008194840
94,9,21,Ticks_Linear_5,310,1,48,39,1008923912
94,9,21,Ticks_Linear_5,311,5,42,127,1008984380
94,9,21,Ticks_Linear_5,312,1,48,41,1009650088
94,9,21,Ticks_Linear_5,313,5,42,127,1009774952
94,9,21,Ticks_Linear_5,314,1,48,41,1010425176
94,9,21,Ticks_Linear_5,315,5,42,127,1010564416
94,9,21,Ticks_Linear_5,316,1,48,47,1011238004
94,9,21,Ticks_Linear_5,317,5,42,127,1011355076
94,9,21,Ticks_Linear_5,318,1,48,46,1012055400
94,9,21,Ticks_Linear_5,319,5,42,127,1012144508
94,9,21,Ticks_Linear_5,320,1,48,40,1012820592
94,9,21,Ticks_Linear_5,321,5,42,127,1012945260
94,9,21,Ticks_Linear_5,322,1,48,43,1013526336
94,9,21,Ticks_Linear_5,323,5,42,127,1013744984
94,9,21,Ticks_Linear_5,324,1,48,40,1014200316
94,9,21,Ticks_Linear_5,325,5,42,127,1014544856
94,9,21,Ticks_Linear_5,326,1,48,35,1014961920
94,9,21,Ticks_Linear_5,327,5,42,127,1015344728
94,9,21,Ticks_Linear_5,328,1,48,37,1015848296
94,9,21,Ticks_Linear_5,329,5,42,127,1016145204
94,9,21,Ticks_Linear_5,330,1,48,36,1016636940
94,9,21,Ticks_Linear_5,331,5,42,127,1016955188
94,9,21,Ticks_Linear_5,332,5,42,127,1017765216
94,9,21,Ticks_Linear_5,333,5,42,127,1018575296
94,9,21,Ticks_Linear_5,334,5,42,127,1019385076
94,9,21,Ticks_Linear_5,335,1,48,33,1019418828
94,9,21,Ticks_Linear_5,336,1,48,49,1020156740
94,9,21,Ticks_Linear_5,337,5,42,127,1020195128
94,9,21,Ticks_Linear_5,0,9999,9999,9999,910922812
94,9,21,Ticks_Linear_5,1,9999,9999,9999,911403064
94,9,21,Ticks_Linear_5,2,9999,9999,9999,911892600
94,9,21,Ticks_Linear_5,3,9999,9999,9999,912372848
94,9,21,Ticks_Linear_5,4,9999,9999,9999,912853092
94,9,21,Ticks_Linear_5,5,9999,9999,9999,913342532
94,9,21,Ticks_Linear_5,6,9999,9999,9999,913833020
94,9,21,Ticks_Linear_5,7,9999,9999,9999,914322512
94,9,21,Ticks_Linear_5,8,9999,9999,9999,914813000
94,9,21,Ticks_Linear_5,9,9999,9999,9999,915302512
94,9,21,Ticks_Linear_5,10,9999,9999,9999,915802220
94,9,21,Ticks_Linear_5,11,9999,9999,9999,916302960
94,9,21,Ticks_Linear_5,12,9999,9999,9999,916802660
94,9,21,Ticks_Linear_5,13,9999,9999,9999,917302356
94,9,21,Ticks_Linear_5,14,9999,9999,9999,917803104
94,9,21,Ticks_Linear_5,15,9999,9999,9999,918322276
94,9,21,Ticks_Linear_5,16,9999,9999,9999,918832236
94,9,21,Ticks_Linear_5,17,9999,9999,9999,919342196
94,9,21,Ticks_Linear_5,18,9999,9999,9999,919852156
94,9,21,Ticks_Linear_5,19,9999,9999,9999,920363084
94,9,21,Ticks_Linear_5,20,9999,9999,9999,920892520
94,9,21,Ticks_Linear_5,21,9999,9999,9999,921412736
94,9,21,Ticks_Linear_5,22,9999,9999,9999,921932880
94,9,21,Ticks_Linear_5,23,9999,9999,9999,922453100
94,9,21,Ticks_Linear_5,24,9999,9999,9999,922972268
94,9,21,Ticks_Linear_5,25,9999,9999,9999,923502676
94,9,21,Ticks_Linear_5,26,9999,9999,9999,924032104
94,9,21,Ticks_Linear_5,27,9999,9999,9999,924562508
94,9,21,Ticks_Linear_5,28,9999,9999,9999,925092936
94,9,21,Ticks_Linear_5,29,9999,9999,9999,925622364
94,9,21,Ticks_Linear_5,30,9999,9999,9999,926163024
94,9,21,Ticks_Linear_5,31,9999,9999,9999,926702716
94,9,21,Ticks_Linear_5,32,9999,9999,9999,927242332
94,9,21,Ticks_Linear_5,33,9999,9999,9999,927782992
94,9,21,Ticks_Linear_5,34,9999,9999,9999,928322684
94,9,21,Ticks_Linear_5,35,9999,9999,9999,928872560
94,9,21,Ticks_Linear_5,36,9999,9999,9999,929422432
94,9,21,Ticks_Linear_5,37,9999,9999,9999,929972332
94,9,21,Ticks_Linear_5,38,9999,9999,9999,930522204
94,9,21,Ticks_Linear_5,39,9999,9999,9999,931072076
94,9,21,Ticks_Linear_5,40,9999,9999,9999,931632212
94,9,21,Ticks_Linear_5,41,9999,9999,9999,932192344
94,9,21,Ticks_Linear_5,42,9999,9999,9999,932752480
94,9,21,Ticks_Linear_5,43,9999,9999,9999,933312632
94,9,21,Ticks_Linear_5,44,9999,9999,9999,933872764
94,9,21,Ticks_Linear_5,45,9999,9999,9999,934443068
94,9,21,Ticks_Linear_5,46,9999,9999,9999,935022688
94,9,21,Ticks_Linear_5,47,9999,9999,9999,935593032
94,9,21,Ticks_Linear_5,48,9999,9999,9999,936162376
94,9,21,Ticks_Linear_5,49,9999,9999,9999,936732768
94,9,21,Ticks_Linear_5,50,9999,9999,9999,937312372
94,9,21,Ticks_Linear_5,51,9999,9999,9999,937892960
94,9,21,Ticks_Linear_5,52,9999,9999,9999,938472508
94,9,21,Ticks_Linear_5,53,9999,9999,9999,939052112
94,9,21,Ticks_Linear_5,54,9999,9999,9999,939632760
94,9,21,Ticks_Linear_5,55,9999,9999,9999,940222576
94,9,21,Ticks_Linear_5,56,9999,9999,9999,940812368
94,9,21,Ticks_Linear_5,57,9999,9999,9999,941402232
94,9,21,Ticks_Linear_5,58,9999,9999,9999,941993016
94,9,21,Ticks_Linear_5,59,9999,9999,9999,942582884
94,9,21,Ticks_Linear_5,60,9999,9999,9999,943182932
94,9,21,Ticks_Linear_5,61,9999,9999,9999,943783000
94,9,21,Ticks_Linear_5,62,9999,9999,9999,944383052
94,9,21,Ticks_Linear_5,63,9999,9999,9999,944982104
94,9,21,Ticks_Linear_5,64,9999,9999,9999,945582180
94,9,21,Ticks_Linear_5,65,9999,9999,9999,946192488
94,9,21,Ticks_Linear_5,66,9999,9999,9999,946802780
94,9,21,Ticks_Linear_5,67,9999,9999,9999,947413104
94,9,21,Ticks_Linear_5,68,9999,9999,9999,948022364
94,9,21,Ticks_Linear_5,69,9999,9999,9999,948632672
94,9,21,Ticks_Linear_5,70,9999,9999,9999,949252200
94,9,21,Ticks_Linear_5,71,9999,9999,9999,949872692
94,9,21,Ticks_Linear_5,72,9999,9999,9999,950492252
94,9,21,Ticks_Linear_5,73,9999,9999,9999,951112820
94,9,21,Ticks_Linear_5,74,9999,9999,9999,951732288
94,9,21,Ticks_Linear_5,75,9999,9999,9999,952363116
94,9,21,Ticks_Linear_5,76,9999,9999,9999,953003104
94,9,21,Ticks_Linear_5,77,9999,9999,9999,953643068
94,9,21,Ticks_Linear_5,78,9999,9999,9999,954283116
94,9,21,Ticks_Linear_5,79,9999,9999,9999,954923096
94,9,21,Ticks_Linear_5,80,9999,9999,9999,955563084
94,9,21,Ticks_Linear_5,81,9999,9999,9999,956203124
94,9,21,Ticks_Linear_5,82,9999,9999,9999,956843112
94,9,21,Ticks_Linear_5,83,9999,9999,9999,957483076
94,9,21,Ticks_Linear_5,84,9999,9999,9999,958123064
94,9,21,Ticks_Linear_5,85,9999,9999,9999,958782572
94,9,21,Ticks_Linear_5,86,9999,9999,9999,959432820
94,9,21,Ticks_Linear_5,87,9999,9999,9999,960083044
94,9,21,Ticks_Linear_5,88,9999,9999,9999,960732244
94,9,21,Ticks_Linear_5,89,9999,9999,9999,961382468
94,9,21,Ticks_Linear_5,90,9999,9999,9999,962042972
94,9,21,Ticks_Linear_5,91,9999,9999,9999,962702408
94,9,21,Ticks_Linear_5,92,9999,9999,9999,963362916
94,9,21,Ticks_Linear_5,93,9999,9999,9999,964022376
94,9,21,Ticks_Linear_5,94,9999,9999,9999,964682856
94,9,21,Ticks_Linear_5,95,9999,9999,9999,965352576
94,9,21,Ticks_Linear_5,96,9999,9999,9999,966022272
94,9,21,Ticks_Linear_5,97,9999,9999,9999,966692960
94,9,21,Ticks_Linear_5,98,9999,9999,9999,967362664
94,9,21,Ticks_Linear_5,99,9999,9999,9999,968032380
94,9,21,Ticks_Linear_5,100,9999,9999,9999,968712284
94,9,21,Ticks_Linear_5,101,9999,9999,9999,969392188
94,9,21,Ticks_Linear_5,102,9999,9999,9999,970072136
94,9,21,Ticks_Linear_5,103,9999,9999,9999,970752116
94,9,21,Ticks_Linear_5,104,9999,9999,9999,971433072
94,9,21,Ticks_Linear_5,105,9999,9999,9999,972122232
94,9,21,Ticks_Linear_5,106,9999,9999,9999,972812392
94,9,21,Ticks_Linear_5,107,9999,9999,9999,973502556
94,9,21,Ticks_Linear_5,108,9999,9999,9999,974192748
94,9,21,Ticks_Linear_5,109,9999,9999,9999,974882912
94,9,21,Ticks_Linear_5,110,9999,9999,9999,975582288
94,9,21,Ticks_Linear_5,111,9999,9999,9999,976282744
94,9,21,Ticks_Linear_5,112,9999,9999,9999,976982116
94,9,21,Ticks_Linear_5,113,9999,9999,9999,977682556
94,9,21,Ticks_Linear_5,114,9999,9999,9999,978382956
94,9,21,Ticks_Linear_5,115,9999,9999,9999,979092564
94,9,21,Ticks_Linear_5,116,9999,9999,9999,979802196
94,9,21,Ticks_Linear_5,117,9999,9999,9999,980512880
94,9,21,Ticks_Linear_5,118,9999,9999,9999,981222512
94,9,21,Ticks_Linear_5,119,9999,9999,9999,981932148
94,9,21,Ticks_Linear_5,120,9999,9999,9999,982652988
94,9,21,Ticks_Linear_5,121,9999,9999,9999,983372916
94,9,21,Ticks_Linear_5,122,9999,9999,9999,984092736
94,9,21,Ticks_Linear_5,123,9999,9999,9999,984812628
94,9,21,Ticks_Linear_5,124,9999,9999,9999,985532520
94,9,21,Ticks_Linear_5,125,9999,9999,9999,986262648
94,9,21,Ticks_Linear_5,126,9999,9999,9999,986992728
94,9,21,Ticks_Linear_5,127,9999,9999,9999,987722820
94,9,21,Ticks_Linear_5,128,9999,9999,9999,988452980
94,9,21,Ticks_Linear_5,129,9999,9999,9999,989183056
94,9,21,Ticks_Linear_5,130,9999,9999,9999,989922424
94,9,21,Ticks_Linear_5,131,9999,9999,9999,990662760
94,9,21,Ticks_Linear_5,132,9999,9999,9999,991403092
94,9,21,Ticks_Linear_5,133,9999,9999,9999,992152692
94,9,21,Ticks_Linear_5,134,9999,9999,9999,992893028
94,9,21,Ticks_Linear_5,135,9999,9999,9999,993642564
94,9,21,Ticks_Linear_5,136,9999,9999,9999,994392188
94,9,21,Ticks_Linear_5,137,9999,9999,9999,995142724
94,9,21,Ticks_Linear_5,138,9999,9999,9999,995892332
94,9,21,Ticks_Linear_5,139,9999,9999,9999,996642928
94,9,21,Ticks_Linear_5,140,9999,9999,9999,997402740
94,9,21,Ticks_Linear_5,141,9999,9999,9999,998162488
94,9,21,Ticks_Linear_5,142,9999,9999,9999,998922300
94,9,21,Ticks_Linear_5,143,9999,9999,9999,999682108
94,9,21,Ticks_Linear_5,144,9999,9999,9999,1000442948
94,9,21,Ticks_Linear_5,145,9999,9999,9999,1001213012
94,9,21,Ticks_Linear_5,146,9999,9999,9999,1001983080
94,9,21,Ticks_Linear_5,147,9999,9999,9999,1002752104
94,9,21,Ticks_Linear_5,148,9999,9999,9999,1003522112
94,9,21,Ticks_Linear_5,149,9999,9999,9999,1004292176
94,9,21,Ticks_Linear_5,150,9999,9999,9999,1005072508
94,9,21,Ticks_Linear_5,151,9999,9999,9999,1005852740
94,9,21,Ticks_Linear_5,152,9999,9999,9999,1006633068
94,9,21,Ticks_Linear_5,153,9999,9999,9999,1007412292
94,9,21,Ticks_Linear_5,154,9999,9999,9999,1008192616
94,9,21,Ticks_Linear_5,155,9999,9999,9999,1008982084
94,9,21,Ticks_Linear_5,156,9999,9999,9999,1009772652
94,9,21,Ticks_Linear_5,157,9999,9999,9999,1010562120
94,9,21,Ticks_Linear_5,158,9999,9999,9999,1011352704
94,9,21,Ticks_Linear_5,159,9999,9999,9999,1012142132
94,9,21,Ticks_Linear_5,160,9999,9999,9999,1012942964
94,9,21,Ticks_Linear_5,161,9999,9999,9999,1013742684
94,9,21,Ticks_Linear_5,162,9999,9999,9999,1014542408
94,9,21,Ticks_Linear_5,163,9999,9999,9999,1015342208
94,9,21,Ticks_Linear_5,164,9999,9999,9999,1016142904
94,9,21,Ticks_Linear_5,165,9999,9999,9999,1016952888
94,9,21,Ticks_Linear_5,166,9999,9999,9999,1017762916
94,9,21,Ticks_Linear_5,167,9999,9999,9999,1018572920
94,9,21,Ticks_Linear_5,168,9999,9999,9999,1019382852
94,9,21,Ticks_Linear_5,169,9999,9999,9999,1020192828
94,10,20,Ticks_Linear_8,0,5,42,127,1031213528
94,10,20,Ticks_Linear_8,1,5,42,127,1032043008
94,10,20,Ticks_Linear_8,2,5,42,127,1032863120
94,10,20,Ticks_Linear_8,3,1,48,51,1033609992
94,10,20,Ticks_Linear_8,4,5,42,127,1033683528
94,10,20,Ticks_Linear_8,5,1,48,46,1034412672
94,10,20,Ticks_Linear_8,6,5,42,127,1034502724
94,10,20,Ticks_Linear_8,7,5,42,127,1035312564
94,10,20,Ticks_Linear_8,8,1,48,46,1035321460
94,10,20,Ticks_Linear_8,9,1,48,44,1036055248
94,10,20,Ticks_Linear_8,10,5,42,127,1036122692
94,10,20,Ticks_Linear_8,11,1,48,45,1036870096
94,10,20,Ticks_Linear_8,12,5,42,127,1036932748
94,10,20,Ticks_Linear_8,13,1,48,43,1037656792
94,10,20,Ticks_Linear_8,14,5,42,127,1037742680
94,10,20,Ticks_Linear_8,15,1,48,45,1038462064
94,10,20,Ticks_Linear_8,16,5,42,127,1038552812
94,10,20,Ticks_Linear_8,17,1,48,41,1039269968
94,10,20,Ticks_Linear_8,18,5,42,127,1039353136
94,10,20,Ticks_Linear_8,19,1,48,50,1040030716
94,10,20,Ticks_Linear_8,20,5,42,127,1040152968
94,10,20,Ticks_Linear_8,21,1,48,41,1040807532
94,10,20,Ticks_Linear_8,22,5,42,127,1040952692
94,10,20,Ticks_Linear_8,23,1,48,36,1041642380
94,10,20,Ticks_Linear_8,24,5,42,127,1041752712
94,10,20,Ticks_Linear_8,25,1,48,47,1042439024
94,10,20,Ticks_Linear_8,26,5,42,127,1042553112
94,10,20,Ticks_Linear_8,27,1,48,44,1043317908
94,10,20,Ticks_Linear_8,28,5,42,127,1043342592
94,10,20,Ticks_Linear_8,29,5,42,127,1044133432
94,10,20,Ticks_Linear_8,30,1,48,43,1044141948
94,10,20,Ticks_Linear_8,31,1,48,40,1044905548
94,10,20,Ticks_Linear_8,32,5,42,127,1044922744
94,10,20,Ticks_Linear_8,33,1,48,43,1045686928
94,10,20,Ticks_Linear_8,34,5,42,127,1045713628
94,10,20,Ticks_Linear_8,35,1,48,45,1046461944
94,10,20,Ticks_Linear_8,36,5,42,127,1046502724
94,10,20,Ticks_Linear_8,37,1,48,45,1047278508
94,10,20,Ticks_Linear_8,38,5,42,127,1047283048
94,10,20,Ticks_Linear_8,39,5,42,127,1048063456
94,10,20,Ticks_Linear_8,40,1,48,42,1048068448
94,10,20,Ticks_Linear_8,41,1,48,46,1048804720
94,10,20,Ticks_Linear_8,42,5,42,127,1048842580
94,10,20,Ticks_Linear_8,43,1,48,41,1049609004
94,10,20,Ticks_Linear_8,44,5,42,127,1049622980
94,10,20,Ticks_Linear_8,45,1,48,47,1050371520
94,10,20,Ticks_Linear_8,46,5,42,127,1050403160
94,10,20,Ticks_Linear_8,47,1,48,47,1051131776
94,10,20,Ticks_Linear_8,48,5,42,127,1051173228
94,10,20,Ticks_Linear_8,49,1,48,45,1051827476
94,10,20,Ticks_Linear_8,50,5,42,127,1051943428
94,10,20,Ticks_Linear_8,51,1,48,41,1052646896
94,10,20,Ticks_Linear_8,52,5,42,127,1052713660
94,10,20,Ticks_Linear_8,53,1,48,38,1053466388
94,10,20,Ticks_Linear_8,54,5,42,127,1053483580
94,10,20,Ticks_Linear_8,55,5,42,127,1054253356
94,10,20,Ticks_Linear_8,56,1,48,40,1054276320
94,10,20,Ticks_Linear_8,57,1,48,37,1055002788
94,10,20,Ticks_Linear_8,58,5,42,127,1055022596
94,10,20,Ticks_Linear_8,59,1,48,36,1055714888
94,10,20,Ticks_Linear_8,60,5,42,127,1055783452
94,10,20,Ticks_Linear_8,61,1,48,32,1056487276
94,10,20,Ticks_Linear_8,62,5,42,127,1056543184
94,10,20,Ticks_Linear_8,63,1,48,39,1057298608
94,10,20,Ticks_Linear_8,64,5,42,127,1057302844
94,10,20,Ticks_Linear_8,65,1,48,45,1058056620
94,10,20,Ticks_Linear_8,66,5,42,127,1058062580
94,10,20,Ticks_Linear_8,67,5,42,127,1058813404
94,10,20,Ticks_Linear_8,68,1,48,42,1058850984
94,10,20,Ticks_Linear_8,69,1,48,36,1059489816
94,10,20,Ticks_Linear_8,70,5,42,127,1059562728
94,10,20,Ticks_Linear_8,71,1,48,40,1060239112
94,10,20,Ticks_Linear_8,72,5,42,127,1060312348
94,10,20,Ticks_Linear_8,73,1,48,45,1061026652
94,10,20,Ticks_Linear_8,74,5,42,127,1061063168
94,10,20,Ticks_Linear_8,75,5,42,127,1061812576
94,10,20,Ticks_Linear_8,76,1,48,44,1061834416
94,10,20,Ticks_Linear_8,77,1,48,36,1062543408
94,10,20,Ticks_Linear_8,78,5,42,127,1062552884
94,10,20,Ticks_Linear_8,79,1,48,42,1063262100
94,10,20,Ticks_Linear_8,80,5,42,127,1063293516
94,10,20,Ticks_Linear_8,81,1,48,45,1064004764
94,10,20,Ticks_Linear_8,82,5,42,127,1064032736
94,10,20,Ticks_Linear_8,83,1,48,40,1064740372
94,10,20,Ticks_Linear_8,84,5,42,127,1064773148
94,10,20,Ticks_Linear_8,85,1,48,44,1065463124
94,10,20,Ticks_Linear_8,86,5,42,127,1065513484
94,10,20,Ticks_Linear_8,87,1,48,42,1066148116
94,10,20,Ticks_Linear_8,88,5,42,127,1066242368
94,10,20,Ticks_Linear_8,89,5,42,127,1066972604
94,10,20,Ticks_Linear_8,90,1,48,35,1066988976
94,10,20,Ticks_Linear_8,91,5,42,127,1067702608
94,10,20,Ticks_Linear_8,92,1,48,40,1067716356
94,10,20,Ticks_Linear_8,93,1,48,46,1068405648
94,10,20,Ticks_Linear_8,94,5,42,127,1068432804
94,10,20,Ticks_Linear_8,95,5,42,127,1069162812
94,10,20,Ticks_Linear_8,96,1,48,39,1069172376
94,10,20,Ticks_Linear_8,97,1,48,40,1069857640
94,10,20,Ticks_Linear_8,98,5,42,127,1069882776
94,10,20,Ticks_Linear_8,99,1,48,23,1069918900
94,10,20,Ticks_Linear_8,100,5,42,127,1070602576
94,10,20,Ticks_Linear_8,101,1,48,49,1070625688
94,10,20,Ticks_Linear_8,102,1,48,45,1071307440
94,10,20,Ticks_Linear_8,103,5,42,127,1071322464
94,10,20,Ticks_Linear_8,104,1,48,55,1071947856
94,10,20,Ticks_Linear_8,105,5,42,127,1072043328
94,10,20,Ticks_Linear_8,106,1,48,39,1072745328
94,10,20,Ticks_Linear_8,107,5,42,127,1072763420
94,10,20,Ticks_Linear_8,108,5,42,127,1073472840
94,10,20,Ticks_Linear_8,109,1,48,35,1073560652
94,10,20,Ticks_Linear_8,110,1,48,46,1074170212
94,10,20,Ticks_Linear_8,111,5,42,127,1074182540
94,10,20,Ticks_Linear_8,112,5,42,127,1074893380
94,10,20,Ticks_Linear_8,113,1,48,38,1074902792
94,10,20,Ticks_Linear_8,114,1,48,50,1075558152
94,10,20,Ticks_Linear_8,115,5,42,127,1075602908
94,10,20,Ticks_Linear_8,116,1,48,51,1076253488
94,10,20,Ticks_Linear_8,117,5,42,127,1076312392
94,10,20,Ticks_Linear_8,118,1,48,46,1076913328
94,10,20,Ticks_Linear_8,119,5,42,127,1077012800
94,10,20,Ticks_Linear_8,120,1,48,37,1077684816
94,10,20,Ticks_Linear_8,121,5,42,127,1077713312
94,10,20,Ticks_Linear_8,122,5,42,127,1078412524
94,10,20,Ticks_Linear_8,123,1,48,47,1078645716
94,10,20,Ticks_Linear_8,124,5,42,127,1079113240
94,10,20,Ticks_Linear_8,125,1,48,39,1079172608
94,10,20,Ticks_Linear_8,126,1,48,36,1079791156
94,10,20,Ticks_Linear_8,127,5,42,127,1079812536
94,10,20,Ticks_Linear_8,128,1,48,45,1080472232
94,10,20,Ticks_Linear_8,129,5,42,127,1080502700
94,10,20,Ticks_Linear_8,130,5,42,127,1081192920
94,10,20,Ticks_Linear_8,131,1,48,39,1081203008
94,10,20,Ticks_Linear_8,132,5,42,127,1081883160
94,10,20,Ticks_Linear_8,133,1,48,38,1081886728
94,10,20,Ticks_Linear_8,134,5,42,127,1082573172
94,10,20,Ticks_Linear_8,135,1,48,46,1082577192
94,10,20,Ticks_Linear_8,136,1,48,47,1083261420
94,10,20,Ticks_Linear_8,137,5,42,127,1083263228
94,10,20,Ticks_Linear_8,138,1,48,47,1083894636
94,10,20,Ticks_Linear_8,139,5,42,127,1083943280
94,10,20,Ticks_Linear_8,140,5,42,127,1084623268
94,10,20,Ticks_Linear_8,141,1,48,43,1084641968
94,10,20,Ticks_Linear_8,142,1,48,40,1085299200
94,10,20,Ticks_Linear_8,143,5,42,127,1085303364
94,10,20,Ticks_Linear_8,144,1,48,43,1085975216
94,10,20,Ticks_Linear_8,145,5,42,127,1085983120
94,10,20,Ticks_Linear_8,146,1,48,40,1086590240
94,10,20,Ticks_Linear_8,147,5,42,127,1086663024
94,10,20,Ticks_Linear_8,148,1,48,38,1087302804
94,10,20,Ticks_Linear_8,149,5,42,127,1087333164
94,10,20,Ticks_Linear_8,150,1,48,40,1087999548
94,10,20,Ticks_Linear_8,151,5,42,127,1088002292
94,10,20,Ticks_Linear_8,152,5,42,127,1088673212
94,10,20,Ticks_Linear_8,153,1,48,46,1088706136
94,10,20,Ticks_Linear_8,154,5,42,127,1089343056
94,10,20,Ticks_Linear_8,155,1,48,35,1089362132
94,10,20,Ticks_Linear_8,156,5,42,127,1090012480
94,10,20,Ticks_Linear_8,157,1,48,42,1090040600
94,10,20,Ticks_Linear_8,158,1,48,38,1090665272
94,10,20,Ticks_Linear_8,159,5,42,127,1090673104
94,10,20,Ticks_Linear_8,160,1,48,38,1091282648
94,10,20,Ticks_Linear_8,161,5,42,127,1091332416
94,10,20,Ticks_Linear_8,162,1,48,41,1091984472
94,10,20,Ticks_Linear_8,163,5,42,127,1091992972
94,10,20,Ticks_Linear_8,164,5,42,127,1092653408
94,10,20,Ticks_Linear_8,165,1,48,23,1092728196
94,10,20,Ticks_Linear_8,166,1,48,46,1093272588
94,10,20,Ticks_Linear_8,167,5,42,127,1093323124
94,10,20,Ticks_Linear_8,168,5,42,127,1093973356
94,10,20,Ticks_Linear_8,169,1,48,42,1093988080
94,10,20,Ticks_Linear_8,170,1,48,46,1094611576
94,10,20,Ticks_Linear_8,171,5,42,127,1094622696
94,10,20,Ticks_Linear_8,172,5,42,127,1095272852
94,10,20,Ticks_Linear_8,173,1,48,40,1095295368
94,10,20,Ticks_Linear_8,174,1,48,38,1095885456
94,10,20,Ticks_Linear_8,175,5,42,127,1095923244
94,10,20,Ticks_Linear_8,176,1,48,51,1096570424
94,10,20,Ticks_Linear_8,177,5,42,127,1096573168
94,10,20,Ticks_Linear_8,178,5,42,127,1097213312
94,10,20,Ticks_Linear_8,179,1,48,54,1097236128
94,10,20,Ticks_Linear_8,180,1,48,29,1097294816
94,10,20,Ticks_Linear_8,181,5,42,127,1097853180
94,10,20,Ticks_Linear_8,182,1,48,46,1097916308
94,10,20,Ticks_Linear_8,183,1,48,46,1098475676
94,10,20,Ticks_Linear_8,184,5,42,127,1098493316
94,10,20,Ticks_Linear_8,185,5,42,127,1099133360
94,10,20,Ticks_Linear_8,186,1,48,38,1099157820
94,10,20,Ticks_Linear_8,187,1,48,36,1099729784
94,10,20,Ticks_Linear_8,188,5,42,127,1099773192
94,10,20,Ticks_Linear_8,189,1,48,30,1100370644
94,10,20,Ticks_Linear_8,190,5,42,127,1100402972
94,10,20,Ticks_Linear_8,191,1,48,41,1100991628
94,10,20,Ticks_Linear_8,192,5,42,127,1101033000
94,10,20,Ticks_Linear_8,193,1,48,49,1101639072
94,10,20,Ticks_Linear_8,194,5,42,127,1101662632
94,10,20,Ticks_Linear_8,195,1,48,35,1102293264
94,10,20,Ticks_Linear_8,196,5,42,127,1102294900
94,10,20,Ticks_Linear_8,197,5,42,127,1102923120
94,10,20,Ticks_Linear_8,198,1,48,37,1102947360
94,10,20,Ticks_Linear_8,199,1,48,50,1103533336
94,10,20,Ticks_Linear_8,200,5,42,127,1103542512
94,10,20,Ticks_Linear_8,201,1,48,46,1104148656
94,10,20,Ticks_Linear_8,202,5,42,127,1104163152
94,10,20,Ticks_Linear_8,203,1,48,50,1104755368
94,10,20,Ticks_Linear_8,204,5,42,127,1104782820
94,10,20,Ticks_Linear_8,205,1,48,51,1105340624
94,10,20,Ticks_Linear_8,206,5,42,127,1105403264
94,10,20,Ticks_Linear_8,207,1,48,52,1105958484
94,10,20,Ticks_Linear_8,208,5,42,127,1106022860
94,10,20,Ticks_Linear_8,209,1,48,51,1106580024
94,10,20,Ticks_Linear_8,210,5,42,127,1106633044
94,10,20,Ticks_Linear_8,211,1,48,53,1107213956
94,10,20,Ticks_Linear_8,212,5,42,127,1107243276
94,10,20,Ticks_Linear_8,213,1,48,54,1107840592
94,10,20,Ticks_Linear_8,214,5,42,127,1107852760
94,10,20,Ticks_Linear_8,215,1,48,55,1108380984
94,10,20,Ticks_Linear_8,216,5,42,127,1108463092
94,10,20,Ticks_Linear_8,217,5,42,127,1109073260
94,10,20,Ticks_Linear_8,218,1,48,51,1109111208
94,10,20,Ticks_Linear_8,219,5,42,127,1109673260
94,10,20,Ticks_Linear_8,220,1,48,45,1109704016
94,10,20,Ticks_Linear_8,221,5,42,127,1110273532
94,10,20,Ticks_Linear_8,222,1,48,53,1110305776
94,10,20,Ticks_Linear_8,223,5,42,127,1110872308
94,10,20,Ticks_Linear_8,224,1,48,43,1110893400
94,10,20,Ticks_Linear_8,225,5,42,127,1111472384
94,10,20,Ticks_Linear_8,226,1,48,44,1111488828
94,10,20,Ticks_Linear_8,227,1,48,46,1112055308
94,10,20,Ticks_Linear_8,228,5,42,127,1112072424
94,10,20,Ticks_Linear_8,229,5,42,127,1112663416
94,10,20,Ticks_Linear_8,230,1,48,36,1112674624
94,10,20,Ticks_Linear_8,231,1,48,36,1113218408
94,10,20,Ticks_Linear_8,232,5,42,127,1113253296
94,10,20,Ticks_Linear_8,233,5,42,127,1113843020
94,10,20,Ticks_Linear_8,234,1,48,39,1113919372
94,10,20,Ticks_Linear_8,235,5,42,127,1114432884
94,10,20,Ticks_Linear_8,236,1,48,45,1114455624
94,10,20,Ticks_Linear_8,237,5,42,127,1115022824
94,10,20,Ticks_Linear_8,238,1,48,38,1115063936
94,10,20,Ticks_Linear_8,239,1,48,43,1115585928
94,10,20,Ticks_Linear_8,240,5,42,127,1115603272
94,10,20,Ticks_Linear_8,241,1,48,44,1116167256
94,10,20,Ticks_Linear_8,242,5,42,127,1116183024
94,10,20,Ticks_Linear_8,243,1,48,43,1116698708
94,10,20,Ticks_Linear_8,244,5,42,127,1116762408
94,10,20,Ticks_Linear_8,245,1,48,42,1117320408
94,10,20,Ticks_Linear_8,246,5,42,127,1117343008
94,10,20,Ticks_Linear_8,247,5,42,127,1117922844
94,10,20,Ticks_Linear_8,248,1,48,43,1117924256
94,10,20,Ticks_Linear_8,249,1,48,29,1118463980
94,10,20,Ticks_Linear_8,250,5,42,127,1118493008
94,10,20,Ticks_Linear_8,251,1,48,38,1119000220
94,10,20,Ticks_Linear_8,252,5,42,127,1119063548
94,10,20,Ticks_Linear_8,253,1,48,36,1119599148
94,10,20,Ticks_Linear_8,254,5,42,127,1119632968
94,10,20,Ticks_Linear_8,255,1,48,43,1120139736
94,10,20,Ticks_Linear_8,256,5,42,127,1120203012
94,10,20,Ticks_Linear_8,257,1,48,43,1120751728
94,10,20,Ticks_Linear_8,258,5,42,127,1120772436
94,10,20,Ticks_Linear_8,259,1,48,38,1121278084
94,10,20,Ticks_Linear_8,260,5,42,127,1121332868
94,10,20,Ticks_Linear_8,261,1,48,33,1121848772
94,10,20,Ticks_Linear_8,262,5,42,127,1121892928
94,10,20,Ticks_Linear_8,263,1,48,32,1122413256
94,10,20,Ticks_Linear_8,264,5,42,127,1122452912
94,10,20,Ticks_Linear_8,265,1,48,37,1123008980
94,10,20,Ticks_Linear_8,266,5,42,127,1123012920
94,10,20,Ticks_Linear_8,267,1,48,44,1123555188
94,10,20,Ticks_Linear_8,268,5,42,127,1123573056
94,10,20,Ticks_Linear_8,269,1,48,42,1124067548
94,10,20,Ticks_Linear_8,270,5,42,127,1124122932
94,10,20,Ticks_Linear_8,271,1,48,41,1124637792
94,10,20,Ticks_Linear_8,272,5,42,127,1124672804
94,10,20,Ticks_Linear_8,273,1,48,43,1125180636
94,10,20,Ticks_Linear_8,274,5,42,127,1125222680
94,10,20,Ticks_Linear_8,275,1,48,34,1125754760
94,10,20,Ticks_Linear_8,276,5,42,127,1125772852
94,10,20,Ticks_Linear_8,277,1,48,29,1126266816
94,10,20,Ticks_Linear_8,278,5,42,127,1126322528
94,10,20,Ticks_Linear_8,279,1,48,37,1126841740
94,10,20,Ticks_Linear_8,280,5,42,127,1126863192
94,10,20,Ticks_Linear_8,281,1,48,38,1127382776
94,10,20,Ticks_Linear_8,282,5,42,127,1127402736
94,10,20,Ticks_Linear_8,283,1,48,43,1127915048
94,10,20,Ticks_Linear_8,284,5,42,127,1127942648
94,10,20,Ticks_Linear_8,285,1,48,41,1128452940
94,10,20,Ticks_Linear_8,286,5,42,127,1128483160
94,10,20,Ticks_Linear_8,287,5,42,127,1129022784
94,10,20,Ticks_Linear_8,288,1,48,38,1129028000
94,10,20,Ticks_Linear_8,289,1,48,42,1129522060
94,10,20,Ticks_Linear_8,290,5,42,127,1129553252
94,10,20,Ticks_Linear_8,291,1,48,36,1130068856
94,10,20,Ticks_Linear_8,292,5,42,127,1130082832
94,10,20,Ticks_Linear_8,293,1,48,46,1130559648
94,10,20,Ticks_Linear_8,294,5,42,127,1130613160
94,10,20,Ticks_Linear_8,295,1,48,43,1131117532
94,10,20,Ticks_Linear_8,296,5,42,127,1131142664
94,10,20,Ticks_Linear_8,297,1,48,41,1131612072
94,10,20,Ticks_Linear_8,298,5,42,127,1131672848
94,10,20,Ticks_Linear_8,299,1,48,43,1132123876
94,10,20,Ticks_Linear_8,300,5,42,127,1132193212
94,10,20,Ticks_Linear_8,301,1,48,39,1132706644
94,10,20,Ticks_Linear_8,302,5,42,127,1132713208
94,10,20,Ticks_Linear_8,303,5,42,127,1133232908
94,10,20,Ticks_Linear_8,304,1,48,48,1133272208
94,10,20,Ticks_Linear_8,305,5,42,127,1133752608
94,10,20,Ticks_Linear_8,306,1,48,42,1133764112
94,10,20,Ticks_Linear_8,307,5,42,127,1134272900
94,10,20,Ticks_Linear_8,308,1,48,44,1134276692
94,10,20,Ticks_Linear_8,309,5,42,127,1134782784
94,10,20,Ticks_Linear_8,310,1,48,48,1134787628
94,10,20,Ticks_Linear_8,311,1,48,48,1135274872
94,10,20,Ticks_Linear_8,312,5,42,127,1135292664
94,10,20,Ticks_Linear_8,313,1,48,46,1135753360
94,10,20,Ticks_Linear_8,314,5,42,127,1135802624
94,10,20,Ticks_Linear_8,315,1,48,44,1136247436
94,10,20,Ticks_Linear_8,316,5,42,127,1136312808
94,10,20,Ticks_Linear_8,317,1,48,52,1136777088
94,10,20,Ticks_Linear_8,318,5,42,127,1136822616
94,10,20,Ticks_Linear_8,319,1,48,50,1137306776
94,10,20,Ticks_Linear_8,320,5,42,127,1137323588
94,10,20,Ticks_Linear_8,321,1,48,46,1137813488
94,10,20,Ticks_Linear_8,322,5,42,127,1137823068
94,10,20,Ticks_Linear_8,323,1,48,49,1138281440
94,10,20,Ticks_Linear_8,324,5,42,127,1138322740
94,10,20,Ticks_Linear_8,325,1,48,45,1138814016
94,10,20,Ticks_Linear_8,326,5,42,127,1138822516
94,10,20,Ticks_Linear_8,327,1,48,41,1139311624
94,10,20,Ticks_Linear_8,328,5,42,127,1139323340
94,10,20,Ticks_Linear_8,329,5,42,127,1139812712
94,10,20,Ticks_Linear_8,330,1,48,27,1139841820
94,10,20,Ticks_Linear_8,331,5,42,127,1140303128
94,10,20,Ticks_Linear_8,332,1,48,29,1140364660
94,10,20,Ticks_Linear_8,333,5,42,127,1140792792
94,10,20,Ticks_Linear_8,334,1,48,46,1140799508
94,10,20,Ticks_Linear_8,335,1,48,50,1141253104
94,10,20,Ticks_Linear_8,336,5,42,127,1141283176
94,10,20,Ticks_Linear_8,337,1,48,44,1141728316
94,10,20,Ticks_Linear_8,338,5,42,127,1141772544
94,10,20,Ticks_Linear_8,0,9999,9999,9999,1031211084
94,10,20,Ticks_Linear_8,1,9999,9999,9999,1032040560
94,10,20,Ticks_Linear_8,2,9999,9999,9999,1032860748
94,10,20,Ticks_Linear_8,3,9999,9999,9999,1033681008
94,10,20,Ticks_Linear_8,4,9999,9999,9999,1034500204
94,10,20,Ticks_Linear_8,5,9999,9999,9999,1035310192
94,10,20,Ticks_Linear_8,6,9999,9999,9999,1036120168
94,10,20,Ticks_Linear_8,7,9999,9999,9999,1036930152
94,10,20,Ticks_Linear_8,8,9999,9999,9999,1037740160
94,10,20,Ticks_Linear_8,9,9999,9999,9999,1038550140
94,10,20,Ticks_Linear_8,10,9999,9999,9999,1039350836
94,10,20,Ticks_Linear_8,11,9999,9999,9999,1040150596
94,10,20,Ticks_Linear_8,12,9999,9999,9999,1040950392
94,10,20,Ticks_Linear_8,13,9999,9999,9999,1041750116
94,10,20,Ticks_Linear_8,14,9999,9999,9999,1042550888
94,10,20,Ticks_Linear_8,15,9999,9999,9999,1043340368
94,10,20,Ticks_Linear_8,16,9999,9999,9999,1044130912
94,10,20,Ticks_Linear_8,17,9999,9999,9999,1044920444
94,10,20,Ticks_Linear_8,18,9999,9999,9999,1045710956
94,10,20,Ticks_Linear_8,19,9999,9999,9999,1046500424
94,10,20,Ticks_Linear_8,20,9999,9999,9999,1047280748
94,10,20,Ticks_Linear_8,21,9999,9999,9999,1048061008
94,10,20,Ticks_Linear_8,22,9999,9999,9999,1048840284
94,10,20,Ticks_Linear_8,23,9999,9999,9999,1049620536
94,10,20,Ticks_Linear_8,24,9999,9999,9999,1050400864
94,10,20,Ticks_Linear_8,25,9999,9999,9999,1051170928
94,10,20,Ticks_Linear_8,26,9999,9999,9999,1051940980
94,10,20,Ticks_Linear_8,27,9999,9999,9999,1052710988
94,10,20,Ticks_Linear_8,28,9999,9999,9999,1053481060
94,10,20,Ticks_Linear_8,29,9999,9999,9999,1054251132
94,10,20,Ticks_Linear_8,30,9999,9999,9999,1055020148
94,10,20,Ticks_Linear_8,31,9999,9999,9999,1055780928
94,10,20,Ticks_Linear_8,32,9999,9999,9999,1056540740
94,10,20,Ticks_Linear_8,33,9999,9999,9999,1057300548
94,10,20,Ticks_Linear_8,34,9999,9999,9999,1058060356
94,10,20,Ticks_Linear_8,35,9999,9999,9999,1058810960
94,10,20,Ticks_Linear_8,36,9999,9999,9999,1059560504
94,10,20,Ticks_Linear_8,37,9999,9999,9999,1060310124
94,10,20,Ticks_Linear_8,38,9999,9999,9999,1061060720
94,10,20,Ticks_Linear_8,39,9999,9999,9999,1061810276
94,10,20,Ticks_Linear_8,40,9999,9999,9999,1062550584
94,10,20,Ticks_Linear_8,41,9999,9999,9999,1063290996
94,10,20,Ticks_Linear_8,42,9999,9999,9999,1064030288
94,10,20,Ticks_Linear_8,43,9999,9999,9999,1064770624
94,10,20,Ticks_Linear_8,44,9999,9999,9999,1065511036
94,10,20,Ticks_Linear_8,45,9999,9999,9999,1066240068
94,10,20,Ticks_Linear_8,46,9999,9999,9999,1066970228
94,10,20,Ticks_Linear_8,47,9999,9999,9999,1067700308
94,10,20,Ticks_Linear_8,48,9999,9999,9999,1068430432
94,10,20,Ticks_Linear_8,49,9999,9999,9999,1069160516
94,10,20,Ticks_Linear_8,50,9999,9999,9999,1069880400
94,10,20,Ticks_Linear_8,51,9999,9999,9999,1070600280
94,10,20,Ticks_Linear_8,52,9999,9999,9999,1071320164
94,10,20,Ticks_Linear_8,53,9999,9999,9999,1072041032
94,10,20,Ticks_Linear_8,54,9999,9999,9999,1072760896
94,10,20,Ticks_Linear_8,55,9999,9999,9999,1073470540
94,10,20,Ticks_Linear_8,56,9999,9999,9999,1074180168
94,10,20,Ticks_Linear_8,57,9999,9999,9999,1074890856
94,10,20,Ticks_Linear_8,58,9999,9999,9999,1075600460
94,10,20,Ticks_Linear_8,59,9999,9999,9999,1076310096
94,10,20,Ticks_Linear_8,60,9999,9999,9999,1077010504
94,10,20,Ticks_Linear_8,61,9999,9999,9999,1077710940
94,10,20,Ticks_Linear_8,62,9999,9999,9999,1078410300
94,10,20,Ticks_Linear_8,63,9999,9999,9999,1079110720
94,10,20,Ticks_Linear_8,64,9999,9999,9999,1079810160
94,10,20,Ticks_Linear_8,65,9999,9999,9999,1080500328
94,10,20,Ticks_Linear_8,66,9999,9999,9999,1081190472
94,10,20,Ticks_Linear_8,67,9999,9999,9999,1081880636
94,10,20,Ticks_Linear_8,68,9999,9999,9999,1082570872
94,10,20,Ticks_Linear_8,69,9999,9999,9999,1083261036
94,10,20,Ticks_Linear_8,70,9999,9999,9999,1083940984
94,10,20,Ticks_Linear_8,71,9999,9999,9999,1084620896
94,10,20,Ticks_Linear_8,72,9999,9999,9999,1085300844
94,10,20,Ticks_Linear_8,73,9999,9999,9999,1085980748
94,10,20,Ticks_Linear_8,74,9999,9999,9999,1086660728
94,10,20,Ticks_Linear_8,75,9999,9999,9999,1087330420
94,10,20,Ticks_Linear_8,76,9999,9999,9999,1088000068
94,10,20,Ticks_Linear_8,77,9999,9999,9999,1088670840
94,10,20,Ticks_Linear_8,78,9999,9999,9999,1089340532
94,10,20,Ticks_Linear_8,79,9999,9999,9999,1090010180
94,10,20,Ticks_Linear_8,80,9999,9999,9999,1090670656
94,10,20,Ticks_Linear_8,81,9999,9999,9999,1091330116
94,10,20,Ticks_Linear_8,82,9999,9999,9999,1091990600
94,10,20,Ticks_Linear_8,83,9999,9999,9999,1092651112
94,10,20,Ticks_Linear_8,84,9999,9999,9999,1093320824
94,10,20,Ticks_Linear_8,85,9999,9999,9999,1093971056
94,10,20,Ticks_Linear_8,86,9999,9999,9999,1094620252
94,10,20,Ticks_Linear_8,87,9999,9999,9999,1095270480
94,10,20,Ticks_Linear_8,88,9999,9999,9999,1095920720
94,10,20,Ticks_Linear_8,89,9999,9999,9999,1096570944
94,10,20,Ticks_Linear_8,90,9999,9999,9999,1097210940
94,10,20,Ticks_Linear_8,91,9999,9999,9999,1097850956
94,10,20,Ticks_Linear_8,92,9999,9999,9999,1098490944
94,10,20,Ticks_Linear_8,93,9999,9999,9999,1099130984
94,10,20,Ticks_Linear_8,94,9999,9999,9999,1099770968
94,10,20,Ticks_Linear_8,95,9999,9999,9999,1100400748
94,10,20,Ticks_Linear_8,96,9999,9999,9999,1101030480
94,10,20,Ticks_Linear_8,97,9999,9999,9999,1101660260
94,10,20,Ticks_Linear_8,98,9999,9999,9999,1102291040
94,10,20,Ticks_Linear_8,99,9999,9999,9999,1102920824
94,10,20,Ticks_Linear_8,100,9999,9999,9999,1103540288
94,10,20,Ticks_Linear_8,101,9999,9999,9999,1104160852
94,10,20,Ticks_Linear_8,102,9999,9999,9999,1104780372
94,10,20,Ticks_Linear_8,103,9999,9999,9999,1105400892
94,10,20,Ticks_Linear_8,104,9999,9999,9999,1106020412
94,10,20,Ticks_Linear_8,105,9999,9999,9999,1106630744
94,10,20,Ticks_Linear_8,106,9999,9999,9999,1107241052
94,10,20,Ticks_Linear_8,107,9999,9999,9999,1107850312
94,10,20,Ticks_Linear_8,108,9999,9999,9999,1108460648
94,10,20,Ticks_Linear_8,109,9999,9999,9999,1109070960
94,10,20,Ticks_Linear_8,110,9999,9999,9999,1109671036
94,10,20,Ticks_Linear_8,111,9999,9999,9999,1110271080
94,10,20,Ticks_Linear_8,112,9999,9999,9999,1110870084
94,10,20,Ticks_Linear_8,113,9999,9999,9999,1111470160
94,10,20,Ticks_Linear_8,114,9999,9999,9999,1112070200
94,10,20,Ticks_Linear_8,115,9999,9999,9999,1112661116
94,10,20,Ticks_Linear_8,116,9999,9999,9999,1113250924
94,10,20,Ticks_Linear_8,117,9999,9999,9999,1113840720
94,10,20,Ticks_Linear_8,118,9999,9999,9999,1114430588
94,10,20,Ticks_Linear_8,119,9999,9999,9999,1115020376
94,10,20,Ticks_Linear_8,120,9999,9999,9999,1115600972
94,10,20,Ticks_Linear_8,121,9999,9999,9999,1116180576
94,10,20,Ticks_Linear_8,122,9999,9999,9999,1116760180
94,10,20,Ticks_Linear_8,123,9999,9999,9999,1117340784
94,10,20,Ticks_Linear_8,124,9999,9999,9999,1117920320
94,10,20,Ticks_Linear_8,125,9999,9999,9999,1118490708
94,10,20,Ticks_Linear_8,126,9999,9999,9999,1119061100
94,10,20,Ticks_Linear_8,127,9999,9999,9999,1119630444
94,10,20,Ticks_Linear_8,128,9999,9999,9999,1120200788
94,10,20,Ticks_Linear_8,129,9999,9999,9999,1120770136
94,10,20,Ticks_Linear_8,130,9999,9999,9999,1121330272
94,10,20,Ticks_Linear_8,131,9999,9999,9999,1121890404
94,10,20,Ticks_Linear_8,132,9999,9999,9999,1122450540
94,10,20,Ticks_Linear_8,133,9999,9999,9999,1123010624
94,10,20,Ticks_Linear_8,134,9999,9999,9999,1123570756
94,10,20,Ticks_Linear_8,135,9999,9999,9999,1124120632
94,10,20,Ticks_Linear_8,136,9999,9999,9999,1124670580
94,10,20,Ticks_Linear_8,137,9999,9999,9999,1125220456
94,10,20,Ticks_Linear_8,138,9999,9999,9999,1125770332
94,10,20,Ticks_Linear_8,139,9999,9999,9999,1126320232
94,10,20,Ticks_Linear_8,140,9999,9999,9999,1126860896
94,10,20,Ticks_Linear_8,141,9999,9999,9999,1127400512
94,10,20,Ticks_Linear_8,142,9999,9999,9999,1127940200
94,10,20,Ticks_Linear_8,143,9999,9999,9999,1128480864
94,10,20,Ticks_Linear_8,144,9999,9999,9999,1129020484
94,10,20,Ticks_Linear_8,145,9999,9999,9999,1129550956
94,10,20,Ticks_Linear_8,146,9999,9999,9999,1130080312
94,10,20,Ticks_Linear_8,147,9999,9999,9999,1130610788
94,10,20,Ticks_Linear_8,148,9999,9999,9999,1131140220
94,10,20,Ticks_Linear_8,149,9999,9999,9999,1131670620
94,10,20,Ticks_Linear_8,150,9999,9999,9999,1132190840
94,10,20,Ticks_Linear_8,151,9999,9999,9999,1132710984
94,10,20,Ticks_Linear_8,152,9999,9999,9999,1133230164
94,10,20,Ticks_Linear_8,153,9999,9999,9999,1133750380
94,10,20,Ticks_Linear_8,154,9999,9999,9999,1134270524
94,10,20,Ticks_Linear_8,155,9999,9999,9999,1134780488
94,10,20,Ticks_Linear_8,156,9999,9999,9999,1135290440
94,10,20,Ticks_Linear_8,157,9999,9999,9999,1135800400
94,10,20,Ticks_Linear_8,158,9999,9999,9999,1136310360
94,10,20,Ticks_Linear_8,159,9999,9999,9999,1136820316
94,10,20,Ticks_Linear_8,160,9999,9999,9999,1137321064
94,10,20,Ticks_Linear_8,161,9999,9999,9999,1137820768
94,10,20,Ticks_Linear_8,162,9999,9999,9999,1138320444
94,10,20,Ticks_Linear_8,163,9999,9999,9999,1138820216
94,10,20,Ticks_Linear_8,164,9999,9999,9999,1139320892
94,10,20,Ticks_Linear_8,165,9999,9999,9999,1139810412
94,10,20,Ticks_Linear_8,166,9999,9999,9999,1140300904
94,10,20,Ticks_Linear_8,167,9999,9999,9999,1140790344
94,10,20,Ticks_Linear_8,168,9999,9999,9999,1141280876
94,10,20,Ticks_Linear_8,169,9999,9999,9999,1141770320
94,11,25,Jits_Pract_5,0,5,56,103,1185990972
94,11,25,Jits_Pract_5,1,5,63,98,1185994140
94,11,25,Jits_Pract_5,2,5,80,127,1185997264
94,11,25,Jits_Pract_5,0,5,56,103,1186490696
94,11,25,Jits_Pract_5,1,5,63,98,1186494092
94,11,25,Jits_Pract_5,2,5,80,127,1186497212
94,11,25,Jits_Pract_5,0,5,56,103,1186990512
94,11,25,Jits_Pract_5,1,5,80,127,1187000784
94,11,25,Jits_Pract_5,2,5,63,98,1187021168
94,11,25,Jits_Pract_5,0,5,63,98,1187441156
94,11,25,Jits_Pract_5,1,5,80,127,1187470760
94,11,25,Jits_Pract_5,2,5,56,103,1187481056
94,11,25,Jits_Pract_5,0,5,80,127,1188001148
94,11,25,Jits_Pract_5,1,5,56,103,1188011420
94,11,25,Jits_Pract_5,2,5,63,98,1188041244
94,11,25,Jits_Pract_5,0,5,63,98,1188490608
94,11,25,Jits_Pract_5,1,5,56,103,1188521284
94,11,25,Jits_Pract_5,2,5,80,127,1188530504
94,11,25,Jits_Pract_5,0,5,56,103,1188941040
94,11,25,Jits_Pract_5,1,5,63,98,1188991320
94,11,25,Jits_Pract_5,2,5,80,127,1189010656
94,11,25,Jits_Pract_5,0,5,80,127,1189441004
94,11,25,Jits_Pract_5,1,5,63,98,1189491060
94,11,25,Jits_Pract_5,2,5,56,103,1189531168
94,11,25,Jits_Pract_5,0,5,56,103,1189940524
94,11,25,Jits_Pract_5,1,5,63,98,1189971248
94,11,25,Jits_Pract_5,2,5,80,127,1190041172
94,11,25,Jits_Pract_5,0,5,56,103,1190441240
94,11,25,Jits_Pract_5,1,5,80,127,1190500660
94,11,25,Jits_Pract_5,2,5,63,98,1190530408
94,11,25,Jits_Pract_5,0,5,56,103,1190951168
94,11,25,Jits_Pract_5,1,5,63,98,1190960468
94,11,25,Jits_Pract_5,2,5,80,127,1191000404
94,11,25,Jits_Pract_5,0,5,63,98,1191440944
94,11,25,Jits_Pract_5,1,5,80,127,1191520740
94,11,25,Jits_Pract_5,2,5,56,103,1191531308
94,11,25,Jits_Pract_5,0,5,63,98,1191990576
94,11,25,Jits_Pract_5,1,5,56,103,1192030432
94,11,25,Jits_Pract_5,2,5,80,127,1192033656
94,11,25,Jits_Pract_5,0,5,56,103,1192450516
94,11,25,Jits_Pract_5,1,5,63,98,1192460564
94,11,25,Jits_Pract_5,2,5,80,127,1192500500
94,11,25,Jits_Pract_5,0,5,56,103,1192941040
94,11,25,Jits_Pract_5,1,5,63,98,1192943956
94,11,25,Jits_Pract_5,2,5,80,127,1192961348
94,11,25,Jits_Pract_5,0,9999,9999,9999,1186238556
94,11,25,Jits_Pract_5,1,9999,9999,9999,1186738280
94,11,25,Jits_Pract_5,2,9999,9999,9999,1187239000
94,11,25,Jits_Pract_5,3,9999,9999,9999,1187738740
94,11,25,Jits_Pract_5,4,9999,9999,9999,1188238452
94,11,25,Jits_Pract_5,5,9999,9999,9999,1188738124
94,11,25,Jits_Pract_5,6,9999,9999,9999,1189238896
94,11,25,Jits_Pract_5,7,9999,9999,9999,1189738564
94,11,25,Jits_Pract_5,8,9999,9999,9999,1190238308
94,11,25,Jits_Pract_5,9,9999,9999,9999,1190739024
94,11,25,Jits_Pract_5,10,9999,9999,9999,1191238760
94,11,25,Jits_Pract_5,11,9999,9999,9999,1191738432
94,11,25,Jits_Pract_5,12,9999,9999,9999,1192238160
94,11,25,Jits_Pract_5,13,9999,9999,9999,1192738932
94,11,25,Jits_Pract_5,14,9999,9999,9999,1193238584
94,12,25,Jits_Pract_5,0,5,56,103,1241664900
94,12,25,Jits_Pract_5,1,5,63,98,1241668224
94,12,25,Jits_Pract_5,2,5,80,127,1241671120
94,12,25,Jits_Pract_5,0,5,56,103,1242164624
94,12,25,Jits_Pract_5,1,5,63,98,1242167644
94,12,25,Jits_Pract_5,2,5,80,127,1242170768
94,12,25,Jits_Pract_5,0,5,56,103,1242665560
94,12,25,Jits_Pract_5,1,5,80,127,1242674488
94,12,25,Jits_Pract_5,2,5,63,98,1242694944
94,12,25,Jits_Pract_5,0,5,63,98,1243114960
94,12,25,Jits_Pract_5,1,5,80,127,1243144636
94,12,25,Jits_Pract_5,2,5,56,103,1243154904
94,12,25,Jits_Pract_5,0,5,80,127,1243675000
94,12,25,Jits_Pract_5,1,5,56,103,1243685492
94,12,25,Jits_Pract_5,2,5,63,98,1243714796
94,12,25,Jits_Pract_5,0,5,63,98,1244164560
94,12,25,Jits_Pract_5,1,5,56,103,1244195136
94,12,25,Jits_Pract_5,2,5,80,127,1244205332
94,12,25,Jits_Pract_5,0,5,56,103,1244614992
94,12,25,Jits_Pract_5,1,5,63,98,1244665344
94,12,25,Jits_Pract_5,2,5,80,127,1244684680
94,12,25,Jits_Pract_5,0,5,80,127,1245114660
94,12,25,Jits_Pract_5,1,5,63,98,1245164788
94,12,25,Jits_Pract_5,2,5,56,103,1245204800
94,12,25,Jits_Pract_5,0,5,56,103,1245614484
94,12,25,Jits_Pract_5,1,5,63,98,1245645280
94,12,25,Jits_Pract_5,2,5,80,127,1245714736
94,12,25,Jits_Pract_5,0,5,56,103,1246115344
94,12,25,Jits_Pract_5,1,5,80,127,1246174544
94,12,25,Jits_Pract_5,2,5,63,98,1246205336
94,12,25,Jits_Pract_5,0,5,56,103,1246625132
94,12,25,Jits_Pract_5,1,5,63,98,1246635548
94,12,25,Jits_Pract_5,2,1,48,39,1246664224
94,12,25,Jits_Pract_5,3,5,80,127,1246675556
94,12,25,Jits_Pract_5,0,5,63,98,1247114620
94,12,25,Jits_Pract_5,1,1,48,42,1247141728
94,12,25,Jits_Pract_5,2,5,80,127,1247194436
94,12,25,Jits_Pract_5,3,5,56,103,1247204704
94,12,25,Jits_Pract_5,0,1,48,41,1247661044
94,12,25,Jits_Pract_5,1,5,63,98,1247664604
94,12,25,Jits_Pract_5,2,5,56,103,1247704392
94,12,25,Jits_Pract_5,3,5,80,127,1247707456
94,12,25,Jits_Pract_5,0,5,56,103,1248125460
94,12,25,Jits_Pract_5,1,5,63,98,1248134460
94,12,25,Jits_Pract_5,2,1,48,43,1248163604
94,12,25,Jits_Pract_5,3,5,80,127,1248174416
94,12,25,Jits_Pract_5,0,5,56,103,1248614896
94,12,25,Jits_Pract_5,1,5,63,98,1248618112
94,12,25,Jits_Pract_5,2,5,80,127,1248635280
94,12,25,Jits_Pract_5,3,1,48,38,1248652644
94,12,25,Jits_Pract_5,0,9999,9999,9999,1241912412
94,12,25,Jits_Pract_5,1,9999,9999,9999,1242412136
94,12,25,Jits_Pract_5,2,9999,9999,9999,1242912852
94,12,25,Jits_Pract_5,3,9999,9999,9999,1243412592
94,12,25,Jits_Pract_5,4,9999,9999,9999,1243912256
94,12,25,Jits_Pract_5,5,9999,9999,9999,1244413052
94,12,25,Jits_Pract_5,6,9999,9999,9999,1244912704
94,12,25,Jits_Pract_5,7,9999,9999,9999,1245412448
94,12,25,Jits_Pract_5,8,9999,9999,9999,1245912120
94,12,25,Jits_Pract_5,9,9999,9999,9999,1246412908
94,12,25,Jits_Pract_5,10,9999,9999,9999,1246912628
94,12,25,Jits_Pract_5,11,9999,9999,9999,1247412336
94,12,25,Jits_Pract_5,12,9999,9999,9999,1247913068
94,12,25,Jits_Pract_5,13,9999,9999,9999,1248412760
94,12,25,Jits_Pract_5,14,9999,9999,9999,1248912500
94,13,24,Jits_Pract_8,0,5,56,103,1257346412
94,13,24,Jits_Pract_8,1,5,63,98,1257349432
94,13,24,Jits_Pract_8,2,5,80,127,1257352556
94,13,24,Jits_Pract_8,0,5,56,103,1258146228
94,13,24,Jits_Pract_8,1,5,63,98,1258149172
94,13,24,Jits_Pract_8,2,5,80,127,1258152448
94,13,24,Jits_Pract_8,0,5,80,127,1258885624
94,13,24,Jits_Pract_8,1,5,63,98,1258975560
94,13,24,Jits_Pract_8,2,5,56,103,1258985828
94,13,24,Jits_Pract_8,0,5,56,103,1259705760
94,13,24,Jits_Pract_8,1,5,63,98,1259715956
94,13,24,Jits_Pract_8,2,5,80,127,1259806008
94,13,24,Jits_Pract_8,0,5,63,98,1260475672
94,13,24,Jits_Pract_8,1,5,80,127,1260505420
94,13,24,Jits_Pract_8,2,5,56,103,1260536364
94,13,24,Jits_Pract_8,0,5,56,103,1261275456
94,13,24,Jits_Pract_8,1,5,80,127,1261375928
94,13,24,Jits_Pract_8,2,5,63,98,1261426276
94,13,24,Jits_Pract_8,0,5,56,103,1262076240
94,13,24,Jits_Pract_8,1,5,80,127,1262125324
94,13,24,Jits_Pract_8,2,5,63,98,1262166456
94,13,24,Jits_Pract_8,3,1,48,29,1262275608
94,13,24,Jits_Pract_8,0,1,48,44,1262885792
94,13,24,Jits_Pract_8,1,5,80,127,1262905600
94,13,24,Jits_Pract_8,2,5,63,98,1262936472
94,13,24,Jits_Pract_8,3,5,56,103,1263006156
94,13,24,Jits_Pract_8,0,1,48,46,1263649576
94,13,24,Jits_Pract_8,1,5,63,98,1263736368
94,13,24,Jits_Pract_8,2,5,56,103,1263765828
94,13,24,Jits_Pract_8,3,5,80,127,1263826216
94,13,24,Jits_Pract_8,0,5,56,103,1264475524
94,13,24,Jits_Pract_8,1,5,80,127,1264478664
94,13,24,Jits_Pract_8,2,1,48,49,1264518872
94,13,24,Jits_Pract_8,3,5,63,98,1264596312
94,13,24,Jits_Pract_8,0,1,48,50,1265296980
94,13,24,Jits_Pract_8,1,1,48,32,1265349724
94,13,24,Jits_Pract_8,2,5,56,103,1265356268
94,13,24,Jits_Pract_8,3,5,80,127,1265396132
94,13,24,Jits_Pract_8,4,5,63,98,1265406256
94,13,24,Jits_Pract_8,0,5,56,103,1266116152
94,13,24,Jits_Pract_8,1,1,48,43,1266128712
94,13,24,Jits_Pract_8,2,5,80,127,1266136460
94,13,24,Jits_Pract_8,3,1,48,27,1266183848
94,13,24,Jits_Pract_8,4,5,63,98,1266216380
94,13,24,Jits_Pract_8,0,5,80,127,1266905472
94,13,24,Jits_Pract_8,1,1,48,47,1266955276
94,13,24,Jits_Pract_8,2,5,56,103,1267005788
94,13,24,Jits_Pract_8,3,1,48,26,1267011436
94,13,24,Jits_Pract_8,4,5,63,98,1267016260
94,13,24,Jits_Pract_8,0,5,63,98,1267675532
94,13,24,Jits_Pract_8,1,1,48,42,1267704504
94,13,24,Jits_Pract_8,2,5,80,127,1267736288
94,13,24,Jits_Pract_8,3,5,56,103,1267746408
94,13,24,Jits_Pract_8,0,1,48,48,1268444172
94,13,24,Jits_Pract_8,1,5,56,103,1268476252
94,13,24,Jits_Pract_8,2,5,63,98,1268546220
94,13,24,Jits_Pract_8,3,5,80,127,1268549356
94,13,24,Jits_Pract_8,0,9999,9999,9999,1257743472
94,13,24,Jits_Pract_8,1,9999,9999,9999,1258543188
94,13,24,Jits_Pract_8,2,9999,9999,9999,1259343968
94,13,24,Jits_Pract_8,3,9999,9999,9999,1260143700
94,13,24,Jits_Pract_8,4,9999,9999,9999,1260943428
94,13,24,Jits_Pract_8,5,9999,9999,9999,1261743172
94,13,24,Jits_Pract_8,6,9999,9999,9999,1262543928
94,13,24,Jits_Pract_8,7,9999,9999,9999,1263343700
94,13,24,Jits_Pract_8,8,9999,9999,9999,1264143460
94,13,24,Jits_Pract_8,9,9999,9999,9999,1264943204
94,13,24,Jits_Pract_8,10,9999,9999,9999,1265743928
94,13,24,Jits_Pract_8,11,9999,9999,9999,1266543720
94,13,24,Jits_Pract_8,12,9999,9999,9999,1267343452
94,13,24,Jits_Pract_8,13,9999,9999,9999,1268143220
94,13,24,Jits_Pract_8,14,9999,9999,9999,1268943940
94,14,16,Jits_ISO_5,0,5,56,103,1300084048
94,14,16,Jits_ISO_5,1,5,63,98,1300087144
94,14,16,Jits_ISO_5,2,5,80,127,1300090340
94,14,16,Jits_ISO_5,0,5,56,103,1300583916
94,14,16,Jits_ISO_5,1,5,63,98,1300586936
94,14,16,Jits_ISO_5,2,5,80,127,1300589912
94,14,16,Jits_ISO_5,0,5,56,103,1301083576
94,14,16,Jits_ISO_5,1,5,80,127,1301093772
94,14,16,Jits_ISO_5,2,5,63,98,1301114232
94,14,16,Jits_ISO_5,0,5,63,98,1301533944
94,14,16,Jits_ISO_5,1,5,80,127,1301563916
94,14,16,Jits_ISO_5,2,5,56,103,1301573892
94,14,16,Jits_ISO_5,0,1,48,51,1302086596
94,14,16,Jits_ISO_5,1,5,80,127,1302094344
94,14,16,Jits_ISO_5,2,5,56,103,1302104316
94,14,16,Jits_ISO_5,3,5,63,98,1302133988
94,14,16,Jits_ISO_5,0,5,63,98,1302583748
94,14,16,Jits_ISO_5,1,1,48,54,1302592416
94,14,16,Jits_ISO_5,2,5,56,103,1302614540
94,14,16,Jits_ISO_5,3,5,80,127,1302623764
94,14,16,Jits_ISO_5,0,5,56,103,1303034188
94,14,16,Jits_ISO_5,1,5,63,98,1303084388
94,14,16,Jits_ISO_5,2,1,48,46,1303099040
94,14,16,Jits_ISO_5,3,5,80,127,1303103792
94,14,16,Jits_ISO_5,0,5,80,127,1303533936
94,14,16,Jits_ISO_5,1,1,48,48,1303556236
94,14,16,Jits_ISO_5,2,5,63,98,1303584052
94,14,16,Jits_ISO_5,3,5,56,103,1303623988
94,14,16,Jits_ISO_5,0,5,56,103,1304033608
94,14,16,Jits_ISO_5,1,1,48,49,1304049308
94,14,16,Jits_ISO_5,2,5,63,98,1304064248
94,14,16,Jits_ISO_5,3,5,80,127,1304133924
94,14,16,Jits_ISO_5,0,5,56,103,1304534476
94,14,16,Jits_ISO_5,1,1,48,43,1304541800
94,14,16,Jits_ISO_5,2,5,80,127,1304593736
94,14,16,Jits_ISO_5,3,5,63,98,1304623484
94,14,16,Jits_ISO_5,0,5,56,103,1305053928
94,14,16,Jits_ISO_5,1,5,63,98,1305063900
94,14,16,Jits_ISO_5,2,1,48,38,1305088072
94,14,16,Jits_ISO_5,3,5,80,127,1305103828
94,14,16,Jits_ISO_5,0,5,63,98,1305544008
94,14,16,Jits_ISO_5,1,1,48,50,1305568028
94,14,16,Jits_ISO_5,2,5,80,127,1305623872
94,14,16,Jits_ISO_5,3,5,56,103,1305634068
94,14,16,Jits_ISO_5,0,5,63,98,1306093944
94,14,16,Jits_ISO_5,1,1,48,46,1306105528
94,14,16,Jits_ISO_5,2,5,56,103,1306133872
94,14,16,Jits_ISO_5,3,5,80,127,1306136936
94,14,16,Jits_ISO_5,0,5,56,103,1306553812
94,14,16,Jits_ISO_5,1,5,63,98,1306563932
94,14,16,Jits_ISO_5,2,1,48,38,1306596192
94,14,16,Jits_ISO_5,3,5,80,127,1306603788
94,14,16,Jits_ISO_5,0,1,48,38,1307035168
94,14,16,Jits_ISO_5,1,5,56,103,1307044256
94,14,16,Jits_ISO_5,2,5,63,98,1307047324
94,14,16,Jits_ISO_5,3,5,80,127,1307063892
94,14,16,Jits_ISO_5,0,1,48,42,1307531180
94,14,16,Jits_ISO_5,1,5,80,127,1307554020
94,14,16,Jits_ISO_5,2,5,56,103,1307564512
94,14,16,Jits_ISO_5,3,1,48,24,1307587168
94,14,16,Jits_ISO_5,4,5,63,98,1307633944
94,14,16,Jits_ISO_5,0,5,63,98,1308043632
94,14,16,Jits_ISO_5,1,1,48,44,1308051492
94,14,16,Jits_ISO_5,2,5,56,103,1308064036
94,14,16,Jits_ISO_5,3,5,80,127,1308143972
94,14,16,Jits_ISO_5,0,1,48,43,1308538380
94,14,16,Jits_ISO_5,1,5,56,103,1308553844
94,14,16,Jits_ISO_5,2,5,80,127,1308593732
94,14,16,Jits_ISO_5,3,5,63,98,1308603704
94,14,16,Jits_ISO_5,0,1,48,46,1309002612
94,14,16,Jits_ISO_5,1,5,80,127,1309044064
94,14,16,Jits_ISO_5,2,5,63,98,1309073888
94,14,16,Jits_ISO_5,3,1,48,19,1309092208
94,14,16,Jits_ISO_5,4,5,56,103,1309113652
94,14,16,Jits_ISO_5,0,5,56,103,1309564244
94,14,16,Jits_ISO_5,1,1,48,48,1309587240
94,14,16,Jits_ISO_5,2,5,63,98,1309593940
94,14,16,Jits_ISO_5,3,5,80,127,1309644212
94,14,16,Jits_ISO_5,0,5,80,127,1310063996
94,14,16,Jits_ISO_5,1,1,48,48,1310070404
94,14,16,Jits_ISO_5,2,5,56,103,1310103876
94,14,16,Jits_ISO_5,3,5,63,98,1310114148
94,14,16,Jits_ISO_5,0,5,80,127,1310544120
94,14,16,Jits_ISO_5,1,1,48,53,1310578700
94,14,16,Jits_ISO_5,2,5,63,98,1310584124
94,14,16,Jits_ISO_5,3,5,56,103,1310643564
94,14,16,Jits_ISO_5,0,1,48,43,1311014464
94,14,16,Jits_ISO_5,1,5,56,103,1311044008
94,14,16,Jits_ISO_5,2,5,80,127,1311054280
94,14,16,Jits_ISO_5,3,5,63,98,1311134152
94,14,16,Jits_ISO_5,0,5,80,127,1311543672
94,14,16,Jits_ISO_5,1,1,48,47,1311595712
94,14,16,Jits_ISO_5,2,5,63,98,1311604128
94,14,16,Jits_ISO_5,3,5,56,103,1311633876
94,14,16,Jits_ISO_5,0,5,56,103,1312044440
94,14,16,Jits_ISO_5,1,1,48,39,1312056924
94,14,16,Jits_ISO_5,2,5,80,127,1312103776
94,14,16,Jits_ISO_5,3,5,63,98,1312143860
94,14,16,Jits_ISO_5,0,5,56,103,1312603596
94,14,16,Jits_ISO_5,1,1,48,45,1312611960
94,14,16,Jits_ISO_5,2,5,63,98,1312613704
94,14,16,Jits_ISO_5,3,5,80,127,1312616924
94,14,16,Jits_ISO_5,0,5,80,127,1313054036
94,14,16,Jits_ISO_5,1,1,48,51,1313088020
94,14,16,Jits_ISO_5,2,1,48,30,1313142556
94,14,16,Jits_ISO_5,3,5,63,98,1313144140
94,14,16,Jits_ISO_5,4,5,56,103,1313154632
94,14,16,Jits_ISO_5,0,5,56,103,1313553712
94,14,16,Jits_ISO_5,1,5,63,98,1313556808
94,14,16,Jits_ISO_5,2,5,80,127,1313559932
94,14,16,Jits_ISO_5,3,1,48,47,1313610100
94,14,16,Jits_ISO_5,0,1,48,48,1314005240
94,14,16,Jits_ISO_5,1,1,48,34,1314055712
94,14,16,Jits_ISO_5,2,5,80,127,1314073948
94,14,16,Jits_ISO_5,3,5,63,98,1314124000
94,14,16,Jits_ISO_5,4,5,56,103,1314155000
94,14,16,Jits_ISO_5,0,5,56,103,1314554168
94,14,16,Jits_ISO_5,1,1,48,48,1314562024
94,14,16,Jits_ISO_5,2,5,80,127,1314563608
94,14,16,Jits_ISO_5,3,1,48,34,1314615180
94,14,16,Jits_ISO_5,4,5,63,98,1314634160
94,14,16,Jits_ISO_5,0,1,48,38,1315050668
94,14,16,Jits_ISO_5,1,5,56,103,1315064036
94,14,16,Jits_ISO_5,2,5,63,98,1315083744
94,14,16,Jits_ISO_5,3,5,80,127,1315144060
94,14,16,Jits_ISO_5,0,5,80,127,1315553664
94,14,16,Jits_ISO_5,1,1,48,45,1315564276
94,14,16,Jits_ISO_5,2,5,63,98,1315624532
94,14,16,Jits_ISO_5,3,5,56,103,1315643796
94,14,16,Jits_ISO_5,0,1,48,37,1316052188
94,14,16,Jits_ISO_5,1,5,80,127,1316073784
94,14,16,Jits_ISO_5,2,5,56,103,1316084052
94,14,16,Jits_ISO_5,3,5,63,98,1316094172
94,14,16,Jits_ISO_5,0,1,48,42,1316573664
94,14,16,Jits_ISO_5,1,5,80,127,1316575000
94,14,16,Jits_ISO_5,2,5,56,103,1316593892
94,14,16,Jits_ISO_5,3,1,48,24,1316630924
94,14,16,Jits_ISO_5,4,5,63,98,1316663548
94,14,16,Jits_ISO_5,0,1,48,45,1317076152
94,14,16,Jits_ISO_5,1,5,56,103,1317083744
94,14,16,Jits_ISO_5,2,5,80,127,1317114092
94,14,16,Jits_ISO_5,3,5,63,98,1317133800
94,14,16,Jits_ISO_5,0,1,48,45,1317555432
94,14,16,Jits_ISO_5,1,5,63,98,1317573960
94,14,16,Jits_ISO_5,2,1,48,26,1317608300
94,14,16,Jits_ISO_5,3,5,56,103,1317634404
94,14,16,Jits_ISO_5,4,5,80,127,1317664224
94,14,16,Jits_ISO_5,0,5,63,98,1318063676
94,14,16,Jits_ISO_5,1,5,80,127,1318066888
94,14,16,Jits_ISO_5,2,1,48,48,1318080120
94,14,16,Jits_ISO_5,3,5,56,103,1318153572
94,14,16,Jits_ISO_5,0,1,48,54,1318555644
94,14,16,Jits_ISO_5,1,5,56,103,1318583768
94,14,16,Jits_ISO_5,2,5,63,98,1318614640
94,14,16,Jits_ISO_5,3,5,80,127,1318654932
94,14,16,Jits_ISO_5,0,1,48,54,1319080468
94,14,16,Jits_ISO_5,1,5,63,98,1319084324
94,14,16,Jits_ISO_5,2,5,56,103,1319124264
94,14,16,Jits_ISO_5,3,5,80,127,1319143748
94,14,16,Jits_ISO_5,0,1,48,49,1319569616
94,14,16,Jits_ISO_5,1,5,63,98,1319594744
94,14,16,Jits_ISO_5,2,5,56,103,1319634460
94,14,16,Jits_ISO_5,3,5,80,127,1319643680
94,14,16,Jits_ISO_5,0,1,48,45,1320064168
94,14,16,Jits_ISO_5,1,5,80,127,1320073704
94,14,16,Jits_ISO_5,2,5,63,98,1320144456
94,14,16,Jits_ISO_5,3,5,56,103,1320163552
94,14,16,Jits_ISO_5,0,5,56,103,1320564076
94,14,16,Jits_ISO_5,1,5,80,127,1320583784
94,14,16,Jits_ISO_5,2,1,48,44,1320602968
94,14,16,Jits_ISO_5,3,5,63,98,1320623440
94,14,16,Jits_ISO_5,0,1,48,51,1320994336
94,14,16,Jits_ISO_5,1,1,48,37,1321041956
94,14,16,Jits_ISO_5,2,5,63,98,1321073980
94,14,16,Jits_ISO_5,3,5,80,127,1321093688
94,14,16,Jits_ISO_5,4,5,56,103,1321133500
94,14,16,Jits_ISO_5,0,5,63,98,1321573680
94,14,16,Jits_ISO_5,1,1,48,44,1321576576
94,14,16,Jits_ISO_5,2,5,56,103,1321594204
94,14,16,Jits_ISO_5,3,5,80,127,1321603576
94,14,16,Jits_ISO_5,0,1,48,48,1322019200
94,14,16,Jits_ISO_5,1,5,80,127,1322073624
94,14,16,Jits_ISO_5,2,5,56,103,1322093932
94,14,16,Jits_ISO_5,3,5,63,98,1322123516
94,14,16,Jits_ISO_5,0,1,48,43,1322504552
94,14,16,Jits_ISO_5,1,5,56,103,1322643784
94,14,16,Jits_ISO_5,2,5,80,127,1322646852
94,14,16,Jits_ISO_5,3,5,63,98,1322664540
94,14,16,Jits_ISO_5,0,5,63,98,1323063648
94,14,16,Jits_ISO_5,1,1,48,51,1323088560
94,14,16,Jits_ISO_5,2,5,56,103,1323094436
94,14,16,Jits_ISO_5,3,5,80,127,1323154092
94,14,16,Jits_ISO_5,0,1,48,43,1323634816
94,14,16,Jits_ISO_5,1,5,63,98,1323644424
94,14,16,Jits_ISO_5,2,5,56,103,1323653648
94,14,16,Jits_ISO_5,3,5,80,127,1323663768
94,14,16,Jits_ISO_5,4,1,48,23,1323704032
94,14,16,Jits_ISO_5,0,5,56,103,1324104080
94,14,16,Jits_ISO_5,1,1,48,47,1324132780
94,14,16,Jits_ISO_5,2,5,80,127,1324134344
94,14,16,Jits_ISO_5,3,5,63,98,1324144020
94,14,16,Jits_ISO_5,0,1,48,45,1324633320
94,14,16,Jits_ISO_5,1,5,63,98,1324643604
94,14,16,Jits_ISO_5,2,5,56,103,1324653800
94,14,16,Jits_ISO_5,3,5,80,127,1324674776
94,14,16,Jits_ISO_5,4,1,48,24,1324699856
94,14,16,Jits_ISO_5,0,5,56,103,1325073840
94,14,16,Jits_ISO_5,1,1,48,42,1325083856
94,14,16,Jits_ISO_5,2,5,63,98,1325134144
94,14,16,Jits_ISO_5,3,5,80,127,1325137732
94,14,16,Jits_ISO_5,0,1,48,45,1325576984
94,14,16,Jits_ISO_5,1,5,80,127,1325594020
94,14,16,Jits_ISO_5,2,5,56,103,1325604292
94,14,16,Jits_ISO_5,3,5,63,98,1325673728
94,14,16,Jits_ISO_5,0,1,48,48,1326050492
94,14,16,Jits_ISO_5,1,5,80,127,1326083712
94,14,16,Jits_ISO_5,2,1,48,24,1326126304
94,14,16,Jits_ISO_5,3,5,56,103,1326154048
94,14,16,Jits_ISO_5,4,5,63,98,1326164464
94,14,16,Jits_ISO_5,0,1,48,40,1326607564
94,14,16,Jits_ISO_5,1,5,63,98,1326624148
94,14,16,Jits_ISO_5,2,5,56,103,1326634564
94,14,16,Jits_ISO_5,3,5,80,127,1326653680
94,14,16,Jits_ISO_5,0,1,48,45,1327070804
94,14,16,Jits_ISO_5,1,5,80,127,1327073612
94,14,16,Jits_ISO_5,2,5,63,98,1327133928
94,14,16,Jits_ISO_5,3,1,48,28,1327136296
94,14,16,Jits_ISO_5,4,5,56,103,1327174068
94,14,16,Jits_ISO_5,0,1,48,46,1327579096
94,14,16,Jits_ISO_5,1,5,56,103,1327614568
94,14,16,Jits_ISO_5,2,5,63,98,1327623568
94,14,16,Jits_ISO_5,3,1,48,28,1327628616
94,14,16,Jits_ISO_5,4,5,80,127,1327663632
94,14,16,Jits_ISO_5,0,1,48,42,1328070984
94,14,16,Jits_ISO_5,1,5,56,103,1328084428
94,14,16,Jits_ISO_5,2,5,80,127,1328113956
94,14,16,Jits_ISO_5,3,5,63,98,1328164376
94,14,16,Jits_ISO_5,0,1,48,43,1328614480
94,14,16,Jits_ISO_5,1,5,56,103,1328623944
94,14,16,Jits_ISO_5,2,5,63,98,1328663800
94,14,16,Jits_ISO_5,3,5,80,127,1328667244
94,14,16,Jits_ISO_5,0,1,48,44,1329106112
94,14,16,Jits_ISO_5,1,5,56,103,1329123820
94,14,16,Jits_ISO_5,2,5,63,98,1329133864
94,14,16,Jits_ISO_5,3,5,80,127,1329154396
94,14,16,Jits_ISO_5,0,5,56,103,1329583552
94,14,16,Jits_ISO_5,1,5,80,127,1329586468
94,14,16,Jits_ISO_5,2,1,48,52,1329600444
94,14,16,Jits_ISO_5,3,5,63,98,1329624676
94,14,16,Jits_ISO_5,4,1,48,24,1329671908
94,14,16,Jits_ISO_5,0,1,48,40,1330099892
94,14,16,Jits_ISO_5,1,5,63,98,1330124124
94,14,16,Jits_ISO_5,2,5,56,103,1330153800
94,14,16,Jits_ISO_5,3,5,80,127,1330174704
94,14,16,Jits_ISO_5,4,1,48,21,1330189040
94,14,16,Jits_ISO_5,0,5,80,127,1330594288
94,14,16,Jits_ISO_5,1,5,56,103,1330604408
94,14,16,Jits_ISO_5,2,5,63,98,1330613484
94,14,16,Jits_ISO_5,3,1,48,48,1330625964
94,14,16,Jits_ISO_5,0,1,48,47,1331077488
94,14,16,Jits_ISO_5,1,5,56,103,1331093724
94,14,16,Jits_ISO_5,2,5,80,127,1331133736
94,14,16,Jits_ISO_5,3,5,63,98,1331163708
94,14,16,Jits_ISO_5,0,5,63,98,1331603804
94,14,16,Jits_ISO_5,1,5,80,127,1331614072
94,14,16,Jits_ISO_5,2,5,56,103,1331624640
94,14,16,Jits_ISO_5,3,1,48,51,1331627760
94,14,16,Jits_ISO_5,0,5,56,103,1332084028
94,14,16,Jits_ISO_5,1,1,48,49,1332124556
94,14,16,Jits_ISO_5,2,5,63,98,1332153652
94,14,16,Jits_ISO_5,3,5,80,127,1332164072
94,14,16,Jits_ISO_5,0,5,80,127,1332583700
94,14,16,Jits_ISO_5,1,5,56,103,1332593968
94,14,16,Jits_ISO_5,2,1,48,47,1332620756
94,14,16,Jits_ISO_5,3,5,63,98,1332644332
94,14,16,Jits_ISO_5,0,1,48,45,1333091112
94,14,16,Jits_ISO_5,1,5,80,127,1333093700
94,14,16,Jits_ISO_5,2,5,56,103,1333154336
94,14,16,Jits_ISO_5,3,5,63,98,1333183712
94,14,16,Jits_ISO_5,0,5,56,103,1333593664
94,14,16,Jits_ISO_5,1,5,80,127,1333596656
94,14,16,Jits_ISO_5,2,5,63,98,1333634568
94,14,16,Jits_ISO_5,3,1,48,49,1333638960
94,14,16,Jits_ISO_5,0,1,48,49,1334095384
94,14,16,Jits_ISO_5,1,5,56,103,1334123808
94,14,16,Jits_ISO_5,2,5,63,98,1334153484
94,14,16,Jits_ISO_5,3,5,80,127,1334163704
94,14,16,Jits_ISO_5,0,1,48,53,1334608976
94,14,16,Jits_ISO_5,1,5,63,98,1334633804
94,14,16,Jits_ISO_5,2,5,80,127,1334644000
94,14,16,Jits_ISO_5,3,5,56,103,1334654416
94,14,16,Jits_ISO_5,0,5,80,127,1335084544
94,14,16,Jits_ISO_5,1,5,56,103,1335133548
94,14,16,Jits_ISO_5,2,5,63,98,1335136540
94,14,16,Jits_ISO_5,3,1,48,50,1335248676
94,14,16,Jits_ISO_5,0,1,48,49,1335604628
94,14,16,Jits_ISO_5,1,5,56,103,1335623984
94,14,16,Jits_ISO_5,2,5,80,127,1335643468
94,14,16,Jits_ISO_5,3,5,63,98,1335653740
94,14,16,Jits_ISO_5,0,5,63,98,1336104392
94,14,16,Jits_ISO_5,1,1,48,46,1336113364
94,14,16,Jits_ISO_5,2,5,56,103,1336133984
94,14,16,Jits_ISO_5,3,5,80,127,1336153544
94,14,16,Jits_ISO_5,0,5,56,103,1336614384
94,14,16,Jits_ISO_5,1,5,80,127,1336623460
94,14,16,Jits_ISO_5,2,1,48,45,1336631292
94,14,16,Jits_ISO_5,3,5,63,98,1336694104
94,14,16,Jits_ISO_5,0,5,63,98,1337103724
94,14,16,Jits_ISO_5,1,1,48,38,1337106036
94,14,16,Jits_ISO_5,2,5,80,127,1337143656
94,14,16,Jits_ISO_5,3,5,56,103,1337183516
94,14,16,Jits_ISO_5,0,5,56,103,1337613648
94,14,16,Jits_ISO_5,1,5,63,98,1337623916
94,14,16,Jits_ISO_5,2,5,80,127,1337644672
94,14,16,Jits_ISO_5,3,1,48,28,1337648692
94,14,16,Jits_ISO_5,0,1,48,33,1338112908
94,14,16,Jits_ISO_5,1,5,63,98,1338154436
94,14,16,Jits_ISO_5,2,5,80,127,1338173772
94,14,16,Jits_ISO_5,3,5,56,103,1338194604
94,14,16,Jits_ISO_5,0,5,56,103,1338593720
94,14,16,Jits_ISO_5,1,1,48,28,1338666064
94,14,16,Jits_ISO_5,2,5,80,127,1338673508
94,14,16,Jits_ISO_5,3,5,63,98,1338683852
94,14,16,Jits_ISO_5,0,5,80,127,1339134596
94,14,16,Jits_ISO_5,1,5,63,98,1339143520
94,14,16,Jits_ISO_5,2,1,48,36,1339149856
94,14,16,Jits_ISO_5,3,5,56,103,1339174384
94,14,16,Jits_ISO_5,0,5,63,98,1339604380
94,14,16,Jits_ISO_5,1,1,48,42,1339637316
94,14,16,Jits_ISO_5,2,5,80,127,1339644532
94,14,16,Jits_ISO_5,3,5,56,103,1339703652
94,14,16,Jits_ISO_5,0,5,63,98,1340114452
94,14,16,Jits_ISO_5,1,1,48,47,1340148360
94,14,16,Jits_ISO_5,2,5,56,103,1340163600
94,14,16,Jits_ISO_5,3,5,80,127,1340194020
94,14,16,Jits_ISO_5,0,5,80,127,1340624372
94,14,16,Jits_ISO_5,1,5,63,98,1340633448
94,14,16,Jits_ISO_5,2,1,48,51,1340654024
94,14,16,Jits_ISO_5,3,5,56,103,1340704088
94,14,16,Jits_ISO_5,0,1,48,42,1341163876
94,14,16,Jits_ISO_5,1,5,80,127,1341193568
94,14,16,Jits_ISO_5,2,5,56,103,1341203908
94,14,16,Jits_ISO_5,3,5,63,98,1341207124
94,14,16,Jits_ISO_5,0,5,56,103,1341633892
94,14,16,Jits_ISO_5,1,5,80,127,1341654352
94,14,16,Jits_ISO_5,2,5,63,98,1341663648
94,14,16,Jits_ISO_5,3,1,48,27,1341669084
94,14,16,Jits_ISO_5,0,5,63,98,1342143828
94,14,16,Jits_ISO_5,1,5,56,103,1342183692
94,14,16,Jits_ISO_5,2,1,48,36,1342194376
94,14,16,Jits_ISO_5,3,5,80,127,1342204512
94,14,16,Jits_ISO_5,0,5,63,98,1342643568
94,14,16,Jits_ISO_5,1,1,48,35,1342649380
94,14,16,Jits_ISO_5,2,5,56,103,1342703868
94,14,16,Jits_ISO_5,3,5,80,127,1342706940
94,14,16,Jits_ISO_5,0,5,56,103,1343104460
94,14,16,Jits_ISO_5,1,5,80,127,1343123820
94,14,16,Jits_ISO_5,2,1,48,34,1343156756
94,14,16,Jits_ISO_5,3,5,63,98,1343163752
94,14,16,Jits_ISO_5,0,1,48,43,1343537416
94,14,16,Jits_ISO_5,1,5,56,103,1343633652
94,14,16,Jits_ISO_5,2,5,63,98,1343654480
94,14,16,Jits_ISO_5,3,5,80,127,1343663484
94,14,16,Jits_ISO_5,0,5,80,127,1344103712
94,14,16,Jits_ISO_5,1,1,48,34,1344111464
94,14,16,Jits_ISO_5,2,5,56,103,1344133528
94,14,16,Jits_ISO_5,3,5,63,98,1344173564
94,14,16,Jits_ISO_5,0,1,48,24,1344603496
94,14,16,Jits_ISO_5,1,5,80,127,1344613708
94,14,16,Jits_ISO_5,2,5,56,103,1344634464
94,14,16,Jits_ISO_5,3,5,63,98,1344693756
94,14,16,Jits_ISO_5,0,5,56,103,1345123636
94,14,16,Jits_ISO_5,1,1,48,25,1345124676
94,14,16,Jits_ISO_5,2,5,80,127,1345144536
94,14,16,Jits_ISO_5,3,5,63,98,1345203604
94,14,16,Jits_ISO_5,0,5,80,127,1345603832
94,14,16,Jits_ISO_5,1,5,56,103,1345614400
94,14,16,Jits_ISO_5,2,5,63,98,1345654336
94,14,16,Jits_ISO_5,3,1,48,29,1345680372
94,14,16,Jits_ISO_5,0,5,63,98,1346103624
94,14,16,Jits_ISO_5,1,1,48,28,1346131900
94,14,16,Jits_ISO_5,2,5,56,103,1346143624
94,14,16,Jits_ISO_5,3,5,80,127,1346146692
94,14,16,Jits_ISO_5,0,1,48,31,1346594096
94,14,16,Jits_ISO_5,1,5,63,98,1346623712
94,14,16,Jits_ISO_5,2,5,80,127,1346663652
94,14,16,Jits_ISO_5,3,5,56,103,1346693460
94,14,16,Jits_ISO_5,0,1,48,36,1347108652
94,14,16,Jits_ISO_5,1,5,56,103,1347123592
94,14,16,Jits_ISO_5,2,5,63,98,1347133788
94,14,16,Jits_ISO_5,3,5,80,127,1347163388
94,14,16,Jits_ISO_5,0,1,48,46,1347605312
94,14,16,Jits_ISO_5,1,5,80,127,1347614180
94,14,16,Jits_ISO_5,2,5,63,98,1347683564
94,14,16,Jits_ISO_5,3,5,56,103,1347693832
94,14,16,Jits_ISO_5,0,5,63,98,1348113692
94,14,16,Jits_ISO_5,1,1,48,23,1348120028
94,14,16,Jits_ISO_5,2,5,56,103,1348184340
94,14,16,Jits_ISO_5,3,5,80,127,1348193560
94,14,16,Jits_ISO_5,0,5,63,98,1348613424
94,14,16,Jits_ISO_5,1,5,56,103,1348633956
94,14,16,Jits_ISO_5,2,1,48,48,1348667864
94,14,16,Jits_ISO_5,3,5,80,127,1348673884
94,14,16,Jits_ISO_5,0,5,56,103,1349123564
94,14,16,Jits_ISO_5,1,5,63,98,1349133612
94,14,16,Jits_ISO_5,2,1,48,49,1349154412
94,14,16,Jits_ISO_5,3,5,80,127,1349213472
94,14,16,Jits_ISO_5,0,5,63,98,1349613944
94,14,16,Jits_ISO_5,1,1,48,40,1349617508
94,14,16,Jits_ISO_5,2,5,56,103,1349643612
94,14,16,Jits_ISO_5,3,5,80,127,1349683548
94,14,16,Jits_ISO_5,0,5,56,103,1350113748
94,14,16,Jits_ISO_5,1,5,63,98,1350153536
94,14,16,Jits_ISO_5,2,1,48,41,1350172540
94,14,16,Jits_ISO_5,3,5,80,127,1350193544
94,14,16,Jits_ISO_5,0,5,80,127,1350614320
94,14,16,Jits_ISO_5,1,1,48,52,1350629196
94,14,16,Jits_ISO_5,2,5,56,103,1350694332
94,14,16,Jits_ISO_5,3,5,63,98,1350703404
94,14,16,Jits_ISO_5,0,1,48,48,1351103700
94,14,16,Jits_ISO_5,1,5,56,103,1351164708
94,14,16,Jits_ISO_5,2,5,63,98,1351167620
94,14,16,Jits_ISO_5,3,5,80,127,1351173480
94,14,16,Jits_ISO_5,4,1,48,20,1351202208
94,14,16,Jits_ISO_5,0,1,48,33,1351637296
94,14,16,Jits_ISO_5,1,5,56,103,1351683552
94,14,16,Jits_ISO_5,2,5,63,98,1351703860
94,14,16,Jits_ISO_5,3,5,80,127,1351714428
94,14,16,Jits_ISO_5,0,5,63,98,1352144488
94,14,16,Jits_ISO_5,1,5,80,127,1352153488
94,14,16,Jits_ISO_5,2,5,56,103,1352173872
94,14,16,Jits_ISO_5,3,1,48,48,1352205904
94,14,16,Jits_ISO_5,0,5,63,98,1352644068
94,14,16,Jits_ISO_5,1,1,48,43,1352673260
94,14,16,Jits_ISO_5,2,5,56,103,1352723696
94,14,16,Jits_ISO_5,3,5,80,127,1352726768
94,14,16,Jits_ISO_5,0,1,48,39,1353133204
94,14,16,Jits_ISO_5,1,5,63,98,1353143712
94,14,16,Jits_ISO_5,2,5,56,103,1353164392
94,14,16,Jits_ISO_5,3,5,80,127,1353193768
94,14,16,Jits_ISO_5,0,5,56,103,1353644276
94,14,16,Jits_ISO_5,1,5,63,98,1353663908
94,14,16,Jits_ISO_5,2,1,48,42,1353665996
94,14,16,Jits_ISO_5,3,5,80,127,1353674024
94,14,16,Jits_ISO_5,4,1,48,18,1353754360
94,14,16,Jits_ISO_5,0,1,48,43,1354160252
94,14,16,Jits_ISO_5,1,5,56,103,1354173772
94,14,16,Jits_ISO_5,2,5,63,98,1354203516
94,14,16,Jits_ISO_5,3,5,80,127,1354206808
94,14,16,Jits_ISO_5,0,5,56,103,1354624328
94,14,16,Jits_ISO_5,1,1,48,40,1354646204
94,14,16,Jits_ISO_5,2,5,63,98,1354664436
94,14,16,Jits_ISO_5,3,5,80,127,1354723552
94,14,16,Jits_ISO_5,0,1,48,43,1355124044
94,14,16,Jits_ISO_5,1,5,56,103,1355143548
94,14,16,Jits_ISO_5,2,5,63,98,1355153992
94,14,16,Jits_ISO_5,3,5,80,127,1355214380
94,14,16,Jits_ISO_5,0,1,48,37,1355633144
94,14,16,Jits_ISO_5,1,5,56,103,1355644328
94,14,16,Jits_ISO_5,2,5,80,127,1355663592
94,14,16,Jits_ISO_5,3,5,63,98,1355693364
94,14,16,Jits_ISO_5,0,1,48,38,1356120048
94,14,16,Jits_ISO_5,1,5,80,127,1356144060
94,14,16,Jits_ISO_5,2,5,56,103,1356154480
94,14,16,Jits_ISO_5,3,5,63,98,1356173596
94,14,16,Jits_ISO_5,0,5,63,98,1356633532
94,14,16,Jits_ISO_5,1,1,48,51,1356654640
94,14,16,Jits_ISO_5,2,5,80,127,1356714392
94,14,16,Jits_ISO_5,3,5,56,103,1356723540
94,14,16,Jits_ISO_5,0,1,48,49,1357108584
94,14,16,Jits_ISO_5,1,5,80,127,1357193576
94,14,16,Jits_ISO_5,2,5,56,103,1357214492
94,14,16,Jits_ISO_5,3,5,63,98,1357217332
94,14,16,Jits_ISO_5,0,1,48,40,1357637308
94,14,16,Jits_ISO_5,1,5,63,98,1357663556
94,14,16,Jits_ISO_5,2,5,80,127,1357666772
94,14,16,Jits_ISO_5,3,5,56,103,1357724264
94,14,16,Jits_ISO_5,0,5,56,103,1358143884
94,14,16,Jits_ISO_5,1,1,48,44,1358146252
94,14,16,Jits_ISO_5,2,5,80,127,1358154516
94,14,16,Jits_ISO_5,3,5,63,98,1358194156
94,14,16,Jits_ISO_5,0,1,48,40,1358630404
94,14,16,Jits_ISO_5,1,5,56,103,1358634260
94,14,16,Jits_ISO_5,2,5,63,98,1358693600
94,14,16,Jits_ISO_5,3,5,80,127,1358704092
94,14,16,Jits_ISO_5,0,5,63,98,1359144260
94,14,16,Jits_ISO_5,1,5,80,127,1359184420
94,14,16,Jits_ISO_5,2,1,48,47,1359197212
94,14,16,Jits_ISO_5,3,5,56,103,1359224428
94,14,16,Jits_ISO_5,0,5,56,103,1359643996
94,14,16,Jits_ISO_5,1,5,63,98,1359724012
94,14,16,Jits_ISO_5,2,5,80,127,1359727524
94,14,16,Jits_ISO_5,3,1,48,36,1359743984
94,14,16,Jits_ISO_5,0,9999,9999,9999,1300331624
94,14,16,Jits_ISO_5,1,9999,9999,9999,1300831344
94,14,16,Jits_ISO_5,2,9999,9999,9999,1301332056
94,14,16,Jits_ISO_5,3,9999,9999,9999,1301831788
94,14,16,Jits_ISO_5,4,9999,9999,9999,1302331500
94,14,16,Jits_ISO_5,5,9999,9999,9999,1302831160
94,14,16,Jits_ISO_5,6,9999,9999,9999,1303331940
94,14,16,Jits_ISO_5,7,9999,9999,9999,1303831612
94,14,16,Jits_ISO_5,8,9999,9999,9999,1304331360
94,14,16,Jits_ISO_5,9,9999,9999,9999,1304832080
94,14,16,Jits_ISO_5,10,9999,9999,9999,1305342012
94,14,16,Jits_ISO_5,11,9999,9999,9999,1305841764
94,14,16,Jits_ISO_5,12,9999,9999,9999,1306341492
94,14,16,Jits_ISO_5,13,9999,9999,9999,1306841148
94,14,16,Jits_ISO_5,14,9999,9999,9999,1307341932
94,14,16,Jits_ISO_5,15,9999,9999,9999,1307841640
94,14,16,Jits_ISO_5,16,9999,9999,9999,1308341336
94,14,16,Jits_ISO_5,17,9999,9999,9999,1308842040
94,14,16,Jits_ISO_5,18,9999,9999,9999,1309341800
94,14,16,Jits_ISO_5,19,9999,9999,9999,1309841472
94,14,16,Jits_ISO_5,20,9999,9999,9999,1310341220
94,14,16,Jits_ISO_5,21,9999,9999,9999,1310841944
94,14,16,Jits_ISO_5,22,9999,9999,9999,1311341692
94,14,16,Jits_ISO_5,23,9999,9999,9999,1311841400
94,14,16,Jits_ISO_5,24,9999,9999,9999,1312342120
94,14,16,Jits_ISO_5,25,9999,9999,9999,1312852044
94,14,16,Jits_ISO_5,26,9999,9999,9999,1313351768
94,14,16,Jits_ISO_5,27,9999,9999,9999,1313851456
94,14,16,Jits_ISO_5,28,9999,9999,9999,1314351180
94,14,16,Jits_ISO_5,29,9999,9999,9999,1314851896
94,14,16,Jits_ISO_5,30,9999,9999,9999,1315351612
94,14,16,Jits_ISO_5,31,9999,9999,9999,1315851344
94,14,16,Jits_ISO_5,32,9999,9999,9999,1316352060
94,14,16,Jits_ISO_5,33,9999,9999,9999,1316862028
94,14,16,Jits_ISO_5,34,9999,9999,9999,1317361724
94,14,16,Jits_ISO_5,35,9999,9999,9999,1317861436
94,14,16,Jits_ISO_5,36,9999,9999,9999,1318361192
94,14,16,Jits_ISO_5,37,9999,9999,9999,1318861900
94,14,16,Jits_ISO_5,38,9999,9999,9999,1319361636
94,14,16,Jits_ISO_5,39,9999,9999,9999,1319861344
94,14,16,Jits_ISO_5,40,9999,9999,9999,1320362048
94,14,16,Jits_ISO_5,41,9999,9999,9999,1320861776
94,14,16,Jits_ISO_5,42,9999,9999,9999,1321361496
94,14,16,Jits_ISO_5,43,9999,9999,9999,1321861240
94,14,16,Jits_ISO_5,44,9999,9999,9999,1322361940
94,14,16,Jits_ISO_5,45,9999,9999,9999,1322861668
94,14,16,Jits_ISO_5,46,9999,9999,9999,1323361392
94,14,16,Jits_ISO_5,47,9999,9999,9999,1323862128
94,14,16,Jits_ISO_5,48,9999,9999,9999,1324372092
94,14,16,Jits_ISO_5,49,9999,9999,9999,1324871744
94,14,16,Jits_ISO_5,50,9999,9999,9999,1325371504
94,14,16,Jits_ISO_5,51,9999,9999,9999,1325871180
94,14,16,Jits_ISO_5,52,9999,9999,9999,1326371940
94,14,16,Jits_ISO_5,53,9999,9999,9999,1326871640
94,14,16,Jits_ISO_5,54,9999,9999,9999,1327371352
94,14,16,Jits_ISO_5,55,9999,9999,9999,1327872076
94,14,16,Jits_ISO_5,56,9999,9999,9999,1328382040
94,14,16,Jits_ISO_5,57,9999,9999,9999,1328881764
94,14,16,Jits_ISO_5,58,9999,9999,9999,1329381496
94,14,16,Jits_ISO_5,59,9999,9999,9999,1329881196
94,14,16,Jits_ISO_5,60,9999,9999,9999,1330381932
94,14,16,Jits_ISO_5,61,9999,9999,9999,1330881624
94,14,16,Jits_ISO_5,62,9999,9999,9999,1331381372
94,14,16,Jits_ISO_5,63,9999,9999,9999,1331882076
94,14,16,Jits_ISO_5,64,9999,9999,9999,1332381808
94,14,16,Jits_ISO_5,65,9999,9999,9999,1332881476
94,14,16,Jits_ISO_5,66,9999,9999,9999,1333381196
94,14,16,Jits_ISO_5,67,9999,9999,9999,1333881964
94,14,16,Jits_ISO_5,68,9999,9999,9999,1334381640
94,14,16,Jits_ISO_5,69,9999,9999,9999,1334881368
94,14,16,Jits_ISO_5,70,9999,9999,9999,1335382136
94,14,16,Jits_ISO_5,71,9999,9999,9999,1335892072
94,14,16,Jits_ISO_5,72,9999,9999,9999,1336391732
94,14,16,Jits_ISO_5,73,9999,9999,9999,1336891468
94,14,16,Jits_ISO_5,74,9999,9999,9999,1337391216
94,14,16,Jits_ISO_5,75,9999,9999,9999,1337891920
94,14,16,Jits_ISO_5,76,9999,9999,9999,1338391668
94,14,16,Jits_ISO_5,77,9999,9999,9999,1338891328
94,14,16,Jits_ISO_5,78,9999,9999,9999,1339392120
94,14,16,Jits_ISO_5,79,9999,9999,9999,1339902060
94,14,16,Jits_ISO_5,80,9999,9999,9999,1340401720
94,14,16,Jits_ISO_5,81,9999,9999,9999,1340901452
94,14,16,Jits_ISO_5,82,9999,9999,9999,1341401196
94,14,16,Jits_ISO_5,83,9999,9999,9999,1341901900
94,14,16,Jits_ISO_5,84,9999,9999,9999,1342401652
94,14,16,Jits_ISO_5,85,9999,9999,9999,1342901308
94,14,16,Jits_ISO_5,86,9999,9999,9999,1343402084
94,14,16,Jits_ISO_5,87,9999,9999,9999,1343901760
94,14,16,Jits_ISO_5,88,9999,9999,9999,1344401488
94,14,16,Jits_ISO_5,89,9999,9999,9999,1344901204
94,14,16,Jits_ISO_5,90,9999,9999,9999,1345401912
94,14,16,Jits_ISO_5,91,9999,9999,9999,1345901632
94,14,16,Jits_ISO_5,92,9999,9999,9999,1346401364
94,14,16,Jits_ISO_5,93,9999,9999,9999,1346902068
94,14,16,Jits_ISO_5,94,9999,9999,9999,1347412060
94,14,16,Jits_ISO_5,95,9999,9999,9999,1347911792
94,14,16,Jits_ISO_5,96,9999,9999,9999,1348411448
94,14,16,Jits_ISO_5,97,9999,9999,9999,1348911176
94,14,16,Jits_ISO_5,98,9999,9999,9999,1349411952
94,14,16,Jits_ISO_5,99,9999,9999,9999,1349911620
94,14,16,Jits_ISO_5,100,9999,9999,9999,1350411356
94,14,16,Jits_ISO_5,101,9999,9999,9999,1350912076
94,14,16,Jits_ISO_5,102,9999,9999,9999,1351422056
94,14,16,Jits_ISO_5,103,9999,9999,9999,1351921756
94,14,16,Jits_ISO_5,104,9999,9999,9999,1352421488
94,14,16,Jits_ISO_5,105,9999,9999,9999,1352921140
94,14,16,Jits_ISO_5,106,9999,9999,9999,1353421916
94,14,16,Jits_ISO_5,107,9999,9999,9999,1353921628
94,14,16,Jits_ISO_5,108,9999,9999,9999,1354421332
94,14,16,Jits_ISO_5,109,9999,9999,9999,1354922108
94,14,16,Jits_ISO_5,110,9999,9999,9999,1355421780
94,14,16,Jits_ISO_5,111,9999,9999,9999,1355921512
94,14,16,Jits_ISO_5,112,9999,9999,9999,1356421220
94,14,16,Jits_ISO_5,113,9999,9999,9999,1356921928
94,14,16,Jits_ISO_5,114,9999,9999,9999,1357421656
94,14,16,Jits_ISO_5,115,9999,9999,9999,1357921380
94,14,16,Jits_ISO_5,116,9999,9999,9999,1358422084
94,14,16,Jits_ISO_5,117,9999,9999,9999,1358932020
94,14,16,Jits_ISO_5,118,9999,9999,9999,1359431752
94,14,16,Jits_ISO_5,119,9999,9999,9999,1359931480
94,15,7,Jits_ISO_8,0,5,56,103,1369302308
94,15,7,Jits_ISO_8,1,5,63,98,1369305328
94,15,7,Jits_ISO_8,2,5,80,127,1369308524
94,15,7,Jits_ISO_8,0,5,56,103,1370102232
94,15,7,Jits_ISO_8,1,5,63,98,1370105252
94,15,7,Jits_ISO_8,2,5,80,127,1370108300
94,15,7,Jits_ISO_8,0,5,80,127,1370841412
94,15,7,Jits_ISO_8,1,5,63,98,1370931548
94,15,7,Jits_ISO_8,2,5,56,103,1370941820
94,15,7,Jits_ISO_8,0,5,56,103,1371661660
94,15,7,Jits_ISO_8,1,5,63,98,1371671856
94,15,7,Jits_ISO_8,2,5,80,127,1371762284
94,15,7,Jits_ISO_8,0,5,63,98,1372431636
94,15,7,Jits_ISO_8,1,5,80,127,1372461312
94,15,7,Jits_ISO_8,2,5,56,103,1372492032
94,15,7,Jits_ISO_8,0,5,56,103,1373231332
94,15,7,Jits_ISO_8,1,5,80,127,1373331684
94,15,7,Jits_ISO_8,2,5,63,98,1373382184
94,15,7,Jits_ISO_8,0,5,56,103,1374032176
94,15,7,Jits_ISO_8,1,5,80,127,1374082528
94,15,7,Jits_ISO_8,2,5,63,98,1374122268
94,15,7,Jits_ISO_8,0,5,80,127,1374861560
94,15,7,Jits_ISO_8,1,5,63,98,1374892360
94,15,7,Jits_ISO_8,2,5,56,103,1374962264
94,15,7,Jits_ISO_8,0,1,48,47,1375639356
94,15,7,Jits_ISO_8,1,1,48,35,1375682728
94,15,7,Jits_ISO_8,2,5,63,98,1375692268
94,15,7,Jits_ISO_8,3,5,56,103,1375721720
94,15,7,Jits_ISO_8,4,5,80,127,1375782168
94,15,7,Jits_ISO_8,0,1,48,52,1376420056
94,15,7,Jits_ISO_8,1,5,56,103,1376431540
94,15,7,Jits_ISO_8,2,5,80,127,1376434680
94,15,7,Jits_ISO_8,3,1,48,43,1376476596
94,15,7,Jits_ISO_8,4,5,63,98,1376552288
94,15,7,Jits_ISO_8,0,1,48,41,1377270464
94,15,7,Jits_ISO_8,1,5,56,103,1377312144
94,15,7,Jits_ISO_8,2,1,48,26,1377337940
94,15,7,Jits_ISO_8,3,5,80,127,1377352136
94,15,7,Jits_ISO_8,4,5,63,98,1377362332
94,15,7,Jits_ISO_8,0,5,56,103,1378072076
94,15,7,Jits_ISO_8,1,5,80,127,1378092460
94,15,7,Jits_ISO_8,2,1,48,49,1378136856
94,15,7,Jits_ISO_8,3,5,63,98,1378172248
94,15,7,Jits_ISO_8,4,1,48,32,1378198596
94,15,7,Jits_ISO_8,0,1,48,47,1378860932
94,15,7,Jits_ISO_8,1,5,80,127,1378862500
94,15,7,Jits_ISO_8,2,1,48,35,1378910940
94,15,7,Jits_ISO_8,3,5,56,103,1378961632
94,15,7,Jits_ISO_8,4,5,63,98,1378972200
94,15,7,Jits_ISO_8,0,5,63,98,1379631500
94,15,7,Jits_ISO_8,1,1,48,51,1379684664
94,15,7,Jits_ISO_8,2,5,80,127,1379691884
94,15,7,Jits_ISO_8,3,5,56,103,1379702304
94,15,7,Jits_ISO_8,4,1,48,41,1379740348
94,15,7,Jits_ISO_8,0,5,56,103,1380432176
94,15,7,Jits_ISO_8,1,1,48,42,1380434844
94,15,7,Jits_ISO_8,2,1,48,33,1380493112
94,15,7,Jits_ISO_8,3,5,63,98,1380502004
94,15,7,Jits_ISO_8,4,5,80,127,1380505292
94,15,7,Jits_ISO_8,0,1,48,45,1381225176
94,15,7,Jits_ISO_8,1,5,63,98,1381261624
94,15,7,Jits_ISO_8,2,1,48,31,1381279500
94,15,7,Jits_ISO_8,3,5,56,103,1381311976
94,15,7,Jits_ISO_8,4,5,80,127,1381315040
94,15,7,Jits_ISO_8,0,1,48,46,1382003000
94,15,7,Jits_ISO_8,1,5,56,103,1382021456
94,15,7,Jits_ISO_8,2,5,80,127,1382024672
94,15,7,Jits_ISO_8,3,1,48,31,1382066312
94,15,7,Jits_ISO_8,4,5,63,98,1382111516
94,15,7,Jits_ISO_8,0,1,48,45,1382775864
94,15,7,Jits_ISO_8,1,1,48,32,1382832216
94,15,7,Jits_ISO_8,2,5,63,98,1382862132
94,15,7,Jits_ISO_8,3,5,56,103,1382952256
94,15,7,Jits_ISO_8,4,5,80,127,1382982084
94,15,7,Jits_ISO_8,0,1,48,45,1383604596
94,15,7,Jits_ISO_8,1,1,48,28,1383652560
94,15,7,Jits_ISO_8,2,5,56,103,1383653600
94,15,7,Jits_ISO_8,3,5,63,98,1383752116
94,15,7,Jits_ISO_8,4,5,80,127,1383781716
94,15,7,Jits_ISO_8,0,5,63,98,1384472148
94,15,7,Jits_ISO_8,1,5,56,103,1384482120
94,15,7,Jits_ISO_8,2,1,48,46,1384542780
94,15,7,Jits_ISO_8,3,5,80,127,1384572248
94,15,7,Jits_ISO_8,0,1,48,40,1385181248
94,15,7,Jits_ISO_8,1,5,63,98,1385292288
94,15,7,Jits_ISO_8,2,5,56,103,1385372108
94,15,7,Jits_ISO_8,3,5,80,127,1385375100
94,15,7,Jits_ISO_8,0,1,48,37,1385945576
94,15,7,Jits_ISO_8,1,5,80,127,1386052060
94,15,7,Jits_ISO_8,2,5,63,98,1386072372
94,15,7,Jits_ISO_8,3,5,56,103,1386131960
94,15,7,Jits_ISO_8,0,1,48,48,1386718080
94,15,7,Jits_ISO_8,1,1,48,29,1386775308
94,15,7,Jits_ISO_8,2,5,56,103,1386891532
94,15,7,Jits_ISO_8,3,5,63,98,1386912164
94,15,7,Jits_ISO_8,4,5,80,127,1386915528
94,15,7,Jits_ISO_8,0,1,48,51,1387601856
94,15,7,Jits_ISO_8,1,5,63,98,1387632148
94,15,7,Jits_ISO_8,2,1,48,33,1387650020
94,15,7,Jits_ISO_8,3,5,80,127,1387712248
94,15,7,Jits_ISO_8,4,5,56,103,1387722072
94,15,7,Jits_ISO_8,0,1,48,51,1388411380
94,15,7,Jits_ISO_8,1,5,63,98,1388452108
94,15,7,Jits_ISO_8,2,1,48,36,1388468840
94,15,7,Jits_ISO_8,3,5,56,103,1388471576
94,15,7,Jits_ISO_8,4,5,80,127,1388521924
94,15,7,Jits_ISO_8,0,1,48,49,1389200092
94,15,7,Jits_ISO_8,1,5,80,127,1389251964
94,15,7,Jits_ISO_8,2,1,48,34,1389270136
94,15,7,Jits_ISO_8,3,5,63,98,1389292104
94,15,7,Jits_ISO_8,4,5,56,103,1389312264
94,15,7,Jits_ISO_8,0,1,48,52,1389983752
94,15,7,Jits_ISO_8,1,1,48,34,1390079472
94,15,7,Jits_ISO_8,2,5,56,103,1390091572
94,15,7,Jits_ISO_8,3,5,63,98,1390102140
94,15,7,Jits_ISO_8,4,5,80,127,1390122228
94,15,7,Jits_ISO_8,0,5,56,103,1390821928
94,15,7,Jits_ISO_8,1,1,48,54,1390836652
94,15,7,Jits_ISO_8,2,1,48,42,1390903768
94,15,7,Jits_ISO_8,3,5,63,98,1390912112
94,15,7,Jits_ISO_8,4,5,80,127,1390972204
94,15,7,Jits_ISO_8,0,5,80,127,1391652220
94,15,7,Jits_ISO_8,1,5,56,103,1391661368
94,15,7,Jits_ISO_8,2,1,48,52,1391709968
94,15,7,Jits_ISO_8,3,5,63,98,1391732164
94,15,7,Jits_ISO_8,4,1,48,28,1391808556
94,15,7,Jits_ISO_8,0,5,63,98,1392481912
94,15,7,Jits_ISO_8,1,1,48,42,1392488472
94,15,7,Jits_ISO_8,2,5,80,127,1392571768
94,15,7,Jits_ISO_8,3,5,56,103,1392582036
94,15,7,Jits_ISO_8,0,5,63,98,1393222136
94,15,7,Jits_ISO_8,1,5,80,127,1393272264
94,15,7,Jits_ISO_8,2,1,48,49,1393320144
94,15,7,Jits_ISO_8,3,5,56,103,1393331700
94,15,7,Jits_ISO_8,0,5,56,103,1394051440
94,15,7,Jits_ISO_8,1,5,80,127,1394101592
94,15,7,Jits_ISO_8,2,5,63,98,1394122128
94,15,7,Jits_ISO_8,3,1,48,47,1394130200
94,15,7,Jits_ISO_8,0,5,56,103,1394821344
94,15,7,Jits_ISO_8,1,1,48,49,1394864040
94,15,7,Jits_ISO_8,2,5,80,127,1394881980
94,15,7,Jits_ISO_8,3,1,48,34,1394926956
94,15,7,Jits_ISO_8,4,5,63,98,1394951412
94,15,7,Jits_ISO_8,0,5,56,103,1395622356
94,15,7,Jits_ISO_8,1,1,48,50,1395636036
94,15,7,Jits_ISO_8,2,5,80,127,1395652028
94,15,7,Jits_ISO_8,3,5,63,98,1395681552
94,15,7,Jits_ISO_8,4,1,48,33,1395686000
94,15,7,Jits_ISO_8,0,1,48,38,1396436116
94,15,7,Jits_ISO_8,1,5,56,103,1396461920
94,15,7,Jits_ISO_8,2,5,80,127,1396482304
94,15,7,Jits_ISO_8,3,5,63,98,1396542004
94,15,7,Jits_ISO_8,0,1,48,52,1397268108
94,15,7,Jits_ISO_8,1,5,80,127,1397341496
94,15,7,Jits_ISO_8,2,5,56,103,1397352140
94,15,7,Jits_ISO_8,3,1,48,28,1397360744
94,15,7,Jits_ISO_8,4,5,63,98,1397362240
94,15,7,Jits_ISO_8,0,1,48,43,1398045128
94,15,7,Jits_ISO_8,1,5,56,103,1398102324
94,15,7,Jits_ISO_8,2,1,48,27,1398120868
94,15,7,Jits_ISO_8,3,5,80,127,1398142244
94,15,7,Jits_ISO_8,4,5,63,98,1398172164
94,15,7,Jits_ISO_8,0,5,56,103,1398872372
94,15,7,Jits_ISO_8,1,1,48,40,1398876012
94,15,7,Jits_ISO_8,2,5,63,98,1398902044
94,15,7,Jits_ISO_8,3,5,80,127,1398942008
94,15,7,Jits_ISO_8,0,5,80,127,1399622048
94,15,7,Jits_ISO_8,1,1,48,50,1399650944
94,15,7,Jits_ISO_8,2,5,63,98,1399672168
94,15,7,Jits_ISO_8,3,5,56,103,1399691508
94,15,7,Jits_ISO_8,4,1,48,29,1399765056
94,15,7,Jits_ISO_8,0,1,48,49,1400323136
94,15,7,Jits_ISO_8,1,1,48,35,1400369868
94,15,7,Jits_ISO_8,2,5,56,103,1400451636
94,15,7,Jits_ISO_8,3,5,80,127,1400522076
94,15,7,Jits_ISO_8,4,5,63,98,1400581420
94,15,7,Jits_ISO_8,0,1,48,48,1401202264
94,15,7,Jits_ISO_8,1,5,80,127,1401252140
94,15,7,Jits_ISO_8,2,5,63,98,1401342260
94,15,7,Jits_ISO_8,3,5,56,103,1401362044
94,15,7,Jits_ISO_8,0,1,48,53,1402022980
94,15,7,Jits_ISO_8,1,5,63,98,1402072376
94,15,7,Jits_ISO_8,2,5,56,103,1402091940
94,15,7,Jits_ISO_8,3,1,48,32,1402100292
94,15,7,Jits_ISO_8,4,5,80,127,1402131780
94,15,7,Jits_ISO_8,0,5,80,127,1402832224
94,15,7,Jits_ISO_8,1,1,48,55,1402847176
94,15,7,Jits_ISO_8,2,5,63,98,1402851784
94,15,7,Jits_ISO_8,3,1,48,31,1402926052
94,15,7,Jits_ISO_8,4,5,56,103,1402931480
94,15,7,Jits_ISO_8,0,1,48,51,1403615796
94,15,7,Jits_ISO_8,1,5,63,98,1403621896
94,15,7,Jits_ISO_8,2,1,48,34,1403686356
94,15,7,Jits_ISO_8,3,5,56,103,1403732312
94,15,7,Jits_ISO_8,4,5,80,127,1403735452
94,15,7,Jits_ISO_8,0,1,48,56,1404409420
94,15,7,Jits_ISO_8,1,5,63,98,1404442128
94,15,7,Jits_ISO_8,2,5,56,103,1404452092
94,15,7,Jits_ISO_8,3,5,80,127,1404455460
94,15,7,Jits_ISO_8,4,1,48,35,1404517372
94,15,7,Jits_ISO_8,0,1,48,51,1405123788
94,15,7,Jits_ISO_8,1,1,48,35,1405187888
94,15,7,Jits_ISO_8,2,5,56,103,1405222164
94,15,7,Jits_ISO_8,3,5,80,127,1405342128
94,15,7,Jits_ISO_8,4,5,63,98,1405381920
94,15,7,Jits_ISO_8,0,5,56,103,1406041388
94,15,7,Jits_ISO_8,1,1,48,47,1406112788
94,15,7,Jits_ISO_8,2,5,80,127,1406122248
94,15,7,Jits_ISO_8,3,5,63,98,1406141736
94,15,7,Jits_ISO_8,4,1,48,32,1406184472
94,15,7,Jits_ISO_8,0,1,48,52,1406788768
94,15,7,Jits_ISO_8,1,5,56,103,1406842296
94,15,7,Jits_ISO_8,2,1,48,32,1406870304
94,15,7,Jits_ISO_8,3,5,63,98,1406951916
94,15,7,Jits_ISO_8,4,5,80,127,1406955280
94,15,7,Jits_ISO_8,0,1,48,51,1407616940
94,15,7,Jits_ISO_8,1,5,56,103,1407671768
94,15,7,Jits_ISO_8,2,1,48,31,1407701876
94,15,7,Jits_ISO_8,3,5,80,127,1407703144
94,15,7,Jits_ISO_8,4,5,63,98,1407721732
94,15,7,Jits_ISO_8,0,5,63,98,1408451928
94,15,7,Jits_ISO_8,1,5,56,103,1408462048
94,15,7,Jits_ISO_8,2,5,80,127,1408472320
94,15,7,Jits_ISO_8,3,1,48,50,1408495588
94,15,7,Jits_ISO_8,4,1,48,27,1408597448
94,15,7,Jits_ISO_8,0,1,48,43,1409123292
94,15,7,Jits_ISO_8,1,1,48,27,1409172748
94,15,7,Jits_ISO_8,2,5,80,127,1409241404
94,15,7,Jits_ISO_8,3,5,56,103,1409291596
94,15,7,Jits_ISO_8,4,5,63,98,1409331532
94,15,7,Jits_ISO_8,0,1,48,52,1409994348
94,15,7,Jits_ISO_8,1,5,80,127,1410061956
94,15,7,Jits_ISO_8,2,1,48,32,1410082776
94,15,7,Jits_ISO_8,3,5,63,98,1410083896
94,15,7,Jits_ISO_8,4,5,56,103,1410132224
94,15,7,Jits_ISO_8,0,1,48,60,1410791288
94,15,7,Jits_ISO_8,1,5,80,127,1410871852
94,15,7,Jits_ISO_8,2,1,48,33,1410899228
94,15,7,Jits_ISO_8,3,5,56,103,1410902332
94,15,7,Jits_ISO_8,4,5,63,98,1410971964
94,15,7,Jits_ISO_8,0,1,48,43,1411617580
94,15,7,Jits_ISO_8,1,1,48,25,1411697880
94,15,7,Jits_ISO_8,2,5,56,103,1411721740
94,15,7,Jits_ISO_8,3,5,80,127,1411731960
94,15,7,Jits_ISO_8,4,5,63,98,1411771752
94,15,7,Jits_ISO_8,0,5,56,103,1412432172
94,15,7,Jits_ISO_8,1,5,63,98,1412451956
94,15,7,Jits_ISO_8,2,5,80,127,1412522264
94,15,7,Jits_ISO_8,3,1,48,43,1412543360
94,15,7,Jits_ISO_8,0,1,48,44,1413167640
94,15,7,Jits_ISO_8,1,1,48,34,1413222320
94,15,7,Jits_ISO_8,2,5,63,98,1413251568
94,15,7,Jits_ISO_8,3,5,80,127,1413311760
94,15,7,Jits_ISO_8,4,5,56,103,1413332352
94,15,7,Jits_ISO_8,0,1,48,44,1413943680
94,15,7,Jits_ISO_8,1,1,48,35,1413992660
94,15,7,Jits_ISO_8,2,5,80,127,1414042008
94,15,7,Jits_ISO_8,3,5,56,103,1414071832
94,15,7,Jits_ISO_8,4,5,63,98,1414102240
94,15,7,Jits_ISO_8,0,1,48,31,1414782416
94,15,7,Jits_ISO_8,1,5,56,103,1414841732
94,15,7,Jits_ISO_8,2,1,48,25,1414843580
94,15,7,Jits_ISO_8,3,5,63,98,1414902104
94,15,7,Jits_ISO_8,4,5,80,127,1414961804
94,15,7,Jits_ISO_8,0,1,48,44,1415616680
94,15,7,Jits_ISO_8,1,5,80,127,1415661888
94,15,7,Jits_ISO_8,2,1,48,27,1415665888
94,15,7,Jits_ISO_8,3,5,56,103,1415682328
94,15,7,Jits_ISO_8,4,5,63,98,1415752156
94,15,7,Jits_ISO_8,0,1,48,46,1416384016
94,15,7,Jits_ISO_8,1,1,48,32,1416432252
94,15,7,Jits_ISO_8,2,5,80,127,1416461944
94,15,7,Jits_ISO_8,3,5,63,98,1416482256
94,15,7,Jits_ISO_8,4,5,56,103,1416512004
94,15,7,Jits_ISO_8,0,1,48,46,1417164540
94,15,7,Jits_ISO_8,1,1,48,35,1417208340
94,15,7,Jits_ISO_8,2,5,80,127,1417252132
94,15,7,Jits_ISO_8,3,5,63,98,1417271916
94,15,7,Jits_ISO_8,4,5,56,103,1417332068
94,15,7,Jits_ISO_8,0,1,48,54,1417952636
94,15,7,Jits_ISO_8,1,1,48,38,1417986844
94,15,7,Jits_ISO_8,2,5,80,127,1418051840
94,15,7,Jits_ISO_8,3,5,56,103,1418152324
94,15,7,Jits_ISO_8,4,5,63,98,1418182000
94,15,7,Jits_ISO_8,0,1,48,54,1418834240
94,15,7,Jits_ISO_8,1,5,63,98,1418841312
94,15,7,Jits_ISO_8,2,5,80,127,1418891888
94,15,7,Jits_ISO_8,3,1,48,41,1418893808
94,15,7,Jits_ISO_8,4,5,56,103,1418912024
94,15,7,Jits_ISO_8,0,1,48,59,1419581924
94,15,7,Jits_ISO_8,1,1,48,43,1419623484
94,15,7,Jits_ISO_8,2,5,80,127,1419682124
94,15,7,Jits_ISO_8,3,5,56,103,1419711872
94,15,7,Jits_ISO_8,4,5,63,98,1419714936
94,15,7,Jits_ISO_8,0,1,48,56,1420445028
94,15,7,Jits_ISO_8,1,1,48,46,1420491016
94,15,7,Jits_ISO_8,2,5,63,98,1420511792
94,15,7,Jits_ISO_8,3,5,56,103,1420551508
94,15,7,Jits_ISO_8,4,5,80,127,1420572040
94,15,7,Jits_ISO_8,0,5,80,127,1421251820
94,15,7,Jits_ISO_8,1,1,48,52,1421275464
94,15,7,Jits_ISO_8,2,5,63,98,1421331984
94,15,7,Jits_ISO_8,3,5,56,103,1421372952
94,15,7,Jits_ISO_8,0,5,63,98,1422072152
94,15,7,Jits_ISO_8,1,1,48,50,1422077216
94,15,7,Jits_ISO_8,2,1,48,43,1422107012
94,15,7,Jits_ISO_8,3,5,80,127,1422152068
94,15,7,Jits_ISO_8,4,5,56,103,1422171632
94,15,7,Jits_ISO_8,0,1,48,62,1422864636
94,15,7,Jits_ISO_8,1,1,48,47,1422900960
94,15,7,Jits_ISO_8,2,5,56,103,1422911920
94,15,7,Jits_ISO_8,3,5,63,98,1422921968
94,15,7,Jits_ISO_8,4,5,80,127,1422962056
94,15,7,Jits_ISO_8,0,5,56,103,1423631792
94,15,7,Jits_ISO_8,1,5,80,127,1423634780
94,15,7,Jits_ISO_8,2,1,48,54,1423657304
94,15,7,Jits_ISO_8,3,5,63,98,1423771944
94,15,7,Jits_ISO_8,0,5,56,103,1424422336
94,15,7,Jits_ISO_8,1,1,48,50,1424496852
94,15,7,Jits_ISO_8,2,5,63,98,1424512244
94,15,7,Jits_ISO_8,3,1,48,36,1424536044
94,15,7,Jits_ISO_8,4,5,80,127,1424581924
94,15,7,Jits_ISO_8,0,1,48,50,1425219092
94,15,7,Jits_ISO_8,1,1,48,38,1425259304
94,15,7,Jits_ISO_8,2,5,63,98,1425301848
94,15,7,Jits_ISO_8,3,5,80,127,1425305212
94,15,7,Jits_ISO_8,4,5,56,103,1425362224
94,15,7,Jits_ISO_8,0,1,48,60,1426012220
94,15,7,Jits_ISO_8,1,1,48,44,1426056692
94,15,7,Jits_ISO_8,2,5,80,127,1426141712
94,15,7,Jits_ISO_8,3,5,56,103,1426161932
94,15,7,Jits_ISO_8,4,5,63,98,1426172128
94,15,7,Jits_ISO_8,0,5,56,103,1426852144
94,15,7,Jits_ISO_8,1,5,63,98,1426861368
94,15,7,Jits_ISO_8,2,1,48,55,1426868676
94,15,7,Jits_ISO_8,3,1,48,42,1426906568
94,15,7,Jits_ISO_8,4,5,80,127,1426931992
94,15,7,Jits_ISO_8,0,1,48,59,1427569848
94,15,7,Jits_ISO_8,1,1,48,46,1427608416
94,15,7,Jits_ISO_8,2,5,80,127,1427652060
94,15,7,Jits_ISO_8,3,5,56,103,1427702116
94,15,7,Jits_ISO_8,4,5,63,98,1427752452
94,15,7,Jits_ISO_8,0,1,48,57,1428363768
94,15,7,Jits_ISO_8,1,1,48,39,1428412324
94,15,7,Jits_ISO_8,2,5,56,103,1428531764
94,15,7,Jits_ISO_8,3,5,63,98,1428541812
94,15,7,Jits_ISO_8,4,5,80,127,1428581676
94,15,7,Jits_ISO_8,0,1,48,59,1429218648
94,15,7,Jits_ISO_8,1,1,48,42,1429265760
94,15,7,Jits_ISO_8,2,5,56,103,1429271784
94,15,7,Jits_ISO_8,3,5,63,98,1429311796
94,15,7,Jits_ISO_8,4,5,80,127,1429361984
94,15,7,Jits_ISO_8,0,1,48,54,1430011548
94,15,7,Jits_ISO_8,1,5,80,127,1430031728
94,15,7,Jits_ISO_8,2,1,48,37,1430058944
94,15,7,Jits_ISO_8,3,5,56,103,1430081912
94,15,7,Jits_ISO_8,4,5,63,98,1430102372
94,15,7,Jits_ISO_8,0,1,48,51,1430784056
94,15,7,Jits_ISO_8,1,5,80,127,1430841844
94,15,7,Jits_ISO_8,2,1,48,29,1430848016
94,15,7,Jits_ISO_8,3,5,63,98,1430902144
94,15,7,Jits_ISO_8,4,5,56,103,1430982096
94,15,7,Jits_ISO_8,0,1,48,56,1431596788
94,15,7,Jits_ISO_8,1,5,80,127,1431621924
94,15,7,Jits_ISO_8,2,1,48,42,1431645028
94,15,7,Jits_ISO_8,3,5,56,103,1431661988
94,15,7,Jits_ISO_8,4,5,63,98,1431682672
94,15,7,Jits_ISO_8,0,1,48,54,1432426984
94,15,7,Jits_ISO_8,1,5,56,103,1432471772
94,15,7,Jits_ISO_8,2,1,48,38,1432476148
94,15,7,Jits_ISO_8,3,5,80,127,1432482100
94,15,7,Jits_ISO_8,4,5,63,98,1432522112
94,15,7,Jits_ISO_8,0,1,48,54,1433211344
94,15,7,Jits_ISO_8,1,1,48,41,1433268576
94,15,7,Jits_ISO_8,2,5,56,103,1433342264
94,15,7,Jits_ISO_8,3,5,63,98,1433382336
94,15,7,Jits_ISO_8,4,5,80,127,1433385776
94,15,7,Jits_ISO_8,0,5,63,98,1434031716
94,15,7,Jits_ISO_8,1,5,80,127,1434072848
94,15,7,Jits_ISO_8,2,5,56,103,1434142084
94,15,7,Jits_ISO_8,3,1,48,46,1434158532
94,15,7,Jits_ISO_8,4,1,48,33,1434202344
94,15,7,Jits_ISO_8,0,5,63,98,1434821968
94,15,7,Jits_ISO_8,1,1,48,51,1434847264
94,15,7,Jits_ISO_8,2,1,48,35,1434899004
94,15,7,Jits_ISO_8,3,5,56,103,1434902112
94,15,7,Jits_ISO_8,4,5,80,127,1434962428
94,15,7,Jits_ISO_8,0,1,48,59,1435586124
94,15,7,Jits_ISO_8,1,5,80,127,1435631936
94,15,7,Jits_ISO_8,2,1,48,40,1435647172
94,15,7,Jits_ISO_8,3,5,63,98,1435682116
94,15,7,Jits_ISO_8,4,5,56,103,1435711716
94,15,7,Jits_ISO_8,0,1,48,54,1436335480
94,15,7,Jits_ISO_8,1,1,48,37,1436384012
94,15,7,Jits_ISO_8,2,5,56,103,1436421876
94,15,7,Jits_ISO_8,3,5,63,98,1436471632
94,15,7,Jits_ISO_8,4,5,80,127,1436481812
94,15,7,Jits_ISO_8,0,1,48,50,1437135628
94,15,7,Jits_ISO_8,1,1,48,34,1437185060
94,15,7,Jits_ISO_8,2,5,56,103,1437231692
94,15,7,Jits_ISO_8,3,5,63,98,1437341916
94,15,7,Jits_ISO_8,4,5,80,127,1437361704
94,15,7,Jits_ISO_8,0,1,48,55,1437952652
94,15,7,Jits_ISO_8,1,1,48,41,1438001708
94,15,7,Jits_ISO_8,2,5,63,98,1438032152
94,15,7,Jits_ISO_8,3,5,80,127,1438082724
94,15,7,Jits_ISO_8,4,5,56,103,1438171748
94,15,7,Jits_ISO_8,0,1,48,55,1438793792
94,15,7,Jits_ISO_8,1,5,63,98,1438821688
94,15,7,Jits_ISO_8,2,1,48,36,1438836776
94,15,7,Jits_ISO_8,3,5,80,127,1438851716
94,15,7,Jits_ISO_8,4,5,56,103,1438941636
94,15,7,Jits_ISO_8,0,1,48,46,1439620340
94,15,7,Jits_ISO_8,1,5,63,98,1439621912
94,15,7,Jits_ISO_8,2,5,56,103,1439631688
94,15,7,Jits_ISO_8,3,5,80,127,1439731992
94,15,7,Jits_ISO_8,0,1,48,53,1440422968
94,15,7,Jits_ISO_8,1,1,48,36,1440463032
94,15,7,Jits_ISO_8,2,5,63,98,1440521500
94,15,7,Jits_ISO_8,3,5,80,127,1440552520
94,15,7,Jits_ISO_8,4,5,56,103,1440581880
94,15,7,Jits_ISO_8,0,1,48,56,1441223052
94,15,7,Jits_ISO_8,1,1,48,40,1441262584
94,15,7,Jits_ISO_8,2,5,80,127,1441341736
94,15,7,Jits_ISO_8,3,5,63,98,1441352004
94,15,7,Jits_ISO_8,4,5,56,103,1441381816
94,15,7,Jits_ISO_8,0,1,48,57,1442035800
94,15,7,Jits_ISO_8,1,5,80,127,1442042344
94,15,7,Jits_ISO_8,2,5,63,98,1442061756
94,15,7,Jits_ISO_8,3,1,48,43,1442070564
94,15,7,Jits_ISO_8,4,5,56,103,1442111788
94,15,7,Jits_ISO_8,0,5,63,98,1442871648
94,15,7,Jits_ISO_8,1,1,48,46,1442879796
94,15,7,Jits_ISO_8,2,5,80,127,1442932260
94,15,7,Jits_ISO_8,3,5,56,103,1442951448
94,15,7,Jits_ISO_8,0,5,63,98,1443631796
94,15,7,Jits_ISO_8,1,5,56,103,1443681628
94,15,7,Jits_ISO_8,2,5,80,127,1443691752
94,15,7,Jits_ISO_8,3,1,48,53,1443692792
94,15,7,Jits_ISO_8,0,5,56,103,1444462000
94,15,7,Jits_ISO_8,1,5,80,127,1444472196
94,15,7,Jits_ISO_8,2,1,48,49,1444509720
94,15,7,Jits_ISO_8,3,5,63,98,1444571488
94,15,7,Jits_ISO_8,0,5,80,127,1445221712
94,15,7,Jits_ISO_8,1,5,63,98,1445232056
94,15,7,Jits_ISO_8,2,1,48,52,1445311468
94,15,7,Jits_ISO_8,3,1,48,40,1445344032
94,15,7,Jits_ISO_8,4,5,56,103,1445381744
94,15,7,Jits_ISO_8,0,5,63,98,1446031720
94,15,7,Jits_ISO_8,1,5,80,127,1446071588
94,15,7,Jits_ISO_8,2,1,48,50,1446085116
94,15,7,Jits_ISO_8,3,1,48,36,1446126824
94,15,7,Jits_ISO_8,4,5,56,103,1446151428
94,15,7,Jits_ISO_8,0,5,56,103,1446822356
94,15,7,Jits_ISO_8,1,1,48,48,1446891716
94,15,7,Jits_ISO_8,2,5,80,127,1446921480
94,15,7,Jits_ISO_8,3,5,63,98,1446942088
94,15,7,Jits_ISO_8,0,5,80,127,1447682536
94,15,7,Jits_ISO_8,1,5,56,103,1447691612
94,15,7,Jits_ISO_8,2,1,48,45,1447715032
94,15,7,Jits_ISO_8,3,5,63,98,1447781884
94,15,7,Jits_ISO_8,0,5,56,103,1448482188
94,15,7,Jits_ISO_8,1,5,63,98,1448501676
94,15,7,Jits_ISO_8,2,1,48,45,1448510720
94,15,7,Jits_ISO_8,3,5,80,127,1448581464
94,15,7,Jits_ISO_8,0,5,63,98,1449231788
94,15,7,Jits_ISO_8,1,1,48,47,1449250348
94,15,7,Jits_ISO_8,2,1,48,34,1449288368
94,15,7,Jits_ISO_8,3,5,56,103,1449321892
94,15,7,Jits_ISO_8,4,5,80,127,1449324960
94,15,7,Jits_ISO_8,0,1,48,49,1449954876
94,15,7,Jits_ISO_8,1,1,48,37,1449998680
94,15,7,Jits_ISO_8,2,5,56,103,1450062176
94,15,7,Jits_ISO_8,3,5,80,127,1450121728
94,15,7,Jits_ISO_8,4,5,63,98,1450131800
94,15,7,Jits_ISO_8,0,1,48,45,1450735176
94,15,7,Jits_ISO_8,1,1,48,33,1450776508
94,15,7,Jits_ISO_8,2,5,80,127,1450912020
94,15,7,Jits_ISO_8,3,5,56,103,1450922364
94,15,7,Jits_ISO_8,4,5,63,98,1450925576
94,15,7,Jits_ISO_8,0,1,48,48,1451592808
94,15,7,Jits_ISO_8,1,1,48,36,1451637428
94,15,7,Jits_ISO_8,2,5,56,103,1451671876
94,15,7,Jits_ISO_8,3,5,80,127,1451682296
94,15,7,Jits_ISO_8,4,5,63,98,1451701636
94,15,7,Jits_ISO_8,0,1,48,48,1452329260
94,15,7,Jits_ISO_8,1,1,48,38,1452383496
94,15,7,Jits_ISO_8,2,5,63,98,1452441912
94,15,7,Jits_ISO_8,3,5,80,127,1452502364
94,15,7,Jits_ISO_8,4,5,56,103,1452551592
94,15,7,Jits_ISO_8,0,1,48,54,1453195432
94,15,7,Jits_ISO_8,1,1,48,35,1453257316
94,15,7,Jits_ISO_8,2,5,63,98,1453321712
94,15,7,Jits_ISO_8,3,5,56,103,1453331908
94,15,7,Jits_ISO_8,4,5,80,127,1453382020
94,15,7,Jits_ISO_8,0,1,48,47,1454008496
94,15,7,Jits_ISO_8,1,5,63,98,1454022016
94,15,7,Jits_ISO_8,2,5,80,127,1454041356
94,15,7,Jits_ISO_8,3,1,48,35,1454052132
94,15,7,Jits_ISO_8,4,5,56,103,1454053400
94,15,7,Jits_ISO_8,0,1,48,49,1454731008
94,15,7,Jits_ISO_8,1,1,48,31,1454786596
94,15,7,Jits_ISO_8,2,5,63,98,1454821840
94,15,7,Jits_ISO_8,3,5,80,127,1454825276
94,15,7,Jits_ISO_8,4,5,56,103,1454861776
94,15,7,Jits_ISO_8,0,1,48,47,1455492336
94,15,7,Jits_ISO_8,1,1,48,23,1455563960
94,15,7,Jits_ISO_8,2,5,63,98,1455692244
94,15,7,Jits_ISO_8,3,5,80,127,1455721772
94,15,7,Jits_ISO_8,4,5,56,103,1455732044
94,15,7,Jits_ISO_8,0,1,48,50,1456370516
94,15,7,Jits_ISO_8,1,1,48,31,1456437912
94,15,7,Jits_ISO_8,2,5,56,103,1456441696
94,15,7,Jits_ISO_8,3,5,80,127,1456472568
94,15,7,Jits_ISO_8,4,5,63,98,1456502020
94,15,7,Jits_ISO_8,0,1,48,49,1457186168
94,15,7,Jits_ISO_8,1,1,48,25,1457275084
94,15,7,Jits_ISO_8,2,5,63,98,1457341748
94,15,7,Jits_ISO_8,3,5,56,103,1457381820
94,15,7,Jits_ISO_8,4,5,80,127,1457384884
94,15,7,Jits_ISO_8,0,1,48,58,1457961684
94,15,7,Jits_ISO_8,1,1,48,33,1458028404
94,15,7,Jits_ISO_8,2,5,80,127,1458042452
94,15,7,Jits_ISO_8,3,5,56,103,1458122052
94,15,7,Jits_ISO_8,4,5,63,98,1458172536
94,15,7,Jits_ISO_8,0,1,48,56,1458717928
94,15,7,Jits_ISO_8,1,1,48,30,1458793360
94,15,7,Jits_ISO_8,2,5,80,127,1458821632
94,15,7,Jits_ISO_8,3,5,56,103,1458841972
94,15,7,Jits_ISO_8,4,5,63,98,1458932012
94,15,7,Jits_ISO_8,0,1,48,50,1459486840
94,15,7,Jits_ISO_8,1,1,48,32,1459548328
94,15,7,Jits_ISO_8,2,5,80,127,1459662480
94,15,7,Jits_ISO_8,3,5,63,98,1459702268
94,15,7,Jits_ISO_8,4,5,56,103,1459742132
94,15,7,Jits_ISO_8,0,1,48,47,1460292312
94,15,7,Jits_ISO_8,1,1,48,31,1460358364
94,15,7,Jits_ISO_8,2,5,63,98,1460432448
94,15,7,Jits_ISO_8,3,5,80,127,1460491780
94,15,7,Jits_ISO_8,4,5,56,103,1460522428
94,15,7,Jits_ISO_8,0,1,48,48,1461129412
94,15,7,Jits_ISO_8,1,1,48,25,1461212048
94,15,7,Jits_ISO_8,2,5,56,103,1461232080
94,15,7,Jits_ISO_8,3,5,80,127,1461261756
94,15,7,Jits_ISO_8,4,5,63,98,1461351648
94,15,7,Jits_ISO_8,0,1,48,44,1462002484
94,15,7,Jits_ISO_8,1,5,56,103,1462042068
94,15,7,Jits_ISO_8,2,1,48,22,1462078656
94,15,7,Jits_ISO_8,3,5,80,127,1462151516
94,15,7,Jits_ISO_8,4,5,63,98,1462182544
94,15,7,Jits_ISO_8,0,1,48,41,1462771180
94,15,7,Jits_ISO_8,1,1,48,23,1462844656
94,15,7,Jits_ISO_8,2,5,56,103,1462891960
94,15,7,Jits_ISO_8,3,5,63,98,1462952288
94,15,7,Jits_ISO_8,4,5,80,127,1462981964
94,15,7,Jits_ISO_8,0,1,48,45,1463608868
94,15,7,Jits_ISO_8,1,5,56,103,1463661876
94,15,7,Jits_ISO_8,2,1,48,25,1463692180
94,15,7,Jits_ISO_8,3,5,63,98,1463731540
94,15,7,Jits_ISO_8,4,5,80,127,1463751924
94,15,7,Jits_ISO_8,0,5,80,127,1464432124
94,15,7,Jits_ISO_8,1,5,63,98,1464451388
94,15,7,Jits_ISO_8,2,1,48,43,1464498500
94,15,7,Jits_ISO_8,3,5,56,103,1464501608
94,15,7,Jits_ISO_8,4,1,48,23,1464566812
94,15,7,Jits_ISO_8,0,9999,9999,9999,1369699424
94,15,7,Jits_ISO_8,1,9999,9999,9999,1370499128
94,15,7,Jits_ISO_8,2,9999,9999,9999,1371299916
94,15,7,Jits_ISO_8,3,9999,9999,9999,1372099640
94,15,7,Jits_ISO_8,4,9999,9999,9999,1372899428
94,15,7,Jits_ISO_8,5,9999,9999,9999,1373699132
94,15,7,Jits_ISO_8,6,9999,9999,9999,1374499896
94,15,7,Jits_ISO_8,7,9999,9999,9999,1375299664
94,15,7,Jits_ISO_8,8,9999,9999,9999,1376099416
94,15,7,Jits_ISO_8,9,9999,9999,9999,1376899188
94,15,7,Jits_ISO_8,10,9999,9999,9999,1377699892
94,15,7,Jits_ISO_8,11,9999,9999,9999,1378499672
94,15,7,Jits_ISO_8,12,9999,9999,9999,1379299396
94,15,7,Jits_ISO_8,13,9999,9999,9999,1380099176
94,15,7,Jits_ISO_8,14,9999,9999,9999,1380899916
94,15,7,Jits_ISO_8,15,9999,9999,9999,1381699700
94,15,7,Jits_ISO_8,16,9999,9999,9999,1382499392
94,15,7,Jits_ISO_8,17,9999,9999,9999,1383299180
94,15,7,Jits_ISO_8,18,9999,9999,9999,1384099964
94,15,7,Jits_ISO_8,19,9999,9999,9999,1384899692
94,15,7,Jits_ISO_8,20,9999,9999,9999,1385699396
94,15,7,Jits_ISO_8,21,9999,9999,9999,1386499180
94,15,7,Jits_ISO_8,22,9999,9999,9999,1387299904
94,15,7,Jits_ISO_8,23,9999,9999,9999,1388099684
94,15,7,Jits_ISO_8,24,9999,9999,9999,1388899388
94,15,7,Jits_ISO_8,25,9999,9999,9999,1389699168
94,15,7,Jits_ISO_8,26,9999,9999,9999,1390499940
94,15,7,Jits_ISO_8,27,9999,9999,9999,1391299648
94,15,7,Jits_ISO_8,28,9999,9999,9999,1392099444
94,15,7,Jits_ISO_8,29,9999,9999,9999,1392899196
94,15,7,Jits_ISO_8,30,9999,9999,9999,1393699948
94,15,7,Jits_ISO_8,31,9999,9999,9999,1394499660
94,15,7,Jits_ISO_8,32,9999,9999,9999,1395299432
94,15,7,Jits_ISO_8,33,9999,9999,9999,1396099148
94,15,7,Jits_ISO_8,34,9999,9999,9999,1396899956
94,15,7,Jits_ISO_8,35,9999,9999,9999,1397699652
94,15,7,Jits_ISO_8,36,9999,9999,9999,1398499436
94,15,7,Jits_ISO_8,37,9999,9999,9999,1399299168
94,15,7,Jits_ISO_8,38,9999,9999,9999,1400099912
94,15,7,Jits_ISO_8,39,9999,9999,9999,1400899640
94,15,7,Jits_ISO_8,40,9999,9999,9999,1401699444
94,15,7,Jits_ISO_8,41,9999,9999,9999,1402499132
94,15,7,Jits_ISO_8,42,9999,9999,9999,1403299900
94,15,7,Jits_ISO_8,43,9999,9999,9999,1404099688
94,15,7,Jits_ISO_8,44,9999,9999,9999,1404899380
94,15,7,Jits_ISO_8,45,9999,9999,9999,1405699168
94,15,7,Jits_ISO_8,46,9999,9999,9999,1406499924
94,15,7,Jits_ISO_8,47,9999,9999,9999,1407299636
94,15,7,Jits_ISO_8,48,9999,9999,9999,1408099420
94,15,7,Jits_ISO_8,49,9999,9999,9999,1408899124
94,15,7,Jits_ISO_8,50,9999,9999,9999,1409699896
94,15,7,Jits_ISO_8,51,9999,9999,9999,1410499676
94,15,7,Jits_ISO_8,52,9999,9999,9999,1411299384
94,15,7,Jits_ISO_8,53,9999,9999,9999,1412099172
94,15,7,Jits_ISO_8,54,9999,9999,9999,1412899944
94,15,7,Jits_ISO_8,55,9999,9999,9999,1413699644
94,15,7,Jits_ISO_8,56,9999,9999,9999,1414499424
94,15,7,Jits_ISO_8,57,9999,9999,9999,1415299128
94,15,7,Jits_ISO_8,58,9999,9999,9999,1416099904
94,15,7,Jits_ISO_8,59,9999,9999,9999,1416899684
94,15,7,Jits_ISO_8,60,9999,9999,9999,1417699384
94,15,7,Jits_ISO_8,61,9999,9999,9999,1418499172
94,15,7,Jits_ISO_8,62,9999,9999,9999,1419299900
94,15,7,Jits_ISO_8,63,9999,9999,9999,1420099672
94,15,7,Jits_ISO_8,64,9999,9999,9999,1420899388
94,15,7,Jits_ISO_8,65,9999,9999,9999,1421699196
94,15,7,Jits_ISO_8,66,9999,9999,9999,1422499900
94,15,7,Jits_ISO_8,67,9999,9999,9999,1423299688
94,15,7,Jits_ISO_8,68,9999,9999,9999,1424099380
94,15,7,Jits_ISO_8,69,9999,9999,9999,1424899160
94,15,7,Jits_ISO_8,70,9999,9999,9999,1425699920
94,15,7,Jits_ISO_8,71,9999,9999,9999,1426499640
94,15,7,Jits_ISO_8,72,9999,9999,9999,1427299416
94,15,7,Jits_ISO_8,73,9999,9999,9999,1428099140
94,15,7,Jits_ISO_8,74,9999,9999,9999,1428899920
94,15,7,Jits_ISO_8,75,9999,9999,9999,1429699708
94,15,7,Jits_ISO_8,76,9999,9999,9999,1430499412
94,15,7,Jits_ISO_8,77,9999,9999,9999,1431299192
94,15,7,Jits_ISO_8,78,9999,9999,9999,1432099940
94,15,7,Jits_ISO_8,79,9999,9999,9999,1432899652
94,15,7,Jits_ISO_8,80,9999,9999,9999,1433699436
94,15,7,Jits_ISO_8,81,9999,9999,9999,1434499140
94,15,7,Jits_ISO_8,82,9999,9999,9999,1435299912
94,15,7,Jits_ISO_8,83,9999,9999,9999,1436099692
94,15,7,Jits_ISO_8,84,9999,9999,9999,1436899392
94,15,7,Jits_ISO_8,85,9999,9999,9999,1437699180
94,15,7,Jits_ISO_8,86,9999,9999,9999,1438499932
94,15,7,Jits_ISO_8,87,9999,9999,9999,1439299708
94,15,7,Jits_ISO_8,88,9999,9999,9999,1440099432
94,15,7,Jits_ISO_8,89,9999,9999,9999,1440899132
94,15,7,Jits_ISO_8,90,9999,9999,9999,1441699908
94,15,7,Jits_ISO_8,91,9999,9999,9999,1442499688
94,15,7,Jits_ISO_8,92,9999,9999,9999,1443299416
94,15,7,Jits_ISO_8,93,9999,9999,9999,1444099124
94,15,7,Jits_ISO_8,94,9999,9999,9999,1444899956
94,15,7,Jits_ISO_8,95,9999,9999,9999,1445699652
94,15,7,Jits_ISO_8,96,9999,9999,9999,1446499448
94,15,7,Jits_ISO_8,97,9999,9999,9999,1447299176
94,15,7,Jits_ISO_8,98,9999,9999,9999,1448099892
94,15,7,Jits_ISO_8,99,9999,9999,9999,1448899692
94,15,7,Jits_ISO_8,100,9999,9999,9999,1449699384
94,15,7,Jits_ISO_8,101,9999,9999,9999,1450499168
94,15,7,Jits_ISO_8,102,9999,9999,9999,1451299916
94,15,7,Jits_ISO_8,103,9999,9999,9999,1452099696
94,15,7,Jits_ISO_8,104,9999,9999,9999,1452899404
94,15,7,Jits_ISO_8,105,9999,9999,9999,1453699192
94,15,7,Jits_ISO_8,106,9999,9999,9999,1454499956
94,15,7,Jits_ISO_8,107,9999,9999,9999,1455299644
94,15,7,Jits_ISO_8,108,9999,9999,9999,1456099432
94,15,7,Jits_ISO_8,109,9999,9999,9999,1456899136
94,15,7,Jits_ISO_8,110,9999,9999,9999,1457699964
94,15,7,Jits_ISO_8,111,9999,9999,9999,1458499676
94,15,7,Jits_ISO_8,112,9999,9999,9999,1459299452
94,15,7,Jits_ISO_8,113,9999,9999,9999,1460099160
94,15,7,Jits_ISO_8,114,9999,9999,9999,1460899932
94,15,7,Jits_ISO_8,115,9999,9999,9999,1461699636
94,15,7,Jits_ISO_8,116,9999,9999,9999,1462499420
94,15,7,Jits_ISO_8,117,9999,9999,9999,1463299136
94,15,7,Jits_ISO_8,118,9999,9999,9999,1464099944
94,15,7,Jits_ISO_8,119,9999,9999,9999,1464899648
94,16,17,Jits_Phase_5,0,5,56,103,1473826252
94,16,17,Jits_Phase_5,1,5,63,98,1473829272
94,16,17,Jits_Phase_5,2,5,80,127,1473832396
94,16,17,Jits_Phase_5,0,5,56,103,1474325884
94,16,17,Jits_Phase_5,1,5,63,98,1474328904
94,16,17,Jits_Phase_5,2,5,80,127,1474332180
94,16,17,Jits_Phase_5,0,5,56,103,1474825612
94,16,17,Jits_Phase_5,1,5,80,127,1474835808
94,16,17,Jits_Phase_5,2,5,63,98,1474856416
94,16,17,Jits_Phase_5,0,5,63,98,1475276264
94,16,17,Jits_Phase_5,1,5,80,127,1475305788
94,16,17,Jits_Phase_5,2,5,56,103,1475316208
94,16,17,Jits_Phase_5,0,5,80,127,1475836132
94,16,17,Jits_Phase_5,1,5,56,103,1475845580
94,16,17,Jits_Phase_5,2,1,48,55,1475871396
94,16,17,Jits_Phase_5,3,5,63,98,1475876220
94,16,17,Jits_Phase_5,4,1,48,33,1475925476
94,16,17,Jits_Phase_5,0,5,63,98,1476325744
94,16,17,Jits_Phase_5,1,5,56,103,1476355496
94,16,17,Jits_Phase_5,2,5,80,127,1476365688
94,16,17,Jits_Phase_5,3,1,48,63,1476366880
94,16,17,Jits_Phase_5,4,1,48,29,1476448188
94,16,17,Jits_Phase_5,0,5,56,103,1476776232
94,16,17,Jits_Phase_5,1,1,48,58,1476820328
94,16,17,Jits_Phase_5,2,5,63,98,1476825604
94,16,17,Jits_Phase_5,3,5,80,127,1476845912
94,16,17,Jits_Phase_5,4,1,48,35,1476889536
94,16,17,Jits_Phase_5,0,1,48,57,1477261676
94,16,17,Jits_Phase_5,1,5,80,127,1477276092
94,16,17,Jits_Phase_5,2,5,63,98,1477326292
94,16,17,Jits_Phase_5,3,1,48,33,1477330072
94,16,17,Jits_Phase_5,4,5,56,103,1477366356
94,16,17,Jits_Phase_5,0,5,56,103,1477775656
94,16,17,Jits_Phase_5,1,5,63,98,1477805404
94,16,17,Jits_Phase_5,2,1,48,61,1477810544
94,16,17,Jits_Phase_5,3,5,80,127,1477876044
94,16,17,Jits_Phase_5,4,1,48,36,1477884328
94,16,17,Jits_Phase_5,0,5,56,103,1478275496
94,16,17,Jits_Phase_5,1,1,48,57,1478294528
94,16,17,Jits_Phase_5,2,5,80,127,1478335828
94,16,17,Jits_Phase_5,3,5,63,98,1478365508
94,16,17,Jits_Phase_5,4,1,48,34,1478369512
94,16,17,Jits_Phase_5,0,1,48,55,1478782224
94,16,17,Jits_Phase_5,1,5,56,103,1478786376
94,16,17,Jits_Phase_5,2,5,63,98,1478795548
94,16,17,Jits_Phase_5,3,5,80,127,1478835632
94,16,17,Jits_Phase_5,4,1,48,34,1478855748
94,16,17,Jits_Phase_5,0,5,63,98,1479275820
94,16,17,Jits_Phase_5,1,1,48,49,1479293316
94,16,17,Jits_Phase_5,2,5,80,127,1479355704
94,16,17,Jits_Phase_5,3,1,48,26,1479364068
94,16,17,Jits_Phase_5,4,5,56,103,1479366252
94,16,17,Jits_Phase_5,0,5,63,98,1479825820
94,16,17,Jits_Phase_5,1,1,48,64,1479832528
94,16,17,Jits_Phase_5,2,5,56,103,1479865824
94,16,17,Jits_Phase_5,3,5,80,127,1479868740
94,16,17,Jits_Phase_5,4,1,48,35,1479926016
94,16,17,Jits_Phase_5,5,1,48,13,1480029436
94,16,17,Jits_Phase_5,0,5,56,103,1480285600
94,16,17,Jits_Phase_5,1,5,63,98,1480295720
94,16,17,Jits_Phase_5,2,5,80,127,1480335608
94,16,17,Jits_Phase_5,3,1,48,44,1480348912
94,16,17,Jits_Phase_5,4,1,48,23,1480419532
94,16,17,Jits_Phase_5,0,5,56,103,1480776168
94,16,17,Jits_Phase_5,1,5,63,98,1480779084
94,16,17,Jits_Phase_5,2,5,80,127,1480795356
94,16,17,Jits_Phase_5,3,1,48,50,1480825072
94,16,17,Jits_Phase_5,0,1,48,48,1481269436
94,16,17,Jits_Phase_5,1,5,80,127,1481286020
94,16,17,Jits_Phase_5,2,5,56,103,1481296440
94,16,17,Jits_Phase_5,3,5,63,98,1481366352
94,16,17,Jits_Phase_5,0,1,48,54,1481738616
94,16,17,Jits_Phase_5,1,5,63,98,1481775360
94,16,17,Jits_Phase_5,2,5,56,103,1481796188
94,16,17,Jits_Phase_5,3,1,48,28,1481825068
94,16,17,Jits_Phase_5,4,5,80,127,1481875684
94,16,17,Jits_Phase_5,0,1,48,43,1482193432
94,16,17,Jits_Phase_5,1,5,56,103,1482285396
94,16,17,Jits_Phase_5,2,1,48,20,1482289252
94,16,17,Jits_Phase_5,3,5,80,127,1482326508
94,16,17,Jits_Phase_5,4,5,63,98,1482335584
94,16,17,Jits_Phase_5,0,1,48,64,1482741988
94,16,17,Jits_Phase_5,1,5,80,127,1482776032
94,16,17,Jits_Phase_5,2,5,63,98,1482805560
94,16,17,Jits_Phase_5,3,5,56,103,1482845480
94,16,17,Jits_Phase_5,4,1,48,20,1482851216
94,16,17,Jits_Phase_5,0,1,48,47,1483210976
94,16,17,Jits_Phase_5,1,1,48,22,1483291636
94,16,17,Jits_Phase_5,2,5,56,103,1483296388
94,16,17,Jits_Phase_5,3,5,63,98,1483325768
94,16,17,Jits_Phase_5,4,5,80,127,1483376264
94,16,17,Jits_Phase_5,0,1,48,56,1483767928
94,16,17,Jits_Phase_5,1,5,80,127,1483795748
94,16,17,Jits_Phase_5,2,5,56,103,1483835684
94,16,17,Jits_Phase_5,3,1,48,30,1483844048
94,16,17,Jits_Phase_5,4,5,63,98,1483846156
94,16,17,Jits_Phase_5,0,1,48,53,1484253160
94,16,17,Jits_Phase_5,1,5,80,127,1484276196
94,16,17,Jits_Phase_5,2,5,63,98,1484316432
94,16,17,Jits_Phase_5,3,1,48,27,1484340740
94,16,17,Jits_Phase_5,4,5,56,103,1484376428
94,16,17,Jits_Phase_5,0,5,56,103,1484775688
94,16,17,Jits_Phase_5,1,5,80,127,1484786180
94,16,17,Jits_Phase_5,2,1,48,50,1484797996
94,16,17,Jits_Phase_5,3,5,63,98,1484865892
94,16,17,Jits_Phase_5,4,1,48,19,1484906156
94,16,17,Jits_Phase_5,0,1,48,49,1485271100
94,16,17,Jits_Phase_5,1,5,80,127,1485275400
94,16,17,Jits_Phase_5,2,5,63,98,1485335864
94,16,17,Jits_Phase_5,3,5,56,103,1485365820
94,16,17,Jits_Phase_5,0,1,48,59,1485766204
94,16,17,Jits_Phase_5,1,5,56,103,1485776192
94,16,17,Jits_Phase_5,2,5,80,127,1485835536
94,16,17,Jits_Phase_5,3,5,63,98,1485875532
94,16,17,Jits_Phase_5,4,1,48,27,1485892056
94,16,17,Jits_Phase_5,0,1,48,43,1486218080
94,16,17,Jits_Phase_5,1,5,56,103,1486326276
94,16,17,Jits_Phase_5,2,5,63,98,1486336240
94,16,17,Jits_Phase_5,3,5,80,127,1486339612
94,16,17,Jits_Phase_5,0,5,80,127,1486775544
94,16,17,Jits_Phase_5,1,1,48,51,1486777032
94,16,17,Jits_Phase_5,2,5,63,98,1486865744
94,16,17,Jits_Phase_5,3,1,48,22,1486874796
94,16,17,Jits_Phase_5,4,5,56,103,1486876364
94,16,17,Jits_Phase_5,0,5,56,103,1487276376
94,16,17,Jits_Phase_5,1,5,63,98,1487279544
94,16,17,Jits_Phase_5,2,5,80,127,1487282892
94,16,17,Jits_Phase_5,3,1,48,42,1487306476
94,16,17,Jits_Phase_5,4,1,48,22,1487412968
94,16,17,Jits_Phase_5,0,1,48,48,1487787072
94,16,17,Jits_Phase_5,1,5,80,127,1487805748
94,16,17,Jits_Phase_5,2,5,63,98,1487856100
94,16,17,Jits_Phase_5,3,5,56,103,1487885612
94,16,17,Jits_Phase_5,4,1,48,19,1487905216
94,16,17,Jits_Phase_5,0,1,48,46,1488275916
94,16,17,Jits_Phase_5,1,5,56,103,1488286276
94,16,17,Jits_Phase_5,2,5,80,127,1488296324
94,16,17,Jits_Phase_5,3,1,48,25,1488351936
94,16,17,Jits_Phase_5,4,5,63,98,1488366204
94,16,17,Jits_Phase_5,0,1,48,39,1488768176
94,16,17,Jits_Phase_5,1,5,56,103,1488796096
94,16,17,Jits_Phase_5,2,5,63,98,1488815436
94,16,17,Jits_Phase_5,3,1,48,20,1488853144
94,16,17,Jits_Phase_5,4,5,80,127,1488876096
94,16,17,Jits_Phase_5,0,5,80,127,1489276156
94,16,17,Jits_Phase_5,1,5,63,98,1489345936
94,16,17,Jits_Phase_5,2,1,48,51,1489352644
94,16,17,Jits_Phase_5,3,5,56,103,1489366312
94,16,17,Jits_Phase_5,0,5,80,127,1489795404
94,16,17,Jits_Phase_5,1,5,56,103,1489805624
94,16,17,Jits_Phase_5,2,5,63,98,1489816120
94,16,17,Jits_Phase_5,3,1,48,40,1489843372
94,16,17,Jits_Phase_5,0,1,48,45,1490269284
94,16,17,Jits_Phase_5,1,5,80,127,1490286016
94,16,17,Jits_Phase_5,2,5,56,103,1490306476
94,16,17,Jits_Phase_5,3,1,48,23,1490336280
94,16,17,Jits_Phase_5,4,5,63,98,1490376304
94,16,17,Jits_Phase_5,0,5,56,103,1490795992
94,16,17,Jits_Phase_5,1,5,80,127,1490825520
94,16,17,Jits_Phase_5,2,5,63,98,1490846228
94,16,17,Jits_Phase_5,3,1,48,42,1490884716
94,16,17,Jits_Phase_5,4,1,48,13,1491016600
94,16,17,Jits_Phase_5,0,5,63,98,1491286496
94,16,17,Jits_Phase_5,1,5,56,103,1491345716
94,16,17,Jits_Phase_5,2,5,80,127,1491375540
94,16,17,Jits_Phase_5,3,1,48,36,1491391016
94,16,17,Jits_Phase_5,0,5,63,98,1491775904
94,16,17,Jits_Phase_5,1,5,80,127,1491779344
94,16,17,Jits_Phase_5,2,1,48,31,1491792132
94,16,17,Jits_Phase_5,3,5,56,103,1491866048
94,16,17,Jits_Phase_5,0,5,56,103,1492296172
94,16,17,Jits_Phase_5,1,1,48,43,1492304172
94,16,17,Jits_Phase_5,2,5,63,98,1492325840
94,16,17,Jits_Phase_5,3,5,80,127,1492365728
94,16,17,Jits_Phase_5,0,5,63,98,1492795716
94,16,17,Jits_Phase_5,1,1,48,36,1492817040
94,16,17,Jits_Phase_5,2,5,56,103,1492835644
94,16,17,Jits_Phase_5,3,5,80,127,1492856104
94,16,17,Jits_Phase_5,0,5,63,98,1493305580
94,16,17,Jits_Phase_5,1,1,48,46,1493312212
94,16,17,Jits_Phase_5,2,5,56,103,1493345584
94,16,17,Jits_Phase_5,3,5,80,127,1493355856
94,16,17,Jits_Phase_5,0,5,80,127,1493786076
94,16,17,Jits_Phase_5,1,5,63,98,1493855532
94,16,17,Jits_Phase_5,2,1,48,44,1493872276
94,16,17,Jits_Phase_5,3,5,56,103,1493876204
94,16,17,Jits_Phase_5,0,5,56,103,1494275428
94,16,17,Jits_Phase_5,1,5,80,127,1494295960
94,16,17,Jits_Phase_5,2,5,63,98,1494335824
94,16,17,Jits_Phase_5,3,1,48,42,1494400816
94,16,17,Jits_Phase_5,0,5,63,98,1494786500
94,16,17,Jits_Phase_5,1,5,80,127,1494805836
94,16,17,Jits_Phase_5,2,1,48,43,1494806800
94,16,17,Jits_Phase_5,3,5,56,103,1494845764
94,16,17,Jits_Phase_5,0,5,63,98,1495286172
94,16,17,Jits_Phase_5,1,5,56,103,1495305436
94,16,17,Jits_Phase_5,2,1,48,45,1495313808
94,16,17,Jits_Phase_5,3,5,80,127,1495316144
94,16,17,Jits_Phase_5,0,1,48,45,1495779664
94,16,17,Jits_Phase_5,1,5,80,127,1495785984
94,16,17,Jits_Phase_5,2,5,56,103,1495806292
94,16,17,Jits_Phase_5,3,5,63,98,1495836264
94,16,17,Jits_Phase_5,0,1,48,56,1496287656
94,16,17,Jits_Phase_5,1,5,56,103,1496356228
94,16,17,Jits_Phase_5,2,5,80,127,1496359220
94,16,17,Jits_Phase_5,3,5,63,98,1496375640
94,16,17,Jits_Phase_5,0,5,63,98,1496776044
94,16,17,Jits_Phase_5,1,5,56,103,1496805868
94,16,17,Jits_Phase_5,2,1,48,44,1496855288
94,16,17,Jits_Phase_5,3,5,80,127,1496866176
94,16,17,Jits_Phase_5,0,1,48,51,1497300628
94,16,17,Jits_Phase_5,1,5,63,98,1497355504
94,16,17,Jits_Phase_5,2,5,56,103,1497365996
94,16,17,Jits_Phase_5,3,5,80,127,1497376044
94,16,17,Jits_Phase_5,0,5,56,103,1497816456
94,16,17,Jits_Phase_5,1,5,80,127,1497846204
94,16,17,Jits_Phase_5,2,1,48,40,1497850896
94,16,17,Jits_Phase_5,3,5,63,98,1497856244
94,16,17,Jits_Phase_5,4,1,48,19,1497931556
94,16,17,Jits_Phase_5,0,5,63,98,1498356032
94,16,17,Jits_Phase_5,1,1,48,45,1498358192
94,16,17,Jits_Phase_5,2,5,56,103,1498366224
94,16,17,Jits_Phase_5,3,5,80,127,1498385708
94,16,17,Jits_Phase_5,0,5,56,103,1498786112
94,16,17,Jits_Phase_5,1,1,48,52,1498841068
94,16,17,Jits_Phase_5,2,5,63,98,1498845520
94,16,17,Jits_Phase_5,3,5,80,127,1498848956
94,16,17,Jits_Phase_5,4,1,48,32,1498895972
94,16,17,Jits_Phase_5,0,5,80,127,1499306348
94,16,17,Jits_Phase_5,1,5,56,103,1499315424
94,16,17,Jits_Phase_5,2,1,48,60,1499362584
94,16,17,Jits_Phase_5,3,5,63,98,1499386216
94,16,17,Jits_Phase_5,0,5,80,127,1499796072
94,16,17,Jits_Phase_5,1,1,48,59,1499815232
94,16,17,Jits_Phase_5,2,5,56,103,1499865520
94,16,17,Jits_Phase_5,3,5,63,98,1499875864
94,16,17,Jits_Phase_5,4,1,48,32,1499887140
94,16,17,Jits_Phase_5,0,1,48,55,1500299656
94,16,17,Jits_Phase_5,1,5,63,98,1500335348
94,16,17,Jits_Phase_5,2,5,56,103,1500345692
94,16,17,Jits_Phase_5,3,1,48,32,1500356364
94,16,17,Jits_Phase_5,4,5,80,127,1500366056
94,16,17,Jits_Phase_5,0,5,80,127,1500786040
94,16,17,Jits_Phase_5,1,1,48,56,1500827092
94,16,17,Jits_Phase_5,2,5,63,98,1500845472
94,16,17,Jits_Phase_5,3,5,56,103,1500886308
94,16,17,Jits_Phase_5,4,1,48,30,1500908364
94,16,17,Jits_Phase_5,0,1,48,58,1501296216
94,16,17,Jits_Phase_5,1,5,56,103,1501325856
94,16,17,Jits_Phase_5,2,5,63,98,1501336204
94,16,17,Jits_Phase_5,3,1,48,33,1501367628
94,16,17,Jits_Phase_5,4,5,80,127,1501375896
94,16,17,Jits_Phase_5,0,5,56,103,1501785316
94,16,17,Jits_Phase_5,1,5,80,127,1501816188
94,16,17,Jits_Phase_5,2,1,48,45,1501839032
94,16,17,Jits_Phase_5,3,5,63,98,1501866480
94,16,17,Jits_Phase_5,4,1,48,22,1501921268
94,16,17,Jits_Phase_5,0,1,48,47,1502279520
94,16,17,Jits_Phase_5,1,5,56,103,1502326152
94,16,17,Jits_Phase_5,2,1,48,24,1502349056
94,16,17,Jits_Phase_5,3,5,63,98,1502366092
94,16,17,Jits_Phase_5,4,5,80,127,1502369380
94,16,17,Jits_Phase_5,0,5,56,103,1502826008
94,16,17,Jits_Phase_5,1,1,48,54,1502834616
94,16,17,Jits_Phase_5,2,5,63,98,1502836272
94,16,17,Jits_Phase_5,3,5,80,127,1502855388
94,16,17,Jits_Phase_5,4,1,48,21,1502929232
94,16,17,Jits_Phase_5,0,5,56,103,1503285648
94,16,17,Jits_Phase_5,1,5,80,127,1503288864
94,16,17,Jits_Phase_5,2,1,48,47,1503323464
94,16,17,Jits_Phase_5,3,5,63,98,1503325504
94,16,17,Jits_Phase_5,4,1,48,27,1503388784
94,16,17,Jits_Phase_5,0,5,63,98,1503826260
94,16,17,Jits_Phase_5,1,1,48,39,1503827224
94,16,17,Jits_Phase_5,2,5,56,103,1503856076
94,16,17,Jits_Phase_5,3,5,80,127,1503875416
94,16,17,Jits_Phase_5,4,1,48,23,1503885212
94,16,17,Jits_Phase_5,0,5,80,127,1504296300
94,16,17,Jits_Phase_5,1,5,56,103,1504305452
94,16,17,Jits_Phase_5,2,5,63,98,1504316020
94,16,17,Jits_Phase_5,3,1,48,52,1504326932
94,16,17,Jits_Phase_5,4,1,48,32,1504386984
94,16,17,Jits_Phase_5,0,1,48,53,1504784532
94,16,17,Jits_Phase_5,1,5,56,103,1504795936
94,16,17,Jits_Phase_5,2,5,80,127,1504836172
94,16,17,Jits_Phase_5,3,1,48,33,1504846768
94,16,17,Jits_Phase_5,4,5,63,98,1504865600
94,16,17,Jits_Phase_5,0,1,48,53,1505286552
94,16,17,Jits_Phase_5,1,5,63,98,1505305980
94,16,17,Jits_Phase_5,2,5,80,127,1505316252
94,16,17,Jits_Phase_5,3,5,56,103,1505325476
94,16,17,Jits_Phase_5,4,1,48,38,1505348276
94,16,17,Jits_Phase_5,0,5,56,103,1505795500
94,16,17,Jits_Phase_5,1,1,48,47,1505829036
94,16,17,Jits_Phase_5,2,5,63,98,1505866144
94,16,17,Jits_Phase_5,3,5,80,127,1505876268
94,16,17,Jits_Phase_5,4,1,48,29,1505904248
94,16,17,Jits_Phase_5,0,5,80,127,1506306380
94,16,17,Jits_Phase_5,1,5,56,103,1506315528
94,16,17,Jits_Phase_5,2,1,48,55,1506333100
94,16,17,Jits_Phase_5,3,5,63,98,1506365944
94,16,17,Jits_Phase_5,4,1,48,33,1506415800
94,16,17,Jits_Phase_5,0,1,48,52,1506794232
94,16,17,Jits_Phase_5,1,5,80,127,1506816428
94,16,17,Jits_Phase_5,2,1,48,32,1506865388
94,16,17,Jits_Phase_5,3,5,56,103,1506875972
94,16,17,Jits_Phase_5,4,5,63,98,1506905348
94,16,17,Jits_Phase_5,0,5,56,103,1507316068
94,16,17,Jits_Phase_5,1,5,80,127,1507318984
94,16,17,Jits_Phase_5,2,1,48,55,1507348780
94,16,17,Jits_Phase_5,3,5,63,98,1507356000
94,16,17,Jits_Phase_5,0,1,48,55,1507817212
94,16,17,Jits_Phase_5,1,5,56,103,1507845488
94,16,17,Jits_Phase_5,2,5,63,98,1507876060
94,16,17,Jits_Phase_5,3,5,80,127,1507885360
94,16,17,Jits_Phase_5,4,1,48,38,1507900368
94,16,17,Jits_Phase_5,0,1,48,54,1508343064
94,16,17,Jits_Phase_5,1,5,63,98,1508355388
94,16,17,Jits_Phase_5,2,5,80,127,1508365804
94,16,17,Jits_Phase_5,3,5,56,103,1508376000
94,16,17,Jits_Phase_5,4,1,48,21,1508452588
94,16,17,Jits_Phase_5,0,5,80,127,1508805952
94,16,17,Jits_Phase_5,1,5,56,103,1508856300
94,16,17,Jits_Phase_5,2,5,63,98,1508859292
94,16,17,Jits_Phase_5,3,1,48,34,1508870952
94,16,17,Jits_Phase_5,0,5,56,103,1509336420
94,16,17,Jits_Phase_5,1,5,80,127,1509356132
94,16,17,Jits_Phase_5,2,5,63,98,1509366104
94,16,17,Jits_Phase_5,3,1,48,48,1509379560
94,16,17,Jits_Phase_5,4,1,48,19,1509480288
94,16,17,Jits_Phase_5,0,5,63,98,1509815540
94,16,17,Jits_Phase_5,1,5,56,103,1509846336
94,16,17,Jits_Phase_5,2,1,48,61,1509852596
94,16,17,Jits_Phase_5,3,5,80,127,1509865964
94,16,17,Jits_Phase_5,0,1,48,64,1510319448
94,16,17,Jits_Phase_5,1,5,56,103,1510325472
94,16,17,Jits_Phase_5,2,5,80,127,1510336112
94,16,17,Jits_Phase_5,3,5,63,98,1510405420
94,16,17,Jits_Phase_5,0,1,48,64,1510813120
94,16,17,Jits_Phase_5,1,5,63,98,1510816152
94,16,17,Jits_Phase_5,2,5,80,127,1510856016
94,16,17,Jits_Phase_5,3,5,56,103,1510895956
94,16,17,Jits_Phase_5,4,1,48,14,1510965204
94,16,17,Jits_Phase_5,0,5,56,103,1511326056
94,16,17,Jits_Phase_5,1,5,63,98,1511336252
94,16,17,Jits_Phase_5,2,5,80,127,1511355960
94,16,17,Jits_Phase_5,3,1,48,52,1511356852
94,16,17,Jits_Phase_5,0,1,48,55,1511841660
94,16,17,Jits_Phase_5,1,5,63,98,1511865892
94,16,17,Jits_Phase_5,2,5,80,127,1511886128
94,16,17,Jits_Phase_5,3,5,56,103,1511905912
94,16,17,Jits_Phase_5,0,5,56,103,1512305992
94,16,17,Jits_Phase_5,1,1,48,63,1512348168
94,16,17,Jits_Phase_5,2,5,80,127,1512386028
94,16,17,Jits_Phase_5,3,5,63,98,1512396148
94,16,17,Jits_Phase_5,0,5,80,127,1512845640
94,16,17,Jits_Phase_5,1,1,48,53,1512854632
94,16,17,Jits_Phase_5,2,5,63,98,1512856276
94,16,17,Jits_Phase_5,3,5,56,103,1512885504
94,16,17,Jits_Phase_5,0,5,63,98,1513305596
94,16,17,Jits_Phase_5,1,5,80,127,1513346360
94,16,17,Jits_Phase_5,2,1,48,50,1513382532
94,16,17,Jits_Phase_5,3,5,56,103,1513406088
94,16,17,Jits_Phase_5,0,5,63,98,1513816356
94,16,17,Jits_Phase_5,1,5,56,103,1513865760
94,16,17,Jits_Phase_5,2,1,48,52,1513876296
94,16,17,Jits_Phase_5,3,5,80,127,1513896328
94,16,17,Jits_Phase_5,0,5,80,127,1514316184
94,16,17,Jits_Phase_5,1,5,63,98,1514326380
94,16,17,Jits_Phase_5,2,1,48,48,1514373168
94,16,17,Jits_Phase_5,3,5,56,103,1514395928
94,16,17,Jits_Phase_5,0,5,80,127,1514876336
94,16,17,Jits_Phase_5,1,1,48,48,1514879900
94,16,17,Jits_Phase_5,2,5,56,103,1514885396
94,16,17,Jits_Phase_5,3,5,63,98,1514888468
94,16,17,Jits_Phase_5,0,5,56,103,1515315712
94,16,17,Jits_Phase_5,1,5,80,127,1515335948
94,16,17,Jits_Phase_5,2,5,63,98,1515346220
94,16,17,Jits_Phase_5,3,1,48,50,1515447048
94,16,17,Jits_Phase_5,0,5,63,98,1515825664
94,16,17,Jits_Phase_5,1,1,48,40,1515833048
94,16,17,Jits_Phase_5,2,5,56,103,1515865448
94,16,17,Jits_Phase_5,3,5,80,127,1515885908
94,16,17,Jits_Phase_5,0,5,63,98,1516326244
94,16,17,Jits_Phase_5,1,1,48,51,1516342168
94,16,17,Jits_Phase_5,2,5,56,103,1516385728
94,16,17,Jits_Phase_5,3,5,80,127,1516388868
94,16,17,Jits_Phase_5,0,5,56,103,1516785984
94,16,17,Jits_Phase_5,1,5,80,127,1516805396
94,16,17,Jits_Phase_5,2,5,63,98,1516845408
94,16,17,Jits_Phase_5,3,1,48,43,1516880136
94,16,17,Jits_Phase_5,0,5,56,103,1517315416
94,16,17,Jits_Phase_5,1,1,48,33,1517324908
94,16,17,Jits_Phase_5,2,5,63,98,1517335940
94,16,17,Jits_Phase_5,3,5,80,127,1517346136
94,16,17,Jits_Phase_5,4,1,48,15,1517445284
94,16,17,Jits_Phase_5,0,5,80,127,1517785392
94,16,17,Jits_Phase_5,1,5,56,103,1517816040
94,16,17,Jits_Phase_5,2,1,48,50,1517844112
94,16,17,Jits_Phase_5,3,5,63,98,1517856120
94,16,17,Jits_Phase_5,0,1,48,48,1518295712
94,16,17,Jits_Phase_5,1,5,80,127,1518297284
94,16,17,Jits_Phase_5,2,5,56,103,1518315872
94,16,17,Jits_Phase_5,3,5,63,98,1518376188
94,16,17,Jits_Phase_5,0,5,56,103,1518806336
94,16,17,Jits_Phase_5,1,5,80,127,1518825820
94,16,17,Jits_Phase_5,2,1,48,54,1518835240
94,16,17,Jits_Phase_5,3,5,63,98,1518886204
94,16,17,Jits_Phase_5,0,1,48,29,1519218384
94,16,17,Jits_Phase_5,1,5,80,127,1519285716
94,16,17,Jits_Phase_5,2,5,56,103,1519296132
94,16,17,Jits_Phase_5,3,5,63,98,1519335904
94,16,17,Jits_Phase_5,0,5,63,98,1519786292
94,16,17,Jits_Phase_5,1,5,56,103,1519826228
94,16,17,Jits_Phase_5,2,1,48,47,1519827660
94,16,17,Jits_Phase_5,3,5,80,127,1519830484
94,16,17,Jits_Phase_5,0,5,63,98,1520305436
94,16,17,Jits_Phase_5,1,5,80,127,1520345524
94,16,17,Jits_Phase_5,2,5,56,103,1520376168
94,16,17,Jits_Phase_5,3,1,48,50,1520398092
94,16,17,Jits_Phase_5,0,5,56,103,1520796048
94,16,17,Jits_Phase_5,1,5,63,98,1520806468
94,16,17,Jits_Phase_5,2,5,80,127,1520835920
94,16,17,Jits_Phase_5,3,1,48,47,1520933044
94,16,17,Jits_Phase_5,0,5,80,127,1521285348
94,16,17,Jits_Phase_5,1,5,63,98,1521356100
94,16,17,Jits_Phase_5,2,1,48,39,1521366740
94,16,17,Jits_Phase_5,3,5,56,103,1521367856
94,16,17,Jits_Phase_5,4,1,48,18,1521455248
94,16,17,Jits_Phase_5,0,5,63,98,1521786112
94,16,17,Jits_Phase_5,1,5,56,103,1521856044
94,16,17,Jits_Phase_5,2,5,80,127,1521866088
94,16,17,Jits_Phase_5,3,1,48,46,1521874384
94,16,17,Jits_Phase_5,0,5,63,98,1522265336
94,16,17,Jits_Phase_5,1,5,56,103,1522285868
94,16,17,Jits_Phase_5,2,1,48,43,1522307420
94,16,17,Jits_Phase_5,3,5,80,127,1522325896
94,16,17,Jits_Phase_5,4,1,48,18,1522401664
94,16,17,Jits_Phase_5,0,5,56,103,1522745936
94,16,17,Jits_Phase_5,1,5,63,98,1522755984
94,16,17,Jits_Phase_5,2,1,48,48,1522780004
94,16,17,Jits_Phase_5,3,5,80,127,1522835944
94,16,17,Jits_Phase_5,0,5,63,98,1523236264
94,16,17,Jits_Phase_5,1,1,48,43,1523247996
94,16,17,Jits_Phase_5,2,5,56,103,1523265856
94,16,17,Jits_Phase_5,3,5,80,127,1523306016
94,16,17,Jits_Phase_5,0,5,56,103,1523736008
94,16,17,Jits_Phase_5,1,1,48,28,1523759652
94,16,17,Jits_Phase_5,2,5,63,98,1523775940
94,16,17,Jits_Phase_5,3,5,80,127,1523816096
94,16,17,Jits_Phase_5,0,5,80,127,1524235844
94,16,17,Jits_Phase_5,1,1,48,47,1524238288
94,16,17,Jits_Phase_5,2,5,56,103,1524315704
94,16,17,Jits_Phase_5,3,5,63,98,1524325900
94,16,17,Jits_Phase_5,0,5,56,103,1524776364
94,16,17,Jits_Phase_5,1,5,63,98,1524779356
94,16,17,Jits_Phase_5,2,5,80,127,1524785660
94,16,17,Jits_Phase_5,3,1,48,49,1524812972
94,16,17,Jits_Phase_5,4,1,48,22,1524887512
94,16,17,Jits_Phase_5,0,5,56,103,1525295408
94,16,17,Jits_Phase_5,1,1,48,54,1525296372
94,16,17,Jits_Phase_5,2,5,63,98,1525315932
94,16,17,Jits_Phase_5,3,5,80,127,1525326204
94,16,17,Jits_Phase_5,4,1,48,29,1525387236
94,16,17,Jits_Phase_5,0,5,63,98,1525756320
94,16,17,Jits_Phase_5,1,5,80,127,1525765468
94,16,17,Jits_Phase_5,2,5,56,103,1525785924
94,16,17,Jits_Phase_5,3,1,48,56,1525849868
94,16,17,Jits_Phase_5,4,1,48,23,1525922528
94,16,17,Jits_Phase_5,0,1,48,46,1526241824
94,16,17,Jits_Phase_5,1,5,63,98,1526256088
94,16,17,Jits_Phase_5,2,1,48,30,1526293424
94,16,17,Jits_Phase_5,3,5,56,103,1526335936
94,16,17,Jits_Phase_5,4,5,80,127,1526338928
94,16,17,Jits_Phase_5,0,1,48,58,1526753832
94,16,17,Jits_Phase_5,1,5,63,98,1526755868
94,16,17,Jits_Phase_5,2,5,56,103,1526776104
94,16,17,Jits_Phase_5,3,5,80,127,1526806076
94,16,17,Jits_Phase_5,4,1,48,36,1526823704
94,16,17,Jits_Phase_5,0,5,56,103,1527256404
94,16,17,Jits_Phase_5,1,5,63,98,1527275816
94,16,17,Jits_Phase_5,2,1,48,53,1527282080
94,16,17,Jits_Phase_5,3,5,80,127,1527286304
94,16,17,Jits_Phase_5,4,1,48,29,1527353224
94,16,17,Jits_Phase_5,0,1,48,50,1527767332
94,16,17,Jits_Phase_5,1,5,56,103,1527785788
94,16,17,Jits_Phase_5,2,5,63,98,1527815684
94,16,17,Jits_Phase_5,3,5,80,127,1527819048
94,16,17,Jits_Phase_5,4,1,48,30,1527826132
94,16,17,Jits_Phase_5,0,5,56,103,1528236348
94,16,17,Jits_Phase_5,1,5,63,98,1528276360
94,16,17,Jits_Phase_5,2,1,48,53,1528314248
94,16,17,Jits_Phase_5,3,5,80,127,1528335840
94,16,17,Jits_Phase_5,4,1,48,24,1528381644
94,16,17,Jits_Phase_5,0,1,48,50,1528760300
94,16,17,Jits_Phase_5,1,5,56,103,1528765808
94,16,17,Jits_Phase_5,2,5,63,98,1528776224
94,16,17,Jits_Phase_5,3,1,48,31,1528828324
94,16,17,Jits_Phase_5,4,5,80,127,1528835320
94,16,17,Jits_Phase_5,0,5,56,103,1529265668
94,16,17,Jits_Phase_5,1,1,48,60,1529284844
94,16,17,Jits_Phase_5,2,5,80,127,1529286416
94,16,17,Jits_Phase_5,3,5,63,98,1529315868
94,16,17,Jits_Phase_5,0,5,80,127,1529766332
94,16,17,Jits_Phase_5,1,5,56,103,1529775480
94,16,17,Jits_Phase_5,2,1,48,51,1529793496
94,16,17,Jits_Phase_5,3,5,63,98,1529796008
94,16,17,Jits_Phase_5,4,1,48,19,1529907212
94,16,17,Jits_Phase_5,0,5,63,98,1530255936
94,16,17,Jits_Phase_5,1,1,48,56,1530256900
94,16,17,Jits_Phase_5,2,1,48,29,1530336384
94,16,17,Jits_Phase_5,3,5,80,127,1530337424
94,16,17,Jits_Phase_5,4,5,56,103,1530345820
94,16,17,Jits_Phase_5,0,1,48,65,1530730408
94,16,17,Jits_Phase_5,1,1,48,35,1530823760
94,16,17,Jits_Phase_5,2,5,80,127,1530845672
94,16,17,Jits_Phase_5,3,5,56,103,1530865900
94,16,17,Jits_Phase_5,4,5,63,98,1530869044
94,16,17,Jits_Phase_5,5,1,48,21,1530892824
94,16,17,Jits_Phase_5,0,1,48,57,1531341128
94,16,17,Jits_Phase_5,1,5,63,98,1531346400
94,16,17,Jits_Phase_5,2,5,80,127,1531349836
94,16,17,Jits_Phase_5,3,5,56,103,1531405892
94,16,17,Jits_Phase_5,4,1,48,33,1531427876
94,16,17,Jits_Phase_5,0,5,56,103,1531825952
94,16,17,Jits_Phase_5,1,5,80,127,1531835852
94,16,17,Jits_Phase_5,2,1,48,50,1531859196
94,16,17,Jits_Phase_5,3,5,63,98,1531876004
94,16,17,Jits_Phase_5,4,1,48,31,1531942776
94,16,17,Jits_Phase_5,0,5,56,103,1532305748
94,16,17,Jits_Phase_5,1,5,63,98,1532366136
94,16,17,Jits_Phase_5,2,5,80,127,1532376480
94,16,17,Jits_Phase_5,3,1,48,54,1532407768
94,16,17,Jits_Phase_5,0,5,63,98,1532815924
94,16,17,Jits_Phase_5,1,5,80,127,1532855716
94,16,17,Jits_Phase_5,2,1,48,55,1532874124
94,16,17,Jits_Phase_5,3,5,56,103,1532895720
94,16,17,Jits_Phase_5,4,1,48,29,1532967444
94,16,17,Jits_Phase_5,0,5,56,103,1533315312
94,16,17,Jits_Phase_5,1,1,48,62,1533333276
94,16,17,Jits_Phase_5,2,5,63,98,1533396392
94,16,17,Jits_Phase_5,3,5,80,127,1533399904
94,16,17,Jits_Phase_5,4,1,48,35,1533438524
94,16,17,Jits_Phase_5,0,1,48,53,1533816940
94,16,17,Jits_Phase_5,1,5,80,127,1533875724
94,16,17,Jits_Phase_5,2,1,48,29,1533888720
94,16,17,Jits_Phase_5,3,5,56,103,1533906276
94,16,17,Jits_Phase_5,4,5,63,98,1533909268
94,16,17,Jits_Phase_5,0,5,56,103,1534336228
94,16,17,Jits_Phase_5,1,1,48,55,1534347836
94,16,17,Jits_Phase_5,2,5,80,127,1534355804
94,16,17,Jits_Phase_5,3,5,63,98,1534396040
94,16,17,Jits_Phase_5,4,1,48,34,1534424624
94,16,17,Jits_Phase_5,0,5,80,127,1534815792
94,16,17,Jits_Phase_5,1,1,48,61,1534834440
94,16,17,Jits_Phase_5,2,5,63,98,1534836024
94,16,17,Jits_Phase_5,3,5,56,103,1534895684
94,16,17,Jits_Phase_5,4,1,48,39,1534909728
94,16,17,Jits_Phase_5,0,5,63,98,1535335664
94,16,17,Jits_Phase_5,1,5,56,103,1535345936
94,16,17,Jits_Phase_5,2,1,48,54,1535375976
94,16,17,Jits_Phase_5,3,5,80,127,1535396152
94,16,17,Jits_Phase_5,4,1,48,33,1535445332
94,16,17,Jits_Phase_5,0,5,56,103,1535826148
94,16,17,Jits_Phase_5,1,5,63,98,1535845932
94,16,17,Jits_Phase_5,2,5,80,127,1535856052
94,16,17,Jits_Phase_5,3,1,48,51,1535888416
94,16,17,Jits_Phase_5,4,1,48,33,1535948764
94,16,17,Jits_Phase_5,0,5,56,103,1536315900
94,16,17,Jits_Phase_5,1,5,63,98,1536318892
94,16,17,Jits_Phase_5,2,5,80,127,1536336284
94,16,17,Jits_Phase_5,3,1,48,52,1536346376
94,16,17,Jits_Phase_5,4,1,48,30,1536414324
94,16,17,Jits_Phase_5,0,1,48,51,1536848608
94,16,17,Jits_Phase_5,1,5,63,98,1536856652
94,16,17,Jits_Phase_5,2,5,56,103,1536886032
94,16,17,Jits_Phase_5,3,1,48,31,1536909688
94,16,17,Jits_Phase_5,4,5,80,127,1536915936
94,16,17,Jits_Phase_5,0,5,80,127,1537316064
94,16,17,Jits_Phase_5,1,1,48,57,1537380392
94,16,17,Jits_Phase_5,2,5,56,103,1537406336
94,16,17,Jits_Phase_5,3,5,63,98,1537409628
94,16,17,Jits_Phase_5,4,1,48,39,1537444084
94,16,17,Jits_Phase_5,0,5,56,103,1537815848
94,16,17,Jits_Phase_5,1,5,80,127,1537818988
94,16,17,Jits_Phase_5,2,1,48,46,1537864896
94,16,17,Jits_Phase_5,3,5,63,98,1537895932
94,16,17,Jits_Phase_5,4,1,48,29,1537921280
94,16,17,Jits_Phase_5,0,5,80,127,1538315852
94,16,17,Jits_Phase_5,1,1,48,51,1538318524
94,16,17,Jits_Phase_5,2,5,63,98,1538375940
94,16,17,Jits_Phase_5,3,1,48,33,1538387808
94,16,17,Jits_Phase_5,4,5,56,103,1538405816
94,16,17,Jits_Phase_5,0,5,63,98,1538816396
94,16,17,Jits_Phase_5,1,1,48,28,1538819516
94,16,17,Jits_Phase_5,2,5,80,127,1538825836
94,16,17,Jits_Phase_5,3,5,56,103,1538896188
94,16,17,Jits_Phase_5,0,1,48,50,1539322544
94,16,17,Jits_Phase_5,1,5,56,103,1539375624
94,16,17,Jits_Phase_5,2,1,48,26,1539387044
94,16,17,Jits_Phase_5,3,5,80,127,1539406176
94,16,17,Jits_Phase_5,4,5,63,98,1539456300
94,16,17,Jits_Phase_5,0,1,48,60,1539876940
94,16,17,Jits_Phase_5,1,5,63,98,1539966344
94,16,17,Jits_Phase_5,2,1,48,24,1539978088
94,16,17,Jits_Phase_5,3,5,56,103,1539996096
94,16,17,Jits_Phase_5,4,5,80,127,1539999088
94,16,17,Jits_Phase_5,0,5,63,98,1540466124
94,16,17,Jits_Phase_5,1,1,48,62,1540476588
94,16,17,Jits_Phase_5,2,5,80,127,1540485680
94,16,17,Jits_Phase_5,3,5,56,103,1540495752
94,16,17,Jits_Phase_5,4,1,48,30,1540580056
94,16,17,Jits_Phase_5,0,1,48,59,1540947376
94,16,17,Jits_Phase_5,1,5,56,103,1540976016
94,16,17,Jits_Phase_5,2,5,63,98,1540979232
94,16,17,Jits_Phase_5,3,5,80,127,1540995504
94,16,17,Jits_Phase_5,4,1,48,35,1541029344
94,16,17,Jits_Phase_5,0,5,56,103,1541425604
94,16,17,Jits_Phase_5,1,5,63,98,1541435872
94,16,17,Jits_Phase_5,2,5,80,127,1541465396
94,16,17,Jits_Phase_5,3,1,48,51,1541471056
94,16,17,Jits_Phase_5,4,1,48,30,1541543272
94,16,17,Jits_Phase_5,0,5,63,98,1541945624
94,16,17,Jits_Phase_5,1,1,48,51,1541949188
94,16,17,Jits_Phase_5,2,5,80,127,1541966148
94,16,17,Jits_Phase_5,3,5,56,103,1542006084
94,16,17,Jits_Phase_5,4,1,48,28,1542028840
94,16,17,Jits_Phase_5,0,1,48,53,1542434732
94,16,17,Jits_Phase_5,1,5,56,103,1542476112
94,16,17,Jits_Phase_5,2,1,48,34,1542501468
94,16,17,Jits_Phase_5,3,5,63,98,1542516028
94,16,17,Jits_Phase_5,4,5,80,127,1542519240
94,16,17,Jits_Phase_5,0,5,80,127,1542915584
94,16,17,Jits_Phase_5,1,5,56,103,1542956492
94,16,17,Jits_Phase_5,2,5,63,98,1543005644
94,16,17,Jits_Phase_5,3,1,48,53,1543007656
94,16,17,Jits_Phase_5,4,1,48,31,1543090040
94,16,17,Jits_Phase_5,0,5,56,103,1543475688
94,16,17,Jits_Phase_5,1,1,48,54,1543483688
94,16,17,Jits_Phase_5,2,5,80,127,1543485804
94,16,17,Jits_Phase_5,3,5,63,98,1543515776
94,16,17,Jits_Phase_5,4,1,48,33,1543563636
94,16,17,Jits_Phase_5,0,5,56,103,1543926112
94,16,17,Jits_Phase_5,1,5,80,127,1543966052
94,16,17,Jits_Phase_5,2,1,48,48,1544010000
94,16,17,Jits_Phase_5,3,5,63,98,1544016320
94,16,17,Jits_Phase_5,4,1,48,31,1544064528
94,16,17,Jits_Phase_5,0,5,56,103,1544425760
94,16,17,Jits_Phase_5,1,5,80,127,1544465848
94,16,17,Jits_Phase_5,2,1,48,43,1544468440
94,16,17,Jits_Phase_5,3,5,63,98,1544516040
94,16,17,Jits_Phase_5,4,1,48,24,1544534048
94,16,17,Jits_Phase_5,0,5,80,127,1544916340
94,16,17,Jits_Phase_5,1,1,48,45,1544927480
94,16,17,Jits_Phase_5,2,5,63,98,1544996352
94,16,17,Jits_Phase_5,3,5,56,103,1545005796
94,16,17,Jits_Phase_5,0,1,48,54,1545426192
94,16,17,Jits_Phase_5,1,5,80,127,1545466368
94,16,17,Jits_Phase_5,2,5,56,103,1545475520
94,16,17,Jits_Phase_5,3,5,63,98,1545495900
94,16,17,Jits_Phase_5,4,1,48,32,1545502072
94,16,17,Jits_Phase_5,0,1,48,40,1545890904
94,16,17,Jits_Phase_5,1,5,63,98,1545936184
94,16,17,Jits_Phase_5,2,5,56,103,1546005920
94,16,17,Jits_Phase_5,3,5,80,127,1546009136
94,16,17,Jits_Phase_5,0,5,80,127,1546425672
94,16,17,Jits_Phase_5,1,5,63,98,1546475872
94,16,17,Jits_Phase_5,2,1,48,51,1546479888
94,16,17,Jits_Phase_5,3,5,56,103,1546515800
94,16,17,Jits_Phase_5,4,1,48,29,1546569168
94,16,17,Jits_Phase_5,0,1,48,49,1546935776
94,16,17,Jits_Phase_5,1,5,63,98,1546966440
94,16,17,Jits_Phase_5,2,1,48,33,1546988496
94,16,17,Jits_Phase_5,3,5,56,103,1547006284
94,16,17,Jits_Phase_5,4,5,80,127,1547015652
94,16,17,Jits_Phase_5,0,1,48,44,1547455672
94,16,17,Jits_Phase_5,1,5,63,98,1547457084
94,16,17,Jits_Phase_5,2,5,56,103,1547476348
94,16,17,Jits_Phase_5,3,5,80,127,1547495684
94,16,17,Jits_Phase_5,4,1,48,29,1547509196
94,16,17,Jits_Phase_5,0,5,80,127,1547915744
94,16,17,Jits_Phase_5,1,5,56,103,1547925792
94,16,17,Jits_Phase_5,2,5,63,98,1547946548
94,16,17,Jits_Phase_5,3,1,48,51,1547994772
94,16,17,Jits_Phase_5,4,1,48,28,1548093468
94,16,17,Jits_Phase_5,0,1,48,47,1548398696
94,16,17,Jits_Phase_5,1,5,63,98,1548446172
94,16,17,Jits_Phase_5,2,1,48,31,1548473016
94,16,17,Jits_Phase_5,3,5,56,103,1548485940
94,16,17,Jits_Phase_5,4,5,80,127,1548515760
94,16,17,Jits_Phase_5,0,5,56,103,1548905780
94,16,17,Jits_Phase_5,1,1,48,44,1548923572
94,16,17,Jits_Phase_5,2,5,63,98,1548935672
94,16,17,Jits_Phase_5,3,5,80,127,1548966244
94,16,17,Jits_Phase_5,0,5,80,127,1549325664
94,16,17,Jits_Phase_5,1,1,48,49,1549366992
94,16,17,Jits_Phase_5,2,5,56,103,1549396460
94,16,17,Jits_Phase_5,3,5,63,98,1549399524
94,16,17,Jits_Phase_5,0,5,56,103,1549835832
94,16,17,Jits_Phase_5,1,1,48,56,1549872288
94,16,17,Jits_Phase_5,2,5,63,98,1549885732
94,16,17,Jits_Phase_5,3,5,80,127,1549915924
94,16,17,Jits_Phase_5,4,1,48,38,1549941496
94,16,17,Jits_Phase_5,0,5,63,98,1550315848
94,16,17,Jits_Phase_5,1,5,80,127,1550319284
94,16,17,Jits_Phase_5,2,1,48,55,1550365120
94,16,17,Jits_Phase_5,3,5,56,103,1550376228
94,16,17,Jits_Phase_5,4,1,48,38,1550423540
94,16,17,Jits_Phase_5,0,5,56,103,1550846408
94,16,17,Jits_Phase_5,1,5,80,127,1550855780
94,16,17,Jits_Phase_5,2,1,48,48,1550884452
94,16,17,Jits_Phase_5,3,5,63,98,1550905824
94,16,17,Jits_Phase_5,4,1,48,33,1550929824
94,16,17,Jits_Phase_5,0,5,63,98,1551316240
94,16,17,Jits_Phase_5,1,5,56,103,1551325612
94,16,17,Jits_Phase_5,2,5,80,127,1551356184
94,16,17,Jits_Phase_5,3,1,48,33,1551365000
94,16,17,Jits_Phase_5,0,1,48,50,1551824948
94,16,17,Jits_Phase_5,1,5,63,98,1551845720
94,16,17,Jits_Phase_5,2,5,80,127,1551848936
94,16,17,Jits_Phase_5,3,5,56,103,1551875540
94,16,17,Jits_Phase_5,4,1,48,30,1551877836
94,16,17,Jits_Phase_5,0,1,48,51,1552334532
94,16,17,Jits_Phase_5,1,5,63,98,1552365948
94,16,17,Jits_Phase_5,2,5,56,103,1552386480
94,16,17,Jits_Phase_5,3,5,80,127,1552389768
94,16,17,Jits_Phase_5,4,1,48,33,1552391692
94,16,17,Jits_Phase_5,0,5,63,98,1552825644
94,16,17,Jits_Phase_5,1,1,48,48,1552872956
94,16,17,Jits_Phase_5,2,5,56,103,1552896516
94,16,17,Jits_Phase_5,3,5,80,127,1552915776
94,16,17,Jits_Phase_5,4,1,48,32,1552928468
94,16,17,Jits_Phase_5,0,5,56,103,1553316504
94,16,17,Jits_Phase_5,1,5,63,98,1553325508
94,16,17,Jits_Phase_5,2,1,48,48,1553390576
94,16,17,Jits_Phase_5,3,5,80,127,1553415704
94,16,17,Jits_Phase_5,4,1,48,33,1553449740
94,16,17,Jits_Phase_5,0,5,56,103,1553836528
94,16,17,Jits_Phase_5,1,1,48,42,1553837492
94,16,17,Jits_Phase_5,2,5,80,127,1553876532
94,16,17,Jits_Phase_5,3,5,63,98,1553885608
94,16,17,Jits_Phase_5,0,1,48,49,1554352060
94,16,17,Jits_Phase_5,1,5,56,103,1554355768
94,16,17,Jits_Phase_5,2,5,63,98,1554386564
94,16,17,Jits_Phase_5,3,5,80,127,1554415944
94,16,17,Jits_Phase_5,4,1,48,31,1554418164
94,16,17,Jits_Phase_5,0,5,80,127,1554816576
94,16,17,Jits_Phase_5,1,1,48,51,1554843460
94,16,17,Jits_Phase_5,2,5,63,98,1554856160
94,16,17,Jits_Phase_5,3,5,56,103,1554875796
94,16,17,Jits_Phase_5,4,1,48,28,1554923540
94,16,17,Jits_Phase_5,0,1,48,54,1555314024
94,16,17,Jits_Phase_5,1,5,56,103,1555355948
94,16,17,Jits_Phase_5,2,5,80,127,1555375508
94,16,17,Jits_Phase_5,3,5,63,98,1555395892
94,16,17,Jits_Phase_5,4,1,48,26,1555407460
94,16,17,Jits_Phase_5,0,1,48,53,1555794100
94,16,17,Jits_Phase_5,1,5,63,98,1555826036
94,16,17,Jits_Phase_5,2,5,56,103,1555836380
94,16,17,Jits_Phase_5,3,1,48,31,1555866860
94,16,17,Jits_Phase_5,4,5,80,127,1555895652
94,16,17,Jits_Phase_5,0,1,48,49,1556273036
94,16,17,Jits_Phase_5,1,5,56,103,1556325892
94,16,17,Jits_Phase_5,2,5,63,98,1556396556
94,16,17,Jits_Phase_5,3,5,80,127,1556415744
94,16,17,Jits_Phase_5,0,1,48,53,1556815280
94,16,17,Jits_Phase_5,1,5,56,103,1556825564
94,16,17,Jits_Phase_5,2,5,63,98,1556856212
94,16,17,Jits_Phase_5,3,5,80,127,1556896024
94,16,17,Jits_Phase_5,0,5,63,98,1557315804
94,16,17,Jits_Phase_5,1,1,48,43,1557342220
94,16,17,Jits_Phase_5,2,5,56,103,1557365996
94,16,17,Jits_Phase_5,3,5,80,127,1557376640
94,16,17,Jits_Phase_5,0,1,48,43,1557795664
94,16,17,Jits_Phase_5,1,5,56,103,1557855700
94,16,17,Jits_Phase_5,2,5,63,98,1557905840
94,16,17,Jits_Phase_5,3,5,80,127,1557916036
94,16,17,Jits_Phase_5,0,5,56,103,1558325716
94,16,17,Jits_Phase_5,1,5,63,98,1558335764
94,16,17,Jits_Phase_5,2,1,48,50,1558351536
94,16,17,Jits_Phase_5,3,5,80,127,1558415796
94,16,17,Jits_Phase_5,0,9999,9999,9999,1474073684
94,16,17,Jits_Phase_5,1,9999,9999,9999,1474573392
94,16,17,Jits_Phase_5,2,9999,9999,9999,1475073124
94,16,17,Jits_Phase_5,3,9999,9999,9999,1475573816
94,16,17,Jits_Phase_5,4,9999,9999,9999,1476073564
94,16,17,Jits_Phase_5,5,9999,9999,9999,1476573288
94,16,17,Jits_Phase_5,6,9999,9999,9999,1477074040
94,16,17,Jits_Phase_5,7,9999,9999,9999,1477573688
94,16,17,Jits_Phase_5,8,9999,9999,9999,1478073464
94,16,17,Jits_Phase_5,9,9999,9999,9999,1478573112
94,16,17,Jits_Phase_5,10,9999,9999,9999,1479073876
94,16,17,Jits_Phase_5,11,9999,9999,9999,1479573580
94,16,17,Jits_Phase_5,12,9999,9999,9999,1480073324
94,16,17,Jits_Phase_5,13,9999,9999,9999,1480574040
94,16,17,Jits_Phase_5,14,9999,9999,9999,1481073760
94,16,17,Jits_Phase_5,15,9999,9999,9999,1481573448
94,16,17,Jits_Phase_5,16,9999,9999,9999,1482073172
94,16,17,Jits_Phase_5,17,9999,9999,9999,1482573920
94,16,17,Jits_Phase_5,18,9999,9999,9999,1483073624
94,16,17,Jits_Phase_5,19,9999,9999,9999,1483573332
94,16,17,Jits_Phase_5,20,9999,9999,9999,1484074084
94,16,17,Jits_Phase_5,21,9999,9999,9999,1484573792
94,16,17,Jits_Phase_5,22,9999,9999,9999,1485073496
94,16,17,Jits_Phase_5,23,9999,9999,9999,1485573240
94,16,17,Jits_Phase_5,24,9999,9999,9999,1486073936
94,16,17,Jits_Phase_5,25,9999,9999,9999,1486573628
94,16,17,Jits_Phase_5,26,9999,9999,9999,1487073360
94,16,17,Jits_Phase_5,27,9999,9999,9999,1487574104
94,16,17,Jits_Phase_5,28,9999,9999,9999,1488084092
94,16,17,Jits_Phase_5,29,9999,9999,9999,1488583796
94,16,17,Jits_Phase_5,30,9999,9999,9999,1489073240
94,16,17,Jits_Phase_5,31,9999,9999,9999,1489573940
94,16,17,Jits_Phase_5,32,9999,9999,9999,1490073704
94,16,17,Jits_Phase_5,33,9999,9999,9999,1490573376
94,16,17,Jits_Phase_5,34,9999,9999,9999,1491073144
94,16,17,Jits_Phase_5,35,9999,9999,9999,1491573844
94,16,17,Jits_Phase_5,36,9999,9999,9999,1492073580
94,16,17,Jits_Phase_5,37,9999,9999,9999,1492573256
94,16,17,Jits_Phase_5,38,9999,9999,9999,1493073992
94,16,17,Jits_Phase_5,39,9999,9999,9999,1493573744
94,16,17,Jits_Phase_5,40,9999,9999,9999,1494073420
94,16,17,Jits_Phase_5,41,9999,9999,9999,1494573184
94,16,17,Jits_Phase_5,42,9999,9999,9999,1495073916
94,16,17,Jits_Phase_5,43,9999,9999,9999,1495573588
94,16,17,Jits_Phase_5,44,9999,9999,9999,1496073336
94,16,17,Jits_Phase_5,45,9999,9999,9999,1496574052
94,16,17,Jits_Phase_5,46,9999,9999,9999,1497073728
94,16,17,Jits_Phase_5,47,9999,9999,9999,1497573484
94,16,17,Jits_Phase_5,48,9999,9999,9999,1498083400
94,16,17,Jits_Phase_5,49,9999,9999,9999,1498583148
94,16,17,Jits_Phase_5,50,9999,9999,9999,1499083836
94,16,17,Jits_Phase_5,51,9999,9999,9999,1499583580
94,16,17,Jits_Phase_5,52,9999,9999,9999,1500083324
94,16,17,Jits_Phase_5,53,9999,9999,9999,1500584016
94,16,17,Jits_Phase_5,54,9999,9999,9999,1501083724
94,16,17,Jits_Phase_5,55,9999,9999,9999,1501583448
94,16,17,Jits_Phase_5,56,9999,9999,9999,1502083128
94,16,17,Jits_Phase_5,57,9999,9999,9999,1502583884
94,16,17,Jits_Phase_5,58,9999,9999,9999,1503083592
94,16,17,Jits_Phase_5,59,9999,9999,9999,1503583296
94,16,17,Jits_Phase_5,60,9999,9999,9999,1504084068
94,16,17,Jits_Phase_5,61,9999,9999,9999,1504583768
94,16,17,Jits_Phase_5,62,9999,9999,9999,1505083488
94,16,17,Jits_Phase_5,63,9999,9999,9999,1505583196
94,16,17,Jits_Phase_5,64,9999,9999,9999,1506103424
94,16,17,Jits_Phase_5,65,9999,9999,9999,1506603064
94,16,17,Jits_Phase_5,66,9999,9999,9999,1507103832
94,16,17,Jits_Phase_5,67,9999,9999,9999,1507603552
94,16,17,Jits_Phase_5,68,9999,9999,9999,1508103228
94,16,17,Jits_Phase_5,69,9999,9999,9999,1508603980
94,16,17,Jits_Phase_5,70,9999,9999,9999,1509103700
94,16,17,Jits_Phase_5,71,9999,9999,9999,1509603440
94,16,17,Jits_Phase_5,72,9999,9999,9999,1510103104
94,16,17,Jits_Phase_5,73,9999,9999,9999,1510603828
94,16,17,Jits_Phase_5,74,9999,9999,9999,1511103560
94,16,17,Jits_Phase_5,75,9999,9999,9999,1511603284
94,16,17,Jits_Phase_5,76,9999,9999,9999,1512104024
94,16,17,Jits_Phase_5,77,9999,9999,9999,1512603772
94,16,17,Jits_Phase_5,78,9999,9999,9999,1513103468
94,16,17,Jits_Phase_5,79,9999,9999,9999,1513603132
94,16,17,Jits_Phase_5,80,9999,9999,9999,1514103928
94,16,17,Jits_Phase_5,81,9999,9999,9999,1514583152
94,16,17,Jits_Phase_5,82,9999,9999,9999,1515083888
94,16,17,Jits_Phase_5,83,9999,9999,9999,1515583576
94,16,17,Jits_Phase_5,84,9999,9999,9999,1516083272
94,16,17,Jits_Phase_5,85,9999,9999,9999,1516583988
94,16,17,Jits_Phase_5,86,9999,9999,9999,1517083736
94,16,17,Jits_Phase_5,87,9999,9999,9999,1517583484
94,16,17,Jits_Phase_5,88,9999,9999,9999,1518083152
94,16,17,Jits_Phase_5,89,9999,9999,9999,1518583888
94,16,17,Jits_Phase_5,90,9999,9999,9999,1519083640
94,16,17,Jits_Phase_5,91,9999,9999,9999,1519583324
94,16,17,Jits_Phase_5,92,9999,9999,9999,1520084036
94,16,17,Jits_Phase_5,93,9999,9999,9999,1520583788
94,16,17,Jits_Phase_5,94,9999,9999,9999,1521083516
94,16,17,Jits_Phase_5,95,9999,9999,9999,1521583184
94,16,17,Jits_Phase_5,96,9999,9999,9999,1522083896
94,16,17,Jits_Phase_5,97,9999,9999,9999,1522533480
94,16,17,Jits_Phase_5,98,9999,9999,9999,1523033208
94,16,17,Jits_Phase_5,99,9999,9999,9999,1523533944
94,16,17,Jits_Phase_5,100,9999,9999,9999,1524033616
94,16,17,Jits_Phase_5,101,9999,9999,9999,1524533304
94,16,17,Jits_Phase_5,102,9999,9999,9999,1525034084
94,16,17,Jits_Phase_5,103,9999,9999,9999,1525533808
94,16,17,Jits_Phase_5,104,9999,9999,9999,1526033524
94,16,17,Jits_Phase_5,105,9999,9999,9999,1526533228
94,16,17,Jits_Phase_5,106,9999,9999,9999,1527033980
94,16,17,Jits_Phase_5,107,9999,9999,9999,1527533688
94,16,17,Jits_Phase_5,108,9999,9999,9999,1528033404
94,16,17,Jits_Phase_5,109,9999,9999,9999,1528534080
94,16,17,Jits_Phase_5,110,9999,9999,9999,1529044068
94,16,17,Jits_Phase_5,111,9999,9999,9999,1529543796
94,16,17,Jits_Phase_5,112,9999,9999,9999,1530043464
94,16,17,Jits_Phase_5,113,9999,9999,9999,1530543188
94,16,17,Jits_Phase_5,114,9999,9999,9999,1531094108
94,16,17,Jits_Phase_5,115,9999,9999,9999,1531604056
94,16,17,Jits_Phase_5,116,9999,9999,9999,1532103760
94,16,17,Jits_Phase_5,117,9999,9999,9999,1532603504
94,16,17,Jits_Phase_5,118,9999,9999,9999,1533103176
94,16,17,Jits_Phase_5,119,9999,9999,9999,1533603924
94,16,17,Jits_Phase_5,120,9999,9999,9999,1534103640
94,16,17,Jits_Phase_5,121,9999,9999,9999,1534603348
94,16,17,Jits_Phase_5,122,9999,9999,9999,1535104088
94,16,17,Jits_Phase_5,123,9999,9999,9999,1535614068
94,16,17,Jits_Phase_5,124,9999,9999,9999,1536113768
94,16,17,Jits_Phase_5,125,9999,9999,9999,1536613472
94,16,17,Jits_Phase_5,126,9999,9999,9999,1537113200
94,16,17,Jits_Phase_5,127,9999,9999,9999,1537613940
94,16,17,Jits_Phase_5,128,9999,9999,9999,1538113648
94,16,17,Jits_Phase_5,129,9999,9999,9999,1538613368
94,16,17,Jits_Phase_5,130,9999,9999,9999,1539114076
94,16,17,Jits_Phase_5,131,9999,9999,9999,1539713144
94,16,17,Jits_Phase_5,132,9999,9999,9999,1540213884
94,16,17,Jits_Phase_5,133,9999,9999,9999,1540713596
94,16,17,Jits_Phase_5,134,9999,9999,9999,1541213296
94,16,17,Jits_Phase_5,135,9999,9999,9999,1541714044
94,16,17,Jits_Phase_5,136,9999,9999,9999,1542213688
94,16,17,Jits_Phase_5,137,9999,9999,9999,1542713464
94,16,17,Jits_Phase_5,138,9999,9999,9999,1543213172
94,16,17,Jits_Phase_5,139,9999,9999,9999,1543713864
94,16,17,Jits_Phase_5,140,9999,9999,9999,1544213588
94,16,17,Jits_Phase_5,141,9999,9999,9999,1544713308
94,16,17,Jits_Phase_5,142,9999,9999,9999,1545214024
94,16,17,Jits_Phase_5,143,9999,9999,9999,1545713768
94,16,17,Jits_Phase_5,144,9999,9999,9999,1546213488
94,16,17,Jits_Phase_5,145,9999,9999,9999,1546713144
94,16,17,Jits_Phase_5,146,9999,9999,9999,1547213916
94,16,17,Jits_Phase_5,147,9999,9999,9999,1547713624
94,16,17,Jits_Phase_5,148,9999,9999,9999,1548213328
94,16,17,Jits_Phase_5,149,9999,9999,9999,1548714096
94,16,17,Jits_Phase_5,150,9999,9999,9999,1549113468
94,16,17,Jits_Phase_5,151,9999,9999,9999,1549613152
94,16,17,Jits_Phase_5,152,9999,9999,9999,1550113864
94,16,17,Jits_Phase_5,153,9999,9999,9999,1550613572
94,16,17,Jits_Phase_5,154,9999,9999,9999,1551113280
94,16,17,Jits_Phase_5,155,9999,9999,9999,1551614068
94,16,17,Jits_Phase_5,156,9999,9999,9999,1552113784
94,16,17,Jits_Phase_5,157,9999,9999,9999,1552613484
94,16,17,Jits_Phase_5,158,9999,9999,9999,1553113192
94,16,17,Jits_Phase_5,159,9999,9999,9999,1553613944
94,16,17,Jits_Phase_5,160,9999,9999,9999,1554113612
94,16,17,Jits_Phase_5,161,9999,9999,9999,1554613360
94,16,17,Jits_Phase_5,162,9999,9999,9999,1555114112
94,16,17,Jits_Phase_5,163,9999,9999,9999,1555613760
94,16,17,Jits_Phase_5,164,9999,9999,9999,1556113464
94,16,17,Jits_Phase_5,165,9999,9999,9999,1556613244
94,16,17,Jits_Phase_5,166,9999,9999,9999,1557113960
94,16,17,Jits_Phase_5,167,9999,9999,9999,1557613636
94,16,17,Jits_Phase_5,168,9999,9999,9999,1558113388
94,16,17,Jits_Phase_5,169,9999,9999,9999,1558614108
94,17,15,Jits_Phase_8,0,5,56,103,1568410004
94,17,15,Jits_Phase_8,1,5,63,98,1568413256
94,17,15,Jits_Phase_8,2,5,80,127,1568416224
94,17,15,Jits_Phase_8,0,5,56,103,1569209796
94,17,15,Jits_Phase_8,1,5,63,98,1569212820
94,17,15,Jits_Phase_8,2,5,80,127,1569216016
94,17,15,Jits_Phase_8,0,5,80,127,1569950192
94,17,15,Jits_Phase_8,1,5,63,98,1570040324
94,17,15,Jits_Phase_8,2,5,56,103,1570050524
94,17,15,Jits_Phase_8,0,5,56,103,1570770380
94,17,15,Jits_Phase_8,1,5,63,98,1570779456
94,17,15,Jits_Phase_8,2,5,80,127,1570869660
94,17,15,Jits_Phase_8,0,1,48,40,1571521540
94,17,15,Jits_Phase_8,1,5,63,98,1571540296
94,17,15,Jits_Phase_8,2,5,80,127,1571569968
94,17,15,Jits_Phase_8,3,1,48,24,1571588960
94,17,15,Jits_Phase_8,4,5,56,103,1571599772
94,17,15,Jits_Phase_8,0,1,48,62,1572235752
94,17,15,Jits_Phase_8,1,1,48,48,1572266372
94,17,15,Jits_Phase_8,2,5,56,103,1572340132
94,17,15,Jits_Phase_8,3,5,80,127,1572440592
94,17,15,Jits_Phase_8,4,5,63,98,1572489544
94,17,15,Jits_Phase_8,0,5,56,103,1573139732
94,17,15,Jits_Phase_8,1,1,48,64,1573165172
94,17,15,Jits_Phase_8,2,5,80,127,1573190000
94,17,15,Jits_Phase_8,3,1,48,47,1573199028
94,17,15,Jits_Phase_8,4,5,63,98,1573229916
94,17,15,Jits_Phase_8,0,1,48,52,1573951256
94,17,15,Jits_Phase_8,1,5,80,127,1573970464
94,17,15,Jits_Phase_8,2,5,63,98,1573999916
94,17,15,Jits_Phase_8,3,1,48,36,1574026636
94,17,15,Jits_Phase_8,4,5,56,103,1574069596
94,17,15,Jits_Phase_8,0,1,48,57,1574690584
94,17,15,Jits_Phase_8,1,1,48,40,1574743156
94,17,15,Jits_Phase_8,2,5,63,98,1574799776
94,17,15,Jits_Phase_8,3,5,56,103,1574829304
94,17,15,Jits_Phase_8,4,5,80,127,1574889752
94,17,15,Jits_Phase_8,0,1,48,68,1575464152
94,17,15,Jits_Phase_8,1,1,48,47,1575498376
94,17,15,Jits_Phase_8,2,5,56,103,1575540052
94,17,15,Jits_Phase_8,3,5,80,127,1575543120
94,17,15,Jits_Phase_8,4,5,63,98,1575659860
94,17,15,Jits_Phase_8,0,1,48,62,1576279216
94,17,15,Jits_Phase_8,1,1,48,43,1576328444
94,17,15,Jits_Phase_8,2,5,56,103,1576419720
94,17,15,Jits_Phase_8,3,5,80,127,1576459644
94,17,15,Jits_Phase_8,4,5,63,98,1576469916
94,17,15,Jits_Phase_8,0,1,48,68,1577035848
94,17,15,Jits_Phase_8,1,1,48,48,1577075008
94,17,15,Jits_Phase_8,2,5,56,103,1577179492
94,17,15,Jits_Phase_8,3,5,80,127,1577200100
94,17,15,Jits_Phase_8,4,5,63,98,1577279820
94,17,15,Jits_Phase_8,0,1,48,69,1577857896
94,17,15,Jits_Phase_8,1,1,48,49,1577913564
94,17,15,Jits_Phase_8,2,5,80,127,1577970156
94,17,15,Jits_Phase_8,3,5,56,103,1578070388
94,17,15,Jits_Phase_8,4,5,63,98,1578079612
94,17,15,Jits_Phase_8,0,1,48,62,1578713152
94,17,15,Jits_Phase_8,1,5,63,98,1578740224
94,17,15,Jits_Phase_8,2,1,48,48,1578750156
94,17,15,Jits_Phase_8,3,5,80,127,1578799400
94,17,15,Jits_Phase_8,4,5,56,103,1578809668
94,17,15,Jits_Phase_8,0,1,48,58,1579445052
94,17,15,Jits_Phase_8,1,1,48,42,1579478236
94,17,15,Jits_Phase_8,2,5,56,103,1579539916
94,17,15,Jits_Phase_8,3,5,63,98,1579609352
94,17,15,Jits_Phase_8,4,5,80,127,1579613020
94,17,15,Jits_Phase_8,0,1,48,57,1580313536
94,17,15,Jits_Phase_8,1,1,48,44,1580347296
94,17,15,Jits_Phase_8,2,5,63,98,1580370260
94,17,15,Jits_Phase_8,3,5,56,103,1580419416
94,17,15,Jits_Phase_8,4,5,80,127,1580422808
94,17,15,Jits_Phase_8,0,5,56,103,1581130212
94,17,15,Jits_Phase_8,1,5,80,127,1581133128
94,17,15,Jits_Phase_8,2,1,48,59,1581152132
94,17,15,Jits_Phase_8,3,1,48,43,1581193492
94,17,15,Jits_Phase_8,4,5,63,98,1581220188
94,17,15,Jits_Phase_8,0,1,48,58,1581883736
94,17,15,Jits_Phase_8,1,1,48,32,1581961664
94,17,15,Jits_Phase_8,2,5,63,98,1581969856
94,17,15,Jits_Phase_8,3,5,56,103,1582059824
94,17,15,Jits_Phase_8,4,5,80,127,1582089648
94,17,15,Jits_Phase_8,0,1,48,75,1582724584
94,17,15,Jits_Phase_8,1,5,56,103,1582760376
94,17,15,Jits_Phase_8,2,1,48,41,1582816816
94,17,15,Jits_Phase_8,3,5,63,98,1582859560
94,17,15,Jits_Phase_8,4,5,80,127,1582890428
94,17,15,Jits_Phase_8,0,1,48,60,1583510700
94,17,15,Jits_Phase_8,1,1,48,40,1583575772
94,17,15,Jits_Phase_8,2,5,63,98,1583579556
94,17,15,Jits_Phase_8,3,5,56,103,1583589604
94,17,15,Jits_Phase_8,4,5,80,127,1583679792
94,17,15,Jits_Phase_8,0,1,48,65,1584315504
94,17,15,Jits_Phase_8,1,1,48,44,1584398524
94,17,15,Jits_Phase_8,2,5,63,98,1584399652
94,17,15,Jits_Phase_8,3,5,56,103,1584479668
94,17,15,Jits_Phase_8,4,5,80,127,1584482660
94,17,15,Jits_Phase_8,0,1,48,57,1585112224
94,17,15,Jits_Phase_8,1,5,80,127,1585159524
94,17,15,Jits_Phase_8,2,1,48,42,1585166444
94,17,15,Jits_Phase_8,3,5,63,98,1585179964
94,17,15,Jits_Phase_8,4,5,56,103,1585240500
94,17,15,Jits_Phase_8,0,1,48,63,1585905712
94,17,15,Jits_Phase_8,1,1,48,46,1585957452
94,17,15,Jits_Phase_8,2,5,56,103,1586000272
94,17,15,Jits_Phase_8,3,5,63,98,1586019684
94,17,15,Jits_Phase_8,4,5,80,127,1586023196
94,17,15,Jits_Phase_8,0,1,48,52,1586715012
94,17,15,Jits_Phase_8,1,5,63,98,1586739544
94,17,15,Jits_Phase_8,2,1,48,39,1586750816
94,17,15,Jits_Phase_8,3,5,80,127,1586819392
94,17,15,Jits_Phase_8,4,5,56,103,1586829612
94,17,15,Jits_Phase_8,0,1,48,57,1587477724
94,17,15,Jits_Phase_8,1,1,48,41,1587515148
94,17,15,Jits_Phase_8,2,5,63,98,1587559836
94,17,15,Jits_Phase_8,3,5,56,103,1587580516
94,17,15,Jits_Phase_8,4,5,80,127,1587629384
94,17,15,Jits_Phase_8,0,1,48,63,1588292936
94,17,15,Jits_Phase_8,1,1,48,46,1588339220
94,17,15,Jits_Phase_8,2,5,80,127,1588359572
94,17,15,Jits_Phase_8,3,5,63,98,1588399588
94,17,15,Jits_Phase_8,4,5,56,103,1588420044
94,17,15,Jits_Phase_8,0,1,48,59,1589149464
94,17,15,Jits_Phase_8,1,1,48,44,1589193944
94,17,15,Jits_Phase_8,2,5,56,103,1589200192
94,17,15,Jits_Phase_8,3,5,63,98,1589209564
94,17,15,Jits_Phase_8,4,5,80,127,1589229800
94,17,15,Jits_Phase_8,0,5,56,103,1589930260
94,17,15,Jits_Phase_8,1,1,48,55,1589960804
94,17,15,Jits_Phase_8,2,1,48,41,1590012472
94,17,15,Jits_Phase_8,3,5,63,98,1590019392
94,17,15,Jits_Phase_8,4,5,80,127,1590079856
94,17,15,Jits_Phase_8,0,5,80,127,1590759732
94,17,15,Jits_Phase_8,1,1,48,52,1590769548
94,17,15,Jits_Phase_8,2,5,56,103,1590771040
94,17,15,Jits_Phase_8,3,1,48,38,1590811832
94,17,15,Jits_Phase_8,4,5,63,98,1590839652
94,17,15,Jits_Phase_8,0,1,48,57,1591514836
94,17,15,Jits_Phase_8,1,1,48,43,1591563372
94,17,15,Jits_Phase_8,2,5,63,98,1591590368
94,17,15,Jits_Phase_8,3,5,80,127,1591680340
94,17,15,Jits_Phase_8,4,5,56,103,1591689736
94,17,15,Jits_Phase_8,0,5,63,98,1592320368
94,17,15,Jits_Phase_8,1,1,48,55,1592364912
94,17,15,Jits_Phase_8,2,5,80,127,1592369592
94,17,15,Jits_Phase_8,3,1,48,43,1592412404
94,17,15,Jits_Phase_8,4,5,56,103,1592430036
94,17,15,Jits_Phase_8,0,1,48,53,1593093896
94,17,15,Jits_Phase_8,1,1,48,41,1593136500
94,17,15,Jits_Phase_8,2,5,56,103,1593139608
94,17,15,Jits_Phase_8,3,5,80,127,1593189736
94,17,15,Jits_Phase_8,4,5,63,98,1593210120
94,17,15,Jits_Phase_8,0,1,48,47,1593888224
94,17,15,Jits_Phase_8,1,5,56,103,1593909600
94,17,15,Jits_Phase_8,2,5,80,127,1593970212
94,17,15,Jits_Phase_8,3,5,63,98,1594039532
94,17,15,Jits_Phase_8,0,5,56,103,1594710260
94,17,15,Jits_Phase_8,1,5,80,127,1594740080
94,17,15,Jits_Phase_8,2,1,48,52,1594742748
94,17,15,Jits_Phase_8,3,5,63,98,1594769848
94,17,15,Jits_Phase_8,4,1,48,37,1594780900
94,17,15,Jits_Phase_8,0,1,48,57,1595533644
94,17,15,Jits_Phase_8,1,5,56,103,1595550304
94,17,15,Jits_Phase_8,2,1,48,44,1595561056
94,17,15,Jits_Phase_8,3,5,80,127,1595569472
94,17,15,Jits_Phase_8,4,5,63,98,1595630084
94,17,15,Jits_Phase_8,0,1,48,52,1596313052
94,17,15,Jits_Phase_8,1,1,48,38,1596355808
94,17,15,Jits_Phase_8,2,5,80,127,1596429792
94,17,15,Jits_Phase_8,3,5,56,103,1596439988
94,17,15,Jits_Phase_8,4,5,63,98,1596451216
94,17,15,Jits_Phase_8,0,1,48,56,1597186496
94,17,15,Jits_Phase_8,1,5,56,103,1597189528
94,17,15,Jits_Phase_8,2,1,48,41,1597225516
94,17,15,Jits_Phase_8,3,5,80,127,1597229300
94,17,15,Jits_Phase_8,4,5,63,98,1597260020
94,17,15,Jits_Phase_8,0,5,56,103,1597959516
94,17,15,Jits_Phase_8,1,5,63,98,1597990384
94,17,15,Jits_Phase_8,2,1,48,51,1598021080
94,17,15,Jits_Phase_8,3,5,80,127,1598030240
94,17,15,Jits_Phase_8,4,1,48,37,1598060392
94,17,15,Jits_Phase_8,0,5,80,127,1598710168
94,17,15,Jits_Phase_8,1,1,48,51,1598739436
94,17,15,Jits_Phase_8,2,5,63,98,1598760212
94,17,15,Jits_Phase_8,3,1,48,38,1598777020
94,17,15,Jits_Phase_8,4,5,56,103,1598779680
94,17,15,Jits_Phase_8,0,1,48,49,1599435980
94,17,15,Jits_Phase_8,1,1,48,38,1599473876
94,17,15,Jits_Phase_8,2,5,56,103,1599539460
94,17,15,Jits_Phase_8,3,5,80,127,1599610176
94,17,15,Jits_Phase_8,4,5,63,98,1599669540
94,17,15,Jits_Phase_8,0,1,48,49,1600338740
94,17,15,Jits_Phase_8,1,5,80,127,1600340320
94,17,15,Jits_Phase_8,2,5,63,98,1600430248
94,17,15,Jits_Phase_8,3,5,56,103,1600450028
94,17,15,Jits_Phase_8,0,5,63,98,1601159444
94,17,15,Jits_Phase_8,1,5,56,103,1601180200
94,17,15,Jits_Phase_8,2,1,48,60,1601209244
94,17,15,Jits_Phase_8,3,5,80,127,1601219984
94,17,15,Jits_Phase_8,4,1,48,44,1601248936
94,17,15,Jits_Phase_8,0,5,80,127,1601920324
94,17,15,Jits_Phase_8,1,1,48,54,1601929468
94,17,15,Jits_Phase_8,2,5,63,98,1601939904
94,17,15,Jits_Phase_8,3,1,48,35,1601973648
94,17,15,Jits_Phase_8,4,5,56,103,1602019748
94,17,15,Jits_Phase_8,0,1,48,57,1602668244
94,17,15,Jits_Phase_8,1,5,63,98,1602710020
94,17,15,Jits_Phase_8,2,1,48,41,1602725332
94,17,15,Jits_Phase_8,3,5,56,103,1602819308
94,17,15,Jits_Phase_8,4,5,80,127,1602822380
94,17,15,Jits_Phase_8,0,1,48,58,1603521836
94,17,15,Jits_Phase_8,1,5,63,98,1603530028
94,17,15,Jits_Phase_8,2,5,56,103,1603540368
94,17,15,Jits_Phase_8,3,5,80,127,1603543360
94,17,15,Jits_Phase_8,4,1,48,40,1603591200
94,17,15,Jits_Phase_8,0,1,48,70,1604293128
94,17,15,Jits_Phase_8,1,5,56,103,1604310316
94,17,15,Jits_Phase_8,2,1,48,46,1604374324
94,17,15,Jits_Phase_8,3,5,80,127,1604430172
94,17,15,Jits_Phase_8,4,5,63,98,1604470020
94,17,15,Jits_Phase_8,0,1,48,57,1605084600
94,17,15,Jits_Phase_8,1,5,56,103,1605129584
94,17,15,Jits_Phase_8,2,1,48,41,1605134108
94,17,15,Jits_Phase_8,3,5,80,127,1605209436
94,17,15,Jits_Phase_8,4,5,63,98,1605230704
94,17,15,Jits_Phase_8,0,1,48,49,1605908600
94,17,15,Jits_Phase_8,1,5,56,103,1605930272
94,17,15,Jits_Phase_8,2,5,63,98,1606040044
94,17,15,Jits_Phase_8,3,5,80,127,1606043484
94,17,15,Jits_Phase_8,0,1,48,54,1606740560
94,17,15,Jits_Phase_8,1,5,56,103,1606769956
94,17,15,Jits_Phase_8,2,1,48,40,1606772328
94,17,15,Jits_Phase_8,3,5,80,127,1606800008
94,17,15,Jits_Phase_8,4,5,63,98,1606820168
94,17,15,Jits_Phase_8,0,1,48,48,1607545512
94,17,15,Jits_Phase_8,1,5,63,98,1607559508
94,17,15,Jits_Phase_8,2,5,56,103,1607570000
94,17,15,Jits_Phase_8,3,5,80,127,1607579972
94,17,15,Jits_Phase_8,0,1,48,51,1608300096
94,17,15,Jits_Phase_8,1,1,48,38,1608332908
94,17,15,Jits_Phase_8,2,5,80,127,1608350092
94,17,15,Jits_Phase_8,3,5,56,103,1608400224
94,17,15,Jits_Phase_8,4,5,63,98,1608440144
94,17,15,Jits_Phase_8,0,1,48,50,1609091036
94,17,15,Jits_Phase_8,1,5,80,127,1609170352
94,17,15,Jits_Phase_8,2,5,63,98,1609189900
94,17,15,Jits_Phase_8,3,5,56,103,1609240100
94,17,15,Jits_Phase_8,0,1,48,49,1609955692
94,17,15,Jits_Phase_8,1,5,80,127,1609980300
94,17,15,Jits_Phase_8,2,1,48,37,1609993296
94,17,15,Jits_Phase_8,3,5,56,103,1610010176
94,17,15,Jits_Phase_8,4,5,63,98,1610079632
94,17,15,Jits_Phase_8,0,5,56,103,1610830144
94,17,15,Jits_Phase_8,1,1,48,50,1610831628
94,17,15,Jits_Phase_8,2,5,80,127,1610840332
94,17,15,Jits_Phase_8,3,1,48,37,1610878436
94,17,15,Jits_Phase_8,4,5,63,98,1610880400
94,17,15,Jits_Phase_8,0,5,56,103,1611539824
94,17,15,Jits_Phase_8,1,5,63,98,1611560284
94,17,15,Jits_Phase_8,2,5,80,127,1611630112
94,17,15,Jits_Phase_8,3,1,48,42,1611652780
94,17,15,Jits_Phase_8,0,1,48,50,1612241460
94,17,15,Jits_Phase_8,1,1,48,38,1612298080
94,17,15,Jits_Phase_8,2,5,63,98,1612359992
94,17,15,Jits_Phase_8,3,5,80,127,1612419468
94,17,15,Jits_Phase_8,4,5,56,103,1612440176
94,17,15,Jits_Phase_8,0,1,48,57,1613045580
94,17,15,Jits_Phase_8,1,1,48,40,1613122212
94,17,15,Jits_Phase_8,2,5,80,127,1613149512
94,17,15,Jits_Phase_8,3,5,56,103,1613180236
94,17,15,Jits_Phase_8,4,5,63,98,1613209936
94,17,15,Jits_Phase_8,0,1,48,63,1613909216
94,17,15,Jits_Phase_8,1,5,56,103,1613950440
94,17,15,Jits_Phase_8,2,1,48,44,1613966676
94,17,15,Jits_Phase_8,3,5,63,98,1614009940
94,17,15,Jits_Phase_8,4,5,80,127,1614070092
94,17,15,Jits_Phase_8,0,1,48,53,1614707488
94,17,15,Jits_Phase_8,1,1,48,41,1614761448
94,17,15,Jits_Phase_8,2,5,80,127,1614769416
94,17,15,Jits_Phase_8,3,5,56,103,1614789952
94,17,15,Jits_Phase_8,4,5,63,98,1614859764
94,17,15,Jits_Phase_8,0,5,80,127,1615570280
94,17,15,Jits_Phase_8,1,5,63,98,1615589844
94,17,15,Jits_Phase_8,2,1,48,59,1615603900
94,17,15,Jits_Phase_8,3,5,56,103,1615619360
94,17,15,Jits_Phase_8,4,1,48,44,1615652956
94,17,15,Jits_Phase_8,0,1,48,61,1616321420
94,17,15,Jits_Phase_8,1,5,80,127,1616359884
94,17,15,Jits_Phase_8,2,5,63,98,1616380272
94,17,15,Jits_Phase_8,3,1,48,41,1616385692
94,17,15,Jits_Phase_8,4,5,56,103,1616439664
94,17,15,Jits_Phase_8,0,1,48,56,1617151700
94,17,15,Jits_Phase_8,1,5,80,127,1617159448
94,17,15,Jits_Phase_8,2,1,48,41,1617217924
94,17,15,Jits_Phase_8,3,5,56,103,1617260044
94,17,15,Jits_Phase_8,4,5,63,98,1617289596
94,17,15,Jits_Phase_8,0,5,63,98,1617950108
94,17,15,Jits_Phase_8,1,5,80,127,1618000236
94,17,15,Jits_Phase_8,2,1,48,55,1618003948
94,17,15,Jits_Phase_8,3,5,56,103,1618019936
94,17,15,Jits_Phase_8,4,1,48,43,1618057980
94,17,15,Jits_Phase_8,0,5,80,127,1618789976
94,17,15,Jits_Phase_8,1,1,48,48,1618819428
94,17,15,Jits_Phase_8,2,5,56,103,1618821036
94,17,15,Jits_Phase_8,3,5,63,98,1618823708
94,17,15,Jits_Phase_8,4,1,48,37,1618863600
94,17,15,Jits_Phase_8,0,5,63,98,1619639848
94,17,15,Jits_Phase_8,1,1,48,57,1619659228
94,17,15,Jits_Phase_8,2,5,56,103,1619679556
94,17,15,Jits_Phase_8,3,5,80,127,1619700012
94,17,15,Jits_Phase_8,4,1,48,44,1619721548
94,17,15,Jits_Phase_8,0,5,80,127,1620399484
94,17,15,Jits_Phase_8,1,1,48,61,1620470780
94,17,15,Jits_Phase_8,2,5,63,98,1620480472
94,17,15,Jits_Phase_8,3,5,56,103,1620520260
94,17,15,Jits_Phase_8,4,1,48,43,1620530860
94,17,15,Jits_Phase_8,0,1,48,51,1621196252
94,17,15,Jits_Phase_8,1,5,63,98,1621219740
94,17,15,Jits_Phase_8,2,1,48,40,1621255576
94,17,15,Jits_Phase_8,3,5,80,127,1621299440
94,17,15,Jits_Phase_8,4,5,56,103,1621320120
94,17,15,Jits_Phase_8,0,1,48,60,1622012388
94,17,15,Jits_Phase_8,1,5,56,103,1622060292
94,17,15,Jits_Phase_8,2,1,48,43,1622070696
94,17,15,Jits_Phase_8,3,5,63,98,1622071884
94,17,15,Jits_Phase_8,4,5,80,127,1622109504
94,17,15,Jits_Phase_8,0,5,56,103,1622780224
94,17,15,Jits_Phase_8,1,5,80,127,1622783292
94,17,15,Jits_Phase_8,2,1,48,57,1622828748
94,17,15,Jits_Phase_8,3,1,48,44,1622876880
94,17,15,Jits_Phase_8,4,5,63,98,1622919720
94,17,15,Jits_Phase_8,0,5,56,103,1623569756
94,17,15,Jits_Phase_8,1,1,48,54,1623611160
94,17,15,Jits_Phase_8,2,1,48,40,1623659792
94,17,15,Jits_Phase_8,3,5,63,98,1623661060
94,17,15,Jits_Phase_8,4,5,80,127,1623729492
94,17,15,Jits_Phase_8,0,1,48,52,1624399424
94,17,15,Jits_Phase_8,1,1,48,40,1624445544
94,17,15,Jits_Phase_8,2,5,63,98,1624450372
94,17,15,Jits_Phase_8,3,5,80,127,1624453760
94,17,15,Jits_Phase_8,4,5,56,103,1624510036
94,17,15,Jits_Phase_8,0,1,48,51,1625251008
94,17,15,Jits_Phase_8,1,5,80,127,1625289988
94,17,15,Jits_Phase_8,2,1,48,36,1625299688
94,17,15,Jits_Phase_8,3,5,56,103,1625309528
94,17,15,Jits_Phase_8,4,5,63,98,1625319872
94,17,15,Jits_Phase_8,0,5,56,103,1625999888
94,17,15,Jits_Phase_8,1,5,63,98,1626009936
94,17,15,Jits_Phase_8,2,1,48,57,1626032080
94,17,15,Jits_Phase_8,3,1,48,41,1626077544
94,17,15,Jits_Phase_8,4,5,80,127,1626079808
94,17,15,Jits_Phase_8,0,1,48,54,1626758000
94,17,15,Jits_Phase_8,1,5,80,127,1626799456
94,17,15,Jits_Phase_8,2,1,48,38,1626813048
94,17,15,Jits_Phase_8,3,5,56,103,1626849784
94,17,15,Jits_Phase_8,4,5,63,98,1626900060
94,17,15,Jits_Phase_8,0,1,48,50,1627575836
94,17,15,Jits_Phase_8,1,1,48,37,1627624516
94,17,15,Jits_Phase_8,2,5,56,103,1627679988
94,17,15,Jits_Phase_8,3,5,63,98,1627690260
94,17,15,Jits_Phase_8,4,5,80,127,1627730256
94,17,15,Jits_Phase_8,0,1,48,57,1628391752
94,17,15,Jits_Phase_8,1,5,56,103,1628419348
94,17,15,Jits_Phase_8,2,1,48,44,1628439312
94,17,15,Jits_Phase_8,3,5,63,98,1628460464
94,17,15,Jits_Phase_8,4,5,80,127,1628509544
94,17,15,Jits_Phase_8,0,1,48,57,1629140076
94,17,15,Jits_Phase_8,1,5,80,127,1629180180
94,17,15,Jits_Phase_8,2,1,48,44,1629187192
94,17,15,Jits_Phase_8,3,5,56,103,1629229316
94,17,15,Jits_Phase_8,4,5,63,98,1629249848
94,17,15,Jits_Phase_8,0,1,48,57,1629896540
94,17,15,Jits_Phase_8,1,1,48,43,1629937644
94,17,15,Jits_Phase_8,2,5,80,127,1629990132
94,17,15,Jits_Phase_8,3,5,63,98,1630049688
94,17,15,Jits_Phase_8,4,5,56,103,1630129652
94,17,15,Jits_Phase_8,0,1,48,51,1630744360
94,17,15,Jits_Phase_8,1,5,80,127,1630769496
94,17,15,Jits_Phase_8,2,1,48,36,1630788788
94,17,15,Jits_Phase_8,3,5,56,103,1630809488
94,17,15,Jits_Phase_8,4,5,63,98,1630829872
94,17,15,Jits_Phase_8,0,1,48,54,1631536120
94,17,15,Jits_Phase_8,1,1,48,39,1631587268
94,17,15,Jits_Phase_8,2,5,56,103,1631619376
94,17,15,Jits_Phase_8,3,5,80,127,1631629820
94,17,15,Jits_Phase_8,4,5,63,98,1631669832
94,17,15,Jits_Phase_8,0,1,48,47,1632402700
94,17,15,Jits_Phase_8,1,5,56,103,1632489936
94,17,15,Jits_Phase_8,2,5,63,98,1632530160
94,17,15,Jits_Phase_8,3,5,80,127,1632533296
94,17,15,Jits_Phase_8,0,5,63,98,1633159488
94,17,15,Jits_Phase_8,1,5,80,127,1633199576
94,17,15,Jits_Phase_8,2,5,56,103,1633270080
94,17,15,Jits_Phase_8,3,1,48,67,1633320468
94,17,15,Jits_Phase_8,4,1,48,41,1633362620
94,17,15,Jits_Phase_8,0,5,63,98,1633929684
94,17,15,Jits_Phase_8,1,1,48,48,1633955496
94,17,15,Jits_Phase_8,2,5,56,103,1634009400
94,17,15,Jits_Phase_8,3,5,80,127,1634069848
94,17,15,Jits_Phase_8,0,1,48,54,1634688480
94,17,15,Jits_Phase_8,1,1,48,39,1634735820
94,17,15,Jits_Phase_8,2,5,80,127,1634739748
94,17,15,Jits_Phase_8,3,5,63,98,1634789880
94,17,15,Jits_Phase_8,4,5,56,103,1634819552
94,17,15,Jits_Phase_8,0,1,48,58,1635521928
94,17,15,Jits_Phase_8,1,5,56,103,1635530044
94,17,15,Jits_Phase_8,2,5,63,98,1635580396
94,17,15,Jits_Phase_8,3,1,48,42,1635582840
94,17,15,Jits_Phase_8,4,5,80,127,1635589376
94,17,15,Jits_Phase_8,0,1,48,49,1636315108
94,17,15,Jits_Phase_8,1,5,56,103,1636340016
94,17,15,Jits_Phase_8,2,1,48,35,1636375104
94,17,15,Jits_Phase_8,3,5,63,98,1636449684
94,17,15,Jits_Phase_8,4,5,80,127,1636470052
94,17,15,Jits_Phase_8,0,5,63,98,1637139816
94,17,15,Jits_Phase_8,1,1,48,56,1637157756
94,17,15,Jits_Phase_8,2,5,80,127,1637190084
94,17,15,Jits_Phase_8,3,1,48,40,1637218068
94,17,15,Jits_Phase_8,4,5,56,103,1637280072
94,17,15,Jits_Phase_8,0,5,63,98,1637930316
94,17,15,Jits_Phase_8,1,5,80,127,1637959920
94,17,15,Jits_Phase_8,2,1,48,58,1637962660
94,17,15,Jits_Phase_8,3,1,48,43,1638005708
94,17,15,Jits_Phase_8,4,5,56,103,1638050120
94,17,15,Jits_Phase_8,0,5,63,98,1638730028
94,17,15,Jits_Phase_8,1,1,48,64,1638733072
94,17,15,Jits_Phase_8,2,5,56,103,1638740216
94,17,15,Jits_Phase_8,3,1,48,48,1638778988
94,17,15,Jits_Phase_8,4,5,80,127,1638839716
94,17,15,Jits_Phase_8,0,1,48,55,1639463092
94,17,15,Jits_Phase_8,1,1,48,42,1639513344
94,17,15,Jits_Phase_8,2,5,63,98,1639630108
94,17,15,Jits_Phase_8,3,5,80,127,1639659860
94,17,15,Jits_Phase_8,4,5,56,103,1639689608
94,17,15,Jits_Phase_8,0,1,48,51,1640434180
94,17,15,Jits_Phase_8,1,5,80,127,1640450692
94,17,15,Jits_Phase_8,2,5,63,98,1640459768
94,17,15,Jits_Phase_8,3,5,56,103,1640490264
94,17,15,Jits_Phase_8,0,5,80,127,1641149696
94,17,15,Jits_Phase_8,1,1,48,53,1641167564
94,17,15,Jits_Phase_8,2,5,63,98,1641170224
94,17,15,Jits_Phase_8,3,1,48,37,1641208616
94,17,15,Jits_Phase_8,4,5,56,103,1641219728
94,17,15,Jits_Phase_8,0,1,48,53,1641843416
94,17,15,Jits_Phase_8,1,1,48,38,1641887316
94,17,15,Jits_Phase_8,2,5,63,98,1641980256
94,17,15,Jits_Phase_8,3,5,80,127,1642039884
94,17,15,Jits_Phase_8,4,5,56,103,1642060044
94,17,15,Jits_Phase_8,0,1,48,54,1642699056
94,17,15,Jits_Phase_8,1,5,63,98,1642740060
94,17,15,Jits_Phase_8,2,1,48,37,1642753128
94,17,15,Jits_Phase_8,3,5,56,103,1642790312
94,17,15,Jits_Phase_8,4,5,80,127,1642799760
94,17,15,Jits_Phase_8,0,1,48,57,1643532548
94,17,15,Jits_Phase_8,1,5,56,103,1643569732
94,17,15,Jits_Phase_8,2,5,80,127,1643579632
94,17,15,Jits_Phase_8,3,1,48,44,1643591652
94,17,15,Jits_Phase_8,4,5,63,98,1643680028
94,17,15,Jits_Phase_8,0,5,80,127,1644330344
94,17,15,Jits_Phase_8,1,5,63,98,1644339644
94,17,15,Jits_Phase_8,2,1,48,52,1644355868
94,17,15,Jits_Phase_8,3,1,48,40,1644416600
94,17,15,Jits_Phase_8,4,5,56,103,1644490076
94,17,15,Jits_Phase_8,0,1,48,55,1645107788
94,17,15,Jits_Phase_8,1,5,63,98,1645140252
94,17,15,Jits_Phase_8,2,1,48,40,1645168760
94,17,15,Jits_Phase_8,3,5,80,127,1645180468
94,17,15,Jits_Phase_8,4,5,56,103,1645260272
94,17,15,Jits_Phase_8,0,5,56,103,1645889924
94,17,15,Jits_Phase_8,1,1,48,59,1645922340
94,17,15,Jits_Phase_8,2,1,48,44,1645976272
94,17,15,Jits_Phase_8,3,5,80,127,1645990244
94,17,15,Jits_Phase_8,4,5,63,98,1646009804
94,17,15,Jits_Phase_8,0,1,48,59,1646660860
94,17,15,Jits_Phase_8,1,1,48,46,1646707496
94,17,15,Jits_Phase_8,2,5,80,127,1646710084
94,17,15,Jits_Phase_8,3,5,56,103,1646720504
94,17,15,Jits_Phase_8,4,5,63,98,1646809668
94,17,15,Jits_Phase_8,0,1,48,51,1647486184
94,17,15,Jits_Phase_8,1,5,56,103,1647509772
94,17,15,Jits_Phase_8,2,5,63,98,1647530600
94,17,15,Jits_Phase_8,3,1,48,38,1647539708
94,17,15,Jits_Phase_8,4,5,80,127,1647610148
94,17,15,Jits_Phase_8,0,5,63,98,1648259744
94,17,15,Jits_Phase_8,1,1,48,62,1648274248
94,17,15,Jits_Phase_8,2,1,48,48,1648323000
94,17,15,Jits_Phase_8,3,5,56,103,1648349624
94,17,15,Jits_Phase_8,4,5,80,127,1648352768
94,17,15,Jits_Phase_8,0,1,48,57,1649026860
94,17,15,Jits_Phase_8,1,1,48,44,1649079824
94,17,15,Jits_Phase_8,2,5,56,103,1649090036
94,17,15,Jits_Phase_8,3,5,80,127,1649150280
94,17,15,Jits_Phase_8,4,5,63,98,1649159652
94,17,15,Jits_Phase_8,0,1,48,50,1649833996
94,17,15,Jits_Phase_8,1,1,48,37,1649886488
94,17,15,Jits_Phase_8,2,5,80,127,1649939868
94,17,15,Jits_Phase_8,3,5,56,103,1649950064
94,17,15,Jits_Phase_8,4,5,63,98,1649953352
94,17,15,Jits_Phase_8,0,5,56,103,1650699596
94,17,15,Jits_Phase_8,1,5,80,127,1650709864
94,17,15,Jits_Phase_8,2,1,48,53,1650714552
94,17,15,Jits_Phase_8,3,5,63,98,1650730316
94,17,15,Jits_Phase_8,4,1,48,40,1650769608
94,17,15,Jits_Phase_8,0,1,48,60,1651462276
94,17,15,Jits_Phase_8,1,5,63,98,1651469644
94,17,15,Jits_Phase_8,2,1,48,43,1651509760
94,17,15,Jits_Phase_8,3,5,80,127,1651530088
94,17,15,Jits_Phase_8,4,5,56,103,1651580288
94,17,15,Jits_Phase_8,0,1,48,54,1652303116
94,17,15,Jits_Phase_8,1,1,48,40,1652348512
94,17,15,Jits_Phase_8,2,5,63,98,1652350324
94,17,15,Jits_Phase_8,3,5,56,103,1652359648
94,17,15,Jits_Phase_8,4,5,80,127,1652409700
94,17,15,Jits_Phase_8,0,5,63,98,1653049604
94,17,15,Jits_Phase_8,1,5,80,127,1653070288
94,17,15,Jits_Phase_8,2,5,56,103,1653080856
94,17,15,Jits_Phase_8,3,1,48,54,1653099412
94,17,15,Jits_Phase_8,4,1,48,43,1653151404
94,17,15,Jits_Phase_8,0,1,48,53,1653778704
94,17,15,Jits_Phase_8,1,1,48,37,1653826168
94,17,15,Jits_Phase_8,2,5,63,98,1653849576
94,17,15,Jits_Phase_8,3,5,80,127,1653852644
94,17,15,Jits_Phase_8,4,5,56,103,1653890416
94,17,15,Jits_Phase_8,0,1,48,42,1654518456
94,17,15,Jits_Phase_8,1,1,48,33,1654577008
94,17,15,Jits_Phase_8,2,5,63,98,1654719708
94,17,15,Jits_Phase_8,3,5,80,127,1654749980
94,17,15,Jits_Phase_8,4,5,56,103,1654759728
94,17,15,Jits_Phase_8,0,1,48,52,1655433120
94,17,15,Jits_Phase_8,1,5,56,103,1655469412
94,17,15,Jits_Phase_8,2,1,48,35,1655473040
94,17,15,Jits_Phase_8,3,5,80,127,1655500336
94,17,15,Jits_Phase_8,4,5,63,98,1655529788
94,17,15,Jits_Phase_8,0,1,48,49,1656281972
94,17,15,Jits_Phase_8,1,5,63,98,1656369512
94,17,15,Jits_Phase_8,2,5,56,103,1656409584
94,17,15,Jits_Phase_8,3,5,80,127,1656412576
94,17,15,Jits_Phase_8,0,5,80,127,1657069856
94,17,15,Jits_Phase_8,1,5,56,103,1657149724
94,17,15,Jits_Phase_8,2,1,48,47,1657158772
94,17,15,Jits_Phase_8,3,1,48,35,1657194396
94,17,15,Jits_Phase_8,4,5,63,98,1657199972
94,17,15,Jits_Phase_8,0,1,48,49,1657842572
94,17,15,Jits_Phase_8,1,5,80,127,1657850244
94,17,15,Jits_Phase_8,2,5,56,103,1657869656
94,17,15,Jits_Phase_8,3,1,48,30,1657909776
94,17,15,Jits_Phase_8,4,5,63,98,1657959916
94,17,15,Jits_Phase_8,0,1,48,52,1658657260
94,17,15,Jits_Phase_8,1,5,80,127,1658689812
94,17,15,Jits_Phase_8,2,5,63,98,1658729752
94,17,15,Jits_Phase_8,3,1,48,30,1658737492
94,17,15,Jits_Phase_8,4,5,56,103,1658769844
94,17,15,Jits_Phase_8,0,1,48,50,1659491900
94,17,15,Jits_Phase_8,1,5,63,98,1659500016
94,17,15,Jits_Phase_8,2,5,80,127,1659560284
94,17,15,Jits_Phase_8,3,1,48,32,1659564808
94,17,15,Jits_Phase_8,4,5,56,103,1659590084
94,17,15,Jits_Phase_8,0,5,56,103,1660339616
94,17,15,Jits_Phase_8,1,1,48,50,1660364908
94,17,15,Jits_Phase_8,2,5,80,127,1660370256
94,17,15,Jits_Phase_8,3,1,48,32,1660418840
94,17,15,Jits_Phase_8,4,5,63,98,1660460516
94,17,15,Jits_Phase_8,0,1,48,54,1661131664
94,17,15,Jits_Phase_8,1,5,56,103,1661149672
94,17,15,Jits_Phase_8,2,1,48,29,1661222452
94,17,15,Jits_Phase_8,3,5,80,127,1661260016
94,17,15,Jits_Phase_8,4,5,63,98,1661289912
94,17,15,Jits_Phase_8,0,1,48,60,1661926352
94,17,15,Jits_Phase_8,1,1,48,41,1661971748
94,17,15,Jits_Phase_8,2,5,56,103,1661999568
94,17,15,Jits_Phase_8,3,5,63,98,1662059960
94,17,15,Jits_Phase_8,4,5,80,127,1662089716
94,17,15,Jits_Phase_8,0,5,56,103,1662769648
94,17,15,Jits_Phase_8,1,1,48,62,1662831576
94,17,15,Jits_Phase_8,2,5,63,98,1662840296
94,17,15,Jits_Phase_8,3,5,80,127,1662859656
94,17,15,Jits_Phase_8,4,1,48,40,1662873772
94,17,15,Jits_Phase_8,0,5,80,127,1663539484
94,17,15,Jits_Phase_8,1,5,63,98,1663560096
94,17,15,Jits_Phase_8,2,1,48,48,1663603892
94,17,15,Jits_Phase_8,3,5,56,103,1663610512
94,17,15,Jits_Phase_8,0,1,48,57,1664276648
94,17,15,Jits_Phase_8,1,1,48,36,1664325852
94,17,15,Jits_Phase_8,2,5,63,98,1664359752
94,17,15,Jits_Phase_8,3,5,80,127,1664370096
94,17,15,Jits_Phase_8,4,5,56,103,1664420472
94,17,15,Jits_Phase_8,0,1,48,56,1665063624
94,17,15,Jits_Phase_8,1,1,48,37,1665100620
94,17,15,Jits_Phase_8,2,5,63,98,1665159560
94,17,15,Jits_Phase_8,3,5,80,127,1665230500
94,17,15,Jits_Phase_8,4,5,56,103,1665249688
94,17,15,Jits_Phase_8,0,1,48,57,1665902004
94,17,15,Jits_Phase_8,1,1,48,35,1665948092
94,17,15,Jits_Phase_8,2,5,63,98,1665990440
94,17,15,Jits_Phase_8,3,5,80,127,1665993652
94,17,15,Jits_Phase_8,4,5,56,103,1666059508
94,17,15,Jits_Phase_8,0,1,48,59,1666689356
94,17,15,Jits_Phase_8,1,5,80,127,1666739452
94,17,15,Jits_Phase_8,2,1,48,40,1666743900
94,17,15,Jits_Phase_8,3,5,56,103,1666760036
94,17,15,Jits_Phase_8,4,5,63,98,1666770456
94,17,15,Jits_Phase_8,0,1,48,55,1667470048
94,17,15,Jits_Phase_8,1,1,48,35,1667528096
94,17,15,Jits_Phase_8,2,5,56,103,1667559884
94,17,15,Jits_Phase_8,3,5,63,98,1667649856
94,17,15,Jits_Phase_8,4,5,80,127,1667653144
94,17,15,Jits_Phase_8,0,1,48,53,1668225592
94,17,15,Jits_Phase_8,1,1,48,35,1668281048
94,17,15,Jits_Phase_8,2,5,80,127,1668329772
94,17,15,Jits_Phase_8,3,5,56,103,1668340192
94,17,15,Jits_Phase_8,4,5,63,98,1668359528
94,17,15,Jits_Phase_8,0,1,48,52,1669037400
94,17,15,Jits_Phase_8,1,1,48,35,1669098360
94,17,15,Jits_Phase_8,2,5,63,98,1669129624
94,17,15,Jits_Phase_8,3,5,80,127,1669190016
94,17,15,Jits_Phase_8,4,5,56,103,1669200348
94,17,15,Jits_Phase_8,0,1,48,54,1669845260
94,17,15,Jits_Phase_8,1,1,48,35,1669921592
94,17,15,Jits_Phase_8,2,5,63,98,1669999840
94,17,15,Jits_Phase_8,3,5,80,127,1670029676
94,17,15,Jits_Phase_8,4,5,56,103,1670069612
94,17,15,Jits_Phase_8,0,1,48,48,1670716604
94,17,15,Jits_Phase_8,1,1,48,31,1670773748
94,17,15,Jits_Phase_8,2,5,56,103,1670789540
94,17,15,Jits_Phase_8,3,5,80,127,1670799812
94,17,15,Jits_Phase_8,4,5,63,98,1670839524
94,17,15,Jits_Phase_8,0,1,48,48,1671498876
94,17,15,Jits_Phase_8,1,5,80,127,1671550588
94,17,15,Jits_Phase_8,2,1,48,30,1671553992
94,17,15,Jits_Phase_8,3,5,56,103,1671630364
94,17,15,Jits_Phase_8,4,5,63,98,1671640412
94,17,15,Jits_Phase_8,0,1,48,47,1672379728
94,17,15,Jits_Phase_8,1,5,80,127,1672400352
94,17,15,Jits_Phase_8,2,5,56,103,1672480136
94,17,15,Jits_Phase_8,3,5,63,98,1672490552
94,17,15,Jits_Phase_8,0,5,80,127,1673239836
94,17,15,Jits_Phase_8,1,1,48,52,1673241176
94,17,15,Jits_Phase_8,2,5,56,103,1673289960
94,17,15,Jits_Phase_8,3,5,63,98,1673340308
94,17,15,Jits_Phase_8,0,1,48,54,1674025324
94,17,15,Jits_Phase_8,1,5,56,103,1674179848
94,17,15,Jits_Phase_8,2,5,63,98,1674183296
94,17,15,Jits_Phase_8,3,5,80,127,1674229980
94,17,15,Jits_Phase_8,0,1,48,54,1674904824
94,17,15,Jits_Phase_8,1,1,48,36,1674950884
94,17,15,Jits_Phase_8,2,5,56,103,1675000428
94,17,15,Jits_Phase_8,3,5,63,98,1675029884
94,17,15,Jits_Phase_8,4,5,80,127,1675040228
94,17,15,Jits_Phase_8,0,5,63,98,1675709828
94,17,15,Jits_Phase_8,1,1,48,65,1675751232
94,17,15,Jits_Phase_8,2,5,56,103,1675779428
94,17,15,Jits_Phase_8,3,1,48,46,1675809352
94,17,15,Jits_Phase_8,4,5,80,127,1675829604
94,17,15,Jits_Phase_8,0,1,48,53,1676421848
94,17,15,Jits_Phase_8,1,1,48,37,1676464076
94,17,15,Jits_Phase_8,2,5,63,98,1676540304
94,17,15,Jits_Phase_8,3,5,56,103,1676549452
94,17,15,Jits_Phase_8,4,5,80,127,1676552668
94,17,15,Jits_Phase_8,0,1,48,55,1677204012
94,17,15,Jits_Phase_8,1,1,48,35,1677258316
94,17,15,Jits_Phase_8,2,5,80,127,1677289956
94,17,15,Jits_Phase_8,3,5,56,103,1677350704
94,17,15,Jits_Phase_8,4,5,63,98,1677440464
94,17,15,Jits_Phase_8,0,1,48,45,1678068316
94,17,15,Jits_Phase_8,1,5,80,127,1678089616
94,17,15,Jits_Phase_8,2,5,56,103,1678190000
94,17,15,Jits_Phase_8,3,5,63,98,1678229736
94,17,15,Jits_Phase_8,0,1,48,47,1678794116
94,17,15,Jits_Phase_8,1,5,56,103,1678939480
94,17,15,Jits_Phase_8,2,5,63,98,1678959940
94,17,15,Jits_Phase_8,3,5,80,127,1678999828
94,17,15,Jits_Phase_8,0,1,48,52,1679607428
94,17,15,Jits_Phase_8,1,1,48,32,1679659716
94,17,15,Jits_Phase_8,2,5,63,98,1679709488
94,17,15,Jits_Phase_8,3,5,56,103,1679729948
94,17,15,Jits_Phase_8,4,5,80,127,1679830576
94,17,15,Jits_Phase_8,0,1,48,51,1680421828
94,17,15,Jits_Phase_8,1,5,63,98,1680500376
94,17,15,Jits_Phase_8,2,5,80,127,1680609628
94,17,15,Jits_Phase_8,3,5,56,103,1680640424
94,17,15,Jits_Phase_8,0,1,48,57,1681308228
94,17,15,Jits_Phase_8,1,5,56,103,1681320460
94,17,15,Jits_Phase_8,2,1,48,38,1681342524
94,17,15,Jits_Phase_8,3,5,63,98,1681349968
94,17,15,Jits_Phase_8,4,5,80,127,1681400392
94,17,15,Jits_Phase_8,0,1,48,50,1681957676
94,17,15,Jits_Phase_8,1,5,63,98,1682090336
94,17,15,Jits_Phase_8,2,5,56,103,1682120236
94,17,15,Jits_Phase_8,3,5,80,127,1682170360
94,17,15,Jits_Phase_8,0,1,48,43,1682877248
94,17,15,Jits_Phase_8,1,5,56,103,1682919996
94,17,15,Jits_Phase_8,2,5,63,98,1682940380
94,17,15,Jits_Phase_8,3,5,80,127,1683020380
94,17,15,Jits_Phase_8,0,5,63,98,1683689864
94,17,15,Jits_Phase_8,1,1,48,42,1683739888
94,17,15,Jits_Phase_8,2,5,56,103,1683750248
94,17,15,Jits_Phase_8,3,5,80,127,1683780072
94,17,15,Jits_Phase_8,0,1,48,48,1684523668
94,17,15,Jits_Phase_8,1,5,56,103,1684529468
94,17,15,Jits_Phase_8,2,5,80,127,1684589860
94,17,15,Jits_Phase_8,3,5,63,98,1684629808
94,17,15,Jits_Phase_8,0,5,63,98,1685309900
94,17,15,Jits_Phase_8,1,5,56,103,1685370364
94,17,15,Jits_Phase_8,2,1,48,54,1685372964
94,17,15,Jits_Phase_8,3,5,80,127,1685439840
94,17,15,Jits_Phase_8,0,1,48,53,1686004428
94,17,15,Jits_Phase_8,1,5,56,103,1686189528
94,17,15,Jits_Phase_8,2,5,63,98,1686199796
94,17,15,Jits_Phase_8,3,5,80,127,1686203236
94,17,15,Jits_Phase_8,0,1,48,54,1686776452
94,17,15,Jits_Phase_8,1,1,48,34,1686831880
94,17,15,Jits_Phase_8,2,5,63,98,1686929636
94,17,15,Jits_Phase_8,3,5,56,103,1686990304
94,17,15,Jits_Phase_8,4,5,80,127,1686993300
94,17,15,Jits_Phase_8,0,5,63,98,1687710404
94,17,15,Jits_Phase_8,1,5,80,127,1687739784
94,17,15,Jits_Phase_8,2,5,56,103,1687760388
94,17,15,Jits_Phase_8,3,1,48,50,1687779996
94,17,15,Jits_Phase_8,4,1,48,33,1687829644
94,17,15,Jits_Phase_8,0,5,56,103,1688440188
94,17,15,Jits_Phase_8,1,5,63,98,1688490344
94,17,15,Jits_Phase_8,2,1,48,36,1688533392
94,17,15,Jits_Phase_8,3,5,80,127,1688570276
94,17,15,Jits_Phase_8,0,5,80,127,1689139428
94,17,15,Jits_Phase_8,1,5,63,98,1689179444
94,17,15,Jits_Phase_8,2,1,48,56,1689186748
94,17,15,Jits_Phase_8,3,5,56,103,1689200192
94,17,15,Jits_Phase_8,4,1,48,35,1689246612
94,17,15,Jits_Phase_8,0,1,48,38,1689886960
94,17,15,Jits_Phase_8,1,1,48,19,1689959176
94,17,15,Jits_Phase_8,2,5,56,103,1690010392
94,17,15,Jits_Phase_8,3,5,80,127,1690020364
94,17,15,Jits_Phase_8,4,5,63,98,1690039628
94,17,15,Jits_Phase_8,0,1,48,53,1690706152
94,17,15,Jits_Phase_8,1,5,56,103,1690790348
94,17,15,Jits_Phase_8,2,1,48,26,1690813156
94,17,15,Jits_Phase_8,3,5,63,98,1690840456
94,17,15,Jits_Phase_8,4,5,80,127,1690870204
94,17,15,Jits_Phase_8,0,1,48,66,1691525972
94,17,15,Jits_Phase_8,1,5,56,103,1691539796
94,17,15,Jits_Phase_8,2,5,63,98,1691550068
94,17,15,Jits_Phase_8,3,5,80,127,1691600116
94,17,15,Jits_Phase_8,0,1,48,49,1692238500
94,17,15,Jits_Phase_8,1,1,48,24,1692308928
94,17,15,Jits_Phase_8,2,5,56,103,1692330300
94,17,15,Jits_Phase_8,3,5,80,127,1692333516
94,17,15,Jits_Phase_8,4,5,63,98,1692490164
94,17,15,Jits_Phase_8,0,1,48,51,1693070812
94,17,15,Jits_Phase_8,1,5,63,98,1693149656
94,17,15,Jits_Phase_8,2,1,48,31,1693155828
94,17,15,Jits_Phase_8,3,5,56,103,1693220288
94,17,15,Jits_Phase_8,4,5,80,127,1693260212
94,17,15,Jits_Phase_8,0,1,48,54,1693796988
94,17,15,Jits_Phase_8,1,1,48,29,1693871848
94,17,15,Jits_Phase_8,2,5,63,98,1693990240
94,17,15,Jits_Phase_8,3,5,56,103,1694080300
94,17,15,Jits_Phase_8,4,5,80,127,1694083392
94,17,15,Jits_Phase_8,0,1,48,45,1694511524
94,17,15,Jits_Phase_8,1,1,48,29,1694572484
94,17,15,Jits_Phase_8,2,5,56,103,1694769420
94,17,15,Jits_Phase_8,3,5,63,98,1694859508
94,17,15,Jits_Phase_8,4,5,80,127,1694869852
94,17,15,Jits_Phase_8,0,1,48,39,1695300976
94,17,15,Jits_Phase_8,1,1,48,23,1695359024
94,17,15,Jits_Phase_8,2,5,56,103,1695539544
94,17,15,Jits_Phase_8,3,5,63,98,1695589820
94,17,15,Jits_Phase_8,4,5,80,127,1695619520
94,17,15,Jits_Phase_8,0,1,48,50,1696158628
94,17,15,Jits_Phase_8,1,1,48,32,1696219068
94,17,15,Jits_Phase_8,2,5,63,98,1696420196
94,17,15,Jits_Phase_8,3,5,80,127,1696429420
94,17,15,Jits_Phase_8,4,5,56,103,1696489956
94,17,15,Jits_Phase_8,0,5,63,98,1697140140
94,17,15,Jits_Phase_8,1,5,80,127,1697199508
94,17,15,Jits_Phase_8,2,5,56,103,1697240420
94,17,15,Jits_Phase_8,0,1,48,45,1697928016
94,17,15,Jits_Phase_8,1,5,56,103,1698040256
94,17,15,Jits_Phase_8,2,5,80,127,1698059668
94,17,15,Jits_Phase_8,3,5,63,98,1698080052
94,17,15,Jits_Phase_8,0,5,63,98,1698760172
94,17,15,Jits_Phase_8,1,1,48,49,1698766208
94,17,15,Jits_Phase_8,2,5,56,103,1698779428
94,17,15,Jits_Phase_8,3,5,80,127,1698819292
94,17,15,Jits_Phase_8,0,1,48,52,1699459800
94,17,15,Jits_Phase_8,1,1,48,39,1699497748
94,17,15,Jits_Phase_8,2,5,63,98,1699570088
94,17,15,Jits_Phase_8,3,5,80,127,1699599676
94,17,15,Jits_Phase_8,4,5,56,103,1699620280
94,17,15,Jits_Phase_8,0,1,48,59,1700259808
94,17,15,Jits_Phase_8,1,1,48,41,1700304136
94,17,15,Jits_Phase_8,2,5,80,127,1700340204
94,17,15,Jits_Phase_8,3,5,56,103,1700390184
94,17,15,Jits_Phase_8,4,5,63,98,1700449512
94,17,15,Jits_Phase_8,0,1,48,44,1701077488
94,17,15,Jits_Phase_8,1,5,63,98,1701129596
94,17,15,Jits_Phase_8,2,5,56,103,1701250384
94,17,15,Jits_Phase_8,3,5,80,127,1701280204
94,17,15,Jits_Phase_8,0,1,48,45,1701917180
94,17,15,Jits_Phase_8,1,5,80,127,1701970336
94,17,15,Jits_Phase_8,2,5,63,98,1701989676
94,17,15,Jits_Phase_8,3,5,56,103,1702060336
94,17,15,Jits_Phase_8,0,1,48,54,1702758612
94,17,15,Jits_Phase_8,1,5,63,98,1702789452
94,17,15,Jits_Phase_8,2,5,56,103,1702799648
94,17,15,Jits_Phase_8,3,1,48,35,1702815328
94,17,15,Jits_Phase_8,4,5,80,127,1702879716
94,17,15,Jits_Phase_8,0,1,48,50,1703486608
94,17,15,Jits_Phase_8,1,1,48,32,1703552004
94,17,15,Jits_Phase_8,2,5,56,103,1703649588
94,17,15,Jits_Phase_8,3,5,80,127,1703680460
94,17,15,Jits_Phase_8,4,5,63,98,1703689536
94,17,15,Jits_Phase_8,0,9999,9999,9999,1568808012
94,17,15,Jits_Phase_8,1,9999,9999,9999,1569607808
94,17,15,Jits_Phase_8,2,9999,9999,9999,1570407544
94,17,15,Jits_Phase_8,3,9999,9999,9999,1571207232
94,17,15,Jits_Phase_8,4,9999,9999,9999,1572008040
94,17,15,Jits_Phase_8,5,9999,9999,9999,1572807760
94,17,15,Jits_Phase_8,6,9999,9999,9999,1573607548
94,17,15,Jits_Phase_8,7,9999,9999,9999,1574407276
94,17,15,Jits_Phase_8,8,9999,9999,9999,1575208040
94,17,15,Jits_Phase_8,9,9999,9999,9999,1576007740
94,17,15,Jits_Phase_8,10,9999,9999,9999,1576807536
94,17,15,Jits_Phase_8,11,9999,9999,9999,1577607276
94,17,15,Jits_Phase_8,12,9999,9999,9999,1578408040
94,17,15,Jits_Phase_8,13,9999,9999,9999,1579207752
94,17,15,Jits_Phase_8,14,9999,9999,9999,1580007528
94,17,15,Jits_Phase_8,15,9999,9999,9999,1580807236
94,17,15,Jits_Phase_8,16,9999,9999,9999,1581608056
94,17,15,Jits_Phase_8,17,9999,9999,9999,1582407788
94,17,15,Jits_Phase_8,18,9999,9999,9999,1583207508
94,17,15,Jits_Phase_8,19,9999,9999,9999,1584007248
94,17,15,Jits_Phase_8,20,9999,9999,9999,1584808004
94,17,15,Jits_Phase_8,21,9999,9999,9999,1585607792
94,17,15,Jits_Phase_8,22,9999,9999,9999,1586407504
94,17,15,Jits_Phase_8,23,9999,9999,9999,1587207292
94,17,15,Jits_Phase_8,24,9999,9999,9999,1588008052
94,17,15,Jits_Phase_8,25,9999,9999,9999,1588807764
94,17,15,Jits_Phase_8,26,9999,9999,9999,1589607480
94,17,15,Jits_Phase_8,27,9999,9999,9999,1590407220
94,17,15,Jits_Phase_8,28,9999,9999,9999,1591207992
94,17,15,Jits_Phase_8,29,9999,9999,9999,1592007804
94,17,15,Jits_Phase_8,30,9999,9999,9999,1592788036
94,17,15,Jits_Phase_8,31,9999,9999,9999,1593587824
94,17,15,Jits_Phase_8,32,9999,9999,9999,1594387560
94,17,15,Jits_Phase_8,33,9999,9999,9999,1595187288
94,17,15,Jits_Phase_8,34,9999,9999,9999,1595988064
94,17,15,Jits_Phase_8,35,9999,9999,9999,1596787784
94,17,15,Jits_Phase_8,36,9999,9999,9999,1597587536
94,17,15,Jits_Phase_8,37,9999,9999,9999,1598387328
94,17,15,Jits_Phase_8,38,9999,9999,9999,1599188024
94,17,15,Jits_Phase_8,39,9999,9999,9999,1599987832
94,17,15,Jits_Phase_8,40,9999,9999,9999,1600787572
94,17,15,Jits_Phase_8,41,9999,9999,9999,1601587308
94,17,15,Jits_Phase_8,42,9999,9999,9999,1602388064
94,17,15,Jits_Phase_8,43,9999,9999,9999,1603187776
94,17,15,Jits_Phase_8,44,9999,9999,9999,1603987572
94,17,15,Jits_Phase_8,45,9999,9999,9999,1604787284
94,17,15,Jits_Phase_8,46,9999,9999,9999,1605588048
94,17,15,Jits_Phase_8,47,9999,9999,9999,1606387776
94,17,15,Jits_Phase_8,48,9999,9999,9999,1607208040
94,17,15,Jits_Phase_8,49,9999,9999,9999,1608007768
94,17,15,Jits_Phase_8,50,9999,9999,9999,1608807504
94,17,15,Jits_Phase_8,51,9999,9999,9999,1609607260
94,17,15,Jits_Phase_8,52,9999,9999,9999,1610408044
94,17,15,Jits_Phase_8,53,9999,9999,9999,1611207764
94,17,15,Jits_Phase_8,54,9999,9999,9999,1612007488
94,17,15,Jits_Phase_8,55,9999,9999,9999,1612807236
94,17,15,Jits_Phase_8,56,9999,9999,9999,1613607992
94,17,15,Jits_Phase_8,57,9999,9999,9999,1614407784
94,17,15,Jits_Phase_8,58,9999,9999,9999,1615207496
94,17,15,Jits_Phase_8,59,9999,9999,9999,1616007232
94,17,15,Jits_Phase_8,60,9999,9999,9999,1616808004
94,17,15,Jits_Phase_8,61,9999,9999,9999,1617607796
94,17,15,Jits_Phase_8,62,9999,9999,9999,1618407512
94,17,15,Jits_Phase_8,63,9999,9999,9999,1619207292
94,17,15,Jits_Phase_8,64,9999,9999,9999,1620047932
94,17,15,Jits_Phase_8,65,9999,9999,9999,1620847728
94,17,15,Jits_Phase_8,66,9999,9999,9999,1621647412
94,17,15,Jits_Phase_8,67,9999,9999,9999,1622447208
94,17,15,Jits_Phase_8,68,9999,9999,9999,1623247960
94,17,15,Jits_Phase_8,69,9999,9999,9999,1624047692
94,17,15,Jits_Phase_8,70,9999,9999,9999,1624847416
94,17,15,Jits_Phase_8,71,9999,9999,9999,1625647216
94,17,15,Jits_Phase_8,72,9999,9999,9999,1626447976
94,17,15,Jits_Phase_8,73,9999,9999,9999,1627247704
94,17,15,Jits_Phase_8,74,9999,9999,9999,1628047452
94,17,15,Jits_Phase_8,75,9999,9999,9999,1628847172
94,17,15,Jits_Phase_8,76,9999,9999,9999,1629647928
94,17,15,Jits_Phase_8,77,9999,9999,9999,1630447720
94,17,15,Jits_Phase_8,78,9999,9999,9999,1631247428
94,17,15,Jits_Phase_8,79,9999,9999,9999,1632047216
94,17,15,Jits_Phase_8,80,9999,9999,9999,1632848000
94,17,15,Jits_Phase_8,81,9999,9999,9999,1633607804
94,17,15,Jits_Phase_8,82,9999,9999,9999,1634407540
94,17,15,Jits_Phase_8,83,9999,9999,9999,1635207224
94,17,15,Jits_Phase_8,84,9999,9999,9999,1636008056
94,17,15,Jits_Phase_8,85,9999,9999,9999,1636807768
94,17,15,Jits_Phase_8,86,9999,9999,9999,1637607488
94,17,15,Jits_Phase_8,87,9999,9999,9999,1638407276
94,17,15,Jits_Phase_8,88,9999,9999,9999,1639208032
94,17,15,Jits_Phase_8,89,9999,9999,9999,1640007752
94,17,15,Jits_Phase_8,90,9999,9999,9999,1640807492
94,17,15,Jits_Phase_8,91,9999,9999,9999,1641607248
94,17,15,Jits_Phase_8,92,9999,9999,9999,1642408024
94,17,15,Jits_Phase_8,93,9999,9999,9999,1643207804
94,17,15,Jits_Phase_8,94,9999,9999,9999,1644007520
94,17,15,Jits_Phase_8,95,9999,9999,9999,1644807228
94,17,15,Jits_Phase_8,96,9999,9999,9999,1645608004
94,17,15,Jits_Phase_8,97,9999,9999,9999,1646327928
94,17,15,Jits_Phase_8,98,9999,9999,9999,1647127660
94,17,15,Jits_Phase_8,99,9999,9999,9999,1647927376
94,17,15,Jits_Phase_8,100,9999,9999,9999,1648727156
94,17,15,Jits_Phase_8,101,9999,9999,9999,1649527892
94,17,15,Jits_Phase_8,102,9999,9999,9999,1650327616
94,17,15,Jits_Phase_8,103,9999,9999,9999,1651127404
94,17,15,Jits_Phase_8,104,9999,9999,9999,1651927132
94,17,15,Jits_Phase_8,105,9999,9999,9999,1652727896
94,17,15,Jits_Phase_8,106,9999,9999,9999,1653527604
94,17,15,Jits_Phase_8,107,9999,9999,9999,1654327372
94,17,15,Jits_Phase_8,108,9999,9999,9999,1655127160
94,17,15,Jits_Phase_8,109,9999,9999,9999,1655927920
94,17,15,Jits_Phase_8,110,9999,9999,9999,1656727672
94,17,15,Jits_Phase_8,111,9999,9999,9999,1657527412
94,17,15,Jits_Phase_8,112,9999,9999,9999,1658327132
94,17,15,Jits_Phase_8,113,9999,9999,9999,1659127896
94,17,15,Jits_Phase_8,114,9999,9999,9999,1660007544
94,17,15,Jits_Phase_8,115,9999,9999,9999,1660807284
94,17,15,Jits_Phase_8,116,9999,9999,9999,1661608064
94,17,15,Jits_Phase_8,117,9999,9999,9999,1662407784
94,17,15,Jits_Phase_8,118,9999,9999,9999,1663207500
94,17,15,Jits_Phase_8,119,9999,9999,9999,1664007248
94,17,15,Jits_Phase_8,120,9999,9999,9999,1664808044
94,17,15,Jits_Phase_8,121,9999,9999,9999,1665607756
94,17,15,Jits_Phase_8,122,9999,9999,9999,1666407536
94,17,15,Jits_Phase_8,123,9999,9999,9999,1667207268
94,17,15,Jits_Phase_8,124,9999,9999,9999,1668008024
94,17,15,Jits_Phase_8,125,9999,9999,9999,1668807800
94,17,15,Jits_Phase_8,126,9999,9999,9999,1669607508
94,17,15,Jits_Phase_8,127,9999,9999,9999,1670407232
94,17,15,Jits_Phase_8,128,9999,9999,9999,1671207988
94,17,15,Jits_Phase_8,129,9999,9999,9999,1672007756
94,17,15,Jits_Phase_8,130,9999,9999,9999,1672807496
94,17,15,Jits_Phase_8,131,9999,9999,9999,1673768052
94,17,15,Jits_Phase_8,132,9999,9999,9999,1674567748
94,17,15,Jits_Phase_8,133,9999,9999,9999,1675367492
94,17,15,Jits_Phase_8,134,9999,9999,9999,1676167236
94,17,15,Jits_Phase_8,135,9999,9999,9999,1676968056
94,17,15,Jits_Phase_8,136,9999,9999,9999,1677767768
94,17,15,Jits_Phase_8,137,9999,9999,9999,1678567504
94,17,15,Jits_Phase_8,138,9999,9999,9999,1679367264
94,17,15,Jits_Phase_8,139,9999,9999,9999,1680168044
94,17,15,Jits_Phase_8,140,9999,9999,9999,1680967780
94,17,15,Jits_Phase_8,141,9999,9999,9999,1681767512
94,17,15,Jits_Phase_8,142,9999,9999,9999,1682567260
94,17,15,Jits_Phase_8,143,9999,9999,9999,1683368060
94,17,15,Jits_Phase_8,144,9999,9999,9999,1684167740
94,17,15,Jits_Phase_8,145,9999,9999,9999,1684967500
94,17,15,Jits_Phase_8,146,9999,9999,9999,1685767256
94,17,15,Jits_Phase_8,147,9999,9999,9999,1686568052
94,17,15,Jits_Phase_8,148,9999,9999,9999,1687367776
94,17,15,Jits_Phase_8,149,9999,9999,9999,1688167484
94,17,15,Jits_Phase_8,150,9999,9999,9999,1688807500
94,17,15,Jits_Phase_8,151,9999,9999,9999,1689607244
94,17,15,Jits_Phase_8,152,9999,9999,9999,1690408020
94,17,15,Jits_Phase_8,153,9999,9999,9999,1691207736
94,17,15,Jits_Phase_8,154,9999,9999,9999,1692007536
94,17,15,Jits_Phase_8,155,9999,9999,9999,1692807284
94,17,15,Jits_Phase_8,156,9999,9999,9999,1693608044
94,17,15,Jits_Phase_8,157,9999,9999,9999,1694407756
94,17,15,Jits_Phase_8,158,9999,9999,9999,1695207544
94,17,15,Jits_Phase_8,159,9999,9999,9999,1696007256
94,17,15,Jits_Phase_8,160,9999,9999,9999,1696808024
94,17,15,Jits_Phase_8,161,9999,9999,9999,1697607776
94,17,15,Jits_Phase_8,162,9999,9999,9999,1698407484
94,17,15,Jits_Phase_8,163,9999,9999,9999,1699207260
94,17,15,Jits_Phase_8,164,9999,9999,9999,1700008040
94,17,15,Jits_Phase_8,165,9999,9999,9999,1700807752
94,17,15,Jits_Phase_8,166,9999,9999,9999,1701607488
94,17,15,Jits_Phase_8,167,9999,9999,9999,1702407244
94,17,15,Jits_Phase_8,168,9999,9999,9999,1703208028
94,17,15,Jits_Phase_8,169,9999,9999,9999,1704007752
94,18,19,Jits_Linear_5,0,5,56,103,1712530908
94,18,19,Jits_Linear_5,1,5,63,98,1712534156
94,18,19,Jits_Linear_5,2,5,80,127,1712537128
94,18,19,Jits_Linear_5,0,5,56,103,1713011120
94,18,19,Jits_Linear_5,1,5,63,98,1713014068
94,18,19,Jits_Linear_5,2,5,80,127,1713017116
94,18,19,Jits_Linear_5,0,5,56,103,1713491300
94,18,19,Jits_Linear_5,1,5,80,127,1713500452
94,18,19,Jits_Linear_5,2,5,63,98,1713521060
94,18,19,Jits_Linear_5,0,5,63,98,1713921284
94,18,19,Jits_Linear_5,1,5,80,127,1713951036
94,18,19,Jits_Linear_5,2,5,56,103,1713961232
94,18,19,Jits_Linear_5,0,1,48,44,1714416088
94,18,19,Jits_Linear_5,1,5,80,127,1714461004
94,18,19,Jits_Linear_5,2,5,56,103,1714471200
94,18,19,Jits_Linear_5,3,5,63,98,1714500876
94,18,19,Jits_Linear_5,0,5,63,98,1714941220
94,18,19,Jits_Linear_5,1,1,48,48,1714954900
94,18,19,Jits_Linear_5,2,5,56,103,1714970968
94,18,19,Jits_Linear_5,3,5,80,127,1714981236
94,18,19,Jits_Linear_5,0,5,56,103,1715380528
94,18,19,Jits_Linear_5,1,1,48,43,1715424172
94,18,19,Jits_Linear_5,2,5,63,98,1715430872
94,18,19,Jits_Linear_5,3,5,80,127,1715451332
94,18,19,Jits_Linear_5,0,5,80,127,1715871160
94,18,19,Jits_Linear_5,1,1,48,42,1715893760
94,18,19,Jits_Linear_5,2,5,63,98,1715921136
94,18,19,Jits_Linear_5,3,5,56,103,1715961148
94,18,19,Jits_Linear_5,0,1,48,47,1716333792
94,18,19,Jits_Linear_5,1,5,56,103,1716360444
94,18,19,Jits_Linear_5,2,5,63,98,1716391168
94,18,19,Jits_Linear_5,3,5,80,127,1716461060
94,18,19,Jits_Linear_5,0,1,48,43,1716806052
94,18,19,Jits_Linear_5,1,5,56,103,1716851188
94,18,19,Jits_Linear_5,2,1,48,28,1716885560
94,18,19,Jits_Linear_5,3,5,80,127,1716910392
94,18,19,Jits_Linear_5,4,5,63,98,1716941040
94,18,19,Jits_Linear_5,0,1,48,45,1717333068
94,18,19,Jits_Linear_5,1,5,56,103,1717350776
94,18,19,Jits_Linear_5,2,5,63,98,1717360900
94,18,19,Jits_Linear_5,3,1,48,28,1717399176
94,18,19,Jits_Linear_5,4,5,80,127,1717401064
94,18,19,Jits_Linear_5,0,1,48,46,1717800508
94,18,19,Jits_Linear_5,1,5,63,98,1717841292
94,18,19,Jits_Linear_5,2,1,48,28,1717869424
94,18,19,Jits_Linear_5,3,5,80,127,1717921096
94,18,19,Jits_Linear_5,4,5,56,103,1717931368
94,18,19,Jits_Linear_5,0,1,48,48,1718335744
94,18,19,Jits_Linear_5,1,5,63,98,1718391148
94,18,19,Jits_Linear_5,2,1,48,26,1718415852
94,18,19,Jits_Linear_5,3,5,56,103,1718431092
94,18,19,Jits_Linear_5,4,5,80,127,1718433932
94,18,19,Jits_Linear_5,0,1,48,46,1718848752
94,18,19,Jits_Linear_5,1,5,56,103,1718850868
94,18,19,Jits_Linear_5,2,5,63,98,1718861140
94,18,19,Jits_Linear_5,3,5,80,127,1718901080
94,18,19,Jits_Linear_5,4,1,48,28,1718927652
94,18,19,Jits_Linear_5,0,1,48,46,1719331768
94,18,19,Jits_Linear_5,1,5,56,103,1719341456
94,18,19,Jits_Linear_5,2,5,63,98,1719344372
94,18,19,Jits_Linear_5,3,5,80,127,1719360944
94,18,19,Jits_Linear_5,4,1,48,28,1719412668
94,18,19,Jits_Linear_5,0,1,48,47,1719797312
94,18,19,Jits_Linear_5,1,5,80,127,1719860736
94,18,19,Jits_Linear_5,2,5,56,103,1719870932
94,18,19,Jits_Linear_5,3,1,48,29,1719878748
94,18,19,Jits_Linear_5,4,5,63,98,1719940472
94,18,19,Jits_Linear_5,0,1,48,46,1720319096
94,18,19,Jits_Linear_5,1,5,63,98,1720361372
94,18,19,Jits_Linear_5,2,5,56,103,1720380860
94,18,19,Jits_Linear_5,3,5,80,127,1720460892
94,18,19,Jits_Linear_5,0,1,48,44,1720828656
94,18,19,Jits_Linear_5,1,5,56,103,1720880544
94,18,19,Jits_Linear_5,2,5,80,127,1720920412
94,18,19,Jits_Linear_5,3,5,63,98,1720930892
94,18,19,Jits_Linear_5,0,1,48,55,1721342068
94,18,19,Jits_Linear_5,1,5,80,127,1721381204
94,18,19,Jits_Linear_5,2,5,63,98,1721411028
94,18,19,Jits_Linear_5,3,5,56,103,1721450952
94,18,19,Jits_Linear_5,0,1,48,41,1721848948
94,18,19,Jits_Linear_5,1,5,56,103,1721910856
94,18,19,Jits_Linear_5,2,1,48,23,1721926540
94,18,19,Jits_Linear_5,3,5,63,98,1721941488
94,18,19,Jits_Linear_5,4,5,80,127,1721990372
94,18,19,Jits_Linear_5,0,1,48,38,1722375276
94,18,19,Jits_Linear_5,1,5,80,127,1722420788
94,18,19,Jits_Linear_5,2,5,56,103,1722460804
94,18,19,Jits_Linear_5,3,5,63,98,1722471060
94,18,19,Jits_Linear_5,0,1,48,51,1722919712
94,18,19,Jits_Linear_5,1,5,80,127,1722921296
94,18,19,Jits_Linear_5,2,5,63,98,1722961312
94,18,19,Jits_Linear_5,3,5,56,103,1723020740
94,18,19,Jits_Linear_5,0,1,48,43,1723387452
94,18,19,Jits_Linear_5,1,5,56,103,1723440464
94,18,19,Jits_Linear_5,2,5,80,127,1723450736
94,18,19,Jits_Linear_5,3,5,63,98,1723530540
94,18,19,Jits_Linear_5,0,1,48,61,1723867580
94,18,19,Jits_Linear_5,1,5,80,127,1723960828
94,18,19,Jits_Linear_5,2,5,63,98,1724021208
94,18,19,Jits_Linear_5,3,5,56,103,1724050760
94,18,19,Jits_Linear_5,0,1,48,57,1724426836
94,18,19,Jits_Linear_5,1,5,56,103,1724480968
94,18,19,Jits_Linear_5,2,5,80,127,1724541424
94,18,19,Jits_Linear_5,3,5,63,98,1724581312
94,18,19,Jits_Linear_5,0,1,48,56,1724945560
94,18,19,Jits_Linear_5,1,1,48,35,1725035748
94,18,19,Jits_Linear_5,2,5,56,103,1725060532
94,18,19,Jits_Linear_5,3,5,63,98,1725070876
94,18,19,Jits_Linear_5,4,5,80,127,1725074164
94,18,19,Jits_Linear_5,0,1,48,53,1725467980
94,18,19,Jits_Linear_5,1,5,80,127,1725540992
94,18,19,Jits_Linear_5,2,1,48,33,1725566940
94,18,19,Jits_Linear_5,3,5,63,98,1725630840
94,18,19,Jits_Linear_5,4,5,56,103,1725640960
94,18,19,Jits_Linear_5,0,1,48,55,1725975364
94,18,19,Jits_Linear_5,1,1,48,38,1726070816
94,18,19,Jits_Linear_5,2,5,56,103,1726072328
94,18,19,Jits_Linear_5,3,5,63,98,1726075260
94,18,19,Jits_Linear_5,4,5,80,127,1726078380
94,18,19,Jits_Linear_5,0,1,48,54,1726506612
94,18,19,Jits_Linear_5,1,1,48,27,1726612868
94,18,19,Jits_Linear_5,2,5,80,127,1726620988
94,18,19,Jits_Linear_5,3,5,63,98,1726671268
94,18,19,Jits_Linear_5,4,5,56,103,1726700868
94,18,19,Jits_Linear_5,0,1,48,56,1727061652
94,18,19,Jits_Linear_5,1,5,56,103,1727141124
94,18,19,Jits_Linear_5,2,5,80,127,1727150572
94,18,19,Jits_Linear_5,3,1,48,38,1727153016
94,18,19,Jits_Linear_5,4,5,63,98,1727221056
94,18,19,Jits_Linear_5,0,1,48,55,1727610388
94,18,19,Jits_Linear_5,1,5,56,103,1727680792
94,18,19,Jits_Linear_5,2,5,63,98,1727702284
94,18,19,Jits_Linear_5,3,5,80,127,1727760656
94,18,19,Jits_Linear_5,0,1,48,58,1728116804
94,18,19,Jits_Linear_5,1,5,80,127,1728211344
94,18,19,Jits_Linear_5,2,1,48,39,1728214744
94,18,19,Jits_Linear_5,3,5,63,98,1728280932
94,18,19,Jits_Linear_5,4,5,56,103,1728301316
94,18,19,Jits_Linear_5,0,1,48,48,1728604476
94,18,19,Jits_Linear_5,1,1,48,27,1728685620
94,18,19,Jits_Linear_5,2,5,80,127,1728770324
94,18,19,Jits_Linear_5,3,5,56,103,1728780744
94,18,19,Jits_Linear_5,4,5,63,98,1728790848
94,18,19,Jits_Linear_5,0,1,48,51,1729173460
94,18,19,Jits_Linear_5,1,5,80,127,1729301000
94,18,19,Jits_Linear_5,2,5,56,103,1729321236
94,18,19,Jits_Linear_5,3,5,63,98,1729390920
94,18,19,Jits_Linear_5,0,1,48,51,1729785828
94,18,19,Jits_Linear_5,1,1,48,34,1729834588
94,18,19,Jits_Linear_5,2,5,56,103,1729850952
94,18,19,Jits_Linear_5,3,5,80,127,1729880404
94,18,19,Jits_Linear_5,4,5,63,98,1729900864
94,18,19,Jits_Linear_5,0,1,48,46,1730307140
94,18,19,Jits_Linear_5,1,1,48,31,1730352384
94,18,19,Jits_Linear_5,2,5,63,98,1730391296
94,18,19,Jits_Linear_5,3,5,56,103,1730450804
94,18,19,Jits_Linear_5,4,5,80,127,1730480476
94,18,19,Jits_Linear_5,0,1,48,45,1730912224
94,18,19,Jits_Linear_5,1,5,63,98,1730930984
94,18,19,Jits_Linear_5,2,5,80,127,1730934348
94,18,19,Jits_Linear_5,3,5,56,103,1731021128
94,18,19,Jits_Linear_5,0,1,48,48,1731393768
94,18,19,Jits_Linear_5,1,1,48,28,1731456080
94,18,19,Jits_Linear_5,2,5,56,103,1731501440
94,18,19,Jits_Linear_5,3,5,63,98,1731531192
94,18,19,Jits_Linear_5,4,5,80,127,1731571044
94,18,19,Jits_Linear_5,0,1,48,47,1732008500
94,18,19,Jits_Linear_5,1,5,63,98,1732051248
94,18,19,Jits_Linear_5,2,1,48,33,1732058260
94,18,19,Jits_Linear_5,3,5,56,103,1732091240
94,18,19,Jits_Linear_5,4,5,80,127,1732111028
94,18,19,Jits_Linear_5,0,1,48,46,1732585564
94,18,19,Jits_Linear_5,1,5,63,98,1732610324
94,18,19,Jits_Linear_5,2,1,48,31,1732631408
94,18,19,Jits_Linear_5,3,5,56,103,1732651288
94,18,19,Jits_Linear_5,4,5,80,127,1732660588
94,18,19,Jits_Linear_5,0,5,80,127,1733140784
94,18,19,Jits_Linear_5,1,1,48,46,1733173196
94,18,19,Jits_Linear_5,2,5,63,98,1733210760
94,18,19,Jits_Linear_5,3,5,56,103,1733230848
94,18,19,Jits_Linear_5,0,5,56,103,1733690684
94,18,19,Jits_Linear_5,1,5,80,127,1733711216
94,18,19,Jits_Linear_5,2,1,48,45,1733749492
94,18,19,Jits_Linear_5,3,5,63,98,1733751076
94,18,19,Jits_Linear_5,0,1,48,31,1734209448
94,18,19,Jits_Linear_5,1,5,63,98,1734261100
94,18,19,Jits_Linear_5,2,5,80,127,1734280684
94,18,19,Jits_Linear_5,3,5,56,103,1734320608
94,18,19,Jits_Linear_5,0,1,48,40,1734813596
94,18,19,Jits_Linear_5,1,5,63,98,1734821120
94,18,19,Jits_Linear_5,2,5,56,103,1734840608
94,18,19,Jits_Linear_5,3,5,80,127,1734851028
94,18,19,Jits_Linear_5,0,1,48,40,1735377932
94,18,19,Jits_Linear_5,1,5,80,127,1735381416
94,18,19,Jits_Linear_5,2,5,56,103,1735400904
94,18,19,Jits_Linear_5,3,5,63,98,1735430804
94,18,19,Jits_Linear_5,0,1,48,46,1735985440
94,18,19,Jits_Linear_5,1,5,56,103,1736021360
94,18,19,Jits_Linear_5,2,5,80,127,1736024648
94,18,19,Jits_Linear_5,3,5,63,98,1736040848
94,18,19,Jits_Linear_5,0,5,63,98,1736510708
94,18,19,Jits_Linear_5,1,5,56,103,1736540536
94,18,19,Jits_Linear_5,2,1,48,41,1736600196
94,18,19,Jits_Linear_5,3,5,80,127,1736601768
94,18,19,Jits_Linear_5,0,1,48,48,1737120832
94,18,19,Jits_Linear_5,1,5,63,98,1737161012
94,18,19,Jits_Linear_5,2,5,56,103,1737171284
94,18,19,Jits_Linear_5,3,5,80,127,1737180732
94,18,19,Jits_Linear_5,0,1,48,51,1737669972
94,18,19,Jits_Linear_5,1,5,56,103,1737681232
94,18,19,Jits_Linear_5,2,1,48,37,1737702992
94,18,19,Jits_Linear_5,3,5,80,127,1737710888
94,18,19,Jits_Linear_5,4,5,63,98,1737721084
94,18,19,Jits_Linear_5,0,1,48,46,1738237568
94,18,19,Jits_Linear_5,1,5,63,98,1738290656
94,18,19,Jits_Linear_5,2,5,56,103,1738300776
94,18,19,Jits_Linear_5,3,5,80,127,1738321160
94,18,19,Jits_Linear_5,0,5,56,103,1738791176
94,18,19,Jits_Linear_5,1,5,63,98,1738850744
94,18,19,Jits_Linear_5,2,5,80,127,1738854036
94,18,19,Jits_Linear_5,3,1,48,50,1738857076
94,18,19,Jits_Linear_5,0,1,48,49,1739353312
94,18,19,Jits_Linear_5,1,5,80,127,1739391648
94,18,19,Jits_Linear_5,2,5,56,103,1739400648
94,18,19,Jits_Linear_5,3,5,63,98,1739471140
94,18,19,Jits_Linear_5,0,1,48,47,1739932068
94,18,19,Jits_Linear_5,1,5,80,127,1739960640
94,18,19,Jits_Linear_5,2,1,48,35,1739972740
94,18,19,Jits_Linear_5,3,5,56,103,1740031572
94,18,19,Jits_Linear_5,4,5,63,98,1740040648
94,18,19,Jits_Linear_5,0,1,48,47,1740522308
94,18,19,Jits_Linear_5,1,1,48,31,1740575180
94,18,19,Jits_Linear_5,2,5,63,98,1740581132
94,18,19,Jits_Linear_5,3,5,56,103,1740590580
94,18,19,Jits_Linear_5,4,5,80,127,1740610888
94,18,19,Jits_Linear_5,0,5,80,127,1741110864
94,18,19,Jits_Linear_5,1,1,48,52,1741139988
94,18,19,Jits_Linear_5,2,5,63,98,1741170952
94,18,19,Jits_Linear_5,3,1,48,36,1741196700
94,18,19,Jits_Linear_5,4,5,56,103,1741211116
94,18,19,Jits_Linear_5,0,1,48,46,1741693516
94,18,19,Jits_Linear_5,1,5,56,103,1741741520
94,18,19,Jits_Linear_5,2,1,48,32,1741745144
94,18,19,Jits_Linear_5,3,5,63,98,1741750796
94,18,19,Jits_Linear_5,4,5,80,127,1741790512
94,18,19,Jits_Linear_5,0,5,56,103,1742291456
94,18,19,Jits_Linear_5,1,1,48,47,1742292940
94,18,19,Jits_Linear_5,2,5,80,127,1742320980
94,18,19,Jits_Linear_5,3,1,48,35,1742339892
94,18,19,Jits_Linear_5,4,5,63,98,1742371160
94,18,19,Jits_Linear_5,0,1,48,51,1742847056
94,18,19,Jits_Linear_5,1,1,48,38,1742896856
94,18,19,Jits_Linear_5,2,5,56,103,1742920944
94,18,19,Jits_Linear_5,3,5,63,98,1742960956
94,18,19,Jits_Linear_5,4,5,80,127,1742964544
94,18,19,Jits_Linear_5,0,1,48,46,1743466804
94,18,19,Jits_Linear_5,1,5,56,103,1743510844
94,18,19,Jits_Linear_5,2,1,48,32,1743514920
94,18,19,Jits_Linear_5,3,5,63,98,1743521244
94,18,19,Jits_Linear_5,4,5,80,127,1743540580
94,18,19,Jits_Linear_5,0,5,56,103,1744060776
94,18,19,Jits_Linear_5,1,5,80,127,1744063844
94,18,19,Jits_Linear_5,2,1,48,40,1744073336
94,18,19,Jits_Linear_5,3,5,63,98,1744100636
94,18,19,Jits_Linear_5,0,1,48,40,1744648076
94,18,19,Jits_Linear_5,1,5,63,98,1744690824
94,18,19,Jits_Linear_5,2,5,56,103,1744721400
94,18,19,Jits_Linear_5,3,5,80,127,1744740796
94,18,19,Jits_Linear_5,0,1,48,51,1745250124
94,18,19,Jits_Linear_5,1,5,80,127,1745260864
94,18,19,Jits_Linear_5,2,5,56,103,1745271060
94,18,19,Jits_Linear_5,3,5,63,98,1745281652
94,18,19,Jits_Linear_5,4,1,48,31,1745299896
94,18,19,Jits_Linear_5,0,1,48,30,1745799096
94,18,19,Jits_Linear_5,1,1,48,23,1745851000
94,18,19,Jits_Linear_5,2,5,56,103,1745860916
94,18,19,Jits_Linear_5,3,5,80,127,1745900932
94,18,19,Jits_Linear_5,4,5,63,98,1745930684
94,18,19,Jits_Linear_5,0,1,48,46,1746428436
94,18,19,Jits_Linear_5,1,5,63,98,1746471552
94,18,19,Jits_Linear_5,2,1,48,31,1746481584
94,18,19,Jits_Linear_5,3,5,80,127,1746482624
94,18,19,Jits_Linear_5,4,5,56,103,1746490728
94,18,19,Jits_Linear_5,0,1,48,48,1747039816
94,18,19,Jits_Linear_5,1,5,56,103,1747050924
94,18,19,Jits_Linear_5,2,1,48,31,1747103576
94,18,19,Jits_Linear_5,3,5,63,98,1747120540
94,18,19,Jits_Linear_5,4,5,80,127,1747130736
94,18,19,Jits_Linear_5,0,1,48,44,1747643492
94,18,19,Jits_Linear_5,1,5,80,127,1747661052
94,18,19,Jits_Linear_5,2,5,56,103,1747671544
94,18,19,Jits_Linear_5,3,1,48,32,1747689040
94,18,19,Jits_Linear_5,4,5,63,98,1747720528
94,18,19,Jits_Linear_5,0,1,48,48,1748178788
94,18,19,Jits_Linear_5,1,1,48,34,1748230860
94,18,19,Jits_Linear_5,2,5,80,127,1748280712
94,18,19,Jits_Linear_5,3,5,56,103,1748341088
94,18,19,Jits_Linear_5,4,5,63,98,1748370792
94,18,19,Jits_Linear_5,0,1,48,48,1748875684
94,18,19,Jits_Linear_5,1,5,56,103,1748891000
94,18,19,Jits_Linear_5,2,5,80,127,1748893992
94,18,19,Jits_Linear_5,3,1,48,29,1748931676
94,18,19,Jits_Linear_5,4,5,63,98,1748932716
94,18,19,Jits_Linear_5,0,1,48,39,1749516256
94,18,19,Jits_Linear_5,1,5,56,103,1749530980
94,18,19,Jits_Linear_5,2,5,63,98,1749560656
94,18,19,Jits_Linear_5,3,5,80,127,1749571000
94,18,19,Jits_Linear_5,0,1,48,49,1750124964
94,18,19,Jits_Linear_5,1,5,63,98,1750150644
94,18,19,Jits_Linear_5,2,5,80,127,1750160616
94,18,19,Jits_Linear_5,3,5,56,103,1750171112
94,18,19,Jits_Linear_5,4,1,48,28,1750178944
94,18,19,Jits_Linear_5,0,5,80,127,1750710620
94,18,19,Jits_Linear_5,1,1,48,44,1750734488
94,18,19,Jits_Linear_5,2,5,56,103,1750760892
94,18,19,Jits_Linear_5,3,5,63,98,1750763884
94,18,19,Jits_Linear_5,0,1,48,45,1751276272
94,18,19,Jits_Linear_5,1,1,48,29,1751324136
94,18,19,Jits_Linear_5,2,5,56,103,1751360880
94,18,19,Jits_Linear_5,3,5,80,127,1751381564
94,18,19,Jits_Linear_5,4,5,63,98,1751390712
94,18,19,Jits_Linear_5,0,1,48,51,1751909384
94,18,19,Jits_Linear_5,1,1,48,35,1751961560
94,18,19,Jits_Linear_5,2,5,63,98,1751962680
94,18,19,Jits_Linear_5,3,5,56,103,1751990564
94,18,19,Jits_Linear_5,4,5,80,127,1752011096
94,18,19,Jits_Linear_5,0,5,56,103,1752590636
94,18,19,Jits_Linear_5,1,5,80,127,1752601056
94,18,19,Jits_Linear_5,2,1,48,52,1752629728
94,18,19,Jits_Linear_5,3,5,63,98,1752670508
94,18,19,Jits_Linear_5,4,1,48,35,1752683576
94,18,19,Jits_Linear_5,0,5,63,98,1753201040
94,18,19,Jits_Linear_5,1,1,48,42,1753238736
94,18,19,Jits_Linear_5,2,5,80,127,1753240852
94,18,19,Jits_Linear_5,3,5,56,103,1753280792
94,18,19,Jits_Linear_5,0,1,48,46,1753759008
94,18,19,Jits_Linear_5,1,1,48,31,1753817192
94,18,19,Jits_Linear_5,2,5,56,103,1753841124
94,18,19,Jits_Linear_5,3,5,63,98,1753851544
94,18,19,Jits_Linear_5,4,5,80,127,1753870660
94,18,19,Jits_Linear_5,0,1,48,43,1754362052
94,18,19,Jits_Linear_5,1,1,48,30,1754424064
94,18,19,Jits_Linear_5,2,5,63,98,1754510812
94,18,19,Jits_Linear_5,3,5,80,127,1754531256
94,18,19,Jits_Linear_5,4,5,56,103,1754550668
94,18,19,Jits_Linear_5,0,1,48,46,1755007008
94,18,19,Jits_Linear_5,1,1,48,30,1755066924
94,18,19,Jits_Linear_5,2,5,56,103,1755081048
94,18,19,Jits_Linear_5,3,5,80,127,1755160920
94,18,19,Jits_Linear_5,4,5,63,98,1755171104
94,18,19,Jits_Linear_5,0,1,48,45,1755670460
94,18,19,Jits_Linear_5,1,1,48,31,1755730752
94,18,19,Jits_Linear_5,2,5,80,127,1755750636
94,18,19,Jits_Linear_5,3,5,63,98,1755761056
94,18,19,Jits_Linear_5,4,5,56,103,1755790684
94,18,19,Jits_Linear_5,0,5,63,98,1756340556
94,18,19,Jits_Linear_5,1,1,48,46,1756347860
94,18,19,Jits_Linear_5,2,5,80,127,1756380564
94,18,19,Jits_Linear_5,3,1,48,33,1756400004
94,18,19,Jits_Linear_5,4,5,56,103,1756440860
94,18,19,Jits_Linear_5,0,1,48,47,1756974736
94,18,19,Jits_Linear_5,1,5,63,98,1756980536
94,18,19,Jits_Linear_5,2,5,56,103,1757030668
94,18,19,Jits_Linear_5,3,5,80,127,1757060516
94,18,19,Jits_Linear_5,0,1,48,46,1757630700
94,18,19,Jits_Linear_5,1,5,80,127,1757631960
94,18,19,Jits_Linear_5,2,5,63,98,1757640964
94,18,19,Jits_Linear_5,3,1,48,31,1757682576
94,18,19,Jits_Linear_5,4,5,56,103,1757710772
94,18,19,Jits_Linear_5,0,1,48,47,1758223376
94,18,19,Jits_Linear_5,1,1,48,31,1758274672
94,18,19,Jits_Linear_5,2,5,80,127,1758340588
94,18,19,Jits_Linear_5,3,5,56,103,1758350632
94,18,19,Jits_Linear_5,4,5,63,98,1758353920
94,18,19,Jits_Linear_5,0,5,56,103,1758920960
94,18,19,Jits_Linear_5,1,5,80,127,1758940524
94,18,19,Jits_Linear_5,2,1,48,46,1758947456
94,18,19,Jits_Linear_5,3,5,63,98,1758950860
94,18,19,Jits_Linear_5,4,1,48,31,1758995540
94,18,19,Jits_Linear_5,0,5,63,98,1759571448
94,18,19,Jits_Linear_5,1,1,48,45,1759583488
94,18,19,Jits_Linear_5,2,5,56,103,1759611532
94,18,19,Jits_Linear_5,3,5,80,127,1759630672
94,18,19,Jits_Linear_5,0,1,48,48,1760209740
94,18,19,Jits_Linear_5,1,5,63,98,1760220628
94,18,19,Jits_Linear_5,2,5,56,103,1760280872
94,18,19,Jits_Linear_5,3,5,80,127,1760283936
94,18,19,Jits_Linear_5,0,5,56,103,1760830824
94,18,19,Jits_Linear_5,1,5,80,127,1760851360
94,18,19,Jits_Linear_5,2,1,48,49,1760891744
94,18,19,Jits_Linear_5,3,5,63,98,1760892940
94,18,19,Jits_Linear_5,4,1,48,30,1760950912
94,18,19,Jits_Linear_5,0,5,56,103,1761510632
94,18,19,Jits_Linear_5,1,1,48,52,1761515772
94,18,19,Jits_Linear_5,2,5,63,98,1761531384
94,18,19,Jits_Linear_5,3,5,80,127,1761540608
94,18,19,Jits_Linear_5,0,1,48,48,1762109872
94,18,19,Jits_Linear_5,1,5,80,127,1762131396
94,18,19,Jits_Linear_5,2,5,56,103,1762161072
94,18,19,Jits_Linear_5,3,5,63,98,1762200888
94,18,19,Jits_Linear_5,0,5,80,127,1762790844
94,18,19,Jits_Linear_5,1,1,48,50,1762793360
94,18,19,Jits_Linear_5,2,5,56,103,1762811520
94,18,19,Jits_Linear_5,3,5,63,98,1762870640
94,18,19,Jits_Linear_5,0,1,48,46,1763428968
94,18,19,Jits_Linear_5,1,5,56,103,1763451392
94,18,19,Jits_Linear_5,2,5,80,127,1763470608
94,18,19,Jits_Linear_5,3,5,63,98,1763531060
94,18,19,Jits_Linear_5,0,1,48,57,1764066968
94,18,19,Jits_Linear_5,1,5,80,127,1764091356
94,18,19,Jits_Linear_5,2,5,56,103,1764100580
94,18,19,Jits_Linear_5,3,1,48,38,1764107720
94,18,19,Jits_Linear_5,4,5,63,98,1764141396
94,18,19,Jits_Linear_5,0,1,48,53,1764679380
94,18,19,Jits_Linear_5,1,1,48,38,1764713000
94,18,19,Jits_Linear_5,2,5,63,98,1764750592
94,18,19,Jits_Linear_5,3,5,56,103,1764790756
94,18,19,Jits_Linear_5,4,5,80,127,1764793744
94,18,19,Jits_Linear_5,0,1,48,47,1765348828
94,18,19,Jits_Linear_5,1,5,63,98,1765430672
94,18,19,Jits_Linear_5,2,5,80,127,1765470672
94,18,19,Jits_Linear_5,3,5,56,103,1765501468
94,18,19,Jits_Linear_5,0,1,48,54,1766079288
94,18,19,Jits_Linear_5,1,5,56,103,1766080872
94,18,19,Jits_Linear_5,2,5,63,98,1766091072
94,18,19,Jits_Linear_5,3,5,80,127,1766120820
94,18,19,Jits_Linear_5,4,1,48,34,1766134484
94,18,19,Jits_Linear_5,0,1,48,51,1766703152
94,18,19,Jits_Linear_5,1,5,80,127,1766741536
94,18,19,Jits_Linear_5,2,1,48,35,1766743904
94,18,19,Jits_Linear_5,3,5,63,98,1766810928
94,18,19,Jits_Linear_5,4,5,56,103,1766821420
94,18,19,Jits_Linear_5,0,1,48,48,1767346448
94,18,19,Jits_Linear_5,1,1,48,29,1767396104
94,18,19,Jits_Linear_5,2,5,63,98,1767410976
94,18,19,Jits_Linear_5,3,5,56,103,1767480660
94,18,19,Jits_Linear_5,4,5,80,127,1767490844
94,18,19,Jits_Linear_5,0,1,48,41,1768042788
94,18,19,Jits_Linear_5,1,5,63,98,1768080680
94,18,19,Jits_Linear_5,2,5,56,103,1768101288
94,18,19,Jits_Linear_5,3,5,80,127,1768141888
94,18,19,Jits_Linear_5,0,1,48,45,1768700132
94,18,19,Jits_Linear_5,1,5,56,103,1768760620
94,18,19,Jits_Linear_5,2,5,63,98,1768771116
94,18,19,Jits_Linear_5,3,5,80,127,1768850920
94,18,19,Jits_Linear_5,0,1,48,36,1769413068
94,18,19,Jits_Linear_5,1,5,63,98,1769421184
94,18,19,Jits_Linear_5,2,5,56,103,1769450864
94,18,19,Jits_Linear_5,3,5,80,127,1769490728
94,18,19,Jits_Linear_5,0,1,48,46,1770039600
94,18,19,Jits_Linear_5,1,5,56,103,1770090720
94,18,19,Jits_Linear_5,2,5,63,98,1770130760
94,18,19,Jits_Linear_5,3,5,80,127,1770170612
94,18,19,Jits_Linear_5,0,1,48,53,1770738828
94,18,19,Jits_Linear_5,1,5,80,127,1770770764
94,18,19,Jits_Linear_5,2,1,48,36,1770781068
94,18,19,Jits_Linear_5,3,5,56,103,1770850616
94,18,19,Jits_Linear_5,4,5,63,98,1770861036
94,18,19,Jits_Linear_5,0,1,48,53,1771410532
94,18,19,Jits_Linear_5,1,1,48,38,1771451336
94,18,19,Jits_Linear_5,2,5,56,103,1771490772
94,18,19,Jits_Linear_5,3,5,63,98,1771493688
94,18,19,Jits_Linear_5,4,5,80,127,1771501116
94,18,19,Jits_Linear_5,0,1,48,52,1772086152
94,18,19,Jits_Linear_5,1,1,48,36,1772122628
94,18,19,Jits_Linear_5,2,5,56,103,1772191308
94,18,19,Jits_Linear_5,3,5,63,98,1772210428
94,18,19,Jits_Linear_5,4,5,80,127,1772221052
94,18,19,Jits_Linear_5,0,1,48,53,1772807156
94,18,19,Jits_Linear_5,1,5,63,98,1772831468
94,18,19,Jits_Linear_5,2,5,80,127,1772841440
94,18,19,Jits_Linear_5,3,5,56,103,1772860704
94,18,19,Jits_Linear_5,0,1,48,51,1773489164
94,18,19,Jits_Linear_5,1,5,63,98,1773521552
94,18,19,Jits_Linear_5,2,5,56,103,1773601336
94,18,19,Jits_Linear_5,3,5,80,127,1773604324
94,18,19,Jits_Linear_5,0,1,48,55,1774203484
94,18,19,Jits_Linear_5,1,5,63,98,1774210436
94,18,19,Jits_Linear_5,2,5,56,103,1774230968
94,18,19,Jits_Linear_5,3,1,48,37,1774245088
94,18,19,Jits_Linear_5,4,5,80,127,1774260552
94,18,19,Jits_Linear_5,0,1,48,56,1774858564
94,18,19,Jits_Linear_5,1,1,48,39,1774897036
94,18,19,Jits_Linear_5,2,5,56,103,1774900524
94,18,19,Jits_Linear_5,3,5,63,98,1774921204
94,18,19,Jits_Linear_5,4,5,80,127,1774931252
94,18,19,Jits_Linear_5,0,1,48,52,1775528972
94,18,19,Jits_Linear_5,1,1,48,35,1775564768
94,18,19,Jits_Linear_5,2,5,56,103,1775620400
94,18,19,Jits_Linear_5,3,5,63,98,1775651424
94,18,19,Jits_Linear_5,4,5,80,127,1775654632
94,18,19,Jits_Linear_5,0,1,48,48,1776215856
94,18,19,Jits_Linear_5,1,5,56,103,1776260496
94,18,19,Jits_Linear_5,2,5,63,98,1776301484
94,18,19,Jits_Linear_5,3,5,80,127,1776360964
94,18,19,Jits_Linear_5,0,1,48,55,1776883468
94,18,19,Jits_Linear_5,1,1,48,38,1776928244
94,18,19,Jits_Linear_5,2,5,56,103,1776971216
94,18,19,Jits_Linear_5,3,5,63,98,1776981560
94,18,19,Jits_Linear_5,4,5,80,127,1777040692
94,18,19,Jits_Linear_5,0,1,48,59,1777574952
94,18,19,Jits_Linear_5,1,1,48,38,1777621240
94,18,19,Jits_Linear_5,2,5,56,103,1777670564
94,18,19,Jits_Linear_5,3,5,80,127,1777690948
94,18,19,Jits_Linear_5,4,5,63,98,1777720684
94,18,19,Jits_Linear_5,0,1,48,55,1778279824
94,18,19,Jits_Linear_5,1,1,48,39,1778319984
94,18,19,Jits_Linear_5,2,5,80,127,1778370812
94,18,19,Jits_Linear_5,3,5,56,103,1778381380
94,18,19,Jits_Linear_5,4,5,63,98,1778400568
94,18,19,Jits_Linear_5,0,1,48,57,1778990032
94,18,19,Jits_Linear_5,1,1,48,37,1779032192
94,18,19,Jits_Linear_5,2,5,63,98,1779061140
94,18,19,Jits_Linear_5,3,5,80,127,1779140948
94,18,19,Jits_Linear_5,4,5,56,103,1779151516
94,18,19,Jits_Linear_5,0,1,48,54,1779717616
94,18,19,Jits_Linear_5,1,5,80,127,1779820960
94,18,19,Jits_Linear_5,2,5,56,103,1779841292
94,18,19,Jits_Linear_5,3,5,63,98,1779844364
94,18,19,Jits_Linear_5,0,1,48,52,1780480392
94,18,19,Jits_Linear_5,1,5,63,98,1780500792
94,18,19,Jits_Linear_5,2,5,80,127,1780504228
94,18,19,Jits_Linear_5,3,5,56,103,1780561332
94,18,19,Jits_Linear_5,0,1,48,49,1781186708
94,18,19,Jits_Linear_5,1,5,56,103,1781191160
94,18,19,Jits_Linear_5,2,5,80,127,1781201432
94,18,19,Jits_Linear_5,3,5,63,98,1781241148
94,18,19,Jits_Linear_5,0,1,48,53,1781861868
94,18,19,Jits_Linear_5,1,5,56,103,1781881224
94,18,19,Jits_Linear_5,2,5,63,98,1781940596
94,18,19,Jits_Linear_5,3,5,80,127,1781950944
94,18,19,Jits_Linear_5,0,1,48,51,1782550760
94,18,19,Jits_Linear_5,1,1,48,33,1782594036
94,18,19,Jits_Linear_5,2,5,63,98,1782601260
94,18,19,Jits_Linear_5,3,5,80,127,1782641276
94,18,19,Jits_Linear_5,4,5,56,103,1782680940
94,18,19,Jits_Linear_5,0,5,56,103,1783310680
94,18,19,Jits_Linear_5,1,1,48,48,1783369924
94,18,19,Jits_Linear_5,2,5,63,98,1783390624
94,18,19,Jits_Linear_5,3,5,80,127,1783394060
94,18,19,Jits_Linear_5,4,1,48,33,1783426708
94,18,19,Jits_Linear_5,0,1,48,54,1784070776
94,18,19,Jits_Linear_5,1,5,80,127,1784080616
94,18,19,Jits_Linear_5,2,1,48,38,1784109508
94,18,19,Jits_Linear_5,3,5,56,103,1784110640
94,18,19,Jits_Linear_5,4,5,63,98,1784113560
94,18,19,Jits_Linear_5,0,5,56,103,1784760632
94,18,19,Jits_Linear_5,1,1,48,54,1784769376
94,18,19,Jits_Linear_5,2,5,80,127,1784781388
94,18,19,Jits_Linear_5,3,1,48,38,1784806284
94,18,19,Jits_Linear_5,4,5,63,98,1784821228
94,18,19,Jits_Linear_5,0,5,80,127,1785461320
94,18,19,Jits_Linear_5,1,5,63,98,1785480536
94,18,19,Jits_Linear_5,2,1,48,36,1785497428
94,18,19,Jits_Linear_5,3,5,56,103,1785540920
94,18,19,Jits_Linear_5,0,1,48,51,1786099464
94,18,19,Jits_Linear_5,1,1,48,31,1786148056
94,18,19,Jits_Linear_5,2,5,63,98,1786191176
94,18,19,Jits_Linear_5,3,5,56,103,1786200400
94,18,19,Jits_Linear_5,4,5,80,127,1786250464
94,18,19,Jits_Linear_5,0,1,48,55,1786780600
94,18,19,Jits_Linear_5,1,1,48,36,1786837436
94,18,19,Jits_Linear_5,2,5,56,103,1786900936
94,18,19,Jits_Linear_5,3,5,63,98,1786921324
94,18,19,Jits_Linear_5,4,5,80,127,1786930400
94,18,19,Jits_Linear_5,0,1,48,54,1787473624
94,18,19,Jits_Linear_5,1,1,48,36,1787516380
94,18,19,Jits_Linear_5,2,5,56,103,1787620720
94,18,19,Jits_Linear_5,3,5,63,98,1787623784
94,18,19,Jits_Linear_5,4,5,80,127,1787641176
94,18,19,Jits_Linear_5,0,1,48,51,1788239716
94,18,19,Jits_Linear_5,1,5,63,98,1788390876
94,18,19,Jits_Linear_5,2,5,56,103,1788420408
94,18,19,Jits_Linear_5,3,5,80,127,1788451128
94,18,19,Jits_Linear_5,0,1,48,51,1788998724
94,18,19,Jits_Linear_5,1,5,80,127,1789081052
94,18,19,Jits_Linear_5,2,5,56,103,1789171248
94,18,19,Jits_Linear_5,3,5,63,98,1789174240
94,18,19,Jits_Linear_5,0,5,56,103,1789811116
94,18,19,Jits_Linear_5,1,5,80,127,1789814108
94,18,19,Jits_Linear_5,2,1,48,47,1789846396
94,18,19,Jits_Linear_5,3,5,63,98,1789891008
94,18,19,Jits_Linear_5,0,1,48,51,1790507312
94,18,19,Jits_Linear_5,1,5,80,127,1790541284
94,18,19,Jits_Linear_5,2,5,63,98,1790601692
94,18,19,Jits_Linear_5,3,5,56,103,1790631144
94,18,19,Jits_Linear_5,0,1,48,50,1791214260
94,18,19,Jits_Linear_5,1,5,63,98,1791271380
94,18,19,Jits_Linear_5,2,5,80,127,1791280456
94,18,19,Jits_Linear_5,3,5,56,103,1791351244
94,18,19,Jits_Linear_5,0,1,48,48,1791951024
94,18,19,Jits_Linear_5,1,5,56,103,1792020952
94,18,19,Jits_Linear_5,2,5,80,127,1792050616
94,18,19,Jits_Linear_5,3,5,63,98,1792100820
94,18,19,Jits_Linear_5,0,1,48,52,1792711088
94,18,19,Jits_Linear_5,1,1,48,35,1792761044
94,18,19,Jits_Linear_5,2,5,63,98,1792801376
94,18,19,Jits_Linear_5,3,5,56,103,1792830904
94,18,19,Jits_Linear_5,4,5,80,127,1792833968
94,18,19,Jits_Linear_5,0,1,48,50,1793428552
94,18,19,Jits_Linear_5,1,1,48,36,1793467264
94,18,19,Jits_Linear_5,2,5,63,98,1793540504
94,18,19,Jits_Linear_5,3,5,80,127,1793561024
94,18,19,Jits_Linear_5,4,5,56,103,1793571148
94,18,19,Jits_Linear_5,0,1,48,54,1794246424
94,18,19,Jits_Linear_5,1,5,56,103,1794291336
94,18,19,Jits_Linear_5,2,5,63,98,1794294400
94,18,19,Jits_Linear_5,3,5,80,127,1794310600
94,18,19,Jits_Linear_5,0,1,48,57,1794919484
94,18,19,Jits_Linear_5,1,1,48,40,1794963308
94,18,19,Jits_Linear_5,2,5,56,103,1794990388
94,18,19,Jits_Linear_5,3,5,63,98,1795000656
94,18,19,Jits_Linear_5,4,5,80,127,1795031452
94,18,19,Jits_Linear_5,0,1,48,57,1795622712
94,18,19,Jits_Linear_5,1,1,48,41,1795671840
94,18,19,Jits_Linear_5,2,5,63,98,1795760532
94,18,19,Jits_Linear_5,3,5,80,127,1795780976
94,18,19,Jits_Linear_5,4,5,56,103,1795820988
94,18,19,Jits_Linear_5,0,1,48,46,1796432872
94,18,19,Jits_Linear_5,1,1,48,27,1796487112
94,18,19,Jits_Linear_5,2,5,56,103,1796541020
94,18,19,Jits_Linear_5,3,5,63,98,1796580664
94,18,19,Jits_Linear_5,4,5,80,127,1796584984
94,18,19,Jits_Linear_5,0,5,80,127,1797231224
94,18,19,Jits_Linear_5,1,1,48,46,1797243116
94,18,19,Jits_Linear_5,2,5,56,103,1797270960
94,18,19,Jits_Linear_5,3,5,63,98,1797321016
94,18,19,Jits_Linear_5,0,1,48,49,1798007896
94,18,19,Jits_Linear_5,1,5,56,103,1798041148
94,18,19,Jits_Linear_5,2,5,80,127,1798051268
94,18,19,Jits_Linear_5,3,5,63,98,1798081020
94,18,19,Jits_Linear_5,0,5,56,103,1798741408
94,18,19,Jits_Linear_5,1,1,48,50,1798778908
94,18,19,Jits_Linear_5,2,5,80,127,1798781292
94,18,19,Jits_Linear_5,3,5,63,98,1798830444
94,18,19,Jits_Linear_5,0,1,48,53,1799424128
94,18,19,Jits_Linear_5,1,1,48,34,1799464712
94,18,19,Jits_Linear_5,2,5,56,103,1799501084
94,18,19,Jits_Linear_5,3,5,80,127,1799541172
94,18,19,Jits_Linear_5,4,5,63,98,1799591308
94,18,19,Jits_Linear_5,0,1,48,30,1800168188
94,18,19,Jits_Linear_5,1,5,80,127,1800250872
94,18,19,Jits_Linear_5,2,5,63,98,1800330680
94,18,19,Jits_Linear_5,3,5,56,103,1800340952
94,18,19,Jits_Linear_5,0,1,48,42,1800982960
94,18,19,Jits_Linear_5,1,1,48,27,1801033212
94,18,19,Jits_Linear_5,2,5,80,127,1801060816
94,18,19,Jits_Linear_5,3,5,56,103,1801071160
94,18,19,Jits_Linear_5,4,5,63,98,1801090300
94,18,19,Jits_Linear_5,0,1,48,39,1801753484
94,18,19,Jits_Linear_5,1,5,63,98,1801790976
94,18,19,Jits_Linear_5,2,5,56,103,1801860520
94,18,19,Jits_Linear_5,3,5,80,127,1801863660
94,18,19,Jits_Linear_5,0,1,48,48,1802503804
94,18,19,Jits_Linear_5,1,5,80,127,1802550512
94,18,19,Jits_Linear_5,2,5,63,98,1802600924
94,18,19,Jits_Linear_5,3,5,56,103,1802640740
94,18,19,Jits_Linear_5,0,1,48,37,1803204896
94,18,19,Jits_Linear_5,1,5,63,98,1803360536
94,18,19,Jits_Linear_5,2,5,56,103,1803400500
94,18,19,Jits_Linear_5,3,5,80,127,1803410992
94,18,19,Jits_Linear_5,0,1,48,34,1804037780
94,18,19,Jits_Linear_5,1,5,63,98,1804120388
94,18,19,Jits_Linear_5,2,5,56,103,1804141056
94,18,19,Jits_Linear_5,3,5,80,127,1804161320
94,18,19,Jits_Linear_5,0,1,48,34,1804848040
94,18,19,Jits_Linear_5,1,5,80,127,1804850628
94,18,19,Jits_Linear_5,2,5,56,103,1804861196
94,18,19,Jits_Linear_5,3,5,63,98,1804881212
94,18,19,Jits_Linear_5,0,1,48,41,1805611708
94,18,19,Jits_Linear_5,1,5,63,98,1805651220
94,18,19,Jits_Linear_5,2,5,56,103,1805691236
94,18,19,Jits_Linear_5,3,5,80,127,1805720920
94,18,19,Jits_Linear_5,0,1,48,44,1806405332
94,18,19,Jits_Linear_5,1,5,56,103,1806430692
94,18,19,Jits_Linear_5,2,5,63,98,1806461216
94,18,19,Jits_Linear_5,3,5,80,127,1806491116
94,18,19,Jits_Linear_5,0,1,48,46,1807156548
94,18,19,Jits_Linear_5,1,5,80,127,1807181160
94,18,19,Jits_Linear_5,2,5,56,103,1807251076
94,18,19,Jits_Linear_5,3,5,63,98,1807254140
94,18,19,Jits_Linear_5,0,1,48,49,1807883416
94,18,19,Jits_Linear_5,1,5,56,103,1807970584
94,18,19,Jits_Linear_5,2,5,63,98,1808020872
94,18,19,Jits_Linear_5,3,5,80,127,1808050400
94,18,19,Jits_Linear_5,0,1,48,51,1808654864
94,18,19,Jits_Linear_5,1,5,63,98,1808730420
94,18,19,Jits_Linear_5,2,5,80,127,1808733856
94,18,19,Jits_Linear_5,3,5,56,103,1808790968
94,18,19,Jits_Linear_5,0,1,48,51,1809435812
94,18,19,Jits_Linear_5,1,5,56,103,1809540600
94,18,19,Jits_Linear_5,2,5,80,127,1809550872
94,18,19,Jits_Linear_5,3,5,63,98,1809600852
94,18,19,Jits_Linear_5,0,1,48,52,1810239264
94,18,19,Jits_Linear_5,1,5,63,98,1810301200
94,18,19,Jits_Linear_5,2,5,56,103,1810310500
94,18,19,Jits_Linear_5,3,5,80,127,1810341132
94,18,19,Jits_Linear_5,0,1,48,56,1810992868
94,18,19,Jits_Linear_5,1,5,63,98,1811120428
94,18,19,Jits_Linear_5,2,5,80,127,1811124016
94,18,19,Jits_Linear_5,3,5,56,103,1811151228
94,18,19,Jits_Linear_5,0,1,48,53,1811772776
94,18,19,Jits_Linear_5,1,1,48,27,1811831948
94,18,19,Jits_Linear_5,2,5,63,98,1811930436
94,18,19,Jits_Linear_5,3,5,56,103,1811951116
94,18,19,Jits_Linear_5,4,5,80,127,1811954108
94,18,19,Jits_Linear_5,0,1,48,55,1812576244
94,18,19,Jits_Linear_5,1,1,48,25,1812639352
94,18,19,Jits_Linear_5,2,5,63,98,1812680960
94,18,19,Jits_Linear_5,3,5,56,103,1812751000
94,18,19,Jits_Linear_5,4,5,80,127,1812771088
94,18,19,Jits_Linear_5,0,1,48,48,1813297760
94,18,19,Jits_Linear_5,1,1,48,27,1813354388
94,18,19,Jits_Linear_5,2,5,56,103,1813461500
94,18,19,Jits_Linear_5,3,5,63,98,1813470724
94,18,19,Jits_Linear_5,4,5,80,127,1813560856
94,18,19,Jits_Linear_5,0,1,48,52,1814158140
94,18,19,Jits_Linear_5,1,1,48,36,1814214100
94,18,19,Jits_Linear_5,2,5,56,103,1814271300
94,18,19,Jits_Linear_5,3,5,80,127,1814311240
94,18,19,Jits_Linear_5,4,5,63,98,1814320448
94,18,19,Jits_Linear_5,0,1,48,41,1815013568
94,18,19,Jits_Linear_5,1,5,56,103,1815100884
94,18,19,Jits_Linear_5,2,5,63,98,1815130844
94,18,19,Jits_Linear_5,3,5,80,127,1815161196
94,18,19,Jits_Linear_5,0,1,48,41,1815823228
94,18,19,Jits_Linear_5,1,5,80,127,1815860796
94,18,19,Jits_Linear_5,2,5,63,98,1815900740
94,18,19,Jits_Linear_5,3,5,56,103,1815920960
94,18,19,Jits_Linear_5,0,1,48,64,1816667348
94,18,19,Jits_Linear_5,1,5,56,103,1816701272
94,18,19,Jits_Linear_5,2,5,80,127,1816720760
94,18,19,Jits_Linear_5,3,1,48,44,1816732556
94,18,19,Jits_Linear_5,4,5,63,98,1816741128
94,18,19,Jits_Linear_5,0,1,48,49,1817408740
94,18,19,Jits_Linear_5,1,1,48,34,1817462360
94,18,19,Jits_Linear_5,2,5,63,98,1817471476
94,18,19,Jits_Linear_5,3,5,56,103,1817480552
94,18,19,Jits_Linear_5,4,5,80,127,1817541088
94,18,19,Jits_Linear_5,0,1,48,44,1818197968
94,18,19,Jits_Linear_5,1,5,56,103,1818281276
94,18,19,Jits_Linear_5,2,5,63,98,1818350948
94,18,19,Jits_Linear_5,3,5,80,127,1818370360
94,18,19,Jits_Linear_5,0,1,48,48,1819034644
94,18,19,Jits_Linear_5,1,1,48,34,1819073208
94,18,19,Jits_Linear_5,2,5,56,103,1819091444
94,18,19,Jits_Linear_5,3,5,63,98,1819121120
94,18,19,Jits_Linear_5,4,5,80,127,1819160908
94,18,19,Jits_Linear_5,0,1,48,46,1819839560
94,18,19,Jits_Linear_5,1,5,63,98,1819891056
94,18,19,Jits_Linear_5,2,1,48,30,1819897152
94,18,19,Jits_Linear_5,3,5,56,103,1819941244
94,18,19,Jits_Linear_5,4,5,80,127,1819950464
94,18,19,Jits_Linear_5,0,1,48,48,1820597260
94,18,19,Jits_Linear_5,1,5,56,103,1820740836
94,18,19,Jits_Linear_5,2,5,63,98,1820791192
94,18,19,Jits_Linear_5,3,5,80,127,1820801336
94,18,19,Jits_Linear_5,0,1,48,50,1821426928
94,18,19,Jits_Linear_5,1,5,56,103,1821521276
94,18,19,Jits_Linear_5,2,5,63,98,1821530576
94,18,19,Jits_Linear_5,3,5,80,127,1821611520
94,18,19,Jits_Linear_5,0,9999,9999,9999,1712768096
94,18,19,Jits_Linear_5,1,9999,9999,9999,1713248380
94,18,19,Jits_Linear_5,2,9999,9999,9999,1713728640
94,18,19,Jits_Linear_5,3,9999,9999,9999,1714208888
94,18,19,Jits_Linear_5,4,9999,9999,9999,1714688064
94,18,19,Jits_Linear_5,5,9999,9999,9999,1715178612
94,18,19,Jits_Linear_5,6,9999,9999,9999,1715669084
94,18,19,Jits_Linear_5,7,9999,9999,9999,1716158528
94,18,19,Jits_Linear_5,8,9999,9999,9999,1716649084
94,18,19,Jits_Linear_5,9,9999,9999,9999,1717138488
94,18,19,Jits_Linear_5,10,9999,9999,9999,1717638224
94,18,19,Jits_Linear_5,11,9999,9999,9999,1718138980
94,18,19,Jits_Linear_5,12,9999,9999,9999,1718638704
94,18,19,Jits_Linear_5,13,9999,9999,9999,1719138364
94,18,19,Jits_Linear_5,14,9999,9999,9999,1719638084
94,18,19,Jits_Linear_5,15,9999,9999,9999,1720149056
94,18,19,Jits_Linear_5,16,9999,9999,9999,1720659004
94,18,19,Jits_Linear_5,17,9999,9999,9999,1721168960
94,18,19,Jits_Linear_5,18,9999,9999,9999,1721678908
94,18,19,Jits_Linear_5,19,9999,9999,9999,1722188916
94,18,19,Jits_Linear_5,20,9999,9999,9999,1722709056
94,18,19,Jits_Linear_5,21,9999,9999,9999,1723228220
94,18,19,Jits_Linear_5,22,9999,9999,9999,1723748432
94,18,19,Jits_Linear_5,23,9999,9999,9999,1724268648
94,18,19,Jits_Linear_5,24,9999,9999,9999,1724788792
94,18,19,Jits_Linear_5,25,9999,9999,9999,1725318220
94,18,19,Jits_Linear_5,26,9999,9999,9999,1725848672
94,18,19,Jits_Linear_5,27,9999,9999,9999,1726379104
94,18,19,Jits_Linear_5,28,9999,9999,9999,1726918772
94,18,19,Jits_Linear_5,29,9999,9999,9999,1727448176
94,18,19,Jits_Linear_5,30,9999,9999,9999,1727988836
94,18,19,Jits_Linear_5,31,9999,9999,9999,1728528512
94,18,19,Jits_Linear_5,32,9999,9999,9999,1729068100
94,18,19,Jits_Linear_5,33,9999,9999,9999,1729608760
94,18,19,Jits_Linear_5,34,9999,9999,9999,1730148432
94,18,19,Jits_Linear_5,35,9999,9999,9999,1730698320
94,18,19,Jits_Linear_5,36,9999,9999,9999,1731248188
94,18,19,Jits_Linear_5,37,9999,9999,9999,1731798100
94,18,19,Jits_Linear_5,38,9999,9999,9999,1732349008
94,18,19,Jits_Linear_5,39,9999,9999,9999,1732898940
94,18,19,Jits_Linear_5,40,9999,9999,9999,1733459012
94,18,19,Jits_Linear_5,41,9999,9999,9999,1734018148
94,18,19,Jits_Linear_5,42,9999,9999,9999,1734578236
94,18,19,Jits_Linear_5,43,9999,9999,9999,1735138376
94,18,19,Jits_Linear_5,44,9999,9999,9999,1735698524
94,18,19,Jits_Linear_5,45,9999,9999,9999,1736268860
94,18,19,Jits_Linear_5,46,9999,9999,9999,1736838252
94,18,19,Jits_Linear_5,47,9999,9999,9999,1737408600
94,18,19,Jits_Linear_5,48,9999,9999,9999,1737978992
94,18,19,Jits_Linear_5,49,9999,9999,9999,1738548284
94,18,19,Jits_Linear_5,50,9999,9999,9999,1739128948
94,18,19,Jits_Linear_5,51,9999,9999,9999,1739708532
94,18,19,Jits_Linear_5,52,9999,9999,9999,1740288068
94,18,19,Jits_Linear_5,53,9999,9999,9999,1740868720
94,18,19,Jits_Linear_5,54,9999,9999,9999,1741448276
94,18,19,Jits_Linear_5,55,9999,9999,9999,1742038080
94,18,19,Jits_Linear_5,56,9999,9999,9999,1742628916
94,18,19,Jits_Linear_5,57,9999,9999,9999,1743218788
94,18,19,Jits_Linear_5,58,9999,9999,9999,1743808600
94,18,19,Jits_Linear_5,59,9999,9999,9999,1744398396
94,18,19,Jits_Linear_5,60,9999,9999,9999,1744998496
94,18,19,Jits_Linear_5,61,9999,9999,9999,1745598572
94,18,19,Jits_Linear_5,62,9999,9999,9999,1746198628
94,18,19,Jits_Linear_5,63,9999,9999,9999,1746798676
94,18,19,Jits_Linear_5,64,9999,9999,9999,1747398760
94,18,19,Jits_Linear_5,65,9999,9999,9999,1748009076
94,18,19,Jits_Linear_5,66,9999,9999,9999,1748618300
94,18,19,Jits_Linear_5,67,9999,9999,9999,1749228604
94,18,19,Jits_Linear_5,68,9999,9999,9999,1749838944
94,18,19,Jits_Linear_5,69,9999,9999,9999,1750448252
94,18,19,Jits_Linear_5,70,9999,9999,9999,1751068768
94,18,19,Jits_Linear_5,71,9999,9999,9999,1751688276
94,18,19,Jits_Linear_5,72,9999,9999,9999,1752308856
94,18,19,Jits_Linear_5,73,9999,9999,9999,1752928316
94,18,19,Jits_Linear_5,74,9999,9999,9999,1753548884
94,18,19,Jits_Linear_5,75,9999,9999,9999,1754178684
94,18,19,Jits_Linear_5,76,9999,9999,9999,1754808440
94,18,19,Jits_Linear_5,77,9999,9999,9999,1755438168
94,18,19,Jits_Linear_5,78,9999,9999,9999,1756068968
94,18,19,Jits_Linear_5,79,9999,9999,9999,1756698688
94,18,19,Jits_Linear_5,80,9999,9999,9999,1757338724
94,18,19,Jits_Linear_5,81,9999,9999,9999,1757978720
94,18,19,Jits_Linear_5,82,9999,9999,9999,1758618728
94,18,19,Jits_Linear_5,83,9999,9999,9999,1759258716
94,18,19,Jits_Linear_5,84,9999,9999,9999,1759898692
94,18,19,Jits_Linear_5,85,9999,9999,9999,1760548964
94,18,19,Jits_Linear_5,86,9999,9999,9999,1761198196
94,18,19,Jits_Linear_5,87,9999,9999,9999,1761848408
94,18,19,Jits_Linear_5,88,9999,9999,9999,1762498648
94,18,19,Jits_Linear_5,89,9999,9999,9999,1763148924
94,18,19,Jits_Linear_5,90,9999,9999,9999,1763808308
94,18,19,Jits_Linear_5,91,9999,9999,9999,1764468824
94,18,19,Jits_Linear_5,92,9999,9999,9999,1765128296
94,18,19,Jits_Linear_5,93,9999,9999,9999,1765788756
94,18,19,Jits_Linear_5,94,9999,9999,9999,1766448228
94,18,19,Jits_Linear_5,95,9999,9999,9999,1767118960
94,18,19,Jits_Linear_5,96,9999,9999,9999,1767788616
94,18,19,Jits_Linear_5,97,9999,9999,9999,1768458316
94,18,19,Jits_Linear_5,98,9999,9999,9999,1769129068
94,18,19,Jits_Linear_5,99,9999,9999,9999,1769798752
94,18,19,Jits_Linear_5,100,9999,9999,9999,1770478652
94,18,19,Jits_Linear_5,101,9999,9999,9999,1771158600
94,18,19,Jits_Linear_5,102,9999,9999,9999,1771838584
94,18,19,Jits_Linear_5,103,9999,9999,9999,1772518456
94,18,19,Jits_Linear_5,104,9999,9999,9999,1773198420
94,18,19,Jits_Linear_5,105,9999,9999,9999,1773888624
94,18,19,Jits_Linear_5,106,9999,9999,9999,1774578764
94,18,19,Jits_Linear_5,107,9999,9999,9999,1775268968
94,18,19,Jits_Linear_5,108,9999,9999,9999,1775958096
94,18,19,Jits_Linear_5,109,9999,9999,9999,1776648252
94,18,19,Jits_Linear_5,110,9999,9999,9999,1777348728
94,18,19,Jits_Linear_5,111,9999,9999,9999,1778048080
94,18,19,Jits_Linear_5,112,9999,9999,9999,1778748520
94,18,19,Jits_Linear_5,113,9999,9999,9999,1779448920
94,18,19,Jits_Linear_5,114,9999,9999,9999,1780148292
94,18,19,Jits_Linear_5,115,9999,9999,9999,1780858944
94,18,19,Jits_Linear_5,116,9999,9999,9999,1781568580
94,18,19,Jits_Linear_5,117,9999,9999,9999,1782278220
94,18,19,Jits_Linear_5,118,9999,9999,9999,1782988892
94,18,19,Jits_Linear_5,119,9999,9999,9999,1783698500
94,18,19,Jits_Linear_5,120,9999,9999,9999,1784418368
94,18,19,Jits_Linear_5,121,9999,9999,9999,1785138248
94,18,19,Jits_Linear_5,122,9999,9999,9999,1785858160
94,18,19,Jits_Linear_5,123,9999,9999,9999,1786579028
94,18,19,Jits_Linear_5,124,9999,9999,9999,1787298900
94,18,19,Jits_Linear_5,125,9999,9999,9999,1788029028
94,18,19,Jits_Linear_5,126,9999,9999,9999,1788758120
94,18,19,Jits_Linear_5,127,9999,9999,9999,1789488204
94,18,19,Jits_Linear_5,128,9999,9999,9999,1790218360
94,18,19,Jits_Linear_5,129,9999,9999,9999,1790948472
94,18,19,Jits_Linear_5,130,9999,9999,9999,1791688828
94,18,19,Jits_Linear_5,131,9999,9999,9999,1792428140
94,18,19,Jits_Linear_5,132,9999,9999,9999,1793168472
94,18,19,Jits_Linear_5,133,9999,9999,9999,1793908852
94,18,19,Jits_Linear_5,134,9999,9999,9999,1794648144
94,18,19,Jits_Linear_5,135,9999,9999,9999,1795398736
94,18,19,Jits_Linear_5,136,9999,9999,9999,1796148284
94,18,19,Jits_Linear_5,137,9999,9999,9999,1796898876
94,18,19,Jits_Linear_5,138,9999,9999,9999,1797648444
94,18,19,Jits_Linear_5,139,9999,9999,9999,1798399084
94,18,19,Jits_Linear_5,140,9999,9999,9999,1799158848
94,18,19,Jits_Linear_5,141,9999,9999,9999,1799918680
94,18,19,Jits_Linear_5,142,9999,9999,9999,1800678508
94,18,19,Jits_Linear_5,143,9999,9999,9999,1801438328
94,18,19,Jits_Linear_5,144,9999,9999,9999,1802198080
94,18,19,Jits_Linear_5,145,9999,9999,9999,1802968184
94,18,19,Jits_Linear_5,146,9999,9999,9999,1803738212
94,18,19,Jits_Linear_5,147,9999,9999,9999,1804508240
94,18,19,Jits_Linear_5,148,9999,9999,9999,1805278260
94,18,19,Jits_Linear_5,149,9999,9999,9999,1806048364
94,18,19,Jits_Linear_5,150,9999,9999,9999,1806828656
94,18,19,Jits_Linear_5,151,9999,9999,9999,1807608936
94,18,19,Jits_Linear_5,152,9999,9999,9999,1808388184
94,18,19,Jits_Linear_5,153,9999,9999,9999,1809168456
94,18,19,Jits_Linear_5,154,9999,9999,9999,1809948744
94,18,19,Jits_Linear_5,155,9999,9999,9999,1810738244
94,18,19,Jits_Linear_5,156,9999,9999,9999,1811528788
94,18,19,Jits_Linear_5,157,9999,9999,9999,1812318264
94,18,19,Jits_Linear_5,158,9999,9999,9999,1813108796
94,18,19,Jits_Linear_5,159,9999,9999,9999,1813898364
94,18,19,Jits_Linear_5,160,9999,9999,9999,1814699084
94,18,19,Jits_Linear_5,161,9999,9999,9999,1815509116
94,18,19,Jits_Linear_5,162,9999,9999,9999,1816308808
94,18,19,Jits_Linear_5,163,9999,9999,9999,1817108560
94,18,19,Jits_Linear_5,164,9999,9999,9999,1817908300
94,18,19,Jits_Linear_5,165,9999,9999,9999,1818718328
94,18,19,Jits_Linear_5,166,9999,9999,9999,1819528292
94,18,19,Jits_Linear_5,167,9999,9999,9999,1820338300
94,18,19,Jits_Linear_5,168,9999,9999,9999,1821148260
94,18,19,Jits_Linear_5,169,9999,9999,9999,1821958220
94,19,18,Jits_Linear_8,0,5,56,103,1832269124
94,19,18,Jits_Linear_8,1,5,63,98,1832272296
94,19,18,Jits_Linear_8,2,5,80,127,1832275568
94,19,18,Jits_Linear_8,0,5,56,103,1833089464
94,19,18,Jits_Linear_8,1,5,63,98,1833092336
94,19,18,Jits_Linear_8,2,5,80,127,1833095832
94,19,18,Jits_Linear_8,0,5,80,127,1833849076
94,19,18,Jits_Linear_8,1,5,63,98,1833939164
94,19,18,Jits_Linear_8,2,5,56,103,1833948612
94,19,18,Jits_Linear_8,0,5,56,103,1834688916
94,19,18,Jits_Linear_8,1,5,63,98,1834699112
94,19,18,Jits_Linear_8,2,5,80,127,1834789168
94,19,18,Jits_Linear_8,0,5,63,98,1835479576
94,19,18,Jits_Linear_8,1,5,80,127,1835509176
94,19,18,Jits_Linear_8,2,5,56,103,1835538704
94,19,18,Jits_Linear_8,0,5,56,103,1836298760
94,19,18,Jits_Linear_8,1,1,48,40,1836325176
94,19,18,Jits_Linear_8,2,5,80,127,1836398932
94,19,18,Jits_Linear_8,3,5,63,98,1836449216
94,19,18,Jits_Linear_8,0,5,56,103,1837108720
94,19,18,Jits_Linear_8,1,1,48,49,1837117768
94,19,18,Jits_Linear_8,2,5,80,127,1837158620
94,19,18,Jits_Linear_8,3,5,63,98,1837198584
94,19,18,Jits_Linear_8,0,5,80,127,1837949196
94,19,18,Jits_Linear_8,1,1,48,51,1837951136
94,19,18,Jits_Linear_8,2,5,63,98,1837978940
94,19,18,Jits_Linear_8,3,5,56,103,1838048976
94,19,18,Jits_Linear_8,0,1,48,51,1838744280
94,19,18,Jits_Linear_8,1,5,63,98,1838789044
94,19,18,Jits_Linear_8,2,5,56,103,1838818796
94,19,18,Jits_Linear_8,3,5,80,127,1838878948
94,19,18,Jits_Linear_8,0,5,56,103,1839538680
94,19,18,Jits_Linear_8,1,5,80,127,1839541676
94,19,18,Jits_Linear_8,2,1,48,48,1839569820
94,19,18,Jits_Linear_8,3,5,63,98,1839659672
94,19,18,Jits_Linear_8,0,1,48,48,1840337292
94,19,18,Jits_Linear_8,1,5,56,103,1840419128
94,19,18,Jits_Linear_8,2,5,80,127,1840458980
94,19,18,Jits_Linear_8,3,5,63,98,1840469472
94,19,18,Jits_Linear_8,0,1,48,42,1841169412
94,19,18,Jits_Linear_8,1,5,56,103,1841178952
94,19,18,Jits_Linear_8,2,5,80,127,1841198660
94,19,18,Jits_Linear_8,3,1,48,27,1841229264
94,19,18,Jits_Linear_8,4,5,63,98,1841279280
94,19,18,Jits_Linear_8,0,5,80,127,1841968720
94,19,18,Jits_Linear_8,1,1,48,40,1842034468
94,19,18,Jits_Linear_8,2,5,56,103,1842068840
94,19,18,Jits_Linear_8,3,5,63,98,1842079184
94,19,18,Jits_Linear_8,4,1,48,24,1842097052
94,19,18,Jits_Linear_8,0,1,48,42,1842723548
94,19,18,Jits_Linear_8,1,5,63,98,1842738488
94,19,18,Jits_Linear_8,2,5,80,127,1842799032
94,19,18,Jits_Linear_8,3,5,56,103,1842809228
94,19,18,Jits_Linear_8,0,1,48,38,1843448680
94,19,18,Jits_Linear_8,1,5,56,103,1843539660
94,19,18,Jits_Linear_8,2,5,63,98,1843608980
94,19,18,Jits_Linear_8,3,5,80,127,1843612272
94,19,18,Jits_Linear_8,0,1,48,39,1844234704
94,19,18,Jits_Linear_8,1,5,63,98,1844368712
94,19,18,Jits_Linear_8,2,5,56,103,1844418912
94,19,18,Jits_Linear_8,3,5,80,127,1844422128
94,19,18,Jits_Linear_8,0,1,48,47,1845115460
94,19,18,Jits_Linear_8,1,5,56,103,1845119612
94,19,18,Jits_Linear_8,2,5,80,127,1845122604
94,19,18,Jits_Linear_8,3,1,48,31,1845168200
94,19,18,Jits_Linear_8,4,5,63,98,1845208600
94,19,18,Jits_Linear_8,0,1,48,47,1845835804
94,19,18,Jits_Linear_8,1,5,63,98,1845948760
94,19,18,Jits_Linear_8,2,5,56,103,1846038820
94,19,18,Jits_Linear_8,3,5,80,127,1846068792
94,19,18,Jits_Linear_8,0,1,48,40,1846602524
94,19,18,Jits_Linear_8,1,5,56,103,1846729036
94,19,18,Jits_Linear_8,2,5,63,98,1846829436
94,19,18,Jits_Linear_8,3,5,80,127,1846859184
94,19,18,Jits_Linear_8,0,1,48,37,1847463516
94,19,18,Jits_Linear_8,1,5,63,98,1847539148
94,19,18,Jits_Linear_8,2,5,56,103,1847549416
94,19,18,Jits_Linear_8,3,5,80,127,1847639536
94,19,18,Jits_Linear_8,0,1,48,39,1848251964
94,19,18,Jits_Linear_8,1,5,63,98,1848338756
94,19,18,Jits_Linear_8,2,5,56,103,1848418760
94,19,18,Jits_Linear_8,3,5,80,127,1848421680
94,19,18,Jits_Linear_8,0,5,80,127,1849079172
94,19,18,Jits_Linear_8,1,5,63,98,1849098584
94,19,18,Jits_Linear_8,2,1,48,40,1849114360
94,19,18,Jits_Linear_8,3,5,56,103,1849158968
94,19,18,Jits_Linear_8,0,1,48,41,1849812816
94,19,18,Jits_Linear_8,1,5,56,103,1849899312
94,19,18,Jits_Linear_8,2,5,63,98,1849918780
94,19,18,Jits_Linear_8,3,5,80,127,1849922144
94,19,18,Jits_Linear_8,0,1,48,41,1850582516
94,19,18,Jits_Linear_8,1,5,63,98,1850619184
94,19,18,Jits_Linear_8,2,5,80,127,1850699116
94,19,18,Jits_Linear_8,3,5,56,103,1850709464
94,19,18,Jits_Linear_8,0,1,48,32,1851360020
94,19,18,Jits_Linear_8,1,1,48,22,1851416480
94,19,18,Jits_Linear_8,2,5,63,98,1851419140
94,19,18,Jits_Linear_8,3,5,56,103,1851438552
94,19,18,Jits_Linear_8,4,5,80,127,1851488532
94,19,18,Jits_Linear_8,0,1,48,43,1852161616
94,19,18,Jits_Linear_8,1,5,80,127,1852199404
94,19,18,Jits_Linear_8,2,5,63,98,1852239196
94,19,18,Jits_Linear_8,3,5,56,103,1852258740
94,19,18,Jits_Linear_8,0,1,48,39,1852907428
94,19,18,Jits_Linear_8,1,1,48,23,1852974528
94,19,18,Jits_Linear_8,2,5,56,103,1853009400
94,19,18,Jits_Linear_8,3,5,63,98,1853018696
94,19,18,Jits_Linear_8,4,5,80,127,1853039084
94,19,18,Jits_Linear_8,0,1,48,43,1853651340
94,19,18,Jits_Linear_8,1,5,56,103,1853708680
94,19,18,Jits_Linear_8,2,1,48,27,1853725560
94,19,18,Jits_Linear_8,3,5,63,98,1853798720
94,19,18,Jits_Linear_8,4,5,80,127,1853859420
94,19,18,Jits_Linear_8,0,1,48,39,1854467852
94,19,18,Jits_Linear_8,1,5,80,127,1854509608
94,19,18,Jits_Linear_8,2,5,56,103,1854518608
94,19,18,Jits_Linear_8,3,1,48,27,1854529956
94,19,18,Jits_Linear_8,4,5,63,98,1854589264
94,19,18,Jits_Linear_8,0,1,48,46,1855195788
94,19,18,Jits_Linear_8,1,1,48,30,1855261860
94,19,18,Jits_Linear_8,2,5,63,98,1855309236
94,19,18,Jits_Linear_8,3,5,80,127,1855399384
94,19,18,Jits_Linear_8,4,5,56,103,1855408684
94,19,18,Jits_Linear_8,0,5,63,98,1856008536
94,19,18,Jits_Linear_8,1,1,48,40,1856055100
94,19,18,Jits_Linear_8,2,5,80,127,1856058880
94,19,18,Jits_Linear_8,3,1,48,29,1856110984
94,19,18,Jits_Linear_8,4,5,56,103,1856119024
94,19,18,Jits_Linear_8,0,1,48,42,1856768592
94,19,18,Jits_Linear_8,1,5,56,103,1856799108
94,19,18,Jits_Linear_8,2,5,80,127,1856849384
94,19,18,Jits_Linear_8,3,5,63,98,1856868708
94,19,18,Jits_Linear_8,0,1,48,44,1857482548
94,19,18,Jits_Linear_8,1,5,56,103,1857529180
94,19,18,Jits_Linear_8,2,1,48,31,1857536788
94,19,18,Jits_Linear_8,3,5,80,127,1857588580
94,19,18,Jits_Linear_8,4,5,63,98,1857659540
94,19,18,Jits_Linear_8,0,1,48,42,1858226000
94,19,18,Jits_Linear_8,1,5,56,103,1858288972
94,19,18,Jits_Linear_8,2,1,48,26,1858305704
94,19,18,Jits_Linear_8,3,5,80,127,1858318628
94,19,18,Jits_Linear_8,4,5,63,98,1858349572
94,19,18,Jits_Linear_8,0,1,48,41,1859010152
94,19,18,Jits_Linear_8,1,1,48,28,1859076296
94,19,18,Jits_Linear_8,2,5,56,103,1859088748
94,19,18,Jits_Linear_8,3,5,80,127,1859109508
94,19,18,Jits_Linear_8,4,5,63,98,1859168480
94,19,18,Jits_Linear_8,0,1,48,40,1859850040
94,19,18,Jits_Linear_8,1,5,80,127,1859928512
94,19,18,Jits_Linear_8,2,1,48,22,1859939740
94,19,18,Jits_Linear_8,3,5,56,103,1859940708
94,19,18,Jits_Linear_8,4,5,63,98,1859948956
94,19,18,Jits_Linear_8,0,5,56,103,1860638948
94,19,18,Jits_Linear_8,1,1,48,54,1860671360
94,19,18,Jits_Linear_8,2,5,80,127,1860678956
94,19,18,Jits_Linear_8,3,5,63,98,1860708928
94,19,18,Jits_Linear_8,4,1,48,19,1860791696
94,19,18,Jits_Linear_8,0,1,48,40,1861332792
94,19,18,Jits_Linear_8,1,5,56,103,1861358900
94,19,18,Jits_Linear_8,2,5,63,98,1861388800
94,19,18,Jits_Linear_8,3,5,80,127,1861428796
94,19,18,Jits_Linear_8,0,1,48,51,1862014324
94,19,18,Jits_Linear_8,1,5,80,127,1862059680
94,19,18,Jits_Linear_8,2,1,48,33,1862064432
94,19,18,Jits_Linear_8,3,5,63,98,1862108516
94,19,18,Jits_Linear_8,4,5,56,103,1862129048
94,19,18,Jits_Linear_8,0,1,48,55,1862715940
94,19,18,Jits_Linear_8,1,1,48,38,1862762532
94,19,18,Jits_Linear_8,2,5,56,103,1862838704
94,19,18,Jits_Linear_8,3,5,80,127,1862909420
94,19,18,Jits_Linear_8,4,5,63,98,1862968616
94,19,18,Jits_Linear_8,0,1,48,51,1863573176
94,19,18,Jits_Linear_8,1,5,80,127,1863578972
94,19,18,Jits_Linear_8,2,1,48,33,1863614064
94,19,18,Jits_Linear_8,3,5,63,98,1863669088
94,19,18,Jits_Linear_8,4,5,56,103,1863688500
94,19,18,Jits_Linear_8,0,1,48,56,1864281408
94,19,18,Jits_Linear_8,1,5,63,98,1864338848
94,19,18,Jits_Linear_8,2,1,48,34,1864344200
94,19,18,Jits_Linear_8,3,5,56,103,1864359216
94,19,18,Jits_Linear_8,4,5,80,127,1864399152
94,19,18,Jits_Linear_8,0,1,48,49,1865022548
94,19,18,Jits_Linear_8,1,5,80,127,1865039356
94,19,18,Jits_Linear_8,2,5,63,98,1865058620
94,19,18,Jits_Linear_8,3,1,48,31,1865082948
94,19,18,Jits_Linear_8,4,5,56,103,1865138492
94,19,18,Jits_Linear_8,0,1,48,50,1865733780
94,19,18,Jits_Linear_8,1,5,63,98,1865769552
94,19,18,Jits_Linear_8,2,5,56,103,1865878880
94,19,18,Jits_Linear_8,3,5,80,127,1865882020
94,19,18,Jits_Linear_8,0,1,48,46,1866470372
94,19,18,Jits_Linear_8,1,5,63,98,1866529068
94,19,18,Jits_Linear_8,2,5,56,103,1866539336
94,19,18,Jits_Linear_8,3,5,80,127,1866542404
94,19,18,Jits_Linear_8,0,1,48,48,1867181332
94,19,18,Jits_Linear_8,1,1,48,30,1867231512
94,19,18,Jits_Linear_8,2,5,56,103,1867249068
94,19,18,Jits_Linear_8,3,5,80,127,1867368784
94,19,18,Jits_Linear_8,4,5,63,98,1867408748
94,19,18,Jits_Linear_8,0,1,48,50,1867932664
94,19,18,Jits_Linear_8,1,1,48,32,1867987796
94,19,18,Jits_Linear_8,2,5,56,103,1867998532
94,19,18,Jits_Linear_8,3,5,80,127,1868078404
94,19,18,Jits_Linear_8,4,5,63,98,1868098848
94,19,18,Jits_Linear_8,0,1,48,48,1868713364
94,19,18,Jits_Linear_8,1,5,56,103,1868728752
94,19,18,Jits_Linear_8,2,5,63,98,1868839400
94,19,18,Jits_Linear_8,3,5,80,127,1868842764
94,19,18,Jits_Linear_8,0,1,48,46,1869406488
94,19,18,Jits_Linear_8,1,1,48,31,1869454652
94,19,18,Jits_Linear_8,2,5,56,103,1869488624
94,19,18,Jits_Linear_8,3,5,80,127,1869519424
94,19,18,Jits_Linear_8,4,5,63,98,1869538760
94,19,18,Jits_Linear_8,0,1,48,45,1870190856
94,19,18,Jits_Linear_8,1,5,63,98,1870199416
94,19,18,Jits_Linear_8,2,5,56,103,1870209336
94,19,18,Jits_Linear_8,3,5,80,127,1870218556
94,19,18,Jits_Linear_8,4,1,48,31,1870239640
94,19,18,Jits_Linear_8,0,5,80,127,1870908792
94,19,18,Jits_Linear_8,1,1,48,40,1870926212
94,19,18,Jits_Linear_8,2,5,56,103,1870958912
94,19,18,Jits_Linear_8,3,5,63,98,1870998876
94,19,18,Jits_Linear_8,0,1,48,48,1871633376
94,19,18,Jits_Linear_8,1,5,80,127,1871649292
94,19,18,Jits_Linear_8,2,5,63,98,1871668556
94,19,18,Jits_Linear_8,3,1,48,32,1871684692
94,19,18,Jits_Linear_8,4,5,56,103,1871718812
94,19,18,Jits_Linear_8,0,1,48,44,1872371228
94,19,18,Jits_Linear_8,1,5,80,127,1872379496
94,19,18,Jits_Linear_8,2,5,56,103,1872408872
94,19,18,Jits_Linear_8,3,1,48,26,1872424932
94,19,18,Jits_Linear_8,4,5,63,98,1872478612
94,19,18,Jits_Linear_8,0,5,56,103,1873149496
94,19,18,Jits_Linear_8,1,5,80,127,1873158568
94,19,18,Jits_Linear_8,2,1,48,45,1873170832
94,19,18,Jits_Linear_8,3,5,63,98,1873198428
94,19,18,Jits_Linear_8,4,1,48,29,1873221532
94,19,18,Jits_Linear_8,0,5,56,103,1873779000
94,19,18,Jits_Linear_8,1,5,63,98,1873798660
94,19,18,Jits_Linear_8,2,5,80,127,1873869312
94,19,18,Jits_Linear_8,3,1,48,42,1873935656
94,19,18,Jits_Linear_8,4,1,48,24,1873992724
94,19,18,Jits_Linear_8,0,1,48,43,1874501536
94,19,18,Jits_Linear_8,1,5,63,98,1874519472
94,19,18,Jits_Linear_8,2,5,80,127,1874578692
94,19,18,Jits_Linear_8,3,5,56,103,1874599360
94,19,18,Jits_Linear_8,0,1,48,46,1875178352
94,19,18,Jits_Linear_8,1,5,80,127,1875218684
94,19,18,Jits_Linear_8,2,1,48,27,1875241792
94,19,18,Jits_Linear_8,3,5,56,103,1875248636
94,19,18,Jits_Linear_8,4,5,63,98,1875279284
94,19,18,Jits_Linear_8,0,1,48,48,1875876172
94,19,18,Jits_Linear_8,1,5,56,103,1875928656
94,19,18,Jits_Linear_8,2,1,48,29,1875947728
94,19,18,Jits_Linear_8,3,5,63,98,1875988728
94,19,18,Jits_Linear_8,4,5,80,127,1876049328
94,19,18,Jits_Linear_8,0,1,48,47,1876562080
94,19,18,Jits_Linear_8,1,1,48,31,1876620000
94,19,18,Jits_Linear_8,2,5,80,127,1876668728
94,19,18,Jits_Linear_8,3,5,56,103,1876689260
94,19,18,Jits_Linear_8,4,5,63,98,1876758776
94,19,18,Jits_Linear_8,0,1,48,48,1877286724
94,19,18,Jits_Linear_8,1,5,80,127,1877378420
94,19,18,Jits_Linear_8,2,5,63,98,1877399016
94,19,18,Jits_Linear_8,3,5,56,103,1877428540
94,19,18,Jits_Linear_8,0,1,48,43,1878051800
94,19,18,Jits_Linear_8,1,5,80,127,1878068688
94,19,18,Jits_Linear_8,2,5,63,98,1878089000
94,19,18,Jits_Linear_8,3,5,56,103,1878148576
94,19,18,Jits_Linear_8,0,1,48,48,1878704408
94,19,18,Jits_Linear_8,1,5,80,127,1878768876
94,19,18,Jits_Linear_8,2,5,56,103,1878869332
94,19,18,Jits_Linear_8,3,5,63,98,1878899008
94,19,18,Jits_Linear_8,0,5,63,98,1879459480
94,19,18,Jits_Linear_8,1,5,80,127,1879509312
94,19,18,Jits_Linear_8,2,5,56,103,1879528872
94,19,18,Jits_Linear_8,3,1,48,42,1879539864
94,19,18,Jits_Linear_8,0,1,48,46,1880062652
94,19,18,Jits_Linear_8,1,1,48,27,1880113356
94,19,18,Jits_Linear_8,2,5,80,127,1880198452
94,19,18,Jits_Linear_8,3,5,56,103,1880229380
94,19,18,Jits_Linear_8,4,5,63,98,1880232524
94,19,18,Jits_Linear_8,0,1,48,41,1880828000
94,19,18,Jits_Linear_8,1,1,48,19,1880901848
94,19,18,Jits_Linear_8,2,5,63,98,1880928624
94,19,18,Jits_Linear_8,3,5,56,103,1880968664
94,19,18,Jits_Linear_8,4,5,80,127,1880988972
94,19,18,Jits_Linear_8,0,5,80,127,1881568656
94,19,18,Jits_Linear_8,1,1,48,48,1881576184
94,19,18,Jits_Linear_8,2,1,48,31,1881632660
94,19,18,Jits_Linear_8,3,5,63,98,1881648428
94,19,18,Jits_Linear_8,4,5,56,103,1881688364
94,19,18,Jits_Linear_8,0,1,48,33,1882209136
94,19,18,Jits_Linear_8,1,5,63,98,1882279464
94,19,18,Jits_Linear_8,2,5,80,127,1882359172
94,19,18,Jits_Linear_8,3,5,56,103,1882378588
94,19,18,Jits_Linear_8,0,1,48,43,1882890900
94,19,18,Jits_Linear_8,1,5,56,103,1883009464
94,19,18,Jits_Linear_8,2,5,63,98,1883018612
94,19,18,Jits_Linear_8,3,5,80,127,1883058552
94,19,18,Jits_Linear_8,0,5,56,103,1883618696
94,19,18,Jits_Linear_8,1,5,80,127,1883621616
94,19,18,Jits_Linear_8,2,1,48,44,1883688868
94,19,18,Jits_Linear_8,3,1,48,29,1883740540
94,19,18,Jits_Linear_8,4,5,63,98,1883759068
94,19,18,Jits_Linear_8,0,5,56,103,1884298484
94,19,18,Jits_Linear_8,1,1,48,47,1884317564
94,19,18,Jits_Linear_8,2,1,48,30,1884371480
94,19,18,Jits_Linear_8,3,5,63,98,1884388668
94,19,18,Jits_Linear_8,4,5,80,127,1884459396
94,19,18,Jits_Linear_8,0,1,48,45,1884994172
94,19,18,Jits_Linear_8,1,1,48,28,1885047732
94,19,18,Jits_Linear_8,2,5,63,98,1885058344
94,19,18,Jits_Linear_8,3,5,80,127,1885061708
94,19,18,Jits_Linear_8,4,5,56,103,1885118956
94,19,18,Jits_Linear_8,0,1,48,48,1885677480
94,19,18,Jits_Linear_8,1,1,48,32,1885726840
94,19,18,Jits_Linear_8,2,5,80,127,1885779452
94,19,18,Jits_Linear_8,3,5,56,103,1885798716
94,19,18,Jits_Linear_8,4,5,63,98,1885809136
94,19,18,Jits_Linear_8,0,5,56,103,1886369136
94,19,18,Jits_Linear_8,1,5,63,98,1886379488
94,19,18,Jits_Linear_8,2,1,48,48,1886411900
94,19,18,Jits_Linear_8,3,5,80,127,1886449084
94,19,18,Jits_Linear_8,4,1,48,32,1886464248
94,19,18,Jits_Linear_8,0,1,48,42,1886984956
94,19,18,Jits_Linear_8,1,1,48,29,1887029900
94,19,18,Jits_Linear_8,2,5,80,127,1887049180
94,19,18,Jits_Linear_8,3,5,56,103,1887099408
94,19,18,Jits_Linear_8,4,5,63,98,1887149372
94,19,18,Jits_Linear_8,0,1,48,39,1887658756
94,19,18,Jits_Linear_8,1,1,48,25,1887717328
94,19,18,Jits_Linear_8,2,5,56,103,1887808980
94,19,18,Jits_Linear_8,3,5,63,98,1887819388
94,19,18,Jits_Linear_8,4,5,80,127,1887859400
94,19,18,Jits_Linear_8,0,1,48,46,1888397516
94,19,18,Jits_Linear_8,1,5,56,103,1888429376
94,19,18,Jits_Linear_8,2,1,48,32,1888443040
94,19,18,Jits_Linear_8,3,5,63,98,1888469292
94,19,18,Jits_Linear_8,4,5,80,127,1888518448
94,19,18,Jits_Linear_8,0,5,80,127,1889059316
94,19,18,Jits_Linear_8,1,1,48,40,1889069484
94,19,18,Jits_Linear_8,2,5,56,103,1889109364
94,19,18,Jits_Linear_8,3,5,63,98,1889129076
94,19,18,Jits_Linear_8,0,1,48,45,1889693172
94,19,18,Jits_Linear_8,1,5,80,127,1889739280
94,19,18,Jits_Linear_8,2,5,63,98,1889798612
94,19,18,Jits_Linear_8,3,5,56,103,1889879304
94,19,18,Jits_Linear_8,0,5,80,127,1890389328
94,19,18,Jits_Linear_8,1,1,48,48,1890396652
94,19,18,Jits_Linear_8,2,5,56,103,1890429212
94,19,18,Jits_Linear_8,3,1,48,32,1890442732
94,19,18,Jits_Linear_8,4,5,63,98,1890448752
94,19,18,Jits_Linear_8,0,1,48,41,1891072900
94,19,18,Jits_Linear_8,1,5,56,103,1891109344
94,19,18,Jits_Linear_8,2,5,80,127,1891118344
94,19,18,Jits_Linear_8,3,5,63,98,1891159480
94,19,18,Jits_Linear_8,0,1,48,49,1891772192
94,19,18,Jits_Linear_8,1,5,56,103,1891839280
94,19,18,Jits_Linear_8,2,5,63,98,1891879276
94,19,18,Jits_Linear_8,3,5,80,127,1891882568
94,19,18,Jits_Linear_8,0,5,63,98,1892389304
94,19,18,Jits_Linear_8,1,5,80,127,1892429392
94,19,18,Jits_Linear_8,2,1,48,51,1892454536
94,19,18,Jits_Linear_8,3,1,48,31,1892499976
94,19,18,Jits_Linear_8,4,5,56,103,1892501016
94,19,18,Jits_Linear_8,0,5,63,98,1893038440
94,19,18,Jits_Linear_8,1,1,48,43,1893040456
94,19,18,Jits_Linear_8,2,5,56,103,1893119204
94,19,18,Jits_Linear_8,3,5,80,127,1893178832
94,19,18,Jits_Linear_8,0,5,80,127,1893709232
94,19,18,Jits_Linear_8,1,1,48,46,1893713252
94,19,18,Jits_Linear_8,2,5,63,98,1893759456
94,19,18,Jits_Linear_8,3,5,56,103,1893789280
94,19,18,Jits_Linear_8,0,5,56,103,1894359384
94,19,18,Jits_Linear_8,1,1,48,47,1894380640
94,19,18,Jits_Linear_8,2,5,63,98,1894408608
94,19,18,Jits_Linear_8,3,5,80,127,1894418732
94,19,18,Jits_Linear_8,4,1,48,29,1894439968
94,19,18,Jits_Linear_8,0,1,48,47,1895008172
94,19,18,Jits_Linear_8,1,5,56,103,1895029100
94,19,18,Jits_Linear_8,2,1,48,25,1895077636
94,19,18,Jits_Linear_8,3,5,63,98,1895138644
94,19,18,Jits_Linear_8,4,5,80,127,1895159104
94,19,18,Jits_Linear_8,0,5,63,98,1895679296
94,19,18,Jits_Linear_8,1,1,48,49,1895705788
94,19,18,Jits_Linear_8,2,5,80,127,1895728448
94,19,18,Jits_Linear_8,3,1,48,30,1895772004
94,19,18,Jits_Linear_8,4,5,56,103,1895818584
94,19,18,Jits_Linear_8,0,1,48,43,1896319668
94,19,18,Jits_Linear_8,1,5,63,98,1896320932
94,19,18,Jits_Linear_8,2,5,80,127,1896349116
94,19,18,Jits_Linear_8,3,5,56,103,1896439084
94,19,18,Jits_Linear_8,0,5,63,98,1896968440
94,19,18,Jits_Linear_8,1,5,56,103,1896978860
94,19,18,Jits_Linear_8,2,1,48,42,1897070380
94,19,18,Jits_Linear_8,3,5,80,127,1897079024
94,19,18,Jits_Linear_8,0,1,48,42,1897603328
94,19,18,Jits_Linear_8,1,1,48,23,1897666532
94,19,18,Jits_Linear_8,2,5,63,98,1897719092
94,19,18,Jits_Linear_8,3,5,80,127,1897749064
94,19,18,Jits_Linear_8,4,5,56,103,1897778428
94,19,18,Jits_Linear_8,0,1,48,41,1898323696
94,19,18,Jits_Linear_8,1,5,80,127,1898378676
94,19,18,Jits_Linear_8,2,1,48,24,1898382828
94,19,18,Jits_Linear_8,3,5,63,98,1898388704
94,19,18,Jits_Linear_8,4,5,56,103,1898418528
94,19,18,Jits_Linear_8,0,5,80,127,1898919316
94,19,18,Jits_Linear_8,1,5,63,98,1898938876
94,19,18,Jits_Linear_8,2,5,56,103,1898989152
94,19,18,Jits_Linear_8,3,1,48,40,1899079100
94,19,18,Jits_Linear_8,0,5,63,98,1899589072
94,19,18,Jits_Linear_8,1,1,48,32,1899591160
94,19,18,Jits_Linear_8,2,5,80,127,1899649408
94,19,18,Jits_Linear_8,3,5,56,103,1899669044
94,19,18,Jits_Linear_8,0,5,63,98,1900189240
94,19,18,Jits_Linear_8,1,1,48,42,1900234536
94,19,18,Jits_Linear_8,2,5,56,103,1900239212
94,19,18,Jits_Linear_8,3,5,80,127,1900248436
94,19,18,Jits_Linear_8,4,1,48,24,1900293492
94,19,18,Jits_Linear_8,0,1,48,44,1900821764
94,19,18,Jits_Linear_8,1,5,56,103,1900858948
94,19,18,Jits_Linear_8,2,5,80,127,1900869144
94,19,18,Jits_Linear_8,3,1,48,25,1900882736
94,19,18,Jits_Linear_8,4,5,63,98,1900969320
94,19,18,Jits_Linear_8,0,5,80,127,1901458796
94,19,18,Jits_Linear_8,1,5,63,98,1901469140
94,19,18,Jits_Linear_8,2,1,48,45,1901473308
94,19,18,Jits_Linear_8,3,1,48,28,1901545576
94,19,18,Jits_Linear_8,4,5,56,103,1901618432
94,19,18,Jits_Linear_8,0,5,63,98,1902099004
94,19,18,Jits_Linear_8,1,5,80,127,1902138944
94,19,18,Jits_Linear_8,2,1,48,39,1902157280
94,19,18,Jits_Linear_8,3,5,56,103,1902218532
94,19,18,Jits_Linear_8,0,5,56,103,1902719476
94,19,18,Jits_Linear_8,1,1,48,40,1902783732
94,19,18,Jits_Linear_8,2,5,80,127,1902818596
94,19,18,Jits_Linear_8,3,1,48,25,1902839044
94,19,18,Jits_Linear_8,4,5,63,98,1902840456
94,19,18,Jits_Linear_8,0,1,48,45,1903374940
94,19,18,Jits_Linear_8,1,5,80,127,1903408468
94,19,18,Jits_Linear_8,2,5,56,103,1903418588
94,19,18,Jits_Linear_8,3,1,48,30,1903438624
94,19,18,Jits_Linear_8,4,5,63,98,1903508796
94,19,18,Jits_Linear_8,0,5,56,103,1904039336
94,19,18,Jits_Linear_8,1,1,48,38,1904048828
94,19,18,Jits_Linear_8,2,5,63,98,1904058816
94,19,18,Jits_Linear_8,3,5,80,127,1904138608
94,19,18,Jits_Linear_8,0,5,63,98,1904608480
94,19,18,Jits_Linear_8,1,1,48,47,1904635416
94,19,18,Jits_Linear_8,2,5,56,103,1904698904
94,19,18,Jits_Linear_8,3,5,80,127,1904702044
94,19,18,Jits_Linear_8,4,1,48,18,1904747716
94,19,18,Jits_Linear_8,0,1,48,54,1905242192
94,19,18,Jits_Linear_8,1,5,56,103,1905259148
94,19,18,Jits_Linear_8,2,5,80,127,1905319268
94,19,18,Jits_Linear_8,3,5,63,98,1905328568
94,19,18,Jits_Linear_8,0,1,48,36,1905866400
94,19,18,Jits_Linear_8,1,5,80,127,1905928628
94,19,18,Jits_Linear_8,2,5,56,103,1905939272
94,19,18,Jits_Linear_8,3,5,63,98,1905942188
94,19,18,Jits_Linear_8,0,5,56,103,1906509140
94,19,18,Jits_Linear_8,1,5,80,127,1906519488
94,19,18,Jits_Linear_8,2,5,63,98,1906538900
94,19,18,Jits_Linear_8,3,1,48,52,1906567744
94,19,18,Jits_Linear_8,0,5,63,98,1907099132
94,19,18,Jits_Linear_8,1,5,80,127,1907159376
94,19,18,Jits_Linear_8,2,1,48,47,1907166156
94,19,18,Jits_Linear_8,3,5,56,103,1907208600
94,19,18,Jits_Linear_8,0,5,63,98,1907799448
94,19,18,Jits_Linear_8,1,5,56,103,1907808600
94,19,18,Jits_Linear_8,2,1,48,50,1907812092
94,19,18,Jits_Linear_8,3,5,80,127,1907858892
94,19,18,Jits_Linear_8,0,5,63,98,1908309240
94,19,18,Jits_Linear_8,1,5,80,127,1908329024
94,19,18,Jits_Linear_8,2,5,56,103,1908338996
94,19,18,Jits_Linear_8,3,1,48,48,1908399076
94,19,18,Jits_Linear_8,0,1,48,46,1908902176
94,19,18,Jits_Linear_8,1,5,63,98,1908918684
94,19,18,Jits_Linear_8,2,5,80,127,1908922048
94,19,18,Jits_Linear_8,3,5,56,103,1908958548
94,19,18,Jits_Linear_8,4,1,48,15,1909047208
94,19,18,Jits_Linear_8,0,1,48,46,1909574640
94,19,18,Jits_Linear_8,1,5,63,98,1909598504
94,19,18,Jits_Linear_8,2,5,80,127,1909629252
94,19,18,Jits_Linear_8,3,5,56,103,1909638476
94,19,18,Jits_Linear_8,0,5,56,103,1910158896
94,19,18,Jits_Linear_8,1,5,80,127,1910189396
94,19,18,Jits_Linear_8,2,1,48,42,1910203224
94,19,18,Jits_Linear_8,3,5,63,98,1910219064
94,19,18,Jits_Linear_8,0,1,48,28,1910811992
94,19,18,Jits_Linear_8,1,5,63,98,1910859072
94,19,18,Jits_Linear_8,2,5,56,103,1910899160
94,19,18,Jits_Linear_8,3,5,80,127,1910902376
94,19,18,Jits_Linear_8,0,5,80,127,1911358976
94,19,18,Jits_Linear_8,1,5,56,103,1911438652
94,19,18,Jits_Linear_8,2,1,48,28,1911485964
94,19,18,Jits_Linear_8,3,5,63,98,1911489068
94,19,18,Jits_Linear_8,0,1,48,43,1911933872
94,19,18,Jits_Linear_8,1,5,80,127,1911938480
94,19,18,Jits_Linear_8,2,5,56,103,1911959088
94,19,18,Jits_Linear_8,3,5,63,98,1912049056
94,19,18,Jits_Linear_8,0,5,80,127,1912578412
94,19,18,Jits_Linear_8,1,5,63,98,1912619252
94,19,18,Jits_Linear_8,2,5,56,103,1912659188
94,19,18,Jits_Linear_8,3,1,48,36,1912663136
94,19,18,Jits_Linear_8,0,5,63,98,1913148756
94,19,18,Jits_Linear_8,1,5,80,127,1913209320
94,19,18,Jits_Linear_8,2,1,48,43,1913217840
94,19,18,Jits_Linear_8,3,5,56,103,1913238988
94,19,18,Jits_Linear_8,0,1,48,41,1913719200
94,19,18,Jits_Linear_8,1,5,56,103,1913748892
94,19,18,Jits_Linear_8,2,5,80,127,1913778420
94,19,18,Jits_Linear_8,3,5,63,98,1913868536
94,19,18,Jits_Linear_8,0,5,56,103,1914348964
94,19,18,Jits_Linear_8,1,1,48,46,1914437804
94,19,18,Jits_Linear_8,2,5,80,127,1914458428
94,19,18,Jits_Linear_8,3,5,63,98,1914489176
94,19,18,Jits_Linear_8,0,5,56,103,1914988840
94,19,18,Jits_Linear_8,1,1,48,49,1915043752
94,19,18,Jits_Linear_8,2,5,63,98,1915049252
94,19,18,Jits_Linear_8,3,5,80,127,1915079076
94,19,18,Jits_Linear_8,0,5,56,103,1915549024
94,19,18,Jits_Linear_8,1,5,63,98,1915618632
94,19,18,Jits_Linear_8,2,1,48,49,1915638640
94,19,18,Jits_Linear_8,3,5,80,127,1915640208
94,19,18,Jits_Linear_8,0,5,80,127,1916109104
94,19,18,Jits_Linear_8,1,5,63,98,1916128740
94,19,18,Jits_Linear_8,2,5,56,103,1916179016
94,19,18,Jits_Linear_8,3,1,48,45,1916198472
94,19,18,Jits_Linear_8,0,5,63,98,1916709184
94,19,18,Jits_Linear_8,1,5,80,127,1916718480
94,19,18,Jits_Linear_8,2,1,48,36,1916747156
94,19,18,Jits_Linear_8,3,5,56,103,1916768676
94,19,18,Jits_Linear_8,0,5,63,98,1917288948
94,19,18,Jits_Linear_8,1,1,48,46,1917291920
94,19,18,Jits_Linear_8,2,5,80,127,1917358500
94,19,18,Jits_Linear_8,3,5,56,103,1917378884
94,19,18,Jits_Linear_8,0,1,48,48,1917898620
94,19,18,Jits_Linear_8,1,5,63,98,1917900140
94,19,18,Jits_Linear_8,2,5,80,127,1917903192
94,19,18,Jits_Linear_8,3,5,56,103,1917968756
94,19,18,Jits_Linear_8,0,5,80,127,1918428500
94,19,18,Jits_Linear_8,1,1,48,44,1918446368
94,19,18,Jits_Linear_8,2,5,56,103,1918449028
94,19,18,Jits_Linear_8,3,5,63,98,1918459148
94,19,18,Jits_Linear_8,4,1,48,22,1918550948
94,19,18,Jits_Linear_8,0,1,48,46,1919028696
94,19,18,Jits_Linear_8,1,5,56,103,1919030036
94,19,18,Jits_Linear_8,2,5,63,98,1919118628
94,19,18,Jits_Linear_8,3,5,80,127,1919121920
94,19,18,Jits_Linear_8,0,5,80,127,1919578568
94,19,18,Jits_Linear_8,1,5,56,103,1919589136
94,19,18,Jits_Linear_8,2,5,63,98,1919609100
94,19,18,Jits_Linear_8,3,1,48,48,1919625920
94,19,18,Jits_Linear_8,4,1,48,18,1919756860
94,19,18,Jits_Linear_8,0,1,48,46,1920107412
94,19,18,Jits_Linear_8,1,5,63,98,1920149040
94,19,18,Jits_Linear_8,2,5,80,127,1920209196
94,19,18,Jits_Linear_8,3,5,56,103,1920218348
94,19,18,Jits_Linear_8,0,1,48,42,1920745780
94,19,18,Jits_Linear_8,1,5,63,98,1920788972
94,19,18,Jits_Linear_8,2,5,80,127,1920818500
94,19,18,Jits_Linear_8,3,5,56,103,1920858424
94,19,18,Jits_Linear_8,0,5,56,103,1921349044
94,19,18,Jits_Linear_8,1,5,80,127,1921359312
94,19,18,Jits_Linear_8,2,1,48,40,1921363852
94,19,18,Jits_Linear_8,3,5,63,98,1921399272
94,19,18,Jits_Linear_8,0,5,80,127,1921879372
94,19,18,Jits_Linear_8,1,1,48,44,1921951740
94,19,18,Jits_Linear_8,2,5,56,103,1921959340
94,19,18,Jits_Linear_8,3,5,63,98,1921968636
94,19,18,Jits_Linear_8,0,5,80,127,1922488776
94,19,18,Jits_Linear_8,1,1,48,45,1922523132
94,19,18,Jits_Linear_8,2,5,56,103,1922568420
94,19,18,Jits_Linear_8,3,5,63,98,1922579064
94,19,18,Jits_Linear_8,0,5,80,127,1923008852
94,19,18,Jits_Linear_8,1,5,56,103,1923058908
94,19,18,Jits_Linear_8,2,1,48,58,1923096476
94,19,18,Jits_Linear_8,3,5,63,98,1923109252
94,19,18,Jits_Linear_8,0,5,56,103,1923629468
94,19,18,Jits_Linear_8,1,5,63,98,1923632460
94,19,18,Jits_Linear_8,2,1,48,59,1923672520
94,19,18,Jits_Linear_8,3,5,80,127,1923678764
94,19,18,Jits_Linear_8,0,5,56,103,1924208948
94,19,18,Jits_Linear_8,1,5,63,98,1924238876
94,19,18,Jits_Linear_8,2,1,48,53,1924242144
94,19,18,Jits_Linear_8,3,5,80,127,1924248916
94,19,18,Jits_Linear_8,0,5,63,98,1924678976
94,19,18,Jits_Linear_8,1,5,56,103,1924748760
94,19,18,Jits_Linear_8,2,5,80,127,1924798740
94,19,18,Jits_Linear_8,3,1,48,48,1924823060
94,19,18,Jits_Linear_8,0,5,63,98,1925269036
94,19,18,Jits_Linear_8,1,5,56,103,1925279228
94,19,18,Jits_Linear_8,2,5,80,127,1925282148
94,19,18,Jits_Linear_8,3,1,48,53,1925368800
94,19,18,Jits_Linear_8,0,5,80,127,1925768548
94,19,18,Jits_Linear_8,1,5,56,103,1925828868
94,19,18,Jits_Linear_8,2,1,48,49,1925870048
94,19,18,Jits_Linear_8,3,5,63,98,1925918996
94,19,18,Jits_Linear_8,0,5,80,127,1926318512
94,19,18,Jits_Linear_8,1,5,56,103,1926418912
94,19,18,Jits_Linear_8,2,1,48,52,1926444652
94,19,18,Jits_Linear_8,3,5,63,98,1926458992
94,19,18,Jits_Linear_8,0,5,56,103,1926918604
94,19,18,Jits_Linear_8,1,5,63,98,1926938988
94,19,18,Jits_Linear_8,2,1,48,49,1926967588
94,19,18,Jits_Linear_8,3,5,80,127,1926978920
94,19,18,Jits_Linear_8,0,5,63,98,1927438748
94,19,18,Jits_Linear_8,1,5,56,103,1927459060
94,19,18,Jits_Linear_8,2,1,48,51,1927516872
94,19,18,Jits_Linear_8,3,5,80,127,1927558720
94,19,18,Jits_Linear_8,0,5,63,98,1927969064
94,19,18,Jits_Linear_8,1,1,48,44,1928024104
94,19,18,Jits_Linear_8,2,5,80,127,1928078848
94,19,18,Jits_Linear_8,3,5,56,103,1928109424
94,19,18,Jits_Linear_8,0,1,48,49,1928512908
94,19,18,Jits_Linear_8,1,5,56,103,1928529268
94,19,18,Jits_Linear_8,2,5,63,98,1928558944
94,19,18,Jits_Linear_8,3,5,80,127,1928609080
94,19,18,Jits_Linear_8,0,5,63,98,1929039212
94,19,18,Jits_Linear_8,1,5,56,103,1929068816
94,19,18,Jits_Linear_8,2,5,80,127,1929118968
94,19,18,Jits_Linear_8,3,1,48,51,1929140068
94,19,18,Jits_Linear_8,0,5,56,103,1929618928
94,19,18,Jits_Linear_8,1,5,63,98,1929639240
94,19,18,Jits_Linear_8,2,1,48,54,1929699076
94,19,18,Jits_Linear_8,3,5,80,127,1929719252
94,19,18,Jits_Linear_8,0,5,63,98,1930128732
94,19,18,Jits_Linear_8,1,5,56,103,1930189124
94,19,18,Jits_Linear_8,2,5,80,127,1930219024
94,19,18,Jits_Linear_8,3,1,48,51,1930303872
94,19,18,Jits_Linear_8,0,5,56,103,1930709244
94,19,18,Jits_Linear_8,1,5,80,127,1930768888
94,19,18,Jits_Linear_8,2,5,63,98,1930808752
94,19,18,Jits_Linear_8,3,1,48,36,1930868888
94,19,18,Jits_Linear_8,0,5,63,98,1931219204
94,19,18,Jits_Linear_8,1,5,56,103,1931278996
94,19,18,Jits_Linear_8,2,5,80,127,1931349276
94,19,18,Jits_Linear_8,3,1,48,60,1931403208
94,19,18,Jits_Linear_8,0,5,56,103,1931828720
94,19,18,Jits_Linear_8,1,5,63,98,1931838840
94,19,18,Jits_Linear_8,2,5,80,127,1931842204
94,19,18,Jits_Linear_8,3,1,48,52,1931922888
94,19,18,Jits_Linear_8,0,5,63,98,1932298884
94,19,18,Jits_Linear_8,1,1,48,39,1932358900
94,19,18,Jits_Linear_8,2,5,56,103,1932360488
94,19,18,Jits_Linear_8,3,5,80,127,1932363160
94,19,18,Jits_Linear_8,4,1,48,19,1932441216
94,19,18,Jits_Linear_8,0,5,63,98,1932808644
94,19,18,Jits_Linear_8,1,5,80,127,1932839220
94,19,18,Jits_Linear_8,2,5,56,103,1932859004
94,19,18,Jits_Linear_8,3,1,48,50,1932879888
94,19,18,Jits_Linear_8,0,5,56,103,1933339036
94,19,18,Jits_Linear_8,1,5,63,98,1933389164
94,19,18,Jits_Linear_8,2,1,48,39,1933419404
94,19,18,Jits_Linear_8,3,5,80,127,1933468976
94,19,18,Jits_Linear_8,0,5,80,127,1933838800
94,19,18,Jits_Linear_8,1,5,63,98,1933878816
94,19,18,Jits_Linear_8,2,5,56,103,1933899052
94,19,18,Jits_Linear_8,3,1,48,52,1933947600
94,19,18,Jits_Linear_8,0,1,48,38,1934343320
94,19,18,Jits_Linear_8,1,1,48,21,1934420104
94,19,18,Jits_Linear_8,2,5,56,103,1934428740
94,19,18,Jits_Linear_8,3,5,80,127,1934438788
94,19,18,Jits_Linear_8,4,5,63,98,1934459348
94,19,18,Jits_Linear_8,0,1,48,51,1934893620
94,19,18,Jits_Linear_8,1,5,56,103,1934929240
94,19,18,Jits_Linear_8,2,5,63,98,1934978348
94,19,18,Jits_Linear_8,3,5,80,127,1935009128
94,19,18,Jits_Linear_8,0,5,56,103,1935399332
94,19,18,Jits_Linear_8,1,5,63,98,1935408632
94,19,18,Jits_Linear_8,2,5,80,127,1935458760
94,19,18,Jits_Linear_8,3,1,48,60,1935530748
94,19,18,Jits_Linear_8,0,5,56,103,1935909272
94,19,18,Jits_Linear_8,1,5,80,127,1935912192
94,19,18,Jits_Linear_8,2,1,48,41,1935986948
94,19,18,Jits_Linear_8,3,5,63,98,1936069024
94,19,18,Jits_Linear_8,0,5,63,98,1936438620
94,19,18,Jits_Linear_8,1,1,48,48,1936504172
94,19,18,Jits_Linear_8,2,5,56,103,1936509296
94,19,18,Jits_Linear_8,3,5,80,127,1936549232
94,19,18,Jits_Linear_8,0,1,48,48,1936958652
94,19,18,Jits_Linear_8,1,5,63,98,1936988792
94,19,18,Jits_Linear_8,2,5,56,103,1937078712
94,19,18,Jits_Linear_8,3,5,80,127,1937081780
94,19,18,Jits_Linear_8,0,1,48,55,1937466252
94,19,18,Jits_Linear_8,1,5,56,103,1937478952
94,19,18,Jits_Linear_8,2,5,63,98,1937569100
94,19,18,Jits_Linear_8,3,5,80,127,1937579372
94,19,18,Jits_Linear_8,0,5,56,103,1937959236
94,19,18,Jits_Linear_8,1,5,63,98,1938008392
94,19,18,Jits_Linear_8,2,1,48,37,1938037296
94,19,18,Jits_Linear_8,3,5,80,127,1938039056
94,19,18,Jits_Linear_8,0,1,48,42,1938441808
94,19,18,Jits_Linear_8,1,5,63,98,1938539672
94,19,18,Jits_Linear_8,2,5,80,127,1938549120
94,19,18,Jits_Linear_8,3,5,56,103,1938608784
94,19,18,Jits_Linear_8,0,5,63,98,1938958684
94,19,18,Jits_Linear_8,1,1,48,54,1939005324
94,19,18,Jits_Linear_8,2,5,80,127,1939018996
94,19,18,Jits_Linear_8,3,5,56,103,1939059008
94,19,18,Jits_Linear_8,0,1,48,49,1939480428
94,19,18,Jits_Linear_8,1,5,56,103,1939558824
94,19,18,Jits_Linear_8,2,5,80,127,1939579220
94,19,18,Jits_Linear_8,3,1,48,16,1939583684
94,19,18,Jits_Linear_8,4,5,63,98,1939598700
94,19,18,Jits_Linear_8,0,5,63,98,1939978996
94,19,18,Jits_Linear_8,1,5,56,103,1939999084
94,19,18,Jits_Linear_8,2,1,48,53,1940018912
94,19,18,Jits_Linear_8,3,5,80,127,1940038940
94,19,18,Jits_Linear_8,4,1,48,18,1940140808
94,19,18,Jits_Linear_8,0,5,63,98,1940488756
94,19,18,Jits_Linear_8,1,1,48,52,1940516072
94,19,18,Jits_Linear_8,2,5,80,127,1940519400
94,19,18,Jits_Linear_8,3,5,56,103,1940538664
94,19,18,Jits_Linear_8,0,5,80,127,1940958540
94,19,18,Jits_Linear_8,1,1,48,45,1941007076
94,19,18,Jits_Linear_8,2,5,56,103,1941008664
94,19,18,Jits_Linear_8,3,5,63,98,1941069204
94,19,18,Jits_Linear_8,0,1,48,43,1941413764
94,19,18,Jits_Linear_8,1,5,63,98,1941438896
94,19,18,Jits_Linear_8,2,1,48,26,1941496384
94,19,18,Jits_Linear_8,3,5,56,103,1941558828
94,19,18,Jits_Linear_8,4,5,80,127,1941589328
94,19,18,Jits_Linear_8,0,1,48,49,1941966384
94,19,18,Jits_Linear_8,1,5,80,127,1941969120
94,19,18,Jits_Linear_8,2,5,63,98,1941988832
94,19,18,Jits_Linear_8,3,5,56,103,1942059544
94,19,18,Jits_Linear_8,4,1,48,24,1942061916
94,19,18,Jits_Linear_8,0,5,63,98,1942479268
94,19,18,Jits_Linear_8,1,5,56,103,1942488716
94,19,18,Jits_Linear_8,2,1,48,47,1942493032
94,19,18,Jits_Linear_8,3,5,80,127,1942569252
94,19,18,Jits_Linear_8,0,1,48,45,1942958172
94,19,18,Jits_Linear_8,1,5,56,103,1943029068
94,19,18,Jits_Linear_8,2,5,80,127,1943058952
94,19,18,Jits_Linear_8,3,5,63,98,1943069152
94,19,18,Jits_Linear_8,0,9999,9999,9999,1832676460
94,19,18,Jits_Linear_8,1,9999,9999,9999,1833496696
94,19,18,Jits_Linear_8,2,9999,9999,9999,1834316876
94,19,18,Jits_Linear_8,3,9999,9999,9999,1835136112
94,19,18,Jits_Linear_8,4,9999,9999,9999,1835956288
94,19,18,Jits_Linear_8,5,9999,9999,9999,1836766320
94,19,18,Jits_Linear_8,6,9999,9999,9999,1837576276
94,19,18,Jits_Linear_8,7,9999,9999,9999,1838386236
94,19,18,Jits_Linear_8,8,9999,9999,9999,1839196272
94,19,18,Jits_Linear_8,9,9999,9999,9999,1840006228
94,19,18,Jits_Linear_8,10,9999,9999,9999,1840806976
94,19,18,Jits_Linear_8,11,9999,9999,9999,1841606780
94,19,18,Jits_Linear_8,12,9999,9999,9999,1842406512
94,19,18,Jits_Linear_8,13,9999,9999,9999,1843206196
94,19,18,Jits_Linear_8,14,9999,9999,9999,1844006988
94,19,18,Jits_Linear_8,15,9999,9999,9999,1844796544
94,19,18,Jits_Linear_8,16,9999,9999,9999,1845587040
94,19,18,Jits_Linear_8,17,9999,9999,9999,1846376532
94,19,18,Jits_Linear_8,18,9999,9999,9999,1847167096
94,19,18,Jits_Linear_8,19,9999,9999,9999,1847956588
94,19,18,Jits_Linear_8,20,9999,9999,9999,1848736860
94,19,18,Jits_Linear_8,21,9999,9999,9999,1849516156
94,19,18,Jits_Linear_8,22,9999,9999,9999,1850296436
94,19,18,Jits_Linear_8,23,9999,9999,9999,1851076708
94,19,18,Jits_Linear_8,24,9999,9999,9999,1851856952
94,19,18,Jits_Linear_8,25,9999,9999,9999,1852627032
94,19,18,Jits_Linear_8,26,9999,9999,9999,1853397096
94,19,18,Jits_Linear_8,27,9999,9999,9999,1854166108
94,19,18,Jits_Linear_8,28,9999,9999,9999,1854936168
94,19,18,Jits_Linear_8,29,9999,9999,9999,1855706232
94,19,18,Jits_Linear_8,30,9999,9999,9999,1856467000
94,19,18,Jits_Linear_8,31,9999,9999,9999,1857226812
94,19,18,Jits_Linear_8,32,9999,9999,9999,1857986684
94,19,18,Jits_Linear_8,33,9999,9999,9999,1858746472
94,19,18,Jits_Linear_8,34,9999,9999,9999,1859506264
94,19,18,Jits_Linear_8,35,9999,9999,9999,1860256856
94,19,18,Jits_Linear_8,36,9999,9999,9999,1861006396
94,19,18,Jits_Linear_8,37,9999,9999,9999,1861757012
94,19,18,Jits_Linear_8,38,9999,9999,9999,1862506592
94,19,18,Jits_Linear_8,39,9999,9999,9999,1863256128
94,19,18,Jits_Linear_8,40,9999,9999,9999,1863996524
94,19,18,Jits_Linear_8,41,9999,9999,9999,1864736840
94,19,18,Jits_Linear_8,42,9999,9999,9999,1865476180
94,19,18,Jits_Linear_8,43,9999,9999,9999,1866216504
94,19,18,Jits_Linear_8,44,9999,9999,9999,1866956904
94,19,18,Jits_Linear_8,45,9999,9999,9999,1867686968
94,19,18,Jits_Linear_8,46,9999,9999,9999,1868416124
94,19,18,Jits_Linear_8,47,9999,9999,9999,1869146164
94,19,18,Jits_Linear_8,48,9999,9999,9999,1869876300
94,19,18,Jits_Linear_8,49,9999,9999,9999,1870606416
94,19,18,Jits_Linear_8,50,9999,9999,9999,1871326300
94,19,18,Jits_Linear_8,51,9999,9999,9999,1872046188
94,19,18,Jits_Linear_8,52,9999,9999,9999,1872767028
94,19,18,Jits_Linear_8,53,9999,9999,9999,1873486948
94,19,18,Jits_Linear_8,54,9999,9999,9999,1874206820
94,19,18,Jits_Linear_8,55,9999,9999,9999,1874916464
94,19,18,Jits_Linear_8,56,9999,9999,9999,1875627112
94,19,18,Jits_Linear_8,57,9999,9999,9999,1876346976
94,19,18,Jits_Linear_8,58,9999,9999,9999,1877056624
94,19,18,Jits_Linear_8,59,9999,9999,9999,1877766244
94,19,18,Jits_Linear_8,60,9999,9999,9999,1878466652
94,19,18,Jits_Linear_8,61,9999,9999,9999,1879167068
94,19,18,Jits_Linear_8,62,9999,9999,9999,1879866476
94,19,18,Jits_Linear_8,63,9999,9999,9999,1880566860
94,19,18,Jits_Linear_8,64,9999,9999,9999,1881266280
94,19,18,Jits_Linear_8,65,9999,9999,9999,1881956456
94,19,18,Jits_Linear_8,66,9999,9999,9999,1882646620
94,19,18,Jits_Linear_8,67,9999,9999,9999,1883336772
94,19,18,Jits_Linear_8,68,9999,9999,9999,1884026960
94,19,18,Jits_Linear_8,69,9999,9999,9999,1884716100
94,19,18,Jits_Linear_8,70,9999,9999,9999,1885397088
94,19,18,Jits_Linear_8,71,9999,9999,9999,1886077028
94,19,18,Jits_Linear_8,72,9999,9999,9999,1886756932
94,19,18,Jits_Linear_8,73,9999,9999,9999,1887436880
94,19,18,Jits_Linear_8,74,9999,9999,9999,1888116800
94,19,18,Jits_Linear_8,75,9999,9999,9999,1888786540
94,19,18,Jits_Linear_8,76,9999,9999,9999,1889456228
94,19,18,Jits_Linear_8,77,9999,9999,9999,1890126960
94,19,18,Jits_Linear_8,78,9999,9999,9999,1890796628
94,19,18,Jits_Linear_8,79,9999,9999,9999,1891466332
94,19,18,Jits_Linear_8,80,9999,9999,9999,1892126784
94,19,18,Jits_Linear_8,81,9999,9999,9999,1892786268
94,19,18,Jits_Linear_8,82,9999,9999,9999,1893446716
94,19,18,Jits_Linear_8,83,9999,9999,9999,1894106216
94,19,18,Jits_Linear_8,84,9999,9999,9999,1894766656
94,19,18,Jits_Linear_8,85,9999,9999,9999,1895416936
94,19,18,Jits_Linear_8,86,9999,9999,9999,1896066152
94,19,18,Jits_Linear_8,87,9999,9999,9999,1896716408
94,19,18,Jits_Linear_8,88,9999,9999,9999,1897366620
94,19,18,Jits_Linear_8,89,9999,9999,9999,1898016868
94,19,18,Jits_Linear_8,90,9999,9999,9999,1898656876
94,19,18,Jits_Linear_8,91,9999,9999,9999,1899296868
94,19,18,Jits_Linear_8,92,9999,9999,9999,1899936836
94,19,18,Jits_Linear_8,93,9999,9999,9999,1900576888
94,19,18,Jits_Linear_8,94,9999,9999,9999,1901216888
94,19,18,Jits_Linear_8,95,9999,9999,9999,1901846592
94,19,18,Jits_Linear_8,96,9999,9999,9999,1902476364
94,19,18,Jits_Linear_8,97,9999,9999,9999,1903106156
94,19,18,Jits_Linear_8,98,9999,9999,9999,1903736884
94,19,18,Jits_Linear_8,99,9999,9999,9999,1904366696
94,19,18,Jits_Linear_8,100,9999,9999,9999,1904986232
94,19,18,Jits_Linear_8,101,9999,9999,9999,1905606776
94,19,18,Jits_Linear_8,102,9999,9999,9999,1906226244
94,19,18,Jits_Linear_8,103,9999,9999,9999,1906846788
94,19,18,Jits_Linear_8,104,9999,9999,9999,1907466352
94,19,18,Jits_Linear_8,105,9999,9999,9999,1908076620
94,19,18,Jits_Linear_8,106,9999,9999,9999,1908686964
94,19,18,Jits_Linear_8,107,9999,9999,9999,1909296212
94,19,18,Jits_Linear_8,108,9999,9999,9999,1909906496
94,19,18,Jits_Linear_8,109,9999,9999,9999,1910516824
94,19,18,Jits_Linear_8,110,9999,9999,9999,1911116912
94,19,18,Jits_Linear_8,111,9999,9999,9999,1911716932
94,19,18,Jits_Linear_8,112,9999,9999,9999,1912317016
94,19,18,Jits_Linear_8,113,9999,9999,9999,1912917088
94,19,18,Jits_Linear_8,114,9999,9999,9999,1913516148
94,19,18,Jits_Linear_8,115,9999,9999,9999,1914106976
94,19,18,Jits_Linear_8,116,9999,9999,9999,1914696788
94,19,18,Jits_Linear_8,117,9999,9999,9999,1915286640
94,19,18,Jits_Linear_8,118,9999,9999,9999,1915876464
94,19,18,Jits_Linear_8,119,9999,9999,9999,1916466280
94,19,18,Jits_Linear_8,120,9999,9999,9999,1917046908
94,19,18,Jits_Linear_8,121,9999,9999,9999,1917626452
94,19,18,Jits_Linear_8,122,9999,9999,9999,1918207036
94,19,18,Jits_Linear_8,123,9999,9999,9999,1918786624
94,19,18,Jits_Linear_8,124,9999,9999,9999,1919366196
94,19,18,Jits_Linear_8,125,9999,9999,9999,1919936572
94,19,18,Jits_Linear_8,126,9999,9999,9999,1920506980
94,19,18,Jits_Linear_8,127,9999,9999,9999,1921076336
94,19,18,Jits_Linear_8,128,9999,9999,9999,1921646664
94,19,18,Jits_Linear_8,129,9999,9999,9999,1922217028
94,19,18,Jits_Linear_8,130,9999,9999,9999,1922776140
94,19,18,Jits_Linear_8,131,9999,9999,9999,1923336292
94,19,18,Jits_Linear_8,132,9999,9999,9999,1923896440
94,19,18,Jits_Linear_8,133,9999,9999,9999,1924456528
94,19,18,Jits_Linear_8,134,9999,9999,9999,1925016632
94,19,18,Jits_Linear_8,135,9999,9999,9999,1925566572
94,19,18,Jits_Linear_8,136,9999,9999,9999,1926116444
94,19,18,Jits_Linear_8,137,9999,9999,9999,1926666332
94,19,18,Jits_Linear_8,138,9999,9999,9999,1927216224
94,19,18,Jits_Linear_8,139,9999,9999,9999,1927766112
94,19,18,Jits_Linear_8,140,9999,9999,9999,1928306772
94,19,18,Jits_Linear_8,141,9999,9999,9999,1928846400
94,19,18,Jits_Linear_8,142,9999,9999,9999,1929387128
94,19,18,Jits_Linear_8,143,9999,9999,9999,1929937004
94,19,18,Jits_Linear_8,144,9999,9999,9999,1930476624
94,19,18,Jits_Linear_8,145,9999,9999,9999,1931007096
94,19,18,Jits_Linear_8,146,9999,9999,9999,1931536456
94,19,18,Jits_Linear_8,147,9999,9999,9999,1932066920
94,19,18,Jits_Linear_8,148,9999,9999,9999,1932596332
94,19,18,Jits_Linear_8,149,9999,9999,9999,1933126720
94,19,18,Jits_Linear_8,150,9999,9999,9999,1933646924
94,19,18,Jits_Linear_8,151,9999,9999,9999,1934166088
94,19,18,Jits_Linear_8,152,9999,9999,9999,1934686288
94,19,18,Jits_Linear_8,153,9999,9999,9999,1935206496
94,19,18,Jits_Linear_8,154,9999,9999,9999,1935726692
94,19,18,Jits_Linear_8,155,9999,9999,9999,1936236632
94,19,18,Jits_Linear_8,156,9999,9999,9999,1936746584
94,19,18,Jits_Linear_8,157,9999,9999,9999,1937256524
94,19,18,Jits_Linear_8,158,9999,9999,9999,1937766472
94,19,18,Jits_Linear_8,159,9999,9999,9999,1938276408
94,19,18,Jits_Linear_8,160,9999,9999,9999,1938776184
94,19,18,Jits_Linear_8,161,9999,9999,9999,1939276908
94,19,18,Jits_Linear_8,162,9999,9999,9999,1939776572
94,19,18,Jits_Linear_8,163,9999,9999,9999,1940276296
94,19,18,Jits_Linear_8,164,9999,9999,9999,1940777012
94,19,18,Jits_Linear_8,165,9999,9999,9999,1941266504
94,19,18,Jits_Linear_8,166,9999,9999,9999,1941757036
94,19,18,Jits_Linear_8,167,9999,9999,9999,1942246500
94,19,18,Jits_Linear_8,168,9999,9999,9999,1942736960
94,19,18,Jits_Linear_8,169,9999,9999,9999,1943226464
94,20,5,ISIP_5,0,5,42,127,2005646776
94,20,5,ISIP_5,1,5,42,127,2006146416
94,20,5,ISIP_5,2,5,42,127,2006647108
94,20,5,ISIP_5,3,5,42,127,2007147024
94,20,5,ISIP_5,4,1,48,51,2007634432
94,20,5,ISIP_5,5,5,42,127,2007646656
94,20,5,ISIP_5,6,1,48,55,2008144672
94,20,5,ISIP_5,7,5,42,127,2008147252
94,20,5,ISIP_5,8,1,48,35,2008197728
94,20,5,ISIP_5,9,5,42,127,2008647004
94,20,5,ISIP_5,10,1,48,65,2008705276
94,20,5,ISIP_5,11,1,48,42,2008764420
94,20,5,ISIP_5,12,5,42,127,2009146680
94,20,5,ISIP_5,13,1,48,49,2009147644
94,20,5,ISIP_5,14,1,48,38,2009198392
94,20,5,ISIP_5,15,1,48,53,2009618036
94,20,5,ISIP_5,16,5,42,127,2009646344
94,20,5,ISIP_5,17,1,48,35,2009665300
94,20,5,ISIP_5,18,1,48,61,2010122348
94,20,5,ISIP_5,19,5,42,127,2010147284
94,20,5,ISIP_5,20,1,48,42,2010170960
94,20,5,ISIP_5,21,5,42,127,2010647040
94,20,5,ISIP_5,22,1,48,57,2010659060
94,20,5,ISIP_5,23,1,48,35,2010703468
94,20,5,ISIP_5,24,5,42,127,2011146788
94,20,5,ISIP_5,25,1,48,57,2011160980
94,20,5,ISIP_5,26,1,48,33,2011225432
94,20,5,ISIP_5,27,1,48,57,2011593840
94,20,5,ISIP_5,28,1,48,39,2011645140
94,20,5,ISIP_5,29,5,42,127,2011647328
94,20,5,ISIP_5,30,1,48,54,2012142656
94,20,5,ISIP_5,31,5,42,127,2012147172
94,20,5,ISIP_5,32,1,48,34,2012206232
94,20,5,ISIP_5,33,5,42,127,2012647004
94,20,5,ISIP_5,34,1,48,55,2012661268
94,20,5,ISIP_5,35,1,48,36,2012726620
94,20,5,ISIP_5,36,5,42,127,2013146528
94,20,5,ISIP_5,37,1,48,39,2013187044
94,20,5,ISIP_5,38,5,42,127,2013647120
94,20,5,ISIP_5,39,1,48,46,2013657572
94,20,5,ISIP_5,40,5,42,127,2014147040
94,20,5,ISIP_5,41,1,48,53,2014181948
94,20,5,ISIP_5,42,1,48,32,2014248196
94,20,5,ISIP_5,43,5,42,127,2014646564
94,20,5,ISIP_5,44,1,48,55,2014662324
94,20,5,ISIP_5,45,1,48,36,2014715036
94,20,5,ISIP_5,46,5,42,127,2015147284
94,20,5,ISIP_5,47,1,48,54,2015163644
94,20,5,ISIP_5,48,1,48,35,2015218148
94,20,5,ISIP_5,49,5,42,127,2015647032
94,20,5,ISIP_5,50,1,48,51,2015685008
94,20,5,ISIP_5,51,1,48,34,2015742432
94,20,5,ISIP_5,52,5,42,127,2016147080
94,20,5,ISIP_5,53,1,48,51,2016155284
94,20,5,ISIP_5,54,1,48,34,2016217044
94,20,5,ISIP_5,55,1,48,43,2016640208
94,20,5,ISIP_5,56,5,42,127,2016646448
94,20,5,ISIP_5,57,1,48,27,2016698092
94,20,5,ISIP_5,58,5,42,127,2017147176
94,20,5,ISIP_5,59,1,48,48,2017163684
94,20,5,ISIP_5,60,1,48,32,2017229776
94,20,5,ISIP_5,61,1,48,48,2017597040
94,20,5,ISIP_5,62,5,42,127,2017647040
94,20,5,ISIP_5,63,1,48,30,2017656748
94,20,5,ISIP_5,64,5,42,127,2018146944
94,20,5,ISIP_5,65,1,48,48,2018160764
94,20,5,ISIP_5,66,1,48,32,2018222172
94,20,5,ISIP_5,67,1,48,60,2018617028
94,20,5,ISIP_5,68,5,42,127,2018647284
94,20,5,ISIP_5,69,1,48,37,2018683772
94,20,5,ISIP_5,70,1,48,51,2019116480
94,20,5,ISIP_5,71,5,42,127,2019147180
94,20,5,ISIP_5,72,1,48,30,2019191976
94,20,5,ISIP_5,73,1,48,53,2019608676
94,20,5,ISIP_5,74,5,42,127,2019647004
94,20,5,ISIP_5,75,1,48,27,2019690500
94,20,5,ISIP_5,76,1,48,56,2020130940
94,20,5,ISIP_5,77,5,42,127,2020146528
94,20,5,ISIP_5,78,1,48,49,2020581040
94,20,5,ISIP_5,79,5,42,127,2020647192
94,20,5,ISIP_5,80,1,48,19,2020676776
94,20,5,ISIP_5,81,1,48,54,2021124616
94,20,5,ISIP_5,82,5,42,127,2021146940
94,20,5,ISIP_5,83,1,48,31,2021200312
94,20,5,ISIP_5,84,1,48,51,2021601480
94,20,5,ISIP_5,85,5,42,127,2021646912
94,20,5,ISIP_5,86,1,48,32,2021666848
94,20,5,ISIP_5,87,1,48,44,2022115588
94,20,5,ISIP_5,88,5,42,127,2022146436
94,20,5,ISIP_5,89,1,48,47,2022639820
94,20,5,ISIP_5,90,5,42,127,2022647180
94,20,5,ISIP_5,91,1,48,54,2023084904
94,20,5,ISIP_5,92,5,42,127,2023146948
94,20,5,ISIP_5,93,1,48,31,2023156184
94,20,5,ISIP_5,94,1,48,54,2023625268
94,20,5,ISIP_5,95,5,42,127,2023646844
94,20,5,ISIP_5,96,1,48,36,2023666856
94,20,5,ISIP_5,97,1,48,55,2024121876
94,20,5,ISIP_5,98,5,42,127,2024147268
94,20,5,ISIP_5,99,1,48,40,2024180512
94,20,5,ISIP_5,100,1,48,55,2024624468
94,20,5,ISIP_5,101,5,42,127,2024647088
94,20,5,ISIP_5,102,1,48,36,2024673004
94,20,5,ISIP_5,103,5,42,127,2025146920
94,20,5,ISIP_5,104,1,48,58,2025184068
94,20,5,ISIP_5,105,1,48,28,2025265052
94,20,5,ISIP_5,106,1,48,51,2025632792
94,20,5,ISIP_5,107,1,48,32,2025695240
94,20,5,ISIP_5,108,1,48,57,2026165608
94,20,5,ISIP_5,109,1,48,40,2026221760
94,20,5,ISIP_5,110,1,48,51,2026648148
94,20,5,ISIP_5,111,1,48,34,2026701604
94,20,5,ISIP_5,112,1,48,49,2027168088
94,20,5,ISIP_5,113,1,48,35,2027216680
94,20,5,ISIP_5,114,1,48,46,2027677928
94,20,5,ISIP_5,115,1,48,32,2027722484
94,20,5,ISIP_5,116,1,48,45,2028169744
94,20,5,ISIP_5,117,1,48,27,2028224772
94,20,5,ISIP_5,118,1,48,49,2028718108
94,20,5,ISIP_5,119,1,48,33,2028771640
94,20,5,ISIP_5,120,1,48,45,2029254276
94,20,5,ISIP_5,121,1,48,27,2029315960
94,20,5,ISIP_5,122,1,48,57,2029766960
94,20,5,ISIP_5,123,1,48,37,2029832084
94,20,5,ISIP_5,124,1,48,51,2030269472
94,20,5,ISIP_5,125,1,48,37,2030325996
94,20,5,ISIP_5,126,1,48,49,2030773104
94,20,5,ISIP_5,127,1,48,32,2030828584
94,20,5,ISIP_5,128,1,48,47,2031332312
94,20,5,ISIP_5,129,1,48,31,2031393104
94,20,5,ISIP_5,130,1,48,45,2031822704
94,20,5,ISIP_5,131,1,48,30,2031880204
94,20,5,ISIP_5,132,1,48,47,2032331052
94,20,5,ISIP_5,133,1,48,25,2032406576
94,20,5,ISIP_5,134,1,48,50,2032828848
94,20,5,ISIP_5,135,1,48,32,2032890460
94,20,5,ISIP_5,136,1,48,45,2033326204
94,20,5,ISIP_5,137,1,48,31,2033382728
94,20,5,ISIP_5,138,1,48,49,2033893332
94,20,5,ISIP_5,139,1,48,26,2033953748
94,20,5,ISIP_5,140,1,48,51,2034372736
94,20,5,ISIP_5,141,1,48,33,2034427240
94,20,5,ISIP_5,142,1,48,48,2034897460
94,20,5,ISIP_5,143,1,48,32,2034955180
94,20,5,ISIP_5,144,1,48,47,2035395256
94,20,5,ISIP_5,145,1,48,33,2035443552
94,20,5,ISIP_5,146,1,48,49,2035938384
94,20,5,ISIP_5,147,1,48,32,2035996708
94,20,5,ISIP_5,148,1,48,45,2036454284
94,20,5,ISIP_5,149,1,48,27,2036504524
94,20,5,ISIP_5,150,1,48,47,2036998904
94,20,5,ISIP_5,151,1,48,29,2037060668
94,20,5,ISIP_5,152,1,48,51,2037491848
94,20,5,ISIP_5,153,1,48,28,2037563028
94,20,5,ISIP_5,154,1,48,50,2038023000
94,20,5,ISIP_5,155,1,48,22,2038097032
94,20,5,ISIP_5,156,1,48,50,2038519904
94,20,5,ISIP_5,157,1,48,27,2038593108
94,20,5,ISIP_5,158,1,48,51,2039019492
94,20,5,ISIP_5,159,1,48,26,2039093144
94,20,5,ISIP_5,160,1,48,49,2039535992
94,20,5,ISIP_5,161,1,48,23,2039621164
94,20,5,ISIP_5,162,1,48,47,2040058696
94,20,5,ISIP_5,163,1,48,28,2040121884
94,20,5,ISIP_5,164,1,48,47,2040537724
94,20,5,ISIP_5,165,1,48,23,2040619084
94,20,5,ISIP_5,166,1,48,38,2041061628
94,20,5,ISIP_5,167,1,48,49,2041623544
94,20,5,ISIP_5,168,1,48,24,2041707616
94,20,5,ISIP_5,169,1,48,46,2042129500
94,20,5,ISIP_5,170,1,48,31,2042184392
94,20,5,ISIP_5,171,1,48,51,2042645936
94,20,5,ISIP_5,172,1,48,32,2042704776
94,20,5,ISIP_5,173,1,48,50,2043163032
94,20,5,ISIP_5,174,1,48,29,2043239456
94,20,5,ISIP_5,175,1,48,51,2043648188
94,20,5,ISIP_5,176,1,48,33,2043697008
94,20,5,ISIP_5,177,1,48,47,2044175532
94,20,5,ISIP_5,178,1,48,23,2044245816
94,20,5,ISIP_5,179,1,48,51,2044705712
94,20,5,ISIP_5,180,1,48,30,2044764488
94,20,5,ISIP_5,181,1,48,50,2045200604
94,20,5,ISIP_5,182,1,48,32,2045246584
94,20,5,ISIP_5,183,1,48,48,2045761304
94,20,5,ISIP_5,184,1,48,28,2045828180
94,20,5,ISIP_5,185,1,48,48,2046286700
94,20,5,ISIP_5,186,1,48,28,2046351408
94,20,5,ISIP_5,187,1,48,48,2046803796
94,20,5,ISIP_5,188,1,48,47,2047370312
94,20,5,ISIP_5,189,1,48,24,2047427956
94,20,5,ISIP_5,190,1,48,44,2047865412
94,20,5,ISIP_5,191,1,48,50,2048380588
94,20,5,ISIP_5,192,1,48,31,2048433000
94,20,5,ISIP_5,193,1,48,47,2048971584
94,20,5,ISIP_5,194,1,48,24,2049043220
94,20,5,ISIP_5,195,1,48,55,2049482324
94,20,5,ISIP_5,196,1,48,31,2049548352
94,20,5,ISIP_5,197,1,48,48,2049971820
94,20,5,ISIP_5,198,1,48,30,2050027148
94,20,5,ISIP_5,199,1,48,48,2050496996
94,20,5,ISIP_5,200,1,48,31,2050548508
94,20,5,ISIP_5,201,1,48,49,2050974152
94,20,5,ISIP_5,202,1,48,31,2051028208
94,20,5,ISIP_5,203,1,48,47,2051509948
94,20,5,ISIP_5,204,1,48,29,2051565948
94,20,5,ISIP_5,205,1,48,49,2052013360
94,20,5,ISIP_5,206,1,48,29,2052075940
94,20,5,ISIP_5,207,1,48,44,2052504724
94,20,5,ISIP_5,208,1,48,23,2052568872
94,20,5,ISIP_5,209,1,48,45,2053008508
94,20,5,ISIP_5,210,1,48,29,2053064880
94,20,5,ISIP_5,211,1,48,44,2053484812
94,20,5,ISIP_5,212,1,48,26,2053554000
94,20,5,ISIP_5,213,1,48,43,2053993452
94,20,5,ISIP_5,214,1,48,26,2054049256
94,20,5,ISIP_5,215,1,48,45,2054445924
94,20,5,ISIP_5,216,1,48,25,2054507692
94,20,5,ISIP_5,217,1,48,38,2054964892
94,20,5,ISIP_5,218,1,48,49,2055487548
94,20,5,ISIP_5,219,1,48,27,2055559208
94,20,5,ISIP_5,220,1,48,50,2055966048
94,20,5,ISIP_5,221,1,48,25,2056050348
94,20,5,ISIP_5,222,1,48,47,2056439912
94,20,5,ISIP_5,223,1,48,28,2056503164
94,20,5,ISIP_5,224,1,48,47,2056919460
94,20,5,ISIP_5,225,1,48,26,2056975308
94,20,5,ISIP_5,226,1,48,47,2057396912
94,20,5,ISIP_5,227,1,48,29,2057456808
94,20,5,ISIP_5,228,1,48,47,2057890672
94,20,5,ISIP_5,229,1,48,30,2057948916
94,20,5,ISIP_5,230,1,48,43,2058471420
94,20,5,ISIP_5,231,1,48,41,2058943288
94,20,5,ISIP_5,232,1,48,50,2059485316
94,20,5,ISIP_5,233,1,48,22,2059563756
94,20,5,ISIP_5,234,1,48,52,2060012588
94,20,5,ISIP_5,235,1,48,26,2060089004
94,20,5,ISIP_5,236,1,48,46,2060532076
94,20,5,ISIP_5,237,1,48,27,2060584560
94,20,5,ISIP_5,238,1,48,49,2061025908
94,20,5,ISIP_5,239,1,48,49,2061559856
94,20,5,ISIP_5,240,1,48,21,2061641744
94,20,5,ISIP_5,241,1,48,46,2062037312
94,20,5,ISIP_5,242,1,48,24,2062101616
94,20,5,ISIP_5,243,1,48,48,2062568692
94,20,5,ISIP_5,244,1,48,27,2062649840
94,20,5,ISIP_5,245,1,48,40,2063054300
94,20,5,ISIP_5,246,1,48,24,2063110376
94,20,5,ISIP_5,247,1,48,48,2063584412
94,20,5,ISIP_5,248,1,48,28,2063657184
94,20,5,ISIP_5,249,1,48,46,2064071892
94,20,5,ISIP_5,250,1,48,24,2064130436
94,20,5,ISIP_5,251,1,48,50,2064592500
94,20,5,ISIP_5,252,1,48,29,2064652104
94,20,5,ISIP_5,253,1,48,51,2065093364
94,20,5,ISIP_5,254,1,48,28,2065159480
94,20,5,ISIP_5,255,1,48,44,2065591912
94,20,5,ISIP_5,256,1,48,51,2066120248
94,20,5,ISIP_5,257,1,48,29,2066196088
94,20,5,ISIP_5,258,1,48,47,2066593820
94,20,5,ISIP_5,259,1,48,48,2067113476
94,20,5,ISIP_5,260,1,48,27,2067179816
94,20,5,ISIP_5,261,1,48,47,2067604844
94,20,5,ISIP_5,262,1,48,27,2067663476
94,20,5,ISIP_5,263,1,48,42,2068104292
94,20,5,ISIP_5,264,1,48,21,2068168528
94,20,5,ISIP_5,265,1,48,45,2068624824
94,20,5,ISIP_5,266,1,48,22,2068695128
94,20,5,ISIP_5,267,1,48,38,2069120460
94,20,5,ISIP_5,268,1,48,48,2069654720
94,20,5,ISIP_5,269,1,48,20,2069738844
94,20,5,ISIP_5,270,1,48,48,2070148552
94,20,5,ISIP_5,271,1,48,27,2070205680
94,20,5,ISIP_5,272,1,48,44,2070649268
94,20,5,ISIP_5,273,1,48,44,2071127304
94,20,5,ISIP_5,274,1,48,45,2071663508
94,20,5,ISIP_5,275,1,48,51,2072144088
94,20,5,ISIP_5,276,1,48,30,2072211420
94,20,5,ISIP_5,277,1,48,47,2072663072
94,20,5,ISIP_5,278,1,48,28,2072727624
94,20,5,ISIP_5,279,1,48,43,2073166176
94,20,5,ISIP_5,280,1,48,24,2073223100
94,20,5,ISIP_5,281,1,48,43,2073656124
94,20,5,ISIP_5,282,1,48,40,2074158804
94,20,5,ISIP_5,283,1,48,43,2074674804
94,20,5,ISIP_5,284,1,48,44,2075166636
94,20,5,ISIP_5,285,1,48,23,2075232368
94,20,5,ISIP_5,286,1,48,41,2075656436
94,20,5,ISIP_5,287,1,48,22,2075722984
94,20,5,ISIP_5,288,1,48,45,2076205320
94,20,5,ISIP_5,289,1,48,23,2076271268
94,20,5,ISIP_5,290,1,48,49,2076738848
94,20,5,ISIP_5,291,1,48,19,2076824340
94,20,5,ISIP_5,292,1,48,41,2077182492
94,20,5,ISIP_5,293,1,48,47,2077718084
94,20,5,ISIP_5,294,1,48,48,2078233032
94,20,5,ISIP_5,295,1,48,48,2078759276
94,20,5,ISIP_5,296,1,48,22,2078828144
94,20,5,ISIP_5,297,1,48,42,2079233960
94,20,5,ISIP_5,298,1,48,23,2079301784
94,20,5,ISIP_5,299,1,48,43,2079725852
94,20,5,ISIP_5,300,1,48,20,2079804444
94,20,5,ISIP_5,301,1,48,48,2080251476
94,20,5,ISIP_5,302,1,48,46,2080739648
94,20,5,ISIP_5,303,1,48,22,2080816964
94,20,5,ISIP_5,304,1,48,46,2081228320
94,20,5,ISIP_5,305,1,48,23,2081300028
94,20,5,ISIP_5,306,1,48,46,2081754168
94,20,5,ISIP_5,307,1,48,21,2081833728
94,20,5,ISIP_5,308,1,48,48,2082280616
94,20,5,ISIP_5,309,1,48,22,2082363016
94,20,5,ISIP_5,310,1,48,50,2082763376
94,20,5,ISIP_5,311,1,48,27,2082864408
94,20,5,ISIP_5,312,1,48,40,2083246060
94,20,5,ISIP_5,313,1,48,49,2083760268
94,20,5,ISIP_5,314,1,48,21,2083851648
94,20,5,ISIP_5,315,1,48,40,2084217224
94,20,5,ISIP_5,316,1,48,16,2084308976
94,20,5,ISIP_5,317,1,48,39,2084708940
94,20,5,ISIP_5,318,1,48,16,2084809248
94,20,5,ISIP_5,319,1,48,41,2085217364
94,20,5,ISIP_5,320,1,48,18,2085306448
94,20,5,ISIP_5,0,9999,9999,9999,2005644340
94,20,5,ISIP_5,1,9999,9999,9999,2006144056
94,20,5,ISIP_5,2,9999,9999,9999,2006644820
94,20,5,ISIP_5,3,9999,9999,9999,2007144512
94,20,5,ISIP_5,4,9999,9999,9999,2007644220
94,20,5,ISIP_5,5,9999,9999,9999,2008144964
94,20,5,ISIP_5,6,9999,9999,9999,2008644716
94,20,5,ISIP_5,7,9999,9999,9999,2009144392
94,20,5,ISIP_5,8,9999,9999,9999,2009644132
94,20,5,ISIP_5,9,9999,9999,9999,2010144848
94,20,5,ISIP_5,10,9999,9999,9999,2010644528
94,20,5,ISIP_5,11,9999,9999,9999,2011144276
94,20,5,ISIP_5,12,9999,9999,9999,2011645004
94,20,5,ISIP_5,13,9999,9999,9999,2012144736
94,20,5,ISIP_5,14,9999,9999,9999,2012644420
94,20,5,ISIP_5,15,9999,9999,9999,2013144164
94,20,5,ISIP_5,16,9999,9999,9999,2013644908
94,20,5,ISIP_5,17,9999,9999,9999,2014144604
94,20,5,ISIP_5,18,9999,9999,9999,2014644276
94,20,5,ISIP_5,19,9999,9999,9999,2015145072
94,20,5,ISIP_5,20,9999,9999,9999,2015644744
94,20,5,ISIP_5,21,9999,9999,9999,2016144492
94,20,5,ISIP_5,22,9999,9999,9999,2016644160
94,20,5,ISIP_5,23,9999,9999,9999,2017144888
94,20,5,ISIP_5,24,9999,9999,9999,2017644604
94,20,5,ISIP_5,25,9999,9999,9999,2018144356
94,20,5,ISIP_5,26,9999,9999,9999,2018645072
94,20,5,ISIP_5,27,9999,9999,9999,2019144820
94,20,5,ISIP_5,28,9999,9999,9999,2019644492
94,20,5,ISIP_5,29,9999,9999,9999,2020144240
94,20,5,ISIP_5,30,9999,9999,9999,2020644980
94,20,5,ISIP_5,31,9999,9999,9999,2021144656
94,20,5,ISIP_5,32,9999,9999,9999,2021644404
94,20,5,ISIP_5,33,9999,9999,9999,2022144076
94,20,5,ISIP_5,34,9999,9999,9999,2022644820
94,20,5,ISIP_5,35,9999,9999,9999,2023144512
94,20,5,ISIP_5,36,9999,9999,9999,2023644260
94,20,5,ISIP_5,37,9999,9999,9999,2024144980
94,20,5,ISIP_5,38,9999,9999,9999,2024644728
94,20,5,ISIP_5,39,9999,9999,9999,2025144408
94,20,5,ISIP_5,40,9999,9999,9999,2025644148
94,20,5,ISIP_5,41,9999,9999,9999,2026144872
94,20,5,ISIP_5,42,9999,9999,9999,2026644540
94,20,5,ISIP_5,43,9999,9999,9999,2027144284
94,20,5,ISIP_5,44,9999,9999,9999,2027645000
94,20,5,ISIP_5,45,9999,9999,9999,2028144720
94,20,5,ISIP_5,46,9999,9999,9999,2028644460
94,20,5,ISIP_5,47,9999,9999,9999,2029144132
94,20,5,ISIP_5,48,9999,9999,9999,2029644848
94,20,5,ISIP_5,49,9999,9999,9999,2030144592
94,20,5,ISIP_5,50,9999,9999,9999,2030644336
94,20,5,ISIP_5,51,9999,9999,9999,2031145052
94,20,5,ISIP_5,52,9999,9999,9999,2031644720
94,20,5,ISIP_5,53,9999,9999,9999,2032144464
94,20,5,ISIP_5,54,9999,9999,9999,2032644208
94,20,5,ISIP_5,55,9999,9999,9999,2033144924
94,20,5,ISIP_5,56,9999,9999,9999,2033644592
94,20,5,ISIP_5,57,9999,9999,9999,2034144336
94,20,5,ISIP_5,58,9999,9999,9999,2034645052
94,20,5,ISIP_5,59,9999,9999,9999,2035144792
94,20,5,ISIP_5,60,9999,9999,9999,2035644536
94,20,5,ISIP_5,61,9999,9999,9999,2036144208
94,20,5,ISIP_5,62,9999,9999,9999,2036644920
94,20,5,ISIP_5,63,9999,9999,9999,2037144680
94,20,5,ISIP_5,64,9999,9999,9999,2037644352
94,20,5,ISIP_5,65,9999,9999,9999,2038144092
94,20,5,ISIP_5,66,9999,9999,9999,2038644808
94,20,5,ISIP_5,67,9999,9999,9999,2039144524
94,20,5,ISIP_5,68,9999,9999,9999,2039644268
94,20,5,ISIP_5,69,9999,9999,9999,2040144984
94,20,5,ISIP_5,70,9999,9999,9999,2040644728
94,20,5,ISIP_5,71,9999,9999,9999,2041144416
94,20,5,ISIP_5,72,9999,9999,9999,2041644108
94,20,5,ISIP_5,73,9999,9999,9999,2042144824
94,20,5,ISIP_5,74,9999,9999,9999,2042644572
94,20,5,ISIP_5,75,9999,9999,9999,2043144240
94,20,5,ISIP_5,76,9999,9999,9999,2043645028
94,20,5,ISIP_5,77,9999,9999,9999,2044144700
94,20,5,ISIP_5,78,9999,9999,9999,2044644440
94,20,5,ISIP_5,79,9999,9999,9999,2045144184
94,20,5,ISIP_5,80,9999,9999,9999,2045644904
94,20,5,ISIP_5,81,9999,9999,9999,2046144572
94,20,5,ISIP_5,82,9999,9999,9999,2046644312
94,20,5,ISIP_5,83,9999,9999,9999,2047145052
94,20,5,ISIP_5,84,9999,9999,9999,2047644720
94,20,5,ISIP_5,85,9999,9999,9999,2048144484
94,20,5,ISIP_5,86,9999,9999,9999,2048644156
94,20,5,ISIP_5,87,9999,9999,9999,2049144944
94,20,5,ISIP_5,88,9999,9999,9999,2049644628
94,20,5,ISIP_5,89,9999,9999,9999,2050144332
94,20,5,ISIP_5,90,9999,9999,9999,2050645064
94,20,5,ISIP_5,91,9999,9999,9999,2051144792
94,20,5,ISIP_5,92,9999,9999,9999,2051644480
94,20,5,ISIP_5,93,9999,9999,9999,2052144220
94,20,5,ISIP_5,94,9999,9999,9999,2052644936
94,20,5,ISIP_5,95,9999,9999,9999,2053144680
94,20,5,ISIP_5,96,9999,9999,9999,2053644408
94,20,5,ISIP_5,97,9999,9999,9999,2054144092
94,20,5,ISIP_5,98,9999,9999,9999,2054644792
94,20,5,ISIP_5,99,9999,9999,9999,2055144556
94,20,5,ISIP_5,100,9999,9999,9999,2055644240
94,20,5,ISIP_5,101,9999,9999,9999,2056144956
94,20,5,ISIP_5,102,9999,9999,9999,2056644684
94,20,5,ISIP_5,103,9999,9999,9999,2057144428
94,20,5,ISIP_5,104,9999,9999,9999,2057644100
94,20,5,ISIP_5,105,9999,9999,9999,2058144888
94,20,5,ISIP_5,106,9999,9999,9999,2058644580
94,20,5,ISIP_5,107,9999,9999,9999,2059144268
94,20,5,ISIP_5,108,9999,9999,9999,2059645000
94,20,5,ISIP_5,109,9999,9999,9999,2060144748
94,20,5,ISIP_5,110,9999,9999,9999,2060644464
94,20,5,ISIP_5,111,9999,9999,9999,2061144140
94,20,5,ISIP_5,112,9999,9999,9999,2061644872
94,20,5,ISIP_5,113,9999,9999,9999,2062144612
94,20,5,ISIP_5,114,9999,9999,9999,2062644304
94,20,5,ISIP_5,115,9999,9999,9999,2063145072
94,20,5,ISIP_5,116,9999,9999,9999,2063644764
94,20,5,ISIP_5,117,9999,9999,9999,2064144484
94,20,5,ISIP_5,118,9999,9999,9999,2064644176
94,20,5,ISIP_5,119,9999,9999,9999,2065144892
94,20,5,ISIP_5,120,9999,9999,9999,2065644636
94,20,5,ISIP_5,121,9999,9999,9999,2066144324
94,20,5,ISIP_5,122,9999,9999,9999,2066645044
94,20,5,ISIP_5,123,9999,9999,9999,2067144808
94,20,5,ISIP_5,124,9999,9999,9999,2067644476
94,20,5,ISIP_5,125,9999,9999,9999,2068144220
94,20,5,ISIP_5,126,9999,9999,9999,2068644936
94,20,5,ISIP_5,127,9999,9999,9999,2069144680
94,20,5,ISIP_5,128,9999,9999,9999,2069644380
94,20,5,ISIP_5,129,9999,9999,9999,2070144048
94,20,5,ISIP_5,130,9999,9999,9999,2070644840
94,20,5,ISIP_5,131,9999,9999,9999,2071144500
94,20,5,ISIP_5,132,9999,9999,9999,2071644268
94,20,5,ISIP_5,133,9999,9999,9999,2072144976
94,20,5,ISIP_5,134,9999,9999,9999,2072644724
94,20,5,ISIP_5,135,9999,9999,9999,2073144396
94,20,5,ISIP_5,136,9999,9999,9999,2073644140
94,20,5,ISIP_5,137,9999,9999,9999,2074144876
94,20,5,ISIP_5,138,9999,9999,9999,2074644568
94,20,5,ISIP_5,139,9999,9999,9999,2075144256
94,20,5,ISIP_5,140,9999,9999,9999,2075645048
94,20,5,ISIP_5,141,9999,9999,9999,2076144716
94,20,5,ISIP_5,142,9999,9999,9999,2076644436
94,20,5,ISIP_5,143,9999,9999,9999,2077144180
94,20,5,ISIP_5,144,9999,9999,9999,2077644916
94,20,5,ISIP_5,145,9999,9999,9999,2078144604
94,20,5,ISIP_5,146,9999,9999,9999,2078644296
94,20,5,ISIP_5,147,9999,9999,9999,2079145012
94,20,5,ISIP_5,148,9999,9999,9999,2079644752
94,20,5,ISIP_5,149,9999,9999,9999,2080144496
94,20,5,ISIP_5,150,9999,9999,9999,2080644188
94,20,5,ISIP_5,151,9999,9999,9999,2081144904
94,20,5,ISIP_5,152,9999,9999,9999,2081644620
94,20,5,ISIP_5,153,9999,9999,9999,2082144364
94,20,5,ISIP_5,154,9999,9999,9999,2082645080
94,20,5,ISIP_5,155,9999,9999,9999,2083144820
94,20,5,ISIP_5,156,9999,9999,9999,2083644512
94,20,5,ISIP_5,157,9999,9999,9999,2084144180
94,20,5,ISIP_5,158,9999,9999,9999,2084644972
94,20,5,ISIP_5,159,9999,9999,9999,2085144640
94,21,3,ISIP_8,0,5,42,127,2108870960
94,21,3,ISIP_8,1,5,42,127,2109671160
94,21,3,ISIP_8,2,5,42,127,2110470540
94,21,3,ISIP_8,3,5,42,127,2111271420
94,21,3,ISIP_8,4,1,48,48,2111973072
94,21,3,ISIP_8,5,1,48,36,2112011576
94,21,3,ISIP_8,6,5,42,127,2112070996
94,21,3,ISIP_8,7,1,48,45,2112795676
94,21,3,ISIP_8,8,1,48,33,2112836336
94,21,3,ISIP_8,9,5,42,127,2112870856
94,21,3,ISIP_8,10,1,48,50,2113665272
94,21,3,ISIP_8,11,5,42,127,2113670616
94,21,3,ISIP_8,12,1,48,57,2114457148
94,21,3,ISIP_8,13,5,42,127,2114471396
94,21,3,ISIP_8,14,1,48,45,2115252548
94,21,3,ISIP_8,15,5,42,127,2115270980
94,21,3,ISIP_8,16,1,48,43,2116041736
94,21,3,ISIP_8,17,5,42,127,2116070788
94,21,3,ISIP_8,18,1,48,33,2116088100
94,21,3,ISIP_8,19,1,48,46,2116851168
94,21,3,ISIP_8,20,5,42,127,2116870572
94,21,3,ISIP_8,21,1,48,33,2116899036
94,21,3,ISIP_8,22,5,42,127,2117671268
94,21,3,ISIP_8,23,1,48,49,2117701088
94,21,3,ISIP_8,24,1,48,36,2117746488
94,21,3,ISIP_8,25,1,48,47,2118446328
94,21,3,ISIP_8,26,5,42,127,2118470896
94,21,3,ISIP_8,27,1,48,35,2118492772
94,21,3,ISIP_8,28,1,48,57,2119225696
94,21,3,ISIP_8,29,1,48,44,2119256268
94,21,3,ISIP_8,30,5,42,127,2119270736
94,21,3,ISIP_8,31,1,48,41,2120020768
94,21,3,ISIP_8,32,5,42,127,2120070572
94,21,3,ISIP_8,33,1,48,54,2120858228
94,21,3,ISIP_8,34,5,42,127,2120871276
94,21,3,ISIP_8,35,1,48,40,2120892484
94,21,3,ISIP_8,36,1,48,52,2121630488
94,21,3,ISIP_8,37,5,42,127,2121670988
94,21,3,ISIP_8,38,1,48,44,2122369488
94,21,3,ISIP_8,39,5,42,127,2122470784
94,21,3,ISIP_8,40,1,48,40,2123173484
94,21,3,ISIP_8,41,5,42,127,2123270664
94,21,3,ISIP_8,42,1,48,43,2123986304
94,21,3,ISIP_8,43,5,42,127,2124071160
94,21,3,ISIP_8,44,1,48,45,2124787088
94,21,3,ISIP_8,45,1,48,32,2124825360
94,21,3,ISIP_8,46,5,42,127,2124871096
94,21,3,ISIP_8,47,1,48,51,2125644540
94,21,3,ISIP_8,48,5,42,127,2125670680
94,21,3,ISIP_8,49,1,48,42,2126441432
94,21,3,ISIP_8,50,5,42,127,2126470512
94,21,3,ISIP_8,51,1,48,43,2127255928
94,21,3,ISIP_8,52,5,42,127,2127271144
94,21,3,ISIP_8,53,1,48,48,2128011680
94,21,3,ISIP_8,54,1,48,35,2128049580
94,21,3,ISIP_8,55,5,42,127,2128070932
94,21,3,ISIP_8,56,1,48,50,2128822688
94,21,3,ISIP_8,57,1,48,38,2128858640
94,21,3,ISIP_8,58,5,42,127,2128870868
94,21,3,ISIP_8,59,1,48,54,2129650824
94,21,3,ISIP_8,60,5,42,127,2129670528
94,21,3,ISIP_8,61,1,48,38,2129688364
94,21,3,ISIP_8,62,1,48,54,2130422260
94,21,3,ISIP_8,63,1,48,40,2130460460
94,21,3,ISIP_8,64,5,42,127,2130471264
94,21,3,ISIP_8,65,1,48,50,2131240596
94,21,3,ISIP_8,66,5,42,127,2131271000
94,21,3,ISIP_8,67,1,48,52,2131998588
94,21,3,ISIP_8,68,1,48,39,2132029616
94,21,3,ISIP_8,69,5,42,127,2132070860
94,21,3,ISIP_8,70,1,48,52,2132853156
94,21,3,ISIP_8,71,1,48,46,2133701072
94,21,3,ISIP_8,72,1,48,47,2134503644
94,21,3,ISIP_8,73,1,48,44,2135399036
94,21,3,ISIP_8,74,1,48,44,2136223100
94,21,3,ISIP_8,75,1,48,30,2136265560
94,21,3,ISIP_8,76,1,48,49,2137111292
94,21,3,ISIP_8,77,1,48,38,2137146728
94,21,3,ISIP_8,78,1,48,46,2138000860
94,21,3,ISIP_8,79,1,48,33,2138052520
94,21,3,ISIP_8,80,1,48,48,2138872224
94,21,3,ISIP_8,81,1,48,35,2138909748
94,21,3,ISIP_8,82,1,48,44,2139805020
94,21,3,ISIP_8,83,1,48,41,2140696676
94,21,3,ISIP_8,84,1,48,45,2141633156
94,21,3,ISIP_8,85,1,48,41,2142488924
94,21,3,ISIP_8,86,1,48,49,2143443804
94,21,3,ISIP_8,87,1,48,45,2144426664
94,21,3,ISIP_8,88,1,48,34,2144464268
94,21,3,ISIP_8,89,1,48,42,2145379336
94,21,3,ISIP_8,90,1,48,46,2146356884
94,21,3,ISIP_8,91,1,48,45,2147254400
94,21,3,ISIP_8,92,1,48,48,2148205256
94,21,3,ISIP_8,93,1,48,35,2148239568
94,21,3,ISIP_8,94,1,48,44,2149142892
94,21,3,ISIP_8,95,1,48,49,2150078776
94,21,3,ISIP_8,96,1,48,37,2150111888
94,21,3,ISIP_8,97,1,48,45,2151088760
94,21,3,ISIP_8,98,1,48,35,2151123820
94,21,3,ISIP_8,99,1,48,43,2152060456
94,21,3,ISIP_8,100,1,48,49,2153050412
94,21,3,ISIP_8,101,1,48,35,2153091552
94,21,3,ISIP_8,102,1,48,44,2154012156
94,21,3,ISIP_8,103,1,48,48,2154976236
94,21,3,ISIP_8,104,1,48,48,2155981460
94,21,3,ISIP_8,105,1,48,34,2156020408
94,21,3,ISIP_8,106,1,48,47,2156942848
94,21,3,ISIP_8,107,1,48,34,2156979332
94,21,3,ISIP_8,108,1,48,49,2157889232
94,21,3,ISIP_8,109,1,48,35,2157928780
94,21,3,ISIP_8,110,1,48,44,2158892640
94,21,3,ISIP_8,111,1,48,51,2159870932
94,21,3,ISIP_8,112,1,48,37,2159908912
94,21,3,ISIP_8,113,1,48,44,2160797448
94,21,3,ISIP_8,114,1,48,51,2161771248
94,21,3,ISIP_8,115,1,48,36,2161813284
94,21,3,ISIP_8,116,1,48,47,2162710780
94,21,3,ISIP_8,117,1,48,36,2162754736
94,21,3,ISIP_8,118,1,48,43,2163617688
94,21,3,ISIP_8,119,1,48,44,2164607136
94,21,3,ISIP_8,120,1,48,32,2164647504
94,21,3,ISIP_8,121,1,48,48,2165524648
94,21,3,ISIP_8,122,1,48,46,2166500492
94,21,3,ISIP_8,123,1,48,32,2166547740
94,21,3,ISIP_8,124,1,48,43,2167437996
94,21,3,ISIP_8,125,1,48,32,2167484196
94,21,3,ISIP_8,126,1,48,45,2168376076
94,21,3,ISIP_8,127,1,48,32,2168419516
94,21,3,ISIP_8,128,1,48,47,2169472780
94,21,3,ISIP_8,129,1,48,42,2170440356
94,21,3,ISIP_8,130,1,48,46,2171390840
94,21,3,ISIP_8,131,1,48,32,2171432260
94,21,3,ISIP_8,132,1,48,43,2172305540
94,21,3,ISIP_8,133,1,48,44,2173266980
94,21,3,ISIP_8,134,1,48,47,2174173020
94,21,3,ISIP_8,135,1,48,35,2174216904
94,21,3,ISIP_8,136,1,48,44,2175127508
94,21,3,ISIP_8,137,1,48,33,2175165112
94,21,3,ISIP_8,138,1,48,43,2176029916
94,21,3,ISIP_8,139,1,48,33,2177066492
94,21,3,ISIP_8,140,1,48,38,2178115392
94,21,3,ISIP_8,141,1,48,34,2179229704
94,21,3,ISIP_8,142,1,48,45,2180225292
94,21,3,ISIP_8,143,1,48,31,2180274032
94,21,3,ISIP_8,144,1,48,51,2181237824
94,21,3,ISIP_8,145,1,48,36,2181283876
94,21,3,ISIP_8,146,1,48,51,2182162216
94,21,3,ISIP_8,147,1,48,35,2182210964
94,21,3,ISIP_8,148,1,48,47,2183111244
94,21,3,ISIP_8,149,1,48,34,2183158872
94,21,3,ISIP_8,150,1,48,49,2184044040
94,21,3,ISIP_8,151,1,48,35,2184097436
94,21,3,ISIP_8,152,1,48,46,2185010564
94,21,3,ISIP_8,153,1,48,34,2185062752
94,21,3,ISIP_8,154,1,48,49,2185963328
94,21,3,ISIP_8,155,1,48,34,2186015820
94,21,3,ISIP_8,156,1,48,49,2186917148
94,21,3,ISIP_8,157,1,48,34,2186976368
94,21,3,ISIP_8,158,1,48,50,2187883448
94,21,3,ISIP_8,159,1,48,34,2187943640
94,21,3,ISIP_8,160,1,48,44,2188792364
94,21,3,ISIP_8,161,1,48,33,2188837444
94,21,3,ISIP_8,162,1,48,49,2189751056
94,21,3,ISIP_8,163,1,48,33,2189801748
94,21,3,ISIP_8,164,1,48,44,2190672532
94,21,3,ISIP_8,165,1,48,30,2190725040
94,21,3,ISIP_8,166,1,48,47,2191579600
94,21,3,ISIP_8,167,1,48,33,2191627072
94,21,3,ISIP_8,168,1,48,49,2192481256
94,21,3,ISIP_8,169,1,48,35,2192533020
94,21,3,ISIP_8,170,1,48,54,2193440456
94,21,3,ISIP_8,171,1,48,38,2193486360
94,21,3,ISIP_8,172,1,48,54,2194397416
94,21,3,ISIP_8,173,1,48,36,2194457080
94,21,3,ISIP_8,174,1,48,54,2195294896
94,21,3,ISIP_8,175,1,48,36,2195348904
94,21,3,ISIP_8,176,1,48,49,2196252080
94,21,3,ISIP_8,177,1,48,34,2196318256
94,21,3,ISIP_8,178,1,48,51,2197183976
94,21,3,ISIP_8,179,1,48,34,2197237136
94,21,3,ISIP_8,180,1,48,52,2198165244
94,21,3,ISIP_8,181,1,48,38,2198210704
94,21,3,ISIP_8,182,1,48,58,2199207548
94,21,3,ISIP_8,183,1,48,43,2199246124
94,21,3,ISIP_8,184,1,48,54,2200126344
94,21,3,ISIP_8,185,1,48,35,2200174292
94,21,3,ISIP_8,186,1,48,47,2201033412
94,21,3,ISIP_8,187,1,48,32,2201077668
94,21,3,ISIP_8,188,1,48,50,2202027988
94,21,3,ISIP_8,189,1,48,34,2202076136
94,21,3,ISIP_8,190,1,48,52,2203001404
94,21,3,ISIP_8,191,1,48,33,2203063912
94,21,3,ISIP_8,192,1,48,50,2203955868
94,21,3,ISIP_8,193,1,48,33,2204011296
94,21,3,ISIP_8,194,1,48,47,2204919948
94,21,3,ISIP_8,195,1,48,35,2204985144
94,21,3,ISIP_8,196,1,48,52,2205943768
94,21,3,ISIP_8,197,1,48,34,2206018624
94,21,3,ISIP_8,198,1,48,39,2206844256
94,21,3,ISIP_8,199,1,48,22,2206904968
94,21,3,ISIP_8,200,1,48,56,2207801036
94,21,3,ISIP_8,201,1,48,39,2207875612
94,21,3,ISIP_8,202,1,48,57,2208758440
94,21,3,ISIP_8,203,1,48,34,2208857232
94,21,3,ISIP_8,204,1,48,55,2209632500
94,21,3,ISIP_8,205,1,48,31,2209708360
94,21,3,ISIP_8,206,1,48,45,2210599044
94,21,3,ISIP_8,207,1,48,24,2210678108
94,21,3,ISIP_8,208,1,48,40,2211589880
94,21,3,ISIP_8,209,1,48,27,2211648728
94,21,3,ISIP_8,210,1,48,42,2212542276
94,21,3,ISIP_8,211,1,48,31,2212591848
94,21,3,ISIP_8,212,1,48,54,2213484728
94,21,3,ISIP_8,213,1,48,35,2213543492
94,21,3,ISIP_8,214,1,48,56,2214533020
94,21,3,ISIP_8,215,1,48,41,2214587680
94,21,3,ISIP_8,216,1,48,49,2215504540
94,21,3,ISIP_8,217,1,48,31,2215571788
94,21,3,ISIP_8,218,1,48,48,2216417368
94,21,3,ISIP_8,219,1,48,32,2216483688
94,21,3,ISIP_8,220,1,48,44,2217406408
94,21,3,ISIP_8,221,1,48,29,2217456956
94,21,3,ISIP_8,222,1,48,51,2218417896
94,21,3,ISIP_8,223,1,48,33,2218479220
94,21,3,ISIP_8,224,1,48,45,2219427748
94,21,3,ISIP_8,225,1,48,32,2219490708
94,21,3,ISIP_8,226,1,48,47,2220426816
94,21,3,ISIP_8,227,1,48,32,2220495756
94,21,3,ISIP_8,228,1,48,56,2221333036
94,21,3,ISIP_8,229,1,48,38,2221393752
94,21,3,ISIP_8,230,1,48,53,2222294708
94,21,3,ISIP_8,231,1,48,38,2222352804
94,21,3,ISIP_8,232,1,48,56,2223267224
94,21,3,ISIP_8,233,1,48,39,2223334460
94,21,3,ISIP_8,234,1,48,52,2224266900
94,21,3,ISIP_8,235,1,48,38,2224321404
94,21,3,ISIP_8,236,1,48,45,2225259836
94,21,3,ISIP_8,237,1,48,32,2225314044
94,21,3,ISIP_8,238,1,48,49,2226248784
94,21,3,ISIP_8,239,1,48,34,2226309148
94,21,3,ISIP_8,240,1,48,54,2227268564
94,21,3,ISIP_8,241,1,48,38,2227334184
94,21,3,ISIP_8,242,1,48,43,2228345540
94,21,3,ISIP_8,243,1,48,29,2228410364
94,21,3,ISIP_8,0,9999,9999,9999,2108868668
94,21,3,ISIP_8,1,9999,9999,9999,2109668424
94,21,3,ISIP_8,2,9999,9999,9999,2110468176
94,21,3,ISIP_8,3,9999,9999,9999,2111268980
94,21,3,ISIP_8,4,9999,9999,9999,2112068704
94,21,3,ISIP_8,5,9999,9999,9999,2112868416
94,21,3,ISIP_8,6,9999,9999,9999,2113668176
94,21,3,ISIP_8,7,9999,9999,9999,2114468956
94,21,3,ISIP_8,8,9999,9999,9999,2115268692
94,21,3,ISIP_8,9,9999,9999,9999,2116068424
94,21,3,ISIP_8,10,9999,9999,9999,2116868208
94,21,3,ISIP_8,11,9999,9999,9999,2117668976
94,21,3,ISIP_8,12,9999,9999,9999,2118468680
94,21,3,ISIP_8,13,9999,9999,9999,2119268448
94,21,3,ISIP_8,14,9999,9999,9999,2120068204
94,21,3,ISIP_8,15,9999,9999,9999,2120868912
94,21,3,ISIP_8,16,9999,9999,9999,2121668700
94,21,3,ISIP_8,17,9999,9999,9999,2122468420
94,21,3,ISIP_8,18,9999,9999,9999,2123268224
94,21,3,ISIP_8,19,9999,9999,9999,2124068944
94,21,3,ISIP_8,20,9999,9999,9999,2124868656
94,21,3,ISIP_8,21,9999,9999,9999,2125668468
94,21,3,ISIP_8,22,9999,9999,9999,2126468148
94,21,3,ISIP_8,23,9999,9999,9999,2127268928
94,21,3,ISIP_8,24,9999,9999,9999,2128068716
94,21,3,ISIP_8,25,9999,9999,9999,2128868428
94,21,3,ISIP_8,26,9999,9999,9999,2129668164
94,21,3,ISIP_8,27,9999,9999,9999,2130468976
94,21,3,ISIP_8,28,9999,9999,9999,2131268708
94,21,3,ISIP_8,29,9999,9999,9999,2132068420
94,21,3,ISIP_8,30,9999,9999,9999,2132868180
94,21,3,ISIP_8,31,9999,9999,9999,2133668960
94,21,3,ISIP_8,32,9999,9999,9999,2134468692
94,21,3,ISIP_8,33,9999,9999,9999,2135268420
94,21,3,ISIP_8,34,9999,9999,9999,2136068148
94,21,3,ISIP_8,35,9999,9999,9999,2136868980
94,21,3,ISIP_8,36,9999,9999,9999,2137668688
94,21,3,ISIP_8,37,9999,9999,9999,2138468468
94,21,3,ISIP_8,38,9999,9999,9999,2139268200
94,21,3,ISIP_8,39,9999,9999,9999,2140068976
94,21,3,ISIP_8,40,9999,9999,9999,2140868704
94,21,3,ISIP_8,41,9999,9999,9999,2141668452
94,21,3,ISIP_8,42,9999,9999,9999,2142468184
94,21,3,ISIP_8,43,9999,9999,9999,2143268960
94,21,3,ISIP_8,44,9999,9999,9999,2144068688
94,21,3,ISIP_8,45,9999,9999,9999,2144868400
94,21,3,ISIP_8,46,9999,9999,9999,2145668152
94,21,3,ISIP_8,47,9999,9999,9999,2146468928
94,21,3,ISIP_8,48,9999,9999,9999,2147268672
94,21,3,ISIP_8,49,9999,9999,9999,2148068408
94,21,3,ISIP_8,50,9999,9999,9999,2148868188
94,21,3,ISIP_8,51,9999,9999,9999,2149668964
94,21,3,ISIP_8,52,9999,9999,9999,2150468672
94,21,3,ISIP_8,53,9999,9999,9999,2151268452
94,21,3,ISIP_8,54,9999,9999,9999,2152068148
94,21,3,ISIP_8,55,9999,9999,9999,2152868932
94,21,3,ISIP_8,56,9999,9999,9999,2153668716
94,21,3,ISIP_8,57,9999,9999,9999,2154468444
94,21,3,ISIP_8,58,9999,9999,9999,2155268172
94,21,3,ISIP_8,59,9999,9999,9999,2156068940
94,21,3,ISIP_8,60,9999,9999,9999,2156868680
94,21,3,ISIP_8,61,9999,9999,9999,2157668464
94,21,3,ISIP_8,62,9999,9999,9999,2158468196
94,21,3,ISIP_8,63,9999,9999,9999,2159268972
94,21,3,ISIP_8,64,9999,9999,9999,2160068676
94,21,3,ISIP_8,65,9999,9999,9999,2160868420
94,21,3,ISIP_8,66,9999,9999,9999,2161668160
94,21,3,ISIP_8,67,9999,9999,9999,2162468912
94,21,3,ISIP_8,68,9999,9999,9999,2163268692
94,21,3,ISIP_8,69,9999,9999,9999,2164068420
94,21,3,ISIP_8,70,9999,9999,9999,2164868156
94,21,3,ISIP_8,71,9999,9999,9999,2165668932
94,21,3,ISIP_8,72,9999,9999,9999,2166468680
94,21,3,ISIP_8,73,9999,9999,9999,2167268464
94,21,3,ISIP_8,74,9999,9999,9999,2168068168
94,21,3,ISIP_8,75,9999,9999,9999,2168868924
94,21,3,ISIP_8,76,9999,9999,9999,2169668728
94,21,3,ISIP_8,77,9999,9999,9999,2170468468
94,21,3,ISIP_8,78,9999,9999,9999,2171268156
94,21,3,ISIP_8,79,9999,9999,9999,2172068984
94,21,3,ISIP_8,80,9999,9999,9999,2172868712
94,21,3,ISIP_8,81,9999,9999,9999,2173668444
94,21,3,ISIP_8,82,9999,9999,9999,2174468152
94,21,3,ISIP_8,83,9999,9999,9999,2175268980
94,21,3,ISIP_8,84,9999,9999,9999,2176068724
94,21,3,ISIP_8,85,9999,9999,9999,2176868460
94,21,3,ISIP_8,86,9999,9999,9999,2177668212
94,21,3,ISIP_8,87,9999,9999,9999,2178468912
94,21,3,ISIP_8,88,9999,9999,9999,2179268660
94,21,3,ISIP_8,89,9999,9999,9999,2180068468
94,21,3,ISIP_8,90,9999,9999,9999,2180868176
94,21,3,ISIP_8,91,9999,9999,9999,2181668932
94,21,3,ISIP_8,92,9999,9999,9999,2182468712
94,21,3,ISIP_8,93,9999,9999,9999,2183268420
94,21,3,ISIP_8,94,9999,9999,9999,2184068188
94,21,3,ISIP_8,95,9999,9999,9999,2184868952
94,21,3,ISIP_8,96,9999,9999,9999,2185668660
94,21,3,ISIP_8,97,9999,9999,9999,2186468440
94,21,3,ISIP_8,98,9999,9999,9999,2187268148
94,21,3,ISIP_8,99,9999,9999,9999,2188068976
94,21,3,ISIP_8,100,9999,9999,9999,2188868700
94,21,3,ISIP_8,101,9999,9999,9999,2189668436
94,21,3,ISIP_8,102,9999,9999,9999,2190468168
94,21,3,ISIP_8,103,9999,9999,9999,2191268920
94,21,3,ISIP_8,104,9999,9999,9999,2192068704
94,21,3,ISIP_8,105,9999,9999,9999,2192868412
94,21,3,ISIP_8,106,9999,9999,9999,2193668192
94,21,3,ISIP_8,107,9999,9999,9999,2194468964
94,21,3,ISIP_8,108,9999,9999,9999,2195268700
94,21,3,ISIP_8,109,9999,9999,9999,2196068404
94,21,3,ISIP_8,110,9999,9999,9999,2196868212
94,21,3,ISIP_8,111,9999,9999,9999,2197668968
94,21,3,ISIP_8,112,9999,9999,9999,2198468676
94,21,3,ISIP_8,113,9999,9999,9999,2199268400
94,21,3,ISIP_8,114,9999,9999,9999,2200068208
94,21,3,ISIP_8,115,9999,9999,9999,2200868964
94,21,3,ISIP_8,116,9999,9999,9999,2201668672
94,21,3,ISIP_8,117,9999,9999,9999,2202468452
94,21,3,ISIP_8,118,9999,9999,9999,2203268184
94,21,3,ISIP_8,119,9999,9999,9999,2204068952
94,21,3,ISIP_8,120,9999,9999,9999,2204868692
94,21,3,ISIP_8,121,9999,9999,9999,2205668396
94,21,3,ISIP_8,122,9999,9999,9999,2206468176
94,21,3,ISIP_8,123,9999,9999,9999,2207268932
94,21,3,ISIP_8,124,9999,9999,9999,2208068712
94,21,3,ISIP_8,125,9999,9999,9999,2208868436
94,21,3,ISIP_8,126,9999,9999,9999,2209668192
94,21,3,ISIP_8,127,9999,9999,9999,2210468952
94,21,3,ISIP_8,128,9999,9999,9999,2211268660
94,21,3,ISIP_8,129,9999,9999,9999,2212068440
94,21,3,ISIP_8,130,9999,9999,9999,2212868148
94,21,3,ISIP_8,131,9999,9999,9999,2213668976
94,21,3,ISIP_8,132,9999,9999,9999,2214468728
94,21,3,ISIP_8,133,9999,9999,9999,2215268436
94,21,3,ISIP_8,134,9999,9999,9999,2216068168
94,21,3,ISIP_8,135,9999,9999,9999,2216868924
94,21,3,ISIP_8,136,9999,9999,9999,2217668704
94,21,3,ISIP_8,137,9999,9999,9999,2218468448
94,21,3,ISIP_8,138,9999,9999,9999,2219268164
94,21,3,ISIP_8,139,9999,9999,9999,2220068916
94,21,3,ISIP_8,140,9999,9999,9999,2220868700
94,21,3,ISIP_8,141,9999,9999,9999,2221668408
94,21,3,ISIP_8,142,9999,9999,9999,2222468212
94,21,3,ISIP_8,143,9999,9999,9999,2223268932
94,21,3,ISIP_8,144,9999,9999,9999,2224068716
94,21,3,ISIP_8,145,9999,9999,9999,2224868424
94,21,3,ISIP_8,146,9999,9999,9999,2225668208
94,21,3,ISIP_8,147,9999,9999,9999,2226468960
94,21,3,ISIP_8,148,9999,9999,9999,2227268708
94,21,3,ISIP_8,149,9999,9999,9999,2228068420
94,22,11,Pattern_Practice,0,5,42,127,2346081652
94,22,11,Pattern_Practice,1,5,42,127,2346582488
94,22,11,Pattern_Practice,2,5,42,127,2347082128
94,22,11,Pattern_Practice,3,5,42,127,2347581848
94,22,11,Pattern_Practice,4,1,38,27,2348078976
94,22,11,Pattern_Practice,5,5,42,127,2348081556
94,22,11,Pattern_Practice,6,1,38,41,2348184616
94,22,11,Pattern_Practice,7,1,38,20,2348261564
94,22,11,Pattern_Practice,8,1,38,27,2348365060
94,22,11,Pattern_Practice,9,1,38,23,2348479124
94,22,11,Pattern_Practice,10,5,42,127,2348582220
94,22,11,Pattern_Practice,11,1,38,28,2348722320
94,22,11,Pattern_Practice,12,1,38,27,2348850944
94,22,11,Pattern_Practice,13,5,42,127,2349081964
94,22,11,Pattern_Practice,14,1,38,30,2349110212
94,22,11,Pattern_Practice,15,1,38,35,2349250988
94,22,11,Pattern_Practice,16,1,38,22,2349451300
94,22,11,Pattern_Practice,17,5,42,127,2349581616
94,22,11,Pattern_Practice,18,1,38,31,2350014500
94,22,11,Pattern_Practice,19,5,42,127,2350082300
94,22,11,Pattern_Practice,20,1,38,38,2350128108
94,22,11,Pattern_Practice,21,1,38,23,2350278008
94,22,11,Pattern_Practice,22,5,42,127,2350582180
94,22,11,Pattern_Practice,23,1,38,31,2350721160
94,22,11,Pattern_Practice,24,1,38,28,2350821592
94,22,11,Pattern_Practice,25,1,38,14,2350991460
94,22,11,Pattern_Practice,26,1,38,26,2351077372
94,22,11,Pattern_Practice,27,5,42,127,2351081748
94,22,11,Pattern_Practice,28,1,38,28,2351462856
94,22,11,Pattern_Practice,29,1,38,17,2351538232
94,22,11,Pattern_Practice,30,5,42,127,2351581424
94,22,11,Pattern_Practice,31,1,38,27,2351949936
94,22,11,Pattern_Practice,32,5,42,127,2352082224
94,22,11,Pattern_Practice,33,1,38,35,2352149968
94,22,11,Pattern_Practice,34,1,38,16,2352247728
94,22,11,Pattern_Practice,35,1,38,31,2352505860
94,22,11,Pattern_Practice,36,5,42,127,2352582112
94,22,11,Pattern_Practice,37,1,38,33,2353022236
94,22,11,Pattern_Practice,38,5,42,127,2353081660
94,22,11,Pattern_Practice,39,1,38,35,2353527016
94,22,11,Pattern_Practice,40,5,42,127,2353581352
94,22,11,Pattern_Practice,41,5,42,127,2354082324
94,22,11,Pattern_Practice,42,1,38,36,2354135632
94,22,11,Pattern_Practice,43,1,38,29,2354218188
94,22,11,Pattern_Practice,44,1,38,21,2354394340
94,22,11,Pattern_Practice,45,1,38,27,2354484148
94,22,11,Pattern_Practice,46,5,42,127,2354581952
94,22,11,Pattern_Practice,47,1,38,27,2354969328
94,22,11,Pattern_Practice,48,5,42,127,2355081720
94,22,11,Pattern_Practice,49,5,42,127,2355582336
94,22,11,Pattern_Practice,50,1,38,35,2355604828
94,22,11,Pattern_Practice,51,1,38,14,2356026612
94,22,11,Pattern_Practice,52,5,42,127,2356082244
94,22,11,Pattern_Practice,53,1,38,43,2356150872
94,22,11,Pattern_Practice,54,1,38,35,2356263048
94,22,11,Pattern_Practice,55,1,38,24,2356482728
94,22,11,Pattern_Practice,56,5,42,127,2356581732
94,22,11,Pattern_Practice,57,5,42,127,2357081348
94,22,11,Pattern_Practice,58,1,38,35,2357084912
94,22,11,Pattern_Practice,59,1,38,19,2357205044
94,22,11,Pattern_Practice,60,1,38,43,2357576564
94,22,11,Pattern_Practice,61,5,42,127,2357582432
94,22,11,Pattern_Practice,62,1,38,16,2357669484
94,22,11,Pattern_Practice,63,1,38,35,2357984316
94,22,11,Pattern_Practice,64,5,42,127,2358082240
94,22,11,Pattern_Practice,65,1,38,40,2358123760
94,22,11,Pattern_Practice,66,1,38,30,2358235484
94,22,11,Pattern_Practice,67,1,38,24,2358512460
94,22,11,Pattern_Practice,68,5,42,127,2358581684
94,22,11,Pattern_Practice,69,5,42,127,2359082284
94,22,11,Pattern_Practice,70,1,38,24,2359088016
94,22,11,Pattern_Practice,71,5,42,127,2359582348
94,22,11,Pattern_Practice,72,1,38,22,2359586588
94,22,11,Pattern_Practice,73,1,38,16,2359901868
94,22,11,Pattern_Practice,74,1,38,30,2360080212
94,22,11,Pattern_Practice,75,5,42,127,2360082468
94,22,11,Pattern_Practice,76,1,38,31,2360338036
94,22,11,Pattern_Practice,77,1,38,27,2360429820
94,22,11,Pattern_Practice,78,5,42,127,2360581376
94,22,11,Pattern_Practice,79,1,38,37,2360982844
94,22,11,Pattern_Practice,80,5,42,127,2361082192
94,22,11,Pattern_Practice,81,1,38,40,2361539608
94,22,11,Pattern_Practice,82,5,42,127,2361582348
94,22,11,Pattern_Practice,83,1,38,22,2361850712
94,22,11,Pattern_Practice,84,1,38,47,2362055212
94,22,11,Pattern_Practice,85,5,42,127,2362081500
94,22,11,Pattern_Practice,86,1,38,26,2362159180
94,22,11,Pattern_Practice,87,1,38,23,2362370560
94,22,11,Pattern_Practice,88,1,38,31,2362460144
94,22,11,Pattern_Practice,89,5,42,127,2362582336
94,22,11,Pattern_Practice,90,1,48,35,2363021124
94,22,11,Pattern_Practice,91,5,42,127,2363082268
94,22,11,Pattern_Practice,92,1,48,46,2363558368
94,22,11,Pattern_Practice,93,5,42,127,2363581812
94,22,11,Pattern_Practice,94,1,38,28,2364008768
94,22,11,Pattern_Practice,95,5,42,127,2364081436
94,22,11,Pattern_Practice,96,1,38,47,2364139592
94,22,11,Pattern_Practice,97,1,38,46,2364579276
94,22,11,Pattern_Practice,98,5,42,127,2364582304
94,22,11,Pattern_Practice,99,5,42,127,2365082152
94,22,11,Pattern_Practice,100,1,48,44,2365158652
94,22,11,Pattern_Practice,101,5,42,127,2365581772
94,22,11,Pattern_Practice,102,1,48,33,2365662904
94,22,11,Pattern_Practice,103,5,42,127,2366082368
94,22,11,Pattern_Practice,104,1,38,40,2366110392
94,22,11,Pattern_Practice,105,1,38,54,2366263180
94,22,11,Pattern_Practice,106,5,42,127,2366582264
94,22,11,Pattern_Practice,107,1,38,39,2366659060
94,22,11,Pattern_Practice,108,5,42,127,2367082112
94,22,11,Pattern_Practice,109,1,48,57,2367183812
94,22,11,Pattern_Practice,110,5,42,127,2367581484
94,22,11,Pattern_Practice,111,1,48,54,2367673712
94,22,11,Pattern_Practice,112,5,42,127,2368082300
94,22,11,Pattern_Practice,113,1,38,32,2368093124
94,22,11,Pattern_Practice,114,1,38,58,2368228136
94,22,11,Pattern_Practice,115,1,38,51,2368538700
94,22,11,Pattern_Practice,116,5,42,127,2368582116
94,22,11,Pattern_Practice,117,1,38,33,2368697740
94,22,11,Pattern_Practice,118,5,42,127,2369081872
94,22,11,Pattern_Practice,119,1,48,55,2369206788
94,22,11,Pattern_Practice,120,5,42,127,2369581416
94,22,11,Pattern_Practice,121,1,48,51,2369673868
94,22,11,Pattern_Practice,122,1,38,42,2370036712
94,22,11,Pattern_Practice,123,5,42,127,2370082076
94,22,11,Pattern_Practice,124,1,38,59,2370189920
94,22,11,Pattern_Practice,125,1,38,37,2370570500
94,22,11,Pattern_Practice,126,5,42,127,2370581972
94,22,11,Pattern_Practice,127,1,38,42,2370811144
94,22,11,Pattern_Practice,128,5,42,127,2371081728
94,22,11,Pattern_Practice,129,1,48,36,2371262516
94,22,11,Pattern_Practice,130,5,42,127,2371582320
94,22,11,Pattern_Practice,131,1,48,39,2371672948
94,22,11,Pattern_Practice,132,1,38,33,2372017044
94,22,11,Pattern_Practice,133,5,42,127,2372082008
94,22,11,Pattern_Practice,134,1,38,46,2372181228
94,22,11,Pattern_Practice,135,1,38,22,2372523000
94,22,11,Pattern_Practice,136,5,42,127,2372581828
94,22,11,Pattern_Practice,137,1,38,38,2372657036
94,22,11,Pattern_Practice,138,5,42,127,2373081436
94,22,11,Pattern_Practice,139,1,48,57,2373113348
94,22,11,Pattern_Practice,140,1,48,54,2373558348
94,22,11,Pattern_Practice,141,5,42,127,2373582168
94,22,11,Pattern_Practice,142,1,38,41,2373956440
94,22,11,Pattern_Practice,143,5,42,127,2374081996
94,22,11,Pattern_Practice,144,1,38,65,2374164176
94,22,11,Pattern_Practice,145,1,38,43,2374510440
94,22,11,Pattern_Practice,146,5,42,127,2374581832
94,22,11,Pattern_Practice,147,1,38,56,2374709328
94,22,11,Pattern_Practice,148,5,42,127,2375082780
94,22,11,Pattern_Practice,149,1,48,40,2375171100
94,22,11,Pattern_Practice,150,5,42,127,2375581956
94,22,11,Pattern_Practice,151,1,48,56,2375648580
94,22,11,Pattern_Practice,152,1,38,29,2375952412
94,22,11,Pattern_Practice,153,1,38,23,2376016340
94,22,11,Pattern_Practice,154,5,42,127,2376081848
94,22,11,Pattern_Practice,155,1,38,52,2376172388
94,22,11,Pattern_Practice,156,1,38,40,2376528872
94,22,11,Pattern_Practice,157,5,42,127,2376581444
94,22,11,Pattern_Practice,158,1,38,19,2376618432
94,22,11,Pattern_Practice,159,1,38,42,2376756108
94,22,11,Pattern_Practice,160,5,42,127,2377082224
94,22,11,Pattern_Practice,161,1,48,59,2377197388
94,22,11,Pattern_Practice,162,5,42,127,2377581920
94,22,11,Pattern_Practice,163,1,48,49,2377675096
94,22,11,Pattern_Practice,164,5,42,127,2378081516
94,22,11,Pattern_Practice,165,1,38,49,2378160780
94,22,11,Pattern_Practice,166,1,38,43,2378306384
94,22,11,Pattern_Practice,167,1,38,30,2378351720
94,22,11,Pattern_Practice,168,5,42,127,2378582340
94,22,11,Pattern_Practice,169,1,38,35,2378628492
94,22,11,Pattern_Practice,170,1,38,31,2378928136
94,22,11,Pattern_Practice,171,5,42,127,2379082012
94,22,11,Pattern_Practice,172,1,48,42,2379386016
94,22,11,Pattern_Practice,173,1,38,14,2379398636
94,22,11,Pattern_Practice,174,1,48,22,2379511908
94,22,11,Pattern_Practice,175,5,42,127,2379581800
94,22,11,Pattern_Practice,176,1,48,49,2379886384
94,22,11,Pattern_Practice,177,1,48,19,2379984872
94,22,11,Pattern_Practice,178,5,42,127,2380081460
94,22,11,Pattern_Practice,179,1,38,65,2380392044
94,22,11,Pattern_Practice,180,5,42,127,2380582128
94,22,11,Pattern_Practice,181,1,38,49,2380588980
94,22,11,Pattern_Practice,182,1,38,30,2380640500
94,22,11,Pattern_Practice,183,1,38,51,2380994392
94,22,11,Pattern_Practice,184,5,42,127,2381081868
94,22,11,Pattern_Practice,185,1,38,48,2381141292
94,22,11,Pattern_Practice,186,1,38,38,2381190292
94,22,11,Pattern_Practice,187,1,48,36,2381572804
94,22,11,Pattern_Practice,188,5,42,127,2381581668
94,22,11,Pattern_Practice,189,1,48,59,2382067040
94,22,11,Pattern_Practice,190,5,42,127,2382082408
94,22,11,Pattern_Practice,191,1,38,30,2382551180
94,22,11,Pattern_Practice,192,5,42,127,2382582104
94,22,11,Pattern_Practice,193,1,38,45,2382640188
94,22,11,Pattern_Practice,194,1,38,33,2382714236
94,22,11,Pattern_Practice,195,1,38,32,2383028688
94,22,11,Pattern_Practice,196,5,42,127,2383081828
94,22,11,Pattern_Practice,197,1,38,60,2383231712
94,22,11,Pattern_Practice,198,5,42,127,2383581436
94,22,11,Pattern_Practice,199,1,48,44,2383674984
94,22,11,Pattern_Practice,200,5,42,127,2384082252
94,22,11,Pattern_Practice,201,1,48,52,2384134588
94,22,11,Pattern_Practice,202,1,38,30,2384462208
94,22,11,Pattern_Practice,203,5,42,127,2384581852
94,22,11,Pattern_Practice,204,1,38,52,2384681608
94,22,11,Pattern_Practice,205,1,38,38,2385027800
94,22,11,Pattern_Practice,206,5,42,127,2385081836
94,22,11,Pattern_Practice,207,1,38,30,2385112244
94,22,11,Pattern_Practice,208,1,38,14,2385209980
94,22,11,Pattern_Practice,209,1,38,45,2385264736
94,22,11,Pattern_Practice,210,5,42,127,2385581324
94,22,11,Pattern_Practice,211,1,48,60,2385740996
94,22,11,Pattern_Practice,0,9999,9999,9999,2346079288
94,22,11,Pattern_Practice,1,9999,9999,9999,2346580052
94,22,11,Pattern_Practice,2,9999,9999,9999,2347079768
94,22,11,Pattern_Practice,3,9999,9999,9999,2347579484
94,22,11,Pattern_Practice,4,9999,9999,9999,2348079196
94,22,11,Pattern_Practice,5,9999,9999,9999,2348579932
94,22,11,Pattern_Practice,6,9999,9999,9999,2349079604
94,22,11,Pattern_Practice,7,9999,9999,9999,2349579328
94,22,11,Pattern_Practice,8,9999,9999,9999,2350080084
94,22,11,Pattern_Practice,9,9999,9999,9999,2350579816
94,22,11,Pattern_Practice,10,9999,9999,9999,2351079536
94,22,11,Pattern_Practice,11,9999,9999,9999,2351579208
94,22,11,Pattern_Practice,12,9999,9999,9999,2352079936
94,22,11,Pattern_Practice,13,9999,9999,9999,2352579676
94,22,11,Pattern_Practice,14,9999,9999,9999,2353079372
94,22,11,Pattern_Practice,15,9999,9999,9999,2353579064
94,22,11,Pattern_Practice,16,9999,9999,9999,2354079812
94,22,11,Pattern_Practice,17,9999,9999,9999,2354579532
94,22,11,Pattern_Practice,18,9999,9999,9999,2355079284
94,22,11,Pattern_Practice,19,9999,9999,9999,2355579972
94,22,11,Pattern_Practice,20,9999,9999,9999,2356079736
94,22,11,Pattern_Practice,21,9999,9999,9999,2356579444
94,22,11,Pattern_Practice,22,9999,9999,9999,2357079136
94,22,11,Pattern_Practice,23,9999,9999,9999,2357579848
94,22,11,Pattern_Practice,24,9999,9999,9999,2358079580
94,22,11,Pattern_Practice,25,9999,9999,9999,2358579324
94,22,11,Pattern_Practice,26,9999,9999,9999,2359079996
94,22,11,Pattern_Practice,27,9999,9999,9999,2359579764
94,22,11,Pattern_Practice,28,9999,9999,9999,2360079440
94,22,11,Pattern_Practice,29,9999,9999,9999,2360579164
94,22,11,Pattern_Practice,30,9999,9999,9999,2361079904
94,22,11,Pattern_Practice,31,9999,9999,9999,2361579616
94,22,11,Pattern_Practice,32,9999,9999,9999,2362079288
94,22,11,Pattern_Practice,33,9999,9999,9999,2362580048
94,22,11,Pattern_Practice,34,9999,9999,9999,2363079756
94,22,11,Pattern_Practice,35,9999,9999,9999,2363579452
94,22,11,Pattern_Practice,36,9999,9999,9999,2364079220
94,22,11,Pattern_Practice,37,9999,9999,9999,2364579940
94,22,11,Pattern_Practice,38,9999,9999,9999,2365079644
94,22,11,Pattern_Practice,39,9999,9999,9999,2365579336
94,22,11,Pattern_Practice,40,9999,9999,9999,2366080080
94,22,11,Pattern_Practice,41,9999,9999,9999,2366579828
94,22,11,Pattern_Practice,42,9999,9999,9999,2367079524
94,22,11,Pattern_Practice,43,9999,9999,9999,2367579196
94,22,11,Pattern_Practice,44,9999,9999,9999,2368079940
94,22,11,Pattern_Practice,45,9999,9999,9999,2368579680
94,22,11,Pattern_Practice,46,9999,9999,9999,2369079360
94,22,11,Pattern_Practice,47,9999,9999,9999,2369579128
94,22,11,Pattern_Practice,48,9999,9999,9999,2370079864
94,22,11,Pattern_Practice,49,9999,9999,9999,2370579536
94,22,11,Pattern_Practice,50,9999,9999,9999,2371079288
94,22,11,Pattern_Practice,51,9999,9999,9999,2371579956
94,22,11,Pattern_Practice,52,9999,9999,9999,2372079720
94,22,11,Pattern_Practice,53,9999,9999,9999,2372579392
94,22,11,Pattern_Practice,54,9999,9999,9999,2373079148
94,22,11,Pattern_Practice,55,9999,9999,9999,2373579880
94,22,11,Pattern_Practice,56,9999,9999,9999,2374079560
94,22,11,Pattern_Practice,57,9999,9999,9999,2374579324
94,22,11,Pattern_Practice,58,9999,9999,9999,2375080048
94,22,11,Pattern_Practice,59,9999,9999,9999,2375579744
94,22,11,Pattern_Practice,60,9999,9999,9999,2376079412
94,22,11,Pattern_Practice,61,9999,9999,9999,2376579160
94,22,11,Pattern_Practice,62,9999,9999,9999,2377079864
94,22,11,Pattern_Practice,63,9999,9999,9999,2377579632
94,22,11,Pattern_Practice,64,9999,9999,9999,2378079304
94,22,11,Pattern_Practice,65,9999,9999,9999,2378580052
94,22,11,Pattern_Practice,66,9999,9999,9999,2379079796
94,22,11,Pattern_Practice,67,9999,9999,9999,2379579512
94,22,11,Pattern_Practice,68,9999,9999,9999,2380079172
94,22,11,Pattern_Practice,69,9999,9999,9999,2380579912
94,22,11,Pattern_Practice,70,9999,9999,9999,2381079652
94,22,11,Pattern_Practice,71,9999,9999,9999,2381579380
94,22,11,Pattern_Practice,72,9999,9999,9999,2382080124
94,22,11,Pattern_Practice,73,9999,9999,9999,2382579816
94,22,11,Pattern_Practice,74,9999,9999,9999,2383079540
94,22,11,Pattern_Practice,75,9999,9999,9999,2383579224
94,22,11,Pattern_Practice,76,9999,9999,9999,2384079964
94,22,11,Pattern_Practice,77,9999,9999,9999,2384579636
94,22,11,Pattern_Practice,78,9999,9999,9999,2385079400
94,22,11,Pattern_Practice,79,9999,9999,9999,2385579112
94,23,13,Improv_Metronome,0,5,42,127,2421771604
94,23,13,Improv_Metronome,1,5,42,127,2422272512
94,23,13,Improv_Metronome,2,5,42,127,2422772008
94,23,13,Improv_Metronome,3,1,38,29,2422889516
94,23,13,Improv_Metronome,4,1,38,46,2423039460
94,23,13,Improv_Metronome,5,1,38,28,2423112744
94,23,13,Improv_Metronome,6,5,42,127,2423271880
94,23,13,Improv_Metronome,7,1,38,50,2423324216
94,23,13,Improv_Metronome,8,5,42,127,2423771500
94,23,13,Improv_Metronome,9,1,48,58,2423797880
94,23,13,Improv_Metronome,10,1,48,50,2424212516
94,23,13,Improv_Metronome,11,5,42,127,2424272456
94,23,13,Improv_Metronome,12,1,38,48,2424616140
94,23,13,Improv_Metronome,13,5,42,127,2424772060
94,23,13,Improv_Metronome,14,1,38,59,2424834868
94,23,13,Improv_Metronome,15,1,38,66,2425154480
94,23,13,Improv_Metronome,16,5,42,127,2425271512
94,23,13,Improv_Metronome,17,1,48,56,2425697136
94,23,13,Improv_Metronome,18,1,48,31,2425763388
94,23,13,Improv_Metronome,19,5,42,127,2425772544
94,23,13,Improv_Metronome,20,1,48,62,2426237204
94,23,13,Improv_Metronome,21,5,42,127,2426272388
94,23,13,Improv_Metronome,22,1,48,23,2426309300
94,23,13,Improv_Metronome,23,1,38,59,2426765144
94,23,13,Improv_Metronome,24,5,42,127,2426771764
94,23,13,Improv_Metronome,25,1,38,47,2426866268
94,23,13,Improv_Metronome,26,1,48,13,2426882480
94,23,13,Improv_Metronome,27,1,38,53,2427263436
94,23,13,Improv_Metronome,28,5,42,127,2427271700
94,23,13,Improv_Metronome,29,5,42,127,2427772448
94,23,13,Improv_Metronome,30,1,48,62,2427826284
94,23,13,Improv_Metronome,31,1,48,53,2428270248
94,23,13,Improv_Metronome,32,5,42,127,2428271912
94,23,13,Improv_Metronome,33,1,38,31,2428670792
94,23,13,Improv_Metronome,34,1,48,13,2428683864
94,23,13,Improv_Metronome,35,5,42,127,2428771572
94,23,13,Improv_Metronome,36,1,38,66,2428879540
94,23,13,Improv_Metronome,37,1,48,16,2428892168
94,23,13,Improv_Metronome,38,1,38,62,2429221548
94,23,13,Improv_Metronome,39,5,42,127,2429272444
94,23,13,Improv_Metronome,40,1,38,25,2429336908
94,23,13,Improv_Metronome,41,5,42,127,2429772348
94,23,13,Improv_Metronome,42,1,48,69,2429785564
94,23,13,Improv_Metronome,43,1,48,49,2430248884
94,23,13,Improv_Metronome,44,5,42,127,2430271736
94,23,13,Improv_Metronome,45,1,48,17,2430362376
94,23,13,Improv_Metronome,46,1,38,54,2430664792
94,23,13,Improv_Metronome,47,5,42,127,2430771472
94,23,13,Improv_Metronome,48,1,38,64,2430893912
94,23,13,Improv_Metronome,49,1,48,17,2430907060
94,23,13,Improv_Metronome,50,1,38,69,2431240336
94,23,13,Improv_Metronome,51,5,42,127,2431272532
94,23,13,Improv_Metronome,52,5,42,127,2431772308
94,23,13,Improv_Metronome,53,1,48,46,2431794504
94,23,13,Improv_Metronome,54,1,38,13,2431807048
94,23,13,Improv_Metronome,55,5,42,127,2432271808
94,23,13,Improv_Metronome,56,1,48,46,2432288240
94,23,13,Improv_Metronome,57,1,38,62,2432737876
94,23,13,Improv_Metronome,58,5,42,127,2432771420
94,23,13,Improv_Metronome,59,1,38,43,2432964604
94,23,13,Improv_Metronome,60,1,38,68,2433246144
94,23,13,Improv_Metronome,61,5,42,127,2433272436
94,23,13,Improv_Metronome,62,1,48,53,2433734700
94,23,13,Improv_Metronome,63,5,42,127,2433771832
94,23,13,Improv_Metronome,64,1,48,42,2434236712
94,23,13,Improv_Metronome,65,5,42,127,2434271528
94,23,13,Improv_Metronome,66,1,38,67,2434678888
94,23,13,Improv_Metronome,67,5,42,127,2434772420
94,23,13,Improv_Metronome,68,1,38,84,2434918488
94,23,13,Improv_Metronome,69,1,38,78,2435230320
94,23,13,Improv_Metronome,70,5,42,127,2435272316
94,23,13,Improv_Metronome,71,1,48,59,2435721936
94,23,13,Improv_Metronome,72,5,42,127,2435771712
94,23,13,Improv_Metronome,73,1,48,51,2436232404
94,23,13,Improv_Metronome,74,5,42,127,2436271480
94,23,13,Improv_Metronome,75,1,38,51,2436718784
94,23,13,Improv_Metronome,76,5,42,127,2436772148
94,23,13,Improv_Metronome,77,1,38,69,2436961972
94,23,13,Improv_Metronome,78,1,38,58,2437235580
94,23,13,Improv_Metronome,79,5,42,127,2437271820
94,23,13,Improv_Metronome,80,1,48,41,2437734832
94,23,13,Improv_Metronome,81,5,42,127,2437771664
94,23,13,Improv_Metronome,82,1,48,65,2438243576
94,23,13,Improv_Metronome,83,5,42,127,2438272408
94,23,13,Improv_Metronome,84,1,38,73,2438713848
94,23,13,Improv_Metronome,85,5,42,127,2438772176
94,23,13,Improv_Metronome,86,1,38,83,2438983364
94,23,13,Improv_Metronome,87,1,38,43,2439271556
94,23,13,Improv_Metronome,88,5,42,127,2439273644
94,23,13,Improv_Metronome,89,5,42,127,2439771524
94,23,13,Improv_Metronome,90,1,48,60,2439783116
94,23,13,Improv_Metronome,91,1,48,55,2440271060
94,23,13,Improv_Metronome,92,5,42,127,2440272628
94,23,13,Improv_Metronome,93,1,38,80,2440726064
94,23,13,Improv_Metronome,94,5,42,127,2440771880
94,23,13,Improv_Metronome,95,1,38,54,2440943976
94,23,13,Improv_Metronome,96,1,38,73,2441252668
94,23,13,Improv_Metronome,97,5,42,127,2441271700
94,23,13,Improv_Metronome,98,1,38,23,2441354416
94,23,13,Improv_Metronome,99,5,42,127,2441772356
94,23,13,Improv_Metronome,100,1,48,63,2441776220
94,23,13,Improv_Metronome,101,5,42,127,2442272196
94,23,13,Improv_Metronome,102,1,48,57,2442277036
94,23,13,Improv_Metronome,103,1,38,50,2442711712
94,23,13,Improv_Metronome,104,5,42,127,2442771812
94,23,13,Improv_Metronome,105,1,38,49,2442923488
94,23,13,Improv_Metronome,106,1,38,86,2443244144
94,23,13,Improv_Metronome,107,5,42,127,2443271484
94,23,13,Improv_Metronome,108,5,42,127,2443772304
94,23,13,Improv_Metronome,109,1,48,37,2443774896
94,23,13,Improv_Metronome,110,1,38,16,2443787672
94,23,13,Improv_Metronome,111,5,42,127,2444272040
94,23,13,Improv_Metronome,112,1,48,35,2444281816
94,23,13,Improv_Metronome,113,1,38,75,2444693156
94,23,13,Improv_Metronome,114,5,42,127,2444771580
94,23,13,Improv_Metronome,115,1,38,50,2444942028
94,23,13,Improv_Metronome,116,1,38,63,2445255884
94,23,13,Improv_Metronome,117,5,42,127,2445272300
94,23,13,Improv_Metronome,118,1,48,39,2445742340
94,23,13,Improv_Metronome,119,5,42,127,2445772068
94,23,13,Improv_Metronome,120,1,38,38,2446198800
94,23,13,Improv_Metronome,121,5,42,127,2446271984
94,23,13,Improv_Metronome,122,1,38,63,2446730512
94,23,13,Improv_Metronome,123,5,42,127,2446771532
94,23,13,Improv_Metronome,124,1,38,23,2446932160
94,23,13,Improv_Metronome,125,1,38,44,2447233916
94,23,13,Improv_Metronome,126,5,42,127,2447272324
94,23,13,Improv_Metronome,127,5,42,127,2447772100
94,23,13,Improv_Metronome,128,1,48,57,2447847324
94,23,13,Improv_Metronome,129,5,42,127,2448271724
94,23,13,Improv_Metronome,130,1,48,53,2448286580
94,23,13,Improv_Metronome,131,1,38,64,2448738540
94,23,13,Improv_Metronome,132,5,42,127,2448771560
94,23,13,Improv_Metronome,133,1,38,64,2449035360
94,23,13,Improv_Metronome,134,5,42,127,2449272212
94,23,13,Improv_Metronome,135,1,38,61,2449290964
94,23,13,Improv_Metronome,136,5,42,127,2449771832
94,23,13,Improv_Metronome,137,1,48,51,2449827984
94,23,13,Improv_Metronome,138,5,42,127,2450271604
94,23,13,Improv_Metronome,139,1,48,46,2450313988
94,23,13,Improv_Metronome,140,1,38,15,2450326760
94,23,13,Improv_Metronome,141,5,42,127,2450772272
94,23,13,Improv_Metronome,142,1,38,70,2450773980
94,23,13,Improv_Metronome,143,1,38,58,2451068028
94,23,13,Improv_Metronome,144,5,42,127,2451272168
94,23,13,Improv_Metronome,145,1,38,71,2451314284
94,23,13,Improv_Metronome,146,5,42,127,2451771788
94,23,13,Improv_Metronome,147,1,48,53,2451840084
94,23,13,Improv_Metronome,148,5,42,127,2452271484
94,23,13,Improv_Metronome,149,1,48,46,2452325340
94,23,13,Improv_Metronome,150,1,38,56,2452689088
94,23,13,Improv_Metronome,151,5,42,127,2452772144
94,23,13,Improv_Metronome,152,1,38,65,2452979616
94,23,13,Improv_Metronome,153,1,38,58,2453272344
94,23,13,Improv_Metronome,154,5,42,127,2453274812
94,23,13,Improv_Metronome,155,1,48,49,2453724284
94,23,13,Improv_Metronome,156,5,42,127,2453771588
94,23,13,Improv_Metronome,157,5,42,127,2454272412
94,23,13,Improv_Metronome,158,1,48,57,2454305896
94,23,13,Improv_Metronome,159,1,38,48,2454730696
94,23,13,Improv_Metronome,160,1,48,15,2454742724
94,23,13,Improv_Metronome,161,5,42,127,2454772152
94,23,13,Improv_Metronome,162,1,38,70,2454939208
94,23,13,Improv_Metronome,163,1,38,77,2455248424
94,23,13,Improv_Metronome,164,5,42,127,2455271724
94,23,13,Improv_Metronome,165,1,48,59,2455675492
94,23,13,Improv_Metronome,166,5,42,127,2455771492
94,23,13,Improv_Metronome,167,1,48,46,2456213860
94,23,13,Improv_Metronome,168,5,42,127,2456272232
94,23,13,Improv_Metronome,169,1,48,45,2456722828
94,23,13,Improv_Metronome,170,1,38,14,2456738892
94,23,13,Improv_Metronome,171,5,42,127,2456772060
94,23,13,Improv_Metronome,172,1,48,26,2456788328
94,23,13,Improv_Metronome,173,1,48,57,2456982556
94,23,13,Improv_Metronome,174,1,48,49,2457171396
94,23,13,Improv_Metronome,175,5,42,127,2457271520
94,23,13,Improv_Metronome,176,1,38,50,2457712404
94,23,13,Improv_Metronome,177,5,42,127,2457772352
94,23,13,Improv_Metronome,178,5,42,127,2458272052
94,23,13,Improv_Metronome,179,1,48,54,2458313316
94,23,13,Improv_Metronome,180,1,48,22,2458396020
94,23,13,Improv_Metronome,181,1,48,43,2458586312
94,23,13,Improv_Metronome,182,1,48,39,2458638196
94,23,13,Improv_Metronome,183,5,42,127,2458771832
94,23,13,Improv_Metronome,184,1,48,68,2458863884
94,23,13,Improv_Metronome,185,5,42,127,2459271528
94,23,13,Improv_Metronome,186,1,38,64,2459363580
94,23,13,Improv_Metronome,187,5,42,127,2459772268
94,23,13,Improv_Metronome,188,1,38,55,2459810092
94,23,13,Improv_Metronome,189,1,48,14,2459823388
94,23,13,Improv_Metronome,190,5,42,127,2460271992
94,23,13,Improv_Metronome,191,1,48,45,2460305924
94,23,13,Improv_Metronome,192,1,48,77,2460533092
94,23,13,Improv_Metronome,193,5,42,127,2460771740
94,23,13,Improv_Metronome,194,1,48,66,2460795576
94,23,13,Improv_Metronome,195,5,42,127,2461272384
94,23,13,Improv_Metronome,196,1,38,65,2461295872
94,23,13,Improv_Metronome,197,1,38,60,2461739352
94,23,13,Improv_Metronome,198,5,42,127,2461772072
94,23,13,Improv_Metronome,199,1,48,55,2462265000
94,23,13,Improv_Metronome,200,5,42,127,2462272140
94,23,13,Improv_Metronome,201,1,48,29,2462507812
94,23,13,Improv_Metronome,202,5,42,127,2462771596
94,23,13,Improv_Metronome,203,1,48,57,2462774260
94,23,13,Improv_Metronome,204,5,42,127,2463272412
94,23,13,Improv_Metronome,205,1,38,63,2463292588
94,23,13,Improv_Metronome,206,1,38,54,2463717236
94,23,13,Improv_Metronome,207,5,42,127,2463772172
94,23,13,Improv_Metronome,208,1,48,52,2464250664
94,23,13,Improv_Metronome,209,5,42,127,2464272016
94,23,13,Improv_Metronome,210,1,48,47,2464449276
94,23,13,Improv_Metronome,211,1,38,16,2464465412
94,23,13,Improv_Metronome,212,5,42,127,2464771428
94,23,13,Improv_Metronome,213,1,48,62,2464794216
94,23,13,Improv_Metronome,214,5,42,127,2465272168
94,23,13,Improv_Metronome,215,1,38,35,2465281272
94,23,13,Improv_Metronome,216,1,38,53,2465727016
94,23,13,Improv_Metronome,217,5,42,127,2465772152
94,23,13,Improv_Metronome,218,1,48,63,2466227388
94,23,13,Improv_Metronome,219,5,42,127,2466271476
94,23,13,Improv_Metronome,220,1,48,46,2466467508
94,23,13,Improv_Metronome,221,1,48,63,2466748004
94,23,13,Improv_Metronome,222,5,42,127,2466772196
94,23,13,Improv_Metronome,223,1,38,60,2467253384
94,23,13,Improv_Metronome,224,5,42,127,2467272188
94,23,13,Improv_Metronome,225,1,38,60,2467735048
94,23,13,Improv_Metronome,226,5,42,127,2467771960
94,23,13,Improv_Metronome,227,1,48,52,2468269848
94,23,13,Improv_Metronome,228,5,42,127,2468271432
94,23,13,Improv_Metronome,229,1,48,62,2468487512
94,23,13,Improv_Metronome,230,1,48,19,2468576872
94,23,13,Improv_Metronome,231,5,42,127,2468772064
94,23,13,Improv_Metronome,232,1,48,53,2468799644
94,23,13,Improv_Metronome,233,5,42,127,2469272056
94,23,13,Improv_Metronome,234,1,38,60,2469305844
94,23,13,Improv_Metronome,235,5,42,127,2469771604
94,23,13,Improv_Metronome,236,1,38,55,2469772940
94,23,13,Improv_Metronome,237,5,42,127,2470272268
94,23,13,Improv_Metronome,238,1,48,73,2470331636
94,23,13,Improv_Metronome,239,1,48,43,2470614300
94,23,13,Improv_Metronome,240,5,42,127,2470772016
94,23,13,Improv_Metronome,241,1,48,54,2470880072
94,23,13,Improv_Metronome,242,5,42,127,2471272008
94,23,13,Improv_Metronome,243,1,38,69,2471393008
94,23,13,Improv_Metronome,244,5,42,127,2471771456
94,23,13,Improv_Metronome,245,1,38,56,2471848472
94,23,13,Improv_Metronome,246,5,42,127,2472272172
94,23,13,Improv_Metronome,247,1,48,64,2472345028
94,23,13,Improv_Metronome,248,1,48,66,2472624400
94,23,13,Improv_Metronome,249,5,42,127,2472771996
94,23,13,Improv_Metronome,250,1,48,51,2472875664
94,23,13,Improv_Metronome,251,1,48,24,2472947300
94,23,13,Improv_Metronome,252,5,42,127,2473271892
94,23,13,Improv_Metronome,253,1,38,69,2473339140
94,23,13,Improv_Metronome,254,5,42,127,2473772264
94,23,13,Improv_Metronome,255,1,38,71,2473830304
94,23,13,Improv_Metronome,256,5,42,127,2474272104
94,23,13,Improv_Metronome,257,1,48,73,2474293400
94,23,13,Improv_Metronome,258,1,48,102,2474510468
94,23,13,Improv_Metronome,259,1,48,62,2474707036
94,23,13,Improv_Metronome,260,5,42,127,2474771996
94,23,13,Improv_Metronome,261,1,48,24,2474785872
94,23,13,Improv_Metronome,262,1,38,64,2475219944
94,23,13,Improv_Metronome,263,5,42,127,2475271816
94,23,13,Improv_Metronome,264,1,38,59,2475677232
94,23,13,Improv_Metronome,265,5,42,127,2475772316
94,23,13,Improv_Metronome,266,1,48,83,2476179092
94,23,13,Improv_Metronome,267,5,42,127,2476271940
94,23,13,Improv_Metronome,268,1,48,79,2476338560
94,23,13,Improv_Metronome,269,1,48,99,2476669936
94,23,13,Improv_Metronome,270,5,42,127,2476771836
94,23,13,Improv_Metronome,271,1,38,56,2477161488
94,23,13,Improv_Metronome,272,5,42,127,2477272500
94,23,13,Improv_Metronome,273,1,38,65,2477622780
94,23,13,Improv_Metronome,274,5,42,127,2477772048
94,23,13,Improv_Metronome,275,1,48,83,2478084404
94,23,13,Improv_Metronome,276,5,42,127,2478271816
94,23,13,Improv_Metronome,277,1,48,74,2478308888
94,23,13,Improv_Metronome,278,1,48,75,2478587592
94,23,13,Improv_Metronome,279,5,42,127,2478771636
94,23,13,Improv_Metronome,280,1,38,65,2479093044
94,23,13,Improv_Metronome,281,5,42,127,2479272232
94,23,13,Improv_Metronome,282,1,38,71,2479560732
94,23,13,Improv_Metronome,283,5,42,127,2479772000
94,23,13,Improv_Metronome,284,1,48,88,2480041572
94,23,13,Improv_Metronome,285,5,42,127,2480271844
94,23,13,Improv_Metronome,286,1,48,63,2480308252
94,23,13,Improv_Metronome,287,1,48,69,2480521124
94,23,13,Improv_Metronome,288,5,42,127,2480771368
94,23,13,Improv_Metronome,289,1,38,57,2481061288
94,23,13,Improv_Metronome,290,5,42,127,2481272112
94,23,13,Improv_Metronome,291,1,38,66,2481526948
94,23,13,Improv_Metronome,292,5,42,127,2481771808
94,23,13,Improv_Metronome,293,1,48,83,2482036068
94,23,13,Improv_Metronome,294,5,42,127,2482271796
94,23,13,Improv_Metronome,295,1,48,61,2482278056
94,23,13,Improv_Metronome,296,1,48,78,2482512380
94,23,13,Improv_Metronome,297,5,42,127,2482772420
94,23,13,Improv_Metronome,298,1,38,66,2483017680
94,23,13,Improv_Metronome,299,5,42,127,2483272040
94,23,13,Improv_Metronome,300,1,38,38,2483498452
94,23,13,Improv_Metronome,301,5,42,127,2483771732
94,23,13,Improv_Metronome,302,1,48,83,2483927984
94,23,13,Improv_Metronome,303,1,48,35,2484165024
94,23,13,Improv_Metronome,304,5,42,127,2484271332
94,23,13,Improv_Metronome,305,1,48,80,2484386896
94,23,13,Improv_Metronome,306,5,42,127,2484772220
94,23,13,Improv_Metronome,307,1,38,38,2484819996
94,23,13,Improv_Metronome,308,1,38,56,2485261852
94,23,13,Improv_Metronome,309,5,42,127,2485271984
94,23,13,Improv_Metronome,310,1,48,16,2485275252
94,23,13,Improv_Metronome,311,1,38,79,2485748948
94,23,13,Improv_Metronome,312,5,42,127,2485771792
94,23,13,Improv_Metronome,313,1,38,61,2486216700
94,23,13,Improv_Metronome,314,5,42,127,2486272832
94,23,13,Improv_Metronome,315,1,48,60,2486690664
94,23,13,Improv_Metronome,316,5,42,127,2486772008
94,23,13,Improv_Metronome,317,1,48,58,2486881196
94,23,13,Improv_Metronome,318,1,48,86,2487164012
94,23,13,Improv_Metronome,319,5,42,127,2487271740
94,23,13,Improv_Metronome,320,1,38,33,2487672456
94,23,13,Improv_Metronome,321,5,42,127,2487771584
94,23,13,Improv_Metronome,322,1,38,56,2488210000
94,23,13,Improv_Metronome,323,5,42,127,2488272264
94,23,13,Improv_Metronome,324,1,38,89,2488713584
94,23,13,Improv_Metronome,325,5,42,127,2488771884
94,23,13,Improv_Metronome,326,1,48,82,2489242596
94,23,13,Improv_Metronome,327,5,42,127,2489271804
94,23,13,Improv_Metronome,328,5,42,127,2489772404
94,23,13,Improv_Metronome,329,1,48,77,2489799908
94,23,13,Improv_Metronome,330,1,38,64,2490185792
94,23,13,Improv_Metronome,331,1,38,35,2490244056
94,23,13,Improv_Metronome,332,5,42,127,2490272068
94,23,13,Improv_Metronome,333,1,48,104,2490738592
94,23,13,Improv_Metronome,334,5,42,127,2490771692
94,23,13,Improv_Metronome,335,5,42,127,2491271616
94,23,13,Improv_Metronome,336,1,38,93,2491296720
94,23,13,Improv_Metronome,337,1,48,84,2491764684
94,23,13,Improv_Metronome,0,9999,9999,9999,2421769316
94,23,13,Improv_Metronome,1,9999,9999,9999,2422270004
94,23,13,Improv_Metronome,2,9999,9999,9999,2422769720
94,23,13,Improv_Metronome,3,9999,9999,9999,2423269444
94,23,13,Improv_Metronome,4,9999,9999,9999,2423769136
94,23,13,Improv_Metronome,5,9999,9999,9999,2424269948
94,23,13,Improv_Metronome,6,9999,9999,9999,2424769624
94,23,13,Improv_Metronome,7,9999,9999,9999,2425269300
94,23,13,Improv_Metronome,8,9999,9999,9999,2425770036
94,23,13,Improv_Metronome,9,9999,9999,9999,2426269804
94,23,13,Improv_Metronome,10,9999,9999,9999,2426769476
94,23,13,Improv_Metronome,11,9999,9999,9999,2427269188
94,23,13,Improv_Metronome,12,9999,9999,9999,2427769936
94,23,13,Improv_Metronome,13,9999,9999,9999,2428269636
94,23,13,Improv_Metronome,14,9999,9999,9999,2428769360
94,23,13,Improv_Metronome,15,9999,9999,9999,2429270084
94,23,13,Improv_Metronome,16,9999,9999,9999,2429769836
94,23,13,Improv_Metronome,17,9999,9999,9999,2430269524
94,23,13,Improv_Metronome,18,9999,9999,9999,2430769256
94,23,13,Improv_Metronome,19,9999,9999,9999,2431269944
94,23,13,Improv_Metronome,20,9999,9999,9999,2431769724
94,23,13,Improv_Metronome,21,9999,9999,9999,2432269372
94,23,13,Improv_Metronome,22,9999,9999,9999,2432769132
94,23,13,Improv_Metronome,23,9999,9999,9999,2433269852
94,23,13,Improv_Metronome,24,9999,9999,9999,2433769548
94,23,13,Improv_Metronome,25,9999,9999,9999,2434269240
94,23,13,Improv_Metronome,26,9999,9999,9999,2434769984
94,23,13,Improv_Metronome,27,9999,9999,9999,2435269732
94,23,13,Improv_Metronome,28,9999,9999,9999,2435769424
94,23,13,Improv_Metronome,29,9999,9999,9999,2436269120
94,23,13,Improv_Metronome,30,9999,9999,9999,2436769860
94,23,13,Improv_Metronome,31,9999,9999,9999,2437269608
94,23,13,Improv_Metronome,32,9999,9999,9999,2437769304
94,23,13,Improv_Metronome,33,9999,9999,9999,2438270044
94,23,13,Improv_Metronome,34,9999,9999,9999,2438769740
94,23,13,Improv_Metronome,35,9999,9999,9999,2439269492
94,23,13,Improv_Metronome,36,9999,9999,9999,2439769160
94,23,13,Improv_Metronome,37,9999,9999,9999,2440269904
94,23,13,Improv_Metronome,38,9999,9999,9999,2440769592
94,23,13,Improv_Metronome,39,9999,9999,9999,2441269340
94,23,13,Improv_Metronome,40,9999,9999,9999,2441770068
94,23,13,Improv_Metronome,41,9999,9999,9999,2442269760
94,23,13,Improv_Metronome,42,9999,9999,9999,2442769524
94,23,13,Improv_Metronome,43,9999,9999,9999,2443269196
94,23,13,Improv_Metronome,44,9999,9999,9999,2443769944
94,23,13,Improv_Metronome,45,9999,9999,9999,2444269680
94,23,13,Improv_Metronome,46,9999,9999,9999,2444769368
94,23,13,Improv_Metronome,47,9999,9999,9999,2445270088
94,23,13,Improv_Metronome,48,9999,9999,9999,2445769780
94,23,13,Improv_Metronome,49,9999,9999,9999,2446269548
94,23,13,Improv_Metronome,50,9999,9999,9999,2446769244
94,23,13,Improv_Metronome,51,9999,9999,9999,2447269964
94,23,13,Improv_Metronome,52,9999,9999,9999,2447769664
94,23,13,Improv_Metronome,53,9999,9999,9999,2448269436
94,23,13,Improv_Metronome,54,9999,9999,9999,2448769124
94,23,13,Improv_Metronome,55,9999,9999,9999,2449269848
94,23,13,Improv_Metronome,56,9999,9999,9999,2449769544
94,23,13,Improv_Metronome,57,9999,9999,9999,2450269288
94,23,13,Improv_Metronome,58,9999,9999,9999,2450769984
94,23,13,Improv_Metronome,59,9999,9999,9999,2451269732
94,23,13,Improv_Metronome,60,9999,9999,9999,2451769428
94,23,13,Improv_Metronome,61,9999,9999,9999,2452269124
94,23,13,Improv_Metronome,62,9999,9999,9999,2452769860
94,23,13,Improv_Metronome,63,9999,9999,9999,2453269612
94,23,13,Improv_Metronome,64,9999,9999,9999,2453769300
94,23,13,Improv_Metronome,65,9999,9999,9999,2454270048
94,23,13,Improv_Metronome,66,9999,9999,9999,2454769716
94,23,13,Improv_Metronome,67,9999,9999,9999,2455269436
94,23,13,Improv_Metronome,68,9999,9999,9999,2455769204
94,23,13,Improv_Metronome,69,9999,9999,9999,2456269948
94,23,13,Improv_Metronome,70,9999,9999,9999,2456769624
94,23,13,Improv_Metronome,71,9999,9999,9999,2457269308
94,23,13,Improv_Metronome,72,9999,9999,9999,2457770064
94,23,13,Improv_Metronome,73,9999,9999,9999,2458269764
94,23,13,Improv_Metronome,74,9999,9999,9999,2458769468
94,23,13,Improv_Metronome,75,9999,9999,9999,2459269240
94,23,13,Improv_Metronome,76,9999,9999,9999,2459769904
94,23,13,Improv_Metronome,77,9999,9999,9999,2460269628
94,23,13,Improv_Metronome,78,9999,9999,9999,2460769376
94,23,13,Improv_Metronome,79,9999,9999,9999,2461270096
94,23,13,Improv_Metronome,80,9999,9999,9999,2461769784
94,23,13,Improv_Metronome,81,9999,9999,9999,2462269556
94,23,13,Improv_Metronome,82,9999,9999,9999,2462769232
94,23,13,Improv_Metronome,83,9999,9999,9999,2463269972
94,23,13,Improv_Metronome,84,9999,9999,9999,2463769664
94,23,13,Improv_Metronome,85,9999,9999,9999,2464269432
94,23,13,Improv_Metronome,86,9999,9999,9999,2464769140
94,23,13,Improv_Metronome,87,9999,9999,9999,2465269880
94,23,13,Improv_Metronome,88,9999,9999,9999,2465769568
94,23,13,Improv_Metronome,89,9999,9999,9999,2466269264
94,23,13,Improv_Metronome,90,9999,9999,9999,2466769984
94,23,13,Improv_Metronome,91,9999,9999,9999,2467269756
94,23,13,Improv_Metronome,92,9999,9999,9999,2467769448
94,23,13,Improv_Metronome,93,9999,9999,9999,2468269156
94,23,13,Improv_Metronome,94,9999,9999,9999,2468769852
94,23,13,Improv_Metronome,95,9999,9999,9999,2469269620
94,23,13,Improv_Metronome,96,9999,9999,9999,2469769316
94,23,13,Improv_Metronome,97,9999,9999,9999,2470270056
94,23,13,Improv_Metronome,98,9999,9999,9999,2470769728
94,23,13,Improv_Metronome,99,9999,9999,9999,2471269500
94,23,13,Improv_Metronome,100,9999,9999,9999,2471769168
94,23,13,Improv_Metronome,101,9999,9999,9999,2472269884
94,23,13,Improv_Metronome,102,9999,9999,9999,2472769632
94,23,13,Improv_Metronome,103,9999,9999,9999,2473269304
94,23,13,Improv_Metronome,104,9999,9999,9999,2473770048
94,23,13,Improv_Metronome,105,9999,9999,9999,2474269816
94,23,13,Improv_Metronome,106,9999,9999,9999,2474769484
94,23,13,Improv_Metronome,107,9999,9999,9999,2475269232
94,23,13,Improv_Metronome,108,9999,9999,9999,2475769956
94,23,13,Improv_Metronome,109,9999,9999,9999,2476269672
94,23,13,Improv_Metronome,110,9999,9999,9999,2476769396
94,23,13,Improv_Metronome,111,9999,9999,9999,2477270068
94,23,13,Improv_Metronome,112,9999,9999,9999,2477769836
94,23,13,Improv_Metronome,113,9999,9999,9999,2478269528
94,23,13,Improv_Metronome,114,9999,9999,9999,2478769200
94,23,13,Improv_Metronome,115,9999,9999,9999,2479269944
94,23,13,Improv_Metronome,116,9999,9999,9999,2479769716
94,23,13,Improv_Metronome,117,9999,9999,9999,2480269408
94,23,13,Improv_Metronome,118,9999,9999,9999,2480769080
94,23,13,Improv_Metronome,119,9999,9999,9999,2481269824
94,23,13,Improv_Metronome,120,9999,9999,9999,2481769592
94,23,13,Improv_Metronome,121,9999,9999,9999,2482269288
94,23,13,Improv_Metronome,122,9999,9999,9999,2482769980
94,23,13,Improv_Metronome,123,9999,9999,9999,2483269752
94,23,13,Improv_Metronome,124,9999,9999,9999,2483769444
94,23,13,Improv_Metronome,125,9999,9999,9999,2484269120
94,23,13,Improv_Metronome,126,9999,9999,9999,2484769860
94,23,13,Improv_Metronome,127,9999,9999,9999,2485269624
94,23,13,Improv_Metronome,128,9999,9999,9999,2485769284
94,23,13,Improv_Metronome,129,9999,9999,9999,2486270024
94,23,13,Improv_Metronome,130,9999,9999,9999,2486769720
94,23,13,Improv_Metronome,131,9999,9999,9999,2487269452
94,23,13,Improv_Metronome,132,9999,9999,9999,2487769148
94,23,13,Improv_Metronome,133,9999,9999,9999,2488269904
94,23,13,Improv_Metronome,134,9999,9999,9999,2488769596
94,23,13,Improv_Metronome,135,9999,9999,9999,2489269368
94,23,13,Improv_Metronome,136,9999,9999,9999,2489770040
94,23,13,Improv_Metronome,137,9999,9999,9999,2490269780
94,23,13,Improv_Metronome,138,9999,9999,9999,2490769480
94,23,13,Improv_Metronome,139,9999,9999,9999,2491269180
94,24,14,Improv_Melody,0,2,48,80,2543117504
94,24,14,Improv_Melody,1,2,72,80,2543119884
94,24,14,Improv_Melody,2,5,42,127,2543122268
94,24,14,Improv_Melody,3,5,42,110,2543616312
94,24,14,Improv_Melody,4,5,42,110,2544115956
94,24,14,Improv_Melody,5,5,42,110,2544615752
94,24,14,Improv_Melody,6,5,42,127,2545115548
94,24,14,Improv_Melody,7,5,42,110,2545616168
94,24,14,Improv_Melody,8,5,42,110,2546116112
94,24,14,Improv_Melody,9,5,42,110,2546615612
94,24,14,Improv_Melody,10,2,43,80,2547119116
94,24,14,Improv_Melody,11,2,67,80,2547121192
94,24,14,Improv_Melody,12,5,42,127,2547123796
94,24,14,Improv_Melody,13,5,42,110,2547616116
94,24,14,Improv_Melody,14,5,42,110,2548115912
94,24,14,Improv_Melody,15,5,42,110,2548615632
94,24,14,Improv_Melody,16,5,42,127,2549116328
94,24,14,Improv_Melody,17,5,42,110,2549615900
94,24,14,Improv_Melody,18,5,42,110,2550115696
94,24,14,Improv_Melody,19,5,42,110,2550616292
94,24,14,Improv_Melody,20,2,45,80,2551118740
94,24,14,Improv_Melody,21,2,69,80,2551120816
94,24,14,Improv_Melody,22,5,42,127,2551123352
94,24,14,Improv_Melody,23,5,42,110,2551615896
94,24,14,Improv_Melody,24,5,42,110,2552115616
94,24,14,Improv_Melody,25,5,42,110,2552616236
94,24,14,Improv_Melody,26,5,42,127,2553116108
94,24,14,Improv_Melody,27,5,42,110,2553615752
94,24,14,Improv_Melody,28,5,42,110,2554115400
94,24,14,Improv_Melody,29,5,42,110,2554616168
94,24,14,Improv_Melody,30,2,41,80,2555118472
94,24,14,Improv_Melody,31,2,65,80,2555120620
94,24,14,Improv_Melody,32,5,42,127,2555123160
94,24,14,Improv_Melody,33,5,42,110,2555615700
94,24,14,Improv_Melody,34,5,42,110,2556116320
94,24,14,Improv_Melody,35,5,42,110,2556616116
94,24,14,Improv_Melody,36,5,42,127,2557115840
94,24,14,Improv_Melody,37,5,42,110,2557615412
94,24,14,Improv_Melody,38,5,42,110,2558116104
94,24,14,Improv_Melody,39,5,42,110,2558615900
94,24,14,Improv_Melody,40,1,38,22,2558702196
94,24,14,Improv_Melody,41,2,48,80,2559118184
94,24,14,Improv_Melody,42,2,72,80,2559120412
94,24,14,Improv_Melody,43,5,42,127,2559123096
94,24,14,Improv_Melody,44,1,38,32,2559129056
94,24,14,Improv_Melody,45,1,38,35,2559271752
94,24,14,Improv_Melody,46,1,38,27,2559499812
94,24,14,Improv_Melody,47,5,42,110,2559616248
94,24,14,Improv_Melody,48,1,38,24,2559628040
94,24,14,Improv_Melody,49,1,38,33,2559910852
94,24,14,Improv_Melody,50,1,38,32,2560007844
94,24,14,Improv_Melody,51,5,42,110,2560116200
94,24,14,Improv_Melody,52,1,38,27,2560319928
94,24,14,Improv_Melody,53,1,38,29,2560529592
94,24,14,Improv_Melody,54,1,38,20,2560593144
94,24,14,Improv_Melody,55,5,42,110,2560615944
94,24,14,Improv_Melody,56,1,38,39,2560885880
94,24,14,Improv_Melody,57,1,38,20,2560977484
94,24,14,Improv_Melody,58,5,42,127,2561115388
94,24,14,Improv_Melody,59,1,38,28,2561153732
94,24,14,Improv_Melody,60,1,38,35,2561422108
94,24,14,Improv_Melody,61,1,38,26,2561585448
94,24,14,Improv_Melody,62,5,42,110,2561616228
94,24,14,Improv_Melody,63,1,38,24,2561650472
94,24,14,Improv_Melody,64,1,38,32,2561852928
94,24,14,Improv_Melody,65,1,38,14,2561952788
94,24,14,Improv_Melody,66,1,38,29,2562079692
94,24,14,Improv_Melody,67,5,42,110,2562115936
94,24,14,Improv_Melody,68,1,38,21,2562140908
94,24,14,Improv_Melody,69,1,38,41,2562342688
94,24,14,Improv_Melody,70,1,38,42,2562453920
94,24,14,Improv_Melody,71,1,38,22,2562530116
94,24,14,Improv_Melody,72,5,42,110,2562615800
94,24,14,Improv_Melody,73,1,38,27,2562800988
94,24,14,Improv_Melody,74,1,38,30,2562998608
94,24,14,Improv_Melody,75,2,43,80,2563119172
94,24,14,Improv_Melody,76,2,67,80,2563121016
94,24,14,Improv_Melody,77,5,42,127,2563123852
94,24,14,Improv_Melody,78,1,38,31,2563311376
94,24,14,Improv_Melody,79,1,38,42,2563439956
94,24,14,Improv_Melody,80,1,38,21,2563532680
94,24,14,Improv_Melody,81,5,42,110,2563616044
94,24,14,Improv_Melody,82,1,38,35,2563774004
94,24,14,Improv_Melody,83,1,38,37,2563902564
94,24,14,Improv_Melody,84,5,42,110,2564116008
94,24,14,Improv_Melody,85,1,38,29,2564253716
94,24,14,Improv_Melody,86,1,38,42,2564384512
94,24,14,Improv_Melody,87,1,38,21,2564471284
94,24,14,Improv_Melody,88,5,42,110,2564615516
94,24,14,Improv_Melody,89,1,38,27,2564731156
94,24,14,Improv_Melody,90,1,38,36,2564853876
94,24,14,Improv_Melody,91,5,42,127,2565116388
94,24,14,Improv_Melody,92,1,38,30,2565204108
94,24,14,Improv_Melody,93,1,38,31,2565242932
94,24,14,Improv_Melody,94,1,38,21,2565321968
94,24,14,Improv_Melody,95,1,38,27,2565376548
94,24,14,Improv_Melody,96,5,42,110,2565616020
94,24,14,Improv_Melody,97,1,38,62,2565797708
94,24,14,Improv_Melody,98,5,42,110,2566115944
94,24,14,Improv_Melody,99,1,38,32,2566152052
94,24,14,Improv_Melody,100,1,38,43,2566494804
94,24,14,Improv_Melody,101,5,42,110,2566616376
94,24,14,Improv_Melody,102,1,38,28,2566647392
94,24,14,Improv_Melody,103,1,38,20,2566758768
94,24,14,Improv_Melody,104,1,38,18,2566819780
94,24,14,Improv_Melody,105,2,45,80,2567118532
94,24,14,Improv_Melody,106,2,69,80,2567120760
94,24,14,Improv_Melody,107,5,42,127,2567123300
94,24,14,Improv_Melody,108,1,38,38,2567291000
94,24,14,Improv_Melody,109,5,42,110,2567615968
94,24,14,Improv_Melody,110,1,48,51,2567762844
94,24,14,Improv_Melody,111,5,42,110,2568115740
94,24,14,Improv_Melody,112,1,38,40,2568189248
94,24,14,Improv_Melody,113,1,38,26,2568249368
94,24,14,Improv_Melody,114,5,42,110,2568616244
94,24,14,Improv_Melody,115,1,38,31,2568693712
94,24,14,Improv_Melody,116,1,38,36,2568817060
94,24,14,Improv_Melody,117,1,38,25,2568874260
94,24,14,Improv_Melody,118,5,42,127,2569116200
94,24,14,Improv_Melody,119,1,38,28,2569131068
94,24,14,Improv_Melody,120,1,38,40,2569206964
94,24,14,Improv_Melody,121,1,38,27,2569615508
94,24,14,Improv_Melody,122,5,42,110,2569617668
94,24,14,Improv_Melody,123,1,38,30,2569727060
94,24,14,Improv_Melody,124,1,38,22,2569785384
94,24,14,Improv_Melody,125,5,42,110,2570115464
94,24,14,Improv_Melody,126,1,38,38,2570142892
94,24,14,Improv_Melody,127,1,38,46,2570233744
94,24,14,Improv_Melody,128,1,38,17,2570330616
94,24,14,Improv_Melody,129,1,38,16,2570392152
94,24,14,Improv_Melody,130,5,42,110,2570616144
94,24,14,Improv_Melody,131,1,38,45,2570626968
94,24,14,Improv_Melody,132,1,38,42,2570739892
94,24,14,Improv_Melody,133,1,38,30,2570812124
94,24,14,Improv_Melody,134,2,41,80,2571118156
94,24,14,Improv_Melody,135,2,65,80,2571120604
94,24,14,Improv_Melody,136,5,42,127,2571122996
94,24,14,Improv_Melody,137,1,38,33,2571153420
94,24,14,Improv_Melody,138,1,38,46,2571299696
94,24,14,Improv_Melody,139,1,38,32,2571368140
94,24,14,Improv_Melody,140,5,42,110,2571615768
94,24,14,Improv_Melody,141,1,38,34,2571676556
94,24,14,Improv_Melody,142,1,38,33,2571771528
94,24,14,Improv_Melody,143,5,42,110,2572116320
94,24,14,Improv_Melody,144,1,38,35,2572147816
94,24,14,Improv_Melody,145,1,38,24,2572261112
94,24,14,Improv_Melody,146,5,42,110,2572616000
94,24,14,Improv_Melody,147,1,38,27,2572617264
94,24,14,Improv_Melody,148,1,38,16,2572694292
94,24,14,Improv_Melody,149,1,38,30,2572770716
94,24,14,Improv_Melody,150,1,38,24,2572813248
94,24,14,Improv_Melody,151,5,42,127,2573115856
94,24,14,Improv_Melody,152,1,38,48,2573141640
94,24,14,Improv_Melody,153,1,38,38,2573278300
94,24,14,Improv_Melody,154,1,38,26,2573336696
94,24,14,Improv_Melody,155,5,42,110,2573615364
94,24,14,Improv_Melody,156,1,38,48,2573642868
94,24,14,Improv_Melody,157,1,38,41,2573735320
94,24,14,Improv_Melody,158,1,38,31,2573792372
94,24,14,Improv_Melody,159,1,38,47,2574114396
94,24,14,Improv_Melody,160,5,42,110,2574116728
94,24,14,Improv_Melody,161,1,38,52,2574285684
94,24,14,Improv_Melody,162,1,38,28,2574372728
94,24,14,Improv_Melody,163,5,42,110,2574616020
94,24,14,Improv_Melody,164,1,38,51,2574649436
94,24,14,Improv_Melody,165,1,38,21,2574760956
94,24,14,Improv_Melody,166,1,38,46,2574809028
94,24,14,Improv_Melody,167,1,38,26,2574882760
94,24,14,Improv_Melody,168,2,48,80,2575118312
94,24,14,Improv_Melody,169,2,72,80,2575120544
94,24,14,Improv_Melody,170,5,42,127,2575123000
94,24,14,Improv_Melody,171,1,38,26,2575132552
94,24,14,Improv_Melody,172,1,38,13,2575226052
94,24,14,Improv_Melody,173,1,38,29,2575303748
94,24,14,Improv_Melody,174,1,38,19,2575372236
94,24,14,Improv_Melody,175,5,42,110,2575616352
94,24,14,Improv_Melody,176,1,38,36,2575647740
94,24,14,Improv_Melody,177,1,38,16,2575731520
94,24,14,Improv_Melody,178,1,38,22,2575807044
94,24,14,Improv_Melody,179,5,42,110,2576116008
94,24,14,Improv_Melody,180,1,38,24,2576125560
94,24,14,Improv_Melody,181,1,38,16,2576196820
94,24,14,Improv_Melody,182,1,38,28,2576293832
94,24,14,Improv_Melody,183,5,42,110,2576615888
94,24,14,Improv_Melody,184,1,38,17,2576686920
94,24,14,Improv_Melody,185,5,42,127,2577115736
94,24,14,Improv_Melody,186,1,38,45,2577189164
94,24,14,Improv_Melody,187,1,38,35,2577321784
94,24,14,Improv_Melody,188,1,38,24,2577372332
94,24,14,Improv_Melody,189,1,38,27,2577592760
94,24,14,Improv_Melody,190,5,42,110,2577616136
94,24,14,Improv_Melody,191,1,38,18,2577668004
94,24,14,Improv_Melody,192,1,38,36,2578048012
94,24,14,Improv_Melody,193,5,42,110,2578116036
94,24,14,Improv_Melody,194,1,38,19,2578142480
94,24,14,Improv_Melody,195,1,38,21,2578186736
94,24,14,Improv_Melody,196,1,38,35,2578546464
94,24,14,Improv_Melody,197,5,42,110,2578615768
94,24,14,Improv_Melody,198,1,38,17,2578623660
94,24,14,Improv_Melody,199,1,38,19,2578704044
94,24,14,Improv_Melody,200,1,38,47,2579087712
94,24,14,Improv_Melody,201,2,43,80,2579119052
94,24,14,Improv_Melody,202,2,67,80,2579121280
94,24,14,Improv_Melody,203,5,42,127,2579123740
94,24,14,Improv_Melody,204,1,38,21,2579178976
94,24,14,Improv_Melody,205,1,38,41,2579203640
94,24,14,Improv_Melody,206,1,38,24,2579264056
94,24,14,Improv_Melody,207,1,38,37,2579578160
94,24,14,Improv_Melody,208,5,42,110,2579616044
94,24,14,Improv_Melody,209,1,38,29,2579726032
94,24,14,Improv_Melody,210,5,42,110,2580115880
94,24,14,Improv_Melody,211,1,48,44,2580140988
94,24,14,Improv_Melody,212,1,48,25,2580399644
94,24,14,Improv_Melody,213,5,42,110,2580615556
94,24,14,Improv_Melody,214,1,48,32,2580687120
94,24,14,Improv_Melody,215,5,42,127,2581116156
94,24,14,Improv_Melody,216,1,48,31,2581147172
94,24,14,Improv_Melody,217,1,48,23,2581212900
94,24,14,Improv_Melody,218,5,42,110,2581615908
94,24,14,Improv_Melody,219,1,48,28,2581627328
94,24,14,Improv_Melody,220,1,48,25,2581736136
94,24,14,Improv_Melody,221,5,42,110,2582115664
94,24,14,Improv_Melody,222,1,48,28,2582153564
94,24,14,Improv_Melody,223,1,48,37,2582237468
94,24,14,Improv_Melody,224,1,48,29,2582286284
94,24,14,Improv_Melody,225,1,48,22,2582616744
94,24,14,Improv_Melody,226,5,42,110,2582618080
94,24,14,Improv_Melody,227,1,48,32,2582780060
94,24,14,Improv_Melody,228,2,45,80,2583118676
94,24,14,Improv_Melody,229,2,69,80,2583120680
94,24,14,Improv_Melody,230,5,42,127,2583123292
94,24,14,Improv_Melody,231,1,48,27,2583138480
94,24,14,Improv_Melody,232,1,48,29,2583302112
94,24,14,Improv_Melody,233,1,48,25,2583613668
94,24,14,Improv_Melody,234,5,42,110,2583615784
94,24,14,Improv_Melody,235,1,48,28,2583744048
94,24,14,Improv_Melody,236,5,42,110,2584115692
94,24,14,Improv_Melody,237,1,48,30,2584184284
94,24,14,Improv_Melody,238,1,48,29,2584272004
94,24,14,Improv_Melody,239,5,42,110,2584616416
94,24,14,Improv_Melody,240,1,48,24,2584617828
94,24,14,Improv_Melody,241,1,48,35,2584805564
94,24,14,Improv_Melody,242,1,48,27,2584867100
94,24,14,Improv_Melody,243,5,42,127,2585116000
94,24,14,Improv_Melody,244,1,48,21,2585202992
94,24,14,Improv_Melody,245,5,42,110,2585615696
94,24,14,Improv_Melody,246,1,48,24,2585662948
94,24,14,Improv_Melody,247,1,48,31,2585781508
94,24,14,Improv_Melody,248,5,42,110,2586115524
94,24,14,Improv_Melody,249,1,48,34,2586153276
94,24,14,Improv_Melody,250,1,48,24,2586224260
94,24,14,Improv_Melody,251,5,42,110,2586616024
94,24,14,Improv_Melody,252,1,48,31,2586628644
94,24,14,Improv_Melody,253,1,48,14,2586775700
94,24,14,Improv_Melody,254,1,48,27,2587114516
94,24,14,Improv_Melody,255,2,41,80,2587118572
94,24,14,Improv_Melody,256,2,65,80,2587120500
94,24,14,Improv_Melody,257,5,42,127,2587123040
94,24,14,Improv_Melody,258,1,48,14,2587246668
94,24,14,Improv_Melody,259,1,48,17,2587307160
94,24,14,Improv_Melody,260,1,48,43,2587608072
94,24,14,Improv_Melody,261,5,42,110,2587615664
94,24,14,Improv_Melody,262,1,48,14,2587721768
94,24,14,Improv_Melody,263,1,38,37,2588110736
94,24,14,Improv_Melody,264,5,42,110,2588116460
94,24,14,Improv_Melody,265,5,42,110,2588616092
94,24,14,Improv_Melody,266,1,38,38,2588655488
94,24,14,Improv_Melody,267,1,38,28,2588807104
94,24,14,Improv_Melody,268,1,38,33,2589109144
94,24,14,Improv_Melody,269,5,42,127,2589115616
94,24,14,Improv_Melody,270,1,38,32,2589542876
94,24,14,Improv_Melody,271,5,42,110,2589615540
94,24,14,Improv_Melody,272,1,38,17,2589627772
94,24,14,Improv_Melody,273,1,38,38,2589739720
94,24,14,Improv_Melody,274,1,38,27,2589818336
94,24,14,Improv_Melody,275,1,38,35,2590109752
94,24,14,Improv_Melody,276,5,42,110,2590116148
94,24,14,Improv_Melody,277,1,38,22,2590203624
94,24,14,Improv_Melody,278,1,38,38,2590576896
94,24,14,Improv_Melody,279,5,42,110,2590615976
94,24,14,Improv_Melody,280,1,38,31,2590657076
94,24,14,Improv_Melody,281,1,38,38,2591065276
94,24,14,Improv_Melody,282,2,48,80,2591118232
94,24,14,Improv_Melody,283,2,72,80,2591120380
94,24,14,Improv_Melody,284,5,42,127,2591122920
94,24,14,Improv_Melody,285,1,38,28,2591181300
94,24,14,Improv_Melody,286,1,38,22,2591232440
94,24,14,Improv_Melody,287,1,38,44,2591543152
94,24,14,Improv_Melody,288,5,42,110,2591616592
94,24,14,Improv_Melody,289,1,38,26,2591729948
94,24,14,Improv_Melody,290,5,42,110,2592116052
94,24,14,Improv_Melody,291,1,38,35,2592138168
94,24,14,Improv_Melody,292,1,38,41,2592185192
94,24,14,Improv_Melody,293,1,38,46,2592589032
94,24,14,Improv_Melody,294,5,42,110,2592615648
94,24,14,Improv_Melody,295,1,38,24,2592776724
94,24,14,Improv_Melody,296,5,42,127,2593115484
94,24,14,Improv_Melody,297,1,38,32,2593116376
94,24,14,Improv_Melody,298,1,38,34,2593168768
94,24,14,Improv_Melody,299,5,42,110,2593616180
94,24,14,Improv_Melody,300,1,48,38,2593632040
94,24,14,Improv_Melody,301,1,48,14,2593883440
94,24,14,Improv_Melody,302,1,48,16,2594047224
94,24,14,Improv_Melody,303,5,42,110,2594116076
94,24,14,Improv_Melody,304,1,48,28,2594265140
94,24,14,Improv_Melody,305,1,48,19,2594450864
94,24,14,Improv_Melody,306,5,42,110,2594615592
94,24,14,Improv_Melody,307,1,48,40,2594744020
94,24,14,Improv_Melody,308,1,48,28,2594897260
94,24,14,Improv_Melody,309,2,43,80,2595118888
94,24,14,Improv_Melody,310,2,67,80,2595121200
94,24,14,Improv_Melody,311,5,42,127,2595123732
94,24,14,Improv_Melody,312,1,48,38,2595187608
94,24,14,Improv_Melody,313,5,42,110,2595616104
94,24,14,Improv_Melody,314,1,48,32,2595638520
94,24,14,Improv_Melody,315,1,48,21,2595718484
94,24,14,Improv_Melody,316,1,48,31,2596110580
94,24,14,Improv_Melody,317,5,42,110,2596115924
94,24,14,Improv_Melody,318,1,48,24,2596199764
94,24,14,Improv_Melody,319,1,48,32,2596607632
94,24,14,Improv_Melody,320,5,42,110,2596615528
94,24,14,Improv_Melody,321,1,48,32,2596687816
94,24,14,Improv_Melody,322,5,42,127,2597116484
94,24,14,Improv_Melody,323,1,38,44,2597148472
94,24,14,Improv_Melody,324,1,38,17,2597287824
94,24,14,Improv_Melody,325,1,38,36,2597606616
94,24,14,Improv_Melody,326,5,42,110,2597615928
94,24,14,Improv_Melody,327,1,38,36,2598060688
94,24,14,Improv_Melody,328,5,42,110,2598115628
94,24,14,Improv_Melody,329,1,38,24,2598218364
94,24,14,Improv_Melody,330,1,38,41,2598571660
94,24,14,Improv_Melody,331,5,42,110,2598616580
94,24,14,Improv_Melody,332,1,38,32,2598663664
94,24,14,Improv_Melody,333,1,38,42,2599044856
94,24,14,Improv_Melody,334,2,45,80,2599118760
94,24,14,Improv_Melody,335,2,69,80,2599120688
94,24,14,Improv_Melody,336,5,42,127,2599123376
94,24,14,Improv_Melody,337,1,38,22,2599183848
94,24,14,Improv_Melody,338,1,38,19,2599253392
94,24,14,Improv_Melody,339,1,38,38,2599586044
94,24,14,Improv_Melody,340,5,42,110,2599615924
94,24,14,Improv_Melody,341,1,38,24,2599728084
94,24,14,Improv_Melody,342,5,42,110,2600115612
94,24,14,Improv_Melody,343,1,38,27,2600126812
94,24,14,Improv_Melody,344,1,38,30,2600235172
94,24,14,Improv_Melody,345,5,42,110,2600616484
94,24,14,Improv_Melody,346,1,38,44,2600639728
94,24,14,Improv_Melody,347,1,38,22,2600815656
94,24,14,Improv_Melody,348,5,42,127,2601115868
94,24,14,Improv_Melody,349,1,38,47,2601164240
94,24,14,Improv_Melody,350,1,38,24,2601296984
94,24,14,Improv_Melody,351,1,38,20,2601360416
94,24,14,Improv_Melody,352,5,42,110,2601615596
94,24,14,Improv_Melody,353,1,38,40,2601691792
94,24,14,Improv_Melody,354,1,38,32,2601813020
94,24,14,Improv_Melody,355,5,42,110,2602115496
94,24,14,Improv_Melody,356,1,38,39,2602168880
94,24,14,Improv_Melody,357,1,38,18,2602290260
94,24,14,Improv_Melody,358,5,42,110,2602616444
94,24,14,Improv_Melody,359,1,38,28,2602649636
94,24,14,Improv_Melody,360,1,38,14,2602752388
94,24,14,Improv_Melody,361,1,38,15,2602803528
94,24,14,Improv_Melody,362,2,41,80,2603118616
94,24,14,Improv_Melody,363,2,65,80,2603120608
94,24,14,Improv_Melody,364,5,42,127,2603123444
94,24,14,Improv_Melody,365,1,48,41,2603206372
94,24,14,Improv_Melody,366,1,48,33,2603543720
94,24,14,Improv_Melody,367,5,42,110,2603615512
94,24,14,Improv_Melody,368,1,48,18,2603639860
94,24,14,Improv_Melody,369,1,48,38,2603755996
94,24,14,Improv_Melody,370,1,48,16,2604041876
94,24,14,Improv_Melody,371,5,42,110,2604116488
94,24,14,Improv_Melody,372,1,48,30,2604260688
94,24,14,Improv_Melody,373,5,42,110,2604616172
94,24,14,Improv_Melody,374,1,48,34,2604769288
94,24,14,Improv_Melody,375,1,48,30,2604911032
94,24,14,Improv_Melody,376,1,48,21,2604981768
94,24,14,Improv_Melody,377,5,42,127,2605115904
94,24,14,Improv_Melody,378,1,48,45,2605236336
94,24,14,Improv_Melody,379,1,38,13,2605568436
94,24,14,Improv_Melody,380,5,42,110,2605615524
94,24,14,Improv_Melody,381,1,38,55,2605815896
94,24,14,Improv_Melody,382,5,42,110,2606116328
94,24,14,Improv_Melody,383,1,38,50,2606259572
94,24,14,Improv_Melody,384,1,38,40,2606465712
94,24,14,Improv_Melody,385,1,38,27,2606525460
94,24,14,Improv_Melody,386,5,42,110,2606616000
94,24,14,Improv_Melody,387,1,38,27,2606727288
94,24,14,Improv_Melody,388,1,38,17,2606812536
94,24,14,Improv_Melody,389,2,48,80,2607118316
94,24,14,Improv_Melody,390,2,72,80,2607120396
94,24,14,Improv_Melody,391,5,42,127,2607122856
94,24,14,Improv_Melody,392,1,38,39,2607208424
94,24,14,Improv_Melody,393,5,42,110,2607616352
94,24,14,Improv_Melody,394,1,38,43,2607637048
94,24,14,Improv_Melody,395,1,38,44,2608071876
94,24,14,Improv_Melody,396,1,38,45,2608098252
94,24,14,Improv_Melody,397,5,42,110,2608116020
94,24,14,Improv_Melody,398,1,38,44,2608550460
94,24,14,Improv_Melody,399,5,42,110,2608615796
94,24,14,Improv_Melody,400,1,38,44,2608655848
94,24,14,Improv_Melody,401,1,38,25,2608713720
94,24,14,Improv_Melody,402,1,38,46,2609083700
94,24,14,Improv_Melody,403,5,42,127,2609115452
94,24,14,Improv_Melody,404,1,38,42,2609221180
94,24,14,Improv_Melody,405,1,38,28,2609283488
94,24,14,Improv_Melody,406,1,38,39,2609559572
94,24,14,Improv_Melody,407,5,42,110,2609616376
94,24,14,Improv_Melody,408,1,38,33,2609686052
94,24,14,Improv_Melody,409,1,38,20,2609775436
94,24,14,Improv_Melody,410,1,38,31,2610095800
94,24,14,Improv_Melody,411,5,42,110,2610116036
94,24,14,Improv_Melody,412,1,38,38,2610244952
94,24,14,Improv_Melody,413,1,38,17,2610570652
94,24,14,Improv_Melody,414,5,42,110,2610615568
94,24,14,Improv_Melody,415,1,38,30,2610735580
94,24,14,Improv_Melody,416,1,38,22,2610810384
94,24,14,Improv_Melody,417,2,43,80,2611118780
94,24,14,Improv_Melody,418,2,67,80,2611120936
94,24,14,Improv_Melody,419,5,42,127,2611123548
94,24,14,Improv_Melody,420,1,38,25,2611223832
94,24,14,Improv_Melody,421,1,38,29,2611389736
94,24,14,Improv_Melody,422,5,42,110,2611616044
94,24,14,Improv_Melody,423,1,38,24,2611670776
94,24,14,Improv_Melody,424,1,38,22,2611943264
94,24,14,Improv_Melody,425,5,42,110,2612115800
94,24,14,Improv_Melody,426,1,38,31,2612234628
94,24,14,Improv_Melody,427,1,38,35,2612326412
94,24,14,Improv_Melody,428,5,42,110,2612615476
94,24,14,Improv_Melody,429,1,48,48,2612742240
94,24,14,Improv_Melody,430,5,42,127,2613116296
94,24,14,Improv_Melody,431,1,48,26,2613273272
94,24,14,Improv_Melody,432,1,48,19,2613377544
94,24,14,Improv_Melody,433,5,42,110,2613616120
94,24,14,Improv_Melody,434,1,48,35,2613782900
94,24,14,Improv_Melody,435,1,48,22,2613858672
94,24,14,Improv_Melody,436,5,42,110,2614115652
94,24,14,Improv_Melody,437,1,48,33,2614295740
94,24,14,Improv_Melody,438,1,48,23,2614375176
94,24,14,Improv_Melody,439,5,42,110,2614616452
94,24,14,Improv_Melody,440,1,48,37,2614795644
94,24,14,Improv_Melody,441,1,48,23,2614892504
94,24,14,Improv_Melody,442,2,45,80,2615118756
94,24,14,Improv_Melody,443,2,69,80,2615120912
94,24,14,Improv_Melody,444,5,42,127,2615123448
94,24,14,Improv_Melody,445,1,48,29,2615290696
94,24,14,Improv_Melody,446,1,48,22,2615455032
94,24,14,Improv_Melody,447,5,42,110,2615615720
94,24,14,Improv_Melody,448,1,48,40,2615793068
94,24,14,Improv_Melody,449,1,48,22,2615912076
94,24,14,Improv_Melody,450,5,42,110,2616115548
94,24,14,Improv_Melody,451,1,48,26,2616316232
94,24,14,Improv_Melody,452,5,42,110,2616616368
94,24,14,Improv_Melody,453,1,48,29,2616799100
94,24,14,Improv_Melody,454,1,48,40,2616918924
94,24,14,Improv_Melody,455,5,42,127,2617116040
94,24,14,Improv_Melody,456,1,48,30,2617309020
94,24,14,Improv_Melody,457,5,42,110,2617615740
94,24,14,Improv_Melody,458,1,48,33,2617867208
94,24,14,Improv_Melody,459,1,48,19,2617934656
94,24,14,Improv_Melody,460,1,48,28,2617995548
94,24,14,Improv_Melody,461,5,42,110,2618115396
94,24,14,Improv_Melody,462,1,48,46,2618395740
94,24,14,Improv_Melody,463,1,48,24,2618494772
94,24,14,Improv_Melody,464,5,42,110,2618616120
94,24,14,Improv_Melody,465,1,48,42,2618903048
94,24,14,Improv_Melody,466,1,48,23,2618974632
94,24,14,Improv_Melody,467,1,48,38,2618983284
94,24,14,Improv_Melody,468,2,41,80,2619118580
94,24,14,Improv_Melody,469,2,65,80,2619120736
94,24,14,Improv_Melody,470,5,42,127,2619123268
94,24,14,Improv_Melody,471,1,48,34,2619375040
94,24,14,Improv_Melody,472,1,48,41,2619463204
94,24,14,Improv_Melody,473,5,42,110,2619615616
94,24,14,Improv_Melody,474,1,38,42,2619876592
94,24,14,Improv_Melody,475,1,38,21,2620066880
94,24,14,Improv_Melody,476,5,42,110,2620116284
94,24,14,Improv_Melody,477,1,38,38,2620430348
94,24,14,Improv_Melody,478,1,38,18,2620503948
94,24,14,Improv_Melody,479,1,38,28,2620548508
94,24,14,Improv_Melody,480,5,42,110,2620616236
94,24,14,Improv_Melody,481,1,38,41,2620919012
94,24,14,Improv_Melody,482,1,38,23,2620989600
94,24,14,Improv_Melody,483,5,42,127,2621115680
94,24,14,Improv_Melody,484,1,38,35,2621459300
94,24,14,Improv_Melody,485,5,42,110,2621615376
94,24,14,Improv_Melody,486,1,38,23,2621721492
94,24,14,Improv_Melody,487,1,38,31,2622104784
94,24,14,Improv_Melody,488,5,42,110,2622116192
94,24,14,Improv_Melody,489,1,38,18,2622255280
94,24,14,Improv_Melody,490,1,38,31,2622570508
94,24,14,Improv_Melody,491,5,42,110,2622616020
94,24,14,Improv_Melody,492,1,38,27,2622634756
94,24,14,Improv_Melody,493,1,38,24,2622969328
94,24,14,Improv_Melody,494,1,38,36,2623074948
94,24,14,Improv_Melody,495,2,48,80,2623118328
94,24,14,Improv_Melody,496,2,72,80,2623120332
94,24,14,Improv_Melody,497,5,42,127,2623123092
94,24,14,Improv_Melody,498,1,38,25,2623287012
94,24,14,Improv_Melody,499,5,42,110,2623616424
94,24,14,Improv_Melody,500,1,38,45,2623622980
94,24,14,Improv_Melody,501,1,38,27,2623756848
94,24,14,Improv_Melody,0,9999,9999,9999,2543113268
94,24,14,Improv_Melody,1,9999,9999,9999,2543614016
94,24,14,Improv_Melody,2,9999,9999,9999,2544113740
94,24,14,Improv_Melody,3,9999,9999,9999,2544613460
94,24,14,Improv_Melody,4,9999,9999,9999,2545113180
94,24,14,Improv_Melody,5,9999,9999,9999,2545613876
94,24,14,Improv_Melody,6,9999,9999,9999,2546113596
94,24,14,Improv_Melody,7,9999,9999,9999,2546613320
94,24,14,Improv_Melody,8,9999,9999,9999,2547114088
94,24,14,Improv_Melody,9,9999,9999,9999,2547613748
94,24,14,Improv_Melody,10,9999,9999,9999,2548113472
94,24,14,Improv_Melody,11,9999,9999,9999,2548613192
94,24,14,Improv_Melody,12,9999,9999,9999,2549113960
94,24,14,Improv_Melody,13,9999,9999,9999,2549613680
94,24,14,Improv_Melody,14,9999,9999,9999,2550113328
94,24,14,Improv_Melody,15,9999,9999,9999,2550614072
94,24,14,Improv_Melody,16,9999,9999,9999,2551113792
94,24,14,Improv_Melody,17,9999,9999,9999,2551613528
94,24,14,Improv_Melody,18,9999,9999,9999,2552113252
94,24,14,Improv_Melody,19,9999,9999,9999,2552613944
94,24,14,Improv_Melody,20,9999,9999,9999,2553113668
94,24,14,Improv_Melody,21,9999,9999,9999,2553613388
94,24,14,Improv_Melody,22,9999,9999,9999,2554113108
94,24,14,Improv_Melody,23,9999,9999,9999,2554613880
94,24,14,Improv_Melody,24,9999,9999,9999,2555113524
94,24,14,Improv_Melody,25,9999,9999,9999,2555613260
94,24,14,Improv_Melody,26,9999,9999,9999,2556114028
94,24,14,Improv_Melody,27,9999,9999,9999,2556613752
94,24,14,Improv_Melody,28,9999,9999,9999,2557113400
94,24,14,Improv_Melody,29,9999,9999,9999,2557613120
94,24,14,Improv_Melody,30,9999,9999,9999,2558113888
94,24,14,Improv_Melody,31,9999,9999,9999,2558613608
94,24,14,Improv_Melody,32,9999,9999,9999,2559113312
94,24,14,Improv_Melody,33,9999,9999,9999,2559614028
94,24,14,Improv_Melody,34,9999,9999,9999,2560113760
94,24,14,Improv_Melody,35,9999,9999,9999,2560613428
94,24,14,Improv_Melody,36,9999,9999,9999,2561113168
94,24,14,Improv_Melody,37,9999,9999,9999,2561613936
94,24,14,Improv_Melody,38,9999,9999,9999,2562113644
94,24,14,Improv_Melody,39,9999,9999,9999,2562613360
94,24,14,Improv_Melody,40,9999,9999,9999,2563114068
94,24,14,Improv_Melody,41,9999,9999,9999,2563613756
94,24,14,Improv_Melody,42,9999,9999,9999,2564113492
94,24,14,Improv_Melody,43,9999,9999,9999,2564613224
94,24,14,Improv_Melody,44,9999,9999,9999,2565113948
94,24,14,Improv_Melody,45,9999,9999,9999,2565613656
94,24,14,Improv_Melody,46,9999,9999,9999,2566113356
94,24,14,Improv_Melody,47,9999,9999,9999,2566614080
94,24,14,Improv_Melody,48,9999,9999,9999,2567113812
94,24,14,Improv_Melody,49,9999,9999,9999,2567613524
94,24,14,Improv_Melody,50,9999,9999,9999,2568113228
94,24,14,Improv_Melody,51,9999,9999,9999,2568613952
94,24,14,Improv_Melody,52,9999,9999,9999,2569113684
94,24,14,Improv_Melody,53,9999,9999,9999,2569613364
94,24,14,Improv_Melody,54,9999,9999,9999,2570113096
94,24,14,Improv_Melody,55,9999,9999,9999,2570613852
94,24,14,Improv_Melody,56,9999,9999,9999,2571113584
94,24,14,Improv_Melody,57,9999,9999,9999,2571613256
94,24,14,Improv_Melody,58,9999,9999,9999,2572114028
94,24,14,Improv_Melody,59,9999,9999,9999,2572613708
94,24,14,Improv_Melody,60,9999,9999,9999,2573113416
94,24,14,Improv_Melody,61,9999,9999,9999,2573613148
94,24,14,Improv_Melody,62,9999,9999,9999,2574113868
94,24,14,Improv_Melody,63,9999,9999,9999,2574613580
94,24,14,Improv_Melody,64,9999,9999,9999,2575113288
94,24,14,Improv_Melody,65,9999,9999,9999,2575614060
94,24,14,Improv_Melody,66,9999,9999,9999,2576113716
94,24,14,Improv_Melody,67,9999,9999,9999,2576613448
94,24,14,Improv_Melody,68,9999,9999,9999,2577113148
94,24,14,Improv_Melody,69,9999,9999,9999,2577613920
94,24,14,Improv_Melody,70,9999,9999,9999,2578113596
94,24,14,Improv_Melody,71,9999,9999,9999,2578613328
94,24,14,Improv_Melody,72,9999,9999,9999,2579114104
94,24,14,Improv_Melody,73,9999,9999,9999,2579613752
94,24,14,Improv_Melody,74,9999,9999,9999,2580113512
94,24,14,Improv_Melody,75,9999,9999,9999,2580613192
94,24,14,Improv_Melody,76,9999,9999,9999,2581113940
94,24,14,Improv_Melody,77,9999,9999,9999,2581613616
94,24,14,Improv_Melody,78,9999,9999,9999,2582113368
94,24,14,Improv_Melody,79,9999,9999,9999,2582614128
94,24,14,Improv_Melody,80,9999,9999,9999,2583113804
94,24,14,Improv_Melody,81,9999,9999,9999,2583613536
94,24,14,Improv_Melody,82,9999,9999,9999,2584113252
94,24,14,Improv_Melody,83,9999,9999,9999,2584613976
94,24,14,Improv_Melody,84,9999,9999,9999,2585113708
94,24,14,Improv_Melody,85,9999,9999,9999,2585613404
94,24,14,Improv_Melody,86,9999,9999,9999,2586113084
94,24,14,Improv_Melody,87,9999,9999,9999,2586613808
94,24,14,Improv_Melody,88,9999,9999,9999,2587113560
94,24,14,Improv_Melody,89,9999,9999,9999,2587613296
94,24,14,Improv_Melody,90,9999,9999,9999,2588114024
94,24,14,Improv_Melody,91,9999,9999,9999,2588613728
94,24,14,Improv_Melody,92,9999,9999,9999,2589113400
94,24,14,Improv_Melody,93,9999,9999,9999,2589613176
94,24,14,Improv_Melody,94,9999,9999,9999,2590113856
94,24,14,Improv_Melody,95,9999,9999,9999,2590613608
94,24,14,Improv_Melody,96,9999,9999,9999,2591113288
94,24,14,Improv_Melody,97,9999,9999,9999,2591614000
94,24,14,Improv_Melody,98,9999,9999,9999,2592113760
94,24,14,Improv_Melody,99,9999,9999,9999,2592613432
94,24,14,Improv_Melody,100,9999,9999,9999,2593113192
94,24,14,Improv_Melody,101,9999,9999,9999,2593613888
94,24,14,Improv_Melody,102,9999,9999,9999,2594113636
94,24,14,Improv_Melody,103,9999,9999,9999,2594613300
94,24,14,Improv_Melody,104,9999,9999,9999,2595114096
94,24,14,Improv_Melody,105,9999,9999,9999,2595613812
94,24,14,Improv_Melody,106,9999,9999,9999,2596113484
94,24,14,Improv_Melody,107,9999,9999,9999,2596613236
94,24,14,Improv_Melody,108,9999,9999,9999,2597113968
94,24,14,Improv_Melody,109,9999,9999,9999,2597613636
94,24,14,Improv_Melody,110,9999,9999,9999,2598113336
94,24,14,Improv_Melody,111,9999,9999,9999,2598614136
94,24,14,Improv_Melody,112,9999,9999,9999,2599113816
94,24,14,Improv_Melody,113,9999,9999,9999,2599613560
94,24,14,Improv_Melody,114,9999,9999,9999,2600113248
94,24,14,Improv_Melody,115,9999,9999,9999,2600613972
94,24,14,Improv_Melody,116,9999,9999,9999,2601113652
94,24,14,Improv_Melody,117,9999,9999,9999,2601613380
94,24,14,Improv_Melody,118,9999,9999,9999,2602113132
94,24,14,Improv_Melody,119,9999,9999,9999,2602613856
94,24,14,Improv_Melody,120,9999,9999,9999,2603113588
94,24,14,Improv_Melody,121,9999,9999,9999,2603613296
94,24,14,Improv_Melody,122,9999,9999,9999,2604113972
94,24,14,Improv_Melody,123,9999,9999,9999,2604613732
94,24,14,Improv_Melody,124,9999,9999,9999,2605113464
94,24,14,Improv_Melody,125,9999,9999,9999,2605613156
94,24,14,Improv_Melody,126,9999,9999,9999,2606113888
94,24,14,Improv_Melody,127,9999,9999,9999,2606613560
94,24,14,Improv_Melody,128,9999,9999,9999,2607113296
94,24,14,Improv_Melody,129,9999,9999,9999,2607614056
94,24,14,Improv_Melody,130,9999,9999,9999,2608113732
94,24,14,Improv_Melody,131,9999,9999,9999,2608613432
94,24,14,Improv_Melody,132,9999,9999,9999,2609113160
94,24,14,Improv_Melody,133,9999,9999,9999,2609613936
94,24,14,Improv_Melody,134,9999,9999,9999,2610113596
94,24,14,Improv_Melody,135,9999,9999,9999,2610613352
94,24,14,Improv_Melody,136,9999,9999,9999,2611114060
94,24,14,Improv_Melody,137,9999,9999,9999,2611613752
94,24,14,Improv_Melody,138,9999,9999,9999,2612113508
94,24,14,Improv_Melody,139,9999,9999,9999,2612613184
94,24,14,Improv_Melody,140,9999,9999,9999,2613113932
94,24,14,Improv_Melody,141,9999,9999,9999,2613613680
94,24,14,Improv_Melody,142,9999,9999,9999,2614113360
94,24,14,Improv_Melody,143,9999,9999,9999,2614614156
94,24,14,Improv_Melody,144,9999,9999,9999,2615113808
94,24,14,Improv_Melody,145,9999,9999,9999,2615613500
94,24,14,Improv_Melody,146,9999,9999,9999,2616113256
94,24,14,Improv_Melody,147,9999,9999,9999,2616614004
94,24,14,Improv_Melody,148,9999,9999,9999,2617113672
94,24,14,Improv_Melody,149,9999,9999,9999,2617613372
94,24,14,Improv_Melody,150,9999,9999,9999,2618113104
94,24,14,Improv_Melody,151,9999,9999,9999,2618613828
94,24,14,Improv_Melody,152,9999,9999,9999,2619113560
94,24,14,Improv_Melody,153,9999,9999,9999,2619613248
94,24,14,Improv_Melody,154,9999,9999,9999,2620113992
94,24,14,Improv_Melody,155,9999,9999,9999,2620613724
94,24,14,Improv_Melody,156,9999,9999,9999,2621113460
94,24,14,Improv_Melody,157,9999,9999,9999,2621613160
94,24,14,Improv_Melody,158,9999,9999,9999,2622113900
94,24,14,Improv_Melody,159,9999,9999,9999,2622613580
94,24,14,Improv_Melody,160,9999,9999,9999,2623113308
94,24,14,Improv_Melody,161,9999,9999,9999,2623614056
