pid,taskRunCount,taskID,taskName,i,channel,pitch,velocity,microseconds
98,1,1,Ticks_Pract_5,0,5,42,127,91542876
98,1,1,Ticks_Pract_5,1,5,42,127,92042592
98,1,1,Ticks_Pract_5,2,5,42,127,92543500
98,1,1,Ticks_Pract_5,3,5,42,127,93043072
98,1,1,Ticks_Pract_5,4,5,42,127,93542636
98,1,1,Ticks_Pract_5,5,1,48,40,93990328
98,1,1,Ticks_Pract_5,6,5,42,127,94042424
98,1,1,Ticks_Pract_5,7,1,48,45,94506180
98,1,1,Ticks_Pract_5,8,5,42,127,94543388
98,1,1,Ticks_Pract_5,9,1,48,43,95011112
98,1,1,Ticks_Pract_5,10,5,42,127,95042860
98,1,1,Ticks_Pract_5,11,1,48,43,95485820
98,1,1,Ticks_Pract_5,12,5,42,127,95542628
98,1,1,Ticks_Pract_5,13,1,48,38,95999360
98,1,1,Ticks_Pract_5,14,5,42,127,96043224
98,1,1,Ticks_Pract_5,15,1,48,43,96513488
98,1,1,Ticks_Pract_5,16,5,42,127,96543140
98,1,1,Ticks_Pract_5,17,1,48,39,96999868
98,1,1,Ticks_Pract_5,18,5,42,127,97042760
98,1,1,Ticks_Pract_5,19,1,48,41,97492232
98,1,1,Ticks_Pract_5,20,5,42,127,97542456
98,1,1,Ticks_Pract_5,21,1,48,39,97981904
98,1,1,Ticks_Pract_5,22,5,42,127,98043344
98,1,1,Ticks_Pract_5,23,1,48,41,98489604
98,1,1,Ticks_Pract_5,24,5,42,127,98543040
98,1,1,Ticks_Pract_5,25,1,48,44,98996252
98,1,1,Ticks_Pract_5,26,5,42,127,99042660
98,1,1,Ticks_Pract_5,27,1,48,39,99504096
98,1,1,Ticks_Pract_5,28,5,42,127,99543252
98,1,1,Ticks_Pract_5,29,1,48,41,100008356
98,1,1,Ticks_Pract_5,30,5,42,127,100043320
98,1,1,Ticks_Pract_5,31,1,48,44,100481176
98,1,1,Ticks_Pract_5,32,5,42,127,100542788
98,1,1,Ticks_Pract_5,33,1,48,37,101012056
98,1,1,Ticks_Pract_5,34,5,42,127,101042484
98,1,1,Ticks_Pract_5,35,1,48,42,101497316
98,1,1,Ticks_Pract_5,36,5,42,127,101543348
98,1,1,Ticks_Pract_5,37,1,48,40,102008676
98,1,1,Ticks_Pract_5,38,5,42,127,102043192
98,1,1,Ticks_Pract_5,39,1,48,34,102498200
98,1,1,Ticks_Pract_5,40,5,42,127,102542664
98,1,1,Ticks_Pract_5,41,1,48,39,102989292
98,1,1,Ticks_Pract_5,42,5,42,127,103042284
98,1,1,Ticks_Pract_5,43,1,48,36,103495192
98,1,1,Ticks_Pract_5,44,5,42,127,103543172
98,1,1,Ticks_Pract_5,45,1,48,40,103988460
98,1,1,Ticks_Pract_5,46,5,42,127,104043092
98,1,1,Ticks_Pract_5,47,1,48,35,104507604
98,1,1,Ticks_Pract_5,48,5,42,127,104542564
98,1,1,Ticks_Pract_5,49,1,48,40,105021428
98,1,1,Ticks_Pract_5,50,5,42,127,105043232
98,1,1,Ticks_Pract_5,51,1,48,38,105503324
98,1,1,Ticks_Pract_5,52,5,42,127,105543148
98,1,1,Ticks_Pract_5,53,1,48,35,106028748
98,1,1,Ticks_Pract_5,54,5,42,127,106042772
98,1,1,Ticks_Pract_5,55,1,48,36,106509596
98,1,1,Ticks_Pract_5,56,5,42,127,106542392
98,1,1,Ticks_Pract_5,57,1,48,36,107020660
98,1,1,Ticks_Pract_5,58,5,42,127,107043280
98,1,1,Ticks_Pract_5,59,1,48,40,107461560
98,1,1,Ticks_Pract_5,60,5,42,127,107542828
98,1,1,Ticks_Pract_5,61,1,48,31,108024084
98,1,1,Ticks_Pract_5,62,5,42,127,108042592
98,1,1,Ticks_Pract_5,63,5,42,127,108543268
98,1,1,Ticks_Pract_5,64,1,48,34,108550652
98,1,1,Ticks_Pract_5,65,1,48,35,109037460
98,1,1,Ticks_Pract_5,66,5,42,127,109043180
98,1,1,Ticks_Pract_5,67,5,42,127,109542656
98,1,1,Ticks_Pract_5,68,1,48,33,109550484
98,1,1,Ticks_Pract_5,69,1,48,34,110040380
98,1,1,Ticks_Pract_5,70,5,42,127,110042420
98,1,1,Ticks_Pract_5,71,5,42,127,110543316
98,1,1,Ticks_Pract_5,72,1,48,36,110557212
98,1,1,Ticks_Pract_5,73,1,48,40,111041192
98,1,1,Ticks_Pract_5,74,5,42,127,111043000
98,1,1,Ticks_Pract_5,75,1,48,37,111534732
98,1,1,Ticks_Pract_5,0,9999,9999,9999,91540588
98,1,1,Ticks_Pract_5,1,9999,9999,9999,92040304
98,1,1,Ticks_Pract_5,2,9999,9999,9999,92540992
98,1,1,Ticks_Pract_5,3,9999,9999,9999,93040708
98,1,1,Ticks_Pract_5,4,9999,9999,9999,93540424
98,1,1,Ticks_Pract_5,5,9999,9999,9999,94040136
98,1,1,Ticks_Pract_5,6,9999,9999,9999,94540880
98,1,1,Ticks_Pract_5,7,9999,9999,9999,95040572
98,1,1,Ticks_Pract_5,8,9999,9999,9999,95540344
98,1,1,Ticks_Pract_5,9,9999,9999,9999,96041012
98,1,1,Ticks_Pract_5,10,9999,9999,9999,96540780
98,1,1,Ticks_Pract_5,11,9999,9999,9999,97040476
98,1,1,Ticks_Pract_5,12,9999,9999,9999,97540168
98,1,1,Ticks_Pract_5,13,9999,9999,9999,98040908
98,1,1,Ticks_Pract_5,14,9999,9999,9999,98540604
98,1,1,Ticks_Pract_5,15,9999,9999,9999,99040376
98,1,1,Ticks_Pract_5,16,9999,9999,9999,99541040
98,1,1,Ticks_Pract_5,17,9999,9999,9999,100040808
98,1,1,Ticks_Pract_5,18,9999,9999,9999,100540504
98,1,1,Ticks_Pract_5,19,9999,9999,9999,101040200
98,1,1,Ticks_Pract_5,20,9999,9999,9999,101540916
98,1,1,Ticks_Pract_5,21,9999,9999,9999,102040684
98,1,1,Ticks_Pract_5,22,9999,9999,9999,102540380
98,1,1,Ticks_Pract_5,23,9999,9999,9999,103040072
98,1,1,Ticks_Pract_5,24,9999,9999,9999,103540812
98,1,1,Ticks_Pract_5,25,9999,9999,9999,104040508
98,1,1,Ticks_Pract_5,26,9999,9999,9999,104540280
98,1,1,Ticks_Pract_5,27,9999,9999,9999,105040948
98,1,1,Ticks_Pract_5,28,9999,9999,9999,105540716
98,1,1,Ticks_Pract_5,29,9999,9999,9999,106040412
98,1,1,Ticks_Pract_5,30,9999,9999,9999,106540104
98,1,1,Ticks_Pract_5,31,9999,9999,9999,107040844
98,1,1,Ticks_Pract_5,32,9999,9999,9999,107540540
98,1,1,Ticks_Pract_5,33,9999,9999,9999,108040308
98,1,1,Ticks_Pract_5,34,9999,9999,9999,108540980
98,1,1,Ticks_Pract_5,35,9999,9999,9999,109040744
98,1,1,Ticks_Pract_5,36,9999,9999,9999,109540444
98,1,1,Ticks_Pract_5,37,9999,9999,9999,110040172
98,1,1,Ticks_Pract_5,38,9999,9999,9999,110540880
98,1,1,Ticks_Pract_5,39,9999,9999,9999,111040592
98,2,0,Ticks_Pract_8,0,5,42,127,135605772
98,2,0,Ticks_Pract_8,1,5,42,127,136406796
98,2,0,Ticks_Pract_8,2,5,42,127,137206252
98,2,0,Ticks_Pract_8,3,5,42,127,138005932
98,2,0,Ticks_Pract_8,4,1,48,55,138791736
98,2,0,Ticks_Pract_8,5,5,42,127,138805680
98,2,0,Ticks_Pract_8,6,1,48,58,139590572
98,2,0,Ticks_Pract_8,7,5,42,127,139606392
98,2,0,Ticks_Pract_8,8,5,42,127,140406052
98,2,0,Ticks_Pract_8,9,1,48,54,140412908
98,2,0,Ticks_Pract_8,10,5,42,127,141206012
98,2,0,Ticks_Pract_8,11,1,48,50,141212196
98,2,0,Ticks_Pract_8,12,5,42,127,142005768
98,2,0,Ticks_Pract_8,13,1,48,41,142025792
98,2,0,Ticks_Pract_8,14,5,42,127,142806252
98,2,0,Ticks_Pract_8,15,1,48,49,142812884
98,2,0,Ticks_Pract_8,16,5,42,127,143606132
98,2,0,Ticks_Pract_8,17,1,48,48,143624588
98,2,0,Ticks_Pract_8,18,5,42,127,144405792
98,2,0,Ticks_Pract_8,19,1,48,53,144433816
98,2,0,Ticks_Pract_8,20,5,42,127,145205896
98,2,0,Ticks_Pract_8,21,1,48,57,145213132
98,2,0,Ticks_Pract_8,22,1,48,53,145988916
98,2,0,Ticks_Pract_8,23,5,42,127,146006528
98,2,0,Ticks_Pract_8,24,5,42,127,146806264
98,2,0,Ticks_Pract_8,25,1,48,48,146812976
98,2,0,Ticks_Pract_8,26,1,48,44,147604488
98,2,0,Ticks_Pract_8,27,5,42,127,147605916
98,2,0,Ticks_Pract_8,28,1,48,46,148394348
98,2,0,Ticks_Pract_8,29,5,42,127,148405748
98,2,0,Ticks_Pract_8,30,1,48,35,149183084
98,2,0,Ticks_Pract_8,31,5,42,127,149206308
98,2,0,Ticks_Pract_8,32,5,42,127,150006196
98,2,0,Ticks_Pract_8,33,1,48,47,150010440
98,2,0,Ticks_Pract_8,34,5,42,127,150805856
98,2,0,Ticks_Pract_8,35,1,48,44,150825504
98,2,0,Ticks_Pract_8,36,5,42,127,151605588
98,2,0,Ticks_Pract_8,37,1,48,54,151634440
98,2,0,Ticks_Pract_8,38,1,48,52,152398552
98,2,0,Ticks_Pract_8,39,5,42,127,152406440
98,2,0,Ticks_Pract_8,40,1,48,49,153189912
98,2,0,Ticks_Pract_8,41,5,42,127,153206096
98,2,0,Ticks_Pract_8,42,1,48,45,153980440
98,2,0,Ticks_Pract_8,43,5,42,127,154005832
98,2,0,Ticks_Pract_8,44,1,48,51,154782868
98,2,0,Ticks_Pract_8,45,5,42,127,154805588
98,2,0,Ticks_Pract_8,46,1,48,49,155570360
98,2,0,Ticks_Pract_8,47,5,42,127,155606520
98,2,0,Ticks_Pract_8,48,5,42,127,156406032
98,2,0,Ticks_Pract_8,49,1,48,50,156410648
98,2,0,Ticks_Pract_8,50,1,48,51,157201016
98,2,0,Ticks_Pract_8,51,5,42,127,157205836
98,2,0,Ticks_Pract_8,52,5,42,127,158005576
98,2,0,Ticks_Pract_8,53,1,48,51,158016776
98,2,0,Ticks_Pract_8,54,1,48,54,158800408
98,2,0,Ticks_Pract_8,55,5,42,127,158806648
98,2,0,Ticks_Pract_8,56,1,48,50,159580768
98,2,0,Ticks_Pract_8,0,9999,9999,9999,135603260
98,2,0,Ticks_Pract_8,1,9999,9999,9999,136404060
98,2,0,Ticks_Pract_8,2,9999,9999,9999,137203816
98,2,0,Ticks_Pract_8,3,9999,9999,9999,138003572
98,2,0,Ticks_Pract_8,4,9999,9999,9999,138803244
98,2,0,Ticks_Pract_8,5,9999,9999,9999,139604028
98,2,0,Ticks_Pract_8,6,9999,9999,9999,140403764
98,2,0,Ticks_Pract_8,7,9999,9999,9999,141203572
98,2,0,Ticks_Pract_8,8,9999,9999,9999,142003256
98,2,0,Ticks_Pract_8,9,9999,9999,9999,142804036
98,2,0,Ticks_Pract_8,10,9999,9999,9999,143603768
98,2,0,Ticks_Pract_8,11,9999,9999,9999,144403504
98,2,0,Ticks_Pract_8,12,9999,9999,9999,145203312
98,2,0,Ticks_Pract_8,13,9999,9999,9999,146004084
98,2,0,Ticks_Pract_8,14,9999,9999,9999,146803824
98,2,0,Ticks_Pract_8,15,9999,9999,9999,147603560
98,2,0,Ticks_Pract_8,16,9999,9999,9999,148403312
98,2,0,Ticks_Pract_8,17,9999,9999,9999,149204016
98,2,0,Ticks_Pract_8,18,9999,9999,9999,150003756
98,2,0,Ticks_Pract_8,19,9999,9999,9999,150803568
98,2,0,Ticks_Pract_8,20,9999,9999,9999,151603300
98,2,0,Ticks_Pract_8,21,9999,9999,9999,152404072
98,2,0,Ticks_Pract_8,22,9999,9999,9999,153203812
98,2,0,Ticks_Pract_8,23,9999,9999,9999,154003544
98,2,0,Ticks_Pract_8,24,9999,9999,9999,154803300
98,2,0,Ticks_Pract_8,25,9999,9999,9999,155604080
98,2,0,Ticks_Pract_8,26,9999,9999,9999,156403820
98,2,0,Ticks_Pract_8,27,9999,9999,9999,157203548
98,2,0,Ticks_Pract_8,28,9999,9999,9999,158003284
98,2,0,Ticks_Pract_8,29,9999,9999,9999,158804060
98,3,4,T1_SMS_5,0,5,42,127,243196360
98,3,4,T1_SMS_5,1,5,42,127,243696080
98,3,4,T1_SMS_5,2,5,42,127,244195720
98,3,4,T1_SMS_5,3,5,42,127,244696488
98,3,4,T1_SMS_5,4,1,48,68,245115872
98,3,4,T1_SMS_5,5,5,42,127,245196192
98,3,4,T1_SMS_5,6,1,48,62,245627540
98,3,4,T1_SMS_5,7,5,42,127,245695960
98,3,4,T1_SMS_5,8,1,48,68,246134940
98,3,4,T1_SMS_5,9,5,42,127,246195580
98,3,4,T1_SMS_5,10,1,48,60,246628948
98,3,4,T1_SMS_5,11,5,42,127,246696248
98,3,4,T1_SMS_5,12,1,48,70,247154368
98,3,4,T1_SMS_5,13,5,42,127,247196140
98,3,4,T1_SMS_5,14,1,48,68,247629160
98,3,4,T1_SMS_5,15,5,42,127,247695836
98,3,4,T1_SMS_5,16,1,48,65,248143660
98,3,4,T1_SMS_5,17,5,42,127,248195380
98,3,4,T1_SMS_5,18,1,48,59,248652036
98,3,4,T1_SMS_5,19,5,42,127,248696124
98,3,4,T1_SMS_5,20,1,48,60,249151208
98,3,4,T1_SMS_5,21,5,42,127,249195968
98,3,4,T1_SMS_5,22,1,48,58,249644248
98,3,4,T1_SMS_5,23,5,42,127,249695588
98,3,4,T1_SMS_5,24,1,48,56,250166756
98,3,4,T1_SMS_5,25,5,42,127,250196256
98,3,4,T1_SMS_5,26,1,48,59,250662484
98,3,4,T1_SMS_5,27,5,42,127,250696100
98,3,4,T1_SMS_5,28,1,48,52,251160836
98,3,4,T1_SMS_5,29,5,42,127,251195796
98,3,4,T1_SMS_5,30,1,48,54,251645712
98,3,4,T1_SMS_5,31,5,42,127,251695340
98,3,4,T1_SMS_5,32,1,48,56,252167100
98,3,4,T1_SMS_5,33,5,42,127,252196156
98,3,4,T1_SMS_5,34,1,48,57,252644584
98,3,4,T1_SMS_5,35,5,42,127,252696000
98,3,4,T1_SMS_5,36,1,48,57,253161256
98,3,4,T1_SMS_5,37,5,42,127,253195548
98,3,4,T1_SMS_5,38,1,48,62,253676884
98,3,4,T1_SMS_5,39,5,42,127,253696368
98,3,4,T1_SMS_5,40,1,48,57,254169992
98,3,4,T1_SMS_5,41,5,42,127,254196056
98,3,4,T1_SMS_5,42,1,48,48,254671112
98,3,4,T1_SMS_5,43,5,42,127,254695752
98,3,4,T1_SMS_5,44,1,48,59,255186436
98,3,4,T1_SMS_5,45,5,42,127,255195448
98,3,4,T1_SMS_5,46,1,48,56,255645940
98,3,4,T1_SMS_5,47,5,42,127,255696264
98,3,4,T1_SMS_5,48,1,48,52,256187552
98,3,4,T1_SMS_5,49,5,42,127,256195960
98,3,4,T1_SMS_5,50,1,48,45,256691288
98,3,4,T1_SMS_5,51,5,42,127,256695656
98,3,4,T1_SMS_5,52,1,48,48,257168364
98,3,4,T1_SMS_5,53,5,42,127,257196472
98,3,4,T1_SMS_5,54,1,48,50,257671872
98,3,4,T1_SMS_5,55,5,42,127,257696064
98,3,4,T1_SMS_5,56,1,48,52,258167956
98,3,4,T1_SMS_5,57,5,42,127,258196032
98,3,4,T1_SMS_5,58,1,48,56,258672808
98,3,4,T1_SMS_5,59,5,42,127,258695652
98,3,4,T1_SMS_5,60,5,42,127,259196328
98,3,4,T1_SMS_5,61,1,48,47,259202588
98,3,4,T1_SMS_5,62,5,42,127,259696024
98,3,4,T1_SMS_5,63,1,48,56,259698772
98,3,4,T1_SMS_5,64,5,42,127,260195640
98,3,4,T1_SMS_5,65,1,48,43,260226736
98,3,4,T1_SMS_5,66,5,42,127,260696312
98,3,4,T1_SMS_5,67,1,48,42,260722692
98,3,4,T1_SMS_5,68,5,42,127,261196224
98,3,4,T1_SMS_5,69,1,48,48,261198976
98,3,4,T1_SMS_5,70,1,48,63,261689452
98,3,4,T1_SMS_5,71,5,42,127,261696064
98,3,4,T1_SMS_5,72,1,48,60,262192288
98,3,4,T1_SMS_5,73,5,42,127,262195760
98,3,4,T1_SMS_5,74,1,48,56,262683756
98,3,4,T1_SMS_5,75,5,42,127,262696352
98,3,4,T1_SMS_5,76,1,48,55,263173872
98,3,4,T1_SMS_5,77,5,42,127,263196120
98,3,4,T1_SMS_5,78,1,48,53,263666012
98,3,4,T1_SMS_5,79,5,42,127,263695668
98,3,4,T1_SMS_5,80,1,48,45,264193552
98,3,4,T1_SMS_5,81,5,42,127,264195360
98,3,4,T1_SMS_5,82,1,48,52,264692928
98,3,4,T1_SMS_5,83,5,42,127,264696252
98,3,4,T1_SMS_5,84,1,48,45,265177292
98,3,4,T1_SMS_5,85,5,42,127,265196020
98,3,4,T1_SMS_5,86,1,48,45,265687604
98,3,4,T1_SMS_5,87,5,42,127,265695640
98,3,4,T1_SMS_5,88,5,42,127,266196316
98,3,4,T1_SMS_5,89,1,48,41,266236164
98,3,4,T1_SMS_5,90,5,42,127,266696160
98,3,4,T1_SMS_5,91,1,48,49,266720224
98,3,4,T1_SMS_5,92,1,48,49,267191628
98,3,4,T1_SMS_5,93,5,42,127,267195996
98,3,4,T1_SMS_5,94,5,42,127,267695404
98,3,4,T1_SMS_5,95,1,48,49,267703232
98,3,4,T1_SMS_5,96,5,42,127,268196144
98,3,4,T1_SMS_5,97,1,48,55,268213172
98,3,4,T1_SMS_5,98,1,48,53,268694376
98,3,4,T1_SMS_5,99,5,42,127,268695884
98,3,4,T1_SMS_5,100,1,48,34,269189932
98,3,4,T1_SMS_5,101,5,42,127,269195872
98,3,4,T1_SMS_5,102,5,42,127,269696256
98,3,4,T1_SMS_5,103,1,48,48,269708944
98,3,4,T1_SMS_5,104,5,42,127,270196020
98,3,4,T1_SMS_5,105,1,48,54,270197584
98,3,4,T1_SMS_5,106,1,48,52,270693276
98,3,4,T1_SMS_5,107,5,42,127,270696080
98,3,4,T1_SMS_5,108,1,48,46,271195104
98,3,4,T1_SMS_5,109,5,42,127,271196676
98,3,4,T1_SMS_5,110,5,42,127,271696224
98,3,4,T1_SMS_5,111,1,48,56,271710116
98,3,4,T1_SMS_5,112,5,42,127,272195920
98,3,4,T1_SMS_5,113,1,48,48,272218488
98,3,4,T1_SMS_5,114,5,42,127,272695836
98,3,4,T1_SMS_5,115,1,48,47,272715560
98,3,4,T1_SMS_5,116,5,42,127,273196356
98,3,4,T1_SMS_5,117,1,48,50,273205756
98,3,4,T1_SMS_5,118,1,48,57,273682848
98,3,4,T1_SMS_5,119,5,42,127,273696044
98,3,4,T1_SMS_5,120,5,42,127,274195968
98,3,4,T1_SMS_5,121,1,48,52,274196936
98,3,4,T1_SMS_5,122,1,48,52,274682912
98,3,4,T1_SMS_5,123,5,42,127,274695804
98,3,4,T1_SMS_5,124,1,48,49,275171304
98,3,4,T1_SMS_5,125,5,42,127,275196172
98,3,4,T1_SMS_5,126,1,48,50,275679156
98,3,4,T1_SMS_5,127,5,42,127,275695944
98,3,4,T1_SMS_5,128,1,48,48,276178328
98,3,4,T1_SMS_5,129,5,42,127,276195640
98,3,4,T1_SMS_5,130,1,48,47,276676448
98,3,4,T1_SMS_5,131,5,42,127,276696384
98,3,4,T1_SMS_5,132,1,48,42,277187140
98,3,4,T1_SMS_5,133,5,42,127,277196148
98,3,4,T1_SMS_5,134,1,48,44,277667016
98,3,4,T1_SMS_5,135,5,42,127,277695768
98,3,4,T1_SMS_5,136,1,48,40,278185260
98,3,4,T1_SMS_5,137,5,42,127,278195540
98,3,4,T1_SMS_5,138,1,48,42,278683132
98,3,4,T1_SMS_5,139,5,42,127,278696352
98,3,4,T1_SMS_5,140,1,48,45,279177068
98,3,4,T1_SMS_5,141,5,42,127,279195952
98,3,4,T1_SMS_5,142,1,48,42,279684840
98,3,4,T1_SMS_5,143,5,42,127,279695868
98,3,4,T1_SMS_5,144,1,48,49,280190744
98,3,4,T1_SMS_5,145,5,42,127,280195564
98,3,4,T1_SMS_5,146,1,48,41,280688344
98,3,4,T1_SMS_5,147,5,42,127,280696156
98,3,4,T1_SMS_5,148,1,48,43,281189612
98,3,4,T1_SMS_5,149,5,42,127,281195852
98,3,4,T1_SMS_5,150,1,48,46,281677488
98,3,4,T1_SMS_5,151,5,42,127,281695696
98,3,4,T1_SMS_5,152,1,48,46,282163192
98,3,4,T1_SMS_5,153,5,42,127,282196288
98,3,4,T1_SMS_5,154,1,48,47,282670744
98,3,4,T1_SMS_5,155,5,42,127,282695908
98,3,4,T1_SMS_5,156,1,48,47,283182704
98,3,4,T1_SMS_5,157,5,42,127,283195680
98,3,4,T1_SMS_5,158,1,48,45,283665944
98,3,4,T1_SMS_5,159,5,42,127,283695600
98,3,4,T1_SMS_5,160,1,48,45,284179556
98,3,4,T1_SMS_5,161,5,42,127,284196264
98,3,4,T1_SMS_5,162,1,48,43,284663388
98,3,4,T1_SMS_5,163,5,42,127,284695960
98,3,4,T1_SMS_5,164,1,48,45,285157176
98,3,4,T1_SMS_5,165,5,42,127,285195652
98,3,4,T1_SMS_5,166,1,48,46,285683424
98,3,4,T1_SMS_5,167,5,42,127,285696624
98,3,4,T1_SMS_5,168,1,48,49,286160908
98,3,4,T1_SMS_5,169,5,42,127,286196168
98,3,4,T1_SMS_5,170,1,48,48,286672268
98,3,4,T1_SMS_5,171,5,42,127,286695788
98,3,4,T1_SMS_5,172,5,42,127,287195488
98,3,4,T1_SMS_5,173,1,48,43,287198536
98,3,4,T1_SMS_5,174,1,48,49,287669568
98,3,4,T1_SMS_5,175,5,42,127,287696224
98,3,4,T1_SMS_5,176,1,48,42,288173668
98,3,4,T1_SMS_5,177,5,42,127,288195844
98,3,4,T1_SMS_5,178,1,48,35,288683164
98,3,4,T1_SMS_5,179,5,42,127,288695612
98,3,4,T1_SMS_5,180,1,48,48,289177752
98,3,4,T1_SMS_5,181,5,42,127,289196728
98,3,4,T1_SMS_5,182,5,42,127,289696132
98,3,4,T1_SMS_5,183,1,48,46,289697620
98,3,4,T1_SMS_5,184,5,42,127,290195876
98,3,4,T1_SMS_5,185,1,48,51,290248536
98,3,4,T1_SMS_5,186,5,42,127,290695644
98,3,4,T1_SMS_5,187,1,48,38,290751372
98,3,4,T1_SMS_5,188,5,42,127,291196384
98,3,4,T1_SMS_5,189,1,48,36,291230948
98,3,4,T1_SMS_5,190,5,42,127,291695932
98,3,4,T1_SMS_5,191,1,48,50,291719024
98,3,4,T1_SMS_5,192,5,42,127,292195776
98,3,4,T1_SMS_5,193,1,48,52,292201592
98,3,4,T1_SMS_5,194,5,42,127,292696744
98,3,4,T1_SMS_5,195,1,48,53,292705020
98,3,4,T1_SMS_5,196,1,48,51,293190112
98,3,4,T1_SMS_5,197,5,42,127,293196056
98,3,4,T1_SMS_5,198,5,42,127,293695832
98,3,4,T1_SMS_5,199,1,48,40,293697248
98,3,4,T1_SMS_5,200,5,42,127,294195452
98,3,4,T1_SMS_5,201,1,48,45,294212860
98,3,4,T1_SMS_5,202,5,42,127,294696564
98,3,4,T1_SMS_5,203,1,48,44,294699020
98,3,4,T1_SMS_5,204,1,48,45,295194376
98,3,4,T1_SMS_5,205,5,42,127,295195956
98,3,4,T1_SMS_5,206,5,42,127,295695732
98,3,4,T1_SMS_5,207,1,48,46,295704912
98,3,4,T1_SMS_5,208,5,42,127,296195576
98,3,4,T1_SMS_5,209,1,48,46,296201984
98,3,4,T1_SMS_5,210,5,42,127,296696096
98,3,4,T1_SMS_5,211,1,48,49,296699588
98,3,4,T1_SMS_5,212,5,42,127,297196012
98,3,4,T1_SMS_5,213,1,48,49,297211696
98,3,4,T1_SMS_5,214,5,42,127,297695484
98,3,4,T1_SMS_5,215,1,48,30,297731216
98,3,4,T1_SMS_5,216,5,42,127,298196600
98,3,4,T1_SMS_5,217,1,48,38,298227544
98,3,4,T1_SMS_5,218,1,48,44,298673740
98,3,4,T1_SMS_5,219,5,42,127,298696584
98,3,4,T1_SMS_5,220,5,42,127,299195764
98,3,4,T1_SMS_5,221,1,48,43,299198516
98,3,4,T1_SMS_5,222,1,48,45,299687344
98,3,4,T1_SMS_5,223,5,42,127,299695452
98,3,4,T1_SMS_5,224,1,48,47,300187236
98,3,4,T1_SMS_5,225,5,42,127,300196640
98,3,4,T1_SMS_5,226,1,48,42,300671300
98,3,4,T1_SMS_5,227,5,42,127,300696012
98,3,4,T1_SMS_5,228,1,48,29,301189396
98,3,4,T1_SMS_5,229,5,42,127,301195636
98,3,4,T1_SMS_5,230,1,48,43,301691704
98,3,4,T1_SMS_5,231,5,42,127,301696456
98,3,4,T1_SMS_5,232,1,48,41,302181828
98,3,4,T1_SMS_5,233,5,42,127,302196072
98,3,4,T1_SMS_5,234,1,48,37,302694644
98,3,4,T1_SMS_5,235,5,42,127,302696288
98,3,4,T1_SMS_5,236,5,42,127,303195616
98,3,4,T1_SMS_5,237,1,48,36,303198140
98,3,4,T1_SMS_5,238,1,48,40,303672760
98,3,4,T1_SMS_5,239,5,42,127,303696428
98,3,4,T1_SMS_5,240,5,42,127,304196128
98,3,4,T1_SMS_5,241,1,48,46,304673820
98,3,4,T1_SMS_5,242,5,42,127,304695688
98,3,4,T1_SMS_5,243,1,48,47,305187572
98,3,4,T1_SMS_5,244,5,42,127,305196436
98,3,4,T1_SMS_5,245,1,48,24,305249728
98,3,4,T1_SMS_5,246,1,48,46,305679240
98,3,4,T1_SMS_5,247,5,42,127,305695956
98,3,4,T1_SMS_5,248,1,48,45,306175644
98,3,4,T1_SMS_5,249,5,42,127,306195800
98,3,4,T1_SMS_5,250,1,48,42,306672124
98,3,4,T1_SMS_5,251,5,42,127,306695496
98,3,4,T1_SMS_5,252,1,48,40,307179448
98,3,4,T1_SMS_5,253,5,42,127,307196384
98,3,4,T1_SMS_5,254,1,48,39,307672784
98,3,4,T1_SMS_5,255,5,42,127,307696080
98,3,4,T1_SMS_5,256,1,48,37,308185644
98,3,4,T1_SMS_5,0,9999,9999,9999,243193928
98,3,4,T1_SMS_5,1,9999,9999,9999,243693644
98,3,4,T1_SMS_5,2,9999,9999,9999,244193360
98,3,4,T1_SMS_5,3,9999,9999,9999,244694124
98,3,4,T1_SMS_5,4,9999,9999,9999,245193832
98,3,4,T1_SMS_5,5,9999,9999,9999,245693528
98,3,4,T1_SMS_5,6,9999,9999,9999,246193220
98,3,4,T1_SMS_5,7,9999,9999,9999,246693960
98,3,4,T1_SMS_5,8,9999,9999,9999,247193704
98,3,4,T1_SMS_5,9,9999,9999,9999,247693400
98,3,4,T1_SMS_5,10,9999,9999,9999,248193096
98,3,4,T1_SMS_5,11,9999,9999,9999,248693840
98,3,4,T1_SMS_5,12,9999,9999,9999,249193532
98,3,4,T1_SMS_5,13,9999,9999,9999,249693304
98,3,4,T1_SMS_5,14,9999,9999,9999,250193972
98,3,4,T1_SMS_5,15,9999,9999,9999,250693740
98,3,4,T1_SMS_5,16,9999,9999,9999,251193436
98,3,4,T1_SMS_5,17,9999,9999,9999,251693128
98,3,4,T1_SMS_5,18,9999,9999,9999,252193868
98,3,4,T1_SMS_5,19,9999,9999,9999,252693564
98,3,4,T1_SMS_5,20,9999,9999,9999,253193336
98,3,4,T1_SMS_5,21,9999,9999,9999,253694000
98,3,4,T1_SMS_5,22,9999,9999,9999,254193772
98,3,4,T1_SMS_5,23,9999,9999,9999,254693464
98,3,4,T1_SMS_5,24,9999,9999,9999,255193160
98,3,4,T1_SMS_5,25,9999,9999,9999,255693900
98,3,4,T1_SMS_5,26,9999,9999,9999,256193600
98,3,4,T1_SMS_5,27,9999,9999,9999,256693368
98,3,4,T1_SMS_5,28,9999,9999,9999,257194036
98,3,4,T1_SMS_5,29,9999,9999,9999,257693780
98,3,4,T1_SMS_5,30,9999,9999,9999,258193524
98,3,4,T1_SMS_5,31,9999,9999,9999,258693220
98,3,4,T1_SMS_5,32,9999,9999,9999,259193968
98,3,4,T1_SMS_5,33,9999,9999,9999,259693660
98,3,4,T1_SMS_5,34,9999,9999,9999,260193356
98,3,4,T1_SMS_5,35,9999,9999,9999,260694096
98,3,4,T1_SMS_5,36,9999,9999,9999,261193788
98,3,4,T1_SMS_5,37,9999,9999,9999,261693552
98,3,4,T1_SMS_5,38,9999,9999,9999,262193248
98,3,4,T1_SMS_5,39,9999,9999,9999,262693992
98,3,4,T1_SMS_5,40,9999,9999,9999,263193684
98,3,4,T1_SMS_5,41,9999,9999,9999,263693380
98,3,4,T1_SMS_5,42,9999,9999,9999,264193100
98,3,4,T1_SMS_5,43,9999,9999,9999,264693816
98,3,4,T1_SMS_5,44,9999,9999,9999,265193584
98,3,4,T1_SMS_5,45,9999,9999,9999,265693280
98,3,4,T1_SMS_5,46,9999,9999,9999,266194028
98,3,4,T1_SMS_5,47,9999,9999,9999,266693724
98,3,4,T1_SMS_5,48,9999,9999,9999,267193412
98,3,4,T1_SMS_5,49,9999,9999,9999,267693116
98,3,4,T1_SMS_5,50,9999,9999,9999,268193856
98,3,4,T1_SMS_5,51,9999,9999,9999,268693604
98,3,4,T1_SMS_5,52,9999,9999,9999,269193292
98,3,4,T1_SMS_5,53,9999,9999,9999,269694040
98,3,4,T1_SMS_5,54,9999,9999,9999,270193732
98,3,4,T1_SMS_5,55,9999,9999,9999,270693496
98,3,4,T1_SMS_5,56,9999,9999,9999,271193196
98,3,4,T1_SMS_5,57,9999,9999,9999,271693940
98,3,4,T1_SMS_5,58,9999,9999,9999,272193632
98,3,4,T1_SMS_5,59,9999,9999,9999,272693328
98,3,4,T1_SMS_5,60,9999,9999,9999,273194068
98,3,4,T1_SMS_5,61,9999,9999,9999,273693756
98,3,4,T1_SMS_5,62,9999,9999,9999,274193460
98,3,4,T1_SMS_5,63,9999,9999,9999,274693220
98,3,4,T1_SMS_5,64,9999,9999,9999,275193960
98,3,4,T1_SMS_5,65,9999,9999,9999,275693656
98,3,4,T1_SMS_5,66,9999,9999,9999,276193352
98,3,4,T1_SMS_5,67,9999,9999,9999,276694096
98,3,4,T1_SMS_5,68,9999,9999,9999,277193788
98,3,4,T1_SMS_5,69,9999,9999,9999,277693556
98,3,4,T1_SMS_5,70,9999,9999,9999,278193252
98,3,4,T1_SMS_5,71,9999,9999,9999,278693992
98,3,4,T1_SMS_5,72,9999,9999,9999,279193664
98,3,4,T1_SMS_5,73,9999,9999,9999,279693432
98,3,4,T1_SMS_5,74,9999,9999,9999,280193128
98,3,4,T1_SMS_5,75,9999,9999,9999,280693872
98,3,4,T1_SMS_5,76,9999,9999,9999,281193564
98,3,4,T1_SMS_5,77,9999,9999,9999,281693260
98,3,4,T1_SMS_5,78,9999,9999,9999,282194004
98,3,4,T1_SMS_5,79,9999,9999,9999,282693696
98,3,4,T1_SMS_5,80,9999,9999,9999,283193392
98,3,4,T1_SMS_5,81,9999,9999,9999,283693164
98,3,4,T1_SMS_5,82,9999,9999,9999,284193904
98,3,4,T1_SMS_5,83,9999,9999,9999,284693600
98,3,4,T1_SMS_5,84,9999,9999,9999,285193292
98,3,4,T1_SMS_5,85,9999,9999,9999,285694036
98,3,4,T1_SMS_5,86,9999,9999,9999,286193732
98,3,4,T1_SMS_5,87,9999,9999,9999,286693424
98,3,4,T1_SMS_5,88,9999,9999,9999,287193200
98,3,4,T1_SMS_5,89,9999,9999,9999,287693940
98,3,4,T1_SMS_5,90,9999,9999,9999,288193632
98,3,4,T1_SMS_5,91,9999,9999,9999,288693328
98,3,4,T1_SMS_5,92,9999,9999,9999,289194068
98,3,4,T1_SMS_5,93,9999,9999,9999,289693744
98,3,4,T1_SMS_5,94,9999,9999,9999,290193516
98,3,4,T1_SMS_5,95,9999,9999,9999,290693208
98,3,4,T1_SMS_5,96,9999,9999,9999,291193952
98,3,4,T1_SMS_5,97,9999,9999,9999,291693644
98,3,4,T1_SMS_5,98,9999,9999,9999,292193340
98,3,4,T1_SMS_5,99,9999,9999,9999,292694080
98,3,4,T1_SMS_5,100,9999,9999,9999,293193844
98,3,4,T1_SMS_5,101,9999,9999,9999,293693544
98,3,4,T1_SMS_5,102,9999,9999,9999,294193240
98,3,4,T1_SMS_5,103,9999,9999,9999,294693980
98,3,4,T1_SMS_5,104,9999,9999,9999,295193684
98,3,4,T1_SMS_5,105,9999,9999,9999,295693372
98,3,4,T1_SMS_5,106,9999,9999,9999,296193140
98,3,4,T1_SMS_5,107,9999,9999,9999,296693808
98,3,4,T1_SMS_5,108,9999,9999,9999,297193576
98,3,4,T1_SMS_5,109,9999,9999,9999,297693272
98,3,4,T1_SMS_5,110,9999,9999,9999,298194016
98,3,4,T1_SMS_5,111,9999,9999,9999,298693704
98,3,4,T1_SMS_5,112,9999,9999,9999,299193404
98,3,4,T1_SMS_5,113,9999,9999,9999,299693168
98,3,4,T1_SMS_5,114,9999,9999,9999,300193908
98,3,4,T1_SMS_5,115,9999,9999,9999,300693580
98,3,4,T1_SMS_5,116,9999,9999,9999,301193272
98,3,4,T1_SMS_5,117,9999,9999,9999,301694016
98,3,4,T1_SMS_5,118,9999,9999,9999,302193784
98,3,4,T1_SMS_5,119,9999,9999,9999,302693488
98,3,4,T1_SMS_5,120,9999,9999,9999,303193184
98,3,4,T1_SMS_5,121,9999,9999,9999,303693916
98,3,4,T1_SMS_5,122,9999,9999,9999,304193620
98,3,4,T1_SMS_5,123,9999,9999,9999,304693328
98,3,4,T1_SMS_5,124,9999,9999,9999,305194068
98,3,4,T1_SMS_5,125,9999,9999,9999,305693744
98,3,4,T1_SMS_5,126,9999,9999,9999,306193516
98,3,4,T1_SMS_5,127,9999,9999,9999,306693208
98,3,4,T1_SMS_5,128,9999,9999,9999,307193952
98,3,4,T1_SMS_5,129,9999,9999,9999,307693648
98,4,2,T1_SMS_8,0,5,42,127,369005876
98,4,2,T1_SMS_8,1,5,42,127,369805780
98,4,2,T1_SMS_8,2,5,42,127,370605488
98,4,2,T1_SMS_8,3,1,48,52,370607936
98,4,2,T1_SMS_8,4,1,48,46,371382596
98,4,2,T1_SMS_8,5,5,42,127,371406412
98,4,2,T1_SMS_8,6,1,48,51,372153604
98,4,2,T1_SMS_8,7,5,42,127,372205848
98,4,2,T1_SMS_8,8,1,48,49,372957676
98,4,2,T1_SMS_8,9,5,42,127,373005652
98,4,2,T1_SMS_8,10,1,48,22,373033216
98,4,2,T1_SMS_8,11,1,48,51,373765912
98,4,2,T1_SMS_8,12,5,42,127,373805368
98,4,2,T1_SMS_8,13,1,48,36,374589660
98,4,2,T1_SMS_8,14,5,42,127,374606368
98,4,2,T1_SMS_8,15,1,48,39,375362668
98,4,2,T1_SMS_8,16,5,42,127,375405928
98,4,2,T1_SMS_8,17,1,48,49,376163592
98,4,2,T1_SMS_8,18,5,42,127,376205736
98,4,2,T1_SMS_8,19,1,48,47,376973120
98,4,2,T1_SMS_8,20,5,42,127,377005496
98,4,2,T1_SMS_8,21,1,48,43,377779396
98,4,2,T1_SMS_8,22,5,42,127,377806276
98,4,2,T1_SMS_8,23,1,48,48,378566184
98,4,2,T1_SMS_8,24,5,42,127,378605936
98,4,2,T1_SMS_8,25,1,48,44,379381476
98,4,2,T1_SMS_8,26,5,42,127,379405816
98,4,2,T1_SMS_8,27,1,48,46,380163032
98,4,2,T1_SMS_8,28,5,42,127,380205552
98,4,2,T1_SMS_8,29,1,48,45,380990896
98,4,2,T1_SMS_8,30,5,42,127,381006108
98,4,2,T1_SMS_8,31,1,48,40,381799680
98,4,2,T1_SMS_8,32,5,42,127,381805992
98,4,2,T1_SMS_8,33,1,48,41,382571884
98,4,2,T1_SMS_8,34,5,42,127,382605648
98,4,2,T1_SMS_8,35,1,48,43,383375432
98,4,2,T1_SMS_8,36,5,42,127,383405484
98,4,2,T1_SMS_8,37,1,48,36,384173096
98,4,2,T1_SMS_8,38,5,42,127,384206264
98,4,2,T1_SMS_8,39,1,48,36,384932436
98,4,2,T1_SMS_8,40,5,42,127,385005844
98,4,2,T1_SMS_8,41,5,42,127,385805588
98,4,2,T1_SMS_8,42,1,48,27,385813268
98,4,2,T1_SMS_8,43,1,48,48,386596452
98,4,2,T1_SMS_8,44,5,42,127,386605388
98,4,2,T1_SMS_8,45,1,48,44,387367320
98,4,2,T1_SMS_8,46,5,42,127,387406240
98,4,2,T1_SMS_8,47,1,48,47,388182680
98,4,2,T1_SMS_8,48,5,42,127,388205904
98,4,2,T1_SMS_8,49,1,48,48,388981292
98,4,2,T1_SMS_8,50,5,42,127,389005560
98,4,2,T1_SMS_8,51,5,42,127,389805476
98,4,2,T1_SMS_8,52,1,48,50,389807492
98,4,2,T1_SMS_8,53,1,48,50,390597612
98,4,2,T1_SMS_8,54,5,42,127,390606172
98,4,2,T1_SMS_8,55,1,48,43,391378952
98,4,2,T1_SMS_8,56,5,42,127,391405908
98,4,2,T1_SMS_8,57,1,48,44,392167836
98,4,2,T1_SMS_8,58,5,42,127,392205864
98,4,2,T1_SMS_8,59,1,48,41,392966672
98,4,2,T1_SMS_8,60,5,42,127,393005300
98,4,2,T1_SMS_8,61,1,48,43,393794604
98,4,2,T1_SMS_8,62,5,42,127,393806304
98,4,2,T1_SMS_8,63,1,48,37,394564188
98,4,2,T1_SMS_8,64,5,42,127,394606108
98,4,2,T1_SMS_8,65,1,48,44,395345300
98,4,2,T1_SMS_8,66,5,42,127,395405696
98,4,2,T1_SMS_8,67,1,48,44,396172932
98,4,2,T1_SMS_8,68,5,42,127,396205528
98,4,2,T1_SMS_8,69,1,48,43,396975236
98,4,2,T1_SMS_8,70,5,42,127,397006236
98,4,2,T1_SMS_8,71,1,48,44,397789336
98,4,2,T1_SMS_8,72,5,42,127,397806040
98,4,2,T1_SMS_8,73,1,48,44,398570740
98,4,2,T1_SMS_8,74,5,42,127,398605700
98,4,2,T1_SMS_8,75,1,48,35,399368152
98,4,2,T1_SMS_8,76,5,42,127,399405436
98,4,2,T1_SMS_8,77,1,48,47,400163928
98,4,2,T1_SMS_8,78,5,42,127,400206292
98,4,2,T1_SMS_8,79,1,48,50,400974504
98,4,2,T1_SMS_8,80,5,42,127,401006100
98,4,2,T1_SMS_8,81,1,48,39,401788976
98,4,2,T1_SMS_8,82,5,42,127,401805688
98,4,2,T1_SMS_8,83,1,48,38,402564772
98,4,2,T1_SMS_8,84,5,42,127,402605296
98,4,2,T1_SMS_8,85,1,48,45,403343488
98,4,2,T1_SMS_8,86,5,42,127,403406076
98,4,2,T1_SMS_8,87,1,48,41,404123644
98,4,2,T1_SMS_8,88,5,42,127,404206180
98,4,2,T1_SMS_8,89,1,48,44,404945000
98,4,2,T1_SMS_8,90,5,42,127,405005616
98,4,2,T1_SMS_8,91,5,42,127,405805356
98,4,2,T1_SMS_8,92,1,48,44,405825904
98,4,2,T1_SMS_8,93,5,42,127,406606284
98,4,2,T1_SMS_8,94,1,48,43,406615240
98,4,2,T1_SMS_8,95,1,48,43,407366484
98,4,2,T1_SMS_8,96,5,42,127,407406160
98,4,2,T1_SMS_8,97,1,48,44,408180356
98,4,2,T1_SMS_8,98,5,42,127,408206116
98,4,2,T1_SMS_8,99,1,48,38,408928928
98,4,2,T1_SMS_8,100,5,42,127,409005356
98,4,2,T1_SMS_8,101,1,48,48,409791364
98,4,2,T1_SMS_8,102,5,42,127,409806136
98,4,2,T1_SMS_8,103,1,48,43,410585268
98,4,2,T1_SMS_8,104,5,42,127,410605868
98,4,2,T1_SMS_8,105,1,48,44,411373632
98,4,2,T1_SMS_8,106,5,42,127,411405972
98,4,2,T1_SMS_8,107,1,48,42,412175980
98,4,2,T1_SMS_8,108,5,42,127,412205408
98,4,2,T1_SMS_8,109,1,48,47,412936376
98,4,2,T1_SMS_8,110,1,48,32,412997088
98,4,2,T1_SMS_8,111,5,42,127,413006168
98,4,2,T1_SMS_8,112,1,48,42,413746780
98,4,2,T1_SMS_8,113,5,42,127,413805976
98,4,2,T1_SMS_8,114,1,48,42,414501936
98,4,2,T1_SMS_8,115,5,42,127,414605692
98,4,2,T1_SMS_8,116,1,48,38,415357912
98,4,2,T1_SMS_8,117,5,42,127,415405468
98,4,2,T1_SMS_8,118,1,48,39,416195892
98,4,2,T1_SMS_8,119,5,42,127,416206096
98,4,2,T1_SMS_8,120,1,48,42,416981636
98,4,2,T1_SMS_8,121,5,42,127,417005828
98,4,2,T1_SMS_8,122,1,48,43,417754296
98,4,2,T1_SMS_8,123,5,42,127,417805712
98,4,2,T1_SMS_8,124,5,42,127,418605376
98,4,2,T1_SMS_8,125,1,48,40,418641108
98,4,2,T1_SMS_8,126,1,48,45,419400504
98,4,2,T1_SMS_8,127,5,42,127,419406224
98,4,2,T1_SMS_8,128,1,48,19,419480912
98,4,2,T1_SMS_8,129,1,48,48,420197204
98,4,2,T1_SMS_8,130,5,42,127,420205912
98,4,2,T1_SMS_8,131,1,48,46,421001796
98,4,2,T1_SMS_8,132,5,42,127,421005792
98,4,2,T1_SMS_8,133,1,48,42,421794524
98,4,2,T1_SMS_8,134,5,42,127,421805404
98,4,2,T1_SMS_8,135,5,42,127,422606264
98,4,2,T1_SMS_8,136,1,48,45,422609312
98,4,2,T1_SMS_8,137,5,42,127,423405924
98,4,2,T1_SMS_8,138,1,48,39,423417128
98,4,2,T1_SMS_8,139,1,48,41,424187444
98,4,2,T1_SMS_8,140,5,42,127,424205800
98,4,2,T1_SMS_8,141,1,48,34,424977828
98,4,2,T1_SMS_8,142,5,42,127,425005308
98,4,2,T1_SMS_8,143,1,48,40,425788856
98,4,2,T1_SMS_8,144,5,42,127,425806088
98,4,2,T1_SMS_8,145,1,48,37,426573772
98,4,2,T1_SMS_8,146,5,42,127,426605896
98,4,2,T1_SMS_8,147,1,48,45,427354140
98,4,2,T1_SMS_8,148,5,42,127,427405704
98,4,2,T1_SMS_8,149,1,48,47,428188080
98,4,2,T1_SMS_8,150,5,42,127,428205536
98,4,2,T1_SMS_8,151,1,48,47,428992600
98,4,2,T1_SMS_8,152,5,42,127,429006244
98,4,2,T1_SMS_8,153,1,48,45,429784108
98,4,2,T1_SMS_8,154,5,42,127,429805976
98,4,2,T1_SMS_8,155,1,48,44,430557808
98,4,2,T1_SMS_8,156,5,42,127,430605784
98,4,2,T1_SMS_8,157,5,42,127,431405524
98,4,2,T1_SMS_8,158,1,48,41,431406420
98,4,2,T1_SMS_8,159,5,42,127,432206156
98,4,2,T1_SMS_8,160,1,48,43,432213540
98,4,2,T1_SMS_8,161,1,48,43,432963140
98,4,2,T1_SMS_8,162,5,42,127,433005884
98,4,2,T1_SMS_8,163,1,48,43,433762352
98,4,2,T1_SMS_8,164,5,42,127,433805764
98,4,2,T1_SMS_8,165,1,48,47,434568068
98,4,2,T1_SMS_8,166,5,42,127,434605600
98,4,2,T1_SMS_8,167,1,48,52,435393708
98,4,2,T1_SMS_8,168,5,42,127,435406604
98,4,2,T1_SMS_8,169,1,48,45,436163748
98,4,2,T1_SMS_8,170,5,42,127,436205964
98,4,2,T1_SMS_8,171,1,48,45,436977168
98,4,2,T1_SMS_8,172,5,42,127,437005696
98,4,2,T1_SMS_8,173,5,42,127,437805584
98,4,2,T1_SMS_8,174,1,48,44,437808484
98,4,2,T1_SMS_8,175,1,48,44,438596760
98,4,2,T1_SMS_8,176,5,42,127,438606212
98,4,2,T1_SMS_8,177,1,48,45,439371504
98,4,2,T1_SMS_8,178,5,42,127,439405796
98,4,2,T1_SMS_8,179,1,48,49,440151644
98,4,2,T1_SMS_8,180,5,42,127,440205608
98,4,2,T1_SMS_8,181,1,48,53,440965588
98,4,2,T1_SMS_8,182,5,42,127,441005660
98,4,2,T1_SMS_8,183,1,48,51,441798332
98,4,2,T1_SMS_8,184,5,42,127,441806292
98,4,2,T1_SMS_8,185,1,48,50,442576520
98,4,2,T1_SMS_8,186,5,42,127,442605876
98,4,2,T1_SMS_8,187,1,48,49,443388896
98,4,2,T1_SMS_8,188,5,42,127,443405612
98,4,2,T1_SMS_8,189,5,42,127,444205724
98,4,2,T1_SMS_8,190,1,48,48,444214380
98,4,2,T1_SMS_8,191,5,42,127,445006280
98,4,2,T1_SMS_8,192,1,48,42,445019500
98,4,2,T1_SMS_8,193,1,48,51,445798500
98,4,2,T1_SMS_8,194,5,42,127,445805784
98,4,2,T1_SMS_8,195,1,48,44,446592320
98,4,2,T1_SMS_8,196,5,42,127,446605740
98,4,2,T1_SMS_8,197,1,48,45,447361908
98,4,2,T1_SMS_8,198,5,42,127,447405572
98,4,2,T1_SMS_8,199,1,48,40,448190692
98,4,2,T1_SMS_8,200,5,42,127,448206280
98,4,2,T1_SMS_8,201,1,48,37,448987212
98,4,2,T1_SMS_8,202,5,42,127,449005864
98,4,2,T1_SMS_8,203,1,48,42,449748496
98,4,2,T1_SMS_8,204,5,42,127,449805748
98,4,2,T1_SMS_8,205,5,42,127,450605336
98,4,2,T1_SMS_8,206,1,48,46,450612044
98,4,2,T1_SMS_8,207,1,48,44,451377408
98,4,2,T1_SMS_8,208,5,42,127,451406308
98,4,2,T1_SMS_8,209,1,48,40,452195464
98,4,2,T1_SMS_8,210,5,42,127,452205820
98,4,2,T1_SMS_8,211,5,42,127,453005708
98,4,2,T1_SMS_8,212,1,48,39,453046408
98,4,2,T1_SMS_8,213,1,48,46,453774512
98,4,2,T1_SMS_8,214,5,42,127,453805536
98,4,2,T1_SMS_8,215,1,48,43,454591848
98,4,2,T1_SMS_8,216,5,42,127,454606388
98,4,2,T1_SMS_8,217,1,48,42,455406352
98,4,2,T1_SMS_8,218,5,42,127,455407468
98,4,2,T1_SMS_8,219,1,48,40,456191984
98,4,2,T1_SMS_8,220,5,42,127,456205560
98,4,2,T1_SMS_8,221,1,48,43,456978856
98,4,2,T1_SMS_8,222,5,42,127,457005292
98,4,2,T1_SMS_8,223,1,48,49,457798188
98,4,2,T1_SMS_8,224,5,42,127,457806372
98,4,2,T1_SMS_8,225,5,42,127,458605812
98,4,2,T1_SMS_8,226,1,48,48,458620004
98,4,2,T1_SMS_8,227,1,48,48,459395632
98,4,2,T1_SMS_8,228,5,42,127,459405688
98,4,2,T1_SMS_8,229,5,42,127,460205380
98,4,2,T1_SMS_8,230,1,48,18,460216432
98,4,2,T1_SMS_8,231,1,48,46,460979792
98,4,2,T1_SMS_8,232,5,42,127,461006376
98,4,2,T1_SMS_8,233,1,48,49,461798000
98,4,2,T1_SMS_8,234,5,42,127,461805888
98,4,2,T1_SMS_8,235,1,48,42,462594592
98,4,2,T1_SMS_8,236,5,42,127,462605544
98,4,2,T1_SMS_8,237,1,48,40,463356552
98,4,2,T1_SMS_8,238,5,42,127,463405504
98,4,2,T1_SMS_8,239,5,42,127,464206364
98,4,2,T1_SMS_8,240,1,48,47,464217864
98,4,2,T1_SMS_8,0,9999,9999,9999,369003588
98,4,2,T1_SMS_8,1,9999,9999,9999,369803344
98,4,2,T1_SMS_8,2,9999,9999,9999,370603124
98,4,2,T1_SMS_8,3,9999,9999,9999,371403824
98,4,2,T1_SMS_8,4,9999,9999,9999,372203632
98,4,2,T1_SMS_8,5,9999,9999,9999,373003364
98,4,2,T1_SMS_8,6,9999,9999,9999,373803080
98,4,2,T1_SMS_8,7,9999,9999,9999,374603860
98,4,2,T1_SMS_8,8,9999,9999,9999,375403568
98,4,2,T1_SMS_8,9,9999,9999,9999,376203376
98,4,2,T1_SMS_8,10,9999,9999,9999,377003056
98,4,2,T1_SMS_8,11,9999,9999,9999,377803840
98,4,2,T1_SMS_8,12,9999,9999,9999,378603572
98,4,2,T1_SMS_8,13,9999,9999,9999,379403380
98,4,2,T1_SMS_8,14,9999,9999,9999,380203116
98,4,2,T1_SMS_8,15,9999,9999,9999,381003820
98,4,2,T1_SMS_8,16,9999,9999,9999,381803632
98,4,2,T1_SMS_8,17,9999,9999,9999,382603364
98,4,2,T1_SMS_8,18,9999,9999,9999,383403120
98,4,2,T1_SMS_8,19,9999,9999,9999,384203824
98,4,2,T1_SMS_8,20,9999,9999,9999,385003632
98,4,2,T1_SMS_8,21,9999,9999,9999,385803372
98,4,2,T1_SMS_8,22,9999,9999,9999,386603100
98,4,2,T1_SMS_8,23,9999,9999,9999,387403880
98,4,2,T1_SMS_8,24,9999,9999,9999,388203616
98,4,2,T1_SMS_8,25,9999,9999,9999,389003348
98,4,2,T1_SMS_8,26,9999,9999,9999,389803112
98,4,2,T1_SMS_8,27,9999,9999,9999,390603884
98,4,2,T1_SMS_8,28,9999,9999,9999,391403620
98,4,2,T1_SMS_8,29,9999,9999,9999,392203352
98,4,2,T1_SMS_8,30,9999,9999,9999,393003084
98,4,2,T1_SMS_8,31,9999,9999,9999,393803864
98,4,2,T1_SMS_8,32,9999,9999,9999,394603600
98,4,2,T1_SMS_8,33,9999,9999,9999,395403332
98,4,2,T1_SMS_8,34,9999,9999,9999,396203092
98,4,2,T1_SMS_8,35,9999,9999,9999,397003872
98,4,2,T1_SMS_8,36,9999,9999,9999,397803604
98,4,2,T1_SMS_8,37,9999,9999,9999,398603340
98,4,2,T1_SMS_8,38,9999,9999,9999,399403072
98,4,2,T1_SMS_8,39,9999,9999,9999,400203856
98,4,2,T1_SMS_8,40,9999,9999,9999,401003588
98,4,2,T1_SMS_8,41,9999,9999,9999,401803324
98,4,2,T1_SMS_8,42,9999,9999,9999,402603084
98,4,2,T1_SMS_8,43,9999,9999,9999,403403860
98,4,2,T1_SMS_8,44,9999,9999,9999,404203596
98,4,2,T1_SMS_8,45,9999,9999,9999,405003328
98,4,2,T1_SMS_8,46,9999,9999,9999,405803068
98,4,2,T1_SMS_8,47,9999,9999,9999,406603848
98,4,2,T1_SMS_8,48,9999,9999,9999,407403576
98,4,2,T1_SMS_8,49,9999,9999,9999,408203308
98,4,2,T1_SMS_8,50,9999,9999,9999,409003068
98,4,2,T1_SMS_8,51,9999,9999,9999,409803848
98,4,2,T1_SMS_8,52,9999,9999,9999,410603580
98,4,2,T1_SMS_8,53,9999,9999,9999,411403316
98,4,2,T1_SMS_8,54,9999,9999,9999,412203124
98,4,2,T1_SMS_8,55,9999,9999,9999,413003880
98,4,2,T1_SMS_8,56,9999,9999,9999,413803612
98,4,2,T1_SMS_8,57,9999,9999,9999,414603332
98,4,2,T1_SMS_8,58,9999,9999,9999,415403104
98,4,2,T1_SMS_8,59,9999,9999,9999,416203884
98,4,2,T1_SMS_8,60,9999,9999,9999,417003616
98,4,2,T1_SMS_8,61,9999,9999,9999,417803348
98,4,2,T1_SMS_8,62,9999,9999,9999,418603088
98,4,2,T1_SMS_8,63,9999,9999,9999,419403860
98,4,2,T1_SMS_8,64,9999,9999,9999,420203624
98,4,2,T1_SMS_8,65,9999,9999,9999,421003356
98,4,2,T1_SMS_8,66,9999,9999,9999,421803116
98,4,2,T1_SMS_8,67,9999,9999,9999,422603828
98,4,2,T1_SMS_8,68,9999,9999,9999,423403636
98,4,2,T1_SMS_8,69,9999,9999,9999,424203364
98,4,2,T1_SMS_8,70,9999,9999,9999,425003096
98,4,2,T1_SMS_8,71,9999,9999,9999,425803876
98,4,2,T1_SMS_8,72,9999,9999,9999,426603608
98,4,2,T1_SMS_8,73,9999,9999,9999,427403344
98,4,2,T1_SMS_8,74,9999,9999,9999,428203100
98,4,2,T1_SMS_8,75,9999,9999,9999,429003884
98,4,2,T1_SMS_8,76,9999,9999,9999,429803616
98,4,2,T1_SMS_8,77,9999,9999,9999,430603348
98,4,2,T1_SMS_8,78,9999,9999,9999,431403088
98,4,2,T1_SMS_8,79,9999,9999,9999,432203868
98,4,2,T1_SMS_8,80,9999,9999,9999,433003596
98,4,2,T1_SMS_8,81,9999,9999,9999,433803328
98,4,2,T1_SMS_8,82,9999,9999,9999,434603088
98,4,2,T1_SMS_8,83,9999,9999,9999,435403868
98,4,2,T1_SMS_8,84,9999,9999,9999,436203604
98,4,2,T1_SMS_8,85,9999,9999,9999,437003336
98,4,2,T1_SMS_8,86,9999,9999,9999,437803076
98,4,2,T1_SMS_8,87,9999,9999,9999,438603848
98,4,2,T1_SMS_8,88,9999,9999,9999,439403584
98,4,2,T1_SMS_8,89,9999,9999,9999,440203320
98,4,2,T1_SMS_8,90,9999,9999,9999,441003076
98,4,2,T1_SMS_8,91,9999,9999,9999,441803856
98,4,2,T1_SMS_8,92,9999,9999,9999,442603588
98,4,2,T1_SMS_8,93,9999,9999,9999,443403324
98,4,2,T1_SMS_8,94,9999,9999,9999,444203064
98,4,2,T1_SMS_8,95,9999,9999,9999,445003840
98,4,2,T1_SMS_8,96,9999,9999,9999,445803572
98,4,2,T1_SMS_8,97,9999,9999,9999,446603376
98,4,2,T1_SMS_8,98,9999,9999,9999,447403060
98,4,2,T1_SMS_8,99,9999,9999,9999,448203844
98,4,2,T1_SMS_8,100,9999,9999,9999,449003576
98,4,2,T1_SMS_8,101,9999,9999,9999,449803312
98,4,2,T1_SMS_8,102,9999,9999,9999,450603124
98,4,2,T1_SMS_8,103,9999,9999,9999,451403872
98,4,2,T1_SMS_8,104,9999,9999,9999,452203604
98,4,2,T1_SMS_8,105,9999,9999,9999,453003344
98,4,2,T1_SMS_8,106,9999,9999,9999,453803100
98,4,2,T1_SMS_8,107,9999,9999,9999,454603876
98,4,2,T1_SMS_8,108,9999,9999,9999,455403616
98,4,2,T1_SMS_8,109,9999,9999,9999,456203348
98,4,2,T1_SMS_8,110,9999,9999,9999,457003080
98,4,2,T1_SMS_8,111,9999,9999,9999,457803860
98,4,2,T1_SMS_8,112,9999,9999,9999,458603600
98,4,2,T1_SMS_8,113,9999,9999,9999,459403328
98,4,2,T1_SMS_8,114,9999,9999,9999,460203092
98,4,2,T1_SMS_8,115,9999,9999,9999,461003864
98,4,2,T1_SMS_8,116,9999,9999,9999,461803600
98,4,2,T1_SMS_8,117,9999,9999,9999,462603332
98,4,2,T1_SMS_8,118,9999,9999,9999,463403064
98,4,2,T1_SMS_8,119,9999,9999,9999,464203852
98,5,23,Ticks_Phase_5,0,5,42,127,474787232
98,5,23,Ticks_Phase_5,1,5,42,127,475287316
98,5,23,Ticks_Phase_5,2,1,48,15,475748248
98,5,23,Ticks_Phase_5,3,5,42,127,475786624
98,5,23,Ticks_Phase_5,4,5,42,127,476287292
98,5,23,Ticks_Phase_5,5,1,48,33,476310204
98,5,23,Ticks_Phase_5,6,5,42,127,476787128
98,5,23,Ticks_Phase_5,7,1,48,44,476792044
98,5,23,Ticks_Phase_5,8,1,48,52,477273816
98,5,23,Ticks_Phase_5,9,5,42,127,477286884
98,5,23,Ticks_Phase_5,10,1,48,54,477755768
98,5,23,Ticks_Phase_5,11,5,42,127,477786424
98,5,23,Ticks_Phase_5,12,1,48,54,478272820
98,5,23,Ticks_Phase_5,13,5,42,127,478287160
98,5,23,Ticks_Phase_5,14,5,42,127,478786928
98,5,23,Ticks_Phase_5,15,1,48,36,478813556
98,5,23,Ticks_Phase_5,16,5,42,127,479286616
98,5,23,Ticks_Phase_5,17,1,48,43,479310252
98,5,23,Ticks_Phase_5,18,5,42,127,479787352
98,5,23,Ticks_Phase_5,19,1,48,49,479804468
98,5,23,Ticks_Phase_5,20,5,42,127,480287040
98,5,23,Ticks_Phase_5,21,1,48,50,480316220
98,5,23,Ticks_Phase_5,22,5,42,127,480786952
98,5,23,Ticks_Phase_5,23,1,48,43,480874848
98,5,23,Ticks_Phase_5,24,5,42,127,481286488
98,5,23,Ticks_Phase_5,25,1,48,51,481314756
98,5,23,Ticks_Phase_5,26,5,42,127,481787224
98,5,23,Ticks_Phase_5,27,1,48,52,481791908
98,5,23,Ticks_Phase_5,28,1,48,56,482286912
98,5,23,Ticks_Phase_5,29,5,42,127,482288176
98,5,23,Ticks_Phase_5,30,5,42,127,482786604
98,5,23,Ticks_Phase_5,31,1,48,54,482794968
98,5,23,Ticks_Phase_5,32,1,48,52,483286808
98,5,23,Ticks_Phase_5,33,5,42,127,483288228
98,5,23,Ticks_Phase_5,34,5,42,127,483787024
98,5,23,Ticks_Phase_5,35,1,48,57,483787992
98,5,23,Ticks_Phase_5,36,5,42,127,484286936
98,5,23,Ticks_Phase_5,37,1,48,50,484326456
98,5,23,Ticks_Phase_5,38,5,42,127,484786476
98,5,23,Ticks_Phase_5,39,1,48,54,484808536
98,5,23,Ticks_Phase_5,40,5,42,127,485287136
98,5,23,Ticks_Phase_5,41,1,48,62,485316772
98,5,23,Ticks_Phase_5,42,5,42,127,485786972
98,5,23,Ticks_Phase_5,43,1,48,50,485823408
98,5,23,Ticks_Phase_5,44,1,48,44,486283968
98,5,23,Ticks_Phase_5,45,5,42,127,486286776
98,5,23,Ticks_Phase_5,46,5,42,127,486786400
98,5,23,Ticks_Phase_5,47,1,48,51,486794076
98,5,23,Ticks_Phase_5,48,5,42,127,487287060
98,5,23,Ticks_Phase_5,49,1,48,54,487319256
98,5,23,Ticks_Phase_5,50,5,42,127,487786748
98,5,23,Ticks_Phase_5,51,1,48,54,487800124
98,5,23,Ticks_Phase_5,52,5,42,127,488286656
98,5,23,Ticks_Phase_5,53,1,48,47,488295548
98,5,23,Ticks_Phase_5,54,5,42,127,488787240
98,5,23,Ticks_Phase_5,55,1,48,49,488801816
98,5,23,Ticks_Phase_5,56,1,48,46,489286028
98,5,23,Ticks_Phase_5,57,5,42,127,489287668
98,5,23,Ticks_Phase_5,58,5,42,127,489776660
98,5,23,Ticks_Phase_5,59,1,48,60,489788544
98,5,23,Ticks_Phase_5,60,1,48,57,490276340
98,5,23,Ticks_Phase_5,61,5,42,127,490277988
98,5,23,Ticks_Phase_5,62,1,48,44,490776252
98,5,23,Ticks_Phase_5,63,5,42,127,490777900
98,5,23,Ticks_Phase_5,64,5,42,127,491276696
98,5,23,Ticks_Phase_5,65,1,48,49,491300932
98,5,23,Ticks_Phase_5,66,5,42,127,491777284
98,5,23,Ticks_Phase_5,67,1,48,60,491803688
98,5,23,Ticks_Phase_5,68,5,42,127,492277044
98,5,23,Ticks_Phase_5,69,1,48,56,492287580
98,5,23,Ticks_Phase_5,70,5,42,127,492776808
98,5,23,Ticks_Phase_5,71,1,48,38,492791752
98,5,23,Ticks_Phase_5,72,5,42,127,493276644
98,5,23,Ticks_Phase_5,73,1,48,36,493314368
98,5,23,Ticks_Phase_5,74,5,42,127,493777232
98,5,23,Ticks_Phase_5,75,1,48,59,493798024
98,5,23,Ticks_Phase_5,76,5,42,127,494276920
98,5,23,Ticks_Phase_5,77,1,48,58,494300632
98,5,23,Ticks_Phase_5,78,1,48,50,494757552
98,5,23,Ticks_Phase_5,79,5,42,127,494776976
98,5,23,Ticks_Phase_5,80,5,42,127,495277568
98,5,23,Ticks_Phase_5,81,1,48,46,495282780
98,5,23,Ticks_Phase_5,82,5,42,127,495787292
98,5,23,Ticks_Phase_5,83,1,48,66,495794608
98,5,23,Ticks_Phase_5,84,5,42,127,496287128
98,5,23,Ticks_Phase_5,85,1,48,61,496299756
98,5,23,Ticks_Phase_5,86,5,42,127,496786864
98,5,23,Ticks_Phase_5,87,1,48,37,496789712
98,5,23,Ticks_Phase_5,88,5,42,127,497286480
98,5,23,Ticks_Phase_5,89,1,48,51,497325720
98,5,23,Ticks_Phase_5,90,5,42,127,497787212
98,5,23,Ticks_Phase_5,91,1,48,61,497800140
98,5,23,Ticks_Phase_5,92,1,48,57,498261696
98,5,23,Ticks_Phase_5,93,5,42,127,498286972
98,5,23,Ticks_Phase_5,94,1,48,43,498789400
98,5,23,Ticks_Phase_5,95,5,42,127,498796920
98,5,23,Ticks_Phase_5,96,5,42,127,499296540
98,5,23,Ticks_Phase_5,97,1,48,48,499300556
98,5,23,Ticks_Phase_5,98,1,48,63,499793708
98,5,23,Ticks_Phase_5,99,5,42,127,499797640
98,5,23,Ticks_Phase_5,100,5,42,127,500297112
98,5,23,Ticks_Phase_5,101,1,48,59,500308320
98,5,23,Ticks_Phase_5,102,5,42,127,500796724
98,5,23,Ticks_Phase_5,103,1,48,53,500810100
98,5,23,Ticks_Phase_5,104,5,42,127,501296564
98,5,23,Ticks_Phase_5,105,1,48,57,501318476
98,5,23,Ticks_Phase_5,106,5,42,127,501797372
98,5,23,Ticks_Phase_5,107,1,48,52,501818544
98,5,23,Ticks_Phase_5,108,5,42,127,502296836
98,5,23,Ticks_Phase_5,109,1,48,67,502299576
98,5,23,Ticks_Phase_5,110,5,42,127,502796672
98,5,23,Ticks_Phase_5,111,1,48,56,502805260
98,5,23,Ticks_Phase_5,112,5,42,127,503297556
98,5,23,Ticks_Phase_5,113,1,48,59,503335872
98,5,23,Ticks_Phase_5,114,5,42,127,503797096
98,5,23,Ticks_Phase_5,115,1,48,62,503805904
98,5,23,Ticks_Phase_5,116,5,42,127,504296856
98,5,23,Ticks_Phase_5,117,1,48,25,504326036
98,5,23,Ticks_Phase_5,118,5,42,127,504796620
98,5,23,Ticks_Phase_5,119,1,48,56,504800340
98,5,23,Ticks_Phase_5,120,5,42,127,505297580
98,5,23,Ticks_Phase_5,121,1,48,62,505315608
98,5,23,Ticks_Phase_5,122,5,42,127,505797044
98,5,23,Ticks_Phase_5,123,1,48,65,505806456
98,5,23,Ticks_Phase_5,124,5,42,127,506296732
98,5,23,Ticks_Phase_5,125,1,48,59,506311008
98,5,23,Ticks_Phase_5,126,1,48,34,506806648
98,5,23,Ticks_Phase_5,127,5,42,127,506816784
98,5,23,Ticks_Phase_5,128,5,42,127,507316704
98,5,23,Ticks_Phase_5,129,1,48,51,507328960
98,5,23,Ticks_Phase_5,130,1,48,65,507813424
98,5,23,Ticks_Phase_5,131,5,42,127,507817504
98,5,23,Ticks_Phase_5,132,1,48,64,508292572
98,5,23,Ticks_Phase_5,133,5,42,127,508317044
98,5,23,Ticks_Phase_5,134,1,48,49,508784464
98,5,23,Ticks_Phase_5,135,5,42,127,508816704
98,5,23,Ticks_Phase_5,136,5,42,127,509316400
98,5,23,Ticks_Phase_5,137,1,48,56,509350544
98,5,23,Ticks_Phase_5,138,1,48,61,509806316
98,5,23,Ticks_Phase_5,139,5,42,127,509817128
98,5,23,Ticks_Phase_5,140,5,42,127,510316972
98,5,23,Ticks_Phase_5,141,1,48,59,510324428
98,5,23,Ticks_Phase_5,142,5,42,127,510816512
98,5,23,Ticks_Phase_5,143,1,48,46,510821124
98,5,23,Ticks_Phase_5,144,5,42,127,511317620
98,5,23,Ticks_Phase_5,145,1,48,43,511349644
98,5,23,Ticks_Phase_5,146,5,42,127,511817012
98,5,23,Ticks_Phase_5,147,1,48,60,511824392
98,5,23,Ticks_Phase_5,148,5,42,127,512316772
98,5,23,Ticks_Phase_5,149,1,48,61,512347304
98,5,23,Ticks_Phase_5,150,5,42,127,512816460
98,5,23,Ticks_Phase_5,151,1,48,42,512843836
98,5,23,Ticks_Phase_5,152,5,42,127,513317420
98,5,23,Ticks_Phase_5,153,1,48,50,513357236
98,5,23,Ticks_Phase_5,154,5,42,127,513816884
98,5,23,Ticks_Phase_5,155,1,48,62,513828020
98,5,23,Ticks_Phase_5,156,5,42,127,514316572
98,5,23,Ticks_Phase_5,157,1,48,60,514340060
98,5,23,Ticks_Phase_5,158,1,48,59,514803184
98,5,23,Ticks_Phase_5,159,5,42,127,514817524
98,5,23,Ticks_Phase_5,160,5,42,127,515296552
98,5,23,Ticks_Phase_5,161,1,48,49,515336520
98,5,23,Ticks_Phase_5,162,5,42,127,515797364
98,5,23,Ticks_Phase_5,163,1,48,56,515823612
98,5,23,Ticks_Phase_5,164,5,42,127,516297200
98,5,23,Ticks_Phase_5,165,1,48,55,516311252
98,5,23,Ticks_Phase_5,166,5,42,127,516796812
98,5,23,Ticks_Phase_5,167,1,48,54,516807420
98,5,23,Ticks_Phase_5,168,5,42,127,517296500
98,5,23,Ticks_Phase_5,169,1,48,49,517304868
98,5,23,Ticks_Phase_5,170,1,48,50,517793224
98,5,23,Ticks_Phase_5,171,5,42,127,517797452
98,5,23,Ticks_Phase_5,172,5,42,127,518297072
98,5,23,Ticks_Phase_5,173,1,48,38,518328428
98,5,23,Ticks_Phase_5,174,5,42,127,518796736
98,5,23,Ticks_Phase_5,175,1,48,58,518830732
98,5,23,Ticks_Phase_5,176,1,48,56,519295732
98,5,23,Ticks_Phase_5,177,5,42,127,519297240
98,5,23,Ticks_Phase_5,178,5,42,127,519797236
98,5,23,Ticks_Phase_5,179,1,48,27,519818104
98,5,23,Ticks_Phase_5,180,5,42,127,520296776
98,5,23,Ticks_Phase_5,181,1,48,59,520325880
98,5,23,Ticks_Phase_5,182,1,48,61,520788856
98,5,23,Ticks_Phase_5,183,5,42,127,520796456
98,5,23,Ticks_Phase_5,184,1,48,38,521290868
98,5,23,Ticks_Phase_5,185,5,42,127,521297340
98,5,23,Ticks_Phase_5,186,5,42,127,521797108
98,5,23,Ticks_Phase_5,187,1,48,48,521818800
98,5,23,Ticks_Phase_5,188,1,48,62,522292412
98,5,23,Ticks_Phase_5,189,5,42,127,522296640
98,5,23,Ticks_Phase_5,190,5,42,127,522797384
98,5,23,Ticks_Phase_5,191,1,48,29,522808592
98,5,23,Ticks_Phase_5,192,5,42,127,523257304
98,5,23,Ticks_Phase_5,193,1,48,56,523313216
98,5,23,Ticks_Phase_5,194,1,48,63,523748344
98,5,23,Ticks_Phase_5,195,5,42,127,523756988
98,5,23,Ticks_Phase_5,196,1,48,39,524251776
98,5,23,Ticks_Phase_5,197,5,42,127,524256528
98,5,23,Ticks_Phase_5,198,1,48,46,524753628
98,5,23,Ticks_Phase_5,199,5,42,127,524757336
98,5,23,Ticks_Phase_5,200,5,42,127,525257108
98,5,23,Ticks_Phase_5,201,1,48,55,525262616
98,5,23,Ticks_Phase_5,202,5,42,127,525756796
98,5,23,Ticks_Phase_5,203,1,48,14,525770544
98,5,23,Ticks_Phase_5,204,1,48,43,526241240
98,5,23,Ticks_Phase_5,205,5,42,127,526256404
98,5,23,Ticks_Phase_5,206,1,48,55,526723228
98,5,23,Ticks_Phase_5,207,5,42,127,526757212
98,5,23,Ticks_Phase_5,208,5,42,127,527257056
98,5,23,Ticks_Phase_5,209,1,48,38,527262792
98,5,23,Ticks_Phase_5,210,5,42,127,527756644
98,5,23,Ticks_Phase_5,211,1,48,52,527784640
98,5,23,Ticks_Phase_5,212,5,42,127,528257380
98,5,23,Ticks_Phase_5,213,1,48,53,528272552
98,5,23,Ticks_Phase_5,214,1,48,44,528752980
98,5,23,Ticks_Phase_5,215,5,42,127,528757208
98,5,23,Ticks_Phase_5,216,5,42,127,529256756
98,5,23,Ticks_Phase_5,217,1,48,44,529260168
98,5,23,Ticks_Phase_5,218,5,42,127,529756592
98,5,23,Ticks_Phase_5,219,1,48,44,529757628
98,5,23,Ticks_Phase_5,220,1,48,48,530245160
98,5,23,Ticks_Phase_5,221,5,42,127,530257392
98,5,23,Ticks_Phase_5,222,1,48,54,530749040
98,5,23,Ticks_Phase_5,223,5,42,127,530757232
98,5,23,Ticks_Phase_5,224,1,48,55,531256480
98,5,23,Ticks_Phase_5,225,5,42,127,531257820
98,5,23,Ticks_Phase_5,226,1,48,54,531774392
98,5,23,Ticks_Phase_5,227,5,42,127,531806564
98,5,23,Ticks_Phase_5,228,5,42,127,532307228
98,5,23,Ticks_Phase_5,229,1,48,44,532318216
98,5,23,Ticks_Phase_5,230,1,48,53,532796020
98,5,23,Ticks_Phase_5,231,5,42,127,532807132
98,5,23,Ticks_Phase_5,232,5,42,127,533306680
98,5,23,Ticks_Phase_5,233,1,48,30,533309420
98,5,23,Ticks_Phase_5,234,5,42,127,533806368
98,5,23,Ticks_Phase_5,235,1,48,49,533819072
98,5,23,Ticks_Phase_5,236,5,42,127,534307176
98,5,23,Ticks_Phase_5,237,1,48,66,534316368
98,5,23,Ticks_Phase_5,238,5,42,127,534807012
98,5,23,Ticks_Phase_5,239,1,48,42,534830576
98,5,23,Ticks_Phase_5,240,5,42,127,535306476
98,5,23,Ticks_Phase_5,241,1,48,44,535325100
98,5,23,Ticks_Phase_5,242,5,42,127,535807288
98,5,23,Ticks_Phase_5,243,1,48,62,535830324
98,5,23,Ticks_Phase_5,244,1,48,62,536299976
98,5,23,Ticks_Phase_5,245,5,42,127,536307120
98,5,23,Ticks_Phase_5,246,5,42,127,536806668
98,5,23,Ticks_Phase_5,247,1,48,50,536822360
98,5,23,Ticks_Phase_5,248,1,48,56,537306052
98,5,23,Ticks_Phase_5,249,5,42,127,537307396
98,5,23,Ticks_Phase_5,250,5,42,127,537807168
98,5,23,Ticks_Phase_5,251,1,48,57,537815608
98,5,23,Ticks_Phase_5,252,5,42,127,538307004
98,5,23,Ticks_Phase_5,253,1,48,21,538338132
98,5,23,Ticks_Phase_5,254,1,48,49,538805100
98,5,23,Ticks_Phase_5,255,5,42,127,538806612
98,5,23,Ticks_Phase_5,256,5,42,127,539307352
98,5,23,Ticks_Phase_5,257,1,48,59,539321628
98,5,23,Ticks_Phase_5,258,1,48,44,539794088
98,5,23,Ticks_Phase_5,259,5,42,127,539807308
98,5,23,Ticks_Phase_5,260,1,48,51,540294124
98,5,23,Ticks_Phase_5,261,5,42,127,540407108
98,5,23,Ticks_Phase_5,262,1,48,44,540885812
98,5,23,Ticks_Phase_5,263,5,42,127,540906884
98,5,23,Ticks_Phase_5,264,5,42,127,541406432
98,5,23,Ticks_Phase_5,265,1,48,53,541412688
98,5,23,Ticks_Phase_5,266,5,42,127,541907240
98,5,23,Ticks_Phase_5,267,1,48,50,541944348
98,5,23,Ticks_Phase_5,268,5,42,127,542407000
98,5,23,Ticks_Phase_5,269,1,48,53,542419108
98,5,23,Ticks_Phase_5,270,5,42,127,542906692
98,5,23,Ticks_Phase_5,271,1,48,54,542924104
98,5,23,Ticks_Phase_5,272,5,42,127,543406380
98,5,23,Ticks_Phase_5,273,1,48,25,543449116
98,5,23,Ticks_Phase_5,274,5,42,127,543907116
98,5,23,Ticks_Phase_5,275,1,48,48,543923032
98,5,23,Ticks_Phase_5,276,5,42,127,544406876
98,5,23,Ticks_Phase_5,277,1,48,57,544409996
98,5,23,Ticks_Phase_5,278,5,42,127,544906464
98,5,23,Ticks_Phase_5,279,1,48,57,544916052
98,5,23,Ticks_Phase_5,280,5,42,127,545407276
98,5,23,Ticks_Phase_5,281,1,48,16,545445024
98,5,23,Ticks_Phase_5,282,5,42,127,545907112
98,5,23,Ticks_Phase_5,283,1,48,50,545929176
98,5,23,Ticks_Phase_5,284,5,42,127,546406800
98,5,23,Ticks_Phase_5,285,1,48,48,546426248
98,5,23,Ticks_Phase_5,286,1,48,63,546904124
98,5,23,Ticks_Phase_5,287,5,42,127,546906484
98,5,23,Ticks_Phase_5,288,1,48,46,547406396
98,5,23,Ticks_Phase_5,289,5,42,127,547407968
98,5,23,Ticks_Phase_5,290,5,42,127,547906840
98,5,23,Ticks_Phase_5,291,1,48,45,547907804
98,5,23,Ticks_Phase_5,292,5,42,127,548406604
98,5,23,Ticks_Phase_5,293,1,48,60,548419528
98,5,23,Ticks_Phase_5,294,5,42,127,548907484
98,5,23,Ticks_Phase_5,295,1,48,65,548925212
98,5,23,Ticks_Phase_5,296,1,48,37,549368644
98,5,23,Ticks_Phase_5,297,5,42,127,549407020
98,5,23,Ticks_Phase_5,298,5,42,127,549806440
98,5,23,Ticks_Phase_5,299,1,48,46,549893356
98,5,23,Ticks_Phase_5,300,5,42,127,550307104
98,5,23,Ticks_Phase_5,301,1,48,47,550397544
98,5,23,Ticks_Phase_5,302,5,42,127,550807016
98,5,23,Ticks_Phase_5,303,1,48,51,550817104
98,5,23,Ticks_Phase_5,304,1,48,52,551303192
98,5,23,Ticks_Phase_5,305,5,42,127,551306596
98,5,23,Ticks_Phase_5,306,5,42,127,551807488
98,5,23,Ticks_Phase_5,307,1,48,58,551823780
98,5,23,Ticks_Phase_5,308,5,42,127,552307248
98,5,23,Ticks_Phase_5,309,1,48,61,552331932
98,5,23,Ticks_Phase_5,310,1,48,63,552794920
98,5,23,Ticks_Phase_5,311,5,42,127,552807004
98,5,23,Ticks_Phase_5,312,5,42,127,553306476
98,5,23,Ticks_Phase_5,313,1,48,45,553321796
98,5,23,Ticks_Phase_5,314,5,42,127,553807284
98,5,23,Ticks_Phase_5,315,1,48,63,553825836
98,5,23,Ticks_Phase_5,316,5,42,127,554306972
98,5,23,Ticks_Phase_5,317,1,48,66,554338772
98,5,23,Ticks_Phase_5,318,5,42,127,554806736
98,5,23,Ticks_Phase_5,319,1,48,41,554813288
98,5,23,Ticks_Phase_5,320,5,42,127,555307320
98,5,23,Ticks_Phase_5,321,1,48,45,555312828
98,5,23,Ticks_Phase_5,322,5,42,127,555807156
98,5,23,Ticks_Phase_5,323,1,48,57,555834080
98,5,23,Ticks_Phase_5,324,5,42,127,556306772
98,5,23,Ticks_Phase_5,325,1,48,67,556341788
98,5,23,Ticks_Phase_5,326,5,42,127,556806460
98,5,23,Ticks_Phase_5,327,1,48,45,556845524
98,5,23,Ticks_Phase_5,328,5,42,127,557307244
98,5,23,Ticks_Phase_5,329,1,48,47,557319576
98,5,23,Ticks_Phase_5,330,1,48,54,557785852
98,5,23,Ticks_Phase_5,331,5,42,127,557807072
98,5,23,Ticks_Phase_5,332,5,42,127,558306692
98,5,23,Ticks_Phase_5,333,1,48,57,558315880
98,5,23,Ticks_Phase_5,334,1,48,62,558795864
98,5,23,Ticks_Phase_5,335,5,42,127,558807348
98,5,23,Ticks_Phase_5,336,1,48,40,559295248
98,5,23,Ticks_Phase_5,337,5,42,127,559307108
98,5,23,Ticks_Phase_5,0,9999,9999,9999,474784868
98,5,23,Ticks_Phase_5,1,9999,9999,9999,475284552
98,5,23,Ticks_Phase_5,2,9999,9999,9999,475784260
98,5,23,Ticks_Phase_5,3,9999,9999,9999,476285000
98,5,23,Ticks_Phase_5,4,9999,9999,9999,476784764
98,5,23,Ticks_Phase_5,5,9999,9999,9999,477284448
98,5,23,Ticks_Phase_5,6,9999,9999,9999,477784136
98,5,23,Ticks_Phase_5,7,9999,9999,9999,478284868
98,5,23,Ticks_Phase_5,8,9999,9999,9999,478784640
98,5,23,Ticks_Phase_5,9,9999,9999,9999,479284328
98,5,23,Ticks_Phase_5,10,9999,9999,9999,479785060
98,5,23,Ticks_Phase_5,11,9999,9999,9999,480284752
98,5,23,Ticks_Phase_5,12,9999,9999,9999,480784436
98,5,23,Ticks_Phase_5,13,9999,9999,9999,481284200
98,5,23,Ticks_Phase_5,14,9999,9999,9999,481784932
98,5,23,Ticks_Phase_5,15,9999,9999,9999,482284620
98,5,23,Ticks_Phase_5,16,9999,9999,9999,482784312
98,5,23,Ticks_Phase_5,17,9999,9999,9999,483285048
98,5,23,Ticks_Phase_5,18,9999,9999,9999,483784808
98,5,23,Ticks_Phase_5,19,9999,9999,9999,484284496
98,5,23,Ticks_Phase_5,20,9999,9999,9999,484784184
98,5,23,Ticks_Phase_5,21,9999,9999,9999,485284920
98,5,23,Ticks_Phase_5,22,9999,9999,9999,485784684
98,5,23,Ticks_Phase_5,23,9999,9999,9999,486284416
98,5,23,Ticks_Phase_5,24,9999,9999,9999,486784108
98,5,23,Ticks_Phase_5,25,9999,9999,9999,487284844
98,5,23,Ticks_Phase_5,26,9999,9999,9999,487784532
98,5,23,Ticks_Phase_5,27,9999,9999,9999,488284220
98,5,23,Ticks_Phase_5,28,9999,9999,9999,488784952
98,5,23,Ticks_Phase_5,29,9999,9999,9999,489284716
98,5,23,Ticks_Phase_5,30,9999,9999,9999,489774144
98,5,23,Ticks_Phase_5,31,9999,9999,9999,490274880
98,5,23,Ticks_Phase_5,32,9999,9999,9999,490774644
98,5,23,Ticks_Phase_5,33,9999,9999,9999,491274332
98,5,23,Ticks_Phase_5,34,9999,9999,9999,491775068
98,5,23,Ticks_Phase_5,35,9999,9999,9999,492274756
98,5,23,Ticks_Phase_5,36,9999,9999,9999,492774520
98,5,23,Ticks_Phase_5,37,9999,9999,9999,493274208
98,5,23,Ticks_Phase_5,38,9999,9999,9999,493774940
98,5,23,Ticks_Phase_5,39,9999,9999,9999,494274628
98,5,23,Ticks_Phase_5,40,9999,9999,9999,494774388
98,5,23,Ticks_Phase_5,41,9999,9999,9999,495275128
98,5,23,Ticks_Phase_5,42,9999,9999,9999,495785076
98,5,23,Ticks_Phase_5,43,9999,9999,9999,496284764
98,5,23,Ticks_Phase_5,44,9999,9999,9999,496784500
98,5,23,Ticks_Phase_5,45,9999,9999,9999,497284188
98,5,23,Ticks_Phase_5,46,9999,9999,9999,497784924
98,5,23,Ticks_Phase_5,47,9999,9999,9999,498284608
98,5,23,Ticks_Phase_5,48,9999,9999,9999,498794556
98,5,23,Ticks_Phase_5,49,9999,9999,9999,499294324
98,5,23,Ticks_Phase_5,50,9999,9999,9999,499795052
98,5,23,Ticks_Phase_5,51,9999,9999,9999,500294748
98,5,23,Ticks_Phase_5,52,9999,9999,9999,500794436
98,5,23,Ticks_Phase_5,53,9999,9999,9999,501294196
98,5,23,Ticks_Phase_5,54,9999,9999,9999,501794932
98,5,23,Ticks_Phase_5,55,9999,9999,9999,502294620
98,5,23,Ticks_Phase_5,56,9999,9999,9999,502794308
98,5,23,Ticks_Phase_5,57,9999,9999,9999,503295044
98,5,23,Ticks_Phase_5,58,9999,9999,9999,503794804
98,5,23,Ticks_Phase_5,59,9999,9999,9999,504294492
98,5,23,Ticks_Phase_5,60,9999,9999,9999,504794180
98,5,23,Ticks_Phase_5,61,9999,9999,9999,505294916
98,5,23,Ticks_Phase_5,62,9999,9999,9999,505794680
98,5,23,Ticks_Phase_5,63,9999,9999,9999,506294368
98,5,23,Ticks_Phase_5,64,9999,9999,9999,506814568
98,5,23,Ticks_Phase_5,65,9999,9999,9999,507314264
98,5,23,Ticks_Phase_5,66,9999,9999,9999,507814992
98,5,23,Ticks_Phase_5,67,9999,9999,9999,508314680
98,5,23,Ticks_Phase_5,68,9999,9999,9999,508814416
98,5,23,Ticks_Phase_5,69,9999,9999,9999,509314112
98,5,23,Ticks_Phase_5,70,9999,9999,9999,509814840
98,5,23,Ticks_Phase_5,71,9999,9999,9999,510314608
98,5,23,Ticks_Phase_5,72,9999,9999,9999,510814300
98,5,23,Ticks_Phase_5,73,9999,9999,9999,511315032
98,5,23,Ticks_Phase_5,74,9999,9999,9999,511814720
98,5,23,Ticks_Phase_5,75,9999,9999,9999,512314484
98,5,23,Ticks_Phase_5,76,9999,9999,9999,512814172
98,5,23,Ticks_Phase_5,77,9999,9999,9999,513314908
98,5,23,Ticks_Phase_5,78,9999,9999,9999,513814596
98,5,23,Ticks_Phase_5,79,9999,9999,9999,514314356
98,5,23,Ticks_Phase_5,80,9999,9999,9999,514815088
98,5,23,Ticks_Phase_5,81,9999,9999,9999,515294264
98,5,23,Ticks_Phase_5,82,9999,9999,9999,515795000
98,5,23,Ticks_Phase_5,83,9999,9999,9999,516294760
98,5,23,Ticks_Phase_5,84,9999,9999,9999,516794448
98,5,23,Ticks_Phase_5,85,9999,9999,9999,517294136
98,5,23,Ticks_Phase_5,86,9999,9999,9999,517794940
98,5,23,Ticks_Phase_5,87,9999,9999,9999,518294636
98,5,23,Ticks_Phase_5,88,9999,9999,9999,518794300
98,5,23,Ticks_Phase_5,89,9999,9999,9999,519295040
98,5,23,Ticks_Phase_5,90,9999,9999,9999,519794796
98,5,23,Ticks_Phase_5,91,9999,9999,9999,520294484
98,5,23,Ticks_Phase_5,92,9999,9999,9999,520794164
98,5,23,Ticks_Phase_5,93,9999,9999,9999,521294976
98,5,23,Ticks_Phase_5,94,9999,9999,9999,521794668
98,5,23,Ticks_Phase_5,95,9999,9999,9999,522294352
98,5,23,Ticks_Phase_5,96,9999,9999,9999,522795096
98,5,23,Ticks_Phase_5,97,9999,9999,9999,523254868
98,5,23,Ticks_Phase_5,98,9999,9999,9999,523754552
98,5,23,Ticks_Phase_5,99,9999,9999,9999,524254316
98,5,23,Ticks_Phase_5,100,9999,9999,9999,524755048
98,5,23,Ticks_Phase_5,101,9999,9999,9999,525254744
98,5,23,Ticks_Phase_5,102,9999,9999,9999,525754432
98,5,23,Ticks_Phase_5,103,9999,9999,9999,526254188
98,5,23,Ticks_Phase_5,104,9999,9999,9999,526754924
98,5,23,Ticks_Phase_5,105,9999,9999,9999,527254616
98,5,23,Ticks_Phase_5,106,9999,9999,9999,527754356
98,5,23,Ticks_Phase_5,107,9999,9999,9999,528255092
98,5,23,Ticks_Phase_5,108,9999,9999,9999,528754772
98,5,23,Ticks_Phase_5,109,9999,9999,9999,529254464
98,5,23,Ticks_Phase_5,110,9999,9999,9999,529754228
98,5,23,Ticks_Phase_5,111,9999,9999,9999,530254956
98,5,23,Ticks_Phase_5,112,9999,9999,9999,530754648
98,5,23,Ticks_Phase_5,113,9999,9999,9999,531254340
98,5,23,Ticks_Phase_5,114,9999,9999,9999,531804272
98,5,23,Ticks_Phase_5,115,9999,9999,9999,532305016
98,5,23,Ticks_Phase_5,116,9999,9999,9999,532804696
98,5,23,Ticks_Phase_5,117,9999,9999,9999,533304388
98,5,23,Ticks_Phase_5,118,9999,9999,9999,533804152
98,5,23,Ticks_Phase_5,119,9999,9999,9999,534304888
98,5,23,Ticks_Phase_5,120,9999,9999,9999,534804576
98,5,23,Ticks_Phase_5,121,9999,9999,9999,535304264
98,5,23,Ticks_Phase_5,122,9999,9999,9999,535805000
98,5,23,Ticks_Phase_5,123,9999,9999,9999,536304756
98,5,23,Ticks_Phase_5,124,9999,9999,9999,536804452
98,5,23,Ticks_Phase_5,125,9999,9999,9999,537304140
98,5,23,Ticks_Phase_5,126,9999,9999,9999,537804880
98,5,23,Ticks_Phase_5,127,9999,9999,9999,538304568
98,5,23,Ticks_Phase_5,128,9999,9999,9999,538804328
98,5,23,Ticks_Phase_5,129,9999,9999,9999,539305064
98,5,23,Ticks_Phase_5,130,9999,9999,9999,539804796
98,5,23,Ticks_Phase_5,131,9999,9999,9999,540404816
98,5,23,Ticks_Phase_5,132,9999,9999,9999,540904520
98,5,23,Ticks_Phase_5,133,9999,9999,9999,541404216
98,5,23,Ticks_Phase_5,134,9999,9999,9999,541904952
98,5,23,Ticks_Phase_5,135,9999,9999,9999,542404712
98,5,23,Ticks_Phase_5,136,9999,9999,9999,542904400
98,5,23,Ticks_Phase_5,137,9999,9999,9999,543404092
98,5,23,Ticks_Phase_5,138,9999,9999,9999,543904824
98,5,23,Ticks_Phase_5,139,9999,9999,9999,544404588
98,5,23,Ticks_Phase_5,140,9999,9999,9999,544904248
98,5,23,Ticks_Phase_5,141,9999,9999,9999,545404988
98,5,23,Ticks_Phase_5,142,9999,9999,9999,545904748
98,5,23,Ticks_Phase_5,143,9999,9999,9999,546404436
98,5,23,Ticks_Phase_5,144,9999,9999,9999,546904196
98,5,23,Ticks_Phase_5,145,9999,9999,9999,547404864
98,5,23,Ticks_Phase_5,146,9999,9999,9999,547904624
98,5,23,Ticks_Phase_5,147,9999,9999,9999,548404312
98,5,23,Ticks_Phase_5,148,9999,9999,9999,548905048
98,5,23,Ticks_Phase_5,149,9999,9999,9999,549404728
98,5,23,Ticks_Phase_5,150,9999,9999,9999,549804152
98,5,23,Ticks_Phase_5,151,9999,9999,9999,550304888
98,5,23,Ticks_Phase_5,152,9999,9999,9999,550804576
98,5,23,Ticks_Phase_5,153,9999,9999,9999,551304308
98,5,23,Ticks_Phase_5,154,9999,9999,9999,551805048
98,5,23,Ticks_Phase_5,155,9999,9999,9999,552304736
98,5,23,Ticks_Phase_5,156,9999,9999,9999,552804416
98,5,23,Ticks_Phase_5,157,9999,9999,9999,553304188
98,5,23,Ticks_Phase_5,158,9999,9999,9999,553804920
98,5,23,Ticks_Phase_5,159,9999,9999,9999,554304608
98,5,23,Ticks_Phase_5,160,9999,9999,9999,554804296
98,5,23,Ticks_Phase_5,161,9999,9999,9999,555305028
98,5,23,Ticks_Phase_5,162,9999,9999,9999,555804792
98,5,23,Ticks_Phase_5,163,9999,9999,9999,556304480
98,5,23,Ticks_Phase_5,164,9999,9999,9999,556804168
98,5,23,Ticks_Phase_5,165,9999,9999,9999,557304952
98,5,23,Ticks_Phase_5,166,9999,9999,9999,557804636
98,5,23,Ticks_Phase_5,167,9999,9999,9999,558304328
98,5,23,Ticks_Phase_5,168,9999,9999,9999,558805056
98,5,23,Ticks_Phase_5,169,9999,9999,9999,559304820
98,6,22,Ticks_Phase_8,0,5,42,127,571016492
98,6,22,Ticks_Phase_8,1,5,42,127,571817596
98,6,22,Ticks_Phase_8,2,5,42,127,572617180
98,6,22,Ticks_Phase_8,3,5,42,127,573416692
98,6,22,Ticks_Phase_8,4,5,42,127,574216648
98,6,22,Ticks_Phase_8,5,5,42,127,575017280
98,6,22,Ticks_Phase_8,6,1,48,60,575027292
98,6,22,Ticks_Phase_8,7,1,48,54,575788644
98,6,22,Ticks_Phase_8,8,5,42,127,575816984
98,6,22,Ticks_Phase_8,9,1,48,48,576591424
98,6,22,Ticks_Phase_8,10,5,42,127,576616696
98,6,22,Ticks_Phase_8,11,1,48,45,577413896
98,6,22,Ticks_Phase_8,12,5,42,127,577416704
98,6,22,Ticks_Phase_8,13,1,48,51,578191820
98,6,22,Ticks_Phase_8,14,5,42,127,578217388
98,6,22,Ticks_Phase_8,15,1,48,38,579006288
98,6,22,Ticks_Phase_8,16,5,42,127,579017028
98,6,22,Ticks_Phase_8,17,5,42,127,579816744
98,6,22,Ticks_Phase_8,18,1,48,44,579840456
98,6,22,Ticks_Phase_8,19,1,48,47,580568492
98,6,22,Ticks_Phase_8,20,5,42,127,580616524
98,6,22,Ticks_Phase_8,21,1,48,54,581395540
98,6,22,Ticks_Phase_8,22,5,42,127,581417284
98,6,22,Ticks_Phase_8,23,1,48,48,582188508
98,6,22,Ticks_Phase_8,24,5,42,127,582217220
98,6,22,Ticks_Phase_8,25,1,48,45,582984688
98,6,22,Ticks_Phase_8,26,5,42,127,583016856
98,6,22,Ticks_Phase_8,27,1,48,45,583795644
98,6,22,Ticks_Phase_8,28,5,42,127,583816644
98,6,22,Ticks_Phase_8,29,1,48,45,584579552
98,6,22,Ticks_Phase_8,30,5,42,127,584617276
98,6,22,Ticks_Phase_8,31,1,48,41,585394868
98,6,22,Ticks_Phase_8,32,5,42,127,585417284
98,6,22,Ticks_Phase_8,33,1,48,40,586176608
98,6,22,Ticks_Phase_8,34,5,42,127,586216700
98,6,22,Ticks_Phase_8,35,1,48,49,586987100
98,6,22,Ticks_Phase_8,36,5,42,127,587016560
98,6,22,Ticks_Phase_8,37,1,48,50,587816192
98,6,22,Ticks_Phase_8,38,5,42,127,587817692
98,6,22,Ticks_Phase_8,39,5,42,127,588617260
98,6,22,Ticks_Phase_8,40,1,48,44,588628768
98,6,22,Ticks_Phase_8,41,1,48,45,589411092
98,6,22,Ticks_Phase_8,42,5,42,127,589417040
98,6,22,Ticks_Phase_8,43,1,48,47,590209312
98,6,22,Ticks_Phase_8,44,5,42,127,590216604
98,6,22,Ticks_Phase_8,45,1,48,49,590999836
98,6,22,Ticks_Phase_8,46,5,42,127,591017460
98,6,22,Ticks_Phase_8,47,1,48,45,591795580
98,6,22,Ticks_Phase_8,48,5,42,127,591817248
98,6,22,Ticks_Phase_8,49,5,42,127,592616820
98,6,22,Ticks_Phase_8,50,1,48,43,592621584
98,6,22,Ticks_Phase_8,51,1,48,36,593411992
98,6,22,Ticks_Phase_8,52,5,42,127,593416672
98,6,22,Ticks_Phase_8,53,5,42,127,594217440
98,6,22,Ticks_Phase_8,54,1,48,45,594230372
98,6,22,Ticks_Phase_8,55,1,48,44,594978028
98,6,22,Ticks_Phase_8,56,5,42,127,594996480
98,6,22,Ticks_Phase_8,57,1,48,37,595738492
98,6,22,Ticks_Phase_8,58,5,42,127,595797384
98,6,22,Ticks_Phase_8,59,1,48,46,596568008
98,6,22,Ticks_Phase_8,60,5,42,127,596597320
98,6,22,Ticks_Phase_8,61,5,42,127,597396988
98,6,22,Ticks_Phase_8,62,1,48,51,597398104
98,6,22,Ticks_Phase_8,63,1,48,37,598160716
98,6,22,Ticks_Phase_8,64,5,42,127,598196548
98,6,22,Ticks_Phase_8,65,1,48,43,598997536
98,6,22,Ticks_Phase_8,66,5,42,127,598999020
98,6,22,Ticks_Phase_8,67,1,48,51,599775276
98,6,22,Ticks_Phase_8,68,5,42,127,599797316
98,6,22,Ticks_Phase_8,69,1,48,56,600544116
98,6,22,Ticks_Phase_8,70,5,42,127,600596728
98,6,22,Ticks_Phase_8,71,1,48,52,601357476
98,6,22,Ticks_Phase_8,72,5,42,127,601396740
98,6,22,Ticks_Phase_8,73,1,48,39,602161448
98,6,22,Ticks_Phase_8,74,5,42,127,602197352
98,6,22,Ticks_Phase_8,75,1,48,48,602952920
98,6,22,Ticks_Phase_8,76,5,42,127,602997064
98,6,22,Ticks_Phase_8,77,1,48,45,603738932
98,6,22,Ticks_Phase_8,78,5,42,127,603796804
98,6,22,Ticks_Phase_8,79,5,42,127,604596596
98,6,22,Ticks_Phase_8,80,1,48,36,604618812
98,6,22,Ticks_Phase_8,81,1,48,43,605396144
98,6,22,Ticks_Phase_8,82,5,42,127,605397644
98,6,22,Ticks_Phase_8,83,5,42,127,606197140
98,6,22,Ticks_Phase_8,84,1,48,54,606200932
98,6,22,Ticks_Phase_8,85,1,48,46,606984464
98,6,22,Ticks_Phase_8,86,5,42,127,606997140
98,6,22,Ticks_Phase_8,87,5,42,127,607796488
98,6,22,Ticks_Phase_8,88,1,48,47,607819596
98,6,22,Ticks_Phase_8,89,5,42,127,608597320
98,6,22,Ticks_Phase_8,90,1,48,49,608600440
98,6,22,Ticks_Phase_8,91,1,48,46,609394744
98,6,22,Ticks_Phase_8,92,5,42,127,609416572
98,6,22,Ticks_Phase_8,93,1,48,38,610186072
98,6,22,Ticks_Phase_8,94,5,42,127,610217280
98,6,22,Ticks_Phase_8,95,1,48,43,610984080
98,6,22,Ticks_Phase_8,96,5,42,127,611017140
98,6,22,Ticks_Phase_8,97,1,48,37,611774204
98,6,22,Ticks_Phase_8,98,5,42,127,611817076
98,6,22,Ticks_Phase_8,99,1,48,46,612563360
98,6,22,Ticks_Phase_8,100,5,42,127,612616492
98,6,22,Ticks_Phase_8,101,1,48,52,613373256
98,6,22,Ticks_Phase_8,102,5,42,127,613417400
98,6,22,Ticks_Phase_8,103,5,42,127,614216968
98,6,22,Ticks_Phase_8,104,1,48,50,614221580
98,6,22,Ticks_Phase_8,105,1,48,48,615009528
98,6,22,Ticks_Phase_8,106,5,42,127,615016972
98,6,22,Ticks_Phase_8,107,1,48,49,615797040
98,6,22,Ticks_Phase_8,108,5,42,127,615816464
98,6,22,Ticks_Phase_8,109,1,48,50,616577652
98,6,22,Ticks_Phase_8,110,5,42,127,616617316
98,6,22,Ticks_Phase_8,111,1,48,51,617394316
98,6,22,Ticks_Phase_8,112,5,42,127,617417032
98,6,22,Ticks_Phase_8,113,1,48,54,618201952
98,6,22,Ticks_Phase_8,114,5,42,127,618216892
98,6,22,Ticks_Phase_8,115,1,48,47,619015552
98,6,22,Ticks_Phase_8,116,5,42,127,619016976
98,6,22,Ticks_Phase_8,117,1,48,48,619779588
98,6,22,Ticks_Phase_8,118,5,42,127,619817288
98,6,22,Ticks_Phase_8,119,1,48,54,620601392
98,6,22,Ticks_Phase_8,120,5,42,127,620616924
98,6,22,Ticks_Phase_8,121,1,48,42,621349280
98,6,22,Ticks_Phase_8,122,5,42,127,621416788
98,6,22,Ticks_Phase_8,123,1,48,55,622184328
98,6,22,Ticks_Phase_8,124,5,42,127,622256440
98,6,22,Ticks_Phase_8,125,1,48,53,623010360
98,6,22,Ticks_Phase_8,126,5,42,127,623057272
98,6,22,Ticks_Phase_8,127,1,48,48,623823996
98,6,22,Ticks_Phase_8,128,5,42,127,623857132
98,6,22,Ticks_Phase_8,129,1,48,48,624611952
98,6,22,Ticks_Phase_8,130,5,42,127,624656844
98,6,22,Ticks_Phase_8,131,1,48,54,625400360
98,6,22,Ticks_Phase_8,132,5,42,127,625457004
98,6,22,Ticks_Phase_8,133,1,48,44,626222164
98,6,22,Ticks_Phase_8,134,5,42,127,626257168
98,6,22,Ticks_Phase_8,135,1,48,43,627025400
98,6,22,Ticks_Phase_8,136,5,42,127,627056952
98,6,22,Ticks_Phase_8,137,1,48,46,627809832
98,6,22,Ticks_Phase_8,138,5,42,127,627856840
98,6,22,Ticks_Phase_8,139,5,42,127,628656708
98,6,22,Ticks_Phase_8,140,1,48,41,628683936
98,6,22,Ticks_Phase_8,141,1,48,41,629453084
98,6,22,Ticks_Phase_8,142,5,42,127,629457312
98,6,22,Ticks_Phase_8,143,5,42,127,630257108
98,6,22,Ticks_Phase_8,144,1,48,39,630265924
98,6,22,Ticks_Phase_8,145,1,48,42,631040452
98,6,22,Ticks_Phase_8,146,5,42,127,631056664
98,6,22,Ticks_Phase_8,147,1,48,44,631847732
98,6,22,Ticks_Phase_8,148,5,42,127,631856596
98,6,22,Ticks_Phase_8,149,1,48,38,632640100
98,6,22,Ticks_Phase_8,150,5,42,127,632657204
98,6,22,Ticks_Phase_8,151,1,48,42,633438840
98,6,22,Ticks_Phase_8,152,5,42,127,633457068
98,6,22,Ticks_Phase_8,153,1,48,41,634233080
98,6,22,Ticks_Phase_8,154,5,42,127,634256728
98,6,22,Ticks_Phase_8,155,1,48,52,635043668
98,6,22,Ticks_Phase_8,156,5,42,127,635056588
98,6,22,Ticks_Phase_8,157,5,42,127,635817516
98,6,22,Ticks_Phase_8,158,1,48,47,635818480
98,6,22,Ticks_Phase_8,159,5,42,127,636617004
98,6,22,Ticks_Phase_8,160,1,48,48,636621920
98,6,22,Ticks_Phase_8,161,1,48,48,637404628
98,6,22,Ticks_Phase_8,162,5,42,127,637416784
98,6,22,Ticks_Phase_8,163,5,42,127,638216800
98,6,22,Ticks_Phase_8,164,1,48,45,638233168
98,6,22,Ticks_Phase_8,165,5,42,127,639017188
98,6,22,Ticks_Phase_8,166,1,48,43,639028324
98,6,22,Ticks_Phase_8,167,5,42,127,639817196
98,6,22,Ticks_Phase_8,168,1,48,49,639823456
98,6,22,Ticks_Phase_8,169,1,48,46,640592980
98,6,22,Ticks_Phase_8,170,5,42,127,640616900
98,6,22,Ticks_Phase_8,171,1,48,37,641395244
98,6,22,Ticks_Phase_8,172,5,42,127,641416836
98,6,22,Ticks_Phase_8,173,1,48,47,642209208
98,6,22,Ticks_Phase_8,174,5,42,127,642217472
98,6,22,Ticks_Phase_8,175,5,42,127,643016968
98,6,22,Ticks_Phase_8,176,1,48,54,643031616
98,6,22,Ticks_Phase_8,177,1,48,49,643801956
98,6,22,Ticks_Phase_8,178,5,42,127,643816748
98,6,22,Ticks_Phase_8,179,1,48,45,644578388
98,6,22,Ticks_Phase_8,180,5,42,127,644616680
98,6,22,Ticks_Phase_8,181,1,48,46,645403620
98,6,22,Ticks_Phase_8,182,5,42,127,645417440
98,6,22,Ticks_Phase_8,183,1,48,37,646206568
98,6,22,Ticks_Phase_8,184,5,42,127,646217004
98,6,22,Ticks_Phase_8,185,1,48,50,646972792
98,6,22,Ticks_Phase_8,186,5,42,127,647016788
98,6,22,Ticks_Phase_8,187,1,48,50,647771832
98,6,22,Ticks_Phase_8,188,5,42,127,647816428
98,6,22,Ticks_Phase_8,189,5,42,127,648536464
98,6,22,Ticks_Phase_8,190,1,48,49,648608132
98,6,22,Ticks_Phase_8,191,1,48,43,649294044
98,6,22,Ticks_Phase_8,192,5,42,127,649337364
98,6,22,Ticks_Phase_8,193,1,48,50,650090764
98,6,22,Ticks_Phase_8,194,5,42,127,650137024
98,6,22,Ticks_Phase_8,195,1,48,48,650882164
98,6,22,Ticks_Phase_8,196,5,42,127,650936664
98,6,22,Ticks_Phase_8,197,1,48,47,651714620
98,6,22,Ticks_Phase_8,198,5,42,127,651736524
98,6,22,Ticks_Phase_8,199,1,48,45,652494260
98,6,22,Ticks_Phase_8,200,5,42,127,652537280
98,6,22,Ticks_Phase_8,201,1,48,43,653306264
98,6,22,Ticks_Phase_8,202,5,42,127,653336844
98,6,22,Ticks_Phase_8,203,1,48,49,654078192
98,6,22,Ticks_Phase_8,204,5,42,127,654136708
98,6,22,Ticks_Phase_8,205,1,48,51,654893544
98,6,22,Ticks_Phase_8,206,5,42,127,654936492
98,6,22,Ticks_Phase_8,207,1,48,46,655687724
98,6,22,Ticks_Phase_8,208,5,42,127,655737324
98,6,22,Ticks_Phase_8,209,1,48,47,656527600
98,6,22,Ticks_Phase_8,210,5,42,127,656536840
98,6,22,Ticks_Phase_8,211,5,42,127,657336556
98,6,22,Ticks_Phase_8,212,1,48,46,657379368
98,6,22,Ticks_Phase_8,213,1,48,39,658098860
98,6,22,Ticks_Phase_8,214,5,42,127,658136560
98,6,22,Ticks_Phase_8,215,1,48,42,658913320
98,6,22,Ticks_Phase_8,216,5,42,127,658937316
98,6,22,Ticks_Phase_8,217,1,48,38,659683524
98,6,22,Ticks_Phase_8,218,5,42,127,659736880
98,6,22,Ticks_Phase_8,219,1,48,40,660496800
98,6,22,Ticks_Phase_8,220,5,42,127,660536664
98,6,22,Ticks_Phase_8,221,1,48,44,661279432
98,6,22,Ticks_Phase_8,222,5,42,127,661336380
98,6,22,Ticks_Phase_8,223,1,48,47,662093440
98,6,22,Ticks_Phase_8,224,5,42,127,662217276
98,6,22,Ticks_Phase_8,225,1,48,44,663016636
98,6,22,Ticks_Phase_8,226,5,42,127,663018048
98,6,22,Ticks_Phase_8,227,5,42,127,663816500
98,6,22,Ticks_Phase_8,228,1,48,42,663861552
98,6,22,Ticks_Phase_8,229,5,42,127,664617256
98,6,22,Ticks_Phase_8,230,1,48,39,664628468
98,6,22,Ticks_Phase_8,231,5,42,127,665417268
98,6,22,Ticks_Phase_8,232,1,48,36,665420912
98,6,22,Ticks_Phase_8,233,1,48,44,666207208
98,6,22,Ticks_Phase_8,234,5,42,127,666217196
98,6,22,Ticks_Phase_8,235,1,48,41,667003168
98,6,22,Ticks_Phase_8,236,5,42,127,667016460
98,6,22,Ticks_Phase_8,237,1,48,44,667794516
98,6,22,Ticks_Phase_8,238,5,42,127,667817468
98,6,22,Ticks_Phase_8,239,1,48,43,668611904
98,6,22,Ticks_Phase_8,240,5,42,127,668617252
98,6,22,Ticks_Phase_8,241,5,42,127,669416748
98,6,22,Ticks_Phase_8,242,1,48,40,669427136
98,6,22,Ticks_Phase_8,243,5,42,127,670216460
98,6,22,Ticks_Phase_8,244,1,48,41,670225872
98,6,22,Ticks_Phase_8,245,1,48,40,671010588
98,6,22,Ticks_Phase_8,246,5,42,127,671017436
98,6,22,Ticks_Phase_8,247,1,48,41,671777280
98,6,22,Ticks_Phase_8,248,5,42,127,671817148
98,6,22,Ticks_Phase_8,249,1,48,37,672599232
98,6,22,Ticks_Phase_8,250,5,42,127,672616784
98,6,22,Ticks_Phase_8,251,1,48,39,673402308
98,6,22,Ticks_Phase_8,252,5,42,127,673416572
98,6,22,Ticks_Phase_8,253,5,42,127,674217436
98,6,22,Ticks_Phase_8,254,1,48,39,674221452
98,6,22,Ticks_Phase_8,255,5,42,127,675017148
98,6,22,Ticks_Phase_8,256,1,48,38,675035252
98,6,22,Ticks_Phase_8,257,1,48,29,675846260
98,6,22,Ticks_Phase_8,258,5,42,127,675976424
98,6,22,Ticks_Phase_8,259,5,42,127,676777452
98,6,22,Ticks_Phase_8,260,1,48,36,676792176
98,6,22,Ticks_Phase_8,261,5,42,127,677577016
98,6,22,Ticks_Phase_8,262,1,48,42,677579608
98,6,22,Ticks_Phase_8,263,1,48,37,678337828
98,6,22,Ticks_Phase_8,264,5,42,127,678377244
98,6,22,Ticks_Phase_8,265,1,48,39,679174768
98,6,22,Ticks_Phase_8,266,5,42,127,679176508
98,6,22,Ticks_Phase_8,267,1,48,43,679963000
98,6,22,Ticks_Phase_8,268,5,42,127,679977412
98,6,22,Ticks_Phase_8,269,1,48,43,680745276
98,6,22,Ticks_Phase_8,270,5,42,127,680777200
98,6,22,Ticks_Phase_8,271,5,42,127,681576920
98,6,22,Ticks_Phase_8,272,1,48,41,681618932
98,6,22,Ticks_Phase_8,273,1,48,33,682368804
98,6,22,Ticks_Phase_8,274,5,42,127,682376624
98,6,22,Ticks_Phase_8,275,1,48,38,683121332
98,6,22,Ticks_Phase_8,276,5,42,127,683177408
98,6,22,Ticks_Phase_8,277,5,42,127,683977128
98,6,22,Ticks_Phase_8,278,1,48,33,683980396
98,6,22,Ticks_Phase_8,279,5,42,127,684776916
98,6,22,Ticks_Phase_8,280,1,48,33,684798680
98,6,22,Ticks_Phase_8,281,1,48,27,685567084
98,6,22,Ticks_Phase_8,282,5,42,127,685576844
98,6,22,Ticks_Phase_8,283,1,48,40,686367392
98,6,22,Ticks_Phase_8,284,5,42,127,686377380
98,6,22,Ticks_Phase_8,285,1,48,41,687169344
98,6,22,Ticks_Phase_8,286,5,42,127,687177088
98,6,22,Ticks_Phase_8,287,1,48,42,687967036
98,6,22,Ticks_Phase_8,288,5,42,127,687977024
98,6,22,Ticks_Phase_8,289,5,42,127,688776744
98,6,22,Ticks_Phase_8,290,1,48,47,688780312
98,6,22,Ticks_Phase_8,291,5,42,127,689577204
98,6,22,Ticks_Phase_8,292,1,48,47,689578168
98,6,22,Ticks_Phase_8,293,1,48,46,690357784
98,6,22,Ticks_Phase_8,294,5,42,127,690376984
98,6,22,Ticks_Phase_8,295,5,42,127,691017168
98,6,22,Ticks_Phase_8,296,1,48,41,691156760
98,6,22,Ticks_Phase_8,297,5,42,127,691816956
98,6,22,Ticks_Phase_8,298,1,48,41,692073136
98,6,22,Ticks_Phase_8,299,5,42,127,692616668
98,6,22,Ticks_Phase_8,300,1,48,46,692633556
98,6,22,Ticks_Phase_8,301,1,48,43,693382388
98,6,22,Ticks_Phase_8,302,5,42,127,693417344
98,6,22,Ticks_Phase_8,303,1,48,47,694185872
98,6,22,Ticks_Phase_8,304,5,42,127,694217132
98,6,22,Ticks_Phase_8,305,1,48,47,694958624
98,6,22,Ticks_Phase_8,306,5,42,127,695016916
98,6,22,Ticks_Phase_8,307,1,48,50,695812920
98,6,22,Ticks_Phase_8,308,5,42,127,695816628
98,6,22,Ticks_Phase_8,309,1,48,41,696613232
98,6,22,Ticks_Phase_8,310,5,42,127,696617312
98,6,22,Ticks_Phase_8,311,1,48,45,697398352
98,6,22,Ticks_Phase_8,312,5,42,127,697417024
98,6,22,Ticks_Phase_8,313,1,48,46,698200824
98,6,22,Ticks_Phase_8,314,5,42,127,698216808
98,6,22,Ticks_Phase_8,315,1,48,47,698990728
98,6,22,Ticks_Phase_8,316,5,42,127,699016820
98,6,22,Ticks_Phase_8,317,1,48,46,699796832
98,6,22,Ticks_Phase_8,318,5,42,127,699817372
98,6,22,Ticks_Phase_8,319,5,42,127,700617016
98,6,22,Ticks_Phase_8,320,1,48,46,700644704
98,6,22,Ticks_Phase_8,321,1,48,34,701407264
98,6,22,Ticks_Phase_8,322,5,42,127,701416796
98,6,22,Ticks_Phase_8,323,1,48,40,702208168
98,6,22,Ticks_Phase_8,324,5,42,127,702216808
98,6,22,Ticks_Phase_8,325,1,48,50,702993716
98,6,22,Ticks_Phase_8,326,5,42,127,703017192
98,6,22,Ticks_Phase_8,327,1,48,50,703790436
98,6,22,Ticks_Phase_8,328,5,42,127,703817052
98,6,22,Ticks_Phase_8,329,5,42,127,704616696
98,6,22,Ticks_Phase_8,330,1,48,44,704618108
98,6,22,Ticks_Phase_8,331,5,42,127,705416780
98,6,22,Ticks_Phase_8,332,1,48,53,705419628
98,6,22,Ticks_Phase_8,333,1,48,53,706216436
98,6,22,Ticks_Phase_8,334,5,42,127,706217928
98,6,22,Ticks_Phase_8,0,9999,9999,9999,571014200
98,6,22,Ticks_Phase_8,1,9999,9999,9999,571815008
98,6,22,Ticks_Phase_8,2,9999,9999,9999,572614740
98,6,22,Ticks_Phase_8,3,9999,9999,9999,573414476
98,6,22,Ticks_Phase_8,4,9999,9999,9999,574214212
98,6,22,Ticks_Phase_8,5,9999,9999,9999,575014988
98,6,22,Ticks_Phase_8,6,9999,9999,9999,575814768
98,6,22,Ticks_Phase_8,7,9999,9999,9999,576614480
98,6,22,Ticks_Phase_8,8,9999,9999,9999,577414268
98,6,22,Ticks_Phase_8,9,9999,9999,9999,578215024
98,6,22,Ticks_Phase_8,10,9999,9999,9999,579014736
98,6,22,Ticks_Phase_8,11,9999,9999,9999,579814456
98,6,22,Ticks_Phase_8,12,9999,9999,9999,580614236
98,6,22,Ticks_Phase_8,13,9999,9999,9999,581414996
98,6,22,Ticks_Phase_8,14,9999,9999,9999,582214784
98,6,22,Ticks_Phase_8,15,9999,9999,9999,583014492
98,6,22,Ticks_Phase_8,16,9999,9999,9999,583814204
98,6,22,Ticks_Phase_8,17,9999,9999,9999,584614988
98,6,22,Ticks_Phase_8,18,9999,9999,9999,585414772
98,6,22,Ticks_Phase_8,19,9999,9999,9999,586214484
98,6,22,Ticks_Phase_8,20,9999,9999,9999,587014272
98,6,22,Ticks_Phase_8,21,9999,9999,9999,587815036
98,6,22,Ticks_Phase_8,22,9999,9999,9999,588614748
98,6,22,Ticks_Phase_8,23,9999,9999,9999,589414452
98,6,22,Ticks_Phase_8,24,9999,9999,9999,590214240
98,6,22,Ticks_Phase_8,25,9999,9999,9999,591015024
98,6,22,Ticks_Phase_8,26,9999,9999,9999,591814736
98,6,22,Ticks_Phase_8,27,9999,9999,9999,592614456
98,6,22,Ticks_Phase_8,28,9999,9999,9999,593414236
98,6,22,Ticks_Phase_8,29,9999,9999,9999,594215000
98,6,22,Ticks_Phase_8,30,9999,9999,9999,594994264
98,6,22,Ticks_Phase_8,31,9999,9999,9999,595795024
98,6,22,Ticks_Phase_8,32,9999,9999,9999,596594808
98,6,22,Ticks_Phase_8,33,9999,9999,9999,597394552
98,6,22,Ticks_Phase_8,34,9999,9999,9999,598194260
98,6,22,Ticks_Phase_8,35,9999,9999,9999,598995020
98,6,22,Ticks_Phase_8,36,9999,9999,9999,599794804
98,6,22,Ticks_Phase_8,37,9999,9999,9999,600594516
98,6,22,Ticks_Phase_8,38,9999,9999,9999,601394304
98,6,22,Ticks_Phase_8,39,9999,9999,9999,602195064
98,6,22,Ticks_Phase_8,40,9999,9999,9999,602994776
98,6,22,Ticks_Phase_8,41,9999,9999,9999,603794516
98,6,22,Ticks_Phase_8,42,9999,9999,9999,604594232
98,6,22,Ticks_Phase_8,43,9999,9999,9999,605395064
98,6,22,Ticks_Phase_8,44,9999,9999,9999,606194776
98,6,22,Ticks_Phase_8,45,9999,9999,9999,606994556
98,6,22,Ticks_Phase_8,46,9999,9999,9999,607794272
98,6,22,Ticks_Phase_8,47,9999,9999,9999,608595032
98,6,22,Ticks_Phase_8,48,9999,9999,9999,609414208
98,6,22,Ticks_Phase_8,49,9999,9999,9999,610214992
98,6,22,Ticks_Phase_8,50,9999,9999,9999,611014776
98,6,22,Ticks_Phase_8,51,9999,9999,9999,611814492
98,6,22,Ticks_Phase_8,52,9999,9999,9999,612614200
98,6,22,Ticks_Phase_8,53,9999,9999,9999,613415036
98,6,22,Ticks_Phase_8,54,9999,9999,9999,614214756
98,6,22,Ticks_Phase_8,55,9999,9999,9999,615014460
98,6,22,Ticks_Phase_8,56,9999,9999,9999,615814248
98,6,22,Ticks_Phase_8,57,9999,9999,9999,616615028
98,6,22,Ticks_Phase_8,58,9999,9999,9999,617414740
98,6,22,Ticks_Phase_8,59,9999,9999,9999,618214456
98,6,22,Ticks_Phase_8,60,9999,9999,9999,619014248
98,6,22,Ticks_Phase_8,61,9999,9999,9999,619815000
98,6,22,Ticks_Phase_8,62,9999,9999,9999,620614712
98,6,22,Ticks_Phase_8,63,9999,9999,9999,621414496
98,6,22,Ticks_Phase_8,64,9999,9999,9999,622254148
98,6,22,Ticks_Phase_8,65,9999,9999,9999,623054908
98,6,22,Ticks_Phase_8,66,9999,9999,9999,623854696
98,6,22,Ticks_Phase_8,67,9999,9999,9999,624654408
98,6,22,Ticks_Phase_8,68,9999,9999,9999,625454192
98,6,22,Ticks_Phase_8,69,9999,9999,9999,626254952
98,6,22,Ticks_Phase_8,70,9999,9999,9999,627054664
98,6,22,Ticks_Phase_8,71,9999,9999,9999,627854404
98,6,22,Ticks_Phase_8,72,9999,9999,9999,628654196
98,6,22,Ticks_Phase_8,73,9999,9999,9999,629454948
98,6,22,Ticks_Phase_8,74,9999,9999,9999,630254668
98,6,22,Ticks_Phase_8,75,9999,9999,9999,631054448
98,6,22,Ticks_Phase_8,76,9999,9999,9999,631854160
98,6,22,Ticks_Phase_8,77,9999,9999,9999,632654916
98,6,22,Ticks_Phase_8,78,9999,9999,9999,633454704
98,6,22,Ticks_Phase_8,79,9999,9999,9999,634254440
98,6,22,Ticks_Phase_8,80,9999,9999,9999,635054152
98,6,22,Ticks_Phase_8,81,9999,9999,9999,635815004
98,6,22,Ticks_Phase_8,82,9999,9999,9999,636614716
98,6,22,Ticks_Phase_8,83,9999,9999,9999,637414496
98,6,22,Ticks_Phase_8,84,9999,9999,9999,638214212
98,6,22,Ticks_Phase_8,85,9999,9999,9999,639014972
98,6,22,Ticks_Phase_8,86,9999,9999,9999,639814760
98,6,22,Ticks_Phase_8,87,9999,9999,9999,640614464
98,6,22,Ticks_Phase_8,88,9999,9999,9999,641414252
98,6,22,Ticks_Phase_8,89,9999,9999,9999,642215036
98,6,22,Ticks_Phase_8,90,9999,9999,9999,643014752
98,6,22,Ticks_Phase_8,91,9999,9999,9999,643814456
98,6,22,Ticks_Phase_8,92,9999,9999,9999,644614244
98,6,22,Ticks_Phase_8,93,9999,9999,9999,645415000
98,6,22,Ticks_Phase_8,94,9999,9999,9999,646214712
98,6,22,Ticks_Phase_8,95,9999,9999,9999,647014500
98,6,22,Ticks_Phase_8,96,9999,9999,9999,647814212
98,6,22,Ticks_Phase_8,97,9999,9999,9999,648534100
98,6,22,Ticks_Phase_8,98,9999,9999,9999,649334852
98,6,22,Ticks_Phase_8,99,9999,9999,9999,650134588
98,6,22,Ticks_Phase_8,100,9999,9999,9999,650934372
98,6,22,Ticks_Phase_8,101,9999,9999,9999,651734084
98,6,22,Ticks_Phase_8,102,9999,9999,9999,652534844
98,6,22,Ticks_Phase_8,103,9999,9999,9999,653334632
98,6,22,Ticks_Phase_8,104,9999,9999,9999,654134340
98,6,22,Ticks_Phase_8,105,9999,9999,9999,654934132
98,6,22,Ticks_Phase_8,106,9999,9999,9999,655734888
98,6,22,Ticks_Phase_8,107,9999,9999,9999,656534624
98,6,22,Ticks_Phase_8,108,9999,9999,9999,657334344
98,6,22,Ticks_Phase_8,109,9999,9999,9999,658134120
98,6,22,Ticks_Phase_8,110,9999,9999,9999,658934880
98,6,22,Ticks_Phase_8,111,9999,9999,9999,659734592
98,6,22,Ticks_Phase_8,112,9999,9999,9999,660534376
98,6,22,Ticks_Phase_8,113,9999,9999,9999,661334088
98,6,22,Ticks_Phase_8,114,9999,9999,9999,662214764
98,6,22,Ticks_Phase_8,115,9999,9999,9999,663014496
98,6,22,Ticks_Phase_8,116,9999,9999,9999,663814208
98,6,22,Ticks_Phase_8,117,9999,9999,9999,664614968
98,6,22,Ticks_Phase_8,118,9999,9999,9999,665414756
98,6,22,Ticks_Phase_8,119,9999,9999,9999,666214460
98,6,22,Ticks_Phase_8,120,9999,9999,9999,667014248
98,6,22,Ticks_Phase_8,121,9999,9999,9999,667815028
98,6,22,Ticks_Phase_8,122,9999,9999,9999,668614740
98,6,22,Ticks_Phase_8,123,9999,9999,9999,669414460
98,6,22,Ticks_Phase_8,124,9999,9999,9999,670214248
98,6,22,Ticks_Phase_8,125,9999,9999,9999,671014996
98,6,22,Ticks_Phase_8,126,9999,9999,9999,671814708
98,6,22,Ticks_Phase_8,127,9999,9999,9999,672614496
98,6,22,Ticks_Phase_8,128,9999,9999,9999,673414208
98,6,22,Ticks_Phase_8,129,9999,9999,9999,674215000
98,6,22,Ticks_Phase_8,130,9999,9999,9999,675014784
98,6,22,Ticks_Phase_8,131,9999,9999,9999,675974208
98,6,22,Ticks_Phase_8,132,9999,9999,9999,676775016
98,6,22,Ticks_Phase_8,133,9999,9999,9999,677574728
98,6,22,Ticks_Phase_8,134,9999,9999,9999,678374508
98,6,22,Ticks_Phase_8,135,9999,9999,9999,679174244
98,6,22,Ticks_Phase_8,136,9999,9999,9999,679974976
98,6,22,Ticks_Phase_8,137,9999,9999,9999,680774764
98,6,22,Ticks_Phase_8,138,9999,9999,9999,681574480
98,6,22,Ticks_Phase_8,139,9999,9999,9999,682374264
98,6,22,Ticks_Phase_8,140,9999,9999,9999,683174972
98,6,22,Ticks_Phase_8,141,9999,9999,9999,683974764
98,6,22,Ticks_Phase_8,142,9999,9999,9999,684774476
98,6,22,Ticks_Phase_8,143,9999,9999,9999,685574256
98,6,22,Ticks_Phase_8,144,9999,9999,9999,686375016
98,6,22,Ticks_Phase_8,145,9999,9999,9999,687174728
98,6,22,Ticks_Phase_8,146,9999,9999,9999,687974512
98,6,22,Ticks_Phase_8,147,9999,9999,9999,688774232
98,6,22,Ticks_Phase_8,148,9999,9999,9999,689574988
98,6,22,Ticks_Phase_8,149,9999,9999,9999,690374768
98,6,22,Ticks_Phase_8,150,9999,9999,9999,691014728
98,6,22,Ticks_Phase_8,151,9999,9999,9999,691814516
98,6,22,Ticks_Phase_8,152,9999,9999,9999,692614228
98,6,22,Ticks_Phase_8,153,9999,9999,9999,693414980
98,6,22,Ticks_Phase_8,154,9999,9999,9999,694214768
98,6,22,Ticks_Phase_8,155,9999,9999,9999,695014476
98,6,22,Ticks_Phase_8,156,9999,9999,9999,695814264
98,6,22,Ticks_Phase_8,157,9999,9999,9999,696615020
98,6,22,Ticks_Phase_8,158,9999,9999,9999,697414736
98,6,22,Ticks_Phase_8,159,9999,9999,9999,698214520
98,6,22,Ticks_Phase_8,160,9999,9999,9999,699014232
98,6,22,Ticks_Phase_8,161,9999,9999,9999,699815012
98,6,22,Ticks_Phase_8,162,9999,9999,9999,700614728
98,6,22,Ticks_Phase_8,163,9999,9999,9999,701414508
98,6,22,Ticks_Phase_8,164,9999,9999,9999,702214220
98,6,22,Ticks_Phase_8,165,9999,9999,9999,703014976
98,6,22,Ticks_Phase_8,166,9999,9999,9999,703814764
98,6,22,Ticks_Phase_8,167,9999,9999,9999,704614484
98,6,22,Ticks_Phase_8,168,9999,9999,9999,705414268
98,6,22,Ticks_Phase_8,169,9999,9999,9999,706214976
98,7,21,Ticks_Linear_5,0,5,42,127,718452040
98,7,21,Ticks_Linear_5,1,5,42,127,718932440
98,7,21,Ticks_Linear_5,2,5,42,127,719411496
98,7,21,Ticks_Linear_5,3,5,42,127,719891820
98,7,21,Ticks_Linear_5,4,1,48,50,720363332
98,7,21,Ticks_Linear_5,5,5,42,127,720372064
98,7,21,Ticks_Linear_5,6,5,42,127,720861508
98,7,21,Ticks_Linear_5,7,1,48,53,720871896
98,7,21,Ticks_Linear_5,8,5,42,127,721351996
98,7,21,Ticks_Linear_5,9,1,48,40,721364700
98,7,21,Ticks_Linear_5,10,5,42,127,721841436
98,7,21,Ticks_Linear_5,11,1,48,45,721856232
98,7,21,Ticks_Linear_5,12,1,48,43,722310440
98,7,21,Ticks_Linear_5,13,5,42,127,722332064
98,7,21,Ticks_Linear_5,14,5,42,127,722821488
98,7,21,Ticks_Linear_5,15,1,48,50,722838184
98,7,21,Ticks_Linear_5,16,5,42,127,723322384
98,7,21,Ticks_Linear_5,17,1,48,46,723349804
98,7,21,Ticks_Linear_5,18,1,48,48,723803764
98,7,21,Ticks_Linear_5,19,5,42,127,723821856
98,7,21,Ticks_Linear_5,20,1,48,46,724313796
98,7,21,Ticks_Linear_5,21,5,42,127,724321776
98,7,21,Ticks_Linear_5,22,1,48,47,724817760
98,7,21,Ticks_Linear_5,23,5,42,127,724822376
98,7,21,Ticks_Linear_5,24,1,48,45,725320112
98,7,21,Ticks_Linear_5,25,5,42,127,725322152
98,7,21,Ticks_Linear_5,26,1,48,48,725825400
98,7,21,Ticks_Linear_5,27,5,42,127,725832260
98,7,21,Ticks_Linear_5,28,1,48,50,726337760
98,7,21,Ticks_Linear_5,29,5,42,127,726342292
98,7,21,Ticks_Linear_5,30,5,42,127,726852260
98,7,21,Ticks_Linear_5,31,1,48,50,726861672
98,7,21,Ticks_Linear_5,32,1,48,46,727352812
98,7,21,Ticks_Linear_5,33,5,42,127,727361984
98,7,21,Ticks_Linear_5,34,1,48,52,727869424
98,7,21,Ticks_Linear_5,35,5,42,127,727871796
98,7,21,Ticks_Linear_5,36,1,48,43,728386804
98,7,21,Ticks_Linear_5,37,5,42,127,728392164
98,7,21,Ticks_Linear_5,38,5,42,127,728912388
98,7,21,Ticks_Linear_5,39,1,48,38,728923300
98,7,21,Ticks_Linear_5,40,1,48,40,729430488
98,7,21,Ticks_Linear_5,41,5,42,127,729432300
98,7,21,Ticks_Linear_5,42,1,48,49,729938172
98,7,21,Ticks_Linear_5,43,5,42,127,729961804
98,7,21,Ticks_Linear_5,44,1,48,54,730468196
98,7,21,Ticks_Linear_5,45,5,42,127,730482320
98,7,21,Ticks_Linear_5,46,1,48,55,730986020
98,7,21,Ticks_Linear_5,47,5,42,127,731011380
98,7,21,Ticks_Linear_5,48,1,48,49,731521820
98,7,21,Ticks_Linear_5,49,5,42,127,731541880
98,7,21,Ticks_Linear_5,50,1,48,51,732048796
98,7,21,Ticks_Linear_5,51,5,42,127,732072280
98,7,21,Ticks_Linear_5,52,1,48,45,732587812
98,7,21,Ticks_Linear_5,53,5,42,127,732601712
98,7,21,Ticks_Linear_5,54,1,48,44,733106460
98,7,21,Ticks_Linear_5,55,5,42,127,733132340
98,7,21,Ticks_Linear_5,56,1,48,37,733671660
98,7,21,Ticks_Linear_5,57,5,42,127,733673148
98,7,21,Ticks_Linear_5,58,1,48,49,734156700
98,7,21,Ticks_Linear_5,59,5,42,127,734211420
98,7,21,Ticks_Linear_5,60,1,48,50,734718412
98,7,21,Ticks_Linear_5,61,5,42,127,734752156
98,7,21,Ticks_Linear_5,62,5,42,127,735291628
98,7,21,Ticks_Linear_5,63,1,48,52,735314440
98,7,21,Ticks_Linear_5,64,5,42,127,735832440
98,7,21,Ticks_Linear_5,65,1,48,50,735854732
98,7,21,Ticks_Linear_5,66,1,48,51,736360176
98,7,21,Ticks_Linear_5,67,5,42,127,736391668
98,7,21,Ticks_Linear_5,68,1,48,48,736923704
98,7,21,Ticks_Linear_5,69,5,42,127,736941416
98,7,21,Ticks_Linear_5,70,1,48,49,737466384
98,7,21,Ticks_Linear_5,71,5,42,127,737492336
98,7,21,Ticks_Linear_5,72,1,48,47,738034084
98,7,21,Ticks_Linear_5,73,5,42,127,738042284
98,7,21,Ticks_Linear_5,74,5,42,127,738592164
98,7,21,Ticks_Linear_5,75,1,48,47,738626668
98,7,21,Ticks_Linear_5,76,5,42,127,739152448
98,7,21,Ticks_Linear_5,77,1,48,47,739185900
98,7,21,Ticks_Linear_5,78,5,42,127,739712360
98,7,21,Ticks_Linear_5,79,1,48,48,739715852
98,7,21,Ticks_Linear_5,80,5,42,127,740271400
98,7,21,Ticks_Linear_5,81,1,48,47,740280888
98,7,21,Ticks_Linear_5,82,5,42,127,740831604
98,7,21,Ticks_Linear_5,83,1,48,48,740850156
98,7,21,Ticks_Linear_5,84,5,42,127,741391888
98,7,21,Ticks_Linear_5,85,1,48,49,741396504
98,7,21,Ticks_Linear_5,86,1,48,47,741961604
98,7,21,Ticks_Linear_5,87,5,42,127,741963096
98,7,21,Ticks_Linear_5,88,5,42,127,742531328
98,7,21,Ticks_Linear_5,89,1,48,43,742533340
98,7,21,Ticks_Linear_5,90,1,48,42,743098696
98,7,21,Ticks_Linear_5,91,5,42,127,743101964
98,7,21,Ticks_Linear_5,92,1,48,46,743651504
98,7,21,Ticks_Linear_5,93,5,42,127,743672204
98,7,21,Ticks_Linear_5,94,1,48,39,744232748
98,7,21,Ticks_Linear_5,95,5,42,127,744241552
98,7,21,Ticks_Linear_5,96,1,48,44,744785240
98,7,21,Ticks_Linear_5,97,5,42,127,744822056
98,7,21,Ticks_Linear_5,98,1,48,45,745364120
98,7,21,Ticks_Linear_5,99,5,42,127,745401832
98,7,21,Ticks_Linear_5,100,1,48,46,745967312
98,7,21,Ticks_Linear_5,101,5,42,127,745982260
98,7,21,Ticks_Linear_5,102,5,42,127,746562168
98,7,21,Ticks_Linear_5,103,1,48,42,746568808
98,7,21,Ticks_Linear_5,104,5,42,127,747141552
98,7,21,Ticks_Linear_5,105,1,48,52,747168956
98,7,21,Ticks_Linear_5,106,5,42,127,747732340
98,7,21,Ticks_Linear_5,107,1,48,47,747733380
98,7,21,Ticks_Linear_5,108,5,42,127,748322128
98,7,21,Ticks_Linear_5,109,1,48,48,748326368
98,7,21,Ticks_Linear_5,110,1,48,40,748899056
98,7,21,Ticks_Linear_5,111,5,42,127,748911912
98,7,21,Ticks_Linear_5,112,1,48,40,749499684
98,7,21,Ticks_Linear_5,113,5,42,127,749501948
98,7,21,Ticks_Linear_5,114,5,42,127,750091520
98,7,21,Ticks_Linear_5,115,1,48,42,750096660
98,7,21,Ticks_Linear_5,116,1,48,47,750691040
98,7,21,Ticks_Linear_5,117,5,42,127,750692608
98,7,21,Ticks_Linear_5,118,1,48,46,751275044
98,7,21,Ticks_Linear_5,119,5,42,127,751291856
98,7,21,Ticks_Linear_5,120,1,48,41,751859432
98,7,21,Ticks_Linear_5,121,5,42,127,751892128
98,7,21,Ticks_Linear_5,122,5,42,127,752491888
98,7,21,Ticks_Linear_5,123,1,48,35,752504664
98,7,21,Ticks_Linear_5,124,5,42,127,753091960
98,7,21,Ticks_Linear_5,125,1,48,40,753106164
98,7,21,Ticks_Linear_5,126,5,42,127,753702196
98,7,21,Ticks_Linear_5,127,1,48,43,753739308
98,7,21,Ticks_Linear_5,128,1,48,48,754301376
98,7,21,Ticks_Linear_5,129,5,42,127,754311840
98,7,21,Ticks_Linear_5,130,1,48,49,754887884
98,7,21,Ticks_Linear_5,131,5,42,127,754921848
98,7,21,Ticks_Linear_5,132,1,48,53,755508376
98,7,21,Ticks_Linear_5,133,5,42,127,755532084
98,7,21,Ticks_Linear_5,134,1,48,52,756102732
98,7,21,Ticks_Linear_5,135,5,42,127,756141292
98,7,21,Ticks_Linear_5,136,1,48,46,756727368
98,7,21,Ticks_Linear_5,137,5,42,127,756762084
98,7,21,Ticks_Linear_5,138,1,48,42,757368748
98,7,21,Ticks_Linear_5,139,5,42,127,757381604
98,7,21,Ticks_Linear_5,140,1,48,49,758001652
98,7,21,Ticks_Linear_5,141,5,42,127,758003068
98,7,21,Ticks_Linear_5,142,1,48,41,758606368
98,7,21,Ticks_Linear_5,143,5,42,127,758621468
98,7,21,Ticks_Linear_5,144,1,48,48,759235200
98,7,21,Ticks_Linear_5,145,5,42,127,759242060
98,7,21,Ticks_Linear_5,146,1,48,42,759843784
98,7,21,Ticks_Linear_5,147,5,42,127,759871988
98,7,21,Ticks_Linear_5,148,1,48,36,760464980
98,7,21,Ticks_Linear_5,149,5,42,127,760501716
98,7,21,Ticks_Linear_5,150,1,48,41,761126656
98,7,21,Ticks_Linear_5,151,5,42,127,761132396
98,7,21,Ticks_Linear_5,152,1,48,46,761728056
98,7,21,Ticks_Linear_5,153,5,42,127,761762124
98,7,21,Ticks_Linear_5,154,1,48,45,762391532
98,7,21,Ticks_Linear_5,155,5,42,127,762393100
98,7,21,Ticks_Linear_5,156,1,48,41,762997076
98,7,21,Ticks_Linear_5,157,5,42,127,763031964
98,7,21,Ticks_Linear_5,158,1,48,38,763633920
98,7,21,Ticks_Linear_5,159,5,42,127,763672076
98,7,21,Ticks_Linear_5,160,1,48,42,764263996
98,7,21,Ticks_Linear_5,161,5,42,127,764311992
98,7,21,Ticks_Linear_5,162,1,48,47,764917532
98,7,21,Ticks_Linear_5,163,5,42,127,764951952
98,7,21,Ticks_Linear_5,164,1,48,51,765550620
98,7,21,Ticks_Linear_5,165,5,42,127,765591868
98,7,21,Ticks_Linear_5,166,1,48,46,766202364
98,7,21,Ticks_Linear_5,167,5,42,127,766242092
98,7,21,Ticks_Linear_5,168,1,48,49,766849060
98,7,21,Ticks_Linear_5,169,5,42,127,766892264
98,7,21,Ticks_Linear_5,170,1,48,50,767495340
98,7,21,Ticks_Linear_5,171,5,42,127,767541812
98,7,21,Ticks_Linear_5,172,1,48,46,768135100
98,7,21,Ticks_Linear_5,173,5,42,127,768191836
98,7,21,Ticks_Linear_5,174,1,48,46,768787872
98,7,21,Ticks_Linear_5,175,5,42,127,768842132
98,7,21,Ticks_Linear_5,176,1,48,44,769427260
98,7,21,Ticks_Linear_5,177,5,42,127,769501592
98,7,21,Ticks_Linear_5,178,1,48,54,770144732
98,7,21,Ticks_Linear_5,179,5,42,127,770162000
98,7,21,Ticks_Linear_5,180,1,48,54,770784576
98,7,21,Ticks_Linear_5,181,5,42,127,770821612
98,7,21,Ticks_Linear_5,182,1,48,53,771420500
98,7,21,Ticks_Linear_5,183,5,42,127,771481968
98,7,21,Ticks_Linear_5,184,1,48,40,772113052
98,7,21,Ticks_Linear_5,185,5,42,127,772141552
98,7,21,Ticks_Linear_5,186,1,48,45,772743756
98,7,21,Ticks_Linear_5,187,5,42,127,772812168
98,7,21,Ticks_Linear_5,188,1,48,49,773392036
98,7,21,Ticks_Linear_5,189,5,42,127,773481792
98,7,21,Ticks_Linear_5,190,1,48,52,774130056
98,7,21,Ticks_Linear_5,191,5,42,127,774151656
98,7,21,Ticks_Linear_5,192,1,48,52,774778692
98,7,21,Ticks_Linear_5,193,5,42,127,774822348
98,7,21,Ticks_Linear_5,194,5,42,127,775491900
98,7,21,Ticks_Linear_5,195,1,48,46,775508572
98,7,21,Ticks_Linear_5,196,1,48,52,776167932
98,7,21,Ticks_Linear_5,197,5,42,127,776171872
98,7,21,Ticks_Linear_5,198,1,48,49,776828788
98,7,21,Ticks_Linear_5,199,5,42,127,776851776
98,7,21,Ticks_Linear_5,200,1,48,47,777465188
98,7,21,Ticks_Linear_5,201,5,42,127,777531728
98,7,21,Ticks_Linear_5,202,1,48,39,778160820
98,7,21,Ticks_Linear_5,203,5,42,127,778211708
98,7,21,Ticks_Linear_5,204,1,48,52,778876340
98,7,21,Ticks_Linear_5,205,5,42,127,778891612
98,7,21,Ticks_Linear_5,206,1,48,47,779563588
98,7,21,Ticks_Linear_5,207,5,42,127,779581676
98,7,21,Ticks_Linear_5,208,1,48,55,780243788
98,7,21,Ticks_Linear_5,209,5,42,127,780271988
98,7,21,Ticks_Linear_5,210,1,48,46,780947728
98,7,21,Ticks_Linear_5,211,5,42,127,780962076
98,7,21,Ticks_Linear_5,212,1,48,50,781632252
98,7,21,Ticks_Linear_5,213,5,42,127,781652436
98,7,21,Ticks_Linear_5,214,1,48,38,782327800
98,7,21,Ticks_Linear_5,215,5,42,127,782341480
98,7,21,Ticks_Linear_5,216,1,48,47,783023364
98,7,21,Ticks_Linear_5,217,5,42,127,783041900
98,7,21,Ticks_Linear_5,218,1,48,38,783713948
98,7,21,Ticks_Linear_5,219,5,42,127,783742448
98,7,21,Ticks_Linear_5,220,1,48,50,784396548
98,7,21,Ticks_Linear_5,221,5,42,127,784441672
98,7,21,Ticks_Linear_5,222,5,42,127,785142176
98,7,21,Ticks_Linear_5,223,1,48,48,785157944
98,7,21,Ticks_Linear_5,224,1,48,49,785831916
98,7,21,Ticks_Linear_5,225,5,42,127,785841620
98,7,21,Ticks_Linear_5,226,1,48,38,786517556
98,7,21,Ticks_Linear_5,227,5,42,127,786552124
98,7,21,Ticks_Linear_5,228,1,48,51,787232288
98,7,21,Ticks_Linear_5,229,5,42,127,787261760
98,7,21,Ticks_Linear_5,230,1,48,33,787950840
98,7,21,Ticks_Linear_5,231,5,42,127,787971320
98,7,21,Ticks_Linear_5,232,1,48,52,788618524
98,7,21,Ticks_Linear_5,233,5,42,127,788682148
98,7,21,Ticks_Linear_5,234,1,48,56,789350612
98,7,21,Ticks_Linear_5,235,5,42,127,789391636
98,7,21,Ticks_Linear_5,236,1,48,55,790024292
98,7,21,Ticks_Linear_5,237,5,42,127,790111652
98,7,21,Ticks_Linear_5,238,1,48,53,790782380
98,7,21,Ticks_Linear_5,239,5,42,127,790831472
98,7,21,Ticks_Linear_5,240,1,48,55,791484448
98,7,21,Ticks_Linear_5,241,5,42,127,791552260
98,7,21,Ticks_Linear_5,242,1,48,45,792214300
98,7,21,Ticks_Linear_5,243,5,42,127,792272452
98,7,21,Ticks_Linear_5,244,1,48,49,792990924
98,7,21,Ticks_Linear_5,245,5,42,127,792992344
98,7,21,Ticks_Linear_5,246,1,48,54,793710756
98,7,21,Ticks_Linear_5,247,5,42,127,793722396
98,7,21,Ticks_Linear_5,248,1,48,51,794442252
98,7,21,Ticks_Linear_5,249,5,42,127,794452328
98,7,21,Ticks_Linear_5,250,1,48,45,795157272
98,7,21,Ticks_Linear_5,251,5,42,127,795181508
98,7,21,Ticks_Linear_5,252,1,48,37,795862344
98,7,21,Ticks_Linear_5,253,5,42,127,795911508
98,7,21,Ticks_Linear_5,254,1,48,46,796586500
98,7,21,Ticks_Linear_5,255,5,42,127,796641588
98,7,21,Ticks_Linear_5,256,1,48,48,797376716
98,7,21,Ticks_Linear_5,257,5,42,127,797382148
98,7,21,Ticks_Linear_5,258,1,48,44,798102080
98,7,21,Ticks_Linear_5,259,5,42,127,798122264
98,7,21,Ticks_Linear_5,260,1,48,46,798823368
98,7,21,Ticks_Linear_5,261,5,42,127,798861628
98,7,21,Ticks_Linear_5,262,1,48,44,799570080
98,7,21,Ticks_Linear_5,263,5,42,127,799602388
98,7,21,Ticks_Linear_5,264,1,48,52,800299188
98,7,21,Ticks_Linear_5,265,5,42,127,800342428
98,7,21,Ticks_Linear_5,266,1,48,49,801035168
98,7,21,Ticks_Linear_5,267,5,42,127,801092056
98,7,21,Ticks_Linear_5,268,1,48,46,801817368
98,7,21,Ticks_Linear_5,269,5,42,127,801841384
98,7,21,Ticks_Linear_5,270,1,48,35,802563924
98,7,21,Ticks_Linear_5,271,5,42,127,802592200
98,7,21,Ticks_Linear_5,272,1,48,49,803318864
98,7,21,Ticks_Linear_5,273,5,42,127,803341676
98,7,21,Ticks_Linear_5,274,1,48,45,804032996
98,7,21,Ticks_Linear_5,275,5,42,127,804092272
98,7,21,Ticks_Linear_5,276,1,48,52,804831076
98,7,21,Ticks_Linear_5,277,5,42,127,804852304
98,7,21,Ticks_Linear_5,278,1,48,46,805583764
98,7,21,Ticks_Linear_5,279,5,42,127,805611888
98,7,21,Ticks_Linear_5,280,1,48,48,806346040
98,7,21,Ticks_Linear_5,281,5,42,127,806371624
98,7,21,Ticks_Linear_5,282,1,48,26,806402140
98,7,21,Ticks_Linear_5,283,1,48,51,807097212
98,7,21,Ticks_Linear_5,284,5,42,127,807131484
98,7,21,Ticks_Linear_5,285,1,48,41,807886156
98,7,21,Ticks_Linear_5,286,5,42,127,807892412
98,7,21,Ticks_Linear_5,287,5,42,127,808662264
98,7,21,Ticks_Linear_5,288,1,48,48,808668000
98,7,21,Ticks_Linear_5,289,5,42,127,809432480
98,7,21,Ticks_Linear_5,290,1,48,48,809434124
98,7,21,Ticks_Linear_5,291,1,48,48,810196508
98,7,21,Ticks_Linear_5,292,5,42,127,810211832
98,7,21,Ticks_Linear_5,293,1,48,46,810959236
98,7,21,Ticks_Linear_5,294,5,42,127,810981824
98,7,21,Ticks_Linear_5,295,1,48,51,811714780
98,7,21,Ticks_Linear_5,296,5,42,127,811752040
98,7,21,Ticks_Linear_5,297,1,48,43,812501924
98,7,21,Ticks_Linear_5,298,5,42,127,812532068
98,7,21,Ticks_Linear_5,299,1,48,48,813222344
98,7,21,Ticks_Linear_5,300,5,42,127,813313504
98,7,21,Ticks_Linear_5,301,1,48,44,814013080
98,7,21,Ticks_Linear_5,302,5,42,127,814091528
98,7,21,Ticks_Linear_5,303,5,42,127,814872160
98,7,21,Ticks_Linear_5,304,1,48,43,814902468
98,7,21,Ticks_Linear_5,305,5,42,127,815652112
98,7,21,Ticks_Linear_5,306,1,48,44,815676500
98,7,21,Ticks_Linear_5,307,1,48,40,816433888
98,7,21,Ticks_Linear_5,308,5,42,127,816441944
98,7,21,Ticks_Linear_5,309,1,48,34,817224252
98,7,21,Ticks_Linear_5,310,5,42,127,817232232
98,7,21,Ticks_Linear_5,311,1,48,40,817977544
98,7,21,Ticks_Linear_5,312,5,42,127,818021844
98,7,21,Ticks_Linear_5,313,1,48,41,818778980
98,7,21,Ticks_Linear_5,314,5,42,127,818812280
98,7,21,Ticks_Linear_5,315,1,48,35,819582384
98,7,21,Ticks_Linear_5,316,5,42,127,819601916
98,7,21,Ticks_Linear_5,317,1,48,40,820324516
98,7,21,Ticks_Linear_5,318,5,42,127,820401416
98,7,21,Ticks_Linear_5,319,1,48,43,821127028
98,7,21,Ticks_Linear_5,320,5,42,127,821202260
98,7,21,Ticks_Linear_5,321,1,48,40,821990492
98,7,21,Ticks_Linear_5,322,5,42,127,822002132
98,7,21,Ticks_Linear_5,323,1,48,43,822762656
98,7,21,Ticks_Linear_5,324,5,42,127,822801856
98,7,21,Ticks_Linear_5,325,1,48,35,823558252
98,7,21,Ticks_Linear_5,326,5,42,127,823601580
98,7,21,Ticks_Linear_5,327,1,48,45,824324356
98,7,21,Ticks_Linear_5,328,5,42,127,824411488
98,7,21,Ticks_Linear_5,329,1,48,37,825219660
98,7,21,Ticks_Linear_5,330,5,42,127,825221400
98,7,21,Ticks_Linear_5,331,1,48,44,826006172
98,7,21,Ticks_Linear_5,332,5,42,127,826031604
98,7,21,Ticks_Linear_5,333,1,48,38,826796612
98,7,21,Ticks_Linear_5,334,5,42,127,826841364
98,7,21,Ticks_Linear_5,335,1,48,40,827575740
98,7,21,Ticks_Linear_5,336,5,42,127,827651496
98,7,21,Ticks_Linear_5,0,9999,9999,9999,718449740
98,7,21,Ticks_Linear_5,1,9999,9999,9999,718929992
98,7,21,Ticks_Linear_5,2,9999,9999,9999,719409272
98,7,21,Ticks_Linear_5,3,9999,9999,9999,719889520
98,7,21,Ticks_Linear_5,4,9999,9999,9999,720369764
98,7,21,Ticks_Linear_5,5,9999,9999,9999,720859212
98,7,21,Ticks_Linear_5,6,9999,9999,9999,721349700
98,7,21,Ticks_Linear_5,7,9999,9999,9999,721839212
98,7,21,Ticks_Linear_5,8,9999,9999,9999,722329692
98,7,21,Ticks_Linear_5,9,9999,9999,9999,722819188
98,7,21,Ticks_Linear_5,10,9999,9999,9999,723319860
98,7,21,Ticks_Linear_5,11,9999,9999,9999,723819632
98,7,21,Ticks_Linear_5,12,9999,9999,9999,724319332
98,7,21,Ticks_Linear_5,13,9999,9999,9999,724820080
98,7,21,Ticks_Linear_5,14,9999,9999,9999,725319816
98,7,21,Ticks_Linear_5,15,9999,9999,9999,725829740
98,7,21,Ticks_Linear_5,16,9999,9999,9999,726339696
98,7,21,Ticks_Linear_5,17,9999,9999,9999,726849664
98,7,21,Ticks_Linear_5,18,9999,9999,9999,727359612
98,7,21,Ticks_Linear_5,19,9999,9999,9999,727869500
98,7,21,Ticks_Linear_5,20,9999,9999,9999,728389716
98,7,21,Ticks_Linear_5,21,9999,9999,9999,728909940
98,7,21,Ticks_Linear_5,22,9999,9999,9999,729430108
98,7,21,Ticks_Linear_5,23,9999,9999,9999,729959508
98,7,21,Ticks_Linear_5,24,9999,9999,9999,730479724
98,7,21,Ticks_Linear_5,25,9999,9999,9999,731009080
98,7,21,Ticks_Linear_5,26,9999,9999,9999,731539584
98,7,21,Ticks_Linear_5,27,9999,9999,9999,732069984
98,7,21,Ticks_Linear_5,28,9999,9999,9999,732599412
98,7,21,Ticks_Linear_5,29,9999,9999,9999,733129816
98,7,21,Ticks_Linear_5,30,9999,9999,9999,733669436
98,7,21,Ticks_Linear_5,31,9999,9999,9999,734209120
98,7,21,Ticks_Linear_5,32,9999,9999,9999,734749784
98,7,21,Ticks_Linear_5,33,9999,9999,9999,735289404
98,7,21,Ticks_Linear_5,34,9999,9999,9999,735830140
98,7,21,Ticks_Linear_5,35,9999,9999,9999,736389220
98,7,21,Ticks_Linear_5,36,9999,9999,9999,736939116
98,7,21,Ticks_Linear_5,37,9999,9999,9999,737490036
98,7,21,Ticks_Linear_5,38,9999,9999,9999,738039912
98,7,21,Ticks_Linear_5,39,9999,9999,9999,738589792
98,7,21,Ticks_Linear_5,40,9999,9999,9999,739149928
98,7,21,Ticks_Linear_5,41,9999,9999,9999,739710064
98,7,21,Ticks_Linear_5,42,9999,9999,9999,740269176
98,7,21,Ticks_Linear_5,43,9999,9999,9999,740829308
98,7,21,Ticks_Linear_5,44,9999,9999,9999,741389440
98,7,21,Ticks_Linear_5,45,9999,9999,9999,741959756
98,7,21,Ticks_Linear_5,46,9999,9999,9999,742529104
98,7,21,Ticks_Linear_5,47,9999,9999,9999,743099516
98,7,21,Ticks_Linear_5,48,9999,9999,9999,743669832
98,7,21,Ticks_Linear_5,49,9999,9999,9999,744239180
98,7,21,Ticks_Linear_5,50,9999,9999,9999,744819832
98,7,21,Ticks_Linear_5,51,9999,9999,9999,745399384
98,7,21,Ticks_Linear_5,52,9999,9999,9999,745979964
98,7,21,Ticks_Linear_5,53,9999,9999,9999,746559572
98,7,21,Ticks_Linear_5,54,9999,9999,9999,747139180
98,7,21,Ticks_Linear_5,55,9999,9999,9999,747730040
98,7,21,Ticks_Linear_5,56,9999,9999,9999,748319832
98,7,21,Ticks_Linear_5,57,9999,9999,9999,748909688
98,7,21,Ticks_Linear_5,58,9999,9999,9999,749499464
98,7,21,Ticks_Linear_5,59,9999,9999,9999,750089296
98,7,21,Ticks_Linear_5,60,9999,9999,9999,750689344
98,7,21,Ticks_Linear_5,61,9999,9999,9999,751289412
98,7,21,Ticks_Linear_5,62,9999,9999,9999,751889532
98,7,21,Ticks_Linear_5,63,9999,9999,9999,752489588
98,7,21,Ticks_Linear_5,64,9999,9999,9999,753089660
98,7,21,Ticks_Linear_5,65,9999,9999,9999,753699896
98,7,21,Ticks_Linear_5,66,9999,9999,9999,754309224
98,7,21,Ticks_Linear_5,67,9999,9999,9999,754919476
98,7,21,Ticks_Linear_5,68,9999,9999,9999,755529784
98,7,21,Ticks_Linear_5,69,9999,9999,9999,756139068
98,7,21,Ticks_Linear_5,70,9999,9999,9999,756759636
98,7,21,Ticks_Linear_5,71,9999,9999,9999,757379156
98,7,21,Ticks_Linear_5,72,9999,9999,9999,757999732
98,7,21,Ticks_Linear_5,73,9999,9999,9999,758619244
98,7,21,Ticks_Linear_5,74,9999,9999,9999,759239760
98,7,21,Ticks_Linear_5,75,9999,9999,9999,759869540
98,7,21,Ticks_Linear_5,76,9999,9999,9999,760499272
98,7,21,Ticks_Linear_5,77,9999,9999,9999,761130096
98,7,21,Ticks_Linear_5,78,9999,9999,9999,761759824
98,7,21,Ticks_Linear_5,79,9999,9999,9999,762389612
98,7,21,Ticks_Linear_5,80,9999,9999,9999,763029592
98,7,21,Ticks_Linear_5,81,9999,9999,9999,763669632
98,7,21,Ticks_Linear_5,82,9999,9999,9999,764309620
98,7,21,Ticks_Linear_5,83,9999,9999,9999,764949580
98,7,21,Ticks_Linear_5,84,9999,9999,9999,765589568
98,7,21,Ticks_Linear_5,85,9999,9999,9999,766239868
98,7,21,Ticks_Linear_5,86,9999,9999,9999,766890040
98,7,21,Ticks_Linear_5,87,9999,9999,9999,767539292
98,7,21,Ticks_Linear_5,88,9999,9999,9999,768189536
98,7,21,Ticks_Linear_5,89,9999,9999,9999,768839760
98,7,21,Ticks_Linear_5,90,9999,9999,9999,769499220
98,7,21,Ticks_Linear_5,91,9999,9999,9999,770159704
98,7,21,Ticks_Linear_5,92,9999,9999,9999,770819164
98,7,21,Ticks_Linear_5,93,9999,9999,9999,771479668
98,7,21,Ticks_Linear_5,94,9999,9999,9999,772139104
98,7,21,Ticks_Linear_5,95,9999,9999,9999,772809796
98,7,21,Ticks_Linear_5,96,9999,9999,9999,773479492
98,7,21,Ticks_Linear_5,97,9999,9999,9999,774149212
98,7,21,Ticks_Linear_5,98,9999,9999,9999,774819900
98,7,21,Ticks_Linear_5,99,9999,9999,9999,775489600
98,7,21,Ticks_Linear_5,100,9999,9999,9999,776169572
98,7,21,Ticks_Linear_5,101,9999,9999,9999,776849480
98,7,21,Ticks_Linear_5,102,9999,9999,9999,777529432
98,7,21,Ticks_Linear_5,103,9999,9999,9999,778209336
98,7,21,Ticks_Linear_5,104,9999,9999,9999,778889316
98,7,21,Ticks_Linear_5,105,9999,9999,9999,779579452
98,7,21,Ticks_Linear_5,106,9999,9999,9999,780269692
98,7,21,Ticks_Linear_5,107,9999,9999,9999,780959852
98,7,21,Ticks_Linear_5,108,9999,9999,9999,781649988
98,7,21,Ticks_Linear_5,109,9999,9999,9999,782339180
98,7,21,Ticks_Linear_5,110,9999,9999,9999,783039604
98,7,21,Ticks_Linear_5,111,9999,9999,9999,783740000
98,7,21,Ticks_Linear_5,112,9999,9999,9999,784439376
98,7,21,Ticks_Linear_5,113,9999,9999,9999,785139804
98,7,21,Ticks_Linear_5,114,9999,9999,9999,785839172
98,7,21,Ticks_Linear_5,115,9999,9999,9999,786549828
98,7,21,Ticks_Linear_5,116,9999,9999,9999,787259460
98,7,21,Ticks_Linear_5,117,9999,9999,9999,787969096
98,7,21,Ticks_Linear_5,118,9999,9999,9999,788679776
98,7,21,Ticks_Linear_5,119,9999,9999,9999,789389412
98,7,21,Ticks_Linear_5,120,9999,9999,9999,790109280
98,7,21,Ticks_Linear_5,121,9999,9999,9999,790829172
98,7,21,Ticks_Linear_5,122,9999,9999,9999,791550036
98,7,21,Ticks_Linear_5,123,9999,9999,9999,792269932
98,7,21,Ticks_Linear_5,124,9999,9999,9999,792989756
98,7,21,Ticks_Linear_5,125,9999,9999,9999,793719876
98,7,21,Ticks_Linear_5,126,9999,9999,9999,794450028
98,7,21,Ticks_Linear_5,127,9999,9999,9999,795179132
98,7,21,Ticks_Linear_5,128,9999,9999,9999,795909212
98,7,21,Ticks_Linear_5,129,9999,9999,9999,796639288
98,7,21,Ticks_Linear_5,130,9999,9999,9999,797379700
98,7,21,Ticks_Linear_5,131,9999,9999,9999,798120040
98,7,21,Ticks_Linear_5,132,9999,9999,9999,798859332
98,7,21,Ticks_Linear_5,133,9999,9999,9999,799599716
98,7,21,Ticks_Linear_5,134,9999,9999,9999,800340056
98,7,21,Ticks_Linear_5,135,9999,9999,9999,801089608
98,7,21,Ticks_Linear_5,136,9999,9999,9999,801839156
98,7,21,Ticks_Linear_5,137,9999,9999,9999,802589752
98,7,21,Ticks_Linear_5,138,9999,9999,9999,803339376
98,7,21,Ticks_Linear_5,139,9999,9999,9999,804089972
98,7,21,Ticks_Linear_5,140,9999,9999,9999,804849784
98,7,21,Ticks_Linear_5,141,9999,9999,9999,805609592
98,7,21,Ticks_Linear_5,142,9999,9999,9999,806369400
98,7,21,Ticks_Linear_5,143,9999,9999,9999,807129184
98,7,21,Ticks_Linear_5,144,9999,9999,9999,807890040
98,7,21,Ticks_Linear_5,145,9999,9999,9999,808660040
98,7,21,Ticks_Linear_5,146,9999,9999,9999,809430108
98,7,21,Ticks_Linear_5,147,9999,9999,9999,810209384
98,7,21,Ticks_Linear_5,148,9999,9999,9999,810979448
98,7,21,Ticks_Linear_5,149,9999,9999,9999,811749444
98,7,21,Ticks_Linear_5,150,9999,9999,9999,812529772
98,7,21,Ticks_Linear_5,151,9999,9999,9999,813310024
98,7,21,Ticks_Linear_5,152,9999,9999,9999,814089304
98,7,21,Ticks_Linear_5,153,9999,9999,9999,814869564
98,7,21,Ticks_Linear_5,154,9999,9999,9999,815649888
98,7,21,Ticks_Linear_5,155,9999,9999,9999,816439420
98,7,21,Ticks_Linear_5,156,9999,9999,9999,817229932
98,7,21,Ticks_Linear_5,157,9999,9999,9999,818019396
98,7,21,Ticks_Linear_5,158,9999,9999,9999,818809980
98,7,21,Ticks_Linear_5,159,9999,9999,9999,819599468
98,7,21,Ticks_Linear_5,160,9999,9999,9999,820399192
98,7,21,Ticks_Linear_5,161,9999,9999,9999,821199964
98,7,21,Ticks_Linear_5,162,9999,9999,9999,821999688
98,7,21,Ticks_Linear_5,163,9999,9999,9999,822799484
98,7,21,Ticks_Linear_5,164,9999,9999,9999,823599208
98,7,21,Ticks_Linear_5,165,9999,9999,9999,824409192
98,7,21,Ticks_Linear_5,166,9999,9999,9999,825219200
98,7,21,Ticks_Linear_5,167,9999,9999,9999,826029156
98,7,21,Ticks_Linear_5,168,9999,9999,9999,826839140
98,7,21,Ticks_Linear_5,169,9999,9999,9999,827649120
98,8,20,Ticks_Linear_8,0,5,42,127,886728092
98,8,20,Ticks_Linear_8,1,5,42,127,887548356
98,8,20,Ticks_Linear_8,2,5,42,127,888367424
98,8,20,Ticks_Linear_8,3,1,48,57,888421392
98,8,20,Ticks_Linear_8,4,1,48,48,889179900
98,8,20,Ticks_Linear_8,5,5,42,127,889187660
98,8,20,Ticks_Linear_8,6,1,48,50,889966372
98,8,20,Ticks_Linear_8,7,5,42,127,890007852
98,8,20,Ticks_Linear_8,8,1,48,55,890803336
98,8,20,Ticks_Linear_8,9,5,42,127,890817984
98,8,20,Ticks_Linear_8,10,1,48,47,891604328
98,8,20,Ticks_Linear_8,11,5,42,127,891627816
98,8,20,Ticks_Linear_8,12,1,48,56,892432736
98,8,20,Ticks_Linear_8,13,5,42,127,892438024
98,8,20,Ticks_Linear_8,14,5,42,127,893247792
98,8,20,Ticks_Linear_8,15,1,48,61,893249804
98,8,20,Ticks_Linear_8,16,5,42,127,894057924
98,8,20,Ticks_Linear_8,17,1,48,63,894060968
98,8,20,Ticks_Linear_8,18,5,42,127,894857820
98,8,20,Ticks_Linear_8,19,1,48,47,894880184
98,8,20,Ticks_Linear_8,20,1,48,54,895646264
98,8,20,Ticks_Linear_8,21,5,42,127,895658360
98,8,20,Ticks_Linear_8,22,1,48,51,896412808
98,8,20,Ticks_Linear_8,23,5,42,127,896458008
98,8,20,Ticks_Linear_8,24,1,48,51,897221668
98,8,20,Ticks_Linear_8,25,5,42,127,897257808
98,8,20,Ticks_Linear_8,26,1,48,48,898039216
98,8,20,Ticks_Linear_8,27,5,42,127,898057828
98,8,20,Ticks_Linear_8,28,1,48,52,898817600
98,8,20,Ticks_Linear_8,29,5,42,127,898848044
98,8,20,Ticks_Linear_8,30,1,48,54,899599124
98,8,20,Ticks_Linear_8,31,5,42,127,899637656
98,8,20,Ticks_Linear_8,32,1,48,55,900408736
98,8,20,Ticks_Linear_8,33,5,42,127,900428020
98,8,20,Ticks_Linear_8,34,1,48,42,901198876
98,8,20,Ticks_Linear_8,35,5,42,127,901217636
98,8,20,Ticks_Linear_8,36,1,48,45,901996728
98,8,20,Ticks_Linear_8,37,5,42,127,902008296
98,8,20,Ticks_Linear_8,38,1,48,47,902767244
98,8,20,Ticks_Linear_8,39,5,42,127,902787600
98,8,20,Ticks_Linear_8,40,1,48,57,903544340
98,8,20,Ticks_Linear_8,41,5,42,127,903567776
98,8,20,Ticks_Linear_8,42,5,42,127,904347888
98,8,20,Ticks_Linear_8,43,1,48,52,904369728
98,8,20,Ticks_Linear_8,44,1,48,55,905127836
98,8,20,Ticks_Linear_8,45,5,42,127,905129404
98,8,20,Ticks_Linear_8,46,5,42,127,905907572
98,8,20,Ticks_Linear_8,47,1,48,53,905908908
98,8,20,Ticks_Linear_8,48,1,48,57,906659096
98,8,20,Ticks_Linear_8,49,5,42,127,906677632
98,8,20,Ticks_Linear_8,50,1,48,44,907433352
98,8,20,Ticks_Linear_8,51,5,42,127,907447700
98,8,20,Ticks_Linear_8,52,1,48,54,908198704
98,8,20,Ticks_Linear_8,53,5,42,127,908217768
98,8,20,Ticks_Linear_8,54,1,48,45,908958068
98,8,20,Ticks_Linear_8,55,5,42,127,908987760
98,8,20,Ticks_Linear_8,56,1,48,55,909738320
98,8,20,Ticks_Linear_8,57,5,42,127,909757756
98,8,20,Ticks_Linear_8,58,1,48,51,910504780
98,8,20,Ticks_Linear_8,59,5,42,127,910517640
98,8,20,Ticks_Linear_8,60,1,48,58,911249772
98,8,20,Ticks_Linear_8,61,5,42,127,911277448
98,8,20,Ticks_Linear_8,62,1,48,58,912007636
98,8,20,Ticks_Linear_8,63,5,42,127,912038452
98,8,20,Ticks_Linear_8,64,1,48,53,912749444
98,8,20,Ticks_Linear_8,65,5,42,127,912798036
98,8,20,Ticks_Linear_8,66,1,48,61,913543568
98,8,20,Ticks_Linear_8,67,5,42,127,913557848
98,8,20,Ticks_Linear_8,68,5,42,127,914307552
98,8,20,Ticks_Linear_8,69,1,48,44,914354700
98,8,20,Ticks_Linear_8,70,5,42,127,915057900
98,8,20,Ticks_Linear_8,71,1,48,54,915064084
98,8,20,Ticks_Linear_8,72,1,48,61,915787936
98,8,20,Ticks_Linear_8,73,5,42,127,915807520
98,8,20,Ticks_Linear_8,74,1,48,56,916521300
98,8,20,Ticks_Linear_8,75,5,42,127,916558412
98,8,20,Ticks_Linear_8,76,1,48,52,917287260
98,8,20,Ticks_Linear_8,77,5,42,127,917307888
98,8,20,Ticks_Linear_8,78,1,48,44,918034100
98,8,20,Ticks_Linear_8,79,5,42,127,918048004
98,8,20,Ticks_Linear_8,80,1,48,46,918767184
98,8,20,Ticks_Linear_8,81,5,42,127,918787444
98,8,20,Ticks_Linear_8,82,1,48,48,919518308
98,8,20,Ticks_Linear_8,83,5,42,127,919527704
98,8,20,Ticks_Linear_8,84,5,42,127,920268272
98,8,20,Ticks_Linear_8,85,1,48,45,920294604
98,8,20,Ticks_Linear_8,86,1,48,54,920986924
98,8,20,Ticks_Linear_8,87,5,42,127,921007484
98,8,20,Ticks_Linear_8,88,5,42,127,921737568
98,8,20,Ticks_Linear_8,89,1,48,42,921773632
98,8,20,Ticks_Linear_8,90,5,42,127,922467620
98,8,20,Ticks_Linear_8,91,1,48,46,922499968
98,8,20,Ticks_Linear_8,92,5,42,127,923197848
98,8,20,Ticks_Linear_8,93,1,48,48,923202612
98,8,20,Ticks_Linear_8,94,5,42,127,923928076
98,8,20,Ticks_Linear_8,95,1,48,51,923949248
98,8,20,Ticks_Linear_8,96,5,42,127,924657928
98,8,20,Ticks_Linear_8,97,1,48,56,924676556
98,8,20,Ticks_Linear_8,98,5,42,127,925377824
98,8,20,Ticks_Linear_8,99,1,48,57,925384676
98,8,20,Ticks_Linear_8,100,1,48,49,926052560
98,8,20,Ticks_Linear_8,101,5,42,127,926097712
98,8,20,Ticks_Linear_8,102,1,48,57,926810796
98,8,20,Ticks_Linear_8,103,5,42,127,926817656
98,8,20,Ticks_Linear_8,104,5,42,127,927537480
98,8,20,Ticks_Linear_8,105,1,48,57,927543664
98,8,20,Ticks_Linear_8,106,5,42,127,928258496
98,8,20,Ticks_Linear_8,107,1,48,57,928263260
98,8,20,Ticks_Linear_8,108,1,48,63,928949660
98,8,20,Ticks_Linear_8,109,5,42,127,928978380
98,8,20,Ticks_Linear_8,110,5,42,127,929687872
98,8,20,Ticks_Linear_8,111,1,48,57,929696312
98,8,20,Ticks_Linear_8,112,5,42,127,930397632
98,8,20,Ticks_Linear_8,113,1,48,56,930419396
98,8,20,Ticks_Linear_8,114,1,48,65,931108164
98,8,20,Ticks_Linear_8,115,5,42,127,931109428
98,8,20,Ticks_Linear_8,116,5,42,127,931817800
98,8,20,Ticks_Linear_8,117,1,48,52,931832520
98,8,20,Ticks_Linear_8,118,5,42,127,932518372
98,8,20,Ticks_Linear_8,119,1,48,46,932533164
98,8,20,Ticks_Linear_8,120,1,48,60,933177912
98,8,20,Ticks_Linear_8,121,5,42,127,933217716
98,8,20,Ticks_Linear_8,122,1,48,50,933914048
98,8,20,Ticks_Linear_8,123,5,42,127,933918212
98,8,20,Ticks_Linear_8,124,1,48,54,934597552
98,8,20,Ticks_Linear_8,125,5,42,127,934617364
98,8,20,Ticks_Linear_8,126,1,48,56,935314216
98,8,20,Ticks_Linear_8,127,5,42,127,935318160
98,8,20,Ticks_Linear_8,128,5,42,127,936008228
98,8,20,Ticks_Linear_8,129,1,48,55,936026560
98,8,20,Ticks_Linear_8,130,5,42,127,936698392
98,8,20,Ticks_Linear_8,131,1,48,50,936708852
98,8,20,Ticks_Linear_8,132,5,42,127,937388408
98,8,20,Ticks_Linear_8,133,1,48,46,937403580
98,8,20,Ticks_Linear_8,134,1,48,49,938075908
98,8,20,Ticks_Linear_8,135,5,42,127,938077492
98,8,20,Ticks_Linear_8,136,1,48,54,938731592
98,8,20,Ticks_Linear_8,137,5,42,127,938767732
98,8,20,Ticks_Linear_8,138,1,48,51,939441972
98,8,20,Ticks_Linear_8,139,5,42,127,939447712
98,8,20,Ticks_Linear_8,140,5,42,127,940127520
98,8,20,Ticks_Linear_8,141,1,48,55,940157600
98,8,20,Ticks_Linear_8,142,5,42,127,940807476
98,8,20,Ticks_Linear_8,143,1,48,53,940826396
98,8,20,Ticks_Linear_8,144,1,48,56,941487452
98,8,20,Ticks_Linear_8,145,5,42,127,941489012
98,8,20,Ticks_Linear_8,146,1,48,55,942150060
98,8,20,Ticks_Linear_8,147,5,42,127,942168448
98,8,20,Ticks_Linear_8,148,1,48,57,942831604
98,8,20,Ticks_Linear_8,149,5,42,127,942848352
98,8,20,Ticks_Linear_8,150,5,42,127,943518228
98,8,20,Ticks_Linear_8,151,1,48,50,943526972
98,8,20,Ticks_Linear_8,152,1,48,54,944170128
98,8,20,Ticks_Linear_8,153,5,42,127,944187916
98,8,20,Ticks_Linear_8,154,1,48,50,944838276
98,8,20,Ticks_Linear_8,155,5,42,127,944857488
98,8,20,Ticks_Linear_8,156,1,48,48,945511488
98,8,20,Ticks_Linear_8,157,5,42,127,945528080
98,8,20,Ticks_Linear_8,158,5,42,127,946187620
98,8,20,Ticks_Linear_8,159,1,48,51,946191860
98,8,20,Ticks_Linear_8,160,1,48,54,946818652
98,8,20,Ticks_Linear_8,161,5,42,127,946848272
98,8,20,Ticks_Linear_8,162,1,48,51,947499580
98,8,20,Ticks_Linear_8,163,5,42,127,947507784
98,8,20,Ticks_Linear_8,164,5,42,127,948167996
98,8,20,Ticks_Linear_8,165,1,48,52,948174032
98,8,20,Ticks_Linear_8,166,5,42,127,948827512
98,8,20,Ticks_Linear_8,167,1,48,44,948854812
98,8,20,Ticks_Linear_8,168,1,48,46,949466632
98,8,20,Ticks_Linear_8,169,5,42,127,949477972
98,8,20,Ticks_Linear_8,170,1,48,51,950108908
98,8,20,Ticks_Linear_8,171,5,42,127,950128120
98,8,20,Ticks_Linear_8,172,1,48,42,950716100
98,8,20,Ticks_Linear_8,173,5,42,127,950778148
98,8,20,Ticks_Linear_8,174,1,48,49,951403088
98,8,20,Ticks_Linear_8,175,5,42,127,951427500
98,8,20,Ticks_Linear_8,176,5,42,127,952077652
98,8,20,Ticks_Linear_8,177,1,48,58,952097624
98,8,20,Ticks_Linear_8,178,5,42,127,952717644
98,8,20,Ticks_Linear_8,179,1,48,56,952729900
98,8,20,Ticks_Linear_8,180,5,42,127,953358124
98,8,20,Ticks_Linear_8,181,1,48,53,953383036
98,8,20,Ticks_Linear_8,182,1,48,55,953983160
98,8,20,Ticks_Linear_8,183,5,42,127,953997660
98,8,20,Ticks_Linear_8,184,1,48,60,954574668
98,8,20,Ticks_Linear_8,185,5,42,127,954637700
98,8,20,Ticks_Linear_8,186,1,48,58,955248416
98,8,20,Ticks_Linear_8,187,5,42,127,955277836
98,8,20,Ticks_Linear_8,188,5,42,127,955907400
98,8,20,Ticks_Linear_8,189,1,48,50,956018580
98,8,20,Ticks_Linear_8,190,1,48,49,956529192
98,8,20,Ticks_Linear_8,191,5,42,127,956538216
98,8,20,Ticks_Linear_8,192,1,48,53,957144384
98,8,20,Ticks_Linear_8,193,5,42,127,957167948
98,8,20,Ticks_Linear_8,194,1,48,49,957788332
98,8,20,Ticks_Linear_8,195,5,42,127,957797952
98,8,20,Ticks_Linear_8,196,5,42,127,958427840
98,8,20,Ticks_Linear_8,197,1,48,49,958446092
98,8,20,Ticks_Linear_8,198,5,42,127,959048108
98,8,20,Ticks_Linear_8,199,1,48,53,959079836
98,8,20,Ticks_Linear_8,200,5,42,127,959667876
98,8,20,Ticks_Linear_8,201,1,48,50,959668844
98,8,20,Ticks_Linear_8,202,1,48,50,960279936
98,8,20,Ticks_Linear_8,203,5,42,127,960288068
98,8,20,Ticks_Linear_8,204,1,48,55,960897312
98,8,20,Ticks_Linear_8,205,5,42,127,960907832
98,8,20,Ticks_Linear_8,206,1,48,55,961508740
98,8,20,Ticks_Linear_8,207,5,42,127,961528252
98,8,20,Ticks_Linear_8,208,1,48,53,962109836
98,8,20,Ticks_Linear_8,209,5,42,127,962137512
98,8,20,Ticks_Linear_8,210,1,48,48,962714700
98,8,20,Ticks_Linear_8,211,5,42,127,962748068
98,8,20,Ticks_Linear_8,212,1,48,51,963349876
98,8,20,Ticks_Linear_8,213,5,42,127,963358004
98,8,20,Ticks_Linear_8,214,1,48,48,963942432
98,8,20,Ticks_Linear_8,215,5,42,127,963968260
98,8,20,Ticks_Linear_8,216,1,48,51,964524972
98,8,20,Ticks_Linear_8,217,5,42,127,964577672
98,8,20,Ticks_Linear_8,218,5,42,127,965177952
98,8,20,Ticks_Linear_8,219,1,48,48,965210652
98,8,20,Ticks_Linear_8,220,5,42,127,965777728
98,8,20,Ticks_Linear_8,221,1,48,48,965810876
98,8,20,Ticks_Linear_8,222,5,42,127,966377852
98,8,20,Ticks_Linear_8,223,1,48,48,966409952
98,8,20,Ticks_Linear_8,224,1,48,44,966970440
98,8,20,Ticks_Linear_8,225,5,42,127,966977892
98,8,20,Ticks_Linear_8,226,1,48,46,967557860
98,8,20,Ticks_Linear_8,227,5,42,127,967577968
98,8,20,Ticks_Linear_8,228,5,42,127,968167840
98,8,20,Ticks_Linear_8,229,1,48,44,968177400
98,8,20,Ticks_Linear_8,230,5,42,127,968757776
98,8,20,Ticks_Linear_8,231,1,48,41,968779248
98,8,20,Ticks_Linear_8,232,5,42,127,969347668
98,8,20,Ticks_Linear_8,233,1,48,47,969377828
98,8,20,Ticks_Linear_8,234,5,42,127,969938280
98,8,20,Ticks_Linear_8,235,1,48,53,969956832
98,8,20,Ticks_Linear_8,236,1,48,50,970518812
98,8,20,Ticks_Linear_8,237,5,42,127,970528064
98,8,20,Ticks_Linear_8,238,1,48,51,971085824
98,8,20,Ticks_Linear_8,239,5,42,127,971107596
98,8,20,Ticks_Linear_8,240,1,48,51,971653480
98,8,20,Ticks_Linear_8,241,5,42,127,971688420
98,8,20,Ticks_Linear_8,242,1,48,46,972203576
98,8,20,Ticks_Linear_8,243,5,42,127,972267952
98,8,20,Ticks_Linear_8,244,1,48,48,972778696
98,8,20,Ticks_Linear_8,245,5,42,127,972847632
98,8,20,Ticks_Linear_8,246,1,48,51,973390128
98,8,20,Ticks_Linear_8,247,5,42,127,973428136
98,8,20,Ticks_Linear_8,248,1,48,45,973966392
98,8,20,Ticks_Linear_8,249,5,42,127,973997728
98,8,20,Ticks_Linear_8,250,1,48,40,974552872
98,8,20,Ticks_Linear_8,251,5,42,127,974567748
98,8,20,Ticks_Linear_8,252,1,48,56,975102672
98,8,20,Ticks_Linear_8,253,5,42,127,975138140
98,8,20,Ticks_Linear_8,254,1,48,47,975697264
98,8,20,Ticks_Linear_8,255,5,42,127,975707788
98,8,20,Ticks_Linear_8,256,5,42,127,976277840
98,8,20,Ticks_Linear_8,257,1,48,51,976299608
98,8,20,Ticks_Linear_8,258,5,42,127,976838048
98,8,20,Ticks_Linear_8,259,1,48,46,976886180
98,8,20,Ticks_Linear_8,260,1,48,48,977368184
98,8,20,Ticks_Linear_8,261,5,42,127,977398100
98,8,20,Ticks_Linear_8,262,1,48,47,977940292
98,8,20,Ticks_Linear_8,263,5,42,127,977958308
98,8,20,Ticks_Linear_8,264,1,48,47,978493156
98,8,20,Ticks_Linear_8,265,5,42,127,978518516
98,8,20,Ticks_Linear_8,266,5,42,127,979077708
98,8,20,Ticks_Linear_8,267,1,48,46,979094224
98,8,20,Ticks_Linear_8,268,1,48,48,979617804
98,8,20,Ticks_Linear_8,269,5,42,127,979628548
98,8,20,Ticks_Linear_8,270,5,42,127,980178580
98,8,20,Ticks_Linear_8,271,1,48,43,980187920
98,8,20,Ticks_Linear_8,272,5,42,127,980728084
98,8,20,Ticks_Linear_8,273,1,48,44,980737124
98,8,20,Ticks_Linear_8,274,1,48,40,981254316
98,8,20,Ticks_Linear_8,275,5,42,127,981278024
98,8,20,Ticks_Linear_8,276,1,48,47,981741736
98,8,20,Ticks_Linear_8,277,5,42,127,981827976
98,8,20,Ticks_Linear_8,278,1,48,16,981852116
98,8,20,Ticks_Linear_8,279,5,42,127,982367576
98,8,20,Ticks_Linear_8,280,1,48,48,982384612
98,8,20,Ticks_Linear_8,281,5,42,127,982908412
98,8,20,Ticks_Linear_8,282,1,48,55,982912576
98,8,20,Ticks_Linear_8,283,5,42,127,983447880
98,8,20,Ticks_Linear_8,284,1,48,29,983462976
98,8,20,Ticks_Linear_8,285,1,48,57,983979952
98,8,20,Ticks_Linear_8,286,5,42,127,983987636
98,8,20,Ticks_Linear_8,287,5,42,127,984528304
98,8,20,Ticks_Linear_8,288,1,48,51,984544072
98,8,20,Ticks_Linear_8,289,5,42,127,985057660
98,8,20,Ticks_Linear_8,290,1,48,57,985065188
98,8,20,Ticks_Linear_8,291,1,48,46,985565852
98,8,20,Ticks_Linear_8,292,5,42,127,985588056
98,8,20,Ticks_Linear_8,293,1,48,50,986079332
98,8,20,Ticks_Linear_8,294,5,42,127,986117488
98,8,20,Ticks_Linear_8,295,1,48,49,986607940
98,8,20,Ticks_Linear_8,296,5,42,127,986647820
98,8,20,Ticks_Linear_8,297,1,48,46,987146580
98,8,20,Ticks_Linear_8,298,5,42,127,987178520
98,8,20,Ticks_Linear_8,299,1,48,48,987696108
98,8,20,Ticks_Linear_8,300,5,42,127,987697616
98,8,20,Ticks_Linear_8,301,5,42,127,988217696
98,8,20,Ticks_Linear_8,302,1,48,44,988228304
98,8,20,Ticks_Linear_8,303,1,48,47,988736240
98,8,20,Ticks_Linear_8,304,5,42,127,988737904
98,8,20,Ticks_Linear_8,305,5,42,127,989257980
98,8,20,Ticks_Linear_8,306,1,48,54,989271212
98,8,20,Ticks_Linear_8,307,5,42,127,989778420
98,8,20,Ticks_Linear_8,308,1,48,45,989818316
98,8,20,Ticks_Linear_8,309,5,42,127,990288380
98,8,20,Ticks_Linear_8,310,1,48,53,990317120
98,8,20,Ticks_Linear_8,311,1,48,48,990780168
98,8,20,Ticks_Linear_8,312,5,42,127,990798484
98,8,20,Ticks_Linear_8,313,1,48,44,991276728
98,8,20,Ticks_Linear_8,314,5,42,127,991308444
98,8,20,Ticks_Linear_8,315,1,48,45,991814088
98,8,20,Ticks_Linear_8,316,5,42,127,991818404
98,8,20,Ticks_Linear_8,317,1,48,50,992313564
98,8,20,Ticks_Linear_8,318,5,42,127,992328064
98,8,20,Ticks_Linear_8,319,1,48,49,992820008
98,8,20,Ticks_Linear_8,320,5,42,127,992827764
98,8,20,Ticks_Linear_8,321,1,48,54,993313188
98,8,20,Ticks_Linear_8,322,5,42,127,993327540
98,8,20,Ticks_Linear_8,323,1,48,49,993826172
98,8,20,Ticks_Linear_8,324,5,42,127,993828216
98,8,20,Ticks_Linear_8,325,5,42,127,994327920
98,8,20,Ticks_Linear_8,326,1,48,55,994344884
98,8,20,Ticks_Linear_8,327,5,42,127,994827624
98,8,20,Ticks_Linear_8,328,1,48,48,994836740
98,8,20,Ticks_Linear_8,329,1,48,53,995314308
98,8,20,Ticks_Linear_8,330,5,42,127,995318400
98,8,20,Ticks_Linear_8,331,1,48,47,995806648
98,8,20,Ticks_Linear_8,332,5,42,127,995808292
98,8,20,Ticks_Linear_8,333,1,48,50,996290424
98,8,20,Ticks_Linear_8,334,5,42,127,996298180
98,8,20,Ticks_Linear_8,335,5,42,127,996787552
98,8,20,Ticks_Linear_8,336,1,48,59,996812312
98,8,20,Ticks_Linear_8,337,1,48,55,997272148
98,8,20,Ticks_Linear_8,338,5,42,127,997277964
98,8,20,Ticks_Linear_8,0,9999,9999,9999,886725716
98,8,20,Ticks_Linear_8,1,9999,9999,9999,887545980
98,8,20,Ticks_Linear_8,2,9999,9999,9999,888365124
98,8,20,Ticks_Linear_8,3,9999,9999,9999,889185356
98,8,20,Ticks_Linear_8,4,9999,9999,9999,890005624
98,8,20,Ticks_Linear_8,5,9999,9999,9999,890815608
98,8,20,Ticks_Linear_8,6,9999,9999,9999,891625588
98,8,20,Ticks_Linear_8,7,9999,9999,9999,892435576
98,8,20,Ticks_Linear_8,8,9999,9999,9999,893245564
98,8,20,Ticks_Linear_8,9,9999,9999,9999,894055548
98,8,20,Ticks_Linear_8,10,9999,9999,9999,894855220
98,8,20,Ticks_Linear_8,11,9999,9999,9999,895656060
98,8,20,Ticks_Linear_8,12,9999,9999,9999,896455784
98,8,20,Ticks_Linear_8,13,9999,9999,9999,897255508
98,8,20,Ticks_Linear_8,14,9999,9999,9999,898055232
98,8,20,Ticks_Linear_8,15,9999,9999,9999,898845816
98,8,20,Ticks_Linear_8,16,9999,9999,9999,899635280
98,8,20,Ticks_Linear_8,17,9999,9999,9999,900425792
98,8,20,Ticks_Linear_8,18,9999,9999,9999,901215336
98,8,20,Ticks_Linear_8,19,9999,9999,9999,902005844
98,8,20,Ticks_Linear_8,20,9999,9999,9999,902785152
98,8,20,Ticks_Linear_8,21,9999,9999,9999,903565404
98,8,20,Ticks_Linear_8,22,9999,9999,9999,904345660
98,8,20,Ticks_Linear_8,23,9999,9999,9999,905125988
98,8,20,Ticks_Linear_8,24,9999,9999,9999,905905268
98,8,20,Ticks_Linear_8,25,9999,9999,9999,906675256
98,8,20,Ticks_Linear_8,26,9999,9999,9999,907445328
98,8,20,Ticks_Linear_8,27,9999,9999,9999,908215396
98,8,20,Ticks_Linear_8,28,9999,9999,9999,908985460
98,8,20,Ticks_Linear_8,29,9999,9999,9999,909755452
98,8,20,Ticks_Linear_8,30,9999,9999,9999,910515264
98,8,20,Ticks_Linear_8,31,9999,9999,9999,911275072
98,8,20,Ticks_Linear_8,32,9999,9999,9999,912035928
98,8,20,Ticks_Linear_8,33,9999,9999,9999,912795736
98,8,20,Ticks_Linear_8,34,9999,9999,9999,913555544
98,8,20,Ticks_Linear_8,35,9999,9999,9999,914305104
98,8,20,Ticks_Linear_8,36,9999,9999,9999,915055672
98,8,20,Ticks_Linear_8,37,9999,9999,9999,915805292
98,8,20,Ticks_Linear_8,38,9999,9999,9999,916555888
98,8,20,Ticks_Linear_8,39,9999,9999,9999,917305440
98,8,20,Ticks_Linear_8,40,9999,9999,9999,918045776
98,8,20,Ticks_Linear_8,41,9999,9999,9999,918785144
98,8,20,Ticks_Linear_8,42,9999,9999,9999,919525480
98,8,20,Ticks_Linear_8,43,9999,9999,9999,920265824
98,8,20,Ticks_Linear_8,44,9999,9999,9999,921005180
98,8,20,Ticks_Linear_8,45,9999,9999,9999,921735268
98,8,20,Ticks_Linear_8,46,9999,9999,9999,922465392
98,8,20,Ticks_Linear_8,47,9999,9999,9999,923195472
98,8,20,Ticks_Linear_8,48,9999,9999,9999,923925624
98,8,20,Ticks_Linear_8,49,9999,9999,9999,924655700
98,8,20,Ticks_Linear_8,50,9999,9999,9999,925375596
98,8,20,Ticks_Linear_8,51,9999,9999,9999,926095484
98,8,20,Ticks_Linear_8,52,9999,9999,9999,926815352
98,8,20,Ticks_Linear_8,53,9999,9999,9999,927535180
98,8,20,Ticks_Linear_8,54,9999,9999,9999,928256124
98,8,20,Ticks_Linear_8,55,9999,9999,9999,928975932
98,8,20,Ticks_Linear_8,56,9999,9999,9999,929685572
98,8,20,Ticks_Linear_8,57,9999,9999,9999,930395256
98,8,20,Ticks_Linear_8,58,9999,9999,9999,931105864
98,8,20,Ticks_Linear_8,59,9999,9999,9999,931815500
98,8,20,Ticks_Linear_8,60,9999,9999,9999,932515920
98,8,20,Ticks_Linear_8,61,9999,9999,9999,933215340
98,8,20,Ticks_Linear_8,62,9999,9999,9999,933915764
98,8,20,Ticks_Linear_8,63,9999,9999,9999,934615140
98,8,20,Ticks_Linear_8,64,9999,9999,9999,935315560
98,8,20,Ticks_Linear_8,65,9999,9999,9999,936005704
98,8,20,Ticks_Linear_8,66,9999,9999,9999,936695868
98,8,20,Ticks_Linear_8,67,9999,9999,9999,937386104
98,8,20,Ticks_Linear_8,68,9999,9999,9999,938075204
98,8,20,Ticks_Linear_8,69,9999,9999,9999,938765432
98,8,20,Ticks_Linear_8,70,9999,9999,9999,939445336
98,8,20,Ticks_Linear_8,71,9999,9999,9999,940125292
98,8,20,Ticks_Linear_8,72,9999,9999,9999,940805172
98,8,20,Ticks_Linear_8,73,9999,9999,9999,941485152
98,8,20,Ticks_Linear_8,74,9999,9999,9999,942166076
98,8,20,Ticks_Linear_8,75,9999,9999,9999,942846052
98,8,20,Ticks_Linear_8,76,9999,9999,9999,943515704
98,8,20,Ticks_Linear_8,77,9999,9999,9999,944185464
98,8,20,Ticks_Linear_8,78,9999,9999,9999,944855112
98,8,20,Ticks_Linear_8,79,9999,9999,9999,945525852
98,8,20,Ticks_Linear_8,80,9999,9999,9999,946185320
98,8,20,Ticks_Linear_8,81,9999,9999,9999,946845824
98,8,20,Ticks_Linear_8,82,9999,9999,9999,947505260
98,8,20,Ticks_Linear_8,83,9999,9999,9999,948165696
98,8,20,Ticks_Linear_8,84,9999,9999,9999,948825208
98,8,20,Ticks_Linear_8,85,9999,9999,9999,949475448
98,8,20,Ticks_Linear_8,86,9999,9999,9999,950125672
98,8,20,Ticks_Linear_8,87,9999,9999,9999,950775920
98,8,20,Ticks_Linear_8,88,9999,9999,9999,951425124
98,8,20,Ticks_Linear_8,89,9999,9999,9999,952075352
98,8,20,Ticks_Linear_8,90,9999,9999,9999,952715340
98,8,20,Ticks_Linear_8,91,9999,9999,9999,953355380
98,8,20,Ticks_Linear_8,92,9999,9999,9999,953995360
98,8,20,Ticks_Linear_8,93,9999,9999,9999,954635324
98,8,20,Ticks_Linear_8,94,9999,9999,9999,955275388
98,8,20,Ticks_Linear_8,95,9999,9999,9999,955905100
98,8,20,Ticks_Linear_8,96,9999,9999,9999,956535916
98,8,20,Ticks_Linear_8,97,9999,9999,9999,957165648
98,8,20,Ticks_Linear_8,98,9999,9999,9999,957795428
98,8,20,Ticks_Linear_8,99,9999,9999,9999,958425164
98,8,20,Ticks_Linear_8,100,9999,9999,9999,959045732
98,8,20,Ticks_Linear_8,101,9999,9999,9999,959665280
98,8,20,Ticks_Linear_8,102,9999,9999,9999,960285764
98,8,20,Ticks_Linear_8,103,9999,9999,9999,960905308
98,8,20,Ticks_Linear_8,104,9999,9999,9999,961525876
98,8,20,Ticks_Linear_8,105,9999,9999,9999,962135136
98,8,20,Ticks_Linear_8,106,9999,9999,9999,962745472
98,8,20,Ticks_Linear_8,107,9999,9999,9999,963355704
98,8,20,Ticks_Linear_8,108,9999,9999,9999,963966036
98,8,20,Ticks_Linear_8,109,9999,9999,9999,964575296
98,8,20,Ticks_Linear_8,110,9999,9999,9999,965175352
98,8,20,Ticks_Linear_8,111,9999,9999,9999,965775428
98,8,20,Ticks_Linear_8,112,9999,9999,9999,966375548
98,8,20,Ticks_Linear_8,113,9999,9999,9999,966975592
98,8,20,Ticks_Linear_8,114,9999,9999,9999,967575668
98,8,20,Ticks_Linear_8,115,9999,9999,9999,968165464
98,8,20,Ticks_Linear_8,116,9999,9999,9999,968755252
98,8,20,Ticks_Linear_8,117,9999,9999,9999,969345144
98,8,20,Ticks_Linear_8,118,9999,9999,9999,969935980
98,8,20,Ticks_Linear_8,119,9999,9999,9999,970525764
98,8,20,Ticks_Linear_8,120,9999,9999,9999,971105368
98,8,20,Ticks_Linear_8,121,9999,9999,9999,971685972
98,8,20,Ticks_Linear_8,122,9999,9999,9999,972265576
98,8,20,Ticks_Linear_8,123,9999,9999,9999,972845184
98,8,20,Ticks_Linear_8,124,9999,9999,9999,973425760
98,8,20,Ticks_Linear_8,125,9999,9999,9999,973995132
98,8,20,Ticks_Linear_8,126,9999,9999,9999,974565448
98,8,20,Ticks_Linear_8,127,9999,9999,9999,975135840
98,8,20,Ticks_Linear_8,128,9999,9999,9999,975705188
98,8,20,Ticks_Linear_8,129,9999,9999,9999,976275540
98,8,20,Ticks_Linear_8,130,9999,9999,9999,976835672
98,8,20,Ticks_Linear_8,131,9999,9999,9999,977395800
98,8,20,Ticks_Linear_8,132,9999,9999,9999,977955932
98,8,20,Ticks_Linear_8,133,9999,9999,9999,978516064
98,8,20,Ticks_Linear_8,134,9999,9999,9999,979075184
98,8,20,Ticks_Linear_8,135,9999,9999,9999,979626100
98,8,20,Ticks_Linear_8,136,9999,9999,9999,980175980
98,8,20,Ticks_Linear_8,137,9999,9999,9999,980725856
98,8,20,Ticks_Linear_8,138,9999,9999,9999,981275724
98,8,20,Ticks_Linear_8,139,9999,9999,9999,981825600
98,8,20,Ticks_Linear_8,140,9999,9999,9999,982365276
98,8,20,Ticks_Linear_8,141,9999,9999,9999,982905936
98,8,20,Ticks_Linear_8,142,9999,9999,9999,983445576
98,8,20,Ticks_Linear_8,143,9999,9999,9999,983985260
98,8,20,Ticks_Linear_8,144,9999,9999,9999,984525928
98,8,20,Ticks_Linear_8,145,9999,9999,9999,985055360
98,8,20,Ticks_Linear_8,146,9999,9999,9999,985585756
98,8,20,Ticks_Linear_8,147,9999,9999,9999,986115188
98,8,20,Ticks_Linear_8,148,9999,9999,9999,986645592
98,8,20,Ticks_Linear_8,149,9999,9999,9999,987175992
98,8,20,Ticks_Linear_8,150,9999,9999,9999,987695176
98,8,20,Ticks_Linear_8,151,9999,9999,9999,988215392
98,8,20,Ticks_Linear_8,152,9999,9999,9999,988735628
98,8,20,Ticks_Linear_8,153,9999,9999,9999,989255756
98,8,20,Ticks_Linear_8,154,9999,9999,9999,989775972
98,8,20,Ticks_Linear_8,155,9999,9999,9999,990285932
98,8,20,Ticks_Linear_8,156,9999,9999,9999,990795884
98,8,20,Ticks_Linear_8,157,9999,9999,9999,991305844
98,8,20,Ticks_Linear_8,158,9999,9999,9999,991815804
98,8,20,Ticks_Linear_8,159,9999,9999,9999,992325688
98,8,20,Ticks_Linear_8,160,9999,9999,9999,992825464
98,8,20,Ticks_Linear_8,161,9999,9999,9999,993325164
98,8,20,Ticks_Linear_8,162,9999,9999,9999,993825876
98,8,20,Ticks_Linear_8,163,9999,9999,9999,994325620
98,8,20,Ticks_Linear_8,164,9999,9999,9999,994825320
98,8,20,Ticks_Linear_8,165,9999,9999,9999,995315800
98,8,20,Ticks_Linear_8,166,9999,9999,9999,995805248
98,8,20,Ticks_Linear_8,167,9999,9999,9999,996295804
98,8,20,Ticks_Linear_8,168,9999,9999,9999,996785252
98,8,20,Ticks_Linear_8,169,9999,9999,9999,997275736
98,9,10,Ticks_ISO_T2_5,0,5,42,127,1006076240
98,9,10,Ticks_ISO_T2_5,1,5,42,127,1006576108
98,9,10,Ticks_ISO_T2_5,2,1,48,52,1007065612
98,9,10,Ticks_ISO_T2_5,3,5,42,127,1007075596
98,9,10,Ticks_ISO_T2_5,4,1,48,59,1007570024
98,9,10,Ticks_ISO_T2_5,5,5,42,127,1007576488
98,9,10,Ticks_ISO_T2_5,6,1,48,61,1008066576
98,9,10,Ticks_ISO_T2_5,7,5,42,127,1008076104
98,9,10,Ticks_ISO_T2_5,8,1,48,59,1008567840
98,9,10,Ticks_ISO_T2_5,9,5,42,127,1008575948
98,9,10,Ticks_ISO_T2_5,10,1,48,52,1009050256
98,9,10,Ticks_ISO_T2_5,11,5,42,127,1009075496
98,9,10,Ticks_ISO_T2_5,12,1,48,55,1009567228
98,9,10,Ticks_ISO_T2_5,13,5,42,127,1009576236
98,9,10,Ticks_ISO_T2_5,14,5,42,127,1010076088
98,9,10,Ticks_ISO_T2_5,15,1,48,50,1010086164
98,9,10,Ticks_ISO_T2_5,16,1,48,53,1010572900
98,9,10,Ticks_ISO_T2_5,17,5,42,127,1010575700
98,9,10,Ticks_ISO_T2_5,18,1,48,55,1011056632
98,9,10,Ticks_ISO_T2_5,19,5,42,127,1011075396
98,9,10,Ticks_ISO_T2_5,20,1,48,56,1011548704
98,9,10,Ticks_ISO_T2_5,21,5,42,127,1011576188
98,9,10,Ticks_ISO_T2_5,22,1,48,53,1012054232
98,9,10,Ticks_ISO_T2_5,23,5,42,127,1012076028
98,9,10,Ticks_ISO_T2_5,24,1,48,51,1012569264
98,9,10,Ticks_ISO_T2_5,25,5,42,127,1012575652
98,9,10,Ticks_ISO_T2_5,26,1,48,40,1013056840
98,9,10,Ticks_ISO_T2_5,27,5,42,127,1013076392
98,9,10,Ticks_ISO_T2_5,28,1,48,46,1013551820
98,9,10,Ticks_ISO_T2_5,29,5,42,127,1013575940
98,9,10,Ticks_ISO_T2_5,30,1,48,42,1014045452
98,9,10,Ticks_ISO_T2_5,31,5,42,127,1014075708
98,9,10,Ticks_ISO_T2_5,32,1,48,47,1014554348
98,9,10,Ticks_ISO_T2_5,33,5,42,127,1014575404
98,9,10,Ticks_ISO_T2_5,34,1,48,51,1015059280
98,9,10,Ticks_ISO_T2_5,35,5,42,127,1015076220
98,9,10,Ticks_ISO_T2_5,36,1,48,47,1015541776
98,9,10,Ticks_ISO_T2_5,37,5,42,127,1015576064
98,9,10,Ticks_ISO_T2_5,38,1,48,52,1016072432
98,9,10,Ticks_ISO_T2_5,39,5,42,127,1016075756
98,9,10,Ticks_ISO_T2_5,40,1,48,53,1016572280
98,9,10,Ticks_ISO_T2_5,41,5,42,127,1016576500
98,9,10,Ticks_ISO_T2_5,42,1,48,55,1017062996
98,9,10,Ticks_ISO_T2_5,43,5,42,127,1017076044
98,9,10,Ticks_ISO_T2_5,44,5,42,127,1017575896
98,9,10,Ticks_ISO_T2_5,45,1,48,50,1017585444
98,9,10,Ticks_ISO_T2_5,46,5,42,127,1018075592
98,9,10,Ticks_ISO_T2_5,47,1,48,47,1018093968
98,9,10,Ticks_ISO_T2_5,48,1,48,45,1018565516
98,9,10,Ticks_ISO_T2_5,49,5,42,127,1018576176
98,9,10,Ticks_ISO_T2_5,50,1,48,51,1019048092
98,9,10,Ticks_ISO_T2_5,51,5,42,127,1019076020
98,9,10,Ticks_ISO_T2_5,52,1,48,49,1019537384
98,9,10,Ticks_ISO_T2_5,53,5,42,127,1019575640
98,9,10,Ticks_ISO_T2_5,54,1,48,53,1020036556
98,9,10,Ticks_ISO_T2_5,55,5,42,127,1020076384
98,9,10,Ticks_ISO_T2_5,56,1,48,55,1020568792
98,9,10,Ticks_ISO_T2_5,57,5,42,127,1020576152
98,9,10,Ticks_ISO_T2_5,58,1,48,54,1021058088
98,9,10,Ticks_ISO_T2_5,59,5,42,127,1021075844
98,9,10,Ticks_ISO_T2_5,60,1,48,56,1021555580
98,9,10,Ticks_ISO_T2_5,61,5,42,127,1021575464
98,9,10,Ticks_ISO_T2_5,62,1,48,51,1022065828
98,9,10,Ticks_ISO_T2_5,63,5,42,127,1022076356
98,9,10,Ticks_ISO_T2_5,64,1,48,53,1022552952
98,9,10,Ticks_ISO_T2_5,65,5,42,127,1022575876
98,9,10,Ticks_ISO_T2_5,66,1,48,56,1023052948
98,9,10,Ticks_ISO_T2_5,67,5,42,127,1023075796
98,9,10,Ticks_ISO_T2_5,68,1,48,56,1023549952
98,9,10,Ticks_ISO_T2_5,69,5,42,127,1023576392
98,9,10,Ticks_ISO_T2_5,70,1,48,54,1024071260
98,9,10,Ticks_ISO_T2_5,71,5,42,127,1024076080
98,9,10,Ticks_ISO_T2_5,72,1,48,55,1024561904
98,9,10,Ticks_ISO_T2_5,73,5,42,127,1024575776
98,9,10,Ticks_ISO_T2_5,74,1,48,57,1025060404
98,9,10,Ticks_ISO_T2_5,75,5,42,127,1025075696
98,9,10,Ticks_ISO_T2_5,76,1,48,56,1025557476
98,9,10,Ticks_ISO_T2_5,77,5,42,127,1025576360
98,9,10,Ticks_ISO_T2_5,78,1,48,57,1026064804
98,9,10,Ticks_ISO_T2_5,79,5,42,127,1026076056
98,9,10,Ticks_ISO_T2_5,80,1,48,52,1026575980
98,9,10,Ticks_ISO_T2_5,81,5,42,127,1026577248
98,9,10,Ticks_ISO_T2_5,82,1,48,55,1027046240
98,9,10,Ticks_ISO_T2_5,83,5,42,127,1027075448
98,9,10,Ticks_ISO_T2_5,84,1,48,52,1027516388
98,9,10,Ticks_ISO_T2_5,85,5,42,127,1027576112
98,9,10,Ticks_ISO_T2_5,86,1,48,48,1028052364
98,9,10,Ticks_ISO_T2_5,87,5,42,127,1028075956
98,9,10,Ticks_ISO_T2_5,88,1,48,55,1028547648
98,9,10,Ticks_ISO_T2_5,89,5,42,127,1028575800
98,9,10,Ticks_ISO_T2_5,90,1,48,49,1029041804
98,9,10,Ticks_ISO_T2_5,91,5,42,127,1029076320
98,9,10,Ticks_ISO_T2_5,92,1,48,49,1029570144
98,9,10,Ticks_ISO_T2_5,93,5,42,127,1029576012
98,9,10,Ticks_ISO_T2_5,94,1,48,48,1030059072
98,9,10,Ticks_ISO_T2_5,95,5,42,127,1030075932
98,9,10,Ticks_ISO_T2_5,96,1,48,49,1030543200
98,9,10,Ticks_ISO_T2_5,97,5,42,127,1030575476
98,9,10,Ticks_ISO_T2_5,98,1,48,49,1031049180
98,9,10,Ticks_ISO_T2_5,99,5,42,127,1031076144
98,9,10,Ticks_ISO_T2_5,100,1,48,46,1031545964
98,9,10,Ticks_ISO_T2_5,101,5,42,127,1031575840
98,9,10,Ticks_ISO_T2_5,102,1,48,51,1032058224
98,9,10,Ticks_ISO_T2_5,103,5,42,127,1032075832
98,9,10,Ticks_ISO_T2_5,104,1,48,55,1032537920
98,9,10,Ticks_ISO_T2_5,105,5,42,127,1032576352
98,9,10,Ticks_ISO_T2_5,106,1,48,57,1033049056
98,9,10,Ticks_ISO_T2_5,107,5,42,127,1033076020
98,9,10,Ticks_ISO_T2_5,108,1,48,54,1033540900
98,9,10,Ticks_ISO_T2_5,109,5,42,127,1033575940
98,9,10,Ticks_ISO_T2_5,110,1,48,49,1034072608
98,9,10,Ticks_ISO_T2_5,111,5,42,127,1034075708
98,9,10,Ticks_ISO_T2_5,112,1,48,56,1034563400
98,9,10,Ticks_ISO_T2_5,113,5,42,127,1034576228
98,9,10,Ticks_ISO_T2_5,114,1,48,59,1035054496
98,9,10,Ticks_ISO_T2_5,115,5,42,127,1035075920
98,9,10,Ticks_ISO_T2_5,116,1,48,55,1035573500
98,9,10,Ticks_ISO_T2_5,117,5,42,127,1035575840
98,9,10,Ticks_ISO_T2_5,118,5,42,127,1036076292
98,9,10,Ticks_ISO_T2_5,119,1,48,54,1036081504
98,9,10,Ticks_ISO_T2_5,120,5,42,127,1036576208
98,9,10,Ticks_ISO_T2_5,121,1,48,59,1036582992
98,9,10,Ticks_ISO_T2_5,122,1,48,53,1037063524
98,9,10,Ticks_ISO_T2_5,123,5,42,127,1037075748
98,9,10,Ticks_ISO_T2_5,124,1,48,54,1037543392
98,9,10,Ticks_ISO_T2_5,125,5,42,127,1037575812
98,9,10,Ticks_ISO_T2_5,126,5,42,127,1038076264
98,9,10,Ticks_ISO_T2_5,127,1,48,52,1038079608
98,9,10,Ticks_ISO_T2_5,128,5,42,127,1038575884
98,9,10,Ticks_ISO_T2_5,129,1,48,51,1038590672
98,9,10,Ticks_ISO_T2_5,130,5,42,127,1039075804
98,9,10,Ticks_ISO_T2_5,131,1,48,53,1039080720
98,9,10,Ticks_ISO_T2_5,132,1,48,55,1039571568
98,9,10,Ticks_ISO_T2_5,133,5,42,127,1039576392
98,9,10,Ticks_ISO_T2_5,134,5,42,127,1040076092
98,9,10,Ticks_ISO_T2_5,135,1,48,53,1040090580
98,9,10,Ticks_ISO_T2_5,136,1,48,52,1040556896
98,9,10,Ticks_ISO_T2_5,137,5,42,127,1040575928
98,9,10,Ticks_ISO_T2_5,138,1,48,53,1041059888
98,9,10,Ticks_ISO_T2_5,139,5,42,127,1041075772
98,9,10,Ticks_ISO_T2_5,140,1,48,57,1041567284
98,9,10,Ticks_ISO_T2_5,141,5,42,127,1041576292
98,9,10,Ticks_ISO_T2_5,142,1,48,51,1042066532
98,9,10,Ticks_ISO_T2_5,143,5,42,127,1042075988
98,9,10,Ticks_ISO_T2_5,144,1,48,53,1042563456
98,9,10,Ticks_ISO_T2_5,145,5,42,127,1042575832
98,9,10,Ticks_ISO_T2_5,146,1,48,58,1043040316
98,9,10,Ticks_ISO_T2_5,147,5,42,127,1043075600
98,9,10,Ticks_ISO_T2_5,148,1,48,53,1043570752
98,9,10,Ticks_ISO_T2_5,149,5,42,127,1043576092
98,9,10,Ticks_ISO_T2_5,150,1,48,51,1044072688
98,9,10,Ticks_ISO_T2_5,151,5,42,127,1044076008
98,9,10,Ticks_ISO_T2_5,152,1,48,60,1044553528
98,9,10,Ticks_ISO_T2_5,153,5,42,127,1044575556
98,9,10,Ticks_ISO_T2_5,154,1,48,58,1045068188
98,9,10,Ticks_ISO_T2_5,155,5,42,127,1045076448
98,9,10,Ticks_ISO_T2_5,156,1,48,57,1045546936
98,9,10,Ticks_ISO_T2_5,157,5,42,127,1045576216
98,9,10,Ticks_ISO_T2_5,158,5,42,127,1046075620
98,9,10,Ticks_ISO_T2_5,159,1,48,53,1046083524
98,9,10,Ticks_ISO_T2_5,160,1,48,60,1046574708
98,9,10,Ticks_ISO_T2_5,161,5,42,127,1046576284
98,9,10,Ticks_ISO_T2_5,162,1,48,60,1047062028
98,9,10,Ticks_ISO_T2_5,163,5,42,127,1047076348
98,9,10,Ticks_ISO_T2_5,164,5,42,127,1047575976
98,9,10,Ticks_ISO_T2_5,165,1,48,57,1047590760
98,9,10,Ticks_ISO_T2_5,166,5,42,127,1048075668
98,9,10,Ticks_ISO_T2_5,167,1,48,59,1048086340
98,9,10,Ticks_ISO_T2_5,168,5,42,127,1048576412
98,9,10,Ticks_ISO_T2_5,169,1,48,55,1048581548
98,9,10,Ticks_ISO_T2_5,170,5,42,127,1049075956
98,9,10,Ticks_ISO_T2_5,171,1,48,53,1049079448
98,9,10,Ticks_ISO_T2_5,172,1,48,52,1049567684
98,9,10,Ticks_ISO_T2_5,173,5,42,127,1049575792
98,9,10,Ticks_ISO_T2_5,174,1,48,51,1050056676
98,9,10,Ticks_ISO_T2_5,175,5,42,127,1050075488
98,9,10,Ticks_ISO_T2_5,176,1,48,51,1050574644
98,9,10,Ticks_ISO_T2_5,177,5,42,127,1050576080
98,9,10,Ticks_ISO_T2_5,178,1,48,56,1051054348
98,9,10,Ticks_ISO_T2_5,179,5,42,127,1051075924
98,9,10,Ticks_ISO_T2_5,180,1,48,48,1051571020
98,9,10,Ticks_ISO_T2_5,181,5,42,127,1051575692
98,9,10,Ticks_ISO_T2_5,182,1,48,47,1052070416
98,9,10,Ticks_ISO_T2_5,183,5,42,127,1052076436
98,9,10,Ticks_ISO_T2_5,184,1,48,52,1052567648
98,9,10,Ticks_ISO_T2_5,185,5,42,127,1052576204
98,9,10,Ticks_ISO_T2_5,186,5,42,127,1053075756
98,9,10,Ticks_ISO_T2_5,187,1,48,50,1053078428
98,9,10,Ticks_ISO_T2_5,188,5,42,127,1053575600
98,9,10,Ticks_ISO_T2_5,189,1,48,49,1053593304
98,9,10,Ticks_ISO_T2_5,190,1,48,50,1054063716
98,9,10,Ticks_ISO_T2_5,191,5,42,127,1054076484
98,9,10,Ticks_ISO_T2_5,192,1,48,48,1054533188
98,9,10,Ticks_ISO_T2_5,193,5,42,127,1054576080
98,9,10,Ticks_ISO_T2_5,194,5,42,127,1055075780
98,9,10,Ticks_ISO_T2_5,195,1,48,43,1055083240
98,9,10,Ticks_ISO_T2_5,196,1,48,52,1055570428
98,9,10,Ticks_ISO_T2_5,197,5,42,127,1055576524
98,9,10,Ticks_ISO_T2_5,198,1,48,46,1056073412
98,9,10,Ticks_ISO_T2_5,199,5,42,127,1056076068
98,9,10,Ticks_ISO_T2_5,200,5,42,127,1056575768
98,9,10,Ticks_ISO_T2_5,201,1,48,54,1056582624
98,9,10,Ticks_ISO_T2_5,202,5,42,127,1057075612
98,9,10,Ticks_ISO_T2_5,203,1,48,44,1057089876
98,9,10,Ticks_ISO_T2_5,204,1,48,47,1057558360
98,9,10,Ticks_ISO_T2_5,205,5,42,127,1057576644
98,9,10,Ticks_ISO_T2_5,206,1,48,49,1058061272
98,9,10,Ticks_ISO_T2_5,207,5,42,127,1058075968
98,9,10,Ticks_ISO_T2_5,208,1,48,48,1058556700
98,9,10,Ticks_ISO_T2_5,209,5,42,127,1058575736
98,9,10,Ticks_ISO_T2_5,210,1,48,48,1059055652
98,9,10,Ticks_ISO_T2_5,211,5,42,127,1059075432
98,9,10,Ticks_ISO_T2_5,212,1,48,54,1059535448
98,9,10,Ticks_ISO_T2_5,213,5,42,127,1059576396
98,9,10,Ticks_ISO_T2_5,214,1,48,56,1060069924
98,9,10,Ticks_ISO_T2_5,215,5,42,127,1060075792
98,9,10,Ticks_ISO_T2_5,216,1,48,52,1060564828
98,9,10,Ticks_ISO_T2_5,217,5,42,127,1060575488
98,9,10,Ticks_ISO_T2_5,218,1,48,50,1061062736
98,9,10,Ticks_ISO_T2_5,219,5,42,127,1061076528
98,9,10,Ticks_ISO_T2_5,220,1,48,46,1061563696
98,9,10,Ticks_ISO_T2_5,221,5,42,127,1061576368
98,9,10,Ticks_ISO_T2_5,222,1,48,54,1062071020
98,9,10,Ticks_ISO_T2_5,223,5,42,127,1062075692
98,9,10,Ticks_ISO_T2_5,224,5,42,127,1062575468
98,9,10,Ticks_ISO_T2_5,225,1,48,52,1062592272
98,9,10,Ticks_ISO_T2_5,226,1,48,54,1063068388
98,9,10,Ticks_ISO_T2_5,227,5,42,127,1063076352
98,9,10,Ticks_ISO_T2_5,228,1,48,33,1063125528
98,9,10,Ticks_ISO_T2_5,229,1,48,53,1063564472
98,9,10,Ticks_ISO_T2_5,230,5,42,127,1063576248
98,9,10,Ticks_ISO_T2_5,231,1,48,53,1064068360
98,9,10,Ticks_ISO_T2_5,232,5,42,127,1064075496
98,9,10,Ticks_ISO_T2_5,233,5,42,127,1064576396
98,9,10,Ticks_ISO_T2_5,234,1,48,51,1064591480
98,9,10,Ticks_ISO_T2_5,235,1,48,53,1065067492
98,9,10,Ticks_ISO_T2_5,236,5,42,127,1065076280
98,9,10,Ticks_ISO_T2_5,237,5,42,127,1065575684
98,9,10,Ticks_ISO_T2_5,238,1,48,49,1065593632
98,9,10,Ticks_ISO_T2_5,239,5,42,127,1066075452
98,9,10,Ticks_ISO_T2_5,240,1,48,49,1066076344
98,9,10,Ticks_ISO_T2_5,241,1,48,51,1066561644
98,9,10,Ticks_ISO_T2_5,242,5,42,127,1066576484
98,9,10,Ticks_ISO_T2_5,243,1,48,52,1067052140
98,9,10,Ticks_ISO_T2_5,244,5,42,127,1067076028
98,9,10,Ticks_ISO_T2_5,245,1,48,33,1067096036
98,9,10,Ticks_ISO_T2_5,246,1,48,53,1067567592
98,9,10,Ticks_ISO_T2_5,247,5,42,127,1067575700
98,9,10,Ticks_ISO_T2_5,248,1,48,48,1068065636
98,9,10,Ticks_ISO_T2_5,249,5,42,127,1068076296
98,9,10,Ticks_ISO_T2_5,250,5,42,127,1068576220
98,9,10,Ticks_ISO_T2_5,251,1,48,40,1068591160
98,9,10,Ticks_ISO_T2_5,252,5,42,127,1069075692
98,9,10,Ticks_ISO_T2_5,253,1,48,51,1069077632
98,9,10,Ticks_ISO_T2_5,254,5,42,127,1069575460
98,9,10,Ticks_ISO_T2_5,255,1,48,57,1069578356
98,9,10,Ticks_ISO_T2_5,256,5,42,127,1070076128
98,9,10,Ticks_ISO_T2_5,257,1,48,54,1070079248
98,9,10,Ticks_ISO_T2_5,258,5,42,127,1070576044
98,9,10,Ticks_ISO_T2_5,259,1,48,45,1070585972
98,9,10,Ticks_ISO_T2_5,260,1,48,48,1071048852
98,9,10,Ticks_ISO_T2_5,0,9999,9999,9999,1006073952
98,9,10,Ticks_ISO_T2_5,1,9999,9999,9999,1006573672
98,9,10,Ticks_ISO_T2_5,2,9999,9999,9999,1007073380
98,9,10,Ticks_ISO_T2_5,3,9999,9999,9999,1007574124
98,9,10,Ticks_ISO_T2_5,4,9999,9999,9999,1008073820
98,9,10,Ticks_ISO_T2_5,5,9999,9999,9999,1008573512
98,9,10,Ticks_ISO_T2_5,6,9999,9999,9999,1009073208
98,9,10,Ticks_ISO_T2_5,7,9999,9999,9999,1009573948
98,9,10,Ticks_ISO_T2_5,8,9999,9999,9999,1010073652
98,9,10,Ticks_ISO_T2_5,9,9999,9999,9999,1010573412
98,9,10,Ticks_ISO_T2_5,10,9999,9999,9999,1011073108
98,9,10,Ticks_ISO_T2_5,11,9999,9999,9999,1011573824
98,9,10,Ticks_ISO_T2_5,12,9999,9999,9999,1012073592
98,9,10,Ticks_ISO_T2_5,13,9999,9999,9999,1012573288
98,9,10,Ticks_ISO_T2_5,14,9999,9999,9999,1013074032
98,9,10,Ticks_ISO_T2_5,15,9999,9999,9999,1013573728
98,9,10,Ticks_ISO_T2_5,16,9999,9999,9999,1014073420
98,9,10,Ticks_ISO_T2_5,17,9999,9999,9999,1014573116
98,9,10,Ticks_ISO_T2_5,18,9999,9999,9999,1015073856
98,9,10,Ticks_ISO_T2_5,19,9999,9999,9999,1015573552
98,9,10,Ticks_ISO_T2_5,20,9999,9999,9999,1016073320
98,9,10,Ticks_ISO_T2_5,21,9999,9999,9999,1016574064
98,9,10,Ticks_ISO_T2_5,22,9999,9999,9999,1017073760
98,9,10,Ticks_ISO_T2_5,23,9999,9999,9999,1017573460
98,9,10,Ticks_ISO_T2_5,24,9999,9999,9999,1018073156
98,9,10,Ticks_ISO_T2_5,25,9999,9999,9999,1018573888
98,9,10,Ticks_ISO_T2_5,26,9999,9999,9999,1019073584
98,9,10,Ticks_ISO_T2_5,27,9999,9999,9999,1019573352
98,9,10,Ticks_ISO_T2_5,28,9999,9999,9999,1020074092
98,9,10,Ticks_ISO_T2_5,29,9999,9999,9999,1020573788
98,9,10,Ticks_ISO_T2_5,30,9999,9999,9999,1021073484
98,9,10,Ticks_ISO_T2_5,31,9999,9999,9999,1021573180
98,9,10,Ticks_ISO_T2_5,32,9999,9999,9999,1022073920
98,9,10,Ticks_ISO_T2_5,33,9999,9999,9999,1022573664
98,9,10,Ticks_ISO_T2_5,34,9999,9999,9999,1023073360
98,9,10,Ticks_ISO_T2_5,35,9999,9999,9999,1023574100
98,9,10,Ticks_ISO_T2_5,36,9999,9999,9999,1024073796
98,9,10,Ticks_ISO_T2_5,37,9999,9999,9999,1024573488
98,9,10,Ticks_ISO_T2_5,38,9999,9999,9999,1025073260
98,9,10,Ticks_ISO_T2_5,39,9999,9999,9999,1025574000
98,9,10,Ticks_ISO_T2_5,40,9999,9999,9999,1026073696
98,9,10,Ticks_ISO_T2_5,41,9999,9999,9999,1026573396
98,9,10,Ticks_ISO_T2_5,42,9999,9999,9999,1027073084
98,9,10,Ticks_ISO_T2_5,43,9999,9999,9999,1027573824
98,9,10,Ticks_ISO_T2_5,44,9999,9999,9999,1028073520
98,9,10,Ticks_ISO_T2_5,45,9999,9999,9999,1028573292
98,9,10,Ticks_ISO_T2_5,46,9999,9999,9999,1029074032
98,9,10,Ticks_ISO_T2_5,47,9999,9999,9999,1029573724
98,9,10,Ticks_ISO_T2_5,48,9999,9999,9999,1030073420
98,9,10,Ticks_ISO_T2_5,49,9999,9999,9999,1030573112
98,9,10,Ticks_ISO_T2_5,50,9999,9999,9999,1031073856
98,9,10,Ticks_ISO_T2_5,51,9999,9999,9999,1031573552
98,9,10,Ticks_ISO_T2_5,52,9999,9999,9999,1032073320
98,9,10,Ticks_ISO_T2_5,53,9999,9999,9999,1032574060
98,9,10,Ticks_ISO_T2_5,54,9999,9999,9999,1033073732
98,9,10,Ticks_ISO_T2_5,55,9999,9999,9999,1033573428
98,9,10,Ticks_ISO_T2_5,56,9999,9999,9999,1034073196
98,9,10,Ticks_ISO_T2_5,57,9999,9999,9999,1034573940
98,9,10,Ticks_ISO_T2_5,58,9999,9999,9999,1035073632
98,9,10,Ticks_ISO_T2_5,59,9999,9999,9999,1035573368
98,9,10,Ticks_ISO_T2_5,60,9999,9999,9999,1036074076
98,9,10,Ticks_ISO_T2_5,61,9999,9999,9999,1036573772
98,9,10,Ticks_ISO_T2_5,62,9999,9999,9999,1037073460
98,9,10,Ticks_ISO_T2_5,63,9999,9999,9999,1037573228
98,9,10,Ticks_ISO_T2_5,64,9999,9999,9999,1038073976
98,9,10,Ticks_ISO_T2_5,65,9999,9999,9999,1038573672
98,9,10,Ticks_ISO_T2_5,66,9999,9999,9999,1039073368
98,9,10,Ticks_ISO_T2_5,67,9999,9999,9999,1039574104
98,9,10,Ticks_ISO_T2_5,68,9999,9999,9999,1040073804
98,9,10,Ticks_ISO_T2_5,69,9999,9999,9999,1040573492
98,9,10,Ticks_ISO_T2_5,70,9999,9999,9999,1041073264
98,9,10,Ticks_ISO_T2_5,71,9999,9999,9999,1041574004
98,9,10,Ticks_ISO_T2_5,72,9999,9999,9999,1042073700
98,9,10,Ticks_ISO_T2_5,73,9999,9999,9999,1042573396
98,9,10,Ticks_ISO_T2_5,74,9999,9999,9999,1043073088
98,9,10,Ticks_ISO_T2_5,75,9999,9999,9999,1043573880
98,9,10,Ticks_ISO_T2_5,76,9999,9999,9999,1044073572
98,9,10,Ticks_ISO_T2_5,77,9999,9999,9999,1044573268
98,9,10,Ticks_ISO_T2_5,78,9999,9999,9999,1045074012
98,9,10,Ticks_ISO_T2_5,79,9999,9999,9999,1045573708
98,9,10,Ticks_ISO_T2_5,80,9999,9999,9999,1046073408
98,9,10,Ticks_ISO_T2_5,81,9999,9999,9999,1046573176
98,9,10,Ticks_ISO_T2_5,82,9999,9999,9999,1047073912
98,9,10,Ticks_ISO_T2_5,83,9999,9999,9999,1047573612
98,9,10,Ticks_ISO_T2_5,84,9999,9999,9999,1048073304
98,9,10,Ticks_ISO_T2_5,85,9999,9999,9999,1048574048
98,9,10,Ticks_ISO_T2_5,86,9999,9999,9999,1049073744
98,9,10,Ticks_ISO_T2_5,87,9999,9999,9999,1049573432
98,9,10,Ticks_ISO_T2_5,88,9999,9999,9999,1050073200
98,9,10,Ticks_ISO_T2_5,89,9999,9999,9999,1050573872
98,9,10,Ticks_ISO_T2_5,90,9999,9999,9999,1051073636
98,9,10,Ticks_ISO_T2_5,91,9999,9999,9999,1051573332
98,9,10,Ticks_ISO_T2_5,92,9999,9999,9999,1052074072
98,9,10,Ticks_ISO_T2_5,93,9999,9999,9999,1052573768
98,9,10,Ticks_ISO_T2_5,94,9999,9999,9999,1053073468
98,9,10,Ticks_ISO_T2_5,95,9999,9999,9999,1053573236
98,9,10,Ticks_ISO_T2_5,96,9999,9999,9999,1054073976
98,9,10,Ticks_ISO_T2_5,97,9999,9999,9999,1054573644
98,9,10,Ticks_ISO_T2_5,98,9999,9999,9999,1055073344
98,9,10,Ticks_ISO_T2_5,99,9999,9999,9999,1055574084
98,9,10,Ticks_ISO_T2_5,100,9999,9999,9999,1056073780
98,9,10,Ticks_ISO_T2_5,101,9999,9999,9999,1056573556
98,9,10,Ticks_ISO_T2_5,102,9999,9999,9999,1057073252
98,9,10,Ticks_ISO_T2_5,103,9999,9999,9999,1057573984
98,9,10,Ticks_ISO_T2_5,104,9999,9999,9999,1058073680
98,9,10,Ticks_ISO_T2_5,105,9999,9999,9999,1058573376
98,9,10,Ticks_ISO_T2_5,106,9999,9999,9999,1059073144
98,9,10,Ticks_ISO_T2_5,107,9999,9999,9999,1059573812
98,9,10,Ticks_ISO_T2_5,108,9999,9999,9999,1060073580
98,9,10,Ticks_ISO_T2_5,109,9999,9999,9999,1060573276
98,9,10,Ticks_ISO_T2_5,110,9999,9999,9999,1061074016
98,9,10,Ticks_ISO_T2_5,111,9999,9999,9999,1061573712
98,9,10,Ticks_ISO_T2_5,112,9999,9999,9999,1062073404
98,9,10,Ticks_ISO_T2_5,113,9999,9999,9999,1062573104
98,9,10,Ticks_ISO_T2_5,114,9999,9999,9999,1063073840
98,9,10,Ticks_ISO_T2_5,115,9999,9999,9999,1063573588
98,9,10,Ticks_ISO_T2_5,116,9999,9999,9999,1064073284
98,9,10,Ticks_ISO_T2_5,117,9999,9999,9999,1064574032
98,9,10,Ticks_ISO_T2_5,118,9999,9999,9999,1065073768
98,9,10,Ticks_ISO_T2_5,119,9999,9999,9999,1065573468
98,9,10,Ticks_ISO_T2_5,120,9999,9999,9999,1066073164
98,9,10,Ticks_ISO_T2_5,121,9999,9999,9999,1066573900
98,9,10,Ticks_ISO_T2_5,122,9999,9999,9999,1067073592
98,9,10,Ticks_ISO_T2_5,123,9999,9999,9999,1067573340
98,9,10,Ticks_ISO_T2_5,124,9999,9999,9999,1068074080
98,9,10,Ticks_ISO_T2_5,125,9999,9999,9999,1068573784
98,9,10,Ticks_ISO_T2_5,126,9999,9999,9999,1069073480
98,9,10,Ticks_ISO_T2_5,127,9999,9999,9999,1069573172
98,9,10,Ticks_ISO_T2_5,128,9999,9999,9999,1070073912
98,9,10,Ticks_ISO_T2_5,129,9999,9999,9999,1070573680
98,10,9,Ticks_ISO_T2_8,0,5,42,127,1081575964
98,10,9,Ticks_ISO_T2_8,1,5,42,127,1082375424
98,10,9,Ticks_ISO_T2_8,2,5,42,127,1083176300
98,10,9,Ticks_ISO_T2_8,3,1,48,49,1083183080
98,10,9,Ticks_ISO_T2_8,4,5,42,127,1083976180
98,10,9,Ticks_ISO_T2_8,5,1,48,54,1084003232
98,10,9,Ticks_ISO_T2_8,6,1,48,45,1084754108
98,10,9,Ticks_ISO_T2_8,7,5,42,127,1084775908
98,10,9,Ticks_ISO_T2_8,8,1,48,54,1085558108
98,10,9,Ticks_ISO_T2_8,9,5,42,127,1085575516
98,10,9,Ticks_ISO_T2_8,10,1,48,45,1086353372
98,10,9,Ticks_ISO_T2_8,11,5,42,127,1086376296
98,10,9,Ticks_ISO_T2_8,12,1,48,53,1087159320
98,10,9,Ticks_ISO_T2_8,13,5,42,127,1087176176
98,10,9,Ticks_ISO_T2_8,14,1,48,44,1087975544
98,10,9,Ticks_ISO_T2_8,15,5,42,127,1087976812
98,10,9,Ticks_ISO_T2_8,16,1,48,54,1088775652
98,10,9,Ticks_ISO_T2_8,17,5,42,127,1088776988
98,10,9,Ticks_ISO_T2_8,18,1,48,42,1089564724
98,10,9,Ticks_ISO_T2_8,19,5,42,127,1089576348
98,10,9,Ticks_ISO_T2_8,20,1,48,39,1090349124
98,10,9,Ticks_ISO_T2_8,21,5,42,127,1090376080
98,10,9,Ticks_ISO_T2_8,22,1,48,41,1091151844
98,10,9,Ticks_ISO_T2_8,23,5,42,127,1091175964
98,10,9,Ticks_ISO_T2_8,24,1,48,55,1091972920
98,10,9,Ticks_ISO_T2_8,25,5,42,127,1091975648
98,10,9,Ticks_ISO_T2_8,26,5,42,127,1092776284
98,10,9,Ticks_ISO_T2_8,27,1,48,53,1092789580
98,10,9,Ticks_ISO_T2_8,28,1,48,61,1093556532
98,10,9,Ticks_ISO_T2_8,29,5,42,127,1093576160
98,10,9,Ticks_ISO_T2_8,30,1,48,57,1094337116
98,10,9,Ticks_ISO_T2_8,31,5,42,127,1094375968
98,10,9,Ticks_ISO_T2_8,32,5,42,127,1095175484
98,10,9,Ticks_ISO_T2_8,33,1,48,54,1095190576
98,10,9,Ticks_ISO_T2_8,34,5,42,127,1095976240
98,10,9,Ticks_ISO_T2_8,35,1,48,59,1095981972
98,10,9,Ticks_ISO_T2_8,36,1,48,52,1096751772
98,10,9,Ticks_ISO_T2_8,37,5,42,127,1096776040
98,10,9,Ticks_ISO_T2_8,38,1,48,46,1097563848
98,10,9,Ticks_ISO_T2_8,39,5,42,127,1097575924
98,10,9,Ticks_ISO_T2_8,40,1,48,59,1098338604
98,10,9,Ticks_ISO_T2_8,41,5,42,127,1098375460
98,10,9,Ticks_ISO_T2_8,42,1,48,53,1099121356
98,10,9,Ticks_ISO_T2_8,43,5,42,127,1099176316
98,10,9,Ticks_ISO_T2_8,44,1,48,62,1099965316
98,10,9,Ticks_ISO_T2_8,45,5,42,127,1099975972
98,10,9,Ticks_ISO_T2_8,46,1,48,59,1100743284
98,10,9,Ticks_ISO_T2_8,47,5,42,127,1100775856
98,10,9,Ticks_ISO_T2_8,48,1,48,60,1101523272
98,10,9,Ticks_ISO_T2_8,49,5,42,127,1101575812
98,10,9,Ticks_ISO_T2_8,50,1,48,56,1102375400
98,10,9,Ticks_ISO_T2_8,51,5,42,127,1102376816
98,10,9,Ticks_ISO_T2_8,52,1,48,51,1103166272
98,10,9,Ticks_ISO_T2_8,53,5,42,127,1103176104
98,10,9,Ticks_ISO_T2_8,54,5,42,127,1103975772
98,10,9,Ticks_ISO_T2_8,55,1,48,50,1103981060
98,10,9,Ticks_ISO_T2_8,56,1,48,47,1104771896
98,10,9,Ticks_ISO_T2_8,57,5,42,127,1104775820
98,10,9,Ticks_ISO_T2_8,58,1,48,50,1105561984
98,10,9,Ticks_ISO_T2_8,59,5,42,127,1105576228
98,10,9,Ticks_ISO_T2_8,60,5,42,127,1106375968
98,10,9,Ticks_ISO_T2_8,61,1,48,44,1106401600
98,10,9,Ticks_ISO_T2_8,62,5,42,127,1107175700
98,10,9,Ticks_ISO_T2_8,63,1,48,57,1107237464
98,10,9,Ticks_ISO_T2_8,64,1,48,57,1107916832
98,10,9,Ticks_ISO_T2_8,65,5,42,127,1107975576
98,10,9,Ticks_ISO_T2_8,66,5,42,127,1108776440
98,10,9,Ticks_ISO_T2_8,67,1,48,54,1108809856
98,10,9,Ticks_ISO_T2_8,68,1,48,52,1109568732
98,10,9,Ticks_ISO_T2_8,69,5,42,127,1109575944
98,10,9,Ticks_ISO_T2_8,70,1,48,52,1110347664
98,10,9,Ticks_ISO_T2_8,71,5,42,127,1110375748
98,10,9,Ticks_ISO_T2_8,72,1,48,45,1111133112
98,10,9,Ticks_ISO_T2_8,73,5,42,127,1111175584
98,10,9,Ticks_ISO_T2_8,74,1,48,43,1111924692
98,10,9,Ticks_ISO_T2_8,75,5,42,127,1111976436
98,10,9,Ticks_ISO_T2_8,76,1,48,46,1112771052
98,10,9,Ticks_ISO_T2_8,77,5,42,127,1112775948
98,10,9,Ticks_ISO_T2_8,78,5,42,127,1113575688
98,10,9,Ticks_ISO_T2_8,79,1,48,51,1113581948
98,10,9,Ticks_ISO_T2_8,80,5,42,127,1114375420
98,10,9,Ticks_ISO_T2_8,81,1,48,50,1114378464
98,10,9,Ticks_ISO_T2_8,82,5,42,127,1115176496
98,10,9,Ticks_ISO_T2_8,83,1,48,53,1115179396
98,10,9,Ticks_ISO_T2_8,84,1,48,55,1115916728
98,10,9,Ticks_ISO_T2_8,85,5,42,127,1115975924
98,10,9,Ticks_ISO_T2_8,86,1,48,65,1116760444
98,10,9,Ticks_ISO_T2_8,87,5,42,127,1116775732
98,10,9,Ticks_ISO_T2_8,88,1,48,61,1117540580
98,10,9,Ticks_ISO_T2_8,89,5,42,127,1117575564
98,10,9,Ticks_ISO_T2_8,90,1,48,61,1118344748
98,10,9,Ticks_ISO_T2_8,91,5,42,127,1118376568
98,10,9,Ticks_ISO_T2_8,92,5,42,127,1119176012
98,10,9,Ticks_ISO_T2_8,93,1,48,58,1119190276
98,10,9,Ticks_ISO_T2_8,94,1,48,52,1119953040
98,10,9,Ticks_ISO_T2_8,95,5,42,127,1119975736
98,10,9,Ticks_ISO_T2_8,96,1,48,53,1120752028
98,10,9,Ticks_ISO_T2_8,97,5,42,127,1120775472
98,10,9,Ticks_ISO_T2_8,98,5,42,127,1121576560
98,10,9,Ticks_ISO_T2_8,99,1,48,67,1121579604
98,10,9,Ticks_ISO_T2_8,100,1,48,56,1122374864
98,10,9,Ticks_ISO_T2_8,101,5,42,127,1122376508
98,10,9,Ticks_ISO_T2_8,102,5,42,127,1123175804
98,10,9,Ticks_ISO_T2_8,103,1,48,59,1123193380
98,10,9,Ticks_ISO_T2_8,104,5,42,127,1123975560
98,10,9,Ticks_ISO_T2_8,105,1,48,55,1123979200
98,10,9,Ticks_ISO_T2_8,106,5,42,127,1124776416
98,10,9,Ticks_ISO_T2_8,107,1,48,53,1124785372
98,10,9,Ticks_ISO_T2_8,108,1,48,61,1125573264
98,10,9,Ticks_ISO_T2_8,109,5,42,127,1125575992
98,10,9,Ticks_ISO_T2_8,110,5,42,127,1126375660
98,10,9,Ticks_ISO_T2_8,111,1,48,54,1126388880
98,10,9,Ticks_ISO_T2_8,112,5,42,127,1127175544
98,10,9,Ticks_ISO_T2_8,113,1,48,59,1127184268
98,10,9,Ticks_ISO_T2_8,114,1,48,54,1127937984
98,10,9,Ticks_ISO_T2_8,115,5,42,127,1127976240
98,10,9,Ticks_ISO_T2_8,116,1,48,55,1128762408
98,10,9,Ticks_ISO_T2_8,117,5,42,127,1128775976
98,10,9,Ticks_ISO_T2_8,118,1,48,57,1129563032
98,10,9,Ticks_ISO_T2_8,119,5,42,127,1129575784
98,10,9,Ticks_ISO_T2_8,120,1,48,55,1130357408
98,10,9,Ticks_ISO_T2_8,121,5,42,127,1130375468
98,10,9,Ticks_ISO_T2_8,122,1,48,55,1131152876
98,10,9,Ticks_ISO_T2_8,123,5,42,127,1131176320
98,10,9,Ticks_ISO_T2_8,124,1,48,55,1131955976
98,10,9,Ticks_ISO_T2_8,125,5,42,127,1131976128
98,10,9,Ticks_ISO_T2_8,126,1,48,47,1132764316
98,10,9,Ticks_ISO_T2_8,127,5,42,127,1132775940
98,10,9,Ticks_ISO_T2_8,128,5,42,127,1133575456
98,10,9,Ticks_ISO_T2_8,129,1,48,51,1133581644
98,10,9,Ticks_ISO_T2_8,130,5,42,127,1134376160
98,10,9,Ticks_ISO_T2_8,131,1,48,52,1134380996
98,10,9,Ticks_ISO_T2_8,132,1,48,60,1135130524
98,10,9,Ticks_ISO_T2_8,133,5,42,127,1135176260
98,10,9,Ticks_ISO_T2_8,134,5,42,127,1135976296
98,10,9,Ticks_ISO_T2_8,135,1,48,46,1136012952
98,10,9,Ticks_ISO_T2_8,136,5,42,127,1136775460
98,10,9,Ticks_ISO_T2_8,137,1,48,46,1136798852
98,10,9,Ticks_ISO_T2_8,138,1,48,56,1137572680
98,10,9,Ticks_ISO_T2_8,139,5,42,127,1137576236
98,10,9,Ticks_ISO_T2_8,140,5,42,127,1138375972
98,10,9,Ticks_ISO_T2_8,141,1,48,51,1138382084
98,10,9,Ticks_ISO_T2_8,142,5,42,127,1139175784
98,10,9,Ticks_ISO_T2_8,143,1,48,49,1139178452
98,10,9,Ticks_ISO_T2_8,144,1,48,54,1139968220
98,10,9,Ticks_ISO_T2_8,145,5,42,127,1139975508
98,10,9,Ticks_ISO_T2_8,146,1,48,57,1140754492
98,10,9,Ticks_ISO_T2_8,147,5,42,127,1140776288
98,10,9,Ticks_ISO_T2_8,148,1,48,32,1140801612
98,10,9,Ticks_ISO_T2_8,149,1,48,54,1141574116
98,10,9,Ticks_ISO_T2_8,150,5,42,127,1141576000
98,10,9,Ticks_ISO_T2_8,151,5,42,127,1142375816
98,10,9,Ticks_ISO_T2_8,152,1,48,43,1142382600
98,10,9,Ticks_ISO_T2_8,153,1,48,53,1143119188
98,10,9,Ticks_ISO_T2_8,154,5,42,127,1143175568
98,10,9,Ticks_ISO_T2_8,155,1,48,58,1143951328
98,10,9,Ticks_ISO_T2_8,156,5,42,127,1143976196
98,10,9,Ticks_ISO_T2_8,157,5,42,127,1144776012
98,10,9,Ticks_ISO_T2_8,158,1,48,56,1144782124
98,10,9,Ticks_ISO_T2_8,159,5,42,127,1145575672
98,10,9,Ticks_ISO_T2_8,160,1,48,47,1145607216
98,10,9,Ticks_ISO_T2_8,161,5,42,127,1146375404
98,10,9,Ticks_ISO_T2_8,162,1,48,51,1146387652
98,10,9,Ticks_ISO_T2_8,163,1,48,44,1147099480
98,10,9,Ticks_ISO_T2_8,164,5,42,127,1147176252
98,10,9,Ticks_ISO_T2_8,165,1,48,58,1147951124
98,10,9,Ticks_ISO_T2_8,166,5,42,127,1147976208
98,10,9,Ticks_ISO_T2_8,167,5,42,127,1148775800
98,10,9,Ticks_ISO_T2_8,168,1,48,52,1148779292
98,10,9,Ticks_ISO_T2_8,169,1,48,51,1149562952
98,10,9,Ticks_ISO_T2_8,170,5,42,127,1149575628
98,10,9,Ticks_ISO_T2_8,171,1,48,55,1150351396
98,10,9,Ticks_ISO_T2_8,172,5,42,127,1150376256
98,10,9,Ticks_ISO_T2_8,173,1,48,38,1151155912
98,10,9,Ticks_ISO_T2_8,174,5,42,127,1151176140
98,10,9,Ticks_ISO_T2_8,175,1,48,47,1151967468
98,10,9,Ticks_ISO_T2_8,176,5,42,127,1151975800
98,10,9,Ticks_ISO_T2_8,177,1,48,44,1152771012
98,10,9,Ticks_ISO_T2_8,178,5,42,127,1152775460
98,10,9,Ticks_ISO_T2_8,179,5,42,127,1153576248
98,10,9,Ticks_ISO_T2_8,180,1,48,49,1153585724
98,10,9,Ticks_ISO_T2_8,181,1,48,47,1154370928
98,10,9,Ticks_ISO_T2_8,182,5,42,127,1154376120
98,10,9,Ticks_ISO_T2_8,183,5,42,127,1155175936
98,10,9,Ticks_ISO_T2_8,184,1,48,46,1155184440
98,10,9,Ticks_ISO_T2_8,185,5,42,127,1155975396
98,10,9,Ticks_ISO_T2_8,186,1,48,47,1155993176
98,10,9,Ticks_ISO_T2_8,187,1,48,48,1156772924
98,10,9,Ticks_ISO_T2_8,188,5,42,127,1156776244
98,10,9,Ticks_ISO_T2_8,189,5,42,127,1157575984
98,10,9,Ticks_ISO_T2_8,190,1,48,40,1157596384
98,10,9,Ticks_ISO_T2_8,191,1,48,51,1158365128
98,10,9,Ticks_ISO_T2_8,192,5,42,127,1158376232
98,10,9,Ticks_ISO_T2_8,193,1,48,49,1159153496
98,10,9,Ticks_ISO_T2_8,194,5,42,127,1159175520
98,10,9,Ticks_ISO_T2_8,195,5,42,127,1159976380
98,10,9,Ticks_ISO_T2_8,196,1,48,47,1159980920
98,10,9,Ticks_ISO_T2_8,197,5,42,127,1160776188
98,10,9,Ticks_ISO_T2_8,198,1,48,48,1160797564
98,10,9,Ticks_ISO_T2_8,199,1,48,50,1161571316
98,10,9,Ticks_ISO_T2_8,200,5,42,127,1161576064
98,10,9,Ticks_ISO_T2_8,201,1,48,51,1162355820
98,10,9,Ticks_ISO_T2_8,202,5,42,127,1162375524
98,10,9,Ticks_ISO_T2_8,203,5,42,127,1163176388
98,10,9,Ticks_ISO_T2_8,204,1,48,56,1163178984
98,10,9,Ticks_ISO_T2_8,205,1,48,33,1163223912
98,10,9,Ticks_ISO_T2_8,206,5,42,127,1163976024
98,10,9,Ticks_ISO_T2_8,207,1,48,44,1164017588
98,10,9,Ticks_ISO_T2_8,208,5,42,127,1164775832
98,10,9,Ticks_ISO_T2_8,209,1,48,46,1164787932
98,10,9,Ticks_ISO_T2_8,210,1,48,49,1165544036
98,10,9,Ticks_ISO_T2_8,211,5,42,127,1165575488
98,10,9,Ticks_ISO_T2_8,212,1,48,48,1166368084
98,10,9,Ticks_ISO_T2_8,213,5,42,127,1166376264
98,10,9,Ticks_ISO_T2_8,214,5,42,127,1167176008
98,10,9,Ticks_ISO_T2_8,215,1,48,46,1167192516
98,10,9,Ticks_ISO_T2_8,216,5,42,127,1167975740
98,10,9,Ticks_ISO_T2_8,217,1,48,46,1167987560
98,10,9,Ticks_ISO_T2_8,218,5,42,127,1168775720
98,10,9,Ticks_ISO_T2_8,219,1,48,50,1168797920
98,10,9,Ticks_ISO_T2_8,220,1,48,52,1169542952
98,10,9,Ticks_ISO_T2_8,221,5,42,127,1169576272
98,10,9,Ticks_ISO_T2_8,222,1,48,52,1170333484
98,10,9,Ticks_ISO_T2_8,223,5,42,127,1170376080
98,10,9,Ticks_ISO_T2_8,224,5,42,127,1171175744
98,10,9,Ticks_ISO_T2_8,225,1,48,49,1171210652
98,10,9,Ticks_ISO_T2_8,226,5,42,127,1171975624
98,10,9,Ticks_ISO_T2_8,227,1,48,57,1172021080
98,10,9,Ticks_ISO_T2_8,228,1,48,51,1172764700
98,10,9,Ticks_ISO_T2_8,229,5,42,127,1172776248
98,10,9,Ticks_ISO_T2_8,230,1,48,53,1173558220
98,10,9,Ticks_ISO_T2_8,231,5,42,127,1173575908
98,10,9,Ticks_ISO_T2_8,232,1,48,52,1174364688
98,10,9,Ticks_ISO_T2_8,233,5,42,127,1174375716
98,10,9,Ticks_ISO_T2_8,234,1,48,55,1175164076
98,10,9,Ticks_ISO_T2_8,235,5,42,127,1175175624
98,10,9,Ticks_ISO_T2_8,236,5,42,127,1175976408
98,10,9,Ticks_ISO_T2_8,237,1,48,56,1175977376
98,10,9,Ticks_ISO_T2_8,238,5,42,127,1176776072
98,10,9,Ticks_ISO_T2_8,239,1,48,49,1176859448
98,10,9,Ticks_ISO_T2_8,240,1,48,49,1177551156
98,10,9,Ticks_ISO_T2_8,0,9999,9999,9999,1081573452
98,10,9,Ticks_ISO_T2_8,1,9999,9999,9999,1082373208
98,10,9,Ticks_ISO_T2_8,2,9999,9999,9999,1083173936
98,10,9,Ticks_ISO_T2_8,3,9999,9999,9999,1083973740
98,10,9,Ticks_ISO_T2_8,4,9999,9999,9999,1084773468
98,10,9,Ticks_ISO_T2_8,5,9999,9999,9999,1085573228
98,10,9,Ticks_ISO_T2_8,6,9999,9999,9999,1086374008
98,10,9,Ticks_ISO_T2_8,7,9999,9999,9999,1087173740
98,10,9,Ticks_ISO_T2_8,8,9999,9999,9999,1087973480
98,10,9,Ticks_ISO_T2_8,9,9999,9999,9999,1088773212
98,10,9,Ticks_ISO_T2_8,10,9999,9999,9999,1089573984
98,10,9,Ticks_ISO_T2_8,11,9999,9999,9999,1090373716
98,10,9,Ticks_ISO_T2_8,12,9999,9999,9999,1091173452
98,10,9,Ticks_ISO_T2_8,13,9999,9999,9999,1091973208
98,10,9,Ticks_ISO_T2_8,14,9999,9999,9999,1092773996
98,10,9,Ticks_ISO_T2_8,15,9999,9999,9999,1093573724
98,10,9,Ticks_ISO_T2_8,16,9999,9999,9999,1094373456
98,10,9,Ticks_ISO_T2_8,17,9999,9999,9999,1095173196
98,10,9,Ticks_ISO_T2_8,18,9999,9999,9999,1095973948
98,10,9,Ticks_ISO_T2_8,19,9999,9999,9999,1096773680
98,10,9,Ticks_ISO_T2_8,20,9999,9999,9999,1097573488
98,10,9,Ticks_ISO_T2_8,21,9999,9999,9999,1098373172
98,10,9,Ticks_ISO_T2_8,22,9999,9999,9999,1099173952
98,10,9,Ticks_ISO_T2_8,23,9999,9999,9999,1099973684
98,10,9,Ticks_ISO_T2_8,24,9999,9999,9999,1100773492
98,10,9,Ticks_ISO_T2_8,25,9999,9999,9999,1101573228
98,10,9,Ticks_ISO_T2_8,26,9999,9999,9999,1102373940
98,10,9,Ticks_ISO_T2_8,27,9999,9999,9999,1103173744
98,10,9,Ticks_ISO_T2_8,28,9999,9999,9999,1103973480
98,10,9,Ticks_ISO_T2_8,29,9999,9999,9999,1104773232
98,10,9,Ticks_ISO_T2_8,30,9999,9999,9999,1105573940
98,10,9,Ticks_ISO_T2_8,31,9999,9999,9999,1106373680
98,10,9,Ticks_ISO_T2_8,32,9999,9999,9999,1107173488
98,10,9,Ticks_ISO_T2_8,33,9999,9999,9999,1107973212
98,10,9,Ticks_ISO_T2_8,34,9999,9999,9999,1108774000
98,10,9,Ticks_ISO_T2_8,35,9999,9999,9999,1109573728
98,10,9,Ticks_ISO_T2_8,36,9999,9999,9999,1110373460
98,10,9,Ticks_ISO_T2_8,37,9999,9999,9999,1111173220
98,10,9,Ticks_ISO_T2_8,38,9999,9999,9999,1111974000
98,10,9,Ticks_ISO_T2_8,39,9999,9999,9999,1112773732
98,10,9,Ticks_ISO_T2_8,40,9999,9999,9999,1113573472
98,10,9,Ticks_ISO_T2_8,41,9999,9999,9999,1114373204
98,10,9,Ticks_ISO_T2_8,42,9999,9999,9999,1115173984
98,10,9,Ticks_ISO_T2_8,43,9999,9999,9999,1115973712
98,10,9,Ticks_ISO_T2_8,44,9999,9999,9999,1116773444
98,10,9,Ticks_ISO_T2_8,45,9999,9999,9999,1117573204
98,10,9,Ticks_ISO_T2_8,46,9999,9999,9999,1118373980
98,10,9,Ticks_ISO_T2_8,47,9999,9999,9999,1119173720
98,10,9,Ticks_ISO_T2_8,48,9999,9999,9999,1119973448
98,10,9,Ticks_ISO_T2_8,49,9999,9999,9999,1120773184
98,10,9,Ticks_ISO_T2_8,50,9999,9999,9999,1121573972
98,10,9,Ticks_ISO_T2_8,51,9999,9999,9999,1122373704
98,10,9,Ticks_ISO_T2_8,52,9999,9999,9999,1123173440
98,10,9,Ticks_ISO_T2_8,53,9999,9999,9999,1123973196
98,10,9,Ticks_ISO_T2_8,54,9999,9999,9999,1124773976
98,10,9,Ticks_ISO_T2_8,55,9999,9999,9999,1125573704
98,10,9,Ticks_ISO_T2_8,56,9999,9999,9999,1126373444
98,10,9,Ticks_ISO_T2_8,57,9999,9999,9999,1127173180
98,10,9,Ticks_ISO_T2_8,58,9999,9999,9999,1127973952
98,10,9,Ticks_ISO_T2_8,59,9999,9999,9999,1128773688
98,10,9,Ticks_ISO_T2_8,60,9999,9999,9999,1129573496
98,10,9,Ticks_ISO_T2_8,61,9999,9999,9999,1130373180
98,10,9,Ticks_ISO_T2_8,62,9999,9999,9999,1131173960
98,10,9,Ticks_ISO_T2_8,63,9999,9999,9999,1131973692
98,10,9,Ticks_ISO_T2_8,64,9999,9999,9999,1132773428
98,10,9,Ticks_ISO_T2_8,65,9999,9999,9999,1133573168
98,10,9,Ticks_ISO_T2_8,66,9999,9999,9999,1134373944
98,10,9,Ticks_ISO_T2_8,67,9999,9999,9999,1135173748
98,10,9,Ticks_ISO_T2_8,68,9999,9999,9999,1135973488
98,10,9,Ticks_ISO_T2_8,69,9999,9999,9999,1136773172
98,10,9,Ticks_ISO_T2_8,70,9999,9999,9999,1137573944
98,10,9,Ticks_ISO_T2_8,71,9999,9999,9999,1138373684
98,10,9,Ticks_ISO_T2_8,72,9999,9999,9999,1139173492
98,10,9,Ticks_ISO_T2_8,73,9999,9999,9999,1139973220
98,10,9,Ticks_ISO_T2_8,74,9999,9999,9999,1140774000
98,10,9,Ticks_ISO_T2_8,75,9999,9999,9999,1141573744
98,10,9,Ticks_ISO_T2_8,76,9999,9999,9999,1142373452
98,10,9,Ticks_ISO_T2_8,77,9999,9999,9999,1143173204
98,10,9,Ticks_ISO_T2_8,78,9999,9999,9999,1143973984
98,10,9,Ticks_ISO_T2_8,79,9999,9999,9999,1144773724
98,10,9,Ticks_ISO_T2_8,80,9999,9999,9999,1145573456
98,10,9,Ticks_ISO_T2_8,81,9999,9999,9999,1146373188
98,10,9,Ticks_ISO_T2_8,82,9999,9999,9999,1147173964
98,10,9,Ticks_ISO_T2_8,83,9999,9999,9999,1147973696
98,10,9,Ticks_ISO_T2_8,84,9999,9999,9999,1148773436
98,10,9,Ticks_ISO_T2_8,85,9999,9999,9999,1149573188
98,10,9,Ticks_ISO_T2_8,86,9999,9999,9999,1150373968
98,10,9,Ticks_ISO_T2_8,87,9999,9999,9999,1151173704
98,10,9,Ticks_ISO_T2_8,88,9999,9999,9999,1151973436
98,10,9,Ticks_ISO_T2_8,89,9999,9999,9999,1152773172
98,10,9,Ticks_ISO_T2_8,90,9999,9999,9999,1153573960
98,10,9,Ticks_ISO_T2_8,91,9999,9999,9999,1154373684
98,10,9,Ticks_ISO_T2_8,92,9999,9999,9999,1155173424
98,10,9,Ticks_ISO_T2_8,93,9999,9999,9999,1155973180
98,10,9,Ticks_ISO_T2_8,94,9999,9999,9999,1156773956
98,10,9,Ticks_ISO_T2_8,95,9999,9999,9999,1157573696
98,10,9,Ticks_ISO_T2_8,96,9999,9999,9999,1158373424
98,10,9,Ticks_ISO_T2_8,97,9999,9999,9999,1159173232
98,10,9,Ticks_ISO_T2_8,98,9999,9999,9999,1159973944
98,10,9,Ticks_ISO_T2_8,99,9999,9999,9999,1160773752
98,10,9,Ticks_ISO_T2_8,100,9999,9999,9999,1161573476
98,10,9,Ticks_ISO_T2_8,101,9999,9999,9999,1162373236
98,10,9,Ticks_ISO_T2_8,102,9999,9999,9999,1163173952
98,10,9,Ticks_ISO_T2_8,103,9999,9999,9999,1163973736
98,10,9,Ticks_ISO_T2_8,104,9999,9999,9999,1164773468
98,10,9,Ticks_ISO_T2_8,105,9999,9999,9999,1165573200
98,10,9,Ticks_ISO_T2_8,106,9999,9999,9999,1166373976
98,10,9,Ticks_ISO_T2_8,107,9999,9999,9999,1167173716
98,10,9,Ticks_ISO_T2_8,108,9999,9999,9999,1167973448
98,10,9,Ticks_ISO_T2_8,109,9999,9999,9999,1168773208
98,10,9,Ticks_ISO_T2_8,110,9999,9999,9999,1169573984
98,10,9,Ticks_ISO_T2_8,111,9999,9999,9999,1170373716
98,10,9,Ticks_ISO_T2_8,112,9999,9999,9999,1171173456
98,10,9,Ticks_ISO_T2_8,113,9999,9999,9999,1171973188
98,10,9,Ticks_ISO_T2_8,114,9999,9999,9999,1172773960
98,10,9,Ticks_ISO_T2_8,115,9999,9999,9999,1173573696
98,10,9,Ticks_ISO_T2_8,116,9999,9999,9999,1174373428
98,10,9,Ticks_ISO_T2_8,117,9999,9999,9999,1175173188
98,10,9,Ticks_ISO_T2_8,118,9999,9999,9999,1175973972
98,10,9,Ticks_ISO_T2_8,119,9999,9999,9999,1176773708
98,11,25,Jits_Pract_5,0,5,56,103,1223376192
98,11,25,Jits_Pract_5,1,5,63,98,1223379444
98,11,25,Jits_Pract_5,2,5,80,127,1223382488
98,11,25,Jits_Pract_5,0,5,56,103,1223875920
98,11,25,Jits_Pract_5,1,5,63,98,1223878940
98,11,25,Jits_Pract_5,2,5,80,127,1223882140
98,11,25,Jits_Pract_5,0,5,56,103,1224375960
98,11,25,Jits_Pract_5,1,5,80,127,1224385932
98,11,25,Jits_Pract_5,2,5,63,98,1224406392
98,11,25,Jits_Pract_5,0,5,63,98,1224826112
98,11,25,Jits_Pract_5,1,5,80,127,1224855864
98,11,25,Jits_Pract_5,2,5,56,103,1224866056
98,11,25,Jits_Pract_5,0,5,80,127,1225386224
98,11,25,Jits_Pract_5,1,5,56,103,1225395672
98,11,25,Jits_Pract_5,2,5,63,98,1225426244
98,11,25,Jits_Pract_5,0,5,63,98,1225875932
98,11,25,Jits_Pract_5,1,5,56,103,1225905608
98,11,25,Jits_Pract_5,2,5,80,127,1225915880
98,11,25,Jits_Pract_5,0,5,56,103,1226326416
98,11,25,Jits_Pract_5,1,5,63,98,1226375820
98,11,25,Jits_Pract_5,2,5,80,127,1226395980
98,11,25,Jits_Pract_5,0,5,80,127,1226836272
98,11,25,Jits_Pract_5,1,5,63,98,1226885752
98,11,25,Jits_Pract_5,2,5,56,103,1226925540
98,11,25,Jits_Pract_5,0,5,56,103,1227336016
98,11,25,Jits_Pract_5,1,5,63,98,1227365844
98,11,25,Jits_Pract_5,2,5,80,127,1227436520
98,11,25,Jits_Pract_5,0,5,56,103,1227835760
98,11,25,Jits_Pract_5,1,5,80,127,1227896176
98,11,25,Jits_Pract_5,2,5,63,98,1227925928
98,11,25,Jits_Pract_5,0,5,56,103,1228345624
98,11,25,Jits_Pract_5,1,5,63,98,1228355820
98,11,25,Jits_Pract_5,2,5,80,127,1228395832
98,11,25,Jits_Pract_5,0,5,63,98,1228836148
98,11,25,Jits_Pract_5,1,5,80,127,1228916044
98,11,25,Jits_Pract_5,2,5,56,103,1228926240
98,11,25,Jits_Pract_5,0,5,63,98,1229386072
98,11,25,Jits_Pract_5,1,5,56,103,1229425880
98,11,25,Jits_Pract_5,2,5,80,127,1229428952
98,11,25,Jits_Pract_5,0,5,56,103,1229845864
98,11,25,Jits_Pract_5,1,5,63,98,1229856060
98,11,25,Jits_Pract_5,2,5,80,127,1229895924
98,11,25,Jits_Pract_5,0,5,56,103,1230336460
98,11,25,Jits_Pract_5,1,5,63,98,1230339524
98,11,25,Jits_Pract_5,2,5,80,127,1230355796
98,11,25,Jits_Pract_5,0,9999,9999,9999,1223623780
98,11,25,Jits_Pract_5,1,9999,9999,9999,1224123504
98,11,25,Jits_Pract_5,2,9999,9999,9999,1224623180
98,11,25,Jits_Pract_5,3,9999,9999,9999,1225123892
98,11,25,Jits_Pract_5,4,9999,9999,9999,1225623628
98,11,25,Jits_Pract_5,5,9999,9999,9999,1226123376
98,11,25,Jits_Pract_5,6,9999,9999,9999,1226624076
98,11,25,Jits_Pract_5,7,9999,9999,9999,1227134008
98,11,25,Jits_Pract_5,8,9999,9999,9999,1227633752
98,11,25,Jits_Pract_5,9,9999,9999,9999,1228133472
98,11,25,Jits_Pract_5,10,9999,9999,9999,1228633140
98,11,25,Jits_Pract_5,11,9999,9999,9999,1229133932
98,11,25,Jits_Pract_5,12,9999,9999,9999,1229633656
98,11,25,Jits_Pract_5,13,9999,9999,9999,1230133308
98,11,25,Jits_Pract_5,14,9999,9999,9999,1230634080
98,12,25,Jits_Pract_5,0,5,56,103,1315155468
98,12,25,Jits_Pract_5,1,5,63,98,1315158496
98,12,25,Jits_Pract_5,2,5,80,127,1315161540
98,12,25,Jits_Pract_5,0,5,56,103,1315655264
98,12,25,Jits_Pract_5,1,5,63,98,1315658292
98,12,25,Jits_Pract_5,2,5,80,127,1315661336
98,12,25,Jits_Pract_5,0,5,56,103,1316154860
98,12,25,Jits_Pract_5,1,5,80,127,1316164832
98,12,25,Jits_Pract_5,2,5,63,98,1316184540
98,12,25,Jits_Pract_5,0,5,63,98,1316605528
98,12,25,Jits_Pract_5,1,5,80,127,1316634980
98,12,25,Jits_Pract_5,2,5,56,103,1316645176
98,12,25,Jits_Pract_5,3,1,48,56,1316663436
98,12,25,Jits_Pract_5,0,5,80,127,1317165380
98,12,25,Jits_Pract_5,1,5,56,103,1317174676
98,12,25,Jits_Pract_5,2,1,48,48,1317193532
98,12,25,Jits_Pract_5,3,5,63,98,1317205316
98,12,25,Jits_Pract_5,0,5,63,98,1317654752
98,12,25,Jits_Pract_5,1,5,56,103,1317684500
98,12,25,Jits_Pract_5,2,1,48,51,1317695068
98,12,25,Jits_Pract_5,3,5,80,127,1317696408
98,12,25,Jits_Pract_5,0,5,56,103,1318104468
98,12,25,Jits_Pract_5,1,5,63,98,1318154596
98,12,25,Jits_Pract_5,2,5,80,127,1318175280
98,12,25,Jits_Pract_5,3,1,48,52,1318181092
98,12,25,Jits_Pract_5,0,5,80,127,1318605368
98,12,25,Jits_Pract_5,1,1,48,51,1318639204
98,12,25,Jits_Pract_5,2,5,63,98,1318655340
98,12,25,Jits_Pract_5,3,5,56,103,1318695276
98,12,25,Jits_Pract_5,0,5,56,103,1319104772
98,12,25,Jits_Pract_5,1,5,63,98,1319134520
98,12,25,Jits_Pract_5,2,1,48,49,1319187384
98,12,25,Jits_Pract_5,3,5,80,127,1319205316
98,12,25,Jits_Pract_5,0,5,56,103,1319604552
98,12,25,Jits_Pract_5,1,1,48,42,1319660184
98,12,25,Jits_Pract_5,2,5,80,127,1319665236
98,12,25,Jits_Pract_5,3,5,63,98,1319694760
98,12,25,Jits_Pract_5,0,5,56,103,1320114672
98,12,25,Jits_Pract_5,1,1,48,47,1320122056
98,12,25,Jits_Pract_5,2,5,63,98,1320124712
98,12,25,Jits_Pract_5,3,5,80,127,1320164652
98,12,25,Jits_Pract_5,0,5,63,98,1320605304
98,12,25,Jits_Pract_5,1,1,48,46,1320620116
98,12,25,Jits_Pract_5,2,5,80,127,1320685020
98,12,25,Jits_Pract_5,3,5,56,103,1320695292
98,12,25,Jits_Pract_5,0,5,63,98,1321155048
98,12,25,Jits_Pract_5,1,1,48,46,1321179296
98,12,25,Jits_Pract_5,2,5,56,103,1321194748
98,12,25,Jits_Pract_5,3,5,80,127,1321197972
98,12,25,Jits_Pract_5,0,5,56,103,1321614800
98,12,25,Jits_Pract_5,1,5,63,98,1321625144
98,12,25,Jits_Pract_5,2,5,80,127,1321665008
98,12,25,Jits_Pract_5,3,1,48,49,1321678020
98,12,25,Jits_Pract_5,0,5,56,103,1322105356
98,12,25,Jits_Pract_5,1,5,63,98,1322108424
98,12,25,Jits_Pract_5,2,5,80,127,1322124544
98,12,25,Jits_Pract_5,3,1,48,46,1322154040
98,12,25,Jits_Pract_5,0,9999,9999,9999,1315402828
98,12,25,Jits_Pract_5,1,9999,9999,9999,1315902556
98,12,25,Jits_Pract_5,2,9999,9999,9999,1316402300
98,12,25,Jits_Pract_5,3,9999,9999,9999,1316902988
98,12,25,Jits_Pract_5,4,9999,9999,9999,1317402684
98,12,25,Jits_Pract_5,5,9999,9999,9999,1317902392
98,12,25,Jits_Pract_5,6,9999,9999,9999,1318402156
98,12,25,Jits_Pract_5,7,9999,9999,9999,1318902904
98,12,25,Jits_Pract_5,8,9999,9999,9999,1319402612
98,12,25,Jits_Pract_5,9,9999,9999,9999,1319902316
98,12,25,Jits_Pract_5,10,9999,9999,9999,1320403068
98,12,25,Jits_Pract_5,11,9999,9999,9999,1320902776
98,12,25,Jits_Pract_5,12,9999,9999,9999,1321402460
98,12,25,Jits_Pract_5,13,9999,9999,9999,1321902148
98,12,25,Jits_Pract_5,14,9999,9999,9999,1322402884
98,13,24,Jits_Pract_8,0,5,56,103,1331459408
98,13,24,Jits_Pract_8,1,5,63,98,1331462504
98,13,24,Jits_Pract_8,2,5,80,127,1331465628
98,13,24,Jits_Pract_8,0,5,56,103,1332260392
98,13,24,Jits_Pract_8,1,5,63,98,1332263336
98,13,24,Jits_Pract_8,2,5,80,127,1332266388
98,13,24,Jits_Pract_8,0,5,80,127,1332999660
98,13,24,Jits_Pract_8,1,5,63,98,1333089720
98,13,24,Jits_Pract_8,2,5,56,103,1333099940
98,13,24,Jits_Pract_8,0,5,56,103,1333819996
98,13,24,Jits_Pract_8,1,5,63,98,1333829896
98,13,24,Jits_Pract_8,2,5,80,127,1333919976
98,13,24,Jits_Pract_8,0,1,48,64,1334577900
98,13,24,Jits_Pract_8,1,5,63,98,1334589756
98,13,24,Jits_Pract_8,2,5,80,127,1334619432
98,13,24,Jits_Pract_8,3,5,56,103,1334650252
98,13,24,Jits_Pract_8,0,1,48,58,1335372172
98,13,24,Jits_Pract_8,1,5,56,103,1335389656
98,13,24,Jits_Pract_8,2,5,80,127,1335489988
98,13,24,Jits_Pract_8,3,5,63,98,1335540040
98,13,24,Jits_Pract_8,0,5,56,103,1336190196
98,13,24,Jits_Pract_8,1,1,48,70,1336213388
98,13,24,Jits_Pract_8,2,5,80,127,1336239348
98,13,24,Jits_Pract_8,3,5,63,98,1336280328
98,13,24,Jits_Pract_8,0,5,80,127,1337020008
98,13,24,Jits_Pract_8,1,1,48,63,1337025220
98,13,24,Jits_Pract_8,2,5,63,98,1337049604
98,13,24,Jits_Pract_8,3,5,56,103,1337120032
98,13,24,Jits_Pract_8,0,5,63,98,1337850272
98,13,24,Jits_Pract_8,1,1,48,59,1337862236
98,13,24,Jits_Pract_8,2,5,56,103,1337880016
98,13,24,Jits_Pract_8,3,5,80,127,1337940256
98,13,24,Jits_Pract_8,0,5,56,103,1338589496
98,13,24,Jits_Pract_8,1,5,80,127,1338592412
98,13,24,Jits_Pract_8,2,1,48,62,1338681392
98,13,24,Jits_Pract_8,3,5,63,98,1338710332
98,13,24,Jits_Pract_8,0,5,56,103,1339470092
98,13,24,Jits_Pract_8,1,1,48,54,1339486468
98,13,24,Jits_Pract_8,2,5,80,127,1339510124
98,13,24,Jits_Pract_8,3,5,63,98,1339520468
98,13,24,Jits_Pract_8,0,5,56,103,1340229936
98,13,24,Jits_Pract_8,1,5,80,127,1340249348
98,13,24,Jits_Pract_8,2,1,48,58,1340287392
98,13,24,Jits_Pract_8,3,5,63,98,1340330428
98,13,24,Jits_Pract_8,0,5,80,127,1341019520
98,13,24,Jits_Pract_8,1,1,48,51,1341075396
98,13,24,Jits_Pract_8,2,5,56,103,1341119936
98,13,24,Jits_Pract_8,3,5,63,98,1341130056
98,13,24,Jits_Pract_8,0,5,63,98,1341789624
98,13,24,Jits_Pract_8,1,5,80,127,1341850040
98,13,24,Jits_Pract_8,2,5,56,103,1341860312
98,13,24,Jits_Pract_8,3,1,48,60,1341869284
98,13,24,Jits_Pract_8,0,5,56,103,1342590300
98,13,24,Jits_Pract_8,1,1,48,60,1342607668
98,13,24,Jits_Pract_8,2,5,63,98,1342659900
98,13,24,Jits_Pract_8,3,5,80,127,1342663412
98,13,24,Jits_Pract_8,0,9999,9999,9999,1331857512
98,13,24,Jits_Pract_8,1,9999,9999,9999,1332657228
98,13,24,Jits_Pract_8,2,9999,9999,9999,1333458008
98,13,24,Jits_Pract_8,3,9999,9999,9999,1334257740
98,13,24,Jits_Pract_8,4,9999,9999,9999,1335057520
98,13,24,Jits_Pract_8,5,9999,9999,9999,1335857208
98,13,24,Jits_Pract_8,6,9999,9999,9999,1336658008
98,13,24,Jits_Pract_8,7,9999,9999,9999,1337457732
98,13,24,Jits_Pract_8,8,9999,9999,9999,1338257508
98,13,24,Jits_Pract_8,9,9999,9999,9999,1339057248
98,13,24,Jits_Pract_8,10,9999,9999,9999,1339857996
98,13,24,Jits_Pract_8,11,9999,9999,9999,1340657768
98,13,24,Jits_Pract_8,12,9999,9999,9999,1341457468
98,13,24,Jits_Pract_8,13,9999,9999,9999,1342257236
98,13,24,Jits_Pract_8,14,9999,9999,9999,1343058028
98,14,17,Jits_Phase_5,0,5,56,103,1373684228
98,14,17,Jits_Phase_5,1,5,63,98,1373687400
98,14,17,Jits_Phase_5,2,5,80,127,1373690372
98,14,17,Jits_Phase_5,0,5,56,103,1374183784
98,14,17,Jits_Phase_5,1,5,63,98,1374187032
98,14,17,Jits_Phase_5,2,5,80,127,1374190080
98,14,17,Jits_Phase_5,0,5,56,103,1374683508
98,14,17,Jits_Phase_5,1,5,80,127,1374693704
98,14,17,Jits_Phase_5,2,5,63,98,1374714312
98,14,17,Jits_Phase_5,0,5,63,98,1375134016
98,14,17,Jits_Phase_5,1,5,80,127,1375163616
98,14,17,Jits_Phase_5,2,5,56,103,1375174184
98,14,17,Jits_Phase_5,3,1,48,75,1375182256
98,14,17,Jits_Phase_5,0,1,48,70,1375647284
98,14,17,Jits_Phase_5,1,5,80,127,1375694436
98,14,17,Jits_Phase_5,2,5,56,103,1375704408
98,14,17,Jits_Phase_5,3,5,63,98,1375734160
98,14,17,Jits_Phase_5,0,5,63,98,1376183640
98,14,17,Jits_Phase_5,1,1,48,66,1376194852
98,14,17,Jits_Phase_5,2,5,56,103,1376214352
98,14,17,Jits_Phase_5,3,5,80,127,1376223580
98,14,17,Jits_Phase_5,0,5,56,103,1376634392
98,14,17,Jits_Phase_5,1,5,63,98,1376684520
98,14,17,Jits_Phase_5,2,5,80,127,1376703780
98,14,17,Jits_Phase_5,3,1,48,65,1376710716
98,14,17,Jits_Phase_5,0,5,80,127,1377134004
98,14,17,Jits_Phase_5,1,5,63,98,1377184356
98,14,17,Jits_Phase_5,2,1,48,61,1377193028
98,14,17,Jits_Phase_5,3,5,56,103,1377223988
98,14,17,Jits_Phase_5,0,5,56,103,1377633668
98,14,17,Jits_Phase_5,1,5,63,98,1377664416
98,14,17,Jits_Phase_5,2,1,48,57,1377708660
98,14,17,Jits_Phase_5,3,5,80,127,1377734084
98,14,17,Jits_Phase_5,0,5,56,103,1378134476
98,14,17,Jits_Phase_5,1,1,48,55,1378168260
98,14,17,Jits_Phase_5,2,5,80,127,1378193760
98,14,17,Jits_Phase_5,3,5,63,98,1378223436
98,14,17,Jits_Phase_5,0,1,48,53,1378642380
98,14,17,Jits_Phase_5,1,5,56,103,1378653488
98,14,17,Jits_Phase_5,2,5,63,98,1378664000
98,14,17,Jits_Phase_5,3,5,80,127,1378703712
98,14,17,Jits_Phase_5,0,5,63,98,1379144240
98,14,17,Jits_Phase_5,1,1,48,54,1379155008
98,14,17,Jits_Phase_5,2,5,80,127,1379224128
98,14,17,Jits_Phase_5,3,5,56,103,1379234248
98,14,17,Jits_Phase_5,0,1,48,57,1379685692
98,14,17,Jits_Phase_5,1,5,63,98,1379693908
98,14,17,Jits_Phase_5,2,5,56,103,1379733844
98,14,17,Jits_Phase_5,3,5,80,127,1379736984
98,14,17,Jits_Phase_5,0,5,56,103,1380153768
98,14,17,Jits_Phase_5,1,5,63,98,1380164040
98,14,17,Jits_Phase_5,2,1,48,54,1380193008
98,14,17,Jits_Phase_5,3,5,80,127,1380203916
98,14,17,Jits_Phase_5,0,5,56,103,1380644384
98,14,17,Jits_Phase_5,1,5,63,98,1380647524
98,14,17,Jits_Phase_5,2,1,48,54,1380662440
98,14,17,Jits_Phase_5,3,5,80,127,1380663860
98,14,17,Jits_Phase_5,0,1,48,55,1381151136
98,14,17,Jits_Phase_5,1,5,80,127,1381154240
98,14,17,Jits_Phase_5,2,5,56,103,1381164512
98,14,17,Jits_Phase_5,3,5,63,98,1381234136
98,14,17,Jits_Phase_5,0,5,63,98,1381643660
98,14,17,Jits_Phase_5,1,5,56,103,1381664044
98,14,17,Jits_Phase_5,2,1,48,54,1381685668
98,14,17,Jits_Phase_5,3,5,80,127,1381744076
98,14,17,Jits_Phase_5,0,5,56,103,1382153444
98,14,17,Jits_Phase_5,1,1,48,57,1382169672
98,14,17,Jits_Phase_5,2,5,80,127,1382193524
98,14,17,Jits_Phase_5,3,5,63,98,1382203720
98,14,17,Jits_Phase_5,0,5,80,127,1382644288
98,14,17,Jits_Phase_5,1,5,63,98,1382673740
98,14,17,Jits_Phase_5,2,1,48,51,1382680076
98,14,17,Jits_Phase_5,3,5,56,103,1382713672
98,14,17,Jits_Phase_5,0,5,56,103,1383164208
98,14,17,Jits_Phase_5,1,5,63,98,1383194256
98,14,17,Jits_Phase_5,2,1,48,46,1383206968
98,14,17,Jits_Phase_5,3,5,80,127,1383244224
98,14,17,Jits_Phase_5,0,5,80,127,1383664120
98,14,17,Jits_Phase_5,1,1,48,52,1383696760
98,14,17,Jits_Phase_5,2,5,56,103,1383704276
98,14,17,Jits_Phase_5,3,5,63,98,1383714472
98,14,17,Jits_Phase_5,0,5,80,127,1384144332
98,14,17,Jits_Phase_5,1,5,63,98,1384184196
98,14,17,Jits_Phase_5,2,1,48,59,1384187388
98,14,17,Jits_Phase_5,3,5,56,103,1384243528
98,14,17,Jits_Phase_5,0,5,56,103,1384644164
98,14,17,Jits_Phase_5,1,5,80,127,1384654288
98,14,17,Jits_Phase_5,2,1,48,55,1384686324
98,14,17,Jits_Phase_5,3,5,63,98,1384734072
98,14,17,Jits_Phase_5,0,5,80,127,1385143628
98,14,17,Jits_Phase_5,1,1,48,51,1385164132
98,14,17,Jits_Phase_5,2,5,63,98,1385204308
98,14,17,Jits_Phase_5,3,5,56,103,1385233756
98,14,17,Jits_Phase_5,0,5,56,103,1385644364
98,14,17,Jits_Phase_5,1,1,48,57,1385693712
98,14,17,Jits_Phase_5,2,5,80,127,1385703700
98,14,17,Jits_Phase_5,3,5,63,98,1385743712
98,14,17,Jits_Phase_5,0,1,48,51,1386191804
98,14,17,Jits_Phase_5,1,5,56,103,1386203460
98,14,17,Jits_Phase_5,2,5,63,98,1386213728
98,14,17,Jits_Phase_5,3,5,80,127,1386217164
98,14,17,Jits_Phase_5,0,5,80,127,1386654352
98,14,17,Jits_Phase_5,1,1,48,49,1386713816
98,14,17,Jits_Phase_5,2,5,63,98,1386744180
98,14,17,Jits_Phase_5,3,5,56,103,1386754452
98,14,17,Jits_Phase_5,0,5,56,103,1387153728
98,14,17,Jits_Phase_5,1,5,63,98,1387157056
98,14,17,Jits_Phase_5,2,5,80,127,1387160176
98,14,17,Jits_Phase_5,3,1,48,57,1387225188
98,14,17,Jits_Phase_5,0,5,80,127,1387674088
98,14,17,Jits_Phase_5,1,1,48,54,1387710620
98,14,17,Jits_Phase_5,2,5,63,98,1387724212
98,14,17,Jits_Phase_5,3,5,56,103,1387753960
98,14,17,Jits_Phase_5,0,5,56,103,1388154304
98,14,17,Jits_Phase_5,1,5,80,127,1388163376
98,14,17,Jits_Phase_5,2,1,48,53,1388192568
98,14,17,Jits_Phase_5,3,5,63,98,1388234092
98,14,17,Jits_Phase_5,0,5,56,103,1388664104
98,14,17,Jits_Phase_5,1,1,48,51,1388683212
98,14,17,Jits_Phase_5,2,5,63,98,1388684852
98,14,17,Jits_Phase_5,3,5,80,127,1388744044
98,14,17,Jits_Phase_5,0,5,80,127,1389144440
98,14,17,Jits_Phase_5,1,1,48,49,1389195980
98,14,17,Jits_Phase_5,2,5,63,98,1389214360
98,14,17,Jits_Phase_5,3,5,56,103,1389233472
98,14,17,Jits_Phase_5,0,5,80,127,1389663612
98,14,17,Jits_Phase_5,1,5,56,103,1389674052
98,14,17,Jits_Phase_5,2,5,63,98,1389684176
98,14,17,Jits_Phase_5,3,1,48,52,1389690360
98,14,17,Jits_Phase_5,0,5,80,127,1390154228
98,14,17,Jits_Phase_5,1,5,56,103,1390173416
98,14,17,Jits_Phase_5,2,1,48,50,1390185324
98,14,17,Jits_Phase_5,3,5,63,98,1390244084
98,14,17,Jits_Phase_5,0,1,48,58,1390651572
98,14,17,Jits_Phase_5,1,5,56,103,1390664248
98,14,17,Jits_Phase_5,2,5,80,127,1390693624
98,14,17,Jits_Phase_5,3,5,63,98,1390714184
98,14,17,Jits_Phase_5,0,5,63,98,1391153436
98,14,17,Jits_Phase_5,1,1,48,51,1391158500
98,14,17,Jits_Phase_5,2,5,56,103,1391214292
98,14,17,Jits_Phase_5,3,5,80,127,1391243740
98,14,17,Jits_Phase_5,0,5,63,98,1391644268
98,14,17,Jits_Phase_5,1,5,80,127,1391647412
98,14,17,Jits_Phase_5,2,1,48,48,1391679676
98,14,17,Jits_Phase_5,3,5,56,103,1391734116
98,14,17,Jits_Phase_5,0,5,56,103,1392164236
98,14,17,Jits_Phase_5,1,1,48,51,1392185416
98,14,17,Jits_Phase_5,2,5,63,98,1392193980
98,14,17,Jits_Phase_5,3,5,80,127,1392233792
98,14,17,Jits_Phase_5,0,5,63,98,1392664224
98,14,17,Jits_Phase_5,1,1,48,50,1392693496
98,14,17,Jits_Phase_5,2,5,56,103,1392704080
98,14,17,Jits_Phase_5,3,5,80,127,1392724312
98,14,17,Jits_Phase_5,0,5,63,98,1393174084
98,14,17,Jits_Phase_5,1,1,48,45,1393190460
98,14,17,Jits_Phase_5,2,5,56,103,1393214088
98,14,17,Jits_Phase_5,3,5,80,127,1393224284
98,14,17,Jits_Phase_5,0,5,80,127,1393654204
98,14,17,Jits_Phase_5,1,1,48,48,1393695088
98,14,17,Jits_Phase_5,2,5,63,98,1393723732
98,14,17,Jits_Phase_5,3,5,56,103,1393744336
98,14,17,Jits_Phase_5,0,5,56,103,1394143632
98,14,17,Jits_Phase_5,1,5,80,127,1394164240
98,14,17,Jits_Phase_5,2,1,48,51,1394178968
98,14,17,Jits_Phase_5,3,5,63,98,1394203948
98,14,17,Jits_Phase_5,0,1,48,46,1394651768
98,14,17,Jits_Phase_5,1,5,63,98,1394653580
98,14,17,Jits_Phase_5,2,5,80,127,1394673964
98,14,17,Jits_Phase_5,3,5,56,103,1394714124
98,14,17,Jits_Phase_5,0,1,48,47,1395149396
98,14,17,Jits_Phase_5,1,5,63,98,1395154372
98,14,17,Jits_Phase_5,2,5,56,103,1395173712
98,14,17,Jits_Phase_5,3,5,80,127,1395184132
98,14,17,Jits_Phase_5,0,1,48,45,1395636340
98,14,17,Jits_Phase_5,1,5,80,127,1395654192
98,14,17,Jits_Phase_5,2,5,56,103,1395673456
98,14,17,Jits_Phase_5,3,5,63,98,1395704100
98,14,17,Jits_Phase_5,0,1,48,50,1396148592
98,14,17,Jits_Phase_5,1,5,56,103,1396224436
98,14,17,Jits_Phase_5,2,5,80,127,1396227432
98,14,17,Jits_Phase_5,3,5,63,98,1396243908
98,14,17,Jits_Phase_5,0,5,63,98,1396644100
98,14,17,Jits_Phase_5,1,5,56,103,1396674072
98,14,17,Jits_Phase_5,2,1,48,46,1396690820
98,14,17,Jits_Phase_5,3,5,80,127,1396734232
98,14,17,Jits_Phase_5,0,1,48,45,1397136696
98,14,17,Jits_Phase_5,1,5,63,98,1397224152
98,14,17,Jits_Phase_5,2,5,56,103,1397235008
98,14,17,Jits_Phase_5,3,5,80,127,1397244232
98,14,17,Jits_Phase_5,0,5,56,103,1397683684
98,14,17,Jits_Phase_5,1,1,48,44,1397694676
98,14,17,Jits_Phase_5,2,5,80,127,1397714252
98,14,17,Jits_Phase_5,3,5,63,98,1397723552
98,14,17,Jits_Phase_5,0,1,48,47,1398179892
98,14,17,Jits_Phase_5,1,5,63,98,1398224128
98,14,17,Jits_Phase_5,2,5,56,103,1398233352
98,14,17,Jits_Phase_5,3,5,80,127,1398254032
98,14,17,Jits_Phase_5,0,5,56,103,1398654212
98,14,17,Jits_Phase_5,1,1,48,48,1398705656
98,14,17,Jits_Phase_5,2,5,63,98,1398713696
98,14,17,Jits_Phase_5,3,5,80,127,1398717132
98,14,17,Jits_Phase_5,0,5,80,127,1399173448
98,14,17,Jits_Phase_5,1,1,48,43,1399183792
98,14,17,Jits_Phase_5,2,5,56,103,1399185128
98,14,17,Jits_Phase_5,3,5,63,98,1399254432
98,14,17,Jits_Phase_5,0,5,80,127,1399664140
98,14,17,Jits_Phase_5,1,1,48,47,1399719324
98,14,17,Jits_Phase_5,2,5,56,103,1399733516
98,14,17,Jits_Phase_5,3,5,63,98,1399743936
98,14,17,Jits_Phase_5,0,5,63,98,1400203620
98,14,17,Jits_Phase_5,1,1,48,45,1400207260
98,14,17,Jits_Phase_5,2,5,56,103,1400213956
98,14,17,Jits_Phase_5,3,5,80,127,1400234416
98,14,17,Jits_Phase_5,0,5,80,127,1400654048
98,14,17,Jits_Phase_5,1,1,48,45,1400683116
98,14,17,Jits_Phase_5,2,5,63,98,1400713780
98,14,17,Jits_Phase_5,3,5,56,103,1400753720
98,14,17,Jits_Phase_5,0,5,56,103,1401193920
98,14,17,Jits_Phase_5,1,1,48,44,1401199284
98,14,17,Jits_Phase_5,2,5,63,98,1401203964
98,14,17,Jits_Phase_5,3,5,80,127,1401244120
98,14,17,Jits_Phase_5,0,5,56,103,1401653880
98,14,17,Jits_Phase_5,1,5,80,127,1401684228
98,14,17,Jits_Phase_5,2,1,48,47,1401686896
98,14,17,Jits_Phase_5,3,5,63,98,1401733400
98,14,17,Jits_Phase_5,0,5,56,103,1402194240
98,14,17,Jits_Phase_5,1,1,48,45,1402206280
98,14,17,Jits_Phase_5,2,5,63,98,1402234192
98,14,17,Jits_Phase_5,3,5,80,127,1402237484
98,14,17,Jits_Phase_5,0,5,56,103,1402693996
98,14,17,Jits_Phase_5,1,5,63,98,1402704116
98,14,17,Jits_Phase_5,2,1,48,47,1402709852
98,14,17,Jits_Phase_5,3,5,80,127,1402723892
98,14,17,Jits_Phase_5,0,5,56,103,1403153824
98,14,17,Jits_Phase_5,1,5,80,127,1403156968
98,14,17,Jits_Phase_5,2,1,48,46,1403189828
98,14,17,Jits_Phase_5,3,5,63,98,1403193680
98,14,17,Jits_Phase_5,0,5,63,98,1403693288
98,14,17,Jits_Phase_5,1,1,48,44,1403698352
98,14,17,Jits_Phase_5,2,5,56,103,1403724076
98,14,17,Jits_Phase_5,3,5,80,127,1403743636
98,14,17,Jits_Phase_5,0,5,80,127,1404163592
98,14,17,Jits_Phase_5,1,5,56,103,1404173936
98,14,17,Jits_Phase_5,2,1,48,46,1404175728
98,14,17,Jits_Phase_5,3,5,63,98,1404184052
98,14,17,Jits_Phase_5,0,5,56,103,1404664100
98,14,17,Jits_Phase_5,1,1,48,43,1404696960
98,14,17,Jits_Phase_5,2,5,80,127,1404704104
98,14,17,Jits_Phase_5,3,5,63,98,1404734000
98,14,17,Jits_Phase_5,0,1,48,45,1405172996
98,14,17,Jits_Phase_5,1,5,63,98,1405174564
98,14,17,Jits_Phase_5,2,5,80,127,1405184316
98,14,17,Jits_Phase_5,3,5,56,103,1405193464
98,14,17,Jits_Phase_5,0,5,56,103,1405663540
98,14,17,Jits_Phase_5,1,1,48,43,1405675348
98,14,17,Jits_Phase_5,2,5,63,98,1405734184
98,14,17,Jits_Phase_5,3,5,80,127,1405743408
98,14,17,Jits_Phase_5,0,5,80,127,1406173864
98,14,17,Jits_Phase_5,1,5,56,103,1406184060
98,14,17,Jits_Phase_5,2,1,48,37,1406199760
98,14,17,Jits_Phase_5,3,5,63,98,1406234104
98,14,17,Jits_Phase_5,0,5,80,127,1406683592
98,14,17,Jits_Phase_5,1,1,48,40,1406694056
98,14,17,Jits_Phase_5,2,5,56,103,1406743972
98,14,17,Jits_Phase_5,3,5,63,98,1406773796
98,14,17,Jits_Phase_5,0,5,56,103,1407184252
98,14,17,Jits_Phase_5,1,5,80,127,1407187244
98,14,17,Jits_Phase_5,2,5,63,98,1407224040
98,14,17,Jits_Phase_5,3,1,48,45,1407240784
98,14,17,Jits_Phase_5,0,5,56,103,1407713600
98,14,17,Jits_Phase_5,1,1,48,47,1407736792
98,14,17,Jits_Phase_5,2,5,63,98,1407744240
98,14,17,Jits_Phase_5,3,5,80,127,1407753540
98,14,17,Jits_Phase_5,0,5,63,98,1408223780
98,14,17,Jits_Phase_5,1,5,80,127,1408234048
98,14,17,Jits_Phase_5,2,1,48,43,1408236572
98,14,17,Jits_Phase_5,3,5,56,103,1408244012
98,14,17,Jits_Phase_5,0,5,80,127,1408674156
98,14,17,Jits_Phase_5,1,5,56,103,1408724432
98,14,17,Jits_Phase_5,2,5,63,98,1408727276
98,14,17,Jits_Phase_5,3,1,48,44,1408742468
98,14,17,Jits_Phase_5,0,5,56,103,1409203652
98,14,17,Jits_Phase_5,1,5,80,127,1409224040
98,14,17,Jits_Phase_5,2,1,48,38,1409225904
98,14,17,Jits_Phase_5,3,5,63,98,1409234376
98,14,17,Jits_Phase_5,0,5,63,98,1409683936
98,14,17,Jits_Phase_5,1,1,48,44,1409693352
98,14,17,Jits_Phase_5,2,5,56,103,1409713380
98,14,17,Jits_Phase_5,3,5,80,127,1409733988
98,14,17,Jits_Phase_5,0,5,56,103,1410194020
98,14,17,Jits_Phase_5,1,5,80,127,1410203992
98,14,17,Jits_Phase_5,2,1,48,46,1410207184
98,14,17,Jits_Phase_5,3,5,63,98,1410273812
98,14,17,Jits_Phase_5,0,5,63,98,1410684344
98,14,17,Jits_Phase_5,1,5,80,127,1410724208
98,14,17,Jits_Phase_5,2,1,48,42,1410726872
98,14,17,Jits_Phase_5,3,5,56,103,1410764284
98,14,17,Jits_Phase_5,0,5,56,103,1411194132
98,14,17,Jits_Phase_5,1,5,63,98,1411203356
98,14,17,Jits_Phase_5,2,5,80,127,1411223888
98,14,17,Jits_Phase_5,3,1,48,41,1411238244
98,14,17,Jits_Phase_5,0,1,48,35,1411726224
98,14,17,Jits_Phase_5,1,5,63,98,1411733748
98,14,17,Jits_Phase_5,2,5,80,127,1411754280
98,14,17,Jits_Phase_5,3,5,56,103,1411773840
98,14,17,Jits_Phase_5,0,5,56,103,1412174148
98,14,17,Jits_Phase_5,1,1,48,37,1412230848
98,14,17,Jits_Phase_5,2,5,80,127,1412253960
98,14,17,Jits_Phase_5,3,5,63,98,1412264228
98,14,17,Jits_Phase_5,0,5,80,127,1412713792
98,14,17,Jits_Phase_5,1,5,63,98,1412724064
98,14,17,Jits_Phase_5,2,1,48,38,1412733480
98,14,17,Jits_Phase_5,3,5,56,103,1412753952
98,14,17,Jits_Phase_5,0,5,63,98,1413173600
98,14,17,Jits_Phase_5,1,5,80,127,1413213684
98,14,17,Jits_Phase_5,2,1,48,46,1413243504
98,14,17,Jits_Phase_5,3,5,56,103,1413274016
98,14,17,Jits_Phase_5,0,5,63,98,1413683828
98,14,17,Jits_Phase_5,1,1,48,49,1413733656
98,14,17,Jits_Phase_5,2,5,56,103,1413735068
98,14,17,Jits_Phase_5,3,5,80,127,1413763324
98,14,17,Jits_Phase_5,0,5,80,127,1414184228
98,14,17,Jits_Phase_5,1,5,63,98,1414193748
98,14,17,Jits_Phase_5,2,1,48,44,1414228480
98,14,17,Jits_Phase_5,3,5,56,103,1414264044
98,14,17,Jits_Phase_5,0,1,48,50,1414735800
98,14,17,Jits_Phase_5,1,5,80,127,1414744372
98,14,17,Jits_Phase_5,2,5,56,103,1414753892
98,14,17,Jits_Phase_5,3,5,63,98,1414756956
98,14,17,Jits_Phase_5,0,5,56,103,1415183888
98,14,17,Jits_Phase_5,1,5,80,127,1415204200
98,14,17,Jits_Phase_5,2,5,63,98,1415213276
98,14,17,Jits_Phase_5,3,1,48,49,1415247104
98,14,17,Jits_Phase_5,0,5,63,98,1415693916
98,14,17,Jits_Phase_5,1,1,48,48,1415729920
98,14,17,Jits_Phase_5,2,5,56,103,1415733700
98,14,17,Jits_Phase_5,3,5,80,127,1415754084
98,14,17,Jits_Phase_5,0,5,63,98,1416194568
98,14,17,Jits_Phase_5,1,1,48,47,1416251400
98,14,17,Jits_Phase_5,2,5,56,103,1416253904
98,14,17,Jits_Phase_5,3,5,80,127,1416256820
98,14,17,Jits_Phase_5,0,5,56,103,1416654228
98,14,17,Jits_Phase_5,1,5,80,127,1416673640
98,14,17,Jits_Phase_5,2,5,63,98,1416713580
98,14,17,Jits_Phase_5,3,1,48,53,1416725540
98,14,17,Jits_Phase_5,0,1,48,47,1417176056
98,14,17,Jits_Phase_5,1,5,56,103,1417183800
98,14,17,Jits_Phase_5,2,5,63,98,1417204036
98,14,17,Jits_Phase_5,3,5,80,127,1417214304
98,14,17,Jits_Phase_5,0,5,80,127,1417653588
98,14,17,Jits_Phase_5,1,5,56,103,1417684532
98,14,17,Jits_Phase_5,2,1,48,46,1417689672
98,14,17,Jits_Phase_5,3,5,63,98,1417724388
98,14,17,Jits_Phase_5,0,5,80,127,1418163688
98,14,17,Jits_Phase_5,1,5,56,103,1418183996
98,14,17,Jits_Phase_5,2,1,48,50,1418204648
98,14,17,Jits_Phase_5,3,5,63,98,1418243404
98,14,17,Jits_Phase_5,0,5,56,103,1418673564
98,14,17,Jits_Phase_5,1,5,80,127,1418693948
98,14,17,Jits_Phase_5,2,1,48,46,1418731760
98,14,17,Jits_Phase_5,3,5,63,98,1418754404
98,14,17,Jits_Phase_5,0,5,80,127,1419153848
98,14,17,Jits_Phase_5,1,5,56,103,1419164120
98,14,17,Jits_Phase_5,2,1,48,46,1419195788
98,14,17,Jits_Phase_5,3,5,63,98,1419203904
98,14,17,Jits_Phase_5,0,5,63,98,1419653536
98,14,17,Jits_Phase_5,1,1,48,42,1419691412
98,14,17,Jits_Phase_5,2,5,56,103,1419693688
98,14,17,Jits_Phase_5,3,5,80,127,1419696756
98,14,17,Jits_Phase_5,0,5,63,98,1420173724
98,14,17,Jits_Phase_5,1,1,48,45,1420179616
98,14,17,Jits_Phase_5,2,5,80,127,1420213732
98,14,17,Jits_Phase_5,3,5,56,103,1420244300
98,14,17,Jits_Phase_5,0,5,56,103,1420664108
98,14,17,Jits_Phase_5,1,5,63,98,1420674456
98,14,17,Jits_Phase_5,2,1,48,47,1420687540
98,14,17,Jits_Phase_5,3,5,80,127,1420704120
98,14,17,Jits_Phase_5,0,5,80,127,1421153584
98,14,17,Jits_Phase_5,1,1,48,42,1421178004
98,14,17,Jits_Phase_5,2,5,63,98,1421224256
98,14,17,Jits_Phase_5,3,5,56,103,1421233628
98,14,17,Jits_Phase_5,0,5,63,98,1421654248
98,14,17,Jits_Phase_5,1,1,48,48,1421703096
98,14,17,Jits_Phase_5,2,5,56,103,1421724020
98,14,17,Jits_Phase_5,3,5,80,127,1421734364
98,14,17,Jits_Phase_5,0,5,63,98,1422133844
98,14,17,Jits_Phase_5,1,5,56,103,1422154004
98,14,17,Jits_Phase_5,2,5,80,127,1422193964
98,14,17,Jits_Phase_5,3,1,48,43,1422238884
98,14,17,Jits_Phase_5,0,5,56,103,1422624004
98,14,17,Jits_Phase_5,1,5,63,98,1422634496
98,14,17,Jits_Phase_5,2,5,80,127,1422714236
98,14,17,Jits_Phase_5,3,1,48,46,1422726496
98,14,17,Jits_Phase_5,0,5,63,98,1423113648
98,14,17,Jits_Phase_5,1,5,56,103,1423144444
98,14,17,Jits_Phase_5,2,5,80,127,1423184308
98,14,17,Jits_Phase_5,3,1,48,40,1423219736
98,14,17,Jits_Phase_5,0,5,56,103,1423614220
98,14,17,Jits_Phase_5,1,5,63,98,1423654232
98,14,17,Jits_Phase_5,2,1,48,38,1423670756
98,14,17,Jits_Phase_5,3,5,80,127,1423694388
98,14,17,Jits_Phase_5,0,5,80,127,1424113988
98,14,17,Jits_Phase_5,1,1,48,45,1424137260
98,14,17,Jits_Phase_5,2,5,56,103,1424193848
98,14,17,Jits_Phase_5,3,5,63,98,1424204116
98,14,17,Jits_Phase_5,0,5,56,103,1424653832
98,14,17,Jits_Phase_5,1,5,63,98,1424656824
98,14,17,Jits_Phase_5,2,5,80,127,1424663952
98,14,17,Jits_Phase_5,3,1,48,45,1424670212
98,14,17,Jits_Phase_5,0,1,48,45,1425173136
98,14,17,Jits_Phase_5,1,5,56,103,1425174780
98,14,17,Jits_Phase_5,2,5,63,98,1425194492
98,14,17,Jits_Phase_5,3,5,80,127,1425203788
98,14,17,Jits_Phase_5,0,5,63,98,1425633716
98,14,17,Jits_Phase_5,1,5,80,127,1425643836
98,14,17,Jits_Phase_5,2,5,56,103,1425664592
98,14,17,Jits_Phase_5,3,1,48,34,1425722324
98,14,17,Jits_Phase_5,0,5,63,98,1426134504
98,14,17,Jits_Phase_5,1,1,48,44,1426181688
98,14,17,Jits_Phase_5,2,5,56,103,1426214292
98,14,17,Jits_Phase_5,3,5,80,127,1426217208
98,14,17,Jits_Phase_5,0,5,63,98,1426633952
98,14,17,Jits_Phase_5,1,5,56,103,1426653736
98,14,17,Jits_Phase_5,2,5,80,127,1426684308
98,14,17,Jits_Phase_5,3,1,48,48,1426697164
98,14,17,Jits_Phase_5,0,5,56,103,1427133748
98,14,17,Jits_Phase_5,1,5,63,98,1427154432
98,14,17,Jits_Phase_5,2,5,80,127,1427163432
98,14,17,Jits_Phase_5,3,1,48,46,1427164396
98,14,17,Jits_Phase_5,0,1,48,46,1427653188
98,14,17,Jits_Phase_5,1,5,56,103,1427664520
98,14,17,Jits_Phase_5,2,5,63,98,1427693968
98,14,17,Jits_Phase_5,3,5,80,127,1427697260
98,14,17,Jits_Phase_5,0,5,56,103,1428113704
98,14,17,Jits_Phase_5,1,5,63,98,1428153640
98,14,17,Jits_Phase_5,2,1,48,41,1428189044
98,14,17,Jits_Phase_5,3,5,80,127,1428214096
98,14,17,Jits_Phase_5,0,5,56,103,1428633992
98,14,17,Jits_Phase_5,1,5,63,98,1428644340
98,14,17,Jits_Phase_5,2,1,48,44,1428664620
98,14,17,Jits_Phase_5,3,5,80,127,1428703820
98,14,17,Jits_Phase_5,0,5,56,103,1429133608
98,14,17,Jits_Phase_5,1,5,80,127,1429154144
98,14,17,Jits_Phase_5,2,1,48,44,1429167748
98,14,17,Jits_Phase_5,3,5,63,98,1429183808
98,14,17,Jits_Phase_5,0,5,80,127,1429634492
98,14,17,Jits_Phase_5,1,5,56,103,1429643640
98,14,17,Jits_Phase_5,2,5,63,98,1429664172
98,14,17,Jits_Phase_5,3,1,48,43,1429671036
98,14,17,Jits_Phase_5,0,5,63,98,1430123840
98,14,17,Jits_Phase_5,1,1,48,46,1430150256
98,14,17,Jits_Phase_5,2,5,80,127,1430203776
98,14,17,Jits_Phase_5,3,5,56,103,1430213972
98,14,17,Jits_Phase_5,0,1,48,51,1430702004
98,14,17,Jits_Phase_5,1,5,80,127,1430713640
98,14,17,Jits_Phase_5,2,5,56,103,1430734320
98,14,17,Jits_Phase_5,3,5,63,98,1430737536
98,14,17,Jits_Phase_5,0,5,63,98,1431204176
98,14,17,Jits_Phase_5,1,5,80,127,1431207464
98,14,17,Jits_Phase_5,2,1,48,46,1431214192
98,14,17,Jits_Phase_5,3,5,56,103,1431263732
98,14,17,Jits_Phase_5,0,5,56,103,1431683540
98,14,17,Jits_Phase_5,1,5,80,127,1431693664
98,14,17,Jits_Phase_5,2,1,48,48,1431730108
98,14,17,Jits_Phase_5,3,5,63,98,1431733668
98,14,17,Jits_Phase_5,0,5,56,103,1432163800
98,14,17,Jits_Phase_5,1,1,48,44,1432218408
98,14,17,Jits_Phase_5,2,5,63,98,1432224204
98,14,17,Jits_Phase_5,3,5,80,127,1432234624
98,14,17,Jits_Phase_5,0,5,63,98,1432673528
98,14,17,Jits_Phase_5,1,1,48,45,1432703940
98,14,17,Jits_Phase_5,2,5,80,127,1432713560
98,14,17,Jits_Phase_5,3,5,56,103,1432753492
98,14,17,Jits_Phase_5,0,5,56,103,1433174696
98,14,17,Jits_Phase_5,1,1,48,48,1433235684
98,14,17,Jits_Phase_5,2,5,63,98,1433254432
98,14,17,Jits_Phase_5,3,5,80,127,1433257796
98,14,17,Jits_Phase_5,0,5,80,127,1433733524
98,14,17,Jits_Phase_5,1,1,48,47,1433736116
98,14,17,Jits_Phase_5,2,5,56,103,1433764384
98,14,17,Jits_Phase_5,3,5,63,98,1433767524
98,14,17,Jits_Phase_5,0,5,56,103,1434194368
98,14,17,Jits_Phase_5,1,5,80,127,1434213656
98,14,17,Jits_Phase_5,2,5,63,98,1434253668
98,14,17,Jits_Phase_5,3,1,48,43,1434276264
98,14,17,Jits_Phase_5,0,5,80,127,1434673452
98,14,17,Jits_Phase_5,1,5,63,98,1434693984
98,14,17,Jits_Phase_5,2,5,56,103,1434754692
98,14,17,Jits_Phase_5,3,1,48,44,1434757812
98,14,17,Jits_Phase_5,0,5,63,98,1435183552
98,14,17,Jits_Phase_5,1,5,56,103,1435193820
98,14,17,Jits_Phase_5,2,5,80,127,1435243748
98,14,17,Jits_Phase_5,3,1,48,44,1435246564
98,14,17,Jits_Phase_5,0,5,56,103,1435674008
98,14,17,Jits_Phase_5,1,5,63,98,1435693348
98,14,17,Jits_Phase_5,2,1,48,44,1435701728
98,14,17,Jits_Phase_5,3,5,80,127,1435703612
98,14,17,Jits_Phase_5,0,5,56,103,1436163652
98,14,17,Jits_Phase_5,1,5,63,98,1436166572
98,14,17,Jits_Phase_5,2,1,48,50,1436176812
98,14,17,Jits_Phase_5,3,5,80,127,1436183880
98,14,17,Jits_Phase_5,0,1,48,41,1436680444
98,14,17,Jits_Phase_5,1,5,63,98,1436704152
98,14,17,Jits_Phase_5,2,5,56,103,1436733828
98,14,17,Jits_Phase_5,3,5,80,127,1436763424
98,14,17,Jits_Phase_5,0,5,80,127,1437163900
98,14,17,Jits_Phase_5,1,1,48,49,1437220728
98,14,17,Jits_Phase_5,2,5,56,103,1437253948
98,14,17,Jits_Phase_5,3,5,63,98,1437256944
98,14,17,Jits_Phase_5,0,5,56,103,1437663808
98,14,17,Jits_Phase_5,1,5,80,127,1437666800
98,14,17,Jits_Phase_5,2,1,48,39,1437734952
98,14,17,Jits_Phase_5,3,5,63,98,1437743664
98,14,17,Jits_Phase_5,0,5,80,127,1438164532
98,14,17,Jits_Phase_5,1,1,48,44,1438218220
98,14,17,Jits_Phase_5,2,5,63,98,1438223720
98,14,17,Jits_Phase_5,3,5,56,103,1438253472
98,14,17,Jits_Phase_5,0,5,63,98,1438664004
98,14,17,Jits_Phase_5,1,5,80,127,1438674272
98,14,17,Jits_Phase_5,2,5,56,103,1438743800
98,14,17,Jits_Phase_5,3,1,48,46,1438754264
98,14,17,Jits_Phase_5,0,5,56,103,1439224360
98,14,17,Jits_Phase_5,1,5,80,127,1439253812
98,14,17,Jits_Phase_5,2,1,48,43,1439263004
98,14,17,Jits_Phase_5,3,5,63,98,1439304224
98,14,17,Jits_Phase_5,0,1,48,44,1439772940
98,14,17,Jits_Phase_5,1,5,63,98,1439814088
98,14,17,Jits_Phase_5,2,5,56,103,1439843688
98,14,17,Jits_Phase_5,3,5,80,127,1439846780
98,14,17,Jits_Phase_5,0,1,48,45,1440306464
98,14,17,Jits_Phase_5,1,5,63,98,1440313684
98,14,17,Jits_Phase_5,2,5,80,127,1440334292
98,14,17,Jits_Phase_5,3,5,56,103,1440344560
98,14,17,Jits_Phase_5,0,1,48,44,1440820372
98,14,17,Jits_Phase_5,1,5,56,103,1440823624
98,14,17,Jits_Phase_5,2,5,63,98,1440826764
98,14,17,Jits_Phase_5,3,5,80,127,1440844080
98,14,17,Jits_Phase_5,0,5,56,103,1441274296
98,14,17,Jits_Phase_5,1,5,63,98,1441283668
98,14,17,Jits_Phase_5,2,5,80,127,1441314388
98,14,17,Jits_Phase_5,3,1,48,47,1441330840
98,14,17,Jits_Phase_5,0,5,63,98,1441794364
98,14,17,Jits_Phase_5,1,5,80,127,1441813924
98,14,17,Jits_Phase_5,2,1,48,43,1441826336
98,14,17,Jits_Phase_5,3,5,56,103,1441853780
98,14,17,Jits_Phase_5,0,5,56,103,1442323780
98,14,17,Jits_Phase_5,1,1,48,48,1442357984
98,14,17,Jits_Phase_5,2,5,63,98,1442363784
98,14,17,Jits_Phase_5,3,5,80,127,1442367220
98,14,17,Jits_Phase_5,0,5,80,127,1442764572
98,14,17,Jits_Phase_5,1,5,56,103,1442804288
98,14,17,Jits_Phase_5,2,5,63,98,1442854192
98,14,17,Jits_Phase_5,3,1,48,46,1442866376
98,14,17,Jits_Phase_5,0,5,56,103,1443324424
98,14,17,Jits_Phase_5,1,5,80,127,1443333504
98,14,17,Jits_Phase_5,2,1,48,45,1443364296
98,14,17,Jits_Phase_5,3,5,63,98,1443365484
98,14,17,Jits_Phase_5,0,5,56,103,1443773848
98,14,17,Jits_Phase_5,1,5,80,127,1443813712
98,14,17,Jits_Phase_5,2,5,63,98,1443864060
98,14,17,Jits_Phase_5,3,1,48,44,1443873552
98,14,17,Jits_Phase_5,0,5,56,103,1444273616
98,14,17,Jits_Phase_5,1,5,80,127,1444313552
98,14,17,Jits_Phase_5,2,5,63,98,1444363752
98,14,17,Jits_Phase_5,3,1,48,49,1444370308
98,14,17,Jits_Phase_5,0,5,80,127,1444764012
98,14,17,Jits_Phase_5,1,5,63,98,1444844104
98,14,17,Jits_Phase_5,2,5,56,103,1444854300
98,14,17,Jits_Phase_5,3,1,48,46,1444877944
98,14,17,Jits_Phase_5,0,5,80,127,1445313968
98,14,17,Jits_Phase_5,1,5,56,103,1445324388
98,14,17,Jits_Phase_5,2,5,63,98,1445343652
98,14,17,Jits_Phase_5,3,1,48,53,1445363180
98,14,17,Jits_Phase_5,0,5,63,98,1445784068
98,14,17,Jits_Phase_5,1,5,56,103,1445853672
98,14,17,Jits_Phase_5,2,5,80,127,1445856588
98,14,17,Jits_Phase_5,3,1,48,49,1445874544
98,14,17,Jits_Phase_5,0,5,80,127,1446274520
98,14,17,Jits_Phase_5,1,5,63,98,1446323600
98,14,17,Jits_Phase_5,2,1,48,42,1446347392
98,14,17,Jits_Phase_5,3,5,56,103,1446363380
98,14,17,Jits_Phase_5,0,5,63,98,1446813992
98,14,17,Jits_Phase_5,1,1,48,51,1446826628
98,14,17,Jits_Phase_5,2,5,56,103,1446854000
98,14,17,Jits_Phase_5,3,5,80,127,1446864416
98,14,17,Jits_Phase_5,0,5,63,98,1447303408
98,14,17,Jits_Phase_5,1,1,48,43,1447322812
98,14,17,Jits_Phase_5,2,5,56,103,1447324456
98,14,17,Jits_Phase_5,3,5,80,127,1447343424
98,14,17,Jits_Phase_5,0,5,80,127,1447764396
98,14,17,Jits_Phase_5,1,5,56,103,1447773472
98,14,17,Jits_Phase_5,2,5,63,98,1447794176
98,14,17,Jits_Phase_5,3,1,48,34,1447851988
98,14,17,Jits_Phase_5,0,5,63,98,1448293704
98,14,17,Jits_Phase_5,1,1,48,40,1448304612
98,14,17,Jits_Phase_5,2,5,56,103,1448333560
98,14,17,Jits_Phase_5,3,5,80,127,1448364352
98,14,17,Jits_Phase_5,0,5,56,103,1448753500
98,14,17,Jits_Phase_5,1,5,63,98,1448784296
98,14,17,Jits_Phase_5,2,5,80,127,1448813920
98,14,17,Jits_Phase_5,3,1,48,49,1448819432
98,14,17,Jits_Phase_5,0,5,80,127,1449174236
98,14,17,Jits_Phase_5,1,5,56,103,1449244060
98,14,17,Jits_Phase_5,2,5,63,98,1449247052
98,14,17,Jits_Phase_5,3,1,48,49,1449298120
98,14,17,Jits_Phase_5,0,5,56,103,1449684328
98,14,17,Jits_Phase_5,1,5,63,98,1449733408
98,14,17,Jits_Phase_5,2,5,80,127,1449764352
98,14,17,Jits_Phase_5,0,1,48,38,1449984336
98,14,17,Jits_Phase_5,1,5,63,98,1450163576
98,14,17,Jits_Phase_5,2,5,80,127,1450166944
98,14,17,Jits_Phase_5,3,5,56,103,1450224112
98,14,17,Jits_Phase_5,4,1,48,41,1450408312
98,14,17,Jits_Phase_5,0,1,48,21,1450502308
98,14,17,Jits_Phase_5,1,5,56,103,1450694132
98,14,17,Jits_Phase_5,2,5,80,127,1450704404
98,14,17,Jits_Phase_5,3,5,63,98,1450754380
98,14,17,Jits_Phase_5,4,1,48,39,1450852516
98,14,17,Jits_Phase_5,0,5,63,98,1451164040
98,14,17,Jits_Phase_5,1,5,56,103,1451174312
98,14,17,Jits_Phase_5,2,5,80,127,1451203912
98,14,17,Jits_Phase_5,3,1,48,43,1451279764
98,14,17,Jits_Phase_5,0,1,48,44,1451658200
98,14,17,Jits_Phase_5,1,5,63,98,1451693520
98,14,17,Jits_Phase_5,2,5,80,127,1451696808
98,14,17,Jits_Phase_5,3,5,56,103,1451724088
98,14,17,Jits_Phase_5,0,1,48,43,1452176372
98,14,17,Jits_Phase_5,1,5,63,98,1452213564
98,14,17,Jits_Phase_5,2,5,56,103,1452234168
98,14,17,Jits_Phase_5,3,5,80,127,1452237232
98,14,17,Jits_Phase_5,0,5,63,98,1452674348
98,14,17,Jits_Phase_5,1,1,48,39,1452698744
98,14,17,Jits_Phase_5,2,5,56,103,1452744172
98,14,17,Jits_Phase_5,3,5,80,127,1452763508
98,14,17,Jits_Phase_5,0,5,56,103,1453163912
98,14,17,Jits_Phase_5,1,5,63,98,1453174332
98,14,17,Jits_Phase_5,2,1,48,39,1453217908
98,14,17,Jits_Phase_5,3,5,80,127,1453264228
98,14,17,Jits_Phase_5,0,1,48,47,1453677272
98,14,17,Jits_Phase_5,1,5,56,103,1453684196
98,14,17,Jits_Phase_5,2,5,80,127,1453724132
98,14,17,Jits_Phase_5,3,5,63,98,1453734252
98,14,17,Jits_Phase_5,0,5,56,103,1454204332
98,14,17,Jits_Phase_5,1,1,48,44,1454210964
98,14,17,Jits_Phase_5,2,5,63,98,1454234000
98,14,17,Jits_Phase_5,3,5,80,127,1454263524
98,14,17,Jits_Phase_5,0,5,80,127,1454664140
98,14,17,Jits_Phase_5,1,5,63,98,1454704180
98,14,17,Jits_Phase_5,2,1,48,48,1454705368
98,14,17,Jits_Phase_5,3,5,56,103,1454723360
98,14,17,Jits_Phase_5,0,5,56,103,1455203760
98,14,17,Jits_Phase_5,1,5,80,127,1455224292
98,14,17,Jits_Phase_5,2,1,48,43,1455225632
98,14,17,Jits_Phase_5,3,5,63,98,1455243772
98,14,17,Jits_Phase_5,0,5,63,98,1455673684
98,14,17,Jits_Phase_5,1,5,56,103,1455683804
98,14,17,Jits_Phase_5,2,1,48,46,1455704308
98,14,17,Jits_Phase_5,3,5,80,127,1455744508
98,14,17,Jits_Phase_5,0,1,48,49,1456171540
98,14,17,Jits_Phase_5,1,5,56,103,1456173276
98,14,17,Jits_Phase_5,2,5,63,98,1456244028
98,14,17,Jits_Phase_5,3,5,80,127,1456263588
98,14,17,Jits_Phase_5,0,5,56,103,1456674152
98,14,17,Jits_Phase_5,1,5,63,98,1456703828
98,14,17,Jits_Phase_5,2,1,48,44,1456704792
98,14,17,Jits_Phase_5,3,5,80,127,1456743708
98,14,17,Jits_Phase_5,0,5,63,98,1457163728
98,14,17,Jits_Phase_5,1,1,48,45,1457175912
98,14,17,Jits_Phase_5,2,5,56,103,1457213772
98,14,17,Jits_Phase_5,3,5,80,127,1457224264
98,14,17,Jits_Phase_5,0,1,48,47,1457688612
98,14,17,Jits_Phase_5,1,5,56,103,1457704448
98,14,17,Jits_Phase_5,2,5,63,98,1457753528
98,14,17,Jits_Phase_5,3,5,80,127,1457764036
98,14,17,Jits_Phase_5,0,5,56,103,1458174308
98,14,17,Jits_Phase_5,1,5,63,98,1458183532
98,14,17,Jits_Phase_5,2,1,48,44,1458210920
98,14,17,Jits_Phase_5,3,5,80,127,1458264288
98,14,17,Jits_Phase_5,0,9999,9999,9999,1373931584
98,14,17,Jits_Phase_5,1,9999,9999,9999,1374431288
98,14,17,Jits_Phase_5,2,9999,9999,9999,1374932064
98,14,17,Jits_Phase_5,3,9999,9999,9999,1375431768
98,14,17,Jits_Phase_5,4,9999,9999,9999,1375931448
98,14,17,Jits_Phase_5,5,9999,9999,9999,1376431204
98,14,17,Jits_Phase_5,6,9999,9999,9999,1376931924
98,14,17,Jits_Phase_5,7,9999,9999,9999,1377431612
98,14,17,Jits_Phase_5,8,9999,9999,9999,1377931376
98,14,17,Jits_Phase_5,9,9999,9999,9999,1378432108
98,14,17,Jits_Phase_5,10,9999,9999,9999,1378942052
98,14,17,Jits_Phase_5,11,9999,9999,9999,1379441728
98,14,17,Jits_Phase_5,12,9999,9999,9999,1379941444
98,14,17,Jits_Phase_5,13,9999,9999,9999,1380441184
98,14,17,Jits_Phase_5,14,9999,9999,9999,1380941904
98,14,17,Jits_Phase_5,15,9999,9999,9999,1381441588
98,14,17,Jits_Phase_5,16,9999,9999,9999,1381941340
98,14,17,Jits_Phase_5,17,9999,9999,9999,1382442060
98,14,17,Jits_Phase_5,18,9999,9999,9999,1382941824
98,14,17,Jits_Phase_5,19,9999,9999,9999,1383441512
98,14,17,Jits_Phase_5,20,9999,9999,9999,1383941200
98,14,17,Jits_Phase_5,21,9999,9999,9999,1384441936
98,14,17,Jits_Phase_5,22,9999,9999,9999,1384941624
98,14,17,Jits_Phase_5,23,9999,9999,9999,1385441384
98,14,17,Jits_Phase_5,24,9999,9999,9999,1385942120
98,14,17,Jits_Phase_5,25,9999,9999,9999,1386452064
98,14,17,Jits_Phase_5,26,9999,9999,9999,1386951744
98,14,17,Jits_Phase_5,27,9999,9999,9999,1387451480
98,14,17,Jits_Phase_5,28,9999,9999,9999,1387951176
98,14,17,Jits_Phase_5,29,9999,9999,9999,1388451908
98,14,17,Jits_Phase_5,30,9999,9999,9999,1388941408
98,14,17,Jits_Phase_5,31,9999,9999,9999,1389441100
98,14,17,Jits_Phase_5,32,9999,9999,9999,1389941836
98,14,17,Jits_Phase_5,33,9999,9999,9999,1390441596
98,14,17,Jits_Phase_5,34,9999,9999,9999,1390941260
98,14,17,Jits_Phase_5,35,9999,9999,9999,1391441976
98,14,17,Jits_Phase_5,36,9999,9999,9999,1391941716
98,14,17,Jits_Phase_5,37,9999,9999,9999,1392441468
98,14,17,Jits_Phase_5,38,9999,9999,9999,1392941156
98,14,17,Jits_Phase_5,39,9999,9999,9999,1393441876
98,14,17,Jits_Phase_5,40,9999,9999,9999,1393941624
98,14,17,Jits_Phase_5,41,9999,9999,9999,1394441312
98,14,17,Jits_Phase_5,42,9999,9999,9999,1394942048
98,14,17,Jits_Phase_5,43,9999,9999,9999,1395441720
98,14,17,Jits_Phase_5,44,9999,9999,9999,1395941468
98,14,17,Jits_Phase_5,45,9999,9999,9999,1396441212
98,14,17,Jits_Phase_5,46,9999,9999,9999,1396941932
98,14,17,Jits_Phase_5,47,9999,9999,9999,1397441608
98,14,17,Jits_Phase_5,48,9999,9999,9999,1397951552
98,14,17,Jits_Phase_5,49,9999,9999,9999,1398451324
98,14,17,Jits_Phase_5,50,9999,9999,9999,1398952032
98,14,17,Jits_Phase_5,51,9999,9999,9999,1399451724
98,14,17,Jits_Phase_5,52,9999,9999,9999,1399951412
98,14,17,Jits_Phase_5,53,9999,9999,9999,1400451180
98,14,17,Jits_Phase_5,54,9999,9999,9999,1400951908
98,14,17,Jits_Phase_5,55,9999,9999,9999,1401451600
98,14,17,Jits_Phase_5,56,9999,9999,9999,1401951336
98,14,17,Jits_Phase_5,57,9999,9999,9999,1402452056
98,14,17,Jits_Phase_5,58,9999,9999,9999,1402951744
98,14,17,Jits_Phase_5,59,9999,9999,9999,1403451496
98,14,17,Jits_Phase_5,60,9999,9999,9999,1403951188
98,14,17,Jits_Phase_5,61,9999,9999,9999,1404451904
98,14,17,Jits_Phase_5,62,9999,9999,9999,1404951664
98,14,17,Jits_Phase_5,63,9999,9999,9999,1405451352
98,14,17,Jits_Phase_5,64,9999,9999,9999,1405971556
98,14,17,Jits_Phase_5,65,9999,9999,9999,1406471244
98,14,17,Jits_Phase_5,66,9999,9999,9999,1406971984
98,14,17,Jits_Phase_5,67,9999,9999,9999,1407471736
98,14,17,Jits_Phase_5,68,9999,9999,9999,1407971424
98,14,17,Jits_Phase_5,69,9999,9999,9999,1408471116
98,14,17,Jits_Phase_5,70,9999,9999,9999,1408971828
98,14,17,Jits_Phase_5,71,9999,9999,9999,1409471592
98,14,17,Jits_Phase_5,72,9999,9999,9999,1409971276
98,14,17,Jits_Phase_5,73,9999,9999,9999,1410472000
98,14,17,Jits_Phase_5,74,9999,9999,9999,1410971760
98,14,17,Jits_Phase_5,75,9999,9999,9999,1411471436
98,14,17,Jits_Phase_5,76,9999,9999,9999,1411971132
98,14,17,Jits_Phase_5,77,9999,9999,9999,1412471928
98,14,17,Jits_Phase_5,78,9999,9999,9999,1412971616
98,14,17,Jits_Phase_5,79,9999,9999,9999,1413471356
98,14,17,Jits_Phase_5,80,9999,9999,9999,1413972044
98,14,17,Jits_Phase_5,81,9999,9999,9999,1414451268
98,14,17,Jits_Phase_5,82,9999,9999,9999,1414952004
98,14,17,Jits_Phase_5,83,9999,9999,9999,1415451752
98,14,17,Jits_Phase_5,84,9999,9999,9999,1415951448
98,14,17,Jits_Phase_5,85,9999,9999,9999,1416451192
98,14,17,Jits_Phase_5,86,9999,9999,9999,1416951908
98,14,17,Jits_Phase_5,87,9999,9999,9999,1417451596
98,14,17,Jits_Phase_5,88,9999,9999,9999,1417951344
98,14,17,Jits_Phase_5,89,9999,9999,9999,1418452076
98,14,17,Jits_Phase_5,90,9999,9999,9999,1418951768
98,14,17,Jits_Phase_5,91,9999,9999,9999,1419451456
98,14,17,Jits_Phase_5,92,9999,9999,9999,1419951204
98,14,17,Jits_Phase_5,93,9999,9999,9999,1420451928
98,14,17,Jits_Phase_5,94,9999,9999,9999,1420951676
98,14,17,Jits_Phase_5,95,9999,9999,9999,1421451364
98,14,17,Jits_Phase_5,96,9999,9999,9999,1421952104
98,14,17,Jits_Phase_5,97,9999,9999,9999,1422411896
98,14,17,Jits_Phase_5,98,9999,9999,9999,1422911568
98,14,17,Jits_Phase_5,99,9999,9999,9999,1423411256
98,14,17,Jits_Phase_5,100,9999,9999,9999,1423912052
98,14,17,Jits_Phase_5,101,9999,9999,9999,1424411744
98,14,17,Jits_Phase_5,102,9999,9999,9999,1424911424
98,14,17,Jits_Phase_5,103,9999,9999,9999,1425411192
98,14,17,Jits_Phase_5,104,9999,9999,9999,1425911912
98,14,17,Jits_Phase_5,105,9999,9999,9999,1426411580
98,14,17,Jits_Phase_5,106,9999,9999,9999,1426911304
98,14,17,Jits_Phase_5,107,9999,9999,9999,1427412024
98,14,17,Jits_Phase_5,108,9999,9999,9999,1427911784
98,14,17,Jits_Phase_5,109,9999,9999,9999,1428411460
98,14,17,Jits_Phase_5,110,9999,9999,9999,1428911224
98,14,17,Jits_Phase_5,111,9999,9999,9999,1429411960
98,14,17,Jits_Phase_5,112,9999,9999,9999,1429911644
98,14,17,Jits_Phase_5,113,9999,9999,9999,1430411336
98,14,17,Jits_Phase_5,114,9999,9999,9999,1430961276
98,14,17,Jits_Phase_5,115,9999,9999,9999,1431461992
98,14,17,Jits_Phase_5,116,9999,9999,9999,1431961668
98,14,17,Jits_Phase_5,117,9999,9999,9999,1432461432
98,14,17,Jits_Phase_5,118,9999,9999,9999,1432961120
98,14,17,Jits_Phase_5,119,9999,9999,9999,1433461836
98,14,17,Jits_Phase_5,120,9999,9999,9999,1433961596
98,14,17,Jits_Phase_5,121,9999,9999,9999,1434461260
98,14,17,Jits_Phase_5,122,9999,9999,9999,1434961988
98,14,17,Jits_Phase_5,123,9999,9999,9999,1435461752
98,14,17,Jits_Phase_5,124,9999,9999,9999,1435961424
98,14,17,Jits_Phase_5,125,9999,9999,9999,1436461172
98,14,17,Jits_Phase_5,126,9999,9999,9999,1436961912
98,14,17,Jits_Phase_5,127,9999,9999,9999,1437461576
98,14,17,Jits_Phase_5,128,9999,9999,9999,1437961328
98,14,17,Jits_Phase_5,129,9999,9999,9999,1438462072
98,14,17,Jits_Phase_5,130,9999,9999,9999,1438961756
98,14,17,Jits_Phase_5,131,9999,9999,9999,1439561816
98,14,17,Jits_Phase_5,132,9999,9999,9999,1440061500
98,14,17,Jits_Phase_5,133,9999,9999,9999,1440561252
98,14,17,Jits_Phase_5,134,9999,9999,9999,1441061968
98,14,17,Jits_Phase_5,135,9999,9999,9999,1441561712
98,14,17,Jits_Phase_5,136,9999,9999,9999,1442061404
98,14,17,Jits_Phase_5,137,9999,9999,9999,1442561148
98,14,17,Jits_Phase_5,138,9999,9999,9999,1443061884
98,14,17,Jits_Phase_5,139,9999,9999,9999,1443561580
98,14,17,Jits_Phase_5,140,9999,9999,9999,1444061268
98,14,17,Jits_Phase_5,141,9999,9999,9999,1444562004
98,14,17,Jits_Phase_5,142,9999,9999,9999,1445061692
98,14,17,Jits_Phase_5,143,9999,9999,9999,1445561460
98,14,17,Jits_Phase_5,144,9999,9999,9999,1446061140
98,14,17,Jits_Phase_5,145,9999,9999,9999,1446561864
98,14,17,Jits_Phase_5,146,9999,9999,9999,1447061560
98,14,17,Jits_Phase_5,147,9999,9999,9999,1447561308
98,14,17,Jits_Phase_5,148,9999,9999,9999,1448062024
98,14,17,Jits_Phase_5,149,9999,9999,9999,1448561720
98,14,17,Jits_Phase_5,150,9999,9999,9999,1448961140
98,14,17,Jits_Phase_5,151,9999,9999,9999,1449461868
98,14,17,Jits_Phase_5,152,9999,9999,9999,1449961580
98,14,17,Jits_Phase_5,153,9999,9999,9999,1450461264
98,14,17,Jits_Phase_5,154,9999,9999,9999,1450961996
98,14,17,Jits_Phase_5,155,9999,9999,9999,1451461716
98,14,17,Jits_Phase_5,156,9999,9999,9999,1451961456
98,14,17,Jits_Phase_5,157,9999,9999,9999,1452461120
98,14,17,Jits_Phase_5,158,9999,9999,9999,1452961920
98,14,17,Jits_Phase_5,159,9999,9999,9999,1453461592
98,14,17,Jits_Phase_5,160,9999,9999,9999,1453961284
98,14,17,Jits_Phase_5,161,9999,9999,9999,1454462012
98,14,17,Jits_Phase_5,162,9999,9999,9999,1454961772
98,14,17,Jits_Phase_5,163,9999,9999,9999,1455461436
98,14,17,Jits_Phase_5,164,9999,9999,9999,1455961172
98,14,17,Jits_Phase_5,165,9999,9999,9999,1456461896
98,14,17,Jits_Phase_5,166,9999,9999,9999,1456961644
98,14,17,Jits_Phase_5,167,9999,9999,9999,1457461332
98,14,17,Jits_Phase_5,168,9999,9999,9999,1457962052
98,14,17,Jits_Phase_5,169,9999,9999,9999,1458461800
98,15,15,Jits_Phase_8,0,5,56,103,1467311304
98,15,15,Jits_Phase_8,1,5,63,98,1467314332
98,15,15,Jits_Phase_8,2,5,80,127,1467317756
98,15,15,Jits_Phase_8,0,5,56,103,1468112224
98,15,15,Jits_Phase_8,1,5,63,98,1468115172
98,15,15,Jits_Phase_8,2,5,80,127,1468118372
98,15,15,Jits_Phase_8,0,5,80,127,1468851564
98,15,15,Jits_Phase_8,1,5,63,98,1468941848
98,15,15,Jits_Phase_8,2,5,56,103,1468951968
98,15,15,Jits_Phase_8,3,1,48,48,1468960792
98,15,15,Jits_Phase_8,0,5,56,103,1469671936
98,15,15,Jits_Phase_8,1,5,63,98,1469682132
98,15,15,Jits_Phase_8,2,1,48,62,1469701144
98,15,15,Jits_Phase_8,3,5,80,127,1469772256
98,15,15,Jits_Phase_8,0,5,63,98,1470442036
98,15,15,Jits_Phase_8,1,1,48,61,1470462692
98,15,15,Jits_Phase_8,2,5,80,127,1470471484
98,15,15,Jits_Phase_8,3,5,56,103,1470502352
98,15,15,Jits_Phase_8,0,1,48,61,1471229988
98,15,15,Jits_Phase_8,1,5,56,103,1471241636
98,15,15,Jits_Phase_8,2,5,80,127,1471341896
98,15,15,Jits_Phase_8,3,5,63,98,1471392020
98,15,15,Jits_Phase_8,0,1,48,56,1472017616
98,15,15,Jits_Phase_8,1,5,56,103,1472042296
98,15,15,Jits_Phase_8,2,5,80,127,1472091380
98,15,15,Jits_Phase_8,3,5,63,98,1472131328
98,15,15,Jits_Phase_8,0,1,48,56,1472829200
98,15,15,Jits_Phase_8,1,5,80,127,1472872040
98,15,15,Jits_Phase_8,2,5,63,98,1472901496
98,15,15,Jits_Phase_8,3,5,56,103,1472972056
98,15,15,Jits_Phase_8,0,1,48,54,1473626044
98,15,15,Jits_Phase_8,1,5,63,98,1473702220
98,15,15,Jits_Phase_8,2,5,56,103,1473731956
98,15,15,Jits_Phase_8,3,5,80,127,1473792344
98,15,15,Jits_Phase_8,0,5,56,103,1474441524
98,15,15,Jits_Phase_8,1,5,80,127,1474444444
98,15,15,Jits_Phase_8,2,1,48,47,1474466440
98,15,15,Jits_Phase_8,3,5,63,98,1474562288
98,15,15,Jits_Phase_8,0,1,48,49,1475232560
98,15,15,Jits_Phase_8,1,5,56,103,1475322116
98,15,15,Jits_Phase_8,2,5,80,127,1475362116
98,15,15,Jits_Phase_8,3,5,63,98,1475372536
98,15,15,Jits_Phase_8,0,1,48,53,1476025272
98,15,15,Jits_Phase_8,1,5,56,103,1476082020
98,15,15,Jits_Phase_8,2,5,80,127,1476101432
98,15,15,Jits_Phase_8,3,5,63,98,1476182484
98,15,15,Jits_Phase_8,0,1,48,51,1476829144
98,15,15,Jits_Phase_8,1,5,80,127,1476871664
98,15,15,Jits_Phase_8,2,5,56,103,1476971776
98,15,15,Jits_Phase_8,3,5,63,98,1476982120
98,15,15,Jits_Phase_8,0,5,63,98,1477641540
98,15,15,Jits_Phase_8,1,1,48,56,1477665860
98,15,15,Jits_Phase_8,2,5,80,127,1477702000
98,15,15,Jits_Phase_8,3,5,56,103,1477712196
98,15,15,Jits_Phase_8,0,5,56,103,1478442416
98,15,15,Jits_Phase_8,1,1,48,63,1478463744
98,15,15,Jits_Phase_8,2,5,63,98,1478512112
98,15,15,Jits_Phase_8,3,5,80,127,1478515328
98,15,15,Jits_Phase_8,0,1,48,57,1479267032
98,15,15,Jits_Phase_8,1,5,63,98,1479272012
98,15,15,Jits_Phase_8,2,5,56,103,1479322064
98,15,15,Jits_Phase_8,3,5,80,127,1479324980
98,15,15,Jits_Phase_8,0,5,56,103,1480031732
98,15,15,Jits_Phase_8,1,5,80,127,1480035044
98,15,15,Jits_Phase_8,2,1,48,59,1480049796
98,15,15,Jits_Phase_8,3,5,63,98,1480121732
98,15,15,Jits_Phase_8,0,1,48,59,1480852912
98,15,15,Jits_Phase_8,1,5,63,98,1480872268
98,15,15,Jits_Phase_8,2,5,56,103,1480962460
98,15,15,Jits_Phase_8,3,5,80,127,1480992060
98,15,15,Jits_Phase_8,0,5,56,103,1481661692
98,15,15,Jits_Phase_8,1,1,48,60,1481688552
98,15,15,Jits_Phase_8,2,5,63,98,1481762156
98,15,15,Jits_Phase_8,3,5,80,127,1481791816
98,15,15,Jits_Phase_8,0,5,63,98,1482481920
98,15,15,Jits_Phase_8,1,5,56,103,1482492488
98,15,15,Jits_Phase_8,2,1,48,59,1482520560
98,15,15,Jits_Phase_8,3,5,80,127,1482582240
98,15,15,Jits_Phase_8,0,5,63,98,1483302208
98,15,15,Jits_Phase_8,1,1,48,62,1483318880
98,15,15,Jits_Phase_8,2,5,56,103,1483382244
98,15,15,Jits_Phase_8,3,5,80,127,1483385232
98,15,15,Jits_Phase_8,0,5,80,127,1484062028
98,15,15,Jits_Phase_8,1,5,63,98,1484081816
98,15,15,Jits_Phase_8,2,5,56,103,1484142004
98,15,15,Jits_Phase_8,3,1,48,52,1484147892
98,15,15,Jits_Phase_8,0,5,56,103,1484901908
98,15,15,Jits_Phase_8,1,1,48,57,1484916484
98,15,15,Jits_Phase_8,2,5,63,98,1484922208
98,15,15,Jits_Phase_8,3,5,80,127,1484925720
98,15,15,Jits_Phase_8,0,5,63,98,1485642084
98,15,15,Jits_Phase_8,1,5,80,127,1485722052
98,15,15,Jits_Phase_8,2,1,48,63,1485725320
98,15,15,Jits_Phase_8,3,5,56,103,1485732388
98,15,15,Jits_Phase_8,0,5,63,98,1486462388
98,15,15,Jits_Phase_8,1,5,56,103,1486481652
98,15,15,Jits_Phase_8,2,1,48,65,1486525524
98,15,15,Jits_Phase_8,3,5,80,127,1486532068
98,15,15,Jits_Phase_8,0,5,80,127,1487261920
98,15,15,Jits_Phase_8,1,5,63,98,1487301936
98,15,15,Jits_Phase_8,2,5,56,103,1487321572
98,15,15,Jits_Phase_8,3,1,48,59,1487354132
98,15,15,Jits_Phase_8,0,5,56,103,1488101844
98,15,15,Jits_Phase_8,1,5,63,98,1488112116
98,15,15,Jits_Phase_8,2,5,80,127,1488131380
98,15,15,Jits_Phase_8,3,1,48,59,1488163040
98,15,15,Jits_Phase_8,0,5,56,103,1488831864
98,15,15,Jits_Phase_8,1,1,48,47,1488908096
98,15,15,Jits_Phase_8,2,5,63,98,1488921844
98,15,15,Jits_Phase_8,3,5,80,127,1488982600
98,15,15,Jits_Phase_8,0,5,80,127,1489662504
98,15,15,Jits_Phase_8,1,5,56,103,1489671652
98,15,15,Jits_Phase_8,2,1,48,56,1489731188
98,15,15,Jits_Phase_8,3,5,63,98,1489742296
98,15,15,Jits_Phase_8,0,5,63,98,1490491720
98,15,15,Jits_Phase_8,1,1,48,57,1490530532
98,15,15,Jits_Phase_8,2,5,80,127,1490581800
98,15,15,Jits_Phase_8,3,5,56,103,1490592068
98,15,15,Jits_Phase_8,0,5,63,98,1491221956
98,15,15,Jits_Phase_8,1,5,80,127,1491272012
98,15,15,Jits_Phase_8,2,5,56,103,1491331376
98,15,15,Jits_Phase_8,3,1,48,51,1491363632
98,15,15,Jits_Phase_8,0,5,56,103,1492042164
98,15,15,Jits_Phase_8,1,5,80,127,1492092168
98,15,15,Jits_Phase_8,2,1,48,55,1492110600
98,15,15,Jits_Phase_8,3,5,63,98,1492111872
98,15,15,Jits_Phase_8,0,5,56,103,1492812192
98,15,15,Jits_Phase_8,1,5,80,127,1492871560
98,15,15,Jits_Phase_8,2,1,48,61,1492937600
98,15,15,Jits_Phase_8,3,5,63,98,1492942204
98,15,15,Jits_Phase_8,0,1,48,54,1493596564
98,15,15,Jits_Phase_8,1,5,56,103,1493611832
98,15,15,Jits_Phase_8,2,5,80,127,1493641656
98,15,15,Jits_Phase_8,3,5,63,98,1493672304
98,15,15,Jits_Phase_8,0,1,48,53,1494391328
98,15,15,Jits_Phase_8,1,5,56,103,1494451516
98,15,15,Jits_Phase_8,2,5,80,127,1494472048
98,15,15,Jits_Phase_8,3,5,63,98,1494531600
98,15,15,Jits_Phase_8,0,1,48,55,1495223972
98,15,15,Jits_Phase_8,1,5,80,127,1495332248
98,15,15,Jits_Phase_8,2,5,56,103,1495341696
98,15,15,Jits_Phase_8,3,5,63,98,1495351740
98,15,15,Jits_Phase_8,0,1,48,59,1496091732
98,15,15,Jits_Phase_8,1,5,56,103,1496093140
98,15,15,Jits_Phase_8,2,5,80,127,1496131960
98,15,15,Jits_Phase_8,3,5,63,98,1496161708
98,15,15,Jits_Phase_8,0,5,56,103,1496861948
98,15,15,Jits_Phase_8,1,5,63,98,1496891624
98,15,15,Jits_Phase_8,2,1,48,59,1496924632
98,15,15,Jits_Phase_8,3,5,80,127,1496931724
98,15,15,Jits_Phase_8,0,5,80,127,1497611596
98,15,15,Jits_Phase_8,1,1,48,57,1497654944
98,15,15,Jits_Phase_8,2,5,63,98,1497661716
98,15,15,Jits_Phase_8,3,5,56,103,1497682252
98,15,15,Jits_Phase_8,0,1,48,57,1498439716
98,15,15,Jits_Phase_8,1,5,56,103,1498442072
98,15,15,Jits_Phase_8,2,5,80,127,1498511704
98,15,15,Jits_Phase_8,3,5,63,98,1498572152
98,15,15,Jits_Phase_8,0,5,80,127,1499241788
98,15,15,Jits_Phase_8,1,1,48,48,1499292108
98,15,15,Jits_Phase_8,2,5,63,98,1499331840
98,15,15,Jits_Phase_8,3,5,56,103,1499352596
98,15,15,Jits_Phase_8,0,5,63,98,1500062016
98,15,15,Jits_Phase_8,1,1,48,56,1500076744
98,15,15,Jits_Phase_8,2,5,56,103,1500081572
98,15,15,Jits_Phase_8,3,5,80,127,1500121432
98,15,15,Jits_Phase_8,0,5,80,127,1500821840
98,15,15,Jits_Phase_8,1,5,63,98,1500842448
98,15,15,Jits_Phase_8,2,1,48,58,1500898004
98,15,15,Jits_Phase_8,3,5,56,103,1500922160
98,15,15,Jits_Phase_8,0,5,63,98,1501612540
98,15,15,Jits_Phase_8,1,1,48,56,1501667504
98,15,15,Jits_Phase_8,2,5,56,103,1501721924
98,15,15,Jits_Phase_8,3,5,80,127,1501725136
98,15,15,Jits_Phase_8,0,5,63,98,1502431620
98,15,15,Jits_Phase_8,1,5,56,103,1502441888
98,15,15,Jits_Phase_8,2,5,80,127,1502444880
98,15,15,Jits_Phase_8,3,1,48,51,1502460372
98,15,15,Jits_Phase_8,0,5,56,103,1503211808
98,15,15,Jits_Phase_8,1,1,48,56,1503221900
98,15,15,Jits_Phase_8,2,5,80,127,1503331688
98,15,15,Jits_Phase_8,3,5,63,98,1503371624
98,15,15,Jits_Phase_8,0,5,56,103,1504032040
98,15,15,Jits_Phase_8,1,1,48,57,1504051944
98,15,15,Jits_Phase_8,2,5,80,127,1504112004
98,15,15,Jits_Phase_8,3,5,63,98,1504131492
98,15,15,Jits_Phase_8,0,5,56,103,1504831964
98,15,15,Jits_Phase_8,1,1,48,55,1504870252
98,15,15,Jits_Phase_8,2,5,63,98,1504941444
98,15,15,Jits_Phase_8,3,5,80,127,1504944884
98,15,15,Jits_Phase_8,0,1,48,54,1505670788
98,15,15,Jits_Phase_8,1,5,56,103,1505672360
98,15,15,Jits_Phase_8,2,5,80,127,1505702408
98,15,15,Jits_Phase_8,3,5,63,98,1505721596
98,15,15,Jits_Phase_8,0,5,63,98,1506462008
98,15,15,Jits_Phase_8,1,1,48,52,1506467372
98,15,15,Jits_Phase_8,2,5,56,103,1506472424
98,15,15,Jits_Phase_8,3,5,80,127,1506481500
98,15,15,Jits_Phase_8,0,1,48,53,1507250216
98,15,15,Jits_Phase_8,1,5,80,127,1507251712
98,15,15,Jits_Phase_8,2,5,56,103,1507301692
98,15,15,Jits_Phase_8,3,5,63,98,1507341628
98,15,15,Jits_Phase_8,0,5,80,127,1508071780
98,15,15,Jits_Phase_8,1,1,48,56,1508082396
98,15,15,Jits_Phase_8,2,5,63,98,1508092456
98,15,15,Jits_Phase_8,3,5,56,103,1508141388
98,15,15,Jits_Phase_8,0,5,80,127,1508881740
98,15,15,Jits_Phase_8,1,1,48,56,1508902320
98,15,15,Jits_Phase_8,2,5,56,103,1508911484
98,15,15,Jits_Phase_8,3,5,63,98,1508982012
98,15,15,Jits_Phase_8,0,1,48,52,1509707696
98,15,15,Jits_Phase_8,1,5,56,103,1509731660
98,15,15,Jits_Phase_8,2,5,80,127,1509741928
98,15,15,Jits_Phase_8,3,5,63,98,1509781792
98,15,15,Jits_Phase_8,0,5,56,103,1510442396
98,15,15,Jits_Phase_8,1,5,63,98,1510461808
98,15,15,Jits_Phase_8,2,5,80,127,1510531436
98,15,15,Jits_Phase_8,3,1,48,53,1510546912
98,15,15,Jits_Phase_8,0,1,48,51,1511232240
98,15,15,Jits_Phase_8,1,5,63,98,1511261488
98,15,15,Jits_Phase_8,2,5,80,127,1511321828
98,15,15,Jits_Phase_8,3,5,56,103,1511341300
98,15,15,Jits_Phase_8,0,5,80,127,1512052204
98,15,15,Jits_Phase_8,1,5,56,103,1512081808
98,15,15,Jits_Phase_8,2,1,48,49,1512087540
98,15,15,Jits_Phase_8,3,5,63,98,1512111404
98,15,15,Jits_Phase_8,0,5,56,103,1512851752
98,15,15,Jits_Phase_8,1,1,48,51,1512873600
98,15,15,Jits_Phase_8,2,5,63,98,1512912432
98,15,15,Jits_Phase_8,3,5,80,127,1512971612
98,15,15,Jits_Phase_8,0,1,48,57,1513665116
98,15,15,Jits_Phase_8,1,5,80,127,1513672188
98,15,15,Jits_Phase_8,2,5,56,103,1513691600
98,15,15,Jits_Phase_8,3,5,63,98,1513762836
98,15,15,Jits_Phase_8,0,5,80,127,1514471656
98,15,15,Jits_Phase_8,1,1,48,50,1514482640
98,15,15,Jits_Phase_8,2,5,63,98,1514492332
98,15,15,Jits_Phase_8,3,5,56,103,1514521932
98,15,15,Jits_Phase_8,0,5,80,127,1515262284
98,15,15,Jits_Phase_8,1,5,63,98,1515281848
98,15,15,Jits_Phase_8,2,1,48,40,1515302872
98,15,15,Jits_Phase_8,3,5,56,103,1515342376
98,15,15,Jits_Phase_8,0,5,80,127,1516062132
98,15,15,Jits_Phase_8,1,1,48,43,1516079496
98,15,15,Jits_Phase_8,2,5,56,103,1516162396
98,15,15,Jits_Phase_8,3,5,63,98,1516192208
98,15,15,Jits_Phase_8,0,5,63,98,1516851420
98,15,15,Jits_Phase_8,1,5,80,127,1516901796
98,15,15,Jits_Phase_8,2,5,56,103,1516922180
98,15,15,Jits_Phase_8,3,1,48,45,1516935268
98,15,15,Jits_Phase_8,0,5,80,127,1517692328
98,15,15,Jits_Phase_8,1,1,48,50,1517707584
98,15,15,Jits_Phase_8,2,5,56,103,1517722220
98,15,15,Jits_Phase_8,3,5,63,98,1517725064
98,15,15,Jits_Phase_8,0,1,48,58,1518478192
98,15,15,Jits_Phase_8,1,5,63,98,1518542432
98,15,15,Jits_Phase_8,2,5,56,103,1518582284
98,15,15,Jits_Phase_8,3,5,80,127,1518601548
98,15,15,Jits_Phase_8,0,5,80,127,1519302044
98,15,15,Jits_Phase_8,1,1,48,50,1519318940
98,15,15,Jits_Phase_8,2,5,63,98,1519381760
98,15,15,Jits_Phase_8,3,5,56,103,1519421832
98,15,15,Jits_Phase_8,0,5,63,98,1520122200
98,15,15,Jits_Phase_8,1,1,48,48,1520150876
98,15,15,Jits_Phase_8,2,5,80,127,1520202216
98,15,15,Jits_Phase_8,3,5,56,103,1520221404
98,15,15,Jits_Phase_8,0,1,48,36,1520953476
98,15,15,Jits_Phase_8,1,5,56,103,1520962040
98,15,15,Jits_Phase_8,2,5,63,98,1520972384
98,15,15,Jits_Phase_8,3,5,80,127,1521012200
98,15,15,Jits_Phase_8,0,5,56,103,1521681716
98,15,15,Jits_Phase_8,1,5,80,127,1521684784
98,15,15,Jits_Phase_8,2,1,48,44,1521780532
98,15,15,Jits_Phase_8,3,5,63,98,1521822208
98,15,15,Jits_Phase_8,0,5,56,103,1522472260
98,15,15,Jits_Phase_8,1,1,48,52,1522527672
98,15,15,Jits_Phase_8,2,5,63,98,1522562412
98,15,15,Jits_Phase_8,3,5,80,127,1522632152
98,15,15,Jits_Phase_8,0,1,48,49,1523287656
98,15,15,Jits_Phase_8,1,5,63,98,1523351844
98,15,15,Jits_Phase_8,2,5,80,127,1523355432
98,15,15,Jits_Phase_8,3,5,56,103,1523412292
98,15,15,Jits_Phase_8,0,1,48,49,1524160492
98,15,15,Jits_Phase_8,1,5,80,127,1524191608
98,15,15,Jits_Phase_8,2,5,56,103,1524212216
98,15,15,Jits_Phase_8,3,5,63,98,1524222264
98,15,15,Jits_Phase_8,0,5,56,103,1524902148
98,15,15,Jits_Phase_8,1,5,63,98,1524911372
98,15,15,Jits_Phase_8,2,5,80,127,1524982320
98,15,15,Jits_Phase_8,3,1,48,53,1524989104
98,15,15,Jits_Phase_8,0,1,48,53,1525641048
98,15,15,Jits_Phase_8,1,5,80,127,1525702060
98,15,15,Jits_Phase_8,2,5,56,103,1525752100
98,15,15,Jits_Phase_8,3,5,63,98,1525802376
98,15,15,Jits_Phase_8,0,1,48,56,1526514756
98,15,15,Jits_Phase_8,1,5,56,103,1526581764
98,15,15,Jits_Phase_8,2,5,63,98,1526592036
98,15,15,Jits_Phase_8,3,5,80,127,1526631832
98,15,15,Jits_Phase_8,0,5,56,103,1527322124
98,15,15,Jits_Phase_8,1,1,48,53,1527343228
98,15,15,Jits_Phase_8,2,5,63,98,1527362204
98,15,15,Jits_Phase_8,3,5,80,127,1527412280
98,15,15,Jits_Phase_8,0,5,80,127,1528081740
98,15,15,Jits_Phase_8,1,5,56,103,1528131940
98,15,15,Jits_Phase_8,2,1,48,51,1528143824
98,15,15,Jits_Phase_8,3,5,63,98,1528152544
98,15,15,Jits_Phase_8,0,1,48,55,1528865360
98,15,15,Jits_Phase_8,1,5,80,127,1528891840
98,15,15,Jits_Phase_8,2,5,63,98,1528952108
98,15,15,Jits_Phase_8,3,5,56,103,1529032032
98,15,15,Jits_Phase_8,0,5,80,127,1529672200
98,15,15,Jits_Phase_8,1,5,56,103,1529712088
98,15,15,Jits_Phase_8,2,1,48,49,1529722628
98,15,15,Jits_Phase_8,3,5,63,98,1529731496
98,15,15,Jits_Phase_8,0,1,48,51,1530497128
98,15,15,Jits_Phase_8,1,5,56,103,1530522108
98,15,15,Jits_Phase_8,2,5,80,127,1530532300
98,15,15,Jits_Phase_8,3,5,63,98,1530572164
98,15,15,Jits_Phase_8,0,1,48,49,1531324612
98,15,15,Jits_Phase_8,1,5,56,103,1531392440
98,15,15,Jits_Phase_8,2,5,63,98,1531432212
98,15,15,Jits_Phase_8,3,5,80,127,1531435656
98,15,15,Jits_Phase_8,0,5,63,98,1532062292
98,15,15,Jits_Phase_8,1,5,80,127,1532102084
98,15,15,Jits_Phase_8,2,1,48,58,1532160872
98,15,15,Jits_Phase_8,3,5,56,103,1532171608
98,15,15,Jits_Phase_8,0,5,63,98,1532832156
98,15,15,Jits_Phase_8,1,5,56,103,1532912100
98,15,15,Jits_Phase_8,2,1,48,55,1532917088
98,15,15,Jits_Phase_8,3,5,80,127,1532972332
98,15,15,Jits_Phase_8,0,5,80,127,1533641952
98,15,15,Jits_Phase_8,1,1,48,54,1533657800
98,15,15,Jits_Phase_8,2,5,63,98,1533692224
98,15,15,Jits_Phase_8,3,5,56,103,1533722044
98,15,15,Jits_Phase_8,0,5,56,103,1534431532
98,15,15,Jits_Phase_8,1,5,63,98,1534481812
98,15,15,Jits_Phase_8,2,5,80,127,1534492156
98,15,15,Jits_Phase_8,3,1,48,50,1534496544
98,15,15,Jits_Phase_8,0,1,48,54,1535212536
98,15,15,Jits_Phase_8,1,5,56,103,1535241712
98,15,15,Jits_Phase_8,2,5,63,98,1535352160
98,15,15,Jits_Phase_8,3,5,80,127,1535371644
98,15,15,Jits_Phase_8,0,5,63,98,1536042304
98,15,15,Jits_Phase_8,1,1,48,51,1536061464
98,15,15,Jits_Phase_8,2,5,80,127,1536091452
98,15,15,Jits_Phase_8,3,5,56,103,1536181888
98,15,15,Jits_Phase_8,0,1,48,52,1536824188
98,15,15,Jits_Phase_8,1,5,63,98,1536831936
98,15,15,Jits_Phase_8,2,5,80,127,1536861464
98,15,15,Jits_Phase_8,3,5,56,103,1536951604
98,15,15,Jits_Phase_8,0,5,63,98,1537631548
98,15,15,Jits_Phase_8,1,5,56,103,1537641968
98,15,15,Jits_Phase_8,2,1,48,39,1537670788
98,15,15,Jits_Phase_8,3,5,80,127,1537742132
98,15,15,Jits_Phase_8,0,1,48,51,1538416804
98,15,15,Jits_Phase_8,1,5,63,98,1538531824
98,15,15,Jits_Phase_8,2,5,80,127,1538562472
98,15,15,Jits_Phase_8,3,5,56,103,1538592148
98,15,15,Jits_Phase_8,0,1,48,54,1539288928
98,15,15,Jits_Phase_8,1,5,80,127,1539351976
98,15,15,Jits_Phase_8,2,5,63,98,1539362320
98,15,15,Jits_Phase_8,3,5,56,103,1539391908
98,15,15,Jits_Phase_8,0,5,80,127,1540052252
98,15,15,Jits_Phase_8,1,5,63,98,1540072036
98,15,15,Jits_Phase_8,2,5,56,103,1540122016
98,15,15,Jits_Phase_8,3,1,48,59,1540132404
98,15,15,Jits_Phase_8,0,5,63,98,1540882064
98,15,15,Jits_Phase_8,1,1,48,49,1540898588
98,15,15,Jits_Phase_8,2,5,80,127,1540942152
98,15,15,Jits_Phase_8,3,5,56,103,1540961740
98,15,15,Jits_Phase_8,0,5,63,98,1541641444
98,15,15,Jits_Phase_8,1,5,56,103,1541692020
98,15,15,Jits_Phase_8,2,5,80,127,1541702068
98,15,15,Jits_Phase_8,3,1,48,55,1541720700
98,15,15,Jits_Phase_8,0,5,56,103,1542472136
98,15,15,Jits_Phase_8,1,5,80,127,1542482260
98,15,15,Jits_Phase_8,2,1,48,53,1542487400
98,15,15,Jits_Phase_8,3,5,63,98,1542581696
98,15,15,Jits_Phase_8,0,5,80,127,1543231752
98,15,15,Jits_Phase_8,1,5,63,98,1543242172
98,15,15,Jits_Phase_8,2,1,48,50,1543307344
98,15,15,Jits_Phase_8,3,5,56,103,1543391800
98,15,15,Jits_Phase_8,0,5,63,98,1544041808
98,15,15,Jits_Phase_8,1,1,48,48,1544042924
98,15,15,Jits_Phase_8,2,5,80,127,1544081964
98,15,15,Jits_Phase_8,3,5,56,103,1544161816
98,15,15,Jits_Phase_8,0,5,56,103,1544792536
98,15,15,Jits_Phase_8,1,1,48,52,1544851276
98,15,15,Jits_Phase_8,2,5,80,127,1544892056
98,15,15,Jits_Phase_8,3,5,63,98,1544912140
98,15,15,Jits_Phase_8,0,5,80,127,1545611748
98,15,15,Jits_Phase_8,1,5,56,103,1545622016
98,15,15,Jits_Phase_8,2,1,48,53,1545623660
98,15,15,Jits_Phase_8,3,5,63,98,1545712068
98,15,15,Jits_Phase_8,0,1,48,50,1546392764
98,15,15,Jits_Phase_8,1,5,56,103,1546412340
98,15,15,Jits_Phase_8,2,5,63,98,1546431828
98,15,15,Jits_Phase_8,3,5,80,127,1546511904
98,15,15,Jits_Phase_8,0,5,63,98,1547161988
98,15,15,Jits_Phase_8,1,1,48,52,1547180472
98,15,15,Jits_Phase_8,2,5,56,103,1547252188
98,15,15,Jits_Phase_8,3,5,80,127,1547255252
98,15,15,Jits_Phase_8,0,5,56,103,1547992300
98,15,15,Jits_Phase_8,1,1,48,54,1547994968
98,15,15,Jits_Phase_8,2,5,80,127,1548051788
98,15,15,Jits_Phase_8,3,5,63,98,1548062208
98,15,15,Jits_Phase_8,0,1,48,52,1548804704
98,15,15,Jits_Phase_8,1,5,80,127,1548842416
98,15,15,Jits_Phase_8,2,5,56,103,1548851564
98,15,15,Jits_Phase_8,3,5,63,98,1548854780
98,15,15,Jits_Phase_8,0,1,48,52,1549588040
98,15,15,Jits_Phase_8,1,5,56,103,1549602084
98,15,15,Jits_Phase_8,2,5,80,127,1549612504
98,15,15,Jits_Phase_8,3,5,63,98,1549631840
98,15,15,Jits_Phase_8,0,5,63,98,1550372100
98,15,15,Jits_Phase_8,1,1,48,48,1550406236
98,15,15,Jits_Phase_8,2,5,80,127,1550431688
98,15,15,Jits_Phase_8,3,5,56,103,1550481812
98,15,15,Jits_Phase_8,0,1,48,48,1551171756
98,15,15,Jits_Phase_8,1,5,63,98,1551251820
98,15,15,Jits_Phase_8,2,5,56,103,1551261944
98,15,15,Jits_Phase_8,3,5,80,127,1551312204
98,15,15,Jits_Phase_8,0,5,63,98,1551952220
98,15,15,Jits_Phase_8,1,5,80,127,1551971884
98,15,15,Jits_Phase_8,2,5,56,103,1551981856
98,15,15,Jits_Phase_8,3,1,48,57,1552015468
98,15,15,Jits_Phase_8,0,1,48,51,1552736380
98,15,15,Jits_Phase_8,1,5,63,98,1552751836
98,15,15,Jits_Phase_8,2,5,80,127,1552755204
98,15,15,Jits_Phase_8,3,5,56,103,1552792004
98,15,15,Jits_Phase_8,0,1,48,47,1553560852
98,15,15,Jits_Phase_8,1,5,63,98,1553622680
98,15,15,Jits_Phase_8,2,5,80,127,1553652208
98,15,15,Jits_Phase_8,3,5,56,103,1553662388
98,15,15,Jits_Phase_8,0,1,48,53,1554366068
98,15,15,Jits_Phase_8,1,5,56,103,1554371944
98,15,15,Jits_Phase_8,2,5,80,127,1554401920
98,15,15,Jits_Phase_8,3,5,63,98,1554432344
98,15,15,Jits_Phase_8,0,1,48,52,1555220980
98,15,15,Jits_Phase_8,1,5,63,98,1555271948
98,15,15,Jits_Phase_8,2,5,56,103,1555311912
98,15,15,Jits_Phase_8,3,5,80,127,1555315936
98,15,15,Jits_Phase_8,0,5,80,127,1555971764
98,15,15,Jits_Phase_8,1,5,56,103,1556052312
98,15,15,Jits_Phase_8,2,1,48,34,1556076956
98,15,15,Jits_Phase_8,3,5,63,98,1556101784
98,15,15,Jits_Phase_8,0,5,80,127,1556751692
98,15,15,Jits_Phase_8,1,5,56,103,1556772224
98,15,15,Jits_Phase_8,2,1,48,51,1556858296
98,15,15,Jits_Phase_8,3,5,63,98,1556862448
98,15,15,Jits_Phase_8,0,5,80,127,1557592364
98,15,15,Jits_Phase_8,1,1,48,54,1557602704
98,15,15,Jits_Phase_8,2,5,63,98,1557632544
98,15,15,Jits_Phase_8,3,5,56,103,1557672332
98,15,15,Jits_Phase_8,0,5,63,98,1558402576
98,15,15,Jits_Phase_8,1,1,48,59,1558410576
98,15,15,Jits_Phase_8,2,5,80,127,1558461840
98,15,15,Jits_Phase_8,3,5,56,103,1558491588
98,15,15,Jits_Phase_8,0,5,56,103,1559242036
98,15,15,Jits_Phase_8,1,1,48,60,1559255044
98,15,15,Jits_Phase_8,2,5,80,127,1559271852
98,15,15,Jits_Phase_8,3,5,63,98,1559361892
98,15,15,Jits_Phase_8,0,5,56,103,1560052068
98,15,15,Jits_Phase_8,1,5,80,127,1560161708
98,15,15,Jits_Phase_8,2,1,48,51,1560170004
98,15,15,Jits_Phase_8,3,5,63,98,1560192648
98,15,15,Jits_Phase_8,0,5,56,103,1560901968
98,15,15,Jits_Phase_8,1,1,48,59,1560906284
98,15,15,Jits_Phase_8,2,5,63,98,1560962528
98,15,15,Jits_Phase_8,3,5,80,127,1560992052
98,15,15,Jits_Phase_8,0,5,56,103,1561672008
98,15,15,Jits_Phase_8,1,5,63,98,1561741640
98,15,15,Jits_Phase_8,2,1,48,60,1561746028
98,15,15,Jits_Phase_8,3,5,80,127,1561762092
98,15,15,Jits_Phase_8,0,5,80,127,1562442036
98,15,15,Jits_Phase_8,1,5,63,98,1562461672
98,15,15,Jits_Phase_8,2,5,56,103,1562511672
98,15,15,Jits_Phase_8,3,1,48,59,1562546776
98,15,15,Jits_Phase_8,0,5,63,98,1563262576
98,15,15,Jits_Phase_8,1,5,80,127,1563271504
98,15,15,Jits_Phase_8,2,1,48,53,1563281968
98,15,15,Jits_Phase_8,3,5,56,103,1563321696
98,15,15,Jits_Phase_8,0,5,63,98,1564062108
98,15,15,Jits_Phase_8,1,1,48,53,1564105456
98,15,15,Jits_Phase_8,2,5,80,127,1564131636
98,15,15,Jits_Phase_8,3,5,56,103,1564152316
98,15,15,Jits_Phase_8,0,5,63,98,1564891464
98,15,15,Jits_Phase_8,1,5,80,127,1564894900
98,15,15,Jits_Phase_8,2,1,48,57,1564929948
98,15,15,Jits_Phase_8,3,5,56,103,1564962108
98,15,15,Jits_Phase_8,0,5,80,127,1565642212
98,15,15,Jits_Phase_8,1,5,56,103,1565661772
98,15,15,Jits_Phase_8,2,5,63,98,1565671672
98,15,15,Jits_Phase_8,3,1,48,63,1565710604
98,15,15,Jits_Phase_8,0,5,56,103,1566462428
98,15,15,Jits_Phase_8,1,1,48,51,1566500028
98,15,15,Jits_Phase_8,2,5,63,98,1566552484
98,15,15,Jits_Phase_8,3,5,80,127,1566555772
98,15,15,Jits_Phase_8,0,5,80,127,1567232380
98,15,15,Jits_Phase_8,1,5,56,103,1567241752
98,15,15,Jits_Phase_8,2,5,63,98,1567262060
98,15,15,Jits_Phase_8,3,1,48,56,1567293872
98,15,15,Jits_Phase_8,0,5,63,98,1568031992
98,15,15,Jits_Phase_8,1,1,48,61,1568052720
98,15,15,Jits_Phase_8,2,5,80,127,1568091480
98,15,15,Jits_Phase_8,3,5,56,103,1568101848
98,15,15,Jits_Phase_8,0,1,48,64,1568858752
98,15,15,Jits_Phase_8,1,5,63,98,1568901592
98,15,15,Jits_Phase_8,2,5,80,127,1568932316
98,15,15,Jits_Phase_8,3,5,56,103,1568972088
98,15,15,Jits_Phase_8,0,5,56,103,1569692216
98,15,15,Jits_Phase_8,1,1,48,62,1569696984
98,15,15,Jits_Phase_8,2,5,80,127,1569702632
98,15,15,Jits_Phase_8,3,5,63,98,1569742124
98,15,15,Jits_Phase_8,0,5,80,127,1570451684
98,15,15,Jits_Phase_8,1,1,48,57,1570482232
98,15,15,Jits_Phase_8,2,5,56,103,1570531624
98,15,15,Jits_Phase_8,3,5,63,98,1570541896
98,15,15,Jits_Phase_8,0,1,48,63,1571286780
98,15,15,Jits_Phase_8,1,5,80,127,1571301724
98,15,15,Jits_Phase_8,2,5,56,103,1571381656
98,15,15,Jits_Phase_8,3,5,63,98,1571391924
98,15,15,Jits_Phase_8,0,1,48,55,1572129028
98,15,15,Jits_Phase_8,1,5,80,127,1572141352
98,15,15,Jits_Phase_8,2,5,56,103,1572191504
98,15,15,Jits_Phase_8,3,5,63,98,1572241688
98,15,15,Jits_Phase_8,0,1,48,53,1572950516
98,15,15,Jits_Phase_8,1,5,56,103,1573081512
98,15,15,Jits_Phase_8,2,5,63,98,1573084576
98,15,15,Jits_Phase_8,3,5,80,127,1573131636
98,15,15,Jits_Phase_8,0,1,48,55,1573789684
98,15,15,Jits_Phase_8,1,5,56,103,1573901640
98,15,15,Jits_Phase_8,2,5,63,98,1573932364
98,15,15,Jits_Phase_8,3,5,80,127,1573941588
98,15,15,Jits_Phase_8,0,5,63,98,1574612420
98,15,15,Jits_Phase_8,1,1,48,56,1574670392
98,15,15,Jits_Phase_8,2,5,56,103,1574681948
98,15,15,Jits_Phase_8,3,5,80,127,1574731996
98,15,15,Jits_Phase_8,0,1,48,57,1575441396
98,15,15,Jits_Phase_8,1,5,63,98,1575442960
98,15,15,Jits_Phase_8,2,5,56,103,1575452108
98,15,15,Jits_Phase_8,3,5,80,127,1575455248
98,15,15,Jits_Phase_8,0,5,80,127,1576192292
98,15,15,Jits_Phase_8,1,5,56,103,1576251712
98,15,15,Jits_Phase_8,2,1,48,61,1576257972
98,15,15,Jits_Phase_8,3,5,63,98,1576341932
98,15,15,Jits_Phase_8,0,5,80,127,1576992208
98,15,15,Jits_Phase_8,1,1,48,62,1577062560
98,15,15,Jits_Phase_8,2,5,56,103,1577091428
98,15,15,Jits_Phase_8,3,5,63,98,1577132488
98,15,15,Jits_Phase_8,0,5,56,103,1577841904
98,15,15,Jits_Phase_8,1,5,63,98,1577861616
98,15,15,Jits_Phase_8,2,1,48,61,1577881592
98,15,15,Jits_Phase_8,3,5,80,127,1577901400
98,15,15,Jits_Phase_8,0,5,63,98,1578612156
98,15,15,Jits_Phase_8,1,5,56,103,1578631496
98,15,15,Jits_Phase_8,2,1,48,62,1578643380
98,15,15,Jits_Phase_8,3,5,80,127,1578731884
98,15,15,Jits_Phase_8,0,5,63,98,1579401576
98,15,15,Jits_Phase_8,1,1,48,58,1579426196
98,15,15,Jits_Phase_8,2,5,80,127,1579512304
98,15,15,Jits_Phase_8,3,5,56,103,1579541740
98,15,15,Jits_Phase_8,0,5,56,103,1580221716
98,15,15,Jits_Phase_8,1,1,48,56,1580229172
98,15,15,Jits_Phase_8,2,5,63,98,1580251460
98,15,15,Jits_Phase_8,3,5,80,127,1580301808
98,15,15,Jits_Phase_8,0,5,63,98,1580991968
98,15,15,Jits_Phase_8,1,1,48,56,1581005720
98,15,15,Jits_Phase_8,2,5,56,103,1581021560
98,15,15,Jits_Phase_8,3,5,80,127,1581071688
98,15,15,Jits_Phase_8,0,1,48,55,1581814988
98,15,15,Jits_Phase_8,1,5,56,103,1581822356
98,15,15,Jits_Phase_8,2,5,63,98,1581841844
98,15,15,Jits_Phase_8,3,5,80,127,1581921500
98,15,15,Jits_Phase_8,0,5,63,98,1582592380
98,15,15,Jits_Phase_8,1,5,56,103,1582651800
98,15,15,Jits_Phase_8,2,1,48,51,1582671328
98,15,15,Jits_Phase_8,3,5,80,127,1582681316
98,15,15,Jits_Phase_8,0,1,48,55,1583421320
98,15,15,Jits_Phase_8,1,5,56,103,1583432060
98,15,15,Jits_Phase_8,2,5,80,127,1583491428
98,15,15,Jits_Phase_8,3,5,63,98,1583532396
98,15,15,Jits_Phase_8,0,5,63,98,1584212420
98,15,15,Jits_Phase_8,1,1,48,49,1584246204
98,15,15,Jits_Phase_8,2,5,56,103,1584271636
98,15,15,Jits_Phase_8,3,5,80,127,1584342492
98,15,15,Jits_Phase_8,0,1,48,54,1585047300
98,15,15,Jits_Phase_8,1,5,56,103,1585092216
98,15,15,Jits_Phase_8,2,5,63,98,1585102408
98,15,15,Jits_Phase_8,3,5,80,127,1585105700
98,15,15,Jits_Phase_8,0,5,63,98,1585832340
98,15,15,Jits_Phase_8,1,5,56,103,1585891680
98,15,15,Jits_Phase_8,2,5,80,127,1585894672
98,15,15,Jits_Phase_8,3,1,48,48,1585899904
98,15,15,Jits_Phase_8,0,5,63,98,1586611560
98,15,15,Jits_Phase_8,1,5,80,127,1586642208
98,15,15,Jits_Phase_8,2,5,56,103,1586661844
98,15,15,Jits_Phase_8,3,1,48,53,1586664436
98,15,15,Jits_Phase_8,0,5,56,103,1587341636
98,15,15,Jits_Phase_8,1,5,63,98,1587392064
98,15,15,Jits_Phase_8,2,1,48,51,1587427916
98,15,15,Jits_Phase_8,3,5,80,127,1587471848
98,15,15,Jits_Phase_8,0,5,80,127,1588042348
98,15,15,Jits_Phase_8,1,5,63,98,1588082236
98,15,15,Jits_Phase_8,2,5,56,103,1588101428
98,15,15,Jits_Phase_8,3,1,48,46,1588225524
98,15,15,Jits_Phase_8,0,1,48,45,1588822356
98,15,15,Jits_Phase_8,1,5,56,103,1588911488
98,15,15,Jits_Phase_8,2,5,80,127,1588921668
98,15,15,Jits_Phase_8,3,5,63,98,1588942052
98,15,15,Jits_Phase_8,0,1,48,45,1589655852
98,15,15,Jits_Phase_8,1,5,56,103,1589691692
98,15,15,Jits_Phase_8,2,5,63,98,1589742196
98,15,15,Jits_Phase_8,3,5,80,127,1589771632
98,15,15,Jits_Phase_8,0,5,56,103,1590442460
98,15,15,Jits_Phase_8,1,5,63,98,1590451536
98,15,15,Jits_Phase_8,2,1,48,50,1590492268
98,15,15,Jits_Phase_8,3,5,80,127,1590501728
98,15,15,Jits_Phase_8,0,5,56,103,1591232108
98,15,15,Jits_Phase_8,1,5,80,127,1591235248
98,15,15,Jits_Phase_8,2,1,48,49,1591273288
98,15,15,Jits_Phase_8,3,5,63,98,1591391468
98,15,15,Jits_Phase_8,0,5,63,98,1592052248
98,15,15,Jits_Phase_8,1,1,48,46,1592108704
98,15,15,Jits_Phase_8,2,5,56,103,1592121700
98,15,15,Jits_Phase_8,3,5,80,127,1592161588
98,15,15,Jits_Phase_8,0,1,48,47,1592869200
98,15,15,Jits_Phase_8,1,5,63,98,1592891860
98,15,15,Jits_Phase_8,2,5,56,103,1592982152
98,15,15,Jits_Phase_8,3,5,80,127,1592985144
98,15,15,Jits_Phase_8,0,1,48,50,1593632624
98,15,15,Jits_Phase_8,1,5,56,103,1593672208
98,15,15,Jits_Phase_8,2,5,63,98,1593762280
98,15,15,Jits_Phase_8,3,5,80,127,1593772476
98,15,15,Jits_Phase_8,0,5,56,103,1594442084
98,15,15,Jits_Phase_8,1,1,48,45,1594480448
98,15,15,Jits_Phase_8,2,5,63,98,1594492304
98,15,15,Jits_Phase_8,3,5,80,127,1594522056
98,15,15,Jits_Phase_8,0,1,48,42,1595303136
98,15,15,Jits_Phase_8,1,5,63,98,1595321668
98,15,15,Jits_Phase_8,2,5,80,127,1595332160
98,15,15,Jits_Phase_8,3,5,56,103,1595392328
98,15,15,Jits_Phase_8,0,5,63,98,1596041496
98,15,15,Jits_Phase_8,1,1,48,52,1596086868
98,15,15,Jits_Phase_8,2,5,80,127,1596102104
98,15,15,Jits_Phase_8,3,5,56,103,1596141972
98,15,15,Jits_Phase_8,0,1,48,44,1596835820
98,15,15,Jits_Phase_8,1,5,56,103,1596941628
98,15,15,Jits_Phase_8,2,5,80,127,1596962088
98,15,15,Jits_Phase_8,3,5,63,98,1596981652
98,15,15,Jits_Phase_8,0,5,63,98,1597661628
98,15,15,Jits_Phase_8,1,5,56,103,1597682308
98,15,15,Jits_Phase_8,2,1,48,47,1597690084
98,15,15,Jits_Phase_8,3,5,80,127,1597722016
98,15,15,Jits_Phase_8,0,1,48,47,1598422912
98,15,15,Jits_Phase_8,1,5,63,98,1598471416
98,15,15,Jits_Phase_8,2,5,80,127,1598502212
98,15,15,Jits_Phase_8,3,5,56,103,1598521832
98,15,15,Jits_Phase_8,0,1,48,53,1599241132
98,15,15,Jits_Phase_8,1,5,80,127,1599242624
98,15,15,Jits_Phase_8,2,5,56,103,1599291928
98,15,15,Jits_Phase_8,3,5,63,98,1599352032
98,15,15,Jits_Phase_8,0,5,63,98,1600032272
98,15,15,Jits_Phase_8,1,1,48,47,1600076668
98,15,15,Jits_Phase_8,2,5,56,103,1600152096
98,15,15,Jits_Phase_8,3,5,80,127,1600181680
98,15,15,Jits_Phase_8,0,1,48,50,1600848172
98,15,15,Jits_Phase_8,1,5,80,127,1600872056
98,15,15,Jits_Phase_8,2,5,63,98,1600892364
98,15,15,Jits_Phase_8,3,5,56,103,1600962028
98,15,15,Jits_Phase_8,0,5,63,98,1601692120
98,15,15,Jits_Phase_8,1,5,56,103,1601702392
98,15,15,Jits_Phase_8,2,1,48,42,1601710912
98,15,15,Jits_Phase_8,3,5,80,127,1601782104
98,15,15,Jits_Phase_8,0,1,48,48,1602486000
98,15,15,Jits_Phase_8,1,5,56,103,1602552188
98,15,15,Jits_Phase_8,2,5,80,127,1602582000
98,15,15,Jits_Phase_8,3,5,63,98,1602592044
98,15,15,Jits_Phase_8,0,9999,9999,9999,1467709544
98,15,15,Jits_Phase_8,1,9999,9999,9999,1468509260
98,15,15,Jits_Phase_8,2,9999,9999,9999,1469310040
98,15,15,Jits_Phase_8,3,9999,9999,9999,1470109808
98,15,15,Jits_Phase_8,4,9999,9999,9999,1470909500
98,15,15,Jits_Phase_8,5,9999,9999,9999,1471709264
98,15,15,Jits_Phase_8,6,9999,9999,9999,1472510068
98,15,15,Jits_Phase_8,7,9999,9999,9999,1473309752
98,15,15,Jits_Phase_8,8,9999,9999,9999,1474109512
98,15,15,Jits_Phase_8,9,9999,9999,9999,1474909260
98,15,15,Jits_Phase_8,10,9999,9999,9999,1475710032
98,15,15,Jits_Phase_8,11,9999,9999,9999,1476509788
98,15,15,Jits_Phase_8,12,9999,9999,9999,1477309552
98,15,15,Jits_Phase_8,13,9999,9999,9999,1478109304
98,15,15,Jits_Phase_8,14,9999,9999,9999,1478910020
98,15,15,Jits_Phase_8,15,9999,9999,9999,1479709784
98,15,15,Jits_Phase_8,16,9999,9999,9999,1480509524
98,15,15,Jits_Phase_8,17,9999,9999,9999,1481309304
98,15,15,Jits_Phase_8,18,9999,9999,9999,1482110056
98,15,15,Jits_Phase_8,19,9999,9999,9999,1482909756
98,15,15,Jits_Phase_8,20,9999,9999,9999,1483709512
98,15,15,Jits_Phase_8,21,9999,9999,9999,1484509268
98,15,15,Jits_Phase_8,22,9999,9999,9999,1485310076
98,15,15,Jits_Phase_8,23,9999,9999,9999,1486109772
98,15,15,Jits_Phase_8,24,9999,9999,9999,1486909528
98,15,15,Jits_Phase_8,25,9999,9999,9999,1487709284
98,15,15,Jits_Phase_8,26,9999,9999,9999,1488510048
98,15,15,Jits_Phase_8,27,9999,9999,9999,1489309820
98,15,15,Jits_Phase_8,28,9999,9999,9999,1490109516
98,15,15,Jits_Phase_8,29,9999,9999,9999,1490909296
98,15,15,Jits_Phase_8,30,9999,9999,9999,1491689572
98,15,15,Jits_Phase_8,31,9999,9999,9999,1492489328
98,15,15,Jits_Phase_8,32,9999,9999,9999,1493290072
98,15,15,Jits_Phase_8,33,9999,9999,9999,1494089836
98,15,15,Jits_Phase_8,34,9999,9999,9999,1494889544
98,15,15,Jits_Phase_8,35,9999,9999,9999,1495689312
98,15,15,Jits_Phase_8,36,9999,9999,9999,1496490096
98,15,15,Jits_Phase_8,37,9999,9999,9999,1497289852
98,15,15,Jits_Phase_8,38,9999,9999,9999,1498089548
98,15,15,Jits_Phase_8,39,9999,9999,9999,1498889320
98,15,15,Jits_Phase_8,40,9999,9999,9999,1499690052
98,15,15,Jits_Phase_8,41,9999,9999,9999,1500489824
98,15,15,Jits_Phase_8,42,9999,9999,9999,1501289528
98,15,15,Jits_Phase_8,43,9999,9999,9999,1502089292
98,15,15,Jits_Phase_8,44,9999,9999,9999,1502890076
98,15,15,Jits_Phase_8,45,9999,9999,9999,1503689840
98,15,15,Jits_Phase_8,46,9999,9999,9999,1504489544
98,15,15,Jits_Phase_8,47,9999,9999,9999,1505289312
98,15,15,Jits_Phase_8,48,9999,9999,9999,1506109540
98,15,15,Jits_Phase_8,49,9999,9999,9999,1506909296
98,15,15,Jits_Phase_8,50,9999,9999,9999,1507710044
98,15,15,Jits_Phase_8,51,9999,9999,9999,1508509804
98,15,15,Jits_Phase_8,52,9999,9999,9999,1509309504
98,15,15,Jits_Phase_8,53,9999,9999,9999,1510109284
98,15,15,Jits_Phase_8,54,9999,9999,9999,1510910008
98,15,15,Jits_Phase_8,55,9999,9999,9999,1511709780
98,15,15,Jits_Phase_8,56,9999,9999,9999,1512509532
98,15,15,Jits_Phase_8,57,9999,9999,9999,1513309304
98,15,15,Jits_Phase_8,58,9999,9999,9999,1514110068
98,15,15,Jits_Phase_8,59,9999,9999,9999,1514909752
98,15,15,Jits_Phase_8,60,9999,9999,9999,1515709524
98,15,15,Jits_Phase_8,61,9999,9999,9999,1516509300
98,15,15,Jits_Phase_8,62,9999,9999,9999,1517310044
98,15,15,Jits_Phase_8,63,9999,9999,9999,1518109792
98,15,15,Jits_Phase_8,64,9999,9999,9999,1518949452
98,15,15,Jits_Phase_8,65,9999,9999,9999,1519749216
98,15,15,Jits_Phase_8,66,9999,9999,9999,1520549964
98,15,15,Jits_Phase_8,67,9999,9999,9999,1521349728
98,15,15,Jits_Phase_8,68,9999,9999,9999,1522149476
98,15,15,Jits_Phase_8,69,9999,9999,9999,1522949248
98,15,15,Jits_Phase_8,70,9999,9999,9999,1523749988
98,15,15,Jits_Phase_8,71,9999,9999,9999,1524549752
98,15,15,Jits_Phase_8,72,9999,9999,9999,1525349460
98,15,15,Jits_Phase_8,73,9999,9999,9999,1526149236
98,15,15,Jits_Phase_8,74,9999,9999,9999,1526949972
98,15,15,Jits_Phase_8,75,9999,9999,9999,1527749736
98,15,15,Jits_Phase_8,76,9999,9999,9999,1528549504
98,15,15,Jits_Phase_8,77,9999,9999,9999,1529349204
98,15,15,Jits_Phase_8,78,9999,9999,9999,1530150000
98,15,15,Jits_Phase_8,79,9999,9999,9999,1530949700
98,15,15,Jits_Phase_8,80,9999,9999,9999,1531749484
98,15,15,Jits_Phase_8,81,9999,9999,9999,1532509284
98,15,15,Jits_Phase_8,82,9999,9999,9999,1533310036
98,15,15,Jits_Phase_8,83,9999,9999,9999,1534109792
98,15,15,Jits_Phase_8,84,9999,9999,9999,1534909560
98,15,15,Jits_Phase_8,85,9999,9999,9999,1535709264
98,15,15,Jits_Phase_8,86,9999,9999,9999,1536510068
98,15,15,Jits_Phase_8,87,9999,9999,9999,1537309824
98,15,15,Jits_Phase_8,88,9999,9999,9999,1538109548
98,15,15,Jits_Phase_8,89,9999,9999,9999,1538909240
98,15,15,Jits_Phase_8,90,9999,9999,9999,1539710072
98,15,15,Jits_Phase_8,91,9999,9999,9999,1540509752
98,15,15,Jits_Phase_8,92,9999,9999,9999,1541309528
98,15,15,Jits_Phase_8,93,9999,9999,9999,1542109280
98,15,15,Jits_Phase_8,94,9999,9999,9999,1542910012
98,15,15,Jits_Phase_8,95,9999,9999,9999,1543709780
98,15,15,Jits_Phase_8,96,9999,9999,9999,1544509548
98,15,15,Jits_Phase_8,97,9999,9999,9999,1545229368
98,15,15,Jits_Phase_8,98,9999,9999,9999,1546029148
98,15,15,Jits_Phase_8,99,9999,9999,9999,1546829896
98,15,15,Jits_Phase_8,100,9999,9999,9999,1547629668
98,15,15,Jits_Phase_8,101,9999,9999,9999,1548429428
98,15,15,Jits_Phase_8,102,9999,9999,9999,1549229120
98,15,15,Jits_Phase_8,103,9999,9999,9999,1550029920
98,15,15,Jits_Phase_8,104,9999,9999,9999,1550829680
98,15,15,Jits_Phase_8,105,9999,9999,9999,1551629372
98,15,15,Jits_Phase_8,106,9999,9999,9999,1552429128
98,15,15,Jits_Phase_8,107,9999,9999,9999,1553229912
98,15,15,Jits_Phase_8,108,9999,9999,9999,1554029624
98,15,15,Jits_Phase_8,109,9999,9999,9999,1554829376
98,15,15,Jits_Phase_8,110,9999,9999,9999,1555629140
98,15,15,Jits_Phase_8,111,9999,9999,9999,1556429948
98,15,15,Jits_Phase_8,112,9999,9999,9999,1557229644
98,15,15,Jits_Phase_8,113,9999,9999,9999,1558029412
98,15,15,Jits_Phase_8,114,9999,9999,9999,1558910044
98,15,15,Jits_Phase_8,115,9999,9999,9999,1559709800
98,15,15,Jits_Phase_8,116,9999,9999,9999,1560509504
98,15,15,Jits_Phase_8,117,9999,9999,9999,1561309284
98,15,15,Jits_Phase_8,118,9999,9999,9999,1562110032
98,15,15,Jits_Phase_8,119,9999,9999,9999,1562909796
98,15,15,Jits_Phase_8,120,9999,9999,9999,1563709568
98,15,15,Jits_Phase_8,121,9999,9999,9999,1564509248
98,15,15,Jits_Phase_8,122,9999,9999,9999,1565310072
98,15,15,Jits_Phase_8,123,9999,9999,9999,1566109824
98,15,15,Jits_Phase_8,124,9999,9999,9999,1566909516
98,15,15,Jits_Phase_8,125,9999,9999,9999,1567709280
98,15,15,Jits_Phase_8,126,9999,9999,9999,1568510020
98,15,15,Jits_Phase_8,127,9999,9999,9999,1569309780
98,15,15,Jits_Phase_8,128,9999,9999,9999,1570109540
98,15,15,Jits_Phase_8,129,9999,9999,9999,1570909240
98,15,15,Jits_Phase_8,130,9999,9999,9999,1571710016
98,15,15,Jits_Phase_8,131,9999,9999,9999,1572669500
98,15,15,Jits_Phase_8,132,9999,9999,9999,1573469252
98,15,15,Jits_Phase_8,133,9999,9999,9999,1574270016
98,15,15,Jits_Phase_8,134,9999,9999,9999,1575069772
98,15,15,Jits_Phase_8,135,9999,9999,9999,1575869516
98,15,15,Jits_Phase_8,136,9999,9999,9999,1576669272
98,15,15,Jits_Phase_8,137,9999,9999,9999,1577470016
98,15,15,Jits_Phase_8,138,9999,9999,9999,1578269788
98,15,15,Jits_Phase_8,139,9999,9999,9999,1579069560
98,15,15,Jits_Phase_8,140,9999,9999,9999,1579869272
98,15,15,Jits_Phase_8,141,9999,9999,9999,1580670076
98,15,15,Jits_Phase_8,142,9999,9999,9999,1581469768
98,15,15,Jits_Phase_8,143,9999,9999,9999,1582269528
98,15,15,Jits_Phase_8,144,9999,9999,9999,1583069284
98,15,15,Jits_Phase_8,145,9999,9999,9999,1583870016
98,15,15,Jits_Phase_8,146,9999,9999,9999,1584669776
98,15,15,Jits_Phase_8,147,9999,9999,9999,1585469532
98,15,15,Jits_Phase_8,148,9999,9999,9999,1586269304
98,15,15,Jits_Phase_8,149,9999,9999,9999,1587070032
98,15,15,Jits_Phase_8,150,9999,9999,9999,1587710044
98,15,15,Jits_Phase_8,151,9999,9999,9999,1588509784
98,15,15,Jits_Phase_8,152,9999,9999,9999,1589309560
98,15,15,Jits_Phase_8,153,9999,9999,9999,1590109276
98,15,15,Jits_Phase_8,154,9999,9999,9999,1590910072
98,15,15,Jits_Phase_8,155,9999,9999,9999,1591709756
98,15,15,Jits_Phase_8,156,9999,9999,9999,1592509528
98,15,15,Jits_Phase_8,157,9999,9999,9999,1593309284
98,15,15,Jits_Phase_8,158,9999,9999,9999,1594110020
98,15,15,Jits_Phase_8,159,9999,9999,9999,1594909776
98,15,15,Jits_Phase_8,160,9999,9999,9999,1595709556
98,15,15,Jits_Phase_8,161,9999,9999,9999,1596509264
98,15,15,Jits_Phase_8,162,9999,9999,9999,1597310080
98,15,15,Jits_Phase_8,163,9999,9999,9999,1598109760
98,15,15,Jits_Phase_8,164,9999,9999,9999,1598909516
98,15,15,Jits_Phase_8,165,9999,9999,9999,1599709276
98,15,15,Jits_Phase_8,166,9999,9999,9999,1600510008
98,15,15,Jits_Phase_8,167,9999,9999,9999,1601309764
98,15,15,Jits_Phase_8,168,9999,9999,9999,1602109520
98,15,15,Jits_Phase_8,169,9999,9999,9999,1602909240
98,16,19,Jits_Linear_5,0,5,56,103,1611921740
98,16,19,Jits_Linear_5,1,5,63,98,1611924840
98,16,19,Jits_Linear_5,2,5,80,127,1611927892
98,16,19,Jits_Linear_5,0,5,56,103,1612412324
98,16,19,Jits_Linear_5,1,5,63,98,1612415644
98,16,19,Jits_Linear_5,2,5,80,127,1612418692
98,16,19,Jits_Linear_5,0,5,56,103,1612891504
98,16,19,Jits_Linear_5,1,5,80,127,1612901996
98,16,19,Jits_Linear_5,2,5,63,98,1612922160
98,16,19,Jits_Linear_5,0,5,63,98,1613321908
98,16,19,Jits_Linear_5,1,5,80,127,1613352184
98,16,19,Jits_Linear_5,2,5,56,103,1613361708
98,16,19,Jits_Linear_5,0,1,48,76,1613806908
98,16,19,Jits_Linear_5,1,5,80,127,1613862232
98,16,19,Jits_Linear_5,2,5,56,103,1613871604
98,16,19,Jits_Linear_5,3,5,63,98,1613902180
98,16,19,Jits_Linear_5,0,5,63,98,1614341704
98,16,19,Jits_Linear_5,1,1,48,69,1614349556
98,16,19,Jits_Linear_5,2,5,56,103,1614372348
98,16,19,Jits_Linear_5,3,5,80,127,1614381496
98,16,19,Jits_Linear_5,0,5,56,103,1614781756
98,16,19,Jits_Linear_5,1,5,63,98,1614831964
98,16,19,Jits_Linear_5,2,1,48,69,1614846764
98,16,19,Jits_Linear_5,3,5,80,127,1614851516
98,16,19,Jits_Linear_5,0,5,80,127,1615272244
98,16,19,Jits_Linear_5,1,1,48,62,1615319816
98,16,19,Jits_Linear_5,2,5,63,98,1615321396
98,16,19,Jits_Linear_5,3,5,56,103,1615362456
98,16,19,Jits_Linear_5,0,5,56,103,1615761908
98,16,19,Jits_Linear_5,1,5,63,98,1615791584
98,16,19,Jits_Linear_5,2,1,48,58,1615802576
98,16,19,Jits_Linear_5,3,5,80,127,1615862232
98,16,19,Jits_Linear_5,0,5,56,103,1616252172
98,16,19,Jits_Linear_5,1,1,48,54,1616270132
98,16,19,Jits_Linear_5,2,5,80,127,1616311660
98,16,19,Jits_Linear_5,3,5,63,98,1616342460
98,16,19,Jits_Linear_5,0,5,56,103,1616751952
98,16,19,Jits_Linear_5,1,5,63,98,1616762224
98,16,19,Jits_Linear_5,2,1,48,49,1616765192
98,16,19,Jits_Linear_5,3,5,80,127,1616802156
98,16,19,Jits_Linear_5,0,5,63,98,1617241588
98,16,19,Jits_Linear_5,1,1,48,59,1617289892
98,16,19,Jits_Linear_5,2,5,80,127,1617322280
98,16,19,Jits_Linear_5,3,5,56,103,1617331800
98,16,19,Jits_Linear_5,0,5,63,98,1617792304
98,16,19,Jits_Linear_5,1,1,48,64,1617805612
98,16,19,Jits_Linear_5,2,5,56,103,1617832236
98,16,19,Jits_Linear_5,3,5,80,127,1617835228
98,16,19,Jits_Linear_5,0,5,56,103,1618252100
98,16,19,Jits_Linear_5,1,5,63,98,1618262296
98,16,19,Jits_Linear_5,2,5,80,127,1618302260
98,16,19,Jits_Linear_5,3,1,48,56,1618315344
98,16,19,Jits_Linear_5,0,5,56,103,1618741608
98,16,19,Jits_Linear_5,1,5,63,98,1618744748
98,16,19,Jits_Linear_5,2,5,80,127,1618762064
98,16,19,Jits_Linear_5,3,1,48,58,1618795320
98,16,19,Jits_Linear_5,0,5,80,127,1619261896
98,16,19,Jits_Linear_5,1,5,56,103,1619272020
98,16,19,Jits_Linear_5,2,1,48,53,1619291100
98,16,19,Jits_Linear_5,3,5,63,98,1619341996
98,16,19,Jits_Linear_5,0,5,63,98,1619761652
98,16,19,Jits_Linear_5,1,5,56,103,1619782112
98,16,19,Jits_Linear_5,2,1,48,51,1619813428
98,16,19,Jits_Linear_5,3,5,80,127,1619861924
98,16,19,Jits_Linear_5,0,5,56,103,1620281864
98,16,19,Jits_Linear_5,1,1,48,51,1620300876
98,16,19,Jits_Linear_5,2,5,80,127,1620321600
98,16,19,Jits_Linear_5,3,5,63,98,1620332096
98,16,19,Jits_Linear_5,0,5,80,127,1620781712
98,16,19,Jits_Linear_5,1,1,48,54,1620802592
98,16,19,Jits_Linear_5,2,5,63,98,1620812204
98,16,19,Jits_Linear_5,3,5,56,103,1620852020
98,16,19,Jits_Linear_5,0,5,56,103,1621311828
98,16,19,Jits_Linear_5,1,1,48,56,1621318688
98,16,19,Jits_Linear_5,2,5,63,98,1621341820
98,16,19,Jits_Linear_5,3,5,80,127,1621391724
98,16,19,Jits_Linear_5,0,5,80,127,1621831908
98,16,19,Jits_Linear_5,1,1,48,49,1621840356
98,16,19,Jits_Linear_5,2,5,56,103,1621871940
98,16,19,Jits_Linear_5,3,5,63,98,1621882212
98,16,19,Jits_Linear_5,0,5,80,127,1622331908
98,16,19,Jits_Linear_5,1,1,48,51,1622371872
98,16,19,Jits_Linear_5,2,5,63,98,1622373208
98,16,19,Jits_Linear_5,3,5,56,103,1622432332
98,16,19,Jits_Linear_5,0,5,56,103,1622851988
98,16,19,Jits_Linear_5,1,5,80,127,1622862336
98,16,19,Jits_Linear_5,2,1,48,59,1622907956
98,16,19,Jits_Linear_5,3,5,63,98,1622942000
98,16,19,Jits_Linear_5,0,5,80,127,1623372068
98,16,19,Jits_Linear_5,1,1,48,58,1623415444
98,16,19,Jits_Linear_5,2,5,63,98,1623431508
98,16,19,Jits_Linear_5,3,5,56,103,1623462156
98,16,19,Jits_Linear_5,0,5,56,103,1623901764
98,16,19,Jits_Linear_5,1,1,48,58,1623952088
98,16,19,Jits_Linear_5,2,5,80,127,1623961928
98,16,19,Jits_Linear_5,3,5,63,98,1624001940
98,16,19,Jits_Linear_5,0,1,48,56,1624442272
98,16,19,Jits_Linear_5,1,5,56,103,1624482152
98,16,19,Jits_Linear_5,2,5,63,98,1624492644
98,16,19,Jits_Linear_5,3,5,80,127,1624495936
98,16,19,Jits_Linear_5,0,5,80,127,1624962436
98,16,19,Jits_Linear_5,1,1,48,60,1624977088
98,16,19,Jits_Linear_5,2,5,63,98,1625051596
98,16,19,Jits_Linear_5,3,5,56,103,1625061864
98,16,19,Jits_Linear_5,0,5,56,103,1625491944
98,16,19,Jits_Linear_5,1,5,63,98,1625495040
98,16,19,Jits_Linear_5,2,5,80,127,1625498164
98,16,19,Jits_Linear_5,3,1,48,57,1625507960
98,16,19,Jits_Linear_5,0,1,48,56,1625995424
98,16,19,Jits_Linear_5,1,5,80,127,1626041680
98,16,19,Jits_Linear_5,2,5,63,98,1626091872
98,16,19,Jits_Linear_5,3,5,56,103,1626121624
98,16,19,Jits_Linear_5,0,1,48,57,1626519376
98,16,19,Jits_Linear_5,1,5,56,103,1626551784
98,16,19,Jits_Linear_5,2,5,80,127,1626561908
98,16,19,Jits_Linear_5,3,5,63,98,1626631500
98,16,19,Jits_Linear_5,0,1,48,58,1627044924
98,16,19,Jits_Linear_5,1,5,56,103,1627092452
98,16,19,Jits_Linear_5,2,5,63,98,1627111792
98,16,19,Jits_Linear_5,3,5,80,127,1627172168
98,16,19,Jits_Linear_5,0,1,48,62,1627599000
98,16,19,Jits_Linear_5,1,5,80,127,1627621888
98,16,19,Jits_Linear_5,2,5,63,98,1627692692
98,16,19,Jits_Linear_5,3,5,56,103,1627711792
98,16,19,Jits_Linear_5,0,1,48,63,1628156308
98,16,19,Jits_Linear_5,1,5,80,127,1628181812
98,16,19,Jits_Linear_5,2,5,56,103,1628192084
98,16,19,Jits_Linear_5,3,5,63,98,1628202432
98,16,19,Jits_Linear_5,0,1,48,54,1628665656
98,16,19,Jits_Linear_5,1,5,80,127,1628712440
98,16,19,Jits_Linear_5,2,5,56,103,1628731704
98,16,19,Jits_Linear_5,3,5,63,98,1628802520
98,16,19,Jits_Linear_5,0,1,48,54,1629223564
98,16,19,Jits_Linear_5,1,5,56,103,1629262176
98,16,19,Jits_Linear_5,2,5,80,127,1629291880
98,16,19,Jits_Linear_5,3,5,63,98,1629312564
98,16,19,Jits_Linear_5,0,1,48,54,1629781548
98,16,19,Jits_Linear_5,1,5,63,98,1629801752
98,16,19,Jits_Linear_5,2,5,56,103,1629862368
98,16,19,Jits_Linear_5,3,5,80,127,1629891804
98,16,19,Jits_Linear_5,0,5,63,98,1630341600
98,16,19,Jits_Linear_5,1,1,48,59,1630345112
98,16,19,Jits_Linear_5,2,5,80,127,1630346156
98,16,19,Jits_Linear_5,3,5,56,103,1630431732
98,16,19,Jits_Linear_5,0,1,48,57,1630879988
98,16,19,Jits_Linear_5,1,5,56,103,1630911848
98,16,19,Jits_Linear_5,2,5,63,98,1630941528
98,16,19,Jits_Linear_5,3,5,80,127,1630981676
98,16,19,Jits_Linear_5,0,1,48,64,1631448964
98,16,19,Jits_Linear_5,1,5,63,98,1631461664
98,16,19,Jits_Linear_5,2,5,56,103,1631501532
98,16,19,Jits_Linear_5,3,5,80,127,1631522364
98,16,19,Jits_Linear_5,0,1,48,56,1631984848
98,16,19,Jits_Linear_5,1,5,63,98,1632022040
98,16,19,Jits_Linear_5,2,5,56,103,1632061908
98,16,19,Jits_Linear_5,3,5,80,127,1632072104
98,16,19,Jits_Linear_5,0,5,80,127,1632552380
98,16,19,Jits_Linear_5,1,1,48,55,1632602556
98,16,19,Jits_Linear_5,2,5,63,98,1632621836
98,16,19,Jits_Linear_5,3,5,56,103,1632642668
98,16,19,Jits_Linear_5,0,5,56,103,1633102108
98,16,19,Jits_Linear_5,1,5,80,127,1633121624
98,16,19,Jits_Linear_5,2,1,48,62,1633153436
98,16,19,Jits_Linear_5,3,5,63,98,1633161556
98,16,19,Jits_Linear_5,0,5,63,98,1633671512
98,16,19,Jits_Linear_5,1,1,48,62,1633686692
98,16,19,Jits_Linear_5,2,5,80,127,1633691968
98,16,19,Jits_Linear_5,3,5,56,103,1633731832
98,16,19,Jits_Linear_5,0,5,63,98,1634231660
98,16,19,Jits_Linear_5,1,1,48,62,1634233744
98,16,19,Jits_Linear_5,2,5,56,103,1634252112
98,16,19,Jits_Linear_5,3,5,80,127,1634262680
98,16,19,Jits_Linear_5,0,1,48,62,1634783532
98,16,19,Jits_Linear_5,1,5,80,127,1634791724
98,16,19,Jits_Linear_5,2,5,56,103,1634812408
98,16,19,Jits_Linear_5,3,5,63,98,1634841936
98,16,19,Jits_Linear_5,0,1,48,61,1635371852
98,16,19,Jits_Linear_5,1,5,56,103,1635431688
98,16,19,Jits_Linear_5,2,5,80,127,1635434760
98,16,19,Jits_Linear_5,3,5,63,98,1635452448
98,16,19,Jits_Linear_5,0,5,63,98,1635922364
98,16,19,Jits_Linear_5,1,5,56,103,1635952064
98,16,19,Jits_Linear_5,2,1,48,57,1635968440
98,16,19,Jits_Linear_5,3,5,80,127,1636012600
98,16,19,Jits_Linear_5,0,1,48,59,1636499968
98,16,19,Jits_Linear_5,1,5,63,98,1636571544
98,16,19,Jits_Linear_5,2,5,56,103,1636581892
98,16,19,Jits_Linear_5,3,5,80,127,1636592084
98,16,19,Jits_Linear_5,0,5,56,103,1637091548
98,16,19,Jits_Linear_5,1,1,48,57,1637103208
98,16,19,Jits_Linear_5,2,5,80,127,1637122412
98,16,19,Jits_Linear_5,3,5,63,98,1637131492
98,16,19,Jits_Linear_5,0,1,48,52,1637671612
98,16,19,Jits_Linear_5,1,5,63,98,1637701980
98,16,19,Jits_Linear_5,2,5,56,103,1637712400
98,16,19,Jits_Linear_5,3,5,80,127,1637731688
98,16,19,Jits_Linear_5,0,5,56,103,1638201604
98,16,19,Jits_Linear_5,1,1,48,56,1638242364
98,16,19,Jits_Linear_5,2,5,63,98,1638262384
98,16,19,Jits_Linear_5,3,5,80,127,1638265524
98,16,19,Jits_Linear_5,0,1,48,54,1638781456
98,16,19,Jits_Linear_5,1,5,80,127,1638801636
98,16,19,Jits_Linear_5,2,5,56,103,1638812204
98,16,19,Jits_Linear_5,3,5,63,98,1638881648
98,16,19,Jits_Linear_5,0,5,80,127,1639372272
98,16,19,Jits_Linear_5,1,1,48,54,1639409792
98,16,19,Jits_Linear_5,2,5,56,103,1639441804
98,16,19,Jits_Linear_5,3,5,63,98,1639452072
98,16,19,Jits_Linear_5,0,1,48,47,1639961704
98,16,19,Jits_Linear_5,1,5,63,98,1639991548
98,16,19,Jits_Linear_5,2,5,56,103,1640001892
98,16,19,Jits_Linear_5,3,5,80,127,1640022576
98,16,19,Jits_Linear_5,0,5,80,127,1640522320
98,16,19,Jits_Linear_5,1,1,48,48,1640556632
98,16,19,Jits_Linear_5,2,5,63,98,1640581536
98,16,19,Jits_Linear_5,3,5,56,103,1640621548
98,16,19,Jits_Linear_5,0,1,48,49,1641130360
98,16,19,Jits_Linear_5,1,5,56,103,1641151808
98,16,19,Jits_Linear_5,2,5,63,98,1641162228
98,16,19,Jits_Linear_5,3,5,80,127,1641202240
98,16,19,Jits_Linear_5,0,5,56,103,1641701772
98,16,19,Jits_Linear_5,1,1,48,50,1641721752
98,16,19,Jits_Linear_5,2,5,80,127,1641731520
98,16,19,Jits_Linear_5,3,5,63,98,1641781648
98,16,19,Jits_Linear_5,0,1,48,53,1642248704
98,16,19,Jits_Linear_5,1,5,56,103,1642331556
98,16,19,Jits_Linear_5,2,5,63,98,1642371480
98,16,19,Jits_Linear_5,3,5,80,127,1642374768
98,16,19,Jits_Linear_5,0,1,48,56,1642884324
98,16,19,Jits_Linear_5,1,5,56,103,1642922484
98,16,19,Jits_Linear_5,2,5,63,98,1642931636
98,16,19,Jits_Linear_5,3,5,80,127,1642952020
98,16,19,Jits_Linear_5,0,5,56,103,1643472444
98,16,19,Jits_Linear_5,1,5,80,127,1643475512
98,16,19,Jits_Linear_5,2,1,48,51,1643493100
98,16,19,Jits_Linear_5,3,5,63,98,1643512304
98,16,19,Jits_Linear_5,0,1,48,50,1644050248
98,16,19,Jits_Linear_5,1,5,63,98,1644101972
98,16,19,Jits_Linear_5,2,5,56,103,1644131748
98,16,19,Jits_Linear_5,3,5,80,127,1644152416
98,16,19,Jits_Linear_5,0,1,48,53,1644651708
98,16,19,Jits_Linear_5,1,5,80,127,1644672332
98,16,19,Jits_Linear_5,2,5,56,103,1644681556
98,16,19,Jits_Linear_5,3,5,63,98,1644691680
98,16,19,Jits_Linear_5,0,1,48,48,1645181352
98,16,19,Jits_Linear_5,1,5,56,103,1645273512
98,16,19,Jits_Linear_5,2,5,80,127,1645312408
98,16,19,Jits_Linear_5,3,5,63,98,1645342008
98,16,19,Jits_Linear_5,0,5,63,98,1645881636
98,16,19,Jits_Linear_5,1,5,80,127,1645891832
98,16,19,Jits_Linear_5,2,5,56,103,1645902476
98,16,19,Jits_Linear_5,3,1,48,54,1645918200
98,16,19,Jits_Linear_5,0,5,56,103,1646462404
98,16,19,Jits_Linear_5,1,1,48,50,1646494220
98,16,19,Jits_Linear_5,2,5,63,98,1646532380
98,16,19,Jits_Linear_5,3,5,80,127,1646542276
98,16,19,Jits_Linear_5,0,5,80,127,1647071568
98,16,19,Jits_Linear_5,1,1,48,57,1647074464
98,16,19,Jits_Linear_5,2,5,56,103,1647081760
98,16,19,Jits_Linear_5,3,5,63,98,1647132108
98,16,19,Jits_Linear_5,0,1,48,58,1647686456
98,16,19,Jits_Linear_5,1,5,80,127,1647692108
98,16,19,Jits_Linear_5,2,5,56,103,1647751480
98,16,19,Jits_Linear_5,3,5,63,98,1647782484
98,16,19,Jits_Linear_5,0,5,56,103,1648301436
98,16,19,Jits_Linear_5,1,5,80,127,1648304424
98,16,19,Jits_Linear_5,2,5,63,98,1648342420
98,16,19,Jits_Linear_5,3,1,48,44,1648347708
98,16,19,Jits_Linear_5,0,5,56,103,1648941380
98,16,19,Jits_Linear_5,1,1,48,54,1648945396
98,16,19,Jits_Linear_5,2,5,63,98,1648972320
98,16,19,Jits_Linear_5,3,5,80,127,1648982292
98,16,19,Jits_Linear_5,0,1,48,57,1649571464
98,16,19,Jits_Linear_5,1,5,63,98,1649573108
98,16,19,Jits_Linear_5,2,5,80,127,1649581360
98,16,19,Jits_Linear_5,3,5,56,103,1649591780
98,16,19,Jits_Linear_5,0,5,80,127,1650132292
98,16,19,Jits_Linear_5,1,1,48,54,1650170932
98,16,19,Jits_Linear_5,2,5,56,103,1650181516
98,16,19,Jits_Linear_5,3,5,63,98,1650184656
98,16,19,Jits_Linear_5,0,1,48,53,1650767252
98,16,19,Jits_Linear_5,1,5,56,103,1650781620
98,16,19,Jits_Linear_5,2,5,80,127,1650802004
98,16,19,Jits_Linear_5,3,5,63,98,1650812204
98,16,19,Jits_Linear_5,0,5,63,98,1651381632
98,16,19,Jits_Linear_5,1,1,48,52,1651391124
98,16,19,Jits_Linear_5,2,5,56,103,1651412348
98,16,19,Jits_Linear_5,3,5,80,127,1651431688
98,16,19,Jits_Linear_5,0,5,56,103,1652012356
98,16,19,Jits_Linear_5,1,1,48,52,1652014872
98,16,19,Jits_Linear_5,2,5,80,127,1652021572
98,16,19,Jits_Linear_5,3,5,63,98,1652092404
98,16,19,Jits_Linear_5,0,5,63,98,1652621692
98,16,19,Jits_Linear_5,1,1,48,55,1652652460
98,16,19,Jits_Linear_5,2,5,80,127,1652661548
98,16,19,Jits_Linear_5,3,5,56,103,1652701636
98,16,19,Jits_Linear_5,0,5,56,103,1653261632
98,16,19,Jits_Linear_5,1,5,63,98,1653271980
98,16,19,Jits_Linear_5,2,1,48,53,1653278464
98,16,19,Jits_Linear_5,3,5,80,127,1653292284
98,16,19,Jits_Linear_5,0,1,48,50,1653857516
98,16,19,Jits_Linear_5,1,5,63,98,1653932472
98,16,19,Jits_Linear_5,2,5,80,127,1653952840
98,16,19,Jits_Linear_5,3,5,56,103,1653972328
98,16,19,Jits_Linear_5,0,5,56,103,1654501696
98,16,19,Jits_Linear_5,1,1,48,46,1654541680
98,16,19,Jits_Linear_5,2,5,80,127,1654581564
98,16,19,Jits_Linear_5,3,5,63,98,1654591908
98,16,19,Jits_Linear_5,0,1,48,54,1655160976
98,16,19,Jits_Linear_5,1,5,80,127,1655181676
98,16,19,Jits_Linear_5,2,5,63,98,1655192096
98,16,19,Jits_Linear_5,3,5,56,103,1655221548
98,16,19,Jits_Linear_5,0,1,48,51,1655774308
98,16,19,Jits_Linear_5,1,5,63,98,1655781752
98,16,19,Jits_Linear_5,2,5,80,127,1655821616
98,16,19,Jits_Linear_5,3,5,56,103,1655882140
98,16,19,Jits_Linear_5,0,5,63,98,1656442172
98,16,19,Jits_Linear_5,1,1,48,50,1656447680
98,16,19,Jits_Linear_5,2,5,56,103,1656492292
98,16,19,Jits_Linear_5,3,5,80,127,1656522192
98,16,19,Jits_Linear_5,0,5,80,127,1657091408
98,16,19,Jits_Linear_5,1,5,63,98,1657101604
98,16,19,Jits_Linear_5,2,1,48,49,1657114608
98,16,19,Jits_Linear_5,3,5,56,103,1657172252
98,16,19,Jits_Linear_5,0,1,48,50,1657747224
98,16,19,Jits_Linear_5,1,5,80,127,1657802324
98,16,19,Jits_Linear_5,2,5,56,103,1657812296
98,16,19,Jits_Linear_5,3,5,63,98,1657815588
98,16,19,Jits_Linear_5,0,5,56,103,1658381660
98,16,19,Jits_Linear_5,1,5,80,127,1658402192
98,16,19,Jits_Linear_5,2,5,63,98,1658412388
98,16,19,Jits_Linear_5,3,1,48,48,1658459052
98,16,19,Jits_Linear_5,0,5,63,98,1659032116
98,16,19,Jits_Linear_5,1,1,48,43,1659033456
98,16,19,Jits_Linear_5,2,5,56,103,1659072052
98,16,19,Jits_Linear_5,3,5,80,127,1659092288
98,16,19,Jits_Linear_5,0,5,63,98,1659672136
98,16,19,Jits_Linear_5,1,1,48,48,1659673548
98,16,19,Jits_Linear_5,2,5,56,103,1659732448
98,16,19,Jits_Linear_5,3,5,80,127,1659735440
98,16,19,Jits_Linear_5,0,5,56,103,1660291540
98,16,19,Jits_Linear_5,1,5,80,127,1660312152
98,16,19,Jits_Linear_5,2,1,48,46,1660338864
98,16,19,Jits_Linear_5,3,5,63,98,1660351784
98,16,19,Jits_Linear_5,0,1,48,46,1660957300
98,16,19,Jits_Linear_5,1,5,56,103,1660972392
98,16,19,Jits_Linear_5,2,5,63,98,1660992180
98,16,19,Jits_Linear_5,3,5,80,127,1661002152
98,16,19,Jits_Linear_5,0,5,80,127,1661591988
98,16,19,Jits_Linear_5,1,1,48,49,1661605592
98,16,19,Jits_Linear_5,2,5,56,103,1661621584
98,16,19,Jits_Linear_5,3,5,63,98,1661661520
98,16,19,Jits_Linear_5,0,1,48,49,1662252688
98,16,19,Jits_Linear_5,1,5,80,127,1662253952
98,16,19,Jits_Linear_5,2,5,56,103,1662271948
98,16,19,Jits_Linear_5,3,5,63,98,1662332216
98,16,19,Jits_Linear_5,0,1,48,50,1662892848
98,16,19,Jits_Linear_5,1,5,56,103,1662911980
98,16,19,Jits_Linear_5,2,5,80,127,1662932292
98,16,19,Jits_Linear_5,3,5,63,98,1662992816
98,16,19,Jits_Linear_5,0,1,48,54,1663538252
98,16,19,Jits_Linear_5,1,5,80,127,1663552068
98,16,19,Jits_Linear_5,2,5,56,103,1663562192
98,16,19,Jits_Linear_5,3,5,63,98,1663602008
98,16,19,Jits_Linear_5,0,1,48,53,1664168996
98,16,19,Jits_Linear_5,1,5,63,98,1664212336
98,16,19,Jits_Linear_5,2,1,48,20,1664250280
98,16,19,Jits_Linear_5,3,5,56,103,1664252324
98,16,19,Jits_Linear_5,4,5,80,127,1664255464
98,16,19,Jits_Linear_5,0,1,48,54,1664874600
98,16,19,Jits_Linear_5,1,5,63,98,1664892160
98,16,19,Jits_Linear_5,2,5,80,127,1664932176
98,16,19,Jits_Linear_5,3,5,56,103,1664962000
98,16,19,Jits_Linear_5,0,5,56,103,1665541468
98,16,19,Jits_Linear_5,1,5,63,98,1665551964
98,16,19,Jits_Linear_5,2,1,48,52,1665560556
98,16,19,Jits_Linear_5,3,5,80,127,1665581412
98,16,19,Jits_Linear_5,0,1,48,50,1666185452
98,16,19,Jits_Linear_5,1,5,80,127,1666201892
98,16,19,Jits_Linear_5,2,5,63,98,1666271576
98,16,19,Jits_Linear_5,3,5,56,103,1666281980
98,16,19,Jits_Linear_5,0,1,48,53,1666865256
98,16,19,Jits_Linear_5,1,5,63,98,1666871948
98,16,19,Jits_Linear_5,2,5,56,103,1666942260
98,16,19,Jits_Linear_5,3,5,80,127,1666951484
98,16,19,Jits_Linear_5,0,5,63,98,1667542268
98,16,19,Jits_Linear_5,1,1,48,57,1667561980
98,16,19,Jits_Linear_5,2,5,56,103,1667563316
98,16,19,Jits_Linear_5,3,5,80,127,1667601912
98,16,19,Jits_Linear_5,0,1,48,47,1668212088
98,16,19,Jits_Linear_5,1,5,56,103,1668222224
98,16,19,Jits_Linear_5,2,5,63,98,1668231524
98,16,19,Jits_Linear_5,3,5,80,127,1668312424
98,16,19,Jits_Linear_5,0,1,48,54,1668835004
98,16,19,Jits_Linear_5,1,5,63,98,1668882012
98,16,19,Jits_Linear_5,2,5,56,103,1668911616
98,16,19,Jits_Linear_5,3,5,80,127,1668952288
98,16,19,Jits_Linear_5,0,1,48,50,1669537372
98,16,19,Jits_Linear_5,1,5,56,103,1669551496
98,16,19,Jits_Linear_5,2,5,63,98,1669592412
98,16,19,Jits_Linear_5,3,5,80,127,1669632348
98,16,19,Jits_Linear_5,0,1,48,54,1670164800
98,16,19,Jits_Linear_5,1,5,80,127,1670232484
98,16,19,Jits_Linear_5,2,5,56,103,1670312196
98,16,19,Jits_Linear_5,3,5,63,98,1670321420
98,16,19,Jits_Linear_5,0,1,48,50,1670935104
98,16,19,Jits_Linear_5,1,5,56,103,1670952292
98,16,19,Jits_Linear_5,2,5,63,98,1670955284
98,16,19,Jits_Linear_5,3,5,80,127,1670961588
98,16,19,Jits_Linear_5,0,1,48,60,1671624136
98,16,19,Jits_Linear_5,1,5,56,103,1671651812
98,16,19,Jits_Linear_5,2,5,63,98,1671672124
98,16,19,Jits_Linear_5,3,5,80,127,1671682468
98,16,19,Jits_Linear_5,0,5,63,98,1672291708
98,16,19,Jits_Linear_5,1,1,48,56,1672300540
98,16,19,Jits_Linear_5,2,5,80,127,1672302048
98,16,19,Jits_Linear_5,3,5,56,103,1672322360
98,16,19,Jits_Linear_5,0,1,48,58,1672927032
98,16,19,Jits_Linear_5,1,5,63,98,1672981912
98,16,19,Jits_Linear_5,2,5,56,103,1673062016
98,16,19,Jits_Linear_5,3,5,80,127,1673065008
98,16,19,Jits_Linear_5,0,1,48,56,1673642004
98,16,19,Jits_Linear_5,1,5,63,98,1673671996
98,16,19,Jits_Linear_5,2,5,56,103,1673691928
98,16,19,Jits_Linear_5,3,5,80,127,1673722204
98,16,19,Jits_Linear_5,0,1,48,48,1674310932
98,16,19,Jits_Linear_5,1,5,56,103,1674362228
98,16,19,Jits_Linear_5,2,5,63,98,1674381864
98,16,19,Jits_Linear_5,3,5,80,127,1674391988
98,16,19,Jits_Linear_5,0,1,48,53,1675003260
98,16,19,Jits_Linear_5,1,5,56,103,1675082108
98,16,19,Jits_Linear_5,2,5,63,98,1675111720
98,16,19,Jits_Linear_5,3,5,80,127,1675115008
98,16,19,Jits_Linear_5,0,5,56,103,1675721996
98,16,19,Jits_Linear_5,1,1,48,59,1675728332
98,16,19,Jits_Linear_5,2,5,63,98,1675762004
98,16,19,Jits_Linear_5,3,5,80,127,1675821412
98,16,19,Jits_Linear_5,0,1,48,51,1676429360
98,16,19,Jits_Linear_5,1,5,56,103,1676431868
98,16,19,Jits_Linear_5,2,5,63,98,1676441916
98,16,19,Jits_Linear_5,3,5,80,127,1676502380
98,16,19,Jits_Linear_5,0,5,56,103,1677132276
98,16,19,Jits_Linear_5,1,1,48,65,1677150964
98,16,19,Jits_Linear_5,2,5,80,127,1677152380
98,16,19,Jits_Linear_5,3,5,63,98,1677182204
98,16,19,Jits_Linear_5,0,1,48,62,1677821152
98,16,19,Jits_Linear_5,1,5,80,127,1677831956
98,16,19,Jits_Linear_5,2,5,56,103,1677841780
98,16,19,Jits_Linear_5,3,5,63,98,1677862316
98,16,19,Jits_Linear_5,0,1,48,69,1678477504
98,16,19,Jits_Linear_5,1,5,63,98,1678521964
98,16,19,Jits_Linear_5,2,5,80,127,1678601528
98,16,19,Jits_Linear_5,3,5,56,103,1678611724
98,16,19,Jits_Linear_5,0,1,48,64,1679211428
98,16,19,Jits_Linear_5,1,5,80,127,1679281656
98,16,19,Jits_Linear_5,2,5,56,103,1679301968
98,16,19,Jits_Linear_5,3,5,63,98,1679304884
98,16,19,Jits_Linear_5,0,1,48,67,1679945908
98,16,19,Jits_Linear_5,1,5,63,98,1679961472
98,16,19,Jits_Linear_5,2,5,80,127,1679964984
98,16,19,Jits_Linear_5,3,5,56,103,1680021864
98,16,19,Jits_Linear_5,0,5,56,103,1680651904
98,16,19,Jits_Linear_5,1,5,80,127,1680661804
98,16,19,Jits_Linear_5,2,1,48,53,1680684104
98,16,19,Jits_Linear_5,3,5,63,98,1680701960
98,16,19,Jits_Linear_5,0,1,48,64,1681328548
98,16,19,Jits_Linear_5,1,5,56,103,1681341920
98,16,19,Jits_Linear_5,2,5,63,98,1681402240
98,16,19,Jits_Linear_5,3,5,80,127,1681411388
98,16,19,Jits_Linear_5,0,5,63,98,1682061680
98,16,19,Jits_Linear_5,1,1,48,54,1682072672
98,16,19,Jits_Linear_5,2,5,80,127,1682101688
98,16,19,Jits_Linear_5,3,5,56,103,1682141704
98,16,19,Jits_Linear_5,0,1,48,61,1682752756
98,16,19,Jits_Linear_5,1,5,56,103,1682772408
98,16,19,Jits_Linear_5,2,5,63,98,1682852060
98,16,19,Jits_Linear_5,3,5,80,127,1682855652
98,16,19,Jits_Linear_5,0,1,48,56,1683480072
98,16,19,Jits_Linear_5,1,5,80,127,1683542356
98,16,19,Jits_Linear_5,2,5,56,103,1683572180
98,16,19,Jits_Linear_5,3,5,63,98,1683575024
98,16,19,Jits_Linear_5,0,5,56,103,1684222300
98,16,19,Jits_Linear_5,1,1,48,62,1684240960
98,16,19,Jits_Linear_5,2,5,80,127,1684242376
98,16,19,Jits_Linear_5,3,5,63,98,1684281944
98,16,19,Jits_Linear_5,0,1,48,59,1684895804
98,16,19,Jits_Linear_5,1,5,80,127,1684921756
98,16,19,Jits_Linear_5,2,5,63,98,1684942292
98,16,19,Jits_Linear_5,3,5,56,103,1685001620
98,16,19,Jits_Linear_5,0,1,48,62,1685569068
98,16,19,Jits_Linear_5,1,5,63,98,1685651924
98,16,19,Jits_Linear_5,2,5,56,103,1685662928
98,16,19,Jits_Linear_5,3,5,80,127,1685712308
98,16,19,Jits_Linear_5,0,1,48,54,1686334080
98,16,19,Jits_Linear_5,1,5,56,103,1686361408
98,16,19,Jits_Linear_5,2,5,63,98,1686381944
98,16,19,Jits_Linear_5,3,5,80,127,1686392140
98,16,19,Jits_Linear_5,0,1,48,62,1687069480
98,16,19,Jits_Linear_5,1,5,56,103,1687082476
98,16,19,Jits_Linear_5,2,5,63,98,1687085472
98,16,19,Jits_Linear_5,3,5,80,127,1687101816
98,16,19,Jits_Linear_5,0,1,48,45,1687809544
98,16,19,Jits_Linear_5,1,5,63,98,1687852492
98,16,19,Jits_Linear_5,2,5,56,103,1687882096
98,16,19,Jits_Linear_5,3,5,80,127,1687911780
98,16,19,Jits_Linear_5,0,1,48,53,1688537896
98,16,19,Jits_Linear_5,1,5,80,127,1688541828
98,16,19,Jits_Linear_5,2,5,56,103,1688631652
98,16,19,Jits_Linear_5,3,5,63,98,1688634716
98,16,19,Jits_Linear_5,0,5,56,103,1689271844
98,16,19,Jits_Linear_5,1,5,80,127,1689274684
98,16,19,Jits_Linear_5,2,1,48,55,1689313096
98,16,19,Jits_Linear_5,3,5,63,98,1689351708
98,16,19,Jits_Linear_5,0,5,80,127,1690001860
98,16,19,Jits_Linear_5,1,1,48,67,1690015684
98,16,19,Jits_Linear_5,2,5,63,98,1690062244
98,16,19,Jits_Linear_5,3,5,56,103,1690092072
98,16,19,Jits_Linear_5,0,1,48,56,1690724664
98,16,19,Jits_Linear_5,1,5,63,98,1690731884
98,16,19,Jits_Linear_5,2,5,80,127,1690742232
98,16,19,Jits_Linear_5,3,5,56,103,1690811836
98,16,19,Jits_Linear_5,0,1,48,61,1691436888
98,16,19,Jits_Linear_5,1,5,56,103,1691481676
98,16,19,Jits_Linear_5,2,5,80,127,1691512028
98,16,19,Jits_Linear_5,3,5,63,98,1691562588
98,16,19,Jits_Linear_5,0,1,48,57,1692180556
98,16,19,Jits_Linear_5,1,5,63,98,1692261744
98,16,19,Jits_Linear_5,2,5,56,103,1692291700
98,16,19,Jits_Linear_5,3,5,80,127,1692294692
98,16,19,Jits_Linear_5,0,1,48,66,1692942172
98,16,19,Jits_Linear_5,1,5,63,98,1693012552
98,16,19,Jits_Linear_5,2,5,80,127,1693031768
98,16,19,Jits_Linear_5,3,5,56,103,1693042096
98,16,19,Jits_Linear_5,0,1,48,62,1693696316
98,16,19,Jits_Linear_5,1,5,56,103,1693761828
98,16,19,Jits_Linear_5,2,5,63,98,1693764820
98,16,19,Jits_Linear_5,3,5,80,127,1693782584
98,16,19,Jits_Linear_5,0,1,48,60,1694438460
98,16,19,Jits_Linear_5,1,5,56,103,1694462464
98,16,19,Jits_Linear_5,2,5,63,98,1694471688
98,16,19,Jits_Linear_5,3,5,80,127,1694502488
98,16,19,Jits_Linear_5,0,1,48,48,1695152964
98,16,19,Jits_Linear_5,1,5,63,98,1695232488
98,16,19,Jits_Linear_5,2,5,80,127,1695251736
98,16,19,Jits_Linear_5,3,5,56,103,1695291752
98,16,19,Jits_Linear_5,0,1,48,57,1695920076
98,16,19,Jits_Linear_5,1,5,56,103,1696011660
98,16,19,Jits_Linear_5,2,5,63,98,1696051656
98,16,19,Jits_Linear_5,3,5,80,127,1696055020
98,16,19,Jits_Linear_5,0,1,48,49,1696671820
98,16,19,Jits_Linear_5,1,5,80,127,1696701736
98,16,19,Jits_Linear_5,2,5,56,103,1696741828
98,16,19,Jits_Linear_5,3,5,63,98,1696791792
98,16,19,Jits_Linear_5,0,1,48,55,1697428344
98,16,19,Jits_Linear_5,1,5,56,103,1697511776
98,16,19,Jits_Linear_5,2,5,80,127,1697521896
98,16,19,Jits_Linear_5,3,5,63,98,1697551708
98,16,19,Jits_Linear_5,0,5,56,103,1698212200
98,16,19,Jits_Linear_5,1,1,48,59,1698244916
98,16,19,Jits_Linear_5,2,5,80,127,1698252060
98,16,19,Jits_Linear_5,3,5,63,98,1698302412
98,16,19,Jits_Linear_5,0,5,56,103,1698971900
98,16,19,Jits_Linear_5,1,1,48,62,1698977636
98,16,19,Jits_Linear_5,2,5,80,127,1699012060
98,16,19,Jits_Linear_5,3,5,63,98,1699062040
98,16,19,Jits_Linear_5,0,1,48,61,1699695600
98,16,19,Jits_Linear_5,1,5,80,127,1699721632
98,16,19,Jits_Linear_5,2,5,63,98,1699801568
98,16,19,Jits_Linear_5,3,5,56,103,1699811692
98,16,19,Jits_Linear_5,0,1,48,58,1700450880
98,16,19,Jits_Linear_5,1,5,80,127,1700531520
98,16,19,Jits_Linear_5,2,5,56,103,1700541792
98,16,19,Jits_Linear_5,3,5,63,98,1700562388
98,16,19,Jits_Linear_5,0,5,63,98,1701261696
98,16,19,Jits_Linear_5,1,1,48,61,1701268404
98,16,19,Jits_Linear_5,2,5,56,103,1701332496
98,16,19,Jits_Linear_5,3,5,80,127,1701335636
98,16,19,Jits_Linear_5,0,5,80,127,1702021452
98,16,19,Jits_Linear_5,1,1,48,59,1702037828
98,16,19,Jits_Linear_5,2,5,63,98,1702071576
98,16,19,Jits_Linear_5,3,5,56,103,1702111592
98,16,19,Jits_Linear_5,0,1,48,60,1702820912
98,16,19,Jits_Linear_5,1,5,63,98,1702831496
98,16,19,Jits_Linear_5,2,5,56,103,1702872484
98,16,19,Jits_Linear_5,3,5,80,127,1702881708
98,16,19,Jits_Linear_5,0,1,48,58,1703566952
98,16,19,Jits_Linear_5,1,5,63,98,1703592384
98,16,19,Jits_Linear_5,2,5,56,103,1703611724
98,16,19,Jits_Linear_5,3,5,80,127,1703632484
98,16,19,Jits_Linear_5,0,5,80,127,1704322560
98,16,19,Jits_Linear_5,1,5,56,103,1704331560
98,16,19,Jits_Linear_5,2,1,48,58,1704341652
98,16,19,Jits_Linear_5,3,5,63,98,1704352312
98,16,19,Jits_Linear_5,0,1,48,52,1705094732
98,16,19,Jits_Linear_5,1,5,63,98,1705122256
98,16,19,Jits_Linear_5,2,5,56,103,1705162272
98,16,19,Jits_Linear_5,3,5,80,127,1705191708
98,16,19,Jits_Linear_5,0,1,48,60,1705898172
98,16,19,Jits_Linear_5,1,5,56,103,1705901352
98,16,19,Jits_Linear_5,2,5,63,98,1705932300
98,16,19,Jits_Linear_5,3,5,80,127,1705961828
98,16,19,Jits_Linear_5,0,5,80,127,1706651980
98,16,19,Jits_Linear_5,1,1,48,63,1706677276
98,16,19,Jits_Linear_5,2,5,56,103,1706721656
98,16,19,Jits_Linear_5,3,5,63,98,1706724648
98,16,19,Jits_Linear_5,0,5,56,103,1707441564
98,16,19,Jits_Linear_5,1,1,48,59,1707456672
98,16,19,Jits_Linear_5,2,5,63,98,1707491692
98,16,19,Jits_Linear_5,3,5,80,127,1707522488
98,16,19,Jits_Linear_5,0,1,48,51,1708173056
98,16,19,Jits_Linear_5,1,5,63,98,1708202452
98,16,19,Jits_Linear_5,2,5,80,127,1708205744
98,16,19,Jits_Linear_5,3,5,56,103,1708261800
98,16,19,Jits_Linear_5,0,1,48,59,1708969360
98,16,19,Jits_Linear_5,1,5,56,103,1709012324
98,16,19,Jits_Linear_5,2,5,80,127,1709021476
98,16,19,Jits_Linear_5,3,5,63,98,1709071664
98,16,19,Jits_Linear_5,0,5,63,98,1709772396
98,16,19,Jits_Linear_5,1,5,56,103,1709782520
98,16,19,Jits_Linear_5,2,1,48,63,1709787508
98,16,19,Jits_Linear_5,3,5,80,127,1709812040
98,16,19,Jits_Linear_5,0,1,48,61,1710517504
98,16,19,Jits_Linear_5,1,5,63,98,1710592460
98,16,19,Jits_Linear_5,2,5,80,127,1710595752
98,16,19,Jits_Linear_5,3,5,56,103,1710622048
98,16,19,Jits_Linear_5,0,1,48,57,1711322368
98,16,19,Jits_Linear_5,1,5,63,98,1711402484
98,16,19,Jits_Linear_5,2,5,56,103,1711421804
98,16,19,Jits_Linear_5,3,5,80,127,1711424872
98,16,19,Jits_Linear_5,0,5,63,98,1712151832
98,16,19,Jits_Linear_5,1,1,48,55,1712154876
98,16,19,Jits_Linear_5,2,5,56,103,1712221536
98,16,19,Jits_Linear_5,3,5,80,127,1712242140
98,16,19,Jits_Linear_5,0,5,56,103,1712932344
98,16,19,Jits_Linear_5,1,5,63,98,1712941344
98,16,19,Jits_Linear_5,2,1,48,56,1712953384
98,16,19,Jits_Linear_5,3,5,80,127,1713031496
98,16,19,Jits_Linear_5,0,1,48,57,1713728192
98,16,19,Jits_Linear_5,1,5,56,103,1713742312
98,16,19,Jits_Linear_5,2,5,80,127,1713782352
98,16,19,Jits_Linear_5,3,5,63,98,1713792328
98,16,19,Jits_Linear_5,0,1,48,56,1714550404
98,16,19,Jits_Linear_5,1,5,56,103,1714562484
98,16,19,Jits_Linear_5,2,5,63,98,1714592312
98,16,19,Jits_Linear_5,3,5,80,127,1714621912
98,16,19,Jits_Linear_5,0,5,80,127,1715322404
98,16,19,Jits_Linear_5,1,1,48,57,1715353024
98,16,19,Jits_Linear_5,2,5,63,98,1715362264
98,16,19,Jits_Linear_5,3,5,56,103,1715381748
98,16,19,Jits_Linear_5,0,5,56,103,1716161896
98,16,19,Jits_Linear_5,1,1,48,60,1716164564
98,16,19,Jits_Linear_5,2,5,80,127,1716182348
98,16,19,Jits_Linear_5,3,5,63,98,1716202060
98,16,19,Jits_Linear_5,0,5,63,98,1716932084
98,16,19,Jits_Linear_5,1,5,56,103,1716942132
98,16,19,Jits_Linear_5,2,1,48,59,1716992748
98,16,19,Jits_Linear_5,3,5,80,127,1717001544
98,16,19,Jits_Linear_5,0,1,48,55,1717696676
98,16,19,Jits_Linear_5,1,5,56,103,1717741884
98,16,19,Jits_Linear_5,2,5,63,98,1717811556
98,16,19,Jits_Linear_5,3,5,80,127,1717832164
98,16,19,Jits_Linear_5,0,1,48,55,1718516224
98,16,19,Jits_Linear_5,1,5,56,103,1718551772
98,16,19,Jits_Linear_5,2,5,63,98,1718581600
98,16,19,Jits_Linear_5,3,5,80,127,1718621548
98,16,19,Jits_Linear_5,0,5,63,98,1719351548
98,16,19,Jits_Linear_5,1,1,48,57,1719363660
98,16,19,Jits_Linear_5,2,5,56,103,1719401920
98,16,19,Jits_Linear_5,3,5,80,127,1719412488
98,16,19,Jits_Linear_5,0,1,48,47,1720171464
98,16,19,Jits_Linear_5,1,5,56,103,1720201608
98,16,19,Jits_Linear_5,2,5,63,98,1720251664
98,16,19,Jits_Linear_5,3,5,80,127,1720262160
98,16,19,Jits_Linear_5,0,1,48,47,1720971912
98,16,19,Jits_Linear_5,1,5,56,103,1720981900
98,16,19,Jits_Linear_5,2,5,63,98,1720992544
98,16,19,Jits_Linear_5,3,5,80,127,1721072176
98,16,19,Jits_Linear_5,0,9999,9999,9999,1612160056
98,16,19,Jits_Linear_5,1,9999,9999,9999,1612649584
98,16,19,Jits_Linear_5,2,9999,9999,9999,1613129792
98,16,19,Jits_Linear_5,3,9999,9999,9999,1613610044
98,16,19,Jits_Linear_5,4,9999,9999,9999,1614089296
98,16,19,Jits_Linear_5,5,9999,9999,9999,1614579776
98,16,19,Jits_Linear_5,6,9999,9999,9999,1615069272
98,16,19,Jits_Linear_5,7,9999,9999,9999,1615559760
98,16,19,Jits_Linear_5,8,9999,9999,9999,1616049276
98,16,19,Jits_Linear_5,9,9999,9999,9999,1616539764
98,16,19,Jits_Linear_5,10,9999,9999,9999,1617039464
98,16,19,Jits_Linear_5,11,9999,9999,9999,1617539144
98,16,19,Jits_Linear_5,12,9999,9999,9999,1618039876
98,16,19,Jits_Linear_5,13,9999,9999,9999,1618539636
98,16,19,Jits_Linear_5,14,9999,9999,9999,1619039320
98,16,19,Jits_Linear_5,15,9999,9999,9999,1619549264
98,16,19,Jits_Linear_5,16,9999,9999,9999,1620059228
98,16,19,Jits_Linear_5,17,9999,9999,9999,1620569156
98,16,19,Jits_Linear_5,18,9999,9999,9999,1621079116
98,16,19,Jits_Linear_5,19,9999,9999,9999,1621590128
98,16,19,Jits_Linear_5,20,9999,9999,9999,1622119520
98,16,19,Jits_Linear_5,21,9999,9999,9999,1622639676
98,16,19,Jits_Linear_5,22,9999,9999,9999,1623159904
98,16,19,Jits_Linear_5,23,9999,9999,9999,1623680060
98,16,19,Jits_Linear_5,24,9999,9999,9999,1624209508
98,16,19,Jits_Linear_5,25,9999,9999,9999,1624739920
98,16,19,Jits_Linear_5,26,9999,9999,9999,1625269360
98,16,19,Jits_Linear_5,27,9999,9999,9999,1625799752
98,16,19,Jits_Linear_5,28,9999,9999,9999,1626329204
98,16,19,Jits_Linear_5,29,9999,9999,9999,1626859608
98,16,19,Jits_Linear_5,30,9999,9999,9999,1627399232
98,16,19,Jits_Linear_5,31,9999,9999,9999,1627939900
98,16,19,Jits_Linear_5,32,9999,9999,9999,1628479592
98,16,19,Jits_Linear_5,33,9999,9999,9999,1629019244
98,16,19,Jits_Linear_5,34,9999,9999,9999,1629559908
98,16,19,Jits_Linear_5,35,9999,9999,9999,1630109800
98,16,19,Jits_Linear_5,36,9999,9999,9999,1630659676
98,16,19,Jits_Linear_5,37,9999,9999,9999,1631209560
98,16,19,Jits_Linear_5,38,9999,9999,9999,1631759448
98,16,19,Jits_Linear_5,39,9999,9999,9999,1632309340
98,16,19,Jits_Linear_5,40,9999,9999,9999,1632869492
98,16,19,Jits_Linear_5,41,9999,9999,9999,1633429576
98,16,19,Jits_Linear_5,42,9999,9999,9999,1633989736
98,16,19,Jits_Linear_5,43,9999,9999,9999,1634549884
98,16,19,Jits_Linear_5,44,9999,9999,9999,1635109956
98,16,19,Jits_Linear_5,45,9999,9999,9999,1635679348
98,16,19,Jits_Linear_5,46,9999,9999,9999,1636249688
98,16,19,Jits_Linear_5,47,9999,9999,9999,1636820028
98,16,19,Jits_Linear_5,48,9999,9999,9999,1637389396
98,16,19,Jits_Linear_5,49,9999,9999,9999,1637959756
98,16,19,Jits_Linear_5,50,9999,9999,9999,1638539328
98,16,19,Jits_Linear_5,51,9999,9999,9999,1639119944
98,16,19,Jits_Linear_5,52,9999,9999,9999,1639699572
98,16,19,Jits_Linear_5,53,9999,9999,9999,1640279140
98,16,19,Jits_Linear_5,54,9999,9999,9999,1640859756
98,16,19,Jits_Linear_5,55,9999,9999,9999,1641449588
98,16,19,Jits_Linear_5,56,9999,9999,9999,1642039404
98,16,19,Jits_Linear_5,57,9999,9999,9999,1642629180
98,16,19,Jits_Linear_5,58,9999,9999,9999,1643220044
98,16,19,Jits_Linear_5,59,9999,9999,9999,1643809920
98,16,19,Jits_Linear_5,60,9999,9999,9999,1644409968
98,16,19,Jits_Linear_5,61,9999,9999,9999,1645010040
98,16,19,Jits_Linear_5,62,9999,9999,9999,1645610048
98,16,19,Jits_Linear_5,63,9999,9999,9999,1646209100
98,16,19,Jits_Linear_5,64,9999,9999,9999,1646809180
98,16,19,Jits_Linear_5,65,9999,9999,9999,1647419460
98,16,19,Jits_Linear_5,66,9999,9999,9999,1648029772
98,16,19,Jits_Linear_5,67,9999,9999,9999,1648640104
98,16,19,Jits_Linear_5,68,9999,9999,9999,1649259632
98,16,19,Jits_Linear_5,69,9999,9999,9999,1649869916
98,16,19,Jits_Linear_5,70,9999,9999,9999,1650489468
98,16,19,Jits_Linear_5,71,9999,9999,9999,1651109968
98,16,19,Jits_Linear_5,72,9999,9999,9999,1651729528
98,16,19,Jits_Linear_5,73,9999,9999,9999,1652350012
98,16,19,Jits_Linear_5,74,9999,9999,9999,1652969588
98,16,19,Jits_Linear_5,75,9999,9999,9999,1653599288
98,16,19,Jits_Linear_5,76,9999,9999,9999,1654230104
98,16,19,Jits_Linear_5,77,9999,9999,9999,1654870120
98,16,19,Jits_Linear_5,78,9999,9999,9999,1655510092
98,16,19,Jits_Linear_5,79,9999,9999,9999,1656150108
98,16,19,Jits_Linear_5,80,9999,9999,9999,1656790144
98,16,19,Jits_Linear_5,81,9999,9999,9999,1657430084
98,16,19,Jits_Linear_5,82,9999,9999,9999,1658070132
98,16,19,Jits_Linear_5,83,9999,9999,9999,1658710072
98,16,19,Jits_Linear_5,84,9999,9999,9999,1659350124
98,16,19,Jits_Linear_5,85,9999,9999,9999,1660009536
98,16,19,Jits_Linear_5,86,9999,9999,9999,1660659812
98,16,19,Jits_Linear_5,87,9999,9999,9999,1661310056
98,16,19,Jits_Linear_5,88,9999,9999,9999,1661959284
98,16,19,Jits_Linear_5,89,9999,9999,9999,1662609528
98,16,19,Jits_Linear_5,90,9999,9999,9999,1663269996
98,16,19,Jits_Linear_5,91,9999,9999,9999,1663929436
98,16,19,Jits_Linear_5,92,9999,9999,9999,1664589920
98,16,19,Jits_Linear_5,93,9999,9999,9999,1665249352
98,16,19,Jits_Linear_5,94,9999,9999,9999,1665909836
98,16,19,Jits_Linear_5,95,9999,9999,9999,1666579540
98,16,19,Jits_Linear_5,96,9999,9999,9999,1667249248
98,16,19,Jits_Linear_5,97,9999,9999,9999,1667919976
98,16,19,Jits_Linear_5,98,9999,9999,9999,1668589680
98,16,19,Jits_Linear_5,99,9999,9999,9999,1669259384
98,16,19,Jits_Linear_5,100,9999,9999,9999,1669939252
98,16,19,Jits_Linear_5,101,9999,9999,9999,1670619200
98,16,19,Jits_Linear_5,102,9999,9999,9999,1671299160
98,16,19,Jits_Linear_5,103,9999,9999,9999,1671979112
98,16,19,Jits_Linear_5,104,9999,9999,9999,1672660052
98,16,19,Jits_Linear_5,105,9999,9999,9999,1673349236
98,16,19,Jits_Linear_5,106,9999,9999,9999,1674039372
98,16,19,Jits_Linear_5,107,9999,9999,9999,1674729532
98,16,19,Jits_Linear_5,108,9999,9999,9999,1675419760
98,16,19,Jits_Linear_5,109,9999,9999,9999,1676109900
98,16,19,Jits_Linear_5,110,9999,9999,9999,1676809288
98,16,19,Jits_Linear_5,111,9999,9999,9999,1677509708
98,16,19,Jits_Linear_5,112,9999,9999,9999,1678209100
98,16,19,Jits_Linear_5,113,9999,9999,9999,1678909500
98,16,19,Jits_Linear_5,114,9999,9999,9999,1679609920
98,16,19,Jits_Linear_5,115,9999,9999,9999,1680319552
98,16,19,Jits_Linear_5,116,9999,9999,9999,1681029192
98,16,19,Jits_Linear_5,117,9999,9999,9999,1681739868
98,16,19,Jits_Linear_5,118,9999,9999,9999,1682449504
98,16,19,Jits_Linear_5,119,9999,9999,9999,1683159136
98,16,19,Jits_Linear_5,120,9999,9999,9999,1683880056
98,16,19,Jits_Linear_5,121,9999,9999,9999,1684599884
98,16,19,Jits_Linear_5,122,9999,9999,9999,1685319776
98,16,19,Jits_Linear_5,123,9999,9999,9999,1686039676
98,16,19,Jits_Linear_5,124,9999,9999,9999,1686759500
98,16,19,Jits_Linear_5,125,9999,9999,9999,1687489652
98,16,19,Jits_Linear_5,126,9999,9999,9999,1688219748
98,16,19,Jits_Linear_5,127,9999,9999,9999,1688949832
98,16,19,Jits_Linear_5,128,9999,9999,9999,1689679960
98,16,19,Jits_Linear_5,129,9999,9999,9999,1690410064
98,16,19,Jits_Linear_5,130,9999,9999,9999,1691149380
98,16,19,Jits_Linear_5,131,9999,9999,9999,1691889736
98,16,19,Jits_Linear_5,132,9999,9999,9999,1692630084
98,16,19,Jits_Linear_5,133,9999,9999,9999,1693379656
98,16,19,Jits_Linear_5,134,9999,9999,9999,1694120004
98,16,19,Jits_Linear_5,135,9999,9999,9999,1694869576
98,16,19,Jits_Linear_5,136,9999,9999,9999,1695619148
98,16,19,Jits_Linear_5,137,9999,9999,9999,1696369764
98,16,19,Jits_Linear_5,138,9999,9999,9999,1697119336
98,16,19,Jits_Linear_5,139,9999,9999,9999,1697869936
98,16,19,Jits_Linear_5,140,9999,9999,9999,1698629696
98,16,19,Jits_Linear_5,141,9999,9999,9999,1699389544
98,16,19,Jits_Linear_5,142,9999,9999,9999,1700149324
98,16,19,Jits_Linear_5,143,9999,9999,9999,1700909164
98,16,19,Jits_Linear_5,144,9999,9999,9999,1701669968
98,16,19,Jits_Linear_5,145,9999,9999,9999,1702439992
98,16,19,Jits_Linear_5,146,9999,9999,9999,1703210040
98,16,19,Jits_Linear_5,147,9999,9999,9999,1703979096
98,16,19,Jits_Linear_5,148,9999,9999,9999,1704749116
98,16,19,Jits_Linear_5,149,9999,9999,9999,1705519228
98,16,19,Jits_Linear_5,150,9999,9999,9999,1706299444
98,16,19,Jits_Linear_5,151,9999,9999,9999,1707079800
98,16,19,Jits_Linear_5,152,9999,9999,9999,1707860032
98,16,19,Jits_Linear_5,153,9999,9999,9999,1708639296
98,16,19,Jits_Linear_5,154,9999,9999,9999,1709419588
98,16,19,Jits_Linear_5,155,9999,9999,9999,1710209092
98,16,19,Jits_Linear_5,156,9999,9999,9999,1710999632
98,16,19,Jits_Linear_5,157,9999,9999,9999,1711789132
98,16,19,Jits_Linear_5,158,9999,9999,9999,1712579688
98,16,19,Jits_Linear_5,159,9999,9999,9999,1713369192
98,16,19,Jits_Linear_5,160,9999,9999,9999,1714169948
98,16,19,Jits_Linear_5,161,9999,9999,9999,1714969720
98,16,19,Jits_Linear_5,162,9999,9999,9999,1715769412
98,16,19,Jits_Linear_5,163,9999,9999,9999,1716569144
98,16,19,Jits_Linear_5,164,9999,9999,9999,1717369976
98,16,19,Jits_Linear_5,165,9999,9999,9999,1718179936
98,16,19,Jits_Linear_5,166,9999,9999,9999,1718989896
98,16,19,Jits_Linear_5,167,9999,9999,9999,1719799928
98,16,19,Jits_Linear_5,168,9999,9999,9999,1720609892
98,16,19,Jits_Linear_5,169,9999,9999,9999,1721419848
98,17,18,Jits_Linear_8,0,5,56,103,1752533456
98,17,18,Jits_Linear_8,1,5,63,98,1752536628
98,17,18,Jits_Linear_8,2,5,80,127,1752539824
98,17,18,Jits_Linear_8,0,5,56,103,1753352644
98,17,18,Jits_Linear_8,1,5,63,98,1753355592
98,17,18,Jits_Linear_8,2,5,80,127,1753358716
98,17,18,Jits_Linear_8,0,5,80,127,1754113480
98,17,18,Jits_Linear_8,1,5,63,98,1754202596
98,17,18,Jits_Linear_8,2,5,56,103,1754212644
98,17,18,Jits_Linear_8,0,5,56,103,1754953140
98,17,18,Jits_Linear_8,1,5,63,98,1754963560
98,17,18,Jits_Linear_8,2,5,80,127,1755053568
98,17,18,Jits_Linear_8,0,1,48,70,1755703236
98,17,18,Jits_Linear_8,1,5,63,98,1755742844
98,17,18,Jits_Linear_8,2,5,80,127,1755773272
98,17,18,Jits_Linear_8,3,5,56,103,1755803004
98,17,18,Jits_Linear_8,0,1,48,76,1756488288
98,17,18,Jits_Linear_8,1,5,56,103,1756562820
98,17,18,Jits_Linear_8,2,5,80,127,1756663208
98,17,18,Jits_Linear_8,3,5,63,98,1756713560
98,17,18,Jits_Linear_8,0,5,56,103,1757372776
98,17,18,Jits_Linear_8,1,1,48,67,1757405936
98,17,18,Jits_Linear_8,2,5,80,127,1757422900
98,17,18,Jits_Linear_8,3,5,63,98,1757462836
98,17,18,Jits_Linear_8,0,5,80,127,1758212404
98,17,18,Jits_Linear_8,1,1,48,71,1758230492
98,17,18,Jits_Linear_8,2,5,63,98,1758243268
98,17,18,Jits_Linear_8,3,5,56,103,1758312900
98,17,18,Jits_Linear_8,0,5,63,98,1759053152
98,17,18,Jits_Linear_8,1,1,48,69,1759057244
98,17,18,Jits_Linear_8,2,5,56,103,1759082924
98,17,18,Jits_Linear_8,3,5,80,127,1759143536
98,17,18,Jits_Linear_8,0,5,56,103,1759802712
98,17,18,Jits_Linear_8,1,5,80,127,1759805776
98,17,18,Jits_Linear_8,2,1,48,69,1759860460
98,17,18,Jits_Linear_8,3,5,63,98,1759922528
98,17,18,Jits_Linear_8,0,1,48,73,1760640068
98,17,18,Jits_Linear_8,1,5,56,103,1760683556
98,17,18,Jits_Linear_8,2,5,80,127,1760723644
98,17,18,Jits_Linear_8,3,5,63,98,1760732420
98,17,18,Jits_Linear_8,0,5,56,103,1761443308
98,17,18,Jits_Linear_8,1,5,80,127,1761462648
98,17,18,Jits_Linear_8,2,1,48,59,1761473864
98,17,18,Jits_Linear_8,3,5,63,98,1761542436
98,17,18,Jits_Linear_8,0,5,80,127,1762232660
98,17,18,Jits_Linear_8,1,1,48,69,1762299984
98,17,18,Jits_Linear_8,2,5,56,103,1762333056
98,17,18,Jits_Linear_8,3,5,63,98,1762343548
98,17,18,Jits_Linear_8,0,5,63,98,1763002764
98,17,18,Jits_Linear_8,1,5,80,127,1763063080
98,17,18,Jits_Linear_8,2,5,56,103,1763073500
98,17,18,Jits_Linear_8,3,1,48,68,1763108532
98,17,18,Jits_Linear_8,0,5,56,103,1763802588
98,17,18,Jits_Linear_8,1,1,48,63,1763823164
98,17,18,Jits_Linear_8,2,5,63,98,1763873084
98,17,18,Jits_Linear_8,3,5,80,127,1763876524
98,17,18,Jits_Linear_8,0,1,48,63,1764601340
98,17,18,Jits_Linear_8,1,5,63,98,1764633052
98,17,18,Jits_Linear_8,2,5,56,103,1764683256
98,17,18,Jits_Linear_8,3,5,80,127,1764686248
98,17,18,Jits_Linear_8,0,5,56,103,1765382604
98,17,18,Jits_Linear_8,1,5,80,127,1765385520
98,17,18,Jits_Linear_8,2,1,48,55,1765423260
98,17,18,Jits_Linear_8,3,5,63,98,1765472680
98,17,18,Jits_Linear_8,0,1,48,60,1766178124
98,17,18,Jits_Linear_8,1,5,63,98,1766213068
98,17,18,Jits_Linear_8,2,5,56,103,1766303212
98,17,18,Jits_Linear_8,3,5,80,127,1766332888
98,17,18,Jits_Linear_8,0,5,56,103,1766993352
98,17,18,Jits_Linear_8,1,1,48,63,1767004888
98,17,18,Jits_Linear_8,2,5,63,98,1767092500
98,17,18,Jits_Linear_8,3,5,80,127,1767123432
98,17,18,Jits_Linear_8,0,5,63,98,1767803416
98,17,18,Jits_Linear_8,1,5,56,103,1767812416
98,17,18,Jits_Linear_8,2,1,48,64,1767822432
98,17,18,Jits_Linear_8,3,5,80,127,1767902616
98,17,18,Jits_Linear_8,0,1,48,71,1768597592
98,17,18,Jits_Linear_8,1,5,63,98,1768602944
98,17,18,Jits_Linear_8,2,5,56,103,1768682888
98,17,18,Jits_Linear_8,3,5,80,127,1768685880
98,17,18,Jits_Linear_8,0,5,80,127,1769343584
98,17,18,Jits_Linear_8,1,5,63,98,1769362700
98,17,18,Jits_Linear_8,2,1,48,57,1769392644
98,17,18,Jits_Linear_8,3,5,56,103,1769423452
98,17,18,Jits_Linear_8,0,1,48,52,1770138748
98,17,18,Jits_Linear_8,1,5,56,103,1770162532
98,17,18,Jits_Linear_8,2,5,63,98,1770182988
98,17,18,Jits_Linear_8,3,5,80,127,1770186576
98,17,18,Jits_Linear_8,0,5,63,98,1770882564
98,17,18,Jits_Linear_8,1,1,48,70,1770908980
98,17,18,Jits_Linear_8,2,5,80,127,1770963328
98,17,18,Jits_Linear_8,3,5,56,103,1770972624
98,17,18,Jits_Linear_8,0,1,48,67,1771674184
98,17,18,Jits_Linear_8,1,5,63,98,1771683348
98,17,18,Jits_Linear_8,2,5,56,103,1771702612
98,17,18,Jits_Linear_8,3,5,80,127,1771752816
98,17,18,Jits_Linear_8,0,1,48,67,1772421344
98,17,18,Jits_Linear_8,1,5,80,127,1772462424
98,17,18,Jits_Linear_8,2,5,63,98,1772503484
98,17,18,Jits_Linear_8,3,5,56,103,1772522732
98,17,18,Jits_Linear_8,0,1,48,77,1773237644
98,17,18,Jits_Linear_8,1,5,56,103,1773272516
98,17,18,Jits_Linear_8,2,5,63,98,1773282788
98,17,18,Jits_Linear_8,3,5,80,127,1773303320
98,17,18,Jits_Linear_8,0,5,56,103,1773972856
98,17,18,Jits_Linear_8,1,1,48,68,1774033144
98,17,18,Jits_Linear_8,2,5,63,98,1774063060
98,17,18,Jits_Linear_8,3,5,80,127,1774123448
98,17,18,Jits_Linear_8,0,5,80,127,1774772480
98,17,18,Jits_Linear_8,1,5,56,103,1774782900
98,17,18,Jits_Linear_8,2,1,48,70,1774785720
98,17,18,Jits_Linear_8,3,5,63,98,1774852424
98,17,18,Jits_Linear_8,0,1,48,64,1775557748
98,17,18,Jits_Linear_8,1,5,63,98,1775573284
98,17,18,Jits_Linear_8,2,5,80,127,1775662584
98,17,18,Jits_Linear_8,3,5,56,103,1775672708
98,17,18,Jits_Linear_8,0,5,63,98,1776272884
98,17,18,Jits_Linear_8,1,5,80,127,1776322864
98,17,18,Jits_Linear_8,2,1,48,75,1776339760
98,17,18,Jits_Linear_8,3,5,56,103,1776383320
98,17,18,Jits_Linear_8,0,5,56,103,1777063416
98,17,18,Jits_Linear_8,1,1,48,76,1777075456
98,17,18,Jits_Linear_8,2,5,80,127,1777112568
98,17,18,Jits_Linear_8,3,5,63,98,1777132952
98,17,18,Jits_Linear_8,0,5,56,103,1777793508
98,17,18,Jits_Linear_8,1,1,48,74,1777825396
98,17,18,Jits_Linear_8,2,5,80,127,1777852696
98,17,18,Jits_Linear_8,3,5,63,98,1777922364
98,17,18,Jits_Linear_8,0,5,56,103,1778553408
98,17,18,Jits_Linear_8,1,5,80,127,1778582788
98,17,18,Jits_Linear_8,2,1,48,65,1778591232
98,17,18,Jits_Linear_8,3,5,63,98,1778612456
98,17,18,Jits_Linear_8,0,1,48,68,1779324820
98,17,18,Jits_Linear_8,1,5,56,103,1779353096
98,17,18,Jits_Linear_8,2,5,80,127,1779373404
98,17,18,Jits_Linear_8,3,5,63,98,1779432808
98,17,18,Jits_Linear_8,0,1,48,57,1780165260
98,17,18,Jits_Linear_8,1,5,80,127,1780192488
98,17,18,Jits_Linear_8,2,5,56,103,1780203056
98,17,18,Jits_Linear_8,3,5,63,98,1780213176
98,17,18,Jits_Linear_8,0,5,56,103,1780903248
98,17,18,Jits_Linear_8,1,1,48,63,1780933868
98,17,18,Jits_Linear_8,2,5,80,127,1780943332
98,17,18,Jits_Linear_8,3,5,63,98,1780972784
98,17,18,Jits_Linear_8,0,5,56,103,1781623308
98,17,18,Jits_Linear_8,1,5,63,98,1781652836
98,17,18,Jits_Linear_8,2,1,48,61,1781679548
98,17,18,Jits_Linear_8,3,5,80,127,1781692840
98,17,18,Jits_Linear_8,0,5,80,127,1782322656
98,17,18,Jits_Linear_8,1,5,63,98,1782372660
98,17,18,Jits_Linear_8,2,1,48,71,1782382680
98,17,18,Jits_Linear_8,3,5,56,103,1782393188
98,17,18,Jits_Linear_8,0,5,56,103,1783102796
98,17,18,Jits_Linear_8,1,1,48,74,1783109056
98,17,18,Jits_Linear_8,2,5,80,127,1783172424
98,17,18,Jits_Linear_8,3,5,63,98,1783232876
98,17,18,Jits_Linear_8,0,5,80,127,1783843232
98,17,18,Jits_Linear_8,1,1,48,61,1783850168
98,17,18,Jits_Linear_8,2,5,63,98,1783933388
98,17,18,Jits_Linear_8,3,5,56,103,1783952784
98,17,18,Jits_Linear_8,0,5,63,98,1784602924
98,17,18,Jits_Linear_8,1,5,56,103,1784622412
98,17,18,Jits_Linear_8,2,1,48,74,1784648224
98,17,18,Jits_Linear_8,3,5,80,127,1784663340
98,17,18,Jits_Linear_8,0,5,80,127,1785303328
98,17,18,Jits_Linear_8,1,5,63,98,1785322964
98,17,18,Jits_Linear_8,2,1,48,68,1785344664
98,17,18,Jits_Linear_8,3,5,56,103,1785402752
98,17,18,Jits_Linear_8,0,5,63,98,1786032444
98,17,18,Jits_Linear_8,1,1,48,69,1786041492
98,17,18,Jits_Linear_8,2,5,56,103,1786143160
98,17,18,Jits_Linear_8,3,5,80,127,1786146300
98,17,18,Jits_Linear_8,0,5,63,98,1786793228
98,17,18,Jits_Linear_8,1,1,48,74,1786801148
98,17,18,Jits_Linear_8,2,5,56,103,1786802668
98,17,18,Jits_Linear_8,3,5,80,127,1786805588
98,17,18,Jits_Linear_8,0,5,56,103,1787513324
98,17,18,Jits_Linear_8,1,1,48,71,1787516668
98,17,18,Jits_Linear_8,2,5,80,127,1787633260
98,17,18,Jits_Linear_8,3,5,63,98,1787673048
98,17,18,Jits_Linear_8,0,5,56,103,1788263052
98,17,18,Jits_Linear_8,1,1,48,67,1788286180
98,17,18,Jits_Linear_8,2,5,80,127,1788342624
98,17,18,Jits_Linear_8,3,5,63,98,1788363084
98,17,18,Jits_Linear_8,0,5,56,103,1788992900
98,17,18,Jits_Linear_8,1,1,48,68,1789045712
98,17,18,Jits_Linear_8,2,5,63,98,1789102536
98,17,18,Jits_Linear_8,3,5,80,127,1789105676
98,17,18,Jits_Linear_8,0,5,56,103,1789752732
98,17,18,Jits_Linear_8,1,1,48,66,1789777800
98,17,18,Jits_Linear_8,2,5,80,127,1789783328
98,17,18,Jits_Linear_8,3,5,63,98,1789802960
98,17,18,Jits_Linear_8,0,5,63,98,1790463272
98,17,18,Jits_Linear_8,1,5,56,103,1790472496
98,17,18,Jits_Linear_8,2,5,80,127,1790482692
98,17,18,Jits_Linear_8,3,1,48,66,1790501028
98,17,18,Jits_Linear_8,0,5,80,127,1791173116
98,17,18,Jits_Linear_8,1,1,48,56,1791196912
98,17,18,Jits_Linear_8,2,5,56,103,1791223016
98,17,18,Jits_Linear_8,3,5,63,98,1791263252
98,17,18,Jits_Linear_8,0,5,80,127,1791913324
98,17,18,Jits_Linear_8,1,5,63,98,1791932888
98,17,18,Jits_Linear_8,2,1,48,67,1791943424
98,17,18,Jits_Linear_8,3,5,56,103,1791983084
98,17,18,Jits_Linear_8,0,5,80,127,1792642524
98,17,18,Jits_Linear_8,1,5,56,103,1792673024
98,17,18,Jits_Linear_8,2,1,48,72,1792712260
98,17,18,Jits_Linear_8,3,5,63,98,1792742624
98,17,18,Jits_Linear_8,0,5,56,103,1793412552
98,17,18,Jits_Linear_8,1,5,80,127,1793422972
98,17,18,Jits_Linear_8,2,1,48,65,1793447592
98,17,18,Jits_Linear_8,3,5,63,98,1793462536
98,17,18,Jits_Linear_8,0,5,56,103,1794043204
98,17,18,Jits_Linear_8,1,5,63,98,1794062840
98,17,18,Jits_Linear_8,2,5,80,127,1794133372
98,17,18,Jits_Linear_8,3,1,48,63,1794164508
98,17,18,Jits_Linear_8,0,5,63,98,1794782440
98,17,18,Jits_Linear_8,1,1,48,67,1794828556
98,17,18,Jits_Linear_8,2,5,80,127,1794842972
98,17,18,Jits_Linear_8,3,5,56,103,1794862384
98,17,18,Jits_Linear_8,0,5,80,127,1795483072
98,17,18,Jits_Linear_8,1,5,56,103,1795512972
98,17,18,Jits_Linear_8,2,5,63,98,1795543544
98,17,18,Jits_Linear_8,3,1,48,57,1795605924
98,17,18,Jits_Linear_8,0,5,56,103,1796192564
98,17,18,Jits_Linear_8,1,1,48,65,1796230216
98,17,18,Jits_Linear_8,2,5,63,98,1796253024
98,17,18,Jits_Linear_8,3,5,80,127,1796312364
98,17,18,Jits_Linear_8,0,1,48,70,1796902892
98,17,18,Jits_Linear_8,1,5,80,127,1796922920
98,17,18,Jits_Linear_8,2,5,56,103,1796943160
98,17,18,Jits_Linear_8,3,5,63,98,1797013072
98,17,18,Jits_Linear_8,0,5,80,127,1797633380
98,17,18,Jits_Linear_8,1,1,48,67,1797651964
98,17,18,Jits_Linear_8,2,5,63,98,1797653456
98,17,18,Jits_Linear_8,3,5,56,103,1797682760
98,17,18,Jits_Linear_8,0,5,80,127,1798322416
98,17,18,Jits_Linear_8,1,5,63,98,1798343100
98,17,18,Jits_Linear_8,2,1,48,62,1798377084
98,17,18,Jits_Linear_8,3,5,56,103,1798402364
98,17,18,Jits_Linear_8,0,5,80,127,1799023060
98,17,18,Jits_Linear_8,1,1,48,63,1799059520
98,17,18,Jits_Linear_8,2,5,56,103,1799123380
98,17,18,Jits_Linear_8,3,5,63,98,1799154012
98,17,18,Jits_Linear_8,0,5,63,98,1799713204
98,17,18,Jits_Linear_8,1,5,80,127,1799763208
98,17,18,Jits_Linear_8,2,1,48,53,1799773228
98,17,18,Jits_Linear_8,3,5,56,103,1799783136
98,17,18,Jits_Linear_8,0,1,48,65,1800440096
98,17,18,Jits_Linear_8,1,5,80,127,1800452344
98,17,18,Jits_Linear_8,2,5,56,103,1800483140
98,17,18,Jits_Linear_8,3,5,63,98,1800486356
98,17,18,Jits_Linear_8,0,1,48,70,1801140740
98,17,18,Jits_Linear_8,1,5,63,98,1801182716
98,17,18,Jits_Linear_8,2,5,56,103,1801222432
98,17,18,Jits_Linear_8,3,5,80,127,1801243028
98,17,18,Jits_Linear_8,0,5,80,127,1801822680
98,17,18,Jits_Linear_8,1,1,48,68,1801854496
98,17,18,Jits_Linear_8,2,5,63,98,1801902400
98,17,18,Jits_Linear_8,3,5,56,103,1801943308
98,17,18,Jits_Linear_8,0,5,63,98,1802533204
98,17,18,Jits_Linear_8,1,1,48,66,1802574012
98,17,18,Jits_Linear_8,2,5,80,127,1802613092
98,17,18,Jits_Linear_8,3,5,56,103,1802632504
98,17,18,Jits_Linear_8,0,1,48,60,1803249912
98,17,18,Jits_Linear_8,1,5,56,103,1803263208
98,17,18,Jits_Linear_8,2,5,63,98,1803272432
98,17,18,Jits_Linear_8,3,5,80,127,1803312444
98,17,18,Jits_Linear_8,0,5,56,103,1803872820
98,17,18,Jits_Linear_8,1,5,80,127,1803875884
98,17,18,Jits_Linear_8,2,1,48,61,1803919388
98,17,18,Jits_Linear_8,3,5,63,98,1804012916
98,17,18,Jits_Linear_8,0,5,56,103,1804552608
98,17,18,Jits_Linear_8,1,1,48,58,1804629244
98,17,18,Jits_Linear_8,2,5,63,98,1804642616
98,17,18,Jits_Linear_8,3,5,80,127,1804713192
98,17,18,Jits_Linear_8,0,1,48,67,1805238616
98,17,18,Jits_Linear_8,1,5,63,98,1805322784
98,17,18,Jits_Linear_8,2,5,80,127,1805325924
98,17,18,Jits_Linear_8,3,5,56,103,1805383008
98,17,18,Jits_Linear_8,0,1,48,56,1805956704
98,17,18,Jits_Linear_8,1,5,80,127,1806042744
98,17,18,Jits_Linear_8,2,5,56,103,1806062892
98,17,18,Jits_Linear_8,3,5,63,98,1806073236
98,17,18,Jits_Linear_8,0,5,56,103,1806633384
98,17,18,Jits_Linear_8,1,5,63,98,1806642536
98,17,18,Jits_Linear_8,2,1,48,62,1806708304
98,17,18,Jits_Linear_8,3,5,80,127,1806713132
98,17,18,Jits_Linear_8,0,1,48,50,1807286644
98,17,18,Jits_Linear_8,1,5,80,127,1807313196
98,17,18,Jits_Linear_8,2,5,56,103,1807362280
98,17,18,Jits_Linear_8,3,5,63,98,1807412764
98,17,18,Jits_Linear_8,0,1,48,52,1808022056
98,17,18,Jits_Linear_8,1,5,56,103,1808073100
98,17,18,Jits_Linear_8,2,5,63,98,1808083300
98,17,18,Jits_Linear_8,3,5,80,127,1808123296
98,17,18,Jits_Linear_8,0,5,56,103,1808692660
98,17,18,Jits_Linear_8,1,5,63,98,1808732776
98,17,18,Jits_Linear_8,2,1,48,68,1808736192
98,17,18,Jits_Linear_8,3,5,80,127,1808782972
98,17,18,Jits_Linear_8,0,5,80,127,1809323412
98,17,18,Jits_Linear_8,1,5,56,103,1809372644
98,17,18,Jits_Linear_8,2,5,63,98,1809392880
98,17,18,Jits_Linear_8,3,1,48,60,1809430916
98,17,18,Jits_Linear_8,0,5,80,127,1810003304
98,17,18,Jits_Linear_8,1,1,48,54,1810018708
98,17,18,Jits_Linear_8,2,5,63,98,1810062792
98,17,18,Jits_Linear_8,3,5,56,103,1810142500
98,17,18,Jits_Linear_8,0,5,80,127,1810652612
98,17,18,Jits_Linear_8,1,5,56,103,1810692328
98,17,18,Jits_Linear_8,2,5,63,98,1810712936
98,17,18,Jits_Linear_8,3,1,48,55,1810747216
98,17,18,Jits_Linear_8,0,1,48,59,1811308568
98,17,18,Jits_Linear_8,1,5,56,103,1811373700
98,17,18,Jits_Linear_8,2,5,80,127,1811382776
98,17,18,Jits_Linear_8,3,5,63,98,1811422996
98,17,18,Jits_Linear_8,0,1,48,57,1812009176
98,17,18,Jits_Linear_8,1,5,56,103,1812102872
98,17,18,Jits_Linear_8,2,5,63,98,1812142588
98,17,18,Jits_Linear_8,3,5,80,127,1812145804
98,17,18,Jits_Linear_8,0,5,63,98,1812653584
98,17,18,Jits_Linear_8,1,5,80,127,1812693300
98,17,18,Jits_Linear_8,2,1,48,54,1812704812
98,17,18,Jits_Linear_8,3,5,56,103,1812762972
98,17,18,Jits_Linear_8,0,5,63,98,1813302796
98,17,18,Jits_Linear_8,1,1,48,58,1813347820
98,17,18,Jits_Linear_8,2,5,56,103,1813382612
98,17,18,Jits_Linear_8,3,5,80,127,1813442852
98,17,18,Jits_Linear_8,0,5,80,127,1813973460
98,17,18,Jits_Linear_8,1,1,48,61,1813978748
98,17,18,Jits_Linear_8,2,5,63,98,1814022612
98,17,18,Jits_Linear_8,3,5,56,103,1814053332
98,17,18,Jits_Linear_8,0,5,56,103,1814622788
98,17,18,Jits_Linear_8,1,1,48,63,1814634900
98,17,18,Jits_Linear_8,2,5,63,98,1814672836
98,17,18,Jits_Linear_8,3,5,80,127,1814683036
98,17,18,Jits_Linear_8,0,1,48,69,1815228368
98,17,18,Jits_Linear_8,1,5,56,103,1815293436
98,17,18,Jits_Linear_8,2,5,63,98,1815402840
98,17,18,Jits_Linear_8,3,5,80,127,1815423296
98,17,18,Jits_Linear_8,0,1,48,65,1815906088
98,17,18,Jits_Linear_8,1,5,63,98,1815942456
98,17,18,Jits_Linear_8,2,5,80,127,1815992812
98,17,18,Jits_Linear_8,3,5,56,103,1816082780
98,17,18,Jits_Linear_8,0,5,63,98,1816582616
98,17,18,Jits_Linear_8,1,1,48,67,1816595776
98,17,18,Jits_Linear_8,2,5,80,127,1816613256
98,17,18,Jits_Linear_8,3,5,56,103,1816703620
98,17,18,Jits_Linear_8,0,5,63,98,1817232900
98,17,18,Jits_Linear_8,1,1,48,61,1817235720
98,17,18,Jits_Linear_8,2,5,56,103,1817242940
98,17,18,Jits_Linear_8,3,5,80,127,1817343244
98,17,18,Jits_Linear_8,0,1,48,65,1817814940
98,17,18,Jits_Linear_8,1,5,63,98,1817983260
98,17,18,Jits_Linear_8,2,5,80,127,1818013012
98,17,18,Jits_Linear_8,3,5,56,103,1818042760
98,17,18,Jits_Linear_8,0,1,48,59,1818587964
98,17,18,Jits_Linear_8,1,5,80,127,1818642768
98,17,18,Jits_Linear_8,2,5,63,98,1818653036
98,17,18,Jits_Linear_8,3,5,56,103,1818682788
98,17,18,Jits_Linear_8,0,5,80,127,1819182684
98,17,18,Jits_Linear_8,1,5,63,98,1819202920
98,17,18,Jits_Linear_8,2,5,56,103,1819253076
98,17,18,Jits_Linear_8,3,1,48,55,1819255592
98,17,18,Jits_Linear_8,0,5,63,98,1819853068
98,17,18,Jits_Linear_8,1,1,48,53,1819857532
98,17,18,Jits_Linear_8,2,5,80,127,1819912704
98,17,18,Jits_Linear_8,3,5,56,103,1819933088
98,17,18,Jits_Linear_8,0,5,63,98,1820453136
98,17,18,Jits_Linear_8,1,5,56,103,1820503588
98,17,18,Jits_Linear_8,2,1,48,54,1820512588
98,17,18,Jits_Linear_8,3,5,80,127,1820514000
98,17,18,Jits_Linear_8,0,1,48,53,1821106240
98,17,18,Jits_Linear_8,1,5,56,103,1821122896
98,17,18,Jits_Linear_8,2,5,80,127,1821133168
98,17,18,Jits_Linear_8,3,5,63,98,1821232652
98,17,18,Jits_Linear_8,0,5,80,127,1821722896
98,17,18,Jits_Linear_8,1,5,63,98,1821733168
98,17,18,Jits_Linear_8,2,1,48,59,1821773672
98,17,18,Jits_Linear_8,3,5,56,103,1821882788
98,17,18,Jits_Linear_8,0,5,63,98,1822363012
98,17,18,Jits_Linear_8,1,1,48,55,1822367324
98,17,18,Jits_Linear_8,2,5,80,127,1822402872
98,17,18,Jits_Linear_8,3,5,56,103,1822482724
98,17,18,Jits_Linear_8,0,5,56,103,1822982632
98,17,18,Jits_Linear_8,1,1,48,69,1823012728
98,17,18,Jits_Linear_8,2,5,80,127,1823082756
98,17,18,Jits_Linear_8,3,5,63,98,1823103512
98,17,18,Jits_Linear_8,0,1,48,48,1823656432
98,17,18,Jits_Linear_8,1,5,80,127,1823672720
98,17,18,Jits_Linear_8,2,5,56,103,1823683068
98,17,18,Jits_Linear_8,3,5,63,98,1823773036
98,17,18,Jits_Linear_8,0,1,48,68,1824297708
98,17,18,Jits_Linear_8,1,5,56,103,1824302688
98,17,18,Jits_Linear_8,2,5,63,98,1824322848
98,17,18,Jits_Linear_8,3,5,80,127,1824402728
98,17,18,Jits_Linear_8,0,5,63,98,1824872744
98,17,18,Jits_Linear_8,1,5,56,103,1824962956
98,17,18,Jits_Linear_8,2,5,80,127,1824965800
98,17,18,Jits_Linear_8,3,1,48,67,1824978804
98,17,18,Jits_Linear_8,0,5,56,103,1825523076
98,17,18,Jits_Linear_8,1,1,48,63,1825546352
98,17,18,Jits_Linear_8,2,5,80,127,1825582416
98,17,18,Jits_Linear_8,3,5,63,98,1825592616
98,17,18,Jits_Linear_8,0,1,48,61,1826160916
98,17,18,Jits_Linear_8,1,5,80,127,1826192928
98,17,18,Jits_Linear_8,2,5,56,103,1826203120
98,17,18,Jits_Linear_8,3,5,63,98,1826206264
98,17,18,Jits_Linear_8,0,5,56,103,1826773512
98,17,18,Jits_Linear_8,1,5,80,127,1826782664
98,17,18,Jits_Linear_8,2,5,63,98,1826803048
98,17,18,Jits_Linear_8,3,1,48,66,1826806840
98,17,18,Jits_Linear_8,0,5,63,98,1827363332
98,17,18,Jits_Linear_8,1,1,48,56,1827395972
98,17,18,Jits_Linear_8,2,5,80,127,1827422472
98,17,18,Jits_Linear_8,3,5,56,103,1827472672
98,17,18,Jits_Linear_8,0,1,48,67,1828015168
98,17,18,Jits_Linear_8,1,5,63,98,1828062696
98,17,18,Jits_Linear_8,2,5,56,103,1828072816
98,17,18,Jits_Linear_8,3,5,80,127,1828123080
98,17,18,Jits_Linear_8,0,5,63,98,1828572644
98,17,18,Jits_Linear_8,1,5,80,127,1828592956
98,17,18,Jits_Linear_8,2,5,56,103,1828603524
98,17,18,Jits_Linear_8,3,1,48,66,1828650984
98,17,18,Jits_Linear_8,0,5,63,98,1829182820
98,17,18,Jits_Linear_8,1,5,80,127,1829186108
98,17,18,Jits_Linear_8,2,1,48,63,1829215028
98,17,18,Jits_Linear_8,3,5,56,103,1829222700
98,17,18,Jits_Linear_8,0,1,48,68,1829801820
98,17,18,Jits_Linear_8,1,5,63,98,1829862760
98,17,18,Jits_Linear_8,2,5,80,127,1829892732
98,17,18,Jits_Linear_8,3,5,56,103,1829902540
98,17,18,Jits_Linear_8,0,5,56,103,1830422900
98,17,18,Jits_Linear_8,1,1,48,67,1830433664
98,17,18,Jits_Linear_8,2,5,80,127,1830452796
98,17,18,Jits_Linear_8,3,5,63,98,1830483468
98,17,18,Jits_Linear_8,0,1,48,69,1831078112
98,17,18,Jits_Linear_8,1,5,63,98,1831123396
98,17,18,Jits_Linear_8,2,5,56,103,1831163484
98,17,18,Jits_Linear_8,3,5,80,127,1831166548
98,17,18,Jits_Linear_8,0,5,80,127,1831622928
98,17,18,Jits_Linear_8,1,5,56,103,1831702948
98,17,18,Jits_Linear_8,2,1,48,61,1831730428
98,17,18,Jits_Linear_8,3,5,63,98,1831753216
98,17,18,Jits_Linear_8,0,5,80,127,1832202560
98,17,18,Jits_Linear_8,1,5,56,103,1832223168
98,17,18,Jits_Linear_8,2,5,63,98,1832313400
98,17,18,Jits_Linear_8,3,1,48,67,1832326484
98,17,18,Jits_Linear_8,0,5,80,127,1832842524
98,17,18,Jits_Linear_8,1,1,48,63,1832868416
98,17,18,Jits_Linear_8,2,5,63,98,1832882608
98,17,18,Jits_Linear_8,3,5,56,103,1832922544
98,17,18,Jits_Linear_8,0,5,63,98,1833412940
98,17,18,Jits_Linear_8,1,1,48,61,1833472124
98,17,18,Jits_Linear_8,2,5,80,127,1833473620
98,17,18,Jits_Linear_8,3,5,56,103,1833503148
98,17,18,Jits_Linear_8,0,5,56,103,1834012932
98,17,18,Jits_Linear_8,1,1,48,62,1834042608
98,17,18,Jits_Linear_8,2,5,80,127,1834044096
98,17,18,Jits_Linear_8,3,5,63,98,1834132836
98,17,18,Jits_Linear_8,0,5,56,103,1834613340
98,17,18,Jits_Linear_8,1,1,48,59,1834634968
98,17,18,Jits_Linear_8,2,5,80,127,1834722580
98,17,18,Jits_Linear_8,3,5,63,98,1834753432
98,17,18,Jits_Linear_8,0,5,56,103,1835253068
98,17,18,Jits_Linear_8,1,1,48,60,1835285108
98,17,18,Jits_Linear_8,2,5,63,98,1835312704
98,17,18,Jits_Linear_8,3,5,80,127,1835343504
98,17,18,Jits_Linear_8,0,5,56,103,1835813372
98,17,18,Jits_Linear_8,1,5,63,98,1835882932
98,17,18,Jits_Linear_8,2,5,80,127,1835903392
98,17,18,Jits_Linear_8,3,1,48,58,1835913928
98,17,18,Jits_Linear_8,0,5,80,127,1836373256
98,17,18,Jits_Linear_8,1,5,63,98,1836392892
98,17,18,Jits_Linear_8,2,5,56,103,1836442944
98,17,18,Jits_Linear_8,3,1,48,63,1836456548
98,17,18,Jits_Linear_8,0,5,63,98,1836973484
98,17,18,Jits_Linear_8,1,5,80,127,1836982560
98,17,18,Jits_Linear_8,2,1,48,55,1837015792
98,17,18,Jits_Linear_8,3,5,56,103,1837032904
98,17,18,Jits_Linear_8,0,5,63,98,1837553320
98,17,18,Jits_Linear_8,1,1,48,59,1837582524
98,17,18,Jits_Linear_8,2,5,80,127,1837622628
98,17,18,Jits_Linear_8,3,5,56,103,1837643236
98,17,18,Jits_Linear_8,0,5,63,98,1838163456
98,17,18,Jits_Linear_8,1,5,80,127,1838166672
98,17,18,Jits_Linear_8,2,1,48,56,1838191456
98,17,18,Jits_Linear_8,3,5,56,103,1838232908
98,17,18,Jits_Linear_8,0,5,80,127,1838692648
98,17,18,Jits_Linear_8,1,5,56,103,1838713256
98,17,18,Jits_Linear_8,2,5,63,98,1838722556
98,17,18,Jits_Linear_8,3,1,48,60,1838755488
98,17,18,Jits_Linear_8,0,1,48,69,1839284304
98,17,18,Jits_Linear_8,1,5,56,103,1839292868
98,17,18,Jits_Linear_8,2,5,63,98,1839383136
98,17,18,Jits_Linear_8,3,5,80,127,1839386276
98,17,18,Jits_Linear_8,0,5,80,127,1839842740
98,17,18,Jits_Linear_8,1,5,56,103,1839853012
98,17,18,Jits_Linear_8,2,5,63,98,1839873468
98,17,18,Jits_Linear_8,3,1,48,44,1839880792
98,17,18,Jits_Linear_8,0,5,63,98,1840413216
98,17,18,Jits_Linear_8,1,1,48,73,1840414552
98,17,18,Jits_Linear_8,2,5,80,127,1840472432
98,17,18,Jits_Linear_8,3,5,56,103,1840482628
98,17,18,Jits_Linear_8,0,1,48,63,1840989140
98,17,18,Jits_Linear_8,1,5,63,98,1841053312
98,17,18,Jits_Linear_8,2,5,80,127,1841082616
98,17,18,Jits_Linear_8,3,5,56,103,1841122616
98,17,18,Jits_Linear_8,0,1,48,52,1841608624
98,17,18,Jits_Linear_8,1,5,56,103,1841613376
98,17,18,Jits_Linear_8,2,5,80,127,1841623576
98,17,18,Jits_Linear_8,3,5,63,98,1841663288
98,17,18,Jits_Linear_8,0,5,80,127,1842142432
98,17,18,Jits_Linear_8,1,1,48,58,1842202044
98,17,18,Jits_Linear_8,2,5,56,103,1842222592
98,17,18,Jits_Linear_8,3,5,63,98,1842232788
98,17,18,Jits_Linear_8,0,5,80,127,1842753008
98,17,18,Jits_Linear_8,1,1,48,55,1842795480
98,17,18,Jits_Linear_8,2,5,56,103,1842832748
98,17,18,Jits_Linear_8,3,5,63,98,1842842944
98,17,18,Jits_Linear_8,0,5,80,127,1843273156
98,17,18,Jits_Linear_8,1,5,56,103,1843323236
98,17,18,Jits_Linear_8,2,5,63,98,1843373440
98,17,18,Jits_Linear_8,3,1,48,54,1843387720
98,17,18,Jits_Linear_8,0,1,48,52,1843885300
98,17,18,Jits_Linear_8,1,5,56,103,1843892436
98,17,18,Jits_Linear_8,2,5,63,98,1843895436
98,17,18,Jits_Linear_8,3,5,80,127,1843942716
98,17,18,Jits_Linear_8,0,1,48,55,1844428340
98,17,18,Jits_Linear_8,1,5,56,103,1844473328
98,17,18,Jits_Linear_8,2,5,63,98,1844502780
98,17,18,Jits_Linear_8,3,5,80,127,1844513200
98,17,18,Jits_Linear_8,0,5,63,98,1844943420
98,17,18,Jits_Linear_8,1,1,48,58,1845003784
98,17,18,Jits_Linear_8,2,5,56,103,1845012876
98,17,18,Jits_Linear_8,3,5,80,127,1845063448
98,17,18,Jits_Linear_8,0,1,48,56,1845516184
98,17,18,Jits_Linear_8,1,5,63,98,1845533148
98,17,18,Jits_Linear_8,2,5,56,103,1845543344
98,17,18,Jits_Linear_8,3,5,80,127,1845546340
98,17,18,Jits_Linear_8,4,1,48,33,1845557388
98,17,18,Jits_Linear_8,0,5,80,127,1846032640
98,17,18,Jits_Linear_8,1,1,48,55,1846059056
98,17,18,Jits_Linear_8,2,5,56,103,1846093176
98,17,18,Jits_Linear_8,3,5,63,98,1846183392
98,17,18,Jits_Linear_8,0,5,80,127,1846582748
98,17,18,Jits_Linear_8,1,1,48,59,1846636536
98,17,18,Jits_Linear_8,2,5,56,103,1846683168
98,17,18,Jits_Linear_8,3,5,63,98,1846723104
98,17,18,Jits_Linear_8,0,5,56,103,1847182564
98,17,18,Jits_Linear_8,1,5,63,98,1847203248
98,17,18,Jits_Linear_8,2,1,48,55,1847238648
98,17,18,Jits_Linear_8,3,5,80,127,1847243328
98,17,18,Jits_Linear_8,0,5,63,98,1847702856
98,17,18,Jits_Linear_8,1,5,56,103,1847723316
98,17,18,Jits_Linear_8,2,1,48,52,1847776704
98,17,18,Jits_Linear_8,3,5,80,127,1847822656
98,17,18,Jits_Linear_8,0,5,63,98,1848233396
98,17,18,Jits_Linear_8,1,1,48,54,1848287240
98,17,18,Jits_Linear_8,2,5,80,127,1848342860
98,17,18,Jits_Linear_8,3,5,56,103,1848372532
98,17,18,Jits_Linear_8,0,1,48,53,1848791360
98,17,18,Jits_Linear_8,1,5,56,103,1848792856
98,17,18,Jits_Linear_8,2,5,63,98,1848823356
98,17,18,Jits_Linear_8,3,5,80,127,1848873260
98,17,18,Jits_Linear_8,0,5,63,98,1849303400
98,17,18,Jits_Linear_8,1,1,48,59,1849309216
98,17,18,Jits_Linear_8,2,5,56,103,1849333072
98,17,18,Jits_Linear_8,3,5,80,127,1849383272
98,17,18,Jits_Linear_8,0,1,48,59,1849824688
98,17,18,Jits_Linear_8,1,5,56,103,1849872744
98,17,18,Jits_Linear_8,2,5,63,98,1849893128
98,17,18,Jits_Linear_8,3,5,80,127,1849973156
98,17,18,Jits_Linear_8,0,5,63,98,1850382688
98,17,18,Jits_Linear_8,1,1,48,59,1850385880
98,17,18,Jits_Linear_8,2,5,56,103,1850443444
98,17,18,Jits_Linear_8,3,5,80,127,1850472996
98,17,18,Jits_Linear_8,0,1,48,54,1850920004
98,17,18,Jits_Linear_8,1,5,56,103,1850963440
98,17,18,Jits_Linear_8,2,5,80,127,1851022844
98,17,18,Jits_Linear_8,3,5,63,98,1851062784
98,17,18,Jits_Linear_8,0,5,63,98,1851473164
98,17,18,Jits_Linear_8,1,1,48,54,1851526780
98,17,18,Jits_Linear_8,2,5,56,103,1851532800
98,17,18,Jits_Linear_8,3,5,80,127,1851603380
98,17,18,Jits_Linear_8,0,1,48,56,1852035744
98,17,18,Jits_Linear_8,1,5,56,103,1852082528
98,17,18,Jits_Linear_8,2,5,63,98,1852092640
98,17,18,Jits_Linear_8,3,5,80,127,1852096012
98,17,18,Jits_Linear_8,0,5,63,98,1852552608
98,17,18,Jits_Linear_8,1,1,48,52,1852571616
98,17,18,Jits_Linear_8,2,5,56,103,1852613144
98,17,18,Jits_Linear_8,3,5,80,127,1852616060
98,17,18,Jits_Linear_8,0,5,63,98,1853062392
98,17,18,Jits_Linear_8,1,1,48,54,1853087608
98,17,18,Jits_Linear_8,2,5,80,127,1853093332
98,17,18,Jits_Linear_8,3,5,56,103,1853112596
98,17,18,Jits_Linear_8,0,1,48,50,1853567196
98,17,18,Jits_Linear_8,1,5,56,103,1853593076
98,17,18,Jits_Linear_8,2,5,63,98,1853643356
98,17,18,Jits_Linear_8,3,5,80,127,1853723060
98,17,18,Jits_Linear_8,0,5,80,127,1854092764
98,17,18,Jits_Linear_8,1,1,48,56,1854125848
98,17,18,Jits_Linear_8,2,5,63,98,1854132548
98,17,18,Jits_Linear_8,3,5,56,103,1854153004
98,17,18,Jits_Linear_8,0,1,48,59,1854634448
98,17,18,Jits_Linear_8,1,5,56,103,1854682352
98,17,18,Jits_Linear_8,2,5,80,127,1854692624
98,17,18,Jits_Linear_8,3,5,63,98,1854713232
98,17,18,Jits_Linear_8,0,1,48,58,1855138320
98,17,18,Jits_Linear_8,1,5,56,103,1855183084
98,17,18,Jits_Linear_8,2,5,63,98,1855233360
98,17,18,Jits_Linear_8,3,5,80,127,1855263320
98,17,18,Jits_Linear_8,0,5,56,103,1855653100
98,17,18,Jits_Linear_8,1,5,63,98,1855662400
98,17,18,Jits_Linear_8,2,1,48,56,1855679148
98,17,18,Jits_Linear_8,3,5,80,127,1855712596
98,17,18,Jits_Linear_8,0,1,48,57,1856161368
98,17,18,Jits_Linear_8,1,5,56,103,1856163112
98,17,18,Jits_Linear_8,2,5,80,127,1856166112
98,17,18,Jits_Linear_8,3,5,63,98,1856323352
98,17,18,Jits_Linear_8,0,1,48,62,1856643800
98,17,18,Jits_Linear_8,1,5,63,98,1856692528
98,17,18,Jits_Linear_8,2,5,56,103,1856763244
98,17,18,Jits_Linear_8,3,5,80,127,1856803332
98,17,18,Jits_Linear_8,0,1,48,50,1857224468
98,17,18,Jits_Linear_8,1,5,63,98,1857242404
98,17,18,Jits_Linear_8,2,5,56,103,1857332600
98,17,18,Jits_Linear_8,3,5,80,127,1857335516
98,17,18,Jits_Linear_8,0,5,56,103,1857733168
98,17,18,Jits_Linear_8,1,1,48,56,1857737408
98,17,18,Jits_Linear_8,2,5,63,98,1857823148
98,17,18,Jits_Linear_8,3,5,80,127,1857833924
98,17,18,Jits_Linear_8,0,5,56,103,1858213308
98,17,18,Jits_Linear_8,1,5,63,98,1858263364
98,17,18,Jits_Linear_8,2,5,80,127,1858293188
98,17,18,Jits_Linear_8,3,1,48,51,1858314440
98,17,18,Jits_Linear_8,0,1,48,55,1858792344
98,17,18,Jits_Linear_8,1,5,63,98,1858793908
98,17,18,Jits_Linear_8,2,5,80,127,1858802984
98,17,18,Jits_Linear_8,3,5,56,103,1858862400
98,17,18,Jits_Linear_8,0,5,63,98,1859212756
98,17,18,Jits_Linear_8,1,5,80,127,1859273148
98,17,18,Jits_Linear_8,2,5,56,103,1859313088
98,17,18,Jits_Linear_8,3,1,48,58,1859352844
98,17,18,Jits_Linear_8,0,5,56,103,1859812904
98,17,18,Jits_Linear_8,1,5,80,127,1859833140
98,17,18,Jits_Linear_8,2,1,48,54,1859842632
98,17,18,Jits_Linear_8,3,5,63,98,1859852844
98,17,18,Jits_Linear_8,0,5,63,98,1860232512
98,17,18,Jits_Linear_8,1,5,56,103,1860252972
98,17,18,Jits_Linear_8,2,5,80,127,1860293060
98,17,18,Jits_Linear_8,3,1,48,51,1860343524
98,17,18,Jits_Linear_8,0,5,63,98,1860742452
98,17,18,Jits_Linear_8,1,5,80,127,1860773320
98,17,18,Jits_Linear_8,2,1,48,46,1860776516
98,17,18,Jits_Linear_8,3,5,56,103,1860792804
98,17,18,Jits_Linear_8,0,5,80,127,1861212460
98,17,18,Jits_Linear_8,1,1,48,59,1861254240
98,17,18,Jits_Linear_8,2,5,56,103,1861262580
98,17,18,Jits_Linear_8,3,5,63,98,1861323196
98,17,18,Jits_Linear_8,0,5,63,98,1861692872
98,17,18,Jits_Linear_8,1,1,48,59,1861776780
98,17,18,Jits_Linear_8,2,5,56,103,1861812548
98,17,18,Jits_Linear_8,3,5,80,127,1861843196
98,17,18,Jits_Linear_8,0,5,80,127,1862223512
98,17,18,Jits_Linear_8,1,5,63,98,1862242556
98,17,18,Jits_Linear_8,2,1,48,57,1862290164
98,17,18,Jits_Linear_8,3,5,56,103,1862313348
98,17,18,Jits_Linear_8,0,5,63,98,1862733152
98,17,18,Jits_Linear_8,1,5,56,103,1862743496
98,17,18,Jits_Linear_8,2,1,48,52,1862799728
98,17,18,Jits_Linear_8,3,5,80,127,1862823208
98,17,18,Jits_Linear_8,0,5,56,103,1863283032
98,17,18,Jits_Linear_8,1,1,48,55,1863300916
98,17,18,Jits_Linear_8,2,5,80,127,1863312848
98,17,18,Jits_Linear_8,3,5,63,98,1863323192
98,17,18,Jits_Linear_8,0,9999,9999,9999,1752940640
98,17,18,Jits_Linear_8,1,9999,9999,9999,1753760880
98,17,18,Jits_Linear_8,2,9999,9999,9999,1754581060
98,17,18,Jits_Linear_8,3,9999,9999,9999,1755400264
98,17,18,Jits_Linear_8,4,9999,9999,9999,1756220492
98,17,18,Jits_Linear_8,5,9999,9999,9999,1757030464
98,17,18,Jits_Linear_8,6,9999,9999,9999,1757840480
98,17,18,Jits_Linear_8,7,9999,9999,9999,1758650440
98,17,18,Jits_Linear_8,8,9999,9999,9999,1759460476
98,17,18,Jits_Linear_8,9,9999,9999,9999,1760270408
98,17,18,Jits_Linear_8,10,9999,9999,9999,1761070184
98,17,18,Jits_Linear_8,11,9999,9999,9999,1761870912
98,17,18,Jits_Linear_8,12,9999,9999,9999,1762670700
98,17,18,Jits_Linear_8,13,9999,9999,9999,1763470392
98,17,18,Jits_Linear_8,14,9999,9999,9999,1764270204
98,17,18,Jits_Linear_8,15,9999,9999,9999,1765060672
98,17,18,Jits_Linear_8,16,9999,9999,9999,1765850220
98,17,18,Jits_Linear_8,17,9999,9999,9999,1766640700
98,17,18,Jits_Linear_8,18,9999,9999,9999,1767430272
98,17,18,Jits_Linear_8,19,9999,9999,9999,1768220752
98,17,18,Jits_Linear_8,20,9999,9999,9999,1769001020
98,17,18,Jits_Linear_8,21,9999,9999,9999,1769780324
98,17,18,Jits_Linear_8,22,9999,9999,9999,1770560604
98,17,18,Jits_Linear_8,23,9999,9999,9999,1771340876
98,17,18,Jits_Linear_8,24,9999,9999,9999,1772120120
98,17,18,Jits_Linear_8,25,9999,9999,9999,1772890204
98,17,18,Jits_Linear_8,26,9999,9999,9999,1773660288
98,17,18,Jits_Linear_8,27,9999,9999,9999,1774430300
98,17,18,Jits_Linear_8,28,9999,9999,9999,1775200324
98,17,18,Jits_Linear_8,29,9999,9999,9999,1775970428
98,17,18,Jits_Linear_8,30,9999,9999,9999,1776730176
98,17,18,Jits_Linear_8,31,9999,9999,9999,1777491040
98,17,18,Jits_Linear_8,32,9999,9999,9999,1778250848
98,17,18,Jits_Linear_8,33,9999,9999,9999,1779010672
98,17,18,Jits_Linear_8,34,9999,9999,9999,1779770436
98,17,18,Jits_Linear_8,35,9999,9999,9999,1780521048
98,17,18,Jits_Linear_8,36,9999,9999,9999,1781270616
98,17,18,Jits_Linear_8,37,9999,9999,9999,1782020188
98,17,18,Jits_Linear_8,38,9999,9999,9999,1782770804
98,17,18,Jits_Linear_8,39,9999,9999,9999,1783520312
98,17,18,Jits_Linear_8,40,9999,9999,9999,1784260672
98,17,18,Jits_Linear_8,41,9999,9999,9999,1785001024
98,17,18,Jits_Linear_8,42,9999,9999,9999,1785740392
98,17,18,Jits_Linear_8,43,9999,9999,9999,1786480736
98,17,18,Jits_Linear_8,44,9999,9999,9999,1787221064
98,17,18,Jits_Linear_8,45,9999,9999,9999,1787950148
98,17,18,Jits_Linear_8,46,9999,9999,9999,1788680244
98,17,18,Jits_Linear_8,47,9999,9999,9999,1789410408
98,17,18,Jits_Linear_8,48,9999,9999,9999,1790140500
98,17,18,Jits_Linear_8,49,9999,9999,9999,1790870588
98,17,18,Jits_Linear_8,50,9999,9999,9999,1791590480
98,17,18,Jits_Linear_8,51,9999,9999,9999,1792310360
98,17,18,Jits_Linear_8,52,9999,9999,9999,1793030268
98,17,18,Jits_Linear_8,53,9999,9999,9999,1793750104
98,17,18,Jits_Linear_8,54,9999,9999,9999,1794470976
98,17,18,Jits_Linear_8,55,9999,9999,9999,1795180620
98,17,18,Jits_Linear_8,56,9999,9999,9999,1795890292
98,17,18,Jits_Linear_8,57,9999,9999,9999,1796600908
98,17,18,Jits_Linear_8,58,9999,9999,9999,1797310548
98,17,18,Jits_Linear_8,59,9999,9999,9999,1798020172
98,17,18,Jits_Linear_8,60,9999,9999,9999,1798720572
98,17,18,Jits_Linear_8,61,9999,9999,9999,1799421000
98,17,18,Jits_Linear_8,62,9999,9999,9999,1800120380
98,17,18,Jits_Linear_8,63,9999,9999,9999,1800820856
98,17,18,Jits_Linear_8,64,9999,9999,9999,1801520200
98,17,18,Jits_Linear_8,65,9999,9999,9999,1802210428
98,17,18,Jits_Linear_8,66,9999,9999,9999,1802900596
98,17,18,Jits_Linear_8,67,9999,9999,9999,1803590724
98,17,18,Jits_Linear_8,68,9999,9999,9999,1804280936
98,17,18,Jits_Linear_8,69,9999,9999,9999,1804971100
98,17,18,Jits_Linear_8,70,9999,9999,9999,1805660284
98,17,18,Jits_Linear_8,71,9999,9999,9999,1806340224
98,17,18,Jits_Linear_8,72,9999,9999,9999,1807020104
98,17,18,Jits_Linear_8,73,9999,9999,9999,1807701048
98,17,18,Jits_Linear_8,74,9999,9999,9999,1808380992
98,17,18,Jits_Linear_8,75,9999,9999,9999,1809050692
98,17,18,Jits_Linear_8,76,9999,9999,9999,1809720444
98,17,18,Jits_Linear_8,77,9999,9999,9999,1810390084
98,17,18,Jits_Linear_8,78,9999,9999,9999,1811060828
98,17,18,Jits_Linear_8,79,9999,9999,9999,1811730512
98,17,18,Jits_Linear_8,80,9999,9999,9999,1812390992
98,17,18,Jits_Linear_8,81,9999,9999,9999,1813050468
98,17,18,Jits_Linear_8,82,9999,9999,9999,1813710948
98,17,18,Jits_Linear_8,83,9999,9999,9999,1814370372
98,17,18,Jits_Linear_8,84,9999,9999,9999,1815030908
98,17,18,Jits_Linear_8,85,9999,9999,9999,1815680096
98,17,18,Jits_Linear_8,86,9999,9999,9999,1816330360
98,17,18,Jits_Linear_8,87,9999,9999,9999,1816980572
98,17,18,Jits_Linear_8,88,9999,9999,9999,1817630832
98,17,18,Jits_Linear_8,89,9999,9999,9999,1818281052
98,17,18,Jits_Linear_8,90,9999,9999,9999,1818921064
98,17,18,Jits_Linear_8,91,9999,9999,9999,1819561012
98,17,18,Jits_Linear_8,92,9999,9999,9999,1820201036
98,17,18,Jits_Linear_8,93,9999,9999,9999,1820841056
98,17,18,Jits_Linear_8,94,9999,9999,9999,1821481056
98,17,18,Jits_Linear_8,95,9999,9999,9999,1822110816
98,17,18,Jits_Linear_8,96,9999,9999,9999,1822740568
98,17,18,Jits_Linear_8,97,9999,9999,9999,1823370336
98,17,18,Jits_Linear_8,98,9999,9999,9999,1824000092
98,17,18,Jits_Linear_8,99,9999,9999,9999,1824630904
98,17,18,Jits_Linear_8,100,9999,9999,9999,1825250372
98,17,18,Jits_Linear_8,101,9999,9999,9999,1825870968
98,17,18,Jits_Linear_8,102,9999,9999,9999,1826490468
98,17,18,Jits_Linear_8,103,9999,9999,9999,1827110988
98,17,18,Jits_Linear_8,104,9999,9999,9999,1827730504
98,17,18,Jits_Linear_8,105,9999,9999,9999,1828340844
98,17,18,Jits_Linear_8,106,9999,9999,9999,1828950072
98,17,18,Jits_Linear_8,107,9999,9999,9999,1829560384
98,17,18,Jits_Linear_8,108,9999,9999,9999,1830170724
98,17,18,Jits_Linear_8,109,9999,9999,9999,1830781000
98,17,18,Jits_Linear_8,110,9999,9999,9999,1831381088
98,17,18,Jits_Linear_8,111,9999,9999,9999,1831980112
98,17,18,Jits_Linear_8,112,9999,9999,9999,1832580216
98,17,18,Jits_Linear_8,113,9999,9999,9999,1833180228
98,17,18,Jits_Linear_8,114,9999,9999,9999,1833780308
98,17,18,Jits_Linear_8,115,9999,9999,9999,1834370140
98,17,18,Jits_Linear_8,116,9999,9999,9999,1834961012
98,17,18,Jits_Linear_8,117,9999,9999,9999,1835550840
98,17,18,Jits_Linear_8,118,9999,9999,9999,1836140616
98,17,18,Jits_Linear_8,119,9999,9999,9999,1836730432
98,17,18,Jits_Linear_8,120,9999,9999,9999,1837311032
98,17,18,Jits_Linear_8,121,9999,9999,9999,1837890652
98,17,18,Jits_Linear_8,122,9999,9999,9999,1838470216
98,17,18,Jits_Linear_8,123,9999,9999,9999,1839050868
98,17,18,Jits_Linear_8,124,9999,9999,9999,1839630420
98,17,18,Jits_Linear_8,125,9999,9999,9999,1840200816
98,17,18,Jits_Linear_8,126,9999,9999,9999,1840770124
98,17,18,Jits_Linear_8,127,9999,9999,9999,1841340528
98,17,18,Jits_Linear_8,128,9999,9999,9999,1841910856
98,17,18,Jits_Linear_8,129,9999,9999,9999,1842480208
98,17,18,Jits_Linear_8,130,9999,9999,9999,1843040320
98,17,18,Jits_Linear_8,131,9999,9999,9999,1843600472
98,17,18,Jits_Linear_8,132,9999,9999,9999,1844160620
98,17,18,Jits_Linear_8,133,9999,9999,9999,1844720764
98,17,18,Jits_Linear_8,134,9999,9999,9999,1845280828
98,17,18,Jits_Linear_8,135,9999,9999,9999,1845830748
98,17,18,Jits_Linear_8,136,9999,9999,9999,1846380636
98,17,18,Jits_Linear_8,137,9999,9999,9999,1846930520
98,17,18,Jits_Linear_8,138,9999,9999,9999,1847480408
98,17,18,Jits_Linear_8,139,9999,9999,9999,1848030296
98,17,18,Jits_Linear_8,140,9999,9999,9999,1848570956
98,17,18,Jits_Linear_8,141,9999,9999,9999,1849110640
98,17,18,Jits_Linear_8,142,9999,9999,9999,1849650244
98,17,18,Jits_Linear_8,143,9999,9999,9999,1850190972
98,17,18,Jits_Linear_8,144,9999,9999,9999,1850730600
98,17,18,Jits_Linear_8,145,9999,9999,9999,1851261000
98,17,18,Jits_Linear_8,146,9999,9999,9999,1851790420
98,17,18,Jits_Linear_8,147,9999,9999,9999,1852320884
98,17,18,Jits_Linear_8,148,9999,9999,9999,1852850300
98,17,18,Jits_Linear_8,149,9999,9999,9999,1853380688
98,17,18,Jits_Linear_8,150,9999,9999,9999,1853900896
98,17,18,Jits_Linear_8,151,9999,9999,9999,1854421096
98,17,18,Jits_Linear_8,152,9999,9999,9999,1854940276
98,17,18,Jits_Linear_8,153,9999,9999,9999,1855460412
98,17,18,Jits_Linear_8,154,9999,9999,9999,1855980612
98,17,18,Jits_Linear_8,155,9999,9999,9999,1856490556
98,17,18,Jits_Linear_8,156,9999,9999,9999,1857000572
98,17,18,Jits_Linear_8,157,9999,9999,9999,1857510508
98,17,18,Jits_Linear_8,158,9999,9999,9999,1858020456
98,17,18,Jits_Linear_8,159,9999,9999,9999,1858530412
98,17,18,Jits_Linear_8,160,9999,9999,9999,1859030108
98,17,18,Jits_Linear_8,161,9999,9999,9999,1859530832
98,17,18,Jits_Linear_8,162,9999,9999,9999,1860030520
98,17,18,Jits_Linear_8,163,9999,9999,9999,1860530280
98,17,18,Jits_Linear_8,164,9999,9999,9999,1861031004
98,17,18,Jits_Linear_8,165,9999,9999,9999,1861520496
98,17,18,Jits_Linear_8,166,9999,9999,9999,1862010980
98,17,18,Jits_Linear_8,167,9999,9999,9999,1862500464
98,17,18,Jits_Linear_8,168,9999,9999,9999,1862990916
98,17,18,Jits_Linear_8,169,9999,9999,9999,1863480392
98,18,16,Jits_ISO_5,0,5,56,103,1871702360
98,18,16,Jits_ISO_5,1,5,63,98,1871705460
98,18,16,Jits_ISO_5,2,5,80,127,1871708728
98,18,16,Jits_ISO_5,0,5,56,103,1872202208
98,18,16,Jits_ISO_5,1,5,63,98,1872205308
98,18,16,Jits_ISO_5,2,5,80,127,1872208452
98,18,16,Jits_ISO_5,0,5,56,103,1872701944
98,18,16,Jits_ISO_5,1,5,80,127,1872711916
98,18,16,Jits_ISO_5,2,5,63,98,1872731500
98,18,16,Jits_ISO_5,0,5,63,98,1873152460
98,18,16,Jits_ISO_5,1,5,80,127,1873182060
98,18,16,Jits_ISO_5,2,5,56,103,1873192184
98,18,16,Jits_ISO_5,0,1,48,72,1873645780
98,18,16,Jits_ISO_5,1,5,80,127,1873711736
98,18,16,Jits_ISO_5,2,5,56,103,1873721860
98,18,16,Jits_ISO_5,3,5,63,98,1873752364
98,18,16,Jits_ISO_5,0,1,48,68,1874194740
98,18,16,Jits_ISO_5,1,5,63,98,1874201884
98,18,16,Jits_ISO_5,2,5,56,103,1874231856
98,18,16,Jits_ISO_5,3,5,80,127,1874241828
98,18,16,Jits_ISO_5,0,5,56,103,1874651508
98,18,16,Jits_ISO_5,1,5,63,98,1874701932
98,18,16,Jits_ISO_5,2,1,48,62,1874703344
98,18,16,Jits_ISO_5,3,5,80,127,1874722012
98,18,16,Jits_ISO_5,0,5,80,127,1875152228
98,18,16,Jits_ISO_5,1,1,48,56,1875181876
98,18,16,Jits_ISO_5,2,5,63,98,1875202572
98,18,16,Jits_ISO_5,3,5,56,103,1875242432
98,18,16,Jits_ISO_5,0,5,56,103,1875652048
98,18,16,Jits_ISO_5,1,1,48,63,1875678836
98,18,16,Jits_ISO_5,2,5,63,98,1875681792
98,18,16,Jits_ISO_5,3,5,80,127,1875752440
98,18,16,Jits_ISO_5,0,1,48,52,1876120080
98,18,16,Jits_ISO_5,1,5,56,103,1876151864
98,18,16,Jits_ISO_5,2,5,80,127,1876212104
98,18,16,Jits_ISO_5,3,5,63,98,1876241688
98,18,16,Jits_ISO_5,0,5,56,103,1876661720
98,18,16,Jits_ISO_5,1,1,48,58,1876666484
98,18,16,Jits_ISO_5,2,5,63,98,1876671832
98,18,16,Jits_ISO_5,3,5,80,127,1876711920
98,18,16,Jits_ISO_5,0,1,48,51,1877151176
98,18,16,Jits_ISO_5,1,5,63,98,1877162208
98,18,16,Jits_ISO_5,2,5,80,127,1877242076
98,18,16,Jits_ISO_5,3,5,56,103,1877251432
98,18,16,Jits_ISO_5,0,1,48,56,1877688280
98,18,16,Jits_ISO_5,1,5,63,98,1877712216
98,18,16,Jits_ISO_5,2,5,56,103,1877752224
98,18,16,Jits_ISO_5,3,5,80,127,1877755292
98,18,16,Jits_ISO_5,0,5,56,103,1878172020
98,18,16,Jits_ISO_5,1,5,63,98,1878182212
98,18,16,Jits_ISO_5,2,1,48,51,1878205484
98,18,16,Jits_ISO_5,3,5,80,127,1878222144
98,18,16,Jits_ISO_5,0,5,56,103,1878661424
98,18,16,Jits_ISO_5,1,5,63,98,1878664416
98,18,16,Jits_ISO_5,2,1,48,55,1878670768
98,18,16,Jits_ISO_5,3,5,80,127,1878681876
98,18,16,Jits_ISO_5,0,1,48,52,1879160456
98,18,16,Jits_ISO_5,1,5,80,127,1879171568
98,18,16,Jits_ISO_5,2,5,56,103,1879181764
98,18,16,Jits_ISO_5,3,5,63,98,1879252264
98,18,16,Jits_ISO_5,0,5,63,98,1879661940
98,18,16,Jits_ISO_5,1,1,48,59,1879672700
98,18,16,Jits_ISO_5,2,5,56,103,1879682692
98,18,16,Jits_ISO_5,3,5,80,127,1879762256
98,18,16,Jits_ISO_5,0,5,56,103,1880171864
98,18,16,Jits_ISO_5,1,1,48,55,1880174760
98,18,16,Jits_ISO_5,2,5,80,127,1880211944
98,18,16,Jits_ISO_5,3,5,63,98,1880222140
98,18,16,Jits_ISO_5,0,5,80,127,1880662392
98,18,16,Jits_ISO_5,1,5,63,98,1880692140
98,18,16,Jits_ISO_5,2,1,48,55,1880697056
98,18,16,Jits_ISO_5,3,5,56,103,1880732072
98,18,16,Jits_ISO_5,0,5,56,103,1881191736
98,18,16,Jits_ISO_5,1,1,48,51,1881209156
98,18,16,Jits_ISO_5,2,5,63,98,1881221776
98,18,16,Jits_ISO_5,3,5,80,127,1881271824
98,18,16,Jits_ISO_5,0,5,80,127,1881691632
98,18,16,Jits_ISO_5,1,1,48,49,1881722848
98,18,16,Jits_ISO_5,2,5,56,103,1881731564
98,18,16,Jits_ISO_5,3,5,63,98,1881741684
98,18,16,Jits_ISO_5,0,5,80,127,1882171876
98,18,16,Jits_ISO_5,1,5,63,98,1882211912
98,18,16,Jits_ISO_5,2,1,48,58,1882224024
98,18,16,Jits_ISO_5,3,5,56,103,1882272068
98,18,16,Jits_ISO_5,0,5,56,103,1882671624
98,18,16,Jits_ISO_5,1,5,80,127,1882681896
98,18,16,Jits_ISO_5,2,1,48,59,1882735600
98,18,16,Jits_ISO_5,3,5,63,98,1882761704
98,18,16,Jits_ISO_5,0,5,80,127,1883172196
98,18,16,Jits_ISO_5,1,1,48,53,1883219384
98,18,16,Jits_ISO_5,2,5,63,98,1883231556
98,18,16,Jits_ISO_5,3,5,56,103,1883262352
98,18,16,Jits_ISO_5,0,5,56,103,1883672020
98,18,16,Jits_ISO_5,1,1,48,60,1883728200
98,18,16,Jits_ISO_5,2,5,80,127,1883732352
98,18,16,Jits_ISO_5,3,5,63,98,1883772216
98,18,16,Jits_ISO_5,0,1,48,63,1884192640
98,18,16,Jits_ISO_5,1,5,56,103,1884221884
98,18,16,Jits_ISO_5,2,5,63,98,1884232228
98,18,16,Jits_ISO_5,3,5,80,127,1884235592
98,18,16,Jits_ISO_5,0,5,80,127,1884672244
98,18,16,Jits_ISO_5,1,1,48,67,1884698732
98,18,16,Jits_ISO_5,2,5,63,98,1884761640
98,18,16,Jits_ISO_5,3,5,56,103,1884771836
98,18,16,Jits_ISO_5,0,5,56,103,1885172124
98,18,16,Jits_ISO_5,1,5,63,98,1885175444
98,18,16,Jits_ISO_5,2,5,80,127,1885178564
98,18,16,Jits_ISO_5,3,1,48,54,1885222748
98,18,16,Jits_ISO_5,0,1,48,56,1885674296
98,18,16,Jits_ISO_5,1,5,80,127,1885692308
98,18,16,Jits_ISO_5,2,5,63,98,1885741536
98,18,16,Jits_ISO_5,3,5,56,103,1885772016
98,18,16,Jits_ISO_5,0,5,56,103,1886171496
98,18,16,Jits_ISO_5,1,1,48,56,1886175516
98,18,16,Jits_ISO_5,2,5,80,127,1886181612
98,18,16,Jits_ISO_5,3,5,63,98,1886252632
98,18,16,Jits_ISO_5,0,5,56,103,1886681584
98,18,16,Jits_ISO_5,1,1,48,55,1886687168
98,18,16,Jits_ISO_5,2,5,63,98,1886701888
98,18,16,Jits_ISO_5,3,5,80,127,1886762496
98,18,16,Jits_ISO_5,0,5,80,127,1887171892
98,18,16,Jits_ISO_5,1,1,48,58,1887191872
98,18,16,Jits_ISO_5,2,5,63,98,1887241568
98,18,16,Jits_ISO_5,3,5,56,103,1887261948
98,18,16,Jits_ISO_5,0,5,80,127,1887692020
98,18,16,Jits_ISO_5,1,5,56,103,1887702588
98,18,16,Jits_ISO_5,2,5,63,98,1887711736
98,18,16,Jits_ISO_5,3,1,48,58,1887725720
98,18,16,Jits_ISO_5,0,5,80,127,1888181504
98,18,16,Jits_ISO_5,1,5,56,103,1888202036
98,18,16,Jits_ISO_5,2,1,48,52,1888215936
98,18,16,Jits_ISO_5,3,5,63,98,1888271780
98,18,16,Jits_ISO_5,0,5,56,103,1888701700
98,18,16,Jits_ISO_5,1,1,48,46,1888717100
98,18,16,Jits_ISO_5,2,5,80,127,1888731664
98,18,16,Jits_ISO_5,3,5,63,98,1888751900
98,18,16,Jits_ISO_5,0,5,63,98,1889192452
98,18,16,Jits_ISO_5,1,1,48,48,1889196544
98,18,16,Jits_ISO_5,2,5,56,103,1889251640
98,18,16,Jits_ISO_5,3,5,80,127,1889282508
98,18,16,Jits_ISO_5,0,5,63,98,1889681848
98,18,16,Jits_ISO_5,1,5,80,127,1889685136
98,18,16,Jits_ISO_5,2,1,48,56,1889692460
98,18,16,Jits_ISO_5,3,5,56,103,1889771748
98,18,16,Jits_ISO_5,0,1,48,57,1890199752
98,18,16,Jits_ISO_5,1,5,56,103,1890201868
98,18,16,Jits_ISO_5,2,5,63,98,1890231616
98,18,16,Jits_ISO_5,3,5,80,127,1890271628
98,18,16,Jits_ISO_5,0,5,63,98,1890701684
98,18,16,Jits_ISO_5,1,1,48,57,1890713268
98,18,16,Jits_ISO_5,2,5,56,103,1890741616
98,18,16,Jits_ISO_5,3,5,80,127,1890762072
98,18,16,Jits_ISO_5,0,5,63,98,1891211756
98,18,16,Jits_ISO_5,1,1,48,54,1891239364
98,18,16,Jits_ISO_5,2,5,56,103,1891251688
98,18,16,Jits_ISO_5,3,5,80,127,1891261736
98,18,16,Jits_ISO_5,0,5,80,127,1891691864
98,18,16,Jits_ISO_5,1,1,48,55,1891723452
98,18,16,Jits_ISO_5,2,5,63,98,1891761684
98,18,16,Jits_ISO_5,3,5,56,103,1891782068
98,18,16,Jits_ISO_5,0,5,56,103,1892182544
98,18,16,Jits_ISO_5,1,5,80,127,1892201808
98,18,16,Jits_ISO_5,2,5,63,98,1892241744
98,18,16,Jits_ISO_5,3,1,48,51,1892255348
98,18,16,Jits_ISO_5,0,5,63,98,1892701696
98,18,16,Jits_ISO_5,1,5,80,127,1892722008
98,18,16,Jits_ISO_5,2,1,48,49,1892741084
98,18,16,Jits_ISO_5,3,5,56,103,1892761860
98,18,16,Jits_ISO_5,0,5,63,98,1893202476
98,18,16,Jits_ISO_5,1,5,56,103,1893221812
98,18,16,Jits_ISO_5,2,5,80,127,1893232156
98,18,16,Jits_ISO_5,3,1,48,52,1893238492
98,18,16,Jits_ISO_5,0,1,48,51,1893699216
98,18,16,Jits_ISO_5,1,5,80,127,1893702396
98,18,16,Jits_ISO_5,2,5,56,103,1893721684
98,18,16,Jits_ISO_5,3,5,63,98,1893752256
98,18,16,Jits_ISO_5,0,1,48,51,1894196928
98,18,16,Jits_ISO_5,1,5,56,103,1894272576
98,18,16,Jits_ISO_5,2,5,80,127,1894275716
98,18,16,Jits_ISO_5,3,5,63,98,1894291764
98,18,16,Jits_ISO_5,0,5,63,98,1894692200
98,18,16,Jits_ISO_5,1,5,56,103,1894721800
98,18,16,Jits_ISO_5,2,1,48,54,1894747788
98,18,16,Jits_ISO_5,3,5,80,127,1894782428
98,18,16,Jits_ISO_5,0,1,48,60,1895247960
98,18,16,Jits_ISO_5,1,5,63,98,1895271740
98,18,16,Jits_ISO_5,2,5,56,103,1895282088
98,18,16,Jits_ISO_5,3,5,80,127,1895292356
98,18,16,Jits_ISO_5,0,5,56,103,1895722388
98,18,16,Jits_ISO_5,1,5,80,127,1895752064
98,18,16,Jits_ISO_5,2,1,48,59,1895757424
98,18,16,Jits_ISO_5,3,5,63,98,1895762548
98,18,16,Jits_ISO_5,0,1,48,58,1896228812
98,18,16,Jits_ISO_5,1,5,63,98,1896262036
98,18,16,Jits_ISO_5,2,5,56,103,1896272332
98,18,16,Jits_ISO_5,3,5,80,127,1896291672
98,18,16,Jits_ISO_5,0,5,56,103,1896691956
98,18,16,Jits_ISO_5,1,1,48,58,1896740556
98,18,16,Jits_ISO_5,2,5,63,98,1896751440
98,18,16,Jits_ISO_5,3,5,80,127,1896754804
98,18,16,Jits_ISO_5,0,5,80,127,1897212296
98,18,16,Jits_ISO_5,1,5,56,103,1897221372
98,18,16,Jits_ISO_5,2,1,48,51,1897240300
98,18,16,Jits_ISO_5,3,5,63,98,1897292012
98,18,16,Jits_ISO_5,0,1,48,60,1897692612
98,18,16,Jits_ISO_5,1,5,80,127,1897701852
98,18,16,Jits_ISO_5,2,5,56,103,1897772576
98,18,16,Jits_ISO_5,3,5,63,98,1897781652
98,18,16,Jits_ISO_5,0,1,48,49,1898242044
98,18,16,Jits_ISO_5,1,5,63,98,1898243464
98,18,16,Jits_ISO_5,2,5,56,103,1898251492
98,18,16,Jits_ISO_5,3,5,80,127,1898272396
98,18,16,Jits_ISO_5,0,5,80,127,1898691816
98,18,16,Jits_ISO_5,1,5,63,98,1898752652
98,18,16,Jits_ISO_5,2,1,48,57,1898753692
98,18,16,Jits_ISO_5,3,5,56,103,1898792356
98,18,16,Jits_ISO_5,0,5,56,103,1899231572
98,18,16,Jits_ISO_5,1,5,63,98,1899241768
98,18,16,Jits_ISO_5,2,1,48,57,1899260328
98,18,16,Jits_ISO_5,3,5,80,127,1899281700
98,18,16,Jits_ISO_5,0,5,56,103,1899692512
98,18,16,Jits_ISO_5,1,5,80,127,1899722116
98,18,16,Jits_ISO_5,2,1,48,44,1899735496
98,18,16,Jits_ISO_5,3,5,63,98,1899772528
98,18,16,Jits_ISO_5,0,1,48,58,1900223468
98,18,16,Jits_ISO_5,1,5,56,103,1900242376
98,18,16,Jits_ISO_5,2,5,63,98,1900282312
98,18,16,Jits_ISO_5,3,5,80,127,1900285752
98,18,16,Jits_ISO_5,0,1,48,59,1900705968
98,18,16,Jits_ISO_5,1,5,56,103,1900742032
98,18,16,Jits_ISO_5,2,5,63,98,1900752448
98,18,16,Jits_ISO_5,3,5,80,127,1900771564
98,18,16,Jits_ISO_5,0,5,56,103,1901201684
98,18,16,Jits_ISO_5,1,5,80,127,1901204828
98,18,16,Jits_ISO_5,2,1,48,57,1901213272
98,18,16,Jits_ISO_5,3,5,63,98,1901241692
98,18,16,Jits_ISO_5,0,1,48,57,1901673364
98,18,16,Jits_ISO_5,1,5,63,98,1901741496
98,18,16,Jits_ISO_5,2,5,56,103,1901772056
98,18,16,Jits_ISO_5,3,5,80,127,1901791688
98,18,16,Jits_ISO_5,0,5,80,127,1902211420
98,18,16,Jits_ISO_5,1,5,56,103,1902221764
98,18,16,Jits_ISO_5,2,1,48,61,1902225484
98,18,16,Jits_ISO_5,3,5,63,98,1902231952
98,18,16,Jits_ISO_5,0,5,56,103,1902712508
98,18,16,Jits_ISO_5,1,1,48,52,1902716376
98,18,16,Jits_ISO_5,2,5,80,127,1902752288
98,18,16,Jits_ISO_5,3,5,63,98,1902781664
98,18,16,Jits_ISO_5,0,1,48,60,1903213652
98,18,16,Jits_ISO_5,1,5,63,98,1903222068
98,18,16,Jits_ISO_5,2,5,80,127,1903232340
98,18,16,Jits_ISO_5,3,5,56,103,1903241560
98,18,16,Jits_ISO_5,0,1,48,53,1903702324
98,18,16,Jits_ISO_5,1,5,56,103,1903703660
98,18,16,Jits_ISO_5,2,5,63,98,1903772444
98,18,16,Jits_ISO_5,3,5,80,127,1903782416
98,18,16,Jits_ISO_5,0,5,80,127,1904212472
98,18,16,Jits_ISO_5,1,1,48,57,1904214040
98,18,16,Jits_ISO_5,2,5,56,103,1904221540
98,18,16,Jits_ISO_5,3,5,63,98,1904271668
98,18,16,Jits_ISO_5,0,1,48,58,1904714784
98,18,16,Jits_ISO_5,1,5,80,127,1904722400
98,18,16,Jits_ISO_5,2,5,56,103,1904781816
98,18,16,Jits_ISO_5,3,5,63,98,1904812300
98,18,16,Jits_ISO_5,0,5,56,103,1905222188
98,18,16,Jits_ISO_5,1,5,80,127,1905225032
98,18,16,Jits_ISO_5,2,1,48,60,1905246008
98,18,16,Jits_ISO_5,3,5,63,98,1905261920
98,18,16,Jits_ISO_5,0,1,48,64,1905722944
98,18,16,Jits_ISO_5,1,5,56,103,1905752292
98,18,16,Jits_ISO_5,2,5,63,98,1905782412
98,18,16,Jits_ISO_5,3,5,80,127,1905792384
98,18,16,Jits_ISO_5,0,1,48,61,1906228888
98,18,16,Jits_ISO_5,1,5,63,98,1906262440
98,18,16,Jits_ISO_5,2,5,80,127,1906271588
98,18,16,Jits_ISO_5,3,5,56,103,1906281784
98,18,16,Jits_ISO_5,0,5,80,127,1906711884
98,18,16,Jits_ISO_5,1,1,48,61,1906758752
98,18,16,Jits_ISO_5,2,5,56,103,1906762224
98,18,16,Jits_ISO_5,3,5,63,98,1906765392
98,18,16,Jits_ISO_5,0,5,56,103,1907242340
98,18,16,Jits_ISO_5,1,1,48,63,1907244052
98,18,16,Jits_ISO_5,2,5,80,127,1907261668
98,18,16,Jits_ISO_5,3,5,63,98,1907272312
98,18,16,Jits_ISO_5,0,5,63,98,1907721708
98,18,16,Jits_ISO_5,1,1,48,62,1907729556
98,18,16,Jits_ISO_5,2,5,56,103,1907752348
98,18,16,Jits_ISO_5,3,5,80,127,1907771612
98,18,16,Jits_ISO_5,0,1,48,64,1908217880
98,18,16,Jits_ISO_5,1,5,56,103,1908231400
98,18,16,Jits_ISO_5,2,5,80,127,1908241820
98,18,16,Jits_ISO_5,3,5,63,98,1908312416
98,18,16,Jits_ISO_5,0,1,48,63,1908709984
98,18,16,Jits_ISO_5,1,5,63,98,1908722212
98,18,16,Jits_ISO_5,2,5,80,127,1908762076
98,18,16,Jits_ISO_5,3,5,56,103,1908801940
98,18,16,Jits_ISO_5,0,1,48,63,1909224696
98,18,16,Jits_ISO_5,1,5,56,103,1909231844
98,18,16,Jits_ISO_5,2,5,63,98,1909242188
98,18,16,Jits_ISO_5,3,5,80,127,1909261600
98,18,16,Jits_ISO_5,0,1,48,65,1909738884
98,18,16,Jits_ISO_5,1,5,63,98,1909771584
98,18,16,Jits_ISO_5,2,5,80,127,1909792340
98,18,16,Jits_ISO_5,3,5,56,103,1909811528
98,18,16,Jits_ISO_5,0,5,56,103,1910212212
98,18,16,Jits_ISO_5,1,1,48,63,1910265820
98,18,16,Jits_ISO_5,2,5,80,127,1910291776
98,18,16,Jits_ISO_5,3,5,63,98,1910302120
98,18,16,Jits_ISO_5,0,5,80,127,1910751600
98,18,16,Jits_ISO_5,1,1,48,63,1910753316
98,18,16,Jits_ISO_5,2,5,63,98,1910761936
98,18,16,Jits_ISO_5,3,5,56,103,1910791464
98,18,16,Jits_ISO_5,0,5,63,98,1911212316
98,18,16,Jits_ISO_5,1,1,48,60,1911247568
98,18,16,Jits_ISO_5,2,5,80,127,1911252324
98,18,16,Jits_ISO_5,3,5,56,103,1911311736
98,18,16,Jits_ISO_5,0,5,63,98,1911731456
98,18,16,Jits_ISO_5,1,1,48,61,1911743716
98,18,16,Jits_ISO_5,2,5,56,103,1911781652
98,18,16,Jits_ISO_5,3,5,80,127,1911811472
98,18,16,Jits_ISO_5,0,5,80,127,1912241456
98,18,16,Jits_ISO_5,1,5,63,98,1912251948
98,18,16,Jits_ISO_5,2,1,48,60,1912266156
98,18,16,Jits_ISO_5,3,5,56,103,1912322368
98,18,16,Jits_ISO_5,0,1,48,57,1912749104
98,18,16,Jits_ISO_5,1,5,80,127,1912811772
98,18,16,Jits_ISO_5,2,5,56,103,1912822192
98,18,16,Jits_ISO_5,3,5,63,98,1912825256
98,18,16,Jits_ISO_5,0,5,56,103,1913252176
98,18,16,Jits_ISO_5,1,1,48,63,1913262492
98,18,16,Jits_ISO_5,2,5,80,127,1913271656
98,18,16,Jits_ISO_5,3,5,63,98,1913282000
98,18,16,Jits_ISO_5,0,1,48,64,1913736528
98,18,16,Jits_ISO_5,1,5,63,98,1913762180
98,18,16,Jits_ISO_5,2,5,56,103,1913802120
98,18,16,Jits_ISO_5,3,5,80,127,1913821532
98,18,16,Jits_ISO_5,0,1,48,63,1914261924
98,18,16,Jits_ISO_5,1,5,63,98,1914263116
98,18,16,Jits_ISO_5,2,5,56,103,1914322232
98,18,16,Jits_ISO_5,3,5,80,127,1914325296
98,18,16,Jits_ISO_5,0,5,56,103,1914721652
98,18,16,Jits_ISO_5,1,5,80,127,1914742332
98,18,16,Jits_ISO_5,2,5,63,98,1914782416
98,18,16,Jits_ISO_5,3,1,48,61,1914788232
98,18,16,Jits_ISO_5,0,5,56,103,1915252188
98,18,16,Jits_ISO_5,1,1,48,62,1915255908
98,18,16,Jits_ISO_5,2,5,63,98,1915271520
98,18,16,Jits_ISO_5,3,5,80,127,1915281640
98,18,16,Jits_ISO_5,0,5,80,127,1915732304
98,18,16,Jits_ISO_5,1,1,48,59,1915752660
98,18,16,Jits_ISO_5,2,5,56,103,1915762048
98,18,16,Jits_ISO_5,3,5,63,98,1915802056
98,18,16,Jits_ISO_5,0,5,80,127,1916242316
98,18,16,Jits_ISO_5,1,5,56,103,1916261728
98,18,16,Jits_ISO_5,2,1,48,53,1916267312
98,18,16,Jits_ISO_5,3,5,63,98,1916322108
98,18,16,Jits_ISO_5,0,5,56,103,1916752180
98,18,16,Jits_ISO_5,1,1,48,59,1916771516
98,18,16,Jits_ISO_5,2,5,80,127,1916773004
98,18,16,Jits_ISO_5,3,5,63,98,1916832196
98,18,16,Jits_ISO_5,0,5,80,127,1917231528
98,18,16,Jits_ISO_5,1,5,56,103,1917241724
98,18,16,Jits_ISO_5,2,1,48,53,1917273932
98,18,16,Jits_ISO_5,3,5,63,98,1917281604
98,18,16,Jits_ISO_5,0,5,63,98,1917732324
98,18,16,Jits_ISO_5,1,1,48,55,1917755220
98,18,16,Jits_ISO_5,2,5,56,103,1917772180
98,18,16,Jits_ISO_5,3,5,80,127,1917775244
98,18,16,Jits_ISO_5,0,1,48,58,1918240608
98,18,16,Jits_ISO_5,1,5,63,98,1918252396
98,18,16,Jits_ISO_5,2,5,80,127,1918292360
98,18,16,Jits_ISO_5,3,5,56,103,1918322108
98,18,16,Jits_ISO_5,0,5,56,103,1918742024
98,18,16,Jits_ISO_5,1,5,63,98,1918752220
98,18,16,Jits_ISO_5,2,1,48,57,1918771076
98,18,16,Jits_ISO_5,3,5,80,127,1918781664
98,18,16,Jits_ISO_5,0,5,80,127,1919232480
98,18,16,Jits_ISO_5,1,1,48,56,1919261976
98,18,16,Jits_ISO_5,2,5,63,98,1919302152
98,18,16,Jits_ISO_5,3,5,56,103,1919312224
98,18,16,Jits_ISO_5,0,5,63,98,1919732224
98,18,16,Jits_ISO_5,1,1,48,58,1919756992
98,18,16,Jits_ISO_5,2,5,56,103,1919801676
98,18,16,Jits_ISO_5,3,5,80,127,1919812092
98,18,16,Jits_ISO_5,0,5,63,98,1920232184
98,18,16,Jits_ISO_5,1,1,48,53,1920249232
98,18,16,Jits_ISO_5,2,5,56,103,1920252264
98,18,16,Jits_ISO_5,3,5,80,127,1920292200
98,18,16,Jits_ISO_5,0,5,56,103,1920741728
98,18,16,Jits_ISO_5,1,1,48,59,1920747016
98,18,16,Jits_ISO_5,2,5,63,98,1920751992
98,18,16,Jits_ISO_5,3,5,80,127,1920831784
98,18,16,Jits_ISO_5,0,5,63,98,1921232336
98,18,16,Jits_ISO_5,1,1,48,59,1921249156
98,18,16,Jits_ISO_5,2,5,56,103,1921261928
98,18,16,Jits_ISO_5,3,5,80,127,1921302088
98,18,16,Jits_ISO_5,0,1,48,56,1921715772
98,18,16,Jits_ISO_5,1,5,56,103,1921732208
98,18,16,Jits_ISO_5,2,5,63,98,1921771996
98,18,16,Jits_ISO_5,3,5,80,127,1921811932
98,18,16,Jits_ISO_5,0,1,48,61,1922230208
98,18,16,Jits_ISO_5,1,5,80,127,1922231568
98,18,16,Jits_ISO_5,2,5,56,103,1922311512
98,18,16,Jits_ISO_5,3,5,63,98,1922321708
98,18,16,Jits_ISO_5,0,1,48,61,1922719576
98,18,16,Jits_ISO_5,1,5,56,103,1922772284
98,18,16,Jits_ISO_5,2,5,63,98,1922775276
98,18,16,Jits_ISO_5,3,5,80,127,1922781432
98,18,16,Jits_ISO_5,0,1,48,65,1923232128
98,18,16,Jits_ISO_5,1,5,56,103,1923301752
98,18,16,Jits_ISO_5,2,5,63,98,1923322136
98,18,16,Jits_ISO_5,3,5,80,127,1923331420
98,18,16,Jits_ISO_5,0,5,63,98,1923761488
98,18,16,Jits_ISO_5,1,5,80,127,1923771832
98,18,16,Jits_ISO_5,2,5,56,103,1923792364
98,18,16,Jits_ISO_5,3,1,48,57,1923794660
98,18,16,Jits_ISO_5,0,5,63,98,1924262192
98,18,16,Jits_ISO_5,1,1,48,65,1924283448
98,18,16,Jits_ISO_5,2,5,56,103,1924341972
98,18,16,Jits_ISO_5,3,5,80,127,1924345044
98,18,16,Jits_ISO_5,0,5,63,98,1924761996
98,18,16,Jits_ISO_5,1,5,56,103,1924781408
98,18,16,Jits_ISO_5,2,5,80,127,1924812128
98,18,16,Jits_ISO_5,3,1,48,59,1924826780
98,18,16,Jits_ISO_5,0,5,56,103,1925261876
98,18,16,Jits_ISO_5,1,5,63,98,1925282112
98,18,16,Jits_ISO_5,2,5,80,127,1925292384
98,18,16,Jits_ISO_5,3,1,48,60,1925304264
98,18,16,Jits_ISO_5,0,1,48,55,1925753052
98,18,16,Jits_ISO_5,1,5,56,103,1925792108
98,18,16,Jits_ISO_5,2,5,63,98,1925821856
98,18,16,Jits_ISO_5,3,5,80,127,1925825368
98,18,16,Jits_ISO_5,0,5,56,103,1926241648
98,18,16,Jits_ISO_5,1,1,48,58,1926257348
98,18,16,Jits_ISO_5,2,5,63,98,1926281728
98,18,16,Jits_ISO_5,3,5,80,127,1926341964
98,18,16,Jits_ISO_5,0,1,48,61,1926725900
98,18,16,Jits_ISO_5,1,5,56,103,1926761916
98,18,16,Jits_ISO_5,2,5,63,98,1926772184
98,18,16,Jits_ISO_5,3,5,80,127,1926831436
98,18,16,Jits_ISO_5,0,1,48,61,1927247680
98,18,16,Jits_ISO_5,1,5,56,103,1927271840
98,18,16,Jits_ISO_5,2,5,80,127,1927292296
98,18,16,Jits_ISO_5,3,5,63,98,1927321896
98,18,16,Jits_ISO_5,0,1,48,51,1927766444
98,18,16,Jits_ISO_5,1,5,80,127,1927771496
98,18,16,Jits_ISO_5,2,5,56,103,1927781916
98,18,16,Jits_ISO_5,3,5,63,98,1927802224
98,18,16,Jits_ISO_5,0,5,63,98,1928261992
98,18,16,Jits_ISO_5,1,1,48,50,1928269320
98,18,16,Jits_ISO_5,2,5,80,127,1928341876
98,18,16,Jits_ISO_5,3,5,56,103,1928352148
98,18,16,Jits_ISO_5,0,1,48,52,1928770764
98,18,16,Jits_ISO_5,1,5,80,127,1928821980
98,18,16,Jits_ISO_5,2,5,56,103,1928841688
98,18,16,Jits_ISO_5,3,5,63,98,1928844604
98,18,16,Jits_ISO_5,0,5,63,98,1929292268
98,18,16,Jits_ISO_5,1,5,80,127,1929295408
98,18,16,Jits_ISO_5,2,1,48,53,1929330980
98,18,16,Jits_ISO_5,3,5,56,103,1929351676
98,18,16,Jits_ISO_5,0,5,56,103,1929772344
98,18,16,Jits_ISO_5,1,5,80,127,1929781492
98,18,16,Jits_ISO_5,2,1,48,54,1929807848
98,18,16,Jits_ISO_5,3,5,63,98,1929821668
98,18,16,Jits_ISO_5,0,5,56,103,1930251560
98,18,16,Jits_ISO_5,1,5,63,98,1930312024
98,18,16,Jits_ISO_5,2,1,48,53,1930317112
98,18,16,Jits_ISO_5,3,5,80,127,1930322388
98,18,16,Jits_ISO_5,0,5,63,98,1930761568
98,18,16,Jits_ISO_5,1,5,80,127,1930801580
98,18,16,Jits_ISO_5,2,1,48,54,1930820140
98,18,16,Jits_ISO_5,3,5,56,103,1930841388
98,18,16,Jits_ISO_5,0,5,56,103,1931262276
98,18,16,Jits_ISO_5,1,1,48,58,1931327572
98,18,16,Jits_ISO_5,2,5,63,98,1931342232
98,18,16,Jits_ISO_5,3,5,80,127,1931345448
98,18,16,Jits_ISO_5,0,9999,9999,9999,1871949912
98,18,16,Jits_ISO_5,1,9999,9999,9999,1872449636
98,18,16,Jits_ISO_5,2,9999,9999,9999,1872949300
98,18,16,Jits_ISO_5,3,9999,9999,9999,1873450080
98,18,16,Jits_ISO_5,4,9999,9999,9999,1873949788
98,18,16,Jits_ISO_5,5,9999,9999,9999,1874449524
98,18,16,Jits_ISO_5,6,9999,9999,9999,1874949184
98,18,16,Jits_ISO_5,7,9999,9999,9999,1875449904
98,18,16,Jits_ISO_5,8,9999,9999,9999,1875949652
98,18,16,Jits_ISO_5,9,9999,9999,9999,1876449400
98,18,16,Jits_ISO_5,10,9999,9999,9999,1876950104
98,18,16,Jits_ISO_5,11,9999,9999,9999,1877460040
98,18,16,Jits_ISO_5,12,9999,9999,9999,1877959772
98,18,16,Jits_ISO_5,13,9999,9999,9999,1878459504
98,18,16,Jits_ISO_5,14,9999,9999,9999,1878959164
98,18,16,Jits_ISO_5,15,9999,9999,9999,1879459956
98,18,16,Jits_ISO_5,16,9999,9999,9999,1879959616
98,18,16,Jits_ISO_5,17,9999,9999,9999,1880459348
98,18,16,Jits_ISO_5,18,9999,9999,9999,1880960068
98,18,16,Jits_ISO_5,19,9999,9999,9999,1881470008
98,18,16,Jits_ISO_5,20,9999,9999,9999,1881969756
98,18,16,Jits_ISO_5,21,9999,9999,9999,1882469432
98,18,16,Jits_ISO_5,22,9999,9999,9999,1882969176
98,18,16,Jits_ISO_5,23,9999,9999,9999,1883469896
98,18,16,Jits_ISO_5,24,9999,9999,9999,1883969624
98,18,16,Jits_ISO_5,25,9999,9999,9999,1884469364
98,18,16,Jits_ISO_5,26,9999,9999,9999,1884970072
98,18,16,Jits_ISO_5,27,9999,9999,9999,1885469788
98,18,16,Jits_ISO_5,28,9999,9999,9999,1885969516
98,18,16,Jits_ISO_5,29,9999,9999,9999,1886469172
98,18,16,Jits_ISO_5,30,9999,9999,9999,1886969968
98,18,16,Jits_ISO_5,31,9999,9999,9999,1887469644
98,18,16,Jits_ISO_5,32,9999,9999,9999,1887969392
98,18,16,Jits_ISO_5,33,9999,9999,9999,1888470112
98,18,16,Jits_ISO_5,34,9999,9999,9999,1888980048
98,18,16,Jits_ISO_5,35,9999,9999,9999,1889479796
98,18,16,Jits_ISO_5,36,9999,9999,9999,1889979516
98,18,16,Jits_ISO_5,37,9999,9999,9999,1890479176
98,18,16,Jits_ISO_5,38,9999,9999,9999,1890979956
98,18,16,Jits_ISO_5,39,9999,9999,9999,1891479616
98,18,16,Jits_ISO_5,40,9999,9999,9999,1891979356
98,18,16,Jits_ISO_5,41,9999,9999,9999,1892480072
98,18,16,Jits_ISO_5,42,9999,9999,9999,1892990008
98,18,16,Jits_ISO_5,43,9999,9999,9999,1893489736
98,18,16,Jits_ISO_5,44,9999,9999,9999,1893989468
98,18,16,Jits_ISO_5,45,9999,9999,9999,1894489196
98,18,16,Jits_ISO_5,46,9999,9999,9999,1894989900
98,18,16,Jits_ISO_5,47,9999,9999,9999,1895489616
98,18,16,Jits_ISO_5,48,9999,9999,9999,1895989328
98,18,16,Jits_ISO_5,49,9999,9999,9999,1896490052
98,18,16,Jits_ISO_5,50,9999,9999,9999,1896989772
98,18,16,Jits_ISO_5,51,9999,9999,9999,1897489520
98,18,16,Jits_ISO_5,52,9999,9999,9999,1897989196
98,18,16,Jits_ISO_5,53,9999,9999,9999,1898489908
98,18,16,Jits_ISO_5,54,9999,9999,9999,1898989644
98,18,16,Jits_ISO_5,55,9999,9999,9999,1899489396
98,18,16,Jits_ISO_5,56,9999,9999,9999,1899990116
98,18,16,Jits_ISO_5,57,9999,9999,9999,1900500048
98,18,16,Jits_ISO_5,58,9999,9999,9999,1900999784
98,18,16,Jits_ISO_5,59,9999,9999,9999,1901499500
98,18,16,Jits_ISO_5,60,9999,9999,9999,1901999176
98,18,16,Jits_ISO_5,61,9999,9999,9999,1902499952
98,18,16,Jits_ISO_5,62,9999,9999,9999,1902999624
98,18,16,Jits_ISO_5,63,9999,9999,9999,1903499372
98,18,16,Jits_ISO_5,64,9999,9999,9999,1904000080
98,18,16,Jits_ISO_5,65,9999,9999,9999,1904510072
98,18,16,Jits_ISO_5,66,9999,9999,9999,1905009748
98,18,16,Jits_ISO_5,67,9999,9999,9999,1905509468
98,18,16,Jits_ISO_5,68,9999,9999,9999,1906009148
98,18,16,Jits_ISO_5,69,9999,9999,9999,1906509928
98,18,16,Jits_ISO_5,70,9999,9999,9999,1907009624
98,18,16,Jits_ISO_5,71,9999,9999,9999,1907509300
98,18,16,Jits_ISO_5,72,9999,9999,9999,1908010092
98,18,16,Jits_ISO_5,73,9999,9999,9999,1908509752
98,18,16,Jits_ISO_5,74,9999,9999,9999,1909009488
98,18,16,Jits_ISO_5,75,9999,9999,9999,1909509220
98,18,16,Jits_ISO_5,76,9999,9999,9999,1910009932
98,18,16,Jits_ISO_5,77,9999,9999,9999,1910509668
98,18,16,Jits_ISO_5,78,9999,9999,9999,1911009344
98,18,16,Jits_ISO_5,79,9999,9999,9999,1911510072
98,18,16,Jits_ISO_5,80,9999,9999,9999,1912020068
98,18,16,Jits_ISO_5,81,9999,9999,9999,1912519804
98,18,16,Jits_ISO_5,82,9999,9999,9999,1913019476
98,18,16,Jits_ISO_5,83,9999,9999,9999,1913519212
98,18,16,Jits_ISO_5,84,9999,9999,9999,1914019936
98,18,16,Jits_ISO_5,85,9999,9999,9999,1914519668
98,18,16,Jits_ISO_5,86,9999,9999,9999,1915019324
98,18,16,Jits_ISO_5,87,9999,9999,9999,1915520120
98,18,16,Jits_ISO_5,88,9999,9999,9999,1916030056
98,18,16,Jits_ISO_5,89,9999,9999,9999,1916529728
98,18,16,Jits_ISO_5,90,9999,9999,9999,1917029480
98,18,16,Jits_ISO_5,91,9999,9999,9999,1917529156
98,18,16,Jits_ISO_5,92,9999,9999,9999,1918029916
98,18,16,Jits_ISO_5,93,9999,9999,9999,1918529628
98,18,16,Jits_ISO_5,94,9999,9999,9999,1919029360
98,18,16,Jits_ISO_5,95,9999,9999,9999,1919530080
98,18,16,Jits_ISO_5,96,9999,9999,9999,1920029756
98,18,16,Jits_ISO_5,97,9999,9999,9999,1920529488
98,18,16,Jits_ISO_5,98,9999,9999,9999,1921029216
98,18,16,Jits_ISO_5,99,9999,9999,9999,1921529936
98,18,16,Jits_ISO_5,100,9999,9999,9999,1922029668
98,18,16,Jits_ISO_5,101,9999,9999,9999,1922529332
98,18,16,Jits_ISO_5,102,9999,9999,9999,1923030100
98,18,16,Jits_ISO_5,103,9999,9999,9999,1923540028
98,18,16,Jits_ISO_5,104,9999,9999,9999,1924039760
98,18,16,Jits_ISO_5,105,9999,9999,9999,1924539488
98,18,16,Jits_ISO_5,106,9999,9999,9999,1925039220
98,18,16,Jits_ISO_5,107,9999,9999,9999,1925539924
98,18,16,Jits_ISO_5,108,9999,9999,9999,1926039664
98,18,16,Jits_ISO_5,109,9999,9999,9999,1926539324
98,18,16,Jits_ISO_5,110,9999,9999,9999,1927040120
98,18,16,Jits_ISO_5,111,9999,9999,9999,1927550040
98,18,16,Jits_ISO_5,112,9999,9999,9999,1928049772
98,18,16,Jits_ISO_5,113,9999,9999,9999,1928549432
98,18,16,Jits_ISO_5,114,9999,9999,9999,1929049160
98,18,16,Jits_ISO_5,115,9999,9999,9999,1929549932
98,18,16,Jits_ISO_5,116,9999,9999,9999,1930049640
98,18,16,Jits_ISO_5,117,9999,9999,9999,1930549312
98,18,16,Jits_ISO_5,118,9999,9999,9999,1931050104
98,18,16,Jits_ISO_5,119,9999,9999,9999,1931549756
98,19,7,Jits_ISO_8,0,5,56,103,1940900144
98,19,7,Jits_ISO_8,1,5,63,98,1940903312
98,19,7,Jits_ISO_8,2,5,80,127,1940906436
98,19,7,Jits_ISO_8,0,5,56,103,1941699836
98,19,7,Jits_ISO_8,1,5,63,98,1941702940
98,19,7,Jits_ISO_8,2,5,80,127,1941706064
98,19,7,Jits_ISO_8,0,5,80,127,1942440220
98,19,7,Jits_ISO_8,1,5,63,98,1942530356
98,19,7,Jits_ISO_8,2,5,56,103,1942540100
98,19,7,Jits_ISO_8,3,1,48,91,1942557072
98,19,7,Jits_ISO_8,0,5,56,103,1943259648
98,19,7,Jits_ISO_8,1,5,63,98,1943270068
98,19,7,Jits_ISO_8,2,1,48,74,1943320616
98,19,7,Jits_ISO_8,3,5,80,127,1943359972
98,19,7,Jits_ISO_8,0,5,63,98,1944029776
98,19,7,Jits_ISO_8,1,5,80,127,1944060200
98,19,7,Jits_ISO_8,2,1,48,71,1944071268
98,19,7,Jits_ISO_8,3,5,56,103,1944089872
98,19,7,Jits_ISO_8,0,1,48,63,1944786284
98,19,7,Jits_ISO_8,1,5,56,103,1944830296
98,19,7,Jits_ISO_8,2,5,80,127,1944929736
98,19,7,Jits_ISO_8,3,5,63,98,1944979788
98,19,7,Jits_ISO_8,0,1,48,58,1945605028
98,19,7,Jits_ISO_8,1,5,56,103,1945630012
98,19,7,Jits_ISO_8,2,5,80,127,1945680164
98,19,7,Jits_ISO_8,3,5,63,98,1945720236
98,19,7,Jits_ISO_8,0,1,48,58,1946426832
98,19,7,Jits_ISO_8,1,5,80,127,1946459636
98,19,7,Jits_ISO_8,2,5,63,98,1946490284
98,19,7,Jits_ISO_8,3,5,56,103,1946559800
98,19,7,Jits_ISO_8,0,1,48,61,1947240964
98,19,7,Jits_ISO_8,1,5,63,98,1947289840
98,19,7,Jits_ISO_8,2,5,56,103,1947319592
98,19,7,Jits_ISO_8,3,5,80,127,1947380188
98,19,7,Jits_ISO_8,0,1,48,64,1948017832
98,19,7,Jits_ISO_8,1,5,56,103,1948030284
98,19,7,Jits_ISO_8,2,5,80,127,1948033500
98,19,7,Jits_ISO_8,3,5,63,98,1948150144
98,19,7,Jits_ISO_8,0,1,48,57,1948798120
98,19,7,Jits_ISO_8,1,5,56,103,1948909836
98,19,7,Jits_ISO_8,2,5,80,127,1948949852
98,19,7,Jits_ISO_8,3,5,63,98,1948960048
98,19,7,Jits_ISO_8,0,5,56,103,1949669716
98,19,7,Jits_ISO_8,1,5,80,127,1949690248
98,19,7,Jits_ISO_8,2,1,48,64,1949707144
98,19,7,Jits_ISO_8,3,5,63,98,1949770112
98,19,7,Jits_ISO_8,0,5,80,127,1950460228
98,19,7,Jits_ISO_8,1,1,48,77,1950482976
98,19,7,Jits_ISO_8,2,5,56,103,1950559672
98,19,7,Jits_ISO_8,3,5,63,98,1950569940
98,19,7,Jits_ISO_8,0,5,63,98,1951230508
98,19,7,Jits_ISO_8,1,5,80,127,1951289852
98,19,7,Jits_ISO_8,2,1,48,74,1951297780
98,19,7,Jits_ISO_8,3,5,56,103,1951299968
98,19,7,Jits_ISO_8,0,5,56,103,1952030140
98,19,7,Jits_ISO_8,1,1,48,64,1952053416
98,19,7,Jits_ISO_8,2,5,63,98,1952099840
98,19,7,Jits_ISO_8,3,5,80,127,1952103204
98,19,7,Jits_ISO_8,0,1,48,62,1952855388
98,19,7,Jits_ISO_8,1,5,63,98,1952859764
98,19,7,Jits_ISO_8,2,5,56,103,1952909668
98,19,7,Jits_ISO_8,3,5,80,127,1952912736
98,19,7,Jits_ISO_8,0,5,56,103,1953620432
98,19,7,Jits_ISO_8,1,5,80,127,1953623496
98,19,7,Jits_ISO_8,2,1,48,64,1953662656
98,19,7,Jits_ISO_8,3,5,63,98,1953709360
98,19,7,Jits_ISO_8,0,1,48,65,1954432100
98,19,7,Jits_ISO_8,1,5,63,98,1954459920
98,19,7,Jits_ISO_8,2,5,56,103,1954550264
98,19,7,Jits_ISO_8,3,5,80,127,1954579720
98,19,7,Jits_ISO_8,0,5,56,103,1955249528
98,19,7,Jits_ISO_8,1,1,48,67,1955272572
98,19,7,Jits_ISO_8,2,5,63,98,1955349848
98,19,7,Jits_ISO_8,3,5,80,127,1955379580
98,19,7,Jits_ISO_8,0,5,63,98,1956069636
98,19,7,Jits_ISO_8,1,5,56,103,1956079984
98,19,7,Jits_ISO_8,2,1,48,61,1956093512
98,19,7,Jits_ISO_8,3,5,80,127,1956170180
98,19,7,Jits_ISO_8,0,5,63,98,1956890000
98,19,7,Jits_ISO_8,1,1,48,62,1956893720
98,19,7,Jits_ISO_8,2,5,56,103,1956969888
98,19,7,Jits_ISO_8,3,5,80,127,1956973032
98,19,7,Jits_ISO_8,0,5,80,127,1957649776
98,19,7,Jits_ISO_8,1,5,63,98,1957670384
98,19,7,Jits_ISO_8,2,1,48,65,1957716748
98,19,7,Jits_ISO_8,3,5,56,103,1957729596
98,19,7,Jits_ISO_8,0,1,48,54,1958457168
98,19,7,Jits_ISO_8,1,5,56,103,1958489672
98,19,7,Jits_ISO_8,2,5,63,98,1958510056
98,19,7,Jits_ISO_8,3,5,80,127,1958513492
98,19,7,Jits_ISO_8,0,5,63,98,1959229864
98,19,7,Jits_ISO_8,1,1,48,69,1959239208
98,19,7,Jits_ISO_8,2,5,80,127,1959309832
98,19,7,Jits_ISO_8,3,5,56,103,1959320100
98,19,7,Jits_ISO_8,0,1,48,71,1960038260
98,19,7,Jits_ISO_8,1,5,63,98,1960049968
98,19,7,Jits_ISO_8,2,5,56,103,1960069456
98,19,7,Jits_ISO_8,3,5,80,127,1960119808
98,19,7,Jits_ISO_8,0,1,48,77,1960830472
98,19,7,Jits_ISO_8,1,5,80,127,1960849752
98,19,7,Jits_ISO_8,2,5,63,98,1960889692
98,19,7,Jits_ISO_8,3,5,56,103,1960910076
98,19,7,Jits_ISO_8,0,1,48,67,1961653480
98,19,7,Jits_ISO_8,1,5,56,103,1961689620
98,19,7,Jits_ISO_8,2,5,63,98,1961699816
98,19,7,Jits_ISO_8,3,5,80,127,1961720052
98,19,7,Jits_ISO_8,0,5,56,103,1962419432
98,19,7,Jits_ISO_8,1,1,48,60,1962467120
98,19,7,Jits_ISO_8,2,5,63,98,1962509636
98,19,7,Jits_ISO_8,3,5,80,127,1962570084
98,19,7,Jits_ISO_8,0,5,80,127,1963249924
98,19,7,Jits_ISO_8,1,5,56,103,1963260492
98,19,7,Jits_ISO_8,2,1,48,57,1963274024
98,19,7,Jits_ISO_8,3,5,63,98,1963329868
98,19,7,Jits_ISO_8,0,1,48,65,1964047896
98,19,7,Jits_ISO_8,1,5,63,98,1964079460
98,19,7,Jits_ISO_8,2,5,80,127,1964169456
98,19,7,Jits_ISO_8,3,5,56,103,1964180024
98,19,7,Jits_ISO_8,0,5,63,98,1964819844
98,19,7,Jits_ISO_8,1,5,80,127,1964869896
98,19,7,Jits_ISO_8,2,1,48,59,1964893644
98,19,7,Jits_ISO_8,3,5,56,103,1964930380
98,19,7,Jits_ISO_8,0,1,48,65,1965628284
98,19,7,Jits_ISO_8,1,5,56,103,1965650508
98,19,7,Jits_ISO_8,2,5,80,127,1965699592
98,19,7,Jits_ISO_8,3,5,63,98,1965719900
98,19,7,Jits_ISO_8,0,5,56,103,1966420408
98,19,7,Jits_ISO_8,1,1,48,62,1966423452
98,19,7,Jits_ISO_8,2,5,80,127,1966479596
98,19,7,Jits_ISO_8,3,5,63,98,1966550308
98,19,7,Jits_ISO_8,0,1,48,57,1967205248
98,19,7,Jits_ISO_8,1,5,56,103,1967220268
98,19,7,Jits_ISO_8,2,5,80,127,1967249648
98,19,7,Jits_ISO_8,3,5,63,98,1967279472
98,19,7,Jits_ISO_8,0,1,48,51,1968008036
98,19,7,Jits_ISO_8,1,5,56,103,1968059756
98,19,7,Jits_ISO_8,2,5,80,127,1968080364
98,19,7,Jits_ISO_8,3,5,63,98,1968139544
98,19,7,Jits_ISO_8,0,1,48,54,1968852468
98,19,7,Jits_ISO_8,1,5,80,127,1968940456
98,19,7,Jits_ISO_8,2,5,56,103,1968949664
98,19,7,Jits_ISO_8,3,5,63,98,1968959708
98,19,7,Jits_ISO_8,0,5,56,103,1969700168
98,19,7,Jits_ISO_8,1,1,48,53,1969708912
98,19,7,Jits_ISO_8,2,5,80,127,1969740276
98,19,7,Jits_ISO_8,3,5,63,98,1969769800
98,19,7,Jits_ISO_8,0,5,56,103,1970470448
98,19,7,Jits_ISO_8,1,5,63,98,1970499904
98,19,7,Jits_ISO_8,2,5,80,127,1970539940
98,19,7,Jits_ISO_8,3,1,48,65,1970549884
98,19,7,Jits_ISO_8,0,5,80,127,1971219828
98,19,7,Jits_ISO_8,1,1,48,59,1971269884
98,19,7,Jits_ISO_8,2,5,63,98,1971271220
98,19,7,Jits_ISO_8,3,5,56,103,1971289388
98,19,7,Jits_ISO_8,0,1,48,62,1972039368
98,19,7,Jits_ISO_8,1,5,56,103,1972050280
98,19,7,Jits_ISO_8,2,5,80,127,1972119892
98,19,7,Jits_ISO_8,3,5,63,98,1972180340
98,19,7,Jits_ISO_8,0,1,48,62,1972837540
98,19,7,Jits_ISO_8,1,5,80,127,1972850288
98,19,7,Jits_ISO_8,2,5,63,98,1972940336
98,19,7,Jits_ISO_8,3,5,56,103,1972959524
98,19,7,Jits_ISO_8,0,5,63,98,1973670388
98,19,7,Jits_ISO_8,1,5,56,103,1973689580
98,19,7,Jits_ISO_8,2,1,48,62,1973695692
98,19,7,Jits_ISO_8,3,5,80,127,1973729584
98,19,7,Jits_ISO_8,0,5,80,127,1974430092
98,19,7,Jits_ISO_8,1,5,63,98,1974449652
98,19,7,Jits_ISO_8,2,1,48,55,1974463256
98,19,7,Jits_ISO_8,3,5,56,103,1974530416
98,19,7,Jits_ISO_8,0,5,63,98,1975219472
98,19,7,Jits_ISO_8,1,1,48,54,1975259980
98,19,7,Jits_ISO_8,2,5,56,103,1975330276
98,19,7,Jits_ISO_8,3,5,80,127,1975333344
98,19,7,Jits_ISO_8,0,5,63,98,1976039848
98,19,7,Jits_ISO_8,1,1,48,65,1976046860
98,19,7,Jits_ISO_8,2,5,56,103,1976050416
98,19,7,Jits_ISO_8,3,5,80,127,1976053400
98,19,7,Jits_ISO_8,0,5,56,103,1976820288
98,19,7,Jits_ISO_8,1,1,48,64,1976855096
98,19,7,Jits_ISO_8,2,5,80,127,1976939964
98,19,7,Jits_ISO_8,3,5,63,98,1976979960
98,19,7,Jits_ISO_8,0,5,56,103,1977640244
98,19,7,Jits_ISO_8,1,1,48,67,1977651388
98,19,7,Jits_ISO_8,2,5,80,127,1977720136
98,19,7,Jits_ISO_8,3,5,63,98,1977739696
98,19,7,Jits_ISO_8,0,5,56,103,1978440040
98,19,7,Jits_ISO_8,1,1,48,57,1978464232
98,19,7,Jits_ISO_8,2,5,63,98,1978549748
98,19,7,Jits_ISO_8,3,5,80,127,1978553188
98,19,7,Jits_ISO_8,0,5,56,103,1979269528
98,19,7,Jits_ISO_8,1,5,80,127,1979300400
98,19,7,Jits_ISO_8,2,1,48,53,1979301368
98,19,7,Jits_ISO_8,3,5,63,98,1979319656
98,19,7,Jits_ISO_8,0,5,63,98,1980049920
98,19,7,Jits_ISO_8,1,5,56,103,1980060264
98,19,7,Jits_ISO_8,2,5,80,127,1980070236
98,19,7,Jits_ISO_8,3,1,48,67,1980082276
98,19,7,Jits_ISO_8,0,1,48,56,1980828092
98,19,7,Jits_ISO_8,1,5,80,127,1980840248
98,19,7,Jits_ISO_8,2,5,56,103,1980889408
98,19,7,Jits_ISO_8,3,5,63,98,1980930304
98,19,7,Jits_ISO_8,0,1,48,67,1981613408
98,19,7,Jits_ISO_8,1,5,80,127,1981659592
98,19,7,Jits_ISO_8,2,5,63,98,1981680272
98,19,7,Jits_ISO_8,3,5,56,103,1981730308
98,19,7,Jits_ISO_8,0,5,80,127,1982469420
98,19,7,Jits_ISO_8,1,1,48,69,1982472764
98,19,7,Jits_ISO_8,2,5,56,103,1982500284
98,19,7,Jits_ISO_8,3,5,63,98,1982569828
98,19,7,Jits_ISO_8,0,1,48,64,1983282524
98,19,7,Jits_ISO_8,1,5,56,103,1983320560
98,19,7,Jits_ISO_8,2,5,80,127,1983329708
98,19,7,Jits_ISO_8,3,5,63,98,1983369500
98,19,7,Jits_ISO_8,0,5,56,103,1984030124
98,19,7,Jits_ISO_8,1,5,63,98,1984049388
98,19,7,Jits_ISO_8,2,1,48,59,1984102204
98,19,7,Jits_ISO_8,3,5,80,127,1984120284
98,19,7,Jits_ISO_8,0,1,48,59,1984837764
98,19,7,Jits_ISO_8,1,5,63,98,1984850388
98,19,7,Jits_ISO_8,2,5,80,127,1984909588
98,19,7,Jits_ISO_8,3,5,56,103,1984930344
98,19,7,Jits_ISO_8,0,1,48,70,1985634932
98,19,7,Jits_ISO_8,1,5,80,127,1985639760
98,19,7,Jits_ISO_8,2,5,56,103,1985669512
98,19,7,Jits_ISO_8,3,5,63,98,1985700160
98,19,7,Jits_ISO_8,0,1,48,64,1986423256
98,19,7,Jits_ISO_8,1,5,56,103,1986439544
98,19,7,Jits_ISO_8,2,5,63,98,1986500236
98,19,7,Jits_ISO_8,3,5,80,127,1986560464
98,19,7,Jits_ISO_8,0,1,48,60,1987205356
98,19,7,Jits_ISO_8,1,5,80,127,1987259708
98,19,7,Jits_ISO_8,2,5,56,103,1987280244
98,19,7,Jits_ISO_8,3,5,63,98,1987349832
98,19,7,Jits_ISO_8,0,1,48,66,1988021176
98,19,7,Jits_ISO_8,1,5,80,127,1988059488
98,19,7,Jits_ISO_8,2,5,63,98,1988080024
98,19,7,Jits_ISO_8,3,5,56,103,1988109700
98,19,7,Jits_ISO_8,0,5,80,127,1988850136
98,19,7,Jits_ISO_8,1,5,63,98,1988869472
98,19,7,Jits_ISO_8,2,1,48,64,1988889452
98,19,7,Jits_ISO_8,3,5,56,103,1988930152
98,19,7,Jits_ISO_8,0,5,80,127,1989649932
98,19,7,Jits_ISO_8,1,1,48,73,1989705220
98,19,7,Jits_ISO_8,2,5,56,103,1989750204
98,19,7,Jits_ISO_8,3,5,63,98,1989780028
98,19,7,Jits_ISO_8,0,5,63,98,1990440296
98,19,7,Jits_ISO_8,1,5,80,127,1990489404
98,19,7,Jits_ISO_8,2,5,56,103,1990510160
98,19,7,Jits_ISO_8,3,1,48,66,1990518308
98,19,7,Jits_ISO_8,0,1,48,62,1991266588
98,19,7,Jits_ISO_8,1,5,80,127,1991279956
98,19,7,Jits_ISO_8,2,5,56,103,1991309632
98,19,7,Jits_ISO_8,3,5,63,98,1991312924
98,19,7,Jits_ISO_8,0,1,48,63,1992069968
98,19,7,Jits_ISO_8,1,5,63,98,1992109332
98,19,7,Jits_ISO_8,2,5,56,103,1992150320
98,19,7,Jits_ISO_8,3,5,80,127,1992170988
98,19,7,Jits_ISO_8,0,5,80,127,1992849864
98,19,7,Jits_ISO_8,1,1,48,64,1992894860
98,19,7,Jits_ISO_8,2,5,63,98,1992929580
98,19,7,Jits_ISO_8,3,5,56,103,1992969520
98,19,7,Jits_ISO_8,0,5,63,98,1993669968
98,19,7,Jits_ISO_8,1,1,48,63,1993690020
98,19,7,Jits_ISO_8,2,5,80,127,1993750132
98,19,7,Jits_ISO_8,3,5,56,103,1993770368
98,19,7,Jits_ISO_8,0,1,48,58,1994484404
98,19,7,Jits_ISO_8,1,5,56,103,1994509536
98,19,7,Jits_ISO_8,2,5,63,98,1994520176
98,19,7,Jits_ISO_8,3,5,80,127,1994560040
98,19,7,Jits_ISO_8,0,5,56,103,1995229536
98,19,7,Jits_ISO_8,1,5,80,127,1995232676
98,19,7,Jits_ISO_8,2,1,48,66,1995267500
98,19,7,Jits_ISO_8,3,5,63,98,1995370012
98,19,7,Jits_ISO_8,0,1,48,61,1996019128
98,19,7,Jits_ISO_8,1,5,56,103,1996020776
98,19,7,Jits_ISO_8,2,5,63,98,1996110336
98,19,7,Jits_ISO_8,3,5,80,127,1996180004
98,19,7,Jits_ISO_8,0,1,48,61,1996820540
98,19,7,Jits_ISO_8,1,5,63,98,1996899632
98,19,7,Jits_ISO_8,2,5,80,127,1996903292
98,19,7,Jits_ISO_8,3,5,56,103,1996960156
98,19,7,Jits_ISO_8,0,1,48,63,1997656816
98,19,7,Jits_ISO_8,1,5,80,127,1997740320
98,19,7,Jits_ISO_8,2,5,56,103,1997760088
98,19,7,Jits_ISO_8,3,5,63,98,1997770212
98,19,7,Jits_ISO_8,0,5,56,103,1998450060
98,19,7,Jits_ISO_8,1,5,63,98,1998460256
98,19,7,Jits_ISO_8,2,1,48,64,1998511252
98,19,7,Jits_ISO_8,3,5,80,127,1998529856
98,19,7,Jits_ISO_8,0,1,48,61,1999232960
98,19,7,Jits_ISO_8,1,5,80,127,1999249924
98,19,7,Jits_ISO_8,2,5,56,103,1999300052
98,19,7,Jits_ISO_8,3,5,63,98,1999350164
98,19,7,Jits_ISO_8,0,1,48,64,2000060168
98,19,7,Jits_ISO_8,1,5,56,103,2000130548
98,19,7,Jits_ISO_8,2,5,63,98,2000139624
98,19,7,Jits_ISO_8,3,5,80,127,2000179544
98,19,7,Jits_ISO_8,0,5,56,103,2000869732
98,19,7,Jits_ISO_8,1,5,63,98,2000909748
98,19,7,Jits_ISO_8,2,1,48,55,2000911984
98,19,7,Jits_ISO_8,3,5,80,127,2000960016
98,19,7,Jits_ISO_8,0,5,80,127,2001629524
98,19,7,Jits_ISO_8,1,5,56,103,2001679804
98,19,7,Jits_ISO_8,2,1,48,57,2001684340
98,19,7,Jits_ISO_8,3,5,63,98,2001700180
98,19,7,Jits_ISO_8,0,1,48,57,2002421044
98,19,7,Jits_ISO_8,1,5,80,127,2002439576
98,19,7,Jits_ISO_8,2,5,63,98,2002499968
98,19,7,Jits_ISO_8,3,5,56,103,2002580220
98,19,7,Jits_ISO_8,0,5,80,127,2003220032
98,19,7,Jits_ISO_8,1,1,48,63,2003254396
98,19,7,Jits_ISO_8,2,5,56,103,2003259892
98,19,7,Jits_ISO_8,3,5,63,98,2003280228
98,19,7,Jits_ISO_8,0,1,48,59,2004050988
98,19,7,Jits_ISO_8,1,5,56,103,2004069816
98,19,7,Jits_ISO_8,2,5,80,127,2004080088
98,19,7,Jits_ISO_8,3,5,63,98,2004119952
98,19,7,Jits_ISO_8,0,1,48,62,2004888984
98,19,7,Jits_ISO_8,1,5,56,103,2004940028
98,19,7,Jits_ISO_8,2,5,63,98,2004980040
98,19,7,Jits_ISO_8,3,5,80,127,2004983408
98,19,7,Jits_ISO_8,0,5,63,98,2005630280
98,19,7,Jits_ISO_8,1,5,80,127,2005670296
98,19,7,Jits_ISO_8,2,1,48,56,2005696860
98,19,7,Jits_ISO_8,3,5,56,103,2005739968
98,19,7,Jits_ISO_8,0,5,63,98,2006419800
98,19,7,Jits_ISO_8,1,1,48,59,2006474912
98,19,7,Jits_ISO_8,2,5,56,103,2006499812
98,19,7,Jits_ISO_8,3,5,80,127,2006559980
98,19,7,Jits_ISO_8,0,5,80,127,2007229772
98,19,7,Jits_ISO_8,1,1,48,56,2007247640
98,19,7,Jits_ISO_8,2,5,63,98,2007280044
98,19,7,Jits_ISO_8,3,5,56,103,2007309792
98,19,7,Jits_ISO_8,0,5,56,103,2008020276
98,19,7,Jits_ISO_8,1,1,48,59,2008053136
98,19,7,Jits_ISO_8,2,5,63,98,2008069648
98,19,7,Jits_ISO_8,3,5,80,127,2008079844
98,19,7,Jits_ISO_8,0,1,48,57,2008817704
98,19,7,Jits_ISO_8,1,5,56,103,2008830252
98,19,7,Jits_ISO_8,2,5,63,98,2008939876
98,19,7,Jits_ISO_8,3,5,80,127,2008960484
98,19,7,Jits_ISO_8,0,5,63,98,2009629968
98,19,7,Jits_ISO_8,1,1,48,53,2009645296
98,19,7,Jits_ISO_8,2,5,80,127,2009680264
98,19,7,Jits_ISO_8,3,5,56,103,2009770304
98,19,7,Jits_ISO_8,0,5,63,98,2010419860
98,19,7,Jits_ISO_8,1,5,80,127,2010450384
98,19,7,Jits_ISO_8,2,1,48,61,2010476800
98,19,7,Jits_ISO_8,3,5,56,103,2010540512
98,19,7,Jits_ISO_8,0,5,63,98,2011220188
98,19,7,Jits_ISO_8,1,1,48,59,2011227976
98,19,7,Jits_ISO_8,2,5,56,103,2011229632
98,19,7,Jits_ISO_8,3,5,80,127,2011329864
98,19,7,Jits_ISO_8,0,1,48,57,2011997840
98,19,7,Jits_ISO_8,1,5,63,98,2012120720
98,19,7,Jits_ISO_8,2,5,80,127,2012150096
98,19,7,Jits_ISO_8,3,5,56,103,2012179772
98,19,7,Jits_ISO_8,0,1,48,57,2012880716
98,19,7,Jits_ISO_8,1,5,80,127,2012939632
98,19,7,Jits_ISO_8,2,5,63,98,2012949828
98,19,7,Jits_ISO_8,3,5,56,103,2012979788
98,19,7,Jits_ISO_8,0,5,80,127,2013639936
98,19,7,Jits_ISO_8,1,5,63,98,2013659868
98,19,7,Jits_ISO_8,2,1,48,59,2013706060
98,19,7,Jits_ISO_8,3,5,56,103,2013709764
98,19,7,Jits_ISO_8,0,1,48,59,2014460820
98,19,7,Jits_ISO_8,1,5,63,98,2014469764
98,19,7,Jits_ISO_8,2,5,80,127,2014530008
98,19,7,Jits_ISO_8,3,5,56,103,2014550344
98,19,7,Jits_ISO_8,0,5,63,98,2015230372
98,19,7,Jits_ISO_8,1,1,48,57,2015267572
98,19,7,Jits_ISO_8,2,5,56,103,2015279672
98,19,7,Jits_ISO_8,3,5,80,127,2015289792
98,19,7,Jits_ISO_8,0,1,48,55,2016038740
98,19,7,Jits_ISO_8,1,5,56,103,2016059816
98,19,7,Jits_ISO_8,2,5,80,127,2016069940
98,19,7,Jits_ISO_8,3,5,63,98,2016170344
98,19,7,Jits_ISO_8,0,5,80,127,2016819596
98,19,7,Jits_ISO_8,1,5,63,98,2016829720
98,19,7,Jits_ISO_8,2,1,48,61,2016891004
98,19,7,Jits_ISO_8,3,5,56,103,2016980476
98,19,7,Jits_ISO_8,0,5,63,98,2017629680
98,19,7,Jits_ISO_8,1,5,80,127,2017669772
98,19,7,Jits_ISO_8,2,1,48,57,2017683452
98,19,7,Jits_ISO_8,3,5,56,103,2017750608
98,19,7,Jits_ISO_8,0,5,56,103,2018420024
98,19,7,Jits_ISO_8,1,1,48,59,2018448476
98,19,7,Jits_ISO_8,2,5,80,127,2018520564
98,19,7,Jits_ISO_8,3,5,63,98,2018539828
98,19,7,Jits_ISO_8,0,1,48,54,2019233344
98,19,7,Jits_ISO_8,1,5,80,127,2019280204
98,19,7,Jits_ISO_8,2,5,56,103,2019289724
98,19,7,Jits_ISO_8,3,5,63,98,2019379620
98,19,7,Jits_ISO_8,0,1,48,55,2020039808
98,19,7,Jits_ISO_8,1,5,56,103,2020079988
98,19,7,Jits_ISO_8,2,5,63,98,2020099700
98,19,7,Jits_ISO_8,3,5,80,127,2020180476
98,19,7,Jits_ISO_8,0,1,48,64,2020813216
98,19,7,Jits_ISO_8,1,5,63,98,2020829576
98,19,7,Jits_ISO_8,2,5,56,103,2020919772
98,19,7,Jits_ISO_8,3,5,80,127,2020922616
98,19,7,Jits_ISO_8,0,1,48,60,2021604372
98,19,7,Jits_ISO_8,1,5,56,103,2021660068
98,19,7,Jits_ISO_8,2,5,80,127,2021720620
98,19,7,Jits_ISO_8,3,5,63,98,2021729692
98,19,7,Jits_ISO_8,0,1,48,60,2022441248
98,19,7,Jits_ISO_8,1,5,80,127,2022510072
98,19,7,Jits_ISO_8,2,5,56,103,2022520120
98,19,7,Jits_ISO_8,3,5,63,98,2022523408
98,19,7,Jits_ISO_8,0,5,56,103,2023269700
98,19,7,Jits_ISO_8,1,5,80,127,2023280120
98,19,7,Jits_ISO_8,2,5,63,98,2023299680
98,19,7,Jits_ISO_8,3,1,48,55,2023302948
98,19,7,Jits_ISO_8,0,5,63,98,2024039900
98,19,7,Jits_ISO_8,1,1,48,58,2024066688
98,19,7,Jits_ISO_8,2,5,80,127,2024100212
98,19,7,Jits_ISO_8,3,5,56,103,2024150636
98,19,7,Jits_ISO_8,0,1,48,58,2024828640
98,19,7,Jits_ISO_8,1,5,63,98,2024920520
98,19,7,Jits_ISO_8,2,5,56,103,2024929652
98,19,7,Jits_ISO_8,3,5,80,127,2024979780
98,19,7,Jits_ISO_8,0,5,63,98,2025619768
98,19,7,Jits_ISO_8,1,5,80,127,2025640228
98,19,7,Jits_ISO_8,2,5,56,103,2025649600
98,19,7,Jits_ISO_8,3,1,48,59,2025686576
98,19,7,Jits_ISO_8,0,5,63,98,2026419688
98,19,7,Jits_ISO_8,1,5,80,127,2026422904
98,19,7,Jits_ISO_8,2,1,48,59,2026439664
98,19,7,Jits_ISO_8,3,5,56,103,2026459396
98,19,7,Jits_ISO_8,0,1,48,57,2027217992
98,19,7,Jits_ISO_8,1,5,63,98,2027289880
98,19,7,Jits_ISO_8,2,5,80,127,2027319612
98,19,7,Jits_ISO_8,3,5,56,103,2027329884
98,19,7,Jits_ISO_8,0,1,48,54,2028004668
98,19,7,Jits_ISO_8,1,5,56,103,2028039612
98,19,7,Jits_ISO_8,2,5,80,127,2028070188
98,19,7,Jits_ISO_8,3,5,63,98,2028100516
98,19,7,Jits_ISO_8,0,1,48,62,2028822780
98,19,7,Jits_ISO_8,1,5,63,98,2028939700
98,19,7,Jits_ISO_8,2,5,56,103,2028979636
98,19,7,Jits_ISO_8,3,5,80,127,2028982704
98,19,7,Jits_ISO_8,0,5,80,127,2029639932
98,19,7,Jits_ISO_8,1,1,48,63,2029649424
98,19,7,Jits_ISO_8,2,5,56,103,2029719800
98,19,7,Jits_ISO_8,3,5,63,98,2029769984
98,19,7,Jits_ISO_8,0,5,80,127,2030420400
98,19,7,Jits_ISO_8,1,1,48,59,2030437696
98,19,7,Jits_ISO_8,2,5,56,103,2030439732
98,19,7,Jits_ISO_8,3,5,63,98,2030529864
98,19,7,Jits_ISO_8,0,5,80,127,2031259908
98,19,7,Jits_ISO_8,1,5,63,98,2031299848
98,19,7,Jits_ISO_8,2,1,48,63,2031318092
98,19,7,Jits_ISO_8,3,5,56,103,2031339852
98,19,7,Jits_ISO_8,0,5,63,98,2032030036
98,19,7,Jits_ISO_8,1,5,80,127,2032089384
98,19,7,Jits_ISO_8,2,5,56,103,2032120328
98,19,7,Jits_ISO_8,3,1,48,62,2032132960
98,19,7,Jits_ISO_8,0,5,56,103,2032829892
98,19,7,Jits_ISO_8,1,5,80,127,2032859644
98,19,7,Jits_ISO_8,2,1,48,60,2032890260
98,19,7,Jits_ISO_8,3,5,63,98,2032949544
98,19,7,Jits_ISO_8,0,5,56,103,2033639880
98,19,7,Jits_ISO_8,1,1,48,60,2033641440
98,19,7,Jits_ISO_8,2,5,80,127,2033750324
98,19,7,Jits_ISO_8,3,5,63,98,2033780292
98,19,7,Jits_ISO_8,0,5,56,103,2034489584
98,19,7,Jits_ISO_8,1,1,48,54,2034508392
98,19,7,Jits_ISO_8,2,5,63,98,2034550216
98,19,7,Jits_ISO_8,3,5,80,127,2034579744
98,19,7,Jits_ISO_8,0,5,56,103,2035259716
98,19,7,Jits_ISO_8,1,5,63,98,2035330324
98,19,7,Jits_ISO_8,2,1,48,64,2035349356
98,19,7,Jits_ISO_8,3,5,80,127,2035350848
98,19,7,Jits_ISO_8,0,5,80,127,2036029768
98,19,7,Jits_ISO_8,1,5,63,98,2036050404
98,19,7,Jits_ISO_8,2,1,48,63,2036087676
98,19,7,Jits_ISO_8,3,5,56,103,2036099328
98,19,7,Jits_ISO_8,0,9999,9999,9999,1941297260
98,19,7,Jits_ISO_8,1,9999,9999,9999,1942098032
98,19,7,Jits_ISO_8,2,9999,9999,9999,1942897732
98,19,7,Jits_ISO_8,3,9999,9999,9999,1943697532
98,19,7,Jits_ISO_8,4,9999,9999,9999,1944497248
98,19,7,Jits_ISO_8,5,9999,9999,9999,1945298008
98,19,7,Jits_ISO_8,6,9999,9999,9999,1946097716
98,19,7,Jits_ISO_8,7,9999,9999,9999,1946897500
98,19,7,Jits_ISO_8,8,9999,9999,9999,1947697212
98,19,7,Jits_ISO_8,9,9999,9999,9999,1948497980
98,19,7,Jits_ISO_8,10,9999,9999,9999,1949297772
98,19,7,Jits_ISO_8,11,9999,9999,9999,1950097484
98,19,7,Jits_ISO_8,12,9999,9999,9999,1950897216
98,19,7,Jits_ISO_8,13,9999,9999,9999,1951697980
98,19,7,Jits_ISO_8,14,9999,9999,9999,1952497756
98,19,7,Jits_ISO_8,15,9999,9999,9999,1953297468
98,19,7,Jits_ISO_8,16,9999,9999,9999,1954097236
98,19,7,Jits_ISO_8,17,9999,9999,9999,1954898036
98,19,7,Jits_ISO_8,18,9999,9999,9999,1955697752
98,19,7,Jits_ISO_8,19,9999,9999,9999,1956497528
98,19,7,Jits_ISO_8,20,9999,9999,9999,1957297236
98,19,7,Jits_ISO_8,21,9999,9999,9999,1958097992
98,19,7,Jits_ISO_8,22,9999,9999,9999,1958897780
98,19,7,Jits_ISO_8,23,9999,9999,9999,1959697492
98,19,7,Jits_ISO_8,24,9999,9999,9999,1960497272
98,19,7,Jits_ISO_8,25,9999,9999,9999,1961297976
98,19,7,Jits_ISO_8,26,9999,9999,9999,1962097760
98,19,7,Jits_ISO_8,27,9999,9999,9999,1962897520
98,19,7,Jits_ISO_8,28,9999,9999,9999,1963697244
98,19,7,Jits_ISO_8,29,9999,9999,9999,1964498020
98,19,7,Jits_ISO_8,30,9999,9999,9999,1965297728
98,19,7,Jits_ISO_8,31,9999,9999,9999,1966097516
98,19,7,Jits_ISO_8,32,9999,9999,9999,1966897224
98,19,7,Jits_ISO_8,33,9999,9999,9999,1967698008
98,19,7,Jits_ISO_8,34,9999,9999,9999,1968497720
98,19,7,Jits_ISO_8,35,9999,9999,9999,1969297508
98,19,7,Jits_ISO_8,36,9999,9999,9999,1970097224
98,19,7,Jits_ISO_8,37,9999,9999,9999,1970897996
98,19,7,Jits_ISO_8,38,9999,9999,9999,1971697788
98,19,7,Jits_ISO_8,39,9999,9999,9999,1972497512
98,19,7,Jits_ISO_8,40,9999,9999,9999,1973297224
98,19,7,Jits_ISO_8,41,9999,9999,9999,1974098008
98,19,7,Jits_ISO_8,42,9999,9999,9999,1974897788
98,19,7,Jits_ISO_8,43,9999,9999,9999,1975697500
98,19,7,Jits_ISO_8,44,9999,9999,9999,1976497272
98,19,7,Jits_ISO_8,45,9999,9999,9999,1977298032
98,19,7,Jits_ISO_8,46,9999,9999,9999,1978097756
98,19,7,Jits_ISO_8,47,9999,9999,9999,1978897472
98,19,7,Jits_ISO_8,48,9999,9999,9999,1979697268
98,19,7,Jits_ISO_8,49,9999,9999,9999,1980497984
98,19,7,Jits_ISO_8,50,9999,9999,9999,1981297768
98,19,7,Jits_ISO_8,51,9999,9999,9999,1982097476
98,19,7,Jits_ISO_8,52,9999,9999,9999,1982897264
98,19,7,Jits_ISO_8,53,9999,9999,9999,1983698040
98,19,7,Jits_ISO_8,54,9999,9999,9999,1984497748
98,19,7,Jits_ISO_8,55,9999,9999,9999,1985297468
98,19,7,Jits_ISO_8,56,9999,9999,9999,1986097252
98,19,7,Jits_ISO_8,57,9999,9999,9999,1986898036
98,19,7,Jits_ISO_8,58,9999,9999,9999,1987697744
98,19,7,Jits_ISO_8,59,9999,9999,9999,1988497524
98,19,7,Jits_ISO_8,60,9999,9999,9999,1989297232
98,19,7,Jits_ISO_8,61,9999,9999,9999,1990098008
98,19,7,Jits_ISO_8,62,9999,9999,9999,1990897732
98,19,7,Jits_ISO_8,63,9999,9999,9999,1991697508
98,19,7,Jits_ISO_8,64,9999,9999,9999,1992497224
98,19,7,Jits_ISO_8,65,9999,9999,9999,1993298012
98,19,7,Jits_ISO_8,66,9999,9999,9999,1994097740
98,19,7,Jits_ISO_8,67,9999,9999,9999,1994897528
98,19,7,Jits_ISO_8,68,9999,9999,9999,1995697224
98,19,7,Jits_ISO_8,69,9999,9999,9999,1996498000
98,19,7,Jits_ISO_8,70,9999,9999,9999,1997297780
98,19,7,Jits_ISO_8,71,9999,9999,9999,1998097500
98,19,7,Jits_ISO_8,72,9999,9999,9999,1998897204
98,19,7,Jits_ISO_8,73,9999,9999,9999,1999698000
98,19,7,Jits_ISO_8,74,9999,9999,9999,2000497716
98,19,7,Jits_ISO_8,75,9999,9999,9999,2001297500
98,19,7,Jits_ISO_8,76,9999,9999,9999,2002097220
98,19,7,Jits_ISO_8,77,9999,9999,9999,2002897992
98,19,7,Jits_ISO_8,78,9999,9999,9999,2003697768
98,19,7,Jits_ISO_8,79,9999,9999,9999,2004497488
98,19,7,Jits_ISO_8,80,9999,9999,9999,2005297276
98,19,7,Jits_ISO_8,81,9999,9999,9999,2006097980
98,19,7,Jits_ISO_8,82,9999,9999,9999,2006897764
98,19,7,Jits_ISO_8,83,9999,9999,9999,2007697468
98,19,7,Jits_ISO_8,84,9999,9999,9999,2008497260
98,19,7,Jits_ISO_8,85,9999,9999,9999,2009298032
98,19,7,Jits_ISO_8,86,9999,9999,9999,2010097744
98,19,7,Jits_ISO_8,87,9999,9999,9999,2010897524
98,19,7,Jits_ISO_8,88,9999,9999,9999,2011697228
98,19,7,Jits_ISO_8,89,9999,9999,9999,2012498016
98,19,7,Jits_ISO_8,90,9999,9999,9999,2013297736
98,19,7,Jits_ISO_8,91,9999,9999,9999,2014097516
98,19,7,Jits_ISO_8,92,9999,9999,9999,2014897240
98,19,7,Jits_ISO_8,93,9999,9999,9999,2015697992
98,19,7,Jits_ISO_8,94,9999,9999,9999,2016497780
98,19,7,Jits_ISO_8,95,9999,9999,9999,2017297484
98,19,7,Jits_ISO_8,96,9999,9999,9999,2018097208
98,19,7,Jits_ISO_8,97,9999,9999,9999,2018897988
98,19,7,Jits_ISO_8,98,9999,9999,9999,2019697716
98,19,7,Jits_ISO_8,99,9999,9999,9999,2020497500
98,19,7,Jits_ISO_8,100,9999,9999,9999,2021297276
98,19,7,Jits_ISO_8,101,9999,9999,9999,2022098032
98,19,7,Jits_ISO_8,102,9999,9999,9999,2022897732
98,19,7,Jits_ISO_8,103,9999,9999,9999,2023697512
98,19,7,Jits_ISO_8,104,9999,9999,9999,2024497236
98,19,7,Jits_ISO_8,105,9999,9999,9999,2025298024
98,19,7,Jits_ISO_8,106,9999,9999,9999,2026097724
98,19,7,Jits_ISO_8,107,9999,9999,9999,2026897488
98,19,7,Jits_ISO_8,108,9999,9999,9999,2027697272
98,19,7,Jits_ISO_8,109,9999,9999,9999,2028498000
98,19,7,Jits_ISO_8,110,9999,9999,9999,2029297784
98,19,7,Jits_ISO_8,111,9999,9999,9999,2030097496
98,19,7,Jits_ISO_8,112,9999,9999,9999,2030897216
98,19,7,Jits_ISO_8,113,9999,9999,9999,2031698012
98,19,7,Jits_ISO_8,114,9999,9999,9999,2032497732
98,19,7,Jits_ISO_8,115,9999,9999,9999,2033297516
98,19,7,Jits_ISO_8,116,9999,9999,9999,2034097244
98,19,7,Jits_ISO_8,117,9999,9999,9999,2034898020
98,19,7,Jits_ISO_8,118,9999,9999,9999,2035697748
98,19,7,Jits_ISO_8,119,9999,9999,9999,2036497464
98,20,5,ISIP_5,0,5,42,127,2110941680
98,20,5,ISIP_5,1,5,42,127,2111442220
98,20,5,ISIP_5,2,5,42,127,2111942084
98,20,5,ISIP_5,3,5,42,127,2112441656
98,20,5,ISIP_5,4,1,48,104,2112921736
98,20,5,ISIP_5,5,5,42,127,2112941364
98,20,5,ISIP_5,6,1,48,81,2113441208
98,20,5,ISIP_5,7,5,42,127,2113442700
98,20,5,ISIP_5,8,5,42,127,2113941808
98,20,5,ISIP_5,9,1,48,83,2113942772
98,20,5,ISIP_5,10,5,42,127,2114441500
98,20,5,ISIP_5,11,1,48,76,2114461076
98,20,5,ISIP_5,12,5,42,127,2114942244
98,20,5,ISIP_5,13,1,48,75,2114952916
98,20,5,ISIP_5,14,5,42,127,2115442012
98,20,5,ISIP_5,15,1,48,79,2115442980
98,20,5,ISIP_5,16,5,42,127,2115941856
98,20,5,ISIP_5,17,1,48,75,2115959336
98,20,5,ISIP_5,18,5,42,127,2116441328
98,20,5,ISIP_5,19,1,48,71,2116476832
98,20,5,ISIP_5,20,5,42,127,2116942072
98,20,5,ISIP_5,21,1,48,67,2116979972
98,20,5,ISIP_5,22,5,42,127,2117442036
98,20,5,ISIP_5,23,1,48,73,2117470516
98,20,5,ISIP_5,24,5,42,127,2117941560
98,20,5,ISIP_5,25,1,48,76,2117967216
98,20,5,ISIP_5,26,1,48,66,2118436796
98,20,5,ISIP_5,27,5,42,127,2118442220
98,20,5,ISIP_5,28,5,42,127,2118941996
98,20,5,ISIP_5,29,1,48,71,2118958356
98,20,5,ISIP_5,30,1,48,68,2119434320
98,20,5,ISIP_5,31,5,42,127,2119441908
98,20,5,ISIP_5,32,5,42,127,2119941684
98,20,5,ISIP_5,33,1,48,71,2119952132
98,20,5,ISIP_5,34,5,42,127,2120442348
98,20,5,ISIP_5,35,1,48,69,2120460728
98,20,5,ISIP_5,36,5,42,127,2120941896
98,20,5,ISIP_5,37,1,48,64,2120948604
98,20,5,ISIP_5,38,1,48,68,2121435936
98,20,5,ISIP_5,39,5,42,127,2121441584
98,20,5,ISIP_5,40,1,48,64,2121940816
98,20,5,ISIP_5,41,5,42,127,2121942324
98,20,5,ISIP_5,42,5,42,127,2122442028
98,20,5,ISIP_5,43,1,48,71,2122450084
98,20,5,ISIP_5,44,5,42,127,2122941944
98,20,5,ISIP_5,45,1,48,59,2122947156
98,20,5,ISIP_5,46,1,48,58,2123432028
98,20,5,ISIP_5,47,5,42,127,2123441408
98,20,5,ISIP_5,48,5,42,127,2123942232
98,20,5,ISIP_5,49,1,48,68,2123949760
98,20,5,ISIP_5,50,5,42,127,2124442224
98,20,5,ISIP_5,51,1,48,61,2124453496
98,20,5,ISIP_5,52,5,42,127,2124941844
98,20,5,ISIP_5,53,1,48,59,2124949224
98,20,5,ISIP_5,54,5,42,127,2125442360
98,20,5,ISIP_5,55,1,48,57,2125476224
98,20,5,ISIP_5,56,5,42,127,2125942056
98,20,5,ISIP_5,57,1,48,72,2125970380
98,20,5,ISIP_5,58,1,48,67,2126440620
98,20,5,ISIP_5,59,5,42,127,2126442116
98,20,5,ISIP_5,60,5,42,127,2126941448
98,20,5,ISIP_5,61,1,48,71,2126951968
98,20,5,ISIP_5,62,5,42,127,2127442412
98,20,5,ISIP_5,63,1,48,64,2127463180
98,20,5,ISIP_5,64,1,48,70,2127929320
98,20,5,ISIP_5,65,5,42,127,2127942096
98,20,5,ISIP_5,66,1,48,69,2128420120
98,20,5,ISIP_5,67,5,42,127,2128441916
98,20,5,ISIP_5,68,1,48,57,2128917344
98,20,5,ISIP_5,69,5,42,127,2128941316
98,20,5,ISIP_5,70,1,48,58,2129431400
98,20,5,ISIP_5,71,5,42,127,2129442056
98,20,5,ISIP_5,72,1,48,65,2129925784
98,20,5,ISIP_5,73,5,42,127,2129941976
98,20,5,ISIP_5,74,1,48,63,2130427424
98,20,5,ISIP_5,75,5,42,127,2130441744
98,20,5,ISIP_5,76,1,48,62,2130930036
98,20,5,ISIP_5,77,1,48,61,2131432572
98,20,5,ISIP_5,78,1,48,64,2131919920
98,20,5,ISIP_5,79,1,48,62,2132441168
98,20,5,ISIP_5,80,1,48,58,2132929700
98,20,5,ISIP_5,81,1,48,59,2133435448
98,20,5,ISIP_5,82,1,48,64,2133928924
98,20,5,ISIP_5,83,1,48,63,2134433856
98,20,5,ISIP_5,84,1,48,63,2134958840
98,20,5,ISIP_5,85,1,48,60,2135455916
98,20,5,ISIP_5,86,1,48,60,2135985600
98,20,5,ISIP_5,87,1,48,62,2136465016
98,20,5,ISIP_5,88,1,48,65,2136965080
98,20,5,ISIP_5,89,1,48,63,2137455568
98,20,5,ISIP_5,90,1,48,62,2137961700
98,20,5,ISIP_5,91,1,48,57,2138464752
98,20,5,ISIP_5,92,1,48,61,2138990776
98,20,5,ISIP_5,93,1,48,58,2139496524
98,20,5,ISIP_5,94,1,48,57,2139999356
98,20,5,ISIP_5,95,1,48,60,2140492840
98,20,5,ISIP_5,96,1,48,60,2140980836
98,20,5,ISIP_5,97,1,48,60,2141491144
98,20,5,ISIP_5,98,1,48,63,2141974832
98,20,5,ISIP_5,99,1,48,68,2142468168
98,20,5,ISIP_5,100,1,48,73,2142981088
98,20,5,ISIP_5,101,1,48,65,2143442932
98,20,5,ISIP_5,102,1,48,68,2143959232
98,20,5,ISIP_5,103,1,48,67,2144443440
98,20,5,ISIP_5,104,1,48,70,2144933020
98,20,5,ISIP_5,105,1,48,57,2145467352
98,20,5,ISIP_5,106,1,48,62,2145955672
98,20,5,ISIP_5,107,1,48,64,2146470476
98,20,5,ISIP_5,108,1,48,68,2146925948
98,20,5,ISIP_5,109,1,48,67,2147446668
98,20,5,ISIP_5,110,1,48,71,2147916724
98,20,5,ISIP_5,111,1,48,70,2148406216
98,20,5,ISIP_5,112,1,48,64,2148933984
98,20,5,ISIP_5,113,1,48,63,2149415248
98,20,5,ISIP_5,114,1,48,65,2149900580
98,20,5,ISIP_5,115,1,48,68,2150419720
98,20,5,ISIP_5,116,1,48,58,2150926284
98,20,5,ISIP_5,117,1,48,63,2151415504
98,20,5,ISIP_5,118,1,48,68,2151900008
98,20,5,ISIP_5,119,1,48,62,2152400300
98,20,5,ISIP_5,120,1,48,60,2152887728
98,20,5,ISIP_5,121,1,48,68,2153388612
98,20,5,ISIP_5,122,1,48,67,2153898028
98,20,5,ISIP_5,123,1,48,70,2154393376
98,20,5,ISIP_5,124,1,48,65,2154894112
98,20,5,ISIP_5,125,1,48,70,2155385800
98,20,5,ISIP_5,126,1,48,71,2155870984
98,20,5,ISIP_5,127,1,48,71,2156384960
98,20,5,ISIP_5,128,1,48,62,2156873580
98,20,5,ISIP_5,129,1,48,68,2157371300
98,20,5,ISIP_5,130,1,48,63,2157854840
98,20,5,ISIP_5,131,1,48,68,2158363128
98,20,5,ISIP_5,132,1,48,67,2158852796
98,20,5,ISIP_5,133,1,48,66,2159340144
98,20,5,ISIP_5,134,1,48,59,2159816200
98,20,5,ISIP_5,135,1,48,70,2160335936
98,20,5,ISIP_5,136,1,48,61,2160829192
98,20,5,ISIP_5,137,1,48,64,2161316392
98,20,5,ISIP_5,138,1,48,69,2161802324
98,20,5,ISIP_5,139,1,48,65,2162302384
98,20,5,ISIP_5,140,1,48,70,2162802004
98,20,5,ISIP_5,141,1,48,66,2163304160
98,20,5,ISIP_5,142,1,48,63,2163797716
98,20,5,ISIP_5,143,1,48,58,2164322988
98,20,5,ISIP_5,144,1,48,69,2164823724
98,20,5,ISIP_5,145,1,48,66,2165326184
98,20,5,ISIP_5,146,1,48,67,2165841360
98,20,5,ISIP_5,147,1,48,65,2166324420
98,20,5,ISIP_5,148,1,48,62,2166829348
98,20,5,ISIP_5,149,1,48,65,2167333452
98,20,5,ISIP_5,150,1,48,69,2167828128
98,20,5,ISIP_5,151,1,48,67,2168336944
98,20,5,ISIP_5,152,1,48,58,2168836192
98,20,5,ISIP_5,153,1,48,65,2169321816
98,20,5,ISIP_5,154,1,48,61,2169838484
98,20,5,ISIP_5,155,1,48,63,2170339292
98,20,5,ISIP_5,156,1,48,65,2170826124
98,20,5,ISIP_5,157,1,48,65,2171349748
98,20,5,ISIP_5,158,1,48,56,2171828120
98,20,5,ISIP_5,159,1,48,62,2172318684
98,20,5,ISIP_5,160,1,48,65,2172828852
98,20,5,ISIP_5,161,1,48,67,2173326596
98,20,5,ISIP_5,162,1,48,64,2173827564
98,20,5,ISIP_5,163,1,48,59,2174292024
98,20,5,ISIP_5,164,1,48,63,2174802632
98,20,5,ISIP_5,165,1,48,66,2175308836
98,20,5,ISIP_5,166,1,48,73,2175809044
98,20,5,ISIP_5,167,1,48,73,2176313724
98,20,5,ISIP_5,168,1,48,71,2176827776
98,20,5,ISIP_5,169,1,48,63,2177326120
98,20,5,ISIP_5,170,1,48,60,2177824460
98,20,5,ISIP_5,171,1,48,66,2178330356
98,20,5,ISIP_5,172,1,48,66,2178855480
98,20,5,ISIP_5,173,1,48,70,2179374544
98,20,5,ISIP_5,174,1,48,64,2179862868
98,20,5,ISIP_5,175,1,48,65,2180344824
98,20,5,ISIP_5,176,1,48,64,2180853872
98,20,5,ISIP_5,177,1,48,63,2181348096
98,20,5,ISIP_5,178,1,48,70,2181858036
98,20,5,ISIP_5,179,1,48,68,2182347856
98,20,5,ISIP_5,180,1,48,66,2182845224
98,20,5,ISIP_5,181,1,48,68,2183353820
98,20,5,ISIP_5,182,1,48,60,2183847748
98,20,5,ISIP_5,183,1,48,70,2184361728
98,20,5,ISIP_5,184,1,48,74,2184853864
98,20,5,ISIP_5,185,1,48,64,2185385268
98,20,5,ISIP_5,186,1,48,67,2185873740
98,20,5,ISIP_5,187,1,48,62,2186353604
98,20,5,ISIP_5,188,1,48,62,2186863920
98,20,5,ISIP_5,189,1,48,64,2187377748
98,20,5,ISIP_5,190,1,48,67,2187878860
98,20,5,ISIP_5,191,1,48,69,2188353940
98,20,5,ISIP_5,192,1,48,70,2188844928
98,20,5,ISIP_5,193,1,48,70,2189339160
98,20,5,ISIP_5,194,1,48,66,2189834812
98,20,5,ISIP_5,195,1,48,71,2190353652
98,20,5,ISIP_5,196,1,48,58,2190822972
98,20,5,ISIP_5,0,9999,9999,9999,2110939244
98,20,5,ISIP_5,1,9999,9999,9999,2111439932
98,20,5,ISIP_5,2,9999,9999,9999,2111939648
98,20,5,ISIP_5,3,9999,9999,9999,2112439368
98,20,5,ISIP_5,4,9999,9999,9999,2112939076
98,20,5,ISIP_5,5,9999,9999,9999,2113439824
98,20,5,ISIP_5,6,9999,9999,9999,2113939520
98,20,5,ISIP_5,7,9999,9999,9999,2114439288
98,20,5,ISIP_5,8,9999,9999,9999,2114939956
98,20,5,ISIP_5,9,9999,9999,9999,2115439724
98,20,5,ISIP_5,10,9999,9999,9999,2115939420
98,20,5,ISIP_5,11,9999,9999,9999,2116439116
98,20,5,ISIP_5,12,9999,9999,9999,2116939856
98,20,5,ISIP_5,13,9999,9999,9999,2117439600
98,20,5,ISIP_5,14,9999,9999,9999,2117939272
98,20,5,ISIP_5,15,9999,9999,9999,2118440008
98,20,5,ISIP_5,16,9999,9999,9999,2118939708
98,20,5,ISIP_5,17,9999,9999,9999,2119439472
98,20,5,ISIP_5,18,9999,9999,9999,2119939172
98,20,5,ISIP_5,19,9999,9999,9999,2120439912
98,20,5,ISIP_5,20,9999,9999,9999,2120939608
98,20,5,ISIP_5,21,9999,9999,9999,2121439296
98,20,5,ISIP_5,22,9999,9999,9999,2121940044
98,20,5,ISIP_5,23,9999,9999,9999,2122439740
98,20,5,ISIP_5,24,9999,9999,9999,2122939508
98,20,5,ISIP_5,25,9999,9999,9999,2123439196
98,20,5,ISIP_5,26,9999,9999,9999,2123939944
98,20,5,ISIP_5,27,9999,9999,9999,2124439636
98,20,5,ISIP_5,28,9999,9999,9999,2124939332
98,20,5,ISIP_5,29,9999,9999,9999,2125440076
98,20,5,ISIP_5,30,9999,9999,9999,2125939768
98,20,5,ISIP_5,31,9999,9999,9999,2126439540
98,20,5,ISIP_5,32,9999,9999,9999,2126939232
98,20,5,ISIP_5,33,9999,9999,9999,2127439976
98,20,5,ISIP_5,34,9999,9999,9999,2127939660
98,20,5,ISIP_5,35,9999,9999,9999,2128439408
98,20,5,ISIP_5,36,9999,9999,9999,2128939104
98,20,5,ISIP_5,37,9999,9999,9999,2129439844
98,20,5,ISIP_5,38,9999,9999,9999,2129939540
98,20,5,ISIP_5,39,9999,9999,9999,2130439232
98,20,5,ISIP_5,40,9999,9999,9999,2130939976
98,20,5,ISIP_5,41,9999,9999,9999,2131439664
98,20,5,ISIP_5,42,9999,9999,9999,2131939432
98,20,5,ISIP_5,43,9999,9999,9999,2132439128
98,20,5,ISIP_5,44,9999,9999,9999,2132939860
98,20,5,ISIP_5,45,9999,9999,9999,2133439548
98,20,5,ISIP_5,46,9999,9999,9999,2133939316
98,20,5,ISIP_5,47,9999,9999,9999,2134440052
98,20,5,ISIP_5,48,9999,9999,9999,2134939748
98,20,5,ISIP_5,49,9999,9999,9999,2135439440
98,20,5,ISIP_5,50,9999,9999,9999,2135939132
98,20,5,ISIP_5,51,9999,9999,9999,2136439868
98,20,5,ISIP_5,52,9999,9999,9999,2136939636
98,20,5,ISIP_5,53,9999,9999,9999,2137439324
98,20,5,ISIP_5,54,9999,9999,9999,2137940064
98,20,5,ISIP_5,55,9999,9999,9999,2138439756
98,20,5,ISIP_5,56,9999,9999,9999,2138939496
98,20,5,ISIP_5,57,9999,9999,9999,2139439184
98,20,5,ISIP_5,58,9999,9999,9999,2139939920
98,20,5,ISIP_5,59,9999,9999,9999,2140439612
98,20,5,ISIP_5,60,9999,9999,9999,2140939380
98,20,5,ISIP_5,61,9999,9999,9999,2141440116
98,20,5,ISIP_5,62,9999,9999,9999,2141939808
98,20,5,ISIP_5,63,9999,9999,9999,2142439500
98,20,5,ISIP_5,64,9999,9999,9999,2142939188
98,20,5,ISIP_5,65,9999,9999,9999,2143439924
98,20,5,ISIP_5,66,9999,9999,9999,2143939692
98,20,5,ISIP_5,67,9999,9999,9999,2144439384
98,20,5,ISIP_5,68,9999,9999,9999,2144939068
98,20,5,ISIP_5,69,9999,9999,9999,2145439812
98,20,5,ISIP_5,70,9999,9999,9999,2145939576
98,20,5,ISIP_5,71,9999,9999,9999,2146439268
98,20,5,ISIP_5,72,9999,9999,9999,2146940000
98,20,5,ISIP_5,73,9999,9999,9999,2147439696
98,20,5,ISIP_5,74,9999,9999,9999,2147939380
98,20,5,ISIP_5,75,9999,9999,9999,2148439148
98,20,5,ISIP_5,76,9999,9999,9999,2148939884
98,20,5,ISIP_5,77,9999,9999,9999,2149439548
98,20,5,ISIP_5,78,9999,9999,9999,2149939316
98,20,5,ISIP_5,79,9999,9999,9999,2150440052
98,20,5,ISIP_5,80,9999,9999,9999,2150939744
98,20,5,ISIP_5,81,9999,9999,9999,2151439432
98,20,5,ISIP_5,82,9999,9999,9999,2151939124
98,20,5,ISIP_5,83,9999,9999,9999,2152439860
98,20,5,ISIP_5,84,9999,9999,9999,2152939624
98,20,5,ISIP_5,85,9999,9999,9999,2153439316
98,20,5,ISIP_5,86,9999,9999,9999,2153940052
98,20,5,ISIP_5,87,9999,9999,9999,2154439744
98,20,5,ISIP_5,88,9999,9999,9999,2154939508
98,20,5,ISIP_5,89,9999,9999,9999,2155439200
98,20,5,ISIP_5,90,9999,9999,9999,2155939940
98,20,5,ISIP_5,91,9999,9999,9999,2156439632
98,20,5,ISIP_5,92,9999,9999,9999,2156939320
98,20,5,ISIP_5,93,9999,9999,9999,2157440060
98,20,5,ISIP_5,94,9999,9999,9999,2157939824
98,20,5,ISIP_5,95,9999,9999,9999,2158439516
98,20,5,ISIP_5,96,9999,9999,9999,2158939204
98,20,5,ISIP_5,97,9999,9999,9999,2159439924
98,20,5,ISIP_5,98,9999,9999,9999,2159939688
98,20,5,ISIP_5,99,9999,9999,9999,2160439356
98,20,5,ISIP_5,100,9999,9999,9999,2160939120
98,20,5,ISIP_5,101,9999,9999,9999,2161439856
98,20,5,ISIP_5,102,9999,9999,9999,2161939548
98,20,5,ISIP_5,103,9999,9999,9999,2162439240
98,20,5,ISIP_5,104,9999,9999,9999,2162939980
98,20,5,ISIP_5,105,9999,9999,9999,2163439668
98,20,5,ISIP_5,106,9999,9999,9999,2163939436
98,20,5,ISIP_5,107,9999,9999,9999,2164439124
98,20,5,ISIP_5,108,9999,9999,9999,2164939864
98,20,5,ISIP_5,109,9999,9999,9999,2165439552
98,20,5,ISIP_5,110,9999,9999,9999,2165939320
98,20,5,ISIP_5,111,9999,9999,9999,2166439984
98,20,5,ISIP_5,112,9999,9999,9999,2166939748
98,20,5,ISIP_5,113,9999,9999,9999,2167439440
98,20,5,ISIP_5,114,9999,9999,9999,2167939128
98,20,5,ISIP_5,115,9999,9999,9999,2168439868
98,20,5,ISIP_5,116,9999,9999,9999,2168939632
98,20,5,ISIP_5,117,9999,9999,9999,2169439324
98,20,5,ISIP_5,118,9999,9999,9999,2169940060
98,20,5,ISIP_5,119,9999,9999,9999,2170439752
98,20,5,ISIP_5,120,9999,9999,9999,2170939492
98,20,5,ISIP_5,121,9999,9999,9999,2171439200
98,20,5,ISIP_5,122,9999,9999,9999,2171939920
98,20,5,ISIP_5,123,9999,9999,9999,2172439612
98,20,5,ISIP_5,124,9999,9999,9999,2172939376
98,20,5,ISIP_5,125,9999,9999,9999,2173440116
98,20,5,ISIP_5,126,9999,9999,9999,2173939808
98,20,5,ISIP_5,127,9999,9999,9999,2174439500
98,20,5,ISIP_5,128,9999,9999,9999,2174939188
98,20,5,ISIP_5,129,9999,9999,9999,2175439928
98,20,5,ISIP_5,130,9999,9999,9999,2175939692
98,20,5,ISIP_5,131,9999,9999,9999,2176439384
98,20,5,ISIP_5,132,9999,9999,9999,2176939076
98,20,5,ISIP_5,133,9999,9999,9999,2177439808
98,20,5,ISIP_5,134,9999,9999,9999,2177939576
98,20,5,ISIP_5,135,9999,9999,9999,2178439268
98,20,5,ISIP_5,136,9999,9999,9999,2178940016
98,20,5,ISIP_5,137,9999,9999,9999,2179439708
98,20,5,ISIP_5,138,9999,9999,9999,2179939400
98,20,5,ISIP_5,139,9999,9999,9999,2180439148
98,20,5,ISIP_5,140,9999,9999,9999,2180939828
98,20,5,ISIP_5,141,9999,9999,9999,2181439576
98,20,5,ISIP_5,142,9999,9999,9999,2181939260
98,20,5,ISIP_5,143,9999,9999,9999,2182439996
98,20,5,ISIP_5,144,9999,9999,9999,2182939760
98,20,5,ISIP_5,145,9999,9999,9999,2183439452
98,20,5,ISIP_5,146,9999,9999,9999,2183939144
98,20,5,ISIP_5,147,9999,9999,9999,2184439880
98,20,5,ISIP_5,148,9999,9999,9999,2184939572
98,20,5,ISIP_5,149,9999,9999,9999,2185439336
98,20,5,ISIP_5,150,9999,9999,9999,2185940076
98,20,5,ISIP_5,151,9999,9999,9999,2186439768
98,20,5,ISIP_5,152,9999,9999,9999,2186939456
98,20,5,ISIP_5,153,9999,9999,9999,2187439224
98,20,5,ISIP_5,154,9999,9999,9999,2187939960
98,20,5,ISIP_5,155,9999,9999,9999,2188439652
98,20,5,ISIP_5,156,9999,9999,9999,2188939324
98,20,5,ISIP_5,157,9999,9999,9999,2189440064
98,20,5,ISIP_5,158,9999,9999,9999,2189939828
98,20,5,ISIP_5,159,9999,9999,9999,2190439532
98,21,3,ISIP_8,0,5,42,127,2217032936
98,21,3,ISIP_8,1,5,42,127,2217832688
98,21,3,ISIP_8,2,5,42,127,2218632592
98,21,3,ISIP_8,3,5,42,127,2219433320
98,21,3,ISIP_8,4,1,48,71,2220218752
98,21,3,ISIP_8,5,5,42,127,2220232996
98,21,3,ISIP_8,6,1,48,59,2221002696
98,21,3,ISIP_8,7,5,42,127,2221032952
98,21,3,ISIP_8,8,1,48,51,2221759576
98,21,3,ISIP_8,9,5,42,127,2221832536
98,21,3,ISIP_8,10,1,48,63,2222608376
98,21,3,ISIP_8,11,5,42,127,2222633316
98,21,3,ISIP_8,12,1,48,63,2223378264
98,21,3,ISIP_8,13,5,42,127,2223433000
98,21,3,ISIP_8,14,1,48,21,2223466924
98,21,3,ISIP_8,15,5,42,127,2224232868
98,21,3,ISIP_8,16,1,48,67,2224234808
98,21,3,ISIP_8,17,5,42,127,2225032676
98,21,3,ISIP_8,18,1,48,58,2225052176
98,21,3,ISIP_8,19,1,48,57,2225821972
98,21,3,ISIP_8,20,5,42,127,2225833224
98,21,3,ISIP_8,21,1,48,60,2226612732
98,21,3,ISIP_8,22,5,42,127,2226632960
98,21,3,ISIP_8,23,1,48,62,2227408872
98,21,3,ISIP_8,24,5,42,127,2227432768
98,21,3,ISIP_8,25,1,48,59,2228184372
98,21,3,ISIP_8,26,5,42,127,2228232500
98,21,3,ISIP_8,27,1,48,55,2228983884
98,21,3,ISIP_8,28,5,42,127,2229033504
98,21,3,ISIP_8,29,1,48,66,2229754592
98,21,3,ISIP_8,30,5,42,127,2229833188
98,21,3,ISIP_8,31,1,48,52,2230605436
98,21,3,ISIP_8,32,5,42,127,2230632700
98,21,3,ISIP_8,33,1,48,53,2231371064
98,21,3,ISIP_8,34,5,42,127,2231432432
98,21,3,ISIP_8,35,1,48,56,2232173412
98,21,3,ISIP_8,36,5,42,127,2232233360
98,21,3,ISIP_8,37,5,42,127,2233033100
98,21,3,ISIP_8,38,1,48,52,2233041828
98,21,3,ISIP_8,39,1,48,55,2233817388
98,21,3,ISIP_8,40,5,42,127,2233832752
98,21,3,ISIP_8,41,1,48,62,2234602380
98,21,3,ISIP_8,42,5,42,127,2234632560
98,21,3,ISIP_8,43,1,48,27,2234697620
98,21,3,ISIP_8,44,1,48,55,2235430068
98,21,3,ISIP_8,45,5,42,127,2235433316
98,21,3,ISIP_8,46,5,42,127,2236233232
98,21,3,ISIP_8,47,1,48,57,2236266944
98,21,3,ISIP_8,48,5,42,127,2237032672
98,21,3,ISIP_8,49,1,48,59,2237034536
98,21,3,ISIP_8,50,1,48,54,2237814632
98,21,3,ISIP_8,51,5,42,127,2237832620
98,21,3,ISIP_8,52,1,48,53,2238614896
98,21,3,ISIP_8,53,5,42,127,2238633328
98,21,3,ISIP_8,54,1,48,51,2239389120
98,21,3,ISIP_8,55,5,42,127,2239433208
98,21,3,ISIP_8,56,1,48,52,2240200224
98,21,3,ISIP_8,57,5,42,127,2240232720
98,21,3,ISIP_8,58,1,48,56,2240977220
98,21,3,ISIP_8,59,1,48,56,2241769316
98,21,3,ISIP_8,60,1,48,51,2242541072
98,21,3,ISIP_8,61,1,48,57,2243326812
98,21,3,ISIP_8,62,1,48,44,2243351548
98,21,3,ISIP_8,63,1,48,53,2244134076
98,21,3,ISIP_8,64,1,48,49,2244936448
98,21,3,ISIP_8,65,1,48,47,2245707676
98,21,3,ISIP_8,66,1,48,51,2246461560
98,21,3,ISIP_8,67,1,48,49,2247275652
98,21,3,ISIP_8,68,1,48,47,2248038580
98,21,3,ISIP_8,69,1,48,49,2248812500
98,21,3,ISIP_8,70,1,48,48,2249618520
98,21,3,ISIP_8,71,1,48,51,2250361696
98,21,3,ISIP_8,72,1,48,48,2251138988
98,21,3,ISIP_8,73,1,48,48,2251887632
98,21,3,ISIP_8,74,1,48,49,2252701272
98,21,3,ISIP_8,75,1,48,48,2253470784
98,21,3,ISIP_8,76,1,48,49,2254250764
98,21,3,ISIP_8,77,1,48,52,2255038080
98,21,3,ISIP_8,78,1,48,47,2255810956
98,21,3,ISIP_8,79,1,48,47,2256570600
98,21,3,ISIP_8,80,1,48,48,2257363740
98,21,3,ISIP_8,81,1,48,46,2258135348
98,21,3,ISIP_8,82,1,48,49,2258915404
98,21,3,ISIP_8,83,1,48,48,2259708400
98,21,3,ISIP_8,84,1,48,46,2260499828
98,21,3,ISIP_8,85,1,48,46,2261284972
98,21,3,ISIP_8,86,1,48,47,2262085852
98,21,3,ISIP_8,87,1,48,47,2262855060
98,21,3,ISIP_8,88,1,48,46,2263642448
98,21,3,ISIP_8,89,1,48,44,2264430432
98,21,3,ISIP_8,90,1,48,46,2265185880
98,21,3,ISIP_8,91,1,48,44,2265958684
98,21,3,ISIP_8,92,1,48,45,2266746592
98,21,3,ISIP_8,93,1,48,44,2267545052
98,21,3,ISIP_8,94,1,48,42,2268319128
98,21,3,ISIP_8,95,1,48,40,2269081760
98,21,3,ISIP_8,96,1,48,44,2269859268
98,21,3,ISIP_8,97,1,48,43,2270646808
98,21,3,ISIP_8,98,1,48,41,2271405164
98,21,3,ISIP_8,99,1,48,40,2272237668
98,21,3,ISIP_8,100,1,48,43,2273004168
98,21,3,ISIP_8,101,1,48,38,2273753708
98,21,3,ISIP_8,102,1,48,40,2274511252
98,21,3,ISIP_8,103,1,48,41,2275285624
98,21,3,ISIP_8,104,1,48,41,2276049080
98,21,3,ISIP_8,105,1,48,41,2276773632
98,21,3,ISIP_8,106,1,48,40,2277573740
98,21,3,ISIP_8,107,1,48,41,2278350500
98,21,3,ISIP_8,108,1,48,38,2279125920
98,21,3,ISIP_8,109,1,48,43,2279893488
98,21,3,ISIP_8,110,1,48,38,2280669212
98,21,3,ISIP_8,111,1,48,42,2281418372
98,21,3,ISIP_8,112,1,48,39,2282215936
98,21,3,ISIP_8,113,1,48,43,2282945880
98,21,3,ISIP_8,114,1,48,42,2283750468
98,21,3,ISIP_8,115,1,48,42,2284511152
98,21,3,ISIP_8,116,1,48,43,2285278720
98,21,3,ISIP_8,117,1,48,44,2286072164
98,21,3,ISIP_8,118,1,48,43,2286838232
98,21,3,ISIP_8,119,1,48,43,2287635496
98,21,3,ISIP_8,120,1,48,44,2288459932
98,21,3,ISIP_8,121,1,48,43,2289244400
98,21,3,ISIP_8,122,1,48,41,2290017200
98,21,3,ISIP_8,123,1,48,48,2290782148
98,21,3,ISIP_8,124,1,48,43,2291593328
98,21,3,ISIP_8,125,1,48,46,2292354980
98,21,3,ISIP_8,126,1,48,45,2293115068
98,21,3,ISIP_8,127,1,48,43,2293883904
98,21,3,ISIP_8,128,1,48,45,2294667176
98,21,3,ISIP_8,129,1,48,43,2295421568
98,21,3,ISIP_8,130,1,48,46,2296191008
98,21,3,ISIP_8,131,1,48,49,2297037720
98,21,3,ISIP_8,132,1,48,46,2297832064
98,21,3,ISIP_8,133,1,48,42,2298597368
98,21,3,ISIP_8,134,1,48,44,2299399116
98,21,3,ISIP_8,135,1,48,40,2300128240
98,21,3,ISIP_8,136,1,48,42,2300967536
98,21,3,ISIP_8,137,1,48,44,2301706532
98,21,3,ISIP_8,138,1,48,43,2302468116
98,21,3,ISIP_8,139,1,48,45,2303244128
98,21,3,ISIP_8,140,1,48,41,2304037648
98,21,3,ISIP_8,141,1,48,45,2304828128
98,21,3,ISIP_8,142,1,48,41,2305601232
98,21,3,ISIP_8,143,1,48,38,2306369920
98,21,3,ISIP_8,144,1,48,42,2307162916
98,21,3,ISIP_8,145,1,48,44,2307950904
98,21,3,ISIP_8,146,1,48,40,2308719440
98,21,3,ISIP_8,147,1,48,40,2309462920
98,21,3,ISIP_8,148,1,48,38,2310264596
98,21,3,ISIP_8,149,1,48,42,2310996264
98,21,3,ISIP_8,150,1,48,42,2311797556
98,21,3,ISIP_8,151,1,48,36,2312573060
98,21,3,ISIP_8,152,1,48,36,2313361568
98,21,3,ISIP_8,153,1,48,51,2314174380
98,21,3,ISIP_8,154,1,48,48,2314985784
98,21,3,ISIP_8,155,1,48,42,2315785512
98,21,3,ISIP_8,156,1,48,44,2316537000
98,21,3,ISIP_8,157,1,48,51,2317340536
98,21,3,ISIP_8,158,1,48,45,2318130920
98,21,3,ISIP_8,159,1,48,49,2318901480
98,21,3,ISIP_8,160,1,48,54,2319648848
98,21,3,ISIP_8,161,1,48,52,2320451892
98,21,3,ISIP_8,162,1,48,53,2321206044
98,21,3,ISIP_8,163,1,48,52,2321954236
98,21,3,ISIP_8,164,1,48,50,2322775608
98,21,3,ISIP_8,165,1,48,48,2323521636
98,21,3,ISIP_8,166,1,48,45,2324271668
98,21,3,ISIP_8,167,1,48,46,2325042972
98,21,3,ISIP_8,168,1,48,50,2325812696
98,21,3,ISIP_8,169,1,48,49,2326589188
98,21,3,ISIP_8,170,1,48,49,2327380168
98,21,3,ISIP_8,171,1,48,47,2328139652
98,21,3,ISIP_8,172,1,48,46,2328891960
98,21,3,ISIP_8,173,1,48,46,2329676580
98,21,3,ISIP_8,174,1,48,46,2330491272
98,21,3,ISIP_8,175,1,48,50,2331247164
98,21,3,ISIP_8,176,1,48,46,2332012716
98,21,3,ISIP_8,177,1,48,50,2332815132
98,21,3,ISIP_8,178,1,48,48,2333599308
98,21,3,ISIP_8,179,1,48,49,2334336208
98,21,3,ISIP_8,180,1,48,47,2335142668
98,21,3,ISIP_8,181,1,48,51,2335883156
98,21,3,ISIP_8,182,1,48,46,2336656856
98,21,3,ISIP_8,0,9999,9999,9999,2217030720
98,21,3,ISIP_8,1,9999,9999,9999,2217830476
98,21,3,ISIP_8,2,9999,9999,9999,2218630232
98,21,3,ISIP_8,3,9999,9999,9999,2219431032
98,21,3,ISIP_8,4,9999,9999,9999,2220230708
98,21,3,ISIP_8,5,9999,9999,9999,2221030516
98,21,3,ISIP_8,6,9999,9999,9999,2221830248
98,21,3,ISIP_8,7,9999,9999,9999,2222631032
98,21,3,ISIP_8,8,9999,9999,9999,2223430712
98,21,3,ISIP_8,9,9999,9999,9999,2224230504
98,21,3,ISIP_8,10,9999,9999,9999,2225030240
98,21,3,ISIP_8,11,9999,9999,9999,2225831012
98,21,3,ISIP_8,12,9999,9999,9999,2226630748
98,21,3,ISIP_8,13,9999,9999,9999,2227430480
98,21,3,ISIP_8,14,9999,9999,9999,2228230212
98,21,3,ISIP_8,15,9999,9999,9999,2229030992
98,21,3,ISIP_8,16,9999,9999,9999,2229830752
98,21,3,ISIP_8,17,9999,9999,9999,2230630484
98,21,3,ISIP_8,18,9999,9999,9999,2231430220
98,21,3,ISIP_8,19,9999,9999,9999,2232231000
98,21,3,ISIP_8,20,9999,9999,9999,2233030740
98,21,3,ISIP_8,21,9999,9999,9999,2233830464
98,21,3,ISIP_8,22,9999,9999,9999,2234630200
98,21,3,ISIP_8,23,9999,9999,9999,2235431028
98,21,3,ISIP_8,24,9999,9999,9999,2236230720
98,21,3,ISIP_8,25,9999,9999,9999,2237030456
98,21,3,ISIP_8,26,9999,9999,9999,2237830256
98,21,3,ISIP_8,27,9999,9999,9999,2238630964
98,21,3,ISIP_8,28,9999,9999,9999,2239430772
98,21,3,ISIP_8,29,9999,9999,9999,2240230508
98,21,3,ISIP_8,30,9999,9999,9999,2241030240
98,21,3,ISIP_8,31,9999,9999,9999,2241831016
98,21,3,ISIP_8,32,9999,9999,9999,2242630768
98,21,3,ISIP_8,33,9999,9999,9999,2243430476
98,21,3,ISIP_8,34,9999,9999,9999,2244230264
98,21,3,ISIP_8,35,9999,9999,9999,2245030968
98,21,3,ISIP_8,36,9999,9999,9999,2245830772
98,21,3,ISIP_8,37,9999,9999,9999,2246630500
98,21,3,ISIP_8,38,9999,9999,9999,2247430228
98,21,3,ISIP_8,39,9999,9999,9999,2248231008
98,21,3,ISIP_8,40,9999,9999,9999,2249030764
98,21,3,ISIP_8,41,9999,9999,9999,2249830492
98,21,3,ISIP_8,42,9999,9999,9999,2250630224
98,21,3,ISIP_8,43,9999,9999,9999,2251430996
98,21,3,ISIP_8,44,9999,9999,9999,2252230728
98,21,3,ISIP_8,45,9999,9999,9999,2253030456
98,21,3,ISIP_8,46,9999,9999,9999,2253830260
98,21,3,ISIP_8,47,9999,9999,9999,2254630964
98,21,3,ISIP_8,48,9999,9999,9999,2255430716
98,21,3,ISIP_8,49,9999,9999,9999,2256230448
98,21,3,ISIP_8,50,9999,9999,9999,2257030252
98,21,3,ISIP_8,51,9999,9999,9999,2257831028
98,21,3,ISIP_8,52,9999,9999,9999,2258630756
98,21,3,ISIP_8,53,9999,9999,9999,2259430484
98,21,3,ISIP_8,54,9999,9999,9999,2260230216
98,21,3,ISIP_8,55,9999,9999,9999,2261030992
98,21,3,ISIP_8,56,9999,9999,9999,2261830744
98,21,3,ISIP_8,57,9999,9999,9999,2262630476
98,21,3,ISIP_8,58,9999,9999,9999,2263430204
98,21,3,ISIP_8,59,9999,9999,9999,2264230980
98,21,3,ISIP_8,60,9999,9999,9999,2265030708
98,21,3,ISIP_8,61,9999,9999,9999,2265830512
98,21,3,ISIP_8,62,9999,9999,9999,2266630240
98,21,3,ISIP_8,63,9999,9999,9999,2267431016
98,21,3,ISIP_8,64,9999,9999,9999,2268230772
98,21,3,ISIP_8,65,9999,9999,9999,2269030504
98,21,3,ISIP_8,66,9999,9999,9999,2269830232
98,21,3,ISIP_8,67,9999,9999,9999,2270631008
98,21,3,ISIP_8,68,9999,9999,9999,2271430732
98,21,3,ISIP_8,69,9999,9999,9999,2272230468
98,21,3,ISIP_8,70,9999,9999,9999,2273030264
98,21,3,ISIP_8,71,9999,9999,9999,2273830964
98,21,3,ISIP_8,72,9999,9999,9999,2274630704
98,21,3,ISIP_8,73,9999,9999,9999,2275430508
98,21,3,ISIP_8,74,9999,9999,9999,2276230236
98,21,3,ISIP_8,75,9999,9999,9999,2277031012
98,21,3,ISIP_8,76,9999,9999,9999,2277830740
98,21,3,ISIP_8,77,9999,9999,9999,2278630472
98,21,3,ISIP_8,78,9999,9999,9999,2279430200
98,21,3,ISIP_8,79,9999,9999,9999,2280230976
98,21,3,ISIP_8,80,9999,9999,9999,2281030732
98,21,3,ISIP_8,81,9999,9999,9999,2281830460
98,21,3,ISIP_8,82,9999,9999,9999,2282630264
98,21,3,ISIP_8,83,9999,9999,9999,2283430964
98,21,3,ISIP_8,84,9999,9999,9999,2284230768
98,21,3,ISIP_8,85,9999,9999,9999,2285030496
98,21,3,ISIP_8,86,9999,9999,9999,2285830224
98,21,3,ISIP_8,87,9999,9999,9999,2286631000
98,21,3,ISIP_8,88,9999,9999,9999,2287430756
98,21,3,ISIP_8,89,9999,9999,9999,2288230484
98,21,3,ISIP_8,90,9999,9999,9999,2289030212
98,21,3,ISIP_8,91,9999,9999,9999,2289830988
98,21,3,ISIP_8,92,9999,9999,9999,2290630716
98,21,3,ISIP_8,93,9999,9999,9999,2291430448
98,21,3,ISIP_8,94,9999,9999,9999,2292230252
98,21,3,ISIP_8,95,9999,9999,9999,2293031028
98,21,3,ISIP_8,96,9999,9999,9999,2293830708
98,21,3,ISIP_8,97,9999,9999,9999,2294630512
98,21,3,ISIP_8,98,9999,9999,9999,2295430236
98,21,3,ISIP_8,99,9999,9999,9999,2296231012
98,21,3,ISIP_8,100,9999,9999,9999,2297030748
98,21,3,ISIP_8,101,9999,9999,9999,2297830476
98,21,3,ISIP_8,102,9999,9999,9999,2298630200
98,21,3,ISIP_8,103,9999,9999,9999,2299430972
98,21,3,ISIP_8,104,9999,9999,9999,2300230712
98,21,3,ISIP_8,105,9999,9999,9999,2301030460
98,21,3,ISIP_8,106,9999,9999,9999,2301830244
98,21,3,ISIP_8,107,9999,9999,9999,2302631020
98,21,3,ISIP_8,108,9999,9999,9999,2303430752
98,21,3,ISIP_8,109,9999,9999,9999,2304230480
98,21,3,ISIP_8,110,9999,9999,9999,2305030208
98,21,3,ISIP_8,111,9999,9999,9999,2305830984
98,21,3,ISIP_8,112,9999,9999,9999,2306630740
98,21,3,ISIP_8,113,9999,9999,9999,2307430468
98,21,3,ISIP_8,114,9999,9999,9999,2308230196
98,21,3,ISIP_8,115,9999,9999,9999,2309030972
98,21,3,ISIP_8,116,9999,9999,9999,2309830704
98,21,3,ISIP_8,117,9999,9999,9999,2310630508
98,21,3,ISIP_8,118,9999,9999,9999,2311430236
98,21,3,ISIP_8,119,9999,9999,9999,2312231012
98,21,3,ISIP_8,120,9999,9999,9999,2313030768
98,21,3,ISIP_8,121,9999,9999,9999,2313830496
98,21,3,ISIP_8,122,9999,9999,9999,2314630228
98,21,3,ISIP_8,123,9999,9999,9999,2315431000
98,21,3,ISIP_8,124,9999,9999,9999,2316230732
98,21,3,ISIP_8,125,9999,9999,9999,2317030464
98,21,3,ISIP_8,126,9999,9999,9999,2317830264
98,21,3,ISIP_8,127,9999,9999,9999,2318630964
98,21,3,ISIP_8,128,9999,9999,9999,2319430720
98,21,3,ISIP_8,129,9999,9999,9999,2320230448
98,21,3,ISIP_8,130,9999,9999,9999,2321030252
98,21,3,ISIP_8,131,9999,9999,9999,2321831028
98,21,3,ISIP_8,132,9999,9999,9999,2322630756
98,21,3,ISIP_8,133,9999,9999,9999,2323430484
98,21,3,ISIP_8,134,9999,9999,9999,2324230216
98,21,3,ISIP_8,135,9999,9999,9999,2325030988
98,21,3,ISIP_8,136,9999,9999,9999,2325830736
98,21,3,ISIP_8,137,9999,9999,9999,2326630468
98,21,3,ISIP_8,138,9999,9999,9999,2327430196
98,21,3,ISIP_8,139,9999,9999,9999,2328230972
98,21,3,ISIP_8,140,9999,9999,9999,2329030760
98,21,3,ISIP_8,141,9999,9999,9999,2329830488
98,21,3,ISIP_8,142,9999,9999,9999,2330630220
98,21,3,ISIP_8,143,9999,9999,9999,2331430992
98,21,3,ISIP_8,144,9999,9999,9999,2332230748
98,21,3,ISIP_8,145,9999,9999,9999,2333030480
98,21,3,ISIP_8,146,9999,9999,9999,2333830208
98,21,3,ISIP_8,147,9999,9999,9999,2334630984
98,21,3,ISIP_8,148,9999,9999,9999,2335430712
98,21,3,ISIP_8,149,9999,9999,9999,2336230516
98,22,11,Pattern_Practice,0,5,42,127,2440890884
98,22,11,Pattern_Practice,1,5,42,127,2441390376
98,22,11,Pattern_Practice,2,5,42,127,2441891064
98,22,11,Pattern_Practice,3,5,42,127,2442391004
98,22,11,Pattern_Practice,4,1,48,69,2442845652
98,22,11,Pattern_Practice,5,5,42,127,2442890788
98,22,11,Pattern_Practice,6,1,48,71,2443329864
98,22,11,Pattern_Practice,7,5,42,127,2443391232
98,22,11,Pattern_Practice,8,1,38,70,2443462704
98,22,11,Pattern_Practice,9,1,48,58,2443723744
98,22,11,Pattern_Practice,10,5,42,127,2443891040
98,22,11,Pattern_Practice,11,5,42,127,2444390904
98,22,11,Pattern_Practice,12,1,38,59,2444501880
98,22,11,Pattern_Practice,13,1,48,35,2444505076
98,22,11,Pattern_Practice,14,5,42,127,2444890400
98,22,11,Pattern_Practice,15,5,42,127,2445391092
98,22,11,Pattern_Practice,16,1,38,55,2445434976
98,22,11,Pattern_Practice,17,5,42,127,2445890860
98,22,11,Pattern_Practice,18,1,38,55,2445919784
98,22,11,Pattern_Practice,19,1,38,49,2446386920
98,22,11,Pattern_Practice,20,5,42,127,2446390844
98,22,11,Pattern_Practice,21,1,38,62,2446861460
98,22,11,Pattern_Practice,22,5,42,127,2446891264
98,22,11,Pattern_Practice,23,1,38,57,2447155684
98,22,11,Pattern_Practice,24,1,38,55,2447252528
98,22,11,Pattern_Practice,25,1,38,56,2447384148
98,22,11,Pattern_Practice,26,5,42,127,2447390988
98,22,11,Pattern_Practice,27,1,38,80,2447661892
98,22,11,Pattern_Practice,28,5,42,127,2447890820
98,22,11,Pattern_Practice,29,1,38,58,2447947144
98,22,11,Pattern_Practice,30,1,38,44,2448210960
98,22,11,Pattern_Practice,31,1,38,62,2448302936
98,22,11,Pattern_Practice,32,5,42,127,2448390708
98,22,11,Pattern_Practice,33,1,38,48,2448452780
98,22,11,Pattern_Practice,34,1,38,67,2448723248
98,22,11,Pattern_Practice,35,5,42,127,2448891264
98,22,11,Pattern_Practice,36,1,38,59,2449000020
98,22,11,Pattern_Practice,37,1,38,56,2449248128
98,22,11,Pattern_Practice,38,1,38,56,2449368604
98,22,11,Pattern_Practice,39,5,42,127,2449391076
98,22,11,Pattern_Practice,40,1,38,51,2449520016
98,22,11,Pattern_Practice,41,1,38,23,2449630844
98,22,11,Pattern_Practice,42,1,38,67,2449777676
98,22,11,Pattern_Practice,43,5,42,127,2449890864
98,22,11,Pattern_Practice,44,1,38,55,2450050932
98,22,11,Pattern_Practice,45,1,38,70,2450144856
98,22,11,Pattern_Practice,46,1,38,51,2450285632
98,22,11,Pattern_Practice,47,1,38,30,2450347244
98,22,11,Pattern_Practice,48,5,42,127,2450391480
98,22,11,Pattern_Practice,49,1,38,62,2450493572
98,22,11,Pattern_Practice,50,1,38,45,2450577244
98,22,11,Pattern_Practice,51,1,38,37,2450690100
98,22,11,Pattern_Practice,52,1,38,53,2450840892
98,22,11,Pattern_Practice,53,5,42,127,2450891040
98,22,11,Pattern_Practice,54,1,38,26,2450942988
98,22,11,Pattern_Practice,55,1,38,26,2451055408
98,22,11,Pattern_Practice,56,1,38,48,2451194964
98,22,11,Pattern_Practice,57,1,38,36,2451295112
98,22,11,Pattern_Practice,58,5,42,127,2451390728
98,22,11,Pattern_Practice,59,1,38,20,2451408356
98,22,11,Pattern_Practice,60,1,38,49,2451553916
98,22,11,Pattern_Practice,61,1,38,37,2451656968
98,22,11,Pattern_Practice,62,1,38,20,2451783300
98,22,11,Pattern_Practice,63,5,42,127,2451890656
98,22,11,Pattern_Practice,64,1,38,56,2451915240
98,22,11,Pattern_Practice,65,1,38,38,2452015596
98,22,11,Pattern_Practice,66,1,38,27,2452137300
98,22,11,Pattern_Practice,67,1,38,58,2452266080
98,22,11,Pattern_Practice,68,1,38,46,2452372968
98,22,11,Pattern_Practice,69,5,42,127,2452391328
98,22,11,Pattern_Practice,70,1,38,39,2452501020
98,22,11,Pattern_Practice,71,1,38,53,2452625784
98,22,11,Pattern_Practice,72,1,38,45,2452745060
98,22,11,Pattern_Practice,73,1,38,38,2452862348
98,22,11,Pattern_Practice,74,5,42,127,2452890956
98,22,11,Pattern_Practice,75,1,38,52,2453000872
98,22,11,Pattern_Practice,76,1,38,43,2453108284
98,22,11,Pattern_Practice,77,1,38,37,2453229736
98,22,11,Pattern_Practice,78,1,38,53,2453369680
98,22,11,Pattern_Practice,79,5,42,127,2453390736
98,22,11,Pattern_Practice,80,1,38,50,2453483968
98,22,11,Pattern_Practice,81,1,38,40,2453594448
98,22,11,Pattern_Practice,82,1,38,61,2453736544
98,22,11,Pattern_Practice,83,5,42,127,2453890596
98,22,11,Pattern_Practice,84,1,48,76,2453990348
98,22,11,Pattern_Practice,85,1,48,70,2454258428
98,22,11,Pattern_Practice,86,5,42,127,2454391164
98,22,11,Pattern_Practice,87,1,48,86,2454522036
98,22,11,Pattern_Practice,88,1,48,80,2454836440
98,22,11,Pattern_Practice,89,5,42,127,2454890852
98,22,11,Pattern_Practice,90,5,42,127,2455390552
98,22,11,Pattern_Practice,91,1,48,53,2455418876
98,22,11,Pattern_Practice,92,1,38,31,2455469044
98,22,11,Pattern_Practice,93,5,42,127,2455891396
98,22,11,Pattern_Practice,94,1,48,57,2455901400
98,22,11,Pattern_Practice,95,1,48,68,2456354596
98,22,11,Pattern_Practice,96,1,38,71,2456357948
98,22,11,Pattern_Practice,97,5,42,127,2456390988
98,22,11,Pattern_Practice,98,1,48,61,2456849084
98,22,11,Pattern_Practice,99,5,42,127,2456890580
98,22,11,Pattern_Practice,100,1,38,71,2457343912
98,22,11,Pattern_Practice,101,1,48,59,2457347192
98,22,11,Pattern_Practice,102,5,42,127,2457390528
98,22,11,Pattern_Practice,103,1,48,71,2457842968
98,22,11,Pattern_Practice,104,5,42,127,2457891096
98,22,11,Pattern_Practice,105,1,38,77,2458104852
98,22,11,Pattern_Practice,106,1,38,65,2458222960
98,22,11,Pattern_Practice,107,1,38,61,2458326236
98,22,11,Pattern_Practice,108,5,42,127,2458390744
98,22,11,Pattern_Practice,109,1,38,88,2458580712
98,22,11,Pattern_Practice,110,1,48,65,2458842660
98,22,11,Pattern_Practice,111,5,42,127,2458890716
98,22,11,Pattern_Practice,112,1,38,83,2459355220
98,22,11,Pattern_Practice,113,1,48,68,2459357668
98,22,11,Pattern_Practice,114,5,42,127,2459391436
98,22,11,Pattern_Practice,115,1,48,76,2459861820
98,22,11,Pattern_Practice,116,5,42,127,2459891028
98,22,11,Pattern_Practice,117,1,48,69,2460357624
98,22,11,Pattern_Practice,118,1,38,72,2460360828
98,22,11,Pattern_Practice,119,5,42,127,2460390780
98,22,11,Pattern_Practice,120,1,48,70,2460862888
98,22,11,Pattern_Practice,121,5,42,127,2460890520
98,22,11,Pattern_Practice,122,1,38,80,2461371108
98,22,11,Pattern_Practice,123,1,48,60,2461380364
98,22,11,Pattern_Practice,124,5,42,127,2461391392
98,22,11,Pattern_Practice,125,1,48,89,2461842484
98,22,11,Pattern_Practice,126,5,42,127,2461890912
98,22,11,Pattern_Practice,127,1,48,73,2462132792
98,22,11,Pattern_Practice,128,1,48,86,2462239284
98,22,11,Pattern_Practice,129,1,48,64,2462380728
98,22,11,Pattern_Practice,130,5,42,127,2462390488
98,22,11,Pattern_Practice,131,1,48,92,2462634688
98,22,11,Pattern_Practice,132,5,42,127,2462891660
98,22,11,Pattern_Practice,133,1,48,81,2462936740
98,22,11,Pattern_Practice,134,5,42,127,2463390984
98,22,11,Pattern_Practice,135,1,38,74,2463416912
98,22,11,Pattern_Practice,136,1,48,73,2463419360
98,22,11,Pattern_Practice,137,5,42,127,2463890928
98,22,11,Pattern_Practice,138,1,48,71,2463922992
98,22,11,Pattern_Practice,139,5,42,127,2464390400
98,22,11,Pattern_Practice,140,1,38,67,2464399348
98,22,11,Pattern_Practice,141,1,48,72,2464409880
98,22,11,Pattern_Practice,142,1,48,65,2464883644
98,22,11,Pattern_Practice,143,5,42,127,2464891460
98,22,11,Pattern_Practice,144,1,48,76,2465146804
98,22,11,Pattern_Practice,145,5,42,127,2465390988
98,22,11,Pattern_Practice,146,1,38,74,2465423052
98,22,11,Pattern_Practice,147,1,48,49,2465690308
98,22,11,Pattern_Practice,148,5,42,127,2465890664
98,22,11,Pattern_Practice,149,1,48,81,2465935892
98,22,11,Pattern_Practice,150,1,48,70,2466178240
98,22,11,Pattern_Practice,151,5,42,127,2466391532
98,22,11,Pattern_Practice,152,1,38,74,2466451576
98,22,11,Pattern_Practice,153,5,42,127,2466891004
98,22,11,Pattern_Practice,154,1,48,77,2466946552
98,22,11,Pattern_Practice,155,5,42,127,2467390696
98,22,11,Pattern_Practice,156,1,48,87,2467406084
98,22,11,Pattern_Practice,157,1,38,84,2467422516
98,22,11,Pattern_Practice,158,5,42,127,2467890420
98,22,11,Pattern_Practice,159,1,48,75,2467900720
98,22,11,Pattern_Practice,160,5,42,127,2468391508
98,22,11,Pattern_Practice,161,1,48,82,2468399492
98,22,11,Pattern_Practice,162,1,38,75,2468409980
98,22,11,Pattern_Practice,163,1,48,87,2468863824
98,22,11,Pattern_Practice,164,5,42,127,2468890864
98,22,11,Pattern_Practice,165,1,38,69,2469151072
98,22,11,Pattern_Practice,166,1,38,64,2469241504
98,22,11,Pattern_Practice,167,5,42,127,2469390672
98,22,11,Pattern_Practice,168,1,38,67,2469399772
98,22,11,Pattern_Practice,169,1,38,84,2469668076
98,22,11,Pattern_Practice,170,5,42,127,2469890492
98,22,11,Pattern_Practice,171,1,38,68,2470124836
98,22,11,Pattern_Practice,172,1,38,80,2470224316
98,22,11,Pattern_Practice,173,1,38,69,2470362672
98,22,11,Pattern_Practice,174,5,42,127,2470391352
98,22,11,Pattern_Practice,175,1,38,99,2470622688
98,22,11,Pattern_Practice,176,1,48,83,2470867356
98,22,11,Pattern_Practice,177,5,42,127,2470890876
98,22,11,Pattern_Practice,178,1,38,79,2471379092
98,22,11,Pattern_Practice,179,1,48,77,2471382288
98,22,11,Pattern_Practice,180,5,42,127,2471390552
98,22,11,Pattern_Practice,181,1,48,68,2471883164
98,22,11,Pattern_Practice,182,5,42,127,2471891500
98,22,11,Pattern_Practice,183,5,42,127,2472390980
98,22,11,Pattern_Practice,184,1,48,72,2472392768
98,22,11,Pattern_Practice,185,1,38,68,2472396332
98,22,11,Pattern_Practice,186,5,42,127,2472890640
98,22,11,Pattern_Practice,187,1,48,64,2472909536
98,22,11,Pattern_Practice,188,1,48,64,2473152260
98,22,11,Pattern_Practice,189,5,42,127,2473390312
98,22,11,Pattern_Practice,190,1,38,88,2473405172
98,22,11,Pattern_Practice,191,1,48,63,2473640416
98,22,11,Pattern_Practice,192,5,42,127,2473891328
98,22,11,Pattern_Practice,193,1,48,72,2473901780
98,22,11,Pattern_Practice,194,1,48,20,2474042028
98,22,11,Pattern_Practice,195,1,38,73,2474370544
98,22,11,Pattern_Practice,196,5,42,127,2474390848
98,22,11,Pattern_Practice,197,5,42,127,2474890548
98,22,11,Pattern_Practice,198,1,48,75,2474892184
98,22,11,Pattern_Practice,199,1,48,58,2475155616
98,22,11,Pattern_Practice,200,5,42,127,2475391416
98,22,11,Pattern_Practice,201,1,38,55,2475418172
98,22,11,Pattern_Practice,202,1,48,66,2475640772
98,22,11,Pattern_Practice,203,5,42,127,2475891168
98,22,11,Pattern_Practice,204,1,48,62,2475920468
98,22,11,Pattern_Practice,205,1,38,73,2476150468
98,22,11,Pattern_Practice,206,5,42,127,2476390768
98,22,11,Pattern_Practice,207,1,38,77,2476414900
98,22,11,Pattern_Practice,208,5,42,127,2476890536
98,22,11,Pattern_Practice,209,1,48,78,2476933296
98,22,11,Pattern_Practice,210,1,48,69,2477175716
98,22,11,Pattern_Practice,211,5,42,127,2477391256
98,22,11,Pattern_Practice,212,1,38,79,2477427580
98,22,11,Pattern_Practice,213,1,48,72,2477663048
98,22,11,Pattern_Practice,214,5,42,127,2477890928
98,22,11,Pattern_Practice,215,1,48,61,2477917832
98,22,11,Pattern_Practice,216,1,38,92,2478185760
98,22,11,Pattern_Practice,217,5,42,127,2478390676
98,22,11,Pattern_Practice,218,1,38,76,2478416532
98,22,11,Pattern_Practice,219,5,42,127,2478891316
98,22,11,Pattern_Practice,220,1,48,79,2478914204
98,22,11,Pattern_Practice,221,1,48,70,2479174504
98,22,11,Pattern_Practice,222,5,42,127,2479391212
98,22,11,Pattern_Practice,223,1,38,85,2479420308
98,22,11,Pattern_Practice,224,1,38,64,2479663160
98,22,11,Pattern_Practice,225,5,42,127,2479890788
98,22,11,Pattern_Practice,226,1,38,79,2479927592
98,22,11,Pattern_Practice,227,1,38,75,2480173280
98,22,11,Pattern_Practice,228,5,42,127,2480390612
98,22,11,Pattern_Practice,229,1,38,90,2480423276
98,22,11,Pattern_Practice,0,9999,9999,9999,2440888372
98,22,11,Pattern_Practice,1,9999,9999,9999,2441388088
98,22,11,Pattern_Practice,2,9999,9999,9999,2441888852
98,22,11,Pattern_Practice,3,9999,9999,9999,2442388568
98,22,11,Pattern_Practice,4,9999,9999,9999,2442888280
98,22,11,Pattern_Practice,5,9999,9999,9999,2443389020
98,22,11,Pattern_Practice,6,9999,9999,9999,2443888752
98,22,11,Pattern_Practice,7,9999,9999,9999,2444388468
98,22,11,Pattern_Practice,8,9999,9999,9999,2444888112
98,22,11,Pattern_Practice,9,9999,9999,9999,2445388876
98,22,11,Pattern_Practice,10,9999,9999,9999,2445888572
98,22,11,Pattern_Practice,11,9999,9999,9999,2446388336
98,22,11,Pattern_Practice,12,9999,9999,9999,2446889052
98,22,11,Pattern_Practice,13,9999,9999,9999,2447388776
98,22,11,Pattern_Practice,14,9999,9999,9999,2447888456
98,22,11,Pattern_Practice,15,9999,9999,9999,2448388196
98,22,11,Pattern_Practice,16,9999,9999,9999,2448888900
98,22,11,Pattern_Practice,17,9999,9999,9999,2449388644
98,22,11,Pattern_Practice,18,9999,9999,9999,2449888352
98,22,11,Pattern_Practice,19,9999,9999,9999,2450389044
98,22,11,Pattern_Practice,20,9999,9999,9999,2450888752
98,22,11,Pattern_Practice,21,9999,9999,9999,2451388516
98,22,11,Pattern_Practice,22,9999,9999,9999,2451888220
98,22,11,Pattern_Practice,23,9999,9999,9999,2452388968
98,22,11,Pattern_Practice,24,9999,9999,9999,2452888668
98,22,11,Pattern_Practice,25,9999,9999,9999,2453388372
98,22,11,Pattern_Practice,26,9999,9999,9999,2453888084
98,22,11,Pattern_Practice,27,9999,9999,9999,2454388800
98,22,11,Pattern_Practice,28,9999,9999,9999,2454888564
98,22,11,Pattern_Practice,29,9999,9999,9999,2455388264
98,22,11,Pattern_Practice,30,9999,9999,9999,2455888960
98,22,11,Pattern_Practice,31,9999,9999,9999,2456388704
98,22,11,Pattern_Practice,32,9999,9999,9999,2456888368
98,22,11,Pattern_Practice,33,9999,9999,9999,2457388092
98,22,11,Pattern_Practice,34,9999,9999,9999,2457888880
98,22,11,Pattern_Practice,35,9999,9999,9999,2458388532
98,22,11,Pattern_Practice,36,9999,9999,9999,2458888280
98,22,11,Pattern_Practice,37,9999,9999,9999,2459389000
98,22,11,Pattern_Practice,38,9999,9999,9999,2459888740
98,22,11,Pattern_Practice,39,9999,9999,9999,2460388416
98,22,11,Pattern_Practice,40,9999,9999,9999,2460888160
98,22,11,Pattern_Practice,41,9999,9999,9999,2461388884
98,22,11,Pattern_Practice,42,9999,9999,9999,2461888624
98,22,11,Pattern_Practice,43,9999,9999,9999,2462388276
98,22,11,Pattern_Practice,44,9999,9999,9999,2462889076
98,22,11,Pattern_Practice,45,9999,9999,9999,2463388768
98,22,11,Pattern_Practice,46,9999,9999,9999,2463888492
98,22,11,Pattern_Practice,47,9999,9999,9999,2464388188
98,22,11,Pattern_Practice,48,9999,9999,9999,2464888948
98,22,11,Pattern_Practice,49,9999,9999,9999,2465388628
98,22,11,Pattern_Practice,50,9999,9999,9999,2465888376
98,22,11,Pattern_Practice,51,9999,9999,9999,2466389092
98,22,11,Pattern_Practice,52,9999,9999,9999,2466888788
98,22,11,Pattern_Practice,53,9999,9999,9999,2467388484
98,22,11,Pattern_Practice,54,9999,9999,9999,2467888204
98,22,11,Pattern_Practice,55,9999,9999,9999,2468388924
98,22,11,Pattern_Practice,56,9999,9999,9999,2468888652
98,22,11,Pattern_Practice,57,9999,9999,9999,2469388384
98,22,11,Pattern_Practice,58,9999,9999,9999,2469888056
98,22,11,Pattern_Practice,59,9999,9999,9999,2470388840
98,22,11,Pattern_Practice,60,9999,9999,9999,2470888512
98,22,11,Pattern_Practice,61,9999,9999,9999,2471388264
98,22,11,Pattern_Practice,62,9999,9999,9999,2471888988
98,22,11,Pattern_Practice,63,9999,9999,9999,2472388692
98,22,11,Pattern_Practice,64,9999,9999,9999,2472888424
98,22,11,Pattern_Practice,65,9999,9999,9999,2473388100
98,22,11,Pattern_Practice,66,9999,9999,9999,2473888820
98,22,11,Pattern_Practice,67,9999,9999,9999,2474388560
98,22,11,Pattern_Practice,68,9999,9999,9999,2474888260
98,22,11,Pattern_Practice,69,9999,9999,9999,2475388980
98,22,11,Pattern_Practice,70,9999,9999,9999,2475888732
98,22,11,Pattern_Practice,71,9999,9999,9999,2476388404
98,22,11,Pattern_Practice,72,9999,9999,9999,2476888172
98,22,11,Pattern_Practice,73,9999,9999,9999,2477388892
98,22,11,Pattern_Practice,74,9999,9999,9999,2477888564
98,22,11,Pattern_Practice,75,9999,9999,9999,2478388312
98,22,11,Pattern_Practice,76,9999,9999,9999,2478889028
98,22,11,Pattern_Practice,77,9999,9999,9999,2479388776
98,22,11,Pattern_Practice,78,9999,9999,9999,2479888500
98,22,11,Pattern_Practice,79,9999,9999,9999,2480388172
98,23,13,Improv_Metronome,0,5,42,127,2511296808
98,23,13,Improv_Metronome,1,5,42,127,2511796748
98,23,13,Improv_Metronome,2,5,42,127,2512297212
98,23,13,Improv_Metronome,3,5,42,127,2512796928
98,23,13,Improv_Metronome,4,1,48,73,2513266236
98,23,13,Improv_Metronome,5,5,42,127,2513296712
98,23,13,Improv_Metronome,6,5,42,127,2513796640
98,23,13,Improv_Metronome,7,1,38,72,2513828184
98,23,13,Improv_Metronome,8,1,48,66,2514077788
98,23,13,Improv_Metronome,9,5,42,127,2514297136
98,23,13,Improv_Metronome,10,1,48,54,2514616900
98,23,13,Improv_Metronome,11,5,42,127,2514796760
98,23,13,Improv_Metronome,12,1,38,77,2514857396
98,23,13,Improv_Metronome,13,5,42,127,2515296824
98,23,13,Improv_Metronome,14,1,48,66,2515354172
98,23,13,Improv_Metronome,15,5,42,127,2515797568
98,23,13,Improv_Metronome,16,1,38,65,2515843472
98,23,13,Improv_Metronome,17,1,48,61,2516087536
98,23,13,Improv_Metronome,18,5,42,127,2516297016
98,23,13,Improv_Metronome,19,1,48,52,2516322800
98,23,13,Improv_Metronome,20,1,48,59,2516557592
98,23,13,Improv_Metronome,21,5,42,127,2516796768
98,23,13,Improv_Metronome,22,1,38,71,2516810428
98,23,13,Improv_Metronome,23,1,48,63,2517295180
98,23,13,Improv_Metronome,24,5,42,127,2517296676
98,23,13,Improv_Metronome,25,1,48,57,2517524772
98,23,13,Improv_Metronome,26,1,38,67,2517787536
98,23,13,Improv_Metronome,27,5,42,127,2517797444
98,23,13,Improv_Metronome,28,1,48,54,2518029084
98,23,13,Improv_Metronome,29,1,48,52,2518282872
98,23,13,Improv_Metronome,30,5,42,127,2518296968
98,23,13,Improv_Metronome,31,1,48,59,2518518356
98,23,13,Improv_Metronome,32,1,38,81,2518780452
98,23,13,Improv_Metronome,33,5,42,127,2518796644
98,23,13,Improv_Metronome,34,1,48,62,2519272744
98,23,13,Improv_Metronome,35,5,42,127,2519297384
98,23,13,Improv_Metronome,36,1,38,84,2519533504
98,23,13,Improv_Metronome,37,1,38,64,2519629548
98,23,13,Improv_Metronome,38,1,38,66,2519791020
98,23,13,Improv_Metronome,39,5,42,127,2519797036
98,23,13,Improv_Metronome,40,1,38,81,2520044676
98,23,13,Improv_Metronome,41,5,42,127,2520296716
98,23,13,Improv_Metronome,42,1,38,68,2520530756
98,23,13,Improv_Metronome,43,1,38,103,2520679304
98,23,13,Improv_Metronome,44,1,38,71,2520771360
98,23,13,Improv_Metronome,45,5,42,127,2520796528
98,23,13,Improv_Metronome,46,1,38,95,2521042748
98,23,13,Improv_Metronome,47,1,48,76,2521295508
98,23,13,Improv_Metronome,48,5,42,127,2521297324
98,23,13,Improv_Metronome,49,1,38,78,2521775740
98,23,13,Improv_Metronome,50,5,42,127,2521797016
98,23,13,Improv_Metronome,51,1,48,76,2522047352
98,23,13,Improv_Metronome,52,5,42,127,2522296700
98,23,13,Improv_Metronome,53,1,48,52,2522303560
98,23,13,Improv_Metronome,54,1,48,61,2522520172
98,23,13,Improv_Metronome,55,1,38,92,2522770528
98,23,13,Improv_Metronome,56,5,42,127,2522797412
98,23,13,Improv_Metronome,57,1,48,72,2523283380
98,23,13,Improv_Metronome,58,5,42,127,2523297108
98,23,13,Improv_Metronome,59,1,38,74,2523782632
98,23,13,Improv_Metronome,60,5,42,127,2523796876
98,23,13,Improv_Metronome,61,1,38,67,2524030232
98,23,13,Improv_Metronome,62,1,38,81,2524148016
98,23,13,Improv_Metronome,63,1,48,43,2524280632
98,23,13,Improv_Metronome,64,5,42,127,2524296528
98,23,13,Improv_Metronome,65,1,48,78,2524565712
98,23,13,Improv_Metronome,66,5,42,127,2524797548
98,23,13,Improv_Metronome,67,1,38,67,2524817948
98,23,13,Improv_Metronome,68,1,48,71,2525077800
98,23,13,Improv_Metronome,69,5,42,127,2525296928
98,23,13,Improv_Metronome,70,1,48,69,2525334224
98,23,13,Improv_Metronome,71,5,42,127,2525796620
98,23,13,Improv_Metronome,72,1,38,94,2525840952
98,23,13,Improv_Metronome,73,1,38,76,2526067368
98,23,13,Improv_Metronome,74,5,42,127,2526296444
98,23,13,Improv_Metronome,75,1,38,87,2526342424
98,23,13,Improv_Metronome,76,1,48,74,2526586116
98,23,13,Improv_Metronome,77,5,42,127,2526797088
98,23,13,Improv_Metronome,78,1,38,94,2526860116
98,23,13,Improv_Metronome,79,5,42,127,2527296932
98,23,13,Improv_Metronome,80,1,48,73,2527346800
98,23,13,Improv_Metronome,81,5,42,127,2527796700
98,23,13,Improv_Metronome,82,1,38,82,2527804608
98,23,13,Improv_Metronome,83,1,48,64,2528041768
98,23,13,Improv_Metronome,84,5,42,127,2528297468
98,23,13,Improv_Metronome,85,1,48,61,2528304128
98,23,13,Improv_Metronome,86,1,48,62,2528540316
98,23,13,Improv_Metronome,87,1,38,76,2528776756
98,23,13,Improv_Metronome,88,5,42,127,2528796912
98,23,13,Improv_Metronome,89,1,48,80,2529273680
98,23,13,Improv_Metronome,90,5,42,127,2529296680
98,23,13,Improv_Metronome,91,5,42,127,2529796604
98,23,13,Improv_Metronome,92,1,38,87,2529801300
98,23,13,Improv_Metronome,93,1,48,71,2530047532
98,23,13,Improv_Metronome,94,5,42,127,2530297476
98,23,13,Improv_Metronome,95,1,48,73,2530540724
98,23,13,Improv_Metronome,96,1,38,73,2530755316
98,23,13,Improv_Metronome,97,5,42,127,2530797012
98,23,13,Improv_Metronome,98,1,48,74,2531056852
98,23,13,Improv_Metronome,99,5,42,127,2531296544
98,23,13,Improv_Metronome,100,1,48,64,2531299288
98,23,13,Improv_Metronome,101,1,38,83,2531793208
98,23,13,Improv_Metronome,102,5,42,127,2531797432
98,23,13,Improv_Metronome,103,1,48,61,2532038640
98,23,13,Improv_Metronome,104,5,42,127,2532297036
98,23,13,Improv_Metronome,105,1,48,59,2532302104
98,23,13,Improv_Metronome,106,1,38,83,2532552152
98,23,13,Improv_Metronome,107,5,42,127,2532796636
98,23,13,Improv_Metronome,108,1,38,78,2532806632
98,23,13,Improv_Metronome,109,1,48,66,2533070900
98,23,13,Improv_Metronome,110,5,42,127,2533296456
98,23,13,Improv_Metronome,111,1,48,60,2533323360
98,23,13,Improv_Metronome,112,5,42,127,2533797496
98,23,13,Improv_Metronome,113,1,38,89,2533828816
98,23,13,Improv_Metronome,114,1,48,72,2534050968
98,23,13,Improv_Metronome,115,5,42,127,2534296944
98,23,13,Improv_Metronome,116,1,48,99,2534308368
98,23,13,Improv_Metronome,117,1,48,85,2534538820
98,23,13,Improv_Metronome,118,1,38,99,2534795644
98,23,13,Improv_Metronome,119,5,42,127,2534798632
98,23,13,Improv_Metronome,120,1,48,66,2535042384
98,23,13,Improv_Metronome,121,5,42,127,2535297340
98,23,13,Improv_Metronome,122,1,38,91,2535306740
98,23,13,Improv_Metronome,123,1,48,64,2535574596
98,23,13,Improv_Metronome,124,5,42,127,2535797384
98,23,13,Improv_Metronome,125,1,38,83,2535826536
98,23,13,Improv_Metronome,126,1,48,57,2536055944
98,23,13,Improv_Metronome,127,5,42,127,2536296836
98,23,13,Improv_Metronome,128,1,38,104,2536329724
98,23,13,Improv_Metronome,129,1,48,69,2536580596
98,23,13,Improv_Metronome,130,5,42,127,2536796580
98,23,13,Improv_Metronome,131,1,38,100,2536842032
98,23,13,Improv_Metronome,132,1,48,72,2537069800
98,23,13,Improv_Metronome,133,5,42,127,2537297448
98,23,13,Improv_Metronome,134,1,38,123,2537341484
98,23,13,Improv_Metronome,135,1,38,92,2537599388
98,23,13,Improv_Metronome,136,1,38,95,2537706924
98,23,13,Improv_Metronome,137,5,42,127,2537797188
98,23,13,Improv_Metronome,138,1,38,74,2537815552
98,23,13,Improv_Metronome,139,1,38,113,2538083780
98,23,13,Improv_Metronome,140,5,42,127,2538296624
98,23,13,Improv_Metronome,141,1,38,94,2538335348
98,23,13,Improv_Metronome,142,1,38,82,2538634540
98,23,13,Improv_Metronome,143,5,42,127,2538797568
98,23,13,Improv_Metronome,144,1,38,95,2538856712
98,23,13,Improv_Metronome,145,5,42,127,2539297308
98,23,13,Improv_Metronome,146,5,42,127,2539796876
98,23,13,Improv_Metronome,147,1,38,96,2539799996
98,23,13,Improv_Metronome,148,1,48,70,2539808880
98,23,13,Improv_Metronome,149,5,42,127,2540296524
98,23,13,Improv_Metronome,150,1,48,80,2540312060
98,23,13,Improv_Metronome,151,1,48,63,2540534888
98,23,13,Improv_Metronome,152,1,38,72,2540782316
98,23,13,Improv_Metronome,153,5,42,127,2540797312
98,23,13,Improv_Metronome,154,1,48,88,2540799756
98,23,13,Improv_Metronome,155,1,48,54,2541058088
98,23,13,Improv_Metronome,156,5,42,127,2541297180
98,23,13,Improv_Metronome,157,1,48,44,2541329172
98,23,13,Improv_Metronome,158,1,38,82,2541790332
98,23,13,Improv_Metronome,159,1,48,89,2541795804
98,23,13,Improv_Metronome,160,5,42,127,2541797972
98,23,13,Improv_Metronome,161,1,48,77,2542280400
98,23,13,Improv_Metronome,162,5,42,127,2542296296
98,23,13,Improv_Metronome,163,1,48,60,2542528004
98,23,13,Improv_Metronome,164,1,38,82,2542767436
98,23,13,Improv_Metronome,165,1,48,88,2542787688
98,23,13,Improv_Metronome,166,5,42,127,2542797368
98,23,13,Improv_Metronome,167,1,48,61,2543017084
98,23,13,Improv_Metronome,168,1,48,67,2543269528
98,23,13,Improv_Metronome,169,5,42,127,2543297160
98,23,13,Improv_Metronome,170,1,48,99,2543729956
98,23,13,Improv_Metronome,171,1,38,99,2543733748
98,23,13,Improv_Metronome,172,5,42,127,2543796540
98,23,13,Improv_Metronome,173,1,48,72,2544195944
98,23,13,Improv_Metronome,174,5,42,127,2544297312
98,23,13,Improv_Metronome,175,1,48,54,2544456112
98,23,13,Improv_Metronome,176,1,38,81,2544741840
98,23,13,Improv_Metronome,177,1,48,81,2544759396
98,23,13,Improv_Metronome,178,5,42,127,2544797204
98,23,13,Improv_Metronome,179,1,48,58,2545008392
98,23,13,Improv_Metronome,180,1,48,69,2545259868
98,23,13,Improv_Metronome,181,5,42,127,2545296700
98,23,13,Improv_Metronome,182,1,38,119,2545755596
98,23,13,Improv_Metronome,183,5,42,127,2545796392
98,23,13,Improv_Metronome,184,1,38,80,2546254836
98,23,13,Improv_Metronome,185,5,42,127,2546297136
98,23,13,Improv_Metronome,186,1,38,74,2546550016
98,23,13,Improv_Metronome,187,1,38,57,2546732524
98,23,13,Improv_Metronome,188,5,42,127,2546796884
98,23,13,Improv_Metronome,189,1,38,103,2547031216
98,23,13,Improv_Metronome,190,1,48,81,2547268472
98,23,13,Improv_Metronome,191,5,42,127,2547296560
98,23,13,Improv_Metronome,192,1,38,82,2547776324
98,23,13,Improv_Metronome,193,1,48,85,2547786180
98,23,13,Improv_Metronome,194,5,42,127,2547797208
98,23,13,Improv_Metronome,195,1,48,74,2548038988
98,23,13,Improv_Metronome,196,1,48,62,2548275580
98,23,13,Improv_Metronome,197,5,42,127,2548297080
98,23,13,Improv_Metronome,198,1,48,86,2548526020
98,23,13,Improv_Metronome,199,5,42,127,2548796980
98,23,13,Improv_Metronome,200,1,38,81,2548806532
98,23,13,Improv_Metronome,201,5,42,127,2549296600
98,23,13,Improv_Metronome,202,1,48,94,2549304956
98,23,13,Improv_Metronome,203,5,42,127,2549797168
98,23,13,Improv_Metronome,204,1,38,99,2549801412
98,23,13,Improv_Metronome,205,1,48,82,2550033884
98,23,13,Improv_Metronome,206,1,48,62,2550297360
98,23,13,Improv_Metronome,207,5,42,127,2550298476
98,23,13,Improv_Metronome,208,1,48,69,2550537668
98,23,13,Improv_Metronome,209,1,38,109,2550783160
98,23,13,Improv_Metronome,210,5,42,127,2550796508
98,23,13,Improv_Metronome,211,5,42,127,2551297404
98,23,13,Improv_Metronome,212,1,48,72,2551334776
98,23,13,Improv_Metronome,213,1,38,80,2551790852
98,23,13,Improv_Metronome,214,5,42,127,2551797316
98,23,13,Improv_Metronome,215,1,48,72,2552024908
98,23,13,Improv_Metronome,216,1,48,66,2552283640
98,23,13,Improv_Metronome,217,5,42,127,2552296764
98,23,13,Improv_Metronome,218,1,48,68,2552539020
98,23,13,Improv_Metronome,219,1,38,105,2552777104
98,23,13,Improv_Metronome,220,5,42,127,2552796512
98,23,13,Improv_Metronome,221,1,48,90,2553269396
98,23,13,Improv_Metronome,222,5,42,127,2553297252
98,23,13,Improv_Metronome,223,1,38,88,2553781880
98,23,13,Improv_Metronome,224,5,42,127,2553796948
98,23,13,Improv_Metronome,225,1,38,73,2554060900
98,23,13,Improv_Metronome,226,1,38,122,2554166664
98,23,13,Improv_Metronome,227,5,42,127,2554296536
98,23,13,Improv_Metronome,228,1,38,73,2554420476
98,23,13,Improv_Metronome,229,1,38,122,2554527864
98,23,13,Improv_Metronome,230,5,42,127,2554797328
98,23,13,Improv_Metronome,231,1,38,81,2554800968
98,23,13,Improv_Metronome,232,1,38,111,2554911128
98,23,13,Improv_Metronome,233,1,38,88,2555194784
98,23,13,Improv_Metronome,234,5,42,127,2555297128
98,23,13,Improv_Metronome,235,1,48,76,2555455776
98,23,13,Improv_Metronome,236,5,42,127,2555797120
98,23,13,Improv_Metronome,237,1,38,77,2555827396
98,23,13,Improv_Metronome,238,1,48,75,2556088368
98,23,13,Improv_Metronome,239,5,42,127,2556296420
98,23,13,Improv_Metronome,240,1,48,71,2556318684
98,23,13,Improv_Metronome,241,1,48,67,2556556020
98,23,13,Improv_Metronome,242,1,38,97,2556791264
98,23,13,Improv_Metronome,243,5,42,127,2556797280
98,23,13,Improv_Metronome,244,1,48,92,2557286624
98,23,13,Improv_Metronome,245,5,42,127,2557297052
98,23,13,Improv_Metronome,246,5,42,127,2557796900
98,23,13,Improv_Metronome,247,1,38,95,2557805928
98,23,13,Improv_Metronome,248,1,48,73,2558057928
98,23,13,Improv_Metronome,249,5,42,127,2558296500
98,23,13,Improv_Metronome,250,1,48,67,2558322956
98,23,13,Improv_Metronome,251,1,48,66,2558569116
98,23,13,Improv_Metronome,252,5,42,127,2558797144
98,23,13,Improv_Metronome,253,1,38,121,2558810812
98,23,13,Improv_Metronome,254,5,42,127,2559296840
98,23,13,Improv_Metronome,255,1,48,82,2559318060
98,23,13,Improv_Metronome,256,5,42,127,2559796608
98,23,13,Improv_Metronome,257,1,38,103,2559803472
98,23,13,Improv_Metronome,258,1,48,69,2560037412
98,23,13,Improv_Metronome,259,1,38,82,2560134888
98,23,13,Improv_Metronome,260,5,42,127,2560297344
98,23,13,Improv_Metronome,261,1,48,70,2560336068
98,23,13,Improv_Metronome,262,1,38,89,2560447192
98,23,13,Improv_Metronome,263,1,48,67,2560662092
98,23,13,Improv_Metronome,264,1,38,119,2560775540
98,23,13,Improv_Metronome,265,5,42,127,2560797112
98,23,13,Improv_Metronome,266,5,42,127,2561296888
98,23,13,Improv_Metronome,267,1,48,100,2561300304
98,23,13,Improv_Metronome,268,1,38,112,2561783976
98,23,13,Improv_Metronome,269,5,42,127,2561796352
98,23,13,Improv_Metronome,270,1,48,65,2562020056
98,23,13,Improv_Metronome,271,1,38,89,2562129192
98,23,13,Improv_Metronome,272,5,42,127,2562297132
98,23,13,Improv_Metronome,273,1,48,83,2562370136
98,23,13,Improv_Metronome,274,1,38,96,2562457856
98,23,13,Improv_Metronome,275,1,48,87,2562672572
98,23,13,Improv_Metronome,276,1,38,95,2562772852
98,23,13,Improv_Metronome,277,5,42,127,2562796900
98,23,13,Improv_Metronome,278,1,48,96,2563278756
98,23,13,Improv_Metronome,279,5,42,127,2563296740
98,23,13,Improv_Metronome,280,1,38,117,2563783840
98,23,13,Improv_Metronome,281,5,42,127,2563797336
98,23,13,Improv_Metronome,282,1,48,64,2564037048
98,23,13,Improv_Metronome,283,1,38,96,2564125512
98,23,13,Improv_Metronome,284,5,42,127,2564297056
98,23,13,Improv_Metronome,285,1,48,69,2564352608
98,23,13,Improv_Metronome,286,1,38,104,2564436028
98,23,13,Improv_Metronome,287,1,48,94,2564656356
98,23,13,Improv_Metronome,288,1,38,95,2564745192
98,23,13,Improv_Metronome,289,5,42,127,2564796896
98,23,13,Improv_Metronome,290,1,48,102,2565279356
98,23,13,Improv_Metronome,291,5,42,127,2565296444
98,23,13,Improv_Metronome,292,1,38,94,2565795908
98,23,13,Improv_Metronome,293,5,42,127,2565798980
98,23,13,Improv_Metronome,294,1,38,69,2566074596
98,23,13,Improv_Metronome,295,1,38,105,2566194352
98,23,13,Improv_Metronome,296,5,42,127,2566296844
98,23,13,Improv_Metronome,297,1,38,76,2566427044
98,23,13,Improv_Metronome,298,1,38,107,2566532956
98,23,13,Improv_Metronome,299,5,42,127,2566796740
98,23,13,Improv_Metronome,300,1,38,127,2566812800
98,23,13,Improv_Metronome,301,5,42,127,2567297260
98,23,13,Improv_Metronome,302,1,48,109,2567330368
98,23,13,Improv_Metronome,303,5,42,127,2567797028
98,23,13,Improv_Metronome,304,1,38,127,2567818772
98,23,13,Improv_Metronome,305,1,38,80,2568084376
98,23,13,Improv_Metronome,306,1,38,107,2568190868
98,23,13,Improv_Metronome,307,5,42,127,2568296680
98,23,13,Improv_Metronome,308,1,38,105,2568421340
98,23,13,Improv_Metronome,309,1,38,96,2568527632
98,23,13,Improv_Metronome,310,1,38,118,2568789948
98,23,13,Improv_Metronome,311,5,42,127,2568796492
98,23,13,Improv_Metronome,312,1,48,79,2569050716
98,23,13,Improv_Metronome,313,5,42,127,2569297220
98,23,13,Improv_Metronome,314,1,48,114,2569322476
98,23,13,Improv_Metronome,315,5,42,127,2569797136
98,23,13,Improv_Metronome,316,1,38,121,2569828828
98,23,13,Improv_Metronome,317,1,38,89,2570104384
98,23,13,Improv_Metronome,318,1,38,95,2570200704
98,23,13,Improv_Metronome,319,5,42,127,2570296728
98,23,13,Improv_Metronome,320,1,38,71,2570432972
98,23,13,Improv_Metronome,321,1,38,94,2570526824
98,23,13,Improv_Metronome,322,1,38,118,2570779564
98,23,13,Improv_Metronome,323,5,42,127,2570797428
98,23,13,Improv_Metronome,324,1,48,84,2571055468
98,23,13,Improv_Metronome,325,5,42,127,2571297156
98,23,13,Improv_Metronome,326,1,48,91,2571323640
98,23,13,Improv_Metronome,327,5,42,127,2571796852
98,23,13,Improv_Metronome,328,1,38,111,2571829540
98,23,13,Improv_Metronome,329,1,38,122,2572087144
98,23,13,Improv_Metronome,330,1,38,78,2572195652
98,23,13,Improv_Metronome,331,5,42,127,2572296800
98,23,13,Improv_Metronome,332,1,38,79,2572417084
98,23,13,Improv_Metronome,333,1,38,77,2572511456
98,23,13,Improv_Metronome,334,1,38,105,2572758960
98,23,13,Improv_Metronome,335,5,42,127,2572797216
98,23,13,Improv_Metronome,336,1,48,75,2573049948
98,23,13,Improv_Metronome,337,5,42,127,2573296972
98,23,13,Improv_Metronome,338,1,48,92,2573300764
98,23,13,Improv_Metronome,339,5,42,127,2573796888
98,23,13,Improv_Metronome,340,1,38,111,2573838228
98,23,13,Improv_Metronome,341,1,38,72,2574107956
98,23,13,Improv_Metronome,342,1,38,94,2574224788
98,23,13,Improv_Metronome,343,5,42,127,2574296628
98,23,13,Improv_Metronome,344,1,38,122,2574459824
98,23,13,Improv_Metronome,345,1,38,127,2574557788
98,23,13,Improv_Metronome,346,5,42,127,2574797108
98,23,13,Improv_Metronome,347,1,38,121,2574837032
98,23,13,Improv_Metronome,348,1,48,74,2575106156
98,23,13,Improv_Metronome,349,5,42,127,2575296780
98,23,13,Improv_Metronome,350,1,48,95,2575363180
98,23,13,Improv_Metronome,351,5,42,127,2575796772
98,23,13,Improv_Metronome,352,1,38,120,2575840956
98,23,13,Improv_Metronome,353,1,38,74,2576091532
98,23,13,Improv_Metronome,354,1,38,94,2576198568
98,23,13,Improv_Metronome,355,5,42,127,2576297248
98,23,13,Improv_Metronome,356,1,38,127,2576417648
98,23,13,Improv_Metronome,357,1,38,101,2576516980
98,23,13,Improv_Metronome,358,1,38,96,2576783492
98,23,13,Improv_Metronome,359,5,42,127,2576796988
98,23,13,Improv_Metronome,360,1,48,71,2577042088
98,23,13,Improv_Metronome,361,5,42,127,2577296744
98,23,13,Improv_Metronome,362,1,48,102,2577307716
98,23,13,Improv_Metronome,363,5,42,127,2577796732
98,23,13,Improv_Metronome,364,1,48,105,2577813768
98,23,13,Improv_Metronome,365,5,42,127,2578297104
98,23,13,Improv_Metronome,366,1,48,107,2578316680
98,23,13,Improv_Metronome,367,5,42,127,2578796872
98,23,13,Improv_Metronome,368,1,48,106,2578810164
98,23,13,Improv_Metronome,369,1,48,110,2579285232
98,23,13,Improv_Metronome,370,5,42,127,2579296708
98,23,13,Improv_Metronome,371,1,48,90,2579534180
98,23,13,Improv_Metronome,372,1,48,89,2579778248
98,23,13,Improv_Metronome,373,5,42,127,2579797428
98,23,13,Improv_Metronome,374,1,48,81,2580025024
98,23,13,Improv_Metronome,375,1,38,127,2580277624
98,23,13,Improv_Metronome,376,5,42,127,2580297028
98,23,13,Improv_Metronome,377,1,48,119,2580309424
98,23,13,Improv_Metronome,378,1,48,127,2580792544
98,23,13,Improv_Metronome,379,5,42,127,2580796836
98,23,13,Improv_Metronome,380,1,38,114,2580799584
98,23,13,Improv_Metronome,381,1,48,106,2581289556
98,23,13,Improv_Metronome,0,9999,9999,9999,2511294520
98,23,13,Improv_Metronome,1,9999,9999,9999,2511794236
98,23,13,Improv_Metronome,2,9999,9999,9999,2512295000
98,23,13,Improv_Metronome,3,9999,9999,9999,2512794716
98,23,13,Improv_Metronome,4,9999,9999,9999,2513294428
98,23,13,Improv_Metronome,5,9999,9999,9999,2513794128
98,23,13,Improv_Metronome,6,9999,9999,9999,2514294848
98,23,13,Improv_Metronome,7,9999,9999,9999,2514794544
98,23,13,Improv_Metronome,8,9999,9999,9999,2515294316
98,23,13,Improv_Metronome,9,9999,9999,9999,2515795056
98,23,13,Improv_Metronome,10,9999,9999,9999,2516294728
98,23,13,Improv_Metronome,11,9999,9999,9999,2516794476
98,23,13,Improv_Metronome,12,9999,9999,9999,2517294172
98,23,13,Improv_Metronome,13,9999,9999,9999,2517794936
98,23,13,Improv_Metronome,14,9999,9999,9999,2518294608
98,23,13,Improv_Metronome,15,9999,9999,9999,2518794356
98,23,13,Improv_Metronome,16,9999,9999,9999,2519295096
98,23,13,Improv_Metronome,17,9999,9999,9999,2519794748
98,23,13,Improv_Metronome,18,9999,9999,9999,2520294500
98,23,13,Improv_Metronome,19,9999,9999,9999,2520794168
98,23,13,Improv_Metronome,20,9999,9999,9999,2521294984
98,23,13,Improv_Metronome,21,9999,9999,9999,2521794656
98,23,13,Improv_Metronome,22,9999,9999,9999,2522294336
98,23,13,Improv_Metronome,23,9999,9999,9999,2522795128
98,23,13,Improv_Metronome,24,9999,9999,9999,2523294820
98,23,13,Improv_Metronome,25,9999,9999,9999,2523794512
98,23,13,Improv_Metronome,26,9999,9999,9999,2524294240
98,23,13,Improv_Metronome,27,9999,9999,9999,2524794964
98,23,13,Improv_Metronome,28,9999,9999,9999,2525294712
98,23,13,Improv_Metronome,29,9999,9999,9999,2525794408
98,23,13,Improv_Metronome,30,9999,9999,9999,2526294080
98,23,13,Improv_Metronome,31,9999,9999,9999,2526794800
98,23,13,Improv_Metronome,32,9999,9999,9999,2527294568
98,23,13,Improv_Metronome,33,9999,9999,9999,2527794264
98,23,13,Improv_Metronome,34,9999,9999,9999,2528295032
98,23,13,Improv_Metronome,35,9999,9999,9999,2528794700
98,23,13,Improv_Metronome,36,9999,9999,9999,2529294392
98,23,13,Improv_Metronome,37,9999,9999,9999,2529794168
98,23,13,Improv_Metronome,38,9999,9999,9999,2530294888
98,23,13,Improv_Metronome,39,9999,9999,9999,2530794576
98,23,13,Improv_Metronome,40,9999,9999,9999,2531294256
98,23,13,Improv_Metronome,41,9999,9999,9999,2531794996
98,23,13,Improv_Metronome,42,9999,9999,9999,2532294748
98,23,13,Improv_Metronome,43,9999,9999,9999,2532794424
98,23,13,Improv_Metronome,44,9999,9999,9999,2533294168
98,23,13,Improv_Metronome,45,9999,9999,9999,2533794908
98,23,13,Improv_Metronome,46,9999,9999,9999,2534294584
98,23,13,Improv_Metronome,47,9999,9999,9999,2534794332
98,23,13,Improv_Metronome,48,9999,9999,9999,2535295052
98,23,13,Improv_Metronome,49,9999,9999,9999,2535794800
98,23,13,Improv_Metronome,50,9999,9999,9999,2536294472
98,23,13,Improv_Metronome,51,9999,9999,9999,2536794220
98,23,13,Improv_Metronome,52,9999,9999,9999,2537294936
98,23,13,Improv_Metronome,53,9999,9999,9999,2537794676
98,23,13,Improv_Metronome,54,9999,9999,9999,2538294336
98,23,13,Improv_Metronome,55,9999,9999,9999,2538795108
98,23,13,Improv_Metronome,56,9999,9999,9999,2539294800
98,23,13,Improv_Metronome,57,9999,9999,9999,2539794516
98,23,13,Improv_Metronome,58,9999,9999,9999,2540294236
98,23,13,Improv_Metronome,59,9999,9999,9999,2540794952
98,23,13,Improv_Metronome,60,9999,9999,9999,2541294672
98,23,13,Improv_Metronome,61,9999,9999,9999,2541794360
98,23,13,Improv_Metronome,62,9999,9999,9999,2542294084
98,23,13,Improv_Metronome,63,9999,9999,9999,2542794856
98,23,13,Improv_Metronome,64,9999,9999,9999,2543294576
98,23,13,Improv_Metronome,65,9999,9999,9999,2543794252
98,23,13,Improv_Metronome,66,9999,9999,9999,2544295024
98,23,13,Improv_Metronome,67,9999,9999,9999,2544794692
98,23,13,Improv_Metronome,68,9999,9999,9999,2545294412
98,23,13,Improv_Metronome,69,9999,9999,9999,2545794108
98,23,13,Improv_Metronome,70,9999,9999,9999,2546294848
98,23,13,Improv_Metronome,71,9999,9999,9999,2546794596
98,23,13,Improv_Metronome,72,9999,9999,9999,2547294272
98,23,13,Improv_Metronome,73,9999,9999,9999,2547794996
98,23,13,Improv_Metronome,74,9999,9999,9999,2548294716
98,23,13,Improv_Metronome,75,9999,9999,9999,2548794472
98,23,13,Improv_Metronome,76,9999,9999,9999,2549294164
98,23,13,Improv_Metronome,77,9999,9999,9999,2549794880
98,23,13,Improv_Metronome,78,9999,9999,9999,2550294628
98,23,13,Improv_Metronome,79,9999,9999,9999,2550794292
98,23,13,Improv_Metronome,80,9999,9999,9999,2551295040
98,23,13,Improv_Metronome,81,9999,9999,9999,2551794804
98,23,13,Improv_Metronome,82,9999,9999,9999,2552294476
98,23,13,Improv_Metronome,83,9999,9999,9999,2552794224
98,23,13,Improv_Metronome,84,9999,9999,9999,2553294964
98,23,13,Improv_Metronome,85,9999,9999,9999,2553794660
98,23,13,Improv_Metronome,86,9999,9999,9999,2554294320
98,23,13,Improv_Metronome,87,9999,9999,9999,2554795116
98,23,13,Improv_Metronome,88,9999,9999,9999,2555294840
98,23,13,Improv_Metronome,89,9999,9999,9999,2555794532
98,23,13,Improv_Metronome,90,9999,9999,9999,2556294208
98,23,13,Improv_Metronome,91,9999,9999,9999,2556794996
98,23,13,Improv_Metronome,92,9999,9999,9999,2557294688
98,23,13,Improv_Metronome,93,9999,9999,9999,2557794388
98,23,13,Improv_Metronome,94,9999,9999,9999,2558294136
98,23,13,Improv_Metronome,95,9999,9999,9999,2558794856
98,23,13,Improv_Metronome,96,9999,9999,9999,2559294552
98,23,13,Improv_Metronome,97,9999,9999,9999,2559794248
98,23,13,Improv_Metronome,98,9999,9999,9999,2560294984
98,23,13,Improv_Metronome,99,9999,9999,9999,2560794676
98,23,13,Improv_Metronome,100,9999,9999,9999,2561294452
98,23,13,Improv_Metronome,101,9999,9999,9999,2561794140
98,23,13,Improv_Metronome,102,9999,9999,9999,2562294844
98,23,13,Improv_Metronome,103,9999,9999,9999,2562794612
98,23,13,Improv_Metronome,104,9999,9999,9999,2563294304
98,23,13,Improv_Metronome,105,9999,9999,9999,2563795048
98,23,13,Improv_Metronome,106,9999,9999,9999,2564294768
98,23,13,Improv_Metronome,107,9999,9999,9999,2564794460
98,23,13,Improv_Metronome,108,9999,9999,9999,2565294156
98,23,13,Improv_Metronome,109,9999,9999,9999,2565794904
98,23,13,Improv_Metronome,110,9999,9999,9999,2566294628
98,23,13,Improv_Metronome,111,9999,9999,9999,2566794304
98,23,13,Improv_Metronome,112,9999,9999,9999,2567295044
98,23,13,Improv_Metronome,113,9999,9999,9999,2567794740
98,23,13,Improv_Metronome,114,9999,9999,9999,2568294464
98,23,13,Improv_Metronome,115,9999,9999,9999,2568794204
98,23,13,Improv_Metronome,116,9999,9999,9999,2569294932
98,23,13,Improv_Metronome,117,9999,9999,9999,2569794624
98,23,13,Improv_Metronome,118,9999,9999,9999,2570294368
98,23,13,Improv_Metronome,119,9999,9999,9999,2570795068
98,23,13,Improv_Metronome,120,9999,9999,9999,2571294792
98,23,13,Improv_Metronome,121,9999,9999,9999,2571794488
98,23,13,Improv_Metronome,122,9999,9999,9999,2572294216
98,23,13,Improv_Metronome,123,9999,9999,9999,2572794928
98,23,13,Improv_Metronome,124,9999,9999,9999,2573294684
98,23,13,Improv_Metronome,125,9999,9999,9999,2573794376
98,23,13,Improv_Metronome,126,9999,9999,9999,2574294116
98,23,13,Improv_Metronome,127,9999,9999,9999,2574794824
98,23,13,Improv_Metronome,128,9999,9999,9999,2575294568
98,23,13,Improv_Metronome,129,9999,9999,9999,2575794264
98,23,13,Improv_Metronome,130,9999,9999,9999,2576294960
98,23,13,Improv_Metronome,131,9999,9999,9999,2576794700
98,23,13,Improv_Metronome,132,9999,9999,9999,2577294456
98,23,13,Improv_Metronome,133,9999,9999,9999,2577794148
98,23,13,Improv_Metronome,134,9999,9999,9999,2578294892
98,23,13,Improv_Metronome,135,9999,9999,9999,2578794584
98,23,13,Improv_Metronome,136,9999,9999,9999,2579294272
98,23,13,Improv_Metronome,137,9999,9999,9999,2579794992
98,23,13,Improv_Metronome,138,9999,9999,9999,2580294740
98,23,13,Improv_Metronome,139,9999,9999,9999,2580794476
98,24,14,Improv_Melody,0,2,48,80,2636039628
98,24,14,Improv_Melody,1,2,72,80,2636042148
98,24,14,Improv_Melody,2,5,42,127,2636043788
98,24,14,Improv_Melody,3,5,42,110,2636537080
98,24,14,Improv_Melody,4,5,42,110,2637036876
98,24,14,Improv_Melody,5,5,42,110,2637536820
98,24,14,Improv_Melody,6,5,42,127,2638037292
98,24,14,Improv_Melody,7,5,42,110,2638537012
98,24,14,Improv_Melody,8,5,42,110,2639036660
98,24,14,Improv_Melody,9,5,42,110,2639536756
98,24,14,Improv_Melody,10,2,43,80,2640039804
98,24,14,Improv_Melody,11,2,67,80,2640042036
98,24,14,Improv_Melody,12,5,42,127,2640044568
98,24,14,Improv_Melody,13,5,42,110,2640536884
98,24,14,Improv_Melody,14,5,42,110,2641036680
98,24,14,Improv_Melody,15,5,42,110,2641537376
98,24,14,Improv_Melody,16,5,42,127,2642037100
98,24,14,Improv_Melody,17,5,42,110,2642536892
98,24,14,Improv_Melody,18,5,42,110,2643036692
98,24,14,Improv_Melody,19,5,42,110,2643537384
98,24,14,Improv_Melody,20,2,45,80,2644039536
98,24,14,Improv_Melody,21,2,69,80,2644041688
98,24,14,Improv_Melody,22,5,42,127,2644044300
98,24,14,Improv_Melody,23,5,42,110,2644536620
98,24,14,Improv_Melody,24,5,42,110,2645037536
98,24,14,Improv_Melody,25,5,42,110,2645537008
98,24,14,Improv_Melody,26,5,42,127,2646036804
98,24,14,Improv_Melody,27,5,42,110,2646536528
98,24,14,Improv_Melody,28,5,42,110,2647037220
98,24,14,Improv_Melody,29,5,42,110,2647536944
98,24,14,Improv_Melody,30,2,41,80,2648039316
98,24,14,Improv_Melody,31,2,65,80,2648041468
98,24,14,Improv_Melody,32,5,42,127,2648043932
98,24,14,Improv_Melody,33,5,42,110,2648536324
98,24,14,Improv_Melody,34,5,42,110,2649037316
98,24,14,Improv_Melody,35,5,42,110,2649536892
98,24,14,Improv_Melody,36,1,38,70,2649936264
98,24,14,Improv_Melody,37,5,42,127,2650036516
98,24,14,Improv_Melody,38,5,42,110,2650537508
98,24,14,Improv_Melody,39,5,42,110,2651037232
98,24,14,Improv_Melody,40,1,38,84,2651066976
98,24,14,Improv_Melody,41,5,42,110,2651536708
98,24,14,Improv_Melody,42,2,48,80,2652039008
98,24,14,Improv_Melody,43,2,72,80,2652041160
98,24,14,Improv_Melody,44,5,42,127,2652043772
98,24,14,Improv_Melody,45,1,48,85,2652048088
98,24,14,Improv_Melody,46,5,42,110,2652537340
98,24,14,Improv_Melody,47,1,38,106,2653026396
98,24,14,Improv_Melody,48,5,42,110,2653036832
98,24,14,Improv_Melody,49,5,42,110,2653536688
98,24,14,Improv_Melody,50,5,42,127,2654037304
98,24,14,Improv_Melody,51,1,48,80,2654304636
98,24,14,Improv_Melody,52,5,42,110,2654537228
98,24,14,Improv_Melody,53,1,48,87,2654542968
98,24,14,Improv_Melody,54,5,42,110,2655036780
98,24,14,Improv_Melody,55,1,38,95,2655073412
98,24,14,Improv_Melody,56,5,42,110,2655536628
98,24,14,Improv_Melody,57,1,48,85,2656035580
98,24,14,Improv_Melody,58,2,43,80,2656039836
98,24,14,Improv_Melody,59,2,67,80,2656042064
98,24,14,Improv_Melody,60,5,42,127,2656044596
98,24,14,Improv_Melody,61,5,42,110,2656536876
98,24,14,Improv_Melody,62,1,38,105,2657012244
98,24,14,Improv_Melody,63,5,42,110,2657036592
98,24,14,Improv_Melody,64,5,42,110,2657537496
98,24,14,Improv_Melody,65,5,42,127,2658037364
98,24,14,Improv_Melody,66,1,48,74,2658299012
98,24,14,Improv_Melody,67,1,48,74,2658528940
98,24,14,Improv_Melody,68,5,42,110,2658536684
98,24,14,Improv_Melody,69,5,42,110,2659036540
98,24,14,Improv_Melody,70,1,38,90,2659064044
98,24,14,Improv_Melody,71,5,42,110,2659537360
98,24,14,Improv_Melody,72,1,38,92,2659554472
98,24,14,Improv_Melody,73,2,45,80,2660039412
98,24,14,Improv_Melody,74,2,69,80,2660041640
98,24,14,Improv_Melody,75,5,42,127,2660044256
98,24,14,Improv_Melody,76,1,48,99,2660093004
98,24,14,Improv_Melody,77,5,42,110,2660536624
98,24,14,Improv_Melody,78,1,38,58,2661020440
98,24,14,Improv_Melody,79,5,42,110,2661037464
98,24,14,Improv_Melody,80,5,42,110,2661537464
98,24,14,Improv_Melody,81,5,42,127,2662036816
98,24,14,Improv_Melody,82,1,38,73,2662258820
98,24,14,Improv_Melody,83,1,48,90,2662488300
98,24,14,Improv_Melody,84,5,42,110,2662536508
98,24,14,Improv_Melody,85,1,38,77,2663009544
98,24,14,Improv_Melody,86,5,42,110,2663037404
98,24,14,Improv_Melody,87,5,42,110,2663537260
98,24,14,Improv_Melody,88,1,48,80,2664018908
98,24,14,Improv_Melody,89,2,41,80,2664039332
98,24,14,Improv_Melody,90,2,65,80,2664041332
98,24,14,Improv_Melody,91,5,42,127,2664043948
98,24,14,Improv_Melody,92,5,42,110,2664536548
98,24,14,Improv_Melody,93,1,38,83,2665026876
98,24,14,Improv_Melody,94,5,42,110,2665037384
98,24,14,Improv_Melody,95,5,42,110,2665537088
98,24,14,Improv_Melody,96,1,38,91,2665792828
98,24,14,Improv_Melody,97,5,42,127,2666036640
98,24,14,Improv_Melody,98,1,38,89,2666274324
98,24,14,Improv_Melody,99,5,42,110,2666537312
98,24,14,Improv_Melody,100,1,38,87,2667013996
98,24,14,Improv_Melody,101,5,42,110,2667037300
98,24,14,Improv_Melody,102,5,42,110,2667536636
98,24,14,Improv_Melody,103,1,48,91,2668032940
98,24,14,Improv_Melody,104,2,48,80,2668039308
98,24,14,Improv_Melody,105,2,72,80,2668041152
98,24,14,Improv_Melody,106,5,42,127,2668043616
98,24,14,Improv_Melody,107,5,42,110,2668537192
98,24,14,Improv_Melody,108,1,38,116,2669006276
98,24,14,Improv_Melody,109,5,42,110,2669037132
98,24,14,Improv_Melody,110,5,42,110,2669536612
98,24,14,Improv_Melody,111,5,42,127,2670037232
98,24,14,Improv_Melody,112,1,48,97,2670296784
98,24,14,Improv_Melody,113,5,42,110,2670537232
98,24,14,Improv_Melody,114,1,48,92,2670541544
98,24,14,Improv_Melody,115,5,42,110,2671036780
98,24,14,Improv_Melody,116,1,38,102,2671037824
98,24,14,Improv_Melody,117,5,42,110,2671536408
98,24,14,Improv_Melody,118,2,43,80,2672039756
98,24,14,Improv_Melody,119,2,67,80,2672041904
98,24,14,Improv_Melody,120,5,42,127,2672044516
98,24,14,Improv_Melody,121,1,48,111,2672048240
98,24,14,Improv_Melody,122,5,42,110,2672536888
98,24,14,Improv_Melody,123,1,38,90,2673029608
98,24,14,Improv_Melody,124,5,42,110,2673036756
98,24,14,Improv_Melody,125,5,42,110,2673537360
98,24,14,Improv_Melody,126,5,42,127,2674037156
98,24,14,Improv_Melody,127,1,38,74,2674300592
98,24,14,Improv_Melody,128,5,42,110,2674536928
98,24,14,Improv_Melody,129,1,48,108,2674549248
98,24,14,Improv_Melody,130,5,42,110,2675036404
98,24,14,Improv_Melody,131,1,38,106,2675062040
98,24,14,Improv_Melody,132,5,42,110,2675537228
98,24,14,Improv_Melody,133,1,48,57,2676011024
98,24,14,Improv_Melody,134,2,45,80,2676039444
98,24,14,Improv_Melody,135,2,69,80,2676041752
98,24,14,Improv_Melody,136,5,42,127,2676044288
98,24,14,Improv_Melody,137,5,42,110,2676536664
98,24,14,Improv_Melody,138,1,38,83,2677025616
98,24,14,Improv_Melody,139,5,42,110,2677037280
98,24,14,Improv_Melody,140,5,42,110,2677537032
98,24,14,Improv_Melody,141,5,42,127,2678036904
98,24,14,Improv_Melody,142,1,48,97,2678533808
98,24,14,Improv_Melody,143,5,42,110,2678536468
98,24,14,Improv_Melody,144,1,38,107,2679002768
98,24,14,Improv_Melody,145,5,42,110,2679037364
98,24,14,Improv_Melody,146,1,48,109,2679241324
98,24,14,Improv_Melody,147,5,42,110,2679536900
98,24,14,Improv_Melody,148,1,48,127,2680039580
98,24,14,Improv_Melody,149,2,41,80,2680041216
98,24,14,Improv_Melody,150,2,65,80,2680042844
98,24,14,Improv_Melody,151,5,42,127,2680045376
98,24,14,Improv_Melody,152,5,42,110,2680536484
98,24,14,Improv_Melody,153,5,42,110,2681037104
98,24,14,Improv_Melody,154,1,38,95,2681063260
98,24,14,Improv_Melody,155,5,42,110,2681536952
98,24,14,Improv_Melody,156,1,38,92,2681798520
98,24,14,Improv_Melody,157,5,42,127,2682036652
98,24,14,Improv_Melody,158,1,38,89,2682259324
98,24,14,Improv_Melody,159,1,38,83,2682529876
98,24,14,Improv_Melody,160,5,42,110,2682537316
98,24,14,Improv_Melody,161,1,38,107,2682982376
98,24,14,Improv_Melody,162,5,42,110,2683036944
98,24,14,Improv_Melody,163,1,38,87,2683457392
98,24,14,Improv_Melody,164,5,42,110,2683536720
98,24,14,Improv_Melody,165,1,38,113,2683728564
98,24,14,Improv_Melody,166,1,38,116,2683823904
98,24,14,Improv_Melody,167,2,48,80,2684038960
98,24,14,Improv_Melody,168,2,72,80,2684041340
98,24,14,Improv_Melody,169,5,42,127,2684043872
98,24,14,Improv_Melody,170,1,48,77,2684115580
98,24,14,Improv_Melody,171,5,42,110,2684537068
98,24,14,Improv_Melody,172,5,42,110,2685036788
98,24,14,Improv_Melody,173,1,38,90,2685057708
98,24,14,Improv_Melody,174,5,42,110,2685536784
98,24,14,Improv_Melody,175,5,42,127,2686037332
98,24,14,Improv_Melody,176,1,48,85,2686274512
98,24,14,Improv_Melody,177,1,48,100,2686511028
98,24,14,Improv_Melody,178,5,42,110,2686537096
98,24,14,Improv_Melody,179,5,42,110,2687036952
98,24,14,Improv_Melody,180,1,38,89,2687047404
98,24,14,Improv_Melody,181,5,42,110,2687536432
98,24,14,Improv_Melody,182,1,38,83,2687806900
98,24,14,Improv_Melody,183,1,48,84,2688037216
98,24,14,Improv_Melody,184,2,43,80,2688041472
98,24,14,Improv_Melody,185,2,67,80,2688043400
98,24,14,Improv_Melody,186,5,42,127,2688046008
98,24,14,Improv_Melody,187,5,42,110,2688536868
98,24,14,Improv_Melody,188,1,48,84,2688805712
98,24,14,Improv_Melody,189,5,42,110,2689036792
98,24,14,Improv_Melody,190,1,38,112,2689076588
98,24,14,Improv_Melody,191,5,42,110,2689537464
98,24,14,Improv_Melody,192,5,42,127,2690037036
98,24,14,Improv_Melody,193,1,38,67,2690267192
98,24,14,Improv_Melody,194,1,48,102,2690518364
98,24,14,Improv_Melody,195,5,42,110,2690536952
98,24,14,Improv_Melody,196,1,48,77,2690774720
98,24,14,Improv_Melody,197,1,38,76,2691009816
98,24,14,Improv_Melody,198,5,42,110,2691036480
98,24,14,Improv_Melody,199,5,42,110,2691537236
98,24,14,Improv_Melody,200,1,38,95,2691789008
98,24,14,Improv_Melody,201,2,45,80,2692039744
98,24,14,Improv_Melody,202,2,69,80,2692041664
98,24,14,Improv_Melody,203,5,42,127,2692044204
98,24,14,Improv_Melody,204,1,48,85,2692048668
98,24,14,Improv_Melody,205,5,42,110,2692536724
98,24,14,Improv_Melody,206,5,42,110,2693037640
98,24,14,Improv_Melody,207,1,38,91,2693040688
98,24,14,Improv_Melody,208,5,42,110,2693537116
98,24,14,Improv_Melody,209,1,38,84,2693802500
98,24,14,Improv_Melody,210,5,42,127,2694036744
98,24,14,Improv_Melody,211,1,38,80,2694275944
98,24,14,Improv_Melody,212,1,48,92,2694522556
98,24,14,Improv_Melody,213,5,42,110,2694536732
98,24,14,Improv_Melody,214,1,48,68,2694747280
98,24,14,Improv_Melody,215,1,38,75,2694998076
98,24,14,Improv_Melody,216,5,42,110,2695037236
98,24,14,Improv_Melody,217,1,48,90,2695255556
98,24,14,Improv_Melody,218,5,42,110,2695537068
98,24,14,Improv_Melody,219,1,38,95,2695760492
98,24,14,Improv_Melody,220,1,48,100,2696018176
98,24,14,Improv_Melody,221,2,41,80,2696039040
98,24,14,Improv_Melody,222,2,65,80,2696041268
98,24,14,Improv_Melody,223,5,42,127,2696043808
98,24,14,Improv_Melody,224,5,42,110,2696536704
98,24,14,Improv_Melody,225,1,48,96,2696816680
98,24,14,Improv_Melody,226,5,42,110,2697037228
98,24,14,Improv_Melody,227,1,38,104,2697053884
98,24,14,Improv_Melody,228,1,48,73,2697260408
98,24,14,Improv_Melody,229,5,42,110,2697536756
98,24,14,Improv_Melody,230,1,48,90,2697693512
98,24,14,Improv_Melody,231,5,42,127,2698036756
98,24,14,Improv_Melody,232,1,38,81,2698234200
98,24,14,Improv_Melody,233,1,38,65,2698472280
98,24,14,Improv_Melody,234,5,42,110,2698537272
98,24,14,Improv_Melody,235,5,42,110,2699036952
98,24,14,Improv_Melody,236,1,38,95,2699324428
98,24,14,Improv_Melody,237,5,42,110,2699536728
98,24,14,Improv_Melody,238,1,38,84,2699576968
98,24,14,Improv_Melody,239,2,48,80,2700039008
98,24,14,Improv_Melody,240,2,72,80,2700041312
98,24,14,Improv_Melody,241,5,42,127,2700043768
98,24,14,Improv_Melody,242,1,48,90,2700061924
98,24,14,Improv_Melody,243,5,42,110,2700537112
98,24,14,Improv_Melody,244,1,38,104,2701011656
98,24,14,Improv_Melody,245,5,42,110,2701037052
98,24,14,Improv_Melody,246,5,42,110,2701536760
98,24,14,Improv_Melody,247,5,42,127,2702037452
98,24,14,Improv_Melody,248,1,48,87,2702300668
98,24,14,Improv_Melody,249,1,48,88,2702521476
98,24,14,Improv_Melody,250,5,42,110,2702536924
98,24,14,Improv_Melody,251,1,38,90,2703024912
98,24,14,Improv_Melody,252,5,42,110,2703036696
98,24,14,Improv_Melody,253,5,42,110,2703536628
98,24,14,Improv_Melody,254,1,48,76,2703825644
98,24,14,Improv_Melody,255,2,43,80,2704039876
98,24,14,Improv_Melody,256,2,67,80,2704042180
98,24,14,Improv_Melody,257,5,42,127,2704044788
98,24,14,Improv_Melody,258,1,48,73,2704079624
98,24,14,Improv_Melody,259,5,42,110,2704536936
98,24,14,Improv_Melody,260,5,42,110,2705036584
98,24,14,Improv_Melody,261,1,38,111,2705042472
98,24,14,Improv_Melody,262,5,42,110,2705537408
98,24,14,Improv_Melody,263,1,48,89,2705870184
98,24,14,Improv_Melody,264,5,42,127,2706037104
98,24,14,Improv_Melody,265,1,48,81,2706361656
98,24,14,Improv_Melody,266,5,42,110,2706536728
98,24,14,Improv_Melody,267,1,48,75,2706602232
98,24,14,Improv_Melody,268,5,42,110,2707036504
98,24,14,Improv_Melody,269,1,38,90,2707049272
98,24,14,Improv_Melody,270,5,42,110,2707537400
98,24,14,Improv_Melody,271,1,48,85,2707787452
98,24,14,Improv_Melody,272,1,48,73,2708038772
98,24,14,Improv_Melody,273,2,45,80,2708040728
98,24,14,Improv_Melody,274,2,69,80,2708042800
98,24,14,Improv_Melody,275,5,42,127,2708045408
98,24,14,Improv_Melody,276,5,42,110,2708536740
98,24,14,Improv_Melody,277,1,48,88,2708853584
98,24,14,Improv_Melody,278,5,42,110,2709037340
98,24,14,Improv_Melody,279,1,38,79,2709068504
98,24,14,Improv_Melody,280,5,42,110,2709537236
98,24,14,Improv_Melody,281,5,42,127,2710036736
98,24,14,Improv_Melody,282,1,38,82,2710250356
98,24,14,Improv_Melody,283,1,48,95,2710491736
98,24,14,Improv_Melody,284,5,42,110,2710536576
98,24,14,Improv_Melody,285,1,38,96,2711026588
98,24,14,Improv_Melody,286,5,42,110,2711037324
98,24,14,Improv_Melody,287,5,42,110,2711536884
98,24,14,Improv_Melody,288,2,41,80,2712039332
98,24,14,Improv_Melody,289,1,48,87,2712042020
98,24,14,Improv_Melody,290,2,65,80,2712043360
98,24,14,Improv_Melody,291,5,42,127,2712045372
98,24,14,Improv_Melody,292,5,42,110,2712536332
98,24,14,Improv_Melody,293,1,38,78,2713033464
98,24,14,Improv_Melody,294,5,42,110,2713037244
98,24,14,Improv_Melody,295,5,42,110,2713536876
98,24,14,Improv_Melody,296,5,42,127,2714036520
98,24,14,Improv_Melody,297,5,42,110,2714537364
98,24,14,Improv_Melody,298,1,38,103,2714601068
98,24,14,Improv_Melody,299,1,38,70,2714832948
98,24,14,Improv_Melody,300,5,42,110,2715036968
98,24,14,Improv_Melody,301,1,38,81,2715071128
98,24,14,Improv_Melody,302,1,38,81,2715308912
98,24,14,Improv_Melody,303,5,42,110,2715536720
98,24,14,Improv_Melody,304,1,38,75,2715537688
98,24,14,Improv_Melody,305,1,38,92,2715762216
98,24,14,Improv_Melody,306,2,48,80,2716038828
98,24,14,Improv_Melody,307,2,72,80,2716041056
98,24,14,Improv_Melody,308,1,48,110,2716043744
98,24,14,Improv_Melody,309,5,42,127,2716045228
98,24,14,Improv_Melody,310,5,42,110,2716537384
98,24,14,Improv_Melody,311,1,38,94,2717013348
98,24,14,Improv_Melody,0,9999,9999,9999,2636034128
98,24,14,Improv_Melody,1,9999,9999,9999,2636534860
98,24,14,Improv_Melody,2,9999,9999,9999,2637034584
98,24,14,Improv_Melody,3,9999,9999,9999,2637534304
98,24,14,Improv_Melody,4,9999,9999,9999,2638035000
98,24,14,Improv_Melody,5,9999,9999,9999,2638534720
98,24,14,Improv_Melody,6,9999,9999,9999,2639034440
98,24,14,Improv_Melody,7,9999,9999,9999,2639534164
98,24,14,Improv_Melody,8,9999,9999,9999,2640034932
98,24,14,Improv_Melody,9,9999,9999,9999,2640534592
98,24,14,Improv_Melody,10,9999,9999,9999,2641034316
98,24,14,Improv_Melody,11,9999,9999,9999,2641535084
98,24,14,Improv_Melody,12,9999,9999,9999,2642034804
98,24,14,Improv_Melody,13,9999,9999,9999,2642534452
98,24,14,Improv_Melody,14,9999,9999,9999,2643034176
98,24,14,Improv_Melody,15,9999,9999,9999,2643534944
98,24,14,Improv_Melody,16,9999,9999,9999,2644034664
98,24,14,Improv_Melody,17,9999,9999,9999,2644534324
98,24,14,Improv_Melody,18,9999,9999,9999,2645035096
98,24,14,Improv_Melody,19,9999,9999,9999,2645534792
98,24,14,Improv_Melody,20,9999,9999,9999,2646034512
98,24,14,Improv_Melody,21,9999,9999,9999,2646534232
98,24,14,Improv_Melody,22,9999,9999,9999,2647034928
98,24,14,Improv_Melody,23,9999,9999,9999,2647534648
98,24,14,Improv_Melody,24,9999,9999,9999,2648034372
98,24,14,Improv_Melody,25,9999,9999,9999,2648534104
98,24,14,Improv_Melody,26,9999,9999,9999,2649034800
98,24,14,Improv_Melody,27,9999,9999,9999,2649534524
98,24,14,Improv_Melody,28,9999,9999,9999,2650034272
98,24,14,Improv_Melody,29,9999,9999,9999,2650534992
98,24,14,Improv_Melody,30,9999,9999,9999,2651034716
98,24,14,Improv_Melody,31,9999,9999,9999,2651534416
98,24,14,Improv_Melody,32,9999,9999,9999,2652034136
98,24,14,Improv_Melody,33,9999,9999,9999,2652534900
98,24,14,Improv_Melody,34,9999,9999,9999,2653034612
98,24,14,Improv_Melody,35,9999,9999,9999,2653534320
98,24,14,Improv_Melody,36,9999,9999,9999,2654035012
98,24,14,Improv_Melody,37,9999,9999,9999,2654534712
98,24,14,Improv_Melody,38,9999,9999,9999,2655034488
98,24,14,Improv_Melody,39,9999,9999,9999,2655534188
98,24,14,Improv_Melody,40,9999,9999,9999,2656034936
98,24,14,Improv_Melody,41,9999,9999,9999,2656534584
98,24,14,Improv_Melody,42,9999,9999,9999,2657034300
98,24,14,Improv_Melody,43,9999,9999,9999,2657535052
98,24,14,Improv_Melody,44,9999,9999,9999,2658034776
98,24,14,Improv_Melody,45,9999,9999,9999,2658534468
98,24,14,Improv_Melody,46,9999,9999,9999,2659034176
98,24,14,Improv_Melody,47,9999,9999,9999,2659534920
98,24,14,Improv_Melody,48,9999,9999,9999,2660034620
98,24,14,Improv_Melody,49,9999,9999,9999,2660534332
98,24,14,Improv_Melody,50,9999,9999,9999,2661035096
98,24,14,Improv_Melody,51,9999,9999,9999,2661534800
98,24,14,Improv_Melody,52,9999,9999,9999,2662034524
98,24,14,Improv_Melody,53,9999,9999,9999,2662534216
98,24,14,Improv_Melody,54,9999,9999,9999,2663034964
98,24,14,Improv_Melody,55,9999,9999,9999,2663534668
98,24,14,Improv_Melody,56,9999,9999,9999,2664034388
98,24,14,Improv_Melody,57,9999,9999,9999,2664534108
98,24,14,Improv_Melody,58,9999,9999,9999,2665034868
98,24,14,Improv_Melody,59,9999,9999,9999,2665534572
98,24,14,Improv_Melody,60,9999,9999,9999,2666034272
98,24,14,Improv_Melody,61,9999,9999,9999,2666535020
98,24,14,Improv_Melody,62,9999,9999,9999,2667034708
98,24,14,Improv_Melody,63,9999,9999,9999,2667534416
98,24,14,Improv_Melody,64,9999,9999,9999,2668034132
98,24,14,Improv_Melody,65,9999,9999,9999,2668534900
98,24,14,Improv_Melody,66,9999,9999,9999,2669034616
98,24,14,Improv_Melody,67,9999,9999,9999,2669534320
98,24,14,Improv_Melody,68,9999,9999,9999,2670035016
98,24,14,Improv_Melody,69,9999,9999,9999,2670534716
98,24,14,Improv_Melody,70,9999,9999,9999,2671034488
98,24,14,Improv_Melody,71,9999,9999,9999,2671534188
98,24,14,Improv_Melody,72,9999,9999,9999,2672034884
98,24,14,Improv_Melody,73,9999,9999,9999,2672534596
98,24,14,Improv_Melody,74,9999,9999,9999,2673034312
98,24,14,Improv_Melody,75,9999,9999,9999,2673535064
98,24,14,Improv_Melody,76,9999,9999,9999,2674034788
98,24,14,Improv_Melody,77,9999,9999,9999,2674534488
98,24,14,Improv_Melody,78,9999,9999,9999,2675034188
98,24,14,Improv_Melody,79,9999,9999,9999,2675534936
98,24,14,Improv_Melody,80,9999,9999,9999,2676034648
98,24,14,Improv_Melody,81,9999,9999,9999,2676534372
98,24,14,Improv_Melody,82,9999,9999,9999,2677035060
98,24,14,Improv_Melody,83,9999,9999,9999,2677534812
98,24,14,Improv_Melody,84,9999,9999,9999,2678034536
98,24,14,Improv_Melody,85,9999,9999,9999,2678534248
98,24,14,Improv_Melody,86,9999,9999,9999,2679034996
98,24,14,Improv_Melody,87,9999,9999,9999,2679534684
98,24,14,Improv_Melody,88,9999,9999,9999,2680034404
98,24,14,Improv_Melody,89,9999,9999,9999,2680534116
98,24,14,Improv_Melody,90,9999,9999,9999,2681034812
98,24,14,Improv_Melody,91,9999,9999,9999,2681534584
98,24,14,Improv_Melody,92,9999,9999,9999,2682034284
98,24,14,Improv_Melody,93,9999,9999,9999,2682535024
98,24,14,Improv_Melody,94,9999,9999,9999,2683034728
98,24,14,Improv_Melody,95,9999,9999,9999,2683534428
98,24,14,Improv_Melody,96,9999,9999,9999,2684034164
98,24,14,Improv_Melody,97,9999,9999,9999,2684534848
98,24,14,Improv_Melody,98,9999,9999,9999,2685034572
98,24,14,Improv_Melody,99,9999,9999,9999,2685534268
98,24,14,Improv_Melody,100,9999,9999,9999,2686035040
98,24,14,Improv_Melody,101,9999,9999,9999,2686534732
98,24,14,Improv_Melody,102,9999,9999,9999,2687034436
98,24,14,Improv_Melody,103,9999,9999,9999,2687534140
98,24,14,Improv_Melody,104,9999,9999,9999,2688034932
98,24,14,Improv_Melody,105,9999,9999,9999,2688534648
98,24,14,Improv_Melody,106,9999,9999,9999,2689034348
98,24,14,Improv_Melody,107,9999,9999,9999,2689535092
98,24,14,Improv_Melody,108,9999,9999,9999,2690034744
98,24,14,Improv_Melody,109,9999,9999,9999,2690534512
98,24,14,Improv_Melody,110,9999,9999,9999,2691034188
98,24,14,Improv_Melody,111,9999,9999,9999,2691534940
98,24,14,Improv_Melody,112,9999,9999,9999,2692034640
98,24,14,Improv_Melody,113,9999,9999,9999,2692534356
98,24,14,Improv_Melody,114,9999,9999,9999,2693035124
98,24,14,Improv_Melody,115,9999,9999,9999,2693534824
98,24,14,Improv_Melody,116,9999,9999,9999,2694034524
98,24,14,Improv_Melody,117,9999,9999,9999,2694534216
98,24,14,Improv_Melody,118,9999,9999,9999,2695034940
98,24,14,Improv_Melody,119,9999,9999,9999,2695534704
98,24,14,Improv_Melody,120,9999,9999,9999,2696034396
98,24,14,Improv_Melody,121,9999,9999,9999,2696534116
98,24,14,Improv_Melody,122,9999,9999,9999,2697034860
98,24,14,Improv_Melody,123,9999,9999,9999,2697534540
98,24,14,Improv_Melody,124,9999,9999,9999,2698034240
98,24,14,Improv_Melody,125,9999,9999,9999,2698534976
98,24,14,Improv_Melody,126,9999,9999,9999,2699034732
98,24,14,Improv_Melody,127,9999,9999,9999,2699534432
98,24,14,Improv_Melody,128,9999,9999,9999,2700034132
98,24,14,Improv_Melody,129,9999,9999,9999,2700534892
98,24,14,Improv_Melody,130,9999,9999,9999,2701034612
98,24,14,Improv_Melody,131,9999,9999,9999,2701534316
98,24,14,Improv_Melody,132,9999,9999,9999,2702035012
98,24,14,Improv_Melody,133,9999,9999,9999,2702534704
98,24,14,Improv_Melody,134,9999,9999,9999,2703034480
98,24,14,Improv_Melody,135,9999,9999,9999,2703534184
98,24,14,Improv_Melody,136,9999,9999,9999,2704034932
98,24,14,Improv_Melody,137,9999,9999,9999,2704534644
98,24,14,Improv_Melody,138,9999,9999,9999,2705034292
98,24,14,Improv_Melody,139,9999,9999,9999,2705535036
98,24,14,Improv_Melody,140,9999,9999,9999,2706034736
98,24,14,Improv_Melody,141,9999,9999,9999,2706534512
98,24,14,Improv_Melody,142,9999,9999,9999,2707034212
98,24,14,Improv_Melody,143,9999,9999,9999,2707534960
98,24,14,Improv_Melody,144,9999,9999,9999,2708034660
98,24,14,Improv_Melody,145,9999,9999,9999,2708534372
98,24,14,Improv_Melody,146,9999,9999,9999,2709035124
98,24,14,Improv_Melody,147,9999,9999,9999,2709534796
98,24,14,Improv_Melody,148,9999,9999,9999,2710034520
98,24,14,Improv_Melody,149,9999,9999,9999,2710534212
98,24,14,Improv_Melody,150,9999,9999,9999,2711034956
98,24,14,Improv_Melody,151,9999,9999,9999,2711534664
98,24,14,Improv_Melody,152,9999,9999,9999,2712034384
98,24,14,Improv_Melody,153,9999,9999,9999,2712534112
98,24,14,Improv_Melody,154,9999,9999,9999,2713034800
98,24,14,Improv_Melody,155,9999,9999,9999,2713534580
98,24,14,Improv_Melody,156,9999,9999,9999,2714034228
98,24,14,Improv_Melody,157,9999,9999,9999,2714534996
98,24,14,Improv_Melody,158,9999,9999,9999,2715034676
98,24,14,Improv_Melody,159,9999,9999,9999,2715534428
98,24,14,Improv_Melody,160,9999,9999,9999,2716034108
98,24,14,Improv_Melody,161,9999,9999,9999,2716534868
