pid,taskRunCount,taskID,taskName,i,channel,pitch,velocity,microseconds
1,1,Ticks_Pract_5,0,5,42,127,76687928
931,1,Ticks_Pract_5,1,5,42,127,77187420
931,1,Ticks_Pract_5,2,5,42,127,77688032
931,1,Ticks_Pract_5,3,5,42,127,78187824
931,1,Ticks_Pract_5,4,5,42,127,78687764
931,1,Ticks_Pract_5,5,5,42,127,79188276
931,1,Ticks_Pract_5,6,5,42,127,79688116
931,1,Ticks_Pract_5,7,5,42,127,80187836
931,1,Ticks_Pract_5,8,5,42,127,80687700
931,1,Ticks_Pract_5,9,1,48,33,80776564
931,1,Ticks_Pract_5,10,1,48,43,81183016
931,1,Ticks_Pract_5,11,5,42,127,81188136
931,1,Ticks_Pract_5,12,1,48,40,81654356
931,1,Ticks_Pract_5,13,5,42,127,81687980
931,1,Ticks_Pract_5,14,1,48,45,82115380
931,1,Ticks_Pract_5,15,5,42,127,82187824
931,1,Ticks_Pract_5,16,1,48,46,82625628
931,1,Ticks_Pract_5,17,5,42,127,82688564
931,1,Ticks_Pract_5,18,1,48,47,83123896
931,1,Ticks_Pract_5,19,5,42,127,83188036
931,1,Ticks_Pract_5,20,1,48,48,83599664
931,1,Ticks_Pract_5,21,5,42,127,83687732
931,1,Ticks_Pract_5,22,1,48,47,84092100
931,1,Ticks_Pract_5,23,5,42,127,84187564
931,1,Ticks_Pract_5,24,1,48,48,84577512
931,1,Ticks_Pract_5,25,5,42,127,84688304
931,1,Ticks_Pract_5,26,1,48,49,85055636
931,1,Ticks_Pract_5,27,5,42,127,85187848
931,1,Ticks_Pract_5,28,1,48,46,85577024
931,1,Ticks_Pract_5,29,5,42,127,85687692
931,1,Ticks_Pract_5,30,1,48,49,86127832
931,1,Ticks_Pract_5,31,5,42,127,86188524
931,1,Ticks_Pract_5,32,1,48,49,86624152
931,1,Ticks_Pract_5,33,5,42,127,86688220
931,1,Ticks_Pract_5,34,1,48,46,87117468
931,1,Ticks_Pract_5,35,5,42,127,87187912
931,1,Ticks_Pract_5,36,1,48,48,87604144
931,1,Ticks_Pract_5,37,5,42,127,87687532
931,1,Ticks_Pract_5,38,1,48,46,88098752
931,1,Ticks_Pract_5,39,5,42,127,88188200
931,1,Ticks_Pract_5,40,1,48,48,88614308
931,1,Ticks_Pract_5,41,5,42,127,88688120
931,1,Ticks_Pract_5,42,1,48,40,89107124
931,1,Ticks_Pract_5,43,5,42,127,89187588
931,1,Ticks_Pract_5,44,1,48,46,89624316
931,1,Ticks_Pract_5,45,5,42,127,89688552
931,1,Ticks_Pract_5,46,1,48,47,90109500
931,1,Ticks_Pract_5,47,5,42,127,90188220
931,1,Ticks_Pract_5,48,1,48,47,90621684
931,1,Ticks_Pract_5,49,5,42,127,90687992
931,1,Ticks_Pract_5,50,1,48,48,91134024
931,1,Ticks_Pract_5,51,5,42,127,91187540
931,1,Ticks_Pract_5,52,1,48,46,91623316
931,1,Ticks_Pract_5,53,5,42,127,91688428
931,1,Ticks_Pract_5,54,1,48,40,92110376
931,1,Ticks_Pract_5,55,5,42,127,92188200
931,1,Ticks_Pract_5,56,1,48,46,92626972
931,1,Ticks_Pract_5,57,5,42,127,92687892
931,1,Ticks_Pract_5,58,1,48,46,93114324
931,1,Ticks_Pract_5,59,5,42,127,93187588
931,1,Ticks_Pract_5,60,1,48,43,93631372
931,1,Ticks_Pract_5,61,5,42,127,93688108
931,1,Ticks_Pract_5,62,1,48,46,94149848
931,1,Ticks_Pract_5,63,5,42,127,94187876
931,1,Ticks_Pract_5,64,1,48,51,94616400
931,1,Ticks_Pract_5,65,5,42,127,94687572
931,1,Ticks_Pract_5,66,1,48,42,95109144
931,1,Ticks_Pract_5,67,5,42,127,95188608
931,1,Ticks_Pract_5,68,1,48,54,95620360
931,1,Ticks_Pract_5,69,5,42,127,95687932
931,1,Ticks_Pract_5,70,1,48,49,96134264
931,1,Ticks_Pract_5,71,5,42,127,96187704
931,1,Ticks_Pract_5,72,1,48,43,96683620
931,1,Ticks_Pract_5,0,9999,9999,9999,76685412
931,1,Ticks_Pract_5,1,9999,9999,9999,77185128
931,1,Ticks_Pract_5,2,9999,9999,9999,77685816
931,1,Ticks_Pract_5,3,9999,9999,9999,78185532
931,1,Ticks_Pract_5,4,9999,9999,9999,78685252
931,1,Ticks_Pract_5,5,9999,9999,9999,79185988
931,1,Ticks_Pract_5,6,9999,9999,9999,79685752
931,1,Ticks_Pract_5,7,9999,9999,9999,80185396
931,1,Ticks_Pract_5,8,9999,9999,9999,80685112
931,1,Ticks_Pract_5,9,9999,9999,9999,81185848
931,1,Ticks_Pract_5,10,9999,9999,9999,81685616
931,1,Ticks_Pract_5,11,9999,9999,9999,82185312
931,1,Ticks_Pract_5,12,9999,9999,9999,82686052
931,1,Ticks_Pract_5,13,9999,9999,9999,83185748
931,1,Ticks_Pract_5,14,9999,9999,9999,83685444
931,1,Ticks_Pract_5,15,9999,9999,9999,84185196
931,1,Ticks_Pract_5,16,9999,9999,9999,84685940
931,1,Ticks_Pract_5,17,9999,9999,9999,85185632
931,1,Ticks_Pract_5,18,9999,9999,9999,85685328
931,1,Ticks_Pract_5,19,9999,9999,9999,86186084
931,1,Ticks_Pract_5,20,9999,9999,9999,86685780
931,1,Ticks_Pract_5,21,9999,9999,9999,87185472
931,1,Ticks_Pract_5,22,9999,9999,9999,87685168
931,1,Ticks_Pract_5,23,9999,9999,9999,88185912
931,1,Ticks_Pract_5,24,9999,9999,9999,88685680
931,1,Ticks_Pract_5,25,9999,9999,9999,89185376
931,1,Ticks_Pract_5,26,9999,9999,9999,89686116
931,1,Ticks_Pract_5,27,9999,9999,9999,90185784
931,1,Ticks_Pract_5,28,9999,9999,9999,90685552
931,1,Ticks_Pract_5,29,9999,9999,9999,91185248
931,1,Ticks_Pract_5,30,9999,9999,9999,91685992
931,1,Ticks_Pract_5,31,9999,9999,9999,92185684
931,1,Ticks_Pract_5,32,9999,9999,9999,92685380
931,1,Ticks_Pract_5,33,9999,9999,9999,93185076
931,1,Ticks_Pract_5,34,9999,9999,9999,93685816
931,1,Ticks_Pract_5,35,9999,9999,9999,94185588
931,1,Ticks_Pract_5,36,9999,9999,9999,94685280
931,1,Ticks_Pract_5,37,9999,9999,9999,95186024
931,1,Ticks_Pract_5,38,9999,9999,9999,95685720
931,1,Ticks_Pract_5,39,9999,9999,9999,96185412
932,0,Ticks_Pract_8,0,5,42,127,135492900
932,0,Ticks_Pract_8,1,5,42,127,136292756
932,0,Ticks_Pract_8,2,5,42,127,137092436
932,0,Ticks_Pract_8,3,1,48,64,137148212
932,0,Ticks_Pract_8,4,1,48,61,137851588
932,0,Ticks_Pract_8,5,5,42,127,137893284
932,0,Ticks_Pract_8,6,1,48,64,138637188
932,0,Ticks_Pract_8,7,5,42,127,138693020
932,0,Ticks_Pract_8,8,1,48,58,139433780
932,0,Ticks_Pract_8,9,5,42,127,139492832
932,0,Ticks_Pract_8,10,1,48,59,140259844
932,0,Ticks_Pract_8,11,5,42,127,140292488
932,0,Ticks_Pract_8,12,5,42,127,141093648
932,0,Ticks_Pract_8,13,1,48,66,141105448
932,0,Ticks_Pract_8,14,5,42,127,141892936
932,0,Ticks_Pract_8,15,1,48,65,141935724
932,0,Ticks_Pract_8,16,5,42,127,142692916
932,0,Ticks_Pract_8,17,1,48,62,142724164
932,0,Ticks_Pract_8,18,1,48,64,143473536
932,0,Ticks_Pract_8,19,5,42,127,143492644
932,0,Ticks_Pract_8,20,1,48,69,144253820
932,0,Ticks_Pract_8,21,5,42,127,144293128
932,0,Ticks_Pract_8,22,1,48,76,145025432
932,0,Ticks_Pract_8,23,5,42,127,145093084
932,0,Ticks_Pract_8,24,1,48,72,145859424
932,0,Ticks_Pract_8,25,5,42,127,145892744
932,0,Ticks_Pract_8,26,5,42,127,146692708
932,0,Ticks_Pract_8,27,1,48,65,146700468
932,0,Ticks_Pract_8,28,5,42,127,147493116
932,0,Ticks_Pract_8,29,1,48,69,147499376
932,0,Ticks_Pract_8,30,5,42,127,148292924
932,0,Ticks_Pract_8,31,1,48,60,148330924
932,0,Ticks_Pract_8,32,5,42,127,149092680
932,0,Ticks_Pract_8,33,1,48,70,149108968
932,0,Ticks_Pract_8,34,1,48,58,149874124
932,0,Ticks_Pract_8,35,5,42,127,149892708
932,0,Ticks_Pract_8,36,5,42,127,150693120
932,0,Ticks_Pract_8,37,1,48,65,150701628
932,0,Ticks_Pract_8,38,5,42,127,151493080
932,0,Ticks_Pract_8,39,1,48,57,151516768
932,0,Ticks_Pract_8,40,5,42,127,152292812
932,0,Ticks_Pract_8,41,1,48,72,152313888
932,0,Ticks_Pract_8,42,1,48,67,153077776
932,0,Ticks_Pract_8,43,5,42,127,153092688
932,0,Ticks_Pract_8,44,5,42,127,153893252
932,0,Ticks_Pract_8,45,1,48,67,153894888
932,0,Ticks_Pract_8,46,5,42,127,154692836
932,0,Ticks_Pract_8,47,1,48,70,154708028
932,0,Ticks_Pract_8,48,5,42,127,155492672
932,0,Ticks_Pract_8,49,1,48,74,155526608
932,0,Ticks_Pract_8,50,1,48,64,156279876
932,0,Ticks_Pract_8,51,5,42,127,156292620
932,0,Ticks_Pract_8,52,1,48,65,157041908
932,0,Ticks_Pract_8,53,5,42,127,157093328
932,0,Ticks_Pract_8,54,5,42,127,157892844
932,0,Ticks_Pract_8,55,1,48,65,157894708
932,0,Ticks_Pract_8,56,1,48,75,158685580
932,0,Ticks_Pract_8,57,5,42,127,158692572
932,0,Ticks_Pract_8,58,1,48,36,158739280
932,0,Ticks_Pract_8,59,1,48,67,159465544
932,0,Ticks_Pract_8,0,9999,9999,9999,135490612
932,0,Ticks_Pract_8,1,9999,9999,9999,136290392
932,0,Ticks_Pract_8,2,9999,9999,9999,137090148
932,0,Ticks_Pract_8,3,9999,9999,9999,137890924
932,0,Ticks_Pract_8,4,9999,9999,9999,138690660
932,0,Ticks_Pract_8,5,9999,9999,9999,139490396
932,0,Ticks_Pract_8,6,9999,9999,9999,140290128
932,0,Ticks_Pract_8,7,9999,9999,9999,141090912
932,0,Ticks_Pract_8,8,9999,9999,9999,141890648
932,0,Ticks_Pract_8,9,9999,9999,9999,142690408
932,0,Ticks_Pract_8,10,9999,9999,9999,143490132
932,0,Ticks_Pract_8,11,9999,9999,9999,144290912
932,0,Ticks_Pract_8,12,9999,9999,9999,145090648
932,0,Ticks_Pract_8,13,9999,9999,9999,145890384
932,0,Ticks_Pract_8,14,9999,9999,9999,146690124
932,0,Ticks_Pract_8,15,9999,9999,9999,147490900
932,0,Ticks_Pract_8,16,9999,9999,9999,148290636
932,0,Ticks_Pract_8,17,9999,9999,9999,149090392
932,0,Ticks_Pract_8,18,9999,9999,9999,149890120
932,0,Ticks_Pract_8,19,9999,9999,9999,150690908
932,0,Ticks_Pract_8,20,9999,9999,9999,151490640
932,0,Ticks_Pract_8,21,9999,9999,9999,152290376
932,0,Ticks_Pract_8,22,9999,9999,9999,153090104
932,0,Ticks_Pract_8,23,9999,9999,9999,153890888
932,0,Ticks_Pract_8,24,9999,9999,9999,154690624
932,0,Ticks_Pract_8,25,9999,9999,9999,155490384
932,0,Ticks_Pract_8,26,9999,9999,9999,156290108
932,0,Ticks_Pract_8,27,9999,9999,9999,157090888
932,0,Ticks_Pract_8,28,9999,9999,9999,157890628
932,0,Ticks_Pract_8,29,9999,9999,9999,158690356
933,4,T1_SMS_5,0,5,42,127,247510300
933,4,T1_SMS_5,1,5,42,127,248010164
933,4,T1_SMS_5,2,5,42,127,248509956
933,4,T1_SMS_5,3,1,48,39,248515540
933,4,T1_SMS_5,4,1,48,54,248958744
933,4,T1_SMS_5,5,5,42,127,249009420
933,4,T1_SMS_5,6,1,48,51,249412644
933,4,T1_SMS_5,7,5,42,127,249511044
933,4,T1_SMS_5,8,1,48,56,249912336
933,4,T1_SMS_5,9,5,42,127,250010080
933,4,T1_SMS_5,10,1,48,51,250425492
933,4,T1_SMS_5,11,5,42,127,250509924
933,4,T1_SMS_5,12,1,48,49,250918236
933,4,T1_SMS_5,13,5,42,127,251010368
933,4,T1_SMS_5,14,1,48,45,251428176
933,4,T1_SMS_5,15,5,42,127,251510064
933,4,T1_SMS_5,16,1,48,46,251939092
933,4,T1_SMS_5,17,5,42,127,252010132
933,4,T1_SMS_5,18,1,48,41,252440808
933,4,T1_SMS_5,19,5,42,127,252509752
933,4,T1_SMS_5,20,1,48,48,252942816
933,4,T1_SMS_5,21,5,42,127,253010416
933,4,T1_SMS_5,22,1,48,51,253461360
933,4,T1_SMS_5,23,5,42,127,253510088
933,4,T1_SMS_5,24,1,48,44,253954996
933,4,T1_SMS_5,25,5,42,127,254009784
933,4,T1_SMS_5,26,1,48,34,254465240
933,4,T1_SMS_5,27,5,42,127,254509552
933,4,T1_SMS_5,28,1,48,45,254965380
933,4,T1_SMS_5,29,5,42,127,255010296
933,4,T1_SMS_5,30,1,48,43,255434408
933,4,T1_SMS_5,31,5,42,127,255509768
933,4,T1_SMS_5,32,1,48,45,255945848
933,4,T1_SMS_5,33,5,42,127,256009760
933,4,T1_SMS_5,34,1,48,41,256452348
933,4,T1_SMS_5,35,5,42,127,256510204
933,4,T1_SMS_5,36,1,48,38,256983308
933,4,T1_SMS_5,37,5,42,127,257009972
933,4,T1_SMS_5,38,1,48,47,257443888
933,4,T1_SMS_5,39,5,42,127,257509892
933,4,T1_SMS_5,40,1,48,54,257933932
933,4,T1_SMS_5,41,5,42,127,258009660
933,4,T1_SMS_5,42,1,48,49,258471844
933,4,T1_SMS_5,43,5,42,127,258510104
933,4,T1_SMS_5,44,1,48,50,258953812
933,4,T1_SMS_5,45,5,42,127,259009872
933,4,T1_SMS_5,46,1,48,48,259434060
933,4,T1_SMS_5,47,5,42,127,259509716
933,4,T1_SMS_5,48,1,48,43,259941388
933,4,T1_SMS_5,49,5,42,127,260010456
933,4,T1_SMS_5,50,1,48,46,260400220
933,4,T1_SMS_5,51,5,42,127,260510064
933,4,T1_SMS_5,52,1,48,38,260952668
933,4,T1_SMS_5,53,5,42,127,261009772
933,4,T1_SMS_5,54,1,48,42,261490584
933,4,T1_SMS_5,55,5,42,127,261509468
933,4,T1_SMS_5,56,5,42,127,262010292
933,4,T1_SMS_5,57,1,48,42,262017528
933,4,T1_SMS_5,58,1,48,40,262485784
933,4,T1_SMS_5,59,5,42,127,262509980
933,4,T1_SMS_5,60,1,48,45,263005676
933,4,T1_SMS_5,61,5,42,127,263009824
933,4,T1_SMS_5,62,1,48,45,263479692
933,4,T1_SMS_5,63,5,42,127,263510568
933,4,T1_SMS_5,64,1,48,41,263980956
933,4,T1_SMS_5,65,5,42,127,264010012
933,4,T1_SMS_5,66,1,48,46,264476160
933,4,T1_SMS_5,67,5,42,127,264509784
933,4,T1_SMS_5,68,1,48,44,264959624
933,4,T1_SMS_5,69,5,42,127,265009552
933,4,T1_SMS_5,70,1,48,55,265453484
933,4,T1_SMS_5,71,5,42,127,265510368
933,4,T1_SMS_5,72,1,48,49,265972932
933,4,T1_SMS_5,73,5,42,127,266009916
933,4,T1_SMS_5,74,1,48,48,266481004
933,4,T1_SMS_5,75,5,42,127,266509688
933,4,T1_SMS_5,76,1,48,54,266943148
933,4,T1_SMS_5,77,5,42,127,267010652
933,4,T1_SMS_5,78,1,48,55,267459076
933,4,T1_SMS_5,79,5,42,127,267510196
933,4,T1_SMS_5,80,1,48,53,267967528
933,4,T1_SMS_5,81,5,42,127,268009892
933,4,T1_SMS_5,82,1,48,51,268459368
933,4,T1_SMS_5,83,5,42,127,268509592
933,4,T1_SMS_5,84,1,48,46,268954648
933,4,T1_SMS_5,85,5,42,127,269010256
933,4,T1_SMS_5,86,1,48,49,269457712
933,4,T1_SMS_5,87,5,42,127,269509876
933,4,T1_SMS_5,88,1,48,51,269962416
933,4,T1_SMS_5,89,5,42,127,270009648
933,4,T1_SMS_5,90,1,48,48,270452456
933,4,T1_SMS_5,91,5,42,127,270509492
933,4,T1_SMS_5,92,1,48,53,270943556
933,4,T1_SMS_5,93,5,42,127,271010160
933,4,T1_SMS_5,94,1,48,52,271451180
933,4,T1_SMS_5,95,5,42,127,271509856
933,4,T1_SMS_5,96,1,48,50,271947656
933,4,T1_SMS_5,97,5,42,127,272009624
933,4,T1_SMS_5,98,1,48,58,272396012
933,4,T1_SMS_5,99,5,42,127,272510720
933,4,T1_SMS_5,100,1,48,51,272969012
933,4,T1_SMS_5,101,5,42,127,273009984
933,4,T1_SMS_5,102,1,48,52,273481344
933,4,T1_SMS_5,103,5,42,127,273509680
933,4,T1_SMS_5,104,1,48,42,273996396
933,4,T1_SMS_5,105,5,42,127,274009524
933,4,T1_SMS_5,106,5,42,127,274510048
933,4,T1_SMS_5,107,1,48,48,274514136
933,4,T1_SMS_5,108,1,48,40,275007280
933,4,T1_SMS_5,109,5,42,127,275009860
933,4,T1_SMS_5,110,1,48,52,275489472
933,4,T1_SMS_5,111,5,42,127,275509552
933,4,T1_SMS_5,112,1,48,50,275984376
933,4,T1_SMS_5,113,5,42,127,276010740
933,4,T1_SMS_5,114,1,48,51,276499932
933,4,T1_SMS_5,115,5,42,127,276509916
933,4,T1_SMS_5,116,1,48,51,276976212
933,4,T1_SMS_5,117,5,42,127,277009760
933,4,T1_SMS_5,118,5,42,127,277509612
933,4,T1_SMS_5,119,1,48,52,277524996
933,4,T1_SMS_5,120,1,48,46,278002832
933,4,T1_SMS_5,121,5,42,127,278010196
933,4,T1_SMS_5,122,1,48,43,278485024
933,4,T1_SMS_5,123,5,42,127,278509888
933,4,T1_SMS_5,124,1,48,47,278969160
933,4,T1_SMS_5,125,5,42,127,279009588
933,4,T1_SMS_5,126,1,48,43,279478356
933,4,T1_SMS_5,127,5,42,127,279510476
933,4,T1_SMS_5,128,1,48,46,280002208
933,4,T1_SMS_5,129,5,42,127,280010020
933,4,T1_SMS_5,130,1,48,43,280492776
933,4,T1_SMS_5,131,5,42,127,280509940
933,4,T1_SMS_5,132,1,48,50,280960236
933,4,T1_SMS_5,133,5,42,127,281009708
933,4,T1_SMS_5,134,1,48,54,281479076
933,4,T1_SMS_5,135,5,42,127,281510452
933,4,T1_SMS_5,136,5,42,127,282009856
933,4,T1_SMS_5,137,1,48,43,282033620
933,4,T1_SMS_5,138,5,42,127,282509552
933,4,T1_SMS_5,139,1,48,49,282530692
933,4,T1_SMS_5,140,1,48,54,282989760
933,4,T1_SMS_5,141,5,42,127,283010436
933,4,T1_SMS_5,142,1,48,56,283477856
933,4,T1_SMS_5,143,5,42,127,283510204
933,4,T1_SMS_5,144,1,48,47,284003656
933,4,T1_SMS_5,145,5,42,127,284009900
933,4,T1_SMS_5,146,1,48,46,284463980
933,4,T1_SMS_5,147,5,42,127,284509520
933,4,T1_SMS_5,148,1,48,47,284976992
933,4,T1_SMS_5,149,5,42,127,285010336
933,4,T1_SMS_5,150,1,48,54,285467716
933,4,T1_SMS_5,151,5,42,127,285510008
933,4,T1_SMS_5,152,1,48,50,286000764
933,4,T1_SMS_5,153,5,42,127,286009704
933,4,T1_SMS_5,154,1,48,42,286495824
933,4,T1_SMS_5,155,5,42,127,286509544
933,4,T1_SMS_5,156,1,48,43,286990056
933,4,T1_SMS_5,157,5,42,127,287010212
933,4,T1_SMS_5,158,1,48,54,287463872
933,4,T1_SMS_5,159,5,42,127,287509760
933,4,T1_SMS_5,160,5,42,127,288009684
933,4,T1_SMS_5,161,1,48,61,288014448
933,4,T1_SMS_5,162,1,48,63,288488096
933,4,T1_SMS_5,163,5,42,127,288510344
933,4,T1_SMS_5,164,1,48,59,288969536
933,4,T1_SMS_5,165,5,42,127,289010112
933,4,T1_SMS_5,166,1,48,59,289468260
933,4,T1_SMS_5,167,5,42,127,289509736
933,4,T1_SMS_5,168,1,48,28,289522412
933,4,T1_SMS_5,169,1,48,49,289976688
933,4,T1_SMS_5,170,5,42,127,290009484
933,4,T1_SMS_5,171,1,48,50,290471592
933,4,T1_SMS_5,172,5,42,127,290510372
933,4,T1_SMS_5,173,1,48,51,290949072
933,4,T1_SMS_5,174,5,42,127,291009844
933,4,T1_SMS_5,175,1,48,51,291478016
933,4,T1_SMS_5,176,5,42,127,291509540
933,4,T1_SMS_5,177,1,48,41,291979656
933,4,T1_SMS_5,178,5,42,127,292010284
933,4,T1_SMS_5,179,1,48,43,292466184
933,4,T1_SMS_5,180,5,42,127,292510200
933,4,T1_SMS_5,181,1,48,49,292987952
933,4,T1_SMS_5,182,5,42,127,293009672
933,4,T1_SMS_5,183,1,48,56,293472312
933,4,T1_SMS_5,184,5,42,127,293509444
933,4,T1_SMS_5,185,1,48,54,293955824
933,4,T1_SMS_5,186,5,42,127,294010184
933,4,T1_SMS_5,187,1,48,43,294467860
933,4,T1_SMS_5,188,5,42,127,294510028
933,4,T1_SMS_5,189,1,48,47,294953340
933,4,T1_SMS_5,190,5,42,127,295009724
933,4,T1_SMS_5,191,1,48,63,295454156
933,4,T1_SMS_5,192,5,42,127,295510392
933,4,T1_SMS_5,193,1,48,56,295964172
933,4,T1_SMS_5,194,5,42,127,296010232
933,4,T1_SMS_5,195,1,48,27,296022464
933,4,T1_SMS_5,196,1,48,46,296453972
933,4,T1_SMS_5,197,5,42,127,296509880
933,4,T1_SMS_5,198,1,48,46,296945660
933,4,T1_SMS_5,199,5,42,127,297009500
933,4,T1_SMS_5,200,1,48,53,297415288
933,4,T1_SMS_5,201,1,48,30,297469276
933,4,T1_SMS_5,202,5,42,127,297510224
933,4,T1_SMS_5,203,1,48,57,297916380
933,4,T1_SMS_5,204,5,42,127,298010052
933,4,T1_SMS_5,205,1,48,54,298417652
933,4,T1_SMS_5,206,5,42,127,298509596
933,4,T1_SMS_5,207,1,48,38,298938592
933,4,T1_SMS_5,208,5,42,127,299010352
933,4,T1_SMS_5,209,1,48,51,299449656
933,4,T1_SMS_5,210,5,42,127,299510200
933,4,T1_SMS_5,211,1,48,50,299959220
933,4,T1_SMS_5,212,5,42,127,300009748
933,4,T1_SMS_5,213,1,48,53,300442236
933,4,T1_SMS_5,214,5,42,127,300509516
933,4,T1_SMS_5,215,1,48,53,300963768
933,4,T1_SMS_5,216,5,42,127,301010256
933,4,T1_SMS_5,217,1,48,51,301455088
933,4,T1_SMS_5,218,5,42,127,301509952
933,4,T1_SMS_5,219,1,48,54,301969368
933,4,T1_SMS_5,220,5,42,127,302009648
933,4,T1_SMS_5,221,1,48,48,302469220
933,4,T1_SMS_5,222,5,42,127,302509344
933,4,T1_SMS_5,223,1,48,48,302972952
933,4,T1_SMS_5,224,5,42,127,303010232
933,4,T1_SMS_5,225,1,48,47,303471824
933,4,T1_SMS_5,226,5,42,127,303509856
933,4,T1_SMS_5,227,1,48,48,303951172
933,4,T1_SMS_5,228,5,42,127,304009548
933,4,T1_SMS_5,229,1,48,44,304471808
933,4,T1_SMS_5,230,5,42,127,304510364
933,4,T1_SMS_5,231,1,48,45,304974196
933,4,T1_SMS_5,232,5,42,127,305010284
933,4,T1_SMS_5,233,1,48,47,305476788
933,4,T1_SMS_5,234,5,42,127,305509680
933,4,T1_SMS_5,235,1,48,50,305967580
933,4,T1_SMS_5,236,5,42,127,306009524
933,4,T1_SMS_5,237,1,48,53,306449320
933,4,T1_SMS_5,238,5,42,127,306510120
933,4,T1_SMS_5,239,1,48,52,306953128
933,4,T1_SMS_5,240,5,42,127,307010160
933,4,T1_SMS_5,241,1,48,54,307462552
933,4,T1_SMS_5,242,5,42,127,307509560
933,4,T1_SMS_5,243,1,48,54,307952748
933,4,T1_SMS_5,244,5,42,127,308010304
933,4,T1_SMS_5,245,1,48,49,308460000
933,4,T1_SMS_5,246,5,42,127,308510444
933,4,T1_SMS_5,247,1,48,52,308936128
933,4,T1_SMS_5,248,5,42,127,309009988
933,4,T1_SMS_5,249,1,48,46,309471580
933,4,T1_SMS_5,250,5,42,127,309509388
933,4,T1_SMS_5,251,1,48,43,309967312
933,4,T1_SMS_5,252,5,42,127,310010352
933,4,T1_SMS_5,253,1,48,40,310499240
933,4,T1_SMS_5,254,5,42,127,310510120
933,4,T1_SMS_5,255,1,48,43,310964676
933,4,T1_SMS_5,256,5,42,127,311009592
933,4,T1_SMS_5,257,1,48,54,311471776
933,4,T1_SMS_5,258,5,42,127,311510336
933,4,T1_SMS_5,259,1,48,44,311963848
933,4,T1_SMS_5,260,5,42,127,312010104
933,4,T1_SMS_5,261,1,48,44,312461968
933,4,T1_SMS_5,0,9999,9999,9999,247508088
933,4,T1_SMS_5,1,9999,9999,9999,248007728
933,4,T1_SMS_5,2,9999,9999,9999,248507444
933,4,T1_SMS_5,3,9999,9999,9999,249007208
933,4,T1_SMS_5,4,9999,9999,9999,249507948
933,4,T1_SMS_5,5,9999,9999,9999,250007644
933,4,T1_SMS_5,6,9999,9999,9999,250507336
933,4,T1_SMS_5,7,9999,9999,9999,251008080
933,4,T1_SMS_5,8,9999,9999,9999,251507776
933,4,T1_SMS_5,9,9999,9999,9999,252007472
933,4,T1_SMS_5,10,9999,9999,9999,252507244
933,4,T1_SMS_5,11,9999,9999,9999,253007984
933,4,T1_SMS_5,12,9999,9999,9999,253507652
933,4,T1_SMS_5,13,9999,9999,9999,254007348
933,4,T1_SMS_5,14,9999,9999,9999,254507116
933,4,T1_SMS_5,15,9999,9999,9999,255007860
933,4,T1_SMS_5,16,9999,9999,9999,255507556
933,4,T1_SMS_5,17,9999,9999,9999,256007248
933,4,T1_SMS_5,18,9999,9999,9999,256507992
933,4,T1_SMS_5,19,9999,9999,9999,257007684
933,4,T1_SMS_5,20,9999,9999,9999,257507380
933,4,T1_SMS_5,21,9999,9999,9999,258007152
933,4,T1_SMS_5,22,9999,9999,9999,258507892
933,4,T1_SMS_5,23,9999,9999,9999,259007588
933,4,T1_SMS_5,24,9999,9999,9999,259507284
933,4,T1_SMS_5,25,9999,9999,9999,260008024
933,4,T1_SMS_5,26,9999,9999,9999,260507704
933,4,T1_SMS_5,27,9999,9999,9999,261007412
933,4,T1_SMS_5,28,9999,9999,9999,261507184
933,4,T1_SMS_5,29,9999,9999,9999,262007856
933,4,T1_SMS_5,30,9999,9999,9999,262507620
933,4,T1_SMS_5,31,9999,9999,9999,263007316
933,4,T1_SMS_5,32,9999,9999,9999,263508056
933,4,T1_SMS_5,33,9999,9999,9999,264007800
933,4,T1_SMS_5,34,9999,9999,9999,264507496
933,4,T1_SMS_5,35,9999,9999,9999,265007192
933,4,T1_SMS_5,36,9999,9999,9999,265507932
933,4,T1_SMS_5,37,9999,9999,9999,266007632
933,4,T1_SMS_5,38,9999,9999,9999,266507324
933,4,T1_SMS_5,39,9999,9999,9999,267008068
933,4,T1_SMS_5,40,9999,9999,9999,267507764
933,4,T1_SMS_5,41,9999,9999,9999,268007532
933,4,T1_SMS_5,42,9999,9999,9999,268507228
933,4,T1_SMS_5,43,9999,9999,9999,269007972
933,4,T1_SMS_5,44,9999,9999,9999,269507664
933,4,T1_SMS_5,45,9999,9999,9999,270007360
933,4,T1_SMS_5,46,9999,9999,9999,270507128
933,4,T1_SMS_5,47,9999,9999,9999,271007800
933,4,T1_SMS_5,48,9999,9999,9999,271507568
933,4,T1_SMS_5,49,9999,9999,9999,272007264
933,4,T1_SMS_5,50,9999,9999,9999,272507988
933,4,T1_SMS_5,51,9999,9999,9999,273007696
933,4,T1_SMS_5,52,9999,9999,9999,273507392
933,4,T1_SMS_5,53,9999,9999,9999,274007088
933,4,T1_SMS_5,54,9999,9999,9999,274507832
933,4,T1_SMS_5,55,9999,9999,9999,275007572
933,4,T1_SMS_5,56,9999,9999,9999,275507268
933,4,T1_SMS_5,57,9999,9999,9999,276008008
933,4,T1_SMS_5,58,9999,9999,9999,276507704
933,4,T1_SMS_5,59,9999,9999,9999,277007472
933,4,T1_SMS_5,60,9999,9999,9999,277507176
933,4,T1_SMS_5,61,9999,9999,9999,278007908
933,4,T1_SMS_5,62,9999,9999,9999,278507604
933,4,T1_SMS_5,63,9999,9999,9999,279007300
933,4,T1_SMS_5,64,9999,9999,9999,279508040
933,4,T1_SMS_5,65,9999,9999,9999,280007736
933,4,T1_SMS_5,66,9999,9999,9999,280507504
933,4,T1_SMS_5,67,9999,9999,9999,281007200
933,4,T1_SMS_5,68,9999,9999,9999,281507944
933,4,T1_SMS_5,69,9999,9999,9999,282007644
933,4,T1_SMS_5,70,9999,9999,9999,282507340
933,4,T1_SMS_5,71,9999,9999,9999,283008076
933,4,T1_SMS_5,72,9999,9999,9999,283507772
933,4,T1_SMS_5,73,9999,9999,9999,284007540
933,4,T1_SMS_5,74,9999,9999,9999,284507236
933,4,T1_SMS_5,75,9999,9999,9999,285007976
933,4,T1_SMS_5,76,9999,9999,9999,285507644
933,4,T1_SMS_5,77,9999,9999,9999,286007416
933,4,T1_SMS_5,78,9999,9999,9999,286507108
933,4,T1_SMS_5,79,9999,9999,9999,287007852
933,4,T1_SMS_5,80,9999,9999,9999,287507548
933,4,T1_SMS_5,81,9999,9999,9999,288007248
933,4,T1_SMS_5,82,9999,9999,9999,288507984
933,4,T1_SMS_5,83,9999,9999,9999,289007676
933,4,T1_SMS_5,84,9999,9999,9999,289507448
933,4,T1_SMS_5,85,9999,9999,9999,290007120
933,4,T1_SMS_5,86,9999,9999,9999,290507864
933,4,T1_SMS_5,87,9999,9999,9999,291007560
933,4,T1_SMS_5,88,9999,9999,9999,291507256
933,4,T1_SMS_5,89,9999,9999,9999,292007996
933,4,T1_SMS_5,90,9999,9999,9999,292507768
933,4,T1_SMS_5,91,9999,9999,9999,293007460
933,4,T1_SMS_5,92,9999,9999,9999,293507156
933,4,T1_SMS_5,93,9999,9999,9999,294007900
933,4,T1_SMS_5,94,9999,9999,9999,294507592
933,4,T1_SMS_5,95,9999,9999,9999,295007288
933,4,T1_SMS_5,96,9999,9999,9999,295508028
933,4,T1_SMS_5,97,9999,9999,9999,296007772
933,4,T1_SMS_5,98,9999,9999,9999,296507448
933,4,T1_SMS_5,99,9999,9999,9999,297007216
933,4,T1_SMS_5,100,9999,9999,9999,297507936
933,4,T1_SMS_5,101,9999,9999,9999,298007616
933,4,T1_SMS_5,102,9999,9999,9999,298507324
933,4,T1_SMS_5,103,9999,9999,9999,299008068
933,4,T1_SMS_5,104,9999,9999,9999,299507764
933,4,T1_SMS_5,105,9999,9999,9999,300007532
933,4,T1_SMS_5,106,9999,9999,9999,300507232
933,4,T1_SMS_5,107,9999,9999,9999,301007972
933,4,T1_SMS_5,108,9999,9999,9999,301507668
933,4,T1_SMS_5,109,9999,9999,9999,302007360
933,4,T1_SMS_5,110,9999,9999,9999,302507132
933,4,T1_SMS_5,111,9999,9999,9999,303007796
933,4,T1_SMS_5,112,9999,9999,9999,303507568
933,4,T1_SMS_5,113,9999,9999,9999,304007264
933,4,T1_SMS_5,114,9999,9999,9999,304508004
933,4,T1_SMS_5,115,9999,9999,9999,305007700
933,4,T1_SMS_5,116,9999,9999,9999,305507392
933,4,T1_SMS_5,117,9999,9999,9999,306007092
933,4,T1_SMS_5,118,9999,9999,9999,306507832
933,4,T1_SMS_5,119,9999,9999,9999,307007576
933,4,T1_SMS_5,120,9999,9999,9999,307507272
933,4,T1_SMS_5,121,9999,9999,9999,308008016
933,4,T1_SMS_5,122,9999,9999,9999,308507712
933,4,T1_SMS_5,123,9999,9999,9999,309007480
933,4,T1_SMS_5,124,9999,9999,9999,309507176
933,4,T1_SMS_5,125,9999,9999,9999,310007916
933,4,T1_SMS_5,126,9999,9999,9999,310507612
933,4,T1_SMS_5,127,9999,9999,9999,311007304
933,4,T1_SMS_5,128,9999,9999,9999,311508048
933,4,T1_SMS_5,129,9999,9999,9999,312007744
934,2,T1_SMS_8,0,5,42,127,387561936
934,2,T1_SMS_8,1,5,42,127,388361688
934,2,T1_SMS_8,2,5,42,127,389162268
934,2,T1_SMS_8,3,1,48,62,389175560
934,2,T1_SMS_8,4,1,48,68,389930396
934,2,T1_SMS_8,5,5,42,127,389962168
934,2,T1_SMS_8,6,1,48,28,390334196
934,2,T1_SMS_8,7,1,48,80,390759228
934,2,T1_SMS_8,8,5,42,127,390761880
934,2,T1_SMS_8,9,1,48,71,391532784
934,2,T1_SMS_8,10,5,42,127,391561540
934,2,T1_SMS_8,11,1,48,64,392341792
934,2,T1_SMS_8,12,5,42,127,392362764
934,2,T1_SMS_8,13,1,48,70,393144816
934,2,T1_SMS_8,14,5,42,127,393161980
934,2,T1_SMS_8,15,5,42,127,393961792
934,2,T1_SMS_8,16,1,48,59,394033504
934,2,T1_SMS_8,17,1,48,63,394756552
934,2,T1_SMS_8,18,5,42,127,394761744
934,2,T1_SMS_8,19,1,48,73,395540200
934,2,T1_SMS_8,20,5,42,127,395562596
934,2,T1_SMS_8,21,1,48,62,396311660
934,2,T1_SMS_8,22,5,42,127,396362204
934,2,T1_SMS_8,23,1,48,24,396382136
934,2,T1_SMS_8,24,5,42,127,397161776
934,2,T1_SMS_8,25,1,48,70,397163112
934,2,T1_SMS_8,26,5,42,127,397961656
934,2,T1_SMS_8,27,1,48,70,397984824
934,2,T1_SMS_8,28,1,48,70,398748488
934,2,T1_SMS_8,29,5,42,127,398762508
934,2,T1_SMS_8,30,1,48,63,399535432
934,2,T1_SMS_8,31,5,42,127,399561944
934,2,T1_SMS_8,32,1,48,70,400334868
934,2,T1_SMS_8,33,5,42,127,400361828
934,2,T1_SMS_8,34,5,42,127,401161640
934,2,T1_SMS_8,35,1,48,69,401172312
934,2,T1_SMS_8,36,1,48,69,401940840
934,2,T1_SMS_8,37,5,42,127,401962560
934,2,T1_SMS_8,38,1,48,26,402006460
934,2,T1_SMS_8,39,1,48,73,402754532
934,2,T1_SMS_8,40,5,42,127,402762224
934,2,T1_SMS_8,41,1,48,60,403532156
934,2,T1_SMS_8,42,5,42,127,403561808
934,2,T1_SMS_8,43,1,48,73,404344152
934,2,T1_SMS_8,44,5,42,127,404361616
934,2,T1_SMS_8,45,1,48,57,405162180
934,2,T1_SMS_8,46,5,42,127,405163664
934,2,T1_SMS_8,47,1,48,72,405949228
934,2,T1_SMS_8,48,5,42,127,405962204
934,2,T1_SMS_8,49,1,48,72,406746496
934,2,T1_SMS_8,50,5,42,127,406761936
934,2,T1_SMS_8,51,1,48,61,407510924
934,2,T1_SMS_8,52,5,42,127,407561596
934,2,T1_SMS_8,53,5,42,127,408362308
934,2,T1_SMS_8,54,1,48,68,408363572
934,2,T1_SMS_8,55,1,48,51,409120416
934,2,T1_SMS_8,56,5,42,127,409162064
934,2,T1_SMS_8,57,5,42,127,409961728
934,2,T1_SMS_8,58,1,48,62,409973896
934,2,T1_SMS_8,59,5,42,127,410761612
934,2,T1_SMS_8,60,1,48,67,410802204
934,2,T1_SMS_8,61,5,42,127,411562464
934,2,T1_SMS_8,62,1,48,70,411635444
934,2,T1_SMS_8,63,1,48,67,412342036
934,2,T1_SMS_8,64,5,42,127,412362192
934,2,T1_SMS_8,65,1,48,65,413097936
934,2,T1_SMS_8,66,5,42,127,413161924
934,2,T1_SMS_8,67,1,48,76,413888772
934,2,T1_SMS_8,68,5,42,127,413961580
934,2,T1_SMS_8,69,1,48,62,414730768
934,2,T1_SMS_8,70,5,42,127,414762440
934,2,T1_SMS_8,71,1,48,70,415523172
934,2,T1_SMS_8,72,5,42,127,415562124
934,2,T1_SMS_8,73,5,42,127,416361792
934,2,T1_SMS_8,74,1,48,58,416373508
934,2,T1_SMS_8,75,1,48,78,417133356
934,2,T1_SMS_8,76,5,42,127,417161516
934,2,T1_SMS_8,77,1,48,61,417938480
934,2,T1_SMS_8,78,5,42,127,417962444
934,2,T1_SMS_8,79,1,48,57,418761284
934,2,T1_SMS_8,80,5,42,127,418762856
934,2,T1_SMS_8,81,1,48,78,419545276
934,2,T1_SMS_8,82,5,42,127,419561692
934,2,T1_SMS_8,83,1,48,70,420339396
934,2,T1_SMS_8,84,5,42,127,420361572
934,2,T1_SMS_8,85,1,48,66,421157828
934,2,T1_SMS_8,86,5,42,127,421162424
934,2,T1_SMS_8,87,1,48,69,421912612
934,2,T1_SMS_8,88,5,42,127,421962256
934,2,T1_SMS_8,89,5,42,127,422761776
934,2,T1_SMS_8,90,1,48,65,422770576
934,2,T1_SMS_8,91,5,42,127,423561508
934,2,T1_SMS_8,92,1,48,61,423581156
934,2,T1_SMS_8,93,5,42,127,424362360
934,2,T1_SMS_8,94,1,48,64,424382536
934,2,T1_SMS_8,95,1,48,65,425155920
934,2,T1_SMS_8,96,5,42,127,425162460
934,2,T1_SMS_8,97,5,42,127,425962052
934,2,T1_SMS_8,98,1,48,72,425986196
934,2,T1_SMS_8,99,1,48,66,426750972
934,2,T1_SMS_8,100,5,42,127,426761632
934,2,T1_SMS_8,101,5,42,127,427562272
934,2,T1_SMS_8,102,1,48,64,427570996
934,2,T1_SMS_8,103,5,42,127,428362176
934,2,T1_SMS_8,104,1,48,52,428388712
934,2,T1_SMS_8,105,1,48,91,429155364
934,2,T1_SMS_8,106,5,42,127,429162128
934,2,T1_SMS_8,107,5,42,127,429961720
934,2,T1_SMS_8,108,1,48,72,430010468
934,2,T1_SMS_8,109,5,42,127,430762276
934,2,T1_SMS_8,110,1,48,55,430798752
934,2,T1_SMS_8,111,5,42,127,431562084
934,2,T1_SMS_8,112,1,48,63,431566768
934,2,T1_SMS_8,113,1,48,74,432361816
934,2,T1_SMS_8,114,5,42,127,432363156
934,2,T1_SMS_8,115,1,48,66,433112296
934,2,T1_SMS_8,116,5,42,127,433161544
934,2,T1_SMS_8,117,1,48,64,433932892
934,2,T1_SMS_8,118,5,42,127,433962472
934,2,T1_SMS_8,119,5,42,127,434762016
934,2,T1_SMS_8,120,1,48,65,434776208
934,2,T1_SMS_8,121,5,42,127,435561896
934,2,T1_SMS_8,122,1,48,61,435618948
934,2,T1_SMS_8,123,5,42,127,436361556
934,2,T1_SMS_8,124,1,48,62,436452112
934,2,T1_SMS_8,125,5,42,127,437162336
934,2,T1_SMS_8,126,1,48,53,437214524
934,2,T1_SMS_8,127,5,42,127,437962220
934,2,T1_SMS_8,128,1,48,65,438064892
934,2,T1_SMS_8,129,5,42,127,438761880
934,2,T1_SMS_8,130,1,48,58,438768964
934,2,T1_SMS_8,131,1,48,57,439495076
934,2,T1_SMS_8,132,5,42,127,439561532
934,2,T1_SMS_8,133,1,48,64,440354792
934,2,T1_SMS_8,134,5,42,127,440362384
934,2,T1_SMS_8,135,1,48,63,441128872
934,2,T1_SMS_8,136,5,42,127,441162068
934,2,T1_SMS_8,137,1,48,54,441902800
934,2,T1_SMS_8,138,5,42,127,441961872
934,2,T1_SMS_8,139,1,48,69,442709068
934,2,T1_SMS_8,140,5,42,127,442761680
934,2,T1_SMS_8,141,1,48,69,443506704
934,2,T1_SMS_8,142,5,42,127,443562388
934,2,T1_SMS_8,143,1,48,67,444336360
934,2,T1_SMS_8,144,5,42,127,444361972
934,2,T1_SMS_8,145,1,48,70,445144616
934,2,T1_SMS_8,146,5,42,127,445161780
934,2,T1_SMS_8,147,5,42,127,445961520
934,2,T1_SMS_8,148,1,48,64,445976760
934,2,T1_SMS_8,149,5,42,127,446762372
934,2,T1_SMS_8,150,1,48,55,446813012
934,2,T1_SMS_8,151,1,48,64,447531104
934,2,T1_SMS_8,152,5,42,127,447561976
934,2,T1_SMS_8,153,5,42,127,448361716
934,2,T1_SMS_8,154,1,48,72,448372088
934,2,T1_SMS_8,155,1,48,47,449152060
934,2,T1_SMS_8,156,5,42,127,449161592
934,2,T1_SMS_8,157,1,48,61,449943716
934,2,T1_SMS_8,158,5,42,127,449962296
934,2,T1_SMS_8,159,1,48,59,450722652
934,2,T1_SMS_8,160,5,42,127,450761956
934,2,T1_SMS_8,161,1,48,67,451551636
934,2,T1_SMS_8,162,5,42,127,451561764
934,2,T1_SMS_8,163,1,48,60,452311500
934,2,T1_SMS_8,164,5,42,127,452361648
934,2,T1_SMS_8,165,1,48,70,453146688
934,2,T1_SMS_8,166,5,42,127,453162428
934,2,T1_SMS_8,167,5,42,127,453962044
934,2,T1_SMS_8,168,1,48,83,453969956
934,2,T1_SMS_8,169,1,48,72,454736604
934,2,T1_SMS_8,170,5,42,127,454761848
934,2,T1_SMS_8,171,1,48,58,455546964
934,2,T1_SMS_8,172,5,42,127,455561732
934,2,T1_SMS_8,173,1,48,52,456339364
934,2,T1_SMS_8,174,5,42,127,456362288
934,2,T1_SMS_8,175,1,48,70,457158924
934,2,T1_SMS_8,176,5,42,127,457162020
934,2,T1_SMS_8,177,1,48,59,457954164
934,2,T1_SMS_8,178,5,42,127,457961828
934,2,T1_SMS_8,179,1,48,65,458753748
934,2,T1_SMS_8,180,5,42,127,458761784
934,2,T1_SMS_8,181,1,48,67,459544208
934,2,T1_SMS_8,182,5,42,127,459562268
934,2,T1_SMS_8,183,1,48,60,460317612
934,2,T1_SMS_8,184,5,42,127,460362100
934,2,T1_SMS_8,185,1,48,74,461140632
934,2,T1_SMS_8,186,5,42,127,461161836
934,2,T1_SMS_8,187,1,48,71,461947928
934,2,T1_SMS_8,188,5,42,127,461961716
934,2,T1_SMS_8,189,1,48,65,462751172
934,2,T1_SMS_8,190,5,42,127,462762424
934,2,T1_SMS_8,191,1,48,61,463538344
934,2,T1_SMS_8,192,5,42,127,463562088
934,2,T1_SMS_8,193,5,42,127,464361976
934,2,T1_SMS_8,194,1,48,59,464394640
934,2,T1_SMS_8,195,5,42,127,465161780
934,2,T1_SMS_8,196,1,48,51,465208440
934,2,T1_SMS_8,197,5,42,127,465962488
934,2,T1_SMS_8,198,1,48,73,465991064
934,2,T1_SMS_8,199,5,42,127,466762096
934,2,T1_SMS_8,200,1,48,51,466781596
934,2,T1_SMS_8,201,1,48,72,467554312
934,2,T1_SMS_8,202,5,42,127,467561972
934,2,T1_SMS_8,203,5,42,127,468361564
934,2,T1_SMS_8,204,1,48,69,468385924
934,2,T1_SMS_8,205,5,42,127,469162268
934,2,T1_SMS_8,206,1,48,59,469172348
934,2,T1_SMS_8,207,1,48,56,469922096
934,2,T1_SMS_8,208,5,42,127,469962072
934,2,T1_SMS_8,209,1,48,23,469998160
934,2,T1_SMS_8,210,5,42,127,470761936
934,2,T1_SMS_8,211,1,48,59,470853868
934,2,T1_SMS_8,212,5,42,127,471561448
934,2,T1_SMS_8,213,1,48,60,471600092
934,2,T1_SMS_8,214,1,48,67,472359420
934,2,T1_SMS_8,215,5,42,127,472362516
934,2,T1_SMS_8,216,1,48,50,473136712
934,2,T1_SMS_8,217,5,42,127,473162128
934,2,T1_SMS_8,218,1,48,57,473894408
934,2,T1_SMS_8,219,5,42,127,473961712
934,2,T1_SMS_8,220,1,48,65,474710176
934,2,T1_SMS_8,221,5,42,127,474761516
934,2,T1_SMS_8,222,1,48,68,475541624
934,2,T1_SMS_8,223,5,42,127,475562524
934,2,T1_SMS_8,224,5,42,127,476362040
934,2,T1_SMS_8,225,1,48,65,476429708
934,2,T1_SMS_8,226,5,42,127,477161920
934,2,T1_SMS_8,227,1,48,64,477214256
934,2,T1_SMS_8,228,5,42,127,477961504
934,2,T1_SMS_8,229,1,48,54,477974720
934,2,T1_SMS_8,230,5,42,127,478762508
934,2,T1_SMS_8,231,1,48,65,478771540
934,2,T1_SMS_8,232,5,42,127,479562044
934,2,T1_SMS_8,233,1,48,57,479624848
934,2,T1_SMS_8,234,5,42,127,480361776
934,2,T1_SMS_8,235,1,48,55,480442536
934,2,T1_SMS_8,236,5,42,127,481161508
934,2,T1_SMS_8,237,1,48,61,481242120
934,2,T1_SMS_8,238,5,42,127,481962436
934,2,T1_SMS_8,239,1,48,57,482010512
934,2,T1_SMS_8,240,5,42,127,482762020
934,2,T1_SMS_8,241,1,48,55,482769628
934,2,T1_SMS_8,0,9999,9999,9999,387559500
934,2,T1_SMS_8,1,9999,9999,9999,388359252
934,2,T1_SMS_8,2,9999,9999,9999,389159980
934,2,T1_SMS_8,3,9999,9999,9999,389959732
934,2,T1_SMS_8,4,9999,9999,9999,390759520
934,2,T1_SMS_8,5,9999,9999,9999,391559252
934,2,T1_SMS_8,6,9999,9999,9999,392360032
934,2,T1_SMS_8,7,9999,9999,9999,393159764
934,2,T1_SMS_8,8,9999,9999,9999,393959504
934,2,T1_SMS_8,9,9999,9999,9999,394759232
934,2,T1_SMS_8,10,9999,9999,9999,395560012
934,2,T1_SMS_8,11,9999,9999,9999,396359768
934,2,T1_SMS_8,12,9999,9999,9999,397159488
934,2,T1_SMS_8,13,9999,9999,9999,397959220
934,2,T1_SMS_8,14,9999,9999,9999,398759996
934,2,T1_SMS_8,15,9999,9999,9999,399559732
934,2,T1_SMS_8,16,9999,9999,9999,400359540
934,2,T1_SMS_8,17,9999,9999,9999,401159280
934,2,T1_SMS_8,18,9999,9999,9999,401960052
934,2,T1_SMS_8,19,9999,9999,9999,402759788
934,2,T1_SMS_8,20,9999,9999,9999,403559520
934,2,T1_SMS_8,21,9999,9999,9999,404359252
934,2,T1_SMS_8,22,9999,9999,9999,405160040
934,2,T1_SMS_8,23,9999,9999,9999,405959764
934,2,T1_SMS_8,24,9999,9999,9999,406759500
934,2,T1_SMS_8,25,9999,9999,9999,407559236
934,2,T1_SMS_8,26,9999,9999,9999,408360020
934,2,T1_SMS_8,27,9999,9999,9999,409159776
934,2,T1_SMS_8,28,9999,9999,9999,409959512
934,2,T1_SMS_8,29,9999,9999,9999,410759248
934,2,T1_SMS_8,30,9999,9999,9999,411560028
934,2,T1_SMS_8,31,9999,9999,9999,412359752
934,2,T1_SMS_8,32,9999,9999,9999,413159488
934,2,T1_SMS_8,33,9999,9999,9999,413959220
934,2,T1_SMS_8,34,9999,9999,9999,414760000
934,2,T1_SMS_8,35,9999,9999,9999,415559760
934,2,T1_SMS_8,36,9999,9999,9999,416359500
934,2,T1_SMS_8,37,9999,9999,9999,417159232
934,2,T1_SMS_8,38,9999,9999,9999,417960008
934,2,T1_SMS_8,39,9999,9999,9999,418759748
934,2,T1_SMS_8,40,9999,9999,9999,419559476
934,2,T1_SMS_8,41,9999,9999,9999,420359284
934,2,T1_SMS_8,42,9999,9999,9999,421159988
934,2,T1_SMS_8,43,9999,9999,9999,421959744
934,2,T1_SMS_8,44,9999,9999,9999,422759488
934,2,T1_SMS_8,45,9999,9999,9999,423559220
934,2,T1_SMS_8,46,9999,9999,9999,424360000
934,2,T1_SMS_8,47,9999,9999,9999,425159728
934,2,T1_SMS_8,48,9999,9999,9999,425959540
934,2,T1_SMS_8,49,9999,9999,9999,426759268
934,2,T1_SMS_8,50,9999,9999,9999,427559984
934,2,T1_SMS_8,51,9999,9999,9999,428359740
934,2,T1_SMS_8,52,9999,9999,9999,429159544
934,2,T1_SMS_8,53,9999,9999,9999,429959280
934,2,T1_SMS_8,54,9999,9999,9999,430759988
934,2,T1_SMS_8,55,9999,9999,9999,431559796
934,2,T1_SMS_8,56,9999,9999,9999,432359528
934,2,T1_SMS_8,57,9999,9999,9999,433159256
934,2,T1_SMS_8,58,9999,9999,9999,433960036
934,2,T1_SMS_8,59,9999,9999,9999,434759728
934,2,T1_SMS_8,60,9999,9999,9999,435559536
934,2,T1_SMS_8,61,9999,9999,9999,436359268
934,2,T1_SMS_8,62,9999,9999,9999,437160048
934,2,T1_SMS_8,63,9999,9999,9999,437959780
934,2,T1_SMS_8,64,9999,9999,9999,438759516
934,2,T1_SMS_8,65,9999,9999,9999,439559244
934,2,T1_SMS_8,66,9999,9999,9999,440360020
934,2,T1_SMS_8,67,9999,9999,9999,441159780
934,2,T1_SMS_8,68,9999,9999,9999,441959512
934,2,T1_SMS_8,69,9999,9999,9999,442759244
934,2,T1_SMS_8,70,9999,9999,9999,443560024
934,2,T1_SMS_8,71,9999,9999,9999,444359756
934,2,T1_SMS_8,72,9999,9999,9999,445159492
934,2,T1_SMS_8,73,9999,9999,9999,445959232
934,2,T1_SMS_8,74,9999,9999,9999,446760012
934,2,T1_SMS_8,75,9999,9999,9999,447559764
934,2,T1_SMS_8,76,9999,9999,9999,448359500
934,2,T1_SMS_8,77,9999,9999,9999,449159232
934,2,T1_SMS_8,78,9999,9999,9999,449960008
934,2,T1_SMS_8,79,9999,9999,9999,450759744
934,2,T1_SMS_8,80,9999,9999,9999,451559480
934,2,T1_SMS_8,81,9999,9999,9999,452359284
934,2,T1_SMS_8,82,9999,9999,9999,453159992
934,2,T1_SMS_8,83,9999,9999,9999,453959756
934,2,T1_SMS_8,84,9999,9999,9999,454759484
934,2,T1_SMS_8,85,9999,9999,9999,455559220
934,2,T1_SMS_8,86,9999,9999,9999,456360000
934,2,T1_SMS_8,87,9999,9999,9999,457159736
934,2,T1_SMS_8,88,9999,9999,9999,457959540
934,2,T1_SMS_8,89,9999,9999,9999,458759276
934,2,T1_SMS_8,90,9999,9999,9999,459560056
934,2,T1_SMS_8,91,9999,9999,9999,460359740
934,2,T1_SMS_8,92,9999,9999,9999,461159472
934,2,T1_SMS_8,93,9999,9999,9999,461959280
934,2,T1_SMS_8,94,9999,9999,9999,462759988
934,2,T1_SMS_8,95,9999,9999,9999,463559800
934,2,T1_SMS_8,96,9999,9999,9999,464359536
934,2,T1_SMS_8,97,9999,9999,9999,465159272
934,2,T1_SMS_8,98,9999,9999,9999,465960048
934,2,T1_SMS_8,99,9999,9999,9999,466759736
934,2,T1_SMS_8,100,9999,9999,9999,467559536
934,2,T1_SMS_8,101,9999,9999,9999,468359276
934,2,T1_SMS_8,102,9999,9999,9999,469159980
934,2,T1_SMS_8,103,9999,9999,9999,469959784
934,2,T1_SMS_8,104,9999,9999,9999,470759500
934,2,T1_SMS_8,105,9999,9999,9999,471559232
934,2,T1_SMS_8,106,9999,9999,9999,472360004
934,2,T1_SMS_8,107,9999,9999,9999,473159764
934,2,T1_SMS_8,108,9999,9999,9999,473959496
934,2,T1_SMS_8,109,9999,9999,9999,474759232
934,2,T1_SMS_8,110,9999,9999,9999,475560012
934,2,T1_SMS_8,111,9999,9999,9999,476359752
934,2,T1_SMS_8,112,9999,9999,9999,477159484
934,2,T1_SMS_8,113,9999,9999,9999,477959216
934,2,T1_SMS_8,114,9999,9999,9999,478759996
934,2,T1_SMS_8,115,9999,9999,9999,479559756
934,2,T1_SMS_8,116,9999,9999,9999,480359488
934,2,T1_SMS_8,117,9999,9999,9999,481159220
934,2,T1_SMS_8,118,9999,9999,9999,481960000
934,2,T1_SMS_8,119,9999,9999,9999,482759732
935,23,Ticks_Phase_5,0,5,42,127,494329328
935,23,Ticks_Phase_5,1,5,42,127,494829188
935,23,Ticks_Phase_5,2,1,48,53,495279664
935,23,Ticks_Phase_5,3,5,42,127,495328592
935,23,Ticks_Phase_5,4,1,48,62,495759956
935,23,Ticks_Phase_5,5,5,42,127,495829328
935,23,Ticks_Phase_5,6,1,48,60,496233580
935,23,Ticks_Phase_5,7,5,42,127,496329224
935,23,Ticks_Phase_5,8,1,48,60,496736796
935,23,Ticks_Phase_5,9,5,42,127,496828704
935,23,Ticks_Phase_5,10,1,48,52,497243216
935,23,Ticks_Phase_5,11,5,42,127,497328544
935,23,Ticks_Phase_5,12,1,48,51,497717944
935,23,Ticks_Phase_5,13,5,42,127,497829112
935,23,Ticks_Phase_5,14,1,48,52,498226328
935,23,Ticks_Phase_5,15,5,42,127,498328952
935,23,Ticks_Phase_5,16,1,48,48,498777704
935,23,Ticks_Phase_5,17,5,42,127,498828656
935,23,Ticks_Phase_5,18,1,48,47,499274836
935,23,Ticks_Phase_5,19,5,42,127,499329388
935,23,Ticks_Phase_5,20,1,48,45,499766424
935,23,Ticks_Phase_5,21,5,42,127,499829076
935,23,Ticks_Phase_5,22,1,48,43,500297656
935,23,Ticks_Phase_5,23,5,42,127,500328688
935,23,Ticks_Phase_5,24,1,48,52,500784952
935,23,Ticks_Phase_5,25,5,42,127,500828600
935,23,Ticks_Phase_5,26,1,48,52,501272440
935,23,Ticks_Phase_5,27,5,42,127,501329188
935,23,Ticks_Phase_5,28,1,48,40,501820956
935,23,Ticks_Phase_5,29,5,42,127,501828948
935,23,Ticks_Phase_5,30,1,48,49,502278708
935,23,Ticks_Phase_5,31,5,42,127,502328908
935,23,Ticks_Phase_5,32,1,48,56,502823176
935,23,Ticks_Phase_5,33,5,42,127,502829420
935,23,Ticks_Phase_5,34,1,48,48,503303160
935,23,Ticks_Phase_5,35,5,42,127,503339368
935,23,Ticks_Phase_5,36,1,48,47,503786528
935,23,Ticks_Phase_5,37,5,42,127,503839132
935,23,Ticks_Phase_5,38,1,48,47,504318648
935,23,Ticks_Phase_5,39,5,42,127,504338896
935,23,Ticks_Phase_5,40,1,48,43,504799012
935,23,Ticks_Phase_5,41,5,42,127,504838436
935,23,Ticks_Phase_5,42,1,48,49,505303316
935,23,Ticks_Phase_5,43,5,42,127,505339368
935,23,Ticks_Phase_5,44,1,48,55,505795360
935,23,Ticks_Phase_5,45,5,42,127,505838908
935,23,Ticks_Phase_5,46,1,48,46,506288844
935,23,Ticks_Phase_5,47,5,42,127,506338748
935,23,Ticks_Phase_5,48,1,48,46,506804024
935,23,Ticks_Phase_5,49,5,42,127,506839484
935,23,Ticks_Phase_5,50,1,48,55,507314500
935,23,Ticks_Phase_5,51,5,42,127,507339020
935,23,Ticks_Phase_5,52,1,48,53,507792696
935,23,Ticks_Phase_5,53,5,42,127,507838932
935,23,Ticks_Phase_5,54,1,48,50,508333568
935,23,Ticks_Phase_5,55,5,42,127,508338620
935,23,Ticks_Phase_5,56,5,42,127,508839288
935,23,Ticks_Phase_5,57,1,48,41,508847212
935,23,Ticks_Phase_5,58,5,42,127,509328868
935,23,Ticks_Phase_5,59,1,48,48,509335128
935,23,Ticks_Phase_5,60,1,48,52,509803656
935,23,Ticks_Phase_5,61,5,42,127,509828476
935,23,Ticks_Phase_5,62,1,48,59,510289344
935,23,Ticks_Phase_5,63,5,42,127,510329136
935,23,Ticks_Phase_5,64,1,48,52,510798920
935,23,Ticks_Phase_5,65,5,42,127,510828976
935,23,Ticks_Phase_5,66,1,48,49,511307296
935,23,Ticks_Phase_5,67,5,42,127,511328736
935,23,Ticks_Phase_5,68,1,48,49,511798264
935,23,Ticks_Phase_5,69,5,42,127,511829396
935,23,Ticks_Phase_5,70,1,48,49,512281848
935,23,Ticks_Phase_5,71,5,42,127,512329008
935,23,Ticks_Phase_5,72,1,48,40,512795760
935,23,Ticks_Phase_5,73,5,42,127,512828896
935,23,Ticks_Phase_5,74,1,48,44,513286896
935,23,Ticks_Phase_5,75,5,42,127,513328484
935,23,Ticks_Phase_5,76,1,48,48,513748760
935,23,Ticks_Phase_5,77,5,42,127,513829216
935,23,Ticks_Phase_5,78,1,48,41,514302292
935,23,Ticks_Phase_5,79,5,42,127,514328908
935,23,Ticks_Phase_5,80,1,48,52,514788952
935,23,Ticks_Phase_5,81,5,42,127,514828820
935,23,Ticks_Phase_5,82,1,48,52,515283992
935,23,Ticks_Phase_5,83,5,42,127,515329256
935,23,Ticks_Phase_5,84,1,48,40,515802476
935,23,Ticks_Phase_5,85,5,42,127,515829240
935,23,Ticks_Phase_5,86,1,48,56,516268692
935,23,Ticks_Phase_5,87,5,42,127,516328856
935,23,Ticks_Phase_5,88,1,48,52,516760964
935,23,Ticks_Phase_5,89,5,42,127,516828616
935,23,Ticks_Phase_5,90,1,48,51,517289856
935,23,Ticks_Phase_5,91,5,42,127,517329352
935,23,Ticks_Phase_5,92,1,48,51,517767608
935,23,Ticks_Phase_5,93,5,42,127,517829116
935,23,Ticks_Phase_5,94,1,48,45,518281296
935,23,Ticks_Phase_5,95,5,42,127,518338916
935,23,Ticks_Phase_5,96,1,48,52,518728268
935,23,Ticks_Phase_5,97,5,42,127,518838664
935,23,Ticks_Phase_5,98,5,42,127,519339344
935,23,Ticks_Phase_5,99,1,48,41,519421024
935,23,Ticks_Phase_5,100,5,42,127,519839036
935,23,Ticks_Phase_5,101,1,48,45,519872708
935,23,Ticks_Phase_5,102,1,48,44,520327008
935,23,Ticks_Phase_5,103,5,42,127,520338792
935,23,Ticks_Phase_5,104,1,48,52,520789920
935,23,Ticks_Phase_5,105,5,42,127,520838480
935,23,Ticks_Phase_5,106,1,48,43,521309980
935,23,Ticks_Phase_5,107,5,42,127,521339216
935,23,Ticks_Phase_5,108,1,48,46,521791916
935,23,Ticks_Phase_5,109,5,42,127,521838904
935,23,Ticks_Phase_5,110,1,48,41,522300496
935,23,Ticks_Phase_5,111,5,42,127,522338664
935,23,Ticks_Phase_5,112,1,48,51,522781456
935,23,Ticks_Phase_5,113,5,42,127,522839400
935,23,Ticks_Phase_5,114,1,48,48,523267296
935,23,Ticks_Phase_5,115,5,42,127,523339012
935,23,Ticks_Phase_5,116,1,48,46,523772516
935,23,Ticks_Phase_5,117,5,42,127,523838776
935,23,Ticks_Phase_5,118,1,48,44,524321704
935,23,Ticks_Phase_5,119,5,42,127,524338736
935,23,Ticks_Phase_5,120,1,48,45,524828436
935,23,Ticks_Phase_5,121,5,42,127,524839248
935,23,Ticks_Phase_5,122,1,48,40,525333960
935,23,Ticks_Phase_5,123,5,42,127,525338936
935,23,Ticks_Phase_5,124,5,42,127,525838704
935,23,Ticks_Phase_5,125,1,48,40,525864884
935,23,Ticks_Phase_5,126,1,48,33,526316184
935,23,Ticks_Phase_5,127,5,42,127,526358908
935,23,Ticks_Phase_5,128,1,48,34,526837380
935,23,Ticks_Phase_5,129,5,42,127,526858748
935,23,Ticks_Phase_5,130,1,48,46,527311304
935,23,Ticks_Phase_5,131,5,42,127,527359260
935,23,Ticks_Phase_5,132,1,48,39,527817508
935,23,Ticks_Phase_5,133,5,42,127,527858948
935,23,Ticks_Phase_5,134,1,48,41,528323552
935,23,Ticks_Phase_5,135,5,42,127,528358784
935,23,Ticks_Phase_5,136,1,48,47,528809468
935,23,Ticks_Phase_5,137,5,42,127,528858548
935,23,Ticks_Phase_5,138,1,48,46,529305104
935,23,Ticks_Phase_5,139,5,42,127,529359284
935,23,Ticks_Phase_5,140,1,48,43,529807428
935,23,Ticks_Phase_5,141,5,42,127,529858896
935,23,Ticks_Phase_5,142,1,48,49,530333460
935,23,Ticks_Phase_5,143,5,42,127,530358512
935,23,Ticks_Phase_5,144,1,48,48,530809196
935,23,Ticks_Phase_5,145,5,42,127,530859320
935,23,Ticks_Phase_5,146,1,48,50,531325644
935,23,Ticks_Phase_5,147,5,42,127,531359156
935,23,Ticks_Phase_5,148,1,48,43,531833204
935,23,Ticks_Phase_5,149,5,42,127,531858772
935,23,Ticks_Phase_5,150,1,48,51,532348472
935,23,Ticks_Phase_5,151,5,42,127,532358460
935,23,Ticks_Phase_5,152,1,48,47,532824712
935,23,Ticks_Phase_5,153,5,42,127,532859196
935,23,Ticks_Phase_5,154,5,42,127,533359040
935,23,Ticks_Phase_5,155,1,48,41,533361632
935,23,Ticks_Phase_5,156,1,48,47,533834716
935,23,Ticks_Phase_5,157,5,42,127,533858644
935,23,Ticks_Phase_5,158,1,48,40,534336276
935,23,Ticks_Phase_5,159,5,42,127,534359904
935,23,Ticks_Phase_5,160,1,48,47,534837332
935,23,Ticks_Phase_5,161,5,42,127,534838828
935,23,Ticks_Phase_5,162,1,48,39,535308608
935,23,Ticks_Phase_5,163,5,42,127,535339488
935,23,Ticks_Phase_5,164,1,48,38,535792488
935,23,Ticks_Phase_5,165,5,42,127,535839028
935,23,Ticks_Phase_5,166,1,48,41,536304380
935,23,Ticks_Phase_5,167,5,42,127,536338716
935,23,Ticks_Phase_5,168,1,48,35,536811712
935,23,Ticks_Phase_5,169,5,42,127,536838700
935,23,Ticks_Phase_5,170,1,48,40,537274176
935,23,Ticks_Phase_5,171,5,42,127,537339364
935,23,Ticks_Phase_5,172,1,48,44,537794980
935,23,Ticks_Phase_5,173,5,42,127,537838904
935,23,Ticks_Phase_5,174,1,48,40,538286372
935,23,Ticks_Phase_5,175,5,42,127,538338816
935,23,Ticks_Phase_5,176,1,48,53,538761860
935,23,Ticks_Phase_5,177,5,42,127,538839624
935,23,Ticks_Phase_5,178,1,48,46,539271660
935,23,Ticks_Phase_5,179,5,42,127,539339088
935,23,Ticks_Phase_5,180,1,48,41,539777496
935,23,Ticks_Phase_5,181,5,42,127,539838780
935,23,Ticks_Phase_5,182,1,48,44,540265336
935,23,Ticks_Phase_5,183,5,42,127,540338688
935,23,Ticks_Phase_5,184,1,48,46,540749608
935,23,Ticks_Phase_5,185,5,42,127,540839424
935,23,Ticks_Phase_5,186,1,48,46,541243504
935,23,Ticks_Phase_5,187,5,42,127,541338952
935,23,Ticks_Phase_5,188,1,48,46,541733376
935,23,Ticks_Phase_5,189,5,42,127,541838640
935,23,Ticks_Phase_5,190,1,48,52,542240788
935,23,Ticks_Phase_5,191,5,42,127,542338700
935,23,Ticks_Phase_5,192,1,48,29,542757328
935,23,Ticks_Phase_5,193,5,42,127,542788980
935,23,Ticks_Phase_5,194,1,48,38,543262400
935,23,Ticks_Phase_5,195,5,42,127,543288644
935,23,Ticks_Phase_5,196,1,48,49,543727948
935,23,Ticks_Phase_5,197,5,42,127,543789380
935,23,Ticks_Phase_5,198,1,48,39,544236608
935,23,Ticks_Phase_5,199,5,42,127,544299472
935,23,Ticks_Phase_5,200,1,48,41,544739900
935,23,Ticks_Phase_5,201,5,42,127,544799236
935,23,Ticks_Phase_5,202,1,48,43,545239884
935,23,Ticks_Phase_5,203,5,42,127,545298700
935,23,Ticks_Phase_5,204,1,48,38,545737180
935,23,Ticks_Phase_5,205,5,42,127,545798540
935,23,Ticks_Phase_5,206,1,48,43,546238068
935,23,Ticks_Phase_5,207,5,42,127,546299424
935,23,Ticks_Phase_5,208,1,48,52,546713708
935,23,Ticks_Phase_5,209,5,42,127,546798816
935,23,Ticks_Phase_5,210,1,48,45,547215564
935,23,Ticks_Phase_5,211,5,42,127,547298652
935,23,Ticks_Phase_5,212,1,48,51,547714356
935,23,Ticks_Phase_5,213,5,42,127,547799536
935,23,Ticks_Phase_5,214,1,48,35,548251940
935,23,Ticks_Phase_5,215,5,42,127,548299148
935,23,Ticks_Phase_5,216,1,48,30,548763084
935,23,Ticks_Phase_5,217,5,42,127,548798764
935,23,Ticks_Phase_5,218,1,48,47,549243896
935,23,Ticks_Phase_5,219,5,42,127,549298528
935,23,Ticks_Phase_5,220,1,48,51,549735644
935,23,Ticks_Phase_5,221,5,42,127,549799484
935,23,Ticks_Phase_5,222,1,48,44,550275920
935,23,Ticks_Phase_5,223,5,42,127,550298952
935,23,Ticks_Phase_5,224,1,48,36,550756136
935,23,Ticks_Phase_5,225,5,42,127,550798640
935,23,Ticks_Phase_5,226,1,48,46,551269544
935,23,Ticks_Phase_5,227,5,42,127,551348500
935,23,Ticks_Phase_5,228,1,48,44,551769232
935,23,Ticks_Phase_5,229,5,42,127,551849312
935,23,Ticks_Phase_5,230,1,48,48,552289364
935,23,Ticks_Phase_5,231,5,42,127,552349148
935,23,Ticks_Phase_5,232,1,48,47,552776604
935,23,Ticks_Phase_5,233,5,42,127,552848688
935,23,Ticks_Phase_5,234,1,48,45,553298180
935,23,Ticks_Phase_5,235,5,42,127,553348452
935,23,Ticks_Phase_5,236,1,48,49,553824516
935,23,Ticks_Phase_5,237,5,42,127,553849412
935,23,Ticks_Phase_5,238,5,42,127,554349032
935,23,Ticks_Phase_5,239,1,48,49,554364352
935,23,Ticks_Phase_5,240,1,48,44,554832504
935,23,Ticks_Phase_5,241,5,42,127,554848716
935,23,Ticks_Phase_5,242,1,48,40,555333612
935,23,Ticks_Phase_5,243,5,42,127,555349376
935,23,Ticks_Phase_5,244,1,48,40,555836340
935,23,Ticks_Phase_5,245,5,42,127,555849112
935,23,Ticks_Phase_5,246,1,48,45,556319916
935,23,Ticks_Phase_5,247,5,42,127,556348876
935,23,Ticks_Phase_5,248,1,48,57,556828292
935,23,Ticks_Phase_5,249,5,42,127,556848388
935,23,Ticks_Phase_5,250,1,48,33,557320188
935,23,Ticks_Phase_5,251,5,42,127,557349200
935,23,Ticks_Phase_5,252,1,48,51,557822268
935,23,Ticks_Phase_5,253,5,42,127,557848888
935,23,Ticks_Phase_5,254,1,48,47,558299720
935,23,Ticks_Phase_5,255,5,42,127,558348648
935,23,Ticks_Phase_5,256,1,48,56,558805984
935,23,Ticks_Phase_5,257,5,42,127,558849384
935,23,Ticks_Phase_5,258,1,48,43,559317892
935,23,Ticks_Phase_5,259,5,42,127,559349224
935,23,Ticks_Phase_5,260,1,48,34,559829044
935,23,Ticks_Phase_5,261,5,42,127,559949276
935,23,Ticks_Phase_5,262,5,42,127,560448836
935,23,Ticks_Phase_5,263,1,48,36,560535900
935,23,Ticks_Phase_5,264,5,42,127,560948724
935,23,Ticks_Phase_5,265,1,48,45,560981520
935,23,Ticks_Phase_5,266,1,48,47,561425300
935,23,Ticks_Phase_5,267,5,42,127,561449228
935,23,Ticks_Phase_5,268,1,48,41,561891448
935,23,Ticks_Phase_5,269,5,42,127,561949140
935,23,Ticks_Phase_5,270,1,48,51,562378556
935,23,Ticks_Phase_5,271,5,42,127,562448828
935,23,Ticks_Phase_5,272,1,48,41,562892096
935,23,Ticks_Phase_5,273,5,42,127,562948592
935,23,Ticks_Phase_5,274,1,48,41,563394396
935,23,Ticks_Phase_5,275,5,42,127,563449176
935,23,Ticks_Phase_5,276,1,48,39,563886068
935,23,Ticks_Phase_5,277,5,42,127,563949088
935,23,Ticks_Phase_5,278,1,48,43,564390936
935,23,Ticks_Phase_5,279,5,42,127,564448552
935,23,Ticks_Phase_5,280,1,48,44,564902376
935,23,Ticks_Phase_5,281,5,42,127,564949436
935,23,Ticks_Phase_5,282,1,48,36,565422584
935,23,Ticks_Phase_5,283,5,42,127,565449052
935,23,Ticks_Phase_5,284,1,48,46,565900180
935,23,Ticks_Phase_5,285,5,42,127,565948664
935,23,Ticks_Phase_5,286,1,48,45,566409756
935,23,Ticks_Phase_5,287,5,42,127,566448352
935,23,Ticks_Phase_5,288,1,48,38,566897616
935,23,Ticks_Phase_5,289,5,42,127,566949312
935,23,Ticks_Phase_5,290,1,48,46,567377684
935,23,Ticks_Phase_5,291,5,42,127,567449148
935,23,Ticks_Phase_5,292,1,48,35,567893388
935,23,Ticks_Phase_5,293,5,42,127,567948764
935,23,Ticks_Phase_5,294,1,48,40,568376048
935,23,Ticks_Phase_5,295,5,42,127,568449352
935,23,Ticks_Phase_5,296,1,48,38,568884196
935,23,Ticks_Phase_5,297,5,42,127,568949036
935,23,Ticks_Phase_5,298,5,42,127,569348436
935,23,Ticks_Phase_5,299,1,48,35,569374164
935,23,Ticks_Phase_5,300,1,48,42,569793860
935,23,Ticks_Phase_5,301,5,42,127,569849384
935,23,Ticks_Phase_5,302,1,48,36,570281864
935,23,Ticks_Phase_5,303,5,42,127,570349148
935,23,Ticks_Phase_5,304,1,48,37,570784324
935,23,Ticks_Phase_5,305,5,42,127,570848616
935,23,Ticks_Phase_5,306,1,48,40,571237144
935,23,Ticks_Phase_5,307,5,42,127,571349336
935,23,Ticks_Phase_5,308,1,48,36,571793212
935,23,Ticks_Phase_5,309,5,42,127,571849188
935,23,Ticks_Phase_5,310,1,48,39,572269392
935,23,Ticks_Phase_5,311,5,42,127,572348728
935,23,Ticks_Phase_5,312,1,48,47,572756788
935,23,Ticks_Phase_5,313,5,42,127,572848492
935,23,Ticks_Phase_5,314,1,48,48,573255132
935,23,Ticks_Phase_5,315,5,42,127,573349212
935,23,Ticks_Phase_5,316,1,48,43,573763956
935,23,Ticks_Phase_5,317,5,42,127,573849208
935,23,Ticks_Phase_5,318,1,48,40,574272184
935,23,Ticks_Phase_5,319,5,42,127,574348604
935,23,Ticks_Phase_5,320,1,48,36,574803696
935,23,Ticks_Phase_5,321,5,42,127,574849484
935,23,Ticks_Phase_5,322,5,42,127,575349104
935,23,Ticks_Phase_5,323,1,48,45,575410860
935,23,Ticks_Phase_5,324,1,48,38,575849016
935,23,Ticks_Phase_5,325,5,42,127,575850280
935,23,Ticks_Phase_5,326,1,48,51,576320588
935,23,Ticks_Phase_5,327,5,42,127,576348548
935,23,Ticks_Phase_5,328,1,48,50,576803396
935,23,Ticks_Phase_5,329,5,42,127,576849284
935,23,Ticks_Phase_5,330,1,48,49,577302408
935,23,Ticks_Phase_5,331,5,42,127,577348972
935,23,Ticks_Phase_5,332,1,48,39,577788620
935,23,Ticks_Phase_5,333,5,42,127,577848636
935,23,Ticks_Phase_5,334,1,48,45,578287188
935,23,Ticks_Phase_5,335,5,42,127,578349368
935,23,Ticks_Phase_5,336,1,48,45,578797436
935,23,Ticks_Phase_5,337,5,42,127,578859316
935,23,Ticks_Phase_5,0,9999,9999,9999,494326892
935,23,Ticks_Phase_5,1,9999,9999,9999,494826604
935,23,Ticks_Phase_5,2,9999,9999,9999,495326304
935,23,Ticks_Phase_5,3,9999,9999,9999,495827040
935,23,Ticks_Phase_5,4,9999,9999,9999,496326716
935,23,Ticks_Phase_5,5,9999,9999,9999,496826492
935,23,Ticks_Phase_5,6,9999,9999,9999,497326184
935,23,Ticks_Phase_5,7,9999,9999,9999,497826900
935,23,Ticks_Phase_5,8,9999,9999,9999,498326588
935,23,Ticks_Phase_5,9,9999,9999,9999,498826368
935,23,Ticks_Phase_5,10,9999,9999,9999,499327104
935,23,Ticks_Phase_5,11,9999,9999,9999,499826788
935,23,Ticks_Phase_5,12,9999,9999,9999,500326476
935,23,Ticks_Phase_5,13,9999,9999,9999,500826240
935,23,Ticks_Phase_5,14,9999,9999,9999,501326976
935,23,Ticks_Phase_5,15,9999,9999,9999,501826660
935,23,Ticks_Phase_5,16,9999,9999,9999,502326400
935,23,Ticks_Phase_5,17,9999,9999,9999,502827136
935,23,Ticks_Phase_5,18,9999,9999,9999,503337080
935,23,Ticks_Phase_5,19,9999,9999,9999,503836772
935,23,Ticks_Phase_5,20,9999,9999,9999,504336460
935,23,Ticks_Phase_5,21,9999,9999,9999,504836224
935,23,Ticks_Phase_5,22,9999,9999,9999,505336932
935,23,Ticks_Phase_5,23,9999,9999,9999,505836624
935,23,Ticks_Phase_5,24,9999,9999,9999,506336312
935,23,Ticks_Phase_5,25,9999,9999,9999,506837120
935,23,Ticks_Phase_5,26,9999,9999,9999,507336808
935,23,Ticks_Phase_5,27,9999,9999,9999,507836496
935,23,Ticks_Phase_5,28,9999,9999,9999,508336184
935,23,Ticks_Phase_5,29,9999,9999,9999,508836928
935,23,Ticks_Phase_5,30,9999,9999,9999,509326432
935,23,Ticks_Phase_5,31,9999,9999,9999,509826116
935,23,Ticks_Phase_5,32,9999,9999,9999,510326852
935,23,Ticks_Phase_5,33,9999,9999,9999,510826616
935,23,Ticks_Phase_5,34,9999,9999,9999,511326300
935,23,Ticks_Phase_5,35,9999,9999,9999,511827036
935,23,Ticks_Phase_5,36,9999,9999,9999,512326724
935,23,Ticks_Phase_5,37,9999,9999,9999,512826460
935,23,Ticks_Phase_5,38,9999,9999,9999,513326196
935,23,Ticks_Phase_5,39,9999,9999,9999,513826932
935,23,Ticks_Phase_5,40,9999,9999,9999,514326620
935,23,Ticks_Phase_5,41,9999,9999,9999,514826308
935,23,Ticks_Phase_5,42,9999,9999,9999,515327044
935,23,Ticks_Phase_5,43,9999,9999,9999,515826808
935,23,Ticks_Phase_5,44,9999,9999,9999,516326492
935,23,Ticks_Phase_5,45,9999,9999,9999,516826180
935,23,Ticks_Phase_5,46,9999,9999,9999,517326916
935,23,Ticks_Phase_5,47,9999,9999,9999,517826680
935,23,Ticks_Phase_5,48,9999,9999,9999,518336628
935,23,Ticks_Phase_5,49,9999,9999,9999,518836300
935,23,Ticks_Phase_5,50,9999,9999,9999,519337060
935,23,Ticks_Phase_5,51,9999,9999,9999,519836748
935,23,Ticks_Phase_5,52,9999,9999,9999,520336504
935,23,Ticks_Phase_5,53,9999,9999,9999,520836192
935,23,Ticks_Phase_5,54,9999,9999,9999,521336928
935,23,Ticks_Phase_5,55,9999,9999,9999,521836616
935,23,Ticks_Phase_5,56,9999,9999,9999,522336380
935,23,Ticks_Phase_5,57,9999,9999,9999,522837112
935,23,Ticks_Phase_5,58,9999,9999,9999,523336800
935,23,Ticks_Phase_5,59,9999,9999,9999,523836540
935,23,Ticks_Phase_5,60,9999,9999,9999,524336224
935,23,Ticks_Phase_5,61,9999,9999,9999,524836960
935,23,Ticks_Phase_5,62,9999,9999,9999,525336648
935,23,Ticks_Phase_5,63,9999,9999,9999,525836344
935,23,Ticks_Phase_5,64,9999,9999,9999,526356548
935,23,Ticks_Phase_5,65,9999,9999,9999,526856312
935,23,Ticks_Phase_5,66,9999,9999,9999,527357048
935,23,Ticks_Phase_5,67,9999,9999,9999,527856736
935,23,Ticks_Phase_5,68,9999,9999,9999,528356424
935,23,Ticks_Phase_5,69,9999,9999,9999,528856188
935,23,Ticks_Phase_5,70,9999,9999,9999,529356924
935,23,Ticks_Phase_5,71,9999,9999,9999,529856612
935,23,Ticks_Phase_5,72,9999,9999,9999,530356300
935,23,Ticks_Phase_5,73,9999,9999,9999,530857036
935,23,Ticks_Phase_5,74,9999,9999,9999,531356796
935,23,Ticks_Phase_5,75,9999,9999,9999,531856484
935,23,Ticks_Phase_5,76,9999,9999,9999,532356172
935,23,Ticks_Phase_5,77,9999,9999,9999,532856908
935,23,Ticks_Phase_5,78,9999,9999,9999,533356604
935,23,Ticks_Phase_5,79,9999,9999,9999,533856360
935,23,Ticks_Phase_5,80,9999,9999,9999,534357096
935,23,Ticks_Phase_5,81,9999,9999,9999,534836324
935,23,Ticks_Phase_5,82,9999,9999,9999,535337052
935,23,Ticks_Phase_5,83,9999,9999,9999,535836740
935,23,Ticks_Phase_5,84,9999,9999,9999,536336504
935,23,Ticks_Phase_5,85,9999,9999,9999,536836192
935,23,Ticks_Phase_5,86,9999,9999,9999,537336928
935,23,Ticks_Phase_5,87,9999,9999,9999,537836616
935,23,Ticks_Phase_5,88,9999,9999,9999,538336380
935,23,Ticks_Phase_5,89,9999,9999,9999,538837116
935,23,Ticks_Phase_5,90,9999,9999,9999,539336800
935,23,Ticks_Phase_5,91,9999,9999,9999,539836492
935,23,Ticks_Phase_5,92,9999,9999,9999,540336252
935,23,Ticks_Phase_5,93,9999,9999,9999,540836988
935,23,Ticks_Phase_5,94,9999,9999,9999,541336664
935,23,Ticks_Phase_5,95,9999,9999,9999,541836352
935,23,Ticks_Phase_5,96,9999,9999,9999,542336056
935,23,Ticks_Phase_5,97,9999,9999,9999,542786620
935,23,Ticks_Phase_5,98,9999,9999,9999,543286356
935,23,Ticks_Phase_5,99,9999,9999,9999,543787092
935,23,Ticks_Phase_5,100,9999,9999,9999,544297040
935,23,Ticks_Phase_5,101,9999,9999,9999,544796800
935,23,Ticks_Phase_5,102,9999,9999,9999,545296488
935,23,Ticks_Phase_5,103,9999,9999,9999,545796176
935,23,Ticks_Phase_5,104,9999,9999,9999,546296912
935,23,Ticks_Phase_5,105,9999,9999,9999,546796604
935,23,Ticks_Phase_5,106,9999,9999,9999,547296364
935,23,Ticks_Phase_5,107,9999,9999,9999,547797100
935,23,Ticks_Phase_5,108,9999,9999,9999,548296788
935,23,Ticks_Phase_5,109,9999,9999,9999,548796476
935,23,Ticks_Phase_5,110,9999,9999,9999,549296240
935,23,Ticks_Phase_5,111,9999,9999,9999,549796972
935,23,Ticks_Phase_5,112,9999,9999,9999,550296664
935,23,Ticks_Phase_5,113,9999,9999,9999,550796352
935,23,Ticks_Phase_5,114,9999,9999,9999,551346288
935,23,Ticks_Phase_5,115,9999,9999,9999,551847024
935,23,Ticks_Phase_5,116,9999,9999,9999,552346712
935,23,Ticks_Phase_5,117,9999,9999,9999,552846400
935,23,Ticks_Phase_5,118,9999,9999,9999,553346168
935,23,Ticks_Phase_5,119,9999,9999,9999,553846900
935,23,Ticks_Phase_5,120,9999,9999,9999,554346596
935,23,Ticks_Phase_5,121,9999,9999,9999,554846280
935,23,Ticks_Phase_5,122,9999,9999,9999,555347012
935,23,Ticks_Phase_5,123,9999,9999,9999,555846752
935,23,Ticks_Phase_5,124,9999,9999,9999,556346488
935,23,Ticks_Phase_5,125,9999,9999,9999,556846176
935,23,Ticks_Phase_5,126,9999,9999,9999,557346912
935,23,Ticks_Phase_5,127,9999,9999,9999,557846600
935,23,Ticks_Phase_5,128,9999,9999,9999,558346364
935,23,Ticks_Phase_5,129,9999,9999,9999,558847100
935,23,Ticks_Phase_5,130,9999,9999,9999,559346788
935,23,Ticks_Phase_5,131,9999,9999,9999,559946836
935,23,Ticks_Phase_5,132,9999,9999,9999,560446548
935,23,Ticks_Phase_5,133,9999,9999,9999,560946288
935,23,Ticks_Phase_5,134,9999,9999,9999,561447016
935,23,Ticks_Phase_5,135,9999,9999,9999,561946704
935,23,Ticks_Phase_5,136,9999,9999,9999,562446392
935,23,Ticks_Phase_5,137,9999,9999,9999,562946156
935,23,Ticks_Phase_5,138,9999,9999,9999,563446888
935,23,Ticks_Phase_5,139,9999,9999,9999,563946580
935,23,Ticks_Phase_5,140,9999,9999,9999,564446268
935,23,Ticks_Phase_5,141,9999,9999,9999,564947000
935,23,Ticks_Phase_5,142,9999,9999,9999,565446764
935,23,Ticks_Phase_5,143,9999,9999,9999,565946452
935,23,Ticks_Phase_5,144,9999,9999,9999,566446140
935,23,Ticks_Phase_5,145,9999,9999,9999,566946876
935,23,Ticks_Phase_5,146,9999,9999,9999,567446640
935,23,Ticks_Phase_5,147,9999,9999,9999,567946328
935,23,Ticks_Phase_5,148,9999,9999,9999,568447064
935,23,Ticks_Phase_5,149,9999,9999,9999,568946748
935,23,Ticks_Phase_5,150,9999,9999,9999,569346148
935,23,Ticks_Phase_5,151,9999,9999,9999,569846876
935,23,Ticks_Phase_5,152,9999,9999,9999,570346564
935,23,Ticks_Phase_5,153,9999,9999,9999,570846328
935,23,Ticks_Phase_5,154,9999,9999,9999,571347048
935,23,Ticks_Phase_5,155,9999,9999,9999,571846752
935,23,Ticks_Phase_5,156,9999,9999,9999,572346440
935,23,Ticks_Phase_5,157,9999,9999,9999,572846204
935,23,Ticks_Phase_5,158,9999,9999,9999,573346924
935,23,Ticks_Phase_5,159,9999,9999,9999,573846628
935,23,Ticks_Phase_5,160,9999,9999,9999,574346316
935,23,Ticks_Phase_5,161,9999,9999,9999,574847052
935,23,Ticks_Phase_5,162,9999,9999,9999,575346744
935,23,Ticks_Phase_5,163,9999,9999,9999,575846508
935,23,Ticks_Phase_5,164,9999,9999,9999,576346188
935,23,Ticks_Phase_5,165,9999,9999,9999,576846924
935,23,Ticks_Phase_5,166,9999,9999,9999,577346684
935,23,Ticks_Phase_5,167,9999,9999,9999,577846348
935,23,Ticks_Phase_5,168,9999,9999,9999,578347084
935,23,Ticks_Phase_5,169,9999,9999,9999,578857032
936,22,Ticks_Phase_8,0,5,42,127,590123732
936,22,Ticks_Phase_8,1,5,42,127,590923116
936,22,Ticks_Phase_8,2,1,48,55,591035196
936,22,Ticks_Phase_8,3,5,42,127,591722752
936,22,Ticks_Phase_8,4,1,48,60,591752536
936,22,Ticks_Phase_8,5,1,48,58,592491876
936,22,Ticks_Phase_8,6,5,42,127,592522680
936,22,Ticks_Phase_8,7,1,48,51,593251528
936,22,Ticks_Phase_8,8,5,42,127,593323664
936,22,Ticks_Phase_8,9,1,48,53,594093768
936,22,Ticks_Phase_8,10,5,42,127,594123152
936,22,Ticks_Phase_8,11,5,42,127,594922796
936,22,Ticks_Phase_8,12,1,48,48,594932132
936,22,Ticks_Phase_8,13,5,42,127,595722728
936,22,Ticks_Phase_8,14,1,48,53,595767636
936,22,Ticks_Phase_8,15,5,42,127,596523712
936,22,Ticks_Phase_8,16,1,48,49,596532232
936,22,Ticks_Phase_8,17,1,48,50,597322476
936,22,Ticks_Phase_8,18,5,42,127,597323964
936,22,Ticks_Phase_8,19,1,48,36,598106648
936,22,Ticks_Phase_8,20,5,42,127,598122856
936,22,Ticks_Phase_8,21,5,42,127,598922868
936,22,Ticks_Phase_8,22,1,48,54,599679056
936,22,Ticks_Phase_8,23,5,42,127,599723568
936,22,Ticks_Phase_8,24,1,48,47,600523064
936,22,Ticks_Phase_8,25,5,42,127,600524476
936,22,Ticks_Phase_8,26,1,48,52,601306108
936,22,Ticks_Phase_8,27,5,42,127,601322916
936,22,Ticks_Phase_8,28,1,48,48,602105524
936,22,Ticks_Phase_8,29,5,42,127,602122852
936,22,Ticks_Phase_8,30,1,48,55,602908904
936,22,Ticks_Phase_8,31,5,42,127,602923312
936,22,Ticks_Phase_8,32,1,48,57,603706548
936,22,Ticks_Phase_8,33,5,42,127,603723048
936,22,Ticks_Phase_8,34,5,42,127,604522768
936,22,Ticks_Phase_8,35,1,48,54,604535396
936,22,Ticks_Phase_8,36,5,42,127,605322776
936,22,Ticks_Phase_8,37,1,48,57,605340720
936,22,Ticks_Phase_8,38,5,42,127,606123464
936,22,Ticks_Phase_8,39,1,48,35,606195252
936,22,Ticks_Phase_8,40,5,42,127,606923100
936,22,Ticks_Phase_8,41,1,48,56,606926812
936,22,Ticks_Phase_8,42,5,42,127,607722812
936,22,Ticks_Phase_8,43,1,48,55,607725928
936,22,Ticks_Phase_8,44,1,48,50,608513724
936,22,Ticks_Phase_8,45,5,42,127,608522588
936,22,Ticks_Phase_8,46,1,48,67,609313360
936,22,Ticks_Phase_8,47,5,42,127,609323420
936,22,Ticks_Phase_8,48,1,48,33,609360468
936,22,Ticks_Phase_8,49,1,48,60,610089900
936,22,Ticks_Phase_8,50,5,42,127,610123208
936,22,Ticks_Phase_8,51,1,48,39,610141596
936,22,Ticks_Phase_8,52,1,48,55,610903328
936,22,Ticks_Phase_8,53,5,42,127,610922824
936,22,Ticks_Phase_8,54,5,42,127,611722544
936,22,Ticks_Phase_8,55,1,48,58,611747452
936,22,Ticks_Phase_8,56,5,42,127,612523524
936,22,Ticks_Phase_8,57,1,48,49,612536304
936,22,Ticks_Phase_8,58,1,48,56,613289424
936,22,Ticks_Phase_8,59,5,42,127,613323232
936,22,Ticks_Phase_8,60,5,42,127,614103480
936,22,Ticks_Phase_8,61,1,48,58,614169952
936,22,Ticks_Phase_8,62,5,42,127,614903264
936,22,Ticks_Phase_8,63,1,48,59,614948764
936,22,Ticks_Phase_8,64,5,42,127,615702828
936,22,Ticks_Phase_8,65,1,48,60,615713964
936,22,Ticks_Phase_8,66,1,48,50,616464908
936,22,Ticks_Phase_8,67,5,42,127,616502680
936,22,Ticks_Phase_8,68,1,48,57,617262304
936,22,Ticks_Phase_8,69,5,42,127,617303612
936,22,Ticks_Phase_8,70,1,48,55,618094160
936,22,Ticks_Phase_8,71,5,42,127,618103324
936,22,Ticks_Phase_8,72,1,48,51,618898812
936,22,Ticks_Phase_8,73,5,42,127,618903112
936,22,Ticks_Phase_8,74,1,48,60,619681984
936,22,Ticks_Phase_8,75,5,42,127,619702600
936,22,Ticks_Phase_8,76,5,42,127,620503588
936,22,Ticks_Phase_8,77,1,48,48,620517420
936,22,Ticks_Phase_8,78,1,48,46,621271520
936,22,Ticks_Phase_8,79,5,42,127,621303368
936,22,Ticks_Phase_8,80,5,42,127,622102788
936,22,Ticks_Phase_8,81,1,48,54,622121860
936,22,Ticks_Phase_8,82,5,42,127,622902500
936,22,Ticks_Phase_8,83,1,48,58,622969296
936,22,Ticks_Phase_8,84,1,48,49,623697408
936,22,Ticks_Phase_8,85,5,42,127,623703352
936,22,Ticks_Phase_8,86,1,48,48,624502692
936,22,Ticks_Phase_8,87,5,42,127,624504184
936,22,Ticks_Phase_8,88,5,42,127,625302932
936,22,Ticks_Phase_8,89,1,48,41,625308144
936,22,Ticks_Phase_8,90,1,48,56,626062096
936,22,Ticks_Phase_8,91,5,42,127,626102488
936,22,Ticks_Phase_8,92,5,42,127,626903552
936,22,Ticks_Phase_8,93,1,48,53,626907276
936,22,Ticks_Phase_8,94,1,48,54,627658220
936,22,Ticks_Phase_8,95,5,42,127,627703260
936,22,Ticks_Phase_8,96,5,42,127,628523276
936,22,Ticks_Phase_8,97,1,48,58,628545512
936,22,Ticks_Phase_8,98,5,42,127,629323308
936,22,Ticks_Phase_8,99,1,48,59,629425208
936,22,Ticks_Phase_8,100,1,48,51,630087412
936,22,Ticks_Phase_8,101,5,42,127,630122716
936,22,Ticks_Phase_8,102,1,48,60,630870804
936,22,Ticks_Phase_8,103,5,42,127,630922652
936,22,Ticks_Phase_8,104,5,42,127,631723344
936,22,Ticks_Phase_8,105,1,48,58,631729604
936,22,Ticks_Phase_8,106,5,42,127,632523204
936,22,Ticks_Phase_8,107,1,48,64,632537332
936,22,Ticks_Phase_8,108,5,42,127,633323212
936,22,Ticks_Phase_8,109,1,48,55,633346924
936,22,Ticks_Phase_8,110,5,42,127,634122552
936,22,Ticks_Phase_8,111,1,48,47,634212044
936,22,Ticks_Phase_8,112,5,42,127,634923308
936,22,Ticks_Phase_8,113,1,48,46,635009648
936,22,Ticks_Phase_8,114,1,48,46,635706156
936,22,Ticks_Phase_8,115,5,42,127,635723188
936,22,Ticks_Phase_8,116,1,48,45,636483552
936,22,Ticks_Phase_8,117,5,42,127,636522824
936,22,Ticks_Phase_8,118,1,48,41,637289996
936,22,Ticks_Phase_8,119,5,42,127,637322608
936,22,Ticks_Phase_8,120,1,48,47,638091892
936,22,Ticks_Phase_8,121,5,42,127,638123368
936,22,Ticks_Phase_8,122,5,42,127,638923088
936,22,Ticks_Phase_8,123,1,48,48,638929948
936,22,Ticks_Phase_8,124,5,42,127,639723024
936,22,Ticks_Phase_8,125,1,48,48,639739320
936,22,Ticks_Phase_8,126,1,48,46,640518872
936,22,Ticks_Phase_8,127,5,42,127,640522580
936,22,Ticks_Phase_8,128,5,42,127,641363284
936,22,Ticks_Phase_8,129,1,48,54,641370064
936,22,Ticks_Phase_8,130,1,48,44,642145884
936,22,Ticks_Phase_8,131,5,42,127,642163064
936,22,Ticks_Phase_8,132,1,48,45,642912724
936,22,Ticks_Phase_8,133,5,42,127,642963072
936,22,Ticks_Phase_8,134,5,42,127,643762496
936,22,Ticks_Phase_8,135,1,48,37,643786884
936,22,Ticks_Phase_8,136,1,48,40,644518580
936,22,Ticks_Phase_8,137,5,42,127,644563248
936,22,Ticks_Phase_8,138,1,48,54,645274788
936,22,Ticks_Phase_8,139,5,42,127,645363032
936,22,Ticks_Phase_8,140,1,48,49,646124000
936,22,Ticks_Phase_8,141,5,42,127,646162968
936,22,Ticks_Phase_8,142,1,48,40,646883196
936,22,Ticks_Phase_8,143,5,42,127,646962532
936,22,Ticks_Phase_8,144,1,48,53,647700052
936,22,Ticks_Phase_8,145,5,42,127,647763464
936,22,Ticks_Phase_8,146,1,48,49,648509896
936,22,Ticks_Phase_8,147,5,42,127,648562952
936,22,Ticks_Phase_8,148,1,48,46,649301752
936,22,Ticks_Phase_8,149,5,42,127,649362888
936,22,Ticks_Phase_8,150,1,48,48,650122584
936,22,Ticks_Phase_8,151,5,42,127,650162452
936,22,Ticks_Phase_8,152,1,48,45,650945580
936,22,Ticks_Phase_8,153,5,42,127,650963284
936,22,Ticks_Phase_8,154,1,48,51,651728660
936,22,Ticks_Phase_8,155,5,42,127,651762996
936,22,Ticks_Phase_8,156,1,48,40,652504788
936,22,Ticks_Phase_8,157,5,42,127,652562784
936,22,Ticks_Phase_8,158,5,42,127,653362948
936,22,Ticks_Phase_8,159,1,48,59,653369460
936,22,Ticks_Phase_8,160,1,48,55,654126604
936,22,Ticks_Phase_8,161,5,42,127,654163428
936,22,Ticks_Phase_8,162,1,48,53,654923528
936,22,Ticks_Phase_8,163,5,42,127,654924644
936,22,Ticks_Phase_8,164,1,48,57,655690028
936,22,Ticks_Phase_8,165,5,42,127,655723084
936,22,Ticks_Phase_8,166,1,48,52,656489436
936,22,Ticks_Phase_8,167,5,42,127,656522796
936,22,Ticks_Phase_8,168,1,48,63,657259268
936,22,Ticks_Phase_8,169,1,48,32,657308300
936,22,Ticks_Phase_8,170,5,42,127,657323312
936,22,Ticks_Phase_8,171,1,48,52,658073344
936,22,Ticks_Phase_8,172,5,42,127,658123024
936,22,Ticks_Phase_8,173,1,48,60,658904804
936,22,Ticks_Phase_8,174,5,42,127,658922956
936,22,Ticks_Phase_8,175,1,48,61,659692840
936,22,Ticks_Phase_8,176,5,42,127,659722596
936,22,Ticks_Phase_8,177,1,48,46,660512764
936,22,Ticks_Phase_8,178,5,42,127,660523500
936,22,Ticks_Phase_8,179,1,48,53,661278924
936,22,Ticks_Phase_8,180,5,42,127,661323088
936,22,Ticks_Phase_8,181,1,48,50,662112444
936,22,Ticks_Phase_8,182,5,42,127,662122876
936,22,Ticks_Phase_8,183,1,48,51,662917836
936,22,Ticks_Phase_8,184,5,42,127,662922884
936,22,Ticks_Phase_8,185,5,42,127,663723352
936,22,Ticks_Phase_8,186,1,48,45,663754184
936,22,Ticks_Phase_8,187,1,48,43,664504608
936,22,Ticks_Phase_8,188,5,42,127,664523060
936,22,Ticks_Phase_8,189,1,48,50,665313976
936,22,Ticks_Phase_8,190,5,42,127,665322768
936,22,Ticks_Phase_8,191,5,42,127,666122788
936,22,Ticks_Phase_8,192,1,48,46,666139760
936,22,Ticks_Phase_8,193,1,48,47,666852144
936,22,Ticks_Phase_8,194,5,42,127,666923464
936,22,Ticks_Phase_8,195,5,42,127,667643280
936,22,Ticks_Phase_8,196,1,48,60,667651200
936,22,Ticks_Phase_8,197,1,48,45,668414052
936,22,Ticks_Phase_8,198,5,42,127,668442988
936,22,Ticks_Phase_8,199,1,48,51,669178116
936,22,Ticks_Phase_8,200,5,42,127,669242724
936,22,Ticks_Phase_8,201,1,48,37,669976028
936,22,Ticks_Phase_8,202,5,42,127,670042584
936,22,Ticks_Phase_8,203,1,48,46,670766756
936,22,Ticks_Phase_8,204,5,42,127,670843120
936,22,Ticks_Phase_8,205,1,48,46,671600036
936,22,Ticks_Phase_8,206,5,42,127,671642984
936,22,Ticks_Phase_8,207,1,48,51,672367924
936,22,Ticks_Phase_8,208,5,42,127,672442692
936,22,Ticks_Phase_8,209,1,48,48,673218708
936,22,Ticks_Phase_8,210,5,42,127,673242556
936,22,Ticks_Phase_8,211,5,42,127,674043468
936,22,Ticks_Phase_8,212,1,48,29,674083140
936,22,Ticks_Phase_8,213,1,48,48,674821732
936,22,Ticks_Phase_8,214,5,42,127,674843024
936,22,Ticks_Phase_8,215,1,48,42,675641416
936,22,Ticks_Phase_8,216,5,42,127,675642912
936,22,Ticks_Phase_8,217,5,42,127,676442628
936,22,Ticks_Phase_8,218,1,48,46,676464772
936,22,Ticks_Phase_8,219,1,48,38,677237508
936,22,Ticks_Phase_8,220,5,42,127,677243384
936,22,Ticks_Phase_8,221,1,48,50,677997980
936,22,Ticks_Phase_8,222,5,42,127,678043096
936,22,Ticks_Phase_8,223,1,48,52,678815216
936,22,Ticks_Phase_8,224,5,42,127,678842732
936,22,Ticks_Phase_8,225,5,42,127,679642600
936,22,Ticks_Phase_8,226,1,48,53,679655076
936,22,Ticks_Phase_8,227,1,48,46,680430896
936,22,Ticks_Phase_8,228,5,42,127,680443200
936,22,Ticks_Phase_8,229,1,48,40,681227080
936,22,Ticks_Phase_8,230,5,42,127,681322844
936,22,Ticks_Phase_8,231,5,42,127,682122636
936,22,Ticks_Phase_8,232,1,48,51,682140352
936,22,Ticks_Phase_8,233,5,42,127,682923616
936,22,Ticks_Phase_8,234,1,48,40,683009932
936,22,Ticks_Phase_8,235,5,42,127,683723328
936,22,Ticks_Phase_8,236,1,48,43,683766216
936,22,Ticks_Phase_8,237,5,42,127,684522820
936,22,Ticks_Phase_8,238,1,48,31,684556264
936,22,Ticks_Phase_8,239,5,42,127,685322680
936,22,Ticks_Phase_8,240,1,48,40,685353656
936,22,Ticks_Phase_8,241,1,48,46,686109316
936,22,Ticks_Phase_8,242,5,42,127,686123504
936,22,Ticks_Phase_8,243,1,48,41,686877056
936,22,Ticks_Phase_8,244,5,42,127,686923092
936,22,Ticks_Phase_8,245,5,42,127,687722884
936,22,Ticks_Phase_8,246,1,48,42,687725328
936,22,Ticks_Phase_8,247,1,48,41,688458156
936,22,Ticks_Phase_8,248,5,42,127,688522592
936,22,Ticks_Phase_8,249,1,48,40,689293140
936,22,Ticks_Phase_8,250,5,42,127,689323348
936,22,Ticks_Phase_8,251,1,48,46,690095844
936,22,Ticks_Phase_8,252,5,42,127,690123360
936,22,Ticks_Phase_8,253,1,48,38,690900940
936,22,Ticks_Phase_8,254,5,42,127,690922996
936,22,Ticks_Phase_8,255,1,48,45,691684860
936,22,Ticks_Phase_8,256,5,42,127,691722560
936,22,Ticks_Phase_8,257,1,48,47,692497528
936,22,Ticks_Phase_8,258,5,42,127,692523468
936,22,Ticks_Phase_8,259,1,48,49,693286228
936,22,Ticks_Phase_8,260,5,42,127,693323352
936,22,Ticks_Phase_8,261,1,48,39,694092188
936,22,Ticks_Phase_8,262,5,42,127,694122844
936,22,Ticks_Phase_8,263,1,48,36,694864484
936,22,Ticks_Phase_8,264,5,42,127,695083320
936,22,Ticks_Phase_8,265,5,42,127,695883376
936,22,Ticks_Phase_8,266,1,48,32,695952408
936,22,Ticks_Phase_8,267,1,48,44,696682340
936,22,Ticks_Phase_8,268,5,42,127,696683980
936,22,Ticks_Phase_8,269,1,48,43,697482876
936,22,Ticks_Phase_8,270,5,42,127,697484064
936,22,Ticks_Phase_8,271,1,48,43,698264500
936,22,Ticks_Phase_8,272,5,42,127,698283476
936,22,Ticks_Phase_8,273,1,48,38,699009988
936,22,Ticks_Phase_8,274,5,42,127,699083412
936,22,Ticks_Phase_8,275,1,48,43,699838908
936,22,Ticks_Phase_8,276,5,42,127,699882752
936,22,Ticks_Phase_8,277,1,48,32,700632412
936,22,Ticks_Phase_8,278,5,42,127,700682540
936,22,Ticks_Phase_8,279,1,48,48,701450232
936,22,Ticks_Phase_8,280,5,42,127,701483372
936,22,Ticks_Phase_8,281,5,42,127,702283188
936,22,Ticks_Phase_8,282,1,48,36,702309744
936,22,Ticks_Phase_8,283,1,48,43,703059716
936,22,Ticks_Phase_8,284,5,42,127,703083264
936,22,Ticks_Phase_8,285,1,48,47,703843788
936,22,Ticks_Phase_8,286,5,42,127,703882608
936,22,Ticks_Phase_8,287,1,48,46,704625752
936,22,Ticks_Phase_8,288,5,42,127,704683368
936,22,Ticks_Phase_8,289,1,48,46,705394160
936,22,Ticks_Phase_8,290,5,42,127,705483080
936,22,Ticks_Phase_8,291,1,48,52,706205252
936,22,Ticks_Phase_8,292,5,42,127,706283092
936,22,Ticks_Phase_8,293,1,48,43,707031260
936,22,Ticks_Phase_8,294,5,42,127,707082504
936,22,Ticks_Phase_8,295,1,48,47,707838596
936,22,Ticks_Phase_8,296,5,42,127,707883412
936,22,Ticks_Phase_8,297,1,48,41,708650736
936,22,Ticks_Phase_8,298,5,42,127,708683076
936,22,Ticks_Phase_8,299,1,48,36,709384256
936,22,Ticks_Phase_8,300,5,42,127,709483068
936,22,Ticks_Phase_8,301,5,42,127,710122896
936,22,Ticks_Phase_8,302,1,48,42,710237768
936,22,Ticks_Phase_8,303,5,42,127,710922460
936,22,Ticks_Phase_8,304,1,48,38,710927072
936,22,Ticks_Phase_8,305,1,48,42,711650232
936,22,Ticks_Phase_8,306,5,42,127,711723432
936,22,Ticks_Phase_8,307,1,48,42,712402328
936,22,Ticks_Phase_8,308,5,42,127,712523080
936,22,Ticks_Phase_8,309,1,48,44,713171932
936,22,Ticks_Phase_8,310,5,42,127,713322940
936,22,Ticks_Phase_8,311,1,48,43,714019712
936,22,Ticks_Phase_8,312,5,42,127,714122504
936,22,Ticks_Phase_8,313,1,48,38,714854948
936,22,Ticks_Phase_8,314,5,42,127,714923352
936,22,Ticks_Phase_8,315,5,42,127,715723216
936,22,Ticks_Phase_8,316,1,48,35,715805640
936,22,Ticks_Phase_8,317,1,48,40,716514508
936,22,Ticks_Phase_8,318,5,42,127,716522924
936,22,Ticks_Phase_8,319,1,48,46,717268680
936,22,Ticks_Phase_8,320,5,42,127,717322632
936,22,Ticks_Phase_8,321,5,42,127,718123252
936,22,Ticks_Phase_8,322,1,48,37,718134856
936,22,Ticks_Phase_8,323,1,48,40,718897832
936,22,Ticks_Phase_8,324,5,42,127,718923052
936,22,Ticks_Phase_8,325,1,48,43,719653736
936,22,Ticks_Phase_8,326,5,42,127,719723060
936,22,Ticks_Phase_8,327,5,42,127,720522708
936,22,Ticks_Phase_8,328,1,48,34,720532120
936,22,Ticks_Phase_8,329,1,48,43,721296620
936,22,Ticks_Phase_8,330,5,42,127,721323532
936,22,Ticks_Phase_8,331,5,42,127,722123028
936,22,Ticks_Phase_8,332,1,48,49,722160436
936,22,Ticks_Phase_8,333,1,48,35,722921448
936,22,Ticks_Phase_8,334,5,42,127,722922956
936,22,Ticks_Phase_8,335,1,48,43,723710352
936,22,Ticks_Phase_8,336,5,42,127,723722668
936,22,Ticks_Phase_8,337,1,48,41,724507440
936,22,Ticks_Phase_8,338,5,42,127,724523500
936,22,Ticks_Phase_8,339,1,48,46,725301120
936,22,Ticks_Phase_8,340,5,42,127,725323088
936,22,Ticks_Phase_8,0,9999,9999,9999,590121072
936,22,Ticks_Phase_8,1,9999,9999,9999,590920828
936,22,Ticks_Phase_8,2,9999,9999,9999,591720540
936,22,Ticks_Phase_8,3,9999,9999,9999,592520248
936,22,Ticks_Phase_8,4,9999,9999,9999,593321080
936,22,Ticks_Phase_8,5,9999,9999,9999,594120792
936,22,Ticks_Phase_8,6,9999,9999,9999,594920508
936,22,Ticks_Phase_8,7,9999,9999,9999,595720292
936,22,Ticks_Phase_8,8,9999,9999,9999,596521052
936,22,Ticks_Phase_8,9,9999,9999,9999,597320788
936,22,Ticks_Phase_8,10,9999,9999,9999,598120568
936,22,Ticks_Phase_8,11,9999,9999,9999,598920284
936,22,Ticks_Phase_8,12,9999,9999,9999,599721060
936,22,Ticks_Phase_8,13,9999,9999,9999,600520776
936,22,Ticks_Phase_8,14,9999,9999,9999,601320556
936,22,Ticks_Phase_8,15,9999,9999,9999,602120268
936,22,Ticks_Phase_8,16,9999,9999,9999,602921028
936,22,Ticks_Phase_8,17,9999,9999,9999,603720764
936,22,Ticks_Phase_8,18,9999,9999,9999,604520556
936,22,Ticks_Phase_8,19,9999,9999,9999,605320268
936,22,Ticks_Phase_8,20,9999,9999,9999,606121028
936,22,Ticks_Phase_8,21,9999,9999,9999,606920812
936,22,Ticks_Phase_8,22,9999,9999,9999,607720524
936,22,Ticks_Phase_8,23,9999,9999,9999,608520304
936,22,Ticks_Phase_8,24,9999,9999,9999,609321060
936,22,Ticks_Phase_8,25,9999,9999,9999,610120776
936,22,Ticks_Phase_8,26,9999,9999,9999,610920540
936,22,Ticks_Phase_8,27,9999,9999,9999,611720256
936,22,Ticks_Phase_8,28,9999,9999,9999,612521016
936,22,Ticks_Phase_8,29,9999,9999,9999,613320796
936,22,Ticks_Phase_8,30,9999,9999,9999,614101116
936,22,Ticks_Phase_8,31,9999,9999,9999,614900828
936,22,Ticks_Phase_8,32,9999,9999,9999,615700544
936,22,Ticks_Phase_8,33,9999,9999,9999,616500320
936,22,Ticks_Phase_8,34,9999,9999,9999,617301104
936,22,Ticks_Phase_8,35,9999,9999,9999,618100816
936,22,Ticks_Phase_8,36,9999,9999,9999,618900600
936,22,Ticks_Phase_8,37,9999,9999,9999,619700316
936,22,Ticks_Phase_8,38,9999,9999,9999,620501076
936,22,Ticks_Phase_8,39,9999,9999,9999,621300860
936,22,Ticks_Phase_8,40,9999,9999,9999,622100576
936,22,Ticks_Phase_8,41,9999,9999,9999,622900288
936,22,Ticks_Phase_8,42,9999,9999,9999,623701068
936,22,Ticks_Phase_8,43,9999,9999,9999,624500860
936,22,Ticks_Phase_8,44,9999,9999,9999,625300572
936,22,Ticks_Phase_8,45,9999,9999,9999,626100276
936,22,Ticks_Phase_8,46,9999,9999,9999,626901116
936,22,Ticks_Phase_8,47,9999,9999,9999,627700824
936,22,Ticks_Phase_8,48,9999,9999,9999,628521064
936,22,Ticks_Phase_8,49,9999,9999,9999,629320800
936,22,Ticks_Phase_8,50,9999,9999,9999,630120504
936,22,Ticks_Phase_8,51,9999,9999,9999,630920292
936,22,Ticks_Phase_8,52,9999,9999,9999,631721056
936,22,Ticks_Phase_8,53,9999,9999,9999,632520768
936,22,Ticks_Phase_8,54,9999,9999,9999,633320552
936,22,Ticks_Phase_8,55,9999,9999,9999,634120264
936,22,Ticks_Phase_8,56,9999,9999,9999,634921020
936,22,Ticks_Phase_8,57,9999,9999,9999,635720828
936,22,Ticks_Phase_8,58,9999,9999,9999,636520540
936,22,Ticks_Phase_8,59,9999,9999,9999,637320248
936,22,Ticks_Phase_8,60,9999,9999,9999,638121084
936,22,Ticks_Phase_8,61,9999,9999,9999,638920800
936,22,Ticks_Phase_8,62,9999,9999,9999,639720512
936,22,Ticks_Phase_8,63,9999,9999,9999,640520292
936,22,Ticks_Phase_8,64,9999,9999,9999,641360996
936,22,Ticks_Phase_8,65,9999,9999,9999,642160704
936,22,Ticks_Phase_8,66,9999,9999,9999,642960488
936,22,Ticks_Phase_8,67,9999,9999,9999,643760208
936,22,Ticks_Phase_8,68,9999,9999,9999,644560960
936,22,Ticks_Phase_8,69,9999,9999,9999,645360748
936,22,Ticks_Phase_8,70,9999,9999,9999,646160460
936,22,Ticks_Phase_8,71,9999,9999,9999,646960248
936,22,Ticks_Phase_8,72,9999,9999,9999,647760956
936,22,Ticks_Phase_8,73,9999,9999,9999,648560740
936,22,Ticks_Phase_8,74,9999,9999,9999,649360452
936,22,Ticks_Phase_8,75,9999,9999,9999,650160240
936,22,Ticks_Phase_8,76,9999,9999,9999,650960996
936,22,Ticks_Phase_8,77,9999,9999,9999,651760708
936,22,Ticks_Phase_8,78,9999,9999,9999,652560496
936,22,Ticks_Phase_8,79,9999,9999,9999,653360212
936,22,Ticks_Phase_8,80,9999,9999,9999,654160992
936,22,Ticks_Phase_8,81,9999,9999,9999,654920796
936,22,Ticks_Phase_8,82,9999,9999,9999,655720504
936,22,Ticks_Phase_8,83,9999,9999,9999,656520288
936,22,Ticks_Phase_8,84,9999,9999,9999,657321024
936,22,Ticks_Phase_8,85,9999,9999,9999,658120812
936,22,Ticks_Phase_8,86,9999,9999,9999,658920520
936,22,Ticks_Phase_8,87,9999,9999,9999,659720308
936,22,Ticks_Phase_8,88,9999,9999,9999,660521068
936,22,Ticks_Phase_8,89,9999,9999,9999,661320804
936,22,Ticks_Phase_8,90,9999,9999,9999,662120516
936,22,Ticks_Phase_8,91,9999,9999,9999,662920304
936,22,Ticks_Phase_8,92,9999,9999,9999,663721068
936,22,Ticks_Phase_8,93,9999,9999,9999,664520772
936,22,Ticks_Phase_8,94,9999,9999,9999,665320556
936,22,Ticks_Phase_8,95,9999,9999,9999,666120276
936,22,Ticks_Phase_8,96,9999,9999,9999,666921028
936,22,Ticks_Phase_8,97,9999,9999,9999,667640916
936,22,Ticks_Phase_8,98,9999,9999,9999,668440700
936,22,Ticks_Phase_8,99,9999,9999,9999,669240436
936,22,Ticks_Phase_8,100,9999,9999,9999,670040152
936,22,Ticks_Phase_8,101,9999,9999,9999,670840908
936,22,Ticks_Phase_8,102,9999,9999,9999,671640696
936,22,Ticks_Phase_8,103,9999,9999,9999,672440408
936,22,Ticks_Phase_8,104,9999,9999,9999,673240120
936,22,Ticks_Phase_8,105,9999,9999,9999,674040960
936,22,Ticks_Phase_8,106,9999,9999,9999,674840664
936,22,Ticks_Phase_8,107,9999,9999,9999,675640408
936,22,Ticks_Phase_8,108,9999,9999,9999,676440116
936,22,Ticks_Phase_8,109,9999,9999,9999,677240948
936,22,Ticks_Phase_8,110,9999,9999,9999,678040660
936,22,Ticks_Phase_8,111,9999,9999,9999,678840444
936,22,Ticks_Phase_8,112,9999,9999,9999,679640164
936,22,Ticks_Phase_8,113,9999,9999,9999,680440916
936,22,Ticks_Phase_8,114,9999,9999,9999,681320556
936,22,Ticks_Phase_8,115,9999,9999,9999,682120276
936,22,Ticks_Phase_8,116,9999,9999,9999,682921032
936,22,Ticks_Phase_8,117,9999,9999,9999,683720820
936,22,Ticks_Phase_8,118,9999,9999,9999,684520532
936,22,Ticks_Phase_8,119,9999,9999,9999,685320316
936,22,Ticks_Phase_8,120,9999,9999,9999,686121068
936,22,Ticks_Phase_8,121,9999,9999,9999,686920804
936,22,Ticks_Phase_8,122,9999,9999,9999,687720524
936,22,Ticks_Phase_8,123,9999,9999,9999,688520304
936,22,Ticks_Phase_8,124,9999,9999,9999,689321064
936,22,Ticks_Phase_8,125,9999,9999,9999,690120776
936,22,Ticks_Phase_8,126,9999,9999,9999,690920560
936,22,Ticks_Phase_8,127,9999,9999,9999,691720272
936,22,Ticks_Phase_8,128,9999,9999,9999,692521032
936,22,Ticks_Phase_8,129,9999,9999,9999,693320768
936,22,Ticks_Phase_8,130,9999,9999,9999,694120556
936,22,Ticks_Phase_8,131,9999,9999,9999,695081032
936,22,Ticks_Phase_8,132,9999,9999,9999,695880792
936,22,Ticks_Phase_8,133,9999,9999,9999,696680504
936,22,Ticks_Phase_8,134,9999,9999,9999,697480292
936,22,Ticks_Phase_8,135,9999,9999,9999,698281044
936,22,Ticks_Phase_8,136,9999,9999,9999,699080828
936,22,Ticks_Phase_8,137,9999,9999,9999,699880540
936,22,Ticks_Phase_8,138,9999,9999,9999,700680252
936,22,Ticks_Phase_8,139,9999,9999,9999,701481084
936,22,Ticks_Phase_8,140,9999,9999,9999,702280828
936,22,Ticks_Phase_8,141,9999,9999,9999,703080532
936,22,Ticks_Phase_8,142,9999,9999,9999,703880244
936,22,Ticks_Phase_8,143,9999,9999,9999,704681080
936,22,Ticks_Phase_8,144,9999,9999,9999,705480792
936,22,Ticks_Phase_8,145,9999,9999,9999,706280504
936,22,Ticks_Phase_8,146,9999,9999,9999,707080292
936,22,Ticks_Phase_8,147,9999,9999,9999,707881052
936,22,Ticks_Phase_8,148,9999,9999,9999,708680788
936,22,Ticks_Phase_8,149,9999,9999,9999,709480556
936,22,Ticks_Phase_8,150,9999,9999,9999,710120532
936,22,Ticks_Phase_8,151,9999,9999,9999,710920248
936,22,Ticks_Phase_8,152,9999,9999,9999,711721072
936,22,Ticks_Phase_8,153,9999,9999,9999,712520796
936,22,Ticks_Phase_8,154,9999,9999,9999,713320504
936,22,Ticks_Phase_8,155,9999,9999,9999,714120292
936,22,Ticks_Phase_8,156,9999,9999,9999,714921064
936,22,Ticks_Phase_8,157,9999,9999,9999,715720784
936,22,Ticks_Phase_8,158,9999,9999,9999,716520560
936,22,Ticks_Phase_8,159,9999,9999,9999,717320272
936,22,Ticks_Phase_8,160,9999,9999,9999,718121036
936,22,Ticks_Phase_8,161,9999,9999,9999,718920768
936,22,Ticks_Phase_8,162,9999,9999,9999,719720552
936,22,Ticks_Phase_8,163,9999,9999,9999,720520272
936,22,Ticks_Phase_8,164,9999,9999,9999,721321020
936,22,Ticks_Phase_8,165,9999,9999,9999,722120816
936,22,Ticks_Phase_8,166,9999,9999,9999,722920528
936,22,Ticks_Phase_8,167,9999,9999,9999,723720308
936,22,Ticks_Phase_8,168,9999,9999,9999,724521064
936,22,Ticks_Phase_8,169,9999,9999,9999,725320800
937,21,Ticks_Linear_5,0,5,42,127,736841088
937,21,Ticks_Linear_5,1,5,42,127,737321316
937,21,Ticks_Linear_5,2,1,48,47,737613696
937,21,Ticks_Linear_5,3,5,42,127,737800644
937,21,Ticks_Linear_5,4,1,48,52,738137508
937,21,Ticks_Linear_5,5,5,42,127,738281024
937,21,Ticks_Linear_5,6,1,48,46,738647840
937,21,Ticks_Linear_5,7,5,42,127,738760956
937,21,Ticks_Linear_5,8,1,48,43,739151296
937,21,Ticks_Linear_5,9,5,42,127,739250620
937,21,Ticks_Linear_5,10,1,48,47,739668732
937,21,Ticks_Linear_5,11,5,42,127,739740972
937,21,Ticks_Linear_5,12,1,48,46,740179228
937,21,Ticks_Linear_5,13,5,42,127,740230484
937,21,Ticks_Linear_5,14,1,48,44,740680048
937,21,Ticks_Linear_5,15,5,42,127,740720976
937,21,Ticks_Linear_5,16,1,48,38,741167732
937,21,Ticks_Linear_5,17,5,42,127,741210712
937,21,Ticks_Linear_5,18,1,48,29,741651336
937,21,Ticks_Linear_5,19,5,42,127,741711088
937,21,Ticks_Linear_5,20,1,48,39,742139356
937,21,Ticks_Linear_5,21,5,42,127,742211008
937,21,Ticks_Linear_5,22,1,48,39,742639280
937,21,Ticks_Linear_5,23,5,42,127,742710780
937,21,Ticks_Linear_5,24,1,48,35,743144064
937,21,Ticks_Linear_5,25,5,42,127,743211504
937,21,Ticks_Linear_5,26,1,48,34,743671772
937,21,Ticks_Linear_5,27,5,42,127,743711132
937,21,Ticks_Linear_5,28,1,48,33,744157092
937,21,Ticks_Linear_5,29,5,42,127,744221092
937,21,Ticks_Linear_5,30,1,48,45,744659348
937,21,Ticks_Linear_5,31,5,42,127,744731052
937,21,Ticks_Linear_5,32,1,48,46,745145332
937,21,Ticks_Linear_5,33,5,42,127,745241072
937,21,Ticks_Linear_5,34,1,48,41,745667424
937,21,Ticks_Linear_5,35,5,42,127,745750896
937,21,Ticks_Linear_5,36,1,48,39,746199032
937,21,Ticks_Linear_5,37,5,42,127,746261004
937,21,Ticks_Linear_5,38,1,48,37,746706436
937,21,Ticks_Linear_5,39,5,42,127,746780924
937,21,Ticks_Linear_5,40,1,48,32,747256016
937,21,Ticks_Linear_5,41,5,42,127,747301440
937,21,Ticks_Linear_5,42,1,48,40,747759392
937,21,Ticks_Linear_5,43,5,42,127,747821584
937,21,Ticks_Linear_5,44,1,48,40,748269652
937,21,Ticks_Linear_5,45,5,42,127,748350816
937,21,Ticks_Linear_5,46,1,48,44,748756460
937,21,Ticks_Linear_5,47,5,42,127,748871020
937,21,Ticks_Linear_5,48,1,48,45,749307604
937,21,Ticks_Linear_5,49,5,42,127,749400388
937,21,Ticks_Linear_5,50,1,48,48,749841984
937,21,Ticks_Linear_5,51,5,42,127,749930864
937,21,Ticks_Linear_5,52,1,48,44,750366388
937,21,Ticks_Linear_5,53,5,42,127,750461404
937,21,Ticks_Linear_5,54,1,48,38,750912324
937,21,Ticks_Linear_5,55,5,42,127,750990624
937,21,Ticks_Linear_5,56,1,48,39,751448948
937,21,Ticks_Linear_5,57,5,42,127,751521252
937,21,Ticks_Linear_5,58,1,48,32,751976500
937,21,Ticks_Linear_5,59,5,42,127,752060792
937,21,Ticks_Linear_5,60,1,48,49,752508620
937,21,Ticks_Linear_5,61,5,42,127,752600556
937,21,Ticks_Linear_5,62,1,48,46,753086660
937,21,Ticks_Linear_5,63,5,42,127,753141072
937,21,Ticks_Linear_5,64,5,42,127,753680620
937,21,Ticks_Linear_5,65,1,48,46,753685904
937,21,Ticks_Linear_5,66,5,42,127,754221504
937,21,Ticks_Linear_5,67,1,48,43,754257668
937,21,Ticks_Linear_5,68,5,42,127,754780392
937,21,Ticks_Linear_5,69,1,48,37,754789808
937,21,Ticks_Linear_5,70,1,48,41,755328044
937,21,Ticks_Linear_5,71,5,42,127,755330484
937,21,Ticks_Linear_5,72,1,48,43,755864436
937,21,Ticks_Linear_5,73,5,42,127,755881480
937,21,Ticks_Linear_5,74,5,42,127,756431212
937,21,Ticks_Linear_5,75,1,48,45,756445264
937,21,Ticks_Linear_5,76,5,42,127,756981160
937,21,Ticks_Linear_5,77,1,48,33,756985028
937,21,Ticks_Linear_5,78,1,48,38,757495408
937,21,Ticks_Linear_5,79,5,42,127,757541288
937,21,Ticks_Linear_5,80,1,48,40,758078572
937,21,Ticks_Linear_5,81,5,42,127,758101296
937,21,Ticks_Linear_5,82,1,48,41,758588288
937,21,Ticks_Linear_5,83,5,42,127,758660604
937,21,Ticks_Linear_5,84,1,48,34,759158088
937,21,Ticks_Linear_5,85,5,42,127,759220516
937,21,Ticks_Linear_5,86,1,48,33,759748624
937,21,Ticks_Linear_5,87,5,42,127,759780796
937,21,Ticks_Linear_5,88,1,48,29,760328984
937,21,Ticks_Linear_5,89,5,42,127,760351040
937,21,Ticks_Linear_5,90,1,48,40,760862232
937,21,Ticks_Linear_5,91,5,42,127,760920484
937,21,Ticks_Linear_5,92,1,48,35,761464620
937,21,Ticks_Linear_5,93,5,42,127,761490800
937,21,Ticks_Linear_5,94,1,48,36,762029484
937,21,Ticks_Linear_5,95,5,42,127,762061196
937,21,Ticks_Linear_5,96,1,48,38,762600996
937,21,Ticks_Linear_5,97,5,42,127,762630468
937,21,Ticks_Linear_5,98,1,48,29,763163592
937,21,Ticks_Linear_5,99,5,42,127,763211292
937,21,Ticks_Linear_5,100,1,48,47,763729452
937,21,Ticks_Linear_5,101,5,42,127,763790672
937,21,Ticks_Linear_5,102,1,48,23,764368580
937,21,Ticks_Linear_5,103,5,42,127,764371248
937,21,Ticks_Linear_5,104,1,48,28,764910448
937,21,Ticks_Linear_5,105,5,42,127,764950776
937,21,Ticks_Linear_5,106,1,48,43,765502132
937,21,Ticks_Linear_5,107,5,42,127,765530484
937,21,Ticks_Linear_5,108,1,48,37,766068176
937,21,Ticks_Linear_5,109,5,42,127,766121320
937,21,Ticks_Linear_5,110,1,48,46,766668988
937,21,Ticks_Linear_5,111,5,42,127,766711256
937,21,Ticks_Linear_5,112,1,48,48,767196460
937,21,Ticks_Linear_5,113,5,42,127,767301128
937,21,Ticks_Linear_5,114,1,48,52,767783032
937,21,Ticks_Linear_5,115,5,42,127,767890844
937,21,Ticks_Linear_5,116,1,48,49,768448548
937,21,Ticks_Linear_5,117,5,42,127,768480500
937,21,Ticks_Linear_5,118,5,42,127,769080576
937,21,Ticks_Linear_5,119,1,48,40,769095972
937,21,Ticks_Linear_5,120,1,48,46,769629132
937,21,Ticks_Linear_5,121,5,42,127,769680692
937,21,Ticks_Linear_5,122,1,48,34,770220568
937,21,Ticks_Linear_5,123,5,42,127,770281040
937,21,Ticks_Linear_5,124,1,48,38,770803460
937,21,Ticks_Linear_5,125,5,42,127,770881036
937,21,Ticks_Linear_5,126,1,48,45,771413048
937,21,Ticks_Linear_5,127,5,42,127,771481232
937,21,Ticks_Linear_5,128,1,48,50,772016388
937,21,Ticks_Linear_5,129,5,42,127,772091320
937,21,Ticks_Linear_5,130,1,48,37,772664468
937,21,Ticks_Linear_5,131,5,42,127,772700528
937,21,Ticks_Linear_5,132,5,42,127,773310920
937,21,Ticks_Linear_5,133,1,48,41,773323472
937,21,Ticks_Linear_5,134,5,42,127,773921152
937,21,Ticks_Linear_5,135,1,48,39,773929888
937,21,Ticks_Linear_5,136,1,48,39,774493320
937,21,Ticks_Linear_5,137,5,42,127,774530284
937,21,Ticks_Linear_5,138,1,48,36,775093068
937,21,Ticks_Linear_5,139,5,42,127,775150924
937,21,Ticks_Linear_5,140,1,48,38,775728080
937,21,Ticks_Linear_5,141,5,42,127,775770468
937,21,Ticks_Linear_5,142,1,48,40,776317744
937,21,Ticks_Linear_5,143,5,42,127,776391180
937,21,Ticks_Linear_5,144,1,48,40,776918016
937,21,Ticks_Linear_5,145,5,42,127,777010728
937,21,Ticks_Linear_5,146,1,48,33,777558172
937,21,Ticks_Linear_5,147,5,42,127,777631072
937,21,Ticks_Linear_5,148,1,48,31,778199556
937,21,Ticks_Linear_5,149,5,42,127,778261072
937,21,Ticks_Linear_5,150,1,48,40,778811464
937,21,Ticks_Linear_5,151,5,42,127,778890580
937,21,Ticks_Linear_5,152,1,48,42,779445724
937,21,Ticks_Linear_5,153,5,42,127,779521332
937,21,Ticks_Linear_5,154,1,48,36,780069520
937,21,Ticks_Linear_5,155,5,42,127,780151136
937,21,Ticks_Linear_5,156,1,48,44,780666588
937,21,Ticks_Linear_5,157,5,42,127,780781048
937,21,Ticks_Linear_5,158,1,48,45,781346692
937,21,Ticks_Linear_5,159,5,42,127,781421200
937,21,Ticks_Linear_5,160,1,48,49,782035956
937,21,Ticks_Linear_5,161,5,42,127,782061092
937,21,Ticks_Linear_5,162,1,48,51,782660752
937,21,Ticks_Linear_5,163,5,42,127,782701004
937,21,Ticks_Linear_5,164,1,48,46,783293368
937,21,Ticks_Linear_5,165,5,42,127,783340964
937,21,Ticks_Linear_5,166,1,48,36,783929472
937,21,Ticks_Linear_5,167,5,42,127,783981028
937,21,Ticks_Linear_5,168,1,48,50,784530940
937,21,Ticks_Linear_5,169,5,42,127,784631016
937,21,Ticks_Linear_5,170,1,48,34,785229048
937,21,Ticks_Linear_5,171,5,42,127,785281500
937,21,Ticks_Linear_5,172,1,48,33,785897604
937,21,Ticks_Linear_5,173,5,42,127,785930824
937,21,Ticks_Linear_5,174,1,48,38,786495584
937,21,Ticks_Linear_5,175,5,42,127,786580776
937,21,Ticks_Linear_5,176,1,48,46,787139076
937,21,Ticks_Linear_5,177,5,42,127,787231060
937,21,Ticks_Linear_5,178,1,48,46,787825260
937,21,Ticks_Linear_5,179,5,42,127,787890684
937,21,Ticks_Linear_5,180,1,48,47,788491212
937,21,Ticks_Linear_5,181,5,42,127,788550964
937,21,Ticks_Linear_5,182,1,48,42,789145728
937,21,Ticks_Linear_5,183,5,42,127,789210400
937,21,Ticks_Linear_5,184,1,48,50,789741664
937,21,Ticks_Linear_5,185,5,42,127,789871040
937,21,Ticks_Linear_5,186,1,48,50,790402544
937,21,Ticks_Linear_5,187,5,42,127,790530404
937,21,Ticks_Linear_5,188,1,48,40,791141388
937,21,Ticks_Linear_5,189,5,42,127,791201108
937,21,Ticks_Linear_5,190,5,42,127,791870908
937,21,Ticks_Linear_5,191,1,48,37,791873352
937,21,Ticks_Linear_5,192,1,48,40,792537924
937,21,Ticks_Linear_5,193,5,42,127,792540596
937,21,Ticks_Linear_5,194,1,48,43,793188488
937,21,Ticks_Linear_5,195,5,42,127,793211212
937,21,Ticks_Linear_5,196,1,48,37,793838244
937,21,Ticks_Linear_5,197,5,42,127,793880904
937,21,Ticks_Linear_5,198,1,48,42,794494564
937,21,Ticks_Linear_5,199,5,42,127,794560884
937,21,Ticks_Linear_5,200,1,48,42,795221128
937,21,Ticks_Linear_5,201,5,42,127,795240712
937,21,Ticks_Linear_5,202,1,48,33,795881160
937,21,Ticks_Linear_5,203,5,42,127,795920740
937,21,Ticks_Linear_5,204,1,48,44,796543164
937,21,Ticks_Linear_5,205,5,42,127,796600644
937,21,Ticks_Linear_5,206,1,48,43,797233552
937,21,Ticks_Linear_5,207,5,42,127,797280772
937,21,Ticks_Linear_5,208,1,48,40,797920244
937,21,Ticks_Linear_5,209,5,42,127,797970688
937,21,Ticks_Linear_5,210,1,48,39,798618804
937,21,Ticks_Linear_5,211,5,42,127,798661000
937,21,Ticks_Linear_5,212,1,48,30,799257180
937,21,Ticks_Linear_5,213,5,42,127,799351160
937,21,Ticks_Linear_5,214,1,48,45,799940460
937,21,Ticks_Linear_5,215,5,42,127,800041356
937,21,Ticks_Linear_5,216,1,48,38,800689036
937,21,Ticks_Linear_5,217,5,42,127,800730636
937,21,Ticks_Linear_5,218,1,48,42,801415364
937,21,Ticks_Linear_5,219,5,42,127,801430836
937,21,Ticks_Linear_5,220,1,48,39,802131488
937,21,Ticks_Linear_5,221,5,42,127,802132976
937,21,Ticks_Linear_5,222,1,48,34,802814388
937,21,Ticks_Linear_5,223,5,42,127,802830756
937,21,Ticks_Linear_5,224,1,48,50,803465680
937,21,Ticks_Linear_5,225,5,42,127,803531180
937,21,Ticks_Linear_5,226,1,48,42,804203028
937,21,Ticks_Linear_5,227,5,42,127,804230628
937,21,Ticks_Linear_5,228,1,48,34,804928232
937,21,Ticks_Linear_5,229,5,42,127,804941160
937,21,Ticks_Linear_5,230,1,48,38,805650928
937,21,Ticks_Linear_5,231,5,42,127,805652188
937,21,Ticks_Linear_5,232,1,48,39,806351904
937,21,Ticks_Linear_5,233,5,42,127,806360480
937,21,Ticks_Linear_5,234,1,48,33,807036144
937,21,Ticks_Linear_5,235,5,42,127,807071088
937,21,Ticks_Linear_5,236,1,48,45,807738972
937,21,Ticks_Linear_5,237,5,42,127,807780720
937,21,Ticks_Linear_5,238,1,48,56,808433596
937,21,Ticks_Linear_5,239,5,42,127,808500540
937,21,Ticks_Linear_5,240,1,48,46,809175428
937,21,Ticks_Linear_5,241,5,42,127,809220704
937,21,Ticks_Linear_5,242,1,48,39,809903932
937,21,Ticks_Linear_5,243,5,42,127,809941792
937,21,Ticks_Linear_5,244,5,42,127,810661320
937,21,Ticks_Linear_5,245,1,48,38,810662288
937,21,Ticks_Linear_5,246,1,48,36,811367304
937,21,Ticks_Linear_5,247,5,42,127,811381060
937,21,Ticks_Linear_5,248,1,48,48,812069364
937,21,Ticks_Linear_5,249,5,42,127,812111508
937,21,Ticks_Linear_5,250,1,48,39,812805276
937,21,Ticks_Linear_5,251,5,42,127,812841412
937,21,Ticks_Linear_5,252,1,48,47,813529152
937,21,Ticks_Linear_5,253,5,42,127,813570520
937,21,Ticks_Linear_5,254,1,48,44,814279220
937,21,Ticks_Linear_5,255,5,42,127,814300448
937,21,Ticks_Linear_5,256,1,48,46,814977460
937,21,Ticks_Linear_5,257,5,42,127,815030824
937,21,Ticks_Linear_5,258,1,48,48,815731508
937,21,Ticks_Linear_5,259,5,42,127,815770940
937,21,Ticks_Linear_5,260,1,48,49,816446000
937,21,Ticks_Linear_5,261,5,42,127,816511572
937,21,Ticks_Linear_5,262,1,48,47,817164076
937,21,Ticks_Linear_5,263,5,42,127,817250640
937,21,Ticks_Linear_5,264,1,48,46,817853492
937,21,Ticks_Linear_5,265,5,42,127,817990888
937,21,Ticks_Linear_5,266,1,48,39,818609708
937,21,Ticks_Linear_5,267,5,42,127,818731348
937,21,Ticks_Linear_5,268,1,48,46,819375576
937,21,Ticks_Linear_5,269,5,42,127,819481048
937,21,Ticks_Linear_5,270,1,48,42,820199500
937,21,Ticks_Linear_5,271,5,42,127,820230464
937,21,Ticks_Linear_5,272,5,42,127,820981216
937,21,Ticks_Linear_5,273,1,48,36,820982180
937,21,Ticks_Linear_5,274,1,48,44,821714536
937,21,Ticks_Linear_5,275,5,42,127,821730760
937,21,Ticks_Linear_5,276,5,42,127,822481288
937,21,Ticks_Linear_5,277,1,48,27,822533312
937,21,Ticks_Linear_5,278,1,48,43,823148796
937,21,Ticks_Linear_5,279,5,42,127,823241224
937,21,Ticks_Linear_5,280,1,48,44,823879844
937,21,Ticks_Linear_5,281,5,42,127,824001104
937,21,Ticks_Linear_5,282,1,48,47,824683756
937,21,Ticks_Linear_5,283,5,42,127,824760780
937,21,Ticks_Linear_5,284,1,48,46,825430908
937,21,Ticks_Linear_5,285,5,42,127,825520440
937,21,Ticks_Linear_5,286,1,48,45,826236688
937,21,Ticks_Linear_5,287,5,42,127,826281368
937,21,Ticks_Linear_5,288,1,48,39,826964152
937,21,Ticks_Linear_5,289,5,42,127,827051364
937,21,Ticks_Linear_5,290,1,48,40,827767688
937,21,Ticks_Linear_5,291,5,42,127,827821432
937,21,Ticks_Linear_5,292,1,48,42,828563972
937,21,Ticks_Linear_5,293,5,42,127,828600784
937,21,Ticks_Linear_5,294,1,48,48,829323484
937,21,Ticks_Linear_5,295,5,42,127,829370776
937,21,Ticks_Linear_5,296,1,48,41,830095644
937,21,Ticks_Linear_5,297,5,42,127,830140848
937,21,Ticks_Linear_5,298,1,48,45,830829104
937,21,Ticks_Linear_5,299,5,42,127,830921172
937,21,Ticks_Linear_5,300,1,48,33,831582840
937,21,Ticks_Linear_5,301,5,42,127,831701484
937,21,Ticks_Linear_5,302,1,48,44,832262116
937,21,Ticks_Linear_5,303,5,42,127,832480540
937,21,Ticks_Linear_5,304,1,48,43,833069112
937,21,Ticks_Linear_5,305,5,42,127,833260868
937,21,Ticks_Linear_5,306,1,48,43,833906744
937,21,Ticks_Linear_5,307,5,42,127,834041420
937,21,Ticks_Linear_5,308,1,48,46,834740400
937,21,Ticks_Linear_5,309,5,42,127,834830676
937,21,Ticks_Linear_5,310,1,48,46,835585720
937,21,Ticks_Linear_5,311,5,42,127,835621188
937,21,Ticks_Linear_5,312,5,42,127,836410684
937,21,Ticks_Linear_5,313,1,48,46,836412696
937,21,Ticks_Linear_5,314,5,42,127,837201268
937,21,Ticks_Linear_5,315,1,48,41,837234192
937,21,Ticks_Linear_5,316,5,42,127,837990812
937,21,Ticks_Linear_5,317,1,48,40,838003140
937,21,Ticks_Linear_5,318,1,48,45,838727648
937,21,Ticks_Linear_5,319,5,42,127,838790456
937,21,Ticks_Linear_5,320,1,48,28,839534644
937,21,Ticks_Linear_5,321,5,42,127,839591224
937,21,Ticks_Linear_5,322,1,48,50,840327768
937,21,Ticks_Linear_5,323,5,42,127,840391024
937,21,Ticks_Linear_5,324,1,48,45,841146592
937,21,Ticks_Linear_5,325,5,42,127,841190672
937,21,Ticks_Linear_5,326,1,48,49,841943988
937,21,Ticks_Linear_5,327,5,42,127,841990396
937,21,Ticks_Linear_5,328,1,48,42,842780792
937,21,Ticks_Linear_5,329,5,42,127,842800552
937,21,Ticks_Linear_5,330,1,48,50,843574240
937,21,Ticks_Linear_5,331,5,42,127,843610384
937,21,Ticks_Linear_5,332,1,48,39,844361388
937,21,Ticks_Linear_5,333,5,42,127,844420368
937,21,Ticks_Linear_5,334,1,48,43,845165752
937,21,Ticks_Linear_5,335,5,42,127,845230500
937,21,Ticks_Linear_5,336,1,48,51,845971472
937,21,Ticks_Linear_5,337,5,42,127,846040484
937,21,Ticks_Linear_5,0,9999,9999,9999,736838716
937,21,Ticks_Linear_5,1,9999,9999,9999,737319016
937,21,Ticks_Linear_5,2,9999,9999,9999,737798272
937,21,Ticks_Linear_5,3,9999,9999,9999,738278500
937,21,Ticks_Linear_5,4,9999,9999,9999,738758728
937,21,Ticks_Linear_5,5,9999,9999,9999,739248244
937,21,Ticks_Linear_5,6,9999,9999,9999,739738748
937,21,Ticks_Linear_5,7,9999,9999,9999,740228188
937,21,Ticks_Linear_5,8,9999,9999,9999,740718676
937,21,Ticks_Linear_5,9,9999,9999,9999,741208192
937,21,Ticks_Linear_5,10,9999,9999,9999,741708864
937,21,Ticks_Linear_5,11,9999,9999,9999,742208636
937,21,Ticks_Linear_5,12,9999,9999,9999,742708336
937,21,Ticks_Linear_5,13,9999,9999,9999,743209056
937,21,Ticks_Linear_5,14,9999,9999,9999,743708760
937,21,Ticks_Linear_5,15,9999,9999,9999,744218720
937,21,Ticks_Linear_5,16,9999,9999,9999,744728680
937,21,Ticks_Linear_5,17,9999,9999,9999,745238624
937,21,Ticks_Linear_5,18,9999,9999,9999,745748596
937,21,Ticks_Linear_5,19,9999,9999,9999,746258556
937,21,Ticks_Linear_5,20,9999,9999,9999,746778700
937,21,Ticks_Linear_5,21,9999,9999,9999,747298920
937,21,Ticks_Linear_5,22,9999,9999,9999,747819064
937,21,Ticks_Linear_5,23,9999,9999,9999,748348516
937,21,Ticks_Linear_5,24,9999,9999,9999,748868720
937,21,Ticks_Linear_5,25,9999,9999,9999,749398092
937,21,Ticks_Linear_5,26,9999,9999,9999,749928568
937,21,Ticks_Linear_5,27,9999,9999,9999,750458956
937,21,Ticks_Linear_5,28,9999,9999,9999,750988400
937,21,Ticks_Linear_5,29,9999,9999,9999,751518804
937,21,Ticks_Linear_5,30,9999,9999,9999,752058496
937,21,Ticks_Linear_5,31,9999,9999,9999,752598108
937,21,Ticks_Linear_5,32,9999,9999,9999,753138772
937,21,Ticks_Linear_5,33,9999,9999,9999,753678396
937,21,Ticks_Linear_5,34,9999,9999,9999,754219132
937,21,Ticks_Linear_5,35,9999,9999,9999,754778168
937,21,Ticks_Linear_5,36,9999,9999,9999,755328112
937,21,Ticks_Linear_5,37,9999,9999,9999,755879032
937,21,Ticks_Linear_5,38,9999,9999,9999,756428912
937,21,Ticks_Linear_5,39,9999,9999,9999,756978788
937,21,Ticks_Linear_5,40,9999,9999,9999,757538916
937,21,Ticks_Linear_5,41,9999,9999,9999,758099000
937,21,Ticks_Linear_5,42,9999,9999,9999,758658160
937,21,Ticks_Linear_5,43,9999,9999,9999,759218292
937,21,Ticks_Linear_5,44,9999,9999,9999,759778424
937,21,Ticks_Linear_5,45,9999,9999,9999,760348740
937,21,Ticks_Linear_5,46,9999,9999,9999,760918112
937,21,Ticks_Linear_5,47,9999,9999,9999,761488504
937,21,Ticks_Linear_5,48,9999,9999,9999,762058824
937,21,Ticks_Linear_5,49,9999,9999,9999,762628168
937,21,Ticks_Linear_5,50,9999,9999,9999,763208768
937,21,Ticks_Linear_5,51,9999,9999,9999,763788372
937,21,Ticks_Linear_5,52,9999,9999,9999,764368952
937,21,Ticks_Linear_5,53,9999,9999,9999,764948552
937,21,Ticks_Linear_5,54,9999,9999,9999,765528184
937,21,Ticks_Linear_5,55,9999,9999,9999,766119020
937,21,Ticks_Linear_5,56,9999,9999,9999,766708808
937,21,Ticks_Linear_5,57,9999,9999,9999,767298680
937,21,Ticks_Linear_5,58,9999,9999,9999,767888468
937,21,Ticks_Linear_5,59,9999,9999,9999,768478272
937,21,Ticks_Linear_5,60,9999,9999,9999,769078352
937,21,Ticks_Linear_5,61,9999,9999,9999,769678396
937,21,Ticks_Linear_5,62,9999,9999,9999,770278516
937,21,Ticks_Linear_5,63,9999,9999,9999,770878592
937,21,Ticks_Linear_5,64,9999,9999,9999,771478636
937,21,Ticks_Linear_5,65,9999,9999,9999,772088948
937,21,Ticks_Linear_5,66,9999,9999,9999,772698232
937,21,Ticks_Linear_5,67,9999,9999,9999,773308472
937,21,Ticks_Linear_5,68,9999,9999,9999,773918776
937,21,Ticks_Linear_5,69,9999,9999,9999,774528060
937,21,Ticks_Linear_5,70,9999,9999,9999,775148624
937,21,Ticks_Linear_5,71,9999,9999,9999,775768168
937,21,Ticks_Linear_5,72,9999,9999,9999,776388736
937,21,Ticks_Linear_5,73,9999,9999,9999,777008256
937,21,Ticks_Linear_5,74,9999,9999,9999,777628772
937,21,Ticks_Linear_5,75,9999,9999,9999,778258552
937,21,Ticks_Linear_5,76,9999,9999,9999,778888284
937,21,Ticks_Linear_5,77,9999,9999,9999,779519032
937,21,Ticks_Linear_5,78,9999,9999,9999,780148836
937,21,Ticks_Linear_5,79,9999,9999,9999,780778600
937,21,Ticks_Linear_5,80,9999,9999,9999,781418604
937,21,Ticks_Linear_5,81,9999,9999,9999,782058568
937,21,Ticks_Linear_5,82,9999,9999,9999,782698556
937,21,Ticks_Linear_5,83,9999,9999,9999,783338592
937,21,Ticks_Linear_5,84,9999,9999,9999,783978580
937,21,Ticks_Linear_5,85,9999,9999,9999,784628792
937,21,Ticks_Linear_5,86,9999,9999,9999,785279052
937,21,Ticks_Linear_5,87,9999,9999,9999,785928304
937,21,Ticks_Linear_5,88,9999,9999,9999,786578552
937,21,Ticks_Linear_5,89,9999,9999,9999,787228792
937,21,Ticks_Linear_5,90,9999,9999,9999,787888236
937,21,Ticks_Linear_5,91,9999,9999,9999,788548668
937,21,Ticks_Linear_5,92,9999,9999,9999,789208180
937,21,Ticks_Linear_5,93,9999,9999,9999,789868668
937,21,Ticks_Linear_5,94,9999,9999,9999,790528104
937,21,Ticks_Linear_5,95,9999,9999,9999,791198812
937,21,Ticks_Linear_5,96,9999,9999,9999,791868536
937,21,Ticks_Linear_5,97,9999,9999,9999,792538224
937,21,Ticks_Linear_5,98,9999,9999,9999,793208916
937,21,Ticks_Linear_5,99,9999,9999,9999,793878608
937,21,Ticks_Linear_5,100,9999,9999,9999,794558584
937,21,Ticks_Linear_5,101,9999,9999,9999,795238488
937,21,Ticks_Linear_5,102,9999,9999,9999,795918440
937,21,Ticks_Linear_5,103,9999,9999,9999,796598344
937,21,Ticks_Linear_5,104,9999,9999,9999,797278324
937,21,Ticks_Linear_5,105,9999,9999,9999,797968464
937,21,Ticks_Linear_5,106,9999,9999,9999,798658624
937,21,Ticks_Linear_5,107,9999,9999,9999,799348860
937,21,Ticks_Linear_5,108,9999,9999,9999,800038984
937,21,Ticks_Linear_5,109,9999,9999,9999,800728188
937,21,Ticks_Linear_5,110,9999,9999,9999,801428540
937,21,Ticks_Linear_5,111,9999,9999,9999,802128968
937,21,Ticks_Linear_5,112,9999,9999,9999,802828384
937,21,Ticks_Linear_5,113,9999,9999,9999,803528804
937,21,Ticks_Linear_5,114,9999,9999,9999,804228180
937,21,Ticks_Linear_5,115,9999,9999,9999,804938864
937,21,Ticks_Linear_5,116,9999,9999,9999,805648480
937,21,Ticks_Linear_5,117,9999,9999,9999,806358108
937,21,Ticks_Linear_5,118,9999,9999,9999,807068788
937,21,Ticks_Linear_5,119,9999,9999,9999,807778424
937,21,Ticks_Linear_5,120,9999,9999,9999,808498240
937,21,Ticks_Linear_5,121,9999,9999,9999,809218108
937,21,Ticks_Linear_5,122,9999,9999,9999,809939048
937,21,Ticks_Linear_5,123,9999,9999,9999,810658872
937,21,Ticks_Linear_5,124,9999,9999,9999,811378760
937,21,Ticks_Linear_5,125,9999,9999,9999,812108912
937,21,Ticks_Linear_5,126,9999,9999,9999,812838968
937,21,Ticks_Linear_5,127,9999,9999,9999,813568076
937,21,Ticks_Linear_5,128,9999,9999,9999,814298224
937,21,Ticks_Linear_5,129,9999,9999,9999,815028304
937,21,Ticks_Linear_5,130,9999,9999,9999,815768640
937,21,Ticks_Linear_5,131,9999,9999,9999,816509052
937,21,Ticks_Linear_5,132,9999,9999,9999,817248340
937,21,Ticks_Linear_5,133,9999,9999,9999,817988664
937,21,Ticks_Linear_5,134,9999,9999,9999,818729048
937,21,Ticks_Linear_5,135,9999,9999,9999,819478600
937,21,Ticks_Linear_5,136,9999,9999,9999,820228168
937,21,Ticks_Linear_5,137,9999,9999,9999,820978768
937,21,Ticks_Linear_5,138,9999,9999,9999,821728312
937,21,Ticks_Linear_5,139,9999,9999,9999,822478916
937,21,Ticks_Linear_5,140,9999,9999,9999,823238748
937,21,Ticks_Linear_5,141,9999,9999,9999,823998584
937,21,Ticks_Linear_5,142,9999,9999,9999,824758332
937,21,Ticks_Linear_5,143,9999,9999,9999,825518144
937,21,Ticks_Linear_5,144,9999,9999,9999,826278996
937,21,Ticks_Linear_5,145,9999,9999,9999,827049068
937,21,Ticks_Linear_5,146,9999,9999,9999,827819132
937,21,Ticks_Linear_5,147,9999,9999,9999,828598340
937,21,Ticks_Linear_5,148,9999,9999,9999,829368404
937,21,Ticks_Linear_5,149,9999,9999,9999,830138472
937,21,Ticks_Linear_5,150,9999,9999,9999,830918728
937,21,Ticks_Linear_5,151,9999,9999,9999,831699040
937,21,Ticks_Linear_5,152,9999,9999,9999,832478316
937,21,Ticks_Linear_5,153,9999,9999,9999,833258572
937,21,Ticks_Linear_5,154,9999,9999,9999,834038900
937,21,Ticks_Linear_5,155,9999,9999,9999,834828380
937,21,Ticks_Linear_5,156,9999,9999,9999,835618888
937,21,Ticks_Linear_5,157,9999,9999,9999,836408384
937,21,Ticks_Linear_5,158,9999,9999,9999,837198972
937,21,Ticks_Linear_5,159,9999,9999,9999,837988436
937,21,Ticks_Linear_5,160,9999,9999,9999,838788156
937,21,Ticks_Linear_5,161,9999,9999,9999,839588928
937,21,Ticks_Linear_5,162,9999,9999,9999,840388724
937,21,Ticks_Linear_5,163,9999,9999,9999,841188448
937,21,Ticks_Linear_5,164,9999,9999,9999,841988172
937,21,Ticks_Linear_5,165,9999,9999,9999,842798176
937,21,Ticks_Linear_5,166,9999,9999,9999,843608160
937,21,Ticks_Linear_5,167,9999,9999,9999,844418144
937,21,Ticks_Linear_5,168,9999,9999,9999,845228128
937,21,Ticks_Linear_5,169,9999,9999,9999,846038112
938,20,Ticks_Linear_8,0,5,42,127,856227212
938,20,Ticks_Linear_8,1,1,48,48,856978156
938,20,Ticks_Linear_8,2,5,42,127,857047544
938,20,Ticks_Linear_8,3,1,48,45,857798924
938,20,Ticks_Linear_8,4,5,42,127,857866664
938,20,Ticks_Linear_8,5,1,48,46,858626804
938,20,Ticks_Linear_8,6,5,42,127,858686704
938,20,Ticks_Linear_8,7,1,48,39,859480172
938,20,Ticks_Linear_8,8,5,42,127,859506948
938,20,Ticks_Linear_8,9,5,42,127,860316936
938,20,Ticks_Linear_8,10,1,48,39,860329048
938,20,Ticks_Linear_8,11,1,48,49,861117592
938,20,Ticks_Linear_8,12,5,42,127,861126992
938,20,Ticks_Linear_8,13,1,48,46,861889152
938,20,Ticks_Linear_8,14,5,42,127,861936972
938,20,Ticks_Linear_8,15,1,48,47,862684760
938,20,Ticks_Linear_8,16,5,42,127,862747104
938,20,Ticks_Linear_8,17,1,48,38,863516688
938,20,Ticks_Linear_8,18,5,42,127,863556892
938,20,Ticks_Linear_8,19,1,48,47,864307820
938,20,Ticks_Linear_8,20,5,42,127,864356912
938,20,Ticks_Linear_8,21,1,48,46,865140344
938,20,Ticks_Linear_8,22,5,42,127,865156340
938,20,Ticks_Linear_8,23,5,42,127,865957264
938,20,Ticks_Linear_8,24,1,48,46,865970644
938,20,Ticks_Linear_8,25,5,42,127,866756916
938,20,Ticks_Linear_8,26,1,48,39,866765280
938,20,Ticks_Linear_8,27,1,48,52,867536744
938,20,Ticks_Linear_8,28,5,42,127,867556856
938,20,Ticks_Linear_8,29,1,48,43,868336020
938,20,Ticks_Linear_8,30,5,42,127,868347292
938,20,Ticks_Linear_8,31,1,48,38,869130196
938,20,Ticks_Linear_8,32,5,42,127,869136684
938,20,Ticks_Linear_8,33,1,48,57,869860724
938,20,Ticks_Linear_8,34,5,42,127,869927268
938,20,Ticks_Linear_8,35,1,48,51,870642996
938,20,Ticks_Linear_8,36,5,42,127,870716760
938,20,Ticks_Linear_8,37,1,48,62,871461740
938,20,Ticks_Linear_8,38,5,42,127,871507196
938,20,Ticks_Linear_8,39,1,48,38,872282608
938,20,Ticks_Linear_8,40,5,42,127,872286772
938,20,Ticks_Linear_8,41,1,48,46,873029916
938,20,Ticks_Linear_8,42,5,42,127,873066804
938,20,Ticks_Linear_8,43,1,48,52,873803348
938,20,Ticks_Linear_8,44,5,42,127,873847132
938,20,Ticks_Linear_8,45,5,42,127,874626640
938,20,Ticks_Linear_8,46,1,48,40,874641364
938,20,Ticks_Linear_8,47,1,48,57,875392760
938,20,Ticks_Linear_8,48,5,42,127,875406592
938,20,Ticks_Linear_8,49,1,48,44,876121272
938,20,Ticks_Linear_8,50,5,42,127,876176736
938,20,Ticks_Linear_8,51,5,42,127,876946808
938,20,Ticks_Linear_8,52,1,48,43,876950000
938,20,Ticks_Linear_8,53,5,42,127,877716952
938,20,Ticks_Linear_8,54,1,48,48,877717844
938,20,Ticks_Linear_8,55,5,42,127,878486796
938,20,Ticks_Linear_8,56,1,48,47,878507740
938,20,Ticks_Linear_8,57,1,48,39,879201916
938,20,Ticks_Linear_8,58,5,42,127,879256932
938,20,Ticks_Linear_8,59,1,48,45,880013244
938,20,Ticks_Linear_8,60,5,42,127,880016816
938,20,Ticks_Linear_8,61,5,42,127,880776556
938,20,Ticks_Linear_8,62,1,48,50,880824224
938,20,Ticks_Linear_8,63,1,48,39,881527704
938,20,Ticks_Linear_8,64,5,42,127,881537556
938,20,Ticks_Linear_8,65,1,48,54,882229328
938,20,Ticks_Linear_8,66,5,42,127,882297140
938,20,Ticks_Linear_8,67,1,48,39,883047100
938,20,Ticks_Linear_8,68,5,42,127,883057028
938,20,Ticks_Linear_8,69,1,48,44,883785564
938,20,Ticks_Linear_8,70,5,42,127,883806576
938,20,Ticks_Linear_8,71,1,48,35,884517640
938,20,Ticks_Linear_8,72,5,42,127,884557096
938,20,Ticks_Linear_8,73,1,48,36,885245772
938,20,Ticks_Linear_8,74,5,42,127,885306648
938,20,Ticks_Linear_8,75,1,48,41,886013360
938,20,Ticks_Linear_8,76,5,42,127,886057368
938,20,Ticks_Linear_8,77,1,48,41,886778120
938,20,Ticks_Linear_8,78,5,42,127,886806992
938,20,Ticks_Linear_8,79,1,48,35,887526548
938,20,Ticks_Linear_8,80,5,42,127,887547476
938,20,Ticks_Linear_8,81,1,48,44,888202920
938,20,Ticks_Linear_8,82,5,42,127,888286544
938,20,Ticks_Linear_8,83,5,42,127,889026888
938,20,Ticks_Linear_8,84,1,48,43,889033148
938,20,Ticks_Linear_8,85,5,42,127,889767224
938,20,Ticks_Linear_8,86,1,48,36,889775592
938,20,Ticks_Linear_8,87,5,42,127,890506740
938,20,Ticks_Linear_8,88,1,48,36,890511952
938,20,Ticks_Linear_8,89,1,48,44,891233768
938,20,Ticks_Linear_8,90,5,42,127,891236740
938,20,Ticks_Linear_8,91,5,42,127,891966896
938,20,Ticks_Linear_8,92,1,48,34,891998476
938,20,Ticks_Linear_8,93,1,48,35,892646204
938,20,Ticks_Linear_8,94,5,42,127,892697092
938,20,Ticks_Linear_8,95,1,48,43,893407960
938,20,Ticks_Linear_8,96,5,42,127,893427024
938,20,Ticks_Linear_8,97,1,48,54,894116928
938,20,Ticks_Linear_8,98,5,42,127,894157180
938,20,Ticks_Linear_8,99,5,42,127,894877156
938,20,Ticks_Linear_8,100,1,48,46,894933140
938,20,Ticks_Linear_8,101,1,48,43,895586372
938,20,Ticks_Linear_8,102,5,42,127,895596892
938,20,Ticks_Linear_8,103,1,48,43,896279272
938,20,Ticks_Linear_8,104,5,42,127,896316784
938,20,Ticks_Linear_8,105,1,48,40,897004556
938,20,Ticks_Linear_8,106,5,42,127,897036728
938,20,Ticks_Linear_8,107,1,48,29,897687764
938,20,Ticks_Linear_8,108,5,42,127,897756404
938,20,Ticks_Linear_8,109,1,48,40,898357784
938,20,Ticks_Linear_8,110,5,42,127,898467216
938,20,Ticks_Linear_8,111,1,48,48,899161916
938,20,Ticks_Linear_8,112,5,42,127,899177240
938,20,Ticks_Linear_8,113,1,48,37,899847348
938,20,Ticks_Linear_8,114,5,42,127,899886352
938,20,Ticks_Linear_8,115,1,48,43,900560716
938,20,Ticks_Linear_8,116,5,42,127,900597232
938,20,Ticks_Linear_8,117,1,48,41,901243612
938,20,Ticks_Linear_8,118,5,42,127,901306644
938,20,Ticks_Linear_8,119,1,48,45,901922516
938,20,Ticks_Linear_8,120,5,42,127,902007288
938,20,Ticks_Linear_8,121,1,48,40,902646464
938,20,Ticks_Linear_8,122,5,42,127,902706440
938,20,Ticks_Linear_8,123,1,48,46,903348980
938,20,Ticks_Linear_8,124,5,42,127,903407060
938,20,Ticks_Linear_8,125,1,48,45,904081076
938,20,Ticks_Linear_8,126,5,42,127,904107332
938,20,Ticks_Linear_8,127,1,48,46,904753416
938,20,Ticks_Linear_8,128,5,42,127,904806784
938,20,Ticks_Linear_8,129,1,48,39,905486096
938,20,Ticks_Linear_8,130,5,42,127,905497144
938,20,Ticks_Linear_8,131,5,42,127,906187240
938,20,Ticks_Linear_8,132,1,48,43,906239564
938,20,Ticks_Linear_8,133,5,42,127,906877404
938,20,Ticks_Linear_8,134,1,48,43,906899320
938,20,Ticks_Linear_8,135,5,42,127,907566448
938,20,Ticks_Linear_8,136,1,48,36,907625956
938,20,Ticks_Linear_8,137,1,48,42,908239384
938,20,Ticks_Linear_8,138,5,42,127,908256652
938,20,Ticks_Linear_8,139,1,48,47,908905592
938,20,Ticks_Linear_8,140,5,42,127,908936556
938,20,Ticks_Linear_8,141,5,42,127,909616468
938,20,Ticks_Linear_8,142,1,48,44,909622800
938,20,Ticks_Linear_8,143,1,48,38,910246348
938,20,Ticks_Linear_8,144,5,42,127,910296488
938,20,Ticks_Linear_8,145,1,48,42,910934036
938,20,Ticks_Linear_8,146,5,42,127,910977364
938,20,Ticks_Linear_8,147,1,48,44,911649412
938,20,Ticks_Linear_8,148,5,42,127,911657320
938,20,Ticks_Linear_8,149,1,48,45,912320180
938,20,Ticks_Linear_8,150,5,42,127,912327188
938,20,Ticks_Linear_8,151,1,48,33,912944300
938,20,Ticks_Linear_8,152,5,42,127,912996608
938,20,Ticks_Linear_8,153,1,48,42,913623268
938,20,Ticks_Linear_8,154,5,42,127,913666528
938,20,Ticks_Linear_8,155,5,42,127,914337076
938,20,Ticks_Linear_8,156,1,48,41,914338336
938,20,Ticks_Linear_8,157,1,48,44,914987128
938,20,Ticks_Linear_8,158,5,42,127,915007012
938,20,Ticks_Linear_8,159,1,48,32,915600200
938,20,Ticks_Linear_8,160,5,42,127,915667272
938,20,Ticks_Linear_8,161,5,42,127,916326960
938,20,Ticks_Linear_8,162,1,48,41,916344820
938,20,Ticks_Linear_8,163,5,42,127,916987144
938,20,Ticks_Linear_8,164,1,48,41,916992132
938,20,Ticks_Linear_8,165,5,42,127,917646976
938,20,Ticks_Linear_8,166,1,48,35,917663344
938,20,Ticks_Linear_8,167,5,42,127,918307160
938,20,Ticks_Linear_8,168,1,48,34,918320036
938,20,Ticks_Linear_8,169,1,48,42,918936316
938,20,Ticks_Linear_8,170,5,42,127,918957328
938,20,Ticks_Linear_8,171,1,48,34,919571932
938,20,Ticks_Linear_8,172,5,42,127,919617012
938,20,Ticks_Linear_8,173,1,48,44,920231392
938,20,Ticks_Linear_8,174,5,42,127,920267084
938,20,Ticks_Linear_8,175,1,48,33,920905016
938,20,Ticks_Linear_8,176,5,42,127,920917332
938,20,Ticks_Linear_8,177,1,48,43,921561300
938,20,Ticks_Linear_8,178,5,42,127,921566588
938,20,Ticks_Linear_8,179,1,48,38,922204764
938,20,Ticks_Linear_8,180,5,42,127,922206500
938,20,Ticks_Linear_8,181,5,42,127,922846472
938,20,Ticks_Linear_8,182,1,48,47,922852280
938,20,Ticks_Linear_8,183,5,42,127,923486684
938,20,Ticks_Linear_8,184,1,48,39,923494440
938,20,Ticks_Linear_8,185,5,42,127,924126648
938,20,Ticks_Linear_8,186,1,48,38,924138156
938,20,Ticks_Linear_8,187,5,42,127,924766712
938,20,Ticks_Linear_8,188,1,48,31,924819632
938,20,Ticks_Linear_8,189,5,42,127,925397240
938,20,Ticks_Linear_8,190,1,48,35,925403944
938,20,Ticks_Linear_8,191,1,48,34,925998836
938,20,Ticks_Linear_8,192,5,42,127,926027184
938,20,Ticks_Linear_8,193,1,48,38,926603672
938,20,Ticks_Linear_8,194,5,42,127,926656964
938,20,Ticks_Linear_8,195,1,48,40,927232180
938,20,Ticks_Linear_8,196,5,42,127,927286840
938,20,Ticks_Linear_8,197,1,48,40,927907668
938,20,Ticks_Linear_8,198,5,42,127,927917296
938,20,Ticks_Linear_8,199,1,48,41,928534516
938,20,Ticks_Linear_8,200,5,42,127,928547152
938,20,Ticks_Linear_8,201,1,48,43,929129808
938,20,Ticks_Linear_8,202,5,42,127,929166920
938,20,Ticks_Linear_8,203,1,48,45,929779884
938,20,Ticks_Linear_8,204,5,42,127,929787264
938,20,Ticks_Linear_8,205,1,48,45,930396512
938,20,Ticks_Linear_8,206,5,42,127,930406808
938,20,Ticks_Linear_8,207,1,48,34,931003812
938,20,Ticks_Linear_8,208,5,42,127,931027452
938,20,Ticks_Linear_8,209,1,48,42,931582148
938,20,Ticks_Linear_8,210,5,42,127,931636736
938,20,Ticks_Linear_8,211,1,48,38,932220488
938,20,Ticks_Linear_8,212,5,42,127,932246892
938,20,Ticks_Linear_8,213,5,42,127,932857208
938,20,Ticks_Linear_8,214,1,48,36,932859876
938,20,Ticks_Linear_8,215,1,48,39,933435292
938,20,Ticks_Linear_8,216,5,42,127,933466564
938,20,Ticks_Linear_8,217,1,48,47,934034360
938,20,Ticks_Linear_8,218,5,42,127,934076800
938,20,Ticks_Linear_8,219,1,48,41,934661448
938,20,Ticks_Linear_8,220,5,42,127,934676996
938,20,Ticks_Linear_8,221,1,48,43,935240180
938,20,Ticks_Linear_8,222,5,42,127,935276844
938,20,Ticks_Linear_8,223,1,48,43,935848396
938,20,Ticks_Linear_8,224,5,42,127,935876968
938,20,Ticks_Linear_8,225,1,48,41,936445152
938,20,Ticks_Linear_8,226,5,42,127,936477092
938,20,Ticks_Linear_8,227,1,48,46,937020508
938,20,Ticks_Linear_8,228,5,42,127,937077240
938,20,Ticks_Linear_8,229,1,48,47,937633580
938,20,Ticks_Linear_8,230,5,42,127,937667032
938,20,Ticks_Linear_8,231,5,42,127,938256752
938,20,Ticks_Linear_8,232,1,48,45,938259420
938,20,Ticks_Linear_8,233,1,48,41,938815968
938,20,Ticks_Linear_8,234,5,42,127,938846712
938,20,Ticks_Linear_8,235,1,48,45,939389208
938,20,Ticks_Linear_8,236,5,42,127,939437548
938,20,Ticks_Linear_8,237,1,48,42,940028052
938,20,Ticks_Linear_8,238,5,42,127,940036628
938,20,Ticks_Linear_8,239,1,48,48,940603852
938,20,Ticks_Linear_8,240,5,42,127,940617084
938,20,Ticks_Linear_8,241,1,48,38,941158004
938,20,Ticks_Linear_8,242,5,42,127,941196540
938,20,Ticks_Linear_8,243,1,48,46,941732284
938,20,Ticks_Linear_8,244,5,42,127,941777192
938,20,Ticks_Linear_8,245,1,48,43,942315720
938,20,Ticks_Linear_8,246,5,42,127,942356868
938,20,Ticks_Linear_8,247,1,48,44,942905980
938,20,Ticks_Linear_8,248,5,42,127,942936724
938,20,Ticks_Linear_8,249,1,48,43,943470828
938,20,Ticks_Linear_8,250,5,42,127,943506744
938,20,Ticks_Linear_8,251,1,48,49,944019808
938,20,Ticks_Linear_8,252,5,42,127,944077140
938,20,Ticks_Linear_8,253,1,48,39,944612064
938,20,Ticks_Linear_8,254,5,42,127,944646632
938,20,Ticks_Linear_8,255,1,48,35,945191444
938,20,Ticks_Linear_8,256,5,42,127,945216828
938,20,Ticks_Linear_8,257,1,48,38,945754756
938,20,Ticks_Linear_8,258,5,42,127,945787296
938,20,Ticks_Linear_8,259,1,48,43,946304928
938,20,Ticks_Linear_8,260,5,42,127,946347576
938,20,Ticks_Linear_8,261,1,48,45,946867684
938,20,Ticks_Linear_8,262,5,42,127,946906588
938,20,Ticks_Linear_8,263,1,48,47,947466580
938,20,Ticks_Linear_8,264,5,42,127,947467992
938,20,Ticks_Linear_8,265,5,42,127,948026668
938,20,Ticks_Linear_8,266,1,48,39,948084748
938,20,Ticks_Linear_8,267,5,42,127,948586800
938,20,Ticks_Linear_8,268,1,48,38,948612756
938,20,Ticks_Linear_8,269,5,42,127,949136824
938,20,Ticks_Linear_8,270,1,48,45,949211312
938,20,Ticks_Linear_8,271,1,48,38,949637528
938,20,Ticks_Linear_8,272,5,42,127,949686620
938,20,Ticks_Linear_8,273,1,48,35,950226568
938,20,Ticks_Linear_8,274,5,42,127,950236568
938,20,Ticks_Linear_8,275,1,48,34,950746036
938,20,Ticks_Linear_8,276,5,42,127,950786520
938,20,Ticks_Linear_8,277,1,48,40,951335624
938,20,Ticks_Linear_8,278,5,42,127,951337464
938,20,Ticks_Linear_8,279,5,42,127,951876864
938,20,Ticks_Linear_8,280,1,48,31,951884688
938,20,Ticks_Linear_8,281,5,42,127,952416552
938,20,Ticks_Linear_8,282,1,48,27,952432320
938,20,Ticks_Linear_8,283,1,48,37,952905348
938,20,Ticks_Linear_8,284,5,42,127,952957432
938,20,Ticks_Linear_8,285,1,48,38,953481576
938,20,Ticks_Linear_8,286,5,42,127,953496972
938,20,Ticks_Linear_8,287,5,42,127,954036596
938,20,Ticks_Linear_8,288,1,48,38,954046760
938,20,Ticks_Linear_8,289,5,42,127,954567148
938,20,Ticks_Linear_8,290,1,48,35,954571988
938,20,Ticks_Linear_8,291,1,48,39,955094612
938,20,Ticks_Linear_8,292,5,42,127,955096352
938,20,Ticks_Linear_8,293,5,42,127,955626836
938,20,Ticks_Linear_8,294,1,48,43,955641628
938,20,Ticks_Linear_8,295,1,48,42,956143100
938,20,Ticks_Linear_8,296,5,42,127,956157452
938,20,Ticks_Linear_8,297,1,48,36,956675684
938,20,Ticks_Linear_8,298,5,42,127,956686664
938,20,Ticks_Linear_8,299,1,48,38,957182792
938,20,Ticks_Linear_8,300,5,42,127,957206880
938,20,Ticks_Linear_8,301,5,42,127,957726956
938,20,Ticks_Linear_8,302,1,48,36,957728968
938,20,Ticks_Linear_8,303,1,48,39,958238216
938,20,Ticks_Linear_8,304,5,42,127,958247392
938,20,Ticks_Linear_8,305,1,48,26,958754528
938,20,Ticks_Linear_8,306,5,42,127,958766440
938,20,Ticks_Linear_8,307,1,48,30,959252208
938,20,Ticks_Linear_8,308,5,42,127,959286584
938,20,Ticks_Linear_8,309,1,48,37,959742772
938,20,Ticks_Linear_8,310,5,42,127,959796540
938,20,Ticks_Linear_8,311,1,48,43,960234696
938,20,Ticks_Linear_8,312,5,42,127,960306576
938,20,Ticks_Linear_8,313,1,48,44,960749216
938,20,Ticks_Linear_8,314,5,42,127,960816532
938,20,Ticks_Linear_8,315,1,48,40,961252204
938,20,Ticks_Linear_8,316,5,42,127,961326492
938,20,Ticks_Linear_8,317,1,48,37,961822900
938,20,Ticks_Linear_8,318,5,42,127,961837496
938,20,Ticks_Linear_8,319,1,48,42,962288008
938,20,Ticks_Linear_8,320,5,42,127,962347308
938,20,Ticks_Linear_8,321,1,48,36,962810540
938,20,Ticks_Linear_8,322,5,42,127,962847204
938,20,Ticks_Linear_8,323,1,48,40,963346912
938,20,Ticks_Linear_8,324,5,42,127,963348176
938,20,Ticks_Linear_8,325,1,48,37,963818032
938,20,Ticks_Linear_8,326,5,42,127,963846380
938,20,Ticks_Linear_8,327,1,48,30,964337572
938,20,Ticks_Linear_8,328,5,42,127,964347204
938,20,Ticks_Linear_8,329,5,42,127,964836800
938,20,Ticks_Linear_8,330,1,48,36,964861632
938,20,Ticks_Linear_8,331,1,48,34,965303268
938,20,Ticks_Linear_8,332,5,42,127,965327280
938,20,Ticks_Linear_8,333,1,48,42,965801324
938,20,Ticks_Linear_8,334,5,42,127,965816648
938,20,Ticks_Linear_8,335,1,48,41,966245316
938,20,Ticks_Linear_8,336,5,42,127,966307360
938,20,Ticks_Linear_8,337,1,48,34,966741640
938,20,Ticks_Linear_8,338,5,42,127,966796656
938,20,Ticks_Linear_8,0,9999,9999,9999,856224836
938,20,Ticks_Linear_8,1,9999,9999,9999,857045092
938,20,Ticks_Linear_8,2,9999,9999,9999,857864288
938,20,Ticks_Linear_8,3,9999,9999,9999,858684480
938,20,Ticks_Linear_8,4,9999,9999,9999,859504720
938,20,Ticks_Linear_8,5,9999,9999,9999,860314712
938,20,Ticks_Linear_8,6,9999,9999,9999,861124688
938,20,Ticks_Linear_8,7,9999,9999,9999,861934672
938,20,Ticks_Linear_8,8,9999,9999,9999,862744656
938,20,Ticks_Linear_8,9,9999,9999,9999,863554664
938,20,Ticks_Linear_8,10,9999,9999,9999,864354388
938,20,Ticks_Linear_8,11,9999,9999,9999,865154116
938,20,Ticks_Linear_8,12,9999,9999,9999,865954888
938,20,Ticks_Linear_8,13,9999,9999,9999,866754616
938,20,Ticks_Linear_8,14,9999,9999,9999,867554408
938,20,Ticks_Linear_8,15,9999,9999,9999,868344916
938,20,Ticks_Linear_8,16,9999,9999,9999,869134456
938,20,Ticks_Linear_8,17,9999,9999,9999,869924968
938,20,Ticks_Linear_8,18,9999,9999,9999,870714456
938,20,Ticks_Linear_8,19,9999,9999,9999,871504968
938,20,Ticks_Linear_8,20,9999,9999,9999,872284248
938,20,Ticks_Linear_8,21,9999,9999,9999,873064504
938,20,Ticks_Linear_8,22,9999,9999,9999,873844828
938,20,Ticks_Linear_8,23,9999,9999,9999,874624116
938,20,Ticks_Linear_8,24,9999,9999,9999,875404364
938,20,Ticks_Linear_8,25,9999,9999,9999,876174432
938,20,Ticks_Linear_8,26,9999,9999,9999,876944508
938,20,Ticks_Linear_8,27,9999,9999,9999,877714500
938,20,Ticks_Linear_8,28,9999,9999,9999,878484568
938,20,Ticks_Linear_8,29,9999,9999,9999,879254632
938,20,Ticks_Linear_8,30,9999,9999,9999,880014440
938,20,Ticks_Linear_8,31,9999,9999,9999,880774256
938,20,Ticks_Linear_8,32,9999,9999,9999,881535032
938,20,Ticks_Linear_8,33,9999,9999,9999,882294840
938,20,Ticks_Linear_8,34,9999,9999,9999,883054652
938,20,Ticks_Linear_8,35,9999,9999,9999,883804276
938,20,Ticks_Linear_8,36,9999,9999,9999,884554872
938,20,Ticks_Linear_8,37,9999,9999,9999,885304420
938,20,Ticks_Linear_8,38,9999,9999,9999,886054992
938,20,Ticks_Linear_8,39,9999,9999,9999,886804540
938,20,Ticks_Linear_8,40,9999,9999,9999,887544952
938,20,Ticks_Linear_8,41,9999,9999,9999,888284244
938,20,Ticks_Linear_8,42,9999,9999,9999,889024588
938,20,Ticks_Linear_8,43,9999,9999,9999,889764924
938,20,Ticks_Linear_8,44,9999,9999,9999,890504288
938,20,Ticks_Linear_8,45,9999,9999,9999,891234364
938,20,Ticks_Linear_8,46,9999,9999,9999,891964520
938,20,Ticks_Linear_8,47,9999,9999,9999,892694644
938,20,Ticks_Linear_8,48,9999,9999,9999,893424724
938,20,Ticks_Linear_8,49,9999,9999,9999,894154876
938,20,Ticks_Linear_8,50,9999,9999,9999,894874704
938,20,Ticks_Linear_8,51,9999,9999,9999,895594592
938,20,Ticks_Linear_8,52,9999,9999,9999,896314484
938,20,Ticks_Linear_8,53,9999,9999,9999,897034356
938,20,Ticks_Linear_8,54,9999,9999,9999,897754176
938,20,Ticks_Linear_8,55,9999,9999,9999,898464840
938,20,Ticks_Linear_8,56,9999,9999,9999,899174492
938,20,Ticks_Linear_8,57,9999,9999,9999,899884128
938,20,Ticks_Linear_8,58,9999,9999,9999,900594784
938,20,Ticks_Linear_8,59,9999,9999,9999,901304416
938,20,Ticks_Linear_8,60,9999,9999,9999,902004840
938,20,Ticks_Linear_8,61,9999,9999,9999,902704212
938,20,Ticks_Linear_8,62,9999,9999,9999,903404608
938,20,Ticks_Linear_8,63,9999,9999,9999,904105032
938,20,Ticks_Linear_8,64,9999,9999,9999,904804408
938,20,Ticks_Linear_8,65,9999,9999,9999,905494620
938,20,Ticks_Linear_8,66,9999,9999,9999,906184792
938,20,Ticks_Linear_8,67,9999,9999,9999,906874956
938,20,Ticks_Linear_8,68,9999,9999,9999,907564144
938,20,Ticks_Linear_8,69,9999,9999,9999,908254276
938,20,Ticks_Linear_8,70,9999,9999,9999,908934256
938,20,Ticks_Linear_8,71,9999,9999,9999,909614168
938,20,Ticks_Linear_8,72,9999,9999,9999,910294116
938,20,Ticks_Linear_8,73,9999,9999,9999,910975064
938,20,Ticks_Linear_8,74,9999,9999,9999,911655020
938,20,Ticks_Linear_8,75,9999,9999,9999,912324664
938,20,Ticks_Linear_8,76,9999,9999,9999,912994380
938,20,Ticks_Linear_8,77,9999,9999,9999,913664076
938,20,Ticks_Linear_8,78,9999,9999,9999,914334772
938,20,Ticks_Linear_8,79,9999,9999,9999,915004488
938,20,Ticks_Linear_8,80,9999,9999,9999,915664968
938,20,Ticks_Linear_8,81,9999,9999,9999,916324436
938,20,Ticks_Linear_8,82,9999,9999,9999,916984916
938,20,Ticks_Linear_8,83,9999,9999,9999,917644376
938,20,Ticks_Linear_8,84,9999,9999,9999,918304860
938,20,Ticks_Linear_8,85,9999,9999,9999,918955100
938,20,Ticks_Linear_8,86,9999,9999,9999,919614560
938,20,Ticks_Linear_8,87,9999,9999,9999,920264784
938,20,Ticks_Linear_8,88,9999,9999,9999,920915032
938,20,Ticks_Linear_8,89,9999,9999,9999,921564284
938,20,Ticks_Linear_8,90,9999,9999,9999,922204224
938,20,Ticks_Linear_8,91,9999,9999,9999,922844244
938,20,Ticks_Linear_8,92,9999,9999,9999,923484232
938,20,Ticks_Linear_8,93,9999,9999,9999,924124272
938,20,Ticks_Linear_8,94,9999,9999,9999,924764260
938,20,Ticks_Linear_8,95,9999,9999,9999,925395012
938,20,Ticks_Linear_8,96,9999,9999,9999,926024812
938,20,Ticks_Linear_8,97,9999,9999,9999,926654588
938,20,Ticks_Linear_8,98,9999,9999,9999,927284316
938,20,Ticks_Linear_8,99,9999,9999,9999,927915068
938,20,Ticks_Linear_8,100,9999,9999,9999,928544852
938,20,Ticks_Linear_8,101,9999,9999,9999,929164396
938,20,Ticks_Linear_8,102,9999,9999,9999,929784888
938,20,Ticks_Linear_8,103,9999,9999,9999,930404432
938,20,Ticks_Linear_8,104,9999,9999,9999,931025000
938,20,Ticks_Linear_8,105,9999,9999,9999,931634288
938,20,Ticks_Linear_8,106,9999,9999,9999,932244592
938,20,Ticks_Linear_8,107,9999,9999,9999,932854908
938,20,Ticks_Linear_8,108,9999,9999,9999,933464188
938,20,Ticks_Linear_8,109,9999,9999,9999,934074424
938,20,Ticks_Linear_8,110,9999,9999,9999,934674544
938,20,Ticks_Linear_8,111,9999,9999,9999,935274620
938,20,Ticks_Linear_8,112,9999,9999,9999,935874668
938,20,Ticks_Linear_8,113,9999,9999,9999,936474716
938,20,Ticks_Linear_8,114,9999,9999,9999,937074788
938,20,Ticks_Linear_8,115,9999,9999,9999,937664580
938,20,Ticks_Linear_8,116,9999,9999,9999,938254452
938,20,Ticks_Linear_8,117,9999,9999,9999,938844260
938,20,Ticks_Linear_8,118,9999,9999,9999,939435100
938,20,Ticks_Linear_8,119,9999,9999,9999,940034104
938,20,Ticks_Linear_8,120,9999,9999,9999,940614780
938,20,Ticks_Linear_8,121,9999,9999,9999,941194312
938,20,Ticks_Linear_8,122,9999,9999,9999,941774964
938,20,Ticks_Linear_8,123,9999,9999,9999,942354492
938,20,Ticks_Linear_8,124,9999,9999,9999,942934128
938,20,Ticks_Linear_8,125,9999,9999,9999,943504444
938,20,Ticks_Linear_8,126,9999,9999,9999,944074836
938,20,Ticks_Linear_8,127,9999,9999,9999,944644184
938,20,Ticks_Linear_8,128,9999,9999,9999,945214528
938,20,Ticks_Linear_8,129,9999,9999,9999,945784920
938,20,Ticks_Linear_8,130,9999,9999,9999,946345052
938,20,Ticks_Linear_8,131,9999,9999,9999,946904140
938,20,Ticks_Linear_8,132,9999,9999,9999,947464280
938,20,Ticks_Linear_8,133,9999,9999,9999,948024440
938,20,Ticks_Linear_8,134,9999,9999,9999,948584572
938,20,Ticks_Linear_8,135,9999,9999,9999,949134448
938,20,Ticks_Linear_8,136,9999,9999,9999,949684320
938,20,Ticks_Linear_8,137,9999,9999,9999,950234196
938,20,Ticks_Linear_8,138,9999,9999,9999,950784068
938,20,Ticks_Linear_8,139,9999,9999,9999,951335012
938,20,Ticks_Linear_8,140,9999,9999,9999,951874636
938,20,Ticks_Linear_8,141,9999,9999,9999,952414324
938,20,Ticks_Linear_8,142,9999,9999,9999,952954980
938,20,Ticks_Linear_8,143,9999,9999,9999,953494596
938,20,Ticks_Linear_8,144,9999,9999,9999,954034296
938,20,Ticks_Linear_8,145,9999,9999,9999,954564700
938,20,Ticks_Linear_8,146,9999,9999,9999,955094072
938,20,Ticks_Linear_8,147,9999,9999,9999,955624532
938,20,Ticks_Linear_8,148,9999,9999,9999,956155004
938,20,Ticks_Linear_8,149,9999,9999,9999,956684360
938,20,Ticks_Linear_8,150,9999,9999,9999,957204580
938,20,Ticks_Linear_8,151,9999,9999,9999,957724728
938,20,Ticks_Linear_8,152,9999,9999,9999,958244940
938,20,Ticks_Linear_8,153,9999,9999,9999,958764136
938,20,Ticks_Linear_8,154,9999,9999,9999,959284280
938,20,Ticks_Linear_8,155,9999,9999,9999,959794240
938,20,Ticks_Linear_8,156,9999,9999,9999,960304200
938,20,Ticks_Linear_8,157,9999,9999,9999,960814156
938,20,Ticks_Linear_8,158,9999,9999,9999,961324116
938,20,Ticks_Linear_8,159,9999,9999,9999,961835120
938,20,Ticks_Linear_8,160,9999,9999,9999,962345080
938,20,Ticks_Linear_8,161,9999,9999,9999,962844756
938,20,Ticks_Linear_8,162,9999,9999,9999,963344460
938,20,Ticks_Linear_8,163,9999,9999,9999,963844156
938,20,Ticks_Linear_8,164,9999,9999,9999,964344900
938,20,Ticks_Linear_8,165,9999,9999,9999,964834424
938,20,Ticks_Linear_8,166,9999,9999,9999,965324904
938,20,Ticks_Linear_8,167,9999,9999,9999,965814348
938,20,Ticks_Linear_8,168,9999,9999,9999,966304836
938,20,Ticks_Linear_8,169,9999,9999,9999,966794352
939,10,Ticks_ISO_T2_5,0,5,42,127,977137224
939,10,Ticks_ISO_T2_5,1,5,42,127,977636792
939,10,Ticks_ISO_T2_5,2,1,48,38,978109764
939,10,Ticks_ISO_T2_5,3,5,42,127,978136280
939,10,Ticks_ISO_T2_5,4,1,48,51,978611404
939,10,Ticks_ISO_T2_5,5,5,42,127,978637096
939,10,Ticks_ISO_T2_5,6,1,48,45,979100928
939,10,Ticks_ISO_T2_5,7,5,42,127,979137088
939,10,Ticks_ISO_T2_5,8,1,48,52,979602788
939,10,Ticks_ISO_T2_5,9,5,42,127,979636484
939,10,Ticks_ISO_T2_5,10,1,48,48,980104652
939,10,Ticks_ISO_T2_5,11,5,42,127,980137224
939,10,Ticks_ISO_T2_5,12,1,48,44,980602476
939,10,Ticks_ISO_T2_5,13,5,42,127,980637292
939,10,Ticks_ISO_T2_5,14,1,48,41,981100152
939,10,Ticks_ISO_T2_5,15,5,42,127,981136688
939,10,Ticks_ISO_T2_5,16,1,48,44,981596336
939,10,Ticks_ISO_T2_5,17,5,42,127,981636312
939,10,Ticks_ISO_T2_5,18,1,48,32,982086080
939,10,Ticks_ISO_T2_5,19,5,42,127,982137128
939,10,Ticks_ISO_T2_5,20,1,48,40,982591984
939,10,Ticks_ISO_T2_5,21,5,42,127,982637120
939,10,Ticks_ISO_T2_5,22,1,48,48,983110156
939,10,Ticks_ISO_T2_5,23,5,42,127,983136668
939,10,Ticks_ISO_T2_5,24,1,48,50,983565696
939,10,Ticks_ISO_T2_5,25,5,42,127,983637260
939,10,Ticks_ISO_T2_5,26,1,48,39,984102636
939,10,Ticks_ISO_T2_5,27,5,42,127,984137080
939,10,Ticks_ISO_T2_5,28,1,48,40,984617664
939,10,Ticks_ISO_T2_5,29,5,42,127,984637072
939,10,Ticks_ISO_T2_5,30,1,48,46,985075448
939,10,Ticks_ISO_T2_5,31,5,42,127,985136544
939,10,Ticks_ISO_T2_5,32,1,48,37,985594968
939,10,Ticks_ISO_T2_5,33,5,42,127,985637116
939,10,Ticks_ISO_T2_5,34,1,48,32,986099892
939,10,Ticks_ISO_T2_5,35,5,42,127,986137100
939,10,Ticks_ISO_T2_5,36,1,48,34,986600256
939,10,Ticks_ISO_T2_5,37,5,42,127,986636720
939,10,Ticks_ISO_T2_5,38,1,48,36,987125604
939,10,Ticks_ISO_T2_5,39,5,42,127,987137460
939,10,Ticks_ISO_T2_5,40,1,48,36,987579080
939,10,Ticks_ISO_T2_5,41,5,42,127,987637156
939,10,Ticks_ISO_T2_5,42,1,48,38,988135500
939,10,Ticks_ISO_T2_5,43,5,42,127,988137000
939,10,Ticks_ISO_T2_5,44,1,48,34,988620728
939,10,Ticks_ISO_T2_5,45,5,42,127,988636400
939,10,Ticks_ISO_T2_5,46,1,48,34,989108456
939,10,Ticks_ISO_T2_5,47,5,42,127,989137288
939,10,Ticks_ISO_T2_5,48,1,48,36,989606204
939,10,Ticks_ISO_T2_5,49,5,42,127,989637056
939,10,Ticks_ISO_T2_5,50,1,48,31,990105076
939,10,Ticks_ISO_T2_5,51,5,42,127,990136752
939,10,Ticks_ISO_T2_5,52,1,48,35,990591532
939,10,Ticks_ISO_T2_5,53,5,42,127,990637492
939,10,Ticks_ISO_T2_5,54,1,48,32,991073504
939,10,Ticks_ISO_T2_5,55,5,42,127,991137116
939,10,Ticks_ISO_T2_5,56,1,48,33,991586284
939,10,Ticks_ISO_T2_5,57,5,42,127,991636888
939,10,Ticks_ISO_T2_5,58,1,48,30,992071544
939,10,Ticks_ISO_T2_5,59,5,42,127,992136656
939,10,Ticks_ISO_T2_5,60,1,48,33,992575804
939,10,Ticks_ISO_T2_5,61,5,42,127,992637324
939,10,Ticks_ISO_T2_5,62,1,48,26,993110356
939,10,Ticks_ISO_T2_5,63,5,42,127,993136944
939,10,Ticks_ISO_T2_5,64,1,48,39,993619620
939,10,Ticks_ISO_T2_5,65,5,42,127,993636936
939,10,Ticks_ISO_T2_5,66,1,48,31,994127024
939,10,Ticks_ISO_T2_5,67,5,42,127,994136480
939,10,Ticks_ISO_T2_5,68,1,48,33,994606148
939,10,Ticks_ISO_T2_5,69,5,42,127,994637148
939,10,Ticks_ISO_T2_5,70,1,48,26,995086452
939,10,Ticks_ISO_T2_5,71,5,42,127,995136772
939,10,Ticks_ISO_T2_5,72,1,48,33,995623788
939,10,Ticks_ISO_T2_5,73,5,42,127,995636692
939,10,Ticks_ISO_T2_5,74,1,48,38,996102220
939,10,Ticks_ISO_T2_5,75,5,42,127,996137280
939,10,Ticks_ISO_T2_5,76,1,48,38,996605500
939,10,Ticks_ISO_T2_5,77,5,42,127,996637100
939,10,Ticks_ISO_T2_5,78,1,48,35,997098312
939,10,Ticks_ISO_T2_5,79,5,42,127,997136796
939,10,Ticks_ISO_T2_5,80,1,48,32,997600176
939,10,Ticks_ISO_T2_5,81,5,42,127,997636564
939,10,Ticks_ISO_T2_5,82,1,48,32,998086860
939,10,Ticks_ISO_T2_5,83,5,42,127,998137084
939,10,Ticks_ISO_T2_5,84,1,48,34,998598072
939,10,Ticks_ISO_T2_5,85,5,42,127,998637076
939,10,Ticks_ISO_T2_5,86,1,48,37,999091260
939,10,Ticks_ISO_T2_5,87,5,42,127,999136768
939,10,Ticks_ISO_T2_5,88,1,48,33,999595592
939,10,Ticks_ISO_T2_5,89,5,42,127,999637288
939,10,Ticks_ISO_T2_5,90,1,48,32,1000098952
939,10,Ticks_ISO_T2_5,91,5,42,127,1000136984
939,10,Ticks_ISO_T2_5,92,1,48,38,1000596176
939,10,Ticks_ISO_T2_5,93,5,42,127,1000636680
939,10,Ticks_ISO_T2_5,94,1,48,28,1001070216
939,10,Ticks_ISO_T2_5,95,5,42,127,1001136596
939,10,Ticks_ISO_T2_5,96,1,48,40,1001607084
939,10,Ticks_ISO_T2_5,97,5,42,127,1001637264
939,10,Ticks_ISO_T2_5,98,1,48,37,1002119868
939,10,Ticks_ISO_T2_5,99,5,42,127,1002136884
939,10,Ticks_ISO_T2_5,100,1,48,38,1002570124
939,10,Ticks_ISO_T2_5,101,5,42,127,1002636728
939,10,Ticks_ISO_T2_5,102,1,48,33,1003101532
939,10,Ticks_ISO_T2_5,103,5,42,127,1003137764
939,10,Ticks_ISO_T2_5,104,1,48,26,1003619628
939,10,Ticks_ISO_T2_5,105,5,42,127,1003637088
939,10,Ticks_ISO_T2_5,106,5,42,127,1004136864
939,10,Ticks_ISO_T2_5,107,1,48,20,1004141548
939,10,Ticks_ISO_T2_5,108,1,48,31,1004618564
939,10,Ticks_ISO_T2_5,109,5,42,127,1004636700
939,10,Ticks_ISO_T2_5,110,1,48,32,1005100608
939,10,Ticks_ISO_T2_5,111,5,42,127,1005137292
939,10,Ticks_ISO_T2_5,112,1,48,38,1005606656
939,10,Ticks_ISO_T2_5,113,5,42,127,1005636988
939,10,Ticks_ISO_T2_5,114,1,48,36,1006101692
939,10,Ticks_ISO_T2_5,115,5,42,127,1006136608
939,10,Ticks_ISO_T2_5,116,1,48,37,1006586796
939,10,Ticks_ISO_T2_5,117,5,42,127,1006637496
939,10,Ticks_ISO_T2_5,118,1,48,34,1007097192
939,10,Ticks_ISO_T2_5,119,5,42,127,1007137092
939,10,Ticks_ISO_T2_5,120,1,48,35,1007623440
939,10,Ticks_ISO_T2_5,121,5,42,127,1007636936
939,10,Ticks_ISO_T2_5,122,1,48,38,1008113036
939,10,Ticks_ISO_T2_5,123,5,42,127,1008136632
939,10,Ticks_ISO_T2_5,124,1,48,32,1008564412
939,10,Ticks_ISO_T2_5,125,5,42,127,1008637300
939,10,Ticks_ISO_T2_5,126,1,48,37,1009128804
939,10,Ticks_ISO_T2_5,127,5,42,127,1009136996
939,10,Ticks_ISO_T2_5,128,5,42,127,1009636624
939,10,Ticks_ISO_T2_5,129,1,48,46,1009665096
939,10,Ticks_ISO_T2_5,130,1,48,34,1010101716
939,10,Ticks_ISO_T2_5,131,5,42,127,1010136460
939,10,Ticks_ISO_T2_5,132,1,48,38,1010577028
939,10,Ticks_ISO_T2_5,133,5,42,127,1010637200
939,10,Ticks_ISO_T2_5,134,1,48,38,1011109780
939,10,Ticks_ISO_T2_5,135,5,42,127,1011136896
939,10,Ticks_ISO_T2_5,136,1,48,38,1011572156
939,10,Ticks_ISO_T2_5,137,5,42,127,1011636812
939,10,Ticks_ISO_T2_5,138,1,48,37,1012114784
939,10,Ticks_ISO_T2_5,139,5,42,127,1012137404
939,10,Ticks_ISO_T2_5,140,5,42,127,1012637108
939,10,Ticks_ISO_T2_5,141,1,48,26,1012638072
939,10,Ticks_ISO_T2_5,142,1,48,28,1013115968
939,10,Ticks_ISO_T2_5,143,5,42,127,1013136868
939,10,Ticks_ISO_T2_5,144,1,48,35,1013590604
939,10,Ticks_ISO_T2_5,145,5,42,127,1013636636
939,10,Ticks_ISO_T2_5,146,1,48,33,1014097932
939,10,Ticks_ISO_T2_5,147,5,42,127,1014137156
939,10,Ticks_ISO_T2_5,148,1,48,31,1014597920
939,10,Ticks_ISO_T2_5,149,5,42,127,1014636924
939,10,Ticks_ISO_T2_5,150,1,48,26,1015076792
939,10,Ticks_ISO_T2_5,151,5,42,127,1015136768
939,10,Ticks_ISO_T2_5,152,1,48,25,1015557116
939,10,Ticks_ISO_T2_5,153,5,42,127,1015637436
939,10,Ticks_ISO_T2_5,154,1,48,21,1016064736
939,10,Ticks_ISO_T2_5,155,5,42,127,1016137056
939,10,Ticks_ISO_T2_5,156,1,48,40,1016547304
939,10,Ticks_ISO_T2_5,157,5,42,127,1016636900
939,10,Ticks_ISO_T2_5,158,1,48,26,1017071084
939,10,Ticks_ISO_T2_5,159,5,42,127,1017136668
939,10,Ticks_ISO_T2_5,160,1,48,27,1017564424
939,10,Ticks_ISO_T2_5,161,5,42,127,1017637308
939,10,Ticks_ISO_T2_5,162,1,48,27,1018096028
939,10,Ticks_ISO_T2_5,163,5,42,127,1018136904
939,10,Ticks_ISO_T2_5,164,1,48,28,1018570364
939,10,Ticks_ISO_T2_5,165,5,42,127,1018636596
939,10,Ticks_ISO_T2_5,166,1,48,27,1019057276
939,10,Ticks_ISO_T2_5,167,5,42,127,1019137488
939,10,Ticks_ISO_T2_5,168,1,48,34,1019597884
939,10,Ticks_ISO_T2_5,169,5,42,127,1019636960
939,10,Ticks_ISO_T2_5,170,1,48,32,1020075060
939,10,Ticks_ISO_T2_5,171,5,42,127,1020136876
939,10,Ticks_ISO_T2_5,172,1,48,28,1020569744
939,10,Ticks_ISO_T2_5,173,5,42,127,1020636572
939,10,Ticks_ISO_T2_5,174,1,48,29,1021110800
939,10,Ticks_ISO_T2_5,175,5,42,127,1021137312
939,10,Ticks_ISO_T2_5,176,1,48,24,1021606980
939,10,Ticks_ISO_T2_5,177,5,42,127,1021636936
939,10,Ticks_ISO_T2_5,178,1,48,27,1022086480
939,10,Ticks_ISO_T2_5,179,5,42,127,1022136776
939,10,Ticks_ISO_T2_5,180,1,48,22,1022586396
939,10,Ticks_ISO_T2_5,181,5,42,127,1022637520
939,10,Ticks_ISO_T2_5,182,1,48,34,1023059992
939,10,Ticks_ISO_T2_5,183,5,42,127,1023136992
939,10,Ticks_ISO_T2_5,184,1,48,35,1023575540
939,10,Ticks_ISO_T2_5,185,5,42,127,1023636908
939,10,Ticks_ISO_T2_5,186,1,48,28,1024067528
939,10,Ticks_ISO_T2_5,187,5,42,127,1024136676
939,10,Ticks_ISO_T2_5,188,1,48,37,1024576804
939,10,Ticks_ISO_T2_5,189,5,42,127,1024637420
939,10,Ticks_ISO_T2_5,190,1,48,29,1025124888
939,10,Ticks_ISO_T2_5,191,5,42,127,1025136892
939,10,Ticks_ISO_T2_5,192,5,42,127,1025636892
939,10,Ticks_ISO_T2_5,193,1,48,35,1025661624
939,10,Ticks_ISO_T2_5,194,5,42,127,1026136588
939,10,Ticks_ISO_T2_5,195,1,48,35,1026191692
939,10,Ticks_ISO_T2_5,196,1,48,31,1026592456
939,10,Ticks_ISO_T2_5,197,5,42,127,1026637096
939,10,Ticks_ISO_T2_5,198,1,48,34,1027092152
939,10,Ticks_ISO_T2_5,199,5,42,127,1027136868
939,10,Ticks_ISO_T2_5,200,1,48,37,1027570304
939,10,Ticks_ISO_T2_5,201,5,42,127,1027636488
939,10,Ticks_ISO_T2_5,202,1,48,28,1028081368
939,10,Ticks_ISO_T2_5,203,5,42,127,1028137228
939,10,Ticks_ISO_T2_5,204,1,48,33,1028545456
939,10,Ticks_ISO_T2_5,205,5,42,127,1028636896
939,10,Ticks_ISO_T2_5,206,1,48,26,1029089884
939,10,Ticks_ISO_T2_5,207,5,42,127,1029136668
939,10,Ticks_ISO_T2_5,208,1,48,31,1029585992
939,10,Ticks_ISO_T2_5,209,5,42,127,1029636436
939,10,Ticks_ISO_T2_5,210,1,48,16,1030082768
939,10,Ticks_ISO_T2_5,211,5,42,127,1030137328
939,10,Ticks_ISO_T2_5,212,1,48,32,1030538028
939,10,Ticks_ISO_T2_5,213,5,42,127,1030636800
939,10,Ticks_ISO_T2_5,214,1,48,27,1031051040
939,10,Ticks_ISO_T2_5,215,5,42,127,1031136572
939,10,Ticks_ISO_T2_5,216,1,48,38,1031593816
939,10,Ticks_ISO_T2_5,217,5,42,127,1031637312
939,10,Ticks_ISO_T2_5,218,1,48,21,1032119240
939,10,Ticks_ISO_T2_5,219,5,42,127,1032137156
939,10,Ticks_ISO_T2_5,220,1,48,36,1032618640
939,10,Ticks_ISO_T2_5,221,5,42,127,1032636852
939,10,Ticks_ISO_T2_5,222,1,48,18,1033097692
939,10,Ticks_ISO_T2_5,223,5,42,127,1033136472
939,10,Ticks_ISO_T2_5,224,1,48,32,1033614664
939,10,Ticks_ISO_T2_5,225,5,42,127,1033637436
939,10,Ticks_ISO_T2_5,226,1,48,17,1034074268
939,10,Ticks_ISO_T2_5,227,5,42,127,1034136984
939,10,Ticks_ISO_T2_5,228,1,48,34,1034606348
939,10,Ticks_ISO_T2_5,229,5,42,127,1034636604
939,10,Ticks_ISO_T2_5,230,1,48,21,1035068196
939,10,Ticks_ISO_T2_5,231,5,42,127,1035137344
939,10,Ticks_ISO_T2_5,232,1,48,34,1035598112
939,10,Ticks_ISO_T2_5,233,5,42,127,1035637188
939,10,Ticks_ISO_T2_5,234,1,48,27,1036074392
939,10,Ticks_ISO_T2_5,235,5,42,127,1036136884
939,10,Ticks_ISO_T2_5,236,1,48,39,1036556336
939,10,Ticks_ISO_T2_5,237,5,42,127,1036636504
939,10,Ticks_ISO_T2_5,238,1,48,31,1037068596
939,10,Ticks_ISO_T2_5,239,5,42,127,1037137392
939,10,Ticks_ISO_T2_5,240,1,48,33,1037599332
939,10,Ticks_ISO_T2_5,241,5,42,127,1037637236
939,10,Ticks_ISO_T2_5,242,1,48,28,1038102544
939,10,Ticks_ISO_T2_5,243,5,42,127,1038136632
939,10,Ticks_ISO_T2_5,244,1,48,39,1038590640
939,10,Ticks_ISO_T2_5,245,5,42,127,1038637448
939,10,Ticks_ISO_T2_5,246,5,42,127,1039137348
939,10,Ticks_ISO_T2_5,247,1,48,33,1039151040
939,10,Ticks_ISO_T2_5,248,1,48,35,1039581876
939,10,Ticks_ISO_T2_5,249,5,42,127,1039636892
939,10,Ticks_ISO_T2_5,250,1,48,22,1040065568
939,10,Ticks_ISO_T2_5,251,5,42,127,1040136584
939,10,Ticks_ISO_T2_5,252,1,48,37,1040574540
939,10,Ticks_ISO_T2_5,253,5,42,127,1040637256
939,10,Ticks_ISO_T2_5,254,1,48,20,1041076256
939,10,Ticks_ISO_T2_5,255,5,42,127,1041137244
939,10,Ticks_ISO_T2_5,256,1,48,33,1041548268
939,10,Ticks_ISO_T2_5,257,5,42,127,1041636716
939,10,Ticks_ISO_T2_5,258,1,48,22,1042069284
939,10,Ticks_ISO_T2_5,0,9999,9999,9999,977134712
939,10,Ticks_ISO_T2_5,1,9999,9999,9999,977634356
939,10,Ticks_ISO_T2_5,2,9999,9999,9999,978134064
939,10,Ticks_ISO_T2_5,3,9999,9999,9999,978634804
939,10,Ticks_ISO_T2_5,4,9999,9999,9999,979134576
939,10,Ticks_ISO_T2_5,5,9999,9999,9999,979634268
939,10,Ticks_ISO_T2_5,6,9999,9999,9999,980135012
939,10,Ticks_ISO_T2_5,7,9999,9999,9999,980634708
939,10,Ticks_ISO_T2_5,8,9999,9999,9999,981134400
939,10,Ticks_ISO_T2_5,9,9999,9999,9999,981634100
939,10,Ticks_ISO_T2_5,10,9999,9999,9999,982134840
939,10,Ticks_ISO_T2_5,11,9999,9999,9999,982634608
939,10,Ticks_ISO_T2_5,12,9999,9999,9999,983134304
939,10,Ticks_ISO_T2_5,13,9999,9999,9999,983635048
939,10,Ticks_ISO_T2_5,14,9999,9999,9999,984134716
939,10,Ticks_ISO_T2_5,15,9999,9999,9999,984634488
939,10,Ticks_ISO_T2_5,16,9999,9999,9999,985134180
939,10,Ticks_ISO_T2_5,17,9999,9999,9999,985634900
939,10,Ticks_ISO_T2_5,18,9999,9999,9999,986134588
939,10,Ticks_ISO_T2_5,19,9999,9999,9999,986634356
939,10,Ticks_ISO_T2_5,20,9999,9999,9999,987135100
939,10,Ticks_ISO_T2_5,21,9999,9999,9999,987634792
939,10,Ticks_ISO_T2_5,22,9999,9999,9999,988134492
939,10,Ticks_ISO_T2_5,23,9999,9999,9999,988634184
939,10,Ticks_ISO_T2_5,24,9999,9999,9999,989134924
939,10,Ticks_ISO_T2_5,25,9999,9999,9999,989634620
939,10,Ticks_ISO_T2_5,26,9999,9999,9999,990134388
939,10,Ticks_ISO_T2_5,27,9999,9999,9999,990635128
939,10,Ticks_ISO_T2_5,28,9999,9999,9999,991134828
939,10,Ticks_ISO_T2_5,29,9999,9999,9999,991634524
939,10,Ticks_ISO_T2_5,30,9999,9999,9999,992134216
939,10,Ticks_ISO_T2_5,31,9999,9999,9999,992634960
939,10,Ticks_ISO_T2_5,32,9999,9999,9999,993134652
939,10,Ticks_ISO_T2_5,33,9999,9999,9999,993634424
939,10,Ticks_ISO_T2_5,34,9999,9999,9999,994134120
939,10,Ticks_ISO_T2_5,35,9999,9999,9999,994634860
939,10,Ticks_ISO_T2_5,36,9999,9999,9999,995134556
939,10,Ticks_ISO_T2_5,37,9999,9999,9999,995634252
939,10,Ticks_ISO_T2_5,38,9999,9999,9999,996134992
939,10,Ticks_ISO_T2_5,39,9999,9999,9999,996634736
939,10,Ticks_ISO_T2_5,40,9999,9999,9999,997134432
939,10,Ticks_ISO_T2_5,41,9999,9999,9999,997634128
939,10,Ticks_ISO_T2_5,42,9999,9999,9999,998134868
939,10,Ticks_ISO_T2_5,43,9999,9999,9999,998634564
939,10,Ticks_ISO_T2_5,44,9999,9999,9999,999134260
939,10,Ticks_ISO_T2_5,45,9999,9999,9999,999635000
939,10,Ticks_ISO_T2_5,46,9999,9999,9999,1000134768
939,10,Ticks_ISO_T2_5,47,9999,9999,9999,1000634464
939,10,Ticks_ISO_T2_5,48,9999,9999,9999,1001134160
939,10,Ticks_ISO_T2_5,49,9999,9999,9999,1001634900
939,10,Ticks_ISO_T2_5,50,9999,9999,9999,1002134596
939,10,Ticks_ISO_T2_5,51,9999,9999,9999,1002634288
939,10,Ticks_ISO_T2_5,52,9999,9999,9999,1003135032
939,10,Ticks_ISO_T2_5,53,9999,9999,9999,1003634800
939,10,Ticks_ISO_T2_5,54,9999,9999,9999,1004134500
939,10,Ticks_ISO_T2_5,55,9999,9999,9999,1004634188
939,10,Ticks_ISO_T2_5,56,9999,9999,9999,1005134928
939,10,Ticks_ISO_T2_5,57,9999,9999,9999,1005634624
939,10,Ticks_ISO_T2_5,58,9999,9999,9999,1006134392
939,10,Ticks_ISO_T2_5,59,9999,9999,9999,1006635060
939,10,Ticks_ISO_T2_5,60,9999,9999,9999,1007134804
939,10,Ticks_ISO_T2_5,61,9999,9999,9999,1007634500
939,10,Ticks_ISO_T2_5,62,9999,9999,9999,1008134196
939,10,Ticks_ISO_T2_5,63,9999,9999,9999,1008634936
939,10,Ticks_ISO_T2_5,64,9999,9999,9999,1009134704
939,10,Ticks_ISO_T2_5,65,9999,9999,9999,1009634408
939,10,Ticks_ISO_T2_5,66,9999,9999,9999,1010134096
939,10,Ticks_ISO_T2_5,67,9999,9999,9999,1010634836
939,10,Ticks_ISO_T2_5,68,9999,9999,9999,1011134532
939,10,Ticks_ISO_T2_5,69,9999,9999,9999,1011634228
939,10,Ticks_ISO_T2_5,70,9999,9999,9999,1012134968
939,10,Ticks_ISO_T2_5,71,9999,9999,9999,1012634744
939,10,Ticks_ISO_T2_5,72,9999,9999,9999,1013134432
939,10,Ticks_ISO_T2_5,73,9999,9999,9999,1013634124
939,10,Ticks_ISO_T2_5,74,9999,9999,9999,1014134868
939,10,Ticks_ISO_T2_5,75,9999,9999,9999,1014634560
939,10,Ticks_ISO_T2_5,76,9999,9999,9999,1015134328
939,10,Ticks_ISO_T2_5,77,9999,9999,9999,1015634996
939,10,Ticks_ISO_T2_5,78,9999,9999,9999,1016134764
939,10,Ticks_ISO_T2_5,79,9999,9999,9999,1016634460
939,10,Ticks_ISO_T2_5,80,9999,9999,9999,1017134156
939,10,Ticks_ISO_T2_5,81,9999,9999,9999,1017634872
939,10,Ticks_ISO_T2_5,82,9999,9999,9999,1018134616
939,10,Ticks_ISO_T2_5,83,9999,9999,9999,1018634308
939,10,Ticks_ISO_T2_5,84,9999,9999,9999,1019135052
939,10,Ticks_ISO_T2_5,85,9999,9999,9999,1019634748
939,10,Ticks_ISO_T2_5,86,9999,9999,9999,1020134516
939,10,Ticks_ISO_T2_5,87,9999,9999,9999,1020634208
939,10,Ticks_ISO_T2_5,88,9999,9999,9999,1021134948
939,10,Ticks_ISO_T2_5,89,9999,9999,9999,1021634644
939,10,Ticks_ISO_T2_5,90,9999,9999,9999,1022134340
939,10,Ticks_ISO_T2_5,91,9999,9999,9999,1022635080
939,10,Ticks_ISO_T2_5,92,9999,9999,9999,1023134776
939,10,Ticks_ISO_T2_5,93,9999,9999,9999,1023634548
939,10,Ticks_ISO_T2_5,94,9999,9999,9999,1024134240
939,10,Ticks_ISO_T2_5,95,9999,9999,9999,1024634984
939,10,Ticks_ISO_T2_5,96,9999,9999,9999,1025134680
939,10,Ticks_ISO_T2_5,97,9999,9999,9999,1025634380
939,10,Ticks_ISO_T2_5,98,9999,9999,9999,1026134076
939,10,Ticks_ISO_T2_5,99,9999,9999,9999,1026634808
939,10,Ticks_ISO_T2_5,100,9999,9999,9999,1027134580
939,10,Ticks_ISO_T2_5,101,9999,9999,9999,1027634272
939,10,Ticks_ISO_T2_5,102,9999,9999,9999,1028135012
939,10,Ticks_ISO_T2_5,103,9999,9999,9999,1028634684
939,10,Ticks_ISO_T2_5,104,9999,9999,9999,1029134452
939,10,Ticks_ISO_T2_5,105,9999,9999,9999,1029634148
939,10,Ticks_ISO_T2_5,106,9999,9999,9999,1030134892
939,10,Ticks_ISO_T2_5,107,9999,9999,9999,1030634584
939,10,Ticks_ISO_T2_5,108,9999,9999,9999,1031134280
939,10,Ticks_ISO_T2_5,109,9999,9999,9999,1031635024
939,10,Ticks_ISO_T2_5,110,9999,9999,9999,1032134720
939,10,Ticks_ISO_T2_5,111,9999,9999,9999,1032634488
939,10,Ticks_ISO_T2_5,112,9999,9999,9999,1033134184
939,10,Ticks_ISO_T2_5,113,9999,9999,9999,1033634924
939,10,Ticks_ISO_T2_5,114,9999,9999,9999,1034134620
939,10,Ticks_ISO_T2_5,115,9999,9999,9999,1034634316
939,10,Ticks_ISO_T2_5,116,9999,9999,9999,1035135056
939,10,Ticks_ISO_T2_5,117,9999,9999,9999,1035634752
939,10,Ticks_ISO_T2_5,118,9999,9999,9999,1036134520
939,10,Ticks_ISO_T2_5,119,9999,9999,9999,1036634216
939,10,Ticks_ISO_T2_5,120,9999,9999,9999,1037134956
939,10,Ticks_ISO_T2_5,121,9999,9999,9999,1037634652
939,10,Ticks_ISO_T2_5,122,9999,9999,9999,1038134344
939,10,Ticks_ISO_T2_5,123,9999,9999,9999,1038635084
939,10,Ticks_ISO_T2_5,124,9999,9999,9999,1039134836
939,10,Ticks_ISO_T2_5,125,9999,9999,9999,1039634528
939,10,Ticks_ISO_T2_5,126,9999,9999,9999,1040134220
939,10,Ticks_ISO_T2_5,127,9999,9999,9999,1040634964
939,10,Ticks_ISO_T2_5,128,9999,9999,9999,1041134660
939,10,Ticks_ISO_T2_5,129,9999,9999,9999,1041634356
9310,9,Ticks_ISO_T2_8,0,5,42,127,1052012928
9310,9,Ticks_ISO_T2_8,1,5,42,127,1052812612
9310,9,Ticks_ISO_T2_8,2,5,42,127,1053613560
9310,9,Ticks_ISO_T2_8,3,1,48,51,1053680332
9310,9,Ticks_ISO_T2_8,4,5,42,127,1054413144
9310,9,Ticks_ISO_T2_8,5,1,48,46,1054452844
9310,9,Ticks_ISO_T2_8,6,5,42,127,1055212952
9310,9,Ticks_ISO_T2_8,7,1,48,39,1055263268
9310,9,Ticks_ISO_T2_8,8,1,48,40,1055992976
9310,9,Ticks_ISO_T2_8,9,5,42,127,1056012752
9310,9,Ticks_ISO_T2_8,10,1,48,37,1056786196
9310,9,Ticks_ISO_T2_8,11,5,42,127,1056813556
9310,9,Ticks_ISO_T2_8,12,1,48,43,1057594108
9310,9,Ticks_ISO_T2_8,13,5,42,127,1057613068
9310,9,Ticks_ISO_T2_8,14,1,48,42,1058347992
9310,9,Ticks_ISO_T2_8,15,5,42,127,1058412876
9310,9,Ticks_ISO_T2_8,16,1,48,40,1059150788
9310,9,Ticks_ISO_T2_8,17,5,42,127,1059212756
9310,9,Ticks_ISO_T2_8,18,1,48,40,1059977380
9310,9,Ticks_ISO_T2_8,19,5,42,127,1060013388
9310,9,Ticks_ISO_T2_8,20,5,42,127,1060813056
9310,9,Ticks_ISO_T2_8,21,1,48,35,1060821928
9310,9,Ticks_ISO_T2_8,22,5,42,127,1061612860
9310,9,Ticks_ISO_T2_8,23,1,48,37,1061634004
9310,9,Ticks_ISO_T2_8,24,1,48,38,1062344716
9310,9,Ticks_ISO_T2_8,25,5,42,127,1062412736
9310,9,Ticks_ISO_T2_8,26,1,48,31,1063183492
9310,9,Ticks_ISO_T2_8,27,5,42,127,1063213840
9310,9,Ticks_ISO_T2_8,28,5,42,127,1064013132
9310,9,Ticks_ISO_T2_8,29,1,48,43,1064043852
9310,9,Ticks_ISO_T2_8,30,5,42,127,1064812864
9310,9,Ticks_ISO_T2_8,31,1,48,33,1064875748
9310,9,Ticks_ISO_T2_8,32,1,48,43,1065560724
9310,9,Ticks_ISO_T2_8,33,5,42,127,1065612592
9310,9,Ticks_ISO_T2_8,34,1,48,31,1066331884
9310,9,Ticks_ISO_T2_8,35,5,42,127,1066413372
9310,9,Ticks_ISO_T2_8,36,1,48,30,1067208888
9310,9,Ticks_ISO_T2_8,37,5,42,127,1067213108
9310,9,Ticks_ISO_T2_8,38,5,42,127,1068012920
9310,9,Ticks_ISO_T2_8,39,1,48,38,1068032792
9310,9,Ticks_ISO_T2_8,40,5,42,127,1068812804
9310,9,Ticks_ISO_T2_8,41,1,48,40,1068813768
9310,9,Ticks_ISO_T2_8,42,1,48,40,1069582728
9310,9,Ticks_ISO_T2_8,43,5,42,127,1069613300
9310,9,Ticks_ISO_T2_8,44,5,42,127,1070413116
9310,9,Ticks_ISO_T2_8,45,1,48,38,1070423120
9310,9,Ticks_ISO_T2_8,46,1,48,40,1071199276
9310,9,Ticks_ISO_T2_8,47,5,42,127,1071212844
9310,9,Ticks_ISO_T2_8,48,1,48,37,1071985464
9310,9,Ticks_ISO_T2_8,49,5,42,127,1072012876
9310,9,Ticks_ISO_T2_8,50,5,42,127,1072813440
9310,9,Ticks_ISO_T2_8,51,1,48,40,1072830472
9310,9,Ticks_ISO_T2_8,52,5,42,127,1073613096
9310,9,Ticks_ISO_T2_8,53,1,48,43,1073623100
9310,9,Ticks_ISO_T2_8,54,1,48,37,1074396188
9310,9,Ticks_ISO_T2_8,55,5,42,127,1074412900
9310,9,Ticks_ISO_T2_8,56,1,48,48,1075167048
9310,9,Ticks_ISO_T2_8,57,5,42,127,1075212784
9310,9,Ticks_ISO_T2_8,58,1,48,35,1076002780
9310,9,Ticks_ISO_T2_8,59,5,42,127,1076013512
9310,9,Ticks_ISO_T2_8,60,1,48,33,1076778212
9310,9,Ticks_ISO_T2_8,61,5,42,127,1076813024
9310,9,Ticks_ISO_T2_8,62,5,42,127,1077612836
9310,9,Ticks_ISO_T2_8,63,1,48,33,1077615580
9310,9,Ticks_ISO_T2_8,64,1,48,42,1078385528
9310,9,Ticks_ISO_T2_8,65,5,42,127,1078412716
9310,9,Ticks_ISO_T2_8,66,5,42,127,1079213504
9310,9,Ticks_ISO_T2_8,67,1,48,39,1079219692
9310,9,Ticks_ISO_T2_8,68,1,48,29,1079971912
9310,9,Ticks_ISO_T2_8,69,5,42,127,1080013080
9310,9,Ticks_ISO_T2_8,70,1,48,40,1080782188
9310,9,Ticks_ISO_T2_8,71,5,42,127,1080812812
9310,9,Ticks_ISO_T2_8,72,1,48,43,1081601368
9310,9,Ticks_ISO_T2_8,73,5,42,127,1081612620
9310,9,Ticks_ISO_T2_8,74,1,48,44,1082400500
9310,9,Ticks_ISO_T2_8,75,5,42,127,1082413500
9310,9,Ticks_ISO_T2_8,76,5,42,127,1083213092
9310,9,Ticks_ISO_T2_8,77,1,48,22,1083214060
9310,9,Ticks_ISO_T2_8,78,1,48,43,1083951824
9310,9,Ticks_ISO_T2_8,79,5,42,127,1084012820
9310,9,Ticks_ISO_T2_8,80,1,48,39,1084733460
9310,9,Ticks_ISO_T2_8,81,5,42,127,1084812628
9310,9,Ticks_ISO_T2_8,82,1,48,31,1085587344
9310,9,Ticks_ISO_T2_8,83,5,42,127,1085613628
9310,9,Ticks_ISO_T2_8,84,1,48,30,1086399416
9310,9,Ticks_ISO_T2_8,85,5,42,127,1086413288
9310,9,Ticks_ISO_T2_8,86,1,48,38,1087182620
9310,9,Ticks_ISO_T2_8,87,5,42,127,1087212876
9310,9,Ticks_ISO_T2_8,88,1,48,30,1088009880
9310,9,Ticks_ISO_T2_8,89,5,42,127,1088012532
9310,9,Ticks_ISO_T2_8,90,5,42,127,1088813568
9310,9,Ticks_ISO_T2_8,91,1,48,28,1088847884
9310,9,Ticks_ISO_T2_8,92,1,48,38,1089561400
9310,9,Ticks_ISO_T2_8,93,5,42,127,1089613072
9310,9,Ticks_ISO_T2_8,94,5,42,127,1090413036
9310,9,Ticks_ISO_T2_8,95,1,48,36,1090425652
9310,9,Ticks_ISO_T2_8,96,1,48,31,1091189244
9310,9,Ticks_ISO_T2_8,97,5,42,127,1091212764
9310,9,Ticks_ISO_T2_8,98,1,48,36,1091964440
9310,9,Ticks_ISO_T2_8,99,5,42,127,1092013616
9310,9,Ticks_ISO_T2_8,100,1,48,40,1092731940
9310,9,Ticks_ISO_T2_8,101,5,42,127,1092813424
9310,9,Ticks_ISO_T2_8,102,1,48,40,1093527112
9310,9,Ticks_ISO_T2_8,103,5,42,127,1093612936
9310,9,Ticks_ISO_T2_8,104,1,48,41,1094348840
9310,9,Ticks_ISO_T2_8,105,5,42,127,1094412596
9310,9,Ticks_ISO_T2_8,106,5,42,127,1095213556
9310,9,Ticks_ISO_T2_8,107,1,48,40,1095222812
9310,9,Ticks_ISO_T2_8,108,1,48,39,1095971364
9310,9,Ticks_ISO_T2_8,109,5,42,127,1096013432
9310,9,Ticks_ISO_T2_8,110,1,48,27,1096779176
9310,9,Ticks_ISO_T2_8,111,5,42,127,1096813016
9310,9,Ticks_ISO_T2_8,112,1,48,35,1097534400
9310,9,Ticks_ISO_T2_8,113,5,42,127,1097612676
9310,9,Ticks_ISO_T2_8,114,1,48,34,1098333088
9310,9,Ticks_ISO_T2_8,115,5,42,127,1098413456
9310,9,Ticks_ISO_T2_8,116,1,48,29,1099149432
9310,9,Ticks_ISO_T2_8,117,5,42,127,1099213340
9310,9,Ticks_ISO_T2_8,118,1,48,38,1100000328
9310,9,Ticks_ISO_T2_8,119,5,42,127,1100012776
9310,9,Ticks_ISO_T2_8,120,1,48,35,1100788612
9310,9,Ticks_ISO_T2_8,121,5,42,127,1100812660
9310,9,Ticks_ISO_T2_8,122,5,42,127,1101613396
9310,9,Ticks_ISO_T2_8,123,1,48,40,1101616216
9310,9,Ticks_ISO_T2_8,124,1,48,35,1102368188
9310,9,Ticks_ISO_T2_8,125,5,42,127,1102413200
9310,9,Ticks_ISO_T2_8,126,5,42,127,1103212792
9310,9,Ticks_ISO_T2_8,127,1,48,52,1103237452
9310,9,Ticks_ISO_T2_8,128,1,48,41,1103999320
9310,9,Ticks_ISO_T2_8,129,5,42,127,1104012592
9310,9,Ticks_ISO_T2_8,130,1,48,34,1104812924
9310,9,Ticks_ISO_T2_8,131,5,42,127,1104814420
9310,9,Ticks_ISO_T2_8,132,1,48,27,1105531992
9310,9,Ticks_ISO_T2_8,133,5,42,127,1105613104
9310,9,Ticks_ISO_T2_8,134,1,48,47,1106361192
9310,9,Ticks_ISO_T2_8,135,5,42,127,1106412836
9310,9,Ticks_ISO_T2_8,136,1,48,40,1107158240
9310,9,Ticks_ISO_T2_8,137,5,42,127,1107212648
9310,9,Ticks_ISO_T2_8,138,1,48,29,1107992148
9310,9,Ticks_ISO_T2_8,139,5,42,127,1108013376
9310,9,Ticks_ISO_T2_8,140,1,48,35,1108732716
9310,9,Ticks_ISO_T2_8,141,5,42,127,1108813036
9310,9,Ticks_ISO_T2_8,142,1,48,42,1109576912
9310,9,Ticks_ISO_T2_8,143,5,42,127,1109612768
9310,9,Ticks_ISO_T2_8,144,1,48,40,1110366248
9310,9,Ticks_ISO_T2_8,145,5,42,127,1110412576
9310,9,Ticks_ISO_T2_8,146,1,48,36,1111184004
9310,9,Ticks_ISO_T2_8,147,5,42,127,1111213508
9310,9,Ticks_ISO_T2_8,148,1,48,43,1111959580
9310,9,Ticks_ISO_T2_8,149,5,42,127,1112013092
9310,9,Ticks_ISO_T2_8,150,1,48,40,1112812832
9310,9,Ticks_ISO_T2_8,151,5,42,127,1112814244
9310,9,Ticks_ISO_T2_8,152,1,48,34,1113550072
9310,9,Ticks_ISO_T2_8,153,5,42,127,1113612560
9310,9,Ticks_ISO_T2_8,154,1,48,29,1114370376
9310,9,Ticks_ISO_T2_8,155,5,42,127,1114413368
9310,9,Ticks_ISO_T2_8,156,1,48,30,1115158592
9310,9,Ticks_ISO_T2_8,157,5,42,127,1115213100
9310,9,Ticks_ISO_T2_8,158,1,48,41,1115936328
9310,9,Ticks_ISO_T2_8,159,5,42,127,1116013032
9310,9,Ticks_ISO_T2_8,160,5,42,127,1116812624
9310,9,Ticks_ISO_T2_8,161,1,48,28,1116833764
9310,9,Ticks_ISO_T2_8,162,1,48,31,1117545220
9310,9,Ticks_ISO_T2_8,163,5,42,127,1117613320
9310,9,Ticks_ISO_T2_8,164,1,48,33,1118345628
9310,9,Ticks_ISO_T2_8,165,5,42,127,1118413128
9310,9,Ticks_ISO_T2_8,166,1,48,32,1119160020
9310,9,Ticks_ISO_T2_8,167,5,42,127,1119213012
9310,9,Ticks_ISO_T2_8,168,1,48,37,1119988404
9310,9,Ticks_ISO_T2_8,169,5,42,127,1120012520
9310,9,Ticks_ISO_T2_8,170,1,48,32,1120786868
9310,9,Ticks_ISO_T2_8,171,5,42,127,1120813476
9310,9,Ticks_ISO_T2_8,172,5,42,127,1121613064
9310,9,Ticks_ISO_T2_8,173,1,48,30,1121618280
9310,9,Ticks_ISO_T2_8,174,1,48,44,1122412420
9310,9,Ticks_ISO_T2_8,175,5,42,127,1122413840
9310,9,Ticks_ISO_T2_8,176,5,42,127,1123212756
9310,9,Ticks_ISO_T2_8,177,1,48,40,1123266964
9310,9,Ticks_ISO_T2_8,178,1,48,43,1123987168
9310,9,Ticks_ISO_T2_8,179,5,42,127,1124013380
9310,9,Ticks_ISO_T2_8,180,5,42,127,1124813124
9310,9,Ticks_ISO_T2_8,181,1,48,35,1124814832
9310,9,Ticks_ISO_T2_8,182,1,48,41,1125572496
9310,9,Ticks_ISO_T2_8,183,5,42,127,1125613072
9310,9,Ticks_ISO_T2_8,184,1,48,36,1126378072
9310,9,Ticks_ISO_T2_8,185,5,42,127,1126412736
9310,9,Ticks_ISO_T2_8,186,1,48,28,1127176080
9310,9,Ticks_ISO_T2_8,187,5,42,127,1127213540
9310,9,Ticks_ISO_T2_8,188,1,48,38,1127990428
9310,9,Ticks_ISO_T2_8,189,5,42,127,1128013200
9310,9,Ticks_ISO_T2_8,190,1,48,37,1128811348
9310,9,Ticks_ISO_T2_8,191,5,42,127,1128812932
9310,9,Ticks_ISO_T2_8,192,1,48,35,1129580392
9310,9,Ticks_ISO_T2_8,193,5,42,127,1129612664
9310,9,Ticks_ISO_T2_8,194,1,48,35,1130395836
9310,9,Ticks_ISO_T2_8,195,5,42,127,1130413444
9310,9,Ticks_ISO_T2_8,196,1,48,39,1131188316
9310,9,Ticks_ISO_T2_8,197,5,42,127,1131213028
9310,9,Ticks_ISO_T2_8,198,5,42,127,1132012992
9310,9,Ticks_ISO_T2_8,199,1,48,31,1132037880
9310,9,Ticks_ISO_T2_8,200,5,42,127,1132812800
9310,9,Ticks_ISO_T2_8,201,1,48,36,1132816220
9310,9,Ticks_ISO_T2_8,202,1,48,44,1133606240
9310,9,Ticks_ISO_T2_8,203,5,42,127,1133613376
9310,9,Ticks_ISO_T2_8,204,5,42,127,1134413192
9310,9,Ticks_ISO_T2_8,205,1,48,37,1134435388
9310,9,Ticks_ISO_T2_8,206,5,42,127,1135212924
9310,9,Ticks_ISO_T2_8,207,1,48,40,1135217768
9310,9,Ticks_ISO_T2_8,208,5,42,127,1136012956
9310,9,Ticks_ISO_T2_8,209,1,48,37,1136031560
9310,9,Ticks_ISO_T2_8,210,1,48,38,1136798144
9310,9,Ticks_ISO_T2_8,211,5,42,127,1136813356
9310,9,Ticks_ISO_T2_8,212,1,48,27,1137606176
9310,9,Ticks_ISO_T2_8,213,5,42,127,1137613016
9310,9,Ticks_ISO_T2_8,214,5,42,127,1138412904
9310,9,Ticks_ISO_T2_8,215,1,48,35,1138472816
9310,9,Ticks_ISO_T2_8,216,5,42,127,1139212860
9310,9,Ticks_ISO_T2_8,217,1,48,32,1139234404
9310,9,Ticks_ISO_T2_8,218,5,42,127,1140013368
9310,9,Ticks_ISO_T2_8,219,1,48,37,1140023740
9310,9,Ticks_ISO_T2_8,220,1,48,42,1140770724
9310,9,Ticks_ISO_T2_8,221,5,42,127,1140813096
9310,9,Ticks_ISO_T2_8,222,5,42,127,1141612908
9310,9,Ticks_ISO_T2_8,223,1,48,35,1141639444
9310,9,Ticks_ISO_T2_8,224,1,48,34,1142406844
9310,9,Ticks_ISO_T2_8,225,5,42,127,1142412636
9310,9,Ticks_ISO_T2_8,226,1,48,39,1143204852
9310,9,Ticks_ISO_T2_8,227,5,42,127,1143213492
9310,9,Ticks_ISO_T2_8,228,1,48,44,1143997636
9310,9,Ticks_ISO_T2_8,229,5,42,127,1144013224
9310,9,Ticks_ISO_T2_8,230,5,42,127,1144812816
9310,9,Ticks_ISO_T2_8,231,1,48,35,1144836952
9310,9,Ticks_ISO_T2_8,232,5,42,127,1145612620
9310,9,Ticks_ISO_T2_8,233,1,48,43,1145616260
9310,9,Ticks_ISO_T2_8,234,1,48,36,1146346796
9310,9,Ticks_ISO_T2_8,235,5,42,127,1146413344
9310,9,Ticks_ISO_T2_8,236,1,48,35,1147177740
9310,9,Ticks_ISO_T2_8,237,5,42,127,1147213152
9310,9,Ticks_ISO_T2_8,0,9999,9999,9999,1052010568
9310,9,Ticks_ISO_T2_8,1,9999,9999,9999,1052810324
9310,9,Ticks_ISO_T2_8,2,9999,9999,9999,1053611124
9310,9,Ticks_ISO_T2_8,3,9999,9999,9999,1054410856
9310,9,Ticks_ISO_T2_8,4,9999,9999,9999,1055210588
9310,9,Ticks_ISO_T2_8,5,9999,9999,9999,1056010316
9310,9,Ticks_ISO_T2_8,6,9999,9999,9999,1056811120
9310,9,Ticks_ISO_T2_8,7,9999,9999,9999,1057610852
9310,9,Ticks_ISO_T2_8,8,9999,9999,9999,1058410588
9310,9,Ticks_ISO_T2_8,9,9999,9999,9999,1059210320
9310,9,Ticks_ISO_T2_8,10,9999,9999,9999,1060011100
9310,9,Ticks_ISO_T2_8,11,9999,9999,9999,1060810840
9310,9,Ticks_ISO_T2_8,12,9999,9999,9999,1061610572
9310,9,Ticks_ISO_T2_8,13,9999,9999,9999,1062410300
9310,9,Ticks_ISO_T2_8,14,9999,9999,9999,1063211104
9310,9,Ticks_ISO_T2_8,15,9999,9999,9999,1064010844
9310,9,Ticks_ISO_T2_8,16,9999,9999,9999,1064810576
9310,9,Ticks_ISO_T2_8,17,9999,9999,9999,1065610304
9310,9,Ticks_ISO_T2_8,18,9999,9999,9999,1066411084
9310,9,Ticks_ISO_T2_8,19,9999,9999,9999,1067210820
9310,9,Ticks_ISO_T2_8,20,9999,9999,9999,1068010560
9310,9,Ticks_ISO_T2_8,21,9999,9999,9999,1068810292
9310,9,Ticks_ISO_T2_8,22,9999,9999,9999,1069611088
9310,9,Ticks_ISO_T2_8,23,9999,9999,9999,1070410828
9310,9,Ticks_ISO_T2_8,24,9999,9999,9999,1071210556
9310,9,Ticks_ISO_T2_8,25,9999,9999,9999,1072010288
9310,9,Ticks_ISO_T2_8,26,9999,9999,9999,1072811076
9310,9,Ticks_ISO_T2_8,27,9999,9999,9999,1073610808
9310,9,Ticks_ISO_T2_8,28,9999,9999,9999,1074410612
9310,9,Ticks_ISO_T2_8,29,9999,9999,9999,1075210348
9310,9,Ticks_ISO_T2_8,30,9999,9999,9999,1076011076
9310,9,Ticks_ISO_T2_8,31,9999,9999,9999,1076810812
9310,9,Ticks_ISO_T2_8,32,9999,9999,9999,1077610548
9310,9,Ticks_ISO_T2_8,33,9999,9999,9999,1078410352
9310,9,Ticks_ISO_T2_8,34,9999,9999,9999,1079211064
9310,9,Ticks_ISO_T2_8,35,9999,9999,9999,1080010868
9310,9,Ticks_ISO_T2_8,36,9999,9999,9999,1080810600
9310,9,Ticks_ISO_T2_8,37,9999,9999,9999,1081610332
9310,9,Ticks_ISO_T2_8,38,9999,9999,9999,1082411064
9310,9,Ticks_ISO_T2_8,39,9999,9999,9999,1083210804
9310,9,Ticks_ISO_T2_8,40,9999,9999,9999,1084010604
9310,9,Ticks_ISO_T2_8,41,9999,9999,9999,1084810340
9310,9,Ticks_ISO_T2_8,42,9999,9999,9999,1085611120
9310,9,Ticks_ISO_T2_8,43,9999,9999,9999,1086410852
9310,9,Ticks_ISO_T2_8,44,9999,9999,9999,1087210588
9310,9,Ticks_ISO_T2_8,45,9999,9999,9999,1088010320
9310,9,Ticks_ISO_T2_8,46,9999,9999,9999,1088811056
9310,9,Ticks_ISO_T2_8,47,9999,9999,9999,1089610856
9310,9,Ticks_ISO_T2_8,48,9999,9999,9999,1090410600
9310,9,Ticks_ISO_T2_8,49,9999,9999,9999,1091210328
9310,9,Ticks_ISO_T2_8,50,9999,9999,9999,1092011108
9310,9,Ticks_ISO_T2_8,51,9999,9999,9999,1092810840
9310,9,Ticks_ISO_T2_8,52,9999,9999,9999,1093610572
9310,9,Ticks_ISO_T2_8,53,9999,9999,9999,1094410308
9310,9,Ticks_ISO_T2_8,54,9999,9999,9999,1095211120
9310,9,Ticks_ISO_T2_8,55,9999,9999,9999,1096010848
9310,9,Ticks_ISO_T2_8,56,9999,9999,9999,1096810580
9310,9,Ticks_ISO_T2_8,57,9999,9999,9999,1097610312
9310,9,Ticks_ISO_T2_8,58,9999,9999,9999,1098411096
9310,9,Ticks_ISO_T2_8,59,9999,9999,9999,1099210828
9310,9,Ticks_ISO_T2_8,60,9999,9999,9999,1100010560
9310,9,Ticks_ISO_T2_8,61,9999,9999,9999,1100810296
9310,9,Ticks_ISO_T2_8,62,9999,9999,9999,1101611108
9310,9,Ticks_ISO_T2_8,63,9999,9999,9999,1102410836
9310,9,Ticks_ISO_T2_8,64,9999,9999,9999,1103210576
9310,9,Ticks_ISO_T2_8,65,9999,9999,9999,1104010304
9310,9,Ticks_ISO_T2_8,66,9999,9999,9999,1104811088
9310,9,Ticks_ISO_T2_8,67,9999,9999,9999,1105610816
9310,9,Ticks_ISO_T2_8,68,9999,9999,9999,1106410548
9310,9,Ticks_ISO_T2_8,69,9999,9999,9999,1107210360
9310,9,Ticks_ISO_T2_8,70,9999,9999,9999,1108011088
9310,9,Ticks_ISO_T2_8,71,9999,9999,9999,1108810824
9310,9,Ticks_ISO_T2_8,72,9999,9999,9999,1109610556
9310,9,Ticks_ISO_T2_8,73,9999,9999,9999,1110410288
9310,9,Ticks_ISO_T2_8,74,9999,9999,9999,1111211072
9310,9,Ticks_ISO_T2_8,75,9999,9999,9999,1112010804
9310,9,Ticks_ISO_T2_8,76,9999,9999,9999,1112810544
9310,9,Ticks_ISO_T2_8,77,9999,9999,9999,1113610344
9310,9,Ticks_ISO_T2_8,78,9999,9999,9999,1114411076
9310,9,Ticks_ISO_T2_8,79,9999,9999,9999,1115210812
9310,9,Ticks_ISO_T2_8,80,9999,9999,9999,1116010592
9310,9,Ticks_ISO_T2_8,81,9999,9999,9999,1116810336
9310,9,Ticks_ISO_T2_8,82,9999,9999,9999,1117611108
9310,9,Ticks_ISO_T2_8,83,9999,9999,9999,1118410840
9310,9,Ticks_ISO_T2_8,84,9999,9999,9999,1119210576
9310,9,Ticks_ISO_T2_8,85,9999,9999,9999,1120010308
9310,9,Ticks_ISO_T2_8,86,9999,9999,9999,1120811112
9310,9,Ticks_ISO_T2_8,87,9999,9999,9999,1121610852
9310,9,Ticks_ISO_T2_8,88,9999,9999,9999,1122410584
9310,9,Ticks_ISO_T2_8,89,9999,9999,9999,1123210320
9310,9,Ticks_ISO_T2_8,90,9999,9999,9999,1124011092
9310,9,Ticks_ISO_T2_8,91,9999,9999,9999,1124810836
9310,9,Ticks_ISO_T2_8,92,9999,9999,9999,1125610560
9310,9,Ticks_ISO_T2_8,93,9999,9999,9999,1126410296
9310,9,Ticks_ISO_T2_8,94,9999,9999,9999,1127211104
9310,9,Ticks_ISO_T2_8,95,9999,9999,9999,1128010836
9310,9,Ticks_ISO_T2_8,96,9999,9999,9999,1128810576
9310,9,Ticks_ISO_T2_8,97,9999,9999,9999,1129610304
9310,9,Ticks_ISO_T2_8,98,9999,9999,9999,1130411084
9310,9,Ticks_ISO_T2_8,99,9999,9999,9999,1131210816
9310,9,Ticks_ISO_T2_8,100,9999,9999,9999,1132010556
9310,9,Ticks_ISO_T2_8,101,9999,9999,9999,1132810292
9310,9,Ticks_ISO_T2_8,102,9999,9999,9999,1133611088
9310,9,Ticks_ISO_T2_8,103,9999,9999,9999,1134410828
9310,9,Ticks_ISO_T2_8,104,9999,9999,9999,1135210564
9310,9,Ticks_ISO_T2_8,105,9999,9999,9999,1136010296
9310,9,Ticks_ISO_T2_8,106,9999,9999,9999,1136811072
9310,9,Ticks_ISO_T2_8,107,9999,9999,9999,1137610804
9310,9,Ticks_ISO_T2_8,108,9999,9999,9999,1138410544
9310,9,Ticks_ISO_T2_8,109,9999,9999,9999,1139210352
9310,9,Ticks_ISO_T2_8,110,9999,9999,9999,1140011080
9310,9,Ticks_ISO_T2_8,111,9999,9999,9999,1140810808
9310,9,Ticks_ISO_T2_8,112,9999,9999,9999,1141610548
9310,9,Ticks_ISO_T2_8,113,9999,9999,9999,1142410348
9310,9,Ticks_ISO_T2_8,114,9999,9999,9999,1143211056
9310,9,Ticks_ISO_T2_8,115,9999,9999,9999,1144010860
9310,9,Ticks_ISO_T2_8,116,9999,9999,9999,1144810600
9310,9,Ticks_ISO_T2_8,117,9999,9999,9999,1145610332
9310,9,Ticks_ISO_T2_8,118,9999,9999,9999,1146411056
9310,9,Ticks_ISO_T2_8,119,9999,9999,9999,1147210868
9311,25,Jits_Pract_5,0,5,56,103,1192313268
9311,25,Jits_Pract_5,1,5,63,98,1192316288
9311,25,Jits_Pract_5,2,5,80,127,1192319340
9311,25,Jits_Pract_5,0,5,56,103,1192813068
9311,25,Jits_Pract_5,1,5,63,98,1192816096
9311,25,Jits_Pract_5,2,5,80,127,1192819288
9311,25,Jits_Pract_5,0,5,56,103,1193312956
9311,25,Jits_Pract_5,1,5,80,127,1193323004
9311,25,Jits_Pract_5,2,5,63,98,1193343312
9311,25,Jits_Pract_5,0,5,63,98,1193763180
9311,25,Jits_Pract_5,1,5,80,127,1193792856
9311,25,Jits_Pract_5,2,5,56,103,1193803124
9311,25,Jits_Pract_5,0,5,80,127,1194323440
9311,25,Jits_Pract_5,1,5,56,103,1194332664
9311,25,Jits_Pract_5,2,5,63,98,1194363388
9311,25,Jits_Pract_5,0,5,63,98,1194813000
9311,25,Jits_Pract_5,1,5,56,103,1194842676
9311,25,Jits_Pract_5,2,5,80,127,1194852796
9311,25,Jits_Pract_5,0,5,56,103,1195263336
9311,25,Jits_Pract_5,1,5,63,98,1195312516
9311,25,Jits_Pract_5,2,5,80,127,1195332976
9311,25,Jits_Pract_5,0,5,80,127,1195763156
9311,25,Jits_Pract_5,1,5,63,98,1195813160
9311,25,Jits_Pract_5,2,5,56,103,1195853320
9311,25,Jits_Pract_5,0,5,56,103,1196262972
9311,25,Jits_Pract_5,1,5,63,98,1196292500
9311,25,Jits_Pract_5,2,5,80,127,1196363176
9311,25,Jits_Pract_5,0,5,56,103,1196762492
9311,25,Jits_Pract_5,1,5,80,127,1196822960
9311,25,Jits_Pract_5,2,5,63,98,1196852732
9311,25,Jits_Pract_5,0,5,56,103,1197272500
9311,25,Jits_Pract_5,1,5,63,98,1197282772
9311,25,Jits_Pract_5,2,5,80,127,1197322784
9311,25,Jits_Pract_5,0,5,63,98,1197762876
9311,25,Jits_Pract_5,1,5,80,127,1197842748
9311,25,Jits_Pract_5,2,5,56,103,1197853040
9311,25,Jits_Pract_5,0,5,63,98,1198312876
9311,25,Jits_Pract_5,1,5,56,103,1198352816
9311,25,Jits_Pract_5,2,5,80,127,1198355736
9311,25,Jits_Pract_5,0,5,56,103,1198772672
9311,25,Jits_Pract_5,1,5,63,98,1198783020
9311,25,Jits_Pract_5,2,5,80,127,1198822956
9311,25,Jits_Pract_5,0,5,56,103,1199263048
9311,25,Jits_Pract_5,1,5,63,98,1199266040
9311,25,Jits_Pract_5,2,5,80,127,1199282680
9311,25,Jits_Pract_5,0,9999,9999,9999,1192560704
9311,25,Jits_Pract_5,1,9999,9999,9999,1193060428
9311,25,Jits_Pract_5,2,9999,9999,9999,1193560172
9311,25,Jits_Pract_5,3,9999,9999,9999,1194060884
9311,25,Jits_Pract_5,4,9999,9999,9999,1194560624
9311,25,Jits_Pract_5,5,9999,9999,9999,1195060292
9311,25,Jits_Pract_5,6,9999,9999,9999,1195561072
9311,25,Jits_Pract_5,7,9999,9999,9999,1196060740
9311,25,Jits_Pract_5,8,9999,9999,9999,1196560460
9311,25,Jits_Pract_5,9,9999,9999,9999,1197060204
9311,25,Jits_Pract_5,10,9999,9999,9999,1197560916
9311,25,Jits_Pract_5,11,9999,9999,9999,1198060660
9311,25,Jits_Pract_5,12,9999,9999,9999,1198560316
9311,25,Jits_Pract_5,13,9999,9999,9999,1199061088
9311,25,Jits_Pract_5,14,9999,9999,9999,1199560816
9312,25,Jits_Pract_5,0,5,56,103,1251062188
9312,25,Jits_Pract_5,1,5,63,98,1251065064
9312,25,Jits_Pract_5,2,5,80,127,1251068260
9312,25,Jits_Pract_5,0,5,56,103,1251561840
9312,25,Jits_Pract_5,1,5,63,98,1251564864
9312,25,Jits_Pract_5,2,5,80,127,1251567988
9312,25,Jits_Pract_5,3,1,48,37,1251760900
9312,25,Jits_Pract_5,0,5,56,103,1252061696
9312,25,Jits_Pract_5,1,5,80,127,1252071968
9312,25,Jits_Pract_5,2,5,63,98,1252092128
9312,25,Jits_Pract_5,3,1,48,26,1252144040
9312,25,Jits_Pract_5,0,5,63,98,1252522444
9312,25,Jits_Pract_5,1,1,48,33,1252545568
9312,25,Jits_Pract_5,2,5,80,127,1252552036
9312,25,Jits_Pract_5,3,5,56,103,1252562308
9312,25,Jits_Pract_5,0,1,48,37,1253005392
9312,25,Jits_Pract_5,1,5,80,127,1253081316
9312,25,Jits_Pract_5,2,5,56,103,1253091960
9312,25,Jits_Pract_5,3,5,63,98,1253122368
9312,25,Jits_Pract_5,0,1,48,37,1253487028
9312,25,Jits_Pract_5,1,5,63,98,1253571944
9312,25,Jits_Pract_5,2,5,56,103,1253601828
9312,25,Jits_Pract_5,3,5,80,127,1253611952
9312,25,Jits_Pract_5,0,1,48,37,1254012872
9312,25,Jits_Pract_5,1,5,56,103,1254021368
9312,25,Jits_Pract_5,2,5,63,98,1254071868
9312,25,Jits_Pract_5,3,5,80,127,1254092104
9312,25,Jits_Pract_5,0,1,48,34,1254516232
9312,25,Jits_Pract_5,1,5,80,127,1254522184
9312,25,Jits_Pract_5,2,5,63,98,1254572312
9312,25,Jits_Pract_5,3,5,56,103,1254612324
9312,25,Jits_Pract_5,0,1,48,35,1255000576
9312,25,Jits_Pract_5,1,5,56,103,1255021948
9312,25,Jits_Pract_5,2,5,63,98,1255051772
9312,25,Jits_Pract_5,3,5,80,127,1255122264
9312,25,Jits_Pract_5,0,1,48,34,1255506924
9312,25,Jits_Pract_5,1,5,56,103,1255521940
9312,25,Jits_Pract_5,2,5,80,127,1255582036
9312,25,Jits_Pract_5,3,5,63,98,1255611844
9312,25,Jits_Pract_5,0,1,48,25,1256026328
9312,25,Jits_Pract_5,1,5,56,103,1256031824
9312,25,Jits_Pract_5,2,5,63,98,1256042020
9312,25,Jits_Pract_5,3,5,80,127,1256081880
9312,25,Jits_Pract_5,0,1,48,33,1256488916
9312,25,Jits_Pract_5,1,5,63,98,1256532260
9312,25,Jits_Pract_5,2,5,80,127,1256612264
9312,25,Jits_Pract_5,3,5,56,103,1256621416
9312,25,Jits_Pract_5,0,1,48,40,1256971372
9312,25,Jits_Pract_5,1,5,63,98,1257082360
9312,25,Jits_Pract_5,2,5,56,103,1257122068
9312,25,Jits_Pract_5,3,5,80,127,1257125216
9312,25,Jits_Pract_5,0,1,48,35,1257532592
9312,25,Jits_Pract_5,1,5,56,103,1257541904
9312,25,Jits_Pract_5,2,5,63,98,1257552248
9312,25,Jits_Pract_5,3,5,80,127,1257592112
9312,25,Jits_Pract_5,0,1,48,37,1257998756
9312,25,Jits_Pract_5,1,5,56,103,1258031324
9312,25,Jits_Pract_5,2,5,63,98,1258034472
9312,25,Jits_Pract_5,3,5,80,127,1258052012
9312,25,Jits_Pract_5,0,9999,9999,9999,1251309628
9312,25,Jits_Pract_5,1,9999,9999,9999,1251809348
9312,25,Jits_Pract_5,2,9999,9999,9999,1252310088
9312,25,Jits_Pract_5,3,9999,9999,9999,1252820056
9312,25,Jits_Pract_5,4,9999,9999,9999,1253319752
9312,25,Jits_Pract_5,5,9999,9999,9999,1253819448
9312,25,Jits_Pract_5,6,9999,9999,9999,1254319216
9312,25,Jits_Pract_5,7,9999,9999,9999,1254819956
9312,25,Jits_Pract_5,8,9999,9999,9999,1255319648
9312,25,Jits_Pract_5,9,9999,9999,9999,1255819340
9312,25,Jits_Pract_5,10,9999,9999,9999,1256320076
9312,25,Jits_Pract_5,11,9999,9999,9999,1256830032
9312,25,Jits_Pract_5,12,9999,9999,9999,1257329720
9312,25,Jits_Pract_5,13,9999,9999,9999,1257829484
9312,25,Jits_Pract_5,14,9999,9999,9999,1258329160
9313,24,Jits_Pract_8,0,5,56,103,1268675864
9313,24,Jits_Pract_8,1,5,63,98,1268678960
9313,24,Jits_Pract_8,2,5,80,127,1268682156
9313,24,Jits_Pract_8,0,1,48,29,1269224476
9313,24,Jits_Pract_8,1,5,56,103,1269475852
9313,24,Jits_Pract_8,2,5,63,98,1269478952
9313,24,Jits_Pract_8,3,5,80,127,1269481996
9313,24,Jits_Pract_8,0,1,48,26,1270067316
9313,24,Jits_Pract_8,1,5,80,127,1270215972
9313,24,Jits_Pract_8,2,5,63,98,1270306132
9313,24,Jits_Pract_8,3,5,56,103,1270316624
9313,24,Jits_Pract_8,0,1,48,34,1271004928
9313,24,Jits_Pract_8,1,5,56,103,1271036416
9313,24,Jits_Pract_8,2,5,63,98,1271045568
9313,24,Jits_Pract_8,3,5,80,127,1271135636
9313,24,Jits_Pract_8,0,1,48,34,1271737928
9313,24,Jits_Pract_8,1,5,63,98,1271806580
9313,24,Jits_Pract_8,2,5,80,127,1271836044
9313,24,Jits_Pract_8,3,5,56,103,1271865568
9313,24,Jits_Pract_8,0,1,48,29,1272572284
9313,24,Jits_Pract_8,1,5,56,103,1272606056
9313,24,Jits_Pract_8,2,5,80,127,1272706444
9313,24,Jits_Pract_8,3,5,63,98,1272755520
9313,24,Jits_Pract_8,0,1,48,34,1273388188
9313,24,Jits_Pract_8,1,5,56,103,1273405816
9313,24,Jits_Pract_8,2,5,80,127,1273456020
9313,24,Jits_Pract_8,3,5,63,98,1273495868
9313,24,Jits_Pract_8,0,1,48,36,1274198792
9313,24,Jits_Pract_8,1,5,80,127,1274236356
9313,24,Jits_Pract_8,2,5,63,98,1274266108
9313,24,Jits_Pract_8,3,5,56,103,1274335624
9313,24,Jits_Pract_8,0,1,48,31,1275030388
9313,24,Jits_Pract_8,1,5,63,98,1275065860
9313,24,Jits_Pract_8,2,5,56,103,1275096436
9313,24,Jits_Pract_8,3,5,80,127,1275155908
9313,24,Jits_Pract_8,0,5,56,103,1275805908
9313,24,Jits_Pract_8,1,5,80,127,1275809128
9313,24,Jits_Pract_8,2,1,48,32,1275853372
9313,24,Jits_Pract_8,3,5,63,98,1275925928
9313,24,Jits_Pract_8,0,1,48,33,1276550016
9313,24,Jits_Pract_8,1,5,56,103,1276685644
9313,24,Jits_Pract_8,2,5,80,127,1276725612
9313,24,Jits_Pract_8,3,5,63,98,1276735956
9313,24,Jits_Pract_8,0,1,48,34,1277371660
9313,24,Jits_Pract_8,1,5,56,103,1277445416
9313,24,Jits_Pract_8,2,5,80,127,1277466008
9313,24,Jits_Pract_8,3,5,63,98,1277545800
9313,24,Jits_Pract_8,0,1,48,35,1278215384
9313,24,Jits_Pract_8,1,5,80,127,1278235960
9313,24,Jits_Pract_8,2,5,56,103,1278336492
9313,24,Jits_Pract_8,3,5,63,98,1278345640
9313,24,Jits_Pract_8,0,5,63,98,1279006056
9313,24,Jits_Pract_8,1,1,48,32,1279063428
9313,24,Jits_Pract_8,2,5,80,127,1279065396
9313,24,Jits_Pract_8,3,5,56,103,1279075664
9313,24,Jits_Pract_8,0,1,48,28,1279777756
9313,24,Jits_Pract_8,1,5,56,103,1279805808
9313,24,Jits_Pract_8,2,5,63,98,1279875472
9313,24,Jits_Pract_8,3,5,80,127,1279879132
9313,24,Jits_Pract_8,0,9999,9999,9999,1269074040
9313,24,Jits_Pract_8,1,9999,9999,9999,1269873736
9313,24,Jits_Pract_8,2,9999,9999,9999,1270673492
9313,24,Jits_Pract_8,3,9999,9999,9999,1271473248
9313,24,Jits_Pract_8,4,9999,9999,9999,1272273972
9313,24,Jits_Pract_8,5,9999,9999,9999,1273073732
9313,24,Jits_Pract_8,6,9999,9999,9999,1273873484
9313,24,Jits_Pract_8,7,9999,9999,9999,1274673264
9313,24,Jits_Pract_8,8,9999,9999,9999,1275473996
9313,24,Jits_Pract_8,9,9999,9999,9999,1276273716
9313,24,Jits_Pract_8,10,9999,9999,9999,1277073496
9313,24,Jits_Pract_8,11,9999,9999,9999,1277873228
9313,24,Jits_Pract_8,12,9999,9999,9999,1278674040
9313,24,Jits_Pract_8,13,9999,9999,9999,1279473720
9313,24,Jits_Pract_8,14,9999,9999,9999,1280273464
9314,17,Jits_Phase_5,0,5,56,103,1307745600
9314,17,Jits_Phase_5,1,5,63,98,1307749072
9314,17,Jits_Phase_5,2,5,80,127,1307752040
9314,17,Jits_Phase_5,0,5,56,103,1308246504
9314,17,Jits_Phase_5,1,5,63,98,1308249680
9314,17,Jits_Phase_5,2,5,80,127,1308252796
9314,17,Jits_Phase_5,0,1,48,36,1308694956
9314,17,Jits_Phase_5,1,5,56,103,1308746072
9314,17,Jits_Phase_5,2,5,80,127,1308756272
9314,17,Jits_Phase_5,3,5,63,98,1308775828
9314,17,Jits_Phase_5,0,1,48,50,1309163424
9314,17,Jits_Phase_5,1,5,63,98,1309195828
9314,17,Jits_Phase_5,2,5,80,127,1309226204
9314,17,Jits_Phase_5,3,5,56,103,1309235652
9314,17,Jits_Phase_5,0,1,48,48,1309629020
9314,17,Jits_Phase_5,1,5,80,127,1309755972
9314,17,Jits_Phase_5,2,5,56,103,1309765944
9314,17,Jits_Phase_5,3,5,63,98,1309796064
9314,17,Jits_Phase_5,0,1,48,40,1310140832
9314,17,Jits_Phase_5,1,5,63,98,1310246288
9314,17,Jits_Phase_5,2,5,56,103,1310275812
9314,17,Jits_Phase_5,3,5,80,127,1310286380
9314,17,Jits_Phase_5,0,1,48,45,1310642236
9314,17,Jits_Phase_5,1,5,56,103,1310695764
9314,17,Jits_Phase_5,2,5,63,98,1310746124
9314,17,Jits_Phase_5,3,5,80,127,1310765460
9314,17,Jits_Phase_5,0,1,48,41,1311137640
9314,17,Jits_Phase_5,1,5,80,127,1311195580
9314,17,Jits_Phase_5,2,5,63,98,1311245916
9314,17,Jits_Phase_5,3,5,56,103,1311285804
9314,17,Jits_Phase_5,0,1,48,44,1311648248
9314,17,Jits_Phase_5,1,5,56,103,1311696300
9314,17,Jits_Phase_5,2,5,63,98,1311725900
9314,17,Jits_Phase_5,3,5,80,127,1311795516
9314,17,Jits_Phase_5,0,1,48,37,1312153080
9314,17,Jits_Phase_5,1,5,56,103,1312195900
9314,17,Jits_Phase_5,2,5,80,127,1312256348
9314,17,Jits_Phase_5,3,5,63,98,1312286048
9314,17,Jits_Phase_5,0,1,48,41,1312651256
9314,17,Jits_Phase_5,1,5,56,103,1312705764
9314,17,Jits_Phase_5,2,5,63,98,1312716256
9314,17,Jits_Phase_5,3,5,80,127,1312756028
9314,17,Jits_Phase_5,0,1,48,42,1313162244
9314,17,Jits_Phase_5,1,5,63,98,1313196516
9314,17,Jits_Phase_5,2,5,80,127,1313276220
9314,17,Jits_Phase_5,3,5,56,103,1313285444
9314,17,Jits_Phase_5,0,1,48,39,1313663488
9314,17,Jits_Phase_5,1,5,63,98,1313755660
9314,17,Jits_Phase_5,2,5,56,103,1313795376
9314,17,Jits_Phase_5,3,5,80,127,1313798516
9314,17,Jits_Phase_5,0,1,48,36,1314185424
9314,17,Jits_Phase_5,1,5,56,103,1314216308
9314,17,Jits_Phase_5,2,5,63,98,1314225388
9314,17,Jits_Phase_5,3,5,80,127,1314265396
9314,17,Jits_Phase_5,0,1,48,43,1314669580
9314,17,Jits_Phase_5,1,5,56,103,1314705940
9314,17,Jits_Phase_5,2,5,63,98,1314709228
9314,17,Jits_Phase_5,3,5,80,127,1314726248
9314,17,Jits_Phase_5,0,1,48,40,1315137772
9314,17,Jits_Phase_5,1,5,80,127,1315215936
9314,17,Jits_Phase_5,2,5,56,103,1315226060
9314,17,Jits_Phase_5,3,5,63,98,1315295796
9314,17,Jits_Phase_5,0,1,48,40,1315628896
9314,17,Jits_Phase_5,1,5,63,98,1315706096
9314,17,Jits_Phase_5,2,5,56,103,1315725880
9314,17,Jits_Phase_5,3,5,80,127,1315805804
9314,17,Jits_Phase_5,0,1,48,42,1316126776
9314,17,Jits_Phase_5,1,5,56,103,1316216104
9314,17,Jits_Phase_5,2,5,80,127,1316256028
9314,17,Jits_Phase_5,3,5,63,98,1316266300
9314,17,Jits_Phase_5,0,1,48,38,1316645252
9314,17,Jits_Phase_5,1,5,80,127,1316705808
9314,17,Jits_Phase_5,2,5,63,98,1316736308
9314,17,Jits_Phase_5,3,5,56,103,1316776304
9314,17,Jits_Phase_5,0,1,48,34,1317123472
9314,17,Jits_Phase_5,1,5,56,103,1317225844
9314,17,Jits_Phase_5,2,5,63,98,1317255744
9314,17,Jits_Phase_5,3,5,80,127,1317305864
9314,17,Jits_Phase_5,0,1,48,42,1317638944
9314,17,Jits_Phase_5,1,5,80,127,1317735780
9314,17,Jits_Phase_5,2,5,56,103,1317775792
9314,17,Jits_Phase_5,3,5,63,98,1317786064
9314,17,Jits_Phase_5,0,1,48,36,1318143772
9314,17,Jits_Phase_5,1,5,80,127,1318215916
9314,17,Jits_Phase_5,2,5,63,98,1318255984
9314,17,Jits_Phase_5,3,5,56,103,1318316296
9314,17,Jits_Phase_5,0,1,48,41,1318648628
9314,17,Jits_Phase_5,1,5,56,103,1318715740
9314,17,Jits_Phase_5,2,5,80,127,1318726084
9314,17,Jits_Phase_5,3,5,63,98,1318806008
9314,17,Jits_Phase_5,0,1,48,36,1319126728
9314,17,Jits_Phase_5,1,5,80,127,1319215708
9314,17,Jits_Phase_5,2,5,63,98,1319276008
9314,17,Jits_Phase_5,3,5,56,103,1319306056
9314,17,Jits_Phase_5,0,1,48,45,1319645880
9314,17,Jits_Phase_5,1,5,56,103,1319716280
9314,17,Jits_Phase_5,2,5,80,127,1319775680
9314,17,Jits_Phase_5,3,5,63,98,1319815768
9314,17,Jits_Phase_5,0,1,48,36,1320156420
9314,17,Jits_Phase_5,1,5,56,103,1320266136
9314,17,Jits_Phase_5,2,5,63,98,1320276480
9314,17,Jits_Phase_5,3,5,80,127,1320279992
9314,17,Jits_Phase_5,0,1,48,37,1320657208
9314,17,Jits_Phase_5,1,5,80,127,1320715744
9314,17,Jits_Phase_5,2,5,63,98,1320805812
9314,17,Jits_Phase_5,3,5,56,103,1320816008
9314,17,Jits_Phase_5,0,1,48,35,1321133044
9314,17,Jits_Phase_5,1,5,56,103,1321216380
9314,17,Jits_Phase_5,2,5,63,98,1321219700
9314,17,Jits_Phase_5,3,5,80,127,1321222744
9314,17,Jits_Phase_5,0,1,48,38,1321588948
9314,17,Jits_Phase_5,1,5,80,127,1321735656
9314,17,Jits_Phase_5,2,5,63,98,1321785660
9314,17,Jits_Phase_5,3,5,56,103,1321816680
9314,17,Jits_Phase_5,0,1,48,28,1322119416
9314,17,Jits_Phase_5,1,5,56,103,1322215928
9314,17,Jits_Phase_5,2,5,80,127,1322225976
9314,17,Jits_Phase_5,3,5,63,98,1322295824
9314,17,Jits_Phase_5,0,1,48,39,1322584776
9314,17,Jits_Phase_5,1,5,56,103,1322725712
9314,17,Jits_Phase_5,2,5,63,98,1322746096
9314,17,Jits_Phase_5,3,5,80,127,1322805756
9314,17,Jits_Phase_5,0,1,48,36,1323079420
9314,17,Jits_Phase_5,1,5,80,127,1323205980
9314,17,Jits_Phase_5,2,5,63,98,1323275736
9314,17,Jits_Phase_5,3,5,56,103,1323296068
9314,17,Jits_Phase_5,0,1,48,35,1323583432
9314,17,Jits_Phase_5,1,5,80,127,1323726184
9314,17,Jits_Phase_5,2,5,56,103,1323736676
9314,17,Jits_Phase_5,3,5,63,98,1323745600
9314,17,Jits_Phase_5,0,1,48,34,1324086264
9314,17,Jits_Phase_5,1,5,80,127,1324215740
9314,17,Jits_Phase_5,2,5,56,103,1324236124
9314,17,Jits_Phase_5,3,5,63,98,1324305724
9314,17,Jits_Phase_5,0,1,48,35,1324590652
9314,17,Jits_Phase_5,1,5,56,103,1324725600
9314,17,Jits_Phase_5,2,5,80,127,1324756324
9314,17,Jits_Phase_5,3,5,63,98,1324775732
9314,17,Jits_Phase_5,0,1,48,38,1325088232
9314,17,Jits_Phase_5,1,5,63,98,1325215984
9314,17,Jits_Phase_5,2,5,56,103,1325275776
9314,17,Jits_Phase_5,3,5,80,127,1325306200
9314,17,Jits_Phase_5,0,1,48,36,1325635116
9314,17,Jits_Phase_5,1,5,63,98,1325705856
9314,17,Jits_Phase_5,2,5,80,127,1325708996
9314,17,Jits_Phase_5,3,5,56,103,1325795596
9314,17,Jits_Phase_5,0,1,48,33,1326156200
9314,17,Jits_Phase_5,1,5,56,103,1326225676
9314,17,Jits_Phase_5,2,5,63,98,1326255856
9314,17,Jits_Phase_5,3,5,80,127,1326296616
9314,17,Jits_Phase_5,0,1,48,38,1326636692
9314,17,Jits_Phase_5,1,5,63,98,1326725648
9314,17,Jits_Phase_5,2,5,56,103,1326765720
9314,17,Jits_Phase_5,3,5,80,127,1326785808
9314,17,Jits_Phase_5,0,1,48,39,1327105776
9314,17,Jits_Phase_5,1,5,63,98,1327235576
9314,17,Jits_Phase_5,2,5,56,103,1327276336
9314,17,Jits_Phase_5,3,5,80,127,1327285708
9314,17,Jits_Phase_5,0,1,48,35,1327606572
9314,17,Jits_Phase_5,1,5,80,127,1327715692
9314,17,Jits_Phase_5,2,5,63,98,1327786568
9314,17,Jits_Phase_5,3,5,56,103,1327805756
9314,17,Jits_Phase_5,0,1,48,37,1328099724
9314,17,Jits_Phase_5,1,5,56,103,1328206080
9314,17,Jits_Phase_5,2,5,80,127,1328225864
9314,17,Jits_Phase_5,3,5,63,98,1328265872
9314,17,Jits_Phase_5,0,1,48,32,1328598568
9314,17,Jits_Phase_5,1,5,63,98,1328716084
9314,17,Jits_Phase_5,2,5,80,127,1328735644
9314,17,Jits_Phase_5,3,5,56,103,1328775728
9314,17,Jits_Phase_5,0,1,48,37,1329089100
9314,17,Jits_Phase_5,1,5,63,98,1329215904
9314,17,Jits_Phase_5,2,5,56,103,1329236512
9314,17,Jits_Phase_5,3,5,80,127,1329245584
9314,17,Jits_Phase_5,0,1,48,32,1329591160
9314,17,Jits_Phase_5,1,5,80,127,1329715800
9314,17,Jits_Phase_5,2,5,56,103,1329736036
9314,17,Jits_Phase_5,3,5,63,98,1329765708
9314,17,Jits_Phase_5,0,1,48,40,1330083040
9314,17,Jits_Phase_5,1,5,56,103,1330285896
9314,17,Jits_Phase_5,2,5,80,127,1330289108
9314,17,Jits_Phase_5,3,5,63,98,1330306652
9314,17,Jits_Phase_5,0,1,48,37,1330615840
9314,17,Jits_Phase_5,1,5,63,98,1330705768
9314,17,Jits_Phase_5,2,5,56,103,1330735456
9314,17,Jits_Phase_5,3,5,80,127,1330795768
9314,17,Jits_Phase_5,0,1,48,39,1331131612
9314,17,Jits_Phase_5,1,5,63,98,1331286664
9314,17,Jits_Phase_5,2,5,56,103,1331295516
9314,17,Jits_Phase_5,3,5,80,127,1331305708
9314,17,Jits_Phase_5,0,1,48,37,1331626136
9314,17,Jits_Phase_5,1,5,56,103,1331746188
9314,17,Jits_Phase_5,2,5,80,127,1331775940
9314,17,Jits_Phase_5,3,5,63,98,1331786284
9314,17,Jits_Phase_5,0,1,48,38,1332131416
9314,17,Jits_Phase_5,1,5,63,98,1332285948
9314,17,Jits_Phase_5,2,5,56,103,1332295992
9314,17,Jits_Phase_5,3,5,80,127,1332315552
9314,17,Jits_Phase_5,0,1,48,34,1332663152
9314,17,Jits_Phase_5,1,5,56,103,1332715788
9314,17,Jits_Phase_5,2,5,63,98,1332776484
9314,17,Jits_Phase_5,3,5,80,127,1332779700
9314,17,Jits_Phase_5,0,1,48,36,1333151584
9314,17,Jits_Phase_5,1,5,80,127,1333236056
9314,17,Jits_Phase_5,2,5,56,103,1333246472
9314,17,Jits_Phase_5,3,5,63,98,1333316084
9314,17,Jits_Phase_5,0,1,48,29,1333639576
9314,17,Jits_Phase_5,1,5,80,127,1333725688
9314,17,Jits_Phase_5,2,5,56,103,1333796204
9314,17,Jits_Phase_5,3,5,63,98,1333805500
9314,17,Jits_Phase_5,0,1,48,34,1334155516
9314,17,Jits_Phase_5,1,5,63,98,1334266180
9314,17,Jits_Phase_5,2,5,56,103,1334275628
9314,17,Jits_Phase_5,3,5,80,127,1334295888
9314,17,Jits_Phase_5,0,1,48,32,1334665980
9314,17,Jits_Phase_5,1,5,80,127,1334715680
9314,17,Jits_Phase_5,2,5,63,98,1334776128
9314,17,Jits_Phase_5,3,5,56,103,1334816088
9314,17,Jits_Phase_5,0,1,48,36,1335155168
9314,17,Jits_Phase_5,1,5,56,103,1335256392
9314,17,Jits_Phase_5,2,5,63,98,1335265544
9314,17,Jits_Phase_5,3,5,80,127,1335305480
9314,17,Jits_Phase_5,0,1,48,35,1335659932
9314,17,Jits_Phase_5,1,5,56,103,1335716080
9314,17,Jits_Phase_5,2,5,80,127,1335745904
9314,17,Jits_Phase_5,3,5,63,98,1335796160
9314,17,Jits_Phase_5,0,1,48,41,1336127392
9314,17,Jits_Phase_5,1,5,56,103,1336255820
9314,17,Jits_Phase_5,2,5,63,98,1336295756
9314,17,Jits_Phase_5,3,5,80,127,1336299268
9314,17,Jits_Phase_5,0,1,48,32,1336682940
9314,17,Jits_Phase_5,1,5,56,103,1336755500
9314,17,Jits_Phase_5,2,5,63,98,1336765696
9314,17,Jits_Phase_5,3,5,80,127,1336786436
9314,17,Jits_Phase_5,0,1,48,31,1337189888
9314,17,Jits_Phase_5,1,5,56,103,1337216588
9314,17,Jits_Phase_5,2,5,80,127,1337219580
9314,17,Jits_Phase_5,3,5,63,98,1337256596
9314,17,Jits_Phase_5,0,1,48,31,1337681900
9314,17,Jits_Phase_5,1,5,63,98,1337755960
9314,17,Jits_Phase_5,2,5,56,103,1337785772
9314,17,Jits_Phase_5,3,5,80,127,1337806376
9314,17,Jits_Phase_5,0,1,48,36,1338182400
9314,17,Jits_Phase_5,1,5,80,127,1338225968
9314,17,Jits_Phase_5,2,5,56,103,1338236608
9314,17,Jits_Phase_5,3,5,63,98,1338245536
9314,17,Jits_Phase_5,0,1,48,29,1338663712
9314,17,Jits_Phase_5,1,5,56,103,1338725712
9314,17,Jits_Phase_5,2,5,80,127,1338765784
9314,17,Jits_Phase_5,3,5,63,98,1338796504
9314,17,Jits_Phase_5,0,1,48,31,1339142388
9314,17,Jits_Phase_5,1,5,63,98,1339235652
9314,17,Jits_Phase_5,2,5,80,127,1339245908
9314,17,Jits_Phase_5,3,5,56,103,1339256548
9314,17,Jits_Phase_5,0,1,48,32,1339639896
9314,17,Jits_Phase_5,1,5,56,103,1339726332
9314,17,Jits_Phase_5,2,5,63,98,1339795772
9314,17,Jits_Phase_5,3,5,80,127,1339806040
9314,17,Jits_Phase_5,0,1,48,32,1340137396
9314,17,Jits_Phase_5,1,5,80,127,1340236104
9314,17,Jits_Phase_5,2,5,56,103,1340246672
9314,17,Jits_Phase_5,3,5,63,98,1340295676
9314,17,Jits_Phase_5,0,1,48,31,1340644264
9314,17,Jits_Phase_5,1,5,80,127,1340745964
9314,17,Jits_Phase_5,2,5,56,103,1340805532
9314,17,Jits_Phase_5,3,5,63,98,1340836252
9314,17,Jits_Phase_5,0,1,48,40,1341178548
9314,17,Jits_Phase_5,1,5,56,103,1341245724
9314,17,Jits_Phase_5,2,5,80,127,1341248944
9314,17,Jits_Phase_5,3,5,63,98,1341285800
9314,17,Jits_Phase_5,0,1,48,32,1341664360
9314,17,Jits_Phase_5,1,5,56,103,1341776316
9314,17,Jits_Phase_5,2,5,63,98,1341805992
9314,17,Jits_Phase_5,3,5,80,127,1341816264
9314,17,Jits_Phase_5,0,1,48,35,1342180352
9314,17,Jits_Phase_5,1,5,63,98,1342286256
9314,17,Jits_Phase_5,2,5,80,127,1342296528
9314,17,Jits_Phase_5,3,5,56,103,1342305528
9314,17,Jits_Phase_5,0,1,48,28,1342722356
9314,17,Jits_Phase_5,1,5,80,127,1342735800
9314,17,Jits_Phase_5,2,5,56,103,1342785948
9314,17,Jits_Phase_5,3,5,63,98,1342789016
9314,17,Jits_Phase_5,0,1,48,33,1343160732
9314,17,Jits_Phase_5,1,5,56,103,1343266260
9314,17,Jits_Phase_5,2,5,80,127,1343285596
9314,17,Jits_Phase_5,3,5,63,98,1343295720
9314,17,Jits_Phase_5,0,1,48,30,1343657412
9314,17,Jits_Phase_5,1,5,63,98,1343746516
9314,17,Jits_Phase_5,2,5,56,103,1343776056
9314,17,Jits_Phase_5,3,5,80,127,1343795612
9314,17,Jits_Phase_5,0,1,48,33,1344143680
9314,17,Jits_Phase_5,1,5,56,103,1344256512
9314,17,Jits_Phase_5,2,5,80,127,1344265512
9314,17,Jits_Phase_5,3,5,63,98,1344336332
9314,17,Jits_Phase_5,0,1,48,33,1344671056
9314,17,Jits_Phase_5,1,5,63,98,1344745932
9314,17,Jits_Phase_5,2,5,80,127,1344785708
9314,17,Jits_Phase_5,3,5,56,103,1344825744
9314,17,Jits_Phase_5,0,1,48,33,1345173416
9314,17,Jits_Phase_5,1,5,56,103,1345255796
9314,17,Jits_Phase_5,2,5,63,98,1345265976
9314,17,Jits_Phase_5,3,5,80,127,1345285464
9314,17,Jits_Phase_5,0,1,48,35,1345697828
9314,17,Jits_Phase_5,1,5,63,98,1345795980
9314,17,Jits_Phase_5,2,5,80,127,1345815868
9314,17,Jits_Phase_5,3,5,56,103,1345836324
9314,17,Jits_Phase_5,0,1,48,38,1346215112
9314,17,Jits_Phase_5,1,5,56,103,1346235736
9314,17,Jits_Phase_5,2,5,80,127,1346315736
9314,17,Jits_Phase_5,3,5,63,98,1346325884
9314,17,Jits_Phase_5,0,1,48,32,1346717176
9314,17,Jits_Phase_5,1,5,80,127,1346776540
9314,17,Jits_Phase_5,2,5,63,98,1346785688
9314,17,Jits_Phase_5,3,5,56,103,1346816556
9314,17,Jits_Phase_5,0,1,48,37,1347204644
9314,17,Jits_Phase_5,1,5,63,98,1347236356
9314,17,Jits_Phase_5,2,5,80,127,1347276220
9314,17,Jits_Phase_5,3,5,56,103,1347335472
9314,17,Jits_Phase_5,0,1,48,38,1347699740
9314,17,Jits_Phase_5,1,5,63,98,1347746216
9314,17,Jits_Phase_5,2,5,56,103,1347796492
9314,17,Jits_Phase_5,3,5,80,127,1347825928
9314,17,Jits_Phase_5,0,1,48,34,1348202104
9314,17,Jits_Phase_5,1,5,80,127,1348245892
9314,17,Jits_Phase_5,2,5,63,98,1348256388
9314,17,Jits_Phase_5,3,5,56,103,1348325752
9314,17,Jits_Phase_5,0,1,48,39,1348707256
9314,17,Jits_Phase_5,1,5,80,127,1348806012
9314,17,Jits_Phase_5,2,5,56,103,1348816512
9314,17,Jits_Phase_5,3,5,63,98,1348819424
9314,17,Jits_Phase_5,0,1,48,35,1349200556
9314,17,Jits_Phase_5,1,5,56,103,1349246364
9314,17,Jits_Phase_5,2,5,80,127,1349265776
9314,17,Jits_Phase_5,3,5,63,98,1349275896
9314,17,Jits_Phase_5,0,1,48,35,1349701276
9314,17,Jits_Phase_5,1,5,63,98,1349756448
9314,17,Jits_Phase_5,2,5,56,103,1349796300
9314,17,Jits_Phase_5,3,5,80,127,1349815636
9314,17,Jits_Phase_5,0,1,48,35,1350167848
9314,17,Jits_Phase_5,1,5,63,98,1350256276
9314,17,Jits_Phase_5,2,5,56,103,1350316424
9314,17,Jits_Phase_5,3,5,80,127,1350319416
9314,17,Jits_Phase_5,0,1,48,40,1350670328
9314,17,Jits_Phase_5,1,5,56,103,1350715788
9314,17,Jits_Phase_5,2,5,80,127,1350736320
9314,17,Jits_Phase_5,3,5,63,98,1350776464
9314,17,Jits_Phase_5,0,1,48,30,1351146108
9314,17,Jits_Phase_5,1,5,56,103,1351246160
9314,17,Jits_Phase_5,2,5,63,98,1351265720
9314,17,Jits_Phase_5,3,5,80,127,1351275992
9314,17,Jits_Phase_5,0,1,48,39,1351660528
9314,17,Jits_Phase_5,1,5,80,127,1351716180
9314,17,Jits_Phase_5,2,5,56,103,1351746076
9314,17,Jits_Phase_5,3,5,63,98,1351785852
9314,17,Jits_Phase_5,0,1,48,32,1352190476
9314,17,Jits_Phase_5,1,5,80,127,1352226268
9314,17,Jits_Phase_5,2,5,56,103,1352245604
9314,17,Jits_Phase_5,3,5,63,98,1352306124
9314,17,Jits_Phase_5,0,1,48,36,1352694500
9314,17,Jits_Phase_5,1,5,56,103,1352736128
9314,17,Jits_Phase_5,2,5,80,127,1352755616
9314,17,Jits_Phase_5,3,5,63,98,1352815912
9314,17,Jits_Phase_5,0,1,48,36,1353187504
9314,17,Jits_Phase_5,1,5,80,127,1353216448
9314,17,Jits_Phase_5,2,5,56,103,1353225520
9314,17,Jits_Phase_5,3,5,63,98,1353265480
9314,17,Jits_Phase_5,0,1,48,30,1353680052
9314,17,Jits_Phase_5,1,5,63,98,1353716264
9314,17,Jits_Phase_5,2,5,56,103,1353756076
9314,17,Jits_Phase_5,3,5,80,127,1353759140
9314,17,Jits_Phase_5,0,1,48,35,1354169068
9314,17,Jits_Phase_5,1,5,63,98,1354236376
9314,17,Jits_Phase_5,2,5,80,127,1354276472
9314,17,Jits_Phase_5,3,5,56,103,1354305772
9314,17,Jits_Phase_5,0,1,48,38,1354689264
9314,17,Jits_Phase_5,1,5,56,103,1354725632
9314,17,Jits_Phase_5,2,5,63,98,1354736124
9314,17,Jits_Phase_5,3,5,80,127,1354765576
9314,17,Jits_Phase_5,0,5,80,127,1355216392
9314,17,Jits_Phase_5,1,1,48,31,1355218836
9314,17,Jits_Phase_5,2,5,63,98,1355285940
9314,17,Jits_Phase_5,3,5,56,103,1355296212
9314,17,Jits_Phase_5,0,1,48,29,1355710124
9314,17,Jits_Phase_5,1,5,63,98,1355716148
9314,17,Jits_Phase_5,2,5,56,103,1355785456
9314,17,Jits_Phase_5,3,5,80,127,1355795948
9314,17,Jits_Phase_5,0,1,48,34,1356168648
9314,17,Jits_Phase_5,1,5,63,98,1356196172
9314,17,Jits_Phase_5,2,5,56,103,1356215732
9314,17,Jits_Phase_5,3,5,80,127,1356255592
9314,17,Jits_Phase_5,0,1,48,32,1356671684
9314,17,Jits_Phase_5,1,5,56,103,1356675396
9314,17,Jits_Phase_5,2,5,63,98,1356685740
9314,17,Jits_Phase_5,3,5,80,127,1356765456
9314,17,Jits_Phase_5,0,1,48,38,1357109780
9314,17,Jits_Phase_5,1,5,63,98,1357165928
9314,17,Jits_Phase_5,2,5,56,103,1357195748
9314,17,Jits_Phase_5,3,5,80,127,1357235524
9314,17,Jits_Phase_5,0,1,48,38,1357637776
9314,17,Jits_Phase_5,1,5,56,103,1357665672
9314,17,Jits_Phase_5,2,5,63,98,1357705460
9314,17,Jits_Phase_5,3,5,80,127,1357745532
9314,17,Jits_Phase_5,0,1,48,28,1358134152
9314,17,Jits_Phase_5,1,5,80,127,1358166464
9314,17,Jits_Phase_5,2,5,56,103,1358246244
9314,17,Jits_Phase_5,3,5,63,98,1358255468
9314,17,Jits_Phase_5,0,1,48,38,1358659444
9314,17,Jits_Phase_5,1,5,56,103,1358716336
9314,17,Jits_Phase_5,2,5,63,98,1358719252
9314,17,Jits_Phase_5,3,5,80,127,1358725412
9314,17,Jits_Phase_5,0,1,48,36,1359168024
9314,17,Jits_Phase_5,1,5,56,103,1359235484
9314,17,Jits_Phase_5,2,5,63,98,1359255868
9314,17,Jits_Phase_5,3,5,80,127,1359266124
9314,17,Jits_Phase_5,0,1,48,33,1359654448
9314,17,Jits_Phase_5,1,5,63,98,1359696200
9314,17,Jits_Phase_5,2,5,80,127,1359705500
9314,17,Jits_Phase_5,3,5,56,103,1359726180
9314,17,Jits_Phase_5,0,1,48,34,1360113024
9314,17,Jits_Phase_5,1,5,63,98,1360196096
9314,17,Jits_Phase_5,2,5,56,103,1360275876
9314,17,Jits_Phase_5,3,5,80,127,1360279088
9314,17,Jits_Phase_5,0,1,48,41,1360615100
9314,17,Jits_Phase_5,1,5,63,98,1360695616
9314,17,Jits_Phase_5,2,5,56,103,1360716280
9314,17,Jits_Phase_5,3,5,80,127,1360745956
9314,17,Jits_Phase_5,0,1,48,39,1361121952
9314,17,Jits_Phase_5,1,5,56,103,1361196332
9314,17,Jits_Phase_5,2,5,63,98,1361215748
9314,17,Jits_Phase_5,3,5,80,127,1361226376
9314,17,Jits_Phase_5,0,1,48,31,1361666736
9314,17,Jits_Phase_5,1,5,56,103,1361725752
9314,17,Jits_Phase_5,2,5,63,98,1361755500
9314,17,Jits_Phase_5,3,5,80,127,1361758860
9314,17,Jits_Phase_5,0,1,48,32,1362140772
9314,17,Jits_Phase_5,1,5,56,103,1362176320
9314,17,Jits_Phase_5,2,5,63,98,1362216280
9314,17,Jits_Phase_5,3,5,80,127,1362275756
9314,17,Jits_Phase_5,0,1,48,42,1362626820
9314,17,Jits_Phase_5,1,5,56,103,1362695476
9314,17,Jits_Phase_5,2,5,63,98,1362705744
9314,17,Jits_Phase_5,3,5,80,127,1362766340
9314,17,Jits_Phase_5,0,1,48,38,1363142636
9314,17,Jits_Phase_5,1,5,56,103,1363196392
9314,17,Jits_Phase_5,2,5,80,127,1363215580
9314,17,Jits_Phase_5,3,5,63,98,1363245412
9314,17,Jits_Phase_5,0,1,48,36,1363625240
9314,17,Jits_Phase_5,1,5,80,127,1363696060
9314,17,Jits_Phase_5,2,5,56,103,1363706332
9314,17,Jits_Phase_5,3,5,63,98,1363725652
9314,17,Jits_Phase_5,0,1,48,36,1364134052
9314,17,Jits_Phase_5,1,5,63,98,1364185468
9314,17,Jits_Phase_5,2,5,80,127,1364266320
9314,17,Jits_Phase_5,3,5,56,103,1364275692
9314,17,Jits_Phase_5,0,1,48,37,1364629292
9314,17,Jits_Phase_5,1,5,80,127,1364776256
9314,17,Jits_Phase_5,2,5,56,103,1364795740
9314,17,Jits_Phase_5,3,5,63,98,1364799028
9314,17,Jits_Phase_5,0,1,48,41,1365182528
9314,17,Jits_Phase_5,1,5,63,98,1365265796
9314,17,Jits_Phase_5,2,5,80,127,1365269256
9314,17,Jits_Phase_5,3,5,56,103,1365326116
9314,17,Jits_Phase_5,0,1,48,41,1365717412
9314,17,Jits_Phase_5,1,5,56,103,1365745984
9314,17,Jits_Phase_5,2,5,80,127,1365756180
9314,17,Jits_Phase_5,3,5,63,98,1365796216
9314,17,Jits_Phase_5,0,1,48,36,1366226256
9314,17,Jits_Phase_5,1,5,56,103,1366227668
9314,17,Jits_Phase_5,2,5,63,98,1366285740
9314,17,Jits_Phase_5,3,5,80,127,1366296184
9314,17,Jits_Phase_5,0,1,48,36,1366698696
9314,17,Jits_Phase_5,1,5,63,98,1366736260
9314,17,Jits_Phase_5,2,5,80,127,1366776048
9314,17,Jits_Phase_5,3,5,56,103,1366815996
9314,17,Jits_Phase_5,0,1,48,33,1367198296
9314,17,Jits_Phase_5,1,5,56,103,1367236232
9314,17,Jits_Phase_5,2,5,63,98,1367316036
9314,17,Jits_Phase_5,3,5,80,127,1367319248
9314,17,Jits_Phase_5,0,1,48,37,1367705460
9314,17,Jits_Phase_5,1,5,80,127,1367796284
9314,17,Jits_Phase_5,2,5,56,103,1367825944
9314,17,Jits_Phase_5,3,5,63,98,1367828960
9314,17,Jits_Phase_5,0,1,48,31,1368230972
9314,17,Jits_Phase_5,1,5,56,103,1368255800
9314,17,Jits_Phase_5,2,5,80,127,1368276408
9314,17,Jits_Phase_5,3,5,63,98,1368316196
9314,17,Jits_Phase_5,0,5,80,127,1368736152
9314,17,Jits_Phase_5,1,1,48,39,1368743456
9314,17,Jits_Phase_5,2,5,63,98,1368755632
9314,17,Jits_Phase_5,3,5,56,103,1368816092
9314,17,Jits_Phase_5,0,1,48,40,1369225020
9314,17,Jits_Phase_5,1,5,63,98,1369246020
9314,17,Jits_Phase_5,2,5,56,103,1369256216
9314,17,Jits_Phase_5,3,5,80,127,1369305368
9314,17,Jits_Phase_5,0,5,56,103,1369735588
9314,17,Jits_Phase_5,1,1,48,45,1369738704
9314,17,Jits_Phase_5,2,5,63,98,1369755964
9314,17,Jits_Phase_5,3,5,80,127,1369766232
9314,17,Jits_Phase_5,0,5,56,103,1370226276
9314,17,Jits_Phase_5,1,5,63,98,1370229192
9314,17,Jits_Phase_5,2,1,48,39,1370234796
9314,17,Jits_Phase_5,3,5,80,127,1370245532
9314,17,Jits_Phase_5,0,1,48,39,1370704868
9314,17,Jits_Phase_5,1,5,63,98,1370765804
9314,17,Jits_Phase_5,2,5,56,103,1370796528
9314,17,Jits_Phase_5,3,5,80,127,1370825964
9314,17,Jits_Phase_5,0,1,48,40,1371206420
9314,17,Jits_Phase_5,1,5,80,127,1371225328
9314,17,Jits_Phase_5,2,5,56,103,1371315436
9314,17,Jits_Phase_5,3,5,63,98,1371318508
9314,17,Jits_Phase_5,0,5,56,103,1371726116
9314,17,Jits_Phase_5,1,5,80,127,1371729184
9314,17,Jits_Phase_5,2,1,48,44,1371731404
9314,17,Jits_Phase_5,3,5,63,98,1371806124
9314,17,Jits_Phase_5,0,1,48,41,1372220516
9314,17,Jits_Phase_5,1,5,80,127,1372226160
9314,17,Jits_Phase_5,2,5,63,98,1372286252
9314,17,Jits_Phase_5,3,5,56,103,1372315912
9314,17,Jits_Phase_5,0,1,48,36,1372719884
9314,17,Jits_Phase_5,1,5,63,98,1372725984
9314,17,Jits_Phase_5,2,5,80,127,1372736104
9314,17,Jits_Phase_5,3,5,56,103,1372805408
9314,17,Jits_Phase_5,0,1,48,41,1373194448
9314,17,Jits_Phase_5,1,5,56,103,1373286700
9314,17,Jits_Phase_5,2,5,80,127,1373315328
9314,17,Jits_Phase_5,3,5,63,98,1373365972
9314,17,Jits_Phase_5,0,1,48,42,1373735788
9314,17,Jits_Phase_5,1,5,63,98,1373875672
9314,17,Jits_Phase_5,2,5,56,103,1373906392
9314,17,Jits_Phase_5,3,5,80,127,1373909384
9314,17,Jits_Phase_5,0,1,48,33,1374321756
9314,17,Jits_Phase_5,1,5,63,98,1374376252
9314,17,Jits_Phase_5,2,5,80,127,1374395816
9314,17,Jits_Phase_5,3,5,56,103,1374405936
9314,17,Jits_Phase_5,0,1,48,36,1374810864
9314,17,Jits_Phase_5,1,5,56,103,1374886268
9314,17,Jits_Phase_5,2,5,63,98,1374889480
9314,17,Jits_Phase_5,3,5,80,127,1374905828
9314,17,Jits_Phase_5,0,1,48,32,1375333460
9314,17,Jits_Phase_5,1,5,56,103,1375336040
9314,17,Jits_Phase_5,2,5,63,98,1375346012
9314,17,Jits_Phase_5,3,5,80,127,1375375984
9314,17,Jits_Phase_5,0,1,48,35,1375842348
9314,17,Jits_Phase_5,1,5,63,98,1375856016
9314,17,Jits_Phase_5,2,5,80,127,1375875428
9314,17,Jits_Phase_5,3,5,56,103,1375916484
9314,17,Jits_Phase_5,0,1,48,34,1376355968
9314,17,Jits_Phase_5,1,5,56,103,1376386556
9314,17,Jits_Phase_5,2,5,63,98,1376426492
9314,17,Jits_Phase_5,3,5,80,127,1376429780
9314,17,Jits_Phase_5,0,5,80,127,1376825924
9314,17,Jits_Phase_5,1,5,56,103,1376865936
9314,17,Jits_Phase_5,2,1,48,35,1376880212
9314,17,Jits_Phase_5,3,5,63,98,1376915904
9314,17,Jits_Phase_5,0,1,48,32,1377318012
9314,17,Jits_Phase_5,1,5,56,103,1377385988
9314,17,Jits_Phase_5,2,5,80,127,1377395960
9314,17,Jits_Phase_5,3,5,63,98,1377426064
9314,17,Jits_Phase_5,0,5,56,103,1377836372
9314,17,Jits_Phase_5,1,1,48,35,1377850652
9314,17,Jits_Phase_5,2,5,80,127,1377876304
9314,17,Jits_Phase_5,3,5,63,98,1377925384
9314,17,Jits_Phase_5,0,1,48,28,1378310600
9314,17,Jits_Phase_5,1,5,56,103,1378336056
9314,17,Jits_Phase_5,2,5,80,127,1378376144
9314,17,Jits_Phase_5,3,5,63,98,1378426180
9314,17,Jits_Phase_5,0,5,80,127,1378825524
9314,17,Jits_Phase_5,1,1,48,34,1378827232
9314,17,Jits_Phase_5,2,5,63,98,1378905336
9314,17,Jits_Phase_5,3,5,56,103,1378915828
9314,17,Jits_Phase_5,0,1,48,27,1379357124
9314,17,Jits_Phase_5,1,5,80,127,1379375580
9314,17,Jits_Phase_5,2,5,56,103,1379385996
9314,17,Jits_Phase_5,3,5,63,98,1379406084
9314,17,Jits_Phase_5,0,5,63,98,1379845420
9314,17,Jits_Phase_5,1,1,48,36,1379862864
9314,17,Jits_Phase_5,2,5,56,103,1379916236
9314,17,Jits_Phase_5,3,5,80,127,1379919228
9314,17,Jits_Phase_5,0,5,80,127,1380335944
9314,17,Jits_Phase_5,1,1,48,30,1380347604
9314,17,Jits_Phase_5,2,5,63,98,1380386016
9314,17,Jits_Phase_5,3,5,56,103,1380426100
9314,17,Jits_Phase_5,0,1,48,36,1380828404
9314,17,Jits_Phase_5,1,5,63,98,1380875928
9314,17,Jits_Phase_5,2,5,56,103,1380915444
9314,17,Jits_Phase_5,3,5,80,127,1380926144
9314,17,Jits_Phase_5,0,1,48,34,1381313308
9314,17,Jits_Phase_5,1,5,63,98,1381366092
9314,17,Jits_Phase_5,2,5,56,103,1381385800
9314,17,Jits_Phase_5,3,5,80,127,1381406048
9314,17,Jits_Phase_5,0,5,80,127,1381825844
9314,17,Jits_Phase_5,1,1,48,37,1381830084
9314,17,Jits_Phase_5,2,5,56,103,1381836108
9314,17,Jits_Phase_5,3,5,63,98,1381855592
9314,17,Jits_Phase_5,0,1,48,32,1382286392
9314,17,Jits_Phase_5,1,5,63,98,1382356312
9314,17,Jits_Phase_5,2,5,56,103,1382396160
9314,17,Jits_Phase_5,3,5,80,127,1382425936
9314,17,Jits_Phase_5,0,5,56,103,1382815992
9314,17,Jits_Phase_5,1,1,48,33,1382817404
9314,17,Jits_Phase_5,2,5,63,98,1382845812
9314,17,Jits_Phase_5,3,5,80,127,1382875856
9314,17,Jits_Phase_5,0,5,80,127,1383235904
9314,17,Jits_Phase_5,1,1,48,33,1383288992
9314,17,Jits_Phase_5,2,5,56,103,1383305872
9314,17,Jits_Phase_5,3,5,63,98,1383308936
9314,17,Jits_Phase_5,0,5,56,103,1383745992
9314,17,Jits_Phase_5,1,1,48,37,1383786800
9314,17,Jits_Phase_5,2,5,63,98,1383796040
9314,17,Jits_Phase_5,3,5,80,127,1383825936
9314,17,Jits_Phase_5,0,1,48,36,1384225440
9314,17,Jits_Phase_5,1,5,63,98,1384227032
9314,17,Jits_Phase_5,2,5,80,127,1384230160
9314,17,Jits_Phase_5,3,5,56,103,1384285536
9314,17,Jits_Phase_5,0,1,48,34,1384727328
9314,17,Jits_Phase_5,1,5,56,103,1384755824
9314,17,Jits_Phase_5,2,5,80,127,1384765948
9314,17,Jits_Phase_5,3,5,63,98,1384815924
9314,17,Jits_Phase_5,0,5,63,98,1385225516
9314,17,Jits_Phase_5,1,1,48,27,1385231548
9314,17,Jits_Phase_5,2,5,56,103,1385235876
9314,17,Jits_Phase_5,3,5,80,127,1385265404
9314,17,Jits_Phase_5,0,1,48,37,1385700868
9314,17,Jits_Phase_5,1,5,63,98,1385755992
9314,17,Jits_Phase_5,2,5,80,127,1385759280
9314,17,Jits_Phase_5,3,5,56,103,1385785812
9314,17,Jits_Phase_5,0,1,48,34,1386224364
9314,17,Jits_Phase_5,1,5,63,98,1386276108
9314,17,Jits_Phase_5,2,5,56,103,1386295740
9314,17,Jits_Phase_5,3,5,80,127,1386298656
9314,17,Jits_Phase_5,0,1,48,37,1386716464
9314,17,Jits_Phase_5,1,5,63,98,1386735892
9314,17,Jits_Phase_5,2,5,56,103,1386805744
9314,17,Jits_Phase_5,3,5,80,127,1386825964
9314,17,Jits_Phase_5,0,5,56,103,1387225380
9314,17,Jits_Phase_5,1,5,63,98,1387235648
9314,17,Jits_Phase_5,2,1,48,36,1387248660
9314,17,Jits_Phase_5,3,5,80,127,1387325944
9314,17,Jits_Phase_5,0,1,48,36,1387715516
9314,17,Jits_Phase_5,1,5,56,103,1387745660
9314,17,Jits_Phase_5,2,5,80,127,1387785672
9314,17,Jits_Phase_5,3,5,63,98,1387795820
9314,17,Jits_Phase_5,0,1,48,25,1388207920
9314,17,Jits_Phase_5,1,5,56,103,1388265864
9314,17,Jits_Phase_5,2,5,63,98,1388295688
9314,17,Jits_Phase_5,3,5,80,127,1388326196
9314,17,Jits_Phase_5,0,1,48,35,1388713060
9314,17,Jits_Phase_5,1,5,80,127,1388725684
9314,17,Jits_Phase_5,2,5,63,98,1388765920
9314,17,Jits_Phase_5,3,5,56,103,1388785932
9314,17,Jits_Phase_5,0,1,48,27,1389234172
9314,17,Jits_Phase_5,1,5,56,103,1389266260
9314,17,Jits_Phase_5,2,5,80,127,1389285820
9314,17,Jits_Phase_5,3,5,63,98,1389306128
9314,17,Jits_Phase_5,0,1,48,31,1389719756
9314,17,Jits_Phase_5,1,5,63,98,1389736340
9314,17,Jits_Phase_5,2,5,56,103,1389745640
9314,17,Jits_Phase_5,3,5,80,127,1389805880
9314,17,Jits_Phase_5,0,1,48,27,1390194868
9314,17,Jits_Phase_5,1,5,56,103,1390236016
9314,17,Jits_Phase_5,2,5,63,98,1390305680
9314,17,Jits_Phase_5,3,5,80,127,1390326064
9314,17,Jits_Phase_5,0,1,48,26,1390718284
9314,17,Jits_Phase_5,1,5,56,103,1390735616
9314,17,Jits_Phase_5,2,5,63,98,1390765292
9314,17,Jits_Phase_5,3,5,80,127,1390806496
9314,17,Jits_Phase_5,0,1,48,27,1391196828
9314,17,Jits_Phase_5,1,5,63,98,1391226224
9314,17,Jits_Phase_5,2,5,56,103,1391276648
9314,17,Jits_Phase_5,3,5,80,127,1391285724
9314,17,Jits_Phase_5,0,1,48,28,1391698448
9314,17,Jits_Phase_5,1,5,56,103,1391765904
9314,17,Jits_Phase_5,2,5,63,98,1391816016
9314,17,Jits_Phase_5,3,5,80,127,1391826360
9314,17,Jits_Phase_5,0,1,48,31,1392206820
9314,17,Jits_Phase_5,1,5,56,103,1392235768
9314,17,Jits_Phase_5,2,5,63,98,1392246112
9314,17,Jits_Phase_5,3,5,80,127,1392325960
9314,17,Jits_Phase_5,0,9999,9999,9999,1307993180
9314,17,Jits_Phase_5,1,9999,9999,9999,1308493936
9314,17,Jits_Phase_5,2,9999,9999,9999,1308993644
9314,17,Jits_Phase_5,3,9999,9999,9999,1309493316
9314,17,Jits_Phase_5,4,9999,9999,9999,1309994044
9314,17,Jits_Phase_5,5,9999,9999,9999,1310493800
9314,17,Jits_Phase_5,6,9999,9999,9999,1310993524
9314,17,Jits_Phase_5,7,9999,9999,9999,1311493196
9314,17,Jits_Phase_5,8,9999,9999,9999,1311993912
9314,17,Jits_Phase_5,9,9999,9999,9999,1312493660
9314,17,Jits_Phase_5,10,9999,9999,9999,1312993336
9314,17,Jits_Phase_5,11,9999,9999,9999,1313494128
9314,17,Jits_Phase_5,12,9999,9999,9999,1314004060
9314,17,Jits_Phase_5,13,9999,9999,9999,1314503808
9314,17,Jits_Phase_5,14,9999,9999,9999,1315003464
9314,17,Jits_Phase_5,15,9999,9999,9999,1315503212
9314,17,Jits_Phase_5,16,9999,9999,9999,1316003928
9314,17,Jits_Phase_5,17,9999,9999,9999,1316503676
9314,17,Jits_Phase_5,18,9999,9999,9999,1317003348
9314,17,Jits_Phase_5,19,9999,9999,9999,1317504068
9314,17,Jits_Phase_5,20,9999,9999,9999,1318014076
9314,17,Jits_Phase_5,21,9999,9999,9999,1318513752
9314,17,Jits_Phase_5,22,9999,9999,9999,1319013500
9314,17,Jits_Phase_5,23,9999,9999,9999,1319513172
9314,17,Jits_Phase_5,24,9999,9999,9999,1320013896
9314,17,Jits_Phase_5,25,9999,9999,9999,1320513636
9314,17,Jits_Phase_5,26,9999,9999,9999,1321013312
9314,17,Jits_Phase_5,27,9999,9999,9999,1321514080
9314,17,Jits_Phase_5,28,9999,9999,9999,1322013760
9314,17,Jits_Phase_5,29,9999,9999,9999,1322513480
9314,17,Jits_Phase_5,30,9999,9999,9999,1323004008
9314,17,Jits_Phase_5,31,9999,9999,9999,1323503684
9314,17,Jits_Phase_5,32,9999,9999,9999,1324003428
9314,17,Jits_Phase_5,33,9999,9999,9999,1324503104
9314,17,Jits_Phase_5,34,9999,9999,9999,1325003900
9314,17,Jits_Phase_5,35,9999,9999,9999,1325503576
9314,17,Jits_Phase_5,36,9999,9999,9999,1326003312
9314,17,Jits_Phase_5,37,9999,9999,9999,1326504032
9314,17,Jits_Phase_5,38,9999,9999,9999,1327003708
9314,17,Jits_Phase_5,39,9999,9999,9999,1327503460
9314,17,Jits_Phase_5,40,9999,9999,9999,1328003136
9314,17,Jits_Phase_5,41,9999,9999,9999,1328503924
9314,17,Jits_Phase_5,42,9999,9999,9999,1329003596
9314,17,Jits_Phase_5,43,9999,9999,9999,1329503340
9314,17,Jits_Phase_5,44,9999,9999,9999,1330004060
9314,17,Jits_Phase_5,45,9999,9999,9999,1330503804
9314,17,Jits_Phase_5,46,9999,9999,9999,1331003480
9314,17,Jits_Phase_5,47,9999,9999,9999,1331503160
9314,17,Jits_Phase_5,48,9999,9999,9999,1332013176
9314,17,Jits_Phase_5,49,9999,9999,9999,1332513904
9314,17,Jits_Phase_5,50,9999,9999,9999,1333013564
9314,17,Jits_Phase_5,51,9999,9999,9999,1333513288
9314,17,Jits_Phase_5,52,9999,9999,9999,1334014012
9314,17,Jits_Phase_5,53,9999,9999,9999,1334513764
9314,17,Jits_Phase_5,54,9999,9999,9999,1335013440
9314,17,Jits_Phase_5,55,9999,9999,9999,1335513192
9314,17,Jits_Phase_5,56,9999,9999,9999,1336013916
9314,17,Jits_Phase_5,57,9999,9999,9999,1336513656
9314,17,Jits_Phase_5,58,9999,9999,9999,1337013332
9314,17,Jits_Phase_5,59,9999,9999,9999,1337514040
9314,17,Jits_Phase_5,60,9999,9999,9999,1338013792
9314,17,Jits_Phase_5,61,9999,9999,9999,1338513464
9314,17,Jits_Phase_5,62,9999,9999,9999,1339013212
9314,17,Jits_Phase_5,63,9999,9999,9999,1339513932
9314,17,Jits_Phase_5,64,9999,9999,9999,1340033084
9314,17,Jits_Phase_5,65,9999,9999,9999,1340533876
9314,17,Jits_Phase_5,66,9999,9999,9999,1341033556
9314,17,Jits_Phase_5,67,9999,9999,9999,1341533288
9314,17,Jits_Phase_5,68,9999,9999,9999,1342034016
9314,17,Jits_Phase_5,69,9999,9999,9999,1342533692
9314,17,Jits_Phase_5,70,9999,9999,9999,1343033424
9314,17,Jits_Phase_5,71,9999,9999,9999,1343533172
9314,17,Jits_Phase_5,72,9999,9999,9999,1344033892
9314,17,Jits_Phase_5,73,9999,9999,9999,1344533564
9314,17,Jits_Phase_5,74,9999,9999,9999,1345033284
9314,17,Jits_Phase_5,75,9999,9999,9999,1345534076
9314,17,Jits_Phase_5,76,9999,9999,9999,1346033752
9314,17,Jits_Phase_5,77,9999,9999,9999,1346533500
9314,17,Jits_Phase_5,78,9999,9999,9999,1347033172
9314,17,Jits_Phase_5,79,9999,9999,9999,1347533896
9314,17,Jits_Phase_5,80,9999,9999,9999,1348033644
9314,17,Jits_Phase_5,81,9999,9999,9999,1348513912
9314,17,Jits_Phase_5,82,9999,9999,9999,1349013588
9314,17,Jits_Phase_5,83,9999,9999,9999,1349513336
9314,17,Jits_Phase_5,84,9999,9999,9999,1350014060
9314,17,Jits_Phase_5,85,9999,9999,9999,1350513728
9314,17,Jits_Phase_5,86,9999,9999,9999,1351013472
9314,17,Jits_Phase_5,87,9999,9999,9999,1351513144
9314,17,Jits_Phase_5,88,9999,9999,9999,1352013944
9314,17,Jits_Phase_5,89,9999,9999,9999,1352513616
9314,17,Jits_Phase_5,90,9999,9999,9999,1353013364
9314,17,Jits_Phase_5,91,9999,9999,9999,1353514080
9314,17,Jits_Phase_5,92,9999,9999,9999,1354013816
9314,17,Jits_Phase_5,93,9999,9999,9999,1354513464
9314,17,Jits_Phase_5,94,9999,9999,9999,1355013204
9314,17,Jits_Phase_5,95,9999,9999,9999,1355513924
9314,17,Jits_Phase_5,96,9999,9999,9999,1356013664
9314,17,Jits_Phase_5,97,9999,9999,9999,1356463216
9314,17,Jits_Phase_5,98,9999,9999,9999,1356963940
9314,17,Jits_Phase_5,99,9999,9999,9999,1357463612
9314,17,Jits_Phase_5,100,9999,9999,9999,1357963360
9314,17,Jits_Phase_5,101,9999,9999,9999,1358464084
9314,17,Jits_Phase_5,102,9999,9999,9999,1358974008
9314,17,Jits_Phase_5,103,9999,9999,9999,1359473764
9314,17,Jits_Phase_5,104,9999,9999,9999,1359973436
9314,17,Jits_Phase_5,105,9999,9999,9999,1360473176
9314,17,Jits_Phase_5,106,9999,9999,9999,1360973896
9314,17,Jits_Phase_5,107,9999,9999,9999,1361473644
9314,17,Jits_Phase_5,108,9999,9999,9999,1361973312
9314,17,Jits_Phase_5,109,9999,9999,9999,1362474104
9314,17,Jits_Phase_5,110,9999,9999,9999,1362973756
9314,17,Jits_Phase_5,111,9999,9999,9999,1363473476
9314,17,Jits_Phase_5,112,9999,9999,9999,1363973220
9314,17,Jits_Phase_5,113,9999,9999,9999,1364473940
9314,17,Jits_Phase_5,114,9999,9999,9999,1365023832
9314,17,Jits_Phase_5,115,9999,9999,9999,1365523568
9314,17,Jits_Phase_5,116,9999,9999,9999,1366023292
9314,17,Jits_Phase_5,117,9999,9999,9999,1366524012
9314,17,Jits_Phase_5,118,9999,9999,9999,1367023684
9314,17,Jits_Phase_5,119,9999,9999,9999,1367523428
9314,17,Jits_Phase_5,120,9999,9999,9999,1368023100
9314,17,Jits_Phase_5,121,9999,9999,9999,1368523896
9314,17,Jits_Phase_5,122,9999,9999,9999,1369023568
9314,17,Jits_Phase_5,123,9999,9999,9999,1369523256
9314,17,Jits_Phase_5,124,9999,9999,9999,1370024044
9314,17,Jits_Phase_5,125,9999,9999,9999,1370523720
9314,17,Jits_Phase_5,126,9999,9999,9999,1371023488
9314,17,Jits_Phase_5,127,9999,9999,9999,1371523156
9314,17,Jits_Phase_5,128,9999,9999,9999,1372023864
9314,17,Jits_Phase_5,129,9999,9999,9999,1372523624
9314,17,Jits_Phase_5,130,9999,9999,9999,1373023296
9314,17,Jits_Phase_5,131,9999,9999,9999,1373623356
9314,17,Jits_Phase_5,132,9999,9999,9999,1374123100
9314,17,Jits_Phase_5,133,9999,9999,9999,1374623824
9314,17,Jits_Phase_5,134,9999,9999,9999,1375123564
9314,17,Jits_Phase_5,135,9999,9999,9999,1375623236
9314,17,Jits_Phase_5,136,9999,9999,9999,1376123960
9314,17,Jits_Phase_5,137,9999,9999,9999,1376623708
9314,17,Jits_Phase_5,138,9999,9999,9999,1377123456
9314,17,Jits_Phase_5,139,9999,9999,9999,1377623148
9314,17,Jits_Phase_5,140,9999,9999,9999,1378123864
9314,17,Jits_Phase_5,141,9999,9999,9999,1378623556
9314,17,Jits_Phase_5,142,9999,9999,9999,1379123304
9314,17,Jits_Phase_5,143,9999,9999,9999,1379624044
9314,17,Jits_Phase_5,144,9999,9999,9999,1380123712
9314,17,Jits_Phase_5,145,9999,9999,9999,1380623436
9314,17,Jits_Phase_5,146,9999,9999,9999,1381123200
9314,17,Jits_Phase_5,147,9999,9999,9999,1381623924
9314,17,Jits_Phase_5,148,9999,9999,9999,1382123596
9314,17,Jits_Phase_5,149,9999,9999,9999,1382623288
9314,17,Jits_Phase_5,150,9999,9999,9999,1383023704
9314,17,Jits_Phase_5,151,9999,9999,9999,1383523384
9314,17,Jits_Phase_5,152,9999,9999,9999,1384023152
9314,17,Jits_Phase_5,153,9999,9999,9999,1384523872
9314,17,Jits_Phase_5,154,9999,9999,9999,1385023548
9314,17,Jits_Phase_5,155,9999,9999,9999,1385523288
9314,17,Jits_Phase_5,156,9999,9999,9999,1386024000
9314,17,Jits_Phase_5,157,9999,9999,9999,1386523740
9314,17,Jits_Phase_5,158,9999,9999,9999,1387023464
9314,17,Jits_Phase_5,159,9999,9999,9999,1387523132
9314,17,Jits_Phase_5,160,9999,9999,9999,1388023868
9314,17,Jits_Phase_5,161,9999,9999,9999,1388523624
9314,17,Jits_Phase_5,162,9999,9999,9999,1389023296
9314,17,Jits_Phase_5,163,9999,9999,9999,1389524088
9314,17,Jits_Phase_5,164,9999,9999,9999,1390023764
9314,17,Jits_Phase_5,165,9999,9999,9999,1390523516
9314,17,Jits_Phase_5,166,9999,9999,9999,1391023188
9314,17,Jits_Phase_5,167,9999,9999,9999,1391523912
9314,17,Jits_Phase_5,168,9999,9999,9999,1392023664
9314,17,Jits_Phase_5,169,9999,9999,9999,1392523336
9315,15,Jits_Phase_8,0,5,56,103,1430482316
9315,15,Jits_Phase_8,1,5,63,98,1430485416
9315,15,Jits_Phase_8,2,5,80,127,1430488464
9315,15,Jits_Phase_8,0,5,56,103,1431282036
9315,15,Jits_Phase_8,1,5,63,98,1431285212
9315,15,Jits_Phase_8,2,5,80,127,1431288180
9315,15,Jits_Phase_8,3,1,48,42,1431512552
9315,15,Jits_Phase_8,0,5,80,127,1432031680
9315,15,Jits_Phase_8,1,1,48,48,1432042524
9315,15,Jits_Phase_8,2,5,63,98,1432121908
9315,15,Jits_Phase_8,3,5,56,103,1432132176
9315,15,Jits_Phase_8,0,1,48,40,1432818976
9315,15,Jits_Phase_8,1,5,56,103,1432852000
9315,15,Jits_Phase_8,2,5,63,98,1432862048
9315,15,Jits_Phase_8,3,5,80,127,1432952236
9315,15,Jits_Phase_8,0,5,63,98,1433622020
9315,15,Jits_Phase_8,1,1,48,43,1433625068
9315,15,Jits_Phase_8,2,5,80,127,1433651468
9315,15,Jits_Phase_8,3,5,56,103,1433682264
9315,15,Jits_Phase_8,0,5,56,103,1434421700
9315,15,Jits_Phase_8,1,1,48,40,1434469160
9315,15,Jits_Phase_8,2,5,80,127,1434522016
9315,15,Jits_Phase_8,3,5,63,98,1434572200
9315,15,Jits_Phase_8,0,5,56,103,1435222364
9315,15,Jits_Phase_8,1,5,80,127,1435271668
9315,15,Jits_Phase_8,2,1,48,47,1435288268
9315,15,Jits_Phase_8,3,5,63,98,1435311600
9315,15,Jits_Phase_8,0,1,48,43,1435991908
9315,15,Jits_Phase_8,1,5,80,127,1436051800
9315,15,Jits_Phase_8,2,5,63,98,1436081476
9315,15,Jits_Phase_8,3,5,56,103,1436152260
9315,15,Jits_Phase_8,0,1,48,50,1436789336
9315,15,Jits_Phase_8,1,5,63,98,1436882276
9315,15,Jits_Phase_8,2,5,56,103,1436912012
9315,15,Jits_Phase_8,3,5,80,127,1436972352
9315,15,Jits_Phase_8,0,5,56,103,1437621584
9315,15,Jits_Phase_8,1,5,80,127,1437624580
9315,15,Jits_Phase_8,2,1,48,39,1437635720
9315,15,Jits_Phase_8,3,5,63,98,1437741384
9315,15,Jits_Phase_8,0,1,48,46,1438379140
9315,15,Jits_Phase_8,1,5,56,103,1438502336
9315,15,Jits_Phase_8,2,5,80,127,1438542128
9315,15,Jits_Phase_8,3,5,63,98,1438552400
9315,15,Jits_Phase_8,0,1,48,39,1439190960
9315,15,Jits_Phase_8,1,5,56,103,1439262112
9315,15,Jits_Phase_8,2,5,80,127,1439282556
9315,15,Jits_Phase_8,3,5,63,98,1439362424
9315,15,Jits_Phase_8,0,1,48,40,1439989208
9315,15,Jits_Phase_8,1,5,80,127,1440051680
9315,15,Jits_Phase_8,2,5,56,103,1440151992
9315,15,Jits_Phase_8,3,5,63,98,1440162112
9315,15,Jits_Phase_8,0,1,48,44,1440804292
9315,15,Jits_Phase_8,1,5,63,98,1440821556
9315,15,Jits_Phase_8,2,5,80,127,1440882168
9315,15,Jits_Phase_8,3,5,56,103,1440892364
9315,15,Jits_Phase_8,0,1,48,34,1441574972
9315,15,Jits_Phase_8,1,5,56,103,1441622420
9315,15,Jits_Phase_8,2,5,63,98,1441692160
9315,15,Jits_Phase_8,3,5,80,127,1441695304
9315,15,Jits_Phase_8,0,1,48,36,1442337100
9315,15,Jits_Phase_8,1,5,63,98,1442452048
9315,15,Jits_Phase_8,2,5,56,103,1442501952
9315,15,Jits_Phase_8,3,5,80,127,1442505020
9315,15,Jits_Phase_8,0,1,48,40,1443149204
9315,15,Jits_Phase_8,1,5,56,103,1443211724
9315,15,Jits_Phase_8,2,5,80,127,1443214940
9315,15,Jits_Phase_8,3,5,63,98,1443301840
9315,15,Jits_Phase_8,0,1,48,31,1443887216
9315,15,Jits_Phase_8,1,5,63,98,1444052432
9315,15,Jits_Phase_8,2,5,56,103,1444141396
9315,15,Jits_Phase_8,3,5,80,127,1444172120
9315,15,Jits_Phase_8,0,1,48,35,1444719484
9315,15,Jits_Phase_8,1,5,56,103,1444842080
9315,15,Jits_Phase_8,2,5,63,98,1444942132
9315,15,Jits_Phase_8,3,5,80,127,1444971956
9315,15,Jits_Phase_8,0,1,48,45,1445472132
9315,15,Jits_Phase_8,1,5,63,98,1445662024
9315,15,Jits_Phase_8,2,5,56,103,1445672296
9315,15,Jits_Phase_8,3,5,80,127,1445762352
9315,15,Jits_Phase_8,0,1,48,45,1446248356
9315,15,Jits_Phase_8,1,5,63,98,1446482164
9315,15,Jits_Phase_8,2,5,56,103,1446562108
9315,15,Jits_Phase_8,3,5,80,127,1446565176
9315,15,Jits_Phase_8,0,1,48,40,1447013880
9315,15,Jits_Phase_8,1,5,80,127,1447242060
9315,15,Jits_Phase_8,2,5,63,98,1447261548
9315,15,Jits_Phase_8,3,5,56,103,1447321936
9315,15,Jits_Phase_8,0,1,48,39,1447808976
9315,15,Jits_Phase_8,1,5,56,103,1448081968
9315,15,Jits_Phase_8,2,5,63,98,1448102120
9315,15,Jits_Phase_8,3,5,80,127,1448105864
9315,15,Jits_Phase_8,0,1,48,40,1448624320
9315,15,Jits_Phase_8,1,5,63,98,1448822004
9315,15,Jits_Phase_8,2,5,80,127,1448901948
9315,15,Jits_Phase_8,3,5,56,103,1448912292
9315,15,Jits_Phase_8,0,1,48,37,1449557304
9315,15,Jits_Phase_8,1,5,63,98,1449642300
9315,15,Jits_Phase_8,2,5,56,103,1449661920
9315,15,Jits_Phase_8,3,5,80,127,1449711972
9315,15,Jits_Phase_8,0,1,48,31,1450417820
9315,15,Jits_Phase_8,1,5,80,127,1450441980
9315,15,Jits_Phase_8,2,5,63,98,1450481996
9315,15,Jits_Phase_8,3,5,56,103,1450501480
9315,15,Jits_Phase_8,0,1,48,41,1451227468
9315,15,Jits_Phase_8,1,5,56,103,1451281916
9315,15,Jits_Phase_8,2,5,63,98,1451292116
9315,15,Jits_Phase_8,3,5,80,127,1451311452
9315,15,Jits_Phase_8,0,5,56,103,1452011756
9315,15,Jits_Phase_8,1,1,48,38,1452051840
9315,15,Jits_Phase_8,2,5,63,98,1452101984
9315,15,Jits_Phase_8,3,5,80,127,1452162284
9315,15,Jits_Phase_8,0,1,48,38,1452799052
9315,15,Jits_Phase_8,1,5,80,127,1452842488
9315,15,Jits_Phase_8,2,5,56,103,1452851860
9315,15,Jits_Phase_8,3,5,63,98,1452922124
9315,15,Jits_Phase_8,0,1,48,44,1453589932
9315,15,Jits_Phase_8,1,5,63,98,1453671916
9315,15,Jits_Phase_8,2,5,80,127,1453761888
9315,15,Jits_Phase_8,3,5,56,103,1453772084
9315,15,Jits_Phase_8,0,5,63,98,1454401852
9315,15,Jits_Phase_8,1,1,48,36,1454434944
9315,15,Jits_Phase_8,2,5,80,127,1454452124
9315,15,Jits_Phase_8,3,5,56,103,1454511692
9315,15,Jits_Phase_8,0,1,48,41,1455177296
9315,15,Jits_Phase_8,1,5,56,103,1455221984
9315,15,Jits_Phase_8,2,5,80,127,1455272408
9315,15,Jits_Phase_8,3,5,63,98,1455291880
9315,15,Jits_Phase_8,0,1,48,41,1455910904
9315,15,Jits_Phase_8,1,5,56,103,1455992292
9315,15,Jits_Phase_8,2,5,80,127,1456051700
9315,15,Jits_Phase_8,3,5,63,98,1456122276
9315,15,Jits_Phase_8,0,1,48,40,1456693200
9315,15,Jits_Phase_8,1,5,56,103,1456802152
9315,15,Jits_Phase_8,2,5,80,127,1456831752
9315,15,Jits_Phase_8,3,5,63,98,1456861724
9315,15,Jits_Phase_8,0,1,48,40,1457485308
9315,15,Jits_Phase_8,1,5,56,103,1457652028
9315,15,Jits_Phase_8,2,5,80,127,1457671812
9315,15,Jits_Phase_8,3,5,63,98,1457731852
9315,15,Jits_Phase_8,0,1,48,33,1458311964
9315,15,Jits_Phase_8,1,5,80,127,1458531896
9315,15,Jits_Phase_8,2,5,56,103,1458541872
9315,15,Jits_Phase_8,3,5,63,98,1458552140
9315,15,Jits_Phase_8,0,1,48,33,1459206652
9315,15,Jits_Phase_8,1,5,56,103,1459291744
9315,15,Jits_Phase_8,2,5,80,127,1459331520
9315,15,Jits_Phase_8,3,5,63,98,1459362020
9315,15,Jits_Phase_8,0,1,48,42,1460039868
9315,15,Jits_Phase_8,1,5,56,103,1460061540
9315,15,Jits_Phase_8,2,5,63,98,1460092260
9315,15,Jits_Phase_8,3,5,80,127,1460132200
9315,15,Jits_Phase_8,0,5,80,127,1460812072
9315,15,Jits_Phase_8,1,1,48,36,1460817732
9315,15,Jits_Phase_8,2,5,63,98,1460862268
9315,15,Jits_Phase_8,3,5,56,103,1460881832
9315,15,Jits_Phase_8,0,1,48,31,1461574340
9315,15,Jits_Phase_8,1,5,56,103,1461641580
9315,15,Jits_Phase_8,2,5,80,127,1461712440
9315,15,Jits_Phase_8,3,5,63,98,1461771632
9315,15,Jits_Phase_8,0,1,48,40,1462401604
9315,15,Jits_Phase_8,1,5,80,127,1462442388
9315,15,Jits_Phase_8,2,5,63,98,1462531460
9315,15,Jits_Phase_8,3,5,56,103,1462551868
9315,15,Jits_Phase_8,0,1,48,43,1463220772
9315,15,Jits_Phase_8,1,5,63,98,1463261476
9315,15,Jits_Phase_8,2,5,56,103,1463282160
9315,15,Jits_Phase_8,3,5,80,127,1463322032
9315,15,Jits_Phase_8,0,5,80,127,1464022652
9315,15,Jits_Phase_8,1,1,48,31,1464029380
9315,15,Jits_Phase_8,2,5,63,98,1464041836
9315,15,Jits_Phase_8,3,5,56,103,1464121800
9315,15,Jits_Phase_8,0,1,48,41,1464768360
9315,15,Jits_Phase_8,1,5,63,98,1464811852
9315,15,Jits_Phase_8,2,5,56,103,1464921620
9315,15,Jits_Phase_8,3,5,80,127,1464924688
9315,15,Jits_Phase_8,0,1,48,37,1465529612
9315,15,Jits_Phase_8,1,5,63,98,1465632136
9315,15,Jits_Phase_8,2,5,56,103,1465642628
9315,15,Jits_Phase_8,3,5,80,127,1465645624
9315,15,Jits_Phase_8,0,5,56,103,1466412492
9315,15,Jits_Phase_8,1,1,48,40,1466422512
9315,15,Jits_Phase_8,2,5,80,127,1466532196
9315,15,Jits_Phase_8,3,5,63,98,1466572060
9315,15,Jits_Phase_8,0,5,56,103,1467231592
9315,15,Jits_Phase_8,1,1,48,52,1467235536
9315,15,Jits_Phase_8,2,5,80,127,1467311680
9315,15,Jits_Phase_8,3,5,63,98,1467331916
9315,15,Jits_Phase_8,0,1,48,49,1468020548
9315,15,Jits_Phase_8,1,5,56,103,1468032404
9315,15,Jits_Phase_8,2,5,63,98,1468141928
9315,15,Jits_Phase_8,3,5,80,127,1468145516
9315,15,Jits_Phase_8,0,1,48,45,1468799304
9315,15,Jits_Phase_8,1,5,56,103,1468872016
9315,15,Jits_Phase_8,2,5,80,127,1468901676
9315,15,Jits_Phase_8,3,5,63,98,1468922212
9315,15,Jits_Phase_8,0,1,48,46,1469538076
9315,15,Jits_Phase_8,1,5,63,98,1469661496
9315,15,Jits_Phase_8,2,5,56,103,1469671916
9315,15,Jits_Phase_8,3,5,80,127,1469682112
9315,15,Jits_Phase_8,0,1,48,50,1470331924
9315,15,Jits_Phase_8,1,5,80,127,1470452032
9315,15,Jits_Phase_8,2,5,56,103,1470502184
9315,15,Jits_Phase_8,3,5,63,98,1470542196
9315,15,Jits_Phase_8,0,1,48,42,1471198500
9315,15,Jits_Phase_8,1,5,80,127,1471272656
9315,15,Jits_Phase_8,2,5,63,98,1471291620
9315,15,Jits_Phase_8,3,5,56,103,1471341880
9315,15,Jits_Phase_8,0,1,48,40,1472008596
9315,15,Jits_Phase_8,1,5,80,127,1472082452
9315,15,Jits_Phase_8,2,5,56,103,1472111892
9315,15,Jits_Phase_8,3,5,63,98,1472181572
9315,15,Jits_Phase_8,0,1,48,36,1472780352
9315,15,Jits_Phase_8,1,5,56,103,1472932176
9315,15,Jits_Phase_8,2,5,80,127,1472941624
9315,15,Jits_Phase_8,3,5,63,98,1472982456
9315,15,Jits_Phase_8,0,1,48,31,1473553612
9315,15,Jits_Phase_8,1,5,56,103,1473641972
9315,15,Jits_Phase_8,2,5,63,98,1473662492
9315,15,Jits_Phase_8,3,5,80,127,1473731948
9315,15,Jits_Phase_8,0,1,48,41,1474353888
9315,15,Jits_Phase_8,1,5,63,98,1474462016
9315,15,Jits_Phase_8,2,5,80,127,1474521508
9315,15,Jits_Phase_8,3,5,56,103,1474541892
9315,15,Jits_Phase_8,0,1,48,34,1475123076
9315,15,Jits_Phase_8,1,5,80,127,1475251512
9315,15,Jits_Phase_8,2,5,56,103,1475282456
9315,15,Jits_Phase_8,3,5,63,98,1475311908
9315,15,Jits_Phase_8,0,1,48,39,1475913168
9315,15,Jits_Phase_8,1,5,56,103,1476052532
9315,15,Jits_Phase_8,2,5,63,98,1476111608
9315,15,Jits_Phase_8,3,5,80,127,1476172072
9315,15,Jits_Phase_8,0,1,48,36,1476676432
9315,15,Jits_Phase_8,1,5,80,127,1476871548
9315,15,Jits_Phase_8,2,5,56,103,1476892032
9315,15,Jits_Phase_8,3,5,63,98,1476961636
9315,15,Jits_Phase_8,0,1,48,32,1477594420
9315,15,Jits_Phase_8,1,5,80,127,1477672316
9315,15,Jits_Phase_8,2,5,63,98,1477691716
9315,15,Jits_Phase_8,3,5,56,103,1477721540
9315,15,Jits_Phase_8,0,1,48,31,1478381368
9315,15,Jits_Phase_8,1,5,80,127,1478461808
9315,15,Jits_Phase_8,2,5,63,98,1478482548
9315,15,Jits_Phase_8,3,5,56,103,1478541892
9315,15,Jits_Phase_8,0,1,48,39,1479167256
9315,15,Jits_Phase_8,1,5,80,127,1479261476
9315,15,Jits_Phase_8,2,5,56,103,1479361872
9315,15,Jits_Phase_8,3,5,63,98,1479391548
9315,15,Jits_Phase_8,0,1,48,40,1479990200
9315,15,Jits_Phase_8,1,5,63,98,1480052260
9315,15,Jits_Phase_8,2,5,80,127,1480102744
9315,15,Jits_Phase_8,3,5,56,103,1480121784
9315,15,Jits_Phase_8,0,1,48,38,1480770552
9315,15,Jits_Phase_8,1,5,80,127,1480891712
9315,15,Jits_Phase_8,2,5,56,103,1480921460
9315,15,Jits_Phase_8,3,5,63,98,1480924380
9315,15,Jits_Phase_8,0,1,48,42,1481619832
9315,15,Jits_Phase_8,1,5,63,98,1481741584
9315,15,Jits_Phase_8,2,5,56,103,1481781524
9315,15,Jits_Phase_8,3,5,80,127,1481802280
9315,15,Jits_Phase_8,0,5,80,127,1482501408
9315,15,Jits_Phase_8,1,1,48,39,1482544264
9315,15,Jits_Phase_8,2,5,63,98,1482582344
9315,15,Jits_Phase_8,3,5,56,103,1482622356
9315,15,Jits_Phase_8,0,1,48,41,1483321888
9315,15,Jits_Phase_8,1,5,63,98,1483323300
9315,15,Jits_Phase_8,2,5,80,127,1483401456
9315,15,Jits_Phase_8,3,5,56,103,1483422344
9315,15,Jits_Phase_8,0,1,48,32,1484073592
9315,15,Jits_Phase_8,1,5,56,103,1484162404
9315,15,Jits_Phase_8,2,5,63,98,1484171836
9315,15,Jits_Phase_8,3,5,80,127,1484211548
9315,15,Jits_Phase_8,0,5,56,103,1484882372
9315,15,Jits_Phase_8,1,1,48,36,1484884108
9315,15,Jits_Phase_8,2,5,80,127,1484886408
9315,15,Jits_Phase_8,3,5,63,98,1485021404
9315,15,Jits_Phase_8,0,1,48,47,1485630560
9315,15,Jits_Phase_8,1,5,56,103,1485671712
9315,15,Jits_Phase_8,2,5,63,98,1485761832
9315,15,Jits_Phase_8,3,5,80,127,1485831588
9315,15,Jits_Phase_8,0,1,48,32,1486425144
9315,15,Jits_Phase_8,1,5,63,98,1486552444
9315,15,Jits_Phase_8,2,5,80,127,1486555660
9315,15,Jits_Phase_8,3,5,56,103,1486611736
9315,15,Jits_Phase_8,0,1,48,44,1487196116
9315,15,Jits_Phase_8,1,5,80,127,1487392228
9315,15,Jits_Phase_8,2,5,56,103,1487411492
9315,15,Jits_Phase_8,3,5,63,98,1487421764
9315,15,Jits_Phase_8,0,1,48,38,1488020396
9315,15,Jits_Phase_8,1,5,56,103,1488101708
9315,15,Jits_Phase_8,2,5,63,98,1488112276
9315,15,Jits_Phase_8,3,5,80,127,1488181668
9315,15,Jits_Phase_8,0,1,48,39,1488750320
9315,15,Jits_Phase_8,1,5,80,127,1488901524
9315,15,Jits_Phase_8,2,5,56,103,1488951600
9315,15,Jits_Phase_8,3,5,63,98,1489001800
9315,15,Jits_Phase_8,0,1,48,36,1489511716
9315,15,Jits_Phase_8,1,5,56,103,1489782220
9315,15,Jits_Phase_8,2,5,63,98,1489792416
9315,15,Jits_Phase_8,3,5,80,127,1489832280
9315,15,Jits_Phase_8,0,1,48,36,1490391720
9315,15,Jits_Phase_8,1,5,56,103,1490521524
9315,15,Jits_Phase_8,2,5,63,98,1490562360
9315,15,Jits_Phase_8,3,5,80,127,1490611660
9315,15,Jits_Phase_8,0,1,48,28,1491264172
9315,15,Jits_Phase_8,1,5,80,127,1491282180
9315,15,Jits_Phase_8,2,5,56,103,1491331560
9315,15,Jits_Phase_8,3,5,63,98,1491352016
9315,15,Jits_Phase_8,0,1,48,31,1492082280
9315,15,Jits_Phase_8,1,5,80,127,1492092344
9315,15,Jits_Phase_8,2,5,63,98,1492151764
9315,15,Jits_Phase_8,3,5,56,103,1492231540
9315,15,Jits_Phase_8,0,5,80,127,1492871508
9315,15,Jits_Phase_8,1,1,48,44,1492905716
9315,15,Jits_Phase_8,2,5,56,103,1492911512
9315,15,Jits_Phase_8,3,5,63,98,1492932196
9315,15,Jits_Phase_8,0,1,48,33,1493682104
9315,15,Jits_Phase_8,1,5,56,103,1493721392
9315,15,Jits_Phase_8,2,5,80,127,1493731808
9315,15,Jits_Phase_8,3,5,63,98,1493771600
9315,15,Jits_Phase_8,0,1,48,30,1494424244
9315,15,Jits_Phase_8,1,5,56,103,1494591736
9315,15,Jits_Phase_8,2,5,63,98,1494631896
9315,15,Jits_Phase_8,3,5,80,127,1494635336
9315,15,Jits_Phase_8,0,1,48,32,1495261428
9315,15,Jits_Phase_8,1,5,63,98,1495262764
9315,15,Jits_Phase_8,2,5,80,127,1495301432
9315,15,Jits_Phase_8,3,5,56,103,1495372244
9315,15,Jits_Phase_8,0,5,63,98,1496031588
9315,15,Jits_Phase_8,1,1,48,35,1496053288
9315,15,Jits_Phase_8,2,5,56,103,1496111328
9315,15,Jits_Phase_8,3,5,80,127,1496172004
9315,15,Jits_Phase_8,0,1,48,27,1496782916
9315,15,Jits_Phase_8,1,5,80,127,1496841680
9315,15,Jits_Phase_8,2,5,63,98,1496891668
9315,15,Jits_Phase_8,3,5,56,103,1496921420
9315,15,Jits_Phase_8,0,1,48,34,1497576596
9315,15,Jits_Phase_8,1,5,56,103,1497632240
9315,15,Jits_Phase_8,2,5,63,98,1497682208
9315,15,Jits_Phase_8,3,5,80,127,1497691504
9315,15,Jits_Phase_8,0,1,48,33,1498350356
9315,15,Jits_Phase_8,1,5,56,103,1498443512
9315,15,Jits_Phase_8,2,5,63,98,1498551636
9315,15,Jits_Phase_8,3,5,80,127,1498572244
9315,15,Jits_Phase_8,0,1,48,30,1499174116
9315,15,Jits_Phase_8,1,5,63,98,1499242096
9315,15,Jits_Phase_8,2,5,80,127,1499291984
9315,15,Jits_Phase_8,3,5,56,103,1499382116
9315,15,Jits_Phase_8,0,5,63,98,1500032344
9315,15,Jits_Phase_8,1,5,80,127,1500062168
9315,15,Jits_Phase_8,2,1,48,36,1500075180
9315,15,Jits_Phase_8,3,5,56,103,1500152220
9315,15,Jits_Phase_8,0,1,48,27,1500789124
9315,15,Jits_Phase_8,1,5,63,98,1500832016
9315,15,Jits_Phase_8,2,5,56,103,1500842212
9315,15,Jits_Phase_8,3,5,80,127,1500941644
9315,15,Jits_Phase_8,0,1,48,28,1501529404
9315,15,Jits_Phase_8,1,5,63,98,1501732100
9315,15,Jits_Phase_8,2,5,80,127,1501762072
9315,15,Jits_Phase_8,3,5,56,103,1501791452
9315,15,Jits_Phase_8,0,1,48,24,1502441176
9315,15,Jits_Phase_8,1,5,80,127,1502552320
9315,15,Jits_Phase_8,2,5,63,98,1502561544
9315,15,Jits_Phase_8,3,5,56,103,1502592412
9315,15,Jits_Phase_8,0,5,80,127,1503252084
9315,15,Jits_Phase_8,1,5,63,98,1503272248
9315,15,Jits_Phase_8,2,1,48,32,1503296488
9315,15,Jits_Phase_8,3,5,56,103,1503321392
9315,15,Jits_Phase_8,0,1,48,29,1503941064
9315,15,Jits_Phase_8,1,5,63,98,1504082248
9315,15,Jits_Phase_8,2,5,80,127,1504142040
9315,15,Jits_Phase_8,3,5,56,103,1504162052
9315,15,Jits_Phase_8,0,1,48,29,1504760532
9315,15,Jits_Phase_8,1,5,63,98,1504842020
9315,15,Jits_Phase_8,2,5,56,103,1504892356
9315,15,Jits_Phase_8,3,5,80,127,1504901508
9315,15,Jits_Phase_8,0,1,48,25,1505597764
9315,15,Jits_Phase_8,1,5,56,103,1505671520
9315,15,Jits_Phase_8,2,5,80,127,1505681868
9315,15,Jits_Phase_8,3,5,63,98,1505782096
9315,15,Jits_Phase_8,0,5,80,127,1506432252
9315,15,Jits_Phase_8,1,1,48,36,1506440796
9315,15,Jits_Phase_8,2,5,63,98,1506442368
9315,15,Jits_Phase_8,3,5,56,103,1506592212
9315,15,Jits_Phase_8,0,5,63,98,1507242360
9315,15,Jits_Phase_8,1,5,80,127,1507282372
9315,15,Jits_Phase_8,2,1,48,24,1507326472
9315,15,Jits_Phase_8,3,5,56,103,1507362332
9315,15,Jits_Phase_8,0,5,56,103,1507991916
9315,15,Jits_Phase_8,1,1,48,30,1508071984
9315,15,Jits_Phase_8,2,5,80,127,1508092312
9315,15,Jits_Phase_8,3,5,63,98,1508111820
9315,15,Jits_Phase_8,0,1,48,23,1508808588
9315,15,Jits_Phase_8,1,5,80,127,1508812220
9315,15,Jits_Phase_8,2,5,56,103,1508822344
9315,15,Jits_Phase_8,3,5,63,98,1508911508
9315,15,Jits_Phase_8,0,1,48,29,1509593072
9315,15,Jits_Phase_8,1,5,56,103,1509611980
9315,15,Jits_Phase_8,2,5,63,98,1509632364
9315,15,Jits_Phase_8,3,5,80,127,1509712096
9315,15,Jits_Phase_8,0,1,48,30,1510352604
9315,15,Jits_Phase_8,1,5,63,98,1510361472
9315,15,Jits_Phase_8,2,5,56,103,1510451616
9315,15,Jits_Phase_8,3,5,80,127,1510454756
9315,15,Jits_Phase_8,0,1,48,41,1511135420
9315,15,Jits_Phase_8,1,5,56,103,1511191888
9315,15,Jits_Phase_8,2,5,80,127,1511252268
9315,15,Jits_Phase_8,3,5,63,98,1511261416
9315,15,Jits_Phase_8,0,1,48,37,1511915320
9315,15,Jits_Phase_8,1,5,80,127,1512041832
9315,15,Jits_Phase_8,2,5,56,103,1512052028
9315,15,Jits_Phase_8,3,5,63,98,1512055168
9315,15,Jits_Phase_8,0,5,56,103,1512801672
9315,15,Jits_Phase_8,1,1,48,35,1512803388
9315,15,Jits_Phase_8,2,5,80,127,1512812012
9315,15,Jits_Phase_8,3,5,63,98,1512832472
9315,15,Jits_Phase_8,0,5,63,98,1513571772
9315,15,Jits_Phase_8,1,5,80,127,1513632016
9315,15,Jits_Phase_8,2,1,48,38,1513637828
9315,15,Jits_Phase_8,3,5,56,103,1513682212
9315,15,Jits_Phase_8,0,1,48,24,1514422148
9315,15,Jits_Phase_8,1,5,63,98,1514452220
9315,15,Jits_Phase_8,2,5,56,103,1514461816
9315,15,Jits_Phase_8,3,5,80,127,1514511892
9315,15,Jits_Phase_8,0,5,63,98,1515151968
9315,15,Jits_Phase_8,1,5,80,127,1515172128
9315,15,Jits_Phase_8,2,5,56,103,1515181500
9315,15,Jits_Phase_8,3,1,48,35,1515197504
9315,15,Jits_Phase_8,0,1,48,24,1515939836
9315,15,Jits_Phase_8,1,5,63,98,1515951636
9315,15,Jits_Phase_8,2,5,80,127,1515954852
9315,15,Jits_Phase_8,3,5,56,103,1515992468
9315,15,Jits_Phase_8,0,1,48,33,1516615064
9315,15,Jits_Phase_8,1,5,63,98,1516821888
9315,15,Jits_Phase_8,2,5,80,127,1516851788
9315,15,Jits_Phase_8,3,5,56,103,1516861760
9315,15,Jits_Phase_8,0,1,48,28,1517526976
9315,15,Jits_Phase_8,1,5,56,103,1517571292
9315,15,Jits_Phase_8,2,5,80,127,1517602264
9315,15,Jits_Phase_8,3,5,63,98,1517631924
9315,15,Jits_Phase_8,0,1,48,32,1518302840
9315,15,Jits_Phase_8,1,5,63,98,1518471828
9315,15,Jits_Phase_8,2,5,56,103,1518511616
9315,15,Jits_Phase_8,3,5,80,127,1518514536
9315,15,Jits_Phase_8,0,5,80,127,1519171812
9315,15,Jits_Phase_8,1,1,48,29,1519210448
9315,15,Jits_Phase_8,2,5,56,103,1519251828
9315,15,Jits_Phase_8,3,5,63,98,1519301956
9315,15,Jits_Phase_8,0,1,48,36,1519944884
9315,15,Jits_Phase_8,1,5,80,127,1519952176
9315,15,Jits_Phase_8,2,5,56,103,1519971884
9315,15,Jits_Phase_8,3,5,63,98,1520061780
9315,15,Jits_Phase_8,0,5,80,127,1520791872
9315,15,Jits_Phase_8,1,1,48,30,1520794464
9315,15,Jits_Phase_8,2,5,63,98,1520831952
9315,15,Jits_Phase_8,3,5,56,103,1520871816
9315,15,Jits_Phase_8,0,1,48,38,1521577968
9315,15,Jits_Phase_8,1,5,63,98,1521601832
9315,15,Jits_Phase_8,2,5,80,127,1521662372
9315,15,Jits_Phase_8,3,5,56,103,1521691908
9315,15,Jits_Phase_8,0,1,48,30,1522438560
9315,15,Jits_Phase_8,1,5,56,103,1522441664
9315,15,Jits_Phase_8,2,5,80,127,1522472240
9315,15,Jits_Phase_8,3,5,63,98,1522562428
9315,15,Jits_Phase_8,0,1,48,31,1523137292
9315,15,Jits_Phase_8,1,5,56,103,1523251596
9315,15,Jits_Phase_8,2,5,80,127,1523362108
9315,15,Jits_Phase_8,3,5,63,98,1523391784
9315,15,Jits_Phase_8,0,1,48,36,1523990360
9315,15,Jits_Phase_8,1,5,56,103,1524101780
9315,15,Jits_Phase_8,2,5,63,98,1524161872
9315,15,Jits_Phase_8,3,5,80,127,1524191772
9315,15,Jits_Phase_8,0,1,48,27,1524818364
9315,15,Jits_Phase_8,1,5,56,103,1524871668
9315,15,Jits_Phase_8,2,5,63,98,1524942160
9315,15,Jits_Phase_8,3,5,80,127,1524961792
9315,15,Jits_Phase_8,0,1,48,29,1525600680
9315,15,Jits_Phase_8,1,5,80,127,1525641684
9315,15,Jits_Phase_8,2,5,63,98,1525661996
9315,15,Jits_Phase_8,3,5,56,103,1525712256
9315,15,Jits_Phase_8,0,1,48,40,1526390688
9315,15,Jits_Phase_8,1,5,63,98,1526461740
9315,15,Jits_Phase_8,2,5,80,127,1526472012
9315,15,Jits_Phase_8,3,5,56,103,1526522344
9315,15,Jits_Phase_8,0,1,48,30,1527252032
9315,15,Jits_Phase_8,1,5,63,98,1527261644
9315,15,Jits_Phase_8,2,5,80,127,1527332104
9315,15,Jits_Phase_8,3,5,56,103,1527351648
9315,15,Jits_Phase_8,0,1,48,32,1528073444
9315,15,Jits_Phase_8,1,5,63,98,1528091996
9315,15,Jits_Phase_8,2,5,80,127,1528095508
9315,15,Jits_Phase_8,3,5,56,103,1528161824
9315,15,Jits_Phase_8,0,5,80,127,1528841608
9315,15,Jits_Phase_8,1,5,56,103,1528861992
9315,15,Jits_Phase_8,2,1,48,32,1528868104
9315,15,Jits_Phase_8,3,5,63,98,1528872552
9315,15,Jits_Phase_8,0,1,48,27,1529618248
9315,15,Jits_Phase_8,1,5,56,103,1529661816
9315,15,Jits_Phase_8,2,5,63,98,1529751860
9315,15,Jits_Phase_8,3,5,80,127,1529755224
9315,15,Jits_Phase_8,0,1,48,38,1530370264
9315,15,Jits_Phase_8,1,5,80,127,1530431820
9315,15,Jits_Phase_8,2,5,56,103,1530442240
9315,15,Jits_Phase_8,3,5,63,98,1530461652
9315,15,Jits_Phase_8,0,1,48,38,1531175644
9315,15,Jits_Phase_8,1,5,63,98,1531231792
9315,15,Jits_Phase_8,2,5,80,127,1531292020
9315,15,Jits_Phase_8,3,5,56,103,1531302364
9315,15,Jits_Phase_8,0,1,48,37,1531966256
9315,15,Jits_Phase_8,1,5,63,98,1532101960
9315,15,Jits_Phase_8,2,5,80,127,1532131784
9315,15,Jits_Phase_8,3,5,56,103,1532171820
9315,15,Jits_Phase_8,0,1,48,28,1532857872
9315,15,Jits_Phase_8,1,5,56,103,1532891620
9315,15,Jits_Phase_8,2,5,80,127,1532901744
9315,15,Jits_Phase_8,3,5,63,98,1532941704
9315,15,Jits_Phase_8,0,5,80,127,1533652500
9315,15,Jits_Phase_8,1,5,56,103,1533732248
9315,15,Jits_Phase_8,2,1,48,29,1533735888
9315,15,Jits_Phase_8,3,5,63,98,1533741764
9315,15,Jits_Phase_8,0,1,48,31,1534501900
9315,15,Jits_Phase_8,1,5,80,127,1534503384
9315,15,Jits_Phase_8,2,5,56,103,1534581988
9315,15,Jits_Phase_8,3,5,63,98,1534593588
9315,15,Jits_Phase_8,0,1,48,38,1535267912
9315,15,Jits_Phase_8,1,5,80,127,1535341892
9315,15,Jits_Phase_8,2,5,56,103,1535392004
9315,15,Jits_Phase_8,3,5,63,98,1535442428
9315,15,Jits_Phase_8,0,1,48,38,1536165364
9315,15,Jits_Phase_8,1,5,56,103,1536281980
9315,15,Jits_Phase_8,2,5,63,98,1536284972
9315,15,Jits_Phase_8,3,5,80,127,1536332252
9315,15,Jits_Phase_8,0,1,48,31,1537026992
9315,15,Jits_Phase_8,1,5,56,103,1537102200
9315,15,Jits_Phase_8,2,5,63,98,1537131932
9315,15,Jits_Phase_8,3,5,80,127,1537142204
9315,15,Jits_Phase_8,0,5,63,98,1537811840
9315,15,Jits_Phase_8,1,5,56,103,1537881668
9315,15,Jits_Phase_8,2,1,48,40,1537888080
9315,15,Jits_Phase_8,3,5,80,127,1537931640
9315,15,Jits_Phase_8,0,1,48,33,1538622204
9315,15,Jits_Phase_8,1,5,63,98,1538642456
9315,15,Jits_Phase_8,2,5,56,103,1538651604
9315,15,Jits_Phase_8,3,5,80,127,1538654596
9315,15,Jits_Phase_8,0,5,80,127,1539391784
9315,15,Jits_Phase_8,1,1,48,34,1539443452
9315,15,Jits_Phase_8,2,5,56,103,1539452392
9315,15,Jits_Phase_8,3,5,63,98,1539542448
9315,15,Jits_Phase_8,0,5,80,127,1540191632
9315,15,Jits_Phase_8,1,1,48,39,1540209276
9315,15,Jits_Phase_8,2,5,56,103,1540292096
9315,15,Jits_Phase_8,3,5,63,98,1540331944
9315,15,Jits_Phase_8,0,5,56,103,1541041528
9315,15,Jits_Phase_8,1,5,63,98,1541062064
9315,15,Jits_Phase_8,2,1,48,38,1541080772
9315,15,Jits_Phase_8,3,5,80,127,1541101848
9315,15,Jits_Phase_8,0,1,48,32,1541787172
9315,15,Jits_Phase_8,1,5,63,98,1541811704
9315,15,Jits_Phase_8,2,5,56,103,1541831940
9315,15,Jits_Phase_8,3,5,80,127,1541932340
9315,15,Jits_Phase_8,0,1,48,40,1542543480
9315,15,Jits_Phase_8,1,5,63,98,1542602464
9315,15,Jits_Phase_8,2,5,80,127,1542711568
9315,15,Jits_Phase_8,3,5,56,103,1542742364
9315,15,Jits_Phase_8,0,1,48,35,1543326672
9315,15,Jits_Phase_8,1,5,56,103,1543423116
9315,15,Jits_Phase_8,2,5,63,98,1543452140
9315,15,Jits_Phase_8,3,5,80,127,1543502268
9315,15,Jits_Phase_8,0,1,48,30,1544145316
9315,15,Jits_Phase_8,1,5,63,98,1544192468
9315,15,Jits_Phase_8,2,5,56,103,1544222168
9315,15,Jits_Phase_8,3,5,80,127,1544272428
9315,15,Jits_Phase_8,0,1,48,31,1544931284
9315,15,Jits_Phase_8,1,5,56,103,1545021764
9315,15,Jits_Phase_8,2,5,63,98,1545042508
9315,15,Jits_Phase_8,3,5,80,127,1545122300
9315,15,Jits_Phase_8,0,1,48,32,1545743876
9315,15,Jits_Phase_8,1,5,63,98,1545791928
9315,15,Jits_Phase_8,2,5,56,103,1545852452
9315,15,Jits_Phase_8,3,5,80,127,1545881904
9315,15,Jits_Phase_8,0,1,48,29,1546479012
9315,15,Jits_Phase_8,1,5,56,103,1546631448
9315,15,Jits_Phase_8,2,5,80,127,1546692064
9315,15,Jits_Phase_8,3,5,63,98,1546732004
9315,15,Jits_Phase_8,0,1,48,29,1547315816
9315,15,Jits_Phase_8,1,5,63,98,1547411808
9315,15,Jits_Phase_8,2,5,56,103,1547472572
9315,15,Jits_Phase_8,3,5,80,127,1547541752
9315,15,Jits_Phase_8,0,1,48,32,1548132512
9315,15,Jits_Phase_8,1,5,56,103,1548291432
9315,15,Jits_Phase_8,2,5,63,98,1548301804
9315,15,Jits_Phase_8,3,5,80,127,1548305240
9315,15,Jits_Phase_8,0,1,48,37,1549005460
9315,15,Jits_Phase_8,1,5,63,98,1549031936
9315,15,Jits_Phase_8,2,5,56,103,1549092352
9315,15,Jits_Phase_8,3,5,80,127,1549095348
9315,15,Jits_Phase_8,0,1,48,32,1549805884
9315,15,Jits_Phase_8,1,5,63,98,1549812204
9315,15,Jits_Phase_8,2,5,80,127,1549841756
9315,15,Jits_Phase_8,3,5,56,103,1549862516
9315,15,Jits_Phase_8,0,5,56,103,1550542512
9315,15,Jits_Phase_8,1,1,48,26,1550574476
9315,15,Jits_Phase_8,2,5,63,98,1550592412
9315,15,Jits_Phase_8,3,5,80,127,1550672436
9315,15,Jits_Phase_8,0,5,80,127,1551241536
9315,15,Jits_Phase_8,1,5,63,98,1551281472
9315,15,Jits_Phase_8,2,5,56,103,1551301932
9315,15,Jits_Phase_8,3,1,48,30,1551302824
9315,15,Jits_Phase_8,0,1,48,36,1552008296
9315,15,Jits_Phase_8,1,5,56,103,1552112228
9315,15,Jits_Phase_8,2,5,80,127,1552122276
9315,15,Jits_Phase_8,3,5,63,98,1552141640
9315,15,Jits_Phase_8,0,1,48,37,1552808204
9315,15,Jits_Phase_8,1,5,56,103,1552892224
9315,15,Jits_Phase_8,2,5,63,98,1552941464
9315,15,Jits_Phase_8,3,5,80,127,1552972184
9315,15,Jits_Phase_8,0,1,48,32,1553593956
9315,15,Jits_Phase_8,1,5,56,103,1553641788
9315,15,Jits_Phase_8,2,5,63,98,1553652208
9315,15,Jits_Phase_8,3,5,80,127,1553702344
9315,15,Jits_Phase_8,0,1,48,37,1554344632
9315,15,Jits_Phase_8,1,5,56,103,1554432320
9315,15,Jits_Phase_8,2,5,80,127,1554435388
9315,15,Jits_Phase_8,3,5,63,98,1554592208
9315,15,Jits_Phase_8,0,1,48,31,1555212668
9315,15,Jits_Phase_8,1,5,63,98,1555251652
9315,15,Jits_Phase_8,2,5,56,103,1555322216
9315,15,Jits_Phase_8,3,5,80,127,1555362376
9315,15,Jits_Phase_8,0,1,48,36,1555959868
9315,15,Jits_Phase_8,1,5,63,98,1556092152
9315,15,Jits_Phase_8,2,5,56,103,1556182432
9315,15,Jits_Phase_8,3,5,80,127,1556185500
9315,15,Jits_Phase_8,0,1,48,20,1556798984
9315,15,Jits_Phase_8,1,5,56,103,1556871544
9315,15,Jits_Phase_8,2,5,63,98,1556961740
9315,15,Jits_Phase_8,3,5,80,127,1556972156
9315,15,Jits_Phase_8,0,5,56,103,1557641572
9315,15,Jits_Phase_8,1,5,63,98,1557691700
9315,15,Jits_Phase_8,2,1,48,38,1557698856
9315,15,Jits_Phase_8,3,5,80,127,1557721440
9315,15,Jits_Phase_8,0,1,48,30,1558400552
9315,15,Jits_Phase_8,1,5,63,98,1558522232
9315,15,Jits_Phase_8,2,5,80,127,1558531380
9315,15,Jits_Phase_8,3,5,56,103,1558591792
9315,15,Jits_Phase_8,0,1,48,35,1559224956
9315,15,Jits_Phase_8,1,5,63,98,1559242288
9315,15,Jits_Phase_8,2,5,80,127,1559301560
9315,15,Jits_Phase_8,3,5,56,103,1559341432
9315,15,Jits_Phase_8,0,1,48,27,1560054160
9315,15,Jits_Phase_8,1,5,56,103,1560142168
9315,15,Jits_Phase_8,2,5,80,127,1560161568
9315,15,Jits_Phase_8,3,5,63,98,1560182248
9315,15,Jits_Phase_8,0,1,48,40,1560821260
9315,15,Jits_Phase_8,1,5,63,98,1560862288
9315,15,Jits_Phase_8,2,5,56,103,1560881480
9315,15,Jits_Phase_8,3,5,80,127,1560921920
9315,15,Jits_Phase_8,0,1,48,35,1561635496
9315,15,Jits_Phase_8,1,5,63,98,1561672012
9315,15,Jits_Phase_8,2,5,80,127,1561701688
9315,15,Jits_Phase_8,3,5,56,103,1561722296
9315,15,Jits_Phase_8,0,1,48,38,1562375812
9315,15,Jits_Phase_8,1,5,80,127,1562442248
9315,15,Jits_Phase_8,2,5,56,103,1562492284
9315,15,Jits_Phase_8,3,5,63,98,1562551628
9315,15,Jits_Phase_8,0,1,48,38,1563212236
9315,15,Jits_Phase_8,1,5,63,98,1563231592
9315,15,Jits_Phase_8,2,5,56,103,1563352428
9315,15,Jits_Phase_8,3,5,80,127,1563382324
9315,15,Jits_Phase_8,0,1,48,29,1564014016
9315,15,Jits_Phase_8,1,5,80,127,1564072256
9315,15,Jits_Phase_8,2,5,63,98,1564091892
9315,15,Jits_Phase_8,3,5,56,103,1564162308
9315,15,Jits_Phase_8,0,1,48,36,1564817444
9315,15,Jits_Phase_8,1,5,63,98,1564891572
9315,15,Jits_Phase_8,2,5,56,103,1564901696
9315,15,Jits_Phase_8,3,5,80,127,1564981500
9315,15,Jits_Phase_8,0,1,48,40,1565568648
9315,15,Jits_Phase_8,1,5,56,103,1565751656
9315,15,Jits_Phase_8,2,5,80,127,1565782380
9315,15,Jits_Phase_8,3,5,63,98,1565791532
9315,15,Jits_Phase_8,0,9999,9999,9999,1430879304
9315,15,Jits_Phase_8,1,9999,9999,9999,1431680120
9315,15,Jits_Phase_8,2,9999,9999,9999,1432490084
9315,15,Jits_Phase_8,3,9999,9999,9999,1433289784
9315,15,Jits_Phase_8,4,9999,9999,9999,1434089536
9315,15,Jits_Phase_8,5,9999,9999,9999,1434889296
9315,15,Jits_Phase_8,6,9999,9999,9999,1435690056
9315,15,Jits_Phase_8,7,9999,9999,9999,1436489828
9315,15,Jits_Phase_8,8,9999,9999,9999,1437289596
9315,15,Jits_Phase_8,9,9999,9999,9999,1438089340
9315,15,Jits_Phase_8,10,9999,9999,9999,1438890092
9315,15,Jits_Phase_8,11,9999,9999,9999,1439689852
9315,15,Jits_Phase_8,12,9999,9999,9999,1440489540
9315,15,Jits_Phase_8,13,9999,9999,9999,1441289300
9315,15,Jits_Phase_8,14,9999,9999,9999,1442090108
9315,15,Jits_Phase_8,15,9999,9999,9999,1442889784
9315,15,Jits_Phase_8,16,9999,9999,9999,1443689524
9315,15,Jits_Phase_8,17,9999,9999,9999,1444489288
9315,15,Jits_Phase_8,18,9999,9999,9999,1445290096
9315,15,Jits_Phase_8,19,9999,9999,9999,1446089780
9315,15,Jits_Phase_8,20,9999,9999,9999,1446889536
9315,15,Jits_Phase_8,21,9999,9999,9999,1447689296
9315,15,Jits_Phase_8,22,9999,9999,9999,1448490108
9315,15,Jits_Phase_8,23,9999,9999,9999,1449289788
9315,15,Jits_Phase_8,24,9999,9999,9999,1450089544
9315,15,Jits_Phase_8,25,9999,9999,9999,1450889300
9315,15,Jits_Phase_8,26,9999,9999,9999,1451690104
9315,15,Jits_Phase_8,27,9999,9999,9999,1452489788
9315,15,Jits_Phase_8,28,9999,9999,9999,1453289560
9315,15,Jits_Phase_8,29,9999,9999,9999,1454089324
9315,15,Jits_Phase_8,30,9999,9999,9999,1454869620
9315,15,Jits_Phase_8,31,9999,9999,9999,1455669304
9315,15,Jits_Phase_8,32,9999,9999,9999,1456470108
9315,15,Jits_Phase_8,33,9999,9999,9999,1457280124
9315,15,Jits_Phase_8,34,9999,9999,9999,1458090068
9315,15,Jits_Phase_8,35,9999,9999,9999,1458889836
9315,15,Jits_Phase_8,36,9999,9999,9999,1459689524
9315,15,Jits_Phase_8,37,9999,9999,9999,1460489280
9315,15,Jits_Phase_8,38,9999,9999,9999,1461290100
9315,15,Jits_Phase_8,39,9999,9999,9999,1462089800
9315,15,Jits_Phase_8,40,9999,9999,9999,1462889560
9315,15,Jits_Phase_8,41,9999,9999,9999,1463689316
9315,15,Jits_Phase_8,42,9999,9999,9999,1464490044
9315,15,Jits_Phase_8,43,9999,9999,9999,1465289804
9315,15,Jits_Phase_8,44,9999,9999,9999,1466089544
9315,15,Jits_Phase_8,45,9999,9999,9999,1466889304
9315,15,Jits_Phase_8,46,9999,9999,9999,1467690068
9315,15,Jits_Phase_8,47,9999,9999,9999,1468489832
9315,15,Jits_Phase_8,48,9999,9999,9999,1469310044
9315,15,Jits_Phase_8,49,9999,9999,9999,1470109800
9315,15,Jits_Phase_8,50,9999,9999,9999,1470909556
9315,15,Jits_Phase_8,51,9999,9999,9999,1471709240
9315,15,Jits_Phase_8,52,9999,9999,9999,1472510048
9315,15,Jits_Phase_8,53,9999,9999,9999,1473309764
9315,15,Jits_Phase_8,54,9999,9999,9999,1474109520
9315,15,Jits_Phase_8,55,9999,9999,9999,1474909276
9315,15,Jits_Phase_8,56,9999,9999,9999,1475710080
9315,15,Jits_Phase_8,57,9999,9999,9999,1476509764
9315,15,Jits_Phase_8,58,9999,9999,9999,1477309520
9315,15,Jits_Phase_8,59,9999,9999,9999,1478109272
9315,15,Jits_Phase_8,60,9999,9999,9999,1478910076
9315,15,Jits_Phase_8,61,9999,9999,9999,1479709788
9315,15,Jits_Phase_8,62,9999,9999,9999,1480509544
9315,15,Jits_Phase_8,63,9999,9999,9999,1481309292
9315,15,Jits_Phase_8,64,9999,9999,9999,1482150012
9315,15,Jits_Phase_8,65,9999,9999,9999,1482949700
9315,15,Jits_Phase_8,66,9999,9999,9999,1483749480
9315,15,Jits_Phase_8,67,9999,9999,9999,1484549244
9315,15,Jits_Phase_8,68,9999,9999,9999,1485349980
9315,15,Jits_Phase_8,69,9999,9999,9999,1486149752
9315,15,Jits_Phase_8,70,9999,9999,9999,1486949504
9315,15,Jits_Phase_8,71,9999,9999,9999,1487749196
9315,15,Jits_Phase_8,72,9999,9999,9999,1488550000
9315,15,Jits_Phase_8,73,9999,9999,9999,1489349756
9315,15,Jits_Phase_8,74,9999,9999,9999,1490149448
9315,15,Jits_Phase_8,75,9999,9999,9999,1490949204
9315,15,Jits_Phase_8,76,9999,9999,9999,1491749952
9315,15,Jits_Phase_8,77,9999,9999,9999,1492549704
9315,15,Jits_Phase_8,78,9999,9999,9999,1493349456
9315,15,Jits_Phase_8,79,9999,9999,9999,1494149232
9315,15,Jits_Phase_8,80,9999,9999,9999,1494949964
9315,15,Jits_Phase_8,81,9999,9999,9999,1495709788
9315,15,Jits_Phase_8,82,9999,9999,9999,1496509548
9315,15,Jits_Phase_8,83,9999,9999,9999,1497309300
9315,15,Jits_Phase_8,84,9999,9999,9999,1498110024
9315,15,Jits_Phase_8,85,9999,9999,9999,1498909812
9315,15,Jits_Phase_8,86,9999,9999,9999,1499709496
9315,15,Jits_Phase_8,87,9999,9999,9999,1500509252
9315,15,Jits_Phase_8,88,9999,9999,9999,1501310048
9315,15,Jits_Phase_8,89,9999,9999,9999,1502109812
9315,15,Jits_Phase_8,90,9999,9999,9999,1502909508
9315,15,Jits_Phase_8,91,9999,9999,9999,1503709264
9315,15,Jits_Phase_8,92,9999,9999,9999,1504510008
9315,15,Jits_Phase_8,93,9999,9999,9999,1505309792
9315,15,Jits_Phase_8,94,9999,9999,9999,1506109552
9315,15,Jits_Phase_8,95,9999,9999,9999,1506909308
9315,15,Jits_Phase_8,96,9999,9999,9999,1507710048
9315,15,Jits_Phase_8,97,9999,9999,9999,1508429948
9315,15,Jits_Phase_8,98,9999,9999,9999,1509229652
9315,15,Jits_Phase_8,99,9999,9999,9999,1510029412
9315,15,Jits_Phase_8,100,9999,9999,9999,1510829164
9315,15,Jits_Phase_8,101,9999,9999,9999,1511629896
9315,15,Jits_Phase_8,102,9999,9999,9999,1512429648
9315,15,Jits_Phase_8,103,9999,9999,9999,1513229432
9315,15,Jits_Phase_8,104,9999,9999,9999,1514029128
9315,15,Jits_Phase_8,105,9999,9999,9999,1514829944
9315,15,Jits_Phase_8,106,9999,9999,9999,1515629692
9315,15,Jits_Phase_8,107,9999,9999,9999,1516429432
9315,15,Jits_Phase_8,108,9999,9999,9999,1517229120
9315,15,Jits_Phase_8,109,9999,9999,9999,1518029920
9315,15,Jits_Phase_8,110,9999,9999,9999,1518829680
9315,15,Jits_Phase_8,111,9999,9999,9999,1519629396
9315,15,Jits_Phase_8,112,9999,9999,9999,1520429164
9315,15,Jits_Phase_8,113,9999,9999,9999,1521229900
9315,15,Jits_Phase_8,114,9999,9999,9999,1522109532
9315,15,Jits_Phase_8,115,9999,9999,9999,1522909264
9315,15,Jits_Phase_8,116,9999,9999,9999,1523710072
9315,15,Jits_Phase_8,117,9999,9999,9999,1524509788
9315,15,Jits_Phase_8,118,9999,9999,9999,1525309552
9315,15,Jits_Phase_8,119,9999,9999,9999,1526109304
9315,15,Jits_Phase_8,120,9999,9999,9999,1526910032
9315,15,Jits_Phase_8,121,9999,9999,9999,1527709792
9315,15,Jits_Phase_8,122,9999,9999,9999,1528509540
9315,15,Jits_Phase_8,123,9999,9999,9999,1529309268
9315,15,Jits_Phase_8,124,9999,9999,9999,1530110076
9315,15,Jits_Phase_8,125,9999,9999,9999,1530909776
9315,15,Jits_Phase_8,126,9999,9999,9999,1531709528
9315,15,Jits_Phase_8,127,9999,9999,9999,1532509288
9315,15,Jits_Phase_8,128,9999,9999,9999,1533310020
9315,15,Jits_Phase_8,129,9999,9999,9999,1534109780
9315,15,Jits_Phase_8,130,9999,9999,9999,1534909560
9315,15,Jits_Phase_8,131,9999,9999,9999,1535870040
9315,15,Jits_Phase_8,132,9999,9999,9999,1536669796
9315,15,Jits_Phase_8,133,9999,9999,9999,1537469560
9315,15,Jits_Phase_8,134,9999,9999,9999,1538269244
9315,15,Jits_Phase_8,135,9999,9999,9999,1539070032
9315,15,Jits_Phase_8,136,9999,9999,9999,1539869816
9315,15,Jits_Phase_8,137,9999,9999,9999,1540669516
9315,15,Jits_Phase_8,138,9999,9999,9999,1541469288
9315,15,Jits_Phase_8,139,9999,9999,9999,1542270036
9315,15,Jits_Phase_8,140,9999,9999,9999,1543069796
9315,15,Jits_Phase_8,141,9999,9999,9999,1543869552
9315,15,Jits_Phase_8,142,9999,9999,9999,1544669304
9315,15,Jits_Phase_8,143,9999,9999,9999,1545470032
9315,15,Jits_Phase_8,144,9999,9999,9999,1546269812
9315,15,Jits_Phase_8,145,9999,9999,9999,1547069500
9315,15,Jits_Phase_8,146,9999,9999,9999,1547869260
9315,15,Jits_Phase_8,147,9999,9999,9999,1548670060
9315,15,Jits_Phase_8,148,9999,9999,9999,1549469812
9315,15,Jits_Phase_8,149,9999,9999,9999,1550269564
9315,15,Jits_Phase_8,150,9999,9999,9999,1550909528
9315,15,Jits_Phase_8,151,9999,9999,9999,1551709296
9315,15,Jits_Phase_8,152,9999,9999,9999,1552510044
9315,15,Jits_Phase_8,153,9999,9999,9999,1553309804
9315,15,Jits_Phase_8,154,9999,9999,9999,1554109556
9315,15,Jits_Phase_8,155,9999,9999,9999,1554909300
9315,15,Jits_Phase_8,156,9999,9999,9999,1555710036
9315,15,Jits_Phase_8,157,9999,9999,9999,1556509812
9315,15,Jits_Phase_8,158,9999,9999,9999,1557309504
9315,15,Jits_Phase_8,159,9999,9999,9999,1558109256
9315,15,Jits_Phase_8,160,9999,9999,9999,1558910008
9315,15,Jits_Phase_8,161,9999,9999,9999,1559709764
9315,15,Jits_Phase_8,162,9999,9999,9999,1560509528
9315,15,Jits_Phase_8,163,9999,9999,9999,1561309284
9315,15,Jits_Phase_8,164,9999,9999,9999,1562110016
9315,15,Jits_Phase_8,165,9999,9999,9999,1562909796
9315,15,Jits_Phase_8,166,9999,9999,9999,1563709556
9315,15,Jits_Phase_8,167,9999,9999,9999,1564509240
9315,15,Jits_Phase_8,168,9999,9999,9999,1565310052
9315,15,Jits_Phase_8,169,9999,9999,9999,1566109820
9316,19,Jits_Linear_5,0,5,56,103,1575725440
9316,19,Jits_Linear_5,1,5,63,98,1575728460
9316,19,Jits_Linear_5,2,5,80,127,1575731508
9316,19,Jits_Linear_5,0,5,56,103,1576204780
9316,19,Jits_Linear_5,1,5,63,98,1576207800
9316,19,Jits_Linear_5,2,5,80,127,1576210776
9316,19,Jits_Linear_5,0,5,56,103,1576684784
9316,19,Jits_Linear_5,1,1,48,41,1576686196
9316,19,Jits_Linear_5,2,5,80,127,1576695268
9316,19,Jits_Linear_5,3,5,63,98,1576714856
9316,19,Jits_Linear_5,0,5,63,98,1577115032
9316,19,Jits_Linear_5,1,5,80,127,1577144784
9316,19,Jits_Linear_5,2,5,56,103,1577155056
9316,19,Jits_Linear_5,3,1,48,46,1577191432
9316,19,Jits_Linear_5,0,1,48,48,1577596624
9316,19,Jits_Linear_5,1,5,80,127,1577654576
9316,19,Jits_Linear_5,2,5,56,103,1577665068
9316,19,Jits_Linear_5,3,5,63,98,1577694660
9316,19,Jits_Linear_5,0,1,48,47,1578082472
9316,19,Jits_Linear_5,1,5,63,98,1578134792
9316,19,Jits_Linear_5,2,5,56,103,1578164840
9316,19,Jits_Linear_5,3,5,80,127,1578174888
9316,19,Jits_Linear_5,0,5,56,103,1578575148
9316,19,Jits_Linear_5,1,1,48,42,1578592188
9316,19,Jits_Linear_5,2,5,63,98,1578625344
9316,19,Jits_Linear_5,3,5,80,127,1578644760
9316,19,Jits_Linear_5,0,1,48,44,1579017720
9316,19,Jits_Linear_5,1,5,80,127,1579064800
9316,19,Jits_Linear_5,2,5,63,98,1579114844
9316,19,Jits_Linear_5,3,5,56,103,1579155004
9316,19,Jits_Linear_5,0,1,48,38,1579537040
9316,19,Jits_Linear_5,1,5,56,103,1579555200
9316,19,Jits_Linear_5,2,5,63,98,1579584952
9316,19,Jits_Linear_5,3,5,80,127,1579654472
9316,19,Jits_Linear_5,0,1,48,36,1580022380
9316,19,Jits_Linear_5,1,5,56,103,1580044848
9316,19,Jits_Linear_5,2,5,80,127,1580105168
9316,19,Jits_Linear_5,3,5,63,98,1580134756
9316,19,Jits_Linear_5,0,1,48,29,1580490084
9316,19,Jits_Linear_5,1,5,56,103,1580545264
9316,19,Jits_Linear_5,2,5,63,98,1580554736
9316,19,Jits_Linear_5,3,5,80,127,1580594512
9316,19,Jits_Linear_5,0,1,48,45,1580960248
9316,19,Jits_Linear_5,1,5,63,98,1581035208
9316,19,Jits_Linear_5,2,5,80,127,1581114944
9316,19,Jits_Linear_5,3,5,56,103,1581125064
9316,19,Jits_Linear_5,0,1,48,41,1581461880
9316,19,Jits_Linear_5,1,5,63,98,1581584880
9316,19,Jits_Linear_5,2,5,56,103,1581624748
9316,19,Jits_Linear_5,3,5,80,127,1581627960
9316,19,Jits_Linear_5,0,1,48,32,1581990788
9316,19,Jits_Linear_5,1,5,56,103,1582044620
9316,19,Jits_Linear_5,2,5,63,98,1582054816
9316,19,Jits_Linear_5,3,5,80,127,1582094916
9316,19,Jits_Linear_5,0,1,48,31,1582461776
9316,19,Jits_Linear_5,1,5,56,103,1582535088
9316,19,Jits_Linear_5,2,5,63,98,1582538228
9316,19,Jits_Linear_5,3,5,80,127,1582554576
9316,19,Jits_Linear_5,0,1,48,25,1582972016
9316,19,Jits_Linear_5,1,5,80,127,1583055220
9316,19,Jits_Linear_5,2,5,56,103,1583064368
9316,19,Jits_Linear_5,3,5,63,98,1583135032
9316,19,Jits_Linear_5,0,1,48,32,1583467740
9316,19,Jits_Linear_5,1,5,63,98,1583554908
9316,19,Jits_Linear_5,2,5,56,103,1583575352
9316,19,Jits_Linear_5,3,5,80,127,1583655324
9316,19,Jits_Linear_5,0,1,48,31,1584020696
9316,19,Jits_Linear_5,1,5,56,103,1584075200
9316,19,Jits_Linear_5,2,5,80,127,1584115124
9316,19,Jits_Linear_5,3,5,63,98,1584125248
9316,19,Jits_Linear_5,0,1,48,32,1584572452
9316,19,Jits_Linear_5,1,5,80,127,1584574960
9316,19,Jits_Linear_5,2,5,63,98,1584604712
9316,19,Jits_Linear_5,3,5,56,103,1584644500
9316,19,Jits_Linear_5,0,5,56,103,1585105224
9316,19,Jits_Linear_5,1,1,48,41,1585116512
9316,19,Jits_Linear_5,2,5,63,98,1585134820
9316,19,Jits_Linear_5,3,5,80,127,1585185120
9316,19,Jits_Linear_5,0,5,80,127,1585615344
9316,19,Jits_Linear_5,1,1,48,34,1585640712
9316,19,Jits_Linear_5,2,5,56,103,1585655276
9316,19,Jits_Linear_5,3,5,63,98,1585665476
9316,19,Jits_Linear_5,0,5,80,127,1586114896
9316,19,Jits_Linear_5,1,1,48,30,1586150076
9316,19,Jits_Linear_5,2,5,63,98,1586154832
9316,19,Jits_Linear_5,3,5,56,103,1586215248
9316,19,Jits_Linear_5,0,5,56,103,1586635128
9316,19,Jits_Linear_5,1,1,48,35,1586638840
9316,19,Jits_Linear_5,2,5,80,127,1586645244
9316,19,Jits_Linear_5,3,5,63,98,1586725436
9316,19,Jits_Linear_5,0,5,80,127,1587155200
9316,19,Jits_Linear_5,1,1,48,32,1587170976
9316,19,Jits_Linear_5,2,5,63,98,1587214716
9316,19,Jits_Linear_5,3,5,56,103,1587245292
9316,19,Jits_Linear_5,0,1,48,30,1587670144
9316,19,Jits_Linear_5,1,5,56,103,1587674820
9316,19,Jits_Linear_5,2,5,80,127,1587734792
9316,19,Jits_Linear_5,3,5,63,98,1587774792
9316,19,Jits_Linear_5,0,1,48,38,1588191032
9316,19,Jits_Linear_5,1,5,56,103,1588255156
9316,19,Jits_Linear_5,2,5,63,98,1588265428
9316,19,Jits_Linear_5,3,5,80,127,1588268864
9316,19,Jits_Linear_5,0,1,48,30,1588714252
9316,19,Jits_Linear_5,1,5,80,127,1588735332
9316,19,Jits_Linear_5,2,5,63,98,1588824360
9316,19,Jits_Linear_5,3,5,56,103,1588834632
9316,19,Jits_Linear_5,0,1,48,35,1589203828
9316,19,Jits_Linear_5,1,5,56,103,1589264624
9316,19,Jits_Linear_5,2,5,63,98,1589267724
9316,19,Jits_Linear_5,3,5,80,127,1589270996
9316,19,Jits_Linear_5,0,1,48,43,1589731276
9316,19,Jits_Linear_5,1,5,80,127,1589814808
9316,19,Jits_Linear_5,2,5,63,98,1589864924
9316,19,Jits_Linear_5,3,5,56,103,1589894672
9316,19,Jits_Linear_5,0,1,48,35,1590308696
9316,19,Jits_Linear_5,1,5,56,103,1590324540
9316,19,Jits_Linear_5,2,5,80,127,1590334884
9316,19,Jits_Linear_5,3,5,63,98,1590404492
9316,19,Jits_Linear_5,0,1,48,35,1590822684
9316,19,Jits_Linear_5,1,5,56,103,1590865428
9316,19,Jits_Linear_5,2,5,63,98,1590884620
9316,19,Jits_Linear_5,3,5,80,127,1590945144
9316,19,Jits_Linear_5,0,1,48,20,1591339756
9316,19,Jits_Linear_5,1,5,80,127,1591394636
9316,19,Jits_Linear_5,2,5,63,98,1591465652
9316,19,Jits_Linear_5,3,5,56,103,1591484768
9316,19,Jits_Linear_5,0,1,48,36,1591898036
9316,19,Jits_Linear_5,1,5,80,127,1591954712
9316,19,Jits_Linear_5,2,5,56,103,1591964984
9316,19,Jits_Linear_5,3,5,63,98,1591975180
9316,19,Jits_Linear_5,0,1,48,35,1592400040
9316,19,Jits_Linear_5,1,5,80,127,1592485188
9316,19,Jits_Linear_5,2,5,56,103,1592504812
9316,19,Jits_Linear_5,3,5,63,98,1592575464
9316,19,Jits_Linear_5,0,1,48,38,1593013172
9316,19,Jits_Linear_5,1,5,56,103,1593035148
9316,19,Jits_Linear_5,2,5,80,127,1593064824
9316,19,Jits_Linear_5,3,5,63,98,1593085212
9316,19,Jits_Linear_5,0,1,48,36,1593534360
9316,19,Jits_Linear_5,1,5,63,98,1593574844
9316,19,Jits_Linear_5,2,5,56,103,1593635176
9316,19,Jits_Linear_5,3,5,80,127,1593665000
9316,19,Jits_Linear_5,0,1,48,46,1594074884
9316,19,Jits_Linear_5,1,5,63,98,1594114616
9316,19,Jits_Linear_5,2,5,80,127,1594117832
9316,19,Jits_Linear_5,3,5,56,103,1594204540
9316,19,Jits_Linear_5,0,5,56,103,1594684832
9316,19,Jits_Linear_5,1,1,48,37,1594709300
9316,19,Jits_Linear_5,2,5,63,98,1594714576
9316,19,Jits_Linear_5,3,5,80,127,1594754664
9316,19,Jits_Linear_5,0,1,48,28,1595198128
9316,19,Jits_Linear_5,1,5,63,98,1595234576
9316,19,Jits_Linear_5,2,5,56,103,1595274592
9316,19,Jits_Linear_5,3,5,80,127,1595295052
9316,19,Jits_Linear_5,0,1,48,32,1595698864
9316,19,Jits_Linear_5,1,5,63,98,1595794804
9316,19,Jits_Linear_5,2,5,56,103,1595834728
9316,19,Jits_Linear_5,3,5,80,127,1595845000
9316,19,Jits_Linear_5,0,1,48,37,1596251376
9316,19,Jits_Linear_5,1,5,80,127,1596325284
9316,19,Jits_Linear_5,2,5,63,98,1596394732
9316,19,Jits_Linear_5,3,5,56,103,1596415564
9316,19,Jits_Linear_5,0,1,48,35,1596830184
9316,19,Jits_Linear_5,1,5,56,103,1596875100
9316,19,Jits_Linear_5,2,5,80,127,1596894588
9316,19,Jits_Linear_5,3,5,63,98,1596934732
9316,19,Jits_Linear_5,0,1,48,35,1597386140
9316,19,Jits_Linear_5,1,5,63,98,1597444684
9316,19,Jits_Linear_5,2,5,80,127,1597465092
9316,19,Jits_Linear_5,3,5,56,103,1597505016
9316,19,Jits_Linear_5,0,1,48,29,1597995392
9316,19,Jits_Linear_5,1,5,63,98,1598004780
9316,19,Jits_Linear_5,2,5,56,103,1598024944
9316,19,Jits_Linear_5,3,5,80,127,1598035288
9316,19,Jits_Linear_5,0,1,48,40,1598498292
9316,19,Jits_Linear_5,1,5,80,127,1598564704
9316,19,Jits_Linear_5,2,5,56,103,1598585164
9316,19,Jits_Linear_5,3,5,63,98,1598614752
9316,19,Jits_Linear_5,0,1,48,37,1599090424
9316,19,Jits_Linear_5,1,5,56,103,1599204708
9316,19,Jits_Linear_5,2,5,80,127,1599207772
9316,19,Jits_Linear_5,3,5,63,98,1599225616
9316,19,Jits_Linear_5,0,5,63,98,1599695120
9316,19,Jits_Linear_5,1,1,48,41,1599724796
9316,19,Jits_Linear_5,2,5,56,103,1599726136
9316,19,Jits_Linear_5,3,5,80,127,1599785652
9316,19,Jits_Linear_5,0,1,48,42,1600244596
9316,19,Jits_Linear_5,1,5,63,98,1600344584
9316,19,Jits_Linear_5,2,5,56,103,1600354704
9316,19,Jits_Linear_5,3,5,80,127,1600365048
9316,19,Jits_Linear_5,0,1,48,29,1600801536
9316,19,Jits_Linear_5,1,5,56,103,1600864664
9316,19,Jits_Linear_5,2,5,80,127,1600895316
9316,19,Jits_Linear_5,3,5,63,98,1600904524
9316,19,Jits_Linear_5,0,1,48,43,1601341980
9316,19,Jits_Linear_5,1,5,63,98,1601474996
9316,19,Jits_Linear_5,2,5,56,103,1601485340
9316,19,Jits_Linear_5,3,5,80,127,1601504604
9316,19,Jits_Linear_5,0,1,48,44,1601930980
9316,19,Jits_Linear_5,1,5,56,103,1601974700
9316,19,Jits_Linear_5,2,5,63,98,1602035004
9316,19,Jits_Linear_5,3,5,80,127,1602038512
9316,19,Jits_Linear_5,0,1,48,33,1602545676
9316,19,Jits_Linear_5,1,5,80,127,1602574644
9316,19,Jits_Linear_5,2,5,56,103,1602584916
9316,19,Jits_Linear_5,3,5,63,98,1602654584
9316,19,Jits_Linear_5,0,1,48,41,1603099244
9316,19,Jits_Linear_5,1,5,80,127,1603145132
9316,19,Jits_Linear_5,2,5,56,103,1603214656
9316,19,Jits_Linear_5,3,5,63,98,1603224924
9316,19,Jits_Linear_5,0,1,48,27,1603698060
9316,19,Jits_Linear_5,1,5,63,98,1603764624
9316,19,Jits_Linear_5,2,5,56,103,1603774896
9316,19,Jits_Linear_5,3,5,80,127,1603796532
9316,19,Jits_Linear_5,0,5,80,127,1604294956
9316,19,Jits_Linear_5,1,1,48,34,1604317780
9316,19,Jits_Linear_5,2,5,63,98,1604354372
9316,19,Jits_Linear_5,3,5,56,103,1604395456
9316,19,Jits_Linear_5,0,1,48,31,1604850736
9316,19,Jits_Linear_5,1,5,56,103,1604924820
9316,19,Jits_Linear_5,2,5,63,98,1604935092
9316,19,Jits_Linear_5,3,5,80,127,1604975016
9316,19,Jits_Linear_5,0,1,48,16,1605441472
9316,19,Jits_Linear_5,1,5,56,103,1605474704
9316,19,Jits_Linear_5,2,5,80,127,1605505500
9316,19,Jits_Linear_5,3,5,63,98,1605554492
9316,19,Jits_Linear_5,0,1,48,25,1606012480
9316,19,Jits_Linear_5,1,5,56,103,1606104528
9316,19,Jits_Linear_5,2,5,63,98,1606145500
9316,19,Jits_Linear_5,3,5,80,127,1606148716
9316,19,Jits_Linear_5,0,1,48,32,1606579660
9316,19,Jits_Linear_5,1,5,56,103,1606695388
9316,19,Jits_Linear_5,2,5,63,98,1606704540
9316,19,Jits_Linear_5,3,5,80,127,1606725072
9316,19,Jits_Linear_5,0,1,48,41,1607168508
9316,19,Jits_Linear_5,1,5,56,103,1607245284
9316,19,Jits_Linear_5,2,5,80,127,1607248424
9316,19,Jits_Linear_5,3,5,63,98,1607285208
9316,19,Jits_Linear_5,0,1,48,38,1607717576
9316,19,Jits_Linear_5,1,5,63,98,1607874860
9316,19,Jits_Linear_5,2,5,56,103,1607904612
9316,19,Jits_Linear_5,3,5,80,127,1607925368
9316,19,Jits_Linear_5,0,1,48,42,1608321324
9316,19,Jits_Linear_5,1,5,80,127,1608445420
9316,19,Jits_Linear_5,2,5,56,103,1608454644
9316,19,Jits_Linear_5,3,5,63,98,1608464640
9316,19,Jits_Linear_5,0,1,48,43,1608941704
9316,19,Jits_Linear_5,1,5,56,103,1609045516
9316,19,Jits_Linear_5,2,5,80,127,1609085384
9316,19,Jits_Linear_5,3,5,63,98,1609115060
9316,19,Jits_Linear_5,0,1,48,34,1609589012
9316,19,Jits_Linear_5,1,5,63,98,1609654608
9316,19,Jits_Linear_5,2,5,80,127,1609664876
9316,19,Jits_Linear_5,3,5,56,103,1609675372
9316,19,Jits_Linear_5,0,1,48,26,1610154328
9316,19,Jits_Linear_5,1,5,56,103,1610235492
9316,19,Jits_Linear_5,2,5,63,98,1610304892
9316,19,Jits_Linear_5,3,5,80,127,1610315164
9316,19,Jits_Linear_5,0,1,48,30,1610736952
9316,19,Jits_Linear_5,1,5,80,127,1610844656
9316,19,Jits_Linear_5,2,5,56,103,1610854704
9316,19,Jits_Linear_5,3,5,63,98,1610904904
9316,19,Jits_Linear_5,0,1,48,45,1611352716
9316,19,Jits_Linear_5,1,5,80,127,1611464964
9316,19,Jits_Linear_5,2,5,56,103,1611524608
9316,19,Jits_Linear_5,3,5,63,98,1611555356
9316,19,Jits_Linear_5,0,1,48,30,1611975800
9316,19,Jits_Linear_5,1,5,56,103,1612075332
9316,19,Jits_Linear_5,2,5,80,127,1612078400
9316,19,Jits_Linear_5,3,5,63,98,1612115496
9316,19,Jits_Linear_5,0,1,48,36,1612591244
9316,19,Jits_Linear_5,1,5,56,103,1612715264
9316,19,Jits_Linear_5,2,5,63,98,1612745092
9316,19,Jits_Linear_5,3,5,80,127,1612755288
9316,19,Jits_Linear_5,0,1,48,34,1613230140
9316,19,Jits_Linear_5,1,5,63,98,1613334780
9316,19,Jits_Linear_5,2,5,80,127,1613345200
9316,19,Jits_Linear_5,3,5,56,103,1613355544
9316,19,Jits_Linear_5,0,5,80,127,1613895172
9316,19,Jits_Linear_5,1,1,48,36,1613904144
9316,19,Jits_Linear_5,2,5,56,103,1613945292
9316,19,Jits_Linear_5,3,5,63,98,1613948508
9316,19,Jits_Linear_5,0,1,48,36,1614481576
9316,19,Jits_Linear_5,1,5,56,103,1614545448
9316,19,Jits_Linear_5,2,5,80,127,1614564860
9316,19,Jits_Linear_5,3,5,63,98,1614574980
9316,19,Jits_Linear_5,0,1,48,26,1615098440
9316,19,Jits_Linear_5,1,5,63,98,1615145328
9316,19,Jits_Linear_5,2,5,56,103,1615175304
9316,19,Jits_Linear_5,3,5,80,127,1615194404
9316,19,Jits_Linear_5,0,1,48,30,1615681832
9316,19,Jits_Linear_5,1,5,56,103,1615775212
9316,19,Jits_Linear_5,2,5,80,127,1615785408
9316,19,Jits_Linear_5,3,5,63,98,1615854864
9316,19,Jits_Linear_5,0,1,48,34,1616231564
9316,19,Jits_Linear_5,1,5,63,98,1616385332
9316,19,Jits_Linear_5,2,5,80,127,1616425444
9316,19,Jits_Linear_5,3,5,56,103,1616465384
9316,19,Jits_Linear_5,0,1,48,34,1616867840
9316,19,Jits_Linear_5,1,5,56,103,1617025300
9316,19,Jits_Linear_5,2,5,63,98,1617034896
9316,19,Jits_Linear_5,3,5,80,127,1617055352
9316,19,Jits_Linear_5,0,1,48,29,1617513656
9316,19,Jits_Linear_5,1,5,63,98,1617695380
9316,19,Jits_Linear_5,2,5,80,127,1617714496
9316,19,Jits_Linear_5,3,5,56,103,1617735176
9316,19,Jits_Linear_5,0,1,48,42,1618154796
9316,19,Jits_Linear_5,1,5,56,103,1618264520
9316,19,Jits_Linear_5,2,5,80,127,1618345216
9316,19,Jits_Linear_5,3,5,63,98,1618354516
9316,19,Jits_Linear_5,0,1,48,31,1618811308
9316,19,Jits_Linear_5,1,5,80,127,1618935328
9316,19,Jits_Linear_5,2,5,63,98,1618945448
9316,19,Jits_Linear_5,3,5,56,103,1618975224
9316,19,Jits_Linear_5,0,1,48,42,1619410636
9316,19,Jits_Linear_5,1,5,63,98,1619525092
9316,19,Jits_Linear_5,2,5,80,127,1619564812
9316,19,Jits_Linear_5,3,5,56,103,1619625424
9316,19,Jits_Linear_5,0,1,48,33,1620112036
9316,19,Jits_Linear_5,1,5,63,98,1620175240
9316,19,Jits_Linear_5,2,5,56,103,1620225352
9316,19,Jits_Linear_5,3,5,80,127,1620255352
9316,19,Jits_Linear_5,0,1,48,31,1620740888
9316,19,Jits_Linear_5,1,5,80,127,1620824348
9316,19,Jits_Linear_5,2,5,63,98,1620834604
9316,19,Jits_Linear_5,3,5,56,103,1620905256
9316,19,Jits_Linear_5,0,1,48,35,1621381752
9316,19,Jits_Linear_5,1,5,80,127,1621535248
9316,19,Jits_Linear_5,2,5,56,103,1621545292
9316,19,Jits_Linear_5,3,5,63,98,1621548432
9316,19,Jits_Linear_5,0,1,48,38,1622076724
9316,19,Jits_Linear_5,1,5,56,103,1622114812
9316,19,Jits_Linear_5,2,5,80,127,1622135348
9316,19,Jits_Linear_5,3,5,63,98,1622145320
9316,19,Jits_Linear_5,0,1,48,32,1622667588
9316,19,Jits_Linear_5,1,5,63,98,1622764796
9316,19,Jits_Linear_5,2,5,56,103,1622804820
9316,19,Jits_Linear_5,3,5,80,127,1622825428
9316,19,Jits_Linear_5,0,1,48,35,1623306732
9316,19,Jits_Linear_5,1,5,63,98,1623405048
9316,19,Jits_Linear_5,2,5,56,103,1623465364
9316,19,Jits_Linear_5,3,5,80,127,1623468280
9316,19,Jits_Linear_5,0,1,48,21,1623990712
9316,19,Jits_Linear_5,1,5,56,103,1624024320
9316,19,Jits_Linear_5,2,5,80,127,1624045000
9316,19,Jits_Linear_5,3,5,63,98,1624084892
9316,19,Jits_Linear_5,0,1,48,35,1624597040
9316,19,Jits_Linear_5,1,5,56,103,1624705324
9316,19,Jits_Linear_5,2,5,63,98,1624724812
9316,19,Jits_Linear_5,3,5,80,127,1624735232
9316,19,Jits_Linear_5,0,1,48,40,1625202824
9316,19,Jits_Linear_5,1,5,80,127,1625325252
9316,19,Jits_Linear_5,2,5,56,103,1625354732
9316,19,Jits_Linear_5,3,5,63,98,1625394524
9316,19,Jits_Linear_5,0,1,48,39,1625862864
9316,19,Jits_Linear_5,1,5,80,127,1625985372
9316,19,Jits_Linear_5,2,5,56,103,1626004860
9316,19,Jits_Linear_5,3,5,63,98,1626065400
9316,19,Jits_Linear_5,0,1,48,33,1626507444
9316,19,Jits_Linear_5,1,5,56,103,1626644968
9316,19,Jits_Linear_5,2,5,80,127,1626665280
9316,19,Jits_Linear_5,3,5,63,98,1626724700
9316,19,Jits_Linear_5,0,1,48,40,1627166212
9316,19,Jits_Linear_5,1,5,80,127,1627284984
9316,19,Jits_Linear_5,2,5,56,103,1627295104
9316,19,Jits_Linear_5,3,5,63,98,1627335268
9316,19,Jits_Linear_5,0,1,48,27,1627801116
9316,19,Jits_Linear_5,1,5,63,98,1627945320
9316,19,Jits_Linear_5,2,5,56,103,1627985332
9316,19,Jits_Linear_5,3,5,80,127,1627988324
9316,19,Jits_Linear_5,0,1,48,41,1628414008
9316,19,Jits_Linear_5,1,5,63,98,1628625180
9316,19,Jits_Linear_5,2,5,80,127,1628665272
9316,19,Jits_Linear_5,3,5,56,103,1628695196
9316,19,Jits_Linear_5,0,1,48,35,1629161100
9316,19,Jits_Linear_5,1,5,56,103,1629274436
9316,19,Jits_Linear_5,2,5,63,98,1629284708
9316,19,Jits_Linear_5,3,5,80,127,1629314308
9316,19,Jits_Linear_5,0,1,48,40,1629770564
9316,19,Jits_Linear_5,1,5,80,127,1629935048
9316,19,Jits_Linear_5,2,5,63,98,1630004684
9316,19,Jits_Linear_5,3,5,56,103,1630014808
9316,19,Jits_Linear_5,0,1,48,37,1630580536
9316,19,Jits_Linear_5,1,5,63,98,1630604776
9316,19,Jits_Linear_5,2,5,56,103,1630676244
9316,19,Jits_Linear_5,3,5,80,127,1630684420
9316,19,Jits_Linear_5,0,5,63,98,1631275316
9316,19,Jits_Linear_5,1,5,56,103,1631294804
9316,19,Jits_Linear_5,2,1,48,45,1631320172
9316,19,Jits_Linear_5,3,5,80,127,1631334812
9316,19,Jits_Linear_5,0,1,48,28,1631928552
9316,19,Jits_Linear_5,1,5,56,103,1631955328
9316,19,Jits_Linear_5,2,5,63,98,1631964476
9316,19,Jits_Linear_5,3,5,80,127,1632045480
9316,19,Jits_Linear_5,0,1,48,35,1632588292
9316,19,Jits_Linear_5,1,5,63,98,1632614624
9316,19,Jits_Linear_5,2,5,56,103,1632644452
9316,19,Jits_Linear_5,3,5,80,127,1632685420
9316,19,Jits_Linear_5,0,1,48,19,1633143348
9316,19,Jits_Linear_5,1,5,56,103,1633284440
9316,19,Jits_Linear_5,2,5,63,98,1633325352
9316,19,Jits_Linear_5,3,5,80,127,1633365216
9316,19,Jits_Linear_5,0,1,48,33,1633893504
9316,19,Jits_Linear_5,1,5,80,127,1633965304
9316,19,Jits_Linear_5,2,5,56,103,1634045236
9316,19,Jits_Linear_5,3,5,63,98,1634054560
9316,19,Jits_Linear_5,0,1,48,28,1634646080
9316,19,Jits_Linear_5,1,5,56,103,1634685208
9316,19,Jits_Linear_5,2,5,63,98,1634688276
9316,19,Jits_Linear_5,3,5,80,127,1634694512
9316,19,Jits_Linear_5,0,1,48,32,1635313056
9316,19,Jits_Linear_5,1,5,56,103,1635384660
9316,19,Jits_Linear_5,2,5,63,98,1635405192
9316,19,Jits_Linear_5,3,5,80,127,1635415448
9316,19,Jits_Linear_5,0,1,48,36,1635948144
9316,19,Jits_Linear_5,1,5,63,98,1636025048
9316,19,Jits_Linear_5,2,5,80,127,1636035168
9316,19,Jits_Linear_5,3,5,56,103,1636055468
9316,19,Jits_Linear_5,0,1,48,34,1636609208
9316,19,Jits_Linear_5,1,5,63,98,1636715044
9316,19,Jits_Linear_5,2,5,56,103,1636794840
9316,19,Jits_Linear_5,3,5,80,127,1636797756
9316,19,Jits_Linear_5,0,1,48,30,1637348516
9316,19,Jits_Linear_5,1,5,63,98,1637405212
9316,19,Jits_Linear_5,2,5,56,103,1637424476
9316,19,Jits_Linear_5,3,5,80,127,1637455256
9316,19,Jits_Linear_5,0,1,48,37,1638022352
9316,19,Jits_Linear_5,1,5,56,103,1638095272
9316,19,Jits_Linear_5,2,5,63,98,1638114536
9316,19,Jits_Linear_5,3,5,80,127,1638124868
9316,19,Jits_Linear_5,0,1,48,25,1638683892
9316,19,Jits_Linear_5,1,5,56,103,1638815016
9316,19,Jits_Linear_5,2,5,63,98,1638845064
9316,19,Jits_Linear_5,3,5,80,127,1638848204
9316,19,Jits_Linear_5,0,1,48,34,1639345176
9316,19,Jits_Linear_5,1,5,56,103,1639455196
9316,19,Jits_Linear_5,2,5,63,98,1639494988
9316,19,Jits_Linear_5,3,5,80,127,1639554404
9316,19,Jits_Linear_5,0,1,48,23,1640060568
9316,19,Jits_Linear_5,1,5,56,103,1640164960
9316,19,Jits_Linear_5,2,5,63,98,1640174936
9316,19,Jits_Linear_5,3,5,80,127,1640235352
9316,19,Jits_Linear_5,0,1,48,35,1640754856
9316,19,Jits_Linear_5,1,5,56,103,1640865008
9316,19,Jits_Linear_5,2,5,80,127,1640884644
9316,19,Jits_Linear_5,3,5,63,98,1640915292
9316,19,Jits_Linear_5,0,1,48,32,1641453456
9316,19,Jits_Linear_5,1,5,80,127,1641564532
9316,19,Jits_Linear_5,2,5,56,103,1641574952
9316,19,Jits_Linear_5,3,5,63,98,1641595188
9316,19,Jits_Linear_5,0,1,48,35,1642123908
9316,19,Jits_Linear_5,1,5,63,98,1642254692
9316,19,Jits_Linear_5,2,5,80,127,1642334712
9316,19,Jits_Linear_5,3,5,56,103,1642345208
9316,19,Jits_Linear_5,0,1,48,36,1642876480
9316,19,Jits_Linear_5,1,5,80,127,1643014604
9316,19,Jits_Linear_5,2,5,56,103,1643035064
9316,19,Jits_Linear_5,3,5,63,98,1643038128
9316,19,Jits_Linear_5,0,1,48,37,1643653480
9316,19,Jits_Linear_5,1,5,63,98,1643694484
9316,19,Jits_Linear_5,2,5,80,127,1643697848
9316,19,Jits_Linear_5,3,5,56,103,1643754936
9316,19,Jits_Linear_5,0,1,48,33,1644295376
9316,19,Jits_Linear_5,1,5,56,103,1644384488
9316,19,Jits_Linear_5,2,5,80,127,1644395056
9316,19,Jits_Linear_5,3,5,63,98,1644434980
9316,19,Jits_Linear_5,0,1,48,39,1645056384
9316,19,Jits_Linear_5,1,5,56,103,1645074792
9316,19,Jits_Linear_5,2,5,63,98,1645135112
9316,19,Jits_Linear_5,3,5,80,127,1645144336
9316,19,Jits_Linear_5,0,1,48,28,1645742352
9316,19,Jits_Linear_5,1,5,63,98,1645794964
9316,19,Jits_Linear_5,2,5,80,127,1645834708
9316,19,Jits_Linear_5,3,5,56,103,1645874484
9316,19,Jits_Linear_5,0,1,48,31,1646414672
9316,19,Jits_Linear_5,1,5,56,103,1646505280
9316,19,Jits_Linear_5,2,5,63,98,1646585288
9316,19,Jits_Linear_5,3,5,80,127,1646588576
9316,19,Jits_Linear_5,0,1,48,25,1647192936
9316,19,Jits_Linear_5,1,5,80,127,1647275304
9316,19,Jits_Linear_5,2,5,56,103,1647305116
9316,19,Jits_Linear_5,3,5,63,98,1647308180
9316,19,Jits_Linear_5,0,1,48,25,1647934336
9316,19,Jits_Linear_5,1,5,56,103,1647955336
9316,19,Jits_Linear_5,2,5,80,127,1647975048
9316,19,Jits_Linear_5,3,5,63,98,1648014768
9316,19,Jits_Linear_5,0,5,80,127,1648654948
9316,19,Jits_Linear_5,1,5,63,98,1648675184
9316,19,Jits_Linear_5,2,1,48,30,1648682416
9316,19,Jits_Linear_5,3,5,56,103,1648734820
9316,19,Jits_Linear_5,0,1,48,26,1649356372
9316,19,Jits_Linear_5,1,5,63,98,1649384800
9316,19,Jits_Linear_5,2,5,56,103,1649394920
9316,19,Jits_Linear_5,3,5,80,127,1649445148
9316,19,Jits_Linear_5,0,1,48,23,1649969652
9316,19,Jits_Linear_5,1,5,56,103,1650094572
9316,19,Jits_Linear_5,2,5,63,98,1650114956
9316,19,Jits_Linear_5,3,5,80,127,1650125228
9316,19,Jits_Linear_5,0,1,48,37,1650746052
9316,19,Jits_Linear_5,1,5,56,103,1650815384
9316,19,Jits_Linear_5,2,5,63,98,1650818672
9316,19,Jits_Linear_5,3,5,80,127,1650834868
9316,19,Jits_Linear_5,0,1,48,30,1651498452
9316,19,Jits_Linear_5,1,5,63,98,1651585320
9316,19,Jits_Linear_5,2,5,56,103,1651615132
9316,19,Jits_Linear_5,3,5,80,127,1651644736
9316,19,Jits_Linear_5,0,5,80,127,1652274744
9316,19,Jits_Linear_5,1,1,48,32,1652281972
9316,19,Jits_Linear_5,2,5,56,103,1652364872
9316,19,Jits_Linear_5,3,5,63,98,1652368012
9316,19,Jits_Linear_5,0,5,56,103,1653004768
9316,19,Jits_Linear_5,1,5,80,127,1653007760
9316,19,Jits_Linear_5,2,1,48,32,1653033812
9316,19,Jits_Linear_5,3,5,63,98,1653084632
9316,19,Jits_Linear_5,0,5,80,127,1653734916
9316,19,Jits_Linear_5,1,1,48,30,1653746428
9316,19,Jits_Linear_5,2,5,63,98,1653795180
9316,19,Jits_Linear_5,3,5,56,103,1653824852
9316,19,Jits_Linear_5,0,1,48,25,1654429920
9316,19,Jits_Linear_5,1,5,63,98,1654464868
9316,19,Jits_Linear_5,2,5,80,127,1654475140
9316,19,Jits_Linear_5,3,5,56,103,1654544980
9316,19,Jits_Linear_5,0,1,48,21,1655189008
9316,19,Jits_Linear_5,1,5,56,103,1655214440
9316,19,Jits_Linear_5,2,5,80,127,1655245164
9316,19,Jits_Linear_5,3,5,63,98,1655295280
9316,19,Jits_Linear_5,0,1,48,28,1655931680
9316,19,Jits_Linear_5,1,5,63,98,1655994880
9316,19,Jits_Linear_5,2,5,56,103,1656024556
9316,19,Jits_Linear_5,3,5,80,127,1656027472
9316,19,Jits_Linear_5,0,1,48,34,1656733556
9316,19,Jits_Linear_5,1,5,63,98,1656745420
9316,19,Jits_Linear_5,2,5,80,127,1656764684
9316,19,Jits_Linear_5,3,5,56,103,1656774952
9316,19,Jits_Linear_5,0,5,56,103,1657494924
9316,19,Jits_Linear_5,1,5,63,98,1657497992
9316,19,Jits_Linear_5,2,1,48,29,1657501184
9316,19,Jits_Linear_5,3,5,80,127,1657515304
9316,19,Jits_Linear_5,0,5,56,103,1658195428
9316,19,Jits_Linear_5,1,5,63,98,1658204576
9316,19,Jits_Linear_5,2,5,80,127,1658235228
9316,19,Jits_Linear_5,3,1,48,30,1658276180
9316,19,Jits_Linear_5,0,5,63,98,1658965392
9316,19,Jits_Linear_5,1,1,48,29,1658978024
9316,19,Jits_Linear_5,2,5,80,127,1658984872
9316,19,Jits_Linear_5,3,5,56,103,1659024664
9316,19,Jits_Linear_5,0,1,48,28,1659675596
9316,19,Jits_Linear_5,1,5,56,103,1659744856
9316,19,Jits_Linear_5,2,5,63,98,1659784780
9316,19,Jits_Linear_5,3,5,80,127,1659787920
9316,19,Jits_Linear_5,0,5,80,127,1660434792
9316,19,Jits_Linear_5,1,1,48,31,1660466080
9316,19,Jits_Linear_5,2,5,56,103,1660474652
9316,19,Jits_Linear_5,3,5,63,98,1660524780
9316,19,Jits_Linear_5,0,1,48,28,1661196636
9316,19,Jits_Linear_5,1,5,56,103,1661244764
9316,19,Jits_Linear_5,2,5,80,127,1661254960
9316,19,Jits_Linear_5,3,5,63,98,1661284712
9316,19,Jits_Linear_5,0,5,56,103,1661945172
9316,19,Jits_Linear_5,1,1,48,20,1661980080
9316,19,Jits_Linear_5,2,5,80,127,1661985208
9316,19,Jits_Linear_5,3,5,63,98,1662035184
9316,19,Jits_Linear_5,0,5,56,103,1662704952
9316,19,Jits_Linear_5,1,1,48,28,1662731688
9316,19,Jits_Linear_5,2,5,80,127,1662744836
9316,19,Jits_Linear_5,3,5,63,98,1662795188
9316,19,Jits_Linear_5,0,1,48,27,1663439292
9316,19,Jits_Linear_5,1,5,80,127,1663454684
9316,19,Jits_Linear_5,2,5,63,98,1663534436
9316,19,Jits_Linear_5,3,5,56,103,1663544616
9316,19,Jits_Linear_5,0,1,48,28,1664216444
9316,19,Jits_Linear_5,1,5,80,127,1664264748
9316,19,Jits_Linear_5,2,5,56,103,1664274796
9316,19,Jits_Linear_5,3,5,63,98,1664295180
9316,19,Jits_Linear_5,0,5,63,98,1664994672
9316,19,Jits_Linear_5,1,1,48,29,1665021828
9316,19,Jits_Linear_5,2,5,56,103,1665065344
9316,19,Jits_Linear_5,3,5,80,127,1665068336
9316,19,Jits_Linear_5,0,1,48,32,1665705020
9316,19,Jits_Linear_5,1,5,80,127,1665754644
9316,19,Jits_Linear_5,2,5,63,98,1665804784
9316,19,Jits_Linear_5,3,5,56,103,1665844724
9316,19,Jits_Linear_5,0,1,48,37,1666453388
9316,19,Jits_Linear_5,1,5,63,98,1666564836
9316,19,Jits_Linear_5,2,5,56,103,1666605676
9316,19,Jits_Linear_5,3,5,80,127,1666614604
9316,19,Jits_Linear_5,0,1,48,26,1667283512
9316,19,Jits_Linear_5,1,5,63,98,1667325272
9316,19,Jits_Linear_5,2,5,56,103,1667344784
9316,19,Jits_Linear_5,3,5,80,127,1667365168
9316,19,Jits_Linear_5,0,5,80,127,1668055516
9316,19,Jits_Linear_5,1,5,56,103,1668064740
9316,19,Jits_Linear_5,2,1,48,29,1668077224
9316,19,Jits_Linear_5,3,5,63,98,1668085192
9316,19,Jits_Linear_5,0,1,48,28,1668713956
9316,19,Jits_Linear_5,1,5,63,98,1668855124
9316,19,Jits_Linear_5,2,5,56,103,1668895092
9316,19,Jits_Linear_5,3,5,80,127,1668924768
9316,19,Jits_Linear_5,0,1,48,35,1669495300
9316,19,Jits_Linear_5,1,5,56,103,1669634672
9316,19,Jits_Linear_5,2,5,63,98,1669665096
9316,19,Jits_Linear_5,3,5,80,127,1669694776
9316,19,Jits_Linear_5,0,5,80,127,1670384992
9316,19,Jits_Linear_5,1,1,48,16,1670432180
9316,19,Jits_Linear_5,2,5,56,103,1670454620
9316,19,Jits_Linear_5,3,5,63,98,1670457760
9316,19,Jits_Linear_5,0,5,56,103,1671174604
9316,19,Jits_Linear_5,1,1,48,31,1671194960
9316,19,Jits_Linear_5,2,5,63,98,1671224580
9316,19,Jits_Linear_5,3,5,80,127,1671255452
9316,19,Jits_Linear_5,0,5,63,98,1671935476
9316,19,Jits_Linear_5,1,5,80,127,1671938984
9316,19,Jits_Linear_5,2,1,48,36,1671964616
9316,19,Jits_Linear_5,3,5,56,103,1671994688
9316,19,Jits_Linear_5,0,1,48,32,1672668740
9316,19,Jits_Linear_5,1,5,56,103,1672745444
9316,19,Jits_Linear_5,2,5,80,127,1672754520
9316,19,Jits_Linear_5,3,5,63,98,1672804632
9316,19,Jits_Linear_5,0,1,48,29,1673503464
9316,19,Jits_Linear_5,1,5,63,98,1673505056
9316,19,Jits_Linear_5,2,5,56,103,1673515476
9316,19,Jits_Linear_5,3,5,80,127,1673544928
9316,19,Jits_Linear_5,0,1,48,39,1674245236
9316,19,Jits_Linear_5,1,5,63,98,1674325424
9316,19,Jits_Linear_5,2,5,80,127,1674328788
9316,19,Jits_Linear_5,3,5,56,103,1674355084
9316,19,Jits_Linear_5,0,1,48,32,1675075036
9316,19,Jits_Linear_5,1,5,63,98,1675135448
9316,19,Jits_Linear_5,2,5,56,103,1675154708
9316,19,Jits_Linear_5,3,5,80,127,1675157852
9316,19,Jits_Linear_5,0,1,48,33,1675883196
9316,19,Jits_Linear_5,1,5,63,98,1675884860
9316,19,Jits_Linear_5,2,5,56,103,1675954544
9316,19,Jits_Linear_5,3,5,80,127,1675976260
9316,19,Jits_Linear_5,0,5,56,103,1676665456
9316,19,Jits_Linear_5,1,5,63,98,1676674384
9316,19,Jits_Linear_5,2,1,48,27,1676689488
9316,19,Jits_Linear_5,3,5,80,127,1676764660
9316,19,Jits_Linear_5,0,5,56,103,1677475356
9316,19,Jits_Linear_5,1,1,48,42,1677480496
9316,19,Jits_Linear_5,2,5,80,127,1677515068
9316,19,Jits_Linear_5,3,5,63,98,1677525488
9316,19,Jits_Linear_5,0,1,48,24,1678207600
9316,19,Jits_Linear_5,1,5,56,103,1678295592
9316,19,Jits_Linear_5,2,5,63,98,1678325104
9316,19,Jits_Linear_5,3,5,80,127,1678354732
9316,19,Jits_Linear_5,0,1,48,42,1679016292
9316,19,Jits_Linear_5,1,5,80,127,1679055428
9316,19,Jits_Linear_5,2,5,63,98,1679095292
9316,19,Jits_Linear_5,3,5,56,103,1679114568
9316,19,Jits_Linear_5,0,1,48,43,1679860932
9316,19,Jits_Linear_5,1,5,56,103,1679894856
9316,19,Jits_Linear_5,2,5,80,127,1679915392
9316,19,Jits_Linear_5,3,5,63,98,1679934804
9316,19,Jits_Linear_5,0,1,48,36,1680619568
9316,19,Jits_Linear_5,1,5,63,98,1680664880
9316,19,Jits_Linear_5,2,5,56,103,1680675596
9316,19,Jits_Linear_5,3,5,80,127,1680734556
9316,19,Jits_Linear_5,0,1,48,39,1681330248
9316,19,Jits_Linear_5,1,5,56,103,1681474896
9316,19,Jits_Linear_5,2,5,63,98,1681544656
9316,19,Jits_Linear_5,3,5,80,127,1681565040
9316,19,Jits_Linear_5,0,1,48,40,1682195752
9316,19,Jits_Linear_5,1,5,56,103,1682284860
9316,19,Jits_Linear_5,2,5,63,98,1682314596
9316,19,Jits_Linear_5,3,5,80,127,1682354684
9316,19,Jits_Linear_5,0,1,48,30,1683050052
9316,19,Jits_Linear_5,1,5,63,98,1683084700
9316,19,Jits_Linear_5,2,5,56,103,1683134908
9316,19,Jits_Linear_5,3,5,80,127,1683145236
9316,19,Jits_Linear_5,0,1,48,32,1683833196
9316,19,Jits_Linear_5,1,5,56,103,1683934500
9316,19,Jits_Linear_5,2,5,63,98,1683984804
9316,19,Jits_Linear_5,3,5,80,127,1683995076
9316,19,Jits_Linear_5,0,5,56,103,1684714812
9316,19,Jits_Linear_5,1,5,63,98,1684725232
9316,19,Jits_Linear_5,2,1,48,41,1684740732
9316,19,Jits_Linear_5,3,5,80,127,1684805272
9316,19,Jits_Linear_5,0,9999,9999,9999,1575962700
9316,19,Jits_Linear_5,1,9999,9999,9999,1576442984
9316,19,Jits_Linear_5,2,9999,9999,9999,1576922176
9316,19,Jits_Linear_5,3,9999,9999,9999,1577402468
9316,19,Jits_Linear_5,4,9999,9999,9999,1577882684
9316,19,Jits_Linear_5,5,9999,9999,9999,1578372188
9316,19,Jits_Linear_5,6,9999,9999,9999,1578862660
9316,19,Jits_Linear_5,7,9999,9999,9999,1579352176
9316,19,Jits_Linear_5,8,9999,9999,9999,1579842644
9316,19,Jits_Linear_5,9,9999,9999,9999,1580332148
9316,19,Jits_Linear_5,10,9999,9999,9999,1580832880
9316,19,Jits_Linear_5,11,9999,9999,9999,1581332572
9316,19,Jits_Linear_5,12,9999,9999,9999,1581832252
9316,19,Jits_Linear_5,13,9999,9999,9999,1582333036
9316,19,Jits_Linear_5,14,9999,9999,9999,1582832712
9316,19,Jits_Linear_5,15,9999,9999,9999,1583342664
9316,19,Jits_Linear_5,16,9999,9999,9999,1583852616
9316,19,Jits_Linear_5,17,9999,9999,9999,1584362568
9316,19,Jits_Linear_5,18,9999,9999,9999,1584872516
9316,19,Jits_Linear_5,19,9999,9999,9999,1585382472
9316,19,Jits_Linear_5,20,9999,9999,9999,1585902704
9316,19,Jits_Linear_5,21,9999,9999,9999,1586422864
9316,19,Jits_Linear_5,22,9999,9999,9999,1586943088
9316,19,Jits_Linear_5,23,9999,9999,9999,1587462272
9316,19,Jits_Linear_5,24,9999,9999,9999,1587982448
9316,19,Jits_Linear_5,25,9999,9999,9999,1588512848
9316,19,Jits_Linear_5,26,9999,9999,9999,1589042284
9316,19,Jits_Linear_5,27,9999,9999,9999,1589572668
9316,19,Jits_Linear_5,28,9999,9999,9999,1590102104
9316,19,Jits_Linear_5,29,9999,9999,9999,1590632508
9316,19,Jits_Linear_5,30,9999,9999,9999,1591172204
9316,19,Jits_Linear_5,31,9999,9999,9999,1591712872
9316,19,Jits_Linear_5,32,9999,9999,9999,1592252492
9316,19,Jits_Linear_5,33,9999,9999,9999,1592792188
9316,19,Jits_Linear_5,34,9999,9999,9999,1593332852
9316,19,Jits_Linear_5,35,9999,9999,9999,1593882692
9316,19,Jits_Linear_5,36,9999,9999,9999,1594432568
9316,19,Jits_Linear_5,37,9999,9999,9999,1594982456
9316,19,Jits_Linear_5,38,9999,9999,9999,1595532356
9316,19,Jits_Linear_5,39,9999,9999,9999,1596082248
9316,19,Jits_Linear_5,40,9999,9999,9999,1596642400
9316,19,Jits_Linear_5,41,9999,9999,9999,1597202496
9316,19,Jits_Linear_5,42,9999,9999,9999,1597762640
9316,19,Jits_Linear_5,43,9999,9999,9999,1598322788
9316,19,Jits_Linear_5,44,9999,9999,9999,1598882936
9316,19,Jits_Linear_5,45,9999,9999,9999,1599452228
9316,19,Jits_Linear_5,46,9999,9999,9999,1600022588
9316,19,Jits_Linear_5,47,9999,9999,9999,1600593004
9316,19,Jits_Linear_5,48,9999,9999,9999,1601162296
9316,19,Jits_Linear_5,49,9999,9999,9999,1601732712
9316,19,Jits_Linear_5,50,9999,9999,9999,1602312280
9316,19,Jits_Linear_5,51,9999,9999,9999,1602892880
9316,19,Jits_Linear_5,52,9999,9999,9999,1603472508
9316,19,Jits_Linear_5,53,9999,9999,9999,1604053112
9316,19,Jits_Linear_5,54,9999,9999,9999,1604632688
9316,19,Jits_Linear_5,55,9999,9999,9999,1605222524
9316,19,Jits_Linear_5,56,9999,9999,9999,1605812340
9316,19,Jits_Linear_5,57,9999,9999,9999,1606402148
9316,19,Jits_Linear_5,58,9999,9999,9999,1606992960
9316,19,Jits_Linear_5,59,9999,9999,9999,1607582836
9316,19,Jits_Linear_5,60,9999,9999,9999,1608182844
9316,19,Jits_Linear_5,61,9999,9999,9999,1608782944
9316,19,Jits_Linear_5,62,9999,9999,9999,1609383020
9316,19,Jits_Linear_5,63,9999,9999,9999,1609983096
9316,19,Jits_Linear_5,64,9999,9999,9999,1610582076
9316,19,Jits_Linear_5,65,9999,9999,9999,1611192420
9316,19,Jits_Linear_5,66,9999,9999,9999,1611802716
9316,19,Jits_Linear_5,67,9999,9999,9999,1612413048
9316,19,Jits_Linear_5,68,9999,9999,9999,1613022276
9316,19,Jits_Linear_5,69,9999,9999,9999,1613632572
9316,19,Jits_Linear_5,70,9999,9999,9999,1614252120
9316,19,Jits_Linear_5,71,9999,9999,9999,1614872692
9316,19,Jits_Linear_5,72,9999,9999,9999,1615492180
9316,19,Jits_Linear_5,73,9999,9999,9999,1616112712
9316,19,Jits_Linear_5,74,9999,9999,9999,1616732224
9316,19,Jits_Linear_5,75,9999,9999,9999,1617363020
9316,19,Jits_Linear_5,76,9999,9999,9999,1617992800
9316,19,Jits_Linear_5,77,9999,9999,9999,1618622548
9316,19,Jits_Linear_5,78,9999,9999,9999,1619252328
9316,19,Jits_Linear_5,79,9999,9999,9999,1619883124
9316,19,Jits_Linear_5,80,9999,9999,9999,1620523088
9316,19,Jits_Linear_5,81,9999,9999,9999,1621163104
9316,19,Jits_Linear_5,82,9999,9999,9999,1621803068
9316,19,Jits_Linear_5,83,9999,9999,9999,1622443084
9316,19,Jits_Linear_5,84,9999,9999,9999,1623083124
9316,19,Jits_Linear_5,85,9999,9999,9999,1623742540
9316,19,Jits_Linear_5,86,9999,9999,9999,1624392768
9316,19,Jits_Linear_5,87,9999,9999,9999,1625043044
9316,19,Jits_Linear_5,88,9999,9999,9999,1625692224
9316,19,Jits_Linear_5,89,9999,9999,9999,1626342504
9316,19,Jits_Linear_5,90,9999,9999,9999,1627002996
9316,19,Jits_Linear_5,91,9999,9999,9999,1627662436
9316,19,Jits_Linear_5,92,9999,9999,9999,1628322892
9316,19,Jits_Linear_5,93,9999,9999,9999,1628982336
9316,19,Jits_Linear_5,94,9999,9999,9999,1629642872
9316,19,Jits_Linear_5,95,9999,9999,9999,1630312508
9316,19,Jits_Linear_5,96,9999,9999,9999,1630982220
9316,19,Jits_Linear_5,97,9999,9999,9999,1631652948
9316,19,Jits_Linear_5,98,9999,9999,9999,1632322656
9316,19,Jits_Linear_5,99,9999,9999,9999,1632992340
9316,19,Jits_Linear_5,100,9999,9999,9999,1633672288
9316,19,Jits_Linear_5,101,9999,9999,9999,1634352188
9316,19,Jits_Linear_5,102,9999,9999,9999,1635032128
9316,19,Jits_Linear_5,103,9999,9999,9999,1635712104
9316,19,Jits_Linear_5,104,9999,9999,9999,1636393048
9316,19,Jits_Linear_5,105,9999,9999,9999,1637082204
9316,19,Jits_Linear_5,106,9999,9999,9999,1637772364
9316,19,Jits_Linear_5,107,9999,9999,9999,1638462524
9316,19,Jits_Linear_5,108,9999,9999,9999,1639152732
9316,19,Jits_Linear_5,109,9999,9999,9999,1639842892
9316,19,Jits_Linear_5,110,9999,9999,9999,1640542268
9316,19,Jits_Linear_5,111,9999,9999,9999,1641242688
9316,19,Jits_Linear_5,112,9999,9999,9999,1641942112
9316,19,Jits_Linear_5,113,9999,9999,9999,1642642536
9316,19,Jits_Linear_5,114,9999,9999,9999,1643342956
9316,19,Jits_Linear_5,115,9999,9999,9999,1644052588
9316,19,Jits_Linear_5,116,9999,9999,9999,1644762200
9316,19,Jits_Linear_5,117,9999,9999,9999,1645472884
9316,19,Jits_Linear_5,118,9999,9999,9999,1646182524
9316,19,Jits_Linear_5,119,9999,9999,9999,1646892156
9316,19,Jits_Linear_5,120,9999,9999,9999,1647613004
9316,19,Jits_Linear_5,121,9999,9999,9999,1648332904
9316,19,Jits_Linear_5,122,9999,9999,9999,1649052736
9316,19,Jits_Linear_5,123,9999,9999,9999,1649772652
9316,19,Jits_Linear_5,124,9999,9999,9999,1650492476
9316,19,Jits_Linear_5,125,9999,9999,9999,1651222628
9316,19,Jits_Linear_5,126,9999,9999,9999,1651952700
9316,19,Jits_Linear_5,127,9999,9999,9999,1652682864
9316,19,Jits_Linear_5,128,9999,9999,9999,1653412956
9316,19,Jits_Linear_5,129,9999,9999,9999,1654143068
9316,19,Jits_Linear_5,130,9999,9999,9999,1654882388
9316,19,Jits_Linear_5,131,9999,9999,9999,1655622744
9316,19,Jits_Linear_5,132,9999,9999,9999,1656363096
9316,19,Jits_Linear_5,133,9999,9999,9999,1657112668
9316,19,Jits_Linear_5,134,9999,9999,9999,1657852996
9316,19,Jits_Linear_5,135,9999,9999,9999,1658602576
9316,19,Jits_Linear_5,136,9999,9999,9999,1659352168
9316,19,Jits_Linear_5,137,9999,9999,9999,1660102784
9316,19,Jits_Linear_5,138,9999,9999,9999,1660852284
9316,19,Jits_Linear_5,139,9999,9999,9999,1661602924
9316,19,Jits_Linear_5,140,9999,9999,9999,1662362688
9316,19,Jits_Linear_5,141,9999,9999,9999,1663122540
9316,19,Jits_Linear_5,142,9999,9999,9999,1663882320
9316,19,Jits_Linear_5,143,9999,9999,9999,1664642160
9316,19,Jits_Linear_5,144,9999,9999,9999,1665402960
9316,19,Jits_Linear_5,145,9999,9999,9999,1666172988
9316,19,Jits_Linear_5,146,9999,9999,9999,1666943092
9316,19,Jits_Linear_5,147,9999,9999,9999,1667712076
9316,19,Jits_Linear_5,148,9999,9999,9999,1668482168
9316,19,Jits_Linear_5,149,9999,9999,9999,1669252212
9316,19,Jits_Linear_5,150,9999,9999,9999,1670032480
9316,19,Jits_Linear_5,151,9999,9999,9999,1670812760
9316,19,Jits_Linear_5,152,9999,9999,9999,1671593068
9316,19,Jits_Linear_5,153,9999,9999,9999,1672372308
9316,19,Jits_Linear_5,154,9999,9999,9999,1673152600
9316,19,Jits_Linear_5,155,9999,9999,9999,1673942104
9316,19,Jits_Linear_5,156,9999,9999,9999,1674732648
9316,19,Jits_Linear_5,157,9999,9999,9999,1675522144
9316,19,Jits_Linear_5,158,9999,9999,9999,1676312648
9316,19,Jits_Linear_5,159,9999,9999,9999,1677102152
9316,19,Jits_Linear_5,160,9999,9999,9999,1677902912
9316,19,Jits_Linear_5,161,9999,9999,9999,1678702700
9316,19,Jits_Linear_5,162,9999,9999,9999,1679502392
9316,19,Jits_Linear_5,163,9999,9999,9999,1680302164
9316,19,Jits_Linear_5,164,9999,9999,9999,1681102900
9316,19,Jits_Linear_5,165,9999,9999,9999,1681912936
9316,19,Jits_Linear_5,166,9999,9999,9999,1682722908
9316,19,Jits_Linear_5,167,9999,9999,9999,1683532860
9316,19,Jits_Linear_5,168,9999,9999,9999,1684342896
9316,19,Jits_Linear_5,169,9999,9999,9999,1685152852
9317,18,Jits_Linear_8,0,5,56,103,1695657280
9317,18,Jits_Linear_8,1,5,63,98,1695660308
9317,18,Jits_Linear_8,2,5,80,127,1695663580
9317,18,Jits_Linear_8,0,5,56,103,1696476468
9317,18,Jits_Linear_8,1,5,63,98,1696479644
9317,18,Jits_Linear_8,2,5,80,127,1696482692
9317,18,Jits_Linear_8,0,5,80,127,1697237308
9317,18,Jits_Linear_8,1,1,48,46,1697270616
9317,18,Jits_Linear_8,2,5,63,98,1697326416
9317,18,Jits_Linear_8,3,5,56,103,1697336836
9317,18,Jits_Linear_8,0,1,48,50,1698076132
9317,18,Jits_Linear_8,1,5,56,103,1698077624
9317,18,Jits_Linear_8,2,5,63,98,1698087152
9317,18,Jits_Linear_8,3,5,80,127,1698177416
9317,18,Jits_Linear_8,0,5,63,98,1698866672
9317,18,Jits_Linear_8,1,5,80,127,1698897172
9317,18,Jits_Linear_8,2,5,56,103,1698926924
9317,18,Jits_Linear_8,3,1,48,44,1698935740
9317,18,Jits_Linear_8,0,1,48,46,1699644892
9317,18,Jits_Linear_8,1,5,56,103,1699687092
9317,18,Jits_Linear_8,2,5,80,127,1699787176
9317,18,Jits_Linear_8,3,5,63,98,1699837304
9317,18,Jits_Linear_8,0,5,56,103,1700496968
9317,18,Jits_Linear_8,1,5,80,127,1700547020
9317,18,Jits_Linear_8,2,1,48,40,1700565136
9317,18,Jits_Linear_8,3,5,63,98,1700586952
9317,18,Jits_Linear_8,0,1,48,35,1701307568
9317,18,Jits_Linear_8,1,5,80,127,1701336436
9317,18,Jits_Linear_8,2,5,63,98,1701367088
9317,18,Jits_Linear_8,3,5,56,103,1701437000
9317,18,Jits_Linear_8,0,1,48,49,1702126056
9317,18,Jits_Linear_8,1,5,63,98,1702177052
9317,18,Jits_Linear_8,2,5,56,103,1702207176
9317,18,Jits_Linear_8,3,5,80,127,1702267176
9317,18,Jits_Linear_8,0,5,56,103,1702926692
9317,18,Jits_Linear_8,1,5,80,127,1702929832
9317,18,Jits_Linear_8,2,1,48,45,1702982172
9317,18,Jits_Linear_8,3,5,63,98,1703046484
9317,18,Jits_Linear_8,0,1,48,36,1703721388
9317,18,Jits_Linear_8,1,5,56,103,1703807284
9317,18,Jits_Linear_8,2,5,80,127,1703847208
9317,18,Jits_Linear_8,3,5,63,98,1703856508
9317,18,Jits_Linear_8,0,1,48,38,1704562280
9317,18,Jits_Linear_8,1,5,56,103,1704567108
9317,18,Jits_Linear_8,2,5,80,127,1704586520
9317,18,Jits_Linear_8,3,5,63,98,1704666528
9317,18,Jits_Linear_8,0,5,80,127,1705356532
9317,18,Jits_Linear_8,1,1,48,40,1705396372
9317,18,Jits_Linear_8,2,5,56,103,1705457224
9317,18,Jits_Linear_8,3,5,63,98,1705467344
9317,18,Jits_Linear_8,0,5,63,98,1706126784
9317,18,Jits_Linear_8,1,1,48,34,1706155684
9317,18,Jits_Linear_8,2,5,80,127,1706187244
9317,18,Jits_Linear_8,3,5,56,103,1706197292
9317,18,Jits_Linear_8,0,1,48,40,1706876824
9317,18,Jits_Linear_8,1,5,56,103,1706926524
9317,18,Jits_Linear_8,2,5,63,98,1706997088
9317,18,Jits_Linear_8,3,5,80,127,1707000452
9317,18,Jits_Linear_8,0,1,48,33,1707642916
9317,18,Jits_Linear_8,1,5,63,98,1707756968
9317,18,Jits_Linear_8,2,5,56,103,1707807048
9317,18,Jits_Linear_8,3,5,80,127,1707810112
9317,18,Jits_Linear_8,0,1,48,38,1708485980
9317,18,Jits_Linear_8,1,5,56,103,1708506452
9317,18,Jits_Linear_8,2,5,80,127,1708509520
9317,18,Jits_Linear_8,3,5,63,98,1708596668
9317,18,Jits_Linear_8,0,1,48,33,1709311032
9317,18,Jits_Linear_8,1,5,63,98,1709337160
9317,18,Jits_Linear_8,2,5,56,103,1709426984
9317,18,Jits_Linear_8,3,5,80,127,1709457104
9317,18,Jits_Linear_8,0,5,56,103,1710117220
9317,18,Jits_Linear_8,1,1,48,34,1710169564
9317,18,Jits_Linear_8,2,5,63,98,1710216644
9317,18,Jits_Linear_8,3,5,80,127,1710247288
9317,18,Jits_Linear_8,0,5,63,98,1710927332
9317,18,Jits_Linear_8,1,5,56,103,1710936332
9317,18,Jits_Linear_8,2,1,48,31,1710951956
9317,18,Jits_Linear_8,3,5,80,127,1711026608
9317,18,Jits_Linear_8,0,5,63,98,1711726940
9317,18,Jits_Linear_8,1,1,48,32,1711745204
9317,18,Jits_Linear_8,2,5,56,103,1711806804
9317,18,Jits_Linear_8,3,5,80,127,1711809872
9317,18,Jits_Linear_8,0,1,48,32,1712449252
9317,18,Jits_Linear_8,1,5,80,127,1712467264
9317,18,Jits_Linear_8,2,5,63,98,1712486752
9317,18,Jits_Linear_8,3,5,56,103,1712547128
9317,18,Jits_Linear_8,0,1,48,39,1713223376
9317,18,Jits_Linear_8,1,5,56,103,1713286572
9317,18,Jits_Linear_8,2,5,63,98,1713306956
9317,18,Jits_Linear_8,3,5,80,127,1713310396
9317,18,Jits_Linear_8,0,5,63,98,1714007280
9317,18,Jits_Linear_8,1,1,48,29,1714009220
9317,18,Jits_Linear_8,2,5,80,127,1714087296
9317,18,Jits_Linear_8,3,5,56,103,1714096592
9317,18,Jits_Linear_8,0,1,48,38,1714786024
9317,18,Jits_Linear_8,1,5,63,98,1714807104
9317,18,Jits_Linear_8,2,5,56,103,1714826740
9317,18,Jits_Linear_8,3,5,80,127,1714876716
9317,18,Jits_Linear_8,0,1,48,28,1715525164
9317,18,Jits_Linear_8,1,5,80,127,1715586548
9317,18,Jits_Linear_8,2,5,63,98,1715627448
9317,18,Jits_Linear_8,3,5,56,103,1715646936
9317,18,Jits_Linear_8,0,1,48,31,1716296596
9317,18,Jits_Linear_8,1,5,56,103,1716397376
9317,18,Jits_Linear_8,2,5,63,98,1716406900
9317,18,Jits_Linear_8,3,5,80,127,1716427060
9317,18,Jits_Linear_8,0,1,48,38,1717085420
9317,18,Jits_Linear_8,1,5,56,103,1717096972
9317,18,Jits_Linear_8,2,5,63,98,1717186872
9317,18,Jits_Linear_8,3,5,80,127,1717247264
9317,18,Jits_Linear_8,0,1,48,38,1717867640
9317,18,Jits_Linear_8,1,5,80,127,1717896508
9317,18,Jits_Linear_8,2,5,56,103,1717907004
9317,18,Jits_Linear_8,3,5,63,98,1717976296
9317,18,Jits_Linear_8,0,1,48,39,1718583236
9317,18,Jits_Linear_8,1,5,63,98,1718697368
9317,18,Jits_Linear_8,2,5,80,127,1718786408
9317,18,Jits_Linear_8,3,5,56,103,1718796900
9317,18,Jits_Linear_8,0,5,63,98,1719396684
9317,18,Jits_Linear_8,1,1,48,37,1719424608
9317,18,Jits_Linear_8,2,5,80,127,1719446880
9317,18,Jits_Linear_8,3,5,56,103,1719507344
9317,18,Jits_Linear_8,0,1,48,36,1720143716
9317,18,Jits_Linear_8,1,5,56,103,1720187360
9317,18,Jits_Linear_8,2,5,80,127,1720237340
9317,18,Jits_Linear_8,3,5,63,98,1720256812
9317,18,Jits_Linear_8,0,1,48,33,1720883460
9317,18,Jits_Linear_8,1,5,56,103,1720917360
9317,18,Jits_Linear_8,2,5,80,127,1720976916
9317,18,Jits_Linear_8,3,5,63,98,1721047344
9317,18,Jits_Linear_8,0,5,56,103,1721677112
9317,18,Jits_Linear_8,1,1,48,27,1721692512
9317,18,Jits_Linear_8,2,5,80,127,1721707004
9317,18,Jits_Linear_8,3,5,63,98,1721736828
9317,18,Jits_Linear_8,0,1,48,39,1722336484
9317,18,Jits_Linear_8,1,5,56,103,1722477000
9317,18,Jits_Linear_8,2,5,80,127,1722497756
9317,18,Jits_Linear_8,3,5,63,98,1722556728
9317,18,Jits_Linear_8,0,1,48,39,1723154776
9317,18,Jits_Linear_8,1,5,80,127,1723316692
9317,18,Jits_Linear_8,2,5,56,103,1723326964
9317,18,Jits_Linear_8,3,5,63,98,1723337084
9317,18,Jits_Linear_8,0,1,48,30,1723996040
9317,18,Jits_Linear_8,1,5,56,103,1724027160
9317,18,Jits_Linear_8,2,5,80,127,1724067172
9317,18,Jits_Linear_8,3,5,63,98,1724096832
9317,18,Jits_Linear_8,0,5,56,103,1724747132
9317,18,Jits_Linear_8,1,5,63,98,1724776808
9317,18,Jits_Linear_8,2,1,48,21,1724779704
9317,18,Jits_Linear_8,3,5,80,127,1724816668
9317,18,Jits_Linear_8,0,5,80,127,1725446584
9317,18,Jits_Linear_8,1,1,48,28,1725458920
9317,18,Jits_Linear_8,2,5,63,98,1725496856
9317,18,Jits_Linear_8,3,5,56,103,1725517164
9317,18,Jits_Linear_8,0,1,48,39,1726163340
9317,18,Jits_Linear_8,1,5,56,103,1726226936
9317,18,Jits_Linear_8,2,5,80,127,1726296680
9317,18,Jits_Linear_8,3,5,63,98,1726357068
9317,18,Jits_Linear_8,0,1,48,37,1726963692
9317,18,Jits_Linear_8,1,5,80,127,1726967104
9317,18,Jits_Linear_8,2,5,63,98,1727057192
9317,18,Jits_Linear_8,3,5,56,103,1727076664
9317,18,Jits_Linear_8,0,1,48,36,1727723372
9317,18,Jits_Linear_8,1,5,63,98,1727726932
9317,18,Jits_Linear_8,2,5,56,103,1727746444
9317,18,Jits_Linear_8,3,5,80,127,1727787576
9317,18,Jits_Linear_8,0,5,80,127,1728427348
9317,18,Jits_Linear_8,1,5,63,98,1728446836
9317,18,Jits_Linear_8,2,1,48,35,1728487192
9317,18,Jits_Linear_8,3,5,56,103,1728526796
9317,18,Jits_Linear_8,0,5,63,98,1729156616
9317,18,Jits_Linear_8,1,1,48,31,1729183324
9317,18,Jits_Linear_8,2,5,56,103,1729267120
9317,18,Jits_Linear_8,3,5,80,127,1729270184
9317,18,Jits_Linear_8,0,5,63,98,1729917252
9317,18,Jits_Linear_8,1,5,56,103,1729926696
9317,18,Jits_Linear_8,2,5,80,127,1729929688
9317,18,Jits_Linear_8,3,1,48,21,1729932880
9317,18,Jits_Linear_8,0,1,48,49,1730548352
9317,18,Jits_Linear_8,1,1,48,19,1730629200
9317,18,Jits_Linear_8,2,5,56,103,1730637096
9317,18,Jits_Linear_8,3,5,80,127,1730756888
9317,18,Jits_Linear_8,4,5,63,98,1730796900
9317,18,Jits_Linear_8,0,1,48,35,1731322532
9317,18,Jits_Linear_8,1,5,56,103,1731386656
9317,18,Jits_Linear_8,2,5,80,127,1731466588
9317,18,Jits_Linear_8,3,5,63,98,1731486972
9317,18,Jits_Linear_8,0,1,48,27,1732064616
9317,18,Jits_Linear_8,1,5,56,103,1732116808
9317,18,Jits_Linear_8,2,5,63,98,1732226556
9317,18,Jits_Linear_8,3,5,80,127,1732229920
9317,18,Jits_Linear_8,0,1,48,39,1732856496
9317,18,Jits_Linear_8,1,5,56,103,1732876776
9317,18,Jits_Linear_8,2,5,80,127,1732907720
9317,18,Jits_Linear_8,3,5,63,98,1732926760
9317,18,Jits_Linear_8,0,5,63,98,1733587500
9317,18,Jits_Linear_8,1,5,56,103,1733596500
9317,18,Jits_Linear_8,2,5,80,127,1733606696
9317,18,Jits_Linear_8,3,1,48,41,1733639584
9317,18,Jits_Linear_8,0,5,80,127,1734297048
9317,18,Jits_Linear_8,1,5,56,103,1734347100
9317,18,Jits_Linear_8,2,1,48,45,1734356072
9317,18,Jits_Linear_8,3,5,63,98,1734387256
9317,18,Jits_Linear_8,0,5,80,127,1735037252
9317,18,Jits_Linear_8,1,5,63,98,1735056816
9317,18,Jits_Linear_8,2,1,48,40,1735086388
9317,18,Jits_Linear_8,3,5,56,103,1735107012
9317,18,Jits_Linear_8,0,5,80,127,1735767648
9317,18,Jits_Linear_8,1,1,48,36,1735796876
9317,18,Jits_Linear_8,2,5,56,103,1735798440
9317,18,Jits_Linear_8,3,5,63,98,1735866700
9317,18,Jits_Linear_8,0,5,56,103,1736536556
9317,18,Jits_Linear_8,1,5,80,127,1736546752
9317,18,Jits_Linear_8,2,5,63,98,1736586544
9317,18,Jits_Linear_8,3,1,48,38,1736594072
9317,18,Jits_Linear_8,0,5,56,103,1737176576
9317,18,Jits_Linear_8,1,5,63,98,1737196888
9317,18,Jits_Linear_8,2,5,80,127,1737266592
9317,18,Jits_Linear_8,3,1,48,29,1737357440
9317,18,Jits_Linear_8,0,5,63,98,1737916780
9317,18,Jits_Linear_8,1,1,48,26,1737922668
9317,18,Jits_Linear_8,2,5,80,127,1737977092
9317,18,Jits_Linear_8,3,5,56,103,1737996604
9317,18,Jits_Linear_8,0,1,48,38,1738599028
9317,18,Jits_Linear_8,1,5,80,127,1738617336
9317,18,Jits_Linear_8,2,5,56,103,1738646936
9317,18,Jits_Linear_8,3,5,63,98,1738676464
9317,18,Jits_Linear_8,0,1,48,32,1739296820
9317,18,Jits_Linear_8,1,5,56,103,1739326960
9317,18,Jits_Linear_8,2,5,63,98,1739387204
9317,18,Jits_Linear_8,3,5,80,127,1739446604
9317,18,Jits_Linear_8,0,1,48,29,1739998920
9317,18,Jits_Linear_8,1,5,80,127,1740057040
9317,18,Jits_Linear_8,2,5,56,103,1740077500
9317,18,Jits_Linear_8,3,5,63,98,1740147164
9317,18,Jits_Linear_8,0,1,48,30,1740720312
9317,18,Jits_Linear_8,1,5,80,127,1740766568
9317,18,Jits_Linear_8,2,5,63,98,1740786952
9317,18,Jits_Linear_8,3,5,56,103,1740816728
9317,18,Jits_Linear_8,0,1,48,35,1741420868
9317,18,Jits_Linear_8,1,5,80,127,1741456788
9317,18,Jits_Linear_8,2,5,63,98,1741477172
9317,18,Jits_Linear_8,3,5,56,103,1741536576
9317,18,Jits_Linear_8,0,1,48,27,1742116412
9317,18,Jits_Linear_8,1,5,80,127,1742157044
9317,18,Jits_Linear_8,2,5,56,103,1742256680
9317,18,Jits_Linear_8,3,5,63,98,1742287476
9317,18,Jits_Linear_8,0,5,63,98,1742847548
9317,18,Jits_Linear_8,1,1,48,37,1742871144
9317,18,Jits_Linear_8,2,5,80,127,1742896572
9317,18,Jits_Linear_8,3,5,56,103,1742917032
9317,18,Jits_Linear_8,0,1,48,28,1743519528
9317,18,Jits_Linear_8,1,5,80,127,1743586764
9317,18,Jits_Linear_8,2,5,56,103,1743617348
9317,18,Jits_Linear_8,3,5,63,98,1743620484
9317,18,Jits_Linear_8,0,1,48,40,1744197528
9317,18,Jits_Linear_8,1,5,63,98,1744316672
9317,18,Jits_Linear_8,2,5,56,103,1744356612
9317,18,Jits_Linear_8,3,5,80,127,1744377292
9317,18,Jits_Linear_8,0,5,80,127,1744956720
9317,18,Jits_Linear_8,1,1,48,31,1744959312
9317,18,Jits_Linear_8,2,5,63,98,1745036588
9317,18,Jits_Linear_8,3,5,56,103,1745076584
9317,18,Jits_Linear_8,0,1,48,35,1745629964
9317,18,Jits_Linear_8,1,5,63,98,1745666432
9317,18,Jits_Linear_8,2,5,80,127,1745747488
9317,18,Jits_Linear_8,3,5,56,103,1745766748
9317,18,Jits_Linear_8,0,1,48,27,1746378112
9317,18,Jits_Linear_8,1,5,56,103,1746396492
9317,18,Jits_Linear_8,2,5,63,98,1746406764
9317,18,Jits_Linear_8,3,5,80,127,1746446728
9317,18,Jits_Linear_8,0,5,56,103,1747006700
9317,18,Jits_Linear_8,1,5,80,127,1747009772
9317,18,Jits_Linear_8,2,1,48,32,1747017920
9317,18,Jits_Linear_8,3,5,63,98,1747147232
9317,18,Jits_Linear_8,0,1,48,27,1747650116
9317,18,Jits_Linear_8,1,5,56,103,1747686712
9317,18,Jits_Linear_8,2,5,63,98,1747777008
9317,18,Jits_Linear_8,3,5,80,127,1747846392
9317,18,Jits_Linear_8,0,1,48,30,1748389864
9317,18,Jits_Linear_8,1,5,63,98,1748446540
9317,18,Jits_Linear_8,2,5,80,127,1748449904
9317,18,Jits_Linear_8,3,5,56,103,1748507088
9317,18,Jits_Linear_8,0,1,48,29,1749065332
9317,18,Jits_Linear_8,1,5,80,127,1749166416
9317,18,Jits_Linear_8,2,5,56,103,1749187024
9317,18,Jits_Linear_8,3,5,63,98,1749197368
9317,18,Jits_Linear_8,0,5,56,103,1749757292
9317,18,Jits_Linear_8,1,5,63,98,1749766464
9317,18,Jits_Linear_8,2,1,48,33,1749798204
9317,18,Jits_Linear_8,3,5,80,127,1749837112
9317,18,Jits_Linear_8,0,5,80,127,1750437336
9317,18,Jits_Linear_8,1,1,48,38,1750447280
9317,18,Jits_Linear_8,2,5,56,103,1750487384
9317,18,Jits_Linear_8,3,5,63,98,1750536488
9317,18,Jits_Linear_8,0,1,48,43,1751138556
9317,18,Jits_Linear_8,1,5,56,103,1751197024
9317,18,Jits_Linear_8,2,5,63,98,1751207444
9317,18,Jits_Linear_8,3,5,80,127,1751247444
9317,18,Jits_Linear_8,0,5,56,103,1751816608
9317,18,Jits_Linear_8,1,5,63,98,1751856472
9317,18,Jits_Linear_8,2,1,48,32,1751861160
9317,18,Jits_Linear_8,3,5,80,127,1751906744
9317,18,Jits_Linear_8,0,5,80,127,1752447408
9317,18,Jits_Linear_8,1,5,56,103,1752496488
9317,18,Jits_Linear_8,2,5,63,98,1752516872
9317,18,Jits_Linear_8,3,1,48,43,1752520964
9317,18,Jits_Linear_8,0,1,48,35,1753119696
9317,18,Jits_Linear_8,1,5,80,127,1753127220
9317,18,Jits_Linear_8,2,5,63,98,1753186716
9317,18,Jits_Linear_8,3,5,56,103,1753266572
9317,18,Jits_Linear_8,0,5,80,127,1753776448
9317,18,Jits_Linear_8,1,5,56,103,1753816312
9317,18,Jits_Linear_8,2,1,48,38,1753834180
9317,18,Jits_Linear_8,3,5,63,98,1753836768
9317,18,Jits_Linear_8,0,1,48,29,1754445896
9317,18,Jits_Linear_8,1,5,56,103,1754506752
9317,18,Jits_Linear_8,2,5,80,127,1754516800
9317,18,Jits_Linear_8,3,5,63,98,1754556872
9317,18,Jits_Linear_8,0,1,48,28,1755074112
9317,18,Jits_Linear_8,1,5,56,103,1755236672
9317,18,Jits_Linear_8,2,5,63,98,1755276612
9317,18,Jits_Linear_8,3,5,80,127,1755279900
9317,18,Jits_Linear_8,0,5,63,98,1755786560
9317,18,Jits_Linear_8,1,1,48,31,1755799344
9317,18,Jits_Linear_8,2,5,80,127,1755826644
9317,18,Jits_Linear_8,3,5,56,103,1755897280
9317,18,Jits_Linear_8,0,1,48,34,1756428572
9317,18,Jits_Linear_8,1,5,63,98,1756436992
9317,18,Jits_Linear_8,2,5,56,103,1756516640
9317,18,Jits_Linear_8,3,5,80,127,1756577312
9317,18,Jits_Linear_8,0,1,48,26,1757095624
9317,18,Jits_Linear_8,1,5,80,127,1757106512
9317,18,Jits_Linear_8,2,5,63,98,1757156716
9317,18,Jits_Linear_8,3,5,56,103,1757186492
9317,18,Jits_Linear_8,0,5,56,103,1757756656
9317,18,Jits_Linear_8,1,1,48,31,1757804044
9317,18,Jits_Linear_8,2,5,63,98,1757806928
9317,18,Jits_Linear_8,3,5,80,127,1757817272
9317,18,Jits_Linear_8,0,1,48,28,1758410708
9317,18,Jits_Linear_8,1,5,56,103,1758426480
9317,18,Jits_Linear_8,2,5,63,98,1758537152
9317,18,Jits_Linear_8,3,5,80,127,1758556492
9317,18,Jits_Linear_8,0,1,48,27,1759033276
9317,18,Jits_Linear_8,1,5,63,98,1759076696
9317,18,Jits_Linear_8,2,5,80,127,1759127048
9317,18,Jits_Linear_8,3,5,56,103,1759217096
9317,18,Jits_Linear_8,0,5,63,98,1759716708
9317,18,Jits_Linear_8,1,5,80,127,1759746408
9317,18,Jits_Linear_8,2,1,48,33,1759747448
9317,18,Jits_Linear_8,3,5,56,103,1759836460
9317,18,Jits_Linear_8,0,5,63,98,1760367144
9317,18,Jits_Linear_8,1,5,56,103,1760377264
9317,18,Jits_Linear_8,2,1,48,29,1760416352
9317,18,Jits_Linear_8,3,5,80,127,1760476532
9317,18,Jits_Linear_8,0,1,48,24,1760952552
9317,18,Jits_Linear_8,1,5,63,98,1761116676
9317,18,Jits_Linear_8,2,5,80,127,1761147104
9317,18,Jits_Linear_8,3,5,56,103,1761177004
9317,18,Jits_Linear_8,0,1,48,25,1761648632
9317,18,Jits_Linear_8,1,5,80,127,1761777140
9317,18,Jits_Linear_8,2,5,63,98,1761787412
9317,18,Jits_Linear_8,3,5,56,103,1761817188
9317,18,Jits_Linear_8,0,1,48,25,1762311440
9317,18,Jits_Linear_8,1,5,80,127,1762316640
9317,18,Jits_Linear_8,2,5,63,98,1762337176
9317,18,Jits_Linear_8,3,5,56,103,1762387452
9317,18,Jits_Linear_8,0,1,48,26,1762883700
9317,18,Jits_Linear_8,1,5,63,98,1762987264
9317,18,Jits_Linear_8,2,5,80,127,1763046836
9317,18,Jits_Linear_8,3,5,56,103,1763067444
9317,18,Jits_Linear_8,0,5,63,98,1763586408
9317,18,Jits_Linear_8,1,1,48,16,1763622936
9317,18,Jits_Linear_8,2,5,56,103,1763636532
9317,18,Jits_Linear_8,3,5,80,127,1763647024
9317,18,Jits_Linear_8,0,1,48,23,1764176324
9317,18,Jits_Linear_8,1,5,56,103,1764257264
9317,18,Jits_Linear_8,2,5,80,127,1764267312
9317,18,Jits_Linear_8,3,5,63,98,1764366596
9317,18,Jits_Linear_8,0,5,80,127,1764857188
9317,18,Jits_Linear_8,1,5,63,98,1764866436
9317,18,Jits_Linear_8,2,1,48,27,1764999980
9317,18,Jits_Linear_8,3,5,56,103,1765017164
9317,18,Jits_Linear_8,0,5,63,98,1765497224
9317,18,Jits_Linear_8,1,5,80,127,1765537016
9317,18,Jits_Linear_8,2,5,56,103,1765617184
9317,18,Jits_Linear_8,3,1,48,29,1765666776
9317,18,Jits_Linear_8,0,5,56,103,1766116624
9317,18,Jits_Linear_8,1,1,48,30,1766169064
9317,18,Jits_Linear_8,2,5,80,127,1766217040
9317,18,Jits_Linear_8,3,5,63,98,1766236452
9317,18,Jits_Linear_8,0,1,48,30,1766799784
9317,18,Jits_Linear_8,1,5,80,127,1766807004
9317,18,Jits_Linear_8,2,5,56,103,1766817276
9317,18,Jits_Linear_8,3,5,63,98,1766907244
9317,18,Jits_Linear_8,0,5,56,103,1767436556
9317,18,Jits_Linear_8,1,5,63,98,1767457236
9317,18,Jits_Linear_8,2,1,48,32,1767523128
9317,18,Jits_Linear_8,3,5,80,127,1767537100
9317,18,Jits_Linear_8,0,5,63,98,1768007192
9317,18,Jits_Linear_8,1,1,48,24,1768085692
9317,18,Jits_Linear_8,2,5,56,103,1768097016
9317,18,Jits_Linear_8,3,5,80,127,1768100164
9317,18,Jits_Linear_8,0,1,48,31,1768648352
9317,18,Jits_Linear_8,1,5,56,103,1768657368
9317,18,Jits_Linear_8,2,5,80,127,1768716740
9317,18,Jits_Linear_8,3,5,63,98,1768727008
9317,18,Jits_Linear_8,0,1,48,27,1769264636
9317,18,Jits_Linear_8,1,5,80,127,1769327140
9317,18,Jits_Linear_8,2,5,56,103,1769337260
9317,18,Jits_Linear_8,3,5,63,98,1769340328
9317,18,Jits_Linear_8,0,5,56,103,1769906536
9317,18,Jits_Linear_8,1,5,80,127,1769916880
9317,18,Jits_Linear_8,2,1,48,23,1769930632
9317,18,Jits_Linear_8,3,5,63,98,1769937260
9317,18,Jits_Linear_8,0,1,48,20,1770495908
9317,18,Jits_Linear_8,1,5,63,98,1770497344
9317,18,Jits_Linear_8,2,5,80,127,1770556988
9317,18,Jits_Linear_8,3,5,56,103,1770606948
9317,18,Jits_Linear_8,0,1,48,25,1771073776
9317,18,Jits_Linear_8,1,5,63,98,1771197048
9317,18,Jits_Linear_8,2,5,56,103,1771207244
9317,18,Jits_Linear_8,3,5,80,127,1771257148
9317,18,Jits_Linear_8,0,5,63,98,1771707232
9317,18,Jits_Linear_8,1,5,80,127,1771727248
9317,18,Jits_Linear_8,2,5,56,103,1771736472
9317,18,Jits_Linear_8,3,1,48,29,1771764996
9317,18,Jits_Linear_8,0,1,48,29,1772253536
9317,18,Jits_Linear_8,1,5,63,98,1772316980
9317,18,Jits_Linear_8,2,5,80,127,1772320268
9317,18,Jits_Linear_8,3,5,56,103,1772356976
9317,18,Jits_Linear_8,0,1,48,22,1772833004
9317,18,Jits_Linear_8,1,5,63,98,1772996960
9317,18,Jits_Linear_8,2,5,80,127,1773026932
9317,18,Jits_Linear_8,3,5,56,103,1773036980
9317,18,Jits_Linear_8,0,1,48,32,1773456904
9317,18,Jits_Linear_8,1,5,56,103,1773557088
9317,18,Jits_Linear_8,2,5,80,127,1773587084
9317,18,Jits_Linear_8,3,5,63,98,1773616616
9317,18,Jits_Linear_8,0,1,48,23,1774106972
9317,18,Jits_Linear_8,1,5,63,98,1774256528
9317,18,Jits_Linear_8,2,5,56,103,1774296468
9317,18,Jits_Linear_8,3,5,80,127,1774299532
9317,18,Jits_Linear_8,0,1,48,36,1774731084
9317,18,Jits_Linear_8,1,5,80,127,1774757264
9317,18,Jits_Linear_8,2,5,56,103,1774837196
9317,18,Jits_Linear_8,3,5,63,98,1774887276
9317,18,Jits_Linear_8,0,5,80,127,1775337112
9317,18,Jits_Linear_8,1,5,56,103,1775357348
9317,18,Jits_Linear_8,2,1,48,26,1775421316
9317,18,Jits_Linear_8,3,5,63,98,1775447420
9317,18,Jits_Linear_8,0,5,80,127,1775976920
9317,18,Jits_Linear_8,1,1,48,37,1776001836
9317,18,Jits_Linear_8,2,5,63,98,1776016932
9317,18,Jits_Linear_8,3,5,56,103,1776056868
9317,18,Jits_Linear_8,0,5,63,98,1776547040
9317,18,Jits_Linear_8,1,1,48,22,1776600048
9317,18,Jits_Linear_8,2,5,80,127,1776606676
9317,18,Jits_Linear_8,3,5,56,103,1776637252
9317,18,Jits_Linear_8,0,5,56,103,1777147184
9317,18,Jits_Linear_8,1,1,48,26,1777173172
9317,18,Jits_Linear_8,2,5,80,127,1777177028
9317,18,Jits_Linear_8,3,5,63,98,1777267088
9317,18,Jits_Linear_8,0,1,48,32,1777722004
9317,18,Jits_Linear_8,1,5,56,103,1777747212
9317,18,Jits_Linear_8,2,5,80,127,1777856964
9317,18,Jits_Linear_8,3,5,63,98,1777886716
9317,18,Jits_Linear_8,0,1,48,29,1778327480
9317,18,Jits_Linear_8,1,5,56,103,1778387444
9317,18,Jits_Linear_8,2,5,63,98,1778446880
9317,18,Jits_Linear_8,3,5,80,127,1778477376
9317,18,Jits_Linear_8,0,5,56,103,1778946420
9317,18,Jits_Linear_8,1,1,48,26,1778971260
9317,18,Jits_Linear_8,2,5,63,98,1779017144
9317,18,Jits_Linear_8,3,5,80,127,1779036408
9317,18,Jits_Linear_8,0,5,80,127,1779506648
9317,18,Jits_Linear_8,1,5,63,98,1779527108
9317,18,Jits_Linear_8,2,1,48,29,1779542804
9317,18,Jits_Linear_8,3,5,56,103,1779577076
9317,18,Jits_Linear_8,0,1,48,33,1780083836
9317,18,Jits_Linear_8,1,5,63,98,1780106500
9317,18,Jits_Linear_8,2,5,80,127,1780116916
9317,18,Jits_Linear_8,3,5,56,103,1780166972
9317,18,Jits_Linear_8,0,1,48,29,1780630408
9317,18,Jits_Linear_8,1,5,63,98,1780687084
9317,18,Jits_Linear_8,2,5,80,127,1780757000
9317,18,Jits_Linear_8,3,5,56,103,1780777312
9317,18,Jits_Linear_8,0,1,48,32,1781211152
9317,18,Jits_Linear_8,1,5,63,98,1781296468
9317,18,Jits_Linear_8,2,5,80,127,1781300128
9317,18,Jits_Linear_8,3,5,56,103,1781367108
9317,18,Jits_Linear_8,0,5,80,127,1781826860
9317,18,Jits_Linear_8,1,5,56,103,1781847324
9317,18,Jits_Linear_8,2,5,63,98,1781856916
9317,18,Jits_Linear_8,3,1,48,28,1781870600
9317,18,Jits_Linear_8,0,1,48,30,1782373920
9317,18,Jits_Linear_8,1,5,56,103,1782426932
9317,18,Jits_Linear_8,2,5,63,98,1782517052
9317,18,Jits_Linear_8,3,5,80,127,1782520340
9317,18,Jits_Linear_8,0,5,80,127,1782977028
9317,18,Jits_Linear_8,1,5,56,103,1782987076
9317,18,Jits_Linear_8,2,1,48,34,1782992964
9317,18,Jits_Linear_8,3,5,63,98,1783006704
9317,18,Jits_Linear_8,0,5,63,98,1783547212
9317,18,Jits_Linear_8,1,1,48,28,1783602044
9317,18,Jits_Linear_8,2,5,80,127,1783606796
9317,18,Jits_Linear_8,3,5,56,103,1783616772
9317,18,Jits_Linear_8,0,1,48,32,1784103280
9317,18,Jits_Linear_8,1,5,63,98,1784187160
9317,18,Jits_Linear_8,2,5,80,127,1784216968
9317,18,Jits_Linear_8,3,5,56,103,1784256832
9317,18,Jits_Linear_8,0,1,48,23,1784718352
9317,18,Jits_Linear_8,1,5,56,103,1784747296
9317,18,Jits_Linear_8,2,5,80,127,1784756520
9317,18,Jits_Linear_8,3,5,63,98,1784796460
9317,18,Jits_Linear_8,0,1,48,25,1785273084
9317,18,Jits_Linear_8,1,5,80,127,1785277164
9317,18,Jits_Linear_8,2,5,56,103,1785357064
9317,18,Jits_Linear_8,3,5,63,98,1785368364
9317,18,Jits_Linear_8,0,1,48,42,1785851360
9317,18,Jits_Linear_8,1,5,80,127,1785887004
9317,18,Jits_Linear_8,2,5,56,103,1785966936
9317,18,Jits_Linear_8,3,5,63,98,1785977132
9317,18,Jits_Linear_8,0,5,80,127,1786407296
9317,18,Jits_Linear_8,1,1,48,38,1786417840
9317,18,Jits_Linear_8,2,5,56,103,1786456376
9317,18,Jits_Linear_8,3,5,63,98,1786506724
9317,18,Jits_Linear_8,0,5,56,103,1787026708
9317,18,Jits_Linear_8,1,5,63,98,1787029780
9317,18,Jits_Linear_8,2,1,48,21,1787048860
9317,18,Jits_Linear_8,3,5,80,127,1787076836
9317,18,Jits_Linear_8,0,1,48,30,1787569820
9317,18,Jits_Linear_8,1,5,56,103,1787607384
9317,18,Jits_Linear_8,2,5,63,98,1787637136
9317,18,Jits_Linear_8,3,5,80,127,1787647360
9317,18,Jits_Linear_8,0,5,63,98,1788077480
9317,18,Jits_Linear_8,1,5,56,103,1788147016
9317,18,Jits_Linear_8,2,1,48,35,1788197020
9317,18,Jits_Linear_8,3,5,80,127,1788198356
9317,18,Jits_Linear_8,0,1,48,32,1788643576
9317,18,Jits_Linear_8,1,5,63,98,1788667136
9317,18,Jits_Linear_8,2,5,56,103,1788676756
9317,18,Jits_Linear_8,3,5,80,127,1788679744
9317,18,Jits_Linear_8,0,5,80,127,1789166880
9317,18,Jits_Linear_8,1,1,48,31,1789190100
9317,18,Jits_Linear_8,2,5,56,103,1789227516
9317,18,Jits_Linear_8,3,5,63,98,1789316660
9317,18,Jits_Linear_8,0,5,80,127,1789716868
9317,18,Jits_Linear_8,1,1,48,32,1789733688
9317,18,Jits_Linear_8,2,5,56,103,1789817188
9317,18,Jits_Linear_8,3,5,63,98,1789857184
9317,18,Jits_Linear_8,0,5,56,103,1790316956
9317,18,Jits_Linear_8,1,5,63,98,1790337268
9317,18,Jits_Linear_8,2,1,48,23,1790338308
9317,18,Jits_Linear_8,3,5,80,127,1790377200
9317,18,Jits_Linear_8,0,1,48,30,1790829496
9317,18,Jits_Linear_8,1,5,63,98,1790837096
9317,18,Jits_Linear_8,2,5,56,103,1790856804
9317,18,Jits_Linear_8,3,5,80,127,1790956888
9317,18,Jits_Linear_8,0,1,48,38,1791364476
9317,18,Jits_Linear_8,1,5,63,98,1791366664
9317,18,Jits_Linear_8,2,5,80,127,1791477092
9317,18,Jits_Linear_8,3,5,56,103,1791506716
9317,18,Jits_Linear_8,0,5,56,103,1791926812
9317,18,Jits_Linear_8,1,1,48,25,1791936156
9317,18,Jits_Linear_8,2,5,63,98,1791957308
9317,18,Jits_Linear_8,3,5,80,127,1792006636
9317,18,Jits_Linear_8,0,5,63,98,1792436688
9317,18,Jits_Linear_8,1,1,48,27,1792464076
9317,18,Jits_Linear_8,2,5,56,103,1792467404
9317,18,Jits_Linear_8,3,5,80,127,1792516584
9317,18,Jits_Linear_8,0,5,56,103,1793006936
9317,18,Jits_Linear_8,1,1,48,26,1793024784
9317,18,Jits_Linear_8,2,5,63,98,1793026516
9317,18,Jits_Linear_8,3,5,80,127,1793107356
9317,18,Jits_Linear_8,0,5,63,98,1793516888
9317,18,Jits_Linear_8,1,1,48,28,1793545812
9317,18,Jits_Linear_8,2,5,56,103,1793577744
9317,18,Jits_Linear_8,3,5,80,127,1793606976
9317,18,Jits_Linear_8,0,1,48,29,1794051832
9317,18,Jits_Linear_8,1,5,56,103,1794096596
9317,18,Jits_Linear_8,2,5,80,127,1794156900
9317,18,Jits_Linear_8,3,5,63,98,1794196916
9317,18,Jits_Linear_8,0,1,48,36,1794595132
9317,18,Jits_Linear_8,1,5,63,98,1794606616
9317,18,Jits_Linear_8,2,5,56,103,1794666860
9317,18,Jits_Linear_8,3,5,80,127,1794736672
9317,18,Jits_Linear_8,0,1,48,43,1795154580
9317,18,Jits_Linear_8,1,5,56,103,1795216732
9317,18,Jits_Linear_8,2,5,63,98,1795226924
9317,18,Jits_Linear_8,3,5,80,127,1795230288
9317,18,Jits_Linear_8,0,5,63,98,1795686888
9317,18,Jits_Linear_8,1,1,48,36,1795688828
9317,18,Jits_Linear_8,2,5,56,103,1795747044
9317,18,Jits_Linear_8,3,5,80,127,1795750188
9317,18,Jits_Linear_8,0,1,48,38,1796196144
9317,18,Jits_Linear_8,1,5,63,98,1796197708
9317,18,Jits_Linear_8,2,5,80,127,1796226560
9317,18,Jits_Linear_8,3,5,56,103,1796246948
9317,18,Jits_Linear_8,0,5,56,103,1796727056
9317,18,Jits_Linear_8,1,1,48,32,1796737152
9317,18,Jits_Linear_8,2,5,63,98,1796777404
9317,18,Jits_Linear_8,3,5,80,127,1796857184
9317,18,Jits_Linear_8,0,5,80,127,1797237088
9317,18,Jits_Linear_8,1,1,48,28,1797251664
9317,18,Jits_Linear_8,2,5,63,98,1797277172
9317,18,Jits_Linear_8,3,5,56,103,1797296660
9317,18,Jits_Linear_8,0,1,48,19,1797772624
9317,18,Jits_Linear_8,1,5,56,103,1797826904
9317,18,Jits_Linear_8,2,5,80,127,1797837176
9317,18,Jits_Linear_8,3,5,63,98,1797856660
9317,18,Jits_Linear_8,0,5,56,103,1798326592
9317,18,Jits_Linear_8,1,5,63,98,1798376944
9317,18,Jits_Linear_8,2,5,80,127,1798406644
9317,18,Jits_Linear_8,0,5,56,103,1798796576
9317,18,Jits_Linear_8,1,5,63,98,1798807068
9317,18,Jits_Linear_8,2,1,48,31,1798820228
9317,18,Jits_Linear_8,3,5,80,127,1798857188
9317,18,Jits_Linear_8,0,1,48,36,1799271416
9317,18,Jits_Linear_8,1,5,56,103,1799306740
9317,18,Jits_Linear_8,2,5,80,127,1799309880
9317,18,Jits_Linear_8,3,5,63,98,1799467600
9317,18,Jits_Linear_8,0,1,48,34,1799835468
9317,18,Jits_Linear_8,1,5,63,98,1799836976
9317,18,Jits_Linear_8,2,5,56,103,1799906660
9317,18,Jits_Linear_8,3,5,80,127,1799946756
9317,18,Jits_Linear_8,0,1,48,29,1800382624
9317,18,Jits_Linear_8,1,5,63,98,1800386852
9317,18,Jits_Linear_8,2,5,56,103,1800477160
9317,18,Jits_Linear_8,3,5,80,127,1800480076
9317,18,Jits_Linear_8,0,5,56,103,1800877616
9317,18,Jits_Linear_8,1,1,48,39,1800906440
9317,18,Jits_Linear_8,2,5,63,98,1800966652
9317,18,Jits_Linear_8,3,5,80,127,1800976772
9317,18,Jits_Linear_8,0,5,56,103,1801356560
9317,18,Jits_Linear_8,1,1,48,28,1801395724
9317,18,Jits_Linear_8,2,5,63,98,1801406760
9317,18,Jits_Linear_8,3,5,80,127,1801436732
9317,18,Jits_Linear_8,0,1,48,36,1801826248
9317,18,Jits_Linear_8,1,5,63,98,1801937220
9317,18,Jits_Linear_8,2,5,80,127,1801946668
9317,18,Jits_Linear_8,3,5,56,103,1802006860
9317,18,Jits_Linear_8,0,5,63,98,1802357060
9317,18,Jits_Linear_8,1,1,48,34,1802382948
9317,18,Jits_Linear_8,2,5,80,127,1802416624
9317,18,Jits_Linear_8,3,5,56,103,1802456560
9317,18,Jits_Linear_8,0,1,48,28,1802793008
9317,18,Jits_Linear_8,1,5,56,103,1802957112
9317,18,Jits_Linear_8,2,5,80,127,1802976524
9317,18,Jits_Linear_8,3,5,63,98,1802997132
9317,18,Jits_Linear_8,0,1,48,25,1803339828
9317,18,Jits_Linear_8,1,5,63,98,1803377092
9317,18,Jits_Linear_8,2,5,56,103,1803396580
9317,18,Jits_Linear_8,3,5,80,127,1803438224
9317,18,Jits_Linear_8,0,1,48,27,1803851632
9317,18,Jits_Linear_8,1,5,63,98,1803886884
9317,18,Jits_Linear_8,2,5,80,127,1803916708
9317,18,Jits_Linear_8,3,5,56,103,1803937240
9317,18,Jits_Linear_8,0,5,80,127,1804357048
9317,18,Jits_Linear_8,1,1,48,32,1804388188
9317,18,Jits_Linear_8,2,5,56,103,1804407020
9317,18,Jits_Linear_8,3,5,63,98,1804466512
9317,18,Jits_Linear_8,0,5,63,98,1804837108
9317,18,Jits_Linear_8,1,1,48,29,1804902180
9317,18,Jits_Linear_8,2,5,56,103,1804957056
9317,18,Jits_Linear_8,3,5,80,127,1804986732
9317,18,Jits_Linear_8,0,5,80,127,1805366532
9317,18,Jits_Linear_8,1,5,63,98,1805387216
9317,18,Jits_Linear_8,2,1,48,31,1805421648
9317,18,Jits_Linear_8,3,5,56,103,1805456816
9317,18,Jits_Linear_8,0,1,48,29,1805872624
9317,18,Jits_Linear_8,1,5,63,98,1805876708
9317,18,Jits_Linear_8,2,5,56,103,1805886828
9317,18,Jits_Linear_8,3,5,80,127,1805966684
9317,18,Jits_Linear_8,0,1,48,24,1806387752
9317,18,Jits_Linear_8,1,5,56,103,1806426440
9317,18,Jits_Linear_8,2,5,80,127,1806457164
9317,18,Jits_Linear_8,3,5,63,98,1806466388
9317,18,Jits_Linear_8,0,9999,9999,9999,1696064620
9317,18,Jits_Linear_8,1,9999,9999,9999,1696884856
9317,18,Jits_Linear_8,2,9999,9999,9999,1697705088
9317,18,Jits_Linear_8,3,9999,9999,9999,1698524260
9317,18,Jits_Linear_8,4,9999,9999,9999,1699344488
9317,18,Jits_Linear_8,5,9999,9999,9999,1700154432
9317,18,Jits_Linear_8,6,9999,9999,9999,1700964448
9317,18,Jits_Linear_8,7,9999,9999,9999,1701774404
9317,18,Jits_Linear_8,8,9999,9999,9999,1702584428
9317,18,Jits_Linear_8,9,9999,9999,9999,1703394360
9317,18,Jits_Linear_8,10,9999,9999,9999,1704194160
9317,18,Jits_Linear_8,11,9999,9999,9999,1704994892
9317,18,Jits_Linear_8,12,9999,9999,9999,1705794648
9317,18,Jits_Linear_8,13,9999,9999,9999,1706594408
9317,18,Jits_Linear_8,14,9999,9999,9999,1707394152
9317,18,Jits_Linear_8,15,9999,9999,9999,1708184680
9317,18,Jits_Linear_8,16,9999,9999,9999,1708974152
9317,18,Jits_Linear_8,17,9999,9999,9999,1709764692
9317,18,Jits_Linear_8,18,9999,9999,9999,1710554188
9317,18,Jits_Linear_8,19,9999,9999,9999,1711344744
9317,18,Jits_Linear_8,20,9999,9999,9999,1712125016
9317,18,Jits_Linear_8,21,9999,9999,9999,1712904260
9317,18,Jits_Linear_8,22,9999,9999,9999,1713684600
9317,18,Jits_Linear_8,23,9999,9999,9999,1714464872
9317,18,Jits_Linear_8,24,9999,9999,9999,1715244096
9317,18,Jits_Linear_8,25,9999,9999,9999,1716014180
9317,18,Jits_Linear_8,26,9999,9999,9999,1716784192
9317,18,Jits_Linear_8,27,9999,9999,9999,1717554276
9317,18,Jits_Linear_8,28,9999,9999,9999,1718324288
9317,18,Jits_Linear_8,29,9999,9999,9999,1719094376
9317,18,Jits_Linear_8,30,9999,9999,9999,1719854196
9317,18,Jits_Linear_8,31,9999,9999,9999,1720614988
9317,18,Jits_Linear_8,32,9999,9999,9999,1721374808
9317,18,Jits_Linear_8,33,9999,9999,9999,1722134624
9317,18,Jits_Linear_8,34,9999,9999,9999,1722894456
9317,18,Jits_Linear_8,35,9999,9999,9999,1723645048
9317,18,Jits_Linear_8,36,9999,9999,9999,1724394604
9317,18,Jits_Linear_8,37,9999,9999,9999,1725144168
9317,18,Jits_Linear_8,38,9999,9999,9999,1725894784
9317,18,Jits_Linear_8,39,9999,9999,9999,1726644284
9317,18,Jits_Linear_8,40,9999,9999,9999,1727384700
9317,18,Jits_Linear_8,41,9999,9999,9999,1728125044
9317,18,Jits_Linear_8,42,9999,9999,9999,1728864336
9317,18,Jits_Linear_8,43,9999,9999,9999,1729604680
9317,18,Jits_Linear_8,44,9999,9999,9999,1730345080
9317,18,Jits_Linear_8,45,9999,9999,9999,1731074172
9317,18,Jits_Linear_8,46,9999,9999,9999,1731804224
9317,18,Jits_Linear_8,47,9999,9999,9999,1732534368
9317,18,Jits_Linear_8,48,9999,9999,9999,1733264448
9317,18,Jits_Linear_8,49,9999,9999,9999,1733994592
9317,18,Jits_Linear_8,50,9999,9999,9999,1734714484
9317,18,Jits_Linear_8,51,9999,9999,9999,1735434312
9317,18,Jits_Linear_8,52,9999,9999,9999,1736154196
9317,18,Jits_Linear_8,53,9999,9999,9999,1736875080
9317,18,Jits_Linear_8,54,9999,9999,9999,1737604196
9317,18,Jits_Linear_8,55,9999,9999,9999,1738314812
9317,18,Jits_Linear_8,56,9999,9999,9999,1739024512
9317,18,Jits_Linear_8,57,9999,9999,9999,1739734116
9317,18,Jits_Linear_8,58,9999,9999,9999,1740444788
9317,18,Jits_Linear_8,59,9999,9999,9999,1741154416
9317,18,Jits_Linear_8,60,9999,9999,9999,1741854824
9317,18,Jits_Linear_8,61,9999,9999,9999,1742554168
9317,18,Jits_Linear_8,62,9999,9999,9999,1743254648
9317,18,Jits_Linear_8,63,9999,9999,9999,1743955048
9317,18,Jits_Linear_8,64,9999,9999,9999,1744654416
9317,18,Jits_Linear_8,65,9999,9999,9999,1745344616
9317,18,Jits_Linear_8,66,9999,9999,9999,1746034780
9317,18,Jits_Linear_8,67,9999,9999,9999,1746724932
9317,18,Jits_Linear_8,68,9999,9999,9999,1747414144
9317,18,Jits_Linear_8,69,9999,9999,9999,1748104308
9317,18,Jits_Linear_8,70,9999,9999,9999,1748784188
9317,18,Jits_Linear_8,71,9999,9999,9999,1749464128
9317,18,Jits_Linear_8,72,9999,9999,9999,1750144084
9317,18,Jits_Linear_8,73,9999,9999,9999,1750825032
9317,18,Jits_Linear_8,74,9999,9999,9999,1751504988
9317,18,Jits_Linear_8,75,9999,9999,9999,1752174688
9317,18,Jits_Linear_8,76,9999,9999,9999,1752844392
9317,18,Jits_Linear_8,77,9999,9999,9999,1753515124
9317,18,Jits_Linear_8,78,9999,9999,9999,1754195004
9317,18,Jits_Linear_8,79,9999,9999,9999,1754864760
9317,18,Jits_Linear_8,80,9999,9999,9999,1755524192
9317,18,Jits_Linear_8,81,9999,9999,9999,1756184668
9317,18,Jits_Linear_8,82,9999,9999,9999,1756844152
9317,18,Jits_Linear_8,83,9999,9999,9999,1757504624
9317,18,Jits_Linear_8,84,9999,9999,9999,1758165072
9317,18,Jits_Linear_8,85,9999,9999,9999,1758814336
9317,18,Jits_Linear_8,86,9999,9999,9999,1759464528
9317,18,Jits_Linear_8,87,9999,9999,9999,1760114816
9317,18,Jits_Linear_8,88,9999,9999,9999,1760765000
9317,18,Jits_Linear_8,89,9999,9999,9999,1761414248
9317,18,Jits_Linear_8,90,9999,9999,9999,1762054208
9317,18,Jits_Linear_8,91,9999,9999,9999,1762694204
9317,18,Jits_Linear_8,92,9999,9999,9999,1763334232
9317,18,Jits_Linear_8,93,9999,9999,9999,1763974224
9317,18,Jits_Linear_8,94,9999,9999,9999,1764614248
9317,18,Jits_Linear_8,95,9999,9999,9999,1765245032
9317,18,Jits_Linear_8,96,9999,9999,9999,1765874784
9317,18,Jits_Linear_8,97,9999,9999,9999,1766504544
9317,18,Jits_Linear_8,98,9999,9999,9999,1767134300
9317,18,Jits_Linear_8,99,9999,9999,9999,1767765112
9317,18,Jits_Linear_8,100,9999,9999,9999,1768384596
9317,18,Jits_Linear_8,101,9999,9999,9999,1769004092
9317,18,Jits_Linear_8,102,9999,9999,9999,1769624684
9317,18,Jits_Linear_8,103,9999,9999,9999,1770244184
9317,18,Jits_Linear_8,104,9999,9999,9999,1770864720
9317,18,Jits_Linear_8,105,9999,9999,9999,1771475064
9317,18,Jits_Linear_8,106,9999,9999,9999,1772084292
9317,18,Jits_Linear_8,107,9999,9999,9999,1772694604
9317,18,Jits_Linear_8,108,9999,9999,9999,1773304936
9317,18,Jits_Linear_8,109,9999,9999,9999,1773914240
9317,18,Jits_Linear_8,110,9999,9999,9999,1774514236
9317,18,Jits_Linear_8,111,9999,9999,9999,1775114332
9317,18,Jits_Linear_8,112,9999,9999,9999,1775714392
9317,18,Jits_Linear_8,113,9999,9999,9999,1776314476
9317,18,Jits_Linear_8,114,9999,9999,9999,1776914508
9317,18,Jits_Linear_8,115,9999,9999,9999,1777504316
9317,18,Jits_Linear_8,116,9999,9999,9999,1778094144
9317,18,Jits_Linear_8,117,9999,9999,9999,1778685004
9317,18,Jits_Linear_8,118,9999,9999,9999,1779274832
9317,18,Jits_Linear_8,119,9999,9999,9999,1779864648
9317,18,Jits_Linear_8,120,9999,9999,9999,1780444276
9317,18,Jits_Linear_8,121,9999,9999,9999,1781024892
9317,18,Jits_Linear_8,122,9999,9999,9999,1781604424
9317,18,Jits_Linear_8,123,9999,9999,9999,1782185084
9317,18,Jits_Linear_8,124,9999,9999,9999,1782764632
9317,18,Jits_Linear_8,125,9999,9999,9999,1783334980
9317,18,Jits_Linear_8,126,9999,9999,9999,1783904344
9317,18,Jits_Linear_8,127,9999,9999,9999,1784474748
9317,18,Jits_Linear_8,128,9999,9999,9999,1785045072
9317,18,Jits_Linear_8,129,9999,9999,9999,1785614452
9317,18,Jits_Linear_8,130,9999,9999,9999,1786174524
9317,18,Jits_Linear_8,131,9999,9999,9999,1786734664
9317,18,Jits_Linear_8,132,9999,9999,9999,1787294812
9317,18,Jits_Linear_8,133,9999,9999,9999,1787854972
9317,18,Jits_Linear_8,134,9999,9999,9999,1788415060
9317,18,Jits_Linear_8,135,9999,9999,9999,1788964924
9317,18,Jits_Linear_8,136,9999,9999,9999,1789514872
9317,18,Jits_Linear_8,137,9999,9999,9999,1790064764
9317,18,Jits_Linear_8,138,9999,9999,9999,1790614652
9317,18,Jits_Linear_8,139,9999,9999,9999,1791164544
9317,18,Jits_Linear_8,140,9999,9999,9999,1791704156
9317,18,Jits_Linear_8,141,9999,9999,9999,1792244816
9317,18,Jits_Linear_8,142,9999,9999,9999,1792784452
9317,18,Jits_Linear_8,143,9999,9999,9999,1793324136
9317,18,Jits_Linear_8,144,9999,9999,9999,1793864804
9317,18,Jits_Linear_8,145,9999,9999,9999,1794394232
9317,18,Jits_Linear_8,146,9999,9999,9999,1794924624
9317,18,Jits_Linear_8,147,9999,9999,9999,1795455088
9317,18,Jits_Linear_8,148,9999,9999,9999,1795984500
9317,18,Jits_Linear_8,149,9999,9999,9999,1796514888
9317,18,Jits_Linear_8,150,9999,9999,9999,1797035096
9317,18,Jits_Linear_8,151,9999,9999,9999,1797564524
9317,18,Jits_Linear_8,152,9999,9999,9999,1798084676
9317,18,Jits_Linear_8,153,9999,9999,9999,1798604904
9317,18,Jits_Linear_8,154,9999,9999,9999,1799125056
9317,18,Jits_Linear_8,155,9999,9999,9999,1799635004
9317,18,Jits_Linear_8,156,9999,9999,9999,1800145020
9317,18,Jits_Linear_8,157,9999,9999,9999,1800654960
9317,18,Jits_Linear_8,158,9999,9999,9999,1801164908
9317,18,Jits_Linear_8,159,9999,9999,9999,1801674860
9317,18,Jits_Linear_8,160,9999,9999,9999,1802174560
9317,18,Jits_Linear_8,161,9999,9999,9999,1802674240
9317,18,Jits_Linear_8,162,9999,9999,9999,1803174972
9317,18,Jits_Linear_8,163,9999,9999,9999,1803674720
9317,18,Jits_Linear_8,164,9999,9999,9999,1804174400
9317,18,Jits_Linear_8,165,9999,9999,9999,1804664932
9317,18,Jits_Linear_8,166,9999,9999,9999,1805154364
9317,18,Jits_Linear_8,167,9999,9999,9999,1805644900
9317,18,Jits_Linear_8,168,9999,9999,9999,1806134336
9317,18,Jits_Linear_8,169,9999,9999,9999,1806624880
9318,16,Jits_ISO_5,0,5,56,103,1816173864
9318,16,Jits_ISO_5,1,5,63,98,1816177116
9318,16,Jits_ISO_5,2,5,80,127,1816180160
9318,16,Jits_ISO_5,0,5,56,103,1816673660
9318,16,Jits_ISO_5,1,5,63,98,1816676756
9318,16,Jits_ISO_5,2,5,80,127,1816679732
9318,16,Jits_ISO_5,0,1,48,37,1817121728
9318,16,Jits_ISO_5,1,5,56,103,1817174512
9318,16,Jits_ISO_5,2,5,80,127,1817183584
9318,16,Jits_ISO_5,3,5,63,98,1817204040
9318,16,Jits_ISO_5,0,1,48,45,1817608508
9318,16,Jits_ISO_5,1,5,63,98,1817623972
9318,16,Jits_ISO_5,2,5,80,127,1817653576
9318,16,Jits_ISO_5,3,5,56,103,1817663768
9318,16,Jits_ISO_5,0,1,48,37,1818068280
9318,16,Jits_ISO_5,1,5,80,127,1818184144
9318,16,Jits_ISO_5,2,5,56,103,1818194416
9318,16,Jits_ISO_5,3,5,63,98,1818223940
9318,16,Jits_ISO_5,0,1,48,45,1818554088
9318,16,Jits_ISO_5,1,5,63,98,1818673472
9318,16,Jits_ISO_5,2,5,56,103,1818704416
9318,16,Jits_ISO_5,3,5,80,127,1818713416
9318,16,Jits_ISO_5,0,1,48,43,1819087160
9318,16,Jits_ISO_5,1,5,56,103,1819124196
9318,16,Jits_ISO_5,2,5,63,98,1819174496
9318,16,Jits_ISO_5,3,5,80,127,1819193744
9318,16,Jits_ISO_5,0,1,48,39,1819562476
9318,16,Jits_ISO_5,1,5,80,127,1819624004
9318,16,Jits_ISO_5,2,5,63,98,1819674068
9318,16,Jits_ISO_5,3,5,56,103,1819714004
9318,16,Jits_ISO_5,0,1,48,40,1820094416
9318,16,Jits_ISO_5,1,5,56,103,1820123364
9318,16,Jits_ISO_5,2,5,63,98,1820154384
9318,16,Jits_ISO_5,3,5,80,127,1820223748
9318,16,Jits_ISO_5,0,1,48,43,1820589024
9318,16,Jits_ISO_5,1,5,56,103,1820624416
9318,16,Jits_ISO_5,2,5,80,127,1820683636
9318,16,Jits_ISO_5,3,5,63,98,1820714340
9318,16,Jits_ISO_5,0,1,48,41,1821080508
9318,16,Jits_ISO_5,1,5,56,103,1821134332
9318,16,Jits_ISO_5,2,5,63,98,1821144384
9318,16,Jits_ISO_5,3,5,80,127,1821184404
9318,16,Jits_ISO_5,0,5,63,98,1821623808
9318,16,Jits_ISO_5,1,1,48,35,1821635248
9318,16,Jits_ISO_5,2,5,80,127,1821703624
9318,16,Jits_ISO_5,3,5,56,103,1821713968
9318,16,Jits_ISO_5,0,1,48,36,1822119684
9318,16,Jits_ISO_5,1,5,63,98,1822173512
9318,16,Jits_ISO_5,2,5,56,103,1822213476
9318,16,Jits_ISO_5,3,5,80,127,1822216544
9318,16,Jits_ISO_5,0,1,48,37,1822603320
9318,16,Jits_ISO_5,1,5,56,103,1822643500
9318,16,Jits_ISO_5,2,5,63,98,1822653696
9318,16,Jits_ISO_5,3,5,80,127,1822693632
9318,16,Jits_ISO_5,0,1,48,29,1823091720
9318,16,Jits_ISO_5,1,5,56,103,1823134156
9318,16,Jits_ISO_5,2,5,63,98,1823137224
9318,16,Jits_ISO_5,3,5,80,127,1823153568
9318,16,Jits_ISO_5,0,1,48,37,1823590312
9318,16,Jits_ISO_5,1,5,80,127,1823644144
9318,16,Jits_ISO_5,2,5,56,103,1823654264
9318,16,Jits_ISO_5,3,5,63,98,1823723924
9318,16,Jits_ISO_5,0,1,48,34,1824092388
9318,16,Jits_ISO_5,1,5,63,98,1824133464
9318,16,Jits_ISO_5,2,5,56,103,1824153924
9318,16,Jits_ISO_5,3,5,80,127,1824233772
9318,16,Jits_ISO_5,0,1,48,31,1824594584
9318,16,Jits_ISO_5,1,5,56,103,1824643456
9318,16,Jits_ISO_5,2,5,80,127,1824684444
9318,16,Jits_ISO_5,3,5,63,98,1824693592
9318,16,Jits_ISO_5,0,1,48,40,1825114016
9318,16,Jits_ISO_5,1,5,80,127,1825133896
9318,16,Jits_ISO_5,2,5,63,98,1825163648
9318,16,Jits_ISO_5,3,5,56,103,1825203508
9318,16,Jits_ISO_5,0,1,48,41,1825593220
9318,16,Jits_ISO_5,1,5,56,103,1825654084
9318,16,Jits_ISO_5,2,5,63,98,1825683760
9318,16,Jits_ISO_5,3,5,80,127,1825734240
9318,16,Jits_ISO_5,0,5,80,127,1826153900
9318,16,Jits_ISO_5,1,1,48,34,1826155312
9318,16,Jits_ISO_5,2,5,56,103,1826193756
9318,16,Jits_ISO_5,3,5,63,98,1826204172
9318,16,Jits_ISO_5,0,1,48,40,1826596376
9318,16,Jits_ISO_5,1,5,80,127,1826644424
9318,16,Jits_ISO_5,2,5,63,98,1826684436
9318,16,Jits_ISO_5,3,5,56,103,1826743612
9318,16,Jits_ISO_5,0,1,48,32,1827108092
9318,16,Jits_ISO_5,1,5,56,103,1827144156
9318,16,Jits_ISO_5,2,5,80,127,1827154204
9318,16,Jits_ISO_5,3,5,63,98,1827234352
9318,16,Jits_ISO_5,0,1,48,37,1827607300
9318,16,Jits_ISO_5,1,5,80,127,1827643740
9318,16,Jits_ISO_5,2,5,63,98,1827704264
9318,16,Jits_ISO_5,3,5,56,103,1827734160
9318,16,Jits_ISO_5,0,1,48,32,1828135212
9318,16,Jits_ISO_5,1,5,56,103,1828143400
9318,16,Jits_ISO_5,2,5,80,127,1828204012
9318,16,Jits_ISO_5,3,5,63,98,1828243712
9318,16,Jits_ISO_5,0,1,48,32,1828640252
9318,16,Jits_ISO_5,1,5,56,103,1828694380
9318,16,Jits_ISO_5,2,5,63,98,1828703596
9318,16,Jits_ISO_5,3,5,80,127,1828707036
9318,16,Jits_ISO_5,0,5,80,127,1829144060
9318,16,Jits_ISO_5,1,1,48,34,1829147032
9318,16,Jits_ISO_5,2,5,63,98,1829234332
9318,16,Jits_ISO_5,3,5,56,103,1829245264
9318,16,Jits_ISO_5,0,1,48,40,1829642576
9318,16,Jits_ISO_5,1,5,56,103,1829644016
9318,16,Jits_ISO_5,2,5,63,98,1829646964
9318,16,Jits_ISO_5,3,5,80,127,1829650156
9318,16,Jits_ISO_5,0,1,48,36,1830141524
9318,16,Jits_ISO_5,1,5,80,127,1830163960
9318,16,Jits_ISO_5,2,5,63,98,1830214088
9318,16,Jits_ISO_5,3,5,56,103,1830243600
9318,16,Jits_ISO_5,0,5,56,103,1830644200
9318,16,Jits_ISO_5,1,1,48,38,1830652684
9318,16,Jits_ISO_5,2,5,80,127,1830654192
9318,16,Jits_ISO_5,3,5,63,98,1830724092
9318,16,Jits_ISO_5,0,1,48,33,1831123312
9318,16,Jits_ISO_5,1,5,56,103,1831154128
9318,16,Jits_ISO_5,2,5,63,98,1831173564
9318,16,Jits_ISO_5,3,5,80,127,1831234012
9318,16,Jits_ISO_5,0,1,48,36,1831629928
9318,16,Jits_ISO_5,1,5,80,127,1831643372
9318,16,Jits_ISO_5,2,5,63,98,1831714124
9318,16,Jits_ISO_5,3,5,56,103,1831733520
9318,16,Jits_ISO_5,0,1,48,37,1832111396
9318,16,Jits_ISO_5,1,5,80,127,1832163712
9318,16,Jits_ISO_5,2,5,56,103,1832174352
9318,16,Jits_ISO_5,3,5,63,98,1832184248
9318,16,Jits_ISO_5,0,1,48,36,1832617924
9318,16,Jits_ISO_5,1,5,80,127,1832654216
9318,16,Jits_ISO_5,2,5,56,103,1832673556
9318,16,Jits_ISO_5,3,5,63,98,1832744288
9318,16,Jits_ISO_5,0,1,48,37,1833115944
9318,16,Jits_ISO_5,1,5,56,103,1833164140
9318,16,Jits_ISO_5,2,5,80,127,1833194112
9318,16,Jits_ISO_5,3,5,63,98,1833214208
9318,16,Jits_ISO_5,0,1,48,39,1833620540
9318,16,Jits_ISO_5,1,5,63,98,1833653612
9318,16,Jits_ISO_5,2,5,56,103,1833715112
9318,16,Jits_ISO_5,3,5,80,127,1833743836
9318,16,Jits_ISO_5,0,1,48,46,1834113912
9318,16,Jits_ISO_5,1,5,63,98,1834154240
9318,16,Jits_ISO_5,2,5,80,127,1834157536
9318,16,Jits_ISO_5,3,5,56,103,1834243556
9318,16,Jits_ISO_5,0,1,48,37,1834618052
9318,16,Jits_ISO_5,1,5,56,103,1834673524
9318,16,Jits_ISO_5,2,5,63,98,1834704172
9318,16,Jits_ISO_5,3,5,80,127,1834744168
9318,16,Jits_ISO_5,0,1,48,25,1835143644
9318,16,Jits_ISO_5,1,5,63,98,1835174308
9318,16,Jits_ISO_5,2,5,56,103,1835214320
9318,16,Jits_ISO_5,3,5,80,127,1835233580
9318,16,Jits_ISO_5,0,1,48,27,1835615356
9318,16,Jits_ISO_5,1,5,63,98,1835684156
9318,16,Jits_ISO_5,2,5,56,103,1835724080
9318,16,Jits_ISO_5,3,5,80,127,1835734500
9318,16,Jits_ISO_5,0,5,80,127,1836163524
9318,16,Jits_ISO_5,1,1,48,37,1836177128
9318,16,Jits_ISO_5,2,5,63,98,1836234092
9318,16,Jits_ISO_5,3,5,56,103,1836253580
9318,16,Jits_ISO_5,0,5,56,103,1836653980
9318,16,Jits_ISO_5,1,1,48,31,1836674516
9318,16,Jits_ISO_5,2,5,80,127,1836675928
9318,16,Jits_ISO_5,3,5,63,98,1836714440
9318,16,Jits_ISO_5,0,1,48,40,1837157812
9318,16,Jits_ISO_5,1,5,63,98,1837163980
9318,16,Jits_ISO_5,2,5,80,127,1837184220
9318,16,Jits_ISO_5,3,5,56,103,1837224228
9318,16,Jits_ISO_5,0,1,48,34,1837627652
9318,16,Jits_ISO_5,1,5,63,98,1837663568
9318,16,Jits_ISO_5,2,5,56,103,1837684248
9318,16,Jits_ISO_5,3,5,80,127,1837694368
9318,16,Jits_ISO_5,0,1,48,31,1838128500
9318,16,Jits_ISO_5,1,5,80,127,1838173412
9318,16,Jits_ISO_5,2,5,56,103,1838194240
9318,16,Jits_ISO_5,3,5,63,98,1838223764
9318,16,Jits_ISO_5,0,1,48,34,1838649584
9318,16,Jits_ISO_5,1,5,56,103,1838744012
9318,16,Jits_ISO_5,2,5,80,127,1838747664
9318,16,Jits_ISO_5,3,5,63,98,1838764308
9318,16,Jits_ISO_5,0,1,48,33,1839128860
9318,16,Jits_ISO_5,1,5,63,98,1839163728
9318,16,Jits_ISO_5,2,5,56,103,1839193476
9318,16,Jits_ISO_5,3,5,80,127,1839254072
9318,16,Jits_ISO_5,0,1,48,31,1839607068
9318,16,Jits_ISO_5,1,5,63,98,1839744360
9318,16,Jits_ISO_5,2,5,56,103,1839753508
9318,16,Jits_ISO_5,3,5,80,127,1839764076
9318,16,Jits_ISO_5,0,1,48,36,1840183708
9318,16,Jits_ISO_5,1,5,56,103,1840193996
9318,16,Jits_ISO_5,2,5,80,127,1840223596
9318,16,Jits_ISO_5,3,5,63,98,1840234016
9318,16,Jits_ISO_5,0,1,48,38,1840666208
9318,16,Jits_ISO_5,1,5,63,98,1840733512
9318,16,Jits_ISO_5,2,5,56,103,1840743784
9318,16,Jits_ISO_5,3,5,80,127,1840764224
9318,16,Jits_ISO_5,0,1,48,36,1841162524
9318,16,Jits_ISO_5,1,5,56,103,1841164172
9318,16,Jits_ISO_5,2,5,63,98,1841224036
9318,16,Jits_ISO_5,3,5,80,127,1841227256
9318,16,Jits_ISO_5,0,1,48,25,1841665076
9318,16,Jits_ISO_5,1,5,80,127,1841683900
9318,16,Jits_ISO_5,2,5,56,103,1841694244
9318,16,Jits_ISO_5,3,5,63,98,1841763756
9318,16,Jits_ISO_5,0,5,80,127,1842174272
9318,16,Jits_ISO_5,1,1,48,35,1842189676
9318,16,Jits_ISO_5,2,5,56,103,1842244020
9318,16,Jits_ISO_5,3,5,63,98,1842254140
9318,16,Jits_ISO_5,0,1,48,26,1842696616
9318,16,Jits_ISO_5,1,5,63,98,1842714100
9318,16,Jits_ISO_5,2,5,56,103,1842724144
9318,16,Jits_ISO_5,3,5,80,127,1842743632
9318,16,Jits_ISO_5,0,5,80,127,1843163396
9318,16,Jits_ISO_5,1,5,63,98,1843224036
9318,16,Jits_ISO_5,2,1,48,26,1843226124
9318,16,Jits_ISO_5,3,5,56,103,1843264260
9318,16,Jits_ISO_5,0,1,48,25,1843675404
9318,16,Jits_ISO_5,1,5,56,103,1843704196
9318,16,Jits_ISO_5,2,5,63,98,1843714420
9318,16,Jits_ISO_5,3,5,80,127,1843754280
9318,16,Jits_ISO_5,0,5,56,103,1844164004
9318,16,Jits_ISO_5,1,1,48,32,1844166756
9318,16,Jits_ISO_5,2,5,80,127,1844193600
9318,16,Jits_ISO_5,3,5,63,98,1844243896
9318,16,Jits_ISO_5,0,1,48,30,1844669328
9318,16,Jits_ISO_5,1,5,56,103,1844703528
9318,16,Jits_ISO_5,2,5,63,98,1844743560
9318,16,Jits_ISO_5,3,5,80,127,1844746852
9318,16,Jits_ISO_5,0,1,48,37,1845163448
9318,16,Jits_ISO_5,1,5,56,103,1845204376
9318,16,Jits_ISO_5,2,5,63,98,1845213672
9318,16,Jits_ISO_5,3,5,80,127,1845234056
9318,16,Jits_ISO_5,0,5,56,103,1845674296
9318,16,Jits_ISO_5,1,5,80,127,1845677292
9318,16,Jits_ISO_5,2,1,48,37,1845680556
9318,16,Jits_ISO_5,3,5,63,98,1845714300
9318,16,Jits_ISO_5,0,1,48,28,1846155420
9318,16,Jits_ISO_5,1,5,63,98,1846214104
9318,16,Jits_ISO_5,2,5,56,103,1846243628
9318,16,Jits_ISO_5,3,5,80,127,1846264296
9318,16,Jits_ISO_5,0,1,48,28,1846675756
9318,16,Jits_ISO_5,1,5,80,127,1846683948
9318,16,Jits_ISO_5,2,5,56,103,1846694364
9318,16,Jits_ISO_5,3,5,63,98,1846703440
9318,16,Jits_ISO_5,0,1,48,33,1847156380
9318,16,Jits_ISO_5,1,5,56,103,1847183900
9318,16,Jits_ISO_5,2,5,80,127,1847223764
9318,16,Jits_ISO_5,3,5,63,98,1847255224
9318,16,Jits_ISO_5,0,1,48,32,1847675668
9318,16,Jits_ISO_5,1,5,63,98,1847693896
9318,16,Jits_ISO_5,2,5,80,127,1847704092
9318,16,Jits_ISO_5,3,5,56,103,1847714140
9318,16,Jits_ISO_5,0,1,48,32,1848158160
9318,16,Jits_ISO_5,1,5,56,103,1848173924
9318,16,Jits_ISO_5,2,5,63,98,1848243456
9318,16,Jits_ISO_5,3,5,80,127,1848253800
9318,16,Jits_ISO_5,0,1,48,35,1848647860
9318,16,Jits_ISO_5,1,5,80,127,1848673808
9318,16,Jits_ISO_5,2,5,56,103,1848683780
9318,16,Jits_ISO_5,3,5,63,98,1848734124
9318,16,Jits_ISO_5,0,1,48,26,1849166916
9318,16,Jits_ISO_5,1,5,80,127,1849183724
9318,16,Jits_ISO_5,2,5,56,103,1849243964
9318,16,Jits_ISO_5,3,5,63,98,1849273920
9318,16,Jits_ISO_5,0,1,48,33,1849691444
9318,16,Jits_ISO_5,1,5,56,103,1849693492
9318,16,Jits_ISO_5,2,5,80,127,1849696564
9318,16,Jits_ISO_5,3,5,63,98,1849733504
9318,16,Jits_ISO_5,0,1,48,33,1850182404
9318,16,Jits_ISO_5,1,5,56,103,1850224004
9318,16,Jits_ISO_5,2,5,63,98,1850253752
9318,16,Jits_ISO_5,3,5,80,127,1850264096
9318,16,Jits_ISO_5,0,1,48,36,1850682664
9318,16,Jits_ISO_5,1,5,63,98,1850733856
9318,16,Jits_ISO_5,2,5,80,127,1850744124
9318,16,Jits_ISO_5,3,5,56,103,1850754396
9318,16,Jits_ISO_5,0,1,48,37,1851175056
9318,16,Jits_ISO_5,1,5,80,127,1851183468
9318,16,Jits_ISO_5,2,5,56,103,1851233816
9318,16,Jits_ISO_5,3,5,63,98,1851236960
9318,16,Jits_ISO_5,0,1,48,30,1851679788
9318,16,Jits_ISO_5,1,5,56,103,1851714056
9318,16,Jits_ISO_5,2,5,80,127,1851734292
9318,16,Jits_ISO_5,3,5,63,98,1851743736
9318,16,Jits_ISO_5,0,1,48,33,1852184020
9318,16,Jits_ISO_5,1,5,63,98,1852194084
9318,16,Jits_ISO_5,2,5,56,103,1852223980
9318,16,Jits_ISO_5,3,5,80,127,1852244288
9318,16,Jits_ISO_5,0,1,48,35,1852673336
9318,16,Jits_ISO_5,1,5,56,103,1852704076
9318,16,Jits_ISO_5,2,5,80,127,1852714492
9318,16,Jits_ISO_5,3,5,63,98,1852783932
9318,16,Jits_ISO_5,0,1,48,30,1853171604
9318,16,Jits_ISO_5,1,5,63,98,1853193696
9318,16,Jits_ISO_5,2,5,80,127,1853233408
9318,16,Jits_ISO_5,3,5,56,103,1853273552
9318,16,Jits_ISO_5,0,5,56,103,1853703476
9318,16,Jits_ISO_5,1,5,63,98,1853714116
9318,16,Jits_ISO_5,2,1,48,23,1853715160
9318,16,Jits_ISO_5,3,5,80,127,1853734196
9318,16,Jits_ISO_5,0,1,48,35,1854184736
9318,16,Jits_ISO_5,1,5,63,98,1854244344
9318,16,Jits_ISO_5,2,5,80,127,1854263756
9318,16,Jits_ISO_5,3,5,56,103,1854284272
9318,16,Jits_ISO_5,0,5,56,103,1854683604
9318,16,Jits_ISO_5,1,1,48,19,1854711212
9318,16,Jits_ISO_5,2,5,80,127,1854764540
9318,16,Jits_ISO_5,3,5,63,98,1854773908
9318,16,Jits_ISO_5,0,1,48,27,1855150864
9318,16,Jits_ISO_5,1,5,80,127,1855224324
9318,16,Jits_ISO_5,2,5,63,98,1855234548
9318,16,Jits_ISO_5,3,5,56,103,1855264204
9318,16,Jits_ISO_5,0,1,48,28,1855667092
9318,16,Jits_ISO_5,1,5,63,98,1855683828
9318,16,Jits_ISO_5,2,5,80,127,1855723916
9318,16,Jits_ISO_5,3,5,56,103,1855784236
9318,16,Jits_ISO_5,0,5,63,98,1856193908
9318,16,Jits_ISO_5,1,1,48,27,1856202204
9318,16,Jits_ISO_5,2,5,56,103,1856244028
9318,16,Jits_ISO_5,3,5,80,127,1856273948
9318,16,Jits_ISO_5,0,1,48,29,1856673984
9318,16,Jits_ISO_5,1,5,80,127,1856703824
9318,16,Jits_ISO_5,2,5,63,98,1856714020
9318,16,Jits_ISO_5,3,5,56,103,1856783928
9318,16,Jits_ISO_5,0,1,48,28,1857226528
9318,16,Jits_ISO_5,1,5,80,127,1857283744
9318,16,Jits_ISO_5,2,5,56,103,1857294016
9318,16,Jits_ISO_5,3,5,63,98,1857297004
9318,16,Jits_ISO_5,0,5,56,103,1857723892
9318,16,Jits_ISO_5,1,5,80,127,1857744128
9318,16,Jits_ISO_5,2,5,63,98,1857753428
9318,16,Jits_ISO_5,3,1,48,37,1857782768
9318,16,Jits_ISO_5,0,1,48,26,1858225484
9318,16,Jits_ISO_5,1,5,63,98,1858233896
9318,16,Jits_ISO_5,2,5,56,103,1858273760
9318,16,Jits_ISO_5,3,5,80,127,1858293996
9318,16,Jits_ISO_5,0,1,48,24,1858714884
9318,16,Jits_ISO_5,1,5,63,98,1858733412
9318,16,Jits_ISO_5,2,5,56,103,1858793948
9318,16,Jits_ISO_5,3,5,80,127,1858796940
9318,16,Jits_ISO_5,0,1,48,28,1859183588
9318,16,Jits_ISO_5,1,5,56,103,1859194328
9318,16,Jits_ISO_5,2,5,80,127,1859213668
9318,16,Jits_ISO_5,3,5,63,98,1859253676
9318,16,Jits_ISO_5,0,1,48,21,1859639860
9318,16,Jits_ISO_5,1,5,56,103,1859723804
9318,16,Jits_ISO_5,2,5,63,98,1859744096
9318,16,Jits_ISO_5,3,5,80,127,1859754292
9318,16,Jits_ISO_5,0,1,48,26,1860168512
9318,16,Jits_ISO_5,1,5,80,127,1860193716
9318,16,Jits_ISO_5,2,5,56,103,1860224516
9318,16,Jits_ISO_5,3,5,63,98,1860264212
9318,16,Jits_ISO_5,0,1,48,13,1860652892
9318,16,Jits_ISO_5,1,5,80,127,1860703784
9318,16,Jits_ISO_5,2,5,56,103,1860724020
9318,16,Jits_ISO_5,3,5,63,98,1860783420
9318,16,Jits_ISO_5,0,1,48,16,1861168200
9318,16,Jits_ISO_5,1,5,56,103,1861223744
9318,16,Jits_ISO_5,2,5,80,127,1861244352
9318,16,Jits_ISO_5,3,5,63,98,1861303824
9318,16,Jits_ISO_5,0,1,48,27,1861663220
9318,16,Jits_ISO_5,1,5,80,127,1861704000
9318,16,Jits_ISO_5,2,5,56,103,1861714420
9318,16,Jits_ISO_5,3,5,63,98,1861754280
9318,16,Jits_ISO_5,0,1,48,37,1862157552
9318,16,Jits_ISO_5,1,5,63,98,1862203656
9318,16,Jits_ISO_5,2,5,56,103,1862243812
9318,16,Jits_ISO_5,3,5,80,127,1862247028
9318,16,Jits_ISO_5,0,1,48,30,1862664840
9318,16,Jits_ISO_5,1,5,63,98,1862723828
9318,16,Jits_ISO_5,2,5,80,127,1862763824
9318,16,Jits_ISO_5,3,5,56,103,1862793868
9318,16,Jits_ISO_5,0,1,48,31,1863189588
9318,16,Jits_ISO_5,1,5,56,103,1863213296
9318,16,Jits_ISO_5,2,5,63,98,1863223864
9318,16,Jits_ISO_5,3,5,80,127,1863254364
9318,16,Jits_ISO_5,0,5,80,127,1863703816
9318,16,Jits_ISO_5,1,1,48,35,1863724992
9318,16,Jits_ISO_5,2,5,63,98,1863773636
9318,16,Jits_ISO_5,3,5,56,103,1863783756
9318,16,Jits_ISO_5,0,5,63,98,1864203636
9318,16,Jits_ISO_5,1,1,48,30,1864212608
9318,16,Jits_ISO_5,2,5,56,103,1864274356
9318,16,Jits_ISO_5,3,5,80,127,1864283580
9318,16,Jits_ISO_5,0,1,48,22,1864675444
9318,16,Jits_ISO_5,1,5,63,98,1864704264
9318,16,Jits_ISO_5,2,5,56,103,1864723896
9318,16,Jits_ISO_5,3,5,80,127,1864763832
9318,16,Jits_ISO_5,0,1,48,29,1865126172
9318,16,Jits_ISO_5,1,5,56,103,1865214400
9318,16,Jits_ISO_5,2,5,63,98,1865224884
9318,16,Jits_ISO_5,3,5,80,127,1865304524
9318,16,Jits_ISO_5,0,1,48,32,1865653928
9318,16,Jits_ISO_5,1,5,63,98,1865703848
9318,16,Jits_ISO_5,2,5,56,103,1865733772
9318,16,Jits_ISO_5,3,5,80,127,1865773392
9318,16,Jits_ISO_5,0,1,48,32,1866198600
9318,16,Jits_ISO_5,1,5,56,103,1866203504
9318,16,Jits_ISO_5,2,5,63,98,1866243612
9318,16,Jits_ISO_5,3,5,80,127,1866284524
9318,16,Jits_ISO_5,0,5,80,127,1866704364
9318,16,Jits_ISO_5,1,1,48,22,1866708532
9318,16,Jits_ISO_5,2,5,56,103,1866784248
9318,16,Jits_ISO_5,3,5,63,98,1866794592
9318,16,Jits_ISO_5,0,1,48,27,1867160020
9318,16,Jits_ISO_5,1,5,56,103,1867243964
9318,16,Jits_ISO_5,2,5,63,98,1867246880
9318,16,Jits_ISO_5,3,5,80,127,1867254308
9318,16,Jits_ISO_5,0,1,48,27,1867657200
9318,16,Jits_ISO_5,1,5,56,103,1867764052
9318,16,Jits_ISO_5,2,5,63,98,1867783636
9318,16,Jits_ISO_5,3,5,80,127,1867793760
9318,16,Jits_ISO_5,0,1,48,29,1868186536
9318,16,Jits_ISO_5,1,5,63,98,1868223800
9318,16,Jits_ISO_5,2,5,80,127,1868233996
9318,16,Jits_ISO_5,3,5,56,103,1868253628
9318,16,Jits_ISO_5,0,1,48,38,1868687388
9318,16,Jits_ISO_5,1,5,63,98,1868733792
9318,16,Jits_ISO_5,2,5,56,103,1868813816
9318,16,Jits_ISO_5,3,5,80,127,1868816888
9318,16,Jits_ISO_5,0,1,48,32,1869230264
9318,16,Jits_ISO_5,1,5,63,98,1869233816
9318,16,Jits_ISO_5,2,5,56,103,1869253904
9318,16,Jits_ISO_5,3,5,80,127,1869283652
9318,16,Jits_ISO_5,0,1,48,27,1869717644
9318,16,Jits_ISO_5,1,5,56,103,1869734152
9318,16,Jits_ISO_5,2,5,63,98,1869753860
9318,16,Jits_ISO_5,3,5,80,127,1869763984
9318,16,Jits_ISO_5,0,1,48,24,1870238196
9318,16,Jits_ISO_5,1,5,56,103,1870263624
9318,16,Jits_ISO_5,2,5,63,98,1870294420
9318,16,Jits_ISO_5,3,5,80,127,1870297712
9318,16,Jits_ISO_5,0,5,56,103,1870714208
9318,16,Jits_ISO_5,1,1,48,35,1870724452
9318,16,Jits_ISO_5,2,5,63,98,1870754140
9318,16,Jits_ISO_5,3,5,80,127,1870813928
9318,16,Jits_ISO_5,0,1,48,35,1871168820
9318,16,Jits_ISO_5,1,5,56,103,1871234556
9318,16,Jits_ISO_5,2,5,63,98,1871243704
9318,16,Jits_ISO_5,3,5,80,127,1871303924
9318,16,Jits_ISO_5,0,1,48,27,1871715760
9318,16,Jits_ISO_5,1,5,56,103,1871734064
9318,16,Jits_ISO_5,2,5,80,127,1871753772
9318,16,Jits_ISO_5,3,5,63,98,1871784492
9318,16,Jits_ISO_5,0,1,48,20,1872226952
9318,16,Jits_ISO_5,1,5,80,127,1872233796
9318,16,Jits_ISO_5,2,5,56,103,1872244068
9318,16,Jits_ISO_5,3,5,63,98,1872263552
9318,16,Jits_ISO_5,0,5,63,98,1872733684
9318,16,Jits_ISO_5,1,5,80,127,1872813700
9318,16,Jits_ISO_5,2,5,56,103,1872823600
9318,16,Jits_ISO_5,0,1,48,35,1873192252
9318,16,Jits_ISO_5,1,5,80,127,1873293700
9318,16,Jits_ISO_5,2,5,56,103,1873314156
9318,16,Jits_ISO_5,3,5,63,98,1873317296
9318,16,Jits_ISO_5,0,5,63,98,1873763632
9318,16,Jits_ISO_5,1,5,80,127,1873767072
9318,16,Jits_ISO_5,2,1,48,28,1873805184
9318,16,Jits_ISO_5,3,5,56,103,1873824088
9318,16,Jits_ISO_5,0,5,56,103,1874243884
9318,16,Jits_ISO_5,1,5,80,127,1874254152
9318,16,Jits_ISO_5,2,1,48,35,1874260860
9318,16,Jits_ISO_5,3,5,63,98,1874294008
9318,16,Jits_ISO_5,0,5,56,103,1874724076
9318,16,Jits_ISO_5,1,1,48,30,1874748244
9318,16,Jits_ISO_5,2,5,63,98,1874783636
9318,16,Jits_ISO_5,3,5,80,127,1874793832
9318,16,Jits_ISO_5,0,1,48,32,1875211812
9318,16,Jits_ISO_5,1,5,63,98,1875234304
9318,16,Jits_ISO_5,2,5,80,127,1875274244
9318,16,Jits_ISO_5,3,5,56,103,1875314016
9318,16,Jits_ISO_5,0,1,48,32,1875724124
9318,16,Jits_ISO_5,1,5,56,103,1875733744
9318,16,Jits_ISO_5,2,5,63,98,1875813832
9318,16,Jits_ISO_5,3,5,80,127,1875817048
9318,16,Jits_ISO_5,0,9999,9999,9999,1816421444
9318,16,Jits_ISO_5,1,9999,9999,9999,1816921164
9318,16,Jits_ISO_5,2,9999,9999,9999,1817421924
9318,16,Jits_ISO_5,3,9999,9999,9999,1817921656
9318,16,Jits_ISO_5,4,9999,9999,9999,1818421316
9318,16,Jits_ISO_5,5,9999,9999,9999,1818922100
9318,16,Jits_ISO_5,6,9999,9999,9999,1819421756
9318,16,Jits_ISO_5,7,9999,9999,9999,1819921492
9318,16,Jits_ISO_5,8,9999,9999,9999,1820421200
9318,16,Jits_ISO_5,9,9999,9999,9999,1820921956
9318,16,Jits_ISO_5,10,9999,9999,9999,1821421680
9318,16,Jits_ISO_5,11,9999,9999,9999,1821921340
9318,16,Jits_ISO_5,12,9999,9999,9999,1822422120
9318,16,Jits_ISO_5,13,9999,9999,9999,1822932036
9318,16,Jits_ISO_5,14,9999,9999,9999,1823431756
9318,16,Jits_ISO_5,15,9999,9999,9999,1823931488
9318,16,Jits_ISO_5,16,9999,9999,9999,1824431220
9318,16,Jits_ISO_5,17,9999,9999,9999,1824931924
9318,16,Jits_ISO_5,18,9999,9999,9999,1825431656
9318,16,Jits_ISO_5,19,9999,9999,9999,1825931320
9318,16,Jits_ISO_5,20,9999,9999,9999,1826432096
9318,16,Jits_ISO_5,21,9999,9999,9999,1826942036
9318,16,Jits_ISO_5,22,9999,9999,9999,1827441768
9318,16,Jits_ISO_5,23,9999,9999,9999,1827941424
9318,16,Jits_ISO_5,24,9999,9999,9999,1828441160
9318,16,Jits_ISO_5,25,9999,9999,9999,1828941932
9318,16,Jits_ISO_5,26,9999,9999,9999,1829441592
9318,16,Jits_ISO_5,27,9999,9999,9999,1829941312
9318,16,Jits_ISO_5,28,9999,9999,9999,1830442096
9318,16,Jits_ISO_5,29,9999,9999,9999,1830941752
9318,16,Jits_ISO_5,30,9999,9999,9999,1831441500
9318,16,Jits_ISO_5,31,9999,9999,9999,1831941232
9318,16,Jits_ISO_5,32,9999,9999,9999,1832441912
9318,16,Jits_ISO_5,33,9999,9999,9999,1832941640
9318,16,Jits_ISO_5,34,9999,9999,9999,1833441372
9318,16,Jits_ISO_5,35,9999,9999,9999,1833942084
9318,16,Jits_ISO_5,36,9999,9999,9999,1834452068
9318,16,Jits_ISO_5,37,9999,9999,9999,1834951804
9318,16,Jits_ISO_5,38,9999,9999,9999,1835451468
9318,16,Jits_ISO_5,39,9999,9999,9999,1835951200
9318,16,Jits_ISO_5,40,9999,9999,9999,1836451912
9318,16,Jits_ISO_5,41,9999,9999,9999,1836951656
9318,16,Jits_ISO_5,42,9999,9999,9999,1837451328
9318,16,Jits_ISO_5,43,9999,9999,9999,1837952104
9318,16,Jits_ISO_5,44,9999,9999,9999,1838462024
9318,16,Jits_ISO_5,45,9999,9999,9999,1838961752
9318,16,Jits_ISO_5,46,9999,9999,9999,1839461488
9318,16,Jits_ISO_5,47,9999,9999,9999,1839961152
9318,16,Jits_ISO_5,48,9999,9999,9999,1840461936
9318,16,Jits_ISO_5,49,9999,9999,9999,1840961604
9318,16,Jits_ISO_5,50,9999,9999,9999,1841461324
9318,16,Jits_ISO_5,51,9999,9999,9999,1841962104
9318,16,Jits_ISO_5,52,9999,9999,9999,1842461764
9318,16,Jits_ISO_5,53,9999,9999,9999,1842961516
9318,16,Jits_ISO_5,54,9999,9999,9999,1843461176
9318,16,Jits_ISO_5,55,9999,9999,9999,1843961952
9318,16,Jits_ISO_5,56,9999,9999,9999,1844461680
9318,16,Jits_ISO_5,57,9999,9999,9999,1844961348
9318,16,Jits_ISO_5,58,9999,9999,9999,1845462128
9318,16,Jits_ISO_5,59,9999,9999,9999,1845972036
9318,16,Jits_ISO_5,60,9999,9999,9999,1846471784
9318,16,Jits_ISO_5,61,9999,9999,9999,1846971512
9318,16,Jits_ISO_5,62,9999,9999,9999,1847471176
9318,16,Jits_ISO_5,63,9999,9999,9999,1847971952
9318,16,Jits_ISO_5,64,9999,9999,9999,1848471612
9318,16,Jits_ISO_5,65,9999,9999,9999,1848971340
9318,16,Jits_ISO_5,66,9999,9999,9999,1849472120
9318,16,Jits_ISO_5,67,9999,9999,9999,1849982028
9318,16,Jits_ISO_5,68,9999,9999,9999,1850481760
9318,16,Jits_ISO_5,69,9999,9999,9999,1850981492
9318,16,Jits_ISO_5,70,9999,9999,9999,1851481140
9318,16,Jits_ISO_5,71,9999,9999,9999,1851981920
9318,16,Jits_ISO_5,72,9999,9999,9999,1852481652
9318,16,Jits_ISO_5,73,9999,9999,9999,1852981308
9318,16,Jits_ISO_5,74,9999,9999,9999,1853482088
9318,16,Jits_ISO_5,75,9999,9999,9999,1853981748
9318,16,Jits_ISO_5,76,9999,9999,9999,1854481500
9318,16,Jits_ISO_5,77,9999,9999,9999,1854981232
9318,16,Jits_ISO_5,78,9999,9999,9999,1855481928
9318,16,Jits_ISO_5,79,9999,9999,9999,1855981664
9318,16,Jits_ISO_5,80,9999,9999,9999,1856481400
9318,16,Jits_ISO_5,81,9999,9999,9999,1856982104
9318,16,Jits_ISO_5,82,9999,9999,9999,1857492020
9318,16,Jits_ISO_5,83,9999,9999,9999,1857991752
9318,16,Jits_ISO_5,84,9999,9999,9999,1858491504
9318,16,Jits_ISO_5,85,9999,9999,9999,1858991160
9318,16,Jits_ISO_5,86,9999,9999,9999,1859491936
9318,16,Jits_ISO_5,87,9999,9999,9999,1859991668
9318,16,Jits_ISO_5,88,9999,9999,9999,1860491324
9318,16,Jits_ISO_5,89,9999,9999,9999,1860992104
9318,16,Jits_ISO_5,90,9999,9999,9999,1861502024
9318,16,Jits_ISO_5,91,9999,9999,9999,1862001756
9318,16,Jits_ISO_5,92,9999,9999,9999,1862501476
9318,16,Jits_ISO_5,93,9999,9999,9999,1863001208
9318,16,Jits_ISO_5,94,9999,9999,9999,1863501908
9318,16,Jits_ISO_5,95,9999,9999,9999,1864001640
9318,16,Jits_ISO_5,96,9999,9999,9999,1864501316
9318,16,Jits_ISO_5,97,9999,9999,9999,1865002092
9318,16,Jits_ISO_5,98,9999,9999,9999,1865501748
9318,16,Jits_ISO_5,99,9999,9999,9999,1866001480
9318,16,Jits_ISO_5,100,9999,9999,9999,1866501212
9318,16,Jits_ISO_5,101,9999,9999,9999,1867001920
9318,16,Jits_ISO_5,102,9999,9999,9999,1867501632
9318,16,Jits_ISO_5,103,9999,9999,9999,1868001372
9318,16,Jits_ISO_5,104,9999,9999,9999,1868502076
9318,16,Jits_ISO_5,105,9999,9999,9999,1869012068
9318,16,Jits_ISO_5,106,9999,9999,9999,1869511800
9318,16,Jits_ISO_5,107,9999,9999,9999,1870011456
9318,16,Jits_ISO_5,108,9999,9999,9999,1870511184
9318,16,Jits_ISO_5,109,9999,9999,9999,1871011960
9318,16,Jits_ISO_5,110,9999,9999,9999,1871511636
9318,16,Jits_ISO_5,111,9999,9999,9999,1872011372
9318,16,Jits_ISO_5,112,9999,9999,9999,1872512072
9318,16,Jits_ISO_5,113,9999,9999,9999,1873022020
9318,16,Jits_ISO_5,114,9999,9999,9999,1873521720
9318,16,Jits_ISO_5,115,9999,9999,9999,1874021448
9318,16,Jits_ISO_5,116,9999,9999,9999,1874521184
9318,16,Jits_ISO_5,117,9999,9999,9999,1875021904
9318,16,Jits_ISO_5,118,9999,9999,9999,1875521652
9318,16,Jits_ISO_5,119,9999,9999,9999,1876021304
9319,7,Jits_ISO_8,0,5,56,103,1885772288
9319,7,Jits_ISO_8,1,5,63,98,1885775240
9319,7,Jits_ISO_8,2,5,80,127,1885778512
9319,7,Jits_ISO_8,0,5,56,103,1886571836
9319,7,Jits_ISO_8,1,5,63,98,1886574940
9319,7,Jits_ISO_8,2,5,80,127,1886578212
9319,7,Jits_ISO_8,3,1,48,38,1886730752
9319,7,Jits_ISO_8,0,5,80,127,1887312448
9319,7,Jits_ISO_8,1,1,48,43,1887353628
9319,7,Jits_ISO_8,2,5,63,98,1887402204
9319,7,Jits_ISO_8,3,5,56,103,1887411652
9319,7,Jits_ISO_8,0,1,48,38,1888075204
9319,7,Jits_ISO_8,1,5,56,103,1888131428
9319,7,Jits_ISO_8,2,5,63,98,1888141772
9319,7,Jits_ISO_8,3,5,80,127,1888231744
9319,7,Jits_ISO_8,0,1,48,42,1888847260
9319,7,Jits_ISO_8,1,5,63,98,1888901612
9319,7,Jits_ISO_8,2,5,80,127,1888932412
9319,7,Jits_ISO_8,3,5,56,103,1888961848
9319,7,Jits_ISO_8,0,1,48,33,1889626956
9319,7,Jits_ISO_8,1,5,56,103,1889702364
9319,7,Jits_ISO_8,2,5,80,127,1889801504
9319,7,Jits_ISO_8,3,5,63,98,1889851780
9319,7,Jits_ISO_8,0,5,56,103,1890502156
9319,7,Jits_ISO_8,1,1,48,37,1890544836
9319,7,Jits_ISO_8,2,5,80,127,1890552352
9319,7,Jits_ISO_8,3,5,63,98,1890592092
9319,7,Jits_ISO_8,0,1,48,28,1891165852
9319,7,Jits_ISO_8,1,5,80,127,1891331552
9319,7,Jits_ISO_8,2,5,63,98,1891362276
9319,7,Jits_ISO_8,3,5,56,103,1891431732
9319,7,Jits_ISO_8,0,1,48,38,1892082596
9319,7,Jits_ISO_8,1,5,63,98,1892161844
9319,7,Jits_ISO_8,2,5,56,103,1892191508
9319,7,Jits_ISO_8,3,5,80,127,1892252196
9319,7,Jits_ISO_8,0,5,56,103,1892902296
9319,7,Jits_ISO_8,1,5,80,127,1892905440
9319,7,Jits_ISO_8,2,1,48,21,1892938300
9319,7,Jits_ISO_8,3,5,63,98,1893022168
9319,7,Jits_ISO_8,0,1,48,38,1893707972
9319,7,Jits_ISO_8,1,5,56,103,1893781876
9319,7,Jits_ISO_8,2,5,80,127,1893821804
9319,7,Jits_ISO_8,3,5,63,98,1893832148
9319,7,Jits_ISO_8,0,1,48,37,1894538328
9319,7,Jits_ISO_8,1,5,56,103,1894541584
9319,7,Jits_ISO_8,2,5,80,127,1894562416
9319,7,Jits_ISO_8,3,5,63,98,1894642048
9319,7,Jits_ISO_8,0,1,48,29,1895327776
9319,7,Jits_ISO_8,1,5,80,127,1895332300
9319,7,Jits_ISO_8,2,5,56,103,1895431592
9319,7,Jits_ISO_8,3,5,63,98,1895441712
9319,7,Jits_ISO_8,0,5,63,98,1896102200
9319,7,Jits_ISO_8,1,1,48,31,1896133340
9319,7,Jits_ISO_8,2,5,80,127,1896161616
9319,7,Jits_ISO_8,3,5,56,103,1896171812
9319,7,Jits_ISO_8,0,1,48,35,1896799608
9319,7,Jits_ISO_8,1,5,56,103,1896902108
9319,7,Jits_ISO_8,2,5,63,98,1896971592
9319,7,Jits_ISO_8,3,5,80,127,1896975032
9319,7,Jits_ISO_8,0,1,48,36,1897631516
9319,7,Jits_ISO_8,1,5,63,98,1897731576
9319,7,Jits_ISO_8,2,5,56,103,1897781628
9319,7,Jits_ISO_8,3,5,80,127,1897784624
9319,7,Jits_ISO_8,0,1,48,32,1898432116
9319,7,Jits_ISO_8,1,5,56,103,1898492400
9319,7,Jits_ISO_8,2,5,80,127,1898495248
9319,7,Jits_ISO_8,3,5,63,98,1898582372
9319,7,Jits_ISO_8,0,1,48,33,1899332040
9319,7,Jits_ISO_8,1,5,63,98,1899333376
9319,7,Jits_ISO_8,2,5,56,103,1899422092
9319,7,Jits_ISO_8,3,5,80,127,1899451680
9319,7,Jits_ISO_8,0,5,56,103,1900121488
9319,7,Jits_ISO_8,1,1,48,41,1900144236
9319,7,Jits_ISO_8,2,5,63,98,1900221660
9319,7,Jits_ISO_8,3,5,80,127,1900251616
9319,7,Jits_ISO_8,0,5,63,98,1900941672
9319,7,Jits_ISO_8,1,5,56,103,1900952092
9319,7,Jits_ISO_8,2,1,48,35,1900975144
9319,7,Jits_ISO_8,3,5,80,127,1901042068
9319,7,Jits_ISO_8,0,1,48,35,1901734900
9319,7,Jits_ISO_8,1,5,63,98,1901762052
9319,7,Jits_ISO_8,2,5,56,103,1901841860
9319,7,Jits_ISO_8,3,5,80,127,1901845152
9319,7,Jits_ISO_8,0,1,48,19,1902476544
9319,7,Jits_ISO_8,1,5,80,127,1902521680
9319,7,Jits_ISO_8,2,5,63,98,1902542212
9319,7,Jits_ISO_8,3,5,56,103,1902601492
9319,7,Jits_ISO_8,0,1,48,25,1903297152
9319,7,Jits_ISO_8,1,5,56,103,1903362320
9319,7,Jits_ISO_8,2,5,63,98,1903381804
9319,7,Jits_ISO_8,3,5,80,127,1903385392
9319,7,Jits_ISO_8,0,5,63,98,1904101836
9319,7,Jits_ISO_8,1,1,48,21,1904127232
9319,7,Jits_ISO_8,2,5,80,127,1904181584
9319,7,Jits_ISO_8,3,5,56,103,1904192076
9319,7,Jits_ISO_8,0,1,48,36,1904890384
9319,7,Jits_ISO_8,1,5,63,98,1904922096
9319,7,Jits_ISO_8,2,5,56,103,1904941360
9319,7,Jits_ISO_8,3,5,80,127,1904991696
9319,7,Jits_ISO_8,0,1,48,20,1905681548
9319,7,Jits_ISO_8,1,5,80,127,1905721656
9319,7,Jits_ISO_8,2,5,63,98,1905761520
9319,7,Jits_ISO_8,3,5,56,103,1905782264
9319,7,Jits_ISO_8,0,1,48,29,1906489408
9319,7,Jits_ISO_8,1,5,56,103,1906562344
9319,7,Jits_ISO_8,2,5,63,98,1906571640
9319,7,Jits_ISO_8,3,5,80,127,1906592084
9319,7,Jits_ISO_8,0,5,56,103,1907291484
9319,7,Jits_ISO_8,1,1,48,28,1907332064
9319,7,Jits_ISO_8,2,5,63,98,1907381612
9319,7,Jits_ISO_8,3,5,80,127,1907441988
9319,7,Jits_ISO_8,0,5,80,127,1908122072
9319,7,Jits_ISO_8,1,1,48,24,1908123040
9319,7,Jits_ISO_8,2,5,56,103,1908132116
9319,7,Jits_ISO_8,3,5,63,98,1908202096
9319,7,Jits_ISO_8,0,1,48,28,1908935396
9319,7,Jits_ISO_8,1,5,63,98,1908952360
9319,7,Jits_ISO_8,2,5,80,127,1909041532
9319,7,Jits_ISO_8,3,5,56,103,1909051952
9319,7,Jits_ISO_8,0,5,63,98,1909691692
9319,7,Jits_ISO_8,1,5,80,127,1909742044
9319,7,Jits_ISO_8,2,5,56,103,1909802460
9319,7,Jits_ISO_8,3,1,48,43,1909862820
9319,7,Jits_ISO_8,0,1,48,34,1910507096
9319,7,Jits_ISO_8,1,5,56,103,1910522212
9319,7,Jits_ISO_8,2,5,80,127,1910572340
9319,7,Jits_ISO_8,3,5,63,98,1910592048
9319,7,Jits_ISO_8,0,5,56,103,1911292256
9319,7,Jits_ISO_8,1,1,48,33,1911338896
9319,7,Jits_ISO_8,2,5,80,127,1911351744
9319,7,Jits_ISO_8,3,5,63,98,1911422172
9319,7,Jits_ISO_8,0,5,56,103,1912091980
9319,7,Jits_ISO_8,1,5,80,127,1912121804
9319,7,Jits_ISO_8,2,5,63,98,1912152528
9319,7,Jits_ISO_8,3,1,48,19,1912161944
9319,7,Jits_ISO_8,0,1,48,23,1912927400
9319,7,Jits_ISO_8,1,5,56,103,1912931776
9319,7,Jits_ISO_8,2,5,80,127,1912952160
9319,7,Jits_ISO_8,3,5,63,98,1913011652
9319,7,Jits_ISO_8,0,5,80,127,1913812260
9319,7,Jits_ISO_8,1,5,56,103,1913821408
9319,7,Jits_ISO_8,2,1,48,14,1913829164
9319,7,Jits_ISO_8,3,5,63,98,1913831896
9319,7,Jits_ISO_8,0,5,56,103,1914572056
9319,7,Jits_ISO_8,1,1,48,24,1914585216
9319,7,Jits_ISO_8,2,5,80,127,1914611988
9319,7,Jits_ISO_8,3,5,63,98,1914641912
9319,7,Jits_ISO_8,0,5,56,103,1915342264
9319,7,Jits_ISO_8,1,5,63,98,1915371868
9319,7,Jits_ISO_8,2,5,80,127,1915411980
9319,7,Jits_ISO_8,0,5,80,127,1916091936
9319,7,Jits_ISO_8,1,1,48,32,1916120760
9319,7,Jits_ISO_8,2,5,63,98,1916141836
9319,7,Jits_ISO_8,3,5,56,103,1916162392
9319,7,Jits_ISO_8,0,1,48,45,1916882336
9319,7,Jits_ISO_8,1,5,56,103,1916922172
9319,7,Jits_ISO_8,2,5,80,127,1916991912
9319,7,Jits_ISO_8,3,5,63,98,1917052304
9319,7,Jits_ISO_8,0,1,48,32,1917673132
9319,7,Jits_ISO_8,1,5,80,127,1917721960
9319,7,Jits_ISO_8,2,5,63,98,1917812156
9319,7,Jits_ISO_8,3,5,56,103,1917831420
9319,7,Jits_ISO_8,0,1,48,47,1918482016
9319,7,Jits_ISO_8,1,5,63,98,1918542128
9319,7,Jits_ISO_8,2,5,56,103,1918561836
9319,7,Jits_ISO_8,3,5,80,127,1918602060
9319,7,Jits_ISO_8,0,1,48,36,1919294760
9319,7,Jits_ISO_8,1,5,80,127,1919302052
9319,7,Jits_ISO_8,2,5,63,98,1919321540
9319,7,Jits_ISO_8,3,5,56,103,1919402292
9319,7,Jits_ISO_8,0,1,48,40,1920048604
9319,7,Jits_ISO_8,1,5,63,98,1920091424
9319,7,Jits_ISO_8,2,5,56,103,1920201992
9319,7,Jits_ISO_8,3,5,80,127,1920205064
9319,7,Jits_ISO_8,0,1,48,41,1920831684
9319,7,Jits_ISO_8,1,5,63,98,1920912020
9319,7,Jits_ISO_8,2,5,56,103,1920921916
9319,7,Jits_ISO_8,3,5,80,127,1920925060
9319,7,Jits_ISO_8,0,1,48,38,1921676844
9319,7,Jits_ISO_8,1,5,56,103,1921691936
9319,7,Jits_ISO_8,2,5,80,127,1921811900
9319,7,Jits_ISO_8,3,5,63,98,1921851984
9319,7,Jits_ISO_8,0,1,48,34,1922439404
9319,7,Jits_ISO_8,1,5,56,103,1922512100
9319,7,Jits_ISO_8,2,5,80,127,1922591980
9319,7,Jits_ISO_8,3,5,63,98,1922611764
9319,7,Jits_ISO_8,0,1,48,31,1923256932
9319,7,Jits_ISO_8,1,5,56,103,1923311956
9319,7,Jits_ISO_8,2,5,63,98,1923421804
9319,7,Jits_ISO_8,3,5,80,127,1923425100
9319,7,Jits_ISO_8,0,1,48,40,1924018120
9319,7,Jits_ISO_8,1,5,56,103,1924141344
9319,7,Jits_ISO_8,2,5,80,127,1924172288
9319,7,Jits_ISO_8,3,5,63,98,1924191628
9319,7,Jits_ISO_8,0,1,48,42,1924895784
9319,7,Jits_ISO_8,1,5,63,98,1924921956
9319,7,Jits_ISO_8,2,5,56,103,1924932004
9319,7,Jits_ISO_8,3,5,80,127,1924942052
9319,7,Jits_ISO_8,0,5,80,127,1925712304
9319,7,Jits_ISO_8,1,1,48,32,1925736324
9319,7,Jits_ISO_8,2,5,56,103,1925762500
9319,7,Jits_ISO_8,3,5,63,98,1925802288
9319,7,Jits_ISO_8,0,1,48,38,1926523456
9319,7,Jits_ISO_8,1,5,80,127,1926531576
9319,7,Jits_ISO_8,2,5,63,98,1926551960
9319,7,Jits_ISO_8,3,5,56,103,1926602088
9319,7,Jits_ISO_8,0,5,80,127,1927341332
9319,7,Jits_ISO_8,1,5,56,103,1927372128
9319,7,Jits_ISO_8,2,1,48,30,1927398544
9319,7,Jits_ISO_8,3,5,63,98,1927441828
9319,7,Jits_ISO_8,0,1,48,28,1928172268
9319,7,Jits_ISO_8,1,5,56,103,1928192248
9319,7,Jits_ISO_8,2,5,80,127,1928201692
9319,7,Jits_ISO_8,3,5,63,98,1928241780
9319,7,Jits_ISO_8,0,5,56,103,1928901956
9319,7,Jits_ISO_8,1,5,63,98,1928921668
9319,7,Jits_ISO_8,2,5,80,127,1928991976
9319,7,Jits_ISO_8,3,1,48,25,1929057864
9319,7,Jits_ISO_8,0,1,48,32,1929688748
9319,7,Jits_ISO_8,1,5,63,98,1929722076
9319,7,Jits_ISO_8,2,5,80,127,1929781572
9319,7,Jits_ISO_8,3,5,56,103,1929802016
9319,7,Jits_ISO_8,0,1,48,31,1930480980
9319,7,Jits_ISO_8,1,5,80,127,1930511596
9319,7,Jits_ISO_8,2,5,56,103,1930541420
9319,7,Jits_ISO_8,3,5,63,98,1930572216
9319,7,Jits_ISO_8,0,1,48,28,1931269472
9319,7,Jits_ISO_8,1,5,56,103,1931311672
9319,7,Jits_ISO_8,2,5,63,98,1931371972
9319,7,Jits_ISO_8,3,5,80,127,1931432364
9319,7,Jits_ISO_8,0,1,48,35,1932045264
9319,7,Jits_ISO_8,1,5,80,127,1932131908
9319,7,Jits_ISO_8,2,5,56,103,1932152128
9319,7,Jits_ISO_8,3,5,63,98,1932221660
9319,7,Jits_ISO_8,0,1,48,29,1932879136
9319,7,Jits_ISO_8,1,5,80,127,1932931688
9319,7,Jits_ISO_8,2,5,63,98,1932951776
9319,7,Jits_ISO_8,3,5,56,103,1932981588
9319,7,Jits_ISO_8,0,1,48,29,1933640048
9319,7,Jits_ISO_8,1,5,80,127,1933721956
9319,7,Jits_ISO_8,2,5,63,98,1933741652
9319,7,Jits_ISO_8,3,5,56,103,1933801820
9319,7,Jits_ISO_8,0,1,48,33,1934509508
9319,7,Jits_ISO_8,1,5,80,127,1934521664
9319,7,Jits_ISO_8,2,5,56,103,1934621996
9319,7,Jits_ISO_8,3,5,63,98,1934651748
9319,7,Jits_ISO_8,0,5,63,98,1935312316
9319,7,Jits_ISO_8,1,5,80,127,1935362616
9319,7,Jits_ISO_8,2,5,56,103,1935381808
9319,7,Jits_ISO_8,0,1,48,37,1936046720
9319,7,Jits_ISO_8,1,5,80,127,1936151884
9319,7,Jits_ISO_8,2,5,56,103,1936181708
9319,7,Jits_ISO_8,3,5,63,98,1936184848
9319,7,Jits_ISO_8,0,1,48,37,1936868744
9319,7,Jits_ISO_8,1,5,63,98,1936982524
9319,7,Jits_ISO_8,2,5,56,103,1937022684
9319,7,Jits_ISO_8,3,5,80,127,1937041652
9319,7,Jits_ISO_8,0,1,48,42,1937719760
9319,7,Jits_ISO_8,1,5,80,127,1937721644
9319,7,Jits_ISO_8,2,5,63,98,1937801592
9319,7,Jits_ISO_8,3,5,56,103,1937841516
9319,7,Jits_ISO_8,0,5,63,98,1938541968
9319,7,Jits_ISO_8,1,1,48,29,1938571012
9319,7,Jits_ISO_8,2,5,80,127,1938621684
9319,7,Jits_ISO_8,3,5,56,103,1938642368
9319,7,Jits_ISO_8,0,5,56,103,1939381768
9319,7,Jits_ISO_8,1,1,48,32,1939384960
9319,7,Jits_ISO_8,2,5,63,98,1939391808
9319,7,Jits_ISO_8,3,5,80,127,1939431672
9319,7,Jits_ISO_8,0,5,56,103,1940101476
9319,7,Jits_ISO_8,1,5,80,127,1940104468
9319,7,Jits_ISO_8,2,1,48,29,1940183928
9319,7,Jits_ISO_8,3,5,63,98,1940241744
9319,7,Jits_ISO_8,0,5,56,103,1940891896
9319,7,Jits_ISO_8,1,1,48,34,1940895916
9319,7,Jits_ISO_8,2,5,63,98,1940982252
9319,7,Jits_ISO_8,3,5,80,127,1941051620
9319,7,Jits_ISO_8,0,1,48,39,1941681600
9319,7,Jits_ISO_8,1,5,63,98,1941771780
9319,7,Jits_ISO_8,2,5,80,127,1941775728
9319,7,Jits_ISO_8,3,5,56,103,1941832080
9319,7,Jits_ISO_8,0,1,48,38,1942519520
9319,7,Jits_ISO_8,1,5,80,127,1942612536
9319,7,Jits_ISO_8,2,5,56,103,1942631788
9319,7,Jits_ISO_8,3,5,63,98,1942641984
9319,7,Jits_ISO_8,0,5,56,103,1943321832
9319,7,Jits_ISO_8,1,5,63,98,1943332400
9319,7,Jits_ISO_8,2,1,48,33,1943369080
9319,7,Jits_ISO_8,3,5,80,127,1943401776
9319,7,Jits_ISO_8,0,5,80,127,1944121852
9319,7,Jits_ISO_8,1,1,48,29,1944143476
9319,7,Jits_ISO_8,2,5,56,103,1944171824
9319,7,Jits_ISO_8,3,5,63,98,1944222028
9319,7,Jits_ISO_8,0,1,48,38,1944903716
9319,7,Jits_ISO_8,1,5,56,103,1945002472
9319,7,Jits_ISO_8,2,5,63,98,1945011548
9319,7,Jits_ISO_8,3,5,80,127,1945051488
9319,7,Jits_ISO_8,0,5,56,103,1945741748
9319,7,Jits_ISO_8,1,1,48,34,1945751464
9319,7,Jits_ISO_8,2,5,63,98,1945781608
9319,7,Jits_ISO_8,3,5,80,127,1945831660
9319,7,Jits_ISO_8,0,5,80,127,1946501468
9319,7,Jits_ISO_8,1,5,56,103,1946551672
9319,7,Jits_ISO_8,2,5,63,98,1946572056
9319,7,Jits_ISO_8,3,1,48,28,1946601172
9319,7,Jits_ISO_8,0,1,48,36,1947309932
9319,7,Jits_ISO_8,1,5,80,127,1947311440
9319,7,Jits_ISO_8,2,5,63,98,1947371760
9319,7,Jits_ISO_8,3,5,56,103,1947451860
9319,7,Jits_ISO_8,0,5,80,127,1948091824
9319,7,Jits_ISO_8,1,5,56,103,1948131692
9319,7,Jits_ISO_8,2,5,63,98,1948152028
9319,7,Jits_ISO_8,3,1,48,37,1948157168
9319,7,Jits_ISO_8,0,1,48,28,1948900360
9319,7,Jits_ISO_8,1,5,56,103,1948941540
9319,7,Jits_ISO_8,2,5,80,127,1948951884
9319,7,Jits_ISO_8,3,5,63,98,1948991820
9319,7,Jits_ISO_8,0,1,48,29,1949678544
9319,7,Jits_ISO_8,1,5,56,103,1949811956
9319,7,Jits_ISO_8,2,5,63,98,1949851972
9319,7,Jits_ISO_8,3,5,80,127,1949855408
9319,7,Jits_ISO_8,0,5,63,98,1950502524
9319,7,Jits_ISO_8,1,1,48,26,1950512916
9319,7,Jits_ISO_8,2,5,80,127,1950542604
9319,7,Jits_ISO_8,3,5,56,103,1950611692
9319,7,Jits_ISO_8,0,1,48,31,1951271260
9319,7,Jits_ISO_8,1,5,63,98,1951291736
9319,7,Jits_ISO_8,2,5,56,103,1951371520
9319,7,Jits_ISO_8,3,5,80,127,1951431984
9319,7,Jits_ISO_8,0,1,48,25,1952048928
9319,7,Jits_ISO_8,1,5,80,127,1952101860
9319,7,Jits_ISO_8,2,5,63,98,1952151824
9319,7,Jits_ISO_8,3,5,56,103,1952181576
9319,7,Jits_ISO_8,0,1,48,29,1952856280
9319,7,Jits_ISO_8,1,5,56,103,1952892272
9319,7,Jits_ISO_8,2,5,63,98,1952941280
9319,7,Jits_ISO_8,3,5,80,127,1952951608
9319,7,Jits_ISO_8,0,1,48,22,1953672548
9319,7,Jits_ISO_8,1,5,56,103,1953702388
9319,7,Jits_ISO_8,2,5,63,98,1953811792
9319,7,Jits_ISO_8,3,5,80,127,1953832248
9319,7,Jits_ISO_8,0,1,48,38,1954458532
9319,7,Jits_ISO_8,1,5,63,98,1954501948
9319,7,Jits_ISO_8,2,5,80,127,1954552756
9319,7,Jits_ISO_8,3,5,56,103,1954642444
9319,7,Jits_ISO_8,0,1,48,36,1955263572
9319,7,Jits_ISO_8,1,5,63,98,1955291472
9319,7,Jits_ISO_8,2,5,80,127,1955322368
9319,7,Jits_ISO_8,3,5,56,103,1955412336
9319,7,Jits_ISO_8,0,1,48,25,1956027008
9319,7,Jits_ISO_8,1,5,63,98,1956092248
9319,7,Jits_ISO_8,2,5,56,103,1956101472
9319,7,Jits_ISO_8,3,5,80,127,1956201704
9319,7,Jits_ISO_8,0,1,48,35,1956832344
9319,7,Jits_ISO_8,1,5,63,98,1956992484
9319,7,Jits_ISO_8,2,5,80,127,1957022012
9319,7,Jits_ISO_8,3,5,56,103,1957051764
9319,7,Jits_ISO_8,0,1,48,32,1957665344
9319,7,Jits_ISO_8,1,5,80,127,1957811536
9319,7,Jits_ISO_8,2,5,63,98,1957821736
9319,7,Jits_ISO_8,3,5,56,103,1957851560
9319,7,Jits_ISO_8,0,1,48,42,1958467908
9319,7,Jits_ISO_8,1,5,80,127,1958511920
9319,7,Jits_ISO_8,2,5,63,98,1958531408
9319,7,Jits_ISO_8,3,5,56,103,1958581520
9319,7,Jits_ISO_8,0,1,48,39,1959212700
9319,7,Jits_ISO_8,1,5,63,98,1959341432
9319,7,Jits_ISO_8,2,5,80,127,1959401824
9319,7,Jits_ISO_8,3,5,56,103,1959422308
9319,7,Jits_ISO_8,0,5,63,98,1960102204
9319,7,Jits_ISO_8,1,1,48,40,1960115812
9319,7,Jits_ISO_8,2,5,56,103,1960152476
9319,7,Jits_ISO_8,3,5,80,127,1960161552
9319,7,Jits_ISO_8,0,1,48,27,1960882996
9319,7,Jits_ISO_8,1,5,56,103,1960931648
9319,7,Jits_ISO_8,2,5,80,127,1960941920
9319,7,Jits_ISO_8,3,5,63,98,1961042400
9319,7,Jits_ISO_8,0,1,48,32,1961638640
9319,7,Jits_ISO_8,1,5,80,127,1961691428
9319,7,Jits_ISO_8,2,5,63,98,1961701624
9319,7,Jits_ISO_8,3,5,56,103,1961852372
9319,7,Jits_ISO_8,0,5,63,98,1962501576
9319,7,Jits_ISO_8,1,1,48,29,1962536608
9319,7,Jits_ISO_8,2,5,80,127,1962541436
9319,7,Jits_ISO_8,3,5,56,103,1962622352
9319,7,Jits_ISO_8,0,5,56,103,1963292068
9319,7,Jits_ISO_8,1,1,48,30,1963319548
9319,7,Jits_ISO_8,2,5,80,127,1963392312
9319,7,Jits_ISO_8,3,5,63,98,1963412380
9319,7,Jits_ISO_8,0,1,48,39,1964129136
9319,7,Jits_ISO_8,1,5,80,127,1964152252
9319,7,Jits_ISO_8,2,5,56,103,1964162376
9319,7,Jits_ISO_8,3,5,63,98,1964251592
9319,7,Jits_ISO_8,0,1,48,28,1964917544
9319,7,Jits_ISO_8,1,5,56,103,1964951820
9319,7,Jits_ISO_8,2,5,63,98,1964972428
9319,7,Jits_ISO_8,3,5,80,127,1965052232
9319,7,Jits_ISO_8,0,1,48,32,1965683776
9319,7,Jits_ISO_8,1,5,63,98,1965701484
9319,7,Jits_ISO_8,2,5,56,103,1965791532
9319,7,Jits_ISO_8,3,5,80,127,1965794672
9319,7,Jits_ISO_8,0,1,48,24,1966432900
9319,7,Jits_ISO_8,1,5,56,103,1966531888
9319,7,Jits_ISO_8,2,5,80,127,1966592304
9319,7,Jits_ISO_8,3,5,63,98,1966601456
9319,7,Jits_ISO_8,0,1,48,29,1967246092
9319,7,Jits_ISO_8,1,5,80,127,1967382044
9319,7,Jits_ISO_8,2,5,56,103,1967392312
9319,7,Jits_ISO_8,3,5,63,98,1967395308
9319,7,Jits_ISO_8,0,1,48,24,1968101096
9319,7,Jits_ISO_8,1,5,56,103,1968141680
9319,7,Jits_ISO_8,2,5,80,127,1968152172
9319,7,Jits_ISO_8,3,5,63,98,1968172260
9319,7,Jits_ISO_8,0,1,48,34,1968843784
9319,7,Jits_ISO_8,1,5,63,98,1968911716
9319,7,Jits_ISO_8,2,5,80,127,1968972092
9319,7,Jits_ISO_8,3,5,56,103,1969022368
9319,7,Jits_ISO_8,0,1,48,20,1969673636
9319,7,Jits_ISO_8,1,5,63,98,1969792252
9319,7,Jits_ISO_8,2,5,56,103,1969801548
9319,7,Jits_ISO_8,3,5,80,127,1969851824
9319,7,Jits_ISO_8,0,1,48,29,1970479352
9319,7,Jits_ISO_8,1,5,63,98,1970491804
9319,7,Jits_ISO_8,2,5,80,127,1970512192
9319,7,Jits_ISO_8,3,5,56,103,1970521564
9319,7,Jits_ISO_8,0,1,48,14,1971215128
9319,7,Jits_ISO_8,1,5,63,98,1971291504
9319,7,Jits_ISO_8,2,5,80,127,1971294944
9319,7,Jits_ISO_8,3,5,56,103,1971331504
9319,7,Jits_ISO_8,0,1,48,27,1971892296
9319,7,Jits_ISO_8,1,5,63,98,1972161984
9319,7,Jits_ISO_8,2,5,80,127,1972191584
9319,7,Jits_ISO_8,3,5,56,103,1972202076
9319,7,Jits_ISO_8,0,1,48,37,1972784260
9319,7,Jits_ISO_8,1,5,56,103,1972911420
9319,7,Jits_ISO_8,2,5,80,127,1972942292
9319,7,Jits_ISO_8,3,5,63,98,1972972188
9319,7,Jits_ISO_8,0,1,48,25,1973663608
9319,7,Jits_ISO_8,1,5,63,98,1973811472
9319,7,Jits_ISO_8,2,5,56,103,1973851484
9319,7,Jits_ISO_8,3,5,80,127,1973854628
9319,7,Jits_ISO_8,0,5,80,127,1974511976
9319,7,Jits_ISO_8,1,1,48,36,1974526880
9319,7,Jits_ISO_8,2,5,56,103,1974592092
9319,7,Jits_ISO_8,3,5,63,98,1974642280
9319,7,Jits_ISO_8,0,5,80,127,1975292176
9319,7,Jits_ISO_8,1,1,48,35,1975293140
9319,7,Jits_ISO_8,2,5,56,103,1975311656
9319,7,Jits_ISO_8,3,5,63,98,1975401996
9319,7,Jits_ISO_8,0,1,48,29,1976097400
9319,7,Jits_ISO_8,1,5,80,127,1976132044
9319,7,Jits_ISO_8,2,5,63,98,1976171988
9319,7,Jits_ISO_8,3,5,56,103,1976211984
9319,7,Jits_ISO_8,0,1,48,24,1976832160
9319,7,Jits_ISO_8,1,5,63,98,1976902160
9319,7,Jits_ISO_8,2,5,80,127,1976962464
9319,7,Jits_ISO_8,3,5,56,103,1976992140
9319,7,Jits_ISO_8,0,1,48,32,1977635232
9319,7,Jits_ISO_8,1,5,56,103,1977701864
9319,7,Jits_ISO_8,2,5,80,127,1977731468
9319,7,Jits_ISO_8,3,5,63,98,1977821508
9319,7,Jits_ISO_8,0,1,48,24,1978419436
9319,7,Jits_ISO_8,1,5,56,103,1978511908
9319,7,Jits_ISO_8,2,5,80,127,1978622356
9319,7,Jits_ISO_8,3,5,63,98,1978652184
9319,7,Jits_ISO_8,0,1,48,28,1979215392
9319,7,Jits_ISO_8,1,5,56,103,1979361508
9319,7,Jits_ISO_8,2,5,63,98,1979422000
9319,7,Jits_ISO_8,3,5,80,127,1979451824
9319,7,Jits_ISO_8,0,1,48,31,1980021032
9319,7,Jits_ISO_8,1,5,56,103,1980131628
9319,7,Jits_ISO_8,2,5,63,98,1980202456
9319,7,Jits_ISO_8,3,5,80,127,1980222092
9319,7,Jits_ISO_8,0,1,48,35,1980795112
9319,7,Jits_ISO_8,1,5,80,127,1980902040
9319,7,Jits_ISO_8,2,5,63,98,1980922080
9319,7,Jits_ISO_8,3,5,56,103,1980972280
9319,7,Jits_ISO_8,0,9999,9999,9999,1886169184
9319,7,Jits_ISO_8,1,9999,9999,9999,1886969936
9319,7,Jits_ISO_8,2,9999,9999,9999,1887769664
9319,7,Jits_ISO_8,3,9999,9999,9999,1888569464
9319,7,Jits_ISO_8,4,9999,9999,9999,1889369168
9319,7,Jits_ISO_8,5,9999,9999,9999,1890169924
9319,7,Jits_ISO_8,6,9999,9999,9999,1890969704
9319,7,Jits_ISO_8,7,9999,9999,9999,1891769432
9319,7,Jits_ISO_8,8,9999,9999,9999,1892569144
9319,7,Jits_ISO_8,9,9999,9999,9999,1893369912
9319,7,Jits_ISO_8,10,9999,9999,9999,1894169720
9319,7,Jits_ISO_8,11,9999,9999,9999,1894969432
9319,7,Jits_ISO_8,12,9999,9999,9999,1895769148
9319,7,Jits_ISO_8,13,9999,9999,9999,1896569972
9319,7,Jits_ISO_8,14,9999,9999,9999,1897369668
9319,7,Jits_ISO_8,15,9999,9999,9999,1898169444
9319,7,Jits_ISO_8,16,9999,9999,9999,1898969140
9319,7,Jits_ISO_8,17,9999,9999,9999,1899769924
9319,7,Jits_ISO_8,18,9999,9999,9999,1900569712
9319,7,Jits_ISO_8,19,9999,9999,9999,1901369440
9319,7,Jits_ISO_8,20,9999,9999,9999,1902169148
9319,7,Jits_ISO_8,21,9999,9999,9999,1902969980
9319,7,Jits_ISO_8,22,9999,9999,9999,1903769680
9319,7,Jits_ISO_8,23,9999,9999,9999,1904569464
9319,7,Jits_ISO_8,24,9999,9999,9999,1905369176
9319,7,Jits_ISO_8,25,9999,9999,9999,1906169952
9319,7,Jits_ISO_8,26,9999,9999,9999,1906969664
9319,7,Jits_ISO_8,27,9999,9999,9999,1907769448
9319,7,Jits_ISO_8,28,9999,9999,9999,1908569172
9319,7,Jits_ISO_8,29,9999,9999,9999,1909369948
9319,7,Jits_ISO_8,30,9999,9999,9999,1910169656
9319,7,Jits_ISO_8,31,9999,9999,9999,1910969440
9319,7,Jits_ISO_8,32,9999,9999,9999,1911769148
9319,7,Jits_ISO_8,33,9999,9999,9999,1912569936
9319,7,Jits_ISO_8,34,9999,9999,9999,1913369664
9319,7,Jits_ISO_8,35,9999,9999,9999,1914169456
9319,7,Jits_ISO_8,36,9999,9999,9999,1914969184
9319,7,Jits_ISO_8,37,9999,9999,9999,1915769904
9319,7,Jits_ISO_8,38,9999,9999,9999,1916569672
9319,7,Jits_ISO_8,39,9999,9999,9999,1917369404
9319,7,Jits_ISO_8,40,9999,9999,9999,1918169192
9319,7,Jits_ISO_8,41,9999,9999,9999,1918969976
9319,7,Jits_ISO_8,42,9999,9999,9999,1919769684
9319,7,Jits_ISO_8,43,9999,9999,9999,1920569460
9319,7,Jits_ISO_8,44,9999,9999,9999,1921369152
9319,7,Jits_ISO_8,45,9999,9999,9999,1922169908
9319,7,Jits_ISO_8,46,9999,9999,9999,1922969692
9319,7,Jits_ISO_8,47,9999,9999,9999,1923769396
9319,7,Jits_ISO_8,48,9999,9999,9999,1924569180
9319,7,Jits_ISO_8,49,9999,9999,9999,1925369956
9319,7,Jits_ISO_8,50,9999,9999,9999,1926169664
9319,7,Jits_ISO_8,51,9999,9999,9999,1926969464
9319,7,Jits_ISO_8,52,9999,9999,9999,1927769172
9319,7,Jits_ISO_8,53,9999,9999,9999,1928569948
9319,7,Jits_ISO_8,54,9999,9999,9999,1929369656
9319,7,Jits_ISO_8,55,9999,9999,9999,1930169456
9319,7,Jits_ISO_8,56,9999,9999,9999,1930969156
9319,7,Jits_ISO_8,57,9999,9999,9999,1931769936
9319,7,Jits_ISO_8,58,9999,9999,9999,1932569720
9319,7,Jits_ISO_8,59,9999,9999,9999,1933369428
9319,7,Jits_ISO_8,60,9999,9999,9999,1934169208
9319,7,Jits_ISO_8,61,9999,9999,9999,1934969968
9319,7,Jits_ISO_8,62,9999,9999,9999,1935769696
9319,7,Jits_ISO_8,63,9999,9999,9999,1936569448
9319,7,Jits_ISO_8,64,9999,9999,9999,1937369164
9319,7,Jits_ISO_8,65,9999,9999,9999,1938169948
9319,7,Jits_ISO_8,66,9999,9999,9999,1938969664
9319,7,Jits_ISO_8,67,9999,9999,9999,1939769452
9319,7,Jits_ISO_8,68,9999,9999,9999,1940569164
9319,7,Jits_ISO_8,69,9999,9999,9999,1941369912
9319,7,Jits_ISO_8,70,9999,9999,9999,1942169704
9319,7,Jits_ISO_8,71,9999,9999,9999,1942969420
9319,7,Jits_ISO_8,72,9999,9999,9999,1943769200
9319,7,Jits_ISO_8,73,9999,9999,9999,1944569924
9319,7,Jits_ISO_8,74,9999,9999,9999,1945369656
9319,7,Jits_ISO_8,75,9999,9999,9999,1946169444
9319,7,Jits_ISO_8,76,9999,9999,9999,1946969164
9319,7,Jits_ISO_8,77,9999,9999,9999,1947769932
9319,7,Jits_ISO_8,78,9999,9999,9999,1948569712
9319,7,Jits_ISO_8,79,9999,9999,9999,1949369432
9319,7,Jits_ISO_8,80,9999,9999,9999,1950169144
9319,7,Jits_ISO_8,81,9999,9999,9999,1950969924
9319,7,Jits_ISO_8,82,9999,9999,9999,1951769708
9319,7,Jits_ISO_8,83,9999,9999,9999,1952569412
9319,7,Jits_ISO_8,84,9999,9999,9999,1953369192
9319,7,Jits_ISO_8,85,9999,9999,9999,1954169948
9319,7,Jits_ISO_8,86,9999,9999,9999,1954969656
9319,7,Jits_ISO_8,87,9999,9999,9999,1955769440
9319,7,Jits_ISO_8,88,9999,9999,9999,1956569144
9319,7,Jits_ISO_8,89,9999,9999,9999,1957369936
9319,7,Jits_ISO_8,90,9999,9999,9999,1958169656
9319,7,Jits_ISO_8,91,9999,9999,9999,1958969436
9319,7,Jits_ISO_8,92,9999,9999,9999,1959769148
9319,7,Jits_ISO_8,93,9999,9999,9999,1960569976
9319,7,Jits_ISO_8,94,9999,9999,9999,1961369688
9319,7,Jits_ISO_8,95,9999,9999,9999,1962169396
9319,7,Jits_ISO_8,96,9999,9999,9999,1962969176
9319,7,Jits_ISO_8,97,9999,9999,9999,1963769960
9319,7,Jits_ISO_8,98,9999,9999,9999,1964569688
9319,7,Jits_ISO_8,99,9999,9999,9999,1965369404
9319,7,Jits_ISO_8,100,9999,9999,9999,1966169184
9319,7,Jits_ISO_8,101,9999,9999,9999,1966969940
9319,7,Jits_ISO_8,102,9999,9999,9999,1967769716
9319,7,Jits_ISO_8,103,9999,9999,9999,1968569424
9319,7,Jits_ISO_8,104,9999,9999,9999,1969369208
9319,7,Jits_ISO_8,105,9999,9999,9999,1970169920
9319,7,Jits_ISO_8,106,9999,9999,9999,1970969692
9319,7,Jits_ISO_8,107,9999,9999,9999,1971769460
9319,7,Jits_ISO_8,108,9999,9999,9999,1972569168
9319,7,Jits_ISO_8,109,9999,9999,9999,1973369920
9319,7,Jits_ISO_8,110,9999,9999,9999,1974169704
9319,7,Jits_ISO_8,111,9999,9999,9999,1974969416
9319,7,Jits_ISO_8,112,9999,9999,9999,1975769140
9319,7,Jits_ISO_8,113,9999,9999,9999,1976569932
9319,7,Jits_ISO_8,114,9999,9999,9999,1977369716
9319,7,Jits_ISO_8,115,9999,9999,9999,1978169420
9319,7,Jits_ISO_8,116,9999,9999,9999,1978969208
9319,7,Jits_ISO_8,117,9999,9999,9999,1979769972
9319,7,Jits_ISO_8,118,9999,9999,9999,1980569680
9319,7,Jits_ISO_8,119,9999,9999,9999,1981369460
9320,5,ISIP_5,0,5,42,127,2051297788
9320,5,ISIP_5,1,5,42,127,2051798404
9320,5,ISIP_5,2,1,48,43,2052292696
9320,5,ISIP_5,3,5,42,127,2052297964
9320,5,ISIP_5,4,1,48,52,2052757156
9320,5,ISIP_5,5,5,42,127,2052797732
9320,5,ISIP_5,6,1,48,41,2053253984
9320,5,ISIP_5,7,5,42,127,2053297476
9320,5,ISIP_5,8,1,48,44,2053736852
9320,5,ISIP_5,9,5,42,127,2053798292
9320,5,ISIP_5,10,1,48,47,2054248288
9320,5,ISIP_5,11,5,42,127,2054297916
9320,5,ISIP_5,12,1,48,42,2054746860
9320,5,ISIP_5,13,5,42,127,2054797684
9320,5,ISIP_5,14,1,48,37,2055256432
9320,5,ISIP_5,15,5,42,127,2055298276
9320,5,ISIP_5,16,1,48,39,2055772056
9320,5,ISIP_5,17,5,42,127,2055798268
9320,5,ISIP_5,18,1,48,33,2056265396
9320,5,ISIP_5,19,5,42,127,2056297964
9320,5,ISIP_5,20,1,48,41,2056731880
9320,5,ISIP_5,21,5,42,127,2056797736
9320,5,ISIP_5,22,1,48,45,2057261196
9320,5,ISIP_5,23,5,42,127,2057298328
9320,5,ISIP_5,24,1,48,44,2057755656
9320,5,ISIP_5,25,5,42,127,2057797872
9320,5,ISIP_5,26,1,48,40,2058227748
9320,5,ISIP_5,27,5,42,127,2058297792
9320,5,ISIP_5,28,1,48,46,2058729284
9320,5,ISIP_5,29,5,42,127,2058797560
9320,5,ISIP_5,30,1,48,43,2059251220
9320,5,ISIP_5,31,5,42,127,2059298228
9320,5,ISIP_5,32,1,48,38,2059714016
9320,5,ISIP_5,33,5,42,127,2059797848
9320,5,ISIP_5,34,1,48,40,2060198376
9320,5,ISIP_5,35,5,42,127,2060297676
9320,5,ISIP_5,36,1,48,40,2060711384
9320,5,ISIP_5,37,5,42,127,2060798284
9320,5,ISIP_5,38,1,48,40,2061206292
9320,5,ISIP_5,39,5,42,127,2061298860
9320,5,ISIP_5,40,1,48,40,2061719976
9320,5,ISIP_5,41,5,42,127,2061797724
9320,5,ISIP_5,42,1,48,44,2062210916
9320,5,ISIP_5,43,5,42,127,2062297564
9320,5,ISIP_5,44,1,48,34,2062731556
9320,5,ISIP_5,45,5,42,127,2062798084
9320,5,ISIP_5,46,1,48,33,2063240896
9320,5,ISIP_5,47,5,42,127,2063297928
9320,5,ISIP_5,48,1,48,34,2063727500
9320,5,ISIP_5,49,5,42,127,2063797696
9320,5,ISIP_5,50,1,48,37,2064232660
9320,5,ISIP_5,51,5,42,127,2064298588
9320,5,ISIP_5,52,1,48,37,2064715076
9320,5,ISIP_5,53,5,42,127,2064797984
9320,5,ISIP_5,54,1,48,30,2065207140
9320,5,ISIP_5,55,5,42,127,2065297756
9320,5,ISIP_5,56,1,48,32,2065722844
9320,5,ISIP_5,57,5,42,127,2065797600
9320,5,ISIP_5,58,1,48,31,2066252676
9320,5,ISIP_5,59,5,42,127,2066298268
9320,5,ISIP_5,60,1,48,34,2066755440
9320,5,ISIP_5,61,5,42,127,2066797812
9320,5,ISIP_5,62,1,48,36,2067232852
9320,5,ISIP_5,63,5,42,127,2067297584
9320,5,ISIP_5,64,1,48,37,2067724692
9320,5,ISIP_5,65,5,42,127,2067798548
9320,5,ISIP_5,66,1,48,40,2068247048
9320,5,ISIP_5,67,5,42,127,2068298168
9320,5,ISIP_5,68,1,48,40,2068720092
9320,5,ISIP_5,69,5,42,127,2068797692
9320,5,ISIP_5,70,1,48,42,2069262268
9320,5,ISIP_5,71,5,42,127,2069297460
9320,5,ISIP_5,72,1,48,43,2069733668
9320,5,ISIP_5,73,5,42,127,2069798424
9320,5,ISIP_5,74,1,48,35,2070243232
9320,5,ISIP_5,75,5,42,127,2070297896
9320,5,ISIP_5,76,1,48,34,2070776612
9320,5,ISIP_5,77,5,42,127,2070797664
9320,5,ISIP_5,78,1,48,37,2071243972
9320,5,ISIP_5,79,1,48,42,2071773356
9320,5,ISIP_5,80,1,48,43,2072267584
9320,5,ISIP_5,81,1,48,37,2072771616
9320,5,ISIP_5,82,1,48,36,2073251860
9320,5,ISIP_5,83,1,48,40,2073744444
9320,5,ISIP_5,84,1,48,40,2074230592
9320,5,ISIP_5,85,1,48,46,2074745244
9320,5,ISIP_5,86,1,48,38,2075230724
9320,5,ISIP_5,87,1,48,39,2075721656
9320,5,ISIP_5,88,1,48,39,2076223524
9320,5,ISIP_5,89,1,48,40,2076674444
9320,5,ISIP_5,90,1,48,44,2077176600
9320,5,ISIP_5,91,1,48,36,2077664300
9320,5,ISIP_5,92,1,48,38,2078123524
9320,5,ISIP_5,93,1,48,35,2078595316
9320,5,ISIP_5,94,1,48,41,2079077128
9320,5,ISIP_5,95,1,48,39,2079556176
9320,5,ISIP_5,96,1,48,32,2080034696
9320,5,ISIP_5,97,1,48,33,2080495468
9320,5,ISIP_5,98,1,48,40,2080986608
9320,5,ISIP_5,99,1,48,29,2081453092
9320,5,ISIP_5,100,1,48,38,2081942532
9320,5,ISIP_5,101,1,48,37,2082406168
9320,5,ISIP_5,102,1,48,35,2082877588
9320,5,ISIP_5,103,1,48,29,2083352144
9320,5,ISIP_5,104,1,48,33,2083792184
9320,5,ISIP_5,105,1,48,36,2084256420
9320,5,ISIP_5,106,1,48,36,2084751096
9320,5,ISIP_5,107,1,48,30,2085229244
9320,5,ISIP_5,108,1,48,28,2085687428
9320,5,ISIP_5,109,1,48,31,2086138348
9320,5,ISIP_5,110,1,48,30,2086608392
9320,5,ISIP_5,111,1,48,30,2087078612
9320,5,ISIP_5,112,1,48,31,2087530584
9320,5,ISIP_5,113,1,48,30,2088008356
9320,5,ISIP_5,114,1,48,32,2088437364
9320,5,ISIP_5,115,1,48,31,2088941596
9320,5,ISIP_5,116,1,48,35,2089432532
9320,5,ISIP_5,117,1,48,34,2089916288
9320,5,ISIP_5,118,1,48,35,2090380000
9320,5,ISIP_5,119,1,48,37,2090861292
9320,5,ISIP_5,120,1,48,34,2091322912
9320,5,ISIP_5,121,1,48,33,2091808988
9320,5,ISIP_5,122,1,48,33,2092280168
9320,5,ISIP_5,123,1,48,36,2092757168
9320,5,ISIP_5,124,1,48,33,2093227092
9320,5,ISIP_5,125,1,48,33,2093689084
9320,5,ISIP_5,126,1,48,34,2094176656
9320,5,ISIP_5,127,1,48,39,2094642312
9320,5,ISIP_5,128,1,48,35,2095113580
9320,5,ISIP_5,129,1,48,36,2095573676
9320,5,ISIP_5,130,1,48,35,2096064768
9320,5,ISIP_5,131,1,48,32,2096520252
9320,5,ISIP_5,132,1,48,27,2096984788
9320,5,ISIP_5,133,1,48,36,2097452388
9320,5,ISIP_5,134,1,48,34,2097911988
9320,5,ISIP_5,135,1,48,34,2098379040
9320,5,ISIP_5,136,1,48,29,2098830188
9320,5,ISIP_5,137,1,48,33,2099284836
9320,5,ISIP_5,138,1,48,33,2099757000
9320,5,ISIP_5,139,1,48,38,2100200048
9320,5,ISIP_5,140,1,48,38,2100666300
9320,5,ISIP_5,141,1,48,35,2101133384
9320,5,ISIP_5,142,1,48,39,2101606596
9320,5,ISIP_5,143,1,48,40,2102116388
9320,5,ISIP_5,144,1,48,40,2102552948
9320,5,ISIP_5,145,1,48,42,2103042464
9320,5,ISIP_5,146,1,48,39,2103479972
9320,5,ISIP_5,147,1,48,39,2103915640
9320,5,ISIP_5,148,1,48,43,2104376056
9320,5,ISIP_5,149,1,48,38,2104836032
9320,5,ISIP_5,150,1,48,39,2105292672
9320,5,ISIP_5,151,1,48,38,2105762520
9320,5,ISIP_5,152,1,48,36,2106248144
9320,5,ISIP_5,153,1,48,35,2106695556
9320,5,ISIP_5,154,1,48,40,2107175952
9320,5,ISIP_5,155,1,48,34,2107624680
9320,5,ISIP_5,156,1,48,37,2108047852
9320,5,ISIP_5,157,1,48,36,2108526000
9320,5,ISIP_5,158,1,48,39,2108990012
9320,5,ISIP_5,159,1,48,37,2109442056
9320,5,ISIP_5,160,1,48,31,2109904764
9320,5,ISIP_5,161,1,48,32,2110382620
9320,5,ISIP_5,162,1,48,40,2110833092
9320,5,ISIP_5,163,1,48,35,2111306676
9320,5,ISIP_5,164,1,48,31,2111741280
9320,5,ISIP_5,165,1,48,40,2112212972
9320,5,ISIP_5,166,1,48,36,2112685512
9320,5,ISIP_5,167,1,48,40,2113155212
9320,5,ISIP_5,168,1,48,42,2113618472
9320,5,ISIP_5,169,1,48,41,2114071116
9320,5,ISIP_5,170,1,48,37,2114565276
9320,5,ISIP_5,171,1,48,31,2115019456
9320,5,ISIP_5,172,1,48,38,2115500452
9320,5,ISIP_5,173,1,48,36,2115953016
9320,5,ISIP_5,174,1,48,29,2116454732
9320,5,ISIP_5,175,1,48,34,2116873784
9320,5,ISIP_5,176,1,48,40,2117359792
9320,5,ISIP_5,177,1,48,34,2117824372
9320,5,ISIP_5,178,1,48,41,2118281936
9320,5,ISIP_5,179,1,48,43,2118728520
9320,5,ISIP_5,180,1,48,44,2119195524
9320,5,ISIP_5,181,1,48,42,2119644484
9320,5,ISIP_5,182,1,48,45,2120159732
9320,5,ISIP_5,183,1,48,42,2120637128
9320,5,ISIP_5,184,1,48,43,2121089328
9320,5,ISIP_5,185,1,48,45,2121524012
9320,5,ISIP_5,186,1,48,43,2121998272
9320,5,ISIP_5,187,1,48,42,2122462340
9320,5,ISIP_5,188,1,48,42,2122911768
9320,5,ISIP_5,189,1,48,43,2123373008
9320,5,ISIP_5,190,1,48,41,2123823556
9320,5,ISIP_5,191,1,48,39,2124274016
9320,5,ISIP_5,192,1,48,37,2124721696
9320,5,ISIP_5,193,1,48,29,2125194536
9320,5,ISIP_5,194,1,48,44,2125639620
9320,5,ISIP_5,195,1,48,43,2126110364
9320,5,ISIP_5,196,1,48,42,2126556028
9320,5,ISIP_5,197,1,48,41,2126970820
9320,5,ISIP_5,198,1,48,40,2127444928
9320,5,ISIP_5,199,1,48,32,2127897052
9320,5,ISIP_5,200,1,48,37,2128311676
9320,5,ISIP_5,201,1,48,45,2128773204
9320,5,ISIP_5,202,1,48,46,2129211256
9320,5,ISIP_5,203,1,48,38,2129656200
9320,5,ISIP_5,204,1,48,41,2130127736
9320,5,ISIP_5,205,1,48,34,2130541864
9320,5,ISIP_5,206,1,48,45,2131028832
9320,5,ISIP_5,0,9999,9999,9999,2051295352
9320,5,ISIP_5,1,9999,9999,9999,2051796040
9320,5,ISIP_5,2,9999,9999,9999,2052295752
9320,5,ISIP_5,3,9999,9999,9999,2052795448
9320,5,ISIP_5,4,9999,9999,9999,2053295192
9320,5,ISIP_5,5,9999,9999,9999,2053795932
9320,5,ISIP_5,6,9999,9999,9999,2054295628
9320,5,ISIP_5,7,9999,9999,9999,2054795324
9320,5,ISIP_5,8,9999,9999,9999,2055296064
9320,5,ISIP_5,9,9999,9999,9999,2055795760
9320,5,ISIP_5,10,9999,9999,9999,2056295532
9320,5,ISIP_5,11,9999,9999,9999,2056795224
9320,5,ISIP_5,12,9999,9999,9999,2057295968
9320,5,ISIP_5,13,9999,9999,9999,2057795660
9320,5,ISIP_5,14,9999,9999,9999,2058295356
9320,5,ISIP_5,15,9999,9999,9999,2058795124
9320,5,ISIP_5,16,9999,9999,9999,2059295792
9320,5,ISIP_5,17,9999,9999,9999,2059795564
9320,5,ISIP_5,18,9999,9999,9999,2060295288
9320,5,ISIP_5,19,9999,9999,9999,2060795996
9320,5,ISIP_5,20,9999,9999,9999,2061295668
9320,5,ISIP_5,21,9999,9999,9999,2061795436
9320,5,ISIP_5,22,9999,9999,9999,2062295132
9320,5,ISIP_5,23,9999,9999,9999,2062795872
9320,5,ISIP_5,24,9999,9999,9999,2063295568
9320,5,ISIP_5,25,9999,9999,9999,2063795260
9320,5,ISIP_5,26,9999,9999,9999,2064296004
9320,5,ISIP_5,27,9999,9999,9999,2064795700
9320,5,ISIP_5,28,9999,9999,9999,2065295468
9320,5,ISIP_5,29,9999,9999,9999,2065795164
9320,5,ISIP_5,30,9999,9999,9999,2066295904
9320,5,ISIP_5,31,9999,9999,9999,2066795600
9320,5,ISIP_5,32,9999,9999,9999,2067295296
9320,5,ISIP_5,33,9999,9999,9999,2067796040
9320,5,ISIP_5,34,9999,9999,9999,2068295732
9320,5,ISIP_5,35,9999,9999,9999,2068795480
9320,5,ISIP_5,36,9999,9999,9999,2069295172
9320,5,ISIP_5,37,9999,9999,9999,2069795916
9320,5,ISIP_5,38,9999,9999,9999,2070295608
9320,5,ISIP_5,39,9999,9999,9999,2070795380
9320,5,ISIP_5,40,9999,9999,9999,2071296120
9320,5,ISIP_5,41,9999,9999,9999,2071795812
9320,5,ISIP_5,42,9999,9999,9999,2072295476
9320,5,ISIP_5,43,9999,9999,9999,2072795240
9320,5,ISIP_5,44,9999,9999,9999,2073295980
9320,5,ISIP_5,45,9999,9999,9999,2073795668
9320,5,ISIP_5,46,9999,9999,9999,2074295360
9320,5,ISIP_5,47,9999,9999,9999,2074795124
9320,5,ISIP_5,48,9999,9999,9999,2075295864
9320,5,ISIP_5,49,9999,9999,9999,2075795552
9320,5,ISIP_5,50,9999,9999,9999,2076295244
9320,5,ISIP_5,51,9999,9999,9999,2076795964
9320,5,ISIP_5,52,9999,9999,9999,2077295732
9320,5,ISIP_5,53,9999,9999,9999,2077795420
9320,5,ISIP_5,54,9999,9999,9999,2078295112
9320,5,ISIP_5,55,9999,9999,9999,2078795848
9320,5,ISIP_5,56,9999,9999,9999,2079295540
9320,5,ISIP_5,57,9999,9999,9999,2079795304
9320,5,ISIP_5,58,9999,9999,9999,2080296044
9320,5,ISIP_5,59,9999,9999,9999,2080795708
9320,5,ISIP_5,60,9999,9999,9999,2081295476
9320,5,ISIP_5,61,9999,9999,9999,2081795164
9320,5,ISIP_5,62,9999,9999,9999,2082295900
9320,5,ISIP_5,63,9999,9999,9999,2082795568
9320,5,ISIP_5,64,9999,9999,9999,2083295332
9320,5,ISIP_5,65,9999,9999,9999,2083796064
9320,5,ISIP_5,66,9999,9999,9999,2084295756
9320,5,ISIP_5,67,9999,9999,9999,2084795444
9320,5,ISIP_5,68,9999,9999,9999,2085295212
9320,5,ISIP_5,69,9999,9999,9999,2085795932
9320,5,ISIP_5,70,9999,9999,9999,2086295624
9320,5,ISIP_5,71,9999,9999,9999,2086795312
9320,5,ISIP_5,72,9999,9999,9999,2087296052
9320,5,ISIP_5,73,9999,9999,9999,2087795816
9320,5,ISIP_5,74,9999,9999,9999,2088295508
9320,5,ISIP_5,75,9999,9999,9999,2088795196
9320,5,ISIP_5,76,9999,9999,9999,2089295936
9320,5,ISIP_5,77,9999,9999,9999,2089795700
9320,5,ISIP_5,78,9999,9999,9999,2090295388
9320,5,ISIP_5,79,9999,9999,9999,2090795080
9320,5,ISIP_5,80,9999,9999,9999,2091295820
9320,5,ISIP_5,81,9999,9999,9999,2091795508
9320,5,ISIP_5,82,9999,9999,9999,2092295268
9320,5,ISIP_5,83,9999,9999,9999,2092796004
9320,5,ISIP_5,84,9999,9999,9999,2093295696
9320,5,ISIP_5,85,9999,9999,9999,2093795420
9320,5,ISIP_5,86,9999,9999,9999,2094295112
9320,5,ISIP_5,87,9999,9999,9999,2094795848
9320,5,ISIP_5,88,9999,9999,9999,2095295540
9320,5,ISIP_5,89,9999,9999,9999,2095795304
9320,5,ISIP_5,90,9999,9999,9999,2096296040
9320,5,ISIP_5,91,9999,9999,9999,2096795732
9320,5,ISIP_5,92,9999,9999,9999,2097295424
9320,5,ISIP_5,93,9999,9999,9999,2097795188
9320,5,ISIP_5,94,9999,9999,9999,2098295924
9320,5,ISIP_5,95,9999,9999,9999,2098795616
9320,5,ISIP_5,96,9999,9999,9999,2099295304
9320,5,ISIP_5,97,9999,9999,9999,2099796040
9320,5,ISIP_5,98,9999,9999,9999,2100295788
9320,5,ISIP_5,99,9999,9999,9999,2100795480
9320,5,ISIP_5,100,9999,9999,9999,2101295172
9320,5,ISIP_5,101,9999,9999,9999,2101795908
9320,5,ISIP_5,102,9999,9999,9999,2102295600
9320,5,ISIP_5,103,9999,9999,9999,2102795368
9320,5,ISIP_5,104,9999,9999,9999,2103296104
9320,5,ISIP_5,105,9999,9999,9999,2103795796
9320,5,ISIP_5,106,9999,9999,9999,2104295536
9320,5,ISIP_5,107,9999,9999,9999,2104795224
9320,5,ISIP_5,108,9999,9999,9999,2105295956
9320,5,ISIP_5,109,9999,9999,9999,2105795648
9320,5,ISIP_5,110,9999,9999,9999,2106295412
9320,5,ISIP_5,111,9999,9999,9999,2106795088
9320,5,ISIP_5,112,9999,9999,9999,2107295828
9320,5,ISIP_5,113,9999,9999,9999,2107795516
9320,5,ISIP_5,114,9999,9999,9999,2108295280
9320,5,ISIP_5,115,9999,9999,9999,2108796016
9320,5,ISIP_5,116,9999,9999,9999,2109295708
9320,5,ISIP_5,117,9999,9999,9999,2109795400
9320,5,ISIP_5,118,9999,9999,9999,2110295092
9320,5,ISIP_5,119,9999,9999,9999,2110795828
9320,5,ISIP_5,120,9999,9999,9999,2111295592
9320,5,ISIP_5,121,9999,9999,9999,2111795276
9320,5,ISIP_5,122,9999,9999,9999,2112296016
9320,5,ISIP_5,123,9999,9999,9999,2112795764
9320,5,ISIP_5,124,9999,9999,9999,2113295456
9320,5,ISIP_5,125,9999,9999,9999,2113795148
9320,5,ISIP_5,126,9999,9999,9999,2114295884
9320,5,ISIP_5,127,9999,9999,9999,2114795624
9320,5,ISIP_5,128,9999,9999,9999,2115295316
9320,5,ISIP_5,129,9999,9999,9999,2115796052
9320,5,ISIP_5,130,9999,9999,9999,2116295744
9320,5,ISIP_5,131,9999,9999,9999,2116795508
9320,5,ISIP_5,132,9999,9999,9999,2117295196
9320,5,ISIP_5,133,9999,9999,9999,2117795936
9320,5,ISIP_5,134,9999,9999,9999,2118295620
9320,5,ISIP_5,135,9999,9999,9999,2118795384
9320,5,ISIP_5,136,9999,9999,9999,2119296108
9320,5,ISIP_5,137,9999,9999,9999,2119795796
9320,5,ISIP_5,138,9999,9999,9999,2120295488
9320,5,ISIP_5,139,9999,9999,9999,2120795252
9320,5,ISIP_5,140,9999,9999,9999,2121295992
9320,5,ISIP_5,141,9999,9999,9999,2121795680
9320,5,ISIP_5,142,9999,9999,9999,2122295372
9320,5,ISIP_5,143,9999,9999,9999,2122795064
9320,5,ISIP_5,144,9999,9999,9999,2123295800
9320,5,ISIP_5,145,9999,9999,9999,2123795568
9320,5,ISIP_5,146,9999,9999,9999,2124295252
9320,5,ISIP_5,147,9999,9999,9999,2124795988
9320,5,ISIP_5,148,9999,9999,9999,2125295736
9320,5,ISIP_5,149,9999,9999,9999,2125795404
9320,5,ISIP_5,150,9999,9999,9999,2126295092
9320,5,ISIP_5,151,9999,9999,9999,2126795832
9320,5,ISIP_5,152,9999,9999,9999,2127295596
9320,5,ISIP_5,153,9999,9999,9999,2127795288
9320,5,ISIP_5,154,9999,9999,9999,2128296024
9320,5,ISIP_5,155,9999,9999,9999,2128795708
9320,5,ISIP_5,156,9999,9999,9999,2129295472
9320,5,ISIP_5,157,9999,9999,9999,2129795148
9320,5,ISIP_5,158,9999,9999,9999,2130295884
9320,5,ISIP_5,159,9999,9999,9999,2130795576
9321,3,ISIP_8,0,5,42,127,2155757912
9321,3,ISIP_8,1,5,42,127,2156557672
9321,3,ISIP_8,2,1,48,39,2156600360
9321,3,ISIP_8,3,5,42,127,2157357328
9321,3,ISIP_8,4,1,48,53,2157382140
9321,3,ISIP_8,5,1,48,44,2158126804
9321,3,ISIP_8,6,5,42,127,2158158400
9321,3,ISIP_8,7,1,48,51,2158941944
9321,3,ISIP_8,8,5,42,127,2158958132
9321,3,ISIP_8,9,1,48,53,2159727992
9321,3,ISIP_8,10,5,42,127,2159757644
9321,3,ISIP_8,11,1,48,64,2160510224
9321,3,ISIP_8,12,5,42,127,2160557452
9321,3,ISIP_8,13,1,48,50,2161331572
9321,3,ISIP_8,14,5,42,127,2161358308
9321,3,ISIP_8,15,1,48,44,2162125248
9321,3,ISIP_8,16,5,42,127,2162158216
9321,3,ISIP_8,17,1,48,62,2162910248
9321,3,ISIP_8,18,5,42,127,2162957652
9321,3,ISIP_8,19,1,48,57,2163725184
9321,3,ISIP_8,20,5,42,127,2163757460
9321,3,ISIP_8,21,1,48,57,2164511160
9321,3,ISIP_8,22,5,42,127,2164558092
9321,3,ISIP_8,23,1,48,53,2165312616
9321,3,ISIP_8,24,5,42,127,2165358124
9321,3,ISIP_8,25,1,48,54,2166094468
9321,3,ISIP_8,26,5,42,127,2166157632
9321,3,ISIP_8,27,1,48,44,2166893228
9321,3,ISIP_8,28,5,42,127,2166957440
9321,3,ISIP_8,29,1,48,48,2167722804
9321,3,ISIP_8,30,5,42,127,2167758220
9321,3,ISIP_8,31,1,48,48,2168512968
9321,3,ISIP_8,32,5,42,127,2168558128
9321,3,ISIP_8,33,1,48,54,2169332024
9321,3,ISIP_8,34,5,42,127,2169357564
9321,3,ISIP_8,35,1,48,51,2170143420
9321,3,ISIP_8,36,5,42,127,2170157296
9321,3,ISIP_8,37,5,42,127,2170958160
9321,3,ISIP_8,38,1,48,48,2170989472
9321,3,ISIP_8,39,5,42,127,2171758116
9321,3,ISIP_8,40,1,48,48,2171771704
9321,3,ISIP_8,41,1,48,51,2172516220
9321,3,ISIP_8,42,5,42,127,2172557696
9321,3,ISIP_8,43,1,48,46,2173346772
9321,3,ISIP_8,44,5,42,127,2173357352
9321,3,ISIP_8,45,1,48,53,2174125040
9321,3,ISIP_8,46,5,42,127,2174158060
9321,3,ISIP_8,47,1,48,52,2174882736
9321,3,ISIP_8,48,5,42,127,2174958044
9321,3,ISIP_8,49,1,48,49,2175719344
9321,3,ISIP_8,50,5,42,127,2175757776
9321,3,ISIP_8,51,1,48,44,2176514988
9321,3,ISIP_8,52,5,42,127,2176557360
9321,3,ISIP_8,53,1,48,45,2177330360
9321,3,ISIP_8,54,5,42,127,2177358292
9321,3,ISIP_8,55,1,48,52,2178081768
9321,3,ISIP_8,56,5,42,127,2178158024
9321,3,ISIP_8,57,1,48,51,2178946728
9321,3,ISIP_8,58,5,42,127,2178957756
9321,3,ISIP_8,59,1,48,50,2179750276
9321,3,ISIP_8,60,1,48,55,2180579936
9321,3,ISIP_8,61,1,48,53,2181372732
9321,3,ISIP_8,62,1,48,56,2182232524
9321,3,ISIP_8,63,1,48,37,2183065992
9321,3,ISIP_8,64,1,48,51,2183922364
9321,3,ISIP_8,65,1,48,51,2184708628
9321,3,ISIP_8,66,1,48,34,2185541492
9321,3,ISIP_8,67,1,48,59,2186358052
9321,3,ISIP_8,68,1,48,59,2187142224
9321,3,ISIP_8,69,1,48,48,2187911364
9321,3,ISIP_8,70,1,48,56,2188722008
9321,3,ISIP_8,71,1,48,45,2189517852
9321,3,ISIP_8,72,1,48,52,2190308456
9321,3,ISIP_8,73,1,48,51,2191080656
9321,3,ISIP_8,74,1,48,61,2191893272
9321,3,ISIP_8,75,1,48,49,2192682084
9321,3,ISIP_8,76,1,48,55,2193487124
9321,3,ISIP_8,77,1,48,41,2194276080
9321,3,ISIP_8,78,1,48,49,2195133924
9321,3,ISIP_8,79,1,48,53,2195957844
9321,3,ISIP_8,80,1,48,47,2196715684
9321,3,ISIP_8,81,1,48,43,2197509728
9321,3,ISIP_8,82,1,48,46,2198282528
9321,3,ISIP_8,83,1,48,53,2199076796
9321,3,ISIP_8,84,1,48,58,2199847356
9321,3,ISIP_8,85,1,48,49,2200629204
9321,3,ISIP_8,86,1,48,47,2201422576
9321,3,ISIP_8,87,1,48,59,2202185884
9321,3,ISIP_8,88,1,48,57,2202974840
9321,3,ISIP_8,89,1,48,51,2203751292
9321,3,ISIP_8,90,1,48,51,2204494700
9321,3,ISIP_8,91,1,48,49,2205361540
9321,3,ISIP_8,92,1,48,56,2206119812
9321,3,ISIP_8,93,1,48,54,2206832780
9321,3,ISIP_8,94,1,48,48,2207624280
9321,3,ISIP_8,95,1,48,50,2208369108
9321,3,ISIP_8,96,1,48,59,2209152828
9321,3,ISIP_8,97,1,48,42,2209957348
9321,3,ISIP_8,98,1,48,54,2210706064
9321,3,ISIP_8,99,1,48,49,2211507960
9321,3,ISIP_8,100,1,48,57,2212284728
9321,3,ISIP_8,101,1,48,51,2213078100
9321,3,ISIP_8,102,1,48,47,2213850452
9321,3,ISIP_8,103,1,48,52,2214608736
9321,3,ISIP_8,104,1,48,48,2215396580
9321,3,ISIP_8,105,1,48,16,2215786988
9321,3,ISIP_8,106,1,48,49,2216653360
9321,3,ISIP_8,107,1,48,53,2217468524
9321,3,ISIP_8,108,1,48,56,2218253368
9321,3,ISIP_8,109,1,48,54,2219043744
9321,3,ISIP_8,110,1,48,49,2219851552
9321,3,ISIP_8,111,1,48,48,2220631612
9321,3,ISIP_8,112,1,48,52,2221452512
9321,3,ISIP_8,113,1,48,52,2222249544
9321,3,ISIP_8,114,1,48,61,2223026160
9321,3,ISIP_8,115,1,48,51,2223838008
9321,3,ISIP_8,116,1,48,57,2224621904
9321,3,ISIP_8,117,1,48,51,2225446540
9321,3,ISIP_8,118,1,48,48,2226234300
9321,3,ISIP_8,119,1,48,50,2227028052
9321,3,ISIP_8,120,1,48,46,2227817904
9321,3,ISIP_8,121,1,48,48,2228593024
9321,3,ISIP_8,122,1,48,46,2229395072
9321,3,ISIP_8,123,1,48,49,2230195476
9321,3,ISIP_8,124,1,48,42,2230966636
9321,3,ISIP_8,125,1,48,46,2231772716
9321,3,ISIP_8,126,1,48,43,2232579280
9321,3,ISIP_8,127,1,48,44,2233365024
9321,3,ISIP_8,128,1,48,43,2234141620
9321,3,ISIP_8,129,1,48,53,2234927888
9321,3,ISIP_8,130,1,48,53,2235681764
9321,3,ISIP_8,131,1,48,54,2236449860
9321,3,ISIP_8,132,1,48,62,2237224452
9321,3,ISIP_8,133,1,48,56,2237987756
9321,3,ISIP_8,134,1,48,51,2238775068
9321,3,ISIP_8,135,1,48,44,2239540544
9321,3,ISIP_8,136,1,48,34,2240356504
9321,3,ISIP_8,137,1,48,49,2241134088
9321,3,ISIP_8,138,1,48,53,2241909136
9321,3,ISIP_8,139,1,48,48,2242668248
9321,3,ISIP_8,140,1,48,49,2243433048
9321,3,ISIP_8,141,1,48,39,2244210716
9321,3,ISIP_8,142,1,48,46,2244968484
9321,3,ISIP_8,143,1,48,37,2245760132
9321,3,ISIP_8,144,1,48,49,2246584316
9321,3,ISIP_8,145,1,48,47,2247319048
9321,3,ISIP_8,146,1,48,56,2248132316
9321,3,ISIP_8,147,1,48,59,2248885672
9321,3,ISIP_8,148,1,48,54,2249649496
9321,3,ISIP_8,149,1,48,56,2250406968
9321,3,ISIP_8,150,1,48,54,2251177076
9321,3,ISIP_8,151,1,48,44,2251981288
9321,3,ISIP_8,152,1,48,47,2252748700
9321,3,ISIP_8,153,1,48,59,2253484632
9321,3,ISIP_8,154,1,48,60,2254293184
9321,3,ISIP_8,155,1,48,47,2255004880
9321,3,ISIP_8,156,1,48,48,2255797128
9321,3,ISIP_8,157,1,48,43,2256561180
9321,3,ISIP_8,158,1,48,45,2257319604
9321,3,ISIP_8,159,1,48,52,2258048872
9321,3,ISIP_8,160,1,48,44,2258807840
9321,3,ISIP_8,161,1,48,65,2259562164
9321,3,ISIP_8,162,1,48,47,2260307888
9321,3,ISIP_8,163,1,48,62,2261018764
9321,3,ISIP_8,164,1,48,52,2261808692
9321,3,ISIP_8,165,1,48,45,2262573860
9321,3,ISIP_8,166,1,48,52,2263362300
9321,3,ISIP_8,167,1,48,53,2264099424
9321,3,ISIP_8,168,1,48,54,2264855248
9321,3,ISIP_8,169,1,48,46,2265578612
9321,3,ISIP_8,170,1,48,52,2266347444
9321,3,ISIP_8,171,1,48,48,2267114408
9321,3,ISIP_8,172,1,48,59,2267866020
9321,3,ISIP_8,173,1,48,49,2268607332
9321,3,ISIP_8,174,1,48,55,2269339356
9321,3,ISIP_8,175,1,48,46,2270150156
9321,3,ISIP_8,176,1,48,53,2270901492
9321,3,ISIP_8,177,1,48,54,2271666516
9321,3,ISIP_8,178,1,48,56,2272440516
9321,3,ISIP_8,179,1,48,61,2273187060
9321,3,ISIP_8,180,1,48,49,2273960984
9321,3,ISIP_8,181,1,48,48,2274664972
9321,3,ISIP_8,182,1,48,54,2275497312
9321,3,ISIP_8,0,9999,9999,9999,2155755624
9321,3,ISIP_8,1,9999,9999,9999,2156555384
9321,3,ISIP_8,2,9999,9999,9999,2157355116
9321,3,ISIP_8,3,9999,9999,9999,2158155888
9321,3,ISIP_8,4,9999,9999,9999,2158955624
9321,3,ISIP_8,5,9999,9999,9999,2159755356
9321,3,ISIP_8,6,9999,9999,9999,2160555092
9321,3,ISIP_8,7,9999,9999,9999,2161355872
9321,3,ISIP_8,8,9999,9999,9999,2162155628
9321,3,ISIP_8,9,9999,9999,9999,2162955364
9321,3,ISIP_8,10,9999,9999,9999,2163755096
9321,3,ISIP_8,11,9999,9999,9999,2164555880
9321,3,ISIP_8,12,9999,9999,9999,2165355612
9321,3,ISIP_8,13,9999,9999,9999,2166155344
9321,3,ISIP_8,14,9999,9999,9999,2166955080
9321,3,ISIP_8,15,9999,9999,9999,2167755860
9321,3,ISIP_8,16,9999,9999,9999,2168555616
9321,3,ISIP_8,17,9999,9999,9999,2169355348
9321,3,ISIP_8,18,9999,9999,9999,2170155080
9321,3,ISIP_8,19,9999,9999,9999,2170955872
9321,3,ISIP_8,20,9999,9999,9999,2171755604
9321,3,ISIP_8,21,9999,9999,9999,2172555332
9321,3,ISIP_8,22,9999,9999,9999,2173355064
9321,3,ISIP_8,23,9999,9999,9999,2174155848
9321,3,ISIP_8,24,9999,9999,9999,2174955608
9321,3,ISIP_8,25,9999,9999,9999,2175755340
9321,3,ISIP_8,26,9999,9999,9999,2176555072
9321,3,ISIP_8,27,9999,9999,9999,2177355856
9321,3,ISIP_8,28,9999,9999,9999,2178155588
9321,3,ISIP_8,29,9999,9999,9999,2178955320
9321,3,ISIP_8,30,9999,9999,9999,2179755128
9321,3,ISIP_8,31,9999,9999,9999,2180555836
9321,3,ISIP_8,32,9999,9999,9999,2181355588
9321,3,ISIP_8,33,9999,9999,9999,2182155316
9321,3,ISIP_8,34,9999,9999,9999,2182955120
9321,3,ISIP_8,35,9999,9999,9999,2183755820
9321,3,ISIP_8,36,9999,9999,9999,2184555624
9321,3,ISIP_8,37,9999,9999,9999,2185355356
9321,3,ISIP_8,38,9999,9999,9999,2186155084
9321,3,ISIP_8,39,9999,9999,9999,2186955860
9321,3,ISIP_8,40,9999,9999,9999,2187755612
9321,3,ISIP_8,41,9999,9999,9999,2188555344
9321,3,ISIP_8,42,9999,9999,9999,2189355072
9321,3,ISIP_8,43,9999,9999,9999,2190155848
9321,3,ISIP_8,44,9999,9999,9999,2190955576
9321,3,ISIP_8,45,9999,9999,9999,2191755380
9321,3,ISIP_8,46,9999,9999,9999,2192555108
9321,3,ISIP_8,47,9999,9999,9999,2193355884
9321,3,ISIP_8,48,9999,9999,9999,2194155636
9321,3,ISIP_8,49,9999,9999,9999,2194955368
9321,3,ISIP_8,50,9999,9999,9999,2195755096
9321,3,ISIP_8,51,9999,9999,9999,2196555872
9321,3,ISIP_8,52,9999,9999,9999,2197355600
9321,3,ISIP_8,53,9999,9999,9999,2198155328
9321,3,ISIP_8,54,9999,9999,9999,2198955060
9321,3,ISIP_8,55,9999,9999,9999,2199755836
9321,3,ISIP_8,56,9999,9999,9999,2200555592
9321,3,ISIP_8,57,9999,9999,9999,2201355320
9321,3,ISIP_8,58,9999,9999,9999,2202155124
9321,3,ISIP_8,59,9999,9999,9999,2202955824
9321,3,ISIP_8,60,9999,9999,9999,2203755624
9321,3,ISIP_8,61,9999,9999,9999,2204555352
9321,3,ISIP_8,62,9999,9999,9999,2205355088
9321,3,ISIP_8,63,9999,9999,9999,2206155856
9321,3,ISIP_8,64,9999,9999,9999,2206955596
9321,3,ISIP_8,65,9999,9999,9999,2207755324
9321,3,ISIP_8,66,9999,9999,9999,2208555128
9321,3,ISIP_8,67,9999,9999,9999,2209355832
9321,3,ISIP_8,68,9999,9999,9999,2210155632
9321,3,ISIP_8,69,9999,9999,9999,2210955364
9321,3,ISIP_8,70,9999,9999,9999,2211755092
9321,3,ISIP_8,71,9999,9999,9999,2212555868
9321,3,ISIP_8,72,9999,9999,9999,2213355620
9321,3,ISIP_8,73,9999,9999,9999,2214155348
9321,3,ISIP_8,74,9999,9999,9999,2214955080
9321,3,ISIP_8,75,9999,9999,9999,2215755852
9321,3,ISIP_8,76,9999,9999,9999,2216555584
9321,3,ISIP_8,77,9999,9999,9999,2217355312
9321,3,ISIP_8,78,9999,9999,9999,2218155116
9321,3,ISIP_8,79,9999,9999,9999,2218955892
9321,3,ISIP_8,80,9999,9999,9999,2219755572
9321,3,ISIP_8,81,9999,9999,9999,2220555376
9321,3,ISIP_8,82,9999,9999,9999,2221355104
9321,3,ISIP_8,83,9999,9999,9999,2222155880
9321,3,ISIP_8,84,9999,9999,9999,2222955612
9321,3,ISIP_8,85,9999,9999,9999,2223755340
9321,3,ISIP_8,86,9999,9999,9999,2224555068
9321,3,ISIP_8,87,9999,9999,9999,2225355844
9321,3,ISIP_8,88,9999,9999,9999,2226155596
9321,3,ISIP_8,89,9999,9999,9999,2226955328
9321,3,ISIP_8,90,9999,9999,9999,2227755056
9321,3,ISIP_8,91,9999,9999,9999,2228555832
9321,3,ISIP_8,92,9999,9999,9999,2229355636
9321,3,ISIP_8,93,9999,9999,9999,2230155368
9321,3,ISIP_8,94,9999,9999,9999,2230955096
9321,3,ISIP_8,95,9999,9999,9999,2231755872
9321,3,ISIP_8,96,9999,9999,9999,2232555624
9321,3,ISIP_8,97,9999,9999,9999,2233355356
9321,3,ISIP_8,98,9999,9999,9999,2234155076
9321,3,ISIP_8,99,9999,9999,9999,2234955856
9321,3,ISIP_8,100,9999,9999,9999,2235755584
9321,3,ISIP_8,101,9999,9999,9999,2236555372
9321,3,ISIP_8,102,9999,9999,9999,2237355100
9321,3,ISIP_8,103,9999,9999,9999,2238155876
9321,3,ISIP_8,104,9999,9999,9999,2238955632
9321,3,ISIP_8,105,9999,9999,9999,2239755360
9321,3,ISIP_8,106,9999,9999,9999,2240555088
9321,3,ISIP_8,107,9999,9999,9999,2241355864
9321,3,ISIP_8,108,9999,9999,9999,2242155596
9321,3,ISIP_8,109,9999,9999,9999,2242955324
9321,3,ISIP_8,110,9999,9999,9999,2243755128
9321,3,ISIP_8,111,9999,9999,9999,2244555828
9321,3,ISIP_8,112,9999,9999,9999,2245355584
9321,3,ISIP_8,113,9999,9999,9999,2246155312
9321,3,ISIP_8,114,9999,9999,9999,2246955116
9321,3,ISIP_8,115,9999,9999,9999,2247755892
9321,3,ISIP_8,116,9999,9999,9999,2248555620
9321,3,ISIP_8,117,9999,9999,9999,2249355348
9321,3,ISIP_8,118,9999,9999,9999,2250155076
9321,3,ISIP_8,119,9999,9999,9999,2250955852
9321,3,ISIP_8,120,9999,9999,9999,2251755604
9321,3,ISIP_8,121,9999,9999,9999,2252555336
9321,3,ISIP_8,122,9999,9999,9999,2253355064
9321,3,ISIP_8,123,9999,9999,9999,2254155840
9321,3,ISIP_8,124,9999,9999,9999,2254955568
9321,3,ISIP_8,125,9999,9999,9999,2255755372
9321,3,ISIP_8,126,9999,9999,9999,2256555104
9321,3,ISIP_8,127,9999,9999,9999,2257355872
9321,3,ISIP_8,128,9999,9999,9999,2258155608
9321,3,ISIP_8,129,9999,9999,9999,2258955340
9321,3,ISIP_8,130,9999,9999,9999,2259755068
9321,3,ISIP_8,131,9999,9999,9999,2260555844
9321,3,ISIP_8,132,9999,9999,9999,2261355576
9321,3,ISIP_8,133,9999,9999,9999,2262155376
9321,3,ISIP_8,134,9999,9999,9999,2262955108
9321,3,ISIP_8,135,9999,9999,9999,2263755884
9321,3,ISIP_8,136,9999,9999,9999,2264555564
9321,3,ISIP_8,137,9999,9999,9999,2265355372
9321,3,ISIP_8,138,9999,9999,9999,2266155100
9321,3,ISIP_8,139,9999,9999,9999,2266955876
9321,3,ISIP_8,140,9999,9999,9999,2267755604
9321,3,ISIP_8,141,9999,9999,9999,2268555332
9321,3,ISIP_8,142,9999,9999,9999,2269355132
9321,3,ISIP_8,143,9999,9999,9999,2270155832
9321,3,ISIP_8,144,9999,9999,9999,2270955584
9321,3,ISIP_8,145,9999,9999,9999,2271755312
9321,3,ISIP_8,146,9999,9999,9999,2272555100
9321,3,ISIP_8,147,9999,9999,9999,2273355876
9321,3,ISIP_8,148,9999,9999,9999,2274155604
9321,3,ISIP_8,149,9999,9999,9999,2274955336
9322,11,Pattern_Practice,0,5,42,127,2389127668
9322,11,Pattern_Practice,1,5,42,127,2389628432
9322,11,Pattern_Practice,2,1,48,18,2389812660
9322,11,Pattern_Practice,3,5,42,127,2390127904
9322,11,Pattern_Practice,4,1,48,21,2390195500
9322,11,Pattern_Practice,5,1,48,49,2390610800
9322,11,Pattern_Practice,6,5,42,127,2390627664
9322,11,Pattern_Practice,7,1,38,79,2391101596
9322,11,Pattern_Practice,8,5,42,127,2391128556
9322,11,Pattern_Practice,9,1,48,19,2391550056
9322,11,Pattern_Practice,10,5,42,127,2391628100
9322,11,Pattern_Practice,11,1,38,32,2392040320
9322,11,Pattern_Practice,12,5,42,127,2392127796
9322,11,Pattern_Practice,13,1,38,45,2392525628
9322,11,Pattern_Practice,14,1,48,22,2392546816
9322,11,Pattern_Practice,15,5,42,127,2392627544
9322,11,Pattern_Practice,16,1,38,27,2393002636
9322,11,Pattern_Practice,17,1,48,25,2393005240
9322,11,Pattern_Practice,18,5,42,127,2393128368
9322,11,Pattern_Practice,19,1,48,42,2393476704
9322,11,Pattern_Practice,20,1,38,57,2393483188
9322,11,Pattern_Practice,21,5,42,127,2393627944
9322,11,Pattern_Practice,22,1,48,40,2393955180
9322,11,Pattern_Practice,23,1,38,55,2393963988
9322,11,Pattern_Practice,24,5,42,127,2394127588
9322,11,Pattern_Practice,25,1,48,27,2394398060
9322,11,Pattern_Practice,26,1,38,53,2394476424
9322,11,Pattern_Practice,27,5,42,127,2394627384
9322,11,Pattern_Practice,28,1,38,28,2394948192
9322,11,Pattern_Practice,29,5,42,127,2395128128
9322,11,Pattern_Practice,30,1,38,39,2395431732
9322,11,Pattern_Practice,31,5,42,127,2395627820
9322,11,Pattern_Practice,32,1,38,30,2395900988
9322,11,Pattern_Practice,33,5,42,127,2396127888
9322,11,Pattern_Practice,34,1,38,36,2396378220
9322,11,Pattern_Practice,35,1,48,14,2396391548
9322,11,Pattern_Practice,36,5,42,127,2396628496
9322,11,Pattern_Practice,37,1,48,67,2396875256
9322,11,Pattern_Practice,38,5,42,127,2397127968
9322,11,Pattern_Practice,39,1,48,30,2397328876
9322,11,Pattern_Practice,40,5,42,127,2397627736
9322,11,Pattern_Practice,41,1,38,38,2397792068
9322,11,Pattern_Practice,42,5,42,127,2398127580
9322,11,Pattern_Practice,43,1,38,62,2398246884
9322,11,Pattern_Practice,44,1,48,58,2398268032
9322,11,Pattern_Practice,45,5,42,127,2398628424
9322,11,Pattern_Practice,46,1,38,46,2398726192
9322,11,Pattern_Practice,47,5,42,127,2399127968
9322,11,Pattern_Practice,48,1,48,49,2399139540
9322,11,Pattern_Practice,49,1,38,34,2399614680
9322,11,Pattern_Practice,50,5,42,127,2399627584
9322,11,Pattern_Practice,51,1,48,13,2399628548
9322,11,Pattern_Practice,52,1,38,50,2400103884
9322,11,Pattern_Practice,53,1,48,16,2400116504
9322,11,Pattern_Practice,54,5,42,127,2400128508
9322,11,Pattern_Practice,55,1,48,70,2400554760
9322,11,Pattern_Practice,56,5,42,127,2400628028
9322,11,Pattern_Practice,57,1,38,40,2401045712
9322,11,Pattern_Practice,58,5,42,127,2401127648
9322,11,Pattern_Practice,59,1,48,89,2401499976
9322,11,Pattern_Practice,60,5,42,127,2401627404
9322,11,Pattern_Practice,61,1,38,40,2401997952
9322,11,Pattern_Practice,62,1,48,17,2402010796
9322,11,Pattern_Practice,63,5,42,127,2402128392
9322,11,Pattern_Practice,64,1,48,37,2402461396
9322,11,Pattern_Practice,65,1,38,19,2402474464
9322,11,Pattern_Practice,66,1,38,42,2402548820
9322,11,Pattern_Practice,67,5,42,127,2402627824
9322,11,Pattern_Practice,68,1,48,40,2402772740
9322,11,Pattern_Practice,69,1,38,17,2402785628
9322,11,Pattern_Practice,70,1,38,62,2402974440
9322,11,Pattern_Practice,71,5,42,127,2403127596
9322,11,Pattern_Practice,72,1,38,47,2403414300
9322,11,Pattern_Practice,73,5,42,127,2403628484
9322,11,Pattern_Practice,74,1,48,39,2403903296
9322,11,Pattern_Practice,75,1,48,35,2403956084
9322,11,Pattern_Practice,76,5,42,127,2404128312
9322,11,Pattern_Practice,77,1,38,38,2404394368
9322,11,Pattern_Practice,78,5,42,127,2404627780
9322,11,Pattern_Practice,79,1,48,57,2404851500
9322,11,Pattern_Practice,80,5,42,127,2405127552
9322,11,Pattern_Practice,81,1,38,55,2405343420
9322,11,Pattern_Practice,82,5,42,127,2405628440
9322,11,Pattern_Practice,83,1,48,79,2405798508
9322,11,Pattern_Practice,84,5,42,127,2406127836
9322,11,Pattern_Practice,85,1,48,45,2406317948
9322,11,Pattern_Practice,86,1,38,19,2406330796
9322,11,Pattern_Practice,87,1,38,54,2406412452
9322,11,Pattern_Practice,88,5,42,127,2406627684
9322,11,Pattern_Practice,89,1,48,35,2406706500
9322,11,Pattern_Practice,90,1,38,56,2406897384
9322,11,Pattern_Practice,91,5,42,127,2407128452
9322,11,Pattern_Practice,92,1,38,38,2407327712
9322,11,Pattern_Practice,93,5,42,127,2407628372
9322,11,Pattern_Practice,94,1,48,58,2407797120
9322,11,Pattern_Practice,95,5,42,127,2408127992
9322,11,Pattern_Practice,96,1,38,61,2408308256
9322,11,Pattern_Practice,97,5,42,127,2408627688
9322,11,Pattern_Practice,98,1,48,48,2408758512
9322,11,Pattern_Practice,99,5,42,127,2409128500
9322,11,Pattern_Practice,100,1,38,54,2409225596
9322,11,Pattern_Practice,101,5,42,127,2409628348
9322,11,Pattern_Practice,102,1,48,72,2409662512
9322,11,Pattern_Practice,103,5,42,127,2410127672
9322,11,Pattern_Practice,104,1,38,69,2410130340
9322,11,Pattern_Practice,105,1,48,36,2410137276
9322,11,Pattern_Practice,106,1,48,33,2410542756
9322,11,Pattern_Practice,107,1,38,64,2410561664
9322,11,Pattern_Practice,108,5,42,127,2410627368
9322,11,Pattern_Practice,109,1,38,58,2410993788
9322,11,Pattern_Practice,110,1,48,48,2410996984
9322,11,Pattern_Practice,111,5,42,127,2411128316
9322,11,Pattern_Practice,112,1,38,72,2411494176
9322,11,Pattern_Practice,113,5,42,127,2411627860
9322,11,Pattern_Practice,114,1,48,71,2411986892
9322,11,Pattern_Practice,115,5,42,127,2412127556
9322,11,Pattern_Practice,116,1,48,56,2412429064
9322,11,Pattern_Practice,117,5,42,127,2412628224
9322,11,Pattern_Practice,118,1,48,52,2412888224
9322,11,Pattern_Practice,119,5,42,127,2413128140
9322,11,Pattern_Practice,120,1,48,46,2413307064
9322,11,Pattern_Practice,121,1,48,54,2413440032
9322,11,Pattern_Practice,122,1,48,57,2413612144
9322,11,Pattern_Practice,123,5,42,127,2413627732
9322,11,Pattern_Practice,124,1,48,59,2413969772
9322,11,Pattern_Practice,125,5,42,127,2414127412
9322,11,Pattern_Practice,126,1,38,50,2414493776
9322,11,Pattern_Practice,127,5,42,127,2414628156
9322,11,Pattern_Practice,128,1,38,72,2414989204
9322,11,Pattern_Practice,129,5,42,127,2415128072
9322,11,Pattern_Practice,130,1,48,71,2415460776
9322,11,Pattern_Practice,131,5,42,127,2415627692
9322,11,Pattern_Practice,132,1,38,32,2415922252
9322,11,Pattern_Practice,133,5,42,127,2416128360
9322,11,Pattern_Practice,134,1,48,56,2416392620
9322,11,Pattern_Practice,135,5,42,127,2416628052
9322,11,Pattern_Practice,136,1,38,62,2416864344
9322,11,Pattern_Practice,137,1,48,47,2416878532
9322,11,Pattern_Practice,138,1,38,38,2416903200
9322,11,Pattern_Practice,139,5,42,127,2417127680
9322,11,Pattern_Practice,140,1,48,54,2417336940
9322,11,Pattern_Practice,141,1,38,71,2417346872
9322,11,Pattern_Practice,142,5,42,127,2417627380
9322,11,Pattern_Practice,143,1,48,50,2417768296
9322,11,Pattern_Practice,144,1,38,59,2417773140
9322,11,Pattern_Practice,145,5,42,127,2418128220
9322,11,Pattern_Practice,146,1,38,59,2418261664
9322,11,Pattern_Practice,147,5,42,127,2418628064
9322,11,Pattern_Practice,148,1,38,57,2418751860
9322,11,Pattern_Practice,149,1,38,78,2418843012
9322,11,Pattern_Practice,150,1,38,34,2418897000
9322,11,Pattern_Practice,151,1,38,43,2419109572
9322,11,Pattern_Practice,152,5,42,127,2419127708
9322,11,Pattern_Practice,153,1,38,51,2419275124
9322,11,Pattern_Practice,154,1,38,33,2419469296
9322,11,Pattern_Practice,155,5,42,127,2419628264
9322,11,Pattern_Practice,156,1,48,59,2419878540
9322,11,Pattern_Practice,157,5,42,127,2420128184
9322,11,Pattern_Practice,158,1,38,59,2420367540
9322,11,Pattern_Practice,159,5,42,127,2420627952
9322,11,Pattern_Practice,160,1,48,23,2420774704
9322,11,Pattern_Practice,161,5,42,127,2421127572
9322,11,Pattern_Practice,162,1,38,53,2421226756
9322,11,Pattern_Practice,163,5,42,127,2421628388
9322,11,Pattern_Practice,164,1,48,43,2421683564
9322,11,Pattern_Practice,165,5,42,127,2422127932
9322,11,Pattern_Practice,166,1,38,60,2422152516
9322,11,Pattern_Practice,167,1,48,69,2422590108
9322,11,Pattern_Practice,168,5,42,127,2422627840
9322,11,Pattern_Practice,169,1,48,70,2423099532
9322,11,Pattern_Practice,170,1,38,69,2423117756
9322,11,Pattern_Practice,171,5,42,127,2423128340
9322,11,Pattern_Practice,172,1,48,50,2423567464
9322,11,Pattern_Practice,173,1,38,51,2423579256
9322,11,Pattern_Practice,174,5,42,127,2423628284
9322,11,Pattern_Practice,175,1,48,46,2424012404
9322,11,Pattern_Practice,176,1,38,66,2424082284
9322,11,Pattern_Practice,177,5,42,127,2424127780
9322,11,Pattern_Practice,178,1,38,29,2424150408
9322,11,Pattern_Practice,179,1,38,57,2424508988
9322,11,Pattern_Practice,180,5,42,127,2424627516
9322,11,Pattern_Practice,181,1,48,72,2425021628
9322,11,Pattern_Practice,182,5,42,127,2425128256
9322,11,Pattern_Practice,183,1,48,51,2425533588
9322,11,Pattern_Practice,184,5,42,127,2425627888
9322,11,Pattern_Practice,185,1,48,75,2426042408
9322,11,Pattern_Practice,186,5,42,127,2426127732
9322,11,Pattern_Practice,187,1,38,69,2426551672
9322,11,Pattern_Practice,188,5,42,127,2426627352
9322,11,Pattern_Practice,189,1,48,62,2427029448
9322,11,Pattern_Practice,190,1,38,67,2427058232
9322,11,Pattern_Practice,191,5,42,127,2427128060
9322,11,Pattern_Practice,192,1,38,76,2427517812
9322,11,Pattern_Practice,193,5,42,127,2427628032
9322,11,Pattern_Practice,194,1,48,43,2428034712
9322,11,Pattern_Practice,195,5,42,127,2428127672
9322,11,Pattern_Practice,196,1,38,63,2428546304
9322,11,Pattern_Practice,197,5,42,127,2428628312
9322,11,Pattern_Practice,198,1,38,47,2428668468
9322,11,Pattern_Practice,199,1,38,28,2428960108
9322,11,Pattern_Practice,200,1,38,63,2429096368
9322,11,Pattern_Practice,0,9999,9999,9999,2389125232
9322,11,Pattern_Practice,1,9999,9999,9999,2389625920
9322,11,Pattern_Practice,2,9999,9999,9999,2390125616
9322,11,Pattern_Practice,3,9999,9999,9999,2390625380
9322,11,Pattern_Practice,4,9999,9999,9999,2391126120
9322,11,Pattern_Practice,5,9999,9999,9999,2391625816
9322,11,Pattern_Practice,6,9999,9999,9999,2392125508
9322,11,Pattern_Practice,7,9999,9999,9999,2392625256
9322,11,Pattern_Practice,8,9999,9999,9999,2393126008
9322,11,Pattern_Practice,9,9999,9999,9999,2393625656
9322,11,Pattern_Practice,10,9999,9999,9999,2394125376
9322,11,Pattern_Practice,11,9999,9999,9999,2394625100
9322,11,Pattern_Practice,12,9999,9999,9999,2395125840
9322,11,Pattern_Practice,13,9999,9999,9999,2395625536
9322,11,Pattern_Practice,14,9999,9999,9999,2396125280
9322,11,Pattern_Practice,15,9999,9999,9999,2396625988
9322,11,Pattern_Practice,16,9999,9999,9999,2397125680
9322,11,Pattern_Practice,17,9999,9999,9999,2397625448
9322,11,Pattern_Practice,18,9999,9999,9999,2398125144
9322,11,Pattern_Practice,19,9999,9999,9999,2398625912
9322,11,Pattern_Practice,20,9999,9999,9999,2399125608
9322,11,Pattern_Practice,21,9999,9999,9999,2399625296
9322,11,Pattern_Practice,22,9999,9999,9999,2400126072
9322,11,Pattern_Practice,23,9999,9999,9999,2400625740
9322,11,Pattern_Practice,24,9999,9999,9999,2401125436
9322,11,Pattern_Practice,25,9999,9999,9999,2401625192
9322,11,Pattern_Practice,26,9999,9999,9999,2402125884
9322,11,Pattern_Practice,27,9999,9999,9999,2402625612
9322,11,Pattern_Practice,28,9999,9999,9999,2403125312
9322,11,Pattern_Practice,29,9999,9999,9999,2403626052
9322,11,Pattern_Practice,30,9999,9999,9999,2404125800
9322,11,Pattern_Practice,31,9999,9999,9999,2404625496
9322,11,Pattern_Practice,32,9999,9999,9999,2405125192
9322,11,Pattern_Practice,33,9999,9999,9999,2405625932
9322,11,Pattern_Practice,34,9999,9999,9999,2406125624
9322,11,Pattern_Practice,35,9999,9999,9999,2406625400
9322,11,Pattern_Practice,36,9999,9999,9999,2407126092
9322,11,Pattern_Practice,37,9999,9999,9999,2407625788
9322,11,Pattern_Practice,38,9999,9999,9999,2408125556
9322,11,Pattern_Practice,39,9999,9999,9999,2408625252
9322,11,Pattern_Practice,40,9999,9999,9999,2409125992
9322,11,Pattern_Practice,41,9999,9999,9999,2409625688
9322,11,Pattern_Practice,42,9999,9999,9999,2410125384
9322,11,Pattern_Practice,43,9999,9999,9999,2410625080
9322,11,Pattern_Practice,44,9999,9999,9999,2411125880
9322,11,Pattern_Practice,45,9999,9999,9999,2411625576
9322,11,Pattern_Practice,46,9999,9999,9999,2412125268
9322,11,Pattern_Practice,47,9999,9999,9999,2412626012
9322,11,Pattern_Practice,48,9999,9999,9999,2413125704
9322,11,Pattern_Practice,49,9999,9999,9999,2413625448
9322,11,Pattern_Practice,50,9999,9999,9999,2414125128
9322,11,Pattern_Practice,51,9999,9999,9999,2414625868
9322,11,Pattern_Practice,52,9999,9999,9999,2415125564
9322,11,Pattern_Practice,53,9999,9999,9999,2415625332
9322,11,Pattern_Practice,54,9999,9999,9999,2416126072
9322,11,Pattern_Practice,55,9999,9999,9999,2416625768
9322,11,Pattern_Practice,56,9999,9999,9999,2417125468
9322,11,Pattern_Practice,57,9999,9999,9999,2417625168
9322,11,Pattern_Practice,58,9999,9999,9999,2418125936
9322,11,Pattern_Practice,59,9999,9999,9999,2418625628
9322,11,Pattern_Practice,60,9999,9999,9999,2419125348
9322,11,Pattern_Practice,61,9999,9999,9999,2419626052
9322,11,Pattern_Practice,62,9999,9999,9999,2420125748
9322,11,Pattern_Practice,63,9999,9999,9999,2420625516
9322,11,Pattern_Practice,64,9999,9999,9999,2421125208
9322,11,Pattern_Practice,65,9999,9999,9999,2421625952
9322,11,Pattern_Practice,66,9999,9999,9999,2422125644
9322,11,Pattern_Practice,67,9999,9999,9999,2422625332
9322,11,Pattern_Practice,68,9999,9999,9999,2423126128
9322,11,Pattern_Practice,69,9999,9999,9999,2423625848
9322,11,Pattern_Practice,70,9999,9999,9999,2424125496
9322,11,Pattern_Practice,71,9999,9999,9999,2424625228
9322,11,Pattern_Practice,72,9999,9999,9999,2425125968
9322,11,Pattern_Practice,73,9999,9999,9999,2425625680
9322,11,Pattern_Practice,74,9999,9999,9999,2426125372
9322,11,Pattern_Practice,75,9999,9999,9999,2426625140
9322,11,Pattern_Practice,76,9999,9999,9999,2427125860
9322,11,Pattern_Practice,77,9999,9999,9999,2427625524
9322,11,Pattern_Practice,78,9999,9999,9999,2428125308
9322,11,Pattern_Practice,79,9999,9999,9999,2428626028
9323,13,Improv_Metronome,0,5,42,127,2463188496
9323,13,Improv_Metronome,1,5,42,127,2463688436
9323,13,Improv_Metronome,2,5,42,127,2464187780
9323,13,Improv_Metronome,3,1,48,40,2464210348
9323,13,Improv_Metronome,4,1,48,50,2464686344
9323,13,Improv_Metronome,5,5,42,127,2464687916
9323,13,Improv_Metronome,6,1,38,80,2465184288
9323,13,Improv_Metronome,7,5,42,127,2465188432
9323,13,Improv_Metronome,8,1,38,65,2465678820
9323,13,Improv_Metronome,9,5,42,127,2465687832
9323,13,Improv_Metronome,10,1,48,71,2466185172
9323,13,Improv_Metronome,11,5,42,127,2466187748
9323,13,Improv_Metronome,12,1,38,52,2466188788
9323,13,Improv_Metronome,13,1,38,50,2466639724
9323,13,Improv_Metronome,14,5,42,127,2466688456
9323,13,Improv_Metronome,15,1,48,63,2467164704
9323,13,Improv_Metronome,16,5,42,127,2467188296
9323,13,Improv_Metronome,17,1,48,41,2467648316
9323,13,Improv_Metronome,18,5,42,127,2467687768
9323,13,Improv_Metronome,19,1,38,62,2468122280
9323,13,Improv_Metronome,20,5,42,127,2468187392
9323,13,Improv_Metronome,21,1,38,78,2468589212
9323,13,Improv_Metronome,22,5,42,127,2468689536
9323,13,Improv_Metronome,23,1,48,71,2469099832
9323,13,Improv_Metronome,24,1,38,76,2469116788
9323,13,Improv_Metronome,25,5,42,127,2469188028
9323,13,Improv_Metronome,26,1,48,67,2469568408
9323,13,Improv_Metronome,27,1,38,72,2469588288
9323,13,Improv_Metronome,28,5,42,127,2469687560
9323,13,Improv_Metronome,29,1,38,64,2470043072
9323,13,Improv_Metronome,30,1,38,63,2470168436
9323,13,Improv_Metronome,31,5,42,127,2470188444
9323,13,Improv_Metronome,32,1,38,60,2470511480
9323,13,Improv_Metronome,33,5,42,127,2470688348
9323,13,Improv_Metronome,34,1,48,79,2471034512
9323,13,Improv_Metronome,35,5,42,127,2471188264
9323,13,Improv_Metronome,36,1,38,76,2471534060
9323,13,Improv_Metronome,37,5,42,127,2471687664
9323,13,Improv_Metronome,38,1,48,76,2472000696
9323,13,Improv_Metronome,39,5,42,127,2472188404
9323,13,Improv_Metronome,40,1,38,79,2472482888
9323,13,Improv_Metronome,41,1,48,76,2472505832
9323,13,Improv_Metronome,42,1,38,37,2472549492
9323,13,Improv_Metronome,43,5,42,127,2472688256
9323,13,Improv_Metronome,44,1,48,61,2472961568
9323,13,Improv_Metronome,45,1,38,80,2472967532
9323,13,Improv_Metronome,46,5,42,127,2473187752
9323,13,Improv_Metronome,47,1,38,83,2473449920
9323,13,Improv_Metronome,48,5,42,127,2473688468
9323,13,Improv_Metronome,49,1,48,56,2473942928
9323,13,Improv_Metronome,50,1,48,40,2474067248
9323,13,Improv_Metronome,51,5,42,127,2474188292
9323,13,Improv_Metronome,52,1,48,35,2474310364
9323,13,Improv_Metronome,53,5,42,127,2474687836
9323,13,Improv_Metronome,54,1,38,84,2474842744
9323,13,Improv_Metronome,55,1,38,40,2474903980
9323,13,Improv_Metronome,56,5,42,127,2475187512
9323,13,Improv_Metronome,57,1,48,74,2475356628
9323,13,Improv_Metronome,58,1,38,56,2475405752
9323,13,Improv_Metronome,59,5,42,127,2475688292
9323,13,Improv_Metronome,60,1,48,64,2475823976
9323,13,Improv_Metronome,61,1,38,55,2475847968
9323,13,Improv_Metronome,62,5,42,127,2476188088
9323,13,Improv_Metronome,63,1,38,64,2476295504
9323,13,Improv_Metronome,64,5,42,127,2476687708
9323,13,Improv_Metronome,65,1,38,78,2476752460
9323,13,Improv_Metronome,66,5,42,127,2477187404
9323,13,Improv_Metronome,67,1,48,91,2477244224
9323,13,Improv_Metronome,68,5,42,127,2477688292
9323,13,Improv_Metronome,69,1,38,75,2477690964
9323,13,Improv_Metronome,70,1,48,54,2477708596
9323,13,Improv_Metronome,71,1,38,32,2477765420
9323,13,Improv_Metronome,72,1,38,60,2478150928
9323,13,Improv_Metronome,73,5,42,127,2478187984
9323,13,Improv_Metronome,74,1,48,70,2478612700
9323,13,Improv_Metronome,75,5,42,127,2478687680
9323,13,Improv_Metronome,76,1,48,69,2479120476
9323,13,Improv_Metronome,77,1,38,67,2479123744
9323,13,Improv_Metronome,78,5,42,127,2479188180
9323,13,Improv_Metronome,79,1,48,65,2479555020
9323,13,Improv_Metronome,80,1,38,70,2479558364
9323,13,Improv_Metronome,81,5,42,127,2479688228
9323,13,Improv_Metronome,82,1,38,54,2480053092
9323,13,Improv_Metronome,83,1,38,61,2480122888
9323,13,Improv_Metronome,84,5,42,127,2480187768
9323,13,Improv_Metronome,85,1,38,73,2480450368
9323,13,Improv_Metronome,86,1,38,75,2480584456
9323,13,Improv_Metronome,87,5,42,127,2480687428
9323,13,Improv_Metronome,88,1,48,59,2481029180
9323,13,Improv_Metronome,89,5,42,127,2481188164
9323,13,Improv_Metronome,90,1,38,97,2481452652
9323,13,Improv_Metronome,91,5,42,127,2481688008
9323,13,Improv_Metronome,92,1,38,69,2481891012
9323,13,Improv_Metronome,93,1,38,35,2481934824
9323,13,Improv_Metronome,94,5,42,127,2482187684
9323,13,Improv_Metronome,95,1,48,61,2482426812
9323,13,Improv_Metronome,96,5,42,127,2482688424
9323,13,Improv_Metronome,97,1,38,60,2482921196
9323,13,Improv_Metronome,98,1,48,57,2482923648
9323,13,Improv_Metronome,99,5,42,127,2483188148
9323,13,Improv_Metronome,100,1,48,59,2483390752
9323,13,Improv_Metronome,101,1,38,75,2483394024
9323,13,Improv_Metronome,102,5,42,127,2483687792
9323,13,Improv_Metronome,103,1,38,67,2483862948
9323,13,Improv_Metronome,104,1,38,65,2483968860
9323,13,Improv_Metronome,105,5,42,127,2484187540
9323,13,Improv_Metronome,106,1,38,63,2484297172
9323,13,Improv_Metronome,107,1,38,85,2484431188
9323,13,Improv_Metronome,108,5,42,127,2484688308
9323,13,Improv_Metronome,109,1,48,66,2484843364
9323,13,Improv_Metronome,110,1,48,49,2484991620
9323,13,Improv_Metronome,111,5,42,127,2485188056
9323,13,Improv_Metronome,112,1,48,59,2485325388
9323,13,Improv_Metronome,113,1,48,78,2485422904
9323,13,Improv_Metronome,114,5,42,127,2485687660
9323,13,Improv_Metronome,115,1,38,88,2485854684
9323,13,Improv_Metronome,116,1,48,65,2485884728
9323,13,Improv_Metronome,117,1,38,37,2485912532
9323,13,Improv_Metronome,118,5,42,127,2486188492
9323,13,Improv_Metronome,119,1,48,69,2486362996
9323,13,Improv_Metronome,120,1,38,72,2486372928
9323,13,Improv_Metronome,121,1,38,41,2486414572
9323,13,Improv_Metronome,122,5,42,127,2486687984
9323,13,Improv_Metronome,123,1,38,77,2486856060
9323,13,Improv_Metronome,124,5,42,127,2487187904
9323,13,Improv_Metronome,125,1,48,67,2487331968
9323,13,Improv_Metronome,126,5,42,127,2487687524
9323,13,Improv_Metronome,127,1,38,74,2487810124
9323,13,Improv_Metronome,128,1,48,53,2487813912
9323,13,Improv_Metronome,129,5,42,127,2488188368
9323,13,Improv_Metronome,130,1,48,46,2488267256
9323,13,Improv_Metronome,131,1,38,74,2488279800
9323,13,Improv_Metronome,132,5,42,127,2488688012
9323,13,Improv_Metronome,133,1,38,60,2488750744
9323,13,Improv_Metronome,134,5,42,127,2489187856
9323,13,Improv_Metronome,135,1,48,53,2489211396
9323,13,Improv_Metronome,136,1,38,51,2489663200
9323,13,Improv_Metronome,137,1,48,52,2489686768
9323,13,Improv_Metronome,138,5,42,127,2489688572
9323,13,Improv_Metronome,139,1,38,35,2489713968
9323,13,Improv_Metronome,140,1,48,51,2490123484
9323,13,Improv_Metronome,141,1,38,60,2490137976
9323,13,Improv_Metronome,142,5,42,127,2490188052
9323,13,Improv_Metronome,143,1,38,60,2490624404
9323,13,Improv_Metronome,144,5,42,127,2490688012
9323,13,Improv_Metronome,145,1,38,53,2490735176
9323,13,Improv_Metronome,146,1,38,60,2491061672
9323,13,Improv_Metronome,147,1,38,57,2491172224
9323,13,Improv_Metronome,148,5,42,127,2491187516
9323,13,Improv_Metronome,149,1,48,61,2491534864
9323,13,Improv_Metronome,150,1,48,72,2491626268
9323,13,Improv_Metronome,151,5,42,127,2491688308
9323,13,Improv_Metronome,152,1,48,54,2491976492
9323,13,Improv_Metronome,153,1,48,80,2492076024
9323,13,Improv_Metronome,154,5,42,127,2492187968
9323,13,Improv_Metronome,155,1,48,65,2492501372
9323,13,Improv_Metronome,156,1,38,73,2492612200
9323,13,Improv_Metronome,157,5,42,127,2492687804
9323,13,Improv_Metronome,158,1,38,60,2493018472
9323,13,Improv_Metronome,159,5,42,127,2493187632
9323,13,Improv_Metronome,160,1,48,81,2493516668
9323,13,Improv_Metronome,161,1,48,36,2493561748
9323,13,Improv_Metronome,162,5,42,127,2493688056
9323,13,Improv_Metronome,163,1,48,62,2494003100
9323,13,Improv_Metronome,164,1,38,59,2494022832
9323,13,Improv_Metronome,165,5,42,127,2494187852
9323,13,Improv_Metronome,166,1,38,64,2494495348
9323,13,Improv_Metronome,167,5,42,127,2494687548
9323,13,Improv_Metronome,168,1,48,52,2494973796
9323,13,Improv_Metronome,169,5,42,127,2495188192
9323,13,Improv_Metronome,170,1,48,60,2495429188
9323,13,Improv_Metronome,171,1,48,54,2495450032
9323,13,Improv_Metronome,172,5,42,127,2495688136
9323,13,Improv_Metronome,173,1,48,74,2495872588
9323,13,Improv_Metronome,174,1,38,72,2495883040
9323,13,Improv_Metronome,175,1,38,25,2495948092
9323,13,Improv_Metronome,176,5,42,127,2496187832
9323,13,Improv_Metronome,177,1,48,62,2496366304
9323,13,Improv_Metronome,178,1,38,50,2496388724
9323,13,Improv_Metronome,179,5,42,127,2496687420
9323,13,Improv_Metronome,180,1,38,62,2496827364
9323,13,Improv_Metronome,181,5,42,127,2497188084
9323,13,Improv_Metronome,182,1,48,65,2497295500
9323,13,Improv_Metronome,183,5,42,127,2497687856
9323,13,Improv_Metronome,184,1,38,47,2497743628
9323,13,Improv_Metronome,185,1,38,48,2497820828
9323,13,Improv_Metronome,186,1,38,68,2498149716
9323,13,Improv_Metronome,187,5,42,127,2498187748
9323,13,Improv_Metronome,188,1,38,36,2498189820
9323,13,Improv_Metronome,189,1,38,61,2498300960
9323,13,Improv_Metronome,190,1,48,86,2498653332
9323,13,Improv_Metronome,191,5,42,127,2498688296
9323,13,Improv_Metronome,192,1,48,56,2498824712
9323,13,Improv_Metronome,193,1,48,61,2499124052
9323,13,Improv_Metronome,194,5,42,127,2499188040
9323,13,Improv_Metronome,195,1,48,67,2499253076
9323,13,Improv_Metronome,196,5,42,127,2499687944
9323,13,Improv_Metronome,197,1,38,76,2499691136
9323,13,Improv_Metronome,198,1,38,29,2499747216
9323,13,Improv_Metronome,199,1,48,78,2500151824
9323,13,Improv_Metronome,200,5,42,127,2500187760
9323,13,Improv_Metronome,201,1,48,40,2500216896
9323,13,Improv_Metronome,202,1,38,46,2500683656
9323,13,Improv_Metronome,203,5,42,127,2500688256
9323,13,Improv_Metronome,204,1,48,58,2501140044
9323,13,Improv_Metronome,205,1,48,46,2501170916
9323,13,Improv_Metronome,206,5,42,127,2501187928
9323,13,Improv_Metronome,207,1,38,73,2501624236
9323,13,Improv_Metronome,208,1,48,62,2501629228
9323,13,Improv_Metronome,209,5,42,127,2501687828
9323,13,Improv_Metronome,210,1,38,85,2502103436
9323,13,Improv_Metronome,211,5,42,127,2502188320
9323,13,Improv_Metronome,212,1,48,76,2502588476
9323,13,Improv_Metronome,213,5,42,127,2502688072
9323,13,Improv_Metronome,214,1,38,67,2503077924
9323,13,Improv_Metronome,215,1,48,64,2503083364
9323,13,Improv_Metronome,216,5,42,127,2503187868
9323,13,Improv_Metronome,217,1,48,51,2503561264
9323,13,Improv_Metronome,218,1,38,62,2503576876
9323,13,Improv_Metronome,219,5,42,127,2503687812
9323,13,Improv_Metronome,220,1,38,57,2504010872
9323,13,Improv_Metronome,221,1,38,57,2504107708
9323,13,Improv_Metronome,222,5,42,127,2504188400
9323,13,Improv_Metronome,223,1,48,67,2504503880
9323,13,Improv_Metronome,224,5,42,127,2504688004
9323,13,Improv_Metronome,225,1,38,61,2504985628
9323,13,Improv_Metronome,226,1,38,33,2505031008
9323,13,Improv_Metronome,227,5,42,127,2505187824
9323,13,Improv_Metronome,228,1,48,70,2505452460
9323,13,Improv_Metronome,229,5,42,127,2505688540
9323,13,Improv_Metronome,230,1,48,57,2505934772
9323,13,Improv_Metronome,231,5,42,127,2506188160
9323,13,Improv_Metronome,232,1,48,84,2506407324
9323,13,Improv_Metronome,233,5,42,127,2506687784
9323,13,Improv_Metronome,234,1,38,74,2506897816
9323,13,Improv_Metronome,235,5,42,127,2507187848
9323,13,Improv_Metronome,236,1,48,57,2507374924
9323,13,Improv_Metronome,237,1,38,66,2507410204
9323,13,Improv_Metronome,238,5,42,127,2507688404
9323,13,Improv_Metronome,239,1,48,71,2507815044
9323,13,Improv_Metronome,240,5,42,127,2508187952
9323,13,Improv_Metronome,241,1,38,73,2508261408
9323,13,Improv_Metronome,242,1,38,69,2508669800
9323,13,Improv_Metronome,243,5,42,127,2508687788
9323,13,Improv_Metronome,244,1,48,57,2509145712
9323,13,Improv_Metronome,245,1,38,73,2509159608
9323,13,Improv_Metronome,246,5,42,127,2509187612
9323,13,Improv_Metronome,247,1,48,43,2509643116
9323,13,Improv_Metronome,248,1,38,75,2509653044
9323,13,Improv_Metronome,249,5,42,127,2509688084
9323,13,Improv_Metronome,250,1,38,59,2510143956
9323,13,Improv_Metronome,251,5,42,127,2510187824
9323,13,Improv_Metronome,252,1,38,68,2510590104
9323,13,Improv_Metronome,253,5,42,127,2510687728
9323,13,Improv_Metronome,254,1,48,67,2511110216
9323,13,Improv_Metronome,255,5,42,127,2511188264
9323,13,Improv_Metronome,256,1,48,65,2511582004
9323,13,Improv_Metronome,257,5,42,127,2511687940
9323,13,Improv_Metronome,258,1,38,65,2512067992
9323,13,Improv_Metronome,259,5,42,127,2512187860
9323,13,Improv_Metronome,260,1,38,73,2512208480
9323,13,Improv_Metronome,261,1,38,58,2512509616
9323,13,Improv_Metronome,262,1,38,67,2512637748
9323,13,Improv_Metronome,263,5,42,127,2512687676
9323,13,Improv_Metronome,264,1,48,57,2513050504
9323,13,Improv_Metronome,265,1,48,59,2513184024
9323,13,Improv_Metronome,266,5,42,127,2513188172
9323,13,Improv_Metronome,267,1,48,65,2513543744
9323,13,Improv_Metronome,268,5,42,127,2513688000
9323,13,Improv_Metronome,269,1,48,65,2513712512
9323,13,Improv_Metronome,270,1,38,89,2514179576
9323,13,Improv_Metronome,271,5,42,127,2514187760
9323,13,Improv_Metronome,272,1,48,53,2514648504
9323,13,Improv_Metronome,273,5,42,127,2514688500
9323,13,Improv_Metronome,274,1,48,34,2514703724
9323,13,Improv_Metronome,275,1,48,56,2515162784
9323,13,Improv_Metronome,276,1,38,77,2515169500
9323,13,Improv_Metronome,277,5,42,127,2515188008
9323,13,Improv_Metronome,278,1,48,66,2515639068
9323,13,Improv_Metronome,279,1,38,64,2515661040
9323,13,Improv_Metronome,280,5,42,127,2515687876
9323,13,Improv_Metronome,281,1,38,57,2516149712
9323,13,Improv_Metronome,282,5,42,127,2516187616
9323,13,Improv_Metronome,283,1,48,65,2516645440
9323,13,Improv_Metronome,284,5,42,127,2516688332
9323,13,Improv_Metronome,285,1,48,68,2517085300
9323,13,Improv_Metronome,286,5,42,127,2517188012
9323,13,Improv_Metronome,287,1,38,71,2517195620
9323,13,Improv_Metronome,288,1,48,66,2517547124
9323,13,Improv_Metronome,289,5,42,127,2517687536
9323,13,Improv_Metronome,290,1,38,58,2517693720
9323,13,Improv_Metronome,291,1,38,72,2518124736
9323,13,Improv_Metronome,292,5,42,127,2518188568
9323,13,Improv_Metronome,293,1,38,54,2518280784
9323,13,Improv_Metronome,294,1,38,66,2518591268
9323,13,Improv_Metronome,295,1,38,35,2518633208
9323,13,Improv_Metronome,296,5,42,127,2518688292
9323,13,Improv_Metronome,297,1,38,69,2518691852
9323,13,Improv_Metronome,298,1,48,52,2519101092
9323,13,Improv_Metronome,299,5,42,127,2519187744
9323,13,Improv_Metronome,300,1,38,54,2519266420
9323,13,Improv_Metronome,301,1,48,50,2519590592
9323,13,Improv_Metronome,302,5,42,127,2519687476
9323,13,Improv_Metronome,303,1,38,68,2519696276
9323,13,Improv_Metronome,304,1,38,58,2520107172
9323,13,Improv_Metronome,305,1,38,38,2520143352
9323,13,Improv_Metronome,306,5,42,127,2520188412
9323,13,Improv_Metronome,307,1,38,83,2520614548
9323,13,Improv_Metronome,308,5,42,127,2520687884
9323,13,Improv_Metronome,309,1,48,57,2521013688
9323,13,Improv_Metronome,310,5,42,127,2521187636
9323,13,Improv_Metronome,311,1,38,77,2521550040
9323,13,Improv_Metronome,312,1,38,34,2521610404
9323,13,Improv_Metronome,313,5,42,127,2521688520
9323,13,Improv_Metronome,314,1,38,76,2522105532
9323,13,Improv_Metronome,315,5,42,127,2522188144
9323,13,Improv_Metronome,316,1,38,70,2522580740
9323,13,Improv_Metronome,317,5,42,127,2522687968
9323,13,Improv_Metronome,318,1,48,69,2523061364
9323,13,Improv_Metronome,319,5,42,127,2523187440
9323,13,Improv_Metronome,320,1,48,62,2523568684
9323,13,Improv_Metronome,321,5,42,127,2523688404
9323,13,Improv_Metronome,322,1,38,63,2524059480
9323,13,Improv_Metronome,323,5,42,127,2524187880
9323,13,Improv_Metronome,324,1,38,81,2524516164
9323,13,Improv_Metronome,325,1,38,37,2524561476
9323,13,Improv_Metronome,326,5,42,127,2524687848
9323,13,Improv_Metronome,327,1,48,57,2524998936
9323,13,Improv_Metronome,328,5,42,127,2525187468
9323,13,Improv_Metronome,329,1,48,51,2525420840
9323,13,Improv_Metronome,330,5,42,127,2525688432
9323,13,Improv_Metronome,331,1,38,67,2525888492
9323,13,Improv_Metronome,332,1,48,64,2525897596
9323,13,Improv_Metronome,333,5,42,127,2526187932
9323,13,Improv_Metronome,334,1,48,61,2526356728
9323,13,Improv_Metronome,335,1,38,78,2526368448
9323,13,Improv_Metronome,336,5,42,127,2526687580
9323,13,Improv_Metronome,337,1,38,59,2526838872
9323,13,Improv_Metronome,338,1,38,64,2526939404
9323,13,Improv_Metronome,339,5,42,127,2527188572
9323,13,Improv_Metronome,340,1,38,66,2527283568
9323,13,Improv_Metronome,341,1,38,39,2527320124
9323,13,Improv_Metronome,342,1,38,68,2527412772
9323,13,Improv_Metronome,343,5,42,127,2527688000
9323,13,Improv_Metronome,344,1,48,58,2527808652
9323,13,Improv_Metronome,345,1,48,62,2527963264
9323,13,Improv_Metronome,346,5,42,127,2528187748
9323,13,Improv_Metronome,347,1,48,55,2528268680
9323,13,Improv_Metronome,348,1,48,81,2528371280
9323,13,Improv_Metronome,349,1,48,38,2528415316
9323,13,Improv_Metronome,350,5,42,127,2528687476
9323,13,Improv_Metronome,351,1,38,64,2528779776
9323,13,Improv_Metronome,352,1,38,60,2528943708
9323,13,Improv_Metronome,353,5,42,127,2529188492
9323,13,Improv_Metronome,354,1,38,55,2529274584
9323,13,Improv_Metronome,355,1,38,42,2529371876
9323,13,Improv_Metronome,356,5,42,127,2529687868
9323,13,Improv_Metronome,357,1,48,49,2529749924
9323,13,Improv_Metronome,358,1,48,49,2529888828
9323,13,Improv_Metronome,359,1,48,33,2529928672
9323,13,Improv_Metronome,360,5,42,127,2530187592
9323,13,Improv_Metronome,361,1,48,57,2530196696
9323,13,Improv_Metronome,362,1,48,57,2530331180
9323,13,Improv_Metronome,363,5,42,127,2530688460
9323,13,Improv_Metronome,364,1,38,73,2530781212
9323,13,Improv_Metronome,365,5,42,127,2531188004
9323,13,Improv_Metronome,366,1,48,59,2531241316
9323,13,Improv_Metronome,367,1,48,35,2531296816
9323,13,Improv_Metronome,368,5,42,127,2531687900
9323,13,Improv_Metronome,369,1,38,59,2531691020
9323,13,Improv_Metronome,370,1,48,63,2532173564
9323,13,Improv_Metronome,371,5,42,127,2532187440
9323,13,Improv_Metronome,372,1,48,62,2532591284
9323,13,Improv_Metronome,373,5,42,127,2532688404
9323,13,Improv_Metronome,374,1,38,59,2532702804
9323,13,Improv_Metronome,375,1,48,62,2533076420
9323,13,Improv_Metronome,0,9999,9999,9999,2463185988
9323,13,Improv_Metronome,1,9999,9999,9999,2463685704
9323,13,Improv_Metronome,2,9999,9999,9999,2464185420
9323,13,Improv_Metronome,3,9999,9999,9999,2464685116
9323,13,Improv_Metronome,4,9999,9999,9999,2465185852
9323,13,Improv_Metronome,5,9999,9999,9999,2465685620
9323,13,Improv_Metronome,6,9999,9999,9999,2466185316
9323,13,Improv_Metronome,7,9999,9999,9999,2466686020
9323,13,Improv_Metronome,8,9999,9999,9999,2467185716
9323,13,Improv_Metronome,9,9999,9999,9999,2467685484
9323,13,Improv_Metronome,10,9999,9999,9999,2468185180
9323,13,Improv_Metronome,11,9999,9999,9999,2468685920
9323,13,Improv_Metronome,12,9999,9999,9999,2469185596
9323,13,Improv_Metronome,13,9999,9999,9999,2469685348
9323,13,Improv_Metronome,14,9999,9999,9999,2470186084
9323,13,Improv_Metronome,15,9999,9999,9999,2470685764
9323,13,Improv_Metronome,16,9999,9999,9999,2471185460
9323,13,Improv_Metronome,17,9999,9999,9999,2471685228
9323,13,Improv_Metronome,18,9999,9999,9999,2472185968
9323,13,Improv_Metronome,19,9999,9999,9999,2472685672
9323,13,Improv_Metronome,20,9999,9999,9999,2473185392
9323,13,Improv_Metronome,21,9999,9999,9999,2473686108
9323,13,Improv_Metronome,22,9999,9999,9999,2474185780
9323,13,Improv_Metronome,23,9999,9999,9999,2474685548
9323,13,Improv_Metronome,24,9999,9999,9999,2475185224
9323,13,Improv_Metronome,25,9999,9999,9999,2475686004
9323,13,Improv_Metronome,26,9999,9999,9999,2476185652
9323,13,Improv_Metronome,27,9999,9999,9999,2476685424
9323,13,Improv_Metronome,28,9999,9999,9999,2477185116
9323,13,Improv_Metronome,29,9999,9999,9999,2477685856
9323,13,Improv_Metronome,30,9999,9999,9999,2478185552
9323,13,Improv_Metronome,31,9999,9999,9999,2478685244
9323,13,Improv_Metronome,32,9999,9999,9999,2479185968
9323,13,Improv_Metronome,33,9999,9999,9999,2479685720
9323,13,Improv_Metronome,34,9999,9999,9999,2480185408
9323,13,Improv_Metronome,35,9999,9999,9999,2480685140
9323,13,Improv_Metronome,36,9999,9999,9999,2481185880
9323,13,Improv_Metronome,37,9999,9999,9999,2481685576
9323,13,Improv_Metronome,38,9999,9999,9999,2482185320
9323,13,Improv_Metronome,39,9999,9999,9999,2482686064
9323,13,Improv_Metronome,40,9999,9999,9999,2483185712
9323,13,Improv_Metronome,41,9999,9999,9999,2483685432
9323,13,Improv_Metronome,42,9999,9999,9999,2484185156
9323,13,Improv_Metronome,43,9999,9999,9999,2484685876
9323,13,Improv_Metronome,44,9999,9999,9999,2485185620
9323,13,Improv_Metronome,45,9999,9999,9999,2485685296
9323,13,Improv_Metronome,46,9999,9999,9999,2486186056
9323,13,Improv_Metronome,47,9999,9999,9999,2486685772
9323,13,Improv_Metronome,48,9999,9999,9999,2487185468
9323,13,Improv_Metronome,49,9999,9999,9999,2487685236
9323,13,Improv_Metronome,50,9999,9999,9999,2488185932
9323,13,Improv_Metronome,51,9999,9999,9999,2488685652
9323,13,Improv_Metronome,52,9999,9999,9999,2489185348
9323,13,Improv_Metronome,53,9999,9999,9999,2489686084
9323,13,Improv_Metronome,54,9999,9999,9999,2490185840
9323,13,Improv_Metronome,55,9999,9999,9999,2490685504
9323,13,Improv_Metronome,56,9999,9999,9999,2491185232
9323,13,Improv_Metronome,57,9999,9999,9999,2491685948
9323,13,Improv_Metronome,58,9999,9999,9999,2492185680
9323,13,Improv_Metronome,59,9999,9999,9999,2492685368
9323,13,Improv_Metronome,60,9999,9999,9999,2493185124
9323,13,Improv_Metronome,61,9999,9999,9999,2493685844
9323,13,Improv_Metronome,62,9999,9999,9999,2494185568
9323,13,Improv_Metronome,63,9999,9999,9999,2494685260
9323,13,Improv_Metronome,64,9999,9999,9999,2495185976
9323,13,Improv_Metronome,65,9999,9999,9999,2495685700
9323,13,Improv_Metronome,66,9999,9999,9999,2496185400
9323,13,Improv_Metronome,67,9999,9999,9999,2496685132
9323,13,Improv_Metronome,68,9999,9999,9999,2497185872
9323,13,Improv_Metronome,69,9999,9999,9999,2497685572
9323,13,Improv_Metronome,70,9999,9999,9999,2498185312
9323,13,Improv_Metronome,71,9999,9999,9999,2498686008
9323,13,Improv_Metronome,72,9999,9999,9999,2499185756
9323,13,Improv_Metronome,73,9999,9999,9999,2499685436
9323,13,Improv_Metronome,74,9999,9999,9999,2500185176
9323,13,Improv_Metronome,75,9999,9999,9999,2500685896
9323,13,Improv_Metronome,76,9999,9999,9999,2501185644
9323,13,Improv_Metronome,77,9999,9999,9999,2501685316
9323,13,Improv_Metronome,78,9999,9999,9999,2502186032
9323,13,Improv_Metronome,79,9999,9999,9999,2502685784
9323,13,Improv_Metronome,80,9999,9999,9999,2503185508
9323,13,Improv_Metronome,81,9999,9999,9999,2503685228
9323,13,Improv_Metronome,82,9999,9999,9999,2504185964
9323,13,Improv_Metronome,83,9999,9999,9999,2504685644
9323,13,Improv_Metronome,84,9999,9999,9999,2505185388
9323,13,Improv_Metronome,85,9999,9999,9999,2505686108
9323,13,Improv_Metronome,86,9999,9999,9999,2506185800
9323,13,Improv_Metronome,87,9999,9999,9999,2506685496
9323,13,Improv_Metronome,88,9999,9999,9999,2507185264
9323,13,Improv_Metronome,89,9999,9999,9999,2507685972
9323,13,Improv_Metronome,90,9999,9999,9999,2508185664
9323,13,Improv_Metronome,91,9999,9999,9999,2508685428
9323,13,Improv_Metronome,92,9999,9999,9999,2509185104
9323,13,Improv_Metronome,93,9999,9999,9999,2509685872
9323,13,Improv_Metronome,94,9999,9999,9999,2510185540
9323,13,Improv_Metronome,95,9999,9999,9999,2510685292
9323,13,Improv_Metronome,96,9999,9999,9999,2511185976
9323,13,Improv_Metronome,97,9999,9999,9999,2511685728
9323,13,Improv_Metronome,98,9999,9999,9999,2512185424
9323,13,Improv_Metronome,99,9999,9999,9999,2512685164
9323,13,Improv_Metronome,100,9999,9999,9999,2513185884
9323,13,Improv_Metronome,101,9999,9999,9999,2513685564
9323,13,Improv_Metronome,102,9999,9999,9999,2514185328
9323,13,Improv_Metronome,103,9999,9999,9999,2514686068
9323,13,Improv_Metronome,104,9999,9999,9999,2515185720
9323,13,Improv_Metronome,105,9999,9999,9999,2515685440
9323,13,Improv_Metronome,106,9999,9999,9999,2516185180
9323,13,Improv_Metronome,107,9999,9999,9999,2516685900
9323,13,Improv_Metronome,108,9999,9999,9999,2517185652
9323,13,Improv_Metronome,109,9999,9999,9999,2517685324
9323,13,Improv_Metronome,110,9999,9999,9999,2518186060
9323,13,Improv_Metronome,111,9999,9999,9999,2518685784
9323,13,Improv_Metronome,112,9999,9999,9999,2519185456
9323,13,Improv_Metronome,113,9999,9999,9999,2519685188
9323,13,Improv_Metronome,114,9999,9999,9999,2520185976
9323,13,Improv_Metronome,115,9999,9999,9999,2520685672
9323,13,Improv_Metronome,116,9999,9999,9999,2521185352
9323,13,Improv_Metronome,117,9999,9999,9999,2521686088
9323,13,Improv_Metronome,118,9999,9999,9999,2522185780
9323,13,Improv_Metronome,119,9999,9999,9999,2522685536
9323,13,Improv_Metronome,120,9999,9999,9999,2523185228
9323,13,Improv_Metronome,121,9999,9999,9999,2523685972
9323,13,Improv_Metronome,122,9999,9999,9999,2524185668
9323,13,Improv_Metronome,123,9999,9999,9999,2524685412
9323,13,Improv_Metronome,124,9999,9999,9999,2525185108
9323,13,Improv_Metronome,125,9999,9999,9999,2525685848
9323,13,Improv_Metronome,126,9999,9999,9999,2526185568
9323,13,Improv_Metronome,127,9999,9999,9999,2526685292
9323,13,Improv_Metronome,128,9999,9999,9999,2527185988
9323,13,Improv_Metronome,129,9999,9999,9999,2527685712
9323,13,Improv_Metronome,130,9999,9999,9999,2528185460
9323,13,Improv_Metronome,131,9999,9999,9999,2528685112
9323,13,Improv_Metronome,132,9999,9999,9999,2529185908
9323,13,Improv_Metronome,133,9999,9999,9999,2529685580
9323,13,Improv_Metronome,134,9999,9999,9999,2530185304
9323,13,Improv_Metronome,135,9999,9999,9999,2530686024
9323,13,Improv_Metronome,136,9999,9999,9999,2531185720
9323,13,Improv_Metronome,137,9999,9999,9999,2531685464
9323,13,Improv_Metronome,138,9999,9999,9999,2532185152
9323,13,Improv_Metronome,139,9999,9999,9999,2532685896
9324,14,Improv_Melody,0,2,48,80,2586884504
9324,14,Improv_Melody,1,2,72,80,2586887252
9324,14,Improv_Melody,2,5,42,127,2586888736
9324,14,Improv_Melody,3,5,42,110,2587380980
9324,14,Improv_Melody,4,5,42,110,2587880776
9324,14,Improv_Melody,5,5,42,110,2588380496
9324,14,Improv_Melody,6,5,42,127,2588881540
9324,14,Improv_Melody,7,5,42,110,2589380888
9324,14,Improv_Melody,8,5,42,110,2589880684
9324,14,Improv_Melody,9,5,42,110,2590381456
9324,14,Improv_Melody,10,2,43,80,2590883828
9324,14,Improv_Melody,11,2,67,80,2590886132
9324,14,Improv_Melody,12,5,42,127,2590888592
9324,14,Improv_Melody,13,5,42,110,2591380912
9324,14,Improv_Melody,14,5,42,110,2591880632
9324,14,Improv_Melody,15,5,42,110,2592381476
9324,14,Improv_Melody,16,5,42,127,2592881420
9324,14,Improv_Melody,17,5,42,110,2593380772
9324,14,Improv_Melody,18,5,42,110,2593880416
9324,14,Improv_Melody,19,5,42,110,2594381408
9324,14,Improv_Melody,20,2,45,80,2594883332
9324,14,Improv_Melody,21,2,69,80,2594885340
9324,14,Improv_Melody,22,5,42,127,2594888100
9324,14,Improv_Melody,23,5,42,110,2595380492
9324,14,Improv_Melody,24,5,42,110,2595881336
9324,14,Improv_Melody,25,5,42,110,2596381280
9324,14,Improv_Melody,26,5,42,127,2596880704
9324,14,Improv_Melody,27,5,42,110,2597380424
9324,14,Improv_Melody,28,5,42,110,2597881340
9324,14,Improv_Melody,29,5,42,110,2598381136
9324,14,Improv_Melody,30,2,41,80,2598883288
9324,14,Improv_Melody,31,2,65,80,2598885216
9324,14,Improv_Melody,32,5,42,127,2598887756
9324,14,Improv_Melody,33,5,42,110,2599381344
9324,14,Improv_Melody,34,5,42,110,2599881336
9324,14,Improv_Melody,35,5,42,110,2600380836
9324,14,Improv_Melody,36,5,42,127,2600880704
9324,14,Improv_Melody,37,5,42,110,2601381252
9324,14,Improv_Melody,38,5,42,110,2601881196
9324,14,Improv_Melody,39,5,42,110,2602380620
9324,14,Improv_Melody,40,2,48,80,2602884040
9324,14,Improv_Melody,41,2,72,80,2602886116
9324,14,Improv_Melody,42,5,42,127,2602888580
9324,14,Improv_Melody,43,5,42,110,2603381048
9324,14,Improv_Melody,44,5,42,110,2603880848
9324,14,Improv_Melody,45,5,42,110,2604380640
9324,14,Improv_Melody,46,5,42,127,2604881336
9324,14,Improv_Melody,47,5,42,110,2605381060
9324,14,Improv_Melody,48,5,42,110,2605880780
9324,14,Improv_Melody,49,5,42,110,2606381476
9324,14,Improv_Melody,50,1,38,48,2606879100
9324,14,Improv_Melody,51,2,43,80,2606883996
9324,14,Improv_Melody,52,2,67,80,2606886072
9324,14,Improv_Melody,53,5,42,127,2606888532
9324,14,Improv_Melody,54,1,38,41,2607362536
9324,14,Improv_Melody,55,5,42,110,2607380904
9324,14,Improv_Melody,56,1,38,44,2607841372
9324,14,Improv_Melody,57,5,42,110,2607880528
9324,14,Improv_Melody,58,1,38,41,2608320700
9324,14,Improv_Melody,59,5,42,110,2608381424
9324,14,Improv_Melody,60,1,38,62,2608833864
9324,14,Improv_Melody,61,1,48,65,2608837660
9324,14,Improv_Melody,62,1,38,42,2608871472
9324,14,Improv_Melody,63,5,42,127,2608881008
9324,14,Improv_Melody,64,1,48,58,2609324964
9324,14,Improv_Melody,65,1,38,57,2609325548
9324,14,Improv_Melody,66,5,42,110,2609380588
9324,14,Improv_Melody,67,1,38,61,2609818188
9324,14,Improv_Melody,68,5,42,110,2609880408
9324,14,Improv_Melody,69,1,48,65,2610342048
9324,14,Improv_Melody,70,5,42,110,2610381056
9324,14,Improv_Melody,71,1,38,46,2610866504
9324,14,Improv_Melody,72,1,48,50,2610871496
9324,14,Improv_Melody,73,2,45,80,2610883388
9324,14,Improv_Melody,74,2,69,80,2610885540
9324,14,Improv_Melody,75,5,42,127,2610888152
9324,14,Improv_Melody,76,1,48,25,2611336624
9324,14,Improv_Melody,77,1,38,53,2611346028
9324,14,Improv_Melody,78,5,42,110,2611380548
9324,14,Improv_Melody,79,1,38,48,2611831488
9324,14,Improv_Melody,80,5,42,110,2611881196
9324,14,Improv_Melody,81,1,38,56,2611896492
9324,14,Improv_Melody,82,1,38,47,2612266988
9324,14,Improv_Melody,83,1,38,59,2612363980
9324,14,Improv_Melody,84,5,42,110,2612381076
9324,14,Improv_Melody,85,1,48,57,2612766368
9324,14,Improv_Melody,86,5,42,127,2612880832
9324,14,Improv_Melody,87,1,48,59,2613281104
9324,14,Improv_Melody,88,5,42,110,2613380384
9324,14,Improv_Melody,89,1,48,18,2613785816
9324,14,Improv_Melody,90,1,38,14,2613798960
9324,14,Improv_Melody,91,5,42,110,2613881112
9324,14,Improv_Melody,92,1,38,57,2614311660
9324,14,Improv_Melody,93,5,42,110,2614380888
9324,14,Improv_Melody,94,1,38,64,2614810984
9324,14,Improv_Melody,95,1,48,50,2614837140
9324,14,Improv_Melody,96,1,38,38,2614866072
9324,14,Improv_Melody,97,2,41,80,2614883428
9324,14,Improv_Melody,98,2,65,80,2614885652
9324,14,Improv_Melody,99,5,42,127,2614888108
9324,14,Improv_Melody,100,1,48,57,2615308232
9324,14,Improv_Melody,101,1,38,57,2615328556
9324,14,Improv_Melody,102,5,42,110,2615381480
9324,14,Improv_Melody,103,1,48,59,2615807736
9324,14,Improv_Melody,104,5,42,110,2615881004
9324,14,Improv_Melody,105,1,38,48,2616337952
9324,14,Improv_Melody,106,5,42,110,2616380776
9324,14,Improv_Melody,107,1,38,53,2616802796
9324,14,Improv_Melody,108,5,42,127,2616880552
9324,14,Improv_Melody,109,1,48,54,2617300552
9324,14,Improv_Melody,110,5,42,110,2617381224
9324,14,Improv_Melody,111,1,48,57,2617802772
9324,14,Improv_Melody,112,5,42,110,2617881072
9324,14,Improv_Melody,113,1,38,54,2618322440
9324,14,Improv_Melody,114,5,42,110,2618380848
9324,14,Improv_Melody,115,1,38,48,2618822816
9324,14,Improv_Melody,116,2,48,80,2618884024
9324,14,Improv_Melody,117,2,72,80,2618886180
9324,14,Improv_Melody,118,5,42,127,2618888788
9324,14,Improv_Melody,119,1,38,42,2618894364
9324,14,Improv_Melody,120,1,38,36,2619248832
9324,14,Improv_Melody,121,1,38,45,2619365144
9324,14,Improv_Melody,122,5,42,110,2619381040
9324,14,Improv_Melody,123,1,38,31,2619733624
9324,14,Improv_Melody,124,1,38,38,2619854180
9324,14,Improv_Melody,125,5,42,110,2619880796
9324,14,Improv_Melody,126,1,38,31,2620204880
9324,14,Improv_Melody,127,1,38,35,2620314288
9324,14,Improv_Melody,128,5,42,110,2620380476
9324,14,Improv_Melody,129,1,38,35,2620710468
9324,14,Improv_Melody,130,1,38,33,2620815764
9324,14,Improv_Melody,131,5,42,127,2620881252
9324,14,Improv_Melody,132,1,38,35,2621174168
9324,14,Improv_Melody,133,1,38,45,2621359048
9324,14,Improv_Melody,134,5,42,110,2621381080
9324,14,Improv_Melody,135,1,48,43,2621767420
9324,14,Improv_Melody,136,5,42,110,2621880612
9324,14,Improv_Melody,137,1,48,59,2622263308
9324,14,Improv_Melody,138,5,42,110,2622381288
9324,14,Improv_Melody,139,1,38,57,2622806536
9324,14,Improv_Melody,140,2,43,80,2622883884
9324,14,Improv_Melody,141,2,67,80,2622885804
9324,14,Improv_Melody,142,5,42,127,2622888344
9324,14,Improv_Melody,143,1,38,71,2623349860
9324,14,Improv_Melody,144,5,42,110,2623380712
9324,14,Improv_Melody,145,1,48,54,2623833700
9324,14,Improv_Melody,146,1,48,38,2623871600
9324,14,Improv_Melody,147,5,42,110,2623880764
9324,14,Improv_Melody,148,1,48,68,2624339732
9324,14,Improv_Melody,149,5,42,110,2624381436
9324,14,Improv_Melody,150,1,38,47,2624835776
9324,14,Improv_Melody,151,5,42,127,2624881064
9324,14,Improv_Melody,152,1,38,49,2625301360
9324,14,Improv_Melody,153,5,42,110,2625380840
9324,14,Improv_Melody,154,1,38,48,2625780716
9324,14,Improv_Melody,155,5,42,110,2625880448
9324,14,Improv_Melody,156,1,38,59,2626287152
9324,14,Improv_Melody,157,5,42,110,2626381136
9324,14,Improv_Melody,158,1,48,41,2626760272
9324,14,Improv_Melody,159,2,45,80,2626883628
9324,14,Improv_Melody,160,2,69,80,2626885548
9324,14,Improv_Melody,161,5,42,127,2626888236
9324,14,Improv_Melody,162,1,48,42,2627332116
9324,14,Improv_Melody,163,5,42,110,2627380848
9324,14,Improv_Melody,164,1,48,52,2627871604
9324,14,Improv_Melody,165,5,42,110,2627881444
9324,14,Improv_Melody,166,1,48,51,2628351932
9324,14,Improv_Melody,167,5,42,110,2628381068
9324,14,Improv_Melody,168,1,48,56,2628819768
9324,14,Improv_Melody,169,5,42,127,2628880844
9324,14,Improv_Melody,170,1,38,47,2629276508
9324,14,Improv_Melody,171,5,42,110,2629380752
9324,14,Improv_Melody,172,1,38,60,2629814436
9324,14,Improv_Melody,173,5,42,110,2629881140
9324,14,Improv_Melody,174,1,38,58,2630320036
9324,14,Improv_Melody,175,5,42,110,2630380840
9324,14,Improv_Melody,176,1,48,58,2630797972
9324,14,Improv_Melody,177,1,48,42,2630838416
9324,14,Improv_Melody,178,2,41,80,2630883016
9324,14,Improv_Melody,179,2,65,80,2630885476
9324,14,Improv_Melody,180,5,42,127,2630888008
9324,14,Improv_Melody,181,1,38,75,2631354280
9324,14,Improv_Melody,182,5,42,110,2631381352
9324,14,Improv_Melody,183,1,38,27,2631413776
9324,14,Improv_Melody,184,5,42,110,2631881012
9324,14,Improv_Melody,185,1,48,67,2631882948
9324,14,Improv_Melody,186,5,42,110,2632380712
9324,14,Improv_Melody,187,1,38,70,2632393700
9324,14,Improv_Melody,188,5,42,127,2632880708
9324,14,Improv_Melody,189,1,48,58,2632883304
9324,14,Improv_Melody,190,1,38,65,2633358748
9324,14,Improv_Melody,191,5,42,110,2633381372
9324,14,Improv_Melody,192,1,38,36,2633407520
9324,14,Improv_Melody,193,5,42,110,2633880908
9324,14,Improv_Melody,194,1,38,67,2633905272
9324,14,Improv_Melody,195,1,48,63,2634305544
9324,14,Improv_Melody,196,1,48,27,2634373360
9324,14,Improv_Melody,197,5,42,110,2634380656
9324,14,Improv_Melody,198,1,38,62,2634819204
9324,14,Improv_Melody,199,2,48,80,2634883980
9324,14,Improv_Melody,200,2,72,80,2634886128
9324,14,Improv_Melody,201,5,42,127,2634888740
9324,14,Improv_Melody,202,1,48,43,2635350708
9324,14,Improv_Melody,203,5,42,110,2635381188
9324,14,Improv_Melody,204,1,48,54,2635830664
9324,14,Improv_Melody,205,5,42,110,2635880816
9324,14,Improv_Melody,206,1,48,45,2635970532
9324,14,Improv_Melody,207,1,48,48,2636293168
9324,14,Improv_Melody,208,1,48,46,2636370260
9324,14,Improv_Melody,209,5,42,110,2636380696
9324,14,Improv_Melody,210,1,48,41,2636757760
9324,14,Improv_Melody,211,5,42,127,2636881352
9324,14,Improv_Melody,212,1,48,36,2636905644
9324,14,Improv_Melody,213,1,48,46,2637253524
9324,14,Improv_Melody,214,5,42,110,2637380956
9324,14,Improv_Melody,215,1,48,37,2637395520
9324,14,Improv_Melody,216,1,48,44,2637731584
9324,14,Improv_Melody,217,1,48,37,2637838700
9324,14,Improv_Melody,218,5,42,110,2637880552
9324,14,Improv_Melody,219,1,48,35,2638216236
9324,14,Improv_Melody,220,1,48,39,2638337704
9324,14,Improv_Melody,221,5,42,110,2638381500
9324,14,Improv_Melody,222,1,48,42,2638717180
9324,14,Improv_Melody,223,1,48,44,2638852640
9324,14,Improv_Melody,224,2,43,80,2638883756
9324,14,Improv_Melody,225,2,67,80,2638886060
9324,14,Improv_Melody,226,5,42,127,2638888592
9324,14,Improv_Melody,227,1,48,43,2639240584
9324,14,Improv_Melody,228,1,48,60,2639379596
9324,14,Improv_Melody,229,5,42,110,2639381092
9324,14,Improv_Melody,230,5,42,110,2639880724
9324,14,Improv_Melody,231,1,38,26,2639957000
9324,14,Improv_Melody,232,5,42,110,2640381396
9324,14,Improv_Melody,233,1,38,62,2640407708
9324,14,Improv_Melody,234,1,48,62,2640868036
9324,14,Improv_Melody,235,5,42,127,2640880868
9324,14,Improv_Melody,236,1,38,56,2641294332
9324,14,Improv_Melody,237,5,42,110,2641380644
9324,14,Improv_Melody,238,1,48,46,2641777504
9324,14,Improv_Melody,239,5,42,110,2641880552
9324,14,Improv_Melody,240,1,38,63,2642263444
9324,14,Improv_Melody,241,5,42,110,2642381272
9324,14,Improv_Melody,242,1,38,64,2642780944
9324,14,Improv_Melody,243,2,45,80,2642883632
9324,14,Improv_Melody,244,2,69,80,2642885552
9324,14,Improv_Melody,245,5,42,127,2642888240
9324,14,Improv_Melody,246,1,38,55,2643265100
9324,14,Improv_Melody,247,5,42,110,2643380612
9324,14,Improv_Melody,248,1,48,59,2643744304
9324,14,Improv_Melody,249,5,42,110,2643881436
9324,14,Improv_Melody,250,1,48,54,2644259044
9324,14,Improv_Melody,251,5,42,110,2644381208
9324,14,Improv_Melody,252,1,38,53,2644769660
9324,14,Improv_Melody,253,5,42,127,2644880760
9324,14,Improv_Melody,254,1,38,65,2645270480
9324,14,Improv_Melody,255,1,38,42,2645308232
9324,14,Improv_Melody,256,5,42,110,2645380456
9324,14,Improv_Melody,257,1,38,51,2645756848
9324,14,Improv_Melody,258,1,38,35,2645794376
9324,14,Improv_Melody,259,5,42,110,2645881328
9324,14,Improv_Melody,260,1,48,62,2646256452
9324,14,Improv_Melody,261,1,38,35,2646312308
9324,14,Improv_Melody,262,5,42,110,2646380848
9324,14,Improv_Melody,263,1,38,56,2646786856
9324,14,Improv_Melody,264,2,41,80,2646884384
9324,14,Improv_Melody,265,2,65,80,2646886156
9324,14,Improv_Melody,266,5,42,127,2646888620
9324,14,Improv_Melody,267,1,38,55,2647266456
9324,14,Improv_Melody,268,5,42,110,2647381216
9324,14,Improv_Melody,269,1,48,56,2647834288
9324,14,Improv_Melody,270,1,48,35,2647876304
9324,14,Improv_Melody,271,5,42,110,2647881208
9324,14,Improv_Melody,272,1,48,52,2648341224
9324,14,Improv_Melody,273,5,42,110,2648380680
9324,14,Improv_Melody,274,1,48,55,2648819456
9324,14,Improv_Melody,275,5,42,127,2648880384
9324,14,Improv_Melody,276,1,38,50,2649309508
9324,14,Improv_Melody,277,5,42,110,2649381204
9324,14,Improv_Melody,278,1,38,58,2649827388
9324,14,Improv_Melody,279,5,42,110,2649880976
9324,14,Improv_Melody,280,1,38,61,2650314120
9324,14,Improv_Melody,281,5,42,110,2650380604
9324,14,Improv_Melody,282,1,48,46,2650828328
9324,14,Improv_Melody,283,2,48,80,2650883776
9324,14,Improv_Melody,284,2,72,80,2650886004
9324,14,Improv_Melody,285,5,42,127,2650888544
9324,14,Improv_Melody,286,1,48,32,2651006464
9324,14,Improv_Melody,287,1,48,49,2651255544
9324,14,Improv_Melody,288,1,48,43,2651378064
9324,14,Improv_Melody,289,5,42,110,2651381244
9324,14,Improv_Melody,290,1,48,48,2651708772
9324,14,Improv_Melody,291,1,48,43,2651839344
9324,14,Improv_Melody,292,5,42,110,2651880776
9324,14,Improv_Melody,293,1,48,43,2652222212
9324,14,Improv_Melody,294,1,48,41,2652349724
9324,14,Improv_Melody,295,5,42,110,2652380528
9324,14,Improv_Melody,296,1,48,42,2652776416
9324,14,Improv_Melody,297,5,42,127,2652881308
9324,14,Improv_Melody,298,1,48,41,2652935692
9324,14,Improv_Melody,299,1,48,29,2653354260
9324,14,Improv_Melody,300,5,42,110,2653381152
9324,14,Improv_Melody,301,1,48,16,2653475912
9324,14,Improv_Melody,302,1,48,33,2653480376
9324,14,Improv_Melody,303,5,42,110,2653880664
9324,14,Improv_Melody,304,1,48,37,2653884832
9324,14,Improv_Melody,305,1,48,40,2653946244
9324,14,Improv_Melody,306,5,42,110,2654381392
9324,14,Improv_Melody,307,1,48,37,2654399020
9324,14,Improv_Melody,308,1,48,45,2654509500
9324,14,Improv_Melody,309,2,43,80,2654883568
9324,14,Improv_Melody,310,2,67,80,2654885724
9324,14,Improv_Melody,311,5,42,127,2654888336
9324,14,Improv_Melody,312,1,38,54,2655027316
9324,14,Improv_Melody,313,5,42,110,2655380708
9324,14,Improv_Melody,314,1,38,59,2655478320
9324,14,Improv_Melody,315,5,42,110,2655880560
9324,14,Improv_Melody,316,1,48,64,2655924744
9324,14,Improv_Melody,317,1,38,58,2656334284
9324,14,Improv_Melody,318,5,42,110,2656381448
9324,14,Improv_Melody,319,1,38,59,2656837056
9324,14,Improv_Melody,320,5,42,127,2656881296
9324,14,Improv_Melody,321,1,38,56,2657304892
9324,14,Improv_Melody,322,5,42,110,2657380700
9324,14,Improv_Melody,323,1,48,51,2657818880
9324,14,Improv_Melody,324,5,42,110,2657880400
9324,14,Improv_Melody,325,1,38,48,2658317304
9324,14,Improv_Melody,326,1,48,54,2658344436
9324,14,Improv_Melody,327,5,42,110,2658381352
9324,14,Improv_Melody,328,1,38,56,2658787640
9324,14,Improv_Melody,329,1,38,35,2658834592
9324,14,Improv_Melody,330,2,45,80,2658883508
9324,14,Improv_Melody,331,2,69,80,2658885812
9324,14,Improv_Melody,332,5,42,127,2658888268
9324,14,Improv_Melody,333,1,38,56,2659281024
9324,14,Improv_Melody,334,5,42,110,2659381452
9324,14,Improv_Melody,335,1,48,43,2659791048
9324,14,Improv_Melody,336,5,42,110,2659881312
9324,14,Improv_Melody,337,1,48,52,2660297100
9324,14,Improv_Melody,338,5,42,110,2660381236
9324,14,Improv_Melody,339,1,48,30,2660812656
9324,14,Improv_Melody,340,1,38,38,2660878268
9324,14,Improv_Melody,341,5,42,127,2660880928
9324,14,Improv_Melody,342,1,48,34,2661260636
9324,14,Improv_Melody,343,5,42,110,2661380364
9324,14,Improv_Melody,344,1,38,51,2661404272
9324,14,Improv_Melody,345,1,48,41,2661754772
9324,14,Improv_Melody,346,1,38,50,2661860472
9324,14,Improv_Melody,347,5,42,110,2661881300
9324,14,Improv_Melody,348,1,48,48,2662246080
9324,14,Improv_Melody,349,1,38,47,2662378552
9324,14,Improv_Melody,350,5,42,110,2662381128
9324,14,Improv_Melody,351,1,38,52,2662878520
9324,14,Improv_Melody,352,2,41,80,2662883788
9324,14,Improv_Melody,353,2,65,80,2662885864
9324,14,Improv_Melody,354,5,42,127,2662888248
9324,14,Improv_Melody,355,5,42,110,2663381228
9324,14,Improv_Melody,356,1,38,47,2663437076
9324,14,Improv_Melody,357,1,48,48,2663846820
9324,14,Improv_Melody,358,5,42,110,2663881268
9324,14,Improv_Melody,359,1,48,44,2664338520
9324,14,Improv_Melody,360,5,42,110,2664381192
9324,14,Improv_Melody,361,5,42,127,2664880528
9324,14,Improv_Melody,362,1,38,44,2664915756
9324,14,Improv_Melody,363,1,38,51,2665366192
9324,14,Improv_Melody,364,5,42,110,2665381192
9324,14,Improv_Melody,365,5,42,110,2665881120
9324,14,Improv_Melody,366,1,48,50,2665905932
9324,14,Improv_Melody,367,1,48,49,2666343528
9324,14,Improv_Melody,368,5,42,110,2666380592
9324,14,Improv_Melody,369,2,48,80,2666883848
9324,14,Improv_Melody,370,2,72,80,2666885852
9324,14,Improv_Melody,371,5,42,127,2666888540
9324,14,Improv_Melody,372,1,38,48,2666904752
9324,14,Improv_Melody,373,1,38,35,2666969528
9324,14,Improv_Melody,374,1,38,42,2667341796
9324,14,Improv_Melody,375,5,42,110,2667381180
9324,14,Improv_Melody,376,1,38,46,2667438812
9324,14,Improv_Melody,377,1,38,36,2667811480
9324,14,Improv_Melody,0,9999,9999,9999,2586879076
9324,14,Improv_Melody,1,9999,9999,9999,2587378764
9324,14,Improv_Melody,2,9999,9999,9999,2587878484
9324,14,Improv_Melody,3,9999,9999,9999,2588378204
9324,14,Improv_Melody,4,9999,9999,9999,2588878948
9324,14,Improv_Melody,5,9999,9999,9999,2589378672
9324,14,Improv_Melody,6,9999,9999,9999,2589878392
9324,14,Improv_Melody,7,9999,9999,9999,2590379088
9324,14,Improv_Melody,8,9999,9999,9999,2590878808
9324,14,Improv_Melody,9,9999,9999,9999,2591378544
9324,14,Improv_Melody,10,9999,9999,9999,2591878264
9324,14,Improv_Melody,11,9999,9999,9999,2592378960
9324,14,Improv_Melody,12,9999,9999,9999,2592878680
9324,14,Improv_Melody,13,9999,9999,9999,2593378404
9324,14,Improv_Melody,14,9999,9999,9999,2593878124
9324,14,Improv_Melody,15,9999,9999,9999,2594378816
9324,14,Improv_Melody,16,9999,9999,9999,2594878540
9324,14,Improv_Melody,17,9999,9999,9999,2595378276
9324,14,Improv_Melody,18,9999,9999,9999,2595878968
9324,14,Improv_Melody,19,9999,9999,9999,2596378688
9324,14,Improv_Melody,20,9999,9999,9999,2596878412
9324,14,Improv_Melody,21,9999,9999,9999,2597378132
9324,14,Improv_Melody,22,9999,9999,9999,2597878900
9324,14,Improv_Melody,23,9999,9999,9999,2598378548
9324,14,Improv_Melody,24,9999,9999,9999,2598878268
9324,14,Improv_Melody,25,9999,9999,9999,2599379024
9324,14,Improv_Melody,26,9999,9999,9999,2599878748
9324,14,Improv_Melody,27,9999,9999,9999,2600378468
9324,14,Improv_Melody,28,9999,9999,9999,2600878188
9324,14,Improv_Melody,29,9999,9999,9999,2601378884
9324,14,Improv_Melody,30,9999,9999,9999,2601878604
9324,14,Improv_Melody,31,9999,9999,9999,2602378328
9324,14,Improv_Melody,32,9999,9999,9999,2602879096
9324,14,Improv_Melody,33,9999,9999,9999,2603378756
9324,14,Improv_Melody,34,9999,9999,9999,2603878480
9324,14,Improv_Melody,35,9999,9999,9999,2604378200
9324,14,Improv_Melody,36,9999,9999,9999,2604878968
9324,14,Improv_Melody,37,9999,9999,9999,2605378616
9324,14,Improv_Melody,38,9999,9999,9999,2605878336
9324,14,Improv_Melody,39,9999,9999,9999,2606379108
9324,14,Improv_Melody,40,9999,9999,9999,2606878776
9324,14,Improv_Melody,41,9999,9999,9999,2607378536
9324,14,Improv_Melody,42,9999,9999,9999,2607878236
9324,14,Improv_Melody,43,9999,9999,9999,2608378980
9324,14,Improv_Melody,44,9999,9999,9999,2608878640
9324,14,Improv_Melody,45,9999,9999,9999,2609378368
9324,14,Improv_Melody,46,9999,9999,9999,2609878116
9324,14,Improv_Melody,47,9999,9999,9999,2610378836
9324,14,Improv_Melody,48,9999,9999,9999,2610878516
9324,14,Improv_Melody,49,9999,9999,9999,2611378256
9324,14,Improv_Melody,50,9999,9999,9999,2611878976
9324,14,Improv_Melody,51,9999,9999,9999,2612378708
9324,14,Improv_Melody,52,9999,9999,9999,2612878392
9324,14,Improv_Melody,53,9999,9999,9999,2613378140
9324,14,Improv_Melody,54,9999,9999,9999,2613878852
9324,14,Improv_Melody,55,9999,9999,9999,2614378596
9324,14,Improv_Melody,56,9999,9999,9999,2614878328
9324,14,Improv_Melody,57,9999,9999,9999,2615379040
9324,14,Improv_Melody,58,9999,9999,9999,2615878712
9324,14,Improv_Melody,59,9999,9999,9999,2616378484
9324,14,Improv_Melody,60,9999,9999,9999,2616878184
9324,14,Improv_Melody,61,9999,9999,9999,2617378932
9324,14,Improv_Melody,62,9999,9999,9999,2617878632
9324,14,Improv_Melody,63,9999,9999,9999,2618378328
9324,14,Improv_Melody,64,9999,9999,9999,2618879076
9324,14,Improv_Melody,65,9999,9999,9999,2619378748
9324,14,Improv_Melody,66,9999,9999,9999,2619878504
9324,14,Improv_Melody,67,9999,9999,9999,2620378184
9324,14,Improv_Melody,68,9999,9999,9999,2620878956
9324,14,Improv_Melody,69,9999,9999,9999,2621378636
9324,14,Improv_Melody,70,9999,9999,9999,2621878320
9324,14,Improv_Melody,71,9999,9999,9999,2622379068
9324,14,Improv_Melody,72,9999,9999,9999,2622878784
9324,14,Improv_Melody,73,9999,9999,9999,2623378496
9324,14,Improv_Melody,74,9999,9999,9999,2623878248
9324,14,Improv_Melody,75,9999,9999,9999,2624378992
9324,14,Improv_Melody,76,9999,9999,9999,2624878696
9324,14,Improv_Melody,77,9999,9999,9999,2625378396
9324,14,Improv_Melody,78,9999,9999,9999,2625878080
9324,14,Improv_Melody,79,9999,9999,9999,2626378844
9324,14,Improv_Melody,80,9999,9999,9999,2626878528
9324,14,Improv_Melody,81,9999,9999,9999,2627378256
9324,14,Improv_Melody,82,9999,9999,9999,2627879004
9324,14,Improv_Melody,83,9999,9999,9999,2628378700
9324,14,Improv_Melody,84,9999,9999,9999,2628878404
9324,14,Improv_Melody,85,9999,9999,9999,2629378160
9324,14,Improv_Melody,86,9999,9999,9999,2629878848
9324,14,Improv_Melody,87,9999,9999,9999,2630378548
9324,14,Improv_Melody,88,9999,9999,9999,2630878300
9324,14,Improv_Melody,89,9999,9999,9999,2631379056
9324,14,Improv_Melody,90,9999,9999,9999,2631878716
9324,14,Improv_Melody,91,9999,9999,9999,2632378420
9324,14,Improv_Melody,92,9999,9999,9999,2632878192
9324,14,Improv_Melody,93,9999,9999,9999,2633378932
9324,14,Improv_Melody,94,9999,9999,9999,2633878616
9324,14,Improv_Melody,95,9999,9999,9999,2634378288
9324,14,Improv_Melody,96,9999,9999,9999,2634879032
9324,14,Improv_Melody,97,9999,9999,9999,2635378748
9324,14,Improv_Melody,98,9999,9999,9999,2635878448
9324,14,Improv_Melody,99,9999,9999,9999,2636378180
9324,14,Improv_Melody,100,9999,9999,9999,2636878912
9324,14,Improv_Melody,101,9999,9999,9999,2637378664
9324,14,Improv_Melody,102,9999,9999,9999,2637878336
9324,14,Improv_Melody,103,9999,9999,9999,2638379060
9324,14,Improv_Melody,104,9999,9999,9999,2638878812
9324,14,Improv_Melody,105,9999,9999,9999,2639378508
9324,14,Improv_Melody,106,9999,9999,9999,2639878208
9324,14,Improv_Melody,107,9999,9999,9999,2640378956
9324,14,Improv_Melody,108,9999,9999,9999,2640878648
9324,14,Improv_Melody,109,9999,9999,9999,2641378424
9324,14,Improv_Melody,110,9999,9999,9999,2641878108
9324,14,Improv_Melody,111,9999,9999,9999,2642378832
9324,14,Improv_Melody,112,9999,9999,9999,2642878532
9324,14,Improv_Melody,113,9999,9999,9999,2643378244
9324,14,Improv_Melody,114,9999,9999,9999,2643878992
9324,14,Improv_Melody,115,9999,9999,9999,2644378692
9324,14,Improv_Melody,116,9999,9999,9999,2644878392
9324,14,Improv_Melody,117,9999,9999,9999,2645378164
9324,14,Improv_Melody,118,9999,9999,9999,2645878888
9324,14,Improv_Melody,119,9999,9999,9999,2646378552
9324,14,Improv_Melody,120,9999,9999,9999,2646878328
9324,14,Improv_Melody,121,9999,9999,9999,2647378996
9324,14,Improv_Melody,122,9999,9999,9999,2647878764
9324,14,Improv_Melody,123,9999,9999,9999,2648378464
9324,14,Improv_Melody,124,9999,9999,9999,2648878164
9324,14,Improv_Melody,125,9999,9999,9999,2649378912
9324,14,Improv_Melody,126,9999,9999,9999,2649878612
9324,14,Improv_Melody,127,9999,9999,9999,2650378312
9324,14,Improv_Melody,128,9999,9999,9999,2650879056
9324,14,Improv_Melody,129,9999,9999,9999,2651378804
9324,14,Improv_Melody,130,9999,9999,9999,2651878484
9324,14,Improv_Melody,131,9999,9999,9999,2652378160
9324,14,Improv_Melody,132,9999,9999,9999,2652878944
9324,14,Improv_Melody,133,9999,9999,9999,2653378636
9324,14,Improv_Melody,134,9999,9999,9999,2653878372
9324,14,Improv_Melody,135,9999,9999,9999,2654379100
9324,14,Improv_Melody,136,9999,9999,9999,2654878776
9324,14,Improv_Melody,137,9999,9999,9999,2655378492
9324,14,Improv_Melody,138,9999,9999,9999,2655878264
9324,14,Improv_Melody,139,9999,9999,9999,2656378932
9324,14,Improv_Melody,140,9999,9999,9999,2656878708
9324,14,Improv_Melody,141,9999,9999,9999,2657378408
9324,14,Improv_Melody,142,9999,9999,9999,2657878108
9324,14,Improv_Melody,143,9999,9999,9999,2658378836
9324,14,Improv_Melody,144,9999,9999,9999,2658878560
9324,14,Improv_Melody,145,9999,9999,9999,2659378272
9324,14,Improv_Melody,146,9999,9999,9999,2659879020
9324,14,Improv_Melody,147,9999,9999,9999,2660378720
9324,14,Improv_Melody,148,9999,9999,9999,2660878412
9324,14,Improv_Melody,149,9999,9999,9999,2661378144
9324,14,Improv_Melody,150,9999,9999,9999,2661878860
9324,14,Improv_Melody,151,9999,9999,9999,2662378616
9324,14,Improv_Melody,152,9999,9999,9999,2662878280
9324,14,Improv_Melody,153,9999,9999,9999,2663379008
9324,14,Improv_Melody,154,9999,9999,9999,2663878752
9324,14,Improv_Melody,155,9999,9999,9999,2664378452
9324,14,Improv_Melody,156,9999,9999,9999,2664878160
9324,14,Improv_Melody,157,9999,9999,9999,2665378900
9324,14,Improv_Melody,158,9999,9999,9999,2665878604
9324,14,Improv_Melody,159,9999,9999,9999,2666378300
9324,14,Improv_Melody,160,9999,9999,9999,2666879052
9324,14,Improv_Melody,161,9999,9999,9999,2667378740
93