taskRunCount,taskID,taskName,i,channel,pitch,velocity,microseconds
1,1,Ticks_Pract_5,0,5,42,127,726359408
1,1,Ticks_Pract_5,1,5,42,127,726859052
1,1,Ticks_Pract_5,2,5,42,127,727358916
1,1,Ticks_Pract_5,3,1,48,40,727374300
1,1,Ticks_Pract_5,4,1,48,45,727857936
1,1,Ticks_Pract_5,5,5,42,127,727859356
1,1,Ticks_Pract_5,6,5,42,127,728359280
1,1,Ticks_Pract_5,7,1,48,38,728360244
1,1,Ticks_Pract_5,8,5,42,127,728859048
1,1,Ticks_Pract_5,9,1,48,39,728863216
1,1,Ticks_Pract_5,10,1,48,36,729351300
1,1,Ticks_Pract_5,11,5,42,127,729358740
1,1,Ticks_Pract_5,12,1,48,32,729844912
1,1,Ticks_Pract_5,13,5,42,127,729858436
1,1,Ticks_Pract_5,14,5,42,127,730359008
1,1,Ticks_Pract_5,15,1,48,36,730372696
1,1,Ticks_Pract_5,16,1,48,38,730854172
1,1,Ticks_Pract_5,17,5,42,127,730858920
1,1,Ticks_Pract_5,18,5,42,127,731358548
1,1,Ticks_Pract_5,19,1,48,37,731362260
1,1,Ticks_Pract_5,20,1,48,37,731816236
1,1,Ticks_Pract_5,21,5,42,127,731859428
1,1,Ticks_Pract_5,22,1,48,38,732345628
1,1,Ticks_Pract_5,23,5,42,127,732359124
1,1,Ticks_Pract_5,24,5,42,127,732858976
1,1,Ticks_Pract_5,25,1,48,35,732873608
1,1,Ticks_Pract_5,26,1,48,40,733325792
1,1,Ticks_Pract_5,27,5,42,127,733358516
1,1,Ticks_Pract_5,28,5,42,127,733859040
1,1,Ticks_Pract_5,29,1,48,31,733871728
1,1,Ticks_Pract_5,30,5,42,127,734359032
1,1,Ticks_Pract_5,31,1,48,39,734392140
1,1,Ticks_Pract_5,32,5,42,127,734858872
1,1,Ticks_Pract_5,33,1,48,38,734861472
1,1,Ticks_Pract_5,34,1,48,29,735321052
1,1,Ticks_Pract_5,35,5,42,127,735359312
1,1,Ticks_Pract_5,36,5,42,127,735858936
1,1,Ticks_Pract_5,37,1,48,30,735896384
1,1,Ticks_Pract_5,38,1,48,35,736337572
1,1,Ticks_Pract_5,39,5,42,127,736358924
1,1,Ticks_Pract_5,40,1,48,34,736830536
1,1,Ticks_Pract_5,41,5,42,127,736858468
1,1,Ticks_Pract_5,42,1,48,25,737342348
1,1,Ticks_Pract_5,43,5,42,127,737359064
1,1,Ticks_Pract_5,44,1,48,39,737810252
1,1,Ticks_Pract_5,45,5,42,127,737859056
1,1,Ticks_Pract_5,46,5,42,127,738358908
1,1,Ticks_Pract_5,47,1,48,27,738377812
1,1,Ticks_Pract_5,48,5,42,127,738859276
1,1,Ticks_Pract_5,49,1,48,33,738867632
1,1,Ticks_Pract_5,50,1,48,32,739354816
1,1,Ticks_Pract_5,51,5,42,127,739359040
1,1,Ticks_Pract_5,52,1,48,33,739856768
1,1,Ticks_Pract_5,53,5,42,127,739858880
1,1,Ticks_Pract_5,54,5,42,127,740358436
1,1,Ticks_Pract_5,55,1,48,30,740361552
1,1,Ticks_Pract_5,56,1,48,35,740853800
1,1,Ticks_Pract_5,57,5,42,127,740859144
1,1,Ticks_Pract_5,58,1,48,39,741317364
1,1,Ticks_Pract_5,59,5,42,127,741358912
1,1,Ticks_Pract_5,60,1,48,36,741825588
1,1,Ticks_Pract_5,61,5,42,127,741858904
1,1,Ticks_Pract_5,62,1,48,32,742321088
1,1,Ticks_Pract_5,63,5,42,127,742359572
1,1,Ticks_Pract_5,64,1,48,26,742819664
1,1,Ticks_Pract_5,65,5,42,127,742859044
1,1,Ticks_Pract_5,66,1,48,35,743307620
1,1,Ticks_Pract_5,67,5,42,127,743358816
1,1,Ticks_Pract_5,68,1,48,38,743830124
1,1,Ticks_Pract_5,69,5,42,127,743858732
1,1,Ticks_Pract_5,70,1,48,32,744356000
1,1,Ticks_Pract_5,71,5,42,127,744359176
1,1,Ticks_Pract_5,72,1,48,39,744853444
1,1,Ticks_Pract_5,73,5,42,127,744859092
1,1,Ticks_Pract_5,74,1,48,40,745351276
1,1,Ticks_Pract_5,75,5,42,127,745358788
1,1,Ticks_Pract_5,76,5,42,127,745858488
1,1,Ticks_Pract_5,77,1,48,38,745862728
1,1,Ticks_Pract_5,78,1,48,40,746351636
1,1,Ticks_Pract_5,0,9999,9999,9999,726357048
1,1,Ticks_Pract_5,1,9999,9999,9999,726856764
1,1,Ticks_Pract_5,2,9999,9999,9999,727356480
1,1,Ticks_Pract_5,3,9999,9999,9999,727856252
1,1,Ticks_Pract_5,4,9999,9999,9999,728356920
1,1,Ticks_Pract_5,5,9999,9999,9999,728856688
1,1,Ticks_Pract_5,6,9999,9999,9999,729356380
1,1,Ticks_Pract_5,7,9999,9999,9999,729856124
1,1,Ticks_Pract_5,8,9999,9999,9999,730356796
1,1,Ticks_Pract_5,9,9999,9999,9999,730856560
1,1,Ticks_Pract_5,10,9999,9999,9999,731356260
1,1,Ticks_Pract_5,11,9999,9999,9999,731856996
1,1,Ticks_Pract_5,12,9999,9999,9999,732356692
1,1,Ticks_Pract_5,13,9999,9999,9999,732856392
1,1,Ticks_Pract_5,14,9999,9999,9999,733356152
1,1,Ticks_Pract_5,15,9999,9999,9999,733856828
1,1,Ticks_Pract_5,16,9999,9999,9999,734356596
1,1,Ticks_Pract_5,17,9999,9999,9999,734856288
1,1,Ticks_Pract_5,18,9999,9999,9999,735357024
1,1,Ticks_Pract_5,19,9999,9999,9999,735856724
1,1,Ticks_Pract_5,20,9999,9999,9999,736356416
1,1,Ticks_Pract_5,21,9999,9999,9999,736856184
1,1,Ticks_Pract_5,22,9999,9999,9999,737356852
1,1,Ticks_Pract_5,23,9999,9999,9999,737856624
1,1,Ticks_Pract_5,24,9999,9999,9999,738356324
1,1,Ticks_Pract_5,25,9999,9999,9999,738857064
1,1,Ticks_Pract_5,26,9999,9999,9999,739356752
1,1,Ticks_Pract_5,27,9999,9999,9999,739856484
1,1,Ticks_Pract_5,28,9999,9999,9999,740356148
1,1,Ticks_Pract_5,29,9999,9999,9999,740856932
1,1,Ticks_Pract_5,30,9999,9999,9999,741356628
1,1,Ticks_Pract_5,31,9999,9999,9999,741856324
1,1,Ticks_Pract_5,32,9999,9999,9999,742357064
1,1,Ticks_Pract_5,33,9999,9999,9999,742856760
1,1,Ticks_Pract_5,34,9999,9999,9999,743356528
1,1,Ticks_Pract_5,35,9999,9999,9999,743856224
1,1,Ticks_Pract_5,36,9999,9999,9999,744356964
1,1,Ticks_Pract_5,37,9999,9999,9999,744856656
1,1,Ticks_Pract_5,38,9999,9999,9999,745356352
1,1,Ticks_Pract_5,39,9999,9999,9999,745856052
2,0,Ticks_Pract_8,0,5,42,127,775213448
2,0,Ticks_Pract_8,1,5,42,127,776013356
2,0,Ticks_Pract_8,2,5,42,127,776812812
2,0,Ticks_Pract_8,3,1,48,48,776843460
2,0,Ticks_Pract_8,4,5,42,127,777612620
2,0,Ticks_Pract_8,5,1,48,46,777674676
2,0,Ticks_Pract_8,6,5,42,127,778413548
2,0,Ticks_Pract_8,7,1,48,38,778601220
2,0,Ticks_Pract_8,8,5,42,127,779213280
2,0,Ticks_Pract_8,9,1,48,47,779278588
2,0,Ticks_Pract_8,10,5,42,127,780012868
2,0,Ticks_Pract_8,11,1,48,40,780049220
2,0,Ticks_Pract_8,12,5,42,127,780812624
2,0,Ticks_Pract_8,13,1,48,36,780825992
2,0,Ticks_Pract_8,14,5,42,127,781613408
2,0,Ticks_Pract_8,15,1,48,45,781641432
2,0,Ticks_Pract_8,16,1,48,42,782381908
2,0,Ticks_Pract_8,17,5,42,127,782413060
2,0,Ticks_Pract_8,18,5,42,127,783213020
2,0,Ticks_Pract_8,19,1,48,41,783223172
2,0,Ticks_Pract_8,20,5,42,127,784012608
2,0,Ticks_Pract_8,21,1,48,42,784049684
2,0,Ticks_Pract_8,22,5,42,127,784813388
2,0,Ticks_Pract_8,23,1,48,47,784828996
2,0,Ticks_Pract_8,24,1,48,45,785579868
2,0,Ticks_Pract_8,25,5,42,127,785613264
2,0,Ticks_Pract_8,26,1,48,39,786342652
2,0,Ticks_Pract_8,27,5,42,127,786412924
2,0,Ticks_Pract_8,28,5,42,127,787212688
2,0,Ticks_Pract_8,29,1,48,44,787229796
2,0,Ticks_Pract_8,30,1,48,44,787991288
2,0,Ticks_Pract_8,31,5,42,127,788013460
2,0,Ticks_Pract_8,32,1,48,49,788727944
2,0,Ticks_Pract_8,33,5,42,127,788813192
2,0,Ticks_Pract_8,34,5,42,127,789613156
2,0,Ticks_Pract_8,35,1,48,47,789643052
2,0,Ticks_Pract_8,36,5,42,127,790412592
2,0,Ticks_Pract_8,37,1,48,42,790436880
2,0,Ticks_Pract_8,38,1,48,41,791196128
2,0,Ticks_Pract_8,39,5,42,127,791213368
2,0,Ticks_Pract_8,40,1,48,34,791977464
2,0,Ticks_Pract_8,41,5,42,127,792013176
2,0,Ticks_Pract_8,42,1,48,47,792780632
2,0,Ticks_Pract_8,43,5,42,127,792813056
2,0,Ticks_Pract_8,44,5,42,127,793612524
2,0,Ticks_Pract_8,45,1,48,34,793624844
2,0,Ticks_Pract_8,46,1,48,41,794405040
2,0,Ticks_Pract_8,47,5,42,127,794413448
2,0,Ticks_Pract_8,48,1,48,38,795164680
2,0,Ticks_Pract_8,49,5,42,127,795213108
2,0,Ticks_Pract_8,50,1,48,40,796011028
2,0,Ticks_Pract_8,51,5,42,127,796012988
2,0,Ticks_Pract_8,52,1,48,40,796796604
2,0,Ticks_Pract_8,53,5,42,127,796812724
2,0,Ticks_Pract_8,54,1,48,42,797567620
2,0,Ticks_Pract_8,55,5,42,127,797613428
2,0,Ticks_Pract_8,56,1,48,45,798394352
2,0,Ticks_Pract_8,57,5,42,127,798413088
2,0,Ticks_Pract_8,0,9999,9999,9999,775211088
2,0,Ticks_Pract_8,1,9999,9999,9999,776010844
2,0,Ticks_Pract_8,2,9999,9999,9999,776810600
2,0,Ticks_Pract_8,3,9999,9999,9999,777610332
2,0,Ticks_Pract_8,4,9999,9999,9999,778411112
2,0,Ticks_Pract_8,5,9999,9999,9999,779210844
2,0,Ticks_Pract_8,6,9999,9999,9999,780010580
2,0,Ticks_Pract_8,7,9999,9999,9999,780810336
2,0,Ticks_Pract_8,8,9999,9999,9999,781611120
2,0,Ticks_Pract_8,9,9999,9999,9999,782410844
2,0,Ticks_Pract_8,10,9999,9999,9999,783210584
2,0,Ticks_Pract_8,11,9999,9999,9999,784010320
2,0,Ticks_Pract_8,12,9999,9999,9999,784811100
2,0,Ticks_Pract_8,13,9999,9999,9999,785610828
2,0,Ticks_Pract_8,14,9999,9999,9999,786410560
2,0,Ticks_Pract_8,15,9999,9999,9999,787210324
2,0,Ticks_Pract_8,16,9999,9999,9999,788011100
2,0,Ticks_Pract_8,17,9999,9999,9999,788810832
2,0,Ticks_Pract_8,18,9999,9999,9999,789610572
2,0,Ticks_Pract_8,19,9999,9999,9999,790410304
2,0,Ticks_Pract_8,20,9999,9999,9999,791211080
2,0,Ticks_Pract_8,21,9999,9999,9999,792010812
2,0,Ticks_Pract_8,22,9999,9999,9999,792810544
2,0,Ticks_Pract_8,23,9999,9999,9999,793610312
2,0,Ticks_Pract_8,24,9999,9999,9999,794411088
2,0,Ticks_Pract_8,25,9999,9999,9999,795210820
2,0,Ticks_Pract_8,26,9999,9999,9999,796010576
2,0,Ticks_Pract_8,27,9999,9999,9999,796810284
2,0,Ticks_Pract_8,28,9999,9999,9999,797611068
2,0,Ticks_Pract_8,29,9999,9999,9999,798410800
3,4,T1_SMS_5,0,5,42,127,887576792
3,4,T1_SMS_5,1,5,42,127,888076656
3,4,T1_SMS_5,2,1,48,33,888564260
3,4,T1_SMS_5,3,5,42,127,888577336
3,4,T1_SMS_5,4,1,48,44,889026032
3,4,T1_SMS_5,5,5,42,127,889077304
3,4,T1_SMS_5,6,1,48,35,889561332
3,4,T1_SMS_5,7,5,42,127,889576852
3,4,T1_SMS_5,8,1,48,37,890040608
3,4,T1_SMS_5,9,5,42,127,890076472
3,4,T1_SMS_5,10,1,48,41,890559152
3,4,T1_SMS_5,11,5,42,127,890577288
3,4,T1_SMS_5,12,1,48,41,891054508
3,4,T1_SMS_5,13,5,42,127,891076908
3,4,T1_SMS_5,14,1,48,33,891542836
3,4,T1_SMS_5,15,5,42,127,891576604
3,4,T1_SMS_5,16,1,48,38,892069308
3,4,T1_SMS_5,17,5,42,127,892077496
3,4,T1_SMS_5,18,1,48,35,892562416
3,4,T1_SMS_5,19,5,42,127,892577188
3,4,T1_SMS_5,20,1,48,35,893076668
3,4,T1_SMS_5,21,5,42,127,893078004
3,4,T1_SMS_5,22,1,48,33,893557024
3,4,T1_SMS_5,23,5,42,127,893576428
3,4,T1_SMS_5,24,1,48,35,894067864
3,4,T1_SMS_5,25,5,42,127,894077396
3,4,T1_SMS_5,26,1,48,32,894564036
3,4,T1_SMS_5,27,5,42,127,894576940
3,4,T1_SMS_5,28,1,48,39,895047576
3,4,T1_SMS_5,29,5,42,127,895076636
3,4,T1_SMS_5,30,1,48,40,895570532
3,4,T1_SMS_5,31,5,42,127,895576480
3,4,T1_SMS_5,32,5,42,127,896077300
3,4,T1_SMS_5,33,1,48,40,896091492
3,4,T1_SMS_5,34,5,42,127,896576920
3,4,T1_SMS_5,35,1,48,36,896596640
3,4,T1_SMS_5,36,5,42,127,897076468
3,4,T1_SMS_5,37,1,48,35,897079512
3,4,T1_SMS_5,38,1,48,36,897559664
3,4,T1_SMS_5,39,5,42,127,897577424
3,4,T1_SMS_5,40,1,48,36,898061604
3,4,T1_SMS_5,41,5,42,127,898077192
3,4,T1_SMS_5,42,1,48,39,898567056
3,4,T1_SMS_5,43,5,42,127,898576664
3,4,T1_SMS_5,44,1,48,32,899071164
3,4,T1_SMS_5,45,5,42,127,899076432
3,4,T1_SMS_5,46,1,48,38,899576856
3,4,T1_SMS_5,47,5,42,127,899578420
3,4,T1_SMS_5,48,5,42,127,900076976
3,4,T1_SMS_5,49,1,48,32,900081588
3,4,T1_SMS_5,50,1,48,37,900573712
3,4,T1_SMS_5,51,5,42,127,900576516
3,4,T1_SMS_5,52,1,48,40,901072064
3,4,T1_SMS_5,53,5,42,127,901077480
3,4,T1_SMS_5,54,1,48,34,901553952
3,4,T1_SMS_5,55,5,42,127,901577028
3,4,T1_SMS_5,56,1,48,43,902037872
3,4,T1_SMS_5,57,5,42,127,902076800
3,4,T1_SMS_5,58,1,48,42,902572496
3,4,T1_SMS_5,59,5,42,127,902576420
3,4,T1_SMS_5,60,1,48,43,903044216
3,4,T1_SMS_5,61,5,42,127,903077384
3,4,T1_SMS_5,62,5,42,127,903577308
3,4,T1_SMS_5,63,1,48,15,903594116
3,4,T1_SMS_5,64,1,48,47,904046144
3,4,T1_SMS_5,65,5,42,127,904076700
3,4,T1_SMS_5,66,1,48,43,904566032
3,4,T1_SMS_5,67,5,42,127,904577512
3,4,T1_SMS_5,68,1,48,47,905060648
3,4,T1_SMS_5,69,5,42,127,905077284
3,4,T1_SMS_5,70,1,48,38,905553532
3,4,T1_SMS_5,71,5,42,127,905576756
3,4,T1_SMS_5,72,1,48,42,906050308
3,4,T1_SMS_5,73,5,42,127,906076528
3,4,T1_SMS_5,74,1,48,39,906560632
3,4,T1_SMS_5,75,5,42,127,906577416
3,4,T1_SMS_5,76,1,48,40,907076440
3,4,T1_SMS_5,77,5,42,127,907078012
3,4,T1_SMS_5,78,5,42,127,907576744
3,4,T1_SMS_5,79,1,48,30,907581508
3,4,T1_SMS_5,80,1,48,36,908074972
3,4,T1_SMS_5,81,5,42,127,908077480
3,4,T1_SMS_5,82,1,48,46,908544600
3,4,T1_SMS_5,83,5,42,127,908577396
3,4,T1_SMS_5,84,5,42,127,909076800
3,4,T1_SMS_5,85,1,48,32,909082160
3,4,T1_SMS_5,86,5,42,127,909576496
3,4,T1_SMS_5,87,1,48,28,909583052
3,4,T1_SMS_5,88,1,48,32,910074128
3,4,T1_SMS_5,89,5,42,127,910077528
3,4,T1_SMS_5,90,1,48,27,910567068
3,4,T1_SMS_5,91,5,42,127,910577348
3,4,T1_SMS_5,92,1,48,36,911067512
3,4,T1_SMS_5,93,5,42,127,911076596
3,4,T1_SMS_5,94,1,48,29,911527560
3,4,T1_SMS_5,95,5,42,127,911576364
3,4,T1_SMS_5,96,1,48,36,912070188
3,4,T1_SMS_5,97,5,42,127,912077328
3,4,T1_SMS_5,98,1,48,43,912554176
3,4,T1_SMS_5,99,5,42,127,912576800
3,4,T1_SMS_5,100,1,48,46,913051704
3,4,T1_SMS_5,101,5,42,127,913076496
3,4,T1_SMS_5,102,1,48,47,913552968
3,4,T1_SMS_5,103,5,42,127,913577312
3,4,T1_SMS_5,104,1,48,37,914065376
3,4,T1_SMS_5,105,5,42,127,914077232
3,4,T1_SMS_5,106,1,48,37,914576180
3,4,T1_SMS_5,107,5,42,127,914577676
3,4,T1_SMS_5,108,1,48,38,915045092
3,4,T1_SMS_5,109,5,42,127,915076472
3,4,T1_SMS_5,110,1,48,36,915576692
3,4,T1_SMS_5,111,5,42,127,915578188
3,4,T1_SMS_5,112,5,42,127,916076916
3,4,T1_SMS_5,113,1,48,40,916081232
3,4,T1_SMS_5,114,5,42,127,916576536
3,4,T1_SMS_5,115,1,48,35,916580552
3,4,T1_SMS_5,116,1,48,41,917073864
3,4,T1_SMS_5,117,5,42,127,917077496
3,4,T1_SMS_5,118,1,48,40,917564360
3,4,T1_SMS_5,119,5,42,127,917577040
3,4,T1_SMS_5,120,1,48,38,918067124
3,4,T1_SMS_5,121,5,42,127,918076736
3,4,T1_SMS_5,122,1,48,40,918560388
3,4,T1_SMS_5,123,5,42,127,918576504
3,4,T1_SMS_5,124,1,48,40,919062628
3,4,T1_SMS_5,125,5,42,127,919077248
3,4,T1_SMS_5,126,1,48,47,919546760
3,4,T1_SMS_5,127,5,42,127,919576940
3,4,T1_SMS_5,128,1,48,36,920045380
3,4,T1_SMS_5,129,5,42,127,920076564
3,4,T1_SMS_5,130,1,48,42,920543288
3,4,T1_SMS_5,131,5,42,127,920577528
3,4,T1_SMS_5,132,1,48,46,921053076
3,4,T1_SMS_5,133,5,42,127,921077124
3,4,T1_SMS_5,134,1,48,41,921531456
3,4,T1_SMS_5,135,5,42,127,921576744
3,4,T1_SMS_5,136,1,48,46,922028608
3,4,T1_SMS_5,137,5,42,127,922076440
3,4,T1_SMS_5,138,1,48,43,922532416
3,4,T1_SMS_5,139,5,42,127,922577480
3,4,T1_SMS_5,140,1,48,39,923068984
3,4,T1_SMS_5,141,5,42,127,923077024
3,4,T1_SMS_5,142,1,48,45,923568904
3,4,T1_SMS_5,143,5,42,127,923576868
3,4,T1_SMS_5,144,1,48,36,924077172
3,4,T1_SMS_5,145,5,42,127,924078508
3,4,T1_SMS_5,146,5,42,127,924577164
3,4,T1_SMS_5,147,1,48,39,924579908
3,4,T1_SMS_5,148,5,42,127,925076932
3,4,T1_SMS_5,149,1,48,46,925082672
3,4,T1_SMS_5,150,5,42,127,925576552
3,4,T1_SMS_5,151,1,48,38,925586100
3,4,T1_SMS_5,152,5,42,127,926077296
3,4,T1_SMS_5,153,1,48,29,926078260
3,4,T1_SMS_5,154,1,48,28,926568272
3,4,T1_SMS_5,155,5,42,127,926576984
3,4,T1_SMS_5,156,1,48,35,927050916
3,4,T1_SMS_5,157,5,42,127,927076680
3,4,T1_SMS_5,158,1,48,37,927549408
3,4,T1_SMS_5,159,5,42,127,927576300
3,4,T1_SMS_5,160,1,48,41,928049028
3,4,T1_SMS_5,161,5,42,127,928077116
3,4,T1_SMS_5,162,1,48,46,928544012
3,4,T1_SMS_5,163,5,42,127,928576884
3,4,T1_SMS_5,164,5,42,127,929076588
3,4,T1_SMS_5,165,1,48,34,929092416
3,4,T1_SMS_5,166,1,48,38,929576568
3,4,T1_SMS_5,167,5,42,127,929578216
3,4,T1_SMS_5,168,1,48,45,930057908
3,4,T1_SMS_5,169,5,42,127,930076940
3,4,T1_SMS_5,170,1,48,46,930563288
3,4,T1_SMS_5,171,5,42,127,930576784
3,4,T1_SMS_5,172,5,42,127,931076412
3,4,T1_SMS_5,173,1,48,13,931110792
3,4,T1_SMS_5,174,1,48,40,931543056
3,4,T1_SMS_5,175,5,42,127,931577220
3,4,T1_SMS_5,176,1,48,41,932047684
3,4,T1_SMS_5,177,5,42,127,932076968
3,4,T1_SMS_5,178,1,48,39,932568104
3,4,T1_SMS_5,179,5,42,127,932576588
3,4,T1_SMS_5,180,1,48,40,933057396
3,4,T1_SMS_5,181,5,42,127,933077328
3,4,T1_SMS_5,182,1,48,43,933570856
3,4,T1_SMS_5,183,5,42,127,933577172
3,4,T1_SMS_5,184,1,48,47,934076124
3,4,T1_SMS_5,185,5,42,127,934077468
3,4,T1_SMS_5,186,5,42,127,934576424
3,4,T1_SMS_5,187,1,48,31,934580136
3,4,T1_SMS_5,188,1,48,47,935067776
3,4,T1_SMS_5,189,5,42,127,935077304
3,4,T1_SMS_5,190,1,48,47,935567396
3,4,T1_SMS_5,191,5,42,127,935576928
3,4,T1_SMS_5,192,1,48,44,936061252
3,4,T1_SMS_5,193,5,42,127,936076772
3,4,T1_SMS_5,194,1,48,45,936532892
3,4,T1_SMS_5,195,5,42,127,936577364
3,4,T1_SMS_5,196,1,48,34,937075088
3,4,T1_SMS_5,197,5,42,127,937077060
3,4,T1_SMS_5,198,5,42,127,937576908
3,4,T1_SMS_5,199,1,48,46,937577872
3,4,T1_SMS_5,200,1,48,29,938065944
3,4,T1_SMS_5,201,5,42,127,938076600
3,4,T1_SMS_5,202,1,48,39,938565040
3,4,T1_SMS_5,203,5,42,127,938577268
3,4,T1_SMS_5,204,5,42,127,939076968
3,4,T1_SMS_5,205,1,48,48,939078528
3,4,T1_SMS_5,206,1,48,34,939550144
3,4,T1_SMS_5,207,5,42,127,939576808
3,4,T1_SMS_5,208,5,42,127,940077556
3,4,T1_SMS_5,209,1,48,20,940081120
3,4,T1_SMS_5,210,1,48,30,940553044
3,4,T1_SMS_5,211,5,42,127,940577240
3,4,T1_SMS_5,212,1,48,27,941059252
3,4,T1_SMS_5,213,5,42,127,941076936
3,4,T1_SMS_5,214,1,48,28,941557348
3,4,T1_SMS_5,215,5,42,127,941576556
3,4,T1_SMS_5,216,1,48,38,942044476
3,4,T1_SMS_5,217,5,42,127,942077224
3,4,T1_SMS_5,218,1,48,35,942571628
3,4,T1_SMS_5,219,5,42,127,942576972
3,4,T1_SMS_5,220,1,48,39,943060024
3,4,T1_SMS_5,221,5,42,127,943077036
3,4,T1_SMS_5,222,5,42,127,943576292
3,4,T1_SMS_5,223,1,48,27,943589436
3,4,T1_SMS_5,224,5,42,127,944077180
3,4,T1_SMS_5,225,1,48,28,944080300
3,4,T1_SMS_5,226,5,42,127,944576948
3,4,T1_SMS_5,227,1,48,32,944595548
3,4,T1_SMS_5,228,5,42,127,945076868
3,4,T1_SMS_5,229,1,48,45,945077836
3,4,T1_SMS_5,230,1,48,42,945570612
3,4,T1_SMS_5,231,5,42,127,945577456
3,4,T1_SMS_5,232,1,48,38,946053628
3,4,T1_SMS_5,233,5,42,127,946077076
3,4,T1_SMS_5,234,1,48,41,946551904
3,4,T1_SMS_5,235,5,42,127,946576920
3,4,T1_SMS_5,236,1,48,38,947057212
3,4,T1_SMS_5,237,5,42,127,947076616
3,4,T1_SMS_5,238,1,48,43,947548456
3,4,T1_SMS_5,239,5,42,127,947577208
3,4,T1_SMS_5,240,1,48,39,948038276
3,4,T1_SMS_5,241,5,42,127,948076904
3,4,T1_SMS_5,242,5,42,127,948576828
3,4,T1_SMS_5,243,1,48,19,948603208
3,4,T1_SMS_5,244,1,48,40,949075528
3,4,T1_SMS_5,245,5,42,127,949077268
3,4,T1_SMS_5,246,1,48,43,949553588
3,4,T1_SMS_5,247,5,42,127,949577188
3,4,T1_SMS_5,248,1,48,44,950055600
3,4,T1_SMS_5,249,5,42,127,950076880
3,4,T1_SMS_5,250,1,48,47,950546472
3,4,T1_SMS_5,251,5,42,127,950576724
3,4,T1_SMS_5,252,1,48,47,951065764
3,4,T1_SMS_5,253,5,42,127,951077168
3,4,T1_SMS_5,254,5,42,127,951576944
3,4,T1_SMS_5,255,1,48,45,951582832
3,4,T1_SMS_5,256,1,48,45,952053160
3,4,T1_SMS_5,257,5,42,127,952076784
3,4,T1_SMS_5,258,1,48,42,952550464
3,4,T1_SMS_5,0,9999,9999,9999,887574576
3,4,T1_SMS_5,1,9999,9999,9999,888074292
3,4,T1_SMS_5,2,9999,9999,9999,888575048
3,4,T1_SMS_5,3,9999,9999,9999,889074792
3,4,T1_SMS_5,4,9999,9999,9999,889574488
3,4,T1_SMS_5,5,9999,9999,9999,890074184
3,4,T1_SMS_5,6,9999,9999,9999,890574924
3,4,T1_SMS_5,7,9999,9999,9999,891074620
3,4,T1_SMS_5,8,9999,9999,9999,891574388
3,4,T1_SMS_5,9,9999,9999,9999,892075056
3,4,T1_SMS_5,10,9999,9999,9999,892574824
3,4,T1_SMS_5,11,9999,9999,9999,893074528
3,4,T1_SMS_5,12,9999,9999,9999,893574212
3,4,T1_SMS_5,13,9999,9999,9999,894074956
3,4,T1_SMS_5,14,9999,9999,9999,894574652
3,4,T1_SMS_5,15,9999,9999,9999,895074420
3,4,T1_SMS_5,16,9999,9999,9999,895574116
3,4,T1_SMS_5,17,9999,9999,9999,896074864
3,4,T1_SMS_5,18,9999,9999,9999,896574556
3,4,T1_SMS_5,19,9999,9999,9999,897074252
3,4,T1_SMS_5,20,9999,9999,9999,897574984
3,4,T1_SMS_5,21,9999,9999,9999,898074680
3,4,T1_SMS_5,22,9999,9999,9999,898574448
3,4,T1_SMS_5,23,9999,9999,9999,899074144
3,4,T1_SMS_5,24,9999,9999,9999,899574868
3,4,T1_SMS_5,25,9999,9999,9999,900074612
3,4,T1_SMS_5,26,9999,9999,9999,900574300
3,4,T1_SMS_5,27,9999,9999,9999,901075044
3,4,T1_SMS_5,28,9999,9999,9999,901574740
3,4,T1_SMS_5,29,9999,9999,9999,902074436
3,4,T1_SMS_5,30,9999,9999,9999,902574132
3,4,T1_SMS_5,31,9999,9999,9999,903074872
3,4,T1_SMS_5,32,9999,9999,9999,903574644
3,4,T1_SMS_5,33,9999,9999,9999,904074336
3,4,T1_SMS_5,34,9999,9999,9999,904575076
3,4,T1_SMS_5,35,9999,9999,9999,905074772
3,4,T1_SMS_5,36,9999,9999,9999,905574468
3,4,T1_SMS_5,37,9999,9999,9999,906074160
3,4,T1_SMS_5,38,9999,9999,9999,906574904
3,4,T1_SMS_5,39,9999,9999,9999,907074680
3,4,T1_SMS_5,40,9999,9999,9999,907574376
3,4,T1_SMS_5,41,9999,9999,9999,908075116
3,4,T1_SMS_5,42,9999,9999,9999,908574808
3,4,T1_SMS_5,43,9999,9999,9999,909074512
3,4,T1_SMS_5,44,9999,9999,9999,909574204
3,4,T1_SMS_5,45,9999,9999,9999,910074940
3,4,T1_SMS_5,46,9999,9999,9999,910574684
3,4,T1_SMS_5,47,9999,9999,9999,911074380
3,4,T1_SMS_5,48,9999,9999,9999,911574076
3,4,T1_SMS_5,49,9999,9999,9999,912074816
3,4,T1_SMS_5,50,9999,9999,9999,912574584
3,4,T1_SMS_5,51,9999,9999,9999,913074284
3,4,T1_SMS_5,52,9999,9999,9999,913575024
3,4,T1_SMS_5,53,9999,9999,9999,914074720
3,4,T1_SMS_5,54,9999,9999,9999,914574420
3,4,T1_SMS_5,55,9999,9999,9999,915074108
3,4,T1_SMS_5,56,9999,9999,9999,915574856
3,4,T1_SMS_5,57,9999,9999,9999,916074552
3,4,T1_SMS_5,58,9999,9999,9999,916574320
3,4,T1_SMS_5,59,9999,9999,9999,917075056
3,4,T1_SMS_5,60,9999,9999,9999,917574748
3,4,T1_SMS_5,61,9999,9999,9999,918074444
3,4,T1_SMS_5,62,9999,9999,9999,918574140
3,4,T1_SMS_5,63,9999,9999,9999,919074880
3,4,T1_SMS_5,64,9999,9999,9999,919574576
3,4,T1_SMS_5,65,9999,9999,9999,920074348
3,4,T1_SMS_5,66,9999,9999,9999,920575088
3,4,T1_SMS_5,67,9999,9999,9999,921074760
3,4,T1_SMS_5,68,9999,9999,9999,921574452
3,4,T1_SMS_5,69,9999,9999,9999,922074224
3,4,T1_SMS_5,70,9999,9999,9999,922574964
3,4,T1_SMS_5,71,9999,9999,9999,923074660
3,4,T1_SMS_5,72,9999,9999,9999,923574356
3,4,T1_SMS_5,73,9999,9999,9999,924075104
3,4,T1_SMS_5,74,9999,9999,9999,924574800
3,4,T1_SMS_5,75,9999,9999,9999,925074492
3,4,T1_SMS_5,76,9999,9999,9999,925574264
3,4,T1_SMS_5,77,9999,9999,9999,926074932
3,4,T1_SMS_5,78,9999,9999,9999,926574696
3,4,T1_SMS_5,79,9999,9999,9999,927074388
3,4,T1_SMS_5,80,9999,9999,9999,927574084
3,4,T1_SMS_5,81,9999,9999,9999,928074828
3,4,T1_SMS_5,82,9999,9999,9999,928574520
3,4,T1_SMS_5,83,9999,9999,9999,929074296
3,4,T1_SMS_5,84,9999,9999,9999,929574964
3,4,T1_SMS_5,85,9999,9999,9999,930074724
3,4,T1_SMS_5,86,9999,9999,9999,930574420
3,4,T1_SMS_5,87,9999,9999,9999,931074120
3,4,T1_SMS_5,88,9999,9999,9999,931574832
3,4,T1_SMS_5,89,9999,9999,9999,932074604
3,4,T1_SMS_5,90,9999,9999,9999,932574296
3,4,T1_SMS_5,91,9999,9999,9999,933075040
3,4,T1_SMS_5,92,9999,9999,9999,933574732
3,4,T1_SMS_5,93,9999,9999,9999,934074436
3,4,T1_SMS_5,94,9999,9999,9999,934574132
3,4,T1_SMS_5,95,9999,9999,9999,935074868
3,4,T1_SMS_5,96,9999,9999,9999,935574636
3,4,T1_SMS_5,97,9999,9999,9999,936074332
3,4,T1_SMS_5,98,9999,9999,9999,936575072
3,4,T1_SMS_5,99,9999,9999,9999,937074800
3,4,T1_SMS_5,100,9999,9999,9999,937574468
3,4,T1_SMS_5,101,9999,9999,9999,938074160
3,4,T1_SMS_5,102,9999,9999,9999,938574904
3,4,T1_SMS_5,103,9999,9999,9999,939074676
3,4,T1_SMS_5,104,9999,9999,9999,939574368
3,4,T1_SMS_5,105,9999,9999,9999,940075116
3,4,T1_SMS_5,106,9999,9999,9999,940574804
3,4,T1_SMS_5,107,9999,9999,9999,941074500
3,4,T1_SMS_5,108,9999,9999,9999,941574192
3,4,T1_SMS_5,109,9999,9999,9999,942074936
3,4,T1_SMS_5,110,9999,9999,9999,942574680
3,4,T1_SMS_5,111,9999,9999,9999,943074376
3,4,T1_SMS_5,112,9999,9999,9999,943574076
3,4,T1_SMS_5,113,9999,9999,9999,944074816
3,4,T1_SMS_5,114,9999,9999,9999,944574584
3,4,T1_SMS_5,115,9999,9999,9999,945074280
3,4,T1_SMS_5,116,9999,9999,9999,945575016
3,4,T1_SMS_5,117,9999,9999,9999,946074712
3,4,T1_SMS_5,118,9999,9999,9999,946574408
3,4,T1_SMS_5,119,9999,9999,9999,947074104
3,4,T1_SMS_5,120,9999,9999,9999,947574844
3,4,T1_SMS_5,121,9999,9999,9999,948074616
3,4,T1_SMS_5,122,9999,9999,9999,948574316
3,4,T1_SMS_5,123,9999,9999,9999,949075000
3,4,T1_SMS_5,124,9999,9999,9999,949574748
3,4,T1_SMS_5,125,9999,9999,9999,950074444
3,4,T1_SMS_5,126,9999,9999,9999,950574136
3,4,T1_SMS_5,127,9999,9999,9999,951074880
3,4,T1_SMS_5,128,9999,9999,9999,951574580
3,4,T1_SMS_5,129,9999,9999,9999,952074344
4,2,T1_SMS_8,0,5,42,127,1010264400
4,2,T1_SMS_8,1,5,42,127,1011064152
4,2,T1_SMS_8,2,5,42,127,1011863984
4,2,T1_SMS_8,3,1,48,57,1011883856
4,2,T1_SMS_8,4,5,42,127,1012663716
4,2,T1_SMS_8,5,1,48,50,1012727672
4,2,T1_SMS_8,6,5,42,127,1013464644
4,2,T1_SMS_8,7,1,48,48,1013540788
4,2,T1_SMS_8,8,1,48,46,1014253564
4,2,T1_SMS_8,9,5,42,127,1014264096
4,2,T1_SMS_8,10,5,42,127,1015063912
4,2,T1_SMS_8,11,1,48,46,1015080124
4,2,T1_SMS_8,12,5,42,127,1015863792
4,2,T1_SMS_8,13,1,48,43,1015904612
4,2,T1_SMS_8,14,5,42,127,1016664276
4,2,T1_SMS_8,15,1,48,47,1016692904
4,2,T1_SMS_8,16,5,42,127,1017464084
4,2,T1_SMS_8,17,1,48,46,1017485076
4,2,T1_SMS_8,18,5,42,127,1018263964
4,2,T1_SMS_8,19,1,48,46,1018294760
4,2,T1_SMS_8,20,5,42,127,1019063848
4,2,T1_SMS_8,21,1,48,51,1019093000
4,2,T1_SMS_8,22,5,42,127,1019864628
4,2,T1_SMS_8,23,1,48,43,1019902184
4,2,T1_SMS_8,24,1,48,37,1020656320
4,2,T1_SMS_8,25,5,42,127,1020664304
4,2,T1_SMS_8,26,1,48,45,1021457948
4,2,T1_SMS_8,27,5,42,127,1021463816
4,2,T1_SMS_8,28,1,48,46,1022242720
4,2,T1_SMS_8,29,5,42,127,1022263772
4,2,T1_SMS_8,30,1,48,44,1023054200
4,2,T1_SMS_8,31,5,42,127,1023064404
4,2,T1_SMS_8,32,1,48,45,1023823488
4,2,T1_SMS_8,33,5,42,127,1023864064
4,2,T1_SMS_8,34,1,48,48,1024636460
4,2,T1_SMS_8,35,5,42,127,1024664024
4,2,T1_SMS_8,36,5,42,127,1025463760
4,2,T1_SMS_8,37,1,48,42,1025498300
4,2,T1_SMS_8,38,1,48,32,1026252680
4,2,T1_SMS_8,39,5,42,127,1026264536
4,2,T1_SMS_8,40,1,48,44,1027025116
4,2,T1_SMS_8,41,5,42,127,1027064144
4,2,T1_SMS_8,42,1,48,44,1027818340
4,2,T1_SMS_8,43,5,42,127,1027863800
4,2,T1_SMS_8,44,1,48,34,1028655276
4,2,T1_SMS_8,45,5,42,127,1028663612
4,2,T1_SMS_8,46,1,48,29,1029379908
4,2,T1_SMS_8,47,5,42,127,1029464388
4,2,T1_SMS_8,48,1,48,46,1030235444
4,2,T1_SMS_8,49,5,42,127,1030264196
4,2,T1_SMS_8,50,5,42,127,1031063788
4,2,T1_SMS_8,51,1,48,41,1031071692
4,2,T1_SMS_8,52,5,42,127,1031863596
4,2,T1_SMS_8,53,1,48,38,1031889528
4,2,T1_SMS_8,54,5,42,127,1032664600
4,2,T1_SMS_8,55,1,48,40,1032700136
4,2,T1_SMS_8,56,1,48,33,1033453076
4,2,T1_SMS_8,57,5,42,127,1033464128
4,2,T1_SMS_8,58,1,48,54,1034247672
4,2,T1_SMS_8,59,5,42,127,1034263788
4,2,T1_SMS_8,60,1,48,51,1035036332
4,2,T1_SMS_8,61,5,42,127,1035063520
4,2,T1_SMS_8,62,1,48,49,1035856264
4,2,T1_SMS_8,63,5,42,127,1035864600
4,2,T1_SMS_8,64,1,48,42,1036617032
4,2,T1_SMS_8,65,5,42,127,1036664036
4,2,T1_SMS_8,66,5,42,127,1037463776
4,2,T1_SMS_8,67,1,48,35,1037502272
4,2,T1_SMS_8,68,1,48,36,1038249332
4,2,T1_SMS_8,69,5,42,127,1038263800
4,2,T1_SMS_8,70,1,48,37,1039018400
4,2,T1_SMS_8,71,5,42,127,1039064504
4,2,T1_SMS_8,72,5,42,127,1039864196
4,2,T1_SMS_8,73,1,48,46,1039877788
4,2,T1_SMS_8,74,5,42,127,1040663932
4,2,T1_SMS_8,75,1,48,28,1040683208
4,2,T1_SMS_8,76,5,42,127,1041463516
4,2,T1_SMS_8,77,1,48,33,1041511284
4,2,T1_SMS_8,78,1,48,36,1042244132
4,2,T1_SMS_8,79,5,42,127,1042264512
4,2,T1_SMS_8,80,1,48,39,1043014772
4,2,T1_SMS_8,81,5,42,127,1043064392
4,2,T1_SMS_8,82,1,48,43,1043812108
4,2,T1_SMS_8,83,5,42,127,1043863904
4,2,T1_SMS_8,84,5,42,127,1044663792
4,2,T1_SMS_8,85,1,48,41,1044686136
4,2,T1_SMS_8,86,1,48,42,1045432448
4,2,T1_SMS_8,87,5,42,127,1045464416
4,2,T1_SMS_8,88,1,48,43,1046246616
4,2,T1_SMS_8,89,5,42,127,1046264396
4,2,T1_SMS_8,90,1,48,34,1047017480
4,2,T1_SMS_8,91,5,42,127,1047063980
4,2,T1_SMS_8,92,1,48,42,1047820148
4,2,T1_SMS_8,93,5,42,127,1047863788
4,2,T1_SMS_8,94,1,48,42,1048576052
4,2,T1_SMS_8,95,5,42,127,1048664420
4,2,T1_SMS_8,96,1,48,51,1049456192
4,2,T1_SMS_8,97,5,42,127,1049464376
4,2,T1_SMS_8,98,1,48,43,1050231916
4,2,T1_SMS_8,99,5,42,127,1050263812
4,2,T1_SMS_8,100,1,48,40,1051035688
4,2,T1_SMS_8,101,5,42,127,1051063544
4,2,T1_SMS_8,102,1,48,46,1051849932
4,2,T1_SMS_8,103,5,42,127,1051864324
4,2,T1_SMS_8,104,5,42,127,1052664164
4,2,T1_SMS_8,105,1,48,43,1052697204
4,2,T1_SMS_8,106,1,48,48,1053458248
4,2,T1_SMS_8,107,5,42,127,1053464188
4,2,T1_SMS_8,108,5,42,127,1054263708
4,2,T1_SMS_8,109,1,48,39,1054299664
4,2,T1_SMS_8,110,5,42,127,1055064340
4,2,T1_SMS_8,111,1,48,35,1055065676
4,2,T1_SMS_8,112,1,48,39,1055833144
4,2,T1_SMS_8,113,5,42,127,1055864140
4,2,T1_SMS_8,114,1,48,37,1056656812
4,2,T1_SMS_8,115,5,42,127,1056663800
4,2,T1_SMS_8,116,1,48,44,1057423484
4,2,T1_SMS_8,117,5,42,127,1057463532
4,2,T1_SMS_8,118,1,48,43,1058252684
4,2,T1_SMS_8,119,5,42,127,1058264388
4,2,T1_SMS_8,120,5,42,127,1059064076
4,2,T1_SMS_8,121,1,48,42,1059069144
4,2,T1_SMS_8,122,5,42,127,1059863884
4,2,T1_SMS_8,123,1,48,35,1059865824
4,2,T1_SMS_8,124,1,48,43,1060622140
4,2,T1_SMS_8,125,5,42,127,1060663612
4,2,T1_SMS_8,126,1,48,53,1061454632
4,2,T1_SMS_8,127,5,42,127,1061464392
4,2,T1_SMS_8,128,1,48,51,1062233948
4,2,T1_SMS_8,129,5,42,127,1062264276
4,2,T1_SMS_8,130,5,42,127,1063064088
4,2,T1_SMS_8,131,1,48,33,1063089576
4,2,T1_SMS_8,132,1,48,54,1063791228
4,2,T1_SMS_8,133,5,42,127,1063863592
4,2,T1_SMS_8,134,1,48,51,1064622752
4,2,T1_SMS_8,135,5,42,127,1064664300
4,2,T1_SMS_8,136,1,48,44,1065458716
4,2,T1_SMS_8,137,5,42,127,1065464132
4,2,T1_SMS_8,138,1,48,47,1066255224
4,2,T1_SMS_8,139,5,42,127,1066264012
4,2,T1_SMS_8,140,1,48,45,1067038580
4,2,T1_SMS_8,141,5,42,127,1067063520
4,2,T1_SMS_8,142,1,48,44,1067848116
4,2,T1_SMS_8,143,5,42,127,1067864380
4,2,T1_SMS_8,144,5,42,127,1068664192
4,2,T1_SMS_8,145,1,48,47,1068665980
4,2,T1_SMS_8,146,5,42,127,1069463852
4,2,T1_SMS_8,147,1,48,45,1069475948
4,2,T1_SMS_8,148,1,48,46,1070261220
4,2,T1_SMS_8,149,5,42,127,1070263876
4,2,T1_SMS_8,150,1,48,46,1071059464
4,2,T1_SMS_8,151,5,42,127,1071064284
4,2,T1_SMS_8,152,5,42,127,1071864196
4,2,T1_SMS_8,153,1,48,31,1071924084
4,2,T1_SMS_8,154,1,48,38,1072652304
4,2,T1_SMS_8,155,5,42,127,1072663852
4,2,T1_SMS_8,156,5,42,127,1073463592
4,2,T1_SMS_8,157,1,48,19,1073465076
4,2,T1_SMS_8,158,1,48,54,1074223272
4,2,T1_SMS_8,159,5,42,127,1074264368
4,2,T1_SMS_8,160,1,48,47,1075029660
4,2,T1_SMS_8,161,5,42,127,1075064100
4,2,T1_SMS_8,162,5,42,127,1075864060
4,2,T1_SMS_8,163,1,48,41,1075868908
4,2,T1_SMS_8,164,5,42,127,1076663724
4,2,T1_SMS_8,165,1,48,47,1076671032
4,2,T1_SMS_8,166,5,42,127,1077464280
4,2,T1_SMS_8,167,1,48,49,1077500936
4,2,T1_SMS_8,168,1,48,36,1078241460
4,2,T1_SMS_8,169,5,42,127,1078264032
4,2,T1_SMS_8,170,1,48,39,1079054680
4,2,T1_SMS_8,171,5,42,127,1079064136
4,2,T1_SMS_8,172,1,48,51,1079830928
4,2,T1_SMS_8,173,5,42,127,1079863796
4,2,T1_SMS_8,174,1,48,47,1080626624
4,2,T1_SMS_8,175,5,42,127,1080664352
4,2,T1_SMS_8,176,1,48,41,1081430100
4,2,T1_SMS_8,177,5,42,127,1081464160
4,2,T1_SMS_8,178,1,48,42,1082255708
4,2,T1_SMS_8,179,5,42,127,1082264120
4,2,T1_SMS_8,180,1,48,37,1083037120
4,2,T1_SMS_8,181,5,42,127,1083063928
4,2,T1_SMS_8,182,1,48,54,1083852480
4,2,T1_SMS_8,183,5,42,127,1083864632
4,2,T1_SMS_8,184,5,42,127,1084664172
4,2,T1_SMS_8,185,1,48,46,1084666764
4,2,T1_SMS_8,186,5,42,127,1085463908
4,2,T1_SMS_8,187,1,48,36,1085476076
4,2,T1_SMS_8,188,5,42,127,1086263936
4,2,T1_SMS_8,189,1,48,48,1086285232
4,2,T1_SMS_8,190,1,48,40,1087037152
4,2,T1_SMS_8,191,5,42,127,1087064484
4,2,T1_SMS_8,192,1,48,48,1087836888
4,2,T1_SMS_8,193,5,42,127,1087864144
4,2,T1_SMS_8,194,1,48,45,1088585908
4,2,T1_SMS_8,195,5,42,127,1088663880
4,2,T1_SMS_8,196,1,48,49,1089459244
4,2,T1_SMS_8,197,5,42,127,1089463984
4,2,T1_SMS_8,198,5,42,127,1090264548
4,2,T1_SMS_8,199,1,48,43,1090280384
4,2,T1_SMS_8,200,1,48,44,1091062192
4,2,T1_SMS_8,201,5,42,127,1091064076
4,2,T1_SMS_8,202,5,42,127,1091863892
4,2,T1_SMS_8,203,1,48,56,1091872320
4,2,T1_SMS_8,204,1,48,54,1092645184
4,2,T1_SMS_8,205,5,42,127,1092663768
4,2,T1_SMS_8,206,5,42,127,1093464552
4,2,T1_SMS_8,207,1,48,52,1093473656
4,2,T1_SMS_8,208,1,48,43,1094264064
4,2,T1_SMS_8,209,5,42,127,1094265400
4,2,T1_SMS_8,210,1,48,44,1095060316
4,2,T1_SMS_8,211,5,42,127,1095063940
4,2,T1_SMS_8,212,5,42,127,1095863604
4,2,T1_SMS_8,213,1,48,43,1095870240
4,2,T1_SMS_8,214,5,42,127,1096664608
4,2,T1_SMS_8,215,1,48,41,1096694680
4,2,T1_SMS_8,216,1,48,44,1097435728
4,2,T1_SMS_8,217,5,42,127,1097464212
4,2,T1_SMS_8,218,1,48,39,1098245364
4,2,T1_SMS_8,219,5,42,127,1098263796
4,2,T1_SMS_8,220,1,48,52,1099030664
4,2,T1_SMS_8,221,5,42,127,1099063604
4,2,T1_SMS_8,222,1,48,52,1099851788
4,2,T1_SMS_8,223,5,42,127,1099864608
4,2,T1_SMS_8,224,1,48,48,1100634984
4,2,T1_SMS_8,225,5,42,127,1100664116
4,2,T1_SMS_8,226,1,48,49,1101394480
4,2,T1_SMS_8,227,5,42,127,1101463852
4,2,T1_SMS_8,228,1,48,51,1102209252
4,2,T1_SMS_8,229,5,42,127,1102263584
4,2,T1_SMS_8,230,1,48,46,1103014292
4,2,T1_SMS_8,231,5,42,127,1103064664
4,2,T1_SMS_8,232,1,48,40,1103851276
4,2,T1_SMS_8,233,5,42,127,1103864272
4,2,T1_SMS_8,234,5,42,127,1104663940
4,2,T1_SMS_8,235,1,48,42,1104665572
4,2,T1_SMS_8,236,1,48,56,1105442760
4,2,T1_SMS_8,237,5,42,127,1105463516
4,2,T1_SMS_8,238,1,48,37,1106238456
4,2,T1_SMS_8,0,9999,9999,9999,1010262112
4,2,T1_SMS_8,1,9999,9999,9999,1011061864
4,2,T1_SMS_8,2,9999,9999,9999,1011861620
4,2,T1_SMS_8,3,9999,9999,9999,1012661352
4,2,T1_SMS_8,4,9999,9999,9999,1013462132
4,2,T1_SMS_8,5,9999,9999,9999,1014261808
4,2,T1_SMS_8,6,9999,9999,9999,1015061624
4,2,T1_SMS_8,7,9999,9999,9999,1015861356
4,2,T1_SMS_8,8,9999,9999,9999,1016662064
4,2,T1_SMS_8,9,9999,9999,9999,1017461868
4,2,T1_SMS_8,10,9999,9999,9999,1018261604
4,2,T1_SMS_8,11,9999,9999,9999,1019061336
4,2,T1_SMS_8,12,9999,9999,9999,1019862116
4,2,T1_SMS_8,13,9999,9999,9999,1020661868
4,2,T1_SMS_8,14,9999,9999,9999,1021461604
4,2,T1_SMS_8,15,9999,9999,9999,1022261336
4,2,T1_SMS_8,16,9999,9999,9999,1023062116
4,2,T1_SMS_8,17,9999,9999,9999,1023861852
4,2,T1_SMS_8,18,9999,9999,9999,1024661584
4,2,T1_SMS_8,19,9999,9999,9999,1025461324
4,2,T1_SMS_8,20,9999,9999,9999,1026262100
4,2,T1_SMS_8,21,9999,9999,9999,1027061856
4,2,T1_SMS_8,22,9999,9999,9999,1027861588
4,2,T1_SMS_8,23,9999,9999,9999,1028661324
4,2,T1_SMS_8,24,9999,9999,9999,1029462100
4,2,T1_SMS_8,25,9999,9999,9999,1030261836
4,2,T1_SMS_8,26,9999,9999,9999,1031061576
4,2,T1_SMS_8,27,9999,9999,9999,1031861308
4,2,T1_SMS_8,28,9999,9999,9999,1032662088
4,2,T1_SMS_8,29,9999,9999,9999,1033461840
4,2,T1_SMS_8,30,9999,9999,9999,1034261572
4,2,T1_SMS_8,31,9999,9999,9999,1035061308
4,2,T1_SMS_8,32,9999,9999,9999,1035862088
4,2,T1_SMS_8,33,9999,9999,9999,1036661824
4,2,T1_SMS_8,34,9999,9999,9999,1037461560
4,2,T1_SMS_8,35,9999,9999,9999,1038261364
4,2,T1_SMS_8,36,9999,9999,9999,1039062068
4,2,T1_SMS_8,37,9999,9999,9999,1039861836
4,2,T1_SMS_8,38,9999,9999,9999,1040661568
4,2,T1_SMS_8,39,9999,9999,9999,1041461300
4,2,T1_SMS_8,40,9999,9999,9999,1042262076
4,2,T1_SMS_8,41,9999,9999,9999,1043061808
4,2,T1_SMS_8,42,9999,9999,9999,1043861616
4,2,T1_SMS_8,43,9999,9999,9999,1044661356
4,2,T1_SMS_8,44,9999,9999,9999,1045462128
4,2,T1_SMS_8,45,9999,9999,9999,1046261812
4,2,T1_SMS_8,46,9999,9999,9999,1047061620
4,2,T1_SMS_8,47,9999,9999,9999,1047861352
4,2,T1_SMS_8,48,9999,9999,9999,1048662132
4,2,T1_SMS_8,49,9999,9999,9999,1049461864
4,2,T1_SMS_8,50,9999,9999,9999,1050261600
4,2,T1_SMS_8,51,9999,9999,9999,1051061332
4,2,T1_SMS_8,52,9999,9999,9999,1051862112
4,2,T1_SMS_8,53,9999,9999,9999,1052661876
4,2,T1_SMS_8,54,9999,9999,9999,1053461604
4,2,T1_SMS_8,55,9999,9999,9999,1054261344
4,2,T1_SMS_8,56,9999,9999,9999,1055062124
4,2,T1_SMS_8,57,9999,9999,9999,1055861852
4,2,T1_SMS_8,58,9999,9999,9999,1056661584
4,2,T1_SMS_8,59,9999,9999,9999,1057461316
4,2,T1_SMS_8,60,9999,9999,9999,1058262100
4,2,T1_SMS_8,61,9999,9999,9999,1059061864
4,2,T1_SMS_8,62,9999,9999,9999,1059861596
4,2,T1_SMS_8,63,9999,9999,9999,1060661324
4,2,T1_SMS_8,64,9999,9999,9999,1061462104
4,2,T1_SMS_8,65,9999,9999,9999,1062261836
4,2,T1_SMS_8,66,9999,9999,9999,1063061576
4,2,T1_SMS_8,67,9999,9999,9999,1063861304
4,2,T1_SMS_8,68,9999,9999,9999,1064662084
4,2,T1_SMS_8,69,9999,9999,9999,1065461844
4,2,T1_SMS_8,70,9999,9999,9999,1066261576
4,2,T1_SMS_8,71,9999,9999,9999,1067061308
4,2,T1_SMS_8,72,9999,9999,9999,1067862088
4,2,T1_SMS_8,73,9999,9999,9999,1068661832
4,2,T1_SMS_8,74,9999,9999,9999,1069461564
4,2,T1_SMS_8,75,9999,9999,9999,1070261364
4,2,T1_SMS_8,76,9999,9999,9999,1071062068
4,2,T1_SMS_8,77,9999,9999,9999,1071861836
4,2,T1_SMS_8,78,9999,9999,9999,1072661564
4,2,T1_SMS_8,79,9999,9999,9999,1073461304
4,2,T1_SMS_8,80,9999,9999,9999,1074262080
4,2,T1_SMS_8,81,9999,9999,9999,1075061812
4,2,T1_SMS_8,82,9999,9999,9999,1075861552
4,2,T1_SMS_8,83,9999,9999,9999,1076661360
4,2,T1_SMS_8,84,9999,9999,9999,1077462064
4,2,T1_SMS_8,85,9999,9999,9999,1078261816
4,2,T1_SMS_8,86,9999,9999,9999,1079061552
4,2,T1_SMS_8,87,9999,9999,9999,1079861360
4,2,T1_SMS_8,88,9999,9999,9999,1080662064
4,2,T1_SMS_8,89,9999,9999,9999,1081461872
4,2,T1_SMS_8,90,9999,9999,9999,1082261608
4,2,T1_SMS_8,91,9999,9999,9999,1083061340
4,2,T1_SMS_8,92,9999,9999,9999,1083862120
4,2,T1_SMS_8,93,9999,9999,9999,1084661812
4,2,T1_SMS_8,94,9999,9999,9999,1085461616
4,2,T1_SMS_8,95,9999,9999,9999,1086261352
4,2,T1_SMS_8,96,9999,9999,9999,1087062124
4,2,T1_SMS_8,97,9999,9999,9999,1087861856
4,2,T1_SMS_8,98,9999,9999,9999,1088661592
4,2,T1_SMS_8,99,9999,9999,9999,1089461324
4,2,T1_SMS_8,100,9999,9999,9999,1090262112
4,2,T1_SMS_8,101,9999,9999,9999,1091061820
4,2,T1_SMS_8,102,9999,9999,9999,1091861604
4,2,T1_SMS_8,103,9999,9999,9999,1092661332
4,2,T1_SMS_8,104,9999,9999,9999,1093462116
4,2,T1_SMS_8,105,9999,9999,9999,1094261852
4,2,T1_SMS_8,106,9999,9999,9999,1095061576
4,2,T1_SMS_8,107,9999,9999,9999,1095861316
4,2,T1_SMS_8,108,9999,9999,9999,1096662100
4,2,T1_SMS_8,109,9999,9999,9999,1097461852
4,2,T1_SMS_8,110,9999,9999,9999,1098261584
4,2,T1_SMS_8,111,9999,9999,9999,1099061316
4,2,T1_SMS_8,112,9999,9999,9999,1099862096
4,2,T1_SMS_8,113,9999,9999,9999,1100661832
4,2,T1_SMS_8,114,9999,9999,9999,1101461564
4,2,T1_SMS_8,115,9999,9999,9999,1102261296
4,2,T1_SMS_8,116,9999,9999,9999,1103062076
4,2,T1_SMS_8,117,9999,9999,9999,1103861836
4,2,T1_SMS_8,118,9999,9999,9999,1104661576
4,2,T1_SMS_8,119,9999,9999,9999,1105461304
5,21,Ticks_Linear_5,0,5,42,127,1116473760
5,21,Ticks_Linear_5,1,5,42,127,1116953864
5,21,Ticks_Linear_5,2,5,42,127,1117434260
5,21,Ticks_Linear_5,3,1,48,21,1117436780
5,21,Ticks_Linear_5,4,5,42,127,1117913420
5,21,Ticks_Linear_5,5,1,48,38,1117917584
5,21,Ticks_Linear_5,6,5,42,127,1118393796
5,21,Ticks_Linear_5,7,1,48,45,1118420204
5,21,Ticks_Linear_5,8,5,42,127,1118884356
5,21,Ticks_Linear_5,9,1,48,49,1118886876
5,21,Ticks_Linear_5,10,5,42,127,1119373724
5,21,Ticks_Linear_5,11,1,48,47,1119382544
5,21,Ticks_Linear_5,12,1,48,41,1119857572
5,21,Ticks_Linear_5,13,5,42,127,1119864280
5,21,Ticks_Linear_5,14,1,48,48,1120317956
5,21,Ticks_Linear_5,15,5,42,127,1120353644
5,21,Ticks_Linear_5,16,5,42,127,1120844512
5,21,Ticks_Linear_5,17,1,48,36,1120859836
5,21,Ticks_Linear_5,18,5,42,127,1121343840
5,21,Ticks_Linear_5,19,1,48,42,1121376840
5,21,Ticks_Linear_5,20,5,42,127,1121843464
5,21,Ticks_Linear_5,21,1,48,36,1121875788
5,21,Ticks_Linear_5,22,5,42,127,1122344436
5,21,Ticks_Linear_5,23,1,48,39,1122359608
5,21,Ticks_Linear_5,24,1,48,35,1122843456
5,21,Ticks_Linear_5,25,5,42,127,1122845024
5,21,Ticks_Linear_5,26,5,42,127,1123343760
5,21,Ticks_Linear_5,27,1,48,45,1123346424
5,21,Ticks_Linear_5,28,5,42,127,1123853644
5,21,Ticks_Linear_5,29,1,48,36,1123860652
5,21,Ticks_Linear_5,30,1,48,40,1124354864
5,21,Ticks_Linear_5,31,5,42,127,1124363596
5,21,Ticks_Linear_5,32,1,48,45,1124847828
5,21,Ticks_Linear_5,33,5,42,127,1124873628
5,21,Ticks_Linear_5,34,1,48,39,1125373660
5,21,Ticks_Linear_5,35,5,42,127,1125383512
5,21,Ticks_Linear_5,36,1,48,39,1125861736
5,21,Ticks_Linear_5,37,5,42,127,1125893472
5,21,Ticks_Linear_5,38,1,48,29,1126409076
5,21,Ticks_Linear_5,39,5,42,127,1126413692
5,21,Ticks_Linear_5,40,1,48,37,1126902796
5,21,Ticks_Linear_5,41,5,42,127,1126933832
5,21,Ticks_Linear_5,42,1,48,42,1127420532
5,21,Ticks_Linear_5,43,5,42,127,1127454276
5,21,Ticks_Linear_5,44,1,48,41,1127939332
5,21,Ticks_Linear_5,45,5,42,127,1127974492
5,21,Ticks_Linear_5,46,1,48,38,1128462324
5,21,Ticks_Linear_5,47,5,42,127,1128493368
5,21,Ticks_Linear_5,48,1,48,38,1128979240
5,21,Ticks_Linear_5,49,5,42,127,1129023920
5,21,Ticks_Linear_5,50,1,48,38,1129529640
5,21,Ticks_Linear_5,51,5,42,127,1129554248
5,21,Ticks_Linear_5,52,1,48,47,1130065364
5,21,Ticks_Linear_5,53,5,42,127,1130083604
5,21,Ticks_Linear_5,54,1,48,35,1130595468
5,21,Ticks_Linear_5,55,5,42,127,1130614304
5,21,Ticks_Linear_5,56,1,48,35,1131132168
5,21,Ticks_Linear_5,57,5,42,127,1131143512
5,21,Ticks_Linear_5,58,1,48,38,1131650652
5,21,Ticks_Linear_5,59,5,42,127,1131684320
5,21,Ticks_Linear_5,60,1,48,35,1132179404
5,21,Ticks_Linear_5,61,5,42,127,1132224084
5,21,Ticks_Linear_5,62,1,48,31,1132735052
5,21,Ticks_Linear_5,63,5,42,127,1132763476
5,21,Ticks_Linear_5,64,1,48,35,1133270244
5,21,Ticks_Linear_5,65,5,42,127,1133304384
5,21,Ticks_Linear_5,66,1,48,28,1133813556
5,21,Ticks_Linear_5,67,5,42,127,1133843924
5,21,Ticks_Linear_5,68,1,48,40,1134338268
5,21,Ticks_Linear_5,69,5,42,127,1134393576
5,21,Ticks_Linear_5,70,1,48,34,1134894880
5,21,Ticks_Linear_5,71,5,42,127,1134943600
5,21,Ticks_Linear_5,72,1,48,22,1135464152
5,21,Ticks_Linear_5,73,5,42,127,1135493548
5,21,Ticks_Linear_5,74,1,48,43,1135981680
5,21,Ticks_Linear_5,75,5,42,127,1136044392
5,21,Ticks_Linear_5,76,1,48,44,1136550264
5,21,Ticks_Linear_5,77,5,42,127,1136594268
5,21,Ticks_Linear_5,78,1,48,44,1137129572
5,21,Ticks_Linear_5,79,5,42,127,1137154428
5,21,Ticks_Linear_5,80,1,48,32,1137689428
5,21,Ticks_Linear_5,81,5,42,127,1137723696
5,21,Ticks_Linear_5,82,1,48,43,1138247320
5,21,Ticks_Linear_5,83,5,42,127,1138284056
5,21,Ticks_Linear_5,84,1,48,45,1138820700
5,21,Ticks_Linear_5,85,5,42,127,1138844112
5,21,Ticks_Linear_5,86,1,48,41,1139361064
5,21,Ticks_Linear_5,87,5,42,127,1139404172
5,21,Ticks_Linear_5,88,1,48,48,1139923900
5,21,Ticks_Linear_5,89,5,42,127,1139973392
5,21,Ticks_Linear_5,90,1,48,45,1140496716
5,21,Ticks_Linear_5,91,5,42,127,1140544008
5,21,Ticks_Linear_5,92,1,48,37,1141085904
5,21,Ticks_Linear_5,93,5,42,127,1141114252
5,21,Ticks_Linear_5,94,1,48,45,1141660112
5,21,Ticks_Linear_5,95,5,42,127,1141683524
5,21,Ticks_Linear_5,96,1,48,42,1142244964
5,21,Ticks_Linear_5,97,5,42,127,1142254164
5,21,Ticks_Linear_5,98,1,48,33,1142820540
5,21,Ticks_Linear_5,99,5,42,127,1142833472
5,21,Ticks_Linear_5,100,1,48,31,1143383232
5,21,Ticks_Linear_5,101,5,42,127,1143414196
5,21,Ticks_Linear_5,102,1,48,29,1143970168
5,21,Ticks_Linear_5,103,5,42,127,1143994024
5,21,Ticks_Linear_5,104,1,48,40,1144534572
5,21,Ticks_Linear_5,105,5,42,127,1144574252
5,21,Ticks_Linear_5,106,1,48,38,1145118772
5,21,Ticks_Linear_5,107,5,42,127,1145154084
5,21,Ticks_Linear_5,108,1,48,36,1145709528
5,21,Ticks_Linear_5,109,5,42,127,1145744024
5,21,Ticks_Linear_5,110,1,48,43,1146266972
5,21,Ticks_Linear_5,111,5,42,127,1146333440
5,21,Ticks_Linear_5,112,1,48,41,1146876556
5,21,Ticks_Linear_5,113,5,42,127,1146924448
5,21,Ticks_Linear_5,114,1,48,30,1147503488
5,21,Ticks_Linear_5,115,5,42,127,1147514240
5,21,Ticks_Linear_5,116,5,42,127,1148104112
5,21,Ticks_Linear_5,117,1,48,29,1148108204
5,21,Ticks_Linear_5,118,1,48,25,1148692012
5,21,Ticks_Linear_5,119,5,42,127,1148704104
5,21,Ticks_Linear_5,120,1,48,29,1149265172
5,21,Ticks_Linear_5,121,5,42,127,1149304152
5,21,Ticks_Linear_5,122,1,48,37,1149843656
5,21,Ticks_Linear_5,123,5,42,127,1149904200
5,21,Ticks_Linear_5,124,1,48,46,1150456600
5,21,Ticks_Linear_5,125,5,42,127,1150504272
5,21,Ticks_Linear_5,126,1,48,37,1151039576
5,21,Ticks_Linear_5,127,5,42,127,1151104324
5,21,Ticks_Linear_5,128,1,48,34,1151644420
5,21,Ticks_Linear_5,129,5,42,127,1151713584
5,21,Ticks_Linear_5,130,1,48,45,1152213840
5,21,Ticks_Linear_5,131,5,42,127,1152324124
5,21,Ticks_Linear_5,132,1,48,45,1152856376
5,21,Ticks_Linear_5,133,5,42,127,1152934148
5,21,Ticks_Linear_5,134,1,48,38,1153526240
5,21,Ticks_Linear_5,135,5,42,127,1153543432
5,21,Ticks_Linear_5,136,5,42,127,1154153748
5,21,Ticks_Linear_5,137,1,48,38,1154172672
5,21,Ticks_Linear_5,138,5,42,127,1154774388
5,21,Ticks_Linear_5,139,1,48,37,1154815132
5,21,Ticks_Linear_5,140,1,48,36,1155336672
5,21,Ticks_Linear_5,141,5,42,127,1155394076
5,21,Ticks_Linear_5,142,1,48,42,1155951240
5,21,Ticks_Linear_5,143,5,42,127,1156013372
5,21,Ticks_Linear_5,144,1,48,33,1156590636
5,21,Ticks_Linear_5,145,5,42,127,1156634040
5,21,Ticks_Linear_5,146,1,48,40,1157195180
5,21,Ticks_Linear_5,147,5,42,127,1157253484
5,21,Ticks_Linear_5,148,1,48,46,1157796648
5,21,Ticks_Linear_5,149,5,42,127,1157884336
5,21,Ticks_Linear_5,150,1,48,32,1158480816
5,21,Ticks_Linear_5,151,5,42,127,1158513964
5,21,Ticks_Linear_5,152,1,48,41,1159082600
5,21,Ticks_Linear_5,153,5,42,127,1159143892
5,21,Ticks_Linear_5,154,1,48,32,1159752992
5,21,Ticks_Linear_5,155,5,42,127,1159773844
5,21,Ticks_Linear_5,156,1,48,35,1160356700
5,21,Ticks_Linear_5,157,5,42,127,1160404224
5,21,Ticks_Linear_5,158,1,48,35,1160983288
5,21,Ticks_Linear_5,159,5,42,127,1161044212
5,21,Ticks_Linear_5,160,1,48,45,1161604384
5,21,Ticks_Linear_5,161,5,42,127,1161684324
5,21,Ticks_Linear_5,162,1,48,37,1162277540
5,21,Ticks_Linear_5,163,5,42,127,1162324388
5,21,Ticks_Linear_5,164,1,48,40,1162941552
5,21,Ticks_Linear_5,165,5,42,127,1162964424
5,21,Ticks_Linear_5,166,1,48,39,1163571656
5,21,Ticks_Linear_5,167,5,42,127,1163604416
5,21,Ticks_Linear_5,168,1,48,20,1164222704
5,21,Ticks_Linear_5,169,5,42,127,1164253592
5,21,Ticks_Linear_5,170,1,48,35,1164894516
5,21,Ticks_Linear_5,171,5,42,127,1164903992
5,21,Ticks_Linear_5,172,5,42,127,1165554096
5,21,Ticks_Linear_5,173,1,48,35,1165561552
5,21,Ticks_Linear_5,174,5,42,127,1166204244
5,21,Ticks_Linear_5,175,1,48,48,1166210132
5,21,Ticks_Linear_5,176,1,48,38,1166841404
5,21,Ticks_Linear_5,177,5,42,127,1166853736
5,21,Ticks_Linear_5,178,1,48,39,1167500768
5,21,Ticks_Linear_5,179,5,42,127,1167513920
5,21,Ticks_Linear_5,180,1,48,25,1168152520
5,21,Ticks_Linear_5,181,5,42,127,1168173604
5,21,Ticks_Linear_5,182,1,48,38,1168801088
5,21,Ticks_Linear_5,183,5,42,127,1168833864
5,21,Ticks_Linear_5,184,1,48,39,1169426400
5,21,Ticks_Linear_5,185,5,42,127,1169494296
5,21,Ticks_Linear_5,186,1,48,36,1170123584
5,21,Ticks_Linear_5,187,5,42,127,1170153804
5,21,Ticks_Linear_5,188,1,48,34,1170812376
5,21,Ticks_Linear_5,189,5,42,127,1170823648
5,21,Ticks_Linear_5,190,1,48,29,1171487704
5,21,Ticks_Linear_5,191,5,42,127,1171494188
5,21,Ticks_Linear_5,192,1,48,40,1172098688
5,21,Ticks_Linear_5,193,5,42,127,1172164036
5,21,Ticks_Linear_5,194,1,48,46,1172827048
5,21,Ticks_Linear_5,195,5,42,127,1172833532
5,21,Ticks_Linear_5,196,5,42,127,1173504676
5,21,Ticks_Linear_5,197,1,48,40,1173515512
5,21,Ticks_Linear_5,198,1,48,32,1174163316
5,21,Ticks_Linear_5,199,5,42,127,1174184548
5,21,Ticks_Linear_5,200,1,48,40,1174835208
5,21,Ticks_Linear_5,201,5,42,127,1174864152
5,21,Ticks_Linear_5,202,5,42,127,1175544064
5,21,Ticks_Linear_5,203,1,48,40,1175545548
5,21,Ticks_Linear_5,204,1,48,35,1176217528
5,21,Ticks_Linear_5,205,5,42,127,1176224088
5,21,Ticks_Linear_5,206,5,42,127,1176903924
5,21,Ticks_Linear_5,207,1,48,41,1176907944
5,21,Ticks_Linear_5,208,1,48,44,1177552008
5,21,Ticks_Linear_5,209,5,42,127,1177594228
5,21,Ticks_Linear_5,210,1,48,43,1178267252
5,21,Ticks_Linear_5,211,5,42,127,1178284592
5,21,Ticks_Linear_5,212,1,48,38,1178947004
5,21,Ticks_Linear_5,213,5,42,127,1178973480
5,21,Ticks_Linear_5,214,1,48,38,1179632304
5,21,Ticks_Linear_5,215,5,42,127,1179663720
5,21,Ticks_Linear_5,216,1,48,31,1180296072
5,21,Ticks_Linear_5,217,5,42,127,1180353856
5,21,Ticks_Linear_5,218,1,48,47,1181003844
5,21,Ticks_Linear_5,219,5,42,127,1181054428
5,21,Ticks_Linear_5,220,5,42,127,1181753660
5,21,Ticks_Linear_5,221,1,48,35,1181756632
5,21,Ticks_Linear_5,222,1,48,27,1182449988
5,21,Ticks_Linear_5,223,5,42,127,1182454372
5,21,Ticks_Linear_5,224,5,42,127,1183153508
5,21,Ticks_Linear_5,225,1,48,40,1183163520
5,21,Ticks_Linear_5,226,1,48,32,1183823928
5,21,Ticks_Linear_5,227,5,42,127,1183853920
5,21,Ticks_Linear_5,228,5,42,127,1184563712
5,21,Ticks_Linear_5,229,1,48,34,1184578592
5,21,Ticks_Linear_5,230,1,48,40,1185225568
5,21,Ticks_Linear_5,231,5,42,127,1185274532
5,21,Ticks_Linear_5,232,1,48,38,1185983100
5,21,Ticks_Linear_5,233,5,42,127,1185984440
5,21,Ticks_Linear_5,234,5,42,127,1186693488
5,21,Ticks_Linear_5,235,1,48,38,1186741768
5,21,Ticks_Linear_5,236,5,42,127,1187404316
5,21,Ticks_Linear_5,237,1,48,33,1187438740
5,21,Ticks_Linear_5,238,5,42,127,1188124208
5,21,Ticks_Linear_5,239,1,48,36,1188141028
5,21,Ticks_Linear_5,240,1,48,35,1188814452
5,21,Ticks_Linear_5,241,5,42,127,1188843872
5,21,Ticks_Linear_5,242,1,48,43,1189537192
5,21,Ticks_Linear_5,243,5,42,127,1189563740
5,21,Ticks_Linear_5,244,1,48,35,1190266740
5,21,Ticks_Linear_5,245,5,42,127,1190283560
5,21,Ticks_Linear_5,246,1,48,38,1190962304
5,21,Ticks_Linear_5,247,5,42,127,1191003452
5,21,Ticks_Linear_5,248,1,48,34,1191708472
5,21,Ticks_Linear_5,249,5,42,127,1191733756
5,21,Ticks_Linear_5,250,1,48,38,1192416592
5,21,Ticks_Linear_5,251,5,42,127,1192463684
5,21,Ticks_Linear_5,252,1,48,43,1193127348
5,21,Ticks_Linear_5,253,5,42,127,1193193888
5,21,Ticks_Linear_5,254,1,48,41,1193874052
5,21,Ticks_Linear_5,255,5,42,127,1193923816
5,21,Ticks_Linear_5,256,1,48,34,1194564360
5,21,Ticks_Linear_5,257,5,42,127,1194654340
5,21,Ticks_Linear_5,258,1,48,44,1195322752
5,21,Ticks_Linear_5,259,5,42,127,1195394308
5,21,Ticks_Linear_5,260,1,48,38,1196087272
5,21,Ticks_Linear_5,261,5,42,127,1196144080
5,21,Ticks_Linear_5,262,1,48,39,1196813464
5,21,Ticks_Linear_5,263,5,42,127,1196884492
5,21,Ticks_Linear_5,264,5,42,127,1197623564
5,21,Ticks_Linear_5,265,1,48,42,1197640384
5,21,Ticks_Linear_5,266,5,42,127,1198364200
5,21,Ticks_Linear_5,267,1,48,38,1198383576
5,21,Ticks_Linear_5,268,1,48,45,1199097304
5,21,Ticks_Linear_5,269,5,42,127,1199113520
5,21,Ticks_Linear_5,270,1,48,38,1199853068
5,21,Ticks_Linear_5,271,5,42,127,1199864412
5,21,Ticks_Linear_5,272,1,48,29,1200535488
5,21,Ticks_Linear_5,273,5,42,127,1200613788
5,21,Ticks_Linear_5,274,1,48,29,1201304284
5,21,Ticks_Linear_5,275,5,42,127,1201364460
5,21,Ticks_Linear_5,276,1,48,31,1202059072
5,21,Ticks_Linear_5,277,5,42,127,1202114160
5,21,Ticks_Linear_5,278,1,48,37,1202842928
5,21,Ticks_Linear_5,279,5,42,127,1202873668
5,21,Ticks_Linear_5,280,1,48,34,1203609844
5,21,Ticks_Linear_5,281,5,42,127,1203633552
5,21,Ticks_Linear_5,282,1,48,35,1204319852
5,21,Ticks_Linear_5,283,5,42,127,1204394260
5,21,Ticks_Linear_5,284,1,48,44,1205108196
5,21,Ticks_Linear_5,285,5,42,127,1205154216
5,21,Ticks_Linear_5,286,1,48,41,1205865684
5,21,Ticks_Linear_5,287,5,42,127,1205914100
5,21,Ticks_Linear_5,288,1,48,39,1206651996
5,21,Ticks_Linear_5,289,5,42,127,1206684244
5,21,Ticks_Linear_5,290,1,48,33,1207416904
5,21,Ticks_Linear_5,291,5,42,127,1207454160
5,21,Ticks_Linear_5,292,5,42,127,1208224088
5,21,Ticks_Linear_5,293,1,48,40,1208236272
5,21,Ticks_Linear_5,294,1,48,33,1208980172
5,21,Ticks_Linear_5,295,5,42,127,1208994224
5,21,Ticks_Linear_5,296,1,48,18,1209757284
5,21,Ticks_Linear_5,297,5,42,127,1209764292
5,21,Ticks_Linear_5,298,5,42,127,1210543428
5,21,Ticks_Linear_5,299,1,48,20,1210555160
5,21,Ticks_Linear_5,300,5,42,127,1211324052
5,21,Ticks_Linear_5,301,1,48,39,1211954056
5,21,Ticks_Linear_5,302,5,42,127,1212104008
5,21,Ticks_Linear_5,303,1,48,45,1212819756
5,21,Ticks_Linear_5,304,5,42,127,1212884424
5,21,Ticks_Linear_5,305,5,42,127,1213663636
5,21,Ticks_Linear_5,306,1,48,37,1213671092
5,21,Ticks_Linear_5,307,5,42,127,1214454248
5,21,Ticks_Linear_5,308,1,48,38,1214516680
5,21,Ticks_Linear_5,309,1,48,36,1215228088
5,21,Ticks_Linear_5,310,5,42,127,1215243780
5,21,Ticks_Linear_5,311,1,48,35,1216023248
5,21,Ticks_Linear_5,312,5,42,127,1216034144
5,21,Ticks_Linear_5,313,5,42,127,1216823688
5,21,Ticks_Linear_5,314,1,48,46,1216843812
5,21,Ticks_Linear_5,315,1,48,24,1217576036
5,21,Ticks_Linear_5,316,5,42,127,1217614120
5,21,Ticks_Linear_5,317,1,48,35,1218350664
5,21,Ticks_Linear_5,318,5,42,127,1218413992
5,21,Ticks_Linear_5,319,5,42,127,1219213648
5,21,Ticks_Linear_5,320,1,48,40,1219238336
5,21,Ticks_Linear_5,321,5,42,127,1220013372
5,21,Ticks_Linear_5,322,1,48,29,1220019704
5,21,Ticks_Linear_5,323,1,48,38,1220809824
5,21,Ticks_Linear_5,324,5,42,127,1220814132
5,21,Ticks_Linear_5,325,1,48,29,1221539076
5,21,Ticks_Linear_5,326,5,42,127,1221613956
5,21,Ticks_Linear_5,327,1,48,36,1222424168
5,21,Ticks_Linear_5,328,5,42,127,1222425432
5,21,Ticks_Linear_5,329,5,42,127,1223233928
5,21,Ticks_Linear_5,330,1,48,41,1223262520
5,21,Ticks_Linear_5,331,1,48,30,1223982612
5,21,Ticks_Linear_5,332,5,42,127,1224043904
5,21,Ticks_Linear_5,333,5,42,127,1224853896
5,21,Ticks_Linear_5,334,1,48,28,1224910480
5,21,Ticks_Linear_5,335,1,48,44,1225658960
5,21,Ticks_Linear_5,336,5,42,127,1225663800
5,21,Ticks_Linear_5,0,9999,9999,9999,1116471388
5,21,Ticks_Linear_5,1,9999,9999,9999,1116951640
5,21,Ticks_Linear_5,2,9999,9999,9999,1117431888
5,21,Ticks_Linear_5,3,9999,9999,9999,1117911120
5,21,Ticks_Linear_5,4,9999,9999,9999,1118391424
5,21,Ticks_Linear_5,5,9999,9999,9999,1118881912
5,21,Ticks_Linear_5,6,9999,9999,9999,1119371352
5,21,Ticks_Linear_5,7,9999,9999,9999,1119861832
5,21,Ticks_Linear_5,8,9999,9999,9999,1120351348
5,21,Ticks_Linear_5,9,9999,9999,9999,1120841840
5,21,Ticks_Linear_5,10,9999,9999,9999,1121341540
5,21,Ticks_Linear_5,11,9999,9999,9999,1121841240
5,21,Ticks_Linear_5,12,9999,9999,9999,1122341988
5,21,Ticks_Linear_5,13,9999,9999,9999,1122841684
5,21,Ticks_Linear_5,14,9999,9999,9999,1123341384
5,21,Ticks_Linear_5,15,9999,9999,9999,1123851344
5,21,Ticks_Linear_5,16,9999,9999,9999,1124361296
5,21,Ticks_Linear_5,17,9999,9999,9999,1124871256
5,21,Ticks_Linear_5,18,9999,9999,9999,1125381216
5,21,Ticks_Linear_5,19,9999,9999,9999,1125891172
5,21,Ticks_Linear_5,20,9999,9999,9999,1126411320
5,21,Ticks_Linear_5,21,9999,9999,9999,1126931536
5,21,Ticks_Linear_5,22,9999,9999,9999,1127451756
5,21,Ticks_Linear_5,23,9999,9999,9999,1127971900
5,21,Ticks_Linear_5,24,9999,9999,9999,1128491068
5,21,Ticks_Linear_5,25,9999,9999,9999,1129021548
5,21,Ticks_Linear_5,26,9999,9999,9999,1129551948
5,21,Ticks_Linear_5,27,9999,9999,9999,1130081380
5,21,Ticks_Linear_5,28,9999,9999,9999,1130611784
5,21,Ticks_Linear_5,29,9999,9999,9999,1131141212
5,21,Ticks_Linear_5,30,9999,9999,9999,1131681876
5,21,Ticks_Linear_5,31,9999,9999,9999,1132221564
5,21,Ticks_Linear_5,32,9999,9999,9999,1132761180
5,21,Ticks_Linear_5,33,9999,9999,9999,1133301864
5,21,Ticks_Linear_5,34,9999,9999,9999,1133841480
5,21,Ticks_Linear_5,35,9999,9999,9999,1134391352
5,21,Ticks_Linear_5,36,9999,9999,9999,1134941300
5,21,Ticks_Linear_5,37,9999,9999,9999,1135491176
5,21,Ticks_Linear_5,38,9999,9999,9999,1136042096
5,21,Ticks_Linear_5,39,9999,9999,9999,1136591968
5,21,Ticks_Linear_5,40,9999,9999,9999,1137152056
5,21,Ticks_Linear_5,41,9999,9999,9999,1137721400
5,21,Ticks_Linear_5,42,9999,9999,9999,1138281536
5,21,Ticks_Linear_5,43,9999,9999,9999,1138841664
5,21,Ticks_Linear_5,44,9999,9999,9999,1139401800
5,21,Ticks_Linear_5,45,9999,9999,9999,1139971168
5,21,Ticks_Linear_5,46,9999,9999,9999,1140541560
5,21,Ticks_Linear_5,47,9999,9999,9999,1141111880
5,21,Ticks_Linear_5,48,9999,9999,9999,1141681224
5,21,Ticks_Linear_5,49,9999,9999,9999,1142251616
5,21,Ticks_Linear_5,50,9999,9999,9999,1142831172
5,21,Ticks_Linear_5,51,9999,9999,9999,1143411824
5,21,Ticks_Linear_5,52,9999,9999,9999,1143991356
5,21,Ticks_Linear_5,53,9999,9999,9999,1144572028
5,21,Ticks_Linear_5,54,9999,9999,9999,1145151560
5,21,Ticks_Linear_5,55,9999,9999,9999,1145741428
5,21,Ticks_Linear_5,56,9999,9999,9999,1146331216
5,21,Ticks_Linear_5,57,9999,9999,9999,1146922076
5,21,Ticks_Linear_5,58,9999,9999,9999,1147511864
5,21,Ticks_Linear_5,59,9999,9999,9999,1148101736
5,21,Ticks_Linear_5,60,9999,9999,9999,1148701804
5,21,Ticks_Linear_5,61,9999,9999,9999,1149301852
5,21,Ticks_Linear_5,62,9999,9999,9999,1149901900
5,21,Ticks_Linear_5,63,9999,9999,9999,1150501976
5,21,Ticks_Linear_5,64,9999,9999,9999,1151102024
5,21,Ticks_Linear_5,65,9999,9999,9999,1151711284
5,21,Ticks_Linear_5,66,9999,9999,9999,1152321600
5,21,Ticks_Linear_5,67,9999,9999,9999,1152931924
5,21,Ticks_Linear_5,68,9999,9999,9999,1153541208
5,21,Ticks_Linear_5,69,9999,9999,9999,1154151524
5,21,Ticks_Linear_5,70,9999,9999,9999,1154772092
5,21,Ticks_Linear_5,71,9999,9999,9999,1155391556
5,21,Ticks_Linear_5,72,9999,9999,9999,1156011076
5,21,Ticks_Linear_5,73,9999,9999,9999,1156631664
5,21,Ticks_Linear_5,74,9999,9999,9999,1157251188
5,21,Ticks_Linear_5,75,9999,9999,9999,1157881960
5,21,Ticks_Linear_5,76,9999,9999,9999,1158511740
5,21,Ticks_Linear_5,77,9999,9999,9999,1159141448
5,21,Ticks_Linear_5,78,9999,9999,9999,1159771248
5,21,Ticks_Linear_5,79,9999,9999,9999,1160402000
5,21,Ticks_Linear_5,80,9999,9999,9999,1161041988
5,21,Ticks_Linear_5,81,9999,9999,9999,1161682028
5,21,Ticks_Linear_5,82,9999,9999,9999,1162322016
5,21,Ticks_Linear_5,83,9999,9999,9999,1162961976
5,21,Ticks_Linear_5,84,9999,9999,9999,1163602044
5,21,Ticks_Linear_5,85,9999,9999,9999,1164251220
5,21,Ticks_Linear_5,86,9999,9999,9999,1164901468
5,21,Ticks_Linear_5,87,9999,9999,9999,1165551724
5,21,Ticks_Linear_5,88,9999,9999,9999,1166201944
5,21,Ticks_Linear_5,89,9999,9999,9999,1166851140
5,21,Ticks_Linear_5,90,9999,9999,9999,1167511620
5,21,Ticks_Linear_5,91,9999,9999,9999,1168171080
5,21,Ticks_Linear_5,92,9999,9999,9999,1168831564
5,21,Ticks_Linear_5,93,9999,9999,9999,1169492072
5,21,Ticks_Linear_5,94,9999,9999,9999,1170151504
5,21,Ticks_Linear_5,95,9999,9999,9999,1170821200
5,21,Ticks_Linear_5,96,9999,9999,9999,1171491968
5,21,Ticks_Linear_5,97,9999,9999,9999,1172161664
5,21,Ticks_Linear_5,98,9999,9999,9999,1172831308
5,21,Ticks_Linear_5,99,9999,9999,9999,1173502080
5,21,Ticks_Linear_5,100,9999,9999,9999,1174181952
5,21,Ticks_Linear_5,101,9999,9999,9999,1174861928
5,21,Ticks_Linear_5,102,9999,9999,9999,1175541840
5,21,Ticks_Linear_5,103,9999,9999,9999,1176221788
5,21,Ticks_Linear_5,104,9999,9999,9999,1176901700
5,21,Ticks_Linear_5,105,9999,9999,9999,1177591932
5,21,Ticks_Linear_5,106,9999,9999,9999,1178282068
5,21,Ticks_Linear_5,107,9999,9999,9999,1178971256
5,21,Ticks_Linear_5,108,9999,9999,9999,1179661420
5,21,Ticks_Linear_5,109,9999,9999,9999,1180351560
5,21,Ticks_Linear_5,110,9999,9999,9999,1181051980
5,21,Ticks_Linear_5,111,9999,9999,9999,1181751364
5,21,Ticks_Linear_5,112,9999,9999,9999,1182451776
5,21,Ticks_Linear_5,113,9999,9999,9999,1183151208
5,21,Ticks_Linear_5,114,9999,9999,9999,1183851624
5,21,Ticks_Linear_5,115,9999,9999,9999,1184561264
5,21,Ticks_Linear_5,116,9999,9999,9999,1185271864
5,21,Ticks_Linear_5,117,9999,9999,9999,1185981552
5,21,Ticks_Linear_5,118,9999,9999,9999,1186691188
5,21,Ticks_Linear_5,119,9999,9999,9999,1187401792
5,21,Ticks_Linear_5,120,9999,9999,9999,1188121688
5,21,Ticks_Linear_5,121,9999,9999,9999,1188841552
5,21,Ticks_Linear_5,122,9999,9999,9999,1189561444
5,21,Ticks_Linear_5,123,9999,9999,9999,1190281336
5,21,Ticks_Linear_5,124,9999,9999,9999,1191001156
5,21,Ticks_Linear_5,125,9999,9999,9999,1191731308
5,21,Ticks_Linear_5,126,9999,9999,9999,1192461384
5,21,Ticks_Linear_5,127,9999,9999,9999,1193191516
5,21,Ticks_Linear_5,128,9999,9999,9999,1193921592
5,21,Ticks_Linear_5,129,9999,9999,9999,1194651744
5,21,Ticks_Linear_5,130,9999,9999,9999,1195392084
5,21,Ticks_Linear_5,131,9999,9999,9999,1196141632
5,21,Ticks_Linear_5,132,9999,9999,9999,1196882044
5,21,Ticks_Linear_5,133,9999,9999,9999,1197621340
5,21,Ticks_Linear_5,134,9999,9999,9999,1198361680
5,21,Ticks_Linear_5,135,9999,9999,9999,1199111224
5,21,Ticks_Linear_5,136,9999,9999,9999,1199861820
5,21,Ticks_Linear_5,137,9999,9999,9999,1200611416
5,21,Ticks_Linear_5,138,9999,9999,9999,1201362012
5,21,Ticks_Linear_5,139,9999,9999,9999,1202111564
5,21,Ticks_Linear_5,140,9999,9999,9999,1202871372
5,21,Ticks_Linear_5,141,9999,9999,9999,1203631180
5,21,Ticks_Linear_5,142,9999,9999,9999,1204392036
5,21,Ticks_Linear_5,143,9999,9999,9999,1205151844
5,21,Ticks_Linear_5,144,9999,9999,9999,1205911652
5,21,Ticks_Linear_5,145,9999,9999,9999,1206681720
5,21,Ticks_Linear_5,146,9999,9999,9999,1207451716
5,21,Ticks_Linear_5,147,9999,9999,9999,1208221788
5,21,Ticks_Linear_5,148,9999,9999,9999,1208991848
5,21,Ticks_Linear_5,149,9999,9999,9999,1209761920
5,21,Ticks_Linear_5,150,9999,9999,9999,1210541132
5,21,Ticks_Linear_5,151,9999,9999,9999,1211321456
5,21,Ticks_Linear_5,152,9999,9999,9999,1212101712
5,21,Ticks_Linear_5,153,9999,9999,9999,1212881976
5,21,Ticks_Linear_5,154,9999,9999,9999,1213661264
5,21,Ticks_Linear_5,155,9999,9999,9999,1214451800
5,21,Ticks_Linear_5,156,9999,9999,9999,1215241332
5,21,Ticks_Linear_5,157,9999,9999,9999,1216031844
5,21,Ticks_Linear_5,158,9999,9999,9999,1216821316
5,21,Ticks_Linear_5,159,9999,9999,9999,1217611896
5,21,Ticks_Linear_5,160,9999,9999,9999,1218411620
5,21,Ticks_Linear_5,161,9999,9999,9999,1219211352
5,21,Ticks_Linear_5,162,9999,9999,9999,1220011072
5,21,Ticks_Linear_5,163,9999,9999,9999,1220811836
5,21,Ticks_Linear_5,164,9999,9999,9999,1221611584
5,21,Ticks_Linear_5,165,9999,9999,9999,1222421572
5,21,Ticks_Linear_5,166,9999,9999,9999,1223231556
5,21,Ticks_Linear_5,167,9999,9999,9999,1224041532
5,21,Ticks_Linear_5,168,9999,9999,9999,1224851524
5,21,Ticks_Linear_5,169,9999,9999,9999,1225661500
6,20,Ticks_Linear_8,0,5,42,127,1235497272
6,20,Ticks_Linear_8,1,5,42,127,1236316564
6,20,Ticks_Linear_8,2,1,48,51,1237052224
6,20,Ticks_Linear_8,3,5,42,127,1237136748
6,20,Ticks_Linear_8,4,1,48,53,1237842440
6,20,Ticks_Linear_8,5,5,42,127,1237956976
6,20,Ticks_Linear_8,6,1,48,47,1238741764
6,20,Ticks_Linear_8,7,5,42,127,1238777408
6,20,Ticks_Linear_8,8,1,48,51,1239579188
6,20,Ticks_Linear_8,9,5,42,127,1239587316
6,20,Ticks_Linear_8,10,1,48,48,1240369772
6,20,Ticks_Linear_8,11,5,42,127,1240397152
6,20,Ticks_Linear_8,12,1,48,45,1241160284
6,20,Ticks_Linear_8,13,5,42,127,1241207136
6,20,Ticks_Linear_8,14,1,48,41,1241989064
6,20,Ticks_Linear_8,15,5,42,127,1242017116
6,20,Ticks_Linear_8,16,5,42,127,1242827108
6,20,Ticks_Linear_8,17,1,48,45,1242835620
6,20,Ticks_Linear_8,18,1,48,34,1243622884
6,20,Ticks_Linear_8,19,5,42,127,1243627000
6,20,Ticks_Linear_8,20,1,48,44,1244391004
6,20,Ticks_Linear_8,21,5,42,127,1244426572
6,20,Ticks_Linear_8,22,1,48,38,1245207760
6,20,Ticks_Linear_8,23,5,42,127,1245227344
6,20,Ticks_Linear_8,24,1,48,35,1245992716
6,20,Ticks_Linear_8,25,5,42,127,1246026992
6,20,Ticks_Linear_8,26,1,48,40,1246787136
6,20,Ticks_Linear_8,27,5,42,127,1246826792
6,20,Ticks_Linear_8,28,1,48,39,1247586712
6,20,Ticks_Linear_8,29,5,42,127,1247617376
6,20,Ticks_Linear_8,30,5,42,127,1248406848
6,20,Ticks_Linear_8,31,1,48,38,1248424860
6,20,Ticks_Linear_8,32,5,42,127,1249197508
6,20,Ticks_Linear_8,33,1,48,23,1249262504
6,20,Ticks_Linear_8,34,1,48,48,1249971044
6,20,Ticks_Linear_8,35,5,42,127,1249997080
6,20,Ticks_Linear_8,36,1,48,46,1250755128
6,20,Ticks_Linear_8,37,5,42,127,1250786620
6,20,Ticks_Linear_8,38,1,48,43,1251489616
6,20,Ticks_Linear_8,39,5,42,127,1251566972
6,20,Ticks_Linear_8,40,5,42,127,1252347676
6,20,Ticks_Linear_8,41,1,48,37,1252359932
6,20,Ticks_Linear_8,42,5,42,127,1253126436
6,20,Ticks_Linear_8,43,1,48,24,1253151268
6,20,Ticks_Linear_8,44,1,48,50,1253875412
6,20,Ticks_Linear_8,45,5,42,127,1253906832
6,20,Ticks_Linear_8,46,1,48,49,1254642252
6,20,Ticks_Linear_8,47,5,42,127,1254687084
6,20,Ticks_Linear_8,48,1,48,41,1255455340
6,20,Ticks_Linear_8,49,5,42,127,1255457080
6,20,Ticks_Linear_8,50,5,42,127,1256227152
6,20,Ticks_Linear_8,51,1,48,37,1256229092
6,20,Ticks_Linear_8,52,1,48,37,1256986016
6,20,Ticks_Linear_8,53,5,42,127,1256997364
6,20,Ticks_Linear_8,54,1,48,43,1257758856
6,20,Ticks_Linear_8,55,5,42,127,1257767428
6,20,Ticks_Linear_8,56,5,42,127,1258537432
6,20,Ticks_Linear_8,57,1,48,36,1258546400
6,20,Ticks_Linear_8,58,1,48,42,1259275032
6,20,Ticks_Linear_8,59,5,42,127,1259297012
6,20,Ticks_Linear_8,60,5,42,127,1260056976
6,20,Ticks_Linear_8,61,1,48,42,1260067584
6,20,Ticks_Linear_8,62,5,42,127,1260816636
6,20,Ticks_Linear_8,63,1,48,32,1260853148
6,20,Ticks_Linear_8,64,1,48,43,1261527176
6,20,Ticks_Linear_8,65,5,42,127,1261576516
6,20,Ticks_Linear_8,66,1,48,42,1262295964
6,20,Ticks_Linear_8,67,5,42,127,1262337368
6,20,Ticks_Linear_8,68,5,42,127,1263087000
6,20,Ticks_Linear_8,69,1,48,24,1263101348
6,20,Ticks_Linear_8,70,1,48,28,1263813852
6,20,Ticks_Linear_8,71,5,42,127,1263836664
6,20,Ticks_Linear_8,72,1,48,32,1264553216
6,20,Ticks_Linear_8,73,5,42,127,1264587260
6,20,Ticks_Linear_8,74,1,48,35,1265320888
6,20,Ticks_Linear_8,75,5,42,127,1265336812
6,20,Ticks_Linear_8,76,1,48,36,1266049100
6,20,Ticks_Linear_8,77,5,42,127,1266087408
6,20,Ticks_Linear_8,78,1,48,28,1266806812
6,20,Ticks_Linear_8,79,5,42,127,1266826476
6,20,Ticks_Linear_8,80,1,48,24,1267532684
6,20,Ticks_Linear_8,81,5,42,127,1267567032
6,20,Ticks_Linear_8,82,1,48,40,1268273328
6,20,Ticks_Linear_8,83,5,42,127,1268307444
6,20,Ticks_Linear_8,84,1,48,35,1269016512
6,20,Ticks_Linear_8,85,5,42,127,1269046660
6,20,Ticks_Linear_8,86,1,48,40,1269747120
6,20,Ticks_Linear_8,87,5,42,127,1269787072
6,20,Ticks_Linear_8,88,1,48,38,1270513508
6,20,Ticks_Linear_8,89,5,42,127,1270517376
6,20,Ticks_Linear_8,90,5,42,127,1271247436
6,20,Ticks_Linear_8,91,1,48,20,1271268976
6,20,Ticks_Linear_8,92,5,42,127,1271977288
6,20,Ticks_Linear_8,93,1,48,40,1272008720
6,20,Ticks_Linear_8,94,1,48,41,1272702744
6,20,Ticks_Linear_8,95,5,42,127,1272706392
6,20,Ticks_Linear_8,96,1,48,34,1273426612
6,20,Ticks_Linear_8,97,5,42,127,1273436392
6,20,Ticks_Linear_8,98,5,42,127,1274157340
6,20,Ticks_Linear_8,99,1,48,47,1274166152
6,20,Ticks_Linear_8,100,1,48,47,1274838964
6,20,Ticks_Linear_8,101,5,42,127,1274886588
6,20,Ticks_Linear_8,102,1,48,43,1275564480
6,20,Ticks_Linear_8,103,5,42,127,1275607356
6,20,Ticks_Linear_8,104,1,48,44,1276321212
6,20,Ticks_Linear_8,105,5,42,127,1276327396
6,20,Ticks_Linear_8,106,1,48,35,1277013992
6,20,Ticks_Linear_8,107,5,42,127,1277047144
6,20,Ticks_Linear_8,108,5,42,127,1277756788
6,20,Ticks_Linear_8,109,1,48,42,1277765680
6,20,Ticks_Linear_8,110,1,48,43,1278444272
6,20,Ticks_Linear_8,111,5,42,127,1278466416
6,20,Ticks_Linear_8,112,5,42,127,1279177156
6,20,Ticks_Linear_8,113,1,48,36,1279218868
6,20,Ticks_Linear_8,114,1,48,40,1279848476
6,20,Ticks_Linear_8,115,5,42,127,1279886708
6,20,Ticks_Linear_8,116,1,48,40,1280555412
6,20,Ticks_Linear_8,117,5,42,127,1280597464
6,20,Ticks_Linear_8,118,1,48,39,1281263536
6,20,Ticks_Linear_8,119,5,42,127,1281296840
6,20,Ticks_Linear_8,120,5,42,127,1281997168
6,20,Ticks_Linear_8,121,1,48,32,1282019304
6,20,Ticks_Linear_8,122,1,48,32,1282695336
6,20,Ticks_Linear_8,123,5,42,127,1282696832
6,20,Ticks_Linear_8,124,1,48,41,1283378792
6,20,Ticks_Linear_8,125,5,42,127,1283397256
6,20,Ticks_Linear_8,126,1,48,35,1284067436
6,20,Ticks_Linear_8,127,5,42,127,1284097456
6,20,Ticks_Linear_8,128,5,42,127,1284786480
6,20,Ticks_Linear_8,129,1,48,32,1284797384
6,20,Ticks_Linear_8,130,1,48,38,1285476568
6,20,Ticks_Linear_8,131,5,42,127,1285478056
6,20,Ticks_Linear_8,132,1,48,43,1286136132
6,20,Ticks_Linear_8,133,5,42,127,1286167024
6,20,Ticks_Linear_8,134,1,48,43,1286844376
6,20,Ticks_Linear_8,135,5,42,127,1286857088
6,20,Ticks_Linear_8,136,5,42,127,1287547184
6,20,Ticks_Linear_8,137,1,48,38,1287567828
6,20,Ticks_Linear_8,138,5,42,127,1288227236
6,20,Ticks_Linear_8,139,1,48,34,1288236500
6,20,Ticks_Linear_8,140,5,42,127,1288907264
6,20,Ticks_Linear_8,141,1,48,32,1288908376
6,20,Ticks_Linear_8,142,1,48,37,1289554160
6,20,Ticks_Linear_8,143,5,42,127,1289587160
6,20,Ticks_Linear_8,144,1,48,40,1290220512
6,20,Ticks_Linear_8,145,5,42,127,1290266992
6,20,Ticks_Linear_8,146,1,48,44,1290920016
6,20,Ticks_Linear_8,147,5,42,127,1290947016
6,20,Ticks_Linear_8,148,5,42,127,1291616524
6,20,Ticks_Linear_8,149,1,48,44,1291625560
6,20,Ticks_Linear_8,150,5,42,127,1292287288
6,20,Ticks_Linear_8,151,1,48,25,1292333908
6,20,Ticks_Linear_8,152,5,42,127,1292957204
6,20,Ticks_Linear_8,153,1,48,35,1292959724
6,20,Ticks_Linear_8,154,1,48,34,1293594364
6,20,Ticks_Linear_8,155,5,42,127,1293626844
6,20,Ticks_Linear_8,156,1,48,38,1294244068
6,20,Ticks_Linear_8,157,5,42,127,1294296392
6,20,Ticks_Linear_8,158,5,42,127,1294957052
6,20,Ticks_Linear_8,159,1,48,35,1294958016
6,20,Ticks_Linear_8,160,1,48,41,1295600812
6,20,Ticks_Linear_8,161,5,42,127,1295617552
6,20,Ticks_Linear_8,162,1,48,39,1296247220
6,20,Ticks_Linear_8,163,5,42,127,1296276836
6,20,Ticks_Linear_8,164,1,48,42,1296867036
6,20,Ticks_Linear_8,165,5,42,127,1296937196
6,20,Ticks_Linear_8,166,1,48,36,1297570900
6,20,Ticks_Linear_8,167,5,42,127,1297596928
6,20,Ticks_Linear_8,168,1,48,40,1298227888
6,20,Ticks_Linear_8,169,5,42,127,1298247100
6,20,Ticks_Linear_8,170,1,48,36,1298886128
6,20,Ticks_Linear_8,171,5,42,127,1298897324
6,20,Ticks_Linear_8,172,1,48,38,1299512552
6,20,Ticks_Linear_8,173,5,42,127,1299546376
6,20,Ticks_Linear_8,174,1,48,27,1300174380
6,20,Ticks_Linear_8,175,5,42,127,1300196824
6,20,Ticks_Linear_8,176,5,42,127,1300847004
6,20,Ticks_Linear_8,177,1,48,47,1300849676
6,20,Ticks_Linear_8,178,5,42,127,1301486992
6,20,Ticks_Linear_8,179,1,48,43,1301508388
6,20,Ticks_Linear_8,180,5,42,127,1302126956
6,20,Ticks_Linear_8,181,1,48,38,1302146556
6,20,Ticks_Linear_8,182,1,48,42,1302747480
6,20,Ticks_Linear_8,183,5,42,127,1302767012
6,20,Ticks_Linear_8,184,5,42,127,1303406908
6,20,Ticks_Linear_8,185,1,48,30,1303409352
6,20,Ticks_Linear_8,186,1,48,43,1304008784
6,20,Ticks_Linear_8,187,5,42,127,1304047040
6,20,Ticks_Linear_8,188,1,48,24,1304668396
6,20,Ticks_Linear_8,189,5,42,127,1304676896
6,20,Ticks_Linear_8,190,1,48,46,1305287988
6,20,Ticks_Linear_8,191,5,42,127,1305306528
6,20,Ticks_Linear_8,192,1,48,46,1305898916
6,20,Ticks_Linear_8,193,5,42,127,1305937228
6,20,Ticks_Linear_8,194,1,48,38,1306531168
6,20,Ticks_Linear_8,195,5,42,127,1306567156
6,20,Ticks_Linear_8,196,1,48,33,1307177156
6,20,Ticks_Linear_8,197,5,42,127,1307197036
6,20,Ticks_Linear_8,198,5,42,127,1307817460
6,20,Ticks_Linear_8,199,1,48,30,1307827400
6,20,Ticks_Linear_8,200,5,42,127,1308436856
6,20,Ticks_Linear_8,201,1,48,42,1308456980
6,20,Ticks_Linear_8,202,1,48,37,1309026676
6,20,Ticks_Linear_8,203,5,42,127,1309057344
6,20,Ticks_Linear_8,204,5,42,127,1309676820
6,20,Ticks_Linear_8,205,1,48,18,1309681960
6,20,Ticks_Linear_8,206,1,48,42,1310261012
6,20,Ticks_Linear_8,207,5,42,127,1310296336
6,20,Ticks_Linear_8,208,1,48,45,1310856580
6,20,Ticks_Linear_8,209,5,42,127,1310906716
6,20,Ticks_Linear_8,210,1,48,43,1311476120
6,20,Ticks_Linear_8,211,5,42,127,1311517048
6,20,Ticks_Linear_8,212,1,48,47,1312104392
6,20,Ticks_Linear_8,213,5,42,127,1312127284
6,20,Ticks_Linear_8,214,1,48,45,1312735036
6,20,Ticks_Linear_8,215,5,42,127,1312736620
6,20,Ticks_Linear_8,216,5,42,127,1313346884
6,20,Ticks_Linear_8,217,1,48,40,1313366632
6,20,Ticks_Linear_8,218,5,42,127,1313946932
6,20,Ticks_Linear_8,219,1,48,35,1313953192
6,20,Ticks_Linear_8,220,5,42,127,1314547080
6,20,Ticks_Linear_8,221,1,48,40,1314564808
6,20,Ticks_Linear_8,222,5,42,127,1315147204
6,20,Ticks_Linear_8,223,1,48,36,1315148764
6,20,Ticks_Linear_8,224,1,48,43,1315721888
6,20,Ticks_Linear_8,225,5,42,127,1315747172
6,20,Ticks_Linear_8,226,1,48,35,1316271912
6,20,Ticks_Linear_8,227,5,42,127,1316347248
6,20,Ticks_Linear_8,228,5,42,127,1316937044
6,20,Ticks_Linear_8,229,1,48,38,1317020816
6,20,Ticks_Linear_8,230,5,42,127,1317526908
6,20,Ticks_Linear_8,231,1,48,29,1317634748
6,20,Ticks_Linear_8,232,5,42,127,1318116696
6,20,Ticks_Linear_8,233,1,48,38,1318117660
6,20,Ticks_Linear_8,234,1,48,35,1318693176
6,20,Ticks_Linear_8,235,5,42,127,1318706776
6,20,Ticks_Linear_8,236,5,42,127,1319297620
6,20,Ticks_Linear_8,237,1,48,36,1319307484
6,20,Ticks_Linear_8,238,5,42,127,1319876928
6,20,Ticks_Linear_8,239,1,48,37,1319898396
6,20,Ticks_Linear_8,240,5,42,127,1320456780
6,20,Ticks_Linear_8,241,1,48,35,1320477800
6,20,Ticks_Linear_8,242,5,42,127,1321037060
6,20,Ticks_Linear_8,243,1,48,35,1321038920
6,20,Ticks_Linear_8,244,5,42,127,1321616740
6,20,Ticks_Linear_8,245,1,48,40,1321645400
6,20,Ticks_Linear_8,246,1,48,38,1322179364
6,20,Ticks_Linear_8,247,5,42,127,1322197236
6,20,Ticks_Linear_8,248,1,48,35,1322715396
6,20,Ticks_Linear_8,249,5,42,127,1322766680
6,20,Ticks_Linear_8,250,1,48,40,1323276904
6,20,Ticks_Linear_8,251,5,42,127,1323337076
6,20,Ticks_Linear_8,252,1,48,41,1323870360
6,20,Ticks_Linear_8,253,5,42,127,1323906720
6,20,Ticks_Linear_8,254,5,42,127,1324476820
6,20,Ticks_Linear_8,255,1,48,41,1324502848
6,20,Ticks_Linear_8,256,5,42,127,1325047460
6,20,Ticks_Linear_8,257,1,48,35,1325085408
6,20,Ticks_Linear_8,258,5,42,127,1325607224
6,20,Ticks_Linear_8,259,1,48,35,1325643064
6,20,Ticks_Linear_8,260,1,48,38,1326167952
6,20,Ticks_Linear_8,261,5,42,127,1326169068
6,20,Ticks_Linear_8,262,5,42,127,1326726668
6,20,Ticks_Linear_8,263,1,48,36,1326733604
6,20,Ticks_Linear_8,264,1,48,38,1327275672
6,20,Ticks_Linear_8,265,5,42,127,1327286796
6,20,Ticks_Linear_8,266,1,48,39,1327788104
6,20,Ticks_Linear_8,267,5,42,127,1327846732
6,20,Ticks_Linear_8,268,1,48,40,1328330336
6,20,Ticks_Linear_8,269,5,42,127,1328396756
6,20,Ticks_Linear_8,270,1,48,35,1328904880
6,20,Ticks_Linear_8,271,5,42,127,1328946480
6,20,Ticks_Linear_8,272,1,48,43,1329445092
6,20,Ticks_Linear_8,273,5,42,127,1329496504
6,20,Ticks_Linear_8,274,1,48,29,1329977892
6,20,Ticks_Linear_8,275,5,42,127,1330047648
6,20,Ticks_Linear_8,276,1,48,32,1330582952
6,20,Ticks_Linear_8,277,5,42,127,1330597228
6,20,Ticks_Linear_8,278,5,42,127,1331136776
6,20,Ticks_Linear_8,279,1,48,37,1331142064
6,20,Ticks_Linear_8,280,5,42,127,1331676540
6,20,Ticks_Linear_8,281,1,48,24,1331737496
6,20,Ticks_Linear_8,282,5,42,127,1332217300
6,20,Ticks_Linear_8,283,1,48,40,1332245516
6,20,Ticks_Linear_8,284,1,48,41,1332739272
6,20,Ticks_Linear_8,285,5,42,127,1332756760
6,20,Ticks_Linear_8,286,1,48,32,1333279556
6,20,Ticks_Linear_8,287,5,42,127,1333296676
6,20,Ticks_Linear_8,288,1,48,39,1333794528
6,20,Ticks_Linear_8,289,5,42,127,1333826932
6,20,Ticks_Linear_8,290,1,48,40,1334327264
6,20,Ticks_Linear_8,291,5,42,127,1334357408
6,20,Ticks_Linear_8,292,1,48,36,1334884876
6,20,Ticks_Linear_8,293,5,42,127,1334886692
6,20,Ticks_Linear_8,294,5,42,127,1335417176
6,20,Ticks_Linear_8,295,1,48,33,1335422832
6,20,Ticks_Linear_8,296,1,48,35,1335929556
6,20,Ticks_Linear_8,297,5,42,127,1335946528
6,20,Ticks_Linear_8,298,1,48,36,1336435476
6,20,Ticks_Linear_8,299,5,42,127,1336466744
6,20,Ticks_Linear_8,300,1,48,37,1336969772
6,20,Ticks_Linear_8,301,5,42,127,1336986964
6,20,Ticks_Linear_8,302,1,48,34,1337476220
6,20,Ticks_Linear_8,303,5,42,127,1337507404
6,20,Ticks_Linear_8,304,1,48,34,1338013496
6,20,Ticks_Linear_8,305,5,42,127,1338027476
6,20,Ticks_Linear_8,306,5,42,127,1338546580
6,20,Ticks_Linear_8,307,1,48,31,1338549252
6,20,Ticks_Linear_8,308,1,48,37,1339047728
6,20,Ticks_Linear_8,309,5,42,127,1339056460
6,20,Ticks_Linear_8,310,5,42,127,1339566352
6,20,Ticks_Linear_8,311,1,48,38,1339586020
6,20,Ticks_Linear_8,312,1,48,38,1340051992
6,20,Ticks_Linear_8,313,5,42,127,1340077648
6,20,Ticks_Linear_8,314,1,48,37,1340560532
6,20,Ticks_Linear_8,315,5,42,127,1340596524
6,20,Ticks_Linear_8,316,1,48,39,1341071312
6,20,Ticks_Linear_8,317,5,42,127,1341106632
6,20,Ticks_Linear_8,318,1,48,46,1341571836
6,20,Ticks_Linear_8,319,5,42,127,1341607380
6,20,Ticks_Linear_8,320,5,42,127,1342107012
6,20,Ticks_Linear_8,321,1,48,46,1342116124
6,20,Ticks_Linear_8,322,5,42,127,1342606712
6,20,Ticks_Linear_8,323,1,48,30,1342620236
6,20,Ticks_Linear_8,324,1,48,44,1343092952
6,20,Ticks_Linear_8,325,5,42,127,1343106404
6,20,Ticks_Linear_8,326,1,48,32,1343587344
6,20,Ticks_Linear_8,327,5,42,127,1343607300
6,20,Ticks_Linear_8,328,1,48,38,1344091308
6,20,Ticks_Linear_8,329,5,42,127,1344096596
6,20,Ticks_Linear_8,330,5,42,127,1344587384
6,20,Ticks_Linear_8,331,1,48,29,1344610048
6,20,Ticks_Linear_8,332,1,48,33,1345069140
6,20,Ticks_Linear_8,333,5,42,127,1345076524
6,20,Ticks_Linear_8,334,1,48,35,1345516948
6,20,Ticks_Linear_8,335,5,42,127,1345567160
6,20,Ticks_Linear_8,336,1,48,33,1346035664
6,20,Ticks_Linear_8,337,5,42,127,1346056524
6,20,Ticks_Linear_8,0,9999,9999,9999,1235494972
6,20,Ticks_Linear_8,1,9999,9999,9999,1236314188
6,20,Ticks_Linear_8,2,9999,9999,9999,1237134448
6,20,Ticks_Linear_8,3,9999,9999,9999,1237954672
6,20,Ticks_Linear_8,4,9999,9999,9999,1238774884
6,20,Ticks_Linear_8,5,9999,9999,9999,1239584868
6,20,Ticks_Linear_8,6,9999,9999,9999,1240394852
6,20,Ticks_Linear_8,7,9999,9999,9999,1241204832
6,20,Ticks_Linear_8,8,9999,9999,9999,1242014816
6,20,Ticks_Linear_8,9,9999,9999,9999,1242824804
6,20,Ticks_Linear_8,10,9999,9999,9999,1243624548
6,20,Ticks_Linear_8,11,9999,9999,9999,1244424272
6,20,Ticks_Linear_8,12,9999,9999,9999,1245225044
6,20,Ticks_Linear_8,13,9999,9999,9999,1246024764
6,20,Ticks_Linear_8,14,9999,9999,9999,1246824564
6,20,Ticks_Linear_8,15,9999,9999,9999,1247615076
6,20,Ticks_Linear_8,16,9999,9999,9999,1248404548
6,20,Ticks_Linear_8,17,9999,9999,9999,1249195136
6,20,Ticks_Linear_8,18,9999,9999,9999,1249994852
6,20,Ticks_Linear_8,19,9999,9999,9999,1250784316
6,20,Ticks_Linear_8,20,9999,9999,9999,1251564668
6,20,Ticks_Linear_8,21,9999,9999,9999,1252344932
6,20,Ticks_Linear_8,22,9999,9999,9999,1253124212
6,20,Ticks_Linear_8,23,9999,9999,9999,1253904456
6,20,Ticks_Linear_8,24,9999,9999,9999,1254684784
6,20,Ticks_Linear_8,25,9999,9999,9999,1255454800
6,20,Ticks_Linear_8,26,9999,9999,9999,1256224852
6,20,Ticks_Linear_8,27,9999,9999,9999,1256994912
6,20,Ticks_Linear_8,28,9999,9999,9999,1257764980
6,20,Ticks_Linear_8,29,9999,9999,9999,1258534980
6,20,Ticks_Linear_8,30,9999,9999,9999,1259294788
6,20,Ticks_Linear_8,31,9999,9999,9999,1260054600
6,20,Ticks_Linear_8,32,9999,9999,9999,1260814412
6,20,Ticks_Linear_8,33,9999,9999,9999,1261574212
6,20,Ticks_Linear_8,34,9999,9999,9999,1262335068
6,20,Ticks_Linear_8,35,9999,9999,9999,1263084624
6,20,Ticks_Linear_8,36,9999,9999,9999,1263834216
6,20,Ticks_Linear_8,37,9999,9999,9999,1264584812
6,20,Ticks_Linear_8,38,9999,9999,9999,1265334360
6,20,Ticks_Linear_8,39,9999,9999,9999,1266084956
6,20,Ticks_Linear_8,40,9999,9999,9999,1266824248
6,20,Ticks_Linear_8,41,9999,9999,9999,1267564660
6,20,Ticks_Linear_8,42,9999,9999,9999,1268304996
6,20,Ticks_Linear_8,43,9999,9999,9999,1269044284
6,20,Ticks_Linear_8,44,9999,9999,9999,1269784696
6,20,Ticks_Linear_8,45,9999,9999,9999,1270514776
6,20,Ticks_Linear_8,46,9999,9999,9999,1271244912
6,20,Ticks_Linear_8,47,9999,9999,9999,1271974988
6,20,Ticks_Linear_8,48,9999,9999,9999,1272704088
6,20,Ticks_Linear_8,49,9999,9999,9999,1273434164
6,20,Ticks_Linear_8,50,9999,9999,9999,1274155112
6,20,Ticks_Linear_8,51,9999,9999,9999,1274884212
6,20,Ticks_Linear_8,52,9999,9999,9999,1275605052
6,20,Ticks_Linear_8,53,9999,9999,9999,1276324948
6,20,Ticks_Linear_8,54,9999,9999,9999,1277044844
6,20,Ticks_Linear_8,55,9999,9999,9999,1277754484
6,20,Ticks_Linear_8,56,9999,9999,9999,1278464116
6,20,Ticks_Linear_8,57,9999,9999,9999,1279174780
6,20,Ticks_Linear_8,58,9999,9999,9999,1279884404
6,20,Ticks_Linear_8,59,9999,9999,9999,1280595012
6,20,Ticks_Linear_8,60,9999,9999,9999,1281294464
6,20,Ticks_Linear_8,61,9999,9999,9999,1281994864
6,20,Ticks_Linear_8,62,9999,9999,9999,1282694240
6,20,Ticks_Linear_8,63,9999,9999,9999,1283394656
6,20,Ticks_Linear_8,64,9999,9999,9999,1284095080
6,20,Ticks_Linear_8,65,9999,9999,9999,1284784252
6,20,Ticks_Linear_8,66,9999,9999,9999,1285474416
6,20,Ticks_Linear_8,67,9999,9999,9999,1286164572
6,20,Ticks_Linear_8,68,9999,9999,9999,1286854712
6,20,Ticks_Linear_8,69,9999,9999,9999,1287544956
6,20,Ticks_Linear_8,70,9999,9999,9999,1288224860
6,20,Ticks_Linear_8,71,9999,9999,9999,1288904812
6,20,Ticks_Linear_8,72,9999,9999,9999,1289584712
6,20,Ticks_Linear_8,73,9999,9999,9999,1290264688
6,20,Ticks_Linear_8,74,9999,9999,9999,1290944568
6,20,Ticks_Linear_8,75,9999,9999,9999,1291614296
6,20,Ticks_Linear_8,76,9999,9999,9999,1292284988
6,20,Ticks_Linear_8,77,9999,9999,9999,1292954680
6,20,Ticks_Linear_8,78,9999,9999,9999,1293624392
6,20,Ticks_Linear_8,79,9999,9999,9999,1294294088
6,20,Ticks_Linear_8,80,9999,9999,9999,1294954600
6,20,Ticks_Linear_8,81,9999,9999,9999,1295615104
6,20,Ticks_Linear_8,82,9999,9999,9999,1296274536
6,20,Ticks_Linear_8,83,9999,9999,9999,1296934968
6,20,Ticks_Linear_8,84,9999,9999,9999,1297594480
6,20,Ticks_Linear_8,85,9999,9999,9999,1298244724
6,20,Ticks_Linear_8,86,9999,9999,9999,1298894948
6,20,Ticks_Linear_8,87,9999,9999,9999,1299544148
6,20,Ticks_Linear_8,88,9999,9999,9999,1300194372
6,20,Ticks_Linear_8,89,9999,9999,9999,1300844628
6,20,Ticks_Linear_8,90,9999,9999,9999,1301484616
6,20,Ticks_Linear_8,91,9999,9999,9999,1302124656
6,20,Ticks_Linear_8,92,9999,9999,9999,1302764640
6,20,Ticks_Linear_8,93,9999,9999,9999,1303404608
6,20,Ticks_Linear_8,94,9999,9999,9999,1304044664
6,20,Ticks_Linear_8,95,9999,9999,9999,1304674372
6,20,Ticks_Linear_8,96,9999,9999,9999,1305304152
6,20,Ticks_Linear_8,97,9999,9999,9999,1305934928
6,20,Ticks_Linear_8,98,9999,9999,9999,1306564708
6,20,Ticks_Linear_8,99,9999,9999,9999,1307194440
6,20,Ticks_Linear_8,100,9999,9999,9999,1307815012
6,20,Ticks_Linear_8,101,9999,9999,9999,1308434556
6,20,Ticks_Linear_8,102,9999,9999,9999,1309055044
6,20,Ticks_Linear_8,103,9999,9999,9999,1309674596
6,20,Ticks_Linear_8,104,9999,9999,9999,1310294108
6,20,Ticks_Linear_8,105,9999,9999,9999,1310904416
6,20,Ticks_Linear_8,106,9999,9999,9999,1311514748
6,20,Ticks_Linear_8,107,9999,9999,9999,1312124984
6,20,Ticks_Linear_8,108,9999,9999,9999,1312734324
6,20,Ticks_Linear_8,109,9999,9999,9999,1313344580
6,20,Ticks_Linear_8,110,9999,9999,9999,1313944632
6,20,Ticks_Linear_8,111,9999,9999,9999,1314544704
6,20,Ticks_Linear_8,112,9999,9999,9999,1315144828
6,20,Ticks_Linear_8,113,9999,9999,9999,1315744872
6,20,Ticks_Linear_8,114,9999,9999,9999,1316344944
6,20,Ticks_Linear_8,115,9999,9999,9999,1316934740
6,20,Ticks_Linear_8,116,9999,9999,9999,1317524604
6,20,Ticks_Linear_8,117,9999,9999,9999,1318114396
6,20,Ticks_Linear_8,118,9999,9999,9999,1318704252
6,20,Ticks_Linear_8,119,9999,9999,9999,1319295096
6,20,Ticks_Linear_8,120,9999,9999,9999,1319874624
6,20,Ticks_Linear_8,121,9999,9999,9999,1320454252
6,20,Ticks_Linear_8,122,9999,9999,9999,1321034832
6,20,Ticks_Linear_8,123,9999,9999,9999,1321614436
6,20,Ticks_Linear_8,124,9999,9999,9999,1322195004
6,20,Ticks_Linear_8,125,9999,9999,9999,1322764380
6,20,Ticks_Linear_8,126,9999,9999,9999,1323334776
6,20,Ticks_Linear_8,127,9999,9999,9999,1323904120
6,20,Ticks_Linear_8,128,9999,9999,9999,1324474444
6,20,Ticks_Linear_8,129,9999,9999,9999,1325044860
6,20,Ticks_Linear_8,130,9999,9999,9999,1325604924
6,20,Ticks_Linear_8,131,9999,9999,9999,1326165056
6,20,Ticks_Linear_8,132,9999,9999,9999,1326724216
6,20,Ticks_Linear_8,133,9999,9999,9999,1327284344
6,20,Ticks_Linear_8,134,9999,9999,9999,1327844428
6,20,Ticks_Linear_8,135,9999,9999,9999,1328394304
6,20,Ticks_Linear_8,136,9999,9999,9999,1328944256
6,20,Ticks_Linear_8,137,9999,9999,9999,1329494128
6,20,Ticks_Linear_8,138,9999,9999,9999,1330045052
6,20,Ticks_Linear_8,139,9999,9999,9999,1330594928
6,20,Ticks_Linear_8,140,9999,9999,9999,1331134548
6,20,Ticks_Linear_8,141,9999,9999,9999,1331674236
6,20,Ticks_Linear_8,142,9999,9999,9999,1332214852
6,20,Ticks_Linear_8,143,9999,9999,9999,1332754536
6,20,Ticks_Linear_8,144,9999,9999,9999,1333294152
6,20,Ticks_Linear_8,145,9999,9999,9999,1333824628
6,20,Ticks_Linear_8,146,9999,9999,9999,1334355032
6,20,Ticks_Linear_8,147,9999,9999,9999,1334884412
6,20,Ticks_Linear_8,148,9999,9999,9999,1335414876
6,20,Ticks_Linear_8,149,9999,9999,9999,1335944300
6,20,Ticks_Linear_8,150,9999,9999,9999,1336464444
6,20,Ticks_Linear_8,151,9999,9999,9999,1336984664
6,20,Ticks_Linear_8,152,9999,9999,9999,1337504880
6,20,Ticks_Linear_8,153,9999,9999,9999,1338025024
6,20,Ticks_Linear_8,154,9999,9999,9999,1338544204
6,20,Ticks_Linear_8,155,9999,9999,9999,1339054156
6,20,Ticks_Linear_8,156,9999,9999,9999,1339564124
6,20,Ticks_Linear_8,157,9999,9999,9999,1340075124
6,20,Ticks_Linear_8,158,9999,9999,9999,1340594296
6,20,Ticks_Linear_8,159,9999,9999,9999,1341104184
6,20,Ticks_Linear_8,160,9999,9999,9999,1341604932
6,20,Ticks_Linear_8,161,9999,9999,9999,1342104636
6,20,Ticks_Linear_8,162,9999,9999,9999,1342604412
6,20,Ticks_Linear_8,163,9999,9999,9999,1343104104
6,20,Ticks_Linear_8,164,9999,9999,9999,1343604852
6,20,Ticks_Linear_8,165,9999,9999,9999,1344094292
6,20,Ticks_Linear_8,166,9999,9999,9999,1344584788
6,20,Ticks_Linear_8,167,9999,9999,9999,1345074296
6,20,Ticks_Linear_8,168,9999,9999,9999,1345564784
6,20,Ticks_Linear_8,169,9999,9999,9999,1346054224
7,10,Ticks_ISO_T2_5,0,5,42,127,1354579272
7,10,Ticks_ISO_T2_5,1,5,42,127,1355079284
7,10,Ticks_ISO_T2_5,2,1,48,41,1355567892
7,10,Ticks_ISO_T2_5,3,5,42,127,1355578624
7,10,Ticks_ISO_T2_5,4,1,48,40,1356045524
7,10,Ticks_ISO_T2_5,5,5,42,127,1356078316
7,10,Ticks_ISO_T2_5,6,1,48,40,1356558976
7,10,Ticks_ISO_T2_5,7,5,42,127,1356579356
7,10,Ticks_ISO_T2_5,8,1,48,40,1357052992
7,10,Ticks_ISO_T2_5,9,5,42,127,1357078756
7,10,Ticks_ISO_T2_5,10,1,48,44,1357545952
7,10,Ticks_ISO_T2_5,11,5,42,127,1357578672
7,10,Ticks_ISO_T2_5,12,1,48,35,1358074740
7,10,Ticks_ISO_T2_5,13,5,42,127,1358079264
7,10,Ticks_ISO_T2_5,14,5,42,127,1358579264
7,10,Ticks_ISO_T2_5,15,1,48,27,1358582456
7,10,Ticks_ISO_T2_5,16,1,48,43,1359060864
7,10,Ticks_ISO_T2_5,17,5,42,127,1359078728
7,10,Ticks_ISO_T2_5,18,1,48,37,1359578028
7,10,Ticks_ISO_T2_5,19,5,42,127,1359579520
7,10,Ticks_ISO_T2_5,20,5,42,127,1360079148
7,10,Ticks_ISO_T2_5,21,1,48,33,1360112284
7,10,Ticks_ISO_T2_5,22,5,42,127,1360579064
7,10,Ticks_ISO_T2_5,23,1,48,35,1360597296
7,10,Ticks_ISO_T2_5,24,1,48,39,1361041920
7,10,Ticks_ISO_T2_5,25,5,42,127,1361078532
7,10,Ticks_ISO_T2_5,26,1,48,38,1361555752
7,10,Ticks_ISO_T2_5,27,5,42,127,1361579420
7,10,Ticks_ISO_T2_5,28,1,48,38,1362011464
7,10,Ticks_ISO_T2_5,29,5,42,127,1362079116
7,10,Ticks_ISO_T2_5,30,1,48,29,1362575932
7,10,Ticks_ISO_T2_5,31,5,42,127,1362578660
7,10,Ticks_ISO_T2_5,32,1,48,41,1363055656
7,10,Ticks_ISO_T2_5,33,5,42,127,1363078504
7,10,Ticks_ISO_T2_5,34,1,48,39,1363571060
7,10,Ticks_ISO_T2_5,35,5,42,127,1363579096
7,10,Ticks_ISO_T2_5,36,5,42,127,1364078948
7,10,Ticks_ISO_T2_5,37,1,48,34,1364088276
7,10,Ticks_ISO_T2_5,38,1,48,41,1364571792
7,10,Ticks_ISO_T2_5,39,5,42,127,1364578636
7,10,Ticks_ISO_T2_5,40,1,48,40,1365042016
7,10,Ticks_ISO_T2_5,41,5,42,127,1365079452
7,10,Ticks_ISO_T2_5,42,1,48,38,1365546128
7,10,Ticks_ISO_T2_5,43,5,42,127,1365579220
7,10,Ticks_ISO_T2_5,44,5,42,127,1366078996
7,10,Ticks_ISO_T2_5,45,1,48,34,1366100736
7,10,Ticks_ISO_T2_5,46,1,48,32,1366573488
7,10,Ticks_ISO_T2_5,47,5,42,127,1366578608
7,10,Ticks_ISO_T2_5,48,1,48,37,1367065252
7,10,Ticks_ISO_T2_5,49,5,42,127,1367079204
7,10,Ticks_ISO_T2_5,50,1,48,30,1367534956
7,10,Ticks_ISO_T2_5,51,5,42,127,1367579044
7,10,Ticks_ISO_T2_5,52,1,48,41,1368050432
7,10,Ticks_ISO_T2_5,53,5,42,127,1368078664
7,10,Ticks_ISO_T2_5,54,1,48,40,1368567776
7,10,Ticks_ISO_T2_5,55,5,42,127,1368578432
7,10,Ticks_ISO_T2_5,56,5,42,127,1369079108
7,10,Ticks_ISO_T2_5,57,1,48,31,1369105260
7,10,Ticks_ISO_T2_5,58,1,48,39,1369566324
7,10,Ticks_ISO_T2_5,59,5,42,127,1369578944
7,10,Ticks_ISO_T2_5,60,1,48,38,1370028168
7,10,Ticks_ISO_T2_5,61,5,42,127,1370078540
7,10,Ticks_ISO_T2_5,62,1,48,34,1370566084
7,10,Ticks_ISO_T2_5,63,5,42,127,1370579432
7,10,Ticks_ISO_T2_5,64,1,48,36,1371066752
7,10,Ticks_ISO_T2_5,65,5,42,127,1371079052
7,10,Ticks_ISO_T2_5,66,1,48,39,1371556344
7,10,Ticks_ISO_T2_5,67,5,42,127,1371578896
7,10,Ticks_ISO_T2_5,68,1,48,39,1372069208
7,10,Ticks_ISO_T2_5,69,5,42,127,1372078368
7,10,Ticks_ISO_T2_5,70,1,48,36,1372545416
7,10,Ticks_ISO_T2_5,71,5,42,127,1372579108
7,10,Ticks_ISO_T2_5,72,1,48,47,1373046008
7,10,Ticks_ISO_T2_5,73,5,42,127,1373079028
7,10,Ticks_ISO_T2_5,74,1,48,30,1373569936
7,10,Ticks_ISO_T2_5,75,5,42,127,1373578500
7,10,Ticks_ISO_T2_5,76,1,48,39,1374075660
7,10,Ticks_ISO_T2_5,77,5,42,127,1374079436
7,10,Ticks_ISO_T2_5,78,1,48,30,1374573560
7,10,Ticks_ISO_T2_5,79,5,42,127,1374578984
7,10,Ticks_ISO_T2_5,80,1,48,36,1375061884
7,10,Ticks_ISO_T2_5,81,5,42,127,1375079052
7,10,Ticks_ISO_T2_5,82,1,48,41,1375555372
7,10,Ticks_ISO_T2_5,83,5,42,127,1375578448
7,10,Ticks_ISO_T2_5,84,1,48,40,1376057016
7,10,Ticks_ISO_T2_5,85,5,42,127,1376079264
7,10,Ticks_ISO_T2_5,86,5,42,127,1376578892
7,10,Ticks_ISO_T2_5,87,1,48,43,1377021124
7,10,Ticks_ISO_T2_5,88,5,42,127,1377078824
7,10,Ticks_ISO_T2_5,89,1,48,38,1377534428
7,10,Ticks_ISO_T2_5,90,5,42,127,1377579340
7,10,Ticks_ISO_T2_5,91,1,48,42,1378044888
7,10,Ticks_ISO_T2_5,92,5,42,127,1378078960
7,10,Ticks_ISO_T2_5,93,1,48,41,1378543612
7,10,Ticks_ISO_T2_5,94,5,42,127,1378578880
7,10,Ticks_ISO_T2_5,95,1,48,37,1379068368
7,10,Ticks_ISO_T2_5,96,5,42,127,1379078424
7,10,Ticks_ISO_T2_5,97,1,48,38,1379571728
7,10,Ticks_ISO_T2_5,98,5,42,127,1379579164
7,10,Ticks_ISO_T2_5,99,5,42,127,1380079016
7,10,Ticks_ISO_T2_5,100,1,48,44,1380085648
7,10,Ticks_ISO_T2_5,101,1,48,48,1380572808
7,10,Ticks_ISO_T2_5,102,5,42,127,1380578704
7,10,Ticks_ISO_T2_5,103,1,48,45,1381048868
7,10,Ticks_ISO_T2_5,104,5,42,127,1381079272
7,10,Ticks_ISO_T2_5,105,1,48,46,1381548788
7,10,Ticks_ISO_T2_5,106,5,42,127,1381579040
7,10,Ticks_ISO_T2_5,107,1,48,47,1382041076
7,10,Ticks_ISO_T2_5,108,5,42,127,1382078808
7,10,Ticks_ISO_T2_5,109,5,42,127,1382578660
7,10,Ticks_ISO_T2_5,110,1,48,47,1382580596
7,10,Ticks_ISO_T2_5,111,1,48,37,1383077972
7,10,Ticks_ISO_T2_5,112,5,42,127,1383079320
7,10,Ticks_ISO_T2_5,113,1,48,38,1383574568
7,10,Ticks_ISO_T2_5,114,5,42,127,1383578940
7,10,Ticks_ISO_T2_5,115,5,42,127,1384078868
7,10,Ticks_ISO_T2_5,116,1,48,38,1384102108
7,10,Ticks_ISO_T2_5,117,5,42,127,1384578264
7,10,Ticks_ISO_T2_5,118,1,48,41,1384603592
7,10,Ticks_ISO_T2_5,119,1,48,45,1385076792
7,10,Ticks_ISO_T2_5,120,5,42,127,1385079220
7,10,Ticks_ISO_T2_5,121,1,48,43,1385558312
7,10,Ticks_ISO_T2_5,122,5,42,127,1385578840
7,10,Ticks_ISO_T2_5,123,1,48,36,1386069896
7,10,Ticks_ISO_T2_5,124,5,42,127,1386078756
7,10,Ticks_ISO_T2_5,125,1,48,40,1386576472
7,10,Ticks_ISO_T2_5,126,5,42,127,1386579200
7,10,Ticks_ISO_T2_5,127,1,48,47,1387028896
7,10,Ticks_ISO_T2_5,128,5,42,127,1387079044
7,10,Ticks_ISO_T2_5,129,1,48,44,1387534048
7,10,Ticks_ISO_T2_5,130,5,42,127,1387579112
7,10,Ticks_ISO_T2_5,131,1,48,46,1388038460
7,10,Ticks_ISO_T2_5,132,5,42,127,1388078360
7,10,Ticks_ISO_T2_5,133,1,48,47,1388538824
7,10,Ticks_ISO_T2_5,134,5,42,127,1388579104
7,10,Ticks_ISO_T2_5,135,1,48,47,1389057148
7,10,Ticks_ISO_T2_5,136,5,42,127,1389078872
7,10,Ticks_ISO_T2_5,137,1,48,33,1389569484
7,10,Ticks_ISO_T2_5,138,5,42,127,1389578788
7,10,Ticks_ISO_T2_5,139,5,42,127,1390079388
7,10,Ticks_ISO_T2_5,140,1,48,40,1390086328
7,10,Ticks_ISO_T2_5,141,1,48,36,1390548504
7,10,Ticks_ISO_T2_5,142,5,42,127,1390578928
7,10,Ticks_ISO_T2_5,143,1,48,37,1391055448
7,10,Ticks_ISO_T2_5,144,5,42,127,1391078848
7,10,Ticks_ISO_T2_5,145,1,48,32,1391534128
7,10,Ticks_ISO_T2_5,146,5,42,127,1391578740
7,10,Ticks_ISO_T2_5,147,1,48,22,1392028064
7,10,Ticks_ISO_T2_5,148,5,42,127,1392079260
7,10,Ticks_ISO_T2_5,149,1,48,30,1392525740
7,10,Ticks_ISO_T2_5,150,5,42,127,1392579028
7,10,Ticks_ISO_T2_5,151,1,48,33,1393017060
7,10,Ticks_ISO_T2_5,152,5,42,127,1393078872
7,10,Ticks_ISO_T2_5,153,1,48,31,1393502392
7,10,Ticks_ISO_T2_5,154,5,42,127,1393579244
7,10,Ticks_ISO_T2_5,155,1,48,31,1394025872
7,10,Ticks_ISO_T2_5,156,5,42,127,1394078936
7,10,Ticks_ISO_T2_5,157,1,48,42,1394507540
7,10,Ticks_ISO_T2_5,158,5,42,127,1394578932
7,10,Ticks_ISO_T2_5,159,1,48,45,1394986960
7,10,Ticks_ISO_T2_5,160,5,42,127,1395078700
7,10,Ticks_ISO_T2_5,161,1,48,40,1395511568
7,10,Ticks_ISO_T2_5,162,5,42,127,1395579368
7,10,Ticks_ISO_T2_5,163,1,48,21,1396021956
7,10,Ticks_ISO_T2_5,164,5,42,127,1396079064
7,10,Ticks_ISO_T2_5,165,1,48,40,1396560324
7,10,Ticks_ISO_T2_5,166,5,42,127,1396578832
7,10,Ticks_ISO_T2_5,167,1,48,35,1397066672
7,10,Ticks_ISO_T2_5,168,5,42,127,1397079352
7,10,Ticks_ISO_T2_5,169,1,48,43,1397568388
7,10,Ticks_ISO_T2_5,170,5,42,127,1397578972
7,10,Ticks_ISO_T2_5,171,1,48,39,1398067712
7,10,Ticks_ISO_T2_5,172,5,42,127,1398078816
7,10,Ticks_ISO_T2_5,173,1,48,39,1398570916
7,10,Ticks_ISO_T2_5,174,5,42,127,1398578732
7,10,Ticks_ISO_T2_5,175,1,48,38,1399045104
7,10,Ticks_ISO_T2_5,176,5,42,127,1399079252
7,10,Ticks_ISO_T2_5,177,1,48,37,1399556920
7,10,Ticks_ISO_T2_5,178,5,42,127,1399578948
7,10,Ticks_ISO_T2_5,179,1,48,45,1400035972
7,10,Ticks_ISO_T2_5,180,5,42,127,1400078644
7,10,Ticks_ISO_T2_5,181,1,48,44,1400545836
7,10,Ticks_ISO_T2_5,182,5,42,127,1400578484
7,10,Ticks_ISO_T2_5,183,1,48,44,1401030548
7,10,Ticks_ISO_T2_5,184,5,42,127,1401079152
7,10,Ticks_ISO_T2_5,185,1,48,46,1401530544
7,10,Ticks_ISO_T2_5,186,5,42,127,1401578844
7,10,Ticks_ISO_T2_5,187,1,48,38,1402044896
7,10,Ticks_ISO_T2_5,188,5,42,127,1402078664
7,10,Ticks_ISO_T2_5,189,1,48,45,1402519960
7,10,Ticks_ISO_T2_5,190,5,42,127,1402579456
7,10,Ticks_ISO_T2_5,191,1,48,40,1403032964
7,10,Ticks_ISO_T2_5,192,5,42,127,1403079076
7,10,Ticks_ISO_T2_5,193,1,48,43,1403540140
7,10,Ticks_ISO_T2_5,194,5,42,127,1403578696
7,10,Ticks_ISO_T2_5,195,1,48,47,1404044172
7,10,Ticks_ISO_T2_5,196,5,42,127,1404078540
7,10,Ticks_ISO_T2_5,197,1,48,38,1404555084
7,10,Ticks_ISO_T2_5,198,5,42,127,1404579208
7,10,Ticks_ISO_T2_5,199,1,48,41,1405050972
7,10,Ticks_ISO_T2_5,200,5,42,127,1405078900
7,10,Ticks_ISO_T2_5,201,1,48,30,1405561356
7,10,Ticks_ISO_T2_5,202,5,42,127,1405578672
7,10,Ticks_ISO_T2_5,203,1,48,38,1406024620
7,10,Ticks_ISO_T2_5,204,5,42,127,1406079484
7,10,Ticks_ISO_T2_5,205,1,48,36,1406534640
7,10,Ticks_ISO_T2_5,206,5,42,127,1406578960
7,10,Ticks_ISO_T2_5,207,1,48,38,1407055132
7,10,Ticks_ISO_T2_5,208,5,42,127,1407078804
7,10,Ticks_ISO_T2_5,209,1,48,27,1407570532
7,10,Ticks_ISO_T2_5,210,5,42,127,1407578572
7,10,Ticks_ISO_T2_5,211,1,48,32,1408064316
7,10,Ticks_ISO_T2_5,212,5,42,127,1408079240
7,10,Ticks_ISO_T2_5,213,1,48,44,1408558260
7,10,Ticks_ISO_T2_5,214,5,42,127,1408578860
7,10,Ticks_ISO_T2_5,215,1,48,33,1409063932
7,10,Ticks_ISO_T2_5,216,5,42,127,1409078628
7,10,Ticks_ISO_T2_5,217,1,48,39,1409550764
7,10,Ticks_ISO_T2_5,218,5,42,127,1409579444
7,10,Ticks_ISO_T2_5,219,1,48,43,1410077556
7,10,Ticks_ISO_T2_5,220,5,42,127,1410078992
7,10,Ticks_ISO_T2_5,221,1,48,32,1410541252
7,10,Ticks_ISO_T2_5,222,5,42,127,1410578760
7,10,Ticks_ISO_T2_5,223,1,48,25,1411060540
7,10,Ticks_ISO_T2_5,224,5,42,127,1411078456
7,10,Ticks_ISO_T2_5,225,1,48,46,1411560236
7,10,Ticks_ISO_T2_5,226,5,42,127,1411579568
7,10,Ticks_ISO_T2_5,227,1,48,38,1412035520
7,10,Ticks_ISO_T2_5,228,5,42,127,1412078892
7,10,Ticks_ISO_T2_5,229,1,48,28,1412576924
7,10,Ticks_ISO_T2_5,230,5,42,127,1412578512
7,10,Ticks_ISO_T2_5,231,1,48,37,1413057584
7,10,Ticks_ISO_T2_5,232,5,42,127,1413079604
7,10,Ticks_ISO_T2_5,233,1,48,35,1413570964
7,10,Ticks_ISO_T2_5,234,5,42,127,1413579000
7,10,Ticks_ISO_T2_5,235,1,48,41,1414074992
7,10,Ticks_ISO_T2_5,236,5,42,127,1414078916
7,10,Ticks_ISO_T2_5,237,1,48,46,1414536992
7,10,Ticks_ISO_T2_5,238,5,42,127,1414578540
7,10,Ticks_ISO_T2_5,239,1,48,43,1415032348
7,10,Ticks_ISO_T2_5,240,5,42,127,1415079504
7,10,Ticks_ISO_T2_5,241,1,48,33,1415523816
7,10,Ticks_ISO_T2_5,242,5,42,127,1415578980
7,10,Ticks_ISO_T2_5,243,1,48,52,1416048272
7,10,Ticks_ISO_T2_5,244,5,42,127,1416078672
7,10,Ticks_ISO_T2_5,245,5,42,127,1416578372
7,10,Ticks_ISO_T2_5,246,1,48,48,1416579340
7,10,Ticks_ISO_T2_5,247,5,42,127,1417079336
7,10,Ticks_ISO_T2_5,248,1,48,43,1417103024
7,10,Ticks_ISO_T2_5,249,1,48,41,1417554604
7,10,Ticks_ISO_T2_5,250,5,42,127,1417578876
7,10,Ticks_ISO_T2_5,251,1,48,43,1418033212
7,10,Ticks_ISO_T2_5,252,5,42,127,1418078496
7,10,Ticks_ISO_T2_5,253,1,48,44,1418529312
7,10,Ticks_ISO_T2_5,254,5,42,127,1418579536
7,10,Ticks_ISO_T2_5,255,1,48,50,1419050844
7,10,Ticks_ISO_T2_5,256,5,42,127,1419079008
7,10,Ticks_ISO_T2_5,0,9999,9999,9999,1354576984
7,10,Ticks_ISO_T2_5,1,9999,9999,9999,1355076700
7,10,Ticks_ISO_T2_5,2,9999,9999,9999,1355576412
7,10,Ticks_ISO_T2_5,3,9999,9999,9999,1356076108
7,10,Ticks_ISO_T2_5,4,9999,9999,9999,1356576848
7,10,Ticks_ISO_T2_5,5,9999,9999,9999,1357076544
7,10,Ticks_ISO_T2_5,6,9999,9999,9999,1357576312
7,10,Ticks_ISO_T2_5,7,9999,9999,9999,1358076980
7,10,Ticks_ISO_T2_5,8,9999,9999,9999,1358576756
7,10,Ticks_ISO_T2_5,9,9999,9999,9999,1359076444
7,10,Ticks_ISO_T2_5,10,9999,9999,9999,1359576120
7,10,Ticks_ISO_T2_5,11,9999,9999,9999,1360076860
7,10,Ticks_ISO_T2_5,12,9999,9999,9999,1360576628
7,10,Ticks_ISO_T2_5,13,9999,9999,9999,1361076320
7,10,Ticks_ISO_T2_5,14,9999,9999,9999,1361577060
7,10,Ticks_ISO_T2_5,15,9999,9999,9999,1362076756
7,10,Ticks_ISO_T2_5,16,9999,9999,9999,1362576448
7,10,Ticks_ISO_T2_5,17,9999,9999,9999,1363076220
7,10,Ticks_ISO_T2_5,18,9999,9999,9999,1363576884
7,10,Ticks_ISO_T2_5,19,9999,9999,9999,1364076660
7,10,Ticks_ISO_T2_5,20,9999,9999,9999,1364576348
7,10,Ticks_ISO_T2_5,21,9999,9999,9999,1365077088
7,10,Ticks_ISO_T2_5,22,9999,9999,9999,1365576784
7,10,Ticks_ISO_T2_5,23,9999,9999,9999,1366076484
7,10,Ticks_ISO_T2_5,24,9999,9999,9999,1366576248
7,10,Ticks_ISO_T2_5,25,9999,9999,9999,1367076916
7,10,Ticks_ISO_T2_5,26,9999,9999,9999,1367576684
7,10,Ticks_ISO_T2_5,27,9999,9999,9999,1368076380
7,10,Ticks_ISO_T2_5,28,9999,9999,9999,1368576072
7,10,Ticks_ISO_T2_5,29,9999,9999,9999,1369076820
7,10,Ticks_ISO_T2_5,30,9999,9999,9999,1369576508
7,10,Ticks_ISO_T2_5,31,9999,9999,9999,1370076252
7,10,Ticks_ISO_T2_5,32,9999,9999,9999,1370576996
7,10,Ticks_ISO_T2_5,33,9999,9999,9999,1371076692
7,10,Ticks_ISO_T2_5,34,9999,9999,9999,1371576384
7,10,Ticks_ISO_T2_5,35,9999,9999,9999,1372076156
7,10,Ticks_ISO_T2_5,36,9999,9999,9999,1372576824
7,10,Ticks_ISO_T2_5,37,9999,9999,9999,1373076592
7,10,Ticks_ISO_T2_5,38,9999,9999,9999,1373576288
7,10,Ticks_ISO_T2_5,39,9999,9999,9999,1374077004
7,10,Ticks_ISO_T2_5,40,9999,9999,9999,1374576696
7,10,Ticks_ISO_T2_5,41,9999,9999,9999,1375076468
7,10,Ticks_ISO_T2_5,42,9999,9999,9999,1375576160
7,10,Ticks_ISO_T2_5,43,9999,9999,9999,1376076904
7,10,Ticks_ISO_T2_5,44,9999,9999,9999,1376576604
7,10,Ticks_ISO_T2_5,45,9999,9999,9999,1377076316
7,10,Ticks_ISO_T2_5,46,9999,9999,9999,1377577056
7,10,Ticks_ISO_T2_5,47,9999,9999,9999,1378076748
7,10,Ticks_ISO_T2_5,48,9999,9999,9999,1378576444
7,10,Ticks_ISO_T2_5,49,9999,9999,9999,1379076212
7,10,Ticks_ISO_T2_5,50,9999,9999,9999,1379576952
7,10,Ticks_ISO_T2_5,51,9999,9999,9999,1380076656
7,10,Ticks_ISO_T2_5,52,9999,9999,9999,1380576316
7,10,Ticks_ISO_T2_5,53,9999,9999,9999,1381077060
7,10,Ticks_ISO_T2_5,54,9999,9999,9999,1381576756
7,10,Ticks_ISO_T2_5,55,9999,9999,9999,1382076524
7,10,Ticks_ISO_T2_5,56,9999,9999,9999,1382576224
7,10,Ticks_ISO_T2_5,57,9999,9999,9999,1383076968
7,10,Ticks_ISO_T2_5,58,9999,9999,9999,1383576656
7,10,Ticks_ISO_T2_5,59,9999,9999,9999,1384076356
7,10,Ticks_ISO_T2_5,60,9999,9999,9999,1384576052
7,10,Ticks_ISO_T2_5,61,9999,9999,9999,1385076860
7,10,Ticks_ISO_T2_5,62,9999,9999,9999,1385576556
7,10,Ticks_ISO_T2_5,63,9999,9999,9999,1386076248
7,10,Ticks_ISO_T2_5,64,9999,9999,9999,1386576988
7,10,Ticks_ISO_T2_5,65,9999,9999,9999,1387076684
7,10,Ticks_ISO_T2_5,66,9999,9999,9999,1387576380
7,10,Ticks_ISO_T2_5,67,9999,9999,9999,1388076148
7,10,Ticks_ISO_T2_5,68,9999,9999,9999,1388576888
7,10,Ticks_ISO_T2_5,69,9999,9999,9999,1389076584
7,10,Ticks_ISO_T2_5,70,9999,9999,9999,1389576280
7,10,Ticks_ISO_T2_5,71,9999,9999,9999,1390077028
7,10,Ticks_ISO_T2_5,72,9999,9999,9999,1390576716
7,10,Ticks_ISO_T2_5,73,9999,9999,9999,1391076412
7,10,Ticks_ISO_T2_5,74,9999,9999,9999,1391576156
7,10,Ticks_ISO_T2_5,75,9999,9999,9999,1392076900
7,10,Ticks_ISO_T2_5,76,9999,9999,9999,1392576592
7,10,Ticks_ISO_T2_5,77,9999,9999,9999,1393076288
7,10,Ticks_ISO_T2_5,78,9999,9999,9999,1393577032
7,10,Ticks_ISO_T2_5,79,9999,9999,9999,1394076724
7,10,Ticks_ISO_T2_5,80,9999,9999,9999,1394576496
7,10,Ticks_ISO_T2_5,81,9999,9999,9999,1395076192
7,10,Ticks_ISO_T2_5,82,9999,9999,9999,1395576932
7,10,Ticks_ISO_T2_5,83,9999,9999,9999,1396076628
7,10,Ticks_ISO_T2_5,84,9999,9999,9999,1396576324
7,10,Ticks_ISO_T2_5,85,9999,9999,9999,1397077064
7,10,Ticks_ISO_T2_5,86,9999,9999,9999,1397576760
7,10,Ticks_ISO_T2_5,87,9999,9999,9999,1398076528
7,10,Ticks_ISO_T2_5,88,9999,9999,9999,1398576224
7,10,Ticks_ISO_T2_5,89,9999,9999,9999,1399076968
7,10,Ticks_ISO_T2_5,90,9999,9999,9999,1399576660
7,10,Ticks_ISO_T2_5,91,9999,9999,9999,1400076356
7,10,Ticks_ISO_T2_5,92,9999,9999,9999,1400576052
7,10,Ticks_ISO_T2_5,93,9999,9999,9999,1401076792
7,10,Ticks_ISO_T2_5,94,9999,9999,9999,1401576560
7,10,Ticks_ISO_T2_5,95,9999,9999,9999,1402076228
7,10,Ticks_ISO_T2_5,96,9999,9999,9999,1402576948
7,10,Ticks_ISO_T2_5,97,9999,9999,9999,1403076716
7,10,Ticks_ISO_T2_5,98,9999,9999,9999,1403576412
7,10,Ticks_ISO_T2_5,99,9999,9999,9999,1404076108
7,10,Ticks_ISO_T2_5,100,9999,9999,9999,1404576848
7,10,Ticks_ISO_T2_5,101,9999,9999,9999,1405076540
7,10,Ticks_ISO_T2_5,102,9999,9999,9999,1405576312
7,10,Ticks_ISO_T2_5,103,9999,9999,9999,1406077052
7,10,Ticks_ISO_T2_5,104,9999,9999,9999,1406576748
7,10,Ticks_ISO_T2_5,105,9999,9999,9999,1407076440
7,10,Ticks_ISO_T2_5,106,9999,9999,9999,1407576136
7,10,Ticks_ISO_T2_5,107,9999,9999,9999,1408076880
7,10,Ticks_ISO_T2_5,108,9999,9999,9999,1408576572
7,10,Ticks_ISO_T2_5,109,9999,9999,9999,1409076344
7,10,Ticks_ISO_T2_5,110,9999,9999,9999,1409577012
7,10,Ticks_ISO_T2_5,111,9999,9999,9999,1410076784
7,10,Ticks_ISO_T2_5,112,9999,9999,9999,1410576476
7,10,Ticks_ISO_T2_5,113,9999,9999,9999,1411076172
7,10,Ticks_ISO_T2_5,114,9999,9999,9999,1411576912
7,10,Ticks_ISO_T2_5,115,9999,9999,9999,1412076608
7,10,Ticks_ISO_T2_5,116,9999,9999,9999,1412576312
7,10,Ticks_ISO_T2_5,117,9999,9999,9999,1413077092
7,10,Ticks_ISO_T2_5,118,9999,9999,9999,1413576788
7,10,Ticks_ISO_T2_5,119,9999,9999,9999,1414076484
7,10,Ticks_ISO_T2_5,120,9999,9999,9999,1414576180
7,10,Ticks_ISO_T2_5,121,9999,9999,9999,1415076920
7,10,Ticks_ISO_T2_5,122,9999,9999,9999,1415576692
7,10,Ticks_ISO_T2_5,123,9999,9999,9999,1416076388
7,10,Ticks_ISO_T2_5,124,9999,9999,9999,1416576088
7,10,Ticks_ISO_T2_5,125,9999,9999,9999,1417076828
7,10,Ticks_ISO_T2_5,126,9999,9999,9999,1417576516
7,10,Ticks_ISO_T2_5,127,9999,9999,9999,1418076212
7,10,Ticks_ISO_T2_5,128,9999,9999,9999,1418576952
7,10,Ticks_ISO_T2_5,129,9999,9999,9999,1419076720
8,9,Ticks_ISO_T2_8,0,5,42,127,1428796784
8,9,Ticks_ISO_T2_8,1,5,42,127,1429596464
8,9,Ticks_ISO_T2_8,2,5,42,127,1430397340
8,9,Ticks_ISO_T2_8,3,1,48,50,1430408012
8,9,Ticks_ISO_T2_8,4,5,42,127,1431197148
8,9,Ticks_ISO_T2_8,5,1,48,50,1431225320
8,9,Ticks_ISO_T2_8,6,5,42,127,1431996728
8,9,Ticks_ISO_T2_8,7,1,48,55,1432037344
8,9,Ticks_ISO_T2_8,8,5,42,127,1432796388
8,9,Ticks_ISO_T2_8,9,1,48,55,1432838124
8,9,Ticks_ISO_T2_8,10,5,42,127,1433597268
8,9,Ticks_ISO_T2_8,11,1,48,47,1433622300
8,9,Ticks_ISO_T2_8,12,5,42,127,1434397076
8,9,Ticks_ISO_T2_8,13,1,48,54,1434426292
8,9,Ticks_ISO_T2_8,14,5,42,127,1435196736
8,9,Ticks_ISO_T2_8,15,1,48,51,1435213612
8,9,Ticks_ISO_T2_8,16,5,42,127,1435996468
8,9,Ticks_ISO_T2_8,17,1,48,41,1436022920
8,9,Ticks_ISO_T2_8,18,5,42,127,1436797248
8,9,Ticks_ISO_T2_8,19,1,48,38,1436815996
8,9,Ticks_ISO_T2_8,20,1,48,48,1437573304
8,9,Ticks_ISO_T2_8,21,5,42,127,1437597196
8,9,Ticks_ISO_T2_8,22,1,48,51,1438380368
8,9,Ticks_ISO_T2_8,23,5,42,127,1438396780
8,9,Ticks_ISO_T2_8,24,1,48,55,1439165140
8,9,Ticks_ISO_T2_8,25,5,42,127,1439196592
8,9,Ticks_ISO_T2_8,26,1,48,54,1439935400
8,9,Ticks_ISO_T2_8,27,5,42,127,1439997244
8,9,Ticks_ISO_T2_8,28,5,42,127,1440797136
8,9,Ticks_ISO_T2_8,29,1,48,60,1440821496
8,9,Ticks_ISO_T2_8,30,5,42,127,1441596868
8,9,Ticks_ISO_T2_8,31,1,48,50,1441606416
8,9,Ticks_ISO_T2_8,32,5,42,127,1442396452
8,9,Ticks_ISO_T2_8,33,1,48,45,1442420816
8,9,Ticks_ISO_T2_8,34,5,42,127,1443197232
8,9,Ticks_ISO_T2_8,35,1,48,49,1443212988
8,9,Ticks_ISO_T2_8,36,1,48,51,1443995988
8,9,Ticks_ISO_T2_8,37,5,42,127,1443997480
8,9,Ticks_ISO_T2_8,38,1,48,49,1444787156
8,9,Ticks_ISO_T2_8,39,5,42,127,1444796916
8,9,Ticks_ISO_T2_8,40,5,42,127,1445596508
8,9,Ticks_ISO_T2_8,41,1,48,57,1445598144
8,9,Ticks_ISO_T2_8,42,1,48,46,1446369348
8,9,Ticks_ISO_T2_8,43,5,42,127,1446397356
8,9,Ticks_ISO_T2_8,44,5,42,127,1447197096
8,9,Ticks_ISO_T2_8,45,1,48,56,1447222356
8,9,Ticks_ISO_T2_8,46,1,48,54,1447976440
8,9,Ticks_ISO_T2_8,47,5,42,127,1447996820
8,9,Ticks_ISO_T2_8,48,5,42,127,1448796488
8,9,Ticks_ISO_T2_8,49,1,48,49,1448797452
8,9,Ticks_ISO_T2_8,50,5,42,127,1449597192
8,9,Ticks_ISO_T2_8,51,1,48,64,1449609364
8,9,Ticks_ISO_T2_8,52,5,42,127,1450397148
8,9,Ticks_ISO_T2_8,53,1,48,54,1450409168
8,9,Ticks_ISO_T2_8,54,5,42,127,1451197028
8,9,Ticks_ISO_T2_8,55,1,48,63,1451206504
8,9,Ticks_ISO_T2_8,56,1,48,62,1451985128
8,9,Ticks_ISO_T2_8,57,5,42,127,1451996384
8,9,Ticks_ISO_T2_8,58,1,48,52,1452797244
8,9,Ticks_ISO_T2_8,59,5,42,127,1452798656
8,9,Ticks_ISO_T2_8,60,5,42,127,1453596980
8,9,Ticks_ISO_T2_8,61,1,48,63,1453602864
8,9,Ticks_ISO_T2_8,62,5,42,127,1454397008
8,9,Ticks_ISO_T2_8,63,1,48,62,1454407760
8,9,Ticks_ISO_T2_8,64,5,42,127,1455196668
8,9,Ticks_ISO_T2_8,65,1,48,66,1455207568
8,9,Ticks_ISO_T2_8,66,1,48,51,1455995708
8,9,Ticks_ISO_T2_8,67,5,42,127,1455997144
8,9,Ticks_ISO_T2_8,68,1,48,62,1456766252
8,9,Ticks_ISO_T2_8,69,5,42,127,1456797100
8,9,Ticks_ISO_T2_8,70,1,48,62,1457579152
8,9,Ticks_ISO_T2_8,71,5,42,127,1457596984
8,9,Ticks_ISO_T2_8,72,1,48,55,1458354796
8,9,Ticks_ISO_T2_8,73,5,42,127,1458396792
8,9,Ticks_ISO_T2_8,74,1,48,67,1459192404
8,9,Ticks_ISO_T2_8,75,5,42,127,1459197228
8,9,Ticks_ISO_T2_8,76,1,48,57,1459985180
8,9,Ticks_ISO_T2_8,77,5,42,127,1459997256
8,9,Ticks_ISO_T2_8,78,1,48,60,1460774516
8,9,Ticks_ISO_T2_8,79,5,42,127,1460796768
8,9,Ticks_ISO_T2_8,80,1,48,51,1461570064
8,9,Ticks_ISO_T2_8,81,5,42,127,1461596800
8,9,Ticks_ISO_T2_8,82,1,48,53,1462364112
8,9,Ticks_ISO_T2_8,83,5,42,127,1462397284
8,9,Ticks_ISO_T2_8,84,1,48,52,1463192796
8,9,Ticks_ISO_T2_8,85,5,42,127,1463197016
8,9,Ticks_ISO_T2_8,86,5,42,127,1463996832
8,9,Ticks_ISO_T2_8,87,1,48,56,1464010796
8,9,Ticks_ISO_T2_8,88,1,48,48,1464772140
8,9,Ticks_ISO_T2_8,89,5,42,127,1464796708
8,9,Ticks_ISO_T2_8,90,5,42,127,1465597148
8,9,Ticks_ISO_T2_8,91,1,48,51,1465600264
8,9,Ticks_ISO_T2_8,92,1,48,54,1466362504
8,9,Ticks_ISO_T2_8,93,5,42,127,1466397020
8,9,Ticks_ISO_T2_8,94,5,42,127,1467196760
8,9,Ticks_ISO_T2_8,95,1,48,52,1467250664
8,9,Ticks_ISO_T2_8,96,5,42,127,1467996716
8,9,Ticks_ISO_T2_8,97,1,48,60,1468031996
8,9,Ticks_ISO_T2_8,98,5,42,127,1468797248
8,9,Ticks_ISO_T2_8,99,1,48,64,1468813004
8,9,Ticks_ISO_T2_8,100,5,42,127,1469596984
8,9,Ticks_ISO_T2_8,101,1,48,64,1469605336
8,9,Ticks_ISO_T2_8,102,5,42,127,1470396716
8,9,Ticks_ISO_T2_8,103,1,48,64,1470417708
8,9,Ticks_ISO_T2_8,104,5,42,127,1471196672
8,9,Ticks_ISO_T2_8,105,1,48,56,1471241256
8,9,Ticks_ISO_T2_8,106,5,42,127,1471997252
8,9,Ticks_ISO_T2_8,107,1,48,64,1472036948
8,9,Ticks_ISO_T2_8,108,5,42,127,1472796912
8,9,Ticks_ISO_T2_8,109,1,48,44,1472844604
8,9,Ticks_ISO_T2_8,110,5,42,127,1473596720
8,9,Ticks_ISO_T2_8,111,1,48,63,1473648156
8,9,Ticks_ISO_T2_8,112,5,42,127,1474396528
8,9,Ticks_ISO_T2_8,113,1,48,62,1474415500
8,9,Ticks_ISO_T2_8,114,5,42,127,1475197384
8,9,Ticks_ISO_T2_8,115,1,48,68,1475220100
8,9,Ticks_ISO_T2_8,116,5,42,127,1475996892
8,9,Ticks_ISO_T2_8,117,1,48,54,1476013624
8,9,Ticks_ISO_T2_8,118,5,42,127,1476796852
8,9,Ticks_ISO_T2_8,119,1,48,62,1476838216
8,9,Ticks_ISO_T2_8,120,1,48,60,1477575004
8,9,Ticks_ISO_T2_8,121,5,42,127,1477596728
8,9,Ticks_ISO_T2_8,122,5,42,127,1478397292
8,9,Ticks_ISO_T2_8,123,1,48,56,1478432124
8,9,Ticks_ISO_T2_8,124,5,42,127,1479197028
8,9,Ticks_ISO_T2_8,125,1,48,53,1479229168
8,9,Ticks_ISO_T2_8,126,5,42,127,1479996908
8,9,Ticks_ISO_T2_8,127,1,48,43,1480058972
8,9,Ticks_ISO_T2_8,128,5,42,127,1480796568
8,9,Ticks_ISO_T2_8,129,1,48,55,1480882784
8,9,Ticks_ISO_T2_8,130,5,42,127,1481597496
8,9,Ticks_ISO_T2_8,131,1,48,54,1481643624
8,9,Ticks_ISO_T2_8,132,5,42,127,1482397008
8,9,Ticks_ISO_T2_8,133,1,48,56,1482429892
8,9,Ticks_ISO_T2_8,134,5,42,127,1483196740
8,9,Ticks_ISO_T2_8,135,1,48,57,1483227460
8,9,Ticks_ISO_T2_8,136,5,42,127,1483996696
8,9,Ticks_ISO_T2_8,137,1,48,52,1484016796
8,9,Ticks_ISO_T2_8,138,1,48,46,1484782400
8,9,Ticks_ISO_T2_8,139,5,42,127,1484797320
8,9,Ticks_ISO_T2_8,140,1,48,57,1485532368
8,9,Ticks_ISO_T2_8,141,5,42,127,1485597028
8,9,Ticks_ISO_T2_8,142,5,42,127,1486396844
8,9,Ticks_ISO_T2_8,143,1,48,38,1486447604
8,9,Ticks_ISO_T2_8,144,1,48,46,1487171400
8,9,Ticks_ISO_T2_8,145,5,42,127,1487196648
8,9,Ticks_ISO_T2_8,146,5,42,127,1487997284
8,9,Ticks_ISO_T2_8,147,1,48,47,1488017080
8,9,Ticks_ISO_T2_8,148,5,42,127,1488797016
8,9,Ticks_ISO_T2_8,149,1,48,46,1488801180
8,9,Ticks_ISO_T2_8,150,5,42,127,1489596752
8,9,Ticks_ISO_T2_8,151,1,48,50,1489610340
8,9,Ticks_ISO_T2_8,152,5,42,127,1490396808
8,9,Ticks_ISO_T2_8,153,1,48,50,1490427156
8,9,Ticks_ISO_T2_8,154,5,42,127,1491197512
8,9,Ticks_ISO_T2_8,155,1,48,54,1491211628
8,9,Ticks_ISO_T2_8,156,5,42,127,1491997096
8,9,Ticks_ISO_T2_8,157,1,48,49,1492015548
8,9,Ticks_ISO_T2_8,158,5,42,127,1492796684
8,9,Ticks_ISO_T2_8,159,1,48,47,1492844604
8,9,Ticks_ISO_T2_8,160,5,42,127,1493596492
8,9,Ticks_ISO_T2_8,161,1,48,41,1493615692
8,9,Ticks_ISO_T2_8,162,5,42,127,1494397344
8,9,Ticks_ISO_T2_8,163,1,48,58,1494418940
8,9,Ticks_ISO_T2_8,164,5,42,127,1495196928
8,9,Ticks_ISO_T2_8,165,1,48,53,1495272624
8,9,Ticks_ISO_T2_8,166,5,42,127,1495996736
8,9,Ticks_ISO_T2_8,167,1,48,48,1496042664
8,9,Ticks_ISO_T2_8,168,5,42,127,1496796568
8,9,Ticks_ISO_T2_8,169,1,48,52,1496803576
8,9,Ticks_ISO_T2_8,170,5,42,127,1497597276
8,9,Ticks_ISO_T2_8,171,1,48,48,1497606456
8,9,Ticks_ISO_T2_8,172,1,48,56,1498353656
8,9,Ticks_ISO_T2_8,173,5,42,127,1498397004
8,9,Ticks_ISO_T2_8,174,5,42,127,1499196744
8,9,Ticks_ISO_T2_8,175,1,48,51,1499203148
8,9,Ticks_ISO_T2_8,176,1,48,50,1499972496
8,9,Ticks_ISO_T2_8,177,5,42,127,1499996468
8,9,Ticks_ISO_T2_8,178,5,42,127,1500797552
8,9,Ticks_ISO_T2_8,179,1,48,62,1500810844
8,9,Ticks_ISO_T2_8,180,5,42,127,1501597064
8,9,Ticks_ISO_T2_8,181,1,48,60,1501644088
8,9,Ticks_ISO_T2_8,182,5,42,127,1502396720
8,9,Ticks_ISO_T2_8,183,1,48,51,1502425864
8,9,Ticks_ISO_T2_8,184,1,48,47,1503191328
8,9,Ticks_ISO_T2_8,185,5,42,127,1503196620
8,9,Ticks_ISO_T2_8,186,5,42,127,1503997408
8,9,Ticks_ISO_T2_8,187,1,48,66,1504029324
8,9,Ticks_ISO_T2_8,188,5,42,127,1504796996
8,9,Ticks_ISO_T2_8,189,1,48,60,1504820756
8,9,Ticks_ISO_T2_8,190,5,42,127,1505596728
8,9,Ticks_ISO_T2_8,191,1,48,58,1505651380
8,9,Ticks_ISO_T2_8,192,5,42,127,1506396536
8,9,Ticks_ISO_T2_8,193,1,48,49,1506411844
8,9,Ticks_ISO_T2_8,194,5,42,127,1507197316
8,9,Ticks_ISO_T2_8,195,1,48,59,1507223168
8,9,Ticks_ISO_T2_8,196,5,42,127,1507997268
8,9,Ticks_ISO_T2_8,197,1,48,53,1508003676
8,9,Ticks_ISO_T2_8,198,5,42,127,1508796780
8,9,Ticks_ISO_T2_8,199,1,48,65,1508808728
8,9,Ticks_ISO_T2_8,200,5,42,127,1509596464
8,9,Ticks_ISO_T2_8,201,1,48,58,1509617984
8,9,Ticks_ISO_T2_8,202,5,42,127,1510397244
8,9,Ticks_ISO_T2_8,203,1,48,55,1510420032
8,9,Ticks_ISO_T2_8,204,1,48,56,1511197424
8,9,Ticks_ISO_T2_8,205,5,42,127,1511198612
8,9,Ticks_ISO_T2_8,206,5,42,127,1511996712
8,9,Ticks_ISO_T2_8,207,1,48,49,1512003564
8,9,Ticks_ISO_T2_8,208,1,48,56,1512774556
8,9,Ticks_ISO_T2_8,209,5,42,127,1512796512
8,9,Ticks_ISO_T2_8,210,5,42,127,1513597152
8,9,Ticks_ISO_T2_8,211,1,48,53,1513662576
8,9,Ticks_ISO_T2_8,212,1,48,62,1514379636
8,9,Ticks_ISO_T2_8,213,5,42,127,1514397248
8,9,Ticks_ISO_T2_8,214,1,48,54,1515186024
8,9,Ticks_ISO_T2_8,215,5,42,127,1515196684
8,9,Ticks_ISO_T2_8,216,1,48,63,1515939460
8,9,Ticks_ISO_T2_8,217,5,42,127,1515996592
8,9,Ticks_ISO_T2_8,218,5,42,127,1516797228
8,9,Ticks_ISO_T2_8,219,1,48,57,1516803036
8,9,Ticks_ISO_T2_8,220,1,48,59,1517592956
8,9,Ticks_ISO_T2_8,221,5,42,127,1517597104
8,9,Ticks_ISO_T2_8,222,1,48,55,1518394032
8,9,Ticks_ISO_T2_8,223,5,42,127,1518396688
8,9,Ticks_ISO_T2_8,224,5,42,127,1519196504
8,9,Ticks_ISO_T2_8,225,1,48,51,1519239860
8,9,Ticks_ISO_T2_8,226,1,48,53,1519991556
8,9,Ticks_ISO_T2_8,227,5,42,127,1519997424
8,9,Ticks_ISO_T2_8,228,5,42,127,1520797092
8,9,Ticks_ISO_T2_8,229,1,48,47,1520825640
8,9,Ticks_ISO_T2_8,230,5,42,127,1521596748
8,9,Ticks_ISO_T2_8,231,1,48,59,1521597640
8,9,Ticks_ISO_T2_8,232,1,48,62,1522390088
8,9,Ticks_ISO_T2_8,233,5,42,127,1522396504
8,9,Ticks_ISO_T2_8,234,5,42,127,1523197288
8,9,Ticks_ISO_T2_8,235,1,48,59,1523206244
8,9,Ticks_ISO_T2_8,236,5,42,127,1523997024
8,9,Ticks_ISO_T2_8,237,1,48,56,1524007028
8,9,Ticks_ISO_T2_8,0,9999,9999,9999,1428794416
8,9,Ticks_ISO_T2_8,1,9999,9999,9999,1429594172
8,9,Ticks_ISO_T2_8,2,9999,9999,9999,1430394972
8,9,Ticks_ISO_T2_8,3,9999,9999,9999,1431194708
8,9,Ticks_ISO_T2_8,4,9999,9999,9999,1431994440
8,9,Ticks_ISO_T2_8,5,9999,9999,9999,1432794172
8,9,Ticks_ISO_T2_8,6,9999,9999,9999,1433594976
8,9,Ticks_ISO_T2_8,7,9999,9999,9999,1434394712
8,9,Ticks_ISO_T2_8,8,9999,9999,9999,1435194444
8,9,Ticks_ISO_T2_8,9,9999,9999,9999,1435994176
8,9,Ticks_ISO_T2_8,10,9999,9999,9999,1436794956
8,9,Ticks_ISO_T2_8,11,9999,9999,9999,1437594684
8,9,Ticks_ISO_T2_8,12,9999,9999,9999,1438394416
8,9,Ticks_ISO_T2_8,13,9999,9999,9999,1439194224
8,9,Ticks_ISO_T2_8,14,9999,9999,9999,1439994956
8,9,Ticks_ISO_T2_8,15,9999,9999,9999,1440794696
8,9,Ticks_ISO_T2_8,16,9999,9999,9999,1441594432
8,9,Ticks_ISO_T2_8,17,9999,9999,9999,1442394164
8,9,Ticks_ISO_T2_8,18,9999,9999,9999,1443194944
8,9,Ticks_ISO_T2_8,19,9999,9999,9999,1443994676
8,9,Ticks_ISO_T2_8,20,9999,9999,9999,1444794476
8,9,Ticks_ISO_T2_8,21,9999,9999,9999,1445594216
8,9,Ticks_ISO_T2_8,22,9999,9999,9999,1446394988
8,9,Ticks_ISO_T2_8,23,9999,9999,9999,1447194728
8,9,Ticks_ISO_T2_8,24,9999,9999,9999,1447994456
8,9,Ticks_ISO_T2_8,25,9999,9999,9999,1448794196
8,9,Ticks_ISO_T2_8,26,9999,9999,9999,1449594976
8,9,Ticks_ISO_T2_8,27,9999,9999,9999,1450394708
8,9,Ticks_ISO_T2_8,28,9999,9999,9999,1451194440
8,9,Ticks_ISO_T2_8,29,9999,9999,9999,1451994168
8,9,Ticks_ISO_T2_8,30,9999,9999,9999,1452794956
8,9,Ticks_ISO_T2_8,31,9999,9999,9999,1453594688
8,9,Ticks_ISO_T2_8,32,9999,9999,9999,1454394420
8,9,Ticks_ISO_T2_8,33,9999,9999,9999,1455194228
8,9,Ticks_ISO_T2_8,34,9999,9999,9999,1455994936
8,9,Ticks_ISO_T2_8,35,9999,9999,9999,1456794736
8,9,Ticks_ISO_T2_8,36,9999,9999,9999,1457594472
8,9,Ticks_ISO_T2_8,37,9999,9999,9999,1458394204
8,9,Ticks_ISO_T2_8,38,9999,9999,9999,1459194936
8,9,Ticks_ISO_T2_8,39,9999,9999,9999,1459994744
8,9,Ticks_ISO_T2_8,40,9999,9999,9999,1460794480
8,9,Ticks_ISO_T2_8,41,9999,9999,9999,1461594212
8,9,Ticks_ISO_T2_8,42,9999,9999,9999,1462394992
8,9,Ticks_ISO_T2_8,43,9999,9999,9999,1463194728
8,9,Ticks_ISO_T2_8,44,9999,9999,9999,1463994468
8,9,Ticks_ISO_T2_8,45,9999,9999,9999,1464794192
8,9,Ticks_ISO_T2_8,46,9999,9999,9999,1465594932
8,9,Ticks_ISO_T2_8,47,9999,9999,9999,1466394732
8,9,Ticks_ISO_T2_8,48,9999,9999,9999,1467194472
8,9,Ticks_ISO_T2_8,49,9999,9999,9999,1467994204
8,9,Ticks_ISO_T2_8,50,9999,9999,9999,1468794960
8,9,Ticks_ISO_T2_8,51,9999,9999,9999,1469594692
8,9,Ticks_ISO_T2_8,52,9999,9999,9999,1470394424
8,9,Ticks_ISO_T2_8,53,9999,9999,9999,1471194232
8,9,Ticks_ISO_T2_8,54,9999,9999,9999,1471994964
8,9,Ticks_ISO_T2_8,55,9999,9999,9999,1472794696
8,9,Ticks_ISO_T2_8,56,9999,9999,9999,1473594428
8,9,Ticks_ISO_T2_8,57,9999,9999,9999,1474394164
8,9,Ticks_ISO_T2_8,58,9999,9999,9999,1475194944
8,9,Ticks_ISO_T2_8,59,9999,9999,9999,1475994676
8,9,Ticks_ISO_T2_8,60,9999,9999,9999,1476794488
8,9,Ticks_ISO_T2_8,61,9999,9999,9999,1477594216
8,9,Ticks_ISO_T2_8,62,9999,9999,9999,1478394928
8,9,Ticks_ISO_T2_8,63,9999,9999,9999,1479194736
8,9,Ticks_ISO_T2_8,64,9999,9999,9999,1479994472
8,9,Ticks_ISO_T2_8,65,9999,9999,9999,1480794204
8,9,Ticks_ISO_T2_8,66,9999,9999,9999,1481594984
8,9,Ticks_ISO_T2_8,67,9999,9999,9999,1482394716
8,9,Ticks_ISO_T2_8,68,9999,9999,9999,1483194448
8,9,Ticks_ISO_T2_8,69,9999,9999,9999,1483994184
8,9,Ticks_ISO_T2_8,70,9999,9999,9999,1484794956
8,9,Ticks_ISO_T2_8,71,9999,9999,9999,1485594740
8,9,Ticks_ISO_T2_8,72,9999,9999,9999,1486394476
8,9,Ticks_ISO_T2_8,73,9999,9999,9999,1487194208
8,9,Ticks_ISO_T2_8,74,9999,9999,9999,1487994992
8,9,Ticks_ISO_T2_8,75,9999,9999,9999,1488794728
8,9,Ticks_ISO_T2_8,76,9999,9999,9999,1489594460
8,9,Ticks_ISO_T2_8,77,9999,9999,9999,1490394192
8,9,Ticks_ISO_T2_8,78,9999,9999,9999,1491195000
8,9,Ticks_ISO_T2_8,79,9999,9999,9999,1491994732
8,9,Ticks_ISO_T2_8,80,9999,9999,9999,1492794464
8,9,Ticks_ISO_T2_8,81,9999,9999,9999,1493594200
8,9,Ticks_ISO_T2_8,82,9999,9999,9999,1494394980
8,9,Ticks_ISO_T2_8,83,9999,9999,9999,1495194712
8,9,Ticks_ISO_T2_8,84,9999,9999,9999,1495994444
8,9,Ticks_ISO_T2_8,85,9999,9999,9999,1496794180
8,9,Ticks_ISO_T2_8,86,9999,9999,9999,1497594988
8,9,Ticks_ISO_T2_8,87,9999,9999,9999,1498394712
8,9,Ticks_ISO_T2_8,88,9999,9999,9999,1499194452
8,9,Ticks_ISO_T2_8,89,9999,9999,9999,1499994180
8,9,Ticks_ISO_T2_8,90,9999,9999,9999,1500794964
8,9,Ticks_ISO_T2_8,91,9999,9999,9999,1501594700
8,9,Ticks_ISO_T2_8,92,9999,9999,9999,1502394432
8,9,Ticks_ISO_T2_8,93,9999,9999,9999,1503194232
8,9,Ticks_ISO_T2_8,94,9999,9999,9999,1503994968
8,9,Ticks_ISO_T2_8,95,9999,9999,9999,1504794704
8,9,Ticks_ISO_T2_8,96,9999,9999,9999,1505594436
8,9,Ticks_ISO_T2_8,97,9999,9999,9999,1506394168
8,9,Ticks_ISO_T2_8,98,9999,9999,9999,1507194948
8,9,Ticks_ISO_T2_8,99,9999,9999,9999,1507994680
8,9,Ticks_ISO_T2_8,100,9999,9999,9999,1508794416
8,9,Ticks_ISO_T2_8,101,9999,9999,9999,1509594224
8,9,Ticks_ISO_T2_8,102,9999,9999,9999,1510394952
8,9,Ticks_ISO_T2_8,103,9999,9999,9999,1511194688
8,9,Ticks_ISO_T2_8,104,9999,9999,9999,1511994420
8,9,Ticks_ISO_T2_8,105,9999,9999,9999,1512794224
8,9,Ticks_ISO_T2_8,106,9999,9999,9999,1513594936
8,9,Ticks_ISO_T2_8,107,9999,9999,9999,1514394732
8,9,Ticks_ISO_T2_8,108,9999,9999,9999,1515194468
8,9,Ticks_ISO_T2_8,109,9999,9999,9999,1515994200
8,9,Ticks_ISO_T2_8,110,9999,9999,9999,1516794936
8,9,Ticks_ISO_T2_8,111,9999,9999,9999,1517594740
8,9,Ticks_ISO_T2_8,112,9999,9999,9999,1518394472
8,9,Ticks_ISO_T2_8,113,9999,9999,9999,1519194212
8,9,Ticks_ISO_T2_8,114,9999,9999,9999,1519994984
8,9,Ticks_ISO_T2_8,115,9999,9999,9999,1520794724
8,9,Ticks_ISO_T2_8,116,9999,9999,9999,1521594460
8,9,Ticks_ISO_T2_8,117,9999,9999,9999,1522394188
8,9,Ticks_ISO_T2_8,118,9999,9999,9999,1523195000
8,9,Ticks_ISO_T2_8,119,9999,9999,9999,1523994732
9,23,Ticks_Phase_5,0,5,42,127,1533522360
9,23,Ticks_Phase_5,1,5,42,127,1534021920
9,23,Ticks_Phase_5,2,5,42,127,1534521704
9,23,Ticks_Phase_5,3,1,48,46,1534525648
9,23,Ticks_Phase_5,4,1,48,46,1534998736
9,23,Ticks_Phase_5,5,5,42,127,1535021460
9,23,Ticks_Phase_5,6,1,48,51,1535507260
9,23,Ticks_Phase_5,7,5,42,127,1535522196
9,23,Ticks_Phase_5,8,1,48,48,1536005976
9,23,Ticks_Phase_5,9,5,42,127,1536021884
9,23,Ticks_Phase_5,10,1,48,59,1536495180
9,23,Ticks_Phase_5,11,5,42,127,1536521796
9,23,Ticks_Phase_5,12,5,42,127,1537022316
9,23,Ticks_Phase_5,13,1,48,54,1537044008
9,23,Ticks_Phase_5,14,5,42,127,1537521928
9,23,Ticks_Phase_5,15,1,48,50,1537530296
9,23,Ticks_Phase_5,16,5,42,127,1538021692
9,23,Ticks_Phase_5,17,1,48,44,1538022660
9,23,Ticks_Phase_5,18,1,48,44,1538493464
9,23,Ticks_Phase_5,19,5,42,127,1538521424
9,23,Ticks_Phase_5,20,1,48,43,1539010448
9,23,Ticks_Phase_5,21,5,42,127,1539022156
9,23,Ticks_Phase_5,22,5,42,127,1539522004
9,23,Ticks_Phase_5,23,1,48,42,1539524592
9,23,Ticks_Phase_5,24,1,48,41,1540009292
9,23,Ticks_Phase_5,25,5,42,127,1540021760
9,23,Ticks_Phase_5,26,1,48,51,1540478428
9,23,Ticks_Phase_5,27,5,42,127,1540522420
9,23,Ticks_Phase_5,28,1,48,50,1541015184
9,23,Ticks_Phase_5,29,5,42,127,1541021960
9,23,Ticks_Phase_5,30,5,42,127,1541521652
9,23,Ticks_Phase_5,31,1,48,44,1541533236
9,23,Ticks_Phase_5,32,1,48,49,1541994120
9,23,Ticks_Phase_5,33,5,42,127,1542021780
9,23,Ticks_Phase_5,34,1,48,56,1542500556
9,23,Ticks_Phase_5,35,5,42,127,1542522220
9,23,Ticks_Phase_5,36,5,42,127,1543021988
9,23,Ticks_Phase_5,37,1,48,52,1543025032
9,23,Ticks_Phase_5,38,5,42,127,1543521752
9,23,Ticks_Phase_5,39,1,48,47,1543549948
9,23,Ticks_Phase_5,40,1,48,56,1544004252
9,23,Ticks_Phase_5,41,5,42,127,1544022256
9,23,Ticks_Phase_5,42,1,48,62,1544504392
9,23,Ticks_Phase_5,43,5,42,127,1544522092
9,23,Ticks_Phase_5,44,5,42,127,1545021788
9,23,Ticks_Phase_5,45,1,48,30,1545062052
9,23,Ticks_Phase_5,46,5,42,127,1545521700
9,23,Ticks_Phase_5,47,1,48,57,1545554400
9,23,Ticks_Phase_5,48,5,42,127,1546022136
9,23,Ticks_Phase_5,49,1,48,50,1546025628
9,23,Ticks_Phase_5,50,1,48,45,1546482176
9,23,Ticks_Phase_5,51,5,42,127,1546521968
9,23,Ticks_Phase_5,52,1,48,54,1547004100
9,23,Ticks_Phase_5,53,5,42,127,1547021656
9,23,Ticks_Phase_5,54,1,48,59,1547518536
9,23,Ticks_Phase_5,55,5,42,127,1547522392
9,23,Ticks_Phase_5,56,5,42,127,1548032644
9,23,Ticks_Phase_5,57,1,48,54,1548034284
9,23,Ticks_Phase_5,58,5,42,127,1548521700
9,23,Ticks_Phase_5,59,1,48,52,1548541372
9,23,Ticks_Phase_5,60,1,48,55,1549021012
9,23,Ticks_Phase_5,61,5,42,127,1549022580
9,23,Ticks_Phase_5,62,1,48,60,1549506180
9,23,Ticks_Phase_5,63,5,42,127,1549522240
9,23,Ticks_Phase_5,64,1,48,23,1549581320
9,23,Ticks_Phase_5,65,1,48,53,1550022212
9,23,Ticks_Phase_5,66,5,42,127,1550023548
9,23,Ticks_Phase_5,67,5,42,127,1550521828
9,23,Ticks_Phase_5,68,1,48,55,1550532508
9,23,Ticks_Phase_5,69,5,42,127,1551021440
9,23,Ticks_Phase_5,70,1,48,47,1551033992
9,23,Ticks_Phase_5,71,1,48,46,1551501844
9,23,Ticks_Phase_5,72,5,42,127,1551522164
9,23,Ticks_Phase_5,73,1,48,46,1552013368
9,23,Ticks_Phase_5,74,5,42,127,1552021856
9,23,Ticks_Phase_5,75,5,42,127,1552521776
9,23,Ticks_Phase_5,76,1,48,50,1552527284
9,23,Ticks_Phase_5,77,5,42,127,1553022508
9,23,Ticks_Phase_5,78,1,48,46,1553025924
9,23,Ticks_Phase_5,79,5,42,127,1553522048
9,23,Ticks_Phase_5,80,1,48,54,1553546056
9,23,Ticks_Phase_5,81,1,48,49,1554017948
9,23,Ticks_Phase_5,82,5,42,127,1554021876
9,23,Ticks_Phase_5,83,5,42,127,1554521720
9,23,Ticks_Phase_5,84,1,48,39,1554540872
9,23,Ticks_Phase_5,85,5,42,127,1555022308
9,23,Ticks_Phase_5,86,1,48,32,1555033292
9,23,Ticks_Phase_5,87,5,42,127,1555521924
9,23,Ticks_Phase_5,88,1,48,41,1555533056
9,23,Ticks_Phase_5,89,1,48,48,1555998204
9,23,Ticks_Phase_5,90,5,42,127,1556021680
9,23,Ticks_Phase_5,91,1,48,45,1556505608
9,23,Ticks_Phase_5,92,5,42,127,1556522488
9,23,Ticks_Phase_5,93,5,42,127,1557022036
9,23,Ticks_Phase_5,94,1,48,40,1557025904
9,23,Ticks_Phase_5,95,1,48,54,1557523932
9,23,Ticks_Phase_5,96,5,42,127,1557532052
9,23,Ticks_Phase_5,97,1,48,40,1558018748
9,23,Ticks_Phase_5,98,5,42,127,1558031668
9,23,Ticks_Phase_5,99,1,48,46,1558508704
9,23,Ticks_Phase_5,100,5,42,127,1558531580
9,23,Ticks_Phase_5,101,1,48,42,1559012444
9,23,Ticks_Phase_5,102,5,42,127,1559032164
9,23,Ticks_Phase_5,103,1,48,52,1559526128
9,23,Ticks_Phase_5,104,5,42,127,1559531928
9,23,Ticks_Phase_5,105,1,48,40,1560029808
9,23,Ticks_Phase_5,106,5,42,127,1560031544
9,23,Ticks_Phase_5,107,5,42,127,1560532484
9,23,Ticks_Phase_5,108,1,48,55,1560540356
9,23,Ticks_Phase_5,109,5,42,127,1561032024
9,23,Ticks_Phase_5,110,1,48,47,1561056288
9,23,Ticks_Phase_5,111,1,48,46,1561515052
9,23,Ticks_Phase_5,112,5,42,127,1561531928
9,23,Ticks_Phase_5,113,1,48,52,1561994592
9,23,Ticks_Phase_5,114,5,42,127,1562031692
9,23,Ticks_Phase_5,115,1,48,46,1562511660
9,23,Ticks_Phase_5,116,5,42,127,1562532204
9,23,Ticks_Phase_5,117,1,48,42,1563025268
9,23,Ticks_Phase_5,118,5,42,127,1563031892
9,23,Ticks_Phase_5,119,1,48,56,1563505336
9,23,Ticks_Phase_5,120,5,42,127,1563531728
9,23,Ticks_Phase_5,121,1,48,48,1564015580
9,23,Ticks_Phase_5,122,5,42,127,1564032316
9,23,Ticks_Phase_5,123,1,48,39,1564521720
9,23,Ticks_Phase_5,124,5,42,127,1564531928
9,23,Ticks_Phase_5,125,1,48,51,1565010400
9,23,Ticks_Phase_5,126,5,42,127,1565031768
9,23,Ticks_Phase_5,127,1,48,50,1565499444
9,23,Ticks_Phase_5,128,5,42,127,1565551900
9,23,Ticks_Phase_5,129,1,48,49,1566047208
9,23,Ticks_Phase_5,130,5,42,127,1566051812
9,23,Ticks_Phase_5,131,1,48,53,1566551276
9,23,Ticks_Phase_5,132,5,42,127,1566552844
9,23,Ticks_Phase_5,133,1,48,52,1567044488
9,23,Ticks_Phase_5,134,5,42,127,1567062492
9,23,Ticks_Phase_5,135,1,48,56,1567547476
9,23,Ticks_Phase_5,136,5,42,127,1567562184
9,23,Ticks_Phase_5,137,1,48,38,1568050016
9,23,Ticks_Phase_5,138,5,42,127,1568061724
9,23,Ticks_Phase_5,139,1,48,45,1568543860
9,23,Ticks_Phase_5,140,5,42,127,1568561488
9,23,Ticks_Phase_5,141,5,42,127,1569062524
9,23,Ticks_Phase_5,142,1,48,36,1569094928
9,23,Ticks_Phase_5,143,5,42,127,1569561916
9,23,Ticks_Phase_5,144,1,48,52,1569573948
9,23,Ticks_Phase_5,145,1,48,50,1570061752
9,23,Ticks_Phase_5,146,5,42,127,1570063240
9,23,Ticks_Phase_5,147,1,48,50,1570543208
9,23,Ticks_Phase_5,148,5,42,127,1570562484
9,23,Ticks_Phase_5,149,1,48,47,1571061848
9,23,Ticks_Phase_5,150,5,42,127,1571072428
9,23,Ticks_Phase_5,151,1,48,51,1571555232
9,23,Ticks_Phase_5,152,5,42,127,1571572340
9,23,Ticks_Phase_5,153,5,42,127,1572071740
9,23,Ticks_Phase_5,154,1,48,47,1572072628
9,23,Ticks_Phase_5,155,1,48,42,1572555332
9,23,Ticks_Phase_5,156,5,42,127,1572571420
9,23,Ticks_Phase_5,157,1,48,43,1573072136
9,23,Ticks_Phase_5,158,5,42,127,1573073548
9,23,Ticks_Phase_5,159,5,42,127,1573571900
9,23,Ticks_Phase_5,160,1,48,35,1573573912
9,23,Ticks_Phase_5,161,5,42,127,1574052340
9,23,Ticks_Phase_5,162,1,48,50,1574083848
9,23,Ticks_Phase_5,163,1,48,46,1574537688
9,23,Ticks_Phase_5,164,5,42,127,1574552024
9,23,Ticks_Phase_5,165,1,48,42,1575049284
9,23,Ticks_Phase_5,166,5,42,127,1575051788
9,23,Ticks_Phase_5,167,5,42,127,1575552380
9,23,Ticks_Phase_5,168,1,48,40,1575565608
9,23,Ticks_Phase_5,169,5,42,127,1576052068
9,23,Ticks_Phase_5,170,1,48,41,1576062380
9,23,Ticks_Phase_5,171,5,42,127,1576551680
9,23,Ticks_Phase_5,172,1,48,39,1576579224
9,23,Ticks_Phase_5,173,1,48,48,1577040404
9,23,Ticks_Phase_5,174,5,42,127,1577051584
9,23,Ticks_Phase_5,175,1,48,55,1577505632
9,23,Ticks_Phase_5,176,5,42,127,1577552320
9,23,Ticks_Phase_5,177,1,48,51,1578034308
9,23,Ticks_Phase_5,178,5,42,127,1578051860
9,23,Ticks_Phase_5,179,1,48,52,1578515868
9,23,Ticks_Phase_5,180,5,42,127,1578551548
9,23,Ticks_Phase_5,181,1,48,47,1579028736
9,23,Ticks_Phase_5,182,5,42,127,1579052284
9,23,Ticks_Phase_5,183,1,48,51,1579503264
9,23,Ticks_Phase_5,184,5,42,127,1579552268
9,23,Ticks_Phase_5,185,1,48,33,1580020184
9,23,Ticks_Phase_5,186,5,42,127,1580051736
9,23,Ticks_Phase_5,187,1,48,49,1580522484
9,23,Ticks_Phase_5,188,5,42,127,1580551572
9,23,Ticks_Phase_5,189,1,48,48,1581013832
9,23,Ticks_Phase_5,190,5,42,127,1581052156
9,23,Ticks_Phase_5,191,1,48,44,1581551400
9,23,Ticks_Phase_5,192,5,42,127,1581553116
9,23,Ticks_Phase_5,193,5,42,127,1582001492
9,23,Ticks_Phase_5,194,1,48,45,1582078176
9,23,Ticks_Phase_5,195,5,42,127,1582502376
9,23,Ticks_Phase_5,196,1,48,36,1582539488
9,23,Ticks_Phase_5,197,1,48,45,1582981364
9,23,Ticks_Phase_5,198,5,42,127,1583002056
9,23,Ticks_Phase_5,199,1,48,46,1583468088
9,23,Ticks_Phase_5,200,5,42,127,1583501672
9,23,Ticks_Phase_5,201,1,48,40,1583992716
9,23,Ticks_Phase_5,202,5,42,127,1584002336
9,23,Ticks_Phase_5,203,1,48,32,1584501100
9,23,Ticks_Phase_5,204,5,42,127,1584512432
9,23,Ticks_Phase_5,205,1,48,42,1584994640
9,23,Ticks_Phase_5,206,5,42,127,1585012340
9,23,Ticks_Phase_5,207,1,48,45,1585508176
9,23,Ticks_Phase_5,208,5,42,127,1585511880
9,23,Ticks_Phase_5,209,1,48,44,1586005100
9,23,Ticks_Phase_5,210,5,42,127,1586011644
9,23,Ticks_Phase_5,211,1,48,40,1586483300
9,23,Ticks_Phase_5,212,5,42,127,1586512156
9,23,Ticks_Phase_5,213,1,48,44,1586995112
9,23,Ticks_Phase_5,214,5,42,127,1587012144
9,23,Ticks_Phase_5,215,1,48,52,1587483796
9,23,Ticks_Phase_5,216,5,42,127,1587511608
9,23,Ticks_Phase_5,217,1,48,58,1587983932
9,23,Ticks_Phase_5,218,5,42,127,1588012344
9,23,Ticks_Phase_5,219,1,48,59,1588506008
9,23,Ticks_Phase_5,220,5,42,127,1588512104
9,23,Ticks_Phase_5,221,5,42,127,1589011800
9,23,Ticks_Phase_5,222,1,48,54,1589025176
9,23,Ticks_Phase_5,223,1,48,52,1589479708
9,23,Ticks_Phase_5,224,5,42,127,1589511628
9,23,Ticks_Phase_5,225,1,48,46,1589998028
9,23,Ticks_Phase_5,226,5,42,127,1590012216
9,23,Ticks_Phase_5,227,1,48,51,1590508052
9,23,Ticks_Phase_5,228,5,42,127,1590562156
9,23,Ticks_Phase_5,229,1,48,45,1591034552
9,23,Ticks_Phase_5,230,5,42,127,1591061992
9,23,Ticks_Phase_5,231,5,42,127,1591561464
9,23,Ticks_Phase_5,232,1,48,53,1591564432
9,23,Ticks_Phase_5,233,5,42,127,1592062348
9,23,Ticks_Phase_5,234,1,48,46,1592069740
9,23,Ticks_Phase_5,235,5,42,127,1592562108
9,23,Ticks_Phase_5,236,1,48,47,1592563972
9,23,Ticks_Phase_5,237,5,42,127,1593061948
9,23,Ticks_Phase_5,238,1,48,57,1593066640
9,23,Ticks_Phase_5,239,5,42,127,1593561488
9,23,Ticks_Phase_5,240,1,48,57,1593565208
9,23,Ticks_Phase_5,241,1,48,53,1594040452
9,23,Ticks_Phase_5,242,5,42,127,1594062192
9,23,Ticks_Phase_5,243,1,48,61,1594521792
9,23,Ticks_Phase_5,244,5,42,127,1594561956
9,23,Ticks_Phase_5,245,1,48,49,1595061124
9,23,Ticks_Phase_5,246,5,42,127,1595062468
9,23,Ticks_Phase_5,247,5,42,127,1595562236
9,23,Ticks_Phase_5,248,1,48,53,1595572096
9,23,Ticks_Phase_5,249,1,48,57,1596055072
9,23,Ticks_Phase_5,250,5,42,127,1596062068
9,23,Ticks_Phase_5,251,1,48,53,1596554760
9,23,Ticks_Phase_5,252,5,42,127,1596561904
9,23,Ticks_Phase_5,253,5,42,127,1597061452
9,23,Ticks_Phase_5,254,1,48,56,1597528244
9,23,Ticks_Phase_5,255,5,42,127,1597562200
9,23,Ticks_Phase_5,256,1,48,57,1598013488
9,23,Ticks_Phase_5,257,5,42,127,1598061892
9,23,Ticks_Phase_5,258,1,48,52,1598540584
9,23,Ticks_Phase_5,259,5,42,127,1598561728
9,23,Ticks_Phase_5,260,1,48,51,1599045208
9,23,Ticks_Phase_5,261,5,42,127,1599161676
9,23,Ticks_Phase_5,262,1,48,47,1599631700
9,23,Ticks_Phase_5,263,5,42,127,1599661380
9,23,Ticks_Phase_5,264,5,42,127,1600162196
9,23,Ticks_Phase_5,265,1,48,50,1600205980
9,23,Ticks_Phase_5,266,5,42,127,1600662032
9,23,Ticks_Phase_5,267,1,48,47,1600722816
9,23,Ticks_Phase_5,268,5,42,127,1601161648
9,23,Ticks_Phase_5,269,1,48,46,1601166256
9,23,Ticks_Phase_5,270,1,48,54,1601646844
9,23,Ticks_Phase_5,271,5,42,127,1601662224
9,23,Ticks_Phase_5,272,5,42,127,1602162072
9,23,Ticks_Phase_5,273,1,48,41,1602165864
9,23,Ticks_Phase_5,274,1,48,48,1602645324
9,23,Ticks_Phase_5,275,5,42,127,1602661828
9,23,Ticks_Phase_5,276,1,48,57,1603150260
9,23,Ticks_Phase_5,277,5,42,127,1603161368
9,23,Ticks_Phase_5,278,1,48,52,1603659148
9,23,Ticks_Phase_5,279,5,42,127,1603662252
9,23,Ticks_Phase_5,280,1,48,50,1604157640
9,23,Ticks_Phase_5,281,5,42,127,1604161868
9,23,Ticks_Phase_5,282,5,42,127,1604661636
9,23,Ticks_Phase_5,283,1,48,46,1604667368
9,23,Ticks_Phase_5,284,1,48,49,1605144360
9,23,Ticks_Phase_5,285,5,42,127,1605162288
9,23,Ticks_Phase_5,286,1,48,55,1605649136
9,23,Ticks_Phase_5,287,5,42,127,1605662052
9,23,Ticks_Phase_5,288,1,48,49,1606133104
9,23,Ticks_Phase_5,289,5,42,127,1606161816
9,23,Ticks_Phase_5,290,1,48,56,1606636612
9,23,Ticks_Phase_5,291,5,42,127,1606661580
9,23,Ticks_Phase_5,292,1,48,52,1607138912
9,23,Ticks_Phase_5,293,5,42,127,1607162240
9,23,Ticks_Phase_5,294,1,48,44,1607655976
9,23,Ticks_Phase_5,295,5,42,127,1607661928
9,23,Ticks_Phase_5,296,1,48,51,1608146280
9,23,Ticks_Phase_5,297,5,42,127,1608161692
9,23,Ticks_Phase_5,298,5,42,127,1608562132
9,23,Ticks_Phase_5,299,1,48,57,1608636316
9,23,Ticks_Phase_5,300,5,42,127,1609061896
9,23,Ticks_Phase_5,301,1,48,45,1609108896
9,23,Ticks_Phase_5,302,1,48,47,1609553012
9,23,Ticks_Phase_5,303,5,42,127,1609561428
9,23,Ticks_Phase_5,304,1,48,46,1610029192
9,23,Ticks_Phase_5,305,5,42,127,1610062236
9,23,Ticks_Phase_5,306,1,48,45,1610534336
9,23,Ticks_Phase_5,307,5,42,127,1610562076
9,23,Ticks_Phase_5,308,5,42,127,1611061844
9,23,Ticks_Phase_5,309,1,48,30,1611106528
9,23,Ticks_Phase_5,310,1,48,42,1611561680
9,23,Ticks_Phase_5,311,5,42,127,1611563248
9,23,Ticks_Phase_5,312,1,48,43,1612043956
9,23,Ticks_Phase_5,313,5,42,127,1612062036
9,23,Ticks_Phase_5,314,5,42,127,1612561952
9,23,Ticks_Phase_5,315,1,48,40,1612573684
9,23,Ticks_Phase_5,316,1,48,37,1613043632
9,23,Ticks_Phase_5,317,5,42,127,1613061412
9,23,Ticks_Phase_5,318,1,48,41,1613533216
9,23,Ticks_Phase_5,319,5,42,127,1613562072
9,23,Ticks_Phase_5,320,5,42,127,1614061916
9,23,Ticks_Phase_5,321,1,48,41,1614062884
9,23,Ticks_Phase_5,322,1,48,43,1614539148
9,23,Ticks_Phase_5,323,5,42,127,1614561896
9,23,Ticks_Phase_5,324,1,48,44,1615041164
9,23,Ticks_Phase_5,325,5,42,127,1615062624
9,23,Ticks_Phase_5,326,1,48,46,1615546908
9,23,Ticks_Phase_5,327,5,42,127,1615561992
9,23,Ticks_Phase_5,328,1,48,47,1616040092
9,23,Ticks_Phase_5,329,5,42,127,1616061832
9,23,Ticks_Phase_5,330,1,48,49,1616532356
9,23,Ticks_Phase_5,331,5,42,127,1616561816
9,23,Ticks_Phase_5,332,1,48,50,1617041404
9,23,Ticks_Phase_5,333,5,42,127,1617062180
9,23,Ticks_Phase_5,334,1,48,37,1617535324
9,23,Ticks_Phase_5,335,5,42,127,1617561940
9,23,Ticks_Phase_5,336,1,48,47,1618014192
9,23,Ticks_Phase_5,337,5,42,127,1618062076
9,23,Ticks_Phase_5,0,9999,9999,9999,1533519996
9,23,Ticks_Phase_5,1,9999,9999,9999,1534019708
9,23,Ticks_Phase_5,2,9999,9999,9999,1534519420
9,23,Ticks_Phase_5,3,9999,9999,9999,1535019100
9,23,Ticks_Phase_5,4,9999,9999,9999,1535519836
9,23,Ticks_Phase_5,5,9999,9999,9999,1536019524
9,23,Ticks_Phase_5,6,9999,9999,9999,1536519288
9,23,Ticks_Phase_5,7,9999,9999,9999,1537020028
9,23,Ticks_Phase_5,8,9999,9999,9999,1537519716
9,23,Ticks_Phase_5,9,9999,9999,9999,1538019404
9,23,Ticks_Phase_5,10,9999,9999,9999,1538519136
9,23,Ticks_Phase_5,11,9999,9999,9999,1539019872
9,23,Ticks_Phase_5,12,9999,9999,9999,1539519564
9,23,Ticks_Phase_5,13,9999,9999,9999,1540019324
9,23,Ticks_Phase_5,14,9999,9999,9999,1540520056
9,23,Ticks_Phase_5,15,9999,9999,9999,1541019748
9,23,Ticks_Phase_5,16,9999,9999,9999,1541519440
9,23,Ticks_Phase_5,17,9999,9999,9999,1542019196
9,23,Ticks_Phase_5,18,9999,9999,9999,1542519932
9,23,Ticks_Phase_5,19,9999,9999,9999,1543019628
9,23,Ticks_Phase_5,20,9999,9999,9999,1543519316
9,23,Ticks_Phase_5,21,9999,9999,9999,1544020044
9,23,Ticks_Phase_5,22,9999,9999,9999,1544519804
9,23,Ticks_Phase_5,23,9999,9999,9999,1545019500
9,23,Ticks_Phase_5,24,9999,9999,9999,1545519188
9,23,Ticks_Phase_5,25,9999,9999,9999,1546019924
9,23,Ticks_Phase_5,26,9999,9999,9999,1546519608
9,23,Ticks_Phase_5,27,9999,9999,9999,1547019368
9,23,Ticks_Phase_5,28,9999,9999,9999,1547520104
9,23,Ticks_Phase_5,29,9999,9999,9999,1548030056
9,23,Ticks_Phase_5,30,9999,9999,9999,1548519488
9,23,Ticks_Phase_5,31,9999,9999,9999,1549019252
9,23,Ticks_Phase_5,32,9999,9999,9999,1549519956
9,23,Ticks_Phase_5,33,9999,9999,9999,1550019704
9,23,Ticks_Phase_5,34,9999,9999,9999,1550519392
9,23,Ticks_Phase_5,35,9999,9999,9999,1551019076
9,23,Ticks_Phase_5,36,9999,9999,9999,1551519804
9,23,Ticks_Phase_5,37,9999,9999,9999,1552019568
9,23,Ticks_Phase_5,38,9999,9999,9999,1552519264
9,23,Ticks_Phase_5,39,9999,9999,9999,1553020000
9,23,Ticks_Phase_5,40,9999,9999,9999,1553519684
9,23,Ticks_Phase_5,41,9999,9999,9999,1554019440
9,23,Ticks_Phase_5,42,9999,9999,9999,1554519136
9,23,Ticks_Phase_5,43,9999,9999,9999,1555019872
9,23,Ticks_Phase_5,44,9999,9999,9999,1555519560
9,23,Ticks_Phase_5,45,9999,9999,9999,1556019316
9,23,Ticks_Phase_5,46,9999,9999,9999,1556520052
9,23,Ticks_Phase_5,47,9999,9999,9999,1557019748
9,23,Ticks_Phase_5,48,9999,9999,9999,1557529688
9,23,Ticks_Phase_5,49,9999,9999,9999,1558029380
9,23,Ticks_Phase_5,50,9999,9999,9999,1558529144
9,23,Ticks_Phase_5,51,9999,9999,9999,1559029876
9,23,Ticks_Phase_5,52,9999,9999,9999,1559529568
9,23,Ticks_Phase_5,53,9999,9999,9999,1560029280
9,23,Ticks_Phase_5,54,9999,9999,9999,1560529972
9,23,Ticks_Phase_5,55,9999,9999,9999,1561029736
9,23,Ticks_Phase_5,56,9999,9999,9999,1561529420
9,23,Ticks_Phase_5,57,9999,9999,9999,1562029184
9,23,Ticks_Phase_5,58,9999,9999,9999,1562529916
9,23,Ticks_Phase_5,59,9999,9999,9999,1563029604
9,23,Ticks_Phase_5,60,9999,9999,9999,1563529296
9,23,Ticks_Phase_5,61,9999,9999,9999,1564030032
9,23,Ticks_Phase_5,62,9999,9999,9999,1564529716
9,23,Ticks_Phase_5,63,9999,9999,9999,1565029480
9,23,Ticks_Phase_5,64,9999,9999,9999,1565549688
9,23,Ticks_Phase_5,65,9999,9999,9999,1566049376
9,23,Ticks_Phase_5,66,9999,9999,9999,1566550120
9,23,Ticks_Phase_5,67,9999,9999,9999,1567060060
9,23,Ticks_Phase_5,68,9999,9999,9999,1567559748
9,23,Ticks_Phase_5,69,9999,9999,9999,1568059512
9,23,Ticks_Phase_5,70,9999,9999,9999,1568559200
9,23,Ticks_Phase_5,71,9999,9999,9999,1569059940
9,23,Ticks_Phase_5,72,9999,9999,9999,1569559628
9,23,Ticks_Phase_5,73,9999,9999,9999,1570059392
9,23,Ticks_Phase_5,74,9999,9999,9999,1570560120
9,23,Ticks_Phase_5,75,9999,9999,9999,1571070068
9,23,Ticks_Phase_5,76,9999,9999,9999,1571569756
9,23,Ticks_Phase_5,77,9999,9999,9999,1572069452
9,23,Ticks_Phase_5,78,9999,9999,9999,1572569204
9,23,Ticks_Phase_5,79,9999,9999,9999,1573069924
9,23,Ticks_Phase_5,80,9999,9999,9999,1573569612
9,23,Ticks_Phase_5,81,9999,9999,9999,1574049904
9,23,Ticks_Phase_5,82,9999,9999,9999,1574549588
9,23,Ticks_Phase_5,83,9999,9999,9999,1575049352
9,23,Ticks_Phase_5,84,9999,9999,9999,1575550016
9,23,Ticks_Phase_5,85,9999,9999,9999,1576049780
9,23,Ticks_Phase_5,86,9999,9999,9999,1576549468
9,23,Ticks_Phase_5,87,9999,9999,9999,1577049148
9,23,Ticks_Phase_5,88,9999,9999,9999,1577549884
9,23,Ticks_Phase_5,89,9999,9999,9999,1578049648
9,23,Ticks_Phase_5,90,9999,9999,9999,1578549336
9,23,Ticks_Phase_5,91,9999,9999,9999,1579050072
9,23,Ticks_Phase_5,92,9999,9999,9999,1579549760
9,23,Ticks_Phase_5,93,9999,9999,9999,1580049524
9,23,Ticks_Phase_5,94,9999,9999,9999,1580549212
9,23,Ticks_Phase_5,95,9999,9999,9999,1581049944
9,23,Ticks_Phase_5,96,9999,9999,9999,1581549640
9,23,Ticks_Phase_5,97,9999,9999,9999,1581999204
9,23,Ticks_Phase_5,98,9999,9999,9999,1582499940
9,23,Ticks_Phase_5,99,9999,9999,9999,1582999624
9,23,Ticks_Phase_5,100,9999,9999,9999,1583499388
9,23,Ticks_Phase_5,101,9999,9999,9999,1584000124
9,23,Ticks_Phase_5,102,9999,9999,9999,1584510068
9,23,Ticks_Phase_5,103,9999,9999,9999,1585009756
9,23,Ticks_Phase_5,104,9999,9999,9999,1585509444
9,23,Ticks_Phase_5,105,9999,9999,9999,1586009208
9,23,Ticks_Phase_5,106,9999,9999,9999,1586509944
9,23,Ticks_Phase_5,107,9999,9999,9999,1587009632
9,23,Ticks_Phase_5,108,9999,9999,9999,1587509324
9,23,Ticks_Phase_5,109,9999,9999,9999,1588010056
9,23,Ticks_Phase_5,110,9999,9999,9999,1588509820
9,23,Ticks_Phase_5,111,9999,9999,9999,1589009512
9,23,Ticks_Phase_5,112,9999,9999,9999,1589509196
9,23,Ticks_Phase_5,113,9999,9999,9999,1590009928
9,23,Ticks_Phase_5,114,9999,9999,9999,1590559868
9,23,Ticks_Phase_5,115,9999,9999,9999,1591059556
9,23,Ticks_Phase_5,116,9999,9999,9999,1591559252
9,23,Ticks_Phase_5,117,9999,9999,9999,1592059984
9,23,Ticks_Phase_5,118,9999,9999,9999,1592559672
9,23,Ticks_Phase_5,119,9999,9999,9999,1593059436
9,23,Ticks_Phase_5,120,9999,9999,9999,1593559124
9,23,Ticks_Phase_5,121,9999,9999,9999,1594059832
9,23,Ticks_Phase_5,122,9999,9999,9999,1594559596
9,23,Ticks_Phase_5,123,9999,9999,9999,1595059288
9,23,Ticks_Phase_5,124,9999,9999,9999,1595560024
9,23,Ticks_Phase_5,125,9999,9999,9999,1596059704
9,23,Ticks_Phase_5,126,9999,9999,9999,1596559468
9,23,Ticks_Phase_5,127,9999,9999,9999,1597059164
9,23,Ticks_Phase_5,128,9999,9999,9999,1597559916
9,23,Ticks_Phase_5,129,9999,9999,9999,1598059604
9,23,Ticks_Phase_5,130,9999,9999,9999,1598559292
9,23,Ticks_Phase_5,131,9999,9999,9999,1599159392
9,23,Ticks_Phase_5,132,9999,9999,9999,1599659096
9,23,Ticks_Phase_5,133,9999,9999,9999,1600159836
9,23,Ticks_Phase_5,134,9999,9999,9999,1600659524
9,23,Ticks_Phase_5,135,9999,9999,9999,1601159284
9,23,Ticks_Phase_5,136,9999,9999,9999,1601660012
9,23,Ticks_Phase_5,137,9999,9999,9999,1602159712
9,23,Ticks_Phase_5,138,9999,9999,9999,1602659392
9,23,Ticks_Phase_5,139,9999,9999,9999,1603159156
9,23,Ticks_Phase_5,140,9999,9999,9999,1603659892
9,23,Ticks_Phase_5,141,9999,9999,9999,1604159580
9,23,Ticks_Phase_5,142,9999,9999,9999,1604659276
9,23,Ticks_Phase_5,143,9999,9999,9999,1605160004
9,23,Ticks_Phase_5,144,9999,9999,9999,1605659768
9,23,Ticks_Phase_5,145,9999,9999,9999,1606159456
9,23,Ticks_Phase_5,146,9999,9999,9999,1606659144
9,23,Ticks_Phase_5,147,9999,9999,9999,1607159876
9,23,Ticks_Phase_5,148,9999,9999,9999,1607659640
9,23,Ticks_Phase_5,149,9999,9999,9999,1608159328
9,23,Ticks_Phase_5,150,9999,9999,9999,1608559696
9,23,Ticks_Phase_5,151,9999,9999,9999,1609059384
9,23,Ticks_Phase_5,152,9999,9999,9999,1609559140
9,23,Ticks_Phase_5,153,9999,9999,9999,1610059876
9,23,Ticks_Phase_5,154,9999,9999,9999,1610559564
9,23,Ticks_Phase_5,155,9999,9999,9999,1611059260
9,23,Ticks_Phase_5,156,9999,9999,9999,1611559992
9,23,Ticks_Phase_5,157,9999,9999,9999,1612059752
9,23,Ticks_Phase_5,158,9999,9999,9999,1612559444
9,23,Ticks_Phase_5,159,9999,9999,9999,1613059128
9,23,Ticks_Phase_5,160,9999,9999,9999,1613559860
9,23,Ticks_Phase_5,161,9999,9999,9999,1614059632
9,23,Ticks_Phase_5,162,9999,9999,9999,1614559312
9,23,Ticks_Phase_5,163,9999,9999,9999,1615060024
9,23,Ticks_Phase_5,164,9999,9999,9999,1615559780
9,23,Ticks_Phase_5,165,9999,9999,9999,1616059468
9,23,Ticks_Phase_5,166,9999,9999,9999,1616559156
9,23,Ticks_Phase_5,167,9999,9999,9999,1617059968
9,23,Ticks_Phase_5,168,9999,9999,9999,1617559652
9,23,Ticks_Phase_5,169,9999,9999,9999,1618059340
10,22,Ticks_Phase_8,0,5,42,127,1627894332
10,22,Ticks_Phase_8,1,5,42,127,1628693768
10,22,Ticks_Phase_8,2,5,42,127,1629493576
10,22,Ticks_Phase_8,3,1,48,50,1629499764
10,22,Ticks_Phase_8,4,5,42,127,1630294556
10,22,Ticks_Phase_8,5,1,48,58,1630331816
10,22,Ticks_Phase_8,6,5,42,127,1631094196
10,22,Ticks_Phase_8,7,5,42,127,1631893928
10,22,Ticks_Phase_8,8,1,48,56,1631920408
10,22,Ticks_Phase_8,9,5,42,127,1632693712
10,22,Ticks_Phase_8,10,1,48,45,1632711576
10,22,Ticks_Phase_8,11,1,48,47,1633487248
10,22,Ticks_Phase_8,12,5,42,127,1633494636
10,22,Ticks_Phase_8,13,1,48,47,1634278816
10,22,Ticks_Phase_8,14,5,42,127,1634294124
10,22,Ticks_Phase_8,15,1,48,55,1635090280
10,22,Ticks_Phase_8,16,5,42,127,1635093988
10,22,Ticks_Phase_8,17,1,48,57,1635880112
10,22,Ticks_Phase_8,18,5,42,127,1635893548
10,22,Ticks_Phase_8,19,1,48,48,1636670984
10,22,Ticks_Phase_8,20,5,42,127,1636694456
10,22,Ticks_Phase_8,21,1,48,41,1637485300
10,22,Ticks_Phase_8,22,5,42,127,1637494092
10,22,Ticks_Phase_8,23,1,48,61,1638255432
10,22,Ticks_Phase_8,24,5,42,127,1638293808
10,22,Ticks_Phase_8,25,1,48,56,1639093524
10,22,Ticks_Phase_8,26,5,42,127,1639094936
10,22,Ticks_Phase_8,27,5,42,127,1639894456
10,22,Ticks_Phase_8,28,1,48,54,1639938240
10,22,Ticks_Phase_8,29,5,42,127,1640694316
10,22,Ticks_Phase_8,30,1,48,59,1640711136
10,22,Ticks_Phase_8,31,5,42,127,1641493804
10,22,Ticks_Phase_8,32,1,48,49,1641522392
10,22,Ticks_Phase_8,33,5,42,127,1642293592
10,22,Ticks_Phase_8,34,1,48,63,1642340812
10,22,Ticks_Phase_8,35,5,42,127,1643094428
10,22,Ticks_Phase_8,36,1,48,51,1643116416
10,22,Ticks_Phase_8,37,5,42,127,1643894360
10,22,Ticks_Phase_8,38,1,48,48,1643954848
10,22,Ticks_Phase_8,39,5,42,127,1644694148
10,22,Ticks_Phase_8,40,1,48,58,1644698768
10,22,Ticks_Phase_8,41,5,42,127,1645493636
10,22,Ticks_Phase_8,42,1,48,54,1645495196
10,22,Ticks_Phase_8,43,1,48,57,1646274744
10,22,Ticks_Phase_8,44,5,42,127,1646294340
10,22,Ticks_Phase_8,45,5,42,127,1647094208
10,22,Ticks_Phase_8,46,1,48,39,1647125564
10,22,Ticks_Phase_8,47,1,48,57,1647877928
10,22,Ticks_Phase_8,48,5,42,127,1647893836
10,22,Ticks_Phase_8,49,1,48,49,1648672628
10,22,Ticks_Phase_8,50,5,42,127,1648693476
10,22,Ticks_Phase_8,51,5,42,127,1649494316
10,22,Ticks_Phase_8,52,1,48,45,1649498260
10,22,Ticks_Phase_8,53,5,42,127,1650294324
10,22,Ticks_Phase_8,54,1,48,46,1650295216
10,22,Ticks_Phase_8,55,5,42,127,1651093792
10,22,Ticks_Phase_8,56,1,48,45,1651108440
10,22,Ticks_Phase_8,57,1,48,51,1651866352
10,22,Ticks_Phase_8,58,5,42,127,1651874248
10,22,Ticks_Phase_8,59,1,48,52,1652657680
10,22,Ticks_Phase_8,60,5,42,127,1652674036
10,22,Ticks_Phase_8,61,1,48,47,1653452080
10,22,Ticks_Phase_8,62,5,42,127,1653473620
10,22,Ticks_Phase_8,63,1,48,47,1654224748
10,22,Ticks_Phase_8,64,5,42,127,1654274380
10,22,Ticks_Phase_8,65,5,42,127,1655084356
10,22,Ticks_Phase_8,66,1,48,54,1655114588
10,22,Ticks_Phase_8,67,5,42,127,1655884440
10,22,Ticks_Phase_8,68,1,48,52,1655957356
10,22,Ticks_Phase_8,69,1,48,57,1656590128
10,22,Ticks_Phase_8,70,5,42,127,1656683832
10,22,Ticks_Phase_8,71,1,48,51,1657455972
10,22,Ticks_Phase_8,72,5,42,127,1657483560
10,22,Ticks_Phase_8,73,5,42,127,1658284328
10,22,Ticks_Phase_8,74,1,48,60,1658293368
10,22,Ticks_Phase_8,75,5,42,127,1659084336
10,22,Ticks_Phase_8,76,1,48,60,1659102912
10,22,Ticks_Phase_8,77,5,42,127,1659883996
10,22,Ticks_Phase_8,78,1,48,46,1659941184
10,22,Ticks_Phase_8,79,1,48,53,1660678052
10,22,Ticks_Phase_8,80,5,42,127,1660683704
10,22,Ticks_Phase_8,81,1,48,50,1661460688
10,22,Ticks_Phase_8,82,5,42,127,1661484460
10,22,Ticks_Phase_8,83,1,48,48,1662247300
10,22,Ticks_Phase_8,84,5,42,127,1662284320
10,22,Ticks_Phase_8,85,1,48,67,1663083516
10,22,Ticks_Phase_8,86,5,42,127,1663085008
10,22,Ticks_Phase_8,87,1,48,54,1663847696
10,22,Ticks_Phase_8,88,5,42,127,1663883596
10,22,Ticks_Phase_8,89,1,48,53,1664619024
10,22,Ticks_Phase_8,90,5,42,127,1664684504
10,22,Ticks_Phase_8,91,1,48,55,1665475200
10,22,Ticks_Phase_8,92,5,42,127,1665484140
10,22,Ticks_Phase_8,93,1,48,55,1666281984
10,22,Ticks_Phase_8,94,5,42,127,1666304248
10,22,Ticks_Phase_8,95,1,48,53,1667100480
10,22,Ticks_Phase_8,96,5,42,127,1667104184
10,22,Ticks_Phase_8,97,5,42,127,1667904052
10,22,Ticks_Phase_8,98,1,48,56,1667906576
10,22,Ticks_Phase_8,99,5,42,127,1668703540
10,22,Ticks_Phase_8,100,1,48,51,1668727772
10,22,Ticks_Phase_8,101,1,48,42,1669495100
10,22,Ticks_Phase_8,102,5,42,127,1669504340
10,22,Ticks_Phase_8,103,1,48,54,1670256996
10,22,Ticks_Phase_8,104,5,42,127,1670303976
10,22,Ticks_Phase_8,105,5,42,127,1671103992
10,22,Ticks_Phase_8,106,1,48,47,1671147052
10,22,Ticks_Phase_8,107,5,42,127,1671903504
10,22,Ticks_Phase_8,108,1,48,50,1671929988
10,22,Ticks_Phase_8,109,1,48,53,1672690592
10,22,Ticks_Phase_8,110,5,42,127,1672704332
10,22,Ticks_Phase_8,111,1,48,50,1673478180
10,22,Ticks_Phase_8,112,5,42,127,1673504044
10,22,Ticks_Phase_8,113,1,48,40,1674263140
10,22,Ticks_Phase_8,114,5,42,127,1674304128
10,22,Ticks_Phase_8,115,1,48,54,1675064352
10,22,Ticks_Phase_8,116,5,42,127,1675103620
10,22,Ticks_Phase_8,117,1,48,51,1675885400
10,22,Ticks_Phase_8,118,5,42,127,1675904452
10,22,Ticks_Phase_8,119,1,48,48,1676661364
10,22,Ticks_Phase_8,120,5,42,127,1676704088
10,22,Ticks_Phase_8,121,5,42,127,1677503804
10,22,Ticks_Phase_8,122,1,48,53,1677522960
10,22,Ticks_Phase_8,123,1,48,59,1678289076
10,22,Ticks_Phase_8,124,5,42,127,1678303808
10,22,Ticks_Phase_8,125,1,48,49,1679055612
10,22,Ticks_Phase_8,126,5,42,127,1679144188
10,22,Ticks_Phase_8,127,1,48,52,1679857676
10,22,Ticks_Phase_8,128,5,42,127,1679943972
10,22,Ticks_Phase_8,129,1,48,51,1680737292
10,22,Ticks_Phase_8,130,5,42,127,1680744056
10,22,Ticks_Phase_8,131,5,42,127,1681543476
10,22,Ticks_Phase_8,132,1,48,41,1681552068
10,22,Ticks_Phase_8,133,5,42,127,1682344308
10,22,Ticks_Phase_8,134,1,48,28,1682357164
10,22,Ticks_Phase_8,135,1,48,39,1683137920
10,22,Ticks_Phase_8,136,5,42,127,1683143940
10,22,Ticks_Phase_8,137,1,48,46,1683924848
10,22,Ticks_Phase_8,138,5,42,127,1683943896
10,22,Ticks_Phase_8,139,1,48,45,1684711072
10,22,Ticks_Phase_8,140,5,42,127,1684743832
10,22,Ticks_Phase_8,141,1,48,37,1685531304
10,22,Ticks_Phase_8,142,5,42,127,1685544444
10,22,Ticks_Phase_8,143,1,48,40,1686318292
10,22,Ticks_Phase_8,144,5,42,127,1686344080
10,22,Ticks_Phase_8,145,1,48,30,1687113364
10,22,Ticks_Phase_8,146,5,42,127,1687143644
10,22,Ticks_Phase_8,147,1,48,41,1687881924
10,22,Ticks_Phase_8,148,5,42,127,1687943876
10,22,Ticks_Phase_8,149,1,48,38,1688725668
10,22,Ticks_Phase_8,150,5,42,127,1688744264
10,22,Ticks_Phase_8,151,1,48,44,1689540492
10,22,Ticks_Phase_8,152,5,42,127,1689544124
10,22,Ticks_Phase_8,153,1,48,61,1690317592
10,22,Ticks_Phase_8,154,5,42,127,1690343712
10,22,Ticks_Phase_8,155,1,48,54,1691092848
10,22,Ticks_Phase_8,156,5,42,127,1691143796
10,22,Ticks_Phase_8,157,1,48,52,1691911808
10,22,Ticks_Phase_8,158,5,42,127,1691944260
10,22,Ticks_Phase_8,159,5,42,127,1692704064
10,22,Ticks_Phase_8,160,1,48,59,1692743132
10,22,Ticks_Phase_8,161,1,48,54,1693500284
10,22,Ticks_Phase_8,162,5,42,127,1693504064
10,22,Ticks_Phase_8,163,5,42,127,1694303636
10,22,Ticks_Phase_8,164,1,48,33,1694349212
10,22,Ticks_Phase_8,165,1,48,52,1695063844
10,22,Ticks_Phase_8,166,5,42,127,1695104312
10,22,Ticks_Phase_8,167,1,48,48,1695862812
10,22,Ticks_Phase_8,168,5,42,127,1695904096
10,22,Ticks_Phase_8,169,1,48,53,1696640272
10,22,Ticks_Phase_8,170,5,42,127,1696703812
10,22,Ticks_Phase_8,171,1,48,48,1697482832
10,22,Ticks_Phase_8,172,5,42,127,1697503548
10,22,Ticks_Phase_8,173,1,48,51,1698270048
10,22,Ticks_Phase_8,174,5,42,127,1698304676
10,22,Ticks_Phase_8,175,1,48,46,1699078600
10,22,Ticks_Phase_8,176,5,42,127,1699104168
10,22,Ticks_Phase_8,177,1,48,44,1699872548
10,22,Ticks_Phase_8,178,5,42,127,1699903952
10,22,Ticks_Phase_8,179,1,48,46,1700679072
10,22,Ticks_Phase_8,180,5,42,127,1700703816
10,22,Ticks_Phase_8,181,1,48,41,1701437292
10,22,Ticks_Phase_8,182,5,42,127,1701504496
10,22,Ticks_Phase_8,183,1,48,51,1702276844
10,22,Ticks_Phase_8,184,5,42,127,1702303984
10,22,Ticks_Phase_8,185,1,48,49,1703052524
10,22,Ticks_Phase_8,186,5,42,127,1703103772
10,22,Ticks_Phase_8,187,5,42,127,1703903736
10,22,Ticks_Phase_8,188,1,48,51,1703914576
10,22,Ticks_Phase_8,189,1,48,48,1704640104
10,22,Ticks_Phase_8,190,5,42,127,1704704416
10,22,Ticks_Phase_8,191,5,42,127,1705424428
10,22,Ticks_Phase_8,192,1,48,47,1705501780
10,22,Ticks_Phase_8,193,1,48,51,1706161504
10,22,Ticks_Phase_8,194,5,42,127,1706223860
10,22,Ticks_Phase_8,195,1,48,47,1706951856
10,22,Ticks_Phase_8,196,5,42,127,1707023868
10,22,Ticks_Phase_8,197,1,48,47,1707743576
10,22,Ticks_Phase_8,198,5,42,127,1707823432
10,22,Ticks_Phase_8,199,1,48,46,1708560504
10,22,Ticks_Phase_8,200,5,42,127,1708624416
10,22,Ticks_Phase_8,201,1,48,46,1709356628
10,22,Ticks_Phase_8,202,5,42,127,1709424128
10,22,Ticks_Phase_8,203,5,42,127,1710223772
10,22,Ticks_Phase_8,204,1,48,40,1710226364
10,22,Ticks_Phase_8,205,5,42,127,1711023408
10,22,Ticks_Phase_8,206,1,48,47,1711031392
10,22,Ticks_Phase_8,207,1,48,49,1711791488
10,22,Ticks_Phase_8,208,5,42,127,1711824532
10,22,Ticks_Phase_8,209,1,48,56,1712558464
10,22,Ticks_Phase_8,210,5,42,127,1712623972
10,22,Ticks_Phase_8,211,1,48,48,1713387184
10,22,Ticks_Phase_8,212,5,42,127,1713423684
10,22,Ticks_Phase_8,213,1,48,54,1714196028
10,22,Ticks_Phase_8,214,5,42,127,1714223468
10,22,Ticks_Phase_8,215,5,42,127,1715024384
10,22,Ticks_Phase_8,216,1,48,50,1715052148
10,22,Ticks_Phase_8,217,1,48,38,1715814480
10,22,Ticks_Phase_8,218,5,42,127,1715824016
10,22,Ticks_Phase_8,219,1,48,56,1716612248
10,22,Ticks_Phase_8,220,5,42,127,1716623800
10,22,Ticks_Phase_8,221,1,48,55,1717384324
10,22,Ticks_Phase_8,222,5,42,127,1717423588
10,22,Ticks_Phase_8,223,1,48,64,1718176992
10,22,Ticks_Phase_8,224,5,42,127,1718224348
10,22,Ticks_Phase_8,225,1,48,57,1718968240
10,22,Ticks_Phase_8,226,5,42,127,1719104052
10,22,Ticks_Phase_8,227,1,48,49,1719900304
10,22,Ticks_Phase_8,228,5,42,127,1719903632
10,22,Ticks_Phase_8,229,5,42,127,1720704472
10,22,Ticks_Phase_8,230,1,48,40,1720763088
10,22,Ticks_Phase_8,231,1,48,46,1721494412
10,22,Ticks_Phase_8,232,5,42,127,1721504252
10,22,Ticks_Phase_8,233,1,48,51,1722246496
10,22,Ticks_Phase_8,234,5,42,127,1722303888
10,22,Ticks_Phase_8,235,1,48,38,1723053920
10,22,Ticks_Phase_8,236,5,42,127,1723103552
10,22,Ticks_Phase_8,237,1,48,36,1723871412
10,22,Ticks_Phase_8,238,5,42,127,1723904308
10,22,Ticks_Phase_8,239,1,48,55,1724661912
10,22,Ticks_Phase_8,240,5,42,127,1724704320
10,22,Ticks_Phase_8,241,1,48,40,1725404256
10,22,Ticks_Phase_8,242,5,42,127,1725503792
10,22,Ticks_Phase_8,243,1,48,46,1726299064
10,22,Ticks_Phase_8,244,5,42,127,1726303592
10,22,Ticks_Phase_8,245,5,42,127,1727104360
10,22,Ticks_Phase_8,246,1,48,44,1727115940
10,22,Ticks_Phase_8,247,1,48,49,1727870704
10,22,Ticks_Phase_8,248,5,42,127,1727904288
10,22,Ticks_Phase_8,249,1,48,46,1728701192
10,22,Ticks_Phase_8,250,5,42,127,1728704224
10,22,Ticks_Phase_8,251,1,48,54,1729465336
10,22,Ticks_Phase_8,252,5,42,127,1729503660
10,22,Ticks_Phase_8,253,5,42,127,1730304352
10,22,Ticks_Phase_8,254,1,48,35,1730337056
10,22,Ticks_Phase_8,255,1,48,52,1731087480
10,22,Ticks_Phase_8,256,5,42,127,1731104208
10,22,Ticks_Phase_8,257,1,48,41,1731877232
10,22,Ticks_Phase_8,258,5,42,127,1731904144
10,22,Ticks_Phase_8,259,1,48,49,1732684508
10,22,Ticks_Phase_8,260,5,42,127,1732864428
10,22,Ticks_Phase_8,261,5,42,127,1733664236
10,22,Ticks_Phase_8,262,1,48,44,1733746892
10,22,Ticks_Phase_8,263,1,48,40,1734429532
10,22,Ticks_Phase_8,264,5,42,127,1734463792
10,22,Ticks_Phase_8,265,1,48,38,1735254416
10,22,Ticks_Phase_8,266,5,42,127,1735263580
10,22,Ticks_Phase_8,267,5,42,127,1736064344
10,22,Ticks_Phase_8,268,1,48,47,1736133516
10,22,Ticks_Phase_8,269,1,48,45,1736806880
10,22,Ticks_Phase_8,270,5,42,127,1736864196
10,22,Ticks_Phase_8,271,1,48,38,1737627036
10,22,Ticks_Phase_8,272,5,42,127,1737664056
10,22,Ticks_Phase_8,273,5,42,127,1738463576
10,22,Ticks_Phase_8,274,1,48,42,1738513656
10,22,Ticks_Phase_8,275,5,42,127,1739264336
10,22,Ticks_Phase_8,276,1,48,40,1739292848
10,22,Ticks_Phase_8,277,1,48,35,1740062156
10,22,Ticks_Phase_8,278,5,42,127,1740064040
10,22,Ticks_Phase_8,279,1,48,42,1740856388
10,22,Ticks_Phase_8,280,5,42,127,1740864128
10,22,Ticks_Phase_8,281,1,48,40,1741635656
10,22,Ticks_Phase_8,282,5,42,127,1741663540
10,22,Ticks_Phase_8,283,1,48,49,1742464528
10,22,Ticks_Phase_8,284,5,42,127,1742465940
10,22,Ticks_Phase_8,285,1,48,45,1743262888
10,22,Ticks_Phase_8,286,5,42,127,1743264308
10,22,Ticks_Phase_8,287,1,48,38,1744049240
10,22,Ticks_Phase_8,288,5,42,127,1744063944
10,22,Ticks_Phase_8,289,1,48,49,1744839960
10,22,Ticks_Phase_8,290,5,42,127,1744863680
10,22,Ticks_Phase_8,291,1,48,64,1745632140
10,22,Ticks_Phase_8,292,5,42,127,1745664368
10,22,Ticks_Phase_8,293,1,48,60,1746370184
10,22,Ticks_Phase_8,294,5,42,127,1746464060
10,22,Ticks_Phase_8,295,5,42,127,1747263944
10,22,Ticks_Phase_8,296,1,48,51,1747284964
10,22,Ticks_Phase_8,297,5,42,127,1747903896
10,22,Ticks_Phase_8,298,1,48,46,1748063340
10,22,Ticks_Phase_8,299,1,48,44,1748640660
10,22,Ticks_Phase_8,300,5,42,127,1748703704
10,22,Ticks_Phase_8,301,1,48,36,1749425256
10,22,Ticks_Phase_8,302,5,42,127,1749504312
10,22,Ticks_Phase_8,303,5,42,127,1750304032
10,22,Ticks_Phase_8,304,1,48,37,1750374404
10,22,Ticks_Phase_8,305,1,48,49,1751103368
10,22,Ticks_Phase_8,306,5,42,127,1751104860
10,22,Ticks_Phase_8,307,1,48,45,1751861416
10,22,Ticks_Phase_8,308,5,42,127,1751903672
10,22,Ticks_Phase_8,309,1,48,46,1752652212
10,22,Ticks_Phase_8,310,5,42,127,1752704356
10,22,Ticks_Phase_8,311,1,48,48,1753475284
10,22,Ticks_Phase_8,312,5,42,127,1753503992
10,22,Ticks_Phase_8,313,1,48,51,1754291400
10,22,Ticks_Phase_8,314,5,42,127,1754303704
10,22,Ticks_Phase_8,315,1,48,48,1755058376
10,22,Ticks_Phase_8,316,5,42,127,1755103812
10,22,Ticks_Phase_8,317,1,48,46,1755883952
10,22,Ticks_Phase_8,318,5,42,127,1755904272
10,22,Ticks_Phase_8,319,1,48,47,1756647940
10,22,Ticks_Phase_8,320,5,42,127,1756703984
10,22,Ticks_Phase_8,321,1,48,46,1757487120
10,22,Ticks_Phase_8,322,5,42,127,1757503844
10,22,Ticks_Phase_8,323,1,48,48,1758250652
10,22,Ticks_Phase_8,324,5,42,127,1758303780
10,22,Ticks_Phase_8,325,1,48,46,1759017044
10,22,Ticks_Phase_8,326,5,42,127,1759104316
10,22,Ticks_Phase_8,327,1,48,43,1759888044
10,22,Ticks_Phase_8,328,5,42,127,1759904100
10,22,Ticks_Phase_8,329,1,48,48,1760672264
10,22,Ticks_Phase_8,330,5,42,127,1760703816
10,22,Ticks_Phase_8,331,1,48,48,1761466348
10,22,Ticks_Phase_8,332,5,42,127,1761503772
10,22,Ticks_Phase_8,333,1,48,44,1762233040
10,22,Ticks_Phase_8,334,5,42,127,1762304236
10,22,Ticks_Phase_8,335,1,48,57,1763071780
10,22,Ticks_Phase_8,336,5,42,127,1763104244
10,22,Ticks_Phase_8,0,9999,9999,9999,1627891824
10,22,Ticks_Phase_8,1,9999,9999,9999,1628691556
10,22,Ticks_Phase_8,2,9999,9999,9999,1629491288
10,22,Ticks_Phase_8,3,9999,9999,9999,1630292048
10,22,Ticks_Phase_8,4,9999,9999,9999,1631091832
10,22,Ticks_Phase_8,5,9999,9999,9999,1631891568
10,22,Ticks_Phase_8,6,9999,9999,9999,1632691280
10,22,Ticks_Phase_8,7,9999,9999,9999,1633492028
10,22,Ticks_Phase_8,8,9999,9999,9999,1634291764
10,22,Ticks_Phase_8,9,9999,9999,9999,1635091552
10,22,Ticks_Phase_8,10,9999,9999,9999,1635891264
10,22,Ticks_Phase_8,11,9999,9999,9999,1636692096
10,22,Ticks_Phase_8,12,9999,9999,9999,1637491808
10,22,Ticks_Phase_8,13,9999,9999,9999,1638291520
10,22,Ticks_Phase_8,14,9999,9999,9999,1639091312
10,22,Ticks_Phase_8,15,9999,9999,9999,1639892072
10,22,Ticks_Phase_8,16,9999,9999,9999,1640691808
10,22,Ticks_Phase_8,17,9999,9999,9999,1641491520
10,22,Ticks_Phase_8,18,9999,9999,9999,1642291304
10,22,Ticks_Phase_8,19,9999,9999,9999,1643092064
10,22,Ticks_Phase_8,20,9999,9999,9999,1643891776
10,22,Ticks_Phase_8,21,9999,9999,9999,1644691564
10,22,Ticks_Phase_8,22,9999,9999,9999,1645491276
10,22,Ticks_Phase_8,23,9999,9999,9999,1646292028
10,22,Ticks_Phase_8,24,9999,9999,9999,1647091772
10,22,Ticks_Phase_8,25,9999,9999,9999,1647891552
10,22,Ticks_Phase_8,26,9999,9999,9999,1648691264
10,22,Ticks_Phase_8,27,9999,9999,9999,1649492028
10,22,Ticks_Phase_8,28,9999,9999,9999,1650291816
10,22,Ticks_Phase_8,29,9999,9999,9999,1651091576
10,22,Ticks_Phase_8,30,9999,9999,9999,1651871812
10,22,Ticks_Phase_8,31,9999,9999,9999,1652671600
10,22,Ticks_Phase_8,32,9999,9999,9999,1653471336
10,22,Ticks_Phase_8,33,9999,9999,9999,1654272092
10,22,Ticks_Phase_8,34,9999,9999,9999,1655082068
10,22,Ticks_Phase_8,35,9999,9999,9999,1655881784
10,22,Ticks_Phase_8,36,9999,9999,9999,1656681560
10,22,Ticks_Phase_8,37,9999,9999,9999,1657481272
10,22,Ticks_Phase_8,38,9999,9999,9999,1658282040
10,22,Ticks_Phase_8,39,9999,9999,9999,1659081824
10,22,Ticks_Phase_8,40,9999,9999,9999,1659881560
10,22,Ticks_Phase_8,41,9999,9999,9999,1660681344
10,22,Ticks_Phase_8,42,9999,9999,9999,1661482100
10,22,Ticks_Phase_8,43,9999,9999,9999,1662281812
10,22,Ticks_Phase_8,44,9999,9999,9999,1663081532
10,22,Ticks_Phase_8,45,9999,9999,9999,1663881312
10,22,Ticks_Phase_8,46,9999,9999,9999,1664682068
10,22,Ticks_Phase_8,47,9999,9999,9999,1665481856
10,22,Ticks_Phase_8,48,9999,9999,9999,1666302036
10,22,Ticks_Phase_8,49,9999,9999,9999,1667101748
10,22,Ticks_Phase_8,50,9999,9999,9999,1667901540
10,22,Ticks_Phase_8,51,9999,9999,9999,1668701252
10,22,Ticks_Phase_8,52,9999,9999,9999,1669502052
10,22,Ticks_Phase_8,53,9999,9999,9999,1670301764
10,22,Ticks_Phase_8,54,9999,9999,9999,1671101560
10,22,Ticks_Phase_8,55,9999,9999,9999,1671901292
10,22,Ticks_Phase_8,56,9999,9999,9999,1672702048
10,22,Ticks_Phase_8,57,9999,9999,9999,1673501760
10,22,Ticks_Phase_8,58,9999,9999,9999,1674301544
10,22,Ticks_Phase_8,59,9999,9999,9999,1675101260
10,22,Ticks_Phase_8,60,9999,9999,9999,1675902016
10,22,Ticks_Phase_8,61,9999,9999,9999,1676701800
10,22,Ticks_Phase_8,62,9999,9999,9999,1677501520
10,22,Ticks_Phase_8,63,9999,9999,9999,1678301300
10,22,Ticks_Phase_8,64,9999,9999,9999,1679141972
10,22,Ticks_Phase_8,65,9999,9999,9999,1679941684
10,22,Ticks_Phase_8,66,9999,9999,9999,1680741472
10,22,Ticks_Phase_8,67,9999,9999,9999,1681541192
10,22,Ticks_Phase_8,68,9999,9999,9999,1682341948
10,22,Ticks_Phase_8,69,9999,9999,9999,1683141728
10,22,Ticks_Phase_8,70,9999,9999,9999,1683941464
10,22,Ticks_Phase_8,71,9999,9999,9999,1684741176
10,22,Ticks_Phase_8,72,9999,9999,9999,1685542008
10,22,Ticks_Phase_8,73,9999,9999,9999,1686341720
10,22,Ticks_Phase_8,74,9999,9999,9999,1687141432
10,22,Ticks_Phase_8,75,9999,9999,9999,1687941220
10,22,Ticks_Phase_8,76,9999,9999,9999,1688741980
10,22,Ticks_Phase_8,77,9999,9999,9999,1689541688
10,22,Ticks_Phase_8,78,9999,9999,9999,1690341500
10,22,Ticks_Phase_8,79,9999,9999,9999,1691141212
10,22,Ticks_Phase_8,80,9999,9999,9999,1691941972
10,22,Ticks_Phase_8,81,9999,9999,9999,1692701776
10,22,Ticks_Phase_8,82,9999,9999,9999,1693501556
10,22,Ticks_Phase_8,83,9999,9999,9999,1694301276
10,22,Ticks_Phase_8,84,9999,9999,9999,1695102028
10,22,Ticks_Phase_8,85,9999,9999,9999,1695901812
10,22,Ticks_Phase_8,86,9999,9999,9999,1696701524
10,22,Ticks_Phase_8,87,9999,9999,9999,1697501260
10,22,Ticks_Phase_8,88,9999,9999,9999,1698302020
10,22,Ticks_Phase_8,89,9999,9999,9999,1699101808
10,22,Ticks_Phase_8,90,9999,9999,9999,1699901520
10,22,Ticks_Phase_8,91,9999,9999,9999,1700701304
10,22,Ticks_Phase_8,92,9999,9999,9999,1701502060
10,22,Ticks_Phase_8,93,9999,9999,9999,1702301772
10,22,Ticks_Phase_8,94,9999,9999,9999,1703101560
10,22,Ticks_Phase_8,95,9999,9999,9999,1703901300
10,22,Ticks_Phase_8,96,9999,9999,9999,1704702052
10,22,Ticks_Phase_8,97,9999,9999,9999,1705421916
10,22,Ticks_Phase_8,98,9999,9999,9999,1706221648
10,22,Ticks_Phase_8,99,9999,9999,9999,1707021432
10,22,Ticks_Phase_8,100,9999,9999,9999,1707821148
10,22,Ticks_Phase_8,101,9999,9999,9999,1708621908
10,22,Ticks_Phase_8,102,9999,9999,9999,1709421692
10,22,Ticks_Phase_8,103,9999,9999,9999,1710221412
10,22,Ticks_Phase_8,104,9999,9999,9999,1711021120
10,22,Ticks_Phase_8,105,9999,9999,9999,1711821948
10,22,Ticks_Phase_8,106,9999,9999,9999,1712621684
10,22,Ticks_Phase_8,107,9999,9999,9999,1713421396
10,22,Ticks_Phase_8,108,9999,9999,9999,1714221184
10,22,Ticks_Phase_8,109,9999,9999,9999,1715021948
10,22,Ticks_Phase_8,110,9999,9999,9999,1715821656
10,22,Ticks_Phase_8,111,9999,9999,9999,1716621368
10,22,Ticks_Phase_8,112,9999,9999,9999,1717421152
10,22,Ticks_Phase_8,113,9999,9999,9999,1718221912
10,22,Ticks_Phase_8,114,9999,9999,9999,1719101540
10,22,Ticks_Phase_8,115,9999,9999,9999,1719901268
10,22,Ticks_Phase_8,116,9999,9999,9999,1720702036
10,22,Ticks_Phase_8,117,9999,9999,9999,1721501816
10,22,Ticks_Phase_8,118,9999,9999,9999,1722301528
10,22,Ticks_Phase_8,119,9999,9999,9999,1723101264
10,22,Ticks_Phase_8,120,9999,9999,9999,1723902020
10,22,Ticks_Phase_8,121,9999,9999,9999,1724701808
10,22,Ticks_Phase_8,122,9999,9999,9999,1725501504
10,22,Ticks_Phase_8,123,9999,9999,9999,1726301308
10,22,Ticks_Phase_8,124,9999,9999,9999,1727102072
10,22,Ticks_Phase_8,125,9999,9999,9999,1727901776
10,22,Ticks_Phase_8,126,9999,9999,9999,1728701564
10,22,Ticks_Phase_8,127,9999,9999,9999,1729501300
10,22,Ticks_Phase_8,128,9999,9999,9999,1730302068
10,22,Ticks_Phase_8,129,9999,9999,9999,1731101772
10,22,Ticks_Phase_8,130,9999,9999,9999,1731901560
10,22,Ticks_Phase_8,131,9999,9999,9999,1732862064
10,22,Ticks_Phase_8,132,9999,9999,9999,1733661800
10,22,Ticks_Phase_8,133,9999,9999,9999,1734461504
10,22,Ticks_Phase_8,134,9999,9999,9999,1735261292
10,22,Ticks_Phase_8,135,9999,9999,9999,1736062056
10,22,Ticks_Phase_8,136,9999,9999,9999,1736861760
10,22,Ticks_Phase_8,137,9999,9999,9999,1737661548
10,22,Ticks_Phase_8,138,9999,9999,9999,1738461292
10,22,Ticks_Phase_8,139,9999,9999,9999,1739262048
10,22,Ticks_Phase_8,140,9999,9999,9999,1740061784
10,22,Ticks_Phase_8,141,9999,9999,9999,1740861544
10,22,Ticks_Phase_8,142,9999,9999,9999,1741661256
10,22,Ticks_Phase_8,143,9999,9999,9999,1742462020
10,22,Ticks_Phase_8,144,9999,9999,9999,1743261804
10,22,Ticks_Phase_8,145,9999,9999,9999,1744061512
10,22,Ticks_Phase_8,146,9999,9999,9999,1744861248
10,22,Ticks_Phase_8,147,9999,9999,9999,1745662004
10,22,Ticks_Phase_8,148,9999,9999,9999,1746461776
10,22,Ticks_Phase_8,149,9999,9999,9999,1747261508
10,22,Ticks_Phase_8,150,9999,9999,9999,1747901536
10,22,Ticks_Phase_8,151,9999,9999,9999,1748701268
10,22,Ticks_Phase_8,152,9999,9999,9999,1749502028
10,22,Ticks_Phase_8,153,9999,9999,9999,1750301820
10,22,Ticks_Phase_8,154,9999,9999,9999,1751101532
10,22,Ticks_Phase_8,155,9999,9999,9999,1751901240
10,22,Ticks_Phase_8,156,9999,9999,9999,1752702072
10,22,Ticks_Phase_8,157,9999,9999,9999,1753501780
10,22,Ticks_Phase_8,158,9999,9999,9999,1754301492
10,22,Ticks_Phase_8,159,9999,9999,9999,1755101304
10,22,Ticks_Phase_8,160,9999,9999,9999,1755902060
10,22,Ticks_Phase_8,161,9999,9999,9999,1756701772
10,22,Ticks_Phase_8,162,9999,9999,9999,1757501560
10,22,Ticks_Phase_8,163,9999,9999,9999,1758301272
10,22,Ticks_Phase_8,164,9999,9999,9999,1759102028
10,22,Ticks_Phase_8,165,9999,9999,9999,1759901816
10,22,Ticks_Phase_8,166,9999,9999,9999,1760701528
10,22,Ticks_Phase_8,167,9999,9999,9999,1761501264
10,22,Ticks_Phase_8,168,9999,9999,9999,1762302024
10,22,Ticks_Phase_8,169,9999,9999,9999,1763101808
11,25,Jits_Pract_5,0,5,56,103,1819231620
11,25,Jits_Pract_5,1,5,63,98,1819234796
11,25,Jits_Pract_5,2,5,80,127,1819237988
11,25,Jits_Pract_5,0,5,56,103,1819732392
11,25,Jits_Pract_5,1,5,63,98,1819735792
11,25,Jits_Pract_5,2,5,80,127,1819738836
11,25,Jits_Pract_5,0,5,56,103,1820231912
11,25,Jits_Pract_5,1,5,80,127,1820242408
11,25,Jits_Pract_5,2,5,63,98,1820261968
11,25,Jits_Pract_5,0,5,63,98,1820681612
11,25,Jits_Pract_5,1,5,80,127,1820712260
11,25,Jits_Pract_5,2,5,56,103,1820721480
11,25,Jits_Pract_5,0,5,80,127,1821241796
11,25,Jits_Pract_5,1,5,56,103,1821251844
11,25,Jits_Pract_5,2,5,63,98,1821281740
11,25,Jits_Pract_5,0,5,63,98,1821732256
11,25,Jits_Pract_5,1,5,56,103,1821761856
11,25,Jits_Pract_5,2,5,80,127,1821772124
11,25,Jits_Pract_5,0,5,56,103,1822181788
11,25,Jits_Pract_5,1,5,63,98,1822231992
11,25,Jits_Pract_5,2,5,80,127,1822252300
11,25,Jits_Pract_5,0,5,80,127,1822681460
11,25,Jits_Pract_5,1,5,63,98,1822731808
11,25,Jits_Pract_5,2,5,56,103,1822771824
11,25,Jits_Pract_5,0,5,56,103,1823182176
11,25,Jits_Pract_5,1,5,63,98,1823212000
11,25,Jits_Pract_5,2,5,80,127,1823281756
11,25,Jits_Pract_5,0,5,56,103,1823681896
11,25,Jits_Pract_5,1,5,80,127,1823742312
11,25,Jits_Pract_5,2,5,63,98,1823772208
11,25,Jits_Pract_5,0,5,56,103,1824191756
11,25,Jits_Pract_5,1,5,63,98,1824202024
11,25,Jits_Pract_5,2,5,80,127,1824242060
11,25,Jits_Pract_5,0,5,63,98,1824682352
11,25,Jits_Pract_5,1,5,80,127,1824762248
11,25,Jits_Pract_5,2,5,56,103,1824771620
11,25,Jits_Pract_5,0,5,63,98,1825232232
11,25,Jits_Pract_5,1,5,56,103,1825272168
11,25,Jits_Pract_5,2,5,80,127,1825275232
11,25,Jits_Pract_5,0,5,56,103,1825692064
11,25,Jits_Pract_5,1,5,63,98,1825702260
11,25,Jits_Pract_5,2,5,80,127,1825742076
11,25,Jits_Pract_5,0,5,56,103,1826181464
11,25,Jits_Pract_5,1,5,63,98,1826184604
11,25,Jits_Pract_5,2,5,80,127,1826201924
11,25,Jits_Pract_5,0,9999,9999,9999,1819479128
11,25,Jits_Pract_5,1,9999,9999,9999,1819979828
11,25,Jits_Pract_5,2,9999,9999,9999,1820479576
11,25,Jits_Pract_5,3,9999,9999,9999,1820979316
11,25,Jits_Pract_5,4,9999,9999,9999,1821480020
11,25,Jits_Pract_5,5,9999,9999,9999,1821979768
11,25,Jits_Pract_5,6,9999,9999,9999,1822479424
11,25,Jits_Pract_5,7,9999,9999,9999,1822979168
11,25,Jits_Pract_5,8,9999,9999,9999,1823479884
11,25,Jits_Pract_5,9,9999,9999,9999,1823979628
11,25,Jits_Pract_5,10,9999,9999,9999,1824479296
11,25,Jits_Pract_5,11,9999,9999,9999,1824980088
11,25,Jits_Pract_5,12,9999,9999,9999,1825479788
11,25,Jits_Pract_5,13,9999,9999,9999,1825979508
11,25,Jits_Pract_5,14,9999,9999,9999,1826479160
12,25,Jits_Pract_5,0,5,56,103,1877549280
12,25,Jits_Pract_5,1,5,63,98,1877552528
12,25,Jits_Pract_5,2,5,80,127,1877555652
12,25,Jits_Pract_5,0,5,56,103,1878049160
12,25,Jits_Pract_5,1,5,63,98,1878052180
12,25,Jits_Pract_5,2,5,80,127,1878055304
12,25,Jits_Pract_5,0,5,56,103,1878548976
12,25,Jits_Pract_5,1,5,80,127,1878559100
12,25,Jits_Pract_5,2,5,63,98,1878578436
12,25,Jits_Pract_5,0,5,63,98,1878999420
12,25,Jits_Pract_5,1,5,80,127,1879029096
12,25,Jits_Pract_5,2,5,56,103,1879039292
12,25,Jits_Pract_5,3,1,48,51,1879080544
12,25,Jits_Pract_5,0,1,48,59,1879494852
12,25,Jits_Pract_5,1,5,80,127,1879558444
12,25,Jits_Pract_5,2,5,56,103,1879569012
12,25,Jits_Pract_5,3,5,63,98,1879598376
12,25,Jits_Pract_5,0,1,48,58,1880006156
12,25,Jits_Pract_5,1,5,63,98,1880049072
12,25,Jits_Pract_5,2,5,56,103,1880078824
12,25,Jits_Pract_5,3,5,80,127,1880088800
12,25,Jits_Pract_5,0,5,56,103,1880498480
12,25,Jits_Pract_5,1,5,63,98,1880549004
12,25,Jits_Pract_5,2,1,48,58,1880553548
12,25,Jits_Pract_5,3,5,80,127,1880569156
12,25,Jits_Pract_5,0,5,80,127,1880999304
12,25,Jits_Pract_5,1,5,63,98,1881048412
12,25,Jits_Pract_5,2,1,48,48,1881054524
12,25,Jits_Pract_5,3,5,56,103,1881089316
12,25,Jits_Pract_5,0,5,56,103,1881498936
12,25,Jits_Pract_5,1,5,63,98,1881528912
12,25,Jits_Pract_5,2,1,48,58,1881553848
12,25,Jits_Pract_5,3,5,80,127,1881599360
12,25,Jits_Pract_5,0,5,56,103,1881998936
12,25,Jits_Pract_5,1,1,48,49,1882036900
12,25,Jits_Pract_5,2,5,80,127,1882059048
12,25,Jits_Pract_5,3,5,63,98,1882088724
12,25,Jits_Pract_5,0,1,48,65,1882506564
12,25,Jits_Pract_5,1,5,56,103,1882508828
12,25,Jits_Pract_5,2,5,63,98,1882518800
12,25,Jits_Pract_5,3,5,80,127,1882558884
12,25,Jits_Pract_5,0,1,48,60,1882990660
12,25,Jits_Pract_5,1,5,63,98,1882999152
12,25,Jits_Pract_5,2,5,80,127,1883079028
12,25,Jits_Pract_5,3,5,56,103,1883089208
12,25,Jits_Pract_5,0,1,48,61,1883523888
12,25,Jits_Pract_5,1,5,63,98,1883548948
12,25,Jits_Pract_5,2,5,56,103,1883588960
12,25,Jits_Pract_5,3,5,80,127,1883592100
12,25,Jits_Pract_5,0,5,56,103,1884008928
12,25,Jits_Pract_5,1,5,63,98,1884019124
12,25,Jits_Pract_5,2,1,48,54,1884040148
12,25,Jits_Pract_5,3,5,80,127,1884059056
12,25,Jits_Pract_5,0,5,56,103,1884499412
12,25,Jits_Pract_5,1,5,63,98,1884502332
12,25,Jits_Pract_5,2,1,48,54,1884507932
12,25,Jits_Pract_5,3,5,80,127,1884518820
12,25,Jits_Pract_5,0,9999,9999,9999,1877796944
12,25,Jits_Pract_5,1,9999,9999,9999,1878296672
12,25,Jits_Pract_5,2,9999,9999,9999,1878796344
12,25,Jits_Pract_5,3,9999,9999,9999,1879296060
12,25,Jits_Pract_5,4,9999,9999,9999,1879796804
12,25,Jits_Pract_5,5,9999,9999,9999,1880296504
12,25,Jits_Pract_5,6,9999,9999,9999,1880796268
12,25,Jits_Pract_5,7,9999,9999,9999,1881297020
12,25,Jits_Pract_5,8,9999,9999,9999,1881796704
12,25,Jits_Pract_5,9,9999,9999,9999,1882296400
12,25,Jits_Pract_5,10,9999,9999,9999,1882796108
12,25,Jits_Pract_5,11,9999,9999,9999,1883296828
12,25,Jits_Pract_5,12,9999,9999,9999,1883796588
12,25,Jits_Pract_5,13,9999,9999,9999,1884296280
12,25,Jits_Pract_5,14,9999,9999,9999,1884797016
13,24,Jits_Pract_8,0,5,56,103,1892299164
13,24,Jits_Pract_8,1,5,63,98,1892302112
13,24,Jits_Pract_8,2,5,80,127,1892305532
13,24,Jits_Pract_8,0,5,56,103,1893098808
13,24,Jits_Pract_8,1,5,63,98,1893102060
13,24,Jits_Pract_8,2,5,80,127,1893105176
13,24,Jits_Pract_8,0,5,80,127,1893839200
13,24,Jits_Pract_8,1,1,48,54,1893871916
13,24,Jits_Pract_8,2,5,63,98,1893929256
13,24,Jits_Pract_8,3,5,56,103,1893938476
13,24,Jits_Pract_8,0,5,56,103,1894658528
13,24,Jits_Pract_8,1,5,63,98,1894668652
13,24,Jits_Pract_8,2,1,48,62,1894744136
13,24,Jits_Pract_8,3,5,80,127,1894758848
13,24,Jits_Pract_8,0,5,63,98,1895428404
13,24,Jits_Pract_8,1,5,80,127,1895459128
13,24,Jits_Pract_8,2,5,56,103,1895488804
13,24,Jits_Pract_8,3,1,48,53,1895535888
13,24,Jits_Pract_8,0,5,56,103,1896229572
13,24,Jits_Pract_8,1,1,48,54,1896279524
13,24,Jits_Pract_8,2,5,80,127,1896328696
13,24,Jits_Pract_8,3,5,63,98,1896378880
13,24,Jits_Pract_8,0,5,56,103,1897029124
13,24,Jits_Pract_8,1,5,80,127,1897079252
13,24,Jits_Pract_8,2,5,63,98,1897118968
13,24,Jits_Pract_8,3,1,48,38,1897150252
13,24,Jits_Pract_8,0,5,80,127,1897858560
13,24,Jits_Pract_8,1,5,63,98,1897889060
13,24,Jits_Pract_8,2,1,48,45,1897903636
13,24,Jits_Pract_8,3,5,56,103,1897958832
13,24,Jits_Pract_8,0,5,63,98,1898688752
13,24,Jits_Pract_8,1,1,48,58,1898712348
13,24,Jits_Pract_8,2,5,56,103,1898718744
13,24,Jits_Pract_8,3,5,80,127,1898778980
13,24,Jits_Pract_8,0,5,56,103,1899429468
13,24,Jits_Pract_8,1,5,80,127,1899432536
13,24,Jits_Pract_8,2,1,48,51,1899502956
13,24,Jits_Pract_8,3,5,63,98,1899548912
13,24,Jits_Pract_8,0,1,48,65,1900296268
13,24,Jits_Pract_8,1,5,56,103,1900308816
13,24,Jits_Pract_8,2,5,80,127,1900348756
13,24,Jits_Pract_8,3,5,63,98,1900358952
13,24,Jits_Pract_8,0,5,56,103,1901068652
13,24,Jits_Pract_8,1,5,80,127,1901089112
13,24,Jits_Pract_8,2,1,48,50,1901132836
13,24,Jits_Pract_8,3,5,63,98,1901168896
13,24,Jits_Pract_8,0,5,80,127,1901859504
13,24,Jits_Pract_8,1,1,48,59,1901915884
13,24,Jits_Pract_8,2,5,56,103,1901958624
13,24,Jits_Pract_8,3,5,63,98,1901968968
13,24,Jits_Pract_8,0,5,63,98,1902629464
13,24,Jits_Pract_8,1,5,80,127,1902688584
13,24,Jits_Pract_8,2,5,56,103,1902698852
13,24,Jits_Pract_8,3,1,48,47,1902724664
13,24,Jits_Pract_8,0,5,56,103,1903428840
13,24,Jits_Pract_8,1,1,48,75,1903446800
13,24,Jits_Pract_8,2,5,63,98,1903498508
13,24,Jits_Pract_8,3,5,80,127,1903501804
13,24,Jits_Pract_8,0,9999,9999,9999,1892696124
13,24,Jits_Pract_8,1,9999,9999,9999,1893496888
13,24,Jits_Pract_8,2,9999,9999,9999,1894296676
13,24,Jits_Pract_8,3,9999,9999,9999,1895096376
13,24,Jits_Pract_8,4,9999,9999,9999,1895896164
13,24,Jits_Pract_8,5,9999,9999,9999,1896696892
13,24,Jits_Pract_8,6,9999,9999,9999,1897496660
13,24,Jits_Pract_8,7,9999,9999,9999,1898296432
13,24,Jits_Pract_8,8,9999,9999,9999,1899096132
13,24,Jits_Pract_8,9,9999,9999,9999,1899896920
13,24,Jits_Pract_8,10,9999,9999,9999,1900696700
13,24,Jits_Pract_8,11,9999,9999,9999,1901496384
13,24,Jits_Pract_8,12,9999,9999,9999,1902296184
13,24,Jits_Pract_8,13,9999,9999,9999,1903096924
13,24,Jits_Pract_8,14,9999,9999,9999,1903896668
14,19,Jits_Linear_5,0,5,56,103,1932498264
14,19,Jits_Linear_5,1,5,63,98,1932501360
14,19,Jits_Linear_5,2,5,80,127,1932504484
14,19,Jits_Linear_5,0,5,56,103,1932977492
14,19,Jits_Linear_5,1,5,63,98,1932980668
14,19,Jits_Linear_5,2,5,80,127,1932983940
14,19,Jits_Linear_5,0,5,56,103,1933458196
14,19,Jits_Linear_5,1,5,80,127,1933468024
14,19,Jits_Linear_5,2,5,63,98,1933487732
14,19,Jits_Linear_5,0,5,63,98,1933898072
14,19,Jits_Linear_5,1,5,80,127,1933927828
14,19,Jits_Linear_5,2,5,56,103,1933938096
14,19,Jits_Linear_5,3,1,48,54,1933947140
14,19,Jits_Linear_5,0,1,48,50,1934376600
14,19,Jits_Linear_5,1,5,80,127,1934437764
14,19,Jits_Linear_5,2,5,56,103,1934448108
14,19,Jits_Linear_5,3,5,63,98,1934477696
14,19,Jits_Linear_5,0,1,48,46,1934879660
14,19,Jits_Linear_5,1,5,63,98,1934918052
14,19,Jits_Linear_5,2,5,56,103,1934947952
14,19,Jits_Linear_5,3,5,80,127,1934958148
14,19,Jits_Linear_5,0,5,56,103,1935358192
14,19,Jits_Linear_5,1,1,48,51,1935369628
14,19,Jits_Linear_5,2,5,63,98,1935407416
14,19,Jits_Linear_5,3,5,80,127,1935427948
14,19,Jits_Linear_5,0,1,48,54,1935836960
14,19,Jits_Linear_5,1,5,80,127,1935847920
14,19,Jits_Linear_5,2,5,63,98,1935898124
14,19,Jits_Linear_5,3,5,56,103,1935937900
14,19,Jits_Linear_5,0,5,56,103,1936338252
14,19,Jits_Linear_5,1,1,48,60,1936340916
14,19,Jits_Linear_5,2,5,63,98,1936367924
14,19,Jits_Linear_5,3,5,80,127,1936437736
14,19,Jits_Linear_5,0,1,48,62,1936819764
14,19,Jits_Linear_5,1,5,56,103,1936828032
14,19,Jits_Linear_5,2,5,80,127,1936888152
14,19,Jits_Linear_5,3,5,63,98,1936917812
14,19,Jits_Linear_5,0,1,48,51,1937286272
14,19,Jits_Linear_5,1,5,56,103,1937327424
14,19,Jits_Linear_5,2,5,63,98,1937338068
14,19,Jits_Linear_5,3,5,80,127,1937377808
14,19,Jits_Linear_5,0,1,48,52,1937748712
14,19,Jits_Linear_5,1,5,63,98,1937817896
14,19,Jits_Linear_5,2,5,80,127,1937898000
14,19,Jits_Linear_5,3,5,56,103,1937908048
14,19,Jits_Linear_5,0,1,48,51,1938240676
14,19,Jits_Linear_5,1,5,63,98,1938367984
14,19,Jits_Linear_5,2,5,56,103,1938407952
14,19,Jits_Linear_5,3,5,80,127,1938411016
14,19,Jits_Linear_5,0,1,48,48,1938759312
14,19,Jits_Linear_5,1,5,56,103,1938827896
14,19,Jits_Linear_5,2,5,63,98,1938838092
14,19,Jits_Linear_5,3,5,80,127,1938877944
14,19,Jits_Linear_5,0,1,48,47,1939243116
14,19,Jits_Linear_5,1,5,56,103,1939318220
14,19,Jits_Linear_5,2,5,63,98,1939321136
14,19,Jits_Linear_5,3,5,80,127,1939338812
14,19,Jits_Linear_5,0,1,48,46,1939753576
14,19,Jits_Linear_5,1,5,80,127,1939838276
14,19,Jits_Linear_5,2,5,56,103,1939847500
14,19,Jits_Linear_5,3,5,63,98,1939918164
14,19,Jits_Linear_5,0,1,48,44,1940260616
14,19,Jits_Linear_5,1,5,63,98,1940337968
14,19,Jits_Linear_5,2,5,56,103,1940357384
14,19,Jits_Linear_5,3,5,80,127,1940438308
14,19,Jits_Linear_5,0,1,48,54,1940766376
14,19,Jits_Linear_5,1,5,56,103,1940858112
14,19,Jits_Linear_5,2,5,80,127,1940898184
14,19,Jits_Linear_5,3,5,63,98,1940908528
14,19,Jits_Linear_5,0,1,48,48,1941311840
14,19,Jits_Linear_5,1,5,80,127,1941358024
14,19,Jits_Linear_5,2,5,63,98,1941387700
14,19,Jits_Linear_5,3,5,56,103,1941427700
14,19,Jits_Linear_5,0,1,48,48,1941777892
14,19,Jits_Linear_5,1,5,56,103,1941888488
14,19,Jits_Linear_5,2,5,63,98,1941918016
14,19,Jits_Linear_5,3,5,80,127,1941968244
14,19,Jits_Linear_5,0,1,48,46,1942302896
14,19,Jits_Linear_5,1,5,80,127,1942398368
14,19,Jits_Linear_5,2,5,56,103,1942438308
14,19,Jits_Linear_5,3,5,63,98,1942447608
14,19,Jits_Linear_5,0,1,48,44,1942805668
14,19,Jits_Linear_5,1,5,80,127,1942897920
14,19,Jits_Linear_5,2,5,63,98,1942937920
14,19,Jits_Linear_5,3,5,56,103,1942998336
14,19,Jits_Linear_5,0,1,48,42,1943335304
14,19,Jits_Linear_5,1,5,56,103,1943418284
14,19,Jits_Linear_5,2,5,80,127,1943427940
14,19,Jits_Linear_5,3,5,63,98,1943508212
14,19,Jits_Linear_5,0,1,48,49,1943892832
14,19,Jits_Linear_5,1,5,80,127,1943938348
14,19,Jits_Linear_5,2,5,63,98,1943997680
14,19,Jits_Linear_5,3,5,56,103,1944027752
14,19,Jits_Linear_5,0,1,48,34,1944400692
14,19,Jits_Linear_5,1,5,56,103,1944457740
14,19,Jits_Linear_5,2,5,80,127,1944518072
14,19,Jits_Linear_5,3,5,63,98,1944557860
14,19,Jits_Linear_5,0,1,48,43,1944985112
14,19,Jits_Linear_5,1,5,56,103,1945038220
14,19,Jits_Linear_5,2,5,63,98,1945048412
14,19,Jits_Linear_5,3,5,80,127,1945052000
14,19,Jits_Linear_5,0,5,80,127,1945517500
14,19,Jits_Linear_5,1,1,48,50,1945548972
14,19,Jits_Linear_5,2,5,63,98,1945607660
14,19,Jits_Linear_5,3,5,56,103,1945617856
14,19,Jits_Linear_5,0,5,56,103,1946047836
14,19,Jits_Linear_5,1,5,63,98,1946050932
14,19,Jits_Linear_5,2,5,80,127,1946054232
14,19,Jits_Linear_5,3,1,48,31,1946075724
14,19,Jits_Linear_5,0,5,80,127,1946597980
14,19,Jits_Linear_5,1,1,48,39,1946598872
14,19,Jits_Linear_5,2,5,63,98,1946647880
14,19,Jits_Linear_5,3,5,56,103,1946677780
14,19,Jits_Linear_5,0,5,56,103,1947107948
14,19,Jits_Linear_5,1,1,48,54,1947110696
14,19,Jits_Linear_5,2,5,80,127,1947117840
14,19,Jits_Linear_5,3,5,63,98,1947187672
14,19,Jits_Linear_5,0,1,48,58,1947620200
14,19,Jits_Linear_5,1,5,56,103,1947648252
14,19,Jits_Linear_5,2,5,63,98,1947667964
14,19,Jits_Linear_5,3,5,80,127,1947728192
14,19,Jits_Linear_5,0,1,48,54,1948115088
14,19,Jits_Linear_5,1,5,80,127,1948177760
14,19,Jits_Linear_5,2,5,63,98,1948248404
14,19,Jits_Linear_5,3,5,56,103,1948267744
14,19,Jits_Linear_5,0,1,48,41,1948650068
14,19,Jits_Linear_5,1,5,80,127,1948737764
14,19,Jits_Linear_5,2,5,56,103,1948748032
14,19,Jits_Linear_5,3,5,63,98,1948758660
14,19,Jits_Linear_5,0,1,48,50,1949190136
14,19,Jits_Linear_5,1,5,80,127,1949268388
14,19,Jits_Linear_5,2,5,56,103,1949287800
14,19,Jits_Linear_5,3,5,63,98,1949357768
14,19,Jits_Linear_5,0,1,48,50,1949708712
14,19,Jits_Linear_5,1,5,56,103,1949818184
14,19,Jits_Linear_5,2,5,80,127,1949847864
14,19,Jits_Linear_5,3,5,63,98,1949868620
14,19,Jits_Linear_5,0,1,48,49,1950270580
14,19,Jits_Linear_5,1,5,63,98,1950357968
14,19,Jits_Linear_5,2,5,56,103,1950418152
14,19,Jits_Linear_5,3,5,80,127,1950447900
14,19,Jits_Linear_5,0,1,48,48,1950766680
14,19,Jits_Linear_5,1,5,63,98,1950897652
14,19,Jits_Linear_5,2,5,80,127,1950900940
14,19,Jits_Linear_5,3,5,56,103,1950987812
14,19,Jits_Linear_5,0,1,48,45,1951350260
14,19,Jits_Linear_5,1,5,56,103,1951468004
14,19,Jits_Linear_5,2,5,63,98,1951497684
14,19,Jits_Linear_5,3,5,80,127,1951537772
14,19,Jits_Linear_5,0,1,48,37,1951904788
14,19,Jits_Linear_5,1,5,63,98,1952017820
14,19,Jits_Linear_5,2,5,56,103,1952057836
14,19,Jits_Linear_5,3,5,80,127,1952078072
14,19,Jits_Linear_5,0,1,48,50,1952481000
14,19,Jits_Linear_5,1,5,63,98,1952578120
14,19,Jits_Linear_5,2,5,56,103,1952617988
14,19,Jits_Linear_5,3,5,80,127,1952628256
14,19,Jits_Linear_5,0,1,48,42,1953068732
14,19,Jits_Linear_5,1,5,80,127,1953108468
14,19,Jits_Linear_5,2,5,63,98,1953177840
14,19,Jits_Linear_5,3,5,56,103,1953197548
14,19,Jits_Linear_5,0,1,48,46,1953650680
14,19,Jits_Linear_5,1,5,56,103,1953658428
14,19,Jits_Linear_5,2,5,80,127,1953677768
14,19,Jits_Linear_5,3,5,63,98,1953717708
14,19,Jits_Linear_5,0,1,48,45,1954183396
14,19,Jits_Linear_5,1,5,63,98,1954227932
14,19,Jits_Linear_5,2,5,80,127,1954247972
14,19,Jits_Linear_5,3,5,56,103,1954287968
14,19,Jits_Linear_5,0,1,48,53,1954714696
14,19,Jits_Linear_5,1,5,63,98,1954787808
14,19,Jits_Linear_5,2,5,56,103,1954808044
14,19,Jits_Linear_5,3,5,80,127,1954818596
14,19,Jits_Linear_5,0,1,48,42,1955265716
14,19,Jits_Linear_5,1,5,80,127,1955347728
14,19,Jits_Linear_5,2,5,56,103,1955368172
14,19,Jits_Linear_5,3,5,63,98,1955398000
14,19,Jits_Linear_5,0,1,48,53,1955859596
14,19,Jits_Linear_5,1,5,56,103,1955987804
14,19,Jits_Linear_5,2,5,80,127,1955990796
14,19,Jits_Linear_5,3,5,63,98,1956008264
14,19,Jits_Linear_5,0,1,48,42,1956448140
14,19,Jits_Linear_5,1,5,63,98,1956478284
14,19,Jits_Linear_5,2,5,56,103,1956507964
14,19,Jits_Linear_5,3,5,80,127,1956568736
14,19,Jits_Linear_5,0,1,48,59,1957015784
14,19,Jits_Linear_5,1,5,63,98,1957127604
14,19,Jits_Linear_5,2,5,56,103,1957137876
14,19,Jits_Linear_5,3,5,80,127,1957147996
14,19,Jits_Linear_5,0,1,48,40,1957609604
14,19,Jits_Linear_5,1,5,56,103,1957647768
14,19,Jits_Linear_5,2,5,80,127,1957677816
14,19,Jits_Linear_5,3,5,63,98,1957687716
14,19,Jits_Linear_5,0,1,48,59,1958165320
14,19,Jits_Linear_5,1,5,63,98,1958268140
14,19,Jits_Linear_5,2,5,56,103,1958277588
14,19,Jits_Linear_5,3,5,80,127,1958298048
14,19,Jits_Linear_5,0,1,48,51,1958764664
14,19,Jits_Linear_5,1,5,56,103,1958767920
14,19,Jits_Linear_5,2,5,63,98,1958828692
14,19,Jits_Linear_5,3,5,80,127,1958831900
14,19,Jits_Linear_5,0,1,48,59,1959333712
14,19,Jits_Linear_5,1,5,80,127,1959368088
14,19,Jits_Linear_5,2,5,56,103,1959378432
14,19,Jits_Linear_5,3,5,63,98,1959447800
14,19,Jits_Linear_5,0,1,48,50,1959911268
14,19,Jits_Linear_5,1,5,80,127,1959938500
14,19,Jits_Linear_5,2,5,56,103,1960007948
14,19,Jits_Linear_5,3,5,63,98,1960018220
14,19,Jits_Linear_5,0,1,48,59,1960496980
14,19,Jits_Linear_5,1,5,63,98,1960557844
14,19,Jits_Linear_5,2,5,56,103,1960568116
14,19,Jits_Linear_5,3,5,80,127,1960587680
14,19,Jits_Linear_5,0,1,48,63,1961072108
14,19,Jits_Linear_5,1,5,80,127,1961088696
14,19,Jits_Linear_5,2,5,63,98,1961147748
14,19,Jits_Linear_5,3,5,56,103,1961187844
14,19,Jits_Linear_5,0,1,48,51,1961630460
14,19,Jits_Linear_5,1,5,56,103,1961718104
14,19,Jits_Linear_5,2,5,63,98,1961728436
14,19,Jits_Linear_5,3,5,80,127,1961768596
14,19,Jits_Linear_5,0,1,48,53,1962252376
14,19,Jits_Linear_5,1,5,56,103,1962267912
14,19,Jits_Linear_5,2,5,80,127,1962297664
14,19,Jits_Linear_5,3,5,63,98,1962347796
14,19,Jits_Linear_5,0,1,48,56,1962815976
14,19,Jits_Linear_5,1,5,56,103,1962897668
14,19,Jits_Linear_5,2,5,63,98,1962937588
14,19,Jits_Linear_5,3,5,80,127,1962940956
14,19,Jits_Linear_5,0,1,48,49,1963408556
14,19,Jits_Linear_5,1,5,56,103,1963487572
14,19,Jits_Linear_5,2,5,63,98,1963497696
14,19,Jits_Linear_5,3,5,80,127,1963518584
14,19,Jits_Linear_5,0,1,48,57,1963962772
14,19,Jits_Linear_5,1,5,56,103,1964037456
14,19,Jits_Linear_5,2,5,80,127,1964040448
14,19,Jits_Linear_5,3,5,63,98,1964077532
14,19,Jits_Linear_5,0,1,48,54,1964579584
14,19,Jits_Linear_5,1,5,63,98,1964668396
14,19,Jits_Linear_5,2,5,56,103,1964697984
14,19,Jits_Linear_5,3,5,80,127,1964717400
14,19,Jits_Linear_5,0,1,48,48,1965181540
14,19,Jits_Linear_5,1,5,80,127,1965237468
14,19,Jits_Linear_5,2,5,56,103,1965247960
14,19,Jits_Linear_5,3,5,63,98,1965258036
14,19,Jits_Linear_5,0,1,48,50,1965755780
14,19,Jits_Linear_5,1,5,56,103,1965837644
14,19,Jits_Linear_5,2,5,80,127,1965877572
14,19,Jits_Linear_5,3,5,63,98,1965908516
14,19,Jits_Linear_5,0,1,48,52,1966325524
14,19,Jits_Linear_5,1,5,63,98,1966447980
14,19,Jits_Linear_5,2,5,80,127,1966458396
14,19,Jits_Linear_5,3,5,56,103,1966467472
14,19,Jits_Linear_5,0,1,48,51,1966926516
14,19,Jits_Linear_5,1,5,56,103,1967027528
14,19,Jits_Linear_5,2,5,63,98,1967098432
14,19,Jits_Linear_5,3,5,80,127,1967107436
14,19,Jits_Linear_5,0,1,48,54,1967528172
14,19,Jits_Linear_5,1,5,80,127,1967637824
14,19,Jits_Linear_5,2,5,56,103,1967648244
14,19,Jits_Linear_5,3,5,63,98,1967698372
14,19,Jits_Linear_5,0,1,48,42,1968178848
14,19,Jits_Linear_5,1,5,80,127,1968258444
14,19,Jits_Linear_5,2,5,56,103,1968317776
14,19,Jits_Linear_5,3,5,63,98,1968347480
14,19,Jits_Linear_5,0,5,56,103,1968867700
14,19,Jits_Linear_5,1,5,80,127,1968870692
14,19,Jits_Linear_5,2,5,63,98,1968907488
14,19,Jits_Linear_5,3,1,48,54,1968927168
14,19,Jits_Linear_5,0,1,48,48,1969488956
14,19,Jits_Linear_5,1,5,56,103,1969507636
14,19,Jits_Linear_5,2,5,63,98,1969538584
14,19,Jits_Linear_5,3,5,80,127,1969547584
14,19,Jits_Linear_5,0,1,48,57,1970093672
14,19,Jits_Linear_5,1,5,63,98,1970128348
14,19,Jits_Linear_5,2,5,80,127,1970137648
14,19,Jits_Linear_5,3,5,56,103,1970147620
14,19,Jits_Linear_5,0,5,80,127,1970688356
14,19,Jits_Linear_5,1,1,48,52,1970702860
14,19,Jits_Linear_5,2,5,56,103,1970737424
14,19,Jits_Linear_5,3,5,63,98,1970740420
14,19,Jits_Linear_5,0,1,48,68,1971270492
14,19,Jits_Linear_5,1,5,56,103,1971337728
14,19,Jits_Linear_5,2,5,80,127,1971357968
14,19,Jits_Linear_5,3,5,63,98,1971368236
14,19,Jits_Linear_5,0,1,48,63,1971875652
14,19,Jits_Linear_5,1,5,63,98,1971937536
14,19,Jits_Linear_5,2,5,56,103,1971968480
14,19,Jits_Linear_5,3,5,80,127,1971987804
14,19,Jits_Linear_5,0,1,48,62,1972527176
14,19,Jits_Linear_5,1,5,56,103,1972568480
14,19,Jits_Linear_5,2,5,80,127,1972577628
14,19,Jits_Linear_5,3,5,63,98,1972648416
14,19,Jits_Linear_5,0,1,48,55,1973155336
14,19,Jits_Linear_5,1,5,63,98,1973177704
14,19,Jits_Linear_5,2,5,80,127,1973217520
14,19,Jits_Linear_5,3,5,56,103,1973257520
14,19,Jits_Linear_5,0,1,48,57,1973816236
14,19,Jits_Linear_5,1,5,56,103,1973817744
14,19,Jits_Linear_5,2,5,63,98,1973828164
14,19,Jits_Linear_5,3,5,80,127,1973848400
14,19,Jits_Linear_5,0,1,48,56,1974416372
14,19,Jits_Linear_5,1,5,63,98,1974488424
14,19,Jits_Linear_5,2,5,80,127,1974507840
14,19,Jits_Linear_5,3,5,56,103,1974528504
14,19,Jits_Linear_5,0,5,56,103,1975057720
14,19,Jits_Linear_5,1,1,48,56,1975062108
14,19,Jits_Linear_5,2,5,80,127,1975137588
14,19,Jits_Linear_5,3,5,63,98,1975147784
14,19,Jits_Linear_5,0,1,48,58,1975676520
14,19,Jits_Linear_5,1,5,80,127,1975727568
14,19,Jits_Linear_5,2,5,63,98,1975737688
14,19,Jits_Linear_5,3,5,56,103,1975769392
14,19,Jits_Linear_5,0,1,48,55,1976286520
14,19,Jits_Linear_5,1,5,63,98,1976318308
14,19,Jits_Linear_5,2,5,80,127,1976358472
14,19,Jits_Linear_5,3,5,56,103,1976417576
14,19,Jits_Linear_5,0,1,48,48,1976893180
14,19,Jits_Linear_5,1,5,63,98,1976958176
14,19,Jits_Linear_5,2,5,56,103,1977007468
14,19,Jits_Linear_5,3,5,80,127,1977038364
14,19,Jits_Linear_5,0,1,48,50,1977528336
14,19,Jits_Linear_5,1,5,80,127,1977607432
14,19,Jits_Linear_5,2,5,63,98,1977617632
14,19,Jits_Linear_5,3,5,56,103,1977688420
14,19,Jits_Linear_5,0,1,48,46,1978144164
14,19,Jits_Linear_5,1,5,80,127,1978318260
14,19,Jits_Linear_5,2,5,56,103,1978328300
14,19,Jits_Linear_5,3,5,63,98,1978331376
14,19,Jits_Linear_5,0,1,48,52,1978887388
14,19,Jits_Linear_5,1,5,56,103,1978897748
14,19,Jits_Linear_5,2,5,80,127,1978918580
14,19,Jits_Linear_5,3,5,63,98,1978927360
14,19,Jits_Linear_5,0,5,63,98,1979547956
14,19,Jits_Linear_5,1,1,48,59,1979564852
14,19,Jits_Linear_5,2,5,56,103,1979588356
14,19,Jits_Linear_5,3,5,80,127,1979608372
14,19,Jits_Linear_5,0,1,48,55,1980160164
14,19,Jits_Linear_5,1,5,63,98,1980198252
14,19,Jits_Linear_5,2,5,56,103,1980257520
14,19,Jits_Linear_5,3,5,80,127,1980261396
14,19,Jits_Linear_5,0,1,48,57,1980804212
14,19,Jits_Linear_5,1,5,56,103,1980807468
14,19,Jits_Linear_5,2,5,80,127,1980828152
14,19,Jits_Linear_5,3,5,63,98,1980868264
14,19,Jits_Linear_5,0,1,48,56,1981411656
14,19,Jits_Linear_5,1,5,56,103,1981487436
14,19,Jits_Linear_5,2,5,63,98,1981508048
14,19,Jits_Linear_5,3,5,80,127,1981518376
14,19,Jits_Linear_5,0,5,80,127,1982108200
14,19,Jits_Linear_5,1,1,48,46,1982122928
14,19,Jits_Linear_5,2,5,56,103,1982137648
14,19,Jits_Linear_5,3,5,63,98,1982177612
14,19,Jits_Linear_5,0,1,48,74,1982761480
14,19,Jits_Linear_5,1,5,80,127,1982767580
14,19,Jits_Linear_5,2,5,56,103,1982788040
14,19,Jits_Linear_5,3,5,63,98,1982848428
14,19,Jits_Linear_5,0,1,48,50,1983383880
14,19,Jits_Linear_5,1,5,56,103,1983428220
14,19,Jits_Linear_5,2,5,80,127,1983448308
14,19,Jits_Linear_5,3,5,63,98,1983507712
14,19,Jits_Linear_5,0,1,48,66,1984046116
14,19,Jits_Linear_5,1,5,80,127,1984068012
14,19,Jits_Linear_5,2,5,56,103,1984078132
14,19,Jits_Linear_5,3,5,63,98,1984118296
14,19,Jits_Linear_5,0,1,48,40,1984697652
14,19,Jits_Linear_5,1,5,63,98,1984728488
14,19,Jits_Linear_5,2,5,56,103,1984768356
14,19,Jits_Linear_5,3,5,80,127,1984771272
14,19,Jits_Linear_5,0,1,48,65,1985362164
14,19,Jits_Linear_5,1,5,63,98,1985408572
14,19,Jits_Linear_5,2,5,80,127,1985448292
14,19,Jits_Linear_5,3,5,56,103,1985478124
14,19,Jits_Linear_5,0,1,48,66,1986004296
14,19,Jits_Linear_5,1,5,56,103,1986057532
14,19,Jits_Linear_5,2,5,63,98,1986067800
14,19,Jits_Linear_5,3,5,80,127,1986097552
14,19,Jits_Linear_5,0,1,48,44,1986690172
14,19,Jits_Linear_5,1,5,80,127,1986718144
14,19,Jits_Linear_5,2,5,63,98,1986787616
14,19,Jits_Linear_5,3,5,56,103,1986797888
14,19,Jits_Linear_5,0,5,63,98,1987387860
14,19,Jits_Linear_5,1,1,48,47,1987421620
14,19,Jits_Linear_5,2,5,56,103,1987458360
14,19,Jits_Linear_5,3,5,80,127,1987467584
14,19,Jits_Linear_5,0,5,63,98,1988057492
14,19,Jits_Linear_5,1,1,48,69,1988063752
14,19,Jits_Linear_5,2,5,56,103,1988078024
14,19,Jits_Linear_5,3,5,80,127,1988117964
14,19,Jits_Linear_5,0,1,48,47,1988703312
14,19,Jits_Linear_5,1,5,56,103,1988738408
14,19,Jits_Linear_5,2,5,63,98,1988747632
14,19,Jits_Linear_5,3,5,80,127,1988827512
14,19,Jits_Linear_5,0,1,48,69,1989397332
14,19,Jits_Linear_5,1,5,63,98,1989398824
14,19,Jits_Linear_5,2,5,56,103,1989427676
14,19,Jits_Linear_5,3,5,80,127,1989467616
14,19,Jits_Linear_5,0,1,48,46,1990053940
14,19,Jits_Linear_5,1,5,56,103,1990067608
14,19,Jits_Linear_5,2,5,63,98,1990107504
14,19,Jits_Linear_5,3,5,80,127,1990147292
14,19,Jits_Linear_5,0,1,48,68,1990738564
14,19,Jits_Linear_5,1,5,80,127,1990747360
14,19,Jits_Linear_5,2,5,56,103,1990828428
14,19,Jits_Linear_5,3,5,63,98,1990837712
14,19,Jits_Linear_5,0,1,48,30,1991437348
14,19,Jits_Linear_5,1,5,56,103,1991468384
14,19,Jits_Linear_5,2,5,63,98,1991471452
14,19,Jits_Linear_5,3,5,80,127,1991477532
14,19,Jits_Linear_5,0,1,48,52,1992106940
14,19,Jits_Linear_5,1,5,56,103,1992167684
14,19,Jits_Linear_5,2,5,63,98,1992188292
14,19,Jits_Linear_5,3,5,80,127,1992197440
14,19,Jits_Linear_5,0,1,48,48,1992788196
14,19,Jits_Linear_5,1,5,63,98,1992807772
14,19,Jits_Linear_5,2,5,80,127,1992818268
14,19,Jits_Linear_5,3,5,56,103,1992837460
14,19,Jits_Linear_5,0,1,48,71,1993441256
14,19,Jits_Linear_5,1,5,63,98,1993498232
14,19,Jits_Linear_5,2,5,56,103,1993578244
14,19,Jits_Linear_5,3,5,80,127,1993581156
14,19,Jits_Linear_5,0,1,48,49,1994115444
14,19,Jits_Linear_5,1,5,63,98,1994188164
14,19,Jits_Linear_5,2,5,56,103,1994207504
14,19,Jits_Linear_5,3,5,80,127,1994238436
14,19,Jits_Linear_5,0,1,48,70,1994818484
14,19,Jits_Linear_5,1,5,56,103,1994878228
14,19,Jits_Linear_5,2,5,63,98,1994897940
14,19,Jits_Linear_5,3,5,80,127,1994908136
14,19,Jits_Linear_5,0,1,48,23,1995496592
14,19,Jits_Linear_5,1,5,56,103,1995598120
14,19,Jits_Linear_5,2,5,63,98,1995628168
14,19,Jits_Linear_5,3,5,80,127,1995631456
14,19,Jits_Linear_5,0,1,48,68,1996200276
14,19,Jits_Linear_5,1,5,56,103,1996238164
14,19,Jits_Linear_5,2,5,63,98,1996278104
14,19,Jits_Linear_5,3,5,80,127,1996337512
14,19,Jits_Linear_5,0,1,48,43,1996906556
14,19,Jits_Linear_5,1,5,56,103,1996948008
14,19,Jits_Linear_5,2,5,63,98,1996958276
14,19,Jits_Linear_5,3,5,80,127,1997017336
14,19,Jits_Linear_5,0,1,48,65,1997589592
14,19,Jits_Linear_5,1,5,56,103,1997648132
14,19,Jits_Linear_5,2,5,80,127,1997667844
14,19,Jits_Linear_5,3,5,63,98,1997698404
14,19,Jits_Linear_5,0,1,48,18,1998320208
14,19,Jits_Linear_5,1,5,80,127,1998347584
14,19,Jits_Linear_5,2,5,56,103,1998358076
14,19,Jits_Linear_5,3,5,63,98,1998378536
14,19,Jits_Linear_5,0,1,48,78,1999007200
14,19,Jits_Linear_5,1,5,63,98,1999037940
14,19,Jits_Linear_5,2,5,80,127,1999117828
14,19,Jits_Linear_5,3,5,56,103,1999128096
14,19,Jits_Linear_5,0,1,48,55,1999755584
14,19,Jits_Linear_5,1,5,80,127,1999797636
14,19,Jits_Linear_5,2,5,56,103,1999818192
14,19,Jits_Linear_5,3,5,63,98,1999821184
14,19,Jits_Linear_5,0,5,63,98,2000477452
14,19,Jits_Linear_5,1,5,80,127,2000480748
14,19,Jits_Linear_5,2,1,48,55,2000517220
14,19,Jits_Linear_5,3,5,56,103,2000538064
14,19,Jits_Linear_5,0,5,56,103,2001167688
14,19,Jits_Linear_5,1,5,80,127,2001178108
14,19,Jits_Linear_5,2,1,48,52,2001200104
14,19,Jits_Linear_5,3,5,63,98,2001217892
14,19,Jits_Linear_5,0,5,56,103,2001857908
14,19,Jits_Linear_5,1,1,48,64,2001876940
14,19,Jits_Linear_5,2,5,63,98,2001918244
14,19,Jits_Linear_5,3,5,80,127,2001927396
14,19,Jits_Linear_5,0,1,48,55,2002563404
14,19,Jits_Linear_5,1,5,63,98,2002577972
14,19,Jits_Linear_5,2,5,80,127,2002617912
14,19,Jits_Linear_5,3,5,56,103,2002657728
14,19,Jits_Linear_5,0,1,48,61,2003238880
14,19,Jits_Linear_5,1,5,56,103,2003288508
14,19,Jits_Linear_5,2,5,63,98,2003368292
14,19,Jits_Linear_5,3,5,80,127,2003371880
14,19,Jits_Linear_5,0,1,48,60,2003944536
14,19,Jits_Linear_5,1,5,80,127,2004057396
14,19,Jits_Linear_5,2,5,56,103,2004088196
14,19,Jits_Linear_5,3,5,63,98,2004091184
14,19,Jits_Linear_5,0,5,56,103,2004738432
14,19,Jits_Linear_5,1,5,80,127,2004757844
14,19,Jits_Linear_5,2,1,48,51,2004767188
14,19,Jits_Linear_5,3,5,63,98,2004797928
14,19,Jits_Linear_5,0,5,80,127,2005437872
14,19,Jits_Linear_5,1,5,63,98,2005458208
14,19,Jits_Linear_5,2,1,48,66,2005491968
14,19,Jits_Linear_5,3,5,56,103,2005517916
14,19,Jits_Linear_5,0,5,63,98,2006167832
14,19,Jits_Linear_5,1,1,48,39,2006170728
14,19,Jits_Linear_5,2,5,56,103,2006178020
14,19,Jits_Linear_5,3,5,80,127,2006228248
14,19,Jits_Linear_5,0,1,48,56,2006863792
14,19,Jits_Linear_5,1,5,56,103,2006877764
14,19,Jits_Linear_5,2,5,63,98,2006898000
14,19,Jits_Linear_5,3,5,80,127,2006908272
14,19,Jits_Linear_5,0,1,48,46,2007568652
14,19,Jits_Linear_5,1,5,56,103,2007597372
14,19,Jits_Linear_5,2,5,63,98,2007600588
14,19,Jits_Linear_5,3,5,80,127,2007617904
14,19,Jits_Linear_5,0,1,48,45,2008258944
14,19,Jits_Linear_5,1,5,63,98,2008367448
14,19,Jits_Linear_5,2,5,56,103,2008398320
14,19,Jits_Linear_5,3,5,80,127,2008427920
14,19,Jits_Linear_5,0,5,80,127,2009057780
14,19,Jits_Linear_5,1,1,48,50,2009079184
14,19,Jits_Linear_5,2,5,56,103,2009147908
14,19,Jits_Linear_5,3,5,63,98,2009150972
14,19,Jits_Linear_5,0,5,56,103,2009788000
14,19,Jits_Linear_5,1,5,80,127,2009790916
14,19,Jits_Linear_5,2,1,48,49,2009856632
14,19,Jits_Linear_5,3,5,63,98,2009867816
14,19,Jits_Linear_5,0,5,80,127,2010517876
14,19,Jits_Linear_5,1,5,63,98,2010578220
14,19,Jits_Linear_5,2,1,48,56,2010583136
14,19,Jits_Linear_5,3,5,56,103,2010607964
14,19,Jits_Linear_5,0,5,63,98,2011247984
14,19,Jits_Linear_5,1,5,80,127,2011258180
14,19,Jits_Linear_5,2,1,48,53,2011280780
14,19,Jits_Linear_5,3,5,56,103,2011327780
14,19,Jits_Linear_5,0,1,48,50,2011969576
14,19,Jits_Linear_5,1,5,56,103,2011997696
14,19,Jits_Linear_5,2,5,80,127,2012028124
14,19,Jits_Linear_5,3,5,63,98,2012077492
14,19,Jits_Linear_5,0,1,48,46,2012708584
14,19,Jits_Linear_5,1,5,63,98,2012777992
14,19,Jits_Linear_5,2,5,56,103,2012807504
14,19,Jits_Linear_5,3,5,80,127,2012810644
14,19,Jits_Linear_5,0,1,48,58,2013486184
14,19,Jits_Linear_5,1,5,63,98,2013518120
14,19,Jits_Linear_5,2,5,80,127,2013537832
14,19,Jits_Linear_5,3,5,56,103,2013547880
14,19,Jits_Linear_5,0,1,48,43,2014238824
14,19,Jits_Linear_5,1,5,56,103,2014267840
14,19,Jits_Linear_5,2,5,63,98,2014270756
14,19,Jits_Linear_5,3,5,80,127,2014288224
14,19,Jits_Linear_5,0,5,56,103,2014968116
14,19,Jits_Linear_5,1,5,63,98,2014978536
14,19,Jits_Linear_5,2,1,48,57,2014988028
14,19,Jits_Linear_5,3,5,80,127,2015008056
14,19,Jits_Linear_5,0,1,48,48,2015680176
14,19,Jits_Linear_5,1,5,63,98,2015738224
14,19,Jits_Linear_5,2,5,80,127,2015757636
14,19,Jits_Linear_5,3,5,56,103,2015797860
14,19,Jits_Linear_5,0,1,48,74,2016422332
14,19,Jits_Linear_5,1,5,56,103,2016517692
14,19,Jits_Linear_5,2,5,63,98,2016557316
14,19,Jits_Linear_5,3,5,80,127,2016560980
14,19,Jits_Linear_5,0,1,48,47,2017204788
14,19,Jits_Linear_5,1,5,80,127,2017207600
14,19,Jits_Linear_5,2,5,56,103,2017247640
14,19,Jits_Linear_5,3,5,63,98,2017297840
14,19,Jits_Linear_5,0,1,48,70,2017967340
14,19,Jits_Linear_5,1,5,56,103,2018017808
14,19,Jits_Linear_5,2,5,80,127,2018028004
14,19,Jits_Linear_5,3,5,63,98,2018057532
14,19,Jits_Linear_5,0,5,56,103,2018717920
14,19,Jits_Linear_5,1,1,48,38,2018725824
14,19,Jits_Linear_5,2,5,80,127,2018757956
14,19,Jits_Linear_5,3,5,63,98,2018808084
14,19,Jits_Linear_5,0,1,48,67,2019477552
14,19,Jits_Linear_5,1,5,56,103,2019479112
14,19,Jits_Linear_5,2,5,80,127,2019517856
14,19,Jits_Linear_5,3,5,63,98,2019568008
14,19,Jits_Linear_5,0,1,48,40,2020200408
14,19,Jits_Linear_5,1,5,80,127,2020227416
14,19,Jits_Linear_5,2,5,63,98,2020308272
14,19,Jits_Linear_5,3,5,56,103,2020317644
14,19,Jits_Linear_5,0,1,48,55,2020978836
14,19,Jits_Linear_5,1,5,80,127,2021037376
14,19,Jits_Linear_5,2,5,56,103,2021047944
14,19,Jits_Linear_5,3,5,63,98,2021068132
14,19,Jits_Linear_5,0,5,63,98,2021767552
14,19,Jits_Linear_5,1,1,48,35,2021792244
14,19,Jits_Linear_5,2,5,56,103,2021838224
14,19,Jits_Linear_5,3,5,80,127,2021841364
14,19,Jits_Linear_5,0,1,48,63,2022520824
14,19,Jits_Linear_5,1,5,80,127,2022528496
14,19,Jits_Linear_5,2,5,63,98,2022577732
14,19,Jits_Linear_5,3,5,56,103,2022617384
14,19,Jits_Linear_5,0,1,48,51,2023320076
14,19,Jits_Linear_5,1,5,63,98,2023338240
14,19,Jits_Linear_5,2,5,56,103,2023378204
14,19,Jits_Linear_5,3,5,80,127,2023387724
14,19,Jits_Linear_5,0,5,63,98,2024098164
14,19,Jits_Linear_5,1,5,56,103,2024117800
14,19,Jits_Linear_5,2,1,48,63,2024130456
14,19,Jits_Linear_5,3,5,80,127,2024138052
14,19,Jits_Linear_5,0,5,80,127,2024828552
14,19,Jits_Linear_5,1,5,56,103,2024837480
14,19,Jits_Linear_5,2,5,63,98,2024858012
14,19,Jits_Linear_5,3,1,48,41,2024896344
14,19,Jits_Linear_5,0,1,48,62,2025584688
14,19,Jits_Linear_5,1,5,63,98,2025628028
14,19,Jits_Linear_5,2,5,56,103,2025667844
14,19,Jits_Linear_5,3,5,80,127,2025697580
14,19,Jits_Linear_5,0,1,48,41,2026335404
14,19,Jits_Linear_5,1,5,56,103,2026408396
14,19,Jits_Linear_5,2,5,63,98,2026437936
14,19,Jits_Linear_5,3,5,80,127,2026467612
14,19,Jits_Linear_5,0,1,48,61,2027093948
14,19,Jits_Linear_5,1,5,80,127,2027157896
14,19,Jits_Linear_5,2,5,56,103,2027227516
14,19,Jits_Linear_5,3,5,63,98,2027230508
14,19,Jits_Linear_5,0,1,48,46,2027881732
14,19,Jits_Linear_5,1,5,56,103,2027948592
14,19,Jits_Linear_5,2,5,63,98,2027997688
14,19,Jits_Linear_5,3,5,80,127,2028028560
14,19,Jits_Linear_5,0,5,63,98,2028708140
14,19,Jits_Linear_5,1,5,80,127,2028711724
14,19,Jits_Linear_5,2,1,48,62,2028736740
14,19,Jits_Linear_5,3,5,56,103,2028767500
14,19,Jits_Linear_5,0,1,48,39,2029509016
14,19,Jits_Linear_5,1,5,56,103,2029518180
14,19,Jits_Linear_5,2,5,80,127,2029528672
14,19,Jits_Linear_5,3,5,63,98,2029577532
14,19,Jits_Linear_5,0,5,63,98,2030277876
14,19,Jits_Linear_5,1,1,48,51,2030280996
14,19,Jits_Linear_5,2,5,56,103,2030288216
14,19,Jits_Linear_5,3,5,80,127,2030317888
14,19,Jits_Linear_5,0,1,48,41,2031041940
14,19,Jits_Linear_5,1,5,63,98,2031098164
14,19,Jits_Linear_5,2,5,80,127,2031101748
14,19,Jits_Linear_5,3,5,56,103,2031127916
14,19,Jits_Linear_5,0,1,48,60,2031851068
14,19,Jits_Linear_5,1,5,63,98,2031908116
14,19,Jits_Linear_5,2,5,56,103,2031927604
14,19,Jits_Linear_5,3,5,80,127,2031930592
14,19,Jits_Linear_5,0,5,63,98,2032657912
14,19,Jits_Linear_5,1,1,48,44,2032677076
14,19,Jits_Linear_5,2,5,56,103,2032728564
14,19,Jits_Linear_5,3,5,80,127,2032747976
14,19,Jits_Linear_5,0,5,56,103,2033438048
14,19,Jits_Linear_5,1,1,48,60,2033446804
14,19,Jits_Linear_5,2,5,63,98,2033448460
14,19,Jits_Linear_5,3,5,80,127,2033538596
14,19,Jits_Linear_5,0,5,56,103,2034248024
14,19,Jits_Linear_5,1,1,48,36,2034258044
14,19,Jits_Linear_5,2,5,80,127,2034287960
14,19,Jits_Linear_5,3,5,63,98,2034298156
14,19,Jits_Linear_5,0,1,48,65,2035007168
14,19,Jits_Linear_5,1,5,56,103,2035068400
14,19,Jits_Linear_5,2,5,63,98,2035097932
14,19,Jits_Linear_5,3,5,80,127,2035127592
14,19,Jits_Linear_5,0,5,80,127,2035828024
14,19,Jits_Linear_5,1,1,48,42,2035852420
14,19,Jits_Linear_5,2,5,63,98,2035867884
14,19,Jits_Linear_5,3,5,56,103,2035887592
14,19,Jits_Linear_5,0,1,48,66,2036621100
14,19,Jits_Linear_5,1,5,56,103,2036667660
14,19,Jits_Linear_5,2,5,80,127,2036688368
14,19,Jits_Linear_5,3,5,63,98,2036707632
14,19,Jits_Linear_5,0,5,63,98,2037437692
14,19,Jits_Linear_5,1,5,56,103,2037447916
14,19,Jits_Linear_5,2,1,48,57,2037449852
14,19,Jits_Linear_5,3,5,80,127,2037507624
14,19,Jits_Linear_5,0,1,48,63,2038201468
14,19,Jits_Linear_5,1,5,56,103,2038247896
14,19,Jits_Linear_5,2,5,63,98,2038317640
14,19,Jits_Linear_5,3,5,80,127,2038337952
14,19,Jits_Linear_5,0,1,48,55,2039006060
14,19,Jits_Linear_5,1,5,56,103,2039057708
14,19,Jits_Linear_5,2,5,63,98,2039087388
14,19,Jits_Linear_5,3,5,80,127,2039128508
14,19,Jits_Linear_5,0,1,48,66,2039778408
14,19,Jits_Linear_5,1,5,63,98,2039857480
14,19,Jits_Linear_5,2,5,56,103,2039907592
14,19,Jits_Linear_5,3,5,80,127,2039917792
14,19,Jits_Linear_5,0,1,48,56,2040569480
14,19,Jits_Linear_5,1,5,56,103,2040707656
14,19,Jits_Linear_5,2,5,63,98,2040757564
14,19,Jits_Linear_5,3,5,80,127,2040767836
14,19,Jits_Linear_5,0,5,56,103,2041487676
14,19,Jits_Linear_5,1,5,63,98,2041497948
14,19,Jits_Linear_5,2,5,80,127,2041577772
14,19,Jits_Linear_5,3,1,48,54,2041581556
14,19,Jits_Linear_5,0,9999,9999,9999,1932735576
14,19,Jits_Linear_5,1,9999,9999,9999,1933215804
14,19,Jits_Linear_5,2,9999,9999,9999,1933696064
14,19,Jits_Linear_5,3,9999,9999,9999,1934185584
14,19,Jits_Linear_5,4,9999,9999,9999,1934665800
14,19,Jits_Linear_5,5,9999,9999,9999,1935155308
14,19,Jits_Linear_5,6,9999,9999,9999,1935645780
14,19,Jits_Linear_5,7,9999,9999,9999,1936135296
14,19,Jits_Linear_5,8,9999,9999,9999,1936625764
14,19,Jits_Linear_5,9,9999,9999,9999,1937115208
14,19,Jits_Linear_5,10,9999,9999,9999,1937615940
14,19,Jits_Linear_5,11,9999,9999,9999,1938115680
14,19,Jits_Linear_5,12,9999,9999,9999,1938615360
14,19,Jits_Linear_5,13,9999,9999,9999,1939115120
14,19,Jits_Linear_5,14,9999,9999,9999,1939615844
14,19,Jits_Linear_5,15,9999,9999,9999,1940125800
14,19,Jits_Linear_5,16,9999,9999,9999,1940635752
14,19,Jits_Linear_5,17,9999,9999,9999,1941145704
14,19,Jits_Linear_5,18,9999,9999,9999,1941655656
14,19,Jits_Linear_5,19,9999,9999,9999,1942165612
14,19,Jits_Linear_5,20,9999,9999,9999,1942685752
14,19,Jits_Linear_5,21,9999,9999,9999,1943205968
14,19,Jits_Linear_5,22,9999,9999,9999,1943725132
14,19,Jits_Linear_5,23,9999,9999,9999,1944245348
14,19,Jits_Linear_5,24,9999,9999,9999,1944765568
14,19,Jits_Linear_5,25,9999,9999,9999,1945295984
14,19,Jits_Linear_5,26,9999,9999,9999,1945825348
14,19,Jits_Linear_5,27,9999,9999,9999,1946355820
14,19,Jits_Linear_5,28,9999,9999,9999,1946885196
14,19,Jits_Linear_5,29,9999,9999,9999,1947415616
14,19,Jits_Linear_5,30,9999,9999,9999,1947955324
14,19,Jits_Linear_5,31,9999,9999,9999,1948495996
14,19,Jits_Linear_5,32,9999,9999,9999,1949035616
14,19,Jits_Linear_5,33,9999,9999,9999,1949575236
14,19,Jits_Linear_5,34,9999,9999,9999,1950115908
14,19,Jits_Linear_5,35,9999,9999,9999,1950665820
14,19,Jits_Linear_5,36,9999,9999,9999,1951215696
14,19,Jits_Linear_5,37,9999,9999,9999,1951765580
14,19,Jits_Linear_5,38,9999,9999,9999,1952315468
14,19,Jits_Linear_5,39,9999,9999,9999,1952865356
14,19,Jits_Linear_5,40,9999,9999,9999,1953425508
14,19,Jits_Linear_5,41,9999,9999,9999,1953985652
14,19,Jits_Linear_5,42,9999,9999,9999,1954545744
14,19,Jits_Linear_5,43,9999,9999,9999,1955105888
14,19,Jits_Linear_5,44,9999,9999,9999,1955666036
14,19,Jits_Linear_5,45,9999,9999,9999,1956235324
14,19,Jits_Linear_5,46,9999,9999,9999,1956805688
14,19,Jits_Linear_5,47,9999,9999,9999,1957376104
14,19,Jits_Linear_5,48,9999,9999,9999,1957955660
14,19,Jits_Linear_5,49,9999,9999,9999,1958526004
14,19,Jits_Linear_5,50,9999,9999,9999,1959105624
14,19,Jits_Linear_5,51,9999,9999,9999,1959685200
14,19,Jits_Linear_5,52,9999,9999,9999,1960265804
14,19,Jits_Linear_5,53,9999,9999,9999,1960845436
14,19,Jits_Linear_5,54,9999,9999,9999,1961425988
14,19,Jits_Linear_5,55,9999,9999,9999,1962015808
14,19,Jits_Linear_5,56,9999,9999,9999,1962605628
14,19,Jits_Linear_5,57,9999,9999,9999,1963195516
14,19,Jits_Linear_5,58,9999,9999,9999,1963785280
14,19,Jits_Linear_5,59,9999,9999,9999,1964375160
14,19,Jits_Linear_5,60,9999,9999,9999,1964975172
14,19,Jits_Linear_5,61,9999,9999,9999,1965575276
14,19,Jits_Linear_5,62,9999,9999,9999,1966175356
14,19,Jits_Linear_5,63,9999,9999,9999,1966775364
14,19,Jits_Linear_5,64,9999,9999,9999,1967375472
14,19,Jits_Linear_5,65,9999,9999,9999,1967985736
14,19,Jits_Linear_5,66,9999,9999,9999,1968596036
14,19,Jits_Linear_5,67,9999,9999,9999,1969205320
14,19,Jits_Linear_5,68,9999,9999,9999,1969815604
14,19,Jits_Linear_5,69,9999,9999,9999,1970425976
14,19,Jits_Linear_5,70,9999,9999,9999,1971045452
14,19,Jits_Linear_5,71,9999,9999,9999,1971666024
14,19,Jits_Linear_5,72,9999,9999,9999,1972285508
14,19,Jits_Linear_5,73,9999,9999,9999,1972906040
14,19,Jits_Linear_5,74,9999,9999,9999,1973525628
14,19,Jits_Linear_5,75,9999,9999,9999,1974155376
14,19,Jits_Linear_5,76,9999,9999,9999,1974785084
14,19,Jits_Linear_5,77,9999,9999,9999,1975415880
14,19,Jits_Linear_5,78,9999,9999,9999,1976045672
14,19,Jits_Linear_5,79,9999,9999,9999,1976675424
14,19,Jits_Linear_5,80,9999,9999,9999,1977315392
14,19,Jits_Linear_5,81,9999,9999,9999,1977955408
14,19,Jits_Linear_5,82,9999,9999,9999,1978595448
14,19,Jits_Linear_5,83,9999,9999,9999,1979235384
14,19,Jits_Linear_5,84,9999,9999,9999,1979875420
14,19,Jits_Linear_5,85,9999,9999,9999,1980525692
14,19,Jits_Linear_5,86,9999,9999,9999,1981175916
14,19,Jits_Linear_5,87,9999,9999,9999,1981825148
14,19,Jits_Linear_5,88,9999,9999,9999,1982475376
14,19,Jits_Linear_5,89,9999,9999,9999,1983125592
14,19,Jits_Linear_5,90,9999,9999,9999,1983786084
14,19,Jits_Linear_5,91,9999,9999,9999,1984445500
14,19,Jits_Linear_5,92,9999,9999,9999,1985106048
14,19,Jits_Linear_5,93,9999,9999,9999,1985765492
14,19,Jits_Linear_5,94,9999,9999,9999,1986425956
14,19,Jits_Linear_5,95,9999,9999,9999,1987095664
14,19,Jits_Linear_5,96,9999,9999,9999,1987765348
14,19,Jits_Linear_5,97,9999,9999,9999,1988436028
14,19,Jits_Linear_5,98,9999,9999,9999,1989105736
14,19,Jits_Linear_5,99,9999,9999,9999,1989775420
14,19,Jits_Linear_5,100,9999,9999,9999,1990455392
14,19,Jits_Linear_5,101,9999,9999,9999,1991135292
14,19,Jits_Linear_5,102,9999,9999,9999,1991815228
14,19,Jits_Linear_5,103,9999,9999,9999,1992495204
14,19,Jits_Linear_5,104,9999,9999,9999,1993175104
14,19,Jits_Linear_5,105,9999,9999,9999,1993865308
14,19,Jits_Linear_5,106,9999,9999,9999,1994555468
14,19,Jits_Linear_5,107,9999,9999,9999,1995245632
14,19,Jits_Linear_5,108,9999,9999,9999,1995935832
14,19,Jits_Linear_5,109,9999,9999,9999,1996625996
14,19,Jits_Linear_5,110,9999,9999,9999,1997325376
14,19,Jits_Linear_5,111,9999,9999,9999,1998025796
14,19,Jits_Linear_5,112,9999,9999,9999,1998725224
14,19,Jits_Linear_5,113,9999,9999,9999,1999425652
14,19,Jits_Linear_5,114,9999,9999,9999,2000126072
14,19,Jits_Linear_5,115,9999,9999,9999,2000835704
14,19,Jits_Linear_5,116,9999,9999,9999,2001545320
14,19,Jits_Linear_5,117,9999,9999,9999,2002255944
14,19,Jits_Linear_5,118,9999,9999,9999,2002965600
14,19,Jits_Linear_5,119,9999,9999,9999,2003675236
14,19,Jits_Linear_5,120,9999,9999,9999,2004395112
14,19,Jits_Linear_5,121,9999,9999,9999,2005115992
14,19,Jits_Linear_5,122,9999,9999,9999,2005835836
14,19,Jits_Linear_5,123,9999,9999,9999,2006555752
14,19,Jits_Linear_5,124,9999,9999,9999,2007275584
14,19,Jits_Linear_5,125,9999,9999,9999,2008005740
14,19,Jits_Linear_5,126,9999,9999,9999,2008735812
14,19,Jits_Linear_5,127,9999,9999,9999,2009465972
14,19,Jits_Linear_5,128,9999,9999,9999,2010196068
14,19,Jits_Linear_5,129,9999,9999,9999,2010925128
14,19,Jits_Linear_5,130,9999,9999,9999,2011665500
14,19,Jits_Linear_5,131,9999,9999,9999,2012405856
14,19,Jits_Linear_5,132,9999,9999,9999,2013145160
14,19,Jits_Linear_5,133,9999,9999,9999,2013885500
14,19,Jits_Linear_5,134,9999,9999,9999,2014625916
14,19,Jits_Linear_5,135,9999,9999,9999,2015375416
14,19,Jits_Linear_5,136,9999,9999,9999,2016126052
14,19,Jits_Linear_5,137,9999,9999,9999,2016875624
14,19,Jits_Linear_5,138,9999,9999,9999,2017625196
14,19,Jits_Linear_5,139,9999,9999,9999,2018375748
14,19,Jits_Linear_5,140,9999,9999,9999,2019135588
14,19,Jits_Linear_5,141,9999,9999,9999,2019895364
14,19,Jits_Linear_5,142,9999,9999,9999,2020655204
14,19,Jits_Linear_5,143,9999,9999,9999,2021416012
14,19,Jits_Linear_5,144,9999,9999,9999,2022175844
14,19,Jits_Linear_5,145,9999,9999,9999,2022945872
14,19,Jits_Linear_5,146,9999,9999,9999,2023715904
14,19,Jits_Linear_5,147,9999,9999,9999,2024486008
14,19,Jits_Linear_5,148,9999,9999,9999,2025256028
14,19,Jits_Linear_5,149,9999,9999,9999,2026026072
14,19,Jits_Linear_5,150,9999,9999,9999,2026805316
14,19,Jits_Linear_5,151,9999,9999,9999,2027585600
14,19,Jits_Linear_5,152,9999,9999,9999,2028365896
14,19,Jits_Linear_5,153,9999,9999,9999,2029145200
14,19,Jits_Linear_5,154,9999,9999,9999,2029925488
14,19,Jits_Linear_5,155,9999,9999,9999,2030715964
14,19,Jits_Linear_5,156,9999,9999,9999,2031505460
14,19,Jits_Linear_5,157,9999,9999,9999,2032296008
14,19,Jits_Linear_5,158,9999,9999,9999,2033085520
14,19,Jits_Linear_5,159,9999,9999,9999,2033876092
14,19,Jits_Linear_5,160,9999,9999,9999,2034675804
14,19,Jits_Linear_5,161,9999,9999,9999,2035475512
14,19,Jits_Linear_5,162,9999,9999,9999,2036275280
14,19,Jits_Linear_5,163,9999,9999,9999,2037076036
14,19,Jits_Linear_5,164,9999,9999,9999,2037875808
14,19,Jits_Linear_5,165,9999,9999,9999,2038685772
14,19,Jits_Linear_5,166,9999,9999,9999,2039495756
14,19,Jits_Linear_5,167,9999,9999,9999,2040305788
14,19,Jits_Linear_5,168,9999,9999,9999,2041115756
14,19,Jits_Linear_5,169,9999,9999,9999,2041925716
15,18,Jits_Linear_8,0,5,56,103,2050804160
15,18,Jits_Linear_8,1,5,63,98,2050807260
15,18,Jits_Linear_8,2,5,80,127,2050810304
15,18,Jits_Linear_8,0,5,56,103,2051624244
15,18,Jits_Linear_8,1,5,63,98,2051627340
15,18,Jits_Linear_8,2,5,80,127,2051630464
15,18,Jits_Linear_8,0,5,80,127,2052384328
15,18,Jits_Linear_8,1,1,48,48,2052462004
15,18,Jits_Linear_8,2,5,63,98,2052474236
15,18,Jits_Linear_8,3,5,56,103,2052483384
15,18,Jits_Linear_8,0,5,56,103,2053223732
15,18,Jits_Linear_8,1,5,63,98,2053234000
15,18,Jits_Linear_8,2,1,48,66,2053285592
15,18,Jits_Linear_8,3,5,80,127,2053324300
15,18,Jits_Linear_8,0,5,63,98,2054014280
15,18,Jits_Linear_8,1,1,48,62,2054021060
15,18,Jits_Linear_8,2,5,80,127,2054043948
15,18,Jits_Linear_8,3,5,56,103,2054073700
15,18,Jits_Linear_8,0,1,48,55,2054801392
15,18,Jits_Linear_8,1,5,56,103,2054833576
15,18,Jits_Linear_8,2,5,80,127,2054933764
15,18,Jits_Linear_8,3,5,63,98,2054984188
15,18,Jits_Linear_8,0,5,56,103,2055643404
15,18,Jits_Linear_8,1,1,48,55,2055658132
15,18,Jits_Linear_8,2,5,80,127,2055693676
15,18,Jits_Linear_8,3,5,63,98,2055733616
15,18,Jits_Linear_8,0,1,48,46,2056442092
15,18,Jits_Linear_8,1,5,80,127,2056484068
15,18,Jits_Linear_8,2,5,63,98,2056514044
15,18,Jits_Linear_8,3,5,56,103,2056583488
15,18,Jits_Linear_8,0,1,48,49,2057277272
15,18,Jits_Linear_8,1,5,63,98,2057323984
15,18,Jits_Linear_8,2,5,56,103,2057353512
15,18,Jits_Linear_8,3,5,80,127,2057414280
15,18,Jits_Linear_8,0,5,56,103,2058073472
15,18,Jits_Linear_8,1,5,80,127,2058076464
15,18,Jits_Linear_8,2,1,48,50,2058116672
15,18,Jits_Linear_8,3,5,63,98,2058194188
15,18,Jits_Linear_8,0,1,48,56,2058868844
15,18,Jits_Linear_8,1,5,56,103,2058954088
15,18,Jits_Linear_8,2,5,80,127,2058994164
15,18,Jits_Linear_8,3,5,63,98,2059004208
15,18,Jits_Linear_8,0,1,48,63,2059704724
15,18,Jits_Linear_8,1,5,56,103,2059714284
15,18,Jits_Linear_8,2,5,80,127,2059734372
15,18,Jits_Linear_8,3,5,63,98,2059814448
15,18,Jits_Linear_8,0,1,48,41,2060489060
15,18,Jits_Linear_8,1,5,80,127,2060504304
15,18,Jits_Linear_8,2,5,56,103,2060603716
15,18,Jits_Linear_8,3,5,63,98,2060614060
15,18,Jits_Linear_8,0,5,63,98,2061273572
15,18,Jits_Linear_8,1,5,80,127,2061333816
15,18,Jits_Linear_8,2,5,56,103,2061344236
15,18,Jits_Linear_8,3,1,48,64,2061352828
15,18,Jits_Linear_8,0,1,48,57,2062038520
15,18,Jits_Linear_8,1,5,56,103,2062074140
15,18,Jits_Linear_8,2,5,63,98,2062144028
15,18,Jits_Linear_8,3,5,80,127,2062147244
15,18,Jits_Linear_8,0,1,48,51,2062851684
15,18,Jits_Linear_8,1,5,63,98,2062904072
15,18,Jits_Linear_8,2,5,56,103,2062953888
15,18,Jits_Linear_8,3,5,80,127,2062957028
15,18,Jits_Linear_8,0,5,56,103,2063654224
15,18,Jits_Linear_8,1,1,48,60,2063655732
15,18,Jits_Linear_8,2,5,80,127,2063658328
15,18,Jits_Linear_8,3,5,63,98,2063744276
15,18,Jits_Linear_8,0,1,48,52,2064385612
15,18,Jits_Linear_8,1,5,63,98,2064483568
15,18,Jits_Linear_8,2,5,56,103,2064573912
15,18,Jits_Linear_8,3,5,80,127,2064603368
15,18,Jits_Linear_8,0,5,56,103,2065263976
15,18,Jits_Linear_8,1,1,48,51,2065280352
15,18,Jits_Linear_8,2,5,63,98,2065364392
15,18,Jits_Linear_8,3,5,80,127,2065393980
15,18,Jits_Linear_8,0,1,48,41,2066069252
15,18,Jits_Linear_8,1,5,63,98,2066074008
15,18,Jits_Linear_8,2,5,56,103,2066084280
15,18,Jits_Linear_8,3,5,80,127,2066174196
15,18,Jits_Linear_8,0,1,48,47,2066816344
15,18,Jits_Linear_8,1,5,63,98,2066873764
15,18,Jits_Linear_8,2,5,56,103,2066953716
15,18,Jits_Linear_8,3,5,80,127,2066956636
15,18,Jits_Linear_8,0,5,80,127,2067614180
15,18,Jits_Linear_8,1,5,63,98,2067633596
15,18,Jits_Linear_8,2,1,48,55,2067648576
15,18,Jits_Linear_8,3,5,56,103,2067693852
15,18,Jits_Linear_8,0,1,48,51,2068418352
15,18,Jits_Linear_8,1,5,56,103,2068434344
15,18,Jits_Linear_8,2,5,63,98,2068453756
15,18,Jits_Linear_8,3,5,80,127,2068457120
15,18,Jits_Linear_8,0,5,63,98,2069154204
15,18,Jits_Linear_8,1,1,48,60,2069164744
15,18,Jits_Linear_8,2,5,80,127,2069234168
15,18,Jits_Linear_8,3,5,56,103,2069244216
15,18,Jits_Linear_8,0,1,48,61,2069953456
15,18,Jits_Linear_8,1,5,63,98,2069955024
15,18,Jits_Linear_8,2,5,56,103,2069974364
15,18,Jits_Linear_8,3,5,80,127,2070023516
15,18,Jits_Linear_8,0,1,48,59,2070702440
15,18,Jits_Linear_8,1,5,80,127,2070734248
15,18,Jits_Linear_8,2,5,63,98,2070774192
15,18,Jits_Linear_8,3,5,56,103,2070793528
15,18,Jits_Linear_8,0,1,48,54,2071458200
15,18,Jits_Linear_8,1,5,56,103,2071544120
15,18,Jits_Linear_8,2,5,63,98,2071554524
15,18,Jits_Linear_8,3,5,80,127,2071573936
15,18,Jits_Linear_8,0,5,56,103,2072243460
15,18,Jits_Linear_8,1,1,48,57,2072255968
15,18,Jits_Linear_8,2,5,63,98,2072333616
15,18,Jits_Linear_8,3,5,80,127,2072394136
15,18,Jits_Linear_8,0,1,48,50,2072970736
15,18,Jits_Linear_8,1,5,80,127,2073044296
15,18,Jits_Linear_8,2,5,56,103,2073053668
15,18,Jits_Linear_8,3,5,63,98,2073124232
15,18,Jits_Linear_8,0,1,48,48,2073713480
15,18,Jits_Linear_8,1,5,63,98,2073843960
15,18,Jits_Linear_8,2,5,80,127,2073934168
15,18,Jits_Linear_8,3,5,56,103,2073944368
15,18,Jits_Linear_8,0,5,63,98,2074553956
15,18,Jits_Linear_8,1,5,80,127,2074603816
15,18,Jits_Linear_8,2,5,56,103,2074664204
15,18,Jits_Linear_8,3,1,48,54,2074692500
15,18,Jits_Linear_8,0,5,56,103,2075344296
15,18,Jits_Linear_8,1,5,80,127,2075394576
15,18,Jits_Linear_8,2,1,48,54,2075395464
15,18,Jits_Linear_8,3,5,63,98,2075413832
15,18,Jits_Linear_8,0,1,48,61,2076042868
15,18,Jits_Linear_8,1,5,56,103,2076074208
15,18,Jits_Linear_8,2,5,80,127,2076133728
15,18,Jits_Linear_8,3,5,63,98,2076204440
15,18,Jits_Linear_8,0,1,48,58,2076798036
15,18,Jits_Linear_8,1,5,56,103,2076834176
15,18,Jits_Linear_8,2,5,80,127,2076863952
15,18,Jits_Linear_8,3,5,63,98,2076893540
15,18,Jits_Linear_8,0,1,48,67,2077484876
15,18,Jits_Linear_8,1,5,56,103,2077633868
15,18,Jits_Linear_8,2,5,80,127,2077654252
15,18,Jits_Linear_8,3,5,63,98,2077713892
15,18,Jits_Linear_8,0,1,48,65,2078308084
15,18,Jits_Linear_8,1,5,80,127,2078473560
15,18,Jits_Linear_8,2,5,56,103,2078483980
15,18,Jits_Linear_8,3,5,63,98,2078494176
15,18,Jits_Linear_8,0,1,48,57,2079179428
15,18,Jits_Linear_8,1,5,56,103,2079184256
15,18,Jits_Linear_8,2,5,80,127,2079224048
15,18,Jits_Linear_8,3,5,63,98,2079253948
15,18,Jits_Linear_8,0,5,56,103,2079904136
15,18,Jits_Linear_8,1,1,48,62,2079931920
15,18,Jits_Linear_8,2,5,63,98,2079933880
15,18,Jits_Linear_8,3,5,80,127,2079973844
15,18,Jits_Linear_8,0,5,80,127,2080603512
15,18,Jits_Linear_8,1,1,48,55,2080610968
15,18,Jits_Linear_8,2,5,63,98,2080653860
15,18,Jits_Linear_8,3,5,56,103,2080674096
15,18,Jits_Linear_8,0,1,48,57,2081302780
15,18,Jits_Linear_8,1,5,56,103,2081383944
15,18,Jits_Linear_8,2,5,80,127,2081453388
15,18,Jits_Linear_8,3,5,63,98,2081513952
15,18,Jits_Linear_8,0,1,48,26,2082088148
15,18,Jits_Linear_8,1,5,80,127,2082124068
15,18,Jits_Linear_8,2,5,63,98,2082214116
15,18,Jits_Linear_8,3,5,56,103,2082233900
15,18,Jits_Linear_8,0,5,63,98,2082883900
15,18,Jits_Linear_8,1,5,56,103,2082904432
15,18,Jits_Linear_8,2,1,48,38,2082935948
15,18,Jits_Linear_8,3,5,80,127,2082944364
15,18,Jits_Linear_8,0,5,80,127,2083584452
15,18,Jits_Linear_8,1,5,63,98,2083603868
15,18,Jits_Linear_8,2,1,48,52,2083620536
15,18,Jits_Linear_8,3,5,56,103,2083683876
15,18,Jits_Linear_8,0,5,63,98,2084313416
15,18,Jits_Linear_8,1,1,48,59,2084343584
15,18,Jits_Linear_8,2,5,56,103,2084423996
15,18,Jits_Linear_8,3,5,80,127,2084427060
15,18,Jits_Linear_8,0,5,63,98,2085074272
15,18,Jits_Linear_8,1,1,48,56,2085075240
15,18,Jits_Linear_8,2,5,56,103,2085083640
15,18,Jits_Linear_8,3,5,80,127,2085086780
15,18,Jits_Linear_8,0,5,56,103,2085794048
15,18,Jits_Linear_8,1,1,48,49,2085803912
15,18,Jits_Linear_8,2,5,80,127,2085913928
15,18,Jits_Linear_8,3,5,63,98,2085953868
15,18,Jits_Linear_8,0,5,56,103,2086543772
15,18,Jits_Linear_8,1,1,48,50,2086557980
15,18,Jits_Linear_8,2,5,80,127,2086623888
15,18,Jits_Linear_8,3,5,63,98,2086644200
15,18,Jits_Linear_8,0,5,56,103,2087273720
15,18,Jits_Linear_8,1,1,48,48,2087342404
15,18,Jits_Linear_8,2,5,63,98,2087384548
15,18,Jits_Linear_8,3,5,80,127,2087387764
15,18,Jits_Linear_8,0,1,48,54,2087980388
15,18,Jits_Linear_8,1,5,56,103,2088033620
15,18,Jits_Linear_8,2,5,80,127,2088064492
15,18,Jits_Linear_8,3,5,63,98,2088083816
15,18,Jits_Linear_8,0,1,48,59,2088726136
15,18,Jits_Linear_8,1,5,63,98,2088744296
15,18,Jits_Linear_8,2,5,56,103,2088753816
15,18,Jits_Linear_8,3,5,80,127,2088763940
15,18,Jits_Linear_8,0,1,48,53,2089407284
15,18,Jits_Linear_8,1,5,80,127,2089453916
15,18,Jits_Linear_8,2,5,56,103,2089504032
15,18,Jits_Linear_8,3,5,63,98,2089544120
15,18,Jits_Linear_8,0,1,48,57,2090150444
15,18,Jits_Linear_8,1,5,80,127,2090194408
15,18,Jits_Linear_8,2,5,63,98,2090213824
15,18,Jits_Linear_8,3,5,56,103,2090263860
15,18,Jits_Linear_8,0,1,48,58,2090920084
15,18,Jits_Linear_8,1,5,80,127,2090924612
15,18,Jits_Linear_8,2,5,56,103,2090954088
15,18,Jits_Linear_8,3,5,63,98,2091023680
15,18,Jits_Linear_8,0,1,48,52,2091663288
15,18,Jits_Linear_8,1,5,56,103,2091693360
15,18,Jits_Linear_8,2,5,80,127,2091703852
15,18,Jits_Linear_8,3,5,63,98,2091743668
15,18,Jits_Linear_8,0,5,56,103,2092333616
15,18,Jits_Linear_8,1,5,63,98,2092353852
15,18,Jits_Linear_8,2,1,48,56,2092361008
15,18,Jits_Linear_8,3,5,80,127,2092423600
15,18,Jits_Linear_8,0,1,48,54,2093009720
15,18,Jits_Linear_8,1,5,63,98,2093073888
15,18,Jits_Linear_8,2,5,80,127,2093134268
15,18,Jits_Linear_8,3,5,56,103,2093153756
15,18,Jits_Linear_8,0,1,48,54,2093758612
15,18,Jits_Linear_8,1,5,80,127,2093774224
15,18,Jits_Linear_8,2,5,56,103,2093803828
15,18,Jits_Linear_8,3,5,63,98,2093833800
15,18,Jits_Linear_8,0,1,48,55,2094466492
15,18,Jits_Linear_8,1,5,56,103,2094483900
15,18,Jits_Linear_8,2,5,63,98,2094544168
15,18,Jits_Linear_8,3,5,80,127,2094603648
15,18,Jits_Linear_8,0,1,48,48,2095189524
15,18,Jits_Linear_8,1,5,80,127,2095213908
15,18,Jits_Linear_8,2,5,56,103,2095234592
15,18,Jits_Linear_8,3,5,63,98,2095303984
15,18,Jits_Linear_8,0,5,80,127,2095923616
15,18,Jits_Linear_8,1,5,63,98,2095943928
15,18,Jits_Linear_8,2,1,48,62,2095965480
15,18,Jits_Linear_8,3,5,56,103,2095973672
15,18,Jits_Linear_8,0,5,80,127,2096613772
15,18,Jits_Linear_8,1,5,63,98,2096634084
15,18,Jits_Linear_8,2,1,48,60,2096640940
15,18,Jits_Linear_8,3,5,56,103,2096693644
15,18,Jits_Linear_8,0,5,80,127,2097314024
15,18,Jits_Linear_8,1,1,48,59,2097347960
15,18,Jits_Linear_8,2,5,56,103,2097413692
15,18,Jits_Linear_8,3,5,63,98,2097444116
15,18,Jits_Linear_8,0,5,63,98,2098004560
15,18,Jits_Linear_8,1,5,80,127,2098053416
15,18,Jits_Linear_8,2,5,56,103,2098073952
15,18,Jits_Linear_8,3,1,48,57,2098096772
15,18,Jits_Linear_8,0,1,48,52,2098729204
15,18,Jits_Linear_8,1,5,80,127,2098743548
15,18,Jits_Linear_8,2,5,56,103,2098774492
15,18,Jits_Linear_8,3,5,63,98,2098777408
15,18,Jits_Linear_8,0,1,48,67,2099383508
15,18,Jits_Linear_8,1,5,63,98,2099473912
15,18,Jits_Linear_8,2,5,56,103,2099513612
15,18,Jits_Linear_8,3,5,80,127,2099534072
15,18,Jits_Linear_8,0,5,80,127,2100113700
15,18,Jits_Linear_8,1,1,48,53,2100130148
15,18,Jits_Linear_8,2,5,63,98,2100193812
15,18,Jits_Linear_8,3,5,56,103,2100233736
15,18,Jits_Linear_8,0,5,63,98,2100824388
15,18,Jits_Linear_8,1,1,48,52,2100826772
15,18,Jits_Linear_8,2,5,80,127,2100904404
15,18,Jits_Linear_8,3,5,56,103,2100923740
15,18,Jits_Linear_8,0,1,48,47,2101491316
15,18,Jits_Linear_8,1,5,56,103,2101553468
15,18,Jits_Linear_8,2,5,63,98,2101563888
15,18,Jits_Linear_8,3,5,80,127,2101603740
15,18,Jits_Linear_8,0,5,56,103,2102163876
15,18,Jits_Linear_8,1,5,80,127,2102166720
15,18,Jits_Linear_8,2,1,48,51,2102226956
15,18,Jits_Linear_8,3,5,63,98,2102304072
15,18,Jits_Linear_8,0,5,56,103,2102843616
15,18,Jits_Linear_8,1,1,48,41,2102902404
15,18,Jits_Linear_8,2,5,63,98,2102933820
15,18,Jits_Linear_8,3,5,80,127,2103003508
15,18,Jits_Linear_8,0,1,48,53,2103536816
15,18,Jits_Linear_8,1,5,63,98,2103603672
15,18,Jits_Linear_8,2,5,80,127,2103606816
15,18,Jits_Linear_8,3,5,56,103,2103664124
15,18,Jits_Linear_8,0,1,48,55,2104212928
15,18,Jits_Linear_8,1,5,80,127,2104323472
15,18,Jits_Linear_8,2,5,56,103,2104343784
15,18,Jits_Linear_8,3,5,63,98,2104354276
15,18,Jits_Linear_8,0,5,56,103,2104914420
15,18,Jits_Linear_8,1,5,63,98,2104923500
15,18,Jits_Linear_8,2,1,48,51,2104964900
15,18,Jits_Linear_8,3,5,80,127,2104994440
15,18,Jits_Linear_8,0,1,48,56,2105576976
15,18,Jits_Linear_8,1,5,80,127,2105603604
15,18,Jits_Linear_8,2,5,56,103,2105653656
15,18,Jits_Linear_8,3,5,63,98,2105703768
15,18,Jits_Linear_8,0,1,48,51,2106317172
15,18,Jits_Linear_8,1,5,56,103,2106364400
15,18,Jits_Linear_8,2,5,63,98,2106373476
15,18,Jits_Linear_8,3,5,80,127,2106413624
15,18,Jits_Linear_8,0,5,56,103,2106983660
15,18,Jits_Linear_8,1,1,48,62,2107022544
15,18,Jits_Linear_8,2,5,63,98,2107024040
15,18,Jits_Linear_8,3,5,80,127,2107073896
15,18,Jits_Linear_8,0,5,80,127,2107613436
15,18,Jits_Linear_8,1,1,48,59,2107629736
15,18,Jits_Linear_8,2,5,56,103,2107663632
15,18,Jits_Linear_8,3,5,63,98,2107684388
15,18,Jits_Linear_8,0,5,80,127,2108293532
15,18,Jits_Linear_8,1,1,48,50,2108314036
15,18,Jits_Linear_8,2,5,63,98,2108353868
15,18,Jits_Linear_8,3,5,56,103,2108433720
15,18,Jits_Linear_8,0,5,80,127,2108943684
15,18,Jits_Linear_8,1,5,56,103,2108983700
15,18,Jits_Linear_8,2,5,63,98,2109004380
15,18,Jits_Linear_8,3,1,48,50,2109015892
15,18,Jits_Linear_8,0,1,48,58,2109615500
15,18,Jits_Linear_8,1,5,56,103,2109663580
15,18,Jits_Linear_8,2,5,80,127,2109673700
15,18,Jits_Linear_8,3,5,63,98,2109713640
15,18,Jits_Linear_8,0,1,48,57,2110289828
15,18,Jits_Linear_8,1,5,56,103,2110393768
15,18,Jits_Linear_8,2,5,63,98,2110433732
15,18,Jits_Linear_8,3,5,80,127,2110436948
15,18,Jits_Linear_8,0,5,63,98,2110943532
15,18,Jits_Linear_8,1,5,80,127,2110983472
15,18,Jits_Linear_8,2,5,56,103,2111054272
15,18,Jits_Linear_8,3,1,48,54,2111074852
15,18,Jits_Linear_8,0,5,63,98,2111593796
15,18,Jits_Linear_8,1,5,56,103,2111673592
15,18,Jits_Linear_8,2,1,48,32,2111706332
15,18,Jits_Linear_8,3,5,80,127,2111734224
15,18,Jits_Linear_8,0,5,80,127,2112263488
15,18,Jits_Linear_8,1,1,48,45,2112301604
15,18,Jits_Linear_8,2,5,63,98,2112313684
15,18,Jits_Linear_8,3,5,56,103,2112344480
15,18,Jits_Linear_8,0,5,56,103,2112913684
15,18,Jits_Linear_8,1,5,63,98,2112963840
15,18,Jits_Linear_8,2,1,48,52,2112964804
15,18,Jits_Linear_8,3,5,80,127,2112974324
15,18,Jits_Linear_8,0,1,48,51,2113568212
15,18,Jits_Linear_8,1,5,56,103,2113583604
15,18,Jits_Linear_8,2,5,63,98,2113694028
15,18,Jits_Linear_8,3,5,80,127,2113713516
15,18,Jits_Linear_8,0,1,48,40,2114233268
15,18,Jits_Linear_8,1,5,63,98,2114234836
15,18,Jits_Linear_8,2,5,80,127,2114283868
15,18,Jits_Linear_8,3,5,56,103,2114373984
15,18,Jits_Linear_8,0,5,63,98,2114873672
15,18,Jits_Linear_8,1,5,80,127,2114904320
15,18,Jits_Linear_8,2,1,48,41,2114933440
15,18,Jits_Linear_8,3,5,56,103,2114993472
15,18,Jits_Linear_8,0,5,63,98,2115523804
15,18,Jits_Linear_8,1,5,56,103,2115534372
15,18,Jits_Linear_8,2,1,48,38,2115547008
15,18,Jits_Linear_8,3,5,80,127,2115633420
15,18,Jits_Linear_8,0,1,48,37,2116167740
15,18,Jits_Linear_8,1,5,63,98,2116273396
15,18,Jits_Linear_8,2,5,80,127,2116304292
15,18,Jits_Linear_8,3,5,56,103,2116333820
15,18,Jits_Linear_8,0,1,48,64,2116836164
15,18,Jits_Linear_8,1,5,80,127,2116933956
15,18,Jits_Linear_8,2,5,63,98,2116944152
15,18,Jits_Linear_8,3,5,56,103,2116973900
15,18,Jits_Linear_8,0,5,80,127,2117473584
15,18,Jits_Linear_8,1,5,63,98,2117494268
15,18,Jits_Linear_8,2,5,56,103,2117544396
15,18,Jits_Linear_8,3,1,48,57,2117585672
15,18,Jits_Linear_8,0,5,63,98,2118144340
15,18,Jits_Linear_8,1,1,48,50,2118167988
15,18,Jits_Linear_8,2,5,80,127,2118203680
15,18,Jits_Linear_8,3,5,56,103,2118224212
15,18,Jits_Linear_8,0,5,63,98,2118744332
15,18,Jits_Linear_8,1,1,48,54,2118788208
15,18,Jits_Linear_8,2,5,56,103,2118793484
15,18,Jits_Linear_8,3,5,80,127,2118803900
15,18,Jits_Linear_8,0,1,48,51,2119391372
15,18,Jits_Linear_8,1,5,56,103,2119414240
15,18,Jits_Linear_8,2,5,80,127,2119424288
15,18,Jits_Linear_8,3,5,63,98,2119523844
15,18,Jits_Linear_8,0,5,80,127,2120014312
15,18,Jits_Linear_8,1,1,48,43,2120017804
15,18,Jits_Linear_8,2,5,63,98,2120024428
15,18,Jits_Linear_8,3,5,56,103,2120173908
15,18,Jits_Linear_8,0,5,63,98,2120654352
15,18,Jits_Linear_8,1,1,48,54,2120670500
15,18,Jits_Linear_8,2,5,80,127,2120694136
15,18,Jits_Linear_8,3,5,56,103,2120774212
15,18,Jits_Linear_8,0,1,48,57,2121262856
15,18,Jits_Linear_8,1,5,56,103,2121273592
15,18,Jits_Linear_8,2,5,80,127,2121374200
15,18,Jits_Linear_8,3,5,63,98,2121393464
15,18,Jits_Linear_8,0,1,48,59,2121920924
15,18,Jits_Linear_8,1,5,80,127,2121963892
15,18,Jits_Linear_8,2,5,56,103,2121974384
15,18,Jits_Linear_8,3,5,63,98,2122064132
15,18,Jits_Linear_8,0,1,48,59,2122545876
15,18,Jits_Linear_8,1,5,56,103,2122593708
15,18,Jits_Linear_8,2,5,63,98,2122614092
15,18,Jits_Linear_8,3,5,80,127,2122694120
15,18,Jits_Linear_8,0,1,48,60,2123157712
15,18,Jits_Linear_8,1,5,63,98,2123164408
15,18,Jits_Linear_8,2,5,56,103,2123254196
15,18,Jits_Linear_8,3,5,80,127,2123258144
15,18,Jits_Linear_8,0,1,48,66,2123774584
15,18,Jits_Linear_8,1,5,56,103,2123814244
15,18,Jits_Linear_8,2,5,80,127,2123873572
15,18,Jits_Linear_8,3,5,63,98,2123883992
15,18,Jits_Linear_8,0,1,48,51,2124429340
15,18,Jits_Linear_8,1,5,80,127,2124484164
15,18,Jits_Linear_8,2,5,56,103,2124494284
15,18,Jits_Linear_8,3,5,63,98,2124497500
15,18,Jits_Linear_8,0,1,48,61,2124998184
15,18,Jits_Linear_8,1,5,56,103,2125063476
15,18,Jits_Linear_8,2,5,80,127,2125073896
15,18,Jits_Linear_8,3,5,63,98,2125094344
15,18,Jits_Linear_8,0,1,48,55,2125602984
15,18,Jits_Linear_8,1,5,63,98,2125654328
15,18,Jits_Linear_8,2,5,80,127,2125714032
15,18,Jits_Linear_8,3,5,56,103,2125764032
15,18,Jits_Linear_8,0,1,48,29,2126224176
15,18,Jits_Linear_8,1,5,63,98,2126354052
15,18,Jits_Linear_8,2,5,56,103,2126364100
15,18,Jits_Linear_8,3,5,80,127,2126414228
15,18,Jits_Linear_8,0,5,63,98,2126863940
15,18,Jits_Linear_8,1,5,80,127,2126884176
15,18,Jits_Linear_8,2,5,56,103,2126893552
15,18,Jits_Linear_8,3,1,48,68,2126999144
15,18,Jits_Linear_8,0,5,63,98,2127474264
15,18,Jits_Linear_8,1,5,80,127,2127477552
15,18,Jits_Linear_8,2,5,56,103,2127514128
15,18,Jits_Linear_8,3,1,48,53,2127571576
15,18,Jits_Linear_8,0,1,48,61,2128119556
15,18,Jits_Linear_8,1,5,63,98,2128154128
15,18,Jits_Linear_8,2,5,80,127,2128183808
15,18,Jits_Linear_8,3,5,56,103,2128194004
15,18,Jits_Linear_8,0,5,56,103,2128714196
15,18,Jits_Linear_8,1,1,48,53,2128728924
15,18,Jits_Linear_8,2,5,80,127,2128743792
15,18,Jits_Linear_8,3,5,63,98,2128773468
15,18,Jits_Linear_8,0,1,48,50,2129301420
15,18,Jits_Linear_8,1,5,63,98,2129413408
15,18,Jits_Linear_8,2,5,56,103,2129453340
15,18,Jits_Linear_8,3,5,80,127,2129456488
15,18,Jits_Linear_8,0,5,80,127,2129914372
15,18,Jits_Linear_8,1,1,48,40,2129991284
15,18,Jits_Linear_8,2,5,56,103,2129994240
15,18,Jits_Linear_8,3,5,63,98,2130044444
15,18,Jits_Linear_8,0,5,80,127,2130493936
15,18,Jits_Linear_8,1,5,56,103,2130514248
15,18,Jits_Linear_8,2,1,48,47,2130602260
15,18,Jits_Linear_8,3,5,63,98,2130604376
15,18,Jits_Linear_8,0,1,48,40,2131125372
15,18,Jits_Linear_8,1,5,80,127,2131133960
15,18,Jits_Linear_8,2,5,63,98,2131173752
15,18,Jits_Linear_8,3,5,56,103,2131213620
15,18,Jits_Linear_8,0,1,48,49,2131696992
15,18,Jits_Linear_8,1,5,63,98,2131704136
15,18,Jits_Linear_8,2,5,80,127,2131763556
15,18,Jits_Linear_8,3,5,56,103,2131794784
15,18,Jits_Linear_8,0,5,56,103,2132304360
15,18,Jits_Linear_8,1,1,48,54,2132332372
15,18,Jits_Linear_8,2,5,80,127,2132333880
15,18,Jits_Linear_8,3,5,63,98,2132424260
15,18,Jits_Linear_8,0,1,48,34,2132890908
15,18,Jits_Linear_8,1,5,56,103,2132904204
15,18,Jits_Linear_8,2,5,80,127,2133013980
15,18,Jits_Linear_8,3,5,63,98,2133043656
15,18,Jits_Linear_8,0,1,48,60,2133484196
15,18,Jits_Linear_8,1,5,56,103,2133544236
15,18,Jits_Linear_8,2,5,63,98,2133603716
15,18,Jits_Linear_8,3,5,80,127,2133634292
15,18,Jits_Linear_8,0,5,56,103,2134104388
15,18,Jits_Linear_8,1,1,48,50,2134160396
15,18,Jits_Linear_8,2,5,63,98,2134174140
15,18,Jits_Linear_8,3,5,80,127,2134193404
15,18,Jits_Linear_8,0,5,80,127,2134663416
15,18,Jits_Linear_8,1,5,63,98,2134683952
15,18,Jits_Linear_8,2,1,48,49,2134693740
15,18,Jits_Linear_8,3,5,56,103,2134734168
15,18,Jits_Linear_8,0,1,48,40,2135244604
15,18,Jits_Linear_8,1,5,63,98,2135263736
15,18,Jits_Linear_8,2,5,80,127,2135273860
15,18,Jits_Linear_8,3,5,56,103,2135324060
15,18,Jits_Linear_8,0,1,48,65,2135838824
15,18,Jits_Linear_8,1,5,63,98,2135844172
15,18,Jits_Linear_8,2,5,80,127,2135914080
15,18,Jits_Linear_8,3,5,56,103,2135934300
15,18,Jits_Linear_8,0,1,48,56,2136426984
15,18,Jits_Linear_8,1,5,63,98,2136453460
15,18,Jits_Linear_8,2,5,80,127,2136456896
15,18,Jits_Linear_8,3,5,56,103,2136525096
15,18,Jits_Linear_8,0,5,80,127,2136984068
15,18,Jits_Linear_8,1,5,56,103,2137004380
15,18,Jits_Linear_8,2,5,63,98,2137013676
15,18,Jits_Linear_8,3,1,48,56,2137042672
15,18,Jits_Linear_8,0,5,56,103,2137583872
15,18,Jits_Linear_8,1,1,48,47,2137603780
15,18,Jits_Linear_8,2,5,63,98,2137674076
15,18,Jits_Linear_8,3,5,80,127,2137677364
15,18,Jits_Linear_8,0,5,80,127,2138133976
15,18,Jits_Linear_8,1,5,56,103,2138144100
15,18,Jits_Linear_8,2,5,63,98,2138163584
15,18,Jits_Linear_8,3,1,48,45,2138195472
15,18,Jits_Linear_8,0,1,48,46,2138697080
15,18,Jits_Linear_8,1,5,63,98,2138704228
15,18,Jits_Linear_8,2,5,80,127,2138763500
15,18,Jits_Linear_8,3,5,56,103,2138774068
15,18,Jits_Linear_8,0,1,48,65,2139262088
15,18,Jits_Linear_8,1,5,63,98,2139344320
15,18,Jits_Linear_8,2,5,80,127,2139374132
15,18,Jits_Linear_8,3,5,56,103,2139413996
15,18,Jits_Linear_8,0,1,48,69,2139890044
15,18,Jits_Linear_8,1,5,56,103,2139904312
15,18,Jits_Linear_8,2,5,80,127,2139913536
15,18,Jits_Linear_8,3,5,63,98,2139953400
15,18,Jits_Linear_8,0,5,80,127,2140433960
15,18,Jits_Linear_8,1,1,48,70,2140492380
15,18,Jits_Linear_8,2,5,56,103,2140513752
15,18,Jits_Linear_8,3,5,63,98,2140523876
15,18,Jits_Linear_8,0,5,80,127,2141044164
15,18,Jits_Linear_8,1,1,48,49,2141083400
15,18,Jits_Linear_8,2,5,56,103,2141124128
15,18,Jits_Linear_8,3,5,63,98,2141134324
15,18,Jits_Linear_8,0,5,80,127,2141564236
15,18,Jits_Linear_8,1,5,56,103,2141613544
15,18,Jits_Linear_8,2,1,48,49,2141644112
15,18,Jits_Linear_8,3,5,63,98,2141663764
15,18,Jits_Linear_8,0,1,48,48,2142148656
15,18,Jits_Linear_8,1,5,56,103,2142183968
15,18,Jits_Linear_8,2,5,63,98,2142187112
15,18,Jits_Linear_8,3,5,80,127,2142233948
15,18,Jits_Linear_8,0,1,48,73,2142697848
15,18,Jits_Linear_8,1,5,56,103,2142764484
15,18,Jits_Linear_8,2,5,63,98,2142794012
15,18,Jits_Linear_8,3,5,80,127,2142804416
15,18,Jits_Linear_8,0,5,63,98,2143234356
15,18,Jits_Linear_8,1,1,48,68,2143272692
15,18,Jits_Linear_8,2,5,56,103,2143304032
15,18,Jits_Linear_8,3,5,80,127,2143354156
15,18,Jits_Linear_8,0,1,48,64,2143800144
15,18,Jits_Linear_8,1,5,63,98,2143824156
15,18,Jits_Linear_8,2,5,56,103,2143833528
15,18,Jits_Linear_8,3,5,80,127,2143836372
15,18,Jits_Linear_8,0,5,80,127,2144323828
15,18,Jits_Linear_8,1,1,48,46,2144336988
15,18,Jits_Linear_8,2,5,56,103,2144384288
15,18,Jits_Linear_8,3,5,63,98,2144473456
15,18,Jits_Linear_8,0,5,80,127,2144874012
15,18,Jits_Linear_8,1,1,48,49,2144920280
15,18,Jits_Linear_8,2,5,56,103,2144974060
15,18,Jits_Linear_8,3,5,63,98,2145014060
15,18,Jits_Linear_8,0,5,56,103,2145473976
15,18,Jits_Linear_8,1,5,63,98,2145494512
15,18,Jits_Linear_8,2,1,48,47,2145504308
15,18,Jits_Linear_8,3,5,80,127,2145534296
15,18,Jits_Linear_8,0,5,63,98,2145994048
15,18,Jits_Linear_8,1,5,56,103,2146013612
15,18,Jits_Linear_8,2,1,48,73,2146041144
15,18,Jits_Linear_8,3,5,80,127,2146114000
15,18,Jits_Linear_8,0,5,63,98,2146523396
15,18,Jits_Linear_8,1,1,48,61,2146561732
15,18,Jits_Linear_8,2,5,80,127,2146634052
15,18,Jits_Linear_8,3,5,56,103,2146663788
15,18,Jits_Linear_8,0,5,56,103,2147083760
15,18,Jits_Linear_8,1,1,48,66,2147100208
15,18,Jits_Linear_8,2,5,63,98,2147114404
15,18,Jits_Linear_8,3,5,80,127,2147163632
15,18,Jits_Linear_8,0,5,63,98,2147593716
15,18,Jits_Linear_8,1,5,56,103,2147624288
15,18,Jits_Linear_8,2,1,48,40,2147655880
15,18,Jits_Linear_8,3,5,80,127,2147673436
15,18,Jits_Linear_8,0,1,48,46,2148157784
15,18,Jits_Linear_8,1,5,56,103,2148163808
15,18,Jits_Linear_8,2,5,63,98,2148184344
15,18,Jits_Linear_8,3,5,80,127,2148264344
15,18,Jits_Linear_8,0,5,63,98,2148673976
15,18,Jits_Linear_8,1,1,48,48,2148687580
15,18,Jits_Linear_8,2,5,56,103,2148734212
15,18,Jits_Linear_8,3,1,48,24,2148753204
15,18,Jits_Linear_8,4,5,80,127,2148764092
15,18,Jits_Linear_8,0,5,56,103,2149253792
15,18,Jits_Linear_8,1,1,48,70,2149274072
15,18,Jits_Linear_8,2,5,80,127,2149313904
15,18,Jits_Linear_8,3,5,63,98,2149353768
15,18,Jits_Linear_8,0,5,63,98,2149763452
15,18,Jits_Linear_8,1,1,48,58,2149778780
15,18,Jits_Linear_8,2,5,56,103,2149823864
15,18,Jits_Linear_8,3,1,48,27,2149842556
15,18,Jits_Linear_8,4,5,80,127,2149893672
15,18,Jits_Linear_8,0,1,48,55,2150311232
15,18,Jits_Linear_8,1,5,56,103,2150373928
15,18,Jits_Linear_8,2,5,63,98,2150383976
15,18,Jits_Linear_8,3,5,80,127,2150387564
15,18,Jits_Linear_8,0,5,63,98,2150843868
15,18,Jits_Linear_8,1,1,48,49,2150894716
15,18,Jits_Linear_8,2,5,56,103,2150904024
15,18,Jits_Linear_8,3,5,80,127,2150907320
15,18,Jits_Linear_8,0,5,63,98,2151353776
15,18,Jits_Linear_8,1,5,80,127,2151384600
15,18,Jits_Linear_8,2,5,56,103,2151403788
15,18,Jits_Linear_8,3,1,48,35,2151410944
15,18,Jits_Linear_8,0,5,56,103,2151884116
15,18,Jits_Linear_8,1,1,48,46,2151913088
15,18,Jits_Linear_8,2,5,63,98,2151934388
15,18,Jits_Linear_8,3,5,80,127,2152014168
15,18,Jits_Linear_8,0,5,80,127,2152394148
15,18,Jits_Linear_8,1,5,63,98,2152434088
15,18,Jits_Linear_8,2,1,48,62,2152445600
15,18,Jits_Linear_8,3,5,56,103,2152453344
15,18,Jits_Linear_8,0,1,48,66,2152941764
15,18,Jits_Linear_8,1,5,56,103,2152983888
15,18,Jits_Linear_8,2,5,80,127,2152994308
15,18,Jits_Linear_8,3,5,63,98,2153013868
15,18,Jits_Linear_8,0,1,48,66,2153444276
15,18,Jits_Linear_8,1,5,56,103,2153483564
15,18,Jits_Linear_8,2,5,63,98,2153533768
15,18,Jits_Linear_8,3,5,80,127,2153563724
15,18,Jits_Linear_8,0,5,56,103,2153953880
15,18,Jits_Linear_8,1,1,48,42,2153955292
15,18,Jits_Linear_8,2,5,63,98,2153963848
15,18,Jits_Linear_8,3,5,80,127,2154014048
15,18,Jits_Linear_8,0,1,48,45,2154454064
15,18,Jits_Linear_8,1,5,56,103,2154463672
15,18,Jits_Linear_8,2,5,80,127,2154466812
15,18,Jits_Linear_8,3,5,63,98,2154624288
15,18,Jits_Linear_8,0,1,48,38,2154957688
15,18,Jits_Linear_8,1,5,63,98,2154993984
15,18,Jits_Linear_8,2,5,56,103,2155063652
15,18,Jits_Linear_8,3,5,80,127,2155103740
15,18,Jits_Linear_8,0,1,48,63,2155469276
15,18,Jits_Linear_8,1,5,63,98,2155543936
15,18,Jits_Linear_8,2,5,56,103,2155633980
15,18,Jits_Linear_8,3,5,80,127,2155637272
15,18,Jits_Linear_8,0,1,48,59,2155991056
15,18,Jits_Linear_8,1,5,56,103,2156034692
15,18,Jits_Linear_8,2,5,63,98,2156123620
15,18,Jits_Linear_8,3,5,80,127,2156133816
15,18,Jits_Linear_8,0,1,48,62,2156497708
15,18,Jits_Linear_8,1,5,56,103,2156513772
15,18,Jits_Linear_8,2,5,63,98,2156563680
15,18,Jits_Linear_8,3,5,80,127,2156593640
15,18,Jits_Linear_8,0,1,48,45,2157021052
15,18,Jits_Linear_8,1,5,63,98,2157094144
15,18,Jits_Linear_8,2,5,80,127,2157103592
15,18,Jits_Linear_8,3,5,56,103,2157163964
15,18,Jits_Linear_8,0,5,63,98,2157514112
15,18,Jits_Linear_8,1,1,48,33,2157527940
15,18,Jits_Linear_8,2,5,80,127,2157573748
15,18,Jits_Linear_8,3,5,56,103,2157613540
15,18,Jits_Linear_8,0,1,48,33,2158047400
15,18,Jits_Linear_8,1,5,56,103,2158114108
15,18,Jits_Linear_8,2,5,80,127,2158133820
15,18,Jits_Linear_8,3,5,63,98,2158154116
15,18,Jits_Linear_8,0,5,63,98,2158534008
15,18,Jits_Linear_8,1,5,56,103,2158553568
15,18,Jits_Linear_8,2,5,80,127,2158594556
15,18,Jits_Linear_8,3,1,48,65,2158604500
15,18,Jits_Linear_8,0,1,48,59,2159040536
15,18,Jits_Linear_8,1,5,63,98,2159043940
15,18,Jits_Linear_8,2,5,80,127,2159073840
15,18,Jits_Linear_8,3,5,56,103,2159094152
15,18,Jits_Linear_8,0,5,80,127,2159513932
15,18,Jits_Linear_8,1,1,48,62,2159545296
15,18,Jits_Linear_8,2,5,56,103,2159564004
15,18,Jits_Linear_8,3,5,63,98,2159623496
15,18,Jits_Linear_8,0,5,63,98,2159994216
15,18,Jits_Linear_8,1,1,48,36,2160039288
15,18,Jits_Linear_8,2,5,56,103,2160114044
15,18,Jits_Linear_8,3,5,80,127,2160143780
15,18,Jits_Linear_8,0,1,48,33,2160523492
15,18,Jits_Linear_8,1,5,80,127,2160524904
15,18,Jits_Linear_8,2,5,63,98,2160544172
15,18,Jits_Linear_8,3,5,56,103,2160613728
15,18,Jits_Linear_8,0,5,63,98,2161033812
15,18,Jits_Linear_8,1,5,56,103,2161043712
15,18,Jits_Linear_8,2,1,48,37,2161048848
15,18,Jits_Linear_8,3,5,80,127,2161123748
15,18,Jits_Linear_8,0,1,48,64,2161519516
15,18,Jits_Linear_8,1,5,56,103,2161583764
15,18,Jits_Linear_8,2,5,80,127,2161614140
15,18,Jits_Linear_8,3,5,63,98,2161624544
15,18,Jits_Linear_8,0,9999,9999,9999,2051211320
15,18,Jits_Linear_8,1,9999,9999,9999,2052031552
15,18,Jits_Linear_8,2,9999,9999,9999,2052851808
15,18,Jits_Linear_8,3,9999,9999,9999,2053672028
15,18,Jits_Linear_8,4,9999,9999,9999,2054491196
15,18,Jits_Linear_8,5,9999,9999,9999,2055301220
15,18,Jits_Linear_8,6,9999,9999,9999,2056111232
15,18,Jits_Linear_8,7,9999,9999,9999,2056921216
15,18,Jits_Linear_8,8,9999,9999,9999,2057731164
15,18,Jits_Linear_8,9,9999,9999,9999,2058541164
15,18,Jits_Linear_8,10,9999,9999,9999,2059341912
15,18,Jits_Linear_8,11,9999,9999,9999,2060141668
15,18,Jits_Linear_8,12,9999,9999,9999,2060941424
15,18,Jits_Linear_8,13,9999,9999,9999,2061741176
15,18,Jits_Linear_8,14,9999,9999,9999,2062541912
15,18,Jits_Linear_8,15,9999,9999,9999,2063331396
15,18,Jits_Linear_8,16,9999,9999,9999,2064121916
15,18,Jits_Linear_8,17,9999,9999,9999,2064911476
15,18,Jits_Linear_8,18,9999,9999,9999,2065702016
15,18,Jits_Linear_8,19,9999,9999,9999,2066491448
15,18,Jits_Linear_8,20,9999,9999,9999,2067271796
15,18,Jits_Linear_8,21,9999,9999,9999,2068052064
15,18,Jits_Linear_8,22,9999,9999,9999,2068831300
15,18,Jits_Linear_8,23,9999,9999,9999,2069611648
15,18,Jits_Linear_8,24,9999,9999,9999,2070391916
15,18,Jits_Linear_8,25,9999,9999,9999,2071161928
15,18,Jits_Linear_8,26,9999,9999,9999,2071932012
15,18,Jits_Linear_8,27,9999,9999,9999,2072702024
15,18,Jits_Linear_8,28,9999,9999,9999,2073472120
15,18,Jits_Linear_8,29,9999,9999,9999,2074251356
15,18,Jits_Linear_8,30,9999,9999,9999,2075011176
15,18,Jits_Linear_8,31,9999,9999,9999,2075771968
15,18,Jits_Linear_8,32,9999,9999,9999,2076531804
15,18,Jits_Linear_8,33,9999,9999,9999,2077291624
15,18,Jits_Linear_8,34,9999,9999,9999,2078051444
15,18,Jits_Linear_8,35,9999,9999,9999,2078801988
15,18,Jits_Linear_8,36,9999,9999,9999,2079551556
15,18,Jits_Linear_8,37,9999,9999,9999,2080301120
15,18,Jits_Linear_8,38,9999,9999,9999,2081051736
15,18,Jits_Linear_8,39,9999,9999,9999,2081801316
15,18,Jits_Linear_8,40,9999,9999,9999,2082541660
15,18,Jits_Linear_8,41,9999,9999,9999,2083282004
15,18,Jits_Linear_8,42,9999,9999,9999,2084021340
15,18,Jits_Linear_8,43,9999,9999,9999,2084761680
15,18,Jits_Linear_8,44,9999,9999,9999,2085502080
15,18,Jits_Linear_8,45,9999,9999,9999,2086231116
15,18,Jits_Linear_8,46,9999,9999,9999,2086961212
15,18,Jits_Linear_8,47,9999,9999,9999,2087691372
15,18,Jits_Linear_8,48,9999,9999,9999,2088421468
15,18,Jits_Linear_8,49,9999,9999,9999,2089151544
15,18,Jits_Linear_8,50,9999,9999,9999,2089871484
15,18,Jits_Linear_8,51,9999,9999,9999,2090591300
15,18,Jits_Linear_8,52,9999,9999,9999,2091311192
15,18,Jits_Linear_8,53,9999,9999,9999,2092032060
15,18,Jits_Linear_8,54,9999,9999,9999,2092761164
15,18,Jits_Linear_8,55,9999,9999,9999,2093471828
15,18,Jits_Linear_8,56,9999,9999,9999,2094181452
15,18,Jits_Linear_8,57,9999,9999,9999,2094891080
15,18,Jits_Linear_8,58,9999,9999,9999,2095601756
15,18,Jits_Linear_8,59,9999,9999,9999,2096311360
15,18,Jits_Linear_8,60,9999,9999,9999,2097011776
15,18,Jits_Linear_8,61,9999,9999,9999,2097711164
15,18,Jits_Linear_8,62,9999,9999,9999,2098411584
15,18,Jits_Linear_8,63,9999,9999,9999,2099112028
15,18,Jits_Linear_8,64,9999,9999,9999,2099811396
15,18,Jits_Linear_8,65,9999,9999,9999,2100501616
15,18,Jits_Linear_8,66,9999,9999,9999,2101191760
15,18,Jits_Linear_8,67,9999,9999,9999,2101881956
15,18,Jits_Linear_8,68,9999,9999,9999,2102571120
15,18,Jits_Linear_8,69,9999,9999,9999,2103261280
15,18,Jits_Linear_8,70,9999,9999,9999,2103941220
15,18,Jits_Linear_8,71,9999,9999,9999,2104621116
15,18,Jits_Linear_8,72,9999,9999,9999,2105302116
15,18,Jits_Linear_8,73,9999,9999,9999,2105991280
15,18,Jits_Linear_8,74,9999,9999,9999,2106671168
15,18,Jits_Linear_8,75,9999,9999,9999,2107341912
15,18,Jits_Linear_8,76,9999,9999,9999,2108011592
15,18,Jits_Linear_8,77,9999,9999,9999,2108681304
15,18,Jits_Linear_8,78,9999,9999,9999,2109352028
15,18,Jits_Linear_8,79,9999,9999,9999,2110021732
15,18,Jits_Linear_8,80,9999,9999,9999,2110681164
15,18,Jits_Linear_8,81,9999,9999,9999,2111341692
15,18,Jits_Linear_8,82,9999,9999,9999,2112001120
15,18,Jits_Linear_8,83,9999,9999,9999,2112661568
15,18,Jits_Linear_8,84,9999,9999,9999,2113322052
15,18,Jits_Linear_8,85,9999,9999,9999,2113971284
15,18,Jits_Linear_8,86,9999,9999,9999,2114621568
15,18,Jits_Linear_8,87,9999,9999,9999,2115271776
15,18,Jits_Linear_8,88,9999,9999,9999,2115922036
15,18,Jits_Linear_8,89,9999,9999,9999,2116571212
15,18,Jits_Linear_8,90,9999,9999,9999,2117211220
15,18,Jits_Linear_8,91,9999,9999,9999,2117851240
15,18,Jits_Linear_8,92,9999,9999,9999,2118491260
15,18,Jits_Linear_8,93,9999,9999,9999,2119131204
15,18,Jits_Linear_8,94,9999,9999,9999,2119771204
15,18,Jits_Linear_8,95,9999,9999,9999,2120402008
15,18,Jits_Linear_8,96,9999,9999,9999,2121031760
15,18,Jits_Linear_8,97,9999,9999,9999,2121661524
15,18,Jits_Linear_8,98,9999,9999,9999,2122291264
15,18,Jits_Linear_8,99,9999,9999,9999,2122922048
15,18,Jits_Linear_8,100,9999,9999,9999,2123541616
15,18,Jits_Linear_8,101,9999,9999,9999,2124161092
15,18,Jits_Linear_8,102,9999,9999,9999,2124781632
15,18,Jits_Linear_8,103,9999,9999,9999,2125401184
15,18,Jits_Linear_8,104,9999,9999,9999,2126021728
15,18,Jits_Linear_8,105,9999,9999,9999,2126631996
15,18,Jits_Linear_8,106,9999,9999,9999,2127241272
15,18,Jits_Linear_8,107,9999,9999,9999,2127851608
15,18,Jits_Linear_8,108,9999,9999,9999,2128461944
15,18,Jits_Linear_8,109,9999,9999,9999,2129071228
15,18,Jits_Linear_8,110,9999,9999,9999,2129671264
15,18,Jits_Linear_8,111,9999,9999,9999,2130271336
15,18,Jits_Linear_8,112,9999,9999,9999,2130871420
15,18,Jits_Linear_8,113,9999,9999,9999,2131471448
15,18,Jits_Linear_8,114,9999,9999,9999,2132071512
15,18,Jits_Linear_8,115,9999,9999,9999,2132661316
15,18,Jits_Linear_8,116,9999,9999,9999,2133251160
15,18,Jits_Linear_8,117,9999,9999,9999,2133842020
15,18,Jits_Linear_8,118,9999,9999,9999,2134431828
15,18,Jits_Linear_8,119,9999,9999,9999,2135021664
15,18,Jits_Linear_8,120,9999,9999,9999,2135601220
15,18,Jits_Linear_8,121,9999,9999,9999,2136181884
15,18,Jits_Linear_8,122,9999,9999,9999,2136761416
15,18,Jits_Linear_8,123,9999,9999,9999,2137342020
15,18,Jits_Linear_8,124,9999,9999,9999,2137921640
15,18,Jits_Linear_8,125,9999,9999,9999,2138491976
15,18,Jits_Linear_8,126,9999,9999,9999,2139061340
15,18,Jits_Linear_8,127,9999,9999,9999,2139631688
15,18,Jits_Linear_8,128,9999,9999,9999,2140202088
15,18,Jits_Linear_8,129,9999,9999,9999,2140771440
15,18,Jits_Linear_8,130,9999,9999,9999,2141331524
15,18,Jits_Linear_8,131,9999,9999,9999,2141891700
15,18,Jits_Linear_8,132,9999,9999,9999,2142451776
15,18,Jits_Linear_8,133,9999,9999,9999,2143011920
15,18,Jits_Linear_8,134,9999,9999,9999,2143572060
15,18,Jits_Linear_8,135,9999,9999,9999,2144121924
15,18,Jits_Linear_8,136,9999,9999,9999,2144671868
15,18,Jits_Linear_8,137,9999,9999,9999,2145221712
15,18,Jits_Linear_8,138,9999,9999,9999,2145771600
15,18,Jits_Linear_8,139,9999,9999,9999,2146321488
15,18,Jits_Linear_8,140,9999,9999,9999,2146861176
15,18,Jits_Linear_8,141,9999,9999,9999,2147401836
15,18,Jits_Linear_8,142,9999,9999,9999,2147941456
15,18,Jits_Linear_8,143,9999,9999,9999,2148481140
15,18,Jits_Linear_8,144,9999,9999,9999,2149021772
15,18,Jits_Linear_8,145,9999,9999,9999,2149551192
15,18,Jits_Linear_8,146,9999,9999,9999,2150081608
15,18,Jits_Linear_8,147,9999,9999,9999,2150612068
15,18,Jits_Linear_8,148,9999,9999,9999,2151141480
15,18,Jits_Linear_8,149,9999,9999,9999,2151671872
15,18,Jits_Linear_8,150,9999,9999,9999,2152192080
15,18,Jits_Linear_8,151,9999,9999,9999,2152721512
15,18,Jits_Linear_8,152,9999,9999,9999,2153241660
15,18,Jits_Linear_8,153,9999,9999,9999,2153761868
15,18,Jits_Linear_8,154,9999,9999,9999,2154282064
15,18,Jits_Linear_8,155,9999,9999,9999,2154792008
15,18,Jits_Linear_8,156,9999,9999,9999,2155301956
15,18,Jits_Linear_8,157,9999,9999,9999,2155811968
15,18,Jits_Linear_8,158,9999,9999,9999,2156321916
15,18,Jits_Linear_8,159,9999,9999,9999,2156831856
15,18,Jits_Linear_8,160,9999,9999,9999,2157331540
15,18,Jits_Linear_8,161,9999,9999,9999,2157831292
15,18,Jits_Linear_8,162,9999,9999,9999,2158332024
15,18,Jits_Linear_8,163,9999,9999,9999,2158831704
15,18,Jits_Linear_8,164,9999,9999,9999,2159331384
15,18,Jits_Linear_8,165,9999,9999,9999,2159821920
15,18,Jits_Linear_8,166,9999,9999,9999,2160311404
15,18,Jits_Linear_8,167,9999,9999,9999,2160801864
15,18,Jits_Linear_8,168,9999,9999,9999,2161291356
15,18,Jits_Linear_8,169,9999,9999,9999,2161781832
16,16,Jits_ISO_5,0,5,56,103,2170214640
16,16,Jits_ISO_5,1,5,63,98,2170217816
16,16,Jits_ISO_5,2,5,80,127,2170221012
16,16,Jits_ISO_5,0,5,56,103,2170714444
16,16,Jits_ISO_5,1,5,63,98,2170717536
16,16,Jits_ISO_5,2,5,80,127,2170720808
16,16,Jits_ISO_5,0,1,48,55,2171205156
16,16,Jits_ISO_5,1,5,56,103,2171215148
16,16,Jits_ISO_5,2,5,80,127,2171224368
16,16,Jits_ISO_5,3,5,63,98,2171245052
16,16,Jits_ISO_5,0,5,63,98,2171664692
16,16,Jits_ISO_5,1,5,80,127,2171694588
16,16,Jits_ISO_5,2,5,56,103,2171704784
16,16,Jits_ISO_5,3,1,48,64,2171716292
16,16,Jits_ISO_5,0,1,48,63,2172200784
16,16,Jits_ISO_5,1,5,80,127,2172224796
16,16,Jits_ISO_5,2,5,56,103,2172235216
16,16,Jits_ISO_5,3,5,63,98,2172264740
16,16,Jits_ISO_5,0,1,48,56,2172700152
16,16,Jits_ISO_5,1,5,63,98,2172715616
16,16,Jits_ISO_5,2,5,56,103,2172745144
16,16,Jits_ISO_5,3,5,80,127,2172755484
16,16,Jits_ISO_5,0,5,56,103,2173165092
16,16,Jits_ISO_5,1,5,63,98,2173215144
16,16,Jits_ISO_5,2,1,48,53,2173218484
16,16,Jits_ISO_5,3,5,80,127,2173234472
16,16,Jits_ISO_5,0,5,80,127,2173664616
16,16,Jits_ISO_5,1,1,48,51,2173682036
16,16,Jits_ISO_5,2,5,63,98,2173714736
16,16,Jits_ISO_5,3,5,56,103,2173754596
16,16,Jits_ISO_5,0,5,56,103,2174165484
16,16,Jits_ISO_5,1,5,63,98,2174195012
16,16,Jits_ISO_5,2,1,48,55,2174197024
16,16,Jits_ISO_5,3,5,80,127,2174264608
16,16,Jits_ISO_5,0,1,48,46,2174613936
16,16,Jits_ISO_5,1,5,56,103,2174665000
16,16,Jits_ISO_5,2,5,80,127,2174724404
16,16,Jits_ISO_5,3,5,63,98,2174755196
16,16,Jits_ISO_5,0,1,48,49,2175124008
16,16,Jits_ISO_5,1,5,56,103,2175175220
16,16,Jits_ISO_5,2,5,63,98,2175185344
16,16,Jits_ISO_5,3,5,80,127,2175225412
16,16,Jits_ISO_5,0,1,48,47,2175608896
16,16,Jits_ISO_5,1,5,63,98,2175664368
16,16,Jits_ISO_5,2,5,80,127,2175745368
16,16,Jits_ISO_5,3,5,56,103,2175754588
16,16,Jits_ISO_5,0,1,48,53,2176159644
16,16,Jits_ISO_5,1,5,63,98,2176215520
16,16,Jits_ISO_5,2,5,56,103,2176255364
16,16,Jits_ISO_5,3,5,80,127,2176258504
16,16,Jits_ISO_5,0,5,56,103,2176675148
16,16,Jits_ISO_5,1,5,63,98,2176685416
16,16,Jits_ISO_5,2,5,80,127,2176725600
16,16,Jits_ISO_5,0,5,56,103,2177164692
16,16,Jits_ISO_5,1,5,63,98,2177167832
16,16,Jits_ISO_5,2,5,80,127,2177185148
16,16,Jits_ISO_5,0,1,48,61,2177650432
16,16,Jits_ISO_5,1,5,80,127,2177674592
16,16,Jits_ISO_5,2,5,56,103,2177684712
16,16,Jits_ISO_5,3,5,63,98,2177754472
16,16,Jits_ISO_5,0,1,48,57,2178163288
16,16,Jits_ISO_5,1,5,63,98,2178175368
16,16,Jits_ISO_5,2,5,56,103,2178194704
16,16,Jits_ISO_5,3,5,80,127,2178274656
16,16,Jits_ISO_5,0,1,48,61,2178656644
16,16,Jits_ISO_5,1,5,56,103,2178685364
16,16,Jits_ISO_5,2,5,80,127,2178725672
16,16,Jits_ISO_5,3,5,63,98,2178734376
16,16,Jits_ISO_5,0,5,80,127,2179174764
16,16,Jits_ISO_5,1,1,48,58,2179200796
16,16,Jits_ISO_5,2,5,63,98,2179204504
16,16,Jits_ISO_5,3,5,56,103,2179245412
16,16,Jits_ISO_5,0,5,56,103,2179695032
16,16,Jits_ISO_5,1,1,48,55,2179707740
16,16,Jits_ISO_5,2,5,63,98,2179724700
16,16,Jits_ISO_5,3,5,80,127,2179774700
16,16,Jits_ISO_5,0,1,48,56,2180161324
16,16,Jits_ISO_5,1,5,80,127,2180194704
16,16,Jits_ISO_5,2,5,56,103,2180234492
16,16,Jits_ISO_5,3,5,63,98,2180244760
16,16,Jits_ISO_5,0,1,48,61,2180668780
16,16,Jits_ISO_5,1,5,80,127,2180674804
16,16,Jits_ISO_5,2,5,63,98,2180714816
16,16,Jits_ISO_5,3,5,56,103,2180775336
16,16,Jits_ISO_5,0,5,56,103,2181174624
16,16,Jits_ISO_5,1,5,80,127,2181184816
16,16,Jits_ISO_5,2,1,48,46,2181216704
16,16,Jits_ISO_5,3,5,63,98,2181264748
16,16,Jits_ISO_5,0,5,80,127,2181675412
16,16,Jits_ISO_5,1,1,48,43,2181729768
16,16,Jits_ISO_5,2,5,63,98,2181734672
16,16,Jits_ISO_5,3,5,56,103,2181764420
16,16,Jits_ISO_5,0,1,48,28,2181982724
16,16,Jits_ISO_5,1,5,56,103,2182175344
16,16,Jits_ISO_5,2,1,48,42,2182221680
16,16,Jits_ISO_5,3,5,80,127,2182234456
16,16,Jits_ISO_5,4,5,63,98,2182274392
16,16,Jits_ISO_5,5,1,48,34,2182466068
16,16,Jits_ISO_5,0,1,48,32,2182714736
16,16,Jits_ISO_5,1,5,56,103,2182725020
16,16,Jits_ISO_5,2,5,63,98,2182735592
16,16,Jits_ISO_5,3,5,80,127,2182738800
16,16,Jits_ISO_5,0,1,48,26,2182982100
16,16,Jits_ISO_5,1,5,80,127,2183174516
16,16,Jits_ISO_5,2,1,48,41,2183217568
16,16,Jits_ISO_5,3,5,63,98,2183264572
16,16,Jits_ISO_5,4,5,56,103,2183274840
16,16,Jits_ISO_5,5,1,48,37,2183454012
16,16,Jits_ISO_5,0,5,56,103,2183675484
16,16,Jits_ISO_5,1,5,63,98,2183678660
16,16,Jits_ISO_5,2,5,80,127,2183681780
16,16,Jits_ISO_5,3,1,48,32,2183737724
16,16,Jits_ISO_5,0,1,48,18,2184006296
16,16,Jits_ISO_5,1,5,80,127,2184194384
16,16,Jits_ISO_5,2,1,48,42,2184244364
16,16,Jits_ISO_5,3,5,63,98,2184245924
16,16,Jits_ISO_5,4,5,56,103,2184275300
16,16,Jits_ISO_5,0,1,48,41,2184491132
16,16,Jits_ISO_5,1,5,56,103,2184674656
16,16,Jits_ISO_5,2,5,80,127,2184684776
16,16,Jits_ISO_5,3,5,63,98,2184754528
16,16,Jits_ISO_5,4,1,48,38,2184760112
16,16,Jits_ISO_5,0,1,48,36,2185007216
16,16,Jits_ISO_5,1,5,56,103,2185184516
16,16,Jits_ISO_5,2,5,63,98,2185205196
16,16,Jits_ISO_5,3,1,48,38,2185258728
16,16,Jits_ISO_5,4,5,80,127,2185264604
16,16,Jits_ISO_5,0,1,48,37,2185502532
16,16,Jits_ISO_5,1,5,80,127,2185675348
16,16,Jits_ISO_5,2,1,48,43,2185738552
16,16,Jits_ISO_5,3,5,63,98,2185744800
16,16,Jits_ISO_5,4,5,56,103,2185765408
16,16,Jits_ISO_5,0,1,48,30,2185997124
16,16,Jits_ISO_5,1,5,80,127,2186195328
16,16,Jits_ISO_5,2,5,56,103,2186204552
16,16,Jits_ISO_5,3,5,63,98,2186214748
16,16,Jits_ISO_5,4,1,48,39,2186249996
16,16,Jits_ISO_5,0,1,48,27,2186504068
16,16,Jits_ISO_5,1,5,80,127,2186684884
16,16,Jits_ISO_5,2,5,56,103,2186705196
16,16,Jits_ISO_5,3,1,48,42,2186736184
16,16,Jits_ISO_5,4,5,63,98,2186774864
16,16,Jits_ISO_5,0,1,48,39,2186985240
16,16,Jits_ISO_5,1,5,56,103,2187194656
16,16,Jits_ISO_5,2,5,80,127,2187224480
16,16,Jits_ISO_5,3,1,48,43,2187225444
16,16,Jits_ISO_5,4,5,63,98,2187245004
16,16,Jits_ISO_5,0,1,48,35,2187486020
16,16,Jits_ISO_5,1,5,63,98,2187685440
16,16,Jits_ISO_5,2,1,48,42,2187737136
16,16,Jits_ISO_5,3,5,56,103,2187744580
16,16,Jits_ISO_5,4,5,80,127,2187775448
16,16,Jits_ISO_5,0,1,48,37,2187985764
16,16,Jits_ISO_5,1,5,63,98,2188174768
16,16,Jits_ISO_5,2,5,80,127,2188178428
16,16,Jits_ISO_5,3,1,48,50,2188231096
16,16,Jits_ISO_5,4,5,56,103,2188264840
16,16,Jits_ISO_5,0,1,48,39,2188485560
16,16,Jits_ISO_5,1,5,56,103,2188695016
16,16,Jits_ISO_5,2,5,63,98,2188724468
16,16,Jits_ISO_5,3,1,48,41,2188726332
16,16,Jits_ISO_5,4,5,80,127,2188764424
16,16,Jits_ISO_5,0,1,48,44,2188985112
16,16,Jits_ISO_5,1,5,63,98,2189195044
16,16,Jits_ISO_5,2,5,56,103,2189234536
16,16,Jits_ISO_5,3,1,48,55,2189241164
16,16,Jits_ISO_5,4,5,80,127,2189255136
16,16,Jits_ISO_5,0,5,63,98,2189704456
16,16,Jits_ISO_5,1,1,48,72,2189736120
16,16,Jits_ISO_5,2,5,56,103,2189744388
16,16,Jits_ISO_5,3,5,80,127,2189754684
16,16,Jits_ISO_5,0,5,80,127,2190184712
16,16,Jits_ISO_5,1,1,48,64,2190208948
16,16,Jits_ISO_5,2,5,63,98,2190254384
16,16,Jits_ISO_5,3,5,56,103,2190275016
16,16,Jits_ISO_5,0,5,56,103,2190675320
16,16,Jits_ISO_5,1,5,80,127,2190694956
16,16,Jits_ISO_5,2,5,63,98,2190734668
16,16,Jits_ISO_5,3,1,48,66,2190739352
16,16,Jits_ISO_5,0,1,48,60,2191179292
16,16,Jits_ISO_5,1,5,63,98,2191185392
16,16,Jits_ISO_5,2,5,80,127,2191204884
16,16,Jits_ISO_5,3,5,56,103,2191244596
16,16,Jits_ISO_5,0,1,48,65,2191681652
16,16,Jits_ISO_5,1,5,63,98,2191685352
16,16,Jits_ISO_5,2,5,56,103,2191704392
16,16,Jits_ISO_5,3,5,80,127,2191714664
16,16,Jits_ISO_5,0,1,48,54,2192161152
16,16,Jits_ISO_5,1,5,80,127,2192184564
16,16,Jits_ISO_5,2,5,56,103,2192205096
16,16,Jits_ISO_5,3,5,63,98,2192234844
16,16,Jits_ISO_5,0,1,48,43,2192653556
16,16,Jits_ISO_5,1,5,56,103,2192755452
16,16,Jits_ISO_5,2,5,80,127,2192758364
16,16,Jits_ISO_5,3,5,63,98,2192774412
16,16,Jits_ISO_5,0,5,63,98,2193175184
16,16,Jits_ISO_5,1,5,56,103,2193204636
16,16,Jits_ISO_5,2,1,48,59,2193205604
16,16,Jits_ISO_5,3,5,80,127,2193265164
16,16,Jits_ISO_5,0,1,48,49,2193712876
16,16,Jits_ISO_5,1,5,63,98,2193754480
16,16,Jits_ISO_5,2,5,56,103,2193764600
16,16,Jits_ISO_5,3,5,80,127,2193775168
16,16,Jits_ISO_5,0,5,56,103,2194205148
16,16,Jits_ISO_5,1,5,80,127,2194234600
16,16,Jits_ISO_5,2,1,48,74,2194235640
16,16,Jits_ISO_5,3,5,63,98,2194245236
16,16,Jits_ISO_5,0,1,48,48,2194707408
16,16,Jits_ISO_5,1,5,63,98,2194744748
16,16,Jits_ISO_5,2,5,56,103,2194755168
16,16,Jits_ISO_5,3,5,80,127,2194775476
16,16,Jits_ISO_5,0,5,56,103,2195174892
16,16,Jits_ISO_5,1,1,48,60,2195203864
16,16,Jits_ISO_5,2,5,63,98,2195235200
16,16,Jits_ISO_5,3,5,80,127,2195238340
16,16,Jits_ISO_5,0,1,48,42,2195672508
16,16,Jits_ISO_5,1,5,80,127,2195695228
16,16,Jits_ISO_5,2,5,56,103,2195705200
16,16,Jits_ISO_5,3,5,63,98,2195775008
16,16,Jits_ISO_5,0,1,48,62,2196149656
16,16,Jits_ISO_5,1,5,80,127,2196184324
16,16,Jits_ISO_5,2,5,56,103,2196255260
16,16,Jits_ISO_5,3,5,63,98,2196265232
16,16,Jits_ISO_5,0,1,48,49,2196668668
16,16,Jits_ISO_5,1,5,63,98,2196724964
16,16,Jits_ISO_5,2,5,56,103,2196735308
16,16,Jits_ISO_5,3,5,80,127,2196754796
16,16,Jits_ISO_5,0,5,80,127,2197174636
16,16,Jits_ISO_5,1,1,48,71,2197194120
16,16,Jits_ISO_5,2,5,63,98,2197234968
16,16,Jits_ISO_5,3,5,56,103,2197275132
16,16,Jits_ISO_5,0,1,48,37,2197679516
16,16,Jits_ISO_5,1,5,56,103,2197715384
16,16,Jits_ISO_5,2,5,63,98,2197724532
16,16,Jits_ISO_5,3,5,80,127,2197764396
16,16,Jits_ISO_5,0,5,56,103,2198175020
16,16,Jits_ISO_5,1,1,48,64,2198201608
16,16,Jits_ISO_5,2,5,80,127,2198204864
16,16,Jits_ISO_5,3,5,63,98,2198255136
16,16,Jits_ISO_5,0,1,48,48,2198659372
16,16,Jits_ISO_5,1,5,56,103,2198714868
16,16,Jits_ISO_5,2,5,63,98,2198754788
16,16,Jits_ISO_5,3,5,80,127,2198758224
16,16,Jits_ISO_5,0,1,48,63,2199119916
16,16,Jits_ISO_5,1,5,56,103,2199214480
16,16,Jits_ISO_5,2,5,63,98,2199224900
16,16,Jits_ISO_5,3,5,80,127,2199245208
16,16,Jits_ISO_5,0,5,56,103,2199675320
16,16,Jits_ISO_5,1,5,80,127,2199678384
16,16,Jits_ISO_5,2,1,48,49,2199689448
16,16,Jits_ISO_5,3,5,63,98,2199715320
16,16,Jits_ISO_5,0,1,48,55,2200196528
16,16,Jits_ISO_5,1,5,63,98,2200215056
16,16,Jits_ISO_5,2,5,56,103,2200244804
16,16,Jits_ISO_5,3,5,80,127,2200265212
16,16,Jits_ISO_5,0,5,80,127,2200685204
16,16,Jits_ISO_5,1,5,56,103,2200695176
16,16,Jits_ISO_5,2,5,63,98,2200705372
16,16,Jits_ISO_5,3,1,48,57,2200741292
16,16,Jits_ISO_5,0,5,56,103,2201184576
16,16,Jits_ISO_5,1,1,48,58,2201217732
16,16,Jits_ISO_5,2,5,80,127,2201224432
16,16,Jits_ISO_5,3,5,63,98,2201255300
16,16,Jits_ISO_5,0,5,63,98,2201694440
16,16,Jits_ISO_5,1,5,80,127,2201705008
16,16,Jits_ISO_5,2,5,56,103,2201715128
16,16,Jits_ISO_5,3,1,48,48,2201734880
16,16,Jits_ISO_5,0,5,56,103,2202174912
16,16,Jits_ISO_5,1,1,48,59,2202204184
16,16,Jits_ISO_5,2,5,63,98,2202244508
16,16,Jits_ISO_5,3,5,80,127,2202255076
16,16,Jits_ISO_5,0,5,80,127,2202674584
16,16,Jits_ISO_5,1,5,56,103,2202684928
16,16,Jits_ISO_5,2,1,48,35,2202732236
16,16,Jits_ISO_5,3,5,63,98,2202734968
16,16,Jits_ISO_5,0,5,80,127,2203184660
16,16,Jits_ISO_5,1,1,48,49,2203222700
16,16,Jits_ISO_5,2,5,56,103,2203244896
16,16,Jits_ISO_5,3,5,63,98,2203274720
16,16,Jits_ISO_5,0,5,56,103,2203685156
16,16,Jits_ISO_5,1,5,80,127,2203688296
16,16,Jits_ISO_5,2,5,63,98,2203725168
16,16,Jits_ISO_5,3,1,48,65,2203726132
16,16,Jits_ISO_5,4,1,48,19,2203823780
16,16,Jits_ISO_5,0,1,48,65,2204190188
16,16,Jits_ISO_5,1,5,56,103,2204214572
16,16,Jits_ISO_5,2,5,63,98,2204245292
16,16,Jits_ISO_5,3,5,80,127,2204254664
16,16,Jits_ISO_5,0,1,48,55,2204711272
16,16,Jits_ISO_5,1,5,63,98,2204724492
16,16,Jits_ISO_5,2,5,80,127,2204734988
16,16,Jits_ISO_5,3,5,56,103,2204745256
16,16,Jits_ISO_5,0,1,48,55,2205175384
16,16,Jits_ISO_5,1,5,80,127,2205176796
16,16,Jits_ISO_5,2,5,56,103,2205225352
16,16,Jits_ISO_5,3,5,63,98,2205228492
16,16,Jits_ISO_5,0,1,48,54,2205673432
16,16,Jits_ISO_5,1,5,56,103,2205704992
16,16,Jits_ISO_5,2,5,80,127,2205725004
16,16,Jits_ISO_5,3,5,63,98,2205735200
16,16,Jits_ISO_5,0,5,63,98,2206185032
16,16,Jits_ISO_5,1,1,48,51,2206205532
16,16,Jits_ISO_5,2,5,56,103,2206214700
16,16,Jits_ISO_5,3,5,80,127,2206234860
16,16,Jits_ISO_5,0,5,56,103,2206695028
16,16,Jits_ISO_5,1,5,80,127,2206705224
16,16,Jits_ISO_5,2,1,48,47,2206716512
16,16,Jits_ISO_5,3,5,63,98,2206774892
16,16,Jits_ISO_5,0,5,63,98,2207185336
16,16,Jits_ISO_5,1,1,48,52,2207217752
16,16,Jits_ISO_5,2,5,80,127,2207225268
16,16,Jits_ISO_5,3,5,56,103,2207265128
16,16,Jits_ISO_5,0,5,56,103,2207695260
16,16,Jits_ISO_5,1,5,63,98,2207704556
16,16,Jits_ISO_5,2,5,80,127,2207724940
16,16,Jits_ISO_5,3,1,48,49,2207732320
16,16,Jits_ISO_5,0,1,48,58,2208185908
16,16,Jits_ISO_5,1,5,63,98,2208234860
16,16,Jits_ISO_5,2,5,80,127,2208255468
16,16,Jits_ISO_5,3,5,56,103,2208275100
16,16,Jits_ISO_5,0,5,56,103,2208675092
16,16,Jits_ISO_5,1,1,48,55,2208721824
16,16,Jits_ISO_5,2,5,80,127,2208755128
16,16,Jits_ISO_5,3,5,63,98,2208765396
16,16,Jits_ISO_5,0,1,48,49,2209195412
16,16,Jits_ISO_5,1,5,80,127,2209215088
16,16,Jits_ISO_5,2,5,63,98,2209225208
16,16,Jits_ISO_5,3,5,56,103,2209254956
16,16,Jits_ISO_5,0,5,63,98,2209674576
16,16,Jits_ISO_5,1,1,48,56,2209705196
16,16,Jits_ISO_5,2,5,80,127,2209714432
16,16,Jits_ISO_5,3,5,56,103,2209775068
16,16,Jits_ISO_5,0,5,63,98,2210184492
16,16,Jits_ISO_5,1,1,48,48,2210211796
16,16,Jits_ISO_5,2,5,56,103,2210234860
16,16,Jits_ISO_5,3,5,80,127,2210264384
16,16,Jits_ISO_5,0,5,80,127,2210694416
16,16,Jits_ISO_5,1,1,48,52,2210701196
16,16,Jits_ISO_5,2,5,63,98,2210705052
16,16,Jits_ISO_5,3,5,56,103,2210775504
16,16,Jits_ISO_5,0,1,48,53,2211190004
16,16,Jits_ISO_5,1,5,80,127,2211265056
16,16,Jits_ISO_5,2,5,56,103,2211275248
16,16,Jits_ISO_5,3,5,63,98,2211278312
16,16,Jits_ISO_5,0,5,56,103,2211705204
16,16,Jits_ISO_5,1,5,80,127,2211724840
16,16,Jits_ISO_5,2,1,48,51,2211731100
16,16,Jits_ISO_5,3,5,63,98,2211734804
16,16,Jits_ISO_5,0,5,63,98,2212215144
16,16,Jits_ISO_5,1,1,48,47,2212228452
16,16,Jits_ISO_5,2,5,56,103,2212255076
16,16,Jits_ISO_5,3,5,80,127,2212274488
16,16,Jits_ISO_5,0,5,63,98,2212714956
16,16,Jits_ISO_5,1,1,48,49,2212735308
16,16,Jits_ISO_5,2,5,56,103,2212775180
16,16,Jits_ISO_5,3,5,80,127,2212778252
16,16,Jits_ISO_5,0,5,56,103,2213174676
16,16,Jits_ISO_5,1,5,80,127,2213194988
16,16,Jits_ISO_5,2,1,48,56,2213226724
16,16,Jits_ISO_5,3,5,63,98,2213234988
16,16,Jits_ISO_5,0,5,56,103,2213705208
16,16,Jits_ISO_5,1,1,48,49,2213715228
16,16,Jits_ISO_5,2,5,63,98,2213724616
16,16,Jits_ISO_5,3,5,80,127,2213734960
16,16,Jits_ISO_5,0,5,80,127,2214175064
16,16,Jits_ISO_5,1,1,48,52,2214200200
16,16,Jits_ISO_5,2,5,56,103,2214204956
16,16,Jits_ISO_5,3,5,63,98,2214244816
16,16,Jits_ISO_5,0,5,80,127,2214685000
16,16,Jits_ISO_5,1,1,48,48,2214701820
16,16,Jits_ISO_5,2,5,56,103,2214704628
16,16,Jits_ISO_5,3,5,63,98,2214764940
16,16,Jits_ISO_5,0,5,56,103,2215194936
16,16,Jits_ISO_5,1,1,48,50,2215209068
16,16,Jits_ISO_5,2,5,80,127,2215214416
16,16,Jits_ISO_5,3,5,63,98,2215274952
16,16,Jits_ISO_5,0,1,48,46,2215663340
16,16,Jits_ISO_5,1,5,80,127,2215675124
16,16,Jits_ISO_5,2,5,56,103,2215684496
16,16,Jits_ISO_5,3,5,63,98,2215725628
16,16,Jits_ISO_5,0,1,48,45,2216141552
16,16,Jits_ISO_5,1,5,63,98,2216174928
16,16,Jits_ISO_5,2,5,56,103,2216214940
16,16,Jits_ISO_5,3,5,80,127,2216218080
16,16,Jits_ISO_5,0,5,63,98,2216695108
16,16,Jits_ISO_5,1,1,48,53,2216705200
16,16,Jits_ISO_5,2,5,80,127,2216734964
16,16,Jits_ISO_5,3,5,56,103,2216764712
16,16,Jits_ISO_5,0,5,56,103,2217184580
16,16,Jits_ISO_5,1,1,48,58,2217188068
16,16,Jits_ISO_5,2,5,63,98,2217194768
16,16,Jits_ISO_5,3,5,80,127,2217224740
16,16,Jits_ISO_5,0,1,48,57,2217658812
16,16,Jits_ISO_5,1,5,80,127,2217675176
16,16,Jits_ISO_5,2,5,63,98,2217744708
16,16,Jits_ISO_5,3,5,56,103,2217755184
16,16,Jits_ISO_5,0,5,63,98,2218174844
16,16,Jits_ISO_5,1,1,48,57,2218179156
16,16,Jits_ISO_5,2,5,56,103,2218244368
16,16,Jits_ISO_5,3,5,80,127,2218254860
16,16,Jits_ISO_5,0,5,63,98,2218674628
16,16,Jits_ISO_5,1,5,56,103,2218695108
16,16,Jits_ISO_5,2,1,48,57,2218697700
16,16,Jits_ISO_5,3,5,80,127,2218735040
16,16,Jits_ISO_5,0,5,56,103,2219184620
16,16,Jits_ISO_5,1,1,48,40,2219189908
16,16,Jits_ISO_5,2,5,63,98,2219194688
16,16,Jits_ISO_5,3,5,80,127,2219274628
16,16,Jits_ISO_5,0,5,63,98,2219674932
16,16,Jits_ISO_5,1,1,48,66,2219695956
16,16,Jits_ISO_5,2,5,56,103,2219704696
16,16,Jits_ISO_5,3,5,80,127,2219744708
16,16,Jits_ISO_5,0,1,48,44,2220160684
16,16,Jits_ISO_5,1,5,56,103,2220174880
16,16,Jits_ISO_5,2,5,63,98,2220214892
16,16,Jits_ISO_5,3,5,80,127,2220254776
16,16,Jits_ISO_5,0,1,48,58,2220627308
16,16,Jits_ISO_5,1,5,80,127,2220674684
16,16,Jits_ISO_5,2,5,56,103,2220755236
16,16,Jits_ISO_5,3,5,63,98,2220764460
16,16,Jits_ISO_5,0,1,48,51,2221172812
16,16,Jits_ISO_5,1,5,56,103,2221215172
16,16,Jits_ISO_5,2,5,63,98,2221218092
16,16,Jits_ISO_5,3,5,80,127,2221225296
16,16,Jits_ISO_5,0,1,48,57,2221690292
16,16,Jits_ISO_5,1,5,56,103,2221735428
16,16,Jits_ISO_5,2,5,63,98,2221754716
16,16,Jits_ISO_5,3,5,80,127,2221764912
16,16,Jits_ISO_5,0,5,63,98,2222194940
16,16,Jits_ISO_5,1,5,80,127,2222205508
16,16,Jits_ISO_5,2,1,48,36,2222210124
16,16,Jits_ISO_5,3,5,56,103,2222224840
16,16,Jits_ISO_5,0,1,48,51,2222685576
16,16,Jits_ISO_5,1,5,63,98,2222694816
16,16,Jits_ISO_5,2,5,56,103,2222774756
16,16,Jits_ISO_5,3,5,80,127,2222777696
16,16,Jits_ISO_5,0,1,48,56,2223187324
16,16,Jits_ISO_5,1,5,63,98,2223194620
16,16,Jits_ISO_5,2,5,56,103,2223214928
16,16,Jits_ISO_5,3,5,80,127,2223244752
16,16,Jits_ISO_5,0,1,48,69,2223644880
16,16,Jits_ISO_5,1,5,56,103,2223695172
16,16,Jits_ISO_5,2,5,63,98,2223714660
16,16,Jits_ISO_5,3,5,80,127,2223724856
16,16,Jits_ISO_5,0,1,48,63,2224123484
16,16,Jits_ISO_5,1,5,56,103,2224224856
16,16,Jits_ISO_5,2,5,63,98,2224255280
16,16,Jits_ISO_5,3,5,80,127,2224258792
16,16,Jits_ISO_5,0,5,56,103,2224675160
16,16,Jits_ISO_5,1,1,48,57,2224701500
16,16,Jits_ISO_5,2,5,63,98,2224715092
16,16,Jits_ISO_5,3,5,80,127,2224774580
16,16,Jits_ISO_5,0,5,56,103,2225195364
16,16,Jits_ISO_5,1,5,63,98,2225204584
16,16,Jits_ISO_5,2,1,48,53,2225231740
16,16,Jits_ISO_5,3,5,80,127,2225264964
16,16,Jits_ISO_5,0,1,48,46,2225678216
16,16,Jits_ISO_5,1,5,56,103,2225694956
16,16,Jits_ISO_5,2,5,80,127,2225714592
16,16,Jits_ISO_5,3,5,63,98,2225745236
16,16,Jits_ISO_5,0,1,48,54,2226184328
16,16,Jits_ISO_5,1,5,80,127,2226194836
16,16,Jits_ISO_5,2,5,56,103,2226205032
16,16,Jits_ISO_5,3,5,63,98,2226224740
16,16,Jits_ISO_5,0,5,63,98,2226685356
16,16,Jits_ISO_5,1,1,48,65,2226688104
16,16,Jits_ISO_5,2,5,80,127,2226765144
16,16,Jits_ISO_5,3,5,56,103,2226775488
16,16,Jits_ISO_5,0,1,48,53,2227202380
16,16,Jits_ISO_5,1,5,80,127,2227245624
16,16,Jits_ISO_5,2,5,56,103,2227264812
16,16,Jits_ISO_5,3,5,63,98,2227267952
16,16,Jits_ISO_5,0,5,63,98,2227714344
16,16,Jits_ISO_5,1,5,80,127,2227717632
16,16,Jits_ISO_5,2,1,48,49,2227726528
16,16,Jits_ISO_5,3,5,56,103,2227774724
16,16,Jits_ISO_5,0,5,56,103,2228194668
16,16,Jits_ISO_5,1,5,80,127,2228205012
16,16,Jits_ISO_5,2,1,48,54,2228230228
16,16,Jits_ISO_5,3,5,63,98,2228244792
16,16,Jits_ISO_5,0,1,48,61,2228660488
16,16,Jits_ISO_5,1,5,56,103,2228674856
16,16,Jits_ISO_5,2,5,63,98,2228735316
16,16,Jits_ISO_5,3,5,80,127,2228744764
16,16,Jits_ISO_5,4,1,48,36,2228906452
16,16,Jits_ISO_5,0,1,48,51,2229142096
16,16,Jits_ISO_5,1,5,63,98,2229184864
16,16,Jits_ISO_5,2,5,80,127,2229224800
16,16,Jits_ISO_5,3,5,56,103,2229264868
16,16,Jits_ISO_5,0,1,48,54,2229676304
16,16,Jits_ISO_5,1,5,56,103,2229684720
16,16,Jits_ISO_5,2,5,63,98,2229764536
16,16,Jits_ISO_5,3,5,80,127,2229767604
16,16,Jits_ISO_5,4,1,48,46,2229919700
16,16,Jits_ISO_5,0,9999,9999,9999,2170462300
16,16,Jits_ISO_5,1,9999,9999,9999,2170963064
16,16,Jits_ISO_5,2,9999,9999,9999,2171462712
16,16,Jits_ISO_5,3,9999,9999,9999,2171962440
16,16,Jits_ISO_5,4,9999,9999,9999,2172462176
16,16,Jits_ISO_5,5,9999,9999,9999,2172962888
16,16,Jits_ISO_5,6,9999,9999,9999,2173462620
16,16,Jits_ISO_5,7,9999,9999,9999,2173962296
16,16,Jits_ISO_5,8,9999,9999,9999,2174463088
16,16,Jits_ISO_5,9,9999,9999,9999,2174962760
16,16,Jits_ISO_5,10,9999,9999,9999,2175462492
16,16,Jits_ISO_5,11,9999,9999,9999,2175962228
16,16,Jits_ISO_5,12,9999,9999,9999,2176462928
16,16,Jits_ISO_5,13,9999,9999,9999,2176962680
16,16,Jits_ISO_5,14,9999,9999,9999,2177462376
16,16,Jits_ISO_5,15,9999,9999,9999,2177963132
16,16,Jits_ISO_5,16,9999,9999,9999,2178473052
16,16,Jits_ISO_5,17,9999,9999,9999,2178972784
16,16,Jits_ISO_5,18,9999,9999,9999,2179472440
16,16,Jits_ISO_5,19,9999,9999,9999,2179972184
16,16,Jits_ISO_5,20,9999,9999,9999,2180472908
16,16,Jits_ISO_5,21,9999,9999,9999,2180972640
16,16,Jits_ISO_5,22,9999,9999,9999,2181472372
16,16,Jits_ISO_5,23,9999,9999,9999,2181973092
16,16,Jits_ISO_5,24,9999,9999,9999,2182472792
16,16,Jits_ISO_5,25,9999,9999,9999,2182972504
16,16,Jits_ISO_5,26,9999,9999,9999,2183472192
16,16,Jits_ISO_5,27,9999,9999,9999,2183972932
16,16,Jits_ISO_5,28,9999,9999,9999,2184472660
16,16,Jits_ISO_5,29,9999,9999,9999,2184972408
16,16,Jits_ISO_5,30,9999,9999,9999,2185472080
16,16,Jits_ISO_5,31,9999,9999,9999,2185972808
16,16,Jits_ISO_5,32,9999,9999,9999,2186472552
16,16,Jits_ISO_5,33,9999,9999,9999,2186972224
16,16,Jits_ISO_5,34,9999,9999,9999,2187473000
16,16,Jits_ISO_5,35,9999,9999,9999,2187972660
16,16,Jits_ISO_5,36,9999,9999,9999,2188472436
16,16,Jits_ISO_5,37,9999,9999,9999,2188972096
16,16,Jits_ISO_5,38,9999,9999,9999,2189472844
16,16,Jits_ISO_5,39,9999,9999,9999,2189972540
16,16,Jits_ISO_5,40,9999,9999,9999,2190472276
16,16,Jits_ISO_5,41,9999,9999,9999,2190972992
16,16,Jits_ISO_5,42,9999,9999,9999,2191472740
16,16,Jits_ISO_5,43,9999,9999,9999,2191972476
16,16,Jits_ISO_5,44,9999,9999,9999,2192472132
16,16,Jits_ISO_5,45,9999,9999,9999,2192972908
16,16,Jits_ISO_5,46,9999,9999,9999,2193472564
16,16,Jits_ISO_5,47,9999,9999,9999,2193972304
16,16,Jits_ISO_5,48,9999,9999,9999,2194473012
16,16,Jits_ISO_5,49,9999,9999,9999,2194972764
16,16,Jits_ISO_5,50,9999,9999,9999,2195472488
16,16,Jits_ISO_5,51,9999,9999,9999,2195972160
16,16,Jits_ISO_5,52,9999,9999,9999,2196472944
16,16,Jits_ISO_5,53,9999,9999,9999,2196972608
16,16,Jits_ISO_5,54,9999,9999,9999,2197472340
16,16,Jits_ISO_5,55,9999,9999,9999,2197973064
16,16,Jits_ISO_5,56,9999,9999,9999,2198472796
16,16,Jits_ISO_5,57,9999,9999,9999,2198972540
16,16,Jits_ISO_5,58,9999,9999,9999,2199472224
16,16,Jits_ISO_5,59,9999,9999,9999,2199972984
16,16,Jits_ISO_5,60,9999,9999,9999,2200472660
16,16,Jits_ISO_5,61,9999,9999,9999,2200972392
16,16,Jits_ISO_5,62,9999,9999,9999,2201472064
16,16,Jits_ISO_5,63,9999,9999,9999,2201972856
16,16,Jits_ISO_5,64,9999,9999,9999,2202472516
16,16,Jits_ISO_5,65,9999,9999,9999,2202972256
16,16,Jits_ISO_5,66,9999,9999,9999,2203472976
16,16,Jits_ISO_5,67,9999,9999,9999,2203972688
16,16,Jits_ISO_5,68,9999,9999,9999,2204472400
16,16,Jits_ISO_5,69,9999,9999,9999,2204972136
16,16,Jits_ISO_5,70,9999,9999,9999,2205472828
16,16,Jits_ISO_5,71,9999,9999,9999,2205972564
16,16,Jits_ISO_5,72,9999,9999,9999,2206472296
16,16,Jits_ISO_5,73,9999,9999,9999,2206973004
16,16,Jits_ISO_5,74,9999,9999,9999,2207472752
16,16,Jits_ISO_5,75,9999,9999,9999,2207972408
16,16,Jits_ISO_5,76,9999,9999,9999,2208472164
16,16,Jits_ISO_5,77,9999,9999,9999,2208972872
16,16,Jits_ISO_5,78,9999,9999,9999,2209472620
16,16,Jits_ISO_5,79,9999,9999,9999,2209972328
16,16,Jits_ISO_5,80,9999,9999,9999,2210473028
16,16,Jits_ISO_5,81,9999,9999,9999,2210972764
16,16,Jits_ISO_5,82,9999,9999,9999,2211472432
16,16,Jits_ISO_5,83,9999,9999,9999,2211972168
16,16,Jits_ISO_5,84,9999,9999,9999,2212472892
16,16,Jits_ISO_5,85,9999,9999,9999,2212972620
16,16,Jits_ISO_5,86,9999,9999,9999,2213472352
16,16,Jits_ISO_5,87,9999,9999,9999,2213973072
16,16,Jits_ISO_5,88,9999,9999,9999,2214472816
16,16,Jits_ISO_5,89,9999,9999,9999,2214972488
16,16,Jits_ISO_5,90,9999,9999,9999,2215472236
16,16,Jits_ISO_5,91,9999,9999,9999,2215972952
16,16,Jits_ISO_5,92,9999,9999,9999,2216472676
16,16,Jits_ISO_5,93,9999,9999,9999,2216972408
16,16,Jits_ISO_5,94,9999,9999,9999,2217472064
16,16,Jits_ISO_5,95,9999,9999,9999,2217972788
16,16,Jits_ISO_5,96,9999,9999,9999,2218472520
16,16,Jits_ISO_5,97,9999,9999,9999,2218972252
16,16,Jits_ISO_5,98,9999,9999,9999,2219472960
16,16,Jits_ISO_5,99,9999,9999,9999,2219972704
16,16,Jits_ISO_5,100,9999,9999,9999,2220472440
16,16,Jits_ISO_5,101,9999,9999,9999,2220972148
16,16,Jits_ISO_5,102,9999,9999,9999,2221472844
16,16,Jits_ISO_5,103,9999,9999,9999,2221972584
16,16,Jits_ISO_5,104,9999,9999,9999,2222472316
16,16,Jits_ISO_5,105,9999,9999,9999,2222973016
16,16,Jits_ISO_5,106,9999,9999,9999,2223472748
16,16,Jits_ISO_5,107,9999,9999,9999,2223972404
16,16,Jits_ISO_5,108,9999,9999,9999,2224472132
16,16,Jits_ISO_5,109,9999,9999,9999,2224972916
16,16,Jits_ISO_5,110,9999,9999,9999,2225472588
16,16,Jits_ISO_5,111,9999,9999,9999,2225972336
16,16,Jits_ISO_5,112,9999,9999,9999,2226473040
16,16,Jits_ISO_5,113,9999,9999,9999,2226972776
16,16,Jits_ISO_5,114,9999,9999,9999,2227472432
16,16,Jits_ISO_5,115,9999,9999,9999,2227972160
16,16,Jits_ISO_5,116,9999,9999,9999,2228472940
16,16,Jits_ISO_5,117,9999,9999,9999,2228972608
16,16,Jits_ISO_5,118,9999,9999,9999,2229472360
16,16,Jits_ISO_5,119,9999,9999,9999,2229973052
17,7,Jits_ISO_8,0,5,56,103,2308312476
17,7,Jits_ISO_8,1,5,63,98,2308315500
17,7,Jits_ISO_8,2,5,80,127,2308318548
17,7,Jits_ISO_8,0,5,56,103,2309112252
17,7,Jits_ISO_8,1,5,63,98,2309115272
17,7,Jits_ISO_8,2,5,80,127,2309118620
17,7,Jits_ISO_8,0,5,80,127,2309851512
17,7,Jits_ISO_8,1,1,48,52,2309907740
17,7,Jits_ISO_8,2,5,63,98,2309941564
17,7,Jits_ISO_8,3,5,56,103,2309951760
17,7,Jits_ISO_8,0,5,56,103,2310671840
17,7,Jits_ISO_8,1,5,63,98,2310682256
17,7,Jits_ISO_8,2,1,48,47,2310731604
17,7,Jits_ISO_8,3,5,80,127,2310772232
17,7,Jits_ISO_8,0,5,63,98,2311441668
17,7,Jits_ISO_8,1,5,80,127,2311471344
17,7,Jits_ISO_8,2,5,56,103,2311502212
17,7,Jits_ISO_8,3,1,48,47,2311541972
17,7,Jits_ISO_8,0,5,56,103,2312241520
17,7,Jits_ISO_8,1,1,48,39,2312268524
17,7,Jits_ISO_8,2,5,80,127,2312341988
17,7,Jits_ISO_8,3,5,63,98,2312392272
17,7,Jits_ISO_8,0,5,56,103,2313042216
17,7,Jits_ISO_8,1,5,80,127,2313091372
17,7,Jits_ISO_8,2,1,48,51,2313113592
17,7,Jits_ISO_8,3,5,63,98,2313132428
17,7,Jits_ISO_8,0,5,80,127,2313871608
17,7,Jits_ISO_8,1,1,48,48,2313890684
17,7,Jits_ISO_8,2,5,63,98,2313901276
17,7,Jits_ISO_8,3,5,56,103,2313972328
17,7,Jits_ISO_8,0,5,63,98,2314702076
17,7,Jits_ISO_8,1,5,56,103,2314731900
17,7,Jits_ISO_8,2,1,48,42,2314743708
17,7,Jits_ISO_8,3,5,80,127,2314792284
17,7,Jits_ISO_8,0,5,56,103,2315441448
17,7,Jits_ISO_8,1,5,80,127,2315444540
17,7,Jits_ISO_8,2,1,48,57,2315514708
17,7,Jits_ISO_8,3,5,63,98,2315562312
17,7,Jits_ISO_8,0,1,48,53,2316238896
17,7,Jits_ISO_8,1,5,56,103,2316322096
17,7,Jits_ISO_8,2,5,80,127,2316362096
17,7,Jits_ISO_8,3,5,63,98,2316372440
17,7,Jits_ISO_8,0,5,56,103,2317082184
17,7,Jits_ISO_8,1,1,48,49,2317097508
17,7,Jits_ISO_8,2,5,80,127,2317101364
17,7,Jits_ISO_8,3,5,63,98,2317182280
17,7,Jits_ISO_8,0,5,80,127,2317871420
17,7,Jits_ISO_8,1,1,48,51,2317894540
17,7,Jits_ISO_8,2,5,56,103,2317971816
17,7,Jits_ISO_8,3,5,63,98,2317982456
17,7,Jits_ISO_8,0,5,63,98,2318641408
17,7,Jits_ISO_8,1,1,48,48,2318698384
17,7,Jits_ISO_8,2,5,80,127,2318702092
17,7,Jits_ISO_8,3,5,56,103,2318712140
17,7,Jits_ISO_8,0,5,56,103,2319442312
17,7,Jits_ISO_8,1,1,48,60,2319453824
17,7,Jits_ISO_8,2,5,63,98,2319511988
17,7,Jits_ISO_8,3,5,80,127,2319515200
17,7,Jits_ISO_8,0,1,48,57,2320212544
17,7,Jits_ISO_8,1,5,63,98,2320271612
17,7,Jits_ISO_8,2,5,56,103,2320322048
17,7,Jits_ISO_8,3,5,80,127,2320325112
17,7,Jits_ISO_8,0,1,48,55,2320994932
17,7,Jits_ISO_8,1,5,56,103,2321031524
17,7,Jits_ISO_8,2,5,80,127,2321034812
17,7,Jits_ISO_8,3,5,63,98,2321121592
17,7,Jits_ISO_8,0,1,48,57,2321740756
17,7,Jits_ISO_8,1,5,63,98,2321872284
17,7,Jits_ISO_8,2,5,56,103,2321962420
17,7,Jits_ISO_8,3,5,80,127,2321992244
17,7,Jits_ISO_8,0,1,48,50,2322622544
17,7,Jits_ISO_8,1,5,56,103,2322661752
17,7,Jits_ISO_8,2,5,63,98,2322762064
17,7,Jits_ISO_8,3,5,80,127,2322791736
17,7,Jits_ISO_8,0,5,63,98,2323482148
17,7,Jits_ISO_8,1,5,56,103,2323492344
17,7,Jits_ISO_8,2,1,48,64,2323493984
17,7,Jits_ISO_8,3,5,80,127,2323582324
17,7,Jits_ISO_8,0,1,48,58,2324276876
17,7,Jits_ISO_8,1,5,63,98,2324302232
17,7,Jits_ISO_8,2,5,56,103,2324382164
17,7,Jits_ISO_8,3,5,80,127,2324385004
17,7,Jits_ISO_8,0,5,80,127,2325062084
17,7,Jits_ISO_8,1,5,63,98,2325081352
17,7,Jits_ISO_8,2,1,48,50,2325130772
17,7,Jits_ISO_8,3,5,56,103,2325141956
17,7,Jits_ISO_8,0,1,48,57,2325845584
17,7,Jits_ISO_8,1,5,56,103,2325901588
17,7,Jits_ISO_8,2,5,63,98,2325922192
17,7,Jits_ISO_8,3,5,80,127,2325925480
17,7,Jits_ISO_8,0,1,48,44,2326588188
17,7,Jits_ISO_8,1,5,63,98,2326641948
17,7,Jits_ISO_8,2,5,80,127,2326721980
17,7,Jits_ISO_8,3,5,56,103,2326732100
17,7,Jits_ISO_8,0,1,48,60,2327426412
17,7,Jits_ISO_8,1,5,63,98,2327462180
17,7,Jits_ISO_8,2,5,56,103,2327481916
17,7,Jits_ISO_8,3,5,80,127,2327531952
17,7,Jits_ISO_8,0,5,80,127,2328261992
17,7,Jits_ISO_8,1,1,48,50,2328267652
17,7,Jits_ISO_8,2,5,63,98,2328302224
17,7,Jits_ISO_8,3,5,56,103,2328322460
17,7,Jits_ISO_8,0,1,48,48,2329099056
17,7,Jits_ISO_8,1,5,56,103,2329101792
17,7,Jits_ISO_8,2,5,63,98,2329112212
17,7,Jits_ISO_8,3,5,80,127,2329132376
17,7,Jits_ISO_8,0,5,56,103,2329831904
17,7,Jits_ISO_8,1,1,48,51,2329919372
17,7,Jits_ISO_8,2,5,63,98,2329922112
17,7,Jits_ISO_8,3,5,80,127,2329982204
17,7,Jits_ISO_8,0,1,48,48,2330638556
17,7,Jits_ISO_8,1,5,80,127,2330662192
17,7,Jits_ISO_8,2,5,56,103,2330671492
17,7,Jits_ISO_8,3,5,63,98,2330742060
17,7,Jits_ISO_8,0,1,48,54,2331391596
17,7,Jits_ISO_8,1,5,63,98,2331491636
17,7,Jits_ISO_8,2,5,80,127,2331581944
17,7,Jits_ISO_8,3,5,56,103,2331592068
17,7,Jits_ISO_8,0,5,63,98,2332232036
17,7,Jits_ISO_8,1,5,80,127,2332282092
17,7,Jits_ISO_8,2,1,48,50,2332334360
17,7,Jits_ISO_8,3,5,56,103,2332341600
17,7,Jits_ISO_8,0,1,48,48,2333056504
17,7,Jits_ISO_8,1,5,56,103,2333061480
17,7,Jits_ISO_8,2,5,80,127,2333111860
17,7,Jits_ISO_8,3,5,63,98,2333132096
17,7,Jits_ISO_8,0,5,56,103,2333831452
17,7,Jits_ISO_8,1,1,48,54,2333847824
17,7,Jits_ISO_8,2,5,80,127,2333892012
17,7,Jits_ISO_8,3,5,63,98,2333961676
17,7,Jits_ISO_8,0,1,48,42,2334623196
17,7,Jits_ISO_8,1,5,56,103,2334632364
17,7,Jits_ISO_8,2,5,80,127,2334661988
17,7,Jits_ISO_8,3,5,63,98,2334691888
17,7,Jits_ISO_8,0,1,48,45,2335381772
17,7,Jits_ISO_8,1,5,56,103,2335471876
17,7,Jits_ISO_8,2,5,80,127,2335491424
17,7,Jits_ISO_8,3,5,63,98,2335552036
17,7,Jits_ISO_8,0,1,48,43,2336222784
17,7,Jits_ISO_8,1,5,80,127,2336351740
17,7,Jits_ISO_8,2,5,56,103,2336361936
17,7,Jits_ISO_8,3,5,63,98,2336372056
17,7,Jits_ISO_8,0,5,56,103,2337112368
17,7,Jits_ISO_8,1,1,48,49,2337119300
17,7,Jits_ISO_8,2,5,80,127,2337152228
17,7,Jits_ISO_8,3,5,63,98,2337182052
17,7,Jits_ISO_8,0,5,56,103,2337881456
17,7,Jits_ISO_8,1,5,63,98,2337912032
17,7,Jits_ISO_8,2,1,48,54,2337920400
17,7,Jits_ISO_8,3,5,80,127,2337952112
17,7,Jits_ISO_8,0,5,80,127,2338632032
17,7,Jits_ISO_8,1,1,48,47,2338657396
17,7,Jits_ISO_8,2,5,63,98,2338682228
17,7,Jits_ISO_8,3,5,56,103,2338701864
17,7,Jits_ISO_8,0,1,48,38,2339391328
17,7,Jits_ISO_8,1,5,56,103,2339461488
17,7,Jits_ISO_8,2,5,80,127,2339532004
17,7,Jits_ISO_8,3,5,63,98,2339591572
17,7,Jits_ISO_8,0,5,80,127,2340262256
17,7,Jits_ISO_8,1,1,48,47,2340268512
17,7,Jits_ISO_8,2,5,63,98,2340352260
17,7,Jits_ISO_8,3,5,56,103,2340371956
17,7,Jits_ISO_8,0,5,63,98,2341081488
17,7,Jits_ISO_8,1,5,56,103,2341101876
17,7,Jits_ISO_8,2,1,48,55,2341110992
17,7,Jits_ISO_8,3,5,80,127,2341141880
17,7,Jits_ISO_8,0,1,48,49,2341795792
17,7,Jits_ISO_8,1,5,80,127,2341842232
17,7,Jits_ISO_8,2,5,63,98,2341861792
17,7,Jits_ISO_8,3,5,56,103,2341941796
17,7,Jits_ISO_8,0,1,48,40,2342604900
17,7,Jits_ISO_8,1,5,63,98,2342631900
17,7,Jits_ISO_8,2,5,56,103,2342742324
17,7,Jits_ISO_8,3,5,80,127,2342745312
17,7,Jits_ISO_8,0,1,48,39,2343425200
17,7,Jits_ISO_8,1,5,63,98,2343452124
17,7,Jits_ISO_8,2,5,56,103,2343462320
17,7,Jits_ISO_8,3,5,80,127,2343465312
17,7,Jits_ISO_8,0,1,48,44,2344169436
17,7,Jits_ISO_8,1,5,56,103,2344232264
17,7,Jits_ISO_8,2,5,80,127,2344352128
17,7,Jits_ISO_8,3,5,63,98,2344392016
17,7,Jits_ISO_8,0,5,56,103,2345051392
17,7,Jits_ISO_8,1,1,48,50,2345066188
17,7,Jits_ISO_8,2,5,80,127,2345132528
17,7,Jits_ISO_8,3,5,63,98,2345151816
17,7,Jits_ISO_8,0,5,56,103,2345852236
17,7,Jits_ISO_8,1,1,48,47,2345882328
17,7,Jits_ISO_8,2,5,63,98,2345961940
17,7,Jits_ISO_8,3,5,80,127,2345965156
17,7,Jits_ISO_8,0,1,48,44,2346642108
17,7,Jits_ISO_8,1,5,56,103,2346681864
17,7,Jits_ISO_8,2,5,80,127,2346712292
17,7,Jits_ISO_8,3,5,63,98,2346731852
17,7,Jits_ISO_8,0,1,48,59,2347444460
17,7,Jits_ISO_8,1,5,63,98,2347462016
17,7,Jits_ISO_8,2,5,56,103,2347472212
17,7,Jits_ISO_8,3,5,80,127,2347481512
17,7,Jits_ISO_8,0,1,48,50,2348232252
17,7,Jits_ISO_8,1,5,80,127,2348251460
17,7,Jits_ISO_8,2,5,56,103,2348301664
17,7,Jits_ISO_8,3,5,63,98,2348341808
17,7,Jits_ISO_8,0,1,48,54,2349022672
17,7,Jits_ISO_8,1,5,80,127,2349071620
17,7,Jits_ISO_8,2,5,63,98,2349092304
17,7,Jits_ISO_8,3,5,56,103,2349142344
17,7,Jits_ISO_8,0,1,48,54,2349851752
17,7,Jits_ISO_8,1,5,80,127,2349881668
17,7,Jits_ISO_8,2,5,56,103,2349912688
17,7,Jits_ISO_8,3,5,63,98,2349982056
17,7,Jits_ISO_8,0,1,48,53,2350669504
17,7,Jits_ISO_8,1,5,56,103,2350731732
17,7,Jits_ISO_8,2,5,80,127,2350741852
17,7,Jits_ISO_8,3,5,63,98,2350781876
17,7,Jits_ISO_8,0,5,56,103,2351442144
17,7,Jits_ISO_8,1,5,63,98,2351461852
17,7,Jits_ISO_8,2,1,48,51,2351507896
17,7,Jits_ISO_8,3,5,80,127,2351532424
17,7,Jits_ISO_8,0,1,48,48,2352194924
17,7,Jits_ISO_8,1,5,63,98,2352261488
17,7,Jits_ISO_8,2,5,80,127,2352322036
17,7,Jits_ISO_8,3,5,56,103,2352342496
17,7,Jits_ISO_8,0,1,48,53,2353011564
17,7,Jits_ISO_8,1,5,80,127,2353051904
17,7,Jits_ISO_8,2,5,56,103,2353081828
17,7,Jits_ISO_8,3,5,63,98,2353112608
17,7,Jits_ISO_8,0,1,48,58,2353797776
17,7,Jits_ISO_8,1,5,56,103,2353851708
17,7,Jits_ISO_8,2,5,63,98,2353912308
17,7,Jits_ISO_8,3,5,80,127,2353971800
17,7,Jits_ISO_8,0,1,48,57,2354611240
17,7,Jits_ISO_8,1,5,80,127,2354671948
17,7,Jits_ISO_8,2,5,56,103,2354691584
17,7,Jits_ISO_8,3,5,63,98,2354762224
17,7,Jits_ISO_8,0,1,48,54,2355458064
17,7,Jits_ISO_8,1,5,80,127,2355471736
17,7,Jits_ISO_8,2,5,63,98,2355492196
17,7,Jits_ISO_8,3,5,56,103,2355521944
17,7,Jits_ISO_8,0,1,48,52,2356251632
17,7,Jits_ISO_8,1,5,80,127,2356262376
17,7,Jits_ISO_8,2,5,63,98,2356281640
17,7,Jits_ISO_8,3,5,56,103,2356342176
17,7,Jits_ISO_8,0,1,48,62,2357039956
17,7,Jits_ISO_8,1,5,80,127,2357061932
17,7,Jits_ISO_8,2,5,56,103,2357162544
17,7,Jits_ISO_8,3,5,63,98,2357192168
17,7,Jits_ISO_8,0,5,63,98,2357851764
17,7,Jits_ISO_8,1,5,80,127,2357901672
17,7,Jits_ISO_8,2,1,48,53,2357907928
17,7,Jits_ISO_8,3,5,56,103,2357922124
17,7,Jits_ISO_8,0,1,48,58,2358622524
17,7,Jits_ISO_8,1,5,80,127,2358692300
17,7,Jits_ISO_8,2,5,56,103,2358721836
17,7,Jits_ISO_8,3,5,63,98,2358724900
17,7,Jits_ISO_8,0,1,48,65,2359376880
17,7,Jits_ISO_8,1,5,63,98,2359521532
17,7,Jits_ISO_8,2,5,56,103,2359561544
17,7,Jits_ISO_8,3,5,80,127,2359582008
17,7,Jits_ISO_8,0,5,80,127,2360262076
17,7,Jits_ISO_8,1,1,48,56,2360274188
17,7,Jits_ISO_8,2,5,63,98,2360341792
17,7,Jits_ISO_8,3,5,56,103,2360381788
17,7,Jits_ISO_8,0,1,48,55,2361069868
17,7,Jits_ISO_8,1,5,63,98,2361082100
17,7,Jits_ISO_8,2,5,80,127,2361162032
17,7,Jits_ISO_8,3,5,56,103,2361181596
17,7,Jits_ISO_8,0,1,48,44,2361860140
17,7,Jits_ISO_8,1,5,56,103,2361922044
17,7,Jits_ISO_8,2,5,63,98,2361932612
17,7,Jits_ISO_8,3,5,80,127,2361972016
17,7,Jits_ISO_8,0,5,56,103,2362641664
17,7,Jits_ISO_8,1,5,80,127,2362644884
17,7,Jits_ISO_8,2,1,48,53,2362650040
17,7,Jits_ISO_8,3,5,63,98,2362782348
17,7,Jits_ISO_8,0,5,56,103,2363432536
17,7,Jits_ISO_8,1,1,48,65,2363446144
17,7,Jits_ISO_8,2,5,63,98,2363522520
17,7,Jits_ISO_8,3,5,80,127,2363591988
17,7,Jits_ISO_8,0,1,48,59,2364233204
17,7,Jits_ISO_8,1,5,63,98,2364311900
17,7,Jits_ISO_8,2,5,80,127,2364315336
17,7,Jits_ISO_8,3,5,56,103,2364372520
17,7,Jits_ISO_8,0,1,48,60,2365065276
17,7,Jits_ISO_8,1,5,80,127,2365151492
17,7,Jits_ISO_8,2,5,56,103,2365172012
17,7,Jits_ISO_8,3,5,63,98,2365182504
17,7,Jits_ISO_8,0,5,56,103,2365862256
17,7,Jits_ISO_8,1,5,63,98,2365871628
17,7,Jits_ISO_8,2,1,48,63,2365888700
17,7,Jits_ISO_8,3,5,80,127,2365942076
17,7,Jits_ISO_8,0,1,48,51,2366615784
17,7,Jits_ISO_8,1,5,80,127,2366661920
17,7,Jits_ISO_8,2,5,56,103,2366712272
17,7,Jits_ISO_8,3,5,63,98,2366762532
17,7,Jits_ISO_8,0,1,48,52,2367450592
17,7,Jits_ISO_8,1,5,56,103,2367541572
17,7,Jits_ISO_8,2,5,63,98,2367551828
17,7,Jits_ISO_8,3,5,80,127,2367591768
17,7,Jits_ISO_8,0,1,48,54,2368248200
17,7,Jits_ISO_8,1,5,56,103,2368281876
17,7,Jits_ISO_8,2,5,63,98,2368321816
17,7,Jits_ISO_8,3,5,80,127,2368372004
17,7,Jits_ISO_8,0,5,80,127,2369041736
17,7,Jits_ISO_8,1,1,48,55,2369085460
17,7,Jits_ISO_8,2,5,56,103,2369092080
17,7,Jits_ISO_8,3,5,63,98,2369112464
17,7,Jits_ISO_8,0,5,80,127,2369851644
17,7,Jits_ISO_8,1,1,48,52,2369883980
17,7,Jits_ISO_8,2,5,63,98,2369912252
17,7,Jits_ISO_8,3,5,56,103,2369992132
17,7,Jits_ISO_8,0,5,80,127,2370632036
17,7,Jits_ISO_8,1,5,56,103,2370672052
17,7,Jits_ISO_8,2,5,63,98,2370691540
17,7,Jits_ISO_8,3,1,48,58,2370727016
17,7,Jits_ISO_8,0,1,48,58,2371450380
17,7,Jits_ISO_8,1,5,56,103,2371481872
17,7,Jits_ISO_8,2,5,80,127,2371492288
17,7,Jits_ISO_8,3,5,63,98,2371532252
17,7,Jits_ISO_8,0,1,48,52,2372246932
17,7,Jits_ISO_8,1,5,56,103,2372352244
17,7,Jits_ISO_8,2,5,63,98,2372392480
17,7,Jits_ISO_8,3,5,80,127,2372395772
17,7,Jits_ISO_8,0,5,63,98,2373041616
17,7,Jits_ISO_8,1,5,80,127,2373081480
17,7,Jits_ISO_8,2,1,48,40,2373149316
17,7,Jits_ISO_8,3,5,56,103,2373152052
17,7,Jits_ISO_8,0,5,63,98,2373832256
17,7,Jits_ISO_8,1,5,56,103,2373911904
17,7,Jits_ISO_8,2,1,48,57,2373922144
17,7,Jits_ISO_8,3,5,80,127,2373972212
17,7,Jits_ISO_8,0,5,80,127,2374642008
17,7,Jits_ISO_8,1,1,48,61,2374657036
17,7,Jits_ISO_8,2,5,63,98,2374692276
17,7,Jits_ISO_8,3,5,56,103,2374721880
17,7,Jits_ISO_8,0,1,48,54,2375419428
17,7,Jits_ISO_8,1,5,56,103,2375431532
17,7,Jits_ISO_8,2,5,63,98,2375481660
17,7,Jits_ISO_8,3,5,80,127,2375492080
17,7,Jits_ISO_8,0,1,48,50,2376219356
17,7,Jits_ISO_8,1,5,56,103,2376241576
17,7,Jits_ISO_8,2,5,63,98,2376352076
17,7,Jits_ISO_8,3,5,80,127,2376371660
17,7,Jits_ISO_8,0,5,63,98,2377042264
17,7,Jits_ISO_8,1,1,48,56,2377055120
17,7,Jits_ISO_8,2,5,80,127,2377091564
17,7,Jits_ISO_8,3,5,56,103,2377181408
17,7,Jits_ISO_8,0,5,63,98,2377831708
17,7,Jits_ISO_8,1,1,48,49,2377856920
17,7,Jits_ISO_8,2,5,80,127,2377861380
17,7,Jits_ISO_8,3,5,56,103,2377951596
17,7,Jits_ISO_8,0,1,48,52,2378574732
17,7,Jits_ISO_8,1,5,63,98,2378631484
17,7,Jits_ISO_8,2,5,56,103,2378641828
17,7,Jits_ISO_8,3,5,80,127,2378742156
17,7,Jits_ISO_8,0,1,48,51,2379324012
17,7,Jits_ISO_8,1,5,63,98,2379531520
17,7,Jits_ISO_8,2,5,80,127,2379562464
17,7,Jits_ISO_8,3,5,56,103,2379592216
17,7,Jits_ISO_8,0,1,48,56,2380308284
17,7,Jits_ISO_8,1,5,80,127,2380351780
17,7,Jits_ISO_8,2,5,63,98,2380362052
17,7,Jits_ISO_8,3,5,56,103,2380391800
17,7,Jits_ISO_8,0,5,80,127,2381052228
17,7,Jits_ISO_8,1,5,63,98,2381071936
17,7,Jits_ISO_8,2,5,56,103,2381121844
17,7,Jits_ISO_8,3,1,48,55,2381148256
17,7,Jits_ISO_8,0,1,48,52,2381806056
17,7,Jits_ISO_8,1,5,63,98,2381881688
17,7,Jits_ISO_8,2,5,80,127,2381942288
17,7,Jits_ISO_8,3,5,56,103,2381961552
17,7,Jits_ISO_8,0,5,63,98,2382641400
17,7,Jits_ISO_8,1,1,48,56,2382688932
17,7,Jits_ISO_8,2,5,56,103,2382691596
17,7,Jits_ISO_8,3,5,80,127,2382701792
17,7,Jits_ISO_8,0,1,48,46,2383414992
17,7,Jits_ISO_8,1,5,56,103,2383472188
17,7,Jits_ISO_8,2,5,80,127,2383482384
17,7,Jits_ISO_8,3,5,63,98,2383581520
17,7,Jits_ISO_8,0,5,80,127,2384232120
17,7,Jits_ISO_8,1,1,48,46,2384237108
17,7,Jits_ISO_8,2,5,63,98,2384242160
17,7,Jits_ISO_8,3,5,56,103,2384391412
17,7,Jits_ISO_8,0,1,48,49,2385030984
17,7,Jits_ISO_8,1,5,63,98,2385041648
17,7,Jits_ISO_8,2,5,80,127,2385081616
17,7,Jits_ISO_8,3,5,56,103,2385161544
17,7,Jits_ISO_8,0,5,56,103,2385832444
17,7,Jits_ISO_8,1,1,48,44,2385899728
17,7,Jits_ISO_8,2,5,80,127,2385931668
17,7,Jits_ISO_8,3,5,63,98,2385952200
17,7,Jits_ISO_8,0,1,48,51,2386678304
17,7,Jits_ISO_8,1,5,80,127,2386691380
17,7,Jits_ISO_8,2,5,56,103,2386701948
17,7,Jits_ISO_8,3,5,63,98,2386791844
17,7,Jits_ISO_8,0,1,48,51,2387460940
17,7,Jits_ISO_8,1,5,56,103,2387492356
17,7,Jits_ISO_8,2,5,63,98,2387511548
17,7,Jits_ISO_8,3,5,80,127,2387591476
17,7,Jits_ISO_8,0,5,63,98,2388241804
17,7,Jits_ISO_8,1,1,48,52,2388271152
17,7,Jits_ISO_8,2,5,56,103,2388331932
17,7,Jits_ISO_8,3,5,80,127,2388334996
17,7,Jits_ISO_8,0,1,48,54,2389055176
17,7,Jits_ISO_8,1,5,56,103,2389072216
17,7,Jits_ISO_8,2,5,80,127,2389131488
17,7,Jits_ISO_8,3,5,63,98,2389141980
17,7,Jits_ISO_8,0,1,48,55,2389825144
17,7,Jits_ISO_8,1,5,80,127,2389922272
17,7,Jits_ISO_8,2,5,56,103,2389932380
17,7,Jits_ISO_8,3,5,63,98,2389935616
17,7,Jits_ISO_8,0,1,48,48,2390645976
17,7,Jits_ISO_8,1,5,56,103,2390682264
17,7,Jits_ISO_8,2,5,80,127,2390692092
17,7,Jits_ISO_8,3,5,63,98,2390711752
17,7,Jits_ISO_8,0,1,48,53,2391432800
17,7,Jits_ISO_8,1,5,63,98,2391452004
17,7,Jits_ISO_8,2,5,80,127,2391512348
17,7,Jits_ISO_8,3,5,56,103,2391561488
17,7,Jits_ISO_8,0,1,48,33,2392238568
17,7,Jits_ISO_8,1,5,63,98,2392331572
17,7,Jits_ISO_8,2,5,56,103,2392341916
17,7,Jits_ISO_8,3,5,80,127,2392392116
17,7,Jits_ISO_8,0,5,63,98,2393032104
17,7,Jits_ISO_8,1,5,80,127,2393051372
17,7,Jits_ISO_8,2,5,56,103,2393061788
17,7,Jits_ISO_8,3,1,48,50,2393113680
17,7,Jits_ISO_8,0,1,48,42,2393797068
17,7,Jits_ISO_8,1,5,63,98,2393831940
17,7,Jits_ISO_8,2,5,80,127,2393835304
17,7,Jits_ISO_8,3,5,56,103,2393871952
17,7,Jits_ISO_8,0,1,48,43,2394593920
17,7,Jits_ISO_8,1,5,63,98,2394702120
17,7,Jits_ISO_8,2,5,80,127,2394732096
17,7,Jits_ISO_8,3,5,56,103,2394742220
17,7,Jits_ISO_8,0,1,48,56,2395433192
17,7,Jits_ISO_8,1,5,56,103,2395451872
17,7,Jits_ISO_8,2,5,80,127,2395481552
17,7,Jits_ISO_8,3,5,63,98,2395512048
17,7,Jits_ISO_8,0,1,48,57,2396233200
17,7,Jits_ISO_8,1,5,63,98,2396351988
17,7,Jits_ISO_8,2,5,56,103,2396391780
17,7,Jits_ISO_8,3,5,80,127,2396394920
17,7,Jits_ISO_8,0,5,80,127,2397052268
17,7,Jits_ISO_8,1,1,48,51,2397111540
17,7,Jits_ISO_8,2,5,56,103,2397132236
17,7,Jits_ISO_8,3,5,63,98,2397182216
17,7,Jits_ISO_8,0,5,80,127,2397831544
17,7,Jits_ISO_8,1,5,56,103,2397852004
17,7,Jits_ISO_8,2,1,48,52,2397928108
17,7,Jits_ISO_8,3,5,63,98,2397942152
17,7,Jits_ISO_8,0,1,48,49,2398645264
17,7,Jits_ISO_8,1,5,80,127,2398672264
17,7,Jits_ISO_8,2,5,63,98,2398712204
17,7,Jits_ISO_8,3,5,56,103,2398752052
17,7,Jits_ISO_8,0,5,63,98,2399442384
17,7,Jits_ISO_8,1,1,48,40,2399452848
17,7,Jits_ISO_8,2,5,80,127,2399501944
17,7,Jits_ISO_8,3,5,56,103,2399532296
17,7,Jits_ISO_8,0,5,56,103,2400242012
17,7,Jits_ISO_8,1,1,48,54,2400256220
17,7,Jits_ISO_8,2,5,80,127,2400271832
17,7,Jits_ISO_8,3,5,63,98,2400361948
17,7,Jits_ISO_8,0,1,48,54,2401018612
17,7,Jits_ISO_8,1,5,56,103,2401052140
17,7,Jits_ISO_8,2,5,80,127,2401161668
17,7,Jits_ISO_8,3,5,63,98,2401192168
17,7,Jits_ISO_8,0,1,48,69,2401867628
17,7,Jits_ISO_8,1,5,56,103,2401902056
17,7,Jits_ISO_8,2,5,63,98,2401962360
17,7,Jits_ISO_8,3,5,80,127,2401992060
17,7,Jits_ISO_8,0,1,48,66,2402670828
17,7,Jits_ISO_8,1,5,56,103,2402672400
17,7,Jits_ISO_8,2,5,63,98,2402741588
17,7,Jits_ISO_8,3,5,80,127,2402762196
17,7,Jits_ISO_8,0,5,80,127,2403442152
17,7,Jits_ISO_8,1,1,48,59,2403445716
17,7,Jits_ISO_8,2,5,63,98,2403461708
17,7,Jits_ISO_8,3,5,56,103,2403511860
17,7,Jits_ISO_8,0,9999,9999,9999,2308709444
17,7,Jits_ISO_8,1,9999,9999,9999,2309509220
17,7,Jits_ISO_8,2,9999,9999,9999,2310309968
17,7,Jits_ISO_8,3,9999,9999,9999,2311109716
17,7,Jits_ISO_8,4,9999,9999,9999,2311909432
17,7,Jits_ISO_8,5,9999,9999,9999,2312709220
17,7,Jits_ISO_8,6,9999,9999,9999,2313509984
17,7,Jits_ISO_8,7,9999,9999,9999,2314309712
17,7,Jits_ISO_8,8,9999,9999,9999,2315109440
17,7,Jits_ISO_8,9,9999,9999,9999,2315909212
17,7,Jits_ISO_8,10,9999,9999,9999,2316709988
17,7,Jits_ISO_8,11,9999,9999,9999,2317509724
17,7,Jits_ISO_8,12,9999,9999,9999,2318309456
17,7,Jits_ISO_8,13,9999,9999,9999,2319109176
17,7,Jits_ISO_8,14,9999,9999,9999,2319909996
17,7,Jits_ISO_8,15,9999,9999,9999,2320709712
17,7,Jits_ISO_8,16,9999,9999,9999,2321509480
17,7,Jits_ISO_8,17,9999,9999,9999,2322309192
17,7,Jits_ISO_8,18,9999,9999,9999,2323109956
17,7,Jits_ISO_8,19,9999,9999,9999,2323909692
17,7,Jits_ISO_8,20,9999,9999,9999,2324709472
17,7,Jits_ISO_8,21,9999,9999,9999,2325509180
17,7,Jits_ISO_8,22,9999,9999,9999,2326309940
17,7,Jits_ISO_8,23,9999,9999,9999,2327109724
17,7,Jits_ISO_8,24,9999,9999,9999,2327909428
17,7,Jits_ISO_8,25,9999,9999,9999,2328709212
17,7,Jits_ISO_8,26,9999,9999,9999,2329509984
17,7,Jits_ISO_8,27,9999,9999,9999,2330309720
17,7,Jits_ISO_8,28,9999,9999,9999,2331109444
17,7,Jits_ISO_8,29,9999,9999,9999,2331909240
17,7,Jits_ISO_8,30,9999,9999,9999,2332709996
17,7,Jits_ISO_8,31,9999,9999,9999,2333509704
17,7,Jits_ISO_8,32,9999,9999,9999,2334309484
17,7,Jits_ISO_8,33,9999,9999,9999,2335109204
17,7,Jits_ISO_8,34,9999,9999,9999,2335909960
17,7,Jits_ISO_8,35,9999,9999,9999,2336709704
17,7,Jits_ISO_8,36,9999,9999,9999,2337509496
17,7,Jits_ISO_8,37,9999,9999,9999,2338309220
17,7,Jits_ISO_8,38,9999,9999,9999,2339109988
17,7,Jits_ISO_8,39,9999,9999,9999,2339909716
17,7,Jits_ISO_8,40,9999,9999,9999,2340709428
17,7,Jits_ISO_8,41,9999,9999,9999,2341509228
17,7,Jits_ISO_8,42,9999,9999,9999,2342309984
17,7,Jits_ISO_8,43,9999,9999,9999,2343109712
17,7,Jits_ISO_8,44,9999,9999,9999,2343909476
17,7,Jits_ISO_8,45,9999,9999,9999,2344709188
17,7,Jits_ISO_8,46,9999,9999,9999,2345509944
17,7,Jits_ISO_8,47,9999,9999,9999,2346309736
17,7,Jits_ISO_8,48,9999,9999,9999,2347109460
17,7,Jits_ISO_8,49,9999,9999,9999,2347909240
17,7,Jits_ISO_8,50,9999,9999,9999,2348709996
17,7,Jits_ISO_8,51,9999,9999,9999,2349509728
17,7,Jits_ISO_8,52,9999,9999,9999,2350309440
17,7,Jits_ISO_8,53,9999,9999,9999,2351109232
17,7,Jits_ISO_8,54,9999,9999,9999,2351909984
17,7,Jits_ISO_8,55,9999,9999,9999,2352709708
17,7,Jits_ISO_8,56,9999,9999,9999,2353509488
17,7,Jits_ISO_8,57,9999,9999,9999,2354309200
17,7,Jits_ISO_8,58,9999,9999,9999,2355109960
17,7,Jits_ISO_8,59,9999,9999,9999,2355909696
17,7,Jits_ISO_8,60,9999,9999,9999,2356709476
17,7,Jits_ISO_8,61,9999,9999,9999,2357509188
17,7,Jits_ISO_8,62,9999,9999,9999,2358309944
17,7,Jits_ISO_8,63,9999,9999,9999,2359109720
17,7,Jits_ISO_8,64,9999,9999,9999,2359909440
17,7,Jits_ISO_8,65,9999,9999,9999,2360709224
17,7,Jits_ISO_8,66,9999,9999,9999,2361510000
17,7,Jits_ISO_8,67,9999,9999,9999,2362309736
17,7,Jits_ISO_8,68,9999,9999,9999,2363109432
17,7,Jits_ISO_8,69,9999,9999,9999,2363909232
17,7,Jits_ISO_8,70,9999,9999,9999,2364709996
17,7,Jits_ISO_8,71,9999,9999,9999,2365509712
17,7,Jits_ISO_8,72,9999,9999,9999,2366309496
17,7,Jits_ISO_8,73,9999,9999,9999,2367109220
17,7,Jits_ISO_8,74,9999,9999,9999,2367909984
17,7,Jits_ISO_8,75,9999,9999,9999,2368709724
17,7,Jits_ISO_8,76,9999,9999,9999,2369509428
17,7,Jits_ISO_8,77,9999,9999,9999,2370309228
17,7,Jits_ISO_8,78,9999,9999,9999,2371109992
17,7,Jits_ISO_8,79,9999,9999,9999,2371909716
17,7,Jits_ISO_8,80,9999,9999,9999,2372709428
17,7,Jits_ISO_8,81,9999,9999,9999,2373509212
17,7,Jits_ISO_8,82,9999,9999,9999,2374309968
17,7,Jits_ISO_8,83,9999,9999,9999,2375109704
17,7,Jits_ISO_8,84,9999,9999,9999,2375909492
17,7,Jits_ISO_8,85,9999,9999,9999,2376709208
17,7,Jits_ISO_8,86,9999,9999,9999,2377509964
17,7,Jits_ISO_8,87,9999,9999,9999,2378309744
17,7,Jits_ISO_8,88,9999,9999,9999,2379109448
17,7,Jits_ISO_8,89,9999,9999,9999,2379909236
17,7,Jits_ISO_8,90,9999,9999,9999,2380710004
17,7,Jits_ISO_8,91,9999,9999,9999,2381509732
17,7,Jits_ISO_8,92,9999,9999,9999,2382309460
17,7,Jits_ISO_8,93,9999,9999,9999,2383109240
17,7,Jits_ISO_8,94,9999,9999,9999,2383909996
17,7,Jits_ISO_8,95,9999,9999,9999,2384709704
17,7,Jits_ISO_8,96,9999,9999,9999,2385509500
17,7,Jits_ISO_8,97,9999,9999,9999,2386309212
17,7,Jits_ISO_8,98,9999,9999,9999,2387109988
17,7,Jits_ISO_8,99,9999,9999,9999,2387909720
17,7,Jits_ISO_8,100,9999,9999,9999,2388709492
17,7,Jits_ISO_8,101,9999,9999,9999,2389509204
17,7,Jits_ISO_8,102,9999,9999,9999,2390309952
17,7,Jits_ISO_8,103,9999,9999,9999,2391109736
17,7,Jits_ISO_8,104,9999,9999,9999,2391909448
17,7,Jits_ISO_8,105,9999,9999,9999,2392709212
17,7,Jits_ISO_8,106,9999,9999,9999,2393509960
17,7,Jits_ISO_8,107,9999,9999,9999,2394309744
17,7,Jits_ISO_8,108,9999,9999,9999,2395109456
17,7,Jits_ISO_8,109,9999,9999,9999,2395909236
17,7,Jits_ISO_8,110,9999,9999,9999,2396709996
17,7,Jits_ISO_8,111,9999,9999,9999,2397509708
17,7,Jits_ISO_8,112,9999,9999,9999,2398309428
17,7,Jits_ISO_8,113,9999,9999,9999,2399109228
17,7,Jits_ISO_8,114,9999,9999,9999,2399909980
17,7,Jits_ISO_8,115,9999,9999,9999,2400709708
17,7,Jits_ISO_8,116,9999,9999,9999,2401509436
17,7,Jits_ISO_8,117,9999,9999,9999,2402309232
17,7,Jits_ISO_8,118,9999,9999,9999,2403109992
17,7,Jits_ISO_8,119,9999,9999,9999,2403909696
18,17,Jits_Phase_5,0,5,56,103,2412762548
18,17,Jits_Phase_5,1,5,63,98,2412765644
18,17,Jits_Phase_5,2,5,80,127,2412768764
18,17,Jits_Phase_5,0,5,56,103,2413263152
18,17,Jits_Phase_5,1,5,63,98,2413266400
18,17,Jits_Phase_5,2,5,80,127,2413269668
18,17,Jits_Phase_5,0,5,56,103,2413762880
18,17,Jits_Phase_5,1,5,80,127,2413773148
18,17,Jits_Phase_5,2,5,63,98,2413792784
18,17,Jits_Phase_5,0,5,63,98,2414212532
18,17,Jits_Phase_5,1,5,80,127,2414243180
18,17,Jits_Phase_5,2,1,48,54,2414249736
18,17,Jits_Phase_5,3,5,56,103,2414253816
18,17,Jits_Phase_5,0,1,48,42,2414743164
18,17,Jits_Phase_5,1,5,80,127,2414772656
18,17,Jits_Phase_5,2,5,56,103,2414782780
18,17,Jits_Phase_5,3,5,63,98,2414812676
18,17,Jits_Phase_5,0,5,63,98,2415263028
18,17,Jits_Phase_5,1,1,48,62,2415274464
18,17,Jits_Phase_5,2,5,56,103,2415292868
18,17,Jits_Phase_5,3,5,80,127,2415303140
18,17,Jits_Phase_5,0,5,56,103,2415712660
18,17,Jits_Phase_5,1,1,48,51,2415763232
18,17,Jits_Phase_5,2,5,63,98,2415764500
18,17,Jits_Phase_5,3,5,80,127,2415783236
18,17,Jits_Phase_5,0,5,80,127,2416213468
18,17,Jits_Phase_5,1,1,48,54,2416229396
18,17,Jits_Phase_5,2,5,63,98,2416262768
18,17,Jits_Phase_5,3,5,56,103,2416302876
18,17,Jits_Phase_5,0,5,56,103,2416712936
18,17,Jits_Phase_5,1,1,48,51,2416723252
18,17,Jits_Phase_5,2,5,63,98,2416742904
18,17,Jits_Phase_5,3,5,80,127,2416813404
18,17,Jits_Phase_5,0,1,48,51,2417209712
18,17,Jits_Phase_5,1,5,56,103,2417212816
18,17,Jits_Phase_5,2,5,80,127,2417273056
18,17,Jits_Phase_5,3,5,63,98,2417303028
18,17,Jits_Phase_5,0,5,56,103,2417722616
18,17,Jits_Phase_5,1,1,48,55,2417732812
18,17,Jits_Phase_5,2,5,63,98,2417734220
18,17,Jits_Phase_5,3,5,80,127,2417772812
18,17,Jits_Phase_5,0,5,63,98,2418213156
18,17,Jits_Phase_5,1,1,48,51,2418230052
18,17,Jits_Phase_5,2,5,80,127,2418293244
18,17,Jits_Phase_5,3,5,56,103,2418303436
18,17,Jits_Phase_5,0,1,48,55,2418754980
18,17,Jits_Phase_5,1,5,63,98,2418763172
18,17,Jits_Phase_5,2,5,56,103,2418803036
18,17,Jits_Phase_5,3,5,80,127,2418806100
18,17,Jits_Phase_5,0,5,56,103,2419222844
18,17,Jits_Phase_5,1,5,63,98,2419233336
18,17,Jits_Phase_5,2,5,80,127,2419273124
18,17,Jits_Phase_5,3,1,48,53,2419277440
18,17,Jits_Phase_5,0,5,56,103,2419713684
18,17,Jits_Phase_5,1,5,63,98,2419716748
18,17,Jits_Phase_5,2,5,80,127,2419732724
18,17,Jits_Phase_5,3,1,48,40,2419739656
18,17,Jits_Phase_5,0,1,48,54,2420218340
18,17,Jits_Phase_5,1,5,80,127,2420232832
18,17,Jits_Phase_5,2,5,56,103,2420242728
18,17,Jits_Phase_5,3,5,63,98,2420312912
18,17,Jits_Phase_5,0,5,63,98,2420723000
18,17,Jits_Phase_5,1,1,48,54,2420728060
18,17,Jits_Phase_5,2,5,56,103,2420742776
18,17,Jits_Phase_5,3,5,80,127,2420823972
18,17,Jits_Phase_5,0,1,48,53,2421197536
18,17,Jits_Phase_5,1,5,56,103,2421233008
18,17,Jits_Phase_5,2,5,80,127,2421272868
18,17,Jits_Phase_5,3,5,63,98,2421283140
18,17,Jits_Phase_5,0,1,48,51,2421710688
18,17,Jits_Phase_5,1,5,80,127,2421722568
18,17,Jits_Phase_5,2,5,63,98,2421753140
18,17,Jits_Phase_5,3,5,56,103,2421793148
18,17,Jits_Phase_5,0,1,48,49,2422221996
18,17,Jits_Phase_5,1,5,56,103,2422242768
18,17,Jits_Phase_5,2,5,63,98,2422273640
18,17,Jits_Phase_5,3,5,80,127,2422322852
18,17,Jits_Phase_5,0,5,80,127,2422743500
18,17,Jits_Phase_5,1,1,48,48,2422756436
18,17,Jits_Phase_5,2,5,56,103,2422783284
18,17,Jits_Phase_5,3,5,63,98,2422792504
18,17,Jits_Phase_5,0,5,80,127,2423222516
18,17,Jits_Phase_5,1,1,48,48,2423254032
18,17,Jits_Phase_5,2,5,63,98,2423262596
18,17,Jits_Phase_5,3,5,56,103,2423322980
18,17,Jits_Phase_5,0,5,56,103,2423723524
18,17,Jits_Phase_5,1,5,80,127,2423732524
18,17,Jits_Phase_5,2,1,48,50,2423749044
18,17,Jits_Phase_5,3,5,63,98,2423812752
18,17,Jits_Phase_5,0,1,48,53,2424220592
18,17,Jits_Phase_5,1,5,80,127,2424223104
18,17,Jits_Phase_5,2,5,63,98,2424282624
18,17,Jits_Phase_5,3,5,56,103,2424313344
18,17,Jits_Phase_5,0,1,48,49,2424713768
18,17,Jits_Phase_5,1,5,56,103,2424722932
18,17,Jits_Phase_5,2,5,80,127,2424783496
18,17,Jits_Phase_5,3,5,63,98,2424823044
18,17,Jits_Phase_5,0,1,48,55,2425250664
18,17,Jits_Phase_5,1,5,56,103,2425272832
18,17,Jits_Phase_5,2,5,63,98,2425282876
18,17,Jits_Phase_5,3,5,80,127,2425286460
18,17,Jits_Phase_5,0,5,80,127,2425723628
18,17,Jits_Phase_5,1,1,48,60,2425757764
18,17,Jits_Phase_5,2,5,63,98,2425813480
18,17,Jits_Phase_5,3,5,56,103,2425822704
18,17,Jits_Phase_5,0,5,56,103,2426222924
18,17,Jits_Phase_5,1,5,63,98,2426226092
18,17,Jits_Phase_5,2,5,80,127,2426229216
18,17,Jits_Phase_5,3,1,48,59,2426246652
18,17,Jits_Phase_5,0,1,48,53,2426714028
18,17,Jits_Phase_5,1,5,80,127,2426743348
18,17,Jits_Phase_5,2,5,63,98,2426793476
18,17,Jits_Phase_5,3,5,56,103,2426823012
18,17,Jits_Phase_5,0,5,56,103,2427223704
18,17,Jits_Phase_5,1,1,48,56,2427227572
18,17,Jits_Phase_5,2,5,80,127,2427232624
18,17,Jits_Phase_5,3,5,63,98,2427303420
18,17,Jits_Phase_5,0,1,48,55,2427730540
18,17,Jits_Phase_5,1,5,56,103,2427733500
18,17,Jits_Phase_5,2,5,63,98,2427752912
18,17,Jits_Phase_5,3,5,80,127,2427813372
18,17,Jits_Phase_5,0,5,80,127,2428212584
18,17,Jits_Phase_5,1,1,48,51,2428221100
18,17,Jits_Phase_5,2,5,63,98,2428283528
18,17,Jits_Phase_5,3,5,56,103,2428302568
18,17,Jits_Phase_5,0,5,80,127,2428732724
18,17,Jits_Phase_5,1,5,56,103,2428743144
18,17,Jits_Phase_5,2,1,48,48,2428752592
18,17,Jits_Phase_5,3,5,63,98,2428754380
18,17,Jits_Phase_5,0,5,80,127,2429223496
18,17,Jits_Phase_5,1,1,48,46,2429231864
18,17,Jits_Phase_5,2,5,56,103,2429242676
18,17,Jits_Phase_5,3,5,63,98,2429313476
18,17,Jits_Phase_5,0,5,56,103,2429733376
18,17,Jits_Phase_5,1,1,48,57,2429742796
18,17,Jits_Phase_5,2,5,80,127,2429762896
18,17,Jits_Phase_5,3,5,63,98,2429783652
18,17,Jits_Phase_5,0,5,63,98,2430222656
18,17,Jits_Phase_5,1,1,48,62,2430270660
18,17,Jits_Phase_5,2,5,56,103,2430283264
18,17,Jits_Phase_5,3,5,80,127,2430312788
18,17,Jits_Phase_5,0,5,63,98,2430713192
18,17,Jits_Phase_5,1,5,80,127,2430716704
18,17,Jits_Phase_5,2,1,48,51,2430731604
18,17,Jits_Phase_5,3,5,56,103,2430803460
18,17,Jits_Phase_5,0,1,48,45,2431212980
18,17,Jits_Phase_5,1,5,56,103,2431233604
18,17,Jits_Phase_5,2,5,63,98,2431263132
18,17,Jits_Phase_5,3,5,80,127,2431302992
18,17,Jits_Phase_5,0,1,48,54,2431717068
18,17,Jits_Phase_5,1,5,63,98,2431733132
18,17,Jits_Phase_5,2,5,56,103,2431773072
18,17,Jits_Phase_5,3,5,80,127,2431792408
18,17,Jits_Phase_5,0,1,48,55,2432196516
18,17,Jits_Phase_5,1,5,63,98,2432243000
18,17,Jits_Phase_5,2,5,56,103,2432283012
18,17,Jits_Phase_5,3,5,80,127,2432293568
18,17,Jits_Phase_5,0,5,80,127,2432723576
18,17,Jits_Phase_5,1,1,48,55,2432752400
18,17,Jits_Phase_5,2,5,63,98,2432792880
18,17,Jits_Phase_5,3,5,56,103,2432813488
18,17,Jits_Phase_5,0,5,56,103,2433212928
18,17,Jits_Phase_5,1,5,80,127,2433233684
18,17,Jits_Phase_5,2,1,48,55,2433267820
18,17,Jits_Phase_5,3,5,63,98,2433273320
18,17,Jits_Phase_5,0,5,63,98,2433722732
18,17,Jits_Phase_5,1,1,48,42,2433736336
18,17,Jits_Phase_5,2,5,80,127,2433743332
18,17,Jits_Phase_5,3,5,56,103,2433783120
18,17,Jits_Phase_5,0,1,48,50,2434215748
18,17,Jits_Phase_5,1,5,63,98,2434222472
18,17,Jits_Phase_5,2,5,56,103,2434242784
18,17,Jits_Phase_5,3,5,80,127,2434253428
18,17,Jits_Phase_5,0,1,48,57,2434681564
18,17,Jits_Phase_5,1,5,80,127,2434723540
18,17,Jits_Phase_5,2,5,56,103,2434742680
18,17,Jits_Phase_5,3,5,63,98,2434773328
18,17,Jits_Phase_5,0,1,48,60,2435178832
18,17,Jits_Phase_5,1,5,56,103,2435292604
18,17,Jits_Phase_5,2,5,80,127,2435295596
18,17,Jits_Phase_5,3,5,63,98,2435312988
18,17,Jits_Phase_5,0,5,63,98,2435713384
18,17,Jits_Phase_5,1,5,56,103,2435742984
18,17,Jits_Phase_5,2,1,48,56,2435751800
18,17,Jits_Phase_5,3,5,80,127,2435802340
18,17,Jits_Phase_5,0,1,48,46,2436185224
18,17,Jits_Phase_5,1,5,63,98,2436303480
18,17,Jits_Phase_5,2,5,56,103,2436312404
18,17,Jits_Phase_5,3,5,80,127,2436322748
18,17,Jits_Phase_5,0,1,48,56,2436742368
18,17,Jits_Phase_5,1,5,56,103,2436763140
18,17,Jits_Phase_5,2,5,80,127,2436792764
18,17,Jits_Phase_5,3,5,63,98,2436803108
18,17,Jits_Phase_5,0,1,48,51,2437233720
18,17,Jits_Phase_5,1,5,63,98,2437302620
18,17,Jits_Phase_5,2,5,56,103,2437312816
18,17,Jits_Phase_5,3,5,80,127,2437333332
18,17,Jits_Phase_5,0,5,56,103,2437732680
18,17,Jits_Phase_5,1,1,48,51,2437779916
18,17,Jits_Phase_5,2,5,63,98,2437793512
18,17,Jits_Phase_5,3,5,80,127,2437796572
18,17,Jits_Phase_5,0,1,48,51,2438253036
18,17,Jits_Phase_5,1,5,80,127,2438254372
18,17,Jits_Phase_5,2,5,56,103,2438263224
18,17,Jits_Phase_5,3,5,63,98,2438332780
18,17,Jits_Phase_5,0,5,80,127,2438743496
18,17,Jits_Phase_5,1,1,48,53,2438750128
18,17,Jits_Phase_5,2,5,56,103,2438813168
18,17,Jits_Phase_5,3,5,63,98,2438823292
18,17,Jits_Phase_5,0,1,48,57,2439269820
18,17,Jits_Phase_5,1,5,63,98,2439283188
18,17,Jits_Phase_5,2,5,56,103,2439293532
18,17,Jits_Phase_5,3,5,80,127,2439312724
18,17,Jits_Phase_5,0,5,80,127,2439732676
18,17,Jits_Phase_5,1,5,63,98,2439792996
18,17,Jits_Phase_5,2,1,48,56,2439807496
18,17,Jits_Phase_5,3,5,56,103,2439832924
18,17,Jits_Phase_5,0,5,56,103,2440273200
18,17,Jits_Phase_5,1,5,63,98,2440282572
18,17,Jits_Phase_5,2,1,48,51,2440288832
18,17,Jits_Phase_5,3,5,80,127,2440322352
18,17,Jits_Phase_5,0,5,56,103,2440733256
18,17,Jits_Phase_5,1,1,48,57,2440747388
18,17,Jits_Phase_5,2,5,80,127,2440762628
18,17,Jits_Phase_5,3,5,63,98,2440812904
18,17,Jits_Phase_5,0,1,48,57,2441215460
18,17,Jits_Phase_5,1,5,56,103,2441272724
18,17,Jits_Phase_5,2,5,63,98,2441312572
18,17,Jits_Phase_5,3,5,80,127,2441315860
18,17,Jits_Phase_5,0,1,48,51,2441749588
18,17,Jits_Phase_5,1,5,56,103,2441773372
18,17,Jits_Phase_5,2,5,63,98,2441782668
18,17,Jits_Phase_5,3,5,80,127,2441803276
18,17,Jits_Phase_5,0,1,48,56,2442227088
18,17,Jits_Phase_5,1,5,56,103,2442233408
18,17,Jits_Phase_5,2,5,80,127,2442236400
18,17,Jits_Phase_5,3,5,63,98,2442273272
18,17,Jits_Phase_5,0,1,48,56,2442698500
18,17,Jits_Phase_5,1,5,63,98,2442772932
18,17,Jits_Phase_5,2,5,56,103,2442802592
18,17,Jits_Phase_5,3,5,80,127,2442823124
18,17,Jits_Phase_5,0,1,48,48,2443216616
18,17,Jits_Phase_5,1,5,80,127,2443242720
18,17,Jits_Phase_5,2,5,56,103,2443253364
18,17,Jits_Phase_5,3,5,63,98,2443263484
18,17,Jits_Phase_5,0,1,48,48,2443690408
18,17,Jits_Phase_5,1,5,56,103,2443742540
18,17,Jits_Phase_5,2,5,80,127,2443782476
18,17,Jits_Phase_5,3,5,63,98,2443813480
18,17,Jits_Phase_5,0,1,48,51,2444187916
18,17,Jits_Phase_5,1,5,63,98,2444252552
18,17,Jits_Phase_5,2,5,80,127,2444262900
18,17,Jits_Phase_5,3,5,56,103,2444273092
18,17,Jits_Phase_5,0,5,56,103,2444743240
18,17,Jits_Phase_5,1,1,48,54,2444744956
18,17,Jits_Phase_5,2,5,63,98,2444812692
18,17,Jits_Phase_5,3,5,80,127,2444823036
18,17,Jits_Phase_5,0,5,80,127,2445252972
18,17,Jits_Phase_5,1,1,48,52,2445254308
18,17,Jits_Phase_5,2,5,56,103,2445263160
18,17,Jits_Phase_5,3,5,63,98,2445313360
18,17,Jits_Phase_5,0,5,80,127,2445762924
18,17,Jits_Phase_5,1,1,48,43,2445771292
18,17,Jits_Phase_5,2,5,56,103,2445823304
18,17,Jits_Phase_5,3,5,63,98,2445853128
18,17,Jits_Phase_5,0,5,56,103,2446262688
18,17,Jits_Phase_5,1,5,80,127,2446265680
18,17,Jits_Phase_5,2,1,48,48,2446271956
18,17,Jits_Phase_5,3,5,63,98,2446302540
18,17,Jits_Phase_5,0,1,48,52,2446714580
18,17,Jits_Phase_5,1,5,56,103,2446793148
18,17,Jits_Phase_5,2,5,63,98,2446822660
18,17,Jits_Phase_5,3,5,80,127,2446833152
18,17,Jits_Phase_5,0,1,48,51,2447250904
18,17,Jits_Phase_5,1,5,63,98,2447303316
18,17,Jits_Phase_5,2,5,80,127,2447313436
18,17,Jits_Phase_5,3,5,56,103,2447322364
18,17,Jits_Phase_5,0,5,80,127,2447752480
18,17,Jits_Phase_5,1,1,48,46,2447753820
18,17,Jits_Phase_5,2,5,56,103,2447802700
18,17,Jits_Phase_5,3,5,63,98,2447805912
18,17,Jits_Phase_5,0,1,48,51,2448243512
18,17,Jits_Phase_5,1,5,56,103,2448282944
18,17,Jits_Phase_5,2,5,80,127,2448302384
18,17,Jits_Phase_5,3,5,63,98,2448312652
18,17,Jits_Phase_5,0,1,48,50,2448705940
18,17,Jits_Phase_5,1,5,63,98,2448763208
18,17,Jits_Phase_5,2,5,56,103,2448793032
18,17,Jits_Phase_5,3,5,80,127,2448813428
18,17,Jits_Phase_5,0,1,48,48,2449224272
18,17,Jits_Phase_5,1,5,56,103,2449273220
18,17,Jits_Phase_5,2,5,80,127,2449282368
18,17,Jits_Phase_5,3,5,63,98,2449353252
18,17,Jits_Phase_5,0,1,48,43,2449750180
18,17,Jits_Phase_5,1,5,63,98,2449762708
18,17,Jits_Phase_5,2,5,80,127,2449802496
18,17,Jits_Phase_5,3,5,56,103,2449842532
18,17,Jits_Phase_5,0,1,48,46,2450261240
18,17,Jits_Phase_5,1,5,56,103,2450272648
18,17,Jits_Phase_5,2,5,63,98,2450283064
18,17,Jits_Phase_5,3,5,80,127,2450303300
18,17,Jits_Phase_5,0,1,48,44,2450756480
18,17,Jits_Phase_5,1,5,63,98,2450813300
18,17,Jits_Phase_5,2,5,80,127,2450832712
18,17,Jits_Phase_5,3,5,56,103,2450853232
18,17,Jits_Phase_5,0,5,56,103,2451252532
18,17,Jits_Phase_5,1,1,48,48,2451286512
18,17,Jits_Phase_5,2,5,80,127,2451332468
18,17,Jits_Phase_5,3,5,63,98,2451342736
18,17,Jits_Phase_5,0,1,48,43,2451761928
18,17,Jits_Phase_5,1,5,80,127,2451793340
18,17,Jits_Phase_5,2,5,63,98,2451802416
18,17,Jits_Phase_5,3,5,56,103,2451833284
18,17,Jits_Phase_5,0,1,48,58,2452239264
18,17,Jits_Phase_5,1,5,63,98,2452253308
18,17,Jits_Phase_5,2,5,80,127,2452293024
18,17,Jits_Phase_5,3,5,56,103,2452353248
18,17,Jits_Phase_5,0,1,48,57,2452721876
18,17,Jits_Phase_5,1,5,63,98,2452763252
18,17,Jits_Phase_5,2,5,56,103,2452813304
18,17,Jits_Phase_5,3,5,80,127,2452842812
18,17,Jits_Phase_5,0,1,48,50,2453259672
18,17,Jits_Phase_5,1,5,80,127,2453262704
18,17,Jits_Phase_5,2,5,63,98,2453272976
18,17,Jits_Phase_5,3,5,56,103,2453342428
18,17,Jits_Phase_5,0,1,48,47,2453776588
18,17,Jits_Phase_5,1,5,80,127,2453822696
18,17,Jits_Phase_5,2,5,56,103,2453833188
18,17,Jits_Phase_5,3,5,63,98,2453836476
18,17,Jits_Phase_5,0,5,56,103,2454263332
18,17,Jits_Phase_5,1,5,80,127,2454282672
18,17,Jits_Phase_5,2,5,63,98,2454292940
18,17,Jits_Phase_5,3,1,48,50,2454299128
18,17,Jits_Phase_5,0,1,48,53,2454722020
18,17,Jits_Phase_5,1,5,63,98,2454773064
18,17,Jits_Phase_5,2,5,56,103,2454813224
18,17,Jits_Phase_5,3,5,80,127,2454832468
18,17,Jits_Phase_5,0,1,48,49,2455220112
18,17,Jits_Phase_5,1,5,63,98,2455272668
18,17,Jits_Phase_5,2,5,56,103,2455333192
18,17,Jits_Phase_5,3,5,80,127,2455336332
18,17,Jits_Phase_5,0,5,56,103,2455732564
18,17,Jits_Phase_5,1,5,80,127,2455753320
18,17,Jits_Phase_5,2,1,48,49,2455756512
18,17,Jits_Phase_5,3,5,63,98,2455793100
18,17,Jits_Phase_5,0,1,48,54,2456262140
18,17,Jits_Phase_5,1,5,56,103,2456263628
18,17,Jits_Phase_5,2,5,63,98,2456282372
18,17,Jits_Phase_5,3,5,80,127,2456292792
18,17,Jits_Phase_5,0,5,80,127,2456733172
18,17,Jits_Phase_5,1,1,48,51,2456753180
18,17,Jits_Phase_5,2,5,56,103,2456762864
18,17,Jits_Phase_5,3,5,63,98,2456802580
18,17,Jits_Phase_5,0,1,48,51,2457230592
18,17,Jits_Phase_5,1,5,80,127,2457242972
18,17,Jits_Phase_5,2,5,56,103,2457262484
18,17,Jits_Phase_5,3,5,63,98,2457323092
18,17,Jits_Phase_5,0,1,48,57,2457715876
18,17,Jits_Phase_5,1,5,56,103,2457753208
18,17,Jits_Phase_5,2,5,80,127,2457773396
18,17,Jits_Phase_5,3,5,63,98,2457832796
18,17,Jits_Phase_5,0,5,80,127,2458233188
18,17,Jits_Phase_5,1,5,56,103,2458242484
18,17,Jits_Phase_5,2,1,48,49,2458257588
18,17,Jits_Phase_5,3,5,63,98,2458283236
18,17,Jits_Phase_5,0,1,48,54,2458728904
18,17,Jits_Phase_5,1,5,63,98,2458733132
18,17,Jits_Phase_5,2,5,56,103,2458773068
18,17,Jits_Phase_5,3,5,80,127,2458776060
18,17,Jits_Phase_5,0,1,48,58,2459208188
18,17,Jits_Phase_5,1,5,63,98,2459253096
18,17,Jits_Phase_5,2,5,80,127,2459293036
18,17,Jits_Phase_5,3,5,56,103,2459323016
18,17,Jits_Phase_5,0,1,48,61,2459734540
18,17,Jits_Phase_5,1,5,56,103,2459742508
18,17,Jits_Phase_5,2,5,63,98,2459753000
18,17,Jits_Phase_5,3,5,80,127,2459782452
18,17,Jits_Phase_5,0,5,80,127,2460233044
18,17,Jits_Phase_5,1,1,48,57,2460246204
18,17,Jits_Phase_5,2,5,63,98,2460302568
18,17,Jits_Phase_5,3,5,56,103,2460313060
18,17,Jits_Phase_5,0,5,63,98,2460732732
18,17,Jits_Phase_5,1,1,48,50,2460751664
18,17,Jits_Phase_5,2,5,56,103,2460802484
18,17,Jits_Phase_5,3,5,80,127,2460812824
18,17,Jits_Phase_5,0,5,63,98,2461213156
18,17,Jits_Phase_5,1,5,56,103,2461232496
18,17,Jits_Phase_5,2,1,48,47,2461258232
18,17,Jits_Phase_5,3,5,80,127,2461272424
18,17,Jits_Phase_5,0,5,56,103,2461693352
18,17,Jits_Phase_5,1,5,63,98,2461702428
18,17,Jits_Phase_5,2,1,48,51,2461704440
18,17,Jits_Phase_5,3,5,80,127,2461783408
18,17,Jits_Phase_5,0,1,48,55,2462163344
18,17,Jits_Phase_5,1,5,63,98,2462182848
18,17,Jits_Phase_5,2,5,56,103,2462212524
18,17,Jits_Phase_5,3,5,80,127,2462253356
18,17,Jits_Phase_5,0,1,48,54,2462661296
18,17,Jits_Phase_5,1,5,56,103,2462682448
18,17,Jits_Phase_5,2,5,63,98,2462722460
18,17,Jits_Phase_5,3,5,80,127,2462763280
18,17,Jits_Phase_5,0,1,48,56,2463147920
18,17,Jits_Phase_5,1,5,80,127,2463183168
18,17,Jits_Phase_5,2,5,56,103,2463263172
18,17,Jits_Phase_5,3,5,63,98,2463273292
18,17,Jits_Phase_5,0,1,48,48,2463695928
18,17,Jits_Phase_5,1,5,56,103,2463723000
18,17,Jits_Phase_5,2,5,63,98,2463726140
18,17,Jits_Phase_5,3,5,80,127,2463733196
18,17,Jits_Phase_5,0,1,48,46,2464210124
18,17,Jits_Phase_5,1,5,56,103,2464243048
18,17,Jits_Phase_5,2,5,63,98,2464262384
18,17,Jits_Phase_5,3,5,80,127,2464272952
18,17,Jits_Phase_5,0,5,63,98,2464703244
18,17,Jits_Phase_5,1,1,48,53,2464713364
18,17,Jits_Phase_5,2,5,80,127,2464714552
18,17,Jits_Phase_5,3,5,56,103,2464732472
18,17,Jits_Phase_5,0,5,63,98,2465202548
18,17,Jits_Phase_5,1,1,48,56,2465206260
18,17,Jits_Phase_5,2,5,56,103,2465282324
18,17,Jits_Phase_5,3,5,80,127,2465285472
18,17,Jits_Phase_5,0,1,48,45,2465667764
18,17,Jits_Phase_5,1,5,63,98,2465703308
18,17,Jits_Phase_5,2,5,56,103,2465722968
18,17,Jits_Phase_5,3,5,80,127,2465752496
18,17,Jits_Phase_5,0,1,48,51,2466198828
18,17,Jits_Phase_5,1,5,56,103,2466203132
18,17,Jits_Phase_5,2,5,63,98,2466222344
18,17,Jits_Phase_5,3,5,80,127,2466232688
18,17,Jits_Phase_5,0,1,48,39,2466694464
18,17,Jits_Phase_5,1,5,56,103,2466733400
18,17,Jits_Phase_5,2,5,63,98,2466763072
18,17,Jits_Phase_5,3,5,80,127,2466766432
18,17,Jits_Phase_5,0,5,56,103,2467182920
18,17,Jits_Phase_5,1,1,48,52,2467200136
18,17,Jits_Phase_5,2,5,63,98,2467223076
18,17,Jits_Phase_5,3,5,80,127,2467283412
18,17,Jits_Phase_5,0,1,48,49,2467679496
18,17,Jits_Phase_5,1,5,56,103,2467703132
18,17,Jits_Phase_5,2,5,63,98,2467713476
18,17,Jits_Phase_5,3,5,80,127,2467772988
18,17,Jits_Phase_5,0,1,48,55,2468172292
18,17,Jits_Phase_5,1,5,56,103,2468202808
18,17,Jits_Phase_5,2,5,80,127,2468223416
18,17,Jits_Phase_5,3,5,63,98,2468252940
18,17,Jits_Phase_5,0,5,80,127,2468702712
18,17,Jits_Phase_5,1,1,48,55,2468704500
18,17,Jits_Phase_5,2,5,56,103,2468713200
18,17,Jits_Phase_5,3,5,63,98,2468733212
18,17,Jits_Phase_5,0,1,48,54,2469181476
18,17,Jits_Phase_5,1,5,63,98,2469192960
18,17,Jits_Phase_5,2,5,80,127,2469273124
18,17,Jits_Phase_5,3,5,56,103,2469283304
18,17,Jits_Phase_5,0,1,48,55,2469708704
18,17,Jits_Phase_5,1,5,80,127,2469783064
18,17,Jits_Phase_5,2,5,56,103,2469803684
18,17,Jits_Phase_5,3,5,63,98,2469806444
18,17,Jits_Phase_5,0,5,63,98,2470273372
18,17,Jits_Phase_5,1,5,80,127,2470276736
18,17,Jits_Phase_5,2,1,48,51,2470279184
18,17,Jits_Phase_5,3,5,56,103,2470332952
18,17,Jits_Phase_5,0,5,56,103,2470752740
18,17,Jits_Phase_5,1,5,80,127,2470762936
18,17,Jits_Phase_5,2,1,48,51,2470777064
18,17,Jits_Phase_5,3,5,63,98,2470802940
18,17,Jits_Phase_5,0,5,56,103,2471232800
18,17,Jits_Phase_5,1,1,48,43,2471264388
18,17,Jits_Phase_5,2,5,63,98,2471293256
18,17,Jits_Phase_5,3,5,80,127,2471302628
18,17,Jits_Phase_5,0,1,48,51,2471727048
18,17,Jits_Phase_5,1,5,63,98,2471742892
18,17,Jits_Phase_5,2,5,80,127,2471782976
18,17,Jits_Phase_5,3,5,56,103,2471822692
18,17,Jits_Phase_5,0,1,48,51,2472232284
18,17,Jits_Phase_5,1,5,56,103,2472242420
18,17,Jits_Phase_5,2,5,63,98,2472322280
18,17,Jits_Phase_5,3,5,80,127,2472325648
18,17,Jits_Phase_5,0,1,48,45,2472748196
18,17,Jits_Phase_5,1,5,80,127,2472802772
18,17,Jits_Phase_5,2,5,56,103,2472833344
18,17,Jits_Phase_5,3,5,63,98,2472836484
18,17,Jits_Phase_5,0,5,56,103,2473262368
18,17,Jits_Phase_5,1,5,80,127,2473282976
18,17,Jits_Phase_5,2,1,48,62,2473300320
18,17,Jits_Phase_5,3,5,63,98,2473322832
18,17,Jits_Phase_5,0,5,80,127,2473742880
18,17,Jits_Phase_5,1,5,63,98,2473763192
18,17,Jits_Phase_5,2,1,48,31,2473803848
18,17,Jits_Phase_5,3,5,56,103,2473822524
18,17,Jits_Phase_5,0,5,63,98,2474252832
18,17,Jits_Phase_5,1,5,56,103,2474262956
18,17,Jits_Phase_5,2,1,48,57,2474265628
18,17,Jits_Phase_5,3,5,80,127,2474312924
18,17,Jits_Phase_5,0,5,56,103,2474743220
18,17,Jits_Phase_5,1,1,48,35,2474750600
18,17,Jits_Phase_5,2,5,63,98,2474762700
18,17,Jits_Phase_5,3,5,80,127,2474772820
18,17,Jits_Phase_5,0,1,48,60,2475198884
18,17,Jits_Phase_5,1,5,56,103,2475232856
18,17,Jits_Phase_5,2,5,63,98,2475235920
18,17,Jits_Phase_5,3,5,80,127,2475253164
18,17,Jits_Phase_5,0,1,48,30,2475745076
18,17,Jits_Phase_5,1,5,63,98,2475773348
18,17,Jits_Phase_5,2,5,56,103,2475802948
18,17,Jits_Phase_5,3,5,80,127,2475832772
18,17,Jits_Phase_5,0,5,80,127,2476232952
18,17,Jits_Phase_5,1,1,48,71,2476265664
18,17,Jits_Phase_5,2,5,56,103,2476323072
18,17,Jits_Phase_5,3,5,63,98,2476326292
18,17,Jits_Phase_5,0,1,48,43,2476713772
18,17,Jits_Phase_5,1,5,56,103,2476732924
18,17,Jits_Phase_5,2,5,80,127,2476735840
18,17,Jits_Phase_5,3,5,63,98,2476812700
18,17,Jits_Phase_5,0,1,48,54,2477207356
18,17,Jits_Phase_5,1,5,80,127,2477232440
18,17,Jits_Phase_5,2,5,63,98,2477292980
18,17,Jits_Phase_5,3,5,56,103,2477322636
18,17,Jits_Phase_5,0,1,48,41,2477732924
18,17,Jits_Phase_5,1,5,63,98,2477734408
18,17,Jits_Phase_5,2,5,80,127,2477742536
18,17,Jits_Phase_5,3,5,56,103,2477813184
18,17,Jits_Phase_5,0,1,48,54,2478250752
18,17,Jits_Phase_5,1,5,56,103,2478293344
18,17,Jits_Phase_5,2,5,80,127,2478323096
18,17,Jits_Phase_5,3,5,63,98,2478373280
18,17,Jits_Phase_5,0,1,48,46,2478784896
18,17,Jits_Phase_5,1,5,63,98,2478883276
18,17,Jits_Phase_5,2,5,56,103,2478912876
18,17,Jits_Phase_5,3,5,80,127,2478916016
18,17,Jits_Phase_5,0,1,48,60,2479354916
18,17,Jits_Phase_5,1,5,63,98,2479382960
18,17,Jits_Phase_5,2,5,80,127,2479403420
18,17,Jits_Phase_5,3,5,56,103,2479412868
18,17,Jits_Phase_5,0,5,56,103,2479892908
18,17,Jits_Phase_5,1,5,63,98,2479895900
18,17,Jits_Phase_5,2,1,48,54,2479904120
18,17,Jits_Phase_5,3,5,80,127,2479913284
18,17,Jits_Phase_5,0,5,56,103,2480343520
18,17,Jits_Phase_5,1,5,63,98,2480352816
18,17,Jits_Phase_5,2,5,80,127,2480383316
18,17,Jits_Phase_5,3,1,48,48,2480432436
18,17,Jits_Phase_5,0,5,63,98,2480862760
18,17,Jits_Phase_5,1,5,80,127,2480883072
18,17,Jits_Phase_5,2,1,48,47,2480886264
18,17,Jits_Phase_5,3,5,56,103,2480922928
18,17,Jits_Phase_5,0,5,56,103,2481392932
18,17,Jits_Phase_5,1,1,48,43,2481403616
18,17,Jits_Phase_5,2,5,63,98,2481432932
18,17,Jits_Phase_5,3,5,80,127,2481436224
18,17,Jits_Phase_5,0,5,80,127,2481833328
18,17,Jits_Phase_5,1,5,56,103,2481873216
18,17,Jits_Phase_5,2,1,48,49,2481904428
18,17,Jits_Phase_5,3,5,63,98,2481922732
18,17,Jits_Phase_5,0,1,48,48,2482370380
18,17,Jits_Phase_5,1,5,56,103,2482392372
18,17,Jits_Phase_5,2,5,80,127,2482402796
18,17,Jits_Phase_5,3,5,63,98,2482433368
18,17,Jits_Phase_5,0,5,56,103,2482842964
18,17,Jits_Phase_5,1,5,80,127,2482883000
18,17,Jits_Phase_5,2,1,48,48,2482897352
18,17,Jits_Phase_5,3,5,63,98,2482932968
18,17,Jits_Phase_5,0,5,56,103,2483342652
18,17,Jits_Phase_5,1,1,48,46,2483367864
18,17,Jits_Phase_5,2,5,80,127,2483382684
18,17,Jits_Phase_5,3,5,63,98,2483432808
18,17,Jits_Phase_5,0,1,48,53,2483828660
18,17,Jits_Phase_5,1,5,80,127,2483833340
18,17,Jits_Phase_5,2,5,63,98,2483913012
18,17,Jits_Phase_5,3,5,56,103,2483923712
18,17,Jits_Phase_5,0,1,48,59,2484350876
18,17,Jits_Phase_5,1,5,80,127,2484383208
18,17,Jits_Phase_5,2,5,56,103,2484393404
18,17,Jits_Phase_5,3,5,63,98,2484412840
18,17,Jits_Phase_5,0,1,48,53,2484835284
18,17,Jits_Phase_5,1,5,63,98,2484852996
18,17,Jits_Phase_5,2,5,56,103,2484922920
18,17,Jits_Phase_5,3,5,80,127,2484925840
18,17,Jits_Phase_5,0,5,80,127,2485342704
18,17,Jits_Phase_5,1,1,48,44,2485378852
18,17,Jits_Phase_5,2,5,63,98,2485392676
18,17,Jits_Phase_5,3,5,56,103,2485432932
18,17,Jits_Phase_5,0,1,48,46,2485850464
18,17,Jits_Phase_5,1,5,63,98,2485883220
18,17,Jits_Phase_5,2,5,56,103,2485923160
18,17,Jits_Phase_5,3,5,80,127,2485933604
18,17,Jits_Phase_5,0,1,48,54,2486364224
18,17,Jits_Phase_5,1,5,63,98,2486372860
18,17,Jits_Phase_5,2,5,56,103,2486393320
18,17,Jits_Phase_5,3,5,80,127,2486412656
18,17,Jits_Phase_5,0,5,80,127,2486832612
18,17,Jits_Phase_5,1,1,48,66,2486838424
18,17,Jits_Phase_5,2,5,56,103,2486842652
18,17,Jits_Phase_5,3,5,63,98,2486863184
18,17,Jits_Phase_5,0,1,48,49,2487296152
18,17,Jits_Phase_5,1,5,63,98,2487362936
18,17,Jits_Phase_5,2,5,56,103,2487402932
18,17,Jits_Phase_5,3,5,80,127,2487432752
18,17,Jits_Phase_5,0,5,56,103,2487822684
18,17,Jits_Phase_5,1,1,48,52,2487848200
18,17,Jits_Phase_5,2,5,63,98,2487853548
18,17,Jits_Phase_5,3,5,80,127,2487883000
18,17,Jits_Phase_5,0,5,80,127,2488242748
18,17,Jits_Phase_5,1,5,56,103,2488313172
18,17,Jits_Phase_5,2,5,63,98,2488316316
18,17,Jits_Phase_5,3,1,48,45,2488326852
18,17,Jits_Phase_5,0,5,56,103,2488752692
18,17,Jits_Phase_5,1,1,48,36,2488783832
18,17,Jits_Phase_5,2,5,63,98,2488802816
18,17,Jits_Phase_5,3,5,80,127,2488833608
18,17,Jits_Phase_5,0,5,63,98,2489232732
18,17,Jits_Phase_5,1,5,80,127,2489236020
18,17,Jits_Phase_5,2,1,48,55,2489276552
18,17,Jits_Phase_5,3,5,56,103,2489293136
18,17,Jits_Phase_5,0,1,48,52,2489749584
18,17,Jits_Phase_5,1,5,56,103,2489763252
18,17,Jits_Phase_5,2,5,80,127,2489773772
18,17,Jits_Phase_5,3,5,63,98,2489822776
18,17,Jits_Phase_5,0,5,63,98,2490233196
18,17,Jits_Phase_5,1,1,48,54,2490239456
18,17,Jits_Phase_5,2,5,56,103,2490242636
18,17,Jits_Phase_5,3,5,80,127,2490273132
18,17,Jits_Phase_5,0,1,48,55,2490728628
18,17,Jits_Phase_5,1,5,63,98,2490762600
18,17,Jits_Phase_5,2,5,80,127,2490766036
18,17,Jits_Phase_5,3,5,56,103,2490793540
18,17,Jits_Phase_5,0,1,48,52,2491232276
18,17,Jits_Phase_5,1,5,63,98,2491282792
18,17,Jits_Phase_5,2,5,56,103,2491303320
18,17,Jits_Phase_5,3,5,80,127,2491306488
18,17,Jits_Phase_5,0,1,48,56,2491742080
18,17,Jits_Phase_5,1,5,63,98,2491743644
18,17,Jits_Phase_5,2,5,56,103,2491813252
18,17,Jits_Phase_5,3,5,80,127,2491832616
18,17,Jits_Phase_5,0,5,56,103,2492233068
18,17,Jits_Phase_5,1,5,63,98,2492243192
18,17,Jits_Phase_5,2,1,48,54,2492248924
18,17,Jits_Phase_5,3,5,80,127,2492333708
18,17,Jits_Phase_5,0,1,48,54,2492733100
18,17,Jits_Phase_5,1,5,56,103,2492753424
18,17,Jits_Phase_5,2,5,80,127,2492793364
18,17,Jits_Phase_5,3,5,63,98,2492802440
18,17,Jits_Phase_5,0,1,48,33,2493245660
18,17,Jits_Phase_5,1,5,56,103,2493272360
18,17,Jits_Phase_5,2,5,63,98,2493303084
18,17,Jits_Phase_5,3,5,80,127,2493332832
18,17,Jits_Phase_5,0,5,80,127,2493733088
18,17,Jits_Phase_5,1,1,48,60,2493734052
18,17,Jits_Phase_5,2,5,63,98,2493773168
18,17,Jits_Phase_5,3,5,56,103,2493792504
18,17,Jits_Phase_5,0,1,48,51,2494238576
18,17,Jits_Phase_5,1,5,56,103,2494272852
18,17,Jits_Phase_5,2,5,80,127,2494293384
18,17,Jits_Phase_5,3,5,63,98,2494312868
18,17,Jits_Phase_5,0,1,48,61,2494720812
18,17,Jits_Phase_5,1,5,63,98,2494742860
18,17,Jits_Phase_5,2,5,56,103,2494753132
18,17,Jits_Phase_5,3,5,80,127,2494812692
18,17,Jits_Phase_5,0,1,48,55,2495201756
18,17,Jits_Phase_5,1,5,56,103,2495242756
18,17,Jits_Phase_5,2,5,63,98,2495313244
18,17,Jits_Phase_5,3,5,80,127,2495332804
18,17,Jits_Phase_5,0,1,48,64,2495711472
18,17,Jits_Phase_5,1,5,56,103,2495752548
18,17,Jits_Phase_5,2,5,63,98,2495783492
18,17,Jits_Phase_5,3,5,80,127,2495823340
18,17,Jits_Phase_5,0,1,48,55,2496211220
18,17,Jits_Phase_5,1,5,63,98,2496243084
18,17,Jits_Phase_5,2,5,56,103,2496293504
18,17,Jits_Phase_5,3,5,80,127,2496302504
18,17,Jits_Phase_5,0,1,48,53,2496733136
18,17,Jits_Phase_5,1,5,56,103,2496782612
18,17,Jits_Phase_5,2,5,63,98,2496832872
18,17,Jits_Phase_5,3,5,80,127,2496843220
18,17,Jits_Phase_5,0,1,48,50,2497249664
18,17,Jits_Phase_5,1,5,56,103,2497252772
18,17,Jits_Phase_5,2,5,63,98,2497262820
18,17,Jits_Phase_5,3,5,80,127,2497343264
18,17,Jits_Phase_5,0,9999,9999,9999,2413011024
18,17,Jits_Phase_5,1,9999,9999,9999,2413510732
18,17,Jits_Phase_5,2,9999,9999,9999,2414010460
18,17,Jits_Phase_5,3,9999,9999,9999,2414510136
18,17,Jits_Phase_5,4,9999,9999,9999,2415010912
18,17,Jits_Phase_5,5,9999,9999,9999,2415510588
18,17,Jits_Phase_5,6,9999,9999,9999,2416010340
18,17,Jits_Phase_5,7,9999,9999,9999,2416511076
18,17,Jits_Phase_5,8,9999,9999,9999,2417010816
18,17,Jits_Phase_5,9,9999,9999,9999,2417510504
18,17,Jits_Phase_5,10,9999,9999,9999,2418010176
18,17,Jits_Phase_5,11,9999,9999,9999,2418510916
18,17,Jits_Phase_5,12,9999,9999,9999,2419010660
18,17,Jits_Phase_5,13,9999,9999,9999,2419510332
18,17,Jits_Phase_5,14,9999,9999,9999,2420011128
18,17,Jits_Phase_5,15,9999,9999,9999,2420521076
18,17,Jits_Phase_5,16,9999,9999,9999,2421020756
18,17,Jits_Phase_5,17,9999,9999,9999,2421520504
18,17,Jits_Phase_5,18,9999,9999,9999,2422020176
18,17,Jits_Phase_5,19,9999,9999,9999,2422520904
18,17,Jits_Phase_5,20,9999,9999,9999,2423020652
18,17,Jits_Phase_5,21,9999,9999,9999,2423520344
18,17,Jits_Phase_5,22,9999,9999,9999,2424021052
18,17,Jits_Phase_5,23,9999,9999,9999,2424520820
18,17,Jits_Phase_5,24,9999,9999,9999,2425020496
18,17,Jits_Phase_5,25,9999,9999,9999,2425520240
18,17,Jits_Phase_5,26,9999,9999,9999,2426020940
18,17,Jits_Phase_5,27,9999,9999,9999,2426520672
18,17,Jits_Phase_5,28,9999,9999,9999,2427020364
18,17,Jits_Phase_5,29,9999,9999,9999,2427520112
18,17,Jits_Phase_5,30,9999,9999,9999,2428010588
18,17,Jits_Phase_5,31,9999,9999,9999,2428510264
18,17,Jits_Phase_5,32,9999,9999,9999,2429011000
18,17,Jits_Phase_5,33,9999,9999,9999,2429510764
18,17,Jits_Phase_5,34,9999,9999,9999,2430010456
18,17,Jits_Phase_5,35,9999,9999,9999,2430510152
18,17,Jits_Phase_5,36,9999,9999,9999,2431010936
18,17,Jits_Phase_5,37,9999,9999,9999,2431510616
18,17,Jits_Phase_5,38,9999,9999,9999,2432010296
18,17,Jits_Phase_5,39,9999,9999,9999,2432511096
18,17,Jits_Phase_5,40,9999,9999,9999,2433010772
18,17,Jits_Phase_5,41,9999,9999,9999,2433510460
18,17,Jits_Phase_5,42,9999,9999,9999,2434010224
18,17,Jits_Phase_5,43,9999,9999,9999,2434510944
18,17,Jits_Phase_5,44,9999,9999,9999,2435010616
18,17,Jits_Phase_5,45,9999,9999,9999,2435510364
18,17,Jits_Phase_5,46,9999,9999,9999,2436011064
18,17,Jits_Phase_5,47,9999,9999,9999,2436521072
18,17,Jits_Phase_5,48,9999,9999,9999,2437031008
18,17,Jits_Phase_5,49,9999,9999,9999,2437530684
18,17,Jits_Phase_5,50,9999,9999,9999,2438030424
18,17,Jits_Phase_5,51,9999,9999,9999,2438530116
18,17,Jits_Phase_5,52,9999,9999,9999,2439030840
18,17,Jits_Phase_5,53,9999,9999,9999,2439530608
18,17,Jits_Phase_5,54,9999,9999,9999,2440030288
18,17,Jits_Phase_5,55,9999,9999,9999,2440531024
18,17,Jits_Phase_5,56,9999,9999,9999,2441030716
18,17,Jits_Phase_5,57,9999,9999,9999,2441530476
18,17,Jits_Phase_5,58,9999,9999,9999,2442030152
18,17,Jits_Phase_5,59,9999,9999,9999,2442530936
18,17,Jits_Phase_5,60,9999,9999,9999,2443030616
18,17,Jits_Phase_5,61,9999,9999,9999,2443530364
18,17,Jits_Phase_5,62,9999,9999,9999,2444031084
18,17,Jits_Phase_5,63,9999,9999,9999,2444530756
18,17,Jits_Phase_5,64,9999,9999,9999,2445050960
18,17,Jits_Phase_5,65,9999,9999,9999,2445550648
18,17,Jits_Phase_5,66,9999,9999,9999,2446050420
18,17,Jits_Phase_5,67,9999,9999,9999,2446550096
18,17,Jits_Phase_5,68,9999,9999,9999,2447050832
18,17,Jits_Phase_5,69,9999,9999,9999,2447550584
18,17,Jits_Phase_5,70,9999,9999,9999,2448050252
18,17,Jits_Phase_5,71,9999,9999,9999,2448551036
18,17,Jits_Phase_5,72,9999,9999,9999,2449050708
18,17,Jits_Phase_5,73,9999,9999,9999,2449550456
18,17,Jits_Phase_5,74,9999,9999,9999,2450050132
18,17,Jits_Phase_5,75,9999,9999,9999,2450550852
18,17,Jits_Phase_5,76,9999,9999,9999,2451050608
18,17,Jits_Phase_5,77,9999,9999,9999,2451550288
18,17,Jits_Phase_5,78,9999,9999,9999,2452051024
18,17,Jits_Phase_5,79,9999,9999,9999,2452550772
18,17,Jits_Phase_5,80,9999,9999,9999,2453050452
18,17,Jits_Phase_5,81,9999,9999,9999,2453530724
18,17,Jits_Phase_5,82,9999,9999,9999,2454030400
18,17,Jits_Phase_5,83,9999,9999,9999,2454530152
18,17,Jits_Phase_5,84,9999,9999,9999,2455030896
18,17,Jits_Phase_5,85,9999,9999,9999,2455530568
18,17,Jits_Phase_5,86,9999,9999,9999,2456030316
18,17,Jits_Phase_5,87,9999,9999,9999,2456531052
18,17,Jits_Phase_5,88,9999,9999,9999,2457030728
18,17,Jits_Phase_5,89,9999,9999,9999,2457530492
18,17,Jits_Phase_5,90,9999,9999,9999,2458030172
18,17,Jits_Phase_5,91,9999,9999,9999,2458530912
18,17,Jits_Phase_5,92,9999,9999,9999,2459030584
18,17,Jits_Phase_5,93,9999,9999,9999,2459530332
18,17,Jits_Phase_5,94,9999,9999,9999,2460031052
18,17,Jits_Phase_5,95,9999,9999,9999,2460530800
18,17,Jits_Phase_5,96,9999,9999,9999,2461030488
18,17,Jits_Phase_5,97,9999,9999,9999,2461481020
18,17,Jits_Phase_5,98,9999,9999,9999,2461980772
18,17,Jits_Phase_5,99,9999,9999,9999,2462480460
18,17,Jits_Phase_5,100,9999,9999,9999,2462980208
18,17,Jits_Phase_5,101,9999,9999,9999,2463480932
18,17,Jits_Phase_5,102,9999,9999,9999,2463980596
18,17,Jits_Phase_5,103,9999,9999,9999,2464480352
18,17,Jits_Phase_5,104,9999,9999,9999,2464981072
18,17,Jits_Phase_5,105,9999,9999,9999,2465480816
18,17,Jits_Phase_5,106,9999,9999,9999,2465980492
18,17,Jits_Phase_5,107,9999,9999,9999,2466480240
18,17,Jits_Phase_5,108,9999,9999,9999,2466980932
18,17,Jits_Phase_5,109,9999,9999,9999,2467480676
18,17,Jits_Phase_5,110,9999,9999,9999,2467980364
18,17,Jits_Phase_5,111,9999,9999,9999,2468480116
18,17,Jits_Phase_5,112,9999,9999,9999,2468980840
18,17,Jits_Phase_5,113,9999,9999,9999,2469480532
18,17,Jits_Phase_5,114,9999,9999,9999,2470030396
18,17,Jits_Phase_5,115,9999,9999,9999,2470530144
18,17,Jits_Phase_5,116,9999,9999,9999,2471030864
18,17,Jits_Phase_5,117,9999,9999,9999,2471530552
18,17,Jits_Phase_5,118,9999,9999,9999,2472030316
18,17,Jits_Phase_5,119,9999,9999,9999,2472531032
18,17,Jits_Phase_5,120,9999,9999,9999,2473030780
18,17,Jits_Phase_5,121,9999,9999,9999,2473530456
18,17,Jits_Phase_5,122,9999,9999,9999,2474030148
18,17,Jits_Phase_5,123,9999,9999,9999,2474530888
18,17,Jits_Phase_5,124,9999,9999,9999,2475030632
18,17,Jits_Phase_5,125,9999,9999,9999,2475530304
18,17,Jits_Phase_5,126,9999,9999,9999,2476031032
18,17,Jits_Phase_5,127,9999,9999,9999,2476530776
18,17,Jits_Phase_5,128,9999,9999,9999,2477030452
18,17,Jits_Phase_5,129,9999,9999,9999,2477530204
18,17,Jits_Phase_5,130,9999,9999,9999,2478030924
18,17,Jits_Phase_5,131,9999,9999,9999,2478631036
18,17,Jits_Phase_5,132,9999,9999,9999,2479130704
18,17,Jits_Phase_5,133,9999,9999,9999,2479630456
18,17,Jits_Phase_5,134,9999,9999,9999,2480130128
18,17,Jits_Phase_5,135,9999,9999,9999,2480630860
18,17,Jits_Phase_5,136,9999,9999,9999,2481130552
18,17,Jits_Phase_5,137,9999,9999,9999,2481630300
18,17,Jits_Phase_5,138,9999,9999,9999,2482131032
18,17,Jits_Phase_5,139,9999,9999,9999,2482630728
18,17,Jits_Phase_5,140,9999,9999,9999,2483130480
18,17,Jits_Phase_5,141,9999,9999,9999,2483630172
18,17,Jits_Phase_5,142,9999,9999,9999,2484130884
18,17,Jits_Phase_5,143,9999,9999,9999,2484630628
18,17,Jits_Phase_5,144,9999,9999,9999,2485130300
18,17,Jits_Phase_5,145,9999,9999,9999,2485631096
18,17,Jits_Phase_5,146,9999,9999,9999,2486130792
18,17,Jits_Phase_5,147,9999,9999,9999,2486630472
18,17,Jits_Phase_5,148,9999,9999,9999,2487130216
18,17,Jits_Phase_5,149,9999,9999,9999,2487630956
18,17,Jits_Phase_5,150,9999,9999,9999,2488030324
18,17,Jits_Phase_5,151,9999,9999,9999,2488531056
18,17,Jits_Phase_5,152,9999,9999,9999,2489030748
18,17,Jits_Phase_5,153,9999,9999,9999,2489530424
18,17,Jits_Phase_5,154,9999,9999,9999,2490030180
18,17,Jits_Phase_5,155,9999,9999,9999,2490530872
18,17,Jits_Phase_5,156,9999,9999,9999,2491030608
18,17,Jits_Phase_5,157,9999,9999,9999,2491530348
18,17,Jits_Phase_5,158,9999,9999,9999,2492031076
18,17,Jits_Phase_5,159,9999,9999,9999,2492530748
18,17,Jits_Phase_5,160,9999,9999,9999,2493030512
18,17,Jits_Phase_5,161,9999,9999,9999,2493530192
18,17,Jits_Phase_5,162,9999,9999,9999,2494030916
18,17,Jits_Phase_5,163,9999,9999,9999,2494530680
18,17,Jits_Phase_5,164,9999,9999,9999,2495030356
18,17,Jits_Phase_5,165,9999,9999,9999,2495531080
18,17,Jits_Phase_5,166,9999,9999,9999,2496041020
18,17,Jits_Phase_5,167,9999,9999,9999,2496540768
18,17,Jits_Phase_5,168,9999,9999,9999,2497040448
18,17,Jits_Phase_5,169,9999,9999,9999,2497540196
19,15,Jits_Phase_8,0,5,56,103,2507648496
19,15,Jits_Phase_8,1,5,63,98,2507651516
19,15,Jits_Phase_8,2,5,80,127,2507654416
19,15,Jits_Phase_8,0,5,56,103,2508448284
19,15,Jits_Phase_8,1,5,63,98,2508451388
19,15,Jits_Phase_8,2,5,80,127,2508454580
19,15,Jits_Phase_8,0,5,80,127,2509187412
19,15,Jits_Phase_8,1,1,48,58,2509189424
19,15,Jits_Phase_8,2,5,63,98,2509277492
19,15,Jits_Phase_8,3,5,56,103,2509287836
19,15,Jits_Phase_8,0,5,56,103,2510007592
19,15,Jits_Phase_8,1,5,63,98,2510017788
19,15,Jits_Phase_8,2,1,48,58,2510076648
19,15,Jits_Phase_8,3,5,80,127,2510107988
19,15,Jits_Phase_8,0,5,63,98,2510777700
19,15,Jits_Phase_8,1,5,80,127,2510808496
19,15,Jits_Phase_8,2,1,48,54,2510830120
19,15,Jits_Phase_8,3,5,56,103,2510838236
19,15,Jits_Phase_8,0,5,56,103,2511577452
19,15,Jits_Phase_8,1,1,48,46,2511620356
19,15,Jits_Phase_8,2,5,80,127,2511677916
19,15,Jits_Phase_8,3,5,63,98,2511728104
19,15,Jits_Phase_8,0,5,56,103,2512378424
19,15,Jits_Phase_8,1,5,80,127,2512428404
19,15,Jits_Phase_8,2,1,48,55,2512442832
19,15,Jits_Phase_8,3,5,63,98,2512468332
19,15,Jits_Phase_8,0,5,80,127,2513207644
19,15,Jits_Phase_8,1,1,48,58,2513220500
19,15,Jits_Phase_8,2,5,63,98,2513238360
19,15,Jits_Phase_8,3,5,56,103,2513307964
19,15,Jits_Phase_8,0,5,63,98,2514038060
19,15,Jits_Phase_8,1,5,56,103,2514067808
19,15,Jits_Phase_8,2,1,48,50,2514082092
19,15,Jits_Phase_8,3,5,80,127,2514128364
19,15,Jits_Phase_8,0,5,56,103,2514777436
19,15,Jits_Phase_8,1,5,80,127,2514780576
19,15,Jits_Phase_8,2,1,48,48,2514857372
19,15,Jits_Phase_8,3,5,63,98,2514898220
19,15,Jits_Phase_8,0,1,48,49,2515635788
19,15,Jits_Phase_8,1,5,56,103,2515658280
19,15,Jits_Phase_8,2,5,80,127,2515698444
19,15,Jits_Phase_8,3,5,63,98,2515708268
19,15,Jits_Phase_8,0,5,56,103,2516418120
19,15,Jits_Phase_8,1,5,80,127,2516438356
19,15,Jits_Phase_8,2,1,48,44,2516445532
19,15,Jits_Phase_8,3,5,63,98,2516518292
19,15,Jits_Phase_8,0,5,80,127,2517208536
19,15,Jits_Phase_8,1,1,48,51,2517264092
19,15,Jits_Phase_8,2,5,56,103,2517307656
19,15,Jits_Phase_8,3,5,63,98,2517318224
19,15,Jits_Phase_8,0,5,63,98,2517977448
19,15,Jits_Phase_8,1,5,80,127,2518037912
19,15,Jits_Phase_8,2,5,56,103,2518048256
19,15,Jits_Phase_8,3,1,48,54,2518056704
19,15,Jits_Phase_8,0,5,56,103,2518778176
19,15,Jits_Phase_8,1,1,48,48,2518782268
19,15,Jits_Phase_8,2,5,63,98,2518847924
19,15,Jits_Phase_8,3,5,80,127,2518851364
19,15,Jits_Phase_8,0,1,48,54,2519577760
19,15,Jits_Phase_8,1,5,63,98,2519607600
19,15,Jits_Phase_8,2,5,56,103,2519657876
19,15,Jits_Phase_8,3,5,80,127,2519661016
19,15,Jits_Phase_8,0,5,56,103,2520367492
19,15,Jits_Phase_8,1,5,80,127,2520370412
19,15,Jits_Phase_8,2,1,48,56,2520420432
19,15,Jits_Phase_8,3,5,63,98,2520457540
19,15,Jits_Phase_8,0,1,48,67,2521177192
19,15,Jits_Phase_8,1,5,63,98,2521208304
19,15,Jits_Phase_8,2,5,56,103,2521298300
19,15,Jits_Phase_8,3,5,80,127,2521328196
19,15,Jits_Phase_8,0,5,56,103,2521997812
19,15,Jits_Phase_8,1,1,48,62,2522029356
19,15,Jits_Phase_8,2,5,63,98,2522098152
19,15,Jits_Phase_8,3,5,80,127,2522128260
19,15,Jits_Phase_8,0,1,48,49,2522816328
19,15,Jits_Phase_8,1,5,63,98,2522817984
19,15,Jits_Phase_8,2,5,56,103,2522828328
19,15,Jits_Phase_8,3,5,80,127,2522918368
19,15,Jits_Phase_8,0,5,63,98,2523638280
19,15,Jits_Phase_8,1,1,48,53,2523650244
19,15,Jits_Phase_8,2,5,56,103,2523718140
19,15,Jits_Phase_8,3,5,80,127,2523721356
19,15,Jits_Phase_8,0,5,80,127,2524398100
19,15,Jits_Phase_8,1,5,63,98,2524418412
19,15,Jits_Phase_8,2,1,48,50,2524446260
19,15,Jits_Phase_8,3,5,56,103,2524477820
19,15,Jits_Phase_8,0,5,56,103,2525237656
19,15,Jits_Phase_8,1,5,63,98,2525258336
19,15,Jits_Phase_8,2,5,80,127,2525261404
19,15,Jits_Phase_8,3,1,48,42,2525286412
19,15,Jits_Phase_8,0,5,63,98,2525977928
19,15,Jits_Phase_8,1,1,48,48,2526046084
19,15,Jits_Phase_8,2,5,80,127,2526057868
19,15,Jits_Phase_8,3,5,56,103,2526068288
19,15,Jits_Phase_8,0,5,63,98,2526798140
19,15,Jits_Phase_8,1,5,56,103,2526817628
19,15,Jits_Phase_8,2,1,48,44,2526839032
19,15,Jits_Phase_8,3,5,80,127,2526867900
19,15,Jits_Phase_8,0,1,48,53,2527595928
19,15,Jits_Phase_8,1,5,80,127,2527598044
19,15,Jits_Phase_8,2,5,63,98,2527638280
19,15,Jits_Phase_8,3,5,56,103,2527658316
19,15,Jits_Phase_8,0,1,48,45,2528396952
19,15,Jits_Phase_8,1,5,56,103,2528437684
19,15,Jits_Phase_8,2,5,63,98,2528448176
19,15,Jits_Phase_8,3,5,80,127,2528468264
19,15,Jits_Phase_8,0,5,56,103,2529167820
19,15,Jits_Phase_8,1,1,48,47,2529223932
19,15,Jits_Phase_8,2,5,63,98,2529257972
19,15,Jits_Phase_8,3,5,80,127,2529318212
19,15,Jits_Phase_8,0,1,48,54,2529992908
19,15,Jits_Phase_8,1,5,80,127,2529998328
19,15,Jits_Phase_8,2,5,56,103,2530008452
19,15,Jits_Phase_8,3,5,63,98,2530078204
19,15,Jits_Phase_8,0,1,48,64,2530825796
19,15,Jits_Phase_8,1,5,63,98,2530827460
19,15,Jits_Phase_8,2,5,80,127,2530917876
19,15,Jits_Phase_8,3,5,56,103,2530928000
19,15,Jits_Phase_8,0,5,63,98,2531558004
19,15,Jits_Phase_8,1,5,80,127,2531608056
19,15,Jits_Phase_8,2,5,56,103,2531668296
19,15,Jits_Phase_8,3,1,48,52,2531678388
19,15,Jits_Phase_8,0,1,48,53,2532376248
19,15,Jits_Phase_8,1,5,56,103,2532377908
19,15,Jits_Phase_8,2,5,80,127,2532428184
19,15,Jits_Phase_8,3,5,63,98,2532447524
19,15,Jits_Phase_8,0,1,48,50,2533103760
19,15,Jits_Phase_8,1,5,56,103,2533148144
19,15,Jits_Phase_8,2,5,80,127,2533208448
19,15,Jits_Phase_8,3,5,63,98,2533278200
19,15,Jits_Phase_8,0,1,48,46,2533908468
19,15,Jits_Phase_8,1,5,56,103,2533947832
19,15,Jits_Phase_8,2,5,80,127,2533977432
19,15,Jits_Phase_8,3,5,63,98,2534008064
19,15,Jits_Phase_8,0,1,48,52,2534692784
19,15,Jits_Phase_8,1,5,56,103,2534787356
19,15,Jits_Phase_8,2,5,80,127,2534807888
19,15,Jits_Phase_8,3,5,63,98,2534868304
19,15,Jits_Phase_8,0,1,48,55,2535481008
19,15,Jits_Phase_8,1,5,80,127,2535668052
19,15,Jits_Phase_8,2,5,56,103,2535678324
19,15,Jits_Phase_8,3,5,63,98,2535687400
19,15,Jits_Phase_8,0,1,48,48,2536395892
19,15,Jits_Phase_8,1,5,56,103,2536427976
19,15,Jits_Phase_8,2,5,80,127,2536467988
19,15,Jits_Phase_8,3,5,63,98,2536497500
19,15,Jits_Phase_8,0,1,48,49,2537194964
19,15,Jits_Phase_8,1,5,56,103,2537197996
19,15,Jits_Phase_8,2,5,63,98,2537227896
19,15,Jits_Phase_8,3,5,80,127,2537267460
19,15,Jits_Phase_8,0,1,48,48,2537927604
19,15,Jits_Phase_8,1,5,80,127,2537947632
19,15,Jits_Phase_8,2,5,63,98,2537997760
19,15,Jits_Phase_8,3,5,56,103,2538018292
19,15,Jits_Phase_8,0,1,48,61,2538696796
19,15,Jits_Phase_8,1,5,56,103,2538777952
19,15,Jits_Phase_8,2,5,80,127,2538847992
19,15,Jits_Phase_8,3,5,63,98,2538908008
19,15,Jits_Phase_8,0,5,80,127,2539577872
19,15,Jits_Phase_8,1,1,48,50,2539611784
19,15,Jits_Phase_8,2,5,63,98,2539668000
19,15,Jits_Phase_8,3,5,56,103,2539688188
19,15,Jits_Phase_8,0,5,63,98,2540397956
19,15,Jits_Phase_8,1,5,56,103,2540418412
19,15,Jits_Phase_8,2,1,48,55,2540425048
19,15,Jits_Phase_8,3,5,80,127,2540458220
19,15,Jits_Phase_8,0,5,80,127,2541158004
19,15,Jits_Phase_8,1,5,63,98,2541178092
19,15,Jits_Phase_8,2,1,48,61,2541185268
19,15,Jits_Phase_8,3,5,56,103,2541258124
19,15,Jits_Phase_8,0,1,48,58,2541933840
19,15,Jits_Phase_8,1,5,63,98,2541948180
19,15,Jits_Phase_8,2,5,56,103,2542057800
19,15,Jits_Phase_8,3,5,80,127,2542061016
19,15,Jits_Phase_8,0,1,48,71,2542717564
19,15,Jits_Phase_8,1,5,63,98,2542767660
19,15,Jits_Phase_8,2,5,56,103,2542777928
19,15,Jits_Phase_8,3,5,80,127,2542780920
19,15,Jits_Phase_8,0,1,48,75,2543492352
19,15,Jits_Phase_8,1,5,56,103,2543547996
19,15,Jits_Phase_8,2,5,80,127,2543667860
19,15,Jits_Phase_8,3,5,63,98,2543707648
19,15,Jits_Phase_8,0,1,48,53,2544288148
19,15,Jits_Phase_8,1,5,56,103,2544368060
19,15,Jits_Phase_8,2,5,80,127,2544447916
19,15,Jits_Phase_8,3,5,63,98,2544468300
19,15,Jits_Phase_8,0,1,48,62,2545146816
19,15,Jits_Phase_8,1,5,56,103,2545168044
19,15,Jits_Phase_8,2,5,63,98,2545278388
19,15,Jits_Phase_8,3,5,80,127,2545281904
19,15,Jits_Phase_8,0,1,48,56,2545941392
19,15,Jits_Phase_8,1,5,56,103,2546008628
19,15,Jits_Phase_8,2,5,80,127,2546038008
19,15,Jits_Phase_8,3,5,63,98,2546057776
19,15,Jits_Phase_8,0,1,48,66,2546710508
19,15,Jits_Phase_8,1,5,63,98,2546797900
19,15,Jits_Phase_8,2,5,56,103,2546808156
19,15,Jits_Phase_8,3,5,80,127,2546818352
19,15,Jits_Phase_8,0,1,48,77,2547496020
19,15,Jits_Phase_8,1,5,80,127,2547587388
19,15,Jits_Phase_8,2,5,56,103,2547637752
19,15,Jits_Phase_8,3,5,63,98,2547677764
19,15,Jits_Phase_8,0,1,48,66,2548333920
19,15,Jits_Phase_8,1,5,80,127,2548407772
19,15,Jits_Phase_8,2,5,63,98,2548428220
19,15,Jits_Phase_8,3,5,56,103,2548478272
19,15,Jits_Phase_8,0,1,48,66,2549167052
19,15,Jits_Phase_8,1,5,80,127,2549217648
19,15,Jits_Phase_8,2,5,56,103,2549248444
19,15,Jits_Phase_8,3,5,63,98,2549318036
19,15,Jits_Phase_8,0,1,48,64,2549972204
19,15,Jits_Phase_8,1,5,56,103,2550067684
19,15,Jits_Phase_8,2,5,80,127,2550077792
19,15,Jits_Phase_8,3,5,63,98,2550117952
19,15,Jits_Phase_8,0,5,56,103,2550778224
19,15,Jits_Phase_8,1,5,63,98,2550797784
19,15,Jits_Phase_8,2,1,48,71,2550815724
19,15,Jits_Phase_8,3,5,80,127,2550868504
19,15,Jits_Phase_8,0,1,48,64,2551550684
19,15,Jits_Phase_8,1,5,63,98,2551597544
19,15,Jits_Phase_8,2,5,80,127,2551657844
19,15,Jits_Phase_8,3,5,56,103,2551678376
19,15,Jits_Phase_8,0,1,48,62,2552336448
19,15,Jits_Phase_8,1,5,80,127,2552387936
19,15,Jits_Phase_8,2,5,56,103,2552417612
19,15,Jits_Phase_8,3,5,63,98,2552448392
19,15,Jits_Phase_8,0,1,48,72,2553133196
19,15,Jits_Phase_8,1,5,56,103,2553187840
19,15,Jits_Phase_8,2,5,63,98,2553248144
19,15,Jits_Phase_8,3,5,80,127,2553307736
19,15,Jits_Phase_8,0,1,48,72,2553932356
19,15,Jits_Phase_8,1,5,80,127,2554007908
19,15,Jits_Phase_8,2,5,56,103,2554028824
19,15,Jits_Phase_8,3,5,63,98,2554098056
19,15,Jits_Phase_8,0,1,48,76,2554755728
19,15,Jits_Phase_8,1,5,80,127,2554807768
19,15,Jits_Phase_8,2,5,63,98,2554828152
19,15,Jits_Phase_8,3,5,56,103,2554857736
19,15,Jits_Phase_8,0,1,48,62,2555542064
19,15,Jits_Phase_8,1,5,80,127,2555598160
19,15,Jits_Phase_8,2,5,63,98,2555617648
19,15,Jits_Phase_8,3,5,56,103,2555678024
19,15,Jits_Phase_8,0,1,48,67,2556335792
19,15,Jits_Phase_8,1,5,80,127,2556397924
19,15,Jits_Phase_8,2,5,56,103,2556498380
19,15,Jits_Phase_8,3,5,63,98,2556528056
19,15,Jits_Phase_8,0,1,48,76,2557178112
19,15,Jits_Phase_8,1,5,63,98,2557187872
19,15,Jits_Phase_8,2,5,80,127,2557237552
19,15,Jits_Phase_8,3,5,56,103,2557258160
19,15,Jits_Phase_8,0,1,48,58,2557973960
19,15,Jits_Phase_8,1,5,80,127,2558028088
19,15,Jits_Phase_8,2,5,56,103,2558057912
19,15,Jits_Phase_8,3,5,63,98,2558060904
19,15,Jits_Phase_8,0,1,48,69,2558785720
19,15,Jits_Phase_8,1,5,63,98,2558879444
19,15,Jits_Phase_8,2,5,56,103,2558917988
19,15,Jits_Phase_8,3,5,80,127,2558937624
19,15,Jits_Phase_8,0,1,48,70,2559592136
19,15,Jits_Phase_8,1,5,80,127,2559637872
19,15,Jits_Phase_8,2,5,63,98,2559717676
19,15,Jits_Phase_8,3,5,56,103,2559757612
19,15,Jits_Phase_8,0,1,48,65,2560438756
19,15,Jits_Phase_8,1,5,63,98,2560468600
19,15,Jits_Phase_8,2,5,80,127,2560548156
19,15,Jits_Phase_8,3,5,56,103,2560567644
19,15,Jits_Phase_8,0,1,48,59,2561257928
19,15,Jits_Phase_8,1,5,56,103,2561318112
19,15,Jits_Phase_8,2,5,63,98,2561327632
19,15,Jits_Phase_8,3,5,80,127,2561368456
19,15,Jits_Phase_8,0,5,56,103,2562038084
19,15,Jits_Phase_8,1,5,80,127,2562041076
19,15,Jits_Phase_8,2,1,48,63,2562044792
19,15,Jits_Phase_8,3,5,63,98,2562178460
19,15,Jits_Phase_8,0,1,48,64,2562805812
19,15,Jits_Phase_8,1,5,56,103,2562827576
19,15,Jits_Phase_8,2,5,63,98,2562917696
19,15,Jits_Phase_8,3,5,80,127,2562988372
19,15,Jits_Phase_8,0,1,48,72,2563599208
19,15,Jits_Phase_8,1,5,63,98,2563708376
19,15,Jits_Phase_8,2,5,80,127,2563711668
19,15,Jits_Phase_8,3,5,56,103,2563767596
19,15,Jits_Phase_8,0,1,48,59,2564449152
19,15,Jits_Phase_8,1,5,80,127,2564547864
19,15,Jits_Phase_8,2,5,56,103,2564568472
19,15,Jits_Phase_8,3,5,63,98,2564577624
19,15,Jits_Phase_8,0,1,48,62,2565246532
19,15,Jits_Phase_8,1,5,56,103,2565257716
19,15,Jits_Phase_8,2,5,63,98,2565267836
19,15,Jits_Phase_8,3,5,80,127,2565337688
19,15,Jits_Phase_8,0,1,48,67,2565971576
19,15,Jits_Phase_8,1,5,80,127,2566058464
19,15,Jits_Phase_8,2,5,56,103,2566107384
19,15,Jits_Phase_8,3,5,63,98,2566157732
19,15,Jits_Phase_8,0,1,48,66,2566864936
19,15,Jits_Phase_8,1,5,56,103,2566937944
19,15,Jits_Phase_8,2,5,63,98,2566948140
19,15,Jits_Phase_8,3,5,80,127,2566988360
19,15,Jits_Phase_8,0,5,56,103,2567678524
19,15,Jits_Phase_8,1,1,48,54,2567691008
19,15,Jits_Phase_8,2,5,63,98,2567718532
19,15,Jits_Phase_8,3,5,80,127,2567768284
19,15,Jits_Phase_8,0,1,48,66,2568421248
19,15,Jits_Phase_8,1,5,80,127,2568438136
19,15,Jits_Phase_8,2,5,56,103,2568488636
19,15,Jits_Phase_8,3,5,63,98,2568507824
19,15,Jits_Phase_8,0,1,48,64,2569182644
19,15,Jits_Phase_8,1,5,80,127,2569248080
19,15,Jits_Phase_8,2,5,63,98,2569307484
19,15,Jits_Phase_8,3,5,56,103,2569388496
19,15,Jits_Phase_8,0,1,48,64,2570007732
19,15,Jits_Phase_8,1,5,80,127,2570028432
19,15,Jits_Phase_8,2,5,56,103,2570068296
19,15,Jits_Phase_8,3,5,63,98,2570087932
19,15,Jits_Phase_8,0,1,48,63,2570794584
19,15,Jits_Phase_8,1,5,56,103,2570878380
19,15,Jits_Phase_8,2,5,80,127,2570887592
19,15,Jits_Phase_8,3,5,63,98,2570927480
19,15,Jits_Phase_8,0,1,48,60,2571647996
19,15,Jits_Phase_8,1,5,56,103,2571747828
19,15,Jits_Phase_8,2,5,63,98,2571787616
19,15,Jits_Phase_8,3,5,80,127,2571791052
19,15,Jits_Phase_8,0,5,63,98,2572418492
19,15,Jits_Phase_8,1,5,80,127,2572458456
19,15,Jits_Phase_8,2,1,48,61,2572500236
19,15,Jits_Phase_8,3,5,56,103,2572528204
19,15,Jits_Phase_8,0,5,63,98,2573187312
19,15,Jits_Phase_8,1,1,48,61,2573215740
19,15,Jits_Phase_8,2,5,56,103,2573268320
19,15,Jits_Phase_8,3,5,80,127,2573327724
19,15,Jits_Phase_8,0,1,48,54,2573904384
19,15,Jits_Phase_8,1,5,80,127,2573997276
19,15,Jits_Phase_8,2,5,63,98,2574047464
19,15,Jits_Phase_8,3,5,56,103,2574078408
19,15,Jits_Phase_8,0,1,48,62,2574679796
19,15,Jits_Phase_8,1,5,56,103,2574787944
19,15,Jits_Phase_8,2,5,63,98,2574838224
19,15,Jits_Phase_8,3,5,80,127,2574848344
19,15,Jits_Phase_8,0,1,48,55,2575514748
19,15,Jits_Phase_8,1,5,56,103,2575597824
19,15,Jits_Phase_8,2,5,63,98,2575707496
19,15,Jits_Phase_8,3,5,80,127,2575728104
19,15,Jits_Phase_8,0,1,48,57,2576333564
19,15,Jits_Phase_8,1,5,63,98,2576397732
19,15,Jits_Phase_8,2,5,80,127,2576447992
19,15,Jits_Phase_8,3,5,56,103,2576537900
19,15,Jits_Phase_8,0,1,48,63,2577155884
19,15,Jits_Phase_8,1,5,63,98,2577188420
19,15,Jits_Phase_8,2,5,80,127,2577218020
19,15,Jits_Phase_8,3,5,56,103,2577307988
19,15,Jits_Phase_8,0,1,48,58,2577943040
19,15,Jits_Phase_8,1,5,63,98,2577988248
19,15,Jits_Phase_8,2,5,56,103,2577998368
19,15,Jits_Phase_8,3,5,80,127,2578097576
19,15,Jits_Phase_8,0,1,48,59,2578739356
19,15,Jits_Phase_8,1,5,63,98,2578888032
19,15,Jits_Phase_8,2,5,80,127,2578917784
19,15,Jits_Phase_8,3,5,56,103,2578947532
19,15,Jits_Phase_8,0,1,48,63,2579582492
19,15,Jits_Phase_8,1,5,80,127,2579708252
19,15,Jits_Phase_8,2,5,63,98,2579717552
19,15,Jits_Phase_8,3,5,56,103,2579748348
19,15,Jits_Phase_8,0,1,48,60,2580407268
19,15,Jits_Phase_8,1,5,80,127,2580408760
19,15,Jits_Phase_8,2,5,63,98,2580428320
19,15,Jits_Phase_8,3,5,56,103,2580478372
19,15,Jits_Phase_8,0,1,48,74,2581133236
19,15,Jits_Phase_8,1,5,63,98,2581238320
19,15,Jits_Phase_8,2,5,80,127,2581297516
19,15,Jits_Phase_8,3,5,56,103,2581318196
19,15,Jits_Phase_8,0,1,48,67,2581952576
19,15,Jits_Phase_8,1,5,63,98,2581998232
19,15,Jits_Phase_8,2,5,56,103,2582048136
19,15,Jits_Phase_8,3,5,80,127,2582058316
19,15,Jits_Phase_8,0,1,48,65,2582754796
19,15,Jits_Phase_8,1,5,56,103,2582828328
19,15,Jits_Phase_8,2,5,80,127,2582837556
19,15,Jits_Phase_8,3,5,63,98,2582938232
19,15,Jits_Phase_8,0,1,48,63,2583553360
19,15,Jits_Phase_8,1,5,80,127,2583588084
19,15,Jits_Phase_8,2,5,63,98,2583597528
19,15,Jits_Phase_8,3,5,56,103,2583748124
19,15,Jits_Phase_8,0,1,48,61,2584366088
19,15,Jits_Phase_8,1,5,63,98,2584398320
19,15,Jits_Phase_8,2,5,80,127,2584438408
19,15,Jits_Phase_8,3,5,56,103,2584518136
19,15,Jits_Phase_8,0,5,56,103,2585147740
19,15,Jits_Phase_8,1,5,80,127,2585248360
19,15,Jits_Phase_8,2,1,48,61,2585249400
19,15,Jits_Phase_8,3,5,63,98,2585267492
19,15,Jits_Phase_8,0,1,48,57,2585931976
19,15,Jits_Phase_8,1,5,80,127,2585968188
19,15,Jits_Phase_8,2,5,56,103,2585978384
19,15,Jits_Phase_8,3,5,63,98,2586068448
19,15,Jits_Phase_8,0,1,48,52,2586727920
19,15,Jits_Phase_8,1,5,56,103,2586767724
19,15,Jits_Phase_8,2,5,63,98,2586788336
19,15,Jits_Phase_8,3,5,80,127,2586868136
19,15,Jits_Phase_8,0,1,48,58,2587462716
19,15,Jits_Phase_8,1,5,63,98,2587518260
19,15,Jits_Phase_8,2,5,56,103,2587608324
19,15,Jits_Phase_8,3,5,80,127,2587611548
19,15,Jits_Phase_8,0,1,48,68,2588237740
19,15,Jits_Phase_8,1,5,56,103,2588347836
19,15,Jits_Phase_8,2,5,80,127,2588408156
19,15,Jits_Phase_8,3,5,63,98,2588418352
19,15,Jits_Phase_8,0,1,48,66,2589043632
19,15,Jits_Phase_8,1,5,80,127,2589197796
19,15,Jits_Phase_8,2,5,56,103,2589208368
19,15,Jits_Phase_8,3,5,63,98,2589211356
19,15,Jits_Phase_8,0,1,48,64,2589901332
19,15,Jits_Phase_8,1,5,56,103,2589957480
19,15,Jits_Phase_8,2,5,80,127,2589967824
19,15,Jits_Phase_8,3,5,63,98,2589988208
19,15,Jits_Phase_8,0,1,48,74,2590642500
19,15,Jits_Phase_8,1,5,63,98,2590727568
19,15,Jits_Phase_8,2,5,80,127,2590788092
19,15,Jits_Phase_8,3,5,56,103,2590838216
19,15,Jits_Phase_8,0,1,48,61,2591495068
19,15,Jits_Phase_8,1,5,63,98,2591608076
19,15,Jits_Phase_8,2,5,56,103,2591618272
19,15,Jits_Phase_8,3,5,80,127,2591667452
19,15,Jits_Phase_8,0,5,63,98,2592307544
19,15,Jits_Phase_8,1,5,80,127,2592328224
19,15,Jits_Phase_8,2,5,56,103,2592338420
19,15,Jits_Phase_8,3,1,48,62,2592341912
19,15,Jits_Phase_8,0,1,48,43,2593076396
19,15,Jits_Phase_8,1,5,63,98,2593108332
19,15,Jits_Phase_8,2,5,80,127,2593111548
19,15,Jits_Phase_8,3,5,56,103,2593148268
19,15,Jits_Phase_8,0,1,48,56,2593857176
19,15,Jits_Phase_8,1,5,63,98,2593977688
19,15,Jits_Phase_8,2,5,80,127,2594008408
19,15,Jits_Phase_8,3,5,56,103,2594017556
19,15,Jits_Phase_8,0,5,56,103,2594728316
19,15,Jits_Phase_8,1,1,48,63,2594750020
19,15,Jits_Phase_8,2,5,80,127,2594758060
19,15,Jits_Phase_8,3,5,63,98,2594787884
19,15,Jits_Phase_8,0,1,48,59,2595421416
19,15,Jits_Phase_8,1,5,63,98,2595628388
19,15,Jits_Phase_8,2,5,56,103,2595668400
19,15,Jits_Phase_8,3,5,80,127,2595671692
19,15,Jits_Phase_8,0,5,80,127,2596327996
19,15,Jits_Phase_8,1,1,48,50,2596396752
19,15,Jits_Phase_8,2,5,56,103,2596407936
19,15,Jits_Phase_8,3,5,63,98,2596458208
19,15,Jits_Phase_8,0,5,80,127,2597108068
19,15,Jits_Phase_8,1,5,56,103,2597127480
19,15,Jits_Phase_8,2,1,48,55,2597144004
19,15,Jits_Phase_8,3,5,63,98,2597217604
19,15,Jits_Phase_8,0,1,48,65,2597868320
19,15,Jits_Phase_8,1,5,80,127,2597947836
19,15,Jits_Phase_8,2,5,63,98,2597987836
19,15,Jits_Phase_8,3,5,56,103,2598027624
19,15,Jits_Phase_8,0,1,48,48,2598644172
19,15,Jits_Phase_8,1,5,63,98,2598757848
19,15,Jits_Phase_8,2,5,80,127,2598818016
19,15,Jits_Phase_8,3,5,56,103,2598848088
19,15,Jits_Phase_8,0,1,48,54,2599515788
19,15,Jits_Phase_8,1,5,56,103,2599597500
19,15,Jits_Phase_8,2,5,80,127,2599628056
19,15,Jits_Phase_8,3,5,63,98,2599718112
19,15,Jits_Phase_8,0,1,48,57,2600394152
19,15,Jits_Phase_8,1,5,56,103,2600408416
19,15,Jits_Phase_8,2,5,80,127,2600518016
19,15,Jits_Phase_8,3,5,63,98,2600547768
19,15,Jits_Phase_8,0,1,48,60,2601211592
19,15,Jits_Phase_8,1,5,56,103,2601258300
19,15,Jits_Phase_8,2,5,63,98,2601317780
19,15,Jits_Phase_8,3,5,80,127,2601347452
19,15,Jits_Phase_8,0,1,48,60,2602021324
19,15,Jits_Phase_8,1,5,56,103,2602028468
19,15,Jits_Phase_8,2,5,63,98,2602098076
19,15,Jits_Phase_8,3,5,80,127,2602117476
19,15,Jits_Phase_8,0,5,80,127,2602797296
19,15,Jits_Phase_8,1,1,48,51,2602803104
19,15,Jits_Phase_8,2,5,63,98,2602817900
19,15,Jits_Phase_8,3,5,56,103,2602867952
19,15,Jits_Phase_8,0,1,48,62,2603587368
19,15,Jits_Phase_8,1,5,63,98,2603617736
19,15,Jits_Phase_8,2,5,80,127,2603627856
19,15,Jits_Phase_8,3,5,56,103,2603678056
19,15,Jits_Phase_8,0,1,48,62,2604349204
19,15,Jits_Phase_8,1,5,63,98,2604418384
19,15,Jits_Phase_8,2,5,80,127,2604488004
19,15,Jits_Phase_8,3,5,56,103,2604507564
19,15,Jits_Phase_8,0,1,48,70,2605157588
19,15,Jits_Phase_8,1,5,63,98,2605247840
19,15,Jits_Phase_8,2,5,80,127,2605252012
19,15,Jits_Phase_8,3,5,56,103,2605317428
19,15,Jits_Phase_8,0,5,80,127,2605997476
19,15,Jits_Phase_8,1,1,48,60,2606004856
19,15,Jits_Phase_8,2,5,56,103,2606018000
19,15,Jits_Phase_8,3,5,63,98,2606028272
19,15,Jits_Phase_8,0,1,48,59,2606782292
19,15,Jits_Phase_8,1,5,56,103,2606817764
19,15,Jits_Phase_8,2,5,63,98,2606907952
19,15,Jits_Phase_8,3,5,80,127,2606911244
19,15,Jits_Phase_8,0,5,80,127,2607587844
19,15,Jits_Phase_8,1,5,56,103,2607597892
19,15,Jits_Phase_8,2,1,48,55,2607613668
19,15,Jits_Phase_8,3,5,63,98,2607618344
19,15,Jits_Phase_8,0,1,48,48,2608335420
19,15,Jits_Phase_8,1,5,63,98,2608387528
19,15,Jits_Phase_8,2,5,80,127,2608447980
19,15,Jits_Phase_8,3,5,56,103,2608458176
19,15,Jits_Phase_8,0,1,48,47,2609147844
19,15,Jits_Phase_8,1,5,63,98,2609257840
19,15,Jits_Phase_8,2,5,80,127,2609287740
19,15,Jits_Phase_8,3,5,56,103,2609327480
19,15,Jits_Phase_8,0,1,48,52,2610018636
19,15,Jits_Phase_8,1,5,56,103,2610048476
19,15,Jits_Phase_8,2,5,80,127,2610057776
19,15,Jits_Phase_8,3,5,63,98,2610097816
19,15,Jits_Phase_8,0,1,48,50,2610796372
19,15,Jits_Phase_8,1,5,80,127,2610808084
19,15,Jits_Phase_8,2,5,56,103,2610887980
19,15,Jits_Phase_8,3,5,63,98,2610898236
19,15,Jits_Phase_8,0,1,48,59,2611617260
19,15,Jits_Phase_8,1,5,80,127,2611658212
19,15,Jits_Phase_8,2,5,56,103,2611737996
19,15,Jits_Phase_8,3,5,63,98,2611748268
19,15,Jits_Phase_8,0,1,48,58,2612448740
19,15,Jits_Phase_8,1,5,80,127,2612497764
19,15,Jits_Phase_8,2,5,56,103,2612548024
19,15,Jits_Phase_8,3,5,63,98,2612598152
19,15,Jits_Phase_8,0,1,48,54,2613325964
19,15,Jits_Phase_8,1,5,56,103,2613437920
19,15,Jits_Phase_8,2,5,63,98,2613441064
19,15,Jits_Phase_8,3,5,80,127,2613488048
19,15,Jits_Phase_8,0,1,48,58,2614153196
19,15,Jits_Phase_8,1,5,56,103,2614257908
19,15,Jits_Phase_8,2,5,63,98,2614287732
19,15,Jits_Phase_8,3,5,80,127,2614297928
19,15,Jits_Phase_8,0,5,63,98,2614967640
19,15,Jits_Phase_8,1,5,56,103,2615038220
19,15,Jits_Phase_8,2,1,48,41,2615070856
19,15,Jits_Phase_8,3,5,80,127,2615087516
19,15,Jits_Phase_8,0,5,63,98,2615798044
19,15,Jits_Phase_8,1,5,56,103,2615808312
19,15,Jits_Phase_8,2,5,80,127,2615811304
19,15,Jits_Phase_8,3,1,48,48,2615879672
19,15,Jits_Phase_8,0,5,80,127,2616547808
19,15,Jits_Phase_8,1,5,56,103,2616608052
19,15,Jits_Phase_8,2,1,48,51,2616633040
19,15,Jits_Phase_8,3,5,63,98,2616698172
19,15,Jits_Phase_8,0,5,80,127,2617347580
19,15,Jits_Phase_8,1,1,48,60,2617404108
19,15,Jits_Phase_8,2,5,56,103,2617447748
19,15,Jits_Phase_8,3,5,63,98,2617487832
19,15,Jits_Phase_8,0,5,56,103,2618198596
19,15,Jits_Phase_8,1,5,63,98,2618217712
19,15,Jits_Phase_8,2,1,48,53,2618232216
19,15,Jits_Phase_8,3,5,80,127,2618257716
19,15,Jits_Phase_8,0,5,63,98,2618968848
19,15,Jits_Phase_8,1,5,56,103,2618987816
19,15,Jits_Phase_8,2,1,48,61,2619019776
19,15,Jits_Phase_8,3,5,80,127,2619088376
19,15,Jits_Phase_8,0,5,63,98,2619757896
19,15,Jits_Phase_8,1,1,48,53,2619767016
19,15,Jits_Phase_8,2,5,80,127,2619867736
19,15,Jits_Phase_8,3,5,56,103,2619898156
19,15,Jits_Phase_8,0,5,56,103,2620578036
19,15,Jits_Phase_8,1,5,63,98,2620607812
19,15,Jits_Phase_8,2,1,48,61,2620623288
19,15,Jits_Phase_8,3,5,80,127,2620658080
19,15,Jits_Phase_8,0,5,63,98,2621348092
19,15,Jits_Phase_8,1,5,56,103,2621377840
19,15,Jits_Phase_8,2,1,48,65,2621399168
19,15,Jits_Phase_8,3,5,80,127,2621428032
19,15,Jits_Phase_8,0,1,48,54,2622146772
19,15,Jits_Phase_8,1,5,56,103,2622177732
19,15,Jits_Phase_8,2,5,63,98,2622198192
19,15,Jits_Phase_8,3,5,80,127,2622277972
19,15,Jits_Phase_8,0,1,48,68,2622899616
19,15,Jits_Phase_8,1,5,63,98,2622947668
19,15,Jits_Phase_8,2,5,56,103,2623008192
19,15,Jits_Phase_8,3,5,80,127,2623037940
19,15,Jits_Phase_8,0,1,48,75,2623683852
19,15,Jits_Phase_8,1,5,56,103,2623788608
19,15,Jits_Phase_8,2,5,80,127,2623847876
19,15,Jits_Phase_8,3,5,63,98,2623887740
19,15,Jits_Phase_8,0,5,63,98,2624567636
19,15,Jits_Phase_8,1,5,56,103,2624627956
19,15,Jits_Phase_8,2,1,48,57,2624647860
19,15,Jits_Phase_8,3,5,80,127,2624697652
19,15,Jits_Phase_8,0,1,48,49,2625426404
19,15,Jits_Phase_8,1,5,56,103,2625448252
19,15,Jits_Phase_8,2,5,63,98,2625457624
19,15,Jits_Phase_8,3,5,80,127,2625460912
19,15,Jits_Phase_8,0,1,48,48,2626160368
19,15,Jits_Phase_8,1,5,63,98,2626187592
19,15,Jits_Phase_8,2,5,56,103,2626248080
19,15,Jits_Phase_8,3,5,80,127,2626251000
19,15,Jits_Phase_8,0,1,48,51,2626924968
19,15,Jits_Phase_8,1,5,63,98,2626967784
19,15,Jits_Phase_8,2,5,80,127,2626997632
19,15,Jits_Phase_8,3,5,56,103,2627018016
19,15,Jits_Phase_8,0,5,56,103,2627698012
19,15,Jits_Phase_8,1,1,48,41,2627729976
19,15,Jits_Phase_8,2,5,63,98,2627748084
19,15,Jits_Phase_8,3,5,80,127,2627828084
19,15,Jits_Phase_8,0,5,80,127,2628397548
19,15,Jits_Phase_8,1,5,63,98,2628438460
19,15,Jits_Phase_8,2,5,56,103,2628457800
19,15,Jits_Phase_8,3,1,48,49,2628469532
19,15,Jits_Phase_8,0,1,48,57,2629141544
19,15,Jits_Phase_8,1,5,56,103,2629267724
19,15,Jits_Phase_8,2,5,80,127,2629277920
19,15,Jits_Phase_8,3,5,63,98,2629297580
19,15,Jits_Phase_8,0,1,48,49,2629956144
19,15,Jits_Phase_8,1,5,56,103,2630048392
19,15,Jits_Phase_8,2,5,63,98,2630098456
19,15,Jits_Phase_8,3,5,80,127,2630127908
19,15,Jits_Phase_8,0,1,48,52,2630761520
19,15,Jits_Phase_8,1,5,56,103,2630797584
19,15,Jits_Phase_8,2,5,63,98,2630807780
19,15,Jits_Phase_8,3,5,80,127,2630858660
19,15,Jits_Phase_8,0,1,48,39,2631503796
19,15,Jits_Phase_8,1,5,56,103,2631588364
19,15,Jits_Phase_8,2,5,80,127,2631591432
19,15,Jits_Phase_8,3,5,63,98,2631748076
19,15,Jits_Phase_8,0,5,63,98,2632408576
19,15,Jits_Phase_8,1,1,48,54,2632425716
19,15,Jits_Phase_8,2,5,56,103,2632478100
19,15,Jits_Phase_8,3,5,80,127,2632518112
19,15,Jits_Phase_8,0,1,48,50,2633211740
19,15,Jits_Phase_8,1,5,63,98,2633248332
19,15,Jits_Phase_8,2,5,56,103,2633338300
19,15,Jits_Phase_8,3,5,80,127,2633341296
19,15,Jits_Phase_8,0,5,56,103,2634028392
19,15,Jits_Phase_8,1,1,48,57,2634087560
19,15,Jits_Phase_8,2,5,63,98,2634117476
19,15,Jits_Phase_8,3,5,80,127,2634127596
19,15,Jits_Phase_8,0,5,56,103,2634797380
19,15,Jits_Phase_8,1,1,48,55,2634805060
19,15,Jits_Phase_8,2,5,63,98,2634847576
19,15,Jits_Phase_8,3,5,80,127,2634878444
19,15,Jits_Phase_8,0,1,48,58,2635543912
19,15,Jits_Phase_8,1,5,63,98,2635678488
19,15,Jits_Phase_8,2,5,80,127,2635688336
19,15,Jits_Phase_8,3,5,56,103,2635747680
19,15,Jits_Phase_8,0,1,48,57,2636374912
19,15,Jits_Phase_8,1,5,63,98,2636397876
19,15,Jits_Phase_8,2,5,80,127,2636458220
19,15,Jits_Phase_8,3,5,56,103,2636498216
19,15,Jits_Phase_8,0,1,48,58,2637119764
19,15,Jits_Phase_8,1,5,56,103,2637297892
19,15,Jits_Phase_8,2,5,80,127,2637317600
19,15,Jits_Phase_8,3,5,63,98,2637337908
19,15,Jits_Phase_8,0,5,63,98,2638017812
19,15,Jits_Phase_8,1,1,48,57,2638021376
19,15,Jits_Phase_8,2,5,56,103,2638038560
19,15,Jits_Phase_8,3,5,80,127,2638078348
19,15,Jits_Phase_8,0,1,48,54,2638797304
19,15,Jits_Phase_8,1,5,63,98,2638828044
19,15,Jits_Phase_8,2,5,80,127,2638857644
19,15,Jits_Phase_8,3,5,56,103,2638878180
19,15,Jits_Phase_8,0,1,48,61,2639590160
19,15,Jits_Phase_8,1,5,80,127,2639597908
19,15,Jits_Phase_8,2,5,56,103,2639648256
19,15,Jits_Phase_8,3,5,63,98,2639707512
19,15,Jits_Phase_8,0,5,63,98,2640387408
19,15,Jits_Phase_8,1,1,48,59,2640436460
19,15,Jits_Phase_8,2,5,56,103,2640508252
19,15,Jits_Phase_8,3,5,80,127,2640537908
19,15,Jits_Phase_8,0,5,80,127,2641228072
19,15,Jits_Phase_8,1,5,63,98,2641247484
19,15,Jits_Phase_8,2,1,48,22,2641248452
19,15,Jits_Phase_8,3,5,56,103,2641318376
19,15,Jits_Phase_8,0,1,48,63,2642003900
19,15,Jits_Phase_8,1,5,63,98,2642048516
19,15,Jits_Phase_8,2,5,56,103,2642057588
19,15,Jits_Phase_8,3,5,80,127,2642137320
19,15,Jits_Phase_8,0,1,48,57,2642814748
19,15,Jits_Phase_8,1,5,56,103,2642907488
19,15,Jits_Phase_8,2,5,80,127,2642938420
19,15,Jits_Phase_8,3,5,63,98,2642947348
19,15,Jits_Phase_8,0,9999,9999,9999,2508045408
19,15,Jits_Phase_8,1,9999,9999,9999,2508845128
19,15,Jits_Phase_8,2,9999,9999,9999,2509645892
19,15,Jits_Phase_8,3,9999,9999,9999,2510445664
19,15,Jits_Phase_8,4,9999,9999,9999,2511245436
19,15,Jits_Phase_8,5,9999,9999,9999,2512045148
19,15,Jits_Phase_8,6,9999,9999,9999,2512845892
19,15,Jits_Phase_8,7,9999,9999,9999,2513645668
19,15,Jits_Phase_8,8,9999,9999,9999,2514445372
19,15,Jits_Phase_8,9,9999,9999,9999,2515245116
19,15,Jits_Phase_8,10,9999,9999,9999,2516045948
19,15,Jits_Phase_8,11,9999,9999,9999,2516845636
19,15,Jits_Phase_8,12,9999,9999,9999,2517645416
19,15,Jits_Phase_8,13,9999,9999,9999,2518445140
19,15,Jits_Phase_8,14,9999,9999,9999,2519245932
19,15,Jits_Phase_8,15,9999,9999,9999,2520045696
19,15,Jits_Phase_8,16,9999,9999,9999,2520845436
19,15,Jits_Phase_8,17,9999,9999,9999,2521645144
19,15,Jits_Phase_8,18,9999,9999,9999,2522445880
19,15,Jits_Phase_8,19,9999,9999,9999,2523245652
19,15,Jits_Phase_8,20,9999,9999,9999,2524045408
19,15,Jits_Phase_8,21,9999,9999,9999,2524845116
19,15,Jits_Phase_8,22,9999,9999,9999,2525645928
19,15,Jits_Phase_8,23,9999,9999,9999,2526445624
19,15,Jits_Phase_8,24,9999,9999,9999,2527245384
19,15,Jits_Phase_8,25,9999,9999,9999,2528045140
19,15,Jits_Phase_8,26,9999,9999,9999,2528845944
19,15,Jits_Phase_8,27,9999,9999,9999,2529645632
19,15,Jits_Phase_8,28,9999,9999,9999,2530445400
19,15,Jits_Phase_8,29,9999,9999,9999,2531245120
19,15,Jits_Phase_8,30,9999,9999,9999,2532025468
19,15,Jits_Phase_8,31,9999,9999,9999,2532825156
19,15,Jits_Phase_8,32,9999,9999,9999,2533625960
19,15,Jits_Phase_8,33,9999,9999,9999,2534425712
19,15,Jits_Phase_8,34,9999,9999,9999,2535225400
19,15,Jits_Phase_8,35,9999,9999,9999,2536025168
19,15,Jits_Phase_8,36,9999,9999,9999,2536825980
19,15,Jits_Phase_8,37,9999,9999,9999,2537625664
19,15,Jits_Phase_8,38,9999,9999,9999,2538425444
19,15,Jits_Phase_8,39,9999,9999,9999,2539225204
19,15,Jits_Phase_8,40,9999,9999,9999,2540025940
19,15,Jits_Phase_8,41,9999,9999,9999,2540825712
19,15,Jits_Phase_8,42,9999,9999,9999,2541625396
19,15,Jits_Phase_8,43,9999,9999,9999,2542425160
19,15,Jits_Phase_8,44,9999,9999,9999,2543225952
19,15,Jits_Phase_8,45,9999,9999,9999,2544025712
19,15,Jits_Phase_8,46,9999,9999,9999,2544825424
19,15,Jits_Phase_8,47,9999,9999,9999,2545625176
19,15,Jits_Phase_8,48,9999,9999,9999,2546445388
19,15,Jits_Phase_8,49,9999,9999,9999,2547245140
19,15,Jits_Phase_8,50,9999,9999,9999,2548045948
19,15,Jits_Phase_8,51,9999,9999,9999,2548845632
19,15,Jits_Phase_8,52,9999,9999,9999,2549645392
19,15,Jits_Phase_8,53,9999,9999,9999,2550445112
19,15,Jits_Phase_8,54,9999,9999,9999,2551245912
19,15,Jits_Phase_8,55,9999,9999,9999,2552045684
19,15,Jits_Phase_8,56,9999,9999,9999,2552845368
19,15,Jits_Phase_8,57,9999,9999,9999,2553645132
19,15,Jits_Phase_8,58,9999,9999,9999,2554445936
19,15,Jits_Phase_8,59,9999,9999,9999,2555245620
19,15,Jits_Phase_8,60,9999,9999,9999,2556045384
19,15,Jits_Phase_8,61,9999,9999,9999,2556845176
19,15,Jits_Phase_8,62,9999,9999,9999,2557645908
19,15,Jits_Phase_8,63,9999,9999,9999,2558445656
19,15,Jits_Phase_8,64,9999,9999,9999,2559285356
19,15,Jits_Phase_8,65,9999,9999,9999,2560086092
19,15,Jits_Phase_8,66,9999,9999,9999,2560896124
19,15,Jits_Phase_8,67,9999,9999,9999,2561706100
19,15,Jits_Phase_8,68,9999,9999,9999,2562505844
19,15,Jits_Phase_8,69,9999,9999,9999,2563305540
19,15,Jits_Phase_8,70,9999,9999,9999,2564105288
19,15,Jits_Phase_8,71,9999,9999,9999,2564906104
19,15,Jits_Phase_8,72,9999,9999,9999,2565705784
19,15,Jits_Phase_8,73,9999,9999,9999,2566505540
19,15,Jits_Phase_8,74,9999,9999,9999,2567305308
19,15,Jits_Phase_8,75,9999,9999,9999,2568106064
19,15,Jits_Phase_8,76,9999,9999,9999,2568905832
19,15,Jits_Phase_8,77,9999,9999,9999,2569705592
19,15,Jits_Phase_8,78,9999,9999,9999,2570505268
19,15,Jits_Phase_8,79,9999,9999,9999,2571306072
19,15,Jits_Phase_8,80,9999,9999,9999,2572105832
19,15,Jits_Phase_8,81,9999,9999,9999,2572865660
19,15,Jits_Phase_8,82,9999,9999,9999,2573665344
19,15,Jits_Phase_8,83,9999,9999,9999,2574465096
19,15,Jits_Phase_8,84,9999,9999,9999,2575265892
19,15,Jits_Phase_8,85,9999,9999,9999,2576065600
19,15,Jits_Phase_8,86,9999,9999,9999,2576865356
19,15,Jits_Phase_8,87,9999,9999,9999,2577665108
19,15,Jits_Phase_8,88,9999,9999,9999,2578465908
19,15,Jits_Phase_8,89,9999,9999,9999,2579265600
19,15,Jits_Phase_8,90,9999,9999,9999,2580065368
19,15,Jits_Phase_8,91,9999,9999,9999,2580865120
19,15,Jits_Phase_8,92,9999,9999,9999,2581665856
19,15,Jits_Phase_8,93,9999,9999,9999,2582465628
19,15,Jits_Phase_8,94,9999,9999,9999,2583265392
19,15,Jits_Phase_8,95,9999,9999,9999,2584065144
19,15,Jits_Phase_8,96,9999,9999,9999,2584865872
19,15,Jits_Phase_8,97,9999,9999,9999,2585585768
19,15,Jits_Phase_8,98,9999,9999,9999,2586385468
19,15,Jits_Phase_8,99,9999,9999,9999,2587185232
19,15,Jits_Phase_8,100,9999,9999,9999,2587986024
19,15,Jits_Phase_8,101,9999,9999,9999,2588785784
19,15,Jits_Phase_8,102,9999,9999,9999,2589585464
19,15,Jits_Phase_8,103,9999,9999,9999,2590385244
19,15,Jits_Phase_8,104,9999,9999,9999,2591185976
19,15,Jits_Phase_8,105,9999,9999,9999,2591985740
19,15,Jits_Phase_8,106,9999,9999,9999,2592785492
19,15,Jits_Phase_8,107,9999,9999,9999,2593585228
19,15,Jits_Phase_8,108,9999,9999,9999,2594386036
19,15,Jits_Phase_8,109,9999,9999,9999,2595185716
19,15,Jits_Phase_8,110,9999,9999,9999,2595985492
19,15,Jits_Phase_8,111,9999,9999,9999,2596785280
19,15,Jits_Phase_8,112,9999,9999,9999,2597586020
19,15,Jits_Phase_8,113,9999,9999,9999,2598385720
19,15,Jits_Phase_8,114,9999,9999,9999,2599265340
19,15,Jits_Phase_8,115,9999,9999,9999,2600065096
19,15,Jits_Phase_8,116,9999,9999,9999,2600865908
19,15,Jits_Phase_8,117,9999,9999,9999,2601665620
19,15,Jits_Phase_8,118,9999,9999,9999,2602465380
19,15,Jits_Phase_8,119,9999,9999,9999,2603265136
19,15,Jits_Phase_8,120,9999,9999,9999,2604065876
19,15,Jits_Phase_8,121,9999,9999,9999,2604865632
19,15,Jits_Phase_8,122,9999,9999,9999,2605665384
19,15,Jits_Phase_8,123,9999,9999,9999,2606465136
19,15,Jits_Phase_8,124,9999,9999,9999,2607265876
19,15,Jits_Phase_8,125,9999,9999,9999,2608065644
19,15,Jits_Phase_8,126,9999,9999,9999,2608865340
19,15,Jits_Phase_8,127,9999,9999,9999,2609665100
19,15,Jits_Phase_8,128,9999,9999,9999,2610465908
19,15,Jits_Phase_8,129,9999,9999,9999,2611265596
19,15,Jits_Phase_8,130,9999,9999,9999,2612065360
19,15,Jits_Phase_8,131,9999,9999,9999,2613025916
19,15,Jits_Phase_8,132,9999,9999,9999,2613825592
19,15,Jits_Phase_8,133,9999,9999,9999,2614625360
19,15,Jits_Phase_8,134,9999,9999,9999,2615425120
19,15,Jits_Phase_8,135,9999,9999,9999,2616225912
19,15,Jits_Phase_8,136,9999,9999,9999,2617025616
19,15,Jits_Phase_8,137,9999,9999,9999,2617825388
19,15,Jits_Phase_8,138,9999,9999,9999,2618625088
19,15,Jits_Phase_8,139,9999,9999,9999,2619425904
19,15,Jits_Phase_8,140,9999,9999,9999,2620225592
19,15,Jits_Phase_8,141,9999,9999,9999,2621025348
19,15,Jits_Phase_8,142,9999,9999,9999,2621825120
19,15,Jits_Phase_8,143,9999,9999,9999,2622625852
19,15,Jits_Phase_8,144,9999,9999,9999,2623425628
19,15,Jits_Phase_8,145,9999,9999,9999,2624225384
19,15,Jits_Phase_8,146,9999,9999,9999,2625025144
19,15,Jits_Phase_8,147,9999,9999,9999,2625825868
19,15,Jits_Phase_8,148,9999,9999,9999,2626625612
19,15,Jits_Phase_8,149,9999,9999,9999,2627425364
19,15,Jits_Phase_8,150,9999,9999,9999,2628065396
19,15,Jits_Phase_8,151,9999,9999,9999,2628865092
19,15,Jits_Phase_8,152,9999,9999,9999,2629665916
19,15,Jits_Phase_8,153,9999,9999,9999,2630465600
19,15,Jits_Phase_8,154,9999,9999,9999,2631265356
19,15,Jits_Phase_8,155,9999,9999,9999,2632065100
19,15,Jits_Phase_8,156,9999,9999,9999,2632865904
19,15,Jits_Phase_8,157,9999,9999,9999,2633665612
19,15,Jits_Phase_8,158,9999,9999,9999,2634465372
19,15,Jits_Phase_8,159,9999,9999,9999,2635265144
19,15,Jits_Phase_8,160,9999,9999,9999,2636065896
19,15,Jits_Phase_8,161,9999,9999,9999,2636865648
19,15,Jits_Phase_8,162,9999,9999,9999,2637665344
19,15,Jits_Phase_8,163,9999,9999,9999,2638465096
19,15,Jits_Phase_8,164,9999,9999,9999,2639265900
19,15,Jits_Phase_8,165,9999,9999,9999,2640065604
19,15,Jits_Phase_8,166,9999,9999,9999,2640865368
19,15,Jits_Phase_8,167,9999,9999,9999,2641665124
19,15,Jits_Phase_8,168,9999,9999,9999,2642465872
19,15,Jits_Phase_8,169,9999,9999,9999,2643265636
20,5,ISIP_5,0,5,42,127,2734433764
20,5,ISIP_5,1,5,42,127,2734934376
20,5,ISIP_5,2,1,48,47,2735390296
20,5,ISIP_5,3,5,42,127,2735434012
20,5,ISIP_5,4,1,48,57,2735925668
20,5,ISIP_5,5,5,42,127,2735933780
20,5,ISIP_5,6,5,42,127,2736433708
20,5,ISIP_5,7,1,48,55,2736451640
20,5,ISIP_5,8,5,42,127,2736934224
20,5,ISIP_5,9,1,48,50,2736945424
20,5,ISIP_5,10,1,48,48,2737424004
20,5,ISIP_5,11,5,42,127,2737433912
20,5,ISIP_5,12,5,42,127,2737933912
20,5,ISIP_5,13,1,48,49,2737945484
20,5,ISIP_5,14,1,48,48,2738419580
20,5,ISIP_5,15,5,42,127,2738434500
20,5,ISIP_5,16,1,48,38,2738888236
20,5,ISIP_5,17,5,42,127,2738934120
20,5,ISIP_5,18,1,48,52,2739393316
20,5,ISIP_5,19,5,42,127,2739433816
20,5,ISIP_5,20,1,48,51,2739915976
20,5,ISIP_5,21,5,42,127,2739933808
20,5,ISIP_5,22,1,48,52,2740419708
20,5,ISIP_5,23,5,42,127,2740434324
20,5,ISIP_5,24,1,48,45,2740919700
20,5,ISIP_5,25,5,42,127,2740934096
20,5,ISIP_5,26,1,48,47,2741419248
20,5,ISIP_5,27,5,42,127,2741433640
20,5,ISIP_5,28,1,48,45,2741902008
20,5,ISIP_5,29,5,42,127,2741933632
20,5,ISIP_5,30,1,48,42,2742422876
20,5,ISIP_5,31,5,42,127,2742434076
20,5,ISIP_5,32,1,48,37,2742898856
20,5,ISIP_5,33,5,42,127,2742933748
20,5,ISIP_5,34,1,48,44,2743389276
20,5,ISIP_5,35,5,42,127,2743433444
20,5,ISIP_5,36,1,48,46,2743919040
20,5,ISIP_5,37,5,42,127,2743934404
20,5,ISIP_5,38,5,42,127,2744433960
20,5,ISIP_5,39,1,48,48,2744456600
20,5,ISIP_5,40,5,42,127,2744933728
20,5,ISIP_5,41,1,48,45,2744942980
20,5,ISIP_5,42,1,48,46,2745420216
20,5,ISIP_5,43,5,42,127,2745433488
20,5,ISIP_5,44,1,48,46,2745899936
20,5,ISIP_5,45,5,42,127,2745934304
20,5,ISIP_5,46,5,42,127,2746433860
20,5,ISIP_5,47,1,48,44,2746445652
20,5,ISIP_5,48,5,42,127,2746933700
20,5,ISIP_5,49,1,48,40,2746948560
20,5,ISIP_5,50,5,42,127,2747434444
20,5,ISIP_5,51,1,48,46,2747442204
20,5,ISIP_5,52,5,42,127,2747933992
20,5,ISIP_5,53,1,48,46,2747944292
20,5,ISIP_5,54,1,48,60,2748418684
20,5,ISIP_5,55,5,42,127,2748433904
20,5,ISIP_5,56,1,48,54,2748920104
20,5,ISIP_5,57,5,42,127,2748933452
20,5,ISIP_5,58,1,48,43,2749419124
20,5,ISIP_5,59,5,42,127,2749434416
20,5,ISIP_5,60,1,48,45,2749933216
20,5,ISIP_5,61,5,42,127,2749934636
20,5,ISIP_5,62,1,48,40,2750411256
20,5,ISIP_5,63,5,42,127,2750433508
20,5,ISIP_5,64,1,48,43,2750924192
20,5,ISIP_5,65,5,42,127,2750934324
20,5,ISIP_5,66,5,42,127,2751433952
20,5,ISIP_5,67,1,48,51,2751440584
20,5,ISIP_5,68,5,42,127,2751933796
20,5,ISIP_5,69,1,48,53,2751966908
20,5,ISIP_5,70,5,42,127,2752433492
20,5,ISIP_5,71,1,48,41,2752438408
20,5,ISIP_5,72,1,48,48,2752933028
20,5,ISIP_5,73,5,42,127,2752934524
20,5,ISIP_5,74,5,42,127,2753434052
20,5,ISIP_5,75,1,48,49,2753438688
20,5,ISIP_5,76,5,42,127,2753933600
20,5,ISIP_5,77,1,48,47,2753946820
20,5,ISIP_5,78,1,48,42,2754431980
20,5,ISIP_5,79,1,48,51,2754980180
20,5,ISIP_5,80,1,48,49,2755456060
20,5,ISIP_5,81,1,48,54,2755952160
20,5,ISIP_5,82,1,48,54,2756448560
20,5,ISIP_5,83,1,48,50,2756976224
20,5,ISIP_5,84,1,48,49,2757466784
20,5,ISIP_5,85,1,48,48,2757978444
20,5,ISIP_5,86,1,48,53,2758482176
20,5,ISIP_5,87,1,48,44,2758980668
20,5,ISIP_5,88,1,48,47,2759471160
20,5,ISIP_5,89,1,48,48,2759973836
20,5,ISIP_5,90,1,48,48,2760482960
20,5,ISIP_5,91,1,48,47,2761002544
20,5,ISIP_5,92,1,48,54,2761561624
20,5,ISIP_5,93,1,48,48,2762079788
20,5,ISIP_5,94,1,48,50,2762605660
20,5,ISIP_5,95,1,48,45,2763136168
20,5,ISIP_5,96,1,48,43,2763655304
20,5,ISIP_5,97,1,48,55,2764183792
20,5,ISIP_5,98,1,48,50,2764719260
20,5,ISIP_5,99,1,48,56,2765269880
20,5,ISIP_5,100,1,48,49,2765812284
20,5,ISIP_5,101,1,48,45,2766352140
20,5,ISIP_5,102,1,48,49,2766879956
20,5,ISIP_5,103,1,48,49,2767416296
20,5,ISIP_5,104,1,48,38,2767930724
20,5,ISIP_5,105,1,48,52,2768455936
20,5,ISIP_5,106,1,48,44,2769004620
20,5,ISIP_5,107,1,48,36,2769515224
20,5,ISIP_5,108,1,48,47,2770039152
20,5,ISIP_5,109,1,48,54,2770568084
20,5,ISIP_5,110,1,48,48,2771077872
20,5,ISIP_5,111,1,48,28,2771644232
20,5,ISIP_5,112,1,48,41,2772150584
20,5,ISIP_5,113,1,48,49,2772642120
20,5,ISIP_5,114,1,48,48,2773161628
20,5,ISIP_5,115,1,48,50,2773715548
20,5,ISIP_5,116,1,48,52,2774225708
20,5,ISIP_5,117,1,48,49,2774726676
20,5,ISIP_5,118,1,48,43,2775241400
20,5,ISIP_5,119,1,48,46,2775769736
20,5,ISIP_5,120,1,48,52,2776303016
20,5,ISIP_5,121,1,48,52,2776848556
20,5,ISIP_5,122,1,48,47,2777351084
20,5,ISIP_5,123,1,48,53,2777901416
20,5,ISIP_5,124,1,48,51,2778453036
20,5,ISIP_5,125,1,48,52,2778988100
20,5,ISIP_5,126,1,48,50,2779490256
20,5,ISIP_5,127,1,48,53,2779999300
20,5,ISIP_5,128,1,48,51,2780554188
20,5,ISIP_5,129,1,48,47,2781098408
20,5,ISIP_5,130,1,48,55,2781626380
20,5,ISIP_5,131,1,48,53,2782143120
20,5,ISIP_5,132,1,48,54,2782661736
20,5,ISIP_5,133,1,48,57,2783180796
20,5,ISIP_5,134,1,48,52,2783728060
20,5,ISIP_5,135,1,48,55,2784251384
20,5,ISIP_5,136,1,48,55,2784788776
20,5,ISIP_5,137,1,48,52,2785343364
20,5,ISIP_5,138,1,48,55,2785843732
20,5,ISIP_5,139,1,48,43,2786372892
20,5,ISIP_5,140,1,48,53,2786948292
20,5,ISIP_5,141,1,48,48,2787504924
20,5,ISIP_5,142,1,48,51,2788020100
20,5,ISIP_5,143,1,48,51,2788541932
20,5,ISIP_5,144,1,48,43,2789069896
20,5,ISIP_5,145,1,48,50,2789602872
20,5,ISIP_5,146,1,48,46,2790122608
20,5,ISIP_5,147,1,48,49,2790615420
20,5,ISIP_5,148,1,48,51,2791146000
20,5,ISIP_5,149,1,48,50,2791660200
20,5,ISIP_5,150,1,48,44,2792178144
20,5,ISIP_5,151,1,48,50,2792685016
20,5,ISIP_5,152,1,48,44,2793212160
20,5,ISIP_5,153,1,48,41,2793768840
20,5,ISIP_5,154,1,48,49,2794309448
20,5,ISIP_5,155,1,48,49,2794813328
20,5,ISIP_5,156,1,48,51,2795313620
20,5,ISIP_5,157,1,48,50,2795825500
20,5,ISIP_5,158,1,48,41,2796330352
20,5,ISIP_5,159,1,48,46,2796844184
20,5,ISIP_5,160,1,48,48,2797371020
20,5,ISIP_5,161,1,48,47,2797849968
20,5,ISIP_5,162,1,48,47,2798359084
20,5,ISIP_5,163,1,48,47,2798872016
20,5,ISIP_5,164,1,48,52,2799409028
20,5,ISIP_5,165,1,48,46,2799950320
20,5,ISIP_5,166,1,48,47,2800444852
20,5,ISIP_5,167,1,48,45,2800937956
20,5,ISIP_5,168,1,48,50,2801441916
20,5,ISIP_5,169,1,48,55,2801944748
20,5,ISIP_5,170,1,48,51,2802450120
20,5,ISIP_5,171,1,48,55,2802956020
20,5,ISIP_5,172,1,48,49,2803459304
20,5,ISIP_5,173,1,48,47,2803991756
20,5,ISIP_5,174,1,48,56,2804516720
20,5,ISIP_5,175,1,48,52,2805041400
20,5,ISIP_5,176,1,48,51,2805552004
20,5,ISIP_5,177,1,48,57,2806067928
20,5,ISIP_5,178,1,48,55,2806588116
20,5,ISIP_5,179,1,48,51,2807132536
20,5,ISIP_5,180,1,48,51,2807626540
20,5,ISIP_5,181,1,48,47,2808157868
20,5,ISIP_5,182,1,48,51,2808718892
20,5,ISIP_5,183,1,48,48,2809240876
20,5,ISIP_5,184,1,48,50,2809758688
20,5,ISIP_5,185,1,48,55,2810266312
20,5,ISIP_5,186,1,48,50,2810803848
20,5,ISIP_5,187,1,48,52,2811360236
20,5,ISIP_5,188,1,48,51,2811880572
20,5,ISIP_5,189,1,48,46,2812410552
20,5,ISIP_5,190,1,48,49,2812920416
20,5,ISIP_5,191,1,48,48,2813461860
20,5,ISIP_5,192,1,48,54,2813971948
20,5,ISIP_5,0,9999,9999,9999,2734431328
20,5,ISIP_5,1,9999,9999,9999,2734932092
20,5,ISIP_5,2,9999,9999,9999,2735431800
20,5,ISIP_5,3,9999,9999,9999,2735931496
20,5,ISIP_5,4,9999,9999,9999,2736431196
20,5,ISIP_5,5,9999,9999,9999,2736931940
20,5,ISIP_5,6,9999,9999,9999,2737431628
20,5,ISIP_5,7,9999,9999,9999,2737931328
20,5,ISIP_5,8,9999,9999,9999,2738432064
20,5,ISIP_5,9,9999,9999,9999,2738931832
20,5,ISIP_5,10,9999,9999,9999,2739431528
20,5,ISIP_5,11,9999,9999,9999,2739931224
20,5,ISIP_5,12,9999,9999,9999,2740431964
20,5,ISIP_5,13,9999,9999,9999,2740931660
20,5,ISIP_5,14,9999,9999,9999,2741431356
20,5,ISIP_5,15,9999,9999,9999,2741931124
20,5,ISIP_5,16,9999,9999,9999,2742431864
20,5,ISIP_5,17,9999,9999,9999,2742931536
20,5,ISIP_5,18,9999,9999,9999,2743431228
20,5,ISIP_5,19,9999,9999,9999,2743931972
20,5,ISIP_5,20,9999,9999,9999,2744431672
20,5,ISIP_5,21,9999,9999,9999,2744931440
20,5,ISIP_5,22,9999,9999,9999,2745431128
20,5,ISIP_5,23,9999,9999,9999,2745931868
20,5,ISIP_5,24,9999,9999,9999,2746431572
20,5,ISIP_5,25,9999,9999,9999,2746931268
20,5,ISIP_5,26,9999,9999,9999,2747432008
20,5,ISIP_5,27,9999,9999,9999,2747931704
20,5,ISIP_5,28,9999,9999,9999,2748431468
20,5,ISIP_5,29,9999,9999,9999,2748931164
20,5,ISIP_5,30,9999,9999,9999,2749431908
20,5,ISIP_5,31,9999,9999,9999,2749931608
20,5,ISIP_5,32,9999,9999,9999,2750431296
20,5,ISIP_5,33,9999,9999,9999,2750932036
20,5,ISIP_5,34,9999,9999,9999,2751431740
20,5,ISIP_5,35,9999,9999,9999,2751931508
20,5,ISIP_5,36,9999,9999,9999,2752431204
20,5,ISIP_5,37,9999,9999,9999,2752931948
20,5,ISIP_5,38,9999,9999,9999,2753431616
20,5,ISIP_5,39,9999,9999,9999,2753931312
20,5,ISIP_5,40,9999,9999,9999,2754432048
20,5,ISIP_5,41,9999,9999,9999,2754931820
20,5,ISIP_5,42,9999,9999,9999,2755431512
20,5,ISIP_5,43,9999,9999,9999,2755931200
20,5,ISIP_5,44,9999,9999,9999,2756431936
20,5,ISIP_5,45,9999,9999,9999,2756931704
20,5,ISIP_5,46,9999,9999,9999,2757431392
20,5,ISIP_5,47,9999,9999,9999,2757931084
20,5,ISIP_5,48,9999,9999,9999,2758431820
20,5,ISIP_5,49,9999,9999,9999,2758931508
20,5,ISIP_5,50,9999,9999,9999,2759431276
20,5,ISIP_5,51,9999,9999,9999,2759932012
20,5,ISIP_5,52,9999,9999,9999,2760431704
20,5,ISIP_5,53,9999,9999,9999,2760931396
20,5,ISIP_5,54,9999,9999,9999,2761431160
20,5,ISIP_5,55,9999,9999,9999,2761931896
20,5,ISIP_5,56,9999,9999,9999,2762431588
20,5,ISIP_5,57,9999,9999,9999,2762931280
20,5,ISIP_5,58,9999,9999,9999,2763432016
20,5,ISIP_5,59,9999,9999,9999,2763931704
20,5,ISIP_5,60,9999,9999,9999,2764431444
20,5,ISIP_5,61,9999,9999,9999,2764931136
20,5,ISIP_5,62,9999,9999,9999,2765431872
20,5,ISIP_5,63,9999,9999,9999,2765931640
20,5,ISIP_5,64,9999,9999,9999,2766431344
20,5,ISIP_5,65,9999,9999,9999,2766932080
20,5,ISIP_5,66,9999,9999,9999,2767431772
20,5,ISIP_5,67,9999,9999,9999,2767931464
20,5,ISIP_5,68,9999,9999,9999,2768431160
20,5,ISIP_5,69,9999,9999,9999,2768931896
20,5,ISIP_5,70,9999,9999,9999,2769431660
20,5,ISIP_5,71,9999,9999,9999,2769931352
20,5,ISIP_5,72,9999,9999,9999,2770432088
20,5,ISIP_5,73,9999,9999,9999,2770931780
20,5,ISIP_5,74,9999,9999,9999,2771431544
20,5,ISIP_5,75,9999,9999,9999,2771931232
20,5,ISIP_5,76,9999,9999,9999,2772431972
20,5,ISIP_5,77,9999,9999,9999,2772931664
20,5,ISIP_5,78,9999,9999,9999,2773431352
20,5,ISIP_5,79,9999,9999,9999,2773931116
20,5,ISIP_5,80,9999,9999,9999,2774431856
20,5,ISIP_5,81,9999,9999,9999,2774931520
20,5,ISIP_5,82,9999,9999,9999,2775431288
20,5,ISIP_5,83,9999,9999,9999,2775932024
20,5,ISIP_5,84,9999,9999,9999,2776431716
20,5,ISIP_5,85,9999,9999,9999,2776931424
20,5,ISIP_5,86,9999,9999,9999,2777431112
20,5,ISIP_5,87,9999,9999,9999,2777931852
20,5,ISIP_5,88,9999,9999,9999,2778431548
20,5,ISIP_5,89,9999,9999,9999,2778931312
20,5,ISIP_5,90,9999,9999,9999,2779432048
20,5,ISIP_5,91,9999,9999,9999,2779931740
20,5,ISIP_5,92,9999,9999,9999,2780431432
20,5,ISIP_5,93,9999,9999,9999,2780931124
20,5,ISIP_5,94,9999,9999,9999,2781431860
20,5,ISIP_5,95,9999,9999,9999,2781931624
20,5,ISIP_5,96,9999,9999,9999,2782431316
20,5,ISIP_5,97,9999,9999,9999,2782932056
20,5,ISIP_5,98,9999,9999,9999,2783431744
20,5,ISIP_5,99,9999,9999,9999,2783931508
20,5,ISIP_5,100,9999,9999,9999,2784431204
20,5,ISIP_5,101,9999,9999,9999,2784931940
20,5,ISIP_5,102,9999,9999,9999,2785431620
20,5,ISIP_5,103,9999,9999,9999,2785931384
20,5,ISIP_5,104,9999,9999,9999,2786432124
20,5,ISIP_5,105,9999,9999,9999,2786931820
20,5,ISIP_5,106,9999,9999,9999,2787431508
20,5,ISIP_5,107,9999,9999,9999,2787931200
20,5,ISIP_5,108,9999,9999,9999,2788431936
20,5,ISIP_5,109,9999,9999,9999,2788931704
20,5,ISIP_5,110,9999,9999,9999,2789431392
20,5,ISIP_5,111,9999,9999,9999,2789931084
20,5,ISIP_5,112,9999,9999,9999,2790431824
20,5,ISIP_5,113,9999,9999,9999,2790931512
20,5,ISIP_5,114,9999,9999,9999,2791431280
20,5,ISIP_5,115,9999,9999,9999,2791932016
20,5,ISIP_5,116,9999,9999,9999,2792431712
20,5,ISIP_5,117,9999,9999,9999,2792931400
20,5,ISIP_5,118,9999,9999,9999,2793431092
20,5,ISIP_5,119,9999,9999,9999,2793931832
20,5,ISIP_5,120,9999,9999,9999,2794431596
20,5,ISIP_5,121,9999,9999,9999,2794931288
20,5,ISIP_5,122,9999,9999,9999,2795432024
20,5,ISIP_5,123,9999,9999,9999,2795931712
20,5,ISIP_5,124,9999,9999,9999,2796431456
20,5,ISIP_5,125,9999,9999,9999,2796931160
20,5,ISIP_5,126,9999,9999,9999,2797431896
20,5,ISIP_5,127,9999,9999,9999,2797931640
20,5,ISIP_5,128,9999,9999,9999,2798431332
20,5,ISIP_5,129,9999,9999,9999,2798932068
20,5,ISIP_5,130,9999,9999,9999,2799431760
20,5,ISIP_5,131,9999,9999,9999,2799931456
20,5,ISIP_5,132,9999,9999,9999,2800431224
20,5,ISIP_5,133,9999,9999,9999,2800931960
20,5,ISIP_5,134,9999,9999,9999,2801431652
20,5,ISIP_5,135,9999,9999,9999,2801931344
20,5,ISIP_5,136,9999,9999,9999,2802432080
20,5,ISIP_5,137,9999,9999,9999,2802931768
20,5,ISIP_5,138,9999,9999,9999,2803431536
20,5,ISIP_5,139,9999,9999,9999,2803931224
20,5,ISIP_5,140,9999,9999,9999,2804431964
20,5,ISIP_5,141,9999,9999,9999,2804931656
20,5,ISIP_5,142,9999,9999,9999,2805431420
20,5,ISIP_5,143,9999,9999,9999,2805931112
20,5,ISIP_5,144,9999,9999,9999,2806431848
20,5,ISIP_5,145,9999,9999,9999,2806931512
20,5,ISIP_5,146,9999,9999,9999,2807431276
20,5,ISIP_5,147,9999,9999,9999,2807932012
20,5,ISIP_5,148,9999,9999,9999,2808431704
20,5,ISIP_5,149,9999,9999,9999,2808931396
20,5,ISIP_5,150,9999,9999,9999,2809431160
20,5,ISIP_5,151,9999,9999,9999,2809931824
20,5,ISIP_5,152,9999,9999,9999,2810431592
20,5,ISIP_5,153,9999,9999,9999,2810931280
20,5,ISIP_5,154,9999,9999,9999,2811432036
20,5,ISIP_5,155,9999,9999,9999,2811931724
20,5,ISIP_5,156,9999,9999,9999,2812431416
20,5,ISIP_5,157,9999,9999,9999,2812931180
20,5,ISIP_5,158,9999,9999,9999,2813431924
20,5,ISIP_5,159,9999,9999,9999,2813931616
21,3,ISIP_8,0,5,42,127,2840165884
21,3,ISIP_8,1,5,42,127,2840965492
21,3,ISIP_8,2,5,42,127,2841766168
21,3,ISIP_8,3,1,48,45,2841810952
21,3,ISIP_8,4,5,42,127,2842566052
21,3,ISIP_8,5,1,48,41,2842607316
21,3,ISIP_8,6,5,42,127,2843365932
21,3,ISIP_8,7,1,48,53,2843424104
21,3,ISIP_8,8,5,42,127,2844165520
21,3,ISIP_8,9,1,48,59,2844209996
21,3,ISIP_8,10,5,42,127,2844966148
21,3,ISIP_8,11,1,48,55,2844990812
21,3,ISIP_8,12,5,42,127,2845765956
21,3,ISIP_8,13,1,48,52,2845770872
21,3,ISIP_8,14,5,42,127,2846565692
21,3,ISIP_8,15,1,48,48,2846594244
21,3,ISIP_8,16,1,48,61,2847338376
21,3,ISIP_8,17,5,42,127,2847365416
21,3,ISIP_8,18,5,42,127,2848166304
21,3,ISIP_8,19,1,48,69,2848179892
21,3,ISIP_8,20,5,42,127,2848966112
21,3,ISIP_8,21,1,48,56,2849009396
21,3,ISIP_8,22,5,42,127,2849765920
21,3,ISIP_8,23,1,48,66,2849852736
21,3,ISIP_8,24,5,42,127,2850565428
21,3,ISIP_8,25,1,48,72,2850572812
21,3,ISIP_8,26,5,42,127,2851366208
21,3,ISIP_8,27,1,48,64,2851373144
21,3,ISIP_8,28,5,42,127,2852165940
21,3,ISIP_8,29,1,48,67,2852176168
21,3,ISIP_8,30,5,42,127,2852965896
21,3,ISIP_8,31,1,48,57,2853010376
21,3,ISIP_8,32,1,48,66,2853736796
21,3,ISIP_8,33,5,42,127,2853765920
21,3,ISIP_8,34,1,48,59,2854553908
21,3,ISIP_8,35,5,42,127,2854566132
21,3,ISIP_8,36,5,42,127,2855365872
21,3,ISIP_8,37,1,48,63,2855375196
21,3,ISIP_8,38,1,48,59,2856144024
21,3,ISIP_8,39,5,42,127,2856165820
21,3,ISIP_8,40,5,42,127,2856965412
21,3,ISIP_8,41,1,48,54,2857001440
21,3,ISIP_8,42,5,42,127,2857766268
21,3,ISIP_8,43,1,48,63,2857772900
21,3,ISIP_8,44,5,42,127,2858565928
21,3,ISIP_8,45,1,48,62,2858582732
21,3,ISIP_8,46,1,48,62,2859350508
21,3,ISIP_8,47,5,42,127,2859365800
21,3,ISIP_8,48,1,48,61,2860151736
21,3,ISIP_8,49,5,42,127,2860165684
21,3,ISIP_8,50,1,48,60,2860952844
21,3,ISIP_8,51,5,42,127,2860966192
21,3,ISIP_8,52,1,48,57,2861740684
21,3,ISIP_8,53,5,42,127,2861766076
21,3,ISIP_8,54,1,48,61,2862561136
21,3,ISIP_8,55,5,42,127,2862565808
21,3,ISIP_8,56,1,48,69,2863333720
21,3,ISIP_8,57,5,42,127,2863365688
21,3,ISIP_8,58,1,48,62,2864174232
21,3,ISIP_8,59,1,48,73,2864988916
21,3,ISIP_8,60,1,48,63,2865812356
21,3,ISIP_8,61,1,48,59,2866680476
21,3,ISIP_8,62,1,48,58,2867511324
21,3,ISIP_8,63,1,48,54,2868327952
21,3,ISIP_8,64,1,48,63,2869133444
21,3,ISIP_8,65,1,48,60,2870005672
21,3,ISIP_8,66,1,48,61,2870871376
21,3,ISIP_8,67,1,48,52,2871701624
21,3,ISIP_8,68,1,48,73,2872543184
21,3,ISIP_8,69,1,48,58,2873409260
21,3,ISIP_8,70,1,48,65,2874226640
21,3,ISIP_8,71,1,48,62,2875094980
21,3,ISIP_8,72,1,48,73,2875928296
21,3,ISIP_8,73,1,48,62,2876809484
21,3,ISIP_8,74,1,48,63,2877622404
21,3,ISIP_8,75,1,48,59,2878495280
21,3,ISIP_8,76,1,48,64,2879355668
21,3,ISIP_8,77,1,48,60,2880210116
21,3,ISIP_8,78,1,48,64,2881066988
21,3,ISIP_8,79,1,48,64,2881948872
21,3,ISIP_8,80,1,48,54,2882789592
21,3,ISIP_8,81,1,48,58,2883623204
21,3,ISIP_8,82,1,48,65,2884507476
21,3,ISIP_8,83,1,48,49,2885399132
21,3,ISIP_8,84,1,48,61,2886228336
21,3,ISIP_8,85,1,48,67,2887128764
21,3,ISIP_8,86,1,48,61,2887964620
21,3,ISIP_8,87,1,48,48,2888845204
21,3,ISIP_8,88,1,48,53,2889684308
21,3,ISIP_8,89,1,48,73,2890545596
21,3,ISIP_8,90,1,48,67,2891439904
21,3,ISIP_8,91,1,48,72,2892345172
21,3,ISIP_8,92,1,48,60,2893212544
21,3,ISIP_8,93,1,48,67,2894131052
21,3,ISIP_8,94,1,48,73,2894999172
21,3,ISIP_8,95,1,48,60,2895901752
21,3,ISIP_8,96,1,48,62,2896752564
21,3,ISIP_8,97,1,48,81,2897575804
21,3,ISIP_8,98,1,48,64,2898489380
21,3,ISIP_8,99,1,48,64,2899321492
21,3,ISIP_8,100,1,48,66,2900184764
21,3,ISIP_8,101,1,48,62,2901016132
21,3,ISIP_8,102,1,48,66,2901903600
21,3,ISIP_8,103,1,48,57,2902770896
21,3,ISIP_8,104,1,48,65,2903661204
21,3,ISIP_8,105,1,48,68,2904541740
21,3,ISIP_8,106,1,48,67,2905377072
21,3,ISIP_8,107,1,48,65,2906241652
21,3,ISIP_8,108,1,48,66,2907125476
21,3,ISIP_8,109,1,48,70,2907995892
21,3,ISIP_8,110,1,48,70,2908806540
21,3,ISIP_8,111,1,48,72,2909695008
21,3,ISIP_8,112,1,48,70,2910586524
21,3,ISIP_8,113,1,48,62,2911452024
21,3,ISIP_8,114,1,48,62,2912307256
21,3,ISIP_8,115,1,48,79,2913212848
21,3,ISIP_8,116,1,48,65,2914080944
21,3,ISIP_8,117,1,48,69,2915020044
21,3,ISIP_8,118,1,48,70,2915887836
21,3,ISIP_8,119,1,48,70,2916717384
21,3,ISIP_8,120,1,48,63,2917638612
21,3,ISIP_8,121,1,48,69,2918551384
21,3,ISIP_8,122,1,48,57,2919482100
21,3,ISIP_8,123,1,48,65,2920359192
21,3,ISIP_8,124,1,48,77,2921246284
21,3,ISIP_8,125,1,48,64,2922183744
21,3,ISIP_8,126,1,48,57,2923039268
21,3,ISIP_8,127,1,48,69,2923928108
21,3,ISIP_8,128,1,48,66,2924850208
21,3,ISIP_8,129,1,48,71,2925735800
21,3,ISIP_8,130,1,48,83,2926623808
21,3,ISIP_8,131,1,48,58,2927505520
21,3,ISIP_8,132,1,48,67,2928367124
21,3,ISIP_8,133,1,48,76,2929273516
21,3,ISIP_8,134,1,48,61,2930178736
21,3,ISIP_8,135,1,48,65,2931125624
21,3,ISIP_8,136,1,48,66,2931958560
21,3,ISIP_8,137,1,48,63,2932844380
21,3,ISIP_8,138,1,48,58,2933682660
21,3,ISIP_8,139,1,48,74,2934573284
21,3,ISIP_8,140,1,48,71,2935444992
21,3,ISIP_8,141,1,48,81,2936262000
21,3,ISIP_8,142,1,48,57,2937190080
21,3,ISIP_8,143,1,48,64,2938042340
21,3,ISIP_8,144,1,48,64,2938978128
21,3,ISIP_8,145,1,48,71,2939839436
21,3,ISIP_8,146,1,48,67,2940779188
21,3,ISIP_8,147,1,48,62,2941647756
21,3,ISIP_8,148,1,48,68,2942543752
21,3,ISIP_8,149,1,48,71,2943459304
21,3,ISIP_8,150,1,48,59,2944340344
21,3,ISIP_8,151,1,48,69,2945238528
21,3,ISIP_8,152,1,48,64,2946113880
21,3,ISIP_8,153,1,48,69,2947001448
21,3,ISIP_8,154,1,48,62,2947912776
21,3,ISIP_8,155,1,48,64,2948770120
21,3,ISIP_8,156,1,48,74,2949660576
21,3,ISIP_8,157,1,48,65,2950554956
21,3,ISIP_8,158,1,48,69,2951424184
21,3,ISIP_8,159,1,48,77,2952300500
21,3,ISIP_8,160,1,48,59,2953161664
21,3,ISIP_8,161,1,48,68,2954029316
21,3,ISIP_8,162,1,48,64,2954853052
21,3,ISIP_8,163,1,48,73,2955706812
21,3,ISIP_8,164,1,48,70,2956579464
21,3,ISIP_8,165,1,48,71,2957483268
21,3,ISIP_8,166,1,48,72,2958420544
21,3,ISIP_8,167,1,48,70,2959296672
21,3,ISIP_8,0,9999,9999,9999,2840163448
21,3,ISIP_8,1,9999,9999,9999,2840963128
21,3,ISIP_8,2,9999,9999,9999,2841763956
21,3,ISIP_8,3,9999,9999,9999,2842563688
21,3,ISIP_8,4,9999,9999,9999,2843363420
21,3,ISIP_8,5,9999,9999,9999,2844163156
21,3,ISIP_8,6,9999,9999,9999,2844963936
21,3,ISIP_8,7,9999,9999,9999,2845763668
21,3,ISIP_8,8,9999,9999,9999,2846563404
21,3,ISIP_8,9,9999,9999,9999,2847363128
21,3,ISIP_8,10,9999,9999,9999,2848163940
21,3,ISIP_8,11,9999,9999,9999,2848963672
21,3,ISIP_8,12,9999,9999,9999,2849763404
21,3,ISIP_8,13,9999,9999,9999,2850563140
21,3,ISIP_8,14,9999,9999,9999,2851363920
21,3,ISIP_8,15,9999,9999,9999,2852163652
21,3,ISIP_8,16,9999,9999,9999,2852963384
21,3,ISIP_8,17,9999,9999,9999,2853763184
21,3,ISIP_8,18,9999,9999,9999,2854563916
21,3,ISIP_8,19,9999,9999,9999,2855363656
21,3,ISIP_8,20,9999,9999,9999,2856163384
21,3,ISIP_8,21,9999,9999,9999,2856963124
21,3,ISIP_8,22,9999,9999,9999,2857763904
21,3,ISIP_8,23,9999,9999,9999,2858563636
21,3,ISIP_8,24,9999,9999,9999,2859363436
21,3,ISIP_8,25,9999,9999,9999,2860163172
21,3,ISIP_8,26,9999,9999,9999,2860963900
21,3,ISIP_8,27,9999,9999,9999,2861763636
21,3,ISIP_8,28,9999,9999,9999,2862563444
21,3,ISIP_8,29,9999,9999,9999,2863363176
21,3,ISIP_8,30,9999,9999,9999,2864163888
21,3,ISIP_8,31,9999,9999,9999,2864963692
21,3,ISIP_8,32,9999,9999,9999,2865763420
21,3,ISIP_8,33,9999,9999,9999,2866563152
21,3,ISIP_8,34,9999,9999,9999,2867363952
21,3,ISIP_8,35,9999,9999,9999,2868163680
21,3,ISIP_8,36,9999,9999,9999,2868963408
21,3,ISIP_8,37,9999,9999,9999,2869763136
21,3,ISIP_8,38,9999,9999,9999,2870563916
21,3,ISIP_8,39,9999,9999,9999,2871363640
21,3,ISIP_8,40,9999,9999,9999,2872163444
21,3,ISIP_8,41,9999,9999,9999,2872963176
21,3,ISIP_8,42,9999,9999,9999,2873763900
21,3,ISIP_8,43,9999,9999,9999,2874563704
21,3,ISIP_8,44,9999,9999,9999,2875363432
21,3,ISIP_8,45,9999,9999,9999,2876163164
21,3,ISIP_8,46,9999,9999,9999,2876963936
21,3,ISIP_8,47,9999,9999,9999,2877763664
21,3,ISIP_8,48,9999,9999,9999,2878563412
21,3,ISIP_8,49,9999,9999,9999,2879363140
21,3,ISIP_8,50,9999,9999,9999,2880163948
21,3,ISIP_8,51,9999,9999,9999,2880963676
21,3,ISIP_8,52,9999,9999,9999,2881763404
21,3,ISIP_8,53,9999,9999,9999,2882563136
21,3,ISIP_8,54,9999,9999,9999,2883363912
21,3,ISIP_8,55,9999,9999,9999,2884163640
21,3,ISIP_8,56,9999,9999,9999,2884963444
21,3,ISIP_8,57,9999,9999,9999,2885763176
21,3,ISIP_8,58,9999,9999,9999,2886563900
21,3,ISIP_8,59,9999,9999,9999,2887363704
21,3,ISIP_8,60,9999,9999,9999,2888163436
21,3,ISIP_8,61,9999,9999,9999,2888963164
21,3,ISIP_8,62,9999,9999,9999,2889763956
21,3,ISIP_8,63,9999,9999,9999,2890563684
21,3,ISIP_8,64,9999,9999,9999,2891363420
21,3,ISIP_8,65,9999,9999,9999,2892163148
21,3,ISIP_8,66,9999,9999,9999,2892963952
21,3,ISIP_8,67,9999,9999,9999,2893763680
21,3,ISIP_8,68,9999,9999,9999,2894563408
21,3,ISIP_8,69,9999,9999,9999,2895363136
21,3,ISIP_8,70,9999,9999,9999,2896163916
21,3,ISIP_8,71,9999,9999,9999,2896963644
21,3,ISIP_8,72,9999,9999,9999,2897763448
21,3,ISIP_8,73,9999,9999,9999,2898563192
21,3,ISIP_8,74,9999,9999,9999,2899363916
21,3,ISIP_8,75,9999,9999,9999,2900163652
21,3,ISIP_8,76,9999,9999,9999,2900963384
21,3,ISIP_8,77,9999,9999,9999,2901763188
21,3,ISIP_8,78,9999,9999,9999,2902563888
21,3,ISIP_8,79,9999,9999,9999,2903363688
21,3,ISIP_8,80,9999,9999,9999,2904163420
21,3,ISIP_8,81,9999,9999,9999,2904963148
21,3,ISIP_8,82,9999,9999,9999,2905763948
21,3,ISIP_8,83,9999,9999,9999,2906563680
21,3,ISIP_8,84,9999,9999,9999,2907363408
21,3,ISIP_8,85,9999,9999,9999,2908163136
21,3,ISIP_8,86,9999,9999,9999,2908963912
21,3,ISIP_8,87,9999,9999,9999,2909763656
21,3,ISIP_8,88,9999,9999,9999,2910563392
21,3,ISIP_8,89,9999,9999,9999,2911363120
21,3,ISIP_8,90,9999,9999,9999,2912163924
21,3,ISIP_8,91,9999,9999,9999,2912963652
21,3,ISIP_8,92,9999,9999,9999,2913763384
21,3,ISIP_8,93,9999,9999,9999,2914563184
21,3,ISIP_8,94,9999,9999,9999,2915363888
21,3,ISIP_8,95,9999,9999,9999,2916163668
21,3,ISIP_8,96,9999,9999,9999,2916963396
21,3,ISIP_8,97,9999,9999,9999,2917763124
21,3,ISIP_8,98,9999,9999,9999,2918563940
21,3,ISIP_8,99,9999,9999,9999,2919363676
21,3,ISIP_8,100,9999,9999,9999,2920163404
21,3,ISIP_8,101,9999,9999,9999,2920963132
21,3,ISIP_8,102,9999,9999,9999,2921763908
21,3,ISIP_8,103,9999,9999,9999,2922563640
21,3,ISIP_8,104,9999,9999,9999,2923363440
21,3,ISIP_8,105,9999,9999,9999,2924163172
21,3,ISIP_8,106,9999,9999,9999,2924963948
21,3,ISIP_8,107,9999,9999,9999,2925763692
21,3,ISIP_8,108,9999,9999,9999,2926563428
21,3,ISIP_8,109,9999,9999,9999,2927363156
21,3,ISIP_8,110,9999,9999,9999,2928163932
21,3,ISIP_8,111,9999,9999,9999,2928963664
21,3,ISIP_8,112,9999,9999,9999,2929763392
21,3,ISIP_8,113,9999,9999,9999,2930563124
21,3,ISIP_8,114,9999,9999,9999,2931363924
21,3,ISIP_8,115,9999,9999,9999,2932163656
21,3,ISIP_8,116,9999,9999,9999,2932963388
21,3,ISIP_8,117,9999,9999,9999,2933763132
21,3,ISIP_8,118,9999,9999,9999,2934563916
21,3,ISIP_8,119,9999,9999,9999,2935363644
21,3,ISIP_8,120,9999,9999,9999,2936163372
21,3,ISIP_8,121,9999,9999,9999,2936963176
21,3,ISIP_8,122,9999,9999,9999,2937763904
21,3,ISIP_8,123,9999,9999,9999,2938563632
21,3,ISIP_8,124,9999,9999,9999,2939363436
21,3,ISIP_8,125,9999,9999,9999,2940163164
21,3,ISIP_8,126,9999,9999,9999,2940963944
21,3,ISIP_8,127,9999,9999,9999,2941763672
21,3,ISIP_8,128,9999,9999,9999,2942563416
21,3,ISIP_8,129,9999,9999,9999,2943363148
21,3,ISIP_8,130,9999,9999,9999,2944163952
21,3,ISIP_8,131,9999,9999,9999,2944963680
21,3,ISIP_8,132,9999,9999,9999,2945763408
21,3,ISIP_8,133,9999,9999,9999,2946563136
21,3,ISIP_8,134,9999,9999,9999,2947363912
21,3,ISIP_8,135,9999,9999,9999,2948163644
21,3,ISIP_8,136,9999,9999,9999,2948963448
21,3,ISIP_8,137,9999,9999,9999,2949763176
21,3,ISIP_8,138,9999,9999,9999,2950563920
21,3,ISIP_8,139,9999,9999,9999,2951363652
21,3,ISIP_8,140,9999,9999,9999,2952163384
21,3,ISIP_8,141,9999,9999,9999,2952963188
21,3,ISIP_8,142,9999,9999,9999,2953763888
21,3,ISIP_8,143,9999,9999,9999,2954563692
21,3,ISIP_8,144,9999,9999,9999,2955363420
21,3,ISIP_8,145,9999,9999,9999,2956163148
21,3,ISIP_8,146,9999,9999,9999,2956963952
21,3,ISIP_8,147,9999,9999,9999,2957763680
21,3,ISIP_8,148,9999,9999,9999,2958563408
21,3,ISIP_8,149,9999,9999,9999,2959363152
22,11,Pattern_Practice,0,5,42,127,3065496888
22,11,Pattern_Practice,1,5,42,127,3065996904
22,11,Pattern_Practice,2,5,42,127,3066497416
22,11,Pattern_Practice,3,1,38,67,3066980260
22,11,Pattern_Practice,4,5,42,127,3066997200
22,11,Pattern_Practice,5,5,42,127,3067496756
22,11,Pattern_Practice,6,1,38,79,3067501596
22,11,Pattern_Practice,7,5,42,127,3067996448
22,11,Pattern_Practice,8,1,38,73,3068006072
22,11,Pattern_Practice,9,1,38,86,3068483236
22,11,Pattern_Practice,10,5,42,127,3068497256
22,11,Pattern_Practice,11,5,42,127,3068996960
22,11,Pattern_Practice,12,1,38,72,3069025732
22,11,Pattern_Practice,13,5,42,127,3069496652
22,11,Pattern_Practice,14,1,38,76,3069522960
22,11,Pattern_Practice,15,1,48,48,3069788040
22,11,Pattern_Practice,16,5,42,127,3069997372
22,11,Pattern_Practice,17,1,38,84,3070034224
22,11,Pattern_Practice,18,5,42,127,3070497212
22,11,Pattern_Practice,19,1,38,67,3070534364
22,11,Pattern_Practice,20,1,48,73,3070749336
22,11,Pattern_Practice,21,5,42,127,3070996812
22,11,Pattern_Practice,22,1,38,84,3071012644
22,11,Pattern_Practice,23,5,42,127,3071496508
22,11,Pattern_Practice,24,1,38,65,3071502768
22,11,Pattern_Practice,25,1,48,66,3071759404
22,11,Pattern_Practice,26,5,42,127,3071997228
22,11,Pattern_Practice,27,1,38,73,3072012392
22,11,Pattern_Practice,28,1,48,18,3072023288
22,11,Pattern_Practice,29,1,38,74,3072478288
22,11,Pattern_Practice,30,5,42,127,3072497092
22,11,Pattern_Practice,31,1,48,51,3072724836
22,11,Pattern_Practice,32,1,38,77,3072991192
22,11,Pattern_Practice,33,5,42,127,3072996692
22,11,Pattern_Practice,34,1,38,68,3073472644
22,11,Pattern_Practice,35,5,42,127,3073496384
22,11,Pattern_Practice,36,1,48,47,3073719496
22,11,Pattern_Practice,37,1,38,64,3073985100
22,11,Pattern_Practice,38,5,42,127,3073997400
22,11,Pattern_Practice,39,1,38,80,3074470360
22,11,Pattern_Practice,40,5,42,127,3074496800
22,11,Pattern_Practice,41,1,48,62,3074719760
22,11,Pattern_Practice,42,1,38,63,3074980652
22,11,Pattern_Practice,43,5,42,127,3074996472
22,11,Pattern_Practice,44,1,38,63,3075451304
22,11,Pattern_Practice,45,5,42,127,3075497364
22,11,Pattern_Practice,46,1,48,54,3075693444
22,11,Pattern_Practice,47,1,38,79,3075969600
22,11,Pattern_Practice,48,5,42,127,3075997184
22,11,Pattern_Practice,49,1,48,99,3076467500
22,11,Pattern_Practice,50,5,42,127,3076496732
22,11,Pattern_Practice,51,1,38,77,3076972208
22,11,Pattern_Practice,52,5,42,127,3076996552
22,11,Pattern_Practice,53,1,48,84,3077473776
22,11,Pattern_Practice,54,5,42,127,3077497296
22,11,Pattern_Practice,55,5,42,127,3077997220
22,11,Pattern_Practice,56,1,38,67,3077998184
22,11,Pattern_Practice,57,1,48,73,3078486032
22,11,Pattern_Practice,58,5,42,127,3078496536
22,11,Pattern_Practice,59,1,48,67,3078746200
22,11,Pattern_Practice,60,1,38,16,3078762256
22,11,Pattern_Practice,61,1,38,91,3078949452
22,11,Pattern_Practice,62,5,42,127,3078997280
22,11,Pattern_Practice,63,1,38,26,3079021104
22,11,Pattern_Practice,64,1,48,61,3079478816
22,11,Pattern_Practice,65,5,42,127,3079497324
22,11,Pattern_Practice,66,1,48,60,3079750280
22,11,Pattern_Practice,67,1,38,60,3079985068
22,11,Pattern_Practice,68,5,42,127,3079997072
22,11,Pattern_Practice,69,1,48,64,3080458884
22,11,Pattern_Practice,70,5,42,127,3080496468
22,11,Pattern_Practice,71,1,48,63,3080743364
22,11,Pattern_Practice,72,1,38,53,3080981000
22,11,Pattern_Practice,73,5,42,127,3080997264
22,11,Pattern_Practice,74,1,48,73,3081480840
22,11,Pattern_Practice,75,5,42,127,3081497180
22,11,Pattern_Practice,76,1,48,68,3081747216
22,11,Pattern_Practice,77,5,42,127,3081996712
22,11,Pattern_Practice,78,1,38,62,3082004168
22,11,Pattern_Practice,79,5,42,127,3082497452
22,11,Pattern_Practice,80,1,48,75,3082504984
22,11,Pattern_Practice,81,1,48,67,3082767828
22,11,Pattern_Practice,82,5,42,127,3082997348
22,11,Pattern_Practice,83,1,38,64,3083027476
22,11,Pattern_Practice,84,5,42,127,3083496672
22,11,Pattern_Practice,85,1,38,56,3083541452
22,11,Pattern_Practice,86,1,38,45,3083727256
22,11,Pattern_Practice,87,1,48,81,3083996792
22,11,Pattern_Practice,88,5,42,127,3083998128
22,11,Pattern_Practice,89,1,38,57,3084495868
22,11,Pattern_Practice,90,5,42,127,3084498648
22,11,Pattern_Practice,91,1,38,54,3084724752
22,11,Pattern_Practice,92,1,48,68,3084993656
22,11,Pattern_Practice,93,5,42,127,3084997276
22,11,Pattern_Practice,94,5,42,127,3085496828
22,11,Pattern_Practice,95,1,38,38,3085501364
22,11,Pattern_Practice,96,1,38,55,3085713500
22,11,Pattern_Practice,97,1,48,78,3085979856
22,11,Pattern_Practice,98,5,42,127,3085997316
22,11,Pattern_Practice,99,1,38,58,3086478200
22,11,Pattern_Practice,100,5,42,127,3086497236
22,11,Pattern_Practice,101,1,38,66,3086720844
22,11,Pattern_Practice,102,1,48,85,3086947256
22,11,Pattern_Practice,103,5,42,127,3086997280
22,11,Pattern_Practice,104,1,38,71,3087462440
22,11,Pattern_Practice,105,1,48,59,3087477304
22,11,Pattern_Practice,106,5,42,127,3087496636
22,11,Pattern_Practice,107,1,48,74,3087964924
22,11,Pattern_Practice,108,1,38,73,3087973512
22,11,Pattern_Practice,109,5,42,127,3087997252
22,11,Pattern_Practice,110,1,38,83,3088480360
22,11,Pattern_Practice,111,5,42,127,3088497144
22,11,Pattern_Practice,112,1,48,50,3088503932
22,11,Pattern_Practice,113,1,38,62,3088977248
22,11,Pattern_Practice,114,5,42,127,3088996580
22,11,Pattern_Practice,115,1,48,67,3088997620
22,11,Pattern_Practice,116,1,38,59,3089495116
22,11,Pattern_Practice,117,5,42,127,3089497884
22,11,Pattern_Practice,118,1,38,65,3089762208
22,11,Pattern_Practice,119,5,42,127,3089997120
22,11,Pattern_Practice,120,1,48,70,3090001360
22,11,Pattern_Practice,121,5,42,127,3090496884
22,11,Pattern_Practice,122,1,38,63,3090508232
22,11,Pattern_Practice,123,1,38,56,3090758284
22,11,Pattern_Practice,124,5,42,127,3090996484
22,11,Pattern_Practice,125,1,48,82,3091003116
22,11,Pattern_Practice,126,1,38,76,3091484768
22,11,Pattern_Practice,127,5,42,127,3091497368
22,11,Pattern_Practice,128,1,38,65,3091741268
22,11,Pattern_Practice,129,1,48,75,3091991772
22,11,Pattern_Practice,130,5,42,127,3091997112
22,11,Pattern_Practice,131,1,38,62,3092485484
22,11,Pattern_Practice,132,5,42,127,3092496884
22,11,Pattern_Practice,133,5,42,127,3092996436
22,11,Pattern_Practice,134,1,48,85,3093011296
22,11,Pattern_Practice,135,1,38,69,3093026240
22,11,Pattern_Practice,136,1,38,67,3093491628
22,11,Pattern_Practice,137,5,42,127,3093497048
22,11,Pattern_Practice,138,1,38,71,3093976812
22,11,Pattern_Practice,139,1,48,63,3093981584
22,11,Pattern_Practice,140,5,42,127,3093996876
22,11,Pattern_Practice,141,1,38,67,3094466888
22,11,Pattern_Practice,142,5,42,127,3094496840
22,11,Pattern_Practice,143,1,48,62,3094965984
22,11,Pattern_Practice,144,1,38,66,3094978904
22,11,Pattern_Practice,145,5,42,127,3094997336
22,11,Pattern_Practice,146,1,38,66,3095495880
22,11,Pattern_Practice,147,5,42,127,3095498572
22,11,Pattern_Practice,148,1,48,41,3095499536
22,11,Pattern_Practice,149,5,42,127,3095996896
22,11,Pattern_Practice,150,1,38,53,3096015496
22,11,Pattern_Practice,151,1,48,46,3096020340
22,11,Pattern_Practice,152,1,48,60,3096477652
22,11,Pattern_Practice,153,1,38,64,3096481596
22,11,Pattern_Practice,154,5,42,127,3096496516
22,11,Pattern_Practice,155,1,48,69,3096951920
22,11,Pattern_Practice,156,5,42,127,3096997232
22,11,Pattern_Practice,157,1,48,78,3097057928
22,11,Pattern_Practice,158,1,48,72,3097205256
22,11,Pattern_Practice,159,1,38,107,3097479916
22,11,Pattern_Practice,160,5,42,127,3097496880
22,11,Pattern_Practice,161,1,48,69,3097979460
22,11,Pattern_Practice,162,5,42,127,3097996724
22,11,Pattern_Practice,163,1,48,61,3098082928
22,11,Pattern_Practice,164,1,48,57,3098235640
22,11,Pattern_Practice,165,5,42,127,3098497404
22,11,Pattern_Practice,166,1,38,79,3098525008
22,11,Pattern_Practice,167,1,48,77,3098980380
22,11,Pattern_Practice,168,5,42,127,3098997016
22,11,Pattern_Practice,169,1,48,64,3099104340
22,11,Pattern_Practice,170,1,48,73,3099261992
22,11,Pattern_Practice,171,5,42,127,3099496900
22,11,Pattern_Practice,172,1,38,42,3099512284
22,11,Pattern_Practice,173,1,48,69,3099951968
22,11,Pattern_Practice,174,5,42,127,3099996660
22,11,Pattern_Practice,175,1,48,75,3100059852
22,11,Pattern_Practice,176,1,48,77,3100220720
22,11,Pattern_Practice,177,1,38,72,3100466508
22,11,Pattern_Practice,178,5,42,127,3100497132
22,11,Pattern_Practice,179,1,48,89,3100921840
22,11,Pattern_Practice,180,5,42,127,3100996904
22,11,Pattern_Practice,181,1,48,97,3101033964
22,11,Pattern_Practice,182,1,48,91,3101198524
22,11,Pattern_Practice,183,1,38,96,3101475276
22,11,Pattern_Practice,184,5,42,127,3101496628
22,11,Pattern_Practice,185,1,48,91,3101977212
22,11,Pattern_Practice,186,5,42,127,3101997368
22,11,Pattern_Practice,187,1,48,62,3102067640
22,11,Pattern_Practice,188,1,48,87,3102256732
22,11,Pattern_Practice,189,5,42,127,3102497100
22,11,Pattern_Practice,190,1,38,96,3102508668
22,11,Pattern_Practice,191,1,48,91,3102961596
22,11,Pattern_Practice,192,5,42,127,3102996788
22,11,Pattern_Practice,193,1,48,65,3103083216
22,11,Pattern_Practice,194,1,48,90,3103249116
22,11,Pattern_Practice,195,5,42,127,3103496524
22,11,Pattern_Practice,196,1,38,101,3103516616
22,11,Pattern_Practice,197,1,48,97,3103945684
22,11,Pattern_Practice,198,5,42,127,3103997256
22,11,Pattern_Practice,199,1,48,78,3104089740
22,11,Pattern_Practice,200,1,48,98,3104260212
22,11,Pattern_Practice,201,1,38,84,3104490436
22,11,Pattern_Practice,202,5,42,127,3104496908
22,11,Pattern_Practice,203,5,42,127,3104996760
22,11,Pattern_Practice,204,1,48,91,3104999732
22,11,Pattern_Practice,0,9999,9999,9999,3065494600
22,11,Pattern_Practice,1,9999,9999,9999,3065994292
22,11,Pattern_Practice,2,9999,9999,9999,3066495056
22,11,Pattern_Practice,3,9999,9999,9999,3066994764
22,11,Pattern_Practice,4,9999,9999,9999,3067494468
22,11,Pattern_Practice,5,9999,9999,9999,3067994160
22,11,Pattern_Practice,6,9999,9999,9999,3068494968
22,11,Pattern_Practice,7,9999,9999,9999,3068994672
22,11,Pattern_Practice,8,9999,9999,9999,3069494364
22,11,Pattern_Practice,9,9999,9999,9999,3069995084
22,11,Pattern_Practice,10,9999,9999,9999,3070494776
22,11,Pattern_Practice,11,9999,9999,9999,3070994524
22,11,Pattern_Practice,12,9999,9999,9999,3071494220
22,11,Pattern_Practice,13,9999,9999,9999,3071994940
22,11,Pattern_Practice,14,9999,9999,9999,3072494656
22,11,Pattern_Practice,15,9999,9999,9999,3072994404
22,11,Pattern_Practice,16,9999,9999,9999,3073494096
22,11,Pattern_Practice,17,9999,9999,9999,3073994816
22,11,Pattern_Practice,18,9999,9999,9999,3074494512
22,11,Pattern_Practice,19,9999,9999,9999,3074994260
22,11,Pattern_Practice,20,9999,9999,9999,3075495004
22,11,Pattern_Practice,21,9999,9999,9999,3075994676
22,11,Pattern_Practice,22,9999,9999,9999,3076494444
22,11,Pattern_Practice,23,9999,9999,9999,3076994116
22,11,Pattern_Practice,24,9999,9999,9999,3077494860
22,11,Pattern_Practice,25,9999,9999,9999,3077994560
22,11,Pattern_Practice,26,9999,9999,9999,3078494320
22,11,Pattern_Practice,27,9999,9999,9999,3078994996
22,11,Pattern_Practice,28,9999,9999,9999,3079494740
22,11,Pattern_Practice,29,9999,9999,9999,3079994488
22,11,Pattern_Practice,30,9999,9999,9999,3080494184
22,11,Pattern_Practice,31,9999,9999,9999,3080994900
22,11,Pattern_Practice,32,9999,9999,9999,3081494596
22,11,Pattern_Practice,33,9999,9999,9999,3081994352
22,11,Pattern_Practice,34,9999,9999,9999,3082495092
22,11,Pattern_Practice,35,9999,9999,9999,3082994764
22,11,Pattern_Practice,36,9999,9999,9999,3083494460
22,11,Pattern_Practice,37,9999,9999,9999,3083994208
22,11,Pattern_Practice,38,9999,9999,9999,3084494948
22,11,Pattern_Practice,39,9999,9999,9999,3084994616
22,11,Pattern_Practice,40,9999,9999,9999,3085494388
22,11,Pattern_Practice,41,9999,9999,9999,3085995104
22,11,Pattern_Practice,42,9999,9999,9999,3086494800
22,11,Pattern_Practice,43,9999,9999,9999,3086994548
22,11,Pattern_Practice,44,9999,9999,9999,3087494200
22,11,Pattern_Practice,45,9999,9999,9999,3087994964
22,11,Pattern_Practice,46,9999,9999,9999,3088494708
22,11,Pattern_Practice,47,9999,9999,9999,3088994368
22,11,Pattern_Practice,48,9999,9999,9999,3089494108
22,11,Pattern_Practice,49,9999,9999,9999,3089994832
22,11,Pattern_Practice,50,9999,9999,9999,3090494524
22,11,Pattern_Practice,51,9999,9999,9999,3090994272
22,11,Pattern_Practice,52,9999,9999,9999,3091495004
22,11,Pattern_Practice,53,9999,9999,9999,3091994676
22,11,Pattern_Practice,54,9999,9999,9999,3092494448
22,11,Pattern_Practice,55,9999,9999,9999,3092994148
22,11,Pattern_Practice,56,9999,9999,9999,3093494836
22,11,Pattern_Practice,57,9999,9999,9999,3093994588
22,11,Pattern_Practice,58,9999,9999,9999,3094494328
22,11,Pattern_Practice,59,9999,9999,9999,3094995052
22,11,Pattern_Practice,60,9999,9999,9999,3095494724
22,11,Pattern_Practice,61,9999,9999,9999,3095994460
22,11,Pattern_Practice,62,9999,9999,9999,3096494156
22,11,Pattern_Practice,63,9999,9999,9999,3096994868
22,11,Pattern_Practice,64,9999,9999,9999,3097494592
22,11,Pattern_Practice,65,9999,9999,9999,3097994344
22,11,Pattern_Practice,66,9999,9999,9999,3098495040
22,11,Pattern_Practice,67,9999,9999,9999,3098994804
22,11,Pattern_Practice,68,9999,9999,9999,3099494460
22,11,Pattern_Practice,69,9999,9999,9999,3099994224
22,11,Pattern_Practice,70,9999,9999,9999,3100494920
22,11,Pattern_Practice,71,9999,9999,9999,3100994616
22,11,Pattern_Practice,72,9999,9999,9999,3101494340
22,11,Pattern_Practice,73,9999,9999,9999,3101995084
22,11,Pattern_Practice,74,9999,9999,9999,3102494812
22,11,Pattern_Practice,75,9999,9999,9999,3102994500
22,11,Pattern_Practice,76,9999,9999,9999,3103494232
22,11,Pattern_Practice,77,9999,9999,9999,3103994968
22,11,Pattern_Practice,78,9999,9999,9999,3104494692
22,11,Pattern_Practice,79,9999,9999,9999,3104994396
23,13,Improv_Metronome,0,5,42,127,3134860712
23,13,Improv_Metronome,1,5,42,127,3135361452
23,13,Improv_Metronome,2,1,48,76,3135820584
23,13,Improv_Metronome,3,5,42,127,3135861236
23,13,Improv_Metronome,4,1,48,76,3136353040
23,13,Improv_Metronome,5,5,42,127,3136360708
23,13,Improv_Metronome,6,1,48,83,3136832988
23,13,Improv_Metronome,7,5,42,127,3136860548
23,13,Improv_Metronome,8,1,48,62,3136952760
23,13,Improv_Metronome,9,1,48,97,3137126496
23,13,Improv_Metronome,10,5,42,127,3137361404
23,13,Improv_Metronome,11,1,48,106,3137402296
23,13,Improv_Metronome,12,5,42,127,3137861096
23,13,Improv_Metronome,13,1,48,84,3137878056
23,13,Improv_Metronome,14,1,48,53,3137985316
23,13,Improv_Metronome,15,1,48,94,3138161588
23,13,Improv_Metronome,16,5,42,127,3138360600
23,13,Improv_Metronome,17,1,48,100,3138421988
23,13,Improv_Metronome,18,5,42,127,3138861416
23,13,Improv_Metronome,19,1,48,90,3138873956
23,13,Improv_Metronome,20,1,48,53,3138986008
23,13,Improv_Metronome,21,1,48,85,3139148968
23,13,Improv_Metronome,22,5,42,127,3139361136
23,13,Improv_Metronome,23,1,48,87,3139390960
23,13,Improv_Metronome,24,1,48,88,3139840820
23,13,Improv_Metronome,25,5,42,127,3139860824
23,13,Improv_Metronome,26,1,48,48,3139975148
23,13,Improv_Metronome,27,1,48,84,3140115324
23,13,Improv_Metronome,28,5,42,127,3140360412
23,13,Improv_Metronome,29,1,48,111,3140386712
23,13,Improv_Metronome,30,5,42,127,3140861152
23,13,Improv_Metronome,31,1,48,95,3140895680
23,13,Improv_Metronome,32,5,42,127,3141361216
23,13,Improv_Metronome,33,1,38,69,3141406296
23,13,Improv_Metronome,34,1,48,74,3141416748
23,13,Improv_Metronome,35,5,42,127,3141860652
23,13,Improv_Metronome,36,1,48,85,3141879032
23,13,Improv_Metronome,37,5,42,127,3142360348
23,13,Improv_Metronome,38,1,48,75,3142371844
23,13,Improv_Metronome,39,1,38,62,3142389176
23,13,Improv_Metronome,40,1,48,94,3142851128
23,13,Improv_Metronome,41,5,42,127,3142861108
23,13,Improv_Metronome,42,1,48,85,3143360056
23,13,Improv_Metronome,43,5,42,127,3143361776
23,13,Improv_Metronome,44,1,38,66,3143375144
23,13,Improv_Metronome,45,1,48,99,3143854816
23,13,Improv_Metronome,46,5,42,127,3143860540
23,13,Improv_Metronome,47,5,42,127,3144361212
23,13,Improv_Metronome,48,1,48,78,3144371664
23,13,Improv_Metronome,49,1,38,64,3144375008
23,13,Improv_Metronome,50,1,48,101,3144808808
23,13,Improv_Metronome,51,5,42,127,3144861076
23,13,Improv_Metronome,52,1,48,70,3144955432
23,13,Improv_Metronome,53,1,48,105,3145125228
23,13,Improv_Metronome,54,5,42,127,3145360736
23,13,Improv_Metronome,55,1,38,116,3145405064
23,13,Improv_Metronome,56,5,42,127,3145860404
23,13,Improv_Metronome,57,1,48,99,3145900944
23,13,Improv_Metronome,58,1,48,74,3145988736
23,13,Improv_Metronome,59,1,48,93,3146167056
23,13,Improv_Metronome,60,5,42,127,3146361324
23,13,Improv_Metronome,61,1,38,94,3146389680
23,13,Improv_Metronome,62,1,48,84,3146826128
23,13,Improv_Metronome,63,5,42,127,3146861012
23,13,Improv_Metronome,64,1,48,80,3146923160
23,13,Improv_Metronome,65,1,48,91,3147104968
23,13,Improv_Metronome,66,5,42,127,3147360596
23,13,Improv_Metronome,67,1,38,89,3147381516
23,13,Improv_Metronome,68,1,48,88,3147827036
23,13,Improv_Metronome,69,5,42,127,3147861480
23,13,Improv_Metronome,70,1,48,79,3147941204
23,13,Improv_Metronome,71,1,48,94,3148130868
23,13,Improv_Metronome,72,5,42,127,3148361216
23,13,Improv_Metronome,73,1,38,84,3148381392
23,13,Improv_Metronome,74,1,48,89,3148839104
23,13,Improv_Metronome,75,5,42,127,3148860900
23,13,Improv_Metronome,76,1,48,78,3148935960
23,13,Improv_Metronome,77,1,48,92,3149134156
23,13,Improv_Metronome,78,5,42,127,3149360384
23,13,Improv_Metronome,79,1,38,77,3149427084
23,13,Improv_Metronome,80,5,42,127,3149861200
23,13,Improv_Metronome,81,1,48,78,3149866936
23,13,Improv_Metronome,82,1,48,63,3149972180
23,13,Improv_Metronome,83,1,48,85,3150142772
23,13,Improv_Metronome,84,5,42,127,3150361224
23,13,Improv_Metronome,85,1,38,89,3150372348
23,13,Improv_Metronome,86,1,48,71,3150808524
23,13,Improv_Metronome,87,5,42,127,3150860692
23,13,Improv_Metronome,88,1,48,57,3150925648
23,13,Improv_Metronome,89,1,48,86,3151092452
23,13,Improv_Metronome,90,5,42,127,3151361248
23,13,Improv_Metronome,91,1,38,95,3151366980
23,13,Improv_Metronome,92,1,48,76,3151831432
23,13,Improv_Metronome,93,5,42,127,3151861232
23,13,Improv_Metronome,94,1,48,77,3151957908
23,13,Improv_Metronome,95,1,48,95,3152140796
23,13,Improv_Metronome,96,5,42,127,3152360744
23,13,Improv_Metronome,97,1,38,76,3152382340
23,13,Improv_Metronome,98,1,38,107,3152838404
23,13,Improv_Metronome,99,5,42,127,3152860508
23,13,Improv_Metronome,100,1,38,84,3153338776
23,13,Improv_Metronome,101,5,42,127,3153361252
23,13,Improv_Metronome,102,1,38,67,3153842736
23,13,Improv_Metronome,103,5,42,127,3153861096
23,13,Improv_Metronome,104,1,38,61,3154065584
23,13,Improv_Metronome,105,1,38,62,3154327600
23,13,Improv_Metronome,106,5,42,127,3154360620
23,13,Improv_Metronome,107,1,38,51,3154554008
23,13,Improv_Metronome,108,1,38,69,3154834224
23,13,Improv_Metronome,109,5,42,127,3154861340
23,13,Improv_Metronome,110,1,38,58,3155095512
23,13,Improv_Metronome,111,1,38,63,3155351176
23,13,Improv_Metronome,112,5,42,127,3155361084
23,13,Improv_Metronome,113,1,38,59,3155604164
23,13,Improv_Metronome,114,5,42,127,3155861208
23,13,Improv_Metronome,115,1,38,65,3155869720
23,13,Improv_Metronome,116,1,38,64,3156117972
23,13,Improv_Metronome,117,5,42,127,3156360440
23,13,Improv_Metronome,118,1,48,59,3156375676
23,13,Improv_Metronome,119,1,38,67,3156378196
23,13,Improv_Metronome,120,1,38,63,3156609424
23,13,Improv_Metronome,121,5,42,127,3156861308
23,13,Improv_Metronome,122,1,38,58,3156863976
23,13,Improv_Metronome,123,1,38,51,3157085832
23,13,Improv_Metronome,124,1,38,60,3157359312
23,13,Improv_Metronome,125,5,42,127,3157362244
23,13,Improv_Metronome,126,1,48,45,3157372396
23,13,Improv_Metronome,127,1,38,52,3157601248
23,13,Improv_Metronome,128,5,42,127,3157860920
23,13,Improv_Metronome,129,1,38,67,3157862636
23,13,Improv_Metronome,130,1,38,54,3158126280
23,13,Improv_Metronome,131,5,42,127,3158360292
23,13,Improv_Metronome,132,1,48,68,3158374104
23,13,Improv_Metronome,133,1,38,74,3158388752
23,13,Improv_Metronome,134,1,38,59,3158628600
23,13,Improv_Metronome,135,5,42,127,3158861116
23,13,Improv_Metronome,136,1,38,69,3158888840
23,13,Improv_Metronome,137,1,38,64,3159134028
23,13,Improv_Metronome,138,5,42,127,3159361084
23,13,Improv_Metronome,139,1,38,73,3159384996
23,13,Improv_Metronome,140,1,48,68,3159389840
23,13,Improv_Metronome,141,1,48,64,3159618696
23,13,Improv_Metronome,142,1,38,67,3159621892
23,13,Improv_Metronome,143,5,42,127,3159860436
23,13,Improv_Metronome,144,1,38,62,3159886516
23,13,Improv_Metronome,145,1,38,76,3160126772
23,13,Improv_Metronome,146,5,42,127,3160361228
23,13,Improv_Metronome,147,1,38,86,3160375496
23,13,Improv_Metronome,148,1,48,53,3160381908
23,13,Improv_Metronome,149,1,38,82,3160605228
23,13,Improv_Metronome,150,1,48,55,3160614784
23,13,Improv_Metronome,151,5,42,127,3160861108
23,13,Improv_Metronome,152,1,38,67,3160870064
23,13,Improv_Metronome,153,1,38,57,3161112712
23,13,Improv_Metronome,154,5,42,127,3161360932
23,13,Improv_Metronome,155,1,38,89,3161364652
23,13,Improv_Metronome,156,1,48,55,3161368368
23,13,Improv_Metronome,157,1,38,64,3161593560
23,13,Improv_Metronome,158,1,38,54,3161833436
23,13,Improv_Metronome,159,5,42,127,3161860404
23,13,Improv_Metronome,160,1,38,56,3162098020
23,13,Improv_Metronome,161,1,38,81,3162345904
23,13,Improv_Metronome,162,1,48,59,3162350144
23,13,Improv_Metronome,163,5,42,127,3162361176
23,13,Improv_Metronome,164,1,38,71,3162574088
23,13,Improv_Metronome,165,1,48,51,3162579524
23,13,Improv_Metronome,166,1,38,65,3162826556
23,13,Improv_Metronome,167,5,42,127,3162860996
23,13,Improv_Metronome,168,1,38,58,3163084404
23,13,Improv_Metronome,169,1,38,88,3163328396
23,13,Improv_Metronome,170,1,48,45,3163332192
23,13,Improv_Metronome,171,5,42,127,3163360576
23,13,Improv_Metronome,172,1,38,74,3163807548
23,13,Improv_Metronome,173,5,42,127,3163861212
23,13,Improv_Metronome,174,1,38,60,3164355940
23,13,Improv_Metronome,175,5,42,127,3164361208
23,13,Improv_Metronome,176,1,48,94,3164367096
23,13,Improv_Metronome,177,5,42,127,3164860724
23,13,Improv_Metronome,178,1,38,92,3164897576
23,13,Improv_Metronome,179,5,42,127,3165360420
23,13,Improv_Metronome,180,1,48,91,3165373184
23,13,Improv_Metronome,181,1,38,54,3165392992
23,13,Improv_Metronome,182,5,42,127,3165861188
23,13,Improv_Metronome,183,1,38,93,3165871712
23,13,Improv_Metronome,184,5,42,127,3166360956
23,13,Improv_Metronome,185,1,48,95,3166375892
23,13,Improv_Metronome,186,1,38,63,3166376472
23,13,Improv_Metronome,187,5,42,127,3166860756
23,13,Improv_Metronome,188,1,38,80,3166864476
23,13,Improv_Metronome,189,1,38,72,3167310944
23,13,Improv_Metronome,190,5,42,127,3167361316
23,13,Improv_Metronome,191,1,38,64,3167405808
23,13,Improv_Metronome,192,1,38,74,3167594800
23,13,Improv_Metronome,193,5,42,127,3167861124
23,13,Improv_Metronome,194,1,48,113,3167878752
23,13,Improv_Metronome,195,1,38,70,3168359916
23,13,Improv_Metronome,196,5,42,127,3168362908
23,13,Improv_Metronome,197,1,38,68,3168446668
23,13,Improv_Metronome,198,1,38,71,3168638056
23,13,Improv_Metronome,199,5,42,127,3168860468
23,13,Improv_Metronome,200,1,48,81,3168937216
23,13,Improv_Metronome,201,5,42,127,3169361212
23,13,Improv_Metronome,202,1,38,72,3169382432
23,13,Improv_Metronome,203,1,38,77,3169462988
23,13,Improv_Metronome,204,1,38,70,3169649584
23,13,Improv_Metronome,205,5,42,127,3169861008
23,13,Improv_Metronome,206,1,48,91,3169914836
23,13,Improv_Metronome,207,5,42,127,3170360776
23,13,Improv_Metronome,208,1,38,83,3170368836
23,13,Improv_Metronome,209,1,38,74,3170441088
23,13,Improv_Metronome,210,1,38,90,3170627020
23,13,Improv_Metronome,211,5,42,127,3170861624
23,13,Improv_Metronome,212,1,48,116,3170907976
23,13,Improv_Metronome,213,1,38,81,3171323804
23,13,Improv_Metronome,214,5,42,127,3171361016
23,13,Improv_Metronome,215,1,38,79,3171401144
23,13,Improv_Metronome,216,1,38,91,3171627412
23,13,Improv_Metronome,217,5,42,127,3171860824
23,13,Improv_Metronome,218,1,48,102,3171899844
23,13,Improv_Metronome,219,1,38,88,3172325168
23,13,Improv_Metronome,220,5,42,127,3172360660
23,13,Improv_Metronome,221,1,38,69,3172390764
23,13,Improv_Metronome,222,1,38,94,3172633484
23,13,Improv_Metronome,223,5,42,127,3172861140
23,13,Improv_Metronome,224,1,48,101,3172901508
23,13,Improv_Metronome,225,1,38,89,3173325416
23,13,Improv_Metronome,226,5,42,127,3173360980
23,13,Improv_Metronome,227,1,38,68,3173385328
23,13,Improv_Metronome,228,1,38,93,3173638744
23,13,Improv_Metronome,229,5,42,127,3173860712
23,13,Improv_Metronome,230,1,48,99,3173907888
23,13,Improv_Metronome,231,1,38,95,3174332840
23,13,Improv_Metronome,232,5,42,127,3174360472
23,13,Improv_Metronome,233,1,38,59,3174403596
23,13,Improv_Metronome,234,1,38,102,3174643548
23,13,Improv_Metronome,235,5,42,127,3174861180
23,13,Improv_Metronome,236,1,48,95,3174903712
23,13,Improv_Metronome,237,1,48,90,3175152568
23,13,Improv_Metronome,238,5,42,127,3175360924
23,13,Improv_Metronome,239,1,38,64,3175374592
23,13,Improv_Metronome,240,1,38,99,3175422292
23,13,Improv_Metronome,241,1,38,74,3175646316
23,13,Improv_Metronome,242,1,38,78,3175858832
23,13,Improv_Metronome,243,5,42,127,3175861620
23,13,Improv_Metronome,244,5,42,127,3176361392
23,13,Improv_Metronome,245,1,48,97,3176382092
23,13,Improv_Metronome,246,5,42,127,3176861088
23,13,Improv_Metronome,247,1,38,64,3176870044
23,13,Improv_Metronome,248,5,42,127,3177360784
23,13,Improv_Metronome,249,1,48,81,3177384768
23,13,Improv_Metronome,250,1,38,75,3177836632
23,13,Improv_Metronome,251,5,42,127,3177860596
23,13,Improv_Metronome,252,1,48,78,3178216796
23,13,Improv_Metronome,253,1,48,67,3178303164
23,13,Improv_Metronome,254,5,42,127,3178361092
23,13,Improv_Metronome,255,1,48,103,3178567520
23,13,Improv_Metronome,256,1,38,81,3178827592
23,13,Improv_Metronome,257,5,42,127,3178860768
23,13,Improv_Metronome,258,1,48,88,3179254140
23,13,Improv_Metronome,259,1,48,74,3179336992
23,13,Improv_Metronome,260,5,42,127,3179360588
23,13,Improv_Metronome,261,1,48,85,3179600748
23,13,Improv_Metronome,262,1,38,67,3179861612
23,13,Improv_Metronome,263,5,42,127,3179864152
23,13,Improv_Metronome,264,1,48,92,3180310332
23,13,Improv_Metronome,265,5,42,127,3180361008
23,13,Improv_Metronome,266,1,48,71,3180376000
23,13,Improv_Metronome,267,1,48,96,3180663080
23,13,Improv_Metronome,268,5,42,127,3180860664
23,13,Improv_Metronome,269,1,38,59,3180914044
23,13,Improv_Metronome,270,1,48,84,3181301596
23,13,Improv_Metronome,271,5,42,127,3181360576
23,13,Improv_Metronome,272,1,48,75,3181391280
23,13,Improv_Metronome,273,1,48,103,3181664064
23,13,Improv_Metronome,274,5,42,127,3181861276
23,13,Improv_Metronome,275,1,38,85,3181904860
23,13,Improv_Metronome,276,1,48,79,3182316580
23,13,Improv_Metronome,277,5,42,127,3182360816
23,13,Improv_Metronome,278,1,48,72,3182396684
23,13,Improv_Metronome,279,1,48,94,3182529520
23,13,Improv_Metronome,280,1,48,48,3182616796
23,13,Improv_Metronome,281,1,48,80,3182771024
23,13,Improv_Metronome,282,5,42,127,3182860744
23,13,Improv_Metronome,283,1,48,50,3182867960
23,13,Improv_Metronome,284,1,48,76,3183033792
23,13,Improv_Metronome,285,1,48,46,3183171472
23,13,Improv_Metronome,286,1,48,73,3183308724
23,13,Improv_Metronome,287,5,42,127,3183361568
23,13,Improv_Metronome,288,1,48,54,3183439692
23,13,Improv_Metronome,289,1,48,73,3183592212
23,13,Improv_Metronome,290,1,48,54,3183731164
23,13,Improv_Metronome,291,5,42,127,3183861128
23,13,Improv_Metronome,292,1,48,76,3183878084
23,13,Improv_Metronome,293,1,48,49,3184001108
23,13,Improv_Metronome,294,1,48,81,3184170380
23,13,Improv_Metronome,295,1,48,60,3184267320
23,13,Improv_Metronome,296,5,42,127,3184360924
23,13,Improv_Metronome,297,1,48,86,3184432620
23,13,Improv_Metronome,298,5,42,127,3184860528
23,13,Improv_Metronome,299,1,38,81,3184906880
23,13,Improv_Metronome,300,5,42,127,3185361492
23,13,Improv_Metronome,301,1,48,74,3185413980
23,13,Improv_Metronome,302,1,48,80,3185426224
23,13,Improv_Metronome,303,5,42,127,3185860872
23,13,Improv_Metronome,304,1,38,77,3185911708
23,13,Improv_Metronome,305,5,42,127,3186360712
23,13,Improv_Metronome,306,1,48,91,3186395400
23,13,Improv_Metronome,307,5,42,127,3186861604
23,13,Improv_Metronome,308,1,38,62,3186880584
23,13,Improv_Metronome,309,1,38,76,3186894172
23,13,Improv_Metronome,310,1,48,91,3187337600
23,13,Improv_Metronome,311,5,42,127,3187361120
23,13,Improv_Metronome,312,1,48,69,3187383376
23,13,Improv_Metronome,313,1,48,100,3187654672
23,13,Improv_Metronome,314,5,42,127,3187860780
23,13,Improv_Metronome,315,1,38,87,3187912744
23,13,Improv_Metronome,316,1,48,87,3188340508
23,13,Improv_Metronome,317,5,42,127,3188360616
23,13,Improv_Metronome,318,1,48,89,3188388700
23,13,Improv_Metronome,319,1,48,88,3188659624
23,13,Improv_Metronome,320,5,42,127,3188861368
23,13,Improv_Metronome,321,1,38,78,3188906252
23,13,Improv_Metronome,322,1,48,92,3189314576
23,13,Improv_Metronome,323,5,42,127,3189360984
23,13,Improv_Metronome,324,1,48,88,3189371940
23,13,Improv_Metronome,325,1,48,75,3189663008
23,13,Improv_Metronome,326,5,42,127,3189860640
23,13,Improv_Metronome,327,1,38,90,3189895200
23,13,Improv_Metronome,328,1,48,88,3190288784
23,13,Improv_Metronome,329,1,48,83,3190355260
23,13,Improv_Metronome,330,5,42,127,3190360604
23,13,Improv_Metronome,331,1,48,88,3190638464
23,13,Improv_Metronome,332,5,42,127,3190861104
23,13,Improv_Metronome,333,1,38,68,3190888156
23,13,Improv_Metronome,334,1,48,91,3191283416
23,13,Improv_Metronome,335,1,48,86,3191351388
23,13,Improv_Metronome,336,5,42,127,3191360920
23,13,Improv_Metronome,337,1,48,86,3191637436
23,13,Improv_Metronome,338,5,42,127,3191860524
23,13,Improv_Metronome,339,1,38,89,3191884360
23,13,Improv_Metronome,340,1,48,70,3192302284
23,13,Improv_Metronome,341,5,42,127,3192361332
23,13,Improv_Metronome,342,1,48,67,3192376556
23,13,Improv_Metronome,343,1,48,94,3192638500
23,13,Improv_Metronome,344,5,42,127,3192861064
23,13,Improv_Metronome,345,1,38,75,3192891256
23,13,Improv_Metronome,346,1,48,101,3193295864
23,13,Improv_Metronome,347,5,42,127,3193360828
23,13,Improv_Metronome,348,1,48,87,3193387268
23,13,Improv_Metronome,349,1,48,101,3193667460
23,13,Improv_Metronome,350,5,42,127,3193860556
23,13,Improv_Metronome,351,1,38,83,3193904296
23,13,Improv_Metronome,352,5,42,127,3194361372
23,13,Improv_Metronome,353,1,38,108,3194402712
23,13,Improv_Metronome,354,5,42,127,3194860992
23,13,Improv_Metronome,355,1,38,78,3194893808
23,13,Improv_Metronome,356,5,42,127,3195360612
23,13,Improv_Metronome,357,1,38,100,3195387144
23,13,Improv_Metronome,358,5,42,127,3195861356
23,13,Improv_Metronome,359,1,38,63,3195903964
23,13,Improv_Metronome,360,5,42,127,3196360976
23,13,Improv_Metronome,361,1,38,90,3196389148
23,13,Improv_Metronome,362,5,42,127,3196860816
23,13,Improv_Metronome,363,1,38,79,3196872312
23,13,Improv_Metronome,364,1,48,59,3196880596
23,13,Improv_Metronome,365,1,38,86,3197354888
23,13,Improv_Metronome,366,5,42,127,3197360384
23,13,Improv_Metronome,367,1,38,99,3197838728
23,13,Improv_Metronome,368,1,48,49,3197854636
23,13,Improv_Metronome,369,5,42,127,3197861328
23,13,Improv_Metronome,370,1,38,78,3198330568
23,13,Improv_Metronome,371,5,42,127,3198360848
23,13,Improv_Metronome,372,1,48,66,3198814632
23,13,Improv_Metronome,373,1,38,79,3198818048
23,13,Improv_Metronome,374,5,42,127,3198860596
23,13,Improv_Metronome,375,1,38,70,3199295504
23,13,Improv_Metronome,376,5,42,127,3199361360
23,13,Improv_Metronome,377,1,48,65,3199756152
23,13,Improv_Metronome,378,1,38,69,3199759428
23,13,Improv_Metronome,379,5,42,127,3199861140
23,13,Improv_Metronome,380,1,38,91,3200283780
23,13,Improv_Metronome,381,5,42,127,3200360852
23,13,Improv_Metronome,382,1,48,70,3200785568
23,13,Improv_Metronome,383,1,38,93,3200792804
23,13,Improv_Metronome,384,5,42,127,3200860452
23,13,Improv_Metronome,385,1,38,66,3201309000
23,13,Improv_Metronome,386,1,48,93,3201334932
23,13,Improv_Metronome,387,5,42,127,3201361372
23,13,Improv_Metronome,388,1,38,81,3201829524
23,13,Improv_Metronome,389,1,48,54,3201835940
23,13,Improv_Metronome,390,5,42,127,3201860956
23,13,Improv_Metronome,391,1,38,70,3202343396
23,13,Improv_Metronome,392,5,42,127,3202360560
23,13,Improv_Metronome,393,1,48,69,3202374152
23,13,Improv_Metronome,394,1,48,116,3202858020
23,13,Improv_Metronome,395,5,42,127,3202861272
23,13,Improv_Metronome,396,1,48,64,3202923016
23,13,Improv_Metronome,397,1,48,115,3203210492
23,13,Improv_Metronome,398,5,42,127,3203361224
23,13,Improv_Metronome,399,1,38,70,3203466992
23,13,Improv_Metronome,400,5,42,127,3203860772
23,13,Improv_Metronome,401,1,48,99,3203916768
23,13,Improv_Metronome,402,1,48,62,3203990604
23,13,Improv_Metronome,403,1,48,100,3204265336
23,13,Improv_Metronome,404,5,42,127,3204360496
23,13,Improv_Metronome,405,1,38,86,3204523928
23,13,Improv_Metronome,0,9999,9999,9999,3134858352
23,13,Improv_Metronome,1,9999,9999,9999,3135359088
23,13,Improv_Metronome,2,9999,9999,9999,3135858800
23,13,Improv_Metronome,3,9999,9999,9999,3136358492
23,13,Improv_Metronome,4,9999,9999,9999,3136858188
23,13,Improv_Metronome,5,9999,9999,9999,3137358964
23,13,Improv_Metronome,6,9999,9999,9999,3137858660
23,13,Improv_Metronome,7,9999,9999,9999,3138358384
23,13,Improv_Metronome,8,9999,9999,9999,3138859128
23,13,Improv_Metronome,9,9999,9999,9999,3139358776
23,13,Improv_Metronome,10,9999,9999,9999,3139858540
23,13,Improv_Metronome,11,9999,9999,9999,3140358196
23,13,Improv_Metronome,12,9999,9999,9999,3140858936
23,13,Improv_Metronome,13,9999,9999,9999,3141358704
23,13,Improv_Metronome,14,9999,9999,9999,3141858368
23,13,Improv_Metronome,15,9999,9999,9999,3142358136
23,13,Improv_Metronome,16,9999,9999,9999,3142858824
23,13,Improv_Metronome,17,9999,9999,9999,3143358524
23,13,Improv_Metronome,18,9999,9999,9999,3143858252
23,13,Improv_Metronome,19,9999,9999,9999,3144359000
23,13,Improv_Metronome,20,9999,9999,9999,3144858712
23,13,Improv_Metronome,21,9999,9999,9999,3145358448
23,13,Improv_Metronome,22,9999,9999,9999,3145858116
23,13,Improv_Metronome,23,9999,9999,9999,3146358888
23,13,Improv_Metronome,24,9999,9999,9999,3146858576
23,13,Improv_Metronome,25,9999,9999,9999,3147358308
23,13,Improv_Metronome,26,9999,9999,9999,3147859044
23,13,Improv_Metronome,27,9999,9999,9999,3148358704
23,13,Improv_Metronome,28,9999,9999,9999,3148858464
23,13,Improv_Metronome,29,9999,9999,9999,3149358172
23,13,Improv_Metronome,30,9999,9999,9999,3149858912
23,13,Improv_Metronome,31,9999,9999,9999,3150358636
23,13,Improv_Metronome,32,9999,9999,9999,3150858328
23,13,Improv_Metronome,33,9999,9999,9999,3151359032
23,13,Improv_Metronome,34,9999,9999,9999,3151858796
23,13,Improv_Metronome,35,9999,9999,9999,3152358456
23,13,Improv_Metronome,36,9999,9999,9999,3152858220
23,13,Improv_Metronome,37,9999,9999,9999,3153358964
23,13,Improv_Metronome,38,9999,9999,9999,3153858660
23,13,Improv_Metronome,39,9999,9999,9999,3154358332
23,13,Improv_Metronome,40,9999,9999,9999,3154859128
23,13,Improv_Metronome,41,9999,9999,9999,3155358796
23,13,Improv_Metronome,42,9999,9999,9999,3155858552
23,13,Improv_Metronome,43,9999,9999,9999,3156358200
23,13,Improv_Metronome,44,9999,9999,9999,3156858948
23,13,Improv_Metronome,45,9999,9999,9999,3157358712
23,13,Improv_Metronome,46,9999,9999,9999,3157858408
23,13,Improv_Metronome,47,9999,9999,9999,3158358080
23,13,Improv_Metronome,48,9999,9999,9999,3158858828
23,13,Improv_Metronome,49,9999,9999,9999,3159358572
23,13,Improv_Metronome,50,9999,9999,9999,3159858224
23,13,Improv_Metronome,51,9999,9999,9999,3160359016
23,13,Improv_Metronome,52,9999,9999,9999,3160858672
23,13,Improv_Metronome,53,9999,9999,9999,3161358420
23,13,Improv_Metronome,54,9999,9999,9999,3161858116
23,13,Improv_Metronome,55,9999,9999,9999,3162358888
23,13,Improv_Metronome,56,9999,9999,9999,3162858560
23,13,Improv_Metronome,57,9999,9999,9999,3163358288
23,13,Improv_Metronome,58,9999,9999,9999,3163859000
23,13,Improv_Metronome,59,9999,9999,9999,3164358768
23,13,Improv_Metronome,60,9999,9999,9999,3164858436
23,13,Improv_Metronome,61,9999,9999,9999,3165358132
23,13,Improv_Metronome,62,9999,9999,9999,3165858900
23,13,Improv_Metronome,63,9999,9999,9999,3166358596
23,13,Improv_Metronome,64,9999,9999,9999,3166858316
23,13,Improv_Metronome,65,9999,9999,9999,3167359028
23,13,Improv_Metronome,66,9999,9999,9999,3167858760
23,13,Improv_Metronome,67,9999,9999,9999,3168358456
23,13,Improv_Metronome,68,9999,9999,9999,3168858180
23,13,Improv_Metronome,69,9999,9999,9999,3169358924
23,13,Improv_Metronome,70,9999,9999,9999,3169858648
23,13,Improv_Metronome,71,9999,9999,9999,3170358340
23,13,Improv_Metronome,72,9999,9999,9999,3170859116
23,13,Improv_Metronome,73,9999,9999,9999,3171358804
23,13,Improv_Metronome,74,9999,9999,9999,3171858536
23,13,Improv_Metronome,75,9999,9999,9999,3172358224
23,13,Improv_Metronome,76,9999,9999,9999,3172858928
23,13,Improv_Metronome,77,9999,9999,9999,3173358692
23,13,Improv_Metronome,78,9999,9999,9999,3173858424
23,13,Improv_Metronome,79,9999,9999,9999,3174358112
23,13,Improv_Metronome,80,9999,9999,9999,3174858816
23,13,Improv_Metronome,81,9999,9999,9999,3175358564
23,13,Improv_Metronome,82,9999,9999,9999,3175858232
23,13,Improv_Metronome,83,9999,9999,9999,3176359032
23,13,Improv_Metronome,84,9999,9999,9999,3176858728
23,13,Improv_Metronome,85,9999,9999,9999,3177358420
23,13,Improv_Metronome,86,9999,9999,9999,3177858160
23,13,Improv_Metronome,87,9999,9999,9999,3178358880
23,13,Improv_Metronome,88,9999,9999,9999,3178858552
23,13,Improv_Metronome,89,9999,9999,9999,3179358300
23,13,Improv_Metronome,90,9999,9999,9999,3179859028
23,13,Improv_Metronome,91,9999,9999,9999,3180358716
23,13,Improv_Metronome,92,9999,9999,9999,3180858448
23,13,Improv_Metronome,93,9999,9999,9999,3181358140
23,13,Improv_Metronome,94,9999,9999,9999,3181858916
23,13,Improv_Metronome,95,9999,9999,9999,3182358604
23,13,Improv_Metronome,96,9999,9999,9999,3182858308
23,13,Improv_Metronome,97,9999,9999,9999,3183359060
23,13,Improv_Metronome,98,9999,9999,9999,3183858768
23,13,Improv_Metronome,99,9999,9999,9999,3184358488
23,13,Improv_Metronome,100,9999,9999,9999,3184858164
23,13,Improv_Metronome,101,9999,9999,9999,3185358908
23,13,Improv_Metronome,102,9999,9999,9999,3185858656
23,13,Improv_Metronome,103,9999,9999,9999,3186358352
23,13,Improv_Metronome,104,9999,9999,9999,3186859096
23,13,Improv_Metronome,105,9999,9999,9999,3187358832
23,13,Improv_Metronome,106,9999,9999,9999,3187858492
23,13,Improv_Metronome,107,9999,9999,9999,3188358256
23,13,Improv_Metronome,108,9999,9999,9999,3188858932
23,13,Improv_Metronome,109,9999,9999,9999,3189358696
23,13,Improv_Metronome,110,9999,9999,9999,3189858352
23,13,Improv_Metronome,111,9999,9999,9999,3190358092
23,13,Improv_Metronome,112,9999,9999,9999,3190858820
23,13,Improv_Metronome,113,9999,9999,9999,3191358556
23,13,Improv_Metronome,114,9999,9999,9999,3191858236
23,13,Improv_Metronome,115,9999,9999,9999,3192358972
23,13,Improv_Metronome,116,9999,9999,9999,3192858700
23,13,Improv_Metronome,117,9999,9999,9999,3193358392
23,13,Improv_Metronome,118,9999,9999,9999,3193858120
23,13,Improv_Metronome,119,9999,9999,9999,3194358864
23,13,Improv_Metronome,120,9999,9999,9999,3194858556
23,13,Improv_Metronome,121,9999,9999,9999,3195358324
23,13,Improv_Metronome,122,9999,9999,9999,3195858992
23,13,Improv_Metronome,123,9999,9999,9999,3196358760
23,13,Improv_Metronome,124,9999,9999,9999,3196858456
23,13,Improv_Metronome,125,9999,9999,9999,3197358172
23,13,Improv_Metronome,126,9999,9999,9999,3197858892
23,13,Improv_Metronome,127,9999,9999,9999,3198358632
23,13,Improv_Metronome,128,9999,9999,9999,3198858308
23,13,Improv_Metronome,129,9999,9999,9999,3199359072
23,13,Improv_Metronome,130,9999,9999,9999,3199858780
23,13,Improv_Metronome,131,9999,9999,9999,3200358492
23,13,Improv_Metronome,132,9999,9999,9999,3200858168
23,13,Improv_Metronome,133,9999,9999,9999,3201358936
23,13,Improv_Metronome,134,9999,9999,9999,3201858668
23,13,Improv_Metronome,135,9999,9999,9999,3202358348
23,13,Improv_Metronome,136,9999,9999,9999,3202859060
23,13,Improv_Metronome,137,9999,9999,9999,3203358788
23,13,Improv_Metronome,138,9999,9999,9999,3203858484
23,13,Improv_Metronome,139,9999,9999,9999,3204358212
24,14,Improv_Melody,0,2,48,80,3263799592
24,14,Improv_Melody,1,2,72,80,3263802260
24,14,Improv_Melody,2,5,42,127,3263803676
24,14,Improv_Melody,3,5,42,110,3264297412
24,14,Improv_Melody,4,5,42,110,3264797208
24,14,Improv_Melody,5,5,42,110,3265296708
24,14,Improv_Melody,6,5,42,127,3265796508
24,14,Improv_Melody,7,5,42,110,3266297420
24,14,Improv_Melody,8,5,42,110,3266796848
24,14,Improv_Melody,9,5,42,110,3267296492
24,14,Improv_Melody,10,2,43,80,3267799764
24,14,Improv_Melody,11,2,67,80,3267802148
24,14,Improv_Melody,12,5,42,127,3267804528
24,14,Improv_Melody,13,5,42,110,3268297220
24,14,Improv_Melody,14,5,42,110,3268796792
24,14,Improv_Melody,15,5,42,110,3269296440
24,14,Improv_Melody,16,5,42,127,3269797432
24,14,Improv_Melody,17,5,42,110,3270297380
24,14,Improv_Melody,18,5,42,110,3270796656
24,14,Improv_Melody,19,5,42,110,3271297324
24,14,Improv_Melody,20,2,45,80,3271799772
24,14,Improv_Melody,21,2,69,80,3271801928
24,14,Improv_Melody,22,5,42,127,3271804312
24,14,Improv_Melody,23,5,42,110,3272296708
24,14,Improv_Melody,24,1,48,60,3272297672
24,14,Improv_Melody,25,5,42,110,3272796480
24,14,Improv_Melody,26,1,48,58,3273267056
24,14,Improv_Melody,27,5,42,110,3273297240
24,14,Improv_Melody,28,5,42,127,3273797172
24,14,Improv_Melody,29,5,42,110,3274296744
24,14,Improv_Melody,30,1,48,60,3274312204
24,14,Improv_Melody,31,5,42,110,3274797492
24,14,Improv_Melody,32,1,48,62,3275274876
24,14,Improv_Melody,33,5,42,110,3275297204
24,14,Improv_Melody,34,2,41,80,3275799572
24,14,Improv_Melody,35,2,65,80,3275801720
24,14,Improv_Melody,36,5,42,127,3275804404
24,14,Improv_Melody,37,5,42,110,3276296424
24,14,Improv_Melody,38,1,48,67,3276340236
24,14,Improv_Melody,39,5,42,110,3276797168
24,14,Improv_Melody,40,1,48,61,3277285404
24,14,Improv_Melody,41,5,42,110,3277297180
24,14,Improv_Melody,42,5,42,127,3277796592
24,14,Improv_Melody,43,1,48,66,3278277944
24,14,Improv_Melody,44,5,42,110,3278296456
24,14,Improv_Melody,45,5,42,110,3278797136
24,14,Improv_Melody,46,5,42,110,3279297080
24,14,Improv_Melody,47,1,48,61,3279316504
24,14,Improv_Melody,48,2,48,80,3279799056
24,14,Improv_Melody,49,2,72,80,3279800988
24,14,Improv_Melody,50,5,42,127,3279803752
24,14,Improv_Melody,51,1,38,51,3279813004
24,14,Improv_Melody,52,1,48,67,3279819488
24,14,Improv_Melody,53,1,38,59,3280290268
24,14,Improv_Melody,54,5,42,110,3280297412
24,14,Improv_Melody,55,1,38,61,3280785780
24,14,Improv_Melody,56,1,48,61,3280788972
24,14,Improv_Melody,57,5,42,110,3280797164
24,14,Improv_Melody,58,5,42,110,3281296620
24,14,Improv_Melody,59,1,38,48,3281305048
24,14,Improv_Melody,60,1,38,63,3281771868
24,14,Improv_Melody,61,1,48,59,3281789276
24,14,Improv_Melody,62,5,42,127,3281796592
24,14,Improv_Melody,63,1,38,40,3282285128
24,14,Improv_Melody,64,5,42,110,3282297136
24,14,Improv_Melody,65,1,38,60,3282764632
24,14,Improv_Melody,66,1,48,57,3282776584
24,14,Improv_Melody,67,5,42,110,3282796892
24,14,Improv_Melody,68,1,38,55,3283282092
24,14,Improv_Melody,69,5,42,110,3283296564
24,14,Improv_Melody,70,1,48,51,3283736836
24,14,Improv_Melody,71,1,48,72,3283759404
24,14,Improv_Melody,72,2,43,80,3283799944
24,14,Improv_Melody,73,2,67,80,3283802020
24,14,Improv_Melody,74,5,42,127,3283804632
24,14,Improv_Melody,75,5,42,110,3284297012
24,14,Improv_Melody,76,1,48,52,3284299452
24,14,Improv_Melody,77,1,48,59,3284783724
24,14,Improv_Melody,78,5,42,110,3284797000
24,14,Improv_Melody,79,1,48,54,3285269960
24,14,Improv_Melody,80,5,42,110,3285296476
24,14,Improv_Melody,81,1,48,59,3285766744
24,14,Improv_Melody,82,5,42,127,3285797224
24,14,Improv_Melody,83,1,48,52,3286256720
24,14,Improv_Melody,84,5,42,110,3286296996
24,14,Improv_Melody,85,1,48,54,3286746620
24,14,Improv_Melody,86,5,42,110,3286796772
24,14,Improv_Melody,87,1,48,52,3287247068
24,14,Improv_Melody,88,1,48,48,3287267616
24,14,Improv_Melody,89,5,42,110,3287297276
24,14,Improv_Melody,90,1,48,56,3287789080
24,14,Improv_Melody,91,2,45,80,3287799548
24,14,Improv_Melody,92,2,69,80,3287801776
24,14,Improv_Melody,93,5,42,127,3287804244
24,14,Improv_Melody,94,1,38,60,3288078136
24,14,Improv_Melody,95,5,42,110,3288296900
24,14,Improv_Melody,96,1,48,64,3288379004
24,14,Improv_Melody,97,5,42,110,3288796452
24,14,Improv_Melody,98,1,48,71,3288877432
24,14,Improv_Melody,99,1,38,52,3289106916
24,14,Improv_Melody,100,5,42,110,3289297324
24,14,Improv_Melody,101,1,48,75,3289391324
24,14,Improv_Melody,102,5,42,127,3289797024
24,14,Improv_Melody,103,1,48,69,3289870004
24,14,Improv_Melody,104,1,38,46,3290117588
24,14,Improv_Melody,105,5,42,110,3290296852
24,14,Improv_Melody,106,1,48,73,3290378732
24,14,Improv_Melody,107,5,42,110,3290797448
24,14,Improv_Melody,108,1,48,71,3290853076
24,14,Improv_Melody,109,1,38,47,3291099168
24,14,Improv_Melody,110,5,42,110,3291297052
24,14,Improv_Melody,111,1,48,78,3291365996
24,14,Improv_Melody,112,2,41,80,3291799328
24,14,Improv_Melody,113,2,65,80,3291801556
24,14,Improv_Melody,114,5,42,127,3291804020
24,14,Improv_Melody,115,1,48,72,3291845360
24,14,Improv_Melody,116,5,42,110,3292296688
24,14,Improv_Melody,117,1,38,67,3292314772
24,14,Improv_Melody,118,5,42,110,3292797336
24,14,Improv_Melody,119,1,48,67,3292804296
24,14,Improv_Melody,120,1,38,70,3293295372
24,14,Improv_Melody,121,5,42,110,3293298376
24,14,Improv_Melody,122,1,48,65,3293783304
24,14,Improv_Melody,123,5,42,127,3293796732
24,14,Improv_Melody,124,1,38,64,3294275072
24,14,Improv_Melody,125,5,42,110,3294296284
24,14,Improv_Melody,126,1,48,66,3294784124
24,14,Improv_Melody,127,5,42,110,3294797180
24,14,Improv_Melody,128,1,38,68,3295293100
24,14,Improv_Melody,129,5,42,110,3295296804
24,14,Improv_Melody,130,2,48,80,3295799164
24,14,Improv_Melody,131,2,72,80,3295801468
24,14,Improv_Melody,132,5,42,127,3295804000
24,14,Improv_Melody,133,1,48,66,3295812208
24,14,Improv_Melody,134,5,42,110,3296297420
24,14,Improv_Melody,135,1,48,71,3296334720
24,14,Improv_Melody,136,5,42,110,3296796968
24,14,Improv_Melody,137,1,48,67,3296828808
24,14,Improv_Melody,138,5,42,110,3297296892
24,14,Improv_Melody,139,1,48,61,3297297856
24,14,Improv_Melody,140,1,48,70,3297793632
24,14,Improv_Melody,141,5,42,127,3297796436
24,14,Improv_Melody,142,5,42,110,3298297116
24,14,Improv_Melody,143,1,48,60,3298305992
24,14,Improv_Melody,144,1,48,60,3298790860
24,14,Improv_Melody,145,5,42,110,3298796884
24,14,Improv_Melody,146,1,48,51,3299293332
24,14,Improv_Melody,147,5,42,110,3299296584
24,14,Improv_Melody,148,1,38,62,3299790260
24,14,Improv_Melody,149,2,43,80,3299800140
24,14,Improv_Melody,150,2,67,80,3299801988
24,14,Improv_Melody,151,5,42,127,3299804676
24,14,Improv_Melody,152,5,42,110,3300297128
24,14,Improv_Melody,153,1,38,62,3300298092
24,14,Improv_Melody,154,5,42,110,3300796680
24,14,Improv_Melody,155,1,38,65,3300801440
24,14,Improv_Melody,156,1,38,64,3301287284
24,14,Improv_Melody,157,5,42,110,3301296596
24,14,Improv_Melody,158,1,38,63,3301775392
24,14,Improv_Melody,159,5,42,127,3301797272
24,14,Improv_Melody,160,1,38,63,3302258384
24,14,Improv_Melody,161,5,42,110,3302296968
24,14,Improv_Melody,162,1,38,59,3302749780
24,14,Improv_Melody,163,5,42,110,3302796668
24,14,Improv_Melody,164,1,38,57,3303267432
24,14,Improv_Melody,165,5,42,110,3303297560
24,14,Improv_Melody,166,1,48,91,3303776408
24,14,Improv_Melody,167,2,45,80,3303799740
24,14,Improv_Melody,168,2,69,80,3303801668
24,14,Improv_Melody,169,5,42,127,3303804356
24,14,Improv_Melody,170,1,48,76,3304292948
24,14,Improv_Melody,171,5,42,110,3304297024
24,14,Improv_Melody,172,5,42,110,3304796732
24,14,Improv_Melody,173,1,48,65,3304807856
24,14,Improv_Melody,174,1,48,61,3305269536
24,14,Improv_Melody,175,5,42,110,3305297472
24,14,Improv_Melody,176,1,48,65,3305777764
24,14,Improv_Melody,177,5,42,127,3305796952
24,14,Improv_Melody,178,1,48,55,3306273348
24,14,Improv_Melody,179,5,42,110,3306296800
24,14,Improv_Melody,180,1,48,70,3306751432
24,14,Improv_Melody,181,5,42,110,3306797472
24,14,Improv_Melody,182,1,48,70,3307249936
24,14,Improv_Melody,183,5,42,110,3307297020
24,14,Improv_Melody,184,1,38,68,3307776636
24,14,Improv_Melody,185,2,41,80,3307799148
24,14,Improv_Melody,186,2,65,80,3307801452
24,14,Improv_Melody,187,5,42,127,3307803844
24,14,Improv_Melody,188,5,42,110,3308296740
24,14,Improv_Melody,189,1,38,71,3308307412
24,14,Improv_Melody,190,1,38,66,3308772388
24,14,Improv_Melody,191,5,42,110,3308797480
24,14,Improv_Melody,192,1,38,62,3309255932
24,14,Improv_Melody,193,5,42,110,3309297108
24,14,Improv_Melody,194,1,38,64,3309778968
24,14,Improv_Melody,195,5,42,127,3309796656
24,14,Improv_Melody,196,1,38,70,3310275224
24,14,Improv_Melody,197,5,42,110,3310296728
24,14,Improv_Melody,198,1,38,80,3310783828
24,14,Improv_Melody,199,5,42,110,3310797028
24,14,Improv_Melody,200,1,38,65,3311277016
24,14,Improv_Melody,201,5,42,110,3311296876
24,14,Improv_Melody,202,1,48,78,3311784720
24,14,Improv_Melody,203,2,48,80,3311798928
24,14,Improv_Melody,204,2,72,80,3311801388
24,14,Improv_Melody,205,5,42,127,3311803772
24,14,Improv_Melody,206,5,42,110,3312297420
24,14,Improv_Melody,207,1,38,59,3312301140
24,14,Improv_Melody,208,5,42,110,3312796972
24,14,Improv_Melody,209,1,48,75,3312815128
24,14,Improv_Melody,210,5,42,110,3313296672
24,14,Improv_Melody,211,1,38,57,3313302712
24,14,Improv_Melody,212,1,48,68,3313781636
24,14,Improv_Melody,213,5,42,127,3313796588
24,14,Improv_Melody,214,1,38,60,3314285604
24,14,Improv_Melody,215,5,42,110,3314297160
24,14,Improv_Melody,216,1,48,82,3314777376
24,14,Improv_Melody,217,5,42,110,3314796860
24,14,Improv_Melody,218,1,38,65,3315290164
24,14,Improv_Melody,219,5,42,110,3315296632
24,14,Improv_Melody,220,1,48,78,3315781184
24,14,Improv_Melody,221,2,43,80,3315799808
24,14,Improv_Melody,222,2,67,80,3315802036
24,14,Improv_Melody,223,5,42,127,3315804652
24,14,Improv_Melody,224,1,38,64,3316284340
24,14,Improv_Melody,225,5,42,110,3316296948
24,14,Improv_Melody,226,1,48,73,3316787780
24,14,Improv_Melody,227,5,42,110,3316796648
24,14,Improv_Melody,228,1,38,66,3317276408
24,14,Improv_Melody,229,5,42,110,3317296568
24,14,Improv_Melody,230,1,48,58,3317757532
24,14,Improv_Melody,231,5,42,127,3317797440
24,14,Improv_Melody,232,1,38,66,3318244744
24,14,Improv_Melody,233,5,42,110,3318296840
24,14,Improv_Melody,234,1,48,80,3318755740
24,14,Improv_Melody,235,5,42,110,3318796764
24,14,Improv_Melody,236,1,38,72,3319245412
24,14,Improv_Melody,237,5,42,110,3319297512
24,14,Improv_Melody,238,1,48,69,3319778024
24,14,Improv_Melody,239,2,45,80,3319799564
24,14,Improv_Melody,240,2,69,80,3319801872
24,14,Improv_Melody,241,5,42,127,3319804408
24,14,Improv_Melody,242,5,42,110,3320296860
24,14,Improv_Melody,243,1,38,55,3320302972
24,14,Improv_Melody,244,1,48,76,3320795044
24,14,Improv_Melody,245,5,42,110,3320796552
24,14,Improv_Melody,246,5,42,110,3321297452
24,14,Improv_Melody,247,1,38,69,3321310372
24,14,Improv_Melody,248,1,48,68,3321769432
24,14,Improv_Melody,249,5,42,127,3321796996
24,14,Improv_Melody,250,1,38,73,3322268012
24,14,Improv_Melody,251,5,42,110,3322296624
24,14,Improv_Melody,252,1,48,73,3322753720
24,14,Improv_Melody,253,5,42,110,3322797520
24,14,Improv_Melody,254,1,38,55,3323267784
24,14,Improv_Melody,255,5,42,110,3323297292
24,14,Improv_Melody,256,1,48,67,3323777656
24,14,Improv_Melody,257,2,41,80,3323799496
24,14,Improv_Melody,258,2,65,80,3323801652
24,14,Improv_Melody,259,5,42,127,3323804260
24,14,Improv_Melody,260,5,42,110,3324296492
24,14,Improv_Melody,261,1,38,76,3324307016
24,14,Improv_Melody,262,1,48,72,3324780336
24,14,Improv_Melody,263,5,42,110,3324797356
24,14,Improv_Melody,264,1,38,78,3325262436
24,14,Improv_Melody,265,5,42,110,3325297032
24,14,Improv_Melody,266,1,48,68,3325781284
24,14,Improv_Melody,267,5,42,127,3325796656
24,14,Improv_Melody,268,1,38,74,3326273352
24,14,Improv_Melody,269,5,42,110,3326296280
24,14,Improv_Melody,270,1,48,76,3326769392
24,14,Improv_Melody,271,5,42,110,3326797252
24,14,Improv_Melody,272,1,38,84,3327282328
24,14,Improv_Melody,273,5,42,110,3327296804
24,14,Improv_Melody,274,1,38,74,3327787188
24,14,Improv_Melody,275,2,48,80,3327799156
24,14,Improv_Melody,276,2,72,80,3327801232
24,14,Improv_Melody,277,5,42,127,3327803772
24,14,Improv_Melody,278,5,42,110,3328297420
24,14,Improv_Melody,279,1,38,70,3328312436
24,14,Improv_Melody,280,1,38,69,3328791312
24,14,Improv_Melody,281,5,42,110,3328797332
24,14,Improv_Melody,282,5,42,110,3329296744
24,14,Improv_Melody,283,1,38,55,3329303228
24,14,Improv_Melody,284,1,38,72,3329791460
24,14,Improv_Melody,285,5,42,127,3329796440
24,14,Improv_Melody,286,1,38,70,3330276504
24,14,Improv_Melody,287,5,42,110,3330297484
24,14,Improv_Melody,288,1,38,65,3330755556
24,14,Improv_Melody,289,5,42,110,3330797184
24,14,Improv_Melody,290,1,38,70,3331275980
24,14,Improv_Melody,291,5,42,110,3331296512
24,14,Improv_Melody,292,1,48,85,3331766328
24,14,Improv_Melody,293,2,43,80,3331799912
24,14,Improv_Melody,294,2,67,80,3331802216
24,14,Improv_Melody,295,5,42,127,3331804600
24,14,Improv_Melody,296,1,48,77,3332297128
24,14,Improv_Melody,297,5,42,110,3332298612
24,14,Improv_Melody,298,5,42,110,3332796752
24,14,Improv_Melody,299,1,48,70,3332797716
24,14,Improv_Melody,300,5,42,110,3333296524
24,14,Improv_Melody,301,1,48,73,3333300244
24,14,Improv_Melody,302,1,48,68,3333790716
24,14,Improv_Melody,303,5,42,127,3333797416
24,14,Improv_Melody,304,1,48,71,3334278896
24,14,Improv_Melody,305,5,42,110,3334297188
24,14,Improv_Melody,306,1,48,76,3334772516
24,14,Improv_Melody,307,5,42,110,3334796516
24,14,Improv_Melody,308,1,48,65,3335250748
24,14,Improv_Melody,309,5,42,110,3335297340
24,14,Improv_Melody,310,1,38,79,3335759276
24,14,Improv_Melody,311,2,45,80,3335799668
24,14,Improv_Melody,312,2,69,80,3335802048
24,14,Improv_Melody,313,5,42,127,3335804356
24,14,Improv_Melody,314,1,38,73,3336264596
24,14,Improv_Melody,315,5,42,110,3336297100
24,14,Improv_Melody,316,1,38,74,3336754724
24,14,Improv_Melody,317,5,42,110,3336796500
24,14,Improv_Melody,318,1,38,64,3337292792
24,14,Improv_Melody,319,5,42,110,3337297396
24,14,Improv_Melody,320,5,42,127,3337797324
24,14,Improv_Melody,321,1,38,52,3337815188
24,14,Improv_Melody,322,1,38,42,3338286512
24,14,Improv_Melody,323,5,42,110,3338296648
24,14,Improv_Melody,324,5,42,110,3338797400
24,14,Improv_Melody,325,1,38,56,3338802164
24,14,Improv_Melody,326,1,38,70,3339282316
24,14,Improv_Melody,327,5,42,110,3339297168
24,14,Improv_Melody,328,1,48,89,3339770128
24,14,Improv_Melody,329,2,41,80,3339799520
24,14,Improv_Melody,330,2,65,80,3339801752
24,14,Improv_Melody,331,5,42,127,3339804136
24,14,Improv_Melody,332,1,48,67,3340290112
24,14,Improv_Melody,333,5,42,110,3340296584
24,14,Improv_Melody,334,5,42,110,3340797412
24,14,Improv_Melody,335,1,48,71,3340800008
24,14,Improv_Melody,336,1,48,73,3341280684
24,14,Improv_Melody,337,5,42,110,3341297180
24,14,Improv_Melody,338,1,48,62,3341778364
24,14,Improv_Melody,339,5,42,127,3341796804
24,14,Improv_Melody,340,1,48,70,3342266696
24,14,Improv_Melody,341,5,42,110,3342296504
24,14,Improv_Melody,342,1,48,56,3342752184
24,14,Improv_Melody,343,5,42,110,3342797104
24,14,Improv_Melody,344,1,48,71,3343261008
24,14,Improv_Melody,345,5,42,110,3343297100
24,14,Improv_Melody,346,2,48,80,3343799084
24,14,Improv_Melody,347,2,72,80,3343801016
24,14,Improv_Melody,348,5,42,127,3343803776
24,14,Improv_Melody,349,1,38,81,3343806220
24,14,Improv_Melody,350,5,42,110,3344297268
24,14,Improv_Melody,351,1,48,82,3344343992
24,14,Improv_Melody,0,9999,9999,9999,3263794240
24,14,Improv_Melody,1,9999,9999,9999,3264294972
24,14,Improv_Melody,2,9999,9999,9999,3264794692
24,14,Improv_Melody,3,9999,9999,9999,3265294416
24,14,Improv_Melody,4,9999,9999,9999,3265794136
24,14,Improv_Melody,5,9999,9999,9999,3266294832
24,14,Improv_Melody,6,9999,9999,9999,3266794552
24,14,Improv_Melody,7,9999,9999,9999,3267294276
24,14,Improv_Melody,8,9999,9999,9999,3267795044
24,14,Improv_Melody,9,9999,9999,9999,3268294704
24,14,Improv_Melody,10,9999,9999,9999,3268794424
24,14,Improv_Melody,11,9999,9999,9999,3269294148
24,14,Improv_Melody,12,9999,9999,9999,3269794916
24,14,Improv_Melody,13,9999,9999,9999,3270294640
24,14,Improv_Melody,14,9999,9999,9999,3270794360
24,14,Improv_Melody,15,9999,9999,9999,3271295028
24,14,Improv_Melody,16,9999,9999,9999,3271794752
24,14,Improv_Melody,17,9999,9999,9999,3272294488
24,14,Improv_Melody,18,9999,9999,9999,3272794188
24,14,Improv_Melody,19,9999,9999,9999,3273294948
24,14,Improv_Melody,20,9999,9999,9999,3273794656
24,14,Improv_Melody,21,9999,9999,9999,3274294376
24,14,Improv_Melody,22,9999,9999,9999,3274795124
24,14,Improv_Melody,23,9999,9999,9999,3275294836
24,14,Improv_Melody,24,9999,9999,9999,3275794544
24,14,Improv_Melody,25,9999,9999,9999,3276294204
24,14,Improv_Melody,26,9999,9999,9999,3276794952
24,14,Improv_Melody,27,9999,9999,9999,3277294668
24,14,Improv_Melody,28,9999,9999,9999,3277794372
24,14,Improv_Melody,29,9999,9999,9999,3278294088
24,14,Improv_Melody,30,9999,9999,9999,3278794844
24,14,Improv_Melody,31,9999,9999,9999,3279294564
24,14,Improv_Melody,32,9999,9999,9999,3279794264
24,14,Improv_Melody,33,9999,9999,9999,3280294972
24,14,Improv_Melody,34,9999,9999,9999,3280794724
24,14,Improv_Melody,35,9999,9999,9999,3281294404
24,14,Improv_Melody,36,9999,9999,9999,3281794152
24,14,Improv_Melody,37,9999,9999,9999,3282294844
24,14,Improv_Melody,38,9999,9999,9999,3282794600
24,14,Improv_Melody,39,9999,9999,9999,3283294272
24,14,Improv_Melody,40,9999,9999,9999,3283794996
24,14,Improv_Melody,41,9999,9999,9999,3284294716
24,14,Improv_Melody,42,9999,9999,9999,3284794484
24,14,Improv_Melody,43,9999,9999,9999,3285294184
24,14,Improv_Melody,44,9999,9999,9999,3285794932
24,14,Improv_Melody,45,9999,9999,9999,3286294632
24,14,Improv_Melody,46,9999,9999,9999,3286794332
24,14,Improv_Melody,47,9999,9999,9999,3287295056
24,14,Improv_Melody,48,9999,9999,9999,3287794756
24,14,Improv_Melody,49,9999,9999,9999,3288294456
24,14,Improv_Melody,50,9999,9999,9999,3288794232
24,14,Improv_Melody,51,9999,9999,9999,3289294956
24,14,Improv_Melody,52,9999,9999,9999,3289794656
24,14,Improv_Melody,53,9999,9999,9999,3290294332
24,14,Improv_Melody,54,9999,9999,9999,3290795084
24,14,Improv_Melody,55,9999,9999,9999,3291294836
24,14,Improv_Melody,56,9999,9999,9999,3291794536
24,14,Improv_Melody,57,9999,9999,9999,3292294248
24,14,Improv_Melody,58,9999,9999,9999,3292794968
24,14,Improv_Melody,59,9999,9999,9999,3293294676
24,14,Improv_Melody,60,9999,9999,9999,3293794364
24,14,Improv_Melody,61,9999,9999,9999,3294294064
24,14,Improv_Melody,62,9999,9999,9999,3294794812
24,14,Improv_Melody,63,9999,9999,9999,3295294512
24,14,Improv_Melody,64,9999,9999,9999,3295794292
24,14,Improv_Melody,65,9999,9999,9999,3296294976
24,14,Improv_Melody,66,9999,9999,9999,3296794676
24,14,Improv_Melody,67,9999,9999,9999,3297294452
24,14,Improv_Melody,68,9999,9999,9999,3297794144
24,14,Improv_Melody,69,9999,9999,9999,3298294900
24,14,Improv_Melody,70,9999,9999,9999,3298794592
24,14,Improv_Melody,71,9999,9999,9999,3299294292
24,14,Improv_Melody,72,9999,9999,9999,3299795040
24,14,Improv_Melody,73,9999,9999,9999,3300294760
24,14,Improv_Melody,74,9999,9999,9999,3300794460
24,14,Improv_Melody,75,9999,9999,9999,3301294156
24,14,Improv_Melody,76,9999,9999,9999,3301794904
24,14,Improv_Melody,77,9999,9999,9999,3302294600
24,14,Improv_Melody,78,9999,9999,9999,3302794300
24,14,Improv_Melody,79,9999,9999,9999,3303295096
24,14,Improv_Melody,80,9999,9999,9999,3303794796
24,14,Improv_Melody,81,9999,9999,9999,3304294508
24,14,Improv_Melody,82,9999,9999,9999,3304794216
24,14,Improv_Melody,83,9999,9999,9999,3305294956
24,14,Improv_Melody,84,9999,9999,9999,3305794660
24,14,Improv_Melody,85,9999,9999,9999,3306294360
24,14,Improv_Melody,86,9999,9999,9999,3306795104
24,14,Improv_Melody,87,9999,9999,9999,3307294804
24,14,Improv_Melody,88,9999,9999,9999,3307794504
24,14,Improv_Melody,89,9999,9999,9999,3308294224
24,14,Improv_Melody,90,9999,9999,9999,3308794964
24,14,Improv_Melody,91,9999,9999,9999,3309294664
24,14,Improv_Melody,92,9999,9999,9999,3309794364
24,14,Improv_Melody,93,9999,9999,9999,3310294064
24,14,Improv_Melody,94,9999,9999,9999,3310794812
24,14,Improv_Melody,95,9999,9999,9999,3311294584
24,14,Improv_Melody,96,9999,9999,9999,3311794284
24,14,Improv_Melody,97,9999,9999,9999,3312294976
24,14,Improv_Melody,98,9999,9999,9999,3312794676
24,14,Improv_Melody,99,9999,9999,9999,3313294456
24,14,Improv_Melody,100,9999,9999,9999,3313794148
24,14,Improv_Melody,101,9999,9999,9999,3314294868
24,14,Improv_Melody,102,9999,9999,9999,3314794568
24,14,Improv_Melody,103,9999,9999,9999,3315294268
24,14,Improv_Melody,104,9999,9999,9999,3315795016
24,14,Improv_Melody,105,9999,9999,9999,3316294728
24,14,Improv_Melody,106,9999,9999,9999,3316794428
24,14,Improv_Melody,107,9999,9999,9999,3317294128
24,14,Improv_Melody,108,9999,9999,9999,3317794924
24,14,Improv_Melody,109,9999,9999,9999,3318294624
24,14,Improv_Melody,110,9999,9999,9999,3318794324
24,14,Improv_Melody,111,9999,9999,9999,3319295068
24,14,Improv_Melody,112,9999,9999,9999,3319794772
24,14,Improv_Melody,113,9999,9999,9999,3320294492
24,14,Improv_Melody,114,9999,9999,9999,3320794192
24,14,Improv_Melody,115,9999,9999,9999,3321294936
24,14,Improv_Melody,116,9999,9999,9999,3321794632
24,14,Improv_Melody,117,9999,9999,9999,3322294328
24,14,Improv_Melody,118,9999,9999,9999,3322795076
24,14,Improv_Melody,119,9999,9999,9999,3323294776
24,14,Improv_Melody,120,9999,9999,9999,3323794552
24,14,Improv_Melody,121,9999,9999,9999,3324294200
24,14,Improv_Melody,122,9999,9999,9999,3324794988
24,14,Improv_Melody,123,9999,9999,9999,3325294664
24,14,Improv_Melody,124,9999,9999,9999,3325794364
24,14,Improv_Melody,125,9999,9999,9999,3326294064
24,14,Improv_Melody,126,9999,9999,9999,3326794812
24,14,Improv_Melody,127,9999,9999,9999,3327294584
24,14,Improv_Melody,128,9999,9999,9999,3327794284
24,14,Improv_Melody,129,9999,9999,9999,3328294976
24,14,Improv_Melody,130,9999,9999,9999,3328794744
24,14,Improv_Melody,131,9999,9999,9999,3329294452
24,14,Improv_Melody,132,9999,9999,9999,3329794144
24,14,Improv_Melody,133,9999,9999,9999,3330294892
24,14,Improv_Melody,134,9999,9999,9999,3330794596
24,14,Improv_Melody,135,9999,9999,9999,3331294292
24,14,Improv_Melody,136,9999,9999,9999,3331795040
24,14,Improv_Melody,137,9999,9999,9999,3332294760
24,14,Improv_Melody,138,9999,9999,9999,3332794460
24,14,Improv_Melody,139,9999,9999,9999,3333294160
24,14,Improv_Melody,140,9999,9999,9999,3333794900
24,14,Improv_Melody,141,9999,9999,9999,3334294596
24,14,Improv_Melody,142,9999,9999,9999,3334794300
24,14,Improv_Melody,143,9999,9999,9999,3335295048
24,14,Improv_Melody,144,9999,9999,9999,3335794796
24,14,Improv_Melody,145,9999,9999,9999,3336294508
24,14,Improv_Melody,146,9999,9999,9999,3336794208
24,14,Improv_Melody,147,9999,9999,9999,3337294956
24,14,Improv_Melody,148,9999,9999,9999,3337794660
24,14,Improv_Melody,149,9999,9999,9999,3338294356
24,14,Improv_Melody,150,9999,9999,9999,3338795112
24,14,Improv_Melody,151,9999,9999,9999,3339294800
24,14,Improv_Melody,152,9999,9999,9999,3339794500
24,14,Improv_Melody,153,9999,9999,9999,3340294216
24,14,Improv_Melody,154,9999,9999,9999,3340794968
24,14,Improv_Melody,155,9999,9999,9999,3341294664
24,14,Improv_Melody,156,9999,9999,9999,3341794364
24,14,Improv_Melody,157,9999,9999,9999,3342294136
24,14,Improv_Melody,158,9999,9999,9999,3342794808
24,14,Improv_Melody,159,9999,9999,9999,3343294584
24,14,Improv_Melody,160,9999,9999,9999,3343794292
24,14,Improv_Melody,161,9999,9999,9999,3344294976
