pid,taskRunCount,taskID,taskName,i,channel,pitch,velocity,microseconds
97,1,0,Ticks_Pract_8,0,1,48,30,79351776
97,1,0,Ticks_Pract_8,1,5,42,127,80152868
97,1,0,Ticks_Pract_8,2,5,42,127,80952624
97,1,0,Ticks_Pract_8,3,5,42,127,81752676
97,1,0,Ticks_Pract_8,4,5,42,127,82553104
97,1,0,Ticks_Pract_8,5,5,42,127,83352936
97,1,0,Ticks_Pract_8,6,1,48,47,83379092
97,1,0,Ticks_Pract_8,7,1,48,39,84101988
97,1,0,Ticks_Pract_8,8,5,42,127,84152736
97,1,0,Ticks_Pract_8,9,1,48,41,84907036
97,1,0,Ticks_Pract_8,10,5,42,127,84952620
97,1,0,Ticks_Pract_8,11,1,48,37,85728232
97,1,0,Ticks_Pract_8,12,5,42,127,85753052
97,1,0,Ticks_Pract_8,13,1,48,36,86516100
97,1,0,Ticks_Pract_8,14,5,42,127,86553084
97,1,0,Ticks_Pract_8,15,1,48,40,87314936
97,1,0,Ticks_Pract_8,16,5,42,127,87352744
97,1,0,Ticks_Pract_8,17,1,48,41,88108540
97,1,0,Ticks_Pract_8,18,5,42,127,88152404
97,1,0,Ticks_Pract_8,19,1,48,37,88899072
97,1,0,Ticks_Pract_8,20,5,42,127,88953332
97,1,0,Ticks_Pract_8,21,1,48,38,89683620
97,1,0,Ticks_Pract_8,22,5,42,127,89752916
97,1,0,Ticks_Pract_8,23,1,48,27,90545884
97,1,0,Ticks_Pract_8,24,5,42,127,90552728
97,1,0,Ticks_Pract_8,25,1,48,29,91307024
97,1,0,Ticks_Pract_8,26,5,42,127,91352532
97,1,0,Ticks_Pract_8,27,5,42,127,92153124
97,1,0,Ticks_Pract_8,28,1,48,26,92165220
97,1,0,Ticks_Pract_8,29,5,42,127,92952932
97,1,0,Ticks_Pract_8,30,1,48,29,92965248
97,1,0,Ticks_Pract_8,31,1,48,32,93710664
97,1,0,Ticks_Pract_8,32,5,42,127,93752732
97,1,0,Ticks_Pract_8,33,1,48,28,94512716
97,1,0,Ticks_Pract_8,34,5,42,127,94552468
97,1,0,Ticks_Pract_8,35,1,48,27,95297344
97,1,0,Ticks_Pract_8,36,5,42,127,95353472
97,1,0,Ticks_Pract_8,37,1,48,32,96057440
97,1,0,Ticks_Pract_8,38,5,42,127,96152912
97,1,0,Ticks_Pract_8,39,1,48,28,96876992
97,1,0,Ticks_Pract_8,40,5,42,127,96952644
97,1,0,Ticks_Pract_8,41,1,48,29,97703500
97,1,0,Ticks_Pract_8,42,5,42,127,97752528
97,1,0,Ticks_Pract_8,43,5,42,127,98553192
97,1,0,Ticks_Pract_8,44,1,48,32,98563788
97,1,0,Ticks_Pract_8,45,5,42,127,99352924
97,1,0,Ticks_Pract_8,46,1,48,37,99430620
97,1,0,Ticks_Pract_8,47,5,42,127,100152808
97,1,0,Ticks_Pract_8,48,1,48,28,100189364
97,1,0,Ticks_Pract_8,49,5,42,127,100952392
97,1,0,Ticks_Pract_8,50,1,48,27,100958652
97,1,0,Ticks_Pract_8,51,5,42,127,101753396
97,1,0,Ticks_Pract_8,52,1,48,24,101761900
97,1,0,Ticks_Pract_8,53,5,42,127,102552908
97,1,0,Ticks_Pract_8,54,1,48,24,102570464
97,1,0,Ticks_Pract_8,55,1,48,23,103346396
97,1,0,Ticks_Pract_8,56,5,42,127,103352708
97,1,0,Ticks_Pract_8,0,9999,9999,9999,80150580
97,1,0,Ticks_Pract_8,1,9999,9999,9999,80950336
97,1,0,Ticks_Pract_8,2,9999,9999,9999,81750088
97,1,0,Ticks_Pract_8,3,9999,9999,9999,82550892
97,1,0,Ticks_Pract_8,4,9999,9999,9999,83350644
97,1,0,Ticks_Pract_8,5,9999,9999,9999,84150376
97,1,0,Ticks_Pract_8,6,9999,9999,9999,84950108
97,1,0,Ticks_Pract_8,7,9999,9999,9999,85750836
97,1,0,Ticks_Pract_8,8,9999,9999,9999,86550648
97,1,0,Ticks_Pract_8,9,9999,9999,9999,87350380
97,1,0,Ticks_Pract_8,10,9999,9999,9999,88150116
97,1,0,Ticks_Pract_8,11,9999,9999,9999,88950896
97,1,0,Ticks_Pract_8,12,9999,9999,9999,89750632
97,1,0,Ticks_Pract_8,13,9999,9999,9999,90550364
97,1,0,Ticks_Pract_8,14,9999,9999,9999,91350096
97,1,0,Ticks_Pract_8,15,9999,9999,9999,92150836
97,1,0,Ticks_Pract_8,16,9999,9999,9999,92950644
97,1,0,Ticks_Pract_8,17,9999,9999,9999,93750372
97,1,0,Ticks_Pract_8,18,9999,9999,9999,94550108
97,1,0,Ticks_Pract_8,19,9999,9999,9999,95350888
97,1,0,Ticks_Pract_8,20,9999,9999,9999,96150624
97,1,0,Ticks_Pract_8,21,9999,9999,9999,96950356
97,1,0,Ticks_Pract_8,22,9999,9999,9999,97750092
97,1,0,Ticks_Pract_8,23,9999,9999,9999,98550828
97,1,0,Ticks_Pract_8,24,9999,9999,9999,99350636
97,1,0,Ticks_Pract_8,25,9999,9999,9999,100150372
97,1,0,Ticks_Pract_8,26,9999,9999,9999,100950104
97,1,0,Ticks_Pract_8,27,9999,9999,9999,101750884
97,1,0,Ticks_Pract_8,28,9999,9999,9999,102550620
97,1,0,Ticks_Pract_8,29,9999,9999,9999,103350348
97,2,1,Ticks_Pract_5,0,5,42,127,158031104
97,2,1,Ticks_Pract_5,1,5,42,127,158530968
97,2,1,Ticks_Pract_5,2,5,42,127,159030832
97,2,1,Ticks_Pract_5,3,5,42,127,159531300
97,2,1,Ticks_Pract_5,4,5,42,127,160031016
97,2,1,Ticks_Pract_5,5,1,48,38,160038620
97,2,1,Ticks_Pract_5,6,1,48,38,160495140
97,2,1,Ticks_Pract_5,7,5,42,127,160530852
97,2,1,Ticks_Pract_5,8,1,48,45,160981348
97,2,1,Ticks_Pract_5,9,5,42,127,161030844
97,2,1,Ticks_Pract_5,10,1,48,41,161520480
97,2,1,Ticks_Pract_5,11,5,42,127,161531212
97,2,1,Ticks_Pract_5,12,1,48,43,162029000
97,2,1,Ticks_Pract_5,13,5,42,127,162031056
97,2,1,Ticks_Pract_5,14,1,48,36,162497480
97,2,1,Ticks_Pract_5,15,5,42,127,162530800
97,2,1,Ticks_Pract_5,16,1,48,31,163013932
97,2,1,Ticks_Pract_5,17,5,42,127,163031544
97,2,1,Ticks_Pract_5,18,1,48,38,163530568
97,2,1,Ticks_Pract_5,19,5,42,127,163532136
97,2,1,Ticks_Pract_5,20,1,48,39,164030940
97,2,1,Ticks_Pract_5,21,5,42,127,164032204
97,2,1,Ticks_Pract_5,22,1,48,34,164516084
97,2,1,Ticks_Pract_5,23,5,42,127,164530700
97,2,1,Ticks_Pract_5,24,5,42,127,165031376
97,2,1,Ticks_Pract_5,25,1,48,40,165036740
97,2,1,Ticks_Pract_5,26,1,48,35,165526240
97,2,1,Ticks_Pract_5,27,5,42,127,165530988
97,2,1,Ticks_Pract_5,28,5,42,127,166030764
97,2,1,Ticks_Pract_5,29,1,48,41,166039868
97,2,1,Ticks_Pract_5,30,1,48,32,166521664
97,2,1,Ticks_Pract_5,31,5,42,127,166530748
97,2,1,Ticks_Pract_5,32,1,48,39,167029612
97,2,1,Ticks_Pract_5,33,5,42,127,167031120
97,2,1,Ticks_Pract_5,34,5,42,127,167530968
97,2,1,Ticks_Pract_5,35,1,48,36,167534088
97,2,1,Ticks_Pract_5,36,5,42,127,168030516
97,2,1,Ticks_Pract_5,37,1,48,39,168041788
97,2,1,Ticks_Pract_5,38,5,42,127,168531480
97,2,1,Ticks_Pract_5,39,1,48,34,168559660
97,2,1,Ticks_Pract_5,40,5,42,127,169030876
97,2,1,Ticks_Pract_5,41,1,48,40,169032288
97,2,1,Ticks_Pract_5,42,5,42,127,169530720
97,2,1,Ticks_Pract_5,43,1,48,37,169537056
97,2,1,Ticks_Pract_5,44,5,42,127,170030640
97,2,1,Ticks_Pract_5,45,1,48,40,170046320
97,2,1,Ticks_Pract_5,46,5,42,127,170531080
97,2,1,Ticks_Pract_5,47,1,48,45,170539956
97,2,1,Ticks_Pract_5,48,1,48,36,171018844
97,2,1,Ticks_Pract_5,49,5,42,127,171030844
97,2,1,Ticks_Pract_5,50,1,48,34,171515768
97,2,1,Ticks_Pract_5,51,5,42,127,171530464
97,2,1,Ticks_Pract_5,52,1,48,34,172015912
97,2,1,Ticks_Pract_5,53,5,42,127,172031428
97,2,1,Ticks_Pract_5,54,1,48,34,172494864
97,2,1,Ticks_Pract_5,55,5,42,127,172531048
97,2,1,Ticks_Pract_5,56,1,48,32,172990968
97,2,1,Ticks_Pract_5,57,5,42,127,173030716
97,2,1,Ticks_Pract_5,58,1,48,36,173511080
97,2,1,Ticks_Pract_5,59,5,42,127,173530484
97,2,1,Ticks_Pract_5,60,1,48,41,174008904
97,2,1,Ticks_Pract_5,61,5,42,127,174031300
97,2,1,Ticks_Pract_5,62,1,48,38,174485036
97,2,1,Ticks_Pract_5,63,5,42,127,174530848
97,2,1,Ticks_Pract_5,64,1,48,34,175027740
97,2,1,Ticks_Pract_5,65,5,42,127,175030616
97,2,1,Ticks_Pract_5,66,1,48,30,175527284
97,2,1,Ticks_Pract_5,67,5,42,127,175531504
97,2,1,Ticks_Pract_5,68,5,42,127,176031060
97,2,1,Ticks_Pract_5,69,1,48,28,176041952
97,2,1,Ticks_Pract_5,70,1,48,38,176494060
97,2,1,Ticks_Pract_5,71,5,42,127,176530748
97,2,1,Ticks_Pract_5,72,5,42,127,177030524
97,2,1,Ticks_Pract_5,73,1,48,37,177031488
97,2,1,Ticks_Pract_5,74,5,42,127,177531560
97,2,1,Ticks_Pract_5,75,1,48,35,177541192
97,2,1,Ticks_Pract_5,0,9999,9999,9999,158028892
97,2,1,Ticks_Pract_5,1,9999,9999,9999,158528608
97,2,1,Ticks_Pract_5,2,9999,9999,9999,159028324
97,2,1,Ticks_Pract_5,3,9999,9999,9999,159529012
97,2,1,Ticks_Pract_5,4,9999,9999,9999,160028728
97,2,1,Ticks_Pract_5,5,9999,9999,9999,160528492
97,2,1,Ticks_Pract_5,6,9999,9999,9999,161028188
97,2,1,Ticks_Pract_5,7,9999,9999,9999,161528928
97,2,1,Ticks_Pract_5,8,9999,9999,9999,162028628
97,2,1,Ticks_Pract_5,9,9999,9999,9999,162528364
97,2,1,Ticks_Pract_5,10,9999,9999,9999,163029108
97,2,1,Ticks_Pract_5,11,9999,9999,9999,163528808
97,2,1,Ticks_Pract_5,12,9999,9999,9999,164028504
97,2,1,Ticks_Pract_5,13,9999,9999,9999,164528192
97,2,1,Ticks_Pract_5,14,9999,9999,9999,165028940
97,2,1,Ticks_Pract_5,15,9999,9999,9999,165528628
97,2,1,Ticks_Pract_5,16,9999,9999,9999,166028404
97,2,1,Ticks_Pract_5,17,9999,9999,9999,166528092
97,2,1,Ticks_Pract_5,18,9999,9999,9999,167028840
97,2,1,Ticks_Pract_5,19,9999,9999,9999,167528532
97,2,1,Ticks_Pract_5,20,9999,9999,9999,168028228
97,2,1,Ticks_Pract_5,21,9999,9999,9999,168528972
97,2,1,Ticks_Pract_5,22,9999,9999,9999,169028664
97,2,1,Ticks_Pract_5,23,9999,9999,9999,169528432
97,2,1,Ticks_Pract_5,24,9999,9999,9999,170028128
97,2,1,Ticks_Pract_5,25,9999,9999,9999,170528868
97,2,1,Ticks_Pract_5,26,9999,9999,9999,171028560
97,2,1,Ticks_Pract_5,27,9999,9999,9999,171528252
97,2,1,Ticks_Pract_5,28,9999,9999,9999,172028992
97,2,1,Ticks_Pract_5,29,9999,9999,9999,172528688
97,2,1,Ticks_Pract_5,30,9999,9999,9999,173028432
97,2,1,Ticks_Pract_5,31,9999,9999,9999,173528124
97,2,1,Ticks_Pract_5,32,9999,9999,9999,174028868
97,2,1,Ticks_Pract_5,33,9999,9999,9999,174528560
97,2,1,Ticks_Pract_5,34,9999,9999,9999,175028328
97,2,1,Ticks_Pract_5,35,9999,9999,9999,175529072
97,2,1,Ticks_Pract_5,36,9999,9999,9999,176028772
97,2,1,Ticks_Pract_5,37,9999,9999,9999,176528460
97,2,1,Ticks_Pract_5,38,9999,9999,9999,177028164
97,2,1,Ticks_Pract_5,39,9999,9999,9999,177528904
97,3,2,T1_SMS_8,0,5,42,127,266444324
97,3,2,T1_SMS_8,1,5,42,127,267243880
97,3,2,T1_SMS_8,2,1,48,34,267438928
97,3,2,T1_SMS_8,3,5,42,127,268043616
97,3,2,T1_SMS_8,4,1,48,39,268170672
97,3,2,T1_SMS_8,5,5,42,127,268844368
97,3,2,T1_SMS_8,6,1,48,32,268903064
97,3,2,T1_SMS_8,7,1,48,21,268961836
97,3,2,T1_SMS_8,8,1,48,31,269607320
97,3,2,T1_SMS_8,9,5,42,127,269644224
97,3,2,T1_SMS_8,10,1,48,39,270352524
97,3,2,T1_SMS_8,11,5,42,127,270443808
97,3,2,T1_SMS_8,12,1,48,33,271197884
97,3,2,T1_SMS_8,13,5,42,127,271243616
97,3,2,T1_SMS_8,14,1,48,31,271958720
97,3,2,T1_SMS_8,15,5,42,127,272044248
97,3,2,T1_SMS_8,16,1,48,36,272804304
97,3,2,T1_SMS_8,17,5,42,127,272844204
97,3,2,T1_SMS_8,18,1,48,39,273643820
97,3,2,T1_SMS_8,19,5,42,127,273645232
97,3,2,T1_SMS_8,20,5,42,127,274443480
97,3,2,T1_SMS_8,21,1,48,41,274457072
97,3,2,T1_SMS_8,22,5,42,127,275244260
97,3,2,T1_SMS_8,23,1,48,43,275253136
97,3,2,T1_SMS_8,24,5,42,127,276044068
97,3,2,T1_SMS_8,25,1,48,34,276055864
97,3,2,T1_SMS_8,26,5,42,127,276844176
97,3,2,T1_SMS_8,27,1,48,32,276871980
97,3,2,T1_SMS_8,28,5,42,127,277643540
97,3,2,T1_SMS_8,29,1,48,38,277656156
97,3,2,T1_SMS_8,30,5,42,127,278444320
97,3,2,T1_SMS_8,31,1,48,33,278470400
97,3,2,T1_SMS_8,32,1,48,30,279240200
97,3,2,T1_SMS_8,33,5,42,127,279244268
97,3,2,T1_SMS_8,34,1,48,31,280021904
97,3,2,T1_SMS_8,35,5,42,127,280044028
97,3,2,T1_SMS_8,36,5,42,127,280843620
97,3,2,T1_SMS_8,37,1,48,34,280848536
97,3,2,T1_SMS_8,38,5,42,127,281644324
97,3,2,T1_SMS_8,39,1,48,27,281674896
97,3,2,T1_SMS_8,40,1,48,35,282420156
97,3,2,T1_SMS_8,41,5,42,127,282444272
97,3,2,T1_SMS_8,42,1,48,23,283177928
97,3,2,T1_SMS_8,43,5,42,127,283244008
97,3,2,T1_SMS_8,44,1,48,28,283994344
97,3,2,T1_SMS_8,45,5,42,127,284043592
97,3,2,T1_SMS_8,46,1,48,31,284800284
97,3,2,T1_SMS_8,47,5,42,127,284844296
97,3,2,T1_SMS_8,48,1,48,34,285633900
97,3,2,T1_SMS_8,49,5,42,127,285644108
97,3,2,T1_SMS_8,50,1,48,32,286442356
97,3,2,T1_SMS_8,51,5,42,127,286444012
97,3,2,T1_SMS_8,52,1,48,34,287237284
97,3,2,T1_SMS_8,53,5,42,127,287243820
97,3,2,T1_SMS_8,54,1,48,31,288025196
97,3,2,T1_SMS_8,55,5,42,127,288044456
97,3,2,T1_SMS_8,56,1,48,26,288812292
97,3,2,T1_SMS_8,57,5,42,127,288844112
97,3,2,T1_SMS_8,58,1,48,28,289622648
97,3,2,T1_SMS_8,59,5,42,127,289643848
97,3,2,T1_SMS_8,60,1,48,33,290426788
97,3,2,T1_SMS_8,61,5,42,127,290443728
97,3,2,T1_SMS_8,62,1,48,28,291205804
97,3,2,T1_SMS_8,63,5,42,127,291244360
97,3,2,T1_SMS_8,64,1,48,27,291968072
97,3,2,T1_SMS_8,65,5,42,127,292044096
97,3,2,T1_SMS_8,66,1,48,25,292802132
97,3,2,T1_SMS_8,67,5,42,127,292843928
97,3,2,T1_SMS_8,68,1,48,29,293581224
97,3,2,T1_SMS_8,69,5,42,127,293643736
97,3,2,T1_SMS_8,70,1,48,27,294382252
97,3,2,T1_SMS_8,71,5,42,127,294444440
97,3,2,T1_SMS_8,72,1,48,26,295230532
97,3,2,T1_SMS_8,73,5,42,127,295244100
97,3,2,T1_SMS_8,74,5,42,127,296043992
97,3,2,T1_SMS_8,75,1,48,25,296058408
97,3,2,T1_SMS_8,76,1,48,28,296835756
97,3,2,T1_SMS_8,77,5,42,127,296843720
97,3,2,T1_SMS_8,78,5,42,127,297644284
97,3,2,T1_SMS_8,79,1,48,25,297648456
97,3,2,T1_SMS_8,80,5,42,127,298444016
97,3,2,T1_SMS_8,81,1,48,23,298473568
97,3,2,T1_SMS_8,82,5,42,127,299244000
97,3,2,T1_SMS_8,83,1,48,27,299257516
97,3,2,T1_SMS_8,84,5,42,127,300043732
97,3,2,T1_SMS_8,85,1,48,24,300071832
97,3,2,T1_SMS_8,86,1,48,29,300841780
97,3,2,T1_SMS_8,87,5,42,127,300844432
97,3,2,T1_SMS_8,88,1,48,28,301630444
97,3,2,T1_SMS_8,89,5,42,127,301644092
97,3,2,T1_SMS_8,90,1,48,22,302404820
97,3,2,T1_SMS_8,91,5,42,127,302443900
97,3,2,T1_SMS_8,92,1,48,29,303207476
97,3,2,T1_SMS_8,93,5,42,127,303243856
97,3,2,T1_SMS_8,94,1,48,29,304029872
97,3,2,T1_SMS_8,95,5,42,127,304044488
97,3,2,T1_SMS_8,96,1,48,25,304811724
97,3,2,T1_SMS_8,97,5,42,127,304843996
97,3,2,T1_SMS_8,98,1,48,24,305594328
97,3,2,T1_SMS_8,99,5,42,127,305643828
97,3,2,T1_SMS_8,100,1,48,29,306384712
97,3,2,T1_SMS_8,101,5,42,127,306443788
97,3,2,T1_SMS_8,102,1,48,28,307195916
97,3,2,T1_SMS_8,103,5,42,127,307244492
97,3,2,T1_SMS_8,104,1,48,29,307981212
97,3,2,T1_SMS_8,105,5,42,127,308044224
97,3,2,T1_SMS_8,106,1,48,24,308786028
97,3,2,T1_SMS_8,107,5,42,127,308843736
97,3,2,T1_SMS_8,108,1,48,24,309604240
97,3,2,T1_SMS_8,109,5,42,127,309643768
97,3,2,T1_SMS_8,110,1,48,29,310393428
97,3,2,T1_SMS_8,111,5,42,127,310444324
97,3,2,T1_SMS_8,112,1,48,26,311186584
97,3,2,T1_SMS_8,113,5,42,127,311244132
97,3,2,T1_SMS_8,114,1,48,21,311964696
97,3,2,T1_SMS_8,115,5,42,127,312043816
97,3,2,T1_SMS_8,116,1,48,30,312835584
97,3,2,T1_SMS_8,117,5,42,127,312843624
97,3,2,T1_SMS_8,118,5,42,127,313644560
97,3,2,T1_SMS_8,119,1,48,30,313697796
97,3,2,T1_SMS_8,120,5,42,127,314443996
97,3,2,T1_SMS_8,121,1,48,30,314452720
97,3,2,T1_SMS_8,122,5,42,127,315243876
97,3,2,T1_SMS_8,123,1,48,32,315275644
97,3,2,T1_SMS_8,124,5,42,127,316043760
97,3,2,T1_SMS_8,125,1,48,36,316115912
97,3,2,T1_SMS_8,126,5,42,127,316844540
97,3,2,T1_SMS_8,127,1,48,31,316908944
97,3,2,T1_SMS_8,128,5,42,127,317644048
97,3,2,T1_SMS_8,129,1,48,37,317658688
97,3,2,T1_SMS_8,130,5,42,127,318443880
97,3,2,T1_SMS_8,131,1,48,37,318448648
97,3,2,T1_SMS_8,132,5,42,127,319243764
97,3,2,T1_SMS_8,133,1,48,34,319267080
97,3,2,T1_SMS_8,134,5,42,127,320044616
97,3,2,T1_SMS_8,135,1,48,31,320071520
97,3,2,T1_SMS_8,136,1,48,33,320825012
97,3,2,T1_SMS_8,137,5,42,127,320844120
97,3,2,T1_SMS_8,138,1,48,39,321607172
97,3,2,T1_SMS_8,139,5,42,127,321644004
97,3,2,T1_SMS_8,140,1,48,34,322400324
97,3,2,T1_SMS_8,141,5,42,127,322443588
97,3,2,T1_SMS_8,142,5,42,127,323244672
97,3,2,T1_SMS_8,143,1,48,30,323261328
97,3,2,T1_SMS_8,144,1,48,33,324039132
97,3,2,T1_SMS_8,145,5,42,127,324044024
97,3,2,T1_SMS_8,146,1,48,33,324838420
97,3,2,T1_SMS_8,147,5,42,127,324843832
97,3,2,T1_SMS_8,148,5,42,127,325643572
97,3,2,T1_SMS_8,149,1,48,27,325649236
97,3,2,T1_SMS_8,150,5,42,127,326444576
97,3,2,T1_SMS_8,151,1,48,29,326491380
97,3,2,T1_SMS_8,152,5,42,127,327244308
97,3,2,T1_SMS_8,153,1,48,28,327258872
97,3,2,T1_SMS_8,154,1,48,29,328011392
97,3,2,T1_SMS_8,155,5,42,127,328043740
97,3,2,T1_SMS_8,156,1,48,29,328811124
97,3,2,T1_SMS_8,157,5,42,127,328843620
97,3,2,T1_SMS_8,158,1,48,29,329611684
97,3,2,T1_SMS_8,159,5,42,127,329644328
97,3,2,T1_SMS_8,160,1,48,32,330401320
97,3,2,T1_SMS_8,161,5,42,127,330444432
97,3,2,T1_SMS_8,162,1,48,27,331195892
97,3,2,T1_SMS_8,163,5,42,127,331243896
97,3,2,T1_SMS_8,164,1,48,33,331992484
97,3,2,T1_SMS_8,165,5,42,127,332043556
97,3,2,T1_SMS_8,166,1,48,28,332840264
97,3,2,T1_SMS_8,167,5,42,127,332844484
97,3,2,T1_SMS_8,168,1,48,32,333630944
97,3,2,T1_SMS_8,169,5,42,127,333644292
97,3,2,T1_SMS_8,170,5,42,127,334443808
97,3,2,T1_SMS_8,171,1,48,28,334466524
97,3,2,T1_SMS_8,172,5,42,127,335243616
97,3,2,T1_SMS_8,173,1,48,32,335254588
97,3,2,T1_SMS_8,174,1,48,32,336018248
97,3,2,T1_SMS_8,175,5,42,127,336044536
97,3,2,T1_SMS_8,176,1,48,29,336817240
97,3,2,T1_SMS_8,177,5,42,127,336844196
97,3,2,T1_SMS_8,178,1,48,27,337597076
97,3,2,T1_SMS_8,179,5,42,127,337643880
97,3,2,T1_SMS_8,180,1,48,23,338405332
97,3,2,T1_SMS_8,181,5,42,127,338443540
97,3,2,T1_SMS_8,182,1,48,21,339204044
97,3,2,T1_SMS_8,183,5,42,127,339244248
97,3,2,T1_SMS_8,184,1,48,24,339998468
97,3,2,T1_SMS_8,185,5,42,127,340044276
97,3,2,T1_SMS_8,186,1,48,34,340810920
97,3,2,T1_SMS_8,187,5,42,127,340843788
97,3,2,T1_SMS_8,188,1,48,33,341636608
97,3,2,T1_SMS_8,189,5,42,127,341643520
97,3,2,T1_SMS_8,190,5,42,127,342444380
97,3,2,T1_SMS_8,191,1,48,29,342455504
97,3,2,T1_SMS_8,192,5,42,127,343244264
97,3,2,T1_SMS_8,193,1,48,29,343278152
97,3,2,T1_SMS_8,194,5,42,127,344044020
97,3,2,T1_SMS_8,195,1,48,33,344050736
97,3,2,T1_SMS_8,196,5,42,127,344843604
97,3,2,T1_SMS_8,197,1,48,32,344877544
97,3,2,T1_SMS_8,198,5,42,127,345644384
97,3,2,T1_SMS_8,199,1,48,33,345693580
97,3,2,T1_SMS_8,200,1,48,33,346426124
97,3,2,T1_SMS_8,201,5,42,127,346444112
97,3,2,T1_SMS_8,202,1,48,29,347174772
97,3,2,T1_SMS_8,203,5,42,127,347243996
97,3,2,T1_SMS_8,204,1,48,26,348004348
97,3,2,T1_SMS_8,205,5,42,127,348043504
97,3,2,T1_SMS_8,206,1,48,27,348787184
97,3,2,T1_SMS_8,207,5,42,127,348844508
97,3,2,T1_SMS_8,208,1,48,23,349566348
97,3,2,T1_SMS_8,209,5,42,127,349644096
97,3,2,T1_SMS_8,210,1,48,34,350354036
97,3,2,T1_SMS_8,211,5,42,127,350444076
97,3,2,T1_SMS_8,212,1,48,33,351230168
97,3,2,T1_SMS_8,213,5,42,127,351243660
97,3,2,T1_SMS_8,214,1,48,30,352011944
97,3,2,T1_SMS_8,215,5,42,127,352044368
97,3,2,T1_SMS_8,216,1,48,27,352829708
97,3,2,T1_SMS_8,217,5,42,127,352844248
97,3,2,T1_SMS_8,218,1,48,34,353630112
97,3,2,T1_SMS_8,219,5,42,127,353644060
97,3,2,T1_SMS_8,220,5,42,127,354443648
97,3,2,T1_SMS_8,221,1,48,27,354444616
97,3,2,T1_SMS_8,222,1,48,26,355228460
97,3,2,T1_SMS_8,223,5,42,127,355244496
97,3,2,T1_SMS_8,224,5,42,127,356044236
97,3,2,T1_SMS_8,225,1,48,32,356066276
97,3,2,T1_SMS_8,226,5,42,127,356844068
97,3,2,T1_SMS_8,227,1,48,24,356874344
97,3,2,T1_SMS_8,228,5,42,127,357643728
97,3,2,T1_SMS_8,229,1,48,32,357648868
97,3,2,T1_SMS_8,230,1,48,29,358426820
97,3,2,T1_SMS_8,231,5,42,127,358444424
97,3,2,T1_SMS_8,232,1,48,28,359192744
97,3,2,T1_SMS_8,233,5,42,127,359244084
97,3,2,T1_SMS_8,234,1,48,23,359994044
97,3,2,T1_SMS_8,235,5,42,127,360044116
97,3,2,T1_SMS_8,236,1,48,27,360820932
97,3,2,T1_SMS_8,237,5,42,127,360843476
97,3,2,T1_SMS_8,238,5,42,127,361644340
97,3,2,T1_SMS_8,239,1,48,27,361647084
97,3,2,T1_SMS_8,240,1,48,26,362439020
97,3,2,T1_SMS_8,0,9999,9999,9999,266441812
97,3,2,T1_SMS_8,1,9999,9999,9999,267241516
97,3,2,T1_SMS_8,2,9999,9999,9999,268041324
97,3,2,T1_SMS_8,3,9999,9999,9999,268842080
97,3,2,T1_SMS_8,4,9999,9999,9999,269641788
97,3,2,T1_SMS_8,5,9999,9999,9999,270441520
97,3,2,T1_SMS_8,6,9999,9999,9999,271241328
97,3,2,T1_SMS_8,7,9999,9999,9999,272042036
97,3,2,T1_SMS_8,8,9999,9999,9999,272841844
97,3,2,T1_SMS_8,9,9999,9999,9999,273641532
97,3,2,T1_SMS_8,10,9999,9999,9999,274441268
97,3,2,T1_SMS_8,11,9999,9999,9999,275242048
97,3,2,T1_SMS_8,12,9999,9999,9999,276041780
97,3,2,T1_SMS_8,13,9999,9999,9999,276841592
97,3,2,T1_SMS_8,14,9999,9999,9999,277641328
97,3,2,T1_SMS_8,15,9999,9999,9999,278442032
97,3,2,T1_SMS_8,16,9999,9999,9999,279241832
97,3,2,T1_SMS_8,17,9999,9999,9999,280041592
97,3,2,T1_SMS_8,18,9999,9999,9999,280841332
97,3,2,T1_SMS_8,19,9999,9999,9999,281642036
97,3,2,T1_SMS_8,20,9999,9999,9999,282441836
97,3,2,T1_SMS_8,21,9999,9999,9999,283241572
97,3,2,T1_SMS_8,22,9999,9999,9999,284041304
97,3,2,T1_SMS_8,23,9999,9999,9999,284842084
97,3,2,T1_SMS_8,24,9999,9999,9999,285641816
97,3,2,T1_SMS_8,25,9999,9999,9999,286441584
97,3,2,T1_SMS_8,26,9999,9999,9999,287241312
97,3,2,T1_SMS_8,27,9999,9999,9999,288042092
97,3,2,T1_SMS_8,28,9999,9999,9999,288841824
97,3,2,T1_SMS_8,29,9999,9999,9999,289641560
97,3,2,T1_SMS_8,30,9999,9999,9999,290441292
97,3,2,T1_SMS_8,31,9999,9999,9999,291242072
97,3,2,T1_SMS_8,32,9999,9999,9999,292041808
97,3,2,T1_SMS_8,33,9999,9999,9999,292841568
97,3,2,T1_SMS_8,34,9999,9999,9999,293641300
97,3,2,T1_SMS_8,35,9999,9999,9999,294442080
97,3,2,T1_SMS_8,36,9999,9999,9999,295241812
97,3,2,T1_SMS_8,37,9999,9999,9999,296041556
97,3,2,T1_SMS_8,38,9999,9999,9999,296841284
97,3,2,T1_SMS_8,39,9999,9999,9999,297642068
97,3,2,T1_SMS_8,40,9999,9999,9999,298441804
97,3,2,T1_SMS_8,41,9999,9999,9999,299241564
97,3,2,T1_SMS_8,42,9999,9999,9999,300041296
97,3,2,T1_SMS_8,43,9999,9999,9999,300842068
97,3,2,T1_SMS_8,44,9999,9999,9999,301641804
97,3,2,T1_SMS_8,45,9999,9999,9999,302441536
97,3,2,T1_SMS_8,46,9999,9999,9999,303241268
97,3,2,T1_SMS_8,47,9999,9999,9999,304042048
97,3,2,T1_SMS_8,48,9999,9999,9999,304841784
97,3,2,T1_SMS_8,49,9999,9999,9999,305641540
97,3,2,T1_SMS_8,50,9999,9999,9999,306441276
97,3,2,T1_SMS_8,51,9999,9999,9999,307242056
97,3,2,T1_SMS_8,52,9999,9999,9999,308041788
97,3,2,T1_SMS_8,53,9999,9999,9999,308841524
97,3,2,T1_SMS_8,54,9999,9999,9999,309641332
97,3,2,T1_SMS_8,55,9999,9999,9999,310442036
97,3,2,T1_SMS_8,56,9999,9999,9999,311241844
97,3,2,T1_SMS_8,57,9999,9999,9999,312041528
97,3,2,T1_SMS_8,58,9999,9999,9999,312841336
97,3,2,T1_SMS_8,59,9999,9999,9999,313642048
97,3,2,T1_SMS_8,60,9999,9999,9999,314441780
97,3,2,T1_SMS_8,61,9999,9999,9999,315241588
97,3,2,T1_SMS_8,62,9999,9999,9999,316041320
97,3,2,T1_SMS_8,63,9999,9999,9999,316842100
97,3,2,T1_SMS_8,64,9999,9999,9999,317641836
97,3,2,T1_SMS_8,65,9999,9999,9999,318441592
97,3,2,T1_SMS_8,66,9999,9999,9999,319241324
97,3,2,T1_SMS_8,67,9999,9999,9999,320042032
97,3,2,T1_SMS_8,68,9999,9999,9999,320841832
97,3,2,T1_SMS_8,69,9999,9999,9999,321641568
97,3,2,T1_SMS_8,70,9999,9999,9999,322441300
97,3,2,T1_SMS_8,71,9999,9999,9999,323242084
97,3,2,T1_SMS_8,72,9999,9999,9999,324041812
97,3,2,T1_SMS_8,73,9999,9999,9999,324841544
97,3,2,T1_SMS_8,74,9999,9999,9999,325641284
97,3,2,T1_SMS_8,75,9999,9999,9999,326442064
97,3,2,T1_SMS_8,76,9999,9999,9999,327241800
97,3,2,T1_SMS_8,77,9999,9999,9999,328041528
97,3,2,T1_SMS_8,78,9999,9999,9999,328841332
97,3,2,T1_SMS_8,79,9999,9999,9999,329642040
97,3,2,T1_SMS_8,80,9999,9999,9999,330441848
97,3,2,T1_SMS_8,81,9999,9999,9999,331241532
97,3,2,T1_SMS_8,82,9999,9999,9999,332041268
97,3,2,T1_SMS_8,83,9999,9999,9999,332842044
97,3,2,T1_SMS_8,84,9999,9999,9999,333641780
97,3,2,T1_SMS_8,85,9999,9999,9999,334441520
97,3,2,T1_SMS_8,86,9999,9999,9999,335241328
97,3,2,T1_SMS_8,87,9999,9999,9999,336042100
97,3,2,T1_SMS_8,88,9999,9999,9999,336841832
97,3,2,T1_SMS_8,89,9999,9999,9999,337641520
97,3,2,T1_SMS_8,90,9999,9999,9999,338441324
97,3,2,T1_SMS_8,91,9999,9999,9999,339242032
97,3,2,T1_SMS_8,92,9999,9999,9999,340041840
97,3,2,T1_SMS_8,93,9999,9999,9999,340841572
97,3,2,T1_SMS_8,94,9999,9999,9999,341641308
97,3,2,T1_SMS_8,95,9999,9999,9999,342442092
97,3,2,T1_SMS_8,96,9999,9999,9999,343241824
97,3,2,T1_SMS_8,97,9999,9999,9999,344041584
97,3,2,T1_SMS_8,98,9999,9999,9999,344841316
97,3,2,T1_SMS_8,99,9999,9999,9999,345642096
97,3,2,T1_SMS_8,100,9999,9999,9999,346441824
97,3,2,T1_SMS_8,101,9999,9999,9999,347241560
97,3,2,T1_SMS_8,102,9999,9999,9999,348041292
97,3,2,T1_SMS_8,103,9999,9999,9999,348842072
97,3,2,T1_SMS_8,104,9999,9999,9999,349641808
97,3,2,T1_SMS_8,105,9999,9999,9999,350441564
97,3,2,T1_SMS_8,106,9999,9999,9999,351241300
97,3,2,T1_SMS_8,107,9999,9999,9999,352042080
97,3,2,T1_SMS_8,108,9999,9999,9999,352841812
97,3,2,T1_SMS_8,109,9999,9999,9999,353641548
97,3,2,T1_SMS_8,110,9999,9999,9999,354441288
97,3,2,T1_SMS_8,111,9999,9999,9999,355242060
97,3,2,T1_SMS_8,112,9999,9999,9999,356041800
97,3,2,T1_SMS_8,113,9999,9999,9999,356841556
97,3,2,T1_SMS_8,114,9999,9999,9999,357641292
97,3,2,T1_SMS_8,115,9999,9999,9999,358442064
97,3,2,T1_SMS_8,116,9999,9999,9999,359241796
97,3,2,T1_SMS_8,117,9999,9999,9999,360041532
97,3,2,T1_SMS_8,118,9999,9999,9999,360841264
97,3,2,T1_SMS_8,119,9999,9999,9999,361642052
97,4,4,T1_SMS_5,0,5,42,127,429577512
97,4,4,T1_SMS_5,1,5,42,127,430078276
97,4,4,T1_SMS_5,2,1,48,24,430232636
97,4,4,T1_SMS_5,3,1,48,28,430561844
97,4,4,T1_SMS_5,4,5,42,127,430577964
97,4,4,T1_SMS_5,5,1,48,29,431051344
97,4,4,T1_SMS_5,6,5,42,127,431077732
97,4,4,T1_SMS_5,7,1,48,30,431574820
97,4,4,T1_SMS_5,8,5,42,127,431577552
97,4,4,T1_SMS_5,9,1,48,30,432069060
97,4,4,T1_SMS_5,10,5,42,127,432078068
97,4,4,T1_SMS_5,11,1,48,30,432577164
97,4,4,T1_SMS_5,12,5,42,127,432578812
97,4,4,T1_SMS_5,13,1,48,32,433072412
97,4,4,T1_SMS_5,14,5,42,127,433077756
97,4,4,T1_SMS_5,15,5,42,127,433578356
97,4,4,T1_SMS_5,16,1,48,36,433586412
97,4,4,T1_SMS_5,17,5,42,127,434078052
97,4,4,T1_SMS_5,18,1,48,33,434081616
97,4,4,T1_SMS_5,19,1,48,32,434551228
97,4,4,T1_SMS_5,20,5,42,127,434577888
97,4,4,T1_SMS_5,21,1,48,31,435074112
97,4,4,T1_SMS_5,22,5,42,127,435077436
97,4,4,T1_SMS_5,23,5,42,127,435578184
97,4,4,T1_SMS_5,24,1,48,27,435594320
97,4,4,T1_SMS_5,25,5,42,127,436077880
97,4,4,T1_SMS_5,26,1,48,26,436112112
97,4,4,T1_SMS_5,27,5,42,127,436577796
97,4,4,T1_SMS_5,28,1,48,29,436587496
97,4,4,T1_SMS_5,29,5,42,127,437078316
97,4,4,T1_SMS_5,30,1,48,27,437102448
97,4,4,T1_SMS_5,31,5,42,127,437578084
97,4,4,T1_SMS_5,32,1,48,27,437590924
97,4,4,T1_SMS_5,33,5,42,127,438078004
97,4,4,T1_SMS_5,34,1,48,29,438078968
97,4,4,T1_SMS_5,35,1,48,29,438558064
97,4,4,T1_SMS_5,36,5,42,127,438577468
97,4,4,T1_SMS_5,37,5,42,127,439078216
97,4,4,T1_SMS_5,38,1,48,29,439082900
97,4,4,T1_SMS_5,39,1,48,24,439571060
97,4,4,T1_SMS_5,40,5,42,127,439577904
97,4,4,T1_SMS_5,41,1,48,35,440044276
97,4,4,T1_SMS_5,42,5,42,127,440077824
97,4,4,T1_SMS_5,43,5,42,127,440578348
97,4,4,T1_SMS_5,44,1,48,22,440595152
97,4,4,T1_SMS_5,45,5,42,127,441078116
97,4,4,T1_SMS_5,46,1,48,28,441097248
97,4,4,T1_SMS_5,47,5,42,127,441577960
97,4,4,T1_SMS_5,48,1,48,23,441615560
97,4,4,T1_SMS_5,49,5,42,127,442077704
97,4,4,T1_SMS_5,50,1,48,29,442091320
97,4,4,T1_SMS_5,51,1,48,39,442554400
97,4,4,T1_SMS_5,52,5,42,127,442578220
97,4,4,T1_SMS_5,53,1,48,30,443047064
97,4,4,T1_SMS_5,54,5,42,127,443077988
97,4,4,T1_SMS_5,55,1,48,31,443547504
97,4,4,T1_SMS_5,56,5,42,127,443577904
97,4,4,T1_SMS_5,57,1,48,30,444032980
97,4,4,T1_SMS_5,58,5,42,127,444077376
97,4,4,T1_SMS_5,59,1,48,31,444547268
97,4,4,T1_SMS_5,60,5,42,127,444578116
97,4,4,T1_SMS_5,61,1,48,32,445056612
97,4,4,T1_SMS_5,62,5,42,127,445077816
97,4,4,T1_SMS_5,63,1,48,32,445558624
97,4,4,T1_SMS_5,64,5,42,127,445577656
97,4,4,T1_SMS_5,65,1,48,28,446045972
97,4,4,T1_SMS_5,66,5,42,127,446078176
97,4,4,T1_SMS_5,67,1,48,28,446535568
97,4,4,T1_SMS_5,68,5,42,127,446577944
97,4,4,T1_SMS_5,69,5,42,127,447077720
97,4,4,T1_SMS_5,70,1,48,29,447085172
97,4,4,T1_SMS_5,71,5,42,127,447577340
97,4,4,T1_SMS_5,72,1,48,29,447617560
97,4,4,T1_SMS_5,73,1,48,30,448069192
97,4,4,T1_SMS_5,74,5,42,127,448078128
97,4,4,T1_SMS_5,75,5,42,127,448577904
97,4,4,T1_SMS_5,76,1,48,28,448587452
97,4,4,T1_SMS_5,77,1,48,29,449076080
97,4,4,T1_SMS_5,78,5,42,127,449077592
97,4,4,T1_SMS_5,79,5,42,127,449578488
97,4,4,T1_SMS_5,80,1,48,27,449580424
97,4,4,T1_SMS_5,81,1,48,32,450075444
97,4,4,T1_SMS_5,82,5,42,127,450078028
97,4,4,T1_SMS_5,83,1,48,28,450565196
97,4,4,T1_SMS_5,84,5,42,127,450577648
97,4,4,T1_SMS_5,85,1,48,25,451064892
97,4,4,T1_SMS_5,86,5,42,127,451077416
97,4,4,T1_SMS_5,87,1,48,31,451540548
97,4,4,T1_SMS_5,88,5,42,127,451578232
97,4,4,T1_SMS_5,89,5,42,127,452077860
97,4,4,T1_SMS_5,90,1,48,27,452098556
97,4,4,T1_SMS_5,91,5,42,127,452577704
97,4,4,T1_SMS_5,92,1,48,27,452579716
97,4,4,T1_SMS_5,93,5,42,127,453078420
97,4,4,T1_SMS_5,94,1,48,23,453081012
97,4,4,T1_SMS_5,95,1,48,24,453569024
97,4,4,T1_SMS_5,96,5,42,127,453578180
97,4,4,T1_SMS_5,97,1,48,26,454047696
97,4,4,T1_SMS_5,98,5,42,127,454077728
97,4,4,T1_SMS_5,99,1,48,27,454565420
97,4,4,T1_SMS_5,100,5,42,127,454577796
97,4,4,T1_SMS_5,101,1,48,29,455067740
97,4,4,T1_SMS_5,102,5,42,127,455078168
97,4,4,T1_SMS_5,103,1,48,28,455557780
97,4,4,T1_SMS_5,104,5,42,127,455577936
97,4,4,T1_SMS_5,105,5,42,127,456077788
97,4,4,T1_SMS_5,106,1,48,25,456078752
97,4,4,T1_SMS_5,107,1,48,27,456529716
97,4,4,T1_SMS_5,108,5,42,127,456578520
97,4,4,T1_SMS_5,109,5,42,127,457078152
97,4,4,T1_SMS_5,110,1,48,27,457079712
97,4,4,T1_SMS_5,111,5,42,127,457577768
97,4,4,T1_SMS_5,112,1,48,25,457581184
97,4,4,T1_SMS_5,113,5,42,127,458077984
97,4,4,T1_SMS_5,114,1,48,29,458093372
97,4,4,T1_SMS_5,115,1,48,29,458570840
97,4,4,T1_SMS_5,116,5,42,127,458578424
97,4,4,T1_SMS_5,117,5,42,127,459077976
97,4,4,T1_SMS_5,118,1,48,21,459091120
97,4,4,T1_SMS_5,119,1,48,28,459577820
97,4,4,T1_SMS_5,120,5,42,127,459579160
97,4,4,T1_SMS_5,121,1,48,26,460054064
97,4,4,T1_SMS_5,122,5,42,127,460077660
97,4,4,T1_SMS_5,123,1,48,26,460549124
97,4,4,T1_SMS_5,124,5,42,127,460578104
97,4,4,T1_SMS_5,125,1,48,27,461054352
97,4,4,T1_SMS_5,126,5,42,127,461077800
97,4,4,T1_SMS_5,127,1,48,28,461542752
97,4,4,T1_SMS_5,128,5,42,127,461577864
97,4,4,T1_SMS_5,129,1,48,25,462040024
97,4,4,T1_SMS_5,130,5,42,127,462078456
97,4,4,T1_SMS_5,131,1,48,21,462526712
97,4,4,T1_SMS_5,132,5,42,127,462578076
97,4,4,T1_SMS_5,133,1,48,33,463039116
97,4,4,T1_SMS_5,134,5,42,127,463077624
97,4,4,T1_SMS_5,135,1,48,30,463575628
97,4,4,T1_SMS_5,136,5,42,127,463577592
97,4,4,T1_SMS_5,137,1,48,31,464063484
97,4,4,T1_SMS_5,138,5,42,127,464078108
97,4,4,T1_SMS_5,139,5,42,127,464577960
97,4,4,T1_SMS_5,140,1,48,21,464614464
97,4,4,T1_SMS_5,141,5,42,127,465077580
97,4,4,T1_SMS_5,142,1,48,26,465117796
97,4,4,T1_SMS_5,143,1,48,31,465575732
97,4,4,T1_SMS_5,144,5,42,127,465578464
97,4,4,T1_SMS_5,145,1,48,20,466025088
97,4,4,T1_SMS_5,146,5,42,127,466078084
97,4,4,T1_SMS_5,147,5,42,127,466577712
97,4,4,T1_SMS_5,148,1,48,29,466604836
97,4,4,T1_SMS_5,149,5,42,127,467077704
97,4,4,T1_SMS_5,150,1,48,25,467106028
97,4,4,T1_SMS_5,151,5,42,127,467578072
97,4,4,T1_SMS_5,152,1,48,30,467585300
97,4,4,T1_SMS_5,153,5,42,127,468077916
97,4,4,T1_SMS_5,154,1,48,34,468094272
97,4,4,T1_SMS_5,155,1,48,31,468577832
97,4,4,T1_SMS_5,156,5,42,127,468579172
97,4,4,T1_SMS_5,157,5,42,127,469078428
97,4,4,T1_SMS_5,158,1,48,29,469082592
97,4,4,T1_SMS_5,159,5,42,127,469578048
97,4,4,T1_SMS_5,160,1,48,27,469581536
97,4,4,T1_SMS_5,161,5,42,127,470077668
97,4,4,T1_SMS_5,162,1,48,30,470082280
97,4,4,T1_SMS_5,163,1,48,24,470559896
97,4,4,T1_SMS_5,164,5,42,127,470577580
97,4,4,T1_SMS_5,165,1,48,29,471054428
97,4,4,T1_SMS_5,166,5,42,127,471078248
97,4,4,T1_SMS_5,167,1,48,28,471561824
97,4,4,T1_SMS_5,168,5,42,127,471578088
97,4,4,T1_SMS_5,169,1,48,28,472065856
97,4,4,T1_SMS_5,170,5,42,127,472077636
97,4,4,T1_SMS_5,171,5,42,127,472578460
97,4,4,T1_SMS_5,172,1,48,34,472585468
97,4,4,T1_SMS_5,173,1,48,28,473075956
97,4,4,T1_SMS_5,174,5,42,127,473078072
97,4,4,T1_SMS_5,175,5,42,127,473577848
97,4,4,T1_SMS_5,176,1,48,29,473608272
97,4,4,T1_SMS_5,177,5,42,127,474077668
97,4,4,T1_SMS_5,178,1,48,32,474103152
97,4,4,T1_SMS_5,179,5,42,127,474578308
97,4,4,T1_SMS_5,180,1,48,27,474603968
97,4,4,T1_SMS_5,181,1,48,30,475056116
97,4,4,T1_SMS_5,182,5,42,127,475077996
97,4,4,T1_SMS_5,183,5,42,127,475577772
97,4,4,T1_SMS_5,184,1,48,28,475585152
97,4,4,T1_SMS_5,185,1,48,29,476041896
97,4,4,T1_SMS_5,186,5,42,127,476077312
97,4,4,T1_SMS_5,187,5,42,127,476578132
97,4,4,T1_SMS_5,188,1,48,28,476579100
97,4,4,T1_SMS_5,189,1,48,33,477059908
97,4,4,T1_SMS_5,190,5,42,127,477077748
97,4,4,T1_SMS_5,191,5,42,127,477577524
97,4,4,T1_SMS_5,192,1,48,29,477581760
97,4,4,T1_SMS_5,193,1,48,27,478070368
97,4,4,T1_SMS_5,194,5,42,127,478078556
97,4,4,T1_SMS_5,195,1,48,26,478576064
97,4,4,T1_SMS_5,196,5,42,127,478577952
97,4,4,T1_SMS_5,197,5,42,127,479077804
97,4,4,T1_SMS_5,198,1,48,22,479089004
97,4,4,T1_SMS_5,199,5,42,127,479577352
97,4,4,T1_SMS_5,200,1,48,25,479581516
97,4,4,T1_SMS_5,201,1,48,27,480073412
97,4,4,T1_SMS_5,202,5,42,127,480078532
97,4,4,T1_SMS_5,203,1,48,29,480556208
97,4,4,T1_SMS_5,204,5,42,127,480577856
97,4,4,T1_SMS_5,205,5,42,127,481077556
97,4,4,T1_SMS_5,206,1,48,30,481085760
97,4,4,T1_SMS_5,207,5,42,127,481578596
97,4,4,T1_SMS_5,208,1,48,29,481623376
97,4,4,T1_SMS_5,209,5,42,127,482077992
97,4,4,T1_SMS_5,210,1,48,35,482132868
97,4,4,T1_SMS_5,211,1,48,28,482540552
97,4,4,T1_SMS_5,212,5,42,127,482577980
97,4,4,T1_SMS_5,213,5,42,127,483077608
97,4,4,T1_SMS_5,214,1,48,21,483082896
97,4,4,T1_SMS_5,215,5,42,127,483578500
97,4,4,T1_SMS_5,216,1,48,32,483605252
97,4,4,T1_SMS_5,217,1,48,31,484056736
97,4,4,T1_SMS_5,218,5,42,127,484077892
97,4,4,T1_SMS_5,219,1,48,33,484552916
97,4,4,T1_SMS_5,220,5,42,127,484577656
97,4,4,T1_SMS_5,221,1,48,35,485054400
97,4,4,T1_SMS_5,222,5,42,127,485078524
97,4,4,T1_SMS_5,223,1,48,35,485549760
97,4,4,T1_SMS_5,224,5,42,127,485578368
97,4,4,T1_SMS_5,225,5,42,127,486077772
97,4,4,T1_SMS_5,226,1,48,32,486094796
97,4,4,T1_SMS_5,227,1,48,34,486536288
97,4,4,T1_SMS_5,228,5,42,127,486577460
97,4,4,T1_SMS_5,229,5,42,127,487078432
97,4,4,T1_SMS_5,230,1,48,33,487080876
97,4,4,T1_SMS_5,231,5,42,127,487577828
97,4,4,T1_SMS_5,232,1,48,28,487588424
97,4,4,T1_SMS_5,233,1,48,29,488077524
97,4,4,T1_SMS_5,234,5,42,127,488079008
97,4,4,T1_SMS_5,235,5,42,127,488578412
97,4,4,T1_SMS_5,236,1,48,29,488595436
97,4,4,T1_SMS_5,237,1,48,27,489074176
97,4,4,T1_SMS_5,238,5,42,127,489078324
97,4,4,T1_SMS_5,239,1,48,27,489555096
97,4,4,T1_SMS_5,240,5,42,127,489577796
97,4,4,T1_SMS_5,241,5,42,127,490077644
97,4,4,T1_SMS_5,242,1,48,25,490108364
97,4,4,T1_SMS_5,243,1,48,32,490545856
97,4,4,T1_SMS_5,244,5,42,127,490578356
97,4,4,T1_SMS_5,245,1,48,28,491025580
97,4,4,T1_SMS_5,246,5,42,127,491078272
97,4,4,T1_SMS_5,247,1,48,31,491553248
97,4,4,T1_SMS_5,248,5,42,127,491577744
97,4,4,T1_SMS_5,249,5,42,127,492077372
97,4,4,T1_SMS_5,250,1,48,30,492083256
97,4,4,T1_SMS_5,251,1,48,34,492552268
97,4,4,T1_SMS_5,252,5,42,127,492578328
97,4,4,T1_SMS_5,253,1,48,37,493045004
97,4,4,T1_SMS_5,254,5,42,127,493077804
97,4,4,T1_SMS_5,255,1,48,24,493546268
97,4,4,T1_SMS_5,256,5,42,127,493577644
97,4,4,T1_SMS_5,257,1,48,31,494038008
97,4,4,T1_SMS_5,258,5,42,127,494078312
97,4,4,T1_SMS_5,259,1,48,32,494550648
97,4,4,T1_SMS_5,0,9999,9999,9999,429575220
97,4,4,T1_SMS_5,1,9999,9999,9999,430075984
97,4,4,T1_SMS_5,2,9999,9999,9999,430575672
97,4,4,T1_SMS_5,3,9999,9999,9999,431075444
97,4,4,T1_SMS_5,4,9999,9999,9999,431575112
97,4,4,T1_SMS_5,5,9999,9999,9999,432075856
97,4,4,T1_SMS_5,6,9999,9999,9999,432575556
97,4,4,T1_SMS_5,7,9999,9999,9999,433075316
97,4,4,T1_SMS_5,8,9999,9999,9999,433575992
97,4,4,T1_SMS_5,9,9999,9999,9999,434075760
97,4,4,T1_SMS_5,10,9999,9999,9999,434575452
97,4,4,T1_SMS_5,11,9999,9999,9999,435075144
97,4,4,T1_SMS_5,12,9999,9999,9999,435575896
97,4,4,T1_SMS_5,13,9999,9999,9999,436075588
97,4,4,T1_SMS_5,14,9999,9999,9999,436575284
97,4,4,T1_SMS_5,15,9999,9999,9999,437076024
97,4,4,T1_SMS_5,16,9999,9999,9999,437575792
97,4,4,T1_SMS_5,17,9999,9999,9999,438075488
97,4,4,T1_SMS_5,18,9999,9999,9999,438575180
97,4,4,T1_SMS_5,19,9999,9999,9999,439075924
97,4,4,T1_SMS_5,20,9999,9999,9999,439575612
97,4,4,T1_SMS_5,21,9999,9999,9999,440075384
97,4,4,T1_SMS_5,22,9999,9999,9999,440576064
97,4,4,T1_SMS_5,23,9999,9999,9999,441075828
97,4,4,T1_SMS_5,24,9999,9999,9999,441575520
97,4,4,T1_SMS_5,25,9999,9999,9999,442075192
97,4,4,T1_SMS_5,26,9999,9999,9999,442575928
97,4,4,T1_SMS_5,27,9999,9999,9999,443075696
97,4,4,T1_SMS_5,28,9999,9999,9999,443575392
97,4,4,T1_SMS_5,29,9999,9999,9999,444075088
97,4,4,T1_SMS_5,30,9999,9999,9999,444575828
97,4,4,T1_SMS_5,31,9999,9999,9999,445075524
97,4,4,T1_SMS_5,32,9999,9999,9999,445575220
97,4,4,T1_SMS_5,33,9999,9999,9999,446075960
97,4,4,T1_SMS_5,34,9999,9999,9999,446575728
97,4,4,T1_SMS_5,35,9999,9999,9999,447075428
97,4,4,T1_SMS_5,36,9999,9999,9999,447575124
97,4,4,T1_SMS_5,37,9999,9999,9999,448075836
97,4,4,T1_SMS_5,38,9999,9999,9999,448575536
97,4,4,T1_SMS_5,39,9999,9999,9999,449075308
97,4,4,T1_SMS_5,40,9999,9999,9999,449576048
97,4,4,T1_SMS_5,41,9999,9999,9999,450075736
97,4,4,T1_SMS_5,42,9999,9999,9999,450575432
97,4,4,T1_SMS_5,43,9999,9999,9999,451075128
97,4,4,T1_SMS_5,44,9999,9999,9999,451575868
97,4,4,T1_SMS_5,45,9999,9999,9999,452075568
97,4,4,T1_SMS_5,46,9999,9999,9999,452575312
97,4,4,T1_SMS_5,47,9999,9999,9999,453076056
97,4,4,T1_SMS_5,48,9999,9999,9999,453575744
97,4,4,T1_SMS_5,49,9999,9999,9999,454075512
97,4,4,T1_SMS_5,50,9999,9999,9999,454575212
97,4,4,T1_SMS_5,51,9999,9999,9999,455075952
97,4,4,T1_SMS_5,52,9999,9999,9999,455575648
97,4,4,T1_SMS_5,53,9999,9999,9999,456075348
97,4,4,T1_SMS_5,54,9999,9999,9999,456576088
97,4,4,T1_SMS_5,55,9999,9999,9999,457075784
97,4,4,T1_SMS_5,56,9999,9999,9999,457575480
97,4,4,T1_SMS_5,57,9999,9999,9999,458075248
97,4,4,T1_SMS_5,58,9999,9999,9999,458575984
97,4,4,T1_SMS_5,59,9999,9999,9999,459075688
97,4,4,T1_SMS_5,60,9999,9999,9999,459575380
97,4,4,T1_SMS_5,61,9999,9999,9999,460075072
97,4,4,T1_SMS_5,62,9999,9999,9999,460575812
97,4,4,T1_SMS_5,63,9999,9999,9999,461075508
97,4,4,T1_SMS_5,64,9999,9999,9999,461575276
97,4,4,T1_SMS_5,65,9999,9999,9999,462076020
97,4,4,T1_SMS_5,66,9999,9999,9999,462575712
97,4,4,T1_SMS_5,67,9999,9999,9999,463075408
97,4,4,T1_SMS_5,68,9999,9999,9999,463575104
97,4,4,T1_SMS_5,69,9999,9999,9999,464075892
97,4,4,T1_SMS_5,70,9999,9999,9999,464575596
97,4,4,T1_SMS_5,71,9999,9999,9999,465075288
97,4,4,T1_SMS_5,72,9999,9999,9999,465576024
97,4,4,T1_SMS_5,73,9999,9999,9999,466075720
97,4,4,T1_SMS_5,74,9999,9999,9999,466575420
97,4,4,T1_SMS_5,75,9999,9999,9999,467075188
97,4,4,T1_SMS_5,76,9999,9999,9999,467575856
97,4,4,T1_SMS_5,77,9999,9999,9999,468075624
97,4,4,T1_SMS_5,78,9999,9999,9999,468575320
97,4,4,T1_SMS_5,79,9999,9999,9999,469076060
97,4,4,T1_SMS_5,80,9999,9999,9999,469575756
97,4,4,T1_SMS_5,81,9999,9999,9999,470075452
97,4,4,T1_SMS_5,82,9999,9999,9999,470575216
97,4,4,T1_SMS_5,83,9999,9999,9999,471075956
97,4,4,T1_SMS_5,84,9999,9999,9999,471575652
97,4,4,T1_SMS_5,85,9999,9999,9999,472075348
97,4,4,T1_SMS_5,86,9999,9999,9999,472576100
97,4,4,T1_SMS_5,87,9999,9999,9999,473075820
97,4,4,T1_SMS_5,88,9999,9999,9999,473575484
97,4,4,T1_SMS_5,89,9999,9999,9999,474075228
97,4,4,T1_SMS_5,90,9999,9999,9999,474575944
97,4,4,T1_SMS_5,91,9999,9999,9999,475075632
97,4,4,T1_SMS_5,92,9999,9999,9999,475575408
97,4,4,T1_SMS_5,93,9999,9999,9999,476075096
97,4,4,T1_SMS_5,94,9999,9999,9999,476575844
97,4,4,T1_SMS_5,95,9999,9999,9999,477075532
97,4,4,T1_SMS_5,96,9999,9999,9999,477575232
97,4,4,T1_SMS_5,97,9999,9999,9999,478075968
97,4,4,T1_SMS_5,98,9999,9999,9999,478575688
97,4,4,T1_SMS_5,99,9999,9999,9999,479075440
97,4,4,T1_SMS_5,100,9999,9999,9999,479575136
97,4,4,T1_SMS_5,101,9999,9999,9999,480075872
97,4,4,T1_SMS_5,102,9999,9999,9999,480575564
97,4,4,T1_SMS_5,103,9999,9999,9999,481075268
97,4,4,T1_SMS_5,104,9999,9999,9999,481576008
97,4,4,T1_SMS_5,105,9999,9999,9999,482075704
97,4,4,T1_SMS_5,106,9999,9999,9999,482575468
97,4,4,T1_SMS_5,107,9999,9999,9999,483075168
97,4,4,T1_SMS_5,108,9999,9999,9999,483575912
97,4,4,T1_SMS_5,109,9999,9999,9999,484075600
97,4,4,T1_SMS_5,110,9999,9999,9999,484575292
97,4,4,T1_SMS_5,111,9999,9999,9999,485076084
97,4,4,T1_SMS_5,112,9999,9999,9999,485575780
97,4,4,T1_SMS_5,113,9999,9999,9999,486075484
97,4,4,T1_SMS_5,114,9999,9999,9999,486575172
97,4,4,T1_SMS_5,115,9999,9999,9999,487075916
97,4,4,T1_SMS_5,116,9999,9999,9999,487575612
97,4,4,T1_SMS_5,117,9999,9999,9999,488075380
97,4,4,T1_SMS_5,118,9999,9999,9999,488576052
97,4,4,T1_SMS_5,119,9999,9999,9999,489075812
97,4,4,T1_SMS_5,120,9999,9999,9999,489575504
97,4,4,T1_SMS_5,121,9999,9999,9999,490075204
97,4,4,T1_SMS_5,122,9999,9999,9999,490575992
97,4,4,T1_SMS_5,123,9999,9999,9999,491075684
97,4,4,T1_SMS_5,124,9999,9999,9999,491575380
97,4,4,T1_SMS_5,125,9999,9999,9999,492075080
97,4,4,T1_SMS_5,126,9999,9999,9999,492575816
97,4,4,T1_SMS_5,127,9999,9999,9999,493075512
97,4,4,T1_SMS_5,128,9999,9999,9999,493575280
97,4,4,T1_SMS_5,129,9999,9999,9999,494076024
97,5,20,Ticks_Linear_8,0,5,42,127,504524164
97,5,20,Ticks_Linear_8,1,5,42,127,505344376
97,5,20,Ticks_Linear_8,2,1,48,21,505527528
97,5,20,Ticks_Linear_8,3,5,42,127,506163724
97,5,20,Ticks_Linear_8,4,1,48,29,506213948
97,5,20,Ticks_Linear_8,5,1,48,30,506971028
97,5,20,Ticks_Linear_8,6,5,42,127,506983956
97,5,20,Ticks_Linear_8,7,1,48,29,507758472
97,5,20,Ticks_Linear_8,8,5,42,127,507803904
97,5,20,Ticks_Linear_8,9,1,48,33,508592508
97,5,20,Ticks_Linear_8,10,5,42,127,508613960
97,5,20,Ticks_Linear_8,11,1,48,28,509403460
97,5,20,Ticks_Linear_8,12,5,42,127,509423892
97,5,20,Ticks_Linear_8,13,1,48,33,510181868
97,5,20,Ticks_Linear_8,14,5,42,127,510234100
97,5,20,Ticks_Linear_8,15,1,48,34,510976348
97,5,20,Ticks_Linear_8,16,5,42,127,511043936
97,5,20,Ticks_Linear_8,17,1,48,30,511789172
97,5,20,Ticks_Linear_8,18,5,42,127,511853920
97,5,20,Ticks_Linear_8,19,1,48,30,512610908
97,5,20,Ticks_Linear_8,20,5,42,127,512653568
97,5,20,Ticks_Linear_8,21,5,42,127,513453372
97,5,20,Ticks_Linear_8,22,1,48,37,513457244
97,5,20,Ticks_Linear_8,23,5,42,127,514254292
97,5,20,Ticks_Linear_8,24,1,48,30,514297204
97,5,20,Ticks_Linear_8,25,5,42,127,515053968
97,5,20,Ticks_Linear_8,26,1,48,33,515074012
97,5,20,Ticks_Linear_8,27,5,42,127,515853620
97,5,20,Ticks_Linear_8,28,1,48,32,515865272
97,5,20,Ticks_Linear_8,29,5,42,127,516644280
97,5,20,Ticks_Linear_8,30,1,48,33,516657584
97,5,20,Ticks_Linear_8,31,5,42,127,517433744
97,5,20,Ticks_Linear_8,32,1,48,32,517476776
97,5,20,Ticks_Linear_8,33,5,42,127,518224104
97,5,20,Ticks_Linear_8,34,1,48,29,518234640
97,5,20,Ticks_Linear_8,35,1,48,32,519004760
97,5,20,Ticks_Linear_8,36,5,42,127,519013784
97,5,20,Ticks_Linear_8,37,5,42,127,519804304
97,5,20,Ticks_Linear_8,38,1,48,30,519813348
97,5,20,Ticks_Linear_8,39,5,42,127,520583884
97,5,20,Ticks_Linear_8,40,1,48,32,520598012
97,5,20,Ticks_Linear_8,41,5,42,127,521363692
97,5,20,Ticks_Linear_8,42,1,48,27,521387404
97,5,20,Ticks_Linear_8,43,5,42,127,522144016
97,5,20,Ticks_Linear_8,44,1,48,30,522151844
97,5,20,Ticks_Linear_8,45,1,48,30,522914040
97,5,20,Ticks_Linear_8,46,5,42,127,522924336
97,5,20,Ticks_Linear_8,47,1,48,28,523688148
97,5,20,Ticks_Linear_8,48,5,42,127,523703768
97,5,20,Ticks_Linear_8,49,1,48,28,524447728
97,5,20,Ticks_Linear_8,50,5,42,127,524473908
97,5,20,Ticks_Linear_8,51,1,48,29,525228584
97,5,20,Ticks_Linear_8,52,5,42,127,525243756
97,5,20,Ticks_Linear_8,53,5,42,127,526013680
97,5,20,Ticks_Linear_8,54,1,48,24,526022568
97,5,20,Ticks_Linear_8,55,5,42,127,526783824
97,5,20,Ticks_Linear_8,56,1,48,30,526796828
97,5,20,Ticks_Linear_8,57,1,48,29,527528980
97,5,20,Ticks_Linear_8,58,5,42,127,527553808
97,5,20,Ticks_Linear_8,59,5,42,127,528313704
97,5,20,Ticks_Linear_8,60,1,48,29,528335764
97,5,20,Ticks_Linear_8,61,5,42,127,529073656
97,5,20,Ticks_Linear_8,62,1,48,29,529092136
97,5,20,Ticks_Linear_8,63,5,42,127,529834364
97,5,20,Ticks_Linear_8,64,1,48,25,529864592
97,5,20,Ticks_Linear_8,65,5,42,127,530594100
97,5,20,Ticks_Linear_8,66,1,48,31,530610768
97,5,20,Ticks_Linear_8,67,1,48,26,531333644
97,5,20,Ticks_Linear_8,68,5,42,127,531353976
97,5,20,Ticks_Linear_8,69,5,42,127,532103756
97,5,20,Ticks_Linear_8,70,1,48,20,532126124
97,5,20,Ticks_Linear_8,71,5,42,127,532854276
97,5,20,Ticks_Linear_8,72,1,48,29,532870796
97,5,20,Ticks_Linear_8,73,1,48,29,533593448
97,5,20,Ticks_Linear_8,74,5,42,127,533603744
97,5,20,Ticks_Linear_8,75,5,42,127,534354272
97,5,20,Ticks_Linear_8,76,1,48,27,534357692
97,5,20,Ticks_Linear_8,77,5,42,127,535103900
97,5,20,Ticks_Linear_8,78,1,48,27,535109792
97,5,20,Ticks_Linear_8,79,1,48,26,535833408
97,5,20,Ticks_Linear_8,80,5,42,127,535844232
97,5,20,Ticks_Linear_8,81,5,42,127,536583532
97,5,20,Ticks_Linear_8,82,1,48,27,536597584
97,5,20,Ticks_Linear_8,83,5,42,127,537323868
97,5,20,Ticks_Linear_8,84,1,48,32,537337100
97,5,20,Ticks_Linear_8,85,1,48,27,538060232
97,5,20,Ticks_Linear_8,86,5,42,127,538064248
97,5,20,Ticks_Linear_8,87,5,42,127,538803768
97,5,20,Ticks_Linear_8,88,1,48,27,538818944
97,5,20,Ticks_Linear_8,89,5,42,127,539533548
97,5,20,Ticks_Linear_8,90,1,48,29,539562656
97,5,20,Ticks_Linear_8,91,5,42,127,540263776
97,5,20,Ticks_Linear_8,92,1,48,29,540274684
97,5,20,Ticks_Linear_8,93,1,48,33,540984072
97,5,20,Ticks_Linear_8,94,5,42,127,540993848
97,5,20,Ticks_Linear_8,95,5,42,127,541724008
97,5,20,Ticks_Linear_8,96,1,48,29,541760900
97,5,20,Ticks_Linear_8,97,5,42,127,542454236
97,5,20,Ticks_Linear_8,98,1,48,27,542472188
97,5,20,Ticks_Linear_8,99,1,48,26,543149120
97,5,20,Ticks_Linear_8,100,5,42,127,543173948
97,5,20,Ticks_Linear_8,101,1,48,26,543863852
97,5,20,Ticks_Linear_8,102,5,42,127,543893768
97,5,20,Ticks_Linear_8,103,5,42,127,544613744
97,5,20,Ticks_Linear_8,104,1,48,26,544617164
97,5,20,Ticks_Linear_8,105,5,42,127,545333488
97,5,20,Ticks_Linear_8,106,1,48,28,545336156
97,5,20,Ticks_Linear_8,107,5,42,127,546053384
97,5,20,Ticks_Linear_8,108,1,48,29,546070652
97,5,20,Ticks_Linear_8,109,5,42,127,546764112
97,5,20,Ticks_Linear_8,110,1,48,26,546790244
97,5,20,Ticks_Linear_8,111,1,48,28,547463668
97,5,20,Ticks_Linear_8,112,5,42,127,547473740
97,5,20,Ticks_Linear_8,113,1,48,25,548167532
97,5,20,Ticks_Linear_8,114,5,42,127,548184348
97,5,20,Ticks_Linear_8,115,1,48,21,548890192
97,5,20,Ticks_Linear_8,116,5,42,127,548904464
97,5,20,Ticks_Linear_8,117,5,42,127,549613884
97,5,20,Ticks_Linear_8,118,1,48,29,549648604
97,5,20,Ticks_Linear_8,119,5,42,127,550314356
97,5,20,Ticks_Linear_8,120,1,48,30,550336492
97,5,20,Ticks_Linear_8,121,5,42,127,551013728
97,5,20,Ticks_Linear_8,122,1,48,24,551017072
97,5,20,Ticks_Linear_8,123,1,48,28,551702200
97,5,20,Ticks_Linear_8,124,5,42,127,551714220
97,5,20,Ticks_Linear_8,125,1,48,29,552374664
97,5,20,Ticks_Linear_8,126,5,42,127,552413520
97,5,20,Ticks_Linear_8,127,1,48,36,553074788
97,5,20,Ticks_Linear_8,128,5,42,127,553113920
97,5,20,Ticks_Linear_8,129,1,48,28,553764952
97,5,20,Ticks_Linear_8,130,5,42,127,553804380
97,5,20,Ticks_Linear_8,131,1,48,29,554437864
97,5,20,Ticks_Linear_8,132,5,42,127,554494620
97,5,20,Ticks_Linear_8,133,1,48,33,555154988
97,5,20,Ticks_Linear_8,134,5,42,127,555183412
97,5,20,Ticks_Linear_8,135,1,48,29,555852048
97,5,20,Ticks_Linear_8,136,5,42,127,555873724
97,5,20,Ticks_Linear_8,137,1,48,19,556506460
97,5,20,Ticks_Linear_8,138,5,42,127,556563740
97,5,20,Ticks_Linear_8,139,1,48,20,557206056
97,5,20,Ticks_Linear_8,140,5,42,127,557243768
97,5,20,Ticks_Linear_8,141,1,48,22,557895700
97,5,20,Ticks_Linear_8,142,5,42,127,557923600
97,5,20,Ticks_Linear_8,143,5,42,127,558603508
97,5,20,Ticks_Linear_8,144,1,48,27,558658072
97,5,20,Ticks_Linear_8,145,1,48,23,559278916
97,5,20,Ticks_Linear_8,146,5,42,127,559283680
97,5,20,Ticks_Linear_8,147,1,48,21,559915536
97,5,20,Ticks_Linear_8,148,5,42,127,559963508
97,5,20,Ticks_Linear_8,149,1,48,19,560546888
97,5,20,Ticks_Linear_8,150,5,42,127,560634348
97,5,20,Ticks_Linear_8,151,1,48,21,561249252
97,5,20,Ticks_Linear_8,152,5,42,127,561303896
97,5,20,Ticks_Linear_8,153,5,42,127,561973620
97,5,20,Ticks_Linear_8,154,1,48,22,561980104
97,5,20,Ticks_Linear_8,155,5,42,127,562644288
97,5,20,Ticks_Linear_8,156,1,48,23,562670192
97,5,20,Ticks_Linear_8,157,1,48,22,563305124
97,5,20,Ticks_Linear_8,158,5,42,127,563314224
97,5,20,Ticks_Linear_8,159,1,48,24,563956268
97,5,20,Ticks_Linear_8,160,5,42,127,563973460
97,5,20,Ticks_Linear_8,161,1,48,24,564600644
97,5,20,Ticks_Linear_8,162,5,42,127,564634316
97,5,20,Ticks_Linear_8,163,1,48,22,565245356
97,5,20,Ticks_Linear_8,164,5,42,127,565293476
97,5,20,Ticks_Linear_8,165,1,48,24,565903748
97,5,20,Ticks_Linear_8,166,5,42,127,565954032
97,5,20,Ticks_Linear_8,167,1,48,22,566600340
97,5,20,Ticks_Linear_8,168,5,42,127,566614392
97,5,20,Ticks_Linear_8,169,1,48,19,567256036
97,5,20,Ticks_Linear_8,170,5,42,127,567263520
97,5,20,Ticks_Linear_8,171,1,48,22,567912620
97,5,20,Ticks_Linear_8,172,5,42,127,567914040
97,5,20,Ticks_Linear_8,173,5,42,127,568564296
97,5,20,Ticks_Linear_8,174,1,48,17,568586444
97,5,20,Ticks_Linear_8,175,5,42,127,569214368
97,5,20,Ticks_Linear_8,176,1,48,16,569239656
97,5,20,Ticks_Linear_8,177,1,48,26,569802392
97,5,20,Ticks_Linear_8,178,5,42,127,569863564
97,5,20,Ticks_Linear_8,179,1,48,26,570472188
97,5,20,Ticks_Linear_8,180,5,42,127,570503452
97,5,20,Ticks_Linear_8,181,1,48,28,571122812
97,5,20,Ticks_Linear_8,182,5,42,127,571143516
97,5,20,Ticks_Linear_8,183,1,48,23,571781032
97,5,20,Ticks_Linear_8,184,5,42,127,571783480
97,5,20,Ticks_Linear_8,185,1,48,25,572398264
97,5,20,Ticks_Linear_8,186,5,42,127,572423544
97,5,20,Ticks_Linear_8,187,5,42,127,573063444
97,5,20,Ticks_Linear_8,188,1,48,23,573068732
97,5,20,Ticks_Linear_8,189,5,42,127,573694296
97,5,20,Ticks_Linear_8,190,1,48,21,573702216
97,5,20,Ticks_Linear_8,191,1,48,23,574297888
97,5,20,Ticks_Linear_8,192,5,42,127,574324216
97,5,20,Ticks_Linear_8,193,1,48,21,574935384
97,5,20,Ticks_Linear_8,194,5,42,127,574953796
97,5,20,Ticks_Linear_8,195,1,48,24,575563688
97,5,20,Ticks_Linear_8,196,5,42,127,575583576
97,5,20,Ticks_Linear_8,197,5,42,127,576214340
97,5,20,Ticks_Linear_8,198,1,48,23,576220252
97,5,20,Ticks_Linear_8,199,1,48,23,576823800
97,5,20,Ticks_Linear_8,200,5,42,127,576834172
97,5,20,Ticks_Linear_8,201,1,48,21,577453552
97,5,20,Ticks_Linear_8,202,5,42,127,577454964
97,5,20,Ticks_Linear_8,203,1,48,24,578062120
97,5,20,Ticks_Linear_8,204,5,42,127,578074136
97,5,20,Ticks_Linear_8,205,1,48,26,578679532
97,5,20,Ticks_Linear_8,206,5,42,127,578693512
97,5,20,Ticks_Linear_8,207,1,48,24,579288348
97,5,20,Ticks_Linear_8,208,5,42,127,579314028
97,5,20,Ticks_Linear_8,209,1,48,24,579923136
97,5,20,Ticks_Linear_8,210,5,42,127,579924632
97,5,20,Ticks_Linear_8,211,1,48,22,580527416
97,5,20,Ticks_Linear_8,212,5,42,127,580533600
97,5,20,Ticks_Linear_8,213,1,48,18,581105544
97,5,20,Ticks_Linear_8,214,5,42,127,581144080
97,5,20,Ticks_Linear_8,215,1,48,26,581743564
97,5,20,Ticks_Linear_8,216,5,42,127,581754164
97,5,20,Ticks_Linear_8,217,1,48,28,582362468
97,5,20,Ticks_Linear_8,218,5,42,127,582363740
97,5,20,Ticks_Linear_8,219,5,42,127,582963572
97,5,20,Ticks_Linear_8,220,1,48,26,583003320
97,5,20,Ticks_Linear_8,221,5,42,127,583563772
97,5,20,Ticks_Linear_8,222,1,48,27,583572740
97,5,20,Ticks_Linear_8,223,5,42,127,584163996
97,5,20,Ticks_Linear_8,224,1,48,28,584170104
97,5,20,Ticks_Linear_8,225,5,42,127,584763968
97,5,20,Ticks_Linear_8,226,1,48,29,584779292
97,5,20,Ticks_Linear_8,227,5,42,127,585364016
97,5,20,Ticks_Linear_8,228,1,48,33,585365732
97,5,20,Ticks_Linear_8,229,5,42,127,585953536
97,5,20,Ticks_Linear_8,230,1,48,33,585999488
97,5,20,Ticks_Linear_8,231,1,48,30,586537212
97,5,20,Ticks_Linear_8,232,5,42,127,586543468
97,5,20,Ticks_Linear_8,233,1,48,27,587098912
97,5,20,Ticks_Linear_8,234,5,42,127,587134228
97,5,20,Ticks_Linear_8,235,1,48,29,587698364
97,5,20,Ticks_Linear_8,236,5,42,127,587724092
97,5,20,Ticks_Linear_8,237,1,48,32,588301740
97,5,20,Ticks_Linear_8,238,5,42,127,588313836
97,5,20,Ticks_Linear_8,239,1,48,27,588868160
97,5,20,Ticks_Linear_8,240,5,42,127,588893516
97,5,20,Ticks_Linear_8,241,1,48,28,589463792
97,5,20,Ticks_Linear_8,242,5,42,127,589474092
97,5,20,Ticks_Linear_8,243,1,48,22,590046640
97,5,20,Ticks_Linear_8,244,5,42,127,590053720
97,5,20,Ticks_Linear_8,245,5,42,127,590634456
97,5,20,Ticks_Linear_8,246,1,48,25,590656676
97,5,20,Ticks_Linear_8,247,5,42,127,591213836
97,5,20,Ticks_Linear_8,248,1,48,25,591250352
97,5,20,Ticks_Linear_8,249,5,42,127,591784228
97,5,20,Ticks_Linear_8,250,1,48,26,591830108
97,5,20,Ticks_Linear_8,251,5,42,127,592353824
97,5,20,Ticks_Linear_8,252,1,48,27,592369748
97,5,20,Ticks_Linear_8,253,1,48,29,592892948
97,5,20,Ticks_Linear_8,254,5,42,127,592924060
97,5,20,Ticks_Linear_8,255,1,48,29,593494384
97,5,20,Ticks_Linear_8,256,5,42,127,593495872
97,5,20,Ticks_Linear_8,257,1,48,32,594056188
97,5,20,Ticks_Linear_8,258,5,42,127,594063800
97,5,20,Ticks_Linear_8,259,5,42,127,594623940
97,5,20,Ticks_Linear_8,260,1,48,32,594629008
97,5,20,Ticks_Linear_8,261,5,42,127,595184024
97,5,20,Ticks_Linear_8,262,1,48,34,595188792
97,5,20,Ticks_Linear_8,263,1,48,35,595739240
97,5,20,Ticks_Linear_8,264,5,42,127,595744224
97,5,20,Ticks_Linear_8,265,1,48,31,596264552
97,5,20,Ticks_Linear_8,266,5,42,127,596304208
97,5,20,Ticks_Linear_8,267,1,48,28,596815548
97,5,20,Ticks_Linear_8,268,5,42,127,596864344
97,5,20,Ticks_Linear_8,269,1,48,27,597389984
97,5,20,Ticks_Linear_8,270,5,42,127,597414144
97,5,20,Ticks_Linear_8,271,1,48,29,597916124
97,5,20,Ticks_Linear_8,272,5,42,127,597964092
97,5,20,Ticks_Linear_8,273,1,48,29,598458732
97,5,20,Ticks_Linear_8,274,5,42,127,598513992
97,5,20,Ticks_Linear_8,275,1,48,29,599051848
97,5,20,Ticks_Linear_8,276,5,42,127,599063792
97,5,20,Ticks_Linear_8,277,5,42,127,599613972
97,5,20,Ticks_Linear_8,278,1,48,31,599646300
97,5,20,Ticks_Linear_8,279,5,42,127,600153664
97,5,20,Ticks_Linear_8,280,1,48,31,600214000
97,5,20,Ticks_Linear_8,281,5,42,127,600694100
97,5,20,Ticks_Linear_8,282,1,48,21,600719084
97,5,20,Ticks_Linear_8,283,1,48,26,601207308
97,5,20,Ticks_Linear_8,284,5,42,127,601234008
97,5,20,Ticks_Linear_8,285,1,48,30,601702744
97,5,20,Ticks_Linear_8,286,5,42,127,601773548
97,5,20,Ticks_Linear_8,287,1,48,27,602280092
97,5,20,Ticks_Linear_8,288,5,42,127,602314064
97,5,20,Ticks_Linear_8,289,1,48,22,602824060
97,5,20,Ticks_Linear_8,290,5,42,127,602843592
97,5,20,Ticks_Linear_8,291,5,42,127,603373856
97,5,20,Ticks_Linear_8,292,1,48,25,603400708
97,5,20,Ticks_Linear_8,293,5,42,127,603904480
97,5,20,Ticks_Linear_8,294,1,48,17,603941072
97,5,20,Ticks_Linear_8,295,1,48,21,604431792
97,5,20,Ticks_Linear_8,296,5,42,127,604433756
97,5,20,Ticks_Linear_8,297,1,48,26,604899712
97,5,20,Ticks_Linear_8,298,5,42,127,604964308
97,5,20,Ticks_Linear_8,299,1,48,30,605457604
97,5,20,Ticks_Linear_8,300,5,42,127,605484452
97,5,20,Ticks_Linear_8,301,1,48,28,605990320
97,5,20,Ticks_Linear_8,302,5,42,127,606003772
97,5,20,Ticks_Linear_8,303,1,48,25,606496688
97,5,20,Ticks_Linear_8,304,5,42,127,606523916
97,5,20,Ticks_Linear_8,305,1,48,23,607011888
97,5,20,Ticks_Linear_8,306,5,42,127,607043912
97,5,20,Ticks_Linear_8,307,1,48,27,607542676
97,5,20,Ticks_Linear_8,308,5,42,127,607564128
97,5,20,Ticks_Linear_8,309,1,48,28,608051812
97,5,20,Ticks_Linear_8,310,5,42,127,608074088
97,5,20,Ticks_Linear_8,311,1,48,20,608566104
97,5,20,Ticks_Linear_8,312,5,42,127,608583976
97,5,20,Ticks_Linear_8,313,1,48,27,609045740
97,5,20,Ticks_Linear_8,314,5,42,127,609094008
97,5,20,Ticks_Linear_8,315,5,42,127,609603900
97,5,20,Ticks_Linear_8,316,1,48,23,609609188
97,5,20,Ticks_Linear_8,317,1,48,26,610102732
97,5,20,Ticks_Linear_8,318,5,42,127,610113928
97,5,20,Ticks_Linear_8,319,1,48,33,610605048
97,5,20,Ticks_Linear_8,320,5,42,127,610613552
97,5,20,Ticks_Linear_8,321,1,48,30,611108268
97,5,20,Ticks_Linear_8,322,5,42,127,611114224
97,5,20,Ticks_Linear_8,323,1,48,32,611590364
97,5,20,Ticks_Linear_8,324,5,42,127,611614000
97,5,20,Ticks_Linear_8,325,1,48,29,612097632
97,5,20,Ticks_Linear_8,326,5,42,127,612113776
97,5,20,Ticks_Linear_8,327,5,42,127,612613556
97,5,20,Ticks_Linear_8,328,1,48,28,612621308
97,5,20,Ticks_Linear_8,329,1,48,30,613099496
97,5,20,Ticks_Linear_8,330,5,42,127,613103964
97,5,20,Ticks_Linear_8,331,1,48,31,613583080
97,5,20,Ticks_Linear_8,332,5,42,127,613593476
97,5,20,Ticks_Linear_8,333,1,48,37,614064428
97,5,20,Ticks_Linear_8,334,5,42,127,614083864
97,5,20,Ticks_Linear_8,335,1,48,31,614488340
97,5,20,Ticks_Linear_8,336,5,42,127,614573604
97,5,20,Ticks_Linear_8,337,1,48,28,615029000
97,5,20,Ticks_Linear_8,338,5,42,127,615063792
97,5,20,Ticks_Linear_8,0,9999,9999,9999,504521788
97,5,20,Ticks_Linear_8,1,9999,9999,9999,505342076
97,5,20,Ticks_Linear_8,2,9999,9999,9999,506161276
97,5,20,Ticks_Linear_8,3,9999,9999,9999,506981436
97,5,20,Ticks_Linear_8,4,9999,9999,9999,507801676
97,5,20,Ticks_Linear_8,5,9999,9999,9999,508611664
97,5,20,Ticks_Linear_8,6,9999,9999,9999,509421668
97,5,20,Ticks_Linear_8,7,9999,9999,9999,510231652
97,5,20,Ticks_Linear_8,8,9999,9999,9999,511041636
97,5,20,Ticks_Linear_8,9,9999,9999,9999,511851620
97,5,20,Ticks_Linear_8,10,9999,9999,9999,512651344
97,5,20,Ticks_Linear_8,11,9999,9999,9999,513451076
97,5,20,Ticks_Linear_8,12,9999,9999,9999,514251848
97,5,20,Ticks_Linear_8,13,9999,9999,9999,515051592
97,5,20,Ticks_Linear_8,14,9999,9999,9999,515851320
97,5,20,Ticks_Linear_8,15,9999,9999,9999,516641904
97,5,20,Ticks_Linear_8,16,9999,9999,9999,517431368
97,5,20,Ticks_Linear_8,17,9999,9999,9999,518221880
97,5,20,Ticks_Linear_8,18,9999,9999,9999,519011412
97,5,20,Ticks_Linear_8,19,9999,9999,9999,519801932
97,5,20,Ticks_Linear_8,20,9999,9999,9999,520581212
97,5,20,Ticks_Linear_8,21,9999,9999,9999,521361464
97,5,20,Ticks_Linear_8,22,9999,9999,9999,522141792
97,5,20,Ticks_Linear_8,23,9999,9999,9999,522922036
97,5,20,Ticks_Linear_8,24,9999,9999,9999,523701320
97,5,20,Ticks_Linear_8,25,9999,9999,9999,524471388
97,5,20,Ticks_Linear_8,26,9999,9999,9999,525241456
97,5,20,Ticks_Linear_8,27,9999,9999,9999,526011456
97,5,20,Ticks_Linear_8,28,9999,9999,9999,526781524
97,5,20,Ticks_Linear_8,29,9999,9999,9999,527551584
97,5,20,Ticks_Linear_8,30,9999,9999,9999,528311404
97,5,20,Ticks_Linear_8,31,9999,9999,9999,529071212
97,5,20,Ticks_Linear_8,32,9999,9999,9999,529831992
97,5,20,Ticks_Linear_8,33,9999,9999,9999,530591800
97,5,20,Ticks_Linear_8,34,9999,9999,9999,531351676
97,5,20,Ticks_Linear_8,35,9999,9999,9999,532101236
97,5,20,Ticks_Linear_8,36,9999,9999,9999,532851832
97,5,20,Ticks_Linear_8,37,9999,9999,9999,533601372
97,5,20,Ticks_Linear_8,38,9999,9999,9999,534351976
97,5,20,Ticks_Linear_8,39,9999,9999,9999,535101524
97,5,20,Ticks_Linear_8,40,9999,9999,9999,535841856
97,5,20,Ticks_Linear_8,41,9999,9999,9999,536581232
97,5,20,Ticks_Linear_8,42,9999,9999,9999,537321568
97,5,20,Ticks_Linear_8,43,9999,9999,9999,538061948
97,5,20,Ticks_Linear_8,44,9999,9999,9999,538801244
97,5,20,Ticks_Linear_8,45,9999,9999,9999,539531324
97,5,20,Ticks_Linear_8,46,9999,9999,9999,540261476
97,5,20,Ticks_Linear_8,47,9999,9999,9999,540991552
97,5,20,Ticks_Linear_8,48,9999,9999,9999,541721712
97,5,20,Ticks_Linear_8,49,9999,9999,9999,542451788
97,5,20,Ticks_Linear_8,50,9999,9999,9999,543171652
97,5,20,Ticks_Linear_8,51,9999,9999,9999,543891544
97,5,20,Ticks_Linear_8,52,9999,9999,9999,544611444
97,5,20,Ticks_Linear_8,53,9999,9999,9999,545331264
97,5,20,Ticks_Linear_8,54,9999,9999,9999,546051156
97,5,20,Ticks_Linear_8,55,9999,9999,9999,546761816
97,5,20,Ticks_Linear_8,56,9999,9999,9999,547471444
97,5,20,Ticks_Linear_8,57,9999,9999,9999,548182124
97,5,20,Ticks_Linear_8,58,9999,9999,9999,548901944
97,5,20,Ticks_Linear_8,59,9999,9999,9999,549611584
97,5,20,Ticks_Linear_8,60,9999,9999,9999,550312056
97,5,20,Ticks_Linear_8,61,9999,9999,9999,551011432
97,5,20,Ticks_Linear_8,62,9999,9999,9999,551711848
97,5,20,Ticks_Linear_8,63,9999,9999,9999,552411224
97,5,20,Ticks_Linear_8,64,9999,9999,9999,553111620
97,5,20,Ticks_Linear_8,65,9999,9999,9999,553801784
97,5,20,Ticks_Linear_8,66,9999,9999,9999,554492024
97,5,20,Ticks_Linear_8,67,9999,9999,9999,555181116
97,5,20,Ticks_Linear_8,68,9999,9999,9999,555871352
97,5,20,Ticks_Linear_8,69,9999,9999,9999,556561512
97,5,20,Ticks_Linear_8,70,9999,9999,9999,557241468
97,5,20,Ticks_Linear_8,71,9999,9999,9999,557921372
97,5,20,Ticks_Linear_8,72,9999,9999,9999,558601284
97,5,20,Ticks_Linear_8,73,9999,9999,9999,559281232
97,5,20,Ticks_Linear_8,74,9999,9999,9999,559961208
97,5,20,Ticks_Linear_8,75,9999,9999,9999,560631900
97,5,20,Ticks_Linear_8,76,9999,9999,9999,561301596
97,5,20,Ticks_Linear_8,77,9999,9999,9999,561971320
97,5,20,Ticks_Linear_8,78,9999,9999,9999,562641988
97,5,20,Ticks_Linear_8,79,9999,9999,9999,563311704
97,5,20,Ticks_Linear_8,80,9999,9999,9999,563971160
97,5,20,Ticks_Linear_8,81,9999,9999,9999,564631644
97,5,20,Ticks_Linear_8,82,9999,9999,9999,565291104
97,5,20,Ticks_Linear_8,83,9999,9999,9999,565951588
97,5,20,Ticks_Linear_8,84,9999,9999,9999,566612092
97,5,20,Ticks_Linear_8,85,9999,9999,9999,567261296
97,5,20,Ticks_Linear_8,86,9999,9999,9999,567911524
97,5,20,Ticks_Linear_8,87,9999,9999,9999,568561772
97,5,20,Ticks_Linear_8,88,9999,9999,9999,569211996
97,5,20,Ticks_Linear_8,89,9999,9999,9999,569861192
97,5,20,Ticks_Linear_8,90,9999,9999,9999,570501228
97,5,20,Ticks_Linear_8,91,9999,9999,9999,571141220
97,5,20,Ticks_Linear_8,92,9999,9999,9999,571781184
97,5,20,Ticks_Linear_8,93,9999,9999,9999,572421248
97,5,20,Ticks_Linear_8,94,9999,9999,9999,573061216
97,5,20,Ticks_Linear_8,95,9999,9999,9999,573691996
97,5,20,Ticks_Linear_8,96,9999,9999,9999,574321768
97,5,20,Ticks_Linear_8,97,9999,9999,9999,574951500
97,5,20,Ticks_Linear_8,98,9999,9999,9999,575581280
97,5,20,Ticks_Linear_8,99,9999,9999,9999,576212040
97,5,20,Ticks_Linear_8,100,9999,9999,9999,576831576
97,5,20,Ticks_Linear_8,101,9999,9999,9999,577451104
97,5,20,Ticks_Linear_8,102,9999,9999,9999,578071616
97,5,20,Ticks_Linear_8,103,9999,9999,9999,578691136
97,5,20,Ticks_Linear_8,104,9999,9999,9999,579311728
97,5,20,Ticks_Linear_8,105,9999,9999,9999,579922044
97,5,20,Ticks_Linear_8,106,9999,9999,9999,580531300
97,5,20,Ticks_Linear_8,107,9999,9999,9999,581141560
97,5,20,Ticks_Linear_8,108,9999,9999,9999,581751868
97,5,20,Ticks_Linear_8,109,9999,9999,9999,582361208
97,5,20,Ticks_Linear_8,110,9999,9999,9999,582961276
97,5,20,Ticks_Linear_8,111,9999,9999,9999,583561324
97,5,20,Ticks_Linear_8,112,9999,9999,9999,584161396
97,5,20,Ticks_Linear_8,113,9999,9999,9999,584761444
97,5,20,Ticks_Linear_8,114,9999,9999,9999,585361496
97,5,20,Ticks_Linear_8,115,9999,9999,9999,585951312
97,5,20,Ticks_Linear_8,116,9999,9999,9999,586541168
97,5,20,Ticks_Linear_8,117,9999,9999,9999,587132004
97,5,20,Ticks_Linear_8,118,9999,9999,9999,587721796
97,5,20,Ticks_Linear_8,119,9999,9999,9999,588311608
97,5,20,Ticks_Linear_8,120,9999,9999,9999,588891216
97,5,20,Ticks_Linear_8,121,9999,9999,9999,589471868
97,5,20,Ticks_Linear_8,122,9999,9999,9999,590051424
97,5,20,Ticks_Linear_8,123,9999,9999,9999,590632008
97,5,20,Ticks_Linear_8,124,9999,9999,9999,591211612
97,5,20,Ticks_Linear_8,125,9999,9999,9999,591782004
97,5,20,Ticks_Linear_8,126,9999,9999,9999,592351304
97,5,20,Ticks_Linear_8,127,9999,9999,9999,592921688
97,5,20,Ticks_Linear_8,128,9999,9999,9999,593492084
97,5,20,Ticks_Linear_8,129,9999,9999,9999,594061424
97,5,20,Ticks_Linear_8,130,9999,9999,9999,594621492
97,5,20,Ticks_Linear_8,131,9999,9999,9999,595181652
97,5,20,Ticks_Linear_8,132,9999,9999,9999,595741776
97,5,20,Ticks_Linear_8,133,9999,9999,9999,596301912
97,5,20,Ticks_Linear_8,134,9999,9999,9999,596862044
97,5,20,Ticks_Linear_8,135,9999,9999,9999,597411920
97,5,20,Ticks_Linear_8,136,9999,9999,9999,597961796
97,5,20,Ticks_Linear_8,137,9999,9999,9999,598511692
97,5,20,Ticks_Linear_8,138,9999,9999,9999,599061568
97,5,20,Ticks_Linear_8,139,9999,9999,9999,599611448
97,5,20,Ticks_Linear_8,140,9999,9999,9999,600151140
97,5,20,Ticks_Linear_8,141,9999,9999,9999,600691804
97,5,20,Ticks_Linear_8,142,9999,9999,9999,601231488
97,5,20,Ticks_Linear_8,143,9999,9999,9999,601771100
97,5,20,Ticks_Linear_8,144,9999,9999,9999,602311764
97,5,20,Ticks_Linear_8,145,9999,9999,9999,602841144
97,5,20,Ticks_Linear_8,146,9999,9999,9999,603371628
97,5,20,Ticks_Linear_8,147,9999,9999,9999,603902032
97,5,20,Ticks_Linear_8,148,9999,9999,9999,604431488
97,5,20,Ticks_Linear_8,149,9999,9999,9999,604961860
97,5,20,Ticks_Linear_8,150,9999,9999,9999,605482076
97,5,20,Ticks_Linear_8,151,9999,9999,9999,606001248
97,5,20,Ticks_Linear_8,152,9999,9999,9999,606521468
97,5,20,Ticks_Linear_8,153,9999,9999,9999,607041612
97,5,20,Ticks_Linear_8,154,9999,9999,9999,607561832
97,5,20,Ticks_Linear_8,155,9999,9999,9999,608071792
97,5,20,Ticks_Linear_8,156,9999,9999,9999,608581748
97,5,20,Ticks_Linear_8,157,9999,9999,9999,609091708
97,5,20,Ticks_Linear_8,158,9999,9999,9999,609601600
97,5,20,Ticks_Linear_8,159,9999,9999,9999,610111552
97,5,20,Ticks_Linear_8,160,9999,9999,9999,610611256
97,5,20,Ticks_Linear_8,161,9999,9999,9999,611112000
97,5,20,Ticks_Linear_8,162,9999,9999,9999,611611700
97,5,20,Ticks_Linear_8,163,9999,9999,9999,612111476
97,5,20,Ticks_Linear_8,164,9999,9999,9999,612611180
97,5,20,Ticks_Linear_8,165,9999,9999,9999,613101664
97,5,20,Ticks_Linear_8,166,9999,9999,9999,613591152
97,5,20,Ticks_Linear_8,167,9999,9999,9999,614081640
97,5,20,Ticks_Linear_8,168,9999,9999,9999,614571080
97,5,20,Ticks_Linear_8,169,9999,9999,9999,615061568
97,6,21,Ticks_Linear_5,0,5,42,127,625350000
97,6,21,Ticks_Linear_5,1,1,48,22,625813348
97,6,21,Ticks_Linear_5,2,5,42,127,625830540
97,6,21,Ticks_Linear_5,3,1,48,27,626293056
97,6,21,Ticks_Linear_5,4,5,42,127,626309648
97,6,21,Ticks_Linear_5,5,1,48,27,626782496
97,6,21,Ticks_Linear_5,6,5,42,127,626789728
97,6,21,Ticks_Linear_5,7,1,48,28,627232992
97,6,21,Ticks_Linear_5,8,5,42,127,627269884
97,6,21,Ticks_Linear_5,9,1,48,26,627694800
97,6,21,Ticks_Linear_5,10,5,42,127,627759544
97,6,21,Ticks_Linear_5,11,1,48,27,628233440
97,6,21,Ticks_Linear_5,12,5,42,127,628250032
97,6,21,Ticks_Linear_5,13,1,48,29,628717720
97,6,21,Ticks_Linear_5,14,5,42,127,628739548
97,6,21,Ticks_Linear_5,15,1,48,28,629200540
97,6,21,Ticks_Linear_5,16,5,42,127,629229884
97,6,21,Ticks_Linear_5,17,1,48,36,629678152
97,6,21,Ticks_Linear_5,18,5,42,127,629720520
97,6,21,Ticks_Linear_5,19,1,48,32,630190128
97,6,21,Ticks_Linear_5,20,5,42,127,630230304
97,6,21,Ticks_Linear_5,21,1,48,28,630691472
97,6,21,Ticks_Linear_5,22,5,42,127,630730080
97,6,21,Ticks_Linear_5,23,1,48,24,631190196
97,6,21,Ticks_Linear_5,24,5,42,127,631229776
97,6,21,Ticks_Linear_5,25,1,48,28,631701424
97,6,21,Ticks_Linear_5,26,5,42,127,631729404
97,6,21,Ticks_Linear_5,27,1,48,24,632189744
97,6,21,Ticks_Linear_5,28,5,42,127,632230372
97,6,21,Ticks_Linear_5,29,1,48,29,632698960
97,6,21,Ticks_Linear_5,30,5,42,127,632740332
97,6,21,Ticks_Linear_5,31,1,48,28,633235192
97,6,21,Ticks_Linear_5,32,5,42,127,633250288
97,6,21,Ticks_Linear_5,33,1,48,29,633713624
97,6,21,Ticks_Linear_5,34,5,42,127,633760252
97,6,21,Ticks_Linear_5,35,1,48,27,634243508
97,6,21,Ticks_Linear_5,36,5,42,127,634270360
97,6,21,Ticks_Linear_5,37,1,48,26,634714672
97,6,21,Ticks_Linear_5,38,5,42,127,634780096
97,6,21,Ticks_Linear_5,39,1,48,29,635248684
97,6,21,Ticks_Linear_5,40,5,42,127,635300312
97,6,21,Ticks_Linear_5,41,1,48,29,635773532
97,6,21,Ticks_Linear_5,42,5,42,127,635820528
97,6,21,Ticks_Linear_5,43,1,48,32,636304232
97,6,21,Ticks_Linear_5,44,5,42,127,636339552
97,6,21,Ticks_Linear_5,45,1,48,33,636828208
97,6,21,Ticks_Linear_5,46,5,42,127,636859848
97,6,21,Ticks_Linear_5,47,1,48,30,637375296
97,6,21,Ticks_Linear_5,48,5,42,127,637379988
97,6,21,Ticks_Linear_5,49,1,48,32,637884888
97,6,21,Ticks_Linear_5,50,5,42,127,637910468
97,6,21,Ticks_Linear_5,51,1,48,30,638396792
97,6,21,Ticks_Linear_5,52,5,42,127,638439848
97,6,21,Ticks_Linear_5,53,1,48,30,638929152
97,6,21,Ticks_Linear_5,54,5,42,127,638970400
97,6,21,Ticks_Linear_5,55,1,48,30,639480764
97,6,21,Ticks_Linear_5,56,5,42,127,639499604
97,6,21,Ticks_Linear_5,57,1,48,30,640003676
97,6,21,Ticks_Linear_5,58,5,42,127,640030232
97,6,21,Ticks_Linear_5,59,1,48,30,640526516
97,6,21,Ticks_Linear_5,60,5,42,127,640569696
97,6,21,Ticks_Linear_5,61,5,42,127,641110588
97,6,21,Ticks_Linear_5,62,1,48,27,641115208
97,6,21,Ticks_Linear_5,63,1,48,29,641649004
97,6,21,Ticks_Linear_5,64,5,42,127,641650572
97,6,21,Ticks_Linear_5,65,5,42,127,642189820
97,6,21,Ticks_Linear_5,66,1,48,24,642192792
97,6,21,Ticks_Linear_5,67,1,48,27,642713660
97,6,21,Ticks_Linear_5,68,5,42,127,642730328
97,6,21,Ticks_Linear_5,69,1,48,31,643250436
97,6,21,Ticks_Linear_5,70,5,42,127,643280128
97,6,21,Ticks_Linear_5,71,5,42,127,643830256
97,6,21,Ticks_Linear_5,72,1,48,29,643832928
97,6,21,Ticks_Linear_5,73,1,48,25,644341292
97,6,21,Ticks_Linear_5,74,5,42,127,644379976
97,6,21,Ticks_Linear_5,75,1,48,28,644897076
97,6,21,Ticks_Linear_5,76,5,42,127,644929848
97,6,21,Ticks_Linear_5,77,1,48,29,645435792
97,6,21,Ticks_Linear_5,78,5,42,127,645479724
97,6,21,Ticks_Linear_5,79,1,48,28,646005960
97,6,21,Ticks_Linear_5,80,5,42,127,646039780
97,6,21,Ticks_Linear_5,81,1,48,31,646570220
97,6,21,Ticks_Linear_5,82,5,42,127,646600212
97,6,21,Ticks_Linear_5,83,5,42,127,647160156
97,6,21,Ticks_Linear_5,84,1,48,34,647170392
97,6,21,Ticks_Linear_5,85,1,48,28,647718092
97,6,21,Ticks_Linear_5,86,5,42,127,647720208
97,6,21,Ticks_Linear_5,87,5,42,127,648280348
97,6,21,Ticks_Linear_5,88,1,48,22,648288716
97,6,21,Ticks_Linear_5,89,1,48,23,648826196
97,6,21,Ticks_Linear_5,90,5,42,127,648860316
97,6,21,Ticks_Linear_5,91,1,48,26,649384684
97,6,21,Ticks_Linear_5,92,5,42,127,649430336
97,6,21,Ticks_Linear_5,93,1,48,21,649964508
97,6,21,Ticks_Linear_5,94,5,42,127,649999756
97,6,21,Ticks_Linear_5,95,1,48,23,650528176
97,6,21,Ticks_Linear_5,96,5,42,127,650570148
97,6,21,Ticks_Linear_5,97,1,48,23,651105376
97,6,21,Ticks_Linear_5,98,5,42,127,651139420
97,6,21,Ticks_Linear_5,99,1,48,22,651714256
97,6,21,Ticks_Linear_5,100,5,42,127,651720144
97,6,21,Ticks_Linear_5,101,5,42,127,652299632
97,6,21,Ticks_Linear_5,102,1,48,21,652305520
97,6,21,Ticks_Linear_5,103,1,48,23,652877456
97,6,21,Ticks_Linear_5,104,5,42,127,652880352
97,6,21,Ticks_Linear_5,105,1,48,21,653445308
97,6,21,Ticks_Linear_5,106,5,42,127,653459952
97,6,21,Ticks_Linear_5,107,5,42,127,654040488
97,6,21,Ticks_Linear_5,108,1,48,25,654043532
97,6,21,Ticks_Linear_5,109,1,48,22,654616676
97,6,21,Ticks_Linear_5,110,5,42,127,654639412
97,6,21,Ticks_Linear_5,111,1,48,20,655203768
97,6,21,Ticks_Linear_5,112,5,42,127,655230468
97,6,21,Ticks_Linear_5,113,1,48,20,655811908
97,6,21,Ticks_Linear_5,114,5,42,127,655820332
97,6,21,Ticks_Linear_5,115,5,42,127,656410080
97,6,21,Ticks_Linear_5,116,1,48,24,656412752
97,6,21,Ticks_Linear_5,117,5,42,127,657000092
97,6,21,Ticks_Linear_5,118,1,48,26,657034812
97,6,21,Ticks_Linear_5,119,5,42,127,657599992
97,6,21,Ticks_Linear_5,120,1,48,26,657615460
97,6,21,Ticks_Linear_5,121,1,48,21,658182116
97,6,21,Ticks_Linear_5,122,5,42,127,658200204
97,6,21,Ticks_Linear_5,123,1,48,22,658751764
97,6,21,Ticks_Linear_5,124,5,42,127,658800104
97,6,21,Ticks_Linear_5,125,1,48,19,659341028
97,6,21,Ticks_Linear_5,126,5,42,127,659400156
97,6,21,Ticks_Linear_5,127,1,48,20,659951812
97,6,21,Ticks_Linear_5,128,5,42,127,660000076
97,6,21,Ticks_Linear_5,129,1,48,20,660546528
97,6,21,Ticks_Linear_5,130,5,42,127,660610312
97,6,21,Ticks_Linear_5,131,1,48,20,661213412
97,6,21,Ticks_Linear_5,132,5,42,127,661230080
97,6,21,Ticks_Linear_5,133,5,42,127,661840244
97,6,21,Ticks_Linear_5,134,1,48,25,661859768
97,6,21,Ticks_Linear_5,135,5,42,127,662449508
97,6,21,Ticks_Linear_5,136,1,48,23,662489276
97,6,21,Ticks_Linear_5,137,1,48,21,663031184
97,6,21,Ticks_Linear_5,138,5,42,127,663059980
97,6,21,Ticks_Linear_5,139,1,48,19,663602920
97,6,21,Ticks_Linear_5,140,5,42,127,663680324
97,6,21,Ticks_Linear_5,141,1,48,25,664285220
97,6,21,Ticks_Linear_5,142,5,42,127,664299868
97,6,21,Ticks_Linear_5,143,1,48,23,664889396
97,6,21,Ticks_Linear_5,144,5,42,127,664920508
97,6,21,Ticks_Linear_5,145,1,48,21,665505604
97,6,21,Ticks_Linear_5,146,5,42,127,665550136
97,6,21,Ticks_Linear_5,147,1,48,24,666118796
97,6,21,Ticks_Linear_5,148,5,42,127,666169832
97,6,21,Ticks_Linear_5,149,1,48,24,666772760
97,6,21,Ticks_Linear_5,150,5,42,127,666799612
97,6,21,Ticks_Linear_5,151,1,48,22,667395068
97,6,21,Ticks_Linear_5,152,5,42,127,667430236
97,6,21,Ticks_Linear_5,153,1,48,28,668027688
97,6,21,Ticks_Linear_5,154,5,42,127,668060164
97,6,21,Ticks_Linear_5,155,1,48,24,668689000
97,6,21,Ticks_Linear_5,156,5,42,127,668690644
97,6,21,Ticks_Linear_5,157,1,48,25,669310424
97,6,21,Ticks_Linear_5,158,5,42,127,669319528
97,6,21,Ticks_Linear_5,159,1,48,22,669943896
97,6,21,Ticks_Linear_5,160,5,42,127,669959516
97,6,21,Ticks_Linear_5,161,1,48,19,670565204
97,6,21,Ticks_Linear_5,162,5,42,127,670599404
97,6,21,Ticks_Linear_5,163,1,48,18,671233728
97,6,21,Ticks_Linear_5,164,5,42,127,671239540
97,6,21,Ticks_Linear_5,165,5,42,127,671879436
97,6,21,Ticks_Linear_5,166,5,42,127,672519524
97,6,21,Ticks_Linear_5,167,1,48,23,672809340
97,6,21,Ticks_Linear_5,168,5,42,127,673169744
97,6,21,Ticks_Linear_5,169,1,48,23,673260808
97,6,21,Ticks_Linear_5,170,1,48,24,673815968
97,6,21,Ticks_Linear_5,171,5,42,127,673820060
97,6,21,Ticks_Linear_5,172,1,48,24,674416768
97,6,21,Ticks_Linear_5,173,5,42,127,674470136
97,6,21,Ticks_Linear_5,174,1,48,24,675048300
97,6,21,Ticks_Linear_5,175,5,42,127,675119408
97,6,21,Ticks_Linear_5,176,1,48,26,675702712
97,6,21,Ticks_Linear_5,177,5,42,127,675769932
97,6,21,Ticks_Linear_5,178,1,48,24,676381692
97,6,21,Ticks_Linear_5,179,5,42,127,676430264
97,6,21,Ticks_Linear_5,180,1,48,24,677034312
97,6,21,Ticks_Linear_5,181,5,42,127,677089872
97,6,21,Ticks_Linear_5,182,1,48,23,677691604
97,6,21,Ticks_Linear_5,183,5,42,127,677750132
97,6,21,Ticks_Linear_5,184,1,48,24,678362296
97,6,21,Ticks_Linear_5,185,5,42,127,678409812
97,6,21,Ticks_Linear_5,186,5,42,127,679070004
97,6,21,Ticks_Linear_5,187,1,48,25,679084504
97,6,21,Ticks_Linear_5,188,1,48,24,679691748
97,6,21,Ticks_Linear_5,189,5,42,127,679739792
97,6,21,Ticks_Linear_5,190,1,48,28,680363012
97,6,21,Ticks_Linear_5,191,5,42,127,680409732
97,6,21,Ticks_Linear_5,192,1,48,24,681026060
97,6,21,Ticks_Linear_5,193,5,42,127,681080328
97,6,21,Ticks_Linear_5,194,5,42,127,681749828
97,6,21,Ticks_Linear_5,195,1,48,21,681755264
97,6,21,Ticks_Linear_5,196,1,48,23,682383600
97,6,21,Ticks_Linear_5,197,5,42,127,682419812
97,6,21,Ticks_Linear_5,198,1,48,24,683047176
97,6,21,Ticks_Linear_5,199,5,42,127,683099716
97,6,21,Ticks_Linear_5,200,1,48,23,683779404
97,6,21,Ticks_Linear_5,201,5,42,127,683780668
97,6,21,Ticks_Linear_5,202,1,48,25,684450924
97,6,21,Ticks_Linear_5,203,5,42,127,684460472
97,6,21,Ticks_Linear_5,204,5,42,127,685140308
97,6,21,Ticks_Linear_5,205,1,48,15,685155336
97,6,21,Ticks_Linear_5,206,5,42,127,685820364
97,6,21,Ticks_Linear_5,207,1,48,16,685823628
97,6,21,Ticks_Linear_5,208,1,48,18,686470988
97,6,21,Ticks_Linear_5,209,5,42,127,686509448
97,6,21,Ticks_Linear_5,210,1,48,16,687155152
97,6,21,Ticks_Linear_5,211,5,42,127,687199684
97,6,21,Ticks_Linear_5,212,1,48,14,687833560
97,6,21,Ticks_Linear_5,213,5,42,127,687889696
97,6,21,Ticks_Linear_5,214,1,48,17,688505792
97,6,21,Ticks_Linear_5,215,5,42,127,688579908
97,6,21,Ticks_Linear_5,216,1,48,15,689203976
97,6,21,Ticks_Linear_5,217,5,42,127,689270148
97,6,21,Ticks_Linear_5,218,1,48,16,689855320
97,6,21,Ticks_Linear_5,219,5,42,127,689969732
97,6,21,Ticks_Linear_5,220,1,48,21,690580764
97,6,21,Ticks_Linear_5,221,5,42,127,690669868
97,6,21,Ticks_Linear_5,222,1,48,21,691274140
97,6,21,Ticks_Linear_5,223,5,42,127,691370340
97,6,21,Ticks_Linear_5,224,1,48,22,691976584
97,6,21,Ticks_Linear_5,225,5,42,127,692069864
97,6,21,Ticks_Linear_5,226,1,48,24,692690992
97,6,21,Ticks_Linear_5,227,5,42,127,692770136
97,6,21,Ticks_Linear_5,228,1,48,23,693412824
97,6,21,Ticks_Linear_5,229,5,42,127,693479844
97,6,21,Ticks_Linear_5,230,1,48,27,694138640
97,6,21,Ticks_Linear_5,231,5,42,127,694189604
97,6,21,Ticks_Linear_5,232,1,48,26,694876872
97,6,21,Ticks_Linear_5,233,5,42,127,694899984
97,6,21,Ticks_Linear_5,234,1,48,20,695599844
97,6,21,Ticks_Linear_5,235,5,42,127,695609844
97,6,21,Ticks_Linear_5,236,1,48,21,696280720
97,6,21,Ticks_Linear_5,237,5,42,127,696320448
97,6,21,Ticks_Linear_5,238,1,48,21,697002608
97,6,21,Ticks_Linear_5,239,5,42,127,697040468
97,6,21,Ticks_Linear_5,240,1,48,17,697711648
97,6,21,Ticks_Linear_5,241,5,42,127,697760064
97,6,21,Ticks_Linear_5,242,1,48,14,698420236
97,6,21,Ticks_Linear_5,243,5,42,127,698479956
97,6,21,Ticks_Linear_5,244,1,48,19,699152852
97,6,21,Ticks_Linear_5,245,5,42,127,699199924
97,6,21,Ticks_Linear_5,246,1,48,16,699907428
97,6,21,Ticks_Linear_5,247,5,42,127,699919668
97,6,21,Ticks_Linear_5,248,1,48,21,700609320
97,6,21,Ticks_Linear_5,249,5,42,127,700649972
97,6,21,Ticks_Linear_5,250,1,48,17,701347400
97,6,21,Ticks_Linear_5,251,5,42,127,701380024
97,6,21,Ticks_Linear_5,252,1,48,14,702078688
97,6,21,Ticks_Linear_5,253,5,42,127,702110028
97,6,21,Ticks_Linear_5,254,1,48,13,702808096
97,6,21,Ticks_Linear_5,255,5,42,127,702840180
97,6,21,Ticks_Linear_5,256,1,48,15,703529408
97,6,21,Ticks_Linear_5,257,5,42,127,703570408
97,6,21,Ticks_Linear_5,258,1,48,15,704268920
97,6,21,Ticks_Linear_5,259,5,42,127,704309548
97,6,21,Ticks_Linear_5,260,1,48,20,704986560
97,6,21,Ticks_Linear_5,261,5,42,127,705049884
97,6,21,Ticks_Linear_5,262,1,48,20,705719544
97,6,21,Ticks_Linear_5,263,5,42,127,705790520
97,6,21,Ticks_Linear_5,264,1,48,24,706443324
97,6,21,Ticks_Linear_5,265,5,42,127,706529512
97,6,21,Ticks_Linear_5,266,1,48,28,707223724
97,6,21,Ticks_Linear_5,267,5,42,127,707270196
97,6,21,Ticks_Linear_5,268,1,48,21,708005244
97,6,21,Ticks_Linear_5,269,5,42,127,708019520
97,6,21,Ticks_Linear_5,270,1,48,21,708745584
97,6,21,Ticks_Linear_5,271,5,42,127,708770340
97,6,21,Ticks_Linear_5,272,1,48,23,709496932
97,6,21,Ticks_Linear_5,273,5,42,127,709519668
97,6,21,Ticks_Linear_5,274,5,42,127,710270496
97,6,21,Ticks_Linear_5,275,1,48,21,710280360
97,6,21,Ticks_Linear_5,276,1,48,18,711002176
97,6,21,Ticks_Linear_5,277,5,42,127,711019888
97,6,21,Ticks_Linear_5,278,1,48,19,711732776
97,6,21,Ticks_Linear_5,279,5,42,127,711779844
97,6,21,Ticks_Linear_5,280,1,48,17,712493404
97,6,21,Ticks_Linear_5,281,5,42,127,712539504
97,6,21,Ticks_Linear_5,282,1,48,16,713264224
97,6,21,Ticks_Linear_5,283,5,42,127,713300508
97,6,21,Ticks_Linear_5,284,1,48,19,713992124
97,6,21,Ticks_Linear_5,285,5,42,127,714060316
97,6,21,Ticks_Linear_5,286,1,48,16,714762720
97,6,21,Ticks_Linear_5,287,5,42,127,714819828
97,6,21,Ticks_Linear_5,288,1,48,16,715516604
97,6,21,Ticks_Linear_5,289,5,42,127,715589896
97,6,21,Ticks_Linear_5,290,1,48,20,716282488
97,6,21,Ticks_Linear_5,291,5,42,127,716360264
97,6,21,Ticks_Linear_5,292,1,48,27,717046408
97,6,21,Ticks_Linear_5,293,5,42,127,717130180
97,6,21,Ticks_Linear_5,294,1,48,21,717833484
97,6,21,Ticks_Linear_5,295,5,42,127,717900248
97,6,21,Ticks_Linear_5,296,1,48,22,718609772
97,6,21,Ticks_Linear_5,297,5,42,127,718670244
97,6,21,Ticks_Linear_5,298,1,48,20,719401404
97,6,21,Ticks_Linear_5,299,5,42,127,719449448
97,6,21,Ticks_Linear_5,300,1,48,20,720202776
97,6,21,Ticks_Linear_5,301,5,42,127,720229700
97,6,21,Ticks_Linear_5,302,1,48,15,720991112
97,6,21,Ticks_Linear_5,303,5,42,127,721010324
97,6,21,Ticks_Linear_5,304,1,48,19,721764772
97,6,21,Ticks_Linear_5,305,5,42,127,721790280
97,6,21,Ticks_Linear_5,306,1,48,20,722503092
97,6,21,Ticks_Linear_5,307,5,42,127,722569636
97,6,21,Ticks_Linear_5,308,1,48,20,723300648
97,6,21,Ticks_Linear_5,309,5,42,127,723360072
97,6,21,Ticks_Linear_5,310,1,48,21,724097532
97,6,21,Ticks_Linear_5,311,5,42,127,724149612
97,6,21,Ticks_Linear_5,312,1,48,21,724936476
97,6,21,Ticks_Linear_5,313,5,42,127,724940568
97,6,21,Ticks_Linear_5,314,1,48,24,725707000
97,6,21,Ticks_Linear_5,315,5,42,127,725729612
97,6,21,Ticks_Linear_5,316,1,48,19,726512892
97,6,21,Ticks_Linear_5,317,5,42,127,726520124
97,6,21,Ticks_Linear_5,318,5,42,127,727320224
97,6,21,Ticks_Linear_5,319,1,48,19,727325740
97,6,21,Ticks_Linear_5,320,5,42,127,728119652
97,6,21,Ticks_Linear_5,321,1,48,17,728126132
97,6,21,Ticks_Linear_5,322,5,42,127,728920420
97,6,21,Ticks_Linear_5,323,1,48,24,728928268
97,6,21,Ticks_Linear_5,324,1,48,18,729729648
97,6,21,Ticks_Linear_5,325,5,42,127,729731220
97,6,21,Ticks_Linear_5,326,5,42,127,730540460
97,6,21,Ticks_Linear_5,327,1,48,16,730552868
97,6,21,Ticks_Linear_5,328,5,42,127,731350324
97,6,21,Ticks_Linear_5,329,1,48,13,731353064
97,6,21,Ticks_Linear_5,330,1,48,17,732092760
97,6,21,Ticks_Linear_5,331,5,42,127,732160376
97,6,21,Ticks_Linear_5,332,1,48,19,732892360
97,6,21,Ticks_Linear_5,333,5,42,127,732970280
97,6,21,Ticks_Linear_5,334,1,48,19,733702640
97,6,21,Ticks_Linear_5,335,5,42,127,733780264
97,6,21,Ticks_Linear_5,336,1,48,18,734521980
97,6,21,Ticks_Linear_5,337,5,42,127,734590324
97,6,21,Ticks_Linear_5,0,9999,9999,9999,625347700
97,6,21,Ticks_Linear_5,1,9999,9999,9999,625827944
97,6,21,Ticks_Linear_5,2,9999,9999,9999,626307124
97,6,21,Ticks_Linear_5,3,9999,9999,9999,626787428
97,6,21,Ticks_Linear_5,4,9999,9999,9999,627267660
97,6,21,Ticks_Linear_5,5,9999,9999,9999,627757172
97,6,21,Ticks_Linear_5,6,9999,9999,9999,628247660
97,6,21,Ticks_Linear_5,7,9999,9999,9999,628737100
97,6,21,Ticks_Linear_5,8,9999,9999,9999,629227588
97,6,21,Ticks_Linear_5,9,9999,9999,9999,629718124
97,6,21,Ticks_Linear_5,10,9999,9999,9999,630228080
97,6,21,Ticks_Linear_5,11,9999,9999,9999,630727780
97,6,21,Ticks_Linear_5,12,9999,9999,9999,631227480
97,6,21,Ticks_Linear_5,13,9999,9999,9999,631727180
97,6,21,Ticks_Linear_5,14,9999,9999,9999,632227928
97,6,21,Ticks_Linear_5,15,9999,9999,9999,632737884
97,6,21,Ticks_Linear_5,16,9999,9999,9999,633247844
97,6,21,Ticks_Linear_5,17,9999,9999,9999,633757804
97,6,21,Ticks_Linear_5,18,9999,9999,9999,634267764
97,6,21,Ticks_Linear_5,19,9999,9999,9999,634777724
97,6,21,Ticks_Linear_5,20,9999,9999,9999,635297868
97,6,21,Ticks_Linear_5,21,9999,9999,9999,635818084
97,6,21,Ticks_Linear_5,22,9999,9999,9999,636337256
97,6,21,Ticks_Linear_5,23,9999,9999,9999,636857400
97,6,21,Ticks_Linear_5,24,9999,9999,9999,637377616
97,6,21,Ticks_Linear_5,25,9999,9999,9999,637908096
97,6,21,Ticks_Linear_5,26,9999,9999,9999,638437476
97,6,21,Ticks_Linear_5,27,9999,9999,9999,638967876
97,6,21,Ticks_Linear_5,28,9999,9999,9999,639497308
97,6,21,Ticks_Linear_5,29,9999,9999,9999,640027708
97,6,21,Ticks_Linear_5,30,9999,9999,9999,640567400
97,6,21,Ticks_Linear_5,31,9999,9999,9999,641108068
97,6,21,Ticks_Linear_5,32,9999,9999,9999,641647684
97,6,21,Ticks_Linear_5,33,9999,9999,9999,642187372
97,6,21,Ticks_Linear_5,34,9999,9999,9999,642728028
97,6,21,Ticks_Linear_5,35,9999,9999,9999,643277904
97,6,21,Ticks_Linear_5,36,9999,9999,9999,643827808
97,6,21,Ticks_Linear_5,37,9999,9999,9999,644377676
97,6,21,Ticks_Linear_5,38,9999,9999,9999,644927552
97,6,21,Ticks_Linear_5,39,9999,9999,9999,645477500
97,6,21,Ticks_Linear_5,40,9999,9999,9999,646037556
97,6,21,Ticks_Linear_5,41,9999,9999,9999,646597692
97,6,21,Ticks_Linear_5,42,9999,9999,9999,647157856
97,6,21,Ticks_Linear_5,43,9999,9999,9999,647717948
97,6,21,Ticks_Linear_5,44,9999,9999,9999,648278124
97,6,21,Ticks_Linear_5,45,9999,9999,9999,648857720
97,6,21,Ticks_Linear_5,46,9999,9999,9999,649428036
97,6,21,Ticks_Linear_5,47,9999,9999,9999,649997384
97,6,21,Ticks_Linear_5,48,9999,9999,9999,650567776
97,6,21,Ticks_Linear_5,49,9999,9999,9999,651137120
97,6,21,Ticks_Linear_5,50,9999,9999,9999,651717696
97,6,21,Ticks_Linear_5,51,9999,9999,9999,652297332
97,6,21,Ticks_Linear_5,52,9999,9999,9999,652877904
97,6,21,Ticks_Linear_5,53,9999,9999,9999,653457508
97,6,21,Ticks_Linear_5,54,9999,9999,9999,654038096
97,6,21,Ticks_Linear_5,55,9999,9999,9999,654637112
97,6,21,Ticks_Linear_5,56,9999,9999,9999,655228024
97,6,21,Ticks_Linear_5,57,9999,9999,9999,655817812
97,6,21,Ticks_Linear_5,58,9999,9999,9999,656407632
97,6,21,Ticks_Linear_5,59,9999,9999,9999,656997496
97,6,21,Ticks_Linear_5,60,9999,9999,9999,657597544
97,6,21,Ticks_Linear_5,61,9999,9999,9999,658197612
97,6,21,Ticks_Linear_5,62,9999,9999,9999,658797660
97,6,21,Ticks_Linear_5,63,9999,9999,9999,659397708
97,6,21,Ticks_Linear_5,64,9999,9999,9999,659997780
97,6,21,Ticks_Linear_5,65,9999,9999,9999,660608088
97,6,21,Ticks_Linear_5,66,9999,9999,9999,661227632
97,6,21,Ticks_Linear_5,67,9999,9999,9999,661837948
97,6,21,Ticks_Linear_5,68,9999,9999,9999,662447208
97,6,21,Ticks_Linear_5,69,9999,9999,9999,663057532
97,6,21,Ticks_Linear_5,70,9999,9999,9999,663678024
97,6,21,Ticks_Linear_5,71,9999,9999,9999,664297572
97,6,21,Ticks_Linear_5,72,9999,9999,9999,664918136
97,6,21,Ticks_Linear_5,73,9999,9999,9999,665547840
97,6,21,Ticks_Linear_5,74,9999,9999,9999,666167384
97,6,21,Ticks_Linear_5,75,9999,9999,9999,666797164
97,6,21,Ticks_Linear_5,76,9999,9999,9999,667427940
97,6,21,Ticks_Linear_5,77,9999,9999,9999,668057720
97,6,21,Ticks_Linear_5,78,9999,9999,9999,668687456
97,6,21,Ticks_Linear_5,79,9999,9999,9999,669317228
97,6,21,Ticks_Linear_5,80,9999,9999,9999,669957216
97,6,21,Ticks_Linear_5,81,9999,9999,9999,670597180
97,6,21,Ticks_Linear_5,82,9999,9999,9999,671237244
97,6,21,Ticks_Linear_5,83,9999,9999,9999,671877212
97,6,21,Ticks_Linear_5,84,9999,9999,9999,672517224
97,6,21,Ticks_Linear_5,85,9999,9999,9999,673167448
97,6,21,Ticks_Linear_5,86,9999,9999,9999,673817688
97,6,21,Ticks_Linear_5,87,9999,9999,9999,674467912
97,6,21,Ticks_Linear_5,88,9999,9999,9999,675117112
97,6,21,Ticks_Linear_5,89,9999,9999,9999,675767408
97,6,21,Ticks_Linear_5,90,9999,9999,9999,676427892
97,6,21,Ticks_Linear_5,91,9999,9999,9999,677087352
97,6,21,Ticks_Linear_5,92,9999,9999,9999,677747832
97,6,21,Ticks_Linear_5,93,9999,9999,9999,678407292
97,6,21,Ticks_Linear_5,94,9999,9999,9999,679067704
97,6,21,Ticks_Linear_5,95,9999,9999,9999,679737416
97,6,21,Ticks_Linear_5,96,9999,9999,9999,680407136
97,6,21,Ticks_Linear_5,97,9999,9999,9999,681077880
97,6,21,Ticks_Linear_5,98,9999,9999,9999,681747528
97,6,21,Ticks_Linear_5,99,9999,9999,9999,682417216
97,6,21,Ticks_Linear_5,100,9999,9999,9999,683097196
97,6,21,Ticks_Linear_5,101,9999,9999,9999,683777104
97,6,21,Ticks_Linear_5,102,9999,9999,9999,684458100
97,6,21,Ticks_Linear_5,103,9999,9999,9999,685138012
97,6,21,Ticks_Linear_5,104,9999,9999,9999,685817916
97,6,21,Ticks_Linear_5,105,9999,9999,9999,686507072
97,6,21,Ticks_Linear_5,106,9999,9999,9999,687197312
97,6,21,Ticks_Linear_5,107,9999,9999,9999,687887472
97,6,21,Ticks_Linear_5,108,9999,9999,9999,688577612
97,6,21,Ticks_Linear_5,109,9999,9999,9999,689267776
97,6,21,Ticks_Linear_5,110,9999,9999,9999,689967208
97,6,21,Ticks_Linear_5,111,9999,9999,9999,690667648
97,6,21,Ticks_Linear_5,112,9999,9999,9999,691368044
97,6,21,Ticks_Linear_5,113,9999,9999,9999,692067416
97,6,21,Ticks_Linear_5,114,9999,9999,9999,692767836
97,6,21,Ticks_Linear_5,115,9999,9999,9999,693477472
97,6,21,Ticks_Linear_5,116,9999,9999,9999,694187080
97,6,21,Ticks_Linear_5,117,9999,9999,9999,694897760
97,6,21,Ticks_Linear_5,118,9999,9999,9999,695607396
97,6,21,Ticks_Linear_5,119,9999,9999,9999,696318076
97,6,21,Ticks_Linear_5,120,9999,9999,9999,697037944
97,6,21,Ticks_Linear_5,121,9999,9999,9999,697757764
97,6,21,Ticks_Linear_5,122,9999,9999,9999,698477660
97,6,21,Ticks_Linear_5,123,9999,9999,9999,699197552
97,6,21,Ticks_Linear_5,124,9999,9999,9999,699917372
97,6,21,Ticks_Linear_5,125,9999,9999,9999,700647524
97,6,21,Ticks_Linear_5,126,9999,9999,9999,701377652
97,6,21,Ticks_Linear_5,127,9999,9999,9999,702107728
97,6,21,Ticks_Linear_5,128,9999,9999,9999,702837880
97,6,21,Ticks_Linear_5,129,9999,9999,9999,703567960
97,6,21,Ticks_Linear_5,130,9999,9999,9999,704307324
97,6,21,Ticks_Linear_5,131,9999,9999,9999,705047660
97,6,21,Ticks_Linear_5,132,9999,9999,9999,705787996
97,6,21,Ticks_Linear_5,133,9999,9999,9999,706527288
97,6,21,Ticks_Linear_5,134,9999,9999,9999,707267672
97,6,21,Ticks_Linear_5,135,9999,9999,9999,708017224
97,6,21,Ticks_Linear_5,136,9999,9999,9999,708767820
97,6,21,Ticks_Linear_5,137,9999,9999,9999,709517368
97,6,21,Ticks_Linear_5,138,9999,9999,9999,710267972
97,6,21,Ticks_Linear_5,139,9999,9999,9999,711017588
97,6,21,Ticks_Linear_5,140,9999,9999,9999,711777400
97,6,21,Ticks_Linear_5,141,9999,9999,9999,712537208
97,6,21,Ticks_Linear_5,142,9999,9999,9999,713297988
97,6,21,Ticks_Linear_5,143,9999,9999,9999,714057796
97,6,21,Ticks_Linear_5,144,9999,9999,9999,714817604
97,6,21,Ticks_Linear_5,145,9999,9999,9999,715587672
97,6,21,Ticks_Linear_5,146,9999,9999,9999,716357740
97,6,21,Ticks_Linear_5,147,9999,9999,9999,717127736
97,6,21,Ticks_Linear_5,148,9999,9999,9999,717897804
97,6,21,Ticks_Linear_5,149,9999,9999,9999,718667872
97,6,21,Ticks_Linear_5,150,9999,9999,9999,719447148
97,6,21,Ticks_Linear_5,151,9999,9999,9999,720227404
97,6,21,Ticks_Linear_5,152,9999,9999,9999,721007728
97,6,21,Ticks_Linear_5,153,9999,9999,9999,721787980
97,6,21,Ticks_Linear_5,154,9999,9999,9999,722567260
97,6,21,Ticks_Linear_5,155,9999,9999,9999,723357772
97,6,21,Ticks_Linear_5,156,9999,9999,9999,724147312
97,6,21,Ticks_Linear_5,157,9999,9999,9999,724937824
97,6,21,Ticks_Linear_5,158,9999,9999,9999,725727316
97,6,21,Ticks_Linear_5,159,9999,9999,9999,726517824
97,6,21,Ticks_Linear_5,160,9999,9999,9999,727317628
97,6,21,Ticks_Linear_5,161,9999,9999,9999,728117356
97,6,21,Ticks_Linear_5,162,9999,9999,9999,728918124
97,6,21,Ticks_Linear_5,163,9999,9999,9999,729728104
97,6,21,Ticks_Linear_5,164,9999,9999,9999,730538088
97,6,21,Ticks_Linear_5,165,9999,9999,9999,731348024
97,6,21,Ticks_Linear_5,166,9999,9999,9999,732158076
97,6,21,Ticks_Linear_5,167,9999,9999,9999,732968056
97,6,21,Ticks_Linear_5,168,9999,9999,9999,733778040
97,6,21,Ticks_Linear_5,169,9999,9999,9999,734588024
97,7,9,Ticks_ISO_T2_8,0,5,42,127,745176360
97,7,9,Ticks_ISO_T2_8,1,5,42,127,745977160
97,7,9,Ticks_ISO_T2_8,2,1,48,29,746626212
97,7,9,Ticks_ISO_T2_8,3,5,42,127,746776968
97,7,9,Ticks_ISO_T2_8,4,1,48,28,747521556
97,7,9,Ticks_ISO_T2_8,5,5,42,127,747576644
97,7,9,Ticks_ISO_T2_8,6,1,48,26,748318900
97,7,9,Ticks_ISO_T2_8,7,5,42,127,748376376
97,7,9,Ticks_ISO_T2_8,8,1,48,22,749172336
97,7,9,Ticks_ISO_T2_8,9,5,42,127,749177156
97,7,9,Ticks_ISO_T2_8,10,5,42,127,749976968
97,7,9,Ticks_ISO_T2_8,11,1,48,22,749995200
97,7,9,Ticks_ISO_T2_8,12,1,48,25,750730292
97,7,9,Ticks_ISO_T2_8,13,5,42,127,750776844
97,7,9,Ticks_ISO_T2_8,14,1,48,28,751534136
97,7,9,Ticks_ISO_T2_8,15,5,42,127,751576380
97,7,9,Ticks_ISO_T2_8,16,1,48,21,752360524
97,7,9,Ticks_ISO_T2_8,17,5,42,127,752377232
97,7,9,Ticks_ISO_T2_8,18,5,42,127,753176824
97,7,9,Ticks_ISO_T2_8,19,1,48,22,753186148
97,7,9,Ticks_ISO_T2_8,20,1,48,24,753907780
97,7,9,Ticks_ISO_T2_8,21,5,42,127,753976848
97,7,9,Ticks_ISO_T2_8,22,1,48,22,754716788
97,7,9,Ticks_ISO_T2_8,23,5,42,127,754776284
97,7,9,Ticks_ISO_T2_8,24,1,48,27,755536784
97,7,9,Ticks_ISO_T2_8,25,5,42,127,755577140
97,7,9,Ticks_ISO_T2_8,26,1,48,20,756364872
97,7,9,Ticks_ISO_T2_8,27,5,42,127,756376800
97,7,9,Ticks_ISO_T2_8,28,1,48,21,757158548
97,7,9,Ticks_ISO_T2_8,29,5,42,127,757176832
97,7,9,Ticks_ISO_T2_8,30,1,48,19,757971620
97,7,9,Ticks_ISO_T2_8,31,5,42,127,757976664
97,7,9,Ticks_ISO_T2_8,32,1,48,23,758767312
97,7,9,Ticks_ISO_T2_8,33,5,42,127,758777220
97,7,9,Ticks_ISO_T2_8,34,1,48,22,759538248
97,7,9,Ticks_ISO_T2_8,35,5,42,127,759576808
97,7,9,Ticks_ISO_T2_8,36,1,48,23,760357804
97,7,9,Ticks_ISO_T2_8,37,5,42,127,760376688
97,7,9,Ticks_ISO_T2_8,38,1,48,24,761171820
97,7,9,Ticks_ISO_T2_8,39,5,42,127,761176720
97,7,9,Ticks_ISO_T2_8,40,5,42,127,761977208
97,7,9,Ticks_ISO_T2_8,41,1,48,20,762005756
97,7,9,Ticks_ISO_T2_8,42,1,48,20,762766124
97,7,9,Ticks_ISO_T2_8,43,5,42,127,762776860
97,7,9,Ticks_ISO_T2_8,44,1,48,20,763545512
97,7,9,Ticks_ISO_T2_8,45,5,42,127,763576592
97,7,9,Ticks_ISO_T2_8,46,5,42,127,764376360
97,7,9,Ticks_ISO_T2_8,47,1,48,22,764407300
97,7,9,Ticks_ISO_T2_8,48,1,48,22,765173656
97,7,9,Ticks_ISO_T2_8,49,5,42,127,765177280
97,7,9,Ticks_ISO_T2_8,50,1,48,28,765967708
97,7,9,Ticks_ISO_T2_8,51,5,42,127,765976864
97,7,9,Ticks_ISO_T2_8,52,5,42,127,766776680
97,7,9,Ticks_ISO_T2_8,53,1,48,21,766799472
97,7,9,Ticks_ISO_T2_8,54,5,42,127,767576564
97,7,9,Ticks_ISO_T2_8,55,1,48,21,767612148
97,7,9,Ticks_ISO_T2_8,56,1,48,22,768374680
97,7,9,Ticks_ISO_T2_8,57,5,42,127,768377260
97,7,9,Ticks_ISO_T2_8,58,1,48,25,769141136
97,7,9,Ticks_ISO_T2_8,59,5,42,127,769176996
97,7,9,Ticks_ISO_T2_8,60,1,48,21,769965700
97,7,9,Ticks_ISO_T2_8,61,5,42,127,769976656
97,7,9,Ticks_ISO_T2_8,62,1,48,19,770764836
97,7,9,Ticks_ISO_T2_8,63,5,42,127,770776564
97,7,9,Ticks_ISO_T2_8,64,1,48,20,771540656
97,7,9,Ticks_ISO_T2_8,65,5,42,127,771577120
97,7,9,Ticks_ISO_T2_8,66,1,48,21,772368068
97,7,9,Ticks_ISO_T2_8,67,5,42,127,772377000
97,7,9,Ticks_ISO_T2_8,68,5,42,127,773176592
97,7,9,Ticks_ISO_T2_8,69,1,48,17,773186592
97,7,9,Ticks_ISO_T2_8,70,1,48,21,773968208
97,7,9,Ticks_ISO_T2_8,71,5,42,127,773976544
97,7,9,Ticks_ISO_T2_8,72,1,48,21,774776048
97,7,9,Ticks_ISO_T2_8,73,5,42,127,774777696
97,7,9,Ticks_ISO_T2_8,74,1,48,25,775566480
97,7,9,Ticks_ISO_T2_8,75,5,42,127,775576832
97,7,9,Ticks_ISO_T2_8,76,5,42,127,776376648
97,7,9,Ticks_ISO_T2_8,77,1,48,26,776380364
97,7,9,Ticks_ISO_T2_8,78,5,42,127,777176408
97,7,9,Ticks_ISO_T2_8,79,1,48,24,777212436
97,7,9,Ticks_ISO_T2_8,80,5,42,127,777977412
97,7,9,Ticks_ISO_T2_8,81,1,48,24,778007608
97,7,9,Ticks_ISO_T2_8,82,5,42,127,778776848
97,7,9,Ticks_ISO_T2_8,83,1,48,26,778785272
97,7,9,Ticks_ISO_T2_8,84,1,48,29,779567712
97,7,9,Ticks_ISO_T2_8,85,5,42,127,779576648
97,7,9,Ticks_ISO_T2_8,86,5,42,127,780376316
97,7,9,Ticks_ISO_T2_8,87,1,48,29,780381452
97,7,9,Ticks_ISO_T2_8,88,5,42,127,781177468
97,7,9,Ticks_ISO_T2_8,89,1,48,24,781218288
97,7,9,Ticks_ISO_T2_8,90,1,48,27,781974164
97,7,9,Ticks_ISO_T2_8,91,5,42,127,781976896
97,7,9,Ticks_ISO_T2_8,92,1,48,28,782760736
97,7,9,Ticks_ISO_T2_8,93,5,42,127,782776628
97,7,9,Ticks_ISO_T2_8,94,5,42,127,783576544
97,7,9,Ticks_ISO_T2_8,95,1,48,24,783580264
97,7,9,Ticks_ISO_T2_8,96,1,48,23,784313904
97,7,9,Ticks_ISO_T2_8,97,5,42,127,784377316
97,7,9,Ticks_ISO_T2_8,98,1,48,21,785140892
97,7,9,Ticks_ISO_T2_8,99,5,42,127,785176824
97,7,9,Ticks_ISO_T2_8,100,1,48,24,785959840
97,7,9,Ticks_ISO_T2_8,101,5,42,127,785976560
97,7,9,Ticks_ISO_T2_8,102,1,48,27,786765036
97,7,9,Ticks_ISO_T2_8,103,5,42,127,786776516
97,7,9,Ticks_ISO_T2_8,104,1,48,24,787562224
97,7,9,Ticks_ISO_T2_8,105,5,42,127,787577296
97,7,9,Ticks_ISO_T2_8,106,1,48,21,788338624
97,7,9,Ticks_ISO_T2_8,107,5,42,127,788376880
97,7,9,Ticks_ISO_T2_8,108,1,48,25,789165288
97,7,9,Ticks_ISO_T2_8,109,5,42,127,789176688
97,7,9,Ticks_ISO_T2_8,110,1,48,26,789971328
97,7,9,Ticks_ISO_T2_8,111,5,42,127,789976448
97,7,9,Ticks_ISO_T2_8,112,1,48,20,790770912
97,7,9,Ticks_ISO_T2_8,113,5,42,127,790777304
97,7,9,Ticks_ISO_T2_8,114,1,48,21,791568028
97,7,9,Ticks_ISO_T2_8,115,5,42,127,791577112
97,7,9,Ticks_ISO_T2_8,116,5,42,127,792376628
97,7,9,Ticks_ISO_T2_8,117,1,48,20,792413176
97,7,9,Ticks_ISO_T2_8,118,5,42,127,793176360
97,7,9,Ticks_ISO_T2_8,119,1,48,19,793193540
97,7,9,Ticks_ISO_T2_8,120,1,48,24,793931172
97,7,9,Ticks_ISO_T2_8,121,5,42,127,793977132
97,7,9,Ticks_ISO_T2_8,122,1,48,21,794768228
97,7,9,Ticks_ISO_T2_8,123,5,42,127,794776792
97,7,9,Ticks_ISO_T2_8,124,1,48,20,795537820
97,7,9,Ticks_ISO_T2_8,125,5,42,127,795576748
97,7,9,Ticks_ISO_T2_8,126,1,48,19,796349220
97,7,9,Ticks_ISO_T2_8,127,5,42,127,796376432
97,7,9,Ticks_ISO_T2_8,128,5,42,127,797177144
97,7,9,Ticks_ISO_T2_8,129,1,48,17,797217288
97,7,9,Ticks_ISO_T2_8,130,5,42,127,797976952
97,7,9,Ticks_ISO_T2_8,131,1,48,20,798034448
97,7,9,Ticks_ISO_T2_8,132,1,48,24,798763928
97,7,9,Ticks_ISO_T2_8,133,5,42,127,798776752
97,7,9,Ticks_ISO_T2_8,134,1,48,21,799518560
97,7,9,Ticks_ISO_T2_8,135,5,42,127,799576340
97,7,9,Ticks_ISO_T2_8,136,1,48,21,800331680
97,7,9,Ticks_ISO_T2_8,137,5,42,127,800377340
97,7,9,Ticks_ISO_T2_8,138,5,42,127,801177084
97,7,9,Ticks_ISO_T2_8,139,1,48,16,801197260
97,7,9,Ticks_ISO_T2_8,140,1,48,21,801960320
97,7,9,Ticks_ISO_T2_8,141,5,42,127,801976660
97,7,9,Ticks_ISO_T2_8,142,1,48,24,802761176
97,7,9,Ticks_ISO_T2_8,143,5,42,127,802776344
97,7,9,Ticks_ISO_T2_8,144,1,48,27,803544552
97,7,9,Ticks_ISO_T2_8,145,5,42,127,803577272
97,7,9,Ticks_ISO_T2_8,146,1,48,22,804312720
97,7,9,Ticks_ISO_T2_8,147,5,42,127,804377228
97,7,9,Ticks_ISO_T2_8,148,1,48,19,805159132
97,7,9,Ticks_ISO_T2_8,149,5,42,127,805176816
97,7,9,Ticks_ISO_T2_8,150,1,48,16,805963052
97,7,9,Ticks_ISO_T2_8,151,5,42,127,805976476
97,7,9,Ticks_ISO_T2_8,152,1,48,16,806774004
97,7,9,Ticks_ISO_T2_8,153,5,42,127,806777476
97,7,9,Ticks_ISO_T2_8,154,5,42,127,807577220
97,7,9,Ticks_ISO_T2_8,155,1,48,21,807579588
97,7,9,Ticks_ISO_T2_8,156,5,42,127,808376656
97,7,9,Ticks_ISO_T2_8,157,1,48,14,808414876
97,7,9,Ticks_ISO_T2_8,158,1,48,23,809147100
97,7,9,Ticks_ISO_T2_8,159,5,42,127,809176480
97,7,9,Ticks_ISO_T2_8,160,5,42,127,809977120
97,7,9,Ticks_ISO_T2_8,161,1,48,24,809982256
97,7,9,Ticks_ISO_T2_8,162,5,42,127,810777152
97,7,9,Ticks_ISO_T2_8,163,1,48,21,810785060
97,7,9,Ticks_ISO_T2_8,164,1,48,20,811565772
97,7,9,Ticks_ISO_T2_8,165,5,42,127,811576580
97,7,9,Ticks_ISO_T2_8,166,5,42,127,812376396
97,7,9,Ticks_ISO_T2_8,167,1,48,24,812381156
97,7,9,Ticks_ISO_T2_8,168,5,42,127,813177100
97,7,9,Ticks_ISO_T2_8,169,1,48,25,813191812
97,7,9,Ticks_ISO_T2_8,170,1,48,19,813966996
97,7,9,Ticks_ISO_T2_8,171,5,42,127,813977124
97,7,9,Ticks_ISO_T2_8,172,1,48,23,814749376
97,7,9,Ticks_ISO_T2_8,173,5,42,127,814776636
97,7,9,Ticks_ISO_T2_8,174,1,48,16,815523156
97,7,9,Ticks_ISO_T2_8,175,5,42,127,815576472
97,7,9,Ticks_ISO_T2_8,176,1,48,18,816340268
97,7,9,Ticks_ISO_T2_8,177,5,42,127,816377176
97,7,9,Ticks_ISO_T2_8,178,5,42,127,817176916
97,7,9,Ticks_ISO_T2_8,179,1,48,27,817225508
97,7,9,Ticks_ISO_T2_8,180,5,42,127,817976648
97,7,9,Ticks_ISO_T2_8,181,1,48,19,818035340
97,7,9,Ticks_ISO_T2_8,182,5,42,127,818776380
97,7,9,Ticks_ISO_T2_8,183,1,48,18,818797076
97,7,9,Ticks_ISO_T2_8,184,5,42,127,819577140
97,7,9,Ticks_ISO_T2_8,185,1,48,19,819636728
97,7,9,Ticks_ISO_T2_8,186,5,42,127,820376872
97,7,9,Ticks_ISO_T2_8,187,1,48,18,820386948
97,7,9,Ticks_ISO_T2_8,188,1,48,17,821161604
97,7,9,Ticks_ISO_T2_8,189,5,42,127,821176820
97,7,9,Ticks_ISO_T2_8,190,1,48,19,821968244
97,7,9,Ticks_ISO_T2_8,191,5,42,127,821976284
97,7,9,Ticks_ISO_T2_8,192,5,42,127,822777144
97,7,9,Ticks_ISO_T2_8,193,1,48,23,822792828
97,7,9,Ticks_ISO_T2_8,194,5,42,127,823576876
97,7,9,Ticks_ISO_T2_8,195,1,48,16,823586956
97,7,9,Ticks_ISO_T2_8,196,1,48,25,824346728
97,7,9,Ticks_ISO_T2_8,197,5,42,127,824376752
97,7,9,Ticks_ISO_T2_8,198,1,48,20,825145932
97,7,9,Ticks_ISO_T2_8,199,5,42,127,825176560
97,7,9,Ticks_ISO_T2_8,200,1,48,19,825967808
97,7,9,Ticks_ISO_T2_8,201,5,42,127,825977264
97,7,9,Ticks_ISO_T2_8,202,5,42,127,826777004
97,7,9,Ticks_ISO_T2_8,203,1,48,22,826799204
97,7,9,Ticks_ISO_T2_8,204,5,42,127,827576740
97,7,9,Ticks_ISO_T2_8,205,1,48,19,827623640
97,7,9,Ticks_ISO_T2_8,206,1,48,29,828336492
97,7,9,Ticks_ISO_T2_8,207,5,42,127,828376492
97,7,9,Ticks_ISO_T2_8,208,1,48,21,829125828
97,7,9,Ticks_ISO_T2_8,209,5,42,127,829177124
97,7,9,Ticks_ISO_T2_8,210,1,48,25,829949744
97,7,9,Ticks_ISO_T2_8,211,5,42,127,829976928
97,7,9,Ticks_ISO_T2_8,212,1,48,25,830748504
97,7,9,Ticks_ISO_T2_8,213,5,42,127,830776812
97,7,9,Ticks_ISO_T2_8,214,1,48,20,831566412
97,7,9,Ticks_ISO_T2_8,215,5,42,127,831576544
97,7,9,Ticks_ISO_T2_8,216,5,42,127,832377108
97,7,9,Ticks_ISO_T2_8,217,1,48,21,832379048
97,7,9,Ticks_ISO_T2_8,218,1,48,18,833019424
97,7,9,Ticks_ISO_T2_8,219,5,42,127,833176896
97,7,9,Ticks_ISO_T2_8,220,1,48,22,833939360
97,7,9,Ticks_ISO_T2_8,221,5,42,127,833976868
97,7,9,Ticks_ISO_T2_8,222,1,48,28,834753376
97,7,9,Ticks_ISO_T2_8,223,5,42,127,834776552
97,7,9,Ticks_ISO_T2_8,224,1,48,21,835569820
97,7,9,Ticks_ISO_T2_8,225,5,42,127,835577184
97,7,9,Ticks_ISO_T2_8,226,5,42,127,836376996
97,7,9,Ticks_ISO_T2_8,227,1,48,23,836403528
97,7,9,Ticks_ISO_T2_8,228,1,48,21,837151788
97,7,9,Ticks_ISO_T2_8,229,5,42,127,837176800
97,7,9,Ticks_ISO_T2_8,230,1,48,19,837967372
97,7,9,Ticks_ISO_T2_8,231,5,42,127,837976532
97,7,9,Ticks_ISO_T2_8,232,5,42,127,838777320
97,7,9,Ticks_ISO_T2_8,233,1,48,17,838806464
97,7,9,Ticks_ISO_T2_8,234,1,48,15,839569156
97,7,9,Ticks_ISO_T2_8,235,5,42,127,839576896
97,7,9,Ticks_ISO_T2_8,236,1,48,13,840369936
97,7,9,Ticks_ISO_T2_8,237,5,42,127,840376776
97,7,9,Ticks_ISO_T2_8,238,1,48,19,841159876
97,7,9,Ticks_ISO_T2_8,0,9999,9999,9999,745174072
97,7,9,Ticks_ISO_T2_8,1,9999,9999,9999,745974872
97,7,9,Ticks_ISO_T2_8,2,9999,9999,9999,746774604
97,7,9,Ticks_ISO_T2_8,3,9999,9999,9999,747574352
97,7,9,Ticks_ISO_T2_8,4,9999,9999,9999,748374084
97,7,9,Ticks_ISO_T2_8,5,9999,9999,9999,749174868
97,7,9,Ticks_ISO_T2_8,6,9999,9999,9999,749974604
97,7,9,Ticks_ISO_T2_8,7,9999,9999,9999,750774332
97,7,9,Ticks_ISO_T2_8,8,9999,9999,9999,751574088
97,7,9,Ticks_ISO_T2_8,9,9999,9999,9999,752374868
97,7,9,Ticks_ISO_T2_8,10,9999,9999,9999,753174608
97,7,9,Ticks_ISO_T2_8,11,9999,9999,9999,753974336
97,7,9,Ticks_ISO_T2_8,12,9999,9999,9999,754774068
97,7,9,Ticks_ISO_T2_8,13,9999,9999,9999,755574848
97,7,9,Ticks_ISO_T2_8,14,9999,9999,9999,756374584
97,7,9,Ticks_ISO_T2_8,15,9999,9999,9999,757174320
97,7,9,Ticks_ISO_T2_8,16,9999,9999,9999,757974076
97,7,9,Ticks_ISO_T2_8,17,9999,9999,9999,758774856
97,7,9,Ticks_ISO_T2_8,18,9999,9999,9999,759574588
97,7,9,Ticks_ISO_T2_8,19,9999,9999,9999,760374324
97,7,9,Ticks_ISO_T2_8,20,9999,9999,9999,761174132
97,7,9,Ticks_ISO_T2_8,21,9999,9999,9999,761974840
97,7,9,Ticks_ISO_T2_8,22,9999,9999,9999,762774644
97,7,9,Ticks_ISO_T2_8,23,9999,9999,9999,763574376
97,7,9,Ticks_ISO_T2_8,24,9999,9999,9999,764374068
97,7,9,Ticks_ISO_T2_8,25,9999,9999,9999,765174844
97,7,9,Ticks_ISO_T2_8,26,9999,9999,9999,765974576
97,7,9,Ticks_ISO_T2_8,27,9999,9999,9999,766774388
97,7,9,Ticks_ISO_T2_8,28,9999,9999,9999,767574124
97,7,9,Ticks_ISO_T2_8,29,9999,9999,9999,768374896
97,7,9,Ticks_ISO_T2_8,30,9999,9999,9999,769174632
97,7,9,Ticks_ISO_T2_8,31,9999,9999,9999,769974364
97,7,9,Ticks_ISO_T2_8,32,9999,9999,9999,770774124
97,7,9,Ticks_ISO_T2_8,33,9999,9999,9999,771574904
97,7,9,Ticks_ISO_T2_8,34,9999,9999,9999,772374636
97,7,9,Ticks_ISO_T2_8,35,9999,9999,9999,773174376
97,7,9,Ticks_ISO_T2_8,36,9999,9999,9999,773974104
97,7,9,Ticks_ISO_T2_8,37,9999,9999,9999,774774888
97,7,9,Ticks_ISO_T2_8,38,9999,9999,9999,775574616
97,7,9,Ticks_ISO_T2_8,39,9999,9999,9999,776374360
97,7,9,Ticks_ISO_T2_8,40,9999,9999,9999,777174116
97,7,9,Ticks_ISO_T2_8,41,9999,9999,9999,777974896
97,7,9,Ticks_ISO_T2_8,42,9999,9999,9999,778774632
97,7,9,Ticks_ISO_T2_8,43,9999,9999,9999,779574356
97,7,9,Ticks_ISO_T2_8,44,9999,9999,9999,780374096
97,7,9,Ticks_ISO_T2_8,45,9999,9999,9999,781174880
97,7,9,Ticks_ISO_T2_8,46,9999,9999,9999,781974604
97,7,9,Ticks_ISO_T2_8,47,9999,9999,9999,782774340
97,7,9,Ticks_ISO_T2_8,48,9999,9999,9999,783574104
97,7,9,Ticks_ISO_T2_8,49,9999,9999,9999,784374876
97,7,9,Ticks_ISO_T2_8,50,9999,9999,9999,785174612
97,7,9,Ticks_ISO_T2_8,51,9999,9999,9999,785974344
97,7,9,Ticks_ISO_T2_8,52,9999,9999,9999,786774076
97,7,9,Ticks_ISO_T2_8,53,9999,9999,9999,787574856
97,7,9,Ticks_ISO_T2_8,54,9999,9999,9999,788374592
97,7,9,Ticks_ISO_T2_8,55,9999,9999,9999,789174324
97,7,9,Ticks_ISO_T2_8,56,9999,9999,9999,789974084
97,7,9,Ticks_ISO_T2_8,57,9999,9999,9999,790774864
97,7,9,Ticks_ISO_T2_8,58,9999,9999,9999,791574596
97,7,9,Ticks_ISO_T2_8,59,9999,9999,9999,792374336
97,7,9,Ticks_ISO_T2_8,60,9999,9999,9999,793174072
97,7,9,Ticks_ISO_T2_8,61,9999,9999,9999,793974844
97,7,9,Ticks_ISO_T2_8,62,9999,9999,9999,794774576
97,7,9,Ticks_ISO_T2_8,63,9999,9999,9999,795574384
97,7,9,Ticks_ISO_T2_8,64,9999,9999,9999,796374068
97,7,9,Ticks_ISO_T2_8,65,9999,9999,9999,797174856
97,7,9,Ticks_ISO_T2_8,66,9999,9999,9999,797974588
97,7,9,Ticks_ISO_T2_8,67,9999,9999,9999,798774388
97,7,9,Ticks_ISO_T2_8,68,9999,9999,9999,799574124
97,7,9,Ticks_ISO_T2_8,69,9999,9999,9999,800374904
97,7,9,Ticks_ISO_T2_8,70,9999,9999,9999,801174644
97,7,9,Ticks_ISO_T2_8,71,9999,9999,9999,801974368
97,7,9,Ticks_ISO_T2_8,72,9999,9999,9999,802774128
97,7,9,Ticks_ISO_T2_8,73,9999,9999,9999,803574832
97,7,9,Ticks_ISO_T2_8,74,9999,9999,9999,804374640
97,7,9,Ticks_ISO_T2_8,75,9999,9999,9999,805174376
97,7,9,Ticks_ISO_T2_8,76,9999,9999,9999,805974108
97,7,9,Ticks_ISO_T2_8,77,9999,9999,9999,806774888
97,7,9,Ticks_ISO_T2_8,78,9999,9999,9999,807574628
97,7,9,Ticks_ISO_T2_8,79,9999,9999,9999,808374364
97,7,9,Ticks_ISO_T2_8,80,9999,9999,9999,809174116
97,7,9,Ticks_ISO_T2_8,81,9999,9999,9999,809974904
97,7,9,Ticks_ISO_T2_8,82,9999,9999,9999,810774636
97,7,9,Ticks_ISO_T2_8,83,9999,9999,9999,811574364
97,7,9,Ticks_ISO_T2_8,84,9999,9999,9999,812374104
97,7,9,Ticks_ISO_T2_8,85,9999,9999,9999,813174884
97,7,9,Ticks_ISO_T2_8,86,9999,9999,9999,813974612
97,7,9,Ticks_ISO_T2_8,87,9999,9999,9999,814774344
97,7,9,Ticks_ISO_T2_8,88,9999,9999,9999,815574104
97,7,9,Ticks_ISO_T2_8,89,9999,9999,9999,816374884
97,7,9,Ticks_ISO_T2_8,90,9999,9999,9999,817174624
97,7,9,Ticks_ISO_T2_8,91,9999,9999,9999,817974356
97,7,9,Ticks_ISO_T2_8,92,9999,9999,9999,818774092
97,7,9,Ticks_ISO_T2_8,93,9999,9999,9999,819574848
97,7,9,Ticks_ISO_T2_8,94,9999,9999,9999,820374580
97,7,9,Ticks_ISO_T2_8,95,9999,9999,9999,821174384
97,7,9,Ticks_ISO_T2_8,96,9999,9999,9999,821974068
97,7,9,Ticks_ISO_T2_8,97,9999,9999,9999,822774852
97,7,9,Ticks_ISO_T2_8,98,9999,9999,9999,823574584
97,7,9,Ticks_ISO_T2_8,99,9999,9999,9999,824374388
97,7,9,Ticks_ISO_T2_8,100,9999,9999,9999,825174120
97,7,9,Ticks_ISO_T2_8,101,9999,9999,9999,825974900
97,7,9,Ticks_ISO_T2_8,102,9999,9999,9999,826774640
97,7,9,Ticks_ISO_T2_8,103,9999,9999,9999,827574372
97,7,9,Ticks_ISO_T2_8,104,9999,9999,9999,828374128
97,7,9,Ticks_ISO_T2_8,105,9999,9999,9999,829174832
97,7,9,Ticks_ISO_T2_8,106,9999,9999,9999,829974640
97,7,9,Ticks_ISO_T2_8,107,9999,9999,9999,830774372
97,7,9,Ticks_ISO_T2_8,108,9999,9999,9999,831574104
97,7,9,Ticks_ISO_T2_8,109,9999,9999,9999,832374892
97,7,9,Ticks_ISO_T2_8,110,9999,9999,9999,833174604
97,7,9,Ticks_ISO_T2_8,111,9999,9999,9999,833974352
97,7,9,Ticks_ISO_T2_8,112,9999,9999,9999,834774112
97,7,9,Ticks_ISO_T2_8,113,9999,9999,9999,835574892
97,7,9,Ticks_ISO_T2_8,114,9999,9999,9999,836374632
97,7,9,Ticks_ISO_T2_8,115,9999,9999,9999,837174360
97,7,9,Ticks_ISO_T2_8,116,9999,9999,9999,837974092
97,7,9,Ticks_ISO_T2_8,117,9999,9999,9999,838774880
97,7,9,Ticks_ISO_T2_8,118,9999,9999,9999,839574604
97,7,9,Ticks_ISO_T2_8,119,9999,9999,9999,840374340
97,8,10,Ticks_ISO_T2_5,0,5,42,127,850520600
97,8,10,Ticks_ISO_T2_5,1,5,42,127,851021064
97,8,10,Ticks_ISO_T2_5,2,1,48,28,851171936
97,8,10,Ticks_ISO_T2_5,3,5,42,127,851520840
97,8,10,Ticks_ISO_T2_5,4,1,48,35,851549464
97,8,10,Ticks_ISO_T2_5,5,5,42,127,852020460
97,8,10,Ticks_ISO_T2_5,6,1,48,35,852052080
97,8,10,Ticks_ISO_T2_5,7,5,42,127,852521572
97,8,10,Ticks_ISO_T2_5,8,1,48,37,852577272
97,8,10,Ticks_ISO_T2_5,9,5,42,127,853020896
97,8,10,Ticks_ISO_T2_5,10,1,48,27,853036804
97,8,10,Ticks_ISO_T2_5,11,1,48,36,853490784
97,8,10,Ticks_ISO_T2_5,12,5,42,127,853520808
97,8,10,Ticks_ISO_T2_5,13,5,42,127,854020584
97,8,10,Ticks_ISO_T2_5,14,1,48,35,854024000
97,8,10,Ticks_ISO_T2_5,15,5,42,127,854521476
97,8,10,Ticks_ISO_T2_5,16,1,48,35,854547256
97,8,10,Ticks_ISO_T2_5,17,1,48,31,855018140
97,8,10,Ticks_ISO_T2_5,18,5,42,127,855020792
97,8,10,Ticks_ISO_T2_5,19,1,48,29,855505488
97,8,10,Ticks_ISO_T2_5,20,5,42,127,855520632
97,8,10,Ticks_ISO_T2_5,21,1,48,30,856014460
97,8,10,Ticks_ISO_T2_5,22,5,42,127,856021528
97,8,10,Ticks_ISO_T2_5,23,5,42,127,856520980
97,8,10,Ticks_ISO_T2_5,24,1,48,25,856540208
97,8,10,Ticks_ISO_T2_5,25,1,48,33,857004924
97,8,10,Ticks_ISO_T2_5,26,5,42,127,857020744
97,8,10,Ticks_ISO_T2_5,27,1,48,31,857492424
97,8,10,Ticks_ISO_T2_5,28,5,42,127,857520436
97,8,10,Ticks_ISO_T2_5,29,1,48,37,858001172
97,8,10,Ticks_ISO_T2_5,30,5,42,127,858021476
97,8,10,Ticks_ISO_T2_5,31,1,48,38,858515828
97,8,10,Ticks_ISO_T2_5,32,5,42,127,858520876
97,8,10,Ticks_ISO_T2_5,33,1,48,36,858996000
97,8,10,Ticks_ISO_T2_5,34,5,42,127,859020720
97,8,10,Ticks_ISO_T2_5,35,1,48,39,859498388
97,8,10,Ticks_ISO_T2_5,36,5,42,127,859521312
97,8,10,Ticks_ISO_T2_5,37,1,48,29,859996136
97,8,10,Ticks_ISO_T2_5,38,5,42,127,860021228
97,8,10,Ticks_ISO_T2_5,39,1,48,32,860497108
97,8,10,Ticks_ISO_T2_5,40,5,42,127,860520700
97,8,10,Ticks_ISO_T2_5,41,1,48,33,860992688
97,8,10,Ticks_ISO_T2_5,42,5,42,127,861020468
97,8,10,Ticks_ISO_T2_5,43,1,48,35,861491704
97,8,10,Ticks_ISO_T2_5,44,5,42,127,861521360
97,8,10,Ticks_ISO_T2_5,45,1,48,34,862000452
97,8,10,Ticks_ISO_T2_5,46,5,42,127,862020904
97,8,10,Ticks_ISO_T2_5,47,1,48,36,862501788
97,8,10,Ticks_ISO_T2_5,48,5,42,127,862520676
97,8,10,Ticks_ISO_T2_5,49,1,48,34,863011212
97,8,10,Ticks_ISO_T2_5,50,5,42,127,863021344
97,8,10,Ticks_ISO_T2_5,51,1,48,30,863491904
97,8,10,Ticks_ISO_T2_5,52,5,42,127,863521112
97,8,10,Ticks_ISO_T2_5,53,5,42,127,864020740
97,8,10,Ticks_ISO_T2_5,54,1,48,30,864021704
97,8,10,Ticks_ISO_T2_5,55,1,48,31,864512464
97,8,10,Ticks_ISO_T2_5,56,5,42,127,864520504
97,8,10,Ticks_ISO_T2_5,57,1,48,33,865009168
97,8,10,Ticks_ISO_T2_5,58,5,42,127,865021172
97,8,10,Ticks_ISO_T2_5,59,1,48,33,865507520
97,8,10,Ticks_ISO_T2_5,60,5,42,127,865521012
97,8,10,Ticks_ISO_T2_5,61,1,48,35,865997336
97,8,10,Ticks_ISO_T2_5,62,5,42,127,866020636
97,8,10,Ticks_ISO_T2_5,63,5,42,127,866520408
97,8,10,Ticks_ISO_T2_5,64,1,48,34,866522928
97,8,10,Ticks_ISO_T2_5,65,1,48,29,867018244
97,8,10,Ticks_ISO_T2_5,66,5,42,127,867021292
97,8,10,Ticks_ISO_T2_5,67,5,42,127,867520748
97,8,10,Ticks_ISO_T2_5,68,1,48,34,867540272
97,8,10,Ticks_ISO_T2_5,69,1,48,30,868003568
97,8,10,Ticks_ISO_T2_5,70,5,42,127,868020512
97,8,10,Ticks_ISO_T2_5,71,1,48,36,868518600
97,8,10,Ticks_ISO_T2_5,72,5,42,127,868521252
97,8,10,Ticks_ISO_T2_5,73,1,48,33,869003108
97,8,10,Ticks_ISO_T2_5,74,5,42,127,869021244
97,8,10,Ticks_ISO_T2_5,75,5,42,127,869520720
97,8,10,Ticks_ISO_T2_5,76,1,48,31,869526532
97,8,10,Ticks_ISO_T2_5,77,5,42,127,870020416
97,8,10,Ticks_ISO_T2_5,78,1,48,30,870022280
97,8,10,Ticks_ISO_T2_5,79,5,42,127,870521156
97,8,10,Ticks_ISO_T2_5,80,1,48,27,870536768
97,8,10,Ticks_ISO_T2_5,81,5,42,127,871021000
97,8,10,Ticks_ISO_T2_5,82,1,48,31,871021892
97,8,10,Ticks_ISO_T2_5,83,1,48,24,871487368
97,8,10,Ticks_ISO_T2_5,84,5,42,127,871520764
97,8,10,Ticks_ISO_T2_5,85,5,42,127,872021212
97,8,10,Ticks_ISO_T2_5,86,1,48,35,872032636
97,8,10,Ticks_ISO_T2_5,87,5,42,127,872521056
97,8,10,Ticks_ISO_T2_5,88,1,48,29,872540928
97,8,10,Ticks_ISO_T2_5,89,1,48,28,873021272
97,8,10,Ticks_ISO_T2_5,90,5,42,127,873022460
97,8,10,Ticks_ISO_T2_5,91,5,42,127,873520448
97,8,10,Ticks_ISO_T2_5,92,1,48,33,873533664
97,8,10,Ticks_ISO_T2_5,93,5,42,127,874021188
97,8,10,Ticks_ISO_T2_5,94,1,48,29,874030444
97,8,10,Ticks_ISO_T2_5,95,5,42,127,874520884
97,8,10,Ticks_ISO_T2_5,96,1,48,32,874528044
97,8,10,Ticks_ISO_T2_5,97,1,48,35,875009544
97,8,10,Ticks_ISO_T2_5,98,5,42,127,875020572
97,8,10,Ticks_ISO_T2_5,99,1,48,35,875504000
97,8,10,Ticks_ISO_T2_5,100,5,42,127,875521312
97,8,10,Ticks_ISO_T2_5,101,1,48,36,876017684
97,8,10,Ticks_ISO_T2_5,102,5,42,127,876021232
97,8,10,Ticks_ISO_T2_5,103,5,42,127,876520932
97,8,10,Ticks_ISO_T2_5,104,1,48,33,876534224
97,8,10,Ticks_ISO_T2_5,105,5,42,127,877020552
97,8,10,Ticks_ISO_T2_5,106,1,48,34,877023220
97,8,10,Ticks_ISO_T2_5,107,5,42,127,877521220
97,8,10,Ticks_ISO_T2_5,108,1,48,35,877523960
97,8,10,Ticks_ISO_T2_5,109,5,42,127,878021040
97,8,10,Ticks_ISO_T2_5,110,1,48,33,878037424
97,8,10,Ticks_ISO_T2_5,111,1,48,35,878514260
97,8,10,Ticks_ISO_T2_5,112,5,42,127,878520652
97,8,10,Ticks_ISO_T2_5,113,1,48,34,879013652
97,8,10,Ticks_ISO_T2_5,114,5,42,127,879021544
97,8,10,Ticks_ISO_T2_5,115,1,48,30,879519124
97,8,10,Ticks_ISO_T2_5,116,5,42,127,879521088
97,8,10,Ticks_ISO_T2_5,117,1,48,31,879984468
97,8,10,Ticks_ISO_T2_5,118,5,42,127,880020784
97,8,10,Ticks_ISO_T2_5,119,5,42,127,880520488
97,8,10,Ticks_ISO_T2_5,120,1,48,35,880544396
97,8,10,Ticks_ISO_T2_5,121,5,42,127,881021228
97,8,10,Ticks_ISO_T2_5,122,1,48,36,881039004
97,8,10,Ticks_ISO_T2_5,123,5,42,127,881521144
97,8,10,Ticks_ISO_T2_5,124,1,48,34,881533092
97,8,10,Ticks_ISO_T2_5,125,5,42,127,882020692
97,8,10,Ticks_ISO_T2_5,126,1,48,31,882025680
97,8,10,Ticks_ISO_T2_5,127,1,48,31,882495588
97,8,10,Ticks_ISO_T2_5,128,5,42,127,882520380
97,8,10,Ticks_ISO_T2_5,129,5,42,127,883021128
97,8,10,Ticks_ISO_T2_5,130,1,48,33,883030604
97,8,10,Ticks_ISO_T2_5,131,5,42,127,883521120
97,8,10,Ticks_ISO_T2_5,132,1,48,35,883525664
97,8,10,Ticks_ISO_T2_5,133,5,42,127,884020520
97,8,10,Ticks_ISO_T2_5,134,1,48,36,884036500
97,8,10,Ticks_ISO_T2_5,135,5,42,127,884521260
97,8,10,Ticks_ISO_T2_5,136,1,48,35,884545996
97,8,10,Ticks_ISO_T2_5,137,5,42,127,885021180
97,8,10,Ticks_ISO_T2_5,138,1,48,34,885072024
97,8,10,Ticks_ISO_T2_5,139,5,42,127,885521028
97,8,10,Ticks_ISO_T2_5,140,1,48,34,885525116
97,8,10,Ticks_ISO_T2_5,141,5,42,127,886020424
97,8,10,Ticks_ISO_T2_5,142,1,48,37,886034236
97,8,10,Ticks_ISO_T2_5,143,5,42,127,886521164
97,8,10,Ticks_ISO_T2_5,144,1,48,38,886572000
97,8,10,Ticks_ISO_T2_5,145,5,42,127,887021160
97,8,10,Ticks_ISO_T2_5,146,1,48,34,887057568
97,8,10,Ticks_ISO_T2_5,147,1,48,36,887442396
97,8,10,Ticks_ISO_T2_5,148,5,42,127,887520548
97,8,10,Ticks_ISO_T2_5,149,1,48,40,887991316
97,8,10,Ticks_ISO_T2_5,150,5,42,127,888021288
97,8,10,Ticks_ISO_T2_5,151,1,48,35,888494152
97,8,10,Ticks_ISO_T2_5,152,5,42,127,888521112
97,8,10,Ticks_ISO_T2_5,153,5,42,127,889020936
97,8,10,Ticks_ISO_T2_5,154,1,48,40,889065364
97,8,10,Ticks_ISO_T2_5,155,1,48,39,889485060
97,8,10,Ticks_ISO_T2_5,156,5,42,127,889520476
97,8,10,Ticks_ISO_T2_5,157,1,48,41,889995972
97,8,10,Ticks_ISO_T2_5,158,5,42,127,890021216
97,8,10,Ticks_ISO_T2_5,159,1,48,37,890494696
97,8,10,Ticks_ISO_T2_5,160,5,42,127,890521060
97,8,10,Ticks_ISO_T2_5,161,1,48,31,890984292
97,8,10,Ticks_ISO_T2_5,162,5,42,127,891020980
97,8,10,Ticks_ISO_T2_5,163,5,42,127,891521432
97,8,10,Ticks_ISO_T2_5,164,1,48,32,891529412
97,8,10,Ticks_ISO_T2_5,165,5,42,127,892021052
97,8,10,Ticks_ISO_T2_5,166,1,48,29,892027312
97,8,10,Ticks_ISO_T2_5,167,1,48,34,892517416
97,8,10,Ticks_ISO_T2_5,168,5,42,127,892521184
97,8,10,Ticks_ISO_T2_5,169,5,42,127,893020516
97,8,10,Ticks_ISO_T2_5,170,1,48,35,893054820
97,8,10,Ticks_ISO_T2_5,171,1,48,30,893507680
97,8,10,Ticks_ISO_T2_5,172,5,42,127,893521176
97,8,10,Ticks_ISO_T2_5,173,1,48,30,893980896
97,8,10,Ticks_ISO_T2_5,174,5,42,127,894021020
97,8,10,Ticks_ISO_T2_5,175,1,48,32,894512380
97,8,10,Ticks_ISO_T2_5,176,5,42,127,894520864
97,8,10,Ticks_ISO_T2_5,177,1,48,30,895020260
97,8,10,Ticks_ISO_T2_5,178,5,42,127,895021904
97,8,10,Ticks_ISO_T2_5,179,5,42,127,895521160
97,8,10,Ticks_ISO_T2_5,180,1,48,34,895543428
97,8,10,Ticks_ISO_T2_5,181,1,48,33,895979828
97,8,10,Ticks_ISO_T2_5,182,5,42,127,896020996
97,8,10,Ticks_ISO_T2_5,183,1,48,39,896510484
97,8,10,Ticks_ISO_T2_5,184,5,42,127,896520620
97,8,10,Ticks_ISO_T2_5,185,5,42,127,897021292
97,8,10,Ticks_ISO_T2_5,186,1,48,38,897027104
97,8,10,Ticks_ISO_T2_5,187,1,48,32,897503444
97,8,10,Ticks_ISO_T2_5,188,5,42,127,897521204
97,8,10,Ticks_ISO_T2_5,189,1,48,40,897990172
97,8,10,Ticks_ISO_T2_5,190,5,42,127,898020896
97,8,10,Ticks_ISO_T2_5,191,1,48,42,898507764
97,8,10,Ticks_ISO_T2_5,192,5,42,127,898520368
97,8,10,Ticks_ISO_T2_5,193,1,48,28,899007288
97,8,10,Ticks_ISO_T2_5,194,5,42,127,899021108
97,8,10,Ticks_ISO_T2_5,195,5,42,127,899520860
97,8,10,Ticks_ISO_T2_5,196,1,48,35,899534848
97,8,10,Ticks_ISO_T2_5,197,1,48,34,899997252
97,8,10,Ticks_ISO_T2_5,198,5,42,127,900020552
97,8,10,Ticks_ISO_T2_5,199,1,48,29,900497476
97,8,10,Ticks_ISO_T2_5,200,5,42,127,900521220
97,8,10,Ticks_ISO_T2_5,201,5,42,127,901020992
97,8,10,Ticks_ISO_T2_5,202,1,48,35,901024408
97,8,10,Ticks_ISO_T2_5,203,1,48,34,901482800
97,8,10,Ticks_ISO_T2_5,204,5,42,127,901520832
97,8,10,Ticks_ISO_T2_5,205,5,42,127,902020384
97,8,10,Ticks_ISO_T2_5,206,1,48,39,902045416
97,8,10,Ticks_ISO_T2_5,207,5,42,127,902521124
97,8,10,Ticks_ISO_T2_5,208,1,48,36,902571960
97,8,10,Ticks_ISO_T2_5,209,5,42,127,903020820
97,8,10,Ticks_ISO_T2_5,210,1,48,30,903055724
97,8,10,Ticks_ISO_T2_5,211,5,42,127,903520808
97,8,10,Ticks_ISO_T2_5,212,1,48,38,903601720
97,8,10,Ticks_ISO_T2_5,213,5,42,127,904021328
97,8,10,Ticks_ISO_T2_5,214,1,48,33,904098052
97,8,10,Ticks_ISO_T2_5,215,5,42,127,904520948
97,8,10,Ticks_ISO_T2_5,216,1,48,33,904577100
97,8,10,Ticks_ISO_T2_5,217,5,42,127,905020716
97,8,10,Ticks_ISO_T2_5,218,1,48,35,905050836
97,8,10,Ticks_ISO_T2_5,219,5,42,127,905520484
97,8,10,Ticks_ISO_T2_5,220,1,48,38,905564664
97,8,10,Ticks_ISO_T2_5,221,5,42,127,906021152
97,8,10,Ticks_ISO_T2_5,222,1,48,39,906046184
97,8,10,Ticks_ISO_T2_5,223,5,42,127,906521068
97,8,10,Ticks_ISO_T2_5,224,1,48,37,906538476
97,8,10,Ticks_ISO_T2_5,225,5,42,127,907020764
97,8,10,Ticks_ISO_T2_5,226,1,48,40,907035028
97,8,10,Ticks_ISO_T2_5,227,1,48,32,907501416
97,8,10,Ticks_ISO_T2_5,228,5,42,127,907521352
97,8,10,Ticks_ISO_T2_5,229,1,48,41,907933776
97,8,10,Ticks_ISO_T2_5,230,5,42,127,908020972
97,8,10,Ticks_ISO_T2_5,231,5,42,127,908520748
97,8,10,Ticks_ISO_T2_5,232,1,48,38,908535456
97,8,10,Ticks_ISO_T2_5,233,1,48,37,908957848
97,8,10,Ticks_ISO_T2_5,234,5,42,127,909020508
97,8,10,Ticks_ISO_T2_5,235,5,42,127,909521184
97,8,10,Ticks_ISO_T2_5,236,1,48,38,909533872
97,8,10,Ticks_ISO_T2_5,237,5,42,127,910020852
97,8,10,Ticks_ISO_T2_5,238,1,48,39,910052720
97,8,10,Ticks_ISO_T2_5,239,5,42,127,910520624
97,8,10,Ticks_ISO_T2_5,240,1,48,41,910555028
97,8,10,Ticks_ISO_T2_5,241,5,42,127,911021588
97,8,10,Ticks_ISO_T2_5,242,1,48,37,911068712
97,8,10,Ticks_ISO_T2_5,243,5,42,127,911521208
97,8,10,Ticks_ISO_T2_5,244,1,48,39,911541756
97,8,10,Ticks_ISO_T2_5,245,1,48,38,912002684
97,8,10,Ticks_ISO_T2_5,246,5,42,127,912020820
97,8,10,Ticks_ISO_T2_5,247,5,42,127,912520600
97,8,10,Ticks_ISO_T2_5,248,1,48,28,912525212
97,8,10,Ticks_ISO_T2_5,249,1,48,36,913016284
97,8,10,Ticks_ISO_T2_5,250,5,42,127,913021184
97,8,10,Ticks_ISO_T2_5,251,5,42,127,913520884
97,8,10,Ticks_ISO_T2_5,252,1,48,38,913525124
97,8,10,Ticks_ISO_T2_5,253,5,42,127,914020656
97,8,10,Ticks_ISO_T2_5,254,1,48,37,914027964
97,8,10,Ticks_ISO_T2_5,255,1,48,24,914509684
97,8,10,Ticks_ISO_T2_5,256,5,42,127,914520416
97,8,10,Ticks_ISO_T2_5,257,1,48,24,914950136
97,8,10,Ticks_ISO_T2_5,258,5,42,127,915021156
97,8,10,Ticks_ISO_T2_5,0,9999,9999,9999,850518088
97,8,10,Ticks_ISO_T2_5,1,9999,9999,9999,851018852
97,8,10,Ticks_ISO_T2_5,2,9999,9999,9999,851518552
97,8,10,Ticks_ISO_T2_5,3,9999,9999,9999,852018248
97,8,10,Ticks_ISO_T2_5,4,9999,9999,9999,852518988
97,8,10,Ticks_ISO_T2_5,5,9999,9999,9999,853018684
97,8,10,Ticks_ISO_T2_5,6,9999,9999,9999,853518448
97,8,10,Ticks_ISO_T2_5,7,9999,9999,9999,854018148
97,8,10,Ticks_ISO_T2_5,8,9999,9999,9999,854518892
97,8,10,Ticks_ISO_T2_5,9,9999,9999,9999,855018580
97,8,10,Ticks_ISO_T2_5,10,9999,9999,9999,855518272
97,8,10,Ticks_ISO_T2_5,11,9999,9999,9999,856019016
97,8,10,Ticks_ISO_T2_5,12,9999,9999,9999,856518768
97,8,10,Ticks_ISO_T2_5,13,9999,9999,9999,857018456
97,8,10,Ticks_ISO_T2_5,14,9999,9999,9999,857518152
97,8,10,Ticks_ISO_T2_5,15,9999,9999,9999,858018892
97,8,10,Ticks_ISO_T2_5,16,9999,9999,9999,858518588
97,8,10,Ticks_ISO_T2_5,17,9999,9999,9999,859018360
97,8,10,Ticks_ISO_T2_5,18,9999,9999,9999,859519024
97,8,10,Ticks_ISO_T2_5,19,9999,9999,9999,860018796
97,8,10,Ticks_ISO_T2_5,20,9999,9999,9999,860518488
97,8,10,Ticks_ISO_T2_5,21,9999,9999,9999,861018184
97,8,10,Ticks_ISO_T2_5,22,9999,9999,9999,861518924
97,8,10,Ticks_ISO_T2_5,23,9999,9999,9999,862018620
97,8,10,Ticks_ISO_T2_5,24,9999,9999,9999,862518388
97,8,10,Ticks_ISO_T2_5,25,9999,9999,9999,863019056
97,8,10,Ticks_ISO_T2_5,26,9999,9999,9999,863518824
97,8,10,Ticks_ISO_T2_5,27,9999,9999,9999,864018528
97,8,10,Ticks_ISO_T2_5,28,9999,9999,9999,864518216
97,8,10,Ticks_ISO_T2_5,29,9999,9999,9999,865018960
97,8,10,Ticks_ISO_T2_5,30,9999,9999,9999,865518652
97,8,10,Ticks_ISO_T2_5,31,9999,9999,9999,866018424
97,8,10,Ticks_ISO_T2_5,32,9999,9999,9999,866518124
97,8,10,Ticks_ISO_T2_5,33,9999,9999,9999,867018836
97,8,10,Ticks_ISO_T2_5,34,9999,9999,9999,867518536
97,8,10,Ticks_ISO_T2_5,35,9999,9999,9999,868018224
97,8,10,Ticks_ISO_T2_5,36,9999,9999,9999,868518964
97,8,10,Ticks_ISO_T2_5,37,9999,9999,9999,869018732
97,8,10,Ticks_ISO_T2_5,38,9999,9999,9999,869518436
97,8,10,Ticks_ISO_T2_5,39,9999,9999,9999,870018132
97,8,10,Ticks_ISO_T2_5,40,9999,9999,9999,870518872
97,8,10,Ticks_ISO_T2_5,41,9999,9999,9999,871018564
97,8,10,Ticks_ISO_T2_5,42,9999,9999,9999,871518328
97,8,10,Ticks_ISO_T2_5,43,9999,9999,9999,872019000
97,8,10,Ticks_ISO_T2_5,44,9999,9999,9999,872518772
97,8,10,Ticks_ISO_T2_5,45,9999,9999,9999,873018464
97,8,10,Ticks_ISO_T2_5,46,9999,9999,9999,873518160
97,8,10,Ticks_ISO_T2_5,47,9999,9999,9999,874018904
97,8,10,Ticks_ISO_T2_5,48,9999,9999,9999,874518596
97,8,10,Ticks_ISO_T2_5,49,9999,9999,9999,875018360
97,8,10,Ticks_ISO_T2_5,50,9999,9999,9999,875519024
97,8,10,Ticks_ISO_T2_5,51,9999,9999,9999,876018796
97,8,10,Ticks_ISO_T2_5,52,9999,9999,9999,876518496
97,8,10,Ticks_ISO_T2_5,53,9999,9999,9999,877018192
97,8,10,Ticks_ISO_T2_5,54,9999,9999,9999,877518932
97,8,10,Ticks_ISO_T2_5,55,9999,9999,9999,878018680
97,8,10,Ticks_ISO_T2_5,56,9999,9999,9999,878518368
97,8,10,Ticks_ISO_T2_5,57,9999,9999,9999,879019108
97,8,10,Ticks_ISO_T2_5,58,9999,9999,9999,879518840
97,8,10,Ticks_ISO_T2_5,59,9999,9999,9999,880018496
97,8,10,Ticks_ISO_T2_5,60,9999,9999,9999,880518200
97,8,10,Ticks_ISO_T2_5,61,9999,9999,9999,881018940
97,8,10,Ticks_ISO_T2_5,62,9999,9999,9999,881518708
97,8,10,Ticks_ISO_T2_5,63,9999,9999,9999,882018404
97,8,10,Ticks_ISO_T2_5,64,9999,9999,9999,882518092
97,8,10,Ticks_ISO_T2_5,65,9999,9999,9999,883018840
97,8,10,Ticks_ISO_T2_5,66,9999,9999,9999,883518536
97,8,10,Ticks_ISO_T2_5,67,9999,9999,9999,884018232
97,8,10,Ticks_ISO_T2_5,68,9999,9999,9999,884518976
97,8,10,Ticks_ISO_T2_5,69,9999,9999,9999,885018744
97,8,10,Ticks_ISO_T2_5,70,9999,9999,9999,885518440
97,8,10,Ticks_ISO_T2_5,71,9999,9999,9999,886018140
97,8,10,Ticks_ISO_T2_5,72,9999,9999,9999,886518880
97,8,10,Ticks_ISO_T2_5,73,9999,9999,9999,887018576
97,8,10,Ticks_ISO_T2_5,74,9999,9999,9999,887518264
97,8,10,Ticks_ISO_T2_5,75,9999,9999,9999,888019004
97,8,10,Ticks_ISO_T2_5,76,9999,9999,9999,888518752
97,8,10,Ticks_ISO_T2_5,77,9999,9999,9999,889018424
97,8,10,Ticks_ISO_T2_5,78,9999,9999,9999,889518188
97,8,10,Ticks_ISO_T2_5,79,9999,9999,9999,890018932
97,8,10,Ticks_ISO_T2_5,80,9999,9999,9999,890518624
97,8,10,Ticks_ISO_T2_5,81,9999,9999,9999,891018320
97,8,10,Ticks_ISO_T2_5,82,9999,9999,9999,891519068
97,8,10,Ticks_ISO_T2_5,83,9999,9999,9999,892018764
97,8,10,Ticks_ISO_T2_5,84,9999,9999,9999,892518452
97,8,10,Ticks_ISO_T2_5,85,9999,9999,9999,893018228
97,8,10,Ticks_ISO_T2_5,86,9999,9999,9999,893518964
97,8,10,Ticks_ISO_T2_5,87,9999,9999,9999,894018660
97,8,10,Ticks_ISO_T2_5,88,9999,9999,9999,894518356
97,8,10,Ticks_ISO_T2_5,89,9999,9999,9999,895019104
97,8,10,Ticks_ISO_T2_5,90,9999,9999,9999,895518796
97,8,10,Ticks_ISO_T2_5,91,9999,9999,9999,896018488
97,8,10,Ticks_ISO_T2_5,92,9999,9999,9999,896518256
97,8,10,Ticks_ISO_T2_5,93,9999,9999,9999,897018928
97,8,10,Ticks_ISO_T2_5,94,9999,9999,9999,897518692
97,8,10,Ticks_ISO_T2_5,95,9999,9999,9999,898018388
97,8,10,Ticks_ISO_T2_5,96,9999,9999,9999,898518080
97,8,10,Ticks_ISO_T2_5,97,9999,9999,9999,899018824
97,8,10,Ticks_ISO_T2_5,98,9999,9999,9999,899518572
97,8,10,Ticks_ISO_T2_5,99,9999,9999,9999,900018264
97,8,10,Ticks_ISO_T2_5,100,9999,9999,9999,900519008
97,8,10,Ticks_ISO_T2_5,101,9999,9999,9999,901018708
97,8,10,Ticks_ISO_T2_5,102,9999,9999,9999,901518396
97,8,10,Ticks_ISO_T2_5,103,9999,9999,9999,902018096
97,8,10,Ticks_ISO_T2_5,104,9999,9999,9999,902518836
97,8,10,Ticks_ISO_T2_5,105,9999,9999,9999,903018608
97,8,10,Ticks_ISO_T2_5,106,9999,9999,9999,903518300
97,8,10,Ticks_ISO_T2_5,107,9999,9999,9999,904019040
97,8,10,Ticks_ISO_T2_5,108,9999,9999,9999,904518736
97,8,10,Ticks_ISO_T2_5,109,9999,9999,9999,905018428
97,8,10,Ticks_ISO_T2_5,110,9999,9999,9999,905518200
97,8,10,Ticks_ISO_T2_5,111,9999,9999,9999,906018868
97,8,10,Ticks_ISO_T2_5,112,9999,9999,9999,906518636
97,8,10,Ticks_ISO_T2_5,113,9999,9999,9999,907018328
97,8,10,Ticks_ISO_T2_5,114,9999,9999,9999,907519064
97,8,10,Ticks_ISO_T2_5,115,9999,9999,9999,908018760
97,8,10,Ticks_ISO_T2_5,116,9999,9999,9999,908518460
97,8,10,Ticks_ISO_T2_5,117,9999,9999,9999,909018224
97,8,10,Ticks_ISO_T2_5,118,9999,9999,9999,909518896
97,8,10,Ticks_ISO_T2_5,119,9999,9999,9999,910018640
97,8,10,Ticks_ISO_T2_5,120,9999,9999,9999,910518336
97,8,10,Ticks_ISO_T2_5,121,9999,9999,9999,911019076
97,8,10,Ticks_ISO_T2_5,122,9999,9999,9999,911518772
97,8,10,Ticks_ISO_T2_5,123,9999,9999,9999,912018536
97,8,10,Ticks_ISO_T2_5,124,9999,9999,9999,912518236
97,8,10,Ticks_ISO_T2_5,125,9999,9999,9999,913018972
97,8,10,Ticks_ISO_T2_5,126,9999,9999,9999,913518672
97,8,10,Ticks_ISO_T2_5,127,9999,9999,9999,914018368
97,8,10,Ticks_ISO_T2_5,128,9999,9999,9999,914518128
97,8,10,Ticks_ISO_T2_5,129,9999,9999,9999,915018872
97,9,22,Ticks_Phase_8,0,5,42,127,925842864
97,9,22,Ticks_Phase_8,1,1,48,35,926303748
97,9,22,Ticks_Phase_8,2,5,42,127,926642648
97,9,22,Ticks_Phase_8,3,1,48,40,927364240
97,9,22,Ticks_Phase_8,4,5,42,127,927443520
97,9,22,Ticks_Phase_8,5,1,48,39,928211828
97,9,22,Ticks_Phase_8,6,5,42,127,928243008
97,9,22,Ticks_Phase_8,7,5,42,127,929042728
97,9,22,Ticks_Phase_8,8,1,48,35,929044812
97,9,22,Ticks_Phase_8,9,1,48,35,929807428
97,9,22,Ticks_Phase_8,10,5,42,127,929842656
97,9,22,Ticks_Phase_8,11,1,48,33,930590972
97,9,22,Ticks_Phase_8,12,5,42,127,930643416
97,9,22,Ticks_Phase_8,13,1,48,33,931393444
97,9,22,Ticks_Phase_8,14,5,42,127,931443272
97,9,22,Ticks_Phase_8,15,1,48,36,932231580
97,9,22,Ticks_Phase_8,16,5,42,127,932242912
97,9,22,Ticks_Phase_8,17,1,48,36,933027316
97,9,22,Ticks_Phase_8,18,5,42,127,933042476
97,9,22,Ticks_Phase_8,19,1,48,38,933836712
97,9,22,Ticks_Phase_8,20,5,42,127,933843484
97,9,22,Ticks_Phase_8,21,1,48,35,934627140
97,9,22,Ticks_Phase_8,22,5,42,127,934643196
97,9,22,Ticks_Phase_8,23,1,48,25,935401468
97,9,22,Ticks_Phase_8,24,5,42,127,935442760
97,9,22,Ticks_Phase_8,25,1,48,28,936191744
97,9,22,Ticks_Phase_8,26,5,42,127,936242472
97,9,22,Ticks_Phase_8,27,1,48,26,937039748
97,9,22,Ticks_Phase_8,28,5,42,127,937043452
97,9,22,Ticks_Phase_8,29,5,42,127,937843244
97,9,22,Ticks_Phase_8,30,1,48,23,937870936
97,9,22,Ticks_Phase_8,31,1,48,29,938606448
97,9,22,Ticks_Phase_8,32,5,42,127,938642876
97,9,22,Ticks_Phase_8,33,1,48,21,939423536
97,9,22,Ticks_Phase_8,34,5,42,127,939442440
97,9,22,Ticks_Phase_8,35,5,42,127,940243452
97,9,22,Ticks_Phase_8,36,1,48,29,940244640
97,9,22,Ticks_Phase_8,37,1,48,28,941015048
97,9,22,Ticks_Phase_8,38,5,42,127,941043232
97,9,22,Ticks_Phase_8,39,1,48,27,941840756
97,9,22,Ticks_Phase_8,40,5,42,127,941842720
97,9,22,Ticks_Phase_8,41,5,42,127,942642440
97,9,22,Ticks_Phase_8,42,1,48,21,942703372
97,9,22,Ticks_Phase_8,43,1,48,20,943377332
97,9,22,Ticks_Phase_8,44,5,42,127,943443264
97,9,22,Ticks_Phase_8,45,1,48,16,944194344
97,9,22,Ticks_Phase_8,46,5,42,127,944243352
97,9,22,Ticks_Phase_8,47,1,48,16,945022296
97,9,22,Ticks_Phase_8,48,5,42,127,945042692
97,9,22,Ticks_Phase_8,49,1,48,16,945792204
97,9,22,Ticks_Phase_8,50,5,42,127,945842404
97,9,22,Ticks_Phase_8,51,1,48,20,946632128
97,9,22,Ticks_Phase_8,52,5,42,127,946643236
97,9,22,Ticks_Phase_8,53,5,42,127,947443252
97,9,22,Ticks_Phase_8,54,1,48,19,947447496
97,9,22,Ticks_Phase_8,55,1,48,23,948198144
97,9,22,Ticks_Phase_8,56,5,42,127,948242736
97,9,22,Ticks_Phase_8,57,5,42,127,949042528
97,9,22,Ticks_Phase_8,58,1,48,20,949086464
97,9,22,Ticks_Phase_8,59,1,48,22,949818160
97,9,22,Ticks_Phase_8,60,5,42,127,949822836
97,9,22,Ticks_Phase_8,61,1,48,24,950612564
97,9,22,Ticks_Phase_8,62,5,42,127,950622624
97,9,22,Ticks_Phase_8,63,1,48,19,951403588
97,9,22,Ticks_Phase_8,64,5,42,127,951423380
97,9,22,Ticks_Phase_8,65,1,48,20,952180520
97,9,22,Ticks_Phase_8,66,5,42,127,952223168
97,9,22,Ticks_Phase_8,67,1,48,24,952953652
97,9,22,Ticks_Phase_8,68,5,42,127,953023028
97,9,22,Ticks_Phase_8,69,1,48,18,953792232
97,9,22,Ticks_Phase_8,70,5,42,127,953822688
97,9,22,Ticks_Phase_8,71,1,48,19,954599900
97,9,22,Ticks_Phase_8,72,5,42,127,954623452
97,9,22,Ticks_Phase_8,73,1,48,26,955393776
97,9,22,Ticks_Phase_8,74,5,42,127,955423088
97,9,22,Ticks_Phase_8,75,5,42,127,956222956
97,9,22,Ticks_Phase_8,76,1,48,30,956228620
97,9,22,Ticks_Phase_8,77,5,42,127,957022444
97,9,22,Ticks_Phase_8,78,1,48,27,957038816
97,9,22,Ticks_Phase_8,79,5,42,127,957823276
97,9,22,Ticks_Phase_8,80,1,48,29,957833368
97,9,22,Ticks_Phase_8,81,5,42,127,958623288
97,9,22,Ticks_Phase_8,82,1,48,31,958631728
97,9,22,Ticks_Phase_8,83,1,48,35,959393308
97,9,22,Ticks_Phase_8,84,5,42,127,959422916
97,9,22,Ticks_Phase_8,85,1,48,30,960205100
97,9,22,Ticks_Phase_8,86,5,42,127,960222728
97,9,22,Ticks_Phase_8,87,5,42,127,961023272
97,9,22,Ticks_Phase_8,88,1,48,31,961035004
97,9,22,Ticks_Phase_8,89,1,48,32,961813888
97,9,22,Ticks_Phase_8,90,5,42,127,961823052
97,9,22,Ticks_Phase_8,91,1,48,29,962616368
97,9,22,Ticks_Phase_8,92,5,42,127,962622836
97,9,22,Ticks_Phase_8,93,1,48,26,963399076
97,9,22,Ticks_Phase_8,94,5,42,127,963422700
97,9,22,Ticks_Phase_8,95,1,48,29,964189208
97,9,22,Ticks_Phase_8,96,5,42,127,964242932
97,9,22,Ticks_Phase_8,97,1,48,21,965018196
97,9,22,Ticks_Phase_8,98,5,42,127,965042496
97,9,22,Ticks_Phase_8,99,1,48,29,965843284
97,9,22,Ticks_Phase_8,100,5,42,127,965844624
97,9,22,Ticks_Phase_8,101,1,48,28,966629028
97,9,22,Ticks_Phase_8,102,5,42,127,966643064
97,9,22,Ticks_Phase_8,103,5,42,127,967442932
97,9,22,Ticks_Phase_8,104,1,48,30,967461780
97,9,22,Ticks_Phase_8,105,1,48,32,968232352
97,9,22,Ticks_Phase_8,106,5,42,127,968242412
97,9,22,Ticks_Phase_8,107,5,42,127,969043256
97,9,22,Ticks_Phase_8,108,1,48,32,969082472
97,9,22,Ticks_Phase_8,109,5,42,127,969843188
97,9,22,Ticks_Phase_8,110,1,48,28,969856568
97,9,22,Ticks_Phase_8,111,1,48,25,970642600
97,9,22,Ticks_Phase_8,112,5,42,127,970644012
97,9,22,Ticks_Phase_8,113,1,48,27,971435164
97,9,22,Ticks_Phase_8,114,5,42,127,971442528
97,9,22,Ticks_Phase_8,115,5,42,127,972243172
97,9,22,Ticks_Phase_8,116,1,48,29,972292204
97,9,22,Ticks_Phase_8,117,5,42,127,973043032
97,9,22,Ticks_Phase_8,118,1,48,29,973068988
97,9,22,Ticks_Phase_8,119,1,48,32,973830656
97,9,22,Ticks_Phase_8,120,5,42,127,973843036
97,9,22,Ticks_Phase_8,121,5,42,127,974642680
97,9,22,Ticks_Phase_8,122,1,48,29,974646920
97,9,22,Ticks_Phase_8,123,1,48,23,975434416
97,9,22,Ticks_Phase_8,124,5,42,127,975443432
97,9,22,Ticks_Phase_8,125,1,48,26,976222376
97,9,22,Ticks_Phase_8,126,5,42,127,976242920
97,9,22,Ticks_Phase_8,127,1,48,27,977026652
97,9,22,Ticks_Phase_8,128,5,42,127,977082700
97,9,22,Ticks_Phase_8,129,1,48,29,977876188
97,9,22,Ticks_Phase_8,130,5,42,127,977882660
97,9,22,Ticks_Phase_8,131,5,42,127,978683276
97,9,22,Ticks_Phase_8,132,1,48,29,978693884
97,9,22,Ticks_Phase_8,133,1,48,28,979477180
97,9,22,Ticks_Phase_8,134,5,42,127,979482980
97,9,22,Ticks_Phase_8,135,1,48,31,980277420
97,9,22,Ticks_Phase_8,136,5,42,127,980282840
97,9,22,Ticks_Phase_8,137,1,48,33,981074292
97,9,22,Ticks_Phase_8,138,5,42,127,981082408
97,9,22,Ticks_Phase_8,139,5,42,127,981883096
97,9,22,Ticks_Phase_8,140,1,48,40,981889208
97,9,22,Ticks_Phase_8,141,5,42,127,982683032
97,9,22,Ticks_Phase_8,142,1,48,35,982686152
97,9,22,Ticks_Phase_8,143,1,48,36,983467132
97,9,22,Ticks_Phase_8,144,5,42,127,983482812
97,9,22,Ticks_Phase_8,145,1,48,24,984281952
97,9,22,Ticks_Phase_8,146,5,42,127,984283520
97,9,22,Ticks_Phase_8,147,5,42,127,985083164
97,9,22,Ticks_Phase_8,148,1,48,29,985128592
97,9,22,Ticks_Phase_8,149,1,48,35,985855428
97,9,22,Ticks_Phase_8,150,5,42,127,985882944
97,9,22,Ticks_Phase_8,151,1,48,30,986680692
97,9,22,Ticks_Phase_8,152,5,42,127,986682656
97,9,22,Ticks_Phase_8,153,5,42,127,987482672
97,9,22,Ticks_Phase_8,154,1,48,36,987497772
97,9,22,Ticks_Phase_8,155,5,42,127,988283208
97,9,22,Ticks_Phase_8,156,1,48,38,988286104
97,9,22,Ticks_Phase_8,157,1,48,32,989069624
97,9,22,Ticks_Phase_8,158,5,42,127,989082988
97,9,22,Ticks_Phase_8,159,1,48,32,989822016
97,9,22,Ticks_Phase_8,160,5,42,127,989882848
97,9,22,Ticks_Phase_8,161,1,48,28,990630548
97,9,22,Ticks_Phase_8,162,5,42,127,990642496
97,9,22,Ticks_Phase_8,163,5,42,127,991443284
97,9,22,Ticks_Phase_8,164,1,48,27,991444252
97,9,22,Ticks_Phase_8,165,5,42,127,992242996
97,9,22,Ticks_Phase_8,166,1,48,35,992258472
97,9,22,Ticks_Phase_8,167,1,48,37,993009268
97,9,22,Ticks_Phase_8,168,5,42,127,993042928
97,9,22,Ticks_Phase_8,169,1,48,34,993793412
97,9,22,Ticks_Phase_8,170,5,42,127,993842488
97,9,22,Ticks_Phase_8,171,1,48,39,994609964
97,9,22,Ticks_Phase_8,172,5,42,127,994643248
97,9,22,Ticks_Phase_8,173,1,48,32,995442896
97,9,22,Ticks_Phase_8,174,5,42,127,995444380
97,9,22,Ticks_Phase_8,175,5,42,127,996242680
97,9,22,Ticks_Phase_8,176,1,48,36,996311952
97,9,22,Ticks_Phase_8,177,5,42,127,997042468
97,9,22,Ticks_Phase_8,178,1,48,41,997085824
97,9,22,Ticks_Phase_8,179,5,42,127,997843624
97,9,22,Ticks_Phase_8,180,1,48,36,997878716
97,9,22,Ticks_Phase_8,181,5,42,127,998643116
97,9,22,Ticks_Phase_8,182,1,48,35,998687948
97,9,22,Ticks_Phase_8,183,5,42,127,999442752
97,9,22,Ticks_Phase_8,184,1,48,30,999490812
97,9,22,Ticks_Phase_8,185,5,42,127,1000242464
97,9,22,Ticks_Phase_8,186,1,48,30,1000289160
97,9,22,Ticks_Phase_8,187,5,42,127,1001043592
97,9,22,Ticks_Phase_8,188,1,48,29,1001074424
97,9,22,Ticks_Phase_8,189,5,42,127,1001843008
97,9,22,Ticks_Phase_8,190,1,48,36,1001848296
97,9,22,Ticks_Phase_8,191,1,48,38,1002629276
97,9,22,Ticks_Phase_8,192,5,42,127,1002642936
97,9,22,Ticks_Phase_8,193,5,42,127,1003362600
97,9,22,Ticks_Phase_8,194,1,48,35,1003441660
97,9,22,Ticks_Phase_8,195,5,42,127,1004162312
97,9,22,Ticks_Phase_8,196,1,48,38,1004178536
97,9,22,Ticks_Phase_8,197,1,48,45,1004940724
97,9,22,Ticks_Phase_8,198,5,42,127,1004963284
97,9,22,Ticks_Phase_8,199,5,42,127,1005762856
97,9,22,Ticks_Phase_8,200,1,48,34,1005777604
97,9,22,Ticks_Phase_8,201,1,48,35,1006554396
97,9,22,Ticks_Phase_8,202,5,42,127,1006562664
97,9,22,Ticks_Phase_8,203,5,42,127,1007362380
97,9,22,Ticks_Phase_8,204,1,48,32,1007369316
97,9,22,Ticks_Phase_8,205,5,42,127,1008163360
97,9,22,Ticks_Phase_8,206,1,48,29,1008213216
97,9,22,Ticks_Phase_8,207,5,42,127,1008962924
97,9,22,Ticks_Phase_8,208,1,48,36,1009021168
97,9,22,Ticks_Phase_8,209,5,42,127,1009762636
97,9,22,Ticks_Phase_8,210,1,48,31,1009846408
97,9,22,Ticks_Phase_8,211,5,42,127,1010562348
97,9,22,Ticks_Phase_8,212,1,48,30,1010662548
97,9,22,Ticks_Phase_8,213,5,42,127,1011363400
97,9,22,Ticks_Phase_8,214,1,48,31,1011422040
97,9,22,Ticks_Phase_8,215,5,42,127,1012162888
97,9,22,Ticks_Phase_8,216,1,48,33,1012193668
97,9,22,Ticks_Phase_8,217,5,42,127,1012962552
97,9,22,Ticks_Phase_8,218,1,48,26,1012978396
97,9,22,Ticks_Phase_8,219,5,42,127,1013762412
97,9,22,Ticks_Phase_8,220,1,48,38,1013771380
97,9,22,Ticks_Phase_8,221,5,42,127,1014563396
97,9,22,Ticks_Phase_8,222,1,48,31,1014599912
97,9,22,Ticks_Phase_8,223,5,42,127,1015362880
97,9,22,Ticks_Phase_8,224,1,48,33,1015405692
97,9,22,Ticks_Phase_8,225,1,48,32,1016129300
97,9,22,Ticks_Phase_8,226,5,42,127,1016162664
97,9,22,Ticks_Phase_8,227,1,48,33,1016914564
97,9,22,Ticks_Phase_8,228,5,42,127,1017043264
97,9,22,Ticks_Phase_8,229,5,42,127,1017843216
97,9,22,Ticks_Phase_8,230,1,48,29,1017932164
97,9,22,Ticks_Phase_8,231,5,42,127,1018642928
97,9,22,Ticks_Phase_8,232,1,48,32,1018758972
97,9,22,Ticks_Phase_8,233,5,42,127,1019442492
97,9,22,Ticks_Phase_8,234,1,48,41,1019461720
97,9,22,Ticks_Phase_8,235,1,48,35,1020203748
97,9,22,Ticks_Phase_8,236,5,42,127,1020243392
97,9,22,Ticks_Phase_8,237,5,42,127,1021043184
97,9,22,Ticks_Phase_8,238,1,48,31,1021064652
97,9,22,Ticks_Phase_8,239,1,48,29,1021841992
97,9,22,Ticks_Phase_8,240,5,42,127,1021843564
97,9,22,Ticks_Phase_8,241,5,42,127,1022642608
97,9,22,Ticks_Phase_8,242,1,48,24,1022658452
97,9,22,Ticks_Phase_8,243,1,48,24,1023423412
97,9,22,Ticks_Phase_8,244,5,42,127,1023443308
97,9,22,Ticks_Phase_8,245,1,48,29,1024225768
97,9,22,Ticks_Phase_8,246,5,42,127,1024243172
97,9,22,Ticks_Phase_8,247,1,48,25,1025016784
97,9,22,Ticks_Phase_8,248,5,42,127,1025042660
97,9,22,Ticks_Phase_8,249,1,48,16,1025828480
97,9,22,Ticks_Phase_8,250,5,42,127,1025842520
97,9,22,Ticks_Phase_8,251,1,48,27,1026631420
97,9,22,Ticks_Phase_8,252,5,42,127,1026643280
97,9,22,Ticks_Phase_8,253,5,42,127,1027443220
97,9,22,Ticks_Phase_8,254,1,48,24,1027463196
97,9,22,Ticks_Phase_8,255,5,42,127,1028243008
97,9,22,Ticks_Phase_8,256,1,48,29,1028252420
97,9,22,Ticks_Phase_8,257,5,42,127,1029042496
97,9,22,Ticks_Phase_8,258,1,48,31,1029044056
97,9,22,Ticks_Phase_8,259,1,48,29,1029808988
97,9,22,Ticks_Phase_8,260,5,42,127,1029843272
97,9,22,Ticks_Phase_8,261,1,48,26,1030646024
97,9,22,Ticks_Phase_8,262,5,42,127,1030803004
97,9,22,Ticks_Phase_8,263,5,42,127,1031602516
97,9,22,Ticks_Phase_8,264,1,48,26,1031653964
97,9,22,Ticks_Phase_8,265,5,42,127,1032403300
97,9,22,Ticks_Phase_8,266,1,48,27,1032446776
97,9,22,Ticks_Phase_8,267,5,42,127,1033203232
97,9,22,Ticks_Phase_8,268,1,48,28,1033204720
97,9,22,Ticks_Phase_8,269,5,42,127,1034003016
97,9,22,Ticks_Phase_8,270,1,48,24,1034044404
97,9,22,Ticks_Phase_8,271,1,48,30,1034791836
97,9,22,Ticks_Phase_8,272,5,42,127,1034802576
97,9,22,Ticks_Phase_8,273,1,48,30,1035524820
97,9,22,Ticks_Phase_8,274,5,42,127,1035603260
97,9,22,Ticks_Phase_8,275,1,48,31,1036366612
97,9,22,Ticks_Phase_8,276,5,42,127,1036403120
97,9,22,Ticks_Phase_8,277,1,48,28,1037166328
97,9,22,Ticks_Phase_8,278,5,42,127,1037202756
97,9,22,Ticks_Phase_8,279,1,48,22,1037983796
97,9,22,Ticks_Phase_8,280,5,42,127,1038002468
97,9,22,Ticks_Phase_8,281,5,42,127,1038803256
97,9,22,Ticks_Phase_8,282,1,48,23,1038812072
97,9,22,Ticks_Phase_8,283,1,48,32,1039571856
97,9,22,Ticks_Phase_8,284,5,42,127,1039603036
97,9,22,Ticks_Phase_8,285,1,48,29,1040398524
97,9,22,Ticks_Phase_8,286,5,42,127,1040403196
97,9,22,Ticks_Phase_8,287,5,42,127,1041202468
97,9,22,Ticks_Phase_8,288,1,48,32,1041249544
97,9,22,Ticks_Phase_8,289,5,42,127,1042003228
97,9,22,Ticks_Phase_8,290,1,48,25,1042010696
97,9,22,Ticks_Phase_8,291,5,42,127,1042803012
97,9,22,Ticks_Phase_8,292,1,48,33,1042819460
97,9,22,Ticks_Phase_8,293,5,42,127,1043603172
97,9,22,Ticks_Phase_8,294,1,48,22,1043624640
97,9,22,Ticks_Phase_8,295,1,48,19,1044353128
97,9,22,Ticks_Phase_8,296,5,42,127,1044402428
97,9,22,Ticks_Phase_8,297,1,48,21,1045190984
97,9,22,Ticks_Phase_8,298,5,42,127,1045203364
97,9,22,Ticks_Phase_8,299,5,42,127,1045843320
97,9,22,Ticks_Phase_8,300,1,48,26,1046001416
97,9,22,Ticks_Phase_8,301,1,48,21,1046476824
97,9,22,Ticks_Phase_8,302,5,42,127,1046643160
97,9,22,Ticks_Phase_8,303,1,48,30,1047312560
97,9,22,Ticks_Phase_8,304,5,42,127,1047442800
97,9,22,Ticks_Phase_8,305,1,48,29,1048132416
97,9,22,Ticks_Phase_8,306,5,42,127,1048242512
97,9,22,Ticks_Phase_8,307,1,48,36,1049000416
97,9,22,Ticks_Phase_8,308,5,42,127,1049043236
97,9,22,Ticks_Phase_8,309,1,48,27,1049840364
97,9,22,Ticks_Phase_8,310,5,42,127,1049842948
97,9,22,Ticks_Phase_8,311,1,48,28,1050624956
97,9,22,Ticks_Phase_8,312,5,42,127,1050642736
97,9,22,Ticks_Phase_8,313,5,42,127,1051442680
97,9,22,Ticks_Phase_8,314,1,48,25,1051449012
97,9,22,Ticks_Phase_8,315,5,42,127,1052243440
97,9,22,Ticks_Phase_8,316,1,48,26,1052258612
97,9,22,Ticks_Phase_8,317,1,48,22,1053002156
97,9,22,Ticks_Phase_8,318,5,42,127,1053042920
97,9,22,Ticks_Phase_8,319,1,48,28,1053795944
97,9,22,Ticks_Phase_8,320,5,42,127,1053842780
97,9,22,Ticks_Phase_8,321,1,48,28,1054626580
97,9,22,Ticks_Phase_8,322,5,42,127,1054642640
97,9,22,Ticks_Phase_8,323,1,48,30,1055430968
97,9,22,Ticks_Phase_8,324,5,42,127,1055443420
97,9,22,Ticks_Phase_8,325,5,42,127,1056243140
97,9,22,Ticks_Phase_8,326,1,48,32,1056250524
97,9,22,Ticks_Phase_8,327,5,42,127,1057042784
97,9,22,Ticks_Phase_8,328,1,48,27,1057054740
97,9,22,Ticks_Phase_8,329,5,42,127,1057842716
97,9,22,Ticks_Phase_8,330,1,48,33,1057869716
97,9,22,Ticks_Phase_8,331,5,42,127,1058643400
97,9,22,Ticks_Phase_8,332,1,48,31,1058664572
97,9,22,Ticks_Phase_8,333,1,48,31,1059398892
97,9,22,Ticks_Phase_8,334,5,42,127,1059443180
97,9,22,Ticks_Phase_8,335,1,48,28,1060207512
97,9,22,Ticks_Phase_8,336,5,42,127,1060242744
97,9,22,Ticks_Phase_8,337,1,48,26,1061029612
97,9,22,Ticks_Phase_8,338,5,42,127,1061042680
97,9,22,Ticks_Phase_8,0,9999,9999,9999,925840500
97,9,22,Ticks_Phase_8,1,9999,9999,9999,926640212
97,9,22,Ticks_Phase_8,2,9999,9999,9999,927441012
97,9,22,Ticks_Phase_8,3,9999,9999,9999,928240724
97,9,22,Ticks_Phase_8,4,9999,9999,9999,929040440
97,9,22,Ticks_Phase_8,5,9999,9999,9999,929840220
97,9,22,Ticks_Phase_8,6,9999,9999,9999,930640980
97,9,22,Ticks_Phase_8,7,9999,9999,9999,931440764
97,9,22,Ticks_Phase_8,8,9999,9999,9999,932240476
97,9,22,Ticks_Phase_8,9,9999,9999,9999,933040192
97,9,22,Ticks_Phase_8,10,9999,9999,9999,933840976
97,9,22,Ticks_Phase_8,11,9999,9999,9999,934640760
97,9,22,Ticks_Phase_8,12,9999,9999,9999,935440472
97,9,22,Ticks_Phase_8,13,9999,9999,9999,936240184
97,9,22,Ticks_Phase_8,14,9999,9999,9999,937041016
97,9,22,Ticks_Phase_8,15,9999,9999,9999,937840736
97,9,22,Ticks_Phase_8,16,9999,9999,9999,938640440
97,9,22,Ticks_Phase_8,17,9999,9999,9999,939440224
97,9,22,Ticks_Phase_8,18,9999,9999,9999,940241016
97,9,22,Ticks_Phase_8,19,9999,9999,9999,941040724
97,9,22,Ticks_Phase_8,20,9999,9999,9999,941840472
97,9,22,Ticks_Phase_8,21,9999,9999,9999,942640228
97,9,22,Ticks_Phase_8,22,9999,9999,9999,943440980
97,9,22,Ticks_Phase_8,23,9999,9999,9999,944240768
97,9,22,Ticks_Phase_8,24,9999,9999,9999,945040480
97,9,22,Ticks_Phase_8,25,9999,9999,9999,945840192
97,9,22,Ticks_Phase_8,26,9999,9999,9999,946640948
97,9,22,Ticks_Phase_8,27,9999,9999,9999,947440744
97,9,22,Ticks_Phase_8,28,9999,9999,9999,948240448
97,9,22,Ticks_Phase_8,29,9999,9999,9999,949040240
97,9,22,Ticks_Phase_8,30,9999,9999,9999,949820476
97,9,22,Ticks_Phase_8,31,9999,9999,9999,950620264
97,9,22,Ticks_Phase_8,32,9999,9999,9999,951421020
97,9,22,Ticks_Phase_8,33,9999,9999,9999,952220732
97,9,22,Ticks_Phase_8,34,9999,9999,9999,953020520
97,9,22,Ticks_Phase_8,35,9999,9999,9999,953820256
97,9,22,Ticks_Phase_8,36,9999,9999,9999,954621016
97,9,22,Ticks_Phase_8,37,9999,9999,9999,955420728
97,9,22,Ticks_Phase_8,38,9999,9999,9999,956220520
97,9,22,Ticks_Phase_8,39,9999,9999,9999,957020232
97,9,22,Ticks_Phase_8,40,9999,9999,9999,957820992
97,9,22,Ticks_Phase_8,41,9999,9999,9999,958620776
97,9,22,Ticks_Phase_8,42,9999,9999,9999,959420480
97,9,22,Ticks_Phase_8,43,9999,9999,9999,960220220
97,9,22,Ticks_Phase_8,44,9999,9999,9999,961020988
97,9,22,Ticks_Phase_8,45,9999,9999,9999,961820764
97,9,22,Ticks_Phase_8,46,9999,9999,9999,962620476
97,9,22,Ticks_Phase_8,47,9999,9999,9999,963420264
97,9,22,Ticks_Phase_8,48,9999,9999,9999,964240496
97,9,22,Ticks_Phase_8,49,9999,9999,9999,965040208
97,9,22,Ticks_Phase_8,50,9999,9999,9999,965840996
97,9,22,Ticks_Phase_8,51,9999,9999,9999,966640704
97,9,22,Ticks_Phase_8,52,9999,9999,9999,967440496
97,9,22,Ticks_Phase_8,53,9999,9999,9999,968240200
97,9,22,Ticks_Phase_8,54,9999,9999,9999,969040968
97,9,22,Ticks_Phase_8,55,9999,9999,9999,969840752
97,9,22,Ticks_Phase_8,56,9999,9999,9999,970640464
97,9,22,Ticks_Phase_8,57,9999,9999,9999,971440244
97,9,22,Ticks_Phase_8,58,9999,9999,9999,972240960
97,9,22,Ticks_Phase_8,59,9999,9999,9999,973040744
97,9,22,Ticks_Phase_8,60,9999,9999,9999,973840452
97,9,22,Ticks_Phase_8,61,9999,9999,9999,974640244
97,9,22,Ticks_Phase_8,62,9999,9999,9999,975440996
97,9,22,Ticks_Phase_8,63,9999,9999,9999,976240708
97,9,22,Ticks_Phase_8,64,9999,9999,9999,977080412
97,9,22,Ticks_Phase_8,65,9999,9999,9999,977880148
97,9,22,Ticks_Phase_8,66,9999,9999,9999,978680912
97,9,22,Ticks_Phase_8,67,9999,9999,9999,979480692
97,9,22,Ticks_Phase_8,68,9999,9999,9999,980280408
97,9,22,Ticks_Phase_8,69,9999,9999,9999,981080120
97,9,22,Ticks_Phase_8,70,9999,9999,9999,981880884
97,9,22,Ticks_Phase_8,71,9999,9999,9999,982680672
97,9,22,Ticks_Phase_8,72,9999,9999,9999,983480376
97,9,22,Ticks_Phase_8,73,9999,9999,9999,984280120
97,9,22,Ticks_Phase_8,74,9999,9999,9999,985080952
97,9,22,Ticks_Phase_8,75,9999,9999,9999,985880656
97,9,22,Ticks_Phase_8,76,9999,9999,9999,986680408
97,9,22,Ticks_Phase_8,77,9999,9999,9999,987480160
97,9,22,Ticks_Phase_8,78,9999,9999,9999,988280920
97,9,22,Ticks_Phase_8,79,9999,9999,9999,989080700
97,9,22,Ticks_Phase_8,80,9999,9999,9999,989880412
97,9,22,Ticks_Phase_8,81,9999,9999,9999,990640208
97,9,22,Ticks_Phase_8,82,9999,9999,9999,991441000
97,9,22,Ticks_Phase_8,83,9999,9999,9999,992240712
97,9,22,Ticks_Phase_8,84,9999,9999,9999,993040492
97,9,22,Ticks_Phase_8,85,9999,9999,9999,993840204
97,9,22,Ticks_Phase_8,86,9999,9999,9999,994640964
97,9,22,Ticks_Phase_8,87,9999,9999,9999,995440756
97,9,22,Ticks_Phase_8,88,9999,9999,9999,996240468
97,9,22,Ticks_Phase_8,89,9999,9999,9999,997040180
97,9,22,Ticks_Phase_8,90,9999,9999,9999,997840964
97,9,22,Ticks_Phase_8,91,9999,9999,9999,998640752
97,9,22,Ticks_Phase_8,92,9999,9999,9999,999440464
97,9,22,Ticks_Phase_8,93,9999,9999,9999,1000240252
97,9,22,Ticks_Phase_8,94,9999,9999,9999,1001041008
97,9,22,Ticks_Phase_8,95,9999,9999,9999,1001840720
97,9,22,Ticks_Phase_8,96,9999,9999,9999,1002640500
97,9,22,Ticks_Phase_8,97,9999,9999,9999,1003360316
97,9,22,Ticks_Phase_8,98,9999,9999,9999,1004160100
97,9,22,Ticks_Phase_8,99,9999,9999,9999,1004960852
97,9,22,Ticks_Phase_8,100,9999,9999,9999,1005760568
97,9,22,Ticks_Phase_8,101,9999,9999,9999,1006560376
97,9,22,Ticks_Phase_8,102,9999,9999,9999,1007360092
97,9,22,Ticks_Phase_8,103,9999,9999,9999,1008160852
97,9,22,Ticks_Phase_8,104,9999,9999,9999,1008960636
97,9,22,Ticks_Phase_8,105,9999,9999,9999,1009760348
97,9,22,Ticks_Phase_8,106,9999,9999,9999,1010560060
97,9,22,Ticks_Phase_8,107,9999,9999,9999,1011360892
97,9,22,Ticks_Phase_8,108,9999,9999,9999,1012160604
97,9,22,Ticks_Phase_8,109,9999,9999,9999,1012960340
97,9,22,Ticks_Phase_8,110,9999,9999,9999,1013760124
97,9,22,Ticks_Phase_8,111,9999,9999,9999,1014560884
97,9,22,Ticks_Phase_8,112,9999,9999,9999,1015360596
97,9,22,Ticks_Phase_8,113,9999,9999,9999,1016160376
97,9,22,Ticks_Phase_8,114,9999,9999,9999,1017040976
97,9,22,Ticks_Phase_8,115,9999,9999,9999,1017840708
97,9,22,Ticks_Phase_8,116,9999,9999,9999,1018640496
97,9,22,Ticks_Phase_8,117,9999,9999,9999,1019440204
97,9,22,Ticks_Phase_8,118,9999,9999,9999,1020240956
97,9,22,Ticks_Phase_8,119,9999,9999,9999,1021040748
97,9,22,Ticks_Phase_8,120,9999,9999,9999,1021840460
97,9,22,Ticks_Phase_8,121,9999,9999,9999,1022640248
97,9,22,Ticks_Phase_8,122,9999,9999,9999,1023441024
97,9,22,Ticks_Phase_8,123,9999,9999,9999,1024240736
97,9,22,Ticks_Phase_8,124,9999,9999,9999,1025040448
97,9,22,Ticks_Phase_8,125,9999,9999,9999,1025840232
97,9,22,Ticks_Phase_8,126,9999,9999,9999,1026640992
97,9,22,Ticks_Phase_8,127,9999,9999,9999,1027440708
97,9,22,Ticks_Phase_8,128,9999,9999,9999,1028240496
97,9,22,Ticks_Phase_8,129,9999,9999,9999,1029040208
97,9,22,Ticks_Phase_8,130,9999,9999,9999,1029840988
97,9,22,Ticks_Phase_8,131,9999,9999,9999,1030800496
97,9,22,Ticks_Phase_8,132,9999,9999,9999,1031600228
97,9,22,Ticks_Phase_8,133,9999,9999,9999,1032401012
97,9,22,Ticks_Phase_8,134,9999,9999,9999,1033200724
97,9,22,Ticks_Phase_8,135,9999,9999,9999,1034000508
97,9,22,Ticks_Phase_8,136,9999,9999,9999,1034800216
97,9,22,Ticks_Phase_8,137,9999,9999,9999,1035600972
97,9,22,Ticks_Phase_8,138,9999,9999,9999,1036400756
97,9,22,Ticks_Phase_8,139,9999,9999,9999,1037200472
97,9,22,Ticks_Phase_8,140,9999,9999,9999,1038000180
97,9,22,Ticks_Phase_8,141,9999,9999,9999,1038800972
97,9,22,Ticks_Phase_8,142,9999,9999,9999,1039600752
97,9,22,Ticks_Phase_8,143,9999,9999,9999,1040400464
97,9,22,Ticks_Phase_8,144,9999,9999,9999,1041200184
97,9,22,Ticks_Phase_8,145,9999,9999,9999,1042001016
97,9,22,Ticks_Phase_8,146,9999,9999,9999,1042800728
97,9,22,Ticks_Phase_8,147,9999,9999,9999,1043600436
97,9,22,Ticks_Phase_8,148,9999,9999,9999,1044400216
97,9,22,Ticks_Phase_8,149,9999,9999,9999,1045201000
97,9,22,Ticks_Phase_8,150,9999,9999,9999,1045840960
97,9,22,Ticks_Phase_8,151,9999,9999,9999,1046640728
97,9,22,Ticks_Phase_8,152,9999,9999,9999,1047440440
97,9,22,Ticks_Phase_8,153,9999,9999,9999,1048240224
97,9,22,Ticks_Phase_8,154,9999,9999,9999,1049040948
97,9,22,Ticks_Phase_8,155,9999,9999,9999,1049840736
97,9,22,Ticks_Phase_8,156,9999,9999,9999,1050640452
97,9,22,Ticks_Phase_8,157,9999,9999,9999,1051440244
97,9,22,Ticks_Phase_8,158,9999,9999,9999,1052241004
97,9,22,Ticks_Phase_8,159,9999,9999,9999,1053040708
97,9,22,Ticks_Phase_8,160,9999,9999,9999,1053840492
97,9,22,Ticks_Phase_8,161,9999,9999,9999,1054640204
97,9,22,Ticks_Phase_8,162,9999,9999,9999,1055440988
97,9,22,Ticks_Phase_8,163,9999,9999,9999,1056240704
97,9,22,Ticks_Phase_8,164,9999,9999,9999,1057040496
97,9,22,Ticks_Phase_8,165,9999,9999,9999,1057840204
97,9,22,Ticks_Phase_8,166,9999,9999,9999,1058640964
97,9,22,Ticks_Phase_8,167,9999,9999,9999,1059440744
97,9,22,Ticks_Phase_8,168,9999,9999,9999,1060240456
97,9,22,Ticks_Phase_8,169,9999,9999,9999,1061040244
97,10,23,Ticks_Phase_5,0,5,42,127,1071330544
97,10,23,Ticks_Phase_5,1,5,42,127,1071831524
97,10,23,Ticks_Phase_5,2,1,48,36,1071946148
97,10,23,Ticks_Phase_5,3,5,42,127,1072331064
97,10,23,Ticks_Phase_5,4,1,48,37,1072332400
97,10,23,Ticks_Phase_5,5,5,42,127,1072830876
97,10,23,Ticks_Phase_5,6,1,48,38,1072854164
97,10,23,Ticks_Phase_5,7,1,48,38,1073327600
97,10,23,Ticks_Phase_5,8,5,42,127,1073330480
97,10,23,Ticks_Phase_5,9,1,48,39,1073824592
97,10,23,Ticks_Phase_5,10,5,42,127,1073831364
97,10,23,Ticks_Phase_5,11,1,48,33,1074317016
97,10,23,Ticks_Phase_5,12,5,42,127,1074330980
97,10,23,Ticks_Phase_5,13,1,48,38,1074827936
97,10,23,Ticks_Phase_5,14,5,42,127,1074830668
97,10,23,Ticks_Phase_5,15,1,48,31,1075286140
97,10,23,Ticks_Phase_5,16,5,42,127,1075330580
97,10,23,Ticks_Phase_5,17,1,48,37,1075798792
97,10,23,Ticks_Phase_5,18,5,42,127,1075831016
97,10,23,Ticks_Phase_5,19,1,48,36,1076324004
97,10,23,Ticks_Phase_5,20,5,42,127,1076330928
97,10,23,Ticks_Phase_5,21,1,48,34,1076817180
97,10,23,Ticks_Phase_5,22,5,42,127,1076830544
97,10,23,Ticks_Phase_5,23,1,48,37,1077317388
97,10,23,Ticks_Phase_5,24,5,42,127,1077331424
97,10,23,Ticks_Phase_5,25,1,48,35,1077823596
97,10,23,Ticks_Phase_5,26,5,42,127,1077830964
97,10,23,Ticks_Phase_5,27,1,48,31,1078326652
97,10,23,Ticks_Phase_5,28,5,42,127,1078330804
97,10,23,Ticks_Phase_5,29,1,48,31,1078814208
97,10,23,Ticks_Phase_5,30,5,42,127,1078830344
97,10,23,Ticks_Phase_5,31,5,42,127,1079331456
97,10,23,Ticks_Phase_5,32,1,48,31,1079332720
97,10,23,Ticks_Phase_5,33,1,48,32,1079821532
97,10,23,Ticks_Phase_5,34,5,42,127,1079830844
97,10,23,Ticks_Phase_5,35,1,48,37,1080323460
97,10,23,Ticks_Phase_5,36,5,42,127,1080330604
97,10,23,Ticks_Phase_5,37,5,42,127,1080831572
97,10,23,Ticks_Phase_5,38,1,48,43,1080835660
97,10,23,Ticks_Phase_5,39,1,48,26,1080889192
97,10,23,Ticks_Phase_5,40,1,48,36,1081310316
97,10,23,Ticks_Phase_5,41,5,42,127,1081331156
97,10,23,Ticks_Phase_5,42,5,42,127,1081830628
97,10,23,Ticks_Phase_5,43,1,48,23,1081841088
97,10,23,Ticks_Phase_5,44,1,48,38,1082319276
97,10,23,Ticks_Phase_5,45,5,42,127,1082330532
97,10,23,Ticks_Phase_5,46,1,48,35,1082831052
97,10,23,Ticks_Phase_5,47,5,42,127,1082832464
97,10,23,Ticks_Phase_5,48,1,48,36,1083316216
97,10,23,Ticks_Phase_5,49,5,42,127,1083330808
97,10,23,Ticks_Phase_5,50,1,48,37,1083780044
97,10,23,Ticks_Phase_5,51,5,42,127,1083830620
97,10,23,Ticks_Phase_5,52,1,48,35,1084318660
97,10,23,Ticks_Phase_5,53,5,42,127,1084331504
97,10,23,Ticks_Phase_5,54,5,42,127,1084831348
97,10,23,Ticks_Phase_5,55,1,48,22,1084847420
97,10,23,Ticks_Phase_5,56,1,48,37,1085313996
97,10,23,Ticks_Phase_5,57,5,42,127,1085330732
97,10,23,Ticks_Phase_5,58,1,48,36,1085803128
97,10,23,Ticks_Phase_5,59,5,42,127,1085830420
97,10,23,Ticks_Phase_5,60,1,48,35,1086299976
97,10,23,Ticks_Phase_5,61,5,42,127,1086320972
97,10,23,Ticks_Phase_5,62,1,48,36,1086807744
97,10,23,Ticks_Phase_5,63,5,42,127,1086820660
97,10,23,Ticks_Phase_5,64,1,48,28,1087306308
97,10,23,Ticks_Phase_5,65,5,42,127,1087320424
97,10,23,Ticks_Phase_5,66,1,48,33,1087771856
97,10,23,Ticks_Phase_5,67,5,42,127,1087821456
97,10,23,Ticks_Phase_5,68,5,42,127,1088320852
97,10,23,Ticks_Phase_5,69,1,48,38,1088329148
97,10,23,Ticks_Phase_5,70,5,42,127,1088820544
97,10,23,Ticks_Phase_5,71,1,48,29,1088846048
97,10,23,Ticks_Phase_5,72,5,42,127,1089321352
97,10,23,Ticks_Phase_5,73,1,48,29,1089342524
97,10,23,Ticks_Phase_5,74,1,48,31,1089786624
97,10,23,Ticks_Phase_5,75,5,42,127,1089821108
97,10,23,Ticks_Phase_5,76,1,48,37,1090275384
97,10,23,Ticks_Phase_5,77,5,42,127,1090320800
97,10,23,Ticks_Phase_5,78,1,48,35,1090811844
97,10,23,Ticks_Phase_5,79,5,42,127,1090820412
97,10,23,Ticks_Phase_5,80,1,48,35,1091291168
97,10,23,Ticks_Phase_5,81,5,42,127,1091321148
97,10,23,Ticks_Phase_5,82,1,48,35,1091813988
97,10,23,Ticks_Phase_5,83,5,42,127,1091821060
97,10,23,Ticks_Phase_5,84,1,48,32,1092300876
97,10,23,Ticks_Phase_5,85,5,42,127,1092320596
97,10,23,Ticks_Phase_5,86,1,48,25,1092776340
97,10,23,Ticks_Phase_5,87,5,42,127,1092821408
97,10,23,Ticks_Phase_5,88,1,48,27,1093277228
97,10,23,Ticks_Phase_5,89,5,42,127,1093321172
97,10,23,Ticks_Phase_5,90,1,48,27,1093799316
97,10,23,Ticks_Phase_5,91,5,42,127,1093820832
97,10,23,Ticks_Phase_5,92,1,48,31,1094294352
97,10,23,Ticks_Phase_5,93,5,42,127,1094320448
97,10,23,Ticks_Phase_5,94,1,48,29,1094780568
97,10,23,Ticks_Phase_5,95,5,42,127,1094821108
97,10,23,Ticks_Phase_5,96,1,48,35,1095296796
97,10,23,Ticks_Phase_5,97,5,42,127,1095331280
97,10,23,Ticks_Phase_5,98,5,42,127,1095830828
97,10,23,Ticks_Phase_5,99,1,48,21,1095893060
97,10,23,Ticks_Phase_5,100,5,42,127,1096330740
97,10,23,Ticks_Phase_5,101,1,48,36,1096353476
97,10,23,Ticks_Phase_5,102,5,42,127,1096831248
97,10,23,Ticks_Phase_5,103,1,48,19,1096834964
97,10,23,Ticks_Phase_5,104,1,48,39,1097310836
97,10,23,Ticks_Phase_5,105,5,42,127,1097331228
97,10,23,Ticks_Phase_5,106,1,48,41,1097808564
97,10,23,Ticks_Phase_5,107,5,42,127,1097830620
97,10,23,Ticks_Phase_5,108,1,48,39,1098313200
97,10,23,Ticks_Phase_5,109,5,42,127,1098330532
97,10,23,Ticks_Phase_5,110,1,48,42,1098796636
97,10,23,Ticks_Phase_5,111,5,42,127,1098831268
97,10,23,Ticks_Phase_5,112,1,48,40,1099302096
97,10,23,Ticks_Phase_5,113,5,42,127,1099331032
97,10,23,Ticks_Phase_5,114,1,48,37,1099823128
97,10,23,Ticks_Phase_5,115,5,42,127,1099830568
97,10,23,Ticks_Phase_5,116,1,48,37,1100325652
97,10,23,Ticks_Phase_5,117,5,42,127,1100331452
97,10,23,Ticks_Phase_5,118,1,48,33,1100824744
97,10,23,Ticks_Phase_5,119,5,42,127,1100831140
97,10,23,Ticks_Phase_5,120,5,42,127,1101330688
97,10,23,Ticks_Phase_5,121,1,48,41,1101333656
97,10,23,Ticks_Phase_5,122,1,48,49,1101795440
97,10,23,Ticks_Phase_5,123,5,42,127,1101830520
97,10,23,Ticks_Phase_5,124,1,48,43,1102306056
97,10,23,Ticks_Phase_5,125,5,42,127,1102331180
97,10,23,Ticks_Phase_5,126,1,48,40,1102790104
97,10,23,Ticks_Phase_5,127,5,42,127,1102831092
97,10,23,Ticks_Phase_5,128,5,42,127,1103351228
97,10,23,Ticks_Phase_5,129,1,48,38,1103358760
97,10,23,Ticks_Phase_5,130,5,42,127,1103851068
97,10,23,Ticks_Phase_5,131,1,48,37,1103866240
97,10,23,Ticks_Phase_5,132,5,42,127,1104350532
97,10,23,Ticks_Phase_5,133,1,48,43,1104355968
97,10,23,Ticks_Phase_5,134,5,42,127,1104851416
97,10,23,Ticks_Phase_5,135,1,48,38,1104852456
97,10,23,Ticks_Phase_5,136,1,48,39,1105341012
97,10,23,Ticks_Phase_5,137,5,42,127,1105351172
97,10,23,Ticks_Phase_5,138,1,48,20,1105421752
97,10,23,Ticks_Phase_5,139,5,42,127,1105850596
97,10,23,Ticks_Phase_5,140,1,48,31,1105861156
97,10,23,Ticks_Phase_5,141,1,48,43,1106334588
97,10,23,Ticks_Phase_5,142,5,42,127,1106350424
97,10,23,Ticks_Phase_5,143,1,48,40,1106832860
97,10,23,Ticks_Phase_5,144,5,42,127,1106851160
97,10,23,Ticks_Phase_5,145,1,48,41,1107338768
97,10,23,Ticks_Phase_5,146,5,42,127,1107351072
97,10,23,Ticks_Phase_5,147,1,48,41,1107816732
97,10,23,Ticks_Phase_5,148,5,42,127,1107850464
97,10,23,Ticks_Phase_5,149,1,48,35,1108323608
97,10,23,Ticks_Phase_5,150,5,42,127,1108351272
97,10,23,Ticks_Phase_5,151,1,48,48,1108788168
97,10,23,Ticks_Phase_5,152,5,42,127,1108851108
97,10,23,Ticks_Phase_5,153,1,48,38,1109327324
97,10,23,Ticks_Phase_5,154,5,42,127,1109350872
97,10,23,Ticks_Phase_5,155,1,48,46,1109846708
97,10,23,Ticks_Phase_5,156,5,42,127,1109850412
97,10,23,Ticks_Phase_5,157,1,48,41,1110314644
97,10,23,Ticks_Phase_5,158,5,42,127,1110351148
97,10,23,Ticks_Phase_5,159,1,48,41,1110845636
97,10,23,Ticks_Phase_5,160,5,42,127,1110850984
97,10,23,Ticks_Phase_5,161,5,42,127,1111350532
97,10,23,Ticks_Phase_5,162,1,48,39,1111368024
97,10,23,Ticks_Phase_5,163,1,48,18,1111450532
97,10,23,Ticks_Phase_5,164,5,42,127,1111831100
97,10,23,Ticks_Phase_5,165,1,48,25,1111835188
97,10,23,Ticks_Phase_5,166,1,48,39,1112323032
97,10,23,Ticks_Phase_5,167,5,42,127,1112330484
97,10,23,Ticks_Phase_5,168,1,48,20,1112401140
97,10,23,Ticks_Phase_5,169,1,48,38,1112814616
97,10,23,Ticks_Phase_5,170,5,42,127,1112831272
97,10,23,Ticks_Phase_5,171,1,48,44,1113313408
97,10,23,Ticks_Phase_5,172,5,42,127,1113331184
97,10,23,Ticks_Phase_5,173,5,42,127,1113830876
97,10,23,Ticks_Phase_5,174,1,48,34,1113833468
97,10,23,Ticks_Phase_5,175,1,48,38,1114294180
97,10,23,Ticks_Phase_5,176,5,42,127,1114330412
97,10,23,Ticks_Phase_5,177,5,42,127,1114831156
97,10,23,Ticks_Phase_5,178,1,48,29,1114868340
97,10,23,Ticks_Phase_5,179,1,48,36,1115305388
97,10,23,Ticks_Phase_5,180,5,42,127,1115330908
97,10,23,Ticks_Phase_5,181,1,48,20,1115382540
97,10,23,Ticks_Phase_5,182,5,42,127,1115830780
97,10,23,Ticks_Phase_5,183,1,48,35,1115832420
97,10,23,Ticks_Phase_5,184,1,48,35,1116297100
97,10,23,Ticks_Phase_5,185,5,42,127,1116331360
97,10,23,Ticks_Phase_5,186,5,42,127,1116830980
97,10,23,Ticks_Phase_5,187,1,48,24,1116848856
97,10,23,Ticks_Phase_5,188,5,42,127,1117330892
97,10,23,Ticks_Phase_5,189,1,48,39,1117368384
97,10,23,Ticks_Phase_5,190,5,42,127,1117830504
97,10,23,Ticks_Phase_5,191,1,48,35,1117853096
97,10,23,Ticks_Phase_5,192,5,42,127,1118331240
97,10,23,Ticks_Phase_5,193,1,48,35,1118339160
97,10,23,Ticks_Phase_5,194,1,48,27,1118784380
97,10,23,Ticks_Phase_5,195,5,42,127,1118830920
97,10,23,Ticks_Phase_5,196,5,42,127,1119330764
97,10,23,Ticks_Phase_5,197,1,48,39,1119351936
97,10,23,Ticks_Phase_5,198,5,42,127,1119781176
97,10,23,Ticks_Phase_5,199,1,48,36,1119841440
97,10,23,Ticks_Phase_5,200,5,42,127,1120281088
97,10,23,Ticks_Phase_5,201,1,48,41,1120285032
97,10,23,Ticks_Phase_5,202,5,42,127,1120780628
97,10,23,Ticks_Phase_5,203,1,48,41,1120793856
97,10,23,Ticks_Phase_5,204,1,48,43,1121266420
97,10,23,Ticks_Phase_5,205,5,42,127,1121281432
97,10,23,Ticks_Phase_5,206,1,48,43,1121740428
97,10,23,Ticks_Phase_5,207,5,42,127,1121781044
97,10,23,Ticks_Phase_5,208,1,48,21,1121811112
97,10,23,Ticks_Phase_5,209,1,48,37,1122244956
97,10,23,Ticks_Phase_5,210,5,42,127,1122280788
97,10,23,Ticks_Phase_5,211,1,48,37,1122724924
97,10,23,Ticks_Phase_5,212,5,42,127,1122780548
97,10,23,Ticks_Phase_5,213,1,48,30,1123262732
97,10,23,Ticks_Phase_5,214,5,42,127,1123281132
97,10,23,Ticks_Phase_5,215,5,42,127,1123780904
97,10,23,Ticks_Phase_5,216,1,48,27,1123786412
97,10,23,Ticks_Phase_5,217,1,48,29,1124243536
97,10,23,Ticks_Phase_5,218,5,42,127,1124280780
97,10,23,Ticks_Phase_5,219,1,48,27,1124754976
97,10,23,Ticks_Phase_5,220,5,42,127,1124781368
97,10,23,Ticks_Phase_5,221,1,48,28,1125282372
97,10,23,Ticks_Phase_5,222,5,42,127,1125291760
97,10,23,Ticks_Phase_5,223,1,48,28,1125785728
97,10,23,Ticks_Phase_5,224,5,42,127,1125791004
97,10,23,Ticks_Phase_5,225,1,48,30,1126281828
97,10,23,Ticks_Phase_5,226,5,42,127,1126290768
97,10,23,Ticks_Phase_5,227,1,48,22,1126764888
97,10,23,Ticks_Phase_5,228,5,42,127,1126790680
97,10,23,Ticks_Phase_5,229,5,42,127,1127291200
97,10,23,Ticks_Phase_5,230,1,48,28,1127292164
97,10,23,Ticks_Phase_5,231,5,42,127,1127790888
97,10,23,Ticks_Phase_5,232,1,48,30,1127816324
97,10,23,Ticks_Phase_5,233,1,48,32,1128257660
97,10,23,Ticks_Phase_5,234,5,42,127,1128340892
97,10,23,Ticks_Phase_5,235,1,48,35,1128834260
97,10,23,Ticks_Phase_5,236,5,42,127,1128840728
97,10,23,Ticks_Phase_5,237,5,42,127,1129341396
97,10,23,Ticks_Phase_5,238,1,48,32,1129390724
97,10,23,Ticks_Phase_5,239,5,42,127,1129841008
97,10,23,Ticks_Phase_5,240,1,48,35,1129877148
97,10,23,Ticks_Phase_5,241,5,42,127,1130340844
97,10,23,Ticks_Phase_5,242,1,48,33,1130348604
97,10,23,Ticks_Phase_5,243,5,42,127,1130840684
97,10,23,Ticks_Phase_5,244,1,48,38,1130856532
97,10,23,Ticks_Phase_5,245,5,42,127,1131341120
97,10,23,Ticks_Phase_5,246,1,48,41,1131379892
97,10,23,Ticks_Phase_5,247,5,42,127,1131840956
97,10,23,Ticks_Phase_5,248,1,48,39,1131847220
97,10,23,Ticks_Phase_5,249,5,42,127,1132340868
97,10,23,Ticks_Phase_5,250,1,48,32,1132360616
97,10,23,Ticks_Phase_5,251,1,48,31,1132841604
97,10,23,Ticks_Phase_5,252,5,42,127,1132842868
97,10,23,Ticks_Phase_5,253,5,42,127,1133341072
97,10,23,Ticks_Phase_5,254,1,48,31,1133356096
97,10,23,Ticks_Phase_5,255,5,42,127,1133840836
97,10,23,Ticks_Phase_5,256,1,48,34,1133845148
97,10,23,Ticks_Phase_5,257,1,48,31,1134329780
97,10,23,Ticks_Phase_5,258,5,42,127,1134340592
97,10,23,Ticks_Phase_5,259,1,48,36,1134813664
97,10,23,Ticks_Phase_5,260,5,42,127,1134841180
97,10,23,Ticks_Phase_5,261,1,48,35,1135334020
97,10,23,Ticks_Phase_5,262,5,42,127,1135340868
97,10,23,Ticks_Phase_5,263,1,48,38,1135824200
97,10,23,Ticks_Phase_5,264,5,42,127,1135840856
97,10,23,Ticks_Phase_5,265,1,48,37,1136331304
97,10,23,Ticks_Phase_5,266,5,42,127,1136341368
97,10,23,Ticks_Phase_5,267,1,48,40,1136843800
97,10,23,Ticks_Phase_5,268,5,42,127,1136941688
97,10,23,Ticks_Phase_5,269,5,42,127,1137451360
97,10,23,Ticks_Phase_5,270,1,48,41,1137537452
97,10,23,Ticks_Phase_5,271,5,42,127,1137950972
97,10,23,Ticks_Phase_5,272,1,48,40,1137999180
97,10,23,Ticks_Phase_5,273,5,42,127,1138450736
97,10,23,Ticks_Phase_5,274,1,48,40,1138453928
97,10,23,Ticks_Phase_5,275,5,42,127,1138950648
97,10,23,Ticks_Phase_5,276,1,48,40,1138953016
97,10,23,Ticks_Phase_5,277,1,48,34,1139448568
97,10,23,Ticks_Phase_5,278,5,42,127,1139451228
97,10,23,Ticks_Phase_5,279,1,48,36,1139947808
97,10,23,Ticks_Phase_5,280,5,42,127,1139951064
97,10,23,Ticks_Phase_5,281,1,48,41,1140432524
97,10,23,Ticks_Phase_5,282,5,42,127,1140450752
97,10,23,Ticks_Phase_5,283,5,42,127,1140951420
97,10,23,Ticks_Phase_5,284,1,48,35,1140959564
97,10,23,Ticks_Phase_5,285,1,48,38,1141444032
97,10,23,Ticks_Phase_5,286,5,42,127,1141451100
97,10,23,Ticks_Phase_5,287,1,48,29,1141898768
97,10,23,Ticks_Phase_5,288,5,42,127,1141950764
97,10,23,Ticks_Phase_5,289,5,42,127,1142450584
97,10,23,Ticks_Phase_5,290,1,48,37,1142467056
97,10,23,Ticks_Phase_5,291,5,42,127,1142951544
97,10,23,Ticks_Phase_5,292,1,48,41,1142976780
97,10,23,Ticks_Phase_5,293,5,42,127,1143450860
97,10,23,Ticks_Phase_5,294,1,48,33,1143455544
97,10,23,Ticks_Phase_5,295,5,42,127,1143950772
97,10,23,Ticks_Phase_5,296,1,48,29,1143965720
97,10,23,Ticks_Phase_5,297,1,48,32,1144422568
97,10,23,Ticks_Phase_5,298,5,42,127,1144450452
97,10,23,Ticks_Phase_5,299,5,42,127,1144951268
97,10,23,Ticks_Phase_5,300,1,48,33,1144978808
97,10,23,Ticks_Phase_5,301,1,48,36,1145442832
97,10,23,Ticks_Phase_5,302,5,42,127,1145450948
97,10,23,Ticks_Phase_5,303,1,48,27,1145903876
97,10,23,Ticks_Phase_5,304,5,42,127,1145950712
97,10,23,Ticks_Phase_5,305,5,42,127,1146350960
97,10,23,Ticks_Phase_5,306,1,48,28,1146470532
97,10,23,Ticks_Phase_5,307,5,42,127,1146850720
97,10,23,Ticks_Phase_5,308,1,48,26,1146906784
97,10,23,Ticks_Phase_5,309,5,42,127,1147351528
97,10,23,Ticks_Phase_5,310,1,48,40,1147355248
97,10,23,Ticks_Phase_5,311,5,42,127,1147851072
97,10,23,Ticks_Phase_5,312,1,48,38,1147857408
97,10,23,Ticks_Phase_5,313,1,48,38,1148336616
97,10,23,Ticks_Phase_5,314,5,42,127,1148350900
97,10,23,Ticks_Phase_5,315,1,48,35,1148812792
97,10,23,Ticks_Phase_5,316,5,42,127,1148850416
97,10,23,Ticks_Phase_5,317,1,48,38,1149343784
97,10,23,Ticks_Phase_5,318,5,42,127,1149351376
97,10,23,Ticks_Phase_5,319,1,48,34,1149822576
97,10,23,Ticks_Phase_5,320,5,42,127,1149850912
97,10,23,Ticks_Phase_5,321,5,42,127,1150350832
97,10,23,Ticks_Phase_5,322,1,48,37,1150392892
97,10,23,Ticks_Phase_5,323,5,42,127,1150850372
97,10,23,Ticks_Phase_5,324,1,48,34,1150922560
97,10,23,Ticks_Phase_5,325,5,42,127,1151351104
97,10,23,Ticks_Phase_5,326,1,48,33,1151363584
97,10,23,Ticks_Phase_5,327,5,42,127,1151850720
97,10,23,Ticks_Phase_5,328,1,48,37,1151868656
97,10,23,Ticks_Phase_5,329,5,42,127,1152350556
97,10,23,Ticks_Phase_5,330,1,48,29,1152366704
97,10,23,Ticks_Phase_5,331,1,48,38,1152838672
97,10,23,Ticks_Phase_5,332,5,42,127,1152851360
97,10,23,Ticks_Phase_5,333,1,48,35,1153348692
97,10,23,Ticks_Phase_5,334,5,42,127,1153351048
97,10,23,Ticks_Phase_5,335,1,48,38,1153818348
97,10,23,Ticks_Phase_5,336,5,42,127,1153850588
97,10,23,Ticks_Phase_5,337,1,48,38,1154308392
97,10,23,Ticks_Phase_5,338,5,42,127,1154350572
97,10,23,Ticks_Phase_5,339,1,48,36,1154831812
97,10,23,Ticks_Phase_5,340,5,42,127,1154851232
97,10,23,Ticks_Phase_5,341,1,48,38,1155318088
97,10,23,Ticks_Phase_5,342,5,42,127,1155350848
97,10,23,Ticks_Phase_5,343,1,48,36,1155818224
97,10,23,Ticks_Phase_5,344,5,42,127,1155850540
97,10,23,Ticks_Phase_5,0,9999,9999,9999,1071328332
97,10,23,Ticks_Phase_5,1,9999,9999,9999,1071829088
97,10,23,Ticks_Phase_5,2,9999,9999,9999,1072328776
97,10,23,Ticks_Phase_5,3,9999,9999,9999,1072828512
97,10,23,Ticks_Phase_5,4,9999,9999,9999,1073328196
97,10,23,Ticks_Phase_5,5,9999,9999,9999,1073828928
97,10,23,Ticks_Phase_5,6,9999,9999,9999,1074328692
97,10,23,Ticks_Phase_5,7,9999,9999,9999,1074828384
97,10,23,Ticks_Phase_5,8,9999,9999,9999,1075328068
97,10,23,Ticks_Phase_5,9,9999,9999,9999,1075828804
97,10,23,Ticks_Phase_5,10,9999,9999,9999,1076328568
97,10,23,Ticks_Phase_5,11,9999,9999,9999,1076828256
97,10,23,Ticks_Phase_5,12,9999,9999,9999,1077328992
97,10,23,Ticks_Phase_5,13,9999,9999,9999,1077828680
97,10,23,Ticks_Phase_5,14,9999,9999,9999,1078328440
97,10,23,Ticks_Phase_5,15,9999,9999,9999,1078828132
97,10,23,Ticks_Phase_5,16,9999,9999,9999,1079328872
97,10,23,Ticks_Phase_5,17,9999,9999,9999,1079828556
97,10,23,Ticks_Phase_5,18,9999,9999,9999,1080328320
97,10,23,Ticks_Phase_5,19,9999,9999,9999,1080828984
97,10,23,Ticks_Phase_5,20,9999,9999,9999,1081328720
97,10,23,Ticks_Phase_5,21,9999,9999,9999,1081828416
97,10,23,Ticks_Phase_5,22,9999,9999,9999,1082328172
97,10,23,Ticks_Phase_5,23,9999,9999,9999,1082828912
97,10,23,Ticks_Phase_5,24,9999,9999,9999,1083328572
97,10,23,Ticks_Phase_5,25,9999,9999,9999,1083828336
97,10,23,Ticks_Phase_5,26,9999,9999,9999,1084329068
97,10,23,Ticks_Phase_5,27,9999,9999,9999,1084828764
97,10,23,Ticks_Phase_5,28,9999,9999,9999,1085328444
97,10,23,Ticks_Phase_5,29,9999,9999,9999,1085828208
97,10,23,Ticks_Phase_5,30,9999,9999,9999,1086318684
97,10,23,Ticks_Phase_5,31,9999,9999,9999,1086818376
97,10,23,Ticks_Phase_5,32,9999,9999,9999,1087318136
97,10,23,Ticks_Phase_5,33,9999,9999,9999,1087818872
97,10,23,Ticks_Phase_5,34,9999,9999,9999,1088318568
97,10,23,Ticks_Phase_5,35,9999,9999,9999,1088818256
97,10,23,Ticks_Phase_5,36,9999,9999,9999,1089318992
97,10,23,Ticks_Phase_5,37,9999,9999,9999,1089818748
97,10,23,Ticks_Phase_5,38,9999,9999,9999,1090318436
97,10,23,Ticks_Phase_5,39,9999,9999,9999,1090818128
97,10,23,Ticks_Phase_5,40,9999,9999,9999,1091318860
97,10,23,Ticks_Phase_5,41,9999,9999,9999,1091818624
97,10,23,Ticks_Phase_5,42,9999,9999,9999,1092318312
97,10,23,Ticks_Phase_5,43,9999,9999,9999,1092819044
97,10,23,Ticks_Phase_5,44,9999,9999,9999,1093318736
97,10,23,Ticks_Phase_5,45,9999,9999,9999,1093818472
97,10,23,Ticks_Phase_5,46,9999,9999,9999,1094318160
97,10,23,Ticks_Phase_5,47,9999,9999,9999,1094818896
97,10,23,Ticks_Phase_5,48,9999,9999,9999,1095328844
97,10,23,Ticks_Phase_5,49,9999,9999,9999,1095828540
97,10,23,Ticks_Phase_5,50,9999,9999,9999,1096328304
97,10,23,Ticks_Phase_5,51,9999,9999,9999,1096829036
97,10,23,Ticks_Phase_5,52,9999,9999,9999,1097328720
97,10,23,Ticks_Phase_5,53,9999,9999,9999,1097828408
97,10,23,Ticks_Phase_5,54,9999,9999,9999,1098328172
97,10,23,Ticks_Phase_5,55,9999,9999,9999,1098828908
97,10,23,Ticks_Phase_5,56,9999,9999,9999,1099328596
97,10,23,Ticks_Phase_5,57,9999,9999,9999,1099828284
97,10,23,Ticks_Phase_5,58,9999,9999,9999,1100329016
97,10,23,Ticks_Phase_5,59,9999,9999,9999,1100828780
97,10,23,Ticks_Phase_5,60,9999,9999,9999,1101328476
97,10,23,Ticks_Phase_5,61,9999,9999,9999,1101828156
97,10,23,Ticks_Phase_5,62,9999,9999,9999,1102328892
97,10,23,Ticks_Phase_5,63,9999,9999,9999,1102828656
97,10,23,Ticks_Phase_5,64,9999,9999,9999,1103348792
97,10,23,Ticks_Phase_5,65,9999,9999,9999,1103848556
97,10,23,Ticks_Phase_5,66,9999,9999,9999,1104348244
97,10,23,Ticks_Phase_5,67,9999,9999,9999,1104848980
97,10,23,Ticks_Phase_5,68,9999,9999,9999,1105348660
97,10,23,Ticks_Phase_5,69,9999,9999,9999,1105848384
97,10,23,Ticks_Phase_5,70,9999,9999,9999,1106348140
97,10,23,Ticks_Phase_5,71,9999,9999,9999,1106848876
97,10,23,Ticks_Phase_5,72,9999,9999,9999,1107348564
97,10,23,Ticks_Phase_5,73,9999,9999,9999,1107848252
97,10,23,Ticks_Phase_5,74,9999,9999,9999,1108348984
97,10,23,Ticks_Phase_5,75,9999,9999,9999,1108848748
97,10,23,Ticks_Phase_5,76,9999,9999,9999,1109348440
97,10,23,Ticks_Phase_5,77,9999,9999,9999,1109848124
97,10,23,Ticks_Phase_5,78,9999,9999,9999,1110348860
97,10,23,Ticks_Phase_5,79,9999,9999,9999,1110848624
97,10,23,Ticks_Phase_5,80,9999,9999,9999,1111348320
97,10,23,Ticks_Phase_5,81,9999,9999,9999,1111828588
97,10,23,Ticks_Phase_5,82,9999,9999,9999,1112328272
97,10,23,Ticks_Phase_5,83,9999,9999,9999,1112828984
97,10,23,Ticks_Phase_5,84,9999,9999,9999,1113328748
97,10,23,Ticks_Phase_5,85,9999,9999,9999,1113828440
97,10,23,Ticks_Phase_5,86,9999,9999,9999,1114328124
97,10,23,Ticks_Phase_5,87,9999,9999,9999,1114828868
97,10,23,Ticks_Phase_5,88,9999,9999,9999,1115328624
97,10,23,Ticks_Phase_5,89,9999,9999,9999,1115828344
97,10,23,Ticks_Phase_5,90,9999,9999,9999,1116329072
97,10,23,Ticks_Phase_5,91,9999,9999,9999,1116828768
97,10,23,Ticks_Phase_5,92,9999,9999,9999,1117328456
97,10,23,Ticks_Phase_5,93,9999,9999,9999,1117828220
97,10,23,Ticks_Phase_5,94,9999,9999,9999,1118328952
97,10,23,Ticks_Phase_5,95,9999,9999,9999,1118828636
97,10,23,Ticks_Phase_5,96,9999,9999,9999,1119328328
97,10,23,Ticks_Phase_5,97,9999,9999,9999,1119778892
97,10,23,Ticks_Phase_5,98,9999,9999,9999,1120278652
97,10,23,Ticks_Phase_5,99,9999,9999,9999,1120778344
97,10,23,Ticks_Phase_5,100,9999,9999,9999,1121279072
97,10,23,Ticks_Phase_5,101,9999,9999,9999,1121778760
97,10,23,Ticks_Phase_5,102,9999,9999,9999,1122278500
97,10,23,Ticks_Phase_5,103,9999,9999,9999,1122778188
97,10,23,Ticks_Phase_5,104,9999,9999,9999,1123278920
97,10,23,Ticks_Phase_5,105,9999,9999,9999,1123778616
97,10,23,Ticks_Phase_5,106,9999,9999,9999,1124278348
97,10,23,Ticks_Phase_5,107,9999,9999,9999,1124779080
97,10,23,Ticks_Phase_5,108,9999,9999,9999,1125289028
97,10,23,Ticks_Phase_5,109,9999,9999,9999,1125788792
97,10,23,Ticks_Phase_5,110,9999,9999,9999,1126288480
97,10,23,Ticks_Phase_5,111,9999,9999,9999,1126788172
97,10,23,Ticks_Phase_5,112,9999,9999,9999,1127288912
97,10,23,Ticks_Phase_5,113,9999,9999,9999,1127788600
97,10,23,Ticks_Phase_5,114,9999,9999,9999,1128338532
97,10,23,Ticks_Phase_5,115,9999,9999,9999,1128838220
97,10,23,Ticks_Phase_5,116,9999,9999,9999,1129338960
97,10,23,Ticks_Phase_5,117,9999,9999,9999,1129838648
97,10,23,Ticks_Phase_5,118,9999,9999,9999,1130338412
97,10,23,Ticks_Phase_5,119,9999,9999,9999,1130838100
97,10,23,Ticks_Phase_5,120,9999,9999,9999,1131338832
97,10,23,Ticks_Phase_5,121,9999,9999,9999,1131838520
97,10,23,Ticks_Phase_5,122,9999,9999,9999,1132338284
97,10,23,Ticks_Phase_5,123,9999,9999,9999,1132839020
97,10,23,Ticks_Phase_5,124,9999,9999,9999,1133338712
97,10,23,Ticks_Phase_5,125,9999,9999,9999,1133838400
97,10,23,Ticks_Phase_5,126,9999,9999,9999,1134338156
97,10,23,Ticks_Phase_5,127,9999,9999,9999,1134838892
97,10,23,Ticks_Phase_5,128,9999,9999,9999,1135338580
97,10,23,Ticks_Phase_5,129,9999,9999,9999,1135838272
97,10,23,Ticks_Phase_5,130,9999,9999,9999,1136339004
97,10,23,Ticks_Phase_5,131,9999,9999,9999,1136939104
97,10,23,Ticks_Phase_5,132,9999,9999,9999,1137449072
97,10,23,Ticks_Phase_5,133,9999,9999,9999,1137948760
97,10,23,Ticks_Phase_5,134,9999,9999,9999,1138448448
97,10,23,Ticks_Phase_5,135,9999,9999,9999,1138948212
97,10,23,Ticks_Phase_5,136,9999,9999,9999,1139448940
97,10,23,Ticks_Phase_5,137,9999,9999,9999,1139948628
97,10,23,Ticks_Phase_5,138,9999,9999,9999,1140448316
97,10,23,Ticks_Phase_5,139,9999,9999,9999,1140949060
97,10,23,Ticks_Phase_5,140,9999,9999,9999,1141448816
97,10,23,Ticks_Phase_5,141,9999,9999,9999,1141948480
97,10,23,Ticks_Phase_5,142,9999,9999,9999,1142448224
97,10,23,Ticks_Phase_5,143,9999,9999,9999,1142948960
97,10,23,Ticks_Phase_5,144,9999,9999,9999,1143448644
97,10,23,Ticks_Phase_5,145,9999,9999,9999,1143948408
97,10,23,Ticks_Phase_5,146,9999,9999,9999,1144448092
97,10,23,Ticks_Phase_5,147,9999,9999,9999,1144948832
97,10,23,Ticks_Phase_5,148,9999,9999,9999,1145448512
97,10,23,Ticks_Phase_5,149,9999,9999,9999,1145948276
97,10,23,Ticks_Phase_5,150,9999,9999,9999,1146348672
97,10,23,Ticks_Phase_5,151,9999,9999,9999,1146848360
97,10,23,Ticks_Phase_5,152,9999,9999,9999,1147349092
97,10,23,Ticks_Phase_5,153,9999,9999,9999,1147848784
97,10,23,Ticks_Phase_5,154,9999,9999,9999,1148348516
97,10,23,Ticks_Phase_5,155,9999,9999,9999,1148848204
97,10,23,Ticks_Phase_5,156,9999,9999,9999,1149348940
97,10,23,Ticks_Phase_5,157,9999,9999,9999,1149848700
97,10,23,Ticks_Phase_5,158,9999,9999,9999,1150348396
97,10,23,Ticks_Phase_5,159,9999,9999,9999,1150848084
97,10,23,Ticks_Phase_5,160,9999,9999,9999,1151348820
97,10,23,Ticks_Phase_5,161,9999,9999,9999,1151848508
97,10,23,Ticks_Phase_5,162,9999,9999,9999,1152348268
97,10,23,Ticks_Phase_5,163,9999,9999,9999,1152849000
97,10,23,Ticks_Phase_5,164,9999,9999,9999,1153348760
97,10,23,Ticks_Phase_5,165,9999,9999,9999,1153848376
97,10,23,Ticks_Phase_5,166,9999,9999,9999,1154348136
97,10,23,Ticks_Phase_5,167,9999,9999,9999,1154848872
97,10,23,Ticks_Phase_5,168,9999,9999,9999,1155348560
97,10,23,Ticks_Phase_5,169,9999,9999,9999,1155848252
97,11,25,Jits_Pract_5,0,5,56,103,1204942112
97,11,25,Jits_Pract_5,1,5,63,98,1204945132
97,11,25,Jits_Pract_5,2,5,80,127,1204948108
97,11,25,Jits_Pract_5,0,5,56,103,1205441840
97,11,25,Jits_Pract_5,1,5,63,98,1205444932
97,11,25,Jits_Pract_5,2,5,80,127,1205448132
97,11,25,Jits_Pract_5,0,5,56,103,1205941700
97,11,25,Jits_Pract_5,1,5,80,127,1205951772
97,11,25,Jits_Pract_5,2,5,63,98,1205972528
97,11,25,Jits_Pract_5,0,5,63,98,1206392144
97,11,25,Jits_Pract_5,1,5,80,127,1206421896
97,11,25,Jits_Pract_5,2,5,56,103,1206432240
97,11,25,Jits_Pract_5,0,5,80,127,1206952480
97,11,25,Jits_Pract_5,1,5,56,103,1206961560
97,11,25,Jits_Pract_5,2,5,63,98,1206992228
97,11,25,Jits_Pract_5,0,5,63,98,1207441744
97,11,25,Jits_Pract_5,1,5,56,103,1207471568
97,11,25,Jits_Pract_5,2,5,80,127,1207481688
97,11,25,Jits_Pract_5,0,5,56,103,1207892600
97,11,25,Jits_Pract_5,1,5,63,98,1207941756
97,11,25,Jits_Pract_5,2,5,80,127,1207961916
97,11,25,Jits_Pract_5,0,5,80,127,1208392044
97,11,25,Jits_Pract_5,1,5,63,98,1208442172
97,11,25,Jits_Pract_5,2,5,56,103,1208482260
97,11,25,Jits_Pract_5,0,5,56,103,1208891712
97,11,25,Jits_Pract_5,1,5,63,98,1208921388
97,11,25,Jits_Pract_5,2,5,80,127,1208992040
97,11,25,Jits_Pract_5,0,5,56,103,1209391680
97,11,25,Jits_Pract_5,1,5,80,127,1209451772
97,11,25,Jits_Pract_5,2,5,63,98,1209481524
97,11,25,Jits_Pract_5,0,5,56,103,1209901540
97,11,25,Jits_Pract_5,1,5,63,98,1209911660
97,11,25,Jits_Pract_5,2,5,80,127,1209951748
97,11,25,Jits_Pract_5,0,5,63,98,1210391916
97,11,25,Jits_Pract_5,1,5,80,127,1210471788
97,11,25,Jits_Pract_5,2,5,56,103,1210482056
97,11,25,Jits_Pract_5,0,5,63,98,1210941844
97,11,25,Jits_Pract_5,1,5,56,103,1210981708
97,11,25,Jits_Pract_5,2,5,80,127,1210984848
97,11,25,Jits_Pract_5,0,5,56,103,1211401560
97,11,25,Jits_Pract_5,1,5,63,98,1211411756
97,11,25,Jits_Pract_5,2,5,80,127,1211451696
97,11,25,Jits_Pract_5,0,5,56,103,1211892084
97,11,25,Jits_Pract_5,1,5,63,98,1211895076
97,11,25,Jits_Pract_5,2,5,80,127,1211911424
97,11,25,Jits_Pract_5,0,9999,9999,9999,1205189700
97,11,25,Jits_Pract_5,1,9999,9999,9999,1205689400
97,11,25,Jits_Pract_5,2,9999,9999,9999,1206189140
97,11,25,Jits_Pract_5,3,9999,9999,9999,1206689852
97,11,25,Jits_Pract_5,4,9999,9999,9999,1207189588
97,11,25,Jits_Pract_5,5,9999,9999,9999,1207689312
97,11,25,Jits_Pract_5,6,9999,9999,9999,1208190012
97,11,25,Jits_Pract_5,7,9999,9999,9999,1208689756
97,11,25,Jits_Pract_5,8,9999,9999,9999,1209189500
97,11,25,Jits_Pract_5,9,9999,9999,9999,1209689168
97,11,25,Jits_Pract_5,10,9999,9999,9999,1210189884
97,11,25,Jits_Pract_5,11,9999,9999,9999,1210689628
97,11,25,Jits_Pract_5,12,9999,9999,9999,1211189352
97,11,25,Jits_Pract_5,13,9999,9999,9999,1211690056
97,11,25,Jits_Pract_5,14,9999,9999,9999,1212189784
97,12,24,Jits_Pract_8,0,1,48,25,1266659848
97,12,24,Jits_Pract_8,1,5,56,103,1267062092
97,12,24,Jits_Pract_8,2,5,63,98,1267065188
97,12,24,Jits_Pract_8,3,5,80,127,1267068460
97,12,24,Jits_Pract_8,0,5,56,103,1267861772
97,12,24,Jits_Pract_8,1,5,63,98,1267864944
97,12,24,Jits_Pract_8,2,5,80,127,1267868072
97,12,24,Jits_Pract_8,3,1,48,39,1268033408
97,12,24,Jits_Pract_8,0,5,80,127,1268602356
97,12,24,Jits_Pract_8,1,1,48,40,1268672560
97,12,24,Jits_Pract_8,2,5,63,98,1268692432
97,12,24,Jits_Pract_8,3,5,56,103,1268701580
97,12,24,Jits_Pract_8,0,1,48,39,1269420860
97,12,24,Jits_Pract_8,1,5,56,103,1269422424
97,12,24,Jits_Pract_8,2,5,63,98,1269431724
97,12,24,Jits_Pract_8,3,5,80,127,1269521712
97,12,24,Jits_Pract_8,0,5,63,98,1270191692
97,12,24,Jits_Pract_8,1,1,48,35,1270208916
97,12,24,Jits_Pract_8,2,5,80,127,1270222136
97,12,24,Jits_Pract_8,3,5,56,103,1270252032
97,12,24,Jits_Pract_8,0,5,56,103,1270992292
97,12,24,Jits_Pract_8,1,1,48,37,1270993632
97,12,24,Jits_Pract_8,2,5,80,127,1271091624
97,12,24,Jits_Pract_8,3,5,63,98,1271141676
97,12,24,Jits_Pract_8,0,1,48,34,1271789628
97,12,24,Jits_Pract_8,1,5,56,103,1271791984
97,12,24,Jits_Pract_8,2,5,80,127,1271842040
97,12,24,Jits_Pract_8,3,5,63,98,1271882052
97,12,24,Jits_Pract_8,0,1,48,31,1272557916
97,12,24,Jits_Pract_8,1,5,80,127,1272621632
97,12,24,Jits_Pract_8,2,5,63,98,1272652044
97,12,24,Jits_Pract_8,3,5,56,103,1272721724
97,12,24,Jits_Pract_8,0,1,48,39,1273441148
97,12,24,Jits_Pract_8,1,5,63,98,1273452032
97,12,24,Jits_Pract_8,2,5,56,103,1273481636
97,12,24,Jits_Pract_8,3,5,80,127,1273542032
97,12,24,Jits_Pract_8,0,5,56,103,1274192164
97,12,24,Jits_Pract_8,1,5,80,127,1274195228
97,12,24,Jits_Pract_8,2,1,48,37,1274245624
97,12,24,Jits_Pract_8,3,5,63,98,1274311980
97,12,24,Jits_Pract_8,0,1,48,39,1275061572
97,12,24,Jits_Pract_8,1,5,56,103,1275071732
97,12,24,Jits_Pract_8,2,5,80,127,1275111820
97,12,24,Jits_Pract_8,3,5,63,98,1275122016
97,12,24,Jits_Pract_8,0,5,56,103,1275831692
97,12,24,Jits_Pract_8,1,5,80,127,1275852080
97,12,24,Jits_Pract_8,2,1,48,36,1275864188
97,12,24,Jits_Pract_8,3,5,63,98,1275932012
97,12,24,Jits_Pract_8,0,5,80,127,1276622324
97,12,24,Jits_Pract_8,1,1,48,36,1276663884
97,12,24,Jits_Pract_8,2,5,56,103,1276721448
97,12,24,Jits_Pract_8,3,5,63,98,1276731716
97,12,24,Jits_Pract_8,0,5,63,98,1277392284
97,12,24,Jits_Pract_8,1,5,80,127,1277451700
97,12,24,Jits_Pract_8,2,5,56,103,1277461896
97,12,24,Jits_Pract_8,3,1,48,35,1277489892
97,12,24,Jits_Pract_8,0,1,48,29,1278152372
97,12,24,Jits_Pract_8,1,5,56,103,1278191880
97,12,24,Jits_Pract_8,2,5,63,98,1278261548
97,12,24,Jits_Pract_8,3,5,80,127,1278264836
97,12,24,Jits_Pract_8,0,9999,9999,9999,1267459152
97,12,24,Jits_Pract_8,1,9999,9999,9999,1268259936
97,12,24,Jits_Pract_8,2,9999,9999,9999,1269059708
97,12,24,Jits_Pract_8,3,9999,9999,9999,1269859404
97,12,24,Jits_Pract_8,4,9999,9999,9999,1270659156
97,12,24,Jits_Pract_8,5,9999,9999,9999,1271459960
97,12,24,Jits_Pract_8,6,9999,9999,9999,1272259680
97,12,24,Jits_Pract_8,7,9999,9999,9999,1273059436
97,12,24,Jits_Pract_8,8,9999,9999,9999,1273859124
97,12,24,Jits_Pract_8,9,9999,9999,9999,1274659916
97,12,24,Jits_Pract_8,10,9999,9999,9999,1275459688
97,12,24,Jits_Pract_8,11,9999,9999,9999,1276259424
97,12,24,Jits_Pract_8,12,9999,9999,9999,1277059128
97,12,24,Jits_Pract_8,13,9999,9999,9999,1277859944
97,12,24,Jits_Pract_8,14,9999,9999,9999,1278659640
97,13,24,Jits_Pract_8,0,5,56,103,1286465076
97,13,24,Jits_Pract_8,1,5,63,98,1286468104
97,13,24,Jits_Pract_8,2,5,80,127,1286471448
97,13,24,Jits_Pract_8,0,1,48,28,1287055344
97,13,24,Jits_Pract_8,1,5,56,103,1287264620
97,13,24,Jits_Pract_8,2,5,63,98,1287267716
97,13,24,Jits_Pract_8,3,5,80,127,1287270992
97,13,24,Jits_Pract_8,0,5,80,127,1288004908
97,13,24,Jits_Pract_8,1,1,48,31,1288016716
97,13,24,Jits_Pract_8,2,5,63,98,1288095336
97,13,24,Jits_Pract_8,3,5,56,103,1288105456
97,13,24,Jits_Pract_8,0,5,56,103,1288825428
97,13,24,Jits_Pract_8,1,1,48,37,1288828696
97,13,24,Jits_Pract_8,2,5,63,98,1288834424
97,13,24,Jits_Pract_8,3,5,80,127,1288925460
97,13,24,Jits_Pract_8,0,5,63,98,1289595380
97,13,24,Jits_Pract_8,1,5,80,127,1289625352
97,13,24,Jits_Pract_8,2,1,48,36,1289640904
97,13,24,Jits_Pract_8,3,5,56,103,1289654652
97,13,24,Jits_Pract_8,0,1,48,39,1290372856
97,13,24,Jits_Pract_8,1,5,56,103,1290395276
97,13,24,Jits_Pract_8,2,5,80,127,1290495384
97,13,24,Jits_Pract_8,3,5,63,98,1290544540
97,13,24,Jits_Pract_8,0,5,56,103,1291194768
97,13,24,Jits_Pract_8,1,1,48,35,1291223444
97,13,24,Jits_Pract_8,2,5,80,127,1291245188
97,13,24,Jits_Pract_8,3,5,63,98,1291284828
97,13,24,Jits_Pract_8,0,1,48,38,1291970748
97,13,24,Jits_Pract_8,1,5,80,127,1292025172
97,13,24,Jits_Pract_8,2,5,63,98,1292054996
97,13,24,Jits_Pract_8,3,5,56,103,1292124660
97,13,24,Jits_Pract_8,0,1,48,41,1292821364
97,13,24,Jits_Pract_8,1,5,63,98,1292854520
97,13,24,Jits_Pract_8,2,5,56,103,1292885464
97,13,24,Jits_Pract_8,3,5,80,127,1292944868
97,13,24,Jits_Pract_8,0,5,56,103,1293595092
97,13,24,Jits_Pract_8,1,5,80,127,1293598084
97,13,24,Jits_Pract_8,2,1,48,41,1293657472
97,13,24,Jits_Pract_8,3,5,63,98,1293714880
97,13,24,Jits_Pract_8,0,1,48,39,1294443372
97,13,24,Jits_Pract_8,1,5,56,103,1294474488
97,13,24,Jits_Pract_8,2,5,80,127,1294514428
97,13,24,Jits_Pract_8,3,5,63,98,1294524724
97,13,24,Jits_Pract_8,0,5,56,103,1295234324
97,13,24,Jits_Pract_8,1,1,48,40,1295236264
97,13,24,Jits_Pract_8,2,5,80,127,1295255148
97,13,24,Jits_Pract_8,3,5,63,98,1295335096
97,13,24,Jits_Pract_8,0,5,80,127,1296025100
97,13,24,Jits_Pract_8,1,1,48,43,1296074404
97,13,24,Jits_Pract_8,2,5,56,103,1296125296
97,13,24,Jits_Pract_8,3,5,63,98,1296134368
97,13,24,Jits_Pract_8,0,5,63,98,1296795056
97,13,24,Jits_Pract_8,1,5,80,127,1296855400
97,13,24,Jits_Pract_8,2,5,56,103,1296864548
97,13,24,Jits_Pract_8,3,1,48,45,1296898160
97,13,24,Jits_Pract_8,0,5,56,103,1297594836
97,13,24,Jits_Pract_8,1,1,48,39,1297642768
97,13,24,Jits_Pract_8,2,5,63,98,1297665408
97,13,24,Jits_Pract_8,3,5,80,127,1297668700
97,13,24,Jits_Pract_8,0,9999,9999,9999,1286862960
97,13,24,Jits_Pract_8,1,9999,9999,9999,1287662652
97,13,24,Jits_Pract_8,2,9999,9999,9999,1288462412
97,13,24,Jits_Pract_8,3,9999,9999,9999,1289262180
97,13,24,Jits_Pract_8,4,9999,9999,9999,1290062920
97,13,24,Jits_Pract_8,5,9999,9999,9999,1290862680
97,13,24,Jits_Pract_8,6,9999,9999,9999,1291662432
97,13,24,Jits_Pract_8,7,9999,9999,9999,1292462200
97,13,24,Jits_Pract_8,8,9999,9999,9999,1293262956
97,13,24,Jits_Pract_8,9,9999,9999,9999,1294062696
97,13,24,Jits_Pract_8,10,9999,9999,9999,1294862396
97,13,24,Jits_Pract_8,11,9999,9999,9999,1295662156
97,13,24,Jits_Pract_8,12,9999,9999,9999,1296462904
97,13,24,Jits_Pract_8,13,9999,9999,9999,1297262672
97,13,24,Jits_Pract_8,14,9999,9999,9999,1298062416
97,14,25,Jits_Pract_5,0,5,56,103,1306306116
97,14,25,Jits_Pract_5,1,5,63,98,1306309068
97,14,25,Jits_Pract_5,2,5,80,127,1306312188
97,14,25,Jits_Pract_5,0,5,56,103,1306805596
97,14,25,Jits_Pract_5,1,5,63,98,1306808496
97,14,25,Jits_Pract_5,2,5,80,127,1306811988
97,14,25,Jits_Pract_5,3,1,48,33,1306901936
97,14,25,Jits_Pract_5,0,1,48,36,1307303672
97,14,25,Jits_Pract_5,1,5,56,103,1307306260
97,14,25,Jits_Pract_5,2,5,80,127,1307315556
97,14,25,Jits_Pract_5,3,5,63,98,1307336040
97,14,25,Jits_Pract_5,0,5,63,98,1307755988
97,14,25,Jits_Pract_5,1,5,80,127,1307785664
97,14,25,Jits_Pract_5,2,5,56,103,1307796232
97,14,25,Jits_Pract_5,3,1,48,41,1307837812
97,14,25,Jits_Pract_5,0,1,48,41,1308308016
97,14,25,Jits_Pract_5,1,5,80,127,1308315984
97,14,25,Jits_Pract_5,2,5,56,103,1308326252
97,14,25,Jits_Pract_5,3,5,63,98,1308355880
97,14,25,Jits_Pract_5,0,5,63,98,1308805572
97,14,25,Jits_Pract_5,1,1,48,40,1308820372
97,14,25,Jits_Pract_5,2,5,56,103,1308836064
97,14,25,Jits_Pract_5,3,5,80,127,1308845436
97,14,25,Jits_Pract_5,0,5,56,103,1309256116
97,14,25,Jits_Pract_5,1,1,48,37,1309306540
97,14,25,Jits_Pract_5,2,5,63,98,1309307656
97,14,25,Jits_Pract_5,3,5,80,127,1309325648
97,14,25,Jits_Pract_5,0,1,48,39,1309742068
97,14,25,Jits_Pract_5,1,5,80,127,1309756040
97,14,25,Jits_Pract_5,2,5,63,98,1309806020
97,14,25,Jits_Pract_5,3,5,56,103,1309845940
97,14,25,Jits_Pract_5,0,5,56,103,1310255444
97,14,25,Jits_Pract_5,1,1,48,43,1310275424
97,14,25,Jits_Pract_5,2,5,63,98,1310286160
97,14,25,Jits_Pract_5,3,5,80,127,1310355840
97,14,25,Jits_Pract_5,0,5,56,103,1310756196
97,14,25,Jits_Pract_5,1,1,48,42,1310788764
97,14,25,Jits_Pract_5,2,5,80,127,1310815536
97,14,25,Jits_Pract_5,3,5,63,98,1310846184
97,14,25,Jits_Pract_5,0,5,56,103,1311266016
97,14,25,Jits_Pract_5,1,5,63,98,1311276884
97,14,25,Jits_Pract_5,2,1,48,43,1311292884
97,14,25,Jits_Pract_5,3,5,80,127,1311316440
97,14,25,Jits_Pract_5,0,1,48,34,1311713224
97,14,25,Jits_Pract_5,1,5,63,98,1311755892
97,14,25,Jits_Pract_5,2,5,80,127,1311835376
97,14,25,Jits_Pract_5,3,5,56,103,1311845944
97,14,25,Jits_Pract_5,0,5,63,98,1312305492
97,14,25,Jits_Pract_5,1,1,48,40,1312313400
97,14,25,Jits_Pract_5,2,5,56,103,1312345496
97,14,25,Jits_Pract_5,3,5,80,127,1312348712
97,14,25,Jits_Pract_5,0,5,56,103,1312766288
97,14,25,Jits_Pract_5,1,5,63,98,1312775588
97,14,25,Jits_Pract_5,2,5,80,127,1312815452
97,14,25,Jits_Pract_5,3,1,48,38,1312864424
97,14,25,Jits_Pract_5,0,5,56,103,1313256024
97,14,25,Jits_Pract_5,1,5,63,98,1313259016
97,14,25,Jits_Pract_5,2,5,80,127,1313276332
97,14,25,Jits_Pract_5,3,1,48,38,1313314072
97,14,25,Jits_Pract_5,0,9999,9999,9999,1306553404
97,14,25,Jits_Pract_5,1,9999,9999,9999,1307053160
97,14,25,Jits_Pract_5,2,9999,9999,9999,1307553908
97,14,25,Jits_Pract_5,3,9999,9999,9999,1308053600
97,14,25,Jits_Pract_5,4,9999,9999,9999,1308553296
97,14,25,Jits_Pract_5,5,9999,9999,9999,1309054040
97,14,25,Jits_Pract_5,6,9999,9999,9999,1309553732
97,14,25,Jits_Pract_5,7,9999,9999,9999,1310053440
97,14,25,Jits_Pract_5,8,9999,9999,9999,1310553208
97,14,25,Jits_Pract_5,9,9999,9999,9999,1311053892
97,14,25,Jits_Pract_5,10,9999,9999,9999,1311553588
97,14,25,Jits_Pract_5,11,9999,9999,9999,1312053368
97,14,25,Jits_Pract_5,12,9999,9999,9999,1312554100
97,14,25,Jits_Pract_5,13,9999,9999,9999,1313053788
97,14,25,Jits_Pract_5,14,9999,9999,9999,1313553476
97,15,18,Jits_Linear_8,0,5,56,103,1344047392
97,15,18,Jits_Linear_8,1,5,63,98,1344050568
97,15,18,Jits_Linear_8,2,5,80,127,1344053692
97,15,18,Jits_Linear_8,0,1,48,18,1344577256
97,15,18,Jits_Linear_8,1,5,56,103,1344867680
97,15,18,Jits_Linear_8,2,5,63,98,1344870928
97,15,18,Jits_Linear_8,3,5,80,127,1344874124
97,15,18,Jits_Linear_8,0,1,48,27,1345582892
97,15,18,Jits_Linear_8,1,5,80,127,1345627432
97,15,18,Jits_Linear_8,2,5,63,98,1345717504
97,15,18,Jits_Linear_8,3,5,56,103,1345727776
97,15,18,Jits_Linear_8,0,5,56,103,1346468396
97,15,18,Jits_Linear_8,1,5,63,98,1346477472
97,15,18,Jits_Linear_8,2,1,48,26,1346486840
97,15,18,Jits_Linear_8,3,5,80,127,1346567472
97,15,18,Jits_Linear_8,0,5,63,98,1347257772
97,15,18,Jits_Linear_8,1,1,48,38,1347281568
97,15,18,Jits_Linear_8,2,5,80,127,1347288416
97,15,18,Jits_Linear_8,3,5,56,103,1347318388
97,15,18,Jits_Linear_8,0,1,48,32,1348063696
97,15,18,Jits_Linear_8,1,5,56,103,1348077888
97,15,18,Jits_Linear_8,2,5,80,127,1348178348
97,15,18,Jits_Linear_8,3,5,63,98,1348227504
97,15,18,Jits_Linear_8,0,5,56,103,1348887912
97,15,18,Jits_Linear_8,1,1,48,33,1348935452
97,15,18,Jits_Linear_8,2,5,80,127,1348938484
97,15,18,Jits_Linear_8,3,5,63,98,1348978124
97,15,18,Jits_Linear_8,0,1,48,32,1349694980
97,15,18,Jits_Linear_8,1,5,80,127,1349727532
97,15,18,Jits_Linear_8,2,5,63,98,1349758480
97,15,18,Jits_Linear_8,3,5,56,103,1349827948
97,15,18,Jits_Linear_8,0,1,48,35,1350537528
97,15,18,Jits_Linear_8,1,5,63,98,1350568492
97,15,18,Jits_Linear_8,2,5,56,103,1350597972
97,15,18,Jits_Linear_8,3,5,80,127,1350658424
97,15,18,Jits_Linear_8,0,5,56,103,1351317832
97,15,18,Jits_Linear_8,1,5,80,127,1351321048
97,15,18,Jits_Linear_8,2,1,48,30,1351355432
97,15,18,Jits_Linear_8,3,5,63,98,1351437652
97,15,18,Jits_Linear_8,0,1,48,29,1352168308
97,15,18,Jits_Linear_8,1,5,56,103,1352197480
97,15,18,Jits_Linear_8,2,5,80,127,1352237568
97,15,18,Jits_Linear_8,3,5,63,98,1352247840
97,15,18,Jits_Linear_8,0,5,56,103,1352958432
97,15,18,Jits_Linear_8,1,5,80,127,1352977844
97,15,18,Jits_Linear_8,2,1,48,38,1352986588
97,15,18,Jits_Linear_8,3,5,63,98,1353057784
97,15,18,Jits_Linear_8,0,5,80,127,1353747780
97,15,18,Jits_Linear_8,1,1,48,27,1353770528
97,15,18,Jits_Linear_8,2,5,56,103,1353848176
97,15,18,Jits_Linear_8,3,5,63,98,1353858520
97,15,18,Jits_Linear_8,0,5,63,98,1354517808
97,15,18,Jits_Linear_8,1,5,80,127,1354578352
97,15,18,Jits_Linear_8,2,5,56,103,1354587500
97,15,18,Jits_Linear_8,3,1,48,34,1354635036
97,15,18,Jits_Linear_8,0,1,48,27,1355298716
97,15,18,Jits_Linear_8,1,5,56,103,1355317552
97,15,18,Jits_Linear_8,2,5,63,98,1355388500
97,15,18,Jits_Linear_8,3,5,80,127,1355392452
97,15,18,Jits_Linear_8,0,1,48,30,1356078680
97,15,18,Jits_Linear_8,1,5,63,98,1356148304
97,15,18,Jits_Linear_8,2,5,56,103,1356198420
97,15,18,Jits_Linear_8,3,5,80,127,1356201412
97,15,18,Jits_Linear_8,0,1,48,31,1356893328
97,15,18,Jits_Linear_8,1,5,56,103,1356897700
97,15,18,Jits_Linear_8,2,5,80,127,1356900768
97,15,18,Jits_Linear_8,3,5,63,98,1356987692
97,15,18,Jits_Linear_8,0,1,48,36,1357706932
97,15,18,Jits_Linear_8,1,5,63,98,1357728084
97,15,18,Jits_Linear_8,2,5,56,103,1357818080
97,15,18,Jits_Linear_8,3,5,80,127,1357848128
97,15,18,Jits_Linear_8,0,5,56,103,1358508444
97,15,18,Jits_Linear_8,1,1,48,36,1358518184
97,15,18,Jits_Linear_8,2,5,63,98,1358607740
97,15,18,Jits_Linear_8,3,5,80,127,1358637476
97,15,18,Jits_Linear_8,0,1,48,35,1359316236
97,15,18,Jits_Linear_8,1,5,63,98,1359318276
97,15,18,Jits_Linear_8,2,5,56,103,1359327572
97,15,18,Jits_Linear_8,3,5,80,127,1359417692
97,15,18,Jits_Linear_8,0,1,48,31,1360102264
97,15,18,Jits_Linear_8,1,5,63,98,1360118108
97,15,18,Jits_Linear_8,2,5,56,103,1360198200
97,15,18,Jits_Linear_8,3,5,80,127,1360201344
97,15,18,Jits_Linear_8,0,5,80,127,1360857404
97,15,18,Jits_Linear_8,1,5,63,98,1360878012
97,15,18,Jits_Linear_8,2,1,48,34,1360922260
97,15,18,Jits_Linear_8,3,5,56,103,1360938400
97,15,18,Jits_Linear_8,0,5,56,103,1361677628
97,15,18,Jits_Linear_8,1,1,48,34,1361682316
97,15,18,Jits_Linear_8,2,5,63,98,1361698152
97,15,18,Jits_Linear_8,3,5,80,127,1361701368
97,15,18,Jits_Linear_8,0,5,63,98,1362397516
97,15,18,Jits_Linear_8,1,1,48,39,1362425352
97,15,18,Jits_Linear_8,2,5,80,127,1362477384
97,15,18,Jits_Linear_8,3,5,56,103,1362487656
97,15,18,Jits_Linear_8,0,5,63,98,1363198320
97,15,18,Jits_Linear_8,1,1,48,36,1363208488
97,15,18,Jits_Linear_8,2,5,56,103,1363217724
97,15,18,Jits_Linear_8,3,5,80,127,1363268224
97,15,18,Jits_Linear_8,0,1,48,41,1363966132
97,15,18,Jits_Linear_8,1,5,80,127,1363977540
97,15,18,Jits_Linear_8,2,5,63,98,1364017480
97,15,18,Jits_Linear_8,3,5,56,103,1364038312
97,15,18,Jits_Linear_8,0,5,56,103,1364787564
97,15,18,Jits_Linear_8,1,1,48,36,1364790232
97,15,18,Jits_Linear_8,2,5,63,98,1364797832
97,15,18,Jits_Linear_8,3,5,80,127,1364818216
97,15,18,Jits_Linear_8,0,5,56,103,1365488132
97,15,18,Jits_Linear_8,1,1,48,42,1365547300
97,15,18,Jits_Linear_8,2,5,63,98,1365578188
97,15,18,Jits_Linear_8,3,5,80,127,1365637456
97,15,18,Jits_Linear_8,0,5,80,127,1366287680
97,15,18,Jits_Linear_8,1,5,56,103,1366297948
97,15,18,Jits_Linear_8,2,1,48,38,1366324812
97,15,18,Jits_Linear_8,3,5,63,98,1366367548
97,15,18,Jits_Linear_8,0,1,48,38,1367056176
97,15,18,Jits_Linear_8,1,5,63,98,1367087368
97,15,18,Jits_Linear_8,2,5,80,127,1367177636
97,15,18,Jits_Linear_8,3,5,56,103,1367187904
97,15,18,Jits_Linear_8,0,5,63,98,1367788156
97,15,18,Jits_Linear_8,1,5,80,127,1367838208
97,15,18,Jits_Linear_8,2,1,48,32,1367845144
97,15,18,Jits_Linear_8,3,5,56,103,1367897472
97,15,18,Jits_Linear_8,0,1,48,36,1368577412
97,15,18,Jits_Linear_8,1,5,56,103,1368578836
97,15,18,Jits_Linear_8,2,5,80,127,1368627544
97,15,18,Jits_Linear_8,3,5,63,98,1368648152
97,15,18,Jits_Linear_8,0,5,56,103,1369307488
97,15,18,Jits_Linear_8,1,1,48,31,1369346500
97,15,18,Jits_Linear_8,2,5,80,127,1369368024
97,15,18,Jits_Linear_8,3,5,63,98,1369437480
97,15,18,Jits_Linear_8,0,5,56,103,1370068296
97,15,18,Jits_Linear_8,1,5,80,127,1370098120
97,15,18,Jits_Linear_8,2,1,48,40,1370107016
97,15,18,Jits_Linear_8,3,5,63,98,1370127864
97,15,18,Jits_Linear_8,0,5,56,103,1370868132
97,15,18,Jits_Linear_8,1,1,48,36,1370880096
97,15,18,Jits_Linear_8,2,5,80,127,1370887464
97,15,18,Jits_Linear_8,3,5,63,98,1370948076
97,15,18,Jits_Linear_8,0,1,48,45,1371647200
97,15,18,Jits_Linear_8,1,5,80,127,1371707908
97,15,18,Jits_Linear_8,2,5,56,103,1371718252
97,15,18,Jits_Linear_8,3,5,63,98,1371728300
97,15,18,Jits_Linear_8,0,5,56,103,1372418372
97,15,18,Jits_Linear_8,1,1,48,46,1372439628
97,15,18,Jits_Linear_8,2,5,80,127,1372458380
97,15,18,Jits_Linear_8,3,5,63,98,1372488128
97,15,18,Jits_Linear_8,0,5,56,103,1373138428
97,15,18,Jits_Linear_8,1,5,63,98,1373168104
97,15,18,Jits_Linear_8,2,5,80,127,1373207968
97,15,18,Jits_Linear_8,3,1,48,45,1373225760
97,15,18,Jits_Linear_8,0,5,80,127,1373837776
97,15,18,Jits_Linear_8,1,5,63,98,1373887856
97,15,18,Jits_Linear_8,2,5,56,103,1373908464
97,15,18,Jits_Linear_8,3,1,48,35,1373974056
97,15,18,Jits_Linear_8,0,5,56,103,1374618136
97,15,18,Jits_Linear_8,1,1,48,41,1374644428
97,15,18,Jits_Linear_8,2,5,80,127,1374687540
97,15,18,Jits_Linear_8,3,5,63,98,1374747992
97,15,18,Jits_Linear_8,0,5,80,127,1375358272
97,15,18,Jits_Linear_8,1,1,48,45,1375431168
97,15,18,Jits_Linear_8,2,5,63,98,1375448428
97,15,18,Jits_Linear_8,3,5,56,103,1375467988
97,15,18,Jits_Linear_8,0,5,63,98,1376118116
97,15,18,Jits_Linear_8,1,5,56,103,1376137676
97,15,18,Jits_Linear_8,2,5,80,127,1376177468
97,15,18,Jits_Linear_8,3,1,48,43,1376207060
97,15,18,Jits_Linear_8,0,5,80,127,1376817472
97,15,18,Jits_Linear_8,1,5,63,98,1376837932
97,15,18,Jits_Linear_8,2,5,56,103,1376918100
97,15,18,Jits_Linear_8,3,1,48,44,1376955172
97,15,18,Jits_Linear_8,0,5,63,98,1377547856
97,15,18,Jits_Linear_8,1,1,48,40,1377648904
97,15,18,Jits_Linear_8,2,5,56,103,1377658288
97,15,18,Jits_Linear_8,3,5,80,127,1377661356
97,15,18,Jits_Linear_8,0,5,63,98,1378307372
97,15,18,Jits_Linear_8,1,5,56,103,1378317640
97,15,18,Jits_Linear_8,2,5,80,127,1378320856
97,15,18,Jits_Linear_8,3,1,48,43,1378365940
97,15,18,Jits_Linear_8,0,5,56,103,1379028208
97,15,18,Jits_Linear_8,1,1,48,42,1379074104
97,15,18,Jits_Linear_8,2,5,80,127,1379148156
97,15,18,Jits_Linear_8,3,5,63,98,1379188152
97,15,18,Jits_Linear_8,0,5,56,103,1379778008
97,15,18,Jits_Linear_8,1,5,80,127,1379858028
97,15,18,Jits_Linear_8,2,1,48,42,1379877288
97,15,18,Jits_Linear_8,3,5,63,98,1379878852
97,15,18,Jits_Linear_8,0,5,56,103,1380508076
97,15,18,Jits_Linear_8,1,5,63,98,1380617792
97,15,18,Jits_Linear_8,2,5,80,127,1380621156
97,15,18,Jits_Linear_8,3,1,48,43,1380641584
97,15,18,Jits_Linear_8,0,5,56,103,1381267912
97,15,18,Jits_Linear_8,1,5,80,127,1381297588
97,15,18,Jits_Linear_8,2,5,63,98,1381317996
97,15,18,Jits_Linear_8,3,1,48,45,1381362840
97,15,18,Jits_Linear_8,0,5,63,98,1381977404
97,15,18,Jits_Linear_8,1,5,56,103,1381988044
97,15,18,Jits_Linear_8,2,5,80,127,1381998092
97,15,18,Jits_Linear_8,3,1,48,45,1382098332
97,15,18,Jits_Linear_8,0,5,80,127,1382688072
97,15,18,Jits_Linear_8,1,5,56,103,1382738348
97,15,18,Jits_Linear_8,2,5,63,98,1382778216
97,15,18,Jits_Linear_8,3,1,48,34,1382803128
97,15,18,Jits_Linear_8,0,5,80,127,1383427452
97,15,18,Jits_Linear_8,1,5,63,98,1383447840
97,15,18,Jits_Linear_8,2,1,48,34,1383465780
97,15,18,Jits_Linear_8,3,5,56,103,1383497960
97,15,18,Jits_Linear_8,0,5,80,127,1384157548
97,15,18,Jits_Linear_8,1,1,48,42,1384175884
97,15,18,Jits_Linear_8,2,5,56,103,1384188264
97,15,18,Jits_Linear_8,3,5,63,98,1384258020
97,15,18,Jits_Linear_8,0,1,48,52,1384871544
97,15,18,Jits_Linear_8,1,5,56,103,1384927792
97,15,18,Jits_Linear_8,2,5,80,127,1384938064
97,15,18,Jits_Linear_8,3,5,63,98,1384977912
97,15,18,Jits_Linear_8,0,5,56,103,1385558288
97,15,18,Jits_Linear_8,1,5,63,98,1385577924
97,15,18,Jits_Linear_8,2,1,48,46,1385621872
97,15,18,Jits_Linear_8,3,5,80,127,1385647524
97,15,18,Jits_Linear_8,0,5,63,98,1386297816
97,15,18,Jits_Linear_8,1,1,48,46,1386302056
97,15,18,Jits_Linear_8,2,5,80,127,1386358204
97,15,18,Jits_Linear_8,3,5,56,103,1386377540
97,15,18,Jits_Linear_8,0,5,80,127,1386998076
97,15,18,Jits_Linear_8,1,5,56,103,1387027752
97,15,18,Jits_Linear_8,2,1,48,47,1387033412
97,15,18,Jits_Linear_8,3,5,63,98,1387057796
97,15,18,Jits_Linear_8,0,5,56,103,1387707864
97,15,18,Jits_Linear_8,1,1,48,46,1387732036
97,15,18,Jits_Linear_8,2,5,63,98,1387768324
97,15,18,Jits_Linear_8,3,5,80,127,1387827504
97,15,18,Jits_Linear_8,0,5,80,127,1388437860
97,15,18,Jits_Linear_8,1,5,56,103,1388458320
97,15,18,Jits_Linear_8,2,1,48,54,1388504236
97,15,18,Jits_Linear_8,3,5,63,98,1388527944
97,15,18,Jits_Linear_8,0,5,80,127,1389147500
97,15,18,Jits_Linear_8,1,5,63,98,1389168108
97,15,18,Jits_Linear_8,2,5,56,103,1389197936
97,15,18,Jits_Linear_8,3,1,48,47,1389229300
97,15,18,Jits_Linear_8,0,5,80,127,1389837808
97,15,18,Jits_Linear_8,1,5,63,98,1389858192
97,15,18,Jits_Linear_8,2,5,56,103,1389917684
97,15,18,Jits_Linear_8,3,1,48,45,1389918652
97,15,18,Jits_Linear_8,0,5,80,127,1390538156
97,15,18,Jits_Linear_8,1,1,48,39,1390609904
97,15,18,Jits_Linear_8,2,5,56,103,1390637280
97,15,18,Jits_Linear_8,3,5,63,98,1390668076
97,15,18,Jits_Linear_8,0,5,63,98,1391228224
97,15,18,Jits_Linear_8,1,5,80,127,1391277528
97,15,18,Jits_Linear_8,2,5,56,103,1391297792
97,15,18,Jits_Linear_8,3,1,48,43,1391319788
97,15,18,Jits_Linear_8,0,5,80,127,1391967668
97,15,18,Jits_Linear_8,1,5,56,103,1391998464
97,15,18,Jits_Linear_8,2,5,63,98,1392001456
97,15,18,Jits_Linear_8,3,1,48,46,1392015900
97,15,18,Jits_Linear_8,0,5,63,98,1392697980
97,15,18,Jits_Linear_8,1,5,56,103,1392737768
97,15,18,Jits_Linear_8,2,1,48,47,1392742612
97,15,18,Jits_Linear_8,3,5,80,127,1392758148
97,15,18,Jits_Linear_8,0,5,80,127,1393337708
97,15,18,Jits_Linear_8,1,5,63,98,1393417728
97,15,18,Jits_Linear_8,2,1,48,43,1393439208
97,15,18,Jits_Linear_8,3,5,56,103,1393457808
97,15,18,Jits_Linear_8,0,5,63,98,1394048524
97,15,18,Jits_Linear_8,1,1,48,33,1394105848
97,15,18,Jits_Linear_8,2,5,80,127,1394128192
97,15,18,Jits_Linear_8,3,5,56,103,1394147900
97,15,18,Jits_Linear_8,0,5,56,103,1394777412
97,15,18,Jits_Linear_8,1,5,63,98,1394787684
97,15,18,Jits_Linear_8,2,1,48,37,1394810208
97,15,18,Jits_Linear_8,3,5,80,127,1394827840
97,15,18,Jits_Linear_8,0,5,56,103,1395387852
97,15,18,Jits_Linear_8,1,5,80,127,1395390996
97,15,18,Jits_Linear_8,2,1,48,46,1395485064
97,15,18,Jits_Linear_8,3,5,63,98,1395528028
97,15,18,Jits_Linear_8,0,5,56,103,1396067864
97,15,18,Jits_Linear_8,1,1,48,41,1396094876
97,15,18,Jits_Linear_8,2,5,63,98,1396157796
97,15,18,Jits_Linear_8,3,5,80,127,1396227312
97,15,18,Jits_Linear_8,0,1,48,47,1396783240
97,15,18,Jits_Linear_8,1,5,63,98,1396827928
97,15,18,Jits_Linear_8,2,5,80,127,1396831064
97,15,18,Jits_Linear_8,3,5,56,103,1396887848
97,15,18,Jits_Linear_8,0,1,48,45,1397511060
97,15,18,Jits_Linear_8,1,5,80,127,1397548628
97,15,18,Jits_Linear_8,2,5,56,103,1397567816
97,15,18,Jits_Linear_8,3,5,63,98,1397578012
97,15,18,Jits_Linear_8,0,5,56,103,1398147736
97,15,18,Jits_Linear_8,1,5,63,98,1398157636
97,15,18,Jits_Linear_8,2,1,48,43,1398228464
97,15,18,Jits_Linear_8,3,5,80,127,1398229800
97,15,18,Jits_Linear_8,0,5,80,127,1398828532
97,15,18,Jits_Linear_8,1,5,56,103,1398877836
97,15,18,Jits_Linear_8,2,1,48,42,1398905224
97,15,18,Jits_Linear_8,3,5,63,98,1398927808
97,15,18,Jits_Linear_8,0,1,48,42,1399580772
97,15,18,Jits_Linear_8,1,5,56,103,1399588288
97,15,18,Jits_Linear_8,2,5,63,98,1399597512
97,15,18,Jits_Linear_8,3,5,80,127,1399638348
97,15,18,Jits_Linear_8,0,5,56,103,1400207700
97,15,18,Jits_Linear_8,1,5,63,98,1400247664
97,15,18,Jits_Linear_8,2,1,48,44,1400279404
97,15,18,Jits_Linear_8,3,5,80,127,1400297708
97,15,18,Jits_Linear_8,0,5,80,127,1400837700
97,15,18,Jits_Linear_8,1,5,56,103,1400887752
97,15,18,Jits_Linear_8,2,5,63,98,1400908136
97,15,18,Jits_Linear_8,3,1,48,46,1400913720
97,15,18,Jits_Linear_8,0,5,80,127,1401517640
97,15,18,Jits_Linear_8,1,1,48,39,1401523408
97,15,18,Jits_Linear_8,2,5,63,98,1401577904
97,15,18,Jits_Linear_8,3,5,56,103,1401657832
97,15,18,Jits_Linear_8,0,5,80,127,1402167648
97,15,18,Jits_Linear_8,1,1,48,46,1402205392
97,15,18,Jits_Linear_8,2,5,56,103,1402207732
97,15,18,Jits_Linear_8,3,5,63,98,1402228040
97,15,18,Jits_Linear_8,0,1,48,43,1402860316
97,15,18,Jits_Linear_8,1,5,56,103,1402887692
97,15,18,Jits_Linear_8,2,5,80,127,1402897740
97,15,18,Jits_Linear_8,3,5,63,98,1402937752
97,15,18,Jits_Linear_8,0,1,48,42,1403556072
97,15,18,Jits_Linear_8,1,5,56,103,1403617632
97,15,18,Jits_Linear_8,2,5,63,98,1403657776
97,15,18,Jits_Linear_8,3,5,80,127,1403661216
97,15,18,Jits_Linear_8,0,5,63,98,1404167652
97,15,18,Jits_Linear_8,1,5,80,127,1404207740
97,15,18,Jits_Linear_8,2,1,48,36,1404260152
97,15,18,Jits_Linear_8,3,5,56,103,1404278012
97,15,18,Jits_Linear_8,0,5,63,98,1404817760
97,15,18,Jits_Linear_8,1,1,48,39,1404875660
97,15,18,Jits_Linear_8,2,5,56,103,1404897728
97,15,18,Jits_Linear_8,3,5,80,127,1404958044
97,15,18,Jits_Linear_8,0,5,80,127,1405487532
97,15,18,Jits_Linear_8,1,1,48,43,1405507668
97,15,18,Jits_Linear_8,2,5,63,98,1405537732
97,15,18,Jits_Linear_8,3,5,56,103,1405568528
97,15,18,Jits_Linear_8,0,5,56,103,1406137684
97,15,18,Jits_Linear_8,1,1,48,44,1406155780
97,15,18,Jits_Linear_8,2,5,63,98,1406187880
97,15,18,Jits_Linear_8,3,5,80,127,1406198076
97,15,18,Jits_Linear_8,0,1,48,46,1406794812
97,15,18,Jits_Linear_8,1,5,56,103,1406808704
97,15,18,Jits_Linear_8,2,5,63,98,1406918032
97,15,18,Jits_Linear_8,3,5,80,127,1406937444
97,15,18,Jits_Linear_8,0,5,63,98,1407457732
97,15,18,Jits_Linear_8,1,1,48,48,1407501604
97,15,18,Jits_Linear_8,2,5,80,127,1407507852
97,15,18,Jits_Linear_8,3,5,56,103,1407598120
97,15,18,Jits_Linear_8,0,5,63,98,1408097808
97,15,18,Jits_Linear_8,1,5,80,127,1408128604
97,15,18,Jits_Linear_8,2,5,56,103,1408217640
97,15,18,Jits_Linear_8,3,1,48,49,1408219208
97,15,18,Jits_Linear_8,0,5,63,98,1408747868
97,15,18,Jits_Linear_8,1,5,56,103,1408758064
97,15,18,Jits_Linear_8,2,5,80,127,1408857640
97,15,18,Jits_Linear_8,3,1,48,48,1408903308
97,15,18,Jits_Linear_8,0,5,63,98,1409497656
97,15,18,Jits_Linear_8,1,5,80,127,1409528304
97,15,18,Jits_Linear_8,2,1,48,48,1409539964
97,15,18,Jits_Linear_8,3,5,56,103,1409557748
97,15,18,Jits_Linear_8,0,5,80,127,1410157820
97,15,18,Jits_Linear_8,1,5,63,98,1410168088
97,15,18,Jits_Linear_8,2,5,56,103,1410197764
97,15,18,Jits_Linear_8,3,1,48,47,1410225712
97,15,18,Jits_Linear_8,0,5,80,127,1410697592
97,15,18,Jits_Linear_8,1,5,63,98,1410717976
97,15,18,Jits_Linear_8,2,5,56,103,1410768352
97,15,18,Jits_Linear_8,3,1,48,48,1410881596
97,15,18,Jits_Linear_8,0,5,63,98,1411368568
97,15,18,Jits_Linear_8,1,5,80,127,1411427692
97,15,18,Jits_Linear_8,2,5,56,103,1411448224
97,15,18,Jits_Linear_8,3,1,48,47,1411486112
97,15,18,Jits_Linear_8,0,5,63,98,1411968564
97,15,18,Jits_Linear_8,1,5,56,103,1412017668
97,15,18,Jits_Linear_8,2,5,80,127,1412027868
97,15,18,Jits_Linear_8,3,1,48,50,1412089792
97,15,18,Jits_Linear_8,0,5,56,103,1412638032
97,15,18,Jits_Linear_8,1,5,80,127,1412648300
97,15,18,Jits_Linear_8,2,1,48,48,1412688432
97,15,18,Jits_Linear_8,3,5,63,98,1412747572
97,15,18,Jits_Linear_8,0,5,80,127,1413238040
97,15,18,Jits_Linear_8,1,5,63,98,1413248612
97,15,18,Jits_Linear_8,2,1,48,50,1413333112
97,15,18,Jits_Linear_8,3,5,56,103,1413397796
97,15,18,Jits_Linear_8,0,5,63,98,1413878448
97,15,18,Jits_Linear_8,1,5,80,127,1413918016
97,15,18,Jits_Linear_8,2,1,48,49,1413939568
97,15,18,Jits_Linear_8,3,5,56,103,1413998028
97,15,18,Jits_Linear_8,0,5,56,103,1414497624
97,15,18,Jits_Linear_8,1,1,48,49,1414563520
97,15,18,Jits_Linear_8,2,5,80,127,1414597892
97,15,18,Jits_Linear_8,3,5,63,98,1414617528
97,15,18,Jits_Linear_8,0,5,80,127,1415187788
97,15,18,Jits_Linear_8,1,1,48,51,1415192328
97,15,18,Jits_Linear_8,2,5,56,103,1415198052
97,15,18,Jits_Linear_8,3,5,63,98,1415288392
97,15,18,Jits_Linear_8,0,5,56,103,1415817544
97,15,18,Jits_Linear_8,1,5,63,98,1415838004
97,15,18,Jits_Linear_8,2,1,48,50,1415878688
97,15,18,Jits_Linear_8,3,5,80,127,1415917820
97,15,18,Jits_Linear_8,0,5,63,98,1416387840
97,15,18,Jits_Linear_8,1,5,56,103,1416478196
97,15,18,Jits_Linear_8,2,5,80,127,1416481260
97,15,18,Jits_Linear_8,3,1,48,46,1416487988
97,15,18,Jits_Linear_8,0,1,48,40,1417032960
97,15,18,Jits_Linear_8,1,5,56,103,1417038308
97,15,18,Jits_Linear_8,2,5,80,127,1417097584
97,15,18,Jits_Linear_8,3,5,63,98,1417107852
97,15,18,Jits_Linear_8,0,1,48,47,1417676440
97,15,18,Jits_Linear_8,1,5,80,127,1417707928
97,15,18,Jits_Linear_8,2,5,56,103,1417718268
97,15,18,Jits_Linear_8,3,5,63,98,1417721412
97,15,18,Jits_Linear_8,0,1,48,41,1418274612
97,15,18,Jits_Linear_8,1,5,56,103,1418287460
97,15,18,Jits_Linear_8,2,5,80,127,1418297732
97,15,18,Jits_Linear_8,3,5,63,98,1418318488
97,15,18,Jits_Linear_8,0,1,48,43,1418876348
97,15,18,Jits_Linear_8,1,5,63,98,1418878456
97,15,18,Jits_Linear_8,2,5,80,127,1418937680
97,15,18,Jits_Linear_8,3,5,56,103,1418987940
97,15,18,Jits_Linear_8,0,1,48,46,1419501972
97,15,18,Jits_Linear_8,1,5,63,98,1419577604
97,15,18,Jits_Linear_8,2,5,56,103,1419588100
97,15,18,Jits_Linear_8,3,5,80,127,1419638360
97,15,18,Jits_Linear_8,0,5,63,98,1420087632
97,15,18,Jits_Linear_8,1,5,80,127,1420108092
97,15,18,Jits_Linear_8,2,5,56,103,1420118512
97,15,18,Jits_Linear_8,3,1,48,49,1420160064
97,15,18,Jits_Linear_8,0,1,48,43,1420645484
97,15,18,Jits_Linear_8,1,5,63,98,1420698096
97,15,18,Jits_Linear_8,2,5,80,127,1420701532
97,15,18,Jits_Linear_8,3,5,56,103,1420737896
97,15,18,Jits_Linear_8,0,1,48,45,1421235372
97,15,18,Jits_Linear_8,1,5,63,98,1421378028
97,15,18,Jits_Linear_8,2,5,80,127,1421407560
97,15,18,Jits_Linear_8,3,5,56,103,1421418052
97,15,18,Jits_Linear_8,0,5,56,103,1421937964
97,15,18,Jits_Linear_8,1,1,48,45,1421963780
97,15,18,Jits_Linear_8,2,5,80,127,1421967708
97,15,18,Jits_Linear_8,3,5,63,98,1421997532
97,15,18,Jits_Linear_8,0,1,48,47,1422612584
97,15,18,Jits_Linear_8,1,5,63,98,1422637340
97,15,18,Jits_Linear_8,2,5,56,103,1422678324
97,15,18,Jits_Linear_8,3,5,80,127,1422681464
97,15,18,Jits_Linear_8,0,5,80,127,1423138436
97,15,18,Jits_Linear_8,1,5,56,103,1423218012
97,15,18,Jits_Linear_8,2,5,63,98,1423268660
97,15,18,Jits_Linear_8,3,1,48,47,1423311212
97,15,18,Jits_Linear_8,0,5,80,127,1423717696
97,15,18,Jits_Linear_8,1,5,56,103,1423738304
97,15,18,Jits_Linear_8,2,5,63,98,1423828464
97,15,18,Jits_Linear_8,3,1,48,44,1423939160
97,15,18,Jits_Linear_8,0,5,80,127,1424357736
97,15,18,Jits_Linear_8,1,5,63,98,1424397676
97,15,18,Jits_Linear_8,2,5,56,103,1424437688
97,15,18,Jits_Linear_8,3,1,48,47,1424473912
97,15,18,Jits_Linear_8,0,5,63,98,1424928224
97,15,18,Jits_Linear_8,1,5,80,127,1424987496
97,15,18,Jits_Linear_8,2,5,56,103,1425018512
97,15,18,Jits_Linear_8,3,1,48,46,1425095144
97,15,18,Jits_Linear_8,0,5,56,103,1425528364
97,15,18,Jits_Linear_8,1,5,80,127,1425557744
97,15,18,Jits_Linear_8,2,5,63,98,1425647900
97,15,18,Jits_Linear_8,3,1,48,48,1425681660
97,15,18,Jits_Linear_8,0,5,56,103,1426128320
97,15,18,Jits_Linear_8,1,5,80,127,1426237788
97,15,18,Jits_Linear_8,2,5,63,98,1426267392
97,15,18,Jits_Linear_8,3,1,48,49,1426280552
97,15,18,Jits_Linear_8,0,5,56,103,1426768416
97,15,18,Jits_Linear_8,1,5,63,98,1426827616
97,15,18,Jits_Linear_8,2,1,48,45,1426850588
97,15,18,Jits_Linear_8,3,5,80,127,1426858480
97,15,18,Jits_Linear_8,0,5,56,103,1427328428
97,15,18,Jits_Linear_8,1,5,63,98,1427397988
97,15,18,Jits_Linear_8,2,5,80,127,1427417324
97,15,18,Jits_Linear_8,3,1,48,48,1427473396
97,15,18,Jits_Linear_8,0,5,80,127,1427887456
97,15,18,Jits_Linear_8,1,5,63,98,1427907940
97,15,18,Jits_Linear_8,2,5,56,103,1427958588
97,15,18,Jits_Linear_8,3,1,48,46,1428084488
97,15,18,Jits_Linear_8,0,5,63,98,1428487412
97,15,18,Jits_Linear_8,1,5,80,127,1428497756
97,15,18,Jits_Linear_8,2,5,56,103,1428547888
97,15,18,Jits_Linear_8,3,1,48,49,1428678384
97,15,18,Jits_Linear_8,0,5,63,98,1429068220
97,15,18,Jits_Linear_8,1,5,80,127,1429137684
97,15,18,Jits_Linear_8,2,5,56,103,1429158436
97,15,18,Jits_Linear_8,3,1,48,47,1429269836
97,15,18,Jits_Linear_8,0,5,63,98,1429677432
97,15,18,Jits_Linear_8,1,5,80,127,1429680820
97,15,18,Jits_Linear_8,2,5,56,103,1429748184
97,15,18,Jits_Linear_8,3,1,48,47,1429890568
97,15,18,Jits_Linear_8,0,5,80,127,1430207768
97,15,18,Jits_Linear_8,1,5,56,103,1430228304
97,15,18,Jits_Linear_8,2,5,63,98,1430237676
97,15,18,Jits_Linear_8,3,1,48,41,1430464352
97,15,18,Jits_Linear_8,0,5,56,103,1430807848
97,15,18,Jits_Linear_8,1,5,63,98,1430898436
97,15,18,Jits_Linear_8,2,5,80,127,1430901720
97,15,18,Jits_Linear_8,3,1,48,46,1431079424
97,15,18,Jits_Linear_8,0,5,80,127,1431357800
97,15,18,Jits_Linear_8,1,5,56,103,1431368220
97,15,18,Jits_Linear_8,2,5,63,98,1431387488
97,15,18,Jits_Linear_8,3,1,48,41,1431685872
97,15,18,Jits_Linear_8,0,5,63,98,1431928284
97,15,18,Jits_Linear_8,1,5,80,127,1431987580
97,15,18,Jits_Linear_8,2,5,56,103,1431997704
97,15,18,Jits_Linear_8,3,1,48,47,1432282516
97,15,18,Jits_Linear_8,0,5,63,98,1432568240
97,15,18,Jits_Linear_8,1,5,80,127,1432597844
97,15,18,Jits_Linear_8,2,5,56,103,1432637856
97,15,18,Jits_Linear_8,0,1,48,45,1432887628
97,15,18,Jits_Linear_8,1,5,56,103,1433128320
97,15,18,Jits_Linear_8,2,5,80,127,1433137396
97,15,18,Jits_Linear_8,3,5,63,98,1433177484
97,15,18,Jits_Linear_8,0,1,48,46,1433496544
97,15,18,Jits_Linear_8,1,5,80,127,1433657592
97,15,18,Jits_Linear_8,2,5,56,103,1433737540
97,15,18,Jits_Linear_8,3,5,63,98,1433748032
97,15,18,Jits_Linear_8,0,1,48,50,1434098220
97,15,18,Jits_Linear_8,1,5,80,127,1434268080
97,15,18,Jits_Linear_8,2,5,56,103,1434347756
97,15,18,Jits_Linear_8,3,5,63,98,1434358396
97,15,18,Jits_Linear_8,0,1,48,51,1434709384
97,15,18,Jits_Linear_8,1,5,80,127,1434788304
97,15,18,Jits_Linear_8,2,5,56,103,1434838372
97,15,18,Jits_Linear_8,3,5,63,98,1434887672
97,15,18,Jits_Linear_8,0,1,48,46,1435301140
97,15,18,Jits_Linear_8,1,5,56,103,1435407636
97,15,18,Jits_Linear_8,2,5,63,98,1435410932
97,15,18,Jits_Linear_8,3,5,80,127,1435457920
97,15,18,Jits_Linear_8,0,1,48,46,1435939592
97,15,18,Jits_Linear_8,1,5,56,103,1435988244
97,15,18,Jits_Linear_8,2,5,63,98,1436018144
97,15,18,Jits_Linear_8,3,5,80,127,1436028268
97,15,18,Jits_Linear_8,0,5,63,98,1436458340
97,15,18,Jits_Linear_8,1,5,56,103,1436528324
97,15,18,Jits_Linear_8,2,1,48,46,1436554664
97,15,18,Jits_Linear_8,3,5,80,127,1436578220
97,15,18,Jits_Linear_8,0,5,63,98,1437048376
97,15,18,Jits_Linear_8,1,5,56,103,1437058348
97,15,18,Jits_Linear_8,2,5,80,127,1437061560
97,15,18,Jits_Linear_8,3,1,48,49,1437116860
97,15,18,Jits_Linear_8,0,5,80,127,1437547816
97,15,18,Jits_Linear_8,1,5,56,103,1437608356
97,15,18,Jits_Linear_8,2,1,48,48,1437681400
97,15,18,Jits_Linear_8,3,5,63,98,1437698360
97,15,18,Jits_Linear_8,0,5,80,127,1438097852
97,15,18,Jits_Linear_8,1,5,56,103,1438198204
97,15,18,Jits_Linear_8,2,1,48,52,1438235704
97,15,18,Jits_Linear_8,3,5,63,98,1438238284
97,15,18,Jits_Linear_8,0,5,56,103,1438697968
97,15,18,Jits_Linear_8,1,5,63,98,1438718276
97,15,18,Jits_Linear_8,2,5,80,127,1438758140
97,15,18,Jits_Linear_8,3,1,48,48,1438778192
97,15,18,Jits_Linear_8,0,5,63,98,1439218260
97,15,18,Jits_Linear_8,1,5,56,103,1439237376
97,15,18,Jits_Linear_8,2,5,80,127,1439337920
97,15,18,Jits_Linear_8,3,1,48,48,1439340512
97,15,18,Jits_Linear_8,0,5,63,98,1439747456
97,15,18,Jits_Linear_8,1,5,80,127,1439858492
97,15,18,Jits_Linear_8,2,1,48,48,1439876080
97,15,18,Jits_Linear_8,3,5,56,103,1439887940
97,15,18,Jits_Linear_8,0,5,56,103,1440317936
97,15,18,Jits_Linear_8,1,5,63,98,1440347612
97,15,18,Jits_Linear_8,2,5,80,127,1440397668
97,15,18,Jits_Linear_8,3,1,48,47,1440421984
97,15,18,Jits_Linear_8,0,5,63,98,1440827888
97,15,18,Jits_Linear_8,1,5,56,103,1440857492
97,15,18,Jits_Linear_8,2,5,80,127,1440907768
97,15,18,Jits_Linear_8,3,1,48,47,1440962148
97,15,18,Jits_Linear_8,0,5,56,103,1441398136
97,15,18,Jits_Linear_8,1,5,63,98,1441417552
97,15,18,Jits_Linear_8,2,1,48,46,1441488424
97,15,18,Jits_Linear_8,3,5,80,127,1441497364
97,15,18,Jits_Linear_8,0,5,63,98,1441908016
97,15,18,Jits_Linear_8,1,5,56,103,1441967512
97,15,18,Jits_Linear_8,2,5,80,127,1441998236
97,15,18,Jits_Linear_8,3,1,48,42,1442014684
97,15,18,Jits_Linear_8,0,5,56,103,1442487632
97,15,18,Jits_Linear_8,1,1,48,44,1442513444
97,15,18,Jits_Linear_8,2,5,80,127,1442548316
97,15,18,Jits_Linear_8,3,5,63,98,1442588180
97,15,18,Jits_Linear_8,0,5,63,98,1442997736
97,15,18,Jits_Linear_8,1,5,56,103,1443058280
97,15,18,Jits_Linear_8,2,1,48,43,1443060804
97,15,18,Jits_Linear_8,3,5,80,127,1443127656
97,15,18,Jits_Linear_8,0,1,48,47,1443567744
97,15,18,Jits_Linear_8,1,5,56,103,1443608148
97,15,18,Jits_Linear_8,2,5,63,98,1443618192
97,15,18,Jits_Linear_8,3,5,80,127,1443621484
97,15,18,Jits_Linear_8,0,5,63,98,1444078008
97,15,18,Jits_Linear_8,1,1,48,44,1444079420
97,15,18,Jits_Linear_8,2,5,56,103,1444138316
97,15,18,Jits_Linear_8,3,5,80,127,1444141384
97,15,18,Jits_Linear_8,0,5,63,98,1444588012
97,15,18,Jits_Linear_8,1,1,48,48,1444599980
97,15,18,Jits_Linear_8,2,5,80,127,1444617608
97,15,18,Jits_Linear_8,3,5,56,103,1444637992
97,15,18,Jits_Linear_8,0,5,56,103,1445118328
97,15,18,Jits_Linear_8,1,1,48,43,1445136444
97,15,18,Jits_Linear_8,2,5,63,98,1445167480
97,15,18,Jits_Linear_8,3,5,80,127,1445248308
97,15,18,Jits_Linear_8,0,5,80,127,1445618172
97,15,18,Jits_Linear_8,1,5,63,98,1445658116
97,15,18,Jits_Linear_8,2,5,56,103,1445677380
97,15,18,Jits_Linear_8,3,1,48,47,1445686352
97,15,18,Jits_Linear_8,0,1,48,51,1446198604
97,15,18,Jits_Linear_8,1,5,56,103,1446207992
97,15,18,Jits_Linear_8,2,5,80,127,1446218036
97,15,18,Jits_Linear_8,3,5,63,98,1446237452
97,15,18,Jits_Linear_8,0,5,56,103,1446707528
97,15,18,Jits_Linear_8,1,1,48,50,1446729980
97,15,18,Jits_Linear_8,2,5,63,98,1446757872
97,15,18,Jits_Linear_8,3,5,80,127,1446787400
97,15,18,Jits_Linear_8,0,5,56,103,1447177552
97,15,18,Jits_Linear_8,1,5,63,98,1447188044
97,15,18,Jits_Linear_8,2,5,80,127,1447238172
97,15,18,Jits_Linear_8,3,1,48,49,1447262036
97,15,18,Jits_Linear_8,0,5,56,103,1447687572
97,15,18,Jits_Linear_8,1,5,80,127,1447690564
97,15,18,Jits_Linear_8,2,1,48,49,1447734288
97,15,18,Jits_Linear_8,3,5,63,98,1447848252
97,15,18,Jits_Linear_8,0,5,63,98,1448218044
97,15,18,Jits_Linear_8,1,5,56,103,1448287728
97,15,18,Jits_Linear_8,2,1,48,48,1448290172
97,15,18,Jits_Linear_8,3,5,80,127,1448327732
97,15,18,Jits_Linear_8,0,5,63,98,1448768068
97,15,18,Jits_Linear_8,1,1,48,50,1448806636
97,15,18,Jits_Linear_8,2,5,56,103,1448858348
97,15,18,Jits_Linear_8,3,5,80,127,1448861264
97,15,18,Jits_Linear_8,0,5,56,103,1449258228
97,15,18,Jits_Linear_8,1,5,63,98,1449347392
97,15,18,Jits_Linear_8,2,5,80,127,1449357588
97,15,18,Jits_Linear_8,3,1,48,49,1449359076
97,15,18,Jits_Linear_8,0,5,56,103,1449737620
97,15,18,Jits_Linear_8,1,5,63,98,1449787896
97,15,18,Jits_Linear_8,2,5,80,127,1449817348
97,15,18,Jits_Linear_8,3,1,48,46,1449857700
97,15,18,Jits_Linear_8,0,5,63,98,1450318148
97,15,18,Jits_Linear_8,1,5,80,127,1450328420
97,15,18,Jits_Linear_8,2,1,48,45,1450381280
97,15,18,Jits_Linear_8,3,5,56,103,1450387756
97,15,18,Jits_Linear_8,0,5,63,98,1450738112
97,15,18,Jits_Linear_8,1,5,80,127,1450797384
97,15,18,Jits_Linear_8,2,5,56,103,1450838444
97,15,18,Jits_Linear_8,3,1,48,50,1450916780
97,15,18,Jits_Linear_8,0,5,56,103,1451338112
97,15,18,Jits_Linear_8,1,5,80,127,1451357672
97,15,18,Jits_Linear_8,2,5,63,98,1451378132
97,15,18,Jits_Linear_8,3,1,48,47,1451416244
97,15,18,Jits_Linear_8,0,5,63,98,1451758092
97,15,18,Jits_Linear_8,1,5,56,103,1451778328
97,15,18,Jits_Linear_8,2,5,80,127,1451818264
97,15,18,Jits_Linear_8,3,1,48,46,1451942292
97,15,18,Jits_Linear_8,0,5,63,98,1452267880
97,15,18,Jits_Linear_8,1,5,80,127,1452297560
97,15,18,Jits_Linear_8,2,5,56,103,1452318240
97,15,18,Jits_Linear_8,3,1,48,48,1452477660
97,15,18,Jits_Linear_8,0,5,80,127,1452737964
97,15,18,Jits_Linear_8,1,5,56,103,1452788020
97,15,18,Jits_Linear_8,2,5,63,98,1452847436
97,15,18,Jits_Linear_8,3,1,48,48,1453043252
97,15,18,Jits_Linear_8,0,5,63,98,1453218228
97,15,18,Jits_Linear_8,1,5,56,103,1453338132
97,15,18,Jits_Linear_8,2,5,80,127,1453367956
97,15,18,Jits_Linear_8,0,1,48,49,1453629576
97,15,18,Jits_Linear_8,1,5,80,127,1453747616
97,15,18,Jits_Linear_8,2,5,63,98,1453768000
97,15,18,Jits_Linear_8,3,5,56,103,1453837680
97,15,18,Jits_Linear_8,0,1,48,44,1454179004
97,15,18,Jits_Linear_8,1,5,63,98,1454257648
97,15,18,Jits_Linear_8,2,5,56,103,1454267696
97,15,18,Jits_Linear_8,3,5,80,127,1454347624
97,15,18,Jits_Linear_8,0,1,48,50,1454740796
97,15,18,Jits_Linear_8,1,5,56,103,1454808428
97,15,18,Jits_Linear_8,2,5,80,127,1454838164
97,15,18,Jits_Linear_8,3,5,63,98,1454848364
97,15,18,Jits_Linear_8,0,9999,9999,9999,1344455780
97,15,18,Jits_Linear_8,1,9999,9999,9999,1345275988
97,15,18,Jits_Linear_8,2,9999,9999,9999,1346095220
97,15,18,Jits_Linear_8,3,9999,9999,9999,1346915420
97,15,18,Jits_Linear_8,4,9999,9999,9999,1347735636
97,15,18,Jits_Linear_8,5,9999,9999,9999,1348545604
97,15,18,Jits_Linear_8,6,9999,9999,9999,1349355616
97,15,18,Jits_Linear_8,7,9999,9999,9999,1350165576
97,15,18,Jits_Linear_8,8,9999,9999,9999,1350975596
97,15,18,Jits_Linear_8,9,9999,9999,9999,1351785528
97,15,18,Jits_Linear_8,10,9999,9999,9999,1352585304
97,15,18,Jits_Linear_8,11,9999,9999,9999,1353386104
97,15,18,Jits_Linear_8,12,9999,9999,9999,1354185824
97,15,18,Jits_Linear_8,13,9999,9999,9999,1354985584
97,15,18,Jits_Linear_8,14,9999,9999,9999,1355785324
97,15,18,Jits_Linear_8,15,9999,9999,9999,1356575852
97,15,18,Jits_Linear_8,16,9999,9999,9999,1357365328
97,15,18,Jits_Linear_8,17,9999,9999,9999,1358155868
97,15,18,Jits_Linear_8,18,9999,9999,9999,1358945360
97,15,18,Jits_Linear_8,19,9999,9999,9999,1359735916
97,15,18,Jits_Linear_8,20,9999,9999,9999,1360515140
97,15,18,Jits_Linear_8,21,9999,9999,9999,1361295416
97,15,18,Jits_Linear_8,22,9999,9999,9999,1362075772
97,15,18,Jits_Linear_8,23,9999,9999,9999,1362856056
97,15,18,Jits_Linear_8,24,9999,9999,9999,1363635308
97,15,18,Jits_Linear_8,25,9999,9999,9999,1364405316
97,15,18,Jits_Linear_8,26,9999,9999,9999,1365175408
97,15,18,Jits_Linear_8,27,9999,9999,9999,1365945428
97,15,18,Jits_Linear_8,28,9999,9999,9999,1366715448
97,15,18,Jits_Linear_8,29,9999,9999,9999,1367485552
97,15,18,Jits_Linear_8,30,9999,9999,9999,1368245372
97,15,18,Jits_Linear_8,31,9999,9999,9999,1369005168
97,15,18,Jits_Linear_8,32,9999,9999,9999,1369765952
97,15,18,Jits_Linear_8,33,9999,9999,9999,1370525780
97,15,18,Jits_Linear_8,34,9999,9999,9999,1371285616
97,15,18,Jits_Linear_8,35,9999,9999,9999,1372035124
97,15,18,Jits_Linear_8,36,9999,9999,9999,1372785736
97,15,18,Jits_Linear_8,37,9999,9999,9999,1373535312
97,15,18,Jits_Linear_8,38,9999,9999,9999,1374285924
97,15,18,Jits_Linear_8,39,9999,9999,9999,1375035504
97,15,18,Jits_Linear_8,40,9999,9999,9999,1375775860
97,15,18,Jits_Linear_8,41,9999,9999,9999,1376515172
97,15,18,Jits_Linear_8,42,9999,9999,9999,1377255508
97,15,18,Jits_Linear_8,43,9999,9999,9999,1377995852
97,15,18,Jits_Linear_8,44,9999,9999,9999,1378735180
97,15,18,Jits_Linear_8,45,9999,9999,9999,1379465328
97,15,18,Jits_Linear_8,46,9999,9999,9999,1380195420
97,15,18,Jits_Linear_8,47,9999,9999,9999,1380925508
97,15,18,Jits_Linear_8,48,9999,9999,9999,1381655676
97,15,18,Jits_Linear_8,49,9999,9999,9999,1382385764
97,15,18,Jits_Linear_8,50,9999,9999,9999,1383105656
97,15,18,Jits_Linear_8,51,9999,9999,9999,1383825536
97,15,18,Jits_Linear_8,52,9999,9999,9999,1384545368
97,15,18,Jits_Linear_8,53,9999,9999,9999,1385265276
97,15,18,Jits_Linear_8,54,9999,9999,9999,1385985084
97,15,18,Jits_Linear_8,55,9999,9999,9999,1386695772
97,15,18,Jits_Linear_8,56,9999,9999,9999,1387405372
97,15,18,Jits_Linear_8,57,9999,9999,9999,1388116060
97,15,18,Jits_Linear_8,58,9999,9999,9999,1388825700
97,15,18,Jits_Linear_8,59,9999,9999,9999,1389535340
97,15,18,Jits_Linear_8,60,9999,9999,9999,1390235740
97,15,18,Jits_Linear_8,61,9999,9999,9999,1390935120
97,15,18,Jits_Linear_8,62,9999,9999,9999,1391635544
97,15,18,Jits_Linear_8,63,9999,9999,9999,1392335944
97,15,18,Jits_Linear_8,64,9999,9999,9999,1393035380
97,15,18,Jits_Linear_8,65,9999,9999,9999,1393725532
97,15,18,Jits_Linear_8,66,9999,9999,9999,1394415692
97,15,18,Jits_Linear_8,67,9999,9999,9999,1395105896
97,15,18,Jits_Linear_8,68,9999,9999,9999,1395796044
97,15,18,Jits_Linear_8,69,9999,9999,9999,1396485232
97,15,18,Jits_Linear_8,70,9999,9999,9999,1397165172
97,15,18,Jits_Linear_8,71,9999,9999,9999,1397846104
97,15,18,Jits_Linear_8,72,9999,9999,9999,1398535280
97,15,18,Jits_Linear_8,73,9999,9999,9999,1399215232
97,15,18,Jits_Linear_8,74,9999,9999,9999,1399895128
97,15,18,Jits_Linear_8,75,9999,9999,9999,1400565876
97,15,18,Jits_Linear_8,76,9999,9999,9999,1401235556
97,15,18,Jits_Linear_8,77,9999,9999,9999,1401905264
97,15,18,Jits_Linear_8,78,9999,9999,9999,1402575940
97,15,18,Jits_Linear_8,79,9999,9999,9999,1403245624
97,15,18,Jits_Linear_8,80,9999,9999,9999,1403905132
97,15,18,Jits_Linear_8,81,9999,9999,9999,1404565584
97,15,18,Jits_Linear_8,82,9999,9999,9999,1405226064
97,15,18,Jits_Linear_8,83,9999,9999,9999,1405885564
97,15,18,Jits_Linear_8,84,9999,9999,9999,1406546028
97,15,18,Jits_Linear_8,85,9999,9999,9999,1407195212
97,15,18,Jits_Linear_8,86,9999,9999,9999,1407845480
97,15,18,Jits_Linear_8,87,9999,9999,9999,1408495692
97,15,18,Jits_Linear_8,88,9999,9999,9999,1409145952
97,15,18,Jits_Linear_8,89,9999,9999,9999,1409795128
97,15,18,Jits_Linear_8,90,9999,9999,9999,1410435136
97,15,18,Jits_Linear_8,91,9999,9999,9999,1411075172
97,15,18,Jits_Linear_8,92,9999,9999,9999,1411715188
97,15,18,Jits_Linear_8,93,9999,9999,9999,1412355136
97,15,18,Jits_Linear_8,94,9999,9999,9999,1412995136
97,15,18,Jits_Linear_8,95,9999,9999,9999,1413625960
97,15,18,Jits_Linear_8,96,9999,9999,9999,1414255712
97,15,18,Jits_Linear_8,97,9999,9999,9999,1414885472
97,15,18,Jits_Linear_8,98,9999,9999,9999,1415515224
97,15,18,Jits_Linear_8,99,9999,9999,9999,1416145984
97,15,18,Jits_Linear_8,100,9999,9999,9999,1416765536
97,15,18,Jits_Linear_8,101,9999,9999,9999,1417386056
97,15,18,Jits_Linear_8,102,9999,9999,9999,1418005620
97,15,18,Jits_Linear_8,103,9999,9999,9999,1418625092
97,15,18,Jits_Linear_8,104,9999,9999,9999,1419245636
97,15,18,Jits_Linear_8,105,9999,9999,9999,1419855976
97,15,18,Jits_Linear_8,106,9999,9999,9999,1420465208
97,15,18,Jits_Linear_8,107,9999,9999,9999,1421075520
97,15,18,Jits_Linear_8,108,9999,9999,9999,1421685860
97,15,18,Jits_Linear_8,109,9999,9999,9999,1422295168
97,15,18,Jits_Linear_8,110,9999,9999,9999,1422895176
97,15,18,Jits_Linear_8,111,9999,9999,9999,1423495248
97,15,18,Jits_Linear_8,112,9999,9999,9999,1424095352
97,15,18,Jits_Linear_8,113,9999,9999,9999,1424695364
97,15,18,Jits_Linear_8,114,9999,9999,9999,1425295444
97,15,18,Jits_Linear_8,115,9999,9999,9999,1425885272
97,15,18,Jits_Linear_8,116,9999,9999,9999,1426475096
97,15,18,Jits_Linear_8,117,9999,9999,9999,1427065972
97,15,18,Jits_Linear_8,118,9999,9999,9999,1427655744
97,15,18,Jits_Linear_8,119,9999,9999,9999,1428245632
97,15,18,Jits_Linear_8,120,9999,9999,9999,1428825188
97,15,18,Jits_Linear_8,121,9999,9999,9999,1429405776
97,15,18,Jits_Linear_8,122,9999,9999,9999,1429985348
97,15,18,Jits_Linear_8,123,9999,9999,9999,1430565992
97,15,18,Jits_Linear_8,124,9999,9999,9999,1431145560
97,15,18,Jits_Linear_8,125,9999,9999,9999,1431715968
97,15,18,Jits_Linear_8,126,9999,9999,9999,1432285280
97,15,18,Jits_Linear_8,127,9999,9999,9999,1432855620
97,15,18,Jits_Linear_8,128,9999,9999,9999,1433426036
97,15,18,Jits_Linear_8,129,9999,9999,9999,1433995392
97,15,18,Jits_Linear_8,130,9999,9999,9999,1434555492
97,15,18,Jits_Linear_8,131,9999,9999,9999,1435115628
97,15,18,Jits_Linear_8,132,9999,9999,9999,1435675760
97,15,18,Jits_Linear_8,133,9999,9999,9999,1436235832
97,15,18,Jits_Linear_8,134,9999,9999,9999,1436795972
97,15,18,Jits_Linear_8,135,9999,9999,9999,1437345912
97,15,18,Jits_Linear_8,136,9999,9999,9999,1437895732
97,15,18,Jits_Linear_8,137,9999,9999,9999,1438445624
97,15,18,Jits_Linear_8,138,9999,9999,9999,1438995512
97,15,18,Jits_Linear_8,139,9999,9999,9999,1439545404
97,15,18,Jits_Linear_8,140,9999,9999,9999,1440086136
97,15,18,Jits_Linear_8,141,9999,9999,9999,1440636012
97,15,18,Jits_Linear_8,142,9999,9999,9999,1441175628
97,15,18,Jits_Linear_8,143,9999,9999,9999,1441715264
97,15,18,Jits_Linear_8,144,9999,9999,9999,1442255984
97,15,18,Jits_Linear_8,145,9999,9999,9999,1442785408
97,15,18,Jits_Linear_8,146,9999,9999,9999,1443315816
97,15,18,Jits_Linear_8,147,9999,9999,9999,1443845236
97,15,18,Jits_Linear_8,148,9999,9999,9999,1444375620
97,15,18,Jits_Linear_8,149,9999,9999,9999,1444906084
97,15,18,Jits_Linear_8,150,9999,9999,9999,1445425248
97,15,18,Jits_Linear_8,151,9999,9999,9999,1445945464
97,15,18,Jits_Linear_8,152,9999,9999,9999,1446465612
97,15,18,Jits_Linear_8,153,9999,9999,9999,1446985820
97,15,18,Jits_Linear_8,154,9999,9999,9999,1447506032
97,15,18,Jits_Linear_8,155,9999,9999,9999,1448015976
97,15,18,Jits_Linear_8,156,9999,9999,9999,1448525932
97,15,18,Jits_Linear_8,157,9999,9999,9999,1449035872
97,15,18,Jits_Linear_8,158,9999,9999,9999,1449545816
97,15,18,Jits_Linear_8,159,9999,9999,9999,1450055768
97,15,18,Jits_Linear_8,160,9999,9999,9999,1450555468
97,15,18,Jits_Linear_8,161,9999,9999,9999,1451055216
97,15,18,Jits_Linear_8,162,9999,9999,9999,1451555948
97,15,18,Jits_Linear_8,163,9999,9999,9999,1452055640
97,15,18,Jits_Linear_8,164,9999,9999,9999,1452555332
97,15,18,Jits_Linear_8,165,9999,9999,9999,1453045868
97,15,18,Jits_Linear_8,166,9999,9999,9999,1453535308
97,15,18,Jits_Linear_8,167,9999,9999,9999,1454025784
97,15,18,Jits_Linear_8,168,9999,9999,9999,1454515276
97,15,18,Jits_Linear_8,169,9999,9999,9999,1455005796
97,16,19,Jits_Linear_5,0,5,56,103,1463165248
97,16,19,Jits_Linear_5,1,5,63,98,1463168344
97,16,19,Jits_Linear_5,2,5,80,127,1463171468
97,16,19,Jits_Linear_5,0,5,56,103,1463644440
97,16,19,Jits_Linear_5,1,5,63,98,1463647912
97,16,19,Jits_Linear_5,2,5,80,127,1463650956
97,16,19,Jits_Linear_5,3,1,48,36,1463790376
97,16,19,Jits_Linear_5,0,5,56,103,1464124956
97,16,19,Jits_Linear_5,1,5,80,127,1464135004
97,16,19,Jits_Linear_5,2,5,63,98,1464154492
97,16,19,Jits_Linear_5,3,1,48,39,1464164208
97,16,19,Jits_Linear_5,0,5,63,98,1464565248
97,16,19,Jits_Linear_5,1,5,80,127,1464594776
97,16,19,Jits_Linear_5,2,5,56,103,1464605196
97,16,19,Jits_Linear_5,3,1,48,43,1464622188
97,16,19,Jits_Linear_5,0,1,48,40,1465053668
97,16,19,Jits_Linear_5,1,5,80,127,1465104864
97,16,19,Jits_Linear_5,2,5,56,103,1465114984
97,16,19,Jits_Linear_5,3,5,63,98,1465145316
97,16,19,Jits_Linear_5,0,5,63,98,1465585008
97,16,19,Jits_Linear_5,1,1,48,38,1465588648
97,16,19,Jits_Linear_5,2,5,56,103,1465614828
97,16,19,Jits_Linear_5,3,5,80,127,1465625028
97,16,19,Jits_Linear_5,0,5,56,103,1466025264
97,16,19,Jits_Linear_5,1,1,48,38,1466056732
97,16,19,Jits_Linear_5,2,5,63,98,1466074664
97,16,19,Jits_Linear_5,3,5,80,127,1466094900
97,16,19,Jits_Linear_5,0,1,48,34,1466484028
97,16,19,Jits_Linear_5,1,5,80,127,1466514916
97,16,19,Jits_Linear_5,2,5,63,98,1466565076
97,16,19,Jits_Linear_5,3,5,56,103,1466604848
97,16,19,Jits_Linear_5,0,1,48,42,1467000868
97,16,19,Jits_Linear_5,1,5,56,103,1467005316
97,16,19,Jits_Linear_5,2,5,63,98,1467034996
97,16,19,Jits_Linear_5,3,5,80,127,1467104764
97,16,19,Jits_Linear_5,0,5,56,103,1467494900
97,16,19,Jits_Linear_5,1,1,48,43,1467500336
97,16,19,Jits_Linear_5,2,5,80,127,1467555064
97,16,19,Jits_Linear_5,3,5,63,98,1467584988
97,16,19,Jits_Linear_5,0,1,48,38,1467989920
97,16,19,Jits_Linear_5,1,5,56,103,1467994600
97,16,19,Jits_Linear_5,2,5,63,98,1468004944
97,16,19,Jits_Linear_5,3,5,80,127,1468044736
97,16,19,Jits_Linear_5,0,1,48,37,1468477700
97,16,19,Jits_Linear_5,1,5,63,98,1468485072
97,16,19,Jits_Linear_5,2,5,80,127,1468564800
97,16,19,Jits_Linear_5,3,5,56,103,1468575056
97,16,19,Jits_Linear_5,0,1,48,38,1469012000
97,16,19,Jits_Linear_5,1,5,63,98,1469034888
97,16,19,Jits_Linear_5,2,5,56,103,1469074824
97,16,19,Jits_Linear_5,3,5,80,127,1469077892
97,16,19,Jits_Linear_5,0,5,56,103,1469494712
97,16,19,Jits_Linear_5,1,5,63,98,1469504836
97,16,19,Jits_Linear_5,2,1,48,43,1469519116
97,16,19,Jits_Linear_5,3,5,80,127,1469544768
97,16,19,Jits_Linear_5,0,5,56,103,1469985016
97,16,19,Jits_Linear_5,1,5,63,98,1469988088
97,16,19,Jits_Linear_5,2,5,80,127,1470004880
97,16,19,Jits_Linear_5,3,1,48,41,1470021404
97,16,19,Jits_Linear_5,0,1,48,38,1470475232
97,16,19,Jits_Linear_5,1,5,80,127,1470505232
97,16,19,Jits_Linear_5,2,5,56,103,1470514828
97,16,19,Jits_Linear_5,3,5,63,98,1470585172
97,16,19,Jits_Linear_5,0,5,63,98,1471005148
97,16,19,Jits_Linear_5,1,1,48,43,1471013668
97,16,19,Jits_Linear_5,2,5,56,103,1471024780
97,16,19,Jits_Linear_5,3,5,80,127,1471105324
97,16,19,Jits_Linear_5,0,5,56,103,1471525440
97,16,19,Jits_Linear_5,1,1,48,43,1471542952
97,16,19,Jits_Linear_5,2,5,80,127,1471565224
97,16,19,Jits_Linear_5,3,5,63,98,1471575644
97,16,19,Jits_Linear_5,0,1,48,39,1472011616
97,16,19,Jits_Linear_5,1,5,80,127,1472024988
97,16,19,Jits_Linear_5,2,5,63,98,1472054592
97,16,19,Jits_Linear_5,3,5,56,103,1472094680
97,16,19,Jits_Linear_5,0,1,48,40,1472538204
97,16,19,Jits_Linear_5,1,5,56,103,1472555540
97,16,19,Jits_Linear_5,2,5,63,98,1472585068
97,16,19,Jits_Linear_5,3,5,80,127,1472635180
97,16,19,Jits_Linear_5,0,1,48,42,1473053480
97,16,19,Jits_Linear_5,1,5,80,127,1473065340
97,16,19,Jits_Linear_5,2,5,56,103,1473105208
97,16,19,Jits_Linear_5,3,5,63,98,1473114656
97,16,19,Jits_Linear_5,0,1,48,40,1473549712
97,16,19,Jits_Linear_5,1,5,80,127,1473564952
97,16,19,Jits_Linear_5,2,5,63,98,1473604968
97,16,19,Jits_Linear_5,3,5,56,103,1473665640
97,16,19,Jits_Linear_5,0,5,56,103,1474085100
97,16,19,Jits_Linear_5,1,5,80,127,1474094624
97,16,19,Jits_Linear_5,2,1,48,42,1474097068
97,16,19,Jits_Linear_5,3,5,63,98,1474175312
97,16,19,Jits_Linear_5,0,5,80,127,1474605624
97,16,19,Jits_Linear_5,1,1,48,40,1474653636
97,16,19,Jits_Linear_5,2,5,63,98,1474664820
97,16,19,Jits_Linear_5,3,5,56,103,1474694644
97,16,19,Jits_Linear_5,0,5,56,103,1475124584
97,16,19,Jits_Linear_5,1,5,80,127,1475185052
97,16,19,Jits_Linear_5,2,1,48,40,1475198508
97,16,19,Jits_Linear_5,3,5,63,98,1475224908
97,16,19,Jits_Linear_5,0,1,48,38,1475690104
97,16,19,Jits_Linear_5,1,5,56,103,1475705196
97,16,19,Jits_Linear_5,2,5,63,98,1475714568
97,16,19,Jits_Linear_5,3,5,80,127,1475718004
97,16,19,Jits_Linear_5,0,5,80,127,1476184576
97,16,19,Jits_Linear_5,1,1,48,45,1476227104
97,16,19,Jits_Linear_5,2,5,63,98,1476274728
97,16,19,Jits_Linear_5,3,5,56,103,1476284776
97,16,19,Jits_Linear_5,0,5,56,103,1476714976
97,16,19,Jits_Linear_5,1,5,63,98,1476718000
97,16,19,Jits_Linear_5,2,5,80,127,1476721124
97,16,19,Jits_Linear_5,3,1,48,41,1476784592
97,16,19,Jits_Linear_5,0,5,80,127,1477264796
97,16,19,Jits_Linear_5,1,1,48,40,1477272324
97,16,19,Jits_Linear_5,2,5,63,98,1477314796
97,16,19,Jits_Linear_5,3,5,56,103,1477344844
97,16,19,Jits_Linear_5,0,5,56,103,1477774688
97,16,19,Jits_Linear_5,1,5,80,127,1477784812
97,16,19,Jits_Linear_5,2,1,48,45,1477842560
97,16,19,Jits_Linear_5,3,5,63,98,1477854512
97,16,19,Jits_Linear_5,0,5,56,103,1478315444
97,16,19,Jits_Linear_5,1,5,63,98,1478334736
97,16,19,Jits_Linear_5,2,1,48,44,1478373220
97,16,19,Jits_Linear_5,3,5,80,127,1478395192
97,16,19,Jits_Linear_5,0,5,80,127,1478844916
97,16,19,Jits_Linear_5,1,1,48,40,1478893000
97,16,19,Jits_Linear_5,2,5,63,98,1478914672
97,16,19,Jits_Linear_5,3,5,56,103,1478934832
97,16,19,Jits_Linear_5,0,5,80,127,1479404784
97,16,19,Jits_Linear_5,1,5,56,103,1479415276
97,16,19,Jits_Linear_5,2,5,63,98,1479425768
97,16,19,Jits_Linear_5,3,1,48,44,1479447392
97,16,19,Jits_Linear_5,0,5,80,127,1479935496
97,16,19,Jits_Linear_5,1,5,56,103,1479954760
97,16,19,Jits_Linear_5,2,1,48,38,1479973244
97,16,19,Jits_Linear_5,3,5,63,98,1480024660
97,16,19,Jits_Linear_5,0,5,56,103,1480485096
97,16,19,Jits_Linear_5,1,5,80,127,1480514924
97,16,19,Jits_Linear_5,2,1,48,42,1480530624
97,16,19,Jits_Linear_5,3,5,63,98,1480535528
97,16,19,Jits_Linear_5,0,5,63,98,1481024808
97,16,19,Jits_Linear_5,1,1,48,38,1481050548
97,16,19,Jits_Linear_5,2,5,56,103,1481085420
97,16,19,Jits_Linear_5,3,5,80,127,1481114948
97,16,19,Jits_Linear_5,0,5,63,98,1481564504
97,16,19,Jits_Linear_5,1,5,80,127,1481567644
97,16,19,Jits_Linear_5,2,1,48,41,1481614000
97,16,19,Jits_Linear_5,3,5,56,103,1481654728
97,16,19,Jits_Linear_5,0,5,56,103,1482134832
97,16,19,Jits_Linear_5,1,5,63,98,1482164680
97,16,19,Jits_Linear_5,2,1,48,41,1482177988
97,16,19,Jits_Linear_5,3,5,80,127,1482204468
97,16,19,Jits_Linear_5,0,5,63,98,1482684908
97,16,19,Jits_Linear_5,1,1,48,41,1482686920
97,16,19,Jits_Linear_5,2,5,56,103,1482724916
97,16,19,Jits_Linear_5,3,5,80,127,1482745228
97,16,19,Jits_Linear_5,0,1,48,39,1483225472
97,16,19,Jits_Linear_5,1,5,63,98,1483244828
97,16,19,Jits_Linear_5,2,5,56,103,1483284768
97,16,19,Jits_Linear_5,3,5,80,127,1483295040
97,16,19,Jits_Linear_5,0,1,48,41,1483774636
97,16,19,Jits_Linear_5,1,5,80,127,1483776428
97,16,19,Jits_Linear_5,2,5,63,98,1483844920
97,16,19,Jits_Linear_5,3,5,56,103,1483864480
97,16,19,Jits_Linear_5,0,5,56,103,1484325200
97,16,19,Jits_Linear_5,1,5,80,127,1484344616
97,16,19,Jits_Linear_5,2,1,48,40,1484353356
97,16,19,Jits_Linear_5,3,5,63,98,1484384624
97,16,19,Jits_Linear_5,0,1,48,34,1484856256
97,16,19,Jits_Linear_5,1,5,63,98,1484894648
97,16,19,Jits_Linear_5,2,5,80,127,1484914960
97,16,19,Jits_Linear_5,3,5,56,103,1484954884
97,16,19,Jits_Linear_5,0,5,63,98,1485454652
97,16,19,Jits_Linear_5,1,1,48,39,1485458364
97,16,19,Jits_Linear_5,2,5,56,103,1485475176
97,16,19,Jits_Linear_5,3,5,80,127,1485485600
97,16,19,Jits_Linear_5,0,5,80,127,1486014868
97,16,19,Jits_Linear_5,1,1,48,42,1486018588
97,16,19,Jits_Linear_5,2,5,56,103,1486035472
97,16,19,Jits_Linear_5,3,5,63,98,1486065148
97,16,19,Jits_Linear_5,0,1,48,36,1486586092
97,16,19,Jits_Linear_5,1,5,56,103,1486654820
97,16,19,Jits_Linear_5,2,5,80,127,1486657960
97,16,19,Jits_Linear_5,3,5,63,98,1486675428
97,16,19,Jits_Linear_5,0,5,63,98,1487145440
97,16,19,Jits_Linear_5,1,5,56,103,1487174896
97,16,19,Jits_Linear_5,2,1,48,42,1487192852
97,16,19,Jits_Linear_5,3,5,80,127,1487234528
97,16,19,Jits_Linear_5,0,1,48,40,1487706608
97,16,19,Jits_Linear_5,1,5,63,98,1487794696
97,16,19,Jits_Linear_5,2,5,56,103,1487805700
97,16,19,Jits_Linear_5,3,5,80,127,1487815072
97,16,19,Jits_Linear_5,0,5,56,103,1488314764
97,16,19,Jits_Linear_5,1,5,80,127,1488344588
97,16,19,Jits_Linear_5,2,5,63,98,1488354784
97,16,19,Jits_Linear_5,3,1,48,43,1488366296
97,16,19,Jits_Linear_5,0,5,63,98,1488935536
97,16,19,Jits_Linear_5,1,5,56,103,1488944392
97,16,19,Jits_Linear_5,2,5,80,127,1488964924
97,16,19,Jits_Linear_5,3,1,48,42,1488971856
97,16,19,Jits_Linear_5,0,5,56,103,1489434932
97,16,19,Jits_Linear_5,1,5,63,98,1489495620
97,16,19,Jits_Linear_5,2,5,80,127,1489498836
97,16,19,Jits_Linear_5,3,1,48,41,1489575532
97,16,19,Jits_Linear_5,0,5,80,127,1490034944
97,16,19,Jits_Linear_5,1,5,56,103,1490045436
97,16,19,Jits_Linear_5,2,5,63,98,1490114996
97,16,19,Jits_Linear_5,3,1,48,42,1490167036
97,16,19,Jits_Linear_5,0,5,80,127,1490605764
97,16,19,Jits_Linear_5,1,5,56,103,1490675152
97,16,19,Jits_Linear_5,2,5,63,98,1490685724
97,16,19,Jits_Linear_5,3,1,48,38,1490741952
97,16,19,Jits_Linear_5,0,5,63,98,1491224900
97,16,19,Jits_Linear_5,1,5,56,103,1491235320
97,16,19,Jits_Linear_5,2,5,80,127,1491254584
97,16,19,Jits_Linear_5,3,1,48,36,1491308416
97,16,19,Jits_Linear_5,0,5,80,127,1491755524
97,16,19,Jits_Linear_5,1,5,63,98,1491814724
97,16,19,Jits_Linear_5,2,5,56,103,1491854588
97,16,19,Jits_Linear_5,3,1,48,38,1491895864
97,16,19,Jits_Linear_5,0,5,56,103,1492385372
97,16,19,Jits_Linear_5,1,5,63,98,1492395640
97,16,19,Jits_Linear_5,2,5,80,127,1492435456
97,16,19,Jits_Linear_5,3,1,48,39,1492457532
97,16,19,Jits_Linear_5,0,5,56,103,1492935216
97,16,19,Jits_Linear_5,1,5,80,127,1492964596
97,16,19,Jits_Linear_5,2,5,63,98,1493015020
97,16,19,Jits_Linear_5,3,1,48,32,1493020760
97,16,19,Jits_Linear_5,0,5,56,103,1493564764
97,16,19,Jits_Linear_5,1,1,48,35,1493579792
97,16,19,Jits_Linear_5,2,5,63,98,1493604696
97,16,19,Jits_Linear_5,3,5,80,127,1493608204
97,16,19,Jits_Linear_5,0,1,48,37,1494120304
97,16,19,Jits_Linear_5,1,5,56,103,1494154508
97,16,19,Jits_Linear_5,2,5,63,98,1494164704
97,16,19,Jits_Linear_5,3,5,80,127,1494185312
97,16,19,Jits_Linear_5,0,1,48,35,1494678884
97,16,19,Jits_Linear_5,1,5,56,103,1494704488
97,16,19,Jits_Linear_5,2,5,80,127,1494707480
97,16,19,Jits_Linear_5,3,5,63,98,1494744428
97,16,19,Jits_Linear_5,0,1,48,35,1495244296
97,16,19,Jits_Linear_5,1,5,63,98,1495335500
97,16,19,Jits_Linear_5,2,5,56,103,1495365164
97,16,19,Jits_Linear_5,3,5,80,127,1495384352
97,16,19,Jits_Linear_5,0,5,80,127,1495904576
97,16,19,Jits_Linear_5,1,1,48,38,1495907316
97,16,19,Jits_Linear_5,2,5,56,103,1495914988
97,16,19,Jits_Linear_5,3,5,63,98,1495925036
97,16,19,Jits_Linear_5,0,1,48,34,1496475716
97,16,19,Jits_Linear_5,1,5,56,103,1496504832
97,16,19,Jits_Linear_5,2,5,80,127,1496544628
97,16,19,Jits_Linear_5,3,5,63,98,1496575484
97,16,19,Jits_Linear_5,0,1,48,38,1497109152
97,16,19,Jits_Linear_5,1,5,63,98,1497115252
97,16,19,Jits_Linear_5,2,5,80,127,1497125376
97,16,19,Jits_Linear_5,3,5,56,103,1497134300
97,16,19,Jits_Linear_5,0,5,56,103,1497694588
97,16,19,Jits_Linear_5,1,1,48,36,1497739732
97,16,19,Jits_Linear_5,2,5,63,98,1497765460
97,16,19,Jits_Linear_5,3,5,80,127,1497774488
97,16,19,Jits_Linear_5,0,5,80,127,1498304972
97,16,19,Jits_Linear_5,1,5,56,103,1498315092
97,16,19,Jits_Linear_5,2,1,48,35,1498339416
97,16,19,Jits_Linear_5,3,5,63,98,1498365292
97,16,19,Jits_Linear_5,0,1,48,29,1498920608
97,16,19,Jits_Linear_5,1,5,80,127,1498925364
97,16,19,Jits_Linear_5,2,5,56,103,1498984784
97,16,19,Jits_Linear_5,3,5,63,98,1499014608
97,16,19,Jits_Linear_5,0,5,56,103,1499534816
97,16,19,Jits_Linear_5,1,5,80,127,1499537736
97,16,19,Jits_Linear_5,2,5,63,98,1499574560
97,16,19,Jits_Linear_5,3,1,48,31,1499575524
97,16,19,Jits_Linear_5,0,1,48,34,1500171304
97,16,19,Jits_Linear_5,1,5,56,103,1500174780
97,16,19,Jits_Linear_5,2,5,63,98,1500205356
97,16,19,Jits_Linear_5,3,5,80,127,1500214656
97,16,19,Jits_Linear_5,0,5,63,98,1500795248
97,16,19,Jits_Linear_5,1,5,80,127,1500804400
97,16,19,Jits_Linear_5,2,5,56,103,1500814744
97,16,19,Jits_Linear_5,3,1,48,30,1500820404
97,16,19,Jits_Linear_5,0,5,80,127,1501355240
97,16,19,Jits_Linear_5,1,5,56,103,1501404644
97,16,19,Jits_Linear_5,2,5,63,98,1501407636
97,16,19,Jits_Linear_5,3,1,48,32,1501431724
97,16,19,Jits_Linear_5,0,1,48,28,1501981084
97,16,19,Jits_Linear_5,1,5,56,103,1502004720
97,16,19,Jits_Linear_5,2,5,80,127,1502025328
97,16,19,Jits_Linear_5,3,5,63,98,1502035524
97,16,19,Jits_Linear_5,0,1,48,28,1502601916
97,16,19,Jits_Linear_5,1,5,63,98,1502604652
97,16,19,Jits_Linear_5,2,5,56,103,1502635524
97,16,19,Jits_Linear_5,3,5,80,127,1502654812
97,16,19,Jits_Linear_5,0,1,48,30,1503216416
97,16,19,Jits_Linear_5,1,5,56,103,1503234500
97,16,19,Jits_Linear_5,2,5,80,127,1503244848
97,16,19,Jits_Linear_5,3,5,63,98,1503315336
97,16,19,Jits_Linear_5,0,5,63,98,1503844780
97,16,19,Jits_Linear_5,1,5,80,127,1503884572
97,16,19,Jits_Linear_5,2,5,56,103,1503924536
97,16,19,Jits_Linear_5,3,1,48,35,1503943464
97,16,19,Jits_Linear_5,0,5,56,103,1504484824
97,16,19,Jits_Linear_5,1,5,63,98,1504495244
97,16,19,Jits_Linear_5,2,5,80,127,1504514508
97,16,19,Jits_Linear_5,3,1,48,39,1504568192
97,16,19,Jits_Linear_5,0,1,48,37,1505146768
97,16,19,Jits_Linear_5,1,5,63,98,1505154292
97,16,19,Jits_Linear_5,2,5,80,127,1505174976
97,16,19,Jits_Linear_5,3,5,56,103,1505195436
97,16,19,Jits_Linear_5,0,5,56,103,1505724888
97,16,19,Jits_Linear_5,1,1,48,35,1505769360
97,16,19,Jits_Linear_5,2,5,80,127,1505804680
97,16,19,Jits_Linear_5,3,5,63,98,1505815100
97,16,19,Jits_Linear_5,0,5,80,127,1506394440
97,16,19,Jits_Linear_5,1,5,63,98,1506404712
97,16,19,Jits_Linear_5,2,1,48,38,1506413008
97,16,19,Jits_Linear_5,3,5,56,103,1506434456
97,16,19,Jits_Linear_5,0,5,63,98,1506985396
97,16,19,Jits_Linear_5,1,5,80,127,1507025364
97,16,19,Jits_Linear_5,2,1,48,36,1507028852
97,16,19,Jits_Linear_5,3,5,56,103,1507084700
97,16,19,Jits_Linear_5,0,5,63,98,1507625368
97,16,19,Jits_Linear_5,1,5,56,103,1507674524
97,16,19,Jits_Linear_5,2,1,48,38,1507690372
97,16,19,Jits_Linear_5,3,5,80,127,1507705316
97,16,19,Jits_Linear_5,0,1,48,37,1508249908
97,16,19,Jits_Linear_5,1,5,80,127,1508274688
97,16,19,Jits_Linear_5,2,5,63,98,1508284736
97,16,19,Jits_Linear_5,3,5,56,103,1508354404
97,16,19,Jits_Linear_5,0,1,48,39,1508901848
97,16,19,Jits_Linear_5,1,5,80,127,1508985280
97,16,19,Jits_Linear_5,2,5,56,103,1508994504
97,16,19,Jits_Linear_5,3,5,63,98,1508997344
97,16,19,Jits_Linear_5,0,1,48,37,1509563196
97,16,19,Jits_Linear_5,1,5,56,103,1509564632
97,16,19,Jits_Linear_5,2,5,80,127,1509585316
97,16,19,Jits_Linear_5,3,5,63,98,1509594464
97,16,19,Jits_Linear_5,0,1,48,36,1510165208
97,16,19,Jits_Linear_5,1,5,63,98,1510215280
97,16,19,Jits_Linear_5,2,5,56,103,1510255148
97,16,19,Jits_Linear_5,3,5,80,127,1510274396
97,16,19,Jits_Linear_5,0,1,48,35,1510806124
97,16,19,Jits_Linear_5,1,5,63,98,1510865216
97,16,19,Jits_Linear_5,2,5,56,103,1510924768
97,16,19,Jits_Linear_5,3,5,80,127,1510927836
97,16,19,Jits_Linear_5,0,5,56,103,1511474512
97,16,19,Jits_Linear_5,1,5,80,127,1511495120
97,16,19,Jits_Linear_5,2,1,48,37,1511506856
97,16,19,Jits_Linear_5,3,5,63,98,1511535204
97,16,19,Jits_Linear_5,0,1,48,37,1512112656
97,16,19,Jits_Linear_5,1,5,56,103,1512154412
97,16,19,Jits_Linear_5,2,5,63,98,1512175244
97,16,19,Jits_Linear_5,3,5,80,127,1512185140
97,16,19,Jits_Linear_5,0,5,80,127,1512775172
97,16,19,Jits_Linear_5,1,1,48,36,1512784516
97,16,19,Jits_Linear_5,2,5,56,103,1512804920
97,16,19,Jits_Linear_5,3,5,63,98,1512844708
97,16,19,Jits_Linear_5,0,5,80,127,1513434484
97,16,19,Jits_Linear_5,1,5,56,103,1513454944
97,16,19,Jits_Linear_5,2,1,48,33,1513468028
97,16,19,Jits_Linear_5,3,5,63,98,1513515328
97,16,19,Jits_Linear_5,0,5,56,103,1514095188
97,16,19,Jits_Linear_5,1,5,80,127,1514114380
97,16,19,Jits_Linear_5,2,1,48,30,1514125520
97,16,19,Jits_Linear_5,3,5,63,98,1514175160
97,16,19,Jits_Linear_5,0,5,80,127,1514735240
97,16,19,Jits_Linear_5,1,5,56,103,1514745140
97,16,19,Jits_Linear_5,2,1,48,38,1514780096
97,16,19,Jits_Linear_5,3,5,63,98,1514785224
97,16,19,Jits_Linear_5,0,5,63,98,1515394448
97,16,19,Jits_Linear_5,1,1,48,38,1515429108
97,16,19,Jits_Linear_5,2,5,56,103,1515435576
97,16,19,Jits_Linear_5,3,5,80,127,1515438592
97,16,19,Jits_Linear_5,0,1,48,38,1516057436
97,16,19,Jits_Linear_5,1,5,63,98,1516075300
97,16,19,Jits_Linear_5,2,5,80,127,1516115168
97,16,19,Jits_Linear_5,3,5,56,103,1516145064
97,16,19,Jits_Linear_5,0,5,56,103,1516724560
97,16,19,Jits_Linear_5,1,5,63,98,1516735204
97,16,19,Jits_Linear_5,2,5,80,127,1516764436
97,16,19,Jits_Linear_5,3,1,48,40,1516788752
97,16,19,Jits_Linear_5,0,5,80,127,1517384968
97,16,19,Jits_Linear_5,1,1,48,38,1517386904
97,16,19,Jits_Linear_5,2,5,63,98,1517454792
97,16,19,Jits_Linear_5,3,5,56,103,1517465068
97,16,19,Jits_Linear_5,0,5,63,98,1518054988
97,16,19,Jits_Linear_5,1,1,48,38,1518060128
97,16,19,Jits_Linear_5,2,5,56,103,1518125420
97,16,19,Jits_Linear_5,3,5,80,127,1518134568
97,16,19,Jits_Linear_5,0,5,63,98,1518724452
97,16,19,Jits_Linear_5,1,1,48,38,1518725640
97,16,19,Jits_Linear_5,2,5,56,103,1518745128
97,16,19,Jits_Linear_5,3,5,80,127,1518784944
97,16,19,Jits_Linear_5,0,5,56,103,1519405392
97,16,19,Jits_Linear_5,1,1,48,39,1519410080
97,16,19,Jits_Linear_5,2,5,63,98,1519414760
97,16,19,Jits_Linear_5,3,5,80,127,1519494480
97,16,19,Jits_Linear_5,0,5,63,98,1520065004
97,16,19,Jits_Linear_5,1,5,56,103,1520094456
97,16,19,Jits_Linear_5,2,1,48,47,1520123876
97,16,19,Jits_Linear_5,3,5,80,127,1520134464
97,16,19,Jits_Linear_5,0,5,56,103,1520734464
97,16,19,Jits_Linear_5,1,5,63,98,1520774480
97,16,19,Jits_Linear_5,2,1,48,42,1520810556
97,16,19,Jits_Linear_5,3,5,80,127,1520814436
97,16,19,Jits_Linear_5,0,5,80,127,1521414520
97,16,19,Jits_Linear_5,1,1,48,42,1521441752
97,16,19,Jits_Linear_5,2,5,56,103,1521495360
97,16,19,Jits_Linear_5,3,5,63,98,1521504584
97,16,19,Jits_Linear_5,0,1,48,33,1522115528
97,16,19,Jits_Linear_5,1,5,56,103,1522135484
97,16,19,Jits_Linear_5,2,5,63,98,1522138548
97,16,19,Jits_Linear_5,3,5,80,127,1522144560
97,16,19,Jits_Linear_5,0,1,48,35,1522769904
97,16,19,Jits_Linear_5,1,5,56,103,1522834900
97,16,19,Jits_Linear_5,2,5,63,98,1522855360
97,16,19,Jits_Linear_5,3,5,80,127,1522864372
97,16,19,Jits_Linear_5,0,1,48,24,1523459996
97,16,19,Jits_Linear_5,1,5,63,98,1523474940
97,16,19,Jits_Linear_5,2,5,80,127,1523485064
97,16,19,Jits_Linear_5,3,5,56,103,1523504476
97,16,19,Jits_Linear_5,0,1,48,29,1524128184
97,16,19,Jits_Linear_5,1,5,63,98,1524165100
97,16,19,Jits_Linear_5,2,5,56,103,1524245260
97,16,19,Jits_Linear_5,3,5,80,127,1524248172
97,16,19,Jits_Linear_5,0,1,48,29,1524821180
97,16,19,Jits_Linear_5,1,5,63,98,1524855004
97,16,19,Jits_Linear_5,2,5,56,103,1524874568
97,16,19,Jits_Linear_5,3,5,80,127,1524905364
97,16,19,Jits_Linear_5,0,1,48,28,1525502168
97,16,19,Jits_Linear_5,1,5,56,103,1525545364
97,16,19,Jits_Linear_5,2,5,63,98,1525565072
97,16,19,Jits_Linear_5,3,5,80,127,1525575048
97,16,19,Jits_Linear_5,0,1,48,28,1526237372
97,16,19,Jits_Linear_5,1,5,56,103,1526265268
97,16,19,Jits_Linear_5,2,5,63,98,1526294872
97,16,19,Jits_Linear_5,3,5,80,127,1526298084
97,16,19,Jits_Linear_5,0,5,56,103,1526905132
97,16,19,Jits_Linear_5,1,1,48,32,1526933356
97,16,19,Jits_Linear_5,2,5,63,98,1526945068
97,16,19,Jits_Linear_5,3,5,80,127,1527004660
97,16,19,Jits_Linear_5,0,1,48,31,1527610180
97,16,19,Jits_Linear_5,1,5,56,103,1527615008
97,16,19,Jits_Linear_5,2,5,63,98,1527625132
97,16,19,Jits_Linear_5,3,5,80,127,1527684400
97,16,19,Jits_Linear_5,0,5,56,103,1528315288
97,16,19,Jits_Linear_5,1,1,48,37,1528316328
97,16,19,Jits_Linear_5,2,5,80,127,1528334696
97,16,19,Jits_Linear_5,3,5,63,98,1528365420
97,16,19,Jits_Linear_5,0,5,80,127,1529014832
97,16,19,Jits_Linear_5,1,5,56,103,1529024952
97,16,19,Jits_Linear_5,2,5,63,98,1529045488
97,16,19,Jits_Linear_5,3,1,48,44,1529048456
97,16,19,Jits_Linear_5,0,5,63,98,1529704756
97,16,19,Jits_Linear_5,1,1,48,38,1529737916
97,16,19,Jits_Linear_5,2,5,80,127,1529784796
97,16,19,Jits_Linear_5,3,5,56,103,1529795064
97,16,19,Jits_Linear_5,0,1,48,38,1530446956
97,16,19,Jits_Linear_5,1,5,80,127,1530464740
97,16,19,Jits_Linear_5,2,5,56,103,1530485048
97,16,19,Jits_Linear_5,3,5,63,98,1530488040
97,16,19,Jits_Linear_5,0,5,63,98,1531144532
97,16,19,Jits_Linear_5,1,5,80,127,1531148044
97,16,19,Jits_Linear_5,2,1,48,36,1531160156
97,16,19,Jits_Linear_5,3,5,56,103,1531204916
97,16,19,Jits_Linear_5,0,5,56,103,1531834760
97,16,19,Jits_Linear_5,1,5,80,127,1531844956
97,16,19,Jits_Linear_5,2,5,63,98,1531884896
97,16,19,Jits_Linear_5,3,1,48,37,1531888840
97,16,19,Jits_Linear_5,0,5,56,103,1532524912
97,16,19,Jits_Linear_5,1,1,48,30,1532557332
97,16,19,Jits_Linear_5,2,5,63,98,1532585300
97,16,19,Jits_Linear_5,3,5,80,127,1532594524
97,16,19,Jits_Linear_5,0,5,63,98,1533244884
97,16,19,Jits_Linear_5,1,1,48,32,1533247852
97,16,19,Jits_Linear_5,2,5,80,127,1533284816
97,16,19,Jits_Linear_5,3,5,56,103,1533324904
97,16,19,Jits_Linear_5,0,5,56,103,1533954376
97,16,19,Jits_Linear_5,1,1,48,36,1533976524
97,16,19,Jits_Linear_5,2,5,63,98,1534035292
97,16,19,Jits_Linear_5,3,5,80,127,1534038876
97,16,19,Jits_Linear_5,0,1,48,35,1534678152
97,16,19,Jits_Linear_5,1,5,80,127,1534724632
97,16,19,Jits_Linear_5,2,5,56,103,1534755128
97,16,19,Jits_Linear_5,3,5,63,98,1534758268
97,16,19,Jits_Linear_5,0,1,48,36,1535396008
97,16,19,Jits_Linear_5,1,5,56,103,1535405792
97,16,19,Jits_Linear_5,2,5,80,127,1535424836
97,16,19,Jits_Linear_5,3,5,63,98,1535464776
97,16,19,Jits_Linear_5,0,1,48,34,1536070728
97,16,19,Jits_Linear_5,1,5,80,127,1536104776
97,16,19,Jits_Linear_5,2,5,63,98,1536125312
97,16,19,Jits_Linear_5,3,5,56,103,1536184740
97,16,19,Jits_Linear_5,0,1,48,32,1536833744
97,16,19,Jits_Linear_5,1,5,63,98,1536835316
97,16,19,Jits_Linear_5,2,5,56,103,1536845140
97,16,19,Jits_Linear_5,3,5,80,127,1536895268
97,16,19,Jits_Linear_5,0,1,48,37,1537515636
97,16,19,Jits_Linear_5,1,5,56,103,1537544656
97,16,19,Jits_Linear_5,2,5,63,98,1537564968
97,16,19,Jits_Linear_5,3,5,80,127,1537575164
97,16,19,Jits_Linear_5,0,1,48,33,1538252308
97,16,19,Jits_Linear_5,1,5,56,103,1538264556
97,16,19,Jits_Linear_5,2,5,63,98,1538267844
97,16,19,Jits_Linear_5,3,5,80,127,1538284940
97,16,19,Jits_Linear_5,0,1,48,32,1538957720
97,16,19,Jits_Linear_5,1,5,63,98,1539034572
97,16,19,Jits_Linear_5,2,5,56,103,1539065280
97,16,19,Jits_Linear_5,3,5,80,127,1539095032
97,16,19,Jits_Linear_5,0,1,48,33,1539692376
97,16,19,Jits_Linear_5,1,5,80,127,1539724636
97,16,19,Jits_Linear_5,2,5,56,103,1539814708
97,16,19,Jits_Linear_5,3,5,63,98,1539817776
97,16,19,Jits_Linear_5,0,1,48,38,1540428020
97,16,19,Jits_Linear_5,1,5,56,103,1540454868
97,16,19,Jits_Linear_5,2,5,80,127,1540457860
97,16,19,Jits_Linear_5,3,5,63,98,1540534752
97,16,19,Jits_Linear_5,0,1,48,33,1541123196
97,16,19,Jits_Linear_5,1,5,80,127,1541184880
97,16,19,Jits_Linear_5,2,5,63,98,1541245184
97,16,19,Jits_Linear_5,3,5,56,103,1541274936
97,16,19,Jits_Linear_5,0,1,48,33,1541905356
97,16,19,Jits_Linear_5,1,5,63,98,1541914900
97,16,19,Jits_Linear_5,2,5,80,127,1541925244
97,16,19,Jits_Linear_5,3,5,56,103,1541994852
97,16,19,Jits_Linear_5,0,1,48,35,1542643688
97,16,19,Jits_Linear_5,1,5,56,103,1542664692
97,16,19,Jits_Linear_5,2,5,80,127,1542695416
97,16,19,Jits_Linear_5,3,5,63,98,1542744556
97,16,19,Jits_Linear_5,0,1,48,36,1543396924
97,16,19,Jits_Linear_5,1,5,63,98,1543444904
97,16,19,Jits_Linear_5,2,5,56,103,1543474880
97,16,19,Jits_Linear_5,3,5,80,127,1543477868
97,16,19,Jits_Linear_5,0,1,48,36,1544164104
97,16,19,Jits_Linear_5,1,5,63,98,1544185180
97,16,19,Jits_Linear_5,2,5,80,127,1544204816
97,16,19,Jits_Linear_5,3,5,56,103,1544214936
97,16,19,Jits_Linear_5,0,1,48,33,1544888500
97,16,19,Jits_Linear_5,1,5,56,103,1544934900
97,16,19,Jits_Linear_5,2,5,63,98,1544937892
97,16,19,Jits_Linear_5,3,5,80,127,1544955212
97,16,19,Jits_Linear_5,0,1,48,32,1545612028
97,16,19,Jits_Linear_5,1,5,56,103,1545635144
97,16,19,Jits_Linear_5,2,5,63,98,1545645516
97,16,19,Jits_Linear_5,3,5,80,127,1545675040
97,16,19,Jits_Linear_5,0,1,48,30,1546394732
97,16,19,Jits_Linear_5,1,5,63,98,1546405096
97,16,19,Jits_Linear_5,2,5,80,127,1546424828
97,16,19,Jits_Linear_5,3,5,56,103,1546464768
97,16,19,Jits_Linear_5,0,1,48,29,1547150664
97,16,19,Jits_Linear_5,1,5,56,103,1547184588
97,16,19,Jits_Linear_5,2,5,63,98,1547224832
97,16,19,Jits_Linear_5,3,5,80,127,1547227968
97,16,19,Jits_Linear_5,0,5,80,127,1547874724
97,16,19,Jits_Linear_5,1,1,48,26,1547914592
97,16,19,Jits_Linear_5,2,5,56,103,1547916004
97,16,19,Jits_Linear_5,3,5,63,98,1547964736
97,16,19,Jits_Linear_5,0,1,48,32,1548661284
97,16,19,Jits_Linear_5,1,5,56,103,1548684620
97,16,19,Jits_Linear_5,2,5,80,127,1548695040
97,16,19,Jits_Linear_5,3,5,63,98,1548724816
97,16,19,Jits_Linear_5,0,5,56,103,1549385052
97,16,19,Jits_Linear_5,1,5,80,127,1549424920
97,16,19,Jits_Linear_5,2,1,48,31,1549429604
97,16,19,Jits_Linear_5,3,5,63,98,1549475116
97,16,19,Jits_Linear_5,0,5,56,103,1550144908
97,16,19,Jits_Linear_5,1,5,80,127,1550184700
97,16,19,Jits_Linear_5,2,1,48,34,1550218536
97,16,19,Jits_Linear_5,3,5,63,98,1550235044
97,16,19,Jits_Linear_5,0,5,80,127,1550894420
97,16,19,Jits_Linear_5,1,5,63,98,1550975488
97,16,19,Jits_Linear_5,2,1,48,35,1550980700
97,16,19,Jits_Linear_5,3,5,56,103,1550984708
97,16,19,Jits_Linear_5,0,5,80,127,1551704620
97,16,19,Jits_Linear_5,1,5,56,103,1551714816
97,16,19,Jits_Linear_5,2,1,48,35,1551722668
97,16,19,Jits_Linear_5,3,5,63,98,1551735048
97,16,19,Jits_Linear_5,0,5,63,98,1552434508
97,16,19,Jits_Linear_5,1,1,48,38,1552503176
97,16,19,Jits_Linear_5,2,5,56,103,1552505148
97,16,19,Jits_Linear_5,3,5,80,127,1552508444
97,16,19,Jits_Linear_5,0,5,80,127,1553195608
97,16,19,Jits_Linear_5,1,5,63,98,1553244468
97,16,19,Jits_Linear_5,2,1,48,41,1553252836
97,16,19,Jits_Linear_5,3,5,56,103,1553284624
97,16,19,Jits_Linear_5,0,5,63,98,1554005660
97,16,19,Jits_Linear_5,1,1,48,37,1554018292
97,16,19,Jits_Linear_5,2,5,56,103,1554045224
97,16,19,Jits_Linear_5,3,5,80,127,1554054520
97,16,19,Jits_Linear_5,0,5,63,98,1554765128
97,16,19,Jits_Linear_5,1,1,48,37,1554784544
97,16,19,Jits_Linear_5,2,5,56,103,1554785956
97,16,19,Jits_Linear_5,3,5,80,127,1554804996
97,16,19,Jits_Linear_5,0,5,80,127,1555495444
97,16,19,Jits_Linear_5,1,5,56,103,1555504444
97,16,19,Jits_Linear_5,2,1,48,33,1555506080
97,16,19,Jits_Linear_5,3,5,63,98,1555525124
97,16,19,Jits_Linear_5,0,1,48,35,1556253688
97,16,19,Jits_Linear_5,1,5,63,98,1556294924
97,16,19,Jits_Linear_5,2,5,56,103,1556335016
97,16,19,Jits_Linear_5,3,5,80,127,1556364600
97,16,19,Jits_Linear_5,0,1,48,34,1557015252
97,16,19,Jits_Linear_5,1,5,56,103,1557075592
97,16,19,Jits_Linear_5,2,5,63,98,1557104972
97,16,19,Jits_Linear_5,3,5,80,127,1557134632
97,16,19,Jits_Linear_5,0,1,48,35,1557819816
97,16,19,Jits_Linear_5,1,5,80,127,1557825016
97,16,19,Jits_Linear_5,2,5,56,103,1557894624
97,16,19,Jits_Linear_5,3,5,63,98,1557897616
97,16,19,Jits_Linear_5,0,1,48,37,1558615272
97,16,19,Jits_Linear_5,1,5,56,103,1558616608
97,16,19,Jits_Linear_5,2,5,63,98,1558664644
97,16,19,Jits_Linear_5,3,5,80,127,1558695516
97,16,19,Jits_Linear_5,0,1,48,31,1559372588
97,16,19,Jits_Linear_5,1,5,63,98,1559375320
97,16,19,Jits_Linear_5,2,5,80,127,1559378536
97,16,19,Jits_Linear_5,3,5,56,103,1559434664
97,16,19,Jits_Linear_5,0,1,48,33,1560152440
97,16,19,Jits_Linear_5,1,5,56,103,1560185200
97,16,19,Jits_Linear_5,2,5,80,127,1560194348
97,16,19,Jits_Linear_5,3,5,63,98,1560245756
97,16,19,Jits_Linear_5,0,5,63,98,1560944968
97,16,19,Jits_Linear_5,1,1,48,32,1560947352
97,16,19,Jits_Linear_5,2,5,56,103,1560955456
97,16,19,Jits_Linear_5,3,5,80,127,1560984908
97,16,19,Jits_Linear_5,0,1,48,24,1561703944
97,16,19,Jits_Linear_5,1,5,63,98,1561765476
97,16,19,Jits_Linear_5,2,5,80,127,1561768840
97,16,19,Jits_Linear_5,3,5,56,103,1561794880
97,16,19,Jits_Linear_5,0,1,48,24,1562489752
97,16,19,Jits_Linear_5,1,5,63,98,1562575452
97,16,19,Jits_Linear_5,2,5,56,103,1562594624
97,16,19,Jits_Linear_5,3,5,80,127,1562597616
97,16,19,Jits_Linear_5,0,5,63,98,1563324724
97,16,19,Jits_Linear_5,1,1,48,31,1563337884
97,16,19,Jits_Linear_5,2,5,56,103,1563394476
97,16,19,Jits_Linear_5,3,5,80,127,1563414864
97,16,19,Jits_Linear_5,0,5,56,103,1564104944
97,16,19,Jits_Linear_5,1,5,63,98,1564115436
97,16,19,Jits_Linear_5,2,1,48,36,1564137136
97,16,19,Jits_Linear_5,3,5,80,127,1564205488
97,16,19,Jits_Linear_5,0,1,48,34,1564901836
97,16,19,Jits_Linear_5,1,5,56,103,1564915060
97,16,19,Jits_Linear_5,2,5,80,127,1564954924
97,16,19,Jits_Linear_5,3,5,63,98,1564965568
97,16,19,Jits_Linear_5,0,1,48,28,1565674040
97,16,19,Jits_Linear_5,1,5,56,103,1565735352
97,16,19,Jits_Linear_5,2,5,63,98,1565764956
97,16,19,Jits_Linear_5,3,5,80,127,1565794764
97,16,19,Jits_Linear_5,0,1,48,26,1566456500
97,16,19,Jits_Linear_5,1,5,80,127,1566495188
97,16,19,Jits_Linear_5,2,5,63,98,1566534984
97,16,19,Jits_Linear_5,3,5,56,103,1566554604
97,16,19,Jits_Linear_5,0,1,48,37,1567247200
97,16,19,Jits_Linear_5,1,5,56,103,1567334892
97,16,19,Jits_Linear_5,2,5,80,127,1567355340
97,16,19,Jits_Linear_5,3,5,63,98,1567374604
97,16,19,Jits_Linear_5,0,1,48,36,1568093512
97,16,19,Jits_Linear_5,1,5,63,98,1568104996
97,16,19,Jits_Linear_5,2,5,56,103,1568115192
97,16,19,Jits_Linear_5,3,5,80,127,1568174488
97,16,19,Jits_Linear_5,0,1,48,37,1568887500
97,16,19,Jits_Linear_5,1,5,56,103,1568914804
97,16,19,Jits_Linear_5,2,5,63,98,1568985248
97,16,19,Jits_Linear_5,3,5,80,127,1569004884
97,16,19,Jits_Linear_5,0,1,48,34,1569704884
97,16,19,Jits_Linear_5,1,5,56,103,1569724792
97,16,19,Jits_Linear_5,2,5,63,98,1569754544
97,16,19,Jits_Linear_5,3,5,80,127,1569794484
97,16,19,Jits_Linear_5,0,5,63,98,1570524568
97,16,19,Jits_Linear_5,1,1,48,28,1570552028
97,16,19,Jits_Linear_5,2,5,56,103,1570574692
97,16,19,Jits_Linear_5,3,5,80,127,1570584812
97,16,19,Jits_Linear_5,0,1,48,27,1571293292
97,16,19,Jits_Linear_5,1,5,56,103,1571374380
97,16,19,Jits_Linear_5,2,5,63,98,1571424496
97,16,19,Jits_Linear_5,3,5,80,127,1571434768
97,16,19,Jits_Linear_5,0,5,56,103,1572154608
97,16,19,Jits_Linear_5,1,5,63,98,1572165252
97,16,19,Jits_Linear_5,2,1,48,26,1572198788
97,16,19,Jits_Linear_5,3,5,80,127,1572244816
97,16,19,Jits_Linear_5,0,9999,9999,9999,1463402580
97,16,19,Jits_Linear_5,1,9999,9999,9999,1463882872
97,16,19,Jits_Linear_5,2,9999,9999,9999,1464363100
97,16,19,Jits_Linear_5,3,9999,9999,9999,1464852536
97,16,19,Jits_Linear_5,4,9999,9999,9999,1465332824
97,16,19,Jits_Linear_5,5,9999,9999,9999,1465822328
97,16,19,Jits_Linear_5,6,9999,9999,9999,1466312800
97,16,19,Jits_Linear_5,7,9999,9999,9999,1466802244
97,16,19,Jits_Linear_5,8,9999,9999,9999,1467292764
97,16,19,Jits_Linear_5,9,9999,9999,9999,1467782268
97,16,19,Jits_Linear_5,10,9999,9999,9999,1468282940
97,16,19,Jits_Linear_5,11,9999,9999,9999,1468782708
97,16,19,Jits_Linear_5,12,9999,9999,9999,1469282392
97,16,19,Jits_Linear_5,13,9999,9999,9999,1469782124
97,16,19,Jits_Linear_5,14,9999,9999,9999,1470282860
97,16,19,Jits_Linear_5,15,9999,9999,9999,1470792828
97,16,19,Jits_Linear_5,16,9999,9999,9999,1471302776
97,16,19,Jits_Linear_5,17,9999,9999,9999,1471812732
97,16,19,Jits_Linear_5,18,9999,9999,9999,1472322620
97,16,19,Jits_Linear_5,19,9999,9999,9999,1472832572
97,16,19,Jits_Linear_5,20,9999,9999,9999,1473352784
97,16,19,Jits_Linear_5,21,9999,9999,9999,1473873000
97,16,19,Jits_Linear_5,22,9999,9999,9999,1474392168
97,16,19,Jits_Linear_5,23,9999,9999,9999,1474912324
97,16,19,Jits_Linear_5,24,9999,9999,9999,1475432548
97,16,19,Jits_Linear_5,25,9999,9999,9999,1475962960
97,16,19,Jits_Linear_5,26,9999,9999,9999,1476492392
97,16,19,Jits_Linear_5,27,9999,9999,9999,1477022788
97,16,19,Jits_Linear_5,28,9999,9999,9999,1477552188
97,16,19,Jits_Linear_5,29,9999,9999,9999,1478082676
97,16,19,Jits_Linear_5,30,9999,9999,9999,1478622312
97,16,19,Jits_Linear_5,31,9999,9999,9999,1479162996
97,16,19,Jits_Linear_5,32,9999,9999,9999,1479702628
97,16,19,Jits_Linear_5,33,9999,9999,9999,1480242264
97,16,19,Jits_Linear_5,34,9999,9999,9999,1480782948
97,16,19,Jits_Linear_5,35,9999,9999,9999,1481332848
97,16,19,Jits_Linear_5,36,9999,9999,9999,1481882720
97,16,19,Jits_Linear_5,37,9999,9999,9999,1482432632
97,16,19,Jits_Linear_5,38,9999,9999,9999,1482982460
97,16,19,Jits_Linear_5,39,9999,9999,9999,1483532348
97,16,19,Jits_Linear_5,40,9999,9999,9999,1484092496
97,16,19,Jits_Linear_5,41,9999,9999,9999,1484652644
97,16,19,Jits_Linear_5,42,9999,9999,9999,1485212732
97,16,19,Jits_Linear_5,43,9999,9999,9999,1485772876
97,16,19,Jits_Linear_5,44,9999,9999,9999,1486333020
97,16,19,Jits_Linear_5,45,9999,9999,9999,1486902400
97,16,19,Jits_Linear_5,46,9999,9999,9999,1487472736
97,16,19,Jits_Linear_5,47,9999,9999,9999,1488043080
97,16,19,Jits_Linear_5,48,9999,9999,9999,1488622652
97,16,19,Jits_Linear_5,49,9999,9999,9999,1489193084
97,16,19,Jits_Linear_5,50,9999,9999,9999,1489772628
97,16,19,Jits_Linear_5,51,9999,9999,9999,1490352220
97,16,19,Jits_Linear_5,52,9999,9999,9999,1490932840
97,16,19,Jits_Linear_5,53,9999,9999,9999,1491512408
97,16,19,Jits_Linear_5,54,9999,9999,9999,1492093012
97,16,19,Jits_Linear_5,55,9999,9999,9999,1492682872
97,16,19,Jits_Linear_5,56,9999,9999,9999,1493272700
97,16,19,Jits_Linear_5,57,9999,9999,9999,1493862524
97,16,19,Jits_Linear_5,58,9999,9999,9999,1494452312
97,16,19,Jits_Linear_5,59,9999,9999,9999,1495042116
97,16,19,Jits_Linear_5,60,9999,9999,9999,1495642204
97,16,19,Jits_Linear_5,61,9999,9999,9999,1496242304
97,16,19,Jits_Linear_5,62,9999,9999,9999,1496842324
97,16,19,Jits_Linear_5,63,9999,9999,9999,1497442400
97,16,19,Jits_Linear_5,64,9999,9999,9999,1498042436
97,16,19,Jits_Linear_5,65,9999,9999,9999,1498652788
97,16,19,Jits_Linear_5,66,9999,9999,9999,1499263076
97,16,19,Jits_Linear_5,67,9999,9999,9999,1499872316
97,16,19,Jits_Linear_5,68,9999,9999,9999,1500482676
97,16,19,Jits_Linear_5,69,9999,9999,9999,1501092948
97,16,19,Jits_Linear_5,70,9999,9999,9999,1501712440
97,16,19,Jits_Linear_5,71,9999,9999,9999,1502332988
97,16,19,Jits_Linear_5,72,9999,9999,9999,1502952500
97,16,19,Jits_Linear_5,73,9999,9999,9999,1503573112
97,16,19,Jits_Linear_5,74,9999,9999,9999,1504192624
97,16,19,Jits_Linear_5,75,9999,9999,9999,1504822376
97,16,19,Jits_Linear_5,76,9999,9999,9999,1505452096
97,16,19,Jits_Linear_5,77,9999,9999,9999,1506082900
97,16,19,Jits_Linear_5,78,9999,9999,9999,1506712664
97,16,19,Jits_Linear_5,79,9999,9999,9999,1507342456
97,16,19,Jits_Linear_5,80,9999,9999,9999,1507982400
97,16,19,Jits_Linear_5,81,9999,9999,9999,1508622440
97,16,19,Jits_Linear_5,82,9999,9999,9999,1509262452
97,16,19,Jits_Linear_5,83,9999,9999,9999,1509902412
97,16,19,Jits_Linear_5,84,9999,9999,9999,1510542432
97,16,19,Jits_Linear_5,85,9999,9999,9999,1511192656
97,16,19,Jits_Linear_5,86,9999,9999,9999,1511842928
97,16,19,Jits_Linear_5,87,9999,9999,9999,1512492120
97,16,19,Jits_Linear_5,88,9999,9999,9999,1513142348
97,16,19,Jits_Linear_5,89,9999,9999,9999,1513792564
97,16,19,Jits_Linear_5,90,9999,9999,9999,1514453072
97,16,19,Jits_Linear_5,91,9999,9999,9999,1515112504
97,16,19,Jits_Linear_5,92,9999,9999,9999,1515772996
97,16,19,Jits_Linear_5,93,9999,9999,9999,1516432492
97,16,19,Jits_Linear_5,94,9999,9999,9999,1517092980
97,16,19,Jits_Linear_5,95,9999,9999,9999,1517762632
97,16,19,Jits_Linear_5,96,9999,9999,9999,1518432328
97,16,19,Jits_Linear_5,97,9999,9999,9999,1519103084
97,16,19,Jits_Linear_5,98,9999,9999,9999,1519772768
97,16,19,Jits_Linear_5,99,9999,9999,9999,1520442492
97,16,19,Jits_Linear_5,100,9999,9999,9999,1521122388
97,16,19,Jits_Linear_5,101,9999,9999,9999,1521802348
97,16,19,Jits_Linear_5,102,9999,9999,9999,1522482248
97,16,19,Jits_Linear_5,103,9999,9999,9999,1523162224
97,16,19,Jits_Linear_5,104,9999,9999,9999,1523842168
97,16,19,Jits_Linear_5,105,9999,9999,9999,1524532324
97,16,19,Jits_Linear_5,106,9999,9999,9999,1525222456
97,16,19,Jits_Linear_5,107,9999,9999,9999,1525912664
97,16,19,Jits_Linear_5,108,9999,9999,9999,1526602820
97,16,19,Jits_Linear_5,109,9999,9999,9999,1527292984
97,16,19,Jits_Linear_5,110,9999,9999,9999,1527992376
97,16,19,Jits_Linear_5,111,9999,9999,9999,1528692852
97,16,19,Jits_Linear_5,112,9999,9999,9999,1529392240
97,16,19,Jits_Linear_5,113,9999,9999,9999,1530092604
97,16,19,Jits_Linear_5,114,9999,9999,9999,1530793052
97,16,19,Jits_Linear_5,115,9999,9999,9999,1531502676
97,16,19,Jits_Linear_5,116,9999,9999,9999,1532212320
97,16,19,Jits_Linear_5,117,9999,9999,9999,1532923000
97,16,19,Jits_Linear_5,118,9999,9999,9999,1533632584
97,16,19,Jits_Linear_5,119,9999,9999,9999,1534342268
97,16,19,Jits_Linear_5,120,9999,9999,9999,1535062108
97,16,19,Jits_Linear_5,121,9999,9999,9999,1535782988
97,16,19,Jits_Linear_5,122,9999,9999,9999,1536502896
97,16,19,Jits_Linear_5,123,9999,9999,9999,1537222724
97,16,19,Jits_Linear_5,124,9999,9999,9999,1537942596
97,16,19,Jits_Linear_5,125,9999,9999,9999,1538672752
97,16,19,Jits_Linear_5,126,9999,9999,9999,1539402848
97,16,19,Jits_Linear_5,127,9999,9999,9999,1540132936
97,16,19,Jits_Linear_5,128,9999,9999,9999,1540863092
97,16,19,Jits_Linear_5,129,9999,9999,9999,1541592144
97,16,19,Jits_Linear_5,130,9999,9999,9999,1542332496
97,16,19,Jits_Linear_5,131,9999,9999,9999,1543072828
97,16,19,Jits_Linear_5,132,9999,9999,9999,1543812200
97,16,19,Jits_Linear_5,133,9999,9999,9999,1544552556
97,16,19,Jits_Linear_5,134,9999,9999,9999,1545292904
97,16,19,Jits_Linear_5,135,9999,9999,9999,1546042476
97,16,19,Jits_Linear_5,136,9999,9999,9999,1546793024
97,16,19,Jits_Linear_5,137,9999,9999,9999,1547542592
97,16,19,Jits_Linear_5,138,9999,9999,9999,1548292168
97,16,19,Jits_Linear_5,139,9999,9999,9999,1549042808
97,16,19,Jits_Linear_5,140,9999,9999,9999,1549802568
97,16,19,Jits_Linear_5,141,9999,9999,9999,1550562424
97,16,19,Jits_Linear_5,142,9999,9999,9999,1551322200
97,16,19,Jits_Linear_5,143,9999,9999,9999,1552083024
97,16,19,Jits_Linear_5,144,9999,9999,9999,1552842872
97,16,19,Jits_Linear_5,145,9999,9999,9999,1553612900
97,16,19,Jits_Linear_5,146,9999,9999,9999,1554382948
97,16,19,Jits_Linear_5,147,9999,9999,9999,1555152976
97,16,19,Jits_Linear_5,148,9999,9999,9999,1555922996
97,16,19,Jits_Linear_5,149,9999,9999,9999,1556693120
97,16,19,Jits_Linear_5,150,9999,9999,9999,1557472364
97,16,19,Jits_Linear_5,151,9999,9999,9999,1558252644
97,16,19,Jits_Linear_5,152,9999,9999,9999,1559032936
97,16,19,Jits_Linear_5,153,9999,9999,9999,1559812164
97,16,19,Jits_Linear_5,154,9999,9999,9999,1560592456
97,16,19,Jits_Linear_5,155,9999,9999,9999,1561383008
97,16,19,Jits_Linear_5,156,9999,9999,9999,1562172500
97,16,19,Jits_Linear_5,157,9999,9999,9999,1562963048
97,16,19,Jits_Linear_5,158,9999,9999,9999,1563752556
97,16,19,Jits_Linear_5,159,9999,9999,9999,1564543032
97,16,19,Jits_Linear_5,160,9999,9999,9999,1565342820
97,16,19,Jits_Linear_5,161,9999,9999,9999,1566142540
97,16,19,Jits_Linear_5,162,9999,9999,9999,1566942304
97,16,19,Jits_Linear_5,163,9999,9999,9999,1567743052
97,16,19,Jits_Linear_5,164,9999,9999,9999,1568542820
97,16,19,Jits_Linear_5,165,9999,9999,9999,1569352780
97,16,19,Jits_Linear_5,166,9999,9999,9999,1570162816
97,16,19,Jits_Linear_5,167,9999,9999,9999,1570972772
97,16,19,Jits_Linear_5,168,9999,9999,9999,1571782764
97,16,19,Jits_Linear_5,169,9999,9999,9999,1572592724
97,17,7,Jits_ISO_8,0,5,56,103,1581869476
97,17,7,Jits_ISO_8,1,5,63,98,1581872572
97,17,7,Jits_ISO_8,2,5,80,127,1581875620
97,17,7,Jits_ISO_8,0,1,48,32,1582437080
97,17,7,Jits_ISO_8,1,5,56,103,1582670200
97,17,7,Jits_ISO_8,2,5,63,98,1582673224
97,17,7,Jits_ISO_8,3,5,80,127,1582676420
97,17,7,Jits_ISO_8,0,1,48,34,1583370100
97,17,7,Jits_ISO_8,1,5,80,127,1583409460
97,17,7,Jits_ISO_8,2,5,63,98,1583499508
97,17,7,Jits_ISO_8,3,5,56,103,1583510000
97,17,7,Jits_ISO_8,0,5,56,103,1584229632
97,17,7,Jits_ISO_8,1,1,48,37,1584240572
97,17,7,Jits_ISO_8,2,5,63,98,1584241768
97,17,7,Jits_ISO_8,3,5,80,127,1584330128
97,17,7,Jits_ISO_8,0,5,63,98,1585000060
97,17,7,Jits_ISO_8,1,1,48,39,1585013516
97,17,7,Jits_ISO_8,2,5,80,127,1585029580
97,17,7,Jits_ISO_8,3,5,56,103,1585060228
97,17,7,Jits_ISO_8,0,1,48,34,1585793732
97,17,7,Jits_ISO_8,1,5,56,103,1585799608
97,17,7,Jits_ISO_8,2,5,80,127,1585899940
97,17,7,Jits_ISO_8,3,5,63,98,1585949920
97,17,7,Jits_ISO_8,0,5,56,103,1586600372
97,17,7,Jits_ISO_8,1,1,48,24,1586618932
97,17,7,Jits_ISO_8,2,5,80,127,1586649596
97,17,7,Jits_ISO_8,3,5,63,98,1586690360
97,17,7,Jits_ISO_8,0,1,48,27,1587406344
97,17,7,Jits_ISO_8,1,5,80,127,1587429684
97,17,7,Jits_ISO_8,2,5,63,98,1587459360
97,17,7,Jits_ISO_8,3,5,56,103,1587530072
97,17,7,Jits_ISO_8,0,1,48,27,1588207944
97,17,7,Jits_ISO_8,1,5,63,98,1588260260
97,17,7,Jits_ISO_8,2,5,56,103,1588290008
97,17,7,Jits_ISO_8,3,5,80,127,1588350384
97,17,7,Jits_ISO_8,0,5,56,103,1588999436
97,17,7,Jits_ISO_8,1,5,80,127,1589002508
97,17,7,Jits_ISO_8,2,1,48,30,1589020540
97,17,7,Jits_ISO_8,3,5,63,98,1589120416
97,17,7,Jits_ISO_8,0,1,48,36,1589763156
97,17,7,Jits_ISO_8,1,5,56,103,1589880348
97,17,7,Jits_ISO_8,2,5,80,127,1589919988
97,17,7,Jits_ISO_8,3,5,63,98,1589930508
97,17,7,Jits_ISO_8,0,1,48,35,1590583324
97,17,7,Jits_ISO_8,1,5,56,103,1590639844
97,17,7,Jits_ISO_8,2,5,80,127,1590659480
97,17,7,Jits_ISO_8,3,5,63,98,1590740480
97,17,7,Jits_ISO_8,0,1,48,35,1591404084
97,17,7,Jits_ISO_8,1,5,80,127,1591429364
97,17,7,Jits_ISO_8,2,5,56,103,1591529924
97,17,7,Jits_ISO_8,3,5,63,98,1591540268
97,17,7,Jits_ISO_8,0,5,63,98,1592199564
97,17,7,Jits_ISO_8,1,1,48,29,1592244884
97,17,7,Jits_ISO_8,2,5,80,127,1592260124
97,17,7,Jits_ISO_8,3,5,56,103,1592270172
97,17,7,Jits_ISO_8,0,1,48,28,1592964088
97,17,7,Jits_ISO_8,1,5,56,103,1593000160
97,17,7,Jits_ISO_8,2,5,63,98,1593070128
97,17,7,Jits_ISO_8,3,5,80,127,1593073344
97,17,7,Jits_ISO_8,0,1,48,29,1593750808
97,17,7,Jits_ISO_8,1,5,63,98,1593829900
97,17,7,Jits_ISO_8,2,5,56,103,1593880084
97,17,7,Jits_ISO_8,3,5,80,127,1593883152
97,17,7,Jits_ISO_8,0,5,56,103,1594589672
97,17,7,Jits_ISO_8,1,5,80,127,1594592736
97,17,7,Jits_ISO_8,2,1,48,28,1594598264
97,17,7,Jits_ISO_8,3,5,63,98,1594679944
97,17,7,Jits_ISO_8,0,1,48,32,1595354576
97,17,7,Jits_ISO_8,1,5,63,98,1595430280
97,17,7,Jits_ISO_8,2,5,56,103,1595520480
97,17,7,Jits_ISO_8,3,5,80,127,1595549932
97,17,7,Jits_ISO_8,0,1,48,27,1596205316
97,17,7,Jits_ISO_8,1,5,56,103,1596219956
97,17,7,Jits_ISO_8,2,5,63,98,1596320044
97,17,7,Jits_ISO_8,3,5,80,127,1596349892
97,17,7,Jits_ISO_8,0,5,63,98,1597039912
97,17,7,Jits_ISO_8,1,5,56,103,1597050256
97,17,7,Jits_ISO_8,2,1,48,27,1597060944
97,17,7,Jits_ISO_8,3,5,80,127,1597140332
97,17,7,Jits_ISO_8,0,1,48,29,1597838168
97,17,7,Jits_ISO_8,1,5,63,98,1597860144
97,17,7,Jits_ISO_8,2,5,56,103,1597940020
97,17,7,Jits_ISO_8,3,5,80,127,1597943168
97,17,7,Jits_ISO_8,0,5,80,127,1598620000
97,17,7,Jits_ISO_8,1,5,63,98,1598639440
97,17,7,Jits_ISO_8,2,5,56,103,1598700128
97,17,7,Jits_ISO_8,3,1,48,28,1598702568
97,17,7,Jits_ISO_8,0,1,48,29,1599453800
97,17,7,Jits_ISO_8,1,5,56,103,1599459972
97,17,7,Jits_ISO_8,2,5,63,98,1599480132
97,17,7,Jits_ISO_8,3,5,80,127,1599483572
97,17,7,Jits_ISO_8,0,5,63,98,1600200116
97,17,7,Jits_ISO_8,1,5,80,127,1600279840
97,17,7,Jits_ISO_8,2,5,56,103,1600290112
97,17,7,Jits_ISO_8,3,1,48,27,1600306932
97,17,7,Jits_ISO_8,0,5,63,98,1601020204
97,17,7,Jits_ISO_8,1,5,56,103,1601039764
97,17,7,Jits_ISO_8,2,1,48,28,1601070832
97,17,7,Jits_ISO_8,3,5,80,127,1601089888
97,17,7,Jits_ISO_8,0,1,48,20,1601784956
97,17,7,Jits_ISO_8,1,5,80,127,1601820128
97,17,7,Jits_ISO_8,2,5,63,98,1601860068
97,17,7,Jits_ISO_8,3,5,56,103,1601880288
97,17,7,Jits_ISO_8,0,1,48,13,1602588720
97,17,7,Jits_ISO_8,1,5,56,103,1602659692
97,17,7,Jits_ISO_8,2,5,63,98,1602670112
97,17,7,Jits_ISO_8,3,5,80,127,1602690408
97,17,7,Jits_ISO_8,0,1,48,17,1603386688
97,17,7,Jits_ISO_8,1,5,56,103,1603390020
97,17,7,Jits_ISO_8,2,5,63,98,1603479860
97,17,7,Jits_ISO_8,3,5,80,127,1603540780
97,17,7,Jits_ISO_8,0,1,48,24,1604187684
97,17,7,Jits_ISO_8,1,5,80,127,1604220300
97,17,7,Jits_ISO_8,2,5,56,103,1604229672
97,17,7,Jits_ISO_8,3,5,63,98,1604300184
97,17,7,Jits_ISO_8,0,1,48,22,1605005364
97,17,7,Jits_ISO_8,1,5,63,98,1605049848
97,17,7,Jits_ISO_8,2,5,80,127,1605139972
97,17,7,Jits_ISO_8,3,5,56,103,1605150016
97,17,7,Jits_ISO_8,0,5,63,98,1605790132
97,17,7,Jits_ISO_8,1,5,80,127,1605840284
97,17,7,Jits_ISO_8,2,1,48,23,1605854344
97,17,7,Jits_ISO_8,3,5,56,103,1605899844
97,17,7,Jits_ISO_8,0,1,48,21,1606585704
97,17,7,Jits_ISO_8,1,5,56,103,1606619452
97,17,7,Jits_ISO_8,2,5,80,127,1606669804
97,17,7,Jits_ISO_8,3,5,63,98,1606690248
97,17,7,Jits_ISO_8,0,1,48,24,1607357156
97,17,7,Jits_ISO_8,1,5,56,103,1607389784
97,17,7,Jits_ISO_8,2,5,80,127,1607450384
97,17,7,Jits_ISO_8,3,5,63,98,1607519768
97,17,7,Jits_ISO_8,0,1,48,21,1608171788
97,17,7,Jits_ISO_8,1,5,56,103,1608190320
97,17,7,Jits_ISO_8,2,5,80,127,1608219920
97,17,7,Jits_ISO_8,3,5,63,98,1608249744
97,17,7,Jits_ISO_8,0,1,48,18,1608886664
97,17,7,Jits_ISO_8,1,5,56,103,1609029868
97,17,7,Jits_ISO_8,2,5,80,127,1609049576
97,17,7,Jits_ISO_8,3,5,63,98,1609109892
97,17,7,Jits_ISO_8,0,1,48,22,1609764820
97,17,7,Jits_ISO_8,1,5,80,127,1609909916
97,17,7,Jits_ISO_8,2,5,56,103,1609919816
97,17,7,Jits_ISO_8,3,5,63,98,1609930084
97,17,7,Jits_ISO_8,0,5,56,103,1610669568
97,17,7,Jits_ISO_8,1,1,48,16,1610695456
97,17,7,Jits_ISO_8,2,5,80,127,1610710324
97,17,7,Jits_ISO_8,3,5,63,98,1610740076
97,17,7,Jits_ISO_8,0,5,56,103,1611439556
97,17,7,Jits_ISO_8,1,5,63,98,1611470276
97,17,7,Jits_ISO_8,2,5,80,127,1611509992
97,17,7,Jits_ISO_8,3,1,48,20,1611516176
97,17,7,Jits_ISO_8,0,5,80,127,1612189956
97,17,7,Jits_ISO_8,1,5,63,98,1612240332
97,17,7,Jits_ISO_8,2,5,56,103,1612259744
97,17,7,Jits_ISO_8,3,1,48,23,1612287948
97,17,7,Jits_ISO_8,0,5,56,103,1613019592
97,17,7,Jits_ISO_8,1,1,48,24,1613074252
97,17,7,Jits_ISO_8,2,5,80,127,1613090020
97,17,7,Jits_ISO_8,3,5,63,98,1613149732
97,17,7,Jits_ISO_8,0,5,80,127,1613820364
97,17,7,Jits_ISO_8,1,1,48,23,1613850608
97,17,7,Jits_ISO_8,2,5,63,98,1613910492
97,17,7,Jits_ISO_8,3,5,56,103,1613929832
97,17,7,Jits_ISO_8,0,5,63,98,1614639572
97,17,7,Jits_ISO_8,1,1,48,27,1614650112
97,17,7,Jits_ISO_8,2,5,56,103,1614659880
97,17,7,Jits_ISO_8,3,5,80,127,1614699744
97,17,7,Jits_ISO_8,0,5,80,127,1615400176
97,17,7,Jits_ISO_8,1,5,63,98,1615419812
97,17,7,Jits_ISO_8,2,1,48,28,1615456488
97,17,7,Jits_ISO_8,3,5,56,103,1615499672
97,17,7,Jits_ISO_8,0,5,63,98,1616189780
97,17,7,Jits_ISO_8,1,1,48,29,1616246456
97,17,7,Jits_ISO_8,2,5,56,103,1616300680
97,17,7,Jits_ISO_8,3,5,80,127,1616303596
97,17,7,Jits_ISO_8,0,5,63,98,1617009928
97,17,7,Jits_ISO_8,1,1,48,25,1617012972
97,17,7,Jits_ISO_8,2,5,56,103,1617020412
97,17,7,Jits_ISO_8,3,5,80,127,1617023332
97,17,7,Jits_ISO_8,0,1,48,19,1617775188
97,17,7,Jits_ISO_8,1,5,56,103,1617790428
97,17,7,Jits_ISO_8,2,5,80,127,1617910096
97,17,7,Jits_ISO_8,3,5,63,98,1617950032
97,17,7,Jits_ISO_8,0,5,56,103,1618609728
97,17,7,Jits_ISO_8,1,1,48,34,1618646036
97,17,7,Jits_ISO_8,2,5,80,127,1618690864
97,17,7,Jits_ISO_8,3,5,63,98,1618709832
97,17,7,Jits_ISO_8,0,1,48,28,1619395324
97,17,7,Jits_ISO_8,1,5,56,103,1619410268
97,17,7,Jits_ISO_8,2,5,63,98,1619519796
97,17,7,Jits_ISO_8,3,5,80,127,1619523160
97,17,7,Jits_ISO_8,0,1,48,26,1620217648
97,17,7,Jits_ISO_8,1,5,56,103,1620239792
97,17,7,Jits_ISO_8,2,5,80,127,1620269468
97,17,7,Jits_ISO_8,3,5,63,98,1620289776
97,17,7,Jits_ISO_8,0,1,48,23,1621016532
97,17,7,Jits_ISO_8,1,5,63,98,1621019944
97,17,7,Jits_ISO_8,2,5,56,103,1621030212
97,17,7,Jits_ISO_8,3,5,80,127,1621039660
97,17,7,Jits_ISO_8,0,1,48,23,1621769724
97,17,7,Jits_ISO_8,1,5,80,127,1621809460
97,17,7,Jits_ISO_8,2,5,56,103,1621859808
97,17,7,Jits_ISO_8,3,5,63,98,1621899584
97,17,7,Jits_ISO_8,0,1,48,20,1622581640
97,17,7,Jits_ISO_8,1,5,80,127,1622629844
97,17,7,Jits_ISO_8,2,5,63,98,1622650304
97,17,7,Jits_ISO_8,3,5,56,103,1622700664
97,17,7,Jits_ISO_8,0,1,48,20,1623376764
97,17,7,Jits_ISO_8,1,5,80,127,1623439664
97,17,7,Jits_ISO_8,2,5,56,103,1623469516
97,17,7,Jits_ISO_8,3,5,63,98,1623540228
97,17,7,Jits_ISO_8,0,1,48,21,1624226828
97,17,7,Jits_ISO_8,1,5,56,103,1624289600
97,17,7,Jits_ISO_8,2,5,80,127,1624299872
97,17,7,Jits_ISO_8,3,5,63,98,1624339720
97,17,7,Jits_ISO_8,0,5,56,103,1625000384
97,17,7,Jits_ISO_8,1,5,63,98,1625019724
97,17,7,Jits_ISO_8,2,1,48,24,1625073860
97,17,7,Jits_ISO_8,3,5,80,127,1625090592
97,17,7,Jits_ISO_8,0,1,48,19,1625763408
97,17,7,Jits_ISO_8,1,5,63,98,1625819504
97,17,7,Jits_ISO_8,2,5,80,127,1625880032
97,17,7,Jits_ISO_8,3,5,56,103,1625900640
97,17,7,Jits_ISO_8,0,1,48,29,1626607260
97,17,7,Jits_ISO_8,1,5,80,127,1626609996
97,17,7,Jits_ISO_8,2,5,56,103,1626639748
97,17,7,Jits_ISO_8,3,5,63,98,1626669572
97,17,7,Jits_ISO_8,0,1,48,24,1627396700
97,17,7,Jits_ISO_8,1,5,56,103,1627409700
97,17,7,Jits_ISO_8,2,5,63,98,1627470316
97,17,7,Jits_ISO_8,3,5,80,127,1627529644
97,17,7,Jits_ISO_8,0,1,48,25,1628181884
97,17,7,Jits_ISO_8,1,5,80,127,1628229940
97,17,7,Jits_ISO_8,2,5,56,103,1628249652
97,17,7,Jits_ISO_8,3,5,63,98,1628319992
97,17,7,Jits_ISO_8,0,1,48,29,1629021604
97,17,7,Jits_ISO_8,1,5,80,127,1629029648
97,17,7,Jits_ISO_8,2,5,63,98,1629050180
97,17,7,Jits_ISO_8,3,5,56,103,1629080004
97,17,7,Jits_ISO_8,0,5,80,127,1629820512
97,17,7,Jits_ISO_8,1,1,48,27,1629833452
97,17,7,Jits_ISO_8,2,5,63,98,1629839772
97,17,7,Jits_ISO_8,3,5,56,103,1629900112
97,17,7,Jits_ISO_8,0,5,80,127,1630619940
97,17,7,Jits_ISO_8,1,1,48,22,1630680332
97,17,7,Jits_ISO_8,2,5,56,103,1630720584
97,17,7,Jits_ISO_8,3,5,63,98,1630749960
97,17,7,Jits_ISO_8,0,5,63,98,1631409580
97,17,7,Jits_ISO_8,1,5,80,127,1631459632
97,17,7,Jits_ISO_8,2,5,56,103,1631480240
97,17,7,Jits_ISO_8,3,1,48,25,1631481576
97,17,7,Jits_ISO_8,0,1,48,22,1632211948
97,17,7,Jits_ISO_8,1,5,80,127,1632250188
97,17,7,Jits_ISO_8,2,5,56,103,1632279864
97,17,7,Jits_ISO_8,3,5,63,98,1632282856
97,17,7,Jits_ISO_8,0,1,48,24,1633026404
97,17,7,Jits_ISO_8,1,5,63,98,1633079636
97,17,7,Jits_ISO_8,2,5,56,103,1633119576
97,17,7,Jits_ISO_8,3,5,80,127,1633139944
97,17,7,Jits_ISO_8,0,5,80,127,1633820164
97,17,7,Jits_ISO_8,1,1,48,26,1633837900
97,17,7,Jits_ISO_8,2,5,63,98,1633899808
97,17,7,Jits_ISO_8,3,5,56,103,1633939732
97,17,7,Jits_ISO_8,0,5,63,98,1634640496
97,17,7,Jits_ISO_8,1,1,48,25,1634652608
97,17,7,Jits_ISO_8,2,5,80,127,1634720064
97,17,7,Jits_ISO_8,3,5,56,103,1634739648
97,17,7,Jits_ISO_8,0,1,48,24,1635452684
97,17,7,Jits_ISO_8,1,5,56,103,1635480136
97,17,7,Jits_ISO_8,2,5,63,98,1635490332
97,17,7,Jits_ISO_8,3,5,80,127,1635530296
97,17,7,Jits_ISO_8,0,5,56,103,1636199684
97,17,7,Jits_ISO_8,1,5,80,127,1636202832
97,17,7,Jits_ISO_8,2,1,48,24,1636239072
97,17,7,Jits_ISO_8,3,5,63,98,1636340020
97,17,7,Jits_ISO_8,0,5,56,103,1636990408
97,17,7,Jits_ISO_8,1,1,48,20,1637053264
97,17,7,Jits_ISO_8,2,5,63,98,1637080564
97,17,7,Jits_ISO_8,3,5,80,127,1637149932
97,17,7,Jits_ISO_8,0,1,48,28,1637810132
97,17,7,Jits_ISO_8,1,5,63,98,1637870096
97,17,7,Jits_ISO_8,2,5,80,127,1637873312
97,17,7,Jits_ISO_8,3,5,56,103,1637930248
97,17,7,Jits_ISO_8,0,1,48,32,1638644000
97,17,7,Jits_ISO_8,1,5,80,127,1638709740
97,17,7,Jits_ISO_8,2,5,56,103,1638730272
97,17,7,Jits_ISO_8,3,5,63,98,1638740380
97,17,7,Jits_ISO_8,0,5,56,103,1639420448
97,17,7,Jits_ISO_8,1,5,63,98,1639429372
97,17,7,Jits_ISO_8,2,5,80,127,1639500248
97,17,7,Jits_ISO_8,3,1,48,27,1639508988
97,17,7,Jits_ISO_8,0,5,80,127,1640220092
97,17,7,Jits_ISO_8,1,1,48,37,1640238656
97,17,7,Jits_ISO_8,2,5,56,103,1640270292
97,17,7,Jits_ISO_8,3,5,63,98,1640320344
97,17,7,Jits_ISO_8,0,1,48,33,1641049684
97,17,7,Jits_ISO_8,1,5,56,103,1641099608
97,17,7,Jits_ISO_8,2,5,63,98,1641109952
97,17,7,Jits_ISO_8,3,5,80,127,1641149828
97,17,7,Jits_ISO_8,0,1,48,28,1641824960
97,17,7,Jits_ISO_8,1,5,56,103,1641840276
97,17,7,Jits_ISO_8,2,5,63,98,1641879920
97,17,7,Jits_ISO_8,3,5,80,127,1641930204
97,17,7,Jits_ISO_8,0,1,48,27,1642564280
97,17,7,Jits_ISO_8,1,5,80,127,1642599828
97,17,7,Jits_ISO_8,2,5,56,103,1642650180
97,17,7,Jits_ISO_8,3,5,63,98,1642669380
97,17,7,Jits_ISO_8,0,5,80,127,1643409652
97,17,7,Jits_ISO_8,1,1,48,29,1643426248
97,17,7,Jits_ISO_8,2,5,63,98,1643470360
97,17,7,Jits_ISO_8,3,5,56,103,1643550216
97,17,7,Jits_ISO_8,0,5,80,127,1644190192
97,17,7,Jits_ISO_8,1,1,48,26,1644219716
97,17,7,Jits_ISO_8,2,5,56,103,1644230076
97,17,7,Jits_ISO_8,3,5,63,98,1644249412
97,17,7,Jits_ISO_8,0,1,48,32,1644958188
97,17,7,Jits_ISO_8,1,5,56,103,1645040200
97,17,7,Jits_ISO_8,2,5,80,127,1645050396
97,17,7,Jits_ISO_8,3,5,63,98,1645090096
97,17,7,Jits_ISO_8,0,1,48,33,1645801520
97,17,7,Jits_ISO_8,1,5,56,103,1645910468
97,17,7,Jits_ISO_8,2,5,63,98,1645950404
97,17,7,Jits_ISO_8,3,5,80,127,1645953620
97,17,7,Jits_ISO_8,0,5,63,98,1646599612
97,17,7,Jits_ISO_8,1,5,80,127,1646639404
97,17,7,Jits_ISO_8,2,1,48,29,1646678024
97,17,7,Jits_ISO_8,3,5,56,103,1646710124
97,17,7,Jits_ISO_8,0,5,63,98,1647390024
97,17,7,Jits_ISO_8,1,1,48,34,1647416736
97,17,7,Jits_ISO_8,2,5,56,103,1647470036
97,17,7,Jits_ISO_8,3,5,80,127,1647530292
97,17,7,Jits_ISO_8,0,5,80,127,1648200148
97,17,7,Jits_ISO_8,1,1,48,36,1648215252
97,17,7,Jits_ISO_8,2,5,63,98,1648250196
97,17,7,Jits_ISO_8,3,5,56,103,1648280020
97,17,7,Jits_ISO_8,0,5,56,103,1648989528
97,17,7,Jits_ISO_8,1,1,48,34,1649030264
97,17,7,Jits_ISO_8,2,5,63,98,1649039724
97,17,7,Jits_ISO_8,3,5,80,127,1649050144
97,17,7,Jits_ISO_8,0,5,56,103,1649799432
97,17,7,Jits_ISO_8,1,1,48,33,1649807184
97,17,7,Jits_ISO_8,2,5,63,98,1649910100
97,17,7,Jits_ISO_8,3,5,80,127,1649929436
97,17,7,Jits_ISO_8,0,5,63,98,1650600452
97,17,7,Jits_ISO_8,1,1,48,35,1650606192
97,17,7,Jits_ISO_8,2,5,80,127,1650649380
97,17,7,Jits_ISO_8,3,5,56,103,1650739572
97,17,7,Jits_ISO_8,0,5,63,98,1651389672
97,17,7,Jits_ISO_8,1,5,80,127,1651419500
97,17,7,Jits_ISO_8,2,1,48,40,1651446580
97,17,7,Jits_ISO_8,3,5,56,103,1651509624
97,17,7,Jits_ISO_8,0,5,63,98,1652189596
97,17,7,Jits_ISO_8,1,5,56,103,1652199792
97,17,7,Jits_ISO_8,2,1,48,40,1652228320
97,17,7,Jits_ISO_8,3,5,80,127,1652300256
97,17,7,Jits_ISO_8,0,1,48,39,1653019612
97,17,7,Jits_ISO_8,1,5,63,98,1653089544
97,17,7,Jits_ISO_8,2,5,80,127,1653120324
97,17,7,Jits_ISO_8,3,5,56,103,1653150000
97,17,7,Jits_ISO_8,0,1,48,43,1653892072
97,17,7,Jits_ISO_8,1,5,80,127,1653910008
97,17,7,Jits_ISO_8,2,5,63,98,1653920204
97,17,7,Jits_ISO_8,3,5,56,103,1653949904
97,17,7,Jits_ISO_8,0,5,80,127,1654610236
97,17,7,Jits_ISO_8,1,5,63,98,1654629796
97,17,7,Jits_ISO_8,2,5,56,103,1654680072
97,17,7,Jits_ISO_8,3,1,48,43,1654732288
97,17,7,Jits_ISO_8,0,5,63,98,1655439848
97,17,7,Jits_ISO_8,1,5,80,127,1655500192
97,17,7,Jits_ISO_8,2,5,56,103,1655519532
97,17,7,Jits_ISO_8,3,1,48,40,1655564972
97,17,7,Jits_ISO_8,0,5,63,98,1656199404
97,17,7,Jits_ISO_8,1,5,56,103,1656249928
97,17,7,Jits_ISO_8,2,5,80,127,1656260052
97,17,7,Jits_ISO_8,3,1,48,41,1656319140
97,17,7,Jits_ISO_8,0,1,48,42,1657009440
97,17,7,Jits_ISO_8,1,5,56,103,1657030140
97,17,7,Jits_ISO_8,2,5,80,127,1657040336
97,17,7,Jits_ISO_8,3,5,63,98,1657139524
97,17,7,Jits_ISO_8,0,5,80,127,1657789920
97,17,7,Jits_ISO_8,1,5,63,98,1657800044
97,17,7,Jits_ISO_8,2,1,48,41,1657821744
97,17,7,Jits_ISO_8,3,5,56,103,1657949416
97,17,7,Jits_ISO_8,0,5,63,98,1658599900
97,17,7,Jits_ISO_8,1,1,48,41,1658631640
97,17,7,Jits_ISO_8,2,5,80,127,1658639684
97,17,7,Jits_ISO_8,3,5,56,103,1658719556
97,17,7,Jits_ISO_8,0,5,56,103,1659390316
97,17,7,Jits_ISO_8,1,1,48,36,1659422060
97,17,7,Jits_ISO_8,2,5,80,127,1659489516
97,17,7,Jits_ISO_8,3,5,63,98,1659510124
97,17,7,Jits_ISO_8,0,1,48,39,1660180496
97,17,7,Jits_ISO_8,1,5,80,127,1660249452
97,17,7,Jits_ISO_8,2,5,56,103,1660260020
97,17,7,Jits_ISO_8,3,5,63,98,1660349940
97,17,7,Jits_ISO_8,0,1,48,37,1661006492
97,17,7,Jits_ISO_8,1,5,56,103,1661050208
97,17,7,Jits_ISO_8,2,5,63,98,1661069620
97,17,7,Jits_ISO_8,3,5,80,127,1661149500
97,17,7,Jits_ISO_8,0,1,48,38,1661799728
97,17,7,Jits_ISO_8,1,5,63,98,1661801064
97,17,7,Jits_ISO_8,2,5,56,103,1661890028
97,17,7,Jits_ISO_8,3,5,80,127,1661893096
97,17,7,Jits_ISO_8,0,1,48,31,1662595420
97,17,7,Jits_ISO_8,1,5,56,103,1662630240
97,17,7,Jits_ISO_8,2,5,80,127,1662689512
97,17,7,Jits_ISO_8,3,5,63,98,1662700136
97,17,7,Jits_ISO_8,0,1,48,39,1663371228
97,17,7,Jits_ISO_8,1,5,80,127,1663480056
97,17,7,Jits_ISO_8,2,5,56,103,1663490320
97,17,7,Jits_ISO_8,3,5,63,98,1663493544
97,17,7,Jits_ISO_8,0,1,48,41,1664239848
97,17,7,Jits_ISO_8,1,5,56,103,1664241184
97,17,7,Jits_ISO_8,2,5,80,127,1664250112
97,17,7,Jits_ISO_8,3,5,63,98,1664270116
97,17,7,Jits_ISO_8,0,5,63,98,1665010028
97,17,7,Jits_ISO_8,1,1,48,32,1665014192
97,17,7,Jits_ISO_8,2,5,80,127,1665069292
97,17,7,Jits_ISO_8,3,5,56,103,1665119776
97,17,7,Jits_ISO_8,0,1,48,38,1665873680
97,17,7,Jits_ISO_8,1,5,63,98,1665889820
97,17,7,Jits_ISO_8,2,5,56,103,1665899868
97,17,7,Jits_ISO_8,3,5,80,127,1665949996
97,17,7,Jits_ISO_8,0,5,63,98,1666590120
97,17,7,Jits_ISO_8,1,5,80,127,1666609456
97,17,7,Jits_ISO_8,2,5,56,103,1666619728
97,17,7,Jits_ISO_8,3,1,48,30,1666699712
97,17,7,Jits_ISO_8,0,5,63,98,1667390120
97,17,7,Jits_ISO_8,1,5,80,127,1667393328
97,17,7,Jits_ISO_8,2,5,56,103,1667429828
97,17,7,Jits_ISO_8,3,1,48,38,1667452424
97,17,7,Jits_ISO_8,0,1,48,38,1668180412
97,17,7,Jits_ISO_8,1,5,63,98,1668260156
97,17,7,Jits_ISO_8,2,5,80,127,1668289816
97,17,7,Jits_ISO_8,3,5,56,103,1668300160
97,17,7,Jits_ISO_8,0,5,56,103,1669009944
97,17,7,Jits_ISO_8,1,1,48,34,1669023700
97,17,7,Jits_ISO_8,2,5,80,127,1669039416
97,17,7,Jits_ISO_8,3,5,63,98,1669070216
97,17,7,Jits_ISO_8,0,1,48,32,1669799772
97,17,7,Jits_ISO_8,1,5,63,98,1669909920
97,17,7,Jits_ISO_8,2,5,56,103,1669950008
97,17,7,Jits_ISO_8,3,5,80,127,1669953072
97,17,7,Jits_ISO_8,0,5,80,127,1670610228
97,17,7,Jits_ISO_8,1,1,48,34,1670657928
97,17,7,Jits_ISO_8,2,5,56,103,1670690092
97,17,7,Jits_ISO_8,3,5,63,98,1670740220
97,17,7,Jits_ISO_8,0,5,80,127,1671389792
97,17,7,Jits_ISO_8,1,5,56,103,1671410028
97,17,7,Jits_ISO_8,2,1,48,35,1671433968
97,17,7,Jits_ISO_8,3,5,63,98,1671500076
97,17,7,Jits_ISO_8,0,1,48,32,1672179064
97,17,7,Jits_ISO_8,1,5,80,127,1672230260
97,17,7,Jits_ISO_8,2,5,63,98,1672270052
97,17,7,Jits_ISO_8,3,5,56,103,1672310048
97,17,7,Jits_ISO_8,0,5,63,98,1673000304
97,17,7,Jits_ISO_8,1,1,48,28,1673040440
97,17,7,Jits_ISO_8,2,5,80,127,1673059868
97,17,7,Jits_ISO_8,3,5,56,103,1673090516
97,17,7,Jits_ISO_8,0,5,56,103,1673800012
97,17,7,Jits_ISO_8,1,1,48,33,1673817304
97,17,7,Jits_ISO_8,2,5,80,127,1673829904
97,17,7,Jits_ISO_8,3,5,63,98,1673919976
97,17,7,Jits_ISO_8,0,1,48,29,1674584860
97,17,7,Jits_ISO_8,1,5,56,103,1674610064
97,17,7,Jits_ISO_8,2,5,80,127,1674719840
97,17,7,Jits_ISO_8,3,5,63,98,1674750340
97,17,7,Jits_ISO_8,0,1,48,32,1675429040
97,17,7,Jits_ISO_8,1,5,56,103,1675459928
97,17,7,Jits_ISO_8,2,5,63,98,1675520976
97,17,7,Jits_ISO_8,3,5,80,127,1675549980
97,17,7,Jits_ISO_8,0,5,56,103,1676229904
97,17,7,Jits_ISO_8,1,5,63,98,1676299812
97,17,7,Jits_ISO_8,2,5,80,127,1676320048
97,17,7,Jits_ISO_8,3,1,48,35,1676336420
97,17,7,Jits_ISO_8,0,5,80,127,1677000036
97,17,7,Jits_ISO_8,1,5,63,98,1677019824
97,17,7,Jits_ISO_8,2,5,56,103,1677069724
97,17,7,Jits_ISO_8,3,1,48,33,1677096808
97,17,7,Jits_ISO_8,0,9999,9999,9999,1582267516
97,17,7,Jits_ISO_8,1,9999,9999,9999,1583067196
97,17,7,Jits_ISO_8,2,9999,9999,9999,1583868028
97,17,7,Jits_ISO_8,3,9999,9999,9999,1584667736
97,17,7,Jits_ISO_8,4,9999,9999,9999,1585467456
97,17,7,Jits_ISO_8,5,9999,9999,9999,1586267244
97,17,7,Jits_ISO_8,6,9999,9999,9999,1587067972
97,17,7,Jits_ISO_8,7,9999,9999,9999,1587867772
97,17,7,Jits_ISO_8,8,9999,9999,9999,1588667508
97,17,7,Jits_ISO_8,9,9999,9999,9999,1589467204
97,17,7,Jits_ISO_8,10,9999,9999,9999,1590267984
97,17,7,Jits_ISO_8,11,9999,9999,9999,1591067768
97,17,7,Jits_ISO_8,12,9999,9999,9999,1591867480
97,17,7,Jits_ISO_8,13,9999,9999,9999,1592667188
97,17,7,Jits_ISO_8,14,9999,9999,9999,1593467980
97,17,7,Jits_ISO_8,15,9999,9999,9999,1594267752
97,17,7,Jits_ISO_8,16,9999,9999,9999,1595067472
97,17,7,Jits_ISO_8,17,9999,9999,9999,1595867204
97,17,7,Jits_ISO_8,18,9999,9999,9999,1596667964
97,17,7,Jits_ISO_8,19,9999,9999,9999,1597467752
97,17,7,Jits_ISO_8,20,9999,9999,9999,1598267460
97,17,7,Jits_ISO_8,21,9999,9999,9999,1599067248
97,17,7,Jits_ISO_8,22,9999,9999,9999,1599868008
97,17,7,Jits_ISO_8,23,9999,9999,9999,1600667716
97,17,7,Jits_ISO_8,24,9999,9999,9999,1601467448
97,17,7,Jits_ISO_8,25,9999,9999,9999,1602267228
97,17,7,Jits_ISO_8,26,9999,9999,9999,1603067988
97,17,7,Jits_ISO_8,27,9999,9999,9999,1603867768
97,17,7,Jits_ISO_8,28,9999,9999,9999,1604667476
97,17,7,Jits_ISO_8,29,9999,9999,9999,1605467192
97,17,7,Jits_ISO_8,30,9999,9999,9999,1606268020
97,17,7,Jits_ISO_8,31,9999,9999,9999,1607067728
97,17,7,Jits_ISO_8,32,9999,9999,9999,1607867460
97,17,7,Jits_ISO_8,33,9999,9999,9999,1608667236
97,17,7,Jits_ISO_8,34,9999,9999,9999,1609467992
97,17,7,Jits_ISO_8,35,9999,9999,9999,1610267708
97,17,7,Jits_ISO_8,36,9999,9999,9999,1611067496
97,17,7,Jits_ISO_8,37,9999,9999,9999,1611867220
97,17,7,Jits_ISO_8,38,9999,9999,9999,1612667988
97,17,7,Jits_ISO_8,39,9999,9999,9999,1613467712
97,17,7,Jits_ISO_8,40,9999,9999,9999,1614267464
97,17,7,Jits_ISO_8,41,9999,9999,9999,1615067192
97,17,7,Jits_ISO_8,42,9999,9999,9999,1615868020
97,17,7,Jits_ISO_8,43,9999,9999,9999,1616667732
97,17,7,Jits_ISO_8,44,9999,9999,9999,1617467496
97,17,7,Jits_ISO_8,45,9999,9999,9999,1618267208
97,17,7,Jits_ISO_8,46,9999,9999,9999,1619067964
97,17,7,Jits_ISO_8,47,9999,9999,9999,1619867756
97,17,7,Jits_ISO_8,48,9999,9999,9999,1620667488
97,17,7,Jits_ISO_8,49,9999,9999,9999,1621467192
97,17,7,Jits_ISO_8,50,9999,9999,9999,1622268020
97,17,7,Jits_ISO_8,51,9999,9999,9999,1623067728
97,17,7,Jits_ISO_8,52,9999,9999,9999,1623867512
97,17,7,Jits_ISO_8,53,9999,9999,9999,1624667228
97,17,7,Jits_ISO_8,54,9999,9999,9999,1625467984
97,17,7,Jits_ISO_8,55,9999,9999,9999,1626267708
97,17,7,Jits_ISO_8,56,9999,9999,9999,1627067512
97,17,7,Jits_ISO_8,57,9999,9999,9999,1627867220
97,17,7,Jits_ISO_8,58,9999,9999,9999,1628667976
97,17,7,Jits_ISO_8,59,9999,9999,9999,1629467756
97,17,7,Jits_ISO_8,60,9999,9999,9999,1630267464
97,17,7,Jits_ISO_8,61,9999,9999,9999,1631067192
97,17,7,Jits_ISO_8,62,9999,9999,9999,1631867960
97,17,7,Jits_ISO_8,63,9999,9999,9999,1632667736
97,17,7,Jits_ISO_8,64,9999,9999,9999,1633467480
97,17,7,Jits_ISO_8,65,9999,9999,9999,1634267192
97,17,7,Jits_ISO_8,66,9999,9999,9999,1635067968
97,17,7,Jits_ISO_8,67,9999,9999,9999,1635867756
97,17,7,Jits_ISO_8,68,9999,9999,9999,1636667456
97,17,7,Jits_ISO_8,69,9999,9999,9999,1637467256
97,17,7,Jits_ISO_8,70,9999,9999,9999,1638268020
97,17,7,Jits_ISO_8,71,9999,9999,9999,1639067740
97,17,7,Jits_ISO_8,72,9999,9999,9999,1639867468
97,17,7,Jits_ISO_8,73,9999,9999,9999,1640667196
97,17,7,Jits_ISO_8,74,9999,9999,9999,1641467972
97,17,7,Jits_ISO_8,75,9999,9999,9999,1642267752
97,17,7,Jits_ISO_8,76,9999,9999,9999,1643067460
97,17,7,Jits_ISO_8,77,9999,9999,9999,1643867240
97,17,7,Jits_ISO_8,78,9999,9999,9999,1644668000
97,17,7,Jits_ISO_8,79,9999,9999,9999,1645467724
97,17,7,Jits_ISO_8,80,9999,9999,9999,1646267456
97,17,7,Jits_ISO_8,81,9999,9999,9999,1647067236
97,17,7,Jits_ISO_8,82,9999,9999,9999,1647867988
97,17,7,Jits_ISO_8,83,9999,9999,9999,1648667768
97,17,7,Jits_ISO_8,84,9999,9999,9999,1649467484
97,17,7,Jits_ISO_8,85,9999,9999,9999,1650267208
97,17,7,Jits_ISO_8,86,9999,9999,9999,1651067980
97,17,7,Jits_ISO_8,87,9999,9999,9999,1651867756
97,17,7,Jits_ISO_8,88,9999,9999,9999,1652667480
97,17,7,Jits_ISO_8,89,9999,9999,9999,1653467196
97,17,7,Jits_ISO_8,90,9999,9999,9999,1654267964
97,17,7,Jits_ISO_8,91,9999,9999,9999,1655067744
97,17,7,Jits_ISO_8,92,9999,9999,9999,1655867472
97,17,7,Jits_ISO_8,93,9999,9999,9999,1656667248
97,17,7,Jits_ISO_8,94,9999,9999,9999,1657468004
97,17,7,Jits_ISO_8,95,9999,9999,9999,1658267708
97,17,7,Jits_ISO_8,96,9999,9999,9999,1659067452
97,17,7,Jits_ISO_8,97,9999,9999,9999,1659867236
97,17,7,Jits_ISO_8,98,9999,9999,9999,1660668008
97,17,7,Jits_ISO_8,99,9999,9999,9999,1661467720
97,17,7,Jits_ISO_8,100,9999,9999,9999,1662267496
97,17,7,Jits_ISO_8,101,9999,9999,9999,1663067204
97,17,7,Jits_ISO_8,102,9999,9999,9999,1663867956
97,17,7,Jits_ISO_8,103,9999,9999,9999,1664667736
97,17,7,Jits_ISO_8,104,9999,9999,9999,1665467464
97,17,7,Jits_ISO_8,105,9999,9999,9999,1666267252
97,17,7,Jits_ISO_8,106,9999,9999,9999,1667068000
97,17,7,Jits_ISO_8,107,9999,9999,9999,1667867764
97,17,7,Jits_ISO_8,108,9999,9999,9999,1668667452
97,17,7,Jits_ISO_8,109,9999,9999,9999,1669467232
97,17,7,Jits_ISO_8,110,9999,9999,9999,1670268004
97,17,7,Jits_ISO_8,111,9999,9999,9999,1671067716
97,17,7,Jits_ISO_8,112,9999,9999,9999,1671867452
97,17,7,Jits_ISO_8,113,9999,9999,9999,1672667248
97,17,7,Jits_ISO_8,114,9999,9999,9999,1673468004
97,17,7,Jits_ISO_8,115,9999,9999,9999,1674267712
97,17,7,Jits_ISO_8,116,9999,9999,9999,1675067512
97,17,7,Jits_ISO_8,117,9999,9999,9999,1675867228
97,17,7,Jits_ISO_8,118,9999,9999,9999,1676667988
97,17,7,Jits_ISO_8,119,9999,9999,9999,1677467708
97,18,16,Jits_ISO_5,0,5,56,103,1686419784
97,18,16,Jits_ISO_5,1,5,63,98,1686422808
97,18,16,Jits_ISO_5,2,5,80,127,1686426080
97,18,16,Jits_ISO_5,0,5,56,103,1686919728
97,18,16,Jits_ISO_5,1,5,63,98,1686922756
97,18,16,Jits_ISO_5,2,5,80,127,1686925948
97,18,16,Jits_ISO_5,3,1,48,38,1687059676
97,18,16,Jits_ISO_5,0,5,56,103,1687429736
97,18,16,Jits_ISO_5,1,5,80,127,1687439636
97,18,16,Jits_ISO_5,2,1,48,41,1687450996
97,18,16,Jits_ISO_5,3,5,63,98,1687460108
97,18,16,Jits_ISO_5,0,5,63,98,1687880188
97,18,16,Jits_ISO_5,1,5,80,127,1687909864
97,18,16,Jits_ISO_5,2,5,56,103,1687919908
97,18,16,Jits_ISO_5,3,1,48,40,1687933588
97,18,16,Jits_ISO_5,0,1,48,38,1688388500
97,18,16,Jits_ISO_5,1,5,80,127,1688440220
97,18,16,Jits_ISO_5,2,5,56,103,1688450712
97,18,16,Jits_ISO_5,3,5,63,98,1688480016
97,18,16,Jits_ISO_5,0,5,63,98,1688929848
97,18,16,Jits_ISO_5,1,1,48,39,1688944128
97,18,16,Jits_ISO_5,2,5,56,103,1688960488
97,18,16,Jits_ISO_5,3,5,80,127,1688969712
97,18,16,Jits_ISO_5,0,5,56,103,1689380660
97,18,16,Jits_ISO_5,1,5,63,98,1689430636
97,18,16,Jits_ISO_5,2,5,80,127,1689449748
97,18,16,Jits_ISO_5,3,1,48,39,1689454964
97,18,16,Jits_ISO_5,0,5,80,127,1689879808
97,18,16,Jits_ISO_5,1,1,48,39,1689911020
97,18,16,Jits_ISO_5,2,5,63,98,1689930152
97,18,16,Jits_ISO_5,3,5,56,103,1689970012
97,18,16,Jits_ISO_5,0,5,56,103,1690379552
97,18,16,Jits_ISO_5,1,5,63,98,1690410424
97,18,16,Jits_ISO_5,2,1,48,43,1690445304
97,18,16,Jits_ISO_5,3,5,80,127,1690480020
97,18,16,Jits_ISO_5,0,5,56,103,1690880644
97,18,16,Jits_ISO_5,1,1,48,38,1690931116
97,18,16,Jits_ISO_5,2,5,80,127,1690939684
97,18,16,Jits_ISO_5,3,5,63,98,1690969504
97,18,16,Jits_ISO_5,0,1,48,34,1691368600
97,18,16,Jits_ISO_5,1,5,56,103,1691390568
97,18,16,Jits_ISO_5,2,5,63,98,1691399496
97,18,16,Jits_ISO_5,3,5,80,127,1691439504
97,18,16,Jits_ISO_5,0,1,48,40,1691861132
97,18,16,Jits_ISO_5,1,5,63,98,1691879812
97,18,16,Jits_ISO_5,2,5,80,127,1691959592
97,18,16,Jits_ISO_5,3,5,56,103,1691970012
97,18,16,Jits_ISO_5,0,1,48,33,1692389112
97,18,16,Jits_ISO_5,1,5,63,98,1692429592
97,18,16,Jits_ISO_5,2,5,56,103,1692469676
97,18,16,Jits_ISO_5,3,5,80,127,1692472668
97,18,16,Jits_ISO_5,0,5,56,103,1692889468
97,18,16,Jits_ISO_5,1,5,63,98,1692899588
97,18,16,Jits_ISO_5,2,1,48,35,1692923384
97,18,16,Jits_ISO_5,3,5,80,127,1692939668
97,18,16,Jits_ISO_5,0,1,48,40,1693371720
97,18,16,Jits_ISO_5,1,5,56,103,1693379988
97,18,16,Jits_ISO_5,2,5,63,98,1693383052
97,18,16,Jits_ISO_5,3,5,80,127,1693400592
97,18,16,Jits_ISO_5,0,1,48,39,1693831260
97,18,16,Jits_ISO_5,1,5,80,127,1693889820
97,18,16,Jits_ISO_5,2,5,56,103,1693900088
97,18,16,Jits_ISO_5,3,5,63,98,1693969676
97,18,16,Jits_ISO_5,0,5,63,98,1694380564
97,18,16,Jits_ISO_5,1,1,48,37,1694385776
97,18,16,Jits_ISO_5,2,5,56,103,1694399820
97,18,16,Jits_ISO_5,3,5,80,127,1694479760
97,18,16,Jits_ISO_5,0,1,48,37,1694897964
97,18,16,Jits_ISO_5,1,5,56,103,1694899548
97,18,16,Jits_ISO_5,2,5,80,127,1694939632
97,18,16,Jits_ISO_5,3,5,63,98,1694949680
97,18,16,Jits_ISO_5,0,5,80,127,1695389968
97,18,16,Jits_ISO_5,1,1,48,37,1695391904
97,18,16,Jits_ISO_5,2,5,63,98,1695419884
97,18,16,Jits_ISO_5,3,5,56,103,1695459820
97,18,16,Jits_ISO_5,0,5,56,103,1695910340
97,18,16,Jits_ISO_5,1,1,48,35,1695911380
97,18,16,Jits_ISO_5,2,5,63,98,1695940080
97,18,16,Jits_ISO_5,3,5,80,127,1695990132
97,18,16,Jits_ISO_5,0,5,80,127,1696410064
97,18,16,Jits_ISO_5,1,1,48,38,1696429100
97,18,16,Jits_ISO_5,2,5,56,103,1696450020
97,18,16,Jits_ISO_5,3,5,63,98,1696460584
97,18,16,Jits_ISO_5,0,5,80,127,1696890476
97,18,16,Jits_ISO_5,1,1,48,34,1696904532
97,18,16,Jits_ISO_5,2,5,63,98,1696930332
97,18,16,Jits_ISO_5,3,5,56,103,1696989548
97,18,16,Jits_ISO_5,0,5,56,103,1697389924
97,18,16,Jits_ISO_5,1,5,80,127,1697400492
97,18,16,Jits_ISO_5,2,1,48,39,1697438832
97,18,16,Jits_ISO_5,3,5,63,98,1697479928
97,18,16,Jits_ISO_5,0,5,80,127,1697889520
97,18,16,Jits_ISO_5,1,1,48,39,1697930252
97,18,16,Jits_ISO_5,2,5,63,98,1697950128
97,18,16,Jits_ISO_5,3,5,56,103,1697979900
97,18,16,Jits_ISO_5,0,5,56,103,1698390612
97,18,16,Jits_ISO_5,1,1,48,41,1698415380
97,18,16,Jits_ISO_5,2,5,80,127,1698449724
97,18,16,Jits_ISO_5,3,5,63,98,1698489760
97,18,16,Jits_ISO_5,0,1,48,41,1698926060
97,18,16,Jits_ISO_5,1,5,56,103,1698949620
97,18,16,Jits_ISO_5,2,5,63,98,1698959812
97,18,16,Jits_ISO_5,3,5,80,127,1698963100
97,18,16,Jits_ISO_5,0,5,80,127,1699399976
97,18,16,Jits_ISO_5,1,1,48,44,1699422872
97,18,16,Jits_ISO_5,2,5,63,98,1699490248
97,18,16,Jits_ISO_5,3,5,56,103,1699500392
97,18,16,Jits_ISO_5,0,5,56,103,1699899628
97,18,16,Jits_ISO_5,1,5,63,98,1699902804
97,18,16,Jits_ISO_5,2,5,80,127,1699906076
97,18,16,Jits_ISO_5,3,1,48,44,1699932356
97,18,16,Jits_ISO_5,0,1,48,32,1700367180
97,18,16,Jits_ISO_5,1,5,80,127,1700419888
97,18,16,Jits_ISO_5,2,5,63,98,1700470224
97,18,16,Jits_ISO_5,3,5,56,103,1700499748
97,18,16,Jits_ISO_5,0,5,56,103,1700900372
97,18,16,Jits_ISO_5,1,5,80,127,1700909524
97,18,16,Jits_ISO_5,2,1,48,37,1700926416
97,18,16,Jits_ISO_5,3,5,63,98,1700980016
97,18,16,Jits_ISO_5,0,5,56,103,1701410380
97,18,16,Jits_ISO_5,1,5,63,98,1701429572
97,18,16,Jits_ISO_5,2,1,48,38,1701437476
97,18,16,Jits_ISO_5,3,5,80,127,1701489952
97,18,16,Jits_ISO_5,0,5,80,127,1701899492
97,18,16,Jits_ISO_5,1,1,48,32,1701906872
97,18,16,Jits_ISO_5,2,5,63,98,1701970508
97,18,16,Jits_ISO_5,3,5,56,103,1701989696
97,18,16,Jits_ISO_5,0,5,80,127,1702419840
97,18,16,Jits_ISO_5,1,5,56,103,1702430260
97,18,16,Jits_ISO_5,2,1,48,38,1702433304
97,18,16,Jits_ISO_5,3,5,63,98,1702440224
97,18,16,Jits_ISO_5,0,5,80,127,1702910588
97,18,16,Jits_ISO_5,1,1,48,40,1702922928
97,18,16,Jits_ISO_5,2,5,56,103,1702929848
97,18,16,Jits_ISO_5,3,5,63,98,1703000496
97,18,16,Jits_ISO_5,0,5,56,103,1703420380
97,18,16,Jits_ISO_5,1,1,48,39,1703448464
97,18,16,Jits_ISO_5,2,5,80,127,1703449896
97,18,16,Jits_ISO_5,3,5,63,98,1703469384
97,18,16,Jits_ISO_5,0,5,63,98,1703909792
97,18,16,Jits_ISO_5,1,1,48,39,1703931416
97,18,16,Jits_ISO_5,2,5,56,103,1703970320
97,18,16,Jits_ISO_5,3,5,80,127,1703999772
97,18,16,Jits_ISO_5,0,5,63,98,1704400532
97,18,16,Jits_ISO_5,1,5,80,127,1704403820
97,18,16,Jits_ISO_5,2,1,48,37,1704455788
97,18,16,Jits_ISO_5,3,5,56,103,1704490280
97,18,16,Jits_ISO_5,0,5,56,103,1704920556
97,18,16,Jits_ISO_5,1,1,48,40,1704941432
97,18,16,Jits_ISO_5,2,5,63,98,1704950224
97,18,16,Jits_ISO_5,3,5,80,127,1704990236
97,18,16,Jits_ISO_5,0,1,48,41,1705396740
97,18,16,Jits_ISO_5,1,5,63,98,1705420296
97,18,16,Jits_ISO_5,2,5,56,103,1705459940
97,18,16,Jits_ISO_5,3,5,80,127,1705479500
97,18,16,Jits_ISO_5,0,1,48,45,1705921352
97,18,16,Jits_ISO_5,1,5,63,98,1705930220
97,18,16,Jits_ISO_5,2,5,56,103,1705970008
97,18,16,Jits_ISO_5,3,5,80,127,1705980652
97,18,16,Jits_ISO_5,0,5,80,127,1706419548
97,18,16,Jits_ISO_5,1,1,48,45,1706456816
97,18,16,Jits_ISO_5,2,5,63,98,1706490416
97,18,16,Jits_ISO_5,3,5,56,103,1706509680
97,18,16,Jits_ISO_5,0,5,56,103,1706910348
97,18,16,Jits_ISO_5,1,5,80,127,1706929488
97,18,16,Jits_ISO_5,2,1,48,43,1706955828
97,18,16,Jits_ISO_5,3,5,63,98,1706969420
97,18,16,Jits_ISO_5,0,1,48,36,1707374392
97,18,16,Jits_ISO_5,1,5,63,98,1707420424
97,18,16,Jits_ISO_5,2,5,80,127,1707439340
97,18,16,Jits_ISO_5,3,5,56,103,1707480456
97,18,16,Jits_ISO_5,0,5,63,98,1707919644
97,18,16,Jits_ISO_5,1,1,48,41,1707930636
97,18,16,Jits_ISO_5,2,5,56,103,1707940196
97,18,16,Jits_ISO_5,3,5,80,127,1707949416
97,18,16,Jits_ISO_5,0,1,48,35,1708416336
97,18,16,Jits_ISO_5,1,5,80,127,1708419592
97,18,16,Jits_ISO_5,2,5,56,103,1708439900
97,18,16,Jits_ISO_5,3,5,63,98,1708469600
97,18,16,Jits_ISO_5,0,1,48,35,1708876880
97,18,16,Jits_ISO_5,1,5,56,103,1708989672
97,18,16,Jits_ISO_5,2,5,80,127,1708992820
97,18,16,Jits_ISO_5,3,5,63,98,1709010360
97,18,16,Jits_ISO_5,0,5,63,98,1709409540
97,18,16,Jits_ISO_5,1,5,56,103,1709440260
97,18,16,Jits_ISO_5,2,1,48,39,1709459416
97,18,16,Jits_ISO_5,3,5,80,127,1709499620
97,18,16,Jits_ISO_5,0,1,48,39,1709922572
97,18,16,Jits_ISO_5,1,5,63,98,1709990424
97,18,16,Jits_ISO_5,2,5,56,103,1709999424
97,18,16,Jits_ISO_5,3,5,80,127,1710009696
97,18,16,Jits_ISO_5,0,5,56,103,1710450136
97,18,16,Jits_ISO_5,1,1,48,38,1710470268
97,18,16,Jits_ISO_5,2,5,80,127,1710479732
97,18,16,Jits_ISO_5,3,5,63,98,1710490224
97,18,16,Jits_ISO_5,0,1,48,43,1710935612
97,18,16,Jits_ISO_5,1,5,63,98,1710989736
97,18,16,Jits_ISO_5,2,5,56,103,1710999860
97,18,16,Jits_ISO_5,3,5,80,127,1711020268
97,18,16,Jits_ISO_5,0,5,56,103,1711419808
97,18,16,Jits_ISO_5,1,1,48,38,1711468560
97,18,16,Jits_ISO_5,2,5,63,98,1711480416
97,18,16,Jits_ISO_5,3,5,80,127,1711483624
97,18,16,Jits_ISO_5,0,1,48,39,1711938028
97,18,16,Jits_ISO_5,1,5,80,127,1711939916
97,18,16,Jits_ISO_5,2,5,56,103,1711950336
97,18,16,Jits_ISO_5,3,5,63,98,1712019716
97,18,16,Jits_ISO_5,0,5,80,127,1712429316
97,18,16,Jits_ISO_5,1,1,48,40,1712451988
97,18,16,Jits_ISO_5,2,5,56,103,1712500184
97,18,16,Jits_ISO_5,3,5,63,98,1712510380
97,18,16,Jits_ISO_5,0,1,48,42,1712955992
97,18,16,Jits_ISO_5,1,5,63,98,1712970112
97,18,16,Jits_ISO_5,2,5,56,103,1712980308
97,18,16,Jits_ISO_5,3,5,80,127,1712999720
97,18,16,Jits_ISO_5,0,5,80,127,1713419584
97,18,16,Jits_ISO_5,1,1,48,41,1713452296
97,18,16,Jits_ISO_5,2,5,63,98,1713480340
97,18,16,Jits_ISO_5,3,5,56,103,1713520128
97,18,16,Jits_ISO_5,0,5,56,103,1713960164
97,18,16,Jits_ISO_5,1,1,48,39,1713966792
97,18,16,Jits_ISO_5,2,5,63,98,1713969452
97,18,16,Jits_ISO_5,3,5,80,127,1714009392
97,18,16,Jits_ISO_5,0,5,56,103,1714420352
97,18,16,Jits_ISO_5,1,1,48,34,1714448448
97,18,16,Jits_ISO_5,2,5,80,127,1714450020
97,18,16,Jits_ISO_5,3,5,63,98,1714499920
97,18,16,Jits_ISO_5,0,1,48,38,1714885444
97,18,16,Jits_ISO_5,1,5,56,103,1714959728
97,18,16,Jits_ISO_5,2,5,63,98,1714999568
97,18,16,Jits_ISO_5,3,5,80,127,1715002864
97,18,16,Jits_ISO_5,0,1,48,40,1715423388
97,18,16,Jits_ISO_5,1,5,56,103,1715459380
97,18,16,Jits_ISO_5,2,5,63,98,1715469572
97,18,16,Jits_ISO_5,3,5,80,127,1715490328
97,18,16,Jits_ISO_5,0,1,48,39,1715919236
97,18,16,Jits_ISO_5,1,5,56,103,1715920824
97,18,16,Jits_ISO_5,2,5,80,127,1715923588
97,18,16,Jits_ISO_5,3,5,63,98,1715960308
97,18,16,Jits_ISO_5,0,1,48,39,1716405456
97,18,16,Jits_ISO_5,1,5,63,98,1716460028
97,18,16,Jits_ISO_5,2,5,56,103,1716489480
97,18,16,Jits_ISO_5,3,5,80,127,1716510144
97,18,16,Jits_ISO_5,0,5,80,127,1716930172
97,18,16,Jits_ISO_5,1,5,56,103,1716940220
97,18,16,Jits_ISO_5,2,5,63,98,1716950344
97,18,16,Jits_ISO_5,3,1,48,38,1716972116
97,18,16,Jits_ISO_5,0,5,56,103,1717429620
97,18,16,Jits_ISO_5,1,1,48,34,1717432816
97,18,16,Jits_ISO_5,2,5,80,127,1717469628
97,18,16,Jits_ISO_5,3,5,63,98,1717500420
97,18,16,Jits_ISO_5,0,5,63,98,1717949896
97,18,16,Jits_ISO_5,1,5,80,127,1717960164
97,18,16,Jits_ISO_5,2,5,56,103,1717970212
97,18,16,Jits_ISO_5,3,1,48,40,1717978136
97,18,16,Jits_ISO_5,0,5,56,103,1718430268
97,18,16,Jits_ISO_5,1,1,48,38,1718435136
97,18,16,Jits_ISO_5,2,5,63,98,1718499744
97,18,16,Jits_ISO_5,3,5,80,127,1718510016
97,18,16,Jits_ISO_5,0,1,48,36,1718916864
97,18,16,Jits_ISO_5,1,5,80,127,1718929788
97,18,16,Jits_ISO_5,2,5,56,103,1718940280
97,18,16,Jits_ISO_5,3,5,63,98,1718990284
97,18,16,Jits_ISO_5,0,1,48,33,1719356136
97,18,16,Jits_ISO_5,1,5,80,127,1719439856
97,18,16,Jits_ISO_5,2,5,56,103,1719500328
97,18,16,Jits_ISO_5,3,5,63,98,1719529928
97,18,16,Jits_ISO_5,0,5,56,103,1719939448
97,18,16,Jits_ISO_5,1,5,80,127,1719942368
97,18,16,Jits_ISO_5,2,1,48,36,1719964964
97,18,16,Jits_ISO_5,3,5,63,98,1719980448
97,18,16,Jits_ISO_5,0,1,48,35,1720440500
97,18,16,Jits_ISO_5,1,5,56,103,1720470044
97,18,16,Jits_ISO_5,2,5,63,98,1720499448
97,18,16,Jits_ISO_5,3,5,80,127,1720510016
97,18,16,Jits_ISO_5,0,5,63,98,1720979824
97,18,16,Jits_ISO_5,1,5,80,127,1720990316
97,18,16,Jits_ISO_5,2,1,48,33,1720995628
97,18,16,Jits_ISO_5,3,5,56,103,1721000456
97,18,16,Jits_ISO_5,0,5,80,127,1721430332
97,18,16,Jits_ISO_5,1,1,48,36,1721460876
97,18,16,Jits_ISO_5,2,5,56,103,1721479624
97,18,16,Jits_ISO_5,3,5,63,98,1721482692
97,18,16,Jits_ISO_5,0,1,48,39,1721947944
97,18,16,Jits_ISO_5,1,5,56,103,1721970068
97,18,16,Jits_ISO_5,2,5,80,127,1721989632
97,18,16,Jits_ISO_5,3,5,63,98,1721999752
97,18,16,Jits_ISO_5,0,5,63,98,1722450256
97,18,16,Jits_ISO_5,1,1,48,43,1722454496
97,18,16,Jits_ISO_5,2,5,56,103,1722479924
97,18,16,Jits_ISO_5,3,5,80,127,1722499408
97,18,16,Jits_ISO_5,0,1,48,43,1722957208
97,18,16,Jits_ISO_5,1,5,56,103,1722960240
97,18,16,Jits_ISO_5,2,5,80,127,1722969316
97,18,16,Jits_ISO_5,3,5,63,98,1723040112
97,18,16,Jits_ISO_5,0,5,63,98,1723449564
97,18,16,Jits_ISO_5,1,1,48,44,1723490024
97,18,16,Jits_ISO_5,2,5,80,127,1723491212
97,18,16,Jits_ISO_5,3,5,56,103,1723529580
97,18,16,Jits_ISO_5,0,5,56,103,1723959560
97,18,16,Jits_ISO_5,1,5,63,98,1723970052
97,18,16,Jits_ISO_5,2,1,48,43,1723983288
97,18,16,Jits_ISO_5,3,5,80,127,1723990356
97,18,16,Jits_ISO_5,0,1,48,43,1724448940
97,18,16,Jits_ISO_5,1,5,63,98,1724500204
97,18,16,Jits_ISO_5,2,5,80,127,1724519768
97,18,16,Jits_ISO_5,3,5,56,103,1724540224
97,18,16,Jits_ISO_5,0,5,56,103,1724939636
97,18,16,Jits_ISO_5,1,1,48,43,1724986500
97,18,16,Jits_ISO_5,2,5,80,127,1725019572
97,18,16,Jits_ISO_5,3,5,63,98,1725029696
97,18,16,Jits_ISO_5,0,5,80,127,1725480440
97,18,16,Jits_ISO_5,1,1,48,44,1725488912
97,18,16,Jits_ISO_5,2,5,63,98,1725490552
97,18,16,Jits_ISO_5,3,5,56,103,1725520228
97,18,16,Jits_ISO_5,0,5,63,98,1725940252
97,18,16,Jits_ISO_5,1,1,48,41,1725953188
97,18,16,Jits_ISO_5,2,5,80,127,1725980112
97,18,16,Jits_ISO_5,3,5,56,103,1726040424
97,18,16,Jits_ISO_5,0,5,63,98,1726450100
97,18,16,Jits_ISO_5,1,1,48,42,1726475912
97,18,16,Jits_ISO_5,2,5,56,103,1726500072
97,18,16,Jits_ISO_5,3,5,80,127,1726529896
97,18,16,Jits_ISO_5,0,5,80,127,1726959952
97,18,16,Jits_ISO_5,1,1,48,40,1726960840
97,18,16,Jits_ISO_5,2,5,63,98,1726970212
97,18,16,Jits_ISO_5,3,5,56,103,1727040040
97,18,16,Jits_ISO_5,0,1,48,40,1727474796
97,18,16,Jits_ISO_5,1,5,80,127,1727530340
97,18,16,Jits_ISO_5,2,5,56,103,1727539712
97,18,16,Jits_ISO_5,3,5,63,98,1727542780
97,18,16,Jits_ISO_5,0,5,56,103,1727969548
97,18,16,Jits_ISO_5,1,5,80,127,1727990156
97,18,16,Jits_ISO_5,2,5,63,98,1728000572
97,18,16,Jits_ISO_5,3,1,48,40,1728001464
97,18,16,Jits_ISO_5,0,1,48,39,1728453900
97,18,16,Jits_ISO_5,1,5,63,98,1728479480
97,18,16,Jits_ISO_5,2,5,56,103,1728519492
97,18,16,Jits_ISO_5,3,5,80,127,1728540100
97,18,16,Jits_ISO_5,0,1,48,41,1728977752
97,18,16,Jits_ISO_5,1,5,63,98,1728980412
97,18,16,Jits_ISO_5,2,5,56,103,1729039680
97,18,16,Jits_ISO_5,3,5,80,127,1729042824
97,18,16,Jits_ISO_5,0,5,56,103,1729450332
97,18,16,Jits_ISO_5,1,5,80,127,1729469968
97,18,16,Jits_ISO_5,2,1,48,38,1729503352
97,18,16,Jits_ISO_5,3,5,63,98,1729510044
97,18,16,Jits_ISO_5,0,1,48,40,1729977304
97,18,16,Jits_ISO_5,1,5,56,103,1729979888
97,18,16,Jits_ISO_5,2,5,63,98,1730000496
97,18,16,Jits_ISO_5,3,5,80,127,1730009420
97,18,16,Jits_ISO_5,0,5,80,127,1730450156
97,18,16,Jits_ISO_5,1,5,56,103,1730479560
97,18,16,Jits_ISO_5,2,1,48,43,1730489576
97,18,16,Jits_ISO_5,3,5,63,98,1730520460
97,18,16,Jits_ISO_5,0,1,48,39,1730947408
97,18,16,Jits_ISO_5,1,5,80,127,1730960012
97,18,16,Jits_ISO_5,2,5,56,103,1730980200
97,18,16,Jits_ISO_5,3,5,63,98,1731039464
97,18,16,Jits_ISO_5,0,1,48,38,1731454172
97,18,16,Jits_ISO_5,1,5,56,103,1731469856
97,18,16,Jits_ISO_5,2,5,80,127,1731490044
97,18,16,Jits_ISO_5,3,5,63,98,1731549536
97,18,16,Jits_ISO_5,0,5,80,127,1731950120
97,18,16,Jits_ISO_5,1,5,56,103,1731960164
97,18,16,Jits_ISO_5,2,5,63,98,1732000028
97,18,16,Jits_ISO_5,3,1,48,32,1732019132
97,18,16,Jits_ISO_5,0,5,63,98,1732449632
97,18,16,Jits_ISO_5,1,1,48,35,1732469684
97,18,16,Jits_ISO_5,2,5,56,103,1732489636
97,18,16,Jits_ISO_5,3,5,80,127,1732492628
97,18,16,Jits_ISO_5,0,1,48,38,1732943472
97,18,16,Jits_ISO_5,1,5,63,98,1732969796
97,18,16,Jits_ISO_5,2,5,80,127,1733010032
97,18,16,Jits_ISO_5,3,5,56,103,1733039424
97,18,16,Jits_ISO_5,0,1,48,37,1733438796
97,18,16,Jits_ISO_5,1,5,56,103,1733469536
97,18,16,Jits_ISO_5,2,5,63,98,1733479952
97,18,16,Jits_ISO_5,3,5,80,127,1733509404
97,18,16,Jits_ISO_5,0,1,48,40,1733927944
97,18,16,Jits_ISO_5,1,5,80,127,1733960192
97,18,16,Jits_ISO_5,2,5,63,98,1734029784
97,18,16,Jits_ISO_5,3,5,56,103,1734039908
97,18,16,Jits_ISO_5,0,1,48,39,1734450088
97,18,16,Jits_ISO_5,1,5,63,98,1734460148
97,18,16,Jits_ISO_5,2,5,56,103,1734530356
97,18,16,Jits_ISO_5,3,5,80,127,1734539504
97,18,16,Jits_ISO_5,0,5,63,98,1734959368
97,18,16,Jits_ISO_5,1,1,48,44,1734967816
97,18,16,Jits_ISO_5,2,5,56,103,1734979824
97,18,16,Jits_ISO_5,3,5,80,127,1735019984
97,18,16,Jits_ISO_5,0,1,48,45,1735442128
97,18,16,Jits_ISO_5,1,5,56,103,1735469432
97,18,16,Jits_ISO_5,2,5,63,98,1735479852
97,18,16,Jits_ISO_5,3,5,80,127,1735559480
97,18,16,Jits_ISO_5,0,5,63,98,1735960028
97,18,16,Jits_ISO_5,1,1,48,43,1735973784
97,18,16,Jits_ISO_5,2,5,56,103,1735989476
97,18,16,Jits_ISO_5,3,5,80,127,1736029484
97,18,16,Jits_ISO_5,0,5,56,103,1736459908
97,18,16,Jits_ISO_5,1,1,48,44,1736491352
97,18,16,Jits_ISO_5,2,5,63,98,1736499768
97,18,16,Jits_ISO_5,3,5,80,127,1736539628
97,18,16,Jits_ISO_5,0,5,80,127,1736960776
97,18,16,Jits_ISO_5,1,1,48,42,1737019944
97,18,16,Jits_ISO_5,2,5,56,103,1737040192
97,18,16,Jits_ISO_5,3,5,63,98,1737049340
97,18,16,Jits_ISO_5,0,5,56,103,1737500156
97,18,16,Jits_ISO_5,1,5,63,98,1737503076
97,18,16,Jits_ISO_5,2,1,48,39,1737509908
97,18,16,Jits_ISO_5,3,5,80,127,1737511392
97,18,16,Jits_ISO_5,0,1,48,38,1737991848
97,18,16,Jits_ISO_5,1,5,56,103,1738020196
97,18,16,Jits_ISO_5,2,5,63,98,1738039684
97,18,16,Jits_ISO_5,3,5,80,127,1738049952
97,18,16,Jits_ISO_5,0,5,63,98,1738480008
97,18,16,Jits_ISO_5,1,5,80,127,1738490204
97,18,16,Jits_ISO_5,2,1,48,36,1738493768
97,18,16,Jits_ISO_5,3,5,56,103,1738509756
97,18,16,Jits_ISO_5,0,5,63,98,1738979736
97,18,16,Jits_ISO_5,1,1,48,38,1738980780
97,18,16,Jits_ISO_5,2,5,56,103,1739059672
97,18,16,Jits_ISO_5,3,5,80,127,1739062816
97,18,16,Jits_ISO_5,0,5,63,98,1739480364
97,18,16,Jits_ISO_5,1,5,56,103,1739499924
97,18,16,Jits_ISO_5,2,1,48,37,1739514724
97,18,16,Jits_ISO_5,3,5,80,127,1739529516
97,18,16,Jits_ISO_5,0,1,48,34,1739966044
97,18,16,Jits_ISO_5,1,5,56,103,1739980092
97,18,16,Jits_ISO_5,2,5,63,98,1739999800
97,18,16,Jits_ISO_5,3,5,80,127,1740009772
97,18,16,Jits_ISO_5,0,1,48,34,1740436908
97,18,16,Jits_ISO_5,1,5,56,103,1740509492
97,18,16,Jits_ISO_5,2,5,63,98,1740540272
97,18,16,Jits_ISO_5,3,5,80,127,1740543788
97,18,16,Jits_ISO_5,0,5,56,103,1740970340
97,18,16,Jits_ISO_5,1,1,48,39,1740977740
97,18,16,Jits_ISO_5,2,5,63,98,1741010200
97,18,16,Jits_ISO_5,3,5,80,127,1741069688
97,18,16,Jits_ISO_5,0,1,48,41,1741484288
97,18,16,Jits_ISO_5,1,5,56,103,1741489712
97,18,16,Jits_ISO_5,2,5,63,98,1741499684
97,18,16,Jits_ISO_5,3,5,80,127,1741560220
97,18,16,Jits_ISO_5,0,1,48,46,1741972156
97,18,16,Jits_ISO_5,1,5,56,103,1741990192
97,18,16,Jits_ISO_5,2,5,80,127,1742009824
97,18,16,Jits_ISO_5,3,5,63,98,1742040324
97,18,16,Jits_ISO_5,0,1,48,41,1742484020
97,18,16,Jits_ISO_5,1,5,80,127,1742489896
97,18,16,Jits_ISO_5,2,5,56,103,1742500340
97,18,16,Jits_ISO_5,3,5,63,98,1742519900
97,18,16,Jits_ISO_5,0,1,48,40,1742970792
97,18,16,Jits_ISO_5,1,5,63,98,1742979364
97,18,16,Jits_ISO_5,2,5,80,127,1743060232
97,18,16,Jits_ISO_5,3,5,56,103,1743070336
97,18,16,Jits_ISO_5,0,1,48,39,1743534980
97,18,16,Jits_ISO_5,1,5,80,127,1743539808
97,18,16,Jits_ISO_5,2,5,56,103,1743560188
97,18,16,Jits_ISO_5,3,5,63,98,1743563256
97,18,16,Jits_ISO_5,0,5,63,98,1744009540
97,18,16,Jits_ISO_5,1,1,48,40,1744010524
97,18,16,Jits_ISO_5,2,5,80,127,1744014168
97,18,16,Jits_ISO_5,3,5,56,103,1744070020
97,18,16,Jits_ISO_5,0,1,48,38,1744487968
97,18,16,Jits_ISO_5,1,5,56,103,1744489708
97,18,16,Jits_ISO_5,2,5,80,127,1744500200
97,18,16,Jits_ISO_5,3,5,63,98,1744539988
97,18,16,Jits_ISO_5,0,1,48,38,1744954496
97,18,16,Jits_ISO_5,1,5,56,103,1744980444
97,18,16,Jits_ISO_5,2,5,63,98,1745039864
97,18,16,Jits_ISO_5,3,5,80,127,1745049984
97,18,16,Jits_ISO_5,0,1,48,40,1745477760
97,18,16,Jits_ISO_5,1,5,63,98,1745490216
97,18,16,Jits_ISO_5,2,5,80,127,1745530080
97,18,16,Jits_ISO_5,3,5,56,103,1745570044
97,18,16,Jits_ISO_5,0,1,48,36,1745980784
97,18,16,Jits_ISO_5,1,5,56,103,1745989876
97,18,16,Jits_ISO_5,2,5,63,98,1746069892
97,18,16,Jits_ISO_5,3,5,80,127,1746073032
97,18,16,Jits_ISO_5,0,9999,9999,9999,1686667360
97,18,16,Jits_ISO_5,1,9999,9999,9999,1687168108
97,18,16,Jits_ISO_5,2,9999,9999,9999,1687678044
97,18,16,Jits_ISO_5,3,9999,9999,9999,1688177788
97,18,16,Jits_ISO_5,4,9999,9999,9999,1688677448
97,18,16,Jits_ISO_5,5,9999,9999,9999,1689177188
97,18,16,Jits_ISO_5,6,9999,9999,9999,1689677888
97,18,16,Jits_ISO_5,7,9999,9999,9999,1690177636
97,18,16,Jits_ISO_5,8,9999,9999,9999,1690677304
97,18,16,Jits_ISO_5,9,9999,9999,9999,1691178100
97,18,16,Jits_ISO_5,10,9999,9999,9999,1691677764
97,18,16,Jits_ISO_5,11,9999,9999,9999,1692177500
97,18,16,Jits_ISO_5,12,9999,9999,9999,1692677224
97,18,16,Jits_ISO_5,13,9999,9999,9999,1693177928
97,18,16,Jits_ISO_5,14,9999,9999,9999,1693677656
97,18,16,Jits_ISO_5,15,9999,9999,9999,1694177388
97,18,16,Jits_ISO_5,16,9999,9999,9999,1694678092
97,18,16,Jits_ISO_5,17,9999,9999,9999,1695188088
97,18,16,Jits_ISO_5,18,9999,9999,9999,1695687744
97,18,16,Jits_ISO_5,19,9999,9999,9999,1696187492
97,18,16,Jits_ISO_5,20,9999,9999,9999,1696687164
97,18,16,Jits_ISO_5,21,9999,9999,9999,1697187956
97,18,16,Jits_ISO_5,22,9999,9999,9999,1697687604
97,18,16,Jits_ISO_5,23,9999,9999,9999,1698187348
97,18,16,Jits_ISO_5,24,9999,9999,9999,1698688068
97,18,16,Jits_ISO_5,25,9999,9999,9999,1699198072
97,18,16,Jits_ISO_5,26,9999,9999,9999,1699697732
97,18,16,Jits_ISO_5,27,9999,9999,9999,1700197452
97,18,16,Jits_ISO_5,28,9999,9999,9999,1700697200
97,18,16,Jits_ISO_5,29,9999,9999,9999,1701197900
97,18,16,Jits_ISO_5,30,9999,9999,9999,1701697648
97,18,16,Jits_ISO_5,31,9999,9999,9999,1702197320
97,18,16,Jits_ISO_5,32,9999,9999,9999,1702698036
97,18,16,Jits_ISO_5,33,9999,9999,9999,1703197780
97,18,16,Jits_ISO_5,34,9999,9999,9999,1703697532
97,18,16,Jits_ISO_5,35,9999,9999,9999,1704197208
97,18,16,Jits_ISO_5,36,9999,9999,9999,1704697976
97,18,16,Jits_ISO_5,37,9999,9999,9999,1705197636
97,18,16,Jits_ISO_5,38,9999,9999,9999,1705697384
97,18,16,Jits_ISO_5,39,9999,9999,9999,1706198092
97,18,16,Jits_ISO_5,40,9999,9999,9999,1706708084
97,18,16,Jits_ISO_5,41,9999,9999,9999,1707207752
97,18,16,Jits_ISO_5,42,9999,9999,9999,1707707500
97,18,16,Jits_ISO_5,43,9999,9999,9999,1708207156
97,18,16,Jits_ISO_5,44,9999,9999,9999,1708707932
97,18,16,Jits_ISO_5,45,9999,9999,9999,1709207636
97,18,16,Jits_ISO_5,46,9999,9999,9999,1709707364
97,18,16,Jits_ISO_5,47,9999,9999,9999,1710208076
97,18,16,Jits_ISO_5,48,9999,9999,9999,1710718072
97,18,16,Jits_ISO_5,49,9999,9999,9999,1711217752
97,18,16,Jits_ISO_5,50,9999,9999,9999,1711717476
97,18,16,Jits_ISO_5,51,9999,9999,9999,1712217148
97,18,16,Jits_ISO_5,52,9999,9999,9999,1712717928
97,18,16,Jits_ISO_5,53,9999,9999,9999,1713217604
97,18,16,Jits_ISO_5,54,9999,9999,9999,1713717336
97,18,16,Jits_ISO_5,55,9999,9999,9999,1714218060
97,18,16,Jits_ISO_5,56,9999,9999,9999,1714717804
97,18,16,Jits_ISO_5,57,9999,9999,9999,1715217472
97,18,16,Jits_ISO_5,58,9999,9999,9999,1715717208
97,18,16,Jits_ISO_5,59,9999,9999,9999,1716217972
97,18,16,Jits_ISO_5,60,9999,9999,9999,1716717632
97,18,16,Jits_ISO_5,61,9999,9999,9999,1717217364
97,18,16,Jits_ISO_5,62,9999,9999,9999,1717718084
97,18,16,Jits_ISO_5,63,9999,9999,9999,1718228092
97,18,16,Jits_ISO_5,64,9999,9999,9999,1718727752
97,18,16,Jits_ISO_5,65,9999,9999,9999,1719227496
97,18,16,Jits_ISO_5,66,9999,9999,9999,1719727156
97,18,16,Jits_ISO_5,67,9999,9999,9999,1720227924
97,18,16,Jits_ISO_5,68,9999,9999,9999,1720727652
97,18,16,Jits_ISO_5,69,9999,9999,9999,1721227380
97,18,16,Jits_ISO_5,70,9999,9999,9999,1721728072
97,18,16,Jits_ISO_5,71,9999,9999,9999,1722238012
97,18,16,Jits_ISO_5,72,9999,9999,9999,1722737740
97,18,16,Jits_ISO_5,73,9999,9999,9999,1723237472
97,18,16,Jits_ISO_5,74,9999,9999,9999,1723737204
97,18,16,Jits_ISO_5,75,9999,9999,9999,1724237904
97,18,16,Jits_ISO_5,76,9999,9999,9999,1724737656
97,18,16,Jits_ISO_5,77,9999,9999,9999,1725237316
97,18,16,Jits_ISO_5,78,9999,9999,9999,1725738036
97,18,16,Jits_ISO_5,79,9999,9999,9999,1726237784
97,18,16,Jits_ISO_5,80,9999,9999,9999,1726737516
97,18,16,Jits_ISO_5,81,9999,9999,9999,1727237176
97,18,16,Jits_ISO_5,82,9999,9999,9999,1727737968
97,18,16,Jits_ISO_5,83,9999,9999,9999,1728237632
97,18,16,Jits_ISO_5,84,9999,9999,9999,1728737384
97,18,16,Jits_ISO_5,85,9999,9999,9999,1729238092
97,18,16,Jits_ISO_5,86,9999,9999,9999,1729748080
97,18,16,Jits_ISO_5,87,9999,9999,9999,1730247756
97,18,16,Jits_ISO_5,88,9999,9999,9999,1730747488
97,18,16,Jits_ISO_5,89,9999,9999,9999,1731247160
97,18,16,Jits_ISO_5,90,9999,9999,9999,1731747940
97,18,16,Jits_ISO_5,91,9999,9999,9999,1732247644
97,18,16,Jits_ISO_5,92,9999,9999,9999,1732747372
97,18,16,Jits_ISO_5,93,9999,9999,9999,1733248084
97,18,16,Jits_ISO_5,94,9999,9999,9999,1733758072
97,18,16,Jits_ISO_5,95,9999,9999,9999,1734257728
97,18,16,Jits_ISO_5,96,9999,9999,9999,1734757464
97,18,16,Jits_ISO_5,97,9999,9999,9999,1735257192
97,18,16,Jits_ISO_5,98,9999,9999,9999,1735757900
97,18,16,Jits_ISO_5,99,9999,9999,9999,1736257628
97,18,16,Jits_ISO_5,100,9999,9999,9999,1736757364
97,18,16,Jits_ISO_5,101,9999,9999,9999,1737258084
97,18,16,Jits_ISO_5,102,9999,9999,9999,1737757748
97,18,16,Jits_ISO_5,103,9999,9999,9999,1738257500
97,18,16,Jits_ISO_5,104,9999,9999,9999,1738757232
97,18,16,Jits_ISO_5,105,9999,9999,9999,1739257932
97,18,16,Jits_ISO_5,106,9999,9999,9999,1739757664
97,18,16,Jits_ISO_5,107,9999,9999,9999,1740257396
97,18,16,Jits_ISO_5,108,9999,9999,9999,1740758100
97,18,16,Jits_ISO_5,109,9999,9999,9999,1741268024
97,18,16,Jits_ISO_5,110,9999,9999,9999,1741767764
97,18,16,Jits_ISO_5,111,9999,9999,9999,1742267496
97,18,16,Jits_ISO_5,112,9999,9999,9999,1742767224
97,18,16,Jits_ISO_5,113,9999,9999,9999,1743267932
97,18,16,Jits_ISO_5,114,9999,9999,9999,1743767636
97,18,16,Jits_ISO_5,115,9999,9999,9999,1744267356
97,18,16,Jits_ISO_5,116,9999,9999,9999,1744768060
97,18,16,Jits_ISO_5,117,9999,9999,9999,1745278056
97,18,16,Jits_ISO_5,118,9999,9999,9999,1745777788
97,18,16,Jits_ISO_5,119,9999,9999,9999,1746277440
97,19,15,Jits_Phase_8,0,5,56,103,1756535124
97,19,15,Jits_Phase_8,1,5,63,98,1756538148
97,19,15,Jits_Phase_8,2,5,80,127,1756541492
97,19,15,Jits_Phase_8,0,5,56,103,1757334840
97,19,15,Jits_Phase_8,1,5,63,98,1757337936
97,19,15,Jits_Phase_8,2,5,80,127,1757341060
97,19,15,Jits_Phase_8,3,1,48,37,1757473592
97,19,15,Jits_Phase_8,0,5,80,127,1758075644
97,19,15,Jits_Phase_8,1,1,48,31,1758164152
97,19,15,Jits_Phase_8,2,5,63,98,1758165572
97,19,15,Jits_Phase_8,3,5,56,103,1758174648
97,19,15,Jits_Phase_8,0,5,56,103,1758894552
97,19,15,Jits_Phase_8,1,5,63,98,1758904676
97,19,15,Jits_Phase_8,2,1,48,27,1758935216
97,19,15,Jits_Phase_8,3,5,80,127,1758994872
97,19,15,Jits_Phase_8,0,5,63,98,1759664432
97,19,15,Jits_Phase_8,1,1,48,28,1759677888
97,19,15,Jits_Phase_8,2,5,80,127,1759695076
97,19,15,Jits_Phase_8,3,5,56,103,1759724896
97,19,15,Jits_Phase_8,0,1,48,28,1760449012
97,19,15,Jits_Phase_8,1,5,56,103,1760465524
97,19,15,Jits_Phase_8,2,5,80,127,1760564712
97,19,15,Jits_Phase_8,3,5,63,98,1760614688
97,19,15,Jits_Phase_8,0,1,48,28,1761250420
97,19,15,Jits_Phase_8,1,5,56,103,1761264984
97,19,15,Jits_Phase_8,2,5,80,127,1761315040
97,19,15,Jits_Phase_8,3,5,63,98,1761355036
97,19,15,Jits_Phase_8,0,1,48,25,1762019536
97,19,15,Jits_Phase_8,1,5,80,127,1762094412
97,19,15,Jits_Phase_8,2,5,63,98,1762125344
97,19,15,Jits_Phase_8,3,5,56,103,1762194724
97,19,15,Jits_Phase_8,0,1,48,24,1762861540
97,19,15,Jits_Phase_8,1,5,63,98,1762924960
97,19,15,Jits_Phase_8,2,5,56,103,1762954624
97,19,15,Jits_Phase_8,3,5,80,127,1763014960
97,19,15,Jits_Phase_8,0,5,56,103,1763665388
97,19,15,Jits_Phase_8,1,5,80,127,1763668456
97,19,15,Jits_Phase_8,2,1,48,23,1763690908
97,19,15,Jits_Phase_8,3,5,63,98,1763786160
97,19,15,Jits_Phase_8,0,1,48,26,1764441660
97,19,15,Jits_Phase_8,1,5,56,103,1764544872
97,19,15,Jits_Phase_8,2,5,80,127,1764584812
97,19,15,Jits_Phase_8,3,5,63,98,1764594932
97,19,15,Jits_Phase_8,0,1,48,29,1765294428
97,19,15,Jits_Phase_8,1,5,56,103,1765304640
97,19,15,Jits_Phase_8,2,5,80,127,1765325248
97,19,15,Jits_Phase_8,3,5,63,98,1765405028
97,19,15,Jits_Phase_8,0,5,80,127,1766095412
97,19,15,Jits_Phase_8,1,1,48,32,1766121828
97,19,15,Jits_Phase_8,2,5,56,103,1766194904
97,19,15,Jits_Phase_8,3,5,63,98,1766204728
97,19,15,Jits_Phase_8,0,5,63,98,1766865444
97,19,15,Jits_Phase_8,1,1,48,28,1766919508
97,19,15,Jits_Phase_8,2,5,80,127,1766924632
97,19,15,Jits_Phase_8,3,5,56,103,1766934976
97,19,15,Jits_Phase_8,0,5,56,103,1767664972
97,19,15,Jits_Phase_8,1,1,48,35,1767683008
97,19,15,Jits_Phase_8,2,5,63,98,1767734492
97,19,15,Jits_Phase_8,3,5,80,127,1767737864
97,19,15,Jits_Phase_8,0,1,48,40,1768467316
97,19,15,Jits_Phase_8,1,5,63,98,1768494620
97,19,15,Jits_Phase_8,2,5,56,103,1768544520
97,19,15,Jits_Phase_8,3,5,80,127,1768547740
97,19,15,Jits_Phase_8,0,5,56,103,1769255412
97,19,15,Jits_Phase_8,1,5,80,127,1769258328
97,19,15,Jits_Phase_8,2,1,48,40,1769275016
97,19,15,Jits_Phase_8,3,5,63,98,1769345608
97,19,15,Jits_Phase_8,0,1,48,42,1770039776
97,19,15,Jits_Phase_8,1,5,63,98,1770094948
97,19,15,Jits_Phase_8,2,5,56,103,1770184944
97,19,15,Jits_Phase_8,3,5,80,127,1770214696
97,19,15,Jits_Phase_8,0,1,48,39,1770868984
97,19,15,Jits_Phase_8,1,5,56,103,1770884520
97,19,15,Jits_Phase_8,2,5,63,98,1770984856
97,19,15,Jits_Phase_8,3,5,80,127,1771014456
97,19,15,Jits_Phase_8,0,1,48,40,1771698136
97,19,15,Jits_Phase_8,1,5,63,98,1771704612
97,19,15,Jits_Phase_8,2,5,56,103,1771714884
97,19,15,Jits_Phase_8,3,5,80,127,1771804924
97,19,15,Jits_Phase_8,0,1,48,35,1772469200
97,19,15,Jits_Phase_8,1,5,63,98,1772524828
97,19,15,Jits_Phase_8,2,5,56,103,1772604756
97,19,15,Jits_Phase_8,3,5,80,127,1772607748
97,19,15,Jits_Phase_8,0,5,80,127,1773284580
97,19,15,Jits_Phase_8,1,5,63,98,1773305264
97,19,15,Jits_Phase_8,2,1,48,39,1773342236
97,19,15,Jits_Phase_8,3,5,56,103,1773364600
97,19,15,Jits_Phase_8,0,5,56,103,1774125408
97,19,15,Jits_Phase_8,1,1,48,37,1774129124
97,19,15,Jits_Phase_8,2,5,63,98,1774144812
97,19,15,Jits_Phase_8,3,5,80,127,1774148252
97,19,15,Jits_Phase_8,0,5,63,98,1774864784
97,19,15,Jits_Phase_8,1,5,80,127,1774944580
97,19,15,Jits_Phase_8,2,1,48,39,1774945916
97,19,15,Jits_Phase_8,3,5,56,103,1774955068
97,19,15,Jits_Phase_8,0,5,63,98,1775684920
97,19,15,Jits_Phase_8,1,5,56,103,1775704408
97,19,15,Jits_Phase_8,2,1,48,40,1775715244
97,19,15,Jits_Phase_8,3,5,80,127,1775754676
97,19,15,Jits_Phase_8,0,5,80,127,1776484748
97,19,15,Jits_Phase_8,1,1,48,37,1776489516
97,19,15,Jits_Phase_8,2,5,63,98,1776524684
97,19,15,Jits_Phase_8,3,5,56,103,1776545540
97,19,15,Jits_Phase_8,0,1,48,39,1777250916
97,19,15,Jits_Phase_8,1,5,56,103,1777325372
97,19,15,Jits_Phase_8,2,5,63,98,1777334520
97,19,15,Jits_Phase_8,3,5,80,127,1777355336
97,19,15,Jits_Phase_8,0,5,56,103,1778054464
97,19,15,Jits_Phase_8,1,1,48,46,1778076988
97,19,15,Jits_Phase_8,2,5,63,98,1778144616
97,19,15,Jits_Phase_8,3,5,80,127,1778205136
97,19,15,Jits_Phase_8,0,5,80,127,1778885048
97,19,15,Jits_Phase_8,1,5,56,103,1778895248
97,19,15,Jits_Phase_8,2,1,48,38,1778897616
97,19,15,Jits_Phase_8,3,5,63,98,1778964920
97,19,15,Jits_Phase_8,0,1,48,36,1779679320
97,19,15,Jits_Phase_8,1,5,63,98,1779714412
97,19,15,Jits_Phase_8,2,5,80,127,1779804532
97,19,15,Jits_Phase_8,3,5,56,103,1779814876
97,19,15,Jits_Phase_8,0,5,63,98,1780444436
97,19,15,Jits_Phase_8,1,5,80,127,1780494788
97,19,15,Jits_Phase_8,2,1,48,40,1780511764
97,19,15,Jits_Phase_8,3,5,56,103,1780555320
97,19,15,Jits_Phase_8,0,1,48,39,1781251716
97,19,15,Jits_Phase_8,1,5,56,103,1781264716
97,19,15,Jits_Phase_8,2,5,80,127,1781314992
97,19,15,Jits_Phase_8,3,5,63,98,1781335376
97,19,15,Jits_Phase_8,0,5,56,103,1782034736
97,19,15,Jits_Phase_8,1,1,48,36,1782049840
97,19,15,Jits_Phase_8,2,5,80,127,1782095196
97,19,15,Jits_Phase_8,3,5,63,98,1782164708
97,19,15,Jits_Phase_8,0,5,56,103,1782834432
97,19,15,Jits_Phase_8,1,5,80,127,1782865376
97,19,15,Jits_Phase_8,2,1,48,38,1782882196
97,19,15,Jits_Phase_8,3,5,63,98,1782895044
97,19,15,Jits_Phase_8,0,1,48,30,1783650860
97,19,15,Jits_Phase_8,1,5,56,103,1783675392
97,19,15,Jits_Phase_8,2,5,80,127,1783694584
97,19,15,Jits_Phase_8,3,5,63,98,1783755204
97,19,15,Jits_Phase_8,0,1,48,35,1784474832
97,19,15,Jits_Phase_8,1,5,80,127,1784554820
97,19,15,Jits_Phase_8,2,5,56,103,1784565316
97,19,15,Jits_Phase_8,3,5,63,98,1784575348
97,19,15,Jits_Phase_8,0,5,56,103,1785314584
97,19,15,Jits_Phase_8,1,1,48,42,1785343016
97,19,15,Jits_Phase_8,2,5,80,127,1785354516
97,19,15,Jits_Phase_8,3,5,63,98,1785385312
97,19,15,Jits_Phase_8,0,5,56,103,1786084620
97,19,15,Jits_Phase_8,1,5,63,98,1786114444
97,19,15,Jits_Phase_8,2,1,48,44,1786153684
97,19,15,Jits_Phase_8,3,5,80,127,1786155348
97,19,15,Jits_Phase_8,0,5,80,127,1786835240
97,19,15,Jits_Phase_8,1,5,63,98,1786884472
97,19,15,Jits_Phase_8,2,5,56,103,1786905076
97,19,15,Jits_Phase_8,3,1,48,40,1786983412
97,19,15,Jits_Phase_8,0,5,56,103,1787664900
97,19,15,Jits_Phase_8,1,1,48,40,1787699180
97,19,15,Jits_Phase_8,2,5,80,127,1787735400
97,19,15,Jits_Phase_8,3,5,63,98,1787794964
97,19,15,Jits_Phase_8,0,1,48,40,1788455428
97,19,15,Jits_Phase_8,1,5,80,127,1788464592
97,19,15,Jits_Phase_8,2,5,63,98,1788554564
97,19,15,Jits_Phase_8,3,5,56,103,1788574972
97,19,15,Jits_Phase_8,0,1,48,41,1789257432
97,19,15,Jits_Phase_8,1,5,63,98,1789284660
97,19,15,Jits_Phase_8,2,5,56,103,1789305192
97,19,15,Jits_Phase_8,3,5,80,127,1789345156
97,19,15,Jits_Phase_8,0,1,48,42,1790041304
97,19,15,Jits_Phase_8,1,5,80,127,1790044484
97,19,15,Jits_Phase_8,2,5,63,98,1790065240
97,19,15,Jits_Phase_8,3,5,56,103,1790144896
97,19,15,Jits_Phase_8,0,1,48,37,1790816112
97,19,15,Jits_Phase_8,1,5,63,98,1790835020
97,19,15,Jits_Phase_8,2,5,56,103,1790944644
97,19,15,Jits_Phase_8,3,5,80,127,1790947712
97,19,15,Jits_Phase_8,0,5,63,98,1791655252
97,19,15,Jits_Phase_8,1,5,56,103,1791664476
97,19,15,Jits_Phase_8,2,5,80,127,1791667616
97,19,15,Jits_Phase_8,3,1,48,36,1791673448
97,19,15,Jits_Phase_8,0,1,48,40,1792426044
97,19,15,Jits_Phase_8,1,5,56,103,1792434460
97,19,15,Jits_Phase_8,2,5,80,127,1792555520
97,19,15,Jits_Phase_8,3,5,63,98,1792595232
97,19,15,Jits_Phase_8,0,5,56,103,1793255052
97,19,15,Jits_Phase_8,1,1,48,41,1793286116
97,19,15,Jits_Phase_8,2,5,80,127,1793334616
97,19,15,Jits_Phase_8,3,5,63,98,1793355076
97,19,15,Jits_Phase_8,0,5,56,103,1794054376
97,19,15,Jits_Phase_8,1,1,48,40,1794068956
97,19,15,Jits_Phase_8,2,5,63,98,1794165088
97,19,15,Jits_Phase_8,3,5,80,127,1794168452
97,19,15,Jits_Phase_8,0,1,48,38,1794836576
97,19,15,Jits_Phase_8,1,5,56,103,1794895340
97,19,15,Jits_Phase_8,2,5,80,127,1794924864
97,19,15,Jits_Phase_8,3,5,63,98,1794945532
97,19,15,Jits_Phase_8,0,1,48,31,1795663088
97,19,15,Jits_Phase_8,1,5,63,98,1795684684
97,19,15,Jits_Phase_8,2,5,56,103,1795695104
97,19,15,Jits_Phase_8,3,5,80,127,1795705376
97,19,15,Jits_Phase_8,0,1,48,35,1796462224
97,19,15,Jits_Phase_8,1,5,80,127,1796475220
97,19,15,Jits_Phase_8,2,5,56,103,1796525376
97,19,15,Jits_Phase_8,3,5,63,98,1796565372
97,19,15,Jits_Phase_8,0,1,48,40,1797291000
97,19,15,Jits_Phase_8,1,5,80,127,1797294412
97,19,15,Jits_Phase_8,2,5,63,98,1797315092
97,19,15,Jits_Phase_8,3,5,56,103,1797364996
97,19,15,Jits_Phase_8,0,1,48,40,1798085976
97,19,15,Jits_Phase_8,1,5,80,127,1798104356
97,19,15,Jits_Phase_8,2,5,56,103,1798135080
97,19,15,Jits_Phase_8,3,5,63,98,1798205040
97,19,15,Jits_Phase_8,0,1,48,43,1798935708
97,19,15,Jits_Phase_8,1,5,56,103,1798955436
97,19,15,Jits_Phase_8,2,5,80,127,1798964660
97,19,15,Jits_Phase_8,3,5,63,98,1799004672
97,19,15,Jits_Phase_8,0,5,56,103,1799665152
97,19,15,Jits_Phase_8,1,5,63,98,1799684416
97,19,15,Jits_Phase_8,2,5,80,127,1799755064
97,19,15,Jits_Phase_8,3,1,48,39,1799764260
97,19,15,Jits_Phase_8,0,1,48,39,1800485448
97,19,15,Jits_Phase_8,1,5,63,98,1800486856
97,19,15,Jits_Phase_8,2,5,80,127,1800544712
97,19,15,Jits_Phase_8,3,5,56,103,1800565096
97,19,15,Jits_Phase_8,0,5,80,127,1801275088
97,19,15,Jits_Phase_8,1,1,48,36,1801279480
97,19,15,Jits_Phase_8,2,5,56,103,1801304460
97,19,15,Jits_Phase_8,3,5,63,98,1801335108
97,19,15,Jits_Phase_8,0,1,48,32,1802032112
97,19,15,Jits_Phase_8,1,5,56,103,1802074332
97,19,15,Jits_Phase_8,2,5,63,98,1802135008
97,19,15,Jits_Phase_8,3,5,80,127,1802195272
97,19,15,Jits_Phase_8,0,1,48,35,1802893340
97,19,15,Jits_Phase_8,1,5,80,127,1802894916
97,19,15,Jits_Phase_8,2,5,56,103,1802915252
97,19,15,Jits_Phase_8,3,5,63,98,1802984928
97,19,15,Jits_Phase_8,0,1,48,29,1803673900
97,19,15,Jits_Phase_8,1,5,80,127,1803694400
97,19,15,Jits_Phase_8,2,5,63,98,1803715008
97,19,15,Jits_Phase_8,3,5,56,103,1803744608
97,19,15,Jits_Phase_8,0,1,48,27,1804469920
97,19,15,Jits_Phase_8,1,5,80,127,1804485160
97,19,15,Jits_Phase_8,2,5,63,98,1804504352
97,19,15,Jits_Phase_8,3,5,56,103,1804564888
97,19,15,Jits_Phase_8,0,5,80,127,1805284996
97,19,15,Jits_Phase_8,1,1,48,29,1805290136
97,19,15,Jits_Phase_8,2,5,56,103,1805385016
97,19,15,Jits_Phase_8,3,5,63,98,1805414900
97,19,15,Jits_Phase_8,0,5,63,98,1806075112
97,19,15,Jits_Phase_8,1,1,48,32,1806097260
97,19,15,Jits_Phase_8,2,5,80,127,1806125384
97,19,15,Jits_Phase_8,3,5,56,103,1806145092
97,19,15,Jits_Phase_8,0,1,48,29,1806802744
97,19,15,Jits_Phase_8,1,5,80,127,1806914928
97,19,15,Jits_Phase_8,2,5,56,103,1806944752
97,19,15,Jits_Phase_8,3,5,63,98,1806947668
97,19,15,Jits_Phase_8,0,1,48,40,1807686872
97,19,15,Jits_Phase_8,1,5,63,98,1807764816
97,19,15,Jits_Phase_8,2,5,56,103,1807804764
97,19,15,Jits_Phase_8,3,5,80,127,1807825372
97,19,15,Jits_Phase_8,0,5,80,127,1808524876
97,19,15,Jits_Phase_8,1,1,48,40,1808574552
97,19,15,Jits_Phase_8,2,5,63,98,1808604616
97,19,15,Jits_Phase_8,3,5,56,103,1808644476
97,19,15,Jits_Phase_8,0,5,63,98,1809344980
97,19,15,Jits_Phase_8,1,1,48,29,1809384664
97,19,15,Jits_Phase_8,2,5,80,127,1809424696
97,19,15,Jits_Phase_8,3,5,56,103,1809445228
97,19,15,Jits_Phase_8,0,5,56,103,1810184748
97,19,15,Jits_Phase_8,1,5,63,98,1810194872
97,19,15,Jits_Phase_8,2,1,48,31,1810200688
97,19,15,Jits_Phase_8,3,5,80,127,1810234728
97,19,15,Jits_Phase_8,0,5,56,103,1810904360
97,19,15,Jits_Phase_8,1,5,80,127,1810907576
97,19,15,Jits_Phase_8,2,1,48,28,1810993488
97,19,15,Jits_Phase_8,3,5,63,98,1811044900
97,19,15,Jits_Phase_8,0,5,56,103,1811694828
97,19,15,Jits_Phase_8,1,1,48,32,1811727544
97,19,15,Jits_Phase_8,2,5,63,98,1811785032
97,19,15,Jits_Phase_8,3,5,80,127,1811854916
97,19,15,Jits_Phase_8,0,1,48,33,1812493000
97,19,15,Jits_Phase_8,1,5,63,98,1812574612
97,19,15,Jits_Phase_8,2,5,80,127,1812577900
97,19,15,Jits_Phase_8,3,5,56,103,1812634912
97,19,15,Jits_Phase_8,0,1,48,30,1813359700
97,19,15,Jits_Phase_8,1,5,80,127,1813415344
97,19,15,Jits_Phase_8,2,5,56,103,1813434756
97,19,15,Jits_Phase_8,3,5,63,98,1813444880
97,19,15,Jits_Phase_8,0,5,56,103,1814124816
97,19,15,Jits_Phase_8,1,5,63,98,1814135012
97,19,15,Jits_Phase_8,2,1,48,27,1814195244
97,19,15,Jits_Phase_8,3,5,80,127,1814204780
97,19,15,Jits_Phase_8,0,1,48,34,1814899748
97,19,15,Jits_Phase_8,1,5,80,127,1814924796
97,19,15,Jits_Phase_8,2,5,56,103,1814974800
97,19,15,Jits_Phase_8,3,5,63,98,1815024988
97,19,15,Jits_Phase_8,0,1,48,31,1815724260
97,19,15,Jits_Phase_8,1,5,56,103,1815805420
97,19,15,Jits_Phase_8,2,5,63,98,1815814644
97,19,15,Jits_Phase_8,3,5,80,127,1815854640
97,19,15,Jits_Phase_8,0,1,48,27,1816529488
97,19,15,Jits_Phase_8,1,5,56,103,1816544876
97,19,15,Jits_Phase_8,2,5,63,98,1816584664
97,19,15,Jits_Phase_8,3,5,80,127,1816634628
97,19,15,Jits_Phase_8,0,1,48,33,1817283780
97,19,15,Jits_Phase_8,1,5,80,127,1817304628
97,19,15,Jits_Phase_8,2,5,56,103,1817354828
97,19,15,Jits_Phase_8,3,5,63,98,1817375064
97,19,15,Jits_Phase_8,0,1,48,32,1818074244
97,19,15,Jits_Phase_8,1,5,80,127,1818114348
97,19,15,Jits_Phase_8,2,5,63,98,1818174948
97,19,15,Jits_Phase_8,3,5,56,103,1818254740
97,19,15,Jits_Phase_8,0,5,80,127,1818894632
97,19,15,Jits_Phase_8,1,1,48,31,1818930192
97,19,15,Jits_Phase_8,2,5,56,103,1818934564
97,19,15,Jits_Phase_8,3,5,63,98,1818955172
97,19,15,Jits_Phase_8,0,1,48,26,1819715344
97,19,15,Jits_Phase_8,1,5,56,103,1819744816
97,19,15,Jits_Phase_8,2,5,80,127,1819754936
97,19,15,Jits_Phase_8,3,5,63,98,1819794876
97,19,15,Jits_Phase_8,0,1,48,26,1820512712
97,19,15,Jits_Phase_8,1,5,56,103,1820615156
97,19,15,Jits_Phase_8,2,5,63,98,1820655020
97,19,15,Jits_Phase_8,3,5,80,127,1820658532
97,19,15,Jits_Phase_8,0,5,63,98,1821284700
97,19,15,Jits_Phase_8,1,5,80,127,1821324640
97,19,15,Jits_Phase_8,2,1,48,32,1821366592
97,19,15,Jits_Phase_8,3,5,56,103,1821395604
97,19,15,Jits_Phase_8,0,5,63,98,1822054792
97,19,15,Jits_Phase_8,1,5,56,103,1822134612
97,19,15,Jits_Phase_8,2,1,48,33,1822145752
97,19,15,Jits_Phase_8,3,5,80,127,1822194920
97,19,15,Jits_Phase_8,0,1,48,36,1822847916
97,19,15,Jits_Phase_8,1,5,80,127,1822864732
97,19,15,Jits_Phase_8,2,5,63,98,1822914960
97,19,15,Jits_Phase_8,3,5,56,103,1822944560
97,19,15,Jits_Phase_8,0,5,56,103,1823655376
97,19,15,Jits_Phase_8,1,1,48,33,1823658868
97,19,15,Jits_Phase_8,2,5,63,98,1823704452
97,19,15,Jits_Phase_8,3,5,80,127,1823714648
97,19,15,Jits_Phase_8,0,1,48,38,1824431504
97,19,15,Jits_Phase_8,1,5,56,103,1824465400
97,19,15,Jits_Phase_8,2,5,63,98,1824574852
97,19,15,Jits_Phase_8,3,5,80,127,1824595236
97,19,15,Jits_Phase_8,0,1,48,38,1825254728
97,19,15,Jits_Phase_8,1,5,63,98,1825264864
97,19,15,Jits_Phase_8,2,5,80,127,1825315140
97,19,15,Jits_Phase_8,3,5,56,103,1825405480
97,19,15,Jits_Phase_8,0,5,63,98,1826054660
97,19,15,Jits_Phase_8,1,5,80,127,1826085236
97,19,15,Jits_Phase_8,2,1,48,38,1826093084
97,19,15,Jits_Phase_8,3,5,56,103,1826175432
97,19,15,Jits_Phase_8,0,1,48,36,1826848532
97,19,15,Jits_Phase_8,1,5,63,98,1826855380
97,19,15,Jits_Phase_8,2,5,56,103,1826864752
97,19,15,Jits_Phase_8,3,5,80,127,1826964832
97,19,15,Jits_Phase_8,0,1,48,28,1827630748
97,19,15,Jits_Phase_8,1,5,63,98,1827755460
97,19,15,Jits_Phase_8,2,5,80,127,1827785136
97,19,15,Jits_Phase_8,3,5,56,103,1827814664
97,19,15,Jits_Phase_8,0,1,48,33,1828526600
97,19,15,Jits_Phase_8,1,5,80,127,1828574652
97,19,15,Jits_Phase_8,2,5,63,98,1828584920
97,19,15,Jits_Phase_8,3,5,56,103,1828614748
97,19,15,Jits_Phase_8,0,5,80,127,1829274900
97,19,15,Jits_Phase_8,1,1,48,33,1829292292
97,19,15,Jits_Phase_8,2,5,63,98,1829294480
97,19,15,Jits_Phase_8,3,5,56,103,1829344608
97,19,15,Jits_Phase_8,0,1,48,36,1830012588
97,19,15,Jits_Phase_8,1,5,63,98,1830104508
97,19,15,Jits_Phase_8,2,5,80,127,1830164884
97,19,15,Jits_Phase_8,3,5,56,103,1830185268
97,19,15,Jits_Phase_8,0,1,48,36,1830823408
97,19,15,Jits_Phase_8,1,5,63,98,1830865232
97,19,15,Jits_Phase_8,2,5,56,103,1830914672
97,19,15,Jits_Phase_8,3,5,80,127,1830924792
97,19,15,Jits_Phase_8,0,1,48,39,1831630192
97,19,15,Jits_Phase_8,1,5,56,103,1831694656
97,19,15,Jits_Phase_8,2,5,80,127,1831704928
97,19,15,Jits_Phase_8,3,5,63,98,1831805528
97,19,15,Jits_Phase_8,0,1,48,38,1832432812
97,19,15,Jits_Phase_8,1,5,80,127,1832454408
97,19,15,Jits_Phase_8,2,5,63,98,1832464680
97,19,15,Jits_Phase_8,3,5,56,103,1832615496
97,19,15,Jits_Phase_8,0,5,63,98,1833264508
97,19,15,Jits_Phase_8,1,1,48,40,1833291972
97,19,15,Jits_Phase_8,2,5,80,127,1833304440
97,19,15,Jits_Phase_8,3,5,56,103,1833385452
97,19,15,Jits_Phase_8,0,5,56,103,1834015040
97,19,15,Jits_Phase_8,1,5,80,127,1834114392
97,19,15,Jits_Phase_8,2,1,48,43,1834115656
97,19,15,Jits_Phase_8,3,5,63,98,1834134844
97,19,15,Jits_Phase_8,0,5,80,127,1834835496
97,19,15,Jits_Phase_8,1,5,56,103,1834844500
97,19,15,Jits_Phase_8,2,1,48,41,1834868820
97,19,15,Jits_Phase_8,3,5,63,98,1834934648
97,19,15,Jits_Phase_8,0,5,56,103,1835634980
97,19,15,Jits_Phase_8,1,5,63,98,1835654540
97,19,15,Jits_Phase_8,2,1,48,35,1835680528
97,19,15,Jits_Phase_8,3,5,80,127,1835735548
97,19,15,Jits_Phase_8,0,5,63,98,1836384708
97,19,15,Jits_Phase_8,1,1,48,35,1836396672
97,19,15,Jits_Phase_8,2,5,56,103,1836474784
97,19,15,Jits_Phase_8,3,5,80,127,1836477852
97,19,15,Jits_Phase_8,0,1,48,34,1837191904
97,19,15,Jits_Phase_8,1,5,56,103,1837215340
97,19,15,Jits_Phase_8,2,5,80,127,1837274608
97,19,15,Jits_Phase_8,3,5,63,98,1837284732
97,19,15,Jits_Phase_8,0,1,48,39,1837958628
97,19,15,Jits_Phase_8,1,5,80,127,1838065132
97,19,15,Jits_Phase_8,2,5,56,103,1838075400
97,19,15,Jits_Phase_8,3,5,63,98,1838078392
97,19,15,Jits_Phase_8,0,5,56,103,1838824896
97,19,15,Jits_Phase_8,1,5,80,127,1838835164
97,19,15,Jits_Phase_8,2,1,48,36,1838850496
97,19,15,Jits_Phase_8,3,5,63,98,1838854644
97,19,15,Jits_Phase_8,0,5,63,98,1839594844
97,19,15,Jits_Phase_8,1,1,48,37,1839610764
97,19,15,Jits_Phase_8,2,5,80,127,1839655524
97,19,15,Jits_Phase_8,3,5,56,103,1839704440
97,19,15,Jits_Phase_8,0,1,48,34,1840392852
97,19,15,Jits_Phase_8,1,5,63,98,1840474464
97,19,15,Jits_Phase_8,2,5,56,103,1840485692
97,19,15,Jits_Phase_8,3,5,80,127,1840534848
97,19,15,Jits_Phase_8,0,5,63,98,1841174888
97,19,15,Jits_Phase_8,1,1,48,35,1841180176
97,19,15,Jits_Phase_8,2,5,80,127,1841195416
97,19,15,Jits_Phase_8,3,5,56,103,1841204564
97,19,15,Jits_Phase_8,0,1,48,36,1841948376
97,19,15,Jits_Phase_8,1,5,63,98,1841974628
97,19,15,Jits_Phase_8,2,5,80,127,1841978216
97,19,15,Jits_Phase_8,3,5,56,103,1842014568
97,19,15,Jits_Phase_8,0,1,48,40,1842749164
97,19,15,Jits_Phase_8,1,5,63,98,1842845256
97,19,15,Jits_Phase_8,2,5,80,127,1842874708
97,19,15,Jits_Phase_8,3,5,56,103,1842884828
97,19,15,Jits_Phase_8,0,5,56,103,1843594668
97,19,15,Jits_Phase_8,1,5,80,127,1843625340
97,19,15,Jits_Phase_8,2,1,48,37,1843626976
97,19,15,Jits_Phase_8,3,5,63,98,1843655232
97,19,15,Jits_Phase_8,0,1,48,42,1844358060
97,19,15,Jits_Phase_8,1,5,63,98,1844494684
97,19,15,Jits_Phase_8,2,5,56,103,1844534696
97,19,15,Jits_Phase_8,3,5,80,127,1844537836
97,19,15,Jits_Phase_8,0,5,80,127,1845195340
97,19,15,Jits_Phase_8,1,5,56,103,1845275212
97,19,15,Jits_Phase_8,2,1,48,39,1845287320
97,19,15,Jits_Phase_8,3,5,63,98,1845325328
97,19,15,Jits_Phase_8,0,5,80,127,1845975552
97,19,15,Jits_Phase_8,1,5,56,103,1845994740
97,19,15,Jits_Phase_8,2,1,48,33,1846069404
97,19,15,Jits_Phase_8,3,5,63,98,1846085088
97,19,15,Jits_Phase_8,0,1,48,33,1846812660
97,19,15,Jits_Phase_8,1,5,80,127,1846815172
97,19,15,Jits_Phase_8,2,5,63,98,1846855260
97,19,15,Jits_Phase_8,3,5,56,103,1846895120
97,19,15,Jits_Phase_8,0,1,48,37,1847599320
97,19,15,Jits_Phase_8,1,5,63,98,1847625344
97,19,15,Jits_Phase_8,2,5,80,127,1847684316
97,19,15,Jits_Phase_8,3,5,56,103,1847715268
97,19,15,Jits_Phase_8,0,1,48,34,1848451284
97,19,15,Jits_Phase_8,1,5,56,103,1848464728
97,19,15,Jits_Phase_8,2,5,80,127,1848494576
97,19,15,Jits_Phase_8,3,5,63,98,1848584472
97,19,15,Jits_Phase_8,0,5,56,103,1849274700
97,19,15,Jits_Phase_8,1,1,48,36,1849334388
97,19,15,Jits_Phase_8,2,5,80,127,1849385208
97,19,15,Jits_Phase_8,3,5,63,98,1849415104
97,19,15,Jits_Phase_8,0,5,56,103,1850124604
97,19,15,Jits_Phase_8,1,5,63,98,1850185292
97,19,15,Jits_Phase_8,2,1,48,43,1850191476
97,19,15,Jits_Phase_8,3,5,80,127,1850214736
97,19,15,Jits_Phase_8,0,5,56,103,1850894636
97,19,15,Jits_Phase_8,1,5,63,98,1850965364
97,19,15,Jits_Phase_8,2,5,80,127,1850984852
97,19,15,Jits_Phase_8,3,1,48,39,1850994340
97,19,15,Jits_Phase_8,0,5,80,127,1851664664
97,19,15,Jits_Phase_8,1,5,63,98,1851685272
97,19,15,Jits_Phase_8,2,5,56,103,1851735400
97,19,15,Jits_Phase_8,3,1,48,39,1851763544
97,19,15,Jits_Phase_8,0,5,63,98,1852485252
97,19,15,Jits_Phase_8,1,5,80,127,1852495376
97,19,15,Jits_Phase_8,2,1,48,38,1852506888
97,19,15,Jits_Phase_8,3,5,56,103,1852545348
97,19,15,Jits_Phase_8,0,5,63,98,1853284712
97,19,15,Jits_Phase_8,1,1,48,39,1853296372
97,19,15,Jits_Phase_8,2,5,80,127,1853355308
97,19,15,Jits_Phase_8,3,5,56,103,1853375240
97,19,15,Jits_Phase_8,0,5,63,98,1854115212
97,19,15,Jits_Phase_8,1,1,48,42,1854118872
97,19,15,Jits_Phase_8,2,5,80,127,1854120072
97,19,15,Jits_Phase_8,3,5,56,103,1854185108
97,19,15,Jits_Phase_8,0,5,80,127,1854864892
97,19,15,Jits_Phase_8,1,5,56,103,1854885304
97,19,15,Jits_Phase_8,2,5,63,98,1854894452
97,19,15,Jits_Phase_8,3,1,48,33,1854906036
97,19,15,Jits_Phase_8,0,1,48,37,1855608804
97,19,15,Jits_Phase_8,1,5,56,103,1855685128
97,19,15,Jits_Phase_8,2,5,63,98,1855775100
97,19,15,Jits_Phase_8,3,5,80,127,1855778464
97,19,15,Jits_Phase_8,0,1,48,38,1856409152
97,19,15,Jits_Phase_8,1,5,80,127,1856455060
97,19,15,Jits_Phase_8,2,5,56,103,1856465256
97,19,15,Jits_Phase_8,3,5,63,98,1856484668
97,19,15,Jits_Phase_8,0,1,48,39,1857136828
97,19,15,Jits_Phase_8,1,5,63,98,1857254792
97,19,15,Jits_Phase_8,2,5,80,127,1857315256
97,19,15,Jits_Phase_8,3,5,56,103,1857325528
97,19,15,Jits_Phase_8,0,1,48,36,1857961544
97,19,15,Jits_Phase_8,1,5,63,98,1858125196
97,19,15,Jits_Phase_8,2,5,80,127,1858154872
97,19,15,Jits_Phase_8,3,5,56,103,1858195032
97,19,15,Jits_Phase_8,0,5,56,103,1858914636
97,19,15,Jits_Phase_8,1,5,80,127,1858924908
97,19,15,Jits_Phase_8,2,5,63,98,1858964844
97,19,15,Jits_Phase_8,3,1,48,39,1858982216
97,19,15,Jits_Phase_8,0,5,80,127,1859674552
97,19,15,Jits_Phase_8,1,1,48,39,1859727040
97,19,15,Jits_Phase_8,2,5,56,103,1859755340
97,19,15,Jits_Phase_8,3,5,63,98,1859764784
97,19,15,Jits_Phase_8,0,5,80,127,1860525372
97,19,15,Jits_Phase_8,1,1,48,31,1860547600
97,19,15,Jits_Phase_8,2,5,56,103,1860605236
97,19,15,Jits_Phase_8,3,5,63,98,1860614536
97,19,15,Jits_Phase_8,0,1,48,32,1861332528
97,19,15,Jits_Phase_8,1,5,80,127,1861365080
97,19,15,Jits_Phase_8,2,5,56,103,1861415284
97,19,15,Jits_Phase_8,3,5,63,98,1861464348
97,19,15,Jits_Phase_8,0,1,48,34,1862176564
97,19,15,Jits_Phase_8,1,5,56,103,1862305240
97,19,15,Jits_Phase_8,2,5,63,98,1862308232
97,19,15,Jits_Phase_8,3,5,80,127,1862355216
97,19,15,Jits_Phase_8,0,1,48,41,1863073744
97,19,15,Jits_Phase_8,1,5,56,103,1863125312
97,19,15,Jits_Phase_8,2,5,63,98,1863155064
97,19,15,Jits_Phase_8,3,5,80,127,1863166216
97,19,15,Jits_Phase_8,0,5,63,98,1863835176
97,19,15,Jits_Phase_8,1,5,56,103,1863904560
97,19,15,Jits_Phase_8,2,5,80,127,1863954984
97,19,15,Jits_Phase_8,3,1,48,38,1863957424
97,19,15,Jits_Phase_8,0,5,63,98,1864664308
97,19,15,Jits_Phase_8,1,5,56,103,1864674800
97,19,15,Jits_Phase_8,2,5,80,127,1864677792
97,19,15,Jits_Phase_8,3,1,48,34,1864726764
97,19,15,Jits_Phase_8,0,5,80,127,1865414972
97,19,15,Jits_Phase_8,1,5,56,103,1865474392
97,19,15,Jits_Phase_8,2,1,48,40,1865475880
97,19,15,Jits_Phase_8,3,5,63,98,1865564516
97,19,15,Jits_Phase_8,0,5,80,127,1866215116
97,19,15,Jits_Phase_8,1,1,48,36,1866274960
97,19,15,Jits_Phase_8,2,5,56,103,1866315060
97,19,15,Jits_Phase_8,3,5,63,98,1866355076
97,19,15,Jits_Phase_8,0,5,56,103,1867064792
97,19,15,Jits_Phase_8,1,5,63,98,1867085104
97,19,15,Jits_Phase_8,2,1,48,33,1867086068
97,19,15,Jits_Phase_8,3,5,80,127,1867125036
97,19,15,Jits_Phase_8,0,5,63,98,1867834972
97,19,15,Jits_Phase_8,1,5,56,103,1867855356
97,19,15,Jits_Phase_8,2,1,48,37,1867888968
97,19,15,Jits_Phase_8,3,5,80,127,1867954644
97,19,15,Jits_Phase_8,0,5,63,98,1868625140
97,19,15,Jits_Phase_8,1,1,48,36,1868651928
97,19,15,Jits_Phase_8,2,1,48,23,1868707076
97,19,15,Jits_Phase_8,3,5,80,127,1868734824
97,19,15,Jits_Phase_8,4,5,56,103,1868764648
97,19,15,Jits_Phase_8,0,5,56,103,1869444336
97,19,15,Jits_Phase_8,1,5,63,98,1869475156
97,19,15,Jits_Phase_8,2,1,48,31,1869487864
97,19,15,Jits_Phase_8,3,5,80,127,1869525276
97,19,15,Jits_Phase_8,0,5,63,98,1870214440
97,19,15,Jits_Phase_8,1,5,56,103,1870245112
97,19,15,Jits_Phase_8,2,1,48,34,1870262008
97,19,15,Jits_Phase_8,3,5,80,127,1870295304
97,19,15,Jits_Phase_8,0,1,48,29,1871026616
97,19,15,Jits_Phase_8,1,5,56,103,1871044924
97,19,15,Jits_Phase_8,2,5,63,98,1871064336
97,19,15,Jits_Phase_8,3,5,80,127,1871145384
97,19,15,Jits_Phase_8,0,1,48,37,1871803376
97,19,15,Jits_Phase_8,1,5,63,98,1871815012
97,19,15,Jits_Phase_8,2,1,48,24,1871857596
97,19,15,Jits_Phase_8,3,5,56,103,1871874412
97,19,15,Jits_Phase_8,4,5,80,127,1871905204
97,19,15,Jits_Phase_8,0,1,48,39,1872629156
97,19,15,Jits_Phase_8,1,5,56,103,1872654880
97,19,15,Jits_Phase_8,2,5,80,127,1872715048
97,19,15,Jits_Phase_8,3,5,63,98,1872755120
97,19,15,Jits_Phase_8,0,5,63,98,1873434872
97,19,15,Jits_Phase_8,1,5,56,103,1873495412
97,19,15,Jits_Phase_8,2,1,48,36,1873505356
97,19,15,Jits_Phase_8,3,5,80,127,1873565036
97,19,15,Jits_Phase_8,0,1,48,35,1874307572
97,19,15,Jits_Phase_8,1,5,56,103,1874314568
97,19,15,Jits_Phase_8,2,5,63,98,1874324984
97,19,15,Jits_Phase_8,3,5,80,127,1874328200
97,19,15,Jits_Phase_8,0,5,63,98,1875054964
97,19,15,Jits_Phase_8,1,5,56,103,1875115304
97,19,15,Jits_Phase_8,2,5,80,127,1875118300
97,19,15,Jits_Phase_8,3,1,48,38,1875152500
97,19,15,Jits_Phase_8,0,5,63,98,1875835160
97,19,15,Jits_Phase_8,1,5,80,127,1875864908
97,19,15,Jits_Phase_8,2,5,56,103,1875885392
97,19,15,Jits_Phase_8,3,1,48,29,1875925816
97,19,15,Jits_Phase_8,0,5,56,103,1876565460
97,19,15,Jits_Phase_8,1,5,63,98,1876614616
97,19,15,Jits_Phase_8,2,1,48,29,1876624784
97,19,15,Jits_Phase_8,3,5,80,127,1876695324
97,19,15,Jits_Phase_8,0,5,80,127,1877264704
97,19,15,Jits_Phase_8,1,5,63,98,1877304792
97,19,15,Jits_Phase_8,2,5,56,103,1877325028
97,19,15,Jits_Phase_8,3,1,48,39,1877377960
97,19,15,Jits_Phase_8,4,1,48,19,1877456104
97,19,15,Jits_Phase_8,0,1,48,30,1878004236
97,19,15,Jits_Phase_8,1,5,56,103,1878135136
97,19,15,Jits_Phase_8,2,5,80,127,1878145332
97,19,15,Jits_Phase_8,3,5,63,98,1878164892
97,19,15,Jits_Phase_8,0,1,48,34,1878851260
97,19,15,Jits_Phase_8,1,5,56,103,1878914380
97,19,15,Jits_Phase_8,2,5,63,98,1878964744
97,19,15,Jits_Phase_8,3,5,80,127,1878995240
97,19,15,Jits_Phase_8,0,5,56,103,1879665076
97,19,15,Jits_Phase_8,1,5,63,98,1879675348
97,19,15,Jits_Phase_8,2,1,48,28,1879709504
97,19,15,Jits_Phase_8,3,5,80,127,1879725640
97,19,15,Jits_Phase_8,0,1,48,38,1880421268
97,19,15,Jits_Phase_8,1,5,56,103,1880454492
97,19,15,Jits_Phase_8,2,5,80,127,1880457636
97,19,15,Jits_Phase_8,3,5,63,98,1880615208
97,19,15,Jits_Phase_8,0,5,63,98,1881274880
97,19,15,Jits_Phase_8,1,1,48,41,1881297032
97,19,15,Jits_Phase_8,2,5,56,103,1881345600
97,19,15,Jits_Phase_8,3,5,80,127,1881385316
97,19,15,Jits_Phase_8,0,1,48,32,1882019756
97,19,15,Jits_Phase_8,1,5,63,98,1882114344
97,19,15,Jits_Phase_8,2,5,56,103,1882204608
97,19,15,Jits_Phase_8,3,5,80,127,1882207600
97,19,15,Jits_Phase_8,0,1,48,40,1882868660
97,19,15,Jits_Phase_8,1,5,56,103,1882894616
97,19,15,Jits_Phase_8,2,5,63,98,1882984812
97,19,15,Jits_Phase_8,3,5,80,127,1882995008
97,19,15,Jits_Phase_8,0,5,56,103,1883664792
97,19,15,Jits_Phase_8,1,1,48,37,1883697656
97,19,15,Jits_Phase_8,2,5,63,98,1883714988
97,19,15,Jits_Phase_8,3,5,80,127,1883744736
97,19,15,Jits_Phase_8,0,1,48,30,1884508656
97,19,15,Jits_Phase_8,1,5,63,98,1884545472
97,19,15,Jits_Phase_8,2,5,80,127,1884554768
97,19,15,Jits_Phase_8,3,5,56,103,1884614944
97,19,15,Jits_Phase_8,0,5,63,98,1885265148
97,19,15,Jits_Phase_8,1,5,80,127,1885324640
97,19,15,Jits_Phase_8,2,5,56,103,1885364828
97,19,15,Jits_Phase_8,3,1,48,41,1885398140
97,19,15,Jits_Phase_8,0,1,48,43,1886145668
97,19,15,Jits_Phase_8,1,5,56,103,1886165320
97,19,15,Jits_Phase_8,2,5,80,127,1886184804
97,19,15,Jits_Phase_8,3,5,63,98,1886205188
97,19,15,Jits_Phase_8,0,5,63,98,1886885148
97,19,15,Jits_Phase_8,1,5,56,103,1886904636
97,19,15,Jits_Phase_8,2,5,80,127,1886944648
97,19,15,Jits_Phase_8,3,1,48,40,1886948440
97,19,15,Jits_Phase_8,0,1,48,38,1887683680
97,19,15,Jits_Phase_8,1,5,63,98,1887695088
97,19,15,Jits_Phase_8,2,5,80,127,1887724912
97,19,15,Jits_Phase_8,3,5,56,103,1887745592
97,19,15,Jits_Phase_8,0,5,80,127,1888465476
97,19,15,Jits_Phase_8,1,1,48,40,1888504116
97,19,15,Jits_Phase_8,2,5,56,103,1888514404
97,19,15,Jits_Phase_8,3,5,63,98,1888574940
97,19,15,Jits_Phase_8,0,5,63,98,1889254760
97,19,15,Jits_Phase_8,1,1,48,26,1889309796
97,19,15,Jits_Phase_8,2,5,56,103,1889374704
97,19,15,Jits_Phase_8,3,5,80,127,1889405408
97,19,15,Jits_Phase_8,0,1,48,32,1890089840
97,19,15,Jits_Phase_8,1,5,80,127,1890094668
97,19,15,Jits_Phase_8,2,5,63,98,1890114828
97,19,15,Jits_Phase_8,3,5,56,103,1890185764
97,19,15,Jits_Phase_8,0,1,48,34,1890911400
97,19,15,Jits_Phase_8,1,5,63,98,1890914652
97,19,15,Jits_Phase_8,2,5,56,103,1890924848
97,19,15,Jits_Phase_8,3,5,80,127,1891004816
97,19,15,Jits_Phase_8,0,1,48,36,1891755620
97,19,15,Jits_Phase_8,1,5,56,103,1891774900
97,19,15,Jits_Phase_8,2,5,80,127,1891804728
97,19,15,Jits_Phase_8,3,5,63,98,1891814700
97,19,15,Jits_Phase_8,0,9999,9999,9999,1756932184
97,19,15,Jits_Phase_8,1,9999,9999,9999,1757732928
97,19,15,Jits_Phase_8,2,9999,9999,9999,1758532704
97,19,15,Jits_Phase_8,3,9999,9999,9999,1759332476
97,19,15,Jits_Phase_8,4,9999,9999,9999,1760132168
97,19,15,Jits_Phase_8,5,9999,9999,9999,1760932928
97,19,15,Jits_Phase_8,6,9999,9999,9999,1761732684
97,19,15,Jits_Phase_8,7,9999,9999,9999,1762532444
97,19,15,Jits_Phase_8,8,9999,9999,9999,1763332204
97,19,15,Jits_Phase_8,9,9999,9999,9999,1764132924
97,19,15,Jits_Phase_8,10,9999,9999,9999,1764932700
97,19,15,Jits_Phase_8,11,9999,9999,9999,1765732460
97,19,15,Jits_Phase_8,12,9999,9999,9999,1766532220
97,19,15,Jits_Phase_8,13,9999,9999,9999,1767332984
97,19,15,Jits_Phase_8,14,9999,9999,9999,1768132728
97,19,15,Jits_Phase_8,15,9999,9999,9999,1768932416
97,19,15,Jits_Phase_8,16,9999,9999,9999,1769732160
97,19,15,Jits_Phase_8,17,9999,9999,9999,1770532984
97,19,15,Jits_Phase_8,18,9999,9999,9999,1771332668
97,19,15,Jits_Phase_8,19,9999,9999,9999,1772132428
97,19,15,Jits_Phase_8,20,9999,9999,9999,1772932184
97,19,15,Jits_Phase_8,21,9999,9999,9999,1773732940
97,19,15,Jits_Phase_8,22,9999,9999,9999,1774532704
97,19,15,Jits_Phase_8,23,9999,9999,9999,1775332476
97,19,15,Jits_Phase_8,24,9999,9999,9999,1776132156
97,19,15,Jits_Phase_8,25,9999,9999,9999,1776932960
97,19,15,Jits_Phase_8,26,9999,9999,9999,1777732732
97,19,15,Jits_Phase_8,27,9999,9999,9999,1778532420
97,19,15,Jits_Phase_8,28,9999,9999,9999,1779332188
97,19,15,Jits_Phase_8,29,9999,9999,9999,1780132968
97,19,15,Jits_Phase_8,30,9999,9999,9999,1780912200
97,19,15,Jits_Phase_8,31,9999,9999,9999,1781713008
97,19,15,Jits_Phase_8,32,9999,9999,9999,1782512764
97,19,15,Jits_Phase_8,33,9999,9999,9999,1783312456
97,19,15,Jits_Phase_8,34,9999,9999,9999,1784112228
97,19,15,Jits_Phase_8,35,9999,9999,9999,1784912964
97,19,15,Jits_Phase_8,36,9999,9999,9999,1785712728
97,19,15,Jits_Phase_8,37,9999,9999,9999,1786512500
97,19,15,Jits_Phase_8,38,9999,9999,9999,1787312220
97,19,15,Jits_Phase_8,39,9999,9999,9999,1788112964
97,19,15,Jits_Phase_8,40,9999,9999,9999,1788912740
97,19,15,Jits_Phase_8,41,9999,9999,9999,1789712500
97,19,15,Jits_Phase_8,42,9999,9999,9999,1790512252
97,19,15,Jits_Phase_8,43,9999,9999,9999,1791312976
97,19,15,Jits_Phase_8,44,9999,9999,9999,1792112716
97,19,15,Jits_Phase_8,45,9999,9999,9999,1792912476
97,19,15,Jits_Phase_8,46,9999,9999,9999,1793712184
97,19,15,Jits_Phase_8,47,9999,9999,9999,1794512992
97,19,15,Jits_Phase_8,48,9999,9999,9999,1795332172
97,19,15,Jits_Phase_8,49,9999,9999,9999,1796132972
97,19,15,Jits_Phase_8,50,9999,9999,9999,1796932732
97,19,15,Jits_Phase_8,51,9999,9999,9999,1797732412
97,19,15,Jits_Phase_8,52,9999,9999,9999,1798532172
97,19,15,Jits_Phase_8,53,9999,9999,9999,1799332936
97,19,15,Jits_Phase_8,54,9999,9999,9999,1800132692
97,19,15,Jits_Phase_8,55,9999,9999,9999,1800932464
97,19,15,Jits_Phase_8,56,9999,9999,9999,1801732220
97,19,15,Jits_Phase_8,57,9999,9999,9999,1802532964
97,19,15,Jits_Phase_8,58,9999,9999,9999,1803332720
97,19,15,Jits_Phase_8,59,9999,9999,9999,1804132476
97,19,15,Jits_Phase_8,60,9999,9999,9999,1804932156
97,19,15,Jits_Phase_8,61,9999,9999,9999,1805732920
97,19,15,Jits_Phase_8,62,9999,9999,9999,1806532688
97,19,15,Jits_Phase_8,63,9999,9999,9999,1807332436
97,19,15,Jits_Phase_8,64,9999,9999,9999,1808172132
97,19,15,Jits_Phase_8,65,9999,9999,9999,1808972864
97,19,15,Jits_Phase_8,66,9999,9999,9999,1809772644
97,19,15,Jits_Phase_8,67,9999,9999,9999,1810572408
97,19,15,Jits_Phase_8,68,9999,9999,9999,1811372116
97,19,15,Jits_Phase_8,69,9999,9999,9999,1812172860
97,19,15,Jits_Phase_8,70,9999,9999,9999,1812972604
97,19,15,Jits_Phase_8,71,9999,9999,9999,1813772368
97,19,15,Jits_Phase_8,72,9999,9999,9999,1814572124
97,19,15,Jits_Phase_8,73,9999,9999,9999,1815372868
97,19,15,Jits_Phase_8,74,9999,9999,9999,1816172636
97,19,15,Jits_Phase_8,75,9999,9999,9999,1816972396
97,19,15,Jits_Phase_8,76,9999,9999,9999,1817772100
97,19,15,Jits_Phase_8,77,9999,9999,9999,1818572908
97,19,15,Jits_Phase_8,78,9999,9999,9999,1819372660
97,19,15,Jits_Phase_8,79,9999,9999,9999,1820172356
97,19,15,Jits_Phase_8,80,9999,9999,9999,1820972116
97,19,15,Jits_Phase_8,81,9999,9999,9999,1821732988
97,19,15,Jits_Phase_8,82,9999,9999,9999,1822532672
97,19,15,Jits_Phase_8,83,9999,9999,9999,1823332428
97,19,15,Jits_Phase_8,84,9999,9999,9999,1824132184
97,19,15,Jits_Phase_8,85,9999,9999,9999,1824932952
97,19,15,Jits_Phase_8,86,9999,9999,9999,1825732712
97,19,15,Jits_Phase_8,87,9999,9999,9999,1826532464
97,19,15,Jits_Phase_8,88,9999,9999,9999,1827332216
97,19,15,Jits_Phase_8,89,9999,9999,9999,1828132952
97,19,15,Jits_Phase_8,90,9999,9999,9999,1828932724
97,19,15,Jits_Phase_8,91,9999,9999,9999,1829732476
97,19,15,Jits_Phase_8,92,9999,9999,9999,1830532176
97,19,15,Jits_Phase_8,93,9999,9999,9999,1831332928
97,19,15,Jits_Phase_8,94,9999,9999,9999,1832132688
97,19,15,Jits_Phase_8,95,9999,9999,9999,1832932444
97,19,15,Jits_Phase_8,96,9999,9999,9999,1833732200
97,19,15,Jits_Phase_8,97,9999,9999,9999,1834453068
97,19,15,Jits_Phase_8,98,9999,9999,9999,1835252848
97,19,15,Jits_Phase_8,99,9999,9999,9999,1836052552
97,19,15,Jits_Phase_8,100,9999,9999,9999,1836852316
97,19,15,Jits_Phase_8,101,9999,9999,9999,1837653048
97,19,15,Jits_Phase_8,102,9999,9999,9999,1838452796
97,19,15,Jits_Phase_8,103,9999,9999,9999,1839252552
97,19,15,Jits_Phase_8,104,9999,9999,9999,1840052348
97,19,15,Jits_Phase_8,105,9999,9999,9999,1840853088
97,19,15,Jits_Phase_8,106,9999,9999,9999,1841652836
97,19,15,Jits_Phase_8,107,9999,9999,9999,1842452576
97,19,15,Jits_Phase_8,108,9999,9999,9999,1843252336
97,19,15,Jits_Phase_8,109,9999,9999,9999,1844053068
97,19,15,Jits_Phase_8,110,9999,9999,9999,1844852836
97,19,15,Jits_Phase_8,111,9999,9999,9999,1845652596
97,19,15,Jits_Phase_8,112,9999,9999,9999,1846452308
97,19,15,Jits_Phase_8,113,9999,9999,9999,1847253052
97,19,15,Jits_Phase_8,114,9999,9999,9999,1848132668
97,19,15,Jits_Phase_8,115,9999,9999,9999,1848932424
97,19,15,Jits_Phase_8,116,9999,9999,9999,1849732184
97,19,15,Jits_Phase_8,117,9999,9999,9999,1850532960
97,19,15,Jits_Phase_8,118,9999,9999,9999,1851332732
97,19,15,Jits_Phase_8,119,9999,9999,9999,1852132428
97,19,15,Jits_Phase_8,120,9999,9999,9999,1852932192
97,19,15,Jits_Phase_8,121,9999,9999,9999,1853732924
97,19,15,Jits_Phase_8,122,9999,9999,9999,1854532676
97,19,15,Jits_Phase_8,123,9999,9999,9999,1855332432
97,19,15,Jits_Phase_8,124,9999,9999,9999,1856132196
97,19,15,Jits_Phase_8,125,9999,9999,9999,1856932940
97,19,15,Jits_Phase_8,126,9999,9999,9999,1857732692
97,19,15,Jits_Phase_8,127,9999,9999,9999,1858532452
97,19,15,Jits_Phase_8,128,9999,9999,9999,1859332208
97,19,15,Jits_Phase_8,129,9999,9999,9999,1860132952
97,19,15,Jits_Phase_8,130,9999,9999,9999,1860932736
97,19,15,Jits_Phase_8,131,9999,9999,9999,1861892184
97,19,15,Jits_Phase_8,132,9999,9999,9999,1862692984
97,19,15,Jits_Phase_8,133,9999,9999,9999,1863492672
97,19,15,Jits_Phase_8,134,9999,9999,9999,1864292432
97,19,15,Jits_Phase_8,135,9999,9999,9999,1865092176
97,19,15,Jits_Phase_8,136,9999,9999,9999,1865892928
97,19,15,Jits_Phase_8,137,9999,9999,9999,1866692704
97,19,15,Jits_Phase_8,138,9999,9999,9999,1867492476
97,19,15,Jits_Phase_8,139,9999,9999,9999,1868292176
97,19,15,Jits_Phase_8,140,9999,9999,9999,1869092960
97,19,15,Jits_Phase_8,141,9999,9999,9999,1869892696
97,19,15,Jits_Phase_8,142,9999,9999,9999,1870692464
97,19,15,Jits_Phase_8,143,9999,9999,9999,1871492220
97,19,15,Jits_Phase_8,144,9999,9999,9999,1872292952
97,19,15,Jits_Phase_8,145,9999,9999,9999,1873092692
97,19,15,Jits_Phase_8,146,9999,9999,9999,1873892448
97,19,15,Jits_Phase_8,147,9999,9999,9999,1874692180
97,19,15,Jits_Phase_8,148,9999,9999,9999,1875492976
97,19,15,Jits_Phase_8,149,9999,9999,9999,1876292732
97,19,15,Jits_Phase_8,150,9999,9999,9999,1876932696
97,19,15,Jits_Phase_8,151,9999,9999,9999,1877732444
97,19,15,Jits_Phase_8,152,9999,9999,9999,1878532200
97,19,15,Jits_Phase_8,153,9999,9999,9999,1879332936
97,19,15,Jits_Phase_8,154,9999,9999,9999,1880132688
97,19,15,Jits_Phase_8,155,9999,9999,9999,1880932448
97,19,15,Jits_Phase_8,156,9999,9999,9999,1881732208
97,19,15,Jits_Phase_8,157,9999,9999,9999,1882532960
97,19,15,Jits_Phase_8,158,9999,9999,9999,1883332728
97,19,15,Jits_Phase_8,159,9999,9999,9999,1884132408
97,19,15,Jits_Phase_8,160,9999,9999,9999,1884932188
97,19,15,Jits_Phase_8,161,9999,9999,9999,1885732988
97,19,15,Jits_Phase_8,162,9999,9999,9999,1886532680
97,19,15,Jits_Phase_8,163,9999,9999,9999,1887332436
97,19,15,Jits_Phase_8,164,9999,9999,9999,1888132192
97,19,15,Jits_Phase_8,165,9999,9999,9999,1888932944
97,19,15,Jits_Phase_8,166,9999,9999,9999,1889732716
97,19,15,Jits_Phase_8,167,9999,9999,9999,1890532472
97,19,15,Jits_Phase_8,168,9999,9999,9999,1891332156
97,19,15,Jits_Phase_8,169,9999,9999,9999,1892132976
97,20,17,Jits_Phase_5,0,5,56,103,1901571432
97,20,17,Jits_Phase_5,1,5,63,98,1901574756
97,20,17,Jits_Phase_5,2,5,80,127,1901577800
97,20,17,Jits_Phase_5,0,5,56,103,1902072492
97,20,17,Jits_Phase_5,1,5,63,98,1902075436
97,20,17,Jits_Phase_5,2,5,80,127,1902078556
97,20,17,Jits_Phase_5,3,1,48,33,1902209640
97,20,17,Jits_Phase_5,0,5,56,103,1902572024
97,20,17,Jits_Phase_5,1,5,80,127,1902582588
97,20,17,Jits_Phase_5,2,5,63,98,1902601704
97,20,17,Jits_Phase_5,3,1,48,35,1902620340
97,20,17,Jits_Phase_5,0,5,63,98,1903021372
97,20,17,Jits_Phase_5,1,5,80,127,1903052320
97,20,17,Jits_Phase_5,2,5,56,103,1903062364
97,20,17,Jits_Phase_5,3,1,48,38,1903122120
97,20,17,Jits_Phase_5,0,1,48,40,1903571584
97,20,17,Jits_Phase_5,1,5,80,127,1903581572
97,20,17,Jits_Phase_5,2,5,56,103,1903591916
97,20,17,Jits_Phase_5,3,5,63,98,1903621444
97,20,17,Jits_Phase_5,0,1,48,38,1904062344
97,20,17,Jits_Phase_5,1,5,63,98,1904072036
97,20,17,Jits_Phase_5,2,5,56,103,1904101784
97,20,17,Jits_Phase_5,3,5,80,127,1904112204
97,20,17,Jits_Phase_5,0,5,56,103,1904521576
97,20,17,Jits_Phase_5,1,1,48,39,1904547636
97,20,17,Jits_Phase_5,2,5,63,98,1904571796
97,20,17,Jits_Phase_5,3,5,80,127,1904592548
97,20,17,Jits_Phase_5,0,1,48,43,1904999736
97,20,17,Jits_Phase_5,1,5,80,127,1905022528
97,20,17,Jits_Phase_5,2,5,63,98,1905071488
97,20,17,Jits_Phase_5,3,5,56,103,1905112380
97,20,17,Jits_Phase_5,0,5,56,103,1905521912
97,20,17,Jits_Phase_5,1,5,63,98,1905551588
97,20,17,Jits_Phase_5,2,1,48,44,1905577348
97,20,17,Jits_Phase_5,3,5,80,127,1905622256
97,20,17,Jits_Phase_5,0,5,56,103,1906021676
97,20,17,Jits_Phase_5,1,5,80,127,1906082388
97,20,17,Jits_Phase_5,2,1,48,39,1906109872
97,20,17,Jits_Phase_5,3,5,63,98,1906111760
97,20,17,Jits_Phase_5,0,5,56,103,1906531700
97,20,17,Jits_Phase_5,1,5,63,98,1906541896
97,20,17,Jits_Phase_5,2,5,80,127,1906581832
97,20,17,Jits_Phase_5,3,1,48,44,1906621688
97,20,17,Jits_Phase_5,0,5,63,98,1907022396
97,20,17,Jits_Phase_5,1,1,48,46,1907089260
97,20,17,Jits_Phase_5,2,5,80,127,1907102356
97,20,17,Jits_Phase_5,3,5,56,103,1907112328
97,20,17,Jits_Phase_5,0,5,63,98,1907572196
97,20,17,Jits_Phase_5,1,1,48,47,1907585872
97,20,17,Jits_Phase_5,2,5,56,103,1907612148
97,20,17,Jits_Phase_5,3,5,80,127,1907615436
97,20,17,Jits_Phase_5,0,5,56,103,1908031784
97,20,17,Jits_Phase_5,1,5,63,98,1908042424
97,20,17,Jits_Phase_5,2,5,80,127,1908081992
97,20,17,Jits_Phase_5,3,1,48,45,1908083852
97,20,17,Jits_Phase_5,0,5,56,103,1908522328
97,20,17,Jits_Phase_5,1,5,63,98,1908525468
97,20,17,Jits_Phase_5,2,1,48,44,1908536980
97,20,17,Jits_Phase_5,3,5,80,127,1908541808
97,20,17,Jits_Phase_5,0,5,80,127,1909032416
97,20,17,Jits_Phase_5,1,1,48,44,1909033380
97,20,17,Jits_Phase_5,2,5,56,103,1909041408
97,20,17,Jits_Phase_5,3,5,63,98,1909112132
97,20,17,Jits_Phase_5,0,5,63,98,1909521764
97,20,17,Jits_Phase_5,1,5,56,103,1909542520
97,20,17,Jits_Phase_5,2,1,48,42,1909606092
97,20,17,Jits_Phase_5,3,5,80,127,1909622228
97,20,17,Jits_Phase_5,0,5,56,103,1910031704
97,20,17,Jits_Phase_5,1,5,80,127,1910071640
97,20,17,Jits_Phase_5,2,5,63,98,1910081836
97,20,17,Jits_Phase_5,3,1,48,38,1910089744
97,20,17,Jits_Phase_5,0,5,80,127,1910522324
97,20,17,Jits_Phase_5,1,5,63,98,1910551776
97,20,17,Jits_Phase_5,2,1,48,35,1910560668
97,20,17,Jits_Phase_5,3,5,56,103,1910591780
97,20,17,Jits_Phase_5,0,5,56,103,1911042540
97,20,17,Jits_Phase_5,1,1,48,34,1911071084
97,20,17,Jits_Phase_5,2,5,63,98,1911072580
97,20,17,Jits_Phase_5,3,5,80,127,1911122260
97,20,17,Jits_Phase_5,0,5,80,127,1911542304
97,20,17,Jits_Phase_5,1,1,48,35,1911545052
97,20,17,Jits_Phase_5,2,5,56,103,1911582236
97,20,17,Jits_Phase_5,3,5,63,98,1911592580
97,20,17,Jits_Phase_5,0,5,80,127,1912022372
97,20,17,Jits_Phase_5,1,5,63,98,1912062236
97,20,17,Jits_Phase_5,2,1,48,35,1912073300
97,20,17,Jits_Phase_5,3,5,56,103,1912121568
97,20,17,Jits_Phase_5,0,5,56,103,1912532252
97,20,17,Jits_Phase_5,1,5,80,127,1912541548
97,20,17,Jits_Phase_5,2,1,48,35,1912608484
97,20,17,Jits_Phase_5,3,5,63,98,1912621484
97,20,17,Jits_Phase_5,0,5,80,127,1913032388
97,20,17,Jits_Phase_5,1,1,48,31,1913083160
97,20,17,Jits_Phase_5,2,5,63,98,1913091500
97,20,17,Jits_Phase_5,3,5,56,103,1913122220
97,20,17,Jits_Phase_5,0,5,56,103,1913531856
97,20,17,Jits_Phase_5,1,1,48,38,1913588532
97,20,17,Jits_Phase_5,2,5,80,127,1913592460
97,20,17,Jits_Phase_5,3,5,63,98,1913632100
97,20,17,Jits_Phase_5,0,5,56,103,1914081596
97,20,17,Jits_Phase_5,1,1,48,38,1914083080
97,20,17,Jits_Phase_5,2,5,63,98,1914092156
97,20,17,Jits_Phase_5,3,5,80,127,1914095444
97,20,17,Jits_Phase_5,0,5,80,127,1914532424
97,20,17,Jits_Phase_5,1,1,48,40,1914578096
97,20,17,Jits_Phase_5,2,5,63,98,1914622404
97,20,17,Jits_Phase_5,3,5,56,103,1914631476
97,20,17,Jits_Phase_5,0,5,56,103,1915031856
97,20,17,Jits_Phase_5,1,5,63,98,1915035176
97,20,17,Jits_Phase_5,2,5,80,127,1915038296
97,20,17,Jits_Phase_5,3,1,48,35,1915077376
97,20,17,Jits_Phase_5,0,1,48,41,1915543988
97,20,17,Jits_Phase_5,1,5,80,127,1915552400
97,20,17,Jits_Phase_5,2,5,63,98,1915602308
97,20,17,Jits_Phase_5,3,5,56,103,1915632128
97,20,17,Jits_Phase_5,0,5,56,103,1916032364
97,20,17,Jits_Phase_5,1,5,80,127,1916041440
97,20,17,Jits_Phase_5,2,1,48,34,1916069516
97,20,17,Jits_Phase_5,3,5,63,98,1916112328
97,20,17,Jits_Phase_5,0,5,56,103,1916542388
97,20,17,Jits_Phase_5,1,5,63,98,1916561652
97,20,17,Jits_Phase_5,2,1,48,34,1916564772
97,20,17,Jits_Phase_5,3,5,80,127,1916622208
97,20,17,Jits_Phase_5,0,5,80,127,1917021552
97,20,17,Jits_Phase_5,1,1,48,31,1917052096
97,20,17,Jits_Phase_5,2,5,63,98,1917092148
97,20,17,Jits_Phase_5,3,5,56,103,1917111560
97,20,17,Jits_Phase_5,0,5,80,127,1917541620
97,20,17,Jits_Phase_5,1,5,56,103,1917552336
97,20,17,Jits_Phase_5,2,1,48,32,1917562308
97,20,17,Jits_Phase_5,3,5,63,98,1917563796
97,20,17,Jits_Phase_5,0,1,48,31,1918017288
97,20,17,Jits_Phase_5,1,5,80,127,1918032236
97,20,17,Jits_Phase_5,2,5,56,103,1918051648
97,20,17,Jits_Phase_5,3,5,63,98,1918122528
97,20,17,Jits_Phase_5,0,5,56,103,1918542252
97,20,17,Jits_Phase_5,1,5,80,127,1918572000
97,20,17,Jits_Phase_5,2,1,48,38,1918581344
97,20,17,Jits_Phase_5,3,5,63,98,1918592228
97,20,17,Jits_Phase_5,0,5,63,98,1919031608
97,20,17,Jits_Phase_5,1,1,48,43,1919054128
97,20,17,Jits_Phase_5,2,5,56,103,1919092136
97,20,17,Jits_Phase_5,3,5,80,127,1919121664
97,20,17,Jits_Phase_5,0,5,63,98,1919522436
97,20,17,Jits_Phase_5,1,5,80,127,1919525652
97,20,17,Jits_Phase_5,2,1,48,40,1919567800
97,20,17,Jits_Phase_5,3,5,56,103,1919612188
97,20,17,Jits_Phase_5,0,5,56,103,1920042408
97,20,17,Jits_Phase_5,1,5,63,98,1920072084
97,20,17,Jits_Phase_5,2,1,48,32,1920076548
97,20,17,Jits_Phase_5,3,5,80,127,1920112236
97,20,17,Jits_Phase_5,0,5,63,98,1920542172
97,20,17,Jits_Phase_5,1,1,48,36,1920560436
97,20,17,Jits_Phase_5,2,5,56,103,1920582104
97,20,17,Jits_Phase_5,3,5,80,127,1920601516
97,20,17,Jits_Phase_5,0,5,63,98,1921052260
97,20,17,Jits_Phase_5,1,1,48,34,1921055004
97,20,17,Jits_Phase_5,2,5,56,103,1921091892
97,20,17,Jits_Phase_5,3,5,80,127,1921102160
97,20,17,Jits_Phase_5,0,5,80,127,1921532228
97,20,17,Jits_Phase_5,1,1,48,43,1921538860
97,20,17,Jits_Phase_5,2,5,63,98,1921602200
97,20,17,Jits_Phase_5,3,5,56,103,1921622288
97,20,17,Jits_Phase_5,0,5,56,103,1922021880
97,20,17,Jits_Phase_5,1,1,48,35,1922041740
97,20,17,Jits_Phase_5,2,5,80,127,1922043380
97,20,17,Jits_Phase_5,3,5,63,98,1922082044
97,20,17,Jits_Phase_5,0,1,48,36,1922506240
97,20,17,Jits_Phase_5,1,5,63,98,1922531748
97,20,17,Jits_Phase_5,2,5,80,127,1922552132
97,20,17,Jits_Phase_5,3,5,56,103,1922592144
97,20,17,Jits_Phase_5,0,5,63,98,1923032328
97,20,17,Jits_Phase_5,1,1,48,36,1923036864
97,20,17,Jits_Phase_5,2,5,56,103,1923052176
97,20,17,Jits_Phase_5,3,5,80,127,1923062224
97,20,17,Jits_Phase_5,0,5,80,127,1923532072
97,20,17,Jits_Phase_5,1,1,48,40,1923547096
97,20,17,Jits_Phase_5,2,5,56,103,1923551628
97,20,17,Jits_Phase_5,3,5,63,98,1923582276
97,20,17,Jits_Phase_5,0,1,48,33,1924070168
97,20,17,Jits_Phase_5,1,5,56,103,1924101352
97,20,17,Jits_Phase_5,2,5,80,127,1924104496
97,20,17,Jits_Phase_5,3,5,63,98,1924122184
97,20,17,Jits_Phase_5,0,5,63,98,1924522296
97,20,17,Jits_Phase_5,1,5,56,103,1924552192
97,20,17,Jits_Phase_5,2,5,80,127,1924611384
97,20,17,Jits_Phase_5,3,1,48,37,1924630240
97,20,17,Jits_Phase_5,0,1,48,33,1925059160
97,20,17,Jits_Phase_5,1,5,63,98,1925101976
97,20,17,Jits_Phase_5,2,5,56,103,1925112320
97,20,17,Jits_Phase_5,3,5,80,127,1925122364
97,20,17,Jits_Phase_5,0,5,56,103,1925562104
97,20,17,Jits_Phase_5,1,1,48,36,1925576088
97,20,17,Jits_Phase_5,2,5,80,127,1925592448
97,20,17,Jits_Phase_5,3,5,63,98,1925601596
97,20,17,Jits_Phase_5,0,1,48,32,1926085736
97,20,17,Jits_Phase_5,1,5,63,98,1926102396
97,20,17,Jits_Phase_5,2,5,56,103,1926111548
97,20,17,Jits_Phase_5,3,5,80,127,1926132228
97,20,17,Jits_Phase_5,0,5,56,103,1926531336
97,20,17,Jits_Phase_5,1,1,48,35,1926540228
97,20,17,Jits_Phase_5,2,5,63,98,1926591964
97,20,17,Jits_Phase_5,3,5,80,127,1926595252
97,20,17,Jits_Phase_5,0,1,48,34,1927021092
97,20,17,Jits_Phase_5,1,5,80,127,1927051608
97,20,17,Jits_Phase_5,2,5,56,103,1927062100
97,20,17,Jits_Phase_5,3,5,63,98,1927131416
97,20,17,Jits_Phase_5,0,5,80,127,1927542072
97,20,17,Jits_Phase_5,1,1,48,32,1927561076
97,20,17,Jits_Phase_5,2,5,56,103,1927611696
97,20,17,Jits_Phase_5,3,5,63,98,1927622116
97,20,17,Jits_Phase_5,0,5,63,98,1928081988
97,20,17,Jits_Phase_5,1,5,56,103,1928092132
97,20,17,Jits_Phase_5,2,1,48,39,1928100056
97,20,17,Jits_Phase_5,3,5,80,127,1928111464
97,20,17,Jits_Phase_5,0,1,48,31,1928511432
97,20,17,Jits_Phase_5,1,5,80,127,1928532432
97,20,17,Jits_Phase_5,2,5,63,98,1928591852
97,20,17,Jits_Phase_5,3,5,56,103,1928632096
97,20,17,Jits_Phase_5,0,5,56,103,1929072196
97,20,17,Jits_Phase_5,1,5,63,98,1929082172
97,20,17,Jits_Phase_5,2,1,48,37,1929101332
97,20,17,Jits_Phase_5,3,5,80,127,1929122200
97,20,17,Jits_Phase_5,0,1,48,37,1929528396
97,20,17,Jits_Phase_5,1,5,56,103,1929531876
97,20,17,Jits_Phase_5,2,5,80,127,1929561552
97,20,17,Jits_Phase_5,3,5,63,98,1929611676
97,20,17,Jits_Phase_5,0,1,48,36,1930069500
97,20,17,Jits_Phase_5,1,5,56,103,1930072380
97,20,17,Jits_Phase_5,2,5,63,98,1930112316
97,20,17,Jits_Phase_5,3,5,80,127,1930115752
97,20,17,Jits_Phase_5,0,5,56,103,1930572128
97,20,17,Jits_Phase_5,1,5,63,98,1930582252
97,20,17,Jits_Phase_5,2,1,48,35,1930585368
97,20,17,Jits_Phase_5,3,5,80,127,1930601804
97,20,17,Jits_Phase_5,0,5,56,103,1931031960
97,20,17,Jits_Phase_5,1,5,80,127,1931035024
97,20,17,Jits_Phase_5,2,5,63,98,1931072044
97,20,17,Jits_Phase_5,3,1,48,33,1931074864
97,20,17,Jits_Phase_5,0,1,48,35,1931506272
97,20,17,Jits_Phase_5,1,5,63,98,1931571636
97,20,17,Jits_Phase_5,2,5,56,103,1931602272
97,20,17,Jits_Phase_5,3,5,80,127,1931622052
97,20,17,Jits_Phase_5,0,5,80,127,1932041804
97,20,17,Jits_Phase_5,1,5,56,103,1932051924
97,20,17,Jits_Phase_5,2,5,63,98,1932062048
97,20,17,Jits_Phase_5,3,1,48,29,1932078940
97,20,17,Jits_Phase_5,0,5,56,103,1932542312
97,20,17,Jits_Phase_5,1,5,80,127,1932582252
97,20,17,Jits_Phase_5,2,5,63,98,1932611924
97,20,17,Jits_Phase_5,0,1,48,26,1932936712
97,20,17,Jits_Phase_5,1,5,63,98,1933052132
97,20,17,Jits_Phase_5,2,5,80,127,1933061504
97,20,17,Jits_Phase_5,3,5,56,103,1933072000
97,20,17,Jits_Phase_5,0,1,48,29,1933341784
97,20,17,Jits_Phase_5,1,5,56,103,1933541692
97,20,17,Jits_Phase_5,2,5,63,98,1933612424
97,20,17,Jits_Phase_5,3,5,80,127,1933621572
97,20,17,Jits_Phase_5,4,1,48,35,1933795432
97,20,17,Jits_Phase_5,0,5,80,127,1934051908
97,20,17,Jits_Phase_5,1,5,56,103,1934062028
97,20,17,Jits_Phase_5,2,5,63,98,1934112080
97,20,17,Jits_Phase_5,3,1,48,38,1934276496
97,20,17,Jits_Phase_5,0,5,80,127,1934561932
97,20,17,Jits_Phase_5,1,5,56,103,1934622024
97,20,17,Jits_Phase_5,2,5,63,98,1934651696
97,20,17,Jits_Phase_5,3,1,48,38,1934780772
97,20,17,Jits_Phase_5,0,5,56,103,1935062292
97,20,17,Jits_Phase_5,1,5,80,127,1935065436
97,20,17,Jits_Phase_5,2,5,63,98,1935102304
97,20,17,Jits_Phase_5,3,1,48,40,1935295792
97,20,17,Jits_Phase_5,0,5,56,103,1935591868
97,20,17,Jits_Phase_5,1,5,63,98,1935621396
97,20,17,Jits_Phase_5,2,5,80,127,1935631960
97,20,17,Jits_Phase_5,3,1,48,41,1935825896
97,20,17,Jits_Phase_5,0,5,63,98,1936101824
97,20,17,Jits_Phase_5,1,5,80,127,1936112096
97,20,17,Jits_Phase_5,2,5,56,103,1936122364
97,20,17,Jits_Phase_5,3,1,48,42,1936320352
97,20,17,Jits_Phase_5,0,5,80,127,1936552428
97,20,17,Jits_Phase_5,1,5,56,103,1936601352
97,20,17,Jits_Phase_5,2,5,63,98,1936604500
97,20,17,Jits_Phase_5,0,1,48,40,1936856772
97,20,17,Jits_Phase_5,1,5,56,103,1937081924
97,20,17,Jits_Phase_5,2,5,80,127,1937102160
97,20,17,Jits_Phase_5,3,5,63,98,1937112432
97,20,17,Jits_Phase_5,0,1,48,40,1937360132
97,20,17,Jits_Phase_5,1,5,63,98,1937561892
97,20,17,Jits_Phase_5,2,5,56,103,1937591716
97,20,17,Jits_Phase_5,3,5,80,127,1937612100
97,20,17,Jits_Phase_5,0,1,48,40,1937894300
97,20,17,Jits_Phase_5,1,5,56,103,1938072052
97,20,17,Jits_Phase_5,2,5,80,127,1938082100
97,20,17,Jits_Phase_5,3,5,63,98,1938151924
97,20,17,Jits_Phase_5,0,1,48,41,1938430252
97,20,17,Jits_Phase_5,1,5,63,98,1938562564
97,20,17,Jits_Phase_5,2,5,80,127,1938602228
97,20,17,Jits_Phase_5,3,5,56,103,1938642388
97,20,17,Jits_Phase_5,0,1,48,42,1938971280
97,20,17,Jits_Phase_5,1,5,56,103,1939072280
97,20,17,Jits_Phase_5,2,5,63,98,1939081876
97,20,17,Jits_Phase_5,3,5,80,127,1939102060
97,20,17,Jits_Phase_5,0,1,48,36,1939533960
97,20,17,Jits_Phase_5,1,5,63,98,1939612000
97,20,17,Jits_Phase_5,2,5,80,127,1939631324
97,20,17,Jits_Phase_5,3,5,56,103,1939652080
97,20,17,Jits_Phase_5,0,5,56,103,1940052324
97,20,17,Jits_Phase_5,1,5,80,127,1940132068
97,20,17,Jits_Phase_5,2,5,63,98,1940141292
97,20,17,Jits_Phase_5,3,1,48,37,1940148600
97,20,17,Jits_Phase_5,0,5,80,127,1940591952
97,20,17,Jits_Phase_5,1,5,63,98,1940602220
97,20,17,Jits_Phase_5,2,5,56,103,1940631920
97,20,17,Jits_Phase_5,3,1,48,36,1940673316
97,20,17,Jits_Phase_5,0,5,63,98,1941051712
97,20,17,Jits_Phase_5,1,5,80,127,1941091944
97,20,17,Jits_Phase_5,2,5,56,103,1941152060
97,20,17,Jits_Phase_5,3,1,48,32,1941156000
97,20,17,Jits_Phase_5,0,5,63,98,1941561800
97,20,17,Jits_Phase_5,1,5,56,103,1941611928
97,20,17,Jits_Phase_5,2,5,80,127,1941641824
97,20,17,Jits_Phase_5,3,1,48,36,1941675680
97,20,17,Jits_Phase_5,0,5,80,127,1942061552
97,20,17,Jits_Phase_5,1,5,63,98,1942071900
97,20,17,Jits_Phase_5,2,5,56,103,1942142248
97,20,17,Jits_Phase_5,3,1,48,34,1942153312
97,20,17,Jits_Phase_5,0,5,80,127,1942621632
97,20,17,Jits_Phase_5,1,5,56,103,1942631752
97,20,17,Jits_Phase_5,2,5,63,98,1942634892
97,20,17,Jits_Phase_5,3,1,48,33,1942636524
97,20,17,Jits_Phase_5,0,5,56,103,1943061760
97,20,17,Jits_Phase_5,1,5,80,127,1943082292
97,20,17,Jits_Phase_5,2,5,63,98,1943091960
97,20,17,Jits_Phase_5,3,1,48,27,1943128484
97,20,17,Jits_Phase_5,0,1,48,28,1943562236
97,20,17,Jits_Phase_5,1,5,63,98,1943571776
97,20,17,Jits_Phase_5,2,5,56,103,1943611864
97,20,17,Jits_Phase_5,3,5,80,127,1943632176
97,20,17,Jits_Phase_5,0,5,63,98,1944071616
97,20,17,Jits_Phase_5,1,1,48,36,1944090024
97,20,17,Jits_Phase_5,2,5,56,103,1944131920
97,20,17,Jits_Phase_5,3,5,80,127,1944135060
97,20,17,Jits_Phase_5,0,5,56,103,1944532252
97,20,17,Jits_Phase_5,1,5,80,127,1944551812
97,20,17,Jits_Phase_5,2,5,63,98,1944591896
97,20,17,Jits_Phase_5,3,1,48,34,1944593836
97,20,17,Jits_Phase_5,0,1,48,30,1945060168
97,20,17,Jits_Phase_5,1,5,56,103,1945061676
97,20,17,Jits_Phase_5,2,5,63,98,1945082208
97,20,17,Jits_Phase_5,3,5,80,127,1945091432
97,20,17,Jits_Phase_5,0,5,80,127,1945531916
97,20,17,Jits_Phase_5,1,5,56,103,1945561588
97,20,17,Jits_Phase_5,2,1,48,32,1945569440
97,20,17,Jits_Phase_5,3,5,63,98,1945602416
97,20,17,Jits_Phase_5,0,5,80,127,1946041720
97,20,17,Jits_Phase_5,1,1,48,35,1946059068
97,20,17,Jits_Phase_5,2,5,56,103,1946062244
97,20,17,Jits_Phase_5,3,5,63,98,1946121660
97,20,17,Jits_Phase_5,0,5,56,103,1946551596
97,20,17,Jits_Phase_5,1,5,80,127,1946572276
97,20,17,Jits_Phase_5,2,1,48,32,1946590764
97,20,17,Jits_Phase_5,3,5,63,98,1946631612
97,20,17,Jits_Phase_5,0,5,80,127,1947031884
97,20,17,Jits_Phase_5,1,5,56,103,1947042376
97,20,17,Jits_Phase_5,2,5,63,98,1947082088
97,20,17,Jits_Phase_5,3,1,48,33,1947087744
97,20,17,Jits_Phase_5,0,1,48,33,1947520040
97,20,17,Jits_Phase_5,1,5,63,98,1947531908
97,20,17,Jits_Phase_5,2,5,56,103,1947571720
97,20,17,Jits_Phase_5,3,5,80,127,1947574640
97,20,17,Jits_Phase_5,0,1,48,39,1948023748
97,20,17,Jits_Phase_5,1,5,63,98,1948051724
97,20,17,Jits_Phase_5,2,5,80,127,1948091912
97,20,17,Jits_Phase_5,3,5,56,103,1948121584
97,20,17,Jits_Phase_5,0,5,56,103,1948542268
97,20,17,Jits_Phase_5,1,5,63,98,1948551640
97,20,17,Jits_Phase_5,2,1,48,33,1948557604
97,20,17,Jits_Phase_5,3,5,80,127,1948582228
97,20,17,Jits_Phase_5,0,1,48,27,1948998528
97,20,17,Jits_Phase_5,1,5,80,127,1949031980
97,20,17,Jits_Phase_5,2,5,63,98,1949101376
97,20,17,Jits_Phase_5,3,5,56,103,1949111868
97,20,17,Jits_Phase_5,0,5,63,98,1949531732
97,20,17,Jits_Phase_5,1,1,48,39,1949560932
97,20,17,Jits_Phase_5,2,5,56,103,1949602108
97,20,17,Jits_Phase_5,3,5,80,127,1949612748
97,20,17,Jits_Phase_5,0,5,63,98,1950011784
97,20,17,Jits_Phase_5,1,5,56,103,1950032168
97,20,17,Jits_Phase_5,2,5,80,127,1950072104
97,20,17,Jits_Phase_5,3,1,48,36,1950077912
97,20,17,Jits_Phase_5,0,5,56,103,1950491980
97,20,17,Jits_Phase_5,1,5,63,98,1950502176
97,20,17,Jits_Phase_5,2,1,48,27,1950541040
97,20,17,Jits_Phase_5,3,5,80,127,1950582184
97,20,17,Jits_Phase_5,0,5,63,98,1950981704
97,20,17,Jits_Phase_5,1,1,48,34,1951009540
97,20,17,Jits_Phase_5,2,5,56,103,1951012124
97,20,17,Jits_Phase_5,3,5,80,127,1951052284
97,20,17,Jits_Phase_5,0,5,56,103,1951482276
97,20,17,Jits_Phase_5,1,1,48,39,1951499172
97,20,17,Jits_Phase_5,2,5,63,98,1951522284
97,20,17,Jits_Phase_5,3,5,80,127,1951562220
97,20,17,Jits_Phase_5,0,5,80,127,1951981896
97,20,17,Jits_Phase_5,1,1,48,39,1951995052
97,20,17,Jits_Phase_5,2,5,56,103,1952061760
97,20,17,Jits_Phase_5,3,5,63,98,1952072028
97,20,17,Jits_Phase_5,0,1,48,42,1952495860
97,20,17,Jits_Phase_5,1,5,56,103,1952521664
97,20,17,Jits_Phase_5,2,5,63,98,1952524728
97,20,17,Jits_Phase_5,3,5,80,127,1952531860
97,20,17,Jits_Phase_5,0,1,48,42,1953009996
97,20,17,Jits_Phase_5,1,5,56,103,1953041860
97,20,17,Jits_Phase_5,2,5,63,98,1953062688
97,20,17,Jits_Phase_5,3,5,80,127,1953071540
97,20,17,Jits_Phase_5,0,5,63,98,1953511800
97,20,17,Jits_Phase_5,1,5,80,127,1953522148
97,20,17,Jits_Phase_5,2,1,48,40,1953533136
97,20,17,Jits_Phase_5,3,5,56,103,1953541700
97,20,17,Jits_Phase_5,0,1,48,39,1954001628
97,20,17,Jits_Phase_5,1,5,63,98,1954011468
97,20,17,Jits_Phase_5,2,5,56,103,1954092456
97,20,17,Jits_Phase_5,3,5,80,127,1954095600
97,20,17,Jits_Phase_5,0,5,63,98,1954512192
97,20,17,Jits_Phase_5,1,5,56,103,1954531828
97,20,17,Jits_Phase_5,2,5,80,127,1954562620
97,20,17,Jits_Phase_5,3,1,48,42,1954597052
97,20,17,Jits_Phase_5,0,5,56,103,1955012088
97,20,17,Jits_Phase_5,1,5,63,98,1955032548
97,20,17,Jits_Phase_5,2,5,80,127,1955041772
97,20,17,Jits_Phase_5,3,1,48,41,1955079656
97,20,17,Jits_Phase_5,0,5,56,103,1955542492
97,20,17,Jits_Phase_5,1,1,48,43,1955570724
97,20,17,Jits_Phase_5,2,5,63,98,1955572160
97,20,17,Jits_Phase_5,3,5,80,127,1955575300
97,20,17,Jits_Phase_5,0,5,56,103,1955992056
97,20,17,Jits_Phase_5,1,5,63,98,1956031920
97,20,17,Jits_Phase_5,2,1,48,44,1956074292
97,20,17,Jits_Phase_5,3,5,80,127,1956092152
97,20,17,Jits_Phase_5,0,5,56,103,1956512196
97,20,17,Jits_Phase_5,1,5,63,98,1956522544
97,20,17,Jits_Phase_5,2,1,48,43,1956538696
97,20,17,Jits_Phase_5,3,5,80,127,1956581804
97,20,17,Jits_Phase_5,0,5,56,103,1957011860
97,20,17,Jits_Phase_5,1,5,80,127,1957032396
97,20,17,Jits_Phase_5,2,1,48,42,1957037004
97,20,17,Jits_Phase_5,3,5,63,98,1957062060
97,20,17,Jits_Phase_5,0,5,80,127,1957511452
97,20,17,Jits_Phase_5,1,5,56,103,1957521720
97,20,17,Jits_Phase_5,2,1,48,43,1957533708
97,20,17,Jits_Phase_5,3,5,63,98,1957542196
97,20,17,Jits_Phase_5,0,5,63,98,1958002144
97,20,17,Jits_Phase_5,1,1,48,38,1958033516
97,20,17,Jits_Phase_5,2,5,80,127,1958081884
97,20,17,Jits_Phase_5,3,5,56,103,1958092228
97,20,17,Jits_Phase_5,0,1,48,40,1958545384
97,20,17,Jits_Phase_5,1,5,80,127,1958591892
97,20,17,Jits_Phase_5,2,5,56,103,1958612348
97,20,17,Jits_Phase_5,3,5,63,98,1958615340
97,20,17,Jits_Phase_5,0,5,63,98,1959082572
97,20,17,Jits_Phase_5,1,5,80,127,1959085788
97,20,17,Jits_Phase_5,2,1,48,43,1959089376
97,20,17,Jits_Phase_5,3,5,56,103,1959141684
97,20,17,Jits_Phase_5,0,5,56,103,1959561688
97,20,17,Jits_Phase_5,1,5,80,127,1959571960
97,20,17,Jits_Phase_5,2,5,63,98,1959611748
97,20,17,Jits_Phase_5,3,1,48,42,1959621388
97,20,17,Jits_Phase_5,0,5,56,103,1960041872
97,20,17,Jits_Phase_5,1,1,48,46,1960086216
97,20,17,Jits_Phase_5,2,5,63,98,1960102356
97,20,17,Jits_Phase_5,3,5,80,127,1960111800
97,20,17,Jits_Phase_5,0,1,48,43,1960545492
97,20,17,Jits_Phase_5,1,5,63,98,1960551740
97,20,17,Jits_Phase_5,2,5,80,127,1960591752
97,20,17,Jits_Phase_5,3,5,56,103,1960631564
97,20,17,Jits_Phase_5,0,5,56,103,1961051868
97,20,17,Jits_Phase_5,1,1,48,39,1961074096
97,20,17,Jits_Phase_5,2,5,63,98,1961132576
97,20,17,Jits_Phase_5,3,5,80,127,1961135864
97,20,17,Jits_Phase_5,0,1,48,43,1961570104
97,20,17,Jits_Phase_5,1,5,80,127,1961611632
97,20,17,Jits_Phase_5,2,5,56,103,1961642600
97,20,17,Jits_Phase_5,3,5,63,98,1961645516
97,20,17,Jits_Phase_5,0,5,56,103,1962072652
97,20,17,Jits_Phase_5,1,1,48,40,1962092284
97,20,17,Jits_Phase_5,2,5,80,127,1962093476
97,20,17,Jits_Phase_5,3,5,63,98,1962131768
97,20,17,Jits_Phase_5,0,5,80,127,1962551592
97,20,17,Jits_Phase_5,1,5,63,98,1962572048
97,20,17,Jits_Phase_5,2,1,48,36,1962607524
97,20,17,Jits_Phase_5,3,5,56,103,1962631532
97,20,17,Jits_Phase_5,0,5,63,98,1963061696
97,20,17,Jits_Phase_5,1,5,56,103,1963071964
97,20,17,Jits_Phase_5,2,1,48,33,1963090896
97,20,17,Jits_Phase_5,3,5,80,127,1963121932
97,20,17,Jits_Phase_5,0,1,48,28,1963522156
97,20,17,Jits_Phase_5,1,5,56,103,1963552144
97,20,17,Jits_Phase_5,2,5,63,98,1963571708
97,20,17,Jits_Phase_5,3,5,80,127,1963581828
97,20,17,Jits_Phase_5,0,1,48,33,1963977988
97,20,17,Jits_Phase_5,1,5,56,103,1964041556
97,20,17,Jits_Phase_5,2,5,63,98,1964044544
97,20,17,Jits_Phase_5,3,5,80,127,1964062088
97,20,17,Jits_Phase_5,0,1,48,40,1964500736
97,20,17,Jits_Phase_5,1,5,63,98,1964582496
97,20,17,Jits_Phase_5,2,5,56,103,1964611932
97,20,17,Jits_Phase_5,3,5,80,127,1964641756
97,20,17,Jits_Phase_5,0,1,48,36,1965035920
97,20,17,Jits_Phase_5,1,5,80,127,1965042168
97,20,17,Jits_Phase_5,2,5,56,103,1965132136
97,20,17,Jits_Phase_5,3,5,63,98,1965135352
97,20,17,Jits_Phase_5,0,5,56,103,1965541616
97,20,17,Jits_Phase_5,1,5,80,127,1965544760
97,20,17,Jits_Phase_5,2,1,48,39,1965593432
97,20,17,Jits_Phase_5,3,5,63,98,1965621776
97,20,17,Jits_Phase_5,0,5,80,127,1966041528
97,20,17,Jits_Phase_5,1,1,48,39,1966083828
97,20,17,Jits_Phase_5,2,5,63,98,1966101912
97,20,17,Jits_Phase_5,3,5,56,103,1966131656
97,20,17,Jits_Phase_5,0,5,63,98,1966542268
97,20,17,Jits_Phase_5,1,5,80,127,1966552388
97,20,17,Jits_Phase_5,2,1,48,40,1966601660
97,20,17,Jits_Phase_5,3,5,56,103,1966622284
97,20,17,Jits_Phase_5,0,1,48,39,1967077788
97,20,17,Jits_Phase_5,1,5,56,103,1967102464
97,20,17,Jits_Phase_5,2,5,80,127,1967131916
97,20,17,Jits_Phase_5,3,5,63,98,1967182248
97,20,17,Jits_Phase_5,0,1,48,38,1967650964
97,20,17,Jits_Phase_5,1,5,63,98,1967692188
97,20,17,Jits_Phase_5,2,5,56,103,1967721788
97,20,17,Jits_Phase_5,3,5,80,127,1967724852
97,20,17,Jits_Phase_5,0,5,63,98,1968191936
97,20,17,Jits_Phase_5,1,1,48,36,1968205244
97,20,17,Jits_Phase_5,2,5,80,127,1968212536
97,20,17,Jits_Phase_5,3,5,56,103,1968221464
97,20,17,Jits_Phase_5,0,5,56,103,1968701804
97,20,17,Jits_Phase_5,1,5,63,98,1968704944
97,20,17,Jits_Phase_5,2,5,80,127,1968722556
97,20,17,Jits_Phase_5,3,1,48,40,1968727400
97,20,17,Jits_Phase_5,0,5,56,103,1969152560
97,20,17,Jits_Phase_5,1,5,63,98,1969161708
97,20,17,Jits_Phase_5,2,5,80,127,1969192280
97,20,17,Jits_Phase_5,3,1,48,37,1969202820
97,20,17,Jits_Phase_5,0,1,48,35,1969647480
97,20,17,Jits_Phase_5,1,5,63,98,1969671644
97,20,17,Jits_Phase_5,2,5,80,127,1969691952
97,20,17,Jits_Phase_5,3,5,56,103,1969731816
97,20,17,Jits_Phase_5,0,1,48,38,1970178924
97,20,17,Jits_Phase_5,1,5,56,103,1970201960
97,20,17,Jits_Phase_5,2,5,63,98,1970242044
97,20,17,Jits_Phase_5,3,5,80,127,1970245260
97,20,17,Jits_Phase_5,0,5,80,127,1970642668
97,20,17,Jits_Phase_5,1,5,56,103,1970682384
97,20,17,Jits_Phase_5,2,1,48,35,1970731080
97,20,17,Jits_Phase_5,3,5,63,98,1970732428
97,20,17,Jits_Phase_5,0,5,56,103,1971202520
97,20,17,Jits_Phase_5,1,5,80,127,1971211596
97,20,17,Jits_Phase_5,2,1,48,35,1971216208
97,20,17,Jits_Phase_5,3,5,63,98,1971242308
97,20,17,Jits_Phase_5,0,5,56,103,1971651944
97,20,17,Jits_Phase_5,1,5,80,127,1971691808
97,20,17,Jits_Phase_5,2,1,48,38,1971708628
97,20,17,Jits_Phase_5,3,5,63,98,1971742000
97,20,17,Jits_Phase_5,0,5,56,103,1972151708
97,20,17,Jits_Phase_5,1,5,80,127,1972191572
97,20,17,Jits_Phase_5,2,1,48,40,1972195208
97,20,17,Jits_Phase_5,3,5,63,98,1972241688
97,20,17,Jits_Phase_5,0,5,80,127,1972642328
97,20,17,Jits_Phase_5,1,1,48,39,1972675412
97,20,17,Jits_Phase_5,2,5,63,98,1972721968
97,20,17,Jits_Phase_5,3,5,56,103,1972732384
97,20,17,Jits_Phase_5,0,1,48,33,1973183116
97,20,17,Jits_Phase_5,1,5,80,127,1973192132
97,20,17,Jits_Phase_5,2,5,56,103,1973202256
97,20,17,Jits_Phase_5,3,5,63,98,1973221668
97,20,17,Jits_Phase_5,0,1,48,35,1973660560
97,20,17,Jits_Phase_5,1,5,63,98,1973661920
97,20,17,Jits_Phase_5,2,5,56,103,1973731672
97,20,17,Jits_Phase_5,3,5,80,127,1973734664
97,20,17,Jits_Phase_5,0,5,80,127,1974151456
97,20,17,Jits_Phase_5,1,1,48,31,1974200168
97,20,17,Jits_Phase_5,2,5,63,98,1974201676
97,20,17,Jits_Phase_5,3,5,56,103,1974241608
97,20,17,Jits_Phase_5,0,5,63,98,1974692300
97,20,17,Jits_Phase_5,1,1,48,35,1974721420
97,20,17,Jits_Phase_5,2,5,56,103,1974732232
97,20,17,Jits_Phase_5,3,5,80,127,1974742352
97,20,17,Jits_Phase_5,0,5,63,98,1975181616
97,20,17,Jits_Phase_5,1,5,56,103,1975202100
97,20,17,Jits_Phase_5,2,5,80,127,1975221584
97,20,17,Jits_Phase_5,3,1,48,36,1975222476
97,20,17,Jits_Phase_5,0,5,80,127,1975641428
97,20,17,Jits_Phase_5,1,5,56,103,1975651776
97,20,17,Jits_Phase_5,2,5,63,98,1975672232
97,20,17,Jits_Phase_5,3,1,48,33,1975715980
97,20,17,Jits_Phase_5,0,1,48,29,1976158308
97,20,17,Jits_Phase_5,1,5,63,98,1976171824
97,20,17,Jits_Phase_5,2,5,56,103,1976211764
97,20,17,Jits_Phase_5,3,5,80,127,1976241388
97,20,17,Jits_Phase_5,0,5,56,103,1976631728
97,20,17,Jits_Phase_5,1,5,63,98,1976662376
97,20,17,Jits_Phase_5,2,5,80,127,1976692048
97,20,17,Jits_Phase_5,3,1,48,34,1976718008
97,20,17,Jits_Phase_5,0,5,80,127,1977051488
97,20,17,Jits_Phase_5,1,5,56,103,1977122288
97,20,17,Jits_Phase_5,2,5,63,98,1977125204
97,20,17,Jits_Phase_5,3,1,48,30,1977202720
97,20,17,Jits_Phase_5,0,5,56,103,1977561508
97,20,17,Jits_Phase_5,1,5,63,98,1977611636
97,20,17,Jits_Phase_5,2,5,80,127,1977642204
97,20,17,Jits_Phase_5,3,1,48,30,1977643172
97,20,17,Jits_Phase_5,0,5,63,98,1978041792
97,20,17,Jits_Phase_5,1,5,80,127,1978045156
97,20,17,Jits_Phase_5,2,5,56,103,1978102404
97,20,17,Jits_Phase_5,3,1,48,28,1978112868
97,20,17,Jits_Phase_5,0,1,48,30,1978567040
97,20,17,Jits_Phase_5,1,5,56,103,1978572240
97,20,17,Jits_Phase_5,2,5,80,127,1978582512
97,20,17,Jits_Phase_5,3,5,63,98,1978631664
97,20,17,Jits_Phase_5,0,5,63,98,1979042404
97,20,17,Jits_Phase_5,1,5,56,103,1979052600
97,20,17,Jits_Phase_5,2,1,48,28,1979064260
97,20,17,Jits_Phase_5,3,5,80,127,1979082192
97,20,17,Jits_Phase_5,0,1,48,28,1979517360
97,20,17,Jits_Phase_5,1,5,63,98,1979571588
97,20,17,Jits_Phase_5,2,5,80,127,1979574952
97,20,17,Jits_Phase_5,3,5,56,103,1979602456
97,20,17,Jits_Phase_5,0,1,48,31,1980048864
97,20,17,Jits_Phase_5,1,5,63,98,1980091632
97,20,17,Jits_Phase_5,2,5,56,103,1980112384
97,20,17,Jits_Phase_5,3,5,80,127,1980115452
97,20,17,Jits_Phase_5,0,5,63,98,1980551496
97,20,17,Jits_Phase_5,1,1,48,39,1980596736
97,20,17,Jits_Phase_5,2,5,56,103,1980622168
97,20,17,Jits_Phase_5,3,5,80,127,1980641652
97,20,17,Jits_Phase_5,0,5,56,103,1981042252
97,20,17,Jits_Phase_5,1,5,63,98,1981052376
97,20,17,Jits_Phase_5,2,1,48,36,1981094772
97,20,17,Jits_Phase_5,3,5,80,127,1981142520
97,20,17,Jits_Phase_5,0,5,56,103,1981562172
97,20,17,Jits_Phase_5,1,1,48,31,1981593788
97,20,17,Jits_Phase_5,2,5,80,127,1981602352
97,20,17,Jits_Phase_5,3,5,63,98,1981612324
97,20,17,Jits_Phase_5,0,1,48,34,1982050068
97,20,17,Jits_Phase_5,1,5,56,103,1982082456
97,20,17,Jits_Phase_5,2,5,63,98,1982112452
97,20,17,Jits_Phase_5,3,5,80,127,1982141976
97,20,17,Jits_Phase_5,0,5,80,127,1982542432
97,20,17,Jits_Phase_5,1,1,48,35,1982572904
97,20,17,Jits_Phase_5,2,5,63,98,1982582288
97,20,17,Jits_Phase_5,3,5,56,103,1982601476
97,20,17,Jits_Phase_5,0,1,48,30,1983036236
97,20,17,Jits_Phase_5,1,5,56,103,1983081748
97,20,17,Jits_Phase_5,2,5,80,127,1983102280
97,20,17,Jits_Phase_5,3,5,63,98,1983121692
97,20,17,Jits_Phase_5,0,5,63,98,1983551836
97,20,17,Jits_Phase_5,1,1,48,35,1983557872
97,20,17,Jits_Phase_5,2,5,56,103,1983562176
97,20,17,Jits_Phase_5,3,5,80,127,1983621368
97,20,17,Jits_Phase_5,0,1,48,26,1984038136
97,20,17,Jits_Phase_5,1,5,56,103,1984051504
97,20,17,Jits_Phase_5,2,5,63,98,1984122084
97,20,17,Jits_Phase_5,3,5,80,127,1984141704
97,20,17,Jits_Phase_5,0,1,48,19,1984533172
97,20,17,Jits_Phase_5,1,5,56,103,1984552456
97,20,17,Jits_Phase_5,2,5,63,98,1984582128
97,20,17,Jits_Phase_5,3,5,80,127,1984622064
97,20,17,Jits_Phase_5,0,5,63,98,1985041720
97,20,17,Jits_Phase_5,1,1,48,29,1985073608
97,20,17,Jits_Phase_5,2,5,56,103,1985091988
97,20,17,Jits_Phase_5,3,5,80,127,1985102332
97,20,17,Jits_Phase_5,0,5,56,103,1985581552
97,20,17,Jits_Phase_5,1,1,48,26,1985590892
97,20,17,Jits_Phase_5,2,5,63,98,1985631520
97,20,17,Jits_Phase_5,3,5,80,127,1985641792
97,20,17,Jits_Phase_5,0,5,56,103,1986051504
97,20,17,Jits_Phase_5,1,5,63,98,1986061552
97,20,17,Jits_Phase_5,2,1,48,33,1986115832
97,20,17,Jits_Phase_5,3,5,80,127,1986141484
97,20,17,Jits_Phase_5,0,9999,9999,9999,1901819984
97,20,17,Jits_Phase_5,1,9999,9999,9999,1902319672
97,20,17,Jits_Phase_5,2,9999,9999,9999,1902819440
97,20,17,Jits_Phase_5,3,9999,9999,9999,1903319128
97,20,17,Jits_Phase_5,4,9999,9999,9999,1903819852
97,20,17,Jits_Phase_5,5,9999,9999,9999,1904319604
97,20,17,Jits_Phase_5,6,9999,9999,9999,1904819280
97,20,17,Jits_Phase_5,7,9999,9999,9999,1905320020
97,20,17,Jits_Phase_5,8,9999,9999,9999,1905819768
97,20,17,Jits_Phase_5,9,9999,9999,9999,1906319432
97,20,17,Jits_Phase_5,10,9999,9999,9999,1906819192
97,20,17,Jits_Phase_5,11,9999,9999,9999,1907319928
97,20,17,Jits_Phase_5,12,9999,9999,9999,1907819600
97,20,17,Jits_Phase_5,13,9999,9999,9999,1908319348
97,20,17,Jits_Phase_5,14,9999,9999,9999,1908820068
97,20,17,Jits_Phase_5,15,9999,9999,9999,1909319756
97,20,17,Jits_Phase_5,16,9999,9999,9999,1909819520
97,20,17,Jits_Phase_5,17,9999,9999,9999,1910319196
97,20,17,Jits_Phase_5,18,9999,9999,9999,1910819932
97,20,17,Jits_Phase_5,19,9999,9999,9999,1911319624
97,20,17,Jits_Phase_5,20,9999,9999,9999,1911819388
97,20,17,Jits_Phase_5,21,9999,9999,9999,1912320052
97,20,17,Jits_Phase_5,22,9999,9999,9999,1912830004
97,20,17,Jits_Phase_5,23,9999,9999,9999,1913329772
97,20,17,Jits_Phase_5,24,9999,9999,9999,1913829464
97,20,17,Jits_Phase_5,25,9999,9999,9999,1914329148
97,20,17,Jits_Phase_5,26,9999,9999,9999,1914829888
97,20,17,Jits_Phase_5,27,9999,9999,9999,1915329600
97,20,17,Jits_Phase_5,28,9999,9999,9999,1915829344
97,20,17,Jits_Phase_5,29,9999,9999,9999,1916330068
97,20,17,Jits_Phase_5,30,9999,9999,9999,1916819544
97,20,17,Jits_Phase_5,31,9999,9999,9999,1917319236
97,20,17,Jits_Phase_5,32,9999,9999,9999,1917819968
97,20,17,Jits_Phase_5,33,9999,9999,9999,1918319732
97,20,17,Jits_Phase_5,34,9999,9999,9999,1918819408
97,20,17,Jits_Phase_5,35,9999,9999,9999,1919319100
97,20,17,Jits_Phase_5,36,9999,9999,9999,1919819888
97,20,17,Jits_Phase_5,37,9999,9999,9999,1920319564
97,20,17,Jits_Phase_5,38,9999,9999,9999,1920819252
97,20,17,Jits_Phase_5,39,9999,9999,9999,1921320048
97,20,17,Jits_Phase_5,40,9999,9999,9999,1921819724
97,20,17,Jits_Phase_5,41,9999,9999,9999,1922319484
97,20,17,Jits_Phase_5,42,9999,9999,9999,1922819172
97,20,17,Jits_Phase_5,43,9999,9999,9999,1923319892
97,20,17,Jits_Phase_5,44,9999,9999,9999,1923819640
97,20,17,Jits_Phase_5,45,9999,9999,9999,1924319328
97,20,17,Jits_Phase_5,46,9999,9999,9999,1924820048
97,20,17,Jits_Phase_5,47,9999,9999,9999,1925319804
97,20,17,Jits_Phase_5,48,9999,9999,9999,1925829744
97,20,17,Jits_Phase_5,49,9999,9999,9999,1926329440
97,20,17,Jits_Phase_5,50,9999,9999,9999,1926829180
97,20,17,Jits_Phase_5,51,9999,9999,9999,1927329916
97,20,17,Jits_Phase_5,52,9999,9999,9999,1927829568
97,20,17,Jits_Phase_5,53,9999,9999,9999,1928329328
97,20,17,Jits_Phase_5,54,9999,9999,9999,1928830048
97,20,17,Jits_Phase_5,55,9999,9999,9999,1929329728
97,20,17,Jits_Phase_5,56,9999,9999,9999,1929829488
97,20,17,Jits_Phase_5,57,9999,9999,9999,1930329156
97,20,17,Jits_Phase_5,58,9999,9999,9999,1930829880
97,20,17,Jits_Phase_5,59,9999,9999,9999,1931329628
97,20,17,Jits_Phase_5,60,9999,9999,9999,1931829324
97,20,17,Jits_Phase_5,61,9999,9999,9999,1932330040
97,20,17,Jits_Phase_5,62,9999,9999,9999,1932829752
97,20,17,Jits_Phase_5,63,9999,9999,9999,1933329532
97,20,17,Jits_Phase_5,64,9999,9999,9999,1933849656
97,20,17,Jits_Phase_5,65,9999,9999,9999,1934349376
97,20,17,Jits_Phase_5,66,9999,9999,9999,1934849144
97,20,17,Jits_Phase_5,67,9999,9999,9999,1935349868
97,20,17,Jits_Phase_5,68,9999,9999,9999,1935849560
97,20,17,Jits_Phase_5,69,9999,9999,9999,1936349252
97,20,17,Jits_Phase_5,70,9999,9999,9999,1936850048
97,20,17,Jits_Phase_5,71,9999,9999,9999,1937349736
97,20,17,Jits_Phase_5,72,9999,9999,9999,1937849404
97,20,17,Jits_Phase_5,73,9999,9999,9999,1938349156
97,20,17,Jits_Phase_5,74,9999,9999,9999,1938849880
97,20,17,Jits_Phase_5,75,9999,9999,9999,1939349604
97,20,17,Jits_Phase_5,76,9999,9999,9999,1939849284
97,20,17,Jits_Phase_5,77,9999,9999,9999,1940350012
97,20,17,Jits_Phase_5,78,9999,9999,9999,1940849776
97,20,17,Jits_Phase_5,79,9999,9999,9999,1941349468
97,20,17,Jits_Phase_5,80,9999,9999,9999,1941849148
97,20,17,Jits_Phase_5,81,9999,9999,9999,1942329420
97,20,17,Jits_Phase_5,82,9999,9999,9999,1942829184
97,20,17,Jits_Phase_5,83,9999,9999,9999,1943329920
97,20,17,Jits_Phase_5,84,9999,9999,9999,1943829612
97,20,17,Jits_Phase_5,85,9999,9999,9999,1944329284
97,20,17,Jits_Phase_5,86,9999,9999,9999,1944830080
97,20,17,Jits_Phase_5,87,9999,9999,9999,1945329772
97,20,17,Jits_Phase_5,88,9999,9999,9999,1945829444
97,20,17,Jits_Phase_5,89,9999,9999,9999,1946329212
97,20,17,Jits_Phase_5,90,9999,9999,9999,1946829948
97,20,17,Jits_Phase_5,91,9999,9999,9999,1947329632
97,20,17,Jits_Phase_5,92,9999,9999,9999,1947829312
97,20,17,Jits_Phase_5,93,9999,9999,9999,1948330108
97,20,17,Jits_Phase_5,94,9999,9999,9999,1948829780
97,20,17,Jits_Phase_5,95,9999,9999,9999,1949329524
97,20,17,Jits_Phase_5,96,9999,9999,9999,1949829192
97,20,17,Jits_Phase_5,97,9999,9999,9999,1950279800
97,20,17,Jits_Phase_5,98,9999,9999,9999,1950779476
97,20,17,Jits_Phase_5,99,9999,9999,9999,1951279164
97,20,17,Jits_Phase_5,100,9999,9999,9999,1951779960
97,20,17,Jits_Phase_5,101,9999,9999,9999,1952279652
97,20,17,Jits_Phase_5,102,9999,9999,9999,1952779336
97,20,17,Jits_Phase_5,103,9999,9999,9999,1953280064
97,20,17,Jits_Phase_5,104,9999,9999,9999,1953790076
97,20,17,Jits_Phase_5,105,9999,9999,9999,1954289748
97,20,17,Jits_Phase_5,106,9999,9999,9999,1954789496
97,20,17,Jits_Phase_5,107,9999,9999,9999,1955289168
97,20,17,Jits_Phase_5,108,9999,9999,9999,1955789900
97,20,17,Jits_Phase_5,109,9999,9999,9999,1956289664
97,20,17,Jits_Phase_5,110,9999,9999,9999,1956789352
97,20,17,Jits_Phase_5,111,9999,9999,9999,1957290064
97,20,17,Jits_Phase_5,112,9999,9999,9999,1957789748
97,20,17,Jits_Phase_5,113,9999,9999,9999,1958289492
97,20,17,Jits_Phase_5,114,9999,9999,9999,1958839380
97,20,17,Jits_Phase_5,115,9999,9999,9999,1959339120
97,20,17,Jits_Phase_5,116,9999,9999,9999,1959839816
97,20,17,Jits_Phase_5,117,9999,9999,9999,1960339556
97,20,17,Jits_Phase_5,118,9999,9999,9999,1960839240
97,20,17,Jits_Phase_5,119,9999,9999,9999,1961340028
97,20,17,Jits_Phase_5,120,9999,9999,9999,1961839716
97,20,17,Jits_Phase_5,121,9999,9999,9999,1962339392
97,20,17,Jits_Phase_5,122,9999,9999,9999,1962839160
97,20,17,Jits_Phase_5,123,9999,9999,9999,1963339896
97,20,17,Jits_Phase_5,124,9999,9999,9999,1963839568
97,20,17,Jits_Phase_5,125,9999,9999,9999,1964339304
97,20,17,Jits_Phase_5,126,9999,9999,9999,1964840032
97,20,17,Jits_Phase_5,127,9999,9999,9999,1965339704
97,20,17,Jits_Phase_5,128,9999,9999,9999,1965839440
97,20,17,Jits_Phase_5,129,9999,9999,9999,1966339136
97,20,17,Jits_Phase_5,130,9999,9999,9999,1966839872
97,20,17,Jits_Phase_5,131,9999,9999,9999,1967439928
97,20,17,Jits_Phase_5,132,9999,9999,9999,1967939676
97,20,17,Jits_Phase_5,133,9999,9999,9999,1968439352
97,20,17,Jits_Phase_5,134,9999,9999,9999,1968939092
97,20,17,Jits_Phase_5,135,9999,9999,9999,1969439824
97,20,17,Jits_Phase_5,136,9999,9999,9999,1969939516
97,20,17,Jits_Phase_5,137,9999,9999,9999,1970439260
97,20,17,Jits_Phase_5,138,9999,9999,9999,1970939980
97,20,17,Jits_Phase_5,139,9999,9999,9999,1971439672
97,20,17,Jits_Phase_5,140,9999,9999,9999,1971939436
97,20,17,Jits_Phase_5,141,9999,9999,9999,1972439128
97,20,17,Jits_Phase_5,142,9999,9999,9999,1972939864
97,20,17,Jits_Phase_5,143,9999,9999,9999,1973439552
97,20,17,Jits_Phase_5,144,9999,9999,9999,1973939296
97,20,17,Jits_Phase_5,145,9999,9999,9999,1974440020
97,20,17,Jits_Phase_5,146,9999,9999,9999,1974939716
97,20,17,Jits_Phase_5,147,9999,9999,9999,1975439440
97,20,17,Jits_Phase_5,148,9999,9999,9999,1975939184
97,20,17,Jits_Phase_5,149,9999,9999,9999,1976439920
97,20,17,Jits_Phase_5,150,9999,9999,9999,1976839292
97,20,17,Jits_Phase_5,151,9999,9999,9999,1977340020
97,20,17,Jits_Phase_5,152,9999,9999,9999,1977839712
97,20,17,Jits_Phase_5,153,9999,9999,9999,1978339392
97,20,17,Jits_Phase_5,154,9999,9999,9999,1978839140
97,20,17,Jits_Phase_5,155,9999,9999,9999,1979339860
97,20,17,Jits_Phase_5,156,9999,9999,9999,1979839596
97,20,17,Jits_Phase_5,157,9999,9999,9999,1980339264
97,20,17,Jits_Phase_5,158,9999,9999,9999,1980840064
97,20,17,Jits_Phase_5,159,9999,9999,9999,1981339736
97,20,17,Jits_Phase_5,160,9999,9999,9999,1981839476
97,20,17,Jits_Phase_5,161,9999,9999,9999,1982339168
97,20,17,Jits_Phase_5,162,9999,9999,9999,1982839892
97,20,17,Jits_Phase_5,163,9999,9999,9999,1983339580
97,20,17,Jits_Phase_5,164,9999,9999,9999,1983839328
97,20,17,Jits_Phase_5,165,9999,9999,9999,1984340052
97,20,17,Jits_Phase_5,166,9999,9999,9999,1984839804
97,20,17,Jits_Phase_5,167,9999,9999,9999,1985339476
97,20,17,Jits_Phase_5,168,9999,9999,9999,1985839232
97,20,17,Jits_Phase_5,169,9999,9999,9999,1986339968
97,21,3,ISIP_8,0,5,42,127,2059194880
97,21,3,ISIP_8,1,5,42,127,2059994408
97,21,3,ISIP_8,2,1,48,34,2060740492
97,21,3,ISIP_8,3,5,42,127,2060795132
97,21,3,ISIP_8,4,1,48,37,2061543220
97,21,3,ISIP_8,5,5,42,127,2061595016
97,21,3,ISIP_8,6,1,48,32,2062362776
97,21,3,ISIP_8,7,5,42,127,2062394896
97,21,3,ISIP_8,8,1,48,28,2063121296
97,21,3,ISIP_8,9,5,42,127,2063194408
97,21,3,ISIP_8,10,1,48,21,2063932320
97,21,3,ISIP_8,11,5,42,127,2063995188
97,21,3,ISIP_8,12,1,48,32,2064671472
97,21,3,ISIP_8,13,5,42,127,2064794932
97,21,3,ISIP_8,14,1,48,27,2065502472
97,21,3,ISIP_8,15,5,42,127,2065594740
97,21,3,ISIP_8,16,1,48,27,2066285824
97,21,3,ISIP_8,17,5,42,127,2066394472
97,21,3,ISIP_8,18,1,48,27,2067102184
97,21,3,ISIP_8,19,5,42,127,2067195116
97,21,3,ISIP_8,20,1,48,37,2067904384
97,21,3,ISIP_8,21,5,42,127,2067995076
97,21,3,ISIP_8,22,1,48,29,2068726936
97,21,3,ISIP_8,23,5,42,127,2068794732
97,21,3,ISIP_8,24,1,48,27,2069539456
97,21,3,ISIP_8,25,5,42,127,2069594692
97,21,3,ISIP_8,26,1,48,30,2070355420
97,21,3,ISIP_8,27,5,42,127,2070395172
97,21,3,ISIP_8,28,1,48,30,2071116184
97,21,3,ISIP_8,29,5,42,127,2071195080
97,21,3,ISIP_8,30,1,48,29,2071938804
97,21,3,ISIP_8,31,5,42,127,2071994664
97,21,3,ISIP_8,32,1,48,28,2072726820
97,21,3,ISIP_8,33,5,42,127,2072794620
97,21,3,ISIP_8,34,1,48,32,2073515928
97,21,3,ISIP_8,35,5,42,127,2073595252
97,21,3,ISIP_8,36,1,48,29,2074337732
97,21,3,ISIP_8,37,5,42,127,2074394984
97,21,3,ISIP_8,38,1,48,26,2075143676
97,21,3,ISIP_8,39,5,42,127,2075194720
97,21,3,ISIP_8,40,1,48,24,2075958216
97,21,3,ISIP_8,41,5,42,127,2075994676
97,21,3,ISIP_8,42,1,48,22,2076735812
97,21,3,ISIP_8,43,5,42,127,2076795160
97,21,3,ISIP_8,44,1,48,29,2077577128
97,21,3,ISIP_8,45,5,42,127,2077594920
97,21,3,ISIP_8,46,1,48,23,2078375320
97,21,3,ISIP_8,47,5,42,127,2078394724
97,21,3,ISIP_8,48,5,42,127,2079194540
97,21,3,ISIP_8,49,1,48,26,2079200280
97,21,3,ISIP_8,50,1,48,27,2079992888
97,21,3,ISIP_8,51,5,42,127,2079995384
97,21,3,ISIP_8,52,1,48,34,2080781848
97,21,3,ISIP_8,53,5,42,127,2080794972
97,21,3,ISIP_8,54,5,42,127,2081594712
97,21,3,ISIP_8,55,1,48,32,2081602316
97,21,3,ISIP_8,56,5,42,127,2082394592
97,21,3,ISIP_8,57,1,48,27,2082398688
97,21,3,ISIP_8,58,1,48,33,2083168256
97,21,3,ISIP_8,59,1,48,35,2083954444
97,21,3,ISIP_8,60,1,48,28,2084746548
97,21,3,ISIP_8,61,1,48,26,2085532840
97,21,3,ISIP_8,62,1,48,24,2086355676
97,21,3,ISIP_8,63,1,48,24,2087122276
97,21,3,ISIP_8,64,1,48,27,2087930008
97,21,3,ISIP_8,65,1,48,23,2088764444
97,21,3,ISIP_8,66,1,48,33,2089549964
97,21,3,ISIP_8,67,1,48,31,2090314232
97,21,3,ISIP_8,68,1,48,33,2091105208
97,21,3,ISIP_8,69,1,48,24,2091883100
97,21,3,ISIP_8,70,1,48,23,2092691008
97,21,3,ISIP_8,71,1,48,28,2093500164
97,21,3,ISIP_8,72,1,48,30,2094319940
97,21,3,ISIP_8,73,1,48,36,2095085408
97,21,3,ISIP_8,74,1,48,27,2095907500
97,21,3,ISIP_8,75,1,48,34,2096713364
97,21,3,ISIP_8,76,1,48,29,2097520728
97,21,3,ISIP_8,77,1,48,35,2098312972
97,21,3,ISIP_8,78,1,48,31,2099127984
97,21,3,ISIP_8,79,1,48,42,2099945668
97,21,3,ISIP_8,80,1,48,42,2100721688
97,21,3,ISIP_8,81,1,48,41,2101530840
97,21,3,ISIP_8,82,1,48,47,2102386064
97,21,3,ISIP_8,83,1,48,43,2103212684
97,21,3,ISIP_8,84,1,48,46,2104033360
97,21,3,ISIP_8,85,1,48,39,2104881032
97,21,3,ISIP_8,86,1,48,33,2105740604
97,21,3,ISIP_8,87,1,48,38,2106549484
97,21,3,ISIP_8,88,1,48,31,2107324972
97,21,3,ISIP_8,89,1,48,33,2108146168
97,21,3,ISIP_8,90,1,48,34,2108938792
97,21,3,ISIP_8,91,1,48,33,2109758340
97,21,3,ISIP_8,92,1,48,33,2110566900
97,21,3,ISIP_8,93,1,48,31,2111424320
97,21,3,ISIP_8,94,1,48,27,2112224800
97,21,3,ISIP_8,95,1,48,26,2112978600
97,21,3,ISIP_8,96,1,48,38,2113798072
97,21,3,ISIP_8,97,1,48,40,2114605140
97,21,3,ISIP_8,98,1,48,43,2115395740
97,21,3,ISIP_8,99,1,48,33,2116176920
97,21,3,ISIP_8,100,1,48,37,2116892952
97,21,3,ISIP_8,101,1,48,21,2117617056
97,21,3,ISIP_8,102,1,48,35,2118375036
97,21,3,ISIP_8,103,1,48,42,2119176108
97,21,3,ISIP_8,104,1,48,38,2119960132
97,21,3,ISIP_8,105,1,48,38,2120750292
97,21,3,ISIP_8,106,1,48,33,2121547696
97,21,3,ISIP_8,107,1,48,35,2122319008
97,21,3,ISIP_8,108,1,48,32,2123124044
97,21,3,ISIP_8,109,1,48,39,2123896848
97,21,3,ISIP_8,110,1,48,30,2124720388
97,21,3,ISIP_8,111,1,48,31,2125490272
97,21,3,ISIP_8,112,1,48,33,2126252748
97,21,3,ISIP_8,113,1,48,28,2127101620
97,21,3,ISIP_8,114,1,48,32,2127866788
97,21,3,ISIP_8,115,1,48,32,2128598308
97,21,3,ISIP_8,116,1,48,38,2129415536
97,21,3,ISIP_8,117,1,48,28,2130224320
97,21,3,ISIP_8,118,1,48,31,2131014544
97,21,3,ISIP_8,119,1,48,33,2131819740
97,21,3,ISIP_8,120,1,48,29,2132581620
97,21,3,ISIP_8,121,1,48,31,2133392068
97,21,3,ISIP_8,122,1,48,29,2134200776
97,21,3,ISIP_8,123,1,48,34,2135003044
97,21,3,ISIP_8,124,1,48,30,2135812048
97,21,3,ISIP_8,125,1,48,31,2136616416
97,21,3,ISIP_8,126,1,48,29,2137428484
97,21,3,ISIP_8,127,1,48,35,2138223576
97,21,3,ISIP_8,128,1,48,33,2138998544
97,21,3,ISIP_8,129,1,48,32,2139767680
97,21,3,ISIP_8,130,1,48,27,2140550512
97,21,3,ISIP_8,131,1,48,33,2141333428
97,21,3,ISIP_8,132,1,48,27,2142146700
97,21,3,ISIP_8,133,1,48,38,2142931620
97,21,3,ISIP_8,134,1,48,20,2143734792
97,21,3,ISIP_8,135,1,48,29,2144518368
97,21,3,ISIP_8,136,1,48,36,2145340536
97,21,3,ISIP_8,137,1,48,39,2146162476
97,21,3,ISIP_8,138,1,48,38,2146999556
97,21,3,ISIP_8,139,1,48,43,2147823668
97,21,3,ISIP_8,140,1,48,47,2148626760
97,21,3,ISIP_8,141,1,48,43,2149454316
97,21,3,ISIP_8,142,1,48,47,2150277752
97,21,3,ISIP_8,143,1,48,41,2151105932
97,21,3,ISIP_8,144,1,48,40,2151889576
97,21,3,ISIP_8,145,1,48,42,2152679208
97,21,3,ISIP_8,146,1,48,40,2153506536
97,21,3,ISIP_8,147,1,48,42,2154313224
97,21,3,ISIP_8,148,1,48,37,2155100540
97,21,3,ISIP_8,149,1,48,29,2155918016
97,21,3,ISIP_8,150,1,48,32,2156724256
97,21,3,ISIP_8,151,1,48,43,2157501472
97,21,3,ISIP_8,152,1,48,42,2158318472
97,21,3,ISIP_8,153,1,48,36,2159128604
97,21,3,ISIP_8,154,1,48,40,2159928780
97,21,3,ISIP_8,155,1,48,40,2160732548
97,21,3,ISIP_8,156,1,48,39,2161542000
97,21,3,ISIP_8,157,1,48,38,2162365688
97,21,3,ISIP_8,158,1,48,37,2163216140
97,21,3,ISIP_8,159,1,48,30,2164062844
97,21,3,ISIP_8,160,1,48,39,2164839308
97,21,3,ISIP_8,161,1,48,36,2165666292
97,21,3,ISIP_8,162,1,48,34,2166422336
97,21,3,ISIP_8,163,1,48,33,2167211672
97,21,3,ISIP_8,164,1,48,27,2168033092
97,21,3,ISIP_8,165,1,48,32,2168784708
97,21,3,ISIP_8,166,1,48,29,2169605252
97,21,3,ISIP_8,167,1,48,32,2170377136
97,21,3,ISIP_8,168,1,48,29,2171141040
97,21,3,ISIP_8,169,1,48,45,2171927228
97,21,3,ISIP_8,170,1,48,40,2172768324
97,21,3,ISIP_8,171,1,48,35,2173567232
97,21,3,ISIP_8,172,1,48,30,2174361076
97,21,3,ISIP_8,173,1,48,35,2175112008
97,21,3,ISIP_8,174,1,48,30,2175955668
97,21,3,ISIP_8,175,1,48,35,2176763108
97,21,3,ISIP_8,176,1,48,38,2177588416
97,21,3,ISIP_8,177,1,48,36,2178442312
97,21,3,ISIP_8,178,1,48,35,2179173036
97,21,3,ISIP_8,0,9999,9999,9999,2059192368
97,21,3,ISIP_8,1,9999,9999,9999,2059992120
97,21,3,ISIP_8,2,9999,9999,9999,2060792916
97,21,3,ISIP_8,3,9999,9999,9999,2061592652
97,21,3,ISIP_8,4,9999,9999,9999,2062392384
97,21,3,ISIP_8,5,9999,9999,9999,2063192120
97,21,3,ISIP_8,6,9999,9999,9999,2063992900
97,21,3,ISIP_8,7,9999,9999,9999,2064792644
97,21,3,ISIP_8,8,9999,9999,9999,2065592424
97,21,3,ISIP_8,9,9999,9999,9999,2066392184
97,21,3,ISIP_8,10,9999,9999,9999,2067192904
97,21,3,ISIP_8,11,9999,9999,9999,2067992636
97,21,3,ISIP_8,12,9999,9999,9999,2068792372
97,21,3,ISIP_8,13,9999,9999,9999,2069592180
97,21,3,ISIP_8,14,9999,9999,9999,2070392884
97,21,3,ISIP_8,15,9999,9999,9999,2071192644
97,21,3,ISIP_8,16,9999,9999,9999,2071992376
97,21,3,ISIP_8,17,9999,9999,9999,2072792184
97,21,3,ISIP_8,18,9999,9999,9999,2073592888
97,21,3,ISIP_8,19,9999,9999,9999,2074392620
97,21,3,ISIP_8,20,9999,9999,9999,2075192432
97,21,3,ISIP_8,21,9999,9999,9999,2075992164
97,21,3,ISIP_8,22,9999,9999,9999,2076792944
97,21,3,ISIP_8,23,9999,9999,9999,2077592632
97,21,3,ISIP_8,24,9999,9999,9999,2078392436
97,21,3,ISIP_8,25,9999,9999,9999,2079192176
97,21,3,ISIP_8,26,9999,9999,9999,2079992948
97,21,3,ISIP_8,27,9999,9999,9999,2080792684
97,21,3,ISIP_8,28,9999,9999,9999,2081592424
97,21,3,ISIP_8,29,9999,9999,9999,2082392156
97,21,3,ISIP_8,30,9999,9999,9999,2083192932
97,21,3,ISIP_8,31,9999,9999,9999,2083992684
97,21,3,ISIP_8,32,9999,9999,9999,2084792412
97,21,3,ISIP_8,33,9999,9999,9999,2085592140
97,21,3,ISIP_8,34,9999,9999,9999,2086392916
97,21,3,ISIP_8,35,9999,9999,9999,2087192648
97,21,3,ISIP_8,36,9999,9999,9999,2087992376
97,21,3,ISIP_8,37,9999,9999,9999,2088792180
97,21,3,ISIP_8,38,9999,9999,9999,2089592884
97,21,3,ISIP_8,39,9999,9999,9999,2090392636
97,21,3,ISIP_8,40,9999,9999,9999,2091192368
97,21,3,ISIP_8,41,9999,9999,9999,2091992152
97,21,3,ISIP_8,42,9999,9999,9999,2092792932
97,21,3,ISIP_8,43,9999,9999,9999,2093592676
97,21,3,ISIP_8,44,9999,9999,9999,2094392408
97,21,3,ISIP_8,45,9999,9999,9999,2095192120
97,21,3,ISIP_8,46,9999,9999,9999,2095992912
97,21,3,ISIP_8,47,9999,9999,9999,2096792664
97,21,3,ISIP_8,48,9999,9999,9999,2097592396
97,21,3,ISIP_8,49,9999,9999,9999,2098392124
97,21,3,ISIP_8,50,9999,9999,9999,2099192900
97,21,3,ISIP_8,51,9999,9999,9999,2099992628
97,21,3,ISIP_8,52,9999,9999,9999,2100792432
97,21,3,ISIP_8,53,9999,9999,9999,2101592160
97,21,3,ISIP_8,54,9999,9999,9999,2102392936
97,21,3,ISIP_8,55,9999,9999,9999,2103192624
97,21,3,ISIP_8,56,9999,9999,9999,2103992424
97,21,3,ISIP_8,57,9999,9999,9999,2104792156
97,21,3,ISIP_8,58,9999,9999,9999,2105592932
97,21,3,ISIP_8,59,9999,9999,9999,2106392660
97,21,3,ISIP_8,60,9999,9999,9999,2107192392
97,21,3,ISIP_8,61,9999,9999,9999,2107992120
97,21,3,ISIP_8,62,9999,9999,9999,2108792896
97,21,3,ISIP_8,63,9999,9999,9999,2109592648
97,21,3,ISIP_8,64,9999,9999,9999,2110392380
97,21,3,ISIP_8,65,9999,9999,9999,2111192184
97,21,3,ISIP_8,66,9999,9999,9999,2111992884
97,21,3,ISIP_8,67,9999,9999,9999,2112792688
97,21,3,ISIP_8,68,9999,9999,9999,2113592416
97,21,3,ISIP_8,69,9999,9999,9999,2114392144
97,21,3,ISIP_8,70,9999,9999,9999,2115192920
97,21,3,ISIP_8,71,9999,9999,9999,2115992676
97,21,3,ISIP_8,72,9999,9999,9999,2116792404
97,21,3,ISIP_8,73,9999,9999,9999,2117592132
97,21,3,ISIP_8,74,9999,9999,9999,2118392900
97,21,3,ISIP_8,75,9999,9999,9999,2119192632
97,21,3,ISIP_8,76,9999,9999,9999,2119992436
97,21,3,ISIP_8,77,9999,9999,9999,2120792164
97,21,3,ISIP_8,78,9999,9999,9999,2121592940
97,21,3,ISIP_8,79,9999,9999,9999,2122392692
97,21,3,ISIP_8,80,9999,9999,9999,2123192424
97,21,3,ISIP_8,81,9999,9999,9999,2123992136
97,21,3,ISIP_8,82,9999,9999,9999,2124792928
97,21,3,ISIP_8,83,9999,9999,9999,2125592640
97,21,3,ISIP_8,84,9999,9999,9999,2126392372
97,21,3,ISIP_8,85,9999,9999,9999,2127192116
97,21,3,ISIP_8,86,9999,9999,9999,2127992948
97,21,3,ISIP_8,87,9999,9999,9999,2128792628
97,21,3,ISIP_8,88,9999,9999,9999,2129592432
97,21,3,ISIP_8,89,9999,9999,9999,2130392160
97,21,3,ISIP_8,90,9999,9999,9999,2131192940
97,21,3,ISIP_8,91,9999,9999,9999,2131992668
97,21,3,ISIP_8,92,9999,9999,9999,2132792396
97,21,3,ISIP_8,93,9999,9999,9999,2133592128
97,21,3,ISIP_8,94,9999,9999,9999,2134392904
97,21,3,ISIP_8,95,9999,9999,9999,2135192656
97,21,3,ISIP_8,96,9999,9999,9999,2135992384
97,21,3,ISIP_8,97,9999,9999,9999,2136792116
97,21,3,ISIP_8,98,9999,9999,9999,2137592892
97,21,3,ISIP_8,99,9999,9999,9999,2138392692
97,21,3,ISIP_8,100,9999,9999,9999,2139192424
97,21,3,ISIP_8,101,9999,9999,9999,2139992152
97,21,3,ISIP_8,102,9999,9999,9999,2140792924
97,21,3,ISIP_8,103,9999,9999,9999,2141592680
97,21,3,ISIP_8,104,9999,9999,9999,2142392408
97,21,3,ISIP_8,105,9999,9999,9999,2143192140
97,21,3,ISIP_8,106,9999,9999,9999,2143992916
97,21,3,ISIP_8,107,9999,9999,9999,2144792644
97,21,3,ISIP_8,108,9999,9999,9999,2145592376
97,21,3,ISIP_8,109,9999,9999,9999,2146392180
97,21,3,ISIP_8,110,9999,9999,9999,2147192880
97,21,3,ISIP_8,111,9999,9999,9999,2147992632
97,21,3,ISIP_8,112,9999,9999,9999,2148792436
97,21,3,ISIP_8,113,9999,9999,9999,2149592168
97,21,3,ISIP_8,114,9999,9999,9999,2150392940
97,21,3,ISIP_8,115,9999,9999,9999,2151192684
97,21,3,ISIP_8,116,9999,9999,9999,2151992400
97,21,3,ISIP_8,117,9999,9999,9999,2152792128
97,21,3,ISIP_8,118,9999,9999,9999,2153592920
97,21,3,ISIP_8,119,9999,9999,9999,2154392672
97,21,3,ISIP_8,120,9999,9999,9999,2155192388
97,21,3,ISIP_8,121,9999,9999,9999,2155992132
97,21,3,ISIP_8,122,9999,9999,9999,2156792908
97,21,3,ISIP_8,123,9999,9999,9999,2157592636
97,21,3,ISIP_8,124,9999,9999,9999,2158392440
97,21,3,ISIP_8,125,9999,9999,9999,2159192168
97,21,3,ISIP_8,126,9999,9999,9999,2159992944
97,21,3,ISIP_8,127,9999,9999,9999,2160792624
97,21,3,ISIP_8,128,9999,9999,9999,2161592428
97,21,3,ISIP_8,129,9999,9999,9999,2162392156
97,21,3,ISIP_8,130,9999,9999,9999,2163192940
97,21,3,ISIP_8,131,9999,9999,9999,2163992668
97,21,3,ISIP_8,132,9999,9999,9999,2164792396
97,21,3,ISIP_8,133,9999,9999,9999,2165592124
97,21,3,ISIP_8,134,9999,9999,9999,2166392900
97,21,3,ISIP_8,135,9999,9999,9999,2167192656
97,21,3,ISIP_8,136,9999,9999,9999,2167992384
97,21,3,ISIP_8,137,9999,9999,9999,2168792180
97,21,3,ISIP_8,138,9999,9999,9999,2169592888
97,21,3,ISIP_8,139,9999,9999,9999,2170392688
97,21,3,ISIP_8,140,9999,9999,9999,2171192416
97,21,3,ISIP_8,141,9999,9999,9999,2171992144
97,21,3,ISIP_8,142,9999,9999,9999,2172792920
97,21,3,ISIP_8,143,9999,9999,9999,2173592676
97,21,3,ISIP_8,144,9999,9999,9999,2174392404
97,21,3,ISIP_8,145,9999,9999,9999,2175192132
97,21,3,ISIP_8,146,9999,9999,9999,2175992908
97,21,3,ISIP_8,147,9999,9999,9999,2176792640
97,21,3,ISIP_8,148,9999,9999,9999,2177592368
97,21,3,ISIP_8,149,9999,9999,9999,2178392176
97,22,5,ISIP_5,0,5,42,127,2202866984
97,22,5,ISIP_5,1,5,42,127,2203366700
97,22,5,ISIP_5,2,1,48,34,2203832348
97,22,5,ISIP_5,3,5,42,127,2203866560
97,22,5,ISIP_5,4,5,42,127,2204367160
97,22,5,ISIP_5,5,1,48,40,2204375072
97,22,5,ISIP_5,6,5,42,127,2204866780
97,22,5,ISIP_5,7,1,48,43,2204920840
97,22,5,ISIP_5,8,5,42,127,2205366700
97,22,5,ISIP_5,9,1,48,32,2205387920
97,22,5,ISIP_5,10,1,48,41,2205854460
97,22,5,ISIP_5,11,5,42,127,2205867660
97,22,5,ISIP_5,12,5,42,127,2206367060
97,22,5,ISIP_5,13,1,48,39,2206372796
97,22,5,ISIP_5,14,5,42,127,2206866684
97,22,5,ISIP_5,15,1,48,36,2206868172
97,22,5,ISIP_5,16,5,42,127,2207366652
97,22,5,ISIP_5,17,1,48,35,2207380572
97,22,5,ISIP_5,18,5,42,127,2207867320
97,22,5,ISIP_5,19,1,48,39,2207876944
97,22,5,ISIP_5,20,5,42,127,2208366864
97,22,5,ISIP_5,21,1,48,37,2208371032
97,22,5,ISIP_5,22,1,48,32,2208863824
97,22,5,ISIP_5,23,5,42,127,2208866552
97,22,5,ISIP_5,24,1,48,35,2209338988
97,22,5,ISIP_5,25,5,42,127,2209367668
97,22,5,ISIP_5,26,1,48,31,2209856408
97,22,5,ISIP_5,27,5,42,127,2209867140
97,22,5,ISIP_5,28,1,48,36,2210355360
97,22,5,ISIP_5,29,5,42,127,2210366760
97,22,5,ISIP_5,30,1,48,37,2210844580
97,22,5,ISIP_5,31,5,42,127,2210866532
97,22,5,ISIP_5,32,1,48,41,2211340164
97,22,5,ISIP_5,33,5,42,127,2211367124
97,22,5,ISIP_5,34,1,48,39,2211844348
97,22,5,ISIP_5,35,5,42,127,2211867264
97,22,5,ISIP_5,36,1,48,32,2212345240
97,22,5,ISIP_5,37,5,42,127,2212366664
97,22,5,ISIP_5,38,5,42,127,2212866444
97,22,5,ISIP_5,39,1,48,37,2212867780
97,22,5,ISIP_5,40,1,48,39,2213322268
97,22,5,ISIP_5,41,5,42,127,2213367028
97,22,5,ISIP_5,42,5,42,127,2213866804
97,22,5,ISIP_5,43,1,48,29,2213980700
97,22,5,ISIP_5,44,5,42,127,2214366500
97,22,5,ISIP_5,45,1,48,33,2214371564
97,22,5,ISIP_5,46,1,48,37,2214856576
97,22,5,ISIP_5,47,5,42,127,2214867532
97,22,5,ISIP_5,48,1,48,43,2215342216
97,22,5,ISIP_5,49,5,42,127,2215366928
97,22,5,ISIP_5,50,5,42,127,2215866780
97,22,5,ISIP_5,51,1,48,47,2215887476
97,22,5,ISIP_5,52,5,42,127,2216366552
97,22,5,ISIP_5,53,1,48,42,2216368112
97,22,5,ISIP_5,54,1,48,42,2216859928
97,22,5,ISIP_5,55,5,42,127,2216867436
97,22,5,ISIP_5,56,1,48,44,2217350916
97,22,5,ISIP_5,57,5,42,127,2217366832
97,22,5,ISIP_5,58,1,48,35,2217829820
97,22,5,ISIP_5,59,5,42,127,2217866604
97,22,5,ISIP_5,60,1,48,41,2218340208
97,22,5,ISIP_5,61,5,42,127,2218367540
97,22,5,ISIP_5,62,5,42,127,2218867020
97,22,5,ISIP_5,63,1,48,45,2218884948
97,22,5,ISIP_5,64,1,48,40,2219358224
97,22,5,ISIP_5,65,5,42,127,2219366708
97,22,5,ISIP_5,66,1,48,43,2219848944
97,22,5,ISIP_5,67,5,42,127,2219866552
97,22,5,ISIP_5,68,1,48,37,2220348408
97,22,5,ISIP_5,69,5,42,127,2220367292
97,22,5,ISIP_5,70,1,48,40,2220847212
97,22,5,ISIP_5,71,5,42,127,2220866988
97,22,5,ISIP_5,72,1,48,46,2221341516
97,22,5,ISIP_5,73,5,42,127,2221366608
97,22,5,ISIP_5,74,1,48,44,2221855720
97,22,5,ISIP_5,75,5,42,127,2221867352
97,22,5,ISIP_5,76,1,48,39,2222353096
97,22,5,ISIP_5,77,5,42,127,2222367044
97,22,5,ISIP_5,78,1,48,36,2222829528
97,22,5,ISIP_5,79,1,48,41,2223394460
97,22,5,ISIP_5,80,1,48,39,2223882932
97,22,5,ISIP_5,81,1,48,42,2224386884
97,22,5,ISIP_5,82,1,48,37,2224876180
97,22,5,ISIP_5,83,1,48,40,2225373100
97,22,5,ISIP_5,84,1,48,42,2225870776
97,22,5,ISIP_5,85,1,48,35,2226357736
97,22,5,ISIP_5,86,1,48,40,2226858328
97,22,5,ISIP_5,87,1,48,43,2227343432
97,22,5,ISIP_5,88,1,48,39,2227839060
97,22,5,ISIP_5,89,1,48,40,2228303144
97,22,5,ISIP_5,90,1,48,44,2228801864
97,22,5,ISIP_5,91,1,48,42,2229307760
97,22,5,ISIP_5,92,1,48,40,2229805356
97,22,5,ISIP_5,93,1,48,34,2230267640
97,22,5,ISIP_5,94,1,48,43,2230815128
97,22,5,ISIP_5,95,1,48,34,2231303824
97,22,5,ISIP_5,96,1,48,40,2231810104
97,22,5,ISIP_5,97,1,48,38,2232318316
97,22,5,ISIP_5,98,1,48,43,2232818832
97,22,5,ISIP_5,99,1,48,47,2233298848
97,22,5,ISIP_5,100,1,48,41,2233782684
97,22,5,ISIP_5,101,1,48,40,2234262704
97,22,5,ISIP_5,102,1,48,47,2234762248
97,22,5,ISIP_5,103,1,48,43,2235250696
97,22,5,ISIP_5,104,1,48,44,2235747836
97,22,5,ISIP_5,105,1,48,40,2236234364
97,22,5,ISIP_5,106,1,48,48,2236720740
97,22,5,ISIP_5,107,1,48,46,2237243092
97,22,5,ISIP_5,108,1,48,42,2237718400
97,22,5,ISIP_5,109,1,48,43,2238215400
97,22,5,ISIP_5,110,1,48,47,2238720848
97,22,5,ISIP_5,111,1,48,43,2239216496
97,22,5,ISIP_5,112,1,48,41,2239705868
97,22,5,ISIP_5,113,1,48,38,2240214092
97,22,5,ISIP_5,114,1,48,38,2240668676
97,22,5,ISIP_5,115,1,48,39,2241134908
97,22,5,ISIP_5,116,1,48,41,2241604600
97,22,5,ISIP_5,117,1,48,32,2242096292
97,22,5,ISIP_5,118,1,48,40,2242569504
97,22,5,ISIP_5,119,1,48,41,2243032320
97,22,5,ISIP_5,120,1,48,34,2243545844
97,22,5,ISIP_5,121,1,48,43,2244024292
97,22,5,ISIP_5,122,1,48,46,2244493320
97,22,5,ISIP_5,123,1,48,44,2244996500
97,22,5,ISIP_5,124,1,48,46,2245451756
97,22,5,ISIP_5,125,1,48,47,2245947488
97,22,5,ISIP_5,126,1,48,48,2246437156
97,22,5,ISIP_5,127,1,48,47,2246904828
97,22,5,ISIP_5,128,1,48,46,2247413048
97,22,5,ISIP_5,129,1,48,46,2247883564
97,22,5,ISIP_5,130,1,48,50,2248394032
97,22,5,ISIP_5,131,1,48,48,2248870460
97,22,5,ISIP_5,132,1,48,47,2249319996
97,22,5,ISIP_5,133,1,48,41,2249813700
97,22,5,ISIP_5,134,1,48,46,2250283100
97,22,5,ISIP_5,135,1,48,46,2250755188
97,22,5,ISIP_5,136,1,48,44,2251244256
97,22,5,ISIP_5,137,1,48,40,2251733700
97,22,5,ISIP_5,138,1,48,47,2252214988
97,22,5,ISIP_5,139,1,48,43,2252716180
97,22,5,ISIP_5,140,1,48,37,2253167148
97,22,5,ISIP_5,141,1,48,39,2253632432
97,22,5,ISIP_5,142,1,48,56,2254113720
97,22,5,ISIP_5,143,1,48,38,2254598976
97,22,5,ISIP_5,144,1,48,31,2255094108
97,22,5,ISIP_5,145,1,48,40,2255548548
97,22,5,ISIP_5,146,1,48,57,2256053768
97,22,5,ISIP_5,147,1,48,48,2256514984
97,22,5,ISIP_5,148,1,48,45,2256988800
97,22,5,ISIP_5,149,1,48,44,2257486316
97,22,5,ISIP_5,150,1,48,46,2257946816
97,22,5,ISIP_5,151,1,48,45,2258410608
97,22,5,ISIP_5,152,1,48,46,2258879704
97,22,5,ISIP_5,153,1,48,50,2259383360
97,22,5,ISIP_5,154,1,48,48,2259856924
97,22,5,ISIP_5,155,1,48,47,2260324204
97,22,5,ISIP_5,156,1,48,49,2260863688
97,22,5,ISIP_5,157,1,48,47,2261350816
97,22,5,ISIP_5,158,1,48,46,2261805848
97,22,5,ISIP_5,159,1,48,49,2262251460
97,22,5,ISIP_5,160,1,48,45,2262736860
97,22,5,ISIP_5,161,1,48,46,2263217032
97,22,5,ISIP_5,162,1,48,46,2263693908
97,22,5,ISIP_5,163,1,48,46,2264192900
97,22,5,ISIP_5,164,1,48,46,2264649136
97,22,5,ISIP_5,165,1,48,43,2265128628
97,22,5,ISIP_5,166,1,48,43,2265577832
97,22,5,ISIP_5,167,1,48,38,2266106920
97,22,5,ISIP_5,168,1,48,42,2266619400
97,22,5,ISIP_5,169,1,48,43,2267069500
97,22,5,ISIP_5,170,1,48,45,2267560964
97,22,5,ISIP_5,171,1,48,43,2268030560
97,22,5,ISIP_5,172,1,48,42,2268522096
97,22,5,ISIP_5,173,1,48,45,2269013184
97,22,5,ISIP_5,174,1,48,40,2269504872
97,22,5,ISIP_5,175,1,48,43,2269985188
97,22,5,ISIP_5,176,1,48,38,2270463932
97,22,5,ISIP_5,177,1,48,43,2270992652
97,22,5,ISIP_5,178,1,48,43,2271493684
97,22,5,ISIP_5,179,1,48,41,2271977292
97,22,5,ISIP_5,180,1,48,42,2272485516
97,22,5,ISIP_5,181,1,48,43,2273001516
97,22,5,ISIP_5,182,1,48,41,2273480784
97,22,5,ISIP_5,183,1,48,42,2273945768
97,22,5,ISIP_5,184,1,48,40,2274464676
97,22,5,ISIP_5,185,1,48,38,2274945052
97,22,5,ISIP_5,186,1,48,44,2275395220
97,22,5,ISIP_5,187,1,48,43,2275844784
97,22,5,ISIP_5,188,1,48,43,2276366028
97,22,5,ISIP_5,189,1,48,42,2276813496
97,22,5,ISIP_5,190,1,48,42,2277293816
97,22,5,ISIP_5,191,1,48,45,2277806448
97,22,5,ISIP_5,192,1,48,41,2278297684
97,22,5,ISIP_5,193,1,48,38,2278760556
97,22,5,ISIP_5,194,1,48,39,2279255528
97,22,5,ISIP_5,195,1,48,42,2279779152
97,22,5,ISIP_5,196,1,48,41,2280289764
97,22,5,ISIP_5,197,1,48,41,2280786536
97,22,5,ISIP_5,198,1,48,45,2281294080
97,22,5,ISIP_5,199,1,48,45,2281802744
97,22,5,ISIP_5,200,1,48,44,2282303408
97,22,5,ISIP_5,201,1,48,45,2282816408
97,22,5,ISIP_5,0,9999,9999,9999,2202864696
97,22,5,ISIP_5,1,9999,9999,9999,2203364416
97,22,5,ISIP_5,2,9999,9999,9999,2203864124
97,22,5,ISIP_5,3,9999,9999,9999,2204364872
97,22,5,ISIP_5,4,9999,9999,9999,2204864568
97,22,5,ISIP_5,5,9999,9999,9999,2205364336
97,22,5,ISIP_5,6,9999,9999,9999,2205865072
97,22,5,ISIP_5,7,9999,9999,9999,2206364776
97,22,5,ISIP_5,8,9999,9999,9999,2206864472
97,22,5,ISIP_5,9,9999,9999,9999,2207364216
97,22,5,ISIP_5,10,9999,9999,9999,2207864884
97,22,5,ISIP_5,11,9999,9999,9999,2208364652
97,22,5,ISIP_5,12,9999,9999,9999,2208864340
97,22,5,ISIP_5,13,9999,9999,9999,2209365084
97,22,5,ISIP_5,14,9999,9999,9999,2209864780
97,22,5,ISIP_5,15,9999,9999,9999,2210364472
97,22,5,ISIP_5,16,9999,9999,9999,2210864244
97,22,5,ISIP_5,17,9999,9999,9999,2211364912
97,22,5,ISIP_5,18,9999,9999,9999,2211864680
97,22,5,ISIP_5,19,9999,9999,9999,2212364380
97,22,5,ISIP_5,20,9999,9999,9999,2212864080
97,22,5,ISIP_5,21,9999,9999,9999,2213364816
97,22,5,ISIP_5,22,9999,9999,9999,2213864520
97,22,5,ISIP_5,23,9999,9999,9999,2214364212
97,22,5,ISIP_5,24,9999,9999,9999,2214864948
97,22,5,ISIP_5,25,9999,9999,9999,2215364716
97,22,5,ISIP_5,26,9999,9999,9999,2215864420
97,22,5,ISIP_5,27,9999,9999,9999,2216364116
97,22,5,ISIP_5,28,9999,9999,9999,2216864852
97,22,5,ISIP_5,29,9999,9999,9999,2217364544
97,22,5,ISIP_5,30,9999,9999,9999,2217864240
97,22,5,ISIP_5,31,9999,9999,9999,2218365032
97,22,5,ISIP_5,32,9999,9999,9999,2218864732
97,22,5,ISIP_5,33,9999,9999,9999,2219364424
97,22,5,ISIP_5,34,9999,9999,9999,2219864116
97,22,5,ISIP_5,35,9999,9999,9999,2220364856
97,22,5,ISIP_5,36,9999,9999,9999,2220864628
97,22,5,ISIP_5,37,9999,9999,9999,2221364320
97,22,5,ISIP_5,38,9999,9999,9999,2221865064
97,22,5,ISIP_5,39,9999,9999,9999,2222364756
97,22,5,ISIP_5,40,9999,9999,9999,2222864452
97,22,5,ISIP_5,41,9999,9999,9999,2223364152
97,22,5,ISIP_5,42,9999,9999,9999,2223864888
97,22,5,ISIP_5,43,9999,9999,9999,2224364656
97,22,5,ISIP_5,44,9999,9999,9999,2224864344
97,22,5,ISIP_5,45,9999,9999,9999,2225365084
97,22,5,ISIP_5,46,9999,9999,9999,2225864776
97,22,5,ISIP_5,47,9999,9999,9999,2226364536
97,22,5,ISIP_5,48,9999,9999,9999,2226864224
97,22,5,ISIP_5,49,9999,9999,9999,2227364964
97,22,5,ISIP_5,50,9999,9999,9999,2227864652
97,22,5,ISIP_5,51,9999,9999,9999,2228364344
97,22,5,ISIP_5,52,9999,9999,9999,2228864084
97,22,5,ISIP_5,53,9999,9999,9999,2229364820
97,22,5,ISIP_5,54,9999,9999,9999,2229864512
97,22,5,ISIP_5,55,9999,9999,9999,2230364272
97,22,5,ISIP_5,56,9999,9999,9999,2230865008
97,22,5,ISIP_5,57,9999,9999,9999,2231364700
97,22,5,ISIP_5,58,9999,9999,9999,2231864392
97,22,5,ISIP_5,59,9999,9999,9999,2232364084
97,22,5,ISIP_5,60,9999,9999,9999,2232864824
97,22,5,ISIP_5,61,9999,9999,9999,2233364588
97,22,5,ISIP_5,62,9999,9999,9999,2233864280
97,22,5,ISIP_5,63,9999,9999,9999,2234365000
97,22,5,ISIP_5,64,9999,9999,9999,2234864692
97,22,5,ISIP_5,65,9999,9999,9999,2235364456
97,22,5,ISIP_5,66,9999,9999,9999,2235864148
97,22,5,ISIP_5,67,9999,9999,9999,2236364884
97,22,5,ISIP_5,68,9999,9999,9999,2236864576
97,22,5,ISIP_5,69,9999,9999,9999,2237364340
97,22,5,ISIP_5,70,9999,9999,9999,2237865080
97,22,5,ISIP_5,71,9999,9999,9999,2238364768
97,22,5,ISIP_5,72,9999,9999,9999,2238864460
97,22,5,ISIP_5,73,9999,9999,9999,2239364200
97,22,5,ISIP_5,74,9999,9999,9999,2239864940
97,22,5,ISIP_5,75,9999,9999,9999,2240364632
97,22,5,ISIP_5,76,9999,9999,9999,2240864320
97,22,5,ISIP_5,77,9999,9999,9999,2241365056
97,22,5,ISIP_5,78,9999,9999,9999,2241864824
97,22,5,ISIP_5,79,9999,9999,9999,2242364516
97,22,5,ISIP_5,80,9999,9999,9999,2242864204
97,22,5,ISIP_5,81,9999,9999,9999,2243364944
97,22,5,ISIP_5,82,9999,9999,9999,2243864632
97,22,5,ISIP_5,83,9999,9999,9999,2244364400
97,22,5,ISIP_5,84,9999,9999,9999,2244864092
97,22,5,ISIP_5,85,9999,9999,9999,2245364828
97,22,5,ISIP_5,86,9999,9999,9999,2245864520
97,22,5,ISIP_5,87,9999,9999,9999,2246364208
97,22,5,ISIP_5,88,9999,9999,9999,2246864948
97,22,5,ISIP_5,89,9999,9999,9999,2247364712
97,22,5,ISIP_5,90,9999,9999,9999,2247864400
97,22,5,ISIP_5,91,9999,9999,9999,2248364092
97,22,5,ISIP_5,92,9999,9999,9999,2248864832
97,22,5,ISIP_5,93,9999,9999,9999,2249364588
97,22,5,ISIP_5,94,9999,9999,9999,2249864280
97,22,5,ISIP_5,95,9999,9999,9999,2250364992
97,22,5,ISIP_5,96,9999,9999,9999,2250864740
97,22,5,ISIP_5,97,9999,9999,9999,2251364432
97,22,5,ISIP_5,98,9999,9999,9999,2251864124
97,22,5,ISIP_5,99,9999,9999,9999,2252364860
97,22,5,ISIP_5,100,9999,9999,9999,2252864628
97,22,5,ISIP_5,101,9999,9999,9999,2253364316
97,22,5,ISIP_5,102,9999,9999,9999,2253865052
97,22,5,ISIP_5,103,9999,9999,9999,2254364744
97,22,5,ISIP_5,104,9999,9999,9999,2254864436
97,22,5,ISIP_5,105,9999,9999,9999,2255364200
97,22,5,ISIP_5,106,9999,9999,9999,2255864936
97,22,5,ISIP_5,107,9999,9999,9999,2256364628
97,22,5,ISIP_5,108,9999,9999,9999,2256864320
97,22,5,ISIP_5,109,9999,9999,9999,2257365056
97,22,5,ISIP_5,110,9999,9999,9999,2257864820
97,22,5,ISIP_5,111,9999,9999,9999,2258364508
97,22,5,ISIP_5,112,9999,9999,9999,2258864200
97,22,5,ISIP_5,113,9999,9999,9999,2259364940
97,22,5,ISIP_5,114,9999,9999,9999,2259864696
97,22,5,ISIP_5,115,9999,9999,9999,2260364388
97,22,5,ISIP_5,116,9999,9999,9999,2260864052
97,22,5,ISIP_5,117,9999,9999,9999,2261364792
97,22,5,ISIP_5,118,9999,9999,9999,2261864556
97,22,5,ISIP_5,119,9999,9999,9999,2262364232
97,22,5,ISIP_5,120,9999,9999,9999,2262864968
97,22,5,ISIP_5,121,9999,9999,9999,2263364660
97,22,5,ISIP_5,122,9999,9999,9999,2263864424
97,22,5,ISIP_5,123,9999,9999,9999,2264364116
97,22,5,ISIP_5,124,9999,9999,9999,2264864852
97,22,5,ISIP_5,125,9999,9999,9999,2265364540
97,22,5,ISIP_5,126,9999,9999,9999,2265864308
97,22,5,ISIP_5,127,9999,9999,9999,2266365044
97,22,5,ISIP_5,128,9999,9999,9999,2266864736
97,22,5,ISIP_5,129,9999,9999,9999,2267364428
97,22,5,ISIP_5,130,9999,9999,9999,2267864116
97,22,5,ISIP_5,131,9999,9999,9999,2268364852
97,22,5,ISIP_5,132,9999,9999,9999,2268864620
97,22,5,ISIP_5,133,9999,9999,9999,2269364308
97,22,5,ISIP_5,134,9999,9999,9999,2269865044
97,22,5,ISIP_5,135,9999,9999,9999,2270364736
97,22,5,ISIP_5,136,9999,9999,9999,2270864504
97,22,5,ISIP_5,137,9999,9999,9999,2271364172
97,22,5,ISIP_5,138,9999,9999,9999,2271864908
97,22,5,ISIP_5,139,9999,9999,9999,2272364600
97,22,5,ISIP_5,140,9999,9999,9999,2272864364
97,22,5,ISIP_5,141,9999,9999,9999,2273365100
97,22,5,ISIP_5,142,9999,9999,9999,2273864792
97,22,5,ISIP_5,143,9999,9999,9999,2274364484
97,22,5,ISIP_5,144,9999,9999,9999,2274864248
97,22,5,ISIP_5,145,9999,9999,9999,2275364912
97,22,5,ISIP_5,146,9999,9999,9999,2275864672
97,22,5,ISIP_5,147,9999,9999,9999,2276364368
97,22,5,ISIP_5,148,9999,9999,9999,2276864052
97,22,5,ISIP_5,149,9999,9999,9999,2277364788
97,22,5,ISIP_5,150,9999,9999,9999,2277864556
97,22,5,ISIP_5,151,9999,9999,9999,2278364244
97,22,5,ISIP_5,152,9999,9999,9999,2278864968
97,22,5,ISIP_5,153,9999,9999,9999,2279364660
97,22,5,ISIP_5,154,9999,9999,9999,2279864436
97,22,5,ISIP_5,155,9999,9999,9999,2280364128
97,22,5,ISIP_5,156,9999,9999,9999,2280864864
97,22,5,ISIP_5,157,9999,9999,9999,2281364556
97,22,5,ISIP_5,158,9999,9999,9999,2281864244
97,22,5,ISIP_5,159,9999,9999,9999,2282365032
97,23,11,Pattern_Practice,0,5,42,127,2381138180
97,23,11,Pattern_Practice,1,5,42,127,2381637972
97,23,11,Pattern_Practice,2,5,42,127,2382137912
97,23,11,Pattern_Practice,3,5,42,127,2382637704
97,23,11,Pattern_Practice,4,1,48,46,2383119804
97,23,11,Pattern_Practice,5,5,42,127,2383138088
97,23,11,Pattern_Practice,6,1,48,36,2383351100
97,23,11,Pattern_Practice,7,1,48,38,2383597108
97,23,11,Pattern_Practice,8,5,42,127,2383637908
97,23,11,Pattern_Practice,9,1,38,17,2383922576
97,23,11,Pattern_Practice,10,1,48,51,2384095060
97,23,11,Pattern_Practice,11,5,42,127,2384137804
97,23,11,Pattern_Practice,12,1,38,21,2384395768
97,23,11,Pattern_Practice,13,1,48,45,2384613808
97,23,11,Pattern_Practice,14,5,42,127,2384638448
97,23,11,Pattern_Practice,15,1,38,29,2384870160
97,23,11,Pattern_Practice,16,1,48,48,2385137980
97,23,11,Pattern_Practice,17,5,42,127,2385139688
97,23,11,Pattern_Practice,18,1,38,41,2385363028
97,23,11,Pattern_Practice,19,5,42,127,2385637876
97,23,11,Pattern_Practice,20,1,38,46,2385658720
97,23,11,Pattern_Practice,21,1,38,39,2385876236
97,23,11,Pattern_Practice,22,1,38,45,2386088812
97,23,11,Pattern_Practice,23,5,42,127,2386137692
97,23,11,Pattern_Practice,24,1,38,35,2386337088
97,23,11,Pattern_Practice,25,1,38,39,2386587964
97,23,11,Pattern_Practice,26,5,42,127,2386638188
97,23,11,Pattern_Practice,27,1,38,38,2386814968
97,23,11,Pattern_Practice,28,1,48,50,2387088908
97,23,11,Pattern_Practice,29,5,42,127,2387138008
97,23,11,Pattern_Practice,30,1,48,46,2387427912
97,23,11,Pattern_Practice,31,5,42,127,2387637836
97,23,11,Pattern_Practice,32,1,48,45,2387771780
97,23,11,Pattern_Practice,33,5,42,127,2388138356
97,23,11,Pattern_Practice,34,1,48,43,2388143272
97,23,11,Pattern_Practice,35,5,42,127,2388638048
97,23,11,Pattern_Practice,36,1,48,48,2388643864
97,23,11,Pattern_Practice,37,5,42,127,2389137892
97,23,11,Pattern_Practice,38,1,38,41,2389148944
97,23,11,Pattern_Practice,39,1,38,30,2389332400
97,23,11,Pattern_Practice,40,1,38,45,2389579604
97,23,11,Pattern_Practice,41,5,42,127,2389637632
97,23,11,Pattern_Practice,42,1,38,31,2389812996
97,23,11,Pattern_Practice,43,1,38,43,2390056168
97,23,11,Pattern_Practice,44,5,42,127,2390138252
97,23,11,Pattern_Practice,45,1,38,25,2390307576
97,23,11,Pattern_Practice,46,1,38,46,2390551948
97,23,11,Pattern_Practice,47,5,42,127,2390637848
97,23,11,Pattern_Practice,48,1,38,42,2390807252
97,23,11,Pattern_Practice,49,1,48,58,2391107044
97,23,11,Pattern_Practice,50,5,42,127,2391137748
97,23,11,Pattern_Practice,51,1,48,56,2391619456
97,23,11,Pattern_Practice,52,5,42,127,2391638488
97,23,11,Pattern_Practice,53,1,48,32,2391663808
97,23,11,Pattern_Practice,54,1,48,52,2392115088
97,23,11,Pattern_Practice,55,5,42,127,2392138012
97,23,11,Pattern_Practice,56,1,48,30,2392175444
97,23,11,Pattern_Practice,57,1,48,59,2392625904
97,23,11,Pattern_Practice,58,5,42,127,2392637760
97,23,11,Pattern_Practice,59,1,48,39,2392671228
97,23,11,Pattern_Practice,60,1,48,39,2393110096
97,23,11,Pattern_Practice,61,5,42,127,2393137508
97,23,11,Pattern_Practice,62,1,48,49,2393399660
97,23,11,Pattern_Practice,63,1,48,34,2393633184
97,23,11,Pattern_Practice,64,5,42,127,2393638228
97,23,11,Pattern_Practice,65,1,48,47,2393874652
97,23,11,Pattern_Practice,66,1,48,42,2394127696
97,23,11,Pattern_Practice,67,5,42,127,2394137824
97,23,11,Pattern_Practice,68,1,48,46,2394346492
97,23,11,Pattern_Practice,69,1,48,41,2394599392
97,23,11,Pattern_Practice,70,5,42,127,2394637648
97,23,11,Pattern_Practice,71,1,48,46,2394809376
97,23,11,Pattern_Practice,72,5,42,127,2395138524
97,23,11,Pattern_Practice,73,1,38,56,2395162740
97,23,11,Pattern_Practice,74,5,42,127,2395638144
97,23,11,Pattern_Practice,75,1,38,47,2395643960
97,23,11,Pattern_Practice,76,5,42,127,2396137768
97,23,11,Pattern_Practice,77,1,38,43,2396183144
97,23,11,Pattern_Practice,78,5,42,127,2396637536
97,23,11,Pattern_Practice,79,1,38,46,2396667876
97,23,11,Pattern_Practice,80,5,42,127,2397138352
97,23,11,Pattern_Practice,81,1,48,48,2397209988
97,23,11,Pattern_Practice,82,1,48,28,2397456896
97,23,11,Pattern_Practice,83,5,42,127,2397638028
97,23,11,Pattern_Practice,84,1,48,48,2397694252
97,23,11,Pattern_Practice,85,1,48,37,2397953652
97,23,11,Pattern_Practice,86,5,42,127,2398137772
97,23,11,Pattern_Practice,87,1,48,42,2398173356
97,23,11,Pattern_Practice,88,1,48,41,2398419072
97,23,11,Pattern_Practice,89,5,42,127,2398637376
97,23,11,Pattern_Practice,90,1,48,43,2398692324
97,23,11,Pattern_Practice,91,1,48,40,2398893012
97,23,11,Pattern_Practice,92,5,42,127,2399138240
97,23,11,Pattern_Practice,93,1,38,50,2399209128
97,23,11,Pattern_Practice,94,5,42,127,2399638012
97,23,11,Pattern_Practice,95,1,38,54,2399641580
97,23,11,Pattern_Practice,96,1,38,37,2399677012
97,23,11,Pattern_Practice,97,1,38,54,2400135716
97,23,11,Pattern_Practice,98,5,42,127,2400138652
97,23,11,Pattern_Practice,99,5,42,127,2400638552
97,23,11,Pattern_Practice,100,1,38,52,2400648876
97,23,11,Pattern_Practice,101,5,42,127,2401138172
97,23,11,Pattern_Practice,102,1,48,43,2401146672
97,23,11,Pattern_Practice,103,1,48,18,2401482320
97,23,11,Pattern_Practice,104,5,42,127,2401637620
97,23,11,Pattern_Practice,105,1,48,39,2401684072
97,23,11,Pattern_Practice,106,1,48,37,2401940484
97,23,11,Pattern_Practice,107,1,48,42,2402121772
97,23,11,Pattern_Practice,108,5,42,127,2402137436
97,23,11,Pattern_Practice,109,1,48,34,2402392032
97,23,11,Pattern_Practice,110,5,42,127,2402638088
97,23,11,Pattern_Practice,111,1,48,44,2402661408
97,23,11,Pattern_Practice,112,1,48,33,2402962192
97,23,11,Pattern_Practice,113,5,42,127,2403137836
97,23,11,Pattern_Practice,114,1,48,56,2403172892
97,23,11,Pattern_Practice,115,1,48,51,2403555660
97,23,11,Pattern_Practice,116,5,42,127,2403637672
97,23,11,Pattern_Practice,117,1,48,31,2403725324
97,23,11,Pattern_Practice,118,1,48,48,2403920152
97,23,11,Pattern_Practice,119,1,48,38,2404108348
97,23,11,Pattern_Practice,120,5,42,127,2404138744
97,23,11,Pattern_Practice,121,1,48,45,2404291024
97,23,11,Pattern_Practice,122,1,48,39,2404530528
97,23,11,Pattern_Practice,123,5,42,127,2404638028
97,23,11,Pattern_Practice,124,1,48,54,2404745064
97,23,11,Pattern_Practice,125,1,38,53,2405043812
97,23,11,Pattern_Practice,126,5,42,127,2405137716
97,23,11,Pattern_Practice,127,1,38,52,2405606112
97,23,11,Pattern_Practice,128,5,42,127,2405637412
97,23,11,Pattern_Practice,129,5,42,127,2406138456
97,23,11,Pattern_Practice,130,1,38,48,2406171644
97,23,11,Pattern_Practice,131,5,42,127,2406638004
97,23,11,Pattern_Practice,132,1,38,48,2406677848
97,23,11,Pattern_Practice,133,5,42,127,2407137624
97,23,11,Pattern_Practice,134,1,38,51,2407225416
97,23,11,Pattern_Practice,135,5,42,127,2407638512
97,23,11,Pattern_Practice,136,1,38,46,2407717700
97,23,11,Pattern_Practice,137,5,42,127,2408138504
97,23,11,Pattern_Practice,138,1,38,44,2408198624
97,23,11,Pattern_Practice,139,5,42,127,2408637680
97,23,11,Pattern_Practice,140,1,38,47,2408670044
97,23,11,Pattern_Practice,141,5,42,127,2409137448
97,23,11,Pattern_Practice,142,1,38,18,2409153504
97,23,11,Pattern_Practice,143,1,38,45,2409383216
97,23,11,Pattern_Practice,144,1,38,30,2409606412
97,23,11,Pattern_Practice,145,5,42,127,2409638460
97,23,11,Pattern_Practice,146,1,38,48,2409855136
97,23,11,Pattern_Practice,147,1,38,45,2410126356
97,23,11,Pattern_Practice,148,5,42,127,2410137832
97,23,11,Pattern_Practice,149,1,38,43,2410349700
97,23,11,Pattern_Practice,150,1,38,44,2410617104
97,23,11,Pattern_Practice,151,5,42,127,2410637656
97,23,11,Pattern_Practice,152,5,42,127,2411138480
97,23,11,Pattern_Practice,153,1,48,54,2411182588
97,23,11,Pattern_Practice,154,5,42,127,2411638296
97,23,11,Pattern_Practice,155,1,48,49,2411641492
97,23,11,Pattern_Practice,156,1,48,47,2412109904
97,23,11,Pattern_Practice,157,5,42,127,2412137760
97,23,11,Pattern_Practice,158,1,48,52,2412603088
97,23,11,Pattern_Practice,159,5,42,127,2412637532
97,23,11,Pattern_Practice,160,1,38,44,2413107044
97,23,11,Pattern_Practice,161,5,42,127,2413138496
97,23,11,Pattern_Practice,162,1,38,35,2413348068
97,23,11,Pattern_Practice,163,1,38,46,2413600512
97,23,11,Pattern_Practice,164,5,42,127,2413638168
97,23,11,Pattern_Practice,165,1,38,40,2413850508
97,23,11,Pattern_Practice,166,1,38,50,2414097192
97,23,11,Pattern_Practice,167,5,42,127,2414137692
97,23,11,Pattern_Practice,168,1,38,45,2414354892
97,23,11,Pattern_Practice,169,1,38,46,2414622296
97,23,11,Pattern_Practice,170,5,42,127,2414637368
97,23,11,Pattern_Practice,171,1,38,44,2414843716
97,23,11,Pattern_Practice,172,1,48,60,2415135968
97,23,11,Pattern_Practice,173,5,42,127,2415138308
97,23,11,Pattern_Practice,174,1,48,43,2415185096
97,23,11,Pattern_Practice,175,1,48,58,2415607880
97,23,11,Pattern_Practice,176,5,42,127,2415637908
97,23,11,Pattern_Practice,177,1,48,35,2415664276
97,23,11,Pattern_Practice,178,1,48,50,2416104712
97,23,11,Pattern_Practice,179,5,42,127,2416137432
97,23,11,Pattern_Practice,180,1,48,25,2416186388
97,23,11,Pattern_Practice,181,1,48,57,2416594064
97,23,11,Pattern_Practice,182,5,42,127,2416638224
97,23,11,Pattern_Practice,183,1,38,56,2417119112
97,23,11,Pattern_Practice,184,5,42,127,2417138144
97,23,11,Pattern_Practice,185,1,38,32,2417384592
97,23,11,Pattern_Practice,186,1,38,20,2417481356
97,23,11,Pattern_Practice,187,1,38,51,2417571868
97,23,11,Pattern_Practice,188,5,42,127,2417637644
97,23,11,Pattern_Practice,189,1,38,45,2417832112
97,23,11,Pattern_Practice,190,1,38,50,2418093676
97,23,11,Pattern_Practice,191,5,42,127,2418137392
97,23,11,Pattern_Practice,192,1,38,46,2418262268
97,23,11,Pattern_Practice,193,1,38,51,2418522568
97,23,11,Pattern_Practice,194,1,38,54,2418614944
97,23,11,Pattern_Practice,195,5,42,127,2418638388
97,23,11,Pattern_Practice,196,1,38,35,2418669772
97,23,11,Pattern_Practice,197,1,38,17,2418781568
97,23,11,Pattern_Practice,198,5,42,127,2419137896
97,23,11,Pattern_Practice,199,1,48,29,2419253292
97,23,11,Pattern_Practice,200,1,48,48,2419637740
97,23,11,Pattern_Practice,201,5,42,127,2419639080
97,23,11,Pattern_Practice,202,1,48,47,2420118848
97,23,11,Pattern_Practice,203,5,42,127,2420138328
97,23,11,Pattern_Practice,204,1,48,48,2420578428
97,23,11,Pattern_Practice,205,5,42,127,2420638168
97,23,11,Pattern_Practice,206,1,38,52,2421070488
97,23,11,Pattern_Practice,0,9999,9999,9999,2381135968
97,23,11,Pattern_Practice,1,9999,9999,9999,2381635684
97,23,11,Pattern_Practice,2,9999,9999,9999,2382135400
97,23,11,Pattern_Practice,3,9999,9999,9999,2382635116
97,23,11,Pattern_Practice,4,9999,9999,9999,2383135800
97,23,11,Pattern_Practice,5,9999,9999,9999,2383635548
97,23,11,Pattern_Practice,6,9999,9999,9999,2384135220
97,23,11,Pattern_Practice,7,9999,9999,9999,2384636012
97,23,11,Pattern_Practice,8,9999,9999,9999,2385135692
97,23,11,Pattern_Practice,9,9999,9999,9999,2385635440
97,23,11,Pattern_Practice,10,9999,9999,9999,2386135104
97,23,11,Pattern_Practice,11,9999,9999,9999,2386635824
97,23,11,Pattern_Practice,12,9999,9999,9999,2387135572
97,23,11,Pattern_Practice,13,9999,9999,9999,2387635252
97,23,11,Pattern_Practice,14,9999,9999,9999,2388135992
97,23,11,Pattern_Practice,15,9999,9999,9999,2388635760
97,23,11,Pattern_Practice,16,9999,9999,9999,2389135456
97,23,11,Pattern_Practice,17,9999,9999,9999,2389635124
97,23,11,Pattern_Practice,18,9999,9999,9999,2390135888
97,23,11,Pattern_Practice,19,9999,9999,9999,2390635636
97,23,11,Pattern_Practice,20,9999,9999,9999,2391135312
97,23,11,Pattern_Practice,21,9999,9999,9999,2391636052
97,23,11,Pattern_Practice,22,9999,9999,9999,2392135800
97,23,11,Pattern_Practice,23,9999,9999,9999,2392635472
97,23,11,Pattern_Practice,24,9999,9999,9999,2393135220
97,23,11,Pattern_Practice,25,9999,9999,9999,2393635940
97,23,11,Pattern_Practice,26,9999,9999,9999,2394135612
97,23,11,Pattern_Practice,27,9999,9999,9999,2394635360
97,23,11,Pattern_Practice,28,9999,9999,9999,2395136088
97,23,11,Pattern_Practice,29,9999,9999,9999,2395635784
97,23,11,Pattern_Practice,30,9999,9999,9999,2396135480
97,23,11,Pattern_Practice,31,9999,9999,9999,2396635248
97,23,11,Pattern_Practice,32,9999,9999,9999,2397135988
97,23,11,Pattern_Practice,33,9999,9999,9999,2397635664
97,23,11,Pattern_Practice,34,9999,9999,9999,2398135412
97,23,11,Pattern_Practice,35,9999,9999,9999,2398635088
97,23,11,Pattern_Practice,36,9999,9999,9999,2399135804
97,23,11,Pattern_Practice,37,9999,9999,9999,2399635576
97,23,11,Pattern_Practice,38,9999,9999,9999,2400135268
97,23,11,Pattern_Practice,39,9999,9999,9999,2400635964
97,23,11,Pattern_Practice,40,9999,9999,9999,2401135736
97,23,11,Pattern_Practice,41,9999,9999,9999,2401635408
97,23,11,Pattern_Practice,42,9999,9999,9999,2402135148
97,23,11,Pattern_Practice,43,9999,9999,9999,2402635876
97,23,11,Pattern_Practice,44,9999,9999,9999,2403135548
97,23,11,Pattern_Practice,45,9999,9999,9999,2403635312
97,23,11,Pattern_Practice,46,9999,9999,9999,2404136008
97,23,11,Pattern_Practice,47,9999,9999,9999,2404635740
97,23,11,Pattern_Practice,48,9999,9999,9999,2405135428
97,23,11,Pattern_Practice,49,9999,9999,9999,2405635124
97,23,11,Pattern_Practice,50,9999,9999,9999,2406135872
97,23,11,Pattern_Practice,51,9999,9999,9999,2406635640
97,23,11,Pattern_Practice,52,9999,9999,9999,2407135336
97,23,11,Pattern_Practice,53,9999,9999,9999,2407636076
97,23,11,Pattern_Practice,54,9999,9999,9999,2408135772
97,23,11,Pattern_Practice,55,9999,9999,9999,2408635464
97,23,11,Pattern_Practice,56,9999,9999,9999,2409135160
97,23,11,Pattern_Practice,57,9999,9999,9999,2409635948
97,23,11,Pattern_Practice,58,9999,9999,9999,2410135620
97,23,11,Pattern_Practice,59,9999,9999,9999,2410635368
97,23,11,Pattern_Practice,60,9999,9999,9999,2411136116
97,23,11,Pattern_Practice,61,9999,9999,9999,2411635788
97,23,11,Pattern_Practice,62,9999,9999,9999,2412135476
97,23,11,Pattern_Practice,63,9999,9999,9999,2412635244
97,23,11,Pattern_Practice,64,9999,9999,9999,2413135984
97,23,11,Pattern_Practice,65,9999,9999,9999,2413635660
97,23,11,Pattern_Practice,66,9999,9999,9999,2414135404
97,23,11,Pattern_Practice,67,9999,9999,9999,2414635080
97,23,11,Pattern_Practice,68,9999,9999,9999,2415135840
97,23,11,Pattern_Practice,69,9999,9999,9999,2415635544
97,23,11,Pattern_Practice,70,9999,9999,9999,2416135220
97,23,11,Pattern_Practice,71,9999,9999,9999,2416636012
97,23,11,Pattern_Practice,72,9999,9999,9999,2417135708
97,23,11,Pattern_Practice,73,9999,9999,9999,2417635432
97,23,11,Pattern_Practice,74,9999,9999,9999,2418135108
97,23,11,Pattern_Practice,75,9999,9999,9999,2418635880
97,23,11,Pattern_Practice,76,9999,9999,9999,2419135608
97,23,11,Pattern_Practice,77,9999,9999,9999,2419635304
97,23,11,Pattern_Practice,78,9999,9999,9999,2420136040
97,23,11,Pattern_Practice,79,9999,9999,9999,2420635732
97,24,13,Improv_Metronome,0,5,42,127,2453287132
97,24,13,Improv_Metronome,1,5,42,127,2453786920
97,24,13,Improv_Metronome,2,5,42,127,2454286564
97,24,13,Improv_Metronome,3,5,42,127,2454786504
97,24,13,Improv_Metronome,4,1,48,47,2455266584
97,24,13,Improv_Metronome,5,5,42,127,2455287184
97,24,13,Improv_Metronome,6,1,48,37,2455535276
97,24,13,Improv_Metronome,7,1,48,56,2455651044
97,24,13,Improv_Metronome,8,5,42,127,2455786844
97,24,13,Improv_Metronome,9,1,48,44,2455787812
97,24,13,Improv_Metronome,10,1,48,23,2455852324
97,24,13,Improv_Metronome,11,1,48,54,2456075072
97,24,13,Improv_Metronome,12,1,48,47,2456162940
97,24,13,Improv_Metronome,13,1,48,25,2456226968
97,24,13,Improv_Metronome,14,5,42,127,2456286688
97,24,13,Improv_Metronome,15,1,48,59,2456330340
97,24,13,Improv_Metronome,16,1,48,39,2456587940
97,24,13,Improv_Metronome,17,1,48,53,2456734100
97,24,13,Improv_Metronome,18,5,42,127,2456787536
97,24,13,Improv_Metronome,19,1,48,46,2456951984
97,24,13,Improv_Metronome,20,5,42,127,2457286992
97,24,13,Improv_Metronome,21,1,38,54,2457439336
97,24,13,Improv_Metronome,22,1,38,39,2457728828
97,24,13,Improv_Metronome,23,5,42,127,2457786680
97,24,13,Improv_Metronome,24,1,38,25,2457799432
97,24,13,Improv_Metronome,25,1,38,54,2457849380
97,24,13,Improv_Metronome,26,1,38,48,2458035776
97,24,13,Improv_Metronome,27,1,38,25,2458110184
97,24,13,Improv_Metronome,28,5,42,127,2458286596
97,24,13,Improv_Metronome,29,1,38,42,2458306244
97,24,13,Improv_Metronome,30,1,38,48,2458442808
97,24,13,Improv_Metronome,31,1,38,49,2458570116
97,24,13,Improv_Metronome,32,5,42,127,2458787144
97,24,13,Improv_Metronome,33,1,38,53,2458875604
97,24,13,Improv_Metronome,34,1,38,42,2459006504
97,24,13,Improv_Metronome,35,1,38,53,2459152640
97,24,13,Improv_Metronome,36,5,42,127,2459286868
97,24,13,Improv_Metronome,37,1,38,34,2459449756
97,24,13,Improv_Metronome,38,1,38,52,2459511592
97,24,13,Improv_Metronome,39,1,38,43,2459716016
97,24,13,Improv_Metronome,40,1,38,34,2459767304
97,24,13,Improv_Metronome,41,5,42,127,2459786512
97,24,13,Improv_Metronome,42,1,48,51,2460244488
97,24,13,Improv_Metronome,43,5,42,127,2460287776
97,24,13,Improv_Metronome,44,1,48,58,2460782852
97,24,13,Improv_Metronome,45,5,42,127,2460787000
97,24,13,Improv_Metronome,46,5,42,127,2461286700
97,24,13,Improv_Metronome,47,1,48,57,2461291544
97,24,13,Improv_Metronome,48,1,38,44,2461742600
97,24,13,Improv_Metronome,49,5,42,127,2461786464
97,24,13,Improv_Metronome,50,1,38,24,2461975388
97,24,13,Improv_Metronome,51,1,38,43,2462182588
97,24,13,Improv_Metronome,52,5,42,127,2462287468
97,24,13,Improv_Metronome,53,1,38,42,2462383888
97,24,13,Improv_Metronome,54,1,38,15,2462487088
97,24,13,Improv_Metronome,55,1,38,57,2462693608
97,24,13,Improv_Metronome,56,5,42,127,2462786988
97,24,13,Improv_Metronome,57,1,38,19,2462945696
97,24,13,Improv_Metronome,58,1,38,53,2463125516
97,24,13,Improv_Metronome,59,5,42,127,2463286496
97,24,13,Improv_Metronome,60,1,38,49,2463299564
97,24,13,Improv_Metronome,61,1,38,29,2463374216
97,24,13,Improv_Metronome,62,5,42,127,2463787664
97,24,13,Improv_Metronome,63,1,48,58,2463848532
97,24,13,Improv_Metronome,64,5,42,127,2464287060
97,24,13,Improv_Metronome,65,1,48,60,2464299680
97,24,13,Improv_Metronome,66,1,48,54,2464755372
97,24,13,Improv_Metronome,67,5,42,127,2464786748
97,24,13,Improv_Metronome,68,1,48,50,2465250656
97,24,13,Improv_Metronome,69,5,42,127,2465286592
97,24,13,Improv_Metronome,70,1,38,45,2465714672
97,24,13,Improv_Metronome,71,5,42,127,2465787556
97,24,13,Improv_Metronome,72,1,38,39,2465960032
97,24,13,Improv_Metronome,73,1,38,53,2466104288
97,24,13,Improv_Metronome,74,1,38,50,2466202204
97,24,13,Improv_Metronome,75,1,38,31,2466263964
97,24,13,Improv_Metronome,76,5,42,127,2466286888
97,24,13,Improv_Metronome,77,1,38,49,2466456820
97,24,13,Improv_Metronome,78,1,38,48,2466609236
97,24,13,Improv_Metronome,79,1,38,51,2466699596
97,24,13,Improv_Metronome,80,5,42,127,2466786540
97,24,13,Improv_Metronome,81,1,38,48,2466973000
97,24,13,Improv_Metronome,82,1,38,31,2467159376
97,24,13,Improv_Metronome,83,5,42,127,2467287620
97,24,13,Improv_Metronome,84,5,42,127,2467787112
97,24,13,Improv_Metronome,85,1,48,50,2467854328
97,24,13,Improv_Metronome,86,1,48,51,2468284612
97,24,13,Improv_Metronome,87,5,42,127,2468286724
97,24,13,Improv_Metronome,88,1,48,37,2468347348
97,24,13,Improv_Metronome,89,1,48,54,2468772228
97,24,13,Improv_Metronome,90,5,42,127,2468786472
97,24,13,Improv_Metronome,91,1,48,51,2469270200
97,24,13,Improv_Metronome,92,5,42,127,2469287436
97,24,13,Improv_Metronome,93,1,38,54,2469768328
97,24,13,Improv_Metronome,94,5,42,127,2469786908
97,24,13,Improv_Metronome,95,1,38,36,2470030960
97,24,13,Improv_Metronome,96,1,38,59,2470133864
97,24,13,Improv_Metronome,97,1,38,44,2470257704
97,24,13,Improv_Metronome,98,5,42,127,2470286708
97,24,13,Improv_Metronome,99,1,38,24,2470319056
97,24,13,Improv_Metronome,100,1,38,53,2470533584
97,24,13,Improv_Metronome,101,1,38,51,2470670888
97,24,13,Improv_Metronome,102,5,42,127,2470786272
97,24,13,Improv_Metronome,103,1,38,56,2470810712
97,24,13,Improv_Metronome,104,1,38,67,2471136676
97,24,13,Improv_Metronome,105,5,42,127,2471287264
97,24,13,Improv_Metronome,106,1,38,62,2471467752
97,24,13,Improv_Metronome,107,5,42,127,2471786736
97,24,13,Improv_Metronome,108,1,48,55,2472103532
97,24,13,Improv_Metronome,109,5,42,127,2472286504
97,24,13,Improv_Metronome,110,1,48,58,2472537304
97,24,13,Improv_Metronome,111,5,42,127,2472787392
97,24,13,Improv_Metronome,112,1,48,54,2473045448
97,24,13,Improv_Metronome,113,5,42,127,2473287160
97,24,13,Improv_Metronome,114,1,48,59,2473542076
97,24,13,Improv_Metronome,115,5,42,127,2473786708
97,24,13,Improv_Metronome,116,1,38,44,2474164760
97,24,13,Improv_Metronome,117,5,42,127,2474286548
97,24,13,Improv_Metronome,118,1,38,32,2474425228
97,24,13,Improv_Metronome,119,1,38,58,2474540844
97,24,13,Improv_Metronome,120,1,38,55,2474674808
97,24,13,Improv_Metronome,121,1,38,32,2474732008
97,24,13,Improv_Metronome,122,5,42,127,2474787388
97,24,13,Improv_Metronome,123,1,38,58,2474960388
97,24,13,Improv_Metronome,124,1,38,49,2475068448
97,24,13,Improv_Metronome,125,1,38,67,2475233308
97,24,13,Improv_Metronome,126,5,42,127,2475286892
97,24,13,Improv_Metronome,127,1,38,62,2475566396
97,24,13,Improv_Metronome,128,1,38,43,2475673584
97,24,13,Improv_Metronome,129,5,42,127,2475786472
97,24,13,Improv_Metronome,130,1,38,64,2475818464
97,24,13,Improv_Metronome,131,1,38,35,2476105612
97,24,13,Improv_Metronome,132,1,38,60,2476187220
97,24,13,Improv_Metronome,133,5,42,127,2476287320
97,24,13,Improv_Metronome,134,1,38,43,2476397848
97,24,13,Improv_Metronome,135,1,38,55,2476662260
97,24,13,Improv_Metronome,136,5,42,127,2476786992
97,24,13,Improv_Metronome,137,1,38,43,2476813072
97,24,13,Improv_Metronome,138,1,38,20,2476883736
97,24,13,Improv_Metronome,139,1,38,56,2476928396
97,24,13,Improv_Metronome,140,1,38,67,2477240828
97,24,13,Improv_Metronome,141,5,42,127,2477286708
97,24,13,Improv_Metronome,142,1,38,32,2477453648
97,24,13,Improv_Metronome,143,1,38,61,2477531640
97,24,13,Improv_Metronome,144,5,42,127,2477786444
97,24,13,Improv_Metronome,145,1,38,58,2477862416
97,24,13,Improv_Metronome,146,1,38,63,2478183372
97,24,13,Improv_Metronome,147,5,42,127,2478287236
97,24,13,Improv_Metronome,148,5,42,127,2478786952
97,24,13,Improv_Metronome,149,1,48,56,2478992348
97,24,13,Improv_Metronome,150,5,42,127,2479286572
97,24,13,Improv_Metronome,151,1,38,55,2479520244
97,24,13,Improv_Metronome,152,5,42,127,2479787316
97,24,13,Improv_Metronome,153,1,38,54,2480060028
97,24,13,Improv_Metronome,154,5,42,127,2480287156
97,24,13,Improv_Metronome,155,1,38,55,2480610136
97,24,13,Improv_Metronome,156,1,38,27,2480668760
97,24,13,Improv_Metronome,157,5,42,127,2480786904
97,24,13,Improv_Metronome,158,1,48,56,2481148852
97,24,13,Improv_Metronome,159,1,48,33,2481197376
97,24,13,Improv_Metronome,160,5,42,127,2481286516
97,24,13,Improv_Metronome,161,1,48,28,2481451708
97,24,13,Improv_Metronome,162,1,48,50,2481506812
97,24,13,Improv_Metronome,163,1,48,46,2481664860
97,24,13,Improv_Metronome,164,1,48,26,2481717504
97,24,13,Improv_Metronome,165,5,42,127,2481787416
97,24,13,Improv_Metronome,166,1,48,49,2481972056
97,24,13,Improv_Metronome,167,1,48,41,2482080368
97,24,13,Improv_Metronome,168,1,48,51,2482181992
97,24,13,Improv_Metronome,169,5,42,127,2482287028
97,24,13,Improv_Metronome,170,1,48,62,2482533864
97,24,13,Improv_Metronome,171,1,48,44,2482714352
97,24,13,Improv_Metronome,172,5,42,127,2482786640
97,24,13,Improv_Metronome,173,1,48,61,2482818716
97,24,13,Improv_Metronome,174,5,42,127,2483287368
97,24,13,Improv_Metronome,175,1,38,65,2483445568
97,24,13,Improv_Metronome,176,5,42,127,2483787064
97,24,13,Improv_Metronome,177,1,38,60,2483918112
97,24,13,Improv_Metronome,178,5,42,127,2484286684
97,24,13,Improv_Metronome,179,1,38,61,2484390876
97,24,13,Improv_Metronome,180,5,42,127,2484786452
97,24,13,Improv_Metronome,181,1,38,60,2484864396
97,24,13,Improv_Metronome,182,5,42,127,2485287416
97,24,13,Improv_Metronome,183,1,38,52,2485318964
97,24,13,Improv_Metronome,184,1,38,40,2485588312
97,24,13,Improv_Metronome,185,5,42,127,2485787016
97,24,13,Improv_Metronome,186,1,38,54,2485794852
97,24,13,Improv_Metronome,187,1,38,37,2485880924
97,24,13,Improv_Metronome,188,1,38,57,2486160692
97,24,13,Improv_Metronome,189,5,42,127,2486286892
97,24,13,Improv_Metronome,190,1,38,45,2486302880
97,24,13,Improv_Metronome,191,1,38,59,2486431308
97,24,13,Improv_Metronome,192,1,38,59,2486735140
97,24,13,Improv_Metronome,193,5,42,127,2486786408
97,24,13,Improv_Metronome,194,1,38,48,2486901260
97,24,13,Improv_Metronome,195,1,38,57,2487013908
97,24,13,Improv_Metronome,196,5,42,127,2487287112
97,24,13,Improv_Metronome,197,1,38,51,2487431328
97,24,13,Improv_Metronome,198,1,38,53,2487738448
97,24,13,Improv_Metronome,199,5,42,127,2487786872
97,24,13,Improv_Metronome,200,1,38,52,2488027340
97,24,13,Improv_Metronome,201,5,42,127,2488286556
97,24,13,Improv_Metronome,202,1,48,52,2488675128
97,24,13,Improv_Metronome,203,5,42,127,2488787368
97,24,13,Improv_Metronome,204,1,48,58,2489193000
97,24,13,Improv_Metronome,205,5,42,127,2489287080
97,24,13,Improv_Metronome,206,1,48,58,2489785192
97,24,13,Improv_Metronome,207,5,42,127,2489786624
97,24,13,Improv_Metronome,208,5,42,127,2490286324
97,24,13,Improv_Metronome,209,1,48,50,2490322728
97,24,13,Improv_Metronome,210,5,42,127,2490787216
97,24,13,Improv_Metronome,211,1,48,54,2490792060
97,24,13,Improv_Metronome,212,1,48,36,2491065216
97,24,13,Improv_Metronome,213,1,48,50,2491176272
97,24,13,Improv_Metronome,214,5,42,127,2491287016
97,24,13,Improv_Metronome,215,1,48,45,2491302700
97,24,13,Improv_Metronome,216,1,48,54,2491564720
97,24,13,Improv_Metronome,217,1,48,42,2491686396
97,24,13,Improv_Metronome,218,5,42,127,2491786524
97,24,13,Improv_Metronome,219,1,48,49,2491838560
97,24,13,Improv_Metronome,220,1,48,26,2492086888
97,24,13,Improv_Metronome,221,1,48,58,2492182312
97,24,13,Improv_Metronome,222,5,42,127,2492287224
97,24,13,Improv_Metronome,223,1,48,45,2492327068
97,24,13,Improv_Metronome,224,1,48,50,2492641144
97,24,13,Improv_Metronome,225,1,48,43,2492722284
97,24,13,Improv_Metronome,226,5,42,127,2492787160
97,24,13,Improv_Metronome,227,1,48,50,2492931364
97,24,13,Improv_Metronome,228,1,48,57,2493280596
97,24,13,Improv_Metronome,229,5,42,127,2493286836
97,24,13,Improv_Metronome,230,1,48,35,2493498272
97,24,13,Improv_Metronome,231,1,48,50,2493749972
97,24,13,Improv_Metronome,232,5,42,127,2493786432
97,24,13,Improv_Metronome,233,1,48,55,2494058232
97,24,13,Improv_Metronome,234,5,42,127,2494287156
97,24,13,Improv_Metronome,235,1,48,57,2494350888
97,24,13,Improv_Metronome,236,5,42,127,2494786928
97,24,13,Improv_Metronome,237,1,38,53,2494965692
97,24,13,Improv_Metronome,238,5,42,127,2495286772
97,24,13,Improv_Metronome,239,1,38,48,2495450656
97,24,13,Improv_Metronome,240,1,38,26,2495504712
97,24,13,Improv_Metronome,241,5,42,127,2495787416
97,24,13,Improv_Metronome,242,1,38,47,2496001492
97,24,13,Improv_Metronome,243,5,42,127,2496286960
97,24,13,Improv_Metronome,244,1,38,53,2496539256
97,24,13,Improv_Metronome,245,5,42,127,2496786952
97,24,13,Improv_Metronome,246,1,38,50,2497071340
97,24,13,Improv_Metronome,247,5,42,127,2497286424
97,24,13,Improv_Metronome,248,1,38,31,2497315348
97,24,13,Improv_Metronome,249,1,38,38,2497408700
97,24,13,Improv_Metronome,250,1,38,46,2497597388
97,24,13,Improv_Metronome,251,5,42,127,2497787272
97,24,13,Improv_Metronome,252,1,38,47,2497851200
97,24,13,Improv_Metronome,253,1,38,48,2497968860
97,24,13,Improv_Metronome,254,1,38,54,2498121500
97,24,13,Improv_Metronome,255,5,42,127,2498287068
97,24,13,Improv_Metronome,256,1,38,31,2498383388
97,24,13,Improv_Metronome,257,1,38,50,2498516528
97,24,13,Improv_Metronome,258,1,38,42,2498652940
97,24,13,Improv_Metronome,259,5,42,127,2498786868
97,24,13,Improv_Metronome,260,1,48,55,2499249896
97,24,13,Improv_Metronome,261,5,42,127,2499287328
97,24,13,Improv_Metronome,262,1,48,52,2499785896
97,24,13,Improv_Metronome,263,5,42,127,2499787392
97,24,13,Improv_Metronome,264,5,42,127,2500287020
97,24,13,Improv_Metronome,265,1,48,40,2500320288
97,24,13,Improv_Metronome,266,5,42,127,2500786492
97,24,13,Improv_Metronome,267,1,48,56,2500839128
97,24,13,Improv_Metronome,268,5,42,127,2501287384
97,24,13,Improv_Metronome,269,1,48,51,2501329248
97,24,13,Improv_Metronome,270,1,48,27,2501593660
97,24,13,Improv_Metronome,271,1,48,49,2501687884
97,24,13,Improv_Metronome,272,5,42,127,2501787184
97,24,13,Improv_Metronome,273,1,48,19,2501867492
97,24,13,Improv_Metronome,274,1,48,48,2502135948
97,24,13,Improv_Metronome,275,1,48,33,2502226876
97,24,13,Improv_Metronome,276,5,42,127,2502286624
97,24,13,Improv_Metronome,277,1,48,61,2502393844
97,24,13,Improv_Metronome,278,1,48,32,2502648988
97,24,13,Improv_Metronome,279,1,48,53,2502755700
97,24,13,Improv_Metronome,280,5,42,127,2502786276
97,24,13,Improv_Metronome,281,1,48,42,2502872336
97,24,13,Improv_Metronome,282,5,42,127,2503287128
97,24,13,Improv_Metronome,283,1,38,61,2503454080
97,24,13,Improv_Metronome,284,5,42,127,2503787044
97,24,13,Improv_Metronome,285,1,38,52,2503975988
97,24,13,Improv_Metronome,286,5,42,127,2504286740
97,24,13,Improv_Metronome,287,1,38,51,2504507920
97,24,13,Improv_Metronome,288,5,42,127,2504787180
97,24,13,Improv_Metronome,289,1,38,51,2505041868
97,24,13,Improv_Metronome,290,5,42,127,2505287100
97,24,13,Improv_Metronome,291,1,38,54,2505548000
97,24,13,Improv_Metronome,292,1,38,35,2505769624
97,24,13,Improv_Metronome,293,5,42,127,2505787084
97,24,13,Improv_Metronome,294,1,38,46,2505906972
97,24,13,Improv_Metronome,295,1,38,35,2505984816
97,24,13,Improv_Metronome,296,1,38,51,2506241752
97,24,13,Improv_Metronome,297,5,42,127,2506286440
97,24,13,Improv_Metronome,298,1,38,51,2506355140
97,24,13,Improv_Metronome,299,1,38,23,2506433456
97,24,13,Improv_Metronome,300,1,38,50,2506499032
97,24,13,Improv_Metronome,301,1,38,38,2506762920
97,24,13,Improv_Metronome,302,5,42,127,2506787116
97,24,13,Improv_Metronome,303,1,38,22,2506836664
97,24,13,Improv_Metronome,304,1,38,53,2507004588
97,24,13,Improv_Metronome,305,5,42,127,2507286848
97,24,13,Improv_Metronome,306,1,38,61,2507532036
97,24,13,Improv_Metronome,307,5,42,127,2507786836
97,24,13,Improv_Metronome,308,1,38,51,2508043400
97,24,13,Improv_Metronome,309,5,42,127,2508287280
97,24,13,Improv_Metronome,310,1,38,56,2508561792
97,24,13,Improv_Metronome,311,5,42,127,2508786976
97,24,13,Improv_Metronome,312,1,38,57,2509071588
97,24,13,Improv_Metronome,313,5,42,127,2509286892
97,24,13,Improv_Metronome,314,1,48,56,2509590052
97,24,13,Improv_Metronome,315,5,42,127,2509786588
97,24,13,Improv_Metronome,316,1,48,32,2509854860
97,24,13,Improv_Metronome,317,1,48,47,2509973916
97,24,13,Improv_Metronome,318,1,48,38,2510083620
97,24,13,Improv_Metronome,319,5,42,127,2510287260
97,24,13,Improv_Metronome,320,1,48,55,2510355452
97,24,13,Improv_Metronome,321,1,48,47,2510453796
97,24,13,Improv_Metronome,322,1,48,58,2510605784
97,24,13,Improv_Metronome,323,5,42,127,2510787212
97,24,13,Improv_Metronome,324,1,48,40,2510870744
97,24,13,Improv_Metronome,325,1,48,58,2511007848
97,24,13,Improv_Metronome,326,1,48,53,2511111496
97,24,13,Improv_Metronome,327,1,48,37,2511156428
97,24,13,Improv_Metronome,328,5,42,127,2511286840
97,24,13,Improv_Metronome,329,1,48,61,2511686636
97,24,13,Improv_Metronome,330,5,42,127,2511787508
97,24,13,Improv_Metronome,331,1,48,60,2512205628
97,24,13,Improv_Metronome,332,5,42,127,2512287068
97,24,13,Improv_Metronome,333,5,42,127,2512786768
97,24,13,Improv_Metronome,334,1,48,61,2512801708
97,24,13,Improv_Metronome,335,1,48,55,2513266132
97,24,13,Improv_Metronome,336,5,42,127,2513286608
97,24,13,Improv_Metronome,337,5,42,127,2513787208
97,24,13,Improv_Metronome,338,1,38,43,2513800800
97,24,13,Improv_Metronome,339,1,38,22,2514058408
97,24,13,Improv_Metronome,340,1,38,54,2514150308
97,24,13,Improv_Metronome,341,1,38,39,2514256724
97,24,13,Improv_Metronome,342,5,42,127,2514286828
97,24,13,Improv_Metronome,343,1,38,50,2514554616
97,24,13,Improv_Metronome,344,1,38,50,2514637692
97,24,13,Improv_Metronome,345,5,42,127,2514786784
97,24,13,Improv_Metronome,346,1,38,52,2514798656
97,24,13,Improv_Metronome,347,1,38,27,2515043920
97,24,13,Improv_Metronome,348,1,38,54,2515203692
97,24,13,Improv_Metronome,349,5,42,127,2515287572
97,24,13,Improv_Metronome,350,1,38,51,2515339168
97,24,13,Improv_Metronome,351,1,38,29,2515387620
97,24,13,Improv_Metronome,352,5,42,127,2515787008
97,24,13,Improv_Metronome,353,1,48,49,2515886192
97,24,13,Improv_Metronome,354,5,42,127,2516286780
97,24,13,Improv_Metronome,355,1,48,60,2516371376
97,24,13,Improv_Metronome,356,5,42,127,2516786696
97,24,13,Improv_Metronome,357,1,48,61,2516865012
97,24,13,Improv_Metronome,358,5,42,127,2517287212
97,24,13,Improv_Metronome,359,1,48,62,2517340380
97,24,13,Improv_Metronome,360,5,42,127,2517786836
97,24,13,Improv_Metronome,361,1,38,61,2517794740
97,24,13,Improv_Metronome,362,1,38,40,2518053172
97,24,13,Improv_Metronome,363,1,38,61,2518179356
97,24,13,Improv_Metronome,364,5,42,127,2518286636
97,24,13,Improv_Metronome,365,1,38,48,2518309428
97,24,13,Improv_Metronome,366,1,38,49,2518564416
97,24,13,Improv_Metronome,367,1,38,44,2518665472
97,24,13,Improv_Metronome,368,5,42,127,2518786360
97,24,13,Improv_Metronome,369,1,38,57,2518835852
97,24,13,Improv_Metronome,370,1,38,48,2519078952
97,24,13,Improv_Metronome,371,1,38,60,2519232064
97,24,13,Improv_Metronome,372,5,42,127,2519287072
97,24,13,Improv_Metronome,373,1,38,57,2519349868
97,24,13,Improv_Metronome,374,1,38,37,2519400184
97,24,13,Improv_Metronome,375,5,42,127,2519786880
97,24,13,Improv_Metronome,376,1,38,73,2519840792
97,24,13,Improv_Metronome,377,5,42,127,2520286572
97,24,13,Improv_Metronome,378,1,38,70,2520331728
97,24,13,Improv_Metronome,379,5,42,127,2520787388
97,24,13,Improv_Metronome,380,1,38,61,2520815340
97,24,13,Improv_Metronome,381,5,42,127,2521287160
97,24,13,Improv_Metronome,382,1,38,64,2521330220
97,24,13,Improv_Metronome,383,1,48,55,2521774020
97,24,13,Improv_Metronome,384,5,42,127,2521786696
97,24,13,Improv_Metronome,385,1,48,48,2522104876
97,24,13,Improv_Metronome,386,5,42,127,2522286452
97,24,13,Improv_Metronome,387,1,48,52,2522291140
97,24,13,Improv_Metronome,388,1,48,43,2522413860
97,24,13,Improv_Metronome,389,1,48,33,2522662864
97,24,13,Improv_Metronome,390,5,42,127,2522787148
97,24,13,Improv_Metronome,391,1,48,22,2522891396
97,24,13,Improv_Metronome,392,1,48,60,2522952480
97,24,13,Improv_Metronome,393,1,48,62,2523237012
97,24,13,Improv_Metronome,0,9999,9999,9999,2453284920
97,24,13,Improv_Metronome,1,9999,9999,9999,2453784636
97,24,13,Improv_Metronome,2,9999,9999,9999,2454284352
97,24,13,Improv_Metronome,3,9999,9999,9999,2454784068
97,24,13,Improv_Metronome,4,9999,9999,9999,2455284824
97,24,13,Improv_Metronome,5,9999,9999,9999,2455784556
97,24,13,Improv_Metronome,6,9999,9999,9999,2456284252
97,24,13,Improv_Metronome,7,9999,9999,9999,2456784952
97,24,13,Improv_Metronome,8,9999,9999,9999,2457284704
97,24,13,Improv_Metronome,9,9999,9999,9999,2457784396
97,24,13,Improv_Metronome,10,9999,9999,9999,2458284084
97,24,13,Improv_Metronome,11,9999,9999,9999,2458784856
97,24,13,Improv_Metronome,12,9999,9999,9999,2459284584
97,24,13,Improv_Metronome,13,9999,9999,9999,2459784300
97,24,13,Improv_Metronome,14,9999,9999,9999,2460285044
97,24,13,Improv_Metronome,15,9999,9999,9999,2460784712
97,24,13,Improv_Metronome,16,9999,9999,9999,2461284416
97,24,13,Improv_Metronome,17,9999,9999,9999,2461784180
97,24,13,Improv_Metronome,18,9999,9999,9999,2462284884
97,24,13,Improv_Metronome,19,9999,9999,9999,2462784624
97,24,13,Improv_Metronome,20,9999,9999,9999,2463284284
97,24,13,Improv_Metronome,21,9999,9999,9999,2463785080
97,24,13,Improv_Metronome,22,9999,9999,9999,2464284776
97,24,13,Improv_Metronome,23,9999,9999,9999,2464784460
97,24,13,Improv_Metronome,24,9999,9999,9999,2465284156
97,24,13,Improv_Metronome,25,9999,9999,9999,2465784896
97,24,13,Improv_Metronome,26,9999,9999,9999,2466284604
97,24,13,Improv_Metronome,27,9999,9999,9999,2466784328
97,24,13,Improv_Metronome,28,9999,9999,9999,2467285108
97,24,13,Improv_Metronome,29,9999,9999,9999,2467784824
97,24,13,Improv_Metronome,30,9999,9999,9999,2468284476
97,24,13,Improv_Metronome,31,9999,9999,9999,2468784184
97,24,13,Improv_Metronome,32,9999,9999,9999,2469284928
97,24,13,Improv_Metronome,33,9999,9999,9999,2469784696
97,24,13,Improv_Metronome,34,9999,9999,9999,2470284348
97,24,13,Improv_Metronome,35,9999,9999,9999,2470784060
97,24,13,Improv_Metronome,36,9999,9999,9999,2471284828
97,24,13,Improv_Metronome,37,9999,9999,9999,2471784520
97,24,13,Improv_Metronome,38,9999,9999,9999,2472284216
97,24,13,Improv_Metronome,39,9999,9999,9999,2472784956
97,24,13,Improv_Metronome,40,9999,9999,9999,2473284724
97,24,13,Improv_Metronome,41,9999,9999,9999,2473784420
97,24,13,Improv_Metronome,42,9999,9999,9999,2474284112
97,24,13,Improv_Metronome,43,9999,9999,9999,2474784880
97,24,13,Improv_Metronome,44,9999,9999,9999,2475284532
97,24,13,Improv_Metronome,45,9999,9999,9999,2475784260
97,24,13,Improv_Metronome,46,9999,9999,9999,2476285032
97,24,13,Improv_Metronome,47,9999,9999,9999,2476784704
97,24,13,Improv_Metronome,48,9999,9999,9999,2477284424
97,24,13,Improv_Metronome,49,9999,9999,9999,2477784156
97,24,13,Improv_Metronome,50,9999,9999,9999,2478284872
97,24,13,Improv_Metronome,51,9999,9999,9999,2478784592
97,24,13,Improv_Metronome,52,9999,9999,9999,2479284284
97,24,13,Improv_Metronome,53,9999,9999,9999,2479785024
97,24,13,Improv_Metronome,54,9999,9999,9999,2480284720
97,24,13,Improv_Metronome,55,9999,9999,9999,2480784468
97,24,13,Improv_Metronome,56,9999,9999,9999,2481284156
97,24,13,Improv_Metronome,57,9999,9999,9999,2481784884
97,24,13,Improv_Metronome,58,9999,9999,9999,2482284592
97,24,13,Improv_Metronome,59,9999,9999,9999,2482784356
97,24,13,Improv_Metronome,60,9999,9999,9999,2483285080
97,24,13,Improv_Metronome,61,9999,9999,9999,2483784776
97,24,13,Improv_Metronome,62,9999,9999,9999,2484284472
97,24,13,Improv_Metronome,63,9999,9999,9999,2484784240
97,24,13,Improv_Metronome,64,9999,9999,9999,2485284980
97,24,13,Improv_Metronome,65,9999,9999,9999,2485784656
97,24,13,Improv_Metronome,66,9999,9999,9999,2486284380
97,24,13,Improv_Metronome,67,9999,9999,9999,2486784120
97,24,13,Improv_Metronome,68,9999,9999,9999,2487284828
97,24,13,Improv_Metronome,69,9999,9999,9999,2487784512
97,24,13,Improv_Metronome,70,9999,9999,9999,2488284268
97,24,13,Improv_Metronome,71,9999,9999,9999,2488785008
97,24,13,Improv_Metronome,72,9999,9999,9999,2489284720
97,24,13,Improv_Metronome,73,9999,9999,9999,2489784420
97,24,13,Improv_Metronome,74,9999,9999,9999,2490284112
97,24,13,Improv_Metronome,75,9999,9999,9999,2490784856
97,24,13,Improv_Metronome,76,9999,9999,9999,2491284580
97,24,13,Improv_Metronome,77,9999,9999,9999,2491784248
97,24,13,Improv_Metronome,78,9999,9999,9999,2492285008
97,24,13,Improv_Metronome,79,9999,9999,9999,2492784728
97,24,13,Improv_Metronome,80,9999,9999,9999,2493284400
97,24,13,Improv_Metronome,81,9999,9999,9999,2493784148
97,24,13,Improv_Metronome,82,9999,9999,9999,2494284872
97,24,13,Improv_Metronome,83,9999,9999,9999,2494784568
97,24,13,Improv_Metronome,84,9999,9999,9999,2495284336
97,24,13,Improv_Metronome,85,9999,9999,9999,2495785052
97,24,13,Improv_Metronome,86,9999,9999,9999,2496284748
97,24,13,Improv_Metronome,87,9999,9999,9999,2496784444
97,24,13,Improv_Metronome,88,9999,9999,9999,2497284212
97,24,13,Improv_Metronome,89,9999,9999,9999,2497784912
97,24,13,Improv_Metronome,90,9999,9999,9999,2498284636
97,24,13,Improv_Metronome,91,9999,9999,9999,2498784360
97,24,13,Improv_Metronome,92,9999,9999,9999,2499285044
97,24,13,Improv_Metronome,93,9999,9999,9999,2499784816
97,24,13,Improv_Metronome,94,9999,9999,9999,2500284512
97,24,13,Improv_Metronome,95,9999,9999,9999,2500784204
97,24,13,Improv_Metronome,96,9999,9999,9999,2501284948
97,24,13,Improv_Metronome,97,9999,9999,9999,2501784672
97,24,13,Improv_Metronome,98,9999,9999,9999,2502284340
97,24,13,Improv_Metronome,99,9999,9999,9999,2502784064
97,24,13,Improv_Metronome,100,9999,9999,9999,2503284844
97,24,13,Improv_Metronome,101,9999,9999,9999,2503784536
97,24,13,Improv_Metronome,102,9999,9999,9999,2504284228
97,24,13,Improv_Metronome,103,9999,9999,9999,2504784968
97,24,13,Improv_Metronome,104,9999,9999,9999,2505284664
97,24,13,Improv_Metronome,105,9999,9999,9999,2505784428
97,24,13,Improv_Metronome,106,9999,9999,9999,2506284152
97,24,13,Improv_Metronome,107,9999,9999,9999,2506784828
97,24,13,Improv_Metronome,108,9999,9999,9999,2507284560
97,24,13,Improv_Metronome,109,9999,9999,9999,2507784256
97,24,13,Improv_Metronome,110,9999,9999,9999,2508284996
97,24,13,Improv_Metronome,111,9999,9999,9999,2508784688
97,24,13,Improv_Metronome,112,9999,9999,9999,2509284460
97,24,13,Improv_Metronome,113,9999,9999,9999,2509784152
97,24,13,Improv_Metronome,114,9999,9999,9999,2510284900
97,24,13,Improv_Metronome,115,9999,9999,9999,2510784628
97,24,13,Improv_Metronome,116,9999,9999,9999,2511284332
97,24,13,Improv_Metronome,117,9999,9999,9999,2511785072
97,24,13,Improv_Metronome,118,9999,9999,9999,2512284784
97,24,13,Improv_Metronome,119,9999,9999,9999,2512784484
97,24,13,Improv_Metronome,120,9999,9999,9999,2513284172
97,24,13,Improv_Metronome,121,9999,9999,9999,2513784924
97,24,13,Improv_Metronome,122,9999,9999,9999,2514284616
97,24,13,Improv_Metronome,123,9999,9999,9999,2514784348
97,24,13,Improv_Metronome,124,9999,9999,9999,2515285060
97,24,13,Improv_Metronome,125,9999,9999,9999,2515784796
97,24,13,Improv_Metronome,126,9999,9999,9999,2516284492
97,24,13,Improv_Metronome,127,9999,9999,9999,2516784188
97,24,13,Improv_Metronome,128,9999,9999,9999,2517284928
97,24,13,Improv_Metronome,129,9999,9999,9999,2517784624
97,24,13,Improv_Metronome,130,9999,9999,9999,2518284348
97,24,13,Improv_Metronome,131,9999,9999,9999,2518784076
97,24,13,Improv_Metronome,132,9999,9999,9999,2519284788
97,24,13,Improv_Metronome,133,9999,9999,9999,2519784516
97,24,13,Improv_Metronome,134,9999,9999,9999,2520284212
97,24,13,Improv_Metronome,135,9999,9999,9999,2520784952
97,24,13,Improv_Metronome,136,9999,9999,9999,2521284724
97,24,13,Improv_Metronome,137,9999,9999,9999,2521784412
97,24,13,Improv_Metronome,138,9999,9999,9999,2522284092
97,24,13,Improv_Metronome,139,9999,9999,9999,2522784860
97,25,14,Improv_Melody,0,2,48,80,2573586876
97,25,14,Improv_Melody,1,2,72,80,2573589112
97,25,14,Improv_Melody,2,5,42,127,2573591728
97,25,14,Improv_Melody,3,5,42,110,2574084416
97,25,14,Improv_Melody,4,5,42,110,2574585260
97,25,14,Improv_Melody,5,5,42,110,2575084980
97,25,14,Improv_Melody,6,5,42,127,2575584628
97,25,14,Improv_Melody,7,5,42,110,2576085472
97,25,14,Improv_Melody,8,5,42,110,2576584972
97,25,14,Improv_Melody,9,5,42,110,2577084768
97,25,14,Improv_Melody,10,2,43,80,2577587144
97,25,14,Improv_Melody,11,2,67,80,2577589300
97,25,14,Improv_Melody,12,5,42,127,2577591832
97,25,14,Improv_Melody,13,5,42,110,2578085124
97,25,14,Improv_Melody,14,5,42,110,2578584996
97,25,14,Improv_Melody,15,5,42,110,2579084716
97,25,14,Improv_Melody,16,5,42,127,2579585260
97,25,14,Improv_Melody,17,5,42,110,2580085032
97,25,14,Improv_Melody,18,5,42,110,2580584676
97,25,14,Improv_Melody,19,5,42,110,2581084624
97,25,14,Improv_Melody,20,2,45,80,2581588048
97,25,14,Improv_Melody,21,2,69,80,2581589972
97,25,14,Improv_Melody,22,5,42,127,2581592588
97,25,14,Improv_Melody,23,5,42,110,2582084828
97,25,14,Improv_Melody,24,5,42,110,2582584700
97,25,14,Improv_Melody,25,5,42,110,2583085692
97,25,14,Improv_Melody,26,5,42,127,2583585040
97,25,14,Improv_Melody,27,5,42,110,2584084836
97,25,14,Improv_Melody,28,5,42,110,2584584484
97,25,14,Improv_Melody,29,5,42,110,2585085252
97,25,14,Improv_Melody,30,2,41,80,2585587700
97,25,14,Improv_Melody,31,2,65,80,2585589556
97,25,14,Improv_Melody,32,5,42,127,2585592020
97,25,14,Improv_Melody,33,5,42,110,2586084860
97,25,14,Improv_Melody,34,5,42,110,2586584656
97,25,14,Improv_Melody,35,5,42,110,2587085200
97,25,14,Improv_Melody,36,5,42,127,2587584772
97,25,14,Improv_Melody,37,5,42,110,2588084716
97,25,14,Improv_Melody,38,5,42,110,2588585412
97,25,14,Improv_Melody,39,5,42,110,2589084912
97,25,14,Improv_Melody,40,2,48,80,2589587056
97,25,14,Improv_Melody,41,2,72,80,2589589288
97,25,14,Improv_Melody,42,5,42,127,2589591756
97,25,14,Improv_Melody,43,1,48,41,2589594724
97,25,14,Improv_Melody,44,5,42,110,2590084644
97,25,14,Improv_Melody,45,1,48,39,2590137356
97,25,14,Improv_Melody,46,5,42,110,2590585392
97,25,14,Improv_Melody,47,1,48,27,2590588964
97,25,14,Improv_Melody,48,1,48,29,2591079564
97,25,14,Improv_Melody,49,5,42,110,2591084912
97,25,14,Improv_Melody,50,5,42,127,2591584616
97,25,14,Improv_Melody,51,1,48,31,2591608332
97,25,14,Improv_Melody,52,1,48,29,2592066772
97,25,14,Improv_Melody,53,5,42,110,2592085432
97,25,14,Improv_Melody,54,1,48,29,2592550464
97,25,14,Improv_Melody,55,5,42,110,2592585208
97,25,14,Improv_Melody,56,1,48,32,2593077984
97,25,14,Improv_Melody,57,5,42,110,2593084908
97,25,14,Improv_Melody,58,1,48,38,2593585400
97,25,14,Improv_Melody,59,2,43,80,2593588400
97,25,14,Improv_Melody,60,2,67,80,2593590328
97,25,14,Improv_Melody,61,5,42,127,2593592936
97,25,14,Improv_Melody,62,1,38,46,2593604208
97,25,14,Improv_Melody,63,1,38,40,2594069448
97,25,14,Improv_Melody,64,5,42,110,2594085196
97,25,14,Improv_Melody,65,1,48,42,2594097368
97,25,14,Improv_Melody,66,1,38,42,2594552520
97,25,14,Improv_Melody,67,1,48,44,2594566640
97,25,14,Improv_Melody,68,5,42,110,2594585004
97,25,14,Improv_Melody,69,5,42,110,2595084608
97,25,14,Improv_Melody,70,1,48,45,2595092436
97,25,14,Improv_Melody,71,1,38,40,2595095636
97,25,14,Improv_Melody,72,5,42,127,2595585320
97,25,14,Improv_Melody,73,1,48,40,2595595844
97,25,14,Improv_Melody,74,1,38,38,2595611008
97,25,14,Improv_Melody,75,1,38,39,2596065792
97,25,14,Improv_Melody,76,5,42,110,2596085200
97,25,14,Improv_Melody,77,1,48,41,2596098420
97,25,14,Improv_Melody,78,1,48,43,2596565676
97,25,14,Improv_Melody,79,5,42,110,2596584940
97,25,14,Improv_Melody,80,1,48,46,2597019380
97,25,14,Improv_Melody,81,5,42,110,2597084496
97,25,14,Improv_Melody,82,2,45,80,2597587748
97,25,14,Improv_Melody,83,2,69,80,2597590056
97,25,14,Improv_Melody,84,1,38,52,2597592816
97,25,14,Improv_Melody,85,5,42,127,2597595280
97,25,14,Improv_Melody,86,1,38,46,2598079304
97,25,14,Improv_Melody,87,5,42,110,2598085176
97,25,14,Improv_Melody,88,5,42,110,2598584660
97,25,14,Improv_Melody,89,1,38,46,2598585996
97,25,14,Improv_Melody,90,5,42,110,2599085408
97,25,14,Improv_Melody,91,1,38,43,2599091296
97,25,14,Improv_Melody,92,1,38,44,2599552748
97,25,14,Improv_Melody,93,5,42,127,2599585248
97,25,14,Improv_Melody,94,1,38,26,2599604208
97,25,14,Improv_Melody,95,1,38,44,2600056992
97,25,14,Improv_Melody,96,5,42,110,2600084780
97,25,14,Improv_Melody,97,1,38,29,2600113760
97,25,14,Improv_Melody,98,1,38,43,2600553504
97,25,14,Improv_Melody,99,5,42,110,2600584604
97,25,14,Improv_Melody,100,1,38,31,2600602592
97,25,14,Improv_Melody,101,1,38,41,2601058188
97,25,14,Improv_Melody,102,5,42,110,2601085332
97,25,14,Improv_Melody,103,1,38,27,2601105640
97,25,14,Improv_Melody,104,2,41,80,2601587724
97,25,14,Improv_Melody,105,2,65,80,2601590360
97,25,14,Improv_Melody,106,5,42,127,2601592596
97,25,14,Improv_Melody,107,1,38,40,2601598932
97,25,14,Improv_Melody,108,1,48,54,2601606916
97,25,14,Improv_Melody,109,1,48,30,2601683860
97,25,14,Improv_Melody,110,5,42,110,2602084648
97,25,14,Improv_Melody,111,1,48,53,2602089864
97,25,14,Improv_Melody,112,1,38,30,2602145904
97,25,14,Improv_Melody,113,1,48,32,2602150372
97,25,14,Improv_Melody,114,1,48,46,2602571680
97,25,14,Improv_Melody,115,1,38,37,2602572332
97,25,14,Improv_Melody,116,5,42,110,2602584416
97,25,14,Improv_Melody,117,1,48,30,2602627336
97,25,14,Improv_Melody,118,5,42,110,2603085268
97,25,14,Improv_Melody,119,1,48,52,2603089360
97,25,14,Improv_Melody,120,1,38,33,2603113052
97,25,14,Improv_Melody,121,1,48,28,2603149252
97,25,14,Improv_Melody,122,1,48,48,2603583308
97,25,14,Improv_Melody,123,5,42,127,2603584816
97,25,14,Improv_Melody,124,1,38,33,2603603344
97,25,14,Improv_Melody,125,1,48,32,2603625012
97,25,14,Improv_Melody,126,1,48,40,2604076864
97,25,14,Improv_Melody,127,5,42,110,2604084460
97,25,14,Improv_Melody,128,1,48,24,2604139924
97,25,14,Improv_Melody,129,1,48,50,2604566368
97,25,14,Improv_Melody,130,5,42,110,2604585184
97,25,14,Improv_Melody,131,1,48,47,2605071156
97,25,14,Improv_Melody,132,5,42,110,2605085184
97,25,14,Improv_Melody,133,1,48,27,2605144240
97,25,14,Improv_Melody,134,2,48,80,2605587296
97,25,14,Improv_Melody,135,2,72,80,2605589448
97,25,14,Improv_Melody,136,1,48,53,2605590792
97,25,14,Improv_Melody,137,5,42,127,2605593104
97,25,14,Improv_Melody,138,1,48,37,2605864980
97,25,14,Improv_Melody,139,1,48,56,2605958408
97,25,14,Improv_Melody,140,5,42,110,2606084312
97,25,14,Improv_Melody,141,1,48,37,2606121760
97,25,14,Improv_Melody,142,1,48,54,2606345932
97,25,14,Improv_Melody,143,1,48,46,2606441280
97,25,14,Improv_Melody,144,1,48,33,2606495432
97,25,14,Improv_Melody,145,1,48,58,2606576344
97,25,14,Improv_Melody,146,5,42,110,2606585136
97,25,14,Improv_Melody,147,1,48,41,2606841752
97,25,14,Improv_Melody,148,1,48,29,2606896336
97,25,14,Improv_Melody,149,1,48,43,2606959892
97,25,14,Improv_Melody,150,5,42,110,2607085000
97,25,14,Improv_Melody,151,1,48,30,2607132700
97,25,14,Improv_Melody,152,1,48,46,2607375868
97,25,14,Improv_Melody,153,5,42,127,2607584528
97,25,14,Improv_Melody,154,1,48,51,2607656904
97,25,14,Improv_Melody,155,1,48,51,2607918408
97,25,14,Improv_Melody,156,1,48,40,2608074960
97,25,14,Improv_Melody,157,5,42,110,2608085244
97,25,14,Improv_Melody,158,1,48,30,2608126940
97,25,14,Improv_Melody,159,1,48,46,2608180260
97,25,14,Improv_Melody,160,1,48,27,2608496496
97,25,14,Improv_Melody,161,1,48,43,2608517968
97,25,14,Improv_Melody,162,5,42,110,2608585176
97,25,14,Improv_Melody,163,1,48,54,2608779420
97,25,14,Improv_Melody,164,1,48,35,2609066192
97,25,14,Improv_Melody,165,5,42,110,2609084632
97,25,14,Improv_Melody,166,1,48,48,2609200004
97,25,14,Improv_Melody,167,1,48,46,2609334572
97,25,14,Improv_Melody,168,1,48,29,2609394764
97,25,14,Improv_Melody,169,1,48,45,2609451364
97,25,14,Improv_Melody,170,2,43,80,2609587052
97,25,14,Improv_Melody,171,2,67,80,2609589284
97,25,14,Improv_Melody,172,5,42,127,2609591816
97,25,14,Improv_Melody,173,1,38,53,2609967380
97,25,14,Improv_Melody,174,5,42,110,2610085160
97,25,14,Improv_Melody,175,1,38,55,2610527064
97,25,14,Improv_Melody,176,5,42,110,2610585320
97,25,14,Improv_Melody,177,1,38,46,2611013524
97,25,14,Improv_Melody,178,1,38,24,2611084408
97,25,14,Improv_Melody,179,5,42,110,2611086568
97,25,14,Improv_Melody,180,1,38,51,2611522180
97,25,14,Improv_Melody,181,5,42,127,2611585296
97,25,14,Improv_Melody,182,1,38,38,2611758420
97,25,14,Improv_Melody,183,1,38,46,2611890812
97,25,14,Improv_Melody,184,1,38,41,2612004036
97,25,14,Improv_Melody,185,1,38,25,2612058916
97,25,14,Improv_Melody,186,5,42,110,2612085232
97,25,14,Improv_Melody,187,1,38,50,2612258280
97,25,14,Improv_Melody,188,1,38,39,2612365164
97,25,14,Improv_Melody,189,1,38,23,2612420048
97,25,14,Improv_Melody,190,1,38,59,2612508136
97,25,14,Improv_Melody,191,5,42,110,2612584772
97,25,14,Improv_Melody,192,1,38,33,2612724856
97,25,14,Improv_Melody,193,1,38,22,2612778612
97,25,14,Improv_Melody,194,1,38,54,2612933972
97,25,14,Improv_Melody,195,1,38,21,2613013008
97,25,14,Improv_Melody,196,5,42,110,2613084556
97,25,14,Improv_Melody,197,2,45,80,2613587584
97,25,14,Improv_Melody,198,1,48,59,2613588556
97,25,14,Improv_Melody,199,2,69,80,2613591324
97,25,14,Improv_Melody,200,5,42,127,2613593632
97,25,14,Improv_Melody,201,1,48,54,2614081476
97,25,14,Improv_Melody,202,5,42,110,2614085256
97,25,14,Improv_Melody,203,1,48,49,2614571680
97,25,14,Improv_Melody,204,5,42,110,2614584584
97,25,14,Improv_Melody,205,1,48,32,2614628976
97,25,14,Improv_Melody,206,1,48,49,2615070160
97,25,14,Improv_Melody,207,5,42,110,2615085380
97,25,14,Improv_Melody,208,1,48,23,2615146680
97,25,14,Improv_Melody,209,5,42,127,2615585140
97,25,14,Improv_Melody,210,1,48,58,2615589532
97,25,14,Improv_Melody,211,1,38,55,2615594968
97,25,14,Improv_Melody,212,1,38,49,2616072032
97,25,14,Improv_Melody,213,5,42,110,2616085084
97,25,14,Improv_Melody,214,1,48,58,2616088204
97,25,14,Improv_Melody,215,1,38,36,2616121844
97,25,14,Improv_Melody,216,1,48,30,2616163184
97,25,14,Improv_Melody,217,1,48,59,2616576068
97,25,14,Improv_Melody,218,5,42,110,2616584408
97,25,14,Improv_Melody,219,1,38,47,2616595156
97,25,14,Improv_Melody,220,1,48,31,2616654596
97,25,14,Improv_Melody,221,1,38,19,2616678516
97,25,14,Improv_Melody,222,1,38,48,2617071728
97,25,14,Improv_Melody,223,1,48,51,2617074172
97,25,14,Improv_Melody,224,5,42,110,2617085280
97,25,14,Improv_Melody,225,1,38,24,2617145752
97,25,14,Improv_Melody,226,1,38,64,2617583460
97,25,14,Improv_Melody,227,2,41,80,2617589024
97,25,14,Improv_Melody,228,2,65,80,2617590948
97,25,14,Improv_Melody,229,5,42,127,2617593560
97,25,14,Improv_Melody,230,1,38,61,2617981844
97,25,14,Improv_Melody,231,5,42,110,2618084792
97,25,14,Improv_Melody,232,1,38,61,2618580580
97,25,14,Improv_Melody,233,5,42,110,2618584356
97,25,14,Improv_Melody,234,5,42,110,2619085036
97,25,14,Improv_Melody,235,1,38,55,2619086000
97,25,14,Improv_Melody,236,5,42,127,2619585032
97,25,14,Improv_Melody,237,1,38,61,2619591368
97,25,14,Improv_Melody,238,5,42,110,2620084660
97,25,14,Improv_Melody,239,1,38,59,2620101464
97,25,14,Improv_Melody,240,5,42,110,2620585184
97,25,14,Improv_Melody,241,1,38,45,2620628096
97,25,14,Improv_Melody,242,5,42,110,2621085032
97,25,14,Improv_Melody,243,1,38,53,2621098844
97,25,14,Improv_Melody,244,2,48,80,2621587384
97,25,14,Improv_Melody,245,2,72,80,2621589692
97,25,14,Improv_Melody,246,5,42,127,2621592076
97,25,14,Improv_Melody,247,1,48,58,2621614864
97,25,14,Improv_Melody,248,1,48,50,2621845772
97,25,14,Improv_Melody,249,5,42,110,2622084352
97,25,14,Improv_Melody,250,1,48,51,2622094948
97,25,14,Improv_Melody,251,1,48,52,2622311092
97,25,14,Improv_Melody,252,1,48,56,2622563612
97,25,14,Improv_Melody,253,5,42,110,2622585144
97,25,14,Improv_Melody,254,1,48,53,2622804112
97,25,14,Improv_Melody,255,1,48,54,2623079292
97,25,14,Improv_Melody,256,5,42,110,2623085168
97,25,14,Improv_Melody,257,1,48,43,2623309700
97,25,14,Improv_Melody,258,1,48,49,2623580324
97,25,14,Improv_Melody,259,5,42,127,2623584548
97,25,14,Improv_Melody,260,1,48,47,2623813340
97,25,14,Improv_Melody,261,5,42,110,2624085428
97,25,14,Improv_Melody,262,1,48,57,2624088772
97,25,14,Improv_Melody,263,1,48,56,2624331196
97,25,14,Improv_Melody,264,1,48,54,2624567856
97,25,14,Improv_Melody,265,5,42,110,2624585024
97,25,14,Improv_Melody,266,1,48,51,2624827052
97,25,14,Improv_Melody,267,1,48,55,2625077028
97,25,14,Improv_Melody,268,5,42,110,2625085072
97,25,14,Improv_Melody,269,1,48,55,2625301604
97,25,14,Improv_Melody,270,2,43,80,2625587184
97,25,14,Improv_Melody,271,2,67,80,2625589188
97,25,14,Improv_Melody,272,5,42,127,2625592024
97,25,14,Improv_Melody,273,1,48,59,2625607412
97,25,14,Improv_Melody,274,1,38,63,2625626912
97,25,14,Improv_Melody,275,1,38,38,2625687276
97,25,14,Improv_Melody,276,1,48,53,2625841468
97,25,14,Improv_Melody,277,5,42,110,2626085276
97,25,14,Improv_Melody,278,1,48,49,2626103204
97,25,14,Improv_Melody,279,1,48,49,2626350936
97,25,14,Improv_Melody,280,1,48,47,2626567184
97,25,14,Improv_Melody,281,5,42,110,2626585024
97,25,14,Improv_Melody,282,1,48,47,2626799832
97,25,14,Improv_Melody,283,1,48,51,2627034020
97,25,14,Improv_Melody,284,1,48,28,2627086028
97,25,14,Improv_Melody,285,5,42,110,2627086920
97,25,14,Improv_Melody,286,1,48,49,2627279736
97,25,14,Improv_Melody,287,1,48,58,2627574668
97,25,14,Improv_Melody,288,5,42,127,2627585256
97,25,14,Improv_Melody,289,1,38,46,2627589424
97,25,14,Improv_Melody,290,1,48,54,2627823064
97,25,14,Improv_Melody,291,1,48,49,2628068928
97,25,14,Improv_Melody,292,5,42,110,2628085124
97,25,14,Improv_Melody,293,1,48,48,2628322820
97,25,14,Improv_Melody,294,1,48,51,2628573544
97,25,14,Improv_Melody,295,5,42,110,2628584876
97,25,14,Improv_Melody,296,1,48,47,2628820552
97,25,14,Improv_Melody,297,1,48,49,2629048912
97,25,14,Improv_Melody,298,5,42,110,2629084628
97,25,14,Improv_Melody,299,1,48,39,2629317688
97,25,14,Improv_Melody,300,2,45,80,2629587712
97,25,14,Improv_Melody,301,2,69,80,2629589940
97,25,14,Improv_Melody,302,5,42,127,2629592632
97,25,14,Improv_Melody,303,1,38,68,2629604052
97,25,14,Improv_Melody,304,1,38,57,2629850592
97,25,14,Improv_Melody,305,5,42,110,2630084832
97,25,14,Improv_Melody,306,1,38,63,2630090044
97,25,14,Improv_Melody,307,1,38,58,2630345624
97,25,14,Improv_Melody,308,5,42,110,2630584656
97,25,14,Improv_Melody,309,1,38,59,2630594808
97,25,14,Improv_Melody,310,1,38,54,2630830796
97,25,14,Improv_Melody,311,5,42,110,2631085308
97,25,14,Improv_Melody,312,1,38,40,2631086276
97,25,14,Improv_Melody,313,1,38,47,2631308184
97,25,14,Improv_Melody,314,1,38,43,2631545668
97,25,14,Improv_Melody,315,5,42,127,2631585132
97,25,14,Improv_Melody,316,1,38,40,2631813328
97,25,14,Improv_Melody,317,1,38,38,2632051632
97,25,14,Improv_Melody,318,5,42,110,2632084884
97,25,14,Improv_Melody,319,1,38,36,2632282836
97,25,14,Improv_Melody,320,1,38,29,2632528696
97,25,14,Improv_Melody,321,5,42,110,2632584636
97,25,14,Improv_Melody,322,1,38,43,2632776156
97,25,14,Improv_Melody,323,1,38,45,2633004144
97,25,14,Improv_Melody,324,5,42,110,2633085212
97,25,14,Improv_Melody,325,1,38,41,2633269924
97,25,14,Improv_Melody,326,1,38,29,2633529248
97,25,14,Improv_Melody,327,2,41,80,2633587772
97,25,14,Improv_Melody,328,2,65,80,2633589848
97,25,14,Improv_Melody,329,1,48,19,2633591264
97,25,14,Improv_Melody,330,5,42,127,2633593720
97,25,14,Improv_Melody,331,1,38,17,2633862132
97,25,14,Improv_Melody,332,1,48,21,2633909084
97,25,14,Improv_Melody,333,5,42,110,2634084708
97,25,14,Improv_Melody,334,1,38,22,2634105576
97,25,14,Improv_Melody,335,1,38,40,2634347000
97,25,14,Improv_Melody,336,1,38,45,2634555016
97,25,14,Improv_Melody,337,5,42,110,2634584528
97,25,14,Improv_Melody,338,1,38,50,2634937208
97,25,14,Improv_Melody,339,5,42,110,2635085036
97,25,14,Improv_Melody,340,1,38,48,2635172176
97,25,14,Improv_Melody,341,1,38,39,2635416392
97,25,14,Improv_Melody,342,5,42,127,2635585012
97,25,14,Improv_Melody,343,1,38,39,2635652856
97,25,14,Improv_Melody,344,1,38,40,2635890244
97,25,14,Improv_Melody,345,5,42,110,2636084540
97,25,14,Improv_Melody,346,1,38,37,2636117948
97,25,14,Improv_Melody,347,1,38,36,2636357156
97,25,14,Improv_Melody,348,5,42,110,2636585412
97,25,14,Improv_Melody,349,1,38,36,2636588160
97,25,14,Improv_Melody,350,1,38,38,2636820184
97,25,14,Improv_Melody,351,1,38,33,2637078012
97,25,14,Improv_Melody,352,5,42,110,2637085008
97,25,14,Improv_Melody,353,1,38,41,2637323752
97,25,14,Improv_Melody,354,2,48,80,2637587192
97,25,14,Improv_Melody,355,2,72,80,2637589424
97,25,14,Improv_Melody,356,5,42,127,2637592112
97,25,14,Improv_Melody,357,1,48,57,2637602636
97,25,14,Improv_Melody,358,1,38,55,2637623036
97,25,14,Improv_Melody,359,1,38,41,2637861168
97,25,14,Improv_Melody,360,1,48,29,2637915300
97,25,14,Improv_Melody,361,5,42,110,2638084588
97,25,14,Improv_Melody,362,1,38,28,2638118820
97,25,14,Improv_Melody,363,1,38,33,2638362816
97,25,14,Improv_Melody,364,1,38,29,2638573972
97,25,14,Improv_Melody,365,5,42,110,2638585084
97,25,14,Improv_Melody,366,1,38,31,2638812308
97,25,14,Improv_Melody,367,1,38,31,2639075744
97,25,14,Improv_Melody,368,5,42,110,2639084908
97,25,14,Improv_Melody,369,1,38,36,2639324920
97,25,14,Improv_Melody,370,1,38,29,2639556800
97,25,14,Improv_Melody,371,5,42,127,2639584588
97,25,14,Improv_Melody,372,1,38,32,2639788252
97,25,14,Improv_Melody,373,1,38,31,2640049672
97,25,14,Improv_Melody,374,5,42,110,2640085536
97,25,14,Improv_Melody,375,1,38,31,2640325176
97,25,14,Improv_Melody,376,1,38,31,2640561764
97,25,14,Improv_Melody,377,5,42,110,2640585140
97,25,14,Improv_Melody,378,1,38,36,2640814756
97,25,14,Improv_Melody,379,1,38,36,2641079400
97,25,14,Improv_Melody,380,5,42,110,2641084672
97,25,14,Improv_Melody,381,1,38,34,2641311592
97,25,14,Improv_Melody,382,1,48,44,2641575852
97,25,14,Improv_Melody,383,2,43,80,2641587148
97,25,14,Improv_Melody,384,2,67,80,2641589308
97,25,14,Improv_Melody,385,5,42,127,2641591844
97,25,14,Improv_Melody,386,1,38,43,2641602292
97,25,14,Improv_Melody,387,1,38,40,2641821728
97,25,14,Improv_Melody,388,1,48,40,2641840104
97,25,14,Improv_Melody,389,5,42,110,2642085312
97,25,14,Improv_Melody,390,1,38,38,2642108324
97,25,14,Improv_Melody,391,1,38,30,2642340728
97,25,14,Improv_Melody,392,1,38,34,2642583028
97,25,14,Improv_Melody,393,5,42,110,2642585060
97,25,14,Improv_Melody,394,1,38,30,2642817744
97,25,14,Improv_Melody,395,1,38,32,2643052064
97,25,14,Improv_Melody,396,5,42,110,2643084516
97,25,14,Improv_Melody,397,1,38,33,2643312164
97,25,14,Improv_Melody,398,1,38,37,2643576448
97,25,14,Improv_Melody,399,5,42,127,2643585536
97,25,14,Improv_Melody,400,1,38,36,2643823060
97,25,14,Improv_Melody,401,1,38,36,2644075876
97,25,14,Improv_Melody,402,5,42,110,2644084992
97,25,14,Improv_Melody,403,1,38,33,2644312488
97,25,14,Improv_Melody,404,1,38,34,2644575104
97,25,14,Improv_Melody,405,5,42,110,2644584720
97,25,14,Improv_Melody,406,1,38,29,2644815532
97,25,14,Improv_Melody,407,1,38,31,2645061096
97,25,14,Improv_Melody,408,5,42,110,2645084472
97,25,14,Improv_Melody,409,1,38,31,2645290600
97,25,14,Improv_Melody,410,1,48,44,2645567952
97,25,14,Improv_Melody,411,2,45,80,2645588080
97,25,14,Improv_Melody,412,2,69,80,2645590304
97,25,14,Improv_Melody,413,5,42,127,2645592764
97,25,14,Improv_Melody,414,1,38,31,2645606280
97,25,14,Improv_Melody,415,1,38,36,2645817712
97,25,14,Improv_Melody,416,1,48,30,2645857780
97,25,14,Improv_Melody,417,5,42,110,2646084964
97,25,14,Improv_Melody,418,1,38,30,2646128700
97,25,14,Improv_Melody,419,1,38,24,2646339932
97,25,14,Improv_Melody,420,1,38,27,2646573972
97,25,14,Improv_Melody,421,5,42,110,2646584560
97,25,14,Improv_Melody,422,1,38,32,2646835716
97,25,14,Improv_Melody,423,5,42,110,2647085588
97,25,14,Improv_Melody,424,1,38,33,2647089388
97,25,14,Improv_Melody,425,1,38,32,2647320740
97,25,14,Improv_Melody,426,1,38,32,2647575048
97,25,14,Improv_Melody,427,5,42,127,2647585408
97,25,14,Improv_Melody,428,1,38,30,2647826696
97,25,14,Improv_Melody,429,1,38,27,2648071364
97,25,14,Improv_Melody,430,5,42,110,2648084792
97,25,14,Improv_Melody,431,1,38,33,2648316796
97,25,14,Improv_Melody,432,5,42,110,2648584624
97,25,14,Improv_Melody,433,1,38,29,2648596496
97,25,14,Improv_Melody,434,1,38,35,2648847068
97,25,14,Improv_Melody,435,5,42,110,2649085496
97,25,14,Improv_Melody,436,1,38,33,2649089888
97,25,14,Improv_Melody,437,1,38,35,2649307404
97,25,14,Improv_Melody,438,2,41,80,2649587604
97,25,14,Improv_Melody,439,2,65,80,2649589532
97,25,14,Improv_Melody,440,1,48,45,2649591692
97,25,14,Improv_Melody,441,5,42,127,2649593408
97,25,14,Improv_Melody,442,1,38,46,2649615604
97,25,14,Improv_Melody,443,1,38,42,2649865076
97,25,14,Improv_Melody,444,1,48,22,2650002036
97,25,14,Improv_Melody,445,5,42,110,2650084652
97,25,14,Improv_Melody,446,1,38,36,2650376200
97,25,14,Improv_Melody,447,5,42,110,2650584412
97,25,14,Improv_Melody,448,1,38,32,2650626648
97,25,14,Improv_Melody,449,1,38,32,2650857248
97,25,14,Improv_Melody,450,5,42,110,2651085356
97,25,14,Improv_Melody,451,1,38,29,2651099024
97,25,14,Improv_Melody,452,1,38,27,2651338084
97,25,14,Improv_Melody,453,1,38,23,2651579536
97,25,14,Improv_Melody,454,5,42,127,2651584808
97,25,14,Improv_Melody,455,1,38,24,2651806944
97,25,14,Improv_Melody,456,1,38,27,2652067996
97,25,14,Improv_Melody,457,5,42,110,2652084560
97,25,14,Improv_Melody,458,1,38,28,2652327788
97,25,14,Improv_Melody,459,1,38,29,2652562584
97,25,14,Improv_Melody,460,5,42,110,2652585436
97,25,14,Improv_Melody,461,1,38,29,2652804356
97,25,14,Improv_Melody,462,1,38,24,2653046328
97,25,14,Improv_Melody,463,5,42,110,2653085036
97,25,14,Improv_Melody,464,1,38,26,2653278200
97,25,14,Improv_Melody,465,1,48,43,2653586772
97,25,14,Improv_Melody,466,2,48,80,2653588572
97,25,14,Improv_Melody,467,2,72,80,2653590496
97,25,14,Improv_Melody,468,5,42,127,2653593036
97,25,14,Improv_Melody,469,1,38,39,2653611784
97,25,14,Improv_Melody,470,1,38,35,2653836380
97,25,14,Improv_Melody,471,1,48,39,2653842496
97,25,14,Improv_Melody,472,5,42,110,2654084408
97,25,14,Improv_Melody,473,1,38,37,2654129864
97,25,14,Improv_Melody,474,1,38,29,2654379540
97,25,14,Improv_Melody,0,9999,9999,9999,2573582420
97,25,14,Improv_Melody,1,9999,9999,9999,2574082124
97,25,14,Improv_Melody,2,9999,9999,9999,2574582892
97,25,14,Improv_Melody,3,9999,9999,9999,2575082616
97,25,14,Improv_Melody,4,9999,9999,9999,2575582264
97,25,14,Improv_Melody,5,9999,9999,9999,2576083032
97,25,14,Improv_Melody,6,9999,9999,9999,2576582752
97,25,14,Improv_Melody,7,9999,9999,9999,2577082476
97,25,14,Improv_Melody,8,9999,9999,9999,2577582196
97,25,14,Improv_Melody,9,9999,9999,9999,2578082904
97,25,14,Improv_Melody,10,9999,9999,9999,2578582628
97,25,14,Improv_Melody,11,9999,9999,9999,2579082348
97,25,14,Improv_Melody,12,9999,9999,9999,2579583044
97,25,14,Improv_Melody,13,9999,9999,9999,2580082740
97,25,14,Improv_Melody,14,9999,9999,9999,2580582460
97,25,14,Improv_Melody,15,9999,9999,9999,2581082184
97,25,14,Improv_Melody,16,9999,9999,9999,2581582952
97,25,14,Improv_Melody,17,9999,9999,9999,2582082612
97,25,14,Improv_Melody,18,9999,9999,9999,2582582332
97,25,14,Improv_Melody,19,9999,9999,9999,2583083100
97,25,14,Improv_Melody,20,9999,9999,9999,2583582824
97,25,14,Improv_Melody,21,9999,9999,9999,2584082544
97,25,14,Improv_Melody,22,9999,9999,9999,2584582192
97,25,14,Improv_Melody,23,9999,9999,9999,2585082960
97,25,14,Improv_Melody,24,9999,9999,9999,2585582684
97,25,14,Improv_Melody,25,9999,9999,9999,2586082420
97,25,14,Improv_Melody,26,9999,9999,9999,2586582064
97,25,14,Improv_Melody,27,9999,9999,9999,2587082832
97,25,14,Improv_Melody,28,9999,9999,9999,2587582556
97,25,14,Improv_Melody,29,9999,9999,9999,2588082276
97,25,14,Improv_Melody,30,9999,9999,9999,2588582972
97,25,14,Improv_Melody,31,9999,9999,9999,2589082692
97,25,14,Improv_Melody,32,9999,9999,9999,2589582412
97,25,14,Improv_Melody,33,9999,9999,9999,2590082132
97,25,14,Improv_Melody,34,9999,9999,9999,2590582876
97,25,14,Improv_Melody,35,9999,9999,9999,2591082544
97,25,14,Improv_Melody,36,9999,9999,9999,2591582324
97,25,14,Improv_Melody,37,9999,9999,9999,2592082992
97,25,14,Improv_Melody,38,9999,9999,9999,2592582768
97,25,14,Improv_Melody,39,9999,9999,9999,2593082468
97,25,14,Improv_Melody,40,9999,9999,9999,2593582172
97,25,14,Improv_Melody,41,9999,9999,9999,2594082904
97,25,14,Improv_Melody,42,9999,9999,9999,2594582636
97,25,14,Improv_Melody,43,9999,9999,9999,2595082316
97,25,14,Improv_Melody,44,9999,9999,9999,2595583028
97,25,14,Improv_Melody,45,9999,9999,9999,2596082760
97,25,14,Improv_Melody,46,9999,9999,9999,2596582500
97,25,14,Improv_Melody,47,9999,9999,9999,2597082204
97,25,14,Improv_Melody,48,9999,9999,9999,2597582956
97,25,14,Improv_Melody,49,9999,9999,9999,2598082664
97,25,14,Improv_Melody,50,9999,9999,9999,2598582368
97,25,14,Improv_Melody,51,9999,9999,9999,2599083116
97,25,14,Improv_Melody,52,9999,9999,9999,2599582808
97,25,14,Improv_Melody,53,9999,9999,9999,2600082488
97,25,14,Improv_Melody,54,9999,9999,9999,2600582240
97,25,14,Improv_Melody,55,9999,9999,9999,2601082964
97,25,14,Improv_Melody,56,9999,9999,9999,2601582700
97,25,14,Improv_Melody,57,9999,9999,9999,2602082356
97,25,14,Improv_Melody,58,9999,9999,9999,2602582124
97,25,14,Improv_Melody,59,9999,9999,9999,2603082824
97,25,14,Improv_Melody,60,9999,9999,9999,2603582532
97,25,14,Improv_Melody,61,9999,9999,9999,2604082244
97,25,14,Improv_Melody,62,9999,9999,9999,2604582968
97,25,14,Improv_Melody,63,9999,9999,9999,2605082744
97,25,14,Improv_Melody,64,9999,9999,9999,2605582424
97,25,14,Improv_Melody,65,9999,9999,9999,2606082096
97,25,14,Improv_Melody,66,9999,9999,9999,2606582844
97,25,14,Improv_Melody,67,9999,9999,9999,2607082560
97,25,14,Improv_Melody,68,9999,9999,9999,2607582312
97,25,14,Improv_Melody,69,9999,9999,9999,2608083028
97,25,14,Improv_Melody,70,9999,9999,9999,2608582736
97,25,14,Improv_Melody,71,9999,9999,9999,2609082416
97,25,14,Improv_Melody,72,9999,9999,9999,2609582184
97,25,14,Improv_Melody,73,9999,9999,9999,2610082868
97,25,14,Improv_Melody,74,9999,9999,9999,2610582584
97,25,14,Improv_Melody,75,9999,9999,9999,2611082356
97,25,14,Improv_Melody,76,9999,9999,9999,2611583080
97,25,14,Improv_Melody,77,9999,9999,9999,2612082768
97,25,14,Improv_Melody,78,9999,9999,9999,2612582480
97,25,14,Improv_Melody,79,9999,9999,9999,2613082188
97,25,14,Improv_Melody,80,9999,9999,9999,2613582944
97,25,14,Improv_Melody,81,9999,9999,9999,2614082664
97,25,14,Improv_Melody,82,9999,9999,9999,2614582368
97,25,14,Improv_Melody,83,9999,9999,9999,2615083088
97,25,14,Improv_Melody,84,9999,9999,9999,2615582776
97,25,14,Improv_Melody,85,9999,9999,9999,2616082496
97,25,14,Improv_Melody,86,9999,9999,9999,2616582192
97,25,14,Improv_Melody,87,9999,9999,9999,2617082988
97,25,14,Improv_Melody,88,9999,9999,9999,2617582660
97,25,14,Improv_Melody,89,9999,9999,9999,2618082424
97,25,14,Improv_Melody,90,9999,9999,9999,2618582068
97,25,14,Improv_Melody,91,9999,9999,9999,2619082820
97,25,14,Improv_Melody,92,9999,9999,9999,2619582520
97,25,14,Improv_Melody,93,9999,9999,9999,2620082292
97,25,14,Improv_Melody,94,9999,9999,9999,2620582964
97,25,14,Improv_Melody,95,9999,9999,9999,2621082740
97,25,14,Improv_Melody,96,9999,9999,9999,2621582440
97,25,14,Improv_Melody,97,9999,9999,9999,2622082132
97,25,14,Improv_Melody,98,9999,9999,9999,2622582852
97,25,14,Improv_Melody,99,9999,9999,9999,2623082576
97,25,14,Improv_Melody,100,9999,9999,9999,2623582256
97,25,14,Improv_Melody,101,9999,9999,9999,2624083064
97,25,14,Improv_Melody,102,9999,9999,9999,2624582732
97,25,14,Improv_Melody,103,9999,9999,9999,2625082484
97,25,14,Improv_Melody,104,9999,9999,9999,2625582168
97,25,14,Improv_Melody,105,9999,9999,9999,2626082912
97,25,14,Improv_Melody,106,9999,9999,9999,2626582584
97,25,14,Improv_Melody,107,9999,9999,9999,2627082336
97,25,14,Improv_Melody,108,9999,9999,9999,2627583040
97,25,14,Improv_Melody,109,9999,9999,9999,2628082756
97,25,14,Improv_Melody,110,9999,9999,9999,2628582508
97,25,14,Improv_Melody,111,9999,9999,9999,2629082188
97,25,14,Improv_Melody,112,9999,9999,9999,2629582920
97,25,14,Improv_Melody,113,9999,9999,9999,2630082612
97,25,14,Improv_Melody,114,9999,9999,9999,2630582364
97,25,14,Improv_Melody,115,9999,9999,9999,2631083092
97,25,14,Improv_Melody,116,9999,9999,9999,2631582836
97,25,14,Improv_Melody,117,9999,9999,9999,2632082516
97,25,14,Improv_Melody,118,9999,9999,9999,2632582196
97,25,14,Improv_Melody,119,9999,9999,9999,2633082996
97,25,14,Improv_Melody,120,9999,9999,9999,2633582648
97,25,14,Improv_Melody,121,9999,9999,9999,2634082416
97,25,14,Improv_Melody,122,9999,9999,9999,2634582088
97,25,14,Improv_Melody,123,9999,9999,9999,2635082816
97,25,14,Improv_Melody,124,9999,9999,9999,2635582568
97,25,14,Improv_Melody,125,9999,9999,9999,2636082248
97,25,14,Improv_Melody,126,9999,9999,9999,2636582972
97,25,14,Improv_Melody,127,9999,9999,9999,2637082716
97,25,14,Improv_Melody,128,9999,9999,9999,2637582400
97,25,14,Improv_Melody,129,9999,9999,9999,2638082144
97,25,14,Improv_Melody,130,9999,9999,9999,2638582864
97,25,14,Improv_Melody,131,9999,9999,9999,2639082616
97,25,14,Improv_Melody,132,9999,9999,9999,2639582296
97,25,14,Improv_Melody,133,9999,9999,9999,2640083024
97,25,14,Improv_Melody,134,9999,9999,9999,2640582776
97,25,14,Improv_Melody,135,9999,9999,9999,2641082452
97,25,14,Improv_Melody,136,9999,9999,9999,2641582132
97,25,14,Improv_Melody,137,9999,9999,9999,2642082872
97,25,14,Improv_Melody,138,9999,9999,9999,2642582652
97,25,14,Improv_Melody,139,9999,9999,9999,2643082300
97,25,14,Improv_Melody,140,9999,9999,9999,2643583024
97,25,14,Improv_Melody,141,9999,9999,9999,2644082776
97,25,14,Improv_Melody,142,9999,9999,9999,2644582504
97,25,14,Improv_Melody,143,9999,9999,9999,2645082180
97,25,14,Improv_Melody,144,9999,9999,9999,2645582904
97,25,14,Improv_Melody,145,9999,9999,9999,2646082672
97,25,14,Improv_Melody,146,9999,9999,9999,2646582344
97,25,14,Improv_Melody,147,9999,9999,9999,2647083072
97,25,14,Improv_Melody,148,9999,9999,9999,2647582820
97,25,14,Improv_Melody,149,9999,9999,9999,2648082500
97,25,14,Improv_Melody,150,9999,9999,9999,2648582256
97,25,14,Improv_Melody,151,9999,9999,9999,2649082980
97,25,14,Improv_Melody,152,9999,9999,9999,2649582660
97,25,14,Improv_Melody,153,9999,9999,9999,2650082360
97,25,14,Improv_Melody,154,9999,9999,9999,2650582120
97,25,14,Improv_Melody,155,9999,9999,9999,2651082844
97,25,14,Improv_Melody,156,9999,9999,9999,2651582516
97,25,14,Improv_Melody,157,9999,9999,9999,2652082272
97,25,14,Improv_Melody,158,9999,9999,9999,2652582996
97,25,14,Improv_Melody,159,9999,9999,9999,2653082672
97,25,14,Improv_Melody,160,9999,9999,9999,2653582432
97,25,14,Improv_Melody,161,9999,9999,9999,2654082116
