pid,taskRunCount,taskID,taskName,i,channel,pitch,velocity,microseconds
91,1,0,Ticks_Pract_8,0,5,42,127,496856424
91,1,0,Ticks_Pract_8,1,5,42,127,497656176
91,1,0,Ticks_Pract_8,2,1,48,30,497745536
91,1,0,Ticks_Pract_8,3,5,42,127,498456136
91,1,0,Ticks_Pract_8,4,5,42,127,499255520
91,1,0,Ticks_Pract_8,5,1,48,25,500026208
91,1,0,Ticks_Pract_8,6,5,42,127,500056340
91,1,0,Ticks_Pract_8,7,1,48,27,500792364
91,1,0,Ticks_Pract_8,8,5,42,127,500856144
91,1,0,Ticks_Pract_8,9,5,42,127,501656032
91,1,0,Ticks_Pract_8,10,1,48,31,502357144
91,1,0,Ticks_Pract_8,11,5,42,127,502456448
91,1,0,Ticks_Pract_8,12,1,48,29,503193028
91,1,0,Ticks_Pract_8,13,5,42,127,503256564
91,1,0,Ticks_Pract_8,14,1,48,32,504002712
91,1,0,Ticks_Pract_8,15,5,42,127,504056148
91,1,0,Ticks_Pract_8,16,1,48,36,504768860
91,1,0,Ticks_Pract_8,17,5,42,127,504855956
91,1,0,Ticks_Pract_8,18,1,48,29,505567172
91,1,0,Ticks_Pract_8,19,5,42,127,505655616
91,1,0,Ticks_Pract_8,20,1,48,19,506395780
91,1,0,Ticks_Pract_8,21,5,42,127,506456500
91,1,0,Ticks_Pract_8,22,1,48,26,507244228
91,1,0,Ticks_Pract_8,23,5,42,127,507256156
91,1,0,Ticks_Pract_8,24,1,48,35,508055820
91,1,0,Ticks_Pract_8,25,5,42,127,508057164
91,1,0,Ticks_Pract_8,26,5,42,127,508855704
91,1,0,Ticks_Pract_8,27,1,48,28,508891288
91,1,0,Ticks_Pract_8,28,1,48,26,509647172
91,1,0,Ticks_Pract_8,29,5,42,127,509656404
91,1,0,Ticks_Pract_8,30,5,42,127,510456144
91,1,0,Ticks_Pract_8,31,1,48,36,510472948
91,1,0,Ticks_Pract_8,32,1,48,29,511220232
91,1,0,Ticks_Pract_8,33,5,42,127,511256016
91,1,0,Ticks_Pract_8,34,1,48,32,512029168
91,1,0,Ticks_Pract_8,35,5,42,127,512055528
91,1,0,Ticks_Pract_8,36,5,42,127,512856420
91,1,0,Ticks_Pract_8,37,1,48,25,512864324
91,1,0,Ticks_Pract_8,38,1,48,29,513640928
91,1,0,Ticks_Pract_8,39,5,42,127,513656216
91,1,0,Ticks_Pract_8,40,1,48,38,514431460
91,1,0,Ticks_Pract_8,41,5,42,127,514456024
91,1,0,Ticks_Pract_8,42,5,42,127,515255616
91,1,0,Ticks_Pract_8,43,1,48,30,515273996
91,1,0,Ticks_Pract_8,44,5,42,127,516056476
91,1,0,Ticks_Pract_8,45,1,48,26,516072380
91,1,0,Ticks_Pract_8,46,1,48,26,516855452
91,1,0,Ticks_Pract_8,47,5,42,127,516857176
91,1,0,Ticks_Pract_8,48,5,42,127,517656016
91,1,0,Ticks_Pract_8,49,1,48,22,517676196
91,1,0,Ticks_Pract_8,50,1,48,15,518451000
91,1,0,Ticks_Pract_8,51,5,42,127,518455744
91,1,0,Ticks_Pract_8,52,1,48,29,519243856
91,1,0,Ticks_Pract_8,53,5,42,127,519256480
91,1,0,Ticks_Pract_8,54,5,42,127,520056068
91,1,0,Ticks_Pract_8,55,1,48,27,520108332
91,1,0,Ticks_Pract_8,56,1,48,26,520851948
91,1,0,Ticks_Pract_8,0,9999,9999,9999,496854132
91,1,0,Ticks_Pract_8,1,9999,9999,9999,497653816
91,1,0,Ticks_Pract_8,2,9999,9999,9999,498453624
91,1,0,Ticks_Pract_8,3,9999,9999,9999,499253304
91,1,0,Ticks_Pract_8,4,9999,9999,9999,500054100
91,1,0,Ticks_Pract_8,5,9999,9999,9999,500853856
91,1,0,Ticks_Pract_8,6,9999,9999,9999,501653596
91,1,0,Ticks_Pract_8,7,9999,9999,9999,502453344
91,1,0,Ticks_Pract_8,8,9999,9999,9999,503254124
91,1,0,Ticks_Pract_8,9,9999,9999,9999,504053860
91,1,0,Ticks_Pract_8,10,9999,9999,9999,504853592
91,1,0,Ticks_Pract_8,11,9999,9999,9999,505653328
91,1,0,Ticks_Pract_8,12,9999,9999,9999,506454108
91,1,0,Ticks_Pract_8,13,9999,9999,9999,507253868
91,1,0,Ticks_Pract_8,14,9999,9999,9999,508053608
91,1,0,Ticks_Pract_8,15,9999,9999,9999,508853340
91,1,0,Ticks_Pract_8,16,9999,9999,9999,509654116
91,1,0,Ticks_Pract_8,17,9999,9999,9999,510453852
91,1,0,Ticks_Pract_8,18,9999,9999,9999,511253580
91,1,0,Ticks_Pract_8,19,9999,9999,9999,512053312
91,1,0,Ticks_Pract_8,20,9999,9999,9999,512854108
91,1,0,Ticks_Pract_8,21,9999,9999,9999,513653856
91,1,0,Ticks_Pract_8,22,9999,9999,9999,514453588
91,1,0,Ticks_Pract_8,23,9999,9999,9999,515253328
91,1,0,Ticks_Pract_8,24,9999,9999,9999,516054108
91,1,0,Ticks_Pract_8,25,9999,9999,9999,516853844
91,1,0,Ticks_Pract_8,26,9999,9999,9999,517653580
91,1,0,Ticks_Pract_8,27,9999,9999,9999,518453308
91,1,0,Ticks_Pract_8,28,9999,9999,9999,519254112
91,1,0,Ticks_Pract_8,29,9999,9999,9999,520053856
91,2,1,Ticks_Pract_5,0,5,42,127,545382736
91,2,1,Ticks_Pract_5,1,5,42,127,545882600
91,2,1,Ticks_Pract_5,2,5,42,127,546383412
91,2,1,Ticks_Pract_5,3,5,42,127,546882980
91,2,1,Ticks_Pract_5,4,1,48,39,546896420
91,2,1,Ticks_Pract_5,5,1,48,41,547361168
91,2,1,Ticks_Pract_5,6,5,42,127,547382744
91,2,1,Ticks_Pract_5,7,5,42,127,547883488
91,2,1,Ticks_Pract_5,8,1,48,30,547884456
91,2,1,Ticks_Pract_5,9,1,48,40,548376484
91,2,1,Ticks_Pract_5,10,5,42,127,548383028
91,2,1,Ticks_Pract_5,11,1,48,35,548829956
91,2,1,Ticks_Pract_5,12,5,42,127,548882872
91,2,1,Ticks_Pract_5,13,1,48,32,549346252
91,2,1,Ticks_Pract_5,14,5,42,127,549382568
91,2,1,Ticks_Pract_5,15,1,48,33,549815208
91,2,1,Ticks_Pract_5,16,5,42,127,549883308
91,2,1,Ticks_Pract_5,17,1,48,29,550330312
91,2,1,Ticks_Pract_5,18,5,42,127,550383152
91,2,1,Ticks_Pract_5,19,1,48,40,550805700
91,2,1,Ticks_Pract_5,20,5,42,127,550882624
91,2,1,Ticks_Pract_5,21,1,48,40,551291036
91,2,1,Ticks_Pract_5,22,5,42,127,551384472
91,2,1,Ticks_Pract_5,23,1,48,30,551840316
91,2,1,Ticks_Pract_5,24,5,42,127,551882984
91,2,1,Ticks_Pract_5,25,1,48,32,552364248
91,2,1,Ticks_Pract_5,26,5,42,127,552382828
91,2,1,Ticks_Pract_5,27,1,48,36,552828560
91,2,1,Ticks_Pract_5,28,5,42,127,552882524
91,2,1,Ticks_Pract_5,29,1,48,37,553341420
91,2,1,Ticks_Pract_5,30,5,42,127,553383264
91,2,1,Ticks_Pract_5,31,1,48,32,553835500
91,2,1,Ticks_Pract_5,32,5,42,127,553883180
91,2,1,Ticks_Pract_5,33,1,48,33,554350456
91,2,1,Ticks_Pract_5,34,5,42,127,554382728
91,2,1,Ticks_Pract_5,35,1,48,31,554875284
91,2,1,Ticks_Pract_5,36,5,42,127,554882496
91,2,1,Ticks_Pract_5,37,1,48,32,555350968
91,2,1,Ticks_Pract_5,38,5,42,127,555383312
91,2,1,Ticks_Pract_5,39,1,48,35,555864200
91,2,1,Ticks_Pract_5,40,5,42,127,555882856
91,2,1,Ticks_Pract_5,41,1,48,31,556348764
91,2,1,Ticks_Pract_5,42,5,42,127,556382552
91,2,1,Ticks_Pract_5,43,1,48,29,556850400
91,2,1,Ticks_Pract_5,44,5,42,127,556883268
91,2,1,Ticks_Pract_5,45,5,42,127,557383116
91,2,1,Ticks_Pract_5,46,1,48,35,557391844
91,2,1,Ticks_Pract_5,47,1,48,25,557883108
91,2,1,Ticks_Pract_5,48,5,42,127,557884372
91,2,1,Ticks_Pract_5,49,1,48,38,558362568
91,2,1,Ticks_Pract_5,50,5,42,127,558382576
91,2,1,Ticks_Pract_5,51,1,48,31,558843044
91,2,1,Ticks_Pract_5,52,5,42,127,558883168
91,2,1,Ticks_Pract_5,53,1,48,33,559366304
91,2,1,Ticks_Pract_5,54,5,42,127,559382936
91,2,1,Ticks_Pract_5,55,1,48,30,559863672
91,2,1,Ticks_Pract_5,56,5,42,127,559882484
91,2,1,Ticks_Pract_5,57,1,48,34,560354168
91,2,1,Ticks_Pract_5,58,5,42,127,560383448
91,2,1,Ticks_Pract_5,59,1,48,35,560853784
91,2,1,Ticks_Pract_5,60,5,42,127,560883144
91,2,1,Ticks_Pract_5,61,1,48,33,561353556
91,2,1,Ticks_Pract_5,62,5,42,127,561382612
91,2,1,Ticks_Pract_5,63,1,48,36,561843752
91,2,1,Ticks_Pract_5,64,5,42,127,561882384
91,2,1,Ticks_Pract_5,65,1,48,28,562358632
91,2,1,Ticks_Pract_5,66,5,42,127,562383348
91,2,1,Ticks_Pract_5,67,1,48,35,562862960
91,2,1,Ticks_Pract_5,68,5,42,127,562882892
91,2,1,Ticks_Pract_5,69,1,48,28,563315012
91,2,1,Ticks_Pract_5,70,5,42,127,563382512
91,2,1,Ticks_Pract_5,71,1,48,27,563850460
91,2,1,Ticks_Pract_5,72,5,42,127,563883252
91,2,1,Ticks_Pract_5,73,1,48,25,564334368
91,2,1,Ticks_Pract_5,74,5,42,127,564383100
91,2,1,Ticks_Pract_5,75,1,48,26,564842440
91,2,1,Ticks_Pract_5,76,5,42,127,564882644
91,2,1,Ticks_Pract_5,77,1,48,32,565360988
91,2,1,Ticks_Pract_5,0,9999,9999,9999,545380448
91,2,1,Ticks_Pract_5,1,9999,9999,9999,545880168
91,2,1,Ticks_Pract_5,2,9999,9999,9999,546380904
91,2,1,Ticks_Pract_5,3,9999,9999,9999,546880620
91,2,1,Ticks_Pract_5,4,9999,9999,9999,547380308
91,2,1,Ticks_Pract_5,5,9999,9999,9999,547881056
91,2,1,Ticks_Pract_5,6,9999,9999,9999,548380744
91,2,1,Ticks_Pract_5,7,9999,9999,9999,548880440
91,2,1,Ticks_Pract_5,8,9999,9999,9999,549380208
91,2,1,Ticks_Pract_5,9,9999,9999,9999,549880948
91,2,1,Ticks_Pract_5,10,9999,9999,9999,550380644
91,2,1,Ticks_Pract_5,11,9999,9999,9999,550880340
91,2,1,Ticks_Pract_5,12,9999,9999,9999,551381080
91,2,1,Ticks_Pract_5,13,9999,9999,9999,551880772
91,2,1,Ticks_Pract_5,14,9999,9999,9999,552380468
91,2,1,Ticks_Pract_5,15,9999,9999,9999,552880236
91,2,1,Ticks_Pract_5,16,9999,9999,9999,553380976
91,2,1,Ticks_Pract_5,17,9999,9999,9999,553880672
91,2,1,Ticks_Pract_5,18,9999,9999,9999,554380368
91,2,1,Ticks_Pract_5,19,9999,9999,9999,554880064
91,2,1,Ticks_Pract_5,20,9999,9999,9999,555380804
91,2,1,Ticks_Pract_5,21,9999,9999,9999,555880496
91,2,1,Ticks_Pract_5,22,9999,9999,9999,556380268
91,2,1,Ticks_Pract_5,23,9999,9999,9999,556880984
91,2,1,Ticks_Pract_5,24,9999,9999,9999,557380684
91,2,1,Ticks_Pract_5,25,9999,9999,9999,557880376
91,2,1,Ticks_Pract_5,26,9999,9999,9999,558380140
91,2,1,Ticks_Pract_5,27,9999,9999,9999,558880884
91,2,1,Ticks_Pract_5,28,9999,9999,9999,559380576
91,2,1,Ticks_Pract_5,29,9999,9999,9999,559880272
91,2,1,Ticks_Pract_5,30,9999,9999,9999,560381012
91,2,1,Ticks_Pract_5,31,9999,9999,9999,560880708
91,2,1,Ticks_Pract_5,32,9999,9999,9999,561380400
91,2,1,Ticks_Pract_5,33,9999,9999,9999,561880172
91,2,1,Ticks_Pract_5,34,9999,9999,9999,562380912
91,2,1,Ticks_Pract_5,35,9999,9999,9999,562880608
91,2,1,Ticks_Pract_5,36,9999,9999,9999,563380300
91,2,1,Ticks_Pract_5,37,9999,9999,9999,563881040
91,2,1,Ticks_Pract_5,38,9999,9999,9999,564380736
91,2,1,Ticks_Pract_5,39,9999,9999,9999,564880436
91,3,2,T1_SMS_8,0,5,42,127,644635160
91,3,2,T1_SMS_8,1,1,48,29,645143216
91,3,2,T1_SMS_8,2,5,42,127,645434892
91,3,2,T1_SMS_8,3,1,48,29,646128700
91,3,2,T1_SMS_8,4,5,42,127,646234428
91,3,2,T1_SMS_8,5,1,48,27,646909136
91,3,2,T1_SMS_8,6,5,42,127,647035208
91,3,2,T1_SMS_8,7,1,48,32,647725396
91,3,2,T1_SMS_8,8,5,42,127,647834868
91,3,2,T1_SMS_8,9,1,48,30,648557540
91,3,2,T1_SMS_8,10,5,42,127,648634692
91,3,2,T1_SMS_8,11,1,48,28,649368120
91,3,2,T1_SMS_8,12,5,42,127,649434348
91,3,2,T1_SMS_8,13,1,48,35,650169876
91,3,2,T1_SMS_8,14,5,42,127,650235204
91,3,2,T1_SMS_8,15,1,48,32,650946724
91,3,2,T1_SMS_8,16,5,42,127,651034940
91,3,2,T1_SMS_8,17,1,48,31,651722144
91,3,2,T1_SMS_8,18,5,42,127,651834656
91,3,2,T1_SMS_8,19,1,48,32,652513272
91,3,2,T1_SMS_8,20,5,42,127,652634492
91,3,2,T1_SMS_8,21,1,48,29,653388032
91,3,2,T1_SMS_8,22,5,42,127,653435212
91,3,2,T1_SMS_8,23,1,48,25,654220248
91,3,2,T1_SMS_8,24,5,42,127,654234868
91,3,2,T1_SMS_8,25,1,48,24,655000384
91,3,2,T1_SMS_8,26,5,42,127,655034900
91,3,2,T1_SMS_8,27,1,48,24,655801616
91,3,2,T1_SMS_8,28,5,42,127,655834484
91,3,2,T1_SMS_8,29,1,48,36,656635420
91,3,2,T1_SMS_8,30,5,42,127,656636908
91,3,2,T1_SMS_8,31,5,42,127,657434932
91,3,2,T1_SMS_8,32,1,48,29,657455552
91,3,2,T1_SMS_8,33,5,42,127,658234664
91,3,2,T1_SMS_8,34,1,48,40,658240928
91,3,2,T1_SMS_8,35,1,48,31,659034200
91,3,2,T1_SMS_8,36,5,42,127,659035540
91,3,2,T1_SMS_8,37,5,42,127,659835132
91,3,2,T1_SMS_8,38,1,48,40,659836096
91,3,2,T1_SMS_8,39,5,42,127,660635088
91,3,2,T1_SMS_8,40,1,48,35,660695204
91,3,2,T1_SMS_8,41,1,48,35,661421544
91,3,2,T1_SMS_8,42,5,42,127,661434664
91,3,2,T1_SMS_8,43,1,48,37,662204596
91,3,2,T1_SMS_8,44,5,42,127,662234548
91,3,2,T1_SMS_8,45,1,48,32,663032528
91,3,2,T1_SMS_8,46,5,42,127,663035180
91,3,2,T1_SMS_8,47,1,48,33,663807504
91,3,2,T1_SMS_8,48,5,42,127,663834984
91,3,2,T1_SMS_8,49,5,42,127,664634728
91,3,2,T1_SMS_8,50,1,48,32,664642480
91,3,2,T1_SMS_8,51,5,42,127,665434412
91,3,2,T1_SMS_8,52,1,48,35,665437156
91,3,2,T1_SMS_8,53,1,48,36,666208896
91,3,2,T1_SMS_8,54,5,42,127,666235184
91,3,2,T1_SMS_8,55,1,48,28,666991952
91,3,2,T1_SMS_8,56,5,42,127,667035064
91,3,2,T1_SMS_8,57,1,48,24,667824068
91,3,2,T1_SMS_8,58,5,42,127,667834948
91,3,2,T1_SMS_8,59,1,48,26,668602716
91,3,2,T1_SMS_8,60,5,42,127,668634608
91,3,2,T1_SMS_8,61,5,42,127,669435100
91,3,2,T1_SMS_8,62,1,48,24,669436436
91,3,2,T1_SMS_8,63,5,42,127,670234980
91,3,2,T1_SMS_8,64,1,48,21,670273180
91,3,2,T1_SMS_8,65,5,42,127,671034864
91,3,2,T1_SMS_8,66,1,48,35,671038132
91,3,2,T1_SMS_8,67,1,48,35,671826424
91,3,2,T1_SMS_8,68,5,42,127,671834464
91,3,2,T1_SMS_8,69,1,48,35,672624588
91,3,2,T1_SMS_8,70,5,42,127,672635172
91,3,2,T1_SMS_8,71,5,42,127,673434912
91,3,2,T1_SMS_8,72,1,48,41,673457104
91,3,2,T1_SMS_8,73,5,42,127,674234716
91,3,2,T1_SMS_8,74,1,48,37,674279052
91,3,2,T1_SMS_8,75,5,42,127,675034748
91,3,2,T1_SMS_8,76,1,48,37,675043408
91,3,2,T1_SMS_8,77,5,42,127,675835156
91,3,2,T1_SMS_8,78,1,48,35,675844556
91,3,2,T1_SMS_8,79,5,42,127,676634964
91,3,2,T1_SMS_8,80,1,48,36,676657980
91,3,2,T1_SMS_8,81,5,42,127,677434696
91,3,2,T1_SMS_8,82,1,48,30,677477332
91,3,2,T1_SMS_8,83,5,42,127,678234752
91,3,2,T1_SMS_8,84,1,48,25,678274228
91,3,2,T1_SMS_8,85,1,48,30,679027796
91,3,2,T1_SMS_8,86,5,42,127,679035228
91,3,2,T1_SMS_8,87,1,48,29,679795060
91,3,2,T1_SMS_8,88,5,42,127,679834960
91,3,2,T1_SMS_8,89,1,48,35,680629656
91,3,2,T1_SMS_8,90,5,42,127,680634696
91,3,2,T1_SMS_8,91,1,48,36,681422884
91,3,2,T1_SMS_8,92,5,42,127,681434728
91,3,2,T1_SMS_8,93,5,42,127,682235292
91,3,2,T1_SMS_8,94,1,48,39,682239384
91,3,2,T1_SMS_8,95,5,42,127,683034876
91,3,2,T1_SMS_8,96,1,48,25,683037776
91,3,2,T1_SMS_8,97,5,42,127,683834832
91,3,2,T1_SMS_8,98,1,48,37,683848572
91,3,2,T1_SMS_8,99,1,48,33,684623480
91,3,2,T1_SMS_8,100,5,42,127,684634736
91,3,2,T1_SMS_8,101,5,42,127,685435372
91,3,2,T1_SMS_8,102,1,48,40,685453380
91,3,2,T1_SMS_8,103,5,42,127,686234880
91,3,2,T1_SMS_8,104,1,48,33,686259620
91,3,2,T1_SMS_8,105,1,48,35,687034012
91,3,2,T1_SMS_8,106,5,42,127,687035656
91,3,2,T1_SMS_8,107,1,48,36,687814488
91,3,2,T1_SMS_8,108,5,42,127,687834420
91,3,2,T1_SMS_8,109,1,48,40,688614368
91,3,2,T1_SMS_8,110,5,42,127,688635348
91,3,2,T1_SMS_8,111,5,42,127,689434940
91,3,2,T1_SMS_8,112,1,48,36,689453616
91,3,2,T1_SMS_8,113,1,48,39,690234296
91,3,2,T1_SMS_8,114,5,42,127,690235712
91,3,2,T1_SMS_8,115,5,42,127,691034504
91,3,2,T1_SMS_8,116,1,48,39,691037028
91,3,2,T1_SMS_8,117,1,48,38,691812732
91,3,2,T1_SMS_8,118,5,42,127,691835500
91,3,2,T1_SMS_8,119,5,42,127,692635092
91,3,2,T1_SMS_8,120,1,48,27,692657736
91,3,2,T1_SMS_8,121,5,42,127,693434604
91,3,2,T1_SMS_8,122,1,48,32,693469440
91,3,2,T1_SMS_8,123,5,42,127,694234488
91,3,2,T1_SMS_8,124,1,48,36,694282784
91,3,2,T1_SMS_8,125,1,48,29,694995436
91,3,2,T1_SMS_8,126,5,42,127,695035484
91,3,2,T1_SMS_8,127,1,48,32,695786944
91,3,2,T1_SMS_8,128,5,42,127,695835068
91,3,2,T1_SMS_8,129,1,48,41,696583156
91,3,2,T1_SMS_8,130,5,42,127,696634876
91,3,2,T1_SMS_8,131,1,48,33,697385956
91,3,2,T1_SMS_8,132,5,42,127,697434412
91,3,2,T1_SMS_8,133,1,48,31,698173876
91,3,2,T1_SMS_8,134,5,42,127,698235416
91,3,2,T1_SMS_8,135,1,48,37,698994576
91,3,2,T1_SMS_8,136,5,42,127,699035076
91,3,2,T1_SMS_8,137,1,48,34,699798496
91,3,2,T1_SMS_8,138,5,42,127,699834732
91,3,2,T1_SMS_8,139,5,42,127,700634328
91,3,2,T1_SMS_8,140,1,48,36,700647476
91,3,2,T1_SMS_8,141,1,48,39,701433596
91,3,2,T1_SMS_8,142,5,42,127,701435400
91,3,2,T1_SMS_8,143,5,42,127,702234916
91,3,2,T1_SMS_8,144,1,48,34,702261144
91,3,2,T1_SMS_8,145,5,42,127,703034724
91,3,2,T1_SMS_8,146,1,48,35,703055668
91,3,2,T1_SMS_8,147,5,42,127,703834408
91,3,2,T1_SMS_8,148,1,48,33,703872236
91,3,2,T1_SMS_8,149,5,42,127,704635340
91,3,2,T1_SMS_8,150,1,48,26,704655888
91,3,2,T1_SMS_8,151,1,48,27,705430996
91,3,2,T1_SMS_8,152,5,42,127,705434992
91,3,2,T1_SMS_8,153,5,42,127,706234732
91,3,2,T1_SMS_8,154,1,48,42,706238376
91,3,2,T1_SMS_8,155,5,42,127,707034392
91,3,2,T1_SMS_8,156,1,48,38,707055016
91,3,2,T1_SMS_8,157,5,42,127,707835172
91,3,2,T1_SMS_8,158,1,48,29,707838368
91,3,2,T1_SMS_8,159,5,42,127,708635132
91,3,2,T1_SMS_8,160,1,48,37,708638328
91,3,2,T1_SMS_8,161,1,48,35,709429516
91,3,2,T1_SMS_8,162,5,42,127,709434784
91,3,2,T1_SMS_8,163,1,48,33,710206428
91,3,2,T1_SMS_8,164,5,42,127,710234464
91,3,2,T1_SMS_8,165,1,48,39,711021152
91,3,2,T1_SMS_8,166,5,42,127,711035172
91,3,2,T1_SMS_8,167,1,48,26,711420592
91,3,2,T1_SMS_8,168,5,42,127,711835036
91,3,2,T1_SMS_8,169,5,42,127,712634720
91,3,2,T1_SMS_8,170,1,48,33,712685856
91,3,2,T1_SMS_8,171,5,42,127,713434428
91,3,2,T1_SMS_8,172,1,48,33,713482428
91,3,2,T1_SMS_8,173,5,42,127,714235132
91,3,2,T1_SMS_8,174,1,48,28,714294868
91,3,2,T1_SMS_8,175,5,42,127,715035088
91,3,2,T1_SMS_8,176,1,48,31,715046136
91,3,2,T1_SMS_8,177,1,48,27,715829768
91,3,2,T1_SMS_8,178,5,42,127,715834588
91,3,2,T1_SMS_8,179,1,48,27,716619856
91,3,2,T1_SMS_8,180,5,42,127,716634420
91,3,2,T1_SMS_8,181,5,42,127,717435132
91,3,2,T1_SMS_8,182,1,48,32,717450520
91,3,2,T1_SMS_8,183,5,42,127,718235088
91,3,2,T1_SMS_8,184,1,48,29,718272168
91,3,2,T1_SMS_8,185,1,48,31,719024164
91,3,2,T1_SMS_8,186,5,42,127,719034592
91,3,2,T1_SMS_8,187,5,42,127,719834332
91,3,2,T1_SMS_8,188,1,48,29,719850620
91,3,2,T1_SMS_8,189,5,42,127,720635188
91,3,2,T1_SMS_8,190,1,48,29,720679596
91,3,2,T1_SMS_8,191,5,42,127,721434996
91,3,2,T1_SMS_8,192,1,48,23,721438564
91,3,2,T1_SMS_8,193,1,48,29,722219728
91,3,2,T1_SMS_8,194,5,42,127,722234868
91,3,2,T1_SMS_8,195,1,48,36,723003376
91,3,2,T1_SMS_8,196,5,42,127,723034404
91,3,2,T1_SMS_8,197,1,48,25,723834512
91,3,2,T1_SMS_8,198,5,42,127,723836156
91,3,2,T1_SMS_8,199,1,48,30,724586192
91,3,2,T1_SMS_8,200,5,42,127,724635144
91,3,2,T1_SMS_8,201,1,48,25,725424072
91,3,2,T1_SMS_8,202,5,42,127,725434804
91,3,2,T1_SMS_8,203,1,48,28,726230836
91,3,2,T1_SMS_8,204,5,42,127,726234536
91,3,2,T1_SMS_8,205,5,42,127,727035248
91,3,2,T1_SMS_8,206,1,48,28,727039416
91,3,2,T1_SMS_8,207,1,48,27,727810856
91,3,2,T1_SMS_8,208,5,42,127,727835048
91,3,2,T1_SMS_8,209,1,48,29,728628544
91,3,2,T1_SMS_8,210,5,42,127,728634856
91,3,2,T1_SMS_8,211,1,48,27,729407184
91,3,2,T1_SMS_8,212,5,42,127,729434468
91,3,2,T1_SMS_8,213,5,42,127,730235180
91,3,2,T1_SMS_8,214,1,48,32,730254752
91,3,2,T1_SMS_8,215,5,42,127,731034988
91,3,2,T1_SMS_8,216,1,48,36,731045212
91,3,2,T1_SMS_8,217,5,42,127,731835016
91,3,2,T1_SMS_8,218,1,48,26,731894088
91,3,2,T1_SMS_8,219,5,42,127,732634604
91,3,2,T1_SMS_8,220,1,48,38,732660608
91,3,2,T1_SMS_8,221,5,42,127,733435232
91,3,2,T1_SMS_8,222,1,48,35,733443588
91,3,2,T1_SMS_8,223,1,48,35,734228120
91,3,2,T1_SMS_8,224,5,42,127,734235108
91,3,2,T1_SMS_8,225,5,42,127,735035000
91,3,2,T1_SMS_8,226,1,48,30,735074424
91,3,2,T1_SMS_8,227,1,48,41,735834460
91,3,2,T1_SMS_8,228,5,42,127,735835796
91,3,2,T1_SMS_8,229,5,42,127,736635240
91,3,2,T1_SMS_8,230,1,48,36,736675232
91,3,2,T1_SMS_8,231,1,48,30,737414664
91,3,2,T1_SMS_8,232,5,42,127,737435116
91,3,2,T1_SMS_8,233,1,48,33,738228608
91,3,2,T1_SMS_8,234,5,42,127,738234996
91,3,2,T1_SMS_8,235,1,48,26,739017420
91,3,2,T1_SMS_8,236,5,42,127,739034508
91,3,2,T1_SMS_8,237,5,42,127,739835144
91,3,2,T1_SMS_8,238,1,48,27,739841408
91,3,2,T1_SMS_8,0,9999,9999,9999,644632648
91,3,2,T1_SMS_8,1,9999,9999,9999,645432384
91,3,2,T1_SMS_8,2,9999,9999,9999,646232140
91,3,2,T1_SMS_8,3,9999,9999,9999,647032920
91,3,2,T1_SMS_8,4,9999,9999,9999,647832652
91,3,2,T1_SMS_8,5,9999,9999,9999,648632404
91,3,2,T1_SMS_8,6,9999,9999,9999,649432136
91,3,2,T1_SMS_8,7,9999,9999,9999,650232916
91,3,2,T1_SMS_8,8,9999,9999,9999,651032652
91,3,2,T1_SMS_8,9,9999,9999,9999,651832368
91,3,2,T1_SMS_8,10,9999,9999,9999,652632128
91,3,2,T1_SMS_8,11,9999,9999,9999,653432924
91,3,2,T1_SMS_8,12,9999,9999,9999,654232656
91,3,2,T1_SMS_8,13,9999,9999,9999,655032388
91,3,2,T1_SMS_8,14,9999,9999,9999,655832124
91,3,2,T1_SMS_8,15,9999,9999,9999,656632912
91,3,2,T1_SMS_8,16,9999,9999,9999,657432644
91,3,2,T1_SMS_8,17,9999,9999,9999,658232376
91,3,2,T1_SMS_8,18,9999,9999,9999,659032136
91,3,2,T1_SMS_8,19,9999,9999,9999,659832916
91,3,2,T1_SMS_8,20,9999,9999,9999,660632648
91,3,2,T1_SMS_8,21,9999,9999,9999,661432376
91,3,2,T1_SMS_8,22,9999,9999,9999,662232112
91,3,2,T1_SMS_8,23,9999,9999,9999,663032892
91,3,2,T1_SMS_8,24,9999,9999,9999,663832624
91,3,2,T1_SMS_8,25,9999,9999,9999,664632440
91,3,2,T1_SMS_8,26,9999,9999,9999,665432124
91,3,2,T1_SMS_8,27,9999,9999,9999,666232896
91,3,2,T1_SMS_8,28,9999,9999,9999,667032628
91,3,2,T1_SMS_8,29,9999,9999,9999,667832436
91,3,2,T1_SMS_8,30,9999,9999,9999,668632172
91,3,2,T1_SMS_8,31,9999,9999,9999,669432884
91,3,2,T1_SMS_8,32,9999,9999,9999,670232692
91,3,2,T1_SMS_8,33,9999,9999,9999,671032424
91,3,2,T1_SMS_8,34,9999,9999,9999,671832176
91,3,2,T1_SMS_8,35,9999,9999,9999,672632884
91,3,2,T1_SMS_8,36,9999,9999,9999,673432624
91,3,2,T1_SMS_8,37,9999,9999,9999,674232428
91,3,2,T1_SMS_8,38,9999,9999,9999,675032164
91,3,2,T1_SMS_8,39,9999,9999,9999,675832940
91,3,2,T1_SMS_8,40,9999,9999,9999,676632676
91,3,2,T1_SMS_8,41,9999,9999,9999,677432408
91,3,2,T1_SMS_8,42,9999,9999,9999,678232168
91,3,2,T1_SMS_8,43,9999,9999,9999,679032940
91,3,2,T1_SMS_8,44,9999,9999,9999,679832672
91,3,2,T1_SMS_8,45,9999,9999,9999,680632408
91,3,2,T1_SMS_8,46,9999,9999,9999,681432144
91,3,2,T1_SMS_8,47,9999,9999,9999,682232928
91,3,2,T1_SMS_8,48,9999,9999,9999,683032664
91,3,2,T1_SMS_8,49,9999,9999,9999,683832396
91,3,2,T1_SMS_8,50,9999,9999,9999,684632148
91,3,2,T1_SMS_8,51,9999,9999,9999,685432936
91,3,2,T1_SMS_8,52,9999,9999,9999,686232668
91,3,2,T1_SMS_8,53,9999,9999,9999,687032400
91,3,2,T1_SMS_8,54,9999,9999,9999,687832132
91,3,2,T1_SMS_8,55,9999,9999,9999,688632912
91,3,2,T1_SMS_8,56,9999,9999,9999,689432652
91,3,2,T1_SMS_8,57,9999,9999,9999,690232384
91,3,2,T1_SMS_8,58,9999,9999,9999,691032144
91,3,2,T1_SMS_8,59,9999,9999,9999,691832916
91,3,2,T1_SMS_8,60,9999,9999,9999,692632656
91,3,2,T1_SMS_8,61,9999,9999,9999,693432388
91,3,2,T1_SMS_8,62,9999,9999,9999,694232124
91,3,2,T1_SMS_8,63,9999,9999,9999,695032900
91,3,2,T1_SMS_8,64,9999,9999,9999,695832632
91,3,2,T1_SMS_8,65,9999,9999,9999,696632368
91,3,2,T1_SMS_8,66,9999,9999,9999,697432124
91,3,2,T1_SMS_8,67,9999,9999,9999,698232904
91,3,2,T1_SMS_8,68,9999,9999,9999,699032640
91,3,2,T1_SMS_8,69,9999,9999,9999,699832372
91,3,2,T1_SMS_8,70,9999,9999,9999,700632112
91,3,2,T1_SMS_8,71,9999,9999,9999,701432900
91,3,2,T1_SMS_8,72,9999,9999,9999,702232628
91,3,2,T1_SMS_8,73,9999,9999,9999,703032436
91,3,2,T1_SMS_8,74,9999,9999,9999,703832120
91,3,2,T1_SMS_8,75,9999,9999,9999,704632900
91,3,2,T1_SMS_8,76,9999,9999,9999,705432632
91,3,2,T1_SMS_8,77,9999,9999,9999,706232372
91,3,2,T1_SMS_8,78,9999,9999,9999,707032180
91,3,2,T1_SMS_8,79,9999,9999,9999,707832884
91,3,2,T1_SMS_8,80,9999,9999,9999,708632692
91,3,2,T1_SMS_8,81,9999,9999,9999,709432420
91,3,2,T1_SMS_8,82,9999,9999,9999,710232176
91,3,2,T1_SMS_8,83,9999,9999,9999,711032884
91,3,2,T1_SMS_8,84,9999,9999,9999,711832676
91,3,2,T1_SMS_8,85,9999,9999,9999,712632432
91,3,2,T1_SMS_8,86,9999,9999,9999,713432140
91,3,2,T1_SMS_8,87,9999,9999,9999,714232916
91,3,2,T1_SMS_8,88,9999,9999,9999,715032648
91,3,2,T1_SMS_8,89,9999,9999,9999,715832376
91,3,2,T1_SMS_8,90,9999,9999,9999,716632132
91,3,2,T1_SMS_8,91,9999,9999,9999,717432920
91,3,2,T1_SMS_8,92,9999,9999,9999,718232652
91,3,2,T1_SMS_8,93,9999,9999,9999,719032380
91,3,2,T1_SMS_8,94,9999,9999,9999,719832120
91,3,2,T1_SMS_8,95,9999,9999,9999,720632900
91,3,2,T1_SMS_8,96,9999,9999,9999,721432632
91,3,2,T1_SMS_8,97,9999,9999,9999,722232432
91,3,2,T1_SMS_8,98,9999,9999,9999,723032116
91,3,2,T1_SMS_8,99,9999,9999,9999,723832904
91,3,2,T1_SMS_8,100,9999,9999,9999,724632632
91,3,2,T1_SMS_8,101,9999,9999,9999,725432364
91,3,2,T1_SMS_8,102,9999,9999,9999,726232172
91,3,2,T1_SMS_8,103,9999,9999,9999,727032884
91,3,2,T1_SMS_8,104,9999,9999,9999,727832688
91,3,2,T1_SMS_8,105,9999,9999,9999,728632420
91,3,2,T1_SMS_8,106,9999,9999,9999,729432180
91,3,2,T1_SMS_8,107,9999,9999,9999,730232892
91,3,2,T1_SMS_8,108,9999,9999,9999,731032624
91,3,2,T1_SMS_8,109,9999,9999,9999,731832432
91,3,2,T1_SMS_8,110,9999,9999,9999,732632164
91,3,2,T1_SMS_8,111,9999,9999,9999,733432944
91,3,2,T1_SMS_8,112,9999,9999,9999,734232672
91,3,2,T1_SMS_8,113,9999,9999,9999,735032412
91,3,2,T1_SMS_8,114,9999,9999,9999,735832172
91,3,2,T1_SMS_8,115,9999,9999,9999,736632952
91,3,2,T1_SMS_8,116,9999,9999,9999,737432680
91,3,2,T1_SMS_8,117,9999,9999,9999,738232412
91,3,2,T1_SMS_8,118,9999,9999,9999,739032144
91,3,2,T1_SMS_8,119,9999,9999,9999,739832932
91,4,4,T1_SMS_5,0,5,42,127,802821464
91,4,4,T1_SMS_5,1,5,42,127,803322228
91,4,4,T1_SMS_5,2,1,48,31,803478560
91,4,4,T1_SMS_5,3,5,42,127,803822068
91,4,4,T1_SMS_5,4,1,48,36,803839924
91,4,4,T1_SMS_5,5,1,48,35,804295544
91,4,4,T1_SMS_5,6,5,42,127,804321760
91,4,4,T1_SMS_5,7,1,48,33,804783276
91,4,4,T1_SMS_5,8,5,42,127,804822352
91,4,4,T1_SMS_5,9,1,48,32,805278328
91,4,4,T1_SMS_5,10,5,42,127,805322044
91,4,4,T1_SMS_5,11,1,48,21,805802928
91,4,4,T1_SMS_5,12,5,42,127,805821888
91,4,4,T1_SMS_5,13,1,48,34,806308088
91,4,4,T1_SMS_5,14,5,42,127,806321660
91,4,4,T1_SMS_5,15,1,48,31,806798660
91,4,4,T1_SMS_5,16,5,42,127,806822252
91,4,4,T1_SMS_5,17,1,48,34,807292664
91,4,4,T1_SMS_5,18,5,42,127,807321948
91,4,4,T1_SMS_5,19,1,48,33,807794156
91,4,4,T1_SMS_5,20,5,42,127,807821716
91,4,4,T1_SMS_5,21,1,48,33,808305144
91,4,4,T1_SMS_5,22,5,42,127,808322384
91,4,4,T1_SMS_5,23,1,48,25,808820720
91,4,4,T1_SMS_5,24,5,42,127,808822228
91,4,4,T1_SMS_5,25,1,48,27,809320804
91,4,4,T1_SMS_5,26,5,42,127,809322220
91,4,4,T1_SMS_5,27,5,42,127,809821476
91,4,4,T1_SMS_5,28,1,48,26,809844864
91,4,4,T1_SMS_5,29,1,48,29,810283928
91,4,4,T1_SMS_5,30,5,42,127,810322360
91,4,4,T1_SMS_5,31,1,48,26,810797760
91,4,4,T1_SMS_5,32,5,42,127,810821952
91,4,4,T1_SMS_5,33,1,48,34,811281500
91,4,4,T1_SMS_5,34,5,42,127,811321624
91,4,4,T1_SMS_5,35,1,48,31,811777824
91,4,4,T1_SMS_5,36,5,42,127,811821392
91,4,4,T1_SMS_5,37,1,48,34,812261516
91,4,4,T1_SMS_5,38,5,42,127,812322060
91,4,4,T1_SMS_5,39,1,48,32,812756868
91,4,4,T1_SMS_5,40,5,42,127,812821980
91,4,4,T1_SMS_5,41,1,48,34,813253276
91,4,4,T1_SMS_5,42,5,42,127,813321600
91,4,4,T1_SMS_5,43,1,48,35,813778256
91,4,4,T1_SMS_5,44,5,42,127,813822192
91,4,4,T1_SMS_5,45,1,48,32,814289096
91,4,4,T1_SMS_5,46,5,42,127,814321964
91,4,4,T1_SMS_5,47,1,48,34,814785196
91,4,4,T1_SMS_5,48,5,42,127,814821660
91,4,4,T1_SMS_5,49,1,48,34,815285044
91,4,4,T1_SMS_5,50,5,42,127,815321580
91,4,4,T1_SMS_5,51,1,48,31,815792220
91,4,4,T1_SMS_5,52,5,42,127,815822172
91,4,4,T1_SMS_5,53,1,48,35,816270820
91,4,4,T1_SMS_5,54,5,42,127,816322016
91,4,4,T1_SMS_5,55,1,48,32,816788096
91,4,4,T1_SMS_5,56,5,42,127,816821564
91,4,4,T1_SMS_5,57,1,48,38,817275740
91,4,4,T1_SMS_5,58,5,42,127,817322304
91,4,4,T1_SMS_5,59,1,48,33,817791448
91,4,4,T1_SMS_5,60,5,42,127,817821924
91,4,4,T1_SMS_5,61,1,48,40,818288524
91,4,4,T1_SMS_5,62,5,42,127,818321768
91,4,4,T1_SMS_5,63,1,48,36,818807592
91,4,4,T1_SMS_5,64,5,42,127,818821684
91,4,4,T1_SMS_5,65,1,48,33,819309232
91,4,4,T1_SMS_5,66,5,42,127,819322204
91,4,4,T1_SMS_5,67,1,48,32,819817976
91,4,4,T1_SMS_5,68,5,42,127,819821900
91,4,4,T1_SMS_5,69,5,42,127,820321600
91,4,4,T1_SMS_5,70,1,48,34,820324268
91,4,4,T1_SMS_5,71,1,48,35,820814820
91,4,4,T1_SMS_5,72,5,42,127,820822336
91,4,4,T1_SMS_5,73,1,48,35,821290484
91,4,4,T1_SMS_5,74,5,42,127,821322032
91,4,4,T1_SMS_5,75,5,42,127,821821784
91,4,4,T1_SMS_5,76,1,48,29,821828940
91,4,4,T1_SMS_5,77,5,42,127,822321624
91,4,4,T1_SMS_5,78,1,48,33,822366056
91,4,4,T1_SMS_5,79,1,48,30,822818436
91,4,4,T1_SMS_5,80,5,42,127,822822212
91,4,4,T1_SMS_5,81,1,48,27,823319632
91,4,4,T1_SMS_5,82,5,42,127,823322056
91,4,4,T1_SMS_5,83,1,48,38,823813712
91,4,4,T1_SMS_5,84,5,42,127,823821748
91,4,4,T1_SMS_5,85,1,48,38,824319540
91,4,4,T1_SMS_5,86,5,42,127,824322492
91,4,4,T1_SMS_5,87,5,42,127,824822044
91,4,4,T1_SMS_5,88,1,48,36,824842064
91,4,4,T1_SMS_5,89,1,48,32,825313396
91,4,4,T1_SMS_5,90,5,42,127,825321880
91,4,4,T1_SMS_5,91,1,48,33,825794092
91,4,4,T1_SMS_5,92,5,42,127,825821724
91,4,4,T1_SMS_5,93,1,48,34,826307328
91,4,4,T1_SMS_5,94,5,42,127,826322320
91,4,4,T1_SMS_5,95,1,48,38,826811584
91,4,4,T1_SMS_5,96,5,42,127,826821864
91,4,4,T1_SMS_5,97,5,42,127,827321792
91,4,4,T1_SMS_5,98,1,48,29,827324760
91,4,4,T1_SMS_5,99,1,48,33,827805064
91,4,4,T1_SMS_5,100,5,42,127,827821628
91,4,4,T1_SMS_5,101,1,48,35,828279256
91,4,4,T1_SMS_5,102,5,42,127,828322148
91,4,4,T1_SMS_5,103,5,42,127,828821924
91,4,4,T1_SMS_5,104,1,48,33,828829832
91,4,4,T1_SMS_5,105,1,48,35,829316568
91,4,4,T1_SMS_5,106,5,42,127,829321688
91,4,4,T1_SMS_5,107,1,48,33,829808112
91,4,4,T1_SMS_5,108,5,42,127,829822280
91,4,4,T1_SMS_5,109,1,48,39,830296056
91,4,4,T1_SMS_5,110,5,42,127,830321900
91,4,4,T1_SMS_5,111,1,48,35,830808472
91,4,4,T1_SMS_5,112,5,42,127,830821892
91,4,4,T1_SMS_5,113,1,48,40,831302008
91,4,4,T1_SMS_5,114,5,42,127,831321664
91,4,4,T1_SMS_5,115,1,48,37,831793252
91,4,4,T1_SMS_5,116,5,42,127,831822328
91,4,4,T1_SMS_5,117,1,48,37,832288836
91,4,4,T1_SMS_5,118,5,42,127,832322000
91,4,4,T1_SMS_5,119,1,48,38,832774612
91,4,4,T1_SMS_5,120,5,42,127,832821620
91,4,4,T1_SMS_5,121,1,48,38,833296296
91,4,4,T1_SMS_5,122,5,42,127,833322436
91,4,4,T1_SMS_5,123,1,48,34,833819408
91,4,4,T1_SMS_5,124,5,42,127,833822060
91,4,4,T1_SMS_5,125,1,48,34,834295612
91,4,4,T1_SMS_5,126,5,42,127,834321756
91,4,4,T1_SMS_5,127,1,48,31,834789028
91,4,4,T1_SMS_5,128,5,42,127,834821672
91,4,4,T1_SMS_5,129,1,48,35,835305776
91,4,4,T1_SMS_5,130,5,42,127,835322340
91,4,4,T1_SMS_5,131,1,48,35,835803824
91,4,4,T1_SMS_5,132,5,42,127,835821960
91,4,4,T1_SMS_5,133,5,42,127,836321588
91,4,4,T1_SMS_5,134,1,48,33,836340940
91,4,4,T1_SMS_5,135,1,48,35,836806960
91,4,4,T1_SMS_5,136,5,42,127,836822472
91,4,4,T1_SMS_5,137,1,48,21,837297304
91,4,4,T1_SMS_5,138,5,42,127,837322016
91,4,4,T1_SMS_5,139,1,48,32,837792580
91,4,4,T1_SMS_5,140,5,42,127,837821788
91,4,4,T1_SMS_5,141,1,48,33,838320208
91,4,4,T1_SMS_5,142,5,42,127,838321704
91,4,4,T1_SMS_5,143,1,48,35,838779932
91,4,4,T1_SMS_5,144,5,42,127,838822372
91,4,4,T1_SMS_5,145,1,48,36,839303412
91,4,4,T1_SMS_5,146,5,42,127,839321844
91,4,4,T1_SMS_5,147,1,48,35,839819500
91,4,4,T1_SMS_5,148,5,42,127,839821764
91,4,4,T1_SMS_5,149,1,48,39,840302424
91,4,4,T1_SMS_5,150,5,42,127,840322356
91,4,4,T1_SMS_5,151,1,48,41,840806912
91,4,4,T1_SMS_5,152,5,42,127,840821980
91,4,4,T1_SMS_5,153,1,48,42,841306752
91,4,4,T1_SMS_5,154,5,42,127,841321820
91,4,4,T1_SMS_5,155,1,48,46,841812728
91,4,4,T1_SMS_5,156,5,42,127,841821592
91,4,4,T1_SMS_5,157,1,48,39,842321816
91,4,4,T1_SMS_5,158,5,42,127,842323456
91,4,4,T1_SMS_5,159,1,48,38,842804244
91,4,4,T1_SMS_5,160,5,42,127,842822004
91,4,4,T1_SMS_5,161,1,48,33,843309448
91,4,4,T1_SMS_5,162,5,42,127,843321748
91,4,4,T1_SMS_5,163,1,48,37,843786024
91,4,4,T1_SMS_5,164,5,42,127,843821368
91,4,4,T1_SMS_5,165,1,48,36,844295596
91,4,4,T1_SMS_5,166,5,42,127,844322260
91,4,4,T1_SMS_5,167,1,48,45,844804120
91,4,4,T1_SMS_5,168,5,42,127,844821804
91,4,4,T1_SMS_5,169,1,48,40,845301716
91,4,4,T1_SMS_5,170,5,42,127,845321500
91,4,4,T1_SMS_5,171,1,48,34,845796324
91,4,4,T1_SMS_5,172,5,42,127,845822240
91,4,4,T1_SMS_5,173,1,48,27,846303280
91,4,4,T1_SMS_5,174,5,42,127,846322160
91,4,4,T1_SMS_5,175,1,48,39,846796016
91,4,4,T1_SMS_5,176,5,42,127,846821856
91,4,4,T1_SMS_5,177,1,48,36,847265344
91,4,4,T1_SMS_5,178,5,42,127,847321476
91,4,4,T1_SMS_5,179,1,48,36,847772892
91,4,4,T1_SMS_5,180,5,42,127,847822216
91,4,4,T1_SMS_5,181,1,48,34,848289268
91,4,4,T1_SMS_5,182,5,42,127,848321912
91,4,4,T1_SMS_5,183,1,48,35,848745276
91,4,4,T1_SMS_5,184,5,42,127,848821608
91,4,4,T1_SMS_5,185,5,42,127,849322432
91,4,4,T1_SMS_5,186,1,48,36,849339016
91,4,4,T1_SMS_5,187,1,48,40,849768608
91,4,4,T1_SMS_5,188,5,42,127,849822344
91,4,4,T1_SMS_5,189,1,48,34,850285128
91,4,4,T1_SMS_5,190,5,42,127,850321740
91,4,4,T1_SMS_5,191,1,48,36,850818560
91,4,4,T1_SMS_5,192,5,42,127,850821436
91,4,4,T1_SMS_5,193,1,48,39,851317284
91,4,4,T1_SMS_5,194,5,42,127,851322400
91,4,4,T1_SMS_5,195,5,42,127,851821952
91,4,4,T1_SMS_5,196,1,48,36,851826040
91,4,4,T1_SMS_5,197,1,48,31,852321496
91,4,4,T1_SMS_5,198,5,42,127,852322908
91,4,4,T1_SMS_5,199,1,48,42,852782232
91,4,4,T1_SMS_5,200,5,42,127,852822380
91,4,4,T1_SMS_5,201,5,42,127,853322304
91,4,4,T1_SMS_5,202,1,48,37,853328196
91,4,4,T1_SMS_5,203,5,42,127,853821680
91,4,4,T1_SMS_5,204,1,48,38,853830284
91,4,4,T1_SMS_5,205,1,48,38,854318644
91,4,4,T1_SMS_5,206,5,42,127,854321444
91,4,4,T1_SMS_5,207,1,48,32,854819912
91,4,4,T1_SMS_5,208,5,42,127,854822336
91,4,4,T1_SMS_5,209,1,48,39,855321360
91,4,4,T1_SMS_5,210,5,42,127,855323000
91,4,4,T1_SMS_5,211,1,48,35,855793636
91,4,4,T1_SMS_5,212,5,42,127,855821724
91,4,4,T1_SMS_5,213,1,48,40,856287876
91,4,4,T1_SMS_5,214,5,42,127,856322392
91,4,4,T1_SMS_5,215,1,48,36,856821796
91,4,4,T1_SMS_5,216,5,42,127,856823280
91,4,4,T1_SMS_5,217,1,48,37,857307240
91,4,4,T1_SMS_5,218,5,42,127,857321780
91,4,4,T1_SMS_5,219,1,48,37,857815756
91,4,4,T1_SMS_5,220,5,42,127,857821624
91,4,4,T1_SMS_5,221,5,42,127,858322224
91,4,4,T1_SMS_5,222,1,48,20,858366036
91,4,4,T1_SMS_5,223,1,48,38,858815672
91,4,4,T1_SMS_5,224,5,42,127,858822212
91,4,4,T1_SMS_5,225,1,48,40,859275196
91,4,4,T1_SMS_5,226,5,42,127,859321684
91,4,4,T1_SMS_5,227,1,48,38,859792844
91,4,4,T1_SMS_5,228,5,42,127,859821376
91,4,4,T1_SMS_5,229,1,48,39,860295976
91,4,4,T1_SMS_5,230,5,42,127,860322268
91,4,4,T1_SMS_5,231,1,48,35,860775252
91,4,4,T1_SMS_5,232,5,42,127,860822040
91,4,4,T1_SMS_5,233,1,48,37,861281980
91,4,4,T1_SMS_5,234,5,42,127,861321508
91,4,4,T1_SMS_5,235,1,48,42,861779584
91,4,4,T1_SMS_5,236,5,42,127,861822324
91,4,4,T1_SMS_5,237,1,48,35,862293784
91,4,4,T1_SMS_5,238,5,42,127,862322168
91,4,4,T1_SMS_5,239,1,48,39,862769448
91,4,4,T1_SMS_5,240,5,42,127,862821864
91,4,4,T1_SMS_5,241,1,48,38,863285896
91,4,4,T1_SMS_5,242,5,42,127,863321336
91,4,4,T1_SMS_5,243,1,48,38,863782004
91,4,4,T1_SMS_5,244,5,42,127,863822228
91,4,4,T1_SMS_5,245,1,48,38,864301892
91,4,4,T1_SMS_5,246,5,42,127,864322048
91,4,4,T1_SMS_5,247,1,48,34,864807348
91,4,4,T1_SMS_5,248,5,42,127,864821520
91,4,4,T1_SMS_5,249,1,48,35,865290060
91,4,4,T1_SMS_5,250,5,42,127,865322260
91,4,4,T1_SMS_5,251,1,48,37,865806664
91,4,4,T1_SMS_5,252,5,42,127,865822104
91,4,4,T1_SMS_5,253,1,48,36,866280928
91,4,4,T1_SMS_5,254,5,42,127,866321652
91,4,4,T1_SMS_5,255,1,48,34,866812336
91,4,4,T1_SMS_5,256,5,42,127,866821420
91,4,4,T1_SMS_5,257,5,42,127,867322092
91,4,4,T1_SMS_5,258,1,48,31,867325064
91,4,4,T1_SMS_5,259,1,48,37,867817184
91,4,4,T1_SMS_5,0,9999,9999,9999,802819176
91,4,4,T1_SMS_5,1,9999,9999,9999,803319864
91,4,4,T1_SMS_5,2,9999,9999,9999,803819636
91,4,4,T1_SMS_5,3,9999,9999,9999,804319324
91,4,4,T1_SMS_5,4,9999,9999,9999,804820064
91,4,4,T1_SMS_5,5,9999,9999,9999,805319760
91,4,4,T1_SMS_5,6,9999,9999,9999,805819456
91,4,4,T1_SMS_5,7,9999,9999,9999,806319224
91,4,4,T1_SMS_5,8,9999,9999,9999,806819892
91,4,4,T1_SMS_5,9,9999,9999,9999,807319660
91,4,4,T1_SMS_5,10,9999,9999,9999,807819356
91,4,4,T1_SMS_5,11,9999,9999,9999,808320096
91,4,4,T1_SMS_5,12,9999,9999,9999,808819800
91,4,4,T1_SMS_5,13,9999,9999,9999,809319492
91,4,4,T1_SMS_5,14,9999,9999,9999,809819188
91,4,4,T1_SMS_5,15,9999,9999,9999,810319924
91,4,4,T1_SMS_5,16,9999,9999,9999,810819668
91,4,4,T1_SMS_5,17,9999,9999,9999,811319412
91,4,4,T1_SMS_5,18,9999,9999,9999,811819104
91,4,4,T1_SMS_5,19,9999,9999,9999,812319848
91,4,4,T1_SMS_5,20,9999,9999,9999,812819544
91,4,4,T1_SMS_5,21,9999,9999,9999,813319240
91,4,4,T1_SMS_5,22,9999,9999,9999,813819980
91,4,4,T1_SMS_5,23,9999,9999,9999,814319680
91,4,4,T1_SMS_5,24,9999,9999,9999,814819448
91,4,4,T1_SMS_5,25,9999,9999,9999,815319144
91,4,4,T1_SMS_5,26,9999,9999,9999,815819888
91,4,4,T1_SMS_5,27,9999,9999,9999,816319580
91,4,4,T1_SMS_5,28,9999,9999,9999,816819276
91,4,4,T1_SMS_5,29,9999,9999,9999,817320016
91,4,4,T1_SMS_5,30,9999,9999,9999,817819712
91,4,4,T1_SMS_5,31,9999,9999,9999,818319408
91,4,4,T1_SMS_5,32,9999,9999,9999,818819176
91,4,4,T1_SMS_5,33,9999,9999,9999,819319920
91,4,4,T1_SMS_5,34,9999,9999,9999,819819612
91,4,4,T1_SMS_5,35,9999,9999,9999,820319312
91,4,4,T1_SMS_5,36,9999,9999,9999,820820052
91,4,4,T1_SMS_5,37,9999,9999,9999,821319744
91,4,4,T1_SMS_5,38,9999,9999,9999,821819496
91,4,4,T1_SMS_5,39,9999,9999,9999,822319192
91,4,4,T1_SMS_5,40,9999,9999,9999,822819924
91,4,4,T1_SMS_5,41,9999,9999,9999,823319692
91,4,4,T1_SMS_5,42,9999,9999,9999,823819312
91,4,4,T1_SMS_5,43,9999,9999,9999,824320056
91,4,4,T1_SMS_5,44,9999,9999,9999,824819832
91,4,4,T1_SMS_5,45,9999,9999,9999,825319520
91,4,4,T1_SMS_5,46,9999,9999,9999,825819216
91,4,4,T1_SMS_5,47,9999,9999,9999,826319960
91,4,4,T1_SMS_5,48,9999,9999,9999,826819652
91,4,4,T1_SMS_5,49,9999,9999,9999,827319356
91,4,4,T1_SMS_5,50,9999,9999,9999,827819120
91,4,4,T1_SMS_5,51,9999,9999,9999,828319860
91,4,4,T1_SMS_5,52,9999,9999,9999,828819564
91,4,4,T1_SMS_5,53,9999,9999,9999,829319252
91,4,4,T1_SMS_5,54,9999,9999,9999,829819992
91,4,4,T1_SMS_5,55,9999,9999,9999,830319688
91,4,4,T1_SMS_5,56,9999,9999,9999,830819384
91,4,4,T1_SMS_5,57,9999,9999,9999,831319152
91,4,4,T1_SMS_5,58,9999,9999,9999,831819892
91,4,4,T1_SMS_5,59,9999,9999,9999,832319564
91,4,4,T1_SMS_5,60,9999,9999,9999,832819260
91,4,4,T1_SMS_5,61,9999,9999,9999,833320000
91,4,4,T1_SMS_5,62,9999,9999,9999,833819700
91,4,4,T1_SMS_5,63,9999,9999,9999,834319468
91,4,4,T1_SMS_5,64,9999,9999,9999,834819164
91,4,4,T1_SMS_5,65,9999,9999,9999,835319904
91,4,4,T1_SMS_5,66,9999,9999,9999,835819600
91,4,4,T1_SMS_5,67,9999,9999,9999,836319300
91,4,4,T1_SMS_5,68,9999,9999,9999,836820036
91,4,4,T1_SMS_5,69,9999,9999,9999,837319732
91,4,4,T1_SMS_5,70,9999,9999,9999,837819500
91,4,4,T1_SMS_5,71,9999,9999,9999,838319204
91,4,4,T1_SMS_5,72,9999,9999,9999,838819936
91,4,4,T1_SMS_5,73,9999,9999,9999,839319632
91,4,4,T1_SMS_5,74,9999,9999,9999,839819368
91,4,4,T1_SMS_5,75,9999,9999,9999,840320072
91,4,4,T1_SMS_5,76,9999,9999,9999,840819768
91,4,4,T1_SMS_5,77,9999,9999,9999,841319536
91,4,4,T1_SMS_5,78,9999,9999,9999,841819228
91,4,4,T1_SMS_5,79,9999,9999,9999,842319980
91,4,4,T1_SMS_5,80,9999,9999,9999,842819644
91,4,4,T1_SMS_5,81,9999,9999,9999,843319388
91,4,4,T1_SMS_5,82,9999,9999,9999,843819084
91,4,4,T1_SMS_5,83,9999,9999,9999,844319824
91,4,4,T1_SMS_5,84,9999,9999,9999,844819520
91,4,4,T1_SMS_5,85,9999,9999,9999,845319288
91,4,4,T1_SMS_5,86,9999,9999,9999,845819956
91,4,4,T1_SMS_5,87,9999,9999,9999,846319724
91,4,4,T1_SMS_5,88,9999,9999,9999,846819420
91,4,4,T1_SMS_5,89,9999,9999,9999,847319116
91,4,4,T1_SMS_5,90,9999,9999,9999,847819856
91,4,4,T1_SMS_5,91,9999,9999,9999,848319552
91,4,4,T1_SMS_5,92,9999,9999,9999,848819248
91,4,4,T1_SMS_5,93,9999,9999,9999,849319996
91,4,4,T1_SMS_5,94,9999,9999,9999,849819760
91,4,4,T1_SMS_5,95,9999,9999,9999,850319456
91,4,4,T1_SMS_5,96,9999,9999,9999,850819148
91,4,4,T1_SMS_5,97,9999,9999,9999,851319892
91,4,4,T1_SMS_5,98,9999,9999,9999,851819592
91,4,4,T1_SMS_5,99,9999,9999,9999,852319284
91,4,4,T1_SMS_5,100,9999,9999,9999,852820020
91,4,4,T1_SMS_5,101,9999,9999,9999,853319796
91,4,4,T1_SMS_5,102,9999,9999,9999,853819468
91,4,4,T1_SMS_5,103,9999,9999,9999,854319156
91,4,4,T1_SMS_5,104,9999,9999,9999,854819972
91,4,4,T1_SMS_5,105,9999,9999,9999,855319600
91,4,4,T1_SMS_5,106,9999,9999,9999,855819364
91,4,4,T1_SMS_5,107,9999,9999,9999,856320104
91,4,4,T1_SMS_5,108,9999,9999,9999,856819808
91,4,4,T1_SMS_5,109,9999,9999,9999,857319496
91,4,4,T1_SMS_5,110,9999,9999,9999,857819192
91,4,4,T1_SMS_5,111,9999,9999,9999,858319940
91,4,4,T1_SMS_5,112,9999,9999,9999,858819700
91,4,4,T1_SMS_5,113,9999,9999,9999,859319396
91,4,4,T1_SMS_5,114,9999,9999,9999,859819092
91,4,4,T1_SMS_5,115,9999,9999,9999,860319832
91,4,4,T1_SMS_5,116,9999,9999,9999,860819528
91,4,4,T1_SMS_5,117,9999,9999,9999,861319224
91,4,4,T1_SMS_5,118,9999,9999,9999,861819964
91,4,4,T1_SMS_5,119,9999,9999,9999,862319736
91,4,4,T1_SMS_5,120,9999,9999,9999,862819428
91,4,4,T1_SMS_5,121,9999,9999,9999,863319124
91,4,4,T1_SMS_5,122,9999,9999,9999,863819868
91,4,4,T1_SMS_5,123,9999,9999,9999,864319536
91,4,4,T1_SMS_5,124,9999,9999,9999,864819308
91,4,4,T1_SMS_5,125,9999,9999,9999,865320048
91,4,4,T1_SMS_5,126,9999,9999,9999,865819744
91,4,4,T1_SMS_5,127,9999,9999,9999,866319440
91,4,4,T1_SMS_5,128,9999,9999,9999,866819132
91,4,4,T1_SMS_5,129,9999,9999,9999,867319880
91,5,22,Ticks_Phase_8,0,5,42,127,880926092
91,5,22,Ticks_Phase_8,1,5,42,127,881725752
91,5,22,Ticks_Phase_8,2,1,48,35,882457608
91,5,22,Ticks_Phase_8,3,5,42,127,882525504
91,5,22,Ticks_Phase_8,4,1,48,37,883223228
91,5,22,Ticks_Phase_8,5,5,42,127,883326248
91,5,22,Ticks_Phase_8,6,1,48,37,884006844
91,5,22,Ticks_Phase_8,7,5,42,127,884125956
91,5,22,Ticks_Phase_8,8,1,48,34,884855864
91,5,22,Ticks_Phase_8,9,5,42,127,884925832
91,5,22,Ticks_Phase_8,10,1,48,38,885696764
91,5,22,Ticks_Phase_8,11,5,42,127,885725768
91,5,22,Ticks_Phase_8,12,1,48,36,886522448
91,5,22,Ticks_Phase_8,13,5,42,127,886526528
91,5,22,Ticks_Phase_8,14,5,42,127,887326024
91,5,22,Ticks_Phase_8,15,1,48,35,887346968
91,5,22,Ticks_Phase_8,16,1,48,24,888112288
91,5,22,Ticks_Phase_8,17,5,42,127,888125800
91,5,22,Ticks_Phase_8,18,1,48,36,888903108
91,5,22,Ticks_Phase_8,19,5,42,127,888925684
91,5,22,Ticks_Phase_8,20,1,48,32,889713840
91,5,22,Ticks_Phase_8,21,5,42,127,889726292
91,5,22,Ticks_Phase_8,22,5,42,127,890526012
91,5,22,Ticks_Phase_8,23,1,48,37,890528756
91,5,22,Ticks_Phase_8,24,5,42,127,891325948
91,5,22,Ticks_Phase_8,25,1,48,34,891331012
91,5,22,Ticks_Phase_8,26,5,42,127,892125732
91,5,22,Ticks_Phase_8,27,1,48,30,892149444
91,5,22,Ticks_Phase_8,28,1,48,36,892922852
91,5,22,Ticks_Phase_8,29,5,42,127,892926260
91,5,22,Ticks_Phase_8,30,5,42,127,893726204
91,5,22,Ticks_Phase_8,31,1,48,39,893728804
91,5,22,Ticks_Phase_8,32,5,42,127,894525916
91,5,22,Ticks_Phase_8,33,1,48,28,894572488
91,5,22,Ticks_Phase_8,34,1,48,39,895326024
91,5,22,Ticks_Phase_8,35,5,42,127,895327216
91,5,22,Ticks_Phase_8,36,5,42,127,896126636
91,5,22,Ticks_Phase_8,37,1,48,29,896157244
91,5,22,Ticks_Phase_8,38,5,42,127,896926048
91,5,22,Ticks_Phase_8,39,1,48,42,896942716
91,5,22,Ticks_Phase_8,40,5,42,127,897725760
91,5,22,Ticks_Phase_8,41,1,48,38,897743844
91,5,22,Ticks_Phase_8,42,1,48,40,898499896
91,5,22,Ticks_Phase_8,43,5,42,127,898525540
91,5,22,Ticks_Phase_8,44,1,48,36,899304708
91,5,22,Ticks_Phase_8,45,5,42,127,899326596
91,5,22,Ticks_Phase_8,46,5,42,127,900126016
91,5,22,Ticks_Phase_8,47,1,48,43,900127132
91,5,22,Ticks_Phase_8,48,5,42,127,900925952
91,5,22,Ticks_Phase_8,49,1,48,36,900986760
91,5,22,Ticks_Phase_8,50,5,42,127,901725540
91,5,22,Ticks_Phase_8,51,1,48,38,901731356
91,5,22,Ticks_Phase_8,52,1,48,39,902524480
91,5,22,Ticks_Phase_8,53,5,42,127,902526516
91,5,22,Ticks_Phase_8,54,1,48,30,903305008
91,5,22,Ticks_Phase_8,55,5,42,127,903326152
91,5,22,Ticks_Phase_8,56,1,48,43,904082772
91,5,22,Ticks_Phase_8,57,5,42,127,904125792
91,5,22,Ticks_Phase_8,58,1,48,34,904896944
91,5,22,Ticks_Phase_8,59,5,42,127,904905960
91,5,22,Ticks_Phase_8,60,1,48,34,905699196
91,5,22,Ticks_Phase_8,61,5,42,127,905705892
91,5,22,Ticks_Phase_8,62,5,42,127,906505536
91,5,22,Ticks_Phase_8,63,1,48,38,906530444
91,5,22,Ticks_Phase_8,64,1,48,27,907292996
91,5,22,Ticks_Phase_8,65,5,42,127,907306436
91,5,22,Ticks_Phase_8,66,1,48,37,908086052
91,5,22,Ticks_Phase_8,67,5,42,127,908106024
91,5,22,Ticks_Phase_8,68,1,48,38,908867668
91,5,22,Ticks_Phase_8,69,5,42,127,908905736
91,5,22,Ticks_Phase_8,70,5,42,127,909705604
91,5,22,Ticks_Phase_8,71,1,48,29,909708196
91,5,22,Ticks_Phase_8,72,5,42,127,910506436
91,5,22,Ticks_Phase_8,73,1,48,31,910549396
91,5,22,Ticks_Phase_8,74,5,42,127,911306148
91,5,22,Ticks_Phase_8,75,1,48,35,911325600
91,5,22,Ticks_Phase_8,76,1,48,34,912095644
91,5,22,Ticks_Phase_8,77,5,42,127,912105704
91,5,22,Ticks_Phase_8,78,5,42,127,912905720
91,5,22,Ticks_Phase_8,79,1,48,33,912920444
91,5,22,Ticks_Phase_8,80,5,42,127,913706332
91,5,22,Ticks_Phase_8,81,1,48,40,913743616
91,5,22,Ticks_Phase_8,82,5,42,127,914506068
91,5,22,Ticks_Phase_8,83,1,48,34,914511652
91,5,22,Ticks_Phase_8,84,5,42,127,915305704
91,5,22,Ticks_Phase_8,85,1,48,42,915319832
91,5,22,Ticks_Phase_8,86,5,42,127,916105564
91,5,22,Ticks_Phase_8,87,1,48,38,916108388
91,5,22,Ticks_Phase_8,88,5,42,127,916906548
91,5,22,Ticks_Phase_8,89,1,48,42,916939924
91,5,22,Ticks_Phase_8,90,5,42,127,917706036
91,5,22,Ticks_Phase_8,91,1,48,38,917727952
91,5,22,Ticks_Phase_8,92,5,42,127,918506048
91,5,22,Ticks_Phase_8,93,1,48,31,918529316
91,5,22,Ticks_Phase_8,94,5,42,127,919326056
91,5,22,Ticks_Phase_8,95,1,48,31,919340332
91,5,22,Ticks_Phase_8,96,5,42,127,920125764
91,5,22,Ticks_Phase_8,97,1,48,32,920140516
91,5,22,Ticks_Phase_8,98,5,42,127,920925428
91,5,22,Ticks_Phase_8,99,1,48,40,920965096
91,5,22,Ticks_Phase_8,100,1,48,42,921721504
91,5,22,Ticks_Phase_8,101,5,42,127,921726552
91,5,22,Ticks_Phase_8,102,5,42,127,922526196
91,5,22,Ticks_Phase_8,103,1,48,39,922555008
91,5,22,Ticks_Phase_8,104,5,42,127,923325908
91,5,22,Ticks_Phase_8,105,1,48,29,923361224
91,5,22,Ticks_Phase_8,106,5,42,127,924125620
91,5,22,Ticks_Phase_8,107,1,48,40,924152696
91,5,22,Ticks_Phase_8,108,5,42,127,924926380
91,5,22,Ticks_Phase_8,109,1,48,27,924941704
91,5,22,Ticks_Phase_8,110,1,48,38,925722452
91,5,22,Ticks_Phase_8,111,5,42,127,925726160
91,5,22,Ticks_Phase_8,112,5,42,127,926526028
91,5,22,Ticks_Phase_8,113,1,48,42,926567592
91,5,22,Ticks_Phase_8,114,1,48,40,927320484
91,5,22,Ticks_Phase_8,115,5,42,127,927325684
91,5,22,Ticks_Phase_8,116,5,42,127,928126372
91,5,22,Ticks_Phase_8,117,1,48,36,928154888
91,5,22,Ticks_Phase_8,118,5,42,127,928926236
91,5,22,Ticks_Phase_8,119,1,48,32,928952264
91,5,22,Ticks_Phase_8,120,5,42,127,929725796
91,5,22,Ticks_Phase_8,121,1,48,37,929754080
91,5,22,Ticks_Phase_8,122,1,48,41,930517684
91,5,22,Ticks_Phase_8,123,5,42,127,930525504
91,5,22,Ticks_Phase_8,124,1,48,36,931319640
91,5,22,Ticks_Phase_8,125,5,42,127,931326188
91,5,22,Ticks_Phase_8,126,1,48,38,932127740
91,5,22,Ticks_Phase_8,127,5,42,127,932166140
91,5,22,Ticks_Phase_8,128,1,48,33,932945752
91,5,22,Ticks_Phase_8,129,5,42,127,932965704
91,5,22,Ticks_Phase_8,130,1,48,38,933740068
91,5,22,Ticks_Phase_8,131,5,42,127,933765340
91,5,22,Ticks_Phase_8,132,1,48,29,934527356
91,5,22,Ticks_Phase_8,133,5,42,127,934566248
91,5,22,Ticks_Phase_8,134,1,48,37,935341884
91,5,22,Ticks_Phase_8,135,5,42,127,935366184
91,5,22,Ticks_Phase_8,136,5,42,127,936165604
91,5,22,Ticks_Phase_8,137,1,48,31,936166572
91,5,22,Ticks_Phase_8,138,1,48,42,936959884
91,5,22,Ticks_Phase_8,139,5,42,127,936965460
91,5,22,Ticks_Phase_8,140,5,42,127,937766152
91,5,22,Ticks_Phase_8,141,1,48,45,937789864
91,5,22,Ticks_Phase_8,142,5,42,127,938566184
91,5,22,Ticks_Phase_8,143,1,48,35,938577544
91,5,22,Ticks_Phase_8,144,1,48,37,939362036
91,5,22,Ticks_Phase_8,145,5,42,127,939365892
91,5,22,Ticks_Phase_8,146,5,42,127,940165460
91,5,22,Ticks_Phase_8,147,1,48,38,940192988
91,5,22,Ticks_Phase_8,148,5,42,127,940966220
91,5,22,Ticks_Phase_8,149,1,48,37,941710124
91,5,22,Ticks_Phase_8,150,5,42,127,941766168
91,5,22,Ticks_Phase_8,151,1,48,41,942519648
91,5,22,Ticks_Phase_8,152,5,42,127,942565660
91,5,22,Ticks_Phase_8,153,1,48,38,943321752
91,5,22,Ticks_Phase_8,154,5,42,127,943365596
91,5,22,Ticks_Phase_8,155,1,48,46,944142508
91,5,22,Ticks_Phase_8,156,5,42,127,944166204
91,5,22,Ticks_Phase_8,157,1,48,43,944941324
91,5,22,Ticks_Phase_8,158,5,42,127,944966092
91,5,22,Ticks_Phase_8,159,1,48,47,945718120
91,5,22,Ticks_Phase_8,160,5,42,127,945726012
91,5,22,Ticks_Phase_8,161,1,48,47,946518164
91,5,22,Ticks_Phase_8,162,5,42,127,946525528
91,5,22,Ticks_Phase_8,163,1,48,43,947305440
91,5,22,Ticks_Phase_8,164,5,42,127,947326288
91,5,22,Ticks_Phase_8,165,5,42,127,948126004
91,5,22,Ticks_Phase_8,166,1,48,42,948134520
91,5,22,Ticks_Phase_8,167,1,48,43,948915196
91,5,22,Ticks_Phase_8,168,5,42,127,948925932
91,5,22,Ticks_Phase_8,169,5,42,127,949725428
91,5,22,Ticks_Phase_8,170,1,48,39,949745396
91,5,22,Ticks_Phase_8,171,1,48,43,950522548
91,5,22,Ticks_Phase_8,172,5,42,127,950526252
91,5,22,Ticks_Phase_8,173,1,48,39,951304820
91,5,22,Ticks_Phase_8,174,5,42,127,951326040
91,5,22,Ticks_Phase_8,175,1,48,46,952123016
91,5,22,Ticks_Phase_8,176,5,42,127,952125752
91,5,22,Ticks_Phase_8,177,1,48,43,952913392
91,5,22,Ticks_Phase_8,178,5,42,127,952925412
91,5,22,Ticks_Phase_8,179,1,48,38,953687280
91,5,22,Ticks_Phase_8,180,5,42,127,953726320
91,5,22,Ticks_Phase_8,181,1,48,45,954504664
91,5,22,Ticks_Phase_8,182,5,42,127,954526032
91,5,22,Ticks_Phase_8,183,1,48,39,955291864
91,5,22,Ticks_Phase_8,184,5,42,127,955325744
91,5,22,Ticks_Phase_8,185,1,48,39,956079892
91,5,22,Ticks_Phase_8,186,5,42,127,956125532
91,5,22,Ticks_Phase_8,187,1,48,40,956886800
91,5,22,Ticks_Phase_8,188,5,42,127,956926292
91,5,22,Ticks_Phase_8,189,1,48,32,957726084
91,5,22,Ticks_Phase_8,190,5,42,127,957727500
91,5,22,Ticks_Phase_8,191,5,42,127,958445968
91,5,22,Ticks_Phase_8,192,1,48,42,958496716
91,5,22,Ticks_Phase_8,193,5,42,127,959245756
91,5,22,Ticks_Phase_8,194,1,48,33,959261904
91,5,22,Ticks_Phase_8,195,1,48,30,960022284
91,5,22,Ticks_Phase_8,196,5,42,127,960045460
91,5,22,Ticks_Phase_8,197,1,48,35,960833252
91,5,22,Ticks_Phase_8,198,5,42,127,960846168
91,5,22,Ticks_Phase_8,199,1,48,41,961596252
91,5,22,Ticks_Phase_8,200,5,42,127,961645880
91,5,22,Ticks_Phase_8,201,1,48,42,962415836
91,5,22,Ticks_Phase_8,202,5,42,127,962445744
91,5,22,Ticks_Phase_8,203,1,48,41,963232016
91,5,22,Ticks_Phase_8,204,5,42,127,963245752
91,5,22,Ticks_Phase_8,205,1,48,41,964030452
91,5,22,Ticks_Phase_8,206,5,42,127,964046140
91,5,22,Ticks_Phase_8,207,5,42,127,964845932
91,5,22,Ticks_Phase_8,208,1,48,46,964888672
91,5,22,Ticks_Phase_8,209,5,42,127,965645792
91,5,22,Ticks_Phase_8,210,1,48,35,965666364
91,5,22,Ticks_Phase_8,211,5,42,127,966445580
91,5,22,Ticks_Phase_8,212,1,48,38,966446548
91,5,22,Ticks_Phase_8,213,5,42,127,967246216
91,5,22,Ticks_Phase_8,214,1,48,36,967260940
91,5,22,Ticks_Phase_8,215,5,42,127,968045928
91,5,22,Ticks_Phase_8,216,1,48,42,968091204
91,5,22,Ticks_Phase_8,217,1,48,38,968825536
91,5,22,Ticks_Phase_8,218,5,42,127,968845780
91,5,22,Ticks_Phase_8,219,1,48,39,969592140
91,5,22,Ticks_Phase_8,220,5,42,127,969645568
91,5,22,Ticks_Phase_8,221,1,48,35,970393736
91,5,22,Ticks_Phase_8,222,5,42,127,970446104
91,5,22,Ticks_Phase_8,223,1,48,43,971229236
91,5,22,Ticks_Phase_8,224,5,42,127,971245888
91,5,22,Ticks_Phase_8,225,1,48,33,972013676
91,5,22,Ticks_Phase_8,226,5,42,127,972125740
91,5,22,Ticks_Phase_8,227,1,48,39,972875564
91,5,22,Ticks_Phase_8,228,5,42,127,972926512
91,5,22,Ticks_Phase_8,229,1,48,35,973668156
91,5,22,Ticks_Phase_8,230,5,42,127,973725924
91,5,22,Ticks_Phase_8,231,1,48,32,974490108
91,5,22,Ticks_Phase_8,232,5,42,127,974525860
91,5,22,Ticks_Phase_8,233,1,48,35,975269976
91,5,22,Ticks_Phase_8,234,5,42,127,975325648
91,5,22,Ticks_Phase_8,235,1,48,31,976064444
91,5,22,Ticks_Phase_8,236,5,42,127,976126404
91,5,22,Ticks_Phase_8,237,1,48,29,976880032
91,5,22,Ticks_Phase_8,238,5,42,127,976926040
91,5,22,Ticks_Phase_8,239,1,48,37,977684688
91,5,22,Ticks_Phase_8,240,5,42,127,977725824
91,5,22,Ticks_Phase_8,241,1,48,38,978502360
91,5,22,Ticks_Phase_8,242,5,42,127,978525464
91,5,22,Ticks_Phase_8,243,5,42,127,979326528
91,5,22,Ticks_Phase_8,244,1,48,38,979330992
91,5,22,Ticks_Phase_8,245,1,48,35,980106812
91,5,22,Ticks_Phase_8,246,5,42,127,980126084
91,5,22,Ticks_Phase_8,247,5,42,127,980925876
91,5,22,Ticks_Phase_8,248,1,48,19,980928624
91,5,22,Ticks_Phase_8,249,5,42,127,981725440
91,5,22,Ticks_Phase_8,250,1,48,27,981752964
91,5,22,Ticks_Phase_8,251,1,48,33,982511928
91,5,22,Ticks_Phase_8,252,5,42,127,982526412
91,5,22,Ticks_Phase_8,253,1,48,44,983317184
91,5,22,Ticks_Phase_8,254,5,42,127,983326200
91,5,22,Ticks_Phase_8,255,1,48,41,984102364
91,5,22,Ticks_Phase_8,256,5,42,127,984125764
91,5,22,Ticks_Phase_8,257,5,42,127,984925428
91,5,22,Ticks_Phase_8,258,1,48,41,984934916
91,5,22,Ticks_Phase_8,259,1,48,43,985737684
91,5,22,Ticks_Phase_8,260,5,42,127,985885976
91,5,22,Ticks_Phase_8,261,1,48,43,986653016
91,5,22,Ticks_Phase_8,262,5,42,127,986685700
91,5,22,Ticks_Phase_8,263,1,48,45,987478744
91,5,22,Ticks_Phase_8,264,5,42,127,987485516
91,5,22,Ticks_Phase_8,265,5,42,127,988286504
91,5,22,Ticks_Phase_8,266,1,48,46,988309316
91,5,22,Ticks_Phase_8,267,5,42,127,989086140
91,5,22,Ticks_Phase_8,268,1,48,45,989094580
91,5,22,Ticks_Phase_8,269,5,42,127,989885776
91,5,22,Ticks_Phase_8,270,1,48,43,989900952
91,5,22,Ticks_Phase_8,271,5,42,127,990685636
91,5,22,Ticks_Phase_8,272,1,48,43,990741100
91,5,22,Ticks_Phase_8,273,5,42,127,991486468
91,5,22,Ticks_Phase_8,274,1,48,39,991514684
91,5,22,Ticks_Phase_8,275,1,48,37,992281424
91,5,22,Ticks_Phase_8,276,5,42,127,992286176
91,5,22,Ticks_Phase_8,277,5,42,127,993085820
91,5,22,Ticks_Phase_8,278,1,48,32,993100420
91,5,22,Ticks_Phase_8,279,1,48,38,993882964
91,5,22,Ticks_Phase_8,280,5,42,127,993885624
91,5,22,Ticks_Phase_8,281,1,48,44,994678120
91,5,22,Ticks_Phase_8,282,5,42,127,994686456
91,5,22,Ticks_Phase_8,283,1,48,46,995473480
91,5,22,Ticks_Phase_8,284,5,42,127,995486320
91,5,22,Ticks_Phase_8,285,5,42,127,996285740
91,5,22,Ticks_Phase_8,286,1,48,43,996310572
91,5,22,Ticks_Phase_8,287,5,42,127,997085524
91,5,22,Ticks_Phase_8,288,1,48,40,997107368
91,5,22,Ticks_Phase_8,289,1,48,46,997863788
91,5,22,Ticks_Phase_8,290,5,42,127,997886276
91,5,22,Ticks_Phase_8,291,1,48,27,998676148
91,5,22,Ticks_Phase_8,292,5,42,127,998686360
91,5,22,Ticks_Phase_8,293,5,42,127,999485780
91,5,22,Ticks_Phase_8,294,1,48,47,999493188
91,5,22,Ticks_Phase_8,295,5,42,127,1000285516
91,5,22,Ticks_Phase_8,296,1,48,47,1000321508
91,5,22,Ticks_Phase_8,297,5,42,127,1000925472
91,5,22,Ticks_Phase_8,298,1,48,41,1001099360
91,5,22,Ticks_Phase_8,299,1,48,45,1001531304
91,5,22,Ticks_Phase_8,300,5,42,127,1001726280
91,5,22,Ticks_Phase_8,301,1,48,46,1002499172
91,5,22,Ticks_Phase_8,302,5,42,127,1002526080
91,5,22,Ticks_Phase_8,303,1,48,40,1003324520
91,5,22,Ticks_Phase_8,304,5,42,127,1003325868
91,5,22,Ticks_Phase_8,305,5,42,127,1004125536
91,5,22,Ticks_Phase_8,306,1,48,40,1004126728
91,5,22,Ticks_Phase_8,307,1,48,43,1004916980
91,5,22,Ticks_Phase_8,308,5,42,127,1004926364
91,5,22,Ticks_Phase_8,309,1,48,38,1005690768
91,5,22,Ticks_Phase_8,310,5,42,127,1005726148
91,5,22,Ticks_Phase_8,311,1,48,45,1006473344
91,5,22,Ticks_Phase_8,312,5,42,127,1006525712
91,5,22,Ticks_Phase_8,313,1,48,45,1007307872
91,5,22,Ticks_Phase_8,314,5,42,127,1007325500
91,5,22,Ticks_Phase_8,315,1,48,34,1008110724
91,5,22,Ticks_Phase_8,316,5,42,127,1008126256
91,5,22,Ticks_Phase_8,317,1,48,39,1008923164
91,5,22,Ticks_Phase_8,318,5,42,127,1008926192
91,5,22,Ticks_Phase_8,319,1,48,41,1009723788
91,5,22,Ticks_Phase_8,320,5,42,127,1009725904
91,5,22,Ticks_Phase_8,321,1,48,38,1010508140
91,5,22,Ticks_Phase_8,322,5,42,127,1010525468
91,5,22,Ticks_Phase_8,323,1,48,39,1011296620
91,5,22,Ticks_Phase_8,324,5,42,127,1011326300
91,5,22,Ticks_Phase_8,325,1,48,36,1012110176
91,5,22,Ticks_Phase_8,326,5,42,127,1012126160
91,5,22,Ticks_Phase_8,327,1,48,43,1012891020
91,5,22,Ticks_Phase_8,328,5,42,127,1012925948
91,5,22,Ticks_Phase_8,329,1,48,43,1013716124
91,5,22,Ticks_Phase_8,330,5,42,127,1013725588
91,5,22,Ticks_Phase_8,331,1,48,38,1014518904
91,5,22,Ticks_Phase_8,332,5,42,127,1014526344
91,5,22,Ticks_Phase_8,333,1,48,38,1015318016
91,5,22,Ticks_Phase_8,334,5,42,127,1015325984
91,5,22,Ticks_Phase_8,335,1,48,44,1016067256
91,5,22,Ticks_Phase_8,336,5,42,127,1016126308
91,5,22,Ticks_Phase_8,0,9999,9999,9999,880923732
91,5,22,Ticks_Phase_8,1,9999,9999,9999,881723464
91,5,22,Ticks_Phase_8,2,9999,9999,9999,882523216
91,5,22,Ticks_Phase_8,3,9999,9999,9999,883323960
91,5,22,Ticks_Phase_8,4,9999,9999,9999,884123744
91,5,22,Ticks_Phase_8,5,9999,9999,9999,884923472
91,5,22,Ticks_Phase_8,6,9999,9999,9999,885723260
91,5,22,Ticks_Phase_8,7,9999,9999,9999,886524016
91,5,22,Ticks_Phase_8,8,9999,9999,9999,887323736
91,5,22,Ticks_Phase_8,9,9999,9999,9999,888123512
91,5,22,Ticks_Phase_8,10,9999,9999,9999,888923252
91,5,22,Ticks_Phase_8,11,9999,9999,9999,889724008
91,5,22,Ticks_Phase_8,12,9999,9999,9999,890523724
91,5,22,Ticks_Phase_8,13,9999,9999,9999,891323512
91,5,22,Ticks_Phase_8,14,9999,9999,9999,892123224
91,5,22,Ticks_Phase_8,15,9999,9999,9999,892923976
91,5,22,Ticks_Phase_8,16,9999,9999,9999,893723768
91,5,22,Ticks_Phase_8,17,9999,9999,9999,894523480
91,5,22,Ticks_Phase_8,18,9999,9999,9999,895323216
91,5,22,Ticks_Phase_8,19,9999,9999,9999,896123976
91,5,22,Ticks_Phase_8,20,9999,9999,9999,896923764
91,5,22,Ticks_Phase_8,21,9999,9999,9999,897723472
91,5,22,Ticks_Phase_8,22,9999,9999,9999,898523252
91,5,22,Ticks_Phase_8,23,9999,9999,9999,899324012
91,5,22,Ticks_Phase_8,24,9999,9999,9999,900123728
91,5,22,Ticks_Phase_8,25,9999,9999,9999,900923516
91,5,22,Ticks_Phase_8,26,9999,9999,9999,901723252
91,5,22,Ticks_Phase_8,27,9999,9999,9999,902524028
91,5,22,Ticks_Phase_8,28,9999,9999,9999,903323716
91,5,22,Ticks_Phase_8,29,9999,9999,9999,904123504
91,5,22,Ticks_Phase_8,30,9999,9999,9999,904903744
91,5,22,Ticks_Phase_8,31,9999,9999,9999,905703532
91,5,22,Ticks_Phase_8,32,9999,9999,9999,906503248
91,5,22,Ticks_Phase_8,33,9999,9999,9999,907304000
91,5,22,Ticks_Phase_8,34,9999,9999,9999,908103736
91,5,22,Ticks_Phase_8,35,9999,9999,9999,908903524
91,5,22,Ticks_Phase_8,36,9999,9999,9999,909703240
91,5,22,Ticks_Phase_8,37,9999,9999,9999,910504000
91,5,22,Ticks_Phase_8,38,9999,9999,9999,911303784
91,5,22,Ticks_Phase_8,39,9999,9999,9999,912103492
91,5,22,Ticks_Phase_8,40,9999,9999,9999,912903284
91,5,22,Ticks_Phase_8,41,9999,9999,9999,913704044
91,5,22,Ticks_Phase_8,42,9999,9999,9999,914503780
91,5,22,Ticks_Phase_8,43,9999,9999,9999,915303492
91,5,22,Ticks_Phase_8,44,9999,9999,9999,916103280
91,5,22,Ticks_Phase_8,45,9999,9999,9999,916904040
91,5,22,Ticks_Phase_8,46,9999,9999,9999,917703748
91,5,22,Ticks_Phase_8,47,9999,9999,9999,918503536
91,5,22,Ticks_Phase_8,48,9999,9999,9999,919323768
91,5,22,Ticks_Phase_8,49,9999,9999,9999,920123480
91,5,22,Ticks_Phase_8,50,9999,9999,9999,920923216
91,5,22,Ticks_Phase_8,51,9999,9999,9999,921723968
91,5,22,Ticks_Phase_8,52,9999,9999,9999,922523760
91,5,22,Ticks_Phase_8,53,9999,9999,9999,923323476
91,5,22,Ticks_Phase_8,54,9999,9999,9999,924123260
91,5,22,Ticks_Phase_8,55,9999,9999,9999,924924016
91,5,22,Ticks_Phase_8,56,9999,9999,9999,925723724
91,5,22,Ticks_Phase_8,57,9999,9999,9999,926523516
91,5,22,Ticks_Phase_8,58,9999,9999,9999,927323248
91,5,22,Ticks_Phase_8,59,9999,9999,9999,928124012
91,5,22,Ticks_Phase_8,60,9999,9999,9999,928923724
91,5,22,Ticks_Phase_8,61,9999,9999,9999,929723512
91,5,22,Ticks_Phase_8,62,9999,9999,9999,930523216
91,5,22,Ticks_Phase_8,63,9999,9999,9999,931323976
91,5,22,Ticks_Phase_8,64,9999,9999,9999,932163704
91,5,22,Ticks_Phase_8,65,9999,9999,9999,932963416
91,5,22,Ticks_Phase_8,66,9999,9999,9999,933763128
91,5,22,Ticks_Phase_8,67,9999,9999,9999,934563960
91,5,22,Ticks_Phase_8,68,9999,9999,9999,935363672
91,5,22,Ticks_Phase_8,69,9999,9999,9999,936163392
91,5,22,Ticks_Phase_8,70,9999,9999,9999,936963172
91,5,22,Ticks_Phase_8,71,9999,9999,9999,937763936
91,5,22,Ticks_Phase_8,72,9999,9999,9999,938563676
91,5,22,Ticks_Phase_8,73,9999,9999,9999,939363456
91,5,22,Ticks_Phase_8,74,9999,9999,9999,940163172
91,5,22,Ticks_Phase_8,75,9999,9999,9999,940963932
91,5,22,Ticks_Phase_8,76,9999,9999,9999,941763660
91,5,22,Ticks_Phase_8,77,9999,9999,9999,942563448
91,5,22,Ticks_Phase_8,78,9999,9999,9999,943363160
91,5,22,Ticks_Phase_8,79,9999,9999,9999,944163916
91,5,22,Ticks_Phase_8,80,9999,9999,9999,944963656
91,5,22,Ticks_Phase_8,81,9999,9999,9999,945723504
91,5,22,Ticks_Phase_8,82,9999,9999,9999,946523240
91,5,22,Ticks_Phase_8,83,9999,9999,9999,947324000
91,5,22,Ticks_Phase_8,84,9999,9999,9999,948123716
91,5,22,Ticks_Phase_8,85,9999,9999,9999,948923496
91,5,22,Ticks_Phase_8,86,9999,9999,9999,949723216
91,5,22,Ticks_Phase_8,87,9999,9999,9999,950523968
91,5,22,Ticks_Phase_8,88,9999,9999,9999,951323752
91,5,22,Ticks_Phase_8,89,9999,9999,9999,952123464
91,5,22,Ticks_Phase_8,90,9999,9999,9999,952923200
91,5,22,Ticks_Phase_8,91,9999,9999,9999,953723960
91,5,22,Ticks_Phase_8,92,9999,9999,9999,954523748
91,5,22,Ticks_Phase_8,93,9999,9999,9999,955323460
91,5,22,Ticks_Phase_8,94,9999,9999,9999,956123248
91,5,22,Ticks_Phase_8,95,9999,9999,9999,956924004
91,5,22,Ticks_Phase_8,96,9999,9999,9999,957723724
91,5,22,Ticks_Phase_8,97,9999,9999,9999,958443608
91,5,22,Ticks_Phase_8,98,9999,9999,9999,959243320
91,5,22,Ticks_Phase_8,99,9999,9999,9999,960043100
91,5,22,Ticks_Phase_8,100,9999,9999,9999,960843884
91,5,22,Ticks_Phase_8,101,9999,9999,9999,961643592
91,5,22,Ticks_Phase_8,102,9999,9999,9999,962443380
91,5,22,Ticks_Phase_8,103,9999,9999,9999,963243092
91,5,22,Ticks_Phase_8,104,9999,9999,9999,964043852
91,5,22,Ticks_Phase_8,105,9999,9999,9999,964843644
91,5,22,Ticks_Phase_8,106,9999,9999,9999,965643360
91,5,22,Ticks_Phase_8,107,9999,9999,9999,966443072
91,5,22,Ticks_Phase_8,108,9999,9999,9999,967243852
91,5,22,Ticks_Phase_8,109,9999,9999,9999,968043640
91,5,22,Ticks_Phase_8,110,9999,9999,9999,968843348
91,5,22,Ticks_Phase_8,111,9999,9999,9999,969643132
91,5,22,Ticks_Phase_8,112,9999,9999,9999,970443892
91,5,22,Ticks_Phase_8,113,9999,9999,9999,971243600
91,5,22,Ticks_Phase_8,114,9999,9999,9999,972123228
91,5,22,Ticks_Phase_8,115,9999,9999,9999,972924004
91,5,22,Ticks_Phase_8,116,9999,9999,9999,973723712
91,5,22,Ticks_Phase_8,117,9999,9999,9999,974523500
91,5,22,Ticks_Phase_8,118,9999,9999,9999,975323212
91,5,22,Ticks_Phase_8,119,9999,9999,9999,976123968
91,5,22,Ticks_Phase_8,120,9999,9999,9999,976923756
91,5,22,Ticks_Phase_8,121,9999,9999,9999,977723464
91,5,22,Ticks_Phase_8,122,9999,9999,9999,978523252
91,5,22,Ticks_Phase_8,123,9999,9999,9999,979324016
91,5,22,Ticks_Phase_8,124,9999,9999,9999,980123724
91,5,22,Ticks_Phase_8,125,9999,9999,9999,980923516
91,5,22,Ticks_Phase_8,126,9999,9999,9999,981723224
91,5,22,Ticks_Phase_8,127,9999,9999,9999,982523976
91,5,22,Ticks_Phase_8,128,9999,9999,9999,983323764
91,5,22,Ticks_Phase_8,129,9999,9999,9999,984123476
91,5,22,Ticks_Phase_8,130,9999,9999,9999,984923216
91,5,22,Ticks_Phase_8,131,9999,9999,9999,985883760
91,5,22,Ticks_Phase_8,132,9999,9999,9999,986683488
91,5,22,Ticks_Phase_8,133,9999,9999,9999,987483228
91,5,22,Ticks_Phase_8,134,9999,9999,9999,988283992
91,5,22,Ticks_Phase_8,135,9999,9999,9999,989083704
91,5,22,Ticks_Phase_8,136,9999,9999,9999,989883492
91,5,22,Ticks_Phase_8,137,9999,9999,9999,990683200
91,5,22,Ticks_Phase_8,138,9999,9999,9999,991483960
91,5,22,Ticks_Phase_8,139,9999,9999,9999,992283740
91,5,22,Ticks_Phase_8,140,9999,9999,9999,993083460
91,5,22,Ticks_Phase_8,141,9999,9999,9999,993883264
91,5,22,Ticks_Phase_8,142,9999,9999,9999,994684020
91,5,22,Ticks_Phase_8,143,9999,9999,9999,995483736
91,5,22,Ticks_Phase_8,144,9999,9999,9999,996283452
91,5,22,Ticks_Phase_8,145,9999,9999,9999,997083240
91,5,22,Ticks_Phase_8,146,9999,9999,9999,997883988
91,5,22,Ticks_Phase_8,147,9999,9999,9999,998683776
91,5,22,Ticks_Phase_8,148,9999,9999,9999,999483496
91,5,22,Ticks_Phase_8,149,9999,9999,9999,1000283228
91,5,22,Ticks_Phase_8,150,9999,9999,9999,1000923256
91,5,22,Ticks_Phase_8,151,9999,9999,9999,1001723996
91,5,22,Ticks_Phase_8,152,9999,9999,9999,1002523720
91,5,22,Ticks_Phase_8,153,9999,9999,9999,1003323512
91,5,22,Ticks_Phase_8,154,9999,9999,9999,1004123252
91,5,22,Ticks_Phase_8,155,9999,9999,9999,1004924004
91,5,22,Ticks_Phase_8,156,9999,9999,9999,1005723712
91,5,22,Ticks_Phase_8,157,9999,9999,9999,1006523500
91,5,22,Ticks_Phase_8,158,9999,9999,9999,1007323212
91,5,22,Ticks_Phase_8,159,9999,9999,9999,1008123972
91,5,22,Ticks_Phase_8,160,9999,9999,9999,1008923760
91,5,22,Ticks_Phase_8,161,9999,9999,9999,1009723508
91,5,22,Ticks_Phase_8,162,9999,9999,9999,1010523256
91,5,22,Ticks_Phase_8,163,9999,9999,9999,1011324016
91,5,22,Ticks_Phase_8,164,9999,9999,9999,1012123724
91,5,22,Ticks_Phase_8,165,9999,9999,9999,1012923512
91,5,22,Ticks_Phase_8,166,9999,9999,9999,1013723224
91,5,22,Ticks_Phase_8,167,9999,9999,9999,1014523984
91,5,22,Ticks_Phase_8,168,9999,9999,9999,1015323772
91,5,22,Ticks_Phase_8,169,9999,9999,9999,1016123484
91,6,23,Ticks_Phase_5,0,5,42,127,1054038564
91,6,23,Ticks_Phase_5,1,5,42,127,1054538052
91,6,23,Ticks_Phase_5,2,1,48,38,1054659340
91,6,23,Ticks_Phase_5,3,5,42,127,1055038036
91,6,23,Ticks_Phase_5,4,1,48,31,1055047228
91,6,23,Ticks_Phase_5,5,1,48,37,1055491380
91,6,23,Ticks_Phase_5,6,5,42,127,1055537468
91,6,23,Ticks_Phase_5,7,1,48,37,1055991588
91,6,23,Ticks_Phase_5,8,5,42,127,1056038504
91,6,23,Ticks_Phase_5,9,1,48,35,1056523852
91,6,23,Ticks_Phase_5,10,5,42,127,1056537968
91,6,23,Ticks_Phase_5,11,1,48,40,1057025720
91,6,23,Ticks_Phase_5,12,5,42,127,1057037656
91,6,23,Ticks_Phase_5,13,1,48,40,1057526380
91,6,23,Ticks_Phase_5,14,5,42,127,1057538540
91,6,23,Ticks_Phase_5,15,1,48,37,1058037904
91,6,23,Ticks_Phase_5,16,5,42,127,1058048636
91,6,23,Ticks_Phase_5,17,5,42,127,1058548256
91,6,23,Ticks_Phase_5,18,1,48,38,1058551828
91,6,23,Ticks_Phase_5,19,5,42,127,1059047796
91,6,23,Ticks_Phase_5,20,1,48,37,1059050388
91,6,23,Ticks_Phase_5,21,5,42,127,1059547632
91,6,23,Ticks_Phase_5,22,1,48,41,1059551796
91,6,23,Ticks_Phase_5,23,5,42,127,1060048440
91,6,23,Ticks_Phase_5,24,1,48,38,1060063688
91,6,23,Ticks_Phase_5,25,1,48,43,1060539484
91,6,23,Ticks_Phase_5,26,5,42,127,1060548048
91,6,23,Ticks_Phase_5,27,1,48,38,1061046616
91,6,23,Ticks_Phase_5,28,5,42,127,1061048256
91,6,23,Ticks_Phase_5,29,1,48,44,1061534580
91,6,23,Ticks_Phase_5,30,5,42,127,1061548548
91,6,23,Ticks_Phase_5,31,5,42,127,1062048388
91,6,23,Ticks_Phase_5,32,1,48,37,1062063264
91,6,23,Ticks_Phase_5,33,5,42,127,1062547856
91,6,23,Ticks_Phase_5,34,1,48,38,1062572240
91,6,23,Ticks_Phase_5,35,1,48,44,1063031552
91,6,23,Ticks_Phase_5,36,5,42,127,1063047540
91,6,23,Ticks_Phase_5,37,1,48,40,1063531164
91,6,23,Ticks_Phase_5,38,5,42,127,1063548496
91,6,23,Ticks_Phase_5,39,5,42,127,1064048264
91,6,23,Ticks_Phase_5,40,1,48,38,1064063292
91,6,23,Ticks_Phase_5,41,5,42,127,1064547656
91,6,23,Ticks_Phase_5,42,1,48,31,1064579460
91,6,23,Ticks_Phase_5,43,1,48,39,1065041312
91,6,23,Ticks_Phase_5,44,5,42,127,1065048680
91,6,23,Ticks_Phase_5,45,1,48,41,1065495360
91,6,23,Ticks_Phase_5,46,5,42,127,1065558332
91,6,23,Ticks_Phase_5,47,1,48,43,1065999252
91,6,23,Ticks_Phase_5,48,5,42,127,1066058392
91,6,23,Ticks_Phase_5,49,1,48,42,1066492272
91,6,23,Ticks_Phase_5,50,5,42,127,1066557856
91,6,23,Ticks_Phase_5,51,1,48,43,1067027236
91,6,23,Ticks_Phase_5,52,5,42,127,1067057520
91,6,23,Ticks_Phase_5,53,1,48,38,1067557660
91,6,23,Ticks_Phase_5,54,5,42,127,1067559300
91,6,23,Ticks_Phase_5,55,1,48,41,1068041132
91,6,23,Ticks_Phase_5,56,5,42,127,1068057944
91,6,23,Ticks_Phase_5,57,1,48,35,1068530116
91,6,23,Ticks_Phase_5,58,5,42,127,1068557632
91,6,23,Ticks_Phase_5,59,1,48,43,1069015356
91,6,23,Ticks_Phase_5,60,5,42,127,1069048404
91,6,23,Ticks_Phase_5,61,1,48,45,1069525440
91,6,23,Ticks_Phase_5,62,5,42,127,1069548092
91,6,23,Ticks_Phase_5,63,1,48,40,1070043404
91,6,23,Ticks_Phase_5,64,5,42,127,1070047560
91,6,23,Ticks_Phase_5,65,1,48,38,1070532160
91,6,23,Ticks_Phase_5,66,5,42,127,1070548296
91,6,23,Ticks_Phase_5,67,1,48,40,1071031100
91,6,23,Ticks_Phase_5,68,5,42,127,1071048132
91,6,23,Ticks_Phase_5,69,1,48,45,1071518584
91,6,23,Ticks_Phase_5,70,5,42,127,1071547748
91,6,23,Ticks_Phase_5,71,1,48,34,1072047292
91,6,23,Ticks_Phase_5,72,5,42,127,1072048704
91,6,23,Ticks_Phase_5,73,5,42,127,1072548176
91,6,23,Ticks_Phase_5,74,1,48,49,1072554508
91,6,23,Ticks_Phase_5,75,1,48,44,1073032624
91,6,23,Ticks_Phase_5,76,5,42,127,1073048008
91,6,23,Ticks_Phase_5,77,1,48,44,1073529172
91,6,23,Ticks_Phase_5,78,5,42,127,1073547624
91,6,23,Ticks_Phase_5,79,1,48,46,1074046164
91,6,23,Ticks_Phase_5,80,5,42,127,1074048280
91,6,23,Ticks_Phase_5,81,5,42,127,1074548200
91,6,23,Ticks_Phase_5,82,1,48,41,1074555132
91,6,23,Ticks_Phase_5,83,5,42,127,1075047812
91,6,23,Ticks_Phase_5,84,1,48,42,1075052580
91,6,23,Ticks_Phase_5,85,1,48,40,1075528968
91,6,23,Ticks_Phase_5,86,5,42,127,1075547496
91,6,23,Ticks_Phase_5,87,1,48,41,1076035924
91,6,23,Ticks_Phase_5,88,5,42,127,1076048232
91,6,23,Ticks_Phase_5,89,1,48,46,1076544884
91,6,23,Ticks_Phase_5,90,5,42,127,1076548068
91,6,23,Ticks_Phase_5,91,1,48,42,1077012576
91,6,23,Ticks_Phase_5,92,5,42,127,1077047804
91,6,23,Ticks_Phase_5,93,1,48,38,1077512784
91,6,23,Ticks_Phase_5,94,5,42,127,1077548540
91,6,23,Ticks_Phase_5,95,1,48,47,1078010084
91,6,23,Ticks_Phase_5,96,5,42,127,1078058264
91,6,23,Ticks_Phase_5,97,1,48,44,1078531116
91,6,23,Ticks_Phase_5,98,5,42,127,1078558104
91,6,23,Ticks_Phase_5,99,1,48,46,1079044132
91,6,23,Ticks_Phase_5,100,5,42,127,1079057644
91,6,23,Ticks_Phase_5,101,1,48,40,1079534376
91,6,23,Ticks_Phase_5,102,5,42,127,1079557480
91,6,23,Ticks_Phase_5,103,1,48,36,1080016256
91,6,23,Ticks_Phase_5,104,5,42,127,1080058216
91,6,23,Ticks_Phase_5,105,1,48,44,1080526876
91,6,23,Ticks_Phase_5,106,5,42,127,1080558052
91,6,23,Ticks_Phase_5,107,1,48,41,1081021616
91,6,23,Ticks_Phase_5,108,5,42,127,1081057592
91,6,23,Ticks_Phase_5,109,1,48,35,1081527748
91,6,23,Ticks_Phase_5,110,5,42,127,1081558328
91,6,23,Ticks_Phase_5,111,1,48,38,1082046156
91,6,23,Ticks_Phase_5,112,5,42,127,1082058092
91,6,23,Ticks_Phase_5,113,1,48,39,1082516792
91,6,23,Ticks_Phase_5,114,5,42,127,1082557856
91,6,23,Ticks_Phase_5,115,1,48,24,1083043352
91,6,23,Ticks_Phase_5,116,5,42,127,1083057396
91,6,23,Ticks_Phase_5,117,5,42,127,1083558212
91,6,23,Ticks_Phase_5,118,1,48,41,1083559476
91,6,23,Ticks_Phase_5,119,5,42,127,1084058124
91,6,23,Ticks_Phase_5,120,1,48,36,1084089852
91,6,23,Ticks_Phase_5,121,1,48,44,1084557060
91,6,23,Ticks_Phase_5,122,5,42,127,1084558628
91,6,23,Ticks_Phase_5,123,1,48,33,1085042404
91,6,23,Ticks_Phase_5,124,5,42,127,1085058464
91,6,23,Ticks_Phase_5,125,1,48,46,1085530492
91,6,23,Ticks_Phase_5,126,5,42,127,1085568264
91,6,23,Ticks_Phase_5,127,1,48,47,1086077660
91,6,23,Ticks_Phase_5,128,5,42,127,1086087500
91,6,23,Ticks_Phase_5,129,5,42,127,1086588316
91,6,23,Ticks_Phase_5,130,1,48,40,1086607988
91,6,23,Ticks_Phase_5,131,1,48,41,1087060112
91,6,23,Ticks_Phase_5,132,5,42,127,1087088144
91,6,23,Ticks_Phase_5,133,1,48,45,1087563836
91,6,23,Ticks_Phase_5,134,5,42,127,1087587984
91,6,23,Ticks_Phase_5,135,5,42,127,1088088428
91,6,23,Ticks_Phase_5,136,1,48,44,1088095672
91,6,23,Ticks_Phase_5,137,1,48,43,1088575412
91,6,23,Ticks_Phase_5,138,5,42,127,1088598292
91,6,23,Ticks_Phase_5,139,1,48,36,1089087696
91,6,23,Ticks_Phase_5,140,5,42,127,1089097980
91,6,23,Ticks_Phase_5,141,1,48,38,1089573344
91,6,23,Ticks_Phase_5,142,5,42,127,1089598040
91,6,23,Ticks_Phase_5,143,1,48,46,1090049968
91,6,23,Ticks_Phase_5,144,5,42,127,1090097480
91,6,23,Ticks_Phase_5,145,1,48,45,1090548912
91,6,23,Ticks_Phase_5,146,5,42,127,1090598216
91,6,23,Ticks_Phase_5,147,1,48,44,1091029424
91,6,23,Ticks_Phase_5,148,5,42,127,1091098200
91,6,23,Ticks_Phase_5,149,1,48,42,1091543856
91,6,23,Ticks_Phase_5,150,5,42,127,1091598108
91,6,23,Ticks_Phase_5,151,1,48,46,1092041304
91,6,23,Ticks_Phase_5,152,5,42,127,1092098400
91,6,23,Ticks_Phase_5,153,1,48,34,1092566464
91,6,23,Ticks_Phase_5,154,5,42,127,1092608272
91,6,23,Ticks_Phase_5,155,1,48,42,1093083736
91,6,23,Ticks_Phase_5,156,5,42,127,1093108036
91,6,23,Ticks_Phase_5,157,1,48,46,1093579164
91,6,23,Ticks_Phase_5,158,5,42,127,1093608024
91,6,23,Ticks_Phase_5,159,1,48,42,1094082144
91,6,23,Ticks_Phase_5,160,5,42,127,1094107416
91,6,23,Ticks_Phase_5,161,1,48,40,1094562960
91,6,23,Ticks_Phase_5,162,5,42,127,1094588004
91,6,23,Ticks_Phase_5,163,1,48,48,1095070144
91,6,23,Ticks_Phase_5,164,5,42,127,1095087396
91,6,23,Ticks_Phase_5,165,1,48,45,1095574840
91,6,23,Ticks_Phase_5,166,5,42,127,1095588204
91,6,23,Ticks_Phase_5,167,1,48,36,1096081720
91,6,23,Ticks_Phase_5,168,5,42,127,1096088044
91,6,23,Ticks_Phase_5,169,1,48,46,1096558648
91,6,23,Ticks_Phase_5,170,5,42,127,1096587656
91,6,23,Ticks_Phase_5,171,1,48,33,1097084908
91,6,23,Ticks_Phase_5,172,5,42,127,1097088392
91,6,23,Ticks_Phase_5,173,1,48,47,1097566488
91,6,23,Ticks_Phase_5,174,5,42,127,1097588004
91,6,23,Ticks_Phase_5,175,1,48,47,1098034460
91,6,23,Ticks_Phase_5,176,5,42,127,1098087844
91,6,23,Ticks_Phase_5,177,1,48,47,1098562784
91,6,23,Ticks_Phase_5,178,5,42,127,1098587532
91,6,23,Ticks_Phase_5,179,1,48,35,1099068844
91,6,23,Ticks_Phase_5,180,5,42,127,1099088196
91,6,23,Ticks_Phase_5,181,1,48,40,1099547464
91,6,23,Ticks_Phase_5,182,5,42,127,1099587956
91,6,23,Ticks_Phase_5,183,1,48,41,1100050892
91,6,23,Ticks_Phase_5,184,5,42,127,1100087840
91,6,23,Ticks_Phase_5,185,1,48,40,1100546516
91,6,23,Ticks_Phase_5,186,5,42,127,1100588328
91,6,23,Ticks_Phase_5,187,1,48,32,1101040880
91,6,23,Ticks_Phase_5,188,5,42,127,1101088164
91,6,23,Ticks_Phase_5,189,1,48,45,1101530832
91,6,23,Ticks_Phase_5,190,5,42,127,1101587928
91,6,23,Ticks_Phase_5,191,1,48,47,1102035456
91,6,23,Ticks_Phase_5,192,5,42,127,1102087468
91,6,23,Ticks_Phase_5,193,5,42,127,1102538040
91,6,23,Ticks_Phase_5,194,1,48,41,1102551192
91,6,23,Ticks_Phase_5,195,1,48,48,1103026236
91,6,23,Ticks_Phase_5,196,5,42,127,1103037796
91,6,23,Ticks_Phase_5,197,1,48,37,1103502404
91,6,23,Ticks_Phase_5,198,5,42,127,1103537704
91,6,23,Ticks_Phase_5,199,1,48,43,1103997304
91,6,23,Ticks_Phase_5,200,5,42,127,1104038144
91,6,23,Ticks_Phase_5,201,1,48,46,1104485908
91,6,23,Ticks_Phase_5,202,5,42,127,1104537904
91,6,23,Ticks_Phase_5,203,1,48,44,1104991284
91,6,23,Ticks_Phase_5,204,5,42,127,1105037816
91,6,23,Ticks_Phase_5,205,1,48,41,1105466412
91,6,23,Ticks_Phase_5,206,5,42,127,1105538628
91,6,23,Ticks_Phase_5,207,1,48,36,1105979948
91,6,23,Ticks_Phase_5,208,5,42,127,1106048500
91,6,23,Ticks_Phase_5,209,1,48,48,1106486204
91,6,23,Ticks_Phase_5,210,5,42,127,1106548040
91,6,23,Ticks_Phase_5,211,1,48,42,1107038036
91,6,23,Ticks_Phase_5,212,5,42,127,1107047800
91,6,23,Ticks_Phase_5,213,1,48,43,1107534420
91,6,23,Ticks_Phase_5,214,5,42,127,1107547712
91,6,23,Ticks_Phase_5,215,1,48,43,1108031120
91,6,23,Ticks_Phase_5,216,5,42,127,1108048300
91,6,23,Ticks_Phase_5,217,1,48,43,1108517984
91,6,23,Ticks_Phase_5,218,5,42,127,1108547988
91,6,23,Ticks_Phase_5,219,1,48,48,1108991972
91,6,23,Ticks_Phase_5,220,5,42,127,1109047948
91,6,23,Ticks_Phase_5,221,1,48,45,1109488148
91,6,23,Ticks_Phase_5,222,5,42,127,1109548532
91,6,23,Ticks_Phase_5,223,1,48,45,1110000112
91,6,23,Ticks_Phase_5,224,5,42,127,1110048148
91,6,23,Ticks_Phase_5,225,1,48,38,1110514100
91,6,23,Ticks_Phase_5,226,5,42,127,1110547836
91,6,23,Ticks_Phase_5,227,1,48,30,1111014612
91,6,23,Ticks_Phase_5,228,5,42,127,1111097724
91,6,23,Ticks_Phase_5,229,1,48,47,1111535564
91,6,23,Ticks_Phase_5,230,5,42,127,1111597536
91,6,23,Ticks_Phase_5,231,1,48,42,1112047472
91,6,23,Ticks_Phase_5,232,5,42,127,1112098124
91,6,23,Ticks_Phase_5,233,1,48,43,1112556672
91,6,23,Ticks_Phase_5,234,5,42,127,1112597808
91,6,23,Ticks_Phase_5,235,1,48,42,1113063236
91,6,23,Ticks_Phase_5,236,5,42,127,1113097572
91,6,23,Ticks_Phase_5,237,1,48,41,1113571016
91,6,23,Ticks_Phase_5,238,5,42,127,1113598532
91,6,23,Ticks_Phase_5,239,1,48,42,1114073476
91,6,23,Ticks_Phase_5,240,5,42,127,1114097996
91,6,23,Ticks_Phase_5,241,1,48,43,1114555160
91,6,23,Ticks_Phase_5,242,5,42,127,1114597736
91,6,23,Ticks_Phase_5,243,1,48,44,1115079800
91,6,23,Ticks_Phase_5,244,5,42,127,1115097576
91,6,23,Ticks_Phase_5,245,1,48,48,1115584792
91,6,23,Ticks_Phase_5,246,5,42,127,1115598308
91,6,23,Ticks_Phase_5,247,1,48,47,1116097328
91,6,23,Ticks_Phase_5,248,5,42,127,1116098896
91,6,23,Ticks_Phase_5,249,1,48,43,1116571000
91,6,23,Ticks_Phase_5,250,5,42,127,1116598136
91,6,23,Ticks_Phase_5,251,1,48,34,1117064316
91,6,23,Ticks_Phase_5,252,5,42,127,1117098648
91,6,23,Ticks_Phase_5,253,1,48,45,1117560044
91,6,23,Ticks_Phase_5,254,5,42,127,1117598040
91,6,23,Ticks_Phase_5,255,1,48,31,1118071556
91,6,23,Ticks_Phase_5,256,5,42,127,1118097804
91,6,23,Ticks_Phase_5,257,1,48,47,1118555680
91,6,23,Ticks_Phase_5,258,5,42,127,1118597568
91,6,23,Ticks_Phase_5,259,1,48,41,1119068024
91,6,23,Ticks_Phase_5,260,5,42,127,1119098232
91,6,23,Ticks_Phase_5,261,1,48,42,1119568088
91,6,23,Ticks_Phase_5,262,5,42,127,1119698400
91,6,23,Ticks_Phase_5,263,1,48,40,1120119972
91,6,23,Ticks_Phase_5,264,5,42,127,1120198032
91,6,23,Ticks_Phase_5,265,1,48,44,1120679788
91,6,23,Ticks_Phase_5,266,5,42,127,1120697644
91,6,23,Ticks_Phase_5,267,5,42,127,1121197712
91,6,23,Ticks_Phase_5,268,1,48,44,1121202024
91,6,23,Ticks_Phase_5,269,5,42,127,1121698148
91,6,23,Ticks_Phase_5,270,1,48,46,1121704928
91,6,23,Ticks_Phase_5,271,5,42,127,1122197912
91,6,23,Ticks_Phase_5,272,1,48,40,1122218628
91,6,23,Ticks_Phase_5,273,1,48,46,1122683476
91,6,23,Ticks_Phase_5,274,5,42,127,1122697592
91,6,23,Ticks_Phase_5,275,1,48,41,1123186468
91,6,23,Ticks_Phase_5,276,5,42,127,1123198400
91,6,23,Ticks_Phase_5,277,1,48,43,1123667508
91,6,23,Ticks_Phase_5,278,5,42,127,1123698016
91,6,23,Ticks_Phase_5,279,1,48,45,1124165236
91,6,23,Ticks_Phase_5,280,5,42,127,1124197852
91,6,23,Ticks_Phase_5,281,1,48,40,1124673464
91,6,23,Ticks_Phase_5,282,5,42,127,1124697616
91,6,23,Ticks_Phase_5,283,1,48,47,1125154328
91,6,23,Ticks_Phase_5,284,5,42,127,1125198052
91,6,23,Ticks_Phase_5,285,1,48,43,1125669452
91,6,23,Ticks_Phase_5,286,5,42,127,1125697812
91,6,23,Ticks_Phase_5,287,1,48,42,1126161720
91,6,23,Ticks_Phase_5,288,5,42,127,1126197552
91,6,23,Ticks_Phase_5,289,1,48,41,1126656476
91,6,23,Ticks_Phase_5,290,5,42,127,1126698508
91,6,23,Ticks_Phase_5,291,1,48,29,1127180044
91,6,23,Ticks_Phase_5,292,5,42,127,1127198200
91,6,23,Ticks_Phase_5,293,1,48,43,1127673288
91,6,23,Ticks_Phase_5,294,5,42,127,1127697736
91,6,23,Ticks_Phase_5,295,1,48,41,1128175980
91,6,23,Ticks_Phase_5,296,5,42,127,1128197428
91,6,23,Ticks_Phase_5,297,1,48,46,1128635216
91,6,23,Ticks_Phase_5,298,5,42,127,1128698312
91,6,23,Ticks_Phase_5,299,5,42,127,1129097584
91,6,23,Ticks_Phase_5,300,1,48,47,1129166604
91,6,23,Ticks_Phase_5,301,5,42,127,1129598396
91,6,23,Ticks_Phase_5,302,1,48,37,1129606760
91,6,23,Ticks_Phase_5,303,1,48,45,1130060452
91,6,23,Ticks_Phase_5,304,5,42,127,1130097928
91,6,23,Ticks_Phase_5,305,1,48,47,1130546864
91,6,23,Ticks_Phase_5,306,5,42,127,1130597688
91,6,23,Ticks_Phase_5,307,1,48,40,1131049096
91,6,23,Ticks_Phase_5,308,5,42,127,1131097676
91,6,23,Ticks_Phase_5,309,1,48,44,1131539496
91,6,23,Ticks_Phase_5,310,5,42,127,1131598332
91,6,23,Ticks_Phase_5,311,1,48,47,1132046528
91,6,23,Ticks_Phase_5,312,5,42,127,1132098024
91,6,23,Ticks_Phase_5,313,1,48,43,1132558116
91,6,23,Ticks_Phase_5,314,5,42,127,1132597612
91,6,23,Ticks_Phase_5,315,1,48,32,1133091952
91,6,23,Ticks_Phase_5,316,5,42,127,1133098348
91,6,23,Ticks_Phase_5,317,1,48,43,1133589844
91,6,23,Ticks_Phase_5,318,5,42,127,1133598036
91,6,23,Ticks_Phase_5,319,5,42,127,1134097804
91,6,23,Ticks_Phase_5,320,1,48,40,1134106392
91,6,23,Ticks_Phase_5,321,1,48,40,1134571240
91,6,23,Ticks_Phase_5,322,5,42,127,1134597560
91,6,23,Ticks_Phase_5,323,1,48,42,1135063516
91,6,23,Ticks_Phase_5,324,5,42,127,1135098372
91,6,23,Ticks_Phase_5,325,1,48,27,1135583720
91,6,23,Ticks_Phase_5,326,5,42,127,1135597908
91,6,23,Ticks_Phase_5,327,1,48,42,1136058252
91,6,23,Ticks_Phase_5,328,5,42,127,1136097672
91,6,23,Ticks_Phase_5,329,1,48,24,1136591936
91,6,23,Ticks_Phase_5,330,5,42,127,1136598332
91,6,23,Ticks_Phase_5,331,1,48,45,1137072376
91,6,23,Ticks_Phase_5,332,5,42,127,1137098244
91,6,23,Ticks_Phase_5,333,1,48,49,1137565692
91,6,23,Ticks_Phase_5,334,5,42,127,1137597784
91,6,23,Ticks_Phase_5,335,1,48,41,1138069284
91,6,23,Ticks_Phase_5,336,5,42,127,1138097472
91,6,23,Ticks_Phase_5,337,1,48,43,1138555632
91,6,23,Ticks_Phase_5,338,5,42,127,1138598356
91,6,23,Ticks_Phase_5,0,9999,9999,9999,1054036052
91,6,23,Ticks_Phase_5,1,9999,9999,9999,1054535760
91,6,23,Ticks_Phase_5,2,9999,9999,9999,1055035524
91,6,23,Ticks_Phase_5,3,9999,9999,9999,1055535180
91,6,23,Ticks_Phase_5,4,9999,9999,9999,1056035916
91,6,23,Ticks_Phase_5,5,9999,9999,9999,1056535676
91,6,23,Ticks_Phase_5,6,9999,9999,9999,1057035368
91,6,23,Ticks_Phase_5,7,9999,9999,9999,1057536104
91,6,23,Ticks_Phase_5,8,9999,9999,9999,1058046048
91,6,23,Ticks_Phase_5,9,9999,9999,9999,1058545744
91,6,23,Ticks_Phase_5,10,9999,9999,9999,1059045432
91,6,23,Ticks_Phase_5,11,9999,9999,9999,1059545192
91,6,23,Ticks_Phase_5,12,9999,9999,9999,1060045928
91,6,23,Ticks_Phase_5,13,9999,9999,9999,1060545608
91,6,23,Ticks_Phase_5,14,9999,9999,9999,1061045304
91,6,23,Ticks_Phase_5,15,9999,9999,9999,1061546108
91,6,23,Ticks_Phase_5,16,9999,9999,9999,1062045804
91,6,23,Ticks_Phase_5,17,9999,9999,9999,1062545492
91,6,23,Ticks_Phase_5,18,9999,9999,9999,1063045176
91,6,23,Ticks_Phase_5,19,9999,9999,9999,1063545908
91,6,23,Ticks_Phase_5,20,9999,9999,9999,1064045680
91,6,23,Ticks_Phase_5,21,9999,9999,9999,1064545368
91,6,23,Ticks_Phase_5,22,9999,9999,9999,1065046096
91,6,23,Ticks_Phase_5,23,9999,9999,9999,1065556044
91,6,23,Ticks_Phase_5,24,9999,9999,9999,1066055804
91,6,23,Ticks_Phase_5,25,9999,9999,9999,1066555492
91,6,23,Ticks_Phase_5,26,9999,9999,9999,1067055156
91,6,23,Ticks_Phase_5,27,9999,9999,9999,1067555896
91,6,23,Ticks_Phase_5,28,9999,9999,9999,1068055656
91,6,23,Ticks_Phase_5,29,9999,9999,9999,1068555340
91,6,23,Ticks_Phase_5,30,9999,9999,9999,1069045816
91,6,23,Ticks_Phase_5,31,9999,9999,9999,1069545580
91,6,23,Ticks_Phase_5,32,9999,9999,9999,1070045268
91,6,23,Ticks_Phase_5,33,9999,9999,9999,1070546004
91,6,23,Ticks_Phase_5,34,9999,9999,9999,1071045696
91,6,23,Ticks_Phase_5,35,9999,9999,9999,1071545456
91,6,23,Ticks_Phase_5,36,9999,9999,9999,1072045152
91,6,23,Ticks_Phase_5,37,9999,9999,9999,1072545888
91,6,23,Ticks_Phase_5,38,9999,9999,9999,1073045568
91,6,23,Ticks_Phase_5,39,9999,9999,9999,1073545332
91,6,23,Ticks_Phase_5,40,9999,9999,9999,1074046032
91,6,23,Ticks_Phase_5,41,9999,9999,9999,1074545760
91,6,23,Ticks_Phase_5,42,9999,9999,9999,1075045448
91,6,23,Ticks_Phase_5,43,9999,9999,9999,1075545204
91,6,23,Ticks_Phase_5,44,9999,9999,9999,1076045940
91,6,23,Ticks_Phase_5,45,9999,9999,9999,1076545628
91,6,23,Ticks_Phase_5,46,9999,9999,9999,1077045368
91,6,23,Ticks_Phase_5,47,9999,9999,9999,1077546104
91,6,23,Ticks_Phase_5,48,9999,9999,9999,1078056048
91,6,23,Ticks_Phase_5,49,9999,9999,9999,1078555740
91,6,23,Ticks_Phase_5,50,9999,9999,9999,1079055432
91,6,23,Ticks_Phase_5,51,9999,9999,9999,1079555192
91,6,23,Ticks_Phase_5,52,9999,9999,9999,1080055928
91,6,23,Ticks_Phase_5,53,9999,9999,9999,1080555616
91,6,23,Ticks_Phase_5,54,9999,9999,9999,1081055304
91,6,23,Ticks_Phase_5,55,9999,9999,9999,1081556040
91,6,23,Ticks_Phase_5,56,9999,9999,9999,1082055800
91,6,23,Ticks_Phase_5,57,9999,9999,9999,1082555492
91,6,23,Ticks_Phase_5,58,9999,9999,9999,1083055180
91,6,23,Ticks_Phase_5,59,9999,9999,9999,1083555920
91,6,23,Ticks_Phase_5,60,9999,9999,9999,1084055612
91,6,23,Ticks_Phase_5,61,9999,9999,9999,1084555372
91,6,23,Ticks_Phase_5,62,9999,9999,9999,1085056104
91,6,23,Ticks_Phase_5,63,9999,9999,9999,1085566048
91,6,23,Ticks_Phase_5,64,9999,9999,9999,1086085208
91,6,23,Ticks_Phase_5,65,9999,9999,9999,1086585952
91,6,23,Ticks_Phase_5,66,9999,9999,9999,1087085632
91,6,23,Ticks_Phase_5,67,9999,9999,9999,1087585396
91,6,23,Ticks_Phase_5,68,9999,9999,9999,1088086140
91,6,23,Ticks_Phase_5,69,9999,9999,9999,1088596076
91,6,23,Ticks_Phase_5,70,9999,9999,9999,1089095764
91,6,23,Ticks_Phase_5,71,9999,9999,9999,1089595452
91,6,23,Ticks_Phase_5,72,9999,9999,9999,1090095192
91,6,23,Ticks_Phase_5,73,9999,9999,9999,1090595924
91,6,23,Ticks_Phase_5,74,9999,9999,9999,1091095612
91,6,23,Ticks_Phase_5,75,9999,9999,9999,1091595376
91,6,23,Ticks_Phase_5,76,9999,9999,9999,1092096112
91,6,23,Ticks_Phase_5,77,9999,9999,9999,1092606060
91,6,23,Ticks_Phase_5,78,9999,9999,9999,1093105748
91,6,23,Ticks_Phase_5,79,9999,9999,9999,1093605436
91,6,23,Ticks_Phase_5,80,9999,9999,9999,1094105200
91,6,23,Ticks_Phase_5,81,9999,9999,9999,1094585416
91,6,23,Ticks_Phase_5,82,9999,9999,9999,1095085184
91,6,23,Ticks_Phase_5,83,9999,9999,9999,1095585916
91,6,23,Ticks_Phase_5,84,9999,9999,9999,1096085604
91,6,23,Ticks_Phase_5,85,9999,9999,9999,1096585292
91,6,23,Ticks_Phase_5,86,9999,9999,9999,1097086028
91,6,23,Ticks_Phase_5,87,9999,9999,9999,1097585792
91,6,23,Ticks_Phase_5,88,9999,9999,9999,1098085476
91,6,23,Ticks_Phase_5,89,9999,9999,9999,1098585168
91,6,23,Ticks_Phase_5,90,9999,9999,9999,1099085904
91,6,23,Ticks_Phase_5,91,9999,9999,9999,1099585592
91,6,23,Ticks_Phase_5,92,9999,9999,9999,1100085328
91,6,23,Ticks_Phase_5,93,9999,9999,9999,1100586040
91,6,23,Ticks_Phase_5,94,9999,9999,9999,1101085800
91,6,23,Ticks_Phase_5,95,9999,9999,9999,1101585492
91,6,23,Ticks_Phase_5,96,9999,9999,9999,1102085180
91,6,23,Ticks_Phase_5,97,9999,9999,9999,1102535748
91,6,23,Ticks_Phase_5,98,9999,9999,9999,1103035508
91,6,23,Ticks_Phase_5,99,9999,9999,9999,1103535192
91,6,23,Ticks_Phase_5,100,9999,9999,9999,1104035928
91,6,23,Ticks_Phase_5,101,9999,9999,9999,1104535616
91,6,23,Ticks_Phase_5,102,9999,9999,9999,1105035380
91,6,23,Ticks_Phase_5,103,9999,9999,9999,1105536116
91,6,23,Ticks_Phase_5,104,9999,9999,9999,1106046060
91,6,23,Ticks_Phase_5,105,9999,9999,9999,1106545748
91,6,23,Ticks_Phase_5,106,9999,9999,9999,1107045440
91,6,23,Ticks_Phase_5,107,9999,9999,9999,1107545200
91,6,23,Ticks_Phase_5,108,9999,9999,9999,1108045936
91,6,23,Ticks_Phase_5,109,9999,9999,9999,1108545624
91,6,23,Ticks_Phase_5,110,9999,9999,9999,1109045360
91,6,23,Ticks_Phase_5,111,9999,9999,9999,1109546096
91,6,23,Ticks_Phase_5,112,9999,9999,9999,1110045784
91,6,23,Ticks_Phase_5,113,9999,9999,9999,1110545472
91,6,23,Ticks_Phase_5,114,9999,9999,9999,1111095408
91,6,23,Ticks_Phase_5,115,9999,9999,9999,1111595100
91,6,23,Ticks_Phase_5,116,9999,9999,9999,1112095832
91,6,23,Ticks_Phase_5,117,9999,9999,9999,1112595520
91,6,23,Ticks_Phase_5,118,9999,9999,9999,1113095284
91,6,23,Ticks_Phase_5,119,9999,9999,9999,1113596020
91,6,23,Ticks_Phase_5,120,9999,9999,9999,1114095708
91,6,23,Ticks_Phase_5,121,9999,9999,9999,1114595448
91,6,23,Ticks_Phase_5,122,9999,9999,9999,1115095136
91,6,23,Ticks_Phase_5,123,9999,9999,9999,1115595872
91,6,23,Ticks_Phase_5,124,9999,9999,9999,1116095568
91,6,23,Ticks_Phase_5,125,9999,9999,9999,1116595324
91,6,23,Ticks_Phase_5,126,9999,9999,9999,1117096060
91,6,23,Ticks_Phase_5,127,9999,9999,9999,1117595752
91,6,23,Ticks_Phase_5,128,9999,9999,9999,1118095440
91,6,23,Ticks_Phase_5,129,9999,9999,9999,1118595128
91,6,23,Ticks_Phase_5,130,9999,9999,9999,1119095868
91,6,23,Ticks_Phase_5,131,9999,9999,9999,1119695964
91,6,23,Ticks_Phase_5,132,9999,9999,9999,1120195668
91,6,23,Ticks_Phase_5,133,9999,9999,9999,1120695356
91,6,23,Ticks_Phase_5,134,9999,9999,9999,1121195124
91,6,23,Ticks_Phase_5,135,9999,9999,9999,1121695860
91,6,23,Ticks_Phase_5,136,9999,9999,9999,1122195548
91,6,23,Ticks_Phase_5,137,9999,9999,9999,1122695228
91,6,23,Ticks_Phase_5,138,9999,9999,9999,1123195964
91,6,23,Ticks_Phase_5,139,9999,9999,9999,1123695724
91,6,23,Ticks_Phase_5,140,9999,9999,9999,1124195416
91,6,23,Ticks_Phase_5,141,9999,9999,9999,1124695104
91,6,23,Ticks_Phase_5,142,9999,9999,9999,1125195836
91,6,23,Ticks_Phase_5,143,9999,9999,9999,1125695600
91,6,23,Ticks_Phase_5,144,9999,9999,9999,1126195260
91,6,23,Ticks_Phase_5,145,9999,9999,9999,1126695996
91,6,23,Ticks_Phase_5,146,9999,9999,9999,1127195760
91,6,23,Ticks_Phase_5,147,9999,9999,9999,1127695448
91,6,23,Ticks_Phase_5,148,9999,9999,9999,1128195136
91,6,23,Ticks_Phase_5,149,9999,9999,9999,1128695872
91,6,23,Ticks_Phase_5,150,9999,9999,9999,1129095296
91,6,23,Ticks_Phase_5,151,9999,9999,9999,1129596032
91,6,23,Ticks_Phase_5,152,9999,9999,9999,1130095712
91,6,23,Ticks_Phase_5,153,9999,9999,9999,1130595400
91,6,23,Ticks_Phase_5,154,9999,9999,9999,1131095164
91,6,23,Ticks_Phase_5,155,9999,9999,9999,1131595896
91,6,23,Ticks_Phase_5,156,9999,9999,9999,1132095588
91,6,23,Ticks_Phase_5,157,9999,9999,9999,1132595324
91,6,23,Ticks_Phase_5,158,9999,9999,9999,1133096060
91,6,23,Ticks_Phase_5,159,9999,9999,9999,1133595748
91,6,23,Ticks_Phase_5,160,9999,9999,9999,1134095440
91,6,23,Ticks_Phase_5,161,9999,9999,9999,1134595196
91,6,23,Ticks_Phase_5,162,9999,9999,9999,1135095932
91,6,23,Ticks_Phase_5,163,9999,9999,9999,1135595620
91,6,23,Ticks_Phase_5,164,9999,9999,9999,1136095308
91,6,23,Ticks_Phase_5,165,9999,9999,9999,1136596044
91,6,23,Ticks_Phase_5,166,9999,9999,9999,1137095808
91,6,23,Ticks_Phase_5,167,9999,9999,9999,1137595496
91,6,23,Ticks_Phase_5,168,9999,9999,9999,1138095184
91,6,23,Ticks_Phase_5,169,9999,9999,9999,1138595920
91,7,9,Ticks_ISO_T2_8,0,5,42,127,1149120940
91,7,9,Ticks_ISO_T2_8,1,1,48,18,1149657644
91,7,9,Ticks_ISO_T2_8,2,5,42,127,1149920528
91,7,9,Ticks_ISO_T2_8,3,1,48,40,1150584108
91,7,9,Ticks_ISO_T2_8,4,5,42,127,1150721528
91,7,9,Ticks_ISO_T2_8,5,1,48,39,1151436952
91,7,9,Ticks_ISO_T2_8,6,5,42,127,1151521056
91,7,9,Ticks_ISO_T2_8,7,1,48,34,1152248052
91,7,9,Ticks_ISO_T2_8,8,5,42,127,1152320964
91,7,9,Ticks_ISO_T2_8,9,5,42,127,1153120628
91,7,9,Ticks_ISO_T2_8,10,1,48,34,1153124792
91,7,9,Ticks_ISO_T2_8,11,5,42,127,1153921408
91,7,9,Ticks_ISO_T2_8,12,1,48,40,1153929320
91,7,9,Ticks_ISO_T2_8,13,1,48,44,1154692604
91,7,9,Ticks_ISO_T2_8,14,5,42,127,1154721136
91,7,9,Ticks_ISO_T2_8,15,1,48,37,1155520276
91,7,9,Ticks_ISO_T2_8,16,5,42,127,1155521840
91,7,9,Ticks_ISO_T2_8,17,5,42,127,1156320760
91,7,9,Ticks_ISO_T2_8,18,1,48,39,1156331208
91,7,9,Ticks_ISO_T2_8,19,5,42,127,1157121316
91,7,9,Ticks_ISO_T2_8,20,1,48,33,1157126076
91,7,9,Ticks_ISO_T2_8,21,5,42,127,1157921124
91,7,9,Ticks_ISO_T2_8,22,1,48,40,1157925808
91,7,9,Ticks_ISO_T2_8,23,5,42,127,1158721028
91,7,9,Ticks_ISO_T2_8,24,1,48,36,1158745984
91,7,9,Ticks_ISO_T2_8,25,1,48,43,1159518492
91,7,9,Ticks_ISO_T2_8,26,5,42,127,1159520532
91,7,9,Ticks_ISO_T2_8,27,1,48,47,1160316264
91,7,9,Ticks_ISO_T2_8,28,5,42,127,1160321460
91,7,9,Ticks_ISO_T2_8,29,1,48,40,1161105676
91,7,9,Ticks_ISO_T2_8,30,5,42,127,1161121192
91,7,9,Ticks_ISO_T2_8,31,1,48,45,1161919348
91,7,9,Ticks_ISO_T2_8,32,5,42,127,1161921076
91,7,9,Ticks_ISO_T2_8,33,5,42,127,1162720744
91,7,9,Ticks_ISO_T2_8,34,1,48,41,1162739724
91,7,9,Ticks_ISO_T2_8,35,1,48,45,1163504500
91,7,9,Ticks_ISO_T2_8,36,5,42,127,1163521292
91,7,9,Ticks_ISO_T2_8,37,1,48,43,1164320204
91,7,9,Ticks_ISO_T2_8,38,5,42,127,1164321620
91,7,9,Ticks_ISO_T2_8,39,5,42,127,1165121016
91,7,9,Ticks_ISO_T2_8,40,1,48,38,1165154272
91,7,9,Ticks_ISO_T2_8,41,5,42,127,1165920824
91,7,9,Ticks_ISO_T2_8,42,1,48,44,1165930824
91,7,9,Ticks_ISO_T2_8,43,1,48,39,1166709000
91,7,9,Ticks_ISO_T2_8,44,5,42,127,1166721372
91,7,9,Ticks_ISO_T2_8,45,5,42,127,1167521112
91,7,9,Ticks_ISO_T2_8,46,1,48,42,1167530812
91,7,9,Ticks_ISO_T2_8,47,1,48,38,1168296496
91,7,9,Ticks_ISO_T2_8,48,5,42,127,1168321136
91,7,9,Ticks_ISO_T2_8,49,1,48,44,1169078880
91,7,9,Ticks_ISO_T2_8,50,5,42,127,1169120944
91,7,9,Ticks_ISO_T2_8,51,1,48,40,1169878908
91,7,9,Ticks_ISO_T2_8,52,5,42,127,1169921504
91,7,9,Ticks_ISO_T2_8,53,1,48,40,1170679688
91,7,9,Ticks_ISO_T2_8,54,5,42,127,1170721012
91,7,9,Ticks_ISO_T2_8,55,1,48,42,1171478604
91,7,9,Ticks_ISO_T2_8,56,5,42,127,1171520848
91,7,9,Ticks_ISO_T2_8,57,1,48,33,1172278660
91,7,9,Ticks_ISO_T2_8,58,5,42,127,1172320804
91,7,9,Ticks_ISO_T2_8,59,1,48,32,1173115712
91,7,9,Ticks_ISO_T2_8,60,5,42,127,1173121436
91,7,9,Ticks_ISO_T2_8,61,5,42,127,1173921248
91,7,9,Ticks_ISO_T2_8,62,1,48,33,1173939028
91,7,9,Ticks_ISO_T2_8,63,1,48,42,1174683392
91,7,9,Ticks_ISO_T2_8,64,5,42,127,1174720976
91,7,9,Ticks_ISO_T2_8,65,1,48,50,1175501600
91,7,9,Ticks_ISO_T2_8,66,5,42,127,1175520708
91,7,9,Ticks_ISO_T2_8,67,1,48,38,1176297672
91,7,9,Ticks_ISO_T2_8,68,5,42,127,1176321268
91,7,9,Ticks_ISO_T2_8,69,1,48,40,1177117976
91,7,9,Ticks_ISO_T2_8,70,5,42,127,1177121220
91,7,9,Ticks_ISO_T2_8,71,5,42,127,1177920912
91,7,9,Ticks_ISO_T2_8,72,1,48,35,1177939888
91,7,9,Ticks_ISO_T2_8,73,1,48,35,1178669792
91,7,9,Ticks_ISO_T2_8,74,5,42,127,1178720640
91,7,9,Ticks_ISO_T2_8,75,1,48,39,1179430628
91,7,9,Ticks_ISO_T2_8,76,5,42,127,1179521492
91,7,9,Ticks_ISO_T2_8,77,1,48,35,1180257164
91,7,9,Ticks_ISO_T2_8,78,5,42,127,1180321076
91,7,9,Ticks_ISO_T2_8,79,1,48,40,1181052936
91,7,9,Ticks_ISO_T2_8,80,5,42,127,1181120808
91,7,9,Ticks_ISO_T2_8,81,1,48,42,1181874212
91,7,9,Ticks_ISO_T2_8,82,5,42,127,1181920692
91,7,9,Ticks_ISO_T2_8,83,1,48,43,1182644920
91,7,9,Ticks_ISO_T2_8,84,5,42,127,1182721472
91,7,9,Ticks_ISO_T2_8,85,1,48,36,1183467624
91,7,9,Ticks_ISO_T2_8,86,5,42,127,1183521060
91,7,9,Ticks_ISO_T2_8,87,1,48,35,1184275424
91,7,9,Ticks_ISO_T2_8,88,5,42,127,1184320816
91,7,9,Ticks_ISO_T2_8,89,1,48,36,1185053468
91,7,9,Ticks_ISO_T2_8,90,5,42,127,1185120772
91,7,9,Ticks_ISO_T2_8,91,1,48,38,1185858620
91,7,9,Ticks_ISO_T2_8,92,5,42,127,1185921328
91,7,9,Ticks_ISO_T2_8,93,1,48,35,1186668444
91,7,9,Ticks_ISO_T2_8,94,5,42,127,1186721284
91,7,9,Ticks_ISO_T2_8,95,1,48,42,1187473492
91,7,9,Ticks_ISO_T2_8,96,5,42,127,1187520872
91,7,9,Ticks_ISO_T2_8,97,1,48,40,1188279584
91,7,9,Ticks_ISO_T2_8,98,5,42,127,1188320532
91,7,9,Ticks_ISO_T2_8,99,1,48,44,1189075644
91,7,9,Ticks_ISO_T2_8,100,5,42,127,1189121680
91,7,9,Ticks_ISO_T2_8,101,1,48,38,1189877624
91,7,9,Ticks_ISO_T2_8,102,5,42,127,1189921044
91,7,9,Ticks_ISO_T2_8,103,1,48,35,1190670628
91,7,9,Ticks_ISO_T2_8,104,5,42,127,1190720872
91,7,9,Ticks_ISO_T2_8,105,1,48,33,1191455548
91,7,9,Ticks_ISO_T2_8,106,5,42,127,1191520684
91,7,9,Ticks_ISO_T2_8,107,1,48,38,1192298316
91,7,9,Ticks_ISO_T2_8,108,5,42,127,1192321464
91,7,9,Ticks_ISO_T2_8,109,1,48,29,1193091912
91,7,9,Ticks_ISO_T2_8,110,5,42,127,1193121120
91,7,9,Ticks_ISO_T2_8,111,1,48,36,1193882300
91,7,9,Ticks_ISO_T2_8,112,5,42,127,1193920856
91,7,9,Ticks_ISO_T2_8,113,1,48,37,1194702452
91,7,9,Ticks_ISO_T2_8,114,5,42,127,1194720664
91,7,9,Ticks_ISO_T2_8,115,1,48,30,1195506372
91,7,9,Ticks_ISO_T2_8,116,5,42,127,1195521520
91,7,9,Ticks_ISO_T2_8,117,1,48,43,1196291748
91,7,9,Ticks_ISO_T2_8,118,5,42,127,1196321476
91,7,9,Ticks_ISO_T2_8,119,1,48,39,1197096936
91,7,9,Ticks_ISO_T2_8,120,5,42,127,1197120860
91,7,9,Ticks_ISO_T2_8,121,1,48,40,1197877628
91,7,9,Ticks_ISO_T2_8,122,5,42,127,1197920592
91,7,9,Ticks_ISO_T2_8,123,1,48,37,1198674664
91,7,9,Ticks_ISO_T2_8,124,5,42,127,1198721524
91,7,9,Ticks_ISO_T2_8,125,1,48,36,1199498488
91,7,9,Ticks_ISO_T2_8,126,5,42,127,1199521036
91,7,9,Ticks_ISO_T2_8,127,1,48,37,1200300688
91,7,9,Ticks_ISO_T2_8,128,5,42,127,1200320844
91,7,9,Ticks_ISO_T2_8,129,1,48,35,1201108428
91,7,9,Ticks_ISO_T2_8,130,5,42,127,1201120724
91,7,9,Ticks_ISO_T2_8,131,1,48,44,1201865668
91,7,9,Ticks_ISO_T2_8,132,5,42,127,1201921356
91,7,9,Ticks_ISO_T2_8,133,1,48,40,1202690540
91,7,9,Ticks_ISO_T2_8,134,5,42,127,1202721088
91,7,9,Ticks_ISO_T2_8,135,1,48,38,1203502240
91,7,9,Ticks_ISO_T2_8,136,5,42,127,1203520996
91,7,9,Ticks_ISO_T2_8,137,5,42,127,1204320588
91,7,9,Ticks_ISO_T2_8,138,1,48,39,1204321928
91,7,9,Ticks_ISO_T2_8,139,1,48,42,1205109508
91,7,9,Ticks_ISO_T2_8,140,5,42,127,1205121360
91,7,9,Ticks_ISO_T2_8,141,1,48,29,1205912160
91,7,9,Ticks_ISO_T2_8,142,5,42,127,1205921168
91,7,9,Ticks_ISO_T2_8,143,1,48,45,1206701944
91,7,9,Ticks_ISO_T2_8,144,5,42,127,1206720828
91,7,9,Ticks_ISO_T2_8,145,5,42,127,1207520568
91,7,9,Ticks_ISO_T2_8,146,1,48,46,1207536472
91,7,9,Ticks_ISO_T2_8,147,1,48,44,1208290420
91,7,9,Ticks_ISO_T2_8,148,5,42,127,1208321492
91,7,9,Ticks_ISO_T2_8,149,1,48,37,1209063296
91,7,9,Ticks_ISO_T2_8,150,5,42,127,1209121224
91,7,9,Ticks_ISO_T2_8,151,1,48,43,1209877548
91,7,9,Ticks_ISO_T2_8,152,5,42,127,1209921132
91,7,9,Ticks_ISO_T2_8,153,1,48,33,1210696372
91,7,9,Ticks_ISO_T2_8,154,5,42,127,1210720716
91,7,9,Ticks_ISO_T2_8,155,1,48,40,1211503064
91,7,9,Ticks_ISO_T2_8,156,5,42,127,1211521348
91,7,9,Ticks_ISO_T2_8,157,1,48,38,1212308032
91,7,9,Ticks_ISO_T2_8,158,5,42,127,1212321304
91,7,9,Ticks_ISO_T2_8,159,1,48,39,1213099168
91,7,9,Ticks_ISO_T2_8,160,5,42,127,1213120816
91,7,9,Ticks_ISO_T2_8,161,5,42,127,1213920632
91,7,9,Ticks_ISO_T2_8,162,1,48,47,1213931904
91,7,9,Ticks_ISO_T2_8,163,1,48,40,1214663852
91,7,9,Ticks_ISO_T2_8,164,5,42,127,1214721476
91,7,9,Ticks_ISO_T2_8,165,1,48,37,1215494476
91,7,9,Ticks_ISO_T2_8,166,5,42,127,1215521360
91,7,9,Ticks_ISO_T2_8,167,1,48,39,1216287108
91,7,9,Ticks_ISO_T2_8,168,5,42,127,1216320824
91,7,9,Ticks_ISO_T2_8,169,1,48,43,1217097632
91,7,9,Ticks_ISO_T2_8,170,5,42,127,1217120556
91,7,9,Ticks_ISO_T2_8,171,5,42,127,1217921492
91,7,9,Ticks_ISO_T2_8,172,1,48,34,1217928876
91,7,9,Ticks_ISO_T2_8,173,5,42,127,1218721300
91,7,9,Ticks_ISO_T2_8,174,1,48,41,1218728832
91,7,9,Ticks_ISO_T2_8,175,1,48,38,1219489208
91,7,9,Ticks_ISO_T2_8,176,5,42,127,1219520804
91,7,9,Ticks_ISO_T2_8,177,1,48,35,1220261560
91,7,9,Ticks_ISO_T2_8,178,5,42,127,1220320612
91,7,9,Ticks_ISO_T2_8,179,1,48,35,1221050676
91,7,9,Ticks_ISO_T2_8,180,5,42,127,1221121464
91,7,9,Ticks_ISO_T2_8,181,1,48,32,1221850032
91,7,9,Ticks_ISO_T2_8,182,5,42,127,1221921348
91,7,9,Ticks_ISO_T2_8,183,1,48,35,1222663304
91,7,9,Ticks_ISO_T2_8,184,5,42,127,1222721104
91,7,9,Ticks_ISO_T2_8,185,1,48,38,1223449424
91,7,9,Ticks_ISO_T2_8,186,5,42,127,1223520468
91,7,9,Ticks_ISO_T2_8,187,1,48,31,1224288304
91,7,9,Ticks_ISO_T2_8,188,5,42,127,1224321324
91,7,9,Ticks_ISO_T2_8,189,1,48,34,1225095440
91,7,9,Ticks_ISO_T2_8,190,5,42,127,1225121128
91,7,9,Ticks_ISO_T2_8,191,1,48,36,1225869744
91,7,9,Ticks_ISO_T2_8,192,5,42,127,1225921236
91,7,9,Ticks_ISO_T2_8,193,1,48,37,1226677028
91,7,9,Ticks_ISO_T2_8,194,5,42,127,1226720596
91,7,9,Ticks_ISO_T2_8,195,1,48,35,1227493068
91,7,9,Ticks_ISO_T2_8,196,5,42,127,1227521376
91,7,9,Ticks_ISO_T2_8,197,1,48,40,1228269768
91,7,9,Ticks_ISO_T2_8,198,5,42,127,1228321036
91,7,9,Ticks_ISO_T2_8,199,1,48,29,1229077804
91,7,9,Ticks_ISO_T2_8,200,5,42,127,1229121092
91,7,9,Ticks_ISO_T2_8,201,1,48,44,1229879204
91,7,9,Ticks_ISO_T2_8,202,5,42,127,1229920600
91,7,9,Ticks_ISO_T2_8,203,1,48,36,1230688440
91,7,9,Ticks_ISO_T2_8,204,5,42,127,1230721528
91,7,9,Ticks_ISO_T2_8,205,1,48,30,1231488100
91,7,9,Ticks_ISO_T2_8,206,5,42,127,1231521112
91,7,9,Ticks_ISO_T2_8,207,1,48,43,1232242644
91,7,9,Ticks_ISO_T2_8,208,5,42,127,1232320996
91,7,9,Ticks_ISO_T2_8,209,1,48,38,1233023980
91,7,9,Ticks_ISO_T2_8,210,5,42,127,1233120580
91,7,9,Ticks_ISO_T2_8,211,1,48,35,1233877128
91,7,9,Ticks_ISO_T2_8,212,5,42,127,1233921360
91,7,9,Ticks_ISO_T2_8,213,1,48,37,1234687476
91,7,9,Ticks_ISO_T2_8,214,5,42,127,1234721168
91,7,9,Ticks_ISO_T2_8,215,1,48,30,1235496928
91,7,9,Ticks_ISO_T2_8,216,5,42,127,1235521000
91,7,9,Ticks_ISO_T2_8,217,1,48,33,1236299160
91,7,9,Ticks_ISO_T2_8,218,5,42,127,1236320588
91,7,9,Ticks_ISO_T2_8,219,1,48,29,1237119016
91,7,9,Ticks_ISO_T2_8,220,5,42,127,1237121364
91,7,9,Ticks_ISO_T2_8,221,1,48,41,1237897880
91,7,9,Ticks_ISO_T2_8,222,5,42,127,1237921100
91,7,9,Ticks_ISO_T2_8,223,1,48,37,1238710404
91,7,9,Ticks_ISO_T2_8,224,5,42,127,1238720980
91,7,9,Ticks_ISO_T2_8,225,1,48,39,1239498992
91,7,9,Ticks_ISO_T2_8,226,5,42,127,1239520712
91,7,9,Ticks_ISO_T2_8,227,1,48,40,1240289596
91,7,9,Ticks_ISO_T2_8,228,5,42,127,1240321272
91,7,9,Ticks_ISO_T2_8,229,1,48,36,1241117080
91,7,9,Ticks_ISO_T2_8,230,5,42,127,1241121076
91,7,9,Ticks_ISO_T2_8,231,1,48,33,1241908760
91,7,9,Ticks_ISO_T2_8,232,5,42,127,1241920760
91,7,9,Ticks_ISO_T2_8,233,1,48,38,1242717020
91,7,9,Ticks_ISO_T2_8,234,5,42,127,1242720644
91,7,9,Ticks_ISO_T2_8,235,5,42,127,1243521356
91,7,9,Ticks_ISO_T2_8,236,1,48,37,1243548788
91,7,9,Ticks_ISO_T2_8,237,1,48,39,1244289188
91,7,9,Ticks_ISO_T2_8,238,5,42,127,1244321232
91,7,9,Ticks_ISO_T2_8,239,1,48,36,1245101412
91,7,9,Ticks_ISO_T2_8,0,9999,9999,9999,1149118580
91,7,9,Ticks_ISO_T2_8,1,9999,9999,9999,1149918312
91,7,9,Ticks_ISO_T2_8,2,9999,9999,9999,1150719092
91,7,9,Ticks_ISO_T2_8,3,9999,9999,9999,1151518768
91,7,9,Ticks_ISO_T2_8,4,9999,9999,9999,1152318524
91,7,9,Ticks_ISO_T2_8,5,9999,9999,9999,1153118264
91,7,9,Ticks_ISO_T2_8,6,9999,9999,9999,1153919048
91,7,9,Ticks_ISO_T2_8,7,9999,9999,9999,1154718772
91,7,9,Ticks_ISO_T2_8,8,9999,9999,9999,1155518512
91,7,9,Ticks_ISO_T2_8,9,9999,9999,9999,1156318320
91,7,9,Ticks_ISO_T2_8,10,9999,9999,9999,1157119028
91,7,9,Ticks_ISO_T2_8,11,9999,9999,9999,1157918836
91,7,9,Ticks_ISO_T2_8,12,9999,9999,9999,1158718516
91,7,9,Ticks_ISO_T2_8,13,9999,9999,9999,1159518280
91,7,9,Ticks_ISO_T2_8,14,9999,9999,9999,1160319024
91,7,9,Ticks_ISO_T2_8,15,9999,9999,9999,1161118832
91,7,9,Ticks_ISO_T2_8,16,9999,9999,9999,1161918572
91,7,9,Ticks_ISO_T2_8,17,9999,9999,9999,1162718304
91,7,9,Ticks_ISO_T2_8,18,9999,9999,9999,1163519080
91,7,9,Ticks_ISO_T2_8,19,9999,9999,9999,1164318820
91,7,9,Ticks_ISO_T2_8,20,9999,9999,9999,1165118576
91,7,9,Ticks_ISO_T2_8,21,9999,9999,9999,1165918312
91,7,9,Ticks_ISO_T2_8,22,9999,9999,9999,1166719084
91,7,9,Ticks_ISO_T2_8,23,9999,9999,9999,1167518824
91,7,9,Ticks_ISO_T2_8,24,9999,9999,9999,1168318552
91,7,9,Ticks_ISO_T2_8,25,9999,9999,9999,1169118288
91,7,9,Ticks_ISO_T2_8,26,9999,9999,9999,1169919068
91,7,9,Ticks_ISO_T2_8,27,9999,9999,9999,1170718800
91,7,9,Ticks_ISO_T2_8,28,9999,9999,9999,1171518560
91,7,9,Ticks_ISO_T2_8,29,9999,9999,9999,1172318292
91,7,9,Ticks_ISO_T2_8,30,9999,9999,9999,1173119072
91,7,9,Ticks_ISO_T2_8,31,9999,9999,9999,1173918812
91,7,9,Ticks_ISO_T2_8,32,9999,9999,9999,1174718540
91,7,9,Ticks_ISO_T2_8,33,9999,9999,9999,1175518272
91,7,9,Ticks_ISO_T2_8,34,9999,9999,9999,1176319052
91,7,9,Ticks_ISO_T2_8,35,9999,9999,9999,1177118784
91,7,9,Ticks_ISO_T2_8,36,9999,9999,9999,1177918552
91,7,9,Ticks_ISO_T2_8,37,9999,9999,9999,1178718276
91,7,9,Ticks_ISO_T2_8,38,9999,9999,9999,1179519056
91,7,9,Ticks_ISO_T2_8,39,9999,9999,9999,1180318788
91,7,9,Ticks_ISO_T2_8,40,9999,9999,9999,1181118520
91,7,9,Ticks_ISO_T2_8,41,9999,9999,9999,1181918256
91,7,9,Ticks_ISO_T2_8,42,9999,9999,9999,1182719036
91,7,9,Ticks_ISO_T2_8,43,9999,9999,9999,1183518772
91,7,9,Ticks_ISO_T2_8,44,9999,9999,9999,1184318528
91,7,9,Ticks_ISO_T2_8,45,9999,9999,9999,1185118260
91,7,9,Ticks_ISO_T2_8,46,9999,9999,9999,1185919040
91,7,9,Ticks_ISO_T2_8,47,9999,9999,9999,1186718776
91,7,9,Ticks_ISO_T2_8,48,9999,9999,9999,1187518584
91,7,9,Ticks_ISO_T2_8,49,9999,9999,9999,1188318316
91,7,9,Ticks_ISO_T2_8,50,9999,9999,9999,1189119096
91,7,9,Ticks_ISO_T2_8,51,9999,9999,9999,1189918828
91,7,9,Ticks_ISO_T2_8,52,9999,9999,9999,1190718512
91,7,9,Ticks_ISO_T2_8,53,9999,9999,9999,1191518320
91,7,9,Ticks_ISO_T2_8,54,9999,9999,9999,1192319024
91,7,9,Ticks_ISO_T2_8,55,9999,9999,9999,1193118832
91,7,9,Ticks_ISO_T2_8,56,9999,9999,9999,1193918568
91,7,9,Ticks_ISO_T2_8,57,9999,9999,9999,1194718300
91,7,9,Ticks_ISO_T2_8,58,9999,9999,9999,1195519080
91,7,9,Ticks_ISO_T2_8,59,9999,9999,9999,1196318812
91,7,9,Ticks_ISO_T2_8,60,9999,9999,9999,1197118572
91,7,9,Ticks_ISO_T2_8,61,9999,9999,9999,1197918308
91,7,9,Ticks_ISO_T2_8,62,9999,9999,9999,1198719084
91,7,9,Ticks_ISO_T2_8,63,9999,9999,9999,1199518820
91,7,9,Ticks_ISO_T2_8,64,9999,9999,9999,1200318556
91,7,9,Ticks_ISO_T2_8,65,9999,9999,9999,1201118288
91,7,9,Ticks_ISO_T2_8,66,9999,9999,9999,1201919068
91,7,9,Ticks_ISO_T2_8,67,9999,9999,9999,1202718800
91,7,9,Ticks_ISO_T2_8,68,9999,9999,9999,1203518560
91,7,9,Ticks_ISO_T2_8,69,9999,9999,9999,1204318300
91,7,9,Ticks_ISO_T2_8,70,9999,9999,9999,1205119072
91,7,9,Ticks_ISO_T2_8,71,9999,9999,9999,1205918808
91,7,9,Ticks_ISO_T2_8,72,9999,9999,9999,1206718540
91,7,9,Ticks_ISO_T2_8,73,9999,9999,9999,1207518280
91,7,9,Ticks_ISO_T2_8,74,9999,9999,9999,1208319052
91,7,9,Ticks_ISO_T2_8,75,9999,9999,9999,1209118788
91,7,9,Ticks_ISO_T2_8,76,9999,9999,9999,1209918548
91,7,9,Ticks_ISO_T2_8,77,9999,9999,9999,1210718280
91,7,9,Ticks_ISO_T2_8,78,9999,9999,9999,1211519060
91,7,9,Ticks_ISO_T2_8,79,9999,9999,9999,1212318796
91,7,9,Ticks_ISO_T2_8,80,9999,9999,9999,1213118528
91,7,9,Ticks_ISO_T2_8,81,9999,9999,9999,1213918268
91,7,9,Ticks_ISO_T2_8,82,9999,9999,9999,1214719040
91,7,9,Ticks_ISO_T2_8,83,9999,9999,9999,1215518776
91,7,9,Ticks_ISO_T2_8,84,9999,9999,9999,1216318532
91,7,9,Ticks_ISO_T2_8,85,9999,9999,9999,1217118268
91,7,9,Ticks_ISO_T2_8,86,9999,9999,9999,1217919056
91,7,9,Ticks_ISO_T2_8,87,9999,9999,9999,1218718788
91,7,9,Ticks_ISO_T2_8,88,9999,9999,9999,1219518516
91,7,9,Ticks_ISO_T2_8,89,9999,9999,9999,1220318324
91,7,9,Ticks_ISO_T2_8,90,9999,9999,9999,1221119028
91,7,9,Ticks_ISO_T2_8,91,9999,9999,9999,1221918836
91,7,9,Ticks_ISO_T2_8,92,9999,9999,9999,1222718520
91,7,9,Ticks_ISO_T2_8,93,9999,9999,9999,1223518256
91,7,9,Ticks_ISO_T2_8,94,9999,9999,9999,1224319032
91,7,9,Ticks_ISO_T2_8,95,9999,9999,9999,1225118768
91,7,9,Ticks_ISO_T2_8,96,9999,9999,9999,1225918576
91,7,9,Ticks_ISO_T2_8,97,9999,9999,9999,1226718308
91,7,9,Ticks_ISO_T2_8,98,9999,9999,9999,1227519088
91,7,9,Ticks_ISO_T2_8,99,9999,9999,9999,1228318820
91,7,9,Ticks_ISO_T2_8,100,9999,9999,9999,1229118580
91,7,9,Ticks_ISO_T2_8,101,9999,9999,9999,1229918312
91,7,9,Ticks_ISO_T2_8,102,9999,9999,9999,1230719092
91,7,9,Ticks_ISO_T2_8,103,9999,9999,9999,1231518828
91,7,9,Ticks_ISO_T2_8,104,9999,9999,9999,1232318560
91,7,9,Ticks_ISO_T2_8,105,9999,9999,9999,1233118296
91,7,9,Ticks_ISO_T2_8,106,9999,9999,9999,1233919072
91,7,9,Ticks_ISO_T2_8,107,9999,9999,9999,1234718808
91,7,9,Ticks_ISO_T2_8,108,9999,9999,9999,1235518564
91,7,9,Ticks_ISO_T2_8,109,9999,9999,9999,1236318296
91,7,9,Ticks_ISO_T2_8,110,9999,9999,9999,1237119076
91,7,9,Ticks_ISO_T2_8,111,9999,9999,9999,1237918812
91,7,9,Ticks_ISO_T2_8,112,9999,9999,9999,1238718544
91,7,9,Ticks_ISO_T2_8,113,9999,9999,9999,1239518276
91,7,9,Ticks_ISO_T2_8,114,9999,9999,9999,1240319056
91,7,9,Ticks_ISO_T2_8,115,9999,9999,9999,1241118788
91,7,9,Ticks_ISO_T2_8,116,9999,9999,9999,1241918548
91,7,9,Ticks_ISO_T2_8,117,9999,9999,9999,1242718280
91,7,9,Ticks_ISO_T2_8,118,9999,9999,9999,1243519068
91,7,9,Ticks_ISO_T2_8,119,9999,9999,9999,1244318796
91,8,10,Ticks_ISO_T2_5,0,5,42,127,1254208000
91,8,10,Ticks_ISO_T2_5,1,5,42,127,1254707792
91,8,10,Ticks_ISO_T2_5,2,1,48,26,1254764840
91,8,10,Ticks_ISO_T2_5,3,5,42,127,1255208432
91,8,10,Ticks_ISO_T2_5,4,1,48,32,1255215220
91,8,10,Ticks_ISO_T2_5,5,1,48,34,1255697620
91,8,10,Ticks_ISO_T2_5,6,5,42,127,1255707900
91,8,10,Ticks_ISO_T2_5,7,1,48,40,1256206544
91,8,10,Ticks_ISO_T2_5,8,5,42,127,1256208116
91,8,10,Ticks_ISO_T2_5,9,5,42,127,1256707668
91,8,10,Ticks_ISO_T2_5,10,1,48,32,1256737340
91,8,10,Ticks_ISO_T2_5,11,5,42,127,1257208112
91,8,10,Ticks_ISO_T2_5,12,1,48,37,1257226940
91,8,10,Ticks_ISO_T2_5,13,1,48,36,1257700956
91,8,10,Ticks_ISO_T2_5,14,5,42,127,1257707876
91,8,10,Ticks_ISO_T2_5,15,1,48,35,1258205136
91,8,10,Ticks_ISO_T2_5,16,5,42,127,1258207868
91,8,10,Ticks_ISO_T2_5,17,1,48,39,1258687712
91,8,10,Ticks_ISO_T2_5,18,5,42,127,1258708536
91,8,10,Ticks_ISO_T2_5,19,1,48,38,1259180372
91,8,10,Ticks_ISO_T2_5,20,5,42,127,1259208008
91,8,10,Ticks_ISO_T2_5,21,1,48,35,1259684404
91,8,10,Ticks_ISO_T2_5,22,5,42,127,1259707700
91,8,10,Ticks_ISO_T2_5,23,5,42,127,1260207772
91,8,10,Ticks_ISO_T2_5,24,1,48,36,1260216508
91,8,10,Ticks_ISO_T2_5,25,5,42,127,1260708068
91,8,10,Ticks_ISO_T2_5,26,1,48,32,1260711708
91,8,10,Ticks_ISO_T2_5,27,5,42,127,1261207840
91,8,10,Ticks_ISO_T2_5,28,1,48,40,1261220380
91,8,10,Ticks_ISO_T2_5,29,1,48,38,1261691556
91,8,10,Ticks_ISO_T2_5,30,5,42,127,1261707748
91,8,10,Ticks_ISO_T2_5,31,1,48,37,1262175844
91,8,10,Ticks_ISO_T2_5,32,5,42,127,1262208564
91,8,10,Ticks_ISO_T2_5,33,1,48,42,1262691092
91,8,10,Ticks_ISO_T2_5,34,5,42,127,1262708036
91,8,10,Ticks_ISO_T2_5,35,1,48,38,1263196776
91,8,10,Ticks_ISO_T2_5,36,5,42,127,1263207880
91,8,10,Ticks_ISO_T2_5,37,1,48,35,1263666776
91,8,10,Ticks_ISO_T2_5,38,5,42,127,1263707724
91,8,10,Ticks_ISO_T2_5,39,1,48,33,1264204688
91,8,10,Ticks_ISO_T2_5,40,5,42,127,1264208316
91,8,10,Ticks_ISO_T2_5,41,1,48,37,1264701096
91,8,10,Ticks_ISO_T2_5,42,5,42,127,1264707936
91,8,10,Ticks_ISO_T2_5,43,1,48,36,1265199868
91,8,10,Ticks_ISO_T2_5,44,5,42,127,1265207708
91,8,10,Ticks_ISO_T2_5,45,1,48,40,1265689616
91,8,10,Ticks_ISO_T2_5,46,5,42,127,1265708496
91,8,10,Ticks_ISO_T2_5,47,1,48,39,1266182948
91,8,10,Ticks_ISO_T2_5,48,5,42,127,1266208120
91,8,10,Ticks_ISO_T2_5,49,1,48,40,1266698504
91,8,10,Ticks_ISO_T2_5,50,5,42,127,1266707812
91,8,10,Ticks_ISO_T2_5,51,1,48,37,1267197152
91,8,10,Ticks_ISO_T2_5,52,5,42,127,1267207508
91,8,10,Ticks_ISO_T2_5,53,1,48,40,1267692280
91,8,10,Ticks_ISO_T2_5,54,5,42,127,1267708396
91,8,10,Ticks_ISO_T2_5,55,1,48,37,1268208396
91,8,10,Ticks_ISO_T2_5,56,5,42,127,1268209584
91,8,10,Ticks_ISO_T2_5,57,5,42,127,1268707792
91,8,10,Ticks_ISO_T2_5,58,1,48,41,1268716220
91,8,10,Ticks_ISO_T2_5,59,1,48,40,1269180968
91,8,10,Ticks_ISO_T2_5,60,5,42,127,1269208452
91,8,10,Ticks_ISO_T2_5,61,1,48,47,1269675424
91,8,10,Ticks_ISO_T2_5,62,5,42,127,1269708072
91,8,10,Ticks_ISO_T2_5,63,1,48,42,1270183720
91,8,10,Ticks_ISO_T2_5,64,5,42,127,1270207916
91,8,10,Ticks_ISO_T2_5,65,1,48,28,1270698600
91,8,10,Ticks_ISO_T2_5,66,5,42,127,1270707536
91,8,10,Ticks_ISO_T2_5,67,5,42,127,1271208360
91,8,10,Ticks_ISO_T2_5,68,1,48,40,1271265176
91,8,10,Ticks_ISO_T2_5,69,1,48,43,1271699260
91,8,10,Ticks_ISO_T2_5,70,5,42,127,1271707972
91,8,10,Ticks_ISO_T2_5,71,1,48,46,1272182572
91,8,10,Ticks_ISO_T2_5,72,5,42,127,1272207668
91,8,10,Ticks_ISO_T2_5,73,1,48,41,1272690948
91,8,10,Ticks_ISO_T2_5,74,5,42,127,1272707364
91,8,10,Ticks_ISO_T2_5,75,1,48,42,1273181816
91,8,10,Ticks_ISO_T2_5,76,5,42,127,1273208104
91,8,10,Ticks_ISO_T2_5,77,1,48,40,1273667676
91,8,10,Ticks_ISO_T2_5,78,5,42,127,1273707800
91,8,10,Ticks_ISO_T2_5,79,1,48,41,1274177164
91,8,10,Ticks_ISO_T2_5,80,5,42,127,1274207568
91,8,10,Ticks_ISO_T2_5,81,1,48,44,1274663072
91,8,10,Ticks_ISO_T2_5,82,5,42,127,1274708532
91,8,10,Ticks_ISO_T2_5,83,1,48,36,1275183928
91,8,10,Ticks_ISO_T2_5,84,5,42,127,1275208004
91,8,10,Ticks_ISO_T2_5,85,1,48,43,1275662908
91,8,10,Ticks_ISO_T2_5,86,5,42,127,1275707696
91,8,10,Ticks_ISO_T2_5,87,1,48,34,1276166716
91,8,10,Ticks_ISO_T2_5,88,5,42,127,1276207440
91,8,10,Ticks_ISO_T2_5,89,1,48,37,1276665732
91,8,10,Ticks_ISO_T2_5,90,5,42,127,1276708404
91,8,10,Ticks_ISO_T2_5,91,1,48,40,1277171488
91,8,10,Ticks_ISO_T2_5,92,5,42,127,1277207880
91,8,10,Ticks_ISO_T2_5,93,1,48,41,1277655180
91,8,10,Ticks_ISO_T2_5,94,5,42,127,1277707572
91,8,10,Ticks_ISO_T2_5,95,1,48,40,1278164148
91,8,10,Ticks_ISO_T2_5,96,5,42,127,1278208536
91,8,10,Ticks_ISO_T2_5,97,1,48,28,1278695480
91,8,10,Ticks_ISO_T2_5,98,5,42,127,1278708156
91,8,10,Ticks_ISO_T2_5,99,1,48,45,1279206504
91,8,10,Ticks_ISO_T2_5,100,5,42,127,1279208076
91,8,10,Ticks_ISO_T2_5,101,1,48,38,1279701528
91,8,10,Ticks_ISO_T2_5,102,5,42,127,1279707476
91,8,10,Ticks_ISO_T2_5,103,1,48,41,1280172500
91,8,10,Ticks_ISO_T2_5,104,5,42,127,1280208512
91,8,10,Ticks_ISO_T2_5,105,1,48,43,1280631284
91,8,10,Ticks_ISO_T2_5,106,5,42,127,1280707912
91,8,10,Ticks_ISO_T2_5,107,1,48,37,1281160148
91,8,10,Ticks_ISO_T2_5,108,5,42,127,1281207608
91,8,10,Ticks_ISO_T2_5,109,1,48,35,1281686248
91,8,10,Ticks_ISO_T2_5,110,5,42,127,1281708500
91,8,10,Ticks_ISO_T2_5,111,1,48,44,1282163576
91,8,10,Ticks_ISO_T2_5,112,5,42,127,1282208192
91,8,10,Ticks_ISO_T2_5,113,1,48,34,1282691024
91,8,10,Ticks_ISO_T2_5,114,5,42,127,1282707740
91,8,10,Ticks_ISO_T2_5,115,1,48,35,1283197900
91,8,10,Ticks_ISO_T2_5,116,5,42,127,1283207512
91,8,10,Ticks_ISO_T2_5,117,1,48,38,1283695424
91,8,10,Ticks_ISO_T2_5,118,5,42,127,1283708552
91,8,10,Ticks_ISO_T2_5,119,1,48,39,1284179416
91,8,10,Ticks_ISO_T2_5,120,5,42,127,1284207872
91,8,10,Ticks_ISO_T2_5,121,1,48,43,1284682100
91,8,10,Ticks_ISO_T2_5,122,5,42,127,1284707716
91,8,10,Ticks_ISO_T2_5,123,1,48,39,1285172296
91,8,10,Ticks_ISO_T2_5,124,5,42,127,1285208460
91,8,10,Ticks_ISO_T2_5,125,1,48,36,1285679596
91,8,10,Ticks_ISO_T2_5,126,5,42,127,1285708448
91,8,10,Ticks_ISO_T2_5,127,1,48,41,1286167172
91,8,10,Ticks_ISO_T2_5,128,5,42,127,1286207848
91,8,10,Ticks_ISO_T2_5,129,1,48,41,1286660212
91,8,10,Ticks_ISO_T2_5,130,5,42,127,1286707612
91,8,10,Ticks_ISO_T2_5,131,1,48,38,1287159980
91,8,10,Ticks_ISO_T2_5,132,5,42,127,1287208404
91,8,10,Ticks_ISO_T2_5,133,1,48,33,1287697596
91,8,10,Ticks_ISO_T2_5,134,5,42,127,1287708172
91,8,10,Ticks_ISO_T2_5,135,1,48,44,1288195120
91,8,10,Ticks_ISO_T2_5,136,5,42,127,1288207644
91,8,10,Ticks_ISO_T2_5,137,1,48,42,1288671100
91,8,10,Ticks_ISO_T2_5,138,5,42,127,1288707488
91,8,10,Ticks_ISO_T2_5,139,1,48,41,1289177384
91,8,10,Ticks_ISO_T2_5,140,5,42,127,1289208380
91,8,10,Ticks_ISO_T2_5,141,1,48,41,1289669516
91,8,10,Ticks_ISO_T2_5,142,5,42,127,1289708000
91,8,10,Ticks_ISO_T2_5,143,1,48,39,1290175720
91,8,10,Ticks_ISO_T2_5,144,5,42,127,1290207544
91,8,10,Ticks_ISO_T2_5,145,1,48,40,1290679976
91,8,10,Ticks_ISO_T2_5,146,5,42,127,1290708360
91,8,10,Ticks_ISO_T2_5,147,1,48,40,1291187380
91,8,10,Ticks_ISO_T2_5,148,5,42,127,1291208128
91,8,10,Ticks_ISO_T2_5,149,1,48,44,1291670464
91,8,10,Ticks_ISO_T2_5,150,5,42,127,1291707900
91,8,10,Ticks_ISO_T2_5,151,1,48,35,1292194692
91,8,10,Ticks_ISO_T2_5,152,5,42,127,1292207444
91,8,10,Ticks_ISO_T2_5,153,1,48,40,1292706372
91,8,10,Ticks_ISO_T2_5,154,5,42,127,1292708112
91,8,10,Ticks_ISO_T2_5,155,1,48,41,1293190568
91,8,10,Ticks_ISO_T2_5,156,5,42,127,1293208104
91,8,10,Ticks_ISO_T2_5,157,1,48,36,1293692956
91,8,10,Ticks_ISO_T2_5,158,5,42,127,1293707576
91,8,10,Ticks_ISO_T2_5,159,1,48,43,1294178064
91,8,10,Ticks_ISO_T2_5,160,5,42,127,1294208468
91,8,10,Ticks_ISO_T2_5,161,1,48,43,1294680676
91,8,10,Ticks_ISO_T2_5,162,5,42,127,1294708012
91,8,10,Ticks_ISO_T2_5,163,1,48,40,1295154268
91,8,10,Ticks_ISO_T2_5,164,5,42,127,1295207708
91,8,10,Ticks_ISO_T2_5,165,1,48,32,1295664580
91,8,10,Ticks_ISO_T2_5,166,5,42,127,1295707476
91,8,10,Ticks_ISO_T2_5,167,1,48,44,1296161036
91,8,10,Ticks_ISO_T2_5,168,5,42,127,1296208144
91,8,10,Ticks_ISO_T2_5,169,1,48,39,1296660280
91,8,10,Ticks_ISO_T2_5,170,5,42,127,1296707988
91,8,10,Ticks_ISO_T2_5,171,1,48,43,1297166932
91,8,10,Ticks_ISO_T2_5,172,5,42,127,1297207532
91,8,10,Ticks_ISO_T2_5,173,1,48,41,1297677400
91,8,10,Ticks_ISO_T2_5,174,5,42,127,1297708396
91,8,10,Ticks_ISO_T2_5,175,1,48,43,1298188084
91,8,10,Ticks_ISO_T2_5,176,5,42,127,1298208092
91,8,10,Ticks_ISO_T2_5,177,1,48,34,1298686880
91,8,10,Ticks_ISO_T2_5,178,5,42,127,1298707788
91,8,10,Ticks_ISO_T2_5,179,1,48,35,1299192484
91,8,10,Ticks_ISO_T2_5,180,5,42,127,1299207408
91,8,10,Ticks_ISO_T2_5,181,1,48,37,1299680292
91,8,10,Ticks_ISO_T2_5,182,5,42,127,1299708224
91,8,10,Ticks_ISO_T2_5,183,1,48,34,1300199656
91,8,10,Ticks_ISO_T2_5,184,5,42,127,1300208064
91,8,10,Ticks_ISO_T2_5,185,1,48,45,1300662848
91,8,10,Ticks_ISO_T2_5,186,5,42,127,1300707764
91,8,10,Ticks_ISO_T2_5,187,1,48,38,1301154464
91,8,10,Ticks_ISO_T2_5,188,5,42,127,1301208504
91,8,10,Ticks_ISO_T2_5,189,1,48,41,1301648556
91,8,10,Ticks_ISO_T2_5,190,5,42,127,1301708124
91,8,10,Ticks_ISO_T2_5,191,1,48,40,1302153336
91,8,10,Ticks_ISO_T2_5,192,5,42,127,1302207968
91,8,10,Ticks_ISO_T2_5,193,1,48,36,1302651456
91,8,10,Ticks_ISO_T2_5,194,5,42,127,1302707516
91,8,10,Ticks_ISO_T2_5,195,1,48,42,1303162520
91,8,10,Ticks_ISO_T2_5,196,5,42,127,1303208404
91,8,10,Ticks_ISO_T2_5,197,1,48,38,1303653540
91,8,10,Ticks_ISO_T2_5,198,5,42,127,1303708100
91,8,10,Ticks_ISO_T2_5,199,1,48,32,1304176720
91,8,10,Ticks_ISO_T2_5,200,5,42,127,1304207720
91,8,10,Ticks_ISO_T2_5,201,1,48,36,1304684640
91,8,10,Ticks_ISO_T2_5,202,5,42,127,1304707416
91,8,10,Ticks_ISO_T2_5,203,1,48,34,1305180744
91,8,10,Ticks_ISO_T2_5,204,5,42,127,1305208156
91,8,10,Ticks_ISO_T2_5,205,1,48,41,1305661816
91,8,10,Ticks_ISO_T2_5,206,5,42,127,1305707924
91,8,10,Ticks_ISO_T2_5,207,1,48,31,1306180580
91,8,10,Ticks_ISO_T2_5,208,5,42,127,1306207472
91,8,10,Ticks_ISO_T2_5,209,1,48,38,1306666712
91,8,10,Ticks_ISO_T2_5,210,5,42,127,1306708432
91,8,10,Ticks_ISO_T2_5,211,1,48,38,1307149804
91,8,10,Ticks_ISO_T2_5,212,5,42,127,1307208052
91,8,10,Ticks_ISO_T2_5,213,1,48,39,1307662808
91,8,10,Ticks_ISO_T2_5,214,5,42,127,1307707748
91,8,10,Ticks_ISO_T2_5,215,1,48,36,1308178212
91,8,10,Ticks_ISO_T2_5,216,5,42,127,1308207492
91,8,10,Ticks_ISO_T2_5,217,1,48,34,1308685588
91,8,10,Ticks_ISO_T2_5,218,5,42,127,1308708136
91,8,10,Ticks_ISO_T2_5,219,1,48,29,1309178324
91,8,10,Ticks_ISO_T2_5,220,5,42,127,1309207980
91,8,10,Ticks_ISO_T2_5,221,1,48,43,1309652512
91,8,10,Ticks_ISO_T2_5,222,5,42,127,1309707672
91,8,10,Ticks_ISO_T2_5,223,1,48,38,1310162080
91,8,10,Ticks_ISO_T2_5,224,5,42,127,1310208488
91,8,10,Ticks_ISO_T2_5,225,1,48,37,1310663944
91,8,10,Ticks_ISO_T2_5,226,5,42,127,1310708036
91,8,10,Ticks_ISO_T2_5,227,1,48,33,1311151524
91,8,10,Ticks_ISO_T2_5,228,5,42,127,1311207804
91,8,10,Ticks_ISO_T2_5,229,1,48,38,1311644788
91,8,10,Ticks_ISO_T2_5,230,5,42,127,1311707352
91,8,10,Ticks_ISO_T2_5,231,1,48,38,1312190632
91,8,10,Ticks_ISO_T2_5,232,5,42,127,1312208244
91,8,10,Ticks_ISO_T2_5,233,1,48,35,1312688080
91,8,10,Ticks_ISO_T2_5,234,5,42,127,1312708012
91,8,10,Ticks_ISO_T2_5,235,1,48,38,1313204080
91,8,10,Ticks_ISO_T2_5,236,5,42,127,1313207860
91,8,10,Ticks_ISO_T2_5,237,1,48,38,1313699068
91,8,10,Ticks_ISO_T2_5,238,5,42,127,1313708452
91,8,10,Ticks_ISO_T2_5,239,1,48,28,1314195316
91,8,10,Ticks_ISO_T2_5,240,5,42,127,1314208144
91,8,10,Ticks_ISO_T2_5,241,1,48,35,1314700248
91,8,10,Ticks_ISO_T2_5,242,5,42,127,1314707764
91,8,10,Ticks_ISO_T2_5,243,1,48,40,1315181844
91,8,10,Ticks_ISO_T2_5,244,5,42,127,1315207460
91,8,10,Ticks_ISO_T2_5,245,1,48,45,1315679300
91,8,10,Ticks_ISO_T2_5,246,5,42,127,1315708128
91,8,10,Ticks_ISO_T2_5,247,1,48,36,1316187064
91,8,10,Ticks_ISO_T2_5,248,5,42,127,1316208044
91,8,10,Ticks_ISO_T2_5,249,1,48,40,1316659388
91,8,10,Ticks_ISO_T2_5,250,5,42,127,1316707888
91,8,10,Ticks_ISO_T2_5,251,1,48,39,1317164516
91,8,10,Ticks_ISO_T2_5,252,5,42,127,1317208408
91,8,10,Ticks_ISO_T2_5,253,1,48,33,1317678572
91,8,10,Ticks_ISO_T2_5,254,5,42,127,1317708100
91,8,10,Ticks_ISO_T2_5,255,1,48,37,1318167420
91,8,10,Ticks_ISO_T2_5,256,5,42,127,1318208020
91,8,10,Ticks_ISO_T2_5,257,1,48,40,1318652304
91,8,10,Ticks_ISO_T2_5,258,5,42,127,1318707788
91,8,10,Ticks_ISO_T2_5,259,1,48,35,1319162692
91,8,10,Ticks_ISO_T2_5,0,9999,9999,9999,1254205488
91,8,10,Ticks_ISO_T2_5,1,9999,9999,9999,1254705256
91,8,10,Ticks_ISO_T2_5,2,9999,9999,9999,1255205996
91,8,10,Ticks_ISO_T2_5,3,9999,9999,9999,1255705688
91,8,10,Ticks_ISO_T2_5,4,9999,9999,9999,1256205388
91,8,10,Ticks_ISO_T2_5,5,9999,9999,9999,1256705084
91,8,10,Ticks_ISO_T2_5,6,9999,9999,9999,1257205824
91,8,10,Ticks_ISO_T2_5,7,9999,9999,9999,1257705588
91,8,10,Ticks_ISO_T2_5,8,9999,9999,9999,1258205280
91,8,10,Ticks_ISO_T2_5,9,9999,9999,9999,1258706024
91,8,10,Ticks_ISO_T2_5,10,9999,9999,9999,1259205716
91,8,10,Ticks_ISO_T2_5,11,9999,9999,9999,1259705412
91,8,10,Ticks_ISO_T2_5,12,9999,9999,9999,1260205112
91,8,10,Ticks_ISO_T2_5,13,9999,9999,9999,1260705856
91,8,10,Ticks_ISO_T2_5,14,9999,9999,9999,1261205624
91,8,10,Ticks_ISO_T2_5,15,9999,9999,9999,1261705312
91,8,10,Ticks_ISO_T2_5,16,9999,9999,9999,1262206052
91,8,10,Ticks_ISO_T2_5,17,9999,9999,9999,1262705748
91,8,10,Ticks_ISO_T2_5,18,9999,9999,9999,1263205444
91,8,10,Ticks_ISO_T2_5,19,9999,9999,9999,1263705140
91,8,10,Ticks_ISO_T2_5,20,9999,9999,9999,1264205880
91,8,10,Ticks_ISO_T2_5,21,9999,9999,9999,1264705648
91,8,10,Ticks_ISO_T2_5,22,9999,9999,9999,1265205344
91,8,10,Ticks_ISO_T2_5,23,9999,9999,9999,1265706060
91,8,10,Ticks_ISO_T2_5,24,9999,9999,9999,1266205756
91,8,10,Ticks_ISO_T2_5,25,9999,9999,9999,1266705524
91,8,10,Ticks_ISO_T2_5,26,9999,9999,9999,1267205220
91,8,10,Ticks_ISO_T2_5,27,9999,9999,9999,1267705960
91,8,10,Ticks_ISO_T2_5,28,9999,9999,9999,1268205660
91,8,10,Ticks_ISO_T2_5,29,9999,9999,9999,1268705356
91,8,10,Ticks_ISO_T2_5,30,9999,9999,9999,1269206092
91,8,10,Ticks_ISO_T2_5,31,9999,9999,9999,1269705784
91,8,10,Ticks_ISO_T2_5,32,9999,9999,9999,1270205552
91,8,10,Ticks_ISO_T2_5,33,9999,9999,9999,1270705248
91,8,10,Ticks_ISO_T2_5,34,9999,9999,9999,1271205996
91,8,10,Ticks_ISO_T2_5,35,9999,9999,9999,1271705684
91,8,10,Ticks_ISO_T2_5,36,9999,9999,9999,1272205380
91,8,10,Ticks_ISO_T2_5,37,9999,9999,9999,1272705076
91,8,10,Ticks_ISO_T2_5,38,9999,9999,9999,1273205816
91,8,10,Ticks_ISO_T2_5,39,9999,9999,9999,1273705584
91,8,10,Ticks_ISO_T2_5,40,9999,9999,9999,1274205280
91,8,10,Ticks_ISO_T2_5,41,9999,9999,9999,1274706020
91,8,10,Ticks_ISO_T2_5,42,9999,9999,9999,1275205716
91,8,10,Ticks_ISO_T2_5,43,9999,9999,9999,1275705408
91,8,10,Ticks_ISO_T2_5,44,9999,9999,9999,1276205152
91,8,10,Ticks_ISO_T2_5,45,9999,9999,9999,1276705892
91,8,10,Ticks_ISO_T2_5,46,9999,9999,9999,1277205588
91,8,10,Ticks_ISO_T2_5,47,9999,9999,9999,1277705284
91,8,10,Ticks_ISO_T2_5,48,9999,9999,9999,1278206024
91,8,10,Ticks_ISO_T2_5,49,9999,9999,9999,1278705720
91,8,10,Ticks_ISO_T2_5,50,9999,9999,9999,1279205496
91,8,10,Ticks_ISO_T2_5,51,9999,9999,9999,1279705184
91,8,10,Ticks_ISO_T2_5,52,9999,9999,9999,1280205928
91,8,10,Ticks_ISO_T2_5,53,9999,9999,9999,1280705624
91,8,10,Ticks_ISO_T2_5,54,9999,9999,9999,1281205320
91,8,10,Ticks_ISO_T2_5,55,9999,9999,9999,1281706060
91,8,10,Ticks_ISO_T2_5,56,9999,9999,9999,1282205756
91,8,10,Ticks_ISO_T2_5,57,9999,9999,9999,1282705528
91,8,10,Ticks_ISO_T2_5,58,9999,9999,9999,1283205220
91,8,10,Ticks_ISO_T2_5,59,9999,9999,9999,1283705964
91,8,10,Ticks_ISO_T2_5,60,9999,9999,9999,1284205660
91,8,10,Ticks_ISO_T2_5,61,9999,9999,9999,1284705352
91,8,10,Ticks_ISO_T2_5,62,9999,9999,9999,1285206096
91,8,10,Ticks_ISO_T2_5,63,9999,9999,9999,1285705788
91,8,10,Ticks_ISO_T2_5,64,9999,9999,9999,1286205556
91,8,10,Ticks_ISO_T2_5,65,9999,9999,9999,1286705252
91,8,10,Ticks_ISO_T2_5,66,9999,9999,9999,1287205968
91,8,10,Ticks_ISO_T2_5,67,9999,9999,9999,1287705664
91,8,10,Ticks_ISO_T2_5,68,9999,9999,9999,1288205432
91,8,10,Ticks_ISO_T2_5,69,9999,9999,9999,1288705128
91,8,10,Ticks_ISO_T2_5,70,9999,9999,9999,1289205868
91,8,10,Ticks_ISO_T2_5,71,9999,9999,9999,1289705560
91,8,10,Ticks_ISO_T2_5,72,9999,9999,9999,1290205256
91,8,10,Ticks_ISO_T2_5,73,9999,9999,9999,1290705996
91,8,10,Ticks_ISO_T2_5,74,9999,9999,9999,1291205692
91,8,10,Ticks_ISO_T2_5,75,9999,9999,9999,1291705464
91,8,10,Ticks_ISO_T2_5,76,9999,9999,9999,1292205156
91,8,10,Ticks_ISO_T2_5,77,9999,9999,9999,1292705848
91,8,10,Ticks_ISO_T2_5,78,9999,9999,9999,1293205596
91,8,10,Ticks_ISO_T2_5,79,9999,9999,9999,1293705288
91,8,10,Ticks_ISO_T2_5,80,9999,9999,9999,1294206032
91,8,10,Ticks_ISO_T2_5,81,9999,9999,9999,1294705724
91,8,10,Ticks_ISO_T2_5,82,9999,9999,9999,1295205492
91,8,10,Ticks_ISO_T2_5,83,9999,9999,9999,1295705188
91,8,10,Ticks_ISO_T2_5,84,9999,9999,9999,1296205928
91,8,10,Ticks_ISO_T2_5,85,9999,9999,9999,1296705624
91,8,10,Ticks_ISO_T2_5,86,9999,9999,9999,1297205320
91,8,10,Ticks_ISO_T2_5,87,9999,9999,9999,1297706032
91,8,10,Ticks_ISO_T2_5,88,9999,9999,9999,1298205804
91,8,10,Ticks_ISO_T2_5,89,9999,9999,9999,1298705500
91,8,10,Ticks_ISO_T2_5,90,9999,9999,9999,1299205192
91,8,10,Ticks_ISO_T2_5,91,9999,9999,9999,1299705936
91,8,10,Ticks_ISO_T2_5,92,9999,9999,9999,1300205628
91,8,10,Ticks_ISO_T2_5,93,9999,9999,9999,1300705400
91,8,10,Ticks_ISO_T2_5,94,9999,9999,9999,1301206072
91,8,10,Ticks_ISO_T2_5,95,9999,9999,9999,1301705836
91,8,10,Ticks_ISO_T2_5,96,9999,9999,9999,1302205532
91,8,10,Ticks_ISO_T2_5,97,9999,9999,9999,1302705228
91,8,10,Ticks_ISO_T2_5,98,9999,9999,9999,1303205968
91,8,10,Ticks_ISO_T2_5,99,9999,9999,9999,1303705664
91,8,10,Ticks_ISO_T2_5,100,9999,9999,9999,1304205432
91,8,10,Ticks_ISO_T2_5,101,9999,9999,9999,1304705124
91,8,10,Ticks_ISO_T2_5,102,9999,9999,9999,1305205868
91,8,10,Ticks_ISO_T2_5,103,9999,9999,9999,1305705564
91,8,10,Ticks_ISO_T2_5,104,9999,9999,9999,1306205256
91,8,10,Ticks_ISO_T2_5,105,9999,9999,9999,1306705996
91,8,10,Ticks_ISO_T2_5,106,9999,9999,9999,1307205692
91,8,10,Ticks_ISO_T2_5,107,9999,9999,9999,1307705460
91,8,10,Ticks_ISO_T2_5,108,9999,9999,9999,1308205128
91,8,10,Ticks_ISO_T2_5,109,9999,9999,9999,1308705844
91,8,10,Ticks_ISO_T2_5,110,9999,9999,9999,1309205616
91,8,10,Ticks_ISO_T2_5,111,9999,9999,9999,1309705308
91,8,10,Ticks_ISO_T2_5,112,9999,9999,9999,1310206052
91,8,10,Ticks_ISO_T2_5,113,9999,9999,9999,1310705744
91,8,10,Ticks_ISO_T2_5,114,9999,9999,9999,1311205440
91,8,10,Ticks_ISO_T2_5,115,9999,9999,9999,1311705136
91,8,10,Ticks_ISO_T2_5,116,9999,9999,9999,1312205880
91,8,10,Ticks_ISO_T2_5,117,9999,9999,9999,1312705652
91,8,10,Ticks_ISO_T2_5,118,9999,9999,9999,1313205348
91,8,10,Ticks_ISO_T2_5,119,9999,9999,9999,1313706088
91,8,10,Ticks_ISO_T2_5,120,9999,9999,9999,1314205784
91,8,10,Ticks_ISO_T2_5,121,9999,9999,9999,1314705476
91,8,10,Ticks_ISO_T2_5,122,9999,9999,9999,1315205172
91,8,10,Ticks_ISO_T2_5,123,9999,9999,9999,1315705912
91,8,10,Ticks_ISO_T2_5,124,9999,9999,9999,1316205684
91,8,10,Ticks_ISO_T2_5,125,9999,9999,9999,1316705376
91,8,10,Ticks_ISO_T2_5,126,9999,9999,9999,1317206120
91,8,10,Ticks_ISO_T2_5,127,9999,9999,9999,1317705812
91,8,10,Ticks_ISO_T2_5,128,9999,9999,9999,1318205508
91,8,10,Ticks_ISO_T2_5,129,9999,9999,9999,1318705204
91,9,20,Ticks_Linear_8,0,5,42,127,1328385272
91,9,20,Ticks_Linear_8,1,5,42,127,1329204884
91,9,20,Ticks_Linear_8,2,1,48,27,1329247848
91,9,20,Ticks_Linear_8,3,1,48,33,1329988912
91,9,20,Ticks_Linear_8,4,5,42,127,1330024824
91,9,20,Ticks_Linear_8,5,1,48,37,1330780092
91,9,20,Ticks_Linear_8,6,5,42,127,1330845140
91,9,20,Ticks_Linear_8,7,1,48,36,1331583344
91,9,20,Ticks_Linear_8,8,5,42,127,1331665380
91,9,20,Ticks_Linear_8,9,1,48,34,1332416088
91,9,20,Ticks_Linear_8,10,5,42,127,1332475216
91,9,20,Ticks_Linear_8,11,1,48,32,1333229964
91,9,20,Ticks_Linear_8,12,5,42,127,1333285124
91,9,20,Ticks_Linear_8,13,1,48,32,1334023852
91,9,20,Ticks_Linear_8,14,5,42,127,1334095280
91,9,20,Ticks_Linear_8,15,1,48,36,1334863364
91,9,20,Ticks_Linear_8,16,5,42,127,1334905116
91,9,20,Ticks_Linear_8,17,1,48,37,1335674616
91,9,20,Ticks_Linear_8,18,5,42,127,1335715172
91,9,20,Ticks_Linear_8,19,1,48,36,1336465204
91,9,20,Ticks_Linear_8,20,5,42,127,1336514824
91,9,20,Ticks_Linear_8,21,1,48,36,1337292628
91,9,20,Ticks_Linear_8,22,5,42,127,1337314696
91,9,20,Ticks_Linear_8,23,1,48,35,1338082168
91,9,20,Ticks_Linear_8,24,5,42,127,1338114492
91,9,20,Ticks_Linear_8,25,1,48,42,1338878528
91,9,20,Ticks_Linear_8,26,5,42,127,1338915412
91,9,20,Ticks_Linear_8,27,1,48,38,1339687092
91,9,20,Ticks_Linear_8,28,5,42,127,1339714864
91,9,20,Ticks_Linear_8,29,1,48,40,1340444880
91,9,20,Ticks_Linear_8,30,5,42,127,1340504552
91,9,20,Ticks_Linear_8,31,1,48,38,1341167168
91,9,20,Ticks_Linear_8,32,5,42,127,1341294828
91,9,20,Ticks_Linear_8,33,1,48,34,1342027572
91,9,20,Ticks_Linear_8,34,5,42,127,1342084456
91,9,20,Ticks_Linear_8,35,1,48,41,1342801752
91,9,20,Ticks_Linear_8,36,5,42,127,1342874892
91,9,20,Ticks_Linear_8,37,1,48,41,1343630388
91,9,20,Ticks_Linear_8,38,5,42,127,1343664656
91,9,20,Ticks_Linear_8,39,5,42,127,1344444768
91,9,20,Ticks_Linear_8,40,1,48,36,1344447436
91,9,20,Ticks_Linear_8,41,5,42,127,1345224944
91,9,20,Ticks_Linear_8,42,1,48,39,1345240268
91,9,20,Ticks_Linear_8,43,1,48,40,1345984328
91,9,20,Ticks_Linear_8,44,5,42,127,1346005636
91,9,20,Ticks_Linear_8,45,1,48,39,1346723324
91,9,20,Ticks_Linear_8,46,5,42,127,1346784768
91,9,20,Ticks_Linear_8,47,1,48,31,1347552240
91,9,20,Ticks_Linear_8,48,5,42,127,1347564800
91,9,20,Ticks_Linear_8,49,1,48,35,1348325396
91,9,20,Ticks_Linear_8,50,5,42,127,1348334940
91,9,20,Ticks_Linear_8,51,1,48,40,1349077336
91,9,20,Ticks_Linear_8,52,5,42,127,1349105008
91,9,20,Ticks_Linear_8,53,1,48,40,1349853096
91,9,20,Ticks_Linear_8,54,5,42,127,1349875004
91,9,20,Ticks_Linear_8,55,5,42,127,1350645376
91,9,20,Ticks_Linear_8,56,1,48,37,1350664304
91,9,20,Ticks_Linear_8,57,5,42,127,1351415148
91,9,20,Ticks_Linear_8,58,1,48,30,1351416112
91,9,20,Ticks_Linear_8,59,1,48,39,1352175028
91,9,20,Ticks_Linear_8,60,5,42,127,1352176440
91,9,20,Ticks_Linear_8,61,5,42,127,1352934692
91,9,20,Ticks_Linear_8,62,1,48,39,1352937588
91,9,20,Ticks_Linear_8,63,5,42,127,1353694576
91,9,20,Ticks_Linear_8,64,1,48,40,1353718816
91,9,20,Ticks_Linear_8,65,1,48,40,1354444004
91,9,20,Ticks_Linear_8,66,5,42,127,1354455500
91,9,20,Ticks_Linear_8,67,1,48,43,1355193304
91,9,20,Ticks_Linear_8,68,5,42,127,1355215432
91,9,20,Ticks_Linear_8,69,1,48,36,1355954160
91,9,20,Ticks_Linear_8,70,5,42,127,1355964836
91,9,20,Ticks_Linear_8,71,1,48,38,1356687232
91,9,20,Ticks_Linear_8,72,5,42,127,1356715432
91,9,20,Ticks_Linear_8,73,5,42,127,1357464912
91,9,20,Ticks_Linear_8,74,1,48,38,1357465952
91,9,20,Ticks_Linear_8,75,1,48,44,1358195768
91,9,20,Ticks_Linear_8,76,5,42,127,1358214456
91,9,20,Ticks_Linear_8,77,5,42,127,1358965356
91,9,20,Ticks_Linear_8,78,1,48,41,1358987428
91,9,20,Ticks_Linear_8,79,1,48,43,1359649832
91,9,20,Ticks_Linear_8,80,5,42,127,1359704416
91,9,20,Ticks_Linear_8,81,1,48,40,1360416304
91,9,20,Ticks_Linear_8,82,5,42,127,1360444680
91,9,20,Ticks_Linear_8,83,1,48,40,1361167276
91,9,20,Ticks_Linear_8,84,5,42,127,1361185140
91,9,20,Ticks_Linear_8,85,1,48,41,1361918252
91,9,20,Ticks_Linear_8,86,5,42,127,1361924584
91,9,20,Ticks_Linear_8,87,1,48,30,1362661728
91,9,20,Ticks_Linear_8,88,5,42,127,1362664844
91,9,20,Ticks_Linear_8,89,5,42,127,1363395156
91,9,20,Ticks_Linear_8,90,1,48,38,1363416776
91,9,20,Ticks_Linear_8,91,1,48,40,1364089988
91,9,20,Ticks_Linear_8,92,5,42,127,1364125152
91,9,20,Ticks_Linear_8,93,1,48,35,1364817224
91,9,20,Ticks_Linear_8,94,5,42,127,1364855304
91,9,20,Ticks_Linear_8,95,1,48,39,1365547500
91,9,20,Ticks_Linear_8,96,5,42,127,1365585160
91,9,20,Ticks_Linear_8,97,5,42,127,1366315368
91,9,20,Ticks_Linear_8,98,1,48,35,1366317332
91,9,20,Ticks_Linear_8,99,1,48,40,1367000168
91,9,20,Ticks_Linear_8,100,5,42,127,1367035328
91,9,20,Ticks_Linear_8,101,1,48,37,1367726208
91,9,20,Ticks_Linear_8,102,5,42,127,1367755224
91,9,20,Ticks_Linear_8,103,1,48,38,1368466240
91,9,20,Ticks_Linear_8,104,5,42,127,1368475192
91,9,20,Ticks_Linear_8,105,1,48,38,1369188300
91,9,20,Ticks_Linear_8,106,5,42,127,1369194860
91,9,20,Ticks_Linear_8,107,5,42,127,1369914760
91,9,20,Ticks_Linear_8,108,1,48,39,1369920200
91,9,20,Ticks_Linear_8,109,5,42,127,1370625344
91,9,20,Ticks_Linear_8,110,1,48,42,1370652960
91,9,20,Ticks_Linear_8,111,1,48,39,1371289396
91,9,20,Ticks_Linear_8,112,5,42,127,1371335120
91,9,20,Ticks_Linear_8,113,1,48,35,1371997836
91,9,20,Ticks_Linear_8,114,5,42,127,1372044608
91,9,20,Ticks_Linear_8,115,5,42,127,1372755224
91,9,20,Ticks_Linear_8,116,1,48,31,1372822064
91,9,20,Ticks_Linear_8,117,5,42,127,1373465056
91,9,20,Ticks_Linear_8,118,1,48,40,1373480980
91,9,20,Ticks_Linear_8,119,1,48,41,1374140568
91,9,20,Ticks_Linear_8,120,5,42,127,1374165248
91,9,20,Ticks_Linear_8,121,1,48,40,1374843616
91,9,20,Ticks_Linear_8,122,5,42,127,1374864624
91,9,20,Ticks_Linear_8,123,1,48,42,1375554520
91,9,20,Ticks_Linear_8,124,5,42,127,1375565196
91,9,20,Ticks_Linear_8,125,1,48,39,1376240688
91,9,20,Ticks_Linear_8,126,5,42,127,1376264472
91,9,20,Ticks_Linear_8,127,1,48,42,1376954892
91,9,20,Ticks_Linear_8,128,5,42,127,1376965116
91,9,20,Ticks_Linear_8,129,1,48,44,1377650440
91,9,20,Ticks_Linear_8,130,5,42,127,1377655132
91,9,20,Ticks_Linear_8,131,1,48,47,1378330100
91,9,20,Ticks_Linear_8,132,5,42,127,1378345196
91,9,20,Ticks_Linear_8,133,1,48,40,1378989560
91,9,20,Ticks_Linear_8,134,5,42,127,1379034464
91,9,20,Ticks_Linear_8,135,1,48,42,1379691252
91,9,20,Ticks_Linear_8,136,5,42,127,1379724628
91,9,20,Ticks_Linear_8,137,1,48,32,1380387316
91,9,20,Ticks_Linear_8,138,5,42,127,1380414788
91,9,20,Ticks_Linear_8,139,1,48,26,1381088856
91,9,20,Ticks_Linear_8,140,5,42,127,1381094816
91,9,20,Ticks_Linear_8,141,1,48,30,1381755436
91,9,20,Ticks_Linear_8,142,5,42,127,1381774796
91,9,20,Ticks_Linear_8,143,1,48,37,1382446796
91,9,20,Ticks_Linear_8,144,5,42,127,1382454772
91,9,20,Ticks_Linear_8,145,5,42,127,1383134660
91,9,20,Ticks_Linear_8,146,1,48,38,1383159420
91,9,20,Ticks_Linear_8,147,1,48,45,1383790396
91,9,20,Ticks_Linear_8,148,5,42,127,1383814484
91,9,20,Ticks_Linear_8,149,1,48,39,1384455152
91,9,20,Ticks_Linear_8,150,5,42,127,1384485224
91,9,20,Ticks_Linear_8,151,1,48,33,1385144944
91,9,20,Ticks_Linear_8,152,5,42,127,1385155020
91,9,20,Ticks_Linear_8,153,5,42,127,1385824596
91,9,20,Ticks_Linear_8,154,1,48,32,1385842460
91,9,20,Ticks_Linear_8,155,1,48,33,1386488324
91,9,20,Ticks_Linear_8,156,5,42,127,1386495404
91,9,20,Ticks_Linear_8,157,1,48,38,1387126736
91,9,20,Ticks_Linear_8,158,5,42,127,1387165124
91,9,20,Ticks_Linear_8,159,1,48,40,1387793820
91,9,20,Ticks_Linear_8,160,5,42,127,1387824364
91,9,20,Ticks_Linear_8,161,1,48,37,1388457320
91,9,20,Ticks_Linear_8,162,5,42,127,1388485068
91,9,20,Ticks_Linear_8,163,1,48,38,1389124120
91,9,20,Ticks_Linear_8,164,5,42,127,1389144380
91,9,20,Ticks_Linear_8,165,1,48,37,1389791412
91,9,20,Ticks_Linear_8,166,5,42,127,1389804860
91,9,20,Ticks_Linear_8,167,1,48,39,1390446984
91,9,20,Ticks_Linear_8,168,5,42,127,1390465444
91,9,20,Ticks_Linear_8,169,5,42,127,1391114556
91,9,20,Ticks_Linear_8,170,1,48,37,1391123596
91,9,20,Ticks_Linear_8,171,1,48,37,1391753304
91,9,20,Ticks_Linear_8,172,5,42,127,1391764944
91,9,20,Ticks_Linear_8,173,1,48,39,1392370636
91,9,20,Ticks_Linear_8,174,5,42,127,1392415092
91,9,20,Ticks_Linear_8,175,1,48,38,1393027932
91,9,20,Ticks_Linear_8,176,5,42,127,1393065268
91,9,20,Ticks_Linear_8,177,5,42,127,1393714776
91,9,20,Ticks_Linear_8,178,1,48,36,1393717148
91,9,20,Ticks_Linear_8,179,5,42,127,1394354592
91,9,20,Ticks_Linear_8,180,1,48,39,1394365124
91,9,20,Ticks_Linear_8,181,1,48,37,1394986492
91,9,20,Ticks_Linear_8,182,5,42,127,1394994572
91,9,20,Ticks_Linear_8,183,1,48,38,1395606408
91,9,20,Ticks_Linear_8,184,5,42,127,1395634756
91,9,20,Ticks_Linear_8,185,1,48,34,1396247948
91,9,20,Ticks_Linear_8,186,5,42,127,1396274744
91,9,20,Ticks_Linear_8,187,1,48,38,1396868012
91,9,20,Ticks_Linear_8,188,5,42,127,1396914488
91,9,20,Ticks_Linear_8,189,1,48,36,1397511568
91,9,20,Ticks_Linear_8,190,5,42,127,1397545312
91,9,20,Ticks_Linear_8,191,1,48,38,1398152208
91,9,20,Ticks_Linear_8,192,5,42,127,1398175092
91,9,20,Ticks_Linear_8,193,5,42,127,1398804880
91,9,20,Ticks_Linear_8,194,1,48,42,1398814444
91,9,20,Ticks_Linear_8,195,5,42,127,1399434684
91,9,20,Ticks_Linear_8,196,1,48,37,1399445292
91,9,20,Ticks_Linear_8,197,1,48,36,1400055576
91,9,20,Ticks_Linear_8,198,5,42,127,1400065280
91,9,20,Ticks_Linear_8,199,1,48,43,1400652796
91,9,20,Ticks_Linear_8,200,5,42,127,1400684900
91,9,20,Ticks_Linear_8,201,1,48,39,1401296812
91,9,20,Ticks_Linear_8,202,5,42,127,1401304644
91,9,20,Ticks_Linear_8,203,1,48,36,1401917932
91,9,20,Ticks_Linear_8,204,5,42,127,1401924940
91,9,20,Ticks_Linear_8,205,1,48,37,1402528464
91,9,20,Ticks_Linear_8,206,5,42,127,1402544608
91,9,20,Ticks_Linear_8,207,1,48,35,1403131132
91,9,20,Ticks_Linear_8,208,5,42,127,1403164952
91,9,20,Ticks_Linear_8,209,5,42,127,1403775292
91,9,20,Ticks_Linear_8,210,1,48,38,1403778340
91,9,20,Ticks_Linear_8,211,1,48,42,1404379708
91,9,20,Ticks_Linear_8,212,5,42,127,1404384620
91,9,20,Ticks_Linear_8,213,1,48,40,1404971764
91,9,20,Ticks_Linear_8,214,5,42,127,1404994880
91,9,20,Ticks_Linear_8,215,1,48,40,1405554076
91,9,20,Ticks_Linear_8,216,5,42,127,1405605112
91,9,20,Ticks_Linear_8,217,1,48,37,1406185200
91,9,20,Ticks_Linear_8,218,5,42,127,1406214672
91,9,20,Ticks_Linear_8,219,1,48,40,1406797556
91,9,20,Ticks_Linear_8,220,5,42,127,1406814524
91,9,20,Ticks_Linear_8,221,1,48,39,1407384428
91,9,20,Ticks_Linear_8,222,5,42,127,1407414648
91,9,20,Ticks_Linear_8,223,1,48,38,1407997876
91,9,20,Ticks_Linear_8,224,5,42,127,1408014696
91,9,20,Ticks_Linear_8,225,5,42,127,1408614776
91,9,20,Ticks_Linear_8,226,1,48,36,1408618572
91,9,20,Ticks_Linear_8,227,1,48,41,1409195532
91,9,20,Ticks_Linear_8,228,5,42,127,1409214820
91,9,20,Ticks_Linear_8,229,1,48,40,1409776712
91,9,20,Ticks_Linear_8,230,5,42,127,1409804608
91,9,20,Ticks_Linear_8,231,1,48,36,1410381200
91,9,20,Ticks_Linear_8,232,5,42,127,1410394648
91,9,20,Ticks_Linear_8,233,1,48,38,1410963136
91,9,20,Ticks_Linear_8,234,5,42,127,1410985488
91,9,20,Ticks_Linear_8,235,1,48,38,1411520716
91,9,20,Ticks_Linear_8,236,5,42,127,1411575052
91,9,20,Ticks_Linear_8,237,1,48,42,1412125632
91,9,20,Ticks_Linear_8,238,5,42,127,1412164940
91,9,20,Ticks_Linear_8,239,1,48,42,1412733800
91,9,20,Ticks_Linear_8,240,5,42,127,1412744548
91,9,20,Ticks_Linear_8,241,1,48,40,1413325132
91,9,20,Ticks_Linear_8,242,5,42,127,1413326544
91,9,20,Ticks_Linear_8,243,5,42,127,1413904664
91,9,20,Ticks_Linear_8,244,1,48,33,1413908828
91,9,20,Ticks_Linear_8,245,1,48,41,1414477724
91,9,20,Ticks_Linear_8,246,5,42,127,1414485556
91,9,20,Ticks_Linear_8,247,5,42,127,1415065168
91,9,20,Ticks_Linear_8,248,1,48,32,1415071576
91,9,20,Ticks_Linear_8,249,1,48,36,1415612444
91,9,20,Ticks_Linear_8,250,5,42,127,1415635480
91,9,20,Ticks_Linear_8,251,5,42,127,1416204608
91,9,20,Ticks_Linear_8,252,1,48,35,1416230264
91,9,20,Ticks_Linear_8,253,5,42,127,1416774952
91,9,20,Ticks_Linear_8,254,1,48,42,1416794400
91,9,20,Ticks_Linear_8,255,1,48,39,1417335864
91,9,20,Ticks_Linear_8,256,5,42,127,1417345412
91,9,20,Ticks_Linear_8,257,1,48,42,1417871428
91,9,20,Ticks_Linear_8,258,5,42,127,1417914608
91,9,20,Ticks_Linear_8,259,1,48,30,1418462112
91,9,20,Ticks_Linear_8,260,5,42,127,1418474744
91,9,20,Ticks_Linear_8,261,5,42,127,1419034956
91,9,20,Ticks_Linear_8,262,1,48,35,1419046388
91,9,20,Ticks_Linear_8,263,1,48,33,1419584812
91,9,20,Ticks_Linear_8,264,5,42,127,1419595036
91,9,20,Ticks_Linear_8,265,1,48,35,1420141716
91,9,20,Ticks_Linear_8,266,5,42,127,1420155316
91,9,20,Ticks_Linear_8,267,1,48,35,1420688148
91,9,20,Ticks_Linear_8,268,5,42,127,1420715600
91,9,20,Ticks_Linear_8,269,1,48,39,1421256672
91,9,20,Ticks_Linear_8,270,5,42,127,1421265552
91,9,20,Ticks_Linear_8,271,1,48,36,1421794348
91,9,20,Ticks_Linear_8,272,5,42,127,1421815276
91,9,20,Ticks_Linear_8,273,1,48,34,1422320620
91,9,20,Ticks_Linear_8,274,5,42,127,1422364928
91,9,20,Ticks_Linear_8,275,1,48,34,1422874100
91,9,20,Ticks_Linear_8,276,5,42,127,1422914828
91,9,20,Ticks_Linear_8,277,1,48,34,1423418824
91,9,20,Ticks_Linear_8,278,5,42,127,1423464700
91,9,20,Ticks_Linear_8,279,5,42,127,1424004472
91,9,20,Ticks_Linear_8,280,1,48,36,1424012912
91,9,20,Ticks_Linear_8,281,5,42,127,1424545284
91,9,20,Ticks_Linear_8,282,1,48,35,1424563836
91,9,20,Ticks_Linear_8,283,1,48,41,1425066132
91,9,20,Ticks_Linear_8,284,5,42,127,1425084816
91,9,20,Ticks_Linear_8,285,1,48,34,1425610604
91,9,20,Ticks_Linear_8,286,5,42,127,1425624504
91,9,20,Ticks_Linear_8,287,1,48,37,1426130228
91,9,20,Ticks_Linear_8,288,5,42,127,1426165020
91,9,20,Ticks_Linear_8,289,1,48,38,1426659056
91,9,20,Ticks_Linear_8,290,5,42,127,1426694452
91,9,20,Ticks_Linear_8,291,1,48,28,1427209156
91,9,20,Ticks_Linear_8,292,5,42,127,1427224856
91,9,20,Ticks_Linear_8,293,1,48,35,1427744436
91,9,20,Ticks_Linear_8,294,5,42,127,1427755284
91,9,20,Ticks_Linear_8,295,1,48,36,1428254544
91,9,20,Ticks_Linear_8,296,5,42,127,1428284788
91,9,20,Ticks_Linear_8,297,5,42,127,1428815348
91,9,20,Ticks_Linear_8,298,1,48,37,1428838016
91,9,20,Ticks_Linear_8,299,5,42,127,1429335492
91,9,20,Ticks_Linear_8,300,1,48,34,1429379500
91,9,20,Ticks_Linear_8,301,1,48,37,1429847872
91,9,20,Ticks_Linear_8,302,5,42,127,1429854580
91,9,20,Ticks_Linear_8,303,1,48,42,1430349296
91,9,20,Ticks_Linear_8,304,5,42,127,1430374724
91,9,20,Ticks_Linear_8,305,1,48,37,1430861792
91,9,20,Ticks_Linear_8,306,5,42,127,1430895020
91,9,20,Ticks_Linear_8,307,1,48,37,1431369288
91,9,20,Ticks_Linear_8,308,5,42,127,1431415384
91,9,20,Ticks_Linear_8,309,1,48,34,1431896020
91,9,20,Ticks_Linear_8,310,5,42,127,1431925120
91,9,20,Ticks_Linear_8,311,1,48,31,1432429648
91,9,20,Ticks_Linear_8,312,5,42,127,1432435008
91,9,20,Ticks_Linear_8,313,5,42,127,1432944972
91,9,20,Ticks_Linear_8,314,1,48,36,1432950780
91,9,20,Ticks_Linear_8,315,1,48,35,1433441772
91,9,20,Ticks_Linear_8,316,5,42,127,1433454848
91,9,20,Ticks_Linear_8,317,1,48,33,1433947620
91,9,20,Ticks_Linear_8,318,5,42,127,1433964884
91,9,20,Ticks_Linear_8,319,1,48,27,1434462920
91,9,20,Ticks_Linear_8,320,5,42,127,1434464508
91,9,20,Ticks_Linear_8,321,1,48,30,1434950232
91,9,20,Ticks_Linear_8,322,5,42,127,1434965332
91,9,20,Ticks_Linear_8,323,1,48,33,1435445448
91,9,20,Ticks_Linear_8,324,5,42,127,1435465180
91,9,20,Ticks_Linear_8,325,5,42,127,1435964664
91,9,20,Ticks_Linear_8,326,1,48,28,1435977748
91,9,20,Ticks_Linear_8,327,1,48,30,1436460640
91,9,20,Ticks_Linear_8,328,5,42,127,1436464360
91,9,20,Ticks_Linear_8,329,1,48,34,1436930288
91,9,20,Ticks_Linear_8,330,5,42,127,1436955116
91,9,20,Ticks_Linear_8,331,1,48,31,1437435088
91,9,20,Ticks_Linear_8,332,5,42,127,1437444560
91,9,20,Ticks_Linear_8,333,1,48,27,1437926020
91,9,20,Ticks_Linear_8,334,5,42,127,1437935048
91,9,20,Ticks_Linear_8,335,5,42,127,1438424420
91,9,20,Ticks_Linear_8,336,1,48,36,1438428440
91,9,20,Ticks_Linear_8,337,5,42,127,1438915132
91,9,20,Ticks_Linear_8,338,1,48,30,1438921920
91,9,20,Ticks_Linear_8,0,9999,9999,9999,1328383048
91,9,20,Ticks_Linear_8,1,9999,9999,9999,1329202288
91,9,20,Ticks_Linear_8,2,9999,9999,9999,1330022524
91,9,20,Ticks_Linear_8,3,9999,9999,9999,1330842692
91,9,20,Ticks_Linear_8,4,9999,9999,9999,1331662932
91,9,20,Ticks_Linear_8,5,9999,9999,9999,1332472916
91,9,20,Ticks_Linear_8,6,9999,9999,9999,1333282900
91,9,20,Ticks_Linear_8,7,9999,9999,9999,1334092908
91,9,20,Ticks_Linear_8,8,9999,9999,9999,1334902892
91,9,20,Ticks_Linear_8,9,9999,9999,9999,1335712872
91,9,20,Ticks_Linear_8,10,9999,9999,9999,1336512600
91,9,20,Ticks_Linear_8,11,9999,9999,9999,1337312324
91,9,20,Ticks_Linear_8,12,9999,9999,9999,1338112120
91,9,20,Ticks_Linear_8,13,9999,9999,9999,1338912892
91,9,20,Ticks_Linear_8,14,9999,9999,9999,1339712568
91,9,20,Ticks_Linear_8,15,9999,9999,9999,1340502104
91,9,20,Ticks_Linear_8,16,9999,9999,9999,1341292600
91,9,20,Ticks_Linear_8,17,9999,9999,9999,1342082156
91,9,20,Ticks_Linear_8,18,9999,9999,9999,1342872668
91,9,20,Ticks_Linear_8,19,9999,9999,9999,1343662132
91,9,20,Ticks_Linear_8,20,9999,9999,9999,1344442468
91,9,20,Ticks_Linear_8,21,9999,9999,9999,1345222720
91,9,20,Ticks_Linear_8,22,9999,9999,9999,1346003040
91,9,20,Ticks_Linear_8,23,9999,9999,9999,1346782320
91,9,20,Ticks_Linear_8,24,9999,9999,9999,1347562572
91,9,20,Ticks_Linear_8,25,9999,9999,9999,1348332644
91,9,20,Ticks_Linear_8,26,9999,9999,9999,1349102708
91,9,20,Ticks_Linear_8,27,9999,9999,9999,1349872704
91,9,20,Ticks_Linear_8,28,9999,9999,9999,1350642780
91,9,20,Ticks_Linear_8,29,9999,9999,9999,1351412848
91,9,20,Ticks_Linear_8,30,9999,9999,9999,1352172656
91,9,20,Ticks_Linear_8,31,9999,9999,9999,1352932468
91,9,20,Ticks_Linear_8,32,9999,9999,9999,1353692276
91,9,20,Ticks_Linear_8,33,9999,9999,9999,1354453052
91,9,20,Ticks_Linear_8,34,9999,9999,9999,1355212912
91,9,20,Ticks_Linear_8,35,9999,9999,9999,1355962460
91,9,20,Ticks_Linear_8,36,9999,9999,9999,1356713056
91,9,20,Ticks_Linear_8,37,9999,9999,9999,1357462612
91,9,20,Ticks_Linear_8,38,9999,9999,9999,1358212156
91,9,20,Ticks_Linear_8,39,9999,9999,9999,1358962760
91,9,20,Ticks_Linear_8,40,9999,9999,9999,1359702120
91,9,20,Ticks_Linear_8,41,9999,9999,9999,1360442456
91,9,20,Ticks_Linear_8,42,9999,9999,9999,1361182844
91,9,20,Ticks_Linear_8,43,9999,9999,9999,1361922136
91,9,20,Ticks_Linear_8,44,9999,9999,9999,1362662472
91,9,20,Ticks_Linear_8,45,9999,9999,9999,1363392632
91,9,20,Ticks_Linear_8,46,9999,9999,9999,1364122704
91,9,20,Ticks_Linear_8,47,9999,9999,9999,1364852856
91,9,20,Ticks_Linear_8,48,9999,9999,9999,1365582936
91,9,20,Ticks_Linear_8,49,9999,9999,9999,1366313068
91,9,20,Ticks_Linear_8,50,9999,9999,9999,1367032956
91,9,20,Ticks_Linear_8,51,9999,9999,9999,1367752776
91,9,20,Ticks_Linear_8,52,9999,9999,9999,1368472668
91,9,20,Ticks_Linear_8,53,9999,9999,9999,1369192564
91,9,20,Ticks_Linear_8,54,9999,9999,9999,1369912388
91,9,20,Ticks_Linear_8,55,9999,9999,9999,1370623044
91,9,20,Ticks_Linear_8,56,9999,9999,9999,1371332672
91,9,20,Ticks_Linear_8,57,9999,9999,9999,1372042308
91,9,20,Ticks_Linear_8,58,9999,9999,9999,1372752996
91,9,20,Ticks_Linear_8,59,9999,9999,9999,1373462608
91,9,20,Ticks_Linear_8,60,9999,9999,9999,1374163024
91,9,20,Ticks_Linear_8,61,9999,9999,9999,1374862400
91,9,20,Ticks_Linear_8,62,9999,9999,9999,1375562820
91,9,20,Ticks_Linear_8,63,9999,9999,9999,1376262248
91,9,20,Ticks_Linear_8,64,9999,9999,9999,1376962668
91,9,20,Ticks_Linear_8,65,9999,9999,9999,1377652832
91,9,20,Ticks_Linear_8,66,9999,9999,9999,1378342972
91,9,20,Ticks_Linear_8,67,9999,9999,9999,1379032164
91,9,20,Ticks_Linear_8,68,9999,9999,9999,1379722328
91,9,20,Ticks_Linear_8,69,9999,9999,9999,1380412492
91,9,20,Ticks_Linear_8,70,9999,9999,9999,1381092444
91,9,20,Ticks_Linear_8,71,9999,9999,9999,1381772348
91,9,20,Ticks_Linear_8,72,9999,9999,9999,1382452328
91,9,20,Ticks_Linear_8,73,9999,9999,9999,1383132284
91,9,20,Ticks_Linear_8,74,9999,9999,9999,1383812184
91,9,20,Ticks_Linear_8,75,9999,9999,9999,1384482924
91,9,20,Ticks_Linear_8,76,9999,9999,9999,1385152572
91,9,20,Ticks_Linear_8,77,9999,9999,9999,1385822296
91,9,20,Ticks_Linear_8,78,9999,9999,9999,1386493032
91,9,20,Ticks_Linear_8,79,9999,9999,9999,1387162752
91,9,20,Ticks_Linear_8,80,9999,9999,9999,1387822140
91,9,20,Ticks_Linear_8,81,9999,9999,9999,1388482620
91,9,20,Ticks_Linear_8,82,9999,9999,9999,1389142080
91,9,20,Ticks_Linear_8,83,9999,9999,9999,1389802564
91,9,20,Ticks_Linear_8,84,9999,9999,9999,1390463072
91,9,20,Ticks_Linear_8,85,9999,9999,9999,1391112256
91,9,20,Ticks_Linear_8,86,9999,9999,9999,1391762496
91,9,20,Ticks_Linear_8,87,9999,9999,9999,1392412792
91,9,20,Ticks_Linear_8,88,9999,9999,9999,1393062968
91,9,20,Ticks_Linear_8,89,9999,9999,9999,1393712252
91,9,20,Ticks_Linear_8,90,9999,9999,9999,1394352216
91,9,20,Ticks_Linear_8,91,9999,9999,9999,1394992200
91,9,20,Ticks_Linear_8,92,9999,9999,9999,1395632236
91,9,20,Ticks_Linear_8,93,9999,9999,9999,1396272224
91,9,20,Ticks_Linear_8,94,9999,9999,9999,1396912188
91,9,20,Ticks_Linear_8,95,9999,9999,9999,1397543012
91,9,20,Ticks_Linear_8,96,9999,9999,9999,1398172792
91,9,20,Ticks_Linear_8,97,9999,9999,9999,1398802508
91,9,20,Ticks_Linear_8,98,9999,9999,9999,1399432308
91,9,20,Ticks_Linear_8,99,9999,9999,9999,1400063056
91,9,20,Ticks_Linear_8,100,9999,9999,9999,1400682600
91,9,20,Ticks_Linear_8,101,9999,9999,9999,1401302124
91,9,20,Ticks_Linear_8,102,9999,9999,9999,1401922640
91,9,20,Ticks_Linear_8,103,9999,9999,9999,1402542160
91,9,20,Ticks_Linear_8,104,9999,9999,9999,1403162724
91,9,20,Ticks_Linear_8,105,9999,9999,9999,1403772992
91,9,20,Ticks_Linear_8,106,9999,9999,9999,1404382324
91,9,20,Ticks_Linear_8,107,9999,9999,9999,1404992580
91,9,20,Ticks_Linear_8,108,9999,9999,9999,1405602888
91,9,20,Ticks_Linear_8,109,9999,9999,9999,1406212152
91,9,20,Ticks_Linear_8,110,9999,9999,9999,1406812228
91,9,20,Ticks_Linear_8,111,9999,9999,9999,1407412348
91,9,20,Ticks_Linear_8,112,9999,9999,9999,1408012396
91,9,20,Ticks_Linear_8,113,9999,9999,9999,1408612476
91,9,20,Ticks_Linear_8,114,9999,9999,9999,1409212520
91,9,20,Ticks_Linear_8,115,9999,9999,9999,1409802312
91,9,20,Ticks_Linear_8,116,9999,9999,9999,1410392128
91,9,20,Ticks_Linear_8,117,9999,9999,9999,1410983040
91,9,20,Ticks_Linear_8,118,9999,9999,9999,1411572828
91,9,20,Ticks_Linear_8,119,9999,9999,9999,1412162640
91,9,20,Ticks_Linear_8,120,9999,9999,9999,1412742248
91,9,20,Ticks_Linear_8,121,9999,9999,9999,1413322832
91,9,20,Ticks_Linear_8,122,9999,9999,9999,1413902436
91,9,20,Ticks_Linear_8,123,9999,9999,9999,1414483032
91,9,20,Ticks_Linear_8,124,9999,9999,9999,1415062644
91,9,20,Ticks_Linear_8,125,9999,9999,9999,1415632956
91,9,20,Ticks_Linear_8,126,9999,9999,9999,1416202308
91,9,20,Ticks_Linear_8,127,9999,9999,9999,1416772728
91,9,20,Ticks_Linear_8,128,9999,9999,9999,1417343040
91,9,20,Ticks_Linear_8,129,9999,9999,9999,1417912384
91,9,20,Ticks_Linear_8,130,9999,9999,9999,1418472520
91,9,20,Ticks_Linear_8,131,9999,9999,9999,1419032660
91,9,20,Ticks_Linear_8,132,9999,9999,9999,1419592808
91,9,20,Ticks_Linear_8,133,9999,9999,9999,1420152940
91,9,20,Ticks_Linear_8,134,9999,9999,9999,1420713076
91,9,20,Ticks_Linear_8,135,9999,9999,9999,1421262952
91,9,20,Ticks_Linear_8,136,9999,9999,9999,1421812828
91,9,20,Ticks_Linear_8,137,9999,9999,9999,1422362704
91,9,20,Ticks_Linear_8,138,9999,9999,9999,1422912604
91,9,20,Ticks_Linear_8,139,9999,9999,9999,1423462476
91,9,20,Ticks_Linear_8,140,9999,9999,9999,1424002172
91,9,20,Ticks_Linear_8,141,9999,9999,9999,1424542836
91,9,20,Ticks_Linear_8,142,9999,9999,9999,1425082444
91,9,20,Ticks_Linear_8,143,9999,9999,9999,1425622132
91,9,20,Ticks_Linear_8,144,9999,9999,9999,1426162796
91,9,20,Ticks_Linear_8,145,9999,9999,9999,1426692152
91,9,20,Ticks_Linear_8,146,9999,9999,9999,1427222632
91,9,20,Ticks_Linear_8,147,9999,9999,9999,1427753036
91,9,20,Ticks_Linear_8,148,9999,9999,9999,1428282488
91,9,20,Ticks_Linear_8,149,9999,9999,9999,1428812900
91,9,20,Ticks_Linear_8,150,9999,9999,9999,1429333120
91,9,20,Ticks_Linear_8,151,9999,9999,9999,1429852284
91,9,20,Ticks_Linear_8,152,9999,9999,9999,1430372428
91,9,20,Ticks_Linear_8,153,9999,9999,9999,1430892644
91,9,20,Ticks_Linear_8,154,9999,9999,9999,1431412864
91,9,20,Ticks_Linear_8,155,9999,9999,9999,1431922748
91,9,20,Ticks_Linear_8,156,9999,9999,9999,1432432708
91,9,20,Ticks_Linear_8,157,9999,9999,9999,1432942672
91,9,20,Ticks_Linear_8,158,9999,9999,9999,1433452624
91,9,20,Ticks_Linear_8,159,9999,9999,9999,1433962584
91,9,20,Ticks_Linear_8,160,9999,9999,9999,1434462300
91,9,20,Ticks_Linear_8,161,9999,9999,9999,1434963032
91,9,20,Ticks_Linear_8,162,9999,9999,9999,1435462732
91,9,20,Ticks_Linear_8,163,9999,9999,9999,1435962440
91,9,20,Ticks_Linear_8,164,9999,9999,9999,1436462132
91,9,20,Ticks_Linear_8,165,9999,9999,9999,1436952672
91,9,20,Ticks_Linear_8,166,9999,9999,9999,1437442112
91,9,20,Ticks_Linear_8,167,9999,9999,9999,1437932600
91,9,20,Ticks_Linear_8,168,9999,9999,9999,1438422120
91,9,20,Ticks_Linear_8,169,9999,9999,9999,1438912612
91,10,21,Ticks_Linear_5,0,5,42,127,1448242484
91,10,21,Ticks_Linear_5,1,5,42,127,1448723008
91,10,21,Ticks_Linear_5,2,1,48,29,1449187408
91,10,21,Ticks_Linear_5,3,5,42,127,1449203176
91,10,21,Ticks_Linear_5,4,1,48,35,1449669204
91,10,21,Ticks_Linear_5,5,5,42,127,1449683252
91,10,21,Ticks_Linear_5,6,1,48,38,1450160400
91,10,21,Ticks_Linear_5,7,5,42,127,1450162736
91,10,21,Ticks_Linear_5,8,1,48,38,1450616112
91,10,21,Ticks_Linear_5,9,5,42,127,1450653000
91,10,21,Ticks_Linear_5,10,1,48,39,1451101888
91,10,21,Ticks_Linear_5,11,5,42,127,1451142516
91,10,21,Ticks_Linear_5,12,1,48,36,1451578812
91,10,21,Ticks_Linear_5,13,5,42,127,1451633152
91,10,21,Ticks_Linear_5,14,1,48,38,1452071084
91,10,21,Ticks_Linear_5,15,5,42,127,1452122444
91,10,21,Ticks_Linear_5,16,1,48,34,1452559616
91,10,21,Ticks_Linear_5,17,5,42,127,1452613004
91,10,21,Ticks_Linear_5,18,1,48,35,1453065156
91,10,21,Ticks_Linear_5,19,5,42,127,1453112628
91,10,21,Ticks_Linear_5,20,1,48,36,1453550396
91,10,21,Ticks_Linear_5,21,5,42,127,1453613524
91,10,21,Ticks_Linear_5,22,1,48,35,1454038492
91,10,21,Ticks_Linear_5,23,5,42,127,1454123408
91,10,21,Ticks_Linear_5,24,1,48,34,1454619668
91,10,21,Ticks_Linear_5,25,5,42,127,1454623084
91,10,21,Ticks_Linear_5,26,5,42,127,1455122940
91,10,21,Ticks_Linear_5,27,1,48,31,1455145852
91,10,21,Ticks_Linear_5,28,5,42,127,1455632824
91,10,21,Ticks_Linear_5,29,1,48,30,1455641340
91,10,21,Ticks_Linear_5,30,1,48,32,1456142484
91,10,21,Ticks_Linear_5,31,5,42,127,1456143896
91,10,21,Ticks_Linear_5,32,1,48,33,1456641988
91,10,21,Ticks_Linear_5,33,5,42,127,1456652884
91,10,21,Ticks_Linear_5,34,1,48,32,1457141092
91,10,21,Ticks_Linear_5,35,5,42,127,1457162548
91,10,21,Ticks_Linear_5,36,1,48,29,1457669684
91,10,21,Ticks_Linear_5,37,5,42,127,1457672428
91,10,21,Ticks_Linear_5,38,1,48,35,1458186616
91,10,21,Ticks_Linear_5,39,5,42,127,1458192944
91,10,21,Ticks_Linear_5,40,1,48,34,1458697396
91,10,21,Ticks_Linear_5,41,5,42,127,1458713088
91,10,21,Ticks_Linear_5,42,1,48,32,1459205780
91,10,21,Ticks_Linear_5,43,5,42,127,1459233084
91,10,21,Ticks_Linear_5,44,1,48,36,1459700384
91,10,21,Ticks_Linear_5,45,5,42,127,1459753400
91,10,21,Ticks_Linear_5,46,1,48,31,1460224056
91,10,21,Ticks_Linear_5,47,5,42,127,1460272496
91,10,21,Ticks_Linear_5,48,1,48,32,1460731844
91,10,21,Ticks_Linear_5,49,5,42,127,1460803048
91,10,21,Ticks_Linear_5,50,1,48,33,1461262776
91,10,21,Ticks_Linear_5,51,5,42,127,1461333452
91,10,21,Ticks_Linear_5,52,1,48,29,1461855200
91,10,21,Ticks_Linear_5,53,5,42,127,1461862956
91,10,21,Ticks_Linear_5,54,5,42,127,1462393068
91,10,21,Ticks_Linear_5,55,1,48,32,1462397684
91,10,21,Ticks_Linear_5,56,1,48,33,1462922724
91,10,21,Ticks_Linear_5,57,5,42,127,1462924060
91,10,21,Ticks_Linear_5,58,1,48,35,1463444388
91,10,21,Ticks_Linear_5,59,5,42,127,1463463228
91,10,21,Ticks_Linear_5,60,1,48,30,1463952632
91,10,21,Ticks_Linear_5,61,5,42,127,1464002920
91,10,21,Ticks_Linear_5,62,1,48,36,1464489764
91,10,21,Ticks_Linear_5,63,5,42,127,1464542756
91,10,21,Ticks_Linear_5,64,1,48,31,1465051412
91,10,21,Ticks_Linear_5,65,5,42,127,1465083124
91,10,21,Ticks_Linear_5,66,1,48,33,1465584732
91,10,21,Ticks_Linear_5,67,5,42,127,1465622816
91,10,21,Ticks_Linear_5,68,1,48,36,1466127260
91,10,21,Ticks_Linear_5,69,5,42,127,1466172936
91,10,21,Ticks_Linear_5,70,1,48,33,1466696256
91,10,21,Ticks_Linear_5,71,5,42,127,1466722888
91,10,21,Ticks_Linear_5,72,1,48,30,1467242096
91,10,21,Ticks_Linear_5,73,5,42,127,1467272688
91,10,21,Ticks_Linear_5,74,1,48,33,1467797952
91,10,21,Ticks_Linear_5,75,5,42,127,1467822560
91,10,21,Ticks_Linear_5,76,1,48,34,1468362360
91,10,21,Ticks_Linear_5,77,5,42,127,1468373260
91,10,21,Ticks_Linear_5,78,1,48,35,1468916952
91,10,21,Ticks_Linear_5,79,5,42,127,1468932568
91,10,21,Ticks_Linear_5,80,1,48,32,1469481384
91,10,21,Ticks_Linear_5,81,5,42,127,1469492724
91,10,21,Ticks_Linear_5,82,1,48,33,1470026760
91,10,21,Ticks_Linear_5,83,5,42,127,1470052860
91,10,21,Ticks_Linear_5,84,1,48,35,1470569664
91,10,21,Ticks_Linear_5,85,5,42,127,1470612916
91,10,21,Ticks_Linear_5,86,1,48,38,1471128224
91,10,21,Ticks_Linear_5,87,5,42,127,1471172900
91,10,21,Ticks_Linear_5,88,1,48,37,1471701692
91,10,21,Ticks_Linear_5,89,5,42,127,1471743296
91,10,21,Ticks_Linear_5,90,1,48,32,1472277472
91,10,21,Ticks_Linear_5,91,5,42,127,1472312740
91,10,21,Ticks_Linear_5,92,1,48,35,1472843104
91,10,21,Ticks_Linear_5,93,5,42,127,1472883280
91,10,21,Ticks_Linear_5,94,1,48,31,1473391408
91,10,21,Ticks_Linear_5,95,5,42,127,1473453380
91,10,21,Ticks_Linear_5,96,1,48,35,1473964572
91,10,21,Ticks_Linear_5,97,5,42,127,1474032908
91,10,21,Ticks_Linear_5,98,1,48,32,1474600060
91,10,21,Ticks_Linear_5,99,5,42,127,1474612760
91,10,21,Ticks_Linear_5,100,5,42,127,1475193196
91,10,21,Ticks_Linear_5,101,1,48,38,1475199236
91,10,21,Ticks_Linear_5,102,5,42,127,1475772656
91,10,21,Ticks_Linear_5,103,1,48,38,1475781540
91,10,21,Ticks_Linear_5,104,1,48,37,1476307424
91,10,21,Ticks_Linear_5,105,5,42,127,1476353448
91,10,21,Ticks_Linear_5,106,1,48,36,1476913716
91,10,21,Ticks_Linear_5,107,5,42,127,1476933004
91,10,21,Ticks_Linear_5,108,1,48,32,1477510924
91,10,21,Ticks_Linear_5,109,5,42,127,1477522792
91,10,21,Ticks_Linear_5,110,1,48,36,1478095540
91,10,21,Ticks_Linear_5,111,5,42,127,1478112804
91,10,21,Ticks_Linear_5,112,1,48,32,1478667580
91,10,21,Ticks_Linear_5,113,5,42,127,1478702544
91,10,21,Ticks_Linear_5,114,1,48,39,1479252456
91,10,21,Ticks_Linear_5,115,5,42,127,1479293308
91,10,21,Ticks_Linear_5,116,1,48,36,1479853776
91,10,21,Ticks_Linear_5,117,5,42,127,1479883244
91,10,21,Ticks_Linear_5,118,1,48,32,1480461320
91,10,21,Ticks_Linear_5,119,5,42,127,1480483144
91,10,21,Ticks_Linear_5,120,1,48,36,1481033004
91,10,21,Ticks_Linear_5,121,5,42,127,1481083216
91,10,21,Ticks_Linear_5,122,1,48,38,1481621824
91,10,21,Ticks_Linear_5,123,5,42,127,1481683340
91,10,21,Ticks_Linear_5,124,1,48,36,1482220508
91,10,21,Ticks_Linear_5,125,5,42,127,1482283636
91,10,21,Ticks_Linear_5,126,1,48,39,1482821196
91,10,21,Ticks_Linear_5,127,5,42,127,1482882712
91,10,21,Ticks_Linear_5,128,1,48,38,1483451872
91,10,21,Ticks_Linear_5,129,5,42,127,1483492720
91,10,21,Ticks_Linear_5,130,1,48,33,1484095296
91,10,21,Ticks_Linear_5,131,5,42,127,1484102980
91,10,21,Ticks_Linear_5,132,1,48,33,1484700656
91,10,21,Ticks_Linear_5,133,5,42,127,1484713512
91,10,21,Ticks_Linear_5,134,5,42,127,1485322704
91,10,21,Ticks_Linear_5,135,1,48,36,1485325296
91,10,21,Ticks_Linear_5,136,1,48,33,1485911800
91,10,21,Ticks_Linear_5,137,5,42,127,1485932808
91,10,21,Ticks_Linear_5,138,1,48,32,1486497612
91,10,21,Ticks_Linear_5,139,5,42,127,1486552548
91,10,21,Ticks_Linear_5,140,1,48,33,1487133536
91,10,21,Ticks_Linear_5,141,5,42,127,1487173068
91,10,21,Ticks_Linear_5,142,1,48,36,1487757196
91,10,21,Ticks_Linear_5,143,5,42,127,1487792440
91,10,21,Ticks_Linear_5,144,1,48,36,1488395212
91,10,21,Ticks_Linear_5,145,5,42,127,1488413004
91,10,21,Ticks_Linear_5,146,1,48,37,1489017152
91,10,21,Ticks_Linear_5,147,5,42,127,1489032624
91,10,21,Ticks_Linear_5,148,1,48,24,1489651428
91,10,21,Ticks_Linear_5,149,5,42,127,1489663524
91,10,21,Ticks_Linear_5,150,1,48,33,1490273216
91,10,21,Ticks_Linear_5,151,5,42,127,1490293104
91,10,21,Ticks_Linear_5,152,1,48,35,1490895136
91,10,21,Ticks_Linear_5,153,5,42,127,1490922960
91,10,21,Ticks_Linear_5,154,1,48,33,1491525164
91,10,21,Ticks_Linear_5,155,5,42,127,1491552540
91,10,21,Ticks_Linear_5,156,1,48,34,1492124688
91,10,21,Ticks_Linear_5,157,5,42,127,1492183440
91,10,21,Ticks_Linear_5,158,1,48,32,1492776580
91,10,21,Ticks_Linear_5,159,5,42,127,1492823428
91,10,21,Ticks_Linear_5,160,1,48,35,1493384204
91,10,21,Ticks_Linear_5,161,5,42,127,1493463468
91,10,21,Ticks_Linear_5,162,1,48,37,1494045056
91,10,21,Ticks_Linear_5,163,5,42,127,1494103532
91,10,21,Ticks_Linear_5,164,1,48,30,1494742224
91,10,21,Ticks_Linear_5,165,5,42,127,1494743720
91,10,21,Ticks_Linear_5,166,1,48,31,1495353492
91,10,21,Ticks_Linear_5,167,5,42,127,1495383412
91,10,21,Ticks_Linear_5,168,1,48,29,1495978396
91,10,21,Ticks_Linear_5,169,5,42,127,1496032584
91,10,21,Ticks_Linear_5,170,1,48,29,1496606980
91,10,21,Ticks_Linear_5,171,5,42,127,1496682760
91,10,21,Ticks_Linear_5,172,1,48,25,1497188480
91,10,21,Ticks_Linear_5,173,5,42,127,1497333040
91,10,21,Ticks_Linear_5,174,1,48,37,1497883264
91,10,21,Ticks_Linear_5,175,5,42,127,1497983584
91,10,21,Ticks_Linear_5,176,1,48,29,1498534260
91,10,21,Ticks_Linear_5,177,5,42,127,1498632536
91,10,21,Ticks_Linear_5,178,1,48,32,1499234532
91,10,21,Ticks_Linear_5,179,5,42,127,1499292912
91,10,21,Ticks_Linear_5,180,1,48,32,1499910132
91,10,21,Ticks_Linear_5,181,5,42,127,1499952368
91,10,21,Ticks_Linear_5,182,1,48,33,1500589292
91,10,21,Ticks_Linear_5,183,5,42,127,1500612924
91,10,21,Ticks_Linear_5,184,1,48,38,1501262384
91,10,21,Ticks_Linear_5,185,5,42,127,1501272536
91,10,21,Ticks_Linear_5,186,1,48,32,1501921672
91,10,21,Ticks_Linear_5,187,5,42,127,1501932944
91,10,21,Ticks_Linear_5,188,1,48,34,1502565404
91,10,21,Ticks_Linear_5,189,5,42,127,1502602660
91,10,21,Ticks_Linear_5,190,1,48,32,1503193312
91,10,21,Ticks_Linear_5,191,5,42,127,1503273352
91,10,21,Ticks_Linear_5,192,1,48,35,1503858080
91,10,21,Ticks_Linear_5,193,5,42,127,1503943196
91,10,21,Ticks_Linear_5,194,1,48,31,1504589652
91,10,21,Ticks_Linear_5,195,5,42,127,1504612692
91,10,21,Ticks_Linear_5,196,1,48,33,1505263700
91,10,21,Ticks_Linear_5,197,5,42,127,1505282388
91,10,21,Ticks_Linear_5,198,1,48,32,1505915968
91,10,21,Ticks_Linear_5,199,5,42,127,1505963340
91,10,21,Ticks_Linear_5,200,1,48,34,1506564916
91,10,21,Ticks_Linear_5,201,5,42,127,1506643460
91,10,21,Ticks_Linear_5,202,1,48,35,1507250964
91,10,21,Ticks_Linear_5,203,5,42,127,1507323340
91,10,21,Ticks_Linear_5,204,1,48,35,1507951388
91,10,21,Ticks_Linear_5,205,5,42,127,1508003320
91,10,21,Ticks_Linear_5,206,1,48,34,1508643764
91,10,21,Ticks_Linear_5,207,5,42,127,1508683296
91,10,21,Ticks_Linear_5,208,1,48,32,1509312068
91,10,21,Ticks_Linear_5,209,5,42,127,1509373288
91,10,21,Ticks_Linear_5,210,1,48,33,1510004776
91,10,21,Ticks_Linear_5,211,5,42,127,1510062404
91,10,21,Ticks_Linear_5,212,1,48,39,1510709832
91,10,21,Ticks_Linear_5,213,5,42,127,1510752492
91,10,21,Ticks_Linear_5,214,1,48,33,1511426632
91,10,21,Ticks_Linear_5,215,5,42,127,1511442776
91,10,21,Ticks_Linear_5,216,1,48,33,1512121524
91,10,21,Ticks_Linear_5,217,5,42,127,1512133240
91,10,21,Ticks_Linear_5,218,1,48,34,1512802848
91,10,21,Ticks_Linear_5,219,5,42,127,1512833512
91,10,21,Ticks_Linear_5,220,1,48,33,1513481080
91,10,21,Ticks_Linear_5,221,5,42,127,1513532960
91,10,21,Ticks_Linear_5,222,1,48,38,1514186064
91,10,21,Ticks_Linear_5,223,5,42,127,1514233136
91,10,21,Ticks_Linear_5,224,1,48,33,1514870992
91,10,21,Ticks_Linear_5,225,5,42,127,1514932660
91,10,21,Ticks_Linear_5,226,1,48,38,1515604656
91,10,21,Ticks_Linear_5,227,5,42,127,1515633228
91,10,21,Ticks_Linear_5,228,1,48,31,1516335484
91,10,21,Ticks_Linear_5,229,5,42,127,1516342640
91,10,21,Ticks_Linear_5,230,1,48,35,1517003156
91,10,21,Ticks_Linear_5,231,5,42,127,1517053368
91,10,21,Ticks_Linear_5,232,1,48,33,1517693392
91,10,21,Ticks_Linear_5,233,5,42,127,1517763228
91,10,21,Ticks_Linear_5,234,1,48,37,1518450124
91,10,21,Ticks_Linear_5,235,5,42,127,1518472788
91,10,21,Ticks_Linear_5,236,1,48,34,1519158636
91,10,21,Ticks_Linear_5,237,5,42,127,1519183168
91,10,21,Ticks_Linear_5,238,1,48,35,1519883900
91,10,21,Ticks_Linear_5,239,5,42,127,1519903188
91,10,21,Ticks_Linear_5,240,5,42,127,1520622936
91,10,21,Ticks_Linear_5,241,1,48,31,1520629568
91,10,21,Ticks_Linear_5,242,1,48,35,1521306840
91,10,21,Ticks_Linear_5,243,5,42,127,1521343124
91,10,21,Ticks_Linear_5,244,1,48,35,1522036992
91,10,21,Ticks_Linear_5,245,5,42,127,1522062572
91,10,21,Ticks_Linear_5,246,1,48,36,1522769164
91,10,21,Ticks_Linear_5,247,5,42,127,1522782468
91,10,21,Ticks_Linear_5,248,1,48,35,1523487912
91,10,21,Ticks_Linear_5,249,5,42,127,1523512692
91,10,21,Ticks_Linear_5,250,1,48,34,1524241472
91,10,21,Ticks_Linear_5,251,5,42,127,1524243040
91,10,21,Ticks_Linear_5,252,5,42,127,1524973124
91,10,21,Ticks_Linear_5,253,1,48,34,1525002684
91,10,21,Ticks_Linear_5,254,1,48,35,1525658672
91,10,21,Ticks_Linear_5,255,5,42,127,1525702896
91,10,21,Ticks_Linear_5,256,1,48,35,1526383284
91,10,21,Ticks_Linear_5,257,5,42,127,1526433052
91,10,21,Ticks_Linear_5,258,1,48,31,1527119796
91,10,21,Ticks_Linear_5,259,5,42,127,1527172340
91,10,21,Ticks_Linear_5,260,1,48,35,1527855200
91,10,21,Ticks_Linear_5,261,5,42,127,1527912976
91,10,21,Ticks_Linear_5,262,1,48,33,1528600076
91,10,21,Ticks_Linear_5,263,5,42,127,1528653168
91,10,21,Ticks_Linear_5,264,1,48,33,1529343044
91,10,21,Ticks_Linear_5,265,5,42,127,1529392456
91,10,21,Ticks_Linear_5,266,1,48,35,1530100516
91,10,21,Ticks_Linear_5,267,5,42,127,1530132920
91,10,21,Ticks_Linear_5,268,1,48,35,1530863932
91,10,21,Ticks_Linear_5,269,5,42,127,1530882396
91,10,21,Ticks_Linear_5,270,1,48,31,1531613260
91,10,21,Ticks_Linear_5,271,5,42,127,1531633064
91,10,21,Ticks_Linear_5,272,1,48,31,1532313976
91,10,21,Ticks_Linear_5,273,5,42,127,1532382540
91,10,21,Ticks_Linear_5,274,1,48,38,1533077900
91,10,21,Ticks_Linear_5,275,5,42,127,1533133208
91,10,21,Ticks_Linear_5,276,1,48,37,1533840488
91,10,21,Ticks_Linear_5,277,5,42,127,1533882832
91,10,21,Ticks_Linear_5,278,1,48,37,1534563144
91,10,21,Ticks_Linear_5,279,5,42,127,1534642716
91,10,21,Ticks_Linear_5,280,1,48,33,1535358000
91,10,21,Ticks_Linear_5,281,5,42,127,1535403276
91,10,21,Ticks_Linear_5,282,1,48,32,1536130696
91,10,21,Ticks_Linear_5,283,5,42,127,1536163156
91,10,21,Ticks_Linear_5,284,1,48,29,1536908840
91,10,21,Ticks_Linear_5,285,5,42,127,1536922964
91,10,21,Ticks_Linear_5,286,1,48,33,1537660780
91,10,21,Ticks_Linear_5,287,5,42,127,1537682924
91,10,21,Ticks_Linear_5,288,1,48,31,1538414532
91,10,21,Ticks_Linear_5,289,5,42,127,1538452844
91,10,21,Ticks_Linear_5,290,1,48,34,1539169324
91,10,21,Ticks_Linear_5,291,5,42,127,1539222912
91,10,21,Ticks_Linear_5,292,1,48,38,1539965980
91,10,21,Ticks_Linear_5,293,5,42,127,1539992904
91,10,21,Ticks_Linear_5,294,1,48,33,1540718072
91,10,21,Ticks_Linear_5,295,5,42,127,1540762900
91,10,21,Ticks_Linear_5,296,1,48,32,1541485516
91,10,21,Ticks_Linear_5,297,5,42,127,1541533040
91,10,21,Ticks_Linear_5,298,1,48,32,1542263304
91,10,21,Ticks_Linear_5,299,5,42,127,1542313292
91,10,21,Ticks_Linear_5,300,1,48,29,1543045576
91,10,21,Ticks_Linear_5,301,5,42,127,1543092720
91,10,21,Ticks_Linear_5,302,1,48,33,1543834068
91,10,21,Ticks_Linear_5,303,5,42,127,1543872828
91,10,21,Ticks_Linear_5,304,5,42,127,1544653160
91,10,21,Ticks_Linear_5,305,1,48,30,1544722184
91,10,21,Ticks_Linear_5,306,1,48,34,1545414720
91,10,21,Ticks_Linear_5,307,5,42,127,1545432656
91,10,21,Ticks_Linear_5,308,1,48,37,1546130488
91,10,21,Ticks_Linear_5,309,5,42,127,1546222948
91,10,21,Ticks_Linear_5,310,1,48,35,1546868880
91,10,21,Ticks_Linear_5,311,5,42,127,1547012468
91,10,21,Ticks_Linear_5,312,1,48,33,1547669728
91,10,21,Ticks_Linear_5,313,5,42,127,1547802908
91,10,21,Ticks_Linear_5,314,1,48,36,1548432088
91,10,21,Ticks_Linear_5,315,5,42,127,1548592544
91,10,21,Ticks_Linear_5,316,1,48,37,1549212564
91,10,21,Ticks_Linear_5,317,5,42,127,1549382984
91,10,21,Ticks_Linear_5,318,1,48,39,1550065600
91,10,21,Ticks_Linear_5,319,5,42,127,1550182704
91,10,21,Ticks_Linear_5,320,1,48,37,1550914104
91,10,21,Ticks_Linear_5,321,5,42,127,1550982668
91,10,21,Ticks_Linear_5,322,1,48,37,1551675932
91,10,21,Ticks_Linear_5,323,5,42,127,1551783648
91,10,21,Ticks_Linear_5,324,1,48,35,1552486820
91,10,21,Ticks_Linear_5,325,5,42,127,1552583148
91,10,21,Ticks_Linear_5,326,1,48,38,1553338136
91,10,21,Ticks_Linear_5,327,5,42,127,1553382740
91,10,21,Ticks_Linear_5,328,1,48,37,1554119812
91,10,21,Ticks_Linear_5,329,5,42,127,1554192800
91,10,21,Ticks_Linear_5,330,1,48,38,1554940800
91,10,21,Ticks_Linear_5,331,5,42,127,1555002732
91,10,21,Ticks_Linear_5,332,1,48,40,1555806004
91,10,21,Ticks_Linear_5,333,5,42,127,1555812712
91,10,21,Ticks_Linear_5,334,5,42,127,1556622776
91,10,21,Ticks_Linear_5,335,1,48,36,1556641404
91,10,21,Ticks_Linear_5,336,1,48,33,1557420512
91,10,21,Ticks_Linear_5,337,5,42,127,1557432680
91,10,21,Ticks_Linear_5,0,9999,9999,9999,1448240184
91,10,21,Ticks_Linear_5,1,9999,9999,9999,1448720484
91,10,21,Ticks_Linear_5,2,9999,9999,9999,1449200728
91,10,21,Ticks_Linear_5,3,9999,9999,9999,1449680956
91,10,21,Ticks_Linear_5,4,9999,9999,9999,1450160260
91,10,21,Ticks_Linear_5,5,9999,9999,9999,1450650700
91,10,21,Ticks_Linear_5,6,9999,9999,9999,1451140216
91,10,21,Ticks_Linear_5,7,9999,9999,9999,1451630704
91,10,21,Ticks_Linear_5,8,9999,9999,9999,1452120144
91,10,21,Ticks_Linear_5,9,9999,9999,9999,1452610632
91,10,21,Ticks_Linear_5,10,9999,9999,9999,1453110332
91,10,21,Ticks_Linear_5,11,9999,9999,9999,1453611076
91,10,21,Ticks_Linear_5,12,9999,9999,9999,1454121036
91,10,21,Ticks_Linear_5,13,9999,9999,9999,1454620784
91,10,21,Ticks_Linear_5,14,9999,9999,9999,1455120492
91,10,21,Ticks_Linear_5,15,9999,9999,9999,1455630452
91,10,21,Ticks_Linear_5,16,9999,9999,9999,1456140408
91,10,21,Ticks_Linear_5,17,9999,9999,9999,1456650364
91,10,21,Ticks_Linear_5,18,9999,9999,9999,1457160248
91,10,21,Ticks_Linear_5,19,9999,9999,9999,1457670204
91,10,21,Ticks_Linear_5,20,9999,9999,9999,1458190424
91,10,21,Ticks_Linear_5,21,9999,9999,9999,1458710644
91,10,21,Ticks_Linear_5,22,9999,9999,9999,1459230788
91,10,21,Ticks_Linear_5,23,9999,9999,9999,1459751004
91,10,21,Ticks_Linear_5,24,9999,9999,9999,1460270200
91,10,21,Ticks_Linear_5,25,9999,9999,9999,1460800600
91,10,21,Ticks_Linear_5,26,9999,9999,9999,1461331008
91,10,21,Ticks_Linear_5,27,9999,9999,9999,1461860436
91,10,21,Ticks_Linear_5,28,9999,9999,9999,1462390844
91,10,21,Ticks_Linear_5,29,9999,9999,9999,1462920276
91,10,21,Ticks_Linear_5,30,9999,9999,9999,1463460932
91,10,21,Ticks_Linear_5,31,9999,9999,9999,1464000620
91,10,21,Ticks_Linear_5,32,9999,9999,9999,1464540236
91,10,21,Ticks_Linear_5,33,9999,9999,9999,1465080900
91,10,21,Ticks_Linear_5,34,9999,9999,9999,1465620588
91,10,21,Ticks_Linear_5,35,9999,9999,9999,1466170492
91,10,21,Ticks_Linear_5,36,9999,9999,9999,1466720368
91,10,21,Ticks_Linear_5,37,9999,9999,9999,1467270240
91,10,21,Ticks_Linear_5,38,9999,9999,9999,1467820112
91,10,21,Ticks_Linear_5,39,9999,9999,9999,1468371036
91,10,21,Ticks_Linear_5,40,9999,9999,9999,1468930120
91,10,21,Ticks_Linear_5,41,9999,9999,9999,1469490280
91,10,21,Ticks_Linear_5,42,9999,9999,9999,1470050412
91,10,21,Ticks_Linear_5,43,9999,9999,9999,1470610544
91,10,21,Ticks_Linear_5,44,9999,9999,9999,1471170676
91,10,21,Ticks_Linear_5,45,9999,9999,9999,1471740996
91,10,21,Ticks_Linear_5,46,9999,9999,9999,1472310368
91,10,21,Ticks_Linear_5,47,9999,9999,9999,1472880760
91,10,21,Ticks_Linear_5,48,9999,9999,9999,1473451080
91,10,21,Ticks_Linear_5,49,9999,9999,9999,1474030684
91,10,21,Ticks_Linear_5,50,9999,9999,9999,1474610240
91,10,21,Ticks_Linear_5,51,9999,9999,9999,1475190896
91,10,21,Ticks_Linear_5,52,9999,9999,9999,1475770432
91,10,21,Ticks_Linear_5,53,9999,9999,9999,1476351076
91,10,21,Ticks_Linear_5,54,9999,9999,9999,1476930632
91,10,21,Ticks_Linear_5,55,9999,9999,9999,1477520496
91,10,21,Ticks_Linear_5,56,9999,9999,9999,1478110284
91,10,21,Ticks_Linear_5,57,9999,9999,9999,1478700096
91,10,21,Ticks_Linear_5,58,9999,9999,9999,1479290936
91,10,21,Ticks_Linear_5,59,9999,9999,9999,1479880800
91,10,21,Ticks_Linear_5,60,9999,9999,9999,1480480848
91,10,21,Ticks_Linear_5,61,9999,9999,9999,1481080920
91,10,21,Ticks_Linear_5,62,9999,9999,9999,1481680968
91,10,21,Ticks_Linear_5,63,9999,9999,9999,1482281040
91,10,21,Ticks_Linear_5,64,9999,9999,9999,1482880116
91,10,21,Ticks_Linear_5,65,9999,9999,9999,1483490424
91,10,21,Ticks_Linear_5,66,9999,9999,9999,1484100680
91,10,21,Ticks_Linear_5,67,9999,9999,9999,1484710992
91,10,21,Ticks_Linear_5,68,9999,9999,9999,1485320256
91,10,21,Ticks_Linear_5,69,9999,9999,9999,1485930584
91,10,21,Ticks_Linear_5,70,9999,9999,9999,1486550104
91,10,21,Ticks_Linear_5,71,9999,9999,9999,1487170620
91,10,21,Ticks_Linear_5,72,9999,9999,9999,1487790140
91,10,21,Ticks_Linear_5,73,9999,9999,9999,1488410708
91,10,21,Ticks_Linear_5,74,9999,9999,9999,1489030252
91,10,21,Ticks_Linear_5,75,9999,9999,9999,1489661000
91,10,21,Ticks_Linear_5,76,9999,9999,9999,1490290808
91,10,21,Ticks_Linear_5,77,9999,9999,9999,1490920512
91,10,21,Ticks_Linear_5,78,9999,9999,9999,1491550316
91,10,21,Ticks_Linear_5,79,9999,9999,9999,1492181064
91,10,21,Ticks_Linear_5,80,9999,9999,9999,1492821056
91,10,21,Ticks_Linear_5,81,9999,9999,9999,1493461096
91,10,21,Ticks_Linear_5,82,9999,9999,9999,1494101084
91,10,21,Ticks_Linear_5,83,9999,9999,9999,1494741056
91,10,21,Ticks_Linear_5,84,9999,9999,9999,1495381112
91,10,21,Ticks_Linear_5,85,9999,9999,9999,1496030288
91,10,21,Ticks_Linear_5,86,9999,9999,9999,1496680536
91,10,21,Ticks_Linear_5,87,9999,9999,9999,1497330744
91,10,21,Ticks_Linear_5,88,9999,9999,9999,1497980988
91,10,21,Ticks_Linear_5,89,9999,9999,9999,1498630236
91,10,21,Ticks_Linear_5,90,9999,9999,9999,1499290688
91,10,21,Ticks_Linear_5,91,9999,9999,9999,1499950144
91,10,21,Ticks_Linear_5,92,9999,9999,9999,1500610628
91,10,21,Ticks_Linear_5,93,9999,9999,9999,1501270088
91,10,21,Ticks_Linear_5,94,9999,9999,9999,1501930568
91,10,21,Ticks_Linear_5,95,9999,9999,9999,1502600288
91,10,21,Ticks_Linear_5,96,9999,9999,9999,1503270980
91,10,21,Ticks_Linear_5,97,9999,9999,9999,1503940672
91,10,21,Ticks_Linear_5,98,9999,9999,9999,1504610392
91,10,21,Ticks_Linear_5,99,9999,9999,9999,1505280088
91,10,21,Ticks_Linear_5,100,9999,9999,9999,1505961040
91,10,21,Ticks_Linear_5,101,9999,9999,9999,1506641016
91,10,21,Ticks_Linear_5,102,9999,9999,9999,1507320896
91,10,21,Ticks_Linear_5,103,9999,9999,9999,1508000872
91,10,21,Ticks_Linear_5,104,9999,9999,9999,1508680776
91,10,21,Ticks_Linear_5,105,9999,9999,9999,1509370988
91,10,21,Ticks_Linear_5,106,9999,9999,9999,1510060104
91,10,21,Ticks_Linear_5,107,9999,9999,9999,1510750268
91,10,21,Ticks_Linear_5,108,9999,9999,9999,1511440480
91,10,21,Ticks_Linear_5,109,9999,9999,9999,1512130640
91,10,21,Ticks_Linear_5,110,9999,9999,9999,1512831064
91,10,21,Ticks_Linear_5,111,9999,9999,9999,1513530440
91,10,21,Ticks_Linear_5,112,9999,9999,9999,1514230836
91,10,21,Ticks_Linear_5,113,9999,9999,9999,1514930288
91,10,21,Ticks_Linear_5,114,9999,9999,9999,1515630708
91,10,21,Ticks_Linear_5,115,9999,9999,9999,1516340344
91,10,21,Ticks_Linear_5,116,9999,9999,9999,1517050996
91,10,21,Ticks_Linear_5,117,9999,9999,9999,1517760632
91,10,21,Ticks_Linear_5,118,9999,9999,9999,1518470264
91,10,21,Ticks_Linear_5,119,9999,9999,9999,1519180872
91,10,21,Ticks_Linear_5,120,9999,9999,9999,1519900740
91,10,21,Ticks_Linear_5,121,9999,9999,9999,1520620640
91,10,21,Ticks_Linear_5,122,9999,9999,9999,1521340528
91,10,21,Ticks_Linear_5,123,9999,9999,9999,1522060348
91,10,21,Ticks_Linear_5,124,9999,9999,9999,1522780240
91,10,21,Ticks_Linear_5,125,9999,9999,9999,1523510392
91,10,21,Ticks_Linear_5,126,9999,9999,9999,1524240452
91,10,21,Ticks_Linear_5,127,9999,9999,9999,1524970604
91,10,21,Ticks_Linear_5,128,9999,9999,9999,1525700676
91,10,21,Ticks_Linear_5,129,9999,9999,9999,1526430828
91,10,21,Ticks_Linear_5,130,9999,9999,9999,1527170116
91,10,21,Ticks_Linear_5,131,9999,9999,9999,1527910456
91,10,21,Ticks_Linear_5,132,9999,9999,9999,1528650868
91,10,21,Ticks_Linear_5,133,9999,9999,9999,1529390160
91,10,21,Ticks_Linear_5,134,9999,9999,9999,1530130544
91,10,21,Ticks_Linear_5,135,9999,9999,9999,1530880096
91,10,21,Ticks_Linear_5,136,9999,9999,9999,1531630692
91,10,21,Ticks_Linear_5,137,9999,9999,9999,1532380240
91,10,21,Ticks_Linear_5,138,9999,9999,9999,1533130836
91,10,21,Ticks_Linear_5,139,9999,9999,9999,1533880384
91,10,21,Ticks_Linear_5,140,9999,9999,9999,1534640196
91,10,21,Ticks_Linear_5,141,9999,9999,9999,1535401052
91,10,21,Ticks_Linear_5,142,9999,9999,9999,1536160860
91,10,21,Ticks_Linear_5,143,9999,9999,9999,1536920668
91,10,21,Ticks_Linear_5,144,9999,9999,9999,1537680476
91,10,21,Ticks_Linear_5,145,9999,9999,9999,1538450544
91,10,21,Ticks_Linear_5,146,9999,9999,9999,1539220540
91,10,21,Ticks_Linear_5,147,9999,9999,9999,1539990608
91,10,21,Ticks_Linear_5,148,9999,9999,9999,1540760676
91,10,21,Ticks_Linear_5,149,9999,9999,9999,1541530744
91,10,21,Ticks_Linear_5,150,9999,9999,9999,1542310996
91,10,21,Ticks_Linear_5,151,9999,9999,9999,1543090272
91,10,21,Ticks_Linear_5,152,9999,9999,9999,1543870528
91,10,21,Ticks_Linear_5,153,9999,9999,9999,1544650860
91,10,21,Ticks_Linear_5,154,9999,9999,9999,1545430136
91,10,21,Ticks_Linear_5,155,9999,9999,9999,1546220648
91,10,21,Ticks_Linear_5,156,9999,9999,9999,1547010172
91,10,21,Ticks_Linear_5,157,9999,9999,9999,1547800684
91,10,21,Ticks_Linear_5,158,9999,9999,9999,1548590172
91,10,21,Ticks_Linear_5,159,9999,9999,9999,1549380684
91,10,21,Ticks_Linear_5,160,9999,9999,9999,1550180408
91,10,21,Ticks_Linear_5,161,9999,9999,9999,1550980220
91,10,21,Ticks_Linear_5,162,9999,9999,9999,1551780976
91,10,21,Ticks_Linear_5,163,9999,9999,9999,1552580700
91,10,21,Ticks_Linear_5,164,9999,9999,9999,1553380440
91,10,21,Ticks_Linear_5,165,9999,9999,9999,1554190424
91,10,21,Ticks_Linear_5,166,9999,9999,9999,1555000432
91,10,21,Ticks_Linear_5,167,9999,9999,9999,1555810416
91,10,21,Ticks_Linear_5,168,9999,9999,9999,1556620404
91,10,21,Ticks_Linear_5,169,9999,9999,9999,1557430380
91,11,25,Jits_Pract_5,0,5,56,103,1600770392
91,11,25,Jits_Pract_5,1,5,63,98,1600773560
91,11,25,Jits_Pract_5,2,5,80,127,1600776908
91,11,25,Jits_Pract_5,0,5,56,103,1601271236
91,11,25,Jits_Pract_5,1,5,63,98,1601274108
91,11,25,Jits_Pract_5,2,5,80,127,1601277604
91,11,25,Jits_Pract_5,0,5,56,103,1601770980
91,11,25,Jits_Pract_5,1,5,80,127,1601781248
91,11,25,Jits_Pract_5,2,5,63,98,1601800736
91,11,25,Jits_Pract_5,0,5,63,98,1602221572
91,11,25,Jits_Pract_5,1,5,80,127,1602251176
91,11,25,Jits_Pract_5,2,5,56,103,1602261296
91,11,25,Jits_Pract_5,0,5,80,127,1602780640
91,11,25,Jits_Pract_5,1,5,56,103,1602790760
91,11,25,Jits_Pract_5,2,5,63,98,1602820660
91,11,25,Jits_Pract_5,0,5,63,98,1603271020
91,11,25,Jits_Pract_5,1,5,56,103,1603300916
91,11,25,Jits_Pract_5,2,5,80,127,1603311040
91,11,25,Jits_Pract_5,0,5,56,103,1603720704
91,11,25,Jits_Pract_5,1,5,63,98,1603770832
91,11,25,Jits_Pract_5,2,5,80,127,1603791364
91,11,25,Jits_Pract_5,0,5,80,127,1604221344
91,11,25,Jits_Pract_5,1,5,63,98,1604270572
91,11,25,Jits_Pract_5,2,5,56,103,1604311260
91,11,25,Jits_Pract_5,0,5,56,103,1604720940
91,11,25,Jits_Pract_5,1,5,63,98,1604750912
91,11,25,Jits_Pract_5,2,5,80,127,1604821340
91,11,25,Jits_Pract_5,0,5,56,103,1605220756
91,11,25,Jits_Pract_5,1,5,80,127,1605281000
91,11,25,Jits_Pract_5,2,5,63,98,1605310824
91,11,25,Jits_Pract_5,0,5,56,103,1605730688
91,11,25,Jits_Pract_5,1,5,63,98,1605741036
91,11,25,Jits_Pract_5,2,5,80,127,1605780972
91,11,25,Jits_Pract_5,0,5,63,98,1606221140
91,11,25,Jits_Pract_5,1,5,80,127,1606301008
91,11,25,Jits_Pract_5,2,5,56,103,1606311204
91,11,25,Jits_Pract_5,0,5,63,98,1606770920
91,11,25,Jits_Pract_5,1,5,56,103,1606811080
91,11,25,Jits_Pract_5,2,5,80,127,1606813920
91,11,25,Jits_Pract_5,0,5,56,103,1607230708
91,11,25,Jits_Pract_5,1,5,63,98,1607241052
91,11,25,Jits_Pract_5,2,5,80,127,1607281064
91,11,25,Jits_Pract_5,0,5,56,103,1607721376
91,11,25,Jits_Pract_5,1,5,63,98,1607724296
91,11,25,Jits_Pract_5,2,5,80,127,1607740716
91,11,25,Jits_Pract_5,0,9999,9999,9999,1601018948
91,11,25,Jits_Pract_5,1,9999,9999,9999,1601518672
91,11,25,Jits_Pract_5,2,9999,9999,9999,1602018420
91,11,25,Jits_Pract_5,3,9999,9999,9999,1602518084
91,11,25,Jits_Pract_5,4,9999,9999,9999,1603018864
91,11,25,Jits_Pract_5,5,9999,9999,9999,1603518536
91,11,25,Jits_Pract_5,6,9999,9999,9999,1604018260
91,11,25,Jits_Pract_5,7,9999,9999,9999,1604518980
91,11,25,Jits_Pract_5,8,9999,9999,9999,1605018724
91,11,25,Jits_Pract_5,9,9999,9999,9999,1605518392
91,11,25,Jits_Pract_5,10,9999,9999,9999,1606018136
91,11,25,Jits_Pract_5,11,9999,9999,9999,1606518848
91,11,25,Jits_Pract_5,12,9999,9999,9999,1607018572
91,11,25,Jits_Pract_5,13,9999,9999,9999,1607518300
91,11,25,Jits_Pract_5,14,9999,9999,9999,1608019000
91,12,24,Jits_Pract_8,0,5,56,103,1666808096
91,12,24,Jits_Pract_8,1,5,63,98,1666811264
91,12,24,Jits_Pract_8,2,5,80,127,1666814388
91,12,24,Jits_Pract_8,0,5,56,103,1667608036
91,12,24,Jits_Pract_8,1,5,63,98,1667610980
91,12,24,Jits_Pract_8,2,5,80,127,1667614276
91,12,24,Jits_Pract_8,3,1,48,20,1667846424
91,12,24,Jits_Pract_8,0,5,80,127,1668348236
91,12,24,Jits_Pract_8,1,1,48,37,1668398140
91,12,24,Jits_Pract_8,2,5,63,98,1668438240
91,12,24,Jits_Pract_8,3,5,56,103,1668447688
91,12,24,Jits_Pract_8,4,1,48,18,1668490192
91,12,24,Jits_Pract_8,0,1,48,40,1669163756
91,12,24,Jits_Pract_8,1,5,56,103,1669167760
91,12,24,Jits_Pract_8,2,5,63,98,1669177884
91,12,24,Jits_Pract_8,3,1,48,24,1669236580
91,12,24,Jits_Pract_8,4,5,80,127,1669267768
91,12,24,Jits_Pract_8,0,5,63,98,1669937588
91,12,24,Jits_Pract_8,1,1,48,37,1669944896
91,12,24,Jits_Pract_8,2,5,80,127,1669968380
91,12,24,Jits_Pract_8,3,5,56,103,1669998052
91,12,24,Jits_Pract_8,0,1,48,48,1670701416
91,12,24,Jits_Pract_8,1,5,56,103,1670738232
91,12,24,Jits_Pract_8,2,5,80,127,1670837716
91,12,24,Jits_Pract_8,3,5,63,98,1670887916
91,12,24,Jits_Pract_8,0,1,48,44,1671530244
91,12,24,Jits_Pract_8,1,5,56,103,1671538064
91,12,24,Jits_Pract_8,2,5,80,127,1671588192
91,12,24,Jits_Pract_8,3,5,63,98,1671628040
91,12,24,Jits_Pract_8,0,1,48,40,1672343780
91,12,24,Jits_Pract_8,1,5,80,127,1672367712
91,12,24,Jits_Pract_8,2,5,63,98,1672398208
91,12,24,Jits_Pract_8,3,5,56,103,1672467800
91,12,24,Jits_Pract_8,0,5,63,98,1673197892
91,12,24,Jits_Pract_8,1,1,48,32,1673204004
91,12,24,Jits_Pract_8,2,5,56,103,1673227636
91,12,24,Jits_Pract_8,3,5,80,127,1673287976
91,12,24,Jits_Pract_8,0,5,56,103,1673938240
91,12,24,Jits_Pract_8,1,5,80,127,1673941232
91,12,24,Jits_Pract_8,2,1,48,40,1674000016
91,12,24,Jits_Pract_8,3,5,63,98,1674058052
91,12,24,Jits_Pract_8,0,1,48,41,1674795688
91,12,24,Jits_Pract_8,1,5,56,103,1674817888
91,12,24,Jits_Pract_8,2,5,80,127,1674857900
91,12,24,Jits_Pract_8,3,5,63,98,1674868020
91,12,24,Jits_Pract_8,0,5,56,103,1675577796
91,12,24,Jits_Pract_8,1,1,48,35,1675598628
91,12,24,Jits_Pract_8,2,5,80,127,1675599816
91,12,24,Jits_Pract_8,3,5,63,98,1675678120
91,12,24,Jits_Pract_8,0,5,80,127,1676368428
91,12,24,Jits_Pract_8,1,1,48,42,1676414396
91,12,24,Jits_Pract_8,2,5,56,103,1676467700
91,12,24,Jits_Pract_8,3,5,63,98,1676477820
91,12,24,Jits_Pract_8,0,5,63,98,1677138236
91,12,24,Jits_Pract_8,1,5,80,127,1677197804
91,12,24,Jits_Pract_8,2,5,56,103,1677207852
91,12,24,Jits_Pract_8,3,1,48,40,1677222356
91,12,24,Jits_Pract_8,0,5,56,103,1677937992
91,12,24,Jits_Pract_8,1,1,48,47,1677984408
91,12,24,Jits_Pract_8,2,5,63,98,1678007664
91,12,24,Jits_Pract_8,3,5,80,127,1678010880
91,12,24,Jits_Pract_8,0,9999,9999,9999,1667205228
91,12,24,Jits_Pract_8,1,9999,9999,9999,1668005968
91,12,24,Jits_Pract_8,2,9999,9999,9999,1668805716
91,12,24,Jits_Pract_8,3,9999,9999,9999,1669605440
91,12,24,Jits_Pract_8,4,9999,9999,9999,1670405172
91,12,24,Jits_Pract_8,5,9999,9999,9999,1671206004
91,12,24,Jits_Pract_8,6,9999,9999,9999,1672005680
91,12,24,Jits_Pract_8,7,9999,9999,9999,1672805440
91,12,24,Jits_Pract_8,8,9999,9999,9999,1673605200
91,12,24,Jits_Pract_8,9,9999,9999,9999,1674405992
91,12,24,Jits_Pract_8,10,9999,9999,9999,1675205696
91,12,24,Jits_Pract_8,11,9999,9999,9999,1676005456
91,12,24,Jits_Pract_8,12,9999,9999,9999,1676805232
91,12,24,Jits_Pract_8,13,9999,9999,9999,1677605996
91,12,24,Jits_Pract_8,14,9999,9999,9999,1678405744
91,13,25,Jits_Pract_5,0,5,56,103,1701843256
91,13,25,Jits_Pract_5,1,5,63,98,1701846280
91,13,25,Jits_Pract_5,2,5,80,127,1701849476
91,13,25,Jits_Pract_5,0,5,56,103,1702343132
91,13,25,Jits_Pract_5,1,5,63,98,1702346232
91,13,25,Jits_Pract_5,2,5,80,127,1702349276
91,13,25,Jits_Pract_5,0,1,48,39,1702835796
91,13,25,Jits_Pract_5,1,5,56,103,1702842720
91,13,25,Jits_Pract_5,2,5,80,127,1702853140
91,13,25,Jits_Pract_5,3,5,63,98,1702872328
91,13,25,Jits_Pract_5,0,5,63,98,1703293340
91,13,25,Jits_Pract_5,1,5,80,127,1703323240
91,13,25,Jits_Pract_5,2,1,48,45,1703331472
91,13,25,Jits_Pract_5,3,5,56,103,1703333132
91,13,25,Jits_Pract_5,0,1,48,45,1703814208
91,13,25,Jits_Pract_5,1,5,80,127,1703853340
91,13,25,Jits_Pract_5,2,5,56,103,1703862860
91,13,25,Jits_Pract_5,3,5,63,98,1703893284
91,13,25,Jits_Pract_5,0,1,48,39,1704325216
91,13,25,Jits_Pract_5,1,5,63,98,1704342996
91,13,25,Jits_Pract_5,2,5,56,103,1704372596
91,13,25,Jits_Pract_5,3,5,80,127,1704383088
91,13,25,Jits_Pract_5,0,5,56,103,1704792496
91,13,25,Jits_Pract_5,1,5,63,98,1704842552
91,13,25,Jits_Pract_5,2,1,48,44,1704860888
91,13,25,Jits_Pract_5,3,5,80,127,1704863000
91,13,25,Jits_Pract_5,0,5,80,127,1705293096
91,13,25,Jits_Pract_5,1,5,63,98,1705343448
91,13,25,Jits_Pract_5,2,1,48,38,1705363732
91,13,25,Jits_Pract_5,3,5,56,103,1705383232
91,13,25,Jits_Pract_5,0,5,56,103,1705793024
91,13,25,Jits_Pract_5,1,5,63,98,1705822628
91,13,25,Jits_Pract_5,2,1,48,40,1705855264
91,13,25,Jits_Pract_5,3,5,80,127,1705893120
91,13,25,Jits_Pract_5,0,5,56,103,1706292656
91,13,25,Jits_Pract_5,1,1,48,36,1706324468
91,13,25,Jits_Pract_5,2,5,80,127,1706352964
91,13,25,Jits_Pract_5,3,5,63,98,1706382640
91,13,25,Jits_Pract_5,0,5,56,103,1706802476
91,13,25,Jits_Pract_5,1,1,48,38,1706811688
91,13,25,Jits_Pract_5,2,5,63,98,1706813408
91,13,25,Jits_Pract_5,3,5,80,127,1706852676
91,13,25,Jits_Pract_5,0,1,48,43,1707286080
91,13,25,Jits_Pract_5,1,5,63,98,1707293028
91,13,25,Jits_Pract_5,2,5,80,127,1707373124
91,13,25,Jits_Pract_5,3,5,56,103,1707383228
91,13,25,Jits_Pract_5,0,1,48,36,1707812548
91,13,25,Jits_Pract_5,1,5,63,98,1707843068
91,13,25,Jits_Pract_5,2,5,56,103,1707883076
91,13,25,Jits_Pract_5,3,5,80,127,1707886144
91,13,25,Jits_Pract_5,0,5,56,103,1708302576
91,13,25,Jits_Pract_5,1,5,63,98,1708313220
91,13,25,Jits_Pract_5,2,1,48,40,1708324884
91,13,25,Jits_Pract_5,3,5,80,127,1708353004
91,13,25,Jits_Pract_5,0,5,56,103,1708793104
91,13,25,Jits_Pract_5,1,5,63,98,1708796248
91,13,25,Jits_Pract_5,2,1,48,44,1708803572
91,13,25,Jits_Pract_5,3,5,80,127,1708812736
91,13,25,Jits_Pract_5,0,9999,9999,9999,1702090844
91,13,25,Jits_Pract_5,1,9999,9999,9999,1702590568
91,13,25,Jits_Pract_5,2,9999,9999,9999,1703090292
91,13,25,Jits_Pract_5,3,9999,9999,9999,1703591028
91,13,25,Jits_Pract_5,4,9999,9999,9999,1704090728
91,13,25,Jits_Pract_5,5,9999,9999,9999,1704590420
91,13,25,Jits_Pract_5,6,9999,9999,9999,1705090108
91,13,25,Jits_Pract_5,7,9999,9999,9999,1705590860
91,13,25,Jits_Pract_5,8,9999,9999,9999,1706090564
91,13,25,Jits_Pract_5,9,9999,9999,9999,1706590268
91,13,25,Jits_Pract_5,10,9999,9999,9999,1707091020
91,13,25,Jits_Pract_5,11,9999,9999,9999,1707590728
91,13,25,Jits_Pract_5,12,9999,9999,9999,1708090484
91,13,25,Jits_Pract_5,13,9999,9999,9999,1708590148
91,13,25,Jits_Pract_5,14,9999,9999,9999,1709090884
91,14,15,Jits_Phase_8,0,5,56,103,1733304808
91,14,15,Jits_Phase_8,1,5,63,98,1733307756
91,14,15,Jits_Phase_8,2,5,80,127,1733311028
91,14,15,Jits_Phase_8,0,1,48,18,1734022772
91,14,15,Jits_Phase_8,1,5,56,103,1734104664
91,14,15,Jits_Phase_8,2,5,63,98,1734107764
91,14,15,Jits_Phase_8,3,5,80,127,1734110888
91,14,15,Jits_Phase_8,0,1,48,39,1734808412
91,14,15,Jits_Phase_8,1,5,80,127,1734844708
91,14,15,Jits_Phase_8,2,5,63,98,1734934828
91,14,15,Jits_Phase_8,3,5,56,103,1734945124
91,14,15,Jits_Phase_8,0,1,48,42,1735659940
91,14,15,Jits_Phase_8,1,5,56,103,1735665068
91,14,15,Jits_Phase_8,2,5,63,98,1735675192
91,14,15,Jits_Phase_8,3,5,80,127,1735765556
91,14,15,Jits_Phase_8,0,1,48,48,1736394748
91,14,15,Jits_Phase_8,1,5,63,98,1736434936
91,14,15,Jits_Phase_8,2,5,80,127,1736464760
91,14,15,Jits_Phase_8,3,5,56,103,1736494592
91,14,15,Jits_Phase_8,0,1,48,43,1737194056
91,14,15,Jits_Phase_8,1,5,56,103,1737234760
91,14,15,Jits_Phase_8,2,5,80,127,1737335168
91,14,15,Jits_Phase_8,3,5,63,98,1737385668
91,14,15,Jits_Phase_8,0,5,56,103,1738034704
91,14,15,Jits_Phase_8,1,1,48,48,1738064572
91,14,15,Jits_Phase_8,2,5,80,127,1738084676
91,14,15,Jits_Phase_8,3,5,63,98,1738124612
91,14,15,Jits_Phase_8,0,1,48,43,1738824180
91,14,15,Jits_Phase_8,1,5,80,127,1738864960
91,14,15,Jits_Phase_8,2,5,63,98,1738894636
91,14,15,Jits_Phase_8,3,5,56,103,1738965568
91,14,15,Jits_Phase_8,0,1,48,47,1739667684
91,14,15,Jits_Phase_8,1,5,63,98,1739694384
91,14,15,Jits_Phase_8,2,5,56,103,1739725108
91,14,15,Jits_Phase_8,3,5,80,127,1739784732
91,14,15,Jits_Phase_8,0,5,56,103,1740434740
91,14,15,Jits_Phase_8,1,5,80,127,1740437804
91,14,15,Jits_Phase_8,2,1,48,46,1740486328
91,14,15,Jits_Phase_8,3,5,63,98,1740554828
91,14,15,Jits_Phase_8,0,1,48,40,1741268924
91,14,15,Jits_Phase_8,1,5,56,103,1741314588
91,14,15,Jits_Phase_8,2,5,80,127,1741355448
91,14,15,Jits_Phase_8,3,5,63,98,1741364744
91,14,15,Jits_Phase_8,0,5,56,103,1742075544
91,14,15,Jits_Phase_8,1,1,48,40,1742092140
91,14,15,Jits_Phase_8,2,5,80,127,1742094652
91,14,15,Jits_Phase_8,3,5,63,98,1742174692
91,14,15,Jits_Phase_8,0,5,80,127,1742864756
91,14,15,Jits_Phase_8,1,1,48,45,1742873652
91,14,15,Jits_Phase_8,2,5,56,103,1742964996
91,14,15,Jits_Phase_8,3,5,63,98,1742975400
91,14,15,Jits_Phase_8,0,5,63,98,1743634908
91,14,15,Jits_Phase_8,1,1,48,45,1743683236
91,14,15,Jits_Phase_8,2,5,80,127,1743695172
91,14,15,Jits_Phase_8,3,5,56,103,1743704544
91,14,15,Jits_Phase_8,0,1,48,43,1744386904
91,14,15,Jits_Phase_8,1,5,56,103,1744434832
91,14,15,Jits_Phase_8,2,5,63,98,1744505172
91,14,15,Jits_Phase_8,3,5,80,127,1744508756
91,14,15,Jits_Phase_8,0,1,48,44,1745173168
91,14,15,Jits_Phase_8,1,5,63,98,1745265068
91,14,15,Jits_Phase_8,2,5,56,103,1745315476
91,14,15,Jits_Phase_8,3,5,80,127,1745318616
91,14,15,Jits_Phase_8,0,1,48,51,1745980648
91,14,15,Jits_Phase_8,1,5,56,103,1746024880
91,14,15,Jits_Phase_8,2,5,80,127,1746028092
91,14,15,Jits_Phase_8,3,5,63,98,1746114996
91,14,15,Jits_Phase_8,0,1,48,43,1746772144
91,14,15,Jits_Phase_8,1,5,63,98,1746864632
91,14,15,Jits_Phase_8,2,5,56,103,1746954604
91,14,15,Jits_Phase_8,3,5,80,127,1746985500
91,14,15,Jits_Phase_8,0,1,48,55,1747640012
91,14,15,Jits_Phase_8,1,5,56,103,1747654880
91,14,15,Jits_Phase_8,2,5,63,98,1747755660
91,14,15,Jits_Phase_8,3,5,80,127,1747785112
91,14,15,Jits_Phase_8,0,5,63,98,1748475104
91,14,15,Jits_Phase_8,1,1,48,47,1748479268
91,14,15,Jits_Phase_8,2,5,56,103,1748484620
91,14,15,Jits_Phase_8,3,5,80,127,1748574536
91,14,15,Jits_Phase_8,0,1,48,49,1749265768
91,14,15,Jits_Phase_8,1,5,63,98,1749294664
91,14,15,Jits_Phase_8,2,5,56,103,1749375416
91,14,15,Jits_Phase_8,3,5,80,127,1749378556
91,14,15,Jits_Phase_8,0,5,80,127,1750055388
91,14,15,Jits_Phase_8,1,1,48,49,1750057980
91,14,15,Jits_Phase_8,2,5,63,98,1750074720
91,14,15,Jits_Phase_8,3,5,56,103,1750135184
91,14,15,Jits_Phase_8,0,1,48,56,1750830020
91,14,15,Jits_Phase_8,1,5,56,103,1750895012
91,14,15,Jits_Phase_8,2,5,63,98,1750914348
91,14,15,Jits_Phase_8,3,5,80,127,1750917640
91,14,15,Jits_Phase_8,0,1,48,43,1751631864
91,14,15,Jits_Phase_8,1,5,63,98,1751635496
91,14,15,Jits_Phase_8,2,5,80,127,1751715368
91,14,15,Jits_Phase_8,3,5,56,103,1751725344
91,14,15,Jits_Phase_8,0,5,63,98,1752454444
91,14,15,Jits_Phase_8,1,1,48,48,1752460780
91,14,15,Jits_Phase_8,2,5,56,103,1752474972
91,14,15,Jits_Phase_8,3,5,80,127,1752525020
91,14,15,Jits_Phase_8,0,1,48,48,1753250708
91,14,15,Jits_Phase_8,1,5,80,127,1753255388
91,14,15,Jits_Phase_8,2,5,63,98,1753295252
91,14,15,Jits_Phase_8,3,5,56,103,1753314592
91,14,15,Jits_Phase_8,0,1,48,43,1754054152
91,14,15,Jits_Phase_8,1,5,56,103,1754095152
91,14,15,Jits_Phase_8,2,5,63,98,1754105276
91,14,15,Jits_Phase_8,3,5,80,127,1754124836
91,14,15,Jits_Phase_8,0,5,56,103,1754825168
91,14,15,Jits_Phase_8,1,1,48,38,1754843508
91,14,15,Jits_Phase_8,2,5,63,98,1754915320
91,14,15,Jits_Phase_8,3,5,80,127,1754974572
91,14,15,Jits_Phase_8,0,5,80,127,1755654536
91,14,15,Jits_Phase_8,1,1,48,49,1755658176
91,14,15,Jits_Phase_8,2,5,56,103,1755664800
91,14,15,Jits_Phase_8,3,5,63,98,1755735552
91,14,15,Jits_Phase_8,0,5,63,98,1756484900
91,14,15,Jits_Phase_8,1,1,48,54,1756490632
91,14,15,Jits_Phase_8,2,5,80,127,1756575024
91,14,15,Jits_Phase_8,3,5,56,103,1756585592
91,14,15,Jits_Phase_8,0,5,63,98,1757215504
91,14,15,Jits_Phase_8,1,5,80,127,1757265408
91,14,15,Jits_Phase_8,2,5,56,103,1757324676
91,14,15,Jits_Phase_8,3,1,48,45,1757352732
91,14,15,Jits_Phase_8,0,5,56,103,1758035564
91,14,15,Jits_Phase_8,1,5,80,127,1758084496
91,14,15,Jits_Phase_8,2,1,48,47,1758099296
91,14,15,Jits_Phase_8,3,5,63,98,1758104948
91,14,15,Jits_Phase_8,0,5,56,103,1758805436
91,14,15,Jits_Phase_8,1,1,48,51,1758852620
91,14,15,Jits_Phase_8,2,5,80,127,1758864704
91,14,15,Jits_Phase_8,3,5,63,98,1758935280
91,14,15,Jits_Phase_8,0,5,56,103,1759605356
91,14,15,Jits_Phase_8,1,5,80,127,1759634884
91,14,15,Jits_Phase_8,2,1,48,51,1759646396
91,14,15,Jits_Phase_8,3,5,63,98,1759664552
91,14,15,Jits_Phase_8,0,1,48,48,1760402088
91,14,15,Jits_Phase_8,1,5,56,103,1760444756
91,14,15,Jits_Phase_8,2,5,80,127,1760465512
91,14,15,Jits_Phase_8,3,5,63,98,1760524688
91,14,15,Jits_Phase_8,0,1,48,48,1761214816
91,14,15,Jits_Phase_8,1,5,80,127,1761325284
91,14,15,Jits_Phase_8,2,5,56,103,1761334584
91,14,15,Jits_Phase_8,3,5,63,98,1761345376
91,14,15,Jits_Phase_8,0,1,48,41,1762044404
91,14,15,Jits_Phase_8,1,5,56,103,1762085208
91,14,15,Jits_Phase_8,2,5,80,127,1762125220
91,14,15,Jits_Phase_8,3,5,63,98,1762154732
91,14,15,Jits_Phase_8,0,5,56,103,1762855456
91,14,15,Jits_Phase_8,1,1,48,41,1762869588
91,14,15,Jits_Phase_8,2,5,63,98,1762884828
91,14,15,Jits_Phase_8,3,5,80,127,1762924916
91,14,15,Jits_Phase_8,0,5,80,127,1763604784
91,14,15,Jits_Phase_8,1,1,48,48,1763628528
91,14,15,Jits_Phase_8,2,5,63,98,1763655300
91,14,15,Jits_Phase_8,3,5,56,103,1763674344
91,14,15,Jits_Phase_8,0,1,48,49,1764418396
91,14,15,Jits_Phase_8,1,5,56,103,1764435208
91,14,15,Jits_Phase_8,2,5,80,127,1764505040
91,14,15,Jits_Phase_8,3,5,63,98,1764565416
91,14,15,Jits_Phase_8,0,5,80,127,1765235272
91,14,15,Jits_Phase_8,1,1,48,43,1765238388
91,14,15,Jits_Phase_8,2,5,63,98,1765325248
91,14,15,Jits_Phase_8,3,5,56,103,1765344572
91,14,15,Jits_Phase_8,0,5,63,98,1766055424
91,14,15,Jits_Phase_8,1,1,48,47,1766056760
91,14,15,Jits_Phase_8,2,5,56,103,1766074680
91,14,15,Jits_Phase_8,3,5,80,127,1766114616
91,14,15,Jits_Phase_8,0,5,80,127,1766815172
91,14,15,Jits_Phase_8,1,5,63,98,1766834660
91,14,15,Jits_Phase_8,2,1,48,46,1766860100
91,14,15,Jits_Phase_8,3,5,56,103,1766914444
91,14,15,Jits_Phase_8,0,5,63,98,1767604528
91,14,15,Jits_Phase_8,1,1,48,48,1767695300
91,14,15,Jits_Phase_8,2,5,56,103,1767715280
91,14,15,Jits_Phase_8,3,5,80,127,1767718272
91,14,15,Jits_Phase_8,0,5,63,98,1768424728
91,14,15,Jits_Phase_8,1,5,56,103,1768435072
91,14,15,Jits_Phase_8,2,5,80,127,1768438360
91,14,15,Jits_Phase_8,3,1,48,48,1768447924
91,14,15,Jits_Phase_8,0,1,48,35,1769169284
91,14,15,Jits_Phase_8,1,5,56,103,1769205056
91,14,15,Jits_Phase_8,2,5,80,127,1769324868
91,14,15,Jits_Phase_8,3,5,63,98,1769364804
91,14,15,Jits_Phase_8,0,1,48,41,1769993260
91,14,15,Jits_Phase_8,1,5,56,103,1770025364
91,14,15,Jits_Phase_8,2,5,80,127,1770105372
91,14,15,Jits_Phase_8,3,5,63,98,1770124636
91,14,15,Jits_Phase_8,0,1,48,43,1770824604
91,14,15,Jits_Phase_8,1,5,56,103,1770826244
91,14,15,Jits_Phase_8,2,5,63,98,1770934648
91,14,15,Jits_Phase_8,3,5,80,127,1770938084
91,14,15,Jits_Phase_8,0,1,48,45,1771649784
91,14,15,Jits_Phase_8,1,5,56,103,1771664876
91,14,15,Jits_Phase_8,2,5,80,127,1771694404
91,14,15,Jits_Phase_8,3,5,63,98,1771715088
91,14,15,Jits_Phase_8,0,1,48,42,1772442740
91,14,15,Jits_Phase_8,1,5,63,98,1772455416
91,14,15,Jits_Phase_8,2,5,56,103,1772464568
91,14,15,Jits_Phase_8,3,5,80,127,1772474688
91,14,15,Jits_Phase_8,0,1,48,50,1773195432
91,14,15,Jits_Phase_8,1,5,80,127,1773244832
91,14,15,Jits_Phase_8,2,5,56,103,1773295240
91,14,15,Jits_Phase_8,3,5,63,98,1773334956
91,14,15,Jits_Phase_8,0,1,48,37,1774045836
91,14,15,Jits_Phase_8,1,5,80,127,1774065188
91,14,15,Jits_Phase_8,2,5,63,98,1774084380
91,14,15,Jits_Phase_8,3,5,56,103,1774134604
91,14,15,Jits_Phase_8,0,1,48,46,1774862904
91,14,15,Jits_Phase_8,1,5,80,127,1774875160
91,14,15,Jits_Phase_8,2,5,56,103,1774904612
91,14,15,Jits_Phase_8,3,5,63,98,1774975324
91,14,15,Jits_Phase_8,0,1,48,52,1775671444
91,14,15,Jits_Phase_8,1,5,56,103,1775725044
91,14,15,Jits_Phase_8,2,5,80,127,1775735316
91,14,15,Jits_Phase_8,3,5,63,98,1775775164
91,14,15,Jits_Phase_8,0,5,56,103,1776434684
91,14,15,Jits_Phase_8,1,5,63,98,1776454996
91,14,15,Jits_Phase_8,2,1,48,42,1776490848
91,14,15,Jits_Phase_8,3,5,80,127,1776524592
91,14,15,Jits_Phase_8,0,1,48,41,1777248052
91,14,15,Jits_Phase_8,1,5,63,98,1777254676
91,14,15,Jits_Phase_8,2,5,80,127,1777315364
91,14,15,Jits_Phase_8,3,5,56,103,1777334700
91,14,15,Jits_Phase_8,0,5,80,127,1778045224
91,14,15,Jits_Phase_8,1,5,56,103,1778074972
91,14,15,Jits_Phase_8,2,1,48,46,1778086040
91,14,15,Jits_Phase_8,3,5,63,98,1778104568
91,14,15,Jits_Phase_8,0,5,56,103,1778845140
91,14,15,Jits_Phase_8,1,1,48,46,1778889608
91,14,15,Jits_Phase_8,2,5,63,98,1778904556
91,14,15,Jits_Phase_8,3,5,80,127,1778964792
91,14,15,Jits_Phase_8,0,1,48,43,1779663628
91,14,15,Jits_Phase_8,1,5,80,127,1779665136
91,14,15,Jits_Phase_8,2,5,56,103,1779684772
91,14,15,Jits_Phase_8,3,5,63,98,1779755304
91,14,15,Jits_Phase_8,0,1,48,42,1780464828
91,14,15,Jits_Phase_8,1,5,80,127,1780466164
91,14,15,Jits_Phase_8,2,5,63,98,1780484456
91,14,15,Jits_Phase_8,3,5,56,103,1780515352
91,14,15,Jits_Phase_8,0,5,80,127,1781254472
91,14,15,Jits_Phase_8,1,5,63,98,1781275180
91,14,15,Jits_Phase_8,2,1,48,43,1781303252
91,14,15,Jits_Phase_8,3,5,56,103,1781335488
91,14,15,Jits_Phase_8,0,5,80,127,1782055392
91,14,15,Jits_Phase_8,1,1,48,50,1782067948
91,14,15,Jits_Phase_8,2,5,56,103,1782154584
91,14,15,Jits_Phase_8,3,5,63,98,1782185368
91,14,15,Jits_Phase_8,0,5,63,98,1782844904
91,14,15,Jits_Phase_8,1,1,48,49,1782883244
91,14,15,Jits_Phase_8,2,5,80,127,1782895100
91,14,15,Jits_Phase_8,3,5,56,103,1782914364
91,14,15,Jits_Phase_8,0,1,48,51,1783684064
91,14,15,Jits_Phase_8,1,5,80,127,1783685560
91,14,15,Jits_Phase_8,2,5,56,103,1783715308
91,14,15,Jits_Phase_8,3,5,63,98,1783718224
91,14,15,Jits_Phase_8,0,1,48,45,1784453524
91,14,15,Jits_Phase_8,1,5,63,98,1784535508
91,14,15,Jits_Phase_8,2,5,56,103,1784575208
91,14,15,Jits_Phase_8,3,5,80,127,1784594916
91,14,15,Jits_Phase_8,0,5,80,127,1785295196
91,14,15,Jits_Phase_8,1,1,48,46,1785315996
91,14,15,Jits_Phase_8,2,5,63,98,1785375084
91,14,15,Jits_Phase_8,3,5,56,103,1785415452
91,14,15,Jits_Phase_8,0,5,63,98,1786114524
91,14,15,Jits_Phase_8,1,1,48,47,1786167344
91,14,15,Jits_Phase_8,2,5,80,127,1786195316
91,14,15,Jits_Phase_8,3,5,56,103,1786214800
91,14,15,Jits_Phase_8,0,5,56,103,1786955072
91,14,15,Jits_Phase_8,1,5,63,98,1786965344
91,14,15,Jits_Phase_8,2,1,48,40,1786994092
91,14,15,Jits_Phase_8,3,5,80,127,1787005200
91,14,15,Jits_Phase_8,0,5,56,103,1787674980
91,14,15,Jits_Phase_8,1,5,80,127,1787677972
91,14,15,Jits_Phase_8,2,1,48,42,1787766500
91,14,15,Jits_Phase_8,3,5,63,98,1787815224
91,14,15,Jits_Phase_8,0,5,56,103,1788464480
91,14,15,Jits_Phase_8,1,1,48,43,1788513228
91,14,15,Jits_Phase_8,2,5,63,98,1788554536
91,14,15,Jits_Phase_8,3,5,80,127,1788625244
91,14,15,Jits_Phase_8,0,1,48,42,1789295380
91,14,15,Jits_Phase_8,1,5,63,98,1789345000
91,14,15,Jits_Phase_8,2,5,80,127,1789348592
91,14,15,Jits_Phase_8,3,5,56,103,1789404408
91,14,15,Jits_Phase_8,0,1,48,42,1790118060
91,14,15,Jits_Phase_8,1,5,80,127,1790184992
91,14,15,Jits_Phase_8,2,5,56,103,1790205228
91,14,15,Jits_Phase_8,3,5,63,98,1790214452
91,14,15,Jits_Phase_8,0,5,56,103,1790894484
91,14,15,Jits_Phase_8,1,5,63,98,1790904980
91,14,15,Jits_Phase_8,2,1,48,40,1790922252
91,14,15,Jits_Phase_8,3,5,80,127,1790975324
91,14,15,Jits_Phase_8,0,1,48,50,1791676984
91,14,15,Jits_Phase_8,1,5,80,127,1791695148
91,14,15,Jits_Phase_8,2,5,56,103,1791745276
91,14,15,Jits_Phase_8,3,5,63,98,1791794440
91,14,15,Jits_Phase_8,0,1,48,48,1792523204
91,14,15,Jits_Phase_8,1,5,56,103,1792575096
91,14,15,Jits_Phase_8,2,5,63,98,1792585220
91,14,15,Jits_Phase_8,3,5,80,127,1792624920
91,14,15,Jits_Phase_8,0,5,56,103,1793315232
91,14,15,Jits_Phase_8,1,1,48,48,1793331604
91,14,15,Jits_Phase_8,2,5,63,98,1793355088
91,14,15,Jits_Phase_8,3,5,80,127,1793405216
91,14,15,Jits_Phase_8,0,5,80,127,1794074996
91,14,15,Jits_Phase_8,1,5,56,103,1794125200
91,14,15,Jits_Phase_8,2,1,48,50,1794137384
91,14,15,Jits_Phase_8,3,5,63,98,1794144900
91,14,15,Jits_Phase_8,0,1,48,46,1794883748
91,14,15,Jits_Phase_8,1,5,80,127,1794885396
91,14,15,Jits_Phase_8,2,5,63,98,1794945636
91,14,15,Jits_Phase_8,3,5,56,103,1795025192
91,14,15,Jits_Phase_8,0,5,80,127,1795665228
91,14,15,Jits_Phase_8,1,1,48,43,1795669316
91,14,15,Jits_Phase_8,2,5,56,103,1795705160
91,14,15,Jits_Phase_8,3,5,63,98,1795724944
91,14,15,Jits_Phase_8,0,1,48,45,1796448848
91,14,15,Jits_Phase_8,1,5,56,103,1796515112
91,14,15,Jits_Phase_8,2,5,80,127,1796525380
91,14,15,Jits_Phase_8,3,5,63,98,1796565228
91,14,15,Jits_Phase_8,0,1,48,44,1797264720
91,14,15,Jits_Phase_8,1,5,56,103,1797384752
91,14,15,Jits_Phase_8,2,5,63,98,1797424716
91,14,15,Jits_Phase_8,3,5,80,127,1797428004
91,14,15,Jits_Phase_8,0,5,63,98,1798055144
91,14,15,Jits_Phase_8,1,5,80,127,1798095308
91,14,15,Jits_Phase_8,2,1,48,48,1798145628
91,14,15,Jits_Phase_8,3,5,56,103,1798164980
91,14,15,Jits_Phase_8,0,5,63,98,1798825312
91,14,15,Jits_Phase_8,1,5,56,103,1798905180
91,14,15,Jits_Phase_8,2,1,48,44,1798930924
91,14,15,Jits_Phase_8,3,5,80,127,1798964764
91,14,15,Jits_Phase_8,0,5,80,127,1799635256
91,14,15,Jits_Phase_8,1,1,48,46,1799664828
91,14,15,Jits_Phase_8,2,5,63,98,1799684408
91,14,15,Jits_Phase_8,3,5,56,103,1799715080
91,14,15,Jits_Phase_8,0,5,56,103,1800424688
91,14,15,Jits_Phase_8,1,1,48,50,1800433060
91,14,15,Jits_Phase_8,2,5,63,98,1800475056
91,14,15,Jits_Phase_8,3,5,80,127,1800485180
91,14,15,Jits_Phase_8,0,1,48,40,1801182620
91,14,15,Jits_Phase_8,1,5,56,103,1801235008
91,14,15,Jits_Phase_8,2,5,63,98,1801345384
91,14,15,Jits_Phase_8,3,5,80,127,1801364872
91,14,15,Jits_Phase_8,0,1,48,50,1802032916
91,14,15,Jits_Phase_8,1,5,63,98,1802034720
91,14,15,Jits_Phase_8,2,5,80,127,1802084848
91,14,15,Jits_Phase_8,3,5,56,103,1802174888
91,14,15,Jits_Phase_8,0,5,63,98,1802825048
91,14,15,Jits_Phase_8,1,5,80,127,1802854872
91,14,15,Jits_Phase_8,2,1,48,48,1802862720
91,14,15,Jits_Phase_8,3,5,56,103,1802944992
91,14,15,Jits_Phase_8,0,5,63,98,1803624800
91,14,15,Jits_Phase_8,1,5,56,103,1803634996
91,14,15,Jits_Phase_8,2,1,48,48,1803676848
91,14,15,Jits_Phase_8,3,5,80,127,1803735456
91,14,15,Jits_Phase_8,0,1,48,43,1804435980
91,14,15,Jits_Phase_8,1,5,63,98,1804524788
91,14,15,Jits_Phase_8,2,5,80,127,1804554672
91,14,15,Jits_Phase_8,3,5,56,103,1804585344
91,14,15,Jits_Phase_8,0,1,48,47,1805264520
91,14,15,Jits_Phase_8,1,5,80,127,1805345032
91,14,15,Jits_Phase_8,2,5,63,98,1805355232
91,14,15,Jits_Phase_8,3,5,56,103,1805385040
91,14,15,Jits_Phase_8,0,5,80,127,1806044760
91,14,15,Jits_Phase_8,1,1,48,44,1806049148
91,14,15,Jits_Phase_8,2,5,63,98,1806064988
91,14,15,Jits_Phase_8,3,5,56,103,1806115140
91,14,15,Jits_Phase_8,0,1,48,51,1806829584
91,14,15,Jits_Phase_8,1,5,63,98,1806875112
91,14,15,Jits_Phase_8,2,5,80,127,1806935420
91,14,15,Jits_Phase_8,3,5,56,103,1806954904
91,14,15,Jits_Phase_8,0,5,63,98,1807634776
91,14,15,Jits_Phase_8,1,1,48,51,1807635668
91,14,15,Jits_Phase_8,2,5,56,103,1807684848
91,14,15,Jits_Phase_8,3,5,80,127,1807695192
91,14,15,Jits_Phase_8,0,1,48,43,1808449344
91,14,15,Jits_Phase_8,1,5,56,103,1808465412
91,14,15,Jits_Phase_8,2,5,80,127,1808474636
91,14,15,Jits_Phase_8,3,5,63,98,1808574716
91,14,15,Jits_Phase_8,0,1,48,53,1809222900
91,14,15,Jits_Phase_8,1,5,80,127,1809225012
91,14,15,Jits_Phase_8,2,5,63,98,1809235208
91,14,15,Jits_Phase_8,3,5,56,103,1809384732
91,14,15,Jits_Phase_8,0,5,63,98,1810034960
91,14,15,Jits_Phase_8,1,1,48,46,1810074448
91,14,15,Jits_Phase_8,2,5,80,127,1810076016
91,14,15,Jits_Phase_8,3,5,56,103,1810154836
91,14,15,Jits_Phase_8,0,5,56,103,1810784744
91,14,15,Jits_Phase_8,1,1,48,45,1810883860
91,14,15,Jits_Phase_8,2,5,80,127,1810885284
91,14,15,Jits_Phase_8,3,5,63,98,1810904548
91,14,15,Jits_Phase_8,0,5,80,127,1811604828
91,14,15,Jits_Phase_8,1,5,56,103,1811615100
91,14,15,Jits_Phase_8,2,1,48,40,1811671552
91,14,15,Jits_Phase_8,3,5,63,98,1811705148
91,14,15,Jits_Phase_8,0,5,56,103,1812404604
91,14,15,Jits_Phase_8,1,5,63,98,1812425060
91,14,15,Jits_Phase_8,2,1,48,45,1812471928
91,14,15,Jits_Phase_8,3,5,80,127,1812504872
91,14,15,Jits_Phase_8,0,5,63,98,1813155152
91,14,15,Jits_Phase_8,1,1,48,41,1813200968
91,14,15,Jits_Phase_8,2,5,56,103,1813245280
91,14,15,Jits_Phase_8,3,5,80,127,1813248420
91,14,15,Jits_Phase_8,0,1,48,45,1813961828
91,14,15,Jits_Phase_8,1,5,56,103,1813984788
91,14,15,Jits_Phase_8,2,5,80,127,1814044904
91,14,15,Jits_Phase_8,3,5,63,98,1814055396
91,14,15,Jits_Phase_8,0,1,48,46,1814749676
91,14,15,Jits_Phase_8,1,5,80,127,1814834620
91,14,15,Jits_Phase_8,2,5,56,103,1814844740
91,14,15,Jits_Phase_8,3,5,63,98,1814847804
91,14,15,Jits_Phase_8,0,1,48,40,1815564720
91,14,15,Jits_Phase_8,1,5,56,103,1815595484
91,14,15,Jits_Phase_8,2,5,80,127,1815604560
91,14,15,Jits_Phase_8,3,5,63,98,1815624944
91,14,15,Jits_Phase_8,0,1,48,43,1816364828
91,14,15,Jits_Phase_8,1,5,63,98,1816366468
91,14,15,Jits_Phase_8,2,5,80,127,1816424912
91,14,15,Jits_Phase_8,3,5,56,103,1816474948
91,14,15,Jits_Phase_8,0,1,48,40,1817148140
91,14,15,Jits_Phase_8,1,5,63,98,1817245780
91,14,15,Jits_Phase_8,2,5,56,103,1817255376
91,14,15,Jits_Phase_8,3,5,80,127,1817304752
91,14,15,Jits_Phase_8,0,5,63,98,1817944720
91,14,15,Jits_Phase_8,1,5,80,127,1817964884
91,14,15,Jits_Phase_8,2,5,56,103,1817975004
91,14,15,Jits_Phase_8,3,1,48,48,1817982832
91,14,15,Jits_Phase_8,0,1,48,35,1818702544
91,14,15,Jits_Phase_8,1,5,63,98,1818745284
91,14,15,Jits_Phase_8,2,5,80,127,1818748576
91,14,15,Jits_Phase_8,3,5,56,103,1818785000
91,14,15,Jits_Phase_8,0,1,48,40,1819448048
91,14,15,Jits_Phase_8,1,5,63,98,1819614692
91,14,15,Jits_Phase_8,2,5,80,127,1819645636
91,14,15,Jits_Phase_8,3,5,56,103,1819654488
91,14,15,Jits_Phase_8,0,1,48,44,1820343116
91,14,15,Jits_Phase_8,1,5,56,103,1820365092
91,14,15,Jits_Phase_8,2,5,80,127,1820394764
91,14,15,Jits_Phase_8,3,5,63,98,1820424516
91,14,15,Jits_Phase_8,0,1,48,38,1821121580
91,14,15,Jits_Phase_8,1,5,63,98,1821265400
91,14,15,Jits_Phase_8,2,5,56,103,1821305260
91,14,15,Jits_Phase_8,3,5,80,127,1821308252
91,14,15,Jits_Phase_8,0,5,80,127,1821964684
91,14,15,Jits_Phase_8,1,1,48,51,1822010752
91,14,15,Jits_Phase_8,2,5,56,103,1822044648
91,14,15,Jits_Phase_8,3,5,63,98,1822094700
91,14,15,Jits_Phase_8,0,5,80,127,1822744928
91,14,15,Jits_Phase_8,1,5,56,103,1822765536
91,14,15,Jits_Phase_8,2,1,48,46,1822844776
91,14,15,Jits_Phase_8,3,5,63,98,1822854540
91,14,15,Jits_Phase_8,0,5,80,127,1823584552
91,14,15,Jits_Phase_8,1,5,63,98,1823624640
91,14,15,Jits_Phase_8,2,1,48,48,1823655260
91,14,15,Jits_Phase_8,3,5,56,103,1823664496
91,14,15,Jits_Phase_8,0,5,63,98,1824394668
91,14,15,Jits_Phase_8,1,1,48,44,1824420852
91,14,15,Jits_Phase_8,2,5,80,127,1824454904
91,14,15,Jits_Phase_8,3,5,56,103,1824484652
91,14,15,Jits_Phase_8,0,1,48,39,1825226976
91,14,15,Jits_Phase_8,1,5,56,103,1825235392
91,14,15,Jits_Phase_8,2,5,80,127,1825264992
91,14,15,Jits_Phase_8,3,5,63,98,1825355208
91,14,15,Jits_Phase_8,0,5,56,103,1826045564
91,14,15,Jits_Phase_8,1,1,48,50,1826049952
91,14,15,Jits_Phase_8,2,5,80,127,1826154812
91,14,15,Jits_Phase_8,3,5,63,98,1826184636
91,14,15,Jits_Phase_8,0,1,48,46,1826863400
91,14,15,Jits_Phase_8,1,5,56,103,1826895336
91,14,15,Jits_Phase_8,2,5,63,98,1826954608
91,14,15,Jits_Phase_8,3,5,80,127,1826985608
91,14,15,Jits_Phase_8,0,5,56,103,1827665512
91,14,15,Jits_Phase_8,1,1,48,48,1827694636
91,14,15,Jits_Phase_8,2,5,63,98,1827734892
91,14,15,Jits_Phase_8,3,5,80,127,1827755424
91,14,15,Jits_Phase_8,0,5,80,127,1828435392
91,14,15,Jits_Phase_8,1,5,63,98,1828454656
91,14,15,Jits_Phase_8,2,1,48,43,1828492620
91,14,15,Jits_Phase_8,3,5,56,103,1828504852
91,14,15,Jits_Phase_8,0,5,63,98,1829254644
91,14,15,Jits_Phase_8,1,5,80,127,1829264840
91,14,15,Jits_Phase_8,2,1,48,49,1829272840
91,14,15,Jits_Phase_8,3,5,56,103,1829314884
91,14,15,Jits_Phase_8,0,5,63,98,1830055220
91,14,15,Jits_Phase_8,1,1,48,46,1830064640
91,14,15,Jits_Phase_8,2,5,80,127,1830124896
91,14,15,Jits_Phase_8,3,5,56,103,1830145356
91,14,15,Jits_Phase_8,0,1,48,45,1830867988
91,14,15,Jits_Phase_8,1,5,63,98,1830884564
91,14,15,Jits_Phase_8,2,5,80,127,1830888156
91,14,15,Jits_Phase_8,3,5,56,103,1830955324
91,14,15,Jits_Phase_8,0,5,80,127,1831635328
91,14,15,Jits_Phase_8,1,5,56,103,1831654740
91,14,15,Jits_Phase_8,2,5,63,98,1831665460
91,14,15,Jits_Phase_8,3,1,48,47,1831705916
91,14,15,Jits_Phase_8,0,1,48,45,1832454052
91,14,15,Jits_Phase_8,1,5,56,103,1832455544
91,14,15,Jits_Phase_8,2,5,63,98,1832544580
91,14,15,Jits_Phase_8,3,5,80,127,1832547940
91,14,15,Jits_Phase_8,0,5,80,127,1833224656
91,14,15,Jits_Phase_8,1,5,56,103,1833234928
91,14,15,Jits_Phase_8,2,5,63,98,1833255412
91,14,15,Jits_Phase_8,3,1,48,47,1833256900
91,14,15,Jits_Phase_8,0,5,63,98,1834025272
91,14,15,Jits_Phase_8,1,1,48,45,1834032892
91,14,15,Jits_Phase_8,2,5,80,127,1834084756
91,14,15,Jits_Phase_8,3,5,56,103,1834095176
91,14,15,Jits_Phase_8,0,1,48,48,1834836156
91,14,15,Jits_Phase_8,1,5,63,98,1834894624
91,14,15,Jits_Phase_8,2,5,80,127,1834925420
91,14,15,Jits_Phase_8,3,5,56,103,1834965340
91,14,15,Jits_Phase_8,0,1,48,43,1835671348
91,14,15,Jits_Phase_8,1,5,56,103,1835685616
91,14,15,Jits_Phase_8,2,5,80,127,1835694320
91,14,15,Jits_Phase_8,3,5,63,98,1835735528
91,14,15,Jits_Phase_8,0,5,80,127,1836445000
91,14,15,Jits_Phase_8,1,1,48,44,1836498312
91,14,15,Jits_Phase_8,2,5,56,103,1836524868
91,14,15,Jits_Phase_8,3,5,63,98,1836535360
91,14,15,Jits_Phase_8,0,5,80,127,1837295048
91,14,15,Jits_Phase_8,1,1,48,41,1837308576
91,14,15,Jits_Phase_8,2,5,56,103,1837374860
91,14,15,Jits_Phase_8,3,5,63,98,1837385132
91,14,15,Jits_Phase_8,0,1,48,46,1838120064
91,14,15,Jits_Phase_8,1,5,80,127,1838134704
91,14,15,Jits_Phase_8,2,5,56,103,1838184980
91,14,15,Jits_Phase_8,3,5,63,98,1838234944
91,14,15,Jits_Phase_8,0,1,48,49,1838955928
91,14,15,Jits_Phase_8,1,5,56,103,1839074688
91,14,15,Jits_Phase_8,2,5,63,98,1839077680
91,14,15,Jits_Phase_8,3,5,80,127,1839124816
91,14,15,Jits_Phase_8,0,1,48,51,1839797388
91,14,15,Jits_Phase_8,1,5,56,103,1839895944
91,14,15,Jits_Phase_8,2,5,63,98,1839924576
91,14,15,Jits_Phase_8,3,5,80,127,1839934772
91,14,15,Jits_Phase_8,0,5,63,98,1840604456
91,14,15,Jits_Phase_8,1,1,48,47,1840662504
91,14,15,Jits_Phase_8,2,5,56,103,1840675352
91,14,15,Jits_Phase_8,3,5,80,127,1840725332
91,14,15,Jits_Phase_8,0,5,63,98,1841435256
91,14,15,Jits_Phase_8,1,5,56,103,1841445376
91,14,15,Jits_Phase_8,2,5,80,127,1841448516
91,14,15,Jits_Phase_8,3,1,48,48,1841465360
91,14,15,Jits_Phase_8,0,5,80,127,1842184556
91,14,15,Jits_Phase_8,1,1,48,43,1842240964
91,14,15,Jits_Phase_8,2,5,56,103,1842245264
91,14,15,Jits_Phase_8,3,5,63,98,1842335172
91,14,15,Jits_Phase_8,0,5,80,127,1842985328
91,14,15,Jits_Phase_8,1,1,48,51,1843049276
91,14,15,Jits_Phase_8,2,5,56,103,1843084524
91,14,15,Jits_Phase_8,3,5,63,98,1843124460
91,14,15,Jits_Phase_8,0,5,56,103,1843835224
91,14,15,Jits_Phase_8,1,5,63,98,1843854712
91,14,15,Jits_Phase_8,2,1,48,47,1843876040
91,14,15,Jits_Phase_8,3,5,80,127,1843894644
91,14,15,Jits_Phase_8,0,5,63,98,1844605400
91,14,15,Jits_Phase_8,1,5,56,103,1844624740
91,14,15,Jits_Phase_8,2,1,48,40,1844660292
91,14,15,Jits_Phase_8,3,5,80,127,1844725200
91,14,15,Jits_Phase_8,0,5,63,98,1845394668
91,14,15,Jits_Phase_8,1,1,48,35,1845427976
91,14,15,Jits_Phase_8,2,5,80,127,1845505396
91,14,15,Jits_Phase_8,3,5,56,103,1845535080
91,14,15,Jits_Phase_8,0,5,56,103,1846215104
91,14,15,Jits_Phase_8,1,1,48,51,1846221292
91,14,15,Jits_Phase_8,2,5,63,98,1846244776
91,14,15,Jits_Phase_8,3,5,80,127,1846294780
91,14,15,Jits_Phase_8,0,5,63,98,1846985204
91,14,15,Jits_Phase_8,1,5,56,103,1847014732
91,14,15,Jits_Phase_8,2,1,48,48,1847037700
91,14,15,Jits_Phase_8,3,5,80,127,1847064876
91,14,15,Jits_Phase_8,0,5,56,103,1847814552
91,14,15,Jits_Phase_8,1,1,48,46,1847835184
91,14,15,Jits_Phase_8,2,5,63,98,1847836596
91,14,15,Jits_Phase_8,3,5,80,127,1847914748
91,14,15,Jits_Phase_8,0,5,63,98,1848584504
91,14,15,Jits_Phase_8,1,1,48,48,1848590012
91,14,15,Jits_Phase_8,2,5,56,103,1848644912
91,14,15,Jits_Phase_8,3,5,80,127,1848674664
91,14,15,Jits_Phase_8,0,1,48,51,1849364996
91,14,15,Jits_Phase_8,1,5,56,103,1849425180
91,14,15,Jits_Phase_8,2,5,80,127,1849484512
91,14,15,Jits_Phase_8,3,5,63,98,1849524452
91,14,15,Jits_Phase_8,0,1,48,57,1850180476
91,14,15,Jits_Phase_8,1,5,63,98,1850204416
91,14,15,Jits_Phase_8,2,5,56,103,1850265104
91,14,15,Jits_Phase_8,3,5,80,127,1850334472
91,14,15,Jits_Phase_8,0,1,48,48,1851050960
91,14,15,Jits_Phase_8,1,5,56,103,1851085240
91,14,15,Jits_Phase_8,2,5,63,98,1851095280
91,14,15,Jits_Phase_8,3,5,80,127,1851098796
91,14,15,Jits_Phase_8,0,5,63,98,1851824388
91,14,15,Jits_Phase_8,1,1,48,58,1851872072
91,14,15,Jits_Phase_8,2,5,56,103,1851885068
91,14,15,Jits_Phase_8,3,5,80,127,1851888060
91,14,15,Jits_Phase_8,0,5,63,98,1852604732
91,14,15,Jits_Phase_8,1,5,80,127,1852634404
91,14,15,Jits_Phase_8,2,1,48,46,1852651004
91,14,15,Jits_Phase_8,3,5,56,103,1852655156
91,14,15,Jits_Phase_8,0,5,56,103,1853335180
91,14,15,Jits_Phase_8,1,5,63,98,1853385236
91,14,15,Jits_Phase_8,2,1,48,40,1853403720
91,14,15,Jits_Phase_8,3,5,80,127,1853465120
91,14,15,Jits_Phase_8,0,5,80,127,1854035248
91,14,15,Jits_Phase_8,1,5,63,98,1854075188
91,14,15,Jits_Phase_8,2,5,56,103,1854094672
91,14,15,Jits_Phase_8,3,1,48,46,1854124392
91,14,15,Jits_Phase_8,0,1,48,51,1854791516
91,14,15,Jits_Phase_8,1,5,56,103,1854904672
91,14,15,Jits_Phase_8,2,5,80,127,1854915016
91,14,15,Jits_Phase_8,3,5,63,98,1854935400
91,14,15,Jits_Phase_8,0,1,48,44,1855617728
91,14,15,Jits_Phase_8,1,5,56,103,1855685112
91,14,15,Jits_Phase_8,2,5,63,98,1855735080
91,14,15,Jits_Phase_8,3,5,80,127,1855765076
91,14,15,Jits_Phase_8,0,5,56,103,1856434536
91,14,15,Jits_Phase_8,1,5,63,98,1856445028
91,14,15,Jits_Phase_8,2,1,48,48,1856479312
91,14,15,Jits_Phase_8,3,5,80,127,1856495148
91,14,15,Jits_Phase_8,0,5,56,103,1857225004
91,14,15,Jits_Phase_8,1,1,48,43,1857227692
91,14,15,Jits_Phase_8,2,5,80,127,1857229260
91,14,15,Jits_Phase_8,3,5,63,98,1857385032
91,14,15,Jits_Phase_8,0,1,48,43,1858037768
91,14,15,Jits_Phase_8,1,5,63,98,1858045360
91,14,15,Jits_Phase_8,2,5,56,103,1858115144
91,14,15,Jits_Phase_8,3,5,80,127,1858155140
91,14,15,Jits_Phase_8,0,1,48,39,1858820592
91,14,15,Jits_Phase_8,1,5,63,98,1858885080
91,14,15,Jits_Phase_8,2,5,56,103,1858975048
91,14,15,Jits_Phase_8,3,5,80,127,1858978412
91,14,15,Jits_Phase_8,0,5,56,103,1859665288
91,14,15,Jits_Phase_8,1,1,48,48,1859688560
91,14,15,Jits_Phase_8,2,5,63,98,1859755340
91,14,15,Jits_Phase_8,3,5,80,127,1859764712
91,14,15,Jits_Phase_8,0,5,56,103,1860435244
91,14,15,Jits_Phase_8,1,5,63,98,1860484472
91,14,15,Jits_Phase_8,2,1,48,39,1860487368
91,14,15,Jits_Phase_8,3,5,80,127,1860515112
91,14,15,Jits_Phase_8,0,1,48,39,1861272352
91,14,15,Jits_Phase_8,1,5,63,98,1861315020
91,14,15,Jits_Phase_8,2,5,80,127,1861325144
91,14,15,Jits_Phase_8,3,5,56,103,1861384468
91,14,15,Jits_Phase_8,0,5,63,98,1862034996
91,14,15,Jits_Phase_8,1,1,48,36,1862069128
91,14,15,Jits_Phase_8,2,5,80,127,1862095232
91,14,15,Jits_Phase_8,3,5,56,103,1862135096
91,14,15,Jits_Phase_8,0,1,48,45,1862853012
91,14,15,Jits_Phase_8,1,5,56,103,1862934944
91,14,15,Jits_Phase_8,2,5,80,127,1862955316
91,14,15,Jits_Phase_8,3,5,63,98,1862975024
91,14,15,Jits_Phase_8,0,5,63,98,1863654976
91,14,15,Jits_Phase_8,1,1,48,48,1863660484
91,14,15,Jits_Phase_8,2,5,56,103,1863675280
91,14,15,Jits_Phase_8,3,5,80,127,1863715168
91,14,15,Jits_Phase_8,0,1,48,37,1864446384
91,14,15,Jits_Phase_8,1,5,63,98,1864464992
91,14,15,Jits_Phase_8,2,5,80,127,1864494468
91,14,15,Jits_Phase_8,3,5,56,103,1864514928
91,14,15,Jits_Phase_8,0,5,80,127,1865234936
91,14,15,Jits_Phase_8,1,1,48,40,1865262440
91,14,15,Jits_Phase_8,2,5,56,103,1865285156
91,14,15,Jits_Phase_8,3,5,63,98,1865345396
91,14,15,Jits_Phase_8,0,5,63,98,1866025364
91,14,15,Jits_Phase_8,1,1,48,42,1866087144
91,14,15,Jits_Phase_8,2,5,56,103,1866145088
91,14,15,Jits_Phase_8,3,5,80,127,1866174984
91,14,15,Jits_Phase_8,0,1,48,37,1866849292
91,14,15,Jits_Phase_8,1,5,80,127,1866865128
91,14,15,Jits_Phase_8,2,5,63,98,1866884316
91,14,15,Jits_Phase_8,3,5,56,103,1866955028
91,14,15,Jits_Phase_8,0,1,48,40,1867658784
91,14,15,Jits_Phase_8,1,5,63,98,1867685336
91,14,15,Jits_Phase_8,2,5,56,103,1867694412
91,14,15,Jits_Phase_8,3,5,80,127,1867775464
91,14,15,Jits_Phase_8,0,1,48,37,1868429776
91,14,15,Jits_Phase_8,1,5,56,103,1868545324
91,14,15,Jits_Phase_8,2,5,80,127,1868575100
91,14,15,Jits_Phase_8,3,5,63,98,1868585296
91,14,15,Jits_Phase_8,0,9999,9999,9999,1733702768
91,14,15,Jits_Phase_8,1,9999,9999,9999,1734502464
91,14,15,Jits_Phase_8,2,9999,9999,9999,1735302220
91,14,15,Jits_Phase_8,3,9999,9999,9999,1736103024
91,14,15,Jits_Phase_8,4,9999,9999,9999,1736902776
91,14,15,Jits_Phase_8,5,9999,9999,9999,1737702464
91,14,15,Jits_Phase_8,6,9999,9999,9999,1738502216
91,14,15,Jits_Phase_8,7,9999,9999,9999,1739302988
91,14,15,Jits_Phase_8,8,9999,9999,9999,1740102748
91,14,15,Jits_Phase_8,9,9999,9999,9999,1740902496
91,14,15,Jits_Phase_8,10,9999,9999,9999,1741702200
91,14,15,Jits_Phase_8,11,9999,9999,9999,1742503008
91,14,15,Jits_Phase_8,12,9999,9999,9999,1743302756
91,14,15,Jits_Phase_8,13,9999,9999,9999,1744102524
91,14,15,Jits_Phase_8,14,9999,9999,9999,1744902268
91,14,15,Jits_Phase_8,15,9999,9999,9999,1745703012
91,14,15,Jits_Phase_8,16,9999,9999,9999,1746502752
91,14,15,Jits_Phase_8,17,9999,9999,9999,1747302520
91,14,15,Jits_Phase_8,18,9999,9999,9999,1748102208
91,14,15,Jits_Phase_8,19,9999,9999,9999,1748903012
91,14,15,Jits_Phase_8,20,9999,9999,9999,1749702772
91,14,15,Jits_Phase_8,21,9999,9999,9999,1750502456
91,14,15,Jits_Phase_8,22,9999,9999,9999,1751302216
91,14,15,Jits_Phase_8,23,9999,9999,9999,1752102972
91,14,15,Jits_Phase_8,24,9999,9999,9999,1752902728
91,14,15,Jits_Phase_8,25,9999,9999,9999,1753702484
91,14,15,Jits_Phase_8,26,9999,9999,9999,1754502244
91,14,15,Jits_Phase_8,27,9999,9999,9999,1755302976
91,14,15,Jits_Phase_8,28,9999,9999,9999,1756102744
91,14,15,Jits_Phase_8,29,9999,9999,9999,1756902524
91,14,15,Jits_Phase_8,30,9999,9999,9999,1757682796
91,14,15,Jits_Phase_8,31,9999,9999,9999,1758482556
91,14,15,Jits_Phase_8,32,9999,9999,9999,1759282272
91,14,15,Jits_Phase_8,33,9999,9999,9999,1760083008
91,14,15,Jits_Phase_8,34,9999,9999,9999,1760882784
91,14,15,Jits_Phase_8,35,9999,9999,9999,1761682548
91,14,15,Jits_Phase_8,36,9999,9999,9999,1762482240
91,14,15,Jits_Phase_8,37,9999,9999,9999,1763283044
91,14,15,Jits_Phase_8,38,9999,9999,9999,1764082808
91,14,15,Jits_Phase_8,39,9999,9999,9999,1764882512
91,14,15,Jits_Phase_8,40,9999,9999,9999,1765682288
91,14,15,Jits_Phase_8,41,9999,9999,9999,1766483032
91,14,15,Jits_Phase_8,42,9999,9999,9999,1767282788
91,14,15,Jits_Phase_8,43,9999,9999,9999,1768082548
91,14,15,Jits_Phase_8,44,9999,9999,9999,1768882288
91,14,15,Jits_Phase_8,45,9999,9999,9999,1769683020
91,14,15,Jits_Phase_8,46,9999,9999,9999,1770482780
91,14,15,Jits_Phase_8,47,9999,9999,9999,1771282528
91,14,15,Jits_Phase_8,48,9999,9999,9999,1772102756
91,14,15,Jits_Phase_8,49,9999,9999,9999,1772902508
91,14,15,Jits_Phase_8,50,9999,9999,9999,1773702264
91,14,15,Jits_Phase_8,51,9999,9999,9999,1774502996
91,14,15,Jits_Phase_8,52,9999,9999,9999,1775302756
91,14,15,Jits_Phase_8,53,9999,9999,9999,1776102520
91,14,15,Jits_Phase_8,54,9999,9999,9999,1776902196
91,14,15,Jits_Phase_8,55,9999,9999,9999,1777702968
91,14,15,Jits_Phase_8,56,9999,9999,9999,1778502724
91,14,15,Jits_Phase_8,57,9999,9999,9999,1779302496
91,14,15,Jits_Phase_8,58,9999,9999,9999,1780102268
91,14,15,Jits_Phase_8,59,9999,9999,9999,1780903000
91,14,15,Jits_Phase_8,60,9999,9999,9999,1781702756
91,14,15,Jits_Phase_8,61,9999,9999,9999,1782502460
91,14,15,Jits_Phase_8,62,9999,9999,9999,1783302232
91,14,15,Jits_Phase_8,63,9999,9999,9999,1784102976
91,14,15,Jits_Phase_8,64,9999,9999,9999,1784942676
91,14,15,Jits_Phase_8,65,9999,9999,9999,1785742436
91,14,15,Jits_Phase_8,66,9999,9999,9999,1786542140
91,14,15,Jits_Phase_8,67,9999,9999,9999,1787342952
91,14,15,Jits_Phase_8,68,9999,9999,9999,1788142712
91,14,15,Jits_Phase_8,69,9999,9999,9999,1788942412
91,14,15,Jits_Phase_8,70,9999,9999,9999,1789742200
91,14,15,Jits_Phase_8,71,9999,9999,9999,1790542940
91,14,15,Jits_Phase_8,72,9999,9999,9999,1791342696
91,14,15,Jits_Phase_8,73,9999,9999,9999,1792142392
91,14,15,Jits_Phase_8,74,9999,9999,9999,1792942160
91,14,15,Jits_Phase_8,75,9999,9999,9999,1793742968
91,14,15,Jits_Phase_8,76,9999,9999,9999,1794542660
91,14,15,Jits_Phase_8,77,9999,9999,9999,1795342436
91,14,15,Jits_Phase_8,78,9999,9999,9999,1796142204
91,14,15,Jits_Phase_8,79,9999,9999,9999,1796942948
91,14,15,Jits_Phase_8,80,9999,9999,9999,1797742708
91,14,15,Jits_Phase_8,81,9999,9999,9999,1798502460
91,14,15,Jits_Phase_8,82,9999,9999,9999,1799302220
91,14,15,Jits_Phase_8,83,9999,9999,9999,1800103020
91,14,15,Jits_Phase_8,84,9999,9999,9999,1800902712
91,14,15,Jits_Phase_8,85,9999,9999,9999,1801702488
91,14,15,Jits_Phase_8,86,9999,9999,9999,1802502248
91,14,15,Jits_Phase_8,87,9999,9999,9999,1803303000
91,14,15,Jits_Phase_8,88,9999,9999,9999,1804102748
91,14,15,Jits_Phase_8,89,9999,9999,9999,1804902516
91,14,15,Jits_Phase_8,90,9999,9999,9999,1805702208
91,14,15,Jits_Phase_8,91,9999,9999,9999,1806503008
91,14,15,Jits_Phase_8,92,9999,9999,9999,1807302712
91,14,15,Jits_Phase_8,93,9999,9999,9999,1808102464
91,14,15,Jits_Phase_8,94,9999,9999,9999,1808902220
91,14,15,Jits_Phase_8,95,9999,9999,9999,1809702972
91,14,15,Jits_Phase_8,96,9999,9999,9999,1810502724
91,14,15,Jits_Phase_8,97,9999,9999,9999,1811222624
91,14,15,Jits_Phase_8,98,9999,9999,9999,1812022328
91,14,15,Jits_Phase_8,99,9999,9999,9999,1812822100
91,14,15,Jits_Phase_8,100,9999,9999,9999,1813622908
91,14,15,Jits_Phase_8,101,9999,9999,9999,1814422592
91,14,15,Jits_Phase_8,102,9999,9999,9999,1815222348
91,14,15,Jits_Phase_8,103,9999,9999,9999,1816022100
91,14,15,Jits_Phase_8,104,9999,9999,9999,1816822904
91,14,15,Jits_Phase_8,105,9999,9999,9999,1817622620
91,14,15,Jits_Phase_8,106,9999,9999,9999,1818422372
91,14,15,Jits_Phase_8,107,9999,9999,9999,1819222112
91,14,15,Jits_Phase_8,108,9999,9999,9999,1820022844
91,14,15,Jits_Phase_8,109,9999,9999,9999,1820822596
91,14,15,Jits_Phase_8,110,9999,9999,9999,1821622356
91,14,15,Jits_Phase_8,111,9999,9999,9999,1822422116
91,14,15,Jits_Phase_8,112,9999,9999,9999,1823222856
91,14,15,Jits_Phase_8,113,9999,9999,9999,1824022652
91,14,15,Jits_Phase_8,114,9999,9999,9999,1824902212
91,14,15,Jits_Phase_8,115,9999,9999,9999,1825703012
91,14,15,Jits_Phase_8,116,9999,9999,9999,1826502776
91,14,15,Jits_Phase_8,117,9999,9999,9999,1827302480
91,14,15,Jits_Phase_8,118,9999,9999,9999,1828102240
91,14,15,Jits_Phase_8,119,9999,9999,9999,1828903004
91,14,15,Jits_Phase_8,120,9999,9999,9999,1829702776
91,14,15,Jits_Phase_8,121,9999,9999,9999,1830502464
91,14,15,Jits_Phase_8,122,9999,9999,9999,1831302216
91,14,15,Jits_Phase_8,123,9999,9999,9999,1832103016
91,14,15,Jits_Phase_8,124,9999,9999,9999,1832902780
91,14,15,Jits_Phase_8,125,9999,9999,9999,1833702456
91,14,15,Jits_Phase_8,126,9999,9999,9999,1834502224
91,14,15,Jits_Phase_8,127,9999,9999,9999,1835302984
91,14,15,Jits_Phase_8,128,9999,9999,9999,1836102748
91,14,15,Jits_Phase_8,129,9999,9999,9999,1836902504
91,14,15,Jits_Phase_8,130,9999,9999,9999,1837702208
91,14,15,Jits_Phase_8,131,9999,9999,9999,1838662780
91,14,15,Jits_Phase_8,132,9999,9999,9999,1839462508
91,14,15,Jits_Phase_8,133,9999,9999,9999,1840262204
91,14,15,Jits_Phase_8,134,9999,9999,9999,1841063008
91,14,15,Jits_Phase_8,135,9999,9999,9999,1841862756
91,14,15,Jits_Phase_8,136,9999,9999,9999,1842662512
91,14,15,Jits_Phase_8,137,9999,9999,9999,1843462212
91,14,15,Jits_Phase_8,138,9999,9999,9999,1844262984
91,14,15,Jits_Phase_8,139,9999,9999,9999,1845062752
91,14,15,Jits_Phase_8,140,9999,9999,9999,1845862512
91,14,15,Jits_Phase_8,141,9999,9999,9999,1846662268
91,14,15,Jits_Phase_8,142,9999,9999,9999,1847463008
91,14,15,Jits_Phase_8,143,9999,9999,9999,1848262764
91,14,15,Jits_Phase_8,144,9999,9999,9999,1849062456
91,14,15,Jits_Phase_8,145,9999,9999,9999,1849862220
91,14,15,Jits_Phase_8,146,9999,9999,9999,1850662976
91,14,15,Jits_Phase_8,147,9999,9999,9999,1851462728
91,14,15,Jits_Phase_8,148,9999,9999,9999,1852262476
91,14,15,Jits_Phase_8,149,9999,9999,9999,1853062228
91,14,15,Jits_Phase_8,150,9999,9999,9999,1853702244
91,14,15,Jits_Phase_8,151,9999,9999,9999,1854503008
91,14,15,Jits_Phase_8,152,9999,9999,9999,1855302784
91,14,15,Jits_Phase_8,153,9999,9999,9999,1856102472
91,14,15,Jits_Phase_8,154,9999,9999,9999,1856902220
91,14,15,Jits_Phase_8,155,9999,9999,9999,1857703024
91,14,15,Jits_Phase_8,156,9999,9999,9999,1858502724
91,14,15,Jits_Phase_8,157,9999,9999,9999,1859302480
91,14,15,Jits_Phase_8,158,9999,9999,9999,1860102240
91,14,15,Jits_Phase_8,159,9999,9999,9999,1860903008
91,14,15,Jits_Phase_8,160,9999,9999,9999,1861702784
91,14,15,Jits_Phase_8,161,9999,9999,9999,1862502464
91,14,15,Jits_Phase_8,162,9999,9999,9999,1863302232
91,14,15,Jits_Phase_8,163,9999,9999,9999,1864103036
91,14,15,Jits_Phase_8,164,9999,9999,9999,1864902720
91,14,15,Jits_Phase_8,165,9999,9999,9999,1865702476
91,14,15,Jits_Phase_8,166,9999,9999,9999,1866502252
91,14,15,Jits_Phase_8,167,9999,9999,9999,1867303008
91,14,15,Jits_Phase_8,168,9999,9999,9999,1868102768
91,14,15,Jits_Phase_8,169,9999,9999,9999,1868902464
91,15,17,Jits_Phase_5,0,5,56,103,1878146332
91,15,17,Jits_Phase_5,1,5,63,98,1878149500
91,15,17,Jits_Phase_5,2,5,80,127,1878152776
91,15,17,Jits_Phase_5,0,5,56,103,1878647080
91,15,17,Jits_Phase_5,1,5,63,98,1878650180
91,15,17,Jits_Phase_5,2,5,80,127,1878653308
91,15,17,Jits_Phase_5,0,5,56,103,1879146884
91,15,17,Jits_Phase_5,1,5,80,127,1879157080
91,15,17,Jits_Phase_5,2,5,63,98,1879176792
91,15,17,Jits_Phase_5,0,5,63,98,1879597616
91,15,17,Jits_Phase_5,1,5,80,127,1879627216
91,15,17,Jits_Phase_5,2,5,56,103,1879637264
91,15,17,Jits_Phase_5,3,1,48,23,1879655748
91,15,17,Jits_Phase_5,0,1,48,47,1880110444
91,15,17,Jits_Phase_5,1,5,80,127,1880156768
91,15,17,Jits_Phase_5,2,5,56,103,1880166964
91,15,17,Jits_Phase_5,3,1,48,21,1880186932
91,15,17,Jits_Phase_5,4,5,63,98,1880196544
91,15,17,Jits_Phase_5,0,5,63,98,1880647120
91,15,17,Jits_Phase_5,1,1,48,42,1880656992
91,15,17,Jits_Phase_5,2,5,56,103,1880676864
91,15,17,Jits_Phase_5,3,5,80,127,1880687060
91,15,17,Jits_Phase_5,0,5,56,103,1881096804
91,15,17,Jits_Phase_5,1,5,63,98,1881146660
91,15,17,Jits_Phase_5,2,5,80,127,1881167264
91,15,17,Jits_Phase_5,3,1,48,48,1881177356
91,15,17,Jits_Phase_5,0,5,80,127,1881597464
91,15,17,Jits_Phase_5,1,1,48,48,1881629900
91,15,17,Jits_Phase_5,2,5,63,98,1881646560
91,15,17,Jits_Phase_5,3,5,56,103,1881687768
91,15,17,Jits_Phase_5,4,1,48,23,1881698212
91,15,17,Jits_Phase_5,0,5,56,103,1882097036
91,15,17,Jits_Phase_5,1,5,63,98,1882126712
91,15,17,Jits_Phase_5,2,1,48,48,1882152772
91,15,17,Jits_Phase_5,3,5,80,127,1882197456
91,15,17,Jits_Phase_5,0,5,56,103,1882596728
91,15,17,Jits_Phase_5,1,1,48,44,1882633780
91,15,17,Jits_Phase_5,2,5,80,127,1882657064
91,15,17,Jits_Phase_5,3,5,63,98,1882686812
91,15,17,Jits_Phase_5,0,5,56,103,1883106828
91,15,17,Jits_Phase_5,1,5,63,98,1883116876
91,15,17,Jits_Phase_5,2,1,48,48,1883137524
91,15,17,Jits_Phase_5,3,5,80,127,1883156904
91,15,17,Jits_Phase_5,0,5,63,98,1883597152
91,15,17,Jits_Phase_5,1,1,48,48,1883620948
91,15,17,Jits_Phase_5,2,5,80,127,1883677036
91,15,17,Jits_Phase_5,3,5,56,103,1883687232
91,15,17,Jits_Phase_5,0,1,48,46,1884134784
91,15,17,Jits_Phase_5,1,5,63,98,1884147088
91,15,17,Jits_Phase_5,2,5,56,103,1884186976
91,15,17,Jits_Phase_5,3,5,80,127,1884190116
91,15,17,Jits_Phase_5,0,5,56,103,1884606912
91,15,17,Jits_Phase_5,1,5,63,98,1884617108
91,15,17,Jits_Phase_5,2,1,48,46,1884635296
91,15,17,Jits_Phase_5,3,5,80,127,1884656888
91,15,17,Jits_Phase_5,0,1,48,47,1885090008
91,15,17,Jits_Phase_5,1,5,56,103,1885097448
91,15,17,Jits_Phase_5,2,5,63,98,1885100296
91,15,17,Jits_Phase_5,3,5,80,127,1885116788
91,15,17,Jits_Phase_5,0,1,48,47,1885588916
91,15,17,Jits_Phase_5,1,5,80,127,1885607224
91,15,17,Jits_Phase_5,2,5,56,103,1885616744
91,15,17,Jits_Phase_5,3,5,63,98,1885687604
91,15,17,Jits_Phase_5,0,5,63,98,1886096720
91,15,17,Jits_Phase_5,1,1,48,45,1886106812
91,15,17,Jits_Phase_5,2,5,56,103,1886117392
91,15,17,Jits_Phase_5,3,5,80,127,1886197036
91,15,17,Jits_Phase_5,0,1,48,43,1886583840
91,15,17,Jits_Phase_5,1,5,56,103,1886606796
91,15,17,Jits_Phase_5,2,5,80,127,1886646512
91,15,17,Jits_Phase_5,3,5,63,98,1886656856
91,15,17,Jits_Phase_5,0,1,48,45,1887096888
91,15,17,Jits_Phase_5,1,5,80,127,1887098228
91,15,17,Jits_Phase_5,2,5,63,98,1887126856
91,15,17,Jits_Phase_5,3,5,56,103,1887166716
91,15,17,Jits_Phase_5,0,1,48,46,1887604088
91,15,17,Jits_Phase_5,1,5,56,103,1887617380
91,15,17,Jits_Phase_5,2,5,63,98,1887647204
91,15,17,Jits_Phase_5,3,5,80,127,1887697180
91,15,17,Jits_Phase_5,0,1,48,49,1888093796
91,15,17,Jits_Phase_5,1,5,80,127,1888116980
91,15,17,Jits_Phase_5,2,5,56,103,1888156920
91,15,17,Jits_Phase_5,3,5,63,98,1888167264
91,15,17,Jits_Phase_5,0,5,80,127,1888597476
91,15,17,Jits_Phase_5,1,1,48,45,1888611084
91,15,17,Jits_Phase_5,2,5,63,98,1888637260
91,15,17,Jits_Phase_5,3,5,56,103,1888696676
91,15,17,Jits_Phase_5,0,5,56,103,1889097016
91,15,17,Jits_Phase_5,1,1,48,48,1889107288
91,15,17,Jits_Phase_5,2,5,80,127,1889108700
91,15,17,Jits_Phase_5,3,5,63,98,1889187072
91,15,17,Jits_Phase_5,0,1,48,47,1889594584
91,15,17,Jits_Phase_5,1,5,80,127,1889596696
91,15,17,Jits_Phase_5,2,5,63,98,1889657308
91,15,17,Jits_Phase_5,3,5,56,103,1889686892
91,15,17,Jits_Phase_5,0,5,56,103,1890096528
91,15,17,Jits_Phase_5,1,1,48,42,1890108936
91,15,17,Jits_Phase_5,2,5,80,127,1890156912
91,15,17,Jits_Phase_5,3,5,63,98,1890196772
91,15,17,Jits_Phase_5,0,1,48,44,1890607572
91,15,17,Jits_Phase_5,1,5,56,103,1890647604
91,15,17,Jits_Phase_5,2,5,63,98,1890656600
91,15,17,Jits_Phase_5,3,5,80,127,1890659888
91,15,17,Jits_Phase_5,0,5,80,127,1891096932
91,15,17,Jits_Phase_5,1,1,48,48,1891120728
91,15,17,Jits_Phase_5,2,5,63,98,1891186984
91,15,17,Jits_Phase_5,3,5,56,103,1891197476
91,15,17,Jits_Phase_5,0,5,56,103,1891596660
91,15,17,Jits_Phase_5,1,5,63,98,1891599832
91,15,17,Jits_Phase_5,2,1,48,49,1891600804
91,15,17,Jits_Phase_5,3,5,80,127,1891604240
91,15,17,Jits_Phase_5,0,1,48,51,1892085520
91,15,17,Jits_Phase_5,1,5,80,127,1892116808
91,15,17,Jits_Phase_5,2,5,63,98,1892166936
91,15,17,Jits_Phase_5,3,5,56,103,1892196668
91,15,17,Jits_Phase_5,0,1,48,51,1892599352
91,15,17,Jits_Phase_5,1,5,56,103,1892607468
91,15,17,Jits_Phase_5,2,5,80,127,1892616768
91,15,17,Jits_Phase_5,3,5,63,98,1892687292
91,15,17,Jits_Phase_5,0,1,48,52,1893100824
91,15,17,Jits_Phase_5,1,5,56,103,1893117480
91,15,17,Jits_Phase_5,2,5,63,98,1893136744
91,15,17,Jits_Phase_5,3,5,80,127,1893197288
91,15,17,Jits_Phase_5,0,1,48,49,1893595732
91,15,17,Jits_Phase_5,1,5,80,127,1893597232
91,15,17,Jits_Phase_5,2,5,63,98,1893667084
91,15,17,Jits_Phase_5,3,5,56,103,1893686644
91,15,17,Jits_Phase_5,0,5,80,127,1894116768
91,15,17,Jits_Phase_5,1,1,48,48,1894121008
91,15,17,Jits_Phase_5,2,5,56,103,1894127028
91,15,17,Jits_Phase_5,3,5,63,98,1894137372
91,15,17,Jits_Phase_5,0,5,80,127,1894607312
91,15,17,Jits_Phase_5,1,1,48,48,1894622340
91,15,17,Jits_Phase_5,2,5,56,103,1894626640
91,15,17,Jits_Phase_5,3,5,63,98,1894697540
91,15,17,Jits_Phase_5,0,5,56,103,1895117188
91,15,17,Jits_Phase_5,1,1,48,54,1895122700
91,15,17,Jits_Phase_5,2,5,80,127,1895146856
91,15,17,Jits_Phase_5,3,5,63,98,1895167464
91,15,17,Jits_Phase_5,0,1,48,51,1895602156
91,15,17,Jits_Phase_5,1,5,63,98,1895606684
91,15,17,Jits_Phase_5,2,5,56,103,1895666924
91,15,17,Jits_Phase_5,3,5,80,127,1895696748
91,15,17,Jits_Phase_5,0,5,63,98,1896097148
91,15,17,Jits_Phase_5,1,5,80,127,1896100584
91,15,17,Jits_Phase_5,2,1,48,52,1896126416
91,15,17,Jits_Phase_5,3,5,56,103,1896187192
91,15,17,Jits_Phase_5,0,5,56,103,1896617412
91,15,17,Jits_Phase_5,1,1,48,43,1896626832
91,15,17,Jits_Phase_5,2,5,63,98,1896646932
91,15,17,Jits_Phase_5,3,5,80,127,1896686944
91,15,17,Jits_Phase_5,0,5,63,98,1897117180
91,15,17,Jits_Phase_5,1,1,48,50,1897118664
91,15,17,Jits_Phase_5,2,5,56,103,1897156888
91,15,17,Jits_Phase_5,3,5,80,127,1897176524
91,15,17,Jits_Phase_5,0,1,48,54,1897621988
91,15,17,Jits_Phase_5,1,5,63,98,1897626964
91,15,17,Jits_Phase_5,2,5,56,103,1897666976
91,15,17,Jits_Phase_5,3,5,80,127,1897677244
91,15,17,Jits_Phase_5,0,5,80,127,1898107388
91,15,17,Jits_Phase_5,1,1,48,55,1898135916
91,15,17,Jits_Phase_5,2,5,63,98,1898176988
91,15,17,Jits_Phase_5,3,5,56,103,1898197372
91,15,17,Jits_Phase_5,0,5,56,103,1898596744
91,15,17,Jits_Phase_5,1,5,80,127,1898617128
91,15,17,Jits_Phase_5,2,1,48,49,1898635612
91,15,17,Jits_Phase_5,3,5,63,98,1898657204
91,15,17,Jits_Phase_5,0,5,63,98,1899106768
91,15,17,Jits_Phase_5,1,1,48,50,1899114528
91,15,17,Jits_Phase_5,2,5,80,127,1899127220
91,15,17,Jits_Phase_5,3,5,56,103,1899167084
91,15,17,Jits_Phase_5,0,1,48,51,1899592172
91,15,17,Jits_Phase_5,1,5,63,98,1899607560
91,15,17,Jits_Phase_5,2,5,56,103,1899626820
91,15,17,Jits_Phase_5,3,5,80,127,1899637312
91,15,17,Jits_Phase_5,0,1,48,54,1900080604
91,15,17,Jits_Phase_5,1,5,80,127,1900107080
91,15,17,Jits_Phase_5,2,5,56,103,1900126568
91,15,17,Jits_Phase_5,3,5,63,98,1900157584
91,15,17,Jits_Phase_5,0,1,48,54,1900551560
91,15,17,Jits_Phase_5,1,5,56,103,1900676416
91,15,17,Jits_Phase_5,2,5,80,127,1900679556
91,15,17,Jits_Phase_5,3,5,63,98,1900696872
91,15,17,Jits_Phase_5,0,1,48,52,1901073320
91,15,17,Jits_Phase_5,1,5,63,98,1901097580
91,15,17,Jits_Phase_5,2,5,56,103,1901126956
91,15,17,Jits_Phase_5,3,5,80,127,1901186504
91,15,17,Jits_Phase_5,0,1,48,54,1901581840
91,15,17,Jits_Phase_5,1,5,63,98,1901676968
91,15,17,Jits_Phase_5,2,5,56,103,1901687300
91,15,17,Jits_Phase_5,3,5,80,127,1901697420
91,15,17,Jits_Phase_5,0,5,56,103,1902136724
91,15,17,Jits_Phase_5,1,1,48,55,1902151452
91,15,17,Jits_Phase_5,2,5,80,127,1902167512
91,15,17,Jits_Phase_5,3,5,63,98,1902176588
91,15,17,Jits_Phase_5,0,1,48,49,1902653904
91,15,17,Jits_Phase_5,1,5,63,98,1902677312
91,15,17,Jits_Phase_5,2,5,56,103,1902686464
91,15,17,Jits_Phase_5,3,5,80,127,1902707220
91,15,17,Jits_Phase_5,0,5,56,103,1903106404
91,15,17,Jits_Phase_5,1,1,48,51,1903156072
91,15,17,Jits_Phase_5,2,5,63,98,1903166728
91,15,17,Jits_Phase_5,3,5,80,127,1903170320
91,15,17,Jits_Phase_5,0,5,80,127,1903626608
91,15,17,Jits_Phase_5,1,5,56,103,1903636904
91,15,17,Jits_Phase_5,2,1,48,55,1903639800
91,15,17,Jits_Phase_5,3,5,63,98,1903706576
91,15,17,Jits_Phase_5,0,5,80,127,1904117232
91,15,17,Jits_Phase_5,1,1,48,51,1904125824
91,15,17,Jits_Phase_5,2,5,56,103,1904186704
91,15,17,Jits_Phase_5,3,5,63,98,1904197124
91,15,17,Jits_Phase_5,0,1,48,49,1904632692
91,15,17,Jits_Phase_5,1,5,63,98,1904656776
91,15,17,Jits_Phase_5,2,5,56,103,1904666920
91,15,17,Jits_Phase_5,3,5,80,127,1904686408
91,15,17,Jits_Phase_5,0,5,80,127,1905107528
91,15,17,Jits_Phase_5,1,1,48,51,1905115232
91,15,17,Jits_Phase_5,2,5,63,98,1905166572
91,15,17,Jits_Phase_5,3,5,56,103,1905206532
91,15,17,Jits_Phase_5,0,1,48,51,1905606144
91,15,17,Jits_Phase_5,1,5,56,103,1905646924
91,15,17,Jits_Phase_5,2,5,63,98,1905657492
91,15,17,Jits_Phase_5,3,5,80,127,1905697156
91,15,17,Jits_Phase_5,0,5,56,103,1906106676
91,15,17,Jits_Phase_5,1,1,48,52,1906134912
91,15,17,Jits_Phase_5,2,5,80,127,1906136420
91,15,17,Jits_Phase_5,3,5,63,98,1906186620
91,15,17,Jits_Phase_5,0,1,48,48,1906618620
91,15,17,Jits_Phase_5,1,5,56,103,1906647264
91,15,17,Jits_Phase_5,2,5,63,98,1906687276
91,15,17,Jits_Phase_5,3,5,80,127,1906690640
91,15,17,Jits_Phase_5,0,1,48,46,1907138816
91,15,17,Jits_Phase_5,1,5,56,103,1907147156
91,15,17,Jits_Phase_5,2,5,63,98,1907157504
91,15,17,Jits_Phase_5,3,5,80,127,1907176692
91,15,17,Jits_Phase_5,0,5,56,103,1907606832
91,15,17,Jits_Phase_5,1,5,80,127,1907609896
91,15,17,Jits_Phase_5,2,1,48,47,1907626660
91,15,17,Jits_Phase_5,3,5,63,98,1907646764
91,15,17,Jits_Phase_5,0,1,48,46,1908113884
91,15,17,Jits_Phase_5,1,5,63,98,1908146512
91,15,17,Jits_Phase_5,2,5,56,103,1908177380
91,15,17,Jits_Phase_5,3,5,80,127,1908196644
91,15,17,Jits_Phase_5,0,5,80,127,1908616452
91,15,17,Jits_Phase_5,1,1,48,48,1908627092
91,15,17,Jits_Phase_5,2,5,56,103,1908628512
91,15,17,Jits_Phase_5,3,5,63,98,1908637208
91,15,17,Jits_Phase_5,0,5,56,103,1909117480
91,15,17,Jits_Phase_5,1,1,48,45,1909127500
91,15,17,Jits_Phase_5,2,5,80,127,1909157336
91,15,17,Jits_Phase_5,3,5,63,98,1909187012
91,15,17,Jits_Phase_5,0,1,48,45,1909616464
91,15,17,Jits_Phase_5,1,5,63,98,1909627204
91,15,17,Jits_Phase_5,2,5,80,127,1909636428
91,15,17,Jits_Phase_5,3,5,56,103,1909646696
91,15,17,Jits_Phase_5,0,1,48,53,1910102944
91,15,17,Jits_Phase_5,1,5,56,103,1910116688
91,15,17,Jits_Phase_5,2,5,63,98,1910187488
91,15,17,Jits_Phase_5,3,5,80,127,1910196564
91,15,17,Jits_Phase_5,0,1,48,49,1910610636
91,15,17,Jits_Phase_5,1,5,80,127,1910626552
91,15,17,Jits_Phase_5,2,5,56,103,1910637120
91,15,17,Jits_Phase_5,3,5,63,98,1910687320
91,15,17,Jits_Phase_5,0,1,48,47,1911131136
91,15,17,Jits_Phase_5,1,5,80,127,1911136564
91,15,17,Jits_Phase_5,2,5,56,103,1911197324
91,15,17,Jits_Phase_5,3,5,63,98,1911226612
91,15,17,Jits_Phase_5,0,1,48,53,1911628572
91,15,17,Jits_Phase_5,1,5,56,103,1911637288
91,15,17,Jits_Phase_5,2,5,80,127,1911640428
91,15,17,Jits_Phase_5,3,5,63,98,1911677444
91,15,17,Jits_Phase_5,0,1,48,46,1912123208
91,15,17,Jits_Phase_5,1,5,56,103,1912166772
91,15,17,Jits_Phase_5,2,5,63,98,1912196448
91,15,17,Jits_Phase_5,3,5,80,127,1912206568
91,15,17,Jits_Phase_5,0,1,48,44,1912622736
91,15,17,Jits_Phase_5,1,5,63,98,1912676712
91,15,17,Jits_Phase_5,2,5,80,127,1912687208
91,15,17,Jits_Phase_5,3,5,56,103,1912697180
91,15,17,Jits_Phase_5,0,5,80,127,1913127324
91,15,17,Jits_Phase_5,1,1,48,46,1913144072
91,15,17,Jits_Phase_5,2,5,56,103,1913176468
91,15,17,Jits_Phase_5,3,5,63,98,1913179684
91,15,17,Jits_Phase_5,0,1,48,48,1913644212
91,15,17,Jits_Phase_5,1,5,56,103,1913656664
91,15,17,Jits_Phase_5,2,5,80,127,1913677420
91,15,17,Jits_Phase_5,3,5,63,98,1913687392
91,15,17,Jits_Phase_5,0,5,63,98,1914137092
91,15,17,Jits_Phase_5,1,1,48,44,1914138132
91,15,17,Jits_Phase_5,2,5,56,103,1914166612
91,15,17,Jits_Phase_5,3,5,80,127,1914187368
91,15,17,Jits_Phase_5,0,1,48,49,1914644436
91,15,17,Jits_Phase_5,1,5,56,103,1914647024
91,15,17,Jits_Phase_5,2,5,80,127,1914657220
91,15,17,Jits_Phase_5,3,5,63,98,1914726748
91,15,17,Jits_Phase_5,0,5,63,98,1915137392
91,15,17,Jits_Phase_5,1,1,48,49,1915151148
91,15,17,Jits_Phase_5,2,5,80,127,1915177348
91,15,17,Jits_Phase_5,3,5,56,103,1915217284
91,15,17,Jits_Phase_5,0,1,48,46,1915631412
91,15,17,Jits_Phase_5,1,5,56,103,1915647324
91,15,17,Jits_Phase_5,2,5,63,98,1915656624
91,15,17,Jits_Phase_5,3,5,80,127,1915677252
91,15,17,Jits_Phase_5,0,1,48,49,1916119324
91,15,17,Jits_Phase_5,1,5,63,98,1916187252
91,15,17,Jits_Phase_5,2,5,80,127,1916206444
91,15,17,Jits_Phase_5,3,5,56,103,1916227032
91,15,17,Jits_Phase_5,0,5,56,103,1916627272
91,15,17,Jits_Phase_5,1,1,48,46,1916630988
91,15,17,Jits_Phase_5,2,5,80,127,1916707088
91,15,17,Jits_Phase_5,3,5,63,98,1916717284
91,15,17,Jits_Phase_5,0,1,48,40,1917141316
91,15,17,Jits_Phase_5,1,5,80,127,1917167040
91,15,17,Jits_Phase_5,2,5,63,98,1917177460
91,15,17,Jits_Phase_5,3,5,56,103,1917206864
91,15,17,Jits_Phase_5,0,5,63,98,1917626720
91,15,17,Jits_Phase_5,1,1,48,46,1917645652
91,15,17,Jits_Phase_5,2,5,80,127,1917666724
91,15,17,Jits_Phase_5,3,5,56,103,1917727284
91,15,17,Jits_Phase_5,0,1,48,49,1918135456
91,15,17,Jits_Phase_5,1,5,63,98,1918136800
91,15,17,Jits_Phase_5,2,5,56,103,1918187152
91,15,17,Jits_Phase_5,3,5,80,127,1918216604
91,15,17,Jits_Phase_5,0,5,80,127,1918637308
91,15,17,Jits_Phase_5,1,1,48,37,1918645780
91,15,17,Jits_Phase_5,2,5,63,98,1918647196
91,15,17,Jits_Phase_5,3,5,56,103,1918717324
91,15,17,Jits_Phase_5,0,1,48,42,1919163712
91,15,17,Jits_Phase_5,1,5,80,127,1919196708
91,15,17,Jits_Phase_5,2,5,56,103,1919206676
91,15,17,Jits_Phase_5,3,5,63,98,1919209820
91,15,17,Jits_Phase_5,0,5,56,103,1919637128
91,15,17,Jits_Phase_5,1,5,80,127,1919657216
91,15,17,Jits_Phase_5,2,5,63,98,1919666588
91,15,17,Jits_Phase_5,3,1,48,41,1919673600
91,15,17,Jits_Phase_5,0,1,48,48,1920113476
91,15,17,Jits_Phase_5,1,5,63,98,1920146780
91,15,17,Jits_Phase_5,2,5,56,103,1920186864
91,15,17,Jits_Phase_5,3,5,80,127,1920207176
91,15,17,Jits_Phase_5,0,1,48,50,1920635948
91,15,17,Jits_Phase_5,1,5,63,98,1920646532
91,15,17,Jits_Phase_5,2,5,56,103,1920707144
91,15,17,Jits_Phase_5,3,5,80,127,1920710284
91,15,17,Jits_Phase_5,0,5,56,103,1921107248
91,15,17,Jits_Phase_5,1,5,80,127,1921126884
91,15,17,Jits_Phase_5,2,1,48,43,1921156824
91,15,17,Jits_Phase_5,3,5,63,98,1921166812
91,15,17,Jits_Phase_5,0,5,56,103,1921636676
91,15,17,Jits_Phase_5,1,1,48,46,1921650204
91,15,17,Jits_Phase_5,2,5,63,98,1921657128
91,15,17,Jits_Phase_5,3,5,80,127,1921666352
91,15,17,Jits_Phase_5,0,5,80,127,1922106696
91,15,17,Jits_Phase_5,1,5,56,103,1922136520
91,15,17,Jits_Phase_5,2,1,48,42,1922137856
91,15,17,Jits_Phase_5,3,5,63,98,1922177348
91,15,17,Jits_Phase_5,0,1,48,47,1922615128
91,15,17,Jits_Phase_5,1,5,80,127,1922616564
91,15,17,Jits_Phase_5,2,5,56,103,1922637320
91,15,17,Jits_Phase_5,3,5,63,98,1922696660
91,15,17,Jits_Phase_5,0,1,48,49,1923117784
91,15,17,Jits_Phase_5,1,5,56,103,1923126576
91,15,17,Jits_Phase_5,2,5,80,127,1923147184
91,15,17,Jits_Phase_5,3,5,63,98,1923206524
91,15,17,Jits_Phase_5,0,5,80,127,1923607004
91,15,17,Jits_Phase_5,1,5,56,103,1923617124
91,15,17,Jits_Phase_5,2,1,48,46,1923619644
91,15,17,Jits_Phase_5,3,5,63,98,1923657204
91,15,17,Jits_Phase_5,0,5,63,98,1924106588
91,15,17,Jits_Phase_5,1,1,48,43,1924114836
91,15,17,Jits_Phase_5,2,5,56,103,1924146544
91,15,17,Jits_Phase_5,3,5,80,127,1924149608
91,15,17,Jits_Phase_5,0,1,48,48,1924618280
91,15,17,Jits_Phase_5,1,5,63,98,1924627092
91,15,17,Jits_Phase_5,2,5,80,127,1924666808
91,15,17,Jits_Phase_5,3,5,56,103,1924696408
91,15,17,Jits_Phase_5,0,1,48,46,1925116856
91,15,17,Jits_Phase_5,1,5,56,103,1925118200
91,15,17,Jits_Phase_5,2,5,63,98,1925126452
91,15,17,Jits_Phase_5,3,5,80,127,1925157200
91,15,17,Jits_Phase_5,0,5,80,127,1925606648
91,15,17,Jits_Phase_5,1,1,48,48,1925611860
91,15,17,Jits_Phase_5,2,5,63,98,1925677316
91,15,17,Jits_Phase_5,3,5,56,103,1925686764
91,15,17,Jits_Phase_5,0,5,63,98,1926106336
91,15,17,Jits_Phase_5,1,1,48,45,1926111400
91,15,17,Jits_Phase_5,2,5,56,103,1926177156
91,15,17,Jits_Phase_5,3,5,80,127,1926187424
91,15,17,Jits_Phase_5,0,5,63,98,1926587124
91,15,17,Jits_Phase_5,1,5,56,103,1926607288
91,15,17,Jits_Phase_5,2,1,48,46,1926612576
91,15,17,Jits_Phase_5,3,5,80,127,1926647288
91,15,17,Jits_Phase_5,0,5,56,103,1927067176
91,15,17,Jits_Phase_5,1,5,63,98,1927077220
91,15,17,Jits_Phase_5,2,1,48,48,1927082288
91,15,17,Jits_Phase_5,3,5,80,127,1927157004
91,15,17,Jits_Phase_5,0,5,63,98,1927556600
91,15,17,Jits_Phase_5,1,1,48,50,1927576208
91,15,17,Jits_Phase_5,2,5,56,103,1927587168
91,15,17,Jits_Phase_5,3,5,80,127,1927627104
91,15,17,Jits_Phase_5,0,1,48,55,1928035792
91,15,17,Jits_Phase_5,1,5,56,103,1928057092
91,15,17,Jits_Phase_5,2,5,63,98,1928097252
91,15,17,Jits_Phase_5,3,5,80,127,1928137248
91,15,17,Jits_Phase_5,0,1,48,50,1928542280
91,15,17,Jits_Phase_5,1,5,80,127,1928556992
91,15,17,Jits_Phase_5,2,5,56,103,1928636932
91,15,17,Jits_Phase_5,3,5,63,98,1928647188
91,15,17,Jits_Phase_5,0,1,48,47,1929037536
91,15,17,Jits_Phase_5,1,5,56,103,1929096600
91,15,17,Jits_Phase_5,2,5,63,98,1929099592
91,15,17,Jits_Phase_5,3,5,80,127,1929107016
91,15,17,Jits_Phase_5,0,1,48,51,1929547172
91,15,17,Jits_Phase_5,1,5,56,103,1929616720
91,15,17,Jits_Phase_5,2,5,63,98,1929637104
91,15,17,Jits_Phase_5,3,5,80,127,1929646536
91,15,17,Jits_Phase_5,0,1,48,48,1930076100
91,15,17,Jits_Phase_5,1,5,63,98,1930077592
91,15,17,Jits_Phase_5,2,5,80,127,1930087036
91,15,17,Jits_Phase_5,3,5,56,103,1930107272
91,15,17,Jits_Phase_5,0,1,48,47,1930577568
91,15,17,Jits_Phase_5,1,5,63,98,1930578904
91,15,17,Jits_Phase_5,2,5,56,103,1930657132
91,15,17,Jits_Phase_5,3,5,80,127,1930660344
91,15,17,Jits_Phase_5,0,5,63,98,1931077164
91,15,17,Jits_Phase_5,1,5,56,103,1931096352
91,15,17,Jits_Phase_5,2,1,48,57,1931111756
91,15,17,Jits_Phase_5,3,5,80,127,1931127140
91,15,17,Jits_Phase_5,0,5,56,103,1931576764
91,15,17,Jits_Phase_5,1,5,63,98,1931597148
91,15,17,Jits_Phase_5,2,1,48,51,1931599160
91,15,17,Jits_Phase_5,3,5,80,127,1931607412
91,15,17,Jits_Phase_5,0,1,48,53,1932075600
91,15,17,Jits_Phase_5,1,5,56,103,1932107012
91,15,17,Jits_Phase_5,2,5,63,98,1932136984
91,15,17,Jits_Phase_5,3,5,80,127,1932140272
91,15,17,Jits_Phase_5,0,5,56,103,1932556768
91,15,17,Jits_Phase_5,1,1,48,48,1932565236
91,15,17,Jits_Phase_5,2,5,63,98,1932596572
91,15,17,Jits_Phase_5,3,5,80,127,1932657108
91,15,17,Jits_Phase_5,0,1,48,49,1933056204
91,15,17,Jits_Phase_5,1,5,56,103,1933077000
91,15,17,Jits_Phase_5,2,5,63,98,1933087048
91,15,17,Jits_Phase_5,3,5,80,127,1933146464
91,15,17,Jits_Phase_5,0,1,48,46,1933542304
91,15,17,Jits_Phase_5,1,5,56,103,1933587088
91,15,17,Jits_Phase_5,2,5,80,127,1933607324
91,15,17,Jits_Phase_5,3,5,63,98,1933636912
91,15,17,Jits_Phase_5,0,1,48,52,1934075780
91,15,17,Jits_Phase_5,1,5,80,127,1934086444
91,15,17,Jits_Phase_5,2,5,56,103,1934097112
91,15,17,Jits_Phase_5,3,5,63,98,1934117196
91,15,17,Jits_Phase_5,0,1,48,49,1934576832
91,15,17,Jits_Phase_5,1,5,63,98,1934578320
91,15,17,Jits_Phase_5,2,5,80,127,1934657164
91,15,17,Jits_Phase_5,3,5,56,103,1934666988
91,15,17,Jits_Phase_5,0,1,48,47,1935085624
91,15,17,Jits_Phase_5,1,5,80,127,1935166956
91,15,17,Jits_Phase_5,2,5,56,103,1935187324
91,15,17,Jits_Phase_5,3,5,63,98,1935190244
91,15,17,Jits_Phase_5,0,1,48,51,1935588880
91,15,17,Jits_Phase_5,1,5,63,98,1935657332
91,15,17,Jits_Phase_5,2,5,80,127,1935660772
91,15,17,Jits_Phase_5,3,5,56,103,1935717032
91,15,17,Jits_Phase_5,0,1,48,52,1936109072
91,15,17,Jits_Phase_5,1,5,56,103,1936147108
91,15,17,Jits_Phase_5,2,5,80,127,1936157008
91,15,17,Jits_Phase_5,3,5,63,98,1936196944
91,15,17,Jits_Phase_5,0,1,48,45,1936620132
91,15,17,Jits_Phase_5,1,5,56,103,1936627128
91,15,17,Jits_Phase_5,2,5,63,98,1936686420
91,15,17,Jits_Phase_5,3,5,80,127,1936696764
91,15,17,Jits_Phase_5,0,5,63,98,1937137072
91,15,17,Jits_Phase_5,1,1,48,47,1937147832
91,15,17,Jits_Phase_5,2,5,80,127,1937176952
91,15,17,Jits_Phase_5,3,5,56,103,1937217188
91,15,17,Jits_Phase_5,0,5,56,103,1937636820
91,15,17,Jits_Phase_5,1,1,48,43,1937670432
91,15,17,Jits_Phase_5,2,5,63,98,1937716936
91,15,17,Jits_Phase_5,3,5,80,127,1937720068
91,15,17,Jits_Phase_5,0,1,48,46,1938158724
91,15,17,Jits_Phase_5,1,5,80,127,1938196908
91,15,17,Jits_Phase_5,2,5,56,103,1938226656
91,15,17,Jits_Phase_5,3,5,63,98,1938229796
91,15,17,Jits_Phase_5,0,5,56,103,1938656556
91,15,17,Jits_Phase_5,1,1,48,46,1938660944
91,15,17,Jits_Phase_5,2,5,80,127,1938677008
91,15,17,Jits_Phase_5,3,5,63,98,1938716972
91,15,17,Jits_Phase_5,0,5,80,127,1939136844
91,15,17,Jits_Phase_5,1,5,63,98,1939157228
91,15,17,Jits_Phase_5,2,1,48,36,1939177656
91,15,17,Jits_Phase_5,3,5,56,103,1939216960
91,15,17,Jits_Phase_5,0,5,63,98,1939647020
91,15,17,Jits_Phase_5,1,5,56,103,1939657068
91,15,17,Jits_Phase_5,2,1,48,49,1939665068
91,15,17,Jits_Phase_5,3,5,80,127,1939707184
91,15,17,Jits_Phase_5,0,5,56,103,1940137256
91,15,17,Jits_Phase_5,1,1,48,48,1940155152
91,15,17,Jits_Phase_5,2,5,63,98,1940157036
91,15,17,Jits_Phase_5,3,5,80,127,1940167156
91,15,17,Jits_Phase_5,0,5,56,103,1940626828
91,15,17,Jits_Phase_5,1,5,63,98,1940629896
91,15,17,Jits_Phase_5,2,1,48,49,1940640732
91,15,17,Jits_Phase_5,3,5,80,127,1940647284
91,15,17,Jits_Phase_5,0,1,48,45,1941109168
91,15,17,Jits_Phase_5,1,5,63,98,1941166732
91,15,17,Jits_Phase_5,2,5,56,103,1941197156
91,15,17,Jits_Phase_5,3,5,80,127,1941227040
91,15,17,Jits_Phase_5,0,1,48,47,1941619484
91,15,17,Jits_Phase_5,1,5,80,127,1941627156
91,15,17,Jits_Phase_5,2,5,56,103,1941717344
91,15,17,Jits_Phase_5,3,5,63,98,1941720412
91,15,17,Jits_Phase_5,0,5,56,103,1942126976
91,15,17,Jits_Phase_5,1,5,80,127,1942129968
91,15,17,Jits_Phase_5,2,1,48,46,1942132708
91,15,17,Jits_Phase_5,3,5,63,98,1942206836
91,15,17,Jits_Phase_5,0,5,80,127,1942626804
91,15,17,Jits_Phase_5,1,1,48,45,1942629848
91,15,17,Jits_Phase_5,2,5,63,98,1942687112
91,15,17,Jits_Phase_5,3,5,56,103,1942717012
91,15,17,Jits_Phase_5,0,5,63,98,1943127396
91,15,17,Jits_Phase_5,1,5,80,127,1943136768
91,15,17,Jits_Phase_5,2,1,48,45,1943140416
91,15,17,Jits_Phase_5,3,5,56,103,1943207264
91,15,17,Jits_Phase_5,0,1,48,47,1943619844
91,15,17,Jits_Phase_5,1,5,56,103,1943686476
91,15,17,Jits_Phase_5,2,5,80,127,1943717260
91,15,17,Jits_Phase_5,3,5,63,98,1943767532
91,15,17,Jits_Phase_5,0,1,48,48,1944155708
91,15,17,Jits_Phase_5,1,5,63,98,1944277308
91,15,17,Jits_Phase_5,2,5,56,103,1944306980
91,15,17,Jits_Phase_5,3,5,80,127,1944310268
91,15,17,Jits_Phase_5,0,1,48,41,1944665640
91,15,17,Jits_Phase_5,1,5,63,98,1944777128
91,15,17,Jits_Phase_5,2,5,80,127,1944796764
91,15,17,Jits_Phase_5,3,5,56,103,1944806960
91,15,17,Jits_Phase_5,0,1,48,41,1945241732
91,15,17,Jits_Phase_5,1,5,56,103,1945287012
91,15,17,Jits_Phase_5,2,5,63,98,1945290224
91,15,17,Jits_Phase_5,3,5,80,127,1945306496
91,15,17,Jits_Phase_5,0,5,56,103,1945736716
91,15,17,Jits_Phase_5,1,5,63,98,1945746836
91,15,17,Jits_Phase_5,2,1,48,45,1945760516
91,15,17,Jits_Phase_5,3,5,80,127,1945776504
91,15,17,Jits_Phase_5,0,5,63,98,1946256780
91,15,17,Jits_Phase_5,1,5,80,127,1946277092
91,15,17,Jits_Phase_5,2,1,48,41,1946290324
91,15,17,Jits_Phase_5,3,5,56,103,1946317096
91,15,17,Jits_Phase_5,0,1,48,42,1946782264
91,15,17,Jits_Phase_5,1,5,56,103,1946787092
91,15,17,Jits_Phase_5,2,5,63,98,1946827024
91,15,17,Jits_Phase_5,3,5,80,127,1946830392
91,15,17,Jits_Phase_5,0,5,80,127,1947226684
91,15,17,Jits_Phase_5,1,5,56,103,1947266396
91,15,17,Jits_Phase_5,2,1,48,45,1947286676
91,15,17,Jits_Phase_5,3,5,63,98,1947316736
91,15,17,Jits_Phase_5,0,1,48,44,1947769640
91,15,17,Jits_Phase_5,1,5,56,103,1947786828
91,15,17,Jits_Phase_5,2,5,80,127,1947796948
91,15,17,Jits_Phase_5,3,5,63,98,1947826696
91,15,17,Jits_Phase_5,0,5,56,103,1948237140
91,15,17,Jits_Phase_5,1,1,48,48,1948270900
91,15,17,Jits_Phase_5,2,5,80,127,1948277068
91,15,17,Jits_Phase_5,3,5,63,98,1948327344
91,15,17,Jits_Phase_5,0,5,56,103,1948736828
91,15,17,Jits_Phase_5,1,1,48,47,1948755908
91,15,17,Jits_Phase_5,2,5,80,127,1948776688
91,15,17,Jits_Phase_5,3,5,63,98,1948827032
91,15,17,Jits_Phase_5,0,5,80,127,1949227452
91,15,17,Jits_Phase_5,1,1,48,53,1949253864
91,15,17,Jits_Phase_5,2,5,63,98,1949307312
91,15,17,Jits_Phase_5,3,5,56,103,1949316608
91,15,17,Jits_Phase_5,0,1,48,50,1949744352
91,15,17,Jits_Phase_5,1,5,80,127,1949777332
91,15,17,Jits_Phase_5,2,5,56,103,1949786552
91,15,17,Jits_Phase_5,3,5,63,98,1949806940
91,15,17,Jits_Phase_5,0,5,63,98,1950247496
91,15,17,Jits_Phase_5,1,1,48,47,1950251736
91,15,17,Jits_Phase_5,2,5,56,103,1950316944
91,15,17,Jits_Phase_5,3,5,80,127,1950320232
91,15,17,Jits_Phase_5,0,5,80,127,1950736828
91,15,17,Jits_Phase_5,1,1,48,47,1950782576
91,15,17,Jits_Phase_5,2,5,63,98,1950786800
91,15,17,Jits_Phase_5,3,5,56,103,1950826736
91,15,17,Jits_Phase_5,0,5,63,98,1951277424
91,15,17,Jits_Phase_5,1,1,48,44,1951287212
91,15,17,Jits_Phase_5,2,5,56,103,1951317652
91,15,17,Jits_Phase_5,3,5,80,127,1951326728
91,15,17,Jits_Phase_5,0,5,63,98,1951766844
91,15,17,Jits_Phase_5,1,5,56,103,1951787448
91,15,17,Jits_Phase_5,2,1,48,50,1951801732
91,15,17,Jits_Phase_5,3,5,80,127,1951807004
91,15,17,Jits_Phase_5,0,5,80,127,1952226636
91,15,17,Jits_Phase_5,1,5,56,103,1952236904
91,15,17,Jits_Phase_5,2,5,63,98,1952257512
91,15,17,Jits_Phase_5,3,1,48,45,1952276696
91,15,17,Jits_Phase_5,0,5,63,98,1952757104
91,15,17,Jits_Phase_5,1,1,48,49,1952759924
91,15,17,Jits_Phase_5,2,5,56,103,1952796988
91,15,17,Jits_Phase_5,3,5,80,127,1952826732
91,15,17,Jits_Phase_5,0,5,56,103,1953216852
91,15,17,Jits_Phase_5,1,5,63,98,1953246752
91,15,17,Jits_Phase_5,2,5,80,127,1953277248
91,15,17,Jits_Phase_5,3,1,48,47,1953283360
91,15,17,Jits_Phase_5,0,5,80,127,1953636760
91,15,17,Jits_Phase_5,1,5,56,103,1953707260
91,15,17,Jits_Phase_5,2,5,63,98,1953710628
91,15,17,Jits_Phase_5,3,1,48,42,1953769408
91,15,17,Jits_Phase_5,0,5,56,103,1954146560
91,15,17,Jits_Phase_5,1,5,63,98,1954196760
91,15,17,Jits_Phase_5,2,5,80,127,1954226584
91,15,17,Jits_Phase_5,3,1,48,48,1954242208
91,15,17,Jits_Phase_5,0,5,63,98,1954626992
91,15,17,Jits_Phase_5,1,5,80,127,1954630356
91,15,17,Jits_Phase_5,2,5,56,103,1954687524
91,15,17,Jits_Phase_5,3,1,48,46,1954725564
91,15,17,Jits_Phase_5,0,5,56,103,1955157224
91,15,17,Jits_Phase_5,1,5,80,127,1955166668
91,15,17,Jits_Phase_5,2,1,48,44,1955200728
91,15,17,Jits_Phase_5,3,5,63,98,1955216716
91,15,17,Jits_Phase_5,0,5,63,98,1955627468
91,15,17,Jits_Phase_5,1,5,56,103,1955636620
91,15,17,Jits_Phase_5,2,1,48,46,1955652844
91,15,17,Jits_Phase_5,3,5,80,127,1955667184
91,15,17,Jits_Phase_5,0,1,48,51,1956130324
91,15,17,Jits_Phase_5,1,5,63,98,1956156876
91,15,17,Jits_Phase_5,2,5,80,127,1956160088
91,15,17,Jits_Phase_5,3,5,56,103,1956186772
91,15,17,Jits_Phase_5,0,1,48,47,1956639652
91,15,17,Jits_Phase_5,1,5,63,98,1956676920
91,15,17,Jits_Phase_5,2,5,56,103,1956696480
91,15,17,Jits_Phase_5,3,5,80,127,1956699692
91,15,17,Jits_Phase_5,0,5,63,98,1957136740
91,15,17,Jits_Phase_5,1,1,48,45,1957146600
91,15,17,Jits_Phase_5,2,5,56,103,1957207684
91,15,17,Jits_Phase_5,3,5,80,127,1957226796
91,15,17,Jits_Phase_5,0,5,56,103,1957627248
91,15,17,Jits_Phase_5,1,5,63,98,1957636548
91,15,17,Jits_Phase_5,2,1,48,50,1957690180
91,15,17,Jits_Phase_5,3,5,80,127,1957726544
91,15,17,Jits_Phase_5,0,5,56,103,1958146492
91,15,17,Jits_Phase_5,1,1,48,45,1958174576
91,15,17,Jits_Phase_5,2,5,80,127,1958187348
91,15,17,Jits_Phase_5,3,5,63,98,1958196796
91,15,17,Jits_Phase_5,0,1,48,48,1958663972
91,15,17,Jits_Phase_5,1,5,56,103,1958666704
91,15,17,Jits_Phase_5,2,5,63,98,1958697304
91,15,17,Jits_Phase_5,3,5,80,127,1958726904
91,15,17,Jits_Phase_5,0,5,80,127,1959127500
91,15,17,Jits_Phase_5,1,5,63,98,1959167436
91,15,17,Jits_Phase_5,2,1,48,51,1959176484
91,15,17,Jits_Phase_5,3,5,56,103,1959187016
91,15,17,Jits_Phase_5,0,1,48,43,1959651276
91,15,17,Jits_Phase_5,1,5,56,103,1959667116
91,15,17,Jits_Phase_5,2,5,80,127,1959686676
91,15,17,Jits_Phase_5,3,5,63,98,1959707012
91,15,17,Jits_Phase_5,0,5,63,98,1960137056
91,15,17,Jits_Phase_5,1,1,48,49,1960142420
91,15,17,Jits_Phase_5,2,5,56,103,1960147248
91,15,17,Jits_Phase_5,3,5,80,127,1960206736
91,15,17,Jits_Phase_5,0,1,48,51,1960635112
91,15,17,Jits_Phase_5,1,5,56,103,1960636776
91,15,17,Jits_Phase_5,2,5,63,98,1960706532
91,15,17,Jits_Phase_5,3,5,80,127,1960726940
91,15,17,Jits_Phase_5,0,5,56,103,1961136684
91,15,17,Jits_Phase_5,1,1,48,47,1961148720
91,15,17,Jits_Phase_5,2,5,63,98,1961167252
91,15,17,Jits_Phase_5,3,5,80,127,1961207188
91,15,17,Jits_Phase_5,0,5,63,98,1961626936
91,15,17,Jits_Phase_5,1,1,48,45,1961640760
91,15,17,Jits_Phase_5,2,5,56,103,1961677352
91,15,17,Jits_Phase_5,3,5,80,127,1961687620
91,15,17,Jits_Phase_5,0,1,48,44,1962142004
91,15,17,Jits_Phase_5,1,5,56,103,1962166608
91,15,17,Jits_Phase_5,2,5,63,98,1962216884
91,15,17,Jits_Phase_5,3,5,80,127,1962227152
91,15,17,Jits_Phase_5,0,5,56,103,1962636772
91,15,17,Jits_Phase_5,1,5,63,98,1962646820
91,15,17,Jits_Phase_5,2,1,48,46,1962667028
91,15,17,Jits_Phase_5,3,5,80,127,1962726828
91,15,17,Jits_Phase_5,0,9999,9999,9999,1878394960
91,15,17,Jits_Phase_5,1,9999,9999,9999,1878894668
91,15,17,Jits_Phase_5,2,9999,9999,9999,1879394396
91,15,17,Jits_Phase_5,3,9999,9999,9999,1879894100
91,15,17,Jits_Phase_5,4,9999,9999,9999,1880394808
91,15,17,Jits_Phase_5,5,9999,9999,9999,1880894540
91,15,17,Jits_Phase_5,6,9999,9999,9999,1881394288
91,15,17,Jits_Phase_5,7,9999,9999,9999,1881895000
91,15,17,Jits_Phase_5,8,9999,9999,9999,1882394744
91,15,17,Jits_Phase_5,9,9999,9999,9999,1882894416
91,15,17,Jits_Phase_5,10,9999,9999,9999,1883394172
91,15,17,Jits_Phase_5,11,9999,9999,9999,1883894908
91,15,17,Jits_Phase_5,12,9999,9999,9999,1884394580
91,15,17,Jits_Phase_5,13,9999,9999,9999,1884894328
91,15,17,Jits_Phase_5,14,9999,9999,9999,1885395052
91,15,17,Jits_Phase_5,15,9999,9999,9999,1885894724
91,15,17,Jits_Phase_5,16,9999,9999,9999,1886394472
91,15,17,Jits_Phase_5,17,9999,9999,9999,1886894148
91,15,17,Jits_Phase_5,18,9999,9999,9999,1887394940
91,15,17,Jits_Phase_5,19,9999,9999,9999,1887894620
91,15,17,Jits_Phase_5,20,9999,9999,9999,1888394292
91,15,17,Jits_Phase_5,21,9999,9999,9999,1888895088
91,15,17,Jits_Phase_5,22,9999,9999,9999,1889394772
91,15,17,Jits_Phase_5,23,9999,9999,9999,1889894460
91,15,17,Jits_Phase_5,24,9999,9999,9999,1890394212
91,15,17,Jits_Phase_5,25,9999,9999,9999,1890894940
91,15,17,Jits_Phase_5,26,9999,9999,9999,1891394616
91,15,17,Jits_Phase_5,27,9999,9999,9999,1891894356
91,15,17,Jits_Phase_5,28,9999,9999,9999,1892395096
91,15,17,Jits_Phase_5,29,9999,9999,9999,1892905032
91,15,17,Jits_Phase_5,30,9999,9999,9999,1893394520
91,15,17,Jits_Phase_5,31,9999,9999,9999,1893894244
91,15,17,Jits_Phase_5,32,9999,9999,9999,1894394964
91,15,17,Jits_Phase_5,33,9999,9999,9999,1894894656
91,15,17,Jits_Phase_5,34,9999,9999,9999,1895394420
91,15,17,Jits_Phase_5,35,9999,9999,9999,1895894112
91,15,17,Jits_Phase_5,36,9999,9999,9999,1896394820
91,15,17,Jits_Phase_5,37,9999,9999,9999,1896894572
91,15,17,Jits_Phase_5,38,9999,9999,9999,1897394264
91,15,17,Jits_Phase_5,39,9999,9999,9999,1897894984
91,15,17,Jits_Phase_5,40,9999,9999,9999,1898394736
91,15,17,Jits_Phase_5,41,9999,9999,9999,1898894424
91,15,17,Jits_Phase_5,42,9999,9999,9999,1899394112
91,15,17,Jits_Phase_5,43,9999,9999,9999,1899894904
91,15,17,Jits_Phase_5,44,9999,9999,9999,1900394580
91,15,17,Jits_Phase_5,45,9999,9999,9999,1900894328
91,15,17,Jits_Phase_5,46,9999,9999,9999,1901395044
91,15,17,Jits_Phase_5,47,9999,9999,9999,1901894724
91,15,17,Jits_Phase_5,48,9999,9999,9999,1902404664
91,15,17,Jits_Phase_5,49,9999,9999,9999,1902904436
91,15,17,Jits_Phase_5,50,9999,9999,9999,1903404100
91,15,17,Jits_Phase_5,51,9999,9999,9999,1903904836
91,15,17,Jits_Phase_5,52,9999,9999,9999,1904404604
91,15,17,Jits_Phase_5,53,9999,9999,9999,1904904272
91,15,17,Jits_Phase_5,54,9999,9999,9999,1905404992
91,15,17,Jits_Phase_5,55,9999,9999,9999,1905904756
91,15,17,Jits_Phase_5,56,9999,9999,9999,1906404432
91,15,17,Jits_Phase_5,57,9999,9999,9999,1906904116
91,15,17,Jits_Phase_5,58,9999,9999,9999,1907404916
91,15,17,Jits_Phase_5,59,9999,9999,9999,1907904576
91,15,17,Jits_Phase_5,60,9999,9999,9999,1908404344
91,15,17,Jits_Phase_5,61,9999,9999,9999,1908905060
91,15,17,Jits_Phase_5,62,9999,9999,9999,1909404752
91,15,17,Jits_Phase_5,63,9999,9999,9999,1909904440
91,15,17,Jits_Phase_5,64,9999,9999,9999,1910424640
91,15,17,Jits_Phase_5,65,9999,9999,9999,1910924388
91,15,17,Jits_Phase_5,66,9999,9999,9999,1911424068
91,15,17,Jits_Phase_5,67,9999,9999,9999,1911924852
91,15,17,Jits_Phase_5,68,9999,9999,9999,1912424532
91,15,17,Jits_Phase_5,69,9999,9999,9999,1912924284
91,15,17,Jits_Phase_5,70,9999,9999,9999,1913424996
91,15,17,Jits_Phase_5,71,9999,9999,9999,1913924688
91,15,17,Jits_Phase_5,72,9999,9999,9999,1914424436
91,15,17,Jits_Phase_5,73,9999,9999,9999,1914924112
91,15,17,Jits_Phase_5,74,9999,9999,9999,1915424836
91,15,17,Jits_Phase_5,75,9999,9999,9999,1915924584
91,15,17,Jits_Phase_5,76,9999,9999,9999,1916424316
91,15,17,Jits_Phase_5,77,9999,9999,9999,1916925032
91,15,17,Jits_Phase_5,78,9999,9999,9999,1917424724
91,15,17,Jits_Phase_5,79,9999,9999,9999,1917924476
91,15,17,Jits_Phase_5,80,9999,9999,9999,1918424152
91,15,17,Jits_Phase_5,81,9999,9999,9999,1918904428
91,15,17,Jits_Phase_5,82,9999,9999,9999,1919404120
91,15,17,Jits_Phase_5,83,9999,9999,9999,1919904844
91,15,17,Jits_Phase_5,84,9999,9999,9999,1920404540
91,15,17,Jits_Phase_5,85,9999,9999,9999,1920904284
91,15,17,Jits_Phase_5,86,9999,9999,9999,1921405004
91,15,17,Jits_Phase_5,87,9999,9999,9999,1921904764
91,15,17,Jits_Phase_5,88,9999,9999,9999,1922404448
91,15,17,Jits_Phase_5,89,9999,9999,9999,1922904140
91,15,17,Jits_Phase_5,90,9999,9999,9999,1923404860
91,15,17,Jits_Phase_5,91,9999,9999,9999,1923904608
91,15,17,Jits_Phase_5,92,9999,9999,9999,1924404284
91,15,17,Jits_Phase_5,93,9999,9999,9999,1924905080
91,15,17,Jits_Phase_5,94,9999,9999,9999,1925404752
91,15,17,Jits_Phase_5,95,9999,9999,9999,1925904504
91,15,17,Jits_Phase_5,96,9999,9999,9999,1926404168
91,15,17,Jits_Phase_5,97,9999,9999,9999,1926854768
91,15,17,Jits_Phase_5,98,9999,9999,9999,1927354444
91,15,17,Jits_Phase_5,99,9999,9999,9999,1927854208
91,15,17,Jits_Phase_5,100,9999,9999,9999,1928354928
91,15,17,Jits_Phase_5,101,9999,9999,9999,1928854608
91,15,17,Jits_Phase_5,102,9999,9999,9999,1929354348
91,15,17,Jits_Phase_5,103,9999,9999,9999,1929855076
91,15,17,Jits_Phase_5,104,9999,9999,9999,1930354752
91,15,17,Jits_Phase_5,105,9999,9999,9999,1930854496
91,15,17,Jits_Phase_5,106,9999,9999,9999,1931354172
91,15,17,Jits_Phase_5,107,9999,9999,9999,1931854964
91,15,17,Jits_Phase_5,108,9999,9999,9999,1932354652
91,15,17,Jits_Phase_5,109,9999,9999,9999,1932854328
91,15,17,Jits_Phase_5,110,9999,9999,9999,1933355064
91,15,17,Jits_Phase_5,111,9999,9999,9999,1933865076
91,15,17,Jits_Phase_5,112,9999,9999,9999,1934364752
91,15,17,Jits_Phase_5,113,9999,9999,9999,1934864504
91,15,17,Jits_Phase_5,114,9999,9999,9999,1935414368
91,15,17,Jits_Phase_5,115,9999,9999,9999,1935915084
91,15,17,Jits_Phase_5,116,9999,9999,9999,1936425020
91,15,17,Jits_Phase_5,117,9999,9999,9999,1936924764
91,15,17,Jits_Phase_5,118,9999,9999,9999,1937424440
91,15,17,Jits_Phase_5,119,9999,9999,9999,1937924160
91,15,17,Jits_Phase_5,120,9999,9999,9999,1938424892
91,15,17,Jits_Phase_5,121,9999,9999,9999,1938924648
91,15,17,Jits_Phase_5,122,9999,9999,9999,1939424336
91,15,17,Jits_Phase_5,123,9999,9999,9999,1939925072
91,15,17,Jits_Phase_5,124,9999,9999,9999,1940424824
91,15,17,Jits_Phase_5,125,9999,9999,9999,1940924504
91,15,17,Jits_Phase_5,126,9999,9999,9999,1941424196
91,15,17,Jits_Phase_5,127,9999,9999,9999,1941924988
91,15,17,Jits_Phase_5,128,9999,9999,9999,1942424648
91,15,17,Jits_Phase_5,129,9999,9999,9999,1942924344
91,15,17,Jits_Phase_5,130,9999,9999,9999,1943424104
91,15,17,Jits_Phase_5,131,9999,9999,9999,1944024168
91,15,17,Jits_Phase_5,132,9999,9999,9999,1944524884
91,15,17,Jits_Phase_5,133,9999,9999,9999,1945024564
91,15,17,Jits_Phase_5,134,9999,9999,9999,1945524308
91,15,17,Jits_Phase_5,135,9999,9999,9999,1946025028
91,15,17,Jits_Phase_5,136,9999,9999,9999,1946524796
91,15,17,Jits_Phase_5,137,9999,9999,9999,1947024468
91,15,17,Jits_Phase_5,138,9999,9999,9999,1947524216
91,15,17,Jits_Phase_5,139,9999,9999,9999,1948024956
91,15,17,Jits_Phase_5,140,9999,9999,9999,1948524632
91,15,17,Jits_Phase_5,141,9999,9999,9999,1949024324
91,15,17,Jits_Phase_5,142,9999,9999,9999,1949525060
91,15,17,Jits_Phase_5,143,9999,9999,9999,1950024828
91,15,17,Jits_Phase_5,144,9999,9999,9999,1950524496
91,15,17,Jits_Phase_5,145,9999,9999,9999,1951024248
91,15,17,Jits_Phase_5,146,9999,9999,9999,1951524992
91,15,17,Jits_Phase_5,147,9999,9999,9999,1952024668
91,15,17,Jits_Phase_5,148,9999,9999,9999,1952524388
91,15,17,Jits_Phase_5,149,9999,9999,9999,1953024072
91,15,17,Jits_Phase_5,150,9999,9999,9999,1953424492
91,15,17,Jits_Phase_5,151,9999,9999,9999,1953924176
91,15,17,Jits_Phase_5,152,9999,9999,9999,1954424912
91,15,17,Jits_Phase_5,153,9999,9999,9999,1954924664
91,15,17,Jits_Phase_5,154,9999,9999,9999,1955424340
91,15,17,Jits_Phase_5,155,9999,9999,9999,1955925072
91,15,17,Jits_Phase_5,156,9999,9999,9999,1956424812
91,15,17,Jits_Phase_5,157,9999,9999,9999,1956924480
91,15,17,Jits_Phase_5,158,9999,9999,9999,1957424236
91,15,17,Jits_Phase_5,159,9999,9999,9999,1957924956
91,15,17,Jits_Phase_5,160,9999,9999,9999,1958424648
91,15,17,Jits_Phase_5,161,9999,9999,9999,1958924392
91,15,17,Jits_Phase_5,162,9999,9999,9999,1959424060
91,15,17,Jits_Phase_5,163,9999,9999,9999,1959924800
91,15,17,Jits_Phase_5,164,9999,9999,9999,1960424524
91,15,17,Jits_Phase_5,165,9999,9999,9999,1960924276
91,15,17,Jits_Phase_5,166,9999,9999,9999,1961425004
91,15,17,Jits_Phase_5,167,9999,9999,9999,1961924692
91,15,17,Jits_Phase_5,168,9999,9999,9999,1962424440
91,15,17,Jits_Phase_5,169,9999,9999,9999,1962924112
91,16,7,Jits_ISO_8,0,5,56,103,1972614552
91,16,7,Jits_ISO_8,1,5,63,98,1972617644
91,16,7,Jits_ISO_8,2,5,80,127,1972620844
91,16,7,Jits_ISO_8,0,5,56,103,1973415372
91,16,7,Jits_ISO_8,1,5,63,98,1973418320
91,16,7,Jits_ISO_8,2,5,80,127,1973421516
91,16,7,Jits_ISO_8,0,1,48,49,1974062048
91,16,7,Jits_ISO_8,1,1,48,33,1974122568
91,16,7,Jits_ISO_8,2,5,80,127,1974154524
91,16,7,Jits_ISO_8,3,5,63,98,1974244720
91,16,7,Jits_ISO_8,4,5,56,103,1974255064
91,16,7,Jits_ISO_8,0,1,48,46,1974929268
91,16,7,Jits_ISO_8,1,5,56,103,1974974784
91,16,7,Jits_ISO_8,2,1,48,26,1974983672
91,16,7,Jits_ISO_8,3,5,63,98,1974985032
91,16,7,Jits_ISO_8,4,5,80,127,1975075248
91,16,7,Jits_ISO_8,0,1,48,43,1975734460
91,16,7,Jits_ISO_8,1,5,63,98,1975744748
91,16,7,Jits_ISO_8,2,5,80,127,1975774496
91,16,7,Jits_ISO_8,3,5,56,103,1975805668
91,16,7,Jits_ISO_8,0,1,48,41,1976519916
91,16,7,Jits_ISO_8,1,5,56,103,1976544748
91,16,7,Jits_ISO_8,2,5,80,127,1976644860
91,16,7,Jits_ISO_8,3,5,63,98,1976695432
91,16,7,Jits_ISO_8,0,1,48,40,1977294760
91,16,7,Jits_ISO_8,1,5,56,103,1977345436
91,16,7,Jits_ISO_8,2,5,80,127,1977394528
91,16,7,Jits_ISO_8,3,5,63,98,1977434540
91,16,7,Jits_ISO_8,0,1,48,39,1978114924
91,16,7,Jits_ISO_8,1,5,80,127,1978174688
91,16,7,Jits_ISO_8,2,5,63,98,1978204516
91,16,7,Jits_ISO_8,3,5,56,103,1978275228
91,16,7,Jits_ISO_8,0,1,48,44,1978946500
91,16,7,Jits_ISO_8,1,5,63,98,1979005492
91,16,7,Jits_ISO_8,2,5,56,103,1979034944
91,16,7,Jits_ISO_8,3,5,80,127,1979095320
91,16,7,Jits_ISO_8,0,5,56,103,1979744672
91,16,7,Jits_ISO_8,1,5,80,127,1979747740
91,16,7,Jits_ISO_8,2,1,48,43,1979784880
91,16,7,Jits_ISO_8,3,5,63,98,1979864464
91,16,7,Jits_ISO_8,0,1,48,47,1980539252
91,16,7,Jits_ISO_8,1,5,56,103,1980625444
91,16,7,Jits_ISO_8,2,5,80,127,1980665296
91,16,7,Jits_ISO_8,3,5,63,98,1980674448
91,16,7,Jits_ISO_8,0,1,48,44,1981364304
91,16,7,Jits_ISO_8,1,5,56,103,1981385228
91,16,7,Jits_ISO_8,2,5,80,127,1981404492
91,16,7,Jits_ISO_8,3,5,63,98,1981485492
91,16,7,Jits_ISO_8,0,1,48,46,1982167828
91,16,7,Jits_ISO_8,1,5,80,127,1982174528
91,16,7,Jits_ISO_8,2,5,56,103,1982274864
91,16,7,Jits_ISO_8,3,5,63,98,1982285284
91,16,7,Jits_ISO_8,0,5,63,98,1982944580
91,16,7,Jits_ISO_8,1,5,80,127,1983005220
91,16,7,Jits_ISO_8,2,1,48,45,1983015268
91,16,7,Jits_ISO_8,3,5,56,103,1983016680
91,16,7,Jits_ISO_8,0,5,56,103,1983745484
91,16,7,Jits_ISO_8,1,1,48,47,1983802260
91,16,7,Jits_ISO_8,2,5,63,98,1983815336
91,16,7,Jits_ISO_8,3,5,80,127,1983818544
91,16,7,Jits_ISO_8,0,1,48,41,1984563324
91,16,7,Jits_ISO_8,1,5,63,98,1984574884
91,16,7,Jits_ISO_8,2,5,56,103,1984624936
91,16,7,Jits_ISO_8,3,5,80,127,1984628148
91,16,7,Jits_ISO_8,0,5,56,103,1985334724
91,16,7,Jits_ISO_8,1,5,80,127,1985337716
91,16,7,Jits_ISO_8,2,1,48,41,1985372392
91,16,7,Jits_ISO_8,3,5,63,98,1985424700
91,16,7,Jits_ISO_8,0,1,48,35,1986125632
91,16,7,Jits_ISO_8,1,5,63,98,1986175408
91,16,7,Jits_ISO_8,2,5,56,103,1986264560
91,16,7,Jits_ISO_8,3,5,80,127,1986295132
91,16,7,Jits_ISO_8,0,5,56,103,1986964868
91,16,7,Jits_ISO_8,1,1,48,42,1986990828
91,16,7,Jits_ISO_8,2,5,63,98,1987065112
91,16,7,Jits_ISO_8,3,5,80,127,1987095020
91,16,7,Jits_ISO_8,0,1,48,43,1987751368
91,16,7,Jits_ISO_8,1,5,63,98,1987785120
91,16,7,Jits_ISO_8,2,5,56,103,1987795240
91,16,7,Jits_ISO_8,3,5,80,127,1987885380
91,16,7,Jits_ISO_8,0,1,48,40,1988559248
91,16,7,Jits_ISO_8,1,5,63,98,1988605356
91,16,7,Jits_ISO_8,2,5,56,103,1988685164
91,16,7,Jits_ISO_8,3,5,80,127,1988688152
91,16,7,Jits_ISO_8,0,1,48,42,1989348768
91,16,7,Jits_ISO_8,1,5,80,127,1989365204
91,16,7,Jits_ISO_8,2,5,63,98,1989384468
91,16,7,Jits_ISO_8,3,5,56,103,1989445104
91,16,7,Jits_ISO_8,0,1,48,44,1990112968
91,16,7,Jits_ISO_8,1,5,56,103,1990204724
91,16,7,Jits_ISO_8,2,5,63,98,1990225240
91,16,7,Jits_ISO_8,3,5,80,127,1990228676
91,16,7,Jits_ISO_8,0,1,48,43,1990940176
91,16,7,Jits_ISO_8,1,5,63,98,1990945232
91,16,7,Jits_ISO_8,2,5,80,127,1991025328
91,16,7,Jits_ISO_8,3,5,56,103,1991035376
91,16,7,Jits_ISO_8,0,1,48,40,1991755184
91,16,7,Jits_ISO_8,1,5,63,98,1991765320
91,16,7,Jits_ISO_8,2,5,56,103,1991784736
91,16,7,Jits_ISO_8,3,5,80,127,1991835232
91,16,7,Jits_ISO_8,0,5,80,127,1992565184
91,16,7,Jits_ISO_8,1,1,48,35,1992599464
91,16,7,Jits_ISO_8,2,5,63,98,1992605120
91,16,7,Jits_ISO_8,3,5,56,103,1992624384
91,16,7,Jits_ISO_8,0,1,48,47,1993404168
91,16,7,Jits_ISO_8,1,5,56,103,1993405660
91,16,7,Jits_ISO_8,2,5,63,98,1993415108
91,16,7,Jits_ISO_8,3,5,80,127,1993434372
91,16,7,Jits_ISO_8,0,5,56,103,1994135020
91,16,7,Jits_ISO_8,1,1,48,44,1994212772
91,16,7,Jits_ISO_8,2,5,63,98,1994225300
91,16,7,Jits_ISO_8,3,5,80,127,1994285420
91,16,7,Jits_ISO_8,0,5,80,127,1994965392
91,16,7,Jits_ISO_8,1,5,56,103,1994974544
91,16,7,Jits_ISO_8,2,1,48,44,1994978560
91,16,7,Jits_ISO_8,3,5,63,98,1995045216
91,16,7,Jits_ISO_8,0,5,63,98,1995794736
91,16,7,Jits_ISO_8,1,1,48,41,1995810436
91,16,7,Jits_ISO_8,2,5,80,127,1995884940
91,16,7,Jits_ISO_8,3,5,56,103,1995895288
91,16,7,Jits_ISO_8,0,5,63,98,1996535312
91,16,7,Jits_ISO_8,1,5,80,127,1996585316
91,16,7,Jits_ISO_8,2,5,56,103,1996644660
91,16,7,Jits_ISO_8,3,1,48,41,1996649344
91,16,7,Jits_ISO_8,0,5,56,103,1997364564
91,16,7,Jits_ISO_8,1,1,48,46,1997387164
91,16,7,Jits_ISO_8,2,5,80,127,1997415060
91,16,7,Jits_ISO_8,3,5,63,98,1997435220
91,16,7,Jits_ISO_8,0,5,56,103,1998134616
91,16,7,Jits_ISO_8,1,1,48,46,1998151140
91,16,7,Jits_ISO_8,2,5,80,127,1998194928
91,16,7,Jits_ISO_8,3,5,63,98,1998264816
91,16,7,Jits_ISO_8,0,5,56,103,1998935312
91,16,7,Jits_ISO_8,1,1,48,47,1998955512
91,16,7,Jits_ISO_8,2,5,80,127,1998965128
91,16,7,Jits_ISO_8,3,5,63,98,1998994880
91,16,7,Jits_ISO_8,0,1,48,45,1999718436
91,16,7,Jits_ISO_8,1,5,56,103,1999774956
91,16,7,Jits_ISO_8,2,5,80,127,1999794664
91,16,7,Jits_ISO_8,3,5,63,98,1999855336
91,16,7,Jits_ISO_8,0,1,48,51,2000485628
91,16,7,Jits_ISO_8,1,5,80,127,2000654912
91,16,7,Jits_ISO_8,2,5,56,103,2000665112
91,16,7,Jits_ISO_8,3,5,63,98,2000675232
91,16,7,Jits_ISO_8,0,1,48,50,2001371720
91,16,7,Jits_ISO_8,1,5,56,103,2001414464
91,16,7,Jits_ISO_8,2,5,80,127,2001454504
91,16,7,Jits_ISO_8,3,5,63,98,2001485284
91,16,7,Jits_ISO_8,0,1,48,47,2002160652
91,16,7,Jits_ISO_8,1,5,56,103,2002184508
91,16,7,Jits_ISO_8,2,5,63,98,2002215336
91,16,7,Jits_ISO_8,3,5,80,127,2002255332
91,16,7,Jits_ISO_8,0,5,80,127,2002935076
91,16,7,Jits_ISO_8,1,5,63,98,2002985376
91,16,7,Jits_ISO_8,2,5,56,103,2003004716
91,16,7,Jits_ISO_8,3,1,48,52,2003005604
91,16,7,Jits_ISO_8,0,1,48,52,2003738376
91,16,7,Jits_ISO_8,1,5,56,103,2003764484
91,16,7,Jits_ISO_8,2,5,80,127,2003835216
91,16,7,Jits_ISO_8,3,5,63,98,2003894544
91,16,7,Jits_ISO_8,0,5,80,127,2004565472
91,16,7,Jits_ISO_8,1,1,48,43,2004581172
91,16,7,Jits_ISO_8,2,5,63,98,2004654480
91,16,7,Jits_ISO_8,3,5,56,103,2004675016
91,16,7,Jits_ISO_8,0,5,63,98,2005384536
91,16,7,Jits_ISO_8,1,1,48,43,2005386472
91,16,7,Jits_ISO_8,2,5,56,103,2005404988
91,16,7,Jits_ISO_8,3,5,80,127,2005444852
91,16,7,Jits_ISO_8,0,5,80,127,2006145280
91,16,7,Jits_ISO_8,1,5,63,98,2006165068
91,16,7,Jits_ISO_8,2,1,48,45,2006199944
91,16,7,Jits_ISO_8,3,5,56,103,2006245004
91,16,7,Jits_ISO_8,0,5,63,98,2006935184
91,16,7,Jits_ISO_8,1,1,48,47,2006977188
91,16,7,Jits_ISO_8,2,5,56,103,2007044492
91,16,7,Jits_ISO_8,3,5,80,127,2007047780
91,16,7,Jits_ISO_8,0,5,63,98,2007755116
91,16,7,Jits_ISO_8,1,5,56,103,2007765308
91,16,7,Jits_ISO_8,2,5,80,127,2007768376
91,16,7,Jits_ISO_8,3,1,48,44,2007805364
91,16,7,Jits_ISO_8,0,5,56,103,2008535400
91,16,7,Jits_ISO_8,1,1,48,45,2008566392
91,16,7,Jits_ISO_8,2,5,80,127,2008655152
91,16,7,Jits_ISO_8,3,5,63,98,2008695148
91,16,7,Jits_ISO_8,0,5,56,103,2009354536
91,16,7,Jits_ISO_8,1,1,48,48,2009367768
91,16,7,Jits_ISO_8,2,5,80,127,2009434924
91,16,7,Jits_ISO_8,3,5,63,98,2009454936
91,16,7,Jits_ISO_8,0,5,56,103,2010155232
91,16,7,Jits_ISO_8,1,1,48,49,2010191532
91,16,7,Jits_ISO_8,2,5,63,98,2010264916
91,16,7,Jits_ISO_8,3,5,80,127,2010268128
91,16,7,Jits_ISO_8,0,5,56,103,2010984992
91,16,7,Jits_ISO_8,1,1,48,43,2011006320
91,16,7,Jits_ISO_8,2,5,80,127,2011014512
91,16,7,Jits_ISO_8,3,5,63,98,2011034896
91,16,7,Jits_ISO_8,0,5,63,98,2011765236
91,16,7,Jits_ISO_8,1,5,56,103,2011775432
91,16,7,Jits_ISO_8,2,1,48,44,2011779968
91,16,7,Jits_ISO_8,3,5,80,127,2011784648
91,16,7,Jits_ISO_8,0,1,48,44,2012543932
91,16,7,Jits_ISO_8,1,5,80,127,2012554820
91,16,7,Jits_ISO_8,2,5,56,103,2012604800
91,16,7,Jits_ISO_8,3,5,63,98,2012644796
91,16,7,Jits_ISO_8,0,1,48,44,2013344240
91,16,7,Jits_ISO_8,1,5,80,127,2013374984
91,16,7,Jits_ISO_8,2,5,63,98,2013395292
91,16,7,Jits_ISO_8,3,5,56,103,2013444432
91,16,7,Jits_ISO_8,0,5,80,127,2014184960
91,16,7,Jits_ISO_8,1,5,56,103,2014214712
91,16,7,Jits_ISO_8,2,1,48,37,2014220996
91,16,7,Jits_ISO_8,3,5,63,98,2014285084
91,16,7,Jits_ISO_8,0,1,48,40,2015012020
91,16,7,Jits_ISO_8,1,5,56,103,2015034828
91,16,7,Jits_ISO_8,2,5,80,127,2015044952
91,16,7,Jits_ISO_8,3,5,63,98,2015084964
91,16,7,Jits_ISO_8,0,5,56,103,2015745440
91,16,7,Jits_ISO_8,1,5,63,98,2015764732
91,16,7,Jits_ISO_8,2,5,80,127,2015834412
91,16,7,Jits_ISO_8,3,1,48,40,2015858276
91,16,7,Jits_ISO_8,0,5,63,98,2016564812
91,16,7,Jits_ISO_8,1,1,48,44,2016601040
91,16,7,Jits_ISO_8,2,5,80,127,2016624976
91,16,7,Jits_ISO_8,3,5,56,103,2016644388
91,16,7,Jits_ISO_8,0,5,80,127,2017355228
91,16,7,Jits_ISO_8,1,1,48,48,2017375884
91,16,7,Jits_ISO_8,2,5,56,103,2017384972
91,16,7,Jits_ISO_8,3,5,63,98,2017414572
91,16,7,Jits_ISO_8,0,5,56,103,2018154800
91,16,7,Jits_ISO_8,1,1,48,47,2018178516
91,16,7,Jits_ISO_8,2,5,63,98,2018215184
91,16,7,Jits_ISO_8,3,5,80,127,2018274736
91,16,7,Jits_ISO_8,0,1,48,44,2018960624
91,16,7,Jits_ISO_8,1,5,80,127,2018975044
91,16,7,Jits_ISO_8,2,5,56,103,2018994828
91,16,7,Jits_ISO_8,3,5,63,98,2019065316
91,16,7,Jits_ISO_8,0,1,48,47,2019753156
91,16,7,Jits_ISO_8,1,5,80,127,2019774752
91,16,7,Jits_ISO_8,2,5,63,98,2019795288
91,16,7,Jits_ISO_8,3,5,56,103,2019825036
91,16,7,Jits_ISO_8,0,5,80,127,2020565324
91,16,7,Jits_ISO_8,1,5,63,98,2020584960
91,16,7,Jits_ISO_8,2,1,48,48,2020591072
91,16,7,Jits_ISO_8,3,5,56,103,2020645220
91,16,7,Jits_ISO_8,0,5,80,127,2021364972
91,16,7,Jits_ISO_8,1,1,48,44,2021424536
91,16,7,Jits_ISO_8,2,5,56,103,2021464568
91,16,7,Jits_ISO_8,3,5,63,98,2021495216
91,16,7,Jits_ISO_8,0,5,63,98,2022154588
91,16,7,Jits_ISO_8,1,5,80,127,2022204888
91,16,7,Jits_ISO_8,2,1,48,50,2022218644
91,16,7,Jits_ISO_8,3,5,56,103,2022225268
91,16,7,Jits_ISO_8,0,5,80,127,2022995300
91,16,7,Jits_ISO_8,1,1,48,46,2023007340
91,16,7,Jits_ISO_8,2,5,56,103,2023024888
91,16,7,Jits_ISO_8,3,5,63,98,2023028108
91,16,7,Jits_ISO_8,0,1,48,43,2023797304
91,16,7,Jits_ISO_8,1,5,63,98,2023824904
91,16,7,Jits_ISO_8,2,5,56,103,2023864620
91,16,7,Jits_ISO_8,3,5,80,127,2023885156
91,16,7,Jits_ISO_8,0,5,80,127,2024564988
91,16,7,Jits_ISO_8,1,1,48,42,2024627740
91,16,7,Jits_ISO_8,2,5,63,98,2024645076
91,16,7,Jits_ISO_8,3,5,56,103,2024684864
91,16,7,Jits_ISO_8,0,5,63,98,2025385464
91,16,7,Jits_ISO_8,1,1,48,51,2025411880
91,16,7,Jits_ISO_8,2,5,80,127,2025465332
91,16,7,Jits_ISO_8,3,5,56,103,2025484692
91,16,7,Jits_ISO_8,0,5,56,103,2026225040
91,16,7,Jits_ISO_8,1,1,48,43,2026231004
91,16,7,Jits_ISO_8,2,5,63,98,2026235380
91,16,7,Jits_ISO_8,3,5,80,127,2026275044
91,16,7,Jits_ISO_8,0,5,56,103,2026944972
91,16,7,Jits_ISO_8,1,5,80,127,2026947964
91,16,7,Jits_ISO_8,2,1,48,50,2027034276
91,16,7,Jits_ISO_8,3,5,63,98,2027085092
91,16,7,Jits_ISO_8,0,5,56,103,2027735692
91,16,7,Jits_ISO_8,1,1,48,43,2027802588
91,16,7,Jits_ISO_8,2,5,63,98,2027824804
91,16,7,Jits_ISO_8,3,5,80,127,2027895084
91,16,7,Jits_ISO_8,0,1,48,44,2028545580
91,16,7,Jits_ISO_8,1,5,63,98,2028614928
91,16,7,Jits_ISO_8,2,5,80,127,2028618296
91,16,7,Jits_ISO_8,3,5,56,103,2028674484
91,16,7,Jits_ISO_8,0,1,48,51,2029373484
91,16,7,Jits_ISO_8,1,5,80,127,2029454872
91,16,7,Jits_ISO_8,2,5,56,103,2029475612
91,16,7,Jits_ISO_8,3,5,63,98,2029485660
91,16,7,Jits_ISO_8,0,5,56,103,2030165584
91,16,7,Jits_ISO_8,1,5,63,98,2030174660
91,16,7,Jits_ISO_8,2,1,48,43,2030200692
91,16,7,Jits_ISO_8,3,5,80,127,2030245232
91,16,7,Jits_ISO_8,0,5,80,127,2030965084
91,16,7,Jits_ISO_8,1,1,48,38,2030993008
91,16,7,Jits_ISO_8,2,5,56,103,2031015208
91,16,7,Jits_ISO_8,3,5,63,98,2031064584
91,16,7,Jits_ISO_8,0,1,48,44,2031745080
91,16,7,Jits_ISO_8,1,5,56,103,2031844736
91,16,7,Jits_ISO_8,2,5,63,98,2031855080
91,16,7,Jits_ISO_8,3,5,80,127,2031894896
91,16,7,Jits_ISO_8,0,1,48,45,2032576636
91,16,7,Jits_ISO_8,1,5,56,103,2032584976
91,16,7,Jits_ISO_8,2,5,63,98,2032624992
91,16,7,Jits_ISO_8,3,5,80,127,2032675276
91,16,7,Jits_ISO_8,0,5,80,127,2033344836
91,16,7,Jits_ISO_8,1,1,48,46,2033386692
91,16,7,Jits_ISO_8,2,5,56,103,2033394956
91,16,7,Jits_ISO_8,3,5,63,98,2033414444
91,16,7,Jits_ISO_8,0,5,80,127,2034154968
91,16,7,Jits_ISO_8,1,1,48,43,2034175548
91,16,7,Jits_ISO_8,2,5,63,98,2034215380
91,16,7,Jits_ISO_8,3,5,56,103,2034295308
91,16,7,Jits_ISO_8,0,5,80,127,2034935140
91,16,7,Jits_ISO_8,1,5,56,103,2034975028
91,16,7,Jits_ISO_8,2,1,48,48,2034978076
91,16,7,Jits_ISO_8,3,5,63,98,2034994512
91,16,7,Jits_ISO_8,0,1,48,41,2035742256
91,16,7,Jits_ISO_8,1,5,56,103,2035785004
91,16,7,Jits_ISO_8,2,5,80,127,2035795568
91,16,7,Jits_ISO_8,3,5,63,98,2035835136
91,16,7,Jits_ISO_8,0,1,48,38,2036524596
91,16,7,Jits_ISO_8,1,5,56,103,2036654672
91,16,7,Jits_ISO_8,2,5,63,98,2036695432
91,16,7,Jits_ISO_8,3,5,80,127,2036698796
91,16,7,Jits_ISO_8,0,5,63,98,2037344716
91,16,7,Jits_ISO_8,1,5,80,127,2037384508
91,16,7,Jits_ISO_8,2,1,48,44,2037403964
91,16,7,Jits_ISO_8,3,5,56,103,2037455156
91,16,7,Jits_ISO_8,0,5,63,98,2038135136
91,16,7,Jits_ISO_8,1,1,48,44,2038170916
91,16,7,Jits_ISO_8,2,5,56,103,2038215000
91,16,7,Jits_ISO_8,3,5,80,127,2038274700
91,16,7,Jits_ISO_8,0,5,80,127,2038945108
91,16,7,Jits_ISO_8,1,1,48,46,2038983668
91,16,7,Jits_ISO_8,2,5,63,98,2038995752
91,16,7,Jits_ISO_8,3,5,56,103,2039025204
91,16,7,Jits_ISO_8,0,5,56,103,2039734644
91,16,7,Jits_ISO_8,1,1,48,44,2039770496
91,16,7,Jits_ISO_8,2,5,63,98,2039784840
91,16,7,Jits_ISO_8,3,5,80,127,2039795036
91,16,7,Jits_ISO_8,0,1,48,46,2040529748
91,16,7,Jits_ISO_8,1,5,56,103,2040544620
91,16,7,Jits_ISO_8,2,5,63,98,2040655068
91,16,7,Jits_ISO_8,3,5,80,127,2040674704
91,16,7,Jits_ISO_8,0,5,63,98,2041345536
91,16,7,Jits_ISO_8,1,1,48,39,2041355504
91,16,7,Jits_ISO_8,2,5,80,127,2041394488
91,16,7,Jits_ISO_8,3,5,56,103,2041484752
91,16,7,Jits_ISO_8,0,5,63,98,2042134856
91,16,7,Jits_ISO_8,1,1,48,45,2042150932
91,16,7,Jits_ISO_8,2,5,80,127,2042164528
91,16,7,Jits_ISO_8,3,5,56,103,2042254796
91,16,7,Jits_ISO_8,0,5,63,98,2042934568
91,16,7,Jits_ISO_8,1,5,56,103,2042944836
91,16,7,Jits_ISO_8,2,1,48,45,2042963320
91,16,7,Jits_ISO_8,3,5,80,127,2043045300
91,16,7,Jits_ISO_8,0,1,48,40,2043733120
91,16,7,Jits_ISO_8,1,5,63,98,2043834720
91,16,7,Jits_ISO_8,2,5,80,127,2043864620
91,16,7,Jits_ISO_8,3,5,56,103,2043895120
91,16,7,Jits_ISO_8,0,1,48,43,2044592476
91,16,7,Jits_ISO_8,1,5,80,127,2044654908
91,16,7,Jits_ISO_8,2,5,63,98,2044665404
91,16,7,Jits_ISO_8,3,5,56,103,2044694788
91,16,7,Jits_ISO_8,0,5,80,127,2045355432
91,16,7,Jits_ISO_8,1,5,63,98,2045374700
91,16,7,Jits_ISO_8,2,1,48,49,2045423916
91,16,7,Jits_ISO_8,3,5,56,103,2045425488
91,16,7,Jits_ISO_8,0,5,63,98,2046184828
91,16,7,Jits_ISO_8,1,1,48,45,2046208548
91,16,7,Jits_ISO_8,2,5,80,127,2046245312
91,16,7,Jits_ISO_8,3,5,56,103,2046264724
91,16,7,Jits_ISO_8,0,5,63,98,2046944604
91,16,7,Jits_ISO_8,1,5,56,103,2046994908
91,16,7,Jits_ISO_8,2,1,48,42,2046999148
91,16,7,Jits_ISO_8,3,5,80,127,2047005100
91,16,7,Jits_ISO_8,0,1,48,48,2047764236
91,16,7,Jits_ISO_8,1,5,56,103,2047775052
91,16,7,Jits_ISO_8,2,5,80,127,2047785472
91,16,7,Jits_ISO_8,3,5,63,98,2047884580
91,16,7,Jits_ISO_8,0,5,80,127,2048534836
91,16,7,Jits_ISO_8,1,1,48,48,2048541844
91,16,7,Jits_ISO_8,2,5,63,98,2048545100
91,16,7,Jits_ISO_8,3,5,56,103,2048694704
91,16,7,Jits_ISO_8,0,5,63,98,2049344820
91,16,7,Jits_ISO_8,1,5,80,127,2049384684
91,16,7,Jits_ISO_8,2,1,48,48,2049394704
91,16,7,Jits_ISO_8,3,5,56,103,2049464696
91,16,7,Jits_ISO_8,0,5,56,103,2050135456
91,16,7,Jits_ISO_8,1,1,48,43,2050206160
91,16,7,Jits_ISO_8,2,5,80,127,2050234876
91,16,7,Jits_ISO_8,3,5,63,98,2050255412
91,16,7,Jits_ISO_8,0,1,48,41,2050976352
91,16,7,Jits_ISO_8,1,5,80,127,2050994512
91,16,7,Jits_ISO_8,2,5,56,103,2051004708
91,16,7,Jits_ISO_8,3,5,63,98,2051094852
91,16,7,Jits_ISO_8,0,1,48,46,2051775016
91,16,7,Jits_ISO_8,1,5,56,103,2051795344
91,16,7,Jits_ISO_8,2,5,63,98,2051814832
91,16,7,Jits_ISO_8,3,5,80,127,2051894636
91,16,7,Jits_ISO_8,0,5,63,98,2052545012
91,16,7,Jits_ISO_8,1,1,48,44,2052579292
91,16,7,Jits_ISO_8,2,5,56,103,2052635092
91,16,7,Jits_ISO_8,3,5,80,127,2052638380
91,16,7,Jits_ISO_8,0,5,56,103,2053375280
91,16,7,Jits_ISO_8,1,1,48,48,2053376248
91,16,7,Jits_ISO_8,2,5,80,127,2053434720
91,16,7,Jits_ISO_8,3,5,63,98,2053444840
91,16,7,Jits_ISO_8,0,1,48,44,2054199568
91,16,7,Jits_ISO_8,1,5,80,127,2054225224
91,16,7,Jits_ISO_8,2,5,56,103,2054234520
91,16,7,Jits_ISO_8,3,5,63,98,2054237736
91,16,7,Jits_ISO_8,0,5,56,103,2054985296
91,16,7,Jits_ISO_8,1,5,80,127,2054995344
91,16,7,Jits_ISO_8,2,5,63,98,2055014756
91,16,7,Jits_ISO_8,3,1,48,43,2055020940
91,16,7,Jits_ISO_8,0,5,63,98,2055755272
91,16,7,Jits_ISO_8,1,1,48,45,2055771648
91,16,7,Jits_ISO_8,2,5,80,127,2055814464
91,16,7,Jits_ISO_8,3,5,56,103,2055864724
91,16,7,Jits_ISO_8,0,1,48,41,2056597428
91,16,7,Jits_ISO_8,1,5,63,98,2056634696
91,16,7,Jits_ISO_8,2,5,56,103,2056644964
91,16,7,Jits_ISO_8,3,5,80,127,2056695900
91,16,7,Jits_ISO_8,0,5,63,98,2057335440
91,16,7,Jits_ISO_8,1,5,80,127,2057354556
91,16,7,Jits_ISO_8,2,5,56,103,2057364752
91,16,7,Jits_ISO_8,3,1,48,45,2057434548
91,16,7,Jits_ISO_8,0,1,48,49,2058126192
91,16,7,Jits_ISO_8,1,5,63,98,2058134836
91,16,7,Jits_ISO_8,2,5,80,127,2058138272
91,16,7,Jits_ISO_8,3,5,56,103,2058174920
91,16,7,Jits_ISO_8,0,1,48,47,2058904760
91,16,7,Jits_ISO_8,1,5,63,98,2059005240
91,16,7,Jits_ISO_8,2,5,80,127,2059034940
91,16,7,Jits_ISO_8,3,5,56,103,2059045136
91,16,7,Jits_ISO_8,0,1,48,49,2059682572
91,16,7,Jits_ISO_8,1,5,56,103,2059754992
91,16,7,Jits_ISO_8,2,5,80,127,2059784428
91,16,7,Jits_ISO_8,3,5,63,98,2059815392
91,16,7,Jits_ISO_8,0,1,48,39,2060494724
91,16,7,Jits_ISO_8,1,5,63,98,2060655244
91,16,7,Jits_ISO_8,2,5,56,103,2060695032
91,16,7,Jits_ISO_8,3,5,80,127,2060698172
91,16,7,Jits_ISO_8,0,5,80,127,2061355548
91,16,7,Jits_ISO_8,1,5,56,103,2061435272
91,16,7,Jits_ISO_8,2,1,48,46,2061451648
91,16,7,Jits_ISO_8,3,5,63,98,2061485468
91,16,7,Jits_ISO_8,0,5,80,127,2062134672
91,16,7,Jits_ISO_8,1,5,56,103,2062155280
91,16,7,Jits_ISO_8,2,1,48,48,2062203432
91,16,7,Jits_ISO_8,3,5,63,98,2062245184
91,16,7,Jits_ISO_8,0,1,48,48,2062944848
91,16,7,Jits_ISO_8,1,5,80,127,2062975292
91,16,7,Jits_ISO_8,2,5,63,98,2063015304
91,16,7,Jits_ISO_8,3,5,56,103,2063055080
91,16,7,Jits_ISO_8,0,5,63,98,2063745484
91,16,7,Jits_ISO_8,1,1,48,49,2063763896
91,16,7,Jits_ISO_8,2,5,80,127,2063804748
91,16,7,Jits_ISO_8,3,5,56,103,2063834424
91,16,7,Jits_ISO_8,0,1,48,46,2064507616
91,16,7,Jits_ISO_8,1,5,56,103,2064545408
91,16,7,Jits_ISO_8,2,5,80,127,2064574788
91,16,7,Jits_ISO_8,3,5,63,98,2064665376
91,16,7,Jits_ISO_8,0,1,48,47,2065340512
91,16,7,Jits_ISO_8,1,5,56,103,2065355376
91,16,7,Jits_ISO_8,2,5,80,127,2065464780
91,16,7,Jits_ISO_8,3,5,63,98,2065495356
91,16,7,Jits_ISO_8,0,1,48,46,2066182792
91,16,7,Jits_ISO_8,1,5,56,103,2066205164
91,16,7,Jits_ISO_8,2,5,63,98,2066264512
91,16,7,Jits_ISO_8,3,5,80,127,2066295292
91,16,7,Jits_ISO_8,0,5,56,103,2066975292
91,16,7,Jits_ISO_8,1,1,48,46,2066978864
91,16,7,Jits_ISO_8,2,5,63,98,2067044748
91,16,7,Jits_ISO_8,3,5,80,127,2067065132
91,16,7,Jits_ISO_8,0,5,80,127,2067745128
91,16,7,Jits_ISO_8,1,5,63,98,2067764540
91,16,7,Jits_ISO_8,2,1,48,46,2067796724
91,16,7,Jits_ISO_8,3,5,56,103,2067814884
91,16,7,Jits_ISO_8,0,9999,9999,9999,1973012592
91,16,7,Jits_ISO_8,1,9999,9999,9999,1973812292
91,16,7,Jits_ISO_8,2,9999,9999,9999,1974613088
91,16,7,Jits_ISO_8,3,9999,9999,9999,1975412796
91,16,7,Jits_ISO_8,4,9999,9999,9999,1976212596
91,16,7,Jits_ISO_8,5,9999,9999,9999,1977012308
91,16,7,Jits_ISO_8,6,9999,9999,9999,1977813064
91,16,7,Jits_ISO_8,7,9999,9999,9999,1978612852
91,16,7,Jits_ISO_8,8,9999,9999,9999,1979412592
91,16,7,Jits_ISO_8,9,9999,9999,9999,1980212288
91,16,7,Jits_ISO_8,10,9999,9999,9999,1981013068
91,16,7,Jits_ISO_8,11,9999,9999,9999,1981812852
91,16,7,Jits_ISO_8,12,9999,9999,9999,1982612568
91,16,7,Jits_ISO_8,13,9999,9999,9999,1983412276
91,16,7,Jits_ISO_8,14,9999,9999,9999,1984213096
91,16,7,Jits_ISO_8,15,9999,9999,9999,1985012808
91,16,7,Jits_ISO_8,16,9999,9999,9999,1985812600
91,16,7,Jits_ISO_8,17,9999,9999,9999,1986612328
91,16,7,Jits_ISO_8,18,9999,9999,9999,1987413092
91,16,7,Jits_ISO_8,19,9999,9999,9999,1988212816
91,16,7,Jits_ISO_8,20,9999,9999,9999,1989012596
91,16,7,Jits_ISO_8,21,9999,9999,9999,1989812304
91,16,7,Jits_ISO_8,22,9999,9999,9999,1990613052
91,16,7,Jits_ISO_8,23,9999,9999,9999,1991412836
91,16,7,Jits_ISO_8,24,9999,9999,9999,1992212572
91,16,7,Jits_ISO_8,25,9999,9999,9999,1993012280
91,16,7,Jits_ISO_8,26,9999,9999,9999,1993813052
91,16,7,Jits_ISO_8,27,9999,9999,9999,1994612840
91,16,7,Jits_ISO_8,28,9999,9999,9999,1995412564
91,16,7,Jits_ISO_8,29,9999,9999,9999,1996212296
91,16,7,Jits_ISO_8,30,9999,9999,9999,1997013048
91,16,7,Jits_ISO_8,31,9999,9999,9999,1997812832
91,16,7,Jits_ISO_8,32,9999,9999,9999,1998612576
91,16,7,Jits_ISO_8,33,9999,9999,9999,1999412296
91,16,7,Jits_ISO_8,34,9999,9999,9999,2000213064
91,16,7,Jits_ISO_8,35,9999,9999,9999,2001012856
91,16,7,Jits_ISO_8,36,9999,9999,9999,2001812572
91,16,7,Jits_ISO_8,37,9999,9999,9999,2002612284
91,16,7,Jits_ISO_8,38,9999,9999,9999,2003413108
91,16,7,Jits_ISO_8,39,9999,9999,9999,2004212836
91,16,7,Jits_ISO_8,40,9999,9999,9999,2005012572
91,16,7,Jits_ISO_8,41,9999,9999,9999,2005812300
91,16,7,Jits_ISO_8,42,9999,9999,9999,2006613052
91,16,7,Jits_ISO_8,43,9999,9999,9999,2007412840
91,16,7,Jits_ISO_8,44,9999,9999,9999,2008212532
91,16,7,Jits_ISO_8,45,9999,9999,9999,2009012320
91,16,7,Jits_ISO_8,46,9999,9999,9999,2009813068
91,16,7,Jits_ISO_8,47,9999,9999,9999,2010612860
91,16,7,Jits_ISO_8,48,9999,9999,9999,2011412532
91,16,7,Jits_ISO_8,49,9999,9999,9999,2012212328
91,16,7,Jits_ISO_8,50,9999,9999,9999,2013013084
91,16,7,Jits_ISO_8,51,9999,9999,9999,2013812792
91,16,7,Jits_ISO_8,52,9999,9999,9999,2014612580
91,16,7,Jits_ISO_8,53,9999,9999,9999,2015412308
91,16,7,Jits_ISO_8,54,9999,9999,9999,2016213060
91,16,7,Jits_ISO_8,55,9999,9999,9999,2017012856
91,16,7,Jits_ISO_8,56,9999,9999,9999,2017812584
91,16,7,Jits_ISO_8,57,9999,9999,9999,2018612308
91,16,7,Jits_ISO_8,58,9999,9999,9999,2019413080
91,16,7,Jits_ISO_8,59,9999,9999,9999,2020212788
91,16,7,Jits_ISO_8,60,9999,9999,9999,2021012568
91,16,7,Jits_ISO_8,61,9999,9999,9999,2021812300
91,16,7,Jits_ISO_8,62,9999,9999,9999,2022613068
91,16,7,Jits_ISO_8,63,9999,9999,9999,2023412844
91,16,7,Jits_ISO_8,64,9999,9999,9999,2024212600
91,16,7,Jits_ISO_8,65,9999,9999,9999,2025012312
91,16,7,Jits_ISO_8,66,9999,9999,9999,2025813084
91,16,7,Jits_ISO_8,67,9999,9999,9999,2026612800
91,16,7,Jits_ISO_8,68,9999,9999,9999,2027412588
91,16,7,Jits_ISO_8,69,9999,9999,9999,2028212316
91,16,7,Jits_ISO_8,70,9999,9999,9999,2029013076
91,16,7,Jits_ISO_8,71,9999,9999,9999,2029812796
91,16,7,Jits_ISO_8,72,9999,9999,9999,2030612604
91,16,7,Jits_ISO_8,73,9999,9999,9999,2031412332
91,16,7,Jits_ISO_8,74,9999,9999,9999,2032213112
91,16,7,Jits_ISO_8,75,9999,9999,9999,2033012824
91,16,7,Jits_ISO_8,76,9999,9999,9999,2033812528
91,16,7,Jits_ISO_8,77,9999,9999,9999,2034612328
91,16,7,Jits_ISO_8,78,9999,9999,9999,2035413100
91,16,7,Jits_ISO_8,79,9999,9999,9999,2036212820
91,16,7,Jits_ISO_8,80,9999,9999,9999,2037012556
91,16,7,Jits_ISO_8,81,9999,9999,9999,2037812340
91,16,7,Jits_ISO_8,82,9999,9999,9999,2038613096
91,16,7,Jits_ISO_8,83,9999,9999,9999,2039412808
91,16,7,Jits_ISO_8,84,9999,9999,9999,2040212600
91,16,7,Jits_ISO_8,85,9999,9999,9999,2041012328
91,16,7,Jits_ISO_8,86,9999,9999,9999,2041813088
91,16,7,Jits_ISO_8,87,9999,9999,9999,2042612792
91,16,7,Jits_ISO_8,88,9999,9999,9999,2043412600
91,16,7,Jits_ISO_8,89,9999,9999,9999,2044212316
91,16,7,Jits_ISO_8,90,9999,9999,9999,2045013084
91,16,7,Jits_ISO_8,91,9999,9999,9999,2045812792
91,16,7,Jits_ISO_8,92,9999,9999,9999,2046612592
91,16,7,Jits_ISO_8,93,9999,9999,9999,2047412300
91,16,7,Jits_ISO_8,94,9999,9999,9999,2048213064
91,16,7,Jits_ISO_8,95,9999,9999,9999,2049012848
91,16,7,Jits_ISO_8,96,9999,9999,9999,2049812592
91,16,7,Jits_ISO_8,97,9999,9999,9999,2050612300
91,16,7,Jits_ISO_8,98,9999,9999,9999,2051413072
91,16,7,Jits_ISO_8,99,9999,9999,9999,2052212856
91,16,7,Jits_ISO_8,100,9999,9999,9999,2053012552
91,16,7,Jits_ISO_8,101,9999,9999,9999,2053812340
91,16,7,Jits_ISO_8,102,9999,9999,9999,2054613104
91,16,7,Jits_ISO_8,103,9999,9999,9999,2055412812
91,16,7,Jits_ISO_8,104,9999,9999,9999,2056212560
91,16,7,Jits_ISO_8,105,9999,9999,9999,2057012276
91,16,7,Jits_ISO_8,106,9999,9999,9999,2057813100
91,16,7,Jits_ISO_8,107,9999,9999,9999,2058612788
91,16,7,Jits_ISO_8,108,9999,9999,9999,2059412576
91,16,7,Jits_ISO_8,109,9999,9999,9999,2060212276
91,16,7,Jits_ISO_8,110,9999,9999,9999,2061013104
91,16,7,Jits_ISO_8,111,9999,9999,9999,2061812812
91,16,7,Jits_ISO_8,112,9999,9999,9999,2062612556
91,16,7,Jits_ISO_8,113,9999,9999,9999,2063412280
91,16,7,Jits_ISO_8,114,9999,9999,9999,2064213108
91,16,7,Jits_ISO_8,115,9999,9999,9999,2065012812
91,16,7,Jits_ISO_8,116,9999,9999,9999,2065812600
91,16,7,Jits_ISO_8,117,9999,9999,9999,2066612316
91,16,7,Jits_ISO_8,118,9999,9999,9999,2067413076
91,16,7,Jits_ISO_8,119,9999,9999,9999,2068212796
91,17,16,Jits_ISO_5,0,5,56,103,2076649088
91,17,16,Jits_ISO_5,1,5,63,98,2076652188
91,17,16,Jits_ISO_5,2,5,80,127,2076655160
91,17,16,Jits_ISO_5,0,5,56,103,2077148588
91,17,16,Jits_ISO_5,1,5,63,98,2077151912
91,17,16,Jits_ISO_5,2,5,80,127,2077155032
91,17,16,Jits_ISO_5,3,1,48,40,2077271524
91,17,16,Jits_ISO_5,4,1,48,23,2077334724
91,17,16,Jits_ISO_5,0,5,56,103,2077649248
91,17,16,Jits_ISO_5,1,5,80,127,2077658472
91,17,16,Jits_ISO_5,2,5,63,98,2077678928
91,17,16,Jits_ISO_5,3,1,48,50,2077701524
91,17,16,Jits_ISO_5,0,5,63,98,2078099024
91,17,16,Jits_ISO_5,1,5,80,127,2078128476
91,17,16,Jits_ISO_5,2,5,56,103,2078138820
91,17,16,Jits_ISO_5,3,1,48,44,2078157748
91,17,16,Jits_ISO_5,0,1,48,40,2078604412
91,17,16,Jits_ISO_5,1,5,80,127,2078659056
91,17,16,Jits_ISO_5,2,5,56,103,2078669104
91,17,16,Jits_ISO_5,3,5,63,98,2078698928
91,17,16,Jits_ISO_5,0,1,48,44,2079094704
91,17,16,Jits_ISO_5,1,5,63,98,2079149356
91,17,16,Jits_ISO_5,2,5,56,103,2079179184
91,17,16,Jits_ISO_5,3,5,80,127,2079189376
91,17,16,Jits_ISO_5,0,5,56,103,2079599132
91,17,16,Jits_ISO_5,1,1,48,46,2079610120
91,17,16,Jits_ISO_5,2,5,63,98,2079649028
91,17,16,Jits_ISO_5,3,5,80,127,2079668736
91,17,16,Jits_ISO_5,0,5,80,127,2080098880
91,17,16,Jits_ISO_5,1,1,48,42,2080103648
91,17,16,Jits_ISO_5,2,5,63,98,2080149076
91,17,16,Jits_ISO_5,3,5,56,103,2080188788
91,17,16,Jits_ISO_5,0,5,56,103,2080599528
91,17,16,Jits_ISO_5,1,1,48,44,2080609324
91,17,16,Jits_ISO_5,2,5,63,98,2080629048
91,17,16,Jits_ISO_5,3,5,80,127,2080698872
91,17,16,Jits_ISO_5,0,1,48,46,2081091524
91,17,16,Jits_ISO_5,1,5,56,103,2081099120
91,17,16,Jits_ISO_5,2,5,80,127,2081158464
91,17,16,Jits_ISO_5,3,5,63,98,2081190064
91,17,16,Jits_ISO_5,0,1,48,46,2081602720
91,17,16,Jits_ISO_5,1,5,56,103,2081609040
91,17,16,Jits_ISO_5,2,5,63,98,2081619236
91,17,16,Jits_ISO_5,3,5,80,127,2081659096
91,17,16,Jits_ISO_5,0,1,48,48,2082093232
91,17,16,Jits_ISO_5,1,5,63,98,2082098508
91,17,16,Jits_ISO_5,2,5,80,127,2082178300
91,17,16,Jits_ISO_5,3,5,56,103,2082188868
91,17,16,Jits_ISO_5,0,1,48,49,2082613268
91,17,16,Jits_ISO_5,1,5,63,98,2082648360
91,17,16,Jits_ISO_5,2,5,56,103,2082689344
91,17,16,Jits_ISO_5,3,5,80,127,2082692484
91,17,16,Jits_ISO_5,0,5,56,103,2083109208
91,17,16,Jits_ISO_5,1,5,63,98,2083118356
91,17,16,Jits_ISO_5,2,1,48,43,2083138260
91,17,16,Jits_ISO_5,3,5,80,127,2083159256
91,17,16,Jits_ISO_5,0,5,56,103,2083598984
91,17,16,Jits_ISO_5,1,5,63,98,2083601904
91,17,16,Jits_ISO_5,2,5,80,127,2083619144
91,17,16,Jits_ISO_5,3,1,48,46,2083620408
91,17,16,Jits_ISO_5,0,1,48,48,2084096036
91,17,16,Jits_ISO_5,1,5,80,127,2084108900
91,17,16,Jits_ISO_5,2,5,56,103,2084118876
91,17,16,Jits_ISO_5,3,5,63,98,2084188476
91,17,16,Jits_ISO_5,0,1,48,48,2084592768
91,17,16,Jits_ISO_5,1,5,63,98,2084599164
91,17,16,Jits_ISO_5,2,5,56,103,2084618752
91,17,16,Jits_ISO_5,3,5,80,127,2084698452
91,17,16,Jits_ISO_5,0,1,48,43,2085085000
91,17,16,Jits_ISO_5,1,5,56,103,2085109084
91,17,16,Jits_ISO_5,2,5,80,127,2085148900
91,17,16,Jits_ISO_5,3,5,63,98,2085159396
91,17,16,Jits_ISO_5,0,1,48,40,2085562864
91,17,16,Jits_ISO_5,1,5,80,127,2085598852
91,17,16,Jits_ISO_5,2,5,63,98,2085629352
91,17,16,Jits_ISO_5,3,5,56,103,2085669148
91,17,16,Jits_ISO_5,0,1,48,50,2086072708
91,17,16,Jits_ISO_5,1,5,56,103,2086118888
91,17,16,Jits_ISO_5,2,5,63,98,2086148416
91,17,16,Jits_ISO_5,3,5,80,127,2086198772
91,17,16,Jits_ISO_5,0,1,48,45,2086599344
91,17,16,Jits_ISO_5,1,5,80,127,2086618400
91,17,16,Jits_ISO_5,2,5,56,103,2086658564
91,17,16,Jits_ISO_5,3,5,63,98,2086669008
91,17,16,Jits_ISO_5,0,5,80,127,2087098888
91,17,16,Jits_ISO_5,1,1,48,43,2087101332
91,17,16,Jits_ISO_5,2,5,63,98,2087138820
91,17,16,Jits_ISO_5,3,5,56,103,2087199064
91,17,16,Jits_ISO_5,0,1,48,43,2087598708
91,17,16,Jits_ISO_5,1,5,56,103,2087599972
91,17,16,Jits_ISO_5,2,5,80,127,2087608972
91,17,16,Jits_ISO_5,3,5,63,98,2087688764
91,17,16,Jits_ISO_5,0,1,48,42,2088065188
91,17,16,Jits_ISO_5,1,5,80,127,2088099156
91,17,16,Jits_ISO_5,2,5,63,98,2088158652
91,17,16,Jits_ISO_5,3,5,56,103,2088189284
91,17,16,Jits_ISO_5,0,1,48,45,2088576696
91,17,16,Jits_ISO_5,1,5,56,103,2088598892
91,17,16,Jits_ISO_5,2,5,80,127,2088659360
91,17,16,Jits_ISO_5,3,5,63,98,2088699280
91,17,16,Jits_ISO_5,0,1,48,46,2089067816
91,17,16,Jits_ISO_5,1,5,56,103,2089148676
91,17,16,Jits_ISO_5,2,5,63,98,2089159164
91,17,16,Jits_ISO_5,3,5,80,127,2089162456
91,17,16,Jits_ISO_5,0,5,80,127,2089599256
91,17,16,Jits_ISO_5,1,1,48,43,2089622976
91,17,16,Jits_ISO_5,2,5,63,98,2089688556
91,17,16,Jits_ISO_5,3,5,56,103,2089698752
91,17,16,Jits_ISO_5,0,5,56,103,2090099064
91,17,16,Jits_ISO_5,1,5,63,98,2090102088
91,17,16,Jits_ISO_5,2,5,80,127,2090105136
91,17,16,Jits_ISO_5,3,1,48,51,2090147520
91,17,16,Jits_ISO_5,0,5,80,127,2090619180
91,17,16,Jits_ISO_5,1,1,48,37,2090628300
91,17,16,Jits_ISO_5,2,5,63,98,2090669300
91,17,16,Jits_ISO_5,3,5,56,103,2090699048
91,17,16,Jits_ISO_5,0,5,56,103,2091098628
91,17,16,Jits_ISO_5,1,1,48,43,2091102720
91,17,16,Jits_ISO_5,2,5,80,127,2091108964
91,17,16,Jits_ISO_5,3,5,63,98,2091179316
91,17,16,Jits_ISO_5,0,1,48,49,2091588600
91,17,16,Jits_ISO_5,1,5,56,103,2091608408
91,17,16,Jits_ISO_5,2,5,63,98,2091628940
91,17,16,Jits_ISO_5,3,5,80,127,2091689236
91,17,16,Jits_ISO_5,0,1,48,48,2092084504
91,17,16,Jits_ISO_5,1,5,80,127,2092098920
91,17,16,Jits_ISO_5,2,5,63,98,2092168748
91,17,16,Jits_ISO_5,3,5,56,103,2092189116
91,17,16,Jits_ISO_5,0,1,48,50,2092590688
91,17,16,Jits_ISO_5,1,5,80,127,2092619108
91,17,16,Jits_ISO_5,2,5,56,103,2092629380
91,17,16,Jits_ISO_5,3,5,63,98,2092638676
91,17,16,Jits_ISO_5,0,1,48,45,2093095280
91,17,16,Jits_ISO_5,1,5,80,127,2093108800
91,17,16,Jits_ISO_5,2,5,56,103,2093129108
91,17,16,Jits_ISO_5,3,5,63,98,2093198624
91,17,16,Jits_ISO_5,0,1,48,43,2093588584
91,17,16,Jits_ISO_5,1,5,56,103,2093618796
91,17,16,Jits_ISO_5,2,5,80,127,2093649148
91,17,16,Jits_ISO_5,3,5,63,98,2093668856
91,17,16,Jits_ISO_5,0,1,48,46,2094081916
91,17,16,Jits_ISO_5,1,5,63,98,2094108940
91,17,16,Jits_ISO_5,2,5,56,103,2094168508
91,17,16,Jits_ISO_5,3,5,80,127,2094199136
91,17,16,Jits_ISO_5,0,5,63,98,2094598612
91,17,16,Jits_ISO_5,1,1,48,49,2094600820
91,17,16,Jits_ISO_5,2,5,80,127,2094603192
91,17,16,Jits_ISO_5,3,5,56,103,2094689056
91,17,16,Jits_ISO_5,0,1,48,49,2095094104
91,17,16,Jits_ISO_5,1,5,56,103,2095118880
91,17,16,Jits_ISO_5,2,5,63,98,2095149304
91,17,16,Jits_ISO_5,3,5,80,127,2095189316
91,17,16,Jits_ISO_5,0,1,48,49,2095586808
91,17,16,Jits_ISO_5,1,5,63,98,2095618296
91,17,16,Jits_ISO_5,2,5,56,103,2095659304
91,17,16,Jits_ISO_5,3,5,80,127,2095678936
91,17,16,Jits_ISO_5,0,1,48,44,2096087068
91,17,16,Jits_ISO_5,1,5,63,98,2096129560
91,17,16,Jits_ISO_5,2,5,56,103,2096169524
91,17,16,Jits_ISO_5,3,5,80,127,2096178824
91,17,16,Jits_ISO_5,0,1,48,53,2096606112
91,17,16,Jits_ISO_5,1,5,80,127,2096608696
91,17,16,Jits_ISO_5,2,5,63,98,2096679372
91,17,16,Jits_ISO_5,3,5,56,103,2096698636
91,17,16,Jits_ISO_5,0,5,56,103,2097099216
91,17,16,Jits_ISO_5,1,1,48,51,2097102188
91,17,16,Jits_ISO_5,2,5,80,127,2097118772
91,17,16,Jits_ISO_5,3,5,63,98,2097158632
91,17,16,Jits_ISO_5,0,1,48,48,2097567396
91,17,16,Jits_ISO_5,1,5,63,98,2097609000
91,17,16,Jits_ISO_5,2,5,80,127,2097628708
91,17,16,Jits_ISO_5,3,5,56,103,2097668404
91,17,16,Jits_ISO_5,0,1,48,49,2098058956
91,17,16,Jits_ISO_5,1,5,63,98,2098108728
91,17,16,Jits_ISO_5,2,5,56,103,2098129412
91,17,16,Jits_ISO_5,3,5,80,127,2098138560
91,17,16,Jits_ISO_5,0,1,48,51,2098576896
91,17,16,Jits_ISO_5,1,5,80,127,2098608532
91,17,16,Jits_ISO_5,2,5,56,103,2098628988
91,17,16,Jits_ISO_5,3,5,63,98,2098658664
91,17,16,Jits_ISO_5,0,1,48,51,2099076080
91,17,16,Jits_ISO_5,1,5,56,103,2099178964
91,17,16,Jits_ISO_5,2,5,80,127,2099181884
91,17,16,Jits_ISO_5,3,5,63,98,2099199500
91,17,16,Jits_ISO_5,0,1,48,51,2099577032
91,17,16,Jits_ISO_5,1,5,63,98,2099598628
91,17,16,Jits_ISO_5,2,5,56,103,2099629496
91,17,16,Jits_ISO_5,3,5,80,127,2099688820
91,17,16,Jits_ISO_5,0,1,48,44,2100067016
91,17,16,Jits_ISO_5,1,5,63,98,2100179252
91,17,16,Jits_ISO_5,2,5,56,103,2100188700
91,17,16,Jits_ISO_5,3,5,80,127,2100198896
91,17,16,Jits_ISO_5,0,1,48,45,2100576572
91,17,16,Jits_ISO_5,1,5,56,103,2100628808
91,17,16,Jits_ISO_5,2,5,80,127,2100658632
91,17,16,Jits_ISO_5,3,5,63,98,2100668904
91,17,16,Jits_ISO_5,0,1,48,49,2101092100
91,17,16,Jits_ISO_5,1,5,63,98,2101168624
91,17,16,Jits_ISO_5,2,5,56,103,2101178672
91,17,16,Jits_ISO_5,3,5,80,127,2101199112
91,17,16,Jits_ISO_5,0,5,56,103,2101598544
91,17,16,Jits_ISO_5,1,1,48,46,2101606448
91,17,16,Jits_ISO_5,2,5,63,98,2101658996
91,17,16,Jits_ISO_5,3,5,80,127,2101662288
91,17,16,Jits_ISO_5,0,1,48,48,2102080484
91,17,16,Jits_ISO_5,1,5,80,127,2102118648
91,17,16,Jits_ISO_5,2,5,56,103,2102129144
91,17,16,Jits_ISO_5,3,5,63,98,2102198728
91,17,16,Jits_ISO_5,0,1,48,47,2102556604
91,17,16,Jits_ISO_5,1,5,80,127,2102609388
91,17,16,Jits_ISO_5,2,5,56,103,2102678828
91,17,16,Jits_ISO_5,3,5,63,98,2102689096
91,17,16,Jits_ISO_5,0,1,48,49,2103074772
91,17,16,Jits_ISO_5,1,5,63,98,2103148904
91,17,16,Jits_ISO_5,2,5,56,103,2103159172
91,17,16,Jits_ISO_5,3,5,80,127,2103178568
91,17,16,Jits_ISO_5,0,1,48,48,2103583352
91,17,16,Jits_ISO_5,1,5,80,127,2103598668
91,17,16,Jits_ISO_5,2,5,63,98,2103658980
91,17,16,Jits_ISO_5,3,5,56,103,2103698900
91,17,16,Jits_ISO_5,0,1,48,51,2104088188
91,17,16,Jits_ISO_5,1,5,56,103,2104139080
91,17,16,Jits_ISO_5,2,5,63,98,2104149796
91,17,16,Jits_ISO_5,3,5,80,127,2104189424
91,17,16,Jits_ISO_5,0,5,56,103,2104598892
91,17,16,Jits_ISO_5,1,1,48,54,2104602528
91,17,16,Jits_ISO_5,2,5,80,127,2104628708
91,17,16,Jits_ISO_5,3,5,63,98,2104678832
91,17,16,Jits_ISO_5,0,1,48,49,2105089064
91,17,16,Jits_ISO_5,1,5,56,103,2105138784
91,17,16,Jits_ISO_5,2,5,63,98,2105178568
91,17,16,Jits_ISO_5,3,5,80,127,2105183040
91,17,16,Jits_ISO_5,0,1,48,51,2105584208
91,17,16,Jits_ISO_5,1,5,56,103,2105639404
91,17,16,Jits_ISO_5,2,5,63,98,2105648552
91,17,16,Jits_ISO_5,3,5,80,127,2105668864
91,17,16,Jits_ISO_5,0,1,48,50,2106096300
91,17,16,Jits_ISO_5,1,5,56,103,2106099104
91,17,16,Jits_ISO_5,2,5,80,127,2106102096
91,17,16,Jits_ISO_5,3,5,63,98,2106138992
91,17,16,Jits_ISO_5,0,1,48,47,2106595044
91,17,16,Jits_ISO_5,1,5,63,98,2106638708
91,17,16,Jits_ISO_5,2,5,56,103,2106669576
91,17,16,Jits_ISO_5,3,5,80,127,2106688976
91,17,16,Jits_ISO_5,0,1,48,51,2107097196
91,17,16,Jits_ISO_5,1,5,80,127,2107108676
91,17,16,Jits_ISO_5,2,5,56,103,2107119020
91,17,16,Jits_ISO_5,3,5,63,98,2107129140
91,17,16,Jits_ISO_5,0,1,48,50,2107578108
91,17,16,Jits_ISO_5,1,5,56,103,2107608472
91,17,16,Jits_ISO_5,2,5,80,127,2107649532
91,17,16,Jits_ISO_5,3,5,63,98,2107679068
91,17,16,Jits_ISO_5,0,1,48,49,2108069224
91,17,16,Jits_ISO_5,1,5,63,98,2108119440
91,17,16,Jits_ISO_5,2,5,80,127,2108128812
91,17,16,Jits_ISO_5,3,5,56,103,2108138932
91,17,16,Jits_ISO_5,0,1,48,49,2108563700
91,17,16,Jits_ISO_5,1,5,56,103,2108598568
91,17,16,Jits_ISO_5,2,5,63,98,2108669576
91,17,16,Jits_ISO_5,3,5,80,127,2108678576
91,17,16,Jits_ISO_5,0,1,48,48,2109060884
91,17,16,Jits_ISO_5,1,5,80,127,2109099568
91,17,16,Jits_ISO_5,2,5,56,103,2109108568
91,17,16,Jits_ISO_5,3,5,63,98,2109158768
91,17,16,Jits_ISO_5,0,1,48,48,2109578748
91,17,16,Jits_ISO_5,1,5,80,127,2109609560
91,17,16,Jits_ISO_5,2,5,56,103,2109668756
91,17,16,Jits_ISO_5,3,5,63,98,2109698636
91,17,16,Jits_ISO_5,0,1,48,47,2110059228
91,17,16,Jits_ISO_5,1,5,56,103,2110108996
91,17,16,Jits_ISO_5,2,5,80,127,2110112064
91,17,16,Jits_ISO_5,3,5,63,98,2110148860
91,17,16,Jits_ISO_5,0,1,48,50,2110566596
91,17,16,Jits_ISO_5,1,5,56,103,2110638608
91,17,16,Jits_ISO_5,2,5,63,98,2110669020
91,17,16,Jits_ISO_5,3,5,80,127,2110679584
91,17,16,Jits_ISO_5,0,1,48,45,2111061224
91,17,16,Jits_ISO_5,1,5,63,98,2111149504
91,17,16,Jits_ISO_5,2,5,80,127,2111158712
91,17,16,Jits_ISO_5,3,5,56,103,2111168980
91,17,16,Jits_ISO_5,0,1,48,48,2111561552
91,17,16,Jits_ISO_5,1,5,80,127,2111598892
91,17,16,Jits_ISO_5,2,5,56,103,2111649092
91,17,16,Jits_ISO_5,3,5,63,98,2111652160
91,17,16,Jits_ISO_5,0,1,48,52,2112060680
91,17,16,Jits_ISO_5,1,5,56,103,2112129404
91,17,16,Jits_ISO_5,2,5,80,127,2112148744
91,17,16,Jits_ISO_5,3,5,63,98,2112159072
91,17,16,Jits_ISO_5,0,1,48,47,2112570224
91,17,16,Jits_ISO_5,1,5,63,98,2112608536
91,17,16,Jits_ISO_5,2,5,56,103,2112639408
91,17,16,Jits_ISO_5,3,5,80,127,2112658744
91,17,16,Jits_ISO_5,0,1,48,50,2113057076
91,17,16,Jits_ISO_5,1,5,56,103,2113118532
91,17,16,Jits_ISO_5,2,5,80,127,2113128952
91,17,16,Jits_ISO_5,3,5,63,98,2113198612
91,17,16,Jits_ISO_5,0,1,48,51,2113570888
91,17,16,Jits_ISO_5,1,5,63,98,2113609048
91,17,16,Jits_ISO_5,2,5,80,127,2113648912
91,17,16,Jits_ISO_5,3,5,56,103,2113688908
91,17,16,Jits_ISO_5,0,1,48,44,2114083352
91,17,16,Jits_ISO_5,1,5,56,103,2114118968
91,17,16,Jits_ISO_5,2,5,63,98,2114129312
91,17,16,Jits_ISO_5,3,5,80,127,2114148800
91,17,16,Jits_ISO_5,0,1,48,46,2114574764
91,17,16,Jits_ISO_5,1,5,63,98,2114658632
91,17,16,Jits_ISO_5,2,5,80,127,2114679448
91,17,16,Jits_ISO_5,3,5,56,103,2114698484
91,17,16,Jits_ISO_5,0,1,48,46,2115087548
91,17,16,Jits_ISO_5,1,5,56,103,2115099104
91,17,16,Jits_ISO_5,2,5,80,127,2115178748
91,17,16,Jits_ISO_5,3,5,63,98,2115189004
91,17,16,Jits_ISO_5,0,1,48,43,2115583052
91,17,16,Jits_ISO_5,1,5,80,127,2115638696
91,17,16,Jits_ISO_5,2,5,63,98,2115649040
91,17,16,Jits_ISO_5,3,5,56,103,2115678476
91,17,16,Jits_ISO_5,0,1,48,44,2116075436
91,17,16,Jits_ISO_5,1,5,63,98,2116098548
91,17,16,Jits_ISO_5,2,5,80,127,2116139336
91,17,16,Jits_ISO_5,3,5,56,103,2116198736
91,17,16,Jits_ISO_5,0,1,48,46,2116571956
91,17,16,Jits_ISO_5,1,5,63,98,2116609668
91,17,16,Jits_ISO_5,2,5,56,103,2116658552
91,17,16,Jits_ISO_5,3,5,80,127,2116689552
91,17,16,Jits_ISO_5,0,1,48,44,2117080980
91,17,16,Jits_ISO_5,1,5,80,127,2117119516
91,17,16,Jits_ISO_5,2,5,63,98,2117128468
91,17,16,Jits_ISO_5,3,5,56,103,2117199328
91,17,16,Jits_ISO_5,0,1,48,48,2117575840
91,17,16,Jits_ISO_5,1,5,80,127,2117688640
91,17,16,Jits_ISO_5,2,5,56,103,2117699128
91,17,16,Jits_ISO_5,3,5,63,98,2117702124
91,17,16,Jits_ISO_5,0,1,48,48,2118092884
91,17,16,Jits_ISO_5,1,5,56,103,2118129024
91,17,16,Jits_ISO_5,2,5,80,127,2118148436
91,17,16,Jits_ISO_5,3,5,63,98,2118158732
91,17,16,Jits_ISO_5,0,1,48,47,2118638652
91,17,16,Jits_ISO_5,1,5,63,98,2118639992
91,17,16,Jits_ISO_5,2,5,56,103,2118678832
91,17,16,Jits_ISO_5,3,5,80,127,2118699364
91,17,16,Jits_ISO_5,0,5,63,98,2119138612
91,17,16,Jits_ISO_5,1,1,48,41,2119174392
91,17,16,Jits_ISO_5,2,5,56,103,2119198940
91,17,16,Jits_ISO_5,3,5,80,127,2119202084
91,17,16,Jits_ISO_5,0,5,56,103,2119598412
91,17,16,Jits_ISO_5,1,5,80,127,2119618868
91,17,16,Jits_ISO_5,2,1,48,48,2119642664
91,17,16,Jits_ISO_5,3,5,63,98,2119658800
91,17,16,Jits_ISO_5,0,1,48,50,2120098648
91,17,16,Jits_ISO_5,1,5,56,103,2120128864
91,17,16,Jits_ISO_5,2,5,63,98,2120149248
91,17,16,Jits_ISO_5,3,5,80,127,2120158692
91,17,16,Jits_ISO_5,0,1,48,47,2120583312
91,17,16,Jits_ISO_5,1,5,80,127,2120598776
91,17,16,Jits_ISO_5,2,5,56,103,2120628524
91,17,16,Jits_ISO_5,3,5,63,98,2120668460
91,17,16,Jits_ISO_5,0,1,48,46,2121075320
91,17,16,Jits_ISO_5,1,5,80,127,2121108844
91,17,16,Jits_ISO_5,2,5,56,103,2121129528
91,17,16,Jits_ISO_5,3,5,63,98,2121188780
91,17,16,Jits_ISO_5,0,1,48,49,2121563668
91,17,16,Jits_ISO_5,1,5,56,103,2121618916
91,17,16,Jits_ISO_5,2,5,80,127,2121639372
91,17,16,Jits_ISO_5,3,5,63,98,2121698624
91,17,16,Jits_ISO_5,0,1,48,48,2122052992
91,17,16,Jits_ISO_5,1,5,80,127,2122099168
91,17,16,Jits_ISO_5,2,5,56,103,2122109440
91,17,16,Jits_ISO_5,3,5,63,98,2122149376
91,17,16,Jits_ISO_5,0,1,48,48,2122562232
91,17,16,Jits_ISO_5,1,5,63,98,2122598752
91,17,16,Jits_ISO_5,2,5,56,103,2122638836
91,17,16,Jits_ISO_5,3,5,80,127,2122641900
91,17,16,Jits_ISO_5,0,1,48,49,2123037312
91,17,16,Jits_ISO_5,1,5,63,98,2123118924
91,17,16,Jits_ISO_5,2,5,80,127,2123158844
91,17,16,Jits_ISO_5,3,5,56,103,2123188444
91,17,16,Jits_ISO_5,0,1,48,43,2123554416
91,17,16,Jits_ISO_5,1,5,56,103,2123608472
91,17,16,Jits_ISO_5,2,5,63,98,2123618816
91,17,16,Jits_ISO_5,3,5,80,127,2123649460
91,17,16,Jits_ISO_5,0,1,48,43,2124067120
91,17,16,Jits_ISO_5,1,5,80,127,2124099128
91,17,16,Jits_ISO_5,2,5,63,98,2124168572
91,17,16,Jits_ISO_5,3,5,56,103,2124178920
91,17,16,Jits_ISO_5,0,1,48,46,2124596456
91,17,16,Jits_ISO_5,1,5,63,98,2124598568
91,17,16,Jits_ISO_5,2,5,56,103,2124669368
91,17,16,Jits_ISO_5,3,5,80,127,2124678444
91,17,16,Jits_ISO_5,0,1,48,56,2125061536
91,17,16,Jits_ISO_5,1,5,63,98,2125099348
91,17,16,Jits_ISO_5,2,5,56,103,2125118836
91,17,16,Jits_ISO_5,3,5,80,127,2125158832
91,17,16,Jits_ISO_5,0,1,48,49,2125571900
91,17,16,Jits_ISO_5,1,5,56,103,2125609416
91,17,16,Jits_ISO_5,2,5,63,98,2125618492
91,17,16,Jits_ISO_5,3,5,80,127,2125698488
91,17,16,Jits_ISO_5,0,1,48,45,2126061972
91,17,16,Jits_ISO_5,1,5,63,98,2126098660
91,17,16,Jits_ISO_5,2,5,56,103,2126128484
91,17,16,Jits_ISO_5,3,5,80,127,2126168552
91,17,16,Jits_ISO_5,0,1,48,53,2126560580
91,17,16,Jits_ISO_5,1,5,56,103,2126598664
91,17,16,Jits_ISO_5,2,5,63,98,2126638380
91,17,16,Jits_ISO_5,3,5,80,127,2126679420
91,17,16,Jits_ISO_5,0,1,48,50,2127063728
91,17,16,Jits_ISO_5,1,5,80,127,2127099344
91,17,16,Jits_ISO_5,2,5,56,103,2127179296
91,17,16,Jits_ISO_5,3,5,63,98,2127189344
91,17,16,Jits_ISO_5,0,1,48,52,2127575892
91,17,16,Jits_ISO_5,1,5,56,103,2127638804
91,17,16,Jits_ISO_5,2,5,63,98,2127642248
91,17,16,Jits_ISO_5,3,5,80,127,2127649080
91,17,16,Jits_ISO_5,0,1,48,50,2128070984
91,17,16,Jits_ISO_5,1,5,56,103,2128159064
91,17,16,Jits_ISO_5,2,5,63,98,2128178536
91,17,16,Jits_ISO_5,3,5,80,127,2128188880
91,17,16,Jits_ISO_5,0,1,48,43,2128575508
91,17,16,Jits_ISO_5,1,5,63,98,2128618992
91,17,16,Jits_ISO_5,2,5,80,127,2128629336
91,17,16,Jits_ISO_5,3,5,56,103,2128648476
91,17,16,Jits_ISO_5,0,1,48,49,2129078688
91,17,16,Jits_ISO_5,1,5,63,98,2129118496
91,17,16,Jits_ISO_5,2,5,56,103,2129198372
91,17,16,Jits_ISO_5,3,5,80,127,2129201364
91,17,16,Jits_ISO_5,0,1,48,45,2129586364
91,17,16,Jits_ISO_5,1,5,63,98,2129619196
91,17,16,Jits_ISO_5,2,5,56,103,2129638904
91,17,16,Jits_ISO_5,3,5,80,127,2129668580
91,17,16,Jits_ISO_5,0,1,48,51,2130067336
91,17,16,Jits_ISO_5,1,5,56,103,2130119128
91,17,16,Jits_ISO_5,2,5,63,98,2130138468
91,17,16,Jits_ISO_5,3,5,80,127,2130148812
91,17,16,Jits_ISO_5,0,1,48,44,2130566396
91,17,16,Jits_ISO_5,1,5,56,103,2130648528
91,17,16,Jits_ISO_5,2,5,63,98,2130679084
91,17,16,Jits_ISO_5,3,5,80,127,2130682372
91,17,16,Jits_ISO_5,0,1,48,34,2131095776
91,17,16,Jits_ISO_5,1,5,56,103,2131099252
91,17,16,Jits_ISO_5,2,5,63,98,2131138820
91,17,16,Jits_ISO_5,3,5,80,127,2131199264
91,17,16,Jits_ISO_5,0,1,48,46,2131578588
91,17,16,Jits_ISO_5,1,5,56,103,2131619364
91,17,16,Jits_ISO_5,2,5,63,98,2131629560
91,17,16,Jits_ISO_5,3,5,80,127,2131688812
91,17,16,Jits_ISO_5,0,1,48,48,2132067304
91,17,16,Jits_ISO_5,1,5,56,103,2132119096
91,17,16,Jits_ISO_5,2,5,80,127,2132139332
91,17,16,Jits_ISO_5,3,5,63,98,2132169288
91,17,16,Jits_ISO_5,0,1,48,39,2132568980
91,17,16,Jits_ISO_5,1,5,80,127,2132618532
91,17,16,Jits_ISO_5,2,5,56,103,2132628800
91,17,16,Jits_ISO_5,3,5,63,98,2132649332
91,17,16,Jits_ISO_5,0,1,48,46,2133081520
91,17,16,Jits_ISO_5,1,5,63,98,2133109120
91,17,16,Jits_ISO_5,2,5,80,127,2133189120
91,17,16,Jits_ISO_5,3,5,56,103,2133199392
91,17,16,Jits_ISO_5,0,1,48,45,2133548372
91,17,16,Jits_ISO_5,1,5,80,127,2133669376
91,17,16,Jits_ISO_5,2,5,56,103,2133688636
91,17,16,Jits_ISO_5,3,5,63,98,2133691704
91,17,16,Jits_ISO_5,0,1,48,45,2134080912
91,17,16,Jits_ISO_5,1,5,63,98,2134139372
91,17,16,Jits_ISO_5,2,5,80,127,2134142512
91,17,16,Jits_ISO_5,3,5,56,103,2134198624
91,17,16,Jits_ISO_5,0,1,48,56,2134617904
91,17,16,Jits_ISO_5,1,5,56,103,2134619468
91,17,16,Jits_ISO_5,2,5,80,127,2134628620
91,17,16,Jits_ISO_5,3,5,63,98,2134668556
91,17,16,Jits_ISO_5,0,5,56,103,2135098684
91,17,16,Jits_ISO_5,1,1,48,52,2135123228
91,17,16,Jits_ISO_5,2,5,63,98,2135159140
91,17,16,Jits_ISO_5,3,5,80,127,2135169336
91,17,16,Jits_ISO_5,0,1,48,44,2135602960
91,17,16,Jits_ISO_5,1,5,63,98,2135608908
91,17,16,Jits_ISO_5,2,5,80,127,2135648700
91,17,16,Jits_ISO_5,3,5,56,103,2135688636
91,17,16,Jits_ISO_5,0,1,48,51,2136093704
91,17,16,Jits_ISO_5,1,5,56,103,2136109468
91,17,16,Jits_ISO_5,2,5,63,98,2136189176
91,17,16,Jits_ISO_5,3,5,80,127,2136193356
91,17,16,Jits_ISO_5,0,9999,9999,9999,2076896368
91,17,16,Jits_ISO_5,1,9999,9999,9999,2077397108
91,17,16,Jits_ISO_5,2,9999,9999,9999,2077896804
91,17,16,Jits_ISO_5,3,9999,9999,9999,2078396476
91,17,16,Jits_ISO_5,4,9999,9999,9999,2078896216
91,17,16,Jits_ISO_5,5,9999,9999,9999,2079396928
91,17,16,Jits_ISO_5,6,9999,9999,9999,2079896660
91,17,16,Jits_ISO_5,7,9999,9999,9999,2080396336
91,17,16,Jits_ISO_5,8,9999,9999,9999,2080896084
91,17,16,Jits_ISO_5,9,9999,9999,9999,2081396804
91,17,16,Jits_ISO_5,10,9999,9999,9999,2081896536
91,17,16,Jits_ISO_5,11,9999,9999,9999,2082396268
91,17,16,Jits_ISO_5,12,9999,9999,9999,2082896968
91,17,16,Jits_ISO_5,13,9999,9999,9999,2083396696
91,17,16,Jits_ISO_5,14,9999,9999,9999,2083896428
91,17,16,Jits_ISO_5,15,9999,9999,9999,2084396100
91,17,16,Jits_ISO_5,16,9999,9999,9999,2084896876
91,17,16,Jits_ISO_5,17,9999,9999,9999,2085396532
91,17,16,Jits_ISO_5,18,9999,9999,9999,2085896340
91,17,16,Jits_ISO_5,19,9999,9999,9999,2086397024
91,17,16,Jits_ISO_5,20,9999,9999,9999,2086896760
91,17,16,Jits_ISO_5,21,9999,9999,9999,2087396416
91,17,16,Jits_ISO_5,22,9999,9999,9999,2087896136
91,17,16,Jits_ISO_5,23,9999,9999,9999,2088396924
91,17,16,Jits_ISO_5,24,9999,9999,9999,2088896580
91,17,16,Jits_ISO_5,25,9999,9999,9999,2089396304
91,17,16,Jits_ISO_5,26,9999,9999,9999,2089897012
91,17,16,Jits_ISO_5,27,9999,9999,9999,2090396732
91,17,16,Jits_ISO_5,28,9999,9999,9999,2090896484
91,17,16,Jits_ISO_5,29,9999,9999,9999,2091396156
91,17,16,Jits_ISO_5,30,9999,9999,9999,2091896948
91,17,16,Jits_ISO_5,31,9999,9999,9999,2092396608
91,17,16,Jits_ISO_5,32,9999,9999,9999,2092896340
91,17,16,Jits_ISO_5,33,9999,9999,9999,2093397048
91,17,16,Jits_ISO_5,34,9999,9999,9999,2093896780
91,17,16,Jits_ISO_5,35,9999,9999,9999,2094396512
91,17,16,Jits_ISO_5,36,9999,9999,9999,2094896236
91,17,16,Jits_ISO_5,37,9999,9999,9999,2095396940
91,17,16,Jits_ISO_5,38,9999,9999,9999,2095896672
91,17,16,Jits_ISO_5,39,9999,9999,9999,2096396412
91,17,16,Jits_ISO_5,40,9999,9999,9999,2096896120
91,17,16,Jits_ISO_5,41,9999,9999,9999,2097396820
91,17,16,Jits_ISO_5,42,9999,9999,9999,2097896568
91,17,16,Jits_ISO_5,43,9999,9999,9999,2098396224
91,17,16,Jits_ISO_5,44,9999,9999,9999,2098897000
91,17,16,Jits_ISO_5,45,9999,9999,9999,2099396728
91,17,16,Jits_ISO_5,46,9999,9999,9999,2099896384
91,17,16,Jits_ISO_5,47,9999,9999,9999,2100396124
91,17,16,Jits_ISO_5,48,9999,9999,9999,2100896828
91,17,16,Jits_ISO_5,49,9999,9999,9999,2101396564
91,17,16,Jits_ISO_5,50,9999,9999,9999,2101896284
91,17,16,Jits_ISO_5,51,9999,9999,9999,2102397004
91,17,16,Jits_ISO_5,52,9999,9999,9999,2102896736
91,17,16,Jits_ISO_5,53,9999,9999,9999,2103396468
91,17,16,Jits_ISO_5,54,9999,9999,9999,2103896128
91,17,16,Jits_ISO_5,55,9999,9999,9999,2104396912
91,17,16,Jits_ISO_5,56,9999,9999,9999,2104896568
91,17,16,Jits_ISO_5,57,9999,9999,9999,2105396304
91,17,16,Jits_ISO_5,58,9999,9999,9999,2105897012
91,17,16,Jits_ISO_5,59,9999,9999,9999,2106396728
91,17,16,Jits_ISO_5,60,9999,9999,9999,2106896468
91,17,16,Jits_ISO_5,61,9999,9999,9999,2107396168
91,17,16,Jits_ISO_5,62,9999,9999,9999,2107896944
91,17,16,Jits_ISO_5,63,9999,9999,9999,2108396596
91,17,16,Jits_ISO_5,64,9999,9999,9999,2108896328
91,17,16,Jits_ISO_5,65,9999,9999,9999,2109397104
91,17,16,Jits_ISO_5,66,9999,9999,9999,2109896764
91,17,16,Jits_ISO_5,67,9999,9999,9999,2110396484
91,17,16,Jits_ISO_5,68,9999,9999,9999,2110896216
91,17,16,Jits_ISO_5,69,9999,9999,9999,2111396920
91,17,16,Jits_ISO_5,70,9999,9999,9999,2111896640
91,17,16,Jits_ISO_5,71,9999,9999,9999,2112396376
91,17,16,Jits_ISO_5,72,9999,9999,9999,2112896108
91,17,16,Jits_ISO_5,73,9999,9999,9999,2113396812
91,17,16,Jits_ISO_5,74,9999,9999,9999,2113896548
91,17,16,Jits_ISO_5,75,9999,9999,9999,2114396276
91,17,16,Jits_ISO_5,76,9999,9999,9999,2114896984
91,17,16,Jits_ISO_5,77,9999,9999,9999,2115396716
91,17,16,Jits_ISO_5,78,9999,9999,9999,2115896376
91,17,16,Jits_ISO_5,79,9999,9999,9999,2116396112
91,17,16,Jits_ISO_5,80,9999,9999,9999,2116896820
91,17,16,Jits_ISO_5,81,9999,9999,9999,2117396556
91,17,16,Jits_ISO_5,82,9999,9999,9999,2117896284
91,17,16,Jits_ISO_5,83,9999,9999,9999,2118397040
91,17,16,Jits_ISO_5,84,9999,9999,9999,2118896704
91,17,16,Jits_ISO_5,85,9999,9999,9999,2119396428
91,17,16,Jits_ISO_5,86,9999,9999,9999,2119896160
91,17,16,Jits_ISO_5,87,9999,9999,9999,2120396880
91,17,16,Jits_ISO_5,88,9999,9999,9999,2120896612
91,17,16,Jits_ISO_5,89,9999,9999,9999,2121396344
91,17,16,Jits_ISO_5,90,9999,9999,9999,2121897048
91,17,16,Jits_ISO_5,91,9999,9999,9999,2122396776
91,17,16,Jits_ISO_5,92,9999,9999,9999,2122896500
91,17,16,Jits_ISO_5,93,9999,9999,9999,2123396156
91,17,16,Jits_ISO_5,94,9999,9999,9999,2123896936
91,17,16,Jits_ISO_5,95,9999,9999,9999,2124396596
91,17,16,Jits_ISO_5,96,9999,9999,9999,2124896328
91,17,16,Jits_ISO_5,97,9999,9999,9999,2125397108
91,17,16,Jits_ISO_5,98,9999,9999,9999,2125896760
91,17,16,Jits_ISO_5,99,9999,9999,9999,2126396492
91,17,16,Jits_ISO_5,100,9999,9999,9999,2126896200
91,17,16,Jits_ISO_5,101,9999,9999,9999,2127396984
91,17,16,Jits_ISO_5,102,9999,9999,9999,2127896632
91,17,16,Jits_ISO_5,103,9999,9999,9999,2128396368
91,17,16,Jits_ISO_5,104,9999,9999,9999,2128896072
91,17,16,Jits_ISO_5,105,9999,9999,9999,2129396844
91,17,16,Jits_ISO_5,106,9999,9999,9999,2129896552
91,17,16,Jits_ISO_5,107,9999,9999,9999,2130396212
91,17,16,Jits_ISO_5,108,9999,9999,9999,2130896984
91,17,16,Jits_ISO_5,109,9999,9999,9999,2131396716
91,17,16,Jits_ISO_5,110,9999,9999,9999,2131896376
91,17,16,Jits_ISO_5,111,9999,9999,9999,2132396108
91,17,16,Jits_ISO_5,112,9999,9999,9999,2132896884
91,17,16,Jits_ISO_5,113,9999,9999,9999,2133396544
91,17,16,Jits_ISO_5,114,9999,9999,9999,2133896272
91,17,16,Jits_ISO_5,115,9999,9999,9999,2134397044
91,17,16,Jits_ISO_5,116,9999,9999,9999,2134896704
91,17,16,Jits_ISO_5,117,9999,9999,9999,2135396436
91,17,16,Jits_ISO_5,118,9999,9999,9999,2135896184
91,17,16,Jits_ISO_5,119,9999,9999,9999,2136396884
91,18,18,Jits_Linear_8,0,5,56,103,2146544176
91,18,18,Jits_Linear_8,1,5,63,98,2146547276
91,18,18,Jits_Linear_8,2,5,80,127,2146550392
91,18,18,Jits_Linear_8,0,5,56,103,2147364136
91,18,18,Jits_Linear_8,1,5,63,98,2147367460
91,18,18,Jits_Linear_8,2,5,80,127,2147370504
91,18,18,Jits_Linear_8,3,1,48,52,2147397832
91,18,18,Jits_Linear_8,4,1,48,28,2147465460
91,18,18,Jits_Linear_8,0,5,80,127,2148124160
91,18,18,Jits_Linear_8,1,1,48,43,2148178004
91,18,18,Jits_Linear_8,2,5,63,98,2148214072
91,18,18,Jits_Linear_8,3,5,56,103,2148224340
91,18,18,Jits_Linear_8,0,1,48,43,2148930932
91,18,18,Jits_Linear_8,1,5,56,103,2148963636
91,18,18,Jits_Linear_8,2,5,63,98,2148974128
91,18,18,Jits_Linear_8,3,5,80,127,2149064024
91,18,18,Jits_Linear_8,0,1,48,39,2149736464
91,18,18,Jits_Linear_8,1,5,63,98,2149754248
91,18,18,Jits_Linear_8,2,5,80,127,2149784144
91,18,18,Jits_Linear_8,3,5,56,103,2149813748
91,18,18,Jits_Linear_8,0,1,48,46,2150537260
91,18,18,Jits_Linear_8,1,5,56,103,2150573472
91,18,18,Jits_Linear_8,2,5,80,127,2150673956
91,18,18,Jits_Linear_8,3,5,63,98,2150724088
91,18,18,Jits_Linear_8,0,1,48,46,2151361204
91,18,18,Jits_Linear_8,1,5,56,103,2151384316
91,18,18,Jits_Linear_8,2,5,80,127,2151433796
91,18,18,Jits_Linear_8,3,5,63,98,2151473420
91,18,18,Jits_Linear_8,0,1,48,51,2152145600
91,18,18,Jits_Linear_8,1,5,80,127,2152224100
91,18,18,Jits_Linear_8,2,5,63,98,2152253908
91,18,18,Jits_Linear_8,3,5,56,103,2152323592
91,18,18,Jits_Linear_8,0,1,48,47,2152948872
91,18,18,Jits_Linear_8,1,5,63,98,2153063920
91,18,18,Jits_Linear_8,2,5,56,103,2153093372
91,18,18,Jits_Linear_8,3,5,80,127,2153153988
91,18,18,Jits_Linear_8,0,1,48,51,2153760552
91,18,18,Jits_Linear_8,1,5,56,103,2153814384
91,18,18,Jits_Linear_8,2,5,80,127,2153817524
91,18,18,Jits_Linear_8,3,5,63,98,2153934096
91,18,18,Jits_Linear_8,0,1,48,48,2154619560
91,18,18,Jits_Linear_8,1,5,56,103,2154704332
91,18,18,Jits_Linear_8,2,5,80,127,2154744112
91,18,18,Jits_Linear_8,3,5,63,98,2154754460
91,18,18,Jits_Linear_8,0,1,48,48,2155455440
91,18,18,Jits_Linear_8,1,5,56,103,2155463936
91,18,18,Jits_Linear_8,2,5,80,127,2155483572
91,18,18,Jits_Linear_8,3,5,63,98,2155564352
91,18,18,Jits_Linear_8,0,1,48,49,2156240728
91,18,18,Jits_Linear_8,1,5,80,127,2156253652
91,18,18,Jits_Linear_8,2,5,56,103,2156354064
91,18,18,Jits_Linear_8,3,5,63,98,2156364112
91,18,18,Jits_Linear_8,0,5,63,98,2157023744
91,18,18,Jits_Linear_8,1,1,48,50,2157057952
91,18,18,Jits_Linear_8,2,5,80,127,2157084080
91,18,18,Jits_Linear_8,3,5,56,103,2157094204
91,18,18,Jits_Linear_8,0,1,48,44,2157803012
91,18,18,Jits_Linear_8,1,5,56,103,2157824388
91,18,18,Jits_Linear_8,2,5,63,98,2157893864
91,18,18,Jits_Linear_8,3,5,80,127,2157897160
91,18,18,Jits_Linear_8,0,1,48,44,2158598724
91,18,18,Jits_Linear_8,1,5,63,98,2158653900
91,18,18,Jits_Linear_8,2,5,56,103,2158703936
91,18,18,Jits_Linear_8,3,5,80,127,2158706932
91,18,18,Jits_Linear_8,0,1,48,38,2159367148
91,18,18,Jits_Linear_8,1,5,56,103,2159404564
91,18,18,Jits_Linear_8,2,5,80,127,2159407408
91,18,18,Jits_Linear_8,3,5,63,98,2159493488
91,18,18,Jits_Linear_8,0,1,48,37,2160181804
91,18,18,Jits_Linear_8,1,5,63,98,2160234048
91,18,18,Jits_Linear_8,2,5,56,103,2160324096
91,18,18,Jits_Linear_8,3,5,80,127,2160353768
91,18,18,Jits_Linear_8,0,5,56,103,2161024368
91,18,18,Jits_Linear_8,1,1,48,40,2161045996
91,18,18,Jits_Linear_8,2,5,63,98,2161123940
91,18,18,Jits_Linear_8,3,5,80,127,2161154500
91,18,18,Jits_Linear_8,0,5,63,98,2161834480
91,18,18,Jits_Linear_8,1,5,56,103,2161843632
91,18,18,Jits_Linear_8,2,1,48,31,2161846752
91,18,18,Jits_Linear_8,3,5,80,127,2161933856
91,18,18,Jits_Linear_8,0,1,48,43,2162579880
91,18,18,Jits_Linear_8,1,5,63,98,2162634156
91,18,18,Jits_Linear_8,2,5,56,103,2162713884
91,18,18,Jits_Linear_8,3,5,80,127,2162716956
91,18,18,Jits_Linear_8,0,1,48,36,2163359476
91,18,18,Jits_Linear_8,1,5,80,127,2163373672
91,18,18,Jits_Linear_8,2,5,63,98,2163393832
91,18,18,Jits_Linear_8,3,5,56,103,2163454284
91,18,18,Jits_Linear_8,0,1,48,43,2164125668
91,18,18,Jits_Linear_8,1,5,56,103,2164193876
91,18,18,Jits_Linear_8,2,5,63,98,2164214036
91,18,18,Jits_Linear_8,3,5,80,127,2164217328
91,18,18,Jits_Linear_8,0,5,63,98,2164913464
91,18,18,Jits_Linear_8,1,1,48,39,2164920624
91,18,18,Jits_Linear_8,2,5,80,127,2164994600
91,18,18,Jits_Linear_8,3,5,56,103,2165003776
91,18,18,Jits_Linear_8,0,1,48,44,2165669492
91,18,18,Jits_Linear_8,1,5,63,98,2165714408
91,18,18,Jits_Linear_8,2,5,56,103,2165733672
91,18,18,Jits_Linear_8,3,5,80,127,2165783884
91,18,18,Jits_Linear_8,0,1,48,40,2166455920
91,18,18,Jits_Linear_8,1,5,80,127,2166493856
91,18,18,Jits_Linear_8,2,5,63,98,2166533600
91,18,18,Jits_Linear_8,3,5,56,103,2166553896
91,18,18,Jits_Linear_8,0,1,48,42,2167230496
91,18,18,Jits_Linear_8,1,5,56,103,2167303680
91,18,18,Jits_Linear_8,2,5,63,98,2167313876
91,18,18,Jits_Linear_8,3,5,80,127,2167334392
91,18,18,Jits_Linear_8,0,5,56,103,2168003920
91,18,18,Jits_Linear_8,1,1,48,33,2168055964
91,18,18,Jits_Linear_8,2,5,63,98,2168093924
91,18,18,Jits_Linear_8,3,5,80,127,2168153548
91,18,18,Jits_Linear_8,0,5,80,127,2168803840
91,18,18,Jits_Linear_8,1,5,56,103,2168813888
91,18,18,Jits_Linear_8,2,1,48,43,2168841464
91,18,18,Jits_Linear_8,3,5,63,98,2168883808
91,18,18,Jits_Linear_8,0,1,48,46,2169572184
91,18,18,Jits_Linear_8,1,5,63,98,2169603376
91,18,18,Jits_Linear_8,2,5,80,127,2169693820
91,18,18,Jits_Linear_8,3,5,56,103,2169703868
91,18,18,Jits_Linear_8,0,5,63,98,2170303796
91,18,18,Jits_Linear_8,1,5,80,127,2170354148
91,18,18,Jits_Linear_8,2,1,48,43,2170375204
91,18,18,Jits_Linear_8,3,5,56,103,2170413512
91,18,18,Jits_Linear_8,0,5,56,103,2171094560
91,18,18,Jits_Linear_8,1,1,48,43,2171112296
91,18,18,Jits_Linear_8,2,5,80,127,2171143736
91,18,18,Jits_Linear_8,3,5,63,98,2171164044
91,18,18,Jits_Linear_8,0,5,56,103,2171823752
91,18,18,Jits_Linear_8,1,1,48,40,2171883700
91,18,18,Jits_Linear_8,2,5,80,127,2171885112
91,18,18,Jits_Linear_8,3,5,63,98,2171953768
91,18,18,Jits_Linear_8,0,5,56,103,2172584336
91,18,18,Jits_Linear_8,1,5,80,127,2172613864
91,18,18,Jits_Linear_8,2,5,63,98,2172643688
91,18,18,Jits_Linear_8,3,1,48,46,2172649048
91,18,18,Jits_Linear_8,0,5,56,103,2173384028
91,18,18,Jits_Linear_8,1,5,80,127,2173403664
91,18,18,Jits_Linear_8,2,1,48,51,2173421924
91,18,18,Jits_Linear_8,3,5,63,98,2173463772
91,18,18,Jits_Linear_8,0,1,48,43,2174222856
91,18,18,Jits_Linear_8,1,5,80,127,2174224272
91,18,18,Jits_Linear_8,2,5,56,103,2174234024
91,18,18,Jits_Linear_8,3,5,63,98,2174244144
91,18,18,Jits_Linear_8,0,5,56,103,2174934488
91,18,18,Jits_Linear_8,1,5,80,127,2174974428
91,18,18,Jits_Linear_8,2,1,48,49,2174978076
91,18,18,Jits_Linear_8,3,5,63,98,2175003900
91,18,18,Jits_Linear_8,0,5,56,103,2175654248
91,18,18,Jits_Linear_8,1,5,63,98,2175683928
91,18,18,Jits_Linear_8,2,5,80,127,2175723868
91,18,18,Jits_Linear_8,3,1,48,51,2175731396
91,18,18,Jits_Linear_8,0,5,80,127,2176353704
91,18,18,Jits_Linear_8,1,5,63,98,2176403832
91,18,18,Jits_Linear_8,2,5,56,103,2176424292
91,18,18,Jits_Linear_8,3,1,48,45,2176439916
91,18,18,Jits_Linear_8,0,1,48,53,2177094848
91,18,18,Jits_Linear_8,1,5,56,103,2177133832
91,18,18,Jits_Linear_8,2,5,80,127,2177203800
91,18,18,Jits_Linear_8,3,5,63,98,2177264116
91,18,18,Jits_Linear_8,0,5,80,127,2177874480
91,18,18,Jits_Linear_8,1,1,48,42,2177884124
91,18,18,Jits_Linear_8,2,5,63,98,2177964464
91,18,18,Jits_Linear_8,3,5,56,103,2177984536
91,18,18,Jits_Linear_8,0,5,63,98,2178634172
91,18,18,Jits_Linear_8,1,1,48,48,2178646956
91,18,18,Jits_Linear_8,2,5,56,103,2178653652
91,18,18,Jits_Linear_8,3,5,80,127,2178693592
91,18,18,Jits_Linear_8,0,5,80,127,2179333684
91,18,18,Jits_Linear_8,1,1,48,55,2179349384
91,18,18,Jits_Linear_8,2,5,63,98,2179353912
91,18,18,Jits_Linear_8,3,5,56,103,2179433708
91,18,18,Jits_Linear_8,0,5,63,98,2180063596
91,18,18,Jits_Linear_8,1,1,48,49,2180083132
91,18,18,Jits_Linear_8,2,5,56,103,2180174276
91,18,18,Jits_Linear_8,3,5,80,127,2180177416
91,18,18,Jits_Linear_8,0,1,48,48,2180810780
91,18,18,Jits_Linear_8,1,5,63,98,2180824524
91,18,18,Jits_Linear_8,2,5,56,103,2180833748
91,18,18,Jits_Linear_8,3,5,80,127,2180836812
91,18,18,Jits_Linear_8,0,1,48,42,2181523996
91,18,18,Jits_Linear_8,1,5,56,103,2181544472
91,18,18,Jits_Linear_8,2,5,80,127,2181664064
91,18,18,Jits_Linear_8,3,5,63,98,2181703928
91,18,18,Jits_Linear_8,0,1,48,47,2182249872
91,18,18,Jits_Linear_8,1,5,56,103,2182293884
91,18,18,Jits_Linear_8,2,5,80,127,2182373744
91,18,18,Jits_Linear_8,3,5,63,98,2182394200
91,18,18,Jits_Linear_8,0,1,48,52,2182973892
91,18,18,Jits_Linear_8,1,5,56,103,2183023888
91,18,18,Jits_Linear_8,2,5,63,98,2183133564
91,18,18,Jits_Linear_8,3,5,80,127,2183136852
91,18,18,Jits_Linear_8,0,1,48,52,2183727488
91,18,18,Jits_Linear_8,1,5,56,103,2183783784
91,18,18,Jits_Linear_8,2,5,80,127,2183813460
91,18,18,Jits_Linear_8,3,5,63,98,2183833904
91,18,18,Jits_Linear_8,0,1,48,48,2184473304
91,18,18,Jits_Linear_8,1,5,63,98,2184493556
91,18,18,Jits_Linear_8,2,5,56,103,2184503752
91,18,18,Jits_Linear_8,3,5,80,127,2184513948
91,18,18,Jits_Linear_8,0,1,48,48,2185192040
91,18,18,Jits_Linear_8,1,5,80,127,2185204196
91,18,18,Jits_Linear_8,2,5,56,103,2185254428
91,18,18,Jits_Linear_8,3,5,63,98,2185294276
91,18,18,Jits_Linear_8,0,1,48,54,2185871548
91,18,18,Jits_Linear_8,1,5,80,127,2185944612
91,18,18,Jits_Linear_8,2,5,63,98,2185963880
91,18,18,Jits_Linear_8,3,5,56,103,2186014164
91,18,18,Jits_Linear_8,0,1,48,53,2186625220
91,18,18,Jits_Linear_8,1,5,80,127,2186673496
91,18,18,Jits_Linear_8,2,5,56,103,2186704368
91,18,18,Jits_Linear_8,3,5,63,98,2186773836
91,18,18,Jits_Linear_8,0,1,48,53,2187383620
91,18,18,Jits_Linear_8,1,5,56,103,2187443584
91,18,18,Jits_Linear_8,2,5,80,127,2187453784
91,18,18,Jits_Linear_8,3,5,63,98,2187493708
91,18,18,Jits_Linear_8,0,5,56,103,2188074476
91,18,18,Jits_Linear_8,1,5,63,98,2188093740
91,18,18,Jits_Linear_8,2,1,48,51,2188111680
91,18,18,Jits_Linear_8,3,5,80,127,2188163564
91,18,18,Jits_Linear_8,0,1,48,54,2188772748
91,18,18,Jits_Linear_8,1,5,63,98,2188813628
91,18,18,Jits_Linear_8,2,5,80,127,2188874376
91,18,18,Jits_Linear_8,3,5,56,103,2188893416
91,18,18,Jits_Linear_8,0,1,48,50,2189489776
91,18,18,Jits_Linear_8,1,5,80,127,2189524424
91,18,18,Jits_Linear_8,2,5,56,103,2189554400
91,18,18,Jits_Linear_8,3,5,63,98,2189583728
91,18,18,Jits_Linear_8,0,1,48,55,2190187868
91,18,18,Jits_Linear_8,1,5,56,103,2190233976
91,18,18,Jits_Linear_8,2,5,63,98,2190294428
91,18,18,Jits_Linear_8,3,5,80,127,2190353724
91,18,18,Jits_Linear_8,0,1,48,52,2190931804
91,18,18,Jits_Linear_8,1,5,80,127,2190964208
91,18,18,Jits_Linear_8,2,5,56,103,2190983472
91,18,18,Jits_Linear_8,3,5,63,98,2191054480
91,18,18,Jits_Linear_8,0,1,48,51,2191666544
91,18,18,Jits_Linear_8,1,5,80,127,2191673688
91,18,18,Jits_Linear_8,2,5,63,98,2191694444
91,18,18,Jits_Linear_8,3,5,56,103,2191723896
91,18,18,Jits_Linear_8,0,1,48,50,2192354264
91,18,18,Jits_Linear_8,1,5,80,127,2192364032
91,18,18,Jits_Linear_8,2,5,63,98,2192384492
91,18,18,Jits_Linear_8,3,5,56,103,2192443784
91,18,18,Jits_Linear_8,0,1,48,45,2193064444
91,18,18,Jits_Linear_8,1,5,80,127,2193065780
91,18,18,Jits_Linear_8,2,5,56,103,2193163652
91,18,18,Jits_Linear_8,3,5,63,98,2193194448
91,18,18,Jits_Linear_8,0,5,63,98,2193753476
91,18,18,Jits_Linear_8,1,1,48,53,2193774572
91,18,18,Jits_Linear_8,2,5,80,127,2193803744
91,18,18,Jits_Linear_8,3,5,56,103,2193824280
91,18,18,Jits_Linear_8,0,1,48,51,2194464340
91,18,18,Jits_Linear_8,1,5,80,127,2194493736
91,18,18,Jits_Linear_8,2,5,56,103,2194523560
91,18,18,Jits_Linear_8,3,5,63,98,2194526628
91,18,18,Jits_Linear_8,0,1,48,54,2195160660
91,18,18,Jits_Linear_8,1,5,63,98,2195224032
91,18,18,Jits_Linear_8,2,5,56,103,2195263808
91,18,18,Jits_Linear_8,3,5,80,127,2195284268
91,18,18,Jits_Linear_8,0,5,80,127,2195863972
91,18,18,Jits_Linear_8,1,1,48,50,2195889264
91,18,18,Jits_Linear_8,2,5,63,98,2195943836
91,18,18,Jits_Linear_8,3,5,56,103,2195984304
91,18,18,Jits_Linear_8,0,5,63,98,2196573544
91,18,18,Jits_Linear_8,1,1,48,47,2196577708
91,18,18,Jits_Linear_8,2,5,80,127,2196653408
91,18,18,Jits_Linear_8,3,5,56,103,2196673868
91,18,18,Jits_Linear_8,0,1,48,48,2197290548
91,18,18,Jits_Linear_8,1,5,56,103,2197303548
91,18,18,Jits_Linear_8,2,5,63,98,2197314040
91,18,18,Jits_Linear_8,3,5,80,127,2197353756
91,18,18,Jits_Linear_8,0,5,56,103,2197914184
91,18,18,Jits_Linear_8,1,5,80,127,2197917100
91,18,18,Jits_Linear_8,2,1,48,44,2197992300
91,18,18,Jits_Linear_8,3,5,63,98,2198054380
91,18,18,Jits_Linear_8,0,5,56,103,2198604256
91,18,18,Jits_Linear_8,1,1,48,47,2198635248
91,18,18,Jits_Linear_8,2,5,63,98,2198694384
91,18,18,Jits_Linear_8,3,5,80,127,2198763756
91,18,18,Jits_Linear_8,0,1,48,47,2199288664
91,18,18,Jits_Linear_8,1,5,63,98,2199364020
91,18,18,Jits_Linear_8,2,5,80,127,2199367236
91,18,18,Jits_Linear_8,3,5,56,103,2199424244
91,18,18,Jits_Linear_8,0,1,48,40,2199990268
91,18,18,Jits_Linear_8,1,5,80,127,2200083744
91,18,18,Jits_Linear_8,2,5,56,103,2200104280
91,18,18,Jits_Linear_8,3,5,63,98,2200113428
91,18,18,Jits_Linear_8,0,5,56,103,2200673576
91,18,18,Jits_Linear_8,1,5,63,98,2200683920
91,18,18,Jits_Linear_8,2,1,48,46,2200690108
91,18,18,Jits_Linear_8,3,5,80,127,2200753600
91,18,18,Jits_Linear_8,0,1,48,49,2201313860
91,18,18,Jits_Linear_8,1,5,80,127,2201353468
91,18,18,Jits_Linear_8,2,5,56,103,2201403676
91,18,18,Jits_Linear_8,3,5,63,98,2201454232
91,18,18,Jits_Linear_8,0,1,48,43,2202021380
91,18,18,Jits_Linear_8,1,5,56,103,2202114472
91,18,18,Jits_Linear_8,2,5,63,98,2202123628
91,18,18,Jits_Linear_8,3,5,80,127,2202163568
91,18,18,Jits_Linear_8,0,1,48,52,2202711180
91,18,18,Jits_Linear_8,1,5,56,103,2202733896
91,18,18,Jits_Linear_8,2,5,63,98,2202773836
91,18,18,Jits_Linear_8,3,5,80,127,2202824248
91,18,18,Jits_Linear_8,0,1,48,50,2203362512
91,18,18,Jits_Linear_8,1,5,80,127,2203364156
91,18,18,Jits_Linear_8,2,5,56,103,2203414012
91,18,18,Jits_Linear_8,3,5,63,98,2203434324
91,18,18,Jits_Linear_8,0,1,48,46,2204004228
91,18,18,Jits_Linear_8,1,5,80,127,2204043740
91,18,18,Jits_Linear_8,2,5,63,98,2204104040
91,18,18,Jits_Linear_8,3,5,56,103,2204184012
91,18,18,Jits_Linear_8,0,1,48,48,2204674204
91,18,18,Jits_Linear_8,1,5,80,127,2204693804
91,18,18,Jits_Linear_8,2,5,56,103,2204733896
91,18,18,Jits_Linear_8,3,5,63,98,2204754352
91,18,18,Jits_Linear_8,0,1,48,49,2205347184
91,18,18,Jits_Linear_8,1,5,56,103,2205413668
91,18,18,Jits_Linear_8,2,5,80,127,2205424088
91,18,18,Jits_Linear_8,3,5,63,98,2205464188
91,18,18,Jits_Linear_8,0,1,48,50,2206035240
91,18,18,Jits_Linear_8,1,5,56,103,2206143740
91,18,18,Jits_Linear_8,2,5,63,98,2206183672
91,18,18,Jits_Linear_8,3,5,80,127,2206187044
91,18,18,Jits_Linear_8,0,5,63,98,2206693628
91,18,18,Jits_Linear_8,1,5,80,127,2206733668
91,18,18,Jits_Linear_8,2,1,48,51,2206745632
91,18,18,Jits_Linear_8,3,5,56,103,2206804316
91,18,18,Jits_Linear_8,0,5,63,98,2207344140
91,18,18,Jits_Linear_8,1,1,48,36,2207411156
91,18,18,Jits_Linear_8,2,5,56,103,2207423708
91,18,18,Jits_Linear_8,3,5,80,127,2207484392
91,18,18,Jits_Linear_8,0,5,80,127,2208013608
91,18,18,Jits_Linear_8,1,1,48,49,2208047296
91,18,18,Jits_Linear_8,2,5,63,98,2208063956
91,18,18,Jits_Linear_8,3,5,56,103,2208093484
91,18,18,Jits_Linear_8,0,5,56,103,2208664180
91,18,18,Jits_Linear_8,1,1,48,53,2208685136
91,18,18,Jits_Linear_8,2,5,63,98,2208714304
91,18,18,Jits_Linear_8,3,5,80,127,2208724276
91,18,18,Jits_Linear_8,0,1,48,45,2209321108
91,18,18,Jits_Linear_8,1,5,56,103,2209333656
91,18,18,Jits_Linear_8,2,5,63,98,2209444080
91,18,18,Jits_Linear_8,3,5,80,127,2209463640
91,18,18,Jits_Linear_8,0,1,48,50,2209956924
91,18,18,Jits_Linear_8,1,5,63,98,2209984072
91,18,18,Jits_Linear_8,2,5,80,127,2210034272
91,18,18,Jits_Linear_8,3,5,56,103,2210124116
91,18,18,Jits_Linear_8,0,5,63,98,2210623800
91,18,18,Jits_Linear_8,1,1,48,46,2210635460
91,18,18,Jits_Linear_8,2,5,80,127,2210653548
91,18,18,Jits_Linear_8,3,5,56,103,2210743592
91,18,18,Jits_Linear_8,0,1,48,54,2211267136
91,18,18,Jits_Linear_8,1,5,63,98,2211274208
91,18,18,Jits_Linear_8,2,5,56,103,2211284404
91,18,18,Jits_Linear_8,3,5,80,127,2211383616
91,18,18,Jits_Linear_8,0,1,48,52,2211899136
91,18,18,Jits_Linear_8,1,5,63,98,2212023604
91,18,18,Jits_Linear_8,2,5,80,127,2212054328
91,18,18,Jits_Linear_8,3,5,56,103,2212084224
91,18,18,Jits_Linear_8,0,1,48,50,2212626088
91,18,18,Jits_Linear_8,1,5,80,127,2212684180
91,18,18,Jits_Linear_8,2,5,63,98,2212694304
91,18,18,Jits_Linear_8,3,5,56,103,2212724260
91,18,18,Jits_Linear_8,0,5,80,127,2213223724
91,18,18,Jits_Linear_8,1,5,63,98,2213244260
91,18,18,Jits_Linear_8,2,5,56,103,2213293488
91,18,18,Jits_Linear_8,3,1,48,44,2213308964
91,18,18,Jits_Linear_8,0,5,63,98,2213893432
91,18,18,Jits_Linear_8,1,1,48,51,2213902100
91,18,18,Jits_Linear_8,2,5,80,127,2213953964
91,18,18,Jits_Linear_8,3,5,56,103,2213974276
91,18,18,Jits_Linear_8,0,5,63,98,2214493572
91,18,18,Jits_Linear_8,1,1,48,48,2214536024
91,18,18,Jits_Linear_8,2,5,56,103,2214543768
91,18,18,Jits_Linear_8,3,5,80,127,2214554264
91,18,18,Jits_Linear_8,0,1,48,54,2215122896
91,18,18,Jits_Linear_8,1,5,56,103,2215164280
91,18,18,Jits_Linear_8,2,5,80,127,2215173456
91,18,18,Jits_Linear_8,3,5,63,98,2215273912
91,18,18,Jits_Linear_8,0,5,80,127,2215764232
91,18,18,Jits_Linear_8,1,5,63,98,2215773456
91,18,18,Jits_Linear_8,2,1,48,53,2215783772
91,18,18,Jits_Linear_8,3,5,56,103,2215924248
91,18,18,Jits_Linear_8,0,1,48,46,2216387804
91,18,18,Jits_Linear_8,1,5,63,98,2216404316
91,18,18,Jits_Linear_8,2,5,80,127,2216444256
91,18,18,Jits_Linear_8,3,5,56,103,2216524060
91,18,18,Jits_Linear_8,0,1,48,51,2217012552
91,18,18,Jits_Linear_8,1,5,56,103,2217023960
91,18,18,Jits_Linear_8,2,5,80,127,2217124196
91,18,18,Jits_Linear_8,3,5,63,98,2217143756
91,18,18,Jits_Linear_8,0,1,48,48,2217655692
91,18,18,Jits_Linear_8,1,5,80,127,2217713936
91,18,18,Jits_Linear_8,2,5,56,103,2217724284
91,18,18,Jits_Linear_8,3,5,63,98,2217814276
91,18,18,Jits_Linear_8,0,1,48,52,2218305544
91,18,18,Jits_Linear_8,1,5,56,103,2218343928
91,18,18,Jits_Linear_8,2,5,63,98,2218364240
91,18,18,Jits_Linear_8,3,5,80,127,2218444020
91,18,18,Jits_Linear_8,0,5,63,98,2218914116
91,18,18,Jits_Linear_8,1,1,48,48,2218923536
91,18,18,Jits_Linear_8,2,5,56,103,2219004316
91,18,18,Jits_Linear_8,3,5,80,127,2219007532
91,18,18,Jits_Linear_8,0,1,48,49,2219508816
91,18,18,Jits_Linear_8,1,5,56,103,2219564464
91,18,18,Jits_Linear_8,2,5,80,127,2219623872
91,18,18,Jits_Linear_8,3,5,63,98,2219634140
91,18,18,Jits_Linear_8,0,1,48,52,2220161820
91,18,18,Jits_Linear_8,1,5,80,127,2220234068
91,18,18,Jits_Linear_8,2,5,56,103,2220244336
91,18,18,Jits_Linear_8,3,5,63,98,2220247404
91,18,18,Jits_Linear_8,0,5,56,103,2220813780
91,18,18,Jits_Linear_8,1,1,48,44,2220823148
91,18,18,Jits_Linear_8,2,5,80,127,2220824564
91,18,18,Jits_Linear_8,3,5,63,98,2220844428
91,18,18,Jits_Linear_8,0,5,63,98,2221403372
91,18,18,Jits_Linear_8,1,1,48,46,2221420944
91,18,18,Jits_Linear_8,2,5,80,127,2221463908
91,18,18,Jits_Linear_8,3,5,56,103,2221514108
91,18,18,Jits_Linear_8,0,1,48,53,2221996888
91,18,18,Jits_Linear_8,1,5,63,98,2222104140
91,18,18,Jits_Linear_8,2,5,56,103,2222114192
91,18,18,Jits_Linear_8,3,5,80,127,2222164316
91,18,18,Jits_Linear_8,0,5,63,98,2222614108
91,18,18,Jits_Linear_8,1,5,80,127,2222634272
91,18,18,Jits_Linear_8,2,1,48,50,2222637912
91,18,18,Jits_Linear_8,3,5,56,103,2222643564
91,18,18,Jits_Linear_8,0,1,48,48,2223206720
91,18,18,Jits_Linear_8,1,5,63,98,2223224204
91,18,18,Jits_Linear_8,2,5,80,127,2223227492
91,18,18,Jits_Linear_8,3,5,56,103,2223264068
91,18,18,Jits_Linear_8,0,1,48,46,2223795008
91,18,18,Jits_Linear_8,1,5,63,98,2223903984
91,18,18,Jits_Linear_8,2,5,80,127,2223934032
91,18,18,Jits_Linear_8,3,5,56,103,2223944004
91,18,18,Jits_Linear_8,0,1,48,50,2224427472
91,18,18,Jits_Linear_8,1,5,56,103,2224464288
91,18,18,Jits_Linear_8,2,5,80,127,2224494036
91,18,18,Jits_Linear_8,3,5,63,98,2224523568
91,18,18,Jits_Linear_8,0,1,48,49,2225022900
91,18,18,Jits_Linear_8,1,5,63,98,2225163716
91,18,18,Jits_Linear_8,2,5,56,103,2225203656
91,18,18,Jits_Linear_8,3,5,80,127,2225206572
91,18,18,Jits_Linear_8,0,5,80,127,2225664508
91,18,18,Jits_Linear_8,1,1,48,51,2225695228
91,18,18,Jits_Linear_8,2,5,56,103,2225744176
91,18,18,Jits_Linear_8,3,5,63,98,2225794436
91,18,18,Jits_Linear_8,0,5,80,127,2226243940
91,18,18,Jits_Linear_8,1,5,56,103,2226264476
91,18,18,Jits_Linear_8,2,1,48,47,2226288344
91,18,18,Jits_Linear_8,3,5,63,98,2226353704
91,18,18,Jits_Linear_8,0,1,48,53,2226868408
91,18,18,Jits_Linear_8,1,5,80,127,2226883872
91,18,18,Jits_Linear_8,2,5,63,98,2226924036
91,18,18,Jits_Linear_8,3,5,56,103,2226963836
91,18,18,Jits_Linear_8,0,5,63,98,2227454280
91,18,18,Jits_Linear_8,1,1,48,52,2227466640
91,18,18,Jits_Linear_8,2,5,80,127,2227513792
91,18,18,Jits_Linear_8,3,5,56,103,2227544292
91,18,18,Jits_Linear_8,0,5,56,103,2228054372
91,18,18,Jits_Linear_8,1,1,48,50,2228058984
91,18,18,Jits_Linear_8,2,5,80,127,2228084116
91,18,18,Jits_Linear_8,3,5,63,98,2228174308
91,18,18,Jits_Linear_8,0,1,48,49,2228649400
91,18,18,Jits_Linear_8,1,5,56,103,2228653404
91,18,18,Jits_Linear_8,2,5,80,127,2228764004
91,18,18,Jits_Linear_8,3,5,63,98,2228793828
91,18,18,Jits_Linear_8,0,1,48,49,2229258564
91,18,18,Jits_Linear_8,1,5,56,103,2229293364
91,18,18,Jits_Linear_8,2,5,63,98,2229353828
91,18,18,Jits_Linear_8,3,5,80,127,2229383640
91,18,18,Jits_Linear_8,0,5,56,103,2229853732
91,18,18,Jits_Linear_8,1,1,48,50,2229871152
91,18,18,Jits_Linear_8,2,5,63,98,2229924084
91,18,18,Jits_Linear_8,3,5,80,127,2229943944
91,18,18,Jits_Linear_8,0,5,80,127,2230413660
91,18,18,Jits_Linear_8,1,5,63,98,2230434196
91,18,18,Jits_Linear_8,2,1,48,44,2230478740
91,18,18,Jits_Linear_8,3,5,56,103,2230484316
91,18,18,Jits_Linear_8,0,5,63,98,2231014040
91,18,18,Jits_Linear_8,1,5,80,127,2231023864
91,18,18,Jits_Linear_8,2,1,48,49,2231061852
91,18,18,Jits_Linear_8,3,5,56,103,2231074084
91,18,18,Jits_Linear_8,0,5,63,98,2231594204
91,18,18,Jits_Linear_8,1,1,48,54,2231606236
91,18,18,Jits_Linear_8,2,5,80,127,2231663956
91,18,18,Jits_Linear_8,3,5,56,103,2231683516
91,18,18,Jits_Linear_8,0,1,48,42,2232197684
91,18,18,Jits_Linear_8,1,5,63,98,2232203708
91,18,18,Jits_Linear_8,2,5,80,127,2232207072
91,18,18,Jits_Linear_8,3,5,56,103,2232274212
91,18,18,Jits_Linear_8,0,5,80,127,2232734176
91,18,18,Jits_Linear_8,1,5,56,103,2232753736
91,18,18,Jits_Linear_8,2,5,63,98,2232763932
91,18,18,Jits_Linear_8,3,1,48,49,2232778812
91,18,18,Jits_Linear_8,0,1,48,48,2233330536
91,18,18,Jits_Linear_8,1,5,56,103,2233334172
91,18,18,Jits_Linear_8,2,5,63,98,2233424180
91,18,18,Jits_Linear_8,3,5,80,127,2233428352
91,18,18,Jits_Linear_8,0,5,80,127,2233883996
91,18,18,Jits_Linear_8,1,5,56,103,2233894116
91,18,18,Jits_Linear_8,2,5,63,98,2233913900
91,18,18,Jits_Linear_8,3,1,48,53,2233920160
91,18,18,Jits_Linear_8,0,5,63,98,2234454252
91,18,18,Jits_Linear_8,1,1,48,46,2234462552
91,18,18,Jits_Linear_8,2,5,80,127,2234513888
91,18,18,Jits_Linear_8,3,5,56,103,2234524012
91,18,18,Jits_Linear_8,0,1,48,43,2235018092
91,18,18,Jits_Linear_8,1,5,63,98,2235094324
91,18,18,Jits_Linear_8,2,5,80,127,2235124056
91,18,18,Jits_Linear_8,3,5,56,103,2235163948
91,18,18,Jits_Linear_8,0,1,48,49,2235637128
91,18,18,Jits_Linear_8,1,5,56,103,2235653588
91,18,18,Jits_Linear_8,2,5,80,127,2235663860
91,18,18,Jits_Linear_8,3,5,63,98,2235703872
91,18,18,Jits_Linear_8,0,5,80,127,2236183840
91,18,18,Jits_Linear_8,1,1,48,50,2236213416
91,18,18,Jits_Linear_8,2,5,56,103,2236263928
91,18,18,Jits_Linear_8,3,5,63,98,2236273980
91,18,18,Jits_Linear_8,0,1,48,51,2236759464
91,18,18,Jits_Linear_8,1,5,80,127,2236794188
91,18,18,Jits_Linear_8,2,5,56,103,2236874044
91,18,18,Jits_Linear_8,3,5,63,98,2236884316
91,18,18,Jits_Linear_8,0,5,80,127,2237314552
91,18,18,Jits_Linear_8,1,1,48,47,2237339844
91,18,18,Jits_Linear_8,2,5,56,103,2237363704
91,18,18,Jits_Linear_8,3,5,63,98,2237413680
91,18,18,Jits_Linear_8,0,1,48,51,2237899540
91,18,18,Jits_Linear_8,1,5,56,103,2237933892
91,18,18,Jits_Linear_8,2,5,63,98,2237936884
91,18,18,Jits_Linear_8,3,5,80,127,2237984192
91,18,18,Jits_Linear_8,0,1,48,54,2238465920
91,18,18,Jits_Linear_8,1,5,56,103,2238513748
91,18,18,Jits_Linear_8,2,5,63,98,2238544176
91,18,18,Jits_Linear_8,3,5,80,127,2238553548
91,18,18,Jits_Linear_8,0,5,63,98,2238983620
91,18,18,Jits_Linear_8,1,5,56,103,2239054124
91,18,18,Jits_Linear_8,2,1,48,45,2239055092
91,18,18,Jits_Linear_8,3,5,80,127,2239104320
91,18,18,Jits_Linear_8,0,5,63,98,2239574476
91,18,18,Jits_Linear_8,1,5,56,103,2239583844
91,18,18,Jits_Linear_8,2,5,80,127,2239586688
91,18,18,Jits_Linear_8,3,1,48,51,2239598728
91,18,18,Jits_Linear_8,0,5,80,127,2240074064
91,18,18,Jits_Linear_8,1,5,56,103,2240133708
91,18,18,Jits_Linear_8,2,1,48,44,2240137428
91,18,18,Jits_Linear_8,3,5,63,98,2240223616
91,18,18,Jits_Linear_8,0,5,80,127,2240634216
91,18,18,Jits_Linear_8,1,1,48,50,2240690452
91,18,18,Jits_Linear_8,2,5,56,103,2240733640
91,18,18,Jits_Linear_8,3,5,63,98,2240773676
91,18,18,Jits_Linear_8,0,5,56,103,2241234380
91,18,18,Jits_Linear_8,1,5,63,98,2241253720
91,18,18,Jits_Linear_8,2,1,48,48,2241256692
91,18,18,Jits_Linear_8,3,5,80,127,2241293676
91,18,18,Jits_Linear_8,0,5,63,98,2241763816
91,18,18,Jits_Linear_8,1,1,48,51,2241783980
91,18,18,Jits_Linear_8,2,5,56,103,2241785540
91,18,18,Jits_Linear_8,3,5,80,127,2241883776
91,18,18,Jits_Linear_8,0,5,63,98,2242293984
91,18,18,Jits_Linear_8,1,1,48,51,2242330912
91,18,18,Jits_Linear_8,2,5,80,127,2242403844
91,18,18,Jits_Linear_8,3,5,56,103,2242434400
91,18,18,Jits_Linear_8,0,5,56,103,2242854376
91,18,18,Jits_Linear_8,1,1,48,52,2242881164
91,18,18,Jits_Linear_8,2,5,63,98,2242883824
91,18,18,Jits_Linear_8,3,5,80,127,2242934100
91,18,18,Jits_Linear_8,0,5,63,98,2243364256
91,18,18,Jits_Linear_8,1,5,56,103,2243393856
91,18,18,Jits_Linear_8,2,1,48,47,2243418324
91,18,18,Jits_Linear_8,3,5,80,127,2243443976
91,18,18,Jits_Linear_8,0,5,56,103,2243943868
91,18,18,Jits_Linear_8,1,1,48,51,2243955904
91,18,18,Jits_Linear_8,2,5,63,98,2243964172
91,18,18,Jits_Linear_8,3,5,80,127,2244044116
91,18,18,Jits_Linear_8,0,5,63,98,2244453672
91,18,18,Jits_Linear_8,1,1,48,53,2244502652
91,18,18,Jits_Linear_8,2,5,56,103,2244514208
91,18,18,Jits_Linear_8,3,5,80,127,2244543808
91,18,18,Jits_Linear_8,0,1,48,53,2245028828
91,18,18,Jits_Linear_8,1,5,56,103,2245034480
91,18,18,Jits_Linear_8,2,5,80,127,2245093752
91,18,18,Jits_Linear_8,3,5,63,98,2245133552
91,18,18,Jits_Linear_8,0,5,63,98,2245544280
91,18,18,Jits_Linear_8,1,1,48,52,2245574828
91,18,18,Jits_Linear_8,2,5,56,103,2245603620
91,18,18,Jits_Linear_8,3,5,80,127,2245674728
91,18,18,Jits_Linear_8,0,1,48,51,2246088424
91,18,18,Jits_Linear_8,1,5,56,103,2246153816
91,18,18,Jits_Linear_8,2,5,63,98,2246163708
91,18,18,Jits_Linear_8,3,5,80,127,2246167448
91,18,18,Jits_Linear_8,0,5,63,98,2246623568
91,18,18,Jits_Linear_8,1,1,48,54,2246636652
91,18,18,Jits_Linear_8,2,5,56,103,2246683896
91,18,18,Jits_Linear_8,3,5,80,127,2246687116
91,18,18,Jits_Linear_8,0,5,63,98,2247133576
91,18,18,Jits_Linear_8,1,5,80,127,2247164448
91,18,18,Jits_Linear_8,2,1,48,52,2247172844
91,18,18,Jits_Linear_8,3,5,56,103,2247183728
91,18,18,Jits_Linear_8,0,5,56,103,2247664044
91,18,18,Jits_Linear_8,1,1,48,52,2247700368
91,18,18,Jits_Linear_8,2,5,63,98,2247714116
91,18,18,Jits_Linear_8,3,5,80,127,2247793984
91,18,18,Jits_Linear_8,0,5,80,127,2248163736
91,18,18,Jits_Linear_8,1,5,63,98,2248203628
91,18,18,Jits_Linear_8,2,1,48,52,2248216036
91,18,18,Jits_Linear_8,3,5,56,103,2248224156
91,18,18,Jits_Linear_8,0,1,48,48,2248713844
91,18,18,Jits_Linear_8,1,5,56,103,2248753652
91,18,18,Jits_Linear_8,2,5,80,127,2248763624
91,18,18,Jits_Linear_8,3,5,63,98,2248784380
91,18,18,Jits_Linear_8,0,1,48,53,2249239436
91,18,18,Jits_Linear_8,1,5,56,103,2249254304
91,18,18,Jits_Linear_8,2,5,63,98,2249304656
91,18,18,Jits_Linear_8,3,5,80,127,2249334020
91,18,18,Jits_Linear_8,0,5,56,103,2249724372
91,18,18,Jits_Linear_8,1,5,63,98,2249733472
91,18,18,Jits_Linear_8,2,5,80,127,2249783820
91,18,18,Jits_Linear_8,3,1,48,48,2249787088
91,18,18,Jits_Linear_8,0,5,56,103,2250234548
91,18,18,Jits_Linear_8,1,5,80,127,2250237536
91,18,18,Jits_Linear_8,2,1,48,49,2250293060
91,18,18,Jits_Linear_8,3,5,63,98,2250393908
91,18,18,Jits_Linear_8,0,5,63,98,2250763776
91,18,18,Jits_Linear_8,1,1,48,53,2250765788
91,18,18,Jits_Linear_8,2,5,56,103,2250834500
91,18,18,Jits_Linear_8,3,5,80,127,2250874200
91,18,18,Jits_Linear_8,0,5,63,98,2251313580
91,18,18,Jits_Linear_8,1,1,48,51,2251319916
91,18,18,Jits_Linear_8,2,5,56,103,2251403636
91,18,18,Jits_Linear_8,3,5,80,127,2251406700
91,18,18,Jits_Linear_8,0,5,56,103,2251803968
91,18,18,Jits_Linear_8,1,1,48,53,2251861248
91,18,18,Jits_Linear_8,2,5,63,98,2251894172
91,18,18,Jits_Linear_8,3,5,80,127,2251904368
91,18,18,Jits_Linear_8,0,5,56,103,2252284384
91,18,18,Jits_Linear_8,1,5,63,98,2252333568
91,18,18,Jits_Linear_8,2,5,80,127,2252364440
91,18,18,Jits_Linear_8,3,1,48,54,2252374384
91,18,18,Jits_Linear_8,0,5,63,98,2252863972
91,18,18,Jits_Linear_8,1,5,80,127,2252874096
91,18,18,Jits_Linear_8,2,1,48,45,2252877736
91,18,18,Jits_Linear_8,3,5,56,103,2252933432
91,18,18,Jits_Linear_8,0,5,63,98,2253283692
91,18,18,Jits_Linear_8,1,5,80,127,2253344032
91,18,18,Jits_Linear_8,2,5,56,103,2253384048
91,18,18,Jits_Linear_8,3,1,48,52,2253398996
91,18,18,Jits_Linear_8,0,1,48,57,2253865400
91,18,18,Jits_Linear_8,1,5,56,103,2253883780
91,18,18,Jits_Linear_8,2,5,80,127,2253904316
91,18,18,Jits_Linear_8,3,5,63,98,2253923804
91,18,18,Jits_Linear_8,0,5,63,98,2254303656
91,18,18,Jits_Linear_8,1,5,56,103,2254324040
91,18,18,Jits_Linear_8,2,5,80,127,2254364152
91,18,18,Jits_Linear_8,3,1,48,54,2254380156
91,18,18,Jits_Linear_8,0,5,63,98,2254813520
91,18,18,Jits_Linear_8,1,5,80,127,2254844472
91,18,18,Jits_Linear_8,2,5,56,103,2254863760
91,18,18,Jits_Linear_8,3,1,48,44,2254880280
91,18,18,Jits_Linear_8,0,5,80,127,2255283524
91,18,18,Jits_Linear_8,1,5,56,103,2255333800
91,18,18,Jits_Linear_8,2,1,48,43,2255382428
91,18,18,Jits_Linear_8,3,5,63,98,2255394284
91,18,18,Jits_Linear_8,0,5,63,98,2255763884
91,18,18,Jits_Linear_8,1,1,48,50,2255866348
91,18,18,Jits_Linear_8,2,5,56,103,2255883560
91,18,18,Jits_Linear_8,3,5,80,127,2255914428
91,18,18,Jits_Linear_8,0,5,80,127,2256294208
91,18,18,Jits_Linear_8,1,5,63,98,2256313768
91,18,18,Jits_Linear_8,2,5,56,103,2256384820
91,18,18,Jits_Linear_8,3,1,48,31,2256400824
91,18,18,Jits_Linear_8,0,5,63,98,2256804464
91,18,18,Jits_Linear_8,1,5,56,103,2256813392
91,18,18,Jits_Linear_8,2,1,48,49,2256888880
91,18,18,Jits_Linear_8,3,5,80,127,2256894524
91,18,18,Jits_Linear_8,0,5,56,103,2257354100
91,18,18,Jits_Linear_8,1,1,48,51,2257377144
91,18,18,Jits_Linear_8,2,5,80,127,2257383692
91,18,18,Jits_Linear_8,3,5,63,98,2257394040
91,18,18,Jits_Linear_8,0,9999,9999,9999,2146951288
91,18,18,Jits_Linear_8,1,9999,9999,9999,2147771480
91,18,18,Jits_Linear_8,2,9999,9999,9999,2148591692
91,18,18,Jits_Linear_8,3,9999,9999,9999,2149411940
91,18,18,Jits_Linear_8,4,9999,9999,9999,2150231096
91,18,18,Jits_Linear_8,5,9999,9999,9999,2151041112
91,18,18,Jits_Linear_8,6,9999,9999,9999,2151851128
91,18,18,Jits_Linear_8,7,9999,9999,9999,2152662116
91,18,18,Jits_Linear_8,8,9999,9999,9999,2153472064
91,18,18,Jits_Linear_8,9,9999,9999,9999,2154291304
91,18,18,Jits_Linear_8,10,9999,9999,9999,2155092036
91,18,18,Jits_Linear_8,11,9999,9999,9999,2155891792
91,18,18,Jits_Linear_8,12,9999,9999,9999,2156691552
91,18,18,Jits_Linear_8,13,9999,9999,9999,2157491296
91,18,18,Jits_Linear_8,14,9999,9999,9999,2158292088
91,18,18,Jits_Linear_8,15,9999,9999,9999,2159081572
91,18,18,Jits_Linear_8,16,9999,9999,9999,2159872092
91,18,18,Jits_Linear_8,17,9999,9999,9999,2160671868
91,18,18,Jits_Linear_8,18,9999,9999,9999,2161461364
91,18,18,Jits_Linear_8,19,9999,9999,9999,2162251844
91,18,18,Jits_Linear_8,20,9999,9999,9999,2163031140
91,18,18,Jits_Linear_8,21,9999,9999,9999,2163811416
91,18,18,Jits_Linear_8,22,9999,9999,9999,2164591680
91,18,18,Jits_Linear_8,23,9999,9999,9999,2165372028
91,18,18,Jits_Linear_8,24,9999,9999,9999,2166151252
91,18,18,Jits_Linear_8,25,9999,9999,9999,2166921340
91,18,18,Jits_Linear_8,26,9999,9999,9999,2167691352
91,18,18,Jits_Linear_8,27,9999,9999,9999,2168461436
91,18,18,Jits_Linear_8,28,9999,9999,9999,2169231460
91,18,18,Jits_Linear_8,29,9999,9999,9999,2170001492
91,18,18,Jits_Linear_8,30,9999,9999,9999,2170761312
91,18,18,Jits_Linear_8,31,9999,9999,9999,2171521136
91,18,18,Jits_Linear_8,32,9999,9999,9999,2172281944
91,18,18,Jits_Linear_8,33,9999,9999,9999,2173041772
91,18,18,Jits_Linear_8,34,9999,9999,9999,2173801536
91,18,18,Jits_Linear_8,35,9999,9999,9999,2174551116
91,18,18,Jits_Linear_8,36,9999,9999,9999,2175301732
91,18,18,Jits_Linear_8,37,9999,9999,9999,2176051308
91,18,18,Jits_Linear_8,38,9999,9999,9999,2176801852
91,18,18,Jits_Linear_8,39,9999,9999,9999,2177551428
91,18,18,Jits_Linear_8,40,9999,9999,9999,2178291824
91,18,18,Jits_Linear_8,41,9999,9999,9999,2179031132
91,18,18,Jits_Linear_8,42,9999,9999,9999,2179771472
91,18,18,Jits_Linear_8,43,9999,9999,9999,2180511816
91,18,18,Jits_Linear_8,44,9999,9999,9999,2181251168
91,18,18,Jits_Linear_8,45,9999,9999,9999,2181981252
91,18,18,Jits_Linear_8,46,9999,9999,9999,2182711404
91,18,18,Jits_Linear_8,47,9999,9999,9999,2183441476
91,18,18,Jits_Linear_8,48,9999,9999,9999,2184171604
91,18,18,Jits_Linear_8,49,9999,9999,9999,2184901752
91,18,18,Jits_Linear_8,50,9999,9999,9999,2185621564
91,18,18,Jits_Linear_8,51,9999,9999,9999,2186341456
91,18,18,Jits_Linear_8,52,9999,9999,9999,2187061348
91,18,18,Jits_Linear_8,53,9999,9999,9999,2187781244
91,18,18,Jits_Linear_8,54,9999,9999,9999,2188502076
91,18,18,Jits_Linear_8,55,9999,9999,9999,2189221980
91,18,18,Jits_Linear_8,56,9999,9999,9999,2189931608
91,18,18,Jits_Linear_8,57,9999,9999,9999,2190641232
91,18,18,Jits_Linear_8,58,9999,9999,9999,2191351884
91,18,18,Jits_Linear_8,59,9999,9999,9999,2192061508
91,18,18,Jits_Linear_8,60,9999,9999,9999,2192761920
91,18,18,Jits_Linear_8,61,9999,9999,9999,2193461360
91,18,18,Jits_Linear_8,62,9999,9999,9999,2194161744
91,18,18,Jits_Linear_8,63,9999,9999,9999,2194861176
91,18,18,Jits_Linear_8,64,9999,9999,9999,2195561592
91,18,18,Jits_Linear_8,65,9999,9999,9999,2196251744
91,18,18,Jits_Linear_8,66,9999,9999,9999,2196941884
91,18,18,Jits_Linear_8,67,9999,9999,9999,2197632112
91,18,18,Jits_Linear_8,68,9999,9999,9999,2198331464
91,18,18,Jits_Linear_8,69,9999,9999,9999,2199021672
91,18,18,Jits_Linear_8,70,9999,9999,9999,2199701568
91,18,18,Jits_Linear_8,71,9999,9999,9999,2200381536
91,18,18,Jits_Linear_8,72,9999,9999,9999,2201061468
91,18,18,Jits_Linear_8,73,9999,9999,9999,2201741372
91,18,18,Jits_Linear_8,74,9999,9999,9999,2202421336
91,18,18,Jits_Linear_8,75,9999,9999,9999,2203092056
91,18,18,Jits_Linear_8,76,9999,9999,9999,2203761748
91,18,18,Jits_Linear_8,77,9999,9999,9999,2204431444
91,18,18,Jits_Linear_8,78,9999,9999,9999,2205101184
91,18,18,Jits_Linear_8,79,9999,9999,9999,2205771852
91,18,18,Jits_Linear_8,80,9999,9999,9999,2206431336
91,18,18,Jits_Linear_8,81,9999,9999,9999,2207091808
91,18,18,Jits_Linear_8,82,9999,9999,9999,2207751244
91,18,18,Jits_Linear_8,83,9999,9999,9999,2208411768
91,18,18,Jits_Linear_8,84,9999,9999,9999,2209071204
91,18,18,Jits_Linear_8,85,9999,9999,9999,2209721412
91,18,18,Jits_Linear_8,86,9999,9999,9999,2210371700
91,18,18,Jits_Linear_8,87,9999,9999,9999,2211021884
91,18,18,Jits_Linear_8,88,9999,9999,9999,2211671124
91,18,18,Jits_Linear_8,89,9999,9999,9999,2212321400
91,18,18,Jits_Linear_8,90,9999,9999,9999,2212961356
91,18,18,Jits_Linear_8,91,9999,9999,9999,2213601352
91,18,18,Jits_Linear_8,92,9999,9999,9999,2214241396
91,18,18,Jits_Linear_8,93,9999,9999,9999,2214881392
91,18,18,Jits_Linear_8,94,9999,9999,9999,2215521344
91,18,18,Jits_Linear_8,95,9999,9999,9999,2216151152
91,18,18,Jits_Linear_8,96,9999,9999,9999,2216781904
91,18,18,Jits_Linear_8,97,9999,9999,9999,2217411640
91,18,18,Jits_Linear_8,98,9999,9999,9999,2218041408
91,18,18,Jits_Linear_8,99,9999,9999,9999,2218671224
91,18,18,Jits_Linear_8,100,9999,9999,9999,2219291764
91,18,18,Jits_Linear_8,101,9999,9999,9999,2219911240
91,18,18,Jits_Linear_8,102,9999,9999,9999,2220531832
91,18,18,Jits_Linear_8,103,9999,9999,9999,2221151328
91,18,18,Jits_Linear_8,104,9999,9999,9999,2221771864
91,18,18,Jits_Linear_8,105,9999,9999,9999,2222381112
91,18,18,Jits_Linear_8,106,9999,9999,9999,2222991440
91,18,18,Jits_Linear_8,107,9999,9999,9999,2223601752
91,18,18,Jits_Linear_8,108,9999,9999,9999,2224212036
91,18,18,Jits_Linear_8,109,9999,9999,9999,2224821324
91,18,18,Jits_Linear_8,110,9999,9999,9999,2225421420
91,18,18,Jits_Linear_8,111,9999,9999,9999,2226021492
91,18,18,Jits_Linear_8,112,9999,9999,9999,2226621496
91,18,18,Jits_Linear_8,113,9999,9999,9999,2227221604
91,18,18,Jits_Linear_8,114,9999,9999,9999,2227821676
91,18,18,Jits_Linear_8,115,9999,9999,9999,2228411480
91,18,18,Jits_Linear_8,116,9999,9999,9999,2229001332
91,18,18,Jits_Linear_8,117,9999,9999,9999,2229591144
91,18,18,Jits_Linear_8,118,9999,9999,9999,2230181996
91,18,18,Jits_Linear_8,119,9999,9999,9999,2230771812
91,18,18,Jits_Linear_8,120,9999,9999,9999,2231351388
91,18,18,Jits_Linear_8,121,9999,9999,9999,2231931980
91,18,18,Jits_Linear_8,122,9999,9999,9999,2232511592
91,18,18,Jits_Linear_8,123,9999,9999,9999,2233091152
91,18,18,Jits_Linear_8,124,9999,9999,9999,2233671748
91,18,18,Jits_Linear_8,125,9999,9999,9999,2234241096
91,18,18,Jits_Linear_8,126,9999,9999,9999,2234811508
91,18,18,Jits_Linear_8,127,9999,9999,9999,2235381836
91,18,18,Jits_Linear_8,128,9999,9999,9999,2235951216
91,18,18,Jits_Linear_8,129,9999,9999,9999,2236521544
91,18,18,Jits_Linear_8,130,9999,9999,9999,2237081704
91,18,18,Jits_Linear_8,131,9999,9999,9999,2237641840
91,18,18,Jits_Linear_8,132,9999,9999,9999,2238201916
91,18,18,Jits_Linear_8,133,9999,9999,9999,2238762084
91,18,18,Jits_Linear_8,134,9999,9999,9999,2239321172
91,18,18,Jits_Linear_8,135,9999,9999,9999,2239872084
91,18,18,Jits_Linear_8,136,9999,9999,9999,2240431180
91,18,18,Jits_Linear_8,137,9999,9999,9999,2240982112
91,18,18,Jits_Linear_8,138,9999,9999,9999,2241541240
91,18,18,Jits_Linear_8,139,9999,9999,9999,2242091132
91,18,18,Jits_Linear_8,140,9999,9999,9999,2242631788
91,18,18,Jits_Linear_8,141,9999,9999,9999,2243171400
91,18,18,Jits_Linear_8,142,9999,9999,9999,2243712068
91,18,18,Jits_Linear_8,143,9999,9999,9999,2244261940
91,18,18,Jits_Linear_8,144,9999,9999,9999,2244801640
91,18,18,Jits_Linear_8,145,9999,9999,9999,2245332040
91,18,18,Jits_Linear_8,146,9999,9999,9999,2245861460
91,18,18,Jits_Linear_8,147,9999,9999,9999,2246391924
91,18,18,Jits_Linear_8,148,9999,9999,9999,2246921280
91,18,18,Jits_Linear_8,149,9999,9999,9999,2247451748
91,18,18,Jits_Linear_8,150,9999,9999,9999,2247971956
91,18,18,Jits_Linear_8,151,9999,9999,9999,2248491128
91,18,18,Jits_Linear_8,152,9999,9999,9999,2249011276
91,18,18,Jits_Linear_8,153,9999,9999,9999,2249531484
91,18,18,Jits_Linear_8,154,9999,9999,9999,2250051684
91,18,18,Jits_Linear_8,155,9999,9999,9999,2250561628
91,18,18,Jits_Linear_8,156,9999,9999,9999,2251071592
91,18,18,Jits_Linear_8,157,9999,9999,9999,2251581532
91,18,18,Jits_Linear_8,158,9999,9999,9999,2252091480
91,18,18,Jits_Linear_8,159,9999,9999,9999,2252601436
91,18,18,Jits_Linear_8,160,9999,9999,9999,2253101140
91,18,18,Jits_Linear_8,161,9999,9999,9999,2253601864
91,18,18,Jits_Linear_8,162,9999,9999,9999,2254101624
91,18,18,Jits_Linear_8,163,9999,9999,9999,2254601300
91,18,18,Jits_Linear_8,164,9999,9999,9999,2255102076
91,18,18,Jits_Linear_8,165,9999,9999,9999,2255591488
91,18,18,Jits_Linear_8,166,9999,9999,9999,2256082040
91,18,18,Jits_Linear_8,167,9999,9999,9999,2256571456
91,18,18,Jits_Linear_8,168,9999,9999,9999,2257061984
91,18,18,Jits_Linear_8,169,9999,9999,9999,2257551484
91,19,19,Jits_Linear_5,0,5,56,103,2266259800
91,19,19,Jits_Linear_5,1,5,63,98,2266262824
91,19,19,Jits_Linear_5,2,5,80,127,2266265872
91,19,19,Jits_Linear_5,0,5,56,103,2266740336
91,19,19,Jits_Linear_5,1,5,63,98,2266743364
91,19,19,Jits_Linear_5,2,5,80,127,2266746408
91,19,19,Jits_Linear_5,0,1,48,44,2267183092
91,19,19,Jits_Linear_5,1,5,56,103,2267220508
91,19,19,Jits_Linear_5,2,5,80,127,2267229584
91,19,19,Jits_Linear_5,3,5,63,98,2267249972
91,19,19,Jits_Linear_5,0,5,63,98,2267650456
91,19,19,Jits_Linear_5,1,1,48,45,2267660400
91,19,19,Jits_Linear_5,2,5,80,127,2267680272
91,19,19,Jits_Linear_5,3,5,56,103,2267690320
91,19,19,Jits_Linear_5,0,1,48,46,2268138024
91,19,19,Jits_Linear_5,1,5,80,127,2268190140
91,19,19,Jits_Linear_5,2,5,56,103,2268200264
91,19,19,Jits_Linear_5,3,5,63,98,2268230236
91,19,19,Jits_Linear_5,0,1,48,47,2268634108
91,19,19,Jits_Linear_5,1,5,63,98,2268670404
91,19,19,Jits_Linear_5,2,5,56,103,2268700108
91,19,19,Jits_Linear_5,3,5,80,127,2268710380
91,19,19,Jits_Linear_5,0,5,56,103,2269109568
91,19,19,Jits_Linear_5,1,1,48,52,2269135752
91,19,19,Jits_Linear_5,2,5,63,98,2269159764
91,19,19,Jits_Linear_5,3,5,80,127,2269180448
91,19,19,Jits_Linear_5,0,5,80,127,2269600352
91,19,19,Jits_Linear_5,1,1,48,51,2269601392
91,19,19,Jits_Linear_5,2,5,63,98,2269650252
91,19,19,Jits_Linear_5,3,5,56,103,2269690192
91,19,19,Jits_Linear_5,0,1,48,53,2270087444
91,19,19,Jits_Linear_5,1,5,56,103,2270099676
91,19,19,Jits_Linear_5,2,5,63,98,2270129428
91,19,19,Jits_Linear_5,3,5,80,127,2270200288
91,19,19,Jits_Linear_5,0,1,48,51,2270572960
91,19,19,Jits_Linear_5,1,5,56,103,2270590372
91,19,19,Jits_Linear_5,2,5,80,127,2270649644
91,19,19,Jits_Linear_5,3,5,63,98,2270680500
91,19,19,Jits_Linear_5,0,1,48,52,2271066280
91,19,19,Jits_Linear_5,1,5,56,103,2271090064
91,19,19,Jits_Linear_5,2,5,63,98,2271100260
91,19,19,Jits_Linear_5,3,5,80,127,2271140200
91,19,19,Jits_Linear_5,0,1,48,57,2271549792
91,19,19,Jits_Linear_5,1,5,63,98,2271579412
91,19,19,Jits_Linear_5,2,5,80,127,2271660544
91,19,19,Jits_Linear_5,3,5,56,103,2271669468
91,19,19,Jits_Linear_5,0,1,48,57,2272050308
91,19,19,Jits_Linear_5,1,5,63,98,2272130428
91,19,19,Jits_Linear_5,2,5,56,103,2272170496
91,19,19,Jits_Linear_5,3,5,80,127,2272173416
91,19,19,Jits_Linear_5,0,1,48,52,2272550216
91,19,19,Jits_Linear_5,1,5,56,103,2272590100
91,19,19,Jits_Linear_5,2,5,63,98,2272600372
91,19,19,Jits_Linear_5,3,5,80,127,2272640240
91,19,19,Jits_Linear_5,0,1,48,51,2273050200
91,19,19,Jits_Linear_5,1,5,56,103,2273079596
91,19,19,Jits_Linear_5,2,5,63,98,2273082664
91,19,19,Jits_Linear_5,3,5,80,127,2273100204
91,19,19,Jits_Linear_5,0,1,48,52,2273546644
91,19,19,Jits_Linear_5,1,5,80,127,2273599728
91,19,19,Jits_Linear_5,2,5,56,103,2273610368
91,19,19,Jits_Linear_5,3,5,63,98,2273679740
91,19,19,Jits_Linear_5,0,1,48,50,2274039572
91,19,19,Jits_Linear_5,1,5,63,98,2274099488
91,19,19,Jits_Linear_5,2,5,56,103,2274120320
91,19,19,Jits_Linear_5,3,5,80,127,2274200100
91,19,19,Jits_Linear_5,0,1,48,54,2274541952
91,19,19,Jits_Linear_5,1,5,56,103,2274619704
91,19,19,Jits_Linear_5,2,5,80,127,2274659628
91,19,19,Jits_Linear_5,3,5,63,98,2274670272
91,19,19,Jits_Linear_5,0,1,48,53,2275051308
91,19,19,Jits_Linear_5,1,5,80,127,2275119468
91,19,19,Jits_Linear_5,2,5,63,98,2275150248
91,19,19,Jits_Linear_5,3,5,56,103,2275190412
91,19,19,Jits_Linear_5,0,1,48,55,2275594248
91,19,19,Jits_Linear_5,1,5,56,103,2275650020
91,19,19,Jits_Linear_5,2,5,63,98,2275679548
91,19,19,Jits_Linear_5,3,5,80,127,2275729736
91,19,19,Jits_Linear_5,0,1,48,47,2276132152
91,19,19,Jits_Linear_5,1,5,80,127,2276160048
91,19,19,Jits_Linear_5,2,5,56,103,2276199692
91,19,19,Jits_Linear_5,3,5,63,98,2276210112
91,19,19,Jits_Linear_5,0,1,48,54,2276619556
91,19,19,Jits_Linear_5,1,5,80,127,2276659440
91,19,19,Jits_Linear_5,2,5,63,98,2276699456
91,19,19,Jits_Linear_5,3,5,56,103,2276760056
91,19,19,Jits_Linear_5,0,1,48,51,2277116132
91,19,19,Jits_Linear_5,1,5,56,103,2277179656
91,19,19,Jits_Linear_5,2,5,80,127,2277190224
91,19,19,Jits_Linear_5,3,5,63,98,2277270080
91,19,19,Jits_Linear_5,0,1,48,51,2277627800
91,19,19,Jits_Linear_5,1,5,80,127,2277700092
91,19,19,Jits_Linear_5,2,5,63,98,2277760400
91,19,19,Jits_Linear_5,3,5,56,103,2277790148
91,19,19,Jits_Linear_5,0,1,48,54,2278176592
91,19,19,Jits_Linear_5,1,5,56,103,2278220088
91,19,19,Jits_Linear_5,2,5,80,127,2278279496
91,19,19,Jits_Linear_5,3,5,63,98,2278319360
91,19,19,Jits_Linear_5,0,1,48,48,2278719156
91,19,19,Jits_Linear_5,1,5,56,103,2278799724
91,19,19,Jits_Linear_5,2,5,63,98,2278810216
91,19,19,Jits_Linear_5,3,5,80,127,2278813432
91,19,19,Jits_Linear_5,0,1,48,56,2279245644
91,19,19,Jits_Linear_5,1,5,80,127,2279290184
91,19,19,Jits_Linear_5,2,5,63,98,2279380456
91,19,19,Jits_Linear_5,3,5,56,103,2279389460
91,19,19,Jits_Linear_5,0,1,48,48,2279790520
91,19,19,Jits_Linear_5,1,5,56,103,2279819600
91,19,19,Jits_Linear_5,2,5,63,98,2279822628
91,19,19,Jits_Linear_5,3,5,80,127,2279825900
91,19,19,Jits_Linear_5,0,1,48,53,2280295196
91,19,19,Jits_Linear_5,1,5,80,127,2280369632
91,19,19,Jits_Linear_5,2,5,63,98,2280419824
91,19,19,Jits_Linear_5,3,5,56,103,2280450276
91,19,19,Jits_Linear_5,0,1,48,52,2280828996
91,19,19,Jits_Linear_5,1,5,56,103,2280879440
91,19,19,Jits_Linear_5,2,5,80,127,2280889636
91,19,19,Jits_Linear_5,3,5,63,98,2280960376
91,19,19,Jits_Linear_5,0,1,48,49,2281382244
91,19,19,Jits_Linear_5,1,5,56,103,2281420036
91,19,19,Jits_Linear_5,2,5,63,98,2281439596
91,19,19,Jits_Linear_5,3,5,80,127,2281500144
91,19,19,Jits_Linear_5,0,1,48,47,2281898716
91,19,19,Jits_Linear_5,1,5,80,127,2281959880
91,19,19,Jits_Linear_5,2,5,63,98,2282029424
91,19,19,Jits_Linear_5,3,5,56,103,2282050032
91,19,19,Jits_Linear_5,0,1,48,53,2282439764
91,19,19,Jits_Linear_5,1,5,80,127,2282520128
91,19,19,Jits_Linear_5,2,5,56,103,2282530100
91,19,19,Jits_Linear_5,3,5,63,98,2282540356
91,19,19,Jits_Linear_5,0,1,48,44,2282982524
91,19,19,Jits_Linear_5,1,5,80,127,2283050452
91,19,19,Jits_Linear_5,2,5,56,103,2283070092
91,19,19,Jits_Linear_5,3,5,63,98,2283139388
91,19,19,Jits_Linear_5,0,1,48,47,2283559784
91,19,19,Jits_Linear_5,1,5,56,103,2283600192
91,19,19,Jits_Linear_5,2,5,80,127,2283630168
91,19,19,Jits_Linear_5,3,5,63,98,2283650480
91,19,19,Jits_Linear_5,0,1,48,42,2284132816
91,19,19,Jits_Linear_5,1,5,63,98,2284140112
91,19,19,Jits_Linear_5,2,5,56,103,2284200432
91,19,19,Jits_Linear_5,3,5,80,127,2284229944
91,19,19,Jits_Linear_5,0,5,63,98,2284679664
91,19,19,Jits_Linear_5,1,5,80,127,2284682880
91,19,19,Jits_Linear_5,2,1,48,51,2284701292
91,19,19,Jits_Linear_5,3,5,56,103,2284769572
91,19,19,Jits_Linear_5,0,5,56,103,2285250072
91,19,19,Jits_Linear_5,1,1,48,48,2285266744
91,19,19,Jits_Linear_5,2,5,63,98,2285279596
91,19,19,Jits_Linear_5,3,5,80,127,2285319488
91,19,19,Jits_Linear_5,0,1,48,44,2285781064
91,19,19,Jits_Linear_5,1,5,63,98,2285799892
91,19,19,Jits_Linear_5,2,5,56,103,2285839860
91,19,19,Jits_Linear_5,3,5,80,127,2285860096
91,19,19,Jits_Linear_5,0,1,48,46,2286315584
91,19,19,Jits_Linear_5,1,5,63,98,2286360068
91,19,19,Jits_Linear_5,2,5,56,103,2286399936
91,19,19,Jits_Linear_5,3,5,80,127,2286410056
91,19,19,Jits_Linear_5,0,1,48,33,2286880868
91,19,19,Jits_Linear_5,1,5,80,127,2286890328
91,19,19,Jits_Linear_5,2,5,63,98,2286960164
91,19,19,Jits_Linear_5,3,5,56,103,2286979336
91,19,19,Jits_Linear_5,0,1,48,34,2287431800
91,19,19,Jits_Linear_5,1,5,56,103,2287440212
91,19,19,Jits_Linear_5,2,5,80,127,2287459996
91,19,19,Jits_Linear_5,3,5,63,98,2287499788
91,19,19,Jits_Linear_5,0,1,48,48,2287965188
91,19,19,Jits_Linear_5,1,5,63,98,2288009576
91,19,19,Jits_Linear_5,2,5,80,127,2288030112
91,19,19,Jits_Linear_5,3,5,56,103,2288070112
91,19,19,Jits_Linear_5,0,1,48,45,2288524812
91,19,19,Jits_Linear_5,1,5,63,98,2288570100
91,19,19,Jits_Linear_5,2,5,56,103,2288590188
91,19,19,Jits_Linear_5,3,5,80,127,2288600308
91,19,19,Jits_Linear_5,0,1,48,43,2289096336
91,19,19,Jits_Linear_5,1,5,80,127,2289130236
91,19,19,Jits_Linear_5,2,5,56,103,2289150324
91,19,19,Jits_Linear_5,3,5,63,98,2289179928
91,19,19,Jits_Linear_5,0,1,48,38,2289674916
91,19,19,Jits_Linear_5,1,5,56,103,2289770028
91,19,19,Jits_Linear_5,2,5,80,127,2289773832
91,19,19,Jits_Linear_5,3,5,63,98,2289790176
91,19,19,Jits_Linear_5,0,1,48,47,2290224500
91,19,19,Jits_Linear_5,1,5,63,98,2290260196
91,19,19,Jits_Linear_5,2,5,56,103,2290290100
91,19,19,Jits_Linear_5,3,5,80,127,2290349356
91,19,19,Jits_Linear_5,0,1,48,31,2290812156
91,19,19,Jits_Linear_5,1,5,63,98,2290909644
91,19,19,Jits_Linear_5,2,5,56,103,2290919916
91,19,19,Jits_Linear_5,3,5,80,127,2290930188
91,19,19,Jits_Linear_5,0,5,56,103,2291429888
91,19,19,Jits_Linear_5,1,1,48,40,2291434056
91,19,19,Jits_Linear_5,2,5,80,127,2291459436
91,19,19,Jits_Linear_5,3,5,63,98,2291469780
91,19,19,Jits_Linear_5,0,1,48,36,2292003676
91,19,19,Jits_Linear_5,1,5,63,98,2292050384
91,19,19,Jits_Linear_5,2,5,56,103,2292059612
91,19,19,Jits_Linear_5,3,5,80,127,2292080068
91,19,19,Jits_Linear_5,0,5,56,103,2292549860
91,19,19,Jits_Linear_5,1,1,48,50,2292589248
91,19,19,Jits_Linear_5,2,5,63,98,2292610396
91,19,19,Jits_Linear_5,3,5,80,127,2292613908
91,19,19,Jits_Linear_5,0,5,80,127,2293150024
91,19,19,Jits_Linear_5,1,1,48,36,2293159164
91,19,19,Jits_Linear_5,2,5,56,103,2293160584
91,19,19,Jits_Linear_5,3,5,63,98,2293229896
91,19,19,Jits_Linear_5,0,1,48,40,2293704980
91,19,19,Jits_Linear_5,1,5,80,127,2293720296
91,19,19,Jits_Linear_5,2,5,56,103,2293789932
91,19,19,Jits_Linear_5,3,5,63,98,2293800856
91,19,19,Jits_Linear_5,0,1,48,31,2294310272
91,19,19,Jits_Linear_5,1,5,63,98,2294340040
91,19,19,Jits_Linear_5,2,5,56,103,2294350160
91,19,19,Jits_Linear_5,3,5,80,127,2294369724
91,19,19,Jits_Linear_5,0,5,80,127,2294870376
91,19,19,Jits_Linear_5,1,1,48,36,2294871416
91,19,19,Jits_Linear_5,2,5,63,98,2294929864
91,19,19,Jits_Linear_5,3,5,56,103,2294969864
91,19,19,Jits_Linear_5,0,1,48,17,2295427128
91,19,19,Jits_Linear_5,1,5,56,103,2295500284
91,19,19,Jits_Linear_5,2,5,63,98,2295510412
91,19,19,Jits_Linear_5,3,5,80,127,2295550332
91,19,19,Jits_Linear_5,0,1,48,43,2296016092
91,19,19,Jits_Linear_5,1,5,56,103,2296050064
91,19,19,Jits_Linear_5,2,5,80,127,2296079988
91,19,19,Jits_Linear_5,3,5,63,98,2296129804
91,19,19,Jits_Linear_5,0,1,48,38,2296629472
91,19,19,Jits_Linear_5,1,5,56,103,2296679768
91,19,19,Jits_Linear_5,2,5,63,98,2296720004
91,19,19,Jits_Linear_5,3,5,80,127,2296723072
91,19,19,Jits_Linear_5,0,1,48,41,2297224888
91,19,19,Jits_Linear_5,1,5,56,103,2297269804
91,19,19,Jits_Linear_5,2,5,63,98,2297280000
91,19,19,Jits_Linear_5,3,5,80,127,2297300308
91,19,19,Jits_Linear_5,0,1,48,48,2297777560
91,19,19,Jits_Linear_5,1,5,56,103,2297819532
91,19,19,Jits_Linear_5,2,5,80,127,2297822528
91,19,19,Jits_Linear_5,3,5,63,98,2297859496
91,19,19,Jits_Linear_5,0,1,48,38,2298375616
91,19,19,Jits_Linear_5,1,5,63,98,2298450200
91,19,19,Jits_Linear_5,2,5,56,103,2298479936
91,19,19,Jits_Linear_5,3,5,80,127,2298499424
91,19,19,Jits_Linear_5,0,1,48,40,2298982452
91,19,19,Jits_Linear_5,1,5,80,127,2299019936
91,19,19,Jits_Linear_5,2,5,56,103,2299029912
91,19,19,Jits_Linear_5,3,5,63,98,2299040032
91,19,19,Jits_Linear_5,0,1,48,32,2299585440
91,19,19,Jits_Linear_5,1,5,56,103,2299619792
91,19,19,Jits_Linear_5,2,5,80,127,2299659832
91,19,19,Jits_Linear_5,3,5,63,98,2299690240
91,19,19,Jits_Linear_5,0,1,48,40,2300174684
91,19,19,Jits_Linear_5,1,5,63,98,2300229936
91,19,19,Jits_Linear_5,2,5,80,127,2300240208
91,19,19,Jits_Linear_5,3,5,56,103,2300249360
91,19,19,Jits_Linear_5,0,1,48,38,2300775360
91,19,19,Jits_Linear_5,1,5,56,103,2300809636
91,19,19,Jits_Linear_5,2,5,63,98,2300880356
91,19,19,Jits_Linear_5,3,5,80,127,2300889504
91,19,19,Jits_Linear_5,0,1,48,47,2301368044
91,19,19,Jits_Linear_5,1,5,80,127,2301419912
91,19,19,Jits_Linear_5,2,5,56,103,2301430256
91,19,19,Jits_Linear_5,3,5,63,98,2301480320
91,19,19,Jits_Linear_5,0,1,48,45,2301992712
91,19,19,Jits_Linear_5,1,5,80,127,2302040396
91,19,19,Jits_Linear_5,2,5,56,103,2302099948
91,19,19,Jits_Linear_5,3,5,63,98,2302129700
91,19,19,Jits_Linear_5,0,1,48,39,2302563124
91,19,19,Jits_Linear_5,1,5,56,103,2302649988
91,19,19,Jits_Linear_5,2,5,80,127,2302652908
91,19,19,Jits_Linear_5,3,5,63,98,2302689692
91,19,19,Jits_Linear_5,0,1,48,55,2303153976
91,19,19,Jits_Linear_5,1,5,56,103,2303289932
91,19,19,Jits_Linear_5,2,5,63,98,2303320436
91,19,19,Jits_Linear_5,3,5,80,127,2303329804
91,19,19,Jits_Linear_5,0,1,48,48,2303815376
91,19,19,Jits_Linear_5,1,5,63,98,2303910116
91,19,19,Jits_Linear_5,2,5,80,127,2303919324
91,19,19,Jits_Linear_5,3,5,56,103,2303929668
91,19,19,Jits_Linear_5,0,1,48,48,2304437432
91,19,19,Jits_Linear_5,1,5,80,127,2304470488
91,19,19,Jits_Linear_5,2,5,56,103,2304519668
91,19,19,Jits_Linear_5,3,5,63,98,2304522588
91,19,19,Jits_Linear_5,0,1,48,48,2305062760
91,19,19,Jits_Linear_5,1,5,56,103,2305119732
91,19,19,Jits_Linear_5,2,5,80,127,2305140044
91,19,19,Jits_Linear_5,3,5,63,98,2305150464
91,19,19,Jits_Linear_5,0,1,48,50,2305719892
91,19,19,Jits_Linear_5,1,5,63,98,2305721232
91,19,19,Jits_Linear_5,2,5,56,103,2305750240
91,19,19,Jits_Linear_5,3,5,80,127,2305769876
91,19,19,Jits_Linear_5,0,1,48,44,2306336664
91,19,19,Jits_Linear_5,1,5,56,103,2306349440
91,19,19,Jits_Linear_5,2,5,80,127,2306360084
91,19,19,Jits_Linear_5,3,5,63,98,2306430276
91,19,19,Jits_Linear_5,0,1,48,45,2306945216
91,19,19,Jits_Linear_5,1,5,63,98,2306969900
91,19,19,Jits_Linear_5,2,5,80,127,2307009916
91,19,19,Jits_Linear_5,3,5,56,103,2307049912
91,19,19,Jits_Linear_5,0,1,48,46,2307588928
91,19,19,Jits_Linear_5,1,5,56,103,2307610152
91,19,19,Jits_Linear_5,2,5,63,98,2307620424
91,19,19,Jits_Linear_5,3,5,80,127,2307639616
91,19,19,Jits_Linear_5,0,1,48,45,2308205104
91,19,19,Jits_Linear_5,1,5,63,98,2308279764
91,19,19,Jits_Linear_5,2,5,80,127,2308300000
91,19,19,Jits_Linear_5,3,5,56,103,2308319696
91,19,19,Jits_Linear_5,0,5,56,103,2308850180
91,19,19,Jits_Linear_5,1,1,48,40,2308852780
91,19,19,Jits_Linear_5,2,5,80,127,2308929848
91,19,19,Jits_Linear_5,3,5,63,98,2308940120
91,19,19,Jits_Linear_5,0,1,48,50,2309482636
91,19,19,Jits_Linear_5,1,5,80,127,2309519676
91,19,19,Jits_Linear_5,2,5,63,98,2309530024
91,19,19,Jits_Linear_5,3,5,56,103,2309559700
91,19,19,Jits_Linear_5,0,5,63,98,2310109796
91,19,19,Jits_Linear_5,1,1,48,53,2310137556
91,19,19,Jits_Linear_5,2,5,80,127,2310149680
91,19,19,Jits_Linear_5,3,5,56,103,2310209776
91,19,19,Jits_Linear_5,0,5,63,98,2310749616
91,19,19,Jits_Linear_5,1,1,48,45,2310783972
91,19,19,Jits_Linear_5,2,5,56,103,2310799816
91,19,19,Jits_Linear_5,3,5,80,127,2310829564
91,19,19,Jits_Linear_5,0,1,48,45,2311392592
91,19,19,Jits_Linear_5,1,5,80,127,2311399736
91,19,19,Jits_Linear_5,2,5,63,98,2311410084
91,19,19,Jits_Linear_5,3,5,56,103,2311479788
91,19,19,Jits_Linear_5,0,1,48,52,2312008660
91,19,19,Jits_Linear_5,1,5,80,127,2312109592
91,19,19,Jits_Linear_5,2,5,56,103,2312119936
91,19,19,Jits_Linear_5,3,5,63,98,2312122928
91,19,19,Jits_Linear_5,0,1,48,37,2312677520
91,19,19,Jits_Linear_5,1,5,56,103,2312689976
91,19,19,Jits_Linear_5,2,5,80,127,2312709488
91,19,19,Jits_Linear_5,3,5,63,98,2312719836
91,19,19,Jits_Linear_5,0,1,48,46,2313260908
91,19,19,Jits_Linear_5,1,5,63,98,2313340132
91,19,19,Jits_Linear_5,2,5,56,103,2313380204
91,19,19,Jits_Linear_5,3,5,80,127,2313399544
91,19,19,Jits_Linear_5,0,1,48,39,2313933292
91,19,19,Jits_Linear_5,1,5,63,98,2313989688
91,19,19,Jits_Linear_5,2,5,56,103,2314049840
91,19,19,Jits_Linear_5,3,5,80,127,2314052832
91,19,19,Jits_Linear_5,0,5,56,103,2314599732
91,19,19,Jits_Linear_5,1,1,48,37,2314607112
91,19,19,Jits_Linear_5,2,5,80,127,2314620408
91,19,19,Jits_Linear_5,3,5,63,98,2314660272
91,19,19,Jits_Linear_5,0,1,48,36,2315229244
91,19,19,Jits_Linear_5,1,5,56,103,2315279860
91,19,19,Jits_Linear_5,2,5,63,98,2315300100
91,19,19,Jits_Linear_5,3,5,80,127,2315309692
91,19,19,Jits_Linear_5,0,1,48,45,2315885000
91,19,19,Jits_Linear_5,1,5,80,127,2315900468
91,19,19,Jits_Linear_5,2,5,56,103,2315929920
91,19,19,Jits_Linear_5,3,5,63,98,2315969860
91,19,19,Jits_Linear_5,0,1,48,46,2316513476
91,19,19,Jits_Linear_5,1,5,80,127,2316559832
91,19,19,Jits_Linear_5,2,5,56,103,2316580144
91,19,19,Jits_Linear_5,3,5,63,98,2316639476
91,19,19,Jits_Linear_5,0,1,48,43,2317192480
91,19,19,Jits_Linear_5,1,5,56,103,2317220156
91,19,19,Jits_Linear_5,2,5,80,127,2317239644
91,19,19,Jits_Linear_5,3,5,63,98,2317300020
91,19,19,Jits_Linear_5,0,1,48,37,2317833416
91,19,19,Jits_Linear_5,1,5,80,127,2317860192
91,19,19,Jits_Linear_5,2,5,56,103,2317869636
91,19,19,Jits_Linear_5,3,5,63,98,2317910548
91,19,19,Jits_Linear_5,0,1,48,38,2318502048
91,19,19,Jits_Linear_5,1,5,63,98,2318519680
91,19,19,Jits_Linear_5,2,5,56,103,2318559692
91,19,19,Jits_Linear_5,3,5,80,127,2318562688
91,19,19,Jits_Linear_5,0,1,48,46,2319152264
91,19,19,Jits_Linear_5,1,5,63,98,2319199640
91,19,19,Jits_Linear_5,2,5,80,127,2319239732
91,19,19,Jits_Linear_5,3,5,56,103,2319270440
91,19,19,Jits_Linear_5,0,1,48,42,2319820452
91,19,19,Jits_Linear_5,1,5,56,103,2319849772
91,19,19,Jits_Linear_5,2,5,63,98,2319860044
91,19,19,Jits_Linear_5,3,5,80,127,2319889744
91,19,19,Jits_Linear_5,0,1,48,45,2320460712
91,19,19,Jits_Linear_5,1,5,80,127,2320510488
91,19,19,Jits_Linear_5,2,5,63,98,2320579932
91,19,19,Jits_Linear_5,3,5,56,103,2320590280
91,19,19,Jits_Linear_5,0,1,48,47,2321142976
91,19,19,Jits_Linear_5,1,5,63,98,2321180192
91,19,19,Jits_Linear_5,2,5,56,103,2321249564
91,19,19,Jits_Linear_5,3,5,80,127,2321259760
91,19,19,Jits_Linear_5,0,1,48,45,2321822728
91,19,19,Jits_Linear_5,1,5,63,98,2321849580
91,19,19,Jits_Linear_5,2,5,56,103,2321870188
91,19,19,Jits_Linear_5,3,5,80,127,2321910200
91,19,19,Jits_Linear_5,0,1,48,48,2322461788
91,19,19,Jits_Linear_5,1,5,56,103,2322529548
91,19,19,Jits_Linear_5,2,5,63,98,2322539820
91,19,19,Jits_Linear_5,3,5,80,127,2322619748
91,19,19,Jits_Linear_5,0,1,48,38,2323132964
91,19,19,Jits_Linear_5,1,5,63,98,2323190160
91,19,19,Jits_Linear_5,2,5,56,103,2323219864
91,19,19,Jits_Linear_5,3,5,80,127,2323259716
91,19,19,Jits_Linear_5,0,1,48,44,2323797420
91,19,19,Jits_Linear_5,1,5,56,103,2323859868
91,19,19,Jits_Linear_5,2,5,63,98,2323899724
91,19,19,Jits_Linear_5,3,5,80,127,2323939588
91,19,19,Jits_Linear_5,0,1,48,47,2324467780
91,19,19,Jits_Linear_5,1,5,80,127,2324539692
91,19,19,Jits_Linear_5,2,5,56,103,2324619776
91,19,19,Jits_Linear_5,3,5,63,98,2324629900
91,19,19,Jits_Linear_5,0,1,48,44,2325221644
91,19,19,Jits_Linear_5,1,5,56,103,2325259752
91,19,19,Jits_Linear_5,2,5,63,98,2325262668
91,19,19,Jits_Linear_5,3,5,80,127,2325269876
91,19,19,Jits_Linear_5,0,1,48,40,2325913812
91,19,19,Jits_Linear_5,1,5,56,103,2325959996
91,19,19,Jits_Linear_5,2,5,63,98,2325979484
91,19,19,Jits_Linear_5,3,5,80,127,2325989604
91,19,19,Jits_Linear_5,0,1,48,43,2326596176
91,19,19,Jits_Linear_5,1,5,63,98,2326600184
91,19,19,Jits_Linear_5,2,5,80,127,2326610380
91,19,19,Jits_Linear_5,3,5,56,103,2326629720
91,19,19,Jits_Linear_5,0,5,63,98,2327290620
91,19,19,Jits_Linear_5,1,1,48,32,2327352660
91,19,19,Jits_Linear_5,2,5,56,103,2327369988
91,19,19,Jits_Linear_5,3,5,80,127,2327373208
91,19,19,Jits_Linear_5,0,5,63,98,2327980556
91,19,19,Jits_Linear_5,1,5,56,103,2327999968
91,19,19,Jits_Linear_5,2,1,48,47,2328003536
91,19,19,Jits_Linear_5,3,5,80,127,2328029488
91,19,19,Jits_Linear_5,0,1,48,38,2328617180
91,19,19,Jits_Linear_5,1,5,56,103,2328669588
91,19,19,Jits_Linear_5,2,5,63,98,2328689976
91,19,19,Jits_Linear_5,3,5,80,127,2328700320
91,19,19,Jits_Linear_5,0,1,48,41,2329310400
91,19,19,Jits_Linear_5,1,5,56,103,2329389492
91,19,19,Jits_Linear_5,2,5,63,98,2329420420
91,19,19,Jits_Linear_5,3,5,80,127,2329423636
91,19,19,Jits_Linear_5,0,1,48,44,2329965852
91,19,19,Jits_Linear_5,1,5,56,103,2330029572
91,19,19,Jits_Linear_5,2,5,63,98,2330070396
91,19,19,Jits_Linear_5,3,5,80,127,2330129840
91,19,19,Jits_Linear_5,0,1,48,43,2330635408
91,19,19,Jits_Linear_5,1,5,56,103,2330750288
91,19,19,Jits_Linear_5,2,5,63,98,2330759512
91,19,19,Jits_Linear_5,3,5,80,127,2330819828
91,19,19,Jits_Linear_5,0,1,48,36,2331379416
91,19,19,Jits_Linear_5,1,5,56,103,2331449744
91,19,19,Jits_Linear_5,2,5,80,127,2331470352
91,19,19,Jits_Linear_5,3,5,63,98,2331499864
91,19,19,Jits_Linear_5,0,1,48,40,2332076680
91,19,19,Jits_Linear_5,1,5,80,127,2332150292
91,19,19,Jits_Linear_5,2,5,56,103,2332160516
91,19,19,Jits_Linear_5,3,5,63,98,2332179836
91,19,19,Jits_Linear_5,0,1,48,46,2332803860
91,19,19,Jits_Linear_5,1,5,63,98,2332840380
91,19,19,Jits_Linear_5,2,5,80,127,2332920460
91,19,19,Jits_Linear_5,3,5,56,103,2332930460
91,19,19,Jits_Linear_5,0,1,48,46,2333492900
91,19,19,Jits_Linear_5,1,5,80,127,2333600352
91,19,19,Jits_Linear_5,2,5,56,103,2333619616
91,19,19,Jits_Linear_5,3,5,63,98,2333622536
91,19,19,Jits_Linear_5,0,1,48,46,2334207696
91,19,19,Jits_Linear_5,1,5,63,98,2334280184
91,19,19,Jits_Linear_5,2,5,80,127,2334283324
91,19,19,Jits_Linear_5,3,5,56,103,2334339516
91,19,19,Jits_Linear_5,0,1,48,44,2334924508
91,19,19,Jits_Linear_5,1,5,56,103,2334970244
91,19,19,Jits_Linear_5,2,5,80,127,2334979492
91,19,19,Jits_Linear_5,3,5,63,98,2335020332
91,19,19,Jits_Linear_5,0,1,48,42,2335605076
91,19,19,Jits_Linear_5,1,5,56,103,2335660480
91,19,19,Jits_Linear_5,2,5,63,98,2335719736
91,19,19,Jits_Linear_5,3,5,80,127,2335730304
91,19,19,Jits_Linear_5,0,1,48,47,2336319000
91,19,19,Jits_Linear_5,1,5,63,98,2336380236
91,19,19,Jits_Linear_5,2,5,80,127,2336420384
91,19,19,Jits_Linear_5,3,5,56,103,2336460248
91,19,19,Jits_Linear_5,0,1,48,41,2337062204
91,19,19,Jits_Linear_5,1,5,56,103,2337089952
91,19,19,Jits_Linear_5,2,5,63,98,2337169736
91,19,19,Jits_Linear_5,3,5,80,127,2337173100
91,19,19,Jits_Linear_5,0,1,48,47,2337770312
91,19,19,Jits_Linear_5,1,5,80,127,2337870448
91,19,19,Jits_Linear_5,2,5,56,103,2337899900
91,19,19,Jits_Linear_5,3,5,63,98,2337902816
91,19,19,Jits_Linear_5,0,1,48,47,2338527684
91,19,19,Jits_Linear_5,1,5,56,103,2338550400
91,19,19,Jits_Linear_5,2,5,80,127,2338569468
91,19,19,Jits_Linear_5,3,5,63,98,2338609408
91,19,19,Jits_Linear_5,0,1,48,46,2339235584
91,19,19,Jits_Linear_5,1,5,80,127,2339249408
91,19,19,Jits_Linear_5,2,5,63,98,2339270164
91,19,19,Jits_Linear_5,3,5,56,103,2339331392
91,19,19,Jits_Linear_5,0,1,48,48,2339962760
91,19,19,Jits_Linear_5,1,5,63,98,2339979652
91,19,19,Jits_Linear_5,2,5,56,103,2339989848
91,19,19,Jits_Linear_5,3,5,80,127,2340040124
91,19,19,Jits_Linear_5,0,1,48,46,2340677808
91,19,19,Jits_Linear_5,1,5,56,103,2340690260
91,19,19,Jits_Linear_5,2,5,63,98,2340709676
91,19,19,Jits_Linear_5,3,5,80,127,2340719948
91,19,19,Jits_Linear_5,0,1,48,44,2341384056
91,19,19,Jits_Linear_5,1,5,56,103,2341410236
91,19,19,Jits_Linear_5,2,5,63,98,2341413228
91,19,19,Jits_Linear_5,3,5,80,127,2341429500
91,19,19,Jits_Linear_5,0,1,48,49,2342099956
91,19,19,Jits_Linear_5,1,5,63,98,2342180400
91,19,19,Jits_Linear_5,2,5,56,103,2342209988
91,19,19,Jits_Linear_5,3,5,80,127,2342239588
91,19,19,Jits_Linear_5,0,1,48,46,2342849460
91,19,19,Jits_Linear_5,1,5,80,127,2342870316
91,19,19,Jits_Linear_5,2,5,56,103,2342959412
91,19,19,Jits_Linear_5,3,5,63,98,2342962552
91,19,19,Jits_Linear_5,0,1,48,49,2343587180
91,19,19,Jits_Linear_5,1,5,56,103,2343599344
91,19,19,Jits_Linear_5,2,5,80,127,2343602568
91,19,19,Jits_Linear_5,3,5,63,98,2343681180
91,19,19,Jits_Linear_5,0,1,48,46,2344327852
91,19,19,Jits_Linear_5,1,5,80,127,2344329588
91,19,19,Jits_Linear_5,2,5,63,98,2344390132
91,19,19,Jits_Linear_5,3,5,56,103,2344419584
91,19,19,Jits_Linear_5,0,5,63,98,2345059612
91,19,19,Jits_Linear_5,1,5,80,127,2345070108
91,19,19,Jits_Linear_5,2,1,48,47,2345078628
91,19,19,Jits_Linear_5,3,5,56,103,2345139484
91,19,19,Jits_Linear_5,0,1,48,47,2345779708
91,19,19,Jits_Linear_5,1,5,56,103,2345810224
91,19,19,Jits_Linear_5,2,5,80,127,2345839976
91,19,19,Jits_Linear_5,3,5,63,98,2345890164
91,19,19,Jits_Linear_5,0,1,48,45,2346513988
91,19,19,Jits_Linear_5,1,5,63,98,2346589472
91,19,19,Jits_Linear_5,2,5,56,103,2346620400
91,19,19,Jits_Linear_5,3,5,80,127,2346623320
91,19,19,Jits_Linear_5,0,1,48,51,2347230272
91,19,19,Jits_Linear_5,1,5,63,98,2347329956
91,19,19,Jits_Linear_5,2,5,80,127,2347350344
91,19,19,Jits_Linear_5,3,5,56,103,2347359716
91,19,19,Jits_Linear_5,0,1,48,45,2348003668
91,19,19,Jits_Linear_5,1,5,56,103,2348079548
91,19,19,Jits_Linear_5,2,5,63,98,2348082612
91,19,19,Jits_Linear_5,3,5,80,127,2348100816
91,19,19,Jits_Linear_5,0,1,48,40,2348726636
91,19,19,Jits_Linear_5,1,5,56,103,2348780016
91,19,19,Jits_Linear_5,2,5,63,98,2348790064
91,19,19,Jits_Linear_5,3,5,80,127,2348819692
91,19,19,Jits_Linear_5,0,1,48,44,2349479888
91,19,19,Jits_Linear_5,1,5,63,98,2349550044
91,19,19,Jits_Linear_5,2,5,80,127,2349570380
91,19,19,Jits_Linear_5,3,5,56,103,2349610376
91,19,19,Jits_Linear_5,0,1,48,43,2350224588
91,19,19,Jits_Linear_5,1,5,56,103,2350330172
91,19,19,Jits_Linear_5,2,5,63,98,2350370032
91,19,19,Jits_Linear_5,3,5,80,127,2350373252
91,19,19,Jits_Linear_5,0,5,80,127,2351020472
91,19,19,Jits_Linear_5,1,1,48,42,2351028020
91,19,19,Jits_Linear_5,2,5,56,103,2351060332
91,19,19,Jits_Linear_5,3,5,63,98,2351109436
91,19,19,Jits_Linear_5,0,1,48,46,2351764856
91,19,19,Jits_Linear_5,1,5,56,103,2351830300
91,19,19,Jits_Linear_5,2,5,80,127,2351839820
91,19,19,Jits_Linear_5,3,5,63,98,2351870256
91,19,19,Jits_Linear_5,0,1,48,44,2352521180
91,19,19,Jits_Linear_5,1,5,56,103,2352529900
91,19,19,Jits_Linear_5,2,5,80,127,2352569692
91,19,19,Jits_Linear_5,3,5,63,98,2352620776
91,19,19,Jits_Linear_5,0,1,48,35,2353247984
91,19,19,Jits_Linear_5,1,5,56,103,2353289440
91,19,19,Jits_Linear_5,2,5,80,127,2353329384
91,19,19,Jits_Linear_5,3,5,63,98,2353379716
91,19,19,Jits_Linear_5,0,1,48,43,2353981968
91,19,19,Jits_Linear_5,1,5,80,127,2354040212
91,19,19,Jits_Linear_5,2,5,63,98,2354119924
91,19,19,Jits_Linear_5,3,5,56,103,2354130192
91,19,19,Jits_Linear_5,0,1,48,36,2354739112
91,19,19,Jits_Linear_5,1,5,80,127,2354850088
91,19,19,Jits_Linear_5,2,5,56,103,2354860360
91,19,19,Jits_Linear_5,3,5,63,98,2354880144
91,19,19,Jits_Linear_5,0,1,48,47,2355505316
91,19,19,Jits_Linear_5,1,5,63,98,2355580348
91,19,19,Jits_Linear_5,2,5,56,103,2355650088
91,19,19,Jits_Linear_5,3,5,80,127,2355653156
91,19,19,Jits_Linear_5,0,1,48,43,2356267632
91,19,19,Jits_Linear_5,1,5,80,127,2356340180
91,19,19,Jits_Linear_5,2,5,63,98,2356390368
91,19,19,Jits_Linear_5,3,5,56,103,2356430156
91,19,19,Jits_Linear_5,0,1,48,48,2357049420
91,19,19,Jits_Linear_5,1,5,63,98,2357150124
91,19,19,Jits_Linear_5,2,5,56,103,2357189992
91,19,19,Jits_Linear_5,3,5,80,127,2357200412
91,19,19,Jits_Linear_5,0,1,48,48,2357834804
91,19,19,Jits_Linear_5,1,5,63,98,2357909832
91,19,19,Jits_Linear_5,2,5,56,103,2357930296
91,19,19,Jits_Linear_5,3,5,80,127,2357949988
91,19,19,Jits_Linear_5,0,1,48,48,2358578016
91,19,19,Jits_Linear_5,1,5,80,127,2358640076
91,19,19,Jits_Linear_5,2,5,56,103,2358650272
91,19,19,Jits_Linear_5,3,5,63,98,2358669536
91,19,19,Jits_Linear_5,0,1,48,41,2359332076
91,19,19,Jits_Linear_5,1,5,63,98,2359439828
91,19,19,Jits_Linear_5,2,5,56,103,2359479620
91,19,19,Jits_Linear_5,3,5,80,127,2359510344
91,19,19,Jits_Linear_5,0,1,48,43,2360136408
91,19,19,Jits_Linear_5,1,5,56,103,2360220136
91,19,19,Jits_Linear_5,2,5,63,98,2360249652
91,19,19,Jits_Linear_5,3,5,80,127,2360280372
91,19,19,Jits_Linear_5,0,1,48,45,2360929972
91,19,19,Jits_Linear_5,1,5,80,127,2360969484
91,19,19,Jits_Linear_5,2,5,56,103,2361040272
91,19,19,Jits_Linear_5,3,5,63,98,2361043340
91,19,19,Jits_Linear_5,0,1,48,38,2361724184
91,19,19,Jits_Linear_5,1,5,56,103,2361760032
91,19,19,Jits_Linear_5,2,5,63,98,2361810236
91,19,19,Jits_Linear_5,3,5,80,127,2361840044
91,19,19,Jits_Linear_5,0,1,48,45,2362506424
91,19,19,Jits_Linear_5,1,5,63,98,2362520012
91,19,19,Jits_Linear_5,2,5,80,127,2362523304
91,19,19,Jits_Linear_5,3,5,56,103,2362580328
91,19,19,Jits_Linear_5,0,1,48,43,2363246836
91,19,19,Jits_Linear_5,1,5,56,103,2363330112
91,19,19,Jits_Linear_5,2,5,80,127,2363340084
91,19,19,Jits_Linear_5,3,5,63,98,2363390372
91,19,19,Jits_Linear_5,0,1,48,45,2364008860
91,19,19,Jits_Linear_5,1,5,63,98,2364089948
91,19,19,Jits_Linear_5,2,5,56,103,2364100072
91,19,19,Jits_Linear_5,3,5,80,127,2364129804
91,19,19,Jits_Linear_5,0,1,48,49,2364776916
91,19,19,Jits_Linear_5,1,5,63,98,2364910000
91,19,19,Jits_Linear_5,2,5,80,127,2364913216
91,19,19,Jits_Linear_5,3,5,56,103,2364939776
91,19,19,Jits_Linear_5,0,1,48,35,2365540576
91,19,19,Jits_Linear_5,1,5,63,98,2365719904
91,19,19,Jits_Linear_5,2,5,56,103,2365740440
91,19,19,Jits_Linear_5,3,5,80,127,2365743580
91,19,19,Jits_Linear_5,0,1,48,48,2366399304
91,19,19,Jits_Linear_5,1,5,63,98,2366469560
91,19,19,Jits_Linear_5,2,5,56,103,2366540204
91,19,19,Jits_Linear_5,3,5,80,127,2366559688
91,19,19,Jits_Linear_5,0,1,48,41,2367211596
91,19,19,Jits_Linear_5,1,5,56,103,2367249852
91,19,19,Jits_Linear_5,2,5,63,98,2367260124
91,19,19,Jits_Linear_5,3,5,80,127,2367350168
91,19,19,Jits_Linear_5,0,1,48,47,2367975764
91,19,19,Jits_Linear_5,1,5,56,103,2368059960
91,19,19,Jits_Linear_5,2,5,80,127,2368099960
91,19,19,Jits_Linear_5,3,5,63,98,2368109936
91,19,19,Jits_Linear_5,0,1,48,46,2368749392
91,19,19,Jits_Linear_5,1,5,56,103,2368879948
91,19,19,Jits_Linear_5,2,5,63,98,2368910072
91,19,19,Jits_Linear_5,3,5,80,127,2368940348
91,19,19,Jits_Linear_5,0,1,48,42,2369593764
91,19,19,Jits_Linear_5,1,5,80,127,2369639800
91,19,19,Jits_Linear_5,2,5,63,98,2369679816
91,19,19,Jits_Linear_5,3,5,56,103,2369700332
91,19,19,Jits_Linear_5,0,1,48,47,2370366704
91,19,19,Jits_Linear_5,1,5,56,103,2370479336
91,19,19,Jits_Linear_5,2,5,80,127,2370500020
91,19,19,Jits_Linear_5,3,5,63,98,2370520632
91,19,19,Jits_Linear_5,0,1,48,43,2371179528
91,19,19,Jits_Linear_5,1,5,63,98,2371249676
91,19,19,Jits_Linear_5,2,5,56,103,2371259800
91,19,19,Jits_Linear_5,3,5,80,127,2371320100
91,19,19,Jits_Linear_5,0,1,48,36,2371987144
91,19,19,Jits_Linear_5,1,5,56,103,2372059484
91,19,19,Jits_Linear_5,2,5,63,98,2372130152
91,19,19,Jits_Linear_5,3,5,80,127,2372149716
91,19,19,Jits_Linear_5,0,1,48,28,2372781164
91,19,19,Jits_Linear_5,1,5,56,103,2372869696
91,19,19,Jits_Linear_5,2,5,63,98,2372900184
91,19,19,Jits_Linear_5,3,5,80,127,2372940124
91,19,19,Jits_Linear_5,0,1,48,42,2373581004
91,19,19,Jits_Linear_5,1,5,63,98,2373670288
91,19,19,Jits_Linear_5,2,5,56,103,2373720556
91,19,19,Jits_Linear_5,3,5,80,127,2373729852
91,19,19,Jits_Linear_5,0,1,48,46,2374433240
91,19,19,Jits_Linear_5,1,5,56,103,2374520108
91,19,19,Jits_Linear_5,2,5,63,98,2374570300
91,19,19,Jits_Linear_5,3,5,80,127,2374579520
91,19,19,Jits_Linear_5,0,1,48,47,2375295052
91,19,19,Jits_Linear_5,1,5,56,103,2375299428
91,19,19,Jits_Linear_5,2,5,63,98,2375309772
91,19,19,Jits_Linear_5,3,5,80,127,2375389572
91,19,19,Jits_Linear_5,0,9999,9999,9999,2266497136
91,19,19,Jits_Linear_5,1,9999,9999,9999,2266977376
91,19,19,Jits_Linear_5,2,9999,9999,9999,2267457612
91,19,19,Jits_Linear_5,3,9999,9999,9999,2267937892
91,19,19,Jits_Linear_5,4,9999,9999,9999,2268417132
91,19,19,Jits_Linear_5,5,9999,9999,9999,2268907584
91,19,19,Jits_Linear_5,6,9999,9999,9999,2269398128
91,19,19,Jits_Linear_5,7,9999,9999,9999,2269897832
91,19,19,Jits_Linear_5,8,9999,9999,9999,2270387272
91,19,19,Jits_Linear_5,9,9999,9999,9999,2270877820
91,19,19,Jits_Linear_5,10,9999,9999,9999,2271377508
91,19,19,Jits_Linear_5,11,9999,9999,9999,2271877200
91,19,19,Jits_Linear_5,12,9999,9999,9999,2272377932
91,19,19,Jits_Linear_5,13,9999,9999,9999,2272877696
91,19,19,Jits_Linear_5,14,9999,9999,9999,2273377368
91,19,19,Jits_Linear_5,15,9999,9999,9999,2273887320
91,19,19,Jits_Linear_5,16,9999,9999,9999,2274397272
91,19,19,Jits_Linear_5,17,9999,9999,9999,2274907224
91,19,19,Jits_Linear_5,18,9999,9999,9999,2275417176
91,19,19,Jits_Linear_5,19,9999,9999,9999,2275927132
91,19,19,Jits_Linear_5,20,9999,9999,9999,2276447348
91,19,19,Jits_Linear_5,21,9999,9999,9999,2276967488
91,19,19,Jits_Linear_5,22,9999,9999,9999,2277487700
91,19,19,Jits_Linear_5,23,9999,9999,9999,2278007920
91,19,19,Jits_Linear_5,24,9999,9999,9999,2278528064
91,19,19,Jits_Linear_5,25,9999,9999,9999,2279067752
91,19,19,Jits_Linear_5,26,9999,9999,9999,2279597116
91,19,19,Jits_Linear_5,27,9999,9999,9999,2280127568
91,19,19,Jits_Linear_5,28,9999,9999,9999,2280657980
91,19,19,Jits_Linear_5,29,9999,9999,9999,2281187412
91,19,19,Jits_Linear_5,30,9999,9999,9999,2281728104
91,19,19,Jits_Linear_5,31,9999,9999,9999,2282277992
91,19,19,Jits_Linear_5,32,9999,9999,9999,2282817608
91,19,19,Jits_Linear_5,33,9999,9999,9999,2283357308
91,19,19,Jits_Linear_5,34,9999,9999,9999,2283897976
91,19,19,Jits_Linear_5,35,9999,9999,9999,2284447864
91,19,19,Jits_Linear_5,36,9999,9999,9999,2284997740
91,19,19,Jits_Linear_5,37,9999,9999,9999,2285547628
91,19,19,Jits_Linear_5,38,9999,9999,9999,2286097480
91,19,19,Jits_Linear_5,39,9999,9999,9999,2286647364
91,19,19,Jits_Linear_5,40,9999,9999,9999,2287207520
91,19,19,Jits_Linear_5,41,9999,9999,9999,2287767664
91,19,19,Jits_Linear_5,42,9999,9999,9999,2288327740
91,19,19,Jits_Linear_5,43,9999,9999,9999,2288887884
91,19,19,Jits_Linear_5,44,9999,9999,9999,2289448024
91,19,19,Jits_Linear_5,45,9999,9999,9999,2290017388
91,19,19,Jits_Linear_5,46,9999,9999,9999,2290587724
91,19,19,Jits_Linear_5,47,9999,9999,9999,2291158072
91,19,19,Jits_Linear_5,48,9999,9999,9999,2291737656
91,19,19,Jits_Linear_5,49,9999,9999,9999,2292308088
91,19,19,Jits_Linear_5,50,9999,9999,9999,2292887636
91,19,19,Jits_Linear_5,51,9999,9999,9999,2293467204
91,19,19,Jits_Linear_5,52,9999,9999,9999,2294047848
91,19,19,Jits_Linear_5,53,9999,9999,9999,2294627408
91,19,19,Jits_Linear_5,54,9999,9999,9999,2295208008
91,19,19,Jits_Linear_5,55,9999,9999,9999,2295797820
91,19,19,Jits_Linear_5,56,9999,9999,9999,2296387656
91,19,19,Jits_Linear_5,57,9999,9999,9999,2296977464
91,19,19,Jits_Linear_5,58,9999,9999,9999,2297567360
91,19,19,Jits_Linear_5,59,9999,9999,9999,2298157112
91,19,19,Jits_Linear_5,60,9999,9999,9999,2298757200
91,19,19,Jits_Linear_5,61,9999,9999,9999,2299357276
91,19,19,Jits_Linear_5,62,9999,9999,9999,2299957304
91,19,19,Jits_Linear_5,63,9999,9999,9999,2300557384
91,19,19,Jits_Linear_5,64,9999,9999,9999,2301157468
91,19,19,Jits_Linear_5,65,9999,9999,9999,2301767760
91,19,19,Jits_Linear_5,66,9999,9999,9999,2302378108
91,19,19,Jits_Linear_5,67,9999,9999,9999,2302987348
91,19,19,Jits_Linear_5,68,9999,9999,9999,2303597696
91,19,19,Jits_Linear_5,69,9999,9999,9999,2304207972
91,19,19,Jits_Linear_5,70,9999,9999,9999,2304827472
91,19,19,Jits_Linear_5,71,9999,9999,9999,2305448004
91,19,19,Jits_Linear_5,72,9999,9999,9999,2306067516
91,19,19,Jits_Linear_5,73,9999,9999,9999,2306688124
91,19,19,Jits_Linear_5,74,9999,9999,9999,2307317876
91,19,19,Jits_Linear_5,75,9999,9999,9999,2307947640
91,19,19,Jits_Linear_5,76,9999,9999,9999,2308577396
91,19,19,Jits_Linear_5,77,9999,9999,9999,2309207100
91,19,19,Jits_Linear_5,78,9999,9999,9999,2309837908
91,19,19,Jits_Linear_5,79,9999,9999,9999,2310467684
91,19,19,Jits_Linear_5,80,9999,9999,9999,2311107700
91,19,19,Jits_Linear_5,81,9999,9999,9999,2311747664
91,19,19,Jits_Linear_5,82,9999,9999,9999,2312387676
91,19,19,Jits_Linear_5,83,9999,9999,9999,2313027712
91,19,19,Jits_Linear_5,84,9999,9999,9999,2313667652
91,19,19,Jits_Linear_5,85,9999,9999,9999,2314317880
91,19,19,Jits_Linear_5,86,9999,9999,9999,2314967108
91,19,19,Jits_Linear_5,87,9999,9999,9999,2315617348
91,19,19,Jits_Linear_5,88,9999,9999,9999,2316267624
91,19,19,Jits_Linear_5,89,9999,9999,9999,2316917848
91,19,19,Jits_Linear_5,90,9999,9999,9999,2317577296
91,19,19,Jits_Linear_5,91,9999,9999,9999,2318237756
91,19,19,Jits_Linear_5,92,9999,9999,9999,2318897264
91,19,19,Jits_Linear_5,93,9999,9999,9999,2319557732
91,19,19,Jits_Linear_5,94,9999,9999,9999,2320217176
91,19,19,Jits_Linear_5,95,9999,9999,9999,2320887912
91,19,19,Jits_Linear_5,96,9999,9999,9999,2321557612
91,19,19,Jits_Linear_5,97,9999,9999,9999,2322227320
91,19,19,Jits_Linear_5,98,9999,9999,9999,2322897976
91,19,19,Jits_Linear_5,99,9999,9999,9999,2323567680
91,19,19,Jits_Linear_5,100,9999,9999,9999,2324247656
91,19,19,Jits_Linear_5,101,9999,9999,9999,2324927604
91,19,19,Jits_Linear_5,102,9999,9999,9999,2325607492
91,19,19,Jits_Linear_5,103,9999,9999,9999,2326287468
91,19,19,Jits_Linear_5,104,9999,9999,9999,2326967412
91,19,19,Jits_Linear_5,105,9999,9999,9999,2327657568
91,19,19,Jits_Linear_5,106,9999,9999,9999,2328347732
91,19,19,Jits_Linear_5,107,9999,9999,9999,2329037936
91,19,19,Jits_Linear_5,108,9999,9999,9999,2329728092
91,19,19,Jits_Linear_5,109,9999,9999,9999,2330427468
91,19,19,Jits_Linear_5,110,9999,9999,9999,2331127868
91,19,19,Jits_Linear_5,111,9999,9999,9999,2331827312
91,19,19,Jits_Linear_5,112,9999,9999,9999,2332527736
91,19,19,Jits_Linear_5,113,9999,9999,9999,2333227116
91,19,19,Jits_Linear_5,114,9999,9999,9999,2333927512
91,19,19,Jits_Linear_5,115,9999,9999,9999,2334637144
91,19,19,Jits_Linear_5,116,9999,9999,9999,2335347836
91,19,19,Jits_Linear_5,117,9999,9999,9999,2336057404
91,19,19,Jits_Linear_5,118,9999,9999,9999,2336768092
91,19,19,Jits_Linear_5,119,9999,9999,9999,2337487964
91,19,19,Jits_Linear_5,120,9999,9999,9999,2338207868
91,19,19,Jits_Linear_5,121,9999,9999,9999,2338927696
91,19,19,Jits_Linear_5,122,9999,9999,9999,2339647600
91,19,19,Jits_Linear_5,123,9999,9999,9999,2340367432
91,19,19,Jits_Linear_5,124,9999,9999,9999,2341087304
91,19,19,Jits_Linear_5,125,9999,9999,9999,2341817460
91,19,19,Jits_Linear_5,126,9999,9999,9999,2342547556
91,19,19,Jits_Linear_5,127,9999,9999,9999,2343277644
91,19,19,Jits_Linear_5,128,9999,9999,9999,2344007800
91,19,19,Jits_Linear_5,129,9999,9999,9999,2344737896
91,19,19,Jits_Linear_5,130,9999,9999,9999,2345477204
91,19,19,Jits_Linear_5,131,9999,9999,9999,2346217536
91,19,19,Jits_Linear_5,132,9999,9999,9999,2346957888
91,19,19,Jits_Linear_5,133,9999,9999,9999,2347697276
91,19,19,Jits_Linear_5,134,9999,9999,9999,2348437628
91,19,19,Jits_Linear_5,135,9999,9999,9999,2349187124
91,19,19,Jits_Linear_5,136,9999,9999,9999,2349937752
91,19,19,Jits_Linear_5,137,9999,9999,9999,2350687292
91,19,19,Jits_Linear_5,138,9999,9999,9999,2351437916
91,19,19,Jits_Linear_5,139,9999,9999,9999,2352187512
91,19,19,Jits_Linear_5,140,9999,9999,9999,2352947276
91,19,19,Jits_Linear_5,141,9999,9999,9999,2353707112
91,19,19,Jits_Linear_5,142,9999,9999,9999,2354467928
91,19,19,Jits_Linear_5,143,9999,9999,9999,2355227768
91,19,19,Jits_Linear_5,144,9999,9999,9999,2355987524
91,19,19,Jits_Linear_5,145,9999,9999,9999,2356757628
91,19,19,Jits_Linear_5,146,9999,9999,9999,2357527660
91,19,19,Jits_Linear_5,147,9999,9999,9999,2358297688
91,19,19,Jits_Linear_5,148,9999,9999,9999,2359067712
91,19,19,Jits_Linear_5,149,9999,9999,9999,2359837816
91,19,19,Jits_Linear_5,150,9999,9999,9999,2360618104
91,19,19,Jits_Linear_5,151,9999,9999,9999,2361397336
91,19,19,Jits_Linear_5,152,9999,9999,9999,2362177628
91,19,19,Jits_Linear_5,153,9999,9999,9999,2362957904
91,19,19,Jits_Linear_5,154,9999,9999,9999,2363737148
91,19,19,Jits_Linear_5,155,9999,9999,9999,2364527696
91,19,19,Jits_Linear_5,156,9999,9999,9999,2365317192
91,19,19,Jits_Linear_5,157,9999,9999,9999,2366107740
91,19,19,Jits_Linear_5,158,9999,9999,9999,2366897248
91,19,19,Jits_Linear_5,159,9999,9999,9999,2367687804
91,19,19,Jits_Linear_5,160,9999,9999,9999,2368487500
91,19,19,Jits_Linear_5,161,9999,9999,9999,2369287224
91,19,19,Jits_Linear_5,162,9999,9999,9999,2370088036
91,19,19,Jits_Linear_5,163,9999,9999,9999,2370887808
91,19,19,Jits_Linear_5,164,9999,9999,9999,2371687500
91,19,19,Jits_Linear_5,165,9999,9999,9999,2372497464
91,19,19,Jits_Linear_5,166,9999,9999,9999,2373307500
91,19,19,Jits_Linear_5,167,9999,9999,9999,2374117456
91,19,19,Jits_Linear_5,168,9999,9999,9999,2374927444
91,19,19,Jits_Linear_5,169,9999,9999,9999,2375737404
91,20,3,ISIP_8,0,5,42,127,2442657236
91,20,3,ISIP_8,1,5,42,127,2443456840
91,20,3,ISIP_8,2,1,48,34,2443554008
91,20,3,ISIP_8,3,1,48,44,2444200288
91,20,3,ISIP_8,4,5,42,127,2444256568
91,20,3,ISIP_8,5,1,48,46,2444965536
91,20,3,ISIP_8,6,5,42,127,2445057596
91,20,3,ISIP_8,7,1,48,39,2445765648
91,20,3,ISIP_8,8,5,42,127,2445857016
91,20,3,ISIP_8,9,1,48,44,2446538152
91,20,3,ISIP_8,10,5,42,127,2446656896
91,20,3,ISIP_8,11,1,48,45,2447333696
91,20,3,ISIP_8,12,5,42,127,2447456560
91,20,3,ISIP_8,13,1,48,43,2448134124
91,20,3,ISIP_8,14,5,42,127,2448257564
91,20,3,ISIP_8,15,1,48,46,2448960264
91,20,3,ISIP_8,16,5,42,127,2449056996
91,20,3,ISIP_8,17,1,48,44,2449767324
91,20,3,ISIP_8,18,5,42,127,2449856896
91,20,3,ISIP_8,19,1,48,44,2450561900
91,20,3,ISIP_8,20,5,42,127,2450657436
91,20,3,ISIP_8,21,1,48,42,2451377344
91,20,3,ISIP_8,22,5,42,127,2451457656
91,20,3,ISIP_8,23,1,48,41,2452190760
91,20,3,ISIP_8,24,5,42,127,2452257016
91,20,3,ISIP_8,25,1,48,39,2452991788
91,20,3,ISIP_8,26,5,42,127,2453056824
91,20,3,ISIP_8,27,1,48,43,2453800944
91,20,3,ISIP_8,28,5,42,127,2453856556
91,20,3,ISIP_8,29,1,48,37,2454612424
91,20,3,ISIP_8,30,5,42,127,2454657340
91,20,3,ISIP_8,31,1,48,46,2455393908
91,20,3,ISIP_8,32,5,42,127,2455457144
91,20,3,ISIP_8,33,1,48,40,2456174488
91,20,3,ISIP_8,34,5,42,127,2456256880
91,20,3,ISIP_8,35,1,48,46,2456971980
91,20,3,ISIP_8,36,5,42,127,2457056612
91,20,3,ISIP_8,37,1,48,46,2457755184
91,20,3,ISIP_8,38,5,42,127,2457857404
91,20,3,ISIP_8,39,1,48,41,2458540260
91,20,3,ISIP_8,40,5,42,127,2458657356
91,20,3,ISIP_8,41,1,48,47,2459337220
91,20,3,ISIP_8,42,5,42,127,2459456868
91,20,3,ISIP_8,43,1,48,49,2460172584
91,20,3,ISIP_8,44,5,42,127,2460256616
91,20,3,ISIP_8,45,1,48,49,2460965212
91,20,3,ISIP_8,46,5,42,127,2461057320
91,20,3,ISIP_8,47,1,48,46,2461771080
91,20,3,ISIP_8,48,5,42,127,2461857128
91,20,3,ISIP_8,49,1,48,50,2462621824
91,20,3,ISIP_8,50,5,42,127,2462656936
91,20,3,ISIP_8,51,1,48,42,2463435244
91,20,3,ISIP_8,52,5,42,127,2463456596
91,20,3,ISIP_8,53,5,42,127,2464257412
91,20,3,ISIP_8,54,1,48,39,2464262772
91,20,3,ISIP_8,55,1,48,46,2465025092
91,20,3,ISIP_8,56,5,42,127,2465057284
91,20,3,ISIP_8,57,1,48,43,2465777752
91,20,3,ISIP_8,58,5,42,127,2465856944
91,20,3,ISIP_8,59,1,48,38,2466581776
91,20,3,ISIP_8,60,1,48,47,2467301368
91,20,3,ISIP_8,61,1,48,39,2468065496
91,20,3,ISIP_8,62,1,48,43,2468827524
91,20,3,ISIP_8,63,1,48,42,2469574592
91,20,3,ISIP_8,64,1,48,38,2470329376
91,20,3,ISIP_8,65,1,48,39,2471088632
91,20,3,ISIP_8,66,1,48,44,2471827176
91,20,3,ISIP_8,67,1,48,35,2472597812
91,20,3,ISIP_8,68,1,48,42,2473334332
91,20,3,ISIP_8,69,1,48,38,2474061064
91,20,3,ISIP_8,70,1,48,45,2474828180
91,20,3,ISIP_8,71,1,48,40,2475568224
91,20,3,ISIP_8,72,1,48,47,2476303848
91,20,3,ISIP_8,73,1,48,39,2477068872
91,20,3,ISIP_8,74,1,48,43,2477805428
91,20,3,ISIP_8,75,1,48,38,2478529620
91,20,3,ISIP_8,76,1,48,38,2479267940
91,20,3,ISIP_8,77,1,48,44,2479963696
91,20,3,ISIP_8,78,1,48,38,2480694160
91,20,3,ISIP_8,79,1,48,42,2481398748
91,20,3,ISIP_8,80,1,48,38,2482185012
91,20,3,ISIP_8,81,1,48,34,2482913212
91,20,3,ISIP_8,82,1,48,42,2483602316
91,20,3,ISIP_8,83,1,48,38,2484315284
91,20,3,ISIP_8,84,1,48,38,2485044688
91,20,3,ISIP_8,85,1,48,40,2485765876
91,20,3,ISIP_8,86,1,48,44,2486516068
91,20,3,ISIP_8,87,1,48,40,2487263440
91,20,3,ISIP_8,88,1,48,45,2487977300
91,20,3,ISIP_8,89,1,48,41,2488679568
91,20,3,ISIP_8,90,1,48,46,2489400980
91,20,3,ISIP_8,91,1,48,41,2490114096
91,20,3,ISIP_8,92,1,48,46,2490847380
91,20,3,ISIP_8,93,1,48,34,2491588016
91,20,3,ISIP_8,94,1,48,45,2492308760
91,20,3,ISIP_8,95,1,48,48,2493008320
91,20,3,ISIP_8,96,1,48,39,2493689640
91,20,3,ISIP_8,97,1,48,42,2494409684
91,20,3,ISIP_8,98,1,48,43,2495138432
91,20,3,ISIP_8,99,1,48,43,2495840328
91,20,3,ISIP_8,100,1,48,40,2496550520
91,20,3,ISIP_8,101,1,48,42,2497241324
91,20,3,ISIP_8,102,1,48,40,2497941648
91,20,3,ISIP_8,103,1,48,40,2498660216
91,20,3,ISIP_8,104,1,48,40,2499379232
91,20,3,ISIP_8,105,1,48,42,2500086884
91,20,3,ISIP_8,106,1,48,39,2500801464
91,20,3,ISIP_8,107,1,48,41,2501494384
91,20,3,ISIP_8,108,1,48,44,2502183040
91,20,3,ISIP_8,109,1,48,39,2502905128
91,20,3,ISIP_8,110,1,48,38,2503618292
91,20,3,ISIP_8,111,1,48,44,2504308368
91,20,3,ISIP_8,112,1,48,41,2505009204
91,20,3,ISIP_8,113,1,48,30,2505721712
91,20,3,ISIP_8,114,1,48,43,2506415052
91,20,3,ISIP_8,115,1,48,30,2507122936
91,20,3,ISIP_8,116,1,48,41,2507835076
91,20,3,ISIP_8,117,1,48,43,2508525800
91,20,3,ISIP_8,118,1,48,45,2509276388
91,20,3,ISIP_8,119,1,48,36,2509989276
91,20,3,ISIP_8,120,1,48,39,2510666184
91,20,3,ISIP_8,121,1,48,42,2511370312
91,20,3,ISIP_8,122,1,48,40,2512080852
91,20,3,ISIP_8,123,1,48,32,2512796812
91,20,3,ISIP_8,124,1,48,38,2513474844
91,20,3,ISIP_8,125,1,48,21,2513538104
91,20,3,ISIP_8,126,1,48,37,2514218676
91,20,3,ISIP_8,127,1,48,33,2514961564
91,20,3,ISIP_8,128,1,48,48,2515696632
91,20,3,ISIP_8,129,1,48,40,2516428152
91,20,3,ISIP_8,130,1,48,41,2517128400
91,20,3,ISIP_8,131,1,48,40,2517839032
91,20,3,ISIP_8,132,1,48,40,2518546612
91,20,3,ISIP_8,133,1,48,40,2519268376
91,20,3,ISIP_8,134,1,48,42,2519956804
91,20,3,ISIP_8,135,1,48,38,2520676048
91,20,3,ISIP_8,136,1,48,37,2521386840
91,20,3,ISIP_8,137,1,48,44,2522048848
91,20,3,ISIP_8,138,1,48,37,2522769516
91,20,3,ISIP_8,139,1,48,41,2523434220
91,20,3,ISIP_8,140,1,48,31,2524145284
91,20,3,ISIP_8,141,1,48,37,2524833416
91,20,3,ISIP_8,142,1,48,29,2525537480
91,20,3,ISIP_8,143,1,48,38,2526230248
91,20,3,ISIP_8,144,1,48,33,2526954556
91,20,3,ISIP_8,145,1,48,38,2527644180
91,20,3,ISIP_8,146,1,48,34,2528345328
91,20,3,ISIP_8,147,1,48,37,2529045184
91,20,3,ISIP_8,148,1,48,34,2529749228
91,20,3,ISIP_8,149,1,48,39,2530441248
91,20,3,ISIP_8,150,1,48,38,2531125108
91,20,3,ISIP_8,151,1,48,41,2531803572
91,20,3,ISIP_8,152,1,48,38,2532471356
91,20,3,ISIP_8,153,1,48,39,2533178112
91,20,3,ISIP_8,154,1,48,39,2533895564
91,20,3,ISIP_8,155,1,48,40,2534603328
91,20,3,ISIP_8,156,1,48,42,2535272612
91,20,3,ISIP_8,157,1,48,42,2535967100
91,20,3,ISIP_8,158,1,48,40,2536652736
91,20,3,ISIP_8,159,1,48,40,2537366220
91,20,3,ISIP_8,160,1,48,38,2538064004
91,20,3,ISIP_8,161,1,48,38,2538734456
91,20,3,ISIP_8,162,1,48,38,2539377544
91,20,3,ISIP_8,163,1,48,40,2540110480
91,20,3,ISIP_8,164,1,48,24,2540166104
91,20,3,ISIP_8,165,1,48,32,2540792160
91,20,3,ISIP_8,166,1,48,43,2541476820
91,20,3,ISIP_8,167,1,48,40,2542193904
91,20,3,ISIP_8,168,1,48,46,2542845900
91,20,3,ISIP_8,169,1,48,44,2543547248
91,20,3,ISIP_8,170,1,48,43,2544211136
91,20,3,ISIP_8,171,1,48,38,2544890140
91,20,3,ISIP_8,172,1,48,38,2545608988
91,20,3,ISIP_8,173,1,48,43,2546257104
91,20,3,ISIP_8,174,1,48,34,2546961540
91,20,3,ISIP_8,175,1,48,37,2547654280
91,20,3,ISIP_8,176,1,48,41,2548346980
91,20,3,ISIP_8,177,1,48,36,2549055828
91,20,3,ISIP_8,178,1,48,31,2549730980
91,20,3,ISIP_8,179,1,48,37,2550404072
91,20,3,ISIP_8,180,1,48,37,2551077924
91,20,3,ISIP_8,181,1,48,33,2551757052
91,20,3,ISIP_8,182,1,48,35,2552444060
91,20,3,ISIP_8,183,1,48,38,2553133908
91,20,3,ISIP_8,184,1,48,41,2553841076
91,20,3,ISIP_8,185,1,48,41,2554541968
91,20,3,ISIP_8,186,1,48,36,2555193000
91,20,3,ISIP_8,187,1,48,29,2555930052
91,20,3,ISIP_8,188,1,48,37,2556614044
91,20,3,ISIP_8,189,1,48,34,2557240620
91,20,3,ISIP_8,190,1,48,34,2557924084
91,20,3,ISIP_8,191,1,48,30,2558610856
91,20,3,ISIP_8,192,1,48,37,2559305120
91,20,3,ISIP_8,193,1,48,37,2559974900
91,20,3,ISIP_8,194,1,48,35,2560625708
91,20,3,ISIP_8,195,1,48,35,2561306580
91,20,3,ISIP_8,196,1,48,36,2561981600
91,20,3,ISIP_8,197,1,48,38,2562644060
91,20,3,ISIP_8,0,9999,9999,9999,2442654796
91,20,3,ISIP_8,1,9999,9999,9999,2443454552
91,20,3,ISIP_8,2,9999,9999,9999,2444254280
91,20,3,ISIP_8,3,9999,9999,9999,2445055084
91,20,3,ISIP_8,4,9999,9999,9999,2445854816
91,20,3,ISIP_8,5,9999,9999,9999,2446654536
91,20,3,ISIP_8,6,9999,9999,9999,2447454268
91,20,3,ISIP_8,7,9999,9999,9999,2448255048
91,20,3,ISIP_8,8,9999,9999,9999,2449054780
91,20,3,ISIP_8,9,9999,9999,9999,2449854532
91,20,3,ISIP_8,10,9999,9999,9999,2450654264
91,20,3,ISIP_8,11,9999,9999,9999,2451455068
91,20,3,ISIP_8,12,9999,9999,9999,2452254800
91,20,3,ISIP_8,13,9999,9999,9999,2453054536
91,20,3,ISIP_8,14,9999,9999,9999,2453854268
91,20,3,ISIP_8,15,9999,9999,9999,2454655048
91,20,3,ISIP_8,16,9999,9999,9999,2455454780
91,20,3,ISIP_8,17,9999,9999,9999,2456254516
91,20,3,ISIP_8,18,9999,9999,9999,2457054324
91,20,3,ISIP_8,19,9999,9999,9999,2457855036
91,20,3,ISIP_8,20,9999,9999,9999,2458654768
91,20,3,ISIP_8,21,9999,9999,9999,2459454576
91,20,3,ISIP_8,22,9999,9999,9999,2460254328
91,20,3,ISIP_8,23,9999,9999,9999,2461055032
91,20,3,ISIP_8,24,9999,9999,9999,2461854840
91,20,3,ISIP_8,25,9999,9999,9999,2462654572
91,20,3,ISIP_8,26,9999,9999,9999,2463454308
91,20,3,ISIP_8,27,9999,9999,9999,2464255048
91,20,3,ISIP_8,28,9999,9999,9999,2465054772
91,20,3,ISIP_8,29,9999,9999,9999,2465854580
91,20,3,ISIP_8,30,9999,9999,9999,2466654316
91,20,3,ISIP_8,31,9999,9999,9999,2467455076
91,20,3,ISIP_8,32,9999,9999,9999,2468254804
91,20,3,ISIP_8,33,9999,9999,9999,2469054532
91,20,3,ISIP_8,34,9999,9999,9999,2469854260
91,20,3,ISIP_8,35,9999,9999,9999,2470655060
91,20,3,ISIP_8,36,9999,9999,9999,2471454792
91,20,3,ISIP_8,37,9999,9999,9999,2472254520
91,20,3,ISIP_8,38,9999,9999,9999,2473054324
91,20,3,ISIP_8,39,9999,9999,9999,2473855024
91,20,3,ISIP_8,40,9999,9999,9999,2474654828
91,20,3,ISIP_8,41,9999,9999,9999,2475454560
91,20,3,ISIP_8,42,9999,9999,9999,2476254288
91,20,3,ISIP_8,43,9999,9999,9999,2477055088
91,20,3,ISIP_8,44,9999,9999,9999,2477854812
91,20,3,ISIP_8,45,9999,9999,9999,2478654528
91,20,3,ISIP_8,46,9999,9999,9999,2479454256
91,20,3,ISIP_8,47,9999,9999,9999,2480255032
91,20,3,ISIP_8,48,9999,9999,9999,2481054836
91,20,3,ISIP_8,49,9999,9999,9999,2481854568
91,20,3,ISIP_8,50,9999,9999,9999,2482654296
91,20,3,ISIP_8,51,9999,9999,9999,2483455024
91,20,3,ISIP_8,52,9999,9999,9999,2484254828
91,20,3,ISIP_8,53,9999,9999,9999,2485054548
91,20,3,ISIP_8,54,9999,9999,9999,2485854280
91,20,3,ISIP_8,55,9999,9999,9999,2486655040
91,20,3,ISIP_8,56,9999,9999,9999,2487454768
91,20,3,ISIP_8,57,9999,9999,9999,2488254572
91,20,3,ISIP_8,58,9999,9999,9999,2489054300
91,20,3,ISIP_8,59,9999,9999,9999,2489855028
91,20,3,ISIP_8,60,9999,9999,9999,2490654828
91,20,3,ISIP_8,61,9999,9999,9999,2491454560
91,20,3,ISIP_8,62,9999,9999,9999,2492254288
91,20,3,ISIP_8,63,9999,9999,9999,2493055056
91,20,3,ISIP_8,64,9999,9999,9999,2493854772
91,20,3,ISIP_8,65,9999,9999,9999,2494654572
91,20,3,ISIP_8,66,9999,9999,9999,2495454304
91,20,3,ISIP_8,67,9999,9999,9999,2496255028
91,20,3,ISIP_8,68,9999,9999,9999,2497054832
91,20,3,ISIP_8,69,9999,9999,9999,2497854560
91,20,3,ISIP_8,70,9999,9999,9999,2498654292
91,20,3,ISIP_8,71,9999,9999,9999,2499455060
91,20,3,ISIP_8,72,9999,9999,9999,2500254776
91,20,3,ISIP_8,73,9999,9999,9999,2501054580
91,20,3,ISIP_8,74,9999,9999,9999,2501854308
91,20,3,ISIP_8,75,9999,9999,9999,2502655036
91,20,3,ISIP_8,76,9999,9999,9999,2503454768
91,20,3,ISIP_8,77,9999,9999,9999,2504254568
91,20,3,ISIP_8,78,9999,9999,9999,2505054292
91,20,3,ISIP_8,79,9999,9999,9999,2505855052
91,20,3,ISIP_8,80,9999,9999,9999,2506654780
91,20,3,ISIP_8,81,9999,9999,9999,2507454512
91,20,3,ISIP_8,82,9999,9999,9999,2508254316
91,20,3,ISIP_8,83,9999,9999,9999,2509055040
91,20,3,ISIP_8,84,9999,9999,9999,2509854768
91,20,3,ISIP_8,85,9999,9999,9999,2510654572
91,20,3,ISIP_8,86,9999,9999,9999,2511454296
91,20,3,ISIP_8,87,9999,9999,9999,2512255056
91,20,3,ISIP_8,88,9999,9999,9999,2513054784
91,20,3,ISIP_8,89,9999,9999,9999,2513854568
91,20,3,ISIP_8,90,9999,9999,9999,2514654296
91,20,3,ISIP_8,91,9999,9999,9999,2515455024
91,20,3,ISIP_8,92,9999,9999,9999,2516254828
91,20,3,ISIP_8,93,9999,9999,9999,2517054556
91,20,3,ISIP_8,94,9999,9999,9999,2517854280
91,20,3,ISIP_8,95,9999,9999,9999,2518655036
91,20,3,ISIP_8,96,9999,9999,9999,2519454768
91,20,3,ISIP_8,97,9999,9999,9999,2520254572
91,20,3,ISIP_8,98,9999,9999,9999,2521054300
91,20,3,ISIP_8,99,9999,9999,9999,2521855028
91,20,3,ISIP_8,100,9999,9999,9999,2522654828
91,20,3,ISIP_8,101,9999,9999,9999,2523454552
91,20,3,ISIP_8,102,9999,9999,9999,2524254264
91,20,3,ISIP_8,103,9999,9999,9999,2525055040
91,20,3,ISIP_8,104,9999,9999,9999,2525854768
91,20,3,ISIP_8,105,9999,9999,9999,2526654572
91,20,3,ISIP_8,106,9999,9999,9999,2527454300
91,20,3,ISIP_8,107,9999,9999,9999,2528255028
91,20,3,ISIP_8,108,9999,9999,9999,2529054824
91,20,3,ISIP_8,109,9999,9999,9999,2529854540
91,20,3,ISIP_8,110,9999,9999,9999,2530654268
91,20,3,ISIP_8,111,9999,9999,9999,2531455044
91,20,3,ISIP_8,112,9999,9999,9999,2532254772
91,20,3,ISIP_8,113,9999,9999,9999,2533054576
91,20,3,ISIP_8,114,9999,9999,9999,2533854308
91,20,3,ISIP_8,115,9999,9999,9999,2534655024
91,20,3,ISIP_8,116,9999,9999,9999,2535454816
91,20,3,ISIP_8,117,9999,9999,9999,2536254544
91,20,3,ISIP_8,118,9999,9999,9999,2537054272
91,20,3,ISIP_8,119,9999,9999,9999,2537855048
91,20,3,ISIP_8,120,9999,9999,9999,2538654780
91,20,3,ISIP_8,121,9999,9999,9999,2539454576
91,20,3,ISIP_8,122,9999,9999,9999,2540254288
91,20,3,ISIP_8,123,9999,9999,9999,2541055072
91,20,3,ISIP_8,124,9999,9999,9999,2541854800
91,20,3,ISIP_8,125,9999,9999,9999,2542654528
91,20,3,ISIP_8,126,9999,9999,9999,2543454260
91,20,3,ISIP_8,127,9999,9999,9999,2544255028
91,20,3,ISIP_8,128,9999,9999,9999,2545054816
91,20,3,ISIP_8,129,9999,9999,9999,2545854548
91,20,3,ISIP_8,130,9999,9999,9999,2546654276
91,20,3,ISIP_8,131,9999,9999,9999,2547455076
91,20,3,ISIP_8,132,9999,9999,9999,2548254808
91,20,3,ISIP_8,133,9999,9999,9999,2549054536
91,20,3,ISIP_8,134,9999,9999,9999,2549854320
91,20,3,ISIP_8,135,9999,9999,9999,2550655096
91,20,3,ISIP_8,136,9999,9999,9999,2551454824
91,20,3,ISIP_8,137,9999,9999,9999,2552254552
91,20,3,ISIP_8,138,9999,9999,9999,2553054284
91,20,3,ISIP_8,139,9999,9999,9999,2553855052
91,20,3,ISIP_8,140,9999,9999,9999,2554654840
91,20,3,ISIP_8,141,9999,9999,9999,2555454568
91,20,3,ISIP_8,142,9999,9999,9999,2556254300
91,20,3,ISIP_8,143,9999,9999,9999,2557055076
91,20,3,ISIP_8,144,9999,9999,9999,2557854804
91,20,3,ISIP_8,145,9999,9999,9999,2558654528
91,20,3,ISIP_8,146,9999,9999,9999,2559454316
91,20,3,ISIP_8,147,9999,9999,9999,2560255040
91,20,3,ISIP_8,148,9999,9999,9999,2561054772
91,20,3,ISIP_8,149,9999,9999,9999,2561854576
91,21,5,ISIP_5,0,5,42,127,2587361848
91,21,5,ISIP_5,1,5,42,127,2587862312
91,21,5,ISIP_5,2,1,48,39,2588304920
91,21,5,ISIP_5,3,5,42,127,2588362024
91,21,5,ISIP_5,4,1,48,42,2588815756
91,21,5,ISIP_5,5,5,42,127,2588861720
91,21,5,ISIP_5,6,1,48,45,2589357564
91,21,5,ISIP_5,7,5,42,127,2589361712
91,21,5,ISIP_5,8,5,42,127,2589862236
91,21,5,ISIP_5,9,1,48,47,2589864176
91,21,5,ISIP_5,10,5,42,127,2590361932
91,21,5,ISIP_5,11,1,48,43,2590365272
91,21,5,ISIP_5,12,5,42,127,2590861776
91,21,5,ISIP_5,13,1,48,46,2590869684
91,21,5,ISIP_5,14,5,42,127,2591362368
91,21,5,ISIP_5,15,1,48,49,2591365336
91,21,5,ISIP_5,16,1,48,47,2591850348
91,21,5,ISIP_5,17,5,42,127,2591862204
91,21,5,ISIP_5,18,1,48,46,2592341296
91,21,5,ISIP_5,19,5,42,127,2592361748
91,21,5,ISIP_5,20,1,48,48,2592843908
91,21,5,ISIP_5,21,5,42,127,2592861520
91,21,5,ISIP_5,22,5,42,127,2593362416
91,21,5,ISIP_5,23,1,48,47,2593373616
91,21,5,ISIP_5,24,1,48,47,2593859452
91,21,5,ISIP_5,25,5,42,127,2593861956
91,21,5,ISIP_5,26,1,48,48,2594335960
91,21,5,ISIP_5,27,5,42,127,2594361652
91,21,5,ISIP_5,28,1,48,48,2594851964
91,21,5,ISIP_5,29,5,42,127,2594861496
91,21,5,ISIP_5,30,5,42,127,2595362020
91,21,5,ISIP_5,31,1,48,47,2595383236
91,21,5,ISIP_5,32,5,42,127,2595861792
91,21,5,ISIP_5,33,1,48,49,2595878520
91,21,5,ISIP_5,34,5,42,127,2596361632
91,21,5,ISIP_5,35,1,48,46,2596370060
91,21,5,ISIP_5,36,1,48,45,2596861020
91,21,5,ISIP_5,37,5,42,127,2596862440
91,21,5,ISIP_5,38,1,48,49,2597351084
91,21,5,ISIP_5,39,5,42,127,2597361988
91,21,5,ISIP_5,40,1,48,50,2597848680
91,21,5,ISIP_5,41,5,42,127,2597861660
91,21,5,ISIP_5,42,1,48,53,2598344336
91,21,5,ISIP_5,43,5,42,127,2598361352
91,21,5,ISIP_5,44,1,48,46,2598855780
91,21,5,ISIP_5,45,5,42,127,2598862320
91,21,5,ISIP_5,46,1,48,48,2599343876
91,21,5,ISIP_5,47,5,42,127,2599361864
91,21,5,ISIP_5,48,1,48,48,2599843644
91,21,5,ISIP_5,49,5,42,127,2599861560
91,21,5,ISIP_5,50,1,48,51,2600347080
91,21,5,ISIP_5,51,5,42,127,2600362524
91,21,5,ISIP_5,52,1,48,42,2600849392
91,21,5,ISIP_5,53,5,42,127,2600862216
91,21,5,ISIP_5,54,1,48,49,2601345424
91,21,5,ISIP_5,55,5,42,127,2601361912
91,21,5,ISIP_5,56,1,48,52,2601848040
91,21,5,ISIP_5,57,5,42,127,2601861388
91,21,5,ISIP_5,58,1,48,51,2602351772
91,21,5,ISIP_5,59,5,42,127,2602362424
91,21,5,ISIP_5,60,1,48,48,2602847280
91,21,5,ISIP_5,61,5,42,127,2602861824
91,21,5,ISIP_5,62,1,48,47,2603335828
91,21,5,ISIP_5,63,5,42,127,2603361740
91,21,5,ISIP_5,64,1,48,49,2603845768
91,21,5,ISIP_5,65,5,42,127,2603862556
91,21,5,ISIP_5,66,1,48,51,2604336860
91,21,5,ISIP_5,67,5,42,127,2604362028
91,21,5,ISIP_5,68,1,48,42,2604838276
91,21,5,ISIP_5,69,5,42,127,2604861796
91,21,5,ISIP_5,70,1,48,51,2605346124
91,21,5,ISIP_5,71,5,42,127,2605361640
91,21,5,ISIP_5,72,1,48,49,2605857488
91,21,5,ISIP_5,73,5,42,127,2605862384
91,21,5,ISIP_5,74,1,48,55,2606346860
91,21,5,ISIP_5,75,5,42,127,2606361932
91,21,5,ISIP_5,76,1,48,53,2606845360
91,21,5,ISIP_5,77,5,42,127,2606861700
91,21,5,ISIP_5,78,1,48,42,2607354032
91,21,5,ISIP_5,79,1,48,50,2607830660
91,21,5,ISIP_5,80,1,48,51,2608340968
91,21,5,ISIP_5,81,1,48,48,2608826224
91,21,5,ISIP_5,82,1,48,52,2609324348
91,21,5,ISIP_5,83,1,48,52,2609807432
91,21,5,ISIP_5,84,1,48,51,2610294328
91,21,5,ISIP_5,85,1,48,52,2610817140
91,21,5,ISIP_5,86,1,48,52,2611318320
91,21,5,ISIP_5,87,1,48,53,2611808812
91,21,5,ISIP_5,88,1,48,52,2612300052
91,21,5,ISIP_5,89,1,48,52,2612782760
91,21,5,ISIP_5,90,1,48,48,2613310424
91,21,5,ISIP_5,91,1,48,47,2613801220
91,21,5,ISIP_5,92,1,48,47,2614288264
91,21,5,ISIP_5,93,1,48,49,2614767764
91,21,5,ISIP_5,94,1,48,46,2615271240
91,21,5,ISIP_5,95,1,48,53,2615778492
91,21,5,ISIP_5,96,1,48,44,2616297928
91,21,5,ISIP_5,97,1,48,41,2616781912
91,21,5,ISIP_5,98,1,48,47,2617285188
91,21,5,ISIP_5,99,1,48,41,2617763632
91,21,5,ISIP_5,100,1,48,53,2618258388
91,21,5,ISIP_5,101,1,48,48,2618743716
91,21,5,ISIP_5,102,1,48,45,2619240568
91,21,5,ISIP_5,103,1,48,48,2619719240
91,21,5,ISIP_5,104,1,48,54,2620191256
91,21,5,ISIP_5,105,1,48,49,2620705832
91,21,5,ISIP_5,106,1,48,51,2621199160
91,21,5,ISIP_5,107,1,48,47,2621663000
91,21,5,ISIP_5,108,1,48,52,2622174132
91,21,5,ISIP_5,109,1,48,52,2622676072
91,21,5,ISIP_5,110,1,48,50,2623166032
91,21,5,ISIP_5,111,1,48,45,2623656896
91,21,5,ISIP_5,112,1,48,55,2624152100
91,21,5,ISIP_5,113,1,48,45,2624642368
91,21,5,ISIP_5,114,1,48,57,2625150212
91,21,5,ISIP_5,115,1,48,45,2625624768
91,21,5,ISIP_5,116,1,48,44,2626121172
91,21,5,ISIP_5,117,1,48,46,2626602012
91,21,5,ISIP_5,118,1,48,46,2627089884
91,21,5,ISIP_5,119,1,48,43,2627564340
91,21,5,ISIP_5,120,1,48,42,2628054828
91,21,5,ISIP_5,121,1,48,57,2628551756
91,21,5,ISIP_5,122,1,48,50,2629022800
91,21,5,ISIP_5,123,1,48,40,2629500948
91,21,5,ISIP_5,124,1,48,46,2629967352
91,21,5,ISIP_5,125,1,48,48,2630459788
91,21,5,ISIP_5,126,1,48,46,2630923124
91,21,5,ISIP_5,127,1,48,48,2631400200
91,21,5,ISIP_5,128,1,48,52,2631901316
91,21,5,ISIP_5,129,1,48,54,2632385600
91,21,5,ISIP_5,130,1,48,53,2632871224
91,21,5,ISIP_5,131,1,48,46,2633332832
91,21,5,ISIP_5,132,1,48,54,2633831096
91,21,5,ISIP_5,133,1,48,54,2634302740
91,21,5,ISIP_5,134,1,48,32,2634358820
91,21,5,ISIP_5,135,1,48,49,2634796796
91,21,5,ISIP_5,136,1,48,50,2635302844
91,21,5,ISIP_5,137,1,48,47,2635794684
91,21,5,ISIP_5,138,1,48,46,2636245728
91,21,5,ISIP_5,139,1,48,49,2636732328
91,21,5,ISIP_5,140,1,48,46,2637226932
91,21,5,ISIP_5,141,1,48,45,2637710620
91,21,5,ISIP_5,142,1,48,47,2638151292
91,21,5,ISIP_5,143,1,48,48,2638624280
91,21,5,ISIP_5,144,1,48,52,2639135340
91,21,5,ISIP_5,145,1,48,46,2639621348
91,21,5,ISIP_5,146,1,48,44,2640113404
91,21,5,ISIP_5,147,1,48,44,2640581432
91,21,5,ISIP_5,148,1,48,47,2641057708
91,21,5,ISIP_5,149,1,48,46,2641534588
91,21,5,ISIP_5,150,1,48,47,2642027848
91,21,5,ISIP_5,151,1,48,47,2642492380
91,21,5,ISIP_5,152,1,48,49,2642940388
91,21,5,ISIP_5,153,1,48,51,2643445088
91,21,5,ISIP_5,154,1,48,48,2643918796
91,21,5,ISIP_5,155,1,48,41,2644367176
91,21,5,ISIP_5,156,1,48,44,2644850472
91,21,5,ISIP_5,157,1,48,44,2645320248
91,21,5,ISIP_5,158,1,48,47,2645794056
91,21,5,ISIP_5,159,1,48,45,2646277444
91,21,5,ISIP_5,160,1,48,44,2646743300
91,21,5,ISIP_5,161,1,48,46,2647243064
91,21,5,ISIP_5,162,1,48,45,2647747620
91,21,5,ISIP_5,163,1,48,49,2648216112
91,21,5,ISIP_5,164,1,48,51,2648693364
91,21,5,ISIP_5,165,1,48,46,2649170616
91,21,5,ISIP_5,166,1,48,40,2649655872
91,21,5,ISIP_5,167,1,48,44,2650123996
91,21,5,ISIP_5,168,1,48,45,2650593744
91,21,5,ISIP_5,169,1,48,47,2651068976
91,21,5,ISIP_5,170,1,48,47,2651537480
91,21,5,ISIP_5,171,1,48,44,2652004704
91,21,5,ISIP_5,172,1,48,41,2652477844
91,21,5,ISIP_5,173,1,48,46,2652946336
91,21,5,ISIP_5,174,1,48,40,2653448428
91,21,5,ISIP_5,175,1,48,43,2653914580
91,21,5,ISIP_5,176,1,48,41,2654381732
91,21,5,ISIP_5,177,1,48,46,2654837880
91,21,5,ISIP_5,178,1,48,42,2655330688
91,21,5,ISIP_5,179,1,48,43,2655815044
91,21,5,ISIP_5,180,1,48,40,2656275692
91,21,5,ISIP_5,181,1,48,45,2656766552
91,21,5,ISIP_5,182,1,48,42,2657266772
91,21,5,ISIP_5,183,1,48,43,2657723876
91,21,5,ISIP_5,184,1,48,41,2658198136
91,21,5,ISIP_5,185,1,48,40,2658683016
91,21,5,ISIP_5,186,1,48,39,2659167072
91,21,5,ISIP_5,187,1,48,41,2659631460
91,21,5,ISIP_5,188,1,48,41,2660105420
91,21,5,ISIP_5,189,1,48,41,2660573296
91,21,5,ISIP_5,190,1,48,44,2661071488
91,21,5,ISIP_5,191,1,48,48,2661528244
91,21,5,ISIP_5,192,1,48,46,2661989188
91,21,5,ISIP_5,193,1,48,47,2662464124
91,21,5,ISIP_5,194,1,48,40,2662938232
91,21,5,ISIP_5,195,1,48,41,2663424236
91,21,5,ISIP_5,196,1,48,48,2663892784
91,21,5,ISIP_5,197,1,48,48,2664389112
91,21,5,ISIP_5,198,1,48,46,2664860600
91,21,5,ISIP_5,199,1,48,47,2665325948
91,21,5,ISIP_5,200,1,48,47,2665806264
91,21,5,ISIP_5,201,1,48,52,2666274916
91,21,5,ISIP_5,202,1,48,49,2666765408
91,21,5,ISIP_5,203,1,48,51,2667250656
91,21,5,ISIP_5,0,9999,9999,9999,2587359336
91,21,5,ISIP_5,1,9999,9999,9999,2587860024
91,21,5,ISIP_5,2,9999,9999,9999,2588359736
91,21,5,ISIP_5,3,9999,9999,9999,2588859504
91,21,5,ISIP_5,4,9999,9999,9999,2589359200
91,21,5,ISIP_5,5,9999,9999,9999,2589859948
91,21,5,ISIP_5,6,9999,9999,9999,2590359644
91,21,5,ISIP_5,7,9999,9999,9999,2590859340
91,21,5,ISIP_5,8,9999,9999,9999,2591360080
91,21,5,ISIP_5,9,9999,9999,9999,2591859768
91,21,5,ISIP_5,10,9999,9999,9999,2592359536
91,21,5,ISIP_5,11,9999,9999,9999,2592859232
91,21,5,ISIP_5,12,9999,9999,9999,2593359980
91,21,5,ISIP_5,13,9999,9999,9999,2593859668
91,21,5,ISIP_5,14,9999,9999,9999,2594359364
91,21,5,ISIP_5,15,9999,9999,9999,2594859060
91,21,5,ISIP_5,16,9999,9999,9999,2595359808
91,21,5,ISIP_5,17,9999,9999,9999,2595859576
91,21,5,ISIP_5,18,9999,9999,9999,2596359272
91,21,5,ISIP_5,19,9999,9999,9999,2596860012
91,21,5,ISIP_5,20,9999,9999,9999,2597359700
91,21,5,ISIP_5,21,9999,9999,9999,2597859444
91,21,5,ISIP_5,22,9999,9999,9999,2598359140
91,21,5,ISIP_5,23,9999,9999,9999,2598859884
91,21,5,ISIP_5,24,9999,9999,9999,2599359576
91,21,5,ISIP_5,25,9999,9999,9999,2599859272
91,21,5,ISIP_5,26,9999,9999,9999,2600360012
91,21,5,ISIP_5,27,9999,9999,9999,2600859708
91,21,5,ISIP_5,28,9999,9999,9999,2601359476
91,21,5,ISIP_5,29,9999,9999,9999,2601859172
91,21,5,ISIP_5,30,9999,9999,9999,2602359916
91,21,5,ISIP_5,31,9999,9999,9999,2602859612
91,21,5,ISIP_5,32,9999,9999,9999,2603359304
91,21,5,ISIP_5,33,9999,9999,9999,2603860044
91,21,5,ISIP_5,34,9999,9999,9999,2604359744
91,21,5,ISIP_5,35,9999,9999,9999,2604859512
91,21,5,ISIP_5,36,9999,9999,9999,2605359204
91,21,5,ISIP_5,37,9999,9999,9999,2605859948
91,21,5,ISIP_5,38,9999,9999,9999,2606359644
91,21,5,ISIP_5,39,9999,9999,9999,2606859340
91,21,5,ISIP_5,40,9999,9999,9999,2607360080
91,21,5,ISIP_5,41,9999,9999,9999,2607859772
91,21,5,ISIP_5,42,9999,9999,9999,2608359512
91,21,5,ISIP_5,43,9999,9999,9999,2608859204
91,21,5,ISIP_5,44,9999,9999,9999,2609359940
91,21,5,ISIP_5,45,9999,9999,9999,2609859632
91,21,5,ISIP_5,46,9999,9999,9999,2610359396
91,21,5,ISIP_5,47,9999,9999,9999,2610859088
91,21,5,ISIP_5,48,9999,9999,9999,2611359824
91,21,5,ISIP_5,49,9999,9999,9999,2611859516
91,21,5,ISIP_5,50,9999,9999,9999,2612359280
91,21,5,ISIP_5,51,9999,9999,9999,2612860020
91,21,5,ISIP_5,52,9999,9999,9999,2613359708
91,21,5,ISIP_5,53,9999,9999,9999,2613859400
91,21,5,ISIP_5,54,9999,9999,9999,2614359092
91,21,5,ISIP_5,55,9999,9999,9999,2614859868
91,21,5,ISIP_5,56,9999,9999,9999,2615359592
91,21,5,ISIP_5,57,9999,9999,9999,2615859288
91,21,5,ISIP_5,58,9999,9999,9999,2616360024
91,21,5,ISIP_5,59,9999,9999,9999,2616859712
91,21,5,ISIP_5,60,9999,9999,9999,2617359480
91,21,5,ISIP_5,61,9999,9999,9999,2617859152
91,21,5,ISIP_5,62,9999,9999,9999,2618359888
91,21,5,ISIP_5,63,9999,9999,9999,2618859632
91,21,5,ISIP_5,64,9999,9999,9999,2619359320
91,21,5,ISIP_5,65,9999,9999,9999,2619860060
91,21,5,ISIP_5,66,9999,9999,9999,2620359752
91,21,5,ISIP_5,67,9999,9999,9999,2620859440
91,21,5,ISIP_5,68,9999,9999,9999,2621359204
91,21,5,ISIP_5,69,9999,9999,9999,2621859944
91,21,5,ISIP_5,70,9999,9999,9999,2622359632
91,21,5,ISIP_5,71,9999,9999,9999,2622859324
91,21,5,ISIP_5,72,9999,9999,9999,2623360060
91,21,5,ISIP_5,73,9999,9999,9999,2623859824
91,21,5,ISIP_5,74,9999,9999,9999,2624359516
91,21,5,ISIP_5,75,9999,9999,9999,2624859208
91,21,5,ISIP_5,76,9999,9999,9999,2625359944
91,21,5,ISIP_5,77,9999,9999,9999,2625859636
91,21,5,ISIP_5,78,9999,9999,9999,2626359400
91,21,5,ISIP_5,79,9999,9999,9999,2626859092
91,21,5,ISIP_5,80,9999,9999,9999,2627359828
91,21,5,ISIP_5,81,9999,9999,9999,2627859520
91,21,5,ISIP_5,82,9999,9999,9999,2628359284
91,21,5,ISIP_5,83,9999,9999,9999,2628860020
91,21,5,ISIP_5,84,9999,9999,9999,2629359712
91,21,5,ISIP_5,85,9999,9999,9999,2629859376
91,21,5,ISIP_5,86,9999,9999,9999,2630359144
91,21,5,ISIP_5,87,9999,9999,9999,2630859880
91,21,5,ISIP_5,88,9999,9999,9999,2631359572
91,21,5,ISIP_5,89,9999,9999,9999,2631859260
91,21,5,ISIP_5,90,9999,9999,9999,2632360000
91,21,5,ISIP_5,91,9999,9999,9999,2632859764
91,21,5,ISIP_5,92,9999,9999,9999,2633359448
91,21,5,ISIP_5,93,9999,9999,9999,2633859140
91,21,5,ISIP_5,94,9999,9999,9999,2634359928
91,21,5,ISIP_5,95,9999,9999,9999,2634859620
91,21,5,ISIP_5,96,9999,9999,9999,2635359308
91,21,5,ISIP_5,97,9999,9999,9999,2635860048
91,21,5,ISIP_5,98,9999,9999,9999,2636359796
91,21,5,ISIP_5,99,9999,9999,9999,2636859488
91,21,5,ISIP_5,100,9999,9999,9999,2637359176
91,21,5,ISIP_5,101,9999,9999,9999,2637859916
91,21,5,ISIP_5,102,9999,9999,9999,2638359604
91,21,5,ISIP_5,103,9999,9999,9999,2638859372
91,21,5,ISIP_5,104,9999,9999,9999,2639360108
91,21,5,ISIP_5,105,9999,9999,9999,2639859800
91,21,5,ISIP_5,106,9999,9999,9999,2640359540
91,21,5,ISIP_5,107,9999,9999,9999,2640859232
91,21,5,ISIP_5,108,9999,9999,9999,2641359968
91,21,5,ISIP_5,109,9999,9999,9999,2641859660
91,21,5,ISIP_5,110,9999,9999,9999,2642359348
91,21,5,ISIP_5,111,9999,9999,9999,2642859116
91,21,5,ISIP_5,112,9999,9999,9999,2643359852
91,21,5,ISIP_5,113,9999,9999,9999,2643859544
91,21,5,ISIP_5,114,9999,9999,9999,2644359236
91,21,5,ISIP_5,115,9999,9999,9999,2644859964
91,21,5,ISIP_5,116,9999,9999,9999,2645359732
91,21,5,ISIP_5,117,9999,9999,9999,2645859420
91,21,5,ISIP_5,118,9999,9999,9999,2646359112
91,21,5,ISIP_5,119,9999,9999,9999,2646859836
91,21,5,ISIP_5,120,9999,9999,9999,2647359600
91,21,5,ISIP_5,121,9999,9999,9999,2647859288
91,21,5,ISIP_5,122,9999,9999,9999,2648360028
91,21,5,ISIP_5,123,9999,9999,9999,2648859716
91,21,5,ISIP_5,124,9999,9999,9999,2649359408
91,21,5,ISIP_5,125,9999,9999,9999,2649859172
91,21,5,ISIP_5,126,9999,9999,9999,2650359908
91,21,5,ISIP_5,127,9999,9999,9999,2650859576
91,21,5,ISIP_5,128,9999,9999,9999,2651359340
91,21,5,ISIP_5,129,9999,9999,9999,2651860080
91,21,5,ISIP_5,130,9999,9999,9999,2652359768
91,21,5,ISIP_5,131,9999,9999,9999,2652859460
91,21,5,ISIP_5,132,9999,9999,9999,2653359224
91,21,5,ISIP_5,133,9999,9999,9999,2653859888
91,21,5,ISIP_5,134,9999,9999,9999,2654359652
91,21,5,ISIP_5,135,9999,9999,9999,2654859336
91,21,5,ISIP_5,136,9999,9999,9999,2655360072
91,21,5,ISIP_5,137,9999,9999,9999,2655859764
91,21,5,ISIP_5,138,9999,9999,9999,2656359532
91,21,5,ISIP_5,139,9999,9999,9999,2656859220
91,21,5,ISIP_5,140,9999,9999,9999,2657359960
91,21,5,ISIP_5,141,9999,9999,9999,2657859636
91,21,5,ISIP_5,142,9999,9999,9999,2658359400
91,21,5,ISIP_5,143,9999,9999,9999,2658859088
91,21,5,ISIP_5,144,9999,9999,9999,2659359828
91,21,5,ISIP_5,145,9999,9999,9999,2659859516
91,21,5,ISIP_5,146,9999,9999,9999,2660359284
91,21,5,ISIP_5,147,9999,9999,9999,2660860020
91,21,5,ISIP_5,148,9999,9999,9999,2661359708
91,21,5,ISIP_5,149,9999,9999,9999,2661859376
91,21,5,ISIP_5,150,9999,9999,9999,2662359140
91,21,5,ISIP_5,151,9999,9999,9999,2662859880
91,21,5,ISIP_5,152,9999,9999,9999,2663359568
91,21,5,ISIP_5,153,9999,9999,9999,2663859260
91,21,5,ISIP_5,154,9999,9999,9999,2664359996
91,21,5,ISIP_5,155,9999,9999,9999,2664859764
91,21,5,ISIP_5,156,9999,9999,9999,2665359448
91,21,5,ISIP_5,157,9999,9999,9999,2665859140
91,21,5,ISIP_5,158,9999,9999,9999,2666359876
91,21,5,ISIP_5,159,9999,9999,9999,2666859568
91,22,11,Pattern_Practice,0,5,42,127,2782877120
91,22,11,Pattern_Practice,1,5,42,127,2783376688
91,22,11,Pattern_Practice,2,1,48,35,2783860808
91,22,11,Pattern_Practice,3,5,42,127,2783876772
91,22,11,Pattern_Practice,4,1,48,36,2784375868
91,22,11,Pattern_Practice,5,5,42,127,2784377436
91,22,11,Pattern_Practice,6,5,42,127,2784876768
91,22,11,Pattern_Practice,7,1,38,35,2784903144
91,22,11,Pattern_Practice,8,1,48,30,2785372680
91,22,11,Pattern_Practice,9,5,42,127,2785376828
91,22,11,Pattern_Practice,10,1,38,29,2785385560
91,22,11,Pattern_Practice,11,5,42,127,2785877392
91,22,11,Pattern_Practice,12,1,48,31,2785895244
91,22,11,Pattern_Practice,13,1,38,28,2785905924
91,22,11,Pattern_Practice,14,5,42,127,2786377112
91,22,11,Pattern_Practice,15,1,48,27,2786380752
91,22,11,Pattern_Practice,16,5,42,127,2786876732
91,22,11,Pattern_Practice,17,1,38,35,2786894660
91,22,11,Pattern_Practice,18,5,42,127,2787376648
91,22,11,Pattern_Practice,19,1,48,36,2787405720
91,22,11,Pattern_Practice,20,5,42,127,2787877244
91,22,11,Pattern_Practice,21,1,38,29,2787894352
91,22,11,Pattern_Practice,22,1,48,35,2788365528
91,22,11,Pattern_Practice,23,5,42,127,2788376856
91,22,11,Pattern_Practice,24,1,48,44,2788854596
91,22,11,Pattern_Practice,25,5,42,127,2788876700
91,22,11,Pattern_Practice,26,1,38,35,2789299592
91,22,11,Pattern_Practice,27,1,48,34,2789340640
91,22,11,Pattern_Practice,28,5,42,127,2789377420
91,22,11,Pattern_Practice,29,1,48,19,2789413852
91,22,11,Pattern_Practice,30,1,48,30,2789587140
91,22,11,Pattern_Practice,31,1,38,35,2789873720
91,22,11,Pattern_Practice,32,5,42,127,2789877044
91,22,11,Pattern_Practice,33,1,48,31,2790108052
91,22,11,Pattern_Practice,34,5,42,127,2790376796
91,22,11,Pattern_Practice,35,1,48,40,2790377764
91,22,11,Pattern_Practice,36,1,38,38,2790846584
91,22,11,Pattern_Practice,37,5,42,127,2790876608
91,22,11,Pattern_Practice,38,1,48,37,2791336548
91,22,11,Pattern_Practice,39,5,42,127,2791377200
91,22,11,Pattern_Practice,40,1,38,36,2791821436
91,22,11,Pattern_Practice,41,5,42,127,2791876896
91,22,11,Pattern_Practice,42,1,48,40,2792337960
91,22,11,Pattern_Practice,43,5,42,127,2792376588
91,22,11,Pattern_Practice,44,1,38,39,2792827480
91,22,11,Pattern_Practice,45,5,42,127,2792877480
91,22,11,Pattern_Practice,46,1,48,38,2793218124
91,22,11,Pattern_Practice,47,1,38,38,2793315560
91,22,11,Pattern_Practice,48,5,42,127,2793377224
91,22,11,Pattern_Practice,49,1,48,17,2793512524
91,22,11,Pattern_Practice,50,1,48,24,2793693588
91,22,11,Pattern_Practice,51,5,42,127,2793876888
91,22,11,Pattern_Practice,52,1,38,30,2793989460
91,22,11,Pattern_Practice,53,1,48,21,2794353352
91,22,11,Pattern_Practice,54,5,42,127,2794376648
91,22,11,Pattern_Practice,55,5,42,127,2794877396
91,22,11,Pattern_Practice,56,1,38,40,2795359044
91,22,11,Pattern_Practice,57,5,42,127,2795376956
91,22,11,Pattern_Practice,58,5,42,127,2795876656
91,22,11,Pattern_Practice,59,1,48,20,2795900496
91,22,11,Pattern_Practice,60,1,38,46,2796366436
91,22,11,Pattern_Practice,61,5,42,127,2796376644
91,22,11,Pattern_Practice,62,1,48,33,2796830980
91,22,11,Pattern_Practice,63,5,42,127,2796877012
91,22,11,Pattern_Practice,64,1,38,38,2797233488
91,22,11,Pattern_Practice,65,1,48,41,2797288484
91,22,11,Pattern_Practice,66,5,42,127,2797376912
91,22,11,Pattern_Practice,67,1,48,27,2797575560
91,22,11,Pattern_Practice,68,5,42,127,2797876516
91,22,11,Pattern_Practice,69,1,38,43,2797883224
91,22,11,Pattern_Practice,70,1,48,36,2798129464
91,22,11,Pattern_Practice,71,5,42,127,2798377384
91,22,11,Pattern_Practice,72,1,48,37,2798401372
91,22,11,Pattern_Practice,73,5,42,127,2798876932
91,22,11,Pattern_Practice,74,1,38,43,2798878872
91,22,11,Pattern_Practice,75,1,48,36,2798881760
91,22,11,Pattern_Practice,76,1,48,34,2799301876
91,22,11,Pattern_Practice,77,5,42,127,2799376732
91,22,11,Pattern_Practice,78,1,38,38,2799713312
91,22,11,Pattern_Practice,79,5,42,127,2799876488
91,22,11,Pattern_Practice,80,1,48,35,2799922836
91,22,11,Pattern_Practice,81,1,48,29,2800200868
91,22,11,Pattern_Practice,82,5,42,127,2800377280
91,22,11,Pattern_Practice,83,1,38,43,2800459384
91,22,11,Pattern_Practice,84,5,42,127,2800877052
91,22,11,Pattern_Practice,85,1,38,48,2800926320
91,22,11,Pattern_Practice,86,1,48,31,2800929516
91,22,11,Pattern_Practice,87,1,48,27,2801267280
91,22,11,Pattern_Practice,88,5,42,127,2801376728
91,22,11,Pattern_Practice,89,1,38,41,2801403432
91,22,11,Pattern_Practice,90,1,48,30,2801680860
91,22,11,Pattern_Practice,91,5,42,127,2801877300
91,22,11,Pattern_Practice,92,1,48,24,2801911780
91,22,11,Pattern_Practice,93,1,38,35,2802181212
91,22,11,Pattern_Practice,94,5,42,127,2802377048
91,22,11,Pattern_Practice,95,1,48,32,2802429408
91,22,11,Pattern_Practice,96,1,48,34,2802869968
91,22,11,Pattern_Practice,97,5,42,127,2802876736
91,22,11,Pattern_Practice,98,1,38,46,2802880448
91,22,11,Pattern_Practice,99,1,48,29,2803319892
91,22,11,Pattern_Practice,100,5,42,127,2803376468
91,22,11,Pattern_Practice,101,1,38,44,2803483720
91,22,11,Pattern_Practice,102,5,42,127,2803877344
91,22,11,Pattern_Practice,103,1,48,33,2803937388
91,22,11,Pattern_Practice,104,5,42,127,2804376892
91,22,11,Pattern_Practice,105,1,38,37,2804435436
91,22,11,Pattern_Practice,106,5,42,127,2804876660
91,22,11,Pattern_Practice,107,1,48,33,2804879328
91,22,11,Pattern_Practice,108,1,48,35,2805230456
91,22,11,Pattern_Practice,109,1,38,38,2805356920
91,22,11,Pattern_Practice,110,5,42,127,2805377448
91,22,11,Pattern_Practice,111,1,48,27,2805614392
91,22,11,Pattern_Practice,112,1,38,32,2805846792
91,22,11,Pattern_Practice,113,5,42,127,2805877120
91,22,11,Pattern_Practice,114,1,48,30,2806018104
91,22,11,Pattern_Practice,115,1,48,34,2806311608
91,22,11,Pattern_Practice,116,5,42,127,2806376792
91,22,11,Pattern_Practice,117,1,38,44,2806838532
91,22,11,Pattern_Practice,118,1,48,31,2806841728
91,22,11,Pattern_Practice,119,5,42,127,2806876392
91,22,11,Pattern_Practice,120,1,48,34,2807325308
91,22,11,Pattern_Practice,121,5,42,127,2807377476
91,22,11,Pattern_Practice,122,1,38,44,2807830992
91,22,11,Pattern_Practice,123,5,42,127,2807877024
91,22,11,Pattern_Practice,124,1,48,38,2808335096
91,22,11,Pattern_Practice,125,5,42,127,2808376796
91,22,11,Pattern_Practice,126,1,48,37,2808857684
91,22,11,Pattern_Practice,127,1,38,36,2808861028
91,22,11,Pattern_Practice,128,5,42,127,2808877368
91,22,11,Pattern_Practice,129,1,48,36,2809225584
91,22,11,Pattern_Practice,130,1,38,43,2809330676
91,22,11,Pattern_Practice,131,5,42,127,2809377384
91,22,11,Pattern_Practice,132,1,48,40,2809608348
91,22,11,Pattern_Practice,133,5,42,127,2809876988
91,22,11,Pattern_Practice,134,1,38,40,2809909728
91,22,11,Pattern_Practice,135,1,48,32,2810143548
91,22,11,Pattern_Practice,136,5,42,127,2810376660
91,22,11,Pattern_Practice,137,1,48,40,2810417184
91,22,11,Pattern_Practice,138,1,48,37,2810869508
91,22,11,Pattern_Practice,139,5,42,127,2810877396
91,22,11,Pattern_Practice,140,1,38,45,2810890836
91,22,11,Pattern_Practice,141,5,42,127,2811377360
91,22,11,Pattern_Practice,142,1,48,36,2811578400
91,22,11,Pattern_Practice,143,1,48,40,2811866968
91,22,11,Pattern_Practice,144,5,42,127,2811876900
91,22,11,Pattern_Practice,145,5,42,127,2812376504
91,22,11,Pattern_Practice,146,1,38,46,2812387704
91,22,11,Pattern_Practice,147,1,38,49,2812854236
91,22,11,Pattern_Practice,148,5,42,127,2812877312
91,22,11,Pattern_Practice,149,1,48,38,2812878880
91,22,11,Pattern_Practice,150,5,42,127,2813376756
91,22,11,Pattern_Practice,151,1,48,35,2813591500
91,22,11,Pattern_Practice,152,5,42,127,2813876524
91,22,11,Pattern_Practice,153,1,38,48,2813892136
91,22,11,Pattern_Practice,154,5,42,127,2814377340
91,22,11,Pattern_Practice,155,1,48,43,2814876604
91,22,11,Pattern_Practice,156,5,42,127,2814878172
91,22,11,Pattern_Practice,157,1,38,40,2814888844
91,22,11,Pattern_Practice,158,5,42,127,2815376716
91,22,11,Pattern_Practice,159,1,48,39,2815556908
91,22,11,Pattern_Practice,160,1,38,48,2815689280
91,22,11,Pattern_Practice,161,1,48,35,2815769632
91,22,11,Pattern_Practice,162,5,42,127,2815876432
91,22,11,Pattern_Practice,163,1,48,40,2816053256
91,22,11,Pattern_Practice,164,1,38,42,2816316920
91,22,11,Pattern_Practice,165,5,42,127,2816377240
91,22,11,Pattern_Practice,166,1,48,31,2816600724
91,22,11,Pattern_Practice,167,1,48,38,2816852196
91,22,11,Pattern_Practice,168,5,42,127,2816877060
91,22,11,Pattern_Practice,169,1,38,37,2816896116
91,22,11,Pattern_Practice,170,1,48,39,2817340260
91,22,11,Pattern_Practice,171,1,38,43,2817374816
91,22,11,Pattern_Practice,172,5,42,127,2817377452
91,22,11,Pattern_Practice,173,1,48,33,2817842000
91,22,11,Pattern_Practice,174,5,42,127,2817877420
91,22,11,Pattern_Practice,175,5,42,127,2818377268
91,22,11,Pattern_Practice,176,5,42,127,2818876912
91,22,11,Pattern_Practice,177,1,48,44,2818890804
91,22,11,Pattern_Practice,178,5,42,127,2819376456
91,22,11,Pattern_Practice,179,1,38,44,2819399172
91,22,11,Pattern_Practice,180,1,48,34,2819627088
91,22,11,Pattern_Practice,181,5,42,127,2819877176
91,22,11,Pattern_Practice,182,1,48,33,2820052036
91,22,11,Pattern_Practice,183,5,42,127,2820377096
91,22,11,Pattern_Practice,184,1,38,50,2820381260
91,22,11,Pattern_Practice,185,1,38,27,2820434124
91,22,11,Pattern_Practice,186,1,38,48,2820865432
91,22,11,Pattern_Practice,187,1,48,40,2820868628
91,22,11,Pattern_Practice,188,5,42,127,2820876516
91,22,11,Pattern_Practice,189,1,48,38,2821344264
91,22,11,Pattern_Practice,190,5,42,127,2821377532
91,22,11,Pattern_Practice,191,1,38,44,2821670424
91,22,11,Pattern_Practice,192,5,42,127,2821877208
91,22,11,Pattern_Practice,193,1,48,34,2822096196
91,22,11,Pattern_Practice,194,5,42,127,2822376756
91,22,11,Pattern_Practice,195,1,38,42,2822411292
91,22,11,Pattern_Practice,196,1,48,37,2822847964
91,22,11,Pattern_Practice,197,1,38,47,2822865888
91,22,11,Pattern_Practice,0,9999,9999,9999,2782874684
91,22,11,Pattern_Practice,1,9999,9999,9999,2783374400
91,22,11,Pattern_Practice,2,9999,9999,9999,2783874112
91,22,11,Pattern_Practice,3,9999,9999,9999,2784374860
91,22,11,Pattern_Practice,4,9999,9999,9999,2784874552
91,22,11,Pattern_Practice,5,9999,9999,9999,2785374316
91,22,11,Pattern_Practice,6,9999,9999,9999,2785875032
91,22,11,Pattern_Practice,7,9999,9999,9999,2786374752
91,22,11,Pattern_Practice,8,9999,9999,9999,2786874444
91,22,11,Pattern_Practice,9,9999,9999,9999,2787374140
91,22,11,Pattern_Practice,10,9999,9999,9999,2787874880
91,22,11,Pattern_Practice,11,9999,9999,9999,2788374644
91,22,11,Pattern_Practice,12,9999,9999,9999,2788874336
91,22,11,Pattern_Practice,13,9999,9999,9999,2789375060
91,22,11,Pattern_Practice,14,9999,9999,9999,2789874756
91,22,11,Pattern_Practice,15,9999,9999,9999,2790374508
91,22,11,Pattern_Practice,16,9999,9999,9999,2790874172
91,22,11,Pattern_Practice,17,9999,9999,9999,2791374912
91,22,11,Pattern_Practice,18,9999,9999,9999,2791874680
91,22,11,Pattern_Practice,19,9999,9999,9999,2792374376
91,22,11,Pattern_Practice,20,9999,9999,9999,2792875116
91,22,11,Pattern_Practice,21,9999,9999,9999,2793374788
91,22,11,Pattern_Practice,22,9999,9999,9999,2793874524
91,22,11,Pattern_Practice,23,9999,9999,9999,2794374212
91,22,11,Pattern_Practice,24,9999,9999,9999,2794874960
91,22,11,Pattern_Practice,25,9999,9999,9999,2795374668
91,22,11,Pattern_Practice,26,9999,9999,9999,2795874372
91,22,11,Pattern_Practice,27,9999,9999,9999,2796374132
91,22,11,Pattern_Practice,28,9999,9999,9999,2796874800
91,22,11,Pattern_Practice,29,9999,9999,9999,2797374548
91,22,11,Pattern_Practice,30,9999,9999,9999,2797874228
91,22,11,Pattern_Practice,31,9999,9999,9999,2798375024
91,22,11,Pattern_Practice,32,9999,9999,9999,2798874716
91,22,11,Pattern_Practice,33,9999,9999,9999,2799374444
91,22,11,Pattern_Practice,34,9999,9999,9999,2799874124
91,22,11,Pattern_Practice,35,9999,9999,9999,2800374844
91,22,11,Pattern_Practice,36,9999,9999,9999,2800874612
91,22,11,Pattern_Practice,37,9999,9999,9999,2801374292
91,22,11,Pattern_Practice,38,9999,9999,9999,2801875012
91,22,11,Pattern_Practice,39,9999,9999,9999,2802374760
91,22,11,Pattern_Practice,40,9999,9999,9999,2802874448
91,22,11,Pattern_Practice,41,9999,9999,9999,2803374180
91,22,11,Pattern_Practice,42,9999,9999,9999,2803874908
91,22,11,Pattern_Practice,43,9999,9999,9999,2804374604
91,22,11,Pattern_Practice,44,9999,9999,9999,2804874296
91,22,11,Pattern_Practice,45,9999,9999,9999,2805375084
91,22,11,Pattern_Practice,46,9999,9999,9999,2805874760
91,22,11,Pattern_Practice,47,9999,9999,9999,2806374504
91,22,11,Pattern_Practice,48,9999,9999,9999,2806874180
91,22,11,Pattern_Practice,49,9999,9999,9999,2807374968
91,22,11,Pattern_Practice,50,9999,9999,9999,2807874664
91,22,11,Pattern_Practice,51,9999,9999,9999,2808374360
91,22,11,Pattern_Practice,52,9999,9999,9999,2808875080
91,22,11,Pattern_Practice,53,9999,9999,9999,2809374800
91,22,11,Pattern_Practice,54,9999,9999,9999,2809874552
91,22,11,Pattern_Practice,55,9999,9999,9999,2810374224
91,22,11,Pattern_Practice,56,9999,9999,9999,2810874960
91,22,11,Pattern_Practice,57,9999,9999,9999,2811374700
91,22,11,Pattern_Practice,58,9999,9999,9999,2811874368
91,22,11,Pattern_Practice,59,9999,9999,9999,2812374068
91,22,11,Pattern_Practice,60,9999,9999,9999,2812874800
91,22,11,Pattern_Practice,61,9999,9999,9999,2813374544
91,22,11,Pattern_Practice,62,9999,9999,9999,2813874240
91,22,11,Pattern_Practice,63,9999,9999,9999,2814374976
91,22,11,Pattern_Practice,64,9999,9999,9999,2814874696
91,22,11,Pattern_Practice,65,9999,9999,9999,2815374428
91,22,11,Pattern_Practice,66,9999,9999,9999,2815874144
91,22,11,Pattern_Practice,67,9999,9999,9999,2816374876
91,22,11,Pattern_Practice,68,9999,9999,9999,2816874552
91,22,11,Pattern_Practice,69,9999,9999,9999,2817374288
91,22,11,Pattern_Practice,70,9999,9999,9999,2817875056
91,22,11,Pattern_Practice,71,9999,9999,9999,2818374756
91,22,11,Pattern_Practice,72,9999,9999,9999,2818874476
91,22,11,Pattern_Practice,73,9999,9999,9999,2819374168
91,22,11,Pattern_Practice,74,9999,9999,9999,2819874888
91,22,11,Pattern_Practice,75,9999,9999,9999,2820374584
91,22,11,Pattern_Practice,76,9999,9999,9999,2820874304
91,22,11,Pattern_Practice,77,9999,9999,9999,2821375092
91,22,11,Pattern_Practice,78,9999,9999,9999,2821874772
91,22,11,Pattern_Practice,79,9999,9999,9999,2822374468
91,23,13,Improv_Metronome,0,5,42,127,2864202972
91,23,13,Improv_Metronome,1,5,42,127,2864702912
91,23,13,Improv_Metronome,2,1,48,32,2865197504
91,23,13,Improv_Metronome,3,5,42,127,2865202476
91,23,13,Improv_Metronome,4,1,48,34,2865662268
91,23,13,Improv_Metronome,5,5,42,127,2865703440
91,23,13,Improv_Metronome,6,1,48,38,2866197040
91,23,13,Improv_Metronome,7,5,42,127,2866202912
91,23,13,Improv_Metronome,8,5,42,127,2866702760
91,23,13,Improv_Metronome,9,1,48,37,2866705952
91,23,13,Improv_Metronome,10,1,48,30,2867194112
91,23,13,Improv_Metronome,11,5,42,127,2867202376
91,23,13,Improv_Metronome,12,1,48,35,2867677700
91,23,13,Improv_Metronome,13,5,42,127,2867703340
91,23,13,Improv_Metronome,14,1,38,44,2868153832
91,23,13,Improv_Metronome,15,1,48,41,2868171612
91,23,13,Improv_Metronome,16,5,42,127,2868202716
91,23,13,Improv_Metronome,17,1,48,35,2868645548
91,23,13,Improv_Metronome,18,5,42,127,2868702656
91,23,13,Improv_Metronome,19,1,48,26,2868943712
91,23,13,Improv_Metronome,20,5,42,127,2869203456
91,23,13,Improv_Metronome,21,5,42,127,2869702876
91,23,13,Improv_Metronome,22,1,48,34,2869750372
91,23,13,Improv_Metronome,23,5,42,127,2870202796
91,23,13,Improv_Metronome,24,1,48,38,2870245732
91,23,13,Improv_Metronome,25,1,38,40,2870689060
91,23,13,Improv_Metronome,26,5,42,127,2870702336
91,23,13,Improv_Metronome,27,1,48,38,2870724448
91,23,13,Improv_Metronome,28,1,38,45,2871175704
91,23,13,Improv_Metronome,29,1,48,39,2871202724
91,23,13,Improv_Metronome,30,5,42,127,2871204364
91,23,13,Improv_Metronome,31,1,38,24,2871239556
91,23,13,Improv_Metronome,32,1,48,41,2871667324
91,23,13,Improv_Metronome,33,5,42,127,2871703036
91,23,13,Improv_Metronome,34,1,48,43,2872196936
91,23,13,Improv_Metronome,35,5,42,127,2872202508
91,23,13,Improv_Metronome,36,1,38,37,2872213632
91,23,13,Improv_Metronome,37,1,38,44,2872695612
91,23,13,Improv_Metronome,38,5,42,127,2872703500
91,23,13,Improv_Metronome,39,1,38,32,2872908884
91,23,13,Improv_Metronome,40,5,42,127,2873203256
91,23,13,Improv_Metronome,41,1,38,41,2873343652
91,23,13,Improv_Metronome,42,1,38,48,2873449844
91,23,13,Improv_Metronome,43,1,38,40,2873527236
91,23,13,Improv_Metronome,44,5,42,127,2873702756
91,23,13,Improv_Metronome,45,1,38,55,2873819716
91,23,13,Improv_Metronome,46,1,38,41,2873849412
91,23,13,Improv_Metronome,47,1,38,14,2874156008
91,23,13,Improv_Metronome,48,5,42,127,2874202496
91,23,13,Improv_Metronome,49,1,38,36,2874650392
91,23,13,Improv_Metronome,50,1,48,36,2874655764
91,23,13,Improv_Metronome,51,5,42,127,2874703368
91,23,13,Improv_Metronome,52,1,48,39,2875165224
91,23,13,Improv_Metronome,53,1,38,29,2875168644
91,23,13,Improv_Metronome,54,5,42,127,2875202792
91,23,13,Improv_Metronome,55,1,48,48,2875675268
91,23,13,Improv_Metronome,56,1,38,29,2875694772
91,23,13,Improv_Metronome,57,5,42,127,2875702512
91,23,13,Improv_Metronome,58,1,48,45,2876184192
91,23,13,Improv_Metronome,59,5,42,127,2876203372
91,23,13,Improv_Metronome,60,1,38,45,2876700488
91,23,13,Improv_Metronome,61,5,42,127,2876703292
91,23,13,Improv_Metronome,62,1,48,47,2876708884
91,23,13,Improv_Metronome,63,1,48,33,2876959424
91,23,13,Improv_Metronome,64,5,42,127,2877202716
91,23,13,Improv_Metronome,65,1,48,30,2877203756
91,23,13,Improv_Metronome,66,1,48,28,2877452444
91,23,13,Improv_Metronome,67,1,38,48,2877694488
91,23,13,Improv_Metronome,68,5,42,127,2877702380
91,23,13,Improv_Metronome,69,1,48,46,2877703344
91,23,13,Improv_Metronome,70,1,48,39,2878203688
91,23,13,Improv_Metronome,71,5,42,127,2878204800
91,23,13,Improv_Metronome,72,5,42,127,2878702864
91,23,13,Improv_Metronome,73,1,48,37,2878733656
91,23,13,Improv_Metronome,74,1,38,41,2878737004
91,23,13,Improv_Metronome,75,1,48,38,2878975804
91,23,13,Improv_Metronome,76,1,48,35,2879201812
91,23,13,Improv_Metronome,77,5,42,127,2879203380
91,23,13,Improv_Metronome,78,1,48,33,2879421004
91,23,13,Improv_Metronome,79,1,48,48,2879681524
91,23,13,Improv_Metronome,80,1,38,46,2879692204
91,23,13,Improv_Metronome,81,5,42,127,2879703384
91,23,13,Improv_Metronome,82,1,48,42,2880169060
91,23,13,Improv_Metronome,83,5,42,127,2880203272
91,23,13,Improv_Metronome,84,5,42,127,2880702824
91,23,13,Improv_Metronome,85,1,38,30,2880716864
91,23,13,Improv_Metronome,86,1,48,41,2880720064
91,23,13,Improv_Metronome,87,1,48,39,2880958040
91,23,13,Improv_Metronome,88,5,42,127,2881202524
91,23,13,Improv_Metronome,89,1,48,37,2881420416
91,23,13,Improv_Metronome,90,1,48,42,2881703340
91,23,13,Improv_Metronome,91,5,42,127,2881704528
91,23,13,Improv_Metronome,92,1,38,49,2881707052
91,23,13,Improv_Metronome,93,1,38,24,2881774292
91,23,13,Improv_Metronome,94,1,48,44,2882196276
91,23,13,Improv_Metronome,95,5,42,127,2882203120
91,23,13,Improv_Metronome,96,1,48,42,2882701004
91,23,13,Improv_Metronome,97,5,42,127,2882702668
91,23,13,Improv_Metronome,98,1,48,46,2883171960
91,23,13,Improv_Metronome,99,5,42,127,2883202360
91,23,13,Improv_Metronome,100,1,48,48,2883673300
91,23,13,Improv_Metronome,101,5,42,127,2883703252
91,23,13,Improv_Metronome,102,1,48,47,2884183540
91,23,13,Improv_Metronome,103,5,42,127,2884202948
91,23,13,Improv_Metronome,104,1,38,53,2884659076
91,23,13,Improv_Metronome,105,1,48,48,2884688980
91,23,13,Improv_Metronome,106,5,42,127,2884702472
91,23,13,Improv_Metronome,107,1,48,38,2884939840
91,23,13,Improv_Metronome,108,5,42,127,2885203320
91,23,13,Improv_Metronome,109,1,48,38,2885386804
91,23,13,Improv_Metronome,110,1,38,48,2885503688
91,23,13,Improv_Metronome,111,1,48,46,2885624116
91,23,13,Improv_Metronome,112,5,42,127,2885703136
91,23,13,Improv_Metronome,113,1,48,41,2886167340
91,23,13,Improv_Metronome,114,5,42,127,2886202680
91,23,13,Improv_Metronome,115,1,48,47,2886685288
91,23,13,Improv_Metronome,116,1,38,49,2886685868
91,23,13,Improv_Metronome,117,5,42,127,2886702432
91,23,13,Improv_Metronome,118,1,48,35,2886941444
91,23,13,Improv_Metronome,119,5,42,127,2887203056
91,23,13,Improv_Metronome,120,1,48,41,2887481904
91,23,13,Improv_Metronome,121,5,42,127,2887702900
91,23,13,Improv_Metronome,122,1,38,54,2887763688
91,23,13,Improv_Metronome,123,1,48,45,2887772868
91,23,13,Improv_Metronome,124,1,48,44,2888198396
91,23,13,Improv_Metronome,125,5,42,127,2888202544
91,23,13,Improv_Metronome,126,5,42,127,2888703292
91,23,13,Improv_Metronome,127,1,38,46,2888720848
91,23,13,Improv_Metronome,128,1,48,41,2888730176
91,23,13,Improv_Metronome,129,1,48,38,2888973468
91,23,13,Improv_Metronome,130,5,42,127,2889203140
91,23,13,Improv_Metronome,131,1,48,39,2889478328
91,23,13,Improv_Metronome,132,5,42,127,2889702984
91,23,13,Improv_Metronome,133,1,38,57,2889748292
91,23,13,Improv_Metronome,134,1,48,46,2889760760
91,23,13,Improv_Metronome,135,1,38,26,2889812352
91,23,13,Improv_Metronome,136,5,42,127,2890202588
91,23,13,Improv_Metronome,137,1,48,43,2890212088
91,23,13,Improv_Metronome,138,1,38,49,2890224860
91,23,13,Improv_Metronome,139,1,48,42,2890700696
91,23,13,Improv_Metronome,140,5,42,127,2890703276
91,23,13,Improv_Metronome,141,1,38,47,2890713796
91,23,13,Improv_Metronome,142,1,48,45,2891166320
91,23,13,Improv_Metronome,143,1,38,44,2891202244
91,23,13,Improv_Metronome,144,5,42,127,2891204712
91,23,13,Improv_Metronome,145,5,42,127,2891702512
91,23,13,Improv_Metronome,146,1,48,45,2892198448
91,23,13,Improv_Metronome,147,5,42,127,2892203344
91,23,13,Improv_Metronome,148,1,38,14,2892217232
91,23,13,Improv_Metronome,149,1,38,54,2892691828
91,23,13,Improv_Metronome,150,5,42,127,2892703080
91,23,13,Improv_Metronome,151,1,48,44,2892959776
91,23,13,Improv_Metronome,152,5,42,127,2893202912
91,23,13,Improv_Metronome,153,1,48,39,2893427832
91,23,13,Improv_Metronome,154,5,42,127,2893702532
91,23,13,Improv_Metronome,155,1,38,51,2893711488
91,23,13,Improv_Metronome,156,1,38,33,2893772644
91,23,13,Improv_Metronome,157,1,48,40,2894198348
91,23,13,Improv_Metronome,158,5,42,127,2894203168
91,23,13,Improv_Metronome,159,1,38,47,2894209356
91,23,13,Improv_Metronome,160,1,48,37,2894687024
91,23,13,Improv_Metronome,161,5,42,127,2894702920
91,23,13,Improv_Metronome,162,1,48,29,2894929096
91,23,13,Improv_Metronome,163,5,42,127,2895202524
91,23,13,Improv_Metronome,164,1,38,57,2895437684
91,23,13,Improv_Metronome,165,1,48,39,2895701900
91,23,13,Improv_Metronome,166,5,42,127,2895703260
91,23,13,Improv_Metronome,167,1,38,59,2896176064
91,23,13,Improv_Metronome,168,1,48,45,2896183076
91,23,13,Improv_Metronome,169,5,42,127,2896203008
91,23,13,Improv_Metronome,170,1,48,43,2896649240
91,23,13,Improv_Metronome,171,5,42,127,2896703048
91,23,13,Improv_Metronome,172,1,48,34,2896944184
91,23,13,Improv_Metronome,173,5,42,127,2897202580
91,23,13,Improv_Metronome,174,1,38,45,2897471404
91,23,13,Improv_Metronome,175,5,42,127,2897703248
91,23,13,Improv_Metronome,176,1,48,44,2897759696
91,23,13,Improv_Metronome,177,5,42,127,2898202944
91,23,13,Improv_Metronome,178,1,48,47,2898211076
91,23,13,Improv_Metronome,179,1,38,50,2898213596
91,23,13,Improv_Metronome,180,1,48,51,2898680556
91,23,13,Improv_Metronome,181,1,38,47,2898687048
91,23,13,Improv_Metronome,182,5,42,127,2898702788
91,23,13,Improv_Metronome,183,1,48,51,2899158488
91,23,13,Improv_Metronome,184,1,38,46,2899177428
91,23,13,Improv_Metronome,185,5,42,127,2899202520
91,23,13,Improv_Metronome,186,5,42,127,2899703020
91,23,13,Improv_Metronome,187,5,42,127,2900203032
91,23,13,Improv_Metronome,188,1,48,48,2900224180
91,23,13,Improv_Metronome,189,5,42,127,2900702704
91,23,13,Improv_Metronome,190,1,38,46,2900730604
91,23,13,Improv_Metronome,191,1,48,41,2900975944
91,23,13,Improv_Metronome,192,5,42,127,2901203348
91,23,13,Improv_Metronome,193,1,48,44,2901459680
91,23,13,Improv_Metronome,194,5,42,127,2901702968
91,23,13,Improv_Metronome,195,1,38,58,2901749796
91,23,13,Improv_Metronome,196,1,38,35,2901805492
91,23,13,Improv_Metronome,197,1,38,49,2902203308
91,23,13,Improv_Metronome,198,5,42,127,2902205848
91,23,13,Improv_Metronome,199,1,48,46,2902210692
91,23,13,Improv_Metronome,200,1,48,46,2902693728
91,23,13,Improv_Metronome,201,5,42,127,2902702368
91,23,13,Improv_Metronome,202,1,38,59,2902964144
91,23,13,Improv_Metronome,203,1,38,28,2903029900
91,23,13,Improv_Metronome,204,5,42,127,2903203296
91,23,13,Improv_Metronome,205,1,48,43,2903449908
91,23,13,Improv_Metronome,206,5,42,127,2903702916
91,23,13,Improv_Metronome,207,1,38,65,2903734228
91,23,13,Improv_Metronome,208,1,38,36,2903787568
91,23,13,Improv_Metronome,209,1,38,54,2904177264
91,23,13,Improv_Metronome,210,1,48,44,2904187564
91,23,13,Improv_Metronome,211,5,42,127,2904202784
91,23,13,Improv_Metronome,212,1,48,40,2904636672
91,23,13,Improv_Metronome,213,5,42,127,2904703276
91,23,13,Improv_Metronome,214,1,38,55,2904962436
91,23,13,Improv_Metronome,215,5,42,127,2905203104
91,23,13,Improv_Metronome,216,1,48,34,2905415376
91,23,13,Improv_Metronome,217,5,42,127,2905703244
91,23,13,Improv_Metronome,218,1,38,42,2905712196
91,23,13,Improv_Metronome,219,1,48,46,2906183524
91,23,13,Improv_Metronome,220,5,42,127,2906202336
91,23,13,Improv_Metronome,221,1,38,48,2906225800
91,23,13,Improv_Metronome,222,1,48,45,2906672196
91,23,13,Improv_Metronome,223,1,38,48,2906675540
91,23,13,Improv_Metronome,224,5,42,127,2906703100
91,23,13,Improv_Metronome,225,1,38,48,2907157704
91,23,13,Improv_Metronome,226,1,48,39,2907160900
91,23,13,Improv_Metronome,227,5,42,127,2907202892
91,23,13,Improv_Metronome,228,1,38,24,2907224768
91,23,13,Improv_Metronome,229,5,42,127,2907702916
91,23,13,Improv_Metronome,230,1,48,37,2908184044
91,23,13,Improv_Metronome,231,5,42,127,2908203376
91,23,13,Improv_Metronome,232,1,48,38,2908512948
91,23,13,Improv_Metronome,233,1,48,36,2908593108
91,23,13,Improv_Metronome,234,5,42,127,2908702960
91,23,13,Improv_Metronome,235,1,48,30,2908879604
91,23,13,Improv_Metronome,236,5,42,127,2909202876
91,23,13,Improv_Metronome,237,1,48,35,2909322532
91,23,13,Improv_Metronome,238,1,48,33,2909574896
91,23,13,Improv_Metronome,239,5,42,127,2909702476
91,23,13,Improv_Metronome,240,1,48,35,2909876804
91,23,13,Improv_Metronome,241,1,48,43,2910102996
91,23,13,Improv_Metronome,242,5,42,127,2910203344
91,23,13,Improv_Metronome,243,1,38,44,2910504480
91,23,13,Improv_Metronome,244,1,38,27,2910626304
91,23,13,Improv_Metronome,245,5,42,127,2910702956
91,23,13,Improv_Metronome,246,1,38,38,2910895596
91,23,13,Improv_Metronome,247,5,42,127,2911202932
91,23,13,Improv_Metronome,248,1,38,28,2911409208
91,23,13,Improv_Metronome,249,1,38,44,2911673840
91,23,13,Improv_Metronome,250,5,42,127,2911703344
91,23,13,Improv_Metronome,251,1,38,23,2911984968
91,23,13,Improv_Metronome,252,5,42,127,2912203096
91,23,13,Improv_Metronome,253,1,38,45,2912246856
91,23,13,Improv_Metronome,254,1,48,29,2912593248
91,23,13,Improv_Metronome,255,1,38,54,2912699664
91,23,13,Improv_Metronome,256,5,42,127,2912702840
91,23,13,Improv_Metronome,257,1,48,38,2912978384
91,23,13,Improv_Metronome,258,5,42,127,2913202744
91,23,13,Improv_Metronome,259,1,38,36,2913458556
91,23,13,Improv_Metronome,260,5,42,127,2913703408
91,23,13,Improv_Metronome,261,1,48,30,2913740412
91,23,13,Improv_Metronome,262,1,48,31,2913994428
91,23,13,Improv_Metronome,263,5,42,127,2914203084
91,23,13,Improv_Metronome,264,1,38,40,2914229764
91,23,13,Improv_Metronome,265,1,48,30,2914273388
91,23,13,Improv_Metronome,266,5,42,127,2914702892
91,23,13,Improv_Metronome,267,1,48,40,2914744232
91,23,13,Improv_Metronome,268,1,38,35,2914747508
91,23,13,Improv_Metronome,269,1,38,44,2915201788
91,23,13,Improv_Metronome,270,5,42,127,2915204180
91,23,13,Improv_Metronome,271,1,48,46,2915208044
91,23,13,Improv_Metronome,272,1,38,31,2915258440
91,23,13,Improv_Metronome,273,1,48,19,2915287884
91,23,13,Improv_Metronome,274,5,42,127,2915703276
91,23,13,Improv_Metronome,275,1,48,45,2916175872
91,23,13,Improv_Metronome,276,5,42,127,2916202836
91,23,13,Improv_Metronome,277,1,48,24,2916236532
91,23,13,Improv_Metronome,278,1,38,41,2916683548
91,23,13,Improv_Metronome,279,5,42,127,2916702732
91,23,13,Improv_Metronome,280,1,48,35,2916953592
91,23,13,Improv_Metronome,281,5,42,127,2917203160
91,23,13,Improv_Metronome,282,1,48,39,2917418056
91,23,13,Improv_Metronome,283,5,42,127,2917703004
91,23,13,Improv_Metronome,284,1,38,45,2917709340
91,23,13,Improv_Metronome,285,1,38,50,2918179396
91,23,13,Improv_Metronome,286,1,48,41,2918182592
91,23,13,Improv_Metronome,287,5,42,127,2918202968
91,23,13,Improv_Metronome,288,1,38,24,2918247592
91,23,13,Improv_Metronome,289,1,48,21,2918251532
91,23,13,Improv_Metronome,290,1,48,38,2918687600
91,23,13,Improv_Metronome,291,5,42,127,2918702668
91,23,13,Improv_Metronome,292,1,38,14,2918920840
91,23,13,Improv_Metronome,293,5,42,127,2919203096
91,23,13,Improv_Metronome,294,1,38,42,2919424348
91,23,13,Improv_Metronome,295,5,42,127,2919702792
91,23,13,Improv_Metronome,296,1,48,43,2919729844
91,23,13,Improv_Metronome,297,1,38,49,2920172900
91,23,13,Improv_Metronome,298,5,42,127,2920202776
91,23,13,Improv_Metronome,299,1,48,13,2920223620
91,23,13,Improv_Metronome,300,1,38,22,2920239684
91,23,13,Improv_Metronome,301,1,48,38,2920644384
91,23,13,Improv_Metronome,302,5,42,127,2920703312
91,23,13,Improv_Metronome,303,1,38,48,2920944224
91,23,13,Improv_Metronome,304,1,38,32,2920995436
91,23,13,Improv_Metronome,305,5,42,127,2921203048
91,23,13,Improv_Metronome,306,1,38,49,2921432504
91,23,13,Improv_Metronome,307,5,42,127,2921702664
91,23,13,Improv_Metronome,308,1,48,32,2921710568
91,23,13,Improv_Metronome,309,1,38,56,2922172528
91,23,13,Improv_Metronome,310,1,48,36,2922189408
91,23,13,Improv_Metronome,311,5,42,127,2922202608
91,23,13,Improv_Metronome,312,5,42,127,2922703328
91,23,13,Improv_Metronome,313,5,42,127,2923202820
91,23,13,Improv_Metronome,314,5,42,127,2923702536
91,23,13,Improv_Metronome,315,5,42,127,2924203448
91,23,13,Improv_Metronome,316,1,38,36,2924227740
91,23,13,Improv_Metronome,317,1,48,35,2924241256
91,23,13,Improv_Metronome,318,1,48,35,2924699612
91,23,13,Improv_Metronome,319,5,42,127,2924703016
91,23,13,Improv_Metronome,320,1,38,49,2924980124
91,23,13,Improv_Metronome,321,5,42,127,2925202696
91,23,13,Improv_Metronome,322,1,48,40,2925476528
91,23,13,Improv_Metronome,323,5,42,127,2925702612
91,23,13,Improv_Metronome,324,1,38,45,2925752176
91,23,13,Improv_Metronome,325,5,42,127,2926203352
91,23,13,Improv_Metronome,326,1,38,51,2926211260
91,23,13,Improv_Metronome,327,1,48,38,2926223132
91,23,13,Improv_Metronome,328,1,38,31,2926267388
91,23,13,Improv_Metronome,329,1,48,38,2926682592
91,23,13,Improv_Metronome,330,5,42,127,2926702972
91,23,13,Improv_Metronome,331,1,38,51,2926984424
91,23,13,Improv_Metronome,332,1,38,22,2927051268
91,23,13,Improv_Metronome,333,5,42,127,2927202552
91,23,13,Improv_Metronome,334,1,38,43,2927453652
91,23,13,Improv_Metronome,335,5,42,127,2927703368
91,23,13,Improv_Metronome,336,1,48,41,2927713816
91,23,13,Improv_Metronome,337,1,38,51,2928190832
91,23,13,Improv_Metronome,338,5,42,127,2928202984
91,23,13,Improv_Metronome,339,1,48,39,2928203948
91,23,13,Improv_Metronome,340,1,38,21,2928262028
91,23,13,Improv_Metronome,341,1,48,41,2928673280
91,23,13,Improv_Metronome,342,5,42,127,2928702708
91,23,13,Improv_Metronome,343,1,38,55,2928959628
91,23,13,Improv_Metronome,344,1,38,24,2929031188
91,23,13,Improv_Metronome,345,5,42,127,2929202516
91,23,13,Improv_Metronome,346,1,38,48,2929477544
91,23,13,Improv_Metronome,347,5,42,127,2929703480
91,23,13,Improv_Metronome,348,1,48,38,2929739584
91,23,13,Improv_Metronome,349,1,38,54,2930177704
91,23,13,Improv_Metronome,350,5,42,127,2930202944
91,23,13,Improv_Metronome,351,1,48,44,2930203912
91,23,13,Improv_Metronome,352,1,38,31,2930247784
91,23,13,Improv_Metronome,353,1,48,44,2930660888
91,23,13,Improv_Metronome,354,5,42,127,2930702584
91,23,13,Improv_Metronome,355,1,48,24,2930718780
91,23,13,Improv_Metronome,356,1,38,44,2931195188
91,23,13,Improv_Metronome,357,5,42,127,2931202404
91,23,13,Improv_Metronome,358,1,38,34,2931232508
91,23,13,Improv_Metronome,359,1,48,41,2931666560
91,23,13,Improv_Metronome,360,5,42,127,2931703048
91,23,13,Improv_Metronome,361,5,42,127,2932202748
91,23,13,Improv_Metronome,362,1,48,45,2932208484
91,23,13,Improv_Metronome,363,1,38,51,2932672232
91,23,13,Improv_Metronome,364,5,42,127,2932702876
91,23,13,Improv_Metronome,365,1,38,37,2932717500
91,23,13,Improv_Metronome,366,1,48,43,2932949056
91,23,13,Improv_Metronome,367,5,42,127,2933203484
91,23,13,Improv_Metronome,368,1,48,40,2933409328
91,23,13,Improv_Metronome,369,1,38,50,2933648760
91,23,13,Improv_Metronome,370,5,42,127,2933702948
91,23,13,Improv_Metronome,371,1,38,28,2933722952
91,23,13,Improv_Metronome,372,1,48,42,2934137136
91,23,13,Improv_Metronome,373,1,38,43,2934147368
91,23,13,Improv_Metronome,0,9999,9999,9999,2864200760
91,23,13,Improv_Metronome,1,9999,9999,9999,2864700480
91,23,13,Improv_Metronome,2,9999,9999,9999,2865200188
91,23,13,Improv_Metronome,3,9999,9999,9999,2865700928
91,23,13,Improv_Metronome,4,9999,9999,9999,2866200624
91,23,13,Improv_Metronome,5,9999,9999,9999,2866700400
91,23,13,Improv_Metronome,6,9999,9999,9999,2867200088
91,23,13,Improv_Metronome,7,9999,9999,9999,2867700832
91,23,13,Improv_Metronome,8,9999,9999,9999,2868200504
91,23,13,Improv_Metronome,9,9999,9999,9999,2868700220
91,23,13,Improv_Metronome,10,9999,9999,9999,2869200948
91,23,13,Improv_Metronome,11,9999,9999,9999,2869700664
91,23,13,Improv_Metronome,12,9999,9999,9999,2870200432
91,23,13,Improv_Metronome,13,9999,9999,9999,2870700124
91,23,13,Improv_Metronome,14,9999,9999,9999,2871200828
91,23,13,Improv_Metronome,15,9999,9999,9999,2871700604
91,23,13,Improv_Metronome,16,9999,9999,9999,2872200296
91,23,13,Improv_Metronome,17,9999,9999,9999,2872700992
91,23,13,Improv_Metronome,18,9999,9999,9999,2873200744
91,23,13,Improv_Metronome,19,9999,9999,9999,2873700468
91,23,13,Improv_Metronome,20,9999,9999,9999,2874200136
91,23,13,Improv_Metronome,21,9999,9999,9999,2874700856
91,23,13,Improv_Metronome,22,9999,9999,9999,2875200580
91,23,13,Improv_Metronome,23,9999,9999,9999,2875700300
91,23,13,Improv_Metronome,24,9999,9999,9999,2876201012
91,23,13,Improv_Metronome,25,9999,9999,9999,2876700784
91,23,13,Improv_Metronome,26,9999,9999,9999,2877200504
91,23,13,Improv_Metronome,27,9999,9999,9999,2877700168
91,23,13,Improv_Metronome,28,9999,9999,9999,2878200880
91,23,13,Improv_Metronome,29,9999,9999,9999,2878700652
91,23,13,Improv_Metronome,30,9999,9999,9999,2879200328
91,23,13,Improv_Metronome,31,9999,9999,9999,2879701096
91,23,13,Improv_Metronome,32,9999,9999,9999,2880200764
91,23,13,Improv_Metronome,33,9999,9999,9999,2880700540
91,23,13,Improv_Metronome,34,9999,9999,9999,2881200240
91,23,13,Improv_Metronome,35,9999,9999,9999,2881700976
91,23,13,Improv_Metronome,36,9999,9999,9999,2882200684
91,23,13,Improv_Metronome,37,9999,9999,9999,2882700404
91,23,13,Improv_Metronome,38,9999,9999,9999,2883200076
91,23,13,Improv_Metronome,39,9999,9999,9999,2883700816
91,23,13,Improv_Metronome,40,9999,9999,9999,2884200512
91,23,13,Improv_Metronome,41,9999,9999,9999,2884700264
91,23,13,Improv_Metronome,42,9999,9999,9999,2885200960
91,23,13,Improv_Metronome,43,9999,9999,9999,2885700700
91,23,13,Improv_Metronome,44,9999,9999,9999,2886200396
91,23,13,Improv_Metronome,45,9999,9999,9999,2886700144
91,23,13,Improv_Metronome,46,9999,9999,9999,2887200844
91,23,13,Improv_Metronome,47,9999,9999,9999,2887700540
91,23,13,Improv_Metronome,48,9999,9999,9999,2888200256
91,23,13,Improv_Metronome,49,9999,9999,9999,2888701004
91,23,13,Improv_Metronome,50,9999,9999,9999,2889200704
91,23,13,Improv_Metronome,51,9999,9999,9999,2889700476
91,23,13,Improv_Metronome,52,9999,9999,9999,2890200152
91,23,13,Improv_Metronome,53,9999,9999,9999,2890700912
91,23,13,Improv_Metronome,54,9999,9999,9999,2891200572
91,23,13,Improv_Metronome,55,9999,9999,9999,2891700300
91,23,13,Improv_Metronome,56,9999,9999,9999,2892201060
91,23,13,Improv_Metronome,57,9999,9999,9999,2892700796
91,23,13,Improv_Metronome,58,9999,9999,9999,2893200476
91,23,13,Improv_Metronome,59,9999,9999,9999,2893700172
91,23,13,Improv_Metronome,60,9999,9999,9999,2894200884
91,23,13,Improv_Metronome,61,9999,9999,9999,2894700632
91,23,13,Improv_Metronome,62,9999,9999,9999,2895200312
91,23,13,Improv_Metronome,63,9999,9999,9999,2895701052
91,23,13,Improv_Metronome,64,9999,9999,9999,2896200796
91,23,13,Improv_Metronome,65,9999,9999,9999,2896700540
91,23,13,Improv_Metronome,66,9999,9999,9999,2897200220
91,23,13,Improv_Metronome,67,9999,9999,9999,2897700960
91,23,13,Improv_Metronome,68,9999,9999,9999,2898200656
91,23,13,Improv_Metronome,69,9999,9999,9999,2898700352
91,23,13,Improv_Metronome,70,9999,9999,9999,2899200084
91,23,13,Improv_Metronome,71,9999,9999,9999,2899700808
91,23,13,Improv_Metronome,72,9999,9999,9999,2900200524
91,23,13,Improv_Metronome,73,9999,9999,9999,2900700268
91,23,13,Improv_Metronome,74,9999,9999,9999,2901200988
91,23,13,Improv_Metronome,75,9999,9999,9999,2901700680
91,23,13,Improv_Metronome,76,9999,9999,9999,2902200428
91,23,13,Improv_Metronome,77,9999,9999,9999,2902700084
91,23,13,Improv_Metronome,78,9999,9999,9999,2903200860
91,23,13,Improv_Metronome,79,9999,9999,9999,2903700552
91,23,13,Improv_Metronome,80,9999,9999,9999,2904200276
91,23,13,Improv_Metronome,81,9999,9999,9999,2904700988
91,23,13,Improv_Metronome,82,9999,9999,9999,2905200740
91,23,13,Improv_Metronome,83,9999,9999,9999,2905700436
91,23,13,Improv_Metronome,84,9999,9999,9999,2906200124
91,23,13,Improv_Metronome,85,9999,9999,9999,2906700888
91,23,13,Improv_Metronome,86,9999,9999,9999,2907200608
91,23,13,Improv_Metronome,87,9999,9999,9999,2907700332
91,23,13,Improv_Metronome,88,9999,9999,9999,2908201016
91,23,13,Improv_Metronome,89,9999,9999,9999,2908700748
91,23,13,Improv_Metronome,90,9999,9999,9999,2909200440
91,23,13,Improv_Metronome,91,9999,9999,9999,2909700188
91,23,13,Improv_Metronome,92,9999,9999,9999,2910200908
91,23,13,Improv_Metronome,93,9999,9999,9999,2910700596
91,23,13,Improv_Metronome,94,9999,9999,9999,2911200348
91,23,13,Improv_Metronome,95,9999,9999,9999,2911701060
91,23,13,Improv_Metronome,96,9999,9999,9999,2912200812
91,23,13,Improv_Metronome,97,9999,9999,9999,2912700480
91,23,13,Improv_Metronome,98,9999,9999,9999,2913200236
91,23,13,Improv_Metronome,99,9999,9999,9999,2913700972
91,23,13,Improv_Metronome,100,9999,9999,9999,2914200644
91,23,13,Improv_Metronome,101,9999,9999,9999,2914700384
91,23,13,Improv_Metronome,102,9999,9999,9999,2915200104
91,23,13,Improv_Metronome,103,9999,9999,9999,2915700840
91,23,13,Improv_Metronome,104,9999,9999,9999,2916200548
91,23,13,Improv_Metronome,105,9999,9999,9999,2916700224
91,23,13,Improv_Metronome,106,9999,9999,9999,2917200948
91,23,13,Improv_Metronome,107,9999,9999,9999,2917700716
91,23,13,Improv_Metronome,108,9999,9999,9999,2918200388
91,23,13,Improv_Metronome,109,9999,9999,9999,2918700084
91,23,13,Improv_Metronome,110,9999,9999,9999,2919200884
91,23,13,Improv_Metronome,111,9999,9999,9999,2919700580
91,23,13,Improv_Metronome,112,9999,9999,9999,2920200268
91,23,13,Improv_Metronome,113,9999,9999,9999,2920701028
91,23,13,Improv_Metronome,114,9999,9999,9999,2921200760
91,23,13,Improv_Metronome,115,9999,9999,9999,2921700452
91,23,13,Improv_Metronome,116,9999,9999,9999,2922200172
91,23,13,Improv_Metronome,117,9999,9999,9999,2922700892
91,23,13,Improv_Metronome,118,9999,9999,9999,2923200608
91,23,13,Improv_Metronome,119,9999,9999,9999,2923700324
91,23,13,Improv_Metronome,120,9999,9999,9999,2924201012
91,23,13,Improv_Metronome,121,9999,9999,9999,2924700728
91,23,13,Improv_Metronome,122,9999,9999,9999,2925200484
91,23,13,Improv_Metronome,123,9999,9999,9999,2925700176
91,23,13,Improv_Metronome,124,9999,9999,9999,2926200916
91,23,13,Improv_Metronome,125,9999,9999,9999,2926700612
91,23,13,Improv_Metronome,126,9999,9999,9999,2927200340
91,23,13,Improv_Metronome,127,9999,9999,9999,2927701084
91,23,13,Improv_Metronome,128,9999,9999,9999,2928200772
91,23,13,Improv_Metronome,129,9999,9999,9999,2928700496
91,23,13,Improv_Metronome,130,9999,9999,9999,2929200228
91,23,13,Improv_Metronome,131,9999,9999,9999,2929700968
91,23,13,Improv_Metronome,132,9999,9999,9999,2930200660
91,23,13,Improv_Metronome,133,9999,9999,9999,2930700372
91,23,13,Improv_Metronome,134,9999,9999,9999,2931200120
91,23,13,Improv_Metronome,135,9999,9999,9999,2931700836
91,23,13,Improv_Metronome,136,9999,9999,9999,2932200536
91,23,13,Improv_Metronome,137,9999,9999,9999,2932700276
91,23,13,Improv_Metronome,138,9999,9999,9999,2933200972
91,23,13,Improv_Metronome,139,9999,9999,9999,2933700660
91,24,14,Improv_Melody,0,2,48,80,2989046048
91,24,14,Improv_Melody,1,2,72,80,2989048716
91,24,14,Improv_Melody,2,5,42,127,2989050208
91,24,14,Improv_Melody,3,5,42,110,2989542676
91,24,14,Improv_Melody,4,5,42,110,2990042744
91,24,14,Improv_Melody,5,5,42,110,2990543140
91,24,14,Improv_Melody,6,5,42,127,2991042864
91,24,14,Improv_Melody,7,5,42,110,2991542736
91,24,14,Improv_Melody,8,5,42,110,2992043576
91,24,14,Improv_Melody,9,5,42,110,2992543076
91,24,14,Improv_Melody,10,2,43,80,2993044992
91,24,14,Improv_Melody,11,2,67,80,2993047452
91,24,14,Improv_Melody,12,5,42,127,2993049840
91,24,14,Improv_Melody,13,5,42,110,2993542608
91,24,14,Improv_Melody,14,5,42,110,2994043376
91,24,14,Improv_Melody,15,5,42,110,2994542876
91,24,14,Improv_Melody,16,5,42,127,2995042672
91,24,14,Improv_Melody,17,5,42,110,2995543368
91,24,14,Improv_Melody,18,5,42,110,2996043088
91,24,14,Improv_Melody,19,5,42,110,2996542808
91,24,14,Improv_Melody,20,2,45,80,2997044808
91,24,14,Improv_Melody,21,2,69,80,2997047260
91,24,14,Improv_Melody,22,5,42,127,2997049652
91,24,14,Improv_Melody,23,5,42,110,2997543388
91,24,14,Improv_Melody,24,5,42,110,2998042888
91,24,14,Improv_Melody,25,5,42,110,2998542828
91,24,14,Improv_Melody,26,5,42,127,2999042552
91,24,14,Improv_Melody,27,5,42,110,2999543024
91,24,14,Improv_Melody,28,5,42,110,3000042820
91,24,14,Improv_Melody,29,5,42,110,3000542468
91,24,14,Improv_Melody,30,2,41,80,3001045784
91,24,14,Improv_Melody,31,2,65,80,3001048096
91,24,14,Improv_Melody,32,5,42,127,3001050628
91,24,14,Improv_Melody,33,5,42,110,3001542920
91,24,14,Improv_Melody,34,5,42,110,3002042716
91,24,14,Improv_Melody,35,5,42,110,3002542512
91,24,14,Improv_Melody,36,1,48,49,3003001796
91,24,14,Improv_Melody,37,5,42,127,3003043276
91,24,14,Improv_Melody,38,1,48,50,3003367960
91,24,14,Improv_Melody,39,1,48,35,3003419172
91,24,14,Improv_Melody,40,1,48,42,3003481608
91,24,14,Improv_Melody,41,5,42,110,3003542760
91,24,14,Improv_Melody,42,1,48,22,3003553636
91,24,14,Improv_Melody,43,1,48,44,3003760380
91,24,14,Improv_Melody,44,1,48,22,3003825132
91,24,14,Improv_Melody,45,5,42,110,3004042548
91,24,14,Improv_Melody,46,1,48,39,3004266044
91,24,14,Improv_Melody,47,1,48,42,3004533300
91,24,14,Improv_Melody,48,5,42,110,3004543436
91,24,14,Improv_Melody,49,1,38,30,3005043252
91,24,14,Improv_Melody,50,2,48,80,3005047888
91,24,14,Improv_Melody,51,2,72,80,3005049808
91,24,14,Improv_Melody,52,5,42,127,3005052348
91,24,14,Improv_Melody,53,1,48,26,3005073720
91,24,14,Improv_Melody,54,1,48,40,3005540564
91,24,14,Improv_Melody,55,5,42,110,3005542752
91,24,14,Improv_Melody,56,1,48,30,3005824872
91,24,14,Improv_Melody,57,5,42,110,3006042436
91,24,14,Improv_Melody,58,1,48,29,3006329732
91,24,14,Improv_Melody,59,5,42,110,3006543184
91,24,14,Improv_Melody,60,1,38,44,3006585944
91,24,14,Improv_Melody,61,1,48,37,3006639556
91,24,14,Improv_Melody,62,5,42,127,3007042924
91,24,14,Improv_Melody,63,1,48,31,3007085908
91,24,14,Improv_Melody,64,1,48,36,3007542848
91,24,14,Improv_Melody,65,5,42,110,3007544260
91,24,14,Improv_Melody,66,1,48,28,3007828260
91,24,14,Improv_Melody,67,5,42,110,3008043500
91,24,14,Improv_Melody,68,1,48,26,3008290484
91,24,14,Improv_Melody,69,5,42,110,3008543052
91,24,14,Improv_Melody,70,1,38,40,3008565988
91,24,14,Improv_Melody,71,1,48,35,3008597088
91,24,14,Improv_Melody,72,2,43,80,3009045280
91,24,14,Improv_Melody,73,2,67,80,3009047212
91,24,14,Improv_Melody,74,5,42,127,3009049824
91,24,14,Improv_Melody,75,1,48,34,3009054816
91,24,14,Improv_Melody,76,5,42,110,3009542492
91,24,14,Improv_Melody,77,1,48,32,3009559752
91,24,14,Improv_Melody,78,1,38,36,3009603184
91,24,14,Improv_Melody,79,1,48,29,3009818956
91,24,14,Improv_Melody,80,5,42,110,3010043396
91,24,14,Improv_Melody,81,1,48,27,3010291428
91,24,14,Improv_Melody,82,1,38,47,3010530412
91,24,14,Improv_Melody,83,5,42,110,3010543088
91,24,14,Improv_Melody,84,1,48,35,3010574252
91,24,14,Improv_Melody,85,1,48,30,3011037100
91,24,14,Improv_Melody,86,5,42,127,3011042532
91,24,14,Improv_Melody,87,5,42,110,3011543332
91,24,14,Improv_Melody,88,1,48,35,3011574448
91,24,14,Improv_Melody,89,1,38,36,3011575104
91,24,14,Improv_Melody,90,1,48,30,3011824756
91,24,14,Improv_Melody,91,5,42,110,3012043188
91,24,14,Improv_Melody,92,1,48,29,3012315556
91,24,14,Improv_Melody,93,5,42,110,3012542740
91,24,14,Improv_Melody,94,1,38,47,3012555060
91,24,14,Improv_Melody,95,1,48,35,3012598312
91,24,14,Improv_Melody,96,1,38,26,3012608088
91,24,14,Improv_Melody,97,1,48,32,3013037400
91,24,14,Improv_Melody,98,2,45,80,3013045024
91,24,14,Improv_Melody,99,2,69,80,3013047108
91,24,14,Improv_Melody,100,5,42,127,3013049648
91,24,14,Improv_Melody,101,5,42,110,3013543144
91,24,14,Improv_Melody,102,1,38,40,3013549332
91,24,14,Improv_Melody,103,1,48,32,3013552528
91,24,14,Improv_Melody,104,1,48,33,3013814068
91,24,14,Improv_Melody,105,5,42,110,3014043152
91,24,14,Improv_Melody,106,1,48,27,3014282284
91,24,14,Improv_Melody,107,5,42,110,3014542700
91,24,14,Improv_Melody,108,1,48,30,3014559728
91,24,14,Improv_Melody,109,1,38,44,3014575644
91,24,14,Improv_Melody,110,1,48,37,3014985312
91,24,14,Improv_Melody,111,1,48,25,3015039888
91,24,14,Improv_Melody,112,5,42,127,3015042400
91,24,14,Improv_Melody,113,1,48,39,3015512444
91,24,14,Improv_Melody,114,1,38,40,3015530072
91,24,14,Improv_Melody,115,5,42,110,3015543352
91,24,14,Improv_Melody,116,1,48,29,3015806300
91,24,14,Improv_Melody,117,5,42,110,3016043232
91,24,14,Improv_Melody,118,1,48,31,3016235464
91,24,14,Improv_Melody,119,1,38,45,3016507660
91,24,14,Improv_Melody,120,1,48,35,3016535836
91,24,14,Improv_Melody,121,5,42,110,3016542532
91,24,14,Improv_Melody,122,1,38,22,3016574732
91,24,14,Improv_Melody,123,1,48,36,3016986208
91,24,14,Improv_Melody,124,2,41,80,3017045440
91,24,14,Improv_Melody,125,2,65,80,3017047748
91,24,14,Improv_Melody,126,5,42,127,3017050440
91,24,14,Improv_Melody,127,1,48,47,3017532448
91,24,14,Improv_Melody,128,5,42,110,3017543256
91,24,14,Improv_Melody,129,1,48,27,3017596400
91,24,14,Improv_Melody,130,1,48,46,3017766268
91,24,14,Improv_Melody,131,5,42,110,3018042844
91,24,14,Improv_Melody,132,1,48,41,3018264696
91,24,14,Improv_Melody,133,1,48,33,3018541640
91,24,14,Improv_Melody,134,5,42,110,3018543360
91,24,14,Improv_Melody,135,1,48,50,3019011236
91,24,14,Improv_Melody,136,5,42,127,3019043284
91,24,14,Improv_Melody,137,1,48,46,3019360568
91,24,14,Improv_Melody,138,1,48,52,3019451196
91,24,14,Improv_Melody,139,1,48,33,3019495632
91,24,14,Improv_Melody,140,5,42,110,3019543088
91,24,14,Improv_Melody,141,1,48,31,3019749596
91,24,14,Improv_Melody,142,1,48,49,3019931180
91,24,14,Improv_Melody,143,5,42,110,3020042604
91,24,14,Improv_Melody,144,1,48,32,3020206760
91,24,14,Improv_Melody,145,1,48,39,3020453972
91,24,14,Improv_Melody,146,5,42,110,3020543268
91,24,14,Improv_Melody,147,1,38,44,3021003336
91,24,14,Improv_Melody,148,1,48,30,3021034096
91,24,14,Improv_Melody,149,2,48,80,3021045536
91,24,14,Improv_Melody,150,2,72,80,3021047996
91,24,14,Improv_Melody,151,5,42,127,3021050304
91,24,14,Improv_Melody,152,1,48,31,3021526724
91,24,14,Improv_Melody,153,5,42,110,3021543020
91,24,14,Improv_Melody,154,1,48,26,3021780168
91,24,14,Improv_Melody,155,5,42,110,3022042484
91,24,14,Improv_Melody,156,1,48,23,3022055024
91,24,14,Improv_Melody,157,1,48,36,3022530216
91,24,14,Improv_Melody,158,1,38,51,3022538804
91,24,14,Improv_Melody,159,5,42,110,3022543324
91,24,14,Improv_Melody,160,5,42,127,3023043080
91,24,14,Improv_Melody,161,1,48,36,3023058096
91,24,14,Improv_Melody,162,5,42,110,3023542556
91,24,14,Improv_Melody,163,1,38,45,3023543520
91,24,14,Improv_Melody,164,1,48,38,3023553144
91,24,14,Improv_Melody,165,1,48,30,3023806688
91,24,14,Improv_Melody,166,1,48,24,3024031676
91,24,14,Improv_Melody,167,5,42,110,3024043460
91,24,14,Improv_Melody,168,1,48,27,3024279064
91,24,14,Improv_Melody,169,1,38,47,3024543296
91,24,14,Improv_Melody,170,5,42,110,3024545384
91,24,14,Improv_Melody,171,1,48,35,3024546792
91,24,14,Improv_Melody,172,1,48,33,3025015688
91,24,14,Improv_Melody,173,2,43,80,3025045544
91,24,14,Improv_Melody,174,2,67,80,3025047840
91,24,14,Improv_Melody,175,5,42,127,3025050300
91,24,14,Improv_Melody,176,5,42,110,3025542528
91,24,14,Improv_Melody,177,1,48,41,3025545196
91,24,14,Improv_Melody,178,1,38,39,3025561260
91,24,14,Improv_Melody,179,1,48,27,3025824668
91,24,14,Improv_Melody,180,5,42,110,3026043208
91,24,14,Improv_Melody,181,1,48,29,3026049016
91,24,14,Improv_Melody,182,1,48,18,3026258528
91,24,14,Improv_Melody,183,1,38,47,3026528552
91,24,14,Improv_Melody,184,5,42,110,3026543100
91,24,14,Improv_Melody,185,1,48,42,3026545848
91,24,14,Improv_Melody,186,1,48,36,3027023724
91,24,14,Improv_Melody,187,5,42,127,3027042616
91,24,14,Improv_Melody,188,1,48,40,3027519016
91,24,14,Improv_Melody,189,1,38,46,3027536720
91,24,14,Improv_Melody,190,5,42,110,3027543344
91,24,14,Improv_Melody,191,1,48,39,3027776444
91,24,14,Improv_Melody,192,1,48,33,3028018500
91,24,14,Improv_Melody,193,5,42,110,3028043220
91,24,14,Improv_Melody,194,1,48,28,3028243740
91,24,14,Improv_Melody,195,1,38,46,3028510244
91,24,14,Improv_Melody,196,1,48,39,3028539096
91,24,14,Improv_Melody,197,5,42,110,3028543100
91,24,14,Improv_Melody,198,1,48,37,3029000096
91,24,14,Improv_Melody,199,2,45,80,3029045056
91,24,14,Improv_Melody,200,2,69,80,3029047204
91,24,14,Improv_Melody,201,5,42,127,3029050040
91,24,14,Improv_Melody,202,1,38,43,3029528984
91,24,14,Improv_Melody,203,5,42,110,3029543308
91,24,14,Improv_Melody,204,1,48,42,3029557872
91,24,14,Improv_Melody,205,1,48,30,3029793608
91,24,14,Improv_Melody,206,5,42,110,3030042960
91,24,14,Improv_Melody,207,1,48,36,3030260248
91,24,14,Improv_Melody,208,5,42,110,3030542808
91,24,14,Improv_Melody,209,1,48,40,3030553784
91,24,14,Improv_Melody,210,1,38,32,3030573360
91,24,14,Improv_Melody,211,1,48,39,3031038156
91,24,14,Improv_Melody,212,5,42,127,3031042456
91,24,14,Improv_Melody,213,1,48,41,3031513916
91,24,14,Improv_Melody,214,1,38,33,3031536788
91,24,14,Improv_Melody,215,5,42,110,3031543256
91,24,14,Improv_Melody,216,1,48,34,3031775316
91,24,14,Improv_Melody,217,5,42,110,3032042764
91,24,14,Improv_Melody,218,1,48,34,3032323928
91,24,14,Improv_Melody,219,5,42,110,3032542540
91,24,14,Improv_Melody,220,1,38,63,3032574604
91,24,14,Improv_Melody,221,1,38,34,3032629488
91,24,14,Improv_Melody,222,1,48,35,3032668956
91,24,14,Improv_Melody,223,2,41,80,3033045844
91,24,14,Improv_Melody,224,2,65,80,3033047996
91,24,14,Improv_Melody,225,5,42,127,3033050636
91,24,14,Improv_Melody,226,1,38,15,3033061832
91,24,14,Improv_Melody,227,1,38,40,3033511592
91,24,14,Improv_Melody,228,5,42,110,3033542972
91,24,14,Improv_Melody,229,1,38,51,3033582680
91,24,14,Improv_Melody,230,1,38,32,3033970056
91,24,14,Improv_Melody,231,5,42,110,3034042876
91,24,14,Improv_Melody,232,1,38,51,3034501096
91,24,14,Improv_Melody,233,5,42,110,3034542576
91,24,14,Improv_Melody,234,1,38,48,3035043032
91,24,14,Improv_Melody,235,5,42,127,3035045116
91,24,14,Improv_Melody,236,5,42,110,3035542808
91,24,14,Improv_Melody,237,1,38,46,3035551088
91,24,14,Improv_Melody,238,5,42,110,3036042728
91,24,14,Improv_Melody,239,1,38,46,3036055796
91,24,14,Improv_Melody,240,1,38,59,3036541132
91,24,14,Improv_Melody,241,5,42,110,3036543912
91,24,14,Improv_Melody,242,1,48,44,3037043932
91,24,14,Improv_Melody,243,2,48,80,3037047084
91,24,14,Improv_Melody,244,2,72,80,3037048864
91,24,14,Improv_Melody,245,5,42,127,3037051472
91,24,14,Improv_Melody,246,1,38,29,3037080848
91,24,14,Improv_Melody,247,1,48,45,3037537348
91,24,14,Improv_Melody,248,5,42,110,3037542920
91,24,14,Improv_Melody,249,1,38,41,3037553220
91,24,14,Improv_Melody,250,1,48,35,3037755820
91,24,14,Improv_Melody,251,1,48,37,3038013880
91,24,14,Improv_Melody,252,5,42,110,3038042420
91,24,14,Improv_Melody,253,1,48,22,3038274128
91,24,14,Improv_Melody,254,1,48,60,3038526576
91,24,14,Improv_Melody,255,5,42,110,3038543140
91,24,14,Improv_Melody,256,1,38,38,3038545884
91,24,14,Improv_Melody,257,1,48,50,3038987792
91,24,14,Improv_Melody,258,5,42,127,3039042884
91,24,14,Improv_Melody,259,1,48,55,3039514872
91,24,14,Improv_Melody,260,1,38,32,3039515520
91,24,14,Improv_Melody,261,5,42,110,3039542716
91,24,14,Improv_Melody,262,1,48,41,3039781956
91,24,14,Improv_Melody,263,1,48,43,3040015548
91,24,14,Improv_Melody,264,5,42,110,3040043260
91,24,14,Improv_Melody,265,1,48,29,3040205756
91,24,14,Improv_Melody,266,1,48,53,3040523308
91,24,14,Improv_Melody,267,1,38,38,3040532636
91,24,14,Improv_Melody,268,5,42,110,3040543144
91,24,14,Improv_Melody,269,1,48,45,3041036120
91,24,14,Improv_Melody,270,2,43,80,3041045168
91,24,14,Improv_Melody,271,2,67,80,3041047472
91,24,14,Improv_Melody,272,5,42,127,3041050012
91,24,14,Improv_Melody,273,1,38,43,3041533368
91,24,14,Improv_Melody,274,5,42,110,3041542532
91,24,14,Improv_Melody,275,1,48,59,3041544472
91,24,14,Improv_Melody,276,1,48,48,3041819160
91,24,14,Improv_Melody,277,1,48,40,3042005460
91,24,14,Improv_Melody,278,5,42,110,3042043296
91,24,14,Improv_Melody,279,1,48,36,3042297668
91,24,14,Improv_Melody,280,1,48,64,3042540316
91,24,14,Improv_Melody,281,5,42,110,3042542900
91,24,14,Improv_Melody,282,1,38,42,3042576836
91,24,14,Improv_Melody,283,5,42,127,3043042648
91,24,14,Improv_Melody,284,1,48,21,3043078528
91,24,14,Improv_Melody,285,1,38,48,3043534876
91,24,14,Improv_Melody,286,5,42,110,3043543588
91,24,14,Improv_Melody,287,1,48,48,3043550696
91,24,14,Improv_Melody,288,1,48,37,3043804384
91,24,14,Improv_Melody,289,1,48,34,3044040892
91,24,14,Improv_Melody,290,5,42,110,3044043008
91,24,14,Improv_Melody,291,1,48,39,3044301644
91,24,14,Improv_Melody,292,1,38,52,3044533892
91,24,14,Improv_Melody,293,5,42,110,3044542688
91,24,14,Improv_Melody,294,1,48,45,3044558740
91,24,14,Improv_Melody,295,1,48,46,3045004536
91,24,14,Improv_Melody,296,2,45,80,3045045000
91,24,14,Improv_Melody,297,2,69,80,3045047308
91,24,14,Improv_Melody,298,5,42,127,3045049840
91,24,14,Improv_Melody,299,1,48,48,3045499020
91,24,14,Improv_Melody,300,1,38,44,3045525324
91,24,14,Improv_Melody,301,5,42,110,3045543392
91,24,14,Improv_Melody,302,1,48,40,3045762720
91,24,14,Improv_Melody,303,1,48,36,3046035808
91,24,14,Improv_Melody,304,5,42,110,3046042880
91,24,14,Improv_Melody,305,1,48,40,3046270772
91,24,14,Improv_Melody,306,5,42,110,3046542640
91,24,14,Improv_Melody,307,1,38,57,3046557052
91,24,14,Improv_Melody,308,1,48,43,3046573036
91,24,14,Improv_Melody,309,1,48,50,3047011432
91,24,14,Improv_Melody,310,5,42,127,3047042508
91,24,14,Improv_Melody,311,1,48,48,3047513068
91,24,14,Improv_Melody,312,1,38,45,3047527492
91,24,14,Improv_Melody,313,5,42,110,3047543160
91,24,14,Improv_Melody,314,1,48,45,3047764148
91,24,14,Improv_Melody,315,1,48,38,3047996392
91,24,14,Improv_Melody,316,5,42,110,3048042884
91,24,14,Improv_Melody,317,1,48,42,3048236524
91,24,14,Improv_Melody,318,1,38,54,3048530108
91,24,14,Improv_Melody,319,1,48,49,3048542700
91,24,14,Improv_Melody,320,5,42,110,3048544264
91,24,14,Improv_Melody,321,1,48,48,3049032976
91,24,14,Improv_Melody,322,2,41,80,3049046068
91,24,14,Improv_Melody,323,2,65,80,3049048296
91,24,14,Improv_Melody,324,5,42,127,3049050680
91,24,14,Improv_Melody,325,1,48,51,3049471056
91,24,14,Improv_Melody,326,1,48,53,3049524664
91,24,14,Improv_Melody,327,5,42,110,3049542952
91,24,14,Improv_Melody,328,1,48,45,3049809668
91,24,14,Improv_Melody,329,1,48,24,3049871204
91,24,14,Improv_Melody,330,5,42,110,3050042616
91,24,14,Improv_Melody,331,1,48,48,3050297380
91,24,14,Improv_Melody,332,5,42,110,3050542536
91,24,14,Improv_Melody,333,1,48,60,3050574676
91,24,14,Improv_Melody,334,5,42,127,3051043208
91,24,14,Improv_Melody,335,1,38,48,3051074152
91,24,14,Improv_Melody,336,1,38,52,3051443212
91,24,14,Improv_Melody,337,1,38,50,3051506940
91,24,14,Improv_Melody,338,5,42,110,3051542880
91,24,14,Improv_Melody,339,1,38,44,3051795684
91,24,14,Improv_Melody,340,5,42,110,3052042640
91,24,14,Improv_Melody,341,1,48,48,3052280876
91,24,14,Improv_Melody,342,1,38,59,3052301428
91,24,14,Improv_Melody,343,5,42,110,3052543636
91,24,14,Improv_Melody,344,1,48,42,3052567400
91,24,14,Improv_Melody,345,1,38,60,3052592592
91,24,14,Improv_Melody,346,2,48,80,3053045800
91,24,14,Improv_Melody,347,1,38,64,3053046760
91,24,14,Improv_Melody,348,2,72,80,3053050868
91,24,14,Improv_Melody,349,5,42,127,3053053112
91,24,14,Improv_Melody,350,1,48,54,3053078296
91,24,14,Improv_Melody,351,1,38,34,3053103704
91,24,14,Improv_Melody,352,1,48,47,3053519552
91,24,14,Improv_Melody,353,5,42,110,3053542732
91,24,14,Improv_Melody,354,1,48,33,3053792692
91,24,14,Improv_Melody,355,1,48,43,3054039056
91,24,14,Improv_Melody,356,1,38,46,3054042708
91,24,14,Improv_Melody,357,5,42,110,3054044792
91,24,14,Improv_Melody,358,1,48,39,3054314248
91,24,14,Improv_Melody,359,1,48,29,3054540564
91,24,14,Improv_Melody,360,5,42,110,3054543224
91,24,14,Improv_Melody,361,1,48,35,3054778828
91,24,14,Improv_Melody,362,1,48,46,3055033812
91,24,14,Improv_Melody,363,5,42,127,3055042904
91,24,14,Improv_Melody,364,1,38,50,3055049916
91,24,14,Improv_Melody,365,1,48,36,3055298436
91,24,14,Improv_Melody,366,1,48,32,3055521564
91,24,14,Improv_Melody,367,5,42,110,3055542620
91,24,14,Improv_Melody,368,1,48,33,3055743664
91,24,14,Improv_Melody,369,1,38,46,3055996108
91,24,14,Improv_Melody,370,1,48,41,3056020468
91,24,14,Improv_Melody,371,5,42,110,3056043400
91,24,14,Improv_Melody,372,1,48,31,3056274636
91,24,14,Improv_Melody,373,1,48,31,3056509872
91,24,14,Improv_Melody,374,5,42,110,3056542976
91,24,14,Improv_Melody,375,1,48,35,3056774684
91,24,14,Improv_Melody,376,1,38,47,3057026160
91,24,14,Improv_Melody,377,2,43,80,3057045152
91,24,14,Improv_Melody,378,2,67,80,3057047308
91,24,14,Improv_Melody,379,5,42,127,3057049848
91,24,14,Improv_Melody,380,1,48,45,3057382636
91,24,14,Improv_Melody,381,1,38,51,3057491964
91,24,14,Improv_Melody,382,1,38,39,3057528300
91,24,14,Improv_Melody,383,5,42,110,3057542624
91,24,14,Improv_Melody,384,1,48,45,3057777924
91,24,14,Improv_Melody,385,1,48,22,3058040540
91,24,14,Improv_Melody,386,5,42,110,3058043276
91,24,14,Improv_Melody,387,1,48,34,3058311340
91,24,14,Improv_Melody,388,5,42,110,3058542884
91,24,14,Improv_Melody,389,1,38,55,3058556472
91,24,14,Improv_Melody,390,1,48,44,3059028700
91,24,14,Improv_Melody,391,5,42,127,3059042800
91,24,14,Improv_Melody,392,1,38,47,3059419644
91,24,14,Improv_Melody,393,1,48,41,3059457548
91,24,14,Improv_Melody,394,5,42,110,3059543512
91,24,14,Improv_Melody,395,1,48,36,3059708280
91,24,14,Improv_Melody,396,1,38,43,3060002912
91,24,14,Improv_Melody,397,5,42,110,3060043264
91,24,14,Improv_Melody,398,1,38,49,3060518920
91,24,14,Improv_Melody,399,1,48,42,3060538944
91,24,14,Improv_Melody,400,5,42,110,3060542796
91,24,14,Improv_Melody,401,1,48,44,3061029264
91,24,14,Improv_Melody,402,2,45,80,3061044892
91,24,14,Improv_Melody,403,2,69,80,3061047428
91,24,14,Improv_Melody,404,5,42,127,3061049812
91,24,14,Improv_Melody,405,1,48,40,3061528376
91,24,14,Improv_Melody,406,1,38,37,3061542232
91,24,14,Improv_Melody,407,5,42,110,3061544700
91,24,14,Improv_Melody,408,1,48,31,3061779448
91,24,14,Improv_Melody,409,5,42,110,3062042864
91,24,14,Improv_Melody,410,1,48,30,3062049128
91,24,14,Improv_Melody,411,1,48,29,3062259608
91,24,14,Improv_Melody,412,1,48,43,3062513624
91,24,14,Improv_Melody,413,1,38,47,3062522960
91,24,14,Improv_Melody,414,5,42,110,3062542592
91,24,14,Improv_Melody,415,1,48,34,3063036688
91,24,14,Improv_Melody,416,5,42,127,3063042564
91,24,14,Improv_Melody,417,1,38,48,3063500988
91,24,14,Improv_Melody,418,5,42,110,3063543160
91,24,14,Improv_Melody,419,1,48,36,3063554880
91,24,14,Improv_Melody,420,1,48,32,3063852252
91,24,14,Improv_Melody,421,5,42,110,3064042736
91,24,14,Improv_Melody,422,1,38,47,3064146604
91,24,14,Improv_Melody,423,5,42,110,3064542512
91,24,14,Improv_Melody,424,1,48,37,3064570388
91,24,14,Improv_Melody,425,1,48,43,3065030616
91,24,14,Improv_Melody,426,1,38,45,3065042336
91,24,14,Improv_Melody,427,2,41,80,3065047584
91,24,14,Improv_Melody,428,2,65,80,3065049744
91,24,14,Improv_Melody,429,5,42,127,3065052356
91,24,14,Improv_Melody,430,1,48,40,3065512768
91,24,14,Improv_Melody,431,5,42,110,3065543100
91,24,14,Improv_Melody,432,1,38,45,3065809368
91,24,14,Improv_Melody,433,5,42,110,3066042712
91,24,14,Improv_Melody,434,1,38,48,3066280420
91,24,14,Improv_Melody,435,5,42,110,3066542560
91,24,14,Improv_Melody,436,1,48,37,3066556676
91,24,14,Improv_Melody,437,1,38,52,3067017680
91,24,14,Improv_Melody,438,1,48,45,3067029780
91,24,14,Improv_Melody,439,5,42,127,3067043280
91,24,14,Improv_Melody,440,1,38,26,3067087148
91,24,14,Improv_Melody,441,1,48,45,3067522844
91,24,14,Improv_Melody,442,1,38,51,3067532996
91,24,14,Improv_Melody,443,5,42,110,3067542836
91,24,14,Improv_Melody,444,1,48,46,3068004620
91,24,14,Improv_Melody,445,1,38,48,3068010736
91,24,14,Improv_Melody,446,5,42,110,3068042712
91,24,14,Improv_Melody,447,1,38,46,3068499856
91,24,14,Improv_Melody,448,1,48,47,3068504852
91,24,14,Improv_Melody,449,5,42,110,3068543412
91,24,14,Improv_Melody,450,1,48,51,3069037356
91,24,14,Improv_Melody,451,2,48,80,3069045660
91,24,14,Improv_Melody,452,2,72,80,3069047892
91,24,14,Improv_Melody,453,5,42,127,3069050500
91,24,14,Improv_Melody,454,5,42,110,3069542728
91,24,14,Improv_Melody,455,1,48,52,3069550112
91,24,14,Improv_Melody,456,1,38,51,3069553532
91,24,14,Improv_Melody,457,1,48,42,3069779324
91,24,14,Improv_Melody,458,1,48,30,3070009856
91,24,14,Improv_Melody,0,9999,9999,9999,2989040696
91,24,14,Improv_Melody,1,9999,9999,9999,2989540460
91,24,14,Improv_Melody,2,9999,9999,9999,2990040156
91,24,14,Improv_Melody,3,9999,9999,9999,2990540848
91,24,14,Improv_Melody,4,9999,9999,9999,2991040572
91,24,14,Improv_Melody,5,9999,9999,9999,2991540296
91,24,14,Improv_Melody,6,9999,9999,9999,2992041060
91,24,14,Improv_Melody,7,9999,9999,9999,2992540784
91,24,14,Improv_Melody,8,9999,9999,9999,2993040504
91,24,14,Improv_Melody,9,9999,9999,9999,2993540168
91,24,14,Improv_Melody,10,9999,9999,9999,2994040936
91,24,14,Improv_Melody,11,9999,9999,9999,2994540656
91,24,14,Improv_Melody,12,9999,9999,9999,2995040304
91,24,14,Improv_Melody,13,9999,9999,9999,2995541076
91,24,14,Improv_Melody,14,9999,9999,9999,2996040796
91,24,14,Improv_Melody,15,9999,9999,9999,2996540516
91,24,14,Improv_Melody,16,9999,9999,9999,2997040240
91,24,14,Improv_Melody,17,9999,9999,9999,2997540948
91,24,14,Improv_Melody,18,9999,9999,9999,2998040668
91,24,14,Improv_Melody,19,9999,9999,9999,2998540388
91,24,14,Improv_Melody,20,9999,9999,9999,2999040112
91,24,14,Improv_Melody,21,9999,9999,9999,2999540804
91,24,14,Improv_Melody,22,9999,9999,9999,3000040528
91,24,14,Improv_Melody,23,9999,9999,9999,3000540252
91,24,14,Improv_Melody,24,9999,9999,9999,3001040992
91,24,14,Improv_Melody,25,9999,9999,9999,3001540704
91,24,14,Improv_Melody,26,9999,9999,9999,3002040424
91,24,14,Improv_Melody,27,9999,9999,9999,3002540148
91,24,14,Improv_Melody,28,9999,9999,9999,3003040836
91,24,14,Improv_Melody,29,9999,9999,9999,3003540540
91,24,14,Improv_Melody,30,9999,9999,9999,3004040256
91,24,14,Improv_Melody,31,9999,9999,9999,3004540996
91,24,14,Improv_Melody,32,9999,9999,9999,3005040700
91,24,14,Improv_Melody,33,9999,9999,9999,3005540432
91,24,14,Improv_Melody,34,9999,9999,9999,3006040144
91,24,14,Improv_Melody,35,9999,9999,9999,3006540892
91,24,14,Improv_Melody,36,9999,9999,9999,3007040632
91,24,14,Improv_Melody,37,9999,9999,9999,3007540332
91,24,14,Improv_Melody,38,9999,9999,9999,3008041060
91,24,14,Improv_Melody,39,9999,9999,9999,3008540760
91,24,14,Improv_Melody,40,9999,9999,9999,3009040488
91,24,14,Improv_Melody,41,9999,9999,9999,3009540200
91,24,14,Improv_Melody,42,9999,9999,9999,3010040956
91,24,14,Improv_Melody,43,9999,9999,9999,3010540648
91,24,14,Improv_Melody,44,9999,9999,9999,3011040312
91,24,14,Improv_Melody,45,9999,9999,9999,3011541040
91,24,14,Improv_Melody,46,9999,9999,9999,3012040820
91,24,14,Improv_Melody,47,9999,9999,9999,3012540524
91,24,14,Improv_Melody,48,9999,9999,9999,3013040236
91,24,14,Improv_Melody,49,9999,9999,9999,3013540928
91,24,14,Improv_Melody,50,9999,9999,9999,3014040636
91,24,14,Improv_Melody,51,9999,9999,9999,3014540408
91,24,14,Improv_Melody,52,9999,9999,9999,3015040108
91,24,14,Improv_Melody,53,9999,9999,9999,3015540836
91,24,14,Improv_Melody,54,9999,9999,9999,3016040568
91,24,14,Improv_Melody,55,9999,9999,9999,3016540244
91,24,14,Improv_Melody,56,9999,9999,9999,3017040952
91,24,14,Improv_Melody,57,9999,9999,9999,3017540664
91,24,14,Improv_Melody,58,9999,9999,9999,3018040404
91,24,14,Improv_Melody,59,9999,9999,9999,3018540104
91,24,14,Improv_Melody,60,9999,9999,9999,3019040844
91,24,14,Improv_Melody,61,9999,9999,9999,3019540576
91,24,14,Improv_Melody,62,9999,9999,9999,3020040312
91,24,14,Improv_Melody,63,9999,9999,9999,3020540976
91,24,14,Improv_Melody,64,9999,9999,9999,3021040744
91,24,14,Improv_Melody,65,9999,9999,9999,3021540432
91,24,14,Improv_Melody,66,9999,9999,9999,3022040164
91,24,14,Improv_Melody,67,9999,9999,9999,3022540884
91,24,14,Improv_Melody,68,9999,9999,9999,3023040564
91,24,14,Improv_Melody,69,9999,9999,9999,3023540340
91,24,14,Improv_Melody,70,9999,9999,9999,3024041020
91,24,14,Improv_Melody,71,9999,9999,9999,3024540780
91,24,14,Improv_Melody,72,9999,9999,9999,3025040440
91,24,14,Improv_Melody,73,9999,9999,9999,3025540164
91,24,14,Improv_Melody,74,9999,9999,9999,3026040916
91,24,14,Improv_Melody,75,9999,9999,9999,3026540660
91,24,14,Improv_Melody,76,9999,9999,9999,3027040324
91,24,14,Improv_Melody,77,9999,9999,9999,3027541052
91,24,14,Improv_Melody,78,9999,9999,9999,3028040780
91,24,14,Improv_Melody,79,9999,9999,9999,3028540512
91,24,14,Improv_Melody,80,9999,9999,9999,3029040184
91,24,14,Improv_Melody,81,9999,9999,9999,3029540944
91,24,14,Improv_Melody,82,9999,9999,9999,3030040668
91,24,14,Improv_Melody,83,9999,9999,9999,3030540368
91,24,14,Improv_Melody,84,9999,9999,9999,3031040088
91,24,14,Improv_Melody,85,9999,9999,9999,3031540816
91,24,14,Improv_Melody,86,9999,9999,9999,3032040548
91,24,14,Improv_Melody,87,9999,9999,9999,3032540248
91,24,14,Improv_Melody,88,9999,9999,9999,3033040976
91,24,14,Improv_Melody,89,9999,9999,9999,3033540680
91,24,14,Improv_Melody,90,9999,9999,9999,3034040432
91,24,14,Improv_Melody,91,9999,9999,9999,3034540136
91,24,14,Improv_Melody,92,9999,9999,9999,3035040888
91,24,14,Improv_Melody,93,9999,9999,9999,3035540588
91,24,14,Improv_Melody,94,9999,9999,9999,3036040288
91,24,14,Improv_Melody,95,9999,9999,9999,3036540992
91,24,14,Improv_Melody,96,9999,9999,9999,3037040708
91,24,14,Improv_Melody,97,9999,9999,9999,3037540408
91,24,14,Improv_Melody,98,9999,9999,9999,3038040124
91,24,14,Improv_Melody,99,9999,9999,9999,3038540852
91,24,14,Improv_Melody,100,9999,9999,9999,3039040592
91,24,14,Improv_Melody,101,9999,9999,9999,3039540272
91,24,14,Improv_Melody,102,9999,9999,9999,3040041044
91,24,14,Improv_Melody,103,9999,9999,9999,3040540780
91,24,14,Improv_Melody,104,9999,9999,9999,3041040452
91,24,14,Improv_Melody,105,9999,9999,9999,3041540168
91,24,14,Improv_Melody,106,9999,9999,9999,3042040932
91,24,14,Improv_Melody,107,9999,9999,9999,3042540608
91,24,14,Improv_Melody,108,9999,9999,9999,3043040356
91,24,14,Improv_Melody,109,9999,9999,9999,3043541072
91,24,14,Improv_Melody,110,9999,9999,9999,3044040756
91,24,14,Improv_Melody,111,9999,9999,9999,3044540468
91,24,14,Improv_Melody,112,9999,9999,9999,3045040208
91,24,14,Improv_Melody,113,9999,9999,9999,3045540952
91,24,14,Improv_Melody,114,9999,9999,9999,3046040664
91,24,14,Improv_Melody,115,9999,9999,9999,3046540348
91,24,14,Improv_Melody,116,9999,9999,9999,3047040068
91,24,14,Improv_Melody,117,9999,9999,9999,3047540796
91,24,14,Improv_Melody,118,9999,9999,9999,3048040520
91,24,14,Improv_Melody,119,9999,9999,9999,3048540272
91,24,14,Improv_Melody,120,9999,9999,9999,3049040972
91,24,14,Improv_Melody,121,9999,9999,9999,3049540660
91,24,14,Improv_Melody,122,9999,9999,9999,3050040400
91,24,14,Improv_Melody,123,9999,9999,9999,3050540096
91,24,14,Improv_Melody,124,9999,9999,9999,3051040844
91,24,14,Improv_Melody,125,9999,9999,9999,3051540588
91,24,14,Improv_Melody,126,9999,9999,9999,3052040272
91,24,14,Improv_Melody,127,9999,9999,9999,3052541048
91,24,14,Improv_Melody,128,9999,9999,9999,3053040704
91,24,14,Improv_Melody,129,9999,9999,9999,3053540440
91,24,14,Improv_Melody,130,9999,9999,9999,3054040116
91,24,14,Improv_Melody,131,9999,9999,9999,3054540860
91,24,14,Improv_Melody,132,9999,9999,9999,3055040612
91,24,14,Improv_Melody,133,9999,9999,9999,3055540332
91,24,14,Improv_Melody,134,9999,9999,9999,3056041032
91,24,14,Improv_Melody,135,9999,9999,9999,3056540760
91,24,14,Improv_Melody,136,9999,9999,9999,3057040436
91,24,14,Improv_Melody,137,9999,9999,9999,3057540184
91,24,14,Improv_Melody,138,9999,9999,9999,3058040908
91,24,14,Improv_Melody,139,9999,9999,9999,3058540668
91,24,14,Improv_Melody,140,9999,9999,9999,3059040360
91,24,14,Improv_Melody,141,9999,9999,9999,3059541072
91,24,14,Improv_Melody,142,9999,9999,9999,3060040824
91,24,14,Improv_Melody,143,9999,9999,9999,3060540508
91,24,14,Improv_Melody,144,9999,9999,9999,3061040176
91,24,14,Improv_Melody,145,9999,9999,9999,3061540936
91,24,14,Improv_Melody,146,9999,9999,9999,3062040648
91,24,14,Improv_Melody,147,9999,9999,9999,3062540376
91,24,14,Improv_Melody,148,9999,9999,9999,3063040124
91,24,14,Improv_Melody,149,9999,9999,9999,3063540796
91,24,14,Improv_Melody,150,9999,9999,9999,3064040516
91,24,14,Improv_Melody,151,9999,9999,9999,3064540220
91,24,14,Improv_Melody,152,9999,9999,9999,3065041008
91,24,14,Improv_Melody,153,9999,9999,9999,3065540660
91,24,14,Improv_Melody,154,9999,9999,9999,3066040420
91,24,14,Improv_Melody,155,9999,9999,9999,3066540120
91,24,14,Improv_Melody,156,9999,9999,9999,3067040840
91,24,14,Improv_Melody,157,9999,9999,9999,3067540544
91,24,14,Improv_Melody,158,9999,9999,9999,3068040272
91,24,14,Improv_Melody,159,9999,9999,9999,3068541048
91,24,14,Improv_Melody,160,9999,9999,9999,3069040716
91,24,14,Improv_Melody,161,9999,9999,9999,3069540436
